<?xml version="1.0" encoding="utf-8"?>
<svg version="1.1" id="svgmap" xmlns="http://www.w3.org/2000/svg" xmlns:xlink="http://www.w3.org/1999/xlink" x="0px" y="0px" width="100%" height="100%" viewBox="0 0 500 500">
<polygon points="205,224 204,224 204,225 203,225 203,224 204,222 204,221 201,221 200,221 199,219 198,219 198,219 195,219 192,219 190,219 190,219 191,218 191,215 191,215 191,214 189,214 188,214 187,214 187,214 187,213 186,213 185,212 183,212 182,212 181,213 181,212 181,212 180,212 178,211 178,211 177,211 177,212 176,211 175,212 174,212 174,212 174,213 172,213 171,212 171,210 170,210 172,209 171,209 171,209 172,208 172,208 173,209 174,208 175,208 175,208 176,206 175,207 172,206 172,207 172,206 170,206 170,205 169,205 168,204 168,203 169,203 169,203 170,203 171,203 172,203 172,203 172,202 174,202 174,202 175,202 175,201 177,201 177,200 175,200 175,199 174,198 175,198 175,197 175,197 174,196 173,196 173,195 172,195 171,195 171,193 173,194 173,193 174,193 174,192 175,192 175,191 176,192 176,191 175,191 176,190 175,190 175,190 173,189 175,188 174,188 175,188 173,188 173,188 173,187 171,188 172,188 170,187 170,187 169,187 167,186 167,186 167,186 167,185 168,185 168,185 169,185 170,183 169,183 168,182 167,181 166,181 166,180 165,181 164,180 163,179 162,178 161,178 160,177 160,177 159,176 157,177 156,177 154,176 155,175 156,174 156,174 157,173 158,173 160,173 160,172 157,170 156,170 155,169 156,168 156,167 156,167 156,165 157,164 158,164 157,163 156,163 151,163 151,162 152,161 152,160 153,160 154,160 155,160 156,160 157,160 158,159 158,158 161,158 161,159 162,159 162,158 162,159 163,158 165,158 166,158 167,158 168,158 170,157 170,157 169,156 171,156 172,156 172,156 175,156 176,156 176,157 176,157 177,157 177,158 178,159 178,159 178,159 180,159 181,159 182,157 182,158 183,157 183,158 184,157 185,158 185,157 185,157 186,158 185,158 186,159 187,158 186,157 186,157 186,157 187,156 188,154 188,154 187,152 187,152 188,151 189,151 190,150 189,150 190,149 191,148 189,148 188,147 188,146 187,146 187,145 186,145 187,145 188,144 188,144 187,143 186,143 187,142 186,142 187,141 189,142 191,142 191,142 192,141 192,141 193,140 193,140 194,140 194,139 193,139 193,138 191,138 192,137 195,136 195,136 196,136 196,136 197,135 198,135 198,135 198,134 199,134 199,134 197,134 198,133 198,133 198,132 198,131 200,131 200,130 201,130 199,129 199,128 201,127 201,127 203,127 204,127 206,128 207,127 208,126 208,126 209,126 211,125 209,125 210,124 210,124 212,123 213,123 214,123 215,123 214,122 214,122 216,123 217,122 219,122 222,124 223,124 224,124 224,124 225,124 225,123 225,123 225,123 226,123 226,123 228,123 229,123 231,124 231,124 233,124 233,125 235,126 234,126 235,127 235,127 237,127 239,127 239,126 240,127 241,126 241,126 243,126 244,126 244,126 245,126 246,126 246,127 248,126 249,126 250,128 252,128 253,128 254,128 255,128 257,127 257,126 258,126 258,126 257,125 258,124 256,123 255,124 255,124 254,124 254,123 254,123 254,122 255,122 255,121 255,121 256,121 257,119 259,119 259,118 261,119 261,119 260,120 261,120 261,120 262,121 263,121 265,123 265,124 266,123 267,123 267,123 269,125 269,124 271,124 271,125 272,125 273,125 272,124 273,124 273,123 273,124 274,123 274,123 276,123 277,123 281,123 281,122 280,121 282,120 284,119 284,118 284,118 286,118 287,118 288,118 289,118 290,118 290,119 291,118 291,119 292,118 293,119 293,118 294,119 295,118 295,118 296,118 296,118 296,118 296,119 297,119 297,119 296,119 295,119 296,120 295,120 296,120 296,120 296,121 296,120 296,121 296,121 297,120 297,120 297,121 298,122 298,122 298,122 298,122 298,123 298,123 298,123 297,124 296,125 296,125 297,125 297,126 297,126 297,126 297,126 297,127 296,127 296,128 296,128 298,128 298,129 299,129 299,129 300,130 301,130 301,131 302,132 302,132 304,130 305,131 305,131 305,131 306,131 307,132 308,132 308,133 308,132 309,133 308,133 307,133 308,134 308,134 310,134 309,135 310,136 309,136 310,136 310,137 311,136 311,137 311,137 310,138 311,138 310,138 309,139 309,139 308,139 308,139 309,139 308,140 308,141 307,141 306,141 306,141 304,142 303,143 303,142 302,142 301,143 300,142 298,142 297,141 296,141 295,142 296,142 295,142 296,143 296,145 296,145 297,146 297,147 296,147 295,148 296,149 296,148 297,149 294,153 293,153 292,154 292,154 293,155 292,156 292,156 292,157 292,158 291,158 291,157 290,157 290,156 289,157 288,156 288,156 287,156 285,156 284,156 284,156 284,157 284,158 284,159 285,160 285,161 284,161 284,161 283,160 282,161 282,161 281,162 280,162 279,162 279,162 279,163 278,163 277,164 277,165 277,166 275,165 275,166 274,166 275,167 274,168 273,168 273,168 273,169 272,168 272,170 271,170 272,171 272,171 270,171 270,172 270,172 269,172 269,173 268,172 268,173 268,173 269,174 269,174 267,175 267,175 266,175 265,175 265,176 265,175 265,176 264,175 264,175 264,174 263,174 263,174 261,176 262,176 261,177 261,177 260,177 260,177 261,178 262,178 262,179 261,179 262,180 260,182 261,183 260,183 261,184 261,184 260,185 260,185 259,186 259,186 259,186 257,186 256,186 256,187 254,188 255,188 254,189 253,190 252,190 252,192 251,192 250,191 248,192 247,192 246,192 246,193 245,193 244,193 244,194 243,194 243,195 242,195 241,195 241,195 241,196 241,197 238,195 238,195 238,197 239,197 239,198 239,198 238,198 237,198 236,198 235,199 234,199 234,201 233,202 233,202 232,205 232,206 233,207 233,209 233,209 234,211 234,213 233,214 232,214 231,214 230,214 228,214 229,215 228,215 227,216 227,217 226,218 225,217 225,218 223,217 224,218 223,219 223,220 223,220 221,222 220,222 220,223 219,223 219,223 218,224 217,223 216,223 215,221 214,221 212,222 211,222 210,221 209,222 208,223 206,224 205,224" id="16" class="departement" fill="steelblue" stroke-width="1" stroke="white" geotype="departement" geoname="Charente" code_insee="16" code_region="54"/><polygon points="74,138 74,137 75,138 74,138 74,138" id="17" class="departement" fill="steelblue" stroke-width="1" stroke="white" geotype="departement" geoname="Charente-Maritime" code_insee="17" code_region="54"/><polygon points="79,174 79,174 79,174 79,174 79,174" id="17" class="departement" fill="steelblue" stroke-width="1" stroke="white" geotype="departement" geoname="Charente-Maritime" code_insee="17" code_region="54"/><polygon points="88,179 88,179 88,179 88,179 88,179" id="17" class="departement" fill="steelblue" stroke-width="1" stroke="white" geotype="departement" geoname="Charente-Maritime" code_insee="17" code_region="54"/><polygon points="66,151 66,151 67,151 67,152 68,153 67,153 65,155 64,155 64,156 64,156 63,156 63,156 62,155 61,151 60,149 59,147 58,146 56,145 56,145 54,144 53,143 53,143 52,143 52,143 52,144 50,142 47,140 46,139 46,138 45,136 46,134 44,130 43,128 48,129 48,130 48,129 48,130 50,131 49,131 51,132 52,132 53,133 53,133 54,134 56,135 58,135 62,135 63,135 63,136 63,137 64,137 63,138 63,138 63,137 62,139 63,139 64,140 64,141 63,142 64,143 65,144 67,145 67,145 68,146 68,147 68,147 68,148 67,149 67,149 68,149 67,149 67,150 66,151" id="17" class="departement" fill="steelblue" stroke-width="1" stroke="white" geotype="departement" geoname="Charente-Maritime" code_insee="17" code_region="54"/><polygon points="65,134 65,134 66,134 65,134 65,134" id="17" class="departement" fill="steelblue" stroke-width="1" stroke="white" geotype="departement" geoname="Charente-Maritime" code_insee="17" code_region="54"/><polygon points="73,133 74,133 74,133 74,133 73,133" id="17" class="departement" fill="steelblue" stroke-width="1" stroke="white" geotype="departement" geoname="Charente-Maritime" code_insee="17" code_region="54"/><polygon points="79,174 79,174 79,174 79,174 79,174" id="17" class="departement" fill="steelblue" stroke-width="1" stroke="white" geotype="departement" geoname="Charente-Maritime" code_insee="17" code_region="54"/><polygon points="58,117 55,117 53,117 52,117 50,116 48,115 46,114 43,113 37,111 36,111 32,112 31,111 29,111 28,109 26,107 26,106 28,106 30,105 31,104 34,105 35,105 35,106 36,107 35,108 34,108 34,108 34,107 33,107 33,108 32,108 31,107 31,107 32,108 31,108 31,109 31,108 32,109 32,109 33,109 34,109 33,110 34,110 35,111 35,111 35,110 35,110 35,109 36,109 37,109 37,108 38,108 38,108 37,108 36,108 37,108 43,108 43,108 42,108 42,109 40,109 40,109 39,109 40,109 40,110 41,110 41,110 41,110 41,110 44,111 48,110 51,111 53,112 55,112 56,112 57,114 58,115 59,115 60,115 61,115 61,115 59,116 58,117 58,117" id="17" class="departement" fill="steelblue" stroke-width="1" stroke="white" geotype="departement" geoname="Charente-Maritime" code_insee="17" code_region="54"/><polygon points="88,179 88,179 88,179 88,179 88,179" id="17" class="departement" fill="steelblue" stroke-width="1" stroke="white" geotype="departement" geoname="Charente-Maritime" code_insee="17" code_region="54"/><polygon points="75,137 75,137 75,138 75,138 75,137" id="17" class="departement" fill="steelblue" stroke-width="1" stroke="white" geotype="departement" geoname="Charente-Maritime" code_insee="17" code_region="54"/><polygon points="79,174 79,174 79,174 79,174 79,174" id="17" class="departement" fill="steelblue" stroke-width="1" stroke="white" geotype="departement" geoname="Charente-Maritime" code_insee="17" code_region="54"/><polygon points="75,138 75,138 75,138 75,138 75,138" id="17" class="departement" fill="steelblue" stroke-width="1" stroke="white" geotype="departement" geoname="Charente-Maritime" code_insee="17" code_region="54"/><polygon points="74,137 74,137 75,137 74,137 74,137" id="17" class="departement" fill="steelblue" stroke-width="1" stroke="white" geotype="departement" geoname="Charente-Maritime" code_insee="17" code_region="54"/><polygon points="79,174 79,174 79,174 79,174 79,174" id="17" class="departement" fill="steelblue" stroke-width="1" stroke="white" geotype="departement" geoname="Charente-Maritime" code_insee="17" code_region="54"/><polygon points="88,179 88,179 88,179 88,179 88,179" id="17" class="departement" fill="steelblue" stroke-width="1" stroke="white" geotype="departement" geoname="Charente-Maritime" code_insee="17" code_region="54"/><polygon points="203,225 204,225 204,226 201,228 201,228 202,229 203,229 204,230 199,231 200,233 199,234 199,236 198,236 197,236 197,236 196,236 195,235 194,234 193,233 192,233 191,234 189,235 189,236 187,237 186,237 185,237 182,237 180,236 178,235 175,235 174,234 174,234 173,233 173,232 172,232 172,231 168,230 168,232 167,231 167,229 165,228 162,228 160,229 160,231 158,227 158,226 156,224 156,224 156,223 156,222 156,221 157,220 157,219 155,219 156,218 156,217 155,216 154,215 151,214 150,214 150,214 148,214 145,215 144,214 141,214 140,213 139,214 139,213 138,212 138,211 139,210 138,209 138,209 137,208 136,210 136,211 135,211 135,210 134,210 133,211 131,211 130,211 130,211 123,210 122,210 121,206 122,206 121,206 119,201 118,199 116,197 116,197 114,196 114,195 113,193 111,194 110,193 109,192 110,192 110,191 106,189 104,189 103,188 102,187 101,187 101,186 100,187 98,185 97,185 94,184 93,183 91,182 91,182 91,181 90,179 90,179 89,179 89,179 88,179 89,178 87,177 86,177 86,177 85,177 85,177 84,177 84,176 82,176 82,175 81,175 81,175 81,175 80,175 80,174 79,175 78,174 77,174 73,171 71,170 71,171 70,170 69,169 66,168 67,168 66,168 64,168 64,169 65,170 65,170 65,171 66,171 67,171 68,170 69,170 65,171 63,170 63,168 62,160 63,158 66,157 67,157 67,157 68,157 72,156 73,157 74,157 78,160 81,161 82,162 84,164 86,165 87,165 89,166 90,167 90,168 91,168 91,168 89,166 92,166 92,167 93,167 94,167 94,167 92,166 93,166 92,166 89,166 86,165 85,163 80,161 78,160 76,158 74,156 74,155 74,155 74,154 72,153 73,152 72,152 71,151 71,151 72,151 71,150 70,150 71,150 70,150 72,150 73,150 72,149 74,149 75,150 75,150 76,150 77,149 78,149 78,147 80,148 78,147 78,147 81,145 81,144 81,142 81,141 78,140 78,140 78,140 79,139 79,139 77,139 77,139 76,138 77,138 78,139 79,139 79,139 81,139 81,139 82,139 84,139 84,139 87,138 83,139 83,139 82,139 81,138 80,136 79,136 77,134 76,133 76,133 78,134 79,134 79,134 80,134 83,134 84,133 84,132 83,131 83,130 83,128 82,128 80,128 79,128 79,127 79,127 79,127 79,125 78,123 77,122 75,122 74,122 74,122 74,121 75,121 76,121 75,119 73,119 73,118 72,118 70,118 70,117 71,117 72,116 69,116 68,116 69,116 69,116 66,117 66,117 64,117 63,116 63,116 64,116 64,116 64,116 65,116 65,116 64,115 63,116 64,115 63,115 62,116 62,115 63,115 65,115 65,114 64,114 65,114 64,114 65,114 65,113 66,113 67,112 67,111 66,110 67,109 69,108 70,108 72,107 73,107 73,106 74,105 76,104 76,104 75,99 76,98 76,97 76,97 77,98 78,98 78,98 79,98 79,98 81,97 81,97 81,96 84,94 84,95 88,93 88,94 90,93 90,94 93,94 94,92 94,92 95,93 96,92 97,92 98,91 97,93 96,95 94,97 96,97 98,98 98,98 99,98 99,98 100,98 102,98 102,97 103,96 103,97 104,97 105,96 105,96 106,97 105,97 107,97 107,97 107,96 108,95 109,95 110,95 110,95 111,95 112,95 113,95 113,95 112,95 112,96 112,97 113,97 114,97 115,97 116,98 117,98 118,99 118,99 119,102 120,103 118,105 118,105 118,106 124,108 125,109 125,109 125,111 126,111 125,111 124,111 124,112 126,112 124,112 125,113 125,113 125,113 126,113 126,113 128,113 129,114 130,115 131,115 132,115 132,115 134,115 135,116 134,116 133,116 131,116 132,117 132,117 133,118 134,118 135,117 137,118 137,117 139,117 141,117 143,118 143,118 144,118 143,119 145,119 145,119 145,119 144,120 146,120 145,121 146,121 148,121 150,122 151,122 152,122 153,123 154,123 153,122 156,121 155,123 158,124 159,122 160,122 160,123 161,123 162,124 163,124 162,125 162,125 165,124 166,124 169,125 170,124 170,124 171,124 172,125 172,126 172,126 172,127 177,128 177,128 177,128 179,129 181,128 182,127 181,129 182,129 182,131 185,129 185,129 184,131 185,131 185,131 185,132 186,133 185,133 187,133 187,133 188,134 188,135 188,135 188,136 190,136 192,137 191,138 193,138 193,139 194,139 194,140 193,140 193,140 192,141 192,141 191,142 191,142 189,142 187,141 186,142 187,142 186,143 187,143 188,144 188,144 187,145 186,145 187,145 187,146 188,146 188,147 189,148 191,148 190,149 189,150 190,150 189,151 188,151 187,152 187,152 188,154 188,154 187,156 186,157 186,157 186,157 187,158 186,159 185,158 186,158 185,157 185,157 185,158 184,157 183,158 183,157 182,158 182,157 181,159 180,159 178,159 178,159 178,159 177,158 177,157 176,157 176,157 176,156 175,156 172,156 172,156 171,156 169,156 170,157 170,157 168,158 167,158 166,158 165,158 163,158 162,159 162,158 162,159 161,159 161,158 158,158 158,159 157,160 156,160 155,160 154,160 153,160 152,160 152,161 151,162 151,163 156,163 157,163 158,164 157,164 156,165 156,167 156,167 156,168 155,169 156,170 157,170 160,172 160,173 158,173 157,173 156,174 156,174 155,175 154,176 156,177 157,177 159,176 160,177 160,177 161,178 162,178 163,179 164,180 165,181 166,180 166,181 167,181 168,182 169,183 170,183 169,185 168,185 168,185 167,185 167,186 167,186 167,186 169,187 170,187 170,187 172,188 171,188 173,187 173,188 173,188 175,188 174,188 175,188 173,189 175,190 175,190 176,190 175,191 176,191 176,192 175,191 175,192 174,192 174,193 173,193 173,194 171,193 171,195 172,195 173,195 173,196 174,196 175,197 175,197 175,198 174,198 175,199 175,200 177,200 177,201 175,201 175,202 174,202 174,202 172,202 172,203 172,203 171,203 170,203 169,203 169,203 168,203 168,204 169,205 170,205 170,206 172,206 172,207 172,206 175,207 176,206 175,208 175,208 174,208 173,209 172,208 172,208 171,209 171,209 172,209 170,210 171,210 171,212 172,213 174,213 174,212 174,212 175,212 176,211 177,212 177,211 178,211 178,211 180,212 181,212 181,212 181,213 182,212 183,212 185,212 186,213 187,213 187,214 187,214 188,214 189,214 191,214 191,215 191,215 191,218 190,219 190,219 192,219 195,219 198,219 198,219 199,219 200,221 201,221 204,221 204,222 203,224 203,225" id="17" class="departement" fill="steelblue" stroke-width="1" stroke="white" geotype="departement" geoname="Charente-Maritime" code_insee="17" code_region="54"/><polygon points="79,174 79,174 79,174 79,174 79,174" id="17" class="departement" fill="steelblue" stroke-width="1" stroke="white" geotype="departement" geoname="Charente-Maritime" code_insee="17" code_region="54"/><polygon points="69,132 70,131 71,131 72,131 70,131 71,132 70,133 70,133 69,132" id="17" class="departement" fill="steelblue" stroke-width="1" stroke="white" geotype="departement" geoname="Charente-Maritime" code_insee="17" code_region="54"/><polygon points="472,205 472,206 472,206 472,207 472,207 471,207 470,208 471,209 471,209 471,210 469,210 467,211 465,212 465,212 464,215 462,214 461,214 460,215 460,216 458,217 458,218 458,219 456,219 455,221 454,221 454,222 453,222 452,222 452,222 453,223 452,224 452,224 453,225 453,227 455,227 455,228 456,227 456,228 457,228 457,228 457,228 457,229 456,229 454,229 455,230 454,231 453,232 451,232 451,232 451,233 452,233 452,234 452,234 452,234 452,234 451,234 451,235 451,235 451,235 451,236 451,236 450,237 451,238 450,238 450,238 449,238 448,237 447,238 447,238 447,237 446,238 446,238 445,239 444,239 444,239 444,239 442,240 442,240 442,240 442,241 442,241 441,241 442,242 443,243 443,243 444,245 445,245 445,246 447,247 446,247 447,247 446,249 444,249 444,249 444,249 442,249 442,249 441,249 439,250 438,250 437,250 437,250 437,250 436,249 432,250 431,250 429,250 427,252 426,252 425,253 424,253 424,250 422,250 422,250 421,250 420,250 419,250 419,251 418,251 418,252 416,252 415,253 414,253 413,254 413,254 412,254 412,254 412,253 411,255 411,255 409,255 408,256 408,256 408,256 408,256 408,255 407,255 406,254 406,255 405,256 405,256 404,255 402,254 403,254 403,253 402,253 402,252 401,252 400,252 400,251 399,251 398,251 398,251 398,251 397,249 396,248 395,247 393,247 393,246 392,246 393,246 391,245 391,244 391,245 390,244 389,244 389,244 388,243 388,244 388,244 386,243 386,244 386,243 386,243 384,243 382,243 380,244 379,244 378,242 377,242 376,242 377,243 375,243 373,243 373,244 372,244 372,244 371,244 371,245 369,246 368,245 366,244 365,243 364,242 363,241 364,240 363,241 362,240 363,239 363,239 362,237 362,237 362,236 361,235 360,236 360,235 362,235 364,234 364,233 363,233 362,232 361,232 359,232 357,232 357,231 357,231 355,232 353,231 352,232 352,231 351,232 351,231 350,231 349,230 348,230 348,230 347,230 347,229 346,229 346,228 348,228 349,227 350,226 350,226 348,224 347,225 343,225 343,224 343,223 344,222 346,221 349,220 348,218 348,218 346,218 344,218 345,217 343,216 343,216 344,214 344,214 344,214 345,213 344,213 344,212 344,211 346,211 348,210 349,208 350,207 349,207 351,207 352,207 353,206 353,205 353,205 354,204 354,204 353,204 352,203 352,203 350,202 351,203 350,203 350,203 349,204 349,203 348,203 349,202 348,201 348,202 348,202 347,202 347,202 346,201 346,200 348,200 348,200 349,200 349,200 350,200 350,199 349,198 350,198 350,198 350,198 349,197 348,198 348,198 347,197 346,197 346,196 347,196 347,196 347,195 347,195 347,194 347,194 348,193 348,193 349,193 350,192 349,191 351,192 351,192 352,192 354,193 357,194 358,193 358,192 359,192 360,191 361,191 361,190 362,190 362,189 362,188 363,188 363,187 365,187 366,187 366,188 366,188 367,188 367,188 368,187 369,186 368,184 371,184 372,183 373,184 373,185 374,185 375,185 376,184 376,183 378,183 377,184 378,184 379,184 380,184 380,185 380,185 382,184 383,184 384,182 385,181 385,182 387,181 387,182 388,182 388,181 389,181 389,181 390,181 390,180 391,180 391,180 391,180 392,180 392,179 392,178 393,178 396,175 397,175 398,174 399,175 400,175 400,174 402,174 402,174 403,173 404,173 404,172 405,172 406,170 407,170 407,171 408,171 408,170 409,170 410,170 411,171 411,172 412,172 413,172 413,172 414,171 415,171 415,172 416,172 417,171 417,171 417,171 417,170 418,170 420,170 420,170 420,170 420,170 420,169 420,169 419,169 419,168 420,168 420,167 421,167 421,167 422,166 423,166 423,167 424,167 425,167 424,166 424,166 425,166 425,165 426,165 427,165 428,165 429,165 430,165 430,165 431,164 430,163 431,162 433,161 435,162 436,160 437,160 438,162 440,162 440,164 440,164 442,164 444,165 444,164 446,164 446,164 447,165 448,165 449,164 451,164 452,165 453,165 454,166 453,166 453,167 452,167 453,168 454,168 455,167 455,166 455,167 456,167 456,168 456,168 457,168 458,168 458,168 459,169 460,169 461,169 462,169 461,170 461,171 461,172 463,172 464,171 465,171 466,170 467,171 468,171 467,170 468,170 468,170 469,170 470,168 470,168 470,167 470,167 472,166 473,166 474,167 474,167 475,167 477,167 480,168 481,167 482,167 482,167 484,165 484,166 484,165 485,164 485,164 487,163 488,165 488,165 489,166 490,166 490,167 490,168 490,168 490,168 490,169 491,170 490,170 489,170 489,171 489,172 490,172 490,172 490,173 491,172 490,174 490,174 489,175 488,175 487,174 487,175 486,174 485,175 485,178 484,179 483,179 485,181 484,181 485,182 485,182 486,183 486,183 487,184 488,184 489,184 489,185 490,186 489,186 490,187 489,187 489,188 490,188 489,188 490,188 489,188 489,189 488,190 489,191 489,191 488,192 488,193 488,194 488,195 487,195 487,195 488,196 487,196 486,200 489,202 490,201 490,202 490,202 491,203 490,204 489,203 488,204 488,204 486,204 485,204 485,205 485,205 485,205 484,205 485,204 484,204 483,203 481,204 481,204 480,203 479,202 476,202 476,202 476,201 474,200 473,200 472,200 471,200 470,201 471,202 472,202 472,203 473,203 472,204 472,205" id="19" class="departement" fill="steelblue" stroke-width="1" stroke="white" geotype="departement" geoname="Corrèze" code_insee="19" code_region="74"/><polygon points="401,151 400,152 399,151 398,152 397,151 396,151 395,152 394,152 394,152 393,152 392,153 392,151 391,151 390,151 390,151 389,151 388,151 385,150 386,149 386,148 386,147 385,147 385,147 384,147 385,146 385,146 386,146 387,146 387,146 387,146 387,147 387,147 388,145 388,145 388,146 389,146 390,146 390,145 389,145 390,145 388,145 389,144 389,144 389,144 388,144 388,143 388,143 388,143 389,142 390,142 389,142 388,142 388,141 388,141 387,141 387,142 387,141 386,141 384,141 384,142 383,141 382,143 383,143 382,143 381,143 380,142 380,143 379,143 378,142 377,141 376,142 375,141 375,141 375,140 376,140 376,140 376,140 376,140 376,139 376,139 377,139 379,139 379,138 379,138 380,138 381,138 382,136 383,136 382,135 381,134 382,134 381,134 380,134 379,134 379,134 379,134 378,134 377,132 378,131 379,130 379,130 379,130 378,129 378,128 378,128 377,127 378,127 378,126 378,126 379,125 378,124 378,125 377,125 377,124 377,123 377,124 377,123 377,123 375,123 375,123 375,123 374,124 374,123 374,122 372,122 373,121 373,120 374,120 373,120 373,120 375,120 375,119 374,119 374,119 373,119 373,118 373,118 373,117 372,118 371,117 370,116 369,117 369,116 368,116 369,115 370,115 370,115 369,115 369,114 369,114 369,113 368,113 367,113 367,114 366,114 366,113 364,114 364,113 364,113 363,113 362,113 362,112 362,112 362,111 361,111 361,110 360,110 361,110 360,110 359,109 360,109 360,109 360,108 360,108 361,108 361,108 361,107 362,107 362,107 362,107 362,106 363,106 364,106 364,106 365,105 364,105 364,104 363,105 363,105 363,104 364,104 364,103 365,103 367,103 366,102 365,102 364,102 365,101 365,101 365,101 365,100 366,99 366,100 366,99 366,100 367,99 368,99 367,98 367,97 367,97 367,97 368,96 368,96 367,95 366,96 365,95 365,95 364,95 364,94 365,94 367,93 366,92 367,92 368,91 368,91 370,91 370,91 370,90 370,90 371,90 371,89 373,88 374,89 374,88 374,87 375,87 375,86 377,85 378,85 378,86 379,86 379,89 380,89 381,88 382,87 383,87 384,87 385,87 385,86 386,86 387,86 387,86 388,86 387,87 387,88 387,88 388,89 388,89 388,89 389,89 390,90 391,89 392,88 395,86 396,87 396,87 397,88 396,88 397,88 397,89 397,88 398,89 400,89 401,88 402,88 402,87 403,85 403,84 403,84 402,83 402,82 406,82 407,82 408,82 408,83 410,84 410,85 411,85 412,85 412,85 413,85 413,85 414,84 417,84 418,84 418,83 418,83 419,84 419,84 420,84 420,83 421,83 422,84 422,84 422,85 424,84 426,84 428,84 428,83 429,84 430,84 430,85 433,85 434,85 436,86 438,86 439,86 440,87 441,87 441,87 442,87 444,86 445,86 447,86 447,85 449,86 450,85 452,86 453,85 456,86 457,85 457,86 458,85 459,85 460,86 461,86 463,86 462,87 463,87 462,87 463,88 463,90 463,90 465,90 465,91 466,91 468,91 469,92 469,92 467,92 467,93 466,93 466,93 465,93 465,94 466,94 466,94 466,94 465,95 466,95 466,96 467,96 467,96 468,96 468,97 469,97 469,97 470,96 471,97 471,97 472,97 472,98 473,98 473,98 473,97 474,96 474,96 475,96 476,97 477,98 478,98 478,99 478,100 478,101 479,101 479,101 480,100 480,100 481,100 483,101 484,101 485,102 485,102 485,102 485,104 486,105 488,106 489,106 489,106 489,107 489,108 490,110 490,110 490,110 490,111 491,111 490,112 491,113 492,114 493,113 494,114 494,114 494,116 495,116 495,117 495,117 495,117 495,118 494,118 494,119 494,118 494,119 494,119 494,119 493,120 493,120 493,121 493,122 493,123 493,124 494,126 495,126 495,128 499,130 499,130 499,131 499,132 499,132 498,133 498,134 498,135 500,137 500,137 497,138 497,138 495,139 495,140 493,140 494,141 492,141 492,143 492,143 494,143 494,144 493,144 492,144 492,145 492,145 490,145 490,146 489,146 489,147 488,146 488,147 487,148 486,149 487,149 485,149 485,148 483,148 483,149 481,149 481,150 482,150 481,151 480,151 480,152 480,152 479,152 476,152 475,153 475,154 477,155 477,155 478,155 477,156 479,157 479,157 479,157 480,158 480,160 481,161 482,161 482,161 482,161 483,161 484,161 484,162 486,162 486,163 487,163 485,164 485,164 484,165 484,166 484,165 482,167 482,167 481,167 480,168 477,167 475,167 474,167 474,167 473,166 472,166 470,167 470,167 470,168 470,168 469,170 468,170 468,170 467,170 468,171 467,171 466,170 465,171 464,171 463,172 461,172 461,171 461,170 462,169 461,169 460,169 459,169 458,168 458,168 457,168 456,168 456,168 456,167 455,167 455,166 455,167 454,168 453,168 452,167 453,167 453,166 454,166 453,165 452,165 451,164 449,164 448,165 447,165 446,164 446,164 444,164 444,165 442,164 440,164 440,164 440,162 438,162 437,160 436,160 435,162 433,161 431,162 430,163 431,164 430,165 430,165 429,165 428,165 427,165 426,165 425,165 425,166 424,166 424,166 425,167 424,167 423,167 423,166 422,166 421,167 421,167 420,167 420,168 419,168 418,167 417,167 417,166 418,166 418,165 417,165 416,165 417,164 418,163 418,163 416,161 417,161 419,161 420,160 419,160 418,160 418,158 418,157 417,157 416,156 415,156 414,155 414,156 414,156 414,155 414,155 413,155 413,155 413,154 413,154 412,153 411,154 411,155 410,155 409,154 408,153 408,153 407,153 407,153 406,153 406,153 405,153 405,151 406,150 405,150 405,149 404,149 403,149 403,150 401,151" id="23" class="departement" fill="steelblue" stroke-width="1" stroke="white" geotype="departement" geoname="Creuse" code_insee="23" code_region="74"/><polygon points="214,266 213,266 212,268 211,268 210,267 209,267 209,267 208,267 208,265 206,264 204,265 200,264 200,264 202,263 202,262 203,262 204,262 204,261 204,261 204,261 205,260 205,259 205,259 207,257 206,256 205,255 205,254 204,253 205,252 204,251 205,251 205,250 205,249 207,250 208,248 207,246 208,244 208,245 208,243 210,243 210,242 210,241 211,240 212,239 212,239 211,239 211,238 211,236 210,236 209,235 208,234 207,234 204,234 203,234 202,234 200,234 200,235 199,236 199,234 200,233 199,231 204,230 203,229 202,229 201,228 201,228 204,226 204,225 204,224 205,224 206,224 208,223 209,222 210,221 211,222 212,222 214,221 215,221 216,223 217,223 218,224 219,223 219,223 220,223 220,222 221,222 223,220 223,220 223,219 224,218 223,217 225,218 225,217 226,218 227,217 227,216 228,215 229,215 228,214 230,214 231,214 232,214 233,214 234,213 234,211 233,209 233,209 233,207 232,206 232,205 233,202 233,202 234,201 234,199 235,199 236,198 237,198 238,198 239,198 239,198 239,197 238,197 238,195 238,195 241,197 241,196 241,195 241,195 242,195 243,195 243,194 244,194 244,193 245,193 246,193 246,192 247,192 248,192 250,191 251,192 252,192 252,190 253,190 254,189 255,188 254,188 256,187 256,186 257,186 259,186 259,186 259,186 260,185 260,185 261,184 261,184 260,183 261,183 260,182 262,180 261,179 262,179 262,178 261,178 260,177 260,177 261,177 261,177 262,176 261,176 263,174 263,174 264,174 264,175 264,175 265,176 265,175 265,176 265,175 266,175 267,175 267,175 269,174 269,174 268,173 268,173 268,172 269,173 269,172 270,172 270,172 270,171 272,171 272,171 271,170 272,170 272,168 273,169 273,168 273,168 274,168 275,167 274,166 275,166 276,168 278,168 277,168 278,169 278,169 279,169 279,169 279,169 280,169 280,169 280,169 281,169 282,169 282,169 282,169 282,169 283,169 283,169 284,169 284,168 285,168 286,168 287,169 288,169 288,170 289,170 290,171 291,171 292,171 291,173 290,174 290,176 289,177 290,179 290,178 292,180 292,180 294,179 295,180 295,180 295,182 296,182 298,181 299,181 300,180 301,178 302,176 303,177 304,178 305,179 306,179 306,178 307,179 309,178 310,178 311,177 311,178 312,178 314,178 314,179 315,179 316,178 317,177 318,178 320,178 320,179 321,179 321,180 321,180 322,181 321,181 321,182 322,183 322,184 324,184 324,184 326,185 326,186 327,187 327,186 328,186 328,186 329,186 329,185 330,185 330,185 331,185 331,185 332,185 332,186 332,186 333,186 336,188 334,189 332,190 332,191 330,192 331,193 331,193 332,194 333,193 334,193 335,193 335,193 336,193 336,194 337,194 337,195 338,195 340,195 341,195 344,196 344,197 345,198 346,197 347,197 348,198 348,198 349,197 350,198 350,198 350,198 349,198 350,199 350,200 349,200 349,200 348,200 348,200 346,200 346,201 347,202 347,202 348,202 348,202 348,201 349,202 348,203 349,203 349,204 350,203 350,203 351,203 350,202 352,203 352,203 353,204 354,204 354,204 353,205 353,205 353,206 352,207 351,207 349,207 350,207 349,208 348,210 346,211 344,211 344,212 344,213 345,213 344,214 344,214 344,214 343,216 343,216 345,217 344,218 346,218 348,218 348,218 349,220 346,221 344,222 343,223 343,224 343,225 347,225 348,224 350,226 350,226 349,227 348,228 346,228 346,229 347,229 347,230 348,230 348,230 349,230 350,231 351,231 351,232 352,231 352,232 353,231 355,232 357,231 357,231 357,232 359,232 361,232 362,232 363,233 364,233 364,234 362,235 360,235 360,236 361,235 362,236 362,237 362,237 363,239 363,239 362,240 363,241 364,240 363,241 364,242 365,243 366,244 368,245 367,245 368,246 363,246 364,248 364,248 364,249 364,250 365,251 364,252 365,252 366,253 366,253 367,254 366,254 367,255 366,255 367,255 367,256 367,256 367,257 365,256 364,258 364,258 365,258 365,259 365,259 367,260 367,261 366,262 364,262 364,262 364,262 363,263 363,263 363,264 363,264 361,264 361,265 360,265 359,265 359,265 358,266 358,267 359,268 358,269 358,269 356,269 354,269 354,269 351,270 350,271 352,271 352,272 351,273 352,273 353,274 354,274 353,277 351,276 351,277 351,277 351,278 350,279 350,280 349,279 348,279 348,279 347,280 345,280 345,281 344,282 343,282 343,283 343,283 340,283 339,283 340,283 339,283 338,283 336,284 335,284 334,285 334,286 334,287 334,288 334,289 331,291 329,292 328,294 329,294 329,295 328,295 329,296 327,296 326,296 326,296 326,295 326,294 325,293 323,293 322,292 321,292 318,291 317,289 316,289 315,288 313,289 312,288 311,288 309,289 307,290 307,290 304,291 303,291 302,293 301,293 299,293 298,293 298,292 299,292 299,291 299,291 298,291 297,291 297,290 296,290 296,290 298,289 299,289 298,288 299,288 298,287 299,286 299,285 300,285 298,285 297,284 298,283 297,282 296,281 296,282 296,281 294,281 293,282 293,283 292,283 290,282 290,284 288,283 286,284 285,284 284,284 283,284 282,284 281,284 280,284 279,284 278,284 278,282 278,282 277,281 275,281 274,281 274,282 274,282 272,282 272,282 271,282 270,281 269,282 268,285 267,284 266,285 266,285 265,285 265,285 264,284 263,284 263,284 262,284 261,284 260,284 260,285 259,285 257,285 256,286 255,286 255,286 254,287 252,287 251,288 251,288 247,286 246,287 245,286 244,286 243,286 243,286 243,284 244,283 244,282 244,282 242,281 242,280 243,280 243,279 242,278 241,277 240,277 240,275 238,275 237,274 235,273 234,272 234,272 235,270 234,269 234,269 233,267 236,267 237,266 238,267 237,266 238,265 238,265 239,265 236,263 235,262 232,262 231,262 230,262 231,263 231,263 229,265 227,265 225,268 225,268 224,267 224,267 220,267 218,267 216,268 216,268 216,268 216,266 214,266" id="24" class="departement" fill="steelblue" stroke-width="1" stroke="white" geotype="departement" geoname="Dordogne" code_insee="24" code_region="72"/><polygon points="62,295 63,295 63,295 63,295 63,295 62,295" id="33" class="departement" fill="steelblue" stroke-width="1" stroke="white" geotype="departement" geoname="Gironde" code_insee="33" code_region="72"/><polygon points="229,274 229,275 228,275 228,275 228,276 228,276 227,277 228,278 228,279 226,279 225,276 225,276 225,276 224,276 224,276 223,277 223,277 222,277 221,278 219,277 219,278 219,279 219,279 219,280 218,280 219,280 219,281 218,281 217,280 217,280 216,280 216,281 215,281 215,282 215,282 215,283 216,283 216,283 217,283 219,283 218,284 219,285 219,285 219,285 220,285 220,285 221,285 222,285 222,285 223,285 224,286 223,286 223,287 222,289 220,289 220,289 219,288 219,289 219,290 220,290 221,291 221,292 219,292 217,293 217,293 216,294 213,294 213,295 213,296 213,297 213,297 212,297 212,298 212,298 211,299 211,298 208,298 208,298 207,298 206,299 206,299 203,298 203,299 204,300 205,300 205,300 205,302 204,302 203,302 203,302 202,303 201,305 202,305 202,307 202,308 202,308 202,309 203,308 204,309 204,310 204,311 203,311 203,311 202,312 203,313 202,313 203,313 202,314 204,316 206,317 205,317 204,317 206,318 205,319 204,319 204,319 202,319 200,320 199,320 198,320 197,320 195,321 194,321 194,322 195,323 196,324 197,324 199,327 198,328 199,328 200,330 198,330 197,331 196,333 196,332 195,332 195,333 193,334 193,334 192,334 192,334 191,335 189,333 189,334 187,335 185,333 184,332 182,330 181,330 180,331 178,331 177,332 178,337 173,339 172,339 168,338 161,337 159,337 158,334 160,328 158,328 156,327 154,327 154,324 149,324 145,322 143,319 140,318 139,317 135,316 132,315 130,315 132,315 132,312 132,310 131,310 127,309 126,310 126,310 126,310 125,311 124,311 121,310 120,310 116,311 115,311 115,311 115,311 115,312 115,312 113,312 111,313 108,313 100,311 99,310 96,311 93,312 86,313 89,311 91,308 92,306 91,303 91,303 89,303 87,303 80,300 78,304 67,306 61,308 61,305 60,301 60,300 62,298 64,295 66,293 66,291 66,288 68,286 69,286 71,285 73,286 74,286 73,286 74,287 73,287 73,287 74,287 76,287 76,287 78,287 79,287 79,287 78,286 79,286 79,287 79,287 81,287 81,287 81,288 81,287 81,288 81,287 82,288 82,287 83,287 83,287 85,287 86,286 86,287 87,286 88,285 87,284 86,284 86,284 85,283 84,283 82,282 84,282 85,282 85,282 85,282 85,282 85,281 84,281 83,280 82,280 81,279 78,277 77,276 76,276 76,276 76,276 76,276 75,276 74,275 74,275 74,275 73,274 73,274 73,274 72,273 71,273 70,274 70,274 70,274 69,275 70,275 70,276 69,276 70,276 69,277 69,277 68,277 67,279 64,280 65,281 64,281 63,284 63,286 62,287 62,288 62,289 62,289 62,290 61,290 60,289 60,287 63,269 65,256 68,239 69,233 71,219 71,215 72,207 71,203 72,201 73,197 72,194 72,192 74,190 76,188 78,186 78,186 79,183 80,183 81,183 83,182 82,183 83,183 83,183 83,183 83,184 83,184 83,184 83,184 83,184 83,184 83,184 83,184 83,185 85,185 85,186 84,187 85,187 84,186 83,186 83,186 83,187 84,187 84,187 84,188 83,188 84,187 84,187 82,187 82,188 82,189 82,189 84,190 87,191 87,192 88,192 90,193 90,194 90,194 91,194 91,195 92,195 93,196 98,197 99,199 100,200 101,201 103,202 105,203 108,204 112,208 112,208 112,209 113,209 115,212 116,215 117,215 118,218 119,221 119,221 120,221 125,220 124,215 122,210 123,210 130,211 130,211 131,211 133,211 134,210 135,210 135,211 136,211 136,210 137,208 138,209 138,209 139,210 138,211 138,212 139,213 139,214 140,213 141,214 144,214 145,215 148,214 150,214 150,214 151,214 154,215 155,216 156,217 156,218 155,219 157,219 157,220 156,221 156,222 156,223 156,224 156,224 158,226 158,227 160,231 160,229 162,228 165,228 167,229 167,231 168,232 168,230 172,231 172,232 173,232 173,233 174,234 174,234 175,235 178,235 180,236 182,237 185,237 186,237 187,237 189,236 189,235 191,234 192,233 193,233 194,234 195,235 196,236 197,236 197,236 198,236 199,236 200,235 200,234 202,234 203,234 204,234 207,234 208,234 209,235 210,236 211,236 211,238 211,239 212,239 212,239 211,240 210,241 210,242 210,243 208,243 208,245 208,244 207,246 208,248 207,250 205,249 205,250 205,251 204,251 205,252 204,253 205,254 205,255 206,256 207,257 205,259 205,259 205,260 204,261 204,261 204,261 204,262 203,262 202,262 202,263 200,264 200,264 204,265 206,264 208,265 208,267 209,267 209,267 210,267 211,268 212,268 213,266 214,266 216,266 216,268 216,268 216,268 218,267 220,267 224,267 224,267 225,268 225,268 227,265 229,265 231,263 231,263 230,262 231,262 232,262 235,262 236,263 239,265 238,265 238,265 237,266 238,267 237,266 236,267 233,267 234,269 234,269 235,270 234,272 234,272 235,273 237,274 237,275 236,275 235,275 234,275 232,276 231,275 231,274 230,274 229,274 229,274" id="33" class="departement" fill="steelblue" stroke-width="1" stroke="white" geotype="departement" geoname="Gironde" code_insee="33" code_region="72"/><polygon points="61,296 61,296 61,296 61,296 61,296" id="33" class="departement" fill="steelblue" stroke-width="1" stroke="white" geotype="departement" geoname="Gironde" code_insee="33" code_region="72"/><polygon points="61,296 63,294 64,293 62,294 62,294 61,295 61,296 61,296" id="33" class="departement" fill="steelblue" stroke-width="1" stroke="white" geotype="departement" geoname="Gironde" code_insee="33" code_region="72"/><polygon points="61,293 61,293 62,293 61,293 61,293" id="33" class="departement" fill="steelblue" stroke-width="1" stroke="white" geotype="departement" geoname="Gironde" code_insee="33" code_region="72"/><polygon points="68,281 69,281 70,281 71,282 69,282 68,281" id="33" class="departement" fill="steelblue" stroke-width="1" stroke="white" geotype="departement" geoname="Gironde" code_insee="33" code_region="72"/><polygon points="68,180 69,180 70,180 70,181 71,181 70,181 71,181 70,181 70,181 68,180" id="33" class="departement" fill="steelblue" stroke-width="1" stroke="white" geotype="departement" geoname="Gironde" code_insee="33" code_region="72"/><polygon points="169,410 169,410 169,411 166,411 165,412 164,411 163,411 162,411 161,410 160,410 159,410 158,410 157,410 155,411 155,411 154,411 153,412 152,412 151,410 151,410 151,410 152,410 151,411 153,410 153,409 153,409 154,409 154,409 154,408 154,408 154,407 153,407 153,407 152,407 151,408 151,407 149,408 149,408 147,409 146,410 146,410 145,410 145,410 144,411 143,412 141,413 140,413 140,412 139,411 139,411 138,412 136,413 136,413 134,413 133,413 132,412 131,411 130,412 129,411 129,411 129,411 131,410 131,409 128,410 127,410 126,411 126,411 125,411 125,411 124,411 123,411 123,413 122,413 121,412 121,412 120,412 120,411 116,409 114,409 115,410 113,410 112,411 110,411 108,412 108,413 106,413 105,413 104,412 102,412 100,412 99,413 99,414 98,414 97,413 96,413 96,414 94,414 92,413 91,413 91,413 90,413 90,414 91,414 91,416 90,417 91,417 89,417 88,417 87,417 87,417 86,416 85,417 85,416 84,417 83,416 82,417 82,416 82,416 81,415 81,416 80,416 78,416 76,417 75,418 74,418 74,419 73,419 73,419 72,418 72,418 71,419 70,418 70,418 71,418 70,417 71,417 72,417 73,416 75,417 75,416 75,415 74,415 74,415 72,414 72,413 71,413 70,412 68,412 67,413 65,414 61,416 60,416 57,418 53,417 52,417 49,418 49,418 48,418 43,418 42,418 42,417 42,417 41,416 40,416 38,415 37,416 37,414 36,414 36,413 34,414 34,414 33,414 30,414 29,414 30,414 34,410 35,408 37,405 39,401 39,400 40,397 41,390 43,385 43,384 44,379 46,374 50,361 53,351 53,351 54,346 57,330 58,326 58,323 61,308 67,306 78,304 80,300 87,303 89,303 91,303 91,303 92,306 91,308 89,311 86,313 93,312 96,311 99,310 100,311 108,313 111,313 113,312 115,312 115,312 115,311 115,311 115,311 116,311 120,310 121,310 124,311 125,311 126,310 126,310 126,310 127,309 131,310 132,310 132,312 132,315 130,315 132,315 135,316 139,317 140,318 143,319 145,322 149,324 154,324 154,327 156,327 158,328 160,328 158,334 159,337 161,337 168,338 172,339 173,339 178,337 177,332 178,331 180,331 181,330 182,330 184,332 185,333 187,335 189,338 189,344 190,344 191,343 194,343 197,344 203,344 207,345 207,346 219,347 218,347 219,348 217,349 216,350 215,351 215,352 215,352 214,353 213,354 213,354 213,355 212,356 213,356 212,357 212,358 210,358 210,359 210,361 212,363 212,363 212,363 211,364 211,364 211,365 210,365 210,365 210,365 210,366 211,367 211,368 211,368 212,371 211,371 212,372 211,372 210,373 208,372 207,372 205,371 201,369 202,368 202,368 204,367 204,366 203,365 199,363 198,365 197,365 195,366 195,367 194,367 193,367 192,367 192,368 193,369 192,369 191,369 191,368 189,367 188,368 186,368 186,369 185,369 185,369 185,369 183,368 183,369 182,369 181,370 180,371 179,371 178,371 177,371 177,372 176,372 177,373 176,373 177,373 178,373 178,373 179,373 179,374 181,374 182,374 182,375 182,376 182,376 182,376 182,376 181,375 181,376 181,376 180,377 180,377 181,378 181,379 182,380 181,380 182,382 181,383 180,383 179,383 179,382 179,382 178,383 178,384 179,384 178,385 179,385 179,386 179,387 179,387 180,388 180,388 180,389 179,389 179,389 179,389 181,389 181,391 178,393 175,394 176,394 176,395 176,396 176,396 175,396 175,397 174,397 174,398 176,398 176,399 176,400 176,400 174,400 174,401 173,402 171,401 172,403 171,404 172,404 175,404 175,406 175,407 175,407 175,407 176,408 176,408 175,408 174,408 175,408 174,408 172,408 171,408 171,409 170,410 170,410 169,410" id="40" class="departement" fill="steelblue" stroke-width="1" stroke="white" geotype="departement" geoname="Landes" code_insee="40" code_region="72"/><polygon points="304,344 305,345 305,345 304,345 303,345 304,346 303,346 302,346 301,346 301,346 300,346 296,344 295,344 294,345 294,344 293,345 294,346 293,347 294,348 293,348 293,348 292,348 291,348 291,348 290,348 290,349 289,349 289,350 288,350 288,350 288,351 287,352 287,353 288,353 287,354 287,354 285,354 284,354 283,355 282,356 282,356 281,356 280,357 281,357 279,358 278,357 278,356 277,356 276,355 275,355 275,354 273,353 272,353 272,353 271,352 272,352 271,352 271,352 270,352 269,352 269,353 268,353 268,354 267,354 266,355 265,354 265,355 264,354 263,354 262,354 261,355 260,354 259,354 259,354 258,355 256,355 255,356 255,356 254,356 254,358 253,358 252,358 251,357 250,358 248,358 249,359 248,359 247,360 246,360 245,359 244,359 244,359 244,359 242,360 241,360 239,360 239,360 240,361 239,361 238,362 238,362 235,361 234,361 234,360 233,360 233,360 232,361 230,360 230,359 230,358 229,359 228,358 228,358 227,359 227,358 226,359 226,359 225,359 225,359 224,361 223,361 222,361 222,363 222,364 221,364 219,364 220,361 218,361 218,361 217,361 217,362 216,363 213,362 212,363 212,363 210,361 210,359 210,358 212,358 212,357 213,356 212,356 213,355 213,354 213,354 214,353 215,352 215,352 215,351 216,350 217,349 219,348 218,347 219,347 207,346 207,345 203,344 197,344 194,343 191,343 190,344 189,344 189,338 187,335 189,334 189,333 191,335 192,334 192,334 193,334 193,334 195,333 195,332 196,332 196,333 197,331 198,330 200,330 199,328 198,328 199,327 197,324 196,324 195,323 194,322 194,321 195,321 197,320 198,320 199,320 200,320 202,319 204,319 204,319 205,319 206,318 204,317 205,317 206,317 204,316 202,314 203,313 202,313 203,313 202,312 203,311 203,311 204,311 204,310 204,309 203,308 202,309 202,308 202,308 202,307 202,305 201,305 202,303 203,302 203,302 204,302 205,302 205,300 205,300 204,300 203,299 203,298 206,299 206,299 207,298 208,298 208,298 211,298 211,299 212,298 212,298 212,297 213,297 213,297 213,296 213,295 213,294 216,294 217,293 217,293 219,292 221,292 221,291 220,290 219,290 219,289 219,288 220,289 220,289 222,289 223,287 223,286 224,286 223,285 222,285 222,285 221,285 220,285 220,285 219,285 219,285 219,285 218,284 219,283 217,283 216,283 216,283 215,283 215,282 215,282 215,281 216,281 216,280 217,280 217,280 218,281 219,281 219,280 218,280 219,280 219,279 219,279 219,278 219,277 221,278 222,277 223,277 223,277 224,276 224,276 225,276 225,276 225,276 226,279 228,279 228,278 227,277 228,276 228,276 228,275 228,275 229,275 229,274 229,274 230,274 231,274 231,275 232,276 234,275 235,275 236,275 237,275 237,274 238,275 240,275 240,277 241,277 242,278 243,279 243,280 242,280 242,281 244,282 244,282 244,283 243,284 243,286 243,286 244,286 245,286 246,287 247,286 251,288 251,288 252,287 254,287 255,286 255,286 256,286 257,285 259,285 260,285 260,284 261,284 262,284 263,284 263,284 264,284 265,285 265,285 266,285 266,285 267,284 268,285 269,282 270,281 271,282 272,282 272,282 274,282 274,282 274,281 275,281 277,281 278,282 278,282 278,284 279,284 280,284 281,284 282,284 283,284 284,284 285,284 286,284 288,283 290,284 290,282 292,283 293,283 293,282 294,281 296,281 296,282 296,281 297,282 298,283 297,284 298,285 300,285 299,285 299,286 298,287 299,288 298,288 299,289 298,289 296,290 296,290 297,290 297,291 298,291 299,291 299,291 299,292 298,292 298,293 299,293 301,293 302,293 303,291 304,291 307,290 307,290 309,289 311,288 312,288 313,289 315,288 316,289 317,289 318,291 321,292 322,292 323,293 325,293 326,294 326,295 325,296 322,297 322,297 322,297 320,298 321,298 319,299 319,300 318,299 318,299 316,298 315,299 316,300 316,300 316,301 317,301 318,303 319,303 319,304 318,305 319,305 319,305 318,305 319,305 318,306 320,307 320,307 320,308 319,309 320,310 319,310 321,311 320,312 321,312 322,311 322,312 323,312 323,312 323,312 324,312 324,314 324,315 323,316 324,316 324,318 324,318 324,319 324,319 322,320 320,319 318,319 317,319 314,320 314,320 312,320 311,320 311,320 310,321 311,321 310,322 310,322 310,319 309,318 308,317 307,317 306,318 305,317 305,318 304,319 305,320 305,321 305,321 304,323 304,323 304,323 304,324 303,324 303,325 302,326 302,326 303,326 304,326 305,327 306,327 308,326 308,328 309,328 309,328 310,329 310,329 311,329 310,330 311,329 311,330 310,331 309,330 310,333 308,333 308,334 309,334 309,334 309,335 306,338 306,339 306,339 301,339 301,339 300,340 300,341 302,341 302,342 304,341 304,341 304,342 304,343 305,343 304,344" id="47" class="departement" fill="steelblue" stroke-width="1" stroke="white" geotype="departement" geoname="Lot-et-Garonne" code_insee="47" code_region="72"/><polygon points="26,419 26,419 26,419 26,419 26,419" id="64" class="departement" fill="steelblue" stroke-width="1" stroke="white" geotype="departement" geoname="Pyrénées-Atlantiques" code_insee="64" code_region="72"/><polygon points="25,419 25,419 25,419 25,419 25,419" id="64" class="departement" fill="steelblue" stroke-width="1" stroke="white" geotype="departement" geoname="Pyrénées-Atlantiques" code_insee="64" code_region="72"/><polygon points="24,420 24,420 24,420 24,420 24,420" id="64" class="departement" fill="steelblue" stroke-width="1" stroke="white" geotype="departement" geoname="Pyrénées-Atlantiques" code_insee="64" code_region="72"/><polygon points="25,419 25,419 25,419 25,419 25,419" id="64" class="departement" fill="steelblue" stroke-width="1" stroke="white" geotype="departement" geoname="Pyrénées-Atlantiques" code_insee="64" code_region="72"/><polygon points="25,419 25,419 25,419 25,419 25,419" id="64" class="departement" fill="steelblue" stroke-width="1" stroke="white" geotype="departement" geoname="Pyrénées-Atlantiques" code_insee="64" code_region="72"/><polygon points="10,439 9,440 8,440 7,441 6,439 6,439 6,439 6,438 6,437 4,437 4,436 3,435 3,435 2,436 0,434 1,433 0,433 0,432 0,431 0,432 1,432 2,432 4,431 4,431 5,431 6,431 7,431 12,430 13,429 12,430 12,430 14,430 15,430 15,429 14,429 15,429 17,428 17,428 18,427 18,427 19,427 21,426 22,425 24,422 24,422 24,421 24,421 25,421 25,420 25,420 25,420 25,420 25,419 25,419 25,419 25,420 26,420 25,420 25,420 25,420 25,419 25,419 26,420 26,419 26,419 27,419 27,418 27,418 27,418 27,418 30,415 30,415 30,415 30,414 33,414 34,414 34,414 36,413 36,414 37,414 37,416 38,415 40,416 41,416 42,417 42,417 42,418 43,418 48,418 49,418 49,418 52,417 53,417 57,418 60,416 61,416 65,414 67,413 68,412 70,412 71,413 72,413 72,414 74,415 74,415 75,415 75,416 75,417 73,416 72,417 71,417 70,417 71,418 70,418 70,418 71,419 72,418 72,418 73,419 73,419 74,419 74,418 75,418 76,417 78,416 80,416 81,416 81,415 82,416 82,416 82,417 83,416 84,417 85,416 85,417 86,416 87,417 87,417 88,417 89,417 91,417 90,417 91,416 91,414 90,414 90,413 91,413 91,413 92,413 94,414 96,414 96,413 97,413 98,414 99,414 99,413 100,412 102,412 104,412 105,413 106,413 108,413 108,412 110,411 112,411 113,410 115,410 114,409 116,409 120,411 120,412 121,412 121,412 122,413 123,413 123,411 124,411 125,411 125,411 126,411 126,411 127,410 128,410 131,409 131,410 129,411 129,411 129,411 130,412 131,411 132,412 133,413 134,413 136,413 136,413 138,412 139,411 139,411 140,412 140,413 141,413 143,412 144,411 145,410 145,410 146,410 146,410 147,409 149,408 149,408 151,407 151,408 152,407 153,407 153,407 154,407 154,408 154,408 154,409 154,409 153,409 153,409 153,410 151,411 152,410 151,410 151,410 151,410 152,412 153,412 154,411 155,411 155,411 157,410 158,410 159,410 160,410 161,410 162,411 163,411 164,411 165,412 166,411 169,411 169,410 169,410 170,410 170,410 171,409 171,408 172,408 174,408 175,408 174,408 175,408 176,408 177,408 177,407 179,407 180,408 182,408 183,407 185,408 185,408 186,408 187,408 188,408 187,409 189,408 190,408 190,408 191,408 192,408 192,409 193,410 193,410 193,411 193,412 193,413 193,413 194,412 196,412 196,413 196,413 197,413 197,414 198,414 198,415 198,416 199,416 198,417 198,418 198,419 200,419 199,421 200,421 201,421 201,421 201,422 200,421 196,422 196,423 196,424 195,425 197,426 198,427 196,427 196,428 197,428 198,428 199,427 200,425 201,426 202,424 203,424 203,424 203,425 205,426 203,429 203,429 203,430 204,429 204,430 203,430 203,431 203,432 204,432 204,432 204,433 204,433 205,434 206,435 207,435 206,436 206,436 205,437 205,438 204,437 203,437 200,437 200,438 199,439 199,440 198,440 198,442 199,442 201,443 200,443 201,443 201,444 200,445 201,445 198,448 198,449 198,450 196,449 195,449 196,454 193,454 192,455 191,456 191,454 190,454 189,455 189,456 188,457 188,458 188,458 187,458 187,459 187,459 187,460 185,461 185,461 184,461 184,461 183,462 181,461 182,462 182,463 181,463 181,463 181,464 182,464 182,465 181,467 181,467 182,468 182,468 183,468 182,468 181,470 180,470 179,470 178,471 175,470 174,470 174,471 174,471 174,473 173,473 172,474 171,474 170,475 171,478 170,479 171,479 171,481 172,481 171,482 171,482 170,482 168,483 168,484 166,484 166,485 167,486 167,488 169,489 168,492 166,493 166,493 165,493 164,493 164,493 162,495 162,495 160,496 160,497 159,497 158,497 157,496 153,498 152,497 151,497 149,496 148,495 147,495 147,495 146,494 145,494 145,495 144,496 144,497 143,498 142,498 141,500 139,499 139,498 139,497 139,497 138,496 136,497 135,497 136,496 135,494 135,494 133,493 131,491 129,491 128,489 126,488 124,488 123,488 122,487 121,486 120,486 120,486 120,484 121,484 121,483 122,483 121,483 121,482 119,480 118,478 116,478 115,479 114,478 113,479 111,480 108,480 107,480 105,480 104,480 101,479 101,479 100,478 100,479 99,480 96,480 95,479 93,479 92,478 90,477 89,476 88,475 87,475 82,475 80,474 80,473 78,473 77,472 75,473 74,473 74,474 73,472 70,470 70,470 69,471 66,469 64,468 63,469 62,470 60,469 59,468 57,467 56,467 56,467 55,467 56,464 59,461 53,462 52,462 50,464 51,465 51,466 51,468 50,470 50,471 48,471 40,469 38,467 36,465 36,465 36,464 37,463 40,462 39,462 41,461 41,461 42,460 43,460 43,459 43,458 42,457 44,457 44,457 44,454 46,453 46,452 46,452 46,451 47,450 46,449 47,448 46,447 47,446 44,444 43,443 41,444 40,444 39,444 37,443 35,443 35,442 34,443 32,441 30,441 29,441 28,441 27,441 26,442 26,443 24,446 24,446 22,446 21,446 19,444 18,442 19,440 19,440 18,439 16,440 15,439 14,439 12,439 11,439 10,439" id="64" class="departement" fill="steelblue" stroke-width="1" stroke="white" geotype="departement" geoname="Pyrénées-Atlantiques" code_insee="64" code_region="72"/><polygon points="26,419 26,419 26,419 26,419 26,419" id="64" class="departement" fill="steelblue" stroke-width="1" stroke="white" geotype="departement" geoname="Pyrénées-Atlantiques" code_insee="64" code_region="72"/><polygon points="26,419 26,419 26,419 26,419 26,419" id="64" class="departement" fill="steelblue" stroke-width="1" stroke="white" geotype="departement" geoname="Pyrénées-Atlantiques" code_insee="64" code_region="72"/><polygon points="25,419 25,419 25,419 25,419 25,419" id="64" class="departement" fill="steelblue" stroke-width="1" stroke="white" geotype="departement" geoname="Pyrénées-Atlantiques" code_insee="64" code_region="72"/><polygon points="25,419 25,419 25,419 25,419 25,419" id="64" class="departement" fill="steelblue" stroke-width="1" stroke="white" geotype="departement" geoname="Pyrénées-Atlantiques" code_insee="64" code_region="72"/><polygon points="26,419 26,419 26,419 26,419 26,419" id="64" class="departement" fill="steelblue" stroke-width="1" stroke="white" geotype="departement" geoname="Pyrénées-Atlantiques" code_insee="64" code_region="72"/><polygon points="4,431 4,431 4,431 4,431 4,431" id="64" class="departement" fill="steelblue" stroke-width="1" stroke="white" geotype="departement" geoname="Pyrénées-Atlantiques" code_insee="64" code_region="72"/><polygon points="4,431 4,431 4,431 4,431 4,431" id="64" class="departement" fill="steelblue" stroke-width="1" stroke="white" geotype="departement" geoname="Pyrénées-Atlantiques" code_insee="64" code_region="72"/><polygon points="26,418 27,418 27,419 27,419 26,418" id="64" class="departement" fill="steelblue" stroke-width="1" stroke="white" geotype="departement" geoname="Pyrénées-Atlantiques" code_insee="64" code_region="72"/><polygon points="25,419 25,419 25,419 25,419 25,419" id="64" class="departement" fill="steelblue" stroke-width="1" stroke="white" geotype="departement" geoname="Pyrénées-Atlantiques" code_insee="64" code_region="72"/><polygon points="26,419 26,419 26,419 26,419 26,419" id="64" class="departement" fill="steelblue" stroke-width="1" stroke="white" geotype="departement" geoname="Pyrénées-Atlantiques" code_insee="64" code_region="72"/><polygon points="5,431 5,431 5,431 5,431 5,431" id="64" class="departement" fill="steelblue" stroke-width="1" stroke="white" geotype="departement" geoname="Pyrénées-Atlantiques" code_insee="64" code_region="72"/><polygon points="26,419 26,419 26,419 26,419 26,419" id="64" class="departement" fill="steelblue" stroke-width="1" stroke="white" geotype="departement" geoname="Pyrénées-Atlantiques" code_insee="64" code_region="72"/><polygon points="25,419 25,419 25,419 25,419 25,419" id="64" class="departement" fill="steelblue" stroke-width="1" stroke="white" geotype="departement" geoname="Pyrénées-Atlantiques" code_insee="64" code_region="72"/><polygon points="25,419 25,419 25,419 25,419 25,419" id="64" class="departement" fill="steelblue" stroke-width="1" stroke="white" geotype="departement" geoname="Pyrénées-Atlantiques" code_insee="64" code_region="72"/><polygon points="26,419 26,419 26,419 26,419 26,419" id="64" class="departement" fill="steelblue" stroke-width="1" stroke="white" geotype="departement" geoname="Pyrénées-Atlantiques" code_insee="64" code_region="72"/><polygon points="222,124 219,122 217,122 216,123 214,122 214,122 215,123 214,123 213,123 212,123 210,124 210,124 209,125 211,125 209,126 208,126 208,126 207,127 206,128 204,127 203,127 201,127 201,127 199,128 199,129 201,130 200,130 200,131 198,131 198,132 198,133 198,133 197,134 199,134 199,134 198,134 198,135 198,135 197,135 196,136 196,136 195,136 195,136 192,137 190,136 188,136 188,135 188,135 188,134 187,133 187,133 185,133 186,133 185,132 185,131 185,131 184,131 185,129 185,129 182,131 182,129 181,129 182,127 181,128 179,129 177,128 177,128 177,128 172,127 172,126 172,126 172,125 171,124 170,124 170,124 169,125 166,124 165,124 162,125 162,125 163,124 162,124 161,123 160,123 160,122 159,122 158,124 155,123 156,121 153,122 154,123 153,123 152,122 151,122 150,122 148,121 146,121 145,121 146,120 144,120 145,119 145,119 145,119 143,119 144,118 143,118 143,118 141,117 139,117 137,117 137,118 135,117 134,118 133,118 132,117 132,117 131,116 133,116 134,116 135,116 134,115 132,115 132,115 131,115 130,115 129,114 128,113 126,113 126,113 125,113 125,113 125,113 124,112 126,112 124,112 124,111 125,111 126,111 125,111 125,109 125,109 124,108 118,106 118,105 118,105 120,103 119,102 118,99 118,99 118,99 119,99 121,99 122,99 122,99 121,98 122,98 123,98 124,97 127,98 128,98 129,98 129,98 130,97 131,97 131,96 131,96 131,95 133,95 135,94 135,93 134,93 135,93 138,93 140,93 140,92 142,90 141,89 139,89 138,89 138,88 137,88 136,87 134,87 133,89 131,88 132,88 131,87 131,86 131,85 131,84 133,84 133,83 133,82 134,83 134,82 133,81 133,80 132,79 132,78 132,77 131,76 130,76 130,75 131,75 131,75 131,74 130,74 130,74 133,73 133,74 133,74 134,73 134,74 135,73 135,72 135,71 134,71 134,70 133,70 133,69 133,69 133,69 132,68 134,67 134,67 133,66 134,66 134,66 133,66 132,65 134,63 132,62 133,62 131,61 130,61 129,62 129,61 130,60 130,59 131,58 130,58 129,57 126,56 129,54 128,53 128,53 127,52 125,51 126,51 126,51 125,51 125,51 125,50 124,50 125,51 124,51 124,50 124,50 124,50 125,49 124,48 123,48 122,48 122,47 121,47 121,46 121,45 121,45 122,44 122,44 122,43 122,42 124,42 123,40 121,40 120,40 120,39 117,39 116,39 116,38 114,38 114,37 114,37 113,36 113,36 112,36 112,35 112,35 111,34 109,33 109,33 111,31 110,30 111,30 112,29 110,29 109,28 108,28 107,28 108,28 108,27 107,27 107,27 106,27 106,27 106,27 107,26 107,26 106,26 104,26 103,26 103,26 103,26 103,26 103,25 103,25 104,25 104,25 104,25 104,25 104,25 105,25 105,25 105,26 105,26 105,26 105,26 106,26 106,26 105,26 105,25 105,25 105,25 105,25 105,25 105,25 105,25 105,25 105,25 105,25 105,25 105,24 105,24 105,24 105,24 104,25 104,25 104,25 104,25 104,25 104,25 104,25 103,25 103,24 103,24 103,24 103,24 103,24 103,24 104,24 104,24 104,24 104,24 104,23 104,23 103,23 103,23 103,23 103,23 103,23 103,23 103,23 102,23 103,23 102,23 102,23 102,23 102,23 102,23 102,24 102,24 102,24 102,23 102,24 102,24 101,24 101,24 101,24 101,24 101,24 101,24 101,23 101,23 101,23 101,23 101,23 102,23 102,23 103,23 104,23 105,23 106,23 107,23 106,22 107,22 107,22 108,21 108,22 108,22 109,21 110,21 111,21 111,21 111,21 111,21 112,21 112,21 111,21 113,20 114,19 114,20 116,19 116,20 116,21 117,21 119,21 119,20 120,20 122,22 124,21 125,21 125,21 126,21 126,21 126,21 127,20 127,20 127,20 128,20 130,20 130,21 131,20 132,20 132,21 133,21 136,20 136,20 137,19 137,18 139,18 140,17 141,17 142,16 141,15 140,15 140,14 140,13 140,13 145,11 147,11 148,11 150,10 151,11 151,11 151,12 149,12 148,13 149,14 150,13 151,12 153,12 155,12 155,12 156,12 157,12 158,12 158,10 159,9 160,10 163,9 163,9 164,10 165,10 165,10 168,10 169,9 171,8 171,9 173,8 174,8 173,9 176,8 177,9 180,9 180,9 182,8 182,8 186,8 187,8 187,9 187,10 185,11 183,12 184,12 185,13 185,12 187,12 188,13 188,14 189,14 192,13 193,16 193,16 193,17 195,19 194,19 194,19 193,18 193,19 194,21 194,22 196,21 197,21 198,21 198,21 199,21 200,22 198,24 198,25 200,26 200,27 200,27 201,27 202,29 202,30 201,31 201,32 200,34 199,34 200,35 200,34 203,35 203,35 205,36 206,37 207,37 205,39 205,39 204,38 202,37 201,38 201,38 200,38 199,39 198,39 198,40 198,40 198,40 198,40 199,41 200,40 201,41 203,40 203,40 204,41 204,42 203,42 201,44 200,44 201,45 201,45 201,45 201,46 201,46 201,47 202,48 203,47 206,50 207,50 208,50 208,51 207,51 206,51 204,52 203,52 204,53 203,53 204,53 204,54 201,54 201,55 203,56 200,58 199,58 200,58 199,59 200,60 199,60 197,61 196,62 196,63 198,63 199,62 200,62 201,62 201,61 203,60 203,61 203,62 202,64 203,64 204,64 206,64 206,64 206,65 206,66 208,66 207,67 206,67 203,69 202,70 202,71 202,71 202,71 204,71 203,74 201,74 201,74 200,74 200,74 200,75 200,75 200,76 199,77 199,78 200,78 200,78 199,78 198,79 199,79 198,79 198,80 199,80 202,80 202,80 202,80 201,82 202,82 202,84 202,86 202,85 201,86 202,87 201,88 201,88 201,88 202,88 202,88 202,88 202,89 203,89 202,89 203,89 204,89 205,89 206,90 206,91 207,91 205,93 205,93 208,94 206,94 206,96 205,97 206,97 207,96 208,97 209,97 209,98 212,99 213,98 213,98 215,97 214,97 215,96 217,95 218,94 219,94 221,94 223,96 223,96 222,97 223,98 223,99 222,99 221,99 221,99 221,99 221,100 223,101 223,102 223,102 222,103 222,103 218,103 219,106 219,106 220,108 219,108 219,108 218,108 217,110 216,109 216,110 216,111 216,112 219,113 220,114 219,114 220,114 220,115 221,115 221,116 223,116 223,116 225,117 225,116 226,115 228,116 228,116 228,116 228,116 228,117 228,118 227,118 227,119 226,119 226,119 226,119 227,120 226,120 225,121 225,122 226,123 225,123 225,123 225,123 225,124 224,124 224,124 223,124 222,124" id="79" class="departement" fill="steelblue" stroke-width="1" stroke="white" geotype="departement" geoname="Deux-Sèvres" code_insee="79" code_region="54"/><polygon points="298,114 298,114 298,115 299,115 299,115 299,115 298,115 298,115 298,116 298,116 298,117 298,117 298,117 299,117 300,118 299,118 299,118 298,119 297,119 297,119 296,119 296,118 296,118 296,118 295,118 295,118 294,119 293,118 293,119 292,118 291,119 291,118 290,119 290,118 289,118 288,118 287,118 286,118 284,118 284,118 284,119 282,120 280,121 281,122 281,123 277,123 276,123 274,123 274,123 273,124 273,123 273,124 272,124 273,125 272,125 271,125 271,124 269,124 269,125 267,123 267,123 266,123 265,124 265,123 263,121 262,121 261,120 261,120 260,120 261,119 261,119 259,118 259,119 257,119 256,121 255,121 255,121 255,122 254,122 254,123 254,123 254,124 255,124 255,124 256,123 258,124 257,125 258,126 258,126 257,126 257,127 255,128 254,128 253,128 252,128 250,128 249,126 248,126 246,127 246,126 245,126 244,126 244,126 243,126 241,126 241,126 240,127 239,126 239,127 237,127 235,127 235,127 234,126 235,126 233,125 233,124 231,124 231,124 229,123 228,123 226,123 226,123 225,122 225,121 226,120 227,120 226,119 226,119 226,119 227,119 227,118 228,118 228,117 228,116 228,116 228,116 228,116 226,115 225,116 225,117 223,116 223,116 221,116 221,115 220,115 220,114 219,114 220,114 219,113 216,112 216,111 216,110 216,109 217,110 218,108 219,108 219,108 220,108 219,106 219,106 218,103 222,103 222,103 223,102 223,102 223,101 221,100 221,99 221,99 221,99 222,99 223,99 223,98 222,97 223,96 223,96 221,94 219,94 218,94 217,95 215,96 214,97 215,97 213,98 213,98 212,99 209,98 209,97 208,97 207,96 206,97 205,97 206,96 206,94 208,94 205,93 205,93 207,91 206,91 206,90 205,89 204,89 203,89 202,89 203,89 202,89 202,88 202,88 202,88 201,88 201,88 201,88 202,87 201,86 202,85 202,86 202,84 202,82 201,82 202,80 202,80 202,80 199,80 198,80 198,79 199,79 198,79 199,78 200,78 200,78 199,78 199,77 200,76 200,75 200,75 200,74 200,74 201,74 201,74 203,74 204,71 202,71 202,71 202,71 202,70 203,69 206,67 207,67 208,66 206,66 206,65 206,64 206,64 204,64 203,64 202,64 203,62 203,61 203,60 201,61 201,62 200,62 199,62 198,63 196,63 196,62 197,61 199,60 200,60 199,59 200,58 199,58 200,58 203,56 201,55 201,54 204,54 204,53 203,53 204,53 203,52 204,52 206,51 207,51 208,51 208,50 207,50 206,50 203,47 202,48 201,47 201,46 201,46 201,45 201,45 201,45 200,44 201,44 203,42 204,42 204,41 203,40 203,40 201,41 200,40 199,41 198,40 198,40 198,40 198,40 198,39 199,39 200,38 201,38 201,38 202,37 204,38 205,39 205,39 207,37 206,37 205,36 203,35 203,35 200,34 200,35 199,34 200,34 201,32 201,31 202,30 202,29 201,27 200,27 200,27 200,26 198,25 198,24 200,22 199,21 198,21 198,21 197,21 196,21 194,22 194,21 193,19 193,18 194,19 194,19 195,19 193,17 193,16 193,16 192,13 191,12 192,12 192,11 192,11 192,10 192,10 194,9 194,9 196,9 196,9 197,9 199,9 199,10 199,10 200,8 199,8 199,7 199,6 199,6 202,2 206,0 208,2 209,1 210,1 209,2 210,2 211,3 211,3 211,4 212,3 213,5 212,6 213,7 214,6 215,6 215,6 216,6 216,5 216,5 216,5 217,5 218,6 219,6 219,7 219,8 220,8 222,9 222,8 224,7 224,8 226,10 223,12 223,13 225,13 225,13 227,14 229,13 230,13 230,12 231,12 231,12 234,12 233,14 234,14 234,14 233,15 234,15 234,15 235,15 237,14 238,14 239,15 238,16 239,17 238,18 238,17 237,18 238,19 238,19 238,20 239,20 238,21 236,21 237,22 238,22 238,22 238,23 237,23 238,24 238,25 238,25 239,27 240,28 242,27 243,27 244,26 245,26 248,27 247,26 249,27 251,27 253,28 254,27 259,25 260,25 261,25 262,25 263,25 263,25 265,24 266,25 268,25 272,25 272,25 272,23 271,23 269,22 269,22 269,21 268,20 268,19 269,19 270,19 274,19 274,20 274,20 274,21 276,22 277,21 278,22 279,22 282,23 282,24 282,25 284,27 283,28 284,29 283,30 284,31 286,33 287,34 288,35 289,36 290,35 291,35 291,36 290,36 291,37 293,37 294,37 293,38 293,38 294,39 295,39 295,39 295,41 295,41 295,42 296,42 296,43 296,44 297,44 297,45 299,46 300,47 301,47 301,48 302,49 303,49 303,50 304,50 305,50 306,50 306,51 307,51 307,52 307,52 307,53 308,54 309,55 308,55 306,57 307,57 307,57 306,58 308,60 306,60 307,60 305,62 305,63 306,63 306,63 306,63 306,64 307,64 307,65 307,66 310,66 310,67 310,68 312,68 313,69 314,68 315,68 315,69 315,69 316,69 319,69 319,69 320,71 319,73 323,73 324,72 326,73 327,72 329,73 331,74 334,77 333,77 332,77 333,79 335,80 332,80 334,83 336,83 338,83 338,85 338,85 340,85 340,84 341,84 339,87 339,88 339,88 337,90 335,89 335,89 334,91 334,92 333,92 332,92 332,93 332,94 329,93 328,92 326,93 325,92 323,92 323,93 320,95 320,95 321,96 320,96 320,97 319,98 319,98 318,98 318,99 318,99 318,99 318,100 318,100 318,100 317,100 318,101 318,102 318,102 316,101 316,102 314,101 313,101 311,101 311,101 310,100 309,101 309,102 308,101 307,101 306,101 306,101 305,103 301,104 302,104 301,105 300,105 300,106 299,106 300,107 300,108 296,108 295,109 294,109 294,110 294,110 294,111 296,111 296,111 297,112 297,113 298,113 298,113 297,114 298,114" id="86" class="departement" fill="steelblue" stroke-width="1" stroke="white" geotype="departement" geoname="Vienne" code_insee="86" code_region="54"/><polygon points="301,178 300,180 299,181 298,181 296,182 295,182 295,180 295,180 294,179 292,180 292,180 290,178 290,179 289,177 290,176 290,174 291,173 292,171 291,171 290,171 289,170 288,170 288,169 287,169 286,168 285,168 284,168 284,169 283,169 283,169 282,169 282,169 282,169 282,169 281,169 280,169 280,169 280,169 279,169 279,169 279,169 278,169 278,169 277,168 278,168 276,168 275,166 275,165 277,166 277,165 277,164 278,163 279,163 279,162 279,162 280,162 281,162 282,161 282,161 283,160 284,161 284,161 285,161 285,160 284,159 284,158 284,157 284,156 284,156 285,156 287,156 288,156 288,156 289,157 290,156 290,157 291,157 291,158 292,158 292,157 292,156 292,156 293,155 292,154 292,154 293,153 294,153 297,149 296,148 296,149 295,148 296,147 297,147 297,146 296,145 296,145 296,143 295,142 296,142 295,142 296,141 297,141 298,142 300,142 301,143 302,142 303,142 303,143 304,142 306,141 306,141 307,141 308,141 308,140 309,139 308,139 308,139 309,139 309,139 310,138 311,138 310,138 311,137 311,137 311,136 310,137 310,136 309,136 310,136 309,135 310,134 308,134 308,134 307,133 308,133 309,133 308,132 308,133 308,132 307,132 306,131 305,131 305,131 305,131 304,130 302,132 302,132 301,131 301,130 300,130 299,129 299,129 298,129 298,128 296,128 296,128 296,127 297,127 297,126 297,126 297,126 297,126 297,125 296,125 296,125 297,124 298,123 298,123 298,123 298,122 298,122 298,122 298,122 297,121 297,120 297,120 296,121 296,121 296,120 296,121 296,120 296,120 295,120 296,120 295,119 296,119 297,119 298,119 299,118 299,118 300,118 299,117 298,117 298,117 298,117 298,116 298,116 298,115 298,115 299,115 299,115 299,115 298,115 298,114 298,114 297,114 298,113 298,113 297,113 297,112 296,111 296,111 294,111 294,110 294,110 294,109 295,109 296,108 300,108 300,107 299,106 300,106 300,105 301,105 302,104 301,104 305,103 306,101 306,101 307,101 308,101 309,102 309,101 310,100 311,101 311,101 313,101 314,101 316,102 316,101 318,102 318,102 318,101 317,100 318,100 318,100 318,100 318,99 318,99 318,99 318,98 319,98 319,98 320,97 320,96 321,96 320,95 320,95 323,93 323,92 325,92 326,93 328,92 329,93 332,94 332,93 332,92 333,92 334,92 334,91 335,89 335,89 337,90 338,91 339,91 339,90 340,89 341,89 341,90 342,90 341,91 342,92 342,92 342,92 342,92 344,92 346,91 347,91 349,91 349,91 350,91 352,91 353,91 352,90 352,90 353,90 354,89 353,89 353,89 353,89 355,88 356,88 357,88 358,88 358,89 360,90 361,91 361,91 362,91 362,92 363,92 364,93 364,94 364,94 364,95 365,95 365,95 366,96 367,95 368,96 368,96 367,97 367,97 367,97 367,98 368,99 367,99 366,100 366,99 366,100 366,99 365,100 365,101 365,101 365,101 364,102 365,102 366,102 367,103 365,103 364,103 364,104 363,104 363,105 363,105 364,104 364,105 365,105 364,106 364,106 363,106 362,106 362,107 362,107 362,107 361,107 361,108 361,108 360,108 360,108 360,109 360,109 359,109 360,110 361,110 360,110 361,110 361,111 362,111 362,112 362,112 362,113 363,113 364,113 364,113 364,114 366,113 366,114 367,114 367,113 368,113 369,113 369,114 369,114 369,115 370,115 370,115 369,115 368,116 369,116 369,117 370,116 371,117 372,118 373,117 373,118 373,118 373,119 374,119 374,119 375,119 375,120 373,120 373,120 374,120 373,120 373,121 372,122 374,122 374,123 374,124 375,123 375,123 375,123 377,123 377,123 377,124 377,123 377,124 377,125 378,125 378,124 379,125 378,126 378,126 378,127 377,127 378,128 378,128 378,129 379,130 379,130 379,130 378,131 377,132 378,134 379,134 379,134 379,134 380,134 381,134 382,134 381,134 382,135 383,136 382,136 381,138 380,138 379,138 379,138 379,139 377,139 376,139 376,139 376,140 376,140 376,140 376,140 375,140 375,141 375,141 376,142 377,141 378,142 379,143 380,143 380,142 381,143 382,143 383,143 382,143 383,141 384,142 384,141 386,141 387,141 387,142 387,141 388,141 388,141 388,142 389,142 390,142 389,142 388,143 388,143 388,143 388,144 389,144 389,144 389,144 388,145 390,145 389,145 390,145 390,146 389,146 388,146 388,145 388,145 387,147 387,147 387,146 387,146 387,146 386,146 385,146 385,146 384,147 385,147 385,147 386,147 386,148 386,149 385,150 388,151 389,151 390,151 390,151 391,151 392,151 392,153 393,152 394,152 394,152 395,152 396,151 397,151 398,152 399,151 400,152 401,151 403,150 403,149 404,149 405,149 405,150 406,150 405,151 405,153 406,153 406,153 407,153 407,153 408,153 408,153 409,154 410,155 411,155 411,154 412,153 413,154 413,154 413,155 413,155 414,155 414,155 414,156 414,156 414,155 415,156 416,156 417,157 418,157 418,158 418,160 419,160 420,160 419,161 417,161 416,161 418,163 418,163 417,164 416,165 417,165 418,165 418,166 417,166 417,167 418,167 419,168 419,169 420,169 420,169 420,170 420,170 420,170 420,170 418,170 417,170 417,171 417,171 417,171 416,172 415,172 415,171 414,171 413,172 413,172 412,172 411,172 411,171 410,170 409,170 408,170 408,171 407,171 407,170 406,170 405,172 404,172 404,173 403,173 402,174 402,174 400,174 400,175 399,175 398,174 397,175 396,175 393,178 392,178 392,179 392,180 391,180 391,180 391,180 390,180 390,181 389,181 389,181 388,181 388,182 387,182 387,181 385,182 385,181 384,182 383,184 382,184 380,185 380,185 380,184 379,184 378,184 377,184 378,183 376,183 376,184 375,185 374,185 373,185 373,184 372,183 371,184 368,184 369,186 368,187 367,188 367,188 366,188 366,188 366,187 365,187 363,187 363,188 362,188 362,189 362,190 361,190 361,191 360,191 359,192 358,192 358,193 357,194 354,193 352,192 351,192 351,192 349,191 350,192 349,193 348,193 348,193 347,194 347,194 347,195 347,195 347,196 347,196 346,196 346,197 345,198 344,197 344,196 341,195 340,195 338,195 337,195 337,194 336,194 336,193 335,193 335,193 334,193 333,193 332,194 331,193 331,193 330,192 332,191 332,190 334,189 336,188 333,186 332,186 332,186 332,185 331,185 331,185 330,185 330,185 329,185 329,186 328,186 328,186 327,186 327,187 326,186 326,185 324,184 324,184 322,184 322,183 321,182 321,181 322,181 321,180 321,180 321,179 320,179 320,178 318,178 317,177 316,178 315,179 314,179 314,178 312,178 311,178 311,177 310,178 309,178 307,179 306,178 306,179 305,179 304,178 303,177 302,176 301,178" id="87" class="departement" fill="steelblue" stroke-width="1" stroke="white" geotype="departement" geoname="Haute-Vienne" code_insee="87" code_region="74"/></svg>