<?xml version="1.0" encoding="utf-8"?>
<svg version="1.1" id="svgmap" xmlns="http://www.w3.org/2000/svg" xmlns:xlink="http://www.w3.org/1999/xlink" x="0px" y="0px" width="100%" height="100%" viewBox="0 0 500 266">
<polygon points="374,97 376,93 388,108 407,121 415,128 406,133 397,138 396,148 383,155 379,152 365,151 360,158 345,139 357,128 362,131 373,133 377,131 365,109 370,103 368,99 374,97" id="1037" class="commune" fill="steelblue" stroke-width="1" stroke="white" geotype="commune" geoname="Bénonces" code_insee="1037" code_canton="111"/><polygon points="109,109 145,104 165,112 153,124 143,142 138,143 132,141 119,127 118,118 109,112 109,109" id="1047" class="commune" fill="steelblue" stroke-width="1" stroke="white" geotype="commune" geoname="Blyes" code_insee="1047" code_canton="111"/><polygon points="357,193 342,185 358,180 369,186 378,179 381,179 381,184 388,189 404,188 417,191 402,193 405,198 399,201 410,213 405,222 396,229 381,219 357,193" id="1064" class="commune" fill="steelblue" stroke-width="1" stroke="white" geotype="commune" geoname="Briord" code_insee="1064" code_canton="111"/><polygon points="109,109 109,112 82,109 92,98 93,87 93,83 104,75 133,70 137,71 135,77 115,77 108,82 111,96 118,103 109,109" id="1088" class="commune" fill="steelblue" stroke-width="1" stroke="white" geotype="commune" geoname="Charnoz-sur-Ain" code_insee="1088" code_canton="111"/><polygon points="133,70 131,69 120,61 118,56 127,49 128,41 135,31 148,34 151,46 170,48 180,53 185,59 181,63 168,61 160,70 153,71 151,82 154,84 150,90 165,112 165,112 145,104 109,109 118,103 111,96 108,82 115,77 135,77 137,71 133,70" id="1099" class="commune" fill="steelblue" stroke-width="1" stroke="white" geotype="commune" geoname="Chazey-sur-Ain" code_insee="1099" code_canton="111"/><polygon points="454,265 446,261 466,242 470,242 474,236 483,234 494,245 500,257 486,258 467,266 454,265" id="1182" class="commune" fill="steelblue" stroke-width="1" stroke="white" geotype="commune" geoname="Groslée" code_insee="1182" code_canton="111"/><polygon points="477,153 480,157 492,164 496,171 497,203 493,212 494,213 486,209 460,188 459,179 452,171 456,168 452,161 453,156 465,157 477,153" id="1190" class="commune" fill="steelblue" stroke-width="1" stroke="white" geotype="commune" geoname="Innimond" code_insee="1190" code_canton="111"/><polygon points="185,59 212,55 204,45 206,42 212,41 221,39 222,42 230,41 249,44 268,61 267,63 285,64 273,66 274,69 269,71 265,68 257,73 249,71 241,73 242,77 232,78 231,80 224,77 225,82 230,86 225,92 218,103 205,108 190,120 184,118 181,108 173,104 184,102 188,86 192,63 185,59" id="1202" class="commune" fill="steelblue" stroke-width="1" stroke="white" geotype="commune" geoname="Lagnieu" code_insee="1202" code_canton="111"/><polygon points="198,20 200,28 206,29 204,34 212,41 206,42 204,45 212,55 185,59 180,53 170,48 151,46 148,34 168,18 171,19 174,14 179,14 190,15 197,11 198,20" id="1213" class="commune" fill="steelblue" stroke-width="1" stroke="white" geotype="commune" geoname="Leyment" code_insee="1213" code_canton="111"/><polygon points="484,233 483,234 474,236 470,242 466,242 446,261 427,259 417,242 396,229 405,222 410,213 399,201 405,198 402,193 417,191 435,205 436,213 473,219 484,233" id="1216" class="commune" fill="steelblue" stroke-width="1" stroke="white" geotype="commune" geoname="Lhuis" code_insee="1216" code_canton="111"/><polygon points="396,148 397,138 406,133 428,148 441,151 452,161 456,168 452,171 443,173 430,182 421,181 411,174 397,156 396,148" id="1219" class="commune" fill="steelblue" stroke-width="1" stroke="white" geotype="commune" geoname="Lompnas" code_insee="1219" code_canton="111"/><polygon points="106,151 116,147 141,186 124,194 108,203 82,200 72,199 68,189 58,177 80,168 92,155 106,151" id="1224" class="commune" fill="steelblue" stroke-width="1" stroke="white" geotype="commune" geoname="Loyettes" code_insee="1224" code_canton="111"/><polygon points="486,209 482,215 473,219 436,213 435,205 417,191 430,182 443,173 452,171 459,179 460,188 486,209" id="1233" class="commune" fill="steelblue" stroke-width="1" stroke="white" geotype="commune" geoname="Marchamp" code_insee="1233" code_canton="111"/><polygon points="360,158 365,151 379,152 374,158 378,179 369,186 358,180 342,185 333,175 338,171 340,175 356,167 354,161 360,158" id="1255" class="commune" fill="steelblue" stroke-width="1" stroke="white" geotype="commune" geoname="Montagnieu" code_insee="1255" code_canton="111"/><polygon points="411,111 423,107 425,103 439,112 443,117 439,120 454,128 454,133 461,137 468,134 482,148 477,153 465,157 453,156 452,161 441,151 428,148 406,133 415,128 407,121 415,118 411,111" id="1280" class="commune" fill="steelblue" stroke-width="1" stroke="white" geotype="commune" geoname="Ordonnaz" code_insee="1280" code_canton="111"/><polygon points="116,147 106,151 80,133 47,125 52,124 74,110 82,109 109,112 118,118 119,127 132,141 128,145 116,147" id="1361" class="commune" fill="steelblue" stroke-width="1" stroke="white" geotype="commune" geoname="Saint-Jean-de-Niost" code_insee="1361" code_canton="111"/><polygon points="165,112 150,90 154,84 151,82 153,71 160,70 168,61 181,63 185,59 192,63 188,86 184,102 173,104 165,112" id="1366" class="commune" fill="steelblue" stroke-width="1" stroke="white" geotype="commune" geoname="Sainte-Julie" code_insee="1366" code_canton="111"/><polygon points="0,158 16,140 20,123 47,125 80,133 106,151 92,155 80,168 58,177 49,175 38,166 25,165 0,158" id="1378" class="commune" fill="steelblue" stroke-width="1" stroke="white" geotype="commune" geoname="Saint-Maurice-de-Gourdans" code_insee="1378" code_canton="111"/><polygon points="285,64 293,61 290,67 297,73 289,77 296,83 293,87 288,90 282,89 270,97 243,82 230,86 225,82 224,77 231,80 232,78 242,77 241,73 249,71 257,73 265,68 269,71 274,69 273,66 285,64" id="1386" class="commune" fill="steelblue" stroke-width="1" stroke="white" geotype="commune" geoname="Saint-Sorlin-en-Bugey" code_insee="1386" code_canton="111"/><polygon points="141,186 116,147 128,145 132,141 138,143 143,142 153,124 165,112 165,112 173,104 181,108 184,118 190,120 178,155 153,181 141,186" id="1390" class="commune" fill="steelblue" stroke-width="1" stroke="white" geotype="commune" geoname="Saint-Vulbas" code_insee="1390" code_canton="111"/><polygon points="270,97 282,89 288,90 293,87 307,95 315,94 313,99 317,124 311,120 298,110 270,97" id="1396" class="commune" fill="steelblue" stroke-width="1" stroke="white" geotype="commune" geoname="Sault-Brénaz" code_insee="1396" code_canton="111"/><polygon points="379,152 383,155 396,148 397,156 411,174 421,181 430,182 417,191 404,188 388,189 381,184 381,179 378,179 374,158 379,152" id="1400" class="commune" fill="steelblue" stroke-width="1" stroke="white" geotype="commune" geoname="Seillonnaz" code_insee="1400" code_canton="111"/><polygon points="345,139 360,158 354,161 356,167 340,175 338,171 333,175 318,163 314,151 316,145 329,144 331,139 339,141 345,139" id="1403" class="commune" fill="steelblue" stroke-width="1" stroke="white" geotype="commune" geoname="Serrières-de-Briord" code_insee="1403" code_canton="111"/><polygon points="374,97 368,99 354,94 353,99 356,107 346,104 338,105 335,109 330,104 330,106 322,106 313,99 315,94 307,95 293,87 296,83 289,77 297,73 290,67 293,61 307,69 316,70 332,76 336,81 342,82 349,90 353,85 374,97" id="1411" class="commune" fill="steelblue" stroke-width="1" stroke="white" geotype="commune" geoname="Souclin" code_insee="1411" code_canton="111"/><polygon points="331,139 328,136 311,127 311,120 317,124 313,99 322,106 330,106 330,104 335,109 338,105 346,104 356,107 353,99 354,94 368,99 370,103 365,109 377,131 373,133 362,131 357,128 345,139 339,141 331,139" id="1444" class="commune" fill="steelblue" stroke-width="1" stroke="white" geotype="commune" geoname="Villebois" code_insee="1444" code_canton="111"/><polygon points="135,31 128,41 127,49 118,56 120,61 131,69 118,67 93,47 97,43 91,36 82,34 83,28 93,24 90,19 92,17 108,13 109,15 108,7 121,0 134,3 134,7 133,14 139,26 135,31" id="1450" class="commune" fill="steelblue" stroke-width="1" stroke="white" geotype="commune" geoname="Villieu-Loyes-Mollon" code_insee="1450" code_canton="111"/></svg>