<?xml version="1.0" encoding="utf-8"?>
<svg version="1.1" id="svgmap" xmlns="http://www.w3.org/2000/svg" xmlns:xlink="http://www.w3.org/1999/xlink" x="0px" y="0px" width="100%" height="100%" viewBox="0 0 457 500">
<polygon points="83,77 76,73 77,69 91,70 96,64 76,51 74,39 79,28 66,20 69,15 77,10 85,13 95,18 98,26 110,24 122,28 129,48 125,53 109,53 116,63 113,69 126,72 134,80 136,88 133,91 126,90 125,96 145,99 147,104 137,102 132,105 123,98 114,99 111,93 97,90 83,77" id="1029" class="commune" fill="steelblue" stroke-width="1" stroke="white" geotype="commune" geoname="Beaupont" code_insee="1029" code_canton="118"/><polygon points="85,244 82,233 85,234 91,222 98,224 100,219 113,215 117,208 114,194 123,186 119,179 123,179 123,170 128,170 166,170 172,174 169,185 177,194 169,203 169,216 160,231 140,231 141,238 127,244 116,243 110,250 104,245 85,244" id="1038" class="commune" fill="steelblue" stroke-width="1" stroke="white" geotype="commune" geoname="Bény" code_insee="1038" code_canton="118"/><polygon points="293,318 284,301 293,272 288,268 289,259 304,216 305,221 314,222 312,229 311,232 327,238 372,248 360,263 357,295 340,296 335,304 324,303 324,312 293,318" id="1095" class="commune" fill="steelblue" stroke-width="1" stroke="white" geotype="commune" geoname="Chavannes-sur-Suran" code_insee="1095" code_canton="118"/><polygon points="367,354 370,355 370,364 389,370 392,390 385,396 368,386 346,381 354,362 363,352 367,354" id="1106" class="commune" fill="steelblue" stroke-width="1" stroke="white" geotype="commune" geoname="Cize" code_insee="1106" code_canton="118"/><polygon points="181,140 171,136 164,125 157,125 153,117 148,117 149,104 161,106 161,94 166,95 171,82 194,93 200,92 206,100 213,93 225,97 234,99 233,106 242,109 246,104 248,111 253,112 259,120 267,121 249,134 243,136 230,130 216,135 217,131 213,130 200,135 205,142 181,140" id="1108" class="commune" fill="steelblue" stroke-width="1" stroke="white" geotype="commune" geoname="Coligny" code_insee="1108" code_canton="118"/><polygon points="83,77 76,87 62,86 64,77 34,88 26,78 10,83 6,76 0,76 16,59 22,56 18,45 24,41 24,32 32,26 28,17 32,13 27,9 33,8 34,2 39,0 53,0 69,15 66,20 79,28 74,39 76,51 96,64 91,70 77,69 76,73 83,77" id="1124" class="commune" fill="steelblue" stroke-width="1" stroke="white" geotype="commune" geoname="Cormoz" code_insee="1124" code_canton="118"/><polygon points="384,358 377,353 370,355 367,354 389,322 381,319 373,330 366,333 379,310 372,305 368,310 357,295 360,263 372,248 381,249 378,272 386,272 385,277 396,276 394,280 402,286 422,280 438,281 444,276 445,284 455,286 452,290 457,297 450,299 442,316 429,317 423,330 394,360 388,361 384,358" id="1125" class="commune" fill="steelblue" stroke-width="1" stroke="white" geotype="commune" geoname="Corveissiat" code_insee="1125" code_canton="118"/><polygon points="301,189 287,197 264,200 255,209 235,207 236,213 229,215 224,218 206,218 211,227 191,241 182,239 185,227 180,225 180,217 196,219 189,209 198,195 208,192 206,189 237,186 233,183 240,181 252,172 251,166 261,163 281,177 301,181 301,189" id="1127" class="commune" fill="steelblue" stroke-width="1" stroke="white" geotype="commune" geoname="Courmangoux" code_insee="1127" code_canton="118"/><polygon points="149,104 147,104 145,99 125,96 126,90 133,91 136,88 134,80 126,72 113,69 116,63 109,53 125,53 129,48 122,28 136,32 143,26 167,32 174,30 180,33 184,52 193,56 168,65 169,72 179,73 180,74 157,74 157,78 171,82 166,95 161,94 161,106 149,104" id="1147" class="commune" fill="steelblue" stroke-width="1" stroke="white" geotype="commune" geoname="Domsure" code_insee="1147" code_canton="118"/><polygon points="220,363 237,341 232,340 249,325 254,327 287,333 279,344 268,371 220,363" id="1150" class="commune" fill="steelblue" stroke-width="1" stroke="white" geotype="commune" geoname="Drom" code_insee="1150" code_canton="118"/><polygon points="390,203 396,212 404,214 393,244 387,251 381,249 372,248 327,238 311,232 312,229 354,227 351,214 361,210 378,212 382,204 390,203" id="1172" class="commune" fill="steelblue" stroke-width="1" stroke="white" geotype="commune" geoname="Germagnat" code_insee="1172" code_canton="118"/><polygon points="367,354 363,352 354,362 346,381 332,405 323,404 321,385 330,358 337,359 344,348 351,349 366,333 373,330 381,319 389,322 367,354" id="1177" class="commune" fill="steelblue" stroke-width="1" stroke="white" geotype="commune" geoname="Grand-Corent" code_insee="1177" code_canton="118"/><polygon points="329,485 316,482 319,478 307,456 307,447 302,444 300,425 323,404 332,405 346,381 368,386 385,396 375,400 386,409 387,412 364,444 352,449 341,459 348,480 341,486 329,485" id="1184" class="commune" fill="steelblue" stroke-width="1" stroke="white" geotype="commune" geoname="Hautecourt-Romanèche" code_insee="1184" code_canton="118"/><polygon points="133,360 141,340 143,330 138,319 157,326 165,324 175,324 181,331 192,335 192,338 210,343 214,349 226,336 229,341 232,340 237,341 220,363 212,384 168,378 151,385 128,372 133,360" id="1195" class="commune" fill="steelblue" stroke-width="1" stroke="white" geotype="commune" geoname="Jasseron" code_insee="1195" code_canton="118"/><polygon points="85,244 82,251 43,246 40,232 46,215 53,214 57,208 42,205 38,200 47,175 44,165 39,163 42,161 35,157 43,153 44,140 54,134 51,128 71,98 67,94 77,94 91,108 102,123 102,131 110,130 107,129 112,123 131,130 126,138 119,139 128,170 123,170 123,179 119,179 123,186 114,194 117,208 113,215 100,219 98,224 91,222 85,234 82,233 85,244" id="1232" class="commune" fill="steelblue" stroke-width="1" stroke="white" geotype="commune" geoname="Marboz" code_insee="1232" code_canton="118"/><polygon points="254,327 249,325 232,340 229,341 226,336 214,349 210,343 192,338 192,335 181,331 175,324 165,324 166,313 152,297 188,292 187,278 197,281 210,295 231,290 250,296 262,307 254,327" id="1241" class="commune" fill="steelblue" stroke-width="1" stroke="white" geotype="commune" geoname="Meillonnas" code_insee="1241" code_canton="118"/><polygon points="208,463 219,459 227,448 223,445 240,439 249,427 247,420 250,415 286,418 300,425 302,444 307,447 307,456 319,478 316,482 314,490 306,491 308,486 281,484 280,488 275,487 274,500 264,497 260,491 254,491 246,482 223,479 219,463 208,463" id="1245" class="commune" fill="steelblue" stroke-width="1" stroke="white" geotype="commune" geoname="Bohas-Meyriat-Rignat" code_insee="1245" code_canton="118"/><polygon points="147,104 149,104 148,117 153,117 157,125 164,125 171,136 165,150 159,149 153,153 140,154 126,138 131,130 112,123 107,129 110,130 102,131 102,123 91,108 77,94 67,94 62,86 76,87 83,77 97,90 111,93 114,99 123,98 132,105 137,102 147,104" id="1296" class="commune" fill="steelblue" stroke-width="1" stroke="white" geotype="commune" geoname="Pirajoux" code_insee="1296" code_canton="118"/><polygon points="312,229 314,222 322,172 331,169 351,214 354,227 312,229" id="1309" class="commune" fill="steelblue" stroke-width="1" stroke="white" geotype="commune" geoname="Pouillat" code_insee="1309" code_canton="118"/><polygon points="229,215 236,213 235,207 255,209 264,200 287,197 301,189 305,190 304,213 293,219 275,218 257,225 233,220 229,215" id="1312" class="commune" fill="steelblue" stroke-width="1" stroke="white" geotype="commune" geoname="Pressiat" code_insee="1312" code_canton="118"/><polygon points="221,416 209,391 212,384 220,363 268,371 250,415 247,420 233,417 227,410 221,416" id="1317" class="commune" fill="steelblue" stroke-width="1" stroke="white" geotype="commune" geoname="Ramasse" code_insee="1317" code_canton="118"/><polygon points="82,251 85,244 104,245 110,250 116,243 127,244 141,238 140,231 160,231 169,216 180,217 180,225 185,227 182,239 175,240 170,246 172,261 162,269 187,278 188,292 152,297 166,313 165,324 157,326 138,319 117,310 101,291 101,281 80,280 73,271 78,262 70,257 82,251" id="1350" class="commune" fill="steelblue" stroke-width="1" stroke="white" geotype="commune" geoname="Saint-Étienne-du-Bois" code_insee="1350" code_canton="118"/><polygon points="264,155 261,163 251,166 238,153 218,155 213,160 205,155 179,154 181,140 205,142 200,135 213,130 217,131 216,135 230,130 243,136 249,134 247,139 256,140 267,147 264,155" id="1391" class="commune" fill="steelblue" stroke-width="1" stroke="white" geotype="commune" geoname="Salavre" code_insee="1391" code_canton="118"/><polygon points="279,344 287,333 293,318 324,312 324,303 335,304 340,296 357,295 368,310 372,305 379,310 366,333 351,349 344,348 337,359 330,358 322,356 315,359 307,354 284,349 279,344" id="1408" class="commune" fill="steelblue" stroke-width="1" stroke="white" geotype="commune" geoname="Simandre-sur-Suran" code_insee="1408" code_canton="118"/><polygon points="304,216 289,259 288,268 293,272 284,301 293,318 287,333 254,327 262,307 250,296 231,290 210,295 197,281 187,278 162,269 172,261 170,246 175,240 182,239 191,241 211,227 206,218 224,218 229,215 233,220 257,225 275,218 293,219 304,213 304,216" id="1426" class="commune" fill="steelblue" stroke-width="1" stroke="white" geotype="commune" geoname="Treffort-Cuisiat" code_insee="1426" code_canton="118"/><polygon points="251,166 252,172 240,181 233,183 237,186 206,189 196,183 202,182 205,172 215,166 213,160 218,155 238,153 251,166" id="1432" class="commune" fill="steelblue" stroke-width="1" stroke="white" geotype="commune" geoname="Verjon" code_insee="1432" code_canton="118"/><polygon points="171,136 181,140 179,154 205,155 213,160 215,166 205,172 202,182 196,183 206,189 208,192 198,195 189,209 196,219 180,217 169,216 169,203 177,194 169,185 172,174 166,170 128,170 119,139 126,138 140,154 153,153 159,149 165,150 171,136" id="1445" class="commune" fill="steelblue" stroke-width="1" stroke="white" geotype="commune" geoname="Villemotier" code_insee="1445" code_canton="118"/><polygon points="268,371 279,344 284,349 307,354 315,359 322,356 330,358 321,385 323,404 300,425 286,418 250,415 268,371" id="1447" class="commune" fill="steelblue" stroke-width="1" stroke="white" geotype="commune" geoname="Villereversure" code_insee="1447" code_canton="118"/></svg>