<?xml version="1.0" encoding="utf-8"?>
<svg version="1.1" id="svgmap" xmlns="http://www.w3.org/2000/svg" xmlns:xlink="http://www.w3.org/1999/xlink" x="0px" y="0px" width="100%" height="100%" viewBox="0 0 500 273">
<polygon points="45,231 43,218 54,210 86,204 102,197 107,181 120,177 130,187 155,182 157,186 143,188 147,198 154,196 157,189 159,192 155,197 159,198 160,206 152,210 133,207 121,220 110,221 100,223 91,219 75,218 45,231" id="2018" class="commune" fill="steelblue" stroke-width="1" stroke="white" geotype="commune" geoname="Anizy-le-Château" code_insee="2018" code_canton="209"/><polygon points="388,52 388,57 383,56 375,62 362,62 355,55 346,59 341,54 333,57 326,46 327,40 334,40 329,35 336,29 345,20 354,20 360,14 370,22 381,18 383,8 389,5 414,21 403,32 382,34 379,39 388,48 384,51 388,52" id="2037" class="commune" fill="steelblue" stroke-width="1" stroke="white" geotype="commune" geoname="Aulnois-sous-Laon" code_insee="2037" code_canton="209"/><polygon points="67,170 59,170 54,183 39,186 26,180 1,160 0,159 10,153 44,141 58,144 67,170" id="2052" class="commune" fill="steelblue" stroke-width="1" stroke="white" geotype="commune" geoname="Bassoles-Aulers" code_insee="2052" code_canton="209"/><polygon points="326,46 333,57 341,54 346,59 359,89 339,94 328,91 324,97 314,98 309,92 305,95 316,101 302,101 303,108 300,107 294,101 299,101 298,98 283,86 297,80 283,66 290,59 311,57 310,52 326,46" id="2080" class="commune" fill="steelblue" stroke-width="1" stroke="white" geotype="commune" geoname="Besny-et-Loizy" code_insee="2080" code_canton="209"/><polygon points="245,158 256,153 261,162 272,168 279,183 286,185 281,188 272,188 276,183 270,176 258,176 246,170 245,158" id="2108" class="commune" fill="steelblue" stroke-width="1" stroke="white" geotype="commune" geoname="Bourguignon-sous-Montbavin" code_insee="2108" code_canton="209"/><polygon points="54,183 59,170 67,170 84,169 87,163 99,169 96,172 106,170 107,181 102,197 86,204 54,210 50,206 57,187 54,183" id="2111" class="commune" fill="steelblue" stroke-width="1" stroke="white" geotype="commune" geoname="Brancourt-en-Laonnois" code_insee="2111" code_canton="209"/><polygon points="146,99 131,95 134,89 146,87 162,94 181,88 201,85 207,78 214,86 250,81 259,85 262,89 258,90 257,99 251,99 251,105 242,107 221,102 169,111 155,110 146,99" id="2132" class="commune" fill="steelblue" stroke-width="1" stroke="white" geotype="commune" geoname="Bucy-lès-Cerny" code_insee="2132" code_canton="209"/><polygon points="300,107 289,109 286,106 270,109 251,105 251,99 257,99 258,90 262,89 259,85 274,82 283,86 298,98 299,101 294,101 300,107" id="2151" class="commune" fill="steelblue" stroke-width="1" stroke="white" geotype="commune" geoname="Cerny-lès-Bucy" code_insee="2151" code_canton="209"/><polygon points="155,110 169,111 221,102 242,107 241,111 254,115 236,122 244,128 244,138 223,147 204,156 196,148 201,141 170,125 171,115 155,110" id="2153" class="commune" fill="steelblue" stroke-width="1" stroke="white" geotype="commune" geoname="Cessières" code_insee="2153" code_canton="209"/><polygon points="243,211 229,215 225,213 231,188 241,183 251,186 245,192 248,200 257,207 243,211" id="2155" class="commune" fill="steelblue" stroke-width="1" stroke="white" geotype="commune" geoname="Chaillevois" code_insee="2155" code_canton="209"/><polygon points="488,43 493,42 494,47 500,47 495,60 492,65 472,73 478,85 459,90 452,88 447,91 440,88 440,92 431,94 426,91 422,89 426,85 418,79 429,75 426,66 436,65 435,59 445,51 451,52 454,46 483,40 488,43" id="2157" class="commune" fill="steelblue" stroke-width="1" stroke="white" geotype="commune" geoname="Chambry" code_insee="2157" code_canton="209"/><polygon points="329,146 328,146 291,149 288,146 285,137 280,138 277,133 276,129 284,128 284,124 297,120 297,114 302,113 306,124 312,126 319,123 322,128 325,127 327,134 323,137 329,141 329,146" id="2196" class="commune" fill="steelblue" stroke-width="1" stroke="white" geotype="commune" geoname="Clacy-et-Thierret" code_insee="2196" code_canton="209"/><polygon points="146,87 145,84 142,82 150,79 163,83 191,67 182,59 183,50 175,49 160,38 175,30 176,22 185,21 183,14 198,9 223,14 226,10 248,26 264,25 277,34 275,36 290,59 283,66 297,80 283,86 274,82 259,85 250,81 214,86 207,78 201,85 181,88 162,94 146,87" id="2238" class="commune" fill="steelblue" stroke-width="1" stroke="white" geotype="commune" geoname="Crépy" code_insee="2238" code_canton="209"/><polygon points="131,147 140,150 147,148 154,150 161,146 169,145 196,148 204,156 198,158 179,163 179,170 166,187 158,181 141,179 121,163 120,157 131,147" id="2301" class="commune" fill="steelblue" stroke-width="1" stroke="white" geotype="commune" geoname="Faucoucourt" code_insee="2301" code_canton="209"/><polygon points="223,147 244,138 264,131 277,133 280,138 285,137 288,146 249,147 242,156 223,147" id="2407" class="commune" fill="steelblue" stroke-width="1" stroke="white" geotype="commune" geoname="Laniscourt" code_insee="2407" code_canton="209"/><polygon points="152,210 160,206 159,198 155,197 159,192 166,187 179,170 190,175 194,194 193,209 186,212 175,207 157,212 152,210" id="2434" class="commune" fill="steelblue" stroke-width="1" stroke="white" geotype="commune" geoname="Lizy" code_insee="2434" code_canton="209"/><polygon points="186,212 193,209 194,194 190,175 179,170 179,163 198,158 200,167 195,171 209,179 216,178 231,188 225,213 222,213 209,212 200,216 192,216 186,212" id="2478" class="commune" fill="steelblue" stroke-width="1" stroke="white" geotype="commune" geoname="Merlieux-et-Fouquerolles" code_insee="2478" code_canton="209"/><polygon points="242,107 251,105 270,109 286,106 289,109 297,114 297,120 284,124 284,128 276,129 277,133 264,131 244,138 244,128 236,122 254,115 241,111 242,107" id="2489" class="commune" fill="steelblue" stroke-width="1" stroke="white" geotype="commune" geoname="Molinchart" code_insee="2489" code_canton="209"/><polygon points="272,168 261,162 256,153 245,158 242,156 249,147 288,146 291,149 328,146 312,165 292,166 282,163 272,168" id="2497" class="commune" fill="steelblue" stroke-width="1" stroke="white" geotype="commune" geoname="Mons-en-Laonnois" code_insee="2497" code_canton="209"/><polygon points="245,158 246,170 258,176 251,186 241,183 231,188 216,178 209,179 195,171 200,167 198,158 204,156 223,147 242,156 245,158" id="2499" class="commune" fill="steelblue" stroke-width="1" stroke="white" geotype="commune" geoname="Montbavin" code_insee="2499" code_canton="209"/><polygon points="157,251 136,254 116,246 123,241 116,235 110,221 121,220 133,207 152,210 157,212 175,207 186,212 192,216 200,216 200,220 157,251" id="2602" class="commune" fill="steelblue" stroke-width="1" stroke="white" geotype="commune" geoname="Pinon" code_insee="2602" code_canton="209"/><polygon points="85,108 105,116 119,129 115,142 97,155 99,158 87,163 84,169 67,170 58,144 44,141 66,130 85,120 85,108" id="2619" class="commune" fill="steelblue" stroke-width="1" stroke="white" geotype="commune" geoname="Prémontré" code_insee="2619" code_canton="209"/><polygon points="258,176 270,176 276,183 272,188 270,194 285,198 273,208 263,210 243,211 257,207 248,200 245,192 251,186 258,176" id="2661" class="commune" fill="steelblue" stroke-width="1" stroke="white" geotype="commune" geoname="Royaucourt-et-Chailvet" code_insee="2661" code_canton="209"/><polygon points="146,99 155,110 171,115 170,125 201,141 196,148 169,145 161,146 154,150 147,148 140,150 131,147 115,142 119,129 105,116 146,99" id="2733" class="commune" fill="steelblue" stroke-width="1" stroke="white" geotype="commune" geoname="Suzy" code_insee="2733" code_canton="209"/><polygon points="298,196 311,203 317,216 320,222 314,233 298,244 281,245 271,240 264,227 272,216 263,210 273,208 285,198 298,196" id="2755" class="commune" fill="steelblue" stroke-width="1" stroke="white" geotype="commune" geoname="Urcel" code_insee="2755" code_canton="209"/><polygon points="301,195 298,196 285,198 270,194 272,188 281,188 286,185 279,183 272,168 282,163 292,166 312,165 304,174 307,175 316,185 314,190 301,195" id="2765" class="commune" fill="steelblue" stroke-width="1" stroke="white" geotype="commune" geoname="Vaucelles-et-Beffecourt" code_insee="2765" code_canton="209"/><polygon points="23,233 45,231 75,218 91,219 100,223 110,221 116,235 123,241 116,246 110,259 100,263 95,271 88,270 86,273 67,266 62,269 54,265 48,267 49,264 45,263 43,266 29,265 25,266 23,233" id="2768" class="commune" fill="steelblue" stroke-width="1" stroke="white" geotype="commune" geoname="Vauxaillon" code_insee="2768" code_canton="209"/><polygon points="336,29 329,35 334,40 327,40 326,46 310,52 311,57 290,59 275,36 277,34 264,25 279,16 279,8 286,0 295,4 314,10 336,29" id="2821" class="commune" fill="steelblue" stroke-width="1" stroke="white" geotype="commune" geoname="Vivaise" code_insee="2821" code_canton="209"/><polygon points="159,192 157,189 154,196 147,198 143,188 157,186 155,182 130,187 120,177 107,181 106,170 96,172 99,169 87,163 99,158 97,155 115,142 131,147 120,157 121,163 141,179 158,181 166,187 159,192" id="2834" class="commune" fill="steelblue" stroke-width="1" stroke="white" geotype="commune" geoname="Wissignicourt" code_insee="2834" code_canton="209"/></svg>