<?xml version="1.0" encoding="utf-8"?>
<svg version="1.1" id="svgmap" xmlns="http://www.w3.org/2000/svg" xmlns:xlink="http://www.w3.org/1999/xlink" x="0px" y="0px" width="100%" height="100%" viewBox="0 0 500 411">
<polygon points="398,271 371,251 340,243 312,223 298,224 288,212 282,179 308,163 316,137 392,168 461,169 500,193 450,236 398,271" id="4001" class="commune" fill="steelblue" stroke-width="1" stroke="white" geotype="commune" geoname="Aiglun" code_insee="4001" code_canton="405"/><polygon points="186,121 157,100 163,69 173,57 204,52 202,34 208,22 280,0 314,4 334,23 364,33 355,50 315,63 308,101 316,137 308,163 282,179 288,212 231,195 241,161 201,108 186,121" id="4021" class="commune" fill="steelblue" stroke-width="1" stroke="white" geotype="commune" geoname="Barras" code_insee="4021" code_canton="405"/><polygon points="461,169 392,168 316,137 308,101 315,63 355,50 364,33 415,35 441,28 465,55 492,119 488,135 498,144 465,151 461,169" id="4047" class="commune" fill="steelblue" stroke-width="1" stroke="white" geotype="commune" geoname="Champtercier" code_insee="4047" code_canton="405"/><polygon points="234,314 223,354 203,367 215,370 219,393 208,403 191,411 176,388 155,377 145,376 135,386 96,371 83,345 58,352 42,343 39,327 8,308 0,259 33,253 26,236 48,207 67,203 81,189 97,195 113,171 158,146 142,206 124,233 123,266 171,282 207,311 234,314" id="4108" class="commune" fill="steelblue" stroke-width="1" stroke="white" geotype="commune" geoname="Malijai" code_insee="4108" code_canton="405"/><polygon points="398,271 368,288 283,299 258,309 253,287 298,237 298,224 312,223 340,243 371,251 398,271" id="4110" class="commune" fill="steelblue" stroke-width="1" stroke="white" geotype="commune" geoname="Mallemoisson" code_insee="4110" code_canton="405"/><polygon points="258,309 234,314 207,311 171,282 123,266 124,233 142,206 158,146 181,131 194,134 186,121 201,108 241,161 231,195 288,212 298,224 298,237 253,287 258,309" id="4122" class="commune" fill="steelblue" stroke-width="1" stroke="white" geotype="commune" geoname="Mirabeau" code_insee="4122" code_canton="405"/></svg>