<?xml version="1.0" encoding="utf-8"?>
<svg version="1.1" id="svgmap" xmlns="http://www.w3.org/2000/svg" xmlns:xlink="http://www.w3.org/1999/xlink" x="0px" y="0px" width="100%" height="100%" viewBox="0 0 500 298">
<polygon points="314,97 320,101 323,116 330,124 353,134 356,140 349,152 353,155 351,162 344,163 343,167 343,183 326,191 314,190 320,187 316,184 299,184 293,178 273,180 278,172 271,171 269,166 255,162 246,154 269,145 270,141 263,139 272,134 270,126 276,118 290,119 314,97" id="4004" class="commune" fill="steelblue" stroke-width="1" stroke="white" geotype="commune" geoname="Allemagne-en-Provence" code_insee="4004" code_canton="415"/><polygon points="263,11 310,0 310,11 341,2 359,1 363,8 360,17 354,22 365,40 335,61 273,48 268,40 250,42 235,30 267,23 263,11" id="4035" class="commune" fill="steelblue" stroke-width="1" stroke="white" geotype="commune" geoname="Brunet" code_insee="4035" code_canton="415"/><polygon points="349,208 347,210 317,209 295,220 271,225 250,240 238,240 225,227 217,234 201,228 193,221 201,213 194,198 180,197 178,190 219,180 243,178 254,182 273,180 293,178 299,184 316,184 320,187 314,190 326,191 327,194 345,196 349,208" id="4081" class="commune" fill="steelblue" stroke-width="1" stroke="white" geotype="commune" geoname="Esparron-de-Verdon" code_insee="4081" code_canton="415"/><polygon points="0,190 3,187 33,166 53,130 79,139 116,126 136,128 143,134 150,131 168,134 177,142 190,144 193,149 172,163 174,173 168,179 168,186 174,188 164,192 150,192 153,210 146,219 127,229 92,229 84,236 75,212 61,200 31,198 0,190" id="4094" class="commune" fill="steelblue" stroke-width="1" stroke="white" geotype="commune" geoname="Gréoux-les-Bains" code_insee="4094" code_canton="415"/><polygon points="387,222 381,223 372,213 357,213 349,208 345,196 327,194 326,191 343,183 343,167 344,163 351,162 353,155 349,152 356,140 429,141 445,154 426,167 427,172 417,178 407,178 428,195 428,213 414,208 411,202 403,202 387,222" id="4124" class="commune" fill="steelblue" stroke-width="1" stroke="white" geotype="commune" geoname="Montagnac-Montpezat" code_insee="4124" code_canton="415"/><polygon points="339,258 333,261 312,266 318,284 296,298 284,290 277,273 255,264 250,240 271,225 295,220 317,209 347,210 330,231 330,240 339,258" id="4158" class="commune" fill="steelblue" stroke-width="1" stroke="white" geotype="commune" geoname="Quinson" code_insee="4158" code_canton="415"/><polygon points="428,213 428,195 407,178 417,178 427,172 426,167 445,154 456,150 475,152 480,152 489,160 500,164 497,177 480,190 442,213 428,213" id="4176" class="commune" fill="steelblue" stroke-width="1" stroke="white" geotype="commune" geoname="Sainte-Croix-du-Verdon" code_insee="4176" code_canton="415"/><polygon points="347,210 349,208 357,213 372,213 381,223 382,227 376,232 378,236 366,244 365,249 356,252 343,254 339,258 330,240 330,231 347,210" id="4186" class="commune" fill="steelblue" stroke-width="1" stroke="white" geotype="commune" geoname="Saint-Laurent-du-Verdon" code_insee="4186" code_canton="415"/><polygon points="193,149 220,141 228,144 245,136 257,134 270,126 272,134 263,139 270,141 269,145 246,154 255,162 269,166 271,171 278,172 273,180 254,182 243,178 219,180 178,190 174,188 168,186 168,179 174,173 172,163 193,149" id="4189" class="commune" fill="steelblue" stroke-width="1" stroke="white" geotype="commune" geoname="Saint-Martin-de-Brômes" code_insee="4189" code_canton="415"/><polygon points="270,126 257,134 245,136 228,144 220,141 193,149 190,144 177,142 168,134 150,131 143,134 136,128 116,126 79,139 53,130 56,121 87,92 97,78 120,43 141,38 169,37 213,27 226,28 235,30 250,42 268,40 273,48 335,61 330,67 336,78 330,90 314,97 290,119 276,118 270,126" id="4230" class="commune" fill="steelblue" stroke-width="1" stroke="white" geotype="commune" geoname="Valensole" code_insee="4230" code_canton="415"/></svg>