<?xml version="1.0" encoding="utf-8"?>
<svg version="1.1" id="svgmap" xmlns="http://www.w3.org/2000/svg" xmlns:xlink="http://www.w3.org/1999/xlink" x="0px" y="0px" width="100%" height="100%" viewBox="0 0 500 404">
<polygon points="477,381 457,386 427,404 411,401 406,386 398,380 401,374 370,367 347,353 356,331 389,328 399,316 400,296 410,284 414,254 452,234 472,242 479,256 495,263 500,282 488,306 478,310 479,315 462,326 481,324 492,331 492,337 480,334 471,352 478,357 473,377 477,381" id="5085" class="commune" fill="steelblue" stroke-width="1" stroke="white" geotype="commune" geoname="Montgenèvre" code_insee="5085" code_canton="503"/><polygon points="148,16 170,0 199,7 212,2 221,6 238,3 263,24 259,31 269,43 266,49 274,46 282,66 286,63 293,67 291,84 307,91 322,89 322,115 314,124 334,140 323,156 330,164 337,164 339,181 357,177 429,178 448,184 469,185 464,196 475,220 451,227 452,234 414,254 388,260 383,251 332,259 283,239 268,244 251,243 251,224 231,211 232,206 216,215 206,203 180,210 177,236 127,236 106,214 108,204 101,205 91,200 70,202 37,185 26,167 35,152 37,133 34,125 14,117 12,103 18,97 7,80 12,64 2,58 0,49 45,33 54,25 86,42 104,42 144,32 148,16" id="5093" class="commune" fill="steelblue" stroke-width="1" stroke="white" geotype="commune" geoname="Névache" code_insee="5093" code_canton="503"/><polygon points="397,399 362,400 352,378 338,376 337,372 328,374 323,360 303,350 295,351 294,340 295,324 269,304 269,296 255,284 229,278 212,266 209,248 233,252 251,243 268,244 283,239 332,259 383,251 388,260 414,254 410,284 400,296 399,316 389,328 356,331 347,353 370,367 401,374 398,380 406,386 411,401 397,399" id="5174" class="commune" fill="steelblue" stroke-width="1" stroke="white" geotype="commune" geoname="Val-des-Prés" code_insee="5174" code_canton="503"/></svg>