<?xml version="1.0" encoding="utf-8"?>
<svg version="1.1" id="svgmap" xmlns="http://www.w3.org/2000/svg" xmlns:xlink="http://www.w3.org/1999/xlink" x="0px" y="0px" width="100%" height="100%" viewBox="0 0 500 349">
<polygon points="105,192 120,187 125,194 142,183 154,191 153,183 178,190 182,186 192,184 177,175 190,180 202,195 230,205 224,211 225,216 221,217 222,220 217,219 214,224 207,224 200,229 207,241 214,245 188,246 178,245 167,232 145,226 138,221 127,213 126,205 114,199 105,192" id="7018" class="commune" fill="steelblue" stroke-width="1" stroke="white" geotype="commune" geoname="Astet" code_insee="7018" code_canton="713"/><polygon points="274,214 275,207 287,204 292,198 305,194 325,198 335,206 336,213 333,220 336,226 343,227 349,248 343,252 321,253 299,259 280,255 285,250 283,246 300,231 295,227 297,221 274,214" id="7025" class="commune" fill="steelblue" stroke-width="1" stroke="white" geotype="commune" geoname="Barnas" code_insee="7025" code_canton="713"/><polygon points="329,36 312,43 295,40 288,50 290,54 273,58 268,65 262,66 231,59 241,51 231,49 234,35 249,26 238,16 252,13 254,9 269,8 285,13 295,11 309,13 317,5 332,0 331,5 340,11 341,18 332,36 329,36" id="7026" class="commune" fill="steelblue" stroke-width="1" stroke="white" geotype="commune" geoname="Béage" code_insee="7026" code_canton="713"/><polygon points="179,331 169,328 159,321 154,313 141,307 138,309 136,305 141,293 147,292 149,289 150,283 143,276 146,269 161,272 165,268 181,269 198,262 201,256 188,246 214,245 220,251 237,254 247,263 239,267 239,273 248,275 229,281 222,292 213,292 192,290 187,301 177,304 180,307 170,318 174,320 174,326 170,327 179,331" id="7038" class="commune" fill="steelblue" stroke-width="1" stroke="white" geotype="commune" geoname="Borne" code_insee="7038" code_canton="713"/><polygon points="437,126 444,139 436,149 446,168 422,166 419,168 421,173 413,175 410,178 399,178 387,175 375,163 356,160 338,151 336,142 346,122 344,117 346,114 357,117 369,112 387,113 385,117 390,117 416,129 430,130 437,126" id="7045" class="commune" fill="steelblue" stroke-width="1" stroke="white" geotype="commune" geoname="Burzet" code_insee="7045" code_canton="713"/><polygon points="24,201 30,203 35,198 66,216 73,214 79,221 73,222 70,227 79,234 67,237 44,236 40,244 35,247 30,240 25,241 22,238 24,231 18,228 18,221 11,221 9,217 16,206 24,201" id="7047" class="commune" fill="steelblue" stroke-width="1" stroke="white" geotype="commune" geoname="Cellier-du-Luc" code_insee="7047" code_canton="713"/><polygon points="446,220 441,213 442,208 433,207 426,202 440,196 463,192 475,206 476,211 466,219 467,222 446,220" id="7065" class="commune" fill="steelblue" stroke-width="1" stroke="white" geotype="commune" geoname="Chirols" code_insee="7065" code_canton="713"/><polygon points="148,100 148,107 143,108 149,112 147,113 123,111 110,117 110,125 102,126 83,109 81,113 66,120 52,112 57,111 61,114 64,113 68,99 79,94 87,68 87,64 92,62 106,59 108,60 111,68 126,78 127,83 137,85 148,100" id="7071" class="commune" fill="steelblue" stroke-width="1" stroke="white" geotype="commune" geoname="Coucouron" code_insee="7071" code_canton="713"/><polygon points="262,66 268,65 273,58 290,54 288,50 295,40 312,43 329,36 330,41 325,46 323,56 312,61 308,72 311,96 313,100 309,109 295,119 299,122 302,119 308,121 306,123 309,127 304,128 302,134 307,142 293,140 257,127 251,120 252,112 244,112 244,110 228,106 225,99 231,90 226,87 220,91 218,85 229,82 231,85 240,84 246,77 254,78 255,71 262,66" id="7075" class="commune" fill="steelblue" stroke-width="1" stroke="white" geotype="commune" geoname="Cros-de-Géorand" code_insee="7075" code_canton="713"/><polygon points="461,250 464,254 450,255 450,265 447,265 442,265 417,257 415,254 427,243 427,237 432,229 436,234 448,240 460,240 461,250" id="7087" class="commune" fill="steelblue" stroke-width="1" stroke="white" geotype="commune" geoname="Fabras" code_insee="7087" code_canton="713"/><polygon points="102,126 110,125 110,117 123,111 147,113 149,112 143,108 148,107 148,100 151,100 157,104 165,100 167,98 162,91 168,92 173,100 176,93 188,100 184,83 196,86 192,94 196,95 199,104 198,118 186,135 187,149 180,160 181,164 174,171 162,155 152,150 159,136 157,132 148,130 132,141 115,136 110,132 101,129 102,126" id="7105" class="commune" fill="steelblue" stroke-width="1" stroke="white" geotype="commune" geoname="Issanlas" code_insee="7105" code_canton="713"/><polygon points="188,64 175,53 175,49 167,42 172,37 170,28 177,23 175,20 187,13 194,16 204,13 220,20 222,16 227,17 229,18 238,16 249,26 234,35 214,41 221,43 216,53 188,64" id="7106" class="commune" fill="steelblue" stroke-width="1" stroke="white" geotype="commune" geoname="Issarlès" code_insee="7106" code_canton="713"/><polygon points="378,304 371,302 365,299 353,297 353,291 357,288 373,284 380,278 377,270 360,248 370,244 398,239 413,242 427,237 427,243 415,254 417,257 442,265 426,276 421,276 414,289 405,289 390,297 382,298 378,304" id="7107" class="commune" fill="steelblue" stroke-width="1" stroke="white" geotype="commune" geoname="Jaujac" code_insee="7107" code_canton="713"/><polygon points="234,35 231,49 241,51 231,59 262,66 255,71 254,78 246,77 240,84 231,85 229,82 218,85 217,84 209,86 197,69 187,68 188,64 216,53 221,43 214,41 234,35" id="7119" class="commune" fill="steelblue" stroke-width="1" stroke="white" geotype="commune" geoname="Lac-d'Issarlès" code_insee="7119" code_canton="713"/><polygon points="175,53 188,64 187,68 197,69 209,86 217,84 209,92 196,95 192,94 196,86 184,83 188,100 176,93 173,100 168,92 162,91 167,98 165,100 157,104 151,100 148,100 137,85 127,83 126,78 134,78 132,71 124,63 127,56 136,54 139,67 146,69 145,66 153,58 150,55 153,52 149,52 151,50 160,52 158,57 160,62 163,57 166,59 175,53" id="7121" class="commune" fill="steelblue" stroke-width="1" stroke="white" geotype="commune" geoname="Lachapelle-Graillouse" code_insee="7121" code_canton="713"/><polygon points="460,240 475,236 493,250 488,253 472,248 461,250 460,240" id="7127" class="commune" fill="steelblue" stroke-width="1" stroke="white" geotype="commune" geoname="Lalevade-d'Ardèche" code_insee="7127" code_canton="713"/><polygon points="174,171 177,175 192,184 182,186 178,190 153,183 154,191 142,183 125,194 120,187 125,179 110,170 105,164 104,155 107,155 110,159 116,151 115,136 132,141 148,130 157,132 159,136 152,150 162,155 174,171" id="7130" class="commune" fill="steelblue" stroke-width="1" stroke="white" geotype="commune" geoname="Lanarce" code_insee="7130" code_canton="713"/><polygon points="145,316 139,331 128,330 124,332 126,335 121,343 122,346 116,349 104,348 98,334 91,328 93,324 95,327 105,322 112,311 116,315 126,307 131,318 145,316" id="7135" class="commune" fill="steelblue" stroke-width="1" stroke="white" geotype="commune" geoname="Laval-d'Aurelle" code_insee="7135" code_canton="713"/><polygon points="36,255 49,260 57,258 74,265 78,275 92,276 102,282 94,290 63,290 47,307 44,302 49,291 45,286 34,285 36,255" id="7136" class="commune" fill="steelblue" stroke-width="1" stroke="white" geotype="commune" geoname="Laveyrune" code_insee="7136" code_canton="713"/><polygon points="120,187 105,192 95,181 80,173 80,155 76,152 72,148 82,134 68,126 67,121 66,120 81,113 83,109 102,126 101,129 110,132 115,136 116,151 110,159 107,155 104,155 105,164 110,170 125,179 120,187" id="7137" class="commune" fill="steelblue" stroke-width="1" stroke="white" geotype="commune" geoname="Lavillatte" code_insee="7137" code_canton="713"/><polygon points="9,197 9,194 6,191 11,188 12,187 10,185 6,185 3,183 0,183 4,176 0,174 6,165 10,165 12,162 14,162 14,161 17,161 16,154 15,152 10,152 5,149 1,149 10,137 21,136 33,141 40,139 37,137 41,127 55,126 67,121 68,126 82,134 72,148 76,152 59,153 45,163 44,178 38,181 42,184 36,186 35,198 30,203 24,201 24,197 9,197" id="7142" class="commune" fill="steelblue" stroke-width="1" stroke="white" geotype="commune" geoname="Lespéron" code_insee="7142" code_canton="713"/><polygon points="214,245 207,241 200,229 207,224 214,224 217,219 222,220 221,217 225,216 224,211 230,205 250,201 261,203 266,207 267,212 274,214 297,221 295,227 300,231 283,246 285,250 280,255 271,258 250,255 247,263 237,254 220,251 214,245" id="7153" class="commune" fill="steelblue" stroke-width="1" stroke="white" geotype="commune" geoname="Mayres" code_insee="7153" code_canton="713"/><polygon points="292,198 287,204 275,207 274,214 267,212 266,207 261,203 250,201 230,205 202,195 190,180 177,175 174,171 181,164 180,160 187,149 186,135 198,118 219,138 233,138 236,145 242,148 256,143 271,148 278,142 292,148 293,154 284,152 280,157 270,160 261,172 266,175 267,185 292,198" id="7154" class="commune" fill="steelblue" stroke-width="1" stroke="white" geotype="commune" geoname="Mazan-l'Abbaye" code_insee="7154" code_canton="713"/><polygon points="426,202 433,207 442,208 441,213 446,220 444,223 448,227 432,229 427,237 413,242 398,239 395,232 402,221 407,219 405,206 391,207 388,204 394,200 395,192 402,194 413,200 416,199 416,201 426,202" id="7156" class="commune" fill="steelblue" stroke-width="1" stroke="white" geotype="commune" geoname="Meyras" code_insee="7156" code_canton="713"/><polygon points="303,152 307,142 322,145 326,142 336,142 338,151 356,160 375,163 387,175 399,178 394,186 402,187 402,194 395,192 394,200 388,204 354,198 346,197 339,202 325,198 305,194 312,187 319,186 324,169 322,152 312,149 303,152" id="7161" class="commune" fill="steelblue" stroke-width="1" stroke="white" geotype="commune" geoname="Montpezat-sous-Bauzon" code_insee="7161" code_canton="713"/><polygon points="437,126 430,130 416,129 390,117 385,117 387,113 397,100 411,91 428,94 447,103 447,115 442,116 437,126" id="7173" class="commune" fill="steelblue" stroke-width="1" stroke="white" geotype="commune" geoname="Péreyres" code_insee="7173" code_canton="713"/><polygon points="105,192 114,199 126,205 127,213 138,221 134,223 115,219 93,224 88,220 79,221 73,214 83,203 72,200 65,191 65,184 60,181 62,171 71,175 80,173 95,181 105,192" id="7175" class="commune" fill="steelblue" stroke-width="1" stroke="white" geotype="commune" geoname="Plagnal" code_insee="7175" code_canton="713"/><polygon points="475,236 460,240 448,240 436,234 432,229 448,227 444,223 446,220 467,222 479,231 475,236" id="7178" class="commune" fill="steelblue" stroke-width="1" stroke="white" geotype="commune" geoname="Pont-de-Labeaume" code_insee="7178" code_canton="713"/><polygon points="447,265 450,265 450,255 464,254 461,250 472,248 488,253 493,250 500,254 499,255 492,265 490,273 486,275 461,282 454,279 448,281 443,270 447,265" id="7182" class="commune" fill="steelblue" stroke-width="1" stroke="white" geotype="commune" geoname="Prades" code_insee="7182" code_canton="713"/><polygon points="305,194 292,198 267,185 266,175 261,172 270,160 280,157 284,152 293,154 299,156 303,152 312,149 322,152 324,169 319,186 312,187 305,194" id="7200" class="commune" fill="steelblue" stroke-width="1" stroke="white" geotype="commune" geoname="Roux" code_insee="7200" code_canton="713"/><polygon points="399,70 404,73 411,84 411,91 397,100 387,113 369,112 357,117 346,114 344,117 333,111 340,107 339,101 336,100 337,86 342,86 351,74 349,61 352,58 376,62 385,58 388,65 399,70" id="7203" class="commune" fill="steelblue" stroke-width="1" stroke="white" geotype="commune" geoname="Sagnes-et-Goudoulet" code_insee="7203" code_canton="713"/><polygon points="73,214 66,216 35,198 36,186 42,184 38,181 44,178 45,163 59,153 76,152 80,155 80,173 71,175 62,171 60,181 65,184 65,191 72,200 83,203 73,214" id="7206" class="commune" fill="steelblue" stroke-width="1" stroke="white" geotype="commune" geoname="Saint-Alban-en-Montagne" code_insee="7206" code_canton="713"/><polygon points="442,265 447,265 443,270 448,281 442,285 420,287 417,290 414,289 421,276 426,276 442,265" id="7223" class="commune" fill="steelblue" stroke-width="1" stroke="white" geotype="commune" geoname="Saint-Cirgues-de-Prades" code_insee="7223" code_canton="713"/><polygon points="307,142 303,152 299,156 293,154 292,148 278,142 271,148 256,143 242,148 236,145 233,138 219,138 198,118 199,104 196,95 209,92 217,84 218,85 220,91 226,87 231,90 225,99 228,106 244,110 244,112 252,112 251,120 257,127 293,140 307,142" id="7224" class="commune" fill="steelblue" stroke-width="1" stroke="white" geotype="commune" geoname="Saint-Cirgues-en-Montagne" code_insee="7224" code_canton="713"/><polygon points="36,255 38,253 35,247 40,244 44,236 67,237 79,234 70,227 73,222 79,221 88,220 93,224 115,219 134,223 138,221 145,226 167,232 178,245 188,246 201,256 198,262 181,269 165,268 161,272 146,269 139,270 127,279 107,279 102,282 92,276 78,275 74,265 57,258 49,260 36,255" id="7232" class="commune" fill="steelblue" stroke-width="1" stroke="white" geotype="commune" geoname="Saint-Étienne-de-Lugdarès" code_insee="7232" code_canton="713"/><polygon points="329,36 332,36 341,18 347,20 360,32 360,38 383,48 385,58 376,62 352,58 349,61 351,74 342,86 337,86 336,100 330,95 326,98 316,93 311,96 308,72 312,61 323,56 325,46 330,41 329,36" id="7235" class="commune" fill="steelblue" stroke-width="1" stroke="white" geotype="commune" geoname="Sainte-Eulalie" code_insee="7235" code_canton="713"/><polygon points="146,269 143,276 150,283 149,289 147,292 141,293 136,305 138,309 141,307 154,313 159,321 145,313 145,316 131,318 126,307 116,315 112,311 105,322 95,327 93,324 91,328 79,327 72,332 65,329 57,318 59,311 47,307 63,290 94,290 102,282 107,279 127,279 139,270 146,269" id="7262" class="commune" fill="steelblue" stroke-width="1" stroke="white" geotype="commune" geoname="Saint-Laurent-les-Bains" code_insee="7262" code_canton="713"/><polygon points="399,178 410,178 413,175 421,173 419,168 422,166 446,168 445,171 452,178 438,185 436,192 440,196 426,202 416,201 416,199 413,200 402,194 402,187 394,186 399,178" id="7282" class="commune" fill="steelblue" stroke-width="1" stroke="white" geotype="commune" geoname="Saint-Pierre-de-Colombier" code_insee="7282" code_canton="713"/><polygon points="280,255 299,259 321,253 343,252 349,248 360,248 377,270 380,278 373,284 357,288 353,291 353,297 343,293 339,286 308,287 305,283 286,287 274,286 259,277 248,275 239,273 239,267 247,263 250,255 271,258 280,255" id="7315" class="commune" fill="steelblue" stroke-width="1" stroke="white" geotype="commune" geoname="Souche" code_insee="7315" code_canton="713"/><polygon points="349,248 343,227 336,226 333,220 336,213 335,206 325,198 339,202 346,197 354,198 388,204 391,207 405,206 407,219 402,221 395,232 398,239 370,244 360,248 349,248" id="7322" class="commune" fill="steelblue" stroke-width="1" stroke="white" geotype="commune" geoname="Thueyts" code_insee="7322" code_canton="713"/><polygon points="344,117 346,122 336,142 326,142 322,145 307,142 302,134 304,128 309,127 306,123 308,121 302,119 299,122 295,119 309,109 313,100 311,96 316,93 326,98 330,95 336,100 339,101 340,107 333,111 344,117" id="7326" class="commune" fill="steelblue" stroke-width="1" stroke="white" geotype="commune" geoname="Usclades-et-Rieutord" code_insee="7326" code_canton="713"/></svg>