<?xml version="1.0" encoding="utf-8"?>
<svg version="1.1" id="svgmap" xmlns="http://www.w3.org/2000/svg" xmlns:xlink="http://www.w3.org/1999/xlink" x="0px" y="0px" width="100%" height="100%" viewBox="0 0 467 500">
<polygon points="380,291 375,282 357,278 357,281 347,280 319,296 317,293 314,300 303,299 298,292 281,292 271,286 262,280 254,279 258,264 277,266 287,261 288,256 297,255 319,267 335,258 347,263 362,261 373,268 383,288 380,291" id="7017" class="commune" fill="steelblue" stroke-width="1" stroke="white" geotype="commune" geoname="Assions" code_insee="7017" code_canton="716"/><polygon points="209,407 202,403 190,399 186,391 197,388 208,368 210,357 218,352 216,343 222,338 237,340 242,333 259,330 259,327 280,331 277,321 287,324 292,322 300,326 316,335 329,370 327,388 335,391 329,392 334,403 330,406 321,404 285,391 286,388 268,374 234,379 230,392 234,398 218,413 209,407" id="7024" class="commune" fill="steelblue" stroke-width="1" stroke="white" geotype="commune" geoname="Banne" code_insee="7024" code_canton="716"/><polygon points="378,323 401,322 407,338 417,349 429,355 444,351 456,361 467,360 443,379 448,395 439,396 429,416 413,417 410,415 406,419 392,408 357,397 360,374 371,368 376,357 374,345 388,334 378,333 378,323" id="7028" class="commune" fill="steelblue" stroke-width="1" stroke="white" geotype="commune" geoname="Beaulieu" code_insee="7028" code_canton="716"/><polygon points="265,90 266,87 267,81 282,69 299,74 312,82 321,79 324,83 328,98 325,102 327,109 322,113 331,120 324,127 337,144 330,152 308,144 305,141 297,146 291,139 283,145 278,141 273,145 265,142 255,146 254,143 266,124 262,118 268,115 261,107 271,103 265,90" id="7029" class="commune" fill="steelblue" stroke-width="1" stroke="white" geotype="commune" geoname="Beaumont" code_insee="7029" code_canton="716"/><polygon points="314,300 317,293 319,296 347,280 357,281 357,278 375,282 380,291 375,291 372,306 366,307 372,312 367,320 378,323 378,333 388,334 374,345 376,357 371,368 360,374 357,397 355,402 347,401 335,398 335,391 327,388 329,370 316,335 300,326 319,307 314,300" id="7031" class="commune" fill="steelblue" stroke-width="1" stroke="white" geotype="commune" geoname="Berrias-et-Casteljau" code_insee="7031" code_canton="716"/><polygon points="258,264 254,279 262,280 271,286 265,290 275,302 273,310 264,309 252,295 219,291 206,296 203,292 210,273 209,264 201,262 202,255 215,250 231,254 235,246 260,241 256,247 258,264" id="7050" class="commune" fill="steelblue" stroke-width="1" stroke="white" geotype="commune" geoname="Chambonas" code_insee="7050" code_canton="716"/><polygon points="401,322 378,323 367,320 372,312 366,307 372,306 375,291 380,291 383,288 373,268 385,256 416,269 415,271 419,269 429,272 430,277 421,277 412,293 415,300 425,305 412,318 401,322" id="7053" class="commune" fill="steelblue" stroke-width="1" stroke="white" geotype="commune" geoname="Chandolas" code_insee="7053" code_canton="716"/><polygon points="266,87 265,90 259,97 252,94 240,99 231,96 229,105 212,102 197,119 199,122 182,121 188,95 171,86 173,80 163,65 167,58 178,54 183,51 205,58 266,87" id="7081" class="commune" fill="steelblue" stroke-width="1" stroke="white" geotype="commune" geoname="Dompnac" code_insee="7081" code_canton="716"/><polygon points="288,211 283,216 276,214 259,224 234,205 237,195 227,188 230,168 244,179 247,187 267,197 269,204 288,211" id="7088" class="commune" fill="steelblue" stroke-width="1" stroke="white" geotype="commune" geoname="Faugères" code_insee="7088" code_canton="716"/><polygon points="175,263 175,273 191,277 203,292 206,296 194,306 200,313 190,325 183,326 174,316 154,306 135,291 106,283 121,267 108,247 127,240 137,244 139,250 145,247 148,251 154,251 155,257 161,251 167,252 163,266 175,263" id="7100" class="commune" fill="steelblue" stroke-width="1" stroke="white" geotype="commune" geoname="Gravières" code_insee="7100" code_canton="716"/><polygon points="360,174 374,177 389,172 384,183 391,196 422,203 441,234 453,236 449,240 435,245 430,252 401,228 374,221 374,211 378,207 375,205 367,211 369,204 357,196 366,192 359,182 360,174" id="7110" class="commune" fill="steelblue" stroke-width="1" stroke="white" geotype="commune" geoname="Joyeuse" code_insee="7110" code_canton="716"/><polygon points="288,211 285,204 290,199 302,197 308,192 317,194 333,189 342,189 359,182 366,192 357,196 369,204 367,211 375,205 378,207 374,211 374,221 401,228 430,252 420,258 416,269 385,256 373,268 362,261 347,254 333,254 328,247 324,249 325,231 317,227 309,230 310,226 297,222 288,211" id="7117" class="commune" fill="steelblue" stroke-width="1" stroke="white" geotype="commune" geoname="Lablachère" code_insee="7117" code_canton="716"/><polygon points="299,74 282,69 276,57 245,36 243,16 269,11 274,17 315,15 320,24 333,29 348,32 345,41 324,58 315,57 316,61 310,62 299,74" id="7118" class="commune" fill="steelblue" stroke-width="1" stroke="white" geotype="commune" geoname="Laboule" code_insee="7118" code_canton="716"/><polygon points="178,54 167,58 157,56 152,60 148,54 142,54 137,59 131,57 133,61 123,67 109,66 100,56 94,60 90,57 102,43 99,39 111,34 118,20 147,23 149,36 143,36 143,42 178,54" id="7144" class="commune" fill="steelblue" stroke-width="1" stroke="white" geotype="commune" geoname="Loubaresse" code_insee="7144" code_canton="716"/><polygon points="124,147 132,159 149,158 145,166 156,169 163,176 158,199 169,203 179,214 177,221 186,226 187,232 181,232 183,252 175,263 163,266 167,252 161,251 155,257 154,251 148,251 145,247 139,250 137,244 127,240 108,247 104,250 99,246 89,247 87,241 77,240 78,236 82,219 74,209 76,208 91,221 109,227 112,221 104,207 94,207 91,201 91,184 82,180 69,166 80,143 77,139 93,142 100,140 110,149 124,147" id="7147" class="commune" fill="steelblue" stroke-width="1" stroke="white" geotype="commune" geoname="Malarce-sur-la-Thines" code_insee="7147" code_canton="716"/><polygon points="140,422 129,427 122,424 126,420 122,420 123,417 107,409 133,398 127,386 133,378 131,368 137,362 129,356 130,340 150,340 169,347 187,348 184,352 189,359 208,368 197,388 186,391 190,399 202,403 188,402 186,408 175,411 161,409 140,422" id="7148" class="commune" fill="steelblue" stroke-width="1" stroke="white" geotype="commune" geoname="Malbosc" code_insee="7148" code_canton="716"/><polygon points="74,61 88,70 101,74 99,81 87,87 88,98 102,121 100,132 124,147 110,149 100,140 93,142 77,139 80,143 69,166 82,180 91,184 91,201 94,207 104,207 112,221 109,227 91,221 76,208 74,209 61,201 67,195 58,182 58,171 65,166 54,155 48,155 49,150 42,144 24,148 27,140 17,135 14,125 6,118 10,115 0,100 2,97 17,98 26,95 24,90 31,80 29,75 33,73 48,74 57,55 57,51 74,61" id="7163" class="commune" fill="steelblue" stroke-width="1" stroke="white" geotype="commune" geoname="Montselgues" code_insee="7163" code_canton="716"/><polygon points="288,211 288,211 297,222 310,226 309,230 304,227 296,232 298,242 305,246 294,250 297,255 288,256 287,261 277,266 258,264 256,247 260,241 235,246 237,236 231,237 228,225 217,221 214,213 234,205 259,224 276,214 283,216 288,211" id="7171" class="commune" fill="steelblue" stroke-width="1" stroke="white" geotype="commune" geoname="Payzac" code_insee="7171" code_canton="716"/><polygon points="288,211 288,211 269,204 267,197 247,187 244,179 278,175 297,182 308,192 302,197 290,199 285,204 288,211" id="7176" class="commune" fill="steelblue" stroke-width="1" stroke="white" geotype="commune" geoname="Planzolles" code_insee="7176" code_canton="716"/><polygon points="308,144 330,152 339,156 352,149 355,161 349,172 360,174 359,182 342,189 333,189 309,167 308,161 301,160 308,144" id="7189" class="commune" fill="steelblue" stroke-width="1" stroke="white" geotype="commune" geoname="Ribes" code_insee="7189" code_canton="716"/><polygon points="322,113 327,109 325,102 328,98 324,83 321,79 312,82 299,74 310,62 316,61 315,57 324,58 345,41 348,32 357,36 377,73 375,80 387,87 395,99 375,96 366,99 364,108 322,113" id="7196" class="commune" fill="steelblue" stroke-width="1" stroke="white" geotype="commune" geoname="Rocles" code_insee="7196" code_canton="716"/><polygon points="425,145 423,149 429,154 429,160 439,162 437,170 443,176 452,178 457,190 466,198 440,218 445,227 455,231 453,236 441,234 422,203 391,196 384,183 389,172 391,167 383,162 387,150 374,146 404,149 415,141 425,145" id="7199" class="commune" fill="steelblue" stroke-width="1" stroke="white" geotype="commune" geoname="Rosières" code_insee="7199" code_canton="716"/><polygon points="101,74 89,69 94,68 94,60 100,56 109,66 123,67 133,61 131,57 137,59 142,54 148,54 152,60 157,56 167,58 163,65 173,80 171,86 188,95 182,121 199,122 205,127 201,133 208,134 209,138 214,137 214,149 206,153 195,150 165,163 152,156 149,158 132,159 124,147 100,132 102,121 88,98 87,87 99,81 101,74" id="7202" class="commune" fill="steelblue" stroke-width="1" stroke="white" geotype="commune" geoname="Sablières" code_insee="7202" code_canton="716"/><polygon points="358,466 316,451 304,426 316,415 315,411 321,409 321,404 330,406 334,403 329,392 335,391 335,398 347,401 355,402 357,397 392,408 406,419 400,419 387,437 383,454 360,462 358,466" id="7211" class="commune" fill="steelblue" stroke-width="1" stroke="white" geotype="commune" geoname="Saint-André-de-Cruzières" code_insee="7211" code_canton="716"/><polygon points="254,143 255,146 265,142 273,145 278,141 283,145 291,139 297,146 305,141 308,144 301,160 308,161 309,167 333,189 317,194 308,192 297,182 278,175 244,179 230,168 225,164 215,166 214,149 214,137 227,134 249,137 246,142 254,143" id="7213" class="commune" fill="steelblue" stroke-width="1" stroke="white" geotype="commune" geoname="Saint-André-Lachamp" code_insee="7213" code_canton="716"/><polygon points="362,261 347,263 335,258 319,267 297,255 294,250 305,246 298,242 296,232 304,227 309,230 317,227 325,231 324,249 328,247 333,254 347,254 362,261" id="7238" class="commune" fill="steelblue" stroke-width="1" stroke="white" geotype="commune" geoname="Saint-Genest-de-Beauzon" code_insee="7238" code_canton="716"/><polygon points="24,148 42,144 49,150 48,155 54,155 65,166 58,171 58,182 67,195 61,201 74,209 82,219 78,236 54,228 52,219 46,217 37,202 38,184 35,181 41,166 30,150 24,148" id="7266" class="commune" fill="steelblue" stroke-width="1" stroke="white" geotype="commune" geoname="Sainte-Marguerite-Lafigère" code_insee="7266" code_canton="716"/><polygon points="265,90 271,103 261,107 268,115 262,118 266,124 254,143 246,142 249,137 227,134 214,137 209,138 208,134 201,133 205,127 199,122 197,119 212,102 229,105 231,96 240,99 252,94 259,97 265,90" id="7275" class="commune" fill="steelblue" stroke-width="1" stroke="white" geotype="commune" geoname="Saint-Mélany" code_insee="7275" code_canton="716"/><polygon points="234,398 230,392 234,379 268,374 286,388 285,391 321,404 321,409 315,411 316,415 304,426 299,425 284,433 256,432 254,412 244,411 240,400 234,398" id="7280" class="commune" fill="steelblue" stroke-width="1" stroke="white" geotype="commune" geoname="Saint-Paul-le-Jeune" code_insee="7280" code_canton="716"/><polygon points="230,168 227,188 237,195 234,205 214,213 217,221 228,225 231,237 237,236 235,246 231,254 215,250 212,244 192,239 187,232 186,226 177,221 179,214 169,203 158,199 163,176 156,169 145,166 149,158 152,156 165,163 195,150 206,153 214,149 215,166 225,164 230,168" id="7284" class="commune" fill="steelblue" stroke-width="1" stroke="white" geotype="commune" geoname="Saint-Pierre-Saint-Jean" code_insee="7284" code_canton="716"/><polygon points="406,419 410,415 413,417 429,416 442,420 451,429 458,429 460,461 447,474 443,485 417,500 401,496 383,485 358,466 360,462 383,454 387,437 400,419 406,419" id="7294" class="commune" fill="steelblue" stroke-width="1" stroke="white" geotype="commune" geoname="Saint-Sauveur-de-Cruzières" code_insee="7294" code_canton="716"/><polygon points="203,292 191,277 175,273 175,263 183,252 181,232 187,232 192,239 212,244 215,250 202,255 201,262 209,264 210,273 203,292" id="7305" class="commune" fill="steelblue" stroke-width="1" stroke="white" geotype="commune" geoname="Salelles" code_insee="7305" code_canton="716"/><polygon points="282,69 267,81 266,87 205,58 183,51 178,54 143,42 143,36 149,36 147,23 159,22 168,8 194,0 208,3 228,15 243,16 245,36 276,57 282,69" id="7329" class="commune" fill="steelblue" stroke-width="1" stroke="white" geotype="commune" geoname="Valgorge" code_insee="7329" code_canton="716"/><polygon points="271,286 281,292 298,292 303,299 314,300 319,307 300,326 292,322 287,324 277,321 280,331 259,327 259,330 242,333 237,340 222,338 216,343 218,352 210,357 208,368 189,359 184,352 187,348 169,347 150,340 130,340 118,333 112,323 115,318 122,314 135,321 137,319 146,319 143,313 154,306 174,316 183,326 190,325 200,313 194,306 206,296 219,291 252,295 264,309 273,310 275,302 265,290 271,286" id="7334" class="commune" fill="steelblue" stroke-width="1" stroke="white" geotype="commune" geoname="Vans" code_insee="7334" code_canton="716"/><polygon points="389,172 374,177 360,174 349,172 355,161 365,150 374,146 387,150 383,162 391,167 389,172" id="7336" class="commune" fill="steelblue" stroke-width="1" stroke="white" geotype="commune" geoname="Vernon" code_insee="7336" code_canton="716"/></svg>