<?xml version="1.0" encoding="utf-8"?>
<svg version="1.1" id="svgmap" xmlns="http://www.w3.org/2000/svg" xmlns:xlink="http://www.w3.org/1999/xlink" x="0px" y="0px" width="100%" height="100%" viewBox="0 0 500 407">
<polygon points="230,363 222,356 257,328 253,320 269,304 276,312 295,303 375,319 369,340 353,336 334,355 295,358 288,371 270,374 230,363" id="9021" class="commune" fill="steelblue" stroke-width="1" stroke="white" geotype="commune" geoname="Artix" code_insee="9021" code_canton="907"/><polygon points="385,319 395,316 397,286 419,283 423,291 453,290 456,329 406,327 385,319" id="9050" class="commune" fill="steelblue" stroke-width="1" stroke="white" geotype="commune" geoname="Benagues" code_insee="9050" code_canton="907"/><polygon points="299,72 342,69 381,88 376,142 336,135 329,128 325,136 312,136 279,129 267,103 257,100 263,87 281,82 280,75 299,72" id="9056" class="commune" fill="steelblue" stroke-width="1" stroke="white" geotype="commune" geoname="Bézac" code_insee="9056" code_canton="907"/><polygon points="257,100 267,103 279,129 312,136 302,144 316,149 356,193 304,219 264,196 260,217 243,222 196,205 174,207 166,196 171,188 186,188 201,160 214,143 224,141 202,123 220,117 225,114 248,128 257,100" id="9116" class="commune" fill="steelblue" stroke-width="1" stroke="white" geotype="commune" geoname="Escosse" code_insee="9116" code_canton="907"/><polygon points="220,117 202,123 224,141 214,143 201,160 155,151 123,129 101,134 99,113 92,96 130,102 127,83 139,85 176,48 187,64 184,92 220,117" id="9163" class="commune" fill="steelblue" stroke-width="1" stroke="white" geotype="commune" geoname="Lescousse" code_insee="9163" code_canton="907"/><polygon points="99,185 101,178 124,176 147,188 171,188 166,196 174,207 196,205 243,222 260,217 261,226 241,244 206,245 126,260 102,243 92,244 94,229 87,217 98,209 99,185" id="9177" class="commune" fill="steelblue" stroke-width="1" stroke="white" geotype="commune" geoname="Madière" code_insee="9177" code_canton="907"/><polygon points="334,355 353,336 369,340 375,319 385,319 406,327 456,329 440,340 467,347 463,369 412,381 402,402 363,407 347,397 362,371 334,355" id="9245" class="commune" fill="steelblue" stroke-width="1" stroke="white" geotype="commune" geoname="Rieux-de-Pelleport" code_insee="9245" code_canton="907"/><polygon points="299,72 280,75 281,82 263,87 257,100 248,128 225,114 222,87 258,76 269,47 290,58 299,72" id="9255" class="commune" fill="steelblue" stroke-width="1" stroke="white" geotype="commune" geoname="Saint-Amans" code_insee="9255" code_canton="907"/><polygon points="397,286 395,316 385,319 375,319 295,303 295,281 318,271 397,286" id="9256" class="commune" fill="steelblue" stroke-width="1" stroke="white" geotype="commune" geoname="Saint-Bauzeil" code_insee="9256" code_canton="907"/><polygon points="456,329 453,290 423,291 419,283 453,243 500,269 477,317 473,333 456,329" id="9265" class="commune" fill="steelblue" stroke-width="1" stroke="white" geotype="commune" geoname="Saint-Jean-du-Falga" code_insee="9265" code_canton="907"/><polygon points="79,132 56,125 54,92 31,86 7,55 0,42 26,35 43,17 87,42 112,39 144,54 153,47 142,37 172,33 176,48 139,85 127,83 130,102 92,96 99,113 79,132" id="9270" class="commune" fill="steelblue" stroke-width="1" stroke="white" geotype="commune" geoname="Saint-Martin-d'Oydes" code_insee="9270" code_canton="907"/><polygon points="101,178 95,183 86,171 79,132 99,113 101,134 123,129 155,151 201,160 186,188 171,188 147,188 124,176 101,178" id="9271" class="commune" fill="steelblue" stroke-width="1" stroke="white" geotype="commune" geoname="Saint-Michel" code_insee="9271" code_canton="907"/><polygon points="206,245 241,244 261,226 330,233 321,245 343,259 318,271 295,281 295,303 276,312 269,304 253,320 257,328 222,356 193,325 217,297 202,278 211,258 206,245" id="9276" class="commune" fill="steelblue" stroke-width="1" stroke="white" geotype="commune" geoname="Saint-Victor-Rouzaud" code_insee="9276" code_canton="907"/><polygon points="266,36 269,47 258,76 222,87 225,114 220,117 184,92 187,64 176,48 172,33 188,0 266,36" id="9319" class="commune" fill="steelblue" stroke-width="1" stroke="white" geotype="commune" geoname="Unzent" code_insee="9319" code_canton="907"/></svg>