<?xml version="1.0" encoding="utf-8"?>
<svg version="1.1" id="svgmap" xmlns="http://www.w3.org/2000/svg" xmlns:xlink="http://www.w3.org/1999/xlink" x="0px" y="0px" width="100%" height="100%" viewBox="0 0 500 234">
<polygon points="250,74 251,75 245,83 247,84 234,96 245,96 249,99 245,108 244,103 211,106 208,111 212,112 210,121 216,126 217,124 223,123 220,129 208,124 190,125 187,123 181,127 173,125 165,124 164,121 167,120 166,117 170,115 165,113 177,99 175,98 184,96 191,90 197,90 222,79 224,73 230,70 236,72 239,71 240,73 247,72 250,74" id="10034" class="commune" fill="steelblue" stroke-width="1" stroke="white" geotype="commune" geoname="Bar-sur-Seine" code_insee="10034" code_canton="1004"/><polygon points="318,58 325,59 323,63 326,73 332,84 336,87 335,88 332,88 332,91 328,92 319,101 312,107 309,103 314,100 319,73 310,61 305,59 318,58" id="10041" class="commune" fill="steelblue" stroke-width="1" stroke="white" geotype="commune" geoname="Bertignolles" code_insee="10041" code_canton="1004"/><polygon points="230,70 224,73 222,79 197,90 191,90 184,96 175,98 172,94 166,93 168,86 172,82 170,81 171,76 176,69 181,68 178,67 177,60 186,57 193,56 197,60 194,63 201,67 221,64 230,64 233,68 230,70" id="10055" class="commune" fill="steelblue" stroke-width="1" stroke="white" geotype="commune" geoname="Bourguignons" code_insee="10055" code_canton="1004"/><polygon points="185,35 181,30 171,30 160,17 160,12 170,14 171,10 178,6 180,0 204,0 211,9 209,12 211,14 205,16 203,21 204,23 196,26 185,35" id="10062" class="commune" fill="steelblue" stroke-width="1" stroke="white" geotype="commune" geoname="Briel-sur-Barse" code_insee="10062" code_canton="1004"/><polygon points="211,157 211,156 213,150 219,149 218,145 230,143 235,146 238,144 246,144 256,148 254,151 245,149 235,154 229,161 222,159 221,155 211,157" id="10068" class="commune" fill="steelblue" stroke-width="1" stroke="white" geotype="commune" geoname="Buxeuil" code_insee="10068" code_canton="1004"/><polygon points="268,63 276,64 286,68 289,75 290,92 287,94 283,96 283,99 280,95 274,97 269,96 258,84 254,75 251,75 250,74 268,63" id="10069" class="commune" fill="steelblue" stroke-width="1" stroke="white" geotype="commune" geoname="Buxières-sur-Arce" code_insee="10069" code_canton="1004"/><polygon points="256,148 246,144 238,144 221,134 220,129 223,123 233,127 235,124 240,126 244,122 250,125 253,123 267,124 263,130 264,141 258,151 256,148" id="10070" class="commune" fill="steelblue" stroke-width="1" stroke="white" geotype="commune" geoname="Celles-sur-Ource" code_insee="10070" code_canton="1004"/><polygon points="319,101 328,92 332,91 332,88 335,88 336,87 348,98 357,99 357,101 355,103 345,102 344,106 357,113 354,119 342,116 334,125 332,123 335,113 332,111 319,101" id="10071" class="commune" fill="steelblue" stroke-width="1" stroke="white" geotype="commune" geoname="Chacenay" code_insee="10071" code_canton="1004"/><polygon points="82,56 87,55 100,46 107,46 122,37 124,37 128,41 129,47 124,55 122,57 116,57 110,64 102,64 95,76 93,76 89,73 83,72 88,60 83,58 82,56" id="10083" class="commune" fill="steelblue" stroke-width="1" stroke="white" geotype="commune" geoname="Chappes" code_insee="10083" code_canton="1004"/><polygon points="145,52 137,53 129,59 124,55 129,47 128,41 124,37 125,33 120,23 133,18 139,21 146,18 160,17 159,20 164,22 171,34 166,37 167,44 171,45 172,52 179,53 183,51 186,54 186,57 177,60 161,56 160,57 145,52" id="10092" class="commune" fill="steelblue" stroke-width="1" stroke="white" geotype="commune" geoname="Chauffour-lès-Bailly" code_insee="10092" code_canton="1004"/><polygon points="305,59 310,61 319,73 314,100 309,103 297,106 287,101 287,94 290,92 289,75 286,68 296,60 305,59" id="10097" class="commune" fill="steelblue" stroke-width="1" stroke="white" geotype="commune" geoname="Chervey" code_insee="10097" code_canton="1004"/><polygon points="177,60 178,67 181,68 176,69 171,76 165,76 166,72 152,70 123,75 128,66 135,63 145,52 160,57 161,56 177,60" id="10109" class="commune" fill="steelblue" stroke-width="1" stroke="white" geotype="commune" geoname="Courtenot" code_insee="10109" code_canton="1004"/><polygon points="304,162 303,178 308,179 306,181 298,181 290,183 277,195 275,201 269,204 265,203 262,200 260,194 255,189 258,180 261,177 267,178 287,172 304,162" id="10111" class="commune" fill="steelblue" stroke-width="1" stroke="white" geotype="commune" geoname="Courteron" code_insee="10111" code_canton="1004"/><polygon points="457,184 455,184 451,179 443,182 442,178 436,175 414,176 409,170 419,168 413,165 414,157 421,151 431,148 442,138 447,131 473,135 480,140 490,154 500,157 499,162 489,166 485,173 493,179 486,178 484,179 479,176 457,184" id="10119" class="commune" fill="steelblue" stroke-width="1" stroke="white" geotype="commune" geoname="Cunfin" code_insee="10119" code_canton="1004"/><polygon points="336,87 332,84 326,73 323,63 325,59 339,59 344,61 352,69 355,89 361,92 364,101 363,103 357,101 357,99 348,98 336,87" id="10136" class="commune" fill="steelblue" stroke-width="1" stroke="white" geotype="commune" geoname="Éguilly-sous-Bois" code_insee="10136" code_canton="1004"/><polygon points="341,191 337,191 336,188 330,187 326,181 318,180 308,179 303,178 304,162 305,162 311,153 315,150 321,151 330,142 335,127 350,127 355,120 367,122 372,122 390,140 383,147 373,150 385,150 381,152 369,153 361,158 358,156 351,159 354,163 348,165 354,175 354,184 357,186 353,193 341,191" id="10141" class="commune" fill="steelblue" stroke-width="1" stroke="white" geotype="commune" geoname="Essoyes" code_insee="10141" code_canton="1004"/><polygon points="444,129 447,131 442,138 431,148 421,151 412,146 405,147 402,144 394,149 392,145 395,142 390,140 372,122 367,122 387,115 410,116 420,118 444,129" id="10155" class="commune" fill="steelblue" stroke-width="1" stroke="white" geotype="commune" geoname="Fontette" code_insee="10155" code_canton="1004"/><polygon points="124,55 129,59 137,53 145,52 135,63 128,66 123,75 119,82 115,86 112,91 114,93 108,92 105,97 103,95 107,89 105,87 110,78 103,79 95,76 102,64 110,64 116,57 122,57 124,55" id="10158" class="commune" fill="steelblue" stroke-width="1" stroke="white" geotype="commune" geoname="Fouchères" code_insee="10158" code_canton="1004"/><polygon points="221,64 201,67 194,63 197,60 193,56 196,48 212,48 219,52 222,51 226,58 221,64" id="10159" class="commune" fill="steelblue" stroke-width="1" stroke="white" geotype="commune" geoname="Fralignes" code_insee="10159" code_canton="1004"/><polygon points="290,157 297,161 305,162 304,162 287,172 267,178 261,177 258,180 255,189 260,194 262,200 265,203 269,204 264,211 266,216 268,225 265,228 242,218 239,215 242,207 228,192 231,188 238,187 243,166 263,161 272,153 290,157" id="10170" class="commune" fill="steelblue" stroke-width="1" stroke="white" geotype="commune" geoname="Gyé-sur-Seine" code_insee="10170" code_canton="1004"/><polygon points="101,128 100,128 103,126 97,125 96,118 81,114 81,105 83,98 75,92 80,87 95,88 99,83 93,76 95,76 103,79 110,78 105,87 107,89 103,95 105,97 108,92 114,93 112,91 115,86 119,82 120,87 131,95 137,94 145,90 147,93 149,90 166,93 172,94 175,98 177,99 165,113 170,115 166,117 167,120 164,121 142,118 140,116 129,116 119,118 114,124 108,123 103,128 101,128" id="10181" class="commune" fill="steelblue" stroke-width="1" stroke="white" geotype="commune" geoname="Jully-sur-Sarce" code_insee="10181" code_canton="1004"/><polygon points="258,151 264,141 263,130 267,124 285,117 292,108 295,108 299,112 291,119 291,123 294,124 305,124 305,126 305,130 297,138 298,141 293,148 290,157 272,153 258,151" id="10187" class="commune" fill="steelblue" stroke-width="1" stroke="white" geotype="commune" geoname="Landreville" code_insee="10187" code_canton="1004"/><polygon points="305,162 297,161 290,157 293,148 298,141 297,138 305,130 305,126 323,113 332,111 335,113 332,123 334,125 335,127 330,142 321,151 315,150 311,153 305,162" id="10199" class="commune" fill="steelblue" stroke-width="1" stroke="white" geotype="commune" geoname="Loches-sur-Ource" code_insee="10199" code_canton="1004"/><polygon points="258,43 267,56 268,63 250,74 247,72 240,73 239,71 236,72 230,70 233,68 230,64 221,64 226,58 222,51 219,52 223,49 221,46 224,41 228,38 235,39 243,29 249,30 247,34 244,34 244,35 258,40 258,43" id="10213" class="commune" fill="steelblue" stroke-width="1" stroke="white" geotype="commune" geoname="Magnant" code_insee="10213" code_canton="1004"/><polygon points="160,17 160,17 171,30 181,30 185,35 190,39 189,40 196,45 196,48 193,56 186,57 186,54 190,47 187,45 189,43 186,41 181,45 174,43 171,45 167,44 166,37 171,34 164,22 159,20 160,17" id="10226" class="commune" fill="steelblue" stroke-width="1" stroke="white" geotype="commune" geoname="Marolles-lès-Bailly" code_insee="10226" code_canton="1004"/><polygon points="245,108 246,115 253,123 250,125 244,122 240,126 235,124 233,127 223,123 217,124 216,126 210,121 212,112 208,111 211,106 244,103 245,108" id="10232" class="commune" fill="steelblue" stroke-width="1" stroke="white" geotype="commune" geoname="Merrey-sur-Arce" code_insee="10232" code_canton="1004"/><polygon points="258,231 265,228 268,225 266,216 284,218 288,213 292,213 293,205 297,205 297,203 300,203 304,205 307,201 310,200 300,199 302,195 299,194 318,180 326,181 330,187 336,188 337,191 341,191 346,203 357,208 361,221 357,224 337,222 324,225 305,223 296,228 279,231 273,231 266,234 258,231" id="10261" class="commune" fill="steelblue" stroke-width="1" stroke="white" geotype="commune" geoname="Mussy-sur-Seine" code_insee="10261" code_canton="1004"/><polygon points="207,175 204,167 211,160 211,157 221,155 222,159 229,161 235,154 245,149 254,151 256,148 258,151 272,153 263,161 243,166 238,187 231,188 228,192 221,182 212,179 207,175" id="10262" class="commune" fill="steelblue" stroke-width="1" stroke="white" geotype="commune" geoname="Neuville-sur-Seine" code_insee="10262" code_canton="1004"/><polygon points="335,127 334,125 342,116 354,119 357,113 344,106 345,102 355,103 357,101 363,103 364,101 380,104 386,108 387,115 367,122 355,120 350,127 335,127" id="10264" class="commune" fill="steelblue" stroke-width="1" stroke="white" geotype="commune" geoname="Noé-les-Mallets" code_insee="10264" code_canton="1004"/><polygon points="308,179 318,180 299,194 302,195 300,199 310,200 307,201 304,205 300,203 297,203 297,205 293,205 292,213 288,213 284,218 266,216 264,211 269,204 275,201 277,195 290,183 298,181 306,181 308,179" id="10288" class="commune" fill="steelblue" stroke-width="1" stroke="white" geotype="commune" geoname="Plaines-Saint-Lange" code_insee="10288" code_canton="1004"/><polygon points="186,54 183,51 179,53 172,52 171,45 174,43 181,45 186,41 189,43 187,45 190,47 186,54" id="10294" class="commune" fill="steelblue" stroke-width="1" stroke="white" geotype="commune" geoname="Poligny" code_insee="10294" code_canton="1004"/><polygon points="165,146 154,141 160,134 171,129 173,125 181,127 187,123 190,125 208,124 220,129 221,134 215,133 215,136 204,137 205,140 199,143 197,141 187,144 181,142 165,146" id="10295" class="commune" fill="steelblue" stroke-width="1" stroke="white" geotype="commune" geoname="Polisot" code_insee="10295" code_canton="1004"/><polygon points="152,148 165,146 181,142 187,144 197,141 199,143 205,140 204,137 215,136 215,133 221,134 238,144 235,146 230,143 218,145 219,149 213,150 211,156 200,157 184,152 175,157 158,158 155,156 149,151 152,148" id="10296" class="commune" fill="steelblue" stroke-width="1" stroke="white" geotype="commune" geoname="Polisy" code_insee="10296" code_canton="1004"/><polygon points="81,105 69,100 69,102 63,103 58,128 50,130 32,122 19,112 0,107 21,88 25,81 25,73 32,75 33,72 36,74 38,72 42,72 45,65 39,62 45,59 51,60 56,53 71,55 77,57 75,60 80,62 83,58 88,60 83,72 89,73 93,76 99,83 95,88 80,87 75,92 83,98 81,105" id="10331" class="commune" fill="steelblue" stroke-width="1" stroke="white" geotype="commune" geoname="Rumilly-lès-Vaudes" code_insee="10331" code_canton="1004"/><polygon points="56,53 65,42 68,41 66,37 69,36 71,41 76,43 77,52 84,51 85,54 81,54 82,56 83,58 80,62 75,60 77,57 71,55 56,53" id="10358" class="commune" fill="steelblue" stroke-width="1" stroke="white" geotype="commune" geoname="Saint-Parres-lès-Vaudes" code_insee="10358" code_canton="1004"/><polygon points="472,123 461,127 454,126 444,129 420,118 410,116 387,115 386,108 380,104 387,99 418,95 423,97 435,112 453,109 467,112 466,119 472,123" id="10364" class="commune" fill="steelblue" stroke-width="1" stroke="white" geotype="commune" geoname="Saint-Usage" code_insee="10364" code_canton="1004"/><polygon points="278,28 264,34 263,40 259,41 258,43 258,40 244,35 244,34 247,34 249,30 243,29 239,26 243,22 241,20 248,15 259,15 259,13 266,16 271,21 281,22 278,28" id="10376" class="commune" fill="steelblue" stroke-width="1" stroke="white" geotype="commune" geoname="Thieffrain" code_insee="10376" code_canton="1004"/><polygon points="45,59 15,51 17,46 26,43 34,38 46,40 47,36 52,39 65,40 65,42 56,53 51,60 45,59" id="10399" class="commune" fill="steelblue" stroke-width="1" stroke="white" geotype="commune" geoname="Vaudes" code_insee="10399" code_canton="1004"/><polygon points="421,151 414,157 413,165 419,168 409,170 402,172 394,171 378,172 371,176 365,183 357,186 354,184 354,175 348,165 354,163 351,159 358,156 361,158 369,153 381,152 385,150 373,150 383,147 390,140 395,142 392,145 394,149 402,144 405,147 412,146 421,151" id="10404" class="commune" fill="steelblue" stroke-width="1" stroke="white" geotype="commune" geoname="Verpillières-sur-Ource" code_insee="10404" code_canton="1004"/><polygon points="154,141 151,143 144,141 137,132 131,135 125,143 101,132 98,132 101,128 103,128 108,123 114,124 119,118 129,116 140,116 142,118 164,121 165,124 173,125 171,129 160,134 154,141" id="10418" class="commune" fill="steelblue" stroke-width="1" stroke="white" geotype="commune" geoname="Villemorien" code_insee="10418" code_canton="1004"/><polygon points="89,24 100,25 105,27 109,22 120,23 125,33 124,37 122,37 107,46 100,46 87,55 82,56 81,54 85,54 84,51 77,52 76,43 71,41 69,36 66,37 64,36 69,33 80,31 89,24" id="10419" class="commune" fill="steelblue" stroke-width="1" stroke="white" geotype="commune" geoname="Villemoyenne" code_insee="10419" code_canton="1004"/><polygon points="267,124 253,123 246,115 245,108 249,99 245,96 234,96 247,84 245,83 251,75 254,75 258,84 269,96 274,97 280,95 283,99 283,96 287,94 287,101 297,106 295,108 292,108 285,117 267,124" id="10427" class="commune" fill="steelblue" stroke-width="1" stroke="white" geotype="commune" geoname="Ville-sur-Arce" code_insee="10427" code_canton="1004"/><polygon points="185,35 196,26 204,23 203,21 205,16 211,14 209,12 211,9 216,7 222,5 227,11 235,14 241,11 248,15 241,20 243,22 239,26 243,29 235,39 228,38 224,41 221,46 223,49 219,52 212,48 196,48 196,45 189,40 190,39 185,35" id="10433" class="commune" fill="steelblue" stroke-width="1" stroke="white" geotype="commune" geoname="Villy-en-Trodes" code_insee="10433" code_canton="1004"/><polygon points="171,76 170,81 172,82 168,86 166,93 149,90 147,93 145,90 137,94 131,95 120,87 119,82 123,75 152,70 166,72 165,76 171,76" id="10437" class="commune" fill="steelblue" stroke-width="1" stroke="white" geotype="commune" geoname="Virey-sous-Bar" code_insee="10437" code_canton="1004"/><polygon points="347,45 372,47 381,50 410,75 415,79 413,83 419,90 418,95 387,99 380,104 364,101 361,92 355,89 352,69 344,61 339,59 339,53 347,45" id="10438" class="commune" fill="steelblue" stroke-width="1" stroke="white" geotype="commune" geoname="Vitry-le-Croisé" code_insee="10438" code_canton="1004"/><polygon points="309,103 312,107 319,101 332,111 323,113 305,126 305,124 294,124 291,123 291,119 299,112 295,108 297,106 309,103" id="10439" class="commune" fill="steelblue" stroke-width="1" stroke="white" geotype="commune" geoname="Viviers-sur-Artaut" code_insee="10439" code_canton="1004"/></svg>