<?xml version="1.0" encoding="utf-8"?>
<svg version="1.1" id="svgmap" xmlns="http://www.w3.org/2000/svg" xmlns:xlink="http://www.w3.org/1999/xlink" x="0px" y="0px" width="100%" height="100%" viewBox="0 0 497 500">
<polygon points="404,120 409,149 401,155 403,165 378,172 363,163 353,165 346,170 323,170 318,175 312,164 294,159 288,143 266,122 267,114 307,90 336,96 338,93 367,99 360,104 365,118 372,114 365,108 370,100 404,120" id="10031" class="commune" fill="steelblue" stroke-width="1" stroke="white" geotype="commune" geoname="Barbuise" code_insee="10031" code_canton="1007"/><polygon points="247,344 245,370 235,374 244,388 242,405 194,397 179,399 176,390 184,374 197,364 193,361 203,355 205,355 217,348 247,344" id="10057" class="commune" fill="steelblue" stroke-width="1" stroke="white" geotype="commune" geoname="Bouy-sur-Orvin" code_insee="10057" code_canton="1007"/><polygon points="89,312 40,318 20,300 30,290 14,286 9,273 1,271 0,268 19,265 18,259 31,261 28,254 36,256 64,280 72,280 70,287 79,288 89,312" id="10106" class="commune" fill="steelblue" stroke-width="1" stroke="white" geotype="commune" geoname="Courceroy" code_insee="10106" code_canton="1007"/><polygon points="419,360 391,331 399,317 351,310 363,277 368,277 383,259 398,272 417,276 430,247 438,254 449,264 441,266 445,280 466,280 475,287 457,310 449,333 419,360" id="10148" class="commune" fill="steelblue" stroke-width="1" stroke="white" geotype="commune" geoname="Ferreux-Quincey" code_insee="10148" code_canton="1007"/><polygon points="175,293 177,292 189,290 187,284 207,278 267,271 302,309 296,308 291,326 272,335 250,336 247,344 217,348 205,355 182,340 189,333 175,293" id="10153" class="commune" fill="steelblue" stroke-width="1" stroke="white" geotype="commune" geoname="Fontaine-Mâcon" code_insee="10153" code_canton="1007"/><polygon points="121,349 111,326 118,324 113,307 148,296 159,298 152,287 175,293 189,333 182,340 205,355 203,355 171,349 121,349" id="10154" class="commune" fill="steelblue" stroke-width="1" stroke="white" geotype="commune" geoname="Fontenay-de-Bossery" code_insee="10154" code_canton="1007"/><polygon points="40,318 89,312 113,307 118,324 111,326 121,349 110,359 77,366 76,382 53,379 25,373 15,376 25,354 21,350 32,353 40,345 45,326 40,318" id="10169" class="commune" fill="steelblue" stroke-width="1" stroke="white" geotype="commune" geoname="Gumery" code_insee="10169" code_canton="1007"/><polygon points="70,403 83,410 143,427 165,468 121,472 123,480 101,487 83,500 72,474 55,462 59,439 70,403" id="10208" class="commune" fill="steelblue" stroke-width="1" stroke="white" geotype="commune" geoname="Louptière-Thénard" code_insee="10208" code_canton="1007"/><polygon points="282,217 282,190 274,182 288,184 301,180 302,183 318,175 323,170 346,170 353,165 365,176 362,187 371,189 369,219 343,217 295,239 282,217" id="10225" class="commune" fill="steelblue" stroke-width="1" stroke="white" geotype="commune" geoname="Marnay-sur-Seine" code_insee="10225" code_canton="1007"/><polygon points="41,176 58,166 75,165 81,170 105,176 125,171 128,175 147,218 176,229 174,235 141,246 142,259 137,266 112,239 106,247 96,248 98,235 76,202 41,176" id="10231" class="commune" fill="steelblue" stroke-width="1" stroke="white" geotype="commune" geoname="Mériot" code_insee="10231" code_canton="1007"/><polygon points="266,122 247,112 220,80 193,76 209,58 252,58 265,70 282,73 307,90 267,114 266,122" id="10254" class="commune" fill="steelblue" stroke-width="1" stroke="white" geotype="commune" geoname="Montpothier" code_insee="10254" code_canton="1007"/><polygon points="89,312 79,288 70,287 72,280 64,280 36,256 40,252 47,257 58,254 71,245 96,248 106,247 112,239 137,266 142,259 147,265 167,269 177,292 175,293 152,287 159,298 148,296 113,307 89,312" id="10259" class="commune" fill="steelblue" stroke-width="1" stroke="white" geotype="commune" geoname="Motte-Tilly" code_insee="10259" code_canton="1007"/><polygon points="267,271 207,278 187,284 189,290 177,292 167,269 147,265 142,259 141,246 174,235 176,229 186,224 191,211 212,204 226,188 239,187 264,174 272,175 274,182 282,190 282,217 265,226 276,248 268,249 261,260 267,271" id="10268" class="commune" fill="steelblue" stroke-width="1" stroke="white" geotype="commune" geoname="Nogent-sur-Seine" code_insee="10268" code_canton="1007"/><polygon points="496,160 487,172 479,167 464,177 454,175 440,170 452,167 455,160 449,149 452,137 445,134 442,112 426,88 441,80 457,77 472,93 476,99 467,110 478,137 474,145 488,156 497,152 496,160" id="10284" class="commune" fill="steelblue" stroke-width="1" stroke="white" geotype="commune" geoname="Périgny-la-Rose" code_insee="10284" code_canton="1007"/><polygon points="338,93 352,91 363,74 379,67 398,63 417,78 421,91 404,120 370,100 365,108 372,114 365,118 360,104 367,99 338,93" id="10291" class="commune" fill="steelblue" stroke-width="1" stroke="white" geotype="commune" geoname="Plessis-Barbuise" code_insee="10291" code_canton="1007"/><polygon points="383,259 371,244 380,232 369,219 371,189 362,187 365,176 353,165 363,163 378,172 403,165 421,162 440,170 454,175 443,178 453,181 439,207 444,216 435,221 430,223 442,238 446,242 453,237 457,240 438,254 430,247 417,276 398,272 383,259" id="10298" class="commune" fill="steelblue" stroke-width="1" stroke="white" geotype="commune" geoname="Pont-sur-Seine" code_insee="10298" code_canton="1007"/><polygon points="267,271 261,260 268,249 276,248 265,226 282,217 295,239 343,217 369,219 380,232 371,244 383,259 368,277 363,277 351,310 302,309 267,271" id="10334" class="commune" fill="steelblue" stroke-width="1" stroke="white" geotype="commune" geoname="Saint-Aubin" code_insee="10334" code_canton="1007"/><polygon points="176,229 147,218 128,175 143,171 175,151 186,150 211,155 239,187 226,188 212,204 191,211 186,224 176,229" id="10355" class="commune" fill="steelblue" stroke-width="1" stroke="white" geotype="commune" geoname="Saint-Nicolas-la-Chapelle" code_insee="10355" code_canton="1007"/><polygon points="155,95 162,90 193,76 220,80 247,112 266,122 288,143 294,159 312,164 318,175 302,183 301,180 288,184 274,182 272,175 264,174 239,187 211,155 186,150 182,143 195,143 195,140 191,134 177,131 172,106 167,107 155,95" id="10367" class="commune" fill="steelblue" stroke-width="1" stroke="white" geotype="commune" geoname="Saulsotte" code_insee="10367" code_canton="1007"/><polygon points="179,452 194,397 242,405 244,388 235,374 245,370 265,388 301,377 323,405 322,415 318,427 277,450 264,439 189,454 179,452" id="10370" class="commune" fill="steelblue" stroke-width="1" stroke="white" geotype="commune" geoname="Soligny-les-Étangs" code_insee="10370" code_canton="1007"/><polygon points="121,349 171,349 203,355 193,361 197,364 184,374 176,390 179,399 194,397 179,452 175,467 166,469 165,468 143,427 83,410 70,403 73,389 53,393 34,391 35,387 45,391 52,387 53,379 76,382 77,366 110,359 121,349" id="10382" class="commune" fill="steelblue" stroke-width="1" stroke="white" geotype="commune" geoname="Traînel" code_insee="10382" code_canton="1007"/><polygon points="307,90 282,73 265,70 252,58 227,30 288,19 299,8 333,8 328,0 337,4 344,18 339,35 374,30 379,67 363,74 352,91 338,93 336,96 307,90" id="10420" class="commune" fill="steelblue" stroke-width="1" stroke="white" geotype="commune" geoname="Villenauxe-la-Grande" code_insee="10420" code_canton="1007"/><polygon points="403,165 401,155 409,149 404,120 421,91 426,88 442,112 445,134 452,137 449,149 455,160 452,167 440,170 421,162 403,165" id="10421" class="commune" fill="steelblue" stroke-width="1" stroke="white" geotype="commune" geoname="Villeneuve-au-Châtelot" code_insee="10421" code_canton="1007"/></svg>