<?xml version="1.0" encoding="utf-8"?>
<svg version="1.1" id="svgmap" xmlns="http://www.w3.org/2000/svg" xmlns:xlink="http://www.w3.org/1999/xlink" x="0px" y="0px" width="100%" height="100%" viewBox="0 0 500 311">
<polygon points="251,86 254,77 233,54 280,47 299,58 314,93 302,101 279,105 251,86" id="11013" class="commune" fill="steelblue" stroke-width="1" stroke="white" geotype="commune" geoname="Argens-Minervois" code_insee="11013" code_canton="1108"/><polygon points="52,145 24,142 2,123 23,80 42,80 74,60 88,87 103,89 68,132 73,140 52,145" id="11077" class="commune" fill="steelblue" stroke-width="1" stroke="white" geotype="commune" geoname="Castelnau-d'Aude" code_insee="11077" code_canton="1108"/><polygon points="66,226 122,187 131,170 162,169 161,185 177,190 199,215 194,272 166,273 149,271 137,256 113,245 90,246 77,226 66,226" id="11098" class="commune" fill="steelblue" stroke-width="1" stroke="white" geotype="commune" geoname="Conilhac-Corbières" code_insee="11098" code_canton="1108"/><polygon points="450,172 465,187 463,192 448,191 423,200 422,213 376,220 371,212 363,214 364,222 352,223 342,210 318,214 364,145 402,152 450,172" id="11111" class="commune" fill="steelblue" stroke-width="1" stroke="white" geotype="commune" geoname="Cruscades" code_insee="11111" code_canton="1108"/><polygon points="162,169 131,170 52,145 73,140 68,132 103,89 131,89 171,104 176,120 176,150 162,169" id="11126" class="commune" fill="steelblue" stroke-width="1" stroke="white" geotype="commune" geoname="Escales" code_insee="11126" code_canton="1108"/><polygon points="134,42 126,26 129,8 141,0 205,30 168,41 134,42" id="11172" class="commune" fill="steelblue" stroke-width="1" stroke="white" geotype="commune" geoname="Homps" code_insee="11172" code_canton="1108"/><polygon points="314,93 365,98 339,133 364,145 318,214 283,220 287,227 272,228 272,239 249,255 255,272 286,288 273,286 260,295 211,281 189,290 166,273 194,272 199,215 177,190 161,185 162,169 176,150 176,120 191,125 194,113 230,105 238,90 251,86 279,105 302,101 314,93" id="11203" class="commune" fill="steelblue" stroke-width="1" stroke="white" geotype="commune" geoname="Lézignan-Corbières" code_insee="11203" code_canton="1108"/><polygon points="131,170 122,187 66,226 42,223 26,212 14,213 0,193 0,191 23,164 24,142 52,145 131,170" id="11241" class="commune" fill="steelblue" stroke-width="1" stroke="white" geotype="commune" geoname="Montbrun-des-Corbières" code_insee="11241" code_canton="1108"/><polygon points="500,208 487,228 500,236 451,249 434,276 447,292 437,296 437,310 418,311 394,289 426,257 392,257 392,239 378,235 376,220 422,213 423,200 448,191 463,192 500,208" id="11267" class="commune" fill="steelblue" stroke-width="1" stroke="white" geotype="commune" geoname="Ornaisons" code_insee="11267" code_canton="1108"/><polygon points="103,89 88,87 74,60 84,55 134,42 168,41 205,30 233,54 254,77 251,86 238,90 230,105 194,113 191,125 176,120 171,104 131,89 103,89" id="11393" class="commune" fill="steelblue" stroke-width="1" stroke="white" geotype="commune" geoname="Tourouzelle" code_insee="11393" code_canton="1108"/></svg>