<?xml version="1.0" encoding="utf-8"?>
<svg version="1.1" id="svgmap" xmlns="http://www.w3.org/2000/svg" xmlns:xlink="http://www.w3.org/1999/xlink" x="0px" y="0px" width="100%" height="100%" viewBox="0 0 500 228">
<polygon points="65,113 61,109 62,105 72,102 72,96 77,96 75,90 107,92 118,94 108,106 99,108 100,112 93,115 65,113" id="11003" class="commune" fill="steelblue" stroke-width="1" stroke="white" geotype="commune" geoname="Ajac" code_insee="11003" code_canton="1109"/><polygon points="202,181 197,175 198,170 213,155 209,144 203,138 231,129 248,130 260,142 287,144 288,147 278,155 278,161 269,159 262,164 265,168 260,173 277,176 277,184 272,187 266,187 262,194 239,194 240,192 231,192 227,207 219,206 215,192 202,181" id="11008" class="commune" fill="steelblue" stroke-width="1" stroke="white" geotype="commune" geoname="Alet-les-Bains" code_insee="11008" code_canton="1109"/><polygon points="367,111 397,113 398,116 394,125 386,128 387,137 369,136 355,149 350,142 336,138 323,139 314,133 309,115 314,105 327,107 341,104 367,111" id="11029" class="commune" fill="steelblue" stroke-width="1" stroke="white" geotype="commune" geoname="Belcastel-et-Buc" code_insee="11029" code_canton="1109"/><polygon points="61,109 65,113 56,131 43,131 36,139 44,148 20,131 16,127 21,124 13,116 11,110 29,110 40,106 45,109 61,109" id="11039" class="commune" fill="steelblue" stroke-width="1" stroke="white" geotype="commune" geoname="Bezole" code_insee="11039" code_canton="1109"/><polygon points="148,173 147,176 109,192 105,184 109,181 102,179 112,171 106,163 100,157 84,155 80,152 99,144 98,139 139,148 139,158 148,165 148,173" id="11045" class="commune" fill="steelblue" stroke-width="1" stroke="white" geotype="commune" geoname="Bouriège" code_insee="11045" code_canton="1109"/><polygon points="84,155 100,157 106,163 112,171 102,179 109,181 105,184 103,186 88,181 66,189 50,188 33,193 27,190 34,177 62,173 84,155" id="11046" class="commune" fill="steelblue" stroke-width="1" stroke="white" geotype="commune" geoname="Bourigeole" code_insee="11046" code_canton="1109"/><polygon points="65,113 93,115 100,112 113,126 114,128 106,129 98,139 99,144 80,152 74,148 48,150 44,148 36,139 43,131 56,131 65,113" id="11078" class="commune" fill="steelblue" stroke-width="1" stroke="white" geotype="commune" geoname="Castelreng" code_insee="11078" code_canton="1109"/><polygon points="476,133 453,130 433,133 419,121 398,116 397,113 397,112 427,118 454,115 468,120 481,119 476,133" id="11082" class="commune" fill="steelblue" stroke-width="1" stroke="white" geotype="commune" geoname="Caunette-sur-Lauquet" code_insee="11082" code_canton="1109"/><polygon points="200,12 211,8 231,9 229,22 237,27 239,32 224,40 217,37 197,43 191,25 200,12" id="11090" class="commune" fill="steelblue" stroke-width="1" stroke="white" geotype="commune" geoname="Cépie" code_insee="11090" code_canton="1109"/><polygon points="450,75 468,83 465,86 474,92 493,96 500,100 499,114 494,119 481,119 468,120 454,115 427,118 397,112 404,109 403,95 407,91 407,87 417,87 433,77 450,75" id="11094" class="commune" fill="steelblue" stroke-width="1" stroke="white" geotype="commune" geoname="Clermont-sur-Lauquet" code_insee="11094" code_canton="1109"/><polygon points="231,129 203,138 195,130 187,127 191,113 218,101 223,109 231,112 231,129" id="11105" class="commune" fill="steelblue" stroke-width="1" stroke="white" geotype="commune" geoname="Cournanel" code_insee="11105" code_canton="1109"/><polygon points="100,112 99,108 108,106 118,94 119,94 129,96 132,110 140,114 120,118 113,126 100,112" id="11119" class="commune" fill="steelblue" stroke-width="1" stroke="white" geotype="commune" geoname="Digne-d'Amont" code_insee="11119" code_canton="1109"/><polygon points="155,112 140,114 140,114 132,110 129,96 119,94 120,91 142,89 156,93 152,103 155,112" id="11120" class="commune" fill="steelblue" stroke-width="1" stroke="white" geotype="commune" geoname="Digne-d'Aval" code_insee="11120" code_canton="1109"/><polygon points="22,200 20,192 27,190 33,193 50,188 66,189 88,181 103,186 105,184 109,192 113,206 111,212 96,216 88,214 78,221 70,220 57,225 53,223 23,228 21,224 16,218 25,207 22,200" id="11142" class="commune" fill="steelblue" stroke-width="1" stroke="white" geotype="commune" geoname="Festes-et-Saint-André" code_insee="11142" code_canton="1109"/><polygon points="116,53 158,46 157,40 171,44 180,61 169,68 158,68 156,80 128,71 125,69 125,69 131,67 117,62 116,53" id="11158" class="commune" fill="steelblue" stroke-width="1" stroke="white" geotype="commune" geoname="Gaja-et-Villedieu" code_insee="11158" code_canton="1109"/><polygon points="265,76 271,61 266,54 288,57 298,55 310,57 310,65 304,70 306,76 303,79 286,77 275,71 271,78 265,76" id="11161" class="commune" fill="steelblue" stroke-width="1" stroke="white" geotype="commune" geoname="Gardie" code_insee="11161" code_canton="1109"/><polygon points="450,75 433,77 417,87 407,87 407,91 376,79 371,62 379,46 395,40 417,56 431,54 445,66 450,75" id="11169" class="commune" fill="steelblue" stroke-width="1" stroke="white" geotype="commune" geoname="Greffeil" code_insee="11169" code_canton="1109"/><polygon points="431,54 417,56 395,40 379,46 371,62 356,59 351,51 326,37 336,32 332,24 338,22 353,7 367,2 371,13 390,17 401,29 415,27 419,21 441,15 461,18 475,35 431,54" id="11183" class="commune" fill="steelblue" stroke-width="1" stroke="white" geotype="commune" geoname="Ladern-sur-Lauquet" code_insee="11183" code_canton="1109"/><polygon points="180,61 191,59 201,59 204,66 221,68 230,72 244,70 248,77 263,84 260,87 252,92 254,102 251,112 246,114 247,122 257,126 268,120 272,123 272,118 277,117 289,131 301,136 287,144 260,142 248,130 231,129 231,112 223,109 218,101 191,113 185,102 171,109 155,112 152,103 156,93 142,89 156,80 158,68 169,68 180,61" id="11206" class="commune" fill="steelblue" stroke-width="1" stroke="white" geotype="commune" geoname="Limoux" code_insee="11206" code_canton="1109"/><polygon points="43,73 53,70 75,72 80,79 90,83 104,80 110,85 105,88 107,92 75,90 63,89 63,84 49,83 53,82 42,78 43,73" id="11207" class="commune" fill="steelblue" stroke-width="1" stroke="white" geotype="commune" geoname="Loupia" code_insee="11207" code_canton="1109"/><polygon points="140,114 155,112 171,109 185,102 191,113 187,127 195,130 203,138 209,144 176,147 156,143 145,132 140,114" id="11211" class="commune" fill="steelblue" stroke-width="1" stroke="white" geotype="commune" geoname="Magrie" code_insee="11211" code_canton="1109"/><polygon points="118,94 107,92 105,88 110,85 104,80 128,71 156,80 142,89 120,91 119,94 118,94" id="11214" class="commune" fill="steelblue" stroke-width="1" stroke="white" geotype="commune" geoname="Malras" code_insee="11214" code_canton="1109"/><polygon points="101,45 116,53 117,62 131,67 125,69 125,69 128,71 104,80 90,83 80,79 75,72 82,61 113,66 110,62 104,64 103,60 97,60 100,56 90,54 91,46 101,45" id="11274" class="commune" fill="steelblue" stroke-width="1" stroke="white" geotype="commune" geoname="Pauligne" code_insee="11274" code_canton="1109"/><polygon points="266,54 271,61 265,76 263,84 248,77 244,70 230,72 221,68 204,66 201,59 191,59 200,47 197,43 217,37 224,40 239,32 262,49 266,54" id="11289" class="commune" fill="steelblue" stroke-width="1" stroke="white" geotype="commune" geoname="Pieusse" code_insee="11289" code_canton="1109"/><polygon points="301,9 304,15 281,41 262,49 239,32 237,27 229,22 231,9 241,12 248,12 260,17 286,13 293,8 301,9" id="11293" class="commune" fill="steelblue" stroke-width="1" stroke="white" geotype="commune" geoname="Pomas" code_insee="11293" code_canton="1109"/><polygon points="34,177 28,167 30,154 38,153 36,150 44,148 48,150 74,148 80,152 84,155 62,173 34,177" id="11338" class="commune" fill="steelblue" stroke-width="1" stroke="white" geotype="commune" geoname="Saint-Couat-du-Razès" code_insee="11338" code_canton="1109"/><polygon points="397,113 367,111 380,110 379,105 362,93 369,85 341,70 325,68 319,62 314,67 310,65 310,57 298,55 288,57 266,54 262,49 281,41 304,15 308,16 308,21 332,24 336,32 326,37 351,51 356,59 371,62 376,79 407,91 403,95 404,109 397,112 397,113" id="11344" class="commune" fill="steelblue" stroke-width="1" stroke="white" geotype="commune" geoname="Saint-Hilaire" code_insee="11344" code_canton="1109"/><polygon points="191,59 180,61 171,44 157,40 153,38 160,33 157,28 159,21 169,21 168,18 172,17 170,8 183,0 193,3 200,12 191,25 197,43 200,47 191,59" id="11355" class="commune" fill="steelblue" stroke-width="1" stroke="white" geotype="commune" geoname="Saint-Martin-de-Villereglan" code_insee="11355" code_canton="1109"/><polygon points="310,103 314,105 309,115 314,133 323,139 336,138 350,142 355,149 330,150 324,143 315,144 301,136 289,131 277,117 272,118 272,123 268,120 257,126 247,122 246,114 251,112 254,102 252,92 260,87 275,96 310,103" id="11364" class="commune" fill="steelblue" stroke-width="1" stroke="white" geotype="commune" geoname="Saint-Polycarpe" code_insee="11364" code_canton="1109"/><polygon points="156,143 139,148 98,139 106,129 114,128 113,126 120,118 140,114 140,114 145,132 156,143" id="11394" class="commune" fill="steelblue" stroke-width="1" stroke="white" geotype="commune" geoname="Tourreilles" code_insee="11394" code_canton="1109"/><polygon points="309,195 299,189 297,192 272,187 277,184 277,176 260,173 265,168 262,164 269,159 278,161 278,155 288,147 287,144 301,136 315,144 324,143 330,150 330,162 324,164 318,181 325,185 309,195" id="11406" class="commune" fill="steelblue" stroke-width="1" stroke="white" geotype="commune" geoname="Véraza" code_insee="11406" code_canton="1109"/><polygon points="453,130 445,157 430,169 406,164 405,153 386,144 387,137 386,128 394,125 398,116 419,121 433,133 453,130" id="11412" class="commune" fill="steelblue" stroke-width="1" stroke="white" geotype="commune" geoname="Villardebelle" code_insee="11412" code_canton="1109"/><polygon points="265,76 271,78 275,71 286,77 303,79 312,87 313,97 310,103 275,96 260,87 263,84 265,76" id="11415" class="commune" fill="steelblue" stroke-width="1" stroke="white" geotype="commune" geoname="Villar-Saint-Anselme" code_insee="11415" code_canton="1109"/><polygon points="314,105 310,103 313,97 312,87 303,79 306,76 304,70 310,65 314,67 319,62 325,68 341,70 369,85 362,93 379,105 380,110 367,111 341,104 327,107 314,105" id="11420" class="commune" fill="steelblue" stroke-width="1" stroke="white" geotype="commune" geoname="Villebazy" code_insee="11420" code_canton="1109"/><polygon points="75,90 77,96 72,96 72,102 62,105 61,109 45,109 40,106 29,110 11,110 0,103 13,87 14,79 20,77 10,65 14,56 21,53 34,62 33,72 43,73 42,78 53,82 49,83 63,84 63,89 75,90" id="11427" class="commune" fill="steelblue" stroke-width="1" stroke="white" geotype="commune" geoname="Villelongue-d'Aude" code_insee="11427" code_canton="1109"/></svg>