<?xml version="1.0" encoding="utf-8"?>
<svg version="1.1" id="svgmap" xmlns="http://www.w3.org/2000/svg" xmlns:xlink="http://www.w3.org/1999/xlink" x="0px" y="0px" width="100%" height="100%" viewBox="0 0 500 452">
<polygon points="352,254 338,289 343,295 339,296 338,310 343,316 337,328 332,327 327,334 325,327 259,323 264,306 252,305 253,302 244,298 250,285 268,287 308,290 306,271 291,240 305,241 304,235 314,231 331,239 352,254" id="11009" class="commune" fill="steelblue" stroke-width="1" stroke="white" geotype="commune" geoname="Alzonne" code_insee="11009" code_canton="1110"/><polygon points="405,359 404,372 389,385 378,384 374,396 363,399 355,427 358,438 343,437 345,434 336,430 340,429 334,423 314,419 318,414 309,395 318,372 323,371 331,357 331,344 340,338 366,343 377,345 382,350 405,359" id="11018" class="commune" fill="steelblue" stroke-width="1" stroke="white" geotype="commune" geoname="Arzens" code_insee="11018" code_canton="1110"/><polygon points="389,135 416,139 415,155 425,153 428,162 434,158 442,160 433,183 435,192 421,197 421,210 386,201 388,190 393,178 382,157 389,135" id="11052" class="commune" fill="steelblue" stroke-width="1" stroke="white" geotype="commune" geoname="Brousses-et-Villaret" code_insee="11052" code_canton="1110"/><polygon points="131,104 115,103 117,99 105,94 96,101 101,79 90,74 80,55 95,60 109,53 93,34 128,44 141,66 156,78 148,81 157,95 144,100 142,111 137,103 131,104" id="11054" class="commune" fill="steelblue" stroke-width="1" stroke="white" geotype="commune" geoname="Brunels" code_insee="11054" code_canton="1110"/><polygon points="222,202 227,199 236,206 237,214 250,224 255,235 249,235 229,251 219,245 219,238 206,229 212,225 222,202" id="11070" class="commune" fill="steelblue" stroke-width="1" stroke="white" geotype="commune" geoname="Carlipa" code_insee="11070" code_canton="1110"/><polygon points="404,372 405,359 410,325 401,316 405,313 420,319 427,317 440,322 439,326 436,332 460,341 454,352 441,354 437,358 444,372 422,373 404,372" id="11084" class="commune" fill="steelblue" stroke-width="1" stroke="white" geotype="commune" geoname="Caux-et-Sauzens" code_insee="11084" code_canton="1110"/><polygon points="255,235 250,224 237,214 236,206 227,199 222,202 205,190 209,186 204,183 215,174 226,174 249,179 250,196 266,201 265,212 277,217 278,222 255,235" id="11089" class="commune" fill="steelblue" stroke-width="1" stroke="white" geotype="commune" geoname="Cenne-Monestiés" code_insee="11089" code_canton="1110"/><polygon points="444,94 446,80 428,57 428,45 434,38 435,25 441,22 437,15 442,10 466,28 478,45 481,60 453,72 463,85 491,110 487,132 492,132 494,137 500,143 500,165 495,174 479,171 476,175 461,162 448,167 442,160 449,155 444,143 439,144 432,133 445,119 442,111 448,102 444,94" id="11115" class="commune" fill="steelblue" stroke-width="1" stroke="white" geotype="commune" geoname="Cuxac-Cabardès" code_insee="11115" code_canton="1110"/><polygon points="442,160 434,158 428,162 425,153 415,155 416,139 389,135 398,126 390,124 414,114 413,93 432,97 444,94 448,102 442,111 445,119 432,133 439,144 444,143 449,155 442,160" id="11150" class="commune" fill="steelblue" stroke-width="1" stroke="white" geotype="commune" geoname="Fontiers-Cabardès" code_insee="11150" code_canton="1110"/><polygon points="482,202 474,208 475,217 447,209 428,211 421,210 421,197 435,192 433,183 442,160 448,167 461,162 461,178 478,190 467,194 482,202" id="11156" class="commune" fill="steelblue" stroke-width="1" stroke="white" geotype="commune" geoname="Fraisse-Cabardès" code_insee="11156" code_canton="1110"/><polygon points="80,55 90,74 101,79 96,101 105,94 117,99 115,103 131,104 121,124 105,127 59,121 49,113 48,106 37,104 33,107 22,99 11,100 4,97 14,82 0,66 9,58 17,66 18,62 21,64 33,77 47,69 71,67 80,55" id="11181" class="commune" fill="steelblue" stroke-width="1" stroke="white" geotype="commune" geoname="Labécède-Lauragais" code_insee="11181" code_canton="1110"/><polygon points="403,30 405,42 419,57 428,45 428,57 446,80 444,94 432,97 413,93 414,114 390,124 367,114 385,95 381,84 390,80 388,72 379,65 378,42 388,42 403,30" id="11182" class="commune" fill="steelblue" stroke-width="1" stroke="white" geotype="commune" geoname="Lacombe" code_insee="11182" code_canton="1110"/><polygon points="428,45 419,57 405,42 403,30 407,26 411,18 428,11 431,0 437,1 442,10 437,15 441,22 435,25 434,38 428,45" id="11189" class="commune" fill="steelblue" stroke-width="1" stroke="white" geotype="commune" geoname="Laprade" code_insee="11189" code_canton="1110"/><polygon points="428,211 441,228 420,222 415,225 398,252 387,251 385,259 352,254 331,239 333,211 317,206 312,209 304,201 318,198 329,172 346,172 360,185 369,177 388,190 386,201 421,210 428,211" id="11253" class="commune" fill="steelblue" stroke-width="1" stroke="white" geotype="commune" geoname="Montolieu" code_insee="11253" code_canton="1110"/><polygon points="358,438 361,438 354,451 330,452 291,451 268,440 268,431 253,431 233,413 228,406 202,404 199,394 188,389 192,383 173,369 166,358 200,356 204,348 210,347 209,342 216,341 222,337 229,338 228,334 235,337 240,327 248,331 249,323 259,323 325,327 327,334 324,337 331,344 331,357 323,371 318,372 309,395 318,414 314,419 334,423 340,429 336,430 345,434 343,437 358,438" id="11254" class="commune" fill="steelblue" stroke-width="1" stroke="white" geotype="commune" geoname="Montréal" code_insee="11254" code_canton="1110"/><polygon points="352,254 385,259 387,251 398,252 415,225 420,222 441,228 450,237 453,252 453,264 440,275 444,285 429,286 407,276 396,293 357,293 343,295 338,289 352,254" id="11259" class="commune" fill="steelblue" stroke-width="1" stroke="white" geotype="commune" geoname="Moussoulens" code_insee="11259" code_canton="1110"/><polygon points="357,293 396,293 407,276 429,286 444,285 447,290 430,299 438,301 452,293 451,295 462,301 464,309 457,318 447,326 439,326 440,322 427,317 420,319 405,313 401,316 384,315 362,307 364,300 357,297 357,293" id="11288" class="commune" fill="steelblue" stroke-width="1" stroke="white" geotype="commune" geoname="Pezens" code_insee="11288" code_canton="1110"/><polygon points="291,240 306,271 308,290 268,287 281,241 291,240" id="11308" class="commune" fill="steelblue" stroke-width="1" stroke="white" geotype="commune" geoname="Raissac-sur-Lampy" code_insee="11308" code_canton="1110"/><polygon points="367,114 390,124 398,126 389,135 382,157 393,178 388,190 369,177 360,185 346,172 351,167 346,159 355,151 356,139 364,134 367,114" id="11339" class="commune" fill="steelblue" stroke-width="1" stroke="white" geotype="commune" geoname="Saint-Denis" code_insee="11339" code_canton="1110"/><polygon points="357,293 357,297 364,300 362,307 384,315 378,317 370,326 366,343 340,338 331,344 324,337 327,334 332,327 337,328 343,316 338,310 339,296 343,295 357,293" id="11340" class="commune" fill="steelblue" stroke-width="1" stroke="white" geotype="commune" geoname="Sainte-Eulalie" code_insee="11340" code_canton="1110"/><polygon points="229,251 249,235 255,235 278,222 294,224 298,212 312,213 318,210 312,209 317,206 333,211 331,239 314,231 304,235 305,241 291,240 281,241 268,287 250,285 239,278 236,256 229,251" id="11357" class="commune" fill="steelblue" stroke-width="1" stroke="white" geotype="commune" geoname="Saint-Martin-le-Vieil" code_insee="11357" code_canton="1110"/><polygon points="211,97 214,94 218,90 239,90 247,84 258,82 258,78 272,74 282,65 301,64 324,96 367,114 364,134 356,139 355,151 346,159 351,167 346,172 329,172 318,198 304,201 312,209 318,210 312,213 298,212 294,224 278,222 277,217 265,212 266,201 250,196 249,179 226,174 231,156 235,158 237,154 240,133 221,118 211,97" id="11367" class="commune" fill="steelblue" stroke-width="1" stroke="white" geotype="commune" geoname="Saissac" code_insee="11367" code_canton="1110"/><polygon points="201,179 197,183 181,184 175,172 164,168 159,170 148,167 133,156 121,124 131,104 137,103 142,111 144,100 157,95 167,95 176,90 185,98 184,125 198,122 212,126 203,147 194,154 201,179" id="11407" class="commune" fill="steelblue" stroke-width="1" stroke="white" geotype="commune" geoname="Verdun-en-Lauragais" code_insee="11407" code_canton="1110"/><polygon points="204,183 201,179 194,154 203,147 212,126 198,122 184,125 185,98 192,94 211,97 221,118 240,133 237,154 235,158 231,156 226,174 215,174 204,183" id="11428" class="commune" fill="steelblue" stroke-width="1" stroke="white" geotype="commune" geoname="Villemagne" code_insee="11428" code_canton="1110"/><polygon points="233,413 234,421 214,427 205,425 209,419 202,404 228,406 233,413" id="11432" class="commune" fill="steelblue" stroke-width="1" stroke="white" geotype="commune" geoname="Villeneuve-lès-Montréal" code_insee="11432" code_canton="1110"/><polygon points="405,359 382,350 377,345 366,343 370,326 378,317 384,315 401,316 410,325 405,359" id="11437" class="commune" fill="steelblue" stroke-width="1" stroke="white" geotype="commune" geoname="Villesèquelande" code_insee="11437" code_canton="1110"/><polygon points="201,179 204,183 209,186 205,190 222,202 212,225 206,229 198,225 190,230 189,218 167,204 181,184 197,183 201,179" id="11439" class="commune" fill="steelblue" stroke-width="1" stroke="white" geotype="commune" geoname="Villespy" code_insee="11439" code_canton="1110"/></svg>