<?xml version="1.0" encoding="utf-8"?>
<svg version="1.1" id="svgmap" xmlns="http://www.w3.org/2000/svg" xmlns:xlink="http://www.w3.org/1999/xlink" x="0px" y="0px" width="100%" height="100%" viewBox="0 0 500 248">
<polygon points="14,102 0,94 12,85 7,82 23,70 32,72 51,54 79,58 102,34 152,34 188,157 126,160 130,147 109,128 82,117 70,124 41,113 46,104 14,102" id="11024" class="commune" fill="steelblue" stroke-width="1" stroke="white" geotype="commune" geoname="Bages" code_insee="11024" code_canton="1112"/><polygon points="500,45 450,100 458,108 453,104 446,108 460,109 437,115 352,230 338,231 330,224 298,248 288,238 257,232 235,217 210,194 229,159 230,113 259,105 276,84 333,58 408,5 429,0 445,20 500,45" id="11170" class="commune" fill="steelblue" stroke-width="1" stroke="white" geotype="commune" geoname="Gruissan" code_insee="11170" code_canton="1112"/></svg>