<?xml version="1.0" encoding="utf-8"?>
<svg version="1.1" id="svgmap" xmlns="http://www.w3.org/2000/svg" xmlns:xlink="http://www.w3.org/1999/xlink" x="0px" y="0px" width="100%" height="100%" viewBox="0 0 489 500">
<polygon points="20,322 0,296 29,293 73,305 71,291 83,282 122,303 127,294 144,303 156,294 177,309 183,342 214,372 186,373 177,368 171,383 176,389 138,398 97,385 98,375 88,374 66,337 20,322" id="11011" class="commune" fill="steelblue" stroke-width="1" stroke="white" geotype="commune" geoname="Aragon" code_insee="11011" code_canton="1119"/><polygon points="101,182 99,174 91,174 97,140 54,102 76,98 88,108 90,97 112,94 122,115 140,140 140,157 129,171 129,176 101,182" id="11079" class="commune" fill="steelblue" stroke-width="1" stroke="white" geotype="commune" geoname="Caudebronde" code_insee="11079" code_canton="1119"/><polygon points="177,309 216,323 262,336 303,328 332,347 315,331 349,328 383,363 370,384 377,397 384,397 387,410 380,415 348,419 339,426 328,422 323,445 310,441 289,418 243,408 243,392 224,388 214,372 183,342 177,309" id="11099" class="commune" fill="steelblue" stroke-width="1" stroke="white" geotype="commune" geoname="Conques-sur-Orbiel" code_insee="11099" code_canton="1119"/><polygon points="414,163 430,194 408,198 398,207 403,218 367,219 330,245 310,247 294,258 288,245 276,245 275,239 310,176 318,182 344,180 356,168 372,172 414,163" id="11154" class="commune" fill="steelblue" stroke-width="1" stroke="white" geotype="commune" geoname="Fournes-Cabardès" code_insee="11154" code_canton="1119"/><polygon points="288,176 299,182 310,176 275,239 273,240 274,230 242,206 224,208 219,203 237,191 258,193 288,176" id="11174" class="commune" fill="steelblue" stroke-width="1" stroke="white" geotype="commune" geoname="Ilhes" code_insee="11174" code_canton="1119"/><polygon points="310,176 299,182 288,176 307,161 331,161 307,152 305,140 286,130 293,126 283,123 277,105 267,70 271,55 284,57 291,65 312,63 320,70 343,63 343,76 359,90 354,116 425,154 414,163 372,172 356,168 344,180 318,182 310,176" id="11180" class="commune" fill="steelblue" stroke-width="1" stroke="white" geotype="commune" geoname="Labastide-Esparbairenque" code_insee="11180" code_canton="1119"/><polygon points="273,240 275,239 276,245 288,245 294,258 285,260 288,273 312,302 285,305 276,288 249,264 258,254 272,252 273,240" id="11194" class="commune" fill="steelblue" stroke-width="1" stroke="white" geotype="commune" geoname="Lastours" code_insee="11194" code_canton="1119"/><polygon points="417,429 424,429 426,422 484,432 488,458 483,469 470,471 459,465 456,473 444,476 417,451 408,454 399,442 417,429" id="11215" class="commune" fill="steelblue" stroke-width="1" stroke="white" geotype="commune" geoname="Malves-en-Minervois" code_insee="11215" code_canton="1119"/><polygon points="59,14 68,7 99,3 115,0 126,13 172,21 195,34 210,33 190,78 165,75 152,85 159,114 122,115 112,94 90,97 88,108 76,98 54,102 39,82 81,63 77,40 59,14" id="11221" class="commune" fill="steelblue" stroke-width="1" stroke="white" geotype="commune" geoname="Martys" code_insee="11221" code_canton="1119"/><polygon points="288,176 258,193 237,191 230,183 229,132 221,119 194,104 207,96 190,78 210,33 253,54 239,87 230,91 228,109 255,126 253,162 264,173 288,176" id="11222" class="commune" fill="steelblue" stroke-width="1" stroke="white" geotype="commune" geoname="Mas-Cabardès" code_insee="11222" code_canton="1119"/><polygon points="237,191 219,203 174,199 177,207 171,209 144,205 129,176 129,171 149,176 145,182 159,187 167,182 159,172 185,174 176,166 183,163 203,166 191,161 184,136 159,114 152,85 165,75 190,78 207,96 194,104 221,119 229,132 230,183 237,191" id="11232" class="commune" fill="steelblue" stroke-width="1" stroke="white" geotype="commune" geoname="Miraval-Cabardes" code_insee="11232" code_canton="1119"/><polygon points="97,385 138,398 176,389 182,398 175,417 191,424 193,452 183,481 191,491 177,494 160,483 152,490 141,478 131,491 134,500 121,499 44,461 55,447 60,448 63,434 78,434 74,439 93,442 97,385" id="11279" class="commune" fill="steelblue" stroke-width="1" stroke="white" geotype="commune" geoname="Pennautier" code_insee="11279" code_canton="1119"/><polygon points="483,115 454,114 425,154 354,116 359,90 343,76 343,63 334,51 373,43 392,26 446,35 470,26 484,27 489,45 474,56 481,72 461,96 483,115" id="11297" class="commune" fill="steelblue" stroke-width="1" stroke="white" geotype="commune" geoname="Pradelles-Cabardès" code_insee="11297" code_canton="1119"/><polygon points="253,54 271,55 267,70 277,105 283,123 293,126 286,130 305,140 307,152 331,161 307,161 288,176 264,173 253,162 255,126 228,109 230,91 239,87 253,54" id="11319" class="commune" fill="steelblue" stroke-width="1" stroke="white" geotype="commune" geoname="Roquefère" code_insee="11319" code_canton="1119"/><polygon points="249,264 276,288 285,305 283,310 303,328 262,336 216,323 203,293 172,274 183,257 172,223 208,233 249,264" id="11372" class="commune" fill="steelblue" stroke-width="1" stroke="white" geotype="commune" geoname="Salsigne" code_insee="11372" code_canton="1119"/><polygon points="129,171 140,157 140,140 122,115 159,114 184,136 191,161 203,166 183,163 176,166 185,174 159,172 167,182 159,187 145,182 149,176 129,171" id="11391" class="commune" fill="steelblue" stroke-width="1" stroke="white" geotype="commune" geoname="Tourette-Cabardès" code_insee="11391" code_canton="1119"/><polygon points="20,322 66,337 88,374 98,375 97,385 93,442 74,439 78,434 63,434 60,448 55,447 53,434 35,425 37,421 16,434 3,431 29,418 25,409 19,394 39,377 39,358 33,335 20,322" id="11404" class="commune" fill="steelblue" stroke-width="1" stroke="white" geotype="commune" geoname="Ventenac-Cabardès" code_insee="11404" code_canton="1119"/><polygon points="408,454 395,479 388,471 352,472 336,466 325,465 323,445 328,422 339,426 348,419 380,415 416,412 417,429 399,442 408,454" id="11410" class="commune" fill="steelblue" stroke-width="1" stroke="white" geotype="commune" geoname="Villalier" code_insee="11410" code_canton="1119"/><polygon points="101,182 129,176 144,205 171,209 177,207 174,199 219,203 224,208 242,206 274,230 273,240 272,252 258,254 249,264 208,233 172,223 139,204 128,189 101,182" id="11411" class="commune" fill="steelblue" stroke-width="1" stroke="white" geotype="commune" geoname="Villanière" code_insee="11411" code_canton="1119"/><polygon points="216,323 177,309 156,294 144,303 127,294 122,303 83,282 60,270 77,264 51,245 50,221 74,240 79,235 103,239 111,226 111,191 101,182 128,189 139,204 172,223 183,257 172,274 203,293 216,323" id="11413" class="commune" fill="steelblue" stroke-width="1" stroke="white" geotype="commune" geoname="Villardonnel" code_insee="11413" code_canton="1119"/><polygon points="243,408 248,422 207,419 191,424 175,417 182,398 176,389 171,383 177,368 186,373 214,372 224,388 243,392 243,408" id="11425" class="commune" fill="steelblue" stroke-width="1" stroke="white" geotype="commune" geoname="Villegailhenc" code_insee="11425" code_canton="1119"/><polygon points="243,408 289,418 310,441 323,445 325,465 336,466 340,477 322,475 315,466 300,469 293,463 286,470 269,471 259,466 260,471 240,473 232,485 191,491 183,481 193,452 191,424 207,419 248,422 243,408" id="11429" class="commune" fill="steelblue" stroke-width="1" stroke="white" geotype="commune" geoname="Villemoustaussou" code_insee="11429" code_canton="1119"/></svg>