<?xml version="1.0" encoding="utf-8"?>
<svg version="1.1" id="svgmap" xmlns="http://www.w3.org/2000/svg" xmlns:xlink="http://www.w3.org/1999/xlink" x="0px" y="0px" width="100%" height="100%" viewBox="0 0 500 223">
<polygon points="184,118 168,122 157,120 147,107 141,105 136,108 121,101 140,89 134,87 139,84 132,83 137,81 134,75 120,65 128,62 150,64 162,59 170,65 204,66 213,76 210,80 227,87 241,98 243,105 255,109 244,114 239,111 214,109 208,103 199,106 194,103 185,111 184,118" id="12004" class="commune" fill="steelblue" stroke-width="1" stroke="white" geotype="commune" geoname="Almont-les-Junies" code_insee="12004" code_canton="1207"/><polygon points="36,133 33,129 32,122 43,97 70,109 60,119 63,130 59,132 50,130 36,133" id="12028" class="commune" fill="steelblue" stroke-width="1" stroke="white" geotype="commune" geoname="Boisse-Penchot" code_insee="12028" code_canton="1207"/><polygon points="301,125 296,112 291,116 285,106 277,109 275,107 270,101 274,99 274,90 265,87 269,79 264,77 266,73 254,68 253,64 259,67 271,62 272,67 283,74 298,73 304,69 316,63 331,63 344,54 350,54 350,62 367,74 365,81 375,82 369,92 378,99 375,106 364,103 335,115 337,124 364,144 358,148 342,143 333,147 326,145 312,134 303,135 306,126 301,125" id="12076" class="commune" fill="steelblue" stroke-width="1" stroke="white" geotype="commune" geoname="Conques" code_insee="12076" code_canton="1207"/><polygon points="145,136 150,136 153,141 141,138 135,146 141,153 132,159 133,162 125,165 109,163 95,149 89,148 86,151 78,135 69,134 63,130 60,119 70,109 79,113 87,111 98,104 99,99 106,104 104,124 114,124 109,114 123,123 122,130 135,136 145,136" id="12089" class="commune" fill="steelblue" stroke-width="1" stroke="white" geotype="commune" geoname="Decazeville" code_insee="12089" code_canton="1207"/><polygon points="157,120 152,117 148,122 152,125 145,136 135,136 122,130 123,123 109,114 114,124 104,124 106,104 99,99 92,93 78,90 78,79 100,76 110,74 120,65 134,75 137,81 132,83 139,84 134,87 140,89 121,101 136,108 141,105 147,107 157,120" id="12101" class="commune" fill="steelblue" stroke-width="1" stroke="white" geotype="commune" geoname="Flagnac" code_insee="12101" code_canton="1207"/><polygon points="255,109 243,105 241,98 227,87 210,80 213,76 204,66 211,55 203,52 204,49 199,52 190,46 202,32 191,16 206,7 207,7 213,18 208,27 225,34 227,37 251,37 269,24 279,26 280,34 292,30 301,29 304,38 295,39 302,46 299,64 304,69 298,73 283,74 272,67 271,62 259,67 253,64 254,68 266,73 264,77 269,79 265,87 274,90 274,99 270,101 275,107 263,118 255,109" id="12114" class="commune" fill="steelblue" stroke-width="1" stroke="white" geotype="commune" geoname="Grand-Vabre" code_insee="12114" code_canton="1207"/><polygon points="99,99 98,104 87,111 79,113 70,109 43,97 32,122 9,116 8,122 0,118 7,112 4,109 14,111 15,103 16,108 27,110 27,104 37,96 27,92 28,89 33,86 43,88 49,84 43,70 61,62 78,79 78,90 92,93 99,99" id="12130" class="commune" fill="steelblue" stroke-width="1" stroke="white" geotype="commune" geoname="Livinhac-le-Haut" code_insee="12130" code_canton="1207"/><polygon points="184,118 185,111 194,103 199,106 208,103 214,109 239,111 244,114 255,109 263,118 275,107 277,109 285,106 291,116 296,112 301,125 285,128 278,124 271,129 279,136 285,136 288,145 280,143 278,149 263,146 267,151 256,153 257,158 245,158 246,148 241,151 229,148 229,130 220,134 216,126 201,127 184,118" id="12173" class="commune" fill="steelblue" stroke-width="1" stroke="white" geotype="commune" geoname="Noailhac" code_insee="12173" code_canton="1207"/><polygon points="377,152 358,174 330,170 321,174 308,167 306,171 302,171 307,178 298,187 298,194 291,192 286,197 293,210 290,212 286,212 279,223 264,216 261,217 254,202 239,188 245,168 254,164 245,158 257,158 256,153 267,151 263,146 278,149 280,143 288,145 285,136 279,136 271,129 278,124 285,128 301,125 306,126 303,135 312,134 326,145 333,147 342,143 358,148 373,153 377,152" id="12218" class="commune" fill="steelblue" stroke-width="1" stroke="white" geotype="commune" geoname="Saint-Cyprien-sur-Dourdou" code_insee="12218" code_canton="1207"/><polygon points="468,118 464,124 475,131 477,135 489,139 495,146 492,149 500,153 482,154 477,161 463,166 458,164 459,160 452,159 420,159 412,154 404,154 404,151 397,155 381,151 383,145 400,144 408,138 411,120 422,122 426,119 434,104 445,109 451,108 458,96 462,99 456,107 461,116 468,118" id="12221" class="commune" fill="steelblue" stroke-width="1" stroke="white" geotype="commune" geoname="Saint-Félix-de-Lunel" code_insee="12221" code_canton="1207"/><polygon points="204,66 170,65 162,59 150,64 128,62 120,65 110,74 100,76 100,63 94,63 94,60 95,55 104,54 100,52 99,44 107,38 108,31 118,31 125,45 128,45 137,32 147,32 150,28 166,31 174,21 191,16 202,32 190,46 199,52 204,49 203,52 211,55 204,66" id="12240" class="commune" fill="steelblue" stroke-width="1" stroke="white" geotype="commune" geoname="Saint-Parthem" code_insee="12240" code_canton="1207"/><polygon points="100,76 78,79 61,62 50,50 51,42 45,34 55,25 71,18 101,23 117,13 126,12 131,12 145,4 158,4 172,10 196,1 199,0 206,7 191,16 174,21 166,31 150,28 147,32 137,32 128,45 125,45 118,31 108,31 107,38 99,44 100,52 104,54 95,55 94,60 94,63 100,63 100,76" id="12246" class="commune" fill="steelblue" stroke-width="1" stroke="white" geotype="commune" geoname="Saint-Santin" code_insee="12246" code_canton="1207"/><polygon points="358,148 364,144 337,124 335,115 364,103 375,106 378,99 369,92 375,82 365,81 367,74 350,62 350,54 344,54 331,63 316,63 304,69 299,64 302,46 295,39 304,38 301,29 315,35 330,34 339,41 357,28 383,35 405,37 409,51 428,59 428,63 434,66 431,69 436,74 428,79 423,91 434,95 434,104 426,119 422,122 411,120 408,138 400,144 383,145 381,151 377,152 373,153 358,148" id="12268" class="commune" fill="steelblue" stroke-width="1" stroke="white" geotype="commune" geoname="Sénergues" code_insee="12268" code_canton="1207"/><polygon points="36,169 47,161 41,148 46,143 36,133 50,130 59,132 63,130 69,134 78,135 86,151 82,160 67,164 58,160 54,162 49,173 36,169" id="12305" class="commune" fill="steelblue" stroke-width="1" stroke="white" geotype="commune" geoname="Viviez" code_insee="12305" code_canton="1207"/></svg>