<?xml version="1.0" encoding="utf-8"?>
<svg version="1.1" id="svgmap" xmlns="http://www.w3.org/2000/svg" xmlns:xlink="http://www.w3.org/1999/xlink" x="0px" y="0px" width="100%" height="100%" viewBox="0 0 500 301">
<polygon points="174,136 194,129 200,140 204,129 223,135 228,144 239,141 229,134 236,125 251,125 271,111 278,113 287,130 279,137 291,136 293,146 310,152 316,162 300,164 291,169 273,165 259,174 264,183 278,181 282,205 304,207 323,183 337,200 349,199 327,177 300,174 302,166 337,166 342,159 348,163 356,158 370,175 398,181 403,174 398,158 409,151 409,138 360,143 372,130 406,131 422,116 454,126 448,136 455,140 476,137 471,129 500,118 500,131 452,202 430,187 406,197 411,207 405,218 417,229 419,251 405,253 409,243 399,225 380,251 376,261 349,275 323,278 318,301 303,297 306,286 299,283 281,295 272,291 259,268 253,274 237,268 227,278 209,270 203,278 191,275 183,287 178,277 156,281 152,273 166,264 161,240 162,231 177,229 180,216 202,216 206,210 206,201 175,186 182,166 204,153 184,151 177,162 162,154 174,136" id="12102" class="commune" fill="steelblue" stroke-width="1" stroke="white" geotype="commune" geoname="Flavin" code_insee="12102" code_canton="1214"/><polygon points="161,240 152,231 147,240 124,235 136,217 116,215 120,211 111,201 95,206 96,211 81,206 79,215 35,196 30,199 14,185 28,179 21,171 6,170 7,159 0,159 17,142 34,137 10,120 0,102 31,87 46,96 66,89 82,105 95,107 106,123 133,113 142,120 145,109 152,121 161,119 162,135 174,136 162,154 177,162 184,151 204,153 182,166 175,186 206,201 206,210 202,216 180,216 177,229 162,231 161,240" id="12133" class="commune" fill="steelblue" stroke-width="1" stroke="white" geotype="commune" geoname="Luc-la-Primaube" code_insee="12133" code_canton="1214"/><polygon points="194,129 174,136 162,135 161,119 152,121 145,109 142,120 133,113 106,123 95,107 82,105 66,89 62,76 75,57 66,38 80,38 78,29 88,25 106,28 109,38 131,38 148,59 161,61 164,73 176,76 189,95 185,111 193,110 203,126 194,129" id="12174" class="commune" fill="steelblue" stroke-width="1" stroke="white" geotype="commune" geoname="Olemps" code_insee="12174" code_canton="1214"/><polygon points="368,59 390,62 393,72 403,70 429,106 417,105 422,116 406,131 372,130 360,143 409,138 409,151 398,158 403,174 398,181 370,175 356,158 348,163 342,159 337,166 302,166 300,174 327,177 349,199 337,200 323,183 304,207 282,205 278,181 264,183 259,174 273,165 291,169 300,164 316,162 310,152 293,146 291,136 279,137 287,130 278,113 277,108 258,110 251,95 237,92 245,63 267,65 254,36 275,40 302,24 310,27 319,10 336,0 356,0 364,9 368,23 356,32 365,36 358,52 368,59" id="12241" class="commune" fill="steelblue" stroke-width="1" stroke="white" geotype="commune" geoname="Sainte-Radegonde" code_insee="12241" code_canton="1214"/></svg>