<?xml version="1.0" encoding="utf-8"?>
<svg version="1.1" id="svgmap" xmlns="http://www.w3.org/2000/svg" xmlns:xlink="http://www.w3.org/1999/xlink" x="0px" y="0px" width="100%" height="100%" viewBox="0 0 500 448">
<polygon points="225,259 234,263 232,274 242,273 240,286 271,308 285,316 274,321 267,333 224,340 194,355 168,330 158,309 163,295 176,291 191,275 184,272 194,266 189,255 215,265 218,255 225,259" id="12020" class="commune" fill="steelblue" stroke-width="1" stroke="white" geotype="commune" geoname="Balsac" code_insee="12020" code_canton="1221"/><polygon points="189,255 194,266 184,272 191,275 176,291 163,295 158,309 168,330 147,333 137,350 122,345 123,370 110,387 98,375 88,377 83,360 102,333 93,326 107,313 101,307 79,312 66,304 43,272 74,259 88,262 89,251 105,255 111,245 116,247 112,252 119,252 119,238 134,237 137,228 142,227 140,236 160,239 167,246 176,243 189,255" id="12066" class="commune" fill="steelblue" stroke-width="1" stroke="white" geotype="commune" geoname="Clairvaux-d'Aveyron" code_insee="12066" code_canton="1221"/><polygon points="168,330 194,355 224,340 267,333 247,351 249,368 261,364 263,369 271,369 270,364 281,359 298,374 314,367 314,373 322,374 316,370 321,359 328,364 339,361 342,353 352,355 360,345 375,354 370,371 383,387 368,385 360,388 362,395 350,395 357,411 347,427 350,438 333,443 321,436 295,448 266,440 262,432 226,426 232,411 223,398 217,398 215,410 192,403 183,383 175,390 164,387 158,398 123,370 122,345 137,350 147,333 168,330" id="12090" class="commune" fill="steelblue" stroke-width="1" stroke="white" geotype="commune" geoname="Druelle" code_insee="12090" code_canton="1221"/><polygon points="176,173 156,150 167,146 200,128 229,128 241,115 257,123 281,118 279,142 285,143 287,153 282,155 295,158 293,168 267,190 244,188 231,192 228,187 209,188 215,185 208,182 215,180 203,182 198,173 176,173" id="12138" class="commune" fill="steelblue" stroke-width="1" stroke="white" geotype="commune" geoname="Marcillac-Vallon" code_insee="12138" code_canton="1221"/><polygon points="438,66 450,69 421,95 395,90 395,100 388,104 391,114 366,109 358,118 376,124 349,126 314,137 287,153 285,143 279,142 281,118 257,123 241,115 227,97 234,85 231,80 242,82 235,77 239,73 245,72 252,83 262,77 286,81 300,68 307,76 322,78 327,66 345,52 343,44 354,33 355,21 362,24 383,15 391,6 418,4 430,21 423,46 438,66" id="12161" class="commune" fill="steelblue" stroke-width="1" stroke="white" geotype="commune" geoname="Mouret" code_insee="12161" code_canton="1221"/><polygon points="391,114 388,104 395,100 395,90 421,95 450,69 438,66 457,64 463,72 476,70 487,75 500,69 498,81 486,86 494,87 491,95 485,94 474,105 471,123 471,136 486,148 482,154 488,173 459,172 453,161 444,165 442,159 427,153 413,155 408,144 414,128 406,129 404,123 396,127 399,113 391,114" id="12165" class="commune" fill="steelblue" stroke-width="1" stroke="white" geotype="commune" geoname="Muret-le-Château" code_insee="12165" code_canton="1221"/><polygon points="167,146 163,130 142,129 146,119 115,108 96,93 101,91 90,70 98,63 108,66 108,56 123,43 114,31 121,30 123,24 143,36 157,29 201,36 221,42 227,70 239,73 235,77 242,82 231,80 234,85 227,97 241,115 229,128 200,128 167,146" id="12171" class="commune" fill="steelblue" stroke-width="1" stroke="white" geotype="commune" geoname="Nauviale" code_insee="12171" code_canton="1221"/><polygon points="201,36 230,1 235,1 261,6 272,0 270,4 284,4 296,12 345,12 355,14 355,21 354,33 343,44 345,52 327,66 322,78 307,76 300,68 286,81 262,77 252,83 245,72 239,73 227,70 221,42 201,36" id="12193" class="commune" fill="steelblue" stroke-width="1" stroke="white" geotype="commune" geoname="Pruines" code_insee="12193" code_canton="1221"/><polygon points="4,118 0,107 7,96 21,113 37,117 41,113 34,106 52,102 57,100 79,111 90,94 96,93 115,108 146,119 142,129 163,130 167,146 156,150 176,173 175,177 142,169 139,177 150,187 147,199 128,200 136,208 128,210 92,198 93,202 84,201 63,182 45,187 62,175 65,159 4,118" id="12215" class="commune" fill="steelblue" stroke-width="1" stroke="white" geotype="commune" geoname="Saint-Christophe-Vallon" code_insee="12215" code_canton="1221"/><polygon points="391,114 399,113 396,127 404,123 406,129 414,128 408,144 413,155 427,153 442,159 444,165 453,161 459,172 488,173 499,190 479,234 464,223 461,243 442,232 433,235 437,251 410,249 404,259 411,260 413,269 435,272 427,277 428,290 399,304 397,320 382,311 347,313 347,317 331,311 314,313 311,302 305,301 304,306 289,299 271,308 240,286 242,273 232,274 234,263 225,259 236,243 230,224 238,225 246,207 231,198 231,192 244,188 267,190 293,168 295,158 282,155 287,153 314,137 349,126 376,124 358,118 366,109 391,114" id="12254" class="commune" fill="steelblue" stroke-width="1" stroke="white" geotype="commune" geoname="Salles-la-Source" code_insee="12254" code_canton="1221"/><polygon points="137,228 128,210 136,208 128,200 147,199 150,187 139,177 142,169 175,177 176,173 198,173 203,182 215,180 208,182 215,185 209,188 228,187 231,192 231,198 246,207 238,225 230,224 236,243 225,259 218,255 215,265 189,255 176,243 167,246 160,239 140,236 142,227 137,228" id="12288" class="commune" fill="steelblue" stroke-width="1" stroke="white" geotype="commune" geoname="Valady" code_insee="12288" code_canton="1221"/></svg>