<?xml version="1.0" encoding="utf-8"?>
<svg version="1.1" id="svgmap" xmlns="http://www.w3.org/2000/svg" xmlns:xlink="http://www.w3.org/1999/xlink" x="0px" y="0px" width="100%" height="100%" viewBox="0 0 500 222">
<polygon points="325,32 351,21 375,0 388,2 400,15 399,34 425,47 436,49 486,90 467,111 447,108 436,112 406,105 401,109 381,105 367,108 342,96 341,85 331,77 338,44 325,32" id="13041" class="commune" fill="steelblue" stroke-width="1" stroke="white" geotype="commune" geoname="Gardanne" code_insee="13041" code_canton="1309"/><polygon points="395,191 387,179 393,144 372,127 367,108 381,105 401,109 406,105 436,112 447,108 467,111 486,90 489,112 500,120 493,133 484,133 467,150 456,152 458,160 445,172 440,186 395,191" id="13062" class="commune" fill="steelblue" stroke-width="1" stroke="white" geotype="commune" geoname="Mimet" code_insee="13062" code_canton="1309"/><polygon points="84,106 112,112 146,128 166,123 176,133 187,127 202,127 210,137 180,148 152,148 148,158 139,158 157,196 167,211 135,206 124,216 114,215 102,222 96,206 81,197 72,199 70,190 59,184 51,191 25,200 20,185 11,180 0,162 14,154 18,129 51,126 55,109 63,103 84,106" id="13071" class="commune" fill="steelblue" stroke-width="1" stroke="white" geotype="commune" geoname="Pennes-Mirabeau" code_insee="13071" code_canton="1309"/><polygon points="294,194 276,203 270,208 259,207 233,215 211,219 199,216 208,210 201,204 208,193 202,185 190,183 157,196 139,158 148,158 152,148 180,148 210,137 235,134 242,162 261,172 262,181 294,194" id="13106" class="commune" fill="steelblue" stroke-width="1" stroke="white" geotype="commune" geoname="Septèmes-les-Vallons" code_insee="13106" code_canton="1309"/><polygon points="387,179 376,181 372,176 364,187 354,182 336,188 320,180 294,194 262,181 261,172 242,162 235,134 268,123 278,124 284,117 278,100 331,77 341,85 342,96 367,108 372,127 393,144 387,179" id="13107" class="commune" fill="steelblue" stroke-width="1" stroke="white" geotype="commune" geoname="Simiane-Collongue" code_insee="13107" code_canton="1309"/></svg>