<?xml version="1.0" encoding="utf-8"?>
<svg version="1.1" id="svgmap" xmlns="http://www.w3.org/2000/svg" xmlns:xlink="http://www.w3.org/1999/xlink" x="0px" y="0px" width="100%" height="100%" viewBox="0 0 500 386">
<polygon points="354,34 359,31 368,43 355,64 339,69 335,82 334,84 333,78 326,76 294,82 277,76 268,58 284,44 295,42 309,49 319,39 342,40 354,34" id="14008" class="commune" fill="steelblue" stroke-width="1" stroke="white" geotype="commune" geoname="Amblie" code_insee="14008" code_canton="1403"/><polygon points="144,191 161,211 176,219 176,232 157,227 127,252 123,255 67,252 50,248 59,232 51,224 57,212 68,209 61,194 82,196 107,189 127,191 144,191" id="14026" class="commune" fill="steelblue" stroke-width="1" stroke="white" geotype="commune" geoname="Audrieu" code_insee="14026" code_canton="1403"/><polygon points="406,42 428,23 463,20 472,20 485,35 499,36 500,47 470,54 446,82 436,85 416,73 420,61 411,53 416,45 406,42" id="14062" class="commune" fill="steelblue" stroke-width="1" stroke="white" geotype="commune" geoname="Bény-sur-Mer" code_insee="14062" code_canton="1403"/><polygon points="257,222 269,201 229,188 254,175 265,181 288,178 332,183 334,188 317,207 316,224 281,224 280,230 257,222" id="14098" class="commune" fill="steelblue" stroke-width="1" stroke="white" geotype="commune" geoname="Bretteville-l'Orgueilleuse" code_insee="14098" code_canton="1403"/><polygon points="176,219 161,211 144,191 181,188 191,192 235,224 212,237 191,222 176,219" id="14109" class="commune" fill="steelblue" stroke-width="1" stroke="white" geotype="commune" geoname="Brouay" code_insee="14109" code_canton="1403"/><polygon points="14,238 28,234 51,224 59,232 50,248 67,252 61,261 72,271 51,283 25,284 11,277 13,256 4,254 14,238" id="14111" class="commune" fill="steelblue" stroke-width="1" stroke="white" geotype="commune" geoname="Bucéels" code_insee="14111" code_canton="1403"/><polygon points="478,138 479,140 472,141 469,167 493,171 490,176 466,198 465,196 406,161 413,153 393,148 413,137 437,141 446,135 448,140 478,138" id="14123" class="commune" fill="steelblue" stroke-width="1" stroke="white" geotype="commune" geoname="Cairon" code_insee="14123" code_canton="1403"/><polygon points="135,155 144,158 134,172 106,164 58,165 70,153 44,152 49,127 74,134 135,155" id="14135" class="commune" fill="steelblue" stroke-width="1" stroke="white" geotype="commune" geoname="Carcagny" code_insee="14135" code_canton="1403"/><polygon points="316,312 313,317 303,316 302,327 281,326 242,330 225,337 217,338 205,310 211,268 245,263 257,257 260,244 306,258 296,277 320,287 326,296 325,311 316,312" id="14157" class="commune" fill="steelblue" stroke-width="1" stroke="white" geotype="commune" geoname="Cheux" code_insee="14157" code_canton="1403"/><polygon points="354,34 342,40 319,39 309,49 295,42 284,44 280,11 296,11 354,34" id="14169" class="commune" fill="steelblue" stroke-width="1" stroke="white" geotype="commune" geoname="Colombiers-sur-Seulles" code_insee="14169" code_canton="1403"/><polygon points="225,113 228,116 207,124 216,140 174,150 163,147 151,161 144,158 135,155 153,134 179,114 210,104 225,113" id="14186" class="commune" fill="steelblue" stroke-width="1" stroke="white" geotype="commune" geoname="Coulombs" code_insee="14186" code_canton="1403"/><polygon points="268,58 277,76 267,89 226,100 218,102 214,97 216,76 207,75 218,64 203,62 203,21 193,12 244,14 247,47 265,46 268,50 259,56 262,60 268,58" id="14200" class="commune" fill="steelblue" stroke-width="1" stroke="white" geotype="commune" geoname="Creully" code_insee="14200" code_canton="1403"/><polygon points="212,237 205,259 127,252 157,227 176,232 176,219 191,222 212,237" id="14205" class="commune" fill="steelblue" stroke-width="1" stroke="white" geotype="commune" geoname="Cristot" code_insee="14205" code_canton="1403"/><polygon points="216,140 207,124 228,116 225,113 232,108 244,111 260,106 299,108 282,122 333,125 327,143 274,140 235,154 216,140" id="14212" class="commune" fill="steelblue" stroke-width="1" stroke="white" geotype="commune" geoname="Cully" code_insee="14212" code_canton="1403"/><polygon points="61,169 58,165 106,164 134,172 127,191 107,189 82,196 61,194 60,194 69,175 61,169" id="14232" class="commune" fill="steelblue" stroke-width="1" stroke="white" geotype="commune" geoname="Ducy-Sainte-Marguerite" code_insee="14232" code_canton="1403"/><polygon points="335,82 339,69 355,64 374,63 406,42 416,45 411,53 420,61 416,73 436,85 421,97 373,90 335,82" id="14275" class="commune" fill="steelblue" stroke-width="1" stroke="white" geotype="commune" geoname="Fontaine-Henry" code_insee="14275" code_canton="1403"/><polygon points="205,310 142,312 88,299 81,291 105,286 136,264 123,255 127,252 205,259 205,268 211,268 205,310" id="14278" class="commune" fill="steelblue" stroke-width="1" stroke="white" geotype="commune" geoname="Fontenay-le-Pesnel" code_insee="14278" code_canton="1403"/><polygon points="334,84 335,82 373,90 370,97 380,102 370,110 383,122 387,120 389,119 374,141 354,153 327,143 333,125 282,122 299,108 322,108 334,84" id="14288" class="commune" fill="steelblue" stroke-width="1" stroke="white" geotype="commune" geoname="Fresne-Camilly" code_insee="14288" code_canton="1403"/><polygon points="73,330 72,327 85,318 88,299 142,312 138,323 145,343 118,332 95,337 78,331 73,330" id="14348" class="commune" fill="steelblue" stroke-width="1" stroke="white" geotype="commune" geoname="Juvigny-sur-Seulles" code_insee="14348" code_canton="1403"/><polygon points="277,76 294,82 326,76 333,78 334,84 322,108 299,108 260,106 244,111 232,108 226,100 267,89 277,76" id="14355" class="commune" fill="steelblue" stroke-width="1" stroke="white" geotype="commune" geoname="Lantheuil" code_insee="14355" code_canton="1403"/><polygon points="393,148 413,153 406,161 381,185 383,192 332,177 352,165 349,158 354,153 374,141 393,148" id="14356" class="commune" fill="steelblue" stroke-width="1" stroke="white" geotype="commune" geoname="Lasson" code_insee="14356" code_canton="1403"/><polygon points="204,180 191,192 181,188 144,191 127,191 134,172 144,158 151,161 204,180" id="14380" class="commune" fill="steelblue" stroke-width="1" stroke="white" geotype="commune" geoname="Loucelles" code_insee="14380" code_canton="1403"/><polygon points="114,114 153,134 135,155 74,134 98,110 114,114" id="14406" class="commune" fill="steelblue" stroke-width="1" stroke="white" geotype="commune" geoname="Martragny" code_insee="14406" code_canton="1403"/><polygon points="205,259 212,237 235,224 250,227 260,244 257,257 245,263 211,268 205,268 205,259" id="14423" class="commune" fill="steelblue" stroke-width="1" stroke="white" geotype="commune" geoname="Mesnil-Patry" code_insee="14423" code_canton="1403"/><polygon points="191,192 204,180 229,188 269,201 257,222 250,227 235,224 191,192" id="14525" class="commune" fill="steelblue" stroke-width="1" stroke="white" geotype="commune" geoname="Putot-en-Bessin" code_insee="14525" code_canton="1403"/><polygon points="428,23 406,42 374,63 355,64 368,43 359,31 371,17 384,20 385,0 407,8 413,5 414,17 425,16 428,23" id="14535" class="commune" fill="steelblue" stroke-width="1" stroke="white" geotype="commune" geoname="Reviers" code_insee="14535" code_canton="1403"/><polygon points="465,196 451,208 434,205 383,192 381,185 406,161 465,196" id="14542" class="commune" fill="steelblue" stroke-width="1" stroke="white" geotype="commune" geoname="Rosel" code_insee="14542" code_canton="1403"/><polygon points="434,205 424,230 440,233 435,244 394,237 366,252 349,253 339,261 316,224 317,207 334,188 332,183 332,177 383,192 434,205" id="14543" class="commune" fill="steelblue" stroke-width="1" stroke="white" geotype="commune" geoname="Rots" code_insee="14543" code_canton="1403"/><polygon points="114,114 116,109 134,92 179,114 153,134 114,114" id="14548" class="commune" fill="steelblue" stroke-width="1" stroke="white" geotype="commune" geoname="Rucqueville" code_insee="14548" code_canton="1403"/><polygon points="254,175 229,188 204,180 151,161 163,147 174,150 216,140 235,154 254,175" id="14568" class="commune" fill="steelblue" stroke-width="1" stroke="white" geotype="commune" geoname="Sainte-Croix-Grand-Tonne" code_insee="14568" code_canton="1403"/><polygon points="105,74 115,72 144,65 148,70 156,66 177,69 203,62 218,64 207,75 216,76 214,97 218,102 226,100 232,108 225,113 210,104 179,114 134,92 105,74" id="14577" class="commune" fill="steelblue" stroke-width="1" stroke="white" geotype="commune" geoname="Saint-Gabriel-Brécy" code_insee="14577" code_canton="1403"/><polygon points="366,252 380,277 353,282 359,291 326,296 320,287 296,277 306,258 260,244 250,227 257,222 280,230 281,224 316,224 339,261 349,253 366,252" id="14610" class="commune" fill="steelblue" stroke-width="1" stroke="white" geotype="commune" geoname="Saint-Manvieu-Norrey" code_insee="14610" code_canton="1403"/><polygon points="23,385 15,381 35,361 49,342 61,341 73,330 78,331 85,348 81,359 91,358 92,363 55,386 34,386 29,380 23,385" id="14661" class="commune" fill="steelblue" stroke-width="1" stroke="white" geotype="commune" geoname="Saint-Vaast-sur-Seulles" code_insee="14661" code_canton="1403"/><polygon points="332,183 288,178 265,181 254,175 235,154 274,140 327,143 354,153 349,158 352,165 332,177 332,183" id="14670" class="commune" fill="steelblue" stroke-width="1" stroke="white" geotype="commune" geoname="Secqueville-en-Bessin" code_insee="14670" code_canton="1403"/><polygon points="142,312 205,310 217,338 225,337 210,350 213,354 156,346 145,343 138,323 142,312" id="14684" class="commune" fill="steelblue" stroke-width="1" stroke="white" geotype="commune" geoname="Tessel" code_insee="14684" code_canton="1403"/><polygon points="493,119 478,138 448,140 446,135 437,141 413,137 393,148 374,141 389,119 387,120 383,122 370,110 380,102 370,97 373,90 421,97 437,97 438,103 493,119" id="14685" class="commune" fill="steelblue" stroke-width="1" stroke="white" geotype="commune" geoname="Thaon" code_insee="14685" code_canton="1403"/><polygon points="284,44 268,58 262,60 259,56 268,50 265,46 247,47 244,14 272,9 278,7 280,11 284,44" id="14690" class="commune" fill="steelblue" stroke-width="1" stroke="white" geotype="commune" geoname="Tierceville" code_insee="14690" code_canton="1403"/><polygon points="0,314 6,303 16,303 28,293 25,284 51,283 72,271 61,261 67,252 123,255 136,264 105,286 81,291 88,299 85,318 72,327 46,315 34,318 21,312 17,316 0,314" id="14692" class="commune" fill="steelblue" stroke-width="1" stroke="white" geotype="commune" geoname="Tilly-sur-Seulles" code_insee="14692" code_canton="1403"/><polygon points="156,346 142,368 119,363 114,358 91,358 81,359 85,348 78,331 95,337 118,332 145,343 156,346" id="14734" class="commune" fill="steelblue" stroke-width="1" stroke="white" geotype="commune" geoname="Vendes" code_insee="14734" code_canton="1403"/><polygon points="172,49 182,13 193,12 203,21 203,62 177,69 172,49" id="14757" class="commune" fill="steelblue" stroke-width="1" stroke="white" geotype="commune" geoname="Villiers-le-Sec" code_insee="14757" code_canton="1403"/></svg>