<?xml version="1.0" encoding="utf-8"?>
<svg version="1.1" id="svgmap" xmlns="http://www.w3.org/2000/svg" xmlns:xlink="http://www.w3.org/1999/xlink" x="0px" y="0px" width="100%" height="100%" viewBox="0 0 500 240">
<polygon points="495,121 500,125 460,191 362,177 302,230 268,240 255,229 278,212 242,210 272,116 255,86 302,71 389,30 349,69 408,97 495,121" id="14167" class="commune" fill="steelblue" stroke-width="1" stroke="white" geotype="commune" geoname="Colombelles" code_insee="14167" code_canton="1414"/><polygon points="0,64 17,19 50,4 120,17 182,5 218,0 302,71 255,86 272,116 242,210 212,207 215,188 193,180 171,200 175,220 144,210 127,167 53,125 68,114 0,64" id="14327" class="commune" fill="steelblue" stroke-width="1" stroke="white" geotype="commune" geoname="Hérouville-Saint-Clair" code_insee="14327" code_canton="1414"/></svg>