<?xml version="1.0" encoding="utf-8"?>
<svg version="1.1" id="svgmap" xmlns="http://www.w3.org/2000/svg" xmlns:xlink="http://www.w3.org/1999/xlink" x="0px" y="0px" width="100%" height="100%" viewBox="0 0 500 236">
<polygon points="134,164 136,159 131,156 137,150 126,151 129,148 126,147 127,143 132,141 125,137 129,135 128,133 124,134 130,131 133,132 131,130 140,121 137,118 142,118 135,115 138,104 136,99 149,102 154,99 157,103 159,100 165,101 173,108 178,113 177,117 178,121 173,123 160,122 152,133 158,132 157,135 160,135 162,139 172,137 173,140 173,137 177,138 183,134 177,133 177,127 182,121 185,121 192,121 212,132 208,133 204,145 209,153 206,155 204,152 200,155 193,155 192,158 183,150 167,157 150,157 134,164" id="15003" class="commune" fill="steelblue" stroke-width="1" stroke="white" geotype="commune" geoname="Ally" code_insee="15003" code_canton="1505"/><polygon points="393,112 391,115 405,119 434,133 425,135 416,132 403,133 391,136 394,125 367,117 360,122 357,120 360,115 351,113 349,119 344,118 337,120 337,116 330,116 321,120 314,120 309,127 300,123 297,127 280,124 276,117 252,111 249,109 251,104 231,103 238,93 249,90 245,89 244,82 243,67 251,61 260,68 262,62 275,63 273,60 279,59 279,61 290,70 289,73 285,73 290,77 297,75 308,76 314,79 318,76 323,78 334,75 338,79 334,80 336,86 340,86 338,89 356,91 358,94 383,104 393,112" id="15006" class="commune" fill="steelblue" stroke-width="1" stroke="white" geotype="commune" geoname="Anglards-de-Salers" code_insee="15006" code_canton="1505"/><polygon points="126,151 137,150 131,156 136,159 134,164 128,169 127,166 123,168 120,166 115,173 103,174 103,176 101,173 99,177 98,171 94,173 89,170 80,174 83,162 90,159 89,153 86,148 77,143 74,144 67,140 66,137 62,136 64,130 77,129 75,127 81,126 82,129 94,131 96,135 100,134 102,138 111,137 113,144 109,152 112,155 126,151" id="15018" class="commune" fill="steelblue" stroke-width="1" stroke="white" geotype="commune" geoname="Barriac-les-Bosquets" code_insee="15018" code_canton="1505"/><polygon points="136,99 138,104 124,112 118,107 105,104 101,101 87,100 76,95 68,97 62,95 53,89 54,81 60,84 68,80 72,78 76,81 86,74 92,84 97,78 102,80 107,83 126,79 128,88 132,89 128,94 136,99" id="15024" class="commune" fill="steelblue" stroke-width="1" stroke="white" geotype="commune" geoname="Brageac" code_insee="15024" code_canton="1505"/><polygon points="148,15 154,15 156,18 158,41 155,47 145,47 144,52 132,49 140,46 140,43 126,40 123,43 119,41 113,53 115,53 118,54 109,55 114,65 112,76 102,80 97,78 92,84 86,74 76,81 72,78 68,80 59,81 50,73 47,76 40,74 38,71 32,72 32,67 47,60 57,48 73,45 70,33 76,25 92,21 95,7 103,0 110,2 118,8 116,16 122,16 130,25 148,15" id="15036" class="commune" fill="steelblue" stroke-width="1" stroke="white" geotype="commune" geoname="Chalvignac" code_insee="15036" code_canton="1505"/><polygon points="138,104 135,115 142,118 137,118 140,121 131,130 133,132 130,131 124,134 128,133 129,135 125,137 132,141 127,143 126,147 129,148 126,151 112,155 109,152 113,144 111,137 102,138 100,134 96,135 94,131 82,129 81,126 78,108 69,106 62,95 68,97 76,95 87,100 101,101 105,104 118,107 124,112 138,104" id="15046" class="commune" fill="steelblue" stroke-width="1" stroke="white" geotype="commune" geoname="Chaussenac" code_insee="15046" code_canton="1505"/><polygon points="209,153 204,145 208,133 212,132 192,121 185,121 189,116 209,111 221,113 228,121 230,119 240,122 242,118 251,119 266,129 256,140 262,146 258,155 254,157 251,154 249,159 245,159 251,166 239,165 239,162 228,158 225,153 212,157 214,156 209,153" id="15063" class="commune" fill="steelblue" stroke-width="1" stroke="white" geotype="commune" geoname="Drugeac" code_insee="15063" code_canton="1505"/><polygon points="177,117 181,116 182,121 177,127 177,133 183,134 177,138 173,137 173,140 172,137 162,139 160,135 157,135 158,132 152,133 160,122 173,123 178,121 177,117" id="15064" class="commune" fill="steelblue" stroke-width="1" stroke="white" geotype="commune" geoname="Escorailles" code_insee="15064" code_canton="1505"/><polygon points="412,185 421,186 437,183 442,170 459,176 474,174 487,176 497,182 500,192 489,196 488,200 493,206 478,210 451,211 438,204 421,207 410,205 410,202 403,199 408,196 412,185" id="15067" class="commune" fill="steelblue" stroke-width="1" stroke="white" geotype="commune" geoname="Fau" code_insee="15067" code_canton="1505"/><polygon points="329,170 341,173 344,170 345,173 358,174 359,180 389,185 412,185 408,196 403,199 410,202 410,205 421,207 413,211 398,209 389,212 373,210 363,205 354,206 353,209 337,206 337,202 331,200 341,192 340,189 316,181 320,177 316,175 322,176 323,172 329,170" id="15070" class="commune" fill="steelblue" stroke-width="1" stroke="white" geotype="commune" geoname="Fontanges" code_insee="15070" code_canton="1505"/><polygon points="173,108 165,101 159,100 157,103 154,99 149,102 136,99 128,94 132,89 128,88 126,79 107,83 102,80 112,76 114,65 109,55 118,54 115,53 113,53 119,41 123,43 126,40 140,43 140,46 132,49 144,52 145,47 155,47 156,46 154,50 162,51 161,60 168,66 173,66 173,69 180,73 185,72 193,79 208,78 208,81 214,83 208,86 210,88 206,89 198,99 194,97 193,100 186,100 173,108" id="15120" class="commune" fill="steelblue" stroke-width="1" stroke="white" geotype="commune" geoname="Mauriac" code_insee="15120" code_canton="1505"/><polygon points="1,222 0,222 3,222 1,217 8,207 4,200 10,196 7,194 10,193 8,189 16,187 16,189 19,186 12,182 12,176 7,174 10,168 6,163 23,165 39,155 42,146 38,138 52,139 62,136 66,137 67,140 74,144 77,143 86,148 89,153 90,159 83,162 80,174 89,170 94,173 98,171 99,177 101,173 103,176 103,174 115,173 120,166 123,168 127,166 128,169 134,164 150,157 167,157 183,150 192,158 197,171 206,173 201,181 202,187 193,187 187,191 184,189 165,189 162,193 156,188 156,194 144,196 142,200 140,197 140,202 134,202 135,204 131,202 130,204 124,203 123,207 119,206 118,208 112,206 113,213 108,214 107,210 106,214 101,214 105,217 103,223 98,218 92,218 89,213 76,213 75,223 66,227 51,228 43,225 46,219 44,217 29,226 18,221 1,222" id="15153" class="commune" fill="steelblue" stroke-width="1" stroke="white" geotype="commune" geoname="Pleaux" code_insee="15153" code_canton="1505"/><polygon points="81,126 75,127 77,129 64,130 63,126 62,127 53,127 50,123 46,125 44,121 31,116 29,97 20,95 18,91 26,79 17,73 20,71 24,74 32,72 38,71 40,74 47,76 50,73 59,81 68,80 60,84 54,81 53,89 62,95 69,106 78,108 81,126" id="15153" class="commune" fill="steelblue" stroke-width="1" stroke="white" geotype="commune" geoname="Pleaux" code_insee="15153" code_canton="1505"/><polygon points="437,137 439,139 416,138 382,143 371,143 370,146 346,146 342,152 336,149 338,146 334,145 329,148 330,145 326,144 328,151 318,155 327,158 330,165 319,162 321,159 309,160 307,157 306,160 304,158 293,161 288,168 285,165 279,166 279,162 277,166 276,165 279,161 281,162 284,161 275,159 276,152 266,151 258,155 262,146 256,140 266,129 268,126 278,130 280,124 297,127 300,123 309,127 314,120 321,120 330,116 337,116 337,120 344,118 349,119 351,113 360,115 357,120 360,122 367,117 394,125 391,136 403,133 416,132 425,135 434,133 437,137" id="15174" class="commune" fill="steelblue" stroke-width="1" stroke="white" geotype="commune" geoname="Saint-Bonnet-de-Salers" code_insee="15174" code_canton="1505"/><polygon points="208,200 203,193 206,187 202,187 201,181 206,173 197,171 192,158 193,155 200,155 204,152 206,155 209,153 214,156 212,157 225,153 228,158 239,162 239,165 251,166 253,170 249,177 238,182 242,184 243,197 208,200" id="15186" class="commune" fill="steelblue" stroke-width="1" stroke="white" geotype="commune" geoname="Sainte-Eulalie" code_insee="15186" code_canton="1505"/><polygon points="94,233 89,236 86,224 81,223 85,218 87,220 92,218 98,218 103,223 105,217 101,214 106,214 107,210 108,214 113,213 112,206 118,208 119,206 123,207 124,203 130,204 131,202 135,204 134,202 140,202 140,197 142,200 144,196 156,194 156,188 162,193 165,189 184,189 187,191 188,197 182,197 178,209 185,214 173,222 168,225 164,224 156,230 144,228 148,232 139,228 132,232 129,228 122,232 119,229 118,232 113,234 107,230 94,233" id="15200" class="commune" fill="steelblue" stroke-width="1" stroke="white" geotype="commune" geoname="Saint-Martin-Cantalès" code_insee="15200" code_canton="1505"/><polygon points="319,162 325,165 318,167 319,169 329,170 323,172 322,176 316,175 320,177 316,181 340,189 341,192 331,200 337,202 337,206 327,207 306,203 292,193 280,191 277,196 268,197 266,192 261,202 256,203 243,197 242,184 238,182 249,177 253,170 251,166 245,159 249,159 251,154 254,157 258,155 266,151 276,152 275,159 284,161 281,162 279,161 276,165 277,166 279,162 279,166 285,165 288,168 293,161 304,158 306,160 307,157 309,160 321,159 319,162" id="15202" class="commune" fill="steelblue" stroke-width="1" stroke="white" geotype="commune" geoname="Saint-Martin-Valmeroux" code_insee="15202" code_canton="1505"/><polygon points="439,139 450,147 478,160 483,164 487,176 474,174 459,176 442,170 437,183 421,186 412,185 389,185 359,180 358,174 345,173 344,170 341,173 329,170 319,169 318,167 325,165 319,162 330,165 336,165 340,168 354,156 378,147 382,143 416,138 439,139" id="15205" class="commune" fill="steelblue" stroke-width="1" stroke="white" geotype="commune" geoname="Saint-Paul-de-Salers" code_insee="15205" code_canton="1505"/><polygon points="330,165 327,158 318,155 328,151 326,144 330,145 329,148 334,145 338,146 336,149 342,152 346,146 370,146 371,143 382,143 378,147 354,156 340,168 336,165 330,165" id="15219" class="commune" fill="steelblue" stroke-width="1" stroke="white" geotype="commune" geoname="Salers" code_insee="15219" code_canton="1505"/><polygon points="244,82 245,89 249,90 238,93 231,103 251,104 249,109 252,111 276,117 280,124 278,130 268,126 266,129 251,119 242,118 240,122 230,119 228,121 221,113 209,111 210,106 213,108 219,105 213,101 227,102 226,97 230,94 226,92 225,85 244,82" id="15220" class="commune" fill="steelblue" stroke-width="1" stroke="white" geotype="commune" geoname="Salins" code_insee="15220" code_canton="1505"/><polygon points="182,121 181,116 177,117 178,113 173,108 186,100 193,100 194,97 198,99 206,89 210,88 208,86 214,83 208,81 208,78 193,79 185,72 180,73 173,69 173,66 168,66 161,60 162,51 154,50 156,46 155,47 158,41 172,43 174,39 178,42 181,41 176,38 180,37 182,40 186,52 192,47 197,54 200,51 197,51 197,47 204,47 211,41 214,43 216,38 215,45 228,44 228,39 236,35 238,38 230,43 233,46 235,44 237,50 246,51 251,61 243,67 244,82 225,85 226,92 230,94 226,97 227,102 213,101 219,105 213,108 210,106 209,111 189,116 185,121 182,121" id="15261" class="commune" fill="steelblue" stroke-width="1" stroke="white" geotype="commune" geoname="Vigean" code_insee="15261" code_canton="1505"/></svg>