<?xml version="1.0" encoding="utf-8"?>
<svg version="1.1" id="svgmap" xmlns="http://www.w3.org/2000/svg" xmlns:xlink="http://www.w3.org/1999/xlink" x="0px" y="0px" width="100%" height="100%" viewBox="0 0 500 279">
<polygon points="318,122 333,123 336,118 340,129 347,132 347,137 354,138 362,133 366,135 360,143 351,147 350,149 357,150 350,151 355,157 344,164 344,173 343,176 328,173 325,175 307,167 300,170 295,166 290,175 283,168 290,166 288,162 293,163 298,158 293,155 297,151 293,151 297,148 295,144 311,148 309,134 318,122" id="15008" class="commune" fill="steelblue" stroke-width="1" stroke="white" geotype="commune" geoname="Antignac" code_insee="15008" code_canton="1515"/><polygon points="0,222 16,223 33,203 34,197 48,183 73,180 75,187 84,189 82,195 78,196 87,197 88,205 87,214 79,216 77,214 74,225 66,222 65,217 63,220 64,216 58,218 55,214 56,216 52,215 46,219 48,226 37,230 41,237 22,247 13,237 6,237 8,228 0,222" id="15010" class="commune" fill="steelblue" stroke-width="1" stroke="white" geotype="commune" geoname="Arches" code_insee="15010" code_canton="1515"/><polygon points="127,233 119,212 126,208 131,199 127,198 129,194 126,195 126,190 120,187 123,184 122,177 132,166 137,164 138,160 140,164 146,166 150,163 155,165 154,182 157,184 164,181 166,184 168,181 174,182 169,186 170,194 165,199 153,202 155,208 148,214 139,212 137,215 128,212 135,222 127,233" id="15019" class="commune" fill="steelblue" stroke-width="1" stroke="white" geotype="commune" geoname="Bassignac" code_insee="15019" code_canton="1515"/><polygon points="295,31 277,40 253,42 258,40 254,31 255,26 260,25 264,21 265,5 272,5 278,0 295,6 305,5 295,31" id="15020" class="commune" fill="steelblue" stroke-width="1" stroke="white" geotype="commune" geoname="Beaulieu" code_insee="15020" code_canton="1515"/><polygon points="185,109 191,128 189,134 196,132 198,134 195,135 198,138 195,137 186,137 187,143 174,151 178,154 177,158 166,155 163,162 155,165 150,163 146,166 140,164 138,160 137,164 132,166 124,160 117,162 103,158 94,164 85,157 94,147 99,148 101,146 101,138 104,135 101,124 139,121 168,99 185,109" id="15037" class="commune" fill="steelblue" stroke-width="1" stroke="white" geotype="commune" geoname="Champagnac" code_insee="15037" code_canton="1515"/><polygon points="318,122 305,120 291,122 281,116 288,104 283,98 280,99 281,92 300,88 299,91 310,94 315,91 316,93 322,92 324,78 330,78 339,69 354,65 357,60 371,54 383,55 397,45 413,43 428,47 440,56 450,52 455,53 458,49 461,53 470,52 471,62 461,69 450,71 443,77 444,82 424,84 425,94 417,91 413,95 402,97 399,103 406,106 406,114 413,114 410,124 417,124 422,136 407,126 394,136 383,131 366,135 362,133 354,138 347,137 347,132 340,129 336,118 333,123 318,122" id="15038" class="commune" fill="steelblue" stroke-width="1" stroke="white" geotype="commune" geoname="Champs-sur-Tarentaine-Marchal" code_insee="15038" code_canton="1515"/><polygon points="119,212 127,233 133,242 135,258 127,262 127,268 113,268 114,261 112,267 109,264 101,270 93,270 94,275 97,275 93,279 88,271 82,277 77,263 78,258 74,260 78,257 74,257 74,252 71,253 75,248 69,244 94,240 99,231 87,214 88,205 96,211 119,212" id="15079" class="commune" fill="steelblue" stroke-width="1" stroke="white" geotype="commune" geoname="Jaleyrac" code_insee="15079" code_canton="1515"/><polygon points="253,42 277,40 295,31 301,30 307,24 318,22 319,25 324,24 326,21 330,21 337,24 335,27 340,28 340,32 352,35 352,38 358,39 362,35 374,38 389,23 388,16 391,16 397,20 397,45 383,55 371,54 357,60 354,65 339,69 330,78 324,78 322,92 316,93 315,91 310,94 299,91 300,88 281,92 276,93 242,74 253,42" id="15092" class="commune" fill="steelblue" stroke-width="1" stroke="white" geotype="commune" geoname="Lanobre" code_insee="15092" code_canton="1515"/><polygon points="233,130 233,130 230,135 224,134 225,142 221,140 219,143 204,143 195,137 198,138 195,135 198,134 196,132 189,134 191,128 185,109 188,113 193,114 209,112 225,117 227,118 221,125 227,124 228,129 233,130" id="15111" class="commune" fill="steelblue" stroke-width="1" stroke="white" geotype="commune" geoname="Madic" code_insee="15111" code_canton="1515"/><polygon points="290,175 295,166 300,170 307,167 325,175 328,173 343,176 344,173 351,173 349,180 346,179 344,189 337,186 333,190 324,189 325,195 320,193 318,196 311,195 313,198 294,206 285,198 288,196 282,190 289,188 295,189 296,183 301,182 302,178 290,175" id="15128" class="commune" fill="steelblue" stroke-width="1" stroke="white" geotype="commune" geoname="Monselie" code_insee="15128" code_canton="1515"/><polygon points="271,242 270,234 265,236 256,231 253,233 253,229 239,225 232,218 215,215 216,209 223,202 224,188 231,185 245,189 253,182 259,181 276,176 282,181 279,185 282,190 288,196 285,198 294,206 292,218 296,217 297,222 312,227 309,229 316,230 316,236 306,241 307,243 279,232 275,233 280,239 271,242" id="15131" class="commune" fill="steelblue" stroke-width="1" stroke="white" geotype="commune" geoname="Monteil" code_insee="15131" code_canton="1515"/><polygon points="259,181 253,182 245,189 231,185 224,188 219,188 213,183 212,176 216,174 222,176 223,173 212,168 225,162 219,158 225,158 231,153 237,157 239,161 243,160 249,163 259,181" id="15169" class="commune" fill="steelblue" stroke-width="1" stroke="white" geotype="commune" geoname="Saignes" code_insee="15169" code_canton="1515"/><polygon points="168,99 139,121 101,124 100,118 107,110 101,105 101,99 91,95 84,83 91,78 97,78 106,77 119,80 136,87 138,94 146,98 168,99" id="15206" class="commune" fill="steelblue" stroke-width="1" stroke="white" geotype="commune" geoname="Saint-Pierre" code_insee="15206" code_canton="1515"/><polygon points="213,183 219,188 224,188 223,202 216,209 215,215 197,216 193,213 190,217 193,220 189,222 194,223 184,225 180,219 168,218 161,220 148,214 155,208 153,202 165,199 170,194 169,186 174,182 191,178 199,180 198,184 208,181 213,183" id="15223" class="commune" fill="steelblue" stroke-width="1" stroke="white" geotype="commune" geoname="Sauvat" code_insee="15223" code_canton="1515"/><polygon points="51,264 50,239 47,236 41,237 37,230 48,226 46,219 52,215 56,216 55,214 58,218 64,216 63,220 65,217 66,222 74,225 77,214 79,216 87,214 99,231 94,240 69,244 75,248 71,253 74,252 74,257 78,257 74,260 78,258 77,263 75,260 71,261 76,264 73,266 69,262 66,266 51,264" id="15230" class="commune" fill="steelblue" stroke-width="1" stroke="white" geotype="commune" geoname="Sourniac" code_insee="15230" code_canton="1515"/><polygon points="453,143 451,142 442,150 428,137 422,136 417,124 410,124 413,114 406,114 406,106 399,103 402,97 413,95 417,91 425,94 424,84 444,82 443,77 450,71 461,69 461,87 476,88 472,93 477,98 484,95 488,97 485,105 500,116 492,119 482,139 471,144 453,143" id="15240" class="commune" fill="steelblue" stroke-width="1" stroke="white" geotype="commune" geoname="Trémouille" code_insee="15240" code_canton="1515"/><polygon points="233,130 233,130 233,122 239,119 256,116 262,120 276,112 281,116 291,122 305,120 318,122 309,134 311,148 295,144 297,148 293,151 297,151 293,155 298,158 293,163 288,162 290,166 283,168 290,175 302,178 301,182 296,183 295,189 289,188 282,190 279,185 282,181 276,176 259,181 249,163 243,160 239,161 237,157 241,157 243,150 249,147 233,130" id="15250" class="commune" fill="steelblue" stroke-width="1" stroke="white" geotype="commune" geoname="Vebret" code_insee="15250" code_canton="1515"/><polygon points="119,212 96,211 88,205 87,197 78,196 82,195 84,189 75,187 73,180 86,178 95,168 94,164 103,158 117,162 124,160 132,166 122,177 123,184 120,187 126,190 126,195 129,194 127,198 131,199 126,208 119,212" id="15254" class="commune" fill="steelblue" stroke-width="1" stroke="white" geotype="commune" geoname="Veyrières" code_insee="15254" code_canton="1515"/><polygon points="195,137 204,143 219,143 221,140 225,142 224,134 230,135 233,130 249,147 243,150 241,157 237,157 231,153 225,158 219,158 225,162 212,168 223,173 222,176 216,174 212,176 213,183 208,181 198,184 199,180 191,178 174,182 168,181 166,184 164,181 157,184 154,182 155,165 163,162 166,155 177,158 178,154 174,151 187,143 186,137 195,137" id="15265" class="commune" fill="steelblue" stroke-width="1" stroke="white" geotype="commune" geoname="Ydes" code_insee="15265" code_canton="1515"/></svg>