<?xml version="1.0" encoding="utf-8"?>
<svg version="1.1" id="svgmap" xmlns="http://www.w3.org/2000/svg" xmlns:xlink="http://www.w3.org/1999/xlink" x="0px" y="0px" width="100%" height="100%" viewBox="0 0 500 351">
<polygon points="268,1 284,6 298,13 297,20 293,23 305,38 309,38 309,43 313,42 314,47 308,50 303,52 301,56 297,56 298,63 257,80 246,72 239,71 243,60 242,43 239,36 231,29 244,18 265,11 267,2 268,1" id="16001" class="commune" fill="steelblue" stroke-width="1" stroke="white" geotype="commune" geoname="Abzac" code_insee="16001" code_canton="1610"/><polygon points="158,179 145,186 149,189 142,192 137,188 133,191 128,186 126,188 109,186 93,192 86,186 93,181 85,177 88,169 69,177 66,175 64,162 61,162 65,161 68,155 58,154 68,149 91,148 97,146 111,147 134,139 144,131 149,132 151,147 147,147 149,154 141,162 148,167 144,171 158,179" id="16009" class="commune" fill="steelblue" stroke-width="1" stroke="white" geotype="commune" geoname="Ambernac" code_insee="16009" code_canton="1610"/><polygon points="158,179 144,171 148,167 141,162 149,154 147,147 151,147 149,132 144,131 148,123 162,115 159,107 167,106 173,107 176,113 183,114 189,121 222,132 207,143 206,150 200,170 181,173 166,186 158,179" id="16016" class="commune" fill="steelblue" stroke-width="1" stroke="white" geotype="commune" geoname="Ansac-sur-Vienne" code_insee="16016" code_canton="1610"/><polygon points="380,168 387,170 389,165 415,157 429,161 435,169 444,173 456,172 465,169 469,173 476,169 476,166 483,167 488,163 493,166 499,165 500,170 496,169 493,174 496,175 496,181 483,184 483,187 476,185 475,190 481,191 476,193 474,202 466,203 458,200 457,206 438,216 430,218 428,215 423,216 413,221 406,215 389,216 377,207 366,208 361,205 364,203 361,188 365,182 363,180 378,175 380,168" id="16064" class="commune" fill="steelblue" stroke-width="1" stroke="white" geotype="commune" geoname="Brigueuil" code_insee="16064" code_canton="1610"/><polygon points="258,80 257,80 298,63 297,56 301,56 303,52 308,50 326,56 329,53 325,52 330,49 329,41 345,38 349,33 346,29 354,29 354,35 362,40 359,47 371,47 372,50 378,47 381,54 372,63 373,67 377,67 377,71 382,72 377,73 381,76 377,80 368,83 368,88 372,92 364,92 368,95 362,94 361,101 357,103 358,105 353,110 340,107 337,102 331,101 324,96 320,98 315,94 304,94 299,90 295,93 289,93 283,89 271,89 260,86 263,81 258,80" id="16065" class="commune" fill="steelblue" stroke-width="1" stroke="white" geotype="commune" geoname="Brillac" code_insee="16065" code_canton="1610"/><polygon points="294,262 290,262 288,276 278,277 278,285 291,290 274,291 260,299 253,292 249,293 233,287 228,277 240,276 248,271 258,272 259,265 254,264 255,259 269,260 276,249 282,247 296,254 294,262" id="16070" class="commune" fill="steelblue" stroke-width="1" stroke="white" geotype="commune" geoname="Chabanais" code_insee="16070" code_canton="1610"/><polygon points="295,242 291,234 279,233 273,226 282,216 274,214 266,206 262,206 285,188 287,189 293,187 294,189 306,189 310,191 314,188 330,196 327,207 338,216 340,218 333,223 319,223 316,233 319,236 316,239 306,243 297,245 295,242" id="16071" class="commune" fill="steelblue" stroke-width="1" stroke="white" geotype="commune" geoname="Chabrac" code_insee="16071" code_canton="1610"/><polygon points="291,290 278,285 278,277 288,276 290,262 294,262 313,273 327,277 361,269 366,271 369,269 375,272 352,307 342,311 336,318 322,307 324,303 310,304 307,299 302,298 291,290" id="16086" class="commune" fill="steelblue" stroke-width="1" stroke="white" geotype="commune" geoname="Chassenon" code_insee="16086" code_canton="1610"/><polygon points="191,234 189,219 200,205 198,189 204,188 216,192 217,196 228,196 233,203 237,204 237,207 242,206 248,209 248,213 253,217 254,208 258,206 262,206 266,206 274,214 282,216 273,226 279,233 291,234 295,242 296,254 282,247 276,249 269,260 255,259 246,257 242,252 245,244 239,240 233,242 222,236 218,236 215,239 209,235 205,237 197,233 191,234" id="16100" class="commune" fill="steelblue" stroke-width="1" stroke="white" geotype="commune" geoname="Chirac" code_insee="16100" code_canton="1610"/><polygon points="206,150 207,143 222,132 189,121 183,114 176,113 173,107 167,106 174,104 179,97 183,98 187,96 199,97 205,100 212,98 218,103 233,103 229,109 232,108 231,117 245,117 247,123 241,129 245,130 244,140 242,144 238,144 229,151 227,148 206,150" id="16106" class="commune" fill="steelblue" stroke-width="1" stroke="white" geotype="commune" geoname="Confolens" code_insee="16106" code_canton="1610"/><polygon points="92,98 76,88 69,81 57,72 68,65 66,62 96,55 110,49 114,51 119,50 130,63 130,66 124,69 110,69 113,76 107,86 92,98" id="16128" class="commune" fill="steelblue" stroke-width="1" stroke="white" geotype="commune" geoname="Épenède" code_insee="16128" code_canton="1610"/><polygon points="271,89 283,89 289,93 295,93 299,90 304,94 315,94 320,98 323,99 324,105 323,108 314,115 316,118 307,123 301,132 292,135 278,137 274,141 268,142 264,140 252,143 244,140 245,130 241,129 247,123 245,117 231,117 232,108 229,109 233,103 235,97 243,99 255,90 263,93 271,89" id="16131" class="commune" fill="steelblue" stroke-width="1" stroke="white" geotype="commune" geoname="Esse" code_insee="16131" code_canton="1610"/><polygon points="294,262 296,254 295,242 297,245 306,243 316,239 319,236 316,233 319,223 333,223 340,218 338,216 351,218 358,223 370,222 371,237 367,242 378,250 382,256 370,261 361,269 327,277 313,273 294,262" id="16132" class="commune" fill="steelblue" stroke-width="1" stroke="white" geotype="commune" geoname="Étagnac" code_insee="16132" code_canton="1610"/><polygon points="255,259 254,264 259,265 258,272 248,271 240,276 228,277 214,280 199,287 194,282 198,280 193,278 195,275 190,274 192,272 201,265 192,259 198,250 192,248 185,251 183,249 187,244 186,240 192,238 191,234 197,233 205,237 209,235 215,239 218,236 222,236 233,242 239,240 245,244 242,252 246,257 255,259" id="16134" class="commune" fill="steelblue" stroke-width="1" stroke="white" geotype="commune" geoname="Exideuil" code_insee="16134" code_canton="1610"/><polygon points="148,123 143,116 147,112 143,108 123,109 109,107 97,99 92,98 107,86 113,76 110,69 124,69 130,66 130,63 136,60 150,59 152,68 151,70 183,98 179,97 174,104 167,106 159,107 162,115 148,123" id="16164" class="commune" fill="steelblue" stroke-width="1" stroke="white" geotype="commune" geoname="Hiesse" code_insee="16164" code_canton="1610"/><polygon points="257,80 258,80 251,83 245,90 238,84 239,93 236,97 220,96 216,92 208,94 200,90 195,91 195,94 203,95 199,97 187,96 183,98 151,70 152,68 156,64 166,63 160,54 165,54 165,51 171,52 173,48 179,47 191,49 207,45 242,43 243,60 239,71 246,72 257,80" id="16181" class="commune" fill="steelblue" stroke-width="1" stroke="white" geotype="commune" geoname="Lessac" code_insee="16181" code_canton="1610"/><polygon points="320,98 324,96 331,101 337,102 340,107 353,110 358,105 357,103 361,101 362,94 368,95 364,92 372,92 383,94 385,99 392,99 400,104 384,116 378,117 388,122 376,127 381,131 378,135 380,138 373,138 376,158 370,161 344,150 341,155 331,159 321,161 320,158 311,157 314,156 314,146 299,145 292,135 301,132 307,123 316,118 314,115 323,108 324,105 323,99 320,98" id="16182" class="commune" fill="steelblue" stroke-width="1" stroke="white" geotype="commune" geoname="Lesterps" code_insee="16182" code_canton="1610"/><polygon points="142,192 149,189 145,186 158,179 166,186 181,173 200,170 196,179 198,189 200,205 189,219 191,234 192,238 186,240 187,244 183,249 176,253 180,245 171,243 171,237 164,229 165,207 142,192" id="16205" class="commune" fill="steelblue" stroke-width="1" stroke="white" geotype="commune" geoname="Manot" code_insee="16205" code_canton="1610"/><polygon points="448,117 452,121 456,120 463,122 472,127 471,131 475,128 480,131 477,136 469,138 472,139 472,143 488,147 484,155 490,158 485,161 488,163 483,167 476,166 476,169 469,173 465,169 456,172 444,173 435,169 429,161 415,157 415,147 427,133 431,132 438,137 452,132 448,133 440,126 448,117" id="16231" class="commune" fill="steelblue" stroke-width="1" stroke="white" geotype="commune" geoname="Montrollet" code_insee="16231" code_canton="1610"/><polygon points="308,50 314,47 313,42 309,43 309,38 305,38 293,23 297,20 298,13 284,6 293,5 299,0 305,4 313,3 317,9 327,6 328,9 335,7 341,11 343,7 354,10 358,4 361,5 368,2 365,5 370,5 370,9 376,9 377,12 368,13 364,16 368,18 362,20 367,23 369,21 368,26 373,23 370,27 372,28 374,23 379,25 378,28 388,35 385,37 388,38 385,38 388,44 384,45 386,51 381,54 378,47 372,50 371,47 359,47 362,40 354,35 354,29 346,29 349,33 345,38 329,41 330,49 325,52 329,53 326,56 308,50" id="16249" class="commune" fill="steelblue" stroke-width="1" stroke="white" geotype="commune" geoname="Oradour-Fanais" code_insee="16249" code_canton="1610"/><polygon points="171,243 180,245 176,253 183,249 185,251 192,248 198,250 192,259 201,265 192,272 190,274 195,275 193,278 180,281 165,264 160,262 158,258 153,257 159,249 168,249 166,242 171,243" id="16259" class="commune" fill="steelblue" stroke-width="1" stroke="white" geotype="commune" geoname="Péruse" code_insee="16259" code_canton="1610"/><polygon points="0,39 10,35 8,33 12,34 18,31 29,11 44,13 49,4 65,9 61,16 55,18 64,25 68,23 76,26 79,34 94,45 96,55 66,62 68,65 57,72 69,81 58,86 51,80 37,75 29,67 35,55 22,51 14,54 11,53 5,55 1,49 6,44 0,39" id="16264" class="commune" fill="steelblue" stroke-width="1" stroke="white" geotype="commune" geoname="Pleuville" code_insee="16264" code_canton="1610"/><polygon points="260,299 274,291 291,290 302,298 307,299 310,304 324,303 322,307 336,318 335,322 340,331 331,333 330,337 338,345 335,350 324,351 323,345 316,344 316,339 304,342 302,335 296,332 290,336 273,332 265,336 256,335 249,328 244,315 264,311 260,299" id="16270" class="commune" fill="steelblue" stroke-width="1" stroke="white" geotype="commune" geoname="Pressignac" code_insee="16270" code_canton="1610"/><polygon points="415,157 389,165 387,170 380,168 375,169 375,166 370,165 370,161 376,158 373,138 380,138 378,135 381,131 376,127 388,122 378,117 384,116 400,104 406,106 411,111 412,121 420,124 420,121 440,108 449,113 448,117 440,126 448,133 452,132 438,137 431,132 427,133 415,147 415,157" id="16306" class="commune" fill="steelblue" stroke-width="1" stroke="white" geotype="commune" geoname="Saint-Christophe" code_insee="16306" code_canton="1610"/><polygon points="258,80 263,81 260,86 271,89 263,93 255,90 243,99 235,97 233,103 218,103 212,98 205,100 199,97 203,95 195,94 195,91 200,90 208,94 216,92 220,96 236,97 239,93 238,84 245,90 251,83 258,80" id="16322" class="commune" fill="steelblue" stroke-width="1" stroke="white" geotype="commune" geoname="Saint-Germain-de-Confolens" code_insee="16322" code_canton="1610"/><polygon points="198,189 196,179 200,170 206,150 227,148 229,151 238,144 242,144 244,140 252,143 264,140 268,142 274,141 278,137 292,135 299,145 314,146 314,156 311,157 320,158 296,179 295,184 306,189 294,189 293,187 287,189 285,188 262,206 258,206 254,208 253,217 248,213 248,209 242,206 237,207 237,204 233,203 228,196 217,196 216,192 204,188 198,189" id="16337" class="commune" fill="steelblue" stroke-width="1" stroke="white" geotype="commune" geoname="Saint-Maurice-des-Lions" code_insee="16337" code_canton="1610"/><polygon points="228,277 233,287 249,293 253,292 260,299 264,311 244,315 231,321 225,317 218,322 207,308 207,297 212,292 199,287 214,280 228,277" id="16345" class="commune" fill="steelblue" stroke-width="1" stroke="white" geotype="commune" geoname="Saint-Quentin-sur-Charente" code_insee="16345" code_canton="1610"/><polygon points="366,208 363,213 366,215 362,216 370,222 358,223 351,218 338,216 327,207 330,196 314,188 310,191 306,189 295,184 296,179 320,158 321,161 331,159 341,155 344,150 370,161 370,165 375,166 375,169 380,168 378,175 363,180 365,182 361,188 364,203 361,205 366,208" id="16363" class="commune" fill="steelblue" stroke-width="1" stroke="white" geotype="commune" geoname="Saulgond" code_insee="16363" code_canton="1610"/><polygon points="152,279 151,276 162,272 165,264 180,281 193,278 198,280 194,282 199,287 212,292 207,297 195,297 195,305 189,308 181,305 171,311 170,307 163,305 166,299 154,292 161,285 152,279" id="16376" class="commune" fill="steelblue" stroke-width="1" stroke="white" geotype="commune" geoname="Suris" code_insee="16376" code_canton="1610"/></svg>