<?xml version="1.0" encoding="utf-8"?>
<svg version="1.1" id="svgmap" xmlns="http://www.w3.org/2000/svg" xmlns:xlink="http://www.w3.org/1999/xlink" x="0px" y="0px" width="100%" height="100%" viewBox="0 0 500 223">
<polygon points="450,16 443,20 446,37 444,44 436,46 429,58 414,59 396,53 399,34 406,15 403,2 418,1 425,4 432,0 449,15 450,16" id="18001" class="commune" fill="steelblue" stroke-width="1" stroke="white" geotype="commune" geoname="Achères" code_insee="18001" code_canton="1815"/><polygon points="176,85 187,71 207,64 214,36 227,29 250,37 274,58 272,71 295,76 310,72 279,128 253,131 224,140 208,132 200,119 183,121 174,114 179,105 173,95 176,85" id="18004" class="commune" fill="steelblue" stroke-width="1" stroke="white" geotype="commune" geoname="Allogny" code_insee="18004" code_canton="1815"/><polygon points="373,175 381,175 398,181 393,189 395,193 391,195 393,198 407,202 408,200 414,206 407,214 408,221 406,223 377,222 359,220 354,216 356,206 351,204 355,185 377,183 373,175" id="18097" class="commune" fill="steelblue" stroke-width="1" stroke="white" geotype="commune" geoname="Fussy" code_insee="18097" code_canton="1815"/><polygon points="414,59 429,58 436,46 444,44 446,37 443,20 450,16 466,13 472,26 470,33 477,34 492,43 498,80 486,82 477,94 493,104 500,120 498,131 472,131 462,142 456,138 448,119 439,123 430,117 427,111 432,101 424,100 420,91 421,81 412,67 414,59" id="18145" class="commune" fill="steelblue" stroke-width="1" stroke="white" geotype="commune" geoname="Menetou-Salon" code_insee="18145" code_canton="1815"/><polygon points="408,200 407,202 393,198 391,195 395,193 393,189 398,181 381,175 377,168 384,163 384,158 389,159 395,150 405,151 410,148 418,155 413,182 427,185 431,187 430,190 408,200" id="18179" class="commune" fill="steelblue" stroke-width="1" stroke="white" geotype="commune" geoname="Pigny" code_insee="18179" code_canton="1815"/><polygon points="396,53 414,59 412,67 421,81 420,91 424,100 432,101 427,111 430,117 426,115 425,125 416,126 404,133 400,127 380,126 380,109 381,100 391,93 394,85 401,82 403,73 397,69 402,65 396,60 396,53" id="18189" class="commune" fill="steelblue" stroke-width="1" stroke="white" geotype="commune" geoname="Quantilly" code_insee="18189" code_canton="1815"/><polygon points="224,140 253,131 279,128 284,136 295,133 301,143 295,151 302,163 305,184 319,203 329,205 325,211 316,212 304,207 268,205 267,197 255,187 233,181 222,171 212,170 208,167 199,170 194,159 223,153 224,140" id="18206" class="commune" fill="steelblue" stroke-width="1" stroke="white" geotype="commune" geoname="Saint-Éloy-de-Gy" code_insee="18206" code_canton="1815"/><polygon points="381,175 373,175 367,169 368,163 363,164 364,161 350,154 341,151 336,152 329,144 356,140 371,142 371,136 380,126 400,127 404,133 404,141 410,148 405,151 395,150 389,159 384,158 384,163 377,168 381,175" id="18211" class="commune" fill="steelblue" stroke-width="1" stroke="white" geotype="commune" geoname="Saint-Georges-sur-Moulon" code_insee="18211" code_canton="1815"/><polygon points="174,114 175,117 166,121 140,124 134,120 131,124 125,119 98,119 92,103 95,98 89,94 74,92 65,85 55,87 51,77 40,76 24,75 8,68 9,65 2,60 0,36 3,34 26,32 66,43 70,49 104,74 120,78 125,72 132,75 128,83 132,84 132,87 147,89 165,82 176,85 173,95 179,105 174,114" id="18219" class="commune" fill="steelblue" stroke-width="1" stroke="white" geotype="commune" geoname="Saint-Laurent" code_insee="18219" code_canton="1815"/><polygon points="279,128 310,72 315,73 320,84 333,88 352,110 360,110 362,112 380,109 380,126 371,136 371,142 356,140 329,144 317,149 306,142 301,143 295,133 284,136 279,128" id="18223" class="commune" fill="steelblue" stroke-width="1" stroke="white" geotype="commune" geoname="Saint-Martin-d'Auxigny" code_insee="18223" code_canton="1815"/><polygon points="399,34 396,53 396,60 402,65 397,69 403,73 401,82 394,85 391,93 381,100 380,109 362,112 360,110 352,110 333,88 320,84 315,73 313,69 336,59 334,49 342,50 351,38 348,33 399,34" id="18229" class="commune" fill="steelblue" stroke-width="1" stroke="white" geotype="commune" geoname="Saint-Palais" code_insee="18229" code_canton="1815"/><polygon points="354,216 343,216 334,221 325,211 329,205 319,203 305,184 302,163 295,151 301,143 306,142 317,149 329,144 336,152 341,151 350,154 364,161 363,164 368,163 367,169 373,175 377,183 355,185 351,204 356,206 354,216" id="18271" class="commune" fill="steelblue" stroke-width="1" stroke="white" geotype="commune" geoname="Vasselay" code_insee="18271" code_canton="1815"/><polygon points="430,117 439,123 448,119 456,138 462,142 460,168 427,185 413,182 418,155 410,148 404,141 404,133 416,126 425,125 426,115 430,117" id="18280" class="commune" fill="steelblue" stroke-width="1" stroke="white" geotype="commune" geoname="Vignoux-sous-les-Aix" code_insee="18280" code_canton="1815"/><polygon points="175,117 163,129 159,130 154,127 145,131 126,146 124,141 120,144 112,136 90,146 100,154 93,159 85,159 81,148 76,148 58,134 36,130 37,127 34,129 34,126 27,123 15,123 52,101 40,76 51,77 55,87 65,85 74,92 89,94 95,98 92,103 98,119 125,119 131,124 134,120 140,124 166,121 175,117" id="18281" class="commune" fill="steelblue" stroke-width="1" stroke="white" geotype="commune" geoname="Vignoux-sur-Barangeon" code_insee="18281" code_canton="1815"/><polygon points="214,36 207,64 187,71 176,85 165,82 147,89 132,87 132,84 128,83 132,75 125,72 120,78 104,74 70,49 66,43 26,32 33,27 32,18 43,12 56,11 55,8 84,4 88,1 92,5 102,7 122,1 128,15 164,28 190,25 208,28 214,36" id="18290" class="commune" fill="steelblue" stroke-width="1" stroke="white" geotype="commune" geoname="Vouzeron" code_insee="18290" code_canton="1815"/></svg>