<?xml version="1.0" encoding="utf-8"?>
<svg version="1.1" id="svgmap" xmlns="http://www.w3.org/2000/svg" xmlns:xlink="http://www.w3.org/1999/xlink" x="0px" y="0px" width="100%" height="100%" viewBox="0 0 500 321">
<polygon points="292,131 315,85 313,31 382,30 432,44 463,83 476,71 500,81 491,120 445,108 413,125 423,143 375,161 335,126 292,131" id="19043" class="commune" fill="steelblue" stroke-width="1" stroke="white" geotype="commune" geoname="Chapelle-aux-Brocs" code_insee="19043" code_canton="1905"/><polygon points="292,131 253,195 264,265 225,287 217,321 137,321 104,315 66,268 6,203 0,170 34,165 37,145 56,154 78,141 63,112 76,113 107,51 85,27 163,33 190,10 236,0 313,31 315,85 292,131" id="19063" class="commune" fill="steelblue" stroke-width="1" stroke="white" geotype="commune" geoname="Cosnac" code_insee="19063" code_canton="1905"/></svg>