<?xml version="1.0" encoding="utf-8"?>
<svg version="1.1" id="svgmap" xmlns="http://www.w3.org/2000/svg" xmlns:xlink="http://www.w3.org/1999/xlink" x="0px" y="0px" width="100%" height="100%" viewBox="0 0 500 262">
<polygon points="181,92 177,84 185,69 180,66 179,61 182,48 175,46 173,43 186,38 194,49 194,54 200,61 194,64 198,67 203,67 201,69 205,70 206,74 215,79 219,90 216,89 217,92 212,93 214,96 217,95 217,98 211,95 207,96 202,93 191,95 181,92" id="22005" class="commune" fill="steelblue" stroke-width="1" stroke="white" geotype="commune" geoname="Belle-Isle-en-Terre" code_insee="22005" code_canton="2203"/><polygon points="308,101 308,96 313,92 318,90 321,92 329,91 330,88 336,85 345,85 348,93 344,98 347,101 354,98 355,100 362,98 361,100 364,100 378,90 395,92 398,91 396,95 400,100 392,116 400,124 406,127 410,126 405,132 400,144 393,143 386,147 383,146 375,155 381,167 368,175 365,171 348,171 338,169 322,158 313,157 303,160 300,157 302,153 298,150 295,141 297,137 308,132 305,115 316,107 308,101" id="22013" class="commune" fill="steelblue" stroke-width="1" stroke="white" geotype="commune" geoname="Bourbriac" code_insee="22013" code_canton="2203"/><polygon points="273,140 276,156 273,161 269,164 264,164 256,173 251,174 251,179 245,179 240,188 231,189 223,178 212,173 209,169 200,167 194,169 193,167 204,158 206,148 212,144 200,137 241,128 245,136 254,136 261,142 273,140" id="22023" class="commune" fill="steelblue" stroke-width="1" stroke="white" geotype="commune" geoname="Bulat-Pestivien" code_insee="22023" code_canton="2203"/><polygon points="88,147 95,137 99,139 103,137 106,138 111,137 115,139 125,137 137,138 153,144 135,152 121,164 118,163 112,166 96,167 95,170 87,161 88,147" id="22024" class="commune" fill="steelblue" stroke-width="1" stroke="white" geotype="commune" geoname="Calanhel" code_insee="22024" code_canton="2203"/><polygon points="153,144 176,149 186,143 190,143 195,137 200,137 212,144 206,148 204,158 193,167 194,169 190,177 184,181 175,182 170,186 171,190 162,201 135,201 138,200 141,194 149,191 148,186 133,181 126,168 121,164 135,152 153,144" id="22025" class="commune" fill="steelblue" stroke-width="1" stroke="white" geotype="commune" geoname="Callac" code_insee="22025" code_canton="2203"/><polygon points="7,184 24,186 54,200 66,194 73,193 83,200 96,204 102,211 106,211 108,215 111,216 111,228 108,229 104,235 95,239 89,243 86,252 81,256 77,256 71,251 58,262 57,260 51,261 48,257 51,253 44,241 45,233 38,232 42,224 45,223 42,221 45,217 42,215 48,210 45,206 46,204 37,203 35,206 32,203 22,201 18,202 12,198 4,198 0,196 6,192 3,190 4,186 7,184" id="22031" class="commune" fill="steelblue" stroke-width="1" stroke="white" geotype="commune" geoname="Carnoët" code_insee="22031" code_canton="2203"/><polygon points="195,137 190,143 186,143 176,149 153,144 137,138 125,137 115,139 111,137 106,138 103,137 99,139 95,137 100,127 110,124 110,119 109,114 113,109 119,109 123,111 134,111 141,114 146,112 149,116 178,122 179,135 186,134 188,137 195,137" id="22037" class="commune" fill="steelblue" stroke-width="1" stroke="white" geotype="commune" geoname="Chapelle-Neuve" code_insee="22037" code_canton="2203"/><polygon points="403,85 398,91 395,92 378,90 364,100 361,100 362,98 355,100 354,98 347,101 344,98 348,93 345,85 347,77 350,77 356,79 366,78 376,76 380,73 385,82 392,81 403,85" id="22040" class="commune" fill="steelblue" stroke-width="1" stroke="white" geotype="commune" geoname="Coadout" code_insee="22040" code_canton="2203"/><polygon points="111,216 114,213 112,209 120,203 135,201 162,201 173,203 180,202 180,206 185,209 180,217 187,222 182,233 172,228 158,226 134,229 129,232 108,229 111,228 111,216" id="22052" class="commune" fill="steelblue" stroke-width="1" stroke="white" geotype="commune" geoname="Duault" code_insee="22052" code_canton="2203"/><polygon points="313,92 308,96 308,101 296,105 280,106 277,105 260,110 248,108 241,109 236,107 241,98 239,92 246,89 248,85 258,82 257,81 261,81 261,79 267,82 272,78 280,77 280,75 290,73 289,71 293,70 299,71 297,73 302,77 299,89 313,92" id="22072" class="commune" fill="steelblue" stroke-width="1" stroke="white" geotype="commune" geoname="Gurunhuel" code_insee="22072" code_canton="2203"/><polygon points="300,157 303,160 313,157 322,158 338,169 348,171 365,171 358,177 362,182 356,185 351,195 339,198 335,195 326,195 317,195 314,197 308,197 306,194 301,186 303,183 296,181 291,174 292,166 289,163 292,158 300,157" id="22088" class="commune" fill="steelblue" stroke-width="1" stroke="white" geotype="commune" geoname="Kerien" code_insee="22088" code_canton="2203"/><polygon points="384,213 385,210 377,202 378,198 382,188 379,186 386,180 397,176 397,171 415,169 414,179 426,173 431,176 433,183 427,194 422,197 423,209 418,214 421,221 401,219 390,212 384,213" id="22092" class="commune" fill="steelblue" stroke-width="1" stroke="white" geotype="commune" geoname="Kerpert" code_insee="22092" code_canton="2203"/><polygon points="177,84 181,92 180,99 176,101 161,99 162,96 157,94 161,85 166,82 177,84" id="22129" class="commune" fill="steelblue" stroke-width="1" stroke="white" geotype="commune" geoname="Loc-Envel" code_insee="22129" code_canton="2203"/><polygon points="95,137 88,147 86,148 83,146 74,145 58,149 49,145 47,140 34,141 24,135 25,132 29,132 32,128 40,130 46,124 42,121 55,121 59,125 63,123 65,126 67,123 70,123 75,119 85,121 90,119 89,117 95,116 99,115 101,119 106,117 110,119 110,124 100,127 95,137" id="22132" class="commune" fill="steelblue" stroke-width="1" stroke="white" geotype="commune" geoname="Lohuec" code_insee="22132" code_canton="2203"/><polygon points="267,49 270,56 276,55 274,61 280,75 280,77 272,78 267,82 261,79 261,81 257,81 258,82 248,85 246,89 239,92 233,88 219,90 215,79 206,74 205,70 201,69 203,67 198,67 194,64 200,61 194,54 194,49 186,38 189,37 188,36 194,25 194,18 196,17 194,17 193,14 197,7 195,6 199,3 210,2 211,0 218,2 225,0 225,2 230,0 239,8 239,12 239,16 248,22 243,27 257,33 260,41 258,45 267,49" id="22135" class="commune" fill="steelblue" stroke-width="1" stroke="white" geotype="commune" geoname="Louargat" code_insee="22135" code_canton="2203"/><polygon points="295,141 298,150 302,153 300,157 292,158 289,163 292,166 291,174 296,181 303,183 301,186 306,194 303,192 298,192 294,202 288,202 289,208 285,210 285,214 275,214 267,211 255,213 250,209 237,197 231,189 240,188 245,179 251,179 251,174 256,173 264,164 269,164 273,161 276,156 273,140 281,142 289,140 292,142 295,141" id="22138" class="commune" fill="steelblue" stroke-width="1" stroke="white" geotype="commune" geoname="Maël-Pestivien" code_insee="22138" code_canton="2203"/><polygon points="378,198 374,197 373,198 362,197 351,202 353,196 351,195 356,185 362,182 358,177 365,171 368,175 381,167 383,167 390,170 384,175 383,179 386,180 379,186 382,188 378,198" id="22139" class="commune" fill="steelblue" stroke-width="1" stroke="white" geotype="commune" geoname="Magoar" code_insee="22139" code_canton="2203"/><polygon points="329,60 334,59 339,70 343,69 349,70 350,77 347,77 345,85 336,85 330,88 329,91 321,92 318,90 313,92 299,89 302,77 297,73 299,71 293,70 294,61 315,63 329,60" id="22156" class="commune" fill="steelblue" stroke-width="1" stroke="white" geotype="commune" geoname="Moustéru" code_insee="22156" code_canton="2203"/><polygon points="381,167 375,155 383,146 386,147 393,143 400,144 405,132 410,126 416,127 424,124 424,115 429,116 431,120 435,121 439,133 446,137 446,139 441,142 439,148 440,156 445,160 445,164 440,167 434,166 428,169 421,167 415,169 397,171 397,176 386,180 383,179 384,175 390,170 383,167 381,167" id="22189" class="commune" fill="steelblue" stroke-width="1" stroke="white" geotype="commune" geoname="Plésidy" code_insee="22189" code_canton="2203"/><polygon points="200,137 195,137 188,137 186,134 179,135 178,122 149,116 146,112 141,114 134,111 140,111 142,102 146,105 155,98 161,99 176,101 180,99 181,92 191,95 202,93 207,96 211,95 217,98 217,95 214,96 212,93 217,92 216,89 219,90 233,88 239,92 241,98 236,107 241,109 247,123 241,128 200,137" id="22216" class="commune" fill="steelblue" stroke-width="1" stroke="white" geotype="commune" geoname="Plougonver" code_insee="22216" code_canton="2203"/><polygon points="73,193 66,194 54,200 24,186 7,184 6,167 19,157 37,152 49,145 58,149 74,145 83,146 86,148 88,147 87,161 76,174 72,176 74,178 67,179 73,184 70,188 73,193" id="22231" class="commune" fill="steelblue" stroke-width="1" stroke="white" geotype="commune" geoname="Plourac'h" code_insee="22231" code_canton="2203"/><polygon points="135,201 120,203 112,209 114,213 111,216 108,215 106,211 102,211 96,204 83,200 73,193 70,188 73,184 67,179 74,178 72,176 76,174 87,161 95,170 96,167 112,166 118,163 121,164 126,168 133,181 148,186 149,191 141,194 138,200 135,201" id="22243" class="commune" fill="steelblue" stroke-width="1" stroke="white" geotype="commune" geoname="Plusquellec" code_insee="22243" code_canton="2203"/><polygon points="308,101 316,107 305,115 308,132 297,137 295,141 292,142 289,140 281,142 273,140 261,142 254,136 245,136 241,128 247,123 241,109 248,108 260,110 277,105 280,106 296,105 308,101" id="22249" class="commune" fill="steelblue" stroke-width="1" stroke="white" geotype="commune" geoname="Pont-Melvez" code_insee="22249" code_canton="2203"/><polygon points="398,91 403,85 422,101 420,110 424,115 424,124 416,127 410,126 406,127 400,124 392,116 400,100 396,95 398,91" id="22271" class="commune" fill="steelblue" stroke-width="1" stroke="white" geotype="commune" geoname="Saint-Adrien" code_insee="22271" code_canton="2203"/><polygon points="237,197 250,209 236,214 237,220 240,220 238,221 244,228 247,226 261,226 267,232 265,236 260,238 253,238 245,243 232,241 223,240 216,241 213,235 207,232 201,235 195,234 197,232 189,226 204,224 211,219 212,214 231,206 231,199 237,197" id="22320" class="commune" fill="steelblue" stroke-width="1" stroke="white" geotype="commune" geoname="Saint-Nicodème" code_insee="22320" code_canton="2203"/><polygon points="231,189 237,197 231,199 231,206 212,214 211,219 204,224 189,226 197,232 195,234 193,233 188,235 182,233 187,222 180,217 185,209 180,206 180,202 173,203 162,201 171,190 170,186 175,182 184,181 190,177 194,169 200,167 209,169 212,173 223,178 231,189" id="22328" class="commune" fill="steelblue" stroke-width="1" stroke="white" geotype="commune" geoname="Saint-Servais" code_insee="22328" code_canton="2203"/><polygon points="445,164 445,160 440,156 439,148 441,142 446,139 453,143 460,141 462,146 471,151 482,147 491,149 497,149 496,154 499,155 492,160 500,166 492,169 483,163 480,166 465,166 457,171 445,164" id="22335" class="commune" fill="steelblue" stroke-width="1" stroke="white" geotype="commune" geoname="Senven-Léhart" code_insee="22335" code_canton="2203"/><polygon points="280,75 274,61 276,55 270,56 267,49 276,46 277,41 293,33 297,41 305,41 306,38 314,37 316,34 332,37 340,40 337,41 344,47 334,57 327,58 329,60 315,63 294,61 293,70 289,71 290,73 280,75" id="22354" class="commune" fill="steelblue" stroke-width="1" stroke="white" geotype="commune" geoname="Tréglamus" code_insee="22354" code_canton="2203"/></svg>