<?xml version="1.0" encoding="utf-8"?>
<svg version="1.1" id="svgmap" xmlns="http://www.w3.org/2000/svg" xmlns:xlink="http://www.w3.org/1999/xlink" x="0px" y="0px" width="100%" height="100%" viewBox="0 0 500 349">
<polygon points="492,314 413,317 365,325 360,335 320,349 285,334 266,304 285,280 257,258 287,234 261,226 248,195 252,159 359,124 443,232 490,257 500,285 492,314" id="26005" class="commune" fill="steelblue" stroke-width="1" stroke="white" geotype="commune" geoname="Allan" code_insee="26005" code_canton="2609"/><polygon points="257,258 203,260 179,242 113,246 124,304 116,318 89,322 41,325 38,286 7,252 0,219 18,170 49,146 64,114 149,139 145,148 160,155 252,159 248,195 261,226 287,234 257,258" id="26085" class="commune" fill="steelblue" stroke-width="1" stroke="white" geotype="commune" geoname="Châteauneuf-du-Rhône" code_insee="26085" code_canton="2609"/><polygon points="490,257 443,232 359,124 346,118 357,100 384,107 385,77 419,84 426,94 443,91 463,112 494,118 479,189 492,200 496,243 490,257" id="26121" class="commune" fill="steelblue" stroke-width="1" stroke="white" geotype="commune" geoname="Espeluche" code_insee="26121" code_canton="2609"/><polygon points="500,20 496,57 465,66 465,90 443,91 426,94 419,84 385,77 384,107 357,100 325,84 339,25 357,13 392,22 458,0 500,20" id="26191" class="commune" fill="steelblue" stroke-width="1" stroke="white" geotype="commune" geoname="Montboucher-sur-Jabron" code_insee="26191" code_canton="2609"/></svg>