<?xml version="1.0" encoding="utf-8"?>
<svg version="1.1" id="svgmap" xmlns="http://www.w3.org/2000/svg" xmlns:xlink="http://www.w3.org/1999/xlink" x="0px" y="0px" width="100%" height="100%" viewBox="0 0 500 271">
<polygon points="432,111 419,132 407,126 403,132 402,124 394,127 402,117 411,115 412,112 422,113 423,110 432,111" id="27023" class="commune" fill="steelblue" stroke-width="1" stroke="white" geotype="commune" geoname="Aulnay-sur-Iton" code_insee="27023" code_canton="2708"/><polygon points="211,188 217,188 231,230 244,239 229,248 208,270 184,271 163,243 187,222 173,219 184,210 211,188" id="27047" class="commune" fill="steelblue" stroke-width="1" stroke="white" geotype="commune" geoname="Beaubray" code_insee="27047" code_canton="2708"/><polygon points="361,102 358,100 363,98 367,97 378,105 400,100 402,109 409,106 423,110 422,113 412,112 411,115 402,117 394,127 389,133 389,130 380,135 372,130 380,126 378,119 373,119 367,102 361,102" id="27082" class="commune" fill="steelblue" stroke-width="1" stroke="white" geotype="commune" geoname="Bonneville-sur-Iton" code_insee="27082" code_canton="2708"/><polygon points="278,143 256,143 241,106 249,105 262,97 268,104 274,102 276,105 274,114 282,131 278,143" id="27120" class="commune" fill="steelblue" stroke-width="1" stroke="white" geotype="commune" geoname="Burey" code_insee="27120" code_canton="2708"/><polygon points="363,98 356,81 364,81 366,67 376,63 376,60 383,62 389,55 405,57 425,50 445,55 444,70 433,70 429,76 422,75 409,82 406,87 416,92 400,100 378,105 367,97 363,98" id="27132" class="commune" fill="steelblue" stroke-width="1" stroke="white" geotype="commune" geoname="Caugé" code_insee="27132" code_canton="2708"/><polygon points="344,177 335,163 347,157 346,152 366,164 363,168 368,173 363,179 344,177" id="27141" class="commune" fill="steelblue" stroke-width="1" stroke="white" geotype="commune" geoname="Champ-Dolent" code_insee="27141" code_canton="2708"/><polygon points="418,36 425,50 405,57 389,55 383,62 376,60 376,63 366,67 364,81 356,81 345,75 335,62 322,59 314,51 326,41 334,39 327,20 348,15 347,13 368,10 382,12 379,18 390,30 415,32 418,36" id="27161" class="commune" fill="steelblue" stroke-width="1" stroke="white" geotype="commune" geoname="Claville" code_insee="27161" code_canton="2708"/><polygon points="145,99 158,95 166,102 170,101 170,106 179,106 176,109 184,112 188,122 190,127 166,127 162,134 140,137 134,139 131,134 124,136 119,130 111,132 110,121 120,117 134,116 145,99" id="27162" class="commune" fill="steelblue" stroke-width="1" stroke="white" geotype="commune" geoname="Collandres-Quincarnon" code_insee="27162" code_canton="2708"/><polygon points="217,188 211,188 184,184 212,156 213,153 209,152 212,148 234,148 238,152 257,147 256,143 278,143 278,151 283,152 278,176 297,200 297,201 272,207 269,205 270,195 217,188" id="27165" class="commune" fill="steelblue" stroke-width="1" stroke="white" geotype="commune" geoname="Conches-en-Ouche" code_insee="27165" code_canton="2708"/><polygon points="304,103 308,104 317,107 321,118 329,120 320,131 323,142 309,149 301,140 281,114 283,111 295,102 304,103" id="27189" class="commune" fill="steelblue" stroke-width="1" stroke="white" geotype="commune" geoname="Croisille" code_insee="27189" code_canton="2708"/><polygon points="262,97 249,105 241,106 231,106 227,85 230,64 225,53 233,50 248,71 248,81 262,97" id="27235" class="commune" fill="steelblue" stroke-width="1" stroke="white" geotype="commune" geoname="Faverolles-la-Campagne" code_insee="27235" code_canton="2708"/><polygon points="363,98 358,100 361,102 352,106 350,103 330,106 310,98 308,104 304,103 305,99 282,85 287,82 285,78 291,79 293,63 314,51 322,59 335,62 345,75 356,81 363,98" id="27238" class="commune" fill="steelblue" stroke-width="1" stroke="white" geotype="commune" geoname="Ferrières-Haut-Clocher" code_insee="27238" code_canton="2708"/><polygon points="40,145 39,141 49,137 52,136 50,140 41,146 40,145" id="27240" class="commune" fill="steelblue" stroke-width="1" stroke="white" geotype="commune" geoname="Ferrière-sur-Risle" code_insee="27240" code_canton="2708"/><polygon points="53,241 35,236 42,218 23,222 20,209 15,209 20,203 12,200 10,194 5,198 0,186 41,146 50,140 116,165 135,177 146,179 150,195 135,194 91,212 53,241" id="27242" class="commune" fill="steelblue" stroke-width="1" stroke="white" geotype="commune" geoname="Fidelaire" code_insee="27242" code_canton="2708"/><polygon points="344,177 340,178 315,190 311,186 306,188 309,190 297,200 278,176 283,152 301,140 309,149 314,154 328,157 335,163 344,177" id="27268" class="commune" fill="steelblue" stroke-width="1" stroke="white" geotype="commune" geoname="Fresne" code_insee="27268" code_canton="2708"/><polygon points="363,179 368,173 363,168 366,164 346,152 350,144 361,140 369,142 376,151 384,154 387,150 386,155 404,161 404,172 417,178 407,188 397,188 380,177 367,182 363,179" id="27281" class="commune" fill="steelblue" stroke-width="1" stroke="white" geotype="commune" geoname="Gaudreville-la-Rivière" code_insee="27281" code_canton="2708"/><polygon points="418,36 431,30 455,29 467,24 468,27 477,41 496,51 491,50 479,57 457,52 445,55 425,50 418,36" id="27282" class="commune" fill="steelblue" stroke-width="1" stroke="white" geotype="commune" geoname="Gauville-la-Campagne" code_insee="27282" code_canton="2708"/><polygon points="361,102 367,102 373,119 378,119 380,126 372,130 380,135 366,138 369,142 361,140 350,144 346,152 347,157 335,163 328,157 314,154 309,149 323,142 320,131 329,120 321,118 317,107 308,104 310,98 330,106 350,103 352,106 361,102" id="27287" class="commune" fill="steelblue" stroke-width="1" stroke="white" geotype="commune" geoname="Glisolles" code_insee="27287" code_canton="2708"/><polygon points="204,90 213,91 211,81 220,81 227,85 231,106 241,106 256,143 257,147 238,152 234,148 212,148 192,132 190,127 188,122 198,117 215,115 213,110 218,110 206,95 208,91 204,90" id="27374" class="commune" fill="steelblue" stroke-width="1" stroke="white" geotype="commune" geoname="Louversey" code_insee="27374" code_canton="2708"/><polygon points="340,178 343,189 334,194 344,204 325,215 330,221 326,226 323,222 306,226 314,208 301,202 299,206 297,201 297,200 309,190 306,188 311,186 315,190 340,178" id="27402" class="commune" fill="steelblue" stroke-width="1" stroke="white" geotype="commune" geoname="Mesnil-Hardray" code_insee="27402" code_canton="2708"/><polygon points="244,239 231,230 217,188 270,195 269,205 272,207 297,201 299,206 302,230 294,226 244,239" id="27424" class="commune" fill="steelblue" stroke-width="1" stroke="white" geotype="commune" geoname="Nagel-Séez-Mesnil" code_insee="27424" code_canton="2708"/><polygon points="344,204 353,198 365,209 405,196 401,201 380,228 370,227 337,235 325,244 323,239 312,242 301,236 302,230 299,206 301,202 314,208 306,226 323,222 326,226 330,221 325,215 344,204" id="27436" class="commune" fill="steelblue" stroke-width="1" stroke="white" geotype="commune" geoname="Nogent-le-Sec" code_insee="27436" code_canton="2708"/><polygon points="326,41 314,51 293,63 267,56 243,41 238,47 237,41 231,43 230,32 251,26 251,23 251,11 270,4 272,0 296,8 298,13 310,16 307,25 297,30 317,41 326,41" id="27446" class="commune" fill="steelblue" stroke-width="1" stroke="white" geotype="commune" geoname="Ormes" code_insee="27446" code_canton="2708"/><polygon points="340,178 344,177 363,179 367,182 380,177 397,188 407,188 411,188 405,196 365,209 353,198 344,204 334,194 343,189 340,178" id="27447" class="commune" fill="steelblue" stroke-width="1" stroke="white" geotype="commune" geoname="Orvaux" code_insee="27447" code_canton="2708"/><polygon points="444,70 445,55 457,52 479,57 500,70 485,78 463,79 454,81 444,70" id="27451" class="commune" fill="steelblue" stroke-width="1" stroke="white" geotype="commune" geoname="Parville" code_insee="27451" code_canton="2708"/><polygon points="283,111 280,105 276,105 274,102 268,104 262,97 248,81 248,71 233,50 238,47 243,41 267,56 293,63 291,79 285,78 287,82 282,85 305,99 304,103 295,102 283,111" id="27472" class="commune" fill="steelblue" stroke-width="1" stroke="white" geotype="commune" geoname="Portes" code_insee="27472" code_canton="2708"/><polygon points="276,105 280,105 283,111 281,114 301,140 283,152 278,151 278,143 282,131 274,114 276,105" id="27535" class="commune" fill="steelblue" stroke-width="1" stroke="white" geotype="commune" geoname="Saint-Élier" code_insee="27535" code_canton="2708"/><polygon points="211,188 184,210 170,216 155,217 150,195 146,179 150,179 160,171 148,158 150,140 140,137 162,134 166,127 190,127 192,132 212,148 209,152 213,153 212,156 184,184 211,188" id="27568" class="commune" fill="steelblue" stroke-width="1" stroke="white" geotype="commune" geoname="Sainte-Marthe" code_insee="27568" code_canton="2708"/><polygon points="110,121 111,132 119,130 124,136 131,134 134,139 140,137 150,140 148,158 160,171 150,179 146,179 135,177 116,165 50,140 52,136 54,133 60,134 63,129 70,129 80,123 80,116 71,112 72,109 87,108 102,110 102,116 110,121" id="27618" class="commune" fill="steelblue" stroke-width="1" stroke="white" geotype="commune" geoname="Sébécourt" code_insee="27618" code_canton="2708"/><polygon points="158,95 191,83 197,91 204,90 208,91 206,95 218,110 213,110 215,115 198,117 188,122 184,112 176,109 179,106 170,106 170,101 166,102 158,95" id="27640" class="commune" fill="steelblue" stroke-width="1" stroke="white" geotype="commune" geoname="Tilleul-Dame-Agnès" code_insee="27640" code_canton="2708"/><polygon points="419,132 436,140 435,150 440,149 441,153 450,159 455,158 456,173 468,175 478,186 484,183 496,195 488,200 490,203 485,204 476,206 464,201 446,207 455,221 442,224 438,218 425,206 415,203 421,199 422,190 411,188 407,188 417,178 404,172 404,161 386,155 387,150 384,154 376,151 369,142 366,138 380,135 389,130 389,133 394,127 402,124 403,132 407,126 419,132" id="27678" class="commune" fill="steelblue" stroke-width="1" stroke="white" geotype="commune" geoname="Ventes" code_insee="27678" code_canton="2708"/></svg>