<?xml version="1.0" encoding="utf-8"?>
<svg version="1.1" id="svgmap" xmlns="http://www.w3.org/2000/svg" xmlns:xlink="http://www.w3.org/1999/xlink" x="0px" y="0px" width="100%" height="100%" viewBox="0 0 500 305">
<polygon points="337,154 344,159 333,171 331,184 322,176 306,195 272,197 276,200 264,204 262,199 249,205 240,199 243,196 233,191 241,182 241,174 233,174 236,165 223,146 231,143 233,132 239,131 245,119 263,114 265,107 337,154" id="28035" class="commune" fill="steelblue" stroke-width="1" stroke="white" geotype="commune" geoname="Berchères-les-Pierres" code_insee="28035" code_canton="2805"/><polygon points="87,210 79,211 76,220 96,224 89,236 104,246 116,246 122,260 112,264 123,280 118,289 118,297 105,299 101,296 66,300 67,294 52,294 46,290 50,284 39,281 32,264 18,269 19,264 13,266 0,247 11,247 14,229 35,230 32,221 37,211 60,210 68,205 87,210" id="28048" class="commune" fill="steelblue" stroke-width="1" stroke="white" geotype="commune" geoname="Bourdinière-Saint-Loup" code_insee="28048" code_canton="2805"/><polygon points="223,146 236,165 233,174 241,174 241,182 233,191 225,197 219,188 203,196 199,189 181,188 178,175 176,165 188,163 185,156 196,151 193,145 219,141 223,146" id="28107" class="commune" fill="steelblue" stroke-width="1" stroke="white" geotype="commune" geoname="Corancez" code_insee="28107" code_canton="2805"/><polygon points="169,62 172,59 171,66 202,64 210,70 221,76 209,75 221,90 212,94 218,104 206,108 196,107 186,97 172,99 166,85 155,87 157,74 169,62" id="28110" class="commune" fill="steelblue" stroke-width="1" stroke="white" geotype="commune" geoname="Coudray" code_insee="28110" code_canton="2805"/><polygon points="233,191 243,196 240,199 249,205 262,199 264,204 270,227 275,226 279,236 263,238 270,261 261,264 242,251 227,248 227,257 186,253 185,247 174,254 167,252 138,252 130,246 116,246 104,246 89,236 96,224 76,220 79,211 87,210 114,184 122,176 140,185 143,181 152,184 155,179 161,180 167,174 178,175 181,188 199,189 203,196 219,188 225,197 233,191" id="28122" class="commune" fill="steelblue" stroke-width="1" stroke="white" geotype="commune" geoname="Dammarie" code_insee="28122" code_canton="2805"/><polygon points="118,289 123,280 112,264 122,260 116,246 130,246 138,252 167,252 166,261 176,262 171,281 184,285 183,294 199,299 186,303 177,297 156,305 133,298 136,294 118,289" id="28162" class="commune" fill="steelblue" stroke-width="1" stroke="white" geotype="commune" geoname="Fresnay-le-Comte" code_insee="28162" code_canton="2805"/><polygon points="267,53 278,56 271,58 283,63 276,68 276,83 269,87 284,97 281,102 265,107 263,114 245,119 239,131 233,132 217,127 206,108 218,104 212,94 221,90 209,75 221,76 210,70 225,51 252,59 257,54 264,56 267,53" id="28177" class="commune" fill="steelblue" stroke-width="1" stroke="white" geotype="commune" geoname="Gellainville" code_insee="28177" code_canton="2805"/><polygon points="87,210 68,205 60,210 37,211 14,199 20,197 0,195 15,174 49,149 54,137 55,137 59,136 80,152 75,163 82,165 76,174 85,177 86,174 96,177 98,174 114,184 87,210" id="28253" class="commune" fill="steelblue" stroke-width="1" stroke="white" geotype="commune" geoname="Mignières" code_insee="28253" code_canton="2805"/><polygon points="161,124 164,119 155,89 155,87 166,85 172,99 186,97 196,107 206,108 217,127 233,132 231,143 223,146 219,141 193,145 190,142 174,141 173,135 162,132 161,124" id="28269" class="commune" fill="steelblue" stroke-width="1" stroke="white" geotype="commune" geoname="Morancez" code_insee="28269" code_canton="2805"/><polygon points="321,2 368,0 386,11 368,24 374,30 361,34 346,47 335,44 331,58 311,53 308,58 295,55 283,63 271,58 278,56 267,53 254,18 263,15 258,11 277,17 289,9 321,2" id="28278" class="commune" fill="steelblue" stroke-width="1" stroke="white" geotype="commune" geoname="Nogent-le-Phaye" code_insee="28278" code_canton="2805"/><polygon points="469,209 423,203 422,198 417,200 415,196 402,212 399,215 386,206 369,207 348,203 369,179 356,173 347,182 331,184 333,171 344,159 337,154 345,142 352,144 353,139 380,142 376,139 386,124 486,160 500,165 488,178 483,172 473,181 487,187 475,198 482,200 469,209" id="28309" class="commune" fill="steelblue" stroke-width="1" stroke="white" geotype="commune" geoname="Prunay-le-Gillon" code_insee="28309" code_canton="2805"/><polygon points="337,154 265,107 281,102 284,97 269,87 276,83 276,68 283,63 295,55 308,58 311,53 331,58 335,44 346,47 361,34 379,43 375,49 388,50 389,54 411,60 414,72 429,73 423,87 431,89 420,102 402,100 386,124 376,139 380,142 353,139 352,144 345,142 337,154" id="28380" class="commune" fill="steelblue" stroke-width="1" stroke="white" geotype="commune" geoname="Sours" code_insee="28380" code_canton="2805"/><polygon points="110,114 129,116 132,131 119,132 119,145 128,143 119,158 125,159 119,166 127,171 122,176 114,184 98,174 96,177 86,174 85,177 76,174 82,165 75,163 80,152 59,136 67,120 77,123 86,118 110,114" id="28388" class="commune" fill="steelblue" stroke-width="1" stroke="white" geotype="commune" geoname="Thivars" code_insee="28388" code_canton="2805"/><polygon points="129,116 153,119 152,128 161,124 162,132 173,135 174,141 190,142 193,145 196,151 185,156 188,163 176,165 178,175 167,174 161,180 155,179 152,184 143,181 140,185 122,176 127,171 119,166 125,159 119,158 128,143 119,145 119,132 132,131 129,116" id="28403" class="commune" fill="steelblue" stroke-width="1" stroke="white" geotype="commune" geoname="Ver-lès-Chartres" code_insee="28403" code_canton="2805"/></svg>