<?xml version="1.0" encoding="utf-8"?>
<svg version="1.1" id="svgmap" xmlns="http://www.w3.org/2000/svg" xmlns:xlink="http://www.w3.org/1999/xlink" x="0px" y="0px" width="100%" height="100%" viewBox="0 0 500 406">
<polygon points="374,4 380,0 383,5 401,6 405,12 392,15 385,20 372,13 377,8 374,4" id="2B010" class="commune" fill="steelblue" stroke-width="1" stroke="white" geotype="commune" geoname="Algajola" code_insee="2B010" code_canton="02B07"/><polygon points="401,6 410,0 420,7 420,11 427,13 426,17 433,18 438,25 444,52 434,53 424,50 418,46 409,47 401,41 389,41 382,31 385,20 392,15 405,12 401,6" id="2B020" class="commune" fill="steelblue" stroke-width="1" stroke="white" geotype="commune" geoname="Aregno" code_insee="2B020" code_canton="02B07"/><polygon points="418,72 438,62 446,67 449,63 456,65 468,60 439,86 415,79 418,72" id="2B025" class="commune" fill="steelblue" stroke-width="1" stroke="white" geotype="commune" geoname="Avapessa" code_insee="2B025" code_canton="02B07"/><polygon points="102,184 102,184 104,182 103,184 102,184" id="2B049" class="commune" fill="steelblue" stroke-width="1" stroke="white" geotype="commune" geoname="Calenzana" code_insee="2B049" code_canton="02B07"/><polygon points="461,277 455,276 449,272 442,273 417,272 405,264 396,261 385,265 382,268 372,269 361,265 360,260 346,256 343,253 332,253 322,250 313,246 309,242 308,233 311,228 308,222 299,215 295,215 293,212 284,212 271,206 258,208 245,215 235,223 232,227 225,228 220,232 216,230 216,228 209,226 207,220 203,219 201,215 192,210 185,209 165,209 159,206 147,203 144,199 145,193 139,186 122,188 113,187 106,189 103,189 103,184 106,180 109,180 109,177 113,175 119,168 124,168 122,165 125,164 124,160 126,160 125,158 127,158 126,157 127,155 125,155 127,150 123,149 124,147 126,147 126,142 124,141 126,132 138,128 138,129 146,129 147,133 149,133 155,129 161,128 161,127 166,125 168,122 165,121 165,119 170,118 171,117 176,119 178,118 181,122 185,122 187,121 199,120 199,116 196,115 203,114 204,109 216,106 226,106 230,109 229,112 234,117 246,118 252,128 259,130 262,133 265,133 280,130 302,119 303,113 309,115 330,103 347,108 348,106 356,108 379,123 385,120 388,121 396,127 402,126 403,129 407,132 410,131 422,139 428,137 435,139 444,146 456,149 459,151 468,153 472,157 476,166 476,171 479,177 469,190 465,192 469,199 471,202 472,209 470,216 463,228 469,232 467,239 475,253 474,257 468,262 468,271 461,277" id="2B049" class="commune" fill="steelblue" stroke-width="1" stroke="white" geotype="commune" geoname="Calenzana" code_insee="2B049" code_canton="02B07"/><polygon points="102,192 103,192 103,193 103,193 102,192" id="2B049" class="commune" fill="steelblue" stroke-width="1" stroke="white" geotype="commune" geoname="Calenzana" code_insee="2B049" code_canton="02B07"/><polygon points="187,63 187,63 188,63 187,64 187,63" id="2B050" class="commune" fill="steelblue" stroke-width="1" stroke="white" geotype="commune" geoname="Calvi" code_insee="2B050" code_canton="02B07"/><polygon points="191,64 191,63 191,63 191,64 191,64" id="2B050" class="commune" fill="steelblue" stroke-width="1" stroke="white" geotype="commune" geoname="Calvi" code_insee="2B050" code_canton="02B07"/><polygon points="190,112 191,112 191,112 191,112 190,112" id="2B050" class="commune" fill="steelblue" stroke-width="1" stroke="white" geotype="commune" geoname="Calvi" code_insee="2B050" code_canton="02B07"/><polygon points="191,63 191,63 192,63 191,63 191,63" id="2B050" class="commune" fill="steelblue" stroke-width="1" stroke="white" geotype="commune" geoname="Calvi" code_insee="2B050" code_canton="02B07"/><polygon points="323,81 312,83 315,89 310,94 330,103 309,115 303,113 302,119 280,130 265,133 262,133 259,130 252,128 246,118 234,117 229,112 230,109 226,106 216,106 204,109 203,114 196,115 192,111 195,108 186,105 198,99 196,93 203,92 194,85 202,81 203,76 194,71 198,69 192,64 198,57 181,59 190,53 184,49 207,38 205,52 212,52 208,55 209,70 224,65 227,60 234,62 246,59 247,56 252,60 258,59 249,69 263,77 292,75 304,65 323,81" id="2B050" class="commune" fill="steelblue" stroke-width="1" stroke="white" geotype="commune" geoname="Calvi" code_insee="2B050" code_canton="02B07"/><polygon points="424,50 434,53 444,52 472,52 469,57 468,60 456,65 449,63 446,67 438,62 418,72 414,71 412,65 422,59 424,50" id="2B084" class="commune" fill="steelblue" stroke-width="1" stroke="white" geotype="commune" geoname="Cateri" code_insee="2B084" code_canton="02B07"/><polygon points="113,228 114,228 114,229 113,229 113,228" id="2B121" class="commune" fill="steelblue" stroke-width="1" stroke="white" geotype="commune" geoname="Galéria" code_insee="2B121" code_canton="02B07"/><polygon points="10,309 11,309 11,310 10,309 10,309" id="2B121" class="commune" fill="steelblue" stroke-width="1" stroke="white" geotype="commune" geoname="Galéria" code_insee="2B121" code_canton="02B07"/><polygon points="150,361 147,358 149,355 147,348 148,346 137,345 123,347 103,342 95,336 90,327 81,329 77,327 74,329 66,330 63,330 59,325 55,327 48,327 41,331 33,332 24,328 23,324 20,324 16,319 5,317 0,315 14,315 16,310 30,316 39,308 47,309 46,299 38,292 52,286 37,278 47,276 43,268 62,267 67,261 92,266 98,272 111,270 123,243 102,232 105,230 113,230 115,228 129,229 131,218 124,214 138,200 144,199 147,203 159,206 165,209 185,209 192,210 201,215 203,219 207,220 209,226 216,228 216,230 220,232 225,228 232,227 235,223 245,215 258,208 271,206 284,212 293,212 295,215 299,215 308,222 311,228 308,233 309,242 313,246 322,250 332,253 343,253 346,256 360,260 361,265 347,270 328,288 314,292 296,294 285,283 275,280 248,284 227,280 225,276 211,278 213,288 191,295 197,301 208,306 240,309 246,316 235,319 233,333 220,343 206,369 192,360 180,362 150,361" id="2B121" class="commune" fill="steelblue" stroke-width="1" stroke="white" geotype="commune" geoname="Galéria" code_insee="2B121" code_canton="02B07"/><polygon points="382,31 389,41 401,41 409,47 418,46 424,50 422,59 412,65 414,71 406,67 390,71 377,65 363,44 382,31" id="2B138" class="commune" fill="steelblue" stroke-width="1" stroke="white" geotype="commune" geoname="Lavatoggio" code_insee="2B138" code_canton="02B07"/><polygon points="307,16 308,15 309,15 308,17 307,16" id="2B150" class="commune" fill="steelblue" stroke-width="1" stroke="white" geotype="commune" geoname="Lumio" code_insee="2B150" code_canton="02B07"/><polygon points="306,15 308,14 308,14 308,15 306,15" id="2B150" class="commune" fill="steelblue" stroke-width="1" stroke="white" geotype="commune" geoname="Lumio" code_insee="2B150" code_canton="02B07"/><polygon points="323,81 304,65 317,54 312,42 306,40 317,36 313,33 325,29 323,19 311,14 346,8 347,9 349,13 346,13 354,15 374,4 377,8 372,13 385,20 382,31 363,44 377,65 371,64 356,78 340,84 323,81" id="2B150" class="commune" fill="steelblue" stroke-width="1" stroke="white" geotype="commune" geoname="Lumio" code_insee="2B150" code_canton="02B07"/><polygon points="305,16 306,15 307,15 306,16 305,16" id="2B150" class="commune" fill="steelblue" stroke-width="1" stroke="white" geotype="commune" geoname="Lumio" code_insee="2B150" code_canton="02B07"/><polygon points="361,265 372,269 382,268 385,265 396,261 405,264 417,272 442,273 449,272 455,276 461,277 446,312 455,320 464,320 464,324 447,336 443,349 419,362 416,369 401,372 399,380 386,385 335,406 334,402 298,396 294,391 269,393 257,384 252,375 212,374 206,370 206,369 220,343 233,333 235,319 246,316 240,309 208,306 197,301 191,295 213,288 211,278 225,276 227,280 248,284 275,280 285,283 296,294 314,292 328,288 347,270 361,265" id="2B153" class="commune" fill="steelblue" stroke-width="1" stroke="white" geotype="commune" geoname="Manso" code_insee="2B153" code_canton="02B07"/><polygon points="309,138 310,135 316,139 320,138 326,142 331,142 338,138 339,134 347,134 355,128 361,127 366,138 369,138 367,146 363,148 357,148 357,150 355,150 349,161 346,161 331,165 322,174 320,174 316,171 311,165 310,153 311,151 309,138" id="2B165" class="commune" fill="steelblue" stroke-width="1" stroke="white" geotype="commune" geoname="Moncale" code_insee="2B165" code_canton="02B07"/><polygon points="330,103 310,94 315,89 312,83 323,81 340,84 356,78 371,64 377,65 390,71 406,67 414,71 418,72 415,79 439,86 452,92 456,102 429,112 421,111 408,120 388,121 385,120 379,123 356,108 348,106 347,108 330,103" id="2B167" class="commune" fill="steelblue" stroke-width="1" stroke="white" geotype="commune" geoname="Montegrosso" code_insee="2B167" code_canton="02B07"/><polygon points="444,52 438,25 450,27 469,19 466,34 475,37 480,43 472,52 444,52" id="2B296" class="commune" fill="steelblue" stroke-width="1" stroke="white" geotype="commune" geoname="Sant'Antonino" code_insee="2B296" code_canton="02B07"/><polygon points="472,157 468,153 459,151 456,149 444,146 435,139 428,137 422,139 410,131 407,132 403,129 402,126 396,127 388,121 408,120 421,111 429,112 456,102 467,107 471,117 490,127 500,132 472,157" id="2B361" class="commune" fill="steelblue" stroke-width="1" stroke="white" geotype="commune" geoname="Zilia" code_insee="2B361" code_canton="02B07"/></svg>