<?xml version="1.0" encoding="utf-8"?>
<svg version="1.1" id="svgmap" xmlns="http://www.w3.org/2000/svg" xmlns:xlink="http://www.w3.org/1999/xlink" x="0px" y="0px" width="100%" height="100%" viewBox="0 0 500 296">
<polygon points="335,156 324,157 317,161 312,156 298,155 295,153 292,146 285,145 285,134 291,136 300,134 314,134 323,138 330,138 334,146 337,151 335,156" id="2B003" class="commune" fill="steelblue" stroke-width="1" stroke="white" geotype="commune" geoname="Aiti" code_insee="2B003" code_canton="02B14"/><polygon points="349,231 353,228 353,217 357,216 359,218 363,218 365,224 376,221 376,223 368,227 366,232 361,232 354,237 349,231" id="2B005" class="commune" fill="steelblue" stroke-width="1" stroke="white" geotype="commune" geoname="Alando" code_insee="2B005" code_canton="02B14"/><polygon points="47,170 62,173 78,181 81,191 86,197 89,196 90,202 118,205 119,209 115,213 111,213 111,216 101,219 99,224 102,229 100,241 108,252 95,263 78,263 59,271 56,268 41,271 22,257 25,246 18,241 18,239 5,236 2,232 4,222 2,220 5,216 3,213 4,208 0,207 8,204 10,199 18,197 21,193 35,185 37,177 47,170" id="2B007" class="commune" fill="steelblue" stroke-width="1" stroke="white" geotype="commune" geoname="Albertacce" code_insee="2B007" code_canton="02B14"/><polygon points="366,232 368,227 376,223 383,220 390,214 406,211 375,232 366,232" id="2B013" class="commune" fill="steelblue" stroke-width="1" stroke="white" geotype="commune" geoname="Alzi" code_insee="2B013" code_canton="02B14"/><polygon points="46,141 50,138 50,132 54,129 55,126 49,118 51,114 47,111 52,104 52,100 62,102 82,102 89,104 95,97 111,93 112,90 122,85 134,71 145,68 150,70 159,67 164,68 171,62 169,78 173,81 182,80 190,93 187,96 189,106 186,108 189,121 186,126 189,133 183,135 166,140 159,149 135,150 128,154 110,148 102,156 96,156 62,173 47,170 47,168 42,168 37,163 46,141" id="2B023" class="commune" fill="steelblue" stroke-width="1" stroke="white" geotype="commune" geoname="Asco" code_insee="2B023" code_canton="02B14"/><polygon points="361,24 366,22 389,28 389,31 379,44 381,61 376,64 366,53 360,38 362,36 361,24" id="2B036" class="commune" fill="steelblue" stroke-width="1" stroke="white" geotype="commune" geoname="Bigorno" code_insee="2B036" code_canton="02B14"/><polygon points="396,61 405,79 404,86 398,94 397,103 380,85 360,75 364,71 370,72 370,70 376,64 381,61 386,62 389,59 396,61" id="2B039" class="commune" fill="steelblue" stroke-width="1" stroke="white" geotype="commune" geoname="Bisinchi" code_insee="2B039" code_canton="02B14"/><polygon points="408,209 406,211 390,214 383,220 376,223 376,221 365,224 363,218 359,218 357,216 353,217 351,207 355,204 379,201 394,204 404,198 408,200 411,208 408,209" id="2B045" class="commune" fill="steelblue" stroke-width="1" stroke="white" geotype="commune" geoname="Bustanico" code_insee="2B045" code_canton="02B14"/><polygon points="183,221 170,232 165,231 152,236 151,228 144,231 133,215 127,212 115,213 119,209 118,205 125,200 130,199 141,189 148,194 153,203 171,211 183,221" id="2B047" class="commune" fill="steelblue" stroke-width="1" stroke="white" geotype="commune" geoname="Calacuccia" code_insee="2B047" code_canton="02B14"/><polygon points="392,169 391,177 395,181 383,181 378,185 378,189 370,187 368,184 362,182 353,182 354,179 353,176 356,172 352,171 353,167 361,168 370,165 386,167 388,170 392,169" id="2B051" class="commune" fill="steelblue" stroke-width="1" stroke="white" geotype="commune" geoname="Cambia" code_insee="2B051" code_canton="02B14"/><polygon points="405,79 396,61 400,61 405,57 412,57 427,62 442,58 438,60 438,64 430,79 422,80 421,83 409,84 405,79" id="2B054" class="commune" fill="steelblue" stroke-width="1" stroke="white" geotype="commune" geoname="Campile" code_insee="2B054" code_canton="02B14"/><polygon points="396,61 389,59 386,62 381,61 379,44 389,31 389,28 407,24 409,28 400,35 398,53 400,61 396,61" id="2B055" class="commune" fill="steelblue" stroke-width="1" stroke="white" geotype="commune" geoname="Campitello" code_insee="2B055" code_canton="02B14"/><polygon points="339,86 333,87 329,91 322,90 317,91 304,88 296,89 288,81 282,80 279,78 277,73 271,73 270,70 281,61 291,52 305,52 306,42 313,46 314,49 330,48 331,53 339,49 344,49 351,57 357,58 357,61 361,63 358,66 339,86" id="2B059" class="commune" fill="steelblue" stroke-width="1" stroke="white" geotype="commune" geoname="Canavaggia" code_insee="2B059" code_canton="02B14"/><polygon points="404,198 404,198 394,204 379,201 355,204 347,199 346,191 350,184 353,182 362,182 368,184 370,187 378,189 378,185 383,181 395,181 397,183 399,193 404,198" id="2B068" class="commune" fill="steelblue" stroke-width="1" stroke="white" geotype="commune" geoname="Carticasi" code_insee="2B068" code_canton="02B14"/><polygon points="59,271 78,263 95,263 108,252 100,241 102,229 99,224 101,219 111,216 111,213 115,213 127,212 133,215 144,231 151,228 152,236 148,240 146,249 136,253 137,257 113,281 99,282 90,278 85,272 77,273 68,269 59,271" id="2B073" class="commune" fill="steelblue" stroke-width="1" stroke="white" geotype="commune" geoname="Casamaccioli" code_insee="2B073" code_canton="02B14"/><polygon points="326,241 318,243 311,237 320,232 320,216 333,203 336,209 333,214 335,226 326,241" id="2B078" class="commune" fill="steelblue" stroke-width="1" stroke="white" geotype="commune" geoname="Castellare-di-Mercurio" code_insee="2B078" code_canton="02B14"/><polygon points="370,70 370,72 364,71 360,75 380,85 397,103 392,111 378,109 361,90 354,89 350,90 339,86 358,66 370,70" id="2B079" class="commune" fill="steelblue" stroke-width="1" stroke="white" geotype="commune" geoname="Castello-di-Rostino" code_insee="2B079" code_canton="02B14"/><polygon points="199,12 201,10 206,10 213,14 221,13 226,15 232,17 229,25 230,27 235,27 237,30 235,33 241,33 239,35 241,35 243,38 245,37 245,40 251,40 252,46 258,47 268,59 273,57 281,61 270,70 271,66 260,62 254,57 249,58 244,65 235,66 230,69 217,69 209,68 202,69 188,65 185,60 188,49 182,34 187,32 188,29 187,20 196,18 199,12" id="2B080" class="commune" fill="steelblue" stroke-width="1" stroke="white" geotype="commune" geoname="Castifao" code_insee="2B080" code_canton="02B14"/><polygon points="243,131 247,153 237,158 221,156 213,160 201,161 197,159 193,147 188,145 183,135 189,133 186,126 210,124 216,124 218,127 232,127 243,131" id="2B081" class="commune" fill="steelblue" stroke-width="1" stroke="white" geotype="commune" geoname="Castiglione" code_insee="2B081" code_canton="02B14"/><polygon points="391,140 391,145 385,143 379,137 367,135 364,132 354,131 345,128 337,131 333,130 331,122 326,123 322,119 317,121 309,120 304,113 310,111 325,117 333,115 347,118 353,125 370,129 376,127 380,128 384,134 393,135 391,140" id="2B082" class="commune" fill="steelblue" stroke-width="1" stroke="white" geotype="commune" geoname="Castineta" code_insee="2B082" code_canton="02B14"/><polygon points="247,153 256,152 259,155 257,158 259,161 255,162 253,166 259,174 253,174 253,179 244,182 241,190 217,191 210,199 202,203 189,192 193,183 207,173 213,160 221,156 237,158 247,153" id="2B083" class="commune" fill="steelblue" stroke-width="1" stroke="white" geotype="commune" geoname="Castirla" code_insee="2B083" code_canton="02B14"/><polygon points="197,213 198,217 192,222 190,227 183,221 171,211 153,203 148,194 141,189 135,185 133,180 135,173 102,156 110,148 128,154 135,150 159,149 166,140 183,135 188,145 193,147 197,159 201,161 213,160 207,173 193,183 189,192 202,203 198,206 197,213" id="2B095" class="commune" fill="steelblue" stroke-width="1" stroke="white" geotype="commune" geoname="Corscia" code_insee="2B095" code_canton="02B14"/><polygon points="430,79 431,83 425,91 409,97 398,94 404,86 405,79 409,84 421,83 422,80 430,79" id="2B102" class="commune" fill="steelblue" stroke-width="1" stroke="white" geotype="commune" geoname="Crocicchia" code_insee="2B102" code_canton="02B14"/><polygon points="315,275 328,275 332,267 331,262 341,254 358,253 370,262 368,266 356,269 356,272 354,275 351,274 346,287 337,291 335,294 332,292 325,293 325,293 312,283 317,278 315,275" id="2B105" class="commune" fill="steelblue" stroke-width="1" stroke="white" geotype="commune" geoname="Erbajolo" code_insee="2B105" code_canton="02B14"/><polygon points="353,167 352,171 356,172 353,176 354,179 330,173 333,164 337,160 341,163 346,160 353,167" id="2B106" class="commune" fill="steelblue" stroke-width="1" stroke="white" geotype="commune" geoname="Érone" code_insee="2B106" code_canton="02B14"/><polygon points="349,231 354,237 355,240 345,239 334,242 335,248 330,253 316,253 306,244 306,242 309,241 311,237 318,243 326,241 342,235 343,236 349,231" id="2B110" class="commune" fill="steelblue" stroke-width="1" stroke="white" geotype="commune" geoname="Favalello" code_insee="2B110" code_canton="02B14"/><polygon points="380,280 358,280 351,285 345,294 339,296 335,294 337,291 346,287 351,274 354,275 356,272 356,269 368,266 370,262 381,258 382,269 380,280" id="2B116" class="commune" fill="steelblue" stroke-width="1" stroke="white" geotype="commune" geoname="Focicchia" code_insee="2B116" code_canton="02B14"/><polygon points="304,113 309,120 317,121 322,119 326,123 331,122 333,130 337,131 345,128 354,131 364,132 367,135 379,137 385,143 391,145 392,147 363,141 354,143 350,137 326,134 326,127 315,130 297,125 295,122 289,112 304,113" id="2B122" class="commune" fill="steelblue" stroke-width="1" stroke="white" geotype="commune" geoname="Gavignano" code_insee="2B122" code_canton="02B14"/><polygon points="316,187 312,184 309,172 311,163 287,158 295,153 298,155 312,156 317,161 324,157 335,156 337,160 333,164 330,173 326,180 317,183 316,187" id="2B137" class="commune" fill="steelblue" stroke-width="1" stroke="white" geotype="commune" geoname="Lano" code_insee="2B137" code_canton="02B14"/><polygon points="361,24 362,36 360,38 366,53 376,64 370,70 358,66 361,63 357,61 357,58 351,57 344,49 339,49 331,53 330,48 314,49 313,46 306,42 310,33 308,27 311,25 316,23 316,20 323,19 361,24" id="2B140" class="commune" fill="steelblue" stroke-width="1" stroke="white" geotype="commune" geoname="Lento" code_insee="2B140" code_canton="02B14"/><polygon points="118,205 90,202 89,196 86,197 81,191 78,181 62,173 96,156 102,156 135,173 133,180 135,185 141,189 130,199 125,200 118,205" id="2B147" class="commune" fill="steelblue" stroke-width="1" stroke="white" geotype="commune" geoname="Lozzi" code_insee="2B147" code_canton="02B14"/><polygon points="406,211 408,209 400,247 390,242 388,236 381,235 375,232 406,211" id="2B157" class="commune" fill="steelblue" stroke-width="1" stroke="white" geotype="commune" geoname="Mazzola" code_insee="2B157" code_canton="02B14"/><polygon points="270,70 271,73 277,73 279,78 282,80 278,81 280,88 278,92 268,100 259,96 246,106 230,106 221,109 222,114 206,116 210,124 186,126 189,121 186,108 189,106 187,96 190,93 182,80 173,81 169,78 171,62 185,60 188,65 202,69 209,68 217,69 230,69 235,66 244,65 249,58 254,57 260,62 271,66 270,70" id="2B162" class="commune" fill="steelblue" stroke-width="1" stroke="white" geotype="commune" geoname="Moltifao" code_insee="2B162" code_canton="02B14"/><polygon points="431,83 430,79 438,64 441,66 445,73 453,77 461,74 463,71 467,70 471,66 478,65 483,59 491,54 487,52 494,45 500,44 495,49 497,62 475,69 470,72 464,76 458,92 461,97 452,104 447,108 443,107 431,83" id="2B166" class="commune" fill="steelblue" stroke-width="1" stroke="white" geotype="commune" geoname="Monte" code_insee="2B166" code_canton="02B14"/><polygon points="392,111 394,113 393,120 393,135 384,134 380,128 376,127 370,129 353,125 347,118 333,115 325,117 310,111 304,113 289,112 286,110 291,105 289,103 278,100 268,102 268,100 278,92 280,88 278,81 282,80 288,81 296,89 298,93 308,96 311,100 319,101 323,105 327,104 332,107 343,109 345,112 345,110 369,112 378,109 392,111" id="2B169" class="commune" fill="steelblue" stroke-width="1" stroke="white" geotype="commune" geoname="Morosaglia" code_insee="2B169" code_canton="02B14"/><polygon points="478,54 487,52 491,54 483,59 478,65 471,66 467,70 463,71 461,74 453,77 445,73 441,66 450,69 452,72 459,66 461,59 467,63 478,54" id="2B192" class="commune" fill="steelblue" stroke-width="1" stroke="white" geotype="commune" geoname="Olmo" code_insee="2B192" code_canton="02B14"/><polygon points="259,155 261,149 266,148 268,140 279,131 286,132 285,134 285,145 292,146 295,153 287,158 311,163 309,172 312,184 301,183 294,190 290,189 287,185 283,187 281,184 274,183 268,178 265,179 261,174 259,174 253,166 255,162 259,161 257,158 259,155" id="2B193" class="commune" fill="steelblue" stroke-width="1" stroke="white" geotype="commune" geoname="Omessa" code_insee="2B193" code_canton="02B14"/><polygon points="397,103 398,94 409,97 425,91 421,96 425,100 425,103 419,106 394,113 392,111 397,103" id="2B195" class="commune" fill="steelblue" stroke-width="1" stroke="white" geotype="commune" geoname="Ortiporio" code_insee="2B195" code_canton="02B14"/><polygon points="443,107 433,105 428,101 425,103 425,100 421,96 425,91 431,83 443,107" id="2B206" class="commune" fill="steelblue" stroke-width="1" stroke="white" geotype="commune" geoname="Penta-Acquatella" code_insee="2B206" code_canton="02B14"/><polygon points="290,126 257,115 250,113 246,106 259,96 268,100 268,102 278,100 289,103 291,105 286,110 289,112 295,122 290,126" id="2B220" class="commune" fill="steelblue" stroke-width="1" stroke="white" geotype="commune" geoname="Piedigriggio" code_insee="2B220" code_canton="02B14"/><polygon points="306,42 305,52 291,52 281,61 273,57 268,59 258,47 252,46 251,40 245,40 245,37 243,38 241,35 239,35 241,33 235,33 237,30 235,27 230,27 229,25 232,17 226,15 232,7 253,17 256,12 264,15 298,0 300,5 299,12 304,15 307,18 306,22 311,25 308,27 310,33 306,42" id="2B223" class="commune" fill="steelblue" stroke-width="1" stroke="white" geotype="commune" geoname="Pietralba" code_insee="2B223" code_canton="02B14"/><polygon points="257,115 256,117 252,116 254,122 250,128 243,131 232,127 218,127 216,124 210,124 206,116 222,114 221,109 230,106 246,106 250,113 257,115" id="2B244" class="commune" fill="steelblue" stroke-width="1" stroke="white" geotype="commune" geoname="Popolasca" code_insee="2B244" code_canton="02B14"/><polygon points="257,115 290,126 286,132 279,131 268,140 266,148 261,149 259,155 256,152 247,153 243,131 250,128 254,122 252,116 256,117 257,115" id="2B248" class="commune" fill="steelblue" stroke-width="1" stroke="white" geotype="commune" geoname="Prato-di-Giovellina" code_insee="2B248" code_canton="02B14"/><polygon points="477,50 478,54 467,63 461,59 459,66 452,72 450,69 441,66 438,64 438,60 442,58 443,62 450,61 450,51 458,52 455,48 462,47 465,44 471,50 477,50" id="2B250" class="commune" fill="steelblue" stroke-width="1" stroke="white" geotype="commune" geoname="Prunelli-di-Casacconi" code_insee="2B250" code_canton="02B14"/><polygon points="347,199 336,209 333,203 333,198 329,191 319,189 316,187 317,183 326,180 330,173 354,179 353,182 350,184 346,191 347,199" id="2B264" class="commune" fill="steelblue" stroke-width="1" stroke="white" geotype="commune" geoname="Rusio" code_insee="2B264" code_canton="02B14"/><polygon points="286,132 290,126 295,122 297,125 315,130 326,127 326,134 350,137 354,143 363,141 392,147 392,150 393,153 374,156 360,153 355,149 350,149 346,144 334,146 330,138 323,138 314,134 300,134 291,136 285,134 286,132" id="2B267" class="commune" fill="steelblue" stroke-width="1" stroke="white" geotype="commune" geoname="Saliceto" code_insee="2B267" code_canton="02B14"/><polygon points="409,28 407,24 426,19 433,19 430,28 433,31 433,37 447,47 439,47 437,44 428,47 423,45 409,28" id="2B274" class="commune" fill="steelblue" stroke-width="1" stroke="white" geotype="commune" geoname="Scolca" code_insee="2B274" code_canton="02B14"/><polygon points="336,209 347,199 355,204 351,207 353,217 353,228 349,231 343,236 342,235 326,241 335,226 333,214 336,209" id="2B275" class="commune" fill="steelblue" stroke-width="1" stroke="white" geotype="commune" geoname="Sermano" code_insee="2B275" code_canton="02B14"/><polygon points="202,203 210,199 217,191 241,190 244,182 253,179 253,174 259,174 261,174 265,179 268,178 274,183 281,184 280,188 269,194 249,194 249,199 241,196 238,199 224,199 214,203 211,208 197,213 198,206 202,203" id="2B289" class="commune" fill="steelblue" stroke-width="1" stroke="white" geotype="commune" geoname="Soveria" code_insee="2B289" code_canton="02B14"/><polygon points="370,262 358,253 341,254 331,262 332,267 328,275 315,275 311,275 308,264 316,253 330,253 335,248 334,242 345,239 355,240 354,237 361,232 366,232 375,232 381,235 388,236 390,242 400,247 400,250 393,262 396,270 391,270 391,268 382,269 381,258 370,262" id="2B292" class="commune" fill="steelblue" stroke-width="1" stroke="white" geotype="commune" geoname="Sant'Andréa-di-Bozio" code_insee="2B292" code_canton="02B14"/><polygon points="392,169 388,170 386,167 370,165 361,168 353,167 346,160 341,163 337,160 335,156 337,151 334,146 346,144 350,149 355,149 360,153 374,156 393,153 393,156 388,162 392,169" id="2B304" class="commune" fill="steelblue" stroke-width="1" stroke="white" geotype="commune" geoname="San-Lorenzo" code_insee="2B304" code_canton="02B14"/><polygon points="333,203 320,216 320,232 311,237 309,241 306,242 291,244 292,246 285,244 277,238 283,214 283,209 298,206 307,194 319,189 329,191 333,198 333,203" id="2B306" class="commune" fill="steelblue" stroke-width="1" stroke="white" geotype="commune" geoname="Santa-Lucia-di-Mercurio" code_insee="2B306" code_canton="02B14"/><polygon points="316,187 319,189 307,194 298,206 283,209 283,214 274,218 265,217 265,209 262,207 252,206 249,199 249,194 269,194 280,188 281,184 283,187 287,185 290,189 294,190 301,183 312,184 316,187" id="2B329" class="commune" fill="steelblue" stroke-width="1" stroke="white" geotype="commune" geoname="Tralonca" code_insee="2B329" code_canton="02B14"/><polygon points="296,89 304,88 317,91 322,90 329,91 333,87 339,86 350,90 354,89 361,90 378,109 369,112 345,110 345,112 343,109 332,107 327,104 323,105 319,101 311,100 308,96 298,93 296,89" id="2B337" class="commune" fill="steelblue" stroke-width="1" stroke="white" geotype="commune" geoname="Valle-di-Rostino" code_insee="2B337" code_canton="02B14"/><polygon points="400,61 398,53 400,35 409,28 423,45 428,47 437,44 439,47 447,47 455,48 458,52 450,51 450,61 443,62 442,58 427,62 412,57 405,57 400,61" id="2B355" class="commune" fill="steelblue" stroke-width="1" stroke="white" geotype="commune" geoname="Volpajola" code_insee="2B355" code_canton="02B14"/></svg>