<?xml version="1.0" encoding="utf-8"?>
<svg version="1.1" id="svgmap" xmlns="http://www.w3.org/2000/svg" xmlns:xlink="http://www.w3.org/1999/xlink" x="0px" y="0px" width="100%" height="100%" viewBox="0 0 500 391">
<polygon points="206,391 180,353 159,342 173,324 187,318 241,312 265,303 288,302 276,312 267,309 255,322 242,336 245,354 223,382 206,391" id="33033" class="commune" fill="steelblue" stroke-width="1" stroke="white" geotype="commune" geoname="Baurech" code_insee="33033" code_canton="3311"/><polygon points="259,151 245,145 233,135 242,128 233,96 240,96 259,99 278,120 306,113 311,126 313,147 277,139 276,148 259,151" id="33061" class="commune" fill="steelblue" stroke-width="1" stroke="white" geotype="commune" geoname="Bonnetan" code_insee="33061" code_canton="3311"/><polygon points="367,147 344,130 352,119 335,112 319,101 335,100 336,87 382,79 385,93 408,111 407,128 368,147 367,147" id="33083" class="commune" fill="steelblue" stroke-width="1" stroke="white" geotype="commune" geoname="Camarsac" code_insee="33083" code_canton="3311"/><polygon points="187,318 173,324 159,342 100,320 143,276 173,289 189,295 187,318" id="33084" class="commune" fill="steelblue" stroke-width="1" stroke="white" geotype="commune" geoname="Cambes" code_insee="33084" code_canton="3311"/><polygon points="35,254 37,243 36,234 53,226 78,230 84,224 112,220 116,227 140,230 158,244 205,242 210,250 178,267 173,289 143,276 148,265 134,261 73,260 48,267 46,252 35,254" id="33085" class="commune" fill="steelblue" stroke-width="1" stroke="white" geotype="commune" geoname="Camblanes-et-Meynac" code_insee="33085" code_canton="3311"/><polygon points="170,167 165,170 152,171 132,191 120,194 110,181 100,181 91,169 66,158 77,141 124,118 120,112 150,106 172,111 180,120 157,155 170,167" id="33099" class="commune" fill="steelblue" stroke-width="1" stroke="white" geotype="commune" geoname="Carignan-de-Bordeaux" code_insee="33099" code_canton="3311"/><polygon points="205,242 158,244 140,230 116,227 112,220 109,204 131,200 132,191 152,171 165,170 175,170 190,189 187,195 200,202 196,222 214,237 205,242" id="33118" class="commune" fill="steelblue" stroke-width="1" stroke="white" geotype="commune" geoname="Cénac" code_insee="33118" code_canton="3311"/><polygon points="407,268 401,258 382,258 373,248 375,238 408,203 423,210 470,200 478,217 443,232 461,273 448,288 418,281 432,271 407,268" id="33140" class="commune" fill="steelblue" stroke-width="1" stroke="white" geotype="commune" geoname="Créon" code_insee="33140" code_canton="3311"/><polygon points="433,90 460,150 423,160 407,128 408,111 385,93 419,86 433,90" id="33141" class="commune" fill="steelblue" stroke-width="1" stroke="white" geotype="commune" geoname="Croignon" code_insee="33141" code_canton="3311"/><polygon points="500,169 499,184 493,185 484,196 470,194 470,200 423,210 408,203 398,194 404,178 423,160 460,150 475,165 500,169" id="33145" class="commune" fill="steelblue" stroke-width="1" stroke="white" geotype="commune" geoname="Cursan" code_insee="33145" code_canton="3311"/><polygon points="233,96 242,128 233,135 245,145 224,139 203,159 170,167 157,155 180,120 172,111 184,90 189,94 223,82 233,96" id="33165" class="commune" fill="steelblue" stroke-width="1" stroke="white" geotype="commune" geoname="Fargues-Saint-Hilaire" code_insee="33165" code_canton="3311"/><polygon points="9,191 0,157 14,166 66,158 91,169 100,181 110,181 120,194 132,191 131,200 109,204 112,220 84,224 78,230 53,226 36,234 9,191" id="33234" class="commune" fill="steelblue" stroke-width="1" stroke="white" geotype="commune" geoname="Latresne" code_insee="33234" code_canton="3311"/><polygon points="245,145 259,151 262,164 284,165 286,175 286,181 270,185 263,194 245,193 238,224 219,238 214,237 196,222 200,202 187,195 190,189 175,170 165,170 170,167 203,159 224,139 245,145" id="33245" class="commune" fill="steelblue" stroke-width="1" stroke="white" geotype="commune" geoname="Lignan-de-Bordeaux" code_insee="33245" code_canton="3311"/><polygon points="259,151 276,148 277,139 313,147 311,126 335,112 352,119 344,130 367,147 365,153 311,167 304,179 286,175 284,165 262,164 259,151" id="33252" class="commune" fill="steelblue" stroke-width="1" stroke="white" geotype="commune" geoname="Loupes" code_insee="33252" code_canton="3311"/><polygon points="283,256 324,255 328,261 314,286 295,291 284,281 283,256" id="33263" class="commune" fill="steelblue" stroke-width="1" stroke="white" geotype="commune" geoname="Madirac" code_insee="33263" code_canton="3311"/><polygon points="270,2 264,24 273,51 240,96 233,96 223,82 189,94 184,90 186,62 167,46 161,39 167,28 159,28 156,21 179,17 202,6 209,12 241,0 270,2" id="33330" class="commune" fill="steelblue" stroke-width="1" stroke="white" geotype="commune" geoname="Pompignac" code_insee="33330" code_canton="3311"/><polygon points="368,147 407,128 423,160 404,178 398,194 371,188 375,170 367,164 368,147" id="33335" class="commune" fill="steelblue" stroke-width="1" stroke="white" geotype="commune" geoname="Pout" code_insee="33335" code_canton="3311"/><polygon points="58,311 35,298 35,254 46,252 48,267 73,260 134,261 148,265 143,276 100,320 58,311" id="33349" class="commune" fill="steelblue" stroke-width="1" stroke="white" geotype="commune" geoname="Quinsac" code_insee="33349" code_canton="3311"/><polygon points="324,255 283,256 239,242 217,242 219,238 238,224 245,193 263,194 270,185 286,181 286,175 304,179 311,167 365,153 367,147 368,147 367,164 375,170 371,188 398,194 408,203 375,238 373,248 351,247 352,254 324,255" id="33363" class="commune" fill="steelblue" stroke-width="1" stroke="white" geotype="commune" geoname="Sadirac" code_insee="33363" code_canton="3311"/><polygon points="219,238 217,242 239,242 283,256 284,281 295,291 265,303 241,312 187,318 189,295 173,289 178,267 210,250 205,242 214,237 219,238" id="33381" class="commune" fill="steelblue" stroke-width="1" stroke="white" geotype="commune" geoname="Saint-Caprais-de-Bordeaux" code_insee="33381" code_canton="3311"/><polygon points="311,304 288,302 265,303 295,291 314,286 328,261 324,255 352,254 351,247 373,248 382,258 401,258 407,268 379,284 368,283 336,312 311,304" id="33408" class="commune" fill="steelblue" stroke-width="1" stroke="white" geotype="commune" geoname="Saint-Genès-de-Lombaud" code_insee="33408" code_canton="3311"/><polygon points="311,126 306,113 278,120 259,99 240,96 273,51 264,24 303,27 316,19 386,51 382,79 336,87 335,100 319,101 335,112 311,126" id="33496" class="commune" fill="steelblue" stroke-width="1" stroke="white" geotype="commune" geoname="Sallebœuf" code_insee="33496" code_canton="3311"/><polygon points="71,75 76,69 84,70 85,58 104,60 114,52 127,19 156,21 159,28 167,28 161,39 167,46 186,62 184,90 172,111 150,106 120,112 58,100 73,91 66,83 71,75" id="33535" class="commune" fill="steelblue" stroke-width="1" stroke="white" geotype="commune" geoname="Tresses" code_insee="33535" code_canton="3311"/></svg>