<?xml version="1.0" encoding="utf-8"?>
<svg version="1.1" id="svgmap" xmlns="http://www.w3.org/2000/svg" xmlns:xlink="http://www.w3.org/1999/xlink" x="0px" y="0px" width="100%" height="100%" viewBox="0 0 500 438">
<polygon points="6,235 0,225 10,198 36,171 27,152 36,149 27,121 39,112 53,113 57,104 42,78 72,50 105,43 116,66 169,71 167,123 201,127 228,174 211,182 219,201 203,202 196,223 180,210 164,210 142,228 150,247 136,298 96,305 80,281 100,256 62,250 66,239 6,235" id="35047" class="commune" fill="steelblue" stroke-width="1" stroke="white" geotype="commune" geoname="Bruz" code_insee="35047" code_canton="3504"/><polygon points="228,174 201,127 167,123 169,71 225,46 255,59 235,89 304,101 319,114 298,126 302,141 282,145 279,155 259,169 228,174" id="35066" class="commune" fill="steelblue" stroke-width="1" stroke="white" geotype="commune" geoname="Chartres-de-Bretagne" code_insee="35066" code_canton="3504"/><polygon points="106,394 123,349 96,305 136,298 150,247 142,228 164,210 180,210 196,223 210,231 213,246 237,241 248,266 280,267 287,289 278,358 282,366 321,377 349,398 333,435 299,432 193,438 194,428 148,419 122,398 106,394" id="35139" class="commune" fill="steelblue" stroke-width="1" stroke="white" geotype="commune" geoname="Laillé" code_insee="35139" code_canton="3504"/><polygon points="402,9 408,35 424,34 421,45 431,49 426,61 401,61 397,82 418,85 424,73 470,68 471,89 484,99 469,104 500,120 478,128 454,167 439,169 407,157 391,173 342,177 339,166 310,169 279,155 282,145 302,141 298,126 319,114 304,101 235,89 255,59 262,35 254,7 312,2 316,17 338,18 368,15 364,0 402,9" id="35206" class="commune" fill="steelblue" stroke-width="1" stroke="white" geotype="commune" geoname="Noyal-Châtillon-sur-Seiche" code_insee="35206" code_canton="3504"/><polygon points="280,267 248,266 237,241 213,246 210,231 196,223 203,202 219,201 211,182 228,174 259,169 279,155 310,169 304,189 325,233 280,267" id="35363" class="commune" fill="steelblue" stroke-width="1" stroke="white" geotype="commune" geoname="Pont-Péan" code_insee="35363" code_canton="3504"/></svg>