<?xml version="1.0" encoding="utf-8"?>
<svg version="1.1" id="svgmap" xmlns="http://www.w3.org/2000/svg" xmlns:xlink="http://www.w3.org/1999/xlink" x="0px" y="0px" width="100%" height="100%" viewBox="0 0 500 251">
<polygon points="486,150 480,153 486,163 483,170 446,176 405,193 388,188 398,171 382,168 384,163 372,156 366,131 402,127 414,137 428,140 432,132 440,133 458,136 459,140 486,150" id="37052" class="commune" fill="steelblue" stroke-width="1" stroke="white" geotype="commune" geoname="Chançay" code_insee="37052" code_canton="3719"/><polygon points="68,105 68,104 127,84 140,82 143,76 160,75 183,80 191,93 187,108 197,108 206,118 203,127 195,128 182,123 170,118 153,128 137,124 129,143 105,153 97,151 87,137 83,140 74,122 66,119 68,105" id="37054" class="commune" fill="steelblue" stroke-width="1" stroke="white" geotype="commune" geoname="Chanceaux-sur-Choisille" code_insee="37054" code_canton="3719"/><polygon points="113,174 100,174 87,180 88,163 68,173 49,172 47,169 38,173 32,156 17,160 0,135 8,132 16,142 49,135 68,105 66,119 74,122 83,140 87,137 97,151 105,153 113,174" id="37152" class="commune" fill="steelblue" stroke-width="1" stroke="white" geotype="commune" geoname="Mettray" code_insee="37152" code_canton="3719"/><polygon points="281,129 239,132 228,128 225,117 230,109 197,108 187,108 191,93 183,80 199,77 201,66 216,66 229,40 238,39 250,28 255,4 290,0 284,10 290,18 297,18 293,23 309,36 304,41 308,45 329,48 335,56 346,52 340,69 345,74 331,75 325,96 323,116 330,125 322,140 299,125 281,129" id="37153" class="commune" fill="steelblue" stroke-width="1" stroke="white" geotype="commune" geoname="Monnaie" code_insee="37153" code_canton="3719"/><polygon points="105,153 129,143 137,124 153,128 170,118 182,123 169,137 181,138 166,156 158,157 144,175 116,180 113,174 105,153" id="37172" class="commune" fill="steelblue" stroke-width="1" stroke="white" geotype="commune" geoname="Notre-Dame-d'Oé" code_insee="37172" code_canton="3719"/><polygon points="182,123 195,128 203,127 206,118 197,108 230,109 225,117 228,128 239,132 234,162 221,164 218,183 207,180 205,189 184,191 182,188 143,178 144,175 158,157 166,156 181,138 169,137 182,123" id="37179" class="commune" fill="steelblue" stroke-width="1" stroke="white" geotype="commune" geoname="Parçay-Meslay" code_insee="37179" code_canton="3719"/><polygon points="500,138 489,143 486,150 459,140 458,136 440,133 432,132 428,140 414,137 402,127 366,131 360,100 343,101 325,96 331,75 345,74 340,69 346,52 368,47 405,52 414,57 402,61 408,66 421,64 422,72 438,69 458,83 451,87 456,89 451,94 482,98 487,105 480,119 500,138" id="37194" class="commune" fill="steelblue" stroke-width="1" stroke="white" geotype="commune" geoname="Reugny" code_insee="37194" code_canton="3719"/><polygon points="239,132 281,129 269,151 277,166 252,174 242,187 248,189 252,216 261,220 255,225 226,229 176,237 172,224 184,191 205,189 207,180 218,183 221,164 234,162 239,132" id="37203" class="commune" fill="steelblue" stroke-width="1" stroke="white" geotype="commune" geoname="Rochecorbon" code_insee="37203" code_canton="3719"/><polygon points="407,242 345,251 355,215 342,215 337,212 338,204 327,205 314,176 321,163 309,161 322,140 330,125 323,116 325,96 343,101 360,100 366,131 372,156 384,163 382,168 398,171 388,188 405,193 397,203 399,211 395,212 407,242" id="37270" class="commune" fill="steelblue" stroke-width="1" stroke="white" geotype="commune" geoname="Vernou-sur-Brenne" code_insee="37270" code_canton="3719"/><polygon points="281,129 299,125 322,140 309,161 321,163 314,176 327,205 338,204 337,212 342,215 355,215 345,251 320,247 318,251 275,232 255,225 261,220 252,216 248,189 242,187 252,174 277,166 269,151 281,129" id="37281" class="commune" fill="steelblue" stroke-width="1" stroke="white" geotype="commune" geoname="Vouvray" code_insee="37281" code_canton="3719"/></svg>