<?xml version="1.0" encoding="utf-8"?>
<svg version="1.1" id="svgmap" xmlns="http://www.w3.org/2000/svg" xmlns:xlink="http://www.w3.org/1999/xlink" x="0px" y="0px" width="100%" height="100%" viewBox="0 0 500 318">
<polygon points="304,178 330,177 345,184 347,182 355,203 354,204 343,213 326,211 303,216 301,226 308,228 287,240 296,247 280,248 267,223 261,210 251,203 245,179 253,176 261,182 275,180 288,184 290,189 308,191 312,188 304,178" id="38013" class="commune" fill="steelblue" stroke-width="1" stroke="white" geotype="commune" geoname="Apprieu" code_insee="38013" code_canton="3808"/><polygon points="48,74 100,79 116,86 129,79 142,86 135,95 120,108 97,104 88,94 65,86 49,87 45,88 43,84 41,79 48,74" id="38038" class="commune" fill="steelblue" stroke-width="1" stroke="white" geotype="commune" geoname="Belmont" code_insee="38038" code_canton="3808"/><polygon points="124,178 127,167 133,169 134,178 135,179 134,175 143,167 163,170 169,175 154,198 156,210 165,216 172,229 171,248 150,250 135,246 134,240 109,222 110,202 117,195 112,181 124,178" id="38042" class="commune" fill="steelblue" stroke-width="1" stroke="white" geotype="commune" geoname="Bévenais" code_insee="38042" code_canton="3808"/><polygon points="356,148 334,135 336,133 352,118 366,116 398,119 421,115 420,116 411,131 413,138 406,140 405,146 395,148 393,143 387,149 367,141 356,148" id="38043" class="commune" fill="steelblue" stroke-width="1" stroke="white" geotype="commune" geoname="Bilieu" code_insee="38043" code_canton="3808"/><polygon points="129,79 116,86 100,79 48,74 51,62 68,52 70,45 78,44 77,38 84,38 88,32 109,23 155,41 161,50 154,55 129,79" id="38044" class="commune" fill="steelblue" stroke-width="1" stroke="white" geotype="commune" geoname="Biol" code_insee="38044" code_canton="3808"/><polygon points="140,162 85,145 87,135 80,129 94,122 88,121 97,104 120,108 135,95 139,104 154,115 155,124 139,142 151,156 140,162" id="38046" class="commune" fill="steelblue" stroke-width="1" stroke="white" geotype="commune" geoname="Bizonnes" code_insee="38046" code_canton="3808"/><polygon points="226,102 200,85 203,82 206,70 200,66 210,61 221,63 250,77 226,102" id="38047" class="commune" fill="steelblue" stroke-width="1" stroke="white" geotype="commune" geoname="Blandin" code_insee="38047" code_canton="3808"/><polygon points="254,118 260,125 239,148 234,165 223,173 225,183 216,182 220,172 184,169 202,157 200,149 211,143 219,132 249,125 254,118" id="38063" class="commune" fill="steelblue" stroke-width="1" stroke="white" geotype="commune" geoname="Burcin" code_insee="38063" code_canton="3808"/><polygon points="140,162 151,156 139,142 155,124 154,115 163,114 165,108 200,85 226,102 227,107 252,113 254,118 249,125 219,132 211,143 200,149 202,157 184,169 162,156 161,161 135,165 140,162" id="38065" class="commune" fill="steelblue" stroke-width="1" stroke="white" geotype="commune" geoname="Châbons" code_insee="38065" code_canton="3808"/><polygon points="336,133 334,135 356,148 355,158 343,161 349,167 337,166 349,178 355,176 361,179 354,182 359,193 355,203 347,182 345,184 330,177 304,178 309,170 295,146 304,148 298,144 306,140 318,140 316,130 324,128 336,133" id="38082" class="commune" fill="steelblue" stroke-width="1" stroke="white" geotype="commune" geoname="Charavines" code_insee="38082" code_canton="3808"/><polygon points="307,68 291,50 315,35 329,28 337,39 347,37 355,43 328,61 307,68" id="38089" class="commune" fill="steelblue" stroke-width="1" stroke="white" geotype="commune" geoname="Chassignieu" code_insee="38089" code_canton="3808"/><polygon points="225,42 221,24 258,25 274,14 291,14 315,35 291,50 307,68 303,72 273,61 249,40 225,42" id="38098" class="commune" fill="steelblue" stroke-width="1" stroke="white" geotype="commune" geoname="Chélieu" code_insee="38098" code_canton="3808"/><polygon points="388,218 354,215 352,206 354,204 355,203 359,193 354,182 361,179 355,176 349,178 337,166 349,167 343,161 355,158 356,148 367,141 387,149 393,143 395,148 405,146 406,140 413,138 413,143 419,143 426,151 429,161 438,161 437,169 443,172 435,176 415,181 405,199 393,204 388,218" id="38105" class="commune" fill="steelblue" stroke-width="1" stroke="white" geotype="commune" geoname="Chirens" code_insee="38105" code_canton="3808"/><polygon points="223,247 219,250 218,252 201,227 199,182 184,169 220,172 216,182 225,183 245,179 251,203 261,210 267,223 223,247" id="38118" class="commune" fill="steelblue" stroke-width="1" stroke="white" geotype="commune" geoname="Colombe" code_insee="38118" code_canton="3808"/><polygon points="221,24 225,42 223,50 210,61 200,66 206,70 203,82 194,73 154,55 161,50 189,31 189,22 207,21 221,24" id="38147" class="commune" fill="steelblue" stroke-width="1" stroke="white" geotype="commune" geoname="Doissin" code_insee="38147" code_canton="3808"/><polygon points="85,145 65,153 49,153 43,148 31,152 24,147 31,144 31,132 23,122 28,116 43,119 43,122 51,118 64,135 71,135 80,129 87,135 85,145" id="38159" class="commune" fill="steelblue" stroke-width="1" stroke="white" geotype="commune" geoname="Eydoche" code_insee="38159" code_canton="3808"/><polygon points="51,118 43,122 43,119 28,116 9,106 0,80 11,77 10,73 19,74 25,76 27,85 43,84 45,88 49,87 37,103 51,118" id="38167" class="commune" fill="steelblue" stroke-width="1" stroke="white" geotype="commune" geoname="Flachères" code_insee="38167" code_canton="3808"/><polygon points="171,248 172,229 165,216 156,210 154,198 169,175 163,170 143,167 134,175 135,179 134,178 133,169 135,165 161,161 162,156 184,169 199,182 201,227 218,252 175,250 171,248" id="38182" class="commune" fill="steelblue" stroke-width="1" stroke="white" geotype="commune" geoname="Grand-Lemps" code_insee="38182" code_canton="3808"/><polygon points="219,250 230,288 235,288 239,299 238,312 213,312 194,315 190,311 167,318 163,311 157,311 175,250 218,252 219,250" id="38194" class="commune" fill="steelblue" stroke-width="1" stroke="white" geotype="commune" geoname="Izeaux" code_insee="38194" code_canton="3808"/><polygon points="65,153 85,145 140,162 135,165 133,169 127,167 124,178 100,177 95,184 85,183 56,179 49,168 66,159 65,153" id="38213" class="commune" fill="steelblue" stroke-width="1" stroke="white" geotype="commune" geoname="Longechenal" code_insee="38213" code_canton="3808"/><polygon points="413,138 411,131 420,116 443,121 445,132 450,126 455,125 456,125 456,132 461,129 471,133 478,130 490,134 500,147 465,168 452,167 443,172 437,169 438,161 429,161 426,151 419,143 413,143 413,138" id="38222" class="commune" fill="steelblue" stroke-width="1" stroke="white" geotype="commune" geoname="Massieu" code_insee="38222" code_canton="3808"/><polygon points="432,46 445,51 458,62 472,60 479,64 443,97 420,110 421,115 398,119 366,116 384,90 393,84 403,84 403,78 411,77 432,62 432,46" id="38256" class="commune" fill="steelblue" stroke-width="1" stroke="white" geotype="commune" geoname="Montferrat" code_insee="38256" code_canton="3808"/><polygon points="135,95 142,86 129,79 154,55 194,73 203,82 200,85 165,108 163,114 154,115 139,104 135,95" id="38257" class="commune" fill="steelblue" stroke-width="1" stroke="white" geotype="commune" geoname="Montrevel" code_insee="38257" code_canton="3808"/><polygon points="260,125 274,132 293,136 307,132 308,136 316,130 318,140 306,140 298,144 304,148 295,146 309,170 304,178 312,188 308,191 290,189 288,184 275,180 261,182 253,176 245,179 225,183 223,173 234,165 239,148 260,125" id="38287" class="commune" fill="steelblue" stroke-width="1" stroke="white" geotype="commune" geoname="Oyeu" code_insee="38287" code_canton="3808"/><polygon points="418,41 423,46 432,46 432,62 411,77 403,78 403,84 393,84 384,90 366,116 352,118 337,118 337,105 342,102 338,94 345,83 369,62 381,59 387,49 404,44 411,43 418,41" id="38292" class="commune" fill="steelblue" stroke-width="1" stroke="white" geotype="commune" geoname="Paladru" code_insee="38292" code_canton="3808"/><polygon points="250,77 221,63 210,61 223,50 225,42 249,40 273,61 250,77" id="38293" class="commune" fill="steelblue" stroke-width="1" stroke="white" geotype="commune" geoname="Panissage" code_insee="38293" code_canton="3808"/><polygon points="352,118 336,133 324,128 316,130 308,136 307,132 293,136 274,132 276,119 285,111 282,107 295,107 292,88 310,84 305,78 328,82 324,88 330,93 345,83 338,94 342,102 337,105 337,118 352,118" id="38305" class="commune" fill="steelblue" stroke-width="1" stroke="white" geotype="commune" geoname="Pin" code_insee="38305" code_canton="3808"/><polygon points="80,129 71,135 64,135 51,118 37,103 49,87 65,86 88,94 97,104 88,121 94,122 80,129" id="38380" class="commune" fill="steelblue" stroke-width="1" stroke="white" geotype="commune" geoname="Saint-Didier-de-Bizonnes" code_insee="38380" code_canton="3808"/><polygon points="360,8 358,1 387,5 411,0 400,16 392,18 400,24 411,43 404,44 377,39 355,43 347,37 337,39 329,28 353,18 360,8" id="38434" class="commune" fill="steelblue" stroke-width="1" stroke="white" geotype="commune" geoname="Saint-Ondras" code_insee="38434" code_canton="3808"/><polygon points="420,116 421,115 420,110 443,97 479,64 491,66 478,81 481,90 489,92 488,97 450,126 445,132 443,121 420,116" id="38460" class="commune" fill="steelblue" stroke-width="1" stroke="white" geotype="commune" geoname="Saint-Sulpice-des-Rivoires" code_insee="38460" code_canton="3808"/><polygon points="307,68 328,61 355,43 377,39 404,44 387,49 381,59 369,62 345,83 330,93 324,88 328,82 305,78 303,72 307,68" id="38520" class="commune" fill="steelblue" stroke-width="1" stroke="white" geotype="commune" geoname="Valencogne" code_insee="38520" code_canton="3808"/><polygon points="260,125 254,118 252,113 227,107 226,102 250,77 273,61 303,72 305,78 310,84 292,88 295,107 282,107 285,111 276,119 274,132 260,125" id="38560" class="commune" fill="steelblue" stroke-width="1" stroke="white" geotype="commune" geoname="Virieu" code_insee="38560" code_canton="3808"/></svg>