<?xml version="1.0" encoding="utf-8"?>
<svg version="1.1" id="svgmap" xmlns="http://www.w3.org/2000/svg" xmlns:xlink="http://www.w3.org/1999/xlink" x="0px" y="0px" width="100%" height="100%" viewBox="0 0 500 449">
<polygon points="161,17 163,12 170,15 168,24 192,28 201,36 189,46 180,47 175,43 142,40 132,39 137,29 154,26 161,17" id="39007" class="commune" fill="steelblue" stroke-width="1" stroke="white" geotype="commune" geoname="Alièze" code_insee="39007" code_canton="3909"/><polygon points="187,297 181,296 175,303 150,292 143,294 137,289 117,288 114,282 119,282 119,270 127,262 126,256 132,252 150,253 154,247 170,256 194,254 203,257 217,251 224,263 231,252 237,253 221,283 201,282 187,297" id="39016" class="commune" fill="steelblue" stroke-width="1" stroke="white" geotype="commune" geoname="Arinthod" code_insee="39016" code_canton="3909"/><polygon points="3,415 8,416 14,410 24,383 34,381 45,382 54,379 55,376 75,375 76,404 80,405 78,409 72,409 58,430 56,444 41,444 22,449 14,443 17,440 7,440 7,436 0,436 3,415" id="39018" class="commune" fill="steelblue" stroke-width="1" stroke="white" geotype="commune" geoname="Aromas" code_insee="39018" code_canton="3909"/><polygon points="103,13 110,14 102,27 108,29 105,50 113,52 109,62 101,60 100,75 92,73 93,81 92,85 86,79 82,82 80,77 73,77 75,69 81,61 90,21 98,21 97,15 103,13" id="39021" class="commune" fill="steelblue" stroke-width="1" stroke="white" geotype="commune" geoname="Arthenas" code_insee="39021" code_canton="3909"/><polygon points="105,82 135,82 132,102 128,103 128,119 121,127 105,127 109,110 105,82" id="39045" class="commune" fill="steelblue" stroke-width="1" stroke="white" geotype="commune" geoname="Beffia" code_insee="39045" code_canton="3909"/><polygon points="59,257 58,255 69,235 88,235 100,230 108,251 104,258 88,257 82,260 71,259 72,256 67,255 66,258 59,257" id="39062" class="commune" fill="steelblue" stroke-width="1" stroke="white" geotype="commune" geoname="Boissière" code_insee="39062" code_canton="3909"/><polygon points="239,316 234,315 229,296 221,283 237,253 231,252 238,239 217,232 221,223 204,214 208,210 212,212 218,205 239,205 246,226 244,233 262,233 265,236 266,244 256,247 256,253 266,258 283,260 278,272 254,288 246,297 248,303 239,316" id="39086" class="commune" fill="steelblue" stroke-width="1" stroke="white" geotype="commune" geoname="Cernon" code_insee="39086" code_canton="3909"/><polygon points="148,341 147,330 137,324 137,316 150,312 172,314 170,321 163,340 148,341" id="39089" class="commune" fill="steelblue" stroke-width="1" stroke="white" geotype="commune" geoname="Cézia" code_insee="39089" code_canton="3909"/><polygon points="158,153 172,157 178,166 187,168 181,177 182,191 176,193 178,202 164,199 150,200 141,212 117,212 117,196 110,192 121,172 125,166 152,158 158,153" id="39092" class="commune" fill="steelblue" stroke-width="1" stroke="white" geotype="commune" geoname="Chambéria" code_insee="39092" code_canton="3909"/><polygon points="251,359 251,349 242,344 234,356 225,354 221,351 230,336 235,325 242,326 250,336 250,344 261,351 256,360 251,359" id="39102" class="commune" fill="steelblue" stroke-width="1" stroke="white" geotype="commune" geoname="Chancia" code_insee="39102" code_canton="3909"/><polygon points="360,166 359,177 335,207 323,211 310,185 322,181 323,172 332,167 332,162 354,163 360,166" id="39106" class="commune" fill="steelblue" stroke-width="1" stroke="white" geotype="commune" geoname="Charchilla" code_insee="39106" code_canton="3909"/><polygon points="49,324 51,324 59,325 63,335 59,342 55,376 54,379 45,382 34,381 35,354 43,345 49,324" id="39111" class="commune" fill="steelblue" stroke-width="1" stroke="white" geotype="commune" geoname="Charnod" code_insee="39111" code_canton="3909"/><polygon points="433,99 439,89 444,83 452,87 462,74 466,74 500,91 473,125 469,134 443,122 437,125 423,125 411,140 406,139 415,123 433,99" id="39118" class="commune" fill="steelblue" stroke-width="1" stroke="white" geotype="commune" geoname="Châtel-de-Joux" code_insee="39118" code_canton="3909"/><polygon points="132,252 126,256 116,253 111,255 108,251 100,230 115,227 121,230 128,244 134,245 132,252" id="39123" class="commune" fill="steelblue" stroke-width="1" stroke="white" geotype="commune" geoname="Chatonnay" code_insee="39123" code_canton="3909"/><polygon points="158,153 152,158 125,166 121,172 116,174 106,166 111,144 105,136 105,127 121,127 128,119 140,124 161,132 158,153" id="39134" class="commune" fill="steelblue" stroke-width="1" stroke="white" geotype="commune" geoname="Chavéria" code_insee="39134" code_canton="3909"/><polygon points="137,324 147,330 148,341 145,344 142,337 132,337 131,343 117,351 111,346 112,341 122,341 125,332 137,324" id="39137" class="commune" fill="steelblue" stroke-width="1" stroke="white" geotype="commune" geoname="Chemilla" code_insee="39137" code_canton="3909"/><polygon points="137,316 108,308 105,303 117,288 137,289 143,294 150,292 175,303 181,296 187,297 174,320 170,321 172,314 150,312 137,316" id="39148" class="commune" fill="steelblue" stroke-width="1" stroke="white" geotype="commune" geoname="Chisséria" code_insee="39148" code_canton="3909"/><polygon points="193,390 183,406 169,413 143,411 136,420 124,420 137,403 144,400 152,383 160,383 174,379 179,382 195,386 193,390" id="39158" class="commune" fill="steelblue" stroke-width="1" stroke="white" geotype="commune" geoname="Coisia" code_insee="39158" code_canton="3909"/><polygon points="234,356 226,364 204,367 195,386 179,382 185,371 189,373 206,358 211,348 224,343 227,334 230,336 221,351 225,354 234,356" id="39163" class="commune" fill="steelblue" stroke-width="1" stroke="white" geotype="commune" geoname="Condes" code_insee="39163" code_canton="3909"/><polygon points="152,383 144,400 137,403 124,420 119,419 112,426 108,425 103,430 95,429 96,418 91,417 94,412 90,407 100,370 98,363 101,365 114,362 125,368 150,367 147,378 152,383" id="39166" class="commune" fill="steelblue" stroke-width="1" stroke="white" geotype="commune" geoname="Cornod" code_insee="39166" code_canton="3909"/><polygon points="161,17 154,26 137,29 138,23 132,20 135,11 141,10 145,0 148,1 157,6 161,17" id="39168" class="commune" fill="steelblue" stroke-width="1" stroke="white" geotype="commune" geoname="Courbette" code_insee="39168" code_canton="3909"/><polygon points="283,147 280,148 279,142 289,134 278,130 284,121 289,117 315,116 318,114 337,112 347,117 343,117 343,131 335,132 314,145 301,137 285,142 283,147" id="39175" class="commune" fill="steelblue" stroke-width="1" stroke="white" geotype="commune" geoname="Coyron" code_insee="39175" code_canton="3909"/><polygon points="335,207 359,177 360,166 366,168 377,158 397,173 387,198 379,205 358,210 335,207" id="39179" class="commune" fill="steelblue" stroke-width="1" stroke="white" geotype="commune" geoname="Crenans" code_insee="39179" code_canton="3909"/><polygon points="418,187 473,167 476,169 476,165 483,167 471,185 466,205 458,212 438,210 429,206 418,187" id="39184" class="commune" fill="steelblue" stroke-width="1" stroke="white" geotype="commune" geoname="Crozets" code_insee="39184" code_canton="3909"/><polygon points="201,36 209,49 231,61 217,80 192,83 182,63 180,47 189,46 201,36" id="39200" class="commune" fill="steelblue" stroke-width="1" stroke="white" geotype="commune" geoname="Dompierre-sur-Mont" code_insee="39200" code_canton="3909"/><polygon points="126,256 127,262 119,270 119,282 117,279 110,281 90,277 89,286 86,282 77,282 75,278 67,278 64,273 66,264 59,257 66,258 67,255 72,256 71,259 82,260 88,257 104,258 108,251 111,255 116,253 126,256" id="39204" class="commune" fill="steelblue" stroke-width="1" stroke="white" geotype="commune" geoname="Dramelay" code_insee="39204" code_canton="3909"/><polygon points="206,135 204,131 212,130 217,123 221,123 236,122 235,131 244,132 252,157 246,159 244,167 240,166 237,146 229,152 218,149 215,151 206,135" id="39207" class="commune" fill="steelblue" stroke-width="1" stroke="white" geotype="commune" geoname="Écrille" code_insee="39207" code_canton="3909"/><polygon points="137,29 132,39 121,59 113,52 105,50 108,29 102,27 110,14 117,19 124,15 132,20 138,23 137,29" id="39215" class="commune" fill="steelblue" stroke-width="1" stroke="white" geotype="commune" geoname="Essia" code_insee="39215" code_canton="3909"/><polygon points="418,187 417,181 410,178 415,153 411,140 423,125 437,125 443,122 469,134 456,162 476,165 476,169 473,167 418,187" id="39216" class="commune" fill="steelblue" stroke-width="1" stroke="white" geotype="commune" geoname="Étival" code_insee="39216" code_canton="3909"/><polygon points="204,214 221,223 217,232 206,225 211,222 200,213 196,223 190,225 194,231 189,233 179,230 166,231 162,228 169,218 182,210 199,211 204,214" id="39224" class="commune" fill="steelblue" stroke-width="1" stroke="white" geotype="commune" geoname="Fétigny" code_insee="39224" code_canton="3909"/><polygon points="104,317 111,323 109,339 72,336 76,328 82,327 94,314 100,313 104,317" id="39247" class="commune" fill="steelblue" stroke-width="1" stroke="white" geotype="commune" geoname="Genod" code_insee="39247" code_canton="3909"/><polygon points="324,329 303,332 299,339 293,337 285,327 298,314 301,312 311,317 348,272 350,281 338,291 344,294 340,309 355,305 354,308 324,329" id="39269" class="commune" fill="steelblue" stroke-width="1" stroke="white" geotype="commune" geoname="Jeurre" code_insee="39269" code_canton="3909"/><polygon points="148,341 163,340 170,321 174,320 181,328 171,348 178,351 160,383 152,383 147,378 150,367 125,368 114,362 119,354 117,351 131,343 132,337 142,337 145,344 148,341" id="39287" class="commune" fill="steelblue" stroke-width="1" stroke="white" geotype="commune" geoname="Lavans-sur-Valouse" code_insee="39287" code_canton="3909"/><polygon points="242,326 235,325 239,316 248,303 246,297 254,288 278,272 283,260 285,256 268,257 259,249 269,249 291,242 301,244 315,259 299,288 300,299 292,304 280,306 269,305 256,309 242,326" id="39289" class="commune" fill="steelblue" stroke-width="1" stroke="white" geotype="commune" geoname="Lect" code_insee="39289" code_canton="3909"/><polygon points="231,252 224,263 217,251 203,257 194,254 170,256 154,247 151,245 157,240 154,239 162,228 166,231 179,230 189,233 194,231 190,225 196,223 200,213 211,222 206,225 217,232 238,239 231,252" id="39290" class="commune" fill="steelblue" stroke-width="1" stroke="white" geotype="commune" geoname="Légna" code_insee="39290" code_canton="3909"/><polygon points="283,147 285,142 301,137 314,145 332,162 332,167 323,172 322,181 310,185 323,211 313,213 312,200 302,197 294,197 282,186 282,171 298,160 293,152 283,147" id="39307" class="commune" fill="steelblue" stroke-width="1" stroke="white" geotype="commune" geoname="Maisod" code_insee="39307" code_canton="3909"/><polygon points="115,227 100,230 88,235 69,235 70,218 77,208 80,191 110,192 117,196 117,212 110,226 115,227" id="39312" class="commune" fill="steelblue" stroke-width="1" stroke="white" geotype="commune" geoname="Marigna-sur-Valouse" code_insee="39312" code_canton="3909"/><polygon points="252,52 245,53 239,64 231,61 209,49 201,36 233,38 238,32 253,34 260,26 252,52" id="39314" class="commune" fill="steelblue" stroke-width="1" stroke="white" geotype="commune" geoname="Marnézia" code_insee="39314" code_canton="3909"/><polygon points="348,272 311,317 301,312 298,314 280,306 292,304 300,299 299,288 315,259 322,258 342,265 348,272" id="39318" class="commune" fill="steelblue" stroke-width="1" stroke="white" geotype="commune" geoname="Martigna" code_insee="39318" code_canton="3909"/><polygon points="217,80 231,61 239,64 245,53 248,71 244,78 232,89 218,89 217,80" id="39324" class="commune" fill="steelblue" stroke-width="1" stroke="white" geotype="commune" geoname="Mérona" code_insee="39324" code_canton="3909"/><polygon points="406,139 411,140 415,153 410,178 397,173 377,158 366,168 360,166 354,163 332,162 314,145 335,132 343,131 343,117 347,117 351,125 390,149 406,139" id="39328" class="commune" fill="steelblue" stroke-width="1" stroke="white" geotype="commune" geoname="Meussia" code_insee="39328" code_canton="3909"/><polygon points="410,178 417,181 418,187 429,206 438,210 426,224 411,227 390,244 379,251 384,229 374,224 359,237 344,259 343,256 343,256 342,265 322,258 315,259 301,244 291,242 289,236 299,231 301,226 316,220 313,213 323,211 335,207 358,210 379,205 387,198 397,173 410,178" id="39333" class="commune" fill="steelblue" stroke-width="1" stroke="white" geotype="commune" geoname="Moirans-en-Montagne" code_insee="39333" code_canton="3909"/><polygon points="256,360 261,351 250,344 250,336 242,326 256,309 269,305 280,306 298,314 285,327 293,337 272,358 262,363 256,360" id="39351" class="commune" fill="steelblue" stroke-width="1" stroke="white" geotype="commune" geoname="Montcusel" code_insee="39351" code_canton="3909"/><polygon points="128,119 128,103 132,102 135,82 144,83 143,87 158,104 164,106 163,109 151,111 148,122 140,124 128,119" id="39375" class="commune" fill="steelblue" stroke-width="1" stroke="white" geotype="commune" geoname="Moutonne" code_insee="39375" code_canton="3909"/><polygon points="110,192 80,191 79,178 69,178 72,172 74,167 81,162 106,166 116,174 121,172 110,192" id="39380" class="commune" fill="steelblue" stroke-width="1" stroke="white" geotype="commune" geoname="Nancuise" code_insee="39380" code_canton="3909"/><polygon points="283,260 266,258 256,253 256,247 266,244 265,236 262,233 244,233 246,226 239,205 244,167 246,159 252,157 257,155 261,154 266,175 264,182 283,207 307,214 302,197 312,200 313,213 316,220 301,226 299,231 289,236 291,242 269,249 259,249 268,257 285,256 283,260" id="39394" class="commune" fill="steelblue" stroke-width="1" stroke="white" geotype="commune" geoname="Onoz" code_insee="39394" code_canton="3909"/><polygon points="192,83 217,80 218,89 214,97 217,100 210,106 224,112 221,123 217,123 212,130 204,131 206,135 179,149 172,157 158,153 161,132 140,124 148,122 151,111 163,109 164,106 158,104 164,96 190,87 192,83" id="39397" class="commune" fill="steelblue" stroke-width="1" stroke="white" geotype="commune" geoname="Orgelet" code_insee="39397" code_canton="3909"/><polygon points="280,148 283,147 293,152 298,160 282,171 282,186 294,197 302,197 307,214 283,207 264,182 266,175 261,154 257,155 254,147 258,139 258,145 262,147 280,148" id="39397" class="commune" fill="steelblue" stroke-width="1" stroke="white" geotype="commune" geoname="Orgelet" code_insee="39397" code_canton="3909"/><polygon points="69,178 62,175 45,176 32,172 30,161 42,137 62,115 74,116 82,127 76,139 72,172 69,178" id="39420" class="commune" fill="steelblue" stroke-width="1" stroke="white" geotype="commune" geoname="Pimorin" code_insee="39420" code_canton="3909"/><polygon points="244,78 246,80 235,107 253,132 249,136 254,147 257,155 252,157 244,132 235,131 236,122 221,123 224,112 210,106 217,100 214,97 218,89 232,89 244,78" id="39423" class="commune" fill="steelblue" stroke-width="1" stroke="white" geotype="commune" geoname="Plaisia" code_insee="39423" code_canton="3909"/><polygon points="399,317 396,320 386,330 376,323 369,311 354,308 355,305 355,299 369,290 361,284 362,281 382,260 390,268 394,285 410,291 406,305 395,311 400,314 399,317" id="39440" class="commune" fill="steelblue" stroke-width="1" stroke="white" geotype="commune" geoname="Pratz" code_insee="39440" code_canton="3909"/><polygon points="142,40 175,43 180,47 182,63 192,83 190,87 164,96 158,104 143,87 144,83 139,68 142,40" id="39443" class="commune" fill="steelblue" stroke-width="1" stroke="white" geotype="commune" geoname="Présilly" code_insee="39443" code_canton="3909"/><polygon points="105,82 121,59 132,39 142,40 139,68 144,83 135,82 105,82" id="39455" class="commune" fill="steelblue" stroke-width="1" stroke="white" geotype="commune" geoname="Reithouse" code_insee="39455" code_canton="3909"/><polygon points="73,92 73,87 82,82 86,79 92,85 93,81 105,82 109,110 105,127 105,136 111,144 106,166 81,162 74,167 72,172 76,139 82,127 74,116 81,96 73,92" id="39468" class="commune" fill="steelblue" stroke-width="1" stroke="white" geotype="commune" geoname="Rothonay" code_insee="39468" code_canton="3909"/><polygon points="104,317 108,308 137,316 137,324 125,332 122,341 112,341 109,339 111,323 104,317" id="39483" class="commune" fill="steelblue" stroke-width="1" stroke="white" geotype="commune" geoname="Saint-Hymetière" code_insee="39483" code_canton="3909"/><polygon points="206,135 215,151 218,149 229,152 237,146 240,166 244,167 239,205 218,205 212,212 208,210 204,214 199,211 182,210 175,207 178,202 176,193 182,191 181,177 187,168 178,166 172,157 179,149 206,135" id="39504" class="commune" fill="steelblue" stroke-width="1" stroke="white" geotype="commune" geoname="Sarrogna" code_insee="39504" code_canton="3909"/><polygon points="154,247 150,253 132,252 134,245 128,244 121,230 115,227 110,226 117,212 141,212 150,200 164,199 178,202 175,207 182,210 169,218 162,228 154,239 157,240 151,245 154,247" id="39506" class="commune" fill="steelblue" stroke-width="1" stroke="white" geotype="commune" geoname="Savigna" code_insee="39506" code_canton="3909"/><polygon points="136,420 110,442 84,449 71,449 62,447 61,440 56,444 58,430 72,409 78,409 80,405 90,407 94,412 91,417 96,418 95,429 103,430 108,425 112,426 119,419 124,420 136,420" id="39530" class="commune" fill="steelblue" stroke-width="1" stroke="white" geotype="commune" geoname="Thoirette" code_insee="39530" code_canton="3909"/><polygon points="246,80 285,91 293,105 305,105 318,114 315,116 289,117 284,121 278,130 289,134 279,142 280,148 262,147 258,145 258,139 254,147 249,136 253,132 235,107 246,80" id="39534" class="commune" fill="steelblue" stroke-width="1" stroke="white" geotype="commune" geoname="Tour-du-Meix" code_insee="39534" code_canton="3909"/><polygon points="51,324 52,318 64,312 71,299 80,303 85,286 89,286 90,277 110,281 117,279 119,282 114,282 117,288 105,303 108,308 104,317 100,313 94,314 82,327 76,328 72,336 63,335 59,325 51,324" id="39542" class="commune" fill="steelblue" stroke-width="1" stroke="white" geotype="commune" geoname="Valfin-sur-Valouse" code_insee="39542" code_canton="3909"/><polygon points="121,59 105,82 93,81 92,73 100,75 101,60 109,62 113,52 121,59" id="39544" class="commune" fill="steelblue" stroke-width="1" stroke="white" geotype="commune" geoname="Varessia" code_insee="39544" code_canton="3909"/><polygon points="221,283 229,296 234,315 239,316 235,325 230,336 227,334 224,343 211,348 206,358 189,373 185,371 179,382 174,379 160,383 178,351 171,348 181,328 174,320 187,297 201,282 221,283" id="39557" class="commune" fill="steelblue" stroke-width="1" stroke="white" geotype="commune" geoname="Vescles" code_insee="39557" code_canton="3909"/><polygon points="390,244 395,247 382,260 362,281 361,284 369,290 355,299 355,305 340,309 344,294 338,291 350,281 348,272 342,265 343,256 343,256 344,259 359,237 374,224 384,229 379,251 390,244" id="39561" class="commune" fill="steelblue" stroke-width="1" stroke="white" geotype="commune" geoname="Villards-d'Héria" code_insee="39561" code_canton="3909"/><polygon points="109,339 112,341 111,346 117,351 119,354 114,362 101,365 98,363 100,370 90,407 80,405 76,404 75,375 55,376 59,342 63,335 72,336 109,339" id="39583" class="commune" fill="steelblue" stroke-width="1" stroke="white" geotype="commune" geoname="Vosbles" code_insee="39583" code_canton="3909"/></svg>