<?xml version="1.0" encoding="utf-8"?>
<svg version="1.1" id="svgmap" xmlns="http://www.w3.org/2000/svg" xmlns:xlink="http://www.w3.org/1999/xlink" x="0px" y="0px" width="100%" height="100%" viewBox="0 0 500 336">
<polygon points="408,138 392,146 382,149 391,144 387,141 373,148 370,146 379,141 363,128 365,121 370,117 372,117 364,110 371,109 376,111 376,109 402,118 405,123 401,124 416,135 408,138" id="39020" class="commune" fill="steelblue" stroke-width="1" stroke="white" geotype="commune" geoname="Arsure-Arsurette" code_insee="39020" code_canton="3915"/><polygon points="45,270 56,267 59,263 65,263 69,269 67,277 70,284 64,298 51,299 42,293 34,293 28,284 32,280 33,275 41,274 41,271 45,270" id="39038" class="commune" fill="steelblue" stroke-width="1" stroke="white" geotype="commune" geoname="Barésia-sur-l'Ain" code_insee="39038" code_canton="3915"/><polygon points="363,128 379,141 370,146 373,148 358,156 356,154 361,151 358,146 355,146 352,142 340,137 346,133 347,127 354,125 363,128" id="39052" class="commune" fill="steelblue" stroke-width="1" stroke="white" geotype="commune" geoname="Bief-des-Maisons" code_insee="39052" code_canton="3915"/><polygon points="450,37 448,39 436,42 434,46 429,45 425,48 414,48 417,51 412,50 408,50 400,44 399,40 403,38 401,38 402,28 409,16 407,14 409,13 418,22 437,31 450,34 450,37" id="39053" class="commune" fill="steelblue" stroke-width="1" stroke="white" geotype="commune" geoname="Bief-du-Fourg" code_insee="39053" code_canton="3915"/><polygon points="376,109 376,111 371,109 364,110 372,117 370,117 358,108 360,100 355,95 350,94 358,85 368,95 378,97 378,101 382,101 383,104 377,106 376,109" id="39055" class="commune" fill="steelblue" stroke-width="1" stroke="white" geotype="commune" geoname="Billecul" code_insee="39055" code_canton="3915"/><polygon points="65,263 59,263 51,259 52,248 60,249 67,242 68,239 59,236 61,235 80,234 89,240 87,244 76,244 80,251 70,257 68,263 65,263" id="39061" class="commune" fill="steelblue" stroke-width="1" stroke="white" geotype="commune" geoname="Boissia" code_insee="39061" code_canton="3915"/><polygon points="141,241 142,240 152,235 160,237 176,235 176,229 173,230 171,226 178,224 178,221 193,217 212,220 218,225 212,229 207,246 201,254 190,245 164,244 158,241 141,241" id="39063" class="commune" fill="steelblue" stroke-width="1" stroke="white" geotype="commune" geoname="Bonlieu" code_insee="39063" code_canton="3915"/><polygon points="381,58 377,55 368,60 366,58 367,55 364,50 369,45 364,39 363,34 384,33 391,26 389,23 399,16 407,14 409,16 402,28 401,38 403,38 399,40 389,44 388,48 391,54 381,58" id="39083" class="commune" fill="steelblue" stroke-width="1" stroke="white" geotype="commune" geoname="Censeau" code_insee="39083" code_canton="3915"/><polygon points="454,114 438,121 432,124 432,125 420,117 416,117 411,122 407,121 400,115 400,110 403,108 407,107 412,101 418,100 418,95 421,96 419,93 422,92 445,102 453,109 454,114" id="39085" class="commune" fill="steelblue" stroke-width="1" stroke="white" geotype="commune" geoname="Cerniébaud" code_insee="39085" code_canton="3915"/><polygon points="319,154 321,151 318,144 325,138 330,143 336,141 338,132 336,129 343,126 347,127 346,133 340,137 352,142 355,146 358,146 361,151 356,154 358,156 342,167 339,168 336,162 319,154" id="39091" class="commune" fill="steelblue" stroke-width="1" stroke="white" geotype="commune" geoname="Chalesmes" code_insee="39091" code_canton="3915"/><polygon points="74,196 89,197 96,200 98,194 104,190 114,189 121,190 122,192 132,202 130,205 133,207 129,216 118,219 117,217 109,216 104,220 83,215 79,213 81,209 78,201 71,198 74,196" id="39107" class="commune" fill="steelblue" stroke-width="1" stroke="white" geotype="commune" geoname="Charcier" code_insee="39107" code_canton="3915"/><polygon points="310,90 293,87 296,82 308,76 320,75 321,80 314,91 313,91 310,90" id="39108" class="commune" fill="steelblue" stroke-width="1" stroke="white" geotype="commune" geoname="Charency" code_insee="39108" code_canton="3915"/><polygon points="117,217 113,223 87,221 82,225 76,224 72,228 70,228 60,234 53,238 53,236 48,238 45,236 56,232 54,231 57,228 55,226 54,217 68,202 66,198 71,198 78,201 81,209 79,213 83,215 104,220 109,216 117,217" id="39109" class="commune" fill="steelblue" stroke-width="1" stroke="white" geotype="commune" geoname="Charézier" code_insee="39109" code_canton="3915"/><polygon points="210,319 217,311 243,300 265,305 263,314 245,321 231,326 210,319" id="39115" class="commune" fill="steelblue" stroke-width="1" stroke="white" geotype="commune" geoname="Château-des-Prés" code_insee="39115" code_canton="3915"/><polygon points="242,234 251,224 257,223 263,216 270,212 273,212 277,209 281,213 282,222 289,231 260,251 242,234" id="39126" class="commune" fill="steelblue" stroke-width="1" stroke="white" geotype="commune" geoname="Chaumusse" code_insee="39126" code_canton="3915"/><polygon points="287,160 294,168 301,170 305,175 300,177 298,176 302,182 295,184 266,191 260,197 260,197 256,194 262,184 262,176 265,172 258,163 261,159 268,156 273,157 278,161 284,158 287,160" id="39129" class="commune" fill="steelblue" stroke-width="1" stroke="white" geotype="commune" geoname="Chaux-des-Crotenay" code_insee="39129" code_canton="3915"/><polygon points="195,326 180,336 174,335 169,330 174,316 179,318 190,304 203,310 217,311 210,319 195,326" id="39130" class="commune" fill="steelblue" stroke-width="1" stroke="white" geotype="commune" geoname="Chaux-des-Prés" code_insee="39130" code_canton="3915"/><polygon points="251,199 256,195 260,197 260,197 271,205 277,209 273,212 270,212 263,216 257,223 251,224 242,234 238,233 223,248 219,248 210,265 202,262 196,261 201,254 207,246 212,229 218,225 212,220 211,211 218,203 239,207 251,199" id="39131" class="commune" fill="steelblue" stroke-width="1" stroke="white" geotype="commune" geoname="Chaux-du-Dombief" code_insee="39131" code_canton="3915"/><polygon points="168,182 172,176 188,175 198,177 211,183 208,189 216,192 196,193 184,187 172,183 171,185 168,182" id="39143" class="commune" fill="steelblue" stroke-width="1" stroke="white" geotype="commune" geoname="Chevrotaine" code_insee="39143" code_canton="3915"/><polygon points="125,252 130,256 128,257 117,253 107,254 101,258 105,259 103,262 105,265 114,265 126,271 134,282 130,289 127,284 113,277 110,273 106,275 97,273 95,268 84,269 73,267 69,269 65,263 68,263 70,257 80,251 76,244 87,244 89,240 91,239 95,248 100,253 104,253 115,249 118,252 125,252" id="39154" class="commune" fill="steelblue" stroke-width="1" stroke="white" geotype="commune" geoname="Clairvaux-les-Lacs" code_insee="39154" code_canton="3915"/><polygon points="142,240 141,241 125,248 132,251 125,252 118,252 115,249 104,253 100,253 95,248 91,239 114,232 135,241 142,240" id="39156" class="commune" fill="steelblue" stroke-width="1" stroke="white" geotype="commune" geoname="Cogna" code_insee="39156" code_canton="3915"/><polygon points="388,61 381,58 391,54 388,48 389,44 399,40 400,44 408,50 412,50 409,52 412,53 410,57 413,60 399,63 388,61" id="39161" class="commune" fill="steelblue" stroke-width="1" stroke="white" geotype="commune" geoname="Communailles-en-Montagne" code_insee="39161" code_canton="3915"/><polygon points="331,91 338,99 337,100 330,101 322,108 318,105 313,106 311,104 313,91 314,91 325,92 329,90 331,91" id="39165" class="commune" fill="steelblue" stroke-width="1" stroke="white" geotype="commune" geoname="Conte" code_insee="39165" code_canton="3915"/><polygon points="318,144 321,151 319,154 306,164 297,158 287,156 280,146 284,141 286,132 291,128 295,129 294,132 299,133 301,130 306,138 309,140 313,139 318,144" id="39178" class="commune" fill="steelblue" stroke-width="1" stroke="white" geotype="commune" geoname="Crans" code_insee="39178" code_canton="3915"/><polygon points="358,12 365,9 374,0 380,3 393,9 391,14 399,16 389,23 391,26 384,33 363,34 351,18 358,12" id="39187" class="commune" fill="steelblue" stroke-width="1" stroke="white" geotype="commune" geoname="Cuvier" code_insee="39187" code_canton="3915"/><polygon points="129,216 133,207 130,205 132,202 122,192 129,189 136,192 141,198 148,202 149,211 153,213 156,221 154,223 148,222 148,227 139,224 137,226 129,216" id="39192" class="commune" fill="steelblue" stroke-width="1" stroke="white" geotype="commune" geoname="Denezières" code_insee="39192" code_canton="3915"/><polygon points="122,192 121,190 114,189 104,190 98,194 96,200 89,197 74,196 79,194 75,190 94,187 99,181 104,178 107,171 116,169 129,174 147,175 134,185 144,187 153,195 155,200 159,200 159,205 154,204 155,207 149,211 148,202 141,198 136,192 129,189 122,192" id="39201" class="commune" fill="steelblue" stroke-width="1" stroke="white" geotype="commune" geoname="Doucier" code_insee="39201" code_canton="3915"/><polygon points="335,68 338,72 338,87 331,91 329,90 325,92 314,91 321,80 320,75 331,74 335,68 335,68" id="39203" class="commune" fill="steelblue" stroke-width="1" stroke="white" geotype="commune" geoname="Doye" code_insee="39203" code_canton="3915"/><polygon points="295,184 301,189 307,188 309,191 309,193 302,195 298,197 279,198 279,200 272,202 271,205 260,197 266,191 295,184" id="39208" class="commune" fill="steelblue" stroke-width="1" stroke="white" geotype="commune" geoname="Entre-deux-Monts" code_insee="39208" code_canton="3915"/><polygon points="366,58 348,60 347,57 348,45 353,51 364,50 367,55 366,58" id="39213" class="commune" fill="steelblue" stroke-width="1" stroke="white" geotype="commune" geoname="Esserval-Combe" code_insee="39213" code_canton="3915"/><polygon points="319,24 317,21 322,12 326,10 327,12 337,3 336,7 345,9 360,10 358,12 351,18 363,34 364,39 369,45 364,50 353,51 348,45 347,43 351,42 346,38 341,37 340,32 328,29 322,24 319,24" id="39214" class="commune" fill="steelblue" stroke-width="1" stroke="white" geotype="commune" geoname="Esserval-Tartre" code_insee="39214" code_canton="3915"/><polygon points="350,94 355,95 360,100 358,108 352,104 353,110 348,109 343,101 337,100 338,99 338,95 344,88 350,94" id="39221" class="commune" fill="steelblue" stroke-width="1" stroke="white" geotype="commune" geoname="Favière" code_insee="39221" code_canton="3915"/><polygon points="334,206 315,200 311,194 334,190 339,184 339,190 346,190 347,192 351,190 353,200 369,209 367,214 374,219 366,218 363,220 334,206" id="39227" class="commune" fill="steelblue" stroke-width="1" stroke="white" geotype="commune" geoname="Foncine-le-Bas" code_insee="39227" code_canton="3915"/><polygon points="339,184 330,180 332,174 344,169 342,167 358,156 373,148 387,141 391,144 382,149 392,146 378,151 410,186 402,190 405,193 388,199 369,209 353,200 351,190 347,192 346,190 339,190 339,184" id="39228" class="commune" fill="steelblue" stroke-width="1" stroke="white" geotype="commune" geoname="Foncine-le-Haut" code_insee="39228" code_canton="3915"/><polygon points="152,152 150,151 151,144 153,144 152,152" id="39230" class="commune" fill="steelblue" stroke-width="1" stroke="white" geotype="commune" geoname="Fontenu" code_insee="39230" code_canton="3915"/><polygon points="172,176 168,182 158,180 147,175 129,174 116,169 120,163 134,166 133,165 143,163 148,164 155,156 156,153 153,152 153,150 164,151 169,153 167,155 169,156 170,154 177,154 173,158 171,159 168,172 172,176" id="39230" class="commune" fill="steelblue" stroke-width="1" stroke="white" geotype="commune" geoname="Fontenu" code_insee="39230" code_canton="3915"/><polygon points="302,195 311,194 315,200 334,206 290,232 289,231 282,222 281,213 277,209 271,205 272,202 279,200 279,198 298,197 302,195" id="39232" class="commune" fill="steelblue" stroke-width="1" stroke="white" geotype="commune" geoname="Fort-du-Plasne" code_insee="39232" code_canton="3915"/><polygon points="382,101 383,98 386,98 390,103 402,104 403,108 400,110 400,115 407,121 411,122 416,117 420,117 432,125 416,135 416,135 401,124 405,123 402,118 376,109 377,106 383,104 382,101" id="39237" class="commune" fill="steelblue" stroke-width="1" stroke="white" geotype="commune" geoname="Fraroz" code_insee="39237" code_canton="3915"/><polygon points="128,257 130,256 125,252 132,251 145,261 152,272 150,272 143,281 137,278 141,273 128,257" id="39239" class="commune" fill="steelblue" stroke-width="1" stroke="white" geotype="commune" geoname="Frasnée" code_insee="39239" code_canton="3915"/><polygon points="217,181 239,182 245,186 240,188 243,192 252,186 255,190 248,197 251,199 239,207 218,203 211,211 212,220 193,217 189,214 188,208 189,202 194,200 202,196 196,193 216,192 208,189 211,183 212,180 217,181" id="39240" class="commune" fill="steelblue" stroke-width="1" stroke="white" geotype="commune" geoname="Frasnois" code_insee="39240" code_canton="3915"/><polygon points="322,108 330,101 337,100 343,101 348,109 353,110 352,104 358,108 370,117 365,121 363,128 354,125 347,127 343,126 336,129 329,126 326,117 317,111 321,111 319,109 322,108" id="39254" class="commune" fill="steelblue" stroke-width="1" stroke="white" geotype="commune" geoname="Gillois" code_insee="39254" code_canton="3915"/><polygon points="184,280 189,277 202,281 205,274 208,275 209,269 225,278 235,276 249,267 255,270 259,263 286,283 278,289 271,301 265,305 243,300 217,311 203,310 190,304 191,293 196,287 184,280" id="39258" class="commune" fill="steelblue" stroke-width="1" stroke="white" geotype="commune" geoname="Grande-Rivière" code_insee="39258" code_canton="3915"/><polygon points="137,278 134,282 126,271 114,265 105,265 103,262 105,259 101,258 107,254 117,253 128,257 141,273 137,278" id="39265" class="commune" fill="steelblue" stroke-width="1" stroke="white" geotype="commune" geoname="Hautecour" code_insee="39265" code_canton="3915"/><polygon points="359,224 356,229 326,245 312,259 298,249 299,242 290,232 334,206 363,220 359,224" id="39271" class="commune" fill="steelblue" stroke-width="1" stroke="white" geotype="commune" geoname="Lac-des-Rouges-Truites" code_insee="39271" code_canton="3915"/><polygon points="1,258 6,257 18,260 28,262 27,264 36,267 43,267 45,270 41,271 41,274 33,275 32,280 28,284 2,276 0,274 3,270 1,258" id="39278" class="commune" fill="steelblue" stroke-width="1" stroke="white" geotype="commune" geoname="Largillay-Marsonnay" code_insee="39278" code_canton="3915"/><polygon points="403,108 402,104 390,103 386,98 383,98 385,96 380,90 381,88 384,89 388,86 390,88 402,85 405,89 414,91 416,88 422,92 419,93 421,96 418,95 418,100 412,101 407,107 403,108" id="39282" class="commune" fill="steelblue" stroke-width="1" stroke="white" geotype="commune" geoname="Latette" code_insee="39282" code_canton="3915"/><polygon points="402,85 390,88 388,86 384,89 381,88 380,90 378,80 372,78 366,77 370,74 366,74 365,71 368,70 383,69 382,73 385,72 387,77 391,77 402,85" id="39298" class="commune" fill="steelblue" stroke-width="1" stroke="white" geotype="commune" geoname="Longcochon" code_insee="39298" code_canton="3915"/><polygon points="99,181 92,179 95,176 90,174 86,164 97,160 103,155 111,155 113,149 111,148 111,145 129,146 134,147 136,150 142,150 150,151 152,152 153,152 156,153 155,156 148,164 143,163 133,165 134,166 120,163 116,169 107,171 104,178 99,181" id="39313" class="commune" fill="steelblue" stroke-width="1" stroke="white" geotype="commune" geoname="Marigny" code_insee="39313" code_canton="3915"/><polygon points="193,217 178,221 168,223 158,221 153,213 149,211 155,207 154,204 159,205 159,200 159,195 167,195 173,197 178,202 187,198 194,200 189,202 188,208 189,214 193,217" id="39322" class="commune" fill="steelblue" stroke-width="1" stroke="white" geotype="commune" geoname="Menétrux-en-Joux" code_insee="39322" code_canton="3915"/><polygon points="11,239 14,230 16,230 18,224 21,226 24,225 17,216 28,217 36,219 38,223 41,221 55,226 57,228 54,231 56,232 45,236 48,238 53,236 53,238 48,242 43,241 39,247 33,242 23,246 18,260 6,257 11,239" id="39326" class="commune" fill="steelblue" stroke-width="1" stroke="white" geotype="commune" geoname="Mesnois" code_insee="39326" code_canton="3915"/><polygon points="338,72 335,68 345,67 344,59 342,57 347,57 348,60 366,58 368,60 370,62 361,69 345,74 343,72 341,73 338,72" id="39329" class="commune" fill="steelblue" stroke-width="1" stroke="white" geotype="commune" geoname="Mièges" code_insee="39329" code_canton="3915"/><polygon points="476,105 462,111 454,114 453,109 445,102 422,92 416,88 414,91 405,89 402,85 391,77 387,77 385,72 382,73 383,69 389,64 388,61 399,63 413,60 410,57 412,53 409,52 412,50 417,51 414,48 425,48 429,45 434,46 436,42 448,39 454,39 456,46 461,48 460,51 472,52 474,56 472,57 478,58 490,71 496,78 500,84 479,93 476,105" id="39331" class="commune" fill="steelblue" stroke-width="1" stroke="white" geotype="commune" geoname="Mignovillard" code_insee="39331" code_canton="3915"/><polygon points="368,60 377,55 381,58 388,61 389,64 383,69 368,70 361,69 370,62 368,60" id="39340" class="commune" fill="steelblue" stroke-width="1" stroke="white" geotype="commune" geoname="Molpré" code_insee="39340" code_canton="3915"/><polygon points="282,92 281,92 286,81 290,82 294,77 294,72 302,68 300,63 317,66 325,64 331,66 329,70 335,68 331,74 320,75 308,76 296,82 293,87 282,92" id="39372" class="commune" fill="steelblue" stroke-width="1" stroke="white" geotype="commune" geoname="Mournans-Charbonny" code_insee="39372" code_canton="3915"/><polygon points="338,99 331,91 338,87 338,72 341,73 343,72 345,74 361,69 368,70 365,71 366,74 370,74 366,77 372,78 354,76 354,79 342,85 344,88 338,95 338,99" id="39391" class="commune" fill="steelblue" stroke-width="1" stroke="white" geotype="commune" geoname="Nozeroy" code_insee="39391" code_canton="3915"/><polygon points="335,68 335,68 329,70 331,66 325,64 317,66 300,63 315,45 297,44 294,36 297,37 300,30 304,26 312,30 316,36 316,40 322,46 320,48 332,55 337,64 344,59 345,67 335,68" id="39393" class="commune" fill="steelblue" stroke-width="1" stroke="white" geotype="commune" geoname="Onglières" code_insee="39393" code_canton="3915"/><polygon points="60,234 61,235 59,236 68,239 67,242 60,249 52,248 48,242 53,238 60,234" id="39408" class="commune" fill="steelblue" stroke-width="1" stroke="white" geotype="commune" geoname="Patornay" code_insee="39408" code_canton="3915"/><polygon points="154,313 157,307 169,313 169,317 174,316 169,330 164,335 159,334 145,332 154,313" id="39417" class="commune" fill="steelblue" stroke-width="1" stroke="white" geotype="commune" geoname="Piards" code_insee="39417" code_canton="3915"/><polygon points="311,194 302,195 309,193 309,191 307,188 301,189 295,184 302,182 298,176 300,177 305,175 301,170 294,168 287,160 287,156 297,158 306,164 319,154 336,162 339,168 342,167 344,169 332,174 330,180 339,184 334,190 311,194" id="39424" class="commune" fill="steelblue" stroke-width="1" stroke="white" geotype="commune" geoname="Planches-en-Montagne" code_insee="39424" code_canton="3915"/><polygon points="347,57 342,57 341,53 336,49 337,47 331,46 323,36 316,40 316,36 319,24 322,24 328,29 340,32 341,37 346,38 351,42 347,43 348,45 347,57" id="39427" class="commune" fill="steelblue" stroke-width="1" stroke="white" geotype="commune" geoname="Plénise" code_insee="39427" code_canton="3915"/><polygon points="344,59 337,64 332,55 320,48 322,46 316,40 323,36 331,46 337,47 336,49 341,53 342,57 344,59" id="39428" class="commune" fill="steelblue" stroke-width="1" stroke="white" geotype="commune" geoname="Plénisette" code_insee="39428" code_canton="3915"/><polygon points="59,263 56,267 45,270 43,267 36,267 27,264 28,262 18,260 23,246 33,242 39,247 43,241 48,242 52,248 51,259 59,263" id="39435" class="commune" fill="steelblue" stroke-width="1" stroke="white" geotype="commune" geoname="Pont-de-Poitte" code_insee="39435" code_canton="3915"/><polygon points="157,307 176,284 177,282 181,284 184,280 196,287 191,293 190,304 179,318 174,316 169,317 169,313 157,307" id="39442" class="commune" fill="steelblue" stroke-width="1" stroke="white" geotype="commune" geoname="Prénovel" code_insee="39442" code_canton="3915"/><polygon points="383,98 382,101 378,101 378,97 368,95 358,85 350,94 344,88 342,85 354,79 354,76 372,78 378,80 380,90 385,96 383,98" id="39461" class="commune" fill="steelblue" stroke-width="1" stroke="white" geotype="commune" geoname="Rix" code_insee="39461" code_canton="3915"/><polygon points="209,157 213,158 217,181 212,180 211,183 198,177 188,175 172,176 168,172 171,159 173,158 179,157 189,163 196,164 201,163 209,157" id="39473" class="commune" fill="steelblue" stroke-width="1" stroke="white" geotype="commune" geoname="Saffloz" code_insee="39473" code_canton="3915"/><polygon points="290,232 299,242 298,249 312,259 300,273 286,283 259,263 255,270 249,267 260,251 289,231 290,232" id="39487" class="commune" fill="steelblue" stroke-width="1" stroke="white" geotype="commune" geoname="Saint-Laurent-en-Grandvaux" code_insee="39487" code_canton="3915"/><polygon points="189,277 184,280 181,284 177,282 176,284 152,272 145,261 132,251 125,248 141,241 158,241 164,244 190,245 201,254 196,261 202,262 189,277" id="39493" class="commune" fill="steelblue" stroke-width="1" stroke="white" geotype="commune" geoname="Saint-Maurice-Crillat" code_insee="39493" code_canton="3915"/><polygon points="242,234 260,251 249,267 235,276 225,278 209,269 208,275 205,274 202,281 189,277 202,262 210,265 219,248 223,248 238,233 242,234" id="39494" class="commune" fill="steelblue" stroke-width="1" stroke="white" geotype="commune" geoname="Saint-Pierre" code_insee="39494" code_canton="3915"/><polygon points="178,221 178,224 171,226 173,230 176,229 176,235 160,237 152,235 151,231 141,232 137,226 139,224 148,227 148,222 154,223 156,221 153,213 158,221 168,223 178,221" id="39505" class="commune" fill="steelblue" stroke-width="1" stroke="white" geotype="commune" geoname="Saugeot" code_insee="39505" code_canton="3915"/><polygon points="168,182 171,185 172,183 184,187 196,193 202,196 194,200 187,198 178,202 173,197 167,195 159,195 159,200 155,200 153,195 144,187 134,185 147,175 158,180 168,182" id="39518" class="commune" fill="steelblue" stroke-width="1" stroke="white" geotype="commune" geoname="Songeson" code_insee="39518" code_canton="3915"/><polygon points="70,284 67,277 69,269 73,267 84,269 95,268 97,273 106,275 110,273 113,277 127,284 130,289 118,306 94,293 87,284 79,281 70,284" id="39519" class="commune" fill="steelblue" stroke-width="1" stroke="white" geotype="commune" geoname="Soucia" code_insee="39519" code_canton="3915"/><polygon points="64,298 70,284 79,281 87,284 94,293 118,306 111,316 100,323 74,307 71,301 64,298" id="39531" class="commune" fill="steelblue" stroke-width="1" stroke="white" geotype="commune" geoname="Thoiria" code_insee="39531" code_canton="3915"/><polygon points="113,223 117,217 118,219 129,216 137,226 141,232 151,231 152,235 142,240 135,241 114,232 117,232 117,225 113,223" id="39538" class="commune" fill="steelblue" stroke-width="1" stroke="white" geotype="commune" geoname="Uxelles" code_insee="39538" code_canton="3915"/><polygon points="91,239 89,240 80,234 61,235 60,234 70,228 72,228 76,224 82,225 87,221 113,223 117,225 117,232 114,232 91,239" id="39556" class="commune" fill="steelblue" stroke-width="1" stroke="white" geotype="commune" geoname="Vertamboz" code_insee="39556" code_canton="3915"/></svg>