<?xml version="1.0" encoding="utf-8"?>
<svg version="1.1" id="svgmap" xmlns="http://www.w3.org/2000/svg" xmlns:xlink="http://www.w3.org/1999/xlink" x="0px" y="0px" width="100%" height="100%" viewBox="0 0 500 346">
<polygon points="265,295 258,288 254,278 256,272 252,270 256,261 268,258 268,244 276,239 316,242 325,249 337,248 341,250 337,258 339,292 327,302 323,299 319,303 323,312 312,326 265,295" id="40002" class="commune" fill="steelblue" stroke-width="1" stroke="white" geotype="commune" geoname="Amou" code_insee="40002" code_canton="4004"/><polygon points="456,267 461,269 471,276 467,279 474,296 482,300 479,299 474,303 468,315 453,317 444,310 448,307 447,298 440,293 441,284 453,277 443,271 456,267" id="40007" class="commune" fill="steelblue" stroke-width="1" stroke="white" geotype="commune" geoname="Argelos" code_insee="40007" code_canton="4004"/><polygon points="219,285 227,274 252,270 256,272 254,278 258,288 265,295 248,298 250,315 234,315 219,299 216,289 219,285" id="40011" class="commune" fill="steelblue" stroke-width="1" stroke="white" geotype="commune" geoname="Arsague" code_insee="40011" code_canton="4004"/><polygon points="212,171 200,161 211,160 205,150 211,151 217,146 209,144 205,138 205,130 211,126 215,127 227,140 256,137 268,139 258,154 273,158 271,172 260,171 255,174 242,171 229,177 212,171" id="40023" class="commune" fill="steelblue" stroke-width="1" stroke="white" geotype="commune" geoname="Baigts" code_insee="40023" code_canton="4004"/><polygon points="443,328 453,317 468,315 474,303 479,299 482,300 500,310 496,322 484,326 487,336 466,340 446,333 443,328" id="40027" class="commune" fill="steelblue" stroke-width="1" stroke="white" geotype="commune" geoname="Bassercles" code_insee="40027" code_canton="4004"/><polygon points="257,222 243,222 244,217 238,218 233,216 235,213 226,212 218,205 243,198 252,186 260,183 275,187 282,196 285,208 270,208 257,222" id="40028" class="commune" fill="steelblue" stroke-width="1" stroke="white" geotype="commune" geoname="Bastennes" code_insee="40028" code_canton="4004"/><polygon points="336,194 329,197 318,191 308,193 307,184 315,180 311,178 318,164 334,164 341,170 345,175 336,194" id="40038" class="commune" fill="steelblue" stroke-width="1" stroke="white" geotype="commune" geoname="Bergouey" code_insee="40038" code_canton="4004"/><polygon points="453,317 443,328 431,330 416,325 411,326 411,319 433,306 433,301 440,293 447,298 448,307 444,310 453,317" id="40041" class="commune" fill="steelblue" stroke-width="1" stroke="white" geotype="commune" geoname="Beyries" code_insee="40041" code_canton="4004"/><polygon points="312,326 323,312 319,303 323,299 327,302 339,292 351,291 360,286 365,290 372,292 360,304 366,307 357,312 356,318 346,321 345,345 333,346 319,340 322,338 314,333 312,326" id="40047" class="commune" fill="steelblue" stroke-width="1" stroke="white" geotype="commune" geoname="Bonnegarde" code_insee="40047" code_canton="4004"/><polygon points="329,197 336,194 350,201 366,215 388,221 391,229 376,236 369,252 347,248 341,250 337,248 325,249 316,242 334,245 331,234 334,218 344,215 338,207 325,205 324,200 329,197" id="40054" class="commune" fill="steelblue" stroke-width="1" stroke="white" geotype="commune" geoname="Brassempouy" code_insee="40054" code_canton="4004"/><polygon points="114,55 118,51 124,53 127,48 136,50 138,44 160,43 159,53 163,53 162,59 152,62 153,82 149,85 132,73 124,72 127,65 121,64 114,55" id="40068" class="commune" fill="steelblue" stroke-width="1" stroke="white" geotype="commune" geoname="Cassen" code_insee="40068" code_canton="4004"/><polygon points="440,293 433,301 406,309 402,287 411,265 424,264 436,271 443,271 453,277 441,284 440,293" id="40069" class="commune" fill="steelblue" stroke-width="1" stroke="white" geotype="commune" geoname="Castaignos-Souslens" code_insee="40069" code_canton="4004"/><polygon points="184,179 179,192 188,194 193,201 186,207 183,204 182,210 139,213 134,205 131,212 134,218 124,216 126,206 132,204 131,199 139,193 133,175 135,171 153,172 167,165 175,172 173,175 184,179" id="40071" class="commune" fill="steelblue" stroke-width="1" stroke="white" geotype="commune" geoname="Castelnau-Chalosse" code_insee="40071" code_canton="4004"/><polygon points="219,285 213,281 215,272 224,262 234,262 225,247 229,241 217,239 220,228 221,220 226,221 226,212 235,213 233,216 238,218 244,217 243,222 257,222 274,233 276,239 268,244 268,258 256,261 252,270 227,274 219,285" id="40074" class="commune" fill="steelblue" stroke-width="1" stroke="white" geotype="commune" geoname="Castel-Sarrazin" code_insee="40074" code_canton="4004"/><polygon points="255,174 260,171 271,172 273,158 258,154 268,139 256,137 280,116 278,114 291,116 294,120 289,127 290,134 298,146 304,147 304,151 308,158 315,158 318,164 311,178 315,180 307,184 308,193 290,188 282,196 275,187 260,183 255,174" id="40078" class="commune" fill="steelblue" stroke-width="1" stroke="white" geotype="commune" geoname="Caupenne" code_insee="40078" code_canton="4004"/><polygon points="120,221 116,238 90,225 87,228 82,226 81,229 57,215 62,210 55,204 35,196 27,189 23,185 32,177 44,187 69,191 75,197 89,188 82,183 96,175 105,190 116,188 120,195 115,201 115,209 108,213 120,221" id="40084" class="commune" fill="steelblue" stroke-width="1" stroke="white" geotype="commune" geoname="Clermont" code_insee="40084" code_canton="4004"/><polygon points="461,117 462,125 469,125 468,131 481,133 480,139 463,151 455,166 458,173 454,174 420,172 407,176 394,172 372,176 363,170 371,169 373,164 389,155 391,148 398,143 396,138 387,138 394,131 400,122 416,126 430,124 428,118 442,117 461,117" id="40089" class="commune" fill="steelblue" stroke-width="1" stroke="white" geotype="commune" geoname="Doazit" code_insee="40089" code_canton="4004"/><polygon points="193,201 188,194 179,192 184,179 200,174 209,176 212,171 229,177 242,171 255,174 260,183 252,186 243,198 218,205 226,212 226,221 221,220 220,228 211,227 211,209 205,206 197,207 193,201" id="40090" class="commune" fill="steelblue" stroke-width="1" stroke="white" geotype="commune" geoname="Donzacq" code_insee="40090" code_canton="4004"/><polygon points="89,81 93,77 101,78 108,70 117,74 124,72 132,73 149,85 153,82 158,80 177,88 177,91 186,92 185,95 186,98 177,103 167,104 159,109 155,115 160,119 140,135 134,128 127,132 120,132 120,129 104,132 102,127 95,127 96,124 82,124 86,116 99,116 101,112 110,111 113,105 113,101 89,81" id="40104" class="commune" fill="steelblue" stroke-width="1" stroke="white" geotype="commune" geoname="Gamarde-les-Bains" code_insee="40104" code_canton="4004"/><polygon points="116,188 105,190 96,175 82,183 89,188 75,197 69,191 75,173 96,163 107,167 106,164 114,161 121,168 112,177 122,179 116,188" id="40106" class="commune" fill="steelblue" stroke-width="1" stroke="white" geotype="commune" geoname="Garrey" code_insee="40106" code_canton="4004"/><polygon points="316,242 276,239 274,233 257,222 270,208 285,208 282,196 290,188 308,193 318,191 329,197 324,200 325,205 338,207 344,215 334,218 331,234 334,245 316,242" id="40109" class="commune" fill="steelblue" stroke-width="1" stroke="white" geotype="commune" geoname="Gaujacq" code_insee="40109" code_canton="4004"/><polygon points="205,150 211,160 200,161 212,171 209,176 200,174 185,168 182,154 192,150 205,150" id="40112" class="commune" fill="steelblue" stroke-width="1" stroke="white" geotype="commune" geoname="Gibret" code_insee="40112" code_canton="4004"/><polygon points="89,81 113,101 113,105 110,111 101,112 99,116 86,116 60,115 34,103 34,99 45,95 37,86 51,85 62,88 66,80 76,88 84,78 89,81" id="40113" class="commune" fill="steelblue" stroke-width="1" stroke="white" geotype="commune" geoname="Goos" code_insee="40113" code_canton="4004"/><polygon points="66,49 67,44 57,41 66,28 78,29 89,35 91,40 99,40 110,37 111,53 102,53 83,50 78,45 66,49" id="40115" class="commune" fill="steelblue" stroke-width="1" stroke="white" geotype="commune" geoname="Gousse" code_insee="40115" code_canton="4004"/><polygon points="391,80 387,106 376,108 376,114 357,113 331,95 332,89 340,90 347,91 347,81 351,82 354,78 377,84 383,80 391,80" id="40121" class="commune" fill="steelblue" stroke-width="1" stroke="white" geotype="commune" geoname="Hauriet" code_insee="40121" code_canton="4004"/><polygon points="27,146 19,135 5,129 8,122 0,113 6,109 8,101 19,107 19,104 34,103 60,115 86,116 82,124 96,124 95,127 102,127 104,132 99,143 99,139 87,137 71,141 64,151 45,142 27,146" id="40126" class="commune" fill="steelblue" stroke-width="1" stroke="white" geotype="commune" geoname="Hinx" code_insee="40126" code_canton="4004"/><polygon points="256,137 227,140 215,127 217,125 209,110 218,105 222,108 237,110 245,108 255,111 256,114 270,110 278,114 280,116 256,137" id="40141" class="commune" fill="steelblue" stroke-width="1" stroke="white" geotype="commune" geoname="Lahosse" code_insee="40141" code_canton="4004"/><polygon points="304,151 304,147 298,146 290,134 289,127 294,120 291,116 322,121 332,131 348,134 339,140 329,140 321,150 304,151" id="40144" class="commune" fill="steelblue" stroke-width="1" stroke="white" geotype="commune" geoname="Larbey" code_insee="40144" code_canton="4004"/><polygon points="229,45 247,41 247,48 259,54 261,60 250,71 250,87 245,88 238,84 230,85 226,80 218,81 230,59 229,45" id="40147" class="commune" fill="steelblue" stroke-width="1" stroke="white" geotype="commune" geoname="Laurède" code_insee="40147" code_canton="4004"/><polygon points="93,77 96,59 102,53 111,53 114,55 121,64 127,65 124,72 117,74 108,70 101,78 93,77" id="40159" class="commune" fill="steelblue" stroke-width="1" stroke="white" geotype="commune" geoname="Louer" code_insee="40159" code_canton="4004"/><polygon points="255,111 245,108 237,110 222,108 218,105 208,98 218,81 226,80 230,85 238,84 245,88 250,87 260,88 260,100 256,102 259,107 255,111" id="40160" class="commune" fill="steelblue" stroke-width="1" stroke="white" geotype="commune" geoname="Lourquen" code_insee="40160" code_canton="4004"/><polygon points="356,318 357,312 366,307 360,304 372,292 365,290 366,283 370,282 402,287 406,309 395,311 386,320 376,321 372,324 366,324 356,318" id="40173" class="commune" fill="steelblue" stroke-width="1" stroke="white" geotype="commune" geoname="Marpaps" code_insee="40173" code_canton="4004"/><polygon points="341,170 334,164 318,164 315,158 308,158 304,151 321,150 329,140 339,140 348,134 360,132 360,127 370,127 378,120 386,123 385,129 394,131 387,138 396,138 398,143 391,148 389,155 373,164 354,163 341,170" id="40177" class="commune" fill="steelblue" stroke-width="1" stroke="white" geotype="commune" geoname="Maylis" code_insee="40177" code_canton="4004"/><polygon points="211,126 205,130 205,138 209,144 217,146 211,151 205,150 192,150 182,154 159,156 167,146 160,142 155,145 140,135 160,119 155,115 159,109 167,104 177,103 187,116 187,125 193,126 205,116 211,126" id="40194" class="commune" fill="steelblue" stroke-width="1" stroke="white" geotype="commune" geoname="Montfort-en-Chalosse" code_insee="40194" code_canton="4004"/><polygon points="340,90 332,89 331,95 325,105 311,106 302,103 301,106 295,101 270,110 256,114 255,111 259,107 256,102 260,100 260,88 250,87 250,71 261,60 270,58 282,62 289,58 299,59 306,75 316,77 317,84 327,77 335,77 340,90" id="40201" class="commune" fill="steelblue" stroke-width="1" stroke="white" geotype="commune" geoname="Mugron" code_insee="40201" code_canton="4004"/><polygon points="339,292 337,258 341,250 347,248 369,252 375,253 400,260 403,258 411,265 402,287 370,282 366,283 365,290 360,286 351,291 339,292" id="40203" class="commune" fill="steelblue" stroke-width="1" stroke="white" geotype="commune" geoname="Nassiet" code_insee="40203" code_canton="4004"/><polygon points="354,78 351,82 347,81 347,91 340,90 335,77 327,77 317,84 316,77 306,75 299,59 315,56 320,61 330,61 332,68 340,63 342,67 335,68 335,71 347,78 354,78" id="40204" class="commune" fill="steelblue" stroke-width="1" stroke="white" geotype="commune" geoname="Nerbis" code_insee="40204" code_canton="4004"/><polygon points="215,127 211,126 205,116 193,126 187,125 187,116 177,103 186,98 185,95 198,101 208,98 218,105 209,110 217,125 215,127" id="40205" class="commune" fill="steelblue" stroke-width="1" stroke="white" geotype="commune" geoname="Nousse" code_insee="40205" code_canton="4004"/><polygon points="167,22 173,25 189,21 194,26 206,29 213,27 214,33 199,48 194,50 186,47 181,54 177,54 177,49 176,52 163,53 165,43 161,35 167,22" id="40208" class="commune" fill="steelblue" stroke-width="1" stroke="white" geotype="commune" geoname="Onard" code_insee="40208" code_canton="4004"/><polygon points="124,216 120,221 108,213 115,209 115,201 120,195 116,188 122,179 112,177 121,168 133,175 139,193 131,199 132,204 126,206 124,216" id="40216" class="commune" fill="steelblue" stroke-width="1" stroke="white" geotype="commune" geoname="Ozourt" code_insee="40216" code_canton="4004"/><polygon points="116,238 120,221 124,216 134,218 131,212 134,205 139,213 182,210 183,204 186,207 193,201 197,207 205,206 211,209 211,227 220,228 217,239 229,241 225,247 234,262 224,262 215,272 213,281 197,276 194,271 179,274 142,255 136,262 118,243 116,238" id="40228" class="commune" fill="steelblue" stroke-width="1" stroke="white" geotype="commune" geoname="Pomarez" code_insee="40228" code_canton="4004"/><polygon points="185,95 186,92 177,91 177,88 186,65 199,48 214,33 217,40 221,35 227,36 229,45 230,59 218,81 208,98 198,101 185,95" id="40235" class="commune" fill="steelblue" stroke-width="1" stroke="white" geotype="commune" geoname="Poyanne" code_insee="40235" code_canton="4004"/><polygon points="133,175 121,168 114,161 106,156 99,143 104,132 120,129 120,132 127,132 134,128 140,135 155,145 160,142 167,146 159,156 182,154 185,168 200,174 184,179 173,175 175,172 167,165 153,172 135,171 133,175" id="40236" class="commune" fill="steelblue" stroke-width="1" stroke="white" geotype="commune" geoname="Poyartin" code_insee="40236" code_canton="4004"/><polygon points="93,77 89,81 84,78 76,88 66,80 62,88 51,85 51,69 41,62 41,58 50,49 66,49 78,45 83,50 102,53 96,59 93,77" id="40237" class="commune" fill="steelblue" stroke-width="1" stroke="white" geotype="commune" geoname="Préchacq-les-Bains" code_insee="40237" code_canton="4004"/><polygon points="376,114 378,120 370,127 360,127 360,132 348,134 332,131 322,121 291,116 278,114 270,110 295,101 301,106 302,103 311,106 325,105 331,95 357,113 376,114" id="40249" class="commune" fill="steelblue" stroke-width="1" stroke="white" geotype="commune" geoname="Saint-Aubin" code_insee="40249" code_canton="4004"/><polygon points="153,82 152,62 162,59 163,53 176,52 177,49 177,54 181,54 186,47 194,50 199,48 186,65 177,88 158,80 153,82" id="40260" class="commune" fill="steelblue" stroke-width="1" stroke="white" geotype="commune" geoname="Saint-Geours-d'Auribat" code_insee="40260" code_canton="4004"/><polygon points="114,55 111,53 110,37 99,40 106,24 103,11 119,0 123,1 121,13 128,13 131,7 140,6 139,11 147,17 137,31 138,44 136,50 127,48 124,53 118,51 114,55" id="40263" class="commune" fill="steelblue" stroke-width="1" stroke="white" geotype="commune" geoname="Saint-Jean-de-Lier" code_insee="40263" code_canton="4004"/><polygon points="20,152 27,146 45,142 64,151 71,141 87,137 99,139 99,143 106,156 114,161 106,164 107,167 96,163 75,173 69,191 44,187 32,177 27,174 28,171 20,165 20,152" id="40308" class="commune" fill="steelblue" stroke-width="1" stroke="white" geotype="commune" geoname="Sort-en-Chalosse" code_insee="40308" code_canton="4004"/><polygon points="379,53 393,53 399,58 408,57 407,52 417,56 427,47 440,48 430,75 423,80 402,74 401,78 396,76 397,79 391,80 383,80 377,84 354,78 347,78 335,71 335,68 342,67 340,63 351,58 363,62 362,56 379,53" id="40318" class="commune" fill="steelblue" stroke-width="1" stroke="white" geotype="commune" geoname="Toulouzette" code_insee="40318" code_canton="4004"/><polygon points="148,8 151,12 162,15 167,22 161,35 165,43 163,53 159,53 160,43 138,44 137,31 147,17 139,11 140,6 148,8" id="40324" class="commune" fill="steelblue" stroke-width="1" stroke="white" geotype="commune" geoname="Vicq-d'Auribat" code_insee="40324" code_canton="4004"/></svg>