<?xml version="1.0" encoding="utf-8"?>
<svg version="1.1" id="svgmap" xmlns="http://www.w3.org/2000/svg" xmlns:xlink="http://www.w3.org/1999/xlink" x="0px" y="0px" width="100%" height="100%" viewBox="0 0 500 300">
<polygon points="260,66 253,79 262,95 264,126 242,126 215,116 193,125 162,129 160,134 154,131 138,123 140,116 132,110 143,103 151,87 157,88 158,75 184,76 198,68 237,64 260,66" id="40036" class="commune" fill="steelblue" stroke-width="1" stroke="white" geotype="commune" geoname="Bénesse-Maremne" code_insee="40036" code_canton="4014"/><polygon points="147,68 158,75 157,88 151,87 143,103 132,110 140,116 138,123 120,121 114,134 105,138 73,141 65,151 28,140 64,77 63,57 85,66 107,60 147,68" id="40065" class="commune" fill="steelblue" stroke-width="1" stroke="white" geotype="commune" geoname="Capbreton" code_insee="40065" code_canton="4014"/><polygon points="367,73 373,59 435,62 479,79 471,88 439,112 412,93 367,73" id="40129" class="commune" fill="steelblue" stroke-width="1" stroke="white" geotype="commune" geoname="Josse" code_insee="40129" code_canton="4014"/><polygon points="102,200 0,181 28,140 65,151 73,141 105,138 114,134 120,121 138,123 154,131 158,178 151,191 142,198 102,200" id="40133" class="commune" fill="steelblue" stroke-width="1" stroke="white" geotype="commune" geoname="Labenne" code_insee="40133" code_canton="4014"/><polygon points="158,178 154,131 160,134 162,129 193,125 215,116 242,126 232,136 220,168 209,177 163,184 164,178 158,178" id="40213" class="commune" fill="steelblue" stroke-width="1" stroke="white" geotype="commune" geoname="Orx" code_insee="40213" code_canton="4014"/><polygon points="367,73 412,93 439,112 429,148 433,156 450,165 472,177 459,187 453,176 447,174 440,179 429,170 397,159 381,156 357,162 336,160 327,148 325,116 315,94 367,73" id="40264" class="commune" fill="steelblue" stroke-width="1" stroke="white" geotype="commune" geoname="Saint-Jean-de-Marsacq" code_insee="40264" code_canton="4014"/><polygon points="372,247 394,235 380,215 400,197 443,197 458,188 486,199 486,200 489,208 500,212 499,219 490,222 463,221 456,227 492,243 495,250 481,261 459,277 403,300 406,293 395,278 376,271 371,263 377,257 372,247" id="40271" class="commune" fill="steelblue" stroke-width="1" stroke="white" geotype="commune" geoname="Sainte-Marie-de-Gosse" code_insee="40271" code_canton="4014"/><polygon points="472,177 489,188 486,199 458,188 443,197 400,197 380,215 354,212 348,221 324,228 310,219 262,204 249,198 249,191 281,172 328,174 336,160 357,162 381,156 397,159 429,170 440,179 447,174 453,176 459,187 472,177" id="40272" class="commune" fill="steelblue" stroke-width="1" stroke="white" geotype="commune" geoname="Saint-Martin-de-Hinx" code_insee="40272" code_canton="4014"/><polygon points="373,59 367,73 315,94 281,98 262,95 253,79 260,66 269,53 278,38 308,24 309,10 336,0 351,1 354,37 373,59" id="40284" class="commune" fill="steelblue" stroke-width="1" stroke="white" geotype="commune" geoname="Saint-Vincent-de-Tyrosse" code_insee="40284" code_canton="4014"/><polygon points="269,53 229,47 206,36 235,16 254,21 272,14 296,14 309,10 308,24 278,38 269,53" id="40291" class="commune" fill="steelblue" stroke-width="1" stroke="white" geotype="commune" geoname="Saubion" code_insee="40291" code_canton="4014"/><polygon points="242,126 264,126 262,95 281,98 315,94 325,116 327,148 336,160 328,174 281,172 249,191 209,177 220,168 232,136 242,126" id="40292" class="commune" fill="steelblue" stroke-width="1" stroke="white" geotype="commune" geoname="Saubrigues" code_insee="40292" code_canton="4014"/></svg>