<?xml version="1.0" encoding="utf-8"?>
<svg version="1.1" id="svgmap" xmlns="http://www.w3.org/2000/svg" xmlns:xlink="http://www.w3.org/1999/xlink" x="0px" y="0px" width="100%" height="100%" viewBox="0 0 500 379">
<polygon points="189,273 200,272 235,259 253,265 261,255 275,269 313,265 306,272 347,299 298,349 248,379 226,362 225,342 211,355 184,342 189,273" id="41047" class="commune" fill="steelblue" stroke-width="1" stroke="white" geotype="commune" geoname="Chaussée-Saint-Victor" code_insee="41047" code_canton="4103"/><polygon points="353,153 390,110 500,191 459,224 359,177 353,153" id="41134" class="commune" fill="steelblue" stroke-width="1" stroke="white" geotype="commune" geoname="Menars" code_insee="41134" code_canton="4103"/><polygon points="389,274 347,299 306,272 313,265 275,269 261,255 253,265 235,259 200,272 208,203 213,169 236,158 270,190 290,153 317,156 341,143 353,153 359,177 459,224 389,274" id="41206" class="commune" fill="steelblue" stroke-width="1" stroke="white" geotype="commune" geoname="Saint-Denis-sur-Loire" code_insee="41206" code_canton="4103"/><polygon points="200,272 189,273 107,287 46,324 4,300 26,280 0,253 29,227 63,196 78,208 100,197 112,207 130,203 168,189 191,208 208,203 200,272" id="41276" class="commune" fill="steelblue" stroke-width="1" stroke="white" geotype="commune" geoname="Villebarou" code_insee="41276" code_canton="4103"/><polygon points="390,110 353,153 341,143 317,156 290,153 270,190 236,158 213,169 208,203 191,208 168,189 130,203 138,150 172,102 139,82 143,64 246,8 262,0 286,33 309,22 332,36 322,57 345,75 375,65 403,92 390,110" id="41288" class="commune" fill="steelblue" stroke-width="1" stroke="white" geotype="commune" geoname="Villerbon" code_insee="41288" code_canton="4103"/></svg>