<?xml version="1.0" encoding="utf-8"?>
<svg version="1.1" id="svgmap" xmlns="http://www.w3.org/2000/svg" xmlns:xlink="http://www.w3.org/1999/xlink" x="0px" y="0px" width="100%" height="100%" viewBox="0 0 447 500">
<polygon points="77,217 82,195 156,183 88,62 219,31 221,0 340,26 447,71 345,131 342,176 312,194 325,239 210,268 192,260 119,213 77,217" id="42184" class="commune" fill="steelblue" stroke-width="1" stroke="white" geotype="commune" geoname="Riorges" code_insee="42184" code_canton="4212"/><polygon points="88,62 156,183 82,195 49,197 0,178 21,71 88,62" id="42253" class="commune" fill="steelblue" stroke-width="1" stroke="white" geotype="commune" geoname="Saint-Léger-sur-Roanne" code_insee="42253" code_canton="4212"/><polygon points="325,239 327,258 345,248 373,263 290,345 319,435 219,500 180,499 166,471 123,485 107,464 63,450 30,414 59,391 159,331 170,277 192,260 210,268 325,239" id="42332" class="commune" fill="steelblue" stroke-width="1" stroke="white" geotype="commune" geoname="Villerest" code_insee="42332" code_canton="4212"/></svg>