<?xml version="1.0" encoding="utf-8"?>
<svg version="1.1" id="svgmap" xmlns="http://www.w3.org/2000/svg" xmlns:xlink="http://www.w3.org/1999/xlink" x="0px" y="0px" width="100%" height="100%" viewBox="0 0 500 275">
<polygon points="66,250 0,126 16,116 93,103 148,70 224,58 285,26 303,51 283,95 310,110 302,142 398,152 430,174 314,166 318,179 298,187 310,220 291,227 304,242 251,260 248,245 231,244 209,275 177,261 66,250" id="42044" class="commune" fill="steelblue" stroke-width="1" stroke="white" geotype="commune" geoname="Chambon-Feugerolles" code_insee="42044" code_canton="4215"/><polygon points="500,116 486,130 438,165 398,152 302,142 310,110 283,95 303,51 285,26 323,0 391,12 443,98 500,116" id="42183" class="commune" fill="steelblue" stroke-width="1" stroke="white" geotype="commune" geoname="Ricamarie" code_insee="42183" code_canton="4215"/></svg>