<?xml version="1.0" encoding="utf-8"?>
<svg version="1.1" id="svgmap" xmlns="http://www.w3.org/2000/svg" xmlns:xlink="http://www.w3.org/1999/xlink" x="0px" y="0px" width="100%" height="100%" viewBox="0 0 500 186">
<polygon points="441,35 463,42 500,98 500,142 486,154 425,186 413,171 366,175 358,156 324,170 278,164 287,137 303,134 290,106 313,72 373,52 395,58 393,29 441,35" id="42237" class="commune" fill="steelblue" stroke-width="1" stroke="white" geotype="commune" geoname="Saint-Jean-Bonnefonds" code_insee="42237" code_canton="4218"/><polygon points="0,15 51,0 80,10 109,4 119,28 134,16 144,35 137,72 113,65 109,76 105,68 68,83 68,53 0,15" id="42275" class="commune" fill="steelblue" stroke-width="1" stroke="white" geotype="commune" geoname="Saint-Priest-en-Jarez" code_insee="42275" code_canton="4218"/></svg>