<?xml version="1.0" encoding="utf-8"?>
<svg version="1.1" id="svgmap" xmlns="http://www.w3.org/2000/svg" xmlns:xlink="http://www.w3.org/1999/xlink" x="0px" y="0px" width="100%" height="100%" viewBox="0 0 426 500">
<polygon points="166,59 165,58 175,43 246,53 278,22 310,24 324,12 377,0 401,55 423,73 415,88 401,92 403,104 403,118 389,107 350,103 305,77 270,75 259,85 222,63 166,59" id="43058" class="commune" fill="steelblue" stroke-width="1" stroke="white" geotype="commune" geoname="Chapelle-d'Aurec" code_insee="43058" code_canton="4309"/><polygon points="133,189 141,135 106,114 161,100 179,79 166,59 222,63 259,85 270,75 305,77 350,103 389,107 403,118 403,104 405,106 419,124 416,155 426,180 413,197 417,210 373,222 365,245 344,260 303,251 301,259 287,253 264,260 271,278 250,303 218,285 222,277 184,285 161,274 187,298 178,314 164,314 162,329 133,311 160,291 137,278 120,256 106,254 100,227 104,219 118,221 141,206 133,189" id="43137" class="commune" fill="steelblue" stroke-width="1" stroke="white" geotype="commune" geoname="Monistrol-sur-Loire" code_insee="43137" code_canton="4309"/><polygon points="41,474 27,466 25,437 9,429 3,413 12,359 0,345 9,323 85,314 100,285 137,278 160,291 133,311 162,329 179,334 172,340 180,346 168,353 174,369 228,373 242,383 205,392 197,405 203,416 224,417 196,451 209,453 213,473 201,477 185,500 178,482 170,484 146,470 126,472 112,495 58,488 41,474" id="43211" class="commune" fill="steelblue" stroke-width="1" stroke="white" geotype="commune" geoname="Saint-Maurice-de-Lignon" code_insee="43211" code_canton="4309"/><polygon points="296,385 285,377 284,385 242,383 228,373 174,369 168,353 180,346 172,340 179,334 162,329 164,314 178,314 187,298 161,274 184,285 222,277 218,285 250,303 271,278 310,301 289,314 311,321 320,346 332,353 296,385" id="43265" class="commune" fill="steelblue" stroke-width="1" stroke="white" geotype="commune" geoname="Villettes" code_insee="43265" code_canton="4309"/></svg>