<?xml version="1.0" encoding="utf-8"?>
<svg version="1.1" id="svgmap" xmlns="http://www.w3.org/2000/svg" xmlns:xlink="http://www.w3.org/1999/xlink" x="0px" y="0px" width="100%" height="100%" viewBox="0 0 500 372">
<polygon points="324,366 301,372 294,365 270,364 242,347 210,317 197,287 197,277 205,278 214,270 233,264 242,243 275,231 311,253 318,289 344,299 361,302 369,316 363,322 340,316 331,318 311,333 313,344 321,352 314,358 324,366" id="43007" class="commune" fill="steelblue" stroke-width="1" stroke="white" geotype="commune" geoname="Araules" code_insee="43007" code_canton="4319"/><polygon points="93,10 106,1 114,11 127,14 126,22 146,22 150,32 159,36 160,54 169,59 154,77 142,84 136,82 132,90 116,94 116,101 100,103 90,113 81,112 75,106 61,97 62,65 87,40 93,10" id="43024" class="commune" fill="steelblue" stroke-width="1" stroke="white" geotype="commune" geoname="Beaux" code_insee="43024" code_canton="4319"/><polygon points="128,230 113,229 111,224 118,218 108,203 87,199 91,174 78,174 71,164 76,161 76,141 84,144 99,137 123,146 113,172 122,174 119,183 130,191 141,193 127,213 134,227 128,230" id="43028" class="commune" fill="steelblue" stroke-width="1" stroke="white" geotype="commune" geoname="Bessamorel" code_insee="43028" code_canton="4319"/><polygon points="337,134 331,129 321,131 319,122 308,121 296,110 290,113 291,122 281,124 272,112 287,112 280,103 271,105 267,101 273,100 275,93 265,95 231,86 238,82 236,73 247,65 252,64 257,75 266,61 274,58 271,46 263,45 280,25 267,24 264,17 269,9 292,4 317,5 318,0 324,5 337,15 345,11 350,19 340,29 336,36 344,46 338,66 342,77 333,103 346,111 343,132 337,134" id="43102" class="commune" fill="steelblue" stroke-width="1" stroke="white" geotype="commune" geoname="Grazac" code_insee="43102" code_canton="4319"/><polygon points="354,147 355,138 337,134 343,132 346,111 333,103 342,77 338,66 344,46 336,36 340,29 351,27 367,37 385,36 388,14 403,15 414,19 415,24 419,18 423,21 423,33 433,45 431,56 448,67 440,82 463,108 500,127 500,127 480,137 474,129 455,127 449,140 438,141 427,143 420,130 400,129 400,136 363,153 354,147" id="43114" class="commune" fill="steelblue" stroke-width="1" stroke="white" geotype="commune" geoname="Lapte" code_insee="43114" code_canton="4319"/><polygon points="61,97 75,106 58,116 75,126 76,141 76,161 71,164 78,174 91,174 87,199 59,220 38,203 41,189 10,178 16,157 3,154 0,151 12,145 9,138 27,114 26,106 1,93 24,80 26,86 31,84 37,89 49,84 61,97" id="43203" class="commune" fill="steelblue" stroke-width="1" stroke="white" geotype="commune" geoname="Saint-Julien-du-Pinet" code_insee="43203" code_canton="4319"/><polygon points="275,231 242,243 233,264 214,270 205,278 197,277 197,287 193,289 186,273 180,275 160,265 165,262 156,251 137,246 128,230 134,227 127,213 141,193 130,191 119,183 122,174 113,172 123,146 99,137 84,144 76,141 75,126 58,116 75,106 81,112 90,113 100,103 116,101 116,94 132,90 136,82 142,84 154,77 169,59 179,68 212,72 221,58 233,57 247,65 236,73 238,82 231,86 265,95 275,93 273,100 267,101 271,105 280,103 287,112 272,112 281,124 291,122 290,113 296,110 308,121 319,122 321,131 321,153 298,166 310,172 294,199 302,204 291,213 292,226 275,231" id="43268" class="commune" fill="steelblue" stroke-width="1" stroke="white" geotype="commune" geoname="Yssingeaux" code_insee="43268" code_canton="4319"/></svg>