<?xml version="1.0" encoding="utf-8"?>
<svg version="1.1" id="svgmap" xmlns="http://www.w3.org/2000/svg" xmlns:xlink="http://www.w3.org/1999/xlink" x="0px" y="0px" width="100%" height="100%" viewBox="0 0 500 348">
<polygon points="412,59 412,65 416,65 414,69 423,71 416,83 407,82 403,94 401,101 394,100 396,95 371,90 370,86 358,87 354,90 351,86 340,84 342,82 336,78 337,68 337,62 344,59 351,64 365,65 365,53 371,54 374,49 385,50 391,42 390,52 407,54 412,59" id="45008" class="commune" fill="steelblue" stroke-width="1" stroke="white" geotype="commune" geoname="Artenay" code_insee="45008" code_canton="4510"/><polygon points="152,328 133,334 126,337 123,335 113,338 122,306 125,301 134,304 141,288 166,302 170,310 167,312 170,316 152,328" id="45020" class="commune" fill="steelblue" stroke-width="1" stroke="white" geotype="commune" geoname="Bardon" code_insee="45020" code_canton="4510"/><polygon points="271,194 263,197 254,186 239,188 230,176 239,167 257,174 279,168 283,165 296,163 305,157 310,162 311,179 285,190 277,185 270,191 271,194" id="45046" class="commune" fill="steelblue" stroke-width="1" stroke="white" geotype="commune" geoname="Boulay-les-Barres" code_insee="45046" code_canton="4510"/><polygon points="239,167 238,167 257,155 253,152 266,148 254,140 261,139 259,136 266,135 257,128 257,122 254,120 261,114 269,117 267,119 274,125 269,129 282,135 284,142 292,141 296,146 305,157 296,163 283,165 279,168 257,174 239,167" id="45055" class="commune" fill="steelblue" stroke-width="1" stroke="white" geotype="commune" geoname="Bricy" code_insee="45055" code_canton="4510"/><polygon points="403,94 407,82 416,83 423,71 426,70 432,74 425,80 428,89 438,86 442,94 438,95 440,98 434,100 435,104 425,105 419,95 410,96 403,94" id="45058" class="commune" fill="steelblue" stroke-width="1" stroke="white" geotype="commune" geoname="Bucy-le-Roi" code_insee="45058" code_canton="4510"/><polygon points="227,200 231,195 229,192 239,188 254,186 263,197 271,194 270,198 286,224 271,230 268,234 271,236 264,236 248,236 248,234 242,233 237,237 230,237 231,234 221,229 213,233 207,232 216,223 225,221 223,217 228,215 230,211 227,200" id="45059" class="commune" fill="steelblue" stroke-width="1" stroke="white" geotype="commune" geoname="Bucy-Saint-Liphard" code_insee="45059" code_canton="4510"/><polygon points="450,150 438,161 431,183 424,182 421,188 399,187 389,184 378,187 374,183 370,188 365,181 357,165 356,157 363,154 364,146 355,140 366,137 376,146 391,145 394,150 413,145 450,150" id="45062" class="commune" fill="steelblue" stroke-width="1" stroke="white" geotype="commune" geoname="Cercottes" code_insee="45062" code_canton="4510"/><polygon points="301,291 281,291 275,282 261,284 255,279 247,282 244,280 239,270 236,263 237,237 242,233 248,234 248,236 264,236 277,247 291,252 292,256 303,256 309,261 300,271 309,280 310,286 301,291" id="45067" class="commune" fill="steelblue" stroke-width="1" stroke="white" geotype="commune" geoname="Chaingy" code_insee="45067" code_canton="4510"/><polygon points="113,101 125,109 129,120 106,124 109,129 89,130 90,132 79,129 76,128 77,120 85,120 88,107 99,107 104,105 111,107 109,103 113,101" id="45074" class="commune" fill="steelblue" stroke-width="1" stroke="white" geotype="commune" geoname="Chapelle-Onzerain" code_insee="45074" code_canton="4510"/><polygon points="124,227 123,240 121,248 107,247 94,249 85,241 69,251 44,234 14,224 10,222 15,216 14,208 25,203 44,200 46,197 62,200 67,202 64,206 71,207 74,204 81,207 76,213 81,215 77,217 98,231 124,227" id="45081" class="commune" fill="steelblue" stroke-width="1" stroke="white" geotype="commune" geoname="Charsonville" code_insee="45081" code_canton="4510"/><polygon points="73,262 65,256 72,252 79,258 73,262" id="45081" class="commune" fill="steelblue" stroke-width="1" stroke="white" geotype="commune" geoname="Charsonville" code_insee="45081" code_canton="4510"/><polygon points="354,90 358,87 370,86 371,90 396,95 394,100 401,101 403,94 410,96 419,95 425,105 435,104 436,112 447,114 462,136 450,150 413,145 394,150 391,145 376,146 366,137 358,130 349,133 341,130 339,125 334,127 323,117 346,94 354,90" id="45093" class="commune" fill="steelblue" stroke-width="1" stroke="white" geotype="commune" geoname="Chevilly" code_insee="45093" code_canton="4510"/><polygon points="261,114 254,120 257,122 257,128 266,135 259,136 261,139 254,140 266,148 253,152 257,155 238,167 218,160 227,155 212,143 208,145 202,139 180,129 182,126 185,122 182,120 189,118 186,116 196,111 202,121 217,112 223,114 236,107 246,114 251,109 261,114" id="45099" class="commune" fill="steelblue" stroke-width="1" stroke="white" geotype="commune" geoname="Coinces" code_insee="45099" code_canton="4510"/><polygon points="123,240 124,227 124,221 132,220 134,217 130,212 137,211 135,205 159,195 168,207 177,206 176,215 184,224 180,228 166,230 169,235 155,242 152,240 138,244 135,241 130,243 123,240" id="45109" class="commune" fill="steelblue" stroke-width="1" stroke="white" geotype="commune" geoname="Coulmiers" code_insee="45109" code_canton="4510"/><polygon points="129,172 125,174 133,182 136,188 133,189 137,192 147,187 156,189 159,195 135,205 137,211 130,212 134,217 132,220 124,221 124,227 98,231 77,217 81,215 76,213 81,207 74,204 71,207 64,206 67,202 62,200 46,197 36,197 37,187 43,184 43,186 50,184 56,178 54,162 71,153 69,150 78,147 83,151 88,148 93,151 107,161 105,162 112,172 125,169 129,172" id="45134" class="commune" fill="steelblue" stroke-width="1" stroke="white" geotype="commune" geoname="Épieds-en-Beauce" code_insee="45134" code_canton="4510"/><polygon points="239,188 229,192 231,195 227,200 217,202 207,200 191,206 183,204 177,206 168,207 159,195 156,189 177,177 181,182 187,180 190,173 194,171 197,175 230,176 239,188" id="45152" class="commune" fill="steelblue" stroke-width="1" stroke="white" geotype="commune" geoname="Gémigny" code_insee="45152" code_canton="4510"/><polygon points="311,179 310,162 305,157 296,146 305,145 317,135 321,139 327,137 324,131 334,127 339,125 341,130 349,133 358,130 366,137 355,140 364,146 363,154 356,157 357,165 365,181 349,185 349,188 340,190 341,193 324,196 311,179" id="45154" class="commune" fill="steelblue" stroke-width="1" stroke="white" geotype="commune" geoname="Gidy" code_insee="45154" code_canton="4510"/><polygon points="296,146 292,141 284,142 282,135 269,129 274,125 267,119 269,117 290,103 293,104 298,100 308,114 311,113 323,117 334,127 324,131 327,137 321,139 317,135 305,145 296,146" id="45166" class="commune" fill="steelblue" stroke-width="1" stroke="white" geotype="commune" geoname="Huêtre" code_insee="45166" code_canton="4510"/><polygon points="155,242 169,235 166,230 180,228 184,224 194,225 195,231 207,232 213,233 221,229 231,234 230,237 237,237 236,263 239,270 230,273 222,281 224,283 212,291 193,299 175,297 170,293 161,291 159,280 149,276 160,266 148,264 151,257 158,256 156,252 162,251 155,242" id="45167" class="commune" fill="steelblue" stroke-width="1" stroke="white" geotype="commune" geoname="Huisseau-sur-Mauves" code_insee="45167" code_canton="4510"/><polygon points="414,18 422,0 457,6 457,9 453,11 455,21 452,21 451,25 437,27 427,26 423,23 422,26 414,29 414,18" id="45183" class="commune" fill="steelblue" stroke-width="1" stroke="white" geotype="commune" geoname="Lion-en-Beauce" code_insee="45183" code_canton="4510"/><polygon points="152,328 170,316 167,312 170,310 166,302 141,288 150,286 161,291 170,293 175,297 193,299 212,291 210,294 225,303 230,308 213,318 222,325 218,336 222,337 201,346 190,348 191,341 168,331 152,328" id="45203" class="commune" fill="steelblue" stroke-width="1" stroke="white" geotype="commune" geoname="Meung-sur-Loire" code_insee="45203" code_canton="4510"/><polygon points="172,83 183,71 203,82 203,87 211,91 209,101 214,103 212,108 217,112 202,121 196,111 186,116 189,118 182,120 185,122 182,126 170,120 173,113 166,107 171,105 161,101 163,99 158,96 172,83" id="45248" class="commune" fill="steelblue" stroke-width="1" stroke="white" geotype="commune" geoname="Patay" code_insee="45248" code_canton="4510"/><polygon points="268,79 268,82 236,107 223,114 217,112 212,108 214,103 209,101 211,91 203,87 203,82 208,80 214,83 220,78 232,82 234,79 241,85 245,81 251,84 256,77 261,78 263,76 268,79" id="45262" class="commune" fill="steelblue" stroke-width="1" stroke="white" geotype="commune" geoname="Rouvray-Sainte-Croix" code_insee="45262" code_canton="4510"/><polygon points="184,224 176,215 177,206 183,204 191,206 207,200 217,202 227,200 230,211 228,215 223,217 225,221 216,223 207,232 195,231 194,225 184,224" id="45264" class="commune" fill="steelblue" stroke-width="1" stroke="white" geotype="commune" geoname="Rozières-en-Beauce" code_insee="45264" code_canton="4510"/><polygon points="391,42 400,20 403,16 414,18 414,29 422,26 423,23 427,26 437,27 451,25 452,21 455,21 458,29 461,28 462,32 468,31 469,35 463,36 465,39 454,44 457,50 449,55 426,52 417,62 412,59 407,54 390,52 391,42" id="45266" class="commune" fill="steelblue" stroke-width="1" stroke="white" geotype="commune" geoname="Ruan" code_insee="45266" code_canton="4510"/><polygon points="230,308 225,303 210,294 212,291 224,283 222,281 230,273 239,270 244,280 247,282 255,279 261,284 275,282 281,291 230,308" id="45269" class="commune" fill="steelblue" stroke-width="1" stroke="white" geotype="commune" geoname="Saint-Ay" code_insee="45269" code_canton="4510"/><polygon points="238,167 239,167 230,176 197,175 194,171 198,167 188,157 177,160 162,147 144,145 137,143 141,139 138,131 143,129 153,127 150,122 164,119 170,120 182,126 180,129 202,139 208,145 212,143 227,155 218,160 238,167" id="45296" class="commune" fill="steelblue" stroke-width="1" stroke="white" geotype="commune" geoname="Saint-Péravy-la-Colombe" code_insee="45296" code_canton="4510"/><polygon points="156,189 147,187 137,192 133,189 136,188 133,182 125,174 129,172 139,167 134,163 145,157 141,151 144,145 162,147 177,160 188,157 198,167 194,171 190,173 187,180 181,182 177,177 156,189" id="45299" class="commune" fill="steelblue" stroke-width="1" stroke="white" geotype="commune" geoname="Saint-Sigismond" code_insee="45299" code_canton="4510"/><polygon points="236,107 268,82 268,79 277,71 281,76 285,71 295,72 298,65 300,59 329,70 329,67 337,68 336,78 342,82 340,84 351,86 354,90 346,94 323,117 311,113 308,114 298,100 293,104 290,103 269,117 261,114 251,109 246,114 236,107" id="45313" class="commune" fill="steelblue" stroke-width="1" stroke="white" geotype="commune" geoname="Sougy" code_insee="45313" code_canton="4510"/><polygon points="143,129 138,131 141,139 137,143 144,145 141,151 145,157 134,163 139,167 129,172 125,169 112,172 105,162 107,161 93,151 74,130 79,129 90,132 89,130 109,129 118,130 136,125 143,129" id="45326" class="commune" fill="steelblue" stroke-width="1" stroke="white" geotype="commune" geoname="Tournoisis" code_insee="45326" code_canton="4510"/><polygon points="423,71 414,69 416,65 412,65 412,59 417,62 426,52 449,55 457,50 454,44 465,39 469,43 481,39 487,48 491,50 495,49 500,54 495,56 482,62 482,66 474,71 474,83 471,82 454,87 447,81 438,86 428,89 425,80 432,74 426,70 423,71" id="45330" class="commune" fill="steelblue" stroke-width="1" stroke="white" geotype="commune" geoname="Trinay" code_insee="45330" code_canton="4510"/><polygon points="34,105 56,114 76,117 77,120 76,128 79,129 74,130 93,151 88,148 83,151 78,147 69,150 71,153 54,162 47,165 41,159 36,166 29,162 16,170 8,169 11,168 7,162 13,159 5,154 15,144 11,140 6,139 6,130 0,122 8,120 10,116 36,121 41,115 28,112 34,105" id="45337" class="commune" fill="steelblue" stroke-width="1" stroke="white" geotype="commune" geoname="Villamblain" code_insee="45337" code_canton="4510"/><polygon points="109,129 106,124 129,120 125,109 113,101 110,98 116,91 113,85 116,79 126,81 134,78 140,80 150,72 157,74 155,76 162,79 159,84 162,86 168,81 172,83 158,96 163,99 161,101 171,105 166,107 173,113 170,120 164,119 150,122 153,127 143,129 136,125 118,130 109,129" id="45341" class="commune" fill="steelblue" stroke-width="1" stroke="white" geotype="commune" geoname="Villeneuve-sur-Conie" code_insee="45341" code_canton="4510"/></svg>