<?xml version="1.0" encoding="utf-8"?>
<svg version="1.1" id="svgmap" xmlns="http://www.w3.org/2000/svg" xmlns:xlink="http://www.w3.org/1999/xlink" x="0px" y="0px" width="100%" height="100%" viewBox="0 0 500 321">
<polygon points="151,281 146,274 139,274 134,271 127,276 118,270 119,262 126,255 137,252 162,257 166,265 155,272 153,280 151,281" id="46027" class="commune" fill="steelblue" stroke-width="1" stroke="white" geotype="commune" geoname="Berganty" code_insee="46027" code_canton="4605"/><polygon points="211,119 228,116 246,106 275,108 287,120 279,125 273,126 271,130 269,128 266,129 267,145 261,148 259,156 227,158 222,153 200,148 194,142 198,137 196,132 211,124 211,119" id="46031" class="commune" fill="steelblue" stroke-width="1" stroke="white" geotype="commune" geoname="Blars" code_insee="46031" code_canton="4605"/><polygon points="160,215 163,221 172,215 180,218 172,227 171,230 160,234 141,246 130,237 131,234 125,234 122,230 124,221 151,221 154,217 160,215" id="46037" class="commune" fill="steelblue" stroke-width="1" stroke="white" geotype="commune" geoname="Bouziès" code_insee="46037" code_canton="4605"/><polygon points="306,104 306,101 311,102 316,96 335,99 357,97 356,100 351,110 356,119 377,130 373,136 376,137 382,139 382,146 371,158 343,156 341,152 339,153 329,144 324,144 330,140 329,135 325,133 328,109 306,104" id="46039" class="commune" fill="steelblue" stroke-width="1" stroke="white" geotype="commune" geoname="Brengues" code_insee="46039" code_canton="4605"/><polygon points="172,227 180,218 172,215 163,221 160,215 149,204 122,210 118,219 98,216 96,206 85,201 89,195 81,190 73,190 73,188 69,189 64,180 68,175 67,170 79,163 76,157 86,159 105,155 110,165 122,166 125,169 133,174 142,175 146,183 155,184 157,176 160,176 163,171 179,175 185,186 183,187 196,200 202,209 201,213 192,217 196,221 196,229 179,229 172,227" id="46040" class="commune" fill="steelblue" stroke-width="1" stroke="white" geotype="commune" geoname="Cabrerets" code_insee="46040" code_canton="4605"/><polygon points="393,189 397,189 402,203 399,210 400,222 393,224 376,221 375,217 381,215 380,203 384,201 385,194 393,189" id="46041" class="commune" fill="steelblue" stroke-width="1" stroke="white" geotype="commune" geoname="Cadrieu" code_insee="46041" code_canton="4605"/><polygon points="376,221 355,227 354,232 362,241 351,247 347,259 332,258 326,255 325,241 331,233 344,230 342,221 340,218 331,215 326,218 310,210 328,197 354,191 368,180 380,173 393,189 385,194 384,201 380,203 381,215 375,217 376,221" id="46045" class="commune" fill="steelblue" stroke-width="1" stroke="white" geotype="commune" geoname="Cajarc" code_insee="46045" code_canton="4605"/><polygon points="268,245 269,247 282,246 291,233 294,235 295,244 307,245 308,232 313,228 316,230 319,240 325,241 326,255 332,258 329,272 307,275 302,272 299,277 303,285 298,287 282,283 275,275 278,260 276,256 279,254 270,251 268,245" id="46049" class="commune" fill="steelblue" stroke-width="1" stroke="white" geotype="commune" geoname="Calvignac" code_insee="46049" code_canton="4605"/><polygon points="144,45 156,48 155,57 166,58 171,65 184,58 183,52 211,46 217,54 209,65 218,84 204,103 186,97 175,98 166,95 147,98 144,108 140,109 138,105 128,102 127,96 121,94 115,85 120,79 133,80 135,77 128,73 129,69 121,61 124,58 132,59 134,50 144,45" id="46054" class="commune" fill="steelblue" stroke-width="1" stroke="white" geotype="commune" geoname="Caniac-du-Causse" code_insee="46054" code_canton="4605"/><polygon points="428,185 421,179 426,174 428,163 424,162 421,157 429,153 435,148 442,150 457,159 452,171 449,172 452,175 449,179 443,175 439,179 431,180 428,185" id="46056" class="commune" fill="steelblue" stroke-width="1" stroke="white" geotype="commune" geoname="Carayac" code_insee="46056" code_canton="4605"/><polygon points="275,275 270,282 258,287 250,281 240,285 233,280 228,269 228,249 221,248 222,247 232,240 239,241 250,248 261,240 268,245 270,251 279,254 276,256 278,260 275,275" id="46068" class="commune" fill="steelblue" stroke-width="1" stroke="white" geotype="commune" geoname="Cénevières" code_insee="46068" code_canton="4605"/><polygon points="76,157 79,163 67,170 64,165 60,164 56,166 40,164 34,169 34,163 33,134 40,129 56,131 65,140 66,152 73,155 76,157" id="46079" class="commune" fill="steelblue" stroke-width="1" stroke="white" geotype="commune" geoname="Cras" code_insee="46079" code_canton="4605"/><polygon points="214,250 221,248 228,249 228,269 233,280 240,285 243,288 237,293 221,279 211,273 203,277 206,284 203,290 206,292 202,292 200,296 204,298 197,299 196,301 191,301 189,304 184,303 182,307 175,309 167,300 168,296 164,291 162,283 169,269 172,268 186,271 189,267 208,260 207,252 214,250" id="46081" class="commune" fill="steelblue" stroke-width="1" stroke="white" geotype="commune" geoname="Crégols" code_insee="46081" code_canton="4605"/><polygon points="102,243 115,245 126,255 119,262 118,270 127,276 134,271 139,274 146,274 151,281 144,281 139,290 120,299 107,295 106,292 90,297 85,292 79,293 73,287 74,284 80,283 76,275 89,273 99,265 102,243" id="46092" class="commune" fill="steelblue" stroke-width="1" stroke="white" geotype="commune" geoname="Esclauzels" code_insee="46092" code_canton="4605"/><polygon points="398,129 386,130 376,137 373,136 377,130 356,119 351,110 356,100 372,95 397,108 391,112 390,117 396,118 394,123 398,129" id="46093" class="commune" fill="steelblue" stroke-width="1" stroke="white" geotype="commune" geoname="Espagnac-Sainte-Eulalie" code_insee="46093" code_canton="4605"/><polygon points="288,120 287,120 275,108 246,106 259,96 250,81 255,81 257,75 259,63 254,54 257,53 276,48 282,43 289,43 321,34 321,42 329,51 325,57 324,68 319,68 316,75 309,79 316,96 311,102 306,101 306,104 301,105 298,113 288,120" id="46094" class="commune" fill="steelblue" stroke-width="1" stroke="white" geotype="commune" geoname="Espédaillac" code_insee="46094" code_canton="4605"/><polygon points="144,45 151,34 140,30 153,17 163,20 161,23 166,24 163,28 166,31 177,34 183,38 195,41 218,32 233,42 235,48 225,47 217,54 211,46 183,52 184,58 171,65 166,58 155,57 156,48 144,45" id="46110" class="commune" fill="steelblue" stroke-width="1" stroke="white" geotype="commune" geoname="Fontanes-du-Causse" code_insee="46110" code_canton="4605"/><polygon points="495,166 488,175 478,169 475,162 479,159 475,154 480,155 488,153 493,158 494,155 498,156 500,160 495,166" id="46116" class="commune" fill="steelblue" stroke-width="1" stroke="white" geotype="commune" geoname="Frontenac" code_insee="46116" code_canton="4605"/><polygon points="397,189 393,189 380,173 368,180 352,171 353,165 343,156 371,158 382,146 402,148 408,153 424,150 429,153 421,157 424,162 428,163 426,174 421,179 410,178 397,185 397,189" id="46129" class="commune" fill="steelblue" stroke-width="1" stroke="white" geotype="commune" geoname="Gréalou" code_insee="46129" code_canton="4605"/><polygon points="316,96 309,79 316,75 319,68 324,68 333,69 335,73 353,78 353,82 371,85 368,89 372,95 356,100 357,97 335,99 316,96" id="46131" class="commune" fill="steelblue" stroke-width="1" stroke="white" geotype="commune" geoname="Grèzes" code_insee="46131" code_canton="4605"/><polygon points="33,76 33,76 42,70 43,58 54,58 64,55 65,48 75,43 80,45 82,43 85,46 95,37 112,32 131,35 140,30 151,34 144,45 134,50 132,59 124,58 121,61 101,70 108,83 88,76 75,78 69,85 60,88 56,90 59,88 52,78 44,76 39,78 33,76" id="46138" class="commune" fill="steelblue" stroke-width="1" stroke="white" geotype="commune" geoname="Labastide-Murat" code_insee="46138" code_canton="4605"/><polygon points="325,241 319,240 316,230 313,228 308,232 307,245 295,244 294,235 291,233 282,246 269,247 274,239 270,227 266,225 266,230 258,225 254,217 259,215 257,208 248,208 245,206 259,192 262,196 270,196 282,193 284,190 291,198 306,212 310,210 326,218 331,215 340,218 342,221 344,230 331,233 325,241" id="46155" class="commune" fill="steelblue" stroke-width="1" stroke="white" geotype="commune" geoname="Larnagol" code_insee="46155" code_canton="4605"/><polygon points="464,190 452,192 445,202 433,203 437,202 436,195 428,185 431,180 439,179 443,175 449,179 452,175 449,172 452,171 474,189 464,190" id="46157" class="commune" fill="steelblue" stroke-width="1" stroke="white" geotype="commune" geoname="Larroque-Toirac" code_insee="46157" code_canton="4605"/><polygon points="105,155 86,159 76,157 73,155 76,145 74,135 77,132 88,132 89,129 104,130 100,136 105,155" id="46162" class="commune" fill="steelblue" stroke-width="1" stroke="white" geotype="commune" geoname="Lauzès" code_insee="46162" code_canton="4605"/><polygon points="163,171 160,176 157,176 155,184 146,183 142,175 133,174 125,169 128,161 134,158 131,150 141,138 138,134 158,122 159,131 165,133 171,141 177,142 165,148 161,161 163,171" id="46167" class="commune" fill="steelblue" stroke-width="1" stroke="white" geotype="commune" geoname="Lentillac-du-Causse" code_insee="46167" code_canton="4605"/><polygon points="228,29 218,32 195,41 183,38 177,34 201,4 210,0 214,5 227,9 224,16 228,29" id="46181" class="commune" fill="steelblue" stroke-width="1" stroke="white" geotype="commune" geoname="Lunegarde" code_insee="46181" code_canton="4605"/><polygon points="287,120 288,120 287,131 292,145 300,148 315,149 316,156 322,152 326,155 330,172 314,175 314,178 307,179 291,198 284,190 282,193 270,196 262,196 259,192 264,187 257,180 262,164 259,156 261,148 267,145 266,129 269,128 271,130 273,126 279,125 287,120" id="46183" class="commune" fill="steelblue" stroke-width="1" stroke="white" geotype="commune" geoname="Marcilhac-sur-Célé" code_insee="46183" code_canton="4605"/><polygon points="421,179 428,185 436,195 437,202 433,203 428,202 426,206 436,217 432,221 427,222 423,219 418,205 405,201 402,203 397,189 397,185 410,178 421,179" id="46198" class="commune" fill="steelblue" stroke-width="1" stroke="white" geotype="commune" geoname="Montbrun" code_insee="46198" code_canton="4605"/><polygon points="34,163 32,165 25,162 15,155 4,154 0,150 3,143 8,141 18,129 14,124 24,123 27,119 29,120 28,130 33,134 34,163" id="46210" class="commune" fill="steelblue" stroke-width="1" stroke="white" geotype="commune" geoname="Nadillac" code_insee="46210" code_canton="4605"/><polygon points="196,132 198,137 194,142 200,148 222,153 227,158 211,163 199,172 202,182 209,183 204,187 207,190 205,197 196,200 183,187 185,186 179,175 163,171 161,161 165,148 177,142 187,139 196,132" id="46212" class="commune" fill="steelblue" stroke-width="1" stroke="white" geotype="commune" geoname="Orniac" code_insee="46212" code_canton="4605"/><polygon points="389,317 388,318 366,321 342,317 351,307 359,301 361,295 375,295 382,287 388,285 385,288 386,298 390,302 381,311 389,317" id="46230" class="commune" fill="steelblue" stroke-width="1" stroke="white" geotype="commune" geoname="Puyjourdes" code_insee="46230" code_canton="4605"/><polygon points="246,106 228,116 211,119 201,113 206,104 204,103 218,84 209,65 217,54 225,47 235,48 247,47 257,53 254,54 259,63 257,75 255,81 250,81 259,96 246,106" id="46233" class="commune" fill="steelblue" stroke-width="1" stroke="white" geotype="commune" geoname="Quissac" code_insee="46233" code_canton="4605"/><polygon points="104,130 104,130 106,133 114,129 128,135 138,134 141,138 131,150 134,158 128,161 125,169 122,166 110,165 105,155 100,136 104,130" id="46245" class="commune" fill="steelblue" stroke-width="1" stroke="white" geotype="commune" geoname="Sabadel-Lauzès" code_insee="46245" code_canton="4605"/><polygon points="104,130 104,130 89,129 82,123 70,122 66,109 73,109 75,101 67,95 75,92 81,89 82,91 94,88 105,92 115,85 121,94 127,96 128,102 121,105 122,118 107,124 104,130" id="46252" class="commune" fill="steelblue" stroke-width="1" stroke="white" geotype="commune" geoname="Saint-Cernin" code_insee="46252" code_canton="4605"/><polygon points="310,210 306,212 291,198 307,179 314,178 314,175 330,172 326,155 322,152 320,147 324,144 329,144 339,153 341,152 343,156 353,165 352,171 368,180 354,191 328,197 310,210" id="46254" class="commune" fill="steelblue" stroke-width="1" stroke="white" geotype="commune" geoname="Saint-Chels" code_insee="46254" code_canton="4605"/><polygon points="153,280 155,272 166,265 162,257 137,252 126,255 115,245 122,230 125,234 131,234 130,237 141,246 160,234 173,235 183,243 193,237 201,249 214,250 207,252 208,260 189,267 186,271 172,268 169,269 162,283 160,281 153,280" id="46256" class="commune" fill="steelblue" stroke-width="1" stroke="white" geotype="commune" geoname="Saint-Cirq-Lapopie" code_insee="46256" code_canton="4605"/><polygon points="115,245 102,243 88,231 84,232 81,237 83,224 77,221 81,218 85,201 96,206 98,216 118,219 122,210 149,204 160,215 154,217 151,221 124,221 122,230 115,245" id="46268" class="commune" fill="steelblue" stroke-width="1" stroke="white" geotype="commune" geoname="Saint-Géry" code_insee="46268" code_canton="4605"/><polygon points="303,285 299,277 302,272 307,275 329,272 332,258 347,259 351,247 362,241 368,245 362,255 366,258 360,262 365,265 364,273 387,284 388,285 382,287 375,295 361,295 359,301 351,307 331,296 320,294 313,296 304,290 303,285" id="46270" class="commune" fill="steelblue" stroke-width="1" stroke="white" geotype="commune" geoname="Saint-Jean-de-Laur" code_insee="46270" code_canton="4605"/><polygon points="73,155 66,152 65,140 56,131 40,129 33,134 28,130 29,120 27,119 29,114 35,113 48,114 53,109 60,112 66,107 66,109 70,122 82,123 89,129 88,132 77,132 74,135 76,145 73,155" id="46275" class="commune" fill="steelblue" stroke-width="1" stroke="white" geotype="commune" geoname="Saint-Martin-de-Vers" code_insee="46275" code_canton="4605"/><polygon points="269,247 268,245 261,240 250,248 239,241 232,240 222,247 218,230 210,226 215,218 222,213 243,213 245,206 248,208 257,208 259,215 254,217 258,225 266,230 266,225 270,227 274,239 269,247" id="46276" class="commune" fill="steelblue" stroke-width="1" stroke="white" geotype="commune" geoname="Saint-Martin-Labouval" code_insee="46276" code_canton="4605"/><polygon points="457,159 471,156 475,154 479,159 475,162 478,169 488,175 474,189 452,171 457,159" id="46289" class="commune" fill="steelblue" stroke-width="1" stroke="white" geotype="commune" geoname="Saint-Pierre-Toirac" code_insee="46289" code_canton="4605"/><polygon points="33,76 39,78 44,76 52,78 59,88 56,90 60,88 70,89 75,92 67,95 75,101 73,109 66,109 66,107 60,112 53,109 46,110 45,104 43,105 49,99 44,96 47,94 40,93 39,82 33,76" id="46291" class="commune" fill="steelblue" stroke-width="1" stroke="white" geotype="commune" geoname="Saint-Sauveur-la-Vallée" code_insee="46291" code_canton="4605"/><polygon points="306,104 328,109 325,133 329,135 330,140 324,144 320,147 322,152 316,156 315,149 300,148 292,145 287,131 288,120 298,113 301,105 306,104" id="46294" class="commune" fill="steelblue" stroke-width="1" stroke="white" geotype="commune" geoname="Saint-Sulpice" code_insee="46294" code_canton="4605"/><polygon points="227,158 259,156 262,164 257,180 264,187 259,192 245,206 243,213 222,213 215,218 207,215 207,211 202,209 196,200 205,197 207,190 204,187 209,183 202,182 199,172 211,163 227,158" id="46299" class="commune" fill="steelblue" stroke-width="1" stroke="white" geotype="commune" geoname="Sauliac-sur-Célé" code_insee="46299" code_canton="4605"/><polygon points="211,119 211,124 196,132 187,139 177,142 171,141 165,133 159,131 158,122 138,134 128,135 114,129 106,133 104,130 107,124 122,118 121,105 128,102 138,105 140,109 144,108 147,98 166,95 175,98 186,97 204,103 206,104 201,113 211,119" id="46303" class="commune" fill="steelblue" stroke-width="1" stroke="white" geotype="commune" geoname="Sénaillac-Lauzès" code_insee="46303" code_canton="4605"/><polygon points="121,61 129,69 128,73 135,77 133,80 120,79 115,85 105,92 94,88 82,91 81,89 75,92 70,89 60,88 69,85 75,78 88,76 108,83 101,70 121,61" id="46310" class="commune" fill="steelblue" stroke-width="1" stroke="white" geotype="commune" geoname="Soulomès" code_insee="46310" code_canton="4605"/><polygon points="222,247 221,248 214,250 201,249 193,237 183,243 173,235 160,234 171,230 172,227 179,229 196,229 196,221 192,217 201,213 202,209 207,211 207,215 215,218 210,226 218,230 222,247" id="46320" class="commune" fill="steelblue" stroke-width="1" stroke="white" geotype="commune" geoname="Tour-de-Faure" code_insee="46320" code_canton="4605"/></svg>