<?xml version="1.0" encoding="utf-8"?>
<svg version="1.1" id="svgmap" xmlns="http://www.w3.org/2000/svg" xmlns:xlink="http://www.w3.org/1999/xlink" x="0px" y="0px" width="100%" height="100%" viewBox="0 0 500 200">
<polygon points="25,136 15,120 28,95 35,86 39,86 55,79 51,69 60,68 60,71 68,65 82,75 110,65 123,73 127,84 131,93 112,101 110,106 105,102 83,115 90,122 91,134 90,142 80,145 80,150 67,157 50,150 36,152 35,147 25,136" id="47004" class="commune" fill="steelblue" stroke-width="1" stroke="white" geotype="commune" geoname="Aiguillon" code_insee="47004" code_canton="4706"/><polygon points="140,189 132,182 142,157 130,149 134,143 128,143 131,131 147,139 152,138 168,121 178,126 184,132 187,152 200,150 212,155 211,158 186,170 158,173 140,189" id="47022" class="commune" fill="steelblue" stroke-width="1" stroke="white" geotype="commune" geoname="Bazens" code_insee="47022" code_canton="4706"/><polygon points="60,68 61,66 82,48 91,34 97,38 126,30 127,43 137,54 154,57 165,64 180,59 189,62 189,76 196,85 185,91 184,102 171,96 167,86 154,86 152,90 127,84 123,73 110,65 82,75 68,65 60,71 60,68" id="47038" class="commune" fill="steelblue" stroke-width="1" stroke="white" geotype="commune" geoname="Bourran" code_insee="47038" code_canton="4706"/><polygon points="242,156 251,167 246,168 244,176 259,187 249,194 221,198 200,193 177,200 157,199 140,189 158,173 186,170 211,158 242,156" id="47066" class="commune" fill="steelblue" stroke-width="1" stroke="white" geotype="commune" geoname="Clermont-Dessous" code_insee="47066" code_canton="4706"/><polygon points="364,90 362,89 357,76 370,77 367,61 358,49 351,49 354,41 359,43 362,42 361,40 363,37 365,36 369,47 380,47 384,68 431,57 427,75 436,80 432,87 415,93 399,94 386,102 379,89 369,87 364,90" id="47073" class="commune" fill="steelblue" stroke-width="1" stroke="white" geotype="commune" geoname="Cours" code_insee="47073" code_canton="4706"/><polygon points="245,155 242,156 211,158 212,155 200,150 187,152 184,132 178,126 185,119 188,125 192,123 219,127 226,132 232,139 238,139 240,135 246,137 244,140 249,142 245,155" id="47104" class="commune" fill="steelblue" stroke-width="1" stroke="white" geotype="commune" geoname="Frégimont" code_insee="47104" code_canton="4706"/><polygon points="131,131 127,124 117,118 110,106 112,101 131,93 127,84 152,90 164,93 160,97 169,102 157,110 168,121 152,138 147,139 131,131" id="47107" class="commune" fill="steelblue" stroke-width="1" stroke="white" geotype="commune" geoname="Galapian" code_insee="47107" code_canton="4706"/><polygon points="205,0 230,5 239,6 239,13 237,22 241,23 235,33 221,27 214,35 211,33 206,25 209,21 205,0" id="47111" class="commune" fill="steelblue" stroke-width="1" stroke="white" geotype="commune" geoname="Granges-sur-Lot" code_insee="47111" code_canton="4706"/><polygon points="189,62 198,62 212,56 228,65 229,74 240,81 280,84 276,82 287,80 300,86 296,101 282,95 262,109 243,96 225,96 196,85 189,76 189,62" id="47125" class="commune" fill="steelblue" stroke-width="1" stroke="white" geotype="commune" geoname="Lacépède" code_insee="47125" code_canton="4706"/><polygon points="91,134 90,122 83,115 105,102 110,106 117,118 127,124 116,133 121,139 116,144 108,138 103,141 91,134" id="47129" class="commune" fill="steelblue" stroke-width="1" stroke="white" geotype="commune" geoname="Lagarrigue" code_insee="47129" code_canton="4706"/><polygon points="460,109 463,116 458,120 464,123 460,130 464,135 444,145 437,141 431,125 407,125 387,121 386,113 378,117 370,111 342,116 338,110 342,102 359,97 364,90 369,87 379,89 386,102 399,94 415,93 432,87 441,86 460,93 456,103 460,109" id="47140" class="commune" fill="steelblue" stroke-width="1" stroke="white" geotype="commune" geoname="Laugnac" code_insee="47140" code_canton="4706"/><polygon points="242,156 245,155 257,153 263,161 267,157 276,159 278,154 283,156 282,153 291,147 310,144 312,146 324,145 317,166 296,173 276,185 259,167 251,167 242,156" id="47154" class="commune" fill="steelblue" stroke-width="1" stroke="white" geotype="commune" geoname="Lusignan-Petit" code_insee="47154" code_canton="4706"/><polygon points="407,169 383,173 362,173 363,167 377,159 365,149 317,166 324,145 312,146 310,144 319,140 308,127 324,119 342,116 370,111 378,117 386,113 387,121 407,125 431,125 437,141 444,145 420,165 407,169" id="47155" class="commune" fill="steelblue" stroke-width="1" stroke="white" geotype="commune" geoname="Madaillan" code_insee="47155" code_canton="4706"/><polygon points="350,36 345,39 349,43 354,41 351,49 358,49 367,61 370,77 357,76 362,89 331,90 315,74 304,79 300,86 287,80 285,69 293,62 290,58 277,47 253,36 241,23 237,22 239,13 255,15 269,7 273,18 283,20 289,29 296,21 298,28 307,24 317,32 321,27 333,26 348,31 350,36" id="47190" class="commune" fill="steelblue" stroke-width="1" stroke="white" geotype="commune" geoname="Montpezat" code_insee="47190" code_canton="4706"/><polygon points="61,66 60,68 51,69 55,79 39,86 40,78 6,64 0,52 17,52 18,55 23,49 37,52 42,59 53,60 61,66" id="47196" class="commune" fill="steelblue" stroke-width="1" stroke="white" geotype="commune" geoname="Nicole" code_insee="47196" code_canton="4706"/><polygon points="127,124 131,131 128,143 134,143 130,149 142,157 132,182 110,181 81,192 61,193 49,187 39,178 36,152 50,150 67,157 80,150 80,145 90,142 91,134 103,141 108,138 116,144 121,139 116,133 127,124" id="47210" class="commune" fill="steelblue" stroke-width="1" stroke="white" geotype="commune" geoname="Port-Sainte-Marie" code_insee="47210" code_canton="4706"/><polygon points="362,89 364,90 359,97 342,102 338,110 342,116 324,119 308,127 319,140 310,144 291,147 282,153 283,156 278,154 276,159 267,157 263,161 257,153 245,155 249,142 244,140 246,137 240,135 238,139 232,139 226,132 231,122 214,104 225,96 243,96 262,109 282,95 296,101 300,86 304,79 315,74 331,90 362,89" id="47213" class="commune" fill="steelblue" stroke-width="1" stroke="white" geotype="commune" geoname="Prayssas" code_insee="47213" code_canton="4706"/><polygon points="178,126 168,121 157,110 169,102 160,97 164,93 152,90 154,86 167,86 171,96 184,102 185,91 196,85 225,96 214,104 231,122 226,132 219,127 192,123 188,125 185,119 178,126" id="47275" class="commune" fill="steelblue" stroke-width="1" stroke="white" geotype="commune" geoname="Saint-Salvy" code_insee="47275" code_canton="4706"/><polygon points="211,33 214,35 221,27 235,33 241,23 253,36 277,47 290,58 293,62 285,69 287,80 276,82 280,84 240,81 229,74 228,65 212,56 208,39 211,33" id="47276" class="commune" fill="steelblue" stroke-width="1" stroke="white" geotype="commune" geoname="Saint-Sardos" code_insee="47276" code_canton="4706"/><polygon points="500,67 500,95 492,101 460,109 456,103 460,93 441,86 432,87 436,80 427,75 431,57 442,49 500,67" id="47297" class="commune" fill="steelblue" stroke-width="1" stroke="white" geotype="commune" geoname="Sembas" code_insee="47297" code_canton="4706"/></svg>