<?xml version="1.0" encoding="utf-8"?>
<svg version="1.1" id="svgmap" xmlns="http://www.w3.org/2000/svg" xmlns:xlink="http://www.w3.org/1999/xlink" x="0px" y="0px" width="100%" height="100%" viewBox="0 0 500 331">
<polygon points="35,23 38,16 76,32 115,9 156,1 191,0 197,5 169,24 175,31 168,62 182,92 108,89 97,103 51,103 59,63 61,55 38,44 35,23" id="47027" class="commune" fill="steelblue" stroke-width="1" stroke="white" geotype="commune" geoname="Bias" code_insee="47027" code_canton="4721"/><polygon points="321,203 318,184 366,172 387,155 418,147 416,172 432,188 445,189 450,228 474,250 463,271 481,277 469,283 483,297 500,299 479,311 440,313 413,331 389,326 374,313 382,277 366,282 329,265 340,237 321,203" id="47117" class="commune" fill="steelblue" stroke-width="1" stroke="white" geotype="commune" geoname="Hautefage-la-Tour" code_insee="47117" code_canton="4721"/><polygon points="318,184 321,203 314,216 269,216 265,224 250,214 249,202 213,203 210,217 158,245 141,243 129,217 128,205 149,203 149,190 136,182 120,185 78,144 113,119 89,115 97,103 108,89 182,92 181,97 195,96 192,104 210,100 239,111 238,132 294,153 318,184" id="47215" class="commune" fill="steelblue" stroke-width="1" stroke="white" geotype="commune" geoname="Pujols" code_insee="47215" code_canton="4721"/><polygon points="180,268 158,245 210,217 213,203 249,202 250,214 265,224 269,216 314,216 321,203 340,237 329,265 306,266 293,279 251,295 223,262 180,268" id="47228" class="commune" fill="steelblue" stroke-width="1" stroke="white" geotype="commune" geoname="Saint-Antoine-de-Ficalba" code_insee="47228" code_canton="4721"/><polygon points="158,245 180,268 156,284 119,272 3,235 16,226 29,219 0,191 3,166 26,166 25,149 36,144 14,127 50,113 51,103 97,103 89,115 113,119 78,144 120,185 136,182 149,190 149,203 128,205 129,217 141,243 158,245" id="47237" class="commune" fill="steelblue" stroke-width="1" stroke="white" geotype="commune" geoname="Sainte-Colombe-de-Villeneuve" code_insee="47237" code_canton="4721"/></svg>