<?xml version="1.0" encoding="utf-8"?>
<svg version="1.1" id="svgmap" xmlns="http://www.w3.org/2000/svg" xmlns:xlink="http://www.w3.org/1999/xlink" x="0px" y="0px" width="100%" height="100%" viewBox="0 0 500 344">
<polygon points="4,173 20,177 30,167 16,145 84,162 92,160 119,177 120,218 126,231 121,240 85,260 72,251 69,258 57,239 44,243 40,255 12,246 4,228 11,223 0,209 9,196 2,186 12,184 4,173" id="48005" class="commune" fill="steelblue" stroke-width="1" stroke="white" geotype="commune" geoname="Antrenas" code_insee="48005" code_canton="4808"/><polygon points="350,189 302,231 299,235 274,234 272,229 258,234 246,229 222,233 231,229 227,215 269,203 284,187 286,167 274,163 267,152 255,149 239,154 229,147 239,126 287,136 286,109 302,106 306,71 326,82 340,107 366,129 367,138 383,124 392,126 440,135 409,154 403,181 372,188 359,181 350,189" id="48078" class="commune" fill="steelblue" stroke-width="1" stroke="white" geotype="commune" geoname="Lachamp" code_insee="48078" code_canton="4808"/><polygon points="69,258 72,251 85,260 121,240 126,231 120,218 136,217 147,244 151,233 164,228 168,232 175,233 162,251 195,256 188,262 199,262 207,286 160,290 163,301 158,298 154,308 145,311 152,328 145,329 149,340 143,344 125,317 130,306 116,308 92,292 69,258" id="48092" class="commune" fill="steelblue" stroke-width="1" stroke="white" geotype="commune" geoname="Marvejols" code_insee="48092" code_canton="4808"/><polygon points="286,109 287,136 239,126 229,147 175,129 188,111 214,94 221,69 246,68 252,74 258,66 287,77 278,102 286,109" id="48124" class="commune" fill="steelblue" stroke-width="1" stroke="white" geotype="commune" geoname="Recoules-de-Fumas" code_insee="48124" code_canton="4808"/><polygon points="258,66 242,52 261,40 284,36 277,16 293,0 323,11 359,27 372,44 395,39 403,43 417,71 454,53 459,60 478,63 485,78 471,98 438,90 392,126 383,124 367,138 366,129 340,107 326,82 306,71 302,106 286,109 278,102 287,77 258,66" id="48126" class="commune" fill="steelblue" stroke-width="1" stroke="white" geotype="commune" geoname="Ribennes" code_insee="48126" code_canton="4808"/><polygon points="120,218 119,177 92,160 84,162 74,138 83,147 108,136 118,140 127,134 141,107 163,95 214,94 188,111 175,129 229,147 239,154 255,149 267,152 274,163 286,167 284,187 269,203 227,215 187,215 168,232 164,228 151,233 147,244 136,217 120,218" id="48168" class="commune" fill="steelblue" stroke-width="1" stroke="white" geotype="commune" geoname="Saint-Léger-de-Peyre" code_insee="48168" code_canton="4808"/><polygon points="424,253 401,247 382,249 371,239 370,227 355,226 346,209 350,189 359,181 372,188 403,181 409,154 440,135 458,145 461,161 453,176 477,194 475,216 500,226 495,239 499,266 470,274 466,282 458,276 454,247 460,241 453,233 424,253" id="48189" class="commune" fill="steelblue" stroke-width="1" stroke="white" geotype="commune" geoname="Servières" code_insee="48189" code_canton="4808"/></svg>