<?xml version="1.0" encoding="utf-8"?>
<svg version="1.1" id="svgmap" xmlns="http://www.w3.org/2000/svg" xmlns:xlink="http://www.w3.org/1999/xlink" x="0px" y="0px" width="100%" height="100%" viewBox="0 0 500 245">
<polygon points="144,93 136,83 139,62 141,58 152,60 152,65 176,73 173,87 165,82 162,92 144,93" id="50009" class="commune" fill="steelblue" stroke-width="1" stroke="white" geotype="commune" geoname="Angey" code_insee="50009" code_canton="5002"/><polygon points="344,191 338,183 353,175 369,178 370,171 374,172 388,165 405,165 406,171 412,172 407,177 383,182 390,191 406,198 403,202 379,202 380,208 360,197 343,196 344,191" id="50025" class="commune" fill="steelblue" stroke-width="1" stroke="white" geotype="commune" geoname="Avranches" code_insee="50025" code_canton="5002"/><polygon points="191,163 196,139 207,137 221,145 219,128 230,115 247,112 259,117 259,125 274,126 277,138 281,133 285,136 284,147 293,151 293,155 304,178 298,176 273,180 258,196 251,193 247,196 212,200 210,195 220,186 207,183 207,173 191,163" id="50027" class="commune" fill="steelblue" stroke-width="1" stroke="white" geotype="commune" geoname="Bacilly" code_insee="50027" code_canton="5002"/><polygon points="152,60 141,58 139,62 136,83 144,93 137,99 101,100 96,90 86,90 82,79 61,85 60,82 48,81 33,64 6,62 4,51 7,12 15,12 16,19 25,25 38,24 44,19 45,29 66,19 76,21 84,17 104,29 107,36 142,33 148,35 152,60" id="50066" class="commune" fill="steelblue" stroke-width="1" stroke="white" geotype="commune" geoname="Jullouville" code_insee="50066" code_canton="5002"/><polygon points="31,106 5,90 0,75 4,51 6,62 33,64 48,81 60,82 61,85 31,106" id="50102" class="commune" fill="steelblue" stroke-width="1" stroke="white" geotype="commune" geoname="Carolles" code_insee="50102" code_canton="5002"/><polygon points="196,139 189,137 192,123 198,103 219,101 228,105 230,115 219,128 221,145 207,137 196,139" id="50116" class="commune" fill="steelblue" stroke-width="1" stroke="white" geotype="commune" geoname="Champcey" code_insee="50116" code_canton="5002"/><polygon points="137,99 130,108 88,107 71,112 40,110 31,106 61,85 82,79 86,90 96,90 101,100 137,99" id="50117" class="commune" fill="steelblue" stroke-width="1" stroke="white" geotype="commune" geoname="Champeaux" code_insee="50117" code_canton="5002"/><polygon points="411,82 425,79 430,91 439,94 436,111 427,113 415,126 407,120 396,119 396,115 390,108 411,82" id="50126" class="commune" fill="steelblue" stroke-width="1" stroke="white" geotype="commune" geoname="Chavoy" code_insee="50126" code_canton="5002"/><polygon points="196,139 191,163 181,160 171,169 159,165 135,177 117,180 102,162 96,137 114,126 125,125 121,118 130,108 137,99 144,93 162,92 165,82 173,87 174,101 186,111 179,122 192,123 189,137 196,139" id="50167" class="commune" fill="steelblue" stroke-width="1" stroke="white" geotype="commune" geoname="Dragey-Ronthon" code_insee="50167" code_canton="5002"/><polygon points="191,163 207,173 207,183 220,186 210,195 212,200 202,211 190,211 179,199 153,189 122,193 117,180 135,177 159,165 171,169 181,160 191,163" id="50199" class="commune" fill="steelblue" stroke-width="1" stroke="white" geotype="commune" geoname="Genêts" code_insee="50199" code_canton="5002"/><polygon points="103,234 106,233 109,235 107,235 103,234" id="50199" class="commune" fill="steelblue" stroke-width="1" stroke="white" geotype="commune" geoname="Genêts" code_insee="50199" code_canton="5002"/><polygon points="293,155 293,151 284,147 285,136 281,133 277,138 274,126 259,125 259,117 275,91 291,81 297,87 298,84 311,84 313,71 326,78 342,78 337,91 340,97 348,99 347,103 367,102 370,108 369,116 346,123 333,139 313,131 304,133 293,155" id="50276" class="commune" fill="steelblue" stroke-width="1" stroke="white" geotype="commune" geoname="Lolif" code_insee="50276" code_canton="5002"/><polygon points="353,175 338,183 344,191 325,207 313,206 304,178 293,155 304,133 313,131 333,139 339,161 344,160 353,175" id="50288" class="commune" fill="steelblue" stroke-width="1" stroke="white" geotype="commune" geoname="Marcey-les-Grèves" code_insee="50288" code_canton="5002"/><polygon points="279,61 286,64 315,58 308,68 313,71 311,84 298,84 297,87 291,81 275,91 259,117 247,112 230,115 228,105 231,93 249,86 279,61" id="50355" class="commune" fill="steelblue" stroke-width="1" stroke="white" geotype="commune" geoname="Montviron" code_insee="50355" code_canton="5002"/><polygon points="487,103 477,117 453,127 434,143 421,138 426,128 415,126 427,113 436,111 439,94 443,84 452,85 468,66 492,65 500,79 482,90 487,103" id="50406" class="commune" fill="steelblue" stroke-width="1" stroke="white" geotype="commune" geoname="Plomb" code_insee="50406" code_canton="5002"/><polygon points="477,117 476,123 445,146 446,155 412,172 406,171 405,165 388,165 375,157 392,136 389,117 396,115 396,119 407,120 415,126 426,128 421,138 434,143 453,127 477,117" id="50411" class="commune" fill="steelblue" stroke-width="1" stroke="white" geotype="commune" geoname="Ponts" code_insee="50411" code_canton="5002"/><polygon points="388,165 374,172 370,171 369,178 353,175 344,160 339,161 333,139 346,123 369,116 370,108 378,100 386,100 404,64 411,70 411,82 390,108 396,115 389,117 392,136 375,157 388,165" id="50489" class="commune" fill="steelblue" stroke-width="1" stroke="white" geotype="commune" geoname="Saint-Jean-de-la-Haize" code_insee="50489" code_canton="5002"/><polygon points="96,137 71,112 88,107 130,108 121,118 125,125 114,126 96,137" id="50496" class="commune" fill="steelblue" stroke-width="1" stroke="white" geotype="commune" geoname="Saint-Jean-le-Thomas" code_insee="50496" code_canton="5002"/><polygon points="148,35 142,33 107,36 104,29 84,17 92,12 107,10 121,2 144,0 164,5 181,5 185,11 208,15 205,22 212,25 207,31 200,32 148,35" id="50540" class="commune" fill="steelblue" stroke-width="1" stroke="white" geotype="commune" geoname="Saint-Pierre-Langers" code_insee="50540" code_canton="5002"/><polygon points="173,87 176,73 152,65 152,60 148,35 200,32 211,62 232,73 231,93 228,105 219,101 198,103 192,123 179,122 186,111 174,101 173,87" id="50565" class="commune" fill="steelblue" stroke-width="1" stroke="white" geotype="commune" geoname="Sartilly" code_insee="50565" code_canton="5002"/><polygon points="212,200 247,196 251,193 258,196 273,180 298,176 304,178 313,206 266,218 259,224 246,223 235,242 221,245 218,219 202,211 212,200" id="50612" class="commune" fill="steelblue" stroke-width="1" stroke="white" geotype="commune" geoname="Vains" code_insee="50612" code_canton="5002"/></svg>