<?xml version="1.0" encoding="utf-8"?>
<svg version="1.1" id="svgmap" xmlns="http://www.w3.org/2000/svg" xmlns:xlink="http://www.w3.org/1999/xlink" x="0px" y="0px" width="100%" height="100%" viewBox="0 0 500 304">
<polygon points="408,97 419,97 450,110 440,121 427,120 409,135 409,143 398,141 368,148 355,143 373,127 376,115 386,113 408,97" id="50013" class="commune" fill="steelblue" stroke-width="1" stroke="white" geotype="commune" geoname="Anneville-en-Saire" code_insee="50013" code_canton="5026"/><polygon points="360,281 371,299 332,304 317,299 297,300 298,291 318,291 333,285 360,281" id="50022" class="commune" fill="steelblue" stroke-width="1" stroke="white" geotype="commune" geoname="Aumeville-Lestre" code_insee="50022" code_canton="5026"/><polygon points="439,58 446,59 439,62 439,67 448,60 450,69 429,74 420,70 439,58" id="50030" class="commune" fill="steelblue" stroke-width="1" stroke="white" geotype="commune" geoname="Barfleur" code_insee="50030" code_canton="5026"/><polygon points="210,121 230,131 238,142 227,144 213,138 201,147 210,160 195,161 189,167 154,164 125,158 124,150 133,146 141,128 161,118 210,121" id="50086" class="commune" fill="steelblue" stroke-width="1" stroke="white" geotype="commune" geoname="Brillevast" code_insee="50086" code_canton="5026"/><polygon points="230,131 249,117 248,111 253,111 256,104 288,91 300,99 294,120 279,124 276,134 230,131" id="50096" class="commune" fill="steelblue" stroke-width="1" stroke="white" geotype="commune" geoname="Canteloup" code_insee="50096" code_canton="5026"/><polygon points="85,92 74,79 108,56 140,60 134,68 143,67 152,71 153,78 137,91 132,108 123,115 85,92" id="50101" class="commune" fill="steelblue" stroke-width="1" stroke="white" geotype="commune" geoname="Carneville" code_insee="50101" code_canton="5026"/><polygon points="295,85 288,91 256,104 253,111 248,111 249,117 230,131 210,121 222,100 226,98 219,89 226,84 239,80 236,77 247,75 248,81 257,82 265,67 288,74 288,84 295,85" id="50135" class="commune" fill="steelblue" stroke-width="1" stroke="white" geotype="commune" geoname="Clitourps" code_insee="50135" code_canton="5026"/><polygon points="245,40 234,58 232,56 232,39 223,36 228,34 229,26 223,25 227,21 208,21 213,36 156,65 143,67 134,68 140,60 149,60 157,51 152,47 161,41 151,27 153,7 163,2 175,9 215,0 260,1 250,18 258,31 245,40" id="50142" class="commune" fill="steelblue" stroke-width="1" stroke="white" geotype="commune" geoname="Cosqueville" code_insee="50142" code_canton="5026"/><polygon points="361,255 360,281 333,285 318,291 298,291 302,285 271,254 280,247 288,250 304,241 341,256 361,255" id="50150" class="commune" fill="steelblue" stroke-width="1" stroke="white" geotype="commune" geoname="Crasville" code_insee="50150" code_canton="5026"/><polygon points="153,7 151,27 161,41 152,47 157,51 149,60 140,60 108,56 74,79 58,83 58,72 45,67 51,51 68,43 72,35 64,29 71,16 109,26 136,8 144,11 153,7" id="50178" class="commune" fill="steelblue" stroke-width="1" stroke="white" geotype="commune" geoname="Fermanville" code_insee="50178" code_canton="5026"/><polygon points="398,79 387,66 370,65 361,59 351,62 349,56 343,57 341,52 333,51 330,44 358,34 375,22 394,24 407,20 412,24 416,18 420,22 435,17 432,36 426,33 423,39 429,44 422,47 435,48 433,53 439,58 420,70 402,74 398,79" id="50196" class="commune" fill="steelblue" stroke-width="1" stroke="white" geotype="commune" geoname="Gatteville-le-Phare" code_insee="50196" code_canton="5026"/><polygon points="35,161 24,160 0,119 17,116 19,113 46,111 61,104 60,101 67,104 81,98 85,92 123,115 141,128 133,146 124,150 125,158 84,148 72,154 58,154 35,161" id="50209" class="commune" fill="steelblue" stroke-width="1" stroke="white" geotype="commune" geoname="Gonneville" code_insee="50209" code_canton="5026"/><polygon points="329,13 375,22 358,34 330,44 305,53 297,47 325,34 329,13" id="50211" class="commune" fill="steelblue" stroke-width="1" stroke="white" geotype="commune" geoname="Gouberville" code_insee="50211" code_canton="5026"/><polygon points="74,79 85,92 81,98 67,104 60,101 61,104 46,111 50,99 19,73 30,71 35,62 45,67 58,72 58,83 74,79" id="50296" class="commune" fill="steelblue" stroke-width="1" stroke="white" geotype="commune" geoname="Maupertus-sur-Mer" code_insee="50296" code_canton="5026"/><polygon points="408,97 403,90 398,79 402,74 420,70 429,74 450,69 480,90 482,98 473,102 450,110 419,97 408,97" id="50342" class="commune" fill="steelblue" stroke-width="1" stroke="white" geotype="commune" geoname="Montfarville" code_insee="50342" code_canton="5026"/><polygon points="361,255 341,256 304,241 298,237 332,234 346,228 332,217 374,223 361,255" id="50358" class="commune" fill="steelblue" stroke-width="1" stroke="white" geotype="commune" geoname="Morsalines" code_insee="50358" code_canton="5026"/><polygon points="329,13 325,34 297,47 282,43 293,9 312,9 318,3 329,13" id="50375" class="commune" fill="steelblue" stroke-width="1" stroke="white" geotype="commune" geoname="Néville-sur-Mer" code_insee="50375" code_canton="5026"/><polygon points="232,261 259,258 257,254 269,252 271,254 302,285 298,291 297,300 276,304 267,290 261,292 260,297 239,295 232,298 223,280 213,273 232,261" id="50384" class="commune" fill="steelblue" stroke-width="1" stroke="white" geotype="commune" geoname="Octeville-l'Avenel" code_insee="50384" code_canton="5026"/><polygon points="283,189 280,184 291,176 324,167 324,160 333,154 350,158 348,146 340,144 355,143 368,148 398,141 409,143 414,156 419,157 417,165 397,168 378,173 349,168 345,175 325,177 324,185 283,189" id="50395" class="commune" fill="steelblue" stroke-width="1" stroke="white" geotype="commune" geoname="Pernelle" code_insee="50395" code_canton="5026"/><polygon points="304,241 288,250 280,247 271,254 269,252 267,236 253,226 285,218 289,214 288,200 277,197 283,189 324,185 325,177 345,175 349,168 378,173 397,168 389,180 402,185 393,206 399,208 381,215 374,223 332,217 346,228 332,234 298,237 304,241" id="50417" class="commune" fill="steelblue" stroke-width="1" stroke="white" geotype="commune" geoname="Quettehou" code_insee="50417" code_canton="5026"/><polygon points="260,1 293,9 282,43 267,41 264,35 245,40 258,31 250,18 260,1" id="50432" class="commune" fill="steelblue" stroke-width="1" stroke="white" geotype="commune" geoname="Réthoville" code_insee="50432" code_canton="5026"/><polygon points="409,143 409,135 427,120 440,121 450,110 473,102 500,145 499,176 464,165 451,164 440,163 435,157 419,157 414,156 409,143" id="50433" class="commune" fill="steelblue" stroke-width="1" stroke="white" geotype="commune" geoname="Réville" code_insee="50433" code_canton="5026"/><polygon points="370,65 387,66 398,79 403,90 382,93 382,98 368,100 364,96 324,91 312,78 329,77 370,65" id="50469" class="commune" fill="steelblue" stroke-width="1" stroke="white" geotype="commune" geoname="Sainte-Geneviève" code_insee="50469" code_canton="5026"/><polygon points="226,84 219,89 226,98 222,100 191,96 192,91 181,87 179,82 174,82 156,65 213,36 208,21 227,21 223,25 229,26 228,34 223,36 232,39 232,56 228,70 222,70 218,83 210,85 226,84" id="50539" class="commune" fill="steelblue" stroke-width="1" stroke="white" geotype="commune" geoname="Saint-Pierre-Église" code_insee="50539" code_canton="5026"/><polygon points="463,207 467,201 481,206 477,210 463,207" id="50562" class="commune" fill="steelblue" stroke-width="1" stroke="white" geotype="commune" geoname="Saint-Vaast-la-Hougue" code_insee="50562" code_canton="5026"/><polygon points="475,214 475,213 477,213 477,214 475,214" id="50562" class="commune" fill="steelblue" stroke-width="1" stroke="white" geotype="commune" geoname="Saint-Vaast-la-Hougue" code_insee="50562" code_canton="5026"/><polygon points="397,168 417,165 419,157 435,157 440,163 451,164 454,167 433,199 443,210 424,224 422,237 416,233 416,227 429,216 399,208 393,206 402,185 389,180 397,168" id="50562" class="commune" fill="steelblue" stroke-width="1" stroke="white" geotype="commune" geoname="Saint-Vaast-la-Hougue" code_insee="50562" code_canton="5026"/><polygon points="280,184 283,189 277,197 288,200 289,214 285,218 253,226 247,225 238,232 232,243 204,247 194,241 201,232 163,220 159,216 166,213 159,203 136,199 140,192 129,192 123,178 148,170 154,164 189,167 195,161 210,160 231,158 222,166 228,173 247,176 261,186 280,184" id="50593" class="commune" fill="steelblue" stroke-width="1" stroke="white" geotype="commune" geoname="Teurthéville-Bocage" code_insee="50593" code_canton="5026"/><polygon points="136,199 123,208 114,209 100,202 82,209 81,202 73,200 56,201 46,207 16,198 38,184 35,161 58,154 72,154 84,148 125,158 154,164 148,170 123,178 129,192 140,192 136,199" id="50595" class="commune" fill="steelblue" stroke-width="1" stroke="white" geotype="commune" geoname="Theil" code_insee="50595" code_canton="5026"/><polygon points="222,100 210,121 161,118 141,128 123,115 132,108 137,91 153,78 152,71 143,67 156,65 174,82 179,82 181,87 192,91 191,96 222,100" id="50596" class="commune" fill="steelblue" stroke-width="1" stroke="white" geotype="commune" geoname="Théville" code_insee="50596" code_canton="5026"/><polygon points="295,85 288,84 288,74 268,57 272,47 267,41 282,43 297,47 305,53 330,44 333,51 341,52 343,57 349,56 351,62 361,59 370,65 329,77 312,78 307,77 295,85" id="50598" class="commune" fill="steelblue" stroke-width="1" stroke="white" geotype="commune" geoname="Tocqueville" code_insee="50598" code_canton="5026"/><polygon points="288,91 295,85 307,77 312,78 324,91 364,96 368,100 382,98 382,93 403,90 408,97 386,113 376,115 354,112 340,115 329,112 314,116 308,123 300,125 294,120 300,99 288,91" id="50613" class="commune" fill="steelblue" stroke-width="1" stroke="white" geotype="commune" geoname="Valcanville" code_insee="50613" code_canton="5026"/><polygon points="232,56 234,58 245,40 264,35 267,41 272,47 268,57 288,74 265,67 257,82 248,81 247,75 236,77 239,80 226,84 210,85 218,83 222,70 228,70 232,56" id="50618" class="commune" fill="steelblue" stroke-width="1" stroke="white" geotype="commune" geoname="Varouville" code_insee="50618" code_canton="5026"/><polygon points="210,160 201,147 213,138 227,144 238,142 230,131 276,134 279,124 294,120 300,125 308,123 314,125 307,134 316,149 340,144 348,146 350,158 333,154 324,160 324,167 291,176 280,184 261,186 247,176 228,173 222,166 231,158 210,160" id="50619" class="commune" fill="steelblue" stroke-width="1" stroke="white" geotype="commune" geoname="Vast" code_insee="50619" code_canton="5026"/><polygon points="355,143 340,144 316,149 307,134 314,125 308,123 314,116 329,112 340,115 354,112 376,115 373,127 355,143" id="50633" class="commune" fill="steelblue" stroke-width="1" stroke="white" geotype="commune" geoname="Vicel" code_insee="50633" code_canton="5026"/><polygon points="269,252 257,254 259,258 232,261 232,243 238,232 247,225 253,226 267,236 269,252" id="50634" class="commune" fill="steelblue" stroke-width="1" stroke="white" geotype="commune" geoname="Videcosville" code_insee="50634" code_canton="5026"/></svg>