<?xml version="1.0" encoding="utf-8"?>
<svg version="1.1" id="svgmap" xmlns="http://www.w3.org/2000/svg" xmlns:xlink="http://www.w3.org/1999/xlink" x="0px" y="0px" width="100%" height="100%" viewBox="0 0 500 415">
<polygon points="124,332 126,327 139,319 146,323 145,325 156,338 172,335 176,337 172,340 174,346 164,352 157,344 148,346 149,348 146,349 150,352 150,358 148,355 144,361 134,362 131,357 128,359 120,352 111,349 130,342 124,332" id="51004" class="commune" fill="steelblue" stroke-width="1" stroke="white" geotype="commune" geoname="Allemanche-Launay-et-Soyer" code_insee="51004" code_canton="5122"/><polygon points="144,361 148,355 150,358 150,352 146,349 149,348 148,346 157,344 164,352 174,346 181,347 179,367 173,365 157,368 153,365 149,367 144,361" id="51009" class="commune" fill="steelblue" stroke-width="1" stroke="white" geotype="commune" geoname="Anglure" code_insee="51009" code_canton="5122"/><polygon points="230,283 240,282 240,280 249,282 253,278 259,277 260,280 262,279 262,275 268,275 271,278 272,276 271,278 269,281 252,290 230,315 213,305 208,300 211,287 211,285 214,286 215,288 228,286 230,283" id="51010" class="commune" fill="steelblue" stroke-width="1" stroke="white" geotype="commune" geoname="Angluzelles-et-Courcelles" code_insee="51010" code_canton="5122"/><polygon points="418,31 415,36 418,39 404,45 402,46 394,39 398,37 390,24 395,24 393,5 394,3 401,3 405,0 440,2 442,8 438,12 435,11 434,15 429,18 431,20 419,24 418,31" id="51018" class="commune" fill="steelblue" stroke-width="1" stroke="white" geotype="commune" geoname="Athis" code_insee="51018" code_canton="5122"/><polygon points="157,389 150,377 147,376 149,371 146,369 149,367 153,365 157,368 173,365 179,367 194,369 201,369 202,373 199,372 200,378 197,379 198,392 175,390 175,389 157,389" id="51032" class="commune" fill="steelblue" stroke-width="1" stroke="white" geotype="commune" geoname="Bagneux" code_insee="51032" code_canton="5122"/><polygon points="234,214 227,202 221,175 231,176 231,173 238,173 254,174 262,176 261,178 277,179 278,181 273,182 289,199 252,212 251,210 242,212 234,214" id="51035" class="commune" fill="steelblue" stroke-width="1" stroke="white" geotype="commune" geoname="Bannes" code_insee="51035" code_canton="5122"/><polygon points="111,349 120,352 128,359 131,357 134,362 144,361 149,367 146,369 139,374 135,374 132,372 129,376 128,372 124,372 125,376 116,375 114,378 112,369 106,362 108,362 105,356 108,355 106,351 107,348 109,350 111,349" id="51041" class="commune" fill="steelblue" stroke-width="1" stroke="white" geotype="commune" geoname="Baudement" code_insee="51041" code_canton="5122"/><polygon points="313,139 305,135 301,135 302,133 297,131 281,129 277,120 281,120 280,116 284,114 289,113 292,114 295,119 294,125 299,122 299,108 313,113 316,110 327,112 326,116 340,127 347,125 349,127 361,133 358,134 361,136 351,139 352,140 349,141 346,138 343,139 340,136 326,143 320,142 320,139 313,139" id="51049" class="commune" fill="steelblue" stroke-width="1" stroke="white" geotype="commune" geoname="Bergères-lès-Vertus" code_insee="51049" code_canton="5122"/><polygon points="204,225 204,225 200,219 203,218 201,216 195,218 190,217 199,213 187,201 189,196 185,192 183,184 188,181 182,180 178,176 175,177 176,172 183,171 189,171 189,175 195,174 195,178 200,180 204,179 205,171 211,172 221,169 221,175 227,202 234,214 231,212 221,216 217,213 209,216 213,221 204,225" id="51090" class="commune" fill="steelblue" stroke-width="1" stroke="white" geotype="commune" geoname="Broussy-le-Grand" code_insee="51090" code_canton="5122"/><polygon points="51,355 43,350 41,346 39,339 41,338 43,331 39,328 29,330 26,327 32,324 45,329 60,329 63,331 65,330 70,336 77,341 81,341 85,345 68,354 74,359 67,361 51,355" id="51103" class="commune" fill="steelblue" stroke-width="1" stroke="white" geotype="commune" geoname="Celle-sous-Chantemerle" code_insee="51103" code_canton="5122"/><polygon points="371,117 376,115 372,109 378,107 375,104 388,100 386,95 389,94 390,97 395,99 409,95 411,99 420,97 425,102 404,109 404,114 391,125 388,127 382,120 378,123 371,117" id="51107" class="commune" fill="steelblue" stroke-width="1" stroke="white" geotype="commune" geoname="Chaintrix-Bierges" code_insee="51107" code_canton="5122"/><polygon points="206,80 207,74 204,72 213,68 221,70 236,67 237,72 245,82 222,87 206,80" id="51110" class="commune" fill="steelblue" stroke-width="1" stroke="white" geotype="commune" geoname="Chaltrait" code_insee="51110" code_canton="5122"/><polygon points="138,305 143,303 146,302 149,307 158,301 164,303 174,308 181,309 178,312 183,316 180,320 191,323 192,324 176,337 172,335 156,338 145,325 146,323 139,319 147,311 145,308 141,310 138,305" id="51127" class="commune" fill="steelblue" stroke-width="1" stroke="white" geotype="commune" geoname="Chapelle-Lasson" code_insee="51127" code_canton="5122"/><polygon points="358,177 344,162 350,161 344,155 349,151 344,145 354,143 363,139 367,144 374,141 376,146 383,145 391,151 398,149 406,162 411,162 408,168 416,172 415,177 397,182 392,178 391,180 381,177 374,177 371,172 358,177" id="51154" class="commune" fill="steelblue" stroke-width="1" stroke="white" geotype="commune" geoname="Clamanges" code_insee="51154" code_canton="5122"/><polygon points="177,413 170,415 155,408 150,409 151,408 152,407 148,406 148,404 146,406 145,404 138,404 139,401 143,401 149,397 152,390 155,391 157,389 175,389 175,390 198,392 203,392 202,397 191,408 182,410 177,413" id="51155" class="commune" fill="steelblue" stroke-width="1" stroke="white" geotype="commune" geoname="Clesles" code_insee="51155" code_canton="5122"/><polygon points="281,129 297,131 302,133 301,135 305,135 313,139 310,151 304,154 300,153 298,156 307,161 305,163 323,171 317,176 318,176 314,180 319,181 311,187 310,193 289,199 273,182 278,181 277,179 261,178 262,176 254,174 238,173 237,163 244,159 262,153 260,151 265,149 264,143 272,137 276,136 275,134 282,131 281,129" id="51158" class="commune" fill="steelblue" stroke-width="1" stroke="white" geotype="commune" geoname="Val-des-Marais" code_insee="51158" code_canton="5122"/><polygon points="41,398 37,400 35,398 39,391 47,390 49,388 46,385 48,382 48,379 55,377 54,373 61,373 69,397 75,399 72,401 59,395 55,398 51,396 41,398" id="51162" class="commune" fill="steelblue" stroke-width="1" stroke="white" geotype="commune" geoname="Conflans-sur-Seine" code_insee="51162" code_canton="5122"/><polygon points="399,238 393,251 386,258 382,267 374,265 357,261 363,254 357,250 348,249 352,245 336,237 334,236 339,233 334,226 337,222 335,216 339,210 336,210 348,204 370,213 388,225 380,237 399,238" id="51164" class="commune" fill="steelblue" stroke-width="1" stroke="white" geotype="commune" geoname="Connantray-Vaurefroy" code_insee="51164" code_canton="5122"/><polygon points="204,225 213,221 209,216 217,213 221,216 231,212 234,214 242,212 243,216 250,218 268,232 273,233 281,246 242,257 239,258 235,254 230,259 218,250 219,247 211,247 213,239 205,232 210,230 204,225" id="51165" class="commune" fill="steelblue" stroke-width="1" stroke="white" geotype="commune" geoname="Connantre" code_insee="51165" code_canton="5122"/><polygon points="303,267 289,286 271,278 272,276 271,278 268,275 262,275 262,279 260,280 259,277 253,278 249,265 244,263 242,257 281,246 284,245 285,249 298,248 298,251 306,250 307,258 300,260 296,266 303,267" id="51176" class="commune" fill="steelblue" stroke-width="1" stroke="white" geotype="commune" geoname="Corroy" code_insee="51176" code_canton="5122"/><polygon points="270,344 243,341 243,345 239,345 236,322 256,322 256,321 256,322 262,323 283,323 275,331 270,344" id="51182" class="commune" fill="steelblue" stroke-width="1" stroke="white" geotype="commune" geoname="Courcemain" code_insee="51182" code_canton="5122"/><polygon points="344,162 358,177 346,182 344,181 342,185 322,194 315,197 310,193 311,187 319,181 314,180 318,176 317,176 323,171 344,162" id="51226" class="commune" fill="steelblue" stroke-width="1" stroke="white" geotype="commune" geoname="Écury-le-Repos" code_insee="51226" code_canton="5122"/><polygon points="35,398 34,397 30,399 29,396 24,398 24,395 20,397 14,392 16,389 11,377 15,372 13,370 27,369 32,372 33,370 48,382 46,385 49,388 47,390 39,391 35,398" id="51234" class="commune" fill="steelblue" stroke-width="1" stroke="white" geotype="commune" geoname="Esclavolles-Lurey" code_insee="51234" code_canton="5122"/><polygon points="258,110 262,109 266,111 270,111 271,107 278,103 284,114 280,116 281,120 277,120 281,129 282,131 275,134 276,136 272,137 266,129 254,117 252,113 257,113 258,110" id="51239" class="commune" fill="steelblue" stroke-width="1" stroke="white" geotype="commune" geoname="Étréchy" code_insee="51239" code_canton="5122"/><polygon points="336,237 352,245 348,249 357,250 363,254 357,261 338,255 337,259 332,258 331,265 319,267 312,263 306,265 303,267 296,266 300,260 307,258 306,250 298,251 298,248 299,244 322,242 336,237" id="51241" class="commune" fill="steelblue" stroke-width="1" stroke="white" geotype="commune" geoname="Euvy" code_insee="51241" code_canton="5122"/><polygon points="236,322 232,321 234,318 230,315 252,290 269,281 271,278 289,286 296,292 312,296 298,304 292,322 292,324 295,323 293,326 286,325 285,321 283,323 262,323 256,322 256,321 256,322 236,322" id="51243" class="commune" fill="steelblue" stroke-width="1" stroke="white" geotype="commune" geoname="Faux-Fresnay" code_insee="51243" code_canton="5122"/><polygon points="358,177 371,172 374,177 381,177 391,180 392,178 397,182 415,177 422,181 383,199 386,201 376,207 370,213 348,204 336,210 339,210 335,216 337,222 334,226 339,233 334,236 336,237 322,242 299,244 298,248 285,249 284,245 281,246 273,233 268,232 250,218 243,216 242,212 251,210 252,212 289,199 310,193 315,197 322,194 342,185 344,181 346,182 358,177" id="51248" class="commune" fill="steelblue" stroke-width="1" stroke="white" geotype="commune" geoname="Fère-Champenoise" code_insee="51248" code_canton="5122"/><polygon points="498,108 500,110 476,121 467,128 442,130 433,134 430,132 426,134 418,131 413,125 429,113 436,110 438,112 446,108 443,105 465,97 477,101 484,108 486,107 491,110 498,108" id="51268" class="commune" fill="steelblue" stroke-width="1" stroke="white" geotype="commune" geoname="Germinon" code_insee="51268" code_canton="5122"/><polygon points="262,58 282,62 287,65 302,67 301,71 305,71 308,75 307,80 307,82 301,82 295,85 288,82 284,86 280,83 274,87 267,86 272,82 270,75 258,72 260,68 264,67 261,67 262,65 258,64 258,60 262,58" id="51271" class="commune" fill="steelblue" stroke-width="1" stroke="white" geotype="commune" geoname="Gionges" code_insee="51271" code_canton="5122"/><polygon points="224,99 229,97 232,99 242,103 252,110 258,110 257,113 252,113 254,117 266,129 262,128 248,118 245,120 233,113 224,99" id="51273" class="commune" fill="steelblue" stroke-width="1" stroke="white" geotype="commune" geoname="Givry-lès-Loisy" code_insee="51273" code_canton="5122"/><polygon points="357,261 374,265 369,268 361,281 366,281 366,283 358,293 354,292 346,298 341,297 335,299 330,297 312,296 296,292 289,286 303,267 306,265 312,263 319,267 331,265 332,258 337,259 338,255 357,261" id="51276" class="commune" fill="steelblue" stroke-width="1" stroke="white" geotype="commune" geoname="Gourgançon" code_insee="51276" code_canton="5122"/><polygon points="181,347 186,348 187,345 207,346 214,347 213,358 217,365 215,366 214,364 208,364 207,362 203,364 193,363 194,369 179,367 181,347" id="51279" class="commune" fill="steelblue" stroke-width="1" stroke="white" geotype="commune" geoname="Granges-sur-Aube" code_insee="51279" code_canton="5122"/><polygon points="233,134 229,128 227,129 224,128 226,127 220,120 219,113 214,114 212,110 209,111 190,93 191,89 190,84 194,84 206,85 212,90 224,99 233,113 245,120 248,118 262,128 260,131 252,133 249,133 246,130 233,134" id="51327" class="commune" fill="steelblue" stroke-width="1" stroke="white" geotype="commune" geoname="Loisy-en-Brie" code_insee="51327" code_canton="5122"/><polygon points="94,397 75,399 69,397 61,373 62,364 68,363 69,367 75,365 79,372 82,371 89,379 92,379 88,379 96,384 91,387 94,389 94,397" id="51343" class="commune" fill="steelblue" stroke-width="1" stroke="white" geotype="commune" geoname="Marcilly-sur-Seine" code_insee="51343" code_canton="5122"/><polygon points="211,287 208,300 195,305 183,316 178,312 181,309 174,308 164,303 164,300 173,293 175,285 182,287 182,282 203,283 203,284 207,285 211,287" id="51351" class="commune" fill="steelblue" stroke-width="1" stroke="white" geotype="commune" geoname="Marigny" code_insee="51351" code_canton="5122"/><polygon points="207,346 187,345 186,348 181,347 174,346 172,340 176,337 192,324 201,328 208,334 207,341 207,346" id="51353" class="commune" fill="steelblue" stroke-width="1" stroke="white" geotype="commune" geoname="Marsangis" code_insee="51353" code_canton="5122"/><polygon points="307,80 308,75 305,71 301,71 302,67 308,67 313,73 322,65 325,66 335,62 339,65 347,61 349,64 343,66 350,76 344,77 340,75 338,76 338,78 335,82 328,84 307,80" id="51367" class="commune" fill="steelblue" stroke-width="1" stroke="white" geotype="commune" geoname="Mesnil-sur-Oger" code_insee="51367" code_canton="5122"/><polygon points="236,67 221,70 213,68 209,67 211,65 208,63 203,63 199,59 225,56 239,48 246,48 251,43 259,46 260,48 262,58 258,60 258,64 262,65 261,67 264,67 260,68 258,72 250,67 242,70 236,67" id="51387" class="commune" fill="steelblue" stroke-width="1" stroke="white" geotype="commune" geoname="Moslins" code_insee="51387" code_canton="5122"/><polygon points="282,62 284,61 289,62 295,55 331,50 330,48 331,50 345,48 351,46 358,57 365,62 367,66 372,70 350,76 343,66 349,64 347,61 339,65 335,62 325,66 322,65 313,73 308,67 302,67 287,65 282,62" id="51411" class="commune" fill="steelblue" stroke-width="1" stroke="white" geotype="commune" geoname="Oger" code_insee="51411" code_canton="5122"/><polygon points="253,278 249,282 240,280 240,282 230,283 227,275 225,276 217,270 230,259 235,254 239,258 242,257 244,263 249,265 253,278" id="51412" class="commune" fill="steelblue" stroke-width="1" stroke="white" geotype="commune" geoname="Ognes" code_insee="51412" code_canton="5122"/><polygon points="352,140 354,143 344,145 349,151 344,155 350,161 344,162 323,171 305,163 307,161 298,156 300,153 304,154 310,151 313,139 320,139 320,142 326,143 340,136 343,139 346,138 349,141 352,140" id="51430" class="commune" fill="steelblue" stroke-width="1" stroke="white" geotype="commune" geoname="Pierre-Morains" code_insee="51430" code_canton="5122"/><polygon points="230,283 228,286 215,288 214,286 211,285 211,287 207,285 203,284 203,283 182,282 184,275 182,275 182,267 184,262 188,263 195,253 198,250 202,251 203,248 210,249 211,247 219,247 218,250 230,259 217,270 225,276 227,275 230,283" id="51432" class="commune" fill="steelblue" stroke-width="1" stroke="white" geotype="commune" geoname="Pleurs" code_insee="51432" code_canton="5122"/><polygon points="394,39 402,46 404,45 419,52 430,61 437,58 452,64 463,70 456,75 466,77 468,80 459,82 464,89 460,91 431,101 427,95 406,81 416,77 416,73 412,73 395,54 382,44 394,39" id="51435" class="commune" fill="steelblue" stroke-width="1" stroke="white" geotype="commune" geoname="Pocancy" code_insee="51435" code_canton="5122"/><polygon points="0,362 14,351 24,347 25,349 32,348 35,351 41,346 43,350 51,355 41,361 33,370 32,372 27,369 13,370 7,363 0,364 0,362" id="51443" class="commune" fill="steelblue" stroke-width="1" stroke="white" geotype="commune" geoname="Potangis" code_insee="51443" code_canton="5122"/><polygon points="365,62 380,55 401,77 393,82 384,85 383,84 386,83 380,73 371,65 367,66 365,62" id="51469" class="commune" fill="steelblue" stroke-width="1" stroke="white" geotype="commune" geoname="Rouffy" code_insee="51469" code_canton="5122"/><polygon points="138,404 134,406 134,404 128,403 122,405 122,404 116,401 102,400 102,397 99,399 100,396 94,397 94,389 91,387 96,384 101,385 104,382 109,382 114,380 114,378 116,375 125,376 124,372 128,372 129,376 132,372 135,374 139,374 146,369 149,371 147,376 150,377 157,389 155,391 152,390 149,397 143,401 139,401 138,404" id="51492" class="commune" fill="steelblue" stroke-width="1" stroke="white" geotype="commune" geoname="Saint-Just-Sauvage" code_insee="51492" code_canton="5122"/><polygon points="380,55 369,46 373,45 382,44 395,54 412,73 416,73 416,77 406,81 401,77 380,55" id="51499" class="commune" fill="steelblue" stroke-width="1" stroke="white" geotype="commune" geoname="Saint-Mard-lès-Rouffy" code_insee="51499" code_canton="5122"/><polygon points="87,319 89,320 110,325 114,324 114,322 118,328 119,327 124,332 130,342 111,349 109,350 107,348 103,347 100,341 91,334 90,337 89,333 82,332 80,326 77,328 74,325 87,319" id="51511" class="commune" fill="steelblue" stroke-width="1" stroke="white" geotype="commune" geoname="Saint-Quentin-le-Verger" code_insee="51511" code_canton="5122"/><polygon points="232,321 236,322 239,345 237,346 207,341 208,334 201,328 232,321" id="51516" class="commune" fill="steelblue" stroke-width="1" stroke="white" geotype="commune" geoname="Saint-Saturnin" code_insee="51516" code_canton="5122"/><polygon points="107,348 106,351 108,355 105,356 108,362 106,362 112,369 114,378 114,380 109,382 104,382 101,385 96,384 88,379 92,379 89,379 82,371 79,372 75,365 69,367 68,363 67,361 74,359 68,354 85,345 81,341 88,340 90,337 91,334 100,341 103,347 107,348" id="51524" class="commune" fill="steelblue" stroke-width="1" stroke="white" geotype="commune" geoname="Saron-sur-Aube" code_insee="51524" code_canton="5122"/><polygon points="278,103 271,107 270,111 266,111 262,109 258,110 252,110 242,103 232,99 246,97 240,95 242,93 249,97 275,94 276,100 274,100 278,103" id="51558" class="commune" fill="steelblue" stroke-width="1" stroke="white" geotype="commune" geoname="Soulières" code_insee="51558" code_canton="5122"/><polygon points="201,328 192,324 191,323 180,320 183,316 195,305 208,300 213,305 230,315 234,318 232,321 201,328" id="51565" class="commune" fill="steelblue" stroke-width="1" stroke="white" geotype="commune" geoname="Thaas" code_insee="51565" code_canton="5122"/><polygon points="354,143 352,140 351,139 361,136 358,134 361,133 349,127 360,122 367,119 371,117 378,123 382,120 388,127 391,125 397,131 413,125 418,131 403,139 401,137 396,139 397,140 383,145 376,146 374,141 367,144 363,139 354,143" id="51578" class="commune" fill="steelblue" stroke-width="1" stroke="white" geotype="commune" geoname="Trécon" code_insee="51578" code_canton="5122"/><polygon points="425,102 431,101 460,91 465,97 443,105 446,108 438,112 436,110 429,113 413,125 397,131 391,125 404,114 404,109 425,102" id="51603" class="commune" fill="steelblue" stroke-width="1" stroke="white" geotype="commune" geoname="Vélye" code_insee="51603" code_canton="5122"/><polygon points="221,175 221,169 231,167 229,164 206,152 205,148 195,146 195,144 209,137 207,135 210,134 213,135 220,132 225,137 233,134 246,130 249,133 252,133 260,131 262,128 266,129 272,137 264,143 265,149 260,151 262,153 244,159 237,163 238,173 231,173 231,176 221,175" id="51611" class="commune" fill="steelblue" stroke-width="1" stroke="white" geotype="commune" geoname="Vert-Toulon" code_insee="51611" code_canton="5122"/><polygon points="232,99 229,97 224,99 212,90 215,87 203,82 206,80 222,87 245,82 257,85 261,84 263,87 267,86 274,87 280,83 284,86 288,82 295,85 301,82 307,82 307,80 328,84 333,87 330,88 338,94 341,100 340,100 343,101 340,105 350,114 345,116 360,122 349,127 347,125 340,127 326,116 327,112 316,110 313,113 299,108 299,122 294,125 295,119 292,114 289,113 284,114 278,103 274,100 276,100 275,94 249,97 242,93 240,95 246,97 232,99" id="51612" class="commune" fill="steelblue" stroke-width="1" stroke="white" geotype="commune" geoname="Vertus" code_insee="51612" code_canton="5122"/><polygon points="371,117 367,119 346,99 349,98 348,96 337,87 333,87 328,84 335,82 338,78 338,76 340,75 344,77 350,76 372,70 367,66 371,65 380,73 386,83 383,84 384,85 371,87 374,94 369,95 376,97 378,100 373,101 375,104 378,107 372,109 376,115 371,117" id="51627" class="commune" fill="steelblue" stroke-width="1" stroke="white" geotype="commune" geoname="Villeneuve-Renneville-Chevigny" code_insee="51627" code_canton="5122"/><polygon points="245,82 237,72 236,67 242,70 250,67 258,72 270,75 272,82 267,86 263,87 261,84 257,85 245,82" id="51630" class="commune" fill="steelblue" stroke-width="1" stroke="white" geotype="commune" geoname="Villers-aux-Bois" code_insee="51630" code_canton="5122"/><polygon points="415,177 416,172 408,168 411,162 406,162 398,149 391,151 383,145 397,140 396,139 401,137 403,139 418,131 426,134 430,132 433,134 442,130 467,128 449,143 454,147 448,153 453,157 447,160 449,162 438,168 443,171 429,177 424,173 415,177" id="51638" class="commune" fill="steelblue" stroke-width="1" stroke="white" geotype="commune" geoname="Villeseneux" code_insee="51638" code_canton="5122"/><polygon points="51,355 67,361 68,363 62,364 61,373 54,373 55,377 48,379 48,382 33,370 41,361 51,355" id="51642" class="commune" fill="steelblue" stroke-width="1" stroke="white" geotype="commune" geoname="Villiers-aux-Corneilles" code_insee="51642" code_canton="5122"/><polygon points="367,119 360,122 345,116 350,114 340,105 343,101 340,100 341,100 338,94 330,88 333,87 337,87 348,96 349,98 346,99 367,119" id="51651" class="commune" fill="steelblue" stroke-width="1" stroke="white" geotype="commune" geoname="Voipreux" code_insee="51651" code_canton="5122"/><polygon points="237,346 236,354 228,363 231,363 230,367 223,367 222,364 218,364 217,365 213,358 214,347 207,346 207,341 237,346" id="51652" class="commune" fill="steelblue" stroke-width="1" stroke="white" geotype="commune" geoname="Vouarces" code_insee="51652" code_canton="5122"/><polygon points="431,101 425,102 420,97 411,99 409,95 395,99 390,97 389,94 386,95 388,100 375,104 373,101 378,100 376,97 369,95 374,94 371,87 384,85 393,82 401,77 406,81 427,95 431,101" id="51655" class="commune" fill="steelblue" stroke-width="1" stroke="white" geotype="commune" geoname="Vouzy" code_insee="51655" code_canton="5122"/></svg>