<?xml version="1.0" encoding="utf-8"?>
<svg version="1.1" id="svgmap" xmlns="http://www.w3.org/2000/svg" xmlns:xlink="http://www.w3.org/1999/xlink" x="0px" y="0px" width="100%" height="100%" viewBox="0 0 500 297">
<polygon points="365,113 354,128 334,136 327,144 321,145 318,142 321,136 311,135 313,126 317,126 319,123 345,124 348,121 356,120 355,117 361,113 365,113" id="52002" class="commune" fill="steelblue" stroke-width="1" stroke="white" geotype="commune" geoname="Aigremont" code_insee="52002" code_canton="5202"/><polygon points="140,195 136,196 126,171 119,166 122,165 125,168 131,162 136,165 148,157 157,161 154,168 163,170 165,174 159,177 158,184 148,189 150,192 140,195" id="52033" class="commune" fill="steelblue" stroke-width="1" stroke="white" geotype="commune" geoname="Avrecourt" code_insee="52033" code_canton="5202"/><polygon points="297,161 312,161 317,169 323,170 339,168 340,165 346,163 355,166 370,162 387,164 396,178 392,181 396,183 396,190 412,192 414,195 417,202 425,202 419,216 426,224 420,228 406,232 396,230 360,234 355,233 347,237 341,234 335,239 331,234 333,230 315,225 307,217 307,216 309,211 305,208 309,207 305,202 287,201 277,191 268,190 270,185 274,185 271,181 297,161" id="52060" class="commune" fill="steelblue" stroke-width="1" stroke="white" geotype="commune" geoname="Bourbonne-les-Bains" code_insee="52060" code_canton="5202"/><polygon points="88,63 86,65 86,67 84,69 76,70 74,68 67,66 61,61 57,60 59,50 56,50 56,43 50,32 59,33 62,33 68,39 73,40 77,52 81,52 88,63" id="52085" class="commune" fill="steelblue" stroke-width="1" stroke="white" geotype="commune" geoname="Buxières-lès-Clefmont" code_insee="52085" code_canton="5202"/><polygon points="189,241 188,242 173,251 161,244 148,240 136,231 137,226 140,226 137,223 148,214 144,210 150,209 154,208 156,214 164,216 167,219 165,223 174,233 184,233 184,238 190,238 189,241" id="52089" class="commune" fill="steelblue" stroke-width="1" stroke="white" geotype="commune" geoname="Celles-en-Bassigny" code_insee="52089" code_canton="5202"/><polygon points="68,158 72,162 71,169 74,175 71,177 60,181 58,178 53,179 46,188 43,188 45,185 38,184 25,176 17,166 16,157 17,155 30,155 35,157 36,160 44,157 47,162 55,159 62,163 68,158" id="52120" class="commune" fill="steelblue" stroke-width="1" stroke="white" geotype="commune" geoname="Chauffourt" code_insee="52120" code_canton="5202"/><polygon points="164,81 181,76 182,66 189,65 195,68 195,64 197,63 206,66 205,70 184,85 184,95 191,109 182,116 169,113 168,103 158,99 158,96 168,92 162,86 164,81" id="52127" class="commune" fill="steelblue" stroke-width="1" stroke="white" geotype="commune" geoname="Choiseul" code_insee="52127" code_canton="5202"/><polygon points="124,56 125,56 124,56 124,56 125,57 125,58 125,57 118,57 117,58 116,59 112,60 111,58 111,57 110,57 110,56 105,57 105,56 104,56 101,52 102,38 97,32 85,33 79,36 77,33 62,33 59,33 56,28 66,11 64,7 66,0 79,6 105,5 120,14 114,24 119,26 112,32 118,41 123,40 133,43 142,42 147,39 155,41 158,35 165,34 165,32 173,32 174,34 165,38 164,44 156,43 145,45 144,50 138,50 133,54 122,53 124,56" id="52132" class="commune" fill="steelblue" stroke-width="1" stroke="white" geotype="commune" geoname="Clefmont" code_insee="52132" code_canton="5202"/><polygon points="307,217 315,225 333,230 331,234 330,239 325,239 317,243 319,251 294,252 273,263 267,264 271,258 263,255 270,248 280,249 289,235 303,228 302,221 307,217" id="52136" class="commune" fill="steelblue" stroke-width="1" stroke="white" geotype="commune" geoname="Coiffy-le-Haut" code_insee="52136" code_canton="5202"/><polygon points="86,67 86,65 88,63 89,63 89,62 92,60 93,60 94,60 95,59 95,59 97,58 97,58 102,57 104,56 105,56 105,57 110,56 110,57 111,57 111,58 112,60 116,59 117,58 118,57 125,57 125,58 125,57 124,56 124,56 125,56 124,56 125,56 126,57 126,60 127,61 127,61 127,62 129,62 131,63 131,66 133,66 136,66 136,68 140,68 140,69 143,70 134,79 133,81 127,86 125,86 123,85 121,85 115,84 115,84 114,82 111,81 113,80 115,78 115,77 112,78 112,77 112,77 111,78 110,77 108,77 108,77 106,77 106,77 107,77 107,76 106,76 105,74 104,74 105,72 104,72 104,72 104,72 104,71 101,71 101,70 100,70 99,71 99,70 96,69 94,68 91,67 90,67 86,67" id="52161" class="commune" fill="steelblue" stroke-width="1" stroke="white" geotype="commune" geoname="Daillecourt" code_insee="52161" code_canton="5202"/><polygon points="218,141 220,145 211,152 214,160 219,162 224,161 226,166 226,171 217,175 219,182 216,185 211,182 209,185 204,182 201,183 177,172 165,174 163,170 154,168 157,161 171,153 171,150 184,147 188,143 197,144 200,139 208,142 218,141" id="52162" class="commune" fill="steelblue" stroke-width="1" stroke="white" geotype="commune" geoname="Dammartin-sur-Meuse" code_insee="52162" code_canton="5202"/><polygon points="232,197 240,192 238,189 244,186 246,180 264,182 268,190 262,199 252,203 247,202 248,210 235,205 232,197" id="52164" class="commune" fill="steelblue" stroke-width="1" stroke="white" geotype="commune" geoname="Damrémont" code_insee="52164" code_canton="5202"/><polygon points="500,232 496,240 491,243 490,241 478,242 461,237 457,239 449,229 447,221 457,212 453,210 467,209 474,196 478,197 480,203 491,210 494,217 493,222 499,222 495,227 500,232" id="52185" class="commune" fill="steelblue" stroke-width="1" stroke="white" geotype="commune" geoname="Enfonvelle" code_insee="52185" code_canton="5202"/><polygon points="71,177 77,185 74,187 72,192 75,193 72,197 78,202 75,202 77,205 81,205 84,209 81,210 77,209 71,211 71,207 64,207 65,204 59,205 43,200 48,193 46,188 53,179 58,178 60,181 71,177" id="52207" class="commune" fill="steelblue" stroke-width="1" stroke="white" geotype="commune" geoname="Frécourt" code_insee="52207" code_canton="5202"/><polygon points="450,174 452,167 455,166 455,173 463,173 464,176 458,178 464,187 462,192 466,194 466,197 474,196 467,209 453,210 457,212 447,221 449,229 439,230 436,233 420,228 426,224 419,216 425,202 417,202 414,195 424,185 441,185 450,174" id="52208" class="commune" fill="steelblue" stroke-width="1" stroke="white" geotype="commune" geoname="Fresnes-sur-Apance" code_insee="52208" code_canton="5202"/><polygon points="39,89 45,85 52,82 56,84 61,84 63,85 64,84 75,90 80,97 80,109 85,109 95,115 82,129 73,130 65,127 56,127 47,128 23,118 16,106 12,105 23,97 27,96 27,99 37,95 39,89" id="52248" class="commune" fill="steelblue" stroke-width="1" stroke="white" geotype="commune" geoname="Is-en-Bassigny" code_insee="52248" code_canton="5202"/><polygon points="251,217 248,210 247,202 252,203 262,199 268,190 277,191 287,201 305,202 309,207 305,208 309,211 307,216 286,224 278,223 275,218 268,223 261,223 251,217" id="52264" class="commune" fill="steelblue" stroke-width="1" stroke="white" geotype="commune" geoname="Laneuvelle" code_insee="52264" code_canton="5202"/><polygon points="321,87 330,90 329,98 349,92 373,108 373,113 384,111 385,109 385,120 378,120 374,115 365,113 361,113 355,117 356,120 348,121 345,124 319,123 317,126 313,126 311,135 321,136 318,142 321,145 320,153 316,156 313,154 310,155 291,146 289,143 292,141 288,139 295,136 292,123 297,126 298,111 318,99 321,87" id="52273" class="commune" fill="steelblue" stroke-width="1" stroke="white" geotype="commune" geoname="Larivière-Arnoncourt" code_insee="52273" code_canton="5202"/><polygon points="167,219 174,217 173,215 185,213 195,221 192,223 195,229 203,230 203,235 189,241 190,238 184,238 184,233 174,233 165,223 167,219" id="52275" class="commune" fill="steelblue" stroke-width="1" stroke="white" geotype="commune" geoname="Lavernoy" code_insee="52275" code_canton="5202"/><polygon points="125,94 129,96 132,90 140,88 140,95 145,96 147,100 137,109 127,111 123,120 107,116 111,110 106,106 125,94" id="52277" class="commune" fill="steelblue" stroke-width="1" stroke="white" geotype="commune" geoname="Lavilleneuve" code_insee="52277" code_canton="5202"/><polygon points="192,265 193,269 189,272 193,273 189,277 184,278 180,275 182,277 178,279 170,273 162,273 153,279 145,279 143,273 139,272 135,267 136,263 119,255 124,251 117,250 119,244 115,242 114,234 126,230 136,231 148,240 161,244 173,251 188,242 192,249 200,257 192,265" id="52311" class="commune" fill="steelblue" stroke-width="1" stroke="white" geotype="commune" geoname="Marcilly-en-Bassigny" code_insee="52311" code_canton="5202"/><polygon points="457,239 454,246 445,254 448,257 430,273 434,283 425,282 426,276 410,264 406,257 409,242 404,237 406,232 420,228 436,233 439,230 449,229 457,239" id="52318" class="commune" fill="steelblue" stroke-width="1" stroke="white" geotype="commune" geoname="Melay" code_insee="52318" code_canton="5202"/><polygon points="331,234 335,239 341,234 347,237 355,233 360,234 360,239 346,244 336,253 334,247 319,251 317,243 325,239 330,239 331,234" id="52328" class="commune" fill="steelblue" stroke-width="1" stroke="white" geotype="commune" geoname="Montcharvot" code_insee="52328" code_canton="5202"/><polygon points="117,208 117,210 113,211 109,209 110,207 109,207 110,203 105,200 111,199 106,196 103,185 105,173 108,170 106,169 100,174 86,170 82,159 76,163 72,162 68,158 57,152 56,147 51,147 50,141 57,140 53,136 63,133 60,127 56,127 65,127 73,130 82,129 95,115 99,114 102,117 107,116 123,120 127,111 137,109 147,100 145,96 140,95 140,88 132,90 129,96 125,94 120,92 127,86 133,81 134,79 152,80 155,83 160,80 164,81 162,86 168,92 158,96 158,99 168,103 169,113 182,116 191,109 198,106 199,100 218,98 228,94 234,95 232,99 238,101 236,103 239,107 242,108 244,118 231,123 218,141 208,142 200,139 197,144 188,143 184,147 171,150 171,153 157,161 148,157 136,165 131,162 125,168 122,165 119,166 126,171 136,196 119,199 117,208" id="52332" class="commune" fill="steelblue" stroke-width="1" stroke="white" geotype="commune" geoname="Val-de-Meuse" code_insee="52332" code_canton="5202"/><polygon points="370,283 363,283 383,271 397,269 399,266 405,272 419,279 417,283 424,286 408,287 395,288 384,284 376,287 370,283" id="52350" class="commune" fill="steelblue" stroke-width="1" stroke="white" geotype="commune" geoname="Neuvelle-lès-Voisey" code_insee="52350" code_canton="5202"/><polygon points="65,84 57,84 52,82 52,80 60,80 65,79 70,80 75,79 75,75 78,74 76,70 84,69 86,67 90,67 91,67 94,68 96,69 99,70 99,71 100,70 101,70 101,71 104,71 104,72 104,72 104,72 105,72 104,74 105,74 106,76 107,76 107,77 106,77 106,77 108,77 108,77 110,77 111,78 112,77 112,77 112,78 115,77 115,78 113,80 111,81 114,82 115,84 115,84 121,85 123,85 125,86 127,86 120,92 107,93 106,90 83,90 77,88 76,83 65,84" id="52358" class="commune" fill="steelblue" stroke-width="1" stroke="white" geotype="commune" geoname="Noyers" code_insee="52358" code_canton="5202"/><polygon points="310,155 307,161 297,158 297,156 272,152 265,148 261,153 254,151 249,153 242,148 235,146 234,149 232,146 230,147 230,144 226,148 225,145 220,145 218,141 231,123 244,118 242,108 239,107 236,103 238,101 232,99 234,95 253,81 258,79 264,79 264,75 279,83 285,76 283,74 277,72 286,71 286,80 283,81 286,83 293,79 313,88 321,87 318,99 298,111 297,126 292,123 295,136 288,139 292,141 289,143 291,146 310,155" id="52377" class="commune" fill="steelblue" stroke-width="1" stroke="white" geotype="commune" geoname="Parnoy-en-Bassigny" code_insee="52377" code_canton="5202"/><polygon points="104,56 102,57 97,58 97,58 95,59 95,59 94,60 93,60 92,60 89,62 89,63 88,63 81,52 77,52 73,40 68,39 62,33 77,33 79,36 85,33 97,32 102,38 101,52 104,56" id="52385" class="commune" fill="steelblue" stroke-width="1" stroke="white" geotype="commune" geoname="Perrusse" code_insee="52385" code_canton="5202"/><polygon points="297,158 297,161 271,181 274,185 270,185 268,190 264,182 246,180 244,186 238,189 240,192 232,197 216,198 212,195 216,185 219,182 217,175 226,171 226,166 224,161 219,162 214,160 211,152 220,145 225,145 226,148 230,144 230,147 232,146 234,149 235,146 242,148 249,153 254,151 261,153 265,148 272,152 297,156 297,158" id="52400" class="commune" fill="steelblue" stroke-width="1" stroke="white" geotype="commune" geoname="Châtelet-sur-Meuse" code_insee="52400" code_canton="5202"/><polygon points="185,213 173,215 174,217 167,219 164,216 156,214 154,208 150,209 150,206 153,205 148,204 144,200 147,197 140,195 150,192 148,189 158,184 164,183 191,202 197,203 183,211 185,213" id="52415" class="commune" fill="steelblue" stroke-width="1" stroke="white" geotype="commune" geoname="Rançonnières" code_insee="52415" code_canton="5202"/><polygon points="64,84 65,84 76,83 77,88 83,90 106,90 107,93 120,92 125,94 106,106 111,110 107,116 102,117 99,114 95,115 85,109 80,109 80,97 75,90 64,84" id="52416" class="commune" fill="steelblue" stroke-width="1" stroke="white" geotype="commune" geoname="Rangecourt" code_insee="52416" code_canton="5202"/><polygon points="23,118 47,128 56,127 60,127 63,133 53,136 57,140 50,141 51,147 56,147 57,152 68,158 62,163 55,159 47,162 44,157 36,160 35,157 30,155 17,155 10,149 7,140 0,135 11,123 23,118" id="52461" class="commune" fill="steelblue" stroke-width="1" stroke="white" geotype="commune" geoname="Sarrey" code_insee="52461" code_canton="5202"/><polygon points="158,184 159,177 165,174 177,172 201,183 204,182 209,185 211,182 216,185 212,195 216,198 197,203 191,202 164,183 158,184" id="52465" class="commune" fill="steelblue" stroke-width="1" stroke="white" geotype="commune" geoname="Saulxures" code_insee="52465" code_canton="5202"/><polygon points="396,138 404,144 403,151 402,155 387,164 370,162 355,166 346,163 340,165 339,168 323,170 317,169 312,161 297,161 297,158 307,161 310,155 313,154 316,156 320,153 321,145 327,144 334,136 354,128 365,113 374,115 378,120 385,120 390,121 395,130 396,138" id="52470" class="commune" fill="steelblue" stroke-width="1" stroke="white" geotype="commune" geoname="Serqueux" code_insee="52470" code_canton="5202"/><polygon points="248,210 251,217 244,216 243,218 246,229 244,234 235,234 227,230 220,232 203,230 195,229 192,223 195,221 185,213 183,211 197,203 216,198 232,197 235,205 248,210" id="52520" class="commune" fill="steelblue" stroke-width="1" stroke="white" geotype="commune" geoname="Vicq" code_insee="52520" code_canton="5202"/><polygon points="333,256 336,253 346,244 360,239 360,234 396,230 406,232 404,237 409,242 406,257 410,264 426,276 425,282 434,283 437,285 432,285 434,287 427,291 436,288 438,285 437,291 415,295 404,296 408,287 424,286 417,283 419,279 405,272 399,266 397,269 383,271 363,283 370,283 363,291 358,290 353,294 350,293 344,297 339,296 335,291 333,293 328,292 329,287 333,289 325,277 329,265 333,256" id="52544" class="commune" fill="steelblue" stroke-width="1" stroke="white" geotype="commune" geoname="Voisey" code_insee="52544" code_canton="5202"/></svg>