<?xml version="1.0" encoding="utf-8"?>
<svg version="1.1" id="svgmap" xmlns="http://www.w3.org/2000/svg" xmlns:xlink="http://www.w3.org/1999/xlink" x="0px" y="0px" width="100%" height="100%" viewBox="0 0 500 379">
<polygon points="224,168 210,174 205,173 207,172 193,154 205,153 219,164 224,168" id="52005" class="commune" fill="steelblue" stroke-width="1" stroke="white" geotype="commune" geoname="Aizanville" code_insee="52005" code_canton="5204"/><polygon points="304,345 299,340 288,337 273,325 262,313 260,306 262,309 267,307 272,308 276,302 283,306 282,299 288,300 288,298 290,300 292,296 300,293 311,294 306,288 307,284 313,285 314,275 334,273 341,267 347,273 368,272 352,308 369,308 373,309 367,320 342,329 333,328 331,332 323,334 326,338 306,347 304,345" id="52017" class="commune" fill="steelblue" stroke-width="1" stroke="white" geotype="commune" geoname="Arc-en-Barrois" code_insee="52017" code_canton="5204"/><polygon points="237,375 239,372 237,368 238,362 235,357 230,354 218,335 233,314 230,300 238,301 249,295 251,297 260,306 262,313 273,325 288,337 299,340 304,345 305,350 299,360 296,363 282,365 269,372 260,379 248,379 237,375" id="52022" class="commune" fill="steelblue" stroke-width="1" stroke="white" geotype="commune" geoname="Aubepierre-sur-Aube" code_insee="52022" code_canton="5204"/><polygon points="270,180 264,175 264,166 256,161 258,157 248,151 240,139 233,135 248,124 261,121 272,130 286,134 289,140 307,143 310,143 309,138 316,142 314,142 326,155 320,171 310,174 299,172 291,173 284,177 282,176 270,180" id="52031" class="commune" fill="steelblue" stroke-width="1" stroke="white" geotype="commune" geoname="Autreville-sur-la-Renne" code_insee="52031" code_canton="5204"/><polygon points="322,122 322,119 309,119 304,115 288,111 290,106 307,98 313,98 323,106 326,119 331,121 322,122" id="52053" class="commune" fill="steelblue" stroke-width="1" stroke="white" geotype="commune" geoname="Blaisy" code_insee="52053" code_canton="5204"/><polygon points="284,202 288,199 293,201 295,197 305,194 307,197 313,197 329,205 330,217 337,225 332,230 327,225 327,227 323,224 317,227 309,219 293,218 293,210 290,209 292,205 284,202" id="52056" class="commune" fill="steelblue" stroke-width="1" stroke="white" geotype="commune" geoname="Blessonville" code_insee="52056" code_canton="5204"/><polygon points="224,168 219,164 220,162 239,155 243,151 245,153 248,151 258,157 256,161 264,166 264,175 270,180 265,189 260,189 255,185 240,180 224,168" id="52069" class="commune" fill="steelblue" stroke-width="1" stroke="white" geotype="commune" geoname="Braux-le-Châtel" code_insee="52069" code_canton="5204"/><polygon points="270,180 282,176 284,177 291,173 299,172 310,174 310,180 307,180 310,187 301,190 305,194 295,197 293,201 288,199 284,202 284,202 269,196 260,189 265,189 270,180" id="52076" class="commune" fill="steelblue" stroke-width="1" stroke="white" geotype="commune" geoname="Bricon" code_insee="52076" code_canton="5204"/><polygon points="368,272 375,271 376,261 378,263 384,261 395,267 388,274 388,291 393,292 394,299 398,298 398,311 395,320 408,321 406,324 399,325 382,321 381,323 377,321 374,322 370,318 367,320 373,309 369,308 352,308 368,272" id="52082" class="commune" fill="steelblue" stroke-width="1" stroke="white" geotype="commune" geoname="Bugnières" code_insee="52082" code_canton="5204"/><polygon points="153,214 168,202 172,204 189,197 195,198 198,196 206,196 209,200 214,199 218,198 246,207 249,208 250,205 261,213 263,211 276,212 287,208 289,204 284,202 284,202 292,205 290,209 293,210 293,218 309,219 317,227 323,224 327,227 327,225 332,230 344,237 339,242 342,248 334,249 333,251 341,255 337,256 332,263 319,266 310,264 303,260 294,261 285,259 278,260 277,262 276,261 260,263 242,268 243,271 226,281 199,277 207,271 203,268 214,263 207,261 196,268 190,267 187,264 189,262 187,259 183,258 183,256 174,255 170,249 171,248 163,240 166,239 167,239 163,239 157,233 161,221 153,214" id="52114" class="commune" fill="steelblue" stroke-width="1" stroke="white" geotype="commune" geoname="Châteauvillain" code_insee="52114" code_canton="5204"/><polygon points="173,182 161,180 154,172 155,169 154,158 167,161 168,159 193,154 207,172 205,173 210,174 212,178 173,182" id="52130" class="commune" fill="steelblue" stroke-width="1" stroke="white" geotype="commune" geoname="Cirfontaines-en-Azois" code_insee="52130" code_canton="5204"/><polygon points="312,57 303,56 274,60 273,48 273,42 263,31 257,31 245,28 244,39 232,47 229,61 234,63 233,61 236,63 245,62 248,68 240,74 248,76 247,78 244,79 242,83 233,87 226,85 212,90 208,88 193,97 189,92 180,94 175,93 175,92 182,87 181,79 177,76 162,74 157,67 159,64 172,61 167,52 160,53 166,48 165,45 174,44 207,34 204,25 208,20 203,9 207,6 212,2 225,5 226,8 229,10 251,11 258,10 263,7 271,9 274,8 275,9 283,8 288,8 289,11 293,7 298,7 295,9 299,11 308,11 308,15 304,21 300,22 300,26 306,30 305,33 295,44 312,57" id="52140" class="commune" fill="steelblue" stroke-width="1" stroke="white" geotype="commune" geoname="Colombey-les-Deux-Églises" code_insee="52140" code_canton="5204"/><polygon points="230,300 227,299 226,281 243,271 242,268 260,263 277,272 260,286 263,287 262,294 259,297 251,297 249,295 238,301 230,300" id="52146" class="commune" fill="steelblue" stroke-width="1" stroke="white" geotype="commune" geoname="Coupray" code_insee="52146" code_canton="5204"/><polygon points="310,264 307,275 314,275 313,285 307,284 306,288 311,294 300,293 292,296 290,300 288,298 288,300 282,299 283,306 276,302 272,308 267,307 262,309 260,306 251,297 259,297 262,294 263,287 260,286 277,272 260,263 276,261 277,262 278,260 285,259 294,261 303,260 310,264" id="52151" class="commune" fill="steelblue" stroke-width="1" stroke="white" geotype="commune" geoname="Cour-l'Évêque" code_insee="52151" code_canton="5204"/><polygon points="244,39 245,28 257,31 263,31 273,42 273,48 258,41 244,39" id="52157" class="commune" fill="steelblue" stroke-width="1" stroke="white" geotype="commune" geoname="Curmont" code_insee="52157" code_canton="5204"/><polygon points="227,299 230,300 233,314 218,335 216,332 208,330 187,333 177,348 178,353 175,353 154,343 151,339 152,334 160,329 166,331 166,325 173,321 182,313 174,303 189,300 190,297 195,299 202,293 227,299" id="52165" class="commune" fill="steelblue" stroke-width="1" stroke="white" geotype="commune" geoname="Dancevoir" code_insee="52165" code_canton="5204"/><polygon points="153,214 161,221 157,233 163,239 167,239 166,239 163,240 160,238 156,242 142,245 129,242 116,246 113,244 115,235 108,227 89,226 88,219 107,218 108,220 113,217 140,216 148,212 149,215 153,214" id="52168" class="commune" fill="steelblue" stroke-width="1" stroke="white" geotype="commune" geoname="Dinteville" code_insee="52168" code_canton="5204"/><polygon points="406,324 396,332 396,337 390,338 373,354 363,355 340,369 330,371 324,372 321,368 303,363 299,360 305,350 304,345 306,347 326,338 323,334 331,332 333,328 342,329 367,320 370,318 374,322 377,321 381,323 382,321 399,325 406,324" id="52220" class="commune" fill="steelblue" stroke-width="1" stroke="white" geotype="commune" geoname="Giey-sur-Aujon" code_insee="52220" code_canton="5204"/><polygon points="261,121 260,118 265,114 273,113 288,111 304,115 309,119 322,119 322,122 323,125 329,125 334,137 316,142 309,138 310,143 307,143 289,140 286,134 272,130 261,121" id="52221" class="commune" fill="steelblue" stroke-width="1" stroke="white" geotype="commune" geoname="Gillancourt" code_insee="52221" code_canton="5204"/><polygon points="303,56 312,57 304,61 297,75 313,98 307,98 290,106 288,111 273,113 276,107 272,104 253,106 249,104 255,98 266,98 278,90 275,86 282,85 281,83 288,80 303,56" id="52253" class="commune" fill="steelblue" stroke-width="1" stroke="white" geotype="commune" geoname="Juzennecourt" code_insee="52253" code_canton="5204"/><polygon points="233,87 242,83 244,79 247,78 248,76 240,74 248,68 251,72 274,60 303,56 288,80 281,83 282,85 275,86 278,90 266,98 255,98 249,104 245,98 240,96 241,91 233,87" id="52254" class="commune" fill="steelblue" stroke-width="1" stroke="white" geotype="commune" geoname="Lachapelle-en-Blaisy" code_insee="52254" code_canton="5204"/><polygon points="65,157 78,161 92,161 98,163 106,163 114,166 142,171 155,169 154,172 161,180 173,182 165,186 155,188 156,190 152,193 146,192 142,195 137,192 93,198 72,191 57,190 51,178 43,179 40,174 51,173 59,168 65,157" id="52258" class="commune" fill="steelblue" stroke-width="1" stroke="white" geotype="commune" geoname="Laferté-sur-Aube" code_insee="52258" code_canton="5204"/><polygon points="248,68 245,62 236,63 233,61 234,63 229,61 232,47 244,39 258,41 273,48 274,60 251,72 248,68" id="52262" class="commune" fill="steelblue" stroke-width="1" stroke="white" geotype="commune" geoname="Lamothe-en-Blaisy" code_insee="52262" code_canton="5204"/><polygon points="61,221 71,225 89,226 108,227 115,235 113,244 116,246 116,255 79,258 55,254 57,253 52,252 41,244 43,243 50,244 42,237 47,230 56,227 57,221 61,221" id="52272" class="commune" fill="steelblue" stroke-width="1" stroke="white" geotype="commune" geoname="Lanty-sur-Aube" code_insee="52272" code_canton="5204"/><polygon points="226,281 227,299 202,293 195,299 190,297 189,300 174,303 164,296 149,296 142,293 142,297 135,298 127,295 119,295 118,292 113,294 112,287 123,274 126,275 134,272 119,265 119,257 116,255 116,246 129,242 142,245 156,242 160,238 163,240 171,248 170,249 174,255 183,256 183,258 187,259 189,262 187,264 190,267 196,268 207,261 214,263 203,268 207,271 199,277 226,281" id="52274" class="commune" fill="steelblue" stroke-width="1" stroke="white" geotype="commune" geoname="Latrecey-Ormoy-sur-Aube" code_insee="52274" code_canton="5204"/><polygon points="210,127 210,126 223,123 232,110 249,104 253,106 272,104 276,107 273,113 265,114 260,118 261,121 248,124 233,135 224,135 216,132 210,127" id="52278" class="commune" fill="steelblue" stroke-width="1" stroke="white" geotype="commune" geoname="Lavilleneuve-au-Roi" code_insee="52278" code_canton="5204"/><polygon points="480,249 482,252 472,257 475,261 469,268 453,277 455,281 452,283 452,290 446,293 437,305 431,312 418,304 413,311 398,311 398,298 394,299 393,292 388,291 388,274 395,267 384,261 378,263 376,261 384,255 390,255 409,263 437,256 447,256 452,252 448,250 450,250 459,249 466,253 474,249 480,249" id="52282" class="commune" fill="steelblue" stroke-width="1" stroke="white" geotype="commune" geoname="Leffonds" code_insee="52282" code_canton="5204"/><polygon points="151,148 161,144 166,137 169,138 176,141 178,137 182,138 181,136 192,130 194,125 189,120 195,120 191,118 206,121 210,126 210,127 201,135 199,141 200,144 204,143 202,152 205,153 193,154 168,159 167,161 154,158 151,148" id="52308" class="commune" fill="steelblue" stroke-width="1" stroke="white" geotype="commune" geoname="Maranville" code_insee="52308" code_canton="5204"/><polygon points="210,126 206,121 191,118 198,114 204,114 203,111 197,112 191,110 183,102 180,94 189,92 193,97 208,88 212,90 226,85 233,87 241,91 240,96 245,98 249,104 232,110 223,123 210,126" id="52330" class="commune" fill="steelblue" stroke-width="1" stroke="white" geotype="commune" geoname="Montheries" code_insee="52330" code_canton="5204"/><polygon points="210,174 224,168 240,180 255,185 260,189 269,196 284,202 289,204 287,208 276,212 263,211 261,213 250,205 249,208 246,207 218,198 214,199 216,182 212,178 210,174" id="52365" class="commune" fill="steelblue" stroke-width="1" stroke="white" geotype="commune" geoname="Orges" code_insee="52365" code_canton="5204"/><polygon points="156,190 155,188 165,186 173,182 212,178 216,182 214,199 209,200 206,196 198,196 195,198 189,197 172,204 168,202 156,190" id="52399" class="commune" fill="steelblue" stroke-width="1" stroke="white" geotype="commune" geoname="Pont-la-Ville" code_insee="52399" code_canton="5204"/><polygon points="166,104 175,93 180,94 183,102 191,110 197,112 203,111 204,114 198,114 191,118 195,120 189,120 194,125 192,130 181,136 182,138 178,137 176,141 169,138 170,134 157,129 160,123 156,119 157,114 170,107 166,104" id="52419" class="commune" fill="steelblue" stroke-width="1" stroke="white" geotype="commune" geoname="Rennepont" code_insee="52419" code_canton="5204"/><polygon points="376,261 375,271 368,272 347,273 341,267 334,273 314,275 307,275 310,264 319,266 332,263 337,256 341,255 333,251 334,249 342,248 339,242 344,237 332,230 337,225 348,227 353,239 358,239 368,234 368,228 382,227 379,231 377,233 382,236 377,239 380,241 378,244 378,247 383,247 385,250 394,250 393,255 390,255 384,255 376,261" id="52422" class="commune" fill="steelblue" stroke-width="1" stroke="white" geotype="commune" geoname="Richebourg" code_insee="52422" code_canton="5204"/><polygon points="165,45 164,43 167,41 164,36 174,34 179,28 172,24 163,14 170,2 178,0 193,4 204,3 207,6 203,9 208,20 204,25 207,34 174,44 165,45" id="52426" class="commune" fill="steelblue" stroke-width="1" stroke="white" geotype="commune" geoname="Rizaucourt-Buchey" code_insee="52426" code_canton="5204"/><polygon points="89,226 71,225 61,221 66,215 75,218 90,216 88,199 93,198 137,192 142,195 146,192 152,193 156,190 168,202 153,214 149,215 148,212 140,216 113,217 108,220 107,218 88,219 89,226" id="52474" class="commune" fill="steelblue" stroke-width="1" stroke="white" geotype="commune" geoname="Silvarouvres" code_insee="52474" code_canton="5204"/><polygon points="210,127 216,132 224,135 233,135 240,139 248,151 245,153 243,151 239,155 220,162 219,164 205,153 202,152 204,143 200,144 199,141 201,135 210,127" id="52506" class="commune" fill="steelblue" stroke-width="1" stroke="white" geotype="commune" geoname="Vaudrémont" code_insee="52506" code_canton="5204"/><polygon points="3,194 0,192 10,189 17,190 29,186 42,184 43,179 51,178 57,190 72,191 93,198 88,199 90,216 75,218 66,215 61,221 57,221 47,218 37,204 29,198 3,194" id="52525" class="commune" fill="steelblue" stroke-width="1" stroke="white" geotype="commune" geoname="Villars-en-Azois" code_insee="52525" code_canton="5204"/><polygon points="499,273 500,282 494,289 482,292 480,296 469,300 443,307 437,305 446,293 452,290 452,283 455,281 453,277 469,268 475,261 472,257 482,252 496,265 499,273" id="52538" class="commune" fill="steelblue" stroke-width="1" stroke="white" geotype="commune" geoname="Villiers-sur-Suize" code_insee="52538" code_canton="5204"/></svg>