<?xml version="1.0" encoding="utf-8"?>
<svg version="1.1" id="svgmap" xmlns="http://www.w3.org/2000/svg" xmlns:xlink="http://www.w3.org/1999/xlink" x="0px" y="0px" width="100%" height="100%" viewBox="0 0 500 341">
<polygon points="287,234 279,238 287,254 270,266 274,281 231,315 238,324 230,328 215,322 223,290 188,268 218,235 229,239 253,231 265,237 278,227 287,234" id="54037" class="commune" fill="steelblue" stroke-width="1" stroke="white" geotype="commune" geoname="Azelot" code_insee="54037" code_canton="5405"/><polygon points="237,332 230,328 238,324 231,315 274,281 270,266 287,254 279,238 287,234 299,235 302,248 335,255 334,266 353,275 369,290 320,306 316,295 300,293 301,302 269,332 253,341 237,332" id="54108" class="commune" fill="steelblue" stroke-width="1" stroke="white" geotype="commune" geoname="Burthecourt-aux-Chênes" code_insee="54108" code_canton="5405"/><polygon points="386,311 385,311 372,303 369,290 353,275 368,246 412,222 438,223 430,237 443,246 420,272 427,288 406,295 404,308 395,304 386,311" id="54141" class="commune" fill="steelblue" stroke-width="1" stroke="white" geotype="commune" geoname="Coyviller" code_insee="54141" code_canton="5405"/><polygon points="199,83 215,90 203,99 211,122 209,132 220,138 199,172 165,196 153,197 146,188 164,174 129,164 101,134 118,109 138,96 144,109 199,83" id="54197" class="commune" fill="steelblue" stroke-width="1" stroke="white" geotype="commune" geoname="Fléville-devant-Nancy" code_insee="54197" code_canton="5405"/><polygon points="138,96 114,94 95,73 127,67 124,50 132,47 191,53 199,83 144,109 138,96" id="54257" class="commune" fill="steelblue" stroke-width="1" stroke="white" geotype="commune" geoname="Heillecourt" code_insee="54257" code_canton="5405"/><polygon points="95,73 114,94 138,96 118,109 101,134 87,135 87,122 57,124 52,112 21,120 13,97 52,98 70,71 95,73" id="54265" class="commune" fill="steelblue" stroke-width="1" stroke="white" geotype="commune" geoname="Houdemont" code_insee="54265" code_canton="5405"/><polygon points="191,53 132,47 148,29 140,14 165,0 193,11 214,11 202,28 181,32 199,42 191,53" id="54274" class="commune" fill="steelblue" stroke-width="1" stroke="white" geotype="commune" geoname="Jarville-la-Malgrange" code_insee="54274" code_canton="5405"/><polygon points="165,196 170,198 145,206 97,204 81,196 82,191 65,191 13,173 15,150 0,138 21,120 52,112 57,124 87,122 87,135 101,134 129,164 164,174 146,188 153,197 165,196" id="54328" class="commune" fill="steelblue" stroke-width="1" stroke="white" geotype="commune" geoname="Ludres" code_insee="54328" code_canton="5405"/><polygon points="155,230 141,216 145,206 170,198 247,171 276,181 280,198 291,204 278,227 265,237 253,231 229,239 218,235 188,268 163,257 204,228 187,219 155,230" id="54330" class="commune" fill="steelblue" stroke-width="1" stroke="white" geotype="commune" geoname="Lupcourt" code_insee="54330" code_canton="5405"/><polygon points="353,275 334,266 335,255 302,248 299,235 330,201 326,189 351,188 355,177 366,180 379,169 418,189 412,222 368,246 353,275" id="54345" class="commune" fill="steelblue" stroke-width="1" stroke="white" geotype="commune" geoname="Manoncourt-en-Vermois" code_insee="54345" code_canton="5405"/><polygon points="379,169 364,158 362,142 393,132 405,116 428,105 443,106 472,126 478,143 496,137 497,150 500,159 479,171 491,191 442,184 438,197 451,212 438,223 412,222 418,189 379,169" id="54483" class="commune" fill="steelblue" stroke-width="1" stroke="white" geotype="commune" geoname="Saint-Nicolas-de-Port" code_insee="54483" code_canton="5405"/><polygon points="170,198 165,196 199,172 220,138 209,132 211,122 248,115 241,131 266,130 278,122 282,132 333,128 338,137 353,132 362,142 364,158 379,169 366,180 355,177 351,188 326,189 330,201 299,235 287,234 278,227 291,204 280,198 276,181 247,171 170,198" id="54571" class="commune" fill="steelblue" stroke-width="1" stroke="white" geotype="commune" geoname="Ville-en-Vermois" code_insee="54571" code_canton="5405"/></svg>