<?xml version="1.0" encoding="utf-8"?>
<svg version="1.1" id="svgmap" xmlns="http://www.w3.org/2000/svg" xmlns:xlink="http://www.w3.org/1999/xlink" x="0px" y="0px" width="100%" height="100%" viewBox="0 0 500 334">
<polygon points="91,183 35,184 0,44 180,35 180,24 345,0 355,47 333,48 336,62 357,55 357,66 398,70 435,53 483,119 456,130 447,112 375,141 362,129 337,142 322,185 91,183" id="54304" class="commune" fill="steelblue" stroke-width="1" stroke="white" geotype="commune" geoname="Laxou" code_insee="54304" code_canton="5406"/><polygon points="254,334 221,308 195,307 91,183 322,185 337,142 362,129 375,141 447,112 456,130 483,119 500,152 472,166 487,180 449,230 435,222 405,250 362,245 357,255 295,243 275,277 287,302 254,334" id="54578" class="commune" fill="steelblue" stroke-width="1" stroke="white" geotype="commune" geoname="Villers-lès-Nancy" code_insee="54578" code_canton="5406"/></svg>