<?xml version="1.0" encoding="utf-8"?>
<svg version="1.1" id="svgmap" xmlns="http://www.w3.org/2000/svg" xmlns:xlink="http://www.w3.org/1999/xlink" x="0px" y="0px" width="100%" height="100%" viewBox="0 0 500 381">
<polygon points="250,354 240,346 215,351 229,338 229,328 254,314 245,312 258,299 274,293 308,311 328,314 337,347 302,345 250,354" id="57015" class="commune" fill="steelblue" stroke-width="1" stroke="white" geotype="commune" geoname="Altviller" code_insee="57015" code_canton="5719"/><polygon points="247,35 274,54 240,69 244,78 224,91 217,93 214,87 192,84 206,77 199,68 188,69 238,34 233,27 247,35" id="57123" class="commune" fill="steelblue" stroke-width="1" stroke="white" geotype="commune" geoname="Carling" code_insee="57123" code_canton="5719"/><polygon points="81,274 94,271 109,279 133,275 143,293 165,295 171,314 215,351 240,346 250,354 244,364 232,376 215,373 189,381 139,358 116,338 104,346 93,342 80,304 87,293 81,274" id="57224" class="commune" fill="steelblue" stroke-width="1" stroke="white" geotype="commune" geoname="Folschviller" code_insee="57224" code_canton="5719"/><polygon points="224,91 244,78 240,69 274,54 298,70 324,63 345,73 337,76 333,92 283,106 281,117 291,119 282,122 293,133 280,132 276,105 215,129 269,104 217,107 265,98 252,90 224,91" id="57336" class="commune" fill="steelblue" stroke-width="1" stroke="white" geotype="commune" geoname="Hôpital" code_insee="57336" code_canton="5719"/><polygon points="337,347 328,314 308,311 274,293 258,299 249,285 257,275 271,266 282,281 307,269 343,266 338,259 353,253 358,265 380,267 390,281 379,284 384,307 372,319 398,315 418,323 418,332 370,346 337,347" id="57373" class="commune" fill="steelblue" stroke-width="1" stroke="white" geotype="commune" geoname="Lachambre" code_insee="57373" code_canton="5719"/><polygon points="436,226 441,247 491,273 500,298 418,323 398,315 372,319 384,307 379,284 390,281 380,267 358,265 353,253 338,259 343,266 307,269 282,281 271,266 257,275 264,250 252,238 283,228 284,209 301,211 302,202 311,217 356,203 360,191 380,195 384,216 407,210 436,226" id="57428" class="commune" fill="steelblue" stroke-width="1" stroke="white" geotype="commune" geoname="Macheren" code_insee="57428" code_canton="5719"/><polygon points="22,70 43,67 59,40 107,18 129,44 149,48 148,58 179,57 184,77 203,98 116,117 64,121 0,111 22,70" id="57550" class="commune" fill="steelblue" stroke-width="1" stroke="white" geotype="commune" geoname="Porcelette" code_insee="57550" code_canton="5719"/><polygon points="94,271 81,274 49,272 29,253 57,241 108,239 138,224 181,220 191,188 184,174 154,155 84,145 70,137 56,141 34,133 44,124 64,121 116,117 203,98 217,93 224,91 252,90 265,98 217,107 269,104 215,129 276,105 280,132 293,133 282,122 291,119 281,117 283,106 333,92 337,76 345,73 324,63 361,67 394,59 399,64 384,84 368,86 406,91 393,101 399,119 339,130 293,173 312,185 360,191 356,203 311,217 302,202 301,211 284,209 283,228 252,238 264,250 242,259 221,246 204,253 161,250 94,271" id="57606" class="commune" fill="steelblue" stroke-width="1" stroke="white" geotype="commune" geoname="Saint-Avold" code_insee="57606" code_canton="5719"/><polygon points="258,299 245,312 254,314 229,328 229,338 215,351 171,314 165,295 143,293 133,275 109,279 94,271 161,250 204,253 221,246 242,259 264,250 257,275 249,285 258,299" id="57690" class="commune" fill="steelblue" stroke-width="1" stroke="white" geotype="commune" geoname="Valmont" code_insee="57690" code_canton="5719"/><polygon points="217,93 203,98 184,77 179,57 148,58 149,48 129,44 107,18 131,0 167,14 217,14 215,21 233,27 238,34 188,69 199,68 206,77 192,84 214,87 217,93" id="57765" class="commune" fill="steelblue" stroke-width="1" stroke="white" geotype="commune" geoname="Diesen" code_insee="57765" code_canton="5719"/></svg>