<?xml version="1.0" encoding="utf-8"?>
<svg version="1.1" id="svgmap" xmlns="http://www.w3.org/2000/svg" xmlns:xlink="http://www.w3.org/1999/xlink" x="0px" y="0px" width="100%" height="100%" viewBox="0 0 500 192">
<polygon points="259,71 258,65 268,60 285,55 287,55 289,58 283,62 289,74 279,77 278,73 274,74 273,78 277,83 264,85 259,71" id="57014" class="commune" fill="steelblue" stroke-width="1" stroke="white" geotype="commune" geoname="Altrippe" code_insee="57014" code_canton="5720"/><polygon points="65,171 63,170 62,161 73,151 67,144 73,142 80,145 91,143 102,147 103,149 94,152 95,156 88,162 88,165 84,168 71,168 71,170 65,171" id="57051" class="commune" fill="steelblue" stroke-width="1" stroke="white" geotype="commune" geoname="Baronville" code_insee="57051" code_canton="5720"/><polygon points="141,105 156,107 159,109 158,113 172,116 180,129 179,134 168,136 170,140 165,139 157,134 147,135 139,130 137,123 132,120 142,111 141,105" id="57063" class="commune" fill="steelblue" stroke-width="1" stroke="white" geotype="commune" geoname="Bérig-Vintrange" code_insee="57063" code_canton="5720"/><polygon points="238,50 232,52 227,48 224,36 241,32 241,28 269,20 270,20 275,30 270,35 260,38 252,40 255,45 244,45 238,50" id="57082" class="commune" fill="steelblue" stroke-width="1" stroke="white" geotype="commune" geoname="Biding" code_insee="57082" code_canton="5720"/><polygon points="133,104 125,102 127,95 128,92 147,80 146,77 161,71 174,63 178,65 183,65 185,72 187,79 181,85 192,93 188,102 197,113 195,115 188,114 172,116 158,113 159,109 156,107 141,105 133,104" id="57088" class="commune" fill="steelblue" stroke-width="1" stroke="white" geotype="commune" geoname="Bistroff" code_insee="57088" code_canton="5720"/><polygon points="87,102 76,102 77,98 84,92 90,91 94,85 101,84 104,86 102,88 111,90 112,93 111,97 108,96 103,101 87,102" id="57105" class="commune" fill="steelblue" stroke-width="1" stroke="white" geotype="commune" geoname="Boustroff" code_insee="57105" code_canton="5720"/><polygon points="5,154 0,146 5,144 4,142 5,140 2,136 9,132 6,125 11,124 12,121 16,119 13,119 14,118 19,116 32,124 28,130 33,136 30,139 33,141 29,141 16,145 5,154" id="57115" class="commune" fill="steelblue" stroke-width="1" stroke="white" geotype="commune" geoname="Brulange" code_insee="57115" code_canton="5720"/><polygon points="29,141 33,141 44,141 50,139 49,137 54,139 56,132 60,131 63,131 62,134 65,135 67,144 73,151 62,161 52,163 50,160 39,160 31,154 35,150 29,141" id="57174" class="commune" fill="steelblue" stroke-width="1" stroke="white" geotype="commune" geoname="Destry" code_insee="57174" code_canton="5720"/><polygon points="324,99 321,97 308,99 302,96 291,96 289,89 284,86 285,82 306,80 316,84 319,87 336,86 336,89 330,95 335,98 324,99" id="57178" class="commune" fill="steelblue" stroke-width="1" stroke="white" geotype="commune" geoname="Diffembach-lès-Hellimer" code_insee="57178" code_canton="5720"/><polygon points="76,102 87,102 87,115 78,120 71,119 67,125 62,124 46,114 48,113 46,107 54,101 53,99 56,99 76,102" id="57189" class="commune" fill="steelblue" stroke-width="1" stroke="white" geotype="commune" geoname="Eincheville" code_insee="57189" code_canton="5720"/><polygon points="436,37 445,43 438,47 427,48 419,44 417,36 410,31 414,25 426,20 429,22 435,23 430,32 432,37 436,37" id="57197" class="commune" fill="steelblue" stroke-width="1" stroke="white" geotype="commune" geoname="Ernestviller" code_insee="57197" code_canton="5720"/><polygon points="247,105 250,115 255,118 250,125 240,120 235,124 236,126 227,125 215,121 214,117 220,116 225,107 222,105 234,108 247,105" id="57198" class="commune" fill="steelblue" stroke-width="1" stroke="white" geotype="commune" geoname="Erstroff" code_insee="57198" code_canton="5720"/><polygon points="259,71 264,85 257,91 220,88 214,84 243,73 259,71" id="57237" class="commune" fill="steelblue" stroke-width="1" stroke="white" geotype="commune" geoname="Frémestroff" code_insee="57237" code_canton="5720"/><polygon points="247,105 234,108 222,105 214,100 220,88 257,91 259,98 263,100 258,101 259,103 247,105" id="57239" class="commune" fill="steelblue" stroke-width="1" stroke="white" geotype="commune" geoname="Freybouse" code_insee="57239" code_canton="5720"/><polygon points="308,114 313,117 308,119 308,126 296,131 290,130 288,134 288,130 293,127 284,117 282,116 296,115 295,114 300,112 306,116 308,114" id="57258" class="commune" fill="steelblue" stroke-width="1" stroke="white" geotype="commune" geoname="Gréning" code_insee="57258" code_canton="5720"/><polygon points="181,150 174,147 176,146 170,140 168,136 179,134 180,129 172,116 188,114 195,115 197,113 188,102 192,93 181,85 187,79 185,72 200,73 205,76 214,84 220,88 214,100 222,105 225,107 220,116 214,117 215,121 227,125 226,128 231,128 235,132 239,132 239,134 232,136 222,137 212,135 200,143 188,145 181,150" id="57262" class="commune" fill="steelblue" stroke-width="1" stroke="white" geotype="commune" geoname="Grostenquin" code_insee="57262" code_canton="5720"/><polygon points="419,44 427,48 438,47 445,43 436,37 457,37 462,48 452,53 452,57 439,53 413,63 406,57 404,49 417,47 419,44" id="57263" class="commune" fill="steelblue" stroke-width="1" stroke="white" geotype="commune" geoname="Grundviller" code_insee="57263" code_canton="5720"/><polygon points="389,15 397,12 399,13 404,11 406,12 399,16 402,19 422,16 427,14 424,16 426,20 414,25 410,31 381,30 386,25 382,19 389,15" id="57264" class="commune" fill="steelblue" stroke-width="1" stroke="white" geotype="commune" geoname="Guebenhouse" code_insee="57264" code_canton="5720"/><polygon points="430,99 430,99 432,100 434,101 433,103 434,103 433,104 435,105 433,107 434,109 431,109 434,110 435,113 440,117 451,120 449,122 451,124 449,123 448,124 447,127 446,127 445,125 445,127 431,129 434,130 432,132 422,132 421,134 427,136 424,140 416,138 396,131 392,132 382,124 384,123 382,120 383,118 374,118 376,110 370,99 382,98 388,94 394,93 401,95 404,100 417,103 430,99" id="57267" class="commune" fill="steelblue" stroke-width="1" stroke="white" geotype="commune" geoname="Val-de-Guéblange" code_insee="57267" code_canton="5720"/><polygon points="127,95 120,94 109,82 106,83 104,80 110,77 110,67 128,57 134,63 150,63 158,60 154,65 161,71 146,77 147,80 128,92 127,95" id="57275" class="commune" fill="steelblue" stroke-width="1" stroke="white" geotype="commune" geoname="Guessling-Hémering" code_insee="57275" code_canton="5720"/><polygon points="91,143 90,141 98,134 101,129 98,128 102,123 113,121 127,114 133,104 141,105 142,111 132,120 137,123 139,130 134,132 125,143 117,139 102,147 91,143" id="57297" class="commune" fill="steelblue" stroke-width="1" stroke="white" geotype="commune" geoname="Harprich" code_insee="57297" code_canton="5720"/><polygon points="377,135 380,130 378,125 382,120 384,123 382,124 392,132 396,131 416,138 413,144 411,143 389,132 377,135" id="57308" class="commune" fill="steelblue" stroke-width="1" stroke="white" geotype="commune" geoname="Hazembourg" code_insee="57308" code_canton="5720"/><polygon points="264,85 277,83 285,82 284,86 289,89 291,96 302,96 308,99 321,97 324,99 315,99 307,105 301,106 308,114 306,116 300,112 295,114 296,115 282,116 284,117 275,124 269,121 269,112 276,113 281,110 259,103 258,101 263,100 259,98 257,91 264,85" id="57311" class="commune" fill="steelblue" stroke-width="1" stroke="white" geotype="commune" geoname="Hellimer" code_insee="57311" code_canton="5720"/><polygon points="335,98 330,95 336,89 339,91 348,89 351,87 350,84 366,75 370,80 374,80 393,75 391,81 394,83 391,85 394,93 388,94 382,98 370,99 367,102 360,100 358,103 345,109 335,98" id="57325" class="commune" fill="steelblue" stroke-width="1" stroke="white" geotype="commune" geoname="Hilsprich" code_insee="57325" code_canton="5720"/><polygon points="443,61 452,62 443,69 441,73 443,73 441,74 442,75 438,77 440,79 435,81 435,83 438,84 438,86 439,87 429,92 429,94 426,96 431,98 430,99 417,103 404,100 401,95 394,93 391,85 394,83 391,81 393,75 398,72 407,77 433,68 436,64 438,67 443,61" id="57330" class="commune" fill="steelblue" stroke-width="1" stroke="white" geotype="commune" geoname="Holving" code_insee="57330" code_canton="5720"/><polygon points="370,99 376,110 374,118 383,118 382,120 378,125 380,130 377,135 373,137 370,134 367,137 361,138 345,127 341,128 348,121 348,114 345,109 358,103 360,100 367,102 370,99" id="57357" class="commune" fill="steelblue" stroke-width="1" stroke="white" geotype="commune" geoname="Kappelkinger" code_insee="57357" code_canton="5720"/><polygon points="446,127 445,132 442,134 438,137 437,145 413,144 416,138 424,140 427,136 421,134 422,132 432,132 434,130 431,129 445,127 445,125 446,127" id="57366" class="commune" fill="steelblue" stroke-width="1" stroke="white" geotype="commune" geoname="Kirviller" code_insee="57366" code_canton="5720"/><polygon points="62,124 67,125 71,119 78,120 87,115 101,116 102,119 98,121 102,123 98,128 101,129 98,134 90,141 91,143 80,145 73,142 67,144 65,135 62,134 63,131 60,131 62,124" id="57379" class="commune" fill="steelblue" stroke-width="1" stroke="white" geotype="commune" geoname="Landroff" code_insee="57379" code_canton="5720"/><polygon points="232,52 238,50 235,52 240,61 244,60 245,65 255,67 258,65 259,71 243,73 214,84 205,76 217,69 220,62 225,59 223,58 232,52" id="57384" class="commune" fill="steelblue" stroke-width="1" stroke="white" geotype="commune" geoname="Laning" code_insee="57384" code_canton="5720"/><polygon points="180,43 184,48 192,51 178,65 174,63 161,71 154,65 158,60 155,53 160,49 169,46 175,47 180,43" id="57389" class="commune" fill="steelblue" stroke-width="1" stroke="white" geotype="commune" geoname="Lelling" code_insee="57389" code_canton="5720"/><polygon points="287,55 298,52 311,52 315,67 303,72 304,74 316,78 313,80 317,81 316,84 306,80 285,82 277,83 273,78 274,74 278,73 279,77 289,74 283,62 289,58 287,55" id="57398" class="commune" fill="steelblue" stroke-width="1" stroke="white" geotype="commune" geoname="Leyviller" code_insee="57398" code_canton="5720"/><polygon points="185,72 183,65 178,65 192,51 201,50 212,58 218,55 223,58 225,59 220,62 217,69 205,76 200,73 185,72" id="57409" class="commune" fill="steelblue" stroke-width="1" stroke="white" geotype="commune" geoname="Lixing-lès-Saint-Avold" code_insee="57409" code_canton="5720"/><polygon points="335,27 336,26 354,18 363,18 360,3 366,1 368,3 375,0 389,15 382,19 386,25 381,30 372,35 362,31 357,29 337,29 335,27" id="57419" class="commune" fill="steelblue" stroke-width="1" stroke="white" geotype="commune" geoname="Loupershouse" code_insee="57419" code_canton="5720"/><polygon points="286,41 288,47 282,48 285,55 268,60 258,65 255,67 245,65 244,60 240,61 235,52 238,50 244,45 255,45 252,40 260,38 260,41 267,39 275,42 286,41" id="57453" class="commune" fill="steelblue" stroke-width="1" stroke="white" geotype="commune" geoname="Maxstadt" code_insee="57453" code_canton="5720"/><polygon points="71,180 72,173 65,171 71,170 71,168 84,168 88,165 88,162 95,156 94,152 103,149 102,147 117,139 125,143 132,144 139,150 133,154 137,156 123,159 125,162 121,163 126,165 120,167 122,169 120,170 124,179 126,180 130,180 112,192 100,187 106,185 103,183 99,184 92,178 82,178 80,183 71,180" id="57483" class="commune" fill="steelblue" stroke-width="1" stroke="white" geotype="commune" geoname="Morhange" code_insee="57483" code_canton="5720"/><polygon points="288,134 290,130 296,131 308,126 308,119 313,117 329,117 329,111 345,111 348,114 348,121 335,130 314,133 300,139 283,139 282,138 288,134" id="57497" class="commune" fill="steelblue" stroke-width="1" stroke="white" geotype="commune" geoname="Nelling" code_insee="57497" code_canton="5720"/><polygon points="313,117 308,114 301,106 307,105 315,99 324,99 335,98 345,109 348,114 345,111 329,111 329,117 313,117" id="57536" class="commune" fill="steelblue" stroke-width="1" stroke="white" geotype="commune" geoname="Petit-Tenquin" code_insee="57536" code_canton="5720"/><polygon points="410,31 417,36 419,44 417,47 404,49 401,52 396,49 389,58 382,56 350,60 341,59 334,60 332,53 323,50 334,42 362,31 372,35 381,30 410,31" id="57556" class="commune" fill="steelblue" stroke-width="1" stroke="white" geotype="commune" geoname="Puttelange-aux-Lacs" code_insee="57556" code_canton="5720"/><polygon points="143,181 133,184 130,180 126,180 124,179 120,170 122,169 120,167 126,165 121,163 125,162 123,159 137,156 142,155 148,158 154,156 162,169 167,168 165,173 153,174 143,181" id="57560" class="commune" fill="steelblue" stroke-width="1" stroke="white" geotype="commune" geoname="Racrange" code_insee="57560" code_canton="5720"/><polygon points="398,72 393,75 374,80 370,80 366,75 350,60 382,56 389,58 396,49 401,52 404,49 406,57 413,63 403,72 398,72" id="57571" class="commune" fill="steelblue" stroke-width="1" stroke="white" geotype="commune" geoname="Rémering-lès-Puttelange" code_insee="57571" code_canton="5720"/><polygon points="452,57 445,59 442,61 443,61 438,67 436,64 433,68 407,77 398,72 403,72 413,63 439,53 452,57" id="57581" class="commune" fill="steelblue" stroke-width="1" stroke="white" geotype="commune" geoname="Richeling" code_insee="57581" code_canton="5720"/><polygon points="311,52 323,50 332,53 334,60 341,59 350,60 366,75 350,84 351,87 348,89 339,91 336,89 336,86 319,87 316,84 317,81 313,80 316,78 304,74 303,72 315,67 311,52" id="57615" class="commune" fill="steelblue" stroke-width="1" stroke="white" geotype="commune" geoname="Saint-Jean-Rohrbach" code_insee="57615" code_canton="5720"/><polygon points="452,57 457,60 457,64 462,67 466,70 472,72 480,76 479,78 480,80 474,81 475,83 479,83 482,85 482,90 485,90 490,88 489,90 494,89 495,90 497,90 498,89 495,88 499,86 498,88 500,88 500,89 494,92 495,94 493,95 495,96 491,99 488,97 485,100 486,104 484,102 482,102 484,103 482,104 484,106 482,107 481,106 479,109 481,113 483,113 484,115 486,115 483,116 483,117 485,116 489,118 488,119 486,118 484,119 487,120 484,120 484,122 485,122 486,121 487,122 485,123 480,121 475,126 480,139 474,139 468,137 460,138 455,137 453,136 445,136 442,134 445,132 446,127 447,127 448,124 449,123 451,124 449,122 451,120 440,117 435,113 434,110 431,109 434,109 433,107 435,105 433,104 434,103 433,103 434,101 432,100 430,99 430,99 431,98 426,96 429,94 429,92 439,87 438,86 438,84 435,83 435,81 440,79 438,77 442,75 441,74 443,73 441,73 443,69 452,62 443,61 442,61 445,59 452,57" id="57628" class="commune" fill="steelblue" stroke-width="1" stroke="white" geotype="commune" geoname="Sarralbe" code_insee="57628" code_canton="5720"/><polygon points="33,141 30,139 33,136 28,130 32,124 40,121 44,112 46,114 62,124 60,131 56,132 54,139 49,137 50,139 44,141 33,141" id="57662" class="commune" fill="steelblue" stroke-width="1" stroke="white" geotype="commune" geoname="Suisse" code_insee="57662" code_canton="5720"/><polygon points="232,52 223,58 218,55 212,58 201,50 192,51 184,48 180,43 181,39 200,36 212,37 224,36 227,48 232,52" id="57684" class="commune" fill="steelblue" stroke-width="1" stroke="white" geotype="commune" geoname="Vahl-Ebersing" code_insee="57684" code_canton="5720"/><polygon points="170,140 176,146 174,147 169,147 154,156 148,158 142,155 137,156 133,154 139,150 132,144 125,143 134,132 139,130 147,135 157,134 165,139 170,140" id="57687" class="commune" fill="steelblue" stroke-width="1" stroke="white" geotype="commune" geoname="Vallerange" code_insee="57687" code_canton="5720"/><polygon points="120,94 127,95 125,102 133,104 127,114 113,121 102,123 98,121 102,119 101,116 87,115 87,102 103,101 108,96 111,97 112,93 120,94" id="57717" class="commune" fill="steelblue" stroke-width="1" stroke="white" geotype="commune" geoname="Viller" code_insee="57717" code_canton="5720"/><polygon points="436,37 432,37 430,32 435,23 429,22 439,16 441,10 450,9 455,4 465,2 464,9 456,9 463,11 468,4 473,2 474,6 477,4 482,8 480,9 482,13 472,22 475,29 470,33 457,37 436,37" id="57752" class="commune" fill="steelblue" stroke-width="1" stroke="white" geotype="commune" geoname="Woustviller" code_insee="57752" code_canton="5720"/></svg>