<?xml version="1.0" encoding="utf-8"?>
<svg version="1.1" id="svgmap" xmlns="http://www.w3.org/2000/svg" xmlns:xlink="http://www.w3.org/1999/xlink" x="0px" y="0px" width="100%" height="100%" viewBox="0 0 500 435">
<polygon points="226,71 262,0 275,6 301,2 317,11 331,8 342,20 352,35 350,50 366,55 375,67 396,80 418,107 440,118 396,146 391,155 382,140 362,131 355,130 352,134 340,130 335,132 335,126 322,124 308,132 288,126 284,119 245,122 245,113 254,113 254,95 258,93 254,91 241,90 246,84 226,71" id="58055" class="commune" fill="steelblue" stroke-width="1" stroke="white" geotype="commune" geoname="Champvert" code_insee="58055" code_canton="5806"/><polygon points="389,211 397,213 381,227 389,235 382,240 375,261 391,265 388,273 397,274 403,281 393,290 394,296 414,307 405,312 409,319 400,321 384,319 381,312 363,308 334,290 307,287 276,299 272,292 256,297 243,292 233,295 212,292 207,283 200,285 196,281 201,268 186,257 189,253 184,243 194,240 181,223 188,208 206,207 219,197 239,193 255,209 275,217 295,197 306,205 325,208 341,193 342,181 349,180 359,185 363,192 358,198 389,211" id="58087" class="commune" fill="steelblue" stroke-width="1" stroke="white" geotype="commune" geoname="Cossaye" code_insee="58087" code_canton="5806"/><polygon points="342,181 341,193 325,208 306,205 295,197 275,217 255,209 239,193 219,197 206,207 188,208 175,192 167,189 156,196 106,171 119,153 128,151 120,143 113,110 139,111 158,103 172,102 219,111 213,101 254,95 254,113 245,113 245,122 284,119 288,126 308,132 315,146 304,149 293,159 317,174 343,175 342,181" id="58095" class="commune" fill="steelblue" stroke-width="1" stroke="white" geotype="commune" geoname="Decize" code_insee="58095" code_canton="5806"/><polygon points="308,132 322,124 335,126 335,132 340,130 352,134 355,130 362,131 382,140 391,155 391,188 397,198 389,211 358,198 363,192 359,185 349,180 342,181 343,175 317,174 293,159 304,149 315,146 308,132" id="58096" class="commune" fill="steelblue" stroke-width="1" stroke="white" geotype="commune" geoname="Devay" code_insee="58096" code_canton="5806"/><polygon points="397,213 417,217 426,225 456,221 461,228 441,238 427,254 413,261 429,270 428,278 452,299 452,305 415,322 414,307 394,296 393,290 403,281 397,274 388,273 391,265 375,261 382,240 389,235 381,227 397,213" id="58137" class="commune" fill="steelblue" stroke-width="1" stroke="white" geotype="commune" geoname="Lamenay-sur-Loire" code_insee="58137" code_canton="5806"/><polygon points="200,285 207,283 212,292 233,295 243,292 256,297 272,292 276,299 307,287 334,290 363,308 368,321 364,337 387,368 375,375 362,387 349,384 344,372 333,367 297,380 309,381 298,384 302,388 285,397 267,415 255,418 255,430 246,435 234,429 200,432 194,422 176,415 186,413 188,404 183,400 199,392 194,385 200,380 196,367 184,361 161,360 153,347 163,327 168,322 197,323 200,285" id="58146" class="commune" fill="steelblue" stroke-width="1" stroke="white" geotype="commune" geoname="Lucenay-lès-Aix" code_insee="58146" code_canton="5806"/><polygon points="188,208 181,223 155,235 131,229 106,244 109,247 93,247 60,224 38,220 0,220 30,203 25,195 33,189 31,185 50,173 45,163 65,161 73,156 106,171 156,196 167,189 175,192 188,208" id="58241" class="commune" fill="steelblue" stroke-width="1" stroke="white" geotype="commune" geoname="Saint-Germain-Chassenay" code_insee="58241" code_canton="5806"/><polygon points="254,95 213,101 219,111 172,102 158,103 139,111 137,100 153,100 155,95 157,88 150,84 160,83 188,59 206,50 207,59 226,71 246,84 241,90 254,91 258,93 254,95" id="58250" class="commune" fill="steelblue" stroke-width="1" stroke="white" geotype="commune" geoname="Saint-Léger-des-Vignes" code_insee="58250" code_canton="5806"/><polygon points="500,136 497,135 464,130 440,118 418,107 396,80 375,67 366,55 350,50 352,35 342,20 384,22 418,6 460,23 468,29 458,36 466,41 459,52 462,65 476,82 470,83 476,88 476,98 491,105 500,136" id="58306" class="commune" fill="steelblue" stroke-width="1" stroke="white" geotype="commune" geoname="Verneuil" code_insee="58306" code_canton="5806"/></svg>