<?xml version="1.0" encoding="utf-8"?>
<svg version="1.1" id="svgmap" xmlns="http://www.w3.org/2000/svg" xmlns:xlink="http://www.w3.org/1999/xlink" x="0px" y="0px" width="100%" height="100%" viewBox="0 0 489 500">
<polygon points="477,112 484,138 471,173 489,188 468,198 448,183 433,188 422,227 362,223 364,216 332,210 321,190 252,225 215,157 193,144 180,164 151,168 127,141 158,105 183,103 229,54 240,72 251,25 326,0 360,11 376,5 433,13 420,70 452,102 477,112" id="58207" class="commune" fill="steelblue" stroke-width="1" stroke="white" geotype="commune" geoname="Parigny-les-Vaux" code_insee="58207" code_canton="5817"/><polygon points="127,141 151,168 180,164 193,144 215,157 252,225 273,263 250,265 234,246 219,249 228,277 189,261 90,263 75,231 15,216 0,198 24,189 64,190 52,172 66,148 89,160 127,141" id="58214" class="commune" fill="steelblue" stroke-width="1" stroke="white" geotype="commune" geoname="Pougues-les-Eaux" code_insee="58214" code_canton="5817"/><polygon points="449,369 438,394 415,397 414,419 389,427 365,461 331,465 305,488 268,500 237,499 200,499 194,456 187,445 205,425 182,417 214,392 228,400 237,341 254,330 213,299 189,261 228,277 219,249 234,246 250,265 273,263 252,225 321,190 332,210 364,216 362,223 422,227 399,282 426,287 460,275 460,314 429,355 449,369" id="58303" class="commune" fill="steelblue" stroke-width="1" stroke="white" geotype="commune" geoname="Varennes-Vauzelles" code_insee="58303" code_canton="5817"/></svg>