<?xml version="1.0" encoding="utf-8"?>
<svg version="1.1" id="svgmap" xmlns="http://www.w3.org/2000/svg" xmlns:xlink="http://www.w3.org/1999/xlink" x="0px" y="0px" width="100%" height="100%" viewBox="0 0 500 234">
<polygon points="293,48 299,36 319,31 334,29 342,32 352,28 363,38 339,59 330,62 319,57 314,61 302,58 295,63 290,62 296,57 291,55 293,48" id="59001" class="commune" fill="steelblue" stroke-width="1" stroke="white" geotype="commune" geoname="Abancourt" code_insee="59001" code_canton="5909"/><polygon points="225,175 226,181 215,186 185,181 173,164 163,159 168,155 183,154 186,150 190,154 197,151 205,154 218,152 227,157 231,171 225,175" id="59010" class="commune" fill="steelblue" stroke-width="1" stroke="white" geotype="commune" geoname="Anneux" code_insee="59010" code_canton="5909"/><polygon points="236,6 261,14 287,12 270,23 275,38 266,35 255,39 256,33 250,36 233,31 238,26 232,23 237,11 230,9 236,6" id="59023" class="commune" fill="steelblue" stroke-width="1" stroke="white" geotype="commune" geoname="Aubencheul-au-Bac" code_insee="59023" code_canton="5909"/><polygon points="388,35 385,41 397,48 391,52 377,53 361,64 344,67 339,59 363,38 364,34 388,35" id="59048" class="commune" fill="steelblue" stroke-width="1" stroke="white" geotype="commune" geoname="Bantigny" code_insee="59048" code_canton="5909"/><polygon points="314,61 319,57 330,62 339,59 344,67 358,77 353,82 359,86 355,91 344,92 344,87 328,86 325,91 318,86 318,72 309,66 314,61" id="59085" class="commune" fill="steelblue" stroke-width="1" stroke="white" geotype="commune" geoname="Blécourt" code_insee="59085" code_canton="5909"/><polygon points="66,207 34,197 39,185 50,176 71,175 71,163 87,173 82,175 89,180 86,187 113,181 121,206 112,210 91,204 80,204 78,209 66,207" id="59097" class="commune" fill="steelblue" stroke-width="1" stroke="white" geotype="commune" geoname="Boursies" code_insee="59097" code_canton="5909"/><polygon points="428,154 423,153 413,165 416,167 411,174 390,174 371,183 353,183 351,188 335,185 347,172 350,160 339,153 326,155 324,153 341,150 339,143 334,146 320,147 326,144 316,138 328,136 324,134 328,133 343,133 353,122 357,126 367,119 357,110 357,96 373,101 378,98 382,101 377,103 388,113 383,116 393,126 407,124 410,127 420,126 423,129 436,130 426,144 431,148 428,154" id="59122" class="commune" fill="steelblue" stroke-width="1" stroke="white" geotype="commune" geoname="Cambrai" code_insee="59122" code_canton="5909"/><polygon points="399,60 388,66 390,70 377,76 377,81 371,78 359,86 353,82 358,77 344,67 361,64 377,53 391,52 399,60" id="59167" class="commune" fill="steelblue" stroke-width="1" stroke="white" geotype="commune" geoname="Cuvillers" code_insee="59167" code_canton="5909"/><polygon points="50,176 39,185 34,197 66,207 48,229 39,228 26,234 26,230 9,225 13,202 6,203 0,197 16,177 22,181 29,172 39,171 50,176" id="59176" class="commune" fill="steelblue" stroke-width="1" stroke="white" geotype="commune" geoname="Doignies" code_insee="59176" code_canton="5909"/><polygon points="460,109 453,111 457,126 436,130 423,129 420,126 410,127 407,124 393,126 383,116 388,113 415,96 420,96 424,98 438,96 446,91 457,101 460,109" id="59206" class="commune" fill="steelblue" stroke-width="1" stroke="white" geotype="commune" geoname="Escaudœuvres" code_insee="59206" code_canton="5909"/><polygon points="420,96 415,96 413,91 420,83 390,70 388,66 399,60 417,59 432,71 434,76 420,90 420,96" id="59216" class="commune" fill="steelblue" stroke-width="1" stroke="white" geotype="commune" geoname="Eswars" code_insee="59216" code_canton="5909"/><polygon points="449,25 462,17 473,20 473,25 473,38 473,45 455,49 449,46 444,47 440,41 436,43 439,29 450,29 449,25" id="59219" class="commune" fill="steelblue" stroke-width="1" stroke="white" geotype="commune" geoname="Estrun" code_insee="59219" code_canton="5909"/><polygon points="225,175 231,171 227,157 218,152 218,147 232,133 247,129 278,129 300,132 311,140 316,138 326,144 320,147 309,148 295,164 248,168 231,177 225,175" id="59244" class="commune" fill="steelblue" stroke-width="1" stroke="white" geotype="commune" geoname="Fontaine-Notre-Dame" code_insee="59244" code_canton="5909"/><polygon points="287,12 305,12 305,9 328,12 328,20 316,21 319,31 299,36 293,48 284,54 280,52 275,38 270,23 287,12" id="59255" class="commune" fill="steelblue" stroke-width="1" stroke="white" geotype="commune" geoname="Fressies" code_insee="59255" code_canton="5909"/><polygon points="253,99 228,107 209,102 211,97 221,87 220,75 226,72 243,70 255,73 281,73 285,86 273,94 253,99" id="59294" class="commune" fill="steelblue" stroke-width="1" stroke="white" geotype="commune" geoname="Haynecourt" code_insee="59294" code_canton="5909"/><polygon points="363,38 352,28 342,32 334,29 319,31 316,21 328,20 328,12 362,4 382,8 375,13 388,35 364,34 363,38" id="59300" class="commune" fill="steelblue" stroke-width="1" stroke="white" geotype="commune" geoname="Hem-Lenglet" code_insee="59300" code_canton="5909"/><polygon points="113,181 86,187 89,180 82,175 87,173 71,163 82,154 94,155 102,152 100,141 105,141 145,145 152,151 147,155 155,157 137,172 124,172 125,179 113,181" id="59405" class="commune" fill="steelblue" stroke-width="1" stroke="white" geotype="commune" geoname="Mœuvres" code_insee="59405" code_canton="5909"/><polygon points="357,110 367,119 357,126 353,122 343,133 328,133 320,127 329,120 322,117 324,111 327,108 337,113 351,114 357,110" id="59428" class="commune" fill="steelblue" stroke-width="1" stroke="white" geotype="commune" geoname="Neuville-Saint-Rémy" code_insee="59428" code_canton="5909"/><polygon points="397,48 385,41 388,35 375,13 382,8 404,0 405,6 412,6 421,11 432,23 439,22 447,20 449,25 450,29 439,29 436,43 426,52 416,49 408,54 407,50 397,48" id="59455" class="commune" fill="steelblue" stroke-width="1" stroke="white" geotype="commune" geoname="Paillencourt" code_insee="59455" code_canton="5909"/><polygon points="320,147 334,146 339,143 341,150 324,153 326,155 339,153 350,160 347,172 335,185 332,187 316,192 310,182 303,181 304,185 298,186 290,184 292,175 295,164 309,148 320,147" id="59476" class="commune" fill="steelblue" stroke-width="1" stroke="white" geotype="commune" geoname="Proville" code_insee="59476" code_canton="5909"/><polygon points="328,133 324,134 328,136 316,138 311,140 300,132 278,129 247,129 248,124 241,124 226,115 233,108 228,107 253,99 272,112 272,118 285,121 298,112 292,111 308,103 310,103 324,111 322,117 329,120 320,127 328,133" id="59488" class="commune" fill="steelblue" stroke-width="1" stroke="white" geotype="commune" geoname="Raillencourt-Sainte-Olle" code_insee="59488" code_canton="5909"/><polygon points="388,113 377,103 382,101 378,98 373,101 357,96 355,91 359,86 371,78 377,81 377,76 390,70 420,83 413,91 415,96 388,113" id="59492" class="commune" fill="steelblue" stroke-width="1" stroke="white" geotype="commune" geoname="Ramillies" code_insee="59492" code_canton="5909"/><polygon points="308,103 292,111 298,112 285,121 272,118 272,112 253,99 273,94 285,86 308,103" id="59521" class="commune" fill="steelblue" stroke-width="1" stroke="white" geotype="commune" geoname="Sailly-lez-Cambrai" code_insee="59521" code_canton="5909"/><polygon points="310,103 308,103 285,86 281,73 278,67 290,62 295,63 302,58 314,61 309,66 318,72 318,86 308,97 310,103" id="59552" class="commune" fill="steelblue" stroke-width="1" stroke="white" geotype="commune" geoname="Sancourt" code_insee="59552" code_canton="5909"/><polygon points="391,52 397,48 407,50 408,54 416,49 426,52 436,43 440,41 444,47 449,46 455,49 473,45 473,38 480,44 449,65 457,72 446,75 438,96 424,98 420,96 420,90 434,76 432,71 417,59 399,60 391,52" id="59593" class="commune" fill="steelblue" stroke-width="1" stroke="white" geotype="commune" geoname="Thun-l'Évêque" code_insee="59593" code_canton="5909"/><polygon points="457,101 446,91 438,96 446,75 457,72 449,65 480,44 491,52 500,71 494,81 487,80 483,84 479,82 457,101" id="59595" class="commune" fill="steelblue" stroke-width="1" stroke="white" geotype="commune" geoname="Thun-Saint-Martin" code_insee="59595" code_canton="5909"/><polygon points="357,96 357,110 351,114 337,113 327,108 324,111 310,103 308,97 318,86 325,91 328,86 344,87 344,92 355,91 357,96" id="59597" class="commune" fill="steelblue" stroke-width="1" stroke="white" geotype="commune" geoname="Tilloy-lez-Cambrai" code_insee="59597" code_canton="5909"/></svg>