<?xml version="1.0" encoding="utf-8"?>
<svg version="1.1" id="svgmap" xmlns="http://www.w3.org/2000/svg" xmlns:xlink="http://www.w3.org/1999/xlink" x="0px" y="0px" width="100%" height="100%" viewBox="0 0 500 289">
<polygon points="217,181 227,177 262,168 277,191 293,185 296,187 294,191 284,201 288,207 275,216 264,218 259,219 232,201 217,181" id="59018" class="commune" fill="steelblue" stroke-width="1" stroke="white" geotype="commune" geoname="Arnèke" code_insee="59018" code_canton="5941"/><polygon points="450,105 454,111 465,108 469,116 466,120 451,126 435,126 427,129 401,130 385,127 378,122 370,122 366,122 365,118 368,111 384,106 414,106 425,110 434,104 441,104 445,107 450,105" id="59046" class="commune" fill="steelblue" stroke-width="1" stroke="white" geotype="commune" geoname="Bambecque" code_insee="59046" code_canton="5941"/><polygon points="255,289 248,285 249,277 237,276 242,272 240,271 253,261 263,269 284,255 281,250 293,255 298,247 298,237 311,240 306,245 306,252 298,258 320,287 320,289 295,279 292,275 275,272 255,289" id="59054" class="commune" fill="steelblue" stroke-width="1" stroke="white" geotype="commune" geoname="Bavinchove" code_insee="59054" code_canton="5941"/><polygon points="248,128 227,110 231,100 243,97 257,115 252,128 248,128" id="59083" class="commune" fill="steelblue" stroke-width="1" stroke="white" geotype="commune" geoname="Bissezeele" code_insee="59083" code_canton="5941"/><polygon points="227,177 217,181 201,177 184,185 178,184 179,186 159,195 155,192 157,184 153,179 154,176 146,176 141,179 136,175 121,150 139,144 144,147 151,148 163,144 173,149 185,145 192,156 200,160 212,161 227,177" id="59089" class="commune" fill="steelblue" stroke-width="1" stroke="white" geotype="commune" geoname="Bollezeele" code_insee="59089" code_canton="5941"/><polygon points="141,219 135,219 128,203 134,199 159,195 165,204 153,214 155,220 141,219" id="59111" class="commune" fill="steelblue" stroke-width="1" stroke="white" geotype="commune" geoname="Broxeele" code_insee="59111" code_canton="5941"/><polygon points="187,223 191,237 183,241 163,241 143,247 142,239 145,238 141,219 155,220 187,223" id="59119" class="commune" fill="steelblue" stroke-width="1" stroke="white" geotype="commune" geoname="Buysscheure" code_insee="59119" code_canton="5941"/><polygon points="222,116 201,90 224,84 238,76 253,94 252,97 256,97 261,101 258,111 257,115 243,97 231,100 227,110 248,128 236,134 222,116" id="59162" class="commune" fill="steelblue" stroke-width="1" stroke="white" geotype="commune" geoname="Crochte" code_insee="59162" code_canton="5941"/><polygon points="185,145 173,149 163,144 151,148 144,147 139,144 121,150 118,154 101,153 81,157 77,155 77,149 84,146 98,147 93,143 95,139 116,136 114,134 139,124 142,127 154,125 157,124 155,121 162,120 165,117 175,130 189,142 185,145" id="59200" class="commune" fill="steelblue" stroke-width="1" stroke="white" geotype="commune" geoname="Eringhem" code_insee="59200" code_canton="5941"/><polygon points="298,150 261,166 236,134 248,128 252,128 257,115 258,111 263,115 275,111 283,114 296,134 289,134 285,140 298,150" id="59210" class="commune" fill="steelblue" stroke-width="1" stroke="white" geotype="commune" geoname="Esquelbecq" code_insee="59210" code_canton="5941"/><polygon points="321,203 326,199 334,199 333,211 353,212 359,216 324,235 313,234 307,228 298,223 308,219 315,206 321,203" id="59282" class="commune" fill="steelblue" stroke-width="1" stroke="white" geotype="commune" geoname="Hardifort" code_insee="59282" code_canton="5941"/><polygon points="370,122 378,122 385,127 401,130 427,129 421,139 415,142 412,154 404,158 394,167 394,177 383,185 370,167 367,165 364,166 352,162 339,153 344,146 356,138 355,131 370,122" id="59305" class="commune" fill="steelblue" stroke-width="1" stroke="white" geotype="commune" geoname="Herzeele" code_insee="59305" code_canton="5941"/><polygon points="12,157 10,160 25,174 33,177 33,181 25,187 24,200 20,196 13,191 15,184 1,169 0,159 12,157" id="59307" class="commune" fill="steelblue" stroke-width="1" stroke="white" geotype="commune" geoname="Holque" code_insee="59307" code_canton="5941"/><polygon points="429,0 428,3 429,5 433,8 431,11 436,15 455,24 468,25 468,27 472,31 468,35 471,36 470,38 474,43 473,44 484,54 485,58 497,75 494,78 480,80 479,81 482,85 481,86 480,88 476,91 470,92 467,84 464,84 460,85 453,85 453,84 452,79 455,74 448,63 447,63 444,62 438,61 433,56 427,53 425,52 418,49 417,50 410,44 408,41 402,36 392,25 394,23 390,20 394,17 398,19 404,19 410,18 417,14 421,13 429,11 431,9 428,5 427,0 429,0" id="59309" class="commune" fill="steelblue" stroke-width="1" stroke="white" geotype="commune" geoname="Hondschoote" code_insee="59309" code_canton="5941"/><polygon points="427,129 435,126 451,126 466,120 467,127 471,129 465,142 472,148 469,158 458,160 452,165 435,165 420,173 404,158 412,154 415,142 421,139 427,129" id="59318" class="commune" fill="steelblue" stroke-width="1" stroke="white" geotype="commune" geoname="Houtkerque" code_insee="59318" code_canton="5941"/><polygon points="292,30 306,28 312,33 320,57 295,59 274,55 285,53 287,50 276,44 277,40 291,34 289,31 292,30" id="59319" class="commune" fill="steelblue" stroke-width="1" stroke="white" geotype="commune" geoname="Hoymille" code_insee="59319" code_canton="5941"/><polygon points="402,36 408,41 410,44 417,50 418,49 425,52 427,53 433,56 438,61 444,62 447,63 448,63 455,74 452,79 453,84 430,85 425,85 415,75 389,61 377,63 377,50 387,41 402,36" id="59326" class="commune" fill="steelblue" stroke-width="1" stroke="white" geotype="commune" geoname="Killem" code_insee="59326" code_canton="5941"/><polygon points="141,219 145,238 142,239 117,238 105,240 107,237 99,226 86,232 79,226 84,222 82,218 87,214 93,219 101,213 102,215 120,208 128,203 135,219 141,219" id="59337" class="commune" fill="steelblue" stroke-width="1" stroke="white" geotype="commune" geoname="Lederzeele" code_insee="59337" code_canton="5941"/><polygon points="261,166 298,150 300,154 305,154 302,156 313,166 302,173 302,178 294,177 296,181 293,185 277,191 262,168 261,166" id="59338" class="commune" fill="steelblue" stroke-width="1" stroke="white" geotype="commune" geoname="Ledringhem" code_insee="59338" code_canton="5941"/><polygon points="121,150 136,175 122,183 108,179 99,186 91,180 93,175 83,168 86,166 74,158 72,149 62,153 57,148 69,133 76,133 85,139 95,139 93,143 98,147 84,146 77,149 77,155 81,157 101,153 118,154 121,150" id="59397" class="commune" fill="steelblue" stroke-width="1" stroke="white" geotype="commune" geoname="Merckeghem" code_insee="59397" code_canton="5941"/><polygon points="33,177 46,156 57,148 62,153 72,149 74,158 86,166 83,168 93,175 91,180 99,186 97,191 105,200 87,204 81,197 74,195 75,193 72,194 68,191 59,196 52,185 33,177" id="59402" class="commune" fill="steelblue" stroke-width="1" stroke="white" geotype="commune" geoname="Millam" code_insee="59402" code_canton="5941"/><polygon points="142,239 143,247 138,249 137,254 111,265 110,254 101,254 90,259 73,253 77,251 67,243 55,238 81,231 75,229 79,226 86,232 99,226 107,237 105,240 117,238 142,239" id="59433" class="commune" fill="steelblue" stroke-width="1" stroke="white" geotype="commune" geoname="Nieurlet" code_insee="59433" code_canton="5941"/><polygon points="143,247 163,241 183,241 191,237 187,223 203,224 252,229 244,236 240,250 233,250 220,264 214,263 216,261 204,256 195,262 203,268 201,271 171,260 139,259 137,254 138,249 143,247" id="59436" class="commune" fill="steelblue" stroke-width="1" stroke="white" geotype="commune" geoname="Noordpeene" code_insee="59436" code_canton="5941"/><polygon points="260,230 252,229 203,224 215,218 210,215 213,212 232,204 232,201 259,219 264,218 260,230" id="59443" class="commune" fill="steelblue" stroke-width="1" stroke="white" geotype="commune" geoname="Ochtezeele" code_insee="59443" code_canton="5941"/><polygon points="453,84 453,85 460,85 464,84 467,84 470,92 450,105 445,107 441,104 434,104 430,85 453,84" id="59448" class="commune" fill="steelblue" stroke-width="1" stroke="white" geotype="commune" geoname="Oost-Cappel" code_insee="59448" code_canton="5941"/><polygon points="359,216 353,212 333,211 334,199 349,179 352,176 356,178 370,167 383,185 373,194 384,203 367,214 364,212 359,216" id="59453" class="commune" fill="steelblue" stroke-width="1" stroke="white" geotype="commune" geoname="Oudezeele" code_insee="59453" code_canton="5941"/><polygon points="272,56 274,55 295,59 320,57 339,88 341,103 335,101 322,105 323,111 307,110 299,113 295,107 283,114 272,84 272,56" id="59478" class="commune" fill="steelblue" stroke-width="1" stroke="white" geotype="commune" geoname="Quaëdypre" code_insee="59478" code_canton="5941"/><polygon points="363,72 377,63 389,61 415,75 425,85 430,85 434,104 425,110 414,106 384,106 372,92 371,82 363,72" id="59499" class="commune" fill="steelblue" stroke-width="1" stroke="white" geotype="commune" geoname="Rexpoëde" code_insee="59499" code_canton="5941"/><polygon points="217,181 232,201 232,204 213,212 210,215 215,218 203,224 187,223 155,220 153,214 165,204 159,195 159,195 179,186 178,184 184,185 201,177 217,181" id="59516" class="commune" fill="steelblue" stroke-width="1" stroke="white" geotype="commune" geoname="Rubrouck" code_insee="59516" code_canton="5941"/><polygon points="82,218 84,222 79,226 75,229 81,231 55,238 67,243 77,251 73,253 59,243 49,234 41,230 42,228 34,224 31,215 47,212 57,217 61,214 66,215 69,211 82,218" id="59538" class="commune" fill="steelblue" stroke-width="1" stroke="white" geotype="commune" geoname="Saint-Momelin" code_insee="59538" code_canton="5941"/><polygon points="270,55 272,56 272,84 283,114 283,114 275,111 263,115 258,111 261,101 256,97 252,97 253,94 238,76 237,75 253,66 264,65 262,59 270,55" id="59570" class="commune" fill="steelblue" stroke-width="1" stroke="white" geotype="commune" geoname="Socx" code_insee="59570" code_canton="5941"/><polygon points="390,232 368,223 373,220 367,214 384,203 400,210 405,207 416,210 421,201 427,202 428,198 434,198 429,187 441,185 452,179 460,179 461,185 473,183 479,185 479,194 489,198 500,225 500,232 491,232 491,246 479,244 479,238 471,236 457,247 448,248 442,232 439,232 438,235 430,230 390,232" id="59580" class="commune" fill="steelblue" stroke-width="1" stroke="white" geotype="commune" geoname="Steenvoorde" code_insee="59580" code_canton="5941"/><polygon points="369,243 363,236 390,232 430,230 438,235 439,232 442,232 448,248 440,248 427,261 421,256 421,249 412,247 385,252 372,247 369,243" id="59587" class="commune" fill="steelblue" stroke-width="1" stroke="white" geotype="commune" geoname="Terdeghem" code_insee="59587" code_canton="5941"/><polygon points="87,214 82,210 87,204 105,200 97,191 99,186 108,179 122,183 136,175 141,179 146,176 154,176 153,179 157,184 155,192 159,195 159,195 134,199 128,203 120,208 102,215 101,213 93,219 87,214" id="59628" class="commune" fill="steelblue" stroke-width="1" stroke="white" geotype="commune" geoname="Volckerinckhove" code_insee="59628" code_canton="5941"/><polygon points="394,17 390,20 394,23 392,25 402,36 387,41 377,50 377,63 363,72 346,86 339,88 320,57 312,33 306,28 308,22 329,13 356,10 372,4 378,10 394,17" id="59641" class="commune" fill="steelblue" stroke-width="1" stroke="white" geotype="commune" geoname="Warhem" code_insee="59641" code_canton="5941"/><polygon points="47,212 31,215 34,224 42,228 41,230 30,226 26,227 24,217 26,214 18,202 20,196 24,200 25,187 33,181 33,177 52,185 59,196 68,191 72,194 75,193 74,195 47,212" id="59647" class="commune" fill="steelblue" stroke-width="1" stroke="white" geotype="commune" geoname="Watten" code_insee="59647" code_canton="5941"/><polygon points="307,228 300,232 260,230 264,218 275,216 288,207 298,223 307,228" id="59655" class="commune" fill="steelblue" stroke-width="1" stroke="white" geotype="commune" geoname="Wemaers-Cappel" code_insee="59655" code_canton="5941"/><polygon points="384,106 368,111 365,118 347,118 343,121 341,103 339,88 346,86 363,72 371,82 372,92 384,106" id="59657" class="commune" fill="steelblue" stroke-width="1" stroke="white" geotype="commune" geoname="West-Cappel" code_insee="59657" code_canton="5941"/><polygon points="383,185 394,177 394,167 404,158 420,173 435,165 452,165 458,160 469,158 475,163 474,168 460,179 452,179 441,185 429,187 434,198 428,198 427,202 421,201 416,210 405,207 400,210 384,203 373,194 383,185" id="59662" class="commune" fill="steelblue" stroke-width="1" stroke="white" geotype="commune" geoname="Winnezeele" code_insee="59662" code_canton="5941"/><polygon points="334,199 326,199 321,203 296,181 294,177 302,178 302,173 313,166 302,156 305,154 300,154 298,150 285,140 289,134 296,134 283,114 283,114 295,107 299,113 307,110 323,111 325,111 328,124 338,129 341,129 343,121 347,118 365,118 366,122 370,122 355,131 356,138 344,146 339,153 352,162 364,166 367,165 370,167 356,178 352,176 349,179 334,199" id="59663" class="commune" fill="steelblue" stroke-width="1" stroke="white" geotype="commune" geoname="Wormhout" code_insee="59663" code_canton="5941"/><polygon points="87,204 82,210 87,214 82,218 69,211 66,215 61,214 57,217 47,212 74,195 81,197 87,204" id="59664" class="commune" fill="steelblue" stroke-width="1" stroke="white" geotype="commune" geoname="Wulverdinghe" code_insee="59664" code_canton="5941"/><polygon points="323,111 322,105 335,101 341,103 343,121 341,129 338,129 328,124 325,111 323,111" id="59665" class="commune" fill="steelblue" stroke-width="1" stroke="white" geotype="commune" geoname="Wylder" code_insee="59665" code_canton="5941"/><polygon points="261,166 262,168 227,177 212,161 200,160 192,156 185,145 189,142 175,130 200,117 210,120 222,116 236,134 261,166" id="59666" class="commune" fill="steelblue" stroke-width="1" stroke="white" geotype="commune" geoname="Zegerscappel" code_insee="59666" code_canton="5941"/><polygon points="288,207 284,201 294,191 296,187 293,185 296,181 321,203 315,206 308,219 298,223 288,207" id="59667" class="commune" fill="steelblue" stroke-width="1" stroke="white" geotype="commune" geoname="Zermezeele" code_insee="59667" code_canton="5941"/><polygon points="252,229 260,230 300,232 298,237 298,247 293,255 281,250 284,255 263,269 253,261 240,271 235,267 232,269 220,264 233,250 240,250 244,236 252,229" id="59669" class="commune" fill="steelblue" stroke-width="1" stroke="white" geotype="commune" geoname="Zuytpeene" code_insee="59669" code_canton="5941"/></svg>