<?xml version="1.0" encoding="utf-8"?>
<svg version="1.1" id="svgmap" xmlns="http://www.w3.org/2000/svg" xmlns:xlink="http://www.w3.org/1999/xlink" x="0px" y="0px" width="100%" height="100%" viewBox="0 0 500 402">
<polygon points="500,270 492,290 453,294 442,310 416,307 344,281 351,274 298,265 299,229 311,232 366,211 370,212 422,228 430,245 454,252 462,266 500,270" id="60250" class="commune" fill="steelblue" stroke-width="1" stroke="white" geotype="commune" geoname="Fouquenies" code_insee="60250" code_canton="6001"/><polygon points="216,189 218,170 239,151 282,168 342,169 349,198 366,211 311,232 299,229 250,222 252,213 238,218 230,190 216,189" id="60310" class="commune" fill="steelblue" stroke-width="1" stroke="white" geotype="commune" geoname="Herchies" code_insee="60310" code_canton="6001"/><polygon points="195,130 197,99 165,81 171,64 155,43 184,20 200,19 213,33 240,36 246,57 263,65 258,73 303,74 355,61 397,0 430,0 475,29 485,26 433,97 446,142 416,155 394,185 376,188 373,198 392,210 370,212 366,211 349,198 342,169 282,168 239,151 195,130" id="60403" class="commune" fill="steelblue" stroke-width="1" stroke="white" geotype="commune" geoname="Milly-sur-Thérain" code_insee="60403" code_canton="6001"/><polygon points="217,303 247,284 298,265 351,274 344,281 416,307 440,322 403,339 412,345 357,376 277,347 286,342 269,328 217,303" id="60428" class="commune" fill="steelblue" stroke-width="1" stroke="white" geotype="commune" geoname="Mont-Saint-Adrien" code_insee="60428" code_canton="6001"/><polygon points="216,189 230,190 238,218 252,213 250,222 299,229 298,265 247,284 227,260 136,211 94,227 78,222 54,237 44,212 48,209 73,199 77,193 82,203 132,206 139,191 216,189" id="60490" class="commune" fill="steelblue" stroke-width="1" stroke="white" geotype="commune" geoname="Pierrefitte-en-Beauvaisis" code_insee="60490" code_canton="6001"/><polygon points="87,380 83,360 107,349 111,326 125,329 160,301 172,307 217,303 269,328 286,342 277,347 268,344 198,370 166,363 135,402 104,400 87,380" id="60576" class="commune" fill="steelblue" stroke-width="1" stroke="white" geotype="commune" geoname="Saint-Germain-la-Poterie" code_insee="60576" code_canton="6001"/><polygon points="247,284 217,303 172,307 160,301 125,329 111,326 84,316 55,318 47,300 33,306 39,274 17,265 25,247 0,234 44,212 54,237 78,222 94,227 136,211 227,260 247,284" id="60609" class="commune" fill="steelblue" stroke-width="1" stroke="white" geotype="commune" geoname="Savignies" code_insee="60609" code_canton="6001"/></svg>