<?xml version="1.0" encoding="utf-8"?>
<svg version="1.1" id="svgmap" xmlns="http://www.w3.org/2000/svg" xmlns:xlink="http://www.w3.org/1999/xlink" x="0px" y="0px" width="100%" height="100%" viewBox="0 0 500 203">
<polygon points="57,105 84,109 67,130 55,127 57,105" id="60023" class="commune" fill="steelblue" stroke-width="1" stroke="white" geotype="commune" geoname="Armancourt" code_insee="60023" code_canton="6007"/><polygon points="439,179 436,171 419,168 419,164 407,163 418,156 412,155 422,146 423,131 429,124 441,127 451,127 460,134 476,136 473,145 484,149 474,151 475,158 457,162 448,169 450,174 439,179" id="60145" class="commune" fill="steelblue" stroke-width="1" stroke="white" geotype="commune" geoname="Chelles" code_insee="60145" code_canton="6007"/><polygon points="441,127 429,124 423,122 429,111 422,107 422,104 430,104 437,96 433,96 429,91 435,92 438,86 456,94 447,98 448,111 452,114 444,124 452,126 441,127" id="60184" class="commune" fill="steelblue" stroke-width="1" stroke="white" geotype="commune" geoname="Croutoy" code_insee="60184" code_canton="6007"/><polygon points="372,117 349,118 348,102 358,100 359,93 381,83 392,67 407,67 408,81 412,79 415,85 429,91 433,96 437,96 430,104 422,104 422,107 419,104 406,106 407,108 403,106 392,110 385,116 372,117" id="60188" class="commune" fill="steelblue" stroke-width="1" stroke="white" geotype="commune" geoname="Cuise-la-Motte" code_insee="60188" code_canton="6007"/><polygon points="484,149 473,145 476,136 460,134 451,127 441,127 452,126 444,124 452,114 489,109 490,112 500,112 495,116 495,137 493,146 484,149" id="60305" class="commune" fill="steelblue" stroke-width="1" stroke="white" geotype="commune" geoname="Hautefontaine" code_insee="60305" code_canton="6007"/><polygon points="84,109 57,105 47,94 44,85 48,81 41,70 49,62 53,62 75,59 74,65 109,72 94,82 88,96 84,109" id="60325" class="commune" fill="steelblue" stroke-width="1" stroke="white" geotype="commune" geoname="Jaux" code_insee="60325" code_canton="6007"/><polygon points="0,69 11,68 21,61 17,58 31,49 45,54 49,62 41,70 48,81 44,85 47,94 43,93 26,104 11,105 10,104 12,92 0,86 9,81 0,69" id="60326" class="commune" fill="steelblue" stroke-width="1" stroke="white" geotype="commune" geoname="Jonquières" code_insee="60326" code_canton="6007"/><polygon points="22,3 29,0 37,8 47,9 53,18 62,20 63,26 68,27 68,19 81,22 80,25 53,62 49,62 45,54 31,49 33,38 14,31 17,23 9,12 22,3" id="60337" class="commune" fill="steelblue" stroke-width="1" stroke="white" geotype="commune" geoname="Lachelle" code_insee="60337" code_canton="6007"/><polygon points="172,121 176,146 58,171 54,174 45,164 56,154 58,153 71,141 67,130 84,109 88,96 107,101 125,122 172,121" id="60338" class="commune" fill="steelblue" stroke-width="1" stroke="white" geotype="commune" geoname="Lacroix-Saint-Ouen" code_insee="60338" code_canton="6007"/><polygon points="21,135 11,105 26,104 43,93 47,94 57,105 55,127 67,130 71,141 58,153 41,135 35,133 21,135" id="60402" class="commune" fill="steelblue" stroke-width="1" stroke="white" geotype="commune" geoname="Meux" code_insee="60402" code_canton="6007"/><polygon points="349,118 372,117 379,131 402,138 385,145 391,149 403,147 392,159 381,168 354,178 347,177 341,184 339,186 314,179 309,180 314,177 302,174 307,155 289,119 349,118" id="60491" class="commune" fill="steelblue" stroke-width="1" stroke="white" geotype="commune" geoname="Pierrefonds" code_insee="60491" code_canton="6007"/><polygon points="407,163 392,159 403,147 391,149 385,145 402,138 379,131 372,117 385,116 392,110 403,106 407,108 406,106 419,104 422,107 429,111 423,122 429,124 423,131 422,146 412,155 418,156 407,163" id="60572" class="commune" fill="steelblue" stroke-width="1" stroke="white" geotype="commune" geoname="Saint-Étienne-Roilaye" code_insee="60572" code_canton="6007"/><polygon points="181,179 176,146 172,121 242,120 289,119 307,155 302,174 295,172 294,162 281,166 270,164 262,156 244,166 238,162 228,165 225,170 196,177 188,174 181,179" id="60579" class="commune" fill="steelblue" stroke-width="1" stroke="white" geotype="commune" geoname="Saint-Jean-aux-Bois" code_insee="60579" code_canton="6007"/><polygon points="176,146 181,179 170,180 146,202 143,200 159,189 120,184 120,190 103,194 94,202 88,198 80,203 69,198 80,190 78,179 64,183 54,182 54,174 58,171 176,146" id="60597" class="commune" fill="steelblue" stroke-width="1" stroke="white" geotype="commune" geoname="Saint-Sauveur" code_insee="60597" code_canton="6007"/><polygon points="109,72 74,65 75,59 53,62 80,25 100,35 104,33 116,43 125,44 135,55 116,61 109,72" id="60665" class="commune" fill="steelblue" stroke-width="1" stroke="white" geotype="commune" geoname="Venette" code_insee="60665" code_canton="6007"/><polygon points="348,102 349,118 289,119 242,120 233,90 254,85 274,72 281,71 283,60 293,60 315,68 301,79 309,88 348,102" id="60674" class="commune" fill="steelblue" stroke-width="1" stroke="white" geotype="commune" geoname="Vieux-Moulin" code_insee="60674" code_canton="6007"/></svg>