<?xml version="1.0" encoding="utf-8"?>
<svg version="1.1" id="svgmap" xmlns="http://www.w3.org/2000/svg" xmlns:xlink="http://www.w3.org/1999/xlink" x="0px" y="0px" width="100%" height="100%" viewBox="0 0 500 314">
<polygon points="7,137 12,114 5,109 7,99 12,93 20,93 41,78 83,103 98,125 77,143 48,135 32,140 28,147 13,147 7,137" id="61024" class="commune" fill="steelblue" stroke-width="1" stroke="white" geotype="commune" geoname="Banvou" code_insee="61024" code_canton="6112"/><polygon points="489,215 475,215 466,210 440,206 402,188 381,191 351,180 355,175 375,183 394,177 423,179 428,165 451,167 460,158 471,157 475,151 481,166 498,177 493,183 500,195 489,203 489,215" id="61035" class="commune" fill="steelblue" stroke-width="1" stroke="white" geotype="commune" geoname="Beauvain" code_insee="61035" code_canton="6112"/><polygon points="229,141 158,123 146,120 172,102 175,76 183,67 174,61 174,52 165,50 171,42 165,35 179,24 175,9 197,4 223,18 226,32 236,32 248,31 259,34 283,35 308,45 312,73 307,75 254,101 249,118 229,132 229,141" id="61040" class="commune" fill="steelblue" stroke-width="1" stroke="white" geotype="commune" geoname="Bellou-en-Houlme" code_insee="61040" code_canton="6112"/><polygon points="158,123 229,141 257,143 261,151 256,149 242,154 232,165 205,182 194,176 167,193 127,165 143,155 157,152 172,158 177,151 153,136 162,134 158,123" id="61124" class="commune" fill="steelblue" stroke-width="1" stroke="white" geotype="commune" geoname="Coulonche" code_insee="61124" code_canton="6112"/><polygon points="0,155 3,148 10,150 13,147 28,147 32,140 48,135 77,143 75,145 86,155 97,155 94,169 78,167 77,182 70,179 59,187 35,172 25,173 18,162 0,155" id="61146" class="commune" fill="steelblue" stroke-width="1" stroke="white" geotype="commune" geoname="Dompierre" code_insee="61146" code_canton="6112"/><polygon points="135,45 119,41 119,33 127,30 121,22 134,16 142,1 152,0 175,9 179,24 165,35 135,45" id="61149" class="commune" fill="steelblue" stroke-width="1" stroke="white" geotype="commune" geoname="Échalou" code_insee="61149" code_canton="6112"/><polygon points="146,120 158,123 162,134 153,136 177,151 172,158 157,152 143,155 127,165 105,149 103,155 97,155 86,155 75,145 77,143 98,125 83,103 105,113 131,108 142,108 146,120" id="61163" class="commune" fill="steelblue" stroke-width="1" stroke="white" geotype="commune" geoname="Ferrière-aux-Étangs" code_insee="61163" code_canton="6112"/><polygon points="358,314 340,312 305,297 313,284 282,268 280,254 291,249 292,244 303,245 316,237 321,227 326,227 330,210 350,197 351,180 381,191 402,188 440,206 403,210 384,231 356,245 360,264 372,269 374,286 363,293 365,301 358,314" id="61168" class="commune" fill="steelblue" stroke-width="1" stroke="white" geotype="commune" geoname="Ferté-Macé" code_insee="61168" code_canton="6112"/><polygon points="301,157 300,156 311,147 317,152 350,146 370,120 392,113 414,114 427,97 447,111 447,115 431,132 414,137 406,146 387,149 354,171 301,157" id="61233" class="commune" fill="steelblue" stroke-width="1" stroke="white" geotype="commune" geoname="Lonlay-le-Tesson" code_insee="61233" code_canton="6112"/><polygon points="51,75 44,63 29,66 19,61 15,53 25,40 36,24 43,29 67,14 76,18 88,16 105,12 122,2 142,1 134,16 121,22 127,30 119,33 119,41 75,52 51,75" id="61278" class="commune" fill="steelblue" stroke-width="1" stroke="white" geotype="commune" geoname="Messei" code_insee="61278" code_canton="6112"/><polygon points="41,78 51,75 75,52 119,41 135,45 143,58 137,81 143,89 131,108 105,113 83,103 41,78" id="61362" class="commune" fill="steelblue" stroke-width="1" stroke="white" geotype="commune" geoname="Saint-André-de-Messei" code_insee="61362" code_canton="6112"/><polygon points="355,175 351,180 350,197 330,210 326,227 321,227 316,237 303,245 292,244 285,234 294,228 283,220 281,210 298,194 293,186 303,181 310,170 301,157 354,171 355,175" id="61428" class="commune" fill="steelblue" stroke-width="1" stroke="white" geotype="commune" geoname="Saint-Maurice-du-Désert" code_insee="61428" code_canton="6112"/><polygon points="292,244 291,249 280,254 282,268 277,275 269,272 266,264 254,265 243,261 250,252 241,249 243,241 233,236 225,222 260,215 265,231 271,230 279,238 285,234 292,244" id="61431" class="commune" fill="steelblue" stroke-width="1" stroke="white" geotype="commune" geoname="Saint-Michel-des-Andaines" code_insee="61431" code_canton="6112"/><polygon points="165,35 171,42 165,50 174,52 174,61 183,67 175,76 172,102 146,120 142,108 131,108 143,89 137,81 143,58 135,45 165,35" id="61459" class="commune" fill="steelblue" stroke-width="1" stroke="white" geotype="commune" geoname="Saires-la-Verrerie" code_insee="61459" code_canton="6112"/><polygon points="261,151 300,156 301,157 310,170 303,181 293,186 298,194 281,210 283,220 294,228 285,234 279,238 271,230 265,231 260,215 225,222 233,236 243,241 229,241 152,237 189,211 167,193 194,176 205,182 232,165 242,154 256,149 261,151" id="61463" class="commune" fill="steelblue" stroke-width="1" stroke="white" geotype="commune" geoname="Sauvagère" code_insee="61463" code_canton="6112"/></svg>