<?xml version="1.0" encoding="utf-8"?>
<svg version="1.1" id="svgmap" xmlns="http://www.w3.org/2000/svg" xmlns:xlink="http://www.w3.org/1999/xlink" x="0px" y="0px" width="100%" height="100%" viewBox="0 0 500 395">
<polygon points="197,114 208,123 206,126 221,135 215,177 203,176 197,186 172,187 171,183 148,185 145,174 151,169 144,171 142,165 135,165 127,152 118,153 110,147 108,141 112,139 127,132 138,131 150,119 177,112 189,110 197,114" id="61029" class="commune" fill="steelblue" stroke-width="1" stroke="white" geotype="commune" geoname="Bazoches-sur-Hoëne" code_insee="61029" code_canton="6116"/><polygon points="247,335 249,347 237,349 246,358 236,363 239,365 233,371 200,372 164,371 167,351 157,348 152,340 138,337 143,332 159,338 169,336 169,330 176,329 179,321 212,321 226,316 234,306 240,307 236,318 247,335" id="61037" class="commune" fill="steelblue" stroke-width="1" stroke="white" geotype="commune" geoname="Bellavilliers" code_insee="61037" code_canton="6116"/><polygon points="165,191 170,204 134,215 135,210 127,209 132,201 150,189 165,191" id="61048" class="commune" fill="steelblue" stroke-width="1" stroke="white" geotype="commune" geoname="Boëcé" code_insee="61048" code_canton="6116"/><polygon points="139,84 148,94 146,100 171,104 177,112 150,119 138,131 127,132 112,139 108,141 110,147 103,143 108,137 105,128 97,126 97,116 102,112 97,103 104,96 102,93 118,91 131,82 139,84" id="61087" class="commune" fill="steelblue" stroke-width="1" stroke="white" geotype="commune" geoname="Champeaux-sur-Sarthe" code_insee="61087" code_canton="6116"/><polygon points="462,229 477,229 490,239 490,244 474,255 477,267 468,270 442,260 433,261 437,254 414,250 410,239 409,234 425,231 422,224 462,229" id="61097" class="commune" fill="steelblue" stroke-width="1" stroke="white" geotype="commune" geoname="Chapelle-Montligeon" code_insee="61097" code_canton="6116"/><polygon points="312,286 338,273 335,267 339,260 350,261 358,269 367,268 363,273 372,281 355,288 354,295 340,299 336,294 316,293 312,286" id="61113" class="commune" fill="steelblue" stroke-width="1" stroke="white" geotype="commune" geoname="Comblot" code_insee="61113" code_canton="6116"/><polygon points="433,261 442,260 468,270 463,280 457,276 452,276 444,288 445,296 433,299 426,305 419,304 416,312 411,311 400,302 400,292 389,286 393,278 402,275 410,270 407,261 433,261" id="61118" class="commune" fill="steelblue" stroke-width="1" stroke="white" geotype="commune" geoname="Corbon" code_insee="61118" code_canton="6116"/><polygon points="140,222 155,227 182,224 187,238 203,251 210,253 206,262 213,260 220,268 216,276 206,281 199,281 201,275 196,271 177,275 174,285 161,275 140,282 117,273 128,264 111,251 117,242 106,231 140,222" id="61121" class="commune" fill="steelblue" stroke-width="1" stroke="white" geotype="commune" geoname="Coulimer" code_insee="61121" code_canton="6116"/><polygon points="402,275 403,273 391,269 389,274 380,274 372,281 363,273 367,268 358,269 350,261 339,260 337,237 343,239 362,229 395,243 397,238 410,239 414,250 437,254 433,261 407,261 410,270 402,275" id="61129" class="commune" fill="steelblue" stroke-width="1" stroke="white" geotype="commune" geoname="Courgeon" code_insee="61129" code_canton="6116"/><polygon points="240,242 223,239 209,242 203,251 187,238 182,224 155,227 140,222 134,215 170,204 165,191 172,187 197,186 203,176 215,177 230,177 249,213 242,222 240,242" id="61130" class="commune" fill="steelblue" stroke-width="1" stroke="white" geotype="commune" geoname="Courgeoût" code_insee="61130" code_canton="6116"/><polygon points="498,162 491,164 500,173 498,184 494,188 476,191 461,191 453,195 444,179 425,176 412,180 406,173 397,174 372,168 380,150 369,145 367,138 376,135 402,128 420,128 438,136 438,140 455,146 463,144 466,147 480,147 497,152 498,162" id="61160" class="commune" fill="steelblue" stroke-width="1" stroke="white" geotype="commune" geoname="Feings" code_insee="61160" code_canton="6116"/><polygon points="362,229 343,239 337,237 317,217 336,198 350,194 360,195 362,229" id="61229" class="commune" fill="steelblue" stroke-width="1" stroke="white" geotype="commune" geoname="Loisail" code_insee="61229" code_canton="6116"/><polygon points="372,281 380,274 389,274 391,269 403,273 402,275 393,278 389,286 400,292 400,302 411,311 410,331 404,339 397,339 386,353 369,347 350,332 337,331 336,322 347,305 339,304 340,299 354,295 355,288 372,281" id="61255" class="commune" fill="steelblue" stroke-width="1" stroke="white" geotype="commune" geoname="Mauves-sur-Huisne" code_insee="61255" code_canton="6116"/><polygon points="134,215 140,222 106,231 97,228 94,220 98,215 99,200 82,195 82,188 99,176 99,170 110,165 116,155 118,153 127,152 135,165 142,165 144,171 151,169 145,174 148,185 171,183 172,187 165,191 150,189 132,201 127,209 135,210 134,215" id="61277" class="commune" fill="steelblue" stroke-width="1" stroke="white" geotype="commune" geoname="Mesnière" code_insee="61277" code_canton="6116"/><polygon points="56,379 41,386 39,395 31,389 36,383 28,354 42,346 45,333 40,333 34,326 47,325 53,330 58,328 64,337 71,336 76,340 88,339 99,344 108,342 116,347 119,355 108,366 97,362 56,379" id="61286" class="commune" fill="steelblue" stroke-width="1" stroke="white" geotype="commune" geoname="Montgaudry" code_insee="61286" code_canton="6116"/><polygon points="350,194 336,198 317,217 298,225 296,217 301,216 293,206 285,206 285,198 275,197 270,190 283,170 301,166 310,178 328,182 338,190 349,189 350,194" id="61293" class="commune" fill="steelblue" stroke-width="1" stroke="white" geotype="commune" geoname="Mortagne-au-Perche" code_insee="61293" code_canton="6116"/><polygon points="203,251 209,242 223,239 240,242 248,249 238,261 223,264 220,268 213,260 206,262 210,253 203,251" id="61322" class="commune" fill="steelblue" stroke-width="1" stroke="white" geotype="commune" geoname="Parfondeval" code_insee="61322" code_canton="6116"/><polygon points="119,355 116,347 108,342 99,344 88,339 76,340 71,336 64,337 58,328 53,330 47,325 34,326 23,315 17,294 0,283 7,279 14,286 30,284 35,291 44,293 51,289 50,271 68,262 85,267 90,278 101,275 112,277 117,273 140,282 150,298 151,311 157,314 135,321 129,326 128,330 131,329 129,331 137,334 128,345 129,354 119,355" id="61327" class="commune" fill="steelblue" stroke-width="1" stroke="white" geotype="commune" geoname="Pervenchères" code_insee="61327" code_canton="6116"/><polygon points="247,335 236,318 240,307 234,306 234,290 252,283 266,279 286,279 306,277 312,286 316,293 336,294 340,299 339,304 347,305 336,322 327,319 323,324 318,323 315,317 303,314 299,321 286,318 278,331 247,335" id="61329" class="commune" fill="steelblue" stroke-width="1" stroke="white" geotype="commune" geoname="Pin-la-Garenne" code_insee="61329" code_canton="6116"/><polygon points="339,260 335,267 338,273 312,286 306,277 286,279 289,265 283,263 277,253 269,241 285,236 285,225 298,225 317,217 337,237 339,260" id="61348" class="commune" fill="steelblue" stroke-width="1" stroke="white" geotype="commune" geoname="Réveillon" code_insee="61348" code_canton="6116"/><polygon points="207,19 228,11 230,5 244,2 246,8 268,11 291,4 308,3 301,16 285,28 248,28 233,22 219,25 207,19" id="61363" class="commune" fill="steelblue" stroke-width="1" stroke="white" geotype="commune" geoname="Saint-Aquilin-de-Corbion" code_insee="61363" code_canton="6116"/><polygon points="157,82 139,84 131,82 118,91 102,93 101,92 100,75 106,71 137,53 147,43 154,35 170,31 171,43 190,49 186,61 189,69 185,72 168,73 157,82" id="61367" class="commune" fill="steelblue" stroke-width="1" stroke="white" geotype="commune" geoname="Saint-Aubin-de-Courteraie" code_insee="61367" code_canton="6116"/><polygon points="299,53 307,58 298,73 293,73 279,101 274,102 271,112 275,113 265,125 252,127 224,121 208,123 197,114 217,107 218,100 241,78 257,73 266,73 265,77 271,79 271,74 280,75 286,56 292,52 299,53" id="61373" class="commune" fill="steelblue" stroke-width="1" stroke="white" geotype="commune" geoname="Sainte-Céronne-lès-Mortagne" code_insee="61373" code_canton="6116"/><polygon points="248,249 277,253 283,263 289,265 286,279 266,279 252,283 244,276 249,273 240,269 238,261 248,249" id="61381" class="commune" fill="steelblue" stroke-width="1" stroke="white" geotype="commune" geoname="Saint-Denis-sur-Huisne" code_insee="61381" code_canton="6116"/><polygon points="177,112 171,104 146,100 148,94 139,84 157,82 180,80 177,85 193,95 189,110 177,112" id="61396" class="commune" fill="steelblue" stroke-width="1" stroke="white" geotype="commune" geoname="Saint-Germain-de-Martigny" code_insee="61396" code_canton="6116"/><polygon points="313,112 328,121 321,128 329,128 338,122 348,128 355,126 361,129 336,146 312,155 301,166 283,170 274,164 256,168 250,174 230,177 215,177 221,135 206,126 208,123 224,121 252,127 265,125 275,113 294,104 304,112 313,112" id="61404" class="commune" fill="steelblue" stroke-width="1" stroke="white" geotype="commune" geoname="Saint-Hilaire-le-Châtel" code_insee="61404" code_canton="6116"/><polygon points="143,332 131,329 128,330 129,326 135,321 157,314 151,311 150,298 140,282 161,275 174,285 177,275 196,271 201,275 199,281 206,281 216,276 220,268 223,264 238,261 240,269 249,273 244,276 252,283 234,290 234,306 226,316 212,321 179,321 176,329 169,330 169,336 159,338 143,332" id="61411" class="commune" fill="steelblue" stroke-width="1" stroke="white" geotype="commune" geoname="Saint-Jouin-de-Blavou" code_insee="61411" code_canton="6116"/><polygon points="277,253 248,249 240,242 242,222 249,213 230,177 250,174 256,168 274,164 283,170 270,190 275,197 285,198 285,206 293,206 301,216 296,217 298,225 285,225 285,236 269,241 277,253" id="61414" class="commune" fill="steelblue" stroke-width="1" stroke="white" geotype="commune" geoname="Saint-Langis-lès-Mortagne" code_insee="61414" code_canton="6116"/><polygon points="476,191 462,229 422,224 425,231 409,234 410,239 397,238 395,243 362,229 360,195 369,189 380,190 389,184 399,185 412,180 425,176 444,179 453,195 461,191 476,191" id="61418" class="commune" fill="steelblue" stroke-width="1" stroke="white" geotype="commune" geoname="Saint-Mard-de-Réno" code_insee="61418" code_canton="6116"/><polygon points="170,31 207,19 219,25 219,36 230,49 190,49 171,43 170,31" id="61425" class="commune" fill="steelblue" stroke-width="1" stroke="white" geotype="commune" geoname="Saint-Martin-des-Pézerits" code_insee="61425" code_canton="6116"/><polygon points="189,110 193,95 177,85 180,80 157,82 168,73 185,72 189,69 186,61 190,49 230,49 223,64 241,78 218,100 217,107 197,114 189,110" id="61438" class="commune" fill="steelblue" stroke-width="1" stroke="white" geotype="commune" geoname="Saint-Ouen-de-Sécherouvre" code_insee="61438" code_canton="6116"/><polygon points="365,7 377,6 379,17 348,33 307,36 301,49 296,49 299,53 292,52 286,56 280,75 271,74 271,79 265,77 266,73 257,73 241,78 223,64 230,49 219,36 219,25 233,22 248,28 285,28 301,16 308,3 313,0 321,3 323,12 327,10 325,5 337,12 340,3 356,3 361,11 365,7" id="61475" class="commune" fill="steelblue" stroke-width="1" stroke="white" geotype="commune" geoname="Soligny-la-Trappe" code_insee="61475" code_canton="6116"/><polygon points="361,129 361,129 376,135 367,138 369,145 380,150 372,168 397,174 406,173 412,180 399,185 389,184 380,190 369,189 360,195 350,194 349,189 338,190 328,182 310,178 301,166 312,155 336,146 361,129" id="61507" class="commune" fill="steelblue" stroke-width="1" stroke="white" geotype="commune" geoname="Villiers-sous-Mortagne" code_insee="61507" code_canton="6116"/></svg>