<?xml version="1.0" encoding="utf-8"?>
<svg version="1.1" id="svgmap" xmlns="http://www.w3.org/2000/svg" xmlns:xlink="http://www.w3.org/1999/xlink" x="0px" y="0px" width="100%" height="100%" viewBox="0 0 500 261">
<polygon points="92,32 104,32 118,33 104,48 102,44 88,37 92,32" id="61012" class="commune" fill="steelblue" stroke-width="1" stroke="white" geotype="commune" geoname="Auguaise" code_insee="61012" code_canton="6120"/><polygon points="236,181 225,178 216,178 214,176 208,177 197,173 197,170 211,156 224,155 238,165 236,181" id="61016" class="commune" fill="steelblue" stroke-width="1" stroke="white" geotype="commune" geoname="Autheuil" code_insee="61016" code_canton="6120"/><polygon points="306,59 310,65 320,68 308,72 299,66 290,70 282,70 279,74 262,75 247,81 234,71 244,65 270,60 269,47 251,35 272,30 275,33 295,32 309,40 309,43 302,49 305,50 303,55 311,57 306,59" id="61034" class="commune" fill="steelblue" stroke-width="1" stroke="white" geotype="commune" geoname="Beaulieu" code_insee="61034" code_canton="6120"/><polygon points="157,170 147,166 156,154 155,148 165,146 165,144 174,145 172,153 179,154 174,165 157,170" id="61045" class="commune" fill="steelblue" stroke-width="1" stroke="white" geotype="commune" geoname="Bivilliers" code_insee="61045" code_canton="6120"/><polygon points="262,228 264,227 268,224 279,222 280,219 290,224 297,219 304,223 304,229 308,234 318,234 317,245 319,246 305,253 300,252 296,244 290,240 267,238 262,234 265,231 262,228" id="61046" class="commune" fill="steelblue" stroke-width="1" stroke="white" geotype="commune" geoname="Bizou" code_insee="61046" code_canton="6120"/><polygon points="92,58 104,49 139,51 135,54 126,59 116,70 108,71 97,68 97,61 92,58" id="61052" class="commune" fill="steelblue" stroke-width="1" stroke="white" geotype="commune" geoname="Bonnefoi" code_insee="61052" code_canton="6120"/><polygon points="92,58 97,61 97,68 108,71 116,70 113,80 116,82 113,84 102,85 87,89 73,87 71,83 78,74 75,66 92,58" id="61053" class="commune" fill="steelblue" stroke-width="1" stroke="white" geotype="commune" geoname="Bonsmoulins" code_insee="61053" code_canton="6120"/><polygon points="193,112 164,119 171,110 164,109 159,93 158,86 181,90 187,91 180,97 193,112" id="61059" class="commune" fill="steelblue" stroke-width="1" stroke="white" geotype="commune" geoname="Bresolettes" code_insee="61059" code_canton="6120"/><polygon points="104,32 92,32 81,19 90,8 97,10 103,16 98,22 106,28 104,32" id="61060" class="commune" fill="steelblue" stroke-width="1" stroke="white" geotype="commune" geoname="Brethel" code_insee="61060" code_canton="6120"/><polygon points="147,166 147,166 144,164 139,165 132,161 127,165 121,165 126,161 116,155 133,146 144,138 138,136 143,124 164,119 193,112 178,123 174,145 165,144 165,146 155,148 156,154 147,166" id="61065" class="commune" fill="steelblue" stroke-width="1" stroke="white" geotype="commune" geoname="Bubertré" code_insee="61065" code_canton="6120"/><polygon points="133,146 116,155 110,155 104,149 91,156 89,155 91,148 94,148 103,130 106,129 120,137 117,147 124,148 129,144 133,146" id="61090" class="commune" fill="steelblue" stroke-width="1" stroke="white" geotype="commune" geoname="Champs" code_insee="61090" code_canton="6120"/><polygon points="167,7 172,14 196,29 185,34 165,39 155,44 125,34 146,21 146,13 149,11 154,11 160,7 167,7" id="61100" class="commune" fill="steelblue" stroke-width="1" stroke="white" geotype="commune" geoname="Chapelle-Viel" code_insee="61100" code_canton="6120"/><polygon points="172,14 199,6 215,13 220,17 231,25 240,39 228,46 220,56 219,63 196,77 191,78 183,73 188,48 185,34 196,29 172,14" id="61140" class="commune" fill="steelblue" stroke-width="1" stroke="white" geotype="commune" geoname="Crulai" code_insee="61140" code_canton="6120"/><polygon points="17,49 35,30 35,37 47,41 58,42 80,36 86,39 88,37 102,44 104,48 104,49 92,58 75,66 78,74 71,83 62,85 55,79 32,74 38,67 44,66 41,62 27,59 15,54 17,49" id="61162" class="commune" fill="steelblue" stroke-width="1" stroke="white" geotype="commune" geoname="Ferrière-au-Doyen" code_insee="61162" code_canton="6120"/><polygon points="116,70 126,59 135,54 143,59 142,70 147,77 144,81 150,87 147,89 144,84 134,84 131,90 124,85 125,89 122,90 121,84 116,82 113,80 116,70" id="61187" class="commune" fill="steelblue" stroke-width="1" stroke="white" geotype="commune" geoname="Genettes" code_insee="61187" code_canton="6120"/><polygon points="258,118 269,110 271,112 287,113 298,119 303,117 302,125 308,129 318,142 315,147 291,144 261,146 245,148 242,138 250,135 250,131 253,125 260,119 258,118" id="61206" class="commune" fill="steelblue" stroke-width="1" stroke="white" geotype="commune" geoname="Hôme-Chamondot" code_insee="61206" code_canton="6120"/><polygon points="240,39 251,35 269,47 270,60 244,65 234,71 218,84 205,90 198,90 195,85 198,85 195,83 196,77 219,63 220,56 228,46 240,39" id="61208" class="commune" fill="steelblue" stroke-width="1" stroke="white" geotype="commune" geoname="Irai" code_insee="61208" code_canton="6120"/><polygon points="387,145 389,149 406,158 417,156 429,159 446,166 436,168 435,173 420,181 417,186 404,180 390,188 382,186 378,193 370,186 368,182 370,179 386,173 376,169 376,163 376,150 387,145" id="61220" class="commune" fill="steelblue" stroke-width="1" stroke="white" geotype="commune" geoname="Lande-sur-Eure" code_insee="61220" code_canton="6120"/><polygon points="133,146 129,144 124,148 117,147 120,137 106,129 112,120 117,119 117,122 128,126 143,124 138,136 144,138 133,146" id="61226" class="commune" fill="steelblue" stroke-width="1" stroke="white" geotype="commune" geoname="Lignerolles" code_insee="61226" code_canton="6120"/><polygon points="236,187 236,181 240,183 244,178 272,179 283,182 283,184 286,181 341,183 356,172 363,178 370,179 368,182 370,186 364,196 346,200 336,213 337,217 319,222 310,229 304,229 304,223 297,219 290,224 280,219 279,222 268,224 264,227 259,222 261,216 248,207 250,205 246,205 245,196 236,187" id="61230" class="commune" fill="steelblue" stroke-width="1" stroke="white" geotype="commune" geoname="Longny-au-Perche" code_insee="61230" code_canton="6120"/><polygon points="378,193 389,204 394,203 400,212 389,219 365,228 364,231 368,234 363,240 368,242 355,247 352,254 355,254 354,260 347,261 342,251 319,246 317,245 318,234 308,234 304,229 310,229 319,222 337,217 336,213 346,200 364,196 370,186 378,193" id="61242" class="commune" fill="steelblue" stroke-width="1" stroke="white" geotype="commune" geoname="Mage" code_insee="61242" code_canton="6120"/><polygon points="245,148 261,146 263,162 253,165 244,178 240,183 236,181 238,165 245,148" id="61247" class="commune" fill="steelblue" stroke-width="1" stroke="white" geotype="commune" geoname="Malétable" code_insee="61247" code_canton="6120"/><polygon points="387,145 376,150 376,163 356,158 336,150 315,147 318,142 308,129 302,125 303,117 307,119 311,115 323,115 323,113 338,116 336,125 342,128 348,125 351,128 359,126 362,123 368,121 378,124 385,123 387,145" id="61250" class="commune" fill="steelblue" stroke-width="1" stroke="white" geotype="commune" geoname="Marchainville" code_insee="61250" code_canton="6120"/><polygon points="35,30 46,24 68,26 78,18 81,19 92,32 88,37 86,39 80,36 58,42 47,41 35,37 35,30" id="61259" class="commune" fill="steelblue" stroke-width="1" stroke="white" geotype="commune" geoname="Ménil-Bérard" code_insee="61259" code_canton="6120"/><polygon points="500,205 488,223 475,228 463,224 461,218 451,218 447,215 434,217 427,215 431,208 441,208 449,202 451,197 460,197 466,195 478,198 485,202 500,205" id="61274" class="commune" fill="steelblue" stroke-width="1" stroke="white" geotype="commune" geoname="Menus" code_insee="61274" code_canton="6120"/><polygon points="264,227 262,228 254,234 249,249 246,246 249,237 246,233 250,221 246,215 246,205 250,205 248,207 261,216 259,222 264,227" id="61280" class="commune" fill="steelblue" stroke-width="1" stroke="white" geotype="commune" geoname="Monceaux-au-Perche" code_insee="61280" code_canton="6120"/><polygon points="261,146 291,144 315,147 336,150 356,158 376,163 376,169 386,173 370,179 363,178 356,172 341,183 286,181 283,184 283,182 272,179 244,178 253,165 263,162 261,146" id="61296" class="commune" fill="steelblue" stroke-width="1" stroke="white" geotype="commune" geoname="Moulicent" code_insee="61296" code_canton="6120"/><polygon points="27,59 41,62 44,66 38,67 32,74 55,79 62,85 61,89 47,95 23,102 13,105 12,99 8,98 0,89 9,79 21,73 17,64 27,59" id="61297" class="commune" fill="steelblue" stroke-width="1" stroke="white" geotype="commune" geoname="Moulins-la-Marche" code_insee="61297" code_canton="6120"/><polygon points="370,100 356,117 358,123 362,123 359,126 351,128 348,125 342,128 336,125 338,116 323,113 323,115 311,115 309,107 312,97 320,95 318,90 322,84 315,79 324,67 335,60 347,64 355,64 349,71 357,75 357,80 362,83 361,97 370,100" id="61299" class="commune" fill="steelblue" stroke-width="1" stroke="white" geotype="commune" geoname="Moussonvilliers" code_insee="61299" code_canton="6120"/><polygon points="400,212 394,203 389,204 378,193 382,186 390,188 404,180 417,186 420,181 435,173 436,168 446,166 458,172 460,170 473,179 457,191 466,195 460,197 451,197 449,202 441,208 431,208 427,215 422,215 419,212 413,211 400,212" id="61305" class="commune" fill="steelblue" stroke-width="1" stroke="white" geotype="commune" geoname="Neuilly-sur-Eure" code_insee="61305" code_canton="6120"/><polygon points="247,81 262,75 279,74 282,70 290,70 294,76 291,77 293,82 285,83 288,85 284,89 275,86 260,96 247,92 238,94 233,90 247,81" id="61311" class="commune" fill="steelblue" stroke-width="1" stroke="white" geotype="commune" geoname="Normandel" code_insee="61311" code_canton="6120"/><polygon points="475,228 483,234 488,234 489,244 470,251 466,251 459,252 456,243 463,239 461,238 456,240 453,235 441,237 443,234 437,230 436,224 432,223 447,215 451,218 461,218 463,224 475,228" id="61323" class="commune" fill="steelblue" stroke-width="1" stroke="white" geotype="commune" geoname="Pas-Saint-l'Homer" code_insee="61323" code_canton="6120"/><polygon points="269,110 258,118 233,107 205,119 193,112 235,102 232,99 233,90 238,94 247,92 260,96 263,101 270,104 267,107 269,110" id="61335" class="commune" fill="steelblue" stroke-width="1" stroke="white" geotype="commune" geoname="Poterie-au-Perche" code_insee="61335" code_canton="6120"/><polygon points="112,120 107,116 105,114 108,114 112,106 139,104 159,93 164,109 171,110 164,119 143,124 128,126 117,122 117,119 112,120" id="61338" class="commune" fill="steelblue" stroke-width="1" stroke="white" geotype="commune" geoname="Prépotin" code_insee="61338" code_canton="6120"/><polygon points="181,90 182,87 195,85 198,90 205,90 218,84 234,71 247,81 233,90 232,99 235,102 193,112 180,97 187,91 181,90" id="61343" class="commune" fill="steelblue" stroke-width="1" stroke="white" geotype="commune" geoname="Randonnai" code_insee="61343" code_canton="6120"/><polygon points="41,5 42,4 67,4 77,0 80,6 76,14 78,18 68,26 46,24 42,21 41,5" id="61406" class="commune" fill="steelblue" stroke-width="1" stroke="white" geotype="commune" geoname="Saint-Hilaire-sur-Risle" code_insee="61406" code_canton="6120"/><polygon points="118,33 125,34 155,44 165,39 185,34 188,48 183,73 191,78 196,77 195,83 198,85 195,85 182,87 181,90 158,86 150,87 144,81 147,77 142,70 143,59 135,54 139,51 104,49 104,48 118,33" id="61422" class="commune" fill="steelblue" stroke-width="1" stroke="white" geotype="commune" geoname="Aspres" code_insee="61422" code_canton="6120"/><polygon points="320,68 324,67 315,79 322,84 318,90 320,95 312,97 309,107 311,115 307,119 303,117 298,119 287,113 271,112 269,110 267,107 270,104 263,101 260,96 275,86 284,89 288,85 285,83 293,82 291,77 294,76 290,70 299,66 308,72 320,68" id="61429" class="commune" fill="steelblue" stroke-width="1" stroke="white" geotype="commune" geoname="Saint-Maurice-lès-Charencey" code_insee="61429" code_canton="6120"/><polygon points="231,238 223,231 213,231 222,206 234,205 236,202 238,194 232,189 236,187 245,196 246,205 246,215 250,221 246,233 249,237 246,246 249,249 241,255 242,260 233,259 228,255 227,260 224,259 222,261 236,242 231,238" id="61458" class="commune" fill="steelblue" stroke-width="1" stroke="white" geotype="commune" geoname="Saint-Victor-de-Réno" code_insee="61458" code_canton="6120"/><polygon points="238,165 224,155 211,156 197,170 185,165 174,165 179,154 172,153 174,145 178,123 193,112 205,119 224,130 236,133 244,128 250,131 250,135 242,138 245,148 238,165" id="61491" class="commune" fill="steelblue" stroke-width="1" stroke="white" geotype="commune" geoname="Tourouvre" code_insee="61491" code_canton="6120"/><polygon points="250,131 244,128 236,133 224,130 205,119 233,107 258,118 260,119 253,125 250,131" id="61500" class="commune" fill="steelblue" stroke-width="1" stroke="white" geotype="commune" geoname="Ventrouze" code_insee="61500" code_canton="6120"/></svg>