<?xml version="1.0" encoding="utf-8"?>
<svg version="1.1" id="svgmap" xmlns="http://www.w3.org/2000/svg" xmlns:xlink="http://www.w3.org/1999/xlink" x="0px" y="0px" width="100%" height="100%" viewBox="0 0 431 500">
<polygon points="184,243 271,229 301,213 319,219 346,280 333,300 289,271 282,280 186,278 184,243" id="62133" class="commune" fill="steelblue" stroke-width="1" stroke="white" geotype="commune" geoname="Billy-Montigny" code_insee="62133" code_canton="6226"/><polygon points="202,430 203,414 230,413 220,398 232,405 267,388 287,404 312,388 372,429 393,445 328,481 287,500 240,442 221,450 202,430" id="62148" class="commune" fill="steelblue" stroke-width="1" stroke="white" geotype="commune" geoname="Bois-Bernard" code_insee="62148" code_canton="6226"/><polygon points="319,219 301,213 271,229 184,243 170,238 169,234 188,228 181,216 197,206 178,199 173,165 231,151 333,142 354,146 324,178 342,184 319,219" id="62351" class="commune" fill="steelblue" stroke-width="1" stroke="white" geotype="commune" geoname="Fouquières-lès-Lens" code_insee="62351" code_canton="6226"/><polygon points="194,151 153,157 146,146 124,148 119,135 80,141 62,90 125,80 178,53 194,58 231,21 285,0 405,1 430,18 431,40 389,48 311,104 307,133 333,142 231,151 235,141 194,151" id="62413" class="commune" fill="steelblue" stroke-width="1" stroke="white" geotype="commune" geoname="Harnes" code_insee="62413" code_canton="6226"/><polygon points="0,166 104,155 166,158 194,151 235,141 231,151 173,165 178,199 197,206 181,216 188,228 169,234 71,223 31,195 35,177 0,166" id="62628" class="commune" fill="steelblue" stroke-width="1" stroke="white" geotype="commune" geoname="Noyelles-sous-Lens" code_insee="62628" code_canton="6226"/><polygon points="186,278 282,280 289,271 333,300 357,323 364,338 333,354 343,362 312,388 287,404 267,388 232,405 220,398 182,358 165,362 152,358 182,341 159,334 157,308 186,278" id="62724" class="commune" fill="steelblue" stroke-width="1" stroke="white" geotype="commune" geoname="Rouvroy" code_insee="62724" code_canton="6226"/></svg>