<?xml version="1.0" encoding="utf-8"?>
<svg version="1.1" id="svgmap" xmlns="http://www.w3.org/2000/svg" xmlns:xlink="http://www.w3.org/1999/xlink" x="0px" y="0px" width="100%" height="100%" viewBox="0 0 500 323">
<polygon points="444,95 460,113 500,113 475,136 484,165 458,162 458,173 435,175 442,200 384,220 398,238 318,254 290,293 276,289 290,264 269,249 228,235 205,247 158,222 235,162 256,172 302,145 304,129 279,108 283,92 318,80 348,99 365,92 389,115 444,95" id="62274" class="commune" fill="steelblue" stroke-width="1" stroke="white" geotype="commune" geoname="Dourges" code_insee="62274" code_canton="6227"/><polygon points="28,323 0,260 23,224 4,217 36,184 27,171 52,162 87,176 91,161 123,176 97,234 120,248 69,264 58,299 28,323" id="62587" class="commune" fill="steelblue" stroke-width="1" stroke="white" geotype="commune" geoname="Montigny-en-Gohelle" code_insee="62587" code_canton="6227"/><polygon points="485,34 496,42 470,76 456,71 440,84 444,95 389,115 365,92 348,99 318,80 305,71 267,95 266,71 260,46 229,28 295,24 310,15 298,9 301,0 331,9 349,3 345,13 370,17 382,5 436,10 433,26 462,10 488,12 485,34" id="62637" class="commune" fill="steelblue" stroke-width="1" stroke="white" geotype="commune" geoname="Oignies" code_insee="62637" code_canton="6227"/></svg>