<?xml version="1.0" encoding="utf-8"?>
<svg version="1.1" id="svgmap" xmlns="http://www.w3.org/2000/svg" xmlns:xlink="http://www.w3.org/1999/xlink" x="0px" y="0px" width="100%" height="100%" viewBox="0 0 407 500">
<polygon points="172,70 191,72 216,80 214,98 231,100 239,107 210,107 203,131 212,152 180,157 153,157 171,131 165,122 136,114 134,109 177,82 180,77 172,70" id="63001" class="commune" fill="steelblue" stroke-width="1" stroke="white" geotype="commune" geoname="Aigueperse" code_insee="63001" code_canton="6301"/><polygon points="88,171 88,171 73,149 37,149 34,145 29,149 10,144 0,138 13,133 39,106 65,89 81,101 84,95 91,95 88,101 134,109 136,114 165,122 171,131 153,157 129,151 120,160 107,160 107,170 88,171" id="63012" class="commune" fill="steelblue" stroke-width="1" stroke="white" geotype="commune" geoname="Artonne" code_insee="63012" code_canton="6301"/><polygon points="88,171 107,170 107,160 120,160 129,151 153,157 180,157 212,152 212,157 230,154 250,165 266,182 257,182 198,180 197,209 183,210 138,205 117,209 121,201 111,189 95,182 88,171" id="63013" class="commune" fill="steelblue" stroke-width="1" stroke="white" geotype="commune" geoname="Aubiat" code_insee="63013" code_canton="6301"/><polygon points="212,152 203,131 210,107 239,107 231,100 259,95 280,108 313,108 307,119 317,119 316,125 296,125 295,138 269,145 266,150 278,162 264,167 250,165 230,154 212,157 212,152" id="63061" class="commune" fill="steelblue" stroke-width="1" stroke="white" geotype="commune" geoname="Bussières-et-Pruns" code_insee="63061" code_canton="6301"/><polygon points="201,424 198,419 191,420 193,397 185,398 181,381 226,373 225,369 248,363 251,367 263,365 271,365 268,389 277,392 266,413 257,425 201,424" id="63089" class="commune" fill="steelblue" stroke-width="1" stroke="white" geotype="commune" geoname="Chappes" code_insee="63089" code_canton="6301"/><polygon points="84,95 72,83 96,69 110,65 115,68 129,61 172,70 180,77 177,82 134,109 88,101 91,95 84,95" id="63090" class="commune" fill="steelblue" stroke-width="1" stroke="white" geotype="commune" geoname="Chaptuzat" code_insee="63090" code_canton="6301"/><polygon points="266,413 277,392 315,396 311,421 313,433 295,442 290,429 269,425 266,413" id="63107" class="commune" fill="steelblue" stroke-width="1" stroke="white" geotype="commune" geoname="Chavaroux" code_insee="63107" code_canton="6301"/><polygon points="125,316 119,309 132,284 139,281 174,266 212,291 178,325 161,323 159,329 139,324 125,316" id="63112" class="commune" fill="steelblue" stroke-width="1" stroke="white" geotype="commune" geoname="Clerlande" code_insee="63112" code_canton="6301"/><polygon points="288,17 328,25 337,16 361,24 375,18 372,26 402,24 407,26 402,30 383,33 386,39 371,44 348,66 337,93 319,110 317,119 307,119 313,108 280,108 259,95 268,85 251,53 253,47 267,31 259,31 262,23 275,24 288,17" id="63143" class="commune" fill="steelblue" stroke-width="1" stroke="white" geotype="commune" geoname="Effiat" code_insee="63143" code_canton="6301"/><polygon points="152,371 152,355 141,356 139,324 159,329 161,323 178,325 212,291 217,293 218,298 225,300 229,296 261,311 283,314 286,325 276,324 272,354 260,359 263,365 251,367 248,363 225,369 226,373 181,381 174,381 174,381 190,368 152,371" id="63148" class="commune" fill="steelblue" stroke-width="1" stroke="white" geotype="commune" geoname="Ennezat" code_insee="63148" code_canton="6301"/><polygon points="277,392 268,389 271,365 263,365 260,359 272,354 276,324 286,325 314,323 320,339 332,336 332,340 337,339 331,345 343,355 343,362 339,375 326,377 323,390 315,396 277,392" id="63149" class="commune" fill="steelblue" stroke-width="1" stroke="white" geotype="commune" geoname="Entraigues" code_insee="63149" code_canton="6301"/><polygon points="203,488 202,476 184,464 201,424 257,425 266,413 269,425 290,429 295,442 297,448 253,447 236,456 221,473 223,486 203,488" id="63200" class="commune" fill="steelblue" stroke-width="1" stroke="white" geotype="commune" geoname="Lussat" code_insee="63200" code_canton="6301"/><polygon points="375,438 353,457 343,475 327,481 321,489 266,486 260,500 238,497 223,486 221,473 236,456 253,447 297,448 295,442 313,433 311,421 375,438" id="63213" class="commune" fill="steelblue" stroke-width="1" stroke="white" geotype="commune" geoname="Martres-d'Artière" code_insee="63213" code_canton="6301"/><polygon points="217,293 212,291 174,266 188,260 187,253 193,250 180,236 183,225 191,229 188,235 231,232 246,238 252,242 243,243 244,248 262,267 250,273 236,292 216,289 217,293" id="63215" class="commune" fill="steelblue" stroke-width="1" stroke="white" geotype="commune" geoname="Martres-sur-Morge" code_insee="63215" code_canton="6301"/><polygon points="231,100 214,98 216,80 191,72 202,53 208,42 226,45 243,41 253,47 251,53 268,85 259,95 231,100" id="63240" class="commune" fill="steelblue" stroke-width="1" stroke="white" geotype="commune" geoname="Montpensier" code_insee="63240" code_canton="6301"/><polygon points="8,59 18,46 19,22 43,39 84,44 81,58 96,69 72,83 84,95 81,101 65,89 39,106 26,87 25,74 6,67 8,59" id="63311" class="commune" fill="steelblue" stroke-width="1" stroke="white" geotype="commune" geoname="Saint-Agoulin" code_insee="63311" code_canton="6301"/><polygon points="202,53 196,29 177,32 155,29 143,16 143,3 153,0 192,5 209,0 222,16 232,7 243,10 237,17 262,23 259,31 267,31 253,47 243,41 226,45 208,42 202,53" id="63347" class="commune" fill="steelblue" stroke-width="1" stroke="white" geotype="commune" geoname="Saint-Genès-du-Retz" code_insee="63347" code_canton="6301"/><polygon points="286,325 283,314 261,311 229,296 225,300 218,298 217,293 216,289 236,292 250,273 258,279 290,285 293,278 310,278 303,272 317,264 340,265 357,265 369,259 387,264 388,274 397,276 393,295 382,294 385,312 373,314 344,307 327,316 327,321 314,323 286,325" id="63362" class="commune" fill="steelblue" stroke-width="1" stroke="white" geotype="commune" geoname="Saint-Ignat" code_insee="63362" code_canton="6301"/><polygon points="343,362 343,355 331,345 337,339 332,340 332,336 320,339 314,323 327,321 327,316 344,307 373,314 385,312 398,316 389,335 382,360 343,362" id="63372" class="commune" fill="steelblue" stroke-width="1" stroke="white" geotype="commune" geoname="Saint-Laure" code_insee="63372" code_canton="6301"/><polygon points="267,231 246,238 231,232 188,235 191,229 183,225 180,224 183,210 197,209 198,180 257,182 248,190 255,218 267,231" id="63406" class="commune" fill="steelblue" stroke-width="1" stroke="white" geotype="commune" geoname="Sardon" code_insee="63406" code_canton="6301"/><polygon points="339,229 344,229 340,265 317,264 303,272 310,278 293,278 290,285 258,279 250,273 262,267 244,248 243,243 252,242 246,238 267,231 281,229 284,238 339,229" id="63424" class="commune" fill="steelblue" stroke-width="1" stroke="white" geotype="commune" geoname="Surat" code_insee="63424" code_canton="6301"/><polygon points="257,182 266,182 250,165 264,167 278,162 266,150 269,145 295,138 322,141 318,148 326,157 316,164 329,169 324,173 340,174 345,181 339,229 284,238 281,229 267,231 255,218 248,190 257,182" id="63432" class="commune" fill="steelblue" stroke-width="1" stroke="white" geotype="commune" geoname="Thuret" code_insee="63432" code_canton="6301"/><polygon points="120,265 135,241 146,242 150,232 158,232 176,239 180,224 183,225 180,236 193,250 187,253 188,260 174,266 139,281 120,265" id="63443" class="commune" fill="steelblue" stroke-width="1" stroke="white" geotype="commune" geoname="Varennes-sur-Morge" code_insee="63443" code_canton="6301"/><polygon points="191,72 172,70 129,61 115,68 110,65 96,69 81,58 84,44 43,39 19,22 47,7 52,11 108,17 143,16 155,29 177,32 196,29 202,53 191,72" id="63446" class="commune" fill="steelblue" stroke-width="1" stroke="white" geotype="commune" geoname="Vensat" code_insee="63446" code_canton="6301"/></svg>