<?xml version="1.0" encoding="utf-8"?>
<svg version="1.1" id="svgmap" xmlns="http://www.w3.org/2000/svg" xmlns:xlink="http://www.w3.org/1999/xlink" x="0px" y="0px" width="100%" height="100%" viewBox="0 0 500 299">
<polygon points="391,221 407,224 431,207 435,218 466,228 474,263 441,264 395,299 391,299 374,255 386,251 374,241 391,221" id="63021" class="commune" fill="steelblue" stroke-width="1" stroke="white" geotype="commune" geoname="Authezat" code_insee="63021" code_canton="6321"/><polygon points="217,87 199,97 200,128 167,135 52,124 30,117 38,96 7,94 0,87 15,81 20,63 32,64 47,53 56,63 46,61 48,66 64,68 55,74 58,76 139,88 173,76 166,43 185,38 218,59 217,87" id="63084" class="commune" fill="steelblue" stroke-width="1" stroke="white" geotype="commune" geoname="Chanonat" code_insee="63084" code_canton="6321"/><polygon points="431,207 407,224 391,221 392,197 412,183 402,162 461,166 441,179 452,195 431,207" id="63120" class="commune" fill="steelblue" stroke-width="1" stroke="white" geotype="commune" geoname="Corent" code_insee="63120" code_canton="6321"/><polygon points="200,128 199,97 217,87 220,92 258,84 301,90 321,80 330,81 329,99 288,124 285,141 272,138 221,150 200,128" id="63126" class="commune" fill="steelblue" stroke-width="1" stroke="white" geotype="commune" geoname="Crest" code_insee="63126" code_canton="6321"/><polygon points="473,41 485,39 478,66 456,78 446,128 456,136 494,143 500,151 491,186 461,166 402,162 385,127 373,123 392,112 395,102 406,84 427,76 445,49 473,41" id="63214" class="commune" fill="steelblue" stroke-width="1" stroke="white" geotype="commune" geoname="Martres-de-Veyre" code_insee="63214" code_canton="6321"/><polygon points="321,80 318,64 360,24 377,21 388,51 416,54 427,76 406,84 395,102 329,99 330,81 321,80" id="63262" class="commune" fill="steelblue" stroke-width="1" stroke="white" geotype="commune" geoname="Orcet" code_insee="63262" code_canton="6321"/><polygon points="360,24 318,64 321,80 301,90 258,84 220,92 217,87 218,59 185,38 202,15 245,2 268,24 333,0 346,19 360,24" id="63302" class="commune" fill="steelblue" stroke-width="1" stroke="white" geotype="commune" geoname="Roche-Blanche" code_insee="63302" code_canton="6321"/><polygon points="167,135 200,128 221,150 233,201 173,214 160,149 167,135" id="63315" class="commune" fill="steelblue" stroke-width="1" stroke="white" geotype="commune" geoname="Saint-Amant-Tallende" code_insee="63315" code_canton="6321"/><polygon points="391,221 374,241 386,251 374,255 391,299 373,299 365,287 340,282 311,249 278,239 288,226 285,210 392,197 391,221" id="63413" class="commune" fill="steelblue" stroke-width="1" stroke="white" geotype="commune" geoname="Sauvetat" code_insee="63413" code_canton="6321"/><polygon points="278,239 257,246 233,201 221,150 272,138 285,141 295,185 277,200 285,210 288,226 278,239" id="63425" class="commune" fill="steelblue" stroke-width="1" stroke="white" geotype="commune" geoname="Tallende" code_insee="63425" code_canton="6321"/><polygon points="402,162 412,183 392,197 285,210 277,200 295,185 285,141 288,124 329,99 395,102 392,112 373,123 385,127 402,162" id="63455" class="commune" fill="steelblue" stroke-width="1" stroke="white" geotype="commune" geoname="Veyre-Monton" code_insee="63455" code_canton="6321"/></svg>