<?xml version="1.0" encoding="utf-8"?>
<svg version="1.1" id="svgmap" xmlns="http://www.w3.org/2000/svg" xmlns:xlink="http://www.w3.org/1999/xlink" x="0px" y="0px" width="100%" height="100%" viewBox="0 0 500 466">
<polygon points="209,11 224,0 250,7 242,16 242,24 222,30 218,28 209,17 209,11" id="64041" class="commune" fill="steelblue" stroke-width="1" stroke="white" geotype="commune" geoname="Aressy" code_insee="64041" code_canton="6417"/><polygon points="245,170 266,170 328,140 335,147 336,149 314,166 328,186 324,206 312,213 313,218 288,239 278,246 273,242 284,238 288,231 273,229 269,237 261,235 261,242 243,241 251,228 284,204 240,197 236,190 246,189 245,178 245,170" id="64054" class="commune" fill="steelblue" stroke-width="1" stroke="white" geotype="commune" geoname="Arros-de-Nay" code_insee="64054" code_canton="6417"/><polygon points="326,348 334,341 365,337 368,340 379,334 386,346 407,352 406,369 386,373 392,381 373,389 379,393 351,396 355,401 353,417 346,425 353,404 345,407 342,394 350,388 337,378 358,372 348,356 326,348" id="64058" class="commune" fill="steelblue" stroke-width="1" stroke="white" geotype="commune" geoname="Arthez-d'Asson" code_insee="64058" code_canton="6417"/><polygon points="306,7 317,8 329,11 325,28 344,34 340,47 347,52 344,56 331,51 311,57 322,64 284,98 265,77 258,59 286,45 288,35 304,20 306,7" id="64067" class="commune" fill="steelblue" stroke-width="1" stroke="white" geotype="commune" geoname="Assat" code_insee="64067" code_canton="6417"/><polygon points="288,239 313,218 340,227 347,219 355,222 359,208 374,214 375,228 381,229 384,242 395,247 389,258 393,258 394,260 388,263 410,280 404,292 408,295 402,297 410,306 421,307 429,314 414,329 439,336 480,335 469,339 469,346 474,354 489,359 489,374 466,403 468,411 481,425 493,424 500,431 486,431 467,449 449,451 442,461 421,466 378,449 353,458 340,444 325,452 323,459 271,438 272,418 286,410 281,396 284,390 297,387 290,373 274,366 277,353 292,353 290,343 295,345 306,337 303,344 309,351 326,348 348,356 358,372 337,378 350,388 342,394 345,407 353,404 346,425 353,417 355,401 351,396 379,393 373,389 392,381 386,373 406,369 407,352 386,346 379,334 368,340 365,337 334,341 316,342 316,335 328,330 308,328 306,321 310,322 312,318 303,316 302,304 295,307 312,294 309,290 304,293 292,289 289,287 296,290 300,275 281,269 284,247 297,249 287,256 299,259 300,250 307,252 310,246 288,239" id="64068" class="commune" fill="steelblue" stroke-width="1" stroke="white" geotype="commune" geoname="Asson" code_insee="64068" code_canton="6417"/><polygon points="265,77 284,98 293,107 287,110 289,116 261,125 233,114 265,77" id="64091" class="commune" fill="steelblue" stroke-width="1" stroke="white" geotype="commune" geoname="Baliros" code_insee="64091" code_canton="6417"/><polygon points="233,159 230,163 245,170 245,178 205,172 200,176 202,198 180,217 144,200 125,195 110,197 107,180 119,162 117,153 130,141 130,119 156,113 185,104 208,105 219,97 233,114 214,131 208,151 233,154 233,159" id="64139" class="commune" fill="steelblue" stroke-width="1" stroke="white" geotype="commune" geoname="Bosdarros" code_insee="64139" code_canton="6417"/><polygon points="328,186 314,166 336,149 346,162 353,177 335,187 328,186" id="64145" class="commune" fill="steelblue" stroke-width="1" stroke="white" geotype="commune" geoname="Bourdettes" code_insee="64145" code_canton="6417"/><polygon points="334,341 326,348 309,351 303,344 306,337 295,345 290,343 292,353 277,353 264,349 260,341 273,333 267,326 242,327 228,315 249,306 226,275 231,259 266,248 275,236 288,231 284,238 273,242 278,246 288,239 310,246 307,252 300,250 299,259 287,256 297,249 284,247 281,269 300,275 296,290 289,287 292,289 304,293 309,290 312,294 295,307 302,304 303,316 312,318 310,322 306,321 308,328 328,330 316,335 316,342 334,341" id="64148" class="commune" fill="steelblue" stroke-width="1" stroke="white" geotype="commune" geoname="Bruges-Capbis-Mifaget" code_insee="64148" code_canton="6417"/><polygon points="156,113 130,119 130,141 117,153 119,162 107,180 110,197 101,230 90,227 78,232 89,218 67,213 47,233 0,228 12,198 34,185 30,173 50,164 54,147 54,139 31,118 26,102 25,71 53,67 74,70 132,57 128,90 156,113" id="64230" class="commune" fill="steelblue" stroke-width="1" stroke="white" geotype="commune" geoname="Gan" code_insee="64230" code_canton="6417"/><polygon points="245,178 246,189 236,190 240,197 284,204 251,228 243,241 261,242 261,235 269,237 273,229 288,231 275,236 266,248 231,259 219,244 202,241 201,234 189,228 180,217 202,198 200,176 205,172 245,178" id="64257" class="commune" fill="steelblue" stroke-width="1" stroke="white" geotype="commune" geoname="Haut-de-Bosdarros" code_insee="64257" code_canton="6417"/><polygon points="258,59 239,50 222,30 242,24 242,16 250,7 278,9 287,5 306,7 304,20 288,35 286,45 258,59" id="64376" class="commune" fill="steelblue" stroke-width="1" stroke="white" geotype="commune" geoname="Meillon" code_insee="64376" code_canton="6417"/><polygon points="239,50 258,59 265,77 233,114 219,97 228,58 239,50" id="64413" class="commune" fill="steelblue" stroke-width="1" stroke="white" geotype="commune" geoname="Narcastet" code_insee="64413" code_canton="6417"/><polygon points="381,190 384,193 379,196 388,202 385,215 374,214 359,208 355,222 347,219 340,227 313,218 312,213 324,206 328,186 335,187 353,177 353,191 381,190" id="64417" class="commune" fill="steelblue" stroke-width="1" stroke="white" geotype="commune" geoname="Nay" code_insee="64417" code_canton="6417"/><polygon points="293,107 304,113 320,129 233,159 233,154 208,151 214,131 233,114 261,125 289,116 287,110 293,107" id="64444" class="commune" fill="steelblue" stroke-width="1" stroke="white" geotype="commune" geoname="Pardies-Piétat" code_insee="64444" code_canton="6417"/><polygon points="219,97 208,105 185,104 181,83 173,79 184,74 192,53 218,28 222,30 239,50 228,58 219,97" id="64467" class="commune" fill="steelblue" stroke-width="1" stroke="white" geotype="commune" geoname="Rontignon" code_insee="64467" code_canton="6417"/><polygon points="245,170 230,163 233,159 320,129 328,140 266,170 245,170" id="64469" class="commune" fill="steelblue" stroke-width="1" stroke="white" geotype="commune" geoname="Saint-Abit" code_insee="64469" code_canton="6417"/><polygon points="209,17 218,28 192,53 184,74 173,79 159,60 185,43 184,29 209,17" id="64550" class="commune" fill="steelblue" stroke-width="1" stroke="white" geotype="commune" geoname="Uzos" code_insee="64550" code_canton="6417"/></svg>