<?xml version="1.0" encoding="utf-8"?>
<svg version="1.1" id="svgmap" xmlns="http://www.w3.org/2000/svg" xmlns:xlink="http://www.w3.org/1999/xlink" x="0px" y="0px" width="100%" height="100%" viewBox="0 0 492 500">
<polygon points="292,413 322,425 340,439 330,455 289,458 281,470 273,463 280,461 272,430 286,410 292,413" id="65052" class="commune" fill="steelblue" stroke-width="1" stroke="white" geotype="commune" geoname="Averan" code_insee="65052" code_canton="6509"/><polygon points="174,251 199,259 204,247 272,261 318,253 339,266 305,319 304,320 281,340 282,308 249,302 250,290 239,300 209,295 186,316 177,301 174,251" id="65057" class="commune" fill="steelblue" stroke-width="1" stroke="white" geotype="commune" geoname="Azereix" code_insee="65057" code_canton="6509"/><polygon points="322,425 353,408 379,438 342,458 345,450 330,455 340,439 322,425" id="65067" class="commune" fill="steelblue" stroke-width="1" stroke="white" geotype="commune" geoname="Barry" code_insee="65067" code_canton="6509"/><polygon points="383,435 379,438 353,408 322,425 292,413 346,387 358,368 362,366 377,386 398,393 399,385 417,386 450,412 430,411 406,412 380,421 375,426 383,435" id="65080" class="commune" fill="steelblue" stroke-width="1" stroke="white" geotype="commune" geoname="Bénac" code_insee="65080" code_canton="6509"/><polygon points="6,122 12,117 7,113 24,104 34,94 31,84 41,78 45,68 63,58 112,79 97,113 121,132 133,143 132,162 105,186 101,179 83,171 84,163 71,147 28,139 6,122" id="65185" class="commune" fill="steelblue" stroke-width="1" stroke="white" geotype="commune" geoname="Gardères" code_insee="65185" code_canton="6509"/><polygon points="362,366 389,362 417,386 399,385 398,393 377,386 362,366" id="65220" class="commune" fill="steelblue" stroke-width="1" stroke="white" geotype="commune" geoname="Hibarette" code_insee="65220" code_canton="6509"/><polygon points="408,272 383,311 397,316 384,326 328,326 315,337 305,319 339,266 380,275 403,266 408,272" id="65235" class="commune" fill="steelblue" stroke-width="1" stroke="white" geotype="commune" geoname="Juillan" code_insee="65235" code_canton="6509"/><polygon points="56,419 13,405 32,391 35,371 50,343 64,345 76,372 93,372 100,349 158,349 153,386 140,391 112,387 101,394 87,390 56,419" id="65252" class="commune" fill="steelblue" stroke-width="1" stroke="white" geotype="commune" geoname="Lamarque-Pontacq" code_insee="65252" code_canton="6509"/><polygon points="292,413 286,410 277,409 270,388 275,377 294,357 312,356 311,362 348,359 358,368 346,387 292,413" id="65257" class="commune" fill="steelblue" stroke-width="1" stroke="white" geotype="commune" geoname="Lanne" code_insee="65257" code_canton="6509"/><polygon points="432,459 421,449 401,442 399,445 383,435 375,426 380,421 406,412 430,411 431,416 415,419 415,426 445,441 454,450 452,458 432,459" id="65268" class="commune" fill="steelblue" stroke-width="1" stroke="white" geotype="commune" geoname="Layrisse" code_insee="65268" code_canton="6509"/><polygon points="427,493 439,486 423,465 432,459 452,458 475,461 488,462 489,479 480,491 487,500 465,493 439,496 427,493" id="65281" class="commune" fill="steelblue" stroke-width="1" stroke="white" geotype="commune" geoname="Loucrup" code_insee="65281" code_canton="6509"/><polygon points="389,362 362,366 358,368 348,359 311,362 312,356 294,357 304,320 305,319 315,337 328,326 384,326 390,327 403,340 389,362" id="65284" class="commune" fill="steelblue" stroke-width="1" stroke="white" geotype="commune" geoname="Louey" code_insee="65284" code_canton="6509"/><polygon points="81,206 78,206 41,210 35,199 32,185 10,166 0,143 6,122 28,139 71,147 84,163 83,171 101,179 79,191 81,206" id="65292" class="commune" fill="steelblue" stroke-width="1" stroke="white" geotype="commune" geoname="Luquet" code_insee="65292" code_canton="6509"/><polygon points="379,438 383,435 399,445 401,442 421,449 432,459 423,465 439,486 427,493 422,497 403,494 391,485 378,482 370,465 344,462 342,458 379,438" id="65339" class="commune" fill="steelblue" stroke-width="1" stroke="white" geotype="commune" geoname="Orincles" code_insee="65339" code_canton="6509"/><polygon points="304,320 294,357 275,377 252,388 208,429 207,415 193,420 173,411 153,386 158,349 145,251 174,251 177,301 186,316 209,295 239,300 250,290 249,302 282,308 281,340 304,320" id="65344" class="commune" fill="steelblue" stroke-width="1" stroke="white" geotype="commune" geoname="Ossun" code_insee="65344" code_canton="6509"/><polygon points="158,20 155,42 157,56 142,67 142,66 105,60 93,52 65,55 55,34 55,12 70,0 116,9 158,20" id="65422" class="commune" fill="steelblue" stroke-width="1" stroke="white" geotype="commune" geoname="Séron" code_insee="65422" code_canton="6509"/><polygon points="430,411 450,412 474,403 462,433 487,441 492,454 475,461 452,458 454,450 445,441 415,426 415,419 431,416 430,411" id="65479" class="commune" fill="steelblue" stroke-width="1" stroke="white" geotype="commune" geoname="Visker" code_insee="65479" code_canton="6509"/></svg>