<?xml version="1.0" encoding="utf-8"?>
<svg version="1.1" id="svgmap" xmlns="http://www.w3.org/2000/svg" xmlns:xlink="http://www.w3.org/1999/xlink" x="0px" y="0px" width="100%" height="100%" viewBox="0 0 500 247">
<polygon points="385,15 393,36 363,48 344,67 312,81 284,78 271,67 278,60 264,47 269,37 288,44 286,33 385,15" id="66002" class="commune" fill="steelblue" stroke-width="1" stroke="white" geotype="commune" geoname="Alénya" code_insee="66002" code_canton="6612"/><polygon points="6,109 9,102 45,107 73,86 129,112 139,144 133,154 110,179 101,181 97,176 76,193 46,192 43,175 12,172 15,158 0,136 6,109" id="66011" class="commune" fill="steelblue" stroke-width="1" stroke="white" geotype="commune" geoname="Bages" code_insee="66011" code_canton="6612"/><polygon points="271,67 284,78 302,100 295,113 233,127 181,98 196,69 220,86 235,83 234,74 248,78 271,67" id="66059" class="commune" fill="steelblue" stroke-width="1" stroke="white" geotype="commune" geoname="Corneilla-del-Vercol" code_insee="66059" code_canton="6612"/><polygon points="498,161 500,177 427,181 409,195 313,204 224,207 198,189 177,185 157,162 133,154 139,144 194,156 217,150 233,127 295,113 302,100 284,78 312,81 344,67 334,115 350,127 379,175 408,176 440,159 446,171 482,171 498,161" id="66065" class="commune" fill="steelblue" stroke-width="1" stroke="white" geotype="commune" geoname="Elne" code_insee="66065" code_canton="6612"/><polygon points="440,159 408,176 379,175 350,127 405,120 414,132 408,151 440,159" id="66094" class="commune" fill="steelblue" stroke-width="1" stroke="white" geotype="commune" geoname="Latour-Bas-Elne" code_insee="66094" code_canton="6612"/><polygon points="139,144 129,112 73,86 80,78 139,95 181,98 233,127 217,150 194,156 139,144" id="66114" class="commune" fill="steelblue" stroke-width="1" stroke="white" geotype="commune" geoname="Montescot" code_insee="66114" code_canton="6612"/><polygon points="76,193 97,176 101,181 110,179 133,154 157,162 177,185 198,189 224,207 212,238 198,247 148,241 116,208 76,193" id="66129" class="commune" fill="steelblue" stroke-width="1" stroke="white" geotype="commune" geoname="Ortaffa" code_insee="66129" code_canton="6612"/><polygon points="269,37 264,47 278,60 271,67 248,78 234,74 235,83 220,86 196,69 185,38 192,22 182,12 246,33 264,30 269,37" id="66208" class="commune" fill="steelblue" stroke-width="1" stroke="white" geotype="commune" geoname="Théza" code_insee="66208" code_canton="6612"/><polygon points="196,69 181,98 139,95 80,78 62,66 68,46 53,30 61,22 76,16 60,9 66,0 102,3 117,22 140,14 182,12 192,22 185,38 196,69" id="66227" class="commune" fill="steelblue" stroke-width="1" stroke="white" geotype="commune" geoname="Villeneuve-de-la-Raho" code_insee="66227" code_canton="6612"/></svg>