<?xml version="1.0" encoding="utf-8"?>
<svg version="1.1" id="svgmap" xmlns="http://www.w3.org/2000/svg" xmlns:xlink="http://www.w3.org/1999/xlink" x="0px" y="0px" width="100%" height="100%" viewBox="0 0 500 317">
<polygon points="317,130 326,121 337,96 350,93 359,96 364,104 359,115 377,117 383,124 384,127 371,131 317,130" id="67014" class="commune" fill="steelblue" stroke-width="1" stroke="white" geotype="commune" geoname="Auenheim" code_insee="67014" code_canton="6701"/><polygon points="150,201 140,209 140,221 127,229 120,228 86,247 77,239 53,241 57,221 43,210 59,200 29,187 25,174 32,167 45,155 55,160 62,157 70,162 74,159 110,190 138,197 144,203 150,201" id="67046" class="commune" fill="steelblue" stroke-width="1" stroke="white" geotype="commune" geoname="Bischwiller" code_insee="67046" code_canton="6701"/><polygon points="338,155 332,174 348,195 326,201 291,197 291,192 274,186 264,191 261,184 267,179 253,178 253,167 262,171 271,164 299,167 321,158 338,155" id="67082" class="commune" fill="steelblue" stroke-width="1" stroke="white" geotype="commune" geoname="Dalhunden" code_insee="67082" code_canton="6701"/><polygon points="253,167 253,178 267,179 261,184 264,191 274,186 291,192 291,197 274,201 267,208 264,246 251,236 235,241 238,225 225,227 192,212 185,213 188,211 171,204 171,199 158,198 168,189 165,186 194,166 197,167 247,160 253,167" id="67106" class="commune" fill="steelblue" stroke-width="1" stroke="white" geotype="commune" geoname="Drusenheim" code_insee="67106" code_canton="6701"/><polygon points="406,43 359,26 362,23 365,23 388,0 410,9 414,18 424,16 435,30 429,40 419,43 406,43" id="67140" class="commune" fill="steelblue" stroke-width="1" stroke="white" geotype="commune" geoname="Forstfeld" code_insee="67140" code_canton="6701"/><polygon points="348,195 332,174 338,155 350,146 366,148 392,141 384,127 383,124 386,120 394,124 406,121 408,112 414,110 419,113 433,98 445,99 447,96 433,89 433,82 440,79 458,84 455,88 443,90 473,102 458,112 465,129 432,148 389,147 371,153 364,159 358,184 348,195" id="67142" class="commune" fill="steelblue" stroke-width="1" stroke="white" geotype="commune" geoname="Fort-Louis" code_insee="67142" code_canton="6701"/><polygon points="185,213 192,212 225,227 238,225 235,241 225,239 214,242 205,264 183,265 146,274 100,272 112,254 105,244 123,233 131,234 141,228 153,236 170,217 185,213" id="67194" class="commune" fill="steelblue" stroke-width="1" stroke="white" geotype="commune" geoname="Herrlisheim" code_insee="67194" code_canton="6701"/><polygon points="74,159 70,162 62,157 55,160 45,155 32,167 0,150 28,137 15,127 26,124 47,141 43,133 49,132 59,145 55,147 58,151 74,159" id="67230" class="commune" fill="steelblue" stroke-width="1" stroke="white" geotype="commune" geoname="Kaltenhouse" code_insee="67230" code_canton="6701"/><polygon points="359,26 406,43 381,50 394,52 364,50 349,43 352,29 359,26" id="67231" class="commune" fill="steelblue" stroke-width="1" stroke="white" geotype="commune" geoname="Kauffenheim" code_insee="67231" code_canton="6701"/><polygon points="359,26 352,29 349,43 364,50 394,52 391,69 366,62 346,65 331,76 331,72 314,70 315,59 329,45 330,38 334,38 325,35 302,50 246,44 254,21 267,25 307,21 314,25 324,22 339,24 362,23 359,26" id="67264" class="commune" fill="steelblue" stroke-width="1" stroke="white" geotype="commune" geoname="Leutenheim" code_insee="67264" code_canton="6701"/><polygon points="490,83 500,83 492,103 465,129 458,112 473,102 443,90 455,88 458,84 481,92 490,83" id="67319" class="commune" fill="steelblue" stroke-width="1" stroke="white" geotype="commune" geoname="Neuhaeusel" code_insee="67319" code_canton="6701"/><polygon points="59,145 116,137 139,135 166,154 188,160 194,166 165,186 168,189 158,198 150,201 144,203 138,197 110,190 74,159 58,151 55,147 59,145" id="67345" class="commune" fill="steelblue" stroke-width="1" stroke="white" geotype="commune" geoname="Oberhoffen-sur-Moder" code_insee="67345" code_canton="6701"/><polygon points="235,241 251,236 264,246 259,262 192,317 176,310 181,302 171,300 168,292 109,285 95,276 100,272 146,274 183,265 205,264 214,242 225,239 235,241" id="67356" class="commune" fill="steelblue" stroke-width="1" stroke="white" geotype="commune" geoname="Offendorf" code_insee="67356" code_canton="6701"/><polygon points="383,124 377,117 359,115 364,104 359,96 361,78 338,81 327,78 331,76 346,65 366,62 391,69 403,74 403,78 422,81 424,90 433,89 447,96 445,99 433,98 419,113 414,110 408,112 406,121 394,124 386,120 383,124" id="67405" class="commune" fill="steelblue" stroke-width="1" stroke="white" geotype="commune" geoname="Rœschwoog" code_insee="67405" code_canton="6701"/><polygon points="127,229 140,221 140,209 150,201 158,198 171,199 171,204 188,211 185,213 170,217 153,236 141,228 131,234 123,233 127,229" id="67407" class="commune" fill="steelblue" stroke-width="1" stroke="white" geotype="commune" geoname="Rohrwiller" code_insee="67407" code_canton="6701"/><polygon points="394,52 381,50 406,43 419,43 451,66 457,63 479,71 490,83 481,92 458,84 440,79 433,82 433,89 424,90 422,81 403,78 403,74 391,69 394,52" id="67409" class="commune" fill="steelblue" stroke-width="1" stroke="white" geotype="commune" geoname="Roppenheim" code_insee="67409" code_canton="6701"/><polygon points="359,96 350,93 337,96 326,121 320,117 312,123 313,118 294,116 274,101 284,98 300,76 314,70 331,72 331,76 327,78 338,81 361,78 359,96" id="67418" class="commune" fill="steelblue" stroke-width="1" stroke="white" geotype="commune" geoname="Rountzenheim" code_insee="67418" code_canton="6701"/><polygon points="197,167 194,166 188,160 166,154 139,135 116,137 120,131 137,130 138,125 161,123 161,121 176,122 186,128 190,123 204,120 212,122 216,134 210,136 197,167" id="67449" class="commune" fill="steelblue" stroke-width="1" stroke="white" geotype="commune" geoname="Schirrhein" code_insee="67449" code_canton="6701"/><polygon points="176,122 195,114 214,113 204,120 190,123 186,128 176,122" id="67450" class="commune" fill="steelblue" stroke-width="1" stroke="white" geotype="commune" geoname="Schirrhoffen" code_insee="67450" code_canton="6701"/><polygon points="326,121 317,130 315,151 321,158 299,167 271,164 262,171 253,167 247,160 257,152 253,136 271,128 264,104 274,101 294,116 313,118 312,123 320,117 326,121" id="67465" class="commune" fill="steelblue" stroke-width="1" stroke="white" geotype="commune" geoname="Sessenheim" code_insee="67465" code_canton="6701"/><polygon points="247,160 197,167 210,136 216,134 212,122 215,115 224,110 222,104 227,104 238,92 247,94 248,91 240,91 239,73 248,75 257,65 256,68 263,69 275,62 263,73 272,70 291,78 300,76 284,98 274,101 264,104 271,128 253,136 257,152 247,160" id="67472" class="commune" fill="steelblue" stroke-width="1" stroke="white" geotype="commune" geoname="Soufflenheim" code_insee="67472" code_canton="6701"/><polygon points="317,130 371,131 384,127 392,141 366,148 350,146 338,155 321,158 315,151 317,130" id="67476" class="commune" fill="steelblue" stroke-width="1" stroke="white" geotype="commune" geoname="Stattmatten" code_insee="67476" code_canton="6701"/></svg>