<?xml version="1.0" encoding="utf-8"?>
<svg version="1.1" id="svgmap" xmlns="http://www.w3.org/2000/svg" xmlns:xlink="http://www.w3.org/1999/xlink" x="0px" y="0px" width="100%" height="100%" viewBox="0 0 500 263">
<polygon points="355,145 364,134 369,128 374,130 398,139 426,142 433,146 427,153 450,157 444,167 439,166 410,164 392,166 387,169 364,157 355,155 356,152 351,150 355,145" id="67011" class="commune" fill="steelblue" stroke-width="1" stroke="white" geotype="commune" geoname="Artolsheim" code_insee="67011" code_canton="6716"/><polygon points="347,96 346,104 332,132 315,130 308,117 301,118 297,115 298,98 277,93 264,91 259,80 262,81 280,78 286,87 310,94 317,95 322,89 348,93 347,96" id="67019" class="commune" fill="steelblue" stroke-width="1" stroke="white" geotype="commune" geoname="Baldenheim" code_insee="67019" code_canton="6716"/><polygon points="441,51 446,58 440,56 438,62 424,68 408,62 399,66 389,58 393,41 409,31 429,34 428,43 436,44 441,51" id="67040" class="commune" fill="steelblue" stroke-width="1" stroke="white" geotype="commune" geoname="Bindernheim" code_insee="67040" code_canton="6716"/><polygon points="364,134 355,145 351,142 329,136 332,132 346,104 355,114 352,118 358,119 355,124 367,129 364,134" id="67053" class="commune" fill="steelblue" stroke-width="1" stroke="white" geotype="commune" geoname="Bœsenbiesen" code_insee="67053" code_canton="6716"/><polygon points="439,166 424,177 402,172 378,183 359,180 339,168 343,163 349,165 351,161 357,163 364,157 387,169 392,166 410,164 439,166" id="67056" class="commune" fill="steelblue" stroke-width="1" stroke="white" geotype="commune" geoname="Bootzheim" code_insee="67056" code_canton="6716"/><polygon points="177,70 169,86 130,85 126,81 129,77 109,68 110,61 104,58 96,63 89,58 74,60 72,58 81,54 65,50 71,43 71,37 67,37 72,31 83,32 81,27 88,24 87,29 95,42 132,49 148,43 155,46 154,51 161,51 160,57 169,65 168,69 177,70" id="67073" class="commune" fill="steelblue" stroke-width="1" stroke="white" geotype="commune" geoname="Châtenois" code_insee="67073" code_canton="6716"/><polygon points="139,17 153,15 158,21 169,21 170,33 162,34 151,31 145,20 139,17" id="67094" class="commune" fill="steelblue" stroke-width="1" stroke="white" geotype="commune" geoname="Dieffenthal" code_insee="67094" code_canton="6716"/><polygon points="233,30 244,14 257,6 256,4 272,2 264,4 299,12 293,23 303,27 291,37 291,47 288,50 281,51 282,53 278,53 274,60 263,60 266,55 256,54 241,46 238,51 235,50 233,42 239,37 229,37 233,30" id="67115" class="commune" fill="steelblue" stroke-width="1" stroke="white" geotype="commune" geoname="Ebersheim" code_insee="67115" code_canton="6716"/><polygon points="284,55 282,53 281,51 288,50 291,47 291,37 303,27 293,23 299,12 322,0 330,17 335,19 335,25 325,35 326,45 317,52 314,47 307,50 308,53 304,52 301,47 288,57 284,55" id="67116" class="commune" fill="steelblue" stroke-width="1" stroke="white" geotype="commune" geoname="Ebersmunster" code_insee="67116" code_canton="6716"/><polygon points="303,205 295,226 236,217 237,214 230,213 232,202 227,201 233,196 234,185 288,195 292,202 303,205" id="67121" class="commune" fill="steelblue" stroke-width="1" stroke="white" geotype="commune" geoname="Elsenheim" code_insee="67121" code_canton="6716"/><polygon points="316,155 310,165 306,174 300,168 299,171 276,167 276,164 244,150 252,142 265,143 316,155" id="67187" class="commune" fill="steelblue" stroke-width="1" stroke="white" geotype="commune" geoname="Heidolsheim" code_insee="67187" code_canton="6716"/><polygon points="310,165 316,155 329,136 351,142 355,145 351,150 356,152 355,155 364,157 357,163 351,161 349,165 343,163 339,168 336,170 318,167 316,170 310,165" id="67195" class="commune" fill="steelblue" stroke-width="1" stroke="white" geotype="commune" geoname="Hessenheim" code_insee="67195" code_canton="6716"/><polygon points="409,31 393,41 389,58 375,61 373,67 368,67 369,70 355,74 348,68 327,63 317,52 326,45 325,35 335,25 335,19 330,17 341,9 354,8 380,8 384,4 393,6 396,17 409,25 409,31" id="67196" class="commune" fill="steelblue" stroke-width="1" stroke="white" geotype="commune" geoname="Hilsenheim" code_insee="67196" code_canton="6716"/><polygon points="56,68 74,60 89,58 96,63 104,58 110,61 109,68 129,77 126,81 130,85 169,86 164,101 170,102 149,118 131,105 113,106 96,98 85,98 71,92 49,94 49,80 53,72 56,68" id="67239" class="commune" fill="steelblue" stroke-width="1" stroke="white" geotype="commune" geoname="Kintzheim" code_insee="67239" code_canton="6716"/><polygon points="339,168 359,180 378,183 402,172 424,177 439,166 444,167 433,183 411,203 390,191 370,194 366,199 351,193 312,188 315,182 311,178 316,170 318,167 336,170 339,168" id="67277" class="commune" fill="steelblue" stroke-width="1" stroke="white" geotype="commune" geoname="Mackenheim" code_insee="67277" code_canton="6716"/><polygon points="295,226 303,205 312,188 351,193 366,199 370,194 390,191 411,203 396,218 394,245 373,257 368,263 317,259 294,256 292,253 288,247 295,226" id="67281" class="commune" fill="steelblue" stroke-width="1" stroke="white" geotype="commune" geoname="Marckolsheim" code_insee="67281" code_canton="6716"/><polygon points="316,155 265,143 270,131 261,130 277,93 298,98 297,115 301,118 308,117 315,130 332,132 329,136 316,155" id="67310" class="commune" fill="steelblue" stroke-width="1" stroke="white" geotype="commune" geoname="Mussig" code_insee="67310" code_canton="6716"/><polygon points="348,93 322,89 317,95 310,94 286,87 280,78 262,81 266,75 271,76 284,55 288,57 301,47 304,52 308,53 307,50 314,47 317,52 327,63 348,68 355,74 348,93" id="67311" class="commune" fill="steelblue" stroke-width="1" stroke="white" geotype="commune" geoname="Muttersholtz" code_insee="67311" code_canton="6716"/><polygon points="234,164 239,157 244,150 276,164 276,167 299,171 300,168 306,174 310,165 316,170 311,178 315,182 312,188 303,205 292,202 288,195 234,185 234,164" id="67360" class="commune" fill="steelblue" stroke-width="1" stroke="white" geotype="commune" geoname="Ohnenheim" code_insee="67360" code_canton="6716"/><polygon points="31,80 38,83 53,72 49,80 49,94 71,92 85,98 96,98 113,106 131,105 149,118 150,123 161,127 159,130 151,131 144,125 146,121 111,113 81,99 46,105 25,93 30,88 31,80" id="67362" class="commune" fill="steelblue" stroke-width="1" stroke="white" geotype="commune" geoname="Orschwiller" code_insee="67362" code_canton="6716"/><polygon points="382,117 390,120 425,131 432,134 426,142 398,139 374,130 382,117" id="67398" class="commune" fill="steelblue" stroke-width="1" stroke="white" geotype="commune" geoname="Richtolsheim" code_insee="67398" code_canton="6716"/><polygon points="390,120 393,116 397,117 400,111 405,113 409,113 415,105 419,106 422,103 435,105 436,107 438,108 445,107 445,109 449,109 450,112 454,113 451,118 445,117 445,130 436,128 425,131 390,120" id="67422" class="commune" fill="steelblue" stroke-width="1" stroke="white" geotype="commune" geoname="Saasenheim" code_insee="67422" code_canton="6716"/><polygon points="428,99 432,90 435,91 437,88 439,89 440,86 475,93 472,98 473,104 457,101 456,103 445,99 443,101 435,100 434,101 428,99" id="67422" class="commune" fill="steelblue" stroke-width="1" stroke="white" geotype="commune" geoname="Saasenheim" code_insee="67422" code_canton="6716"/><polygon points="177,70 168,69 169,65 160,57 161,51 154,51 155,46 148,43 132,49 95,42 87,29 88,24 88,24 91,23 106,20 110,16 116,20 120,17 124,19 139,17 145,20 151,31 162,34 170,33 194,24 197,31 215,28 233,30 229,37 206,56 187,62 185,69 177,70" id="67445" class="commune" fill="steelblue" stroke-width="1" stroke="white" geotype="commune" geoname="Scherwiller" code_insee="67445" code_canton="6716"/><polygon points="454,113 458,115 460,111 462,112 465,107 470,108 469,109 476,106 479,102 480,98 488,95 487,92 499,92 482,134 450,157 427,153 433,146 426,142 432,134 425,131 436,128 445,130 445,117 451,118 454,113" id="67453" class="commune" fill="steelblue" stroke-width="1" stroke="white" geotype="commune" geoname="Schœnau" code_insee="67453" code_canton="6716"/><polygon points="346,104 347,96 360,108 378,114 378,116 382,117 374,130 369,128 364,134 367,129 355,124 358,119 352,118 355,114 346,104" id="67461" class="commune" fill="steelblue" stroke-width="1" stroke="white" geotype="commune" geoname="Schwobsheim" code_insee="67461" code_canton="6716"/><polygon points="186,139 159,130 161,127 150,123 149,118 170,102 164,101 169,86 177,70 185,69 187,62 206,56 229,37 239,37 233,42 235,50 238,51 241,46 256,54 266,55 263,60 274,60 278,53 282,53 284,55 271,76 266,75 262,81 259,80 264,91 277,93 261,130 270,131 265,143 252,142 244,150 239,157 205,147 196,138 186,139" id="67462" class="commune" fill="steelblue" stroke-width="1" stroke="white" geotype="commune" geoname="Sélestat" code_insee="67462" code_canton="6716"/><polygon points="483,66 482,69 487,73 484,78 488,83 500,88 499,92 487,92 488,95 480,98 479,102 476,106 469,109 470,108 465,107 462,112 460,111 458,115 454,113 450,112 449,109 445,109 445,107 438,108 436,107 435,105 422,103 419,106 415,105 409,113 405,113 400,111 397,117 393,116 390,120 382,117 378,116 378,114 384,101 384,99 379,98 379,95 384,95 388,90 395,91 406,75 409,75 411,73 419,74 423,71 441,73 447,68 454,69 455,68 458,69 459,71 462,70 467,72 468,69 472,71 476,70 483,66" id="67486" class="commune" fill="steelblue" stroke-width="1" stroke="white" geotype="commune" geoname="Sundhouse" code_insee="67486" code_canton="6716"/><polygon points="74,60 56,68 18,74 3,71 1,67 14,56 0,45 1,41 13,36 11,46 19,49 30,47 33,51 29,53 35,54 60,38 67,37 71,37 71,43 65,50 81,54 72,58 74,60" id="67505" class="commune" fill="steelblue" stroke-width="1" stroke="white" geotype="commune" geoname="Vancelle" code_insee="67505" code_canton="6716"/><polygon points="447,68 441,73 423,71 419,74 411,73 409,75 406,75 395,91 388,90 384,95 379,95 379,98 384,99 384,101 378,114 360,108 347,96 348,93 355,74 369,70 368,67 373,67 375,61 389,58 399,66 408,62 424,68 438,62 440,56 446,58 452,59 447,68" id="67547" class="commune" fill="steelblue" stroke-width="1" stroke="white" geotype="commune" geoname="Wittisheim" code_insee="67547" code_canton="6716"/></svg>