<?xml version="1.0" encoding="utf-8"?>
<svg version="1.1" id="svgmap" xmlns="http://www.w3.org/2000/svg" xmlns:xlink="http://www.w3.org/1999/xlink" x="0px" y="0px" width="100%" height="100%" viewBox="0 0 500 429">
<polygon points="350,394 363,378 385,364 374,353 392,337 399,346 429,355 383,402 351,395 350,394" id="68011" class="commune" fill="steelblue" stroke-width="1" stroke="white" geotype="commune" geoname="Aspach-le-Bas" code_insee="68011" code_canton="6803"/><polygon points="335,342 337,335 352,326 363,328 367,325 386,331 392,337 374,353 385,364 363,378 311,365 332,351 335,342" id="68012" class="commune" fill="steelblue" stroke-width="1" stroke="white" geotype="commune" geoname="Aspach-le-Haut" code_insee="68012" code_canton="6803"/><polygon points="337,247 332,261 317,266 312,277 300,279 284,293 270,298 250,294 236,309 228,311 209,303 210,296 197,283 244,269 251,271 260,265 283,264 310,253 317,246 337,247" id="68040" class="commune" fill="steelblue" stroke-width="1" stroke="white" geotype="commune" geoname="Bitschwiller-lès-Thann" code_insee="68040" code_canton="6803"/><polygon points="198,352 218,346 223,349 230,339 256,353 263,365 281,375 267,379 245,379 213,368 198,352" id="68045" class="commune" fill="steelblue" stroke-width="1" stroke="white" geotype="commune" geoname="Bourbach-le-Bas" code_insee="68045" code_canton="6803"/><polygon points="185,286 197,283 210,296 209,303 228,311 221,323 230,339 223,349 218,346 198,352 196,338 177,326 172,317 182,310 184,300 196,307 204,300 199,291 185,286" id="68046" class="commune" fill="steelblue" stroke-width="1" stroke="white" geotype="commune" geoname="Bourbach-le-Haut" code_insee="68046" code_canton="6803"/><polygon points="438,368 439,354 429,355 399,346 392,337 386,331 370,308 411,301 411,292 421,292 429,299 452,299 471,304 469,320 482,345 480,361 465,358 454,370 438,368" id="68063" class="commune" fill="steelblue" stroke-width="1" stroke="white" geotype="commune" geoname="Cernay" code_insee="68063" code_canton="6803"/><polygon points="216,132 206,134 188,126 172,132 163,168 166,176 162,174 158,187 150,190 134,179 119,183 97,185 86,178 68,179 33,170 31,164 50,152 45,141 32,143 24,139 45,120 35,100 41,87 51,81 84,88 90,100 76,101 61,120 64,127 76,129 79,140 72,142 87,158 128,169 156,156 152,155 158,152 169,131 161,130 168,125 167,122 172,123 180,119 207,131 211,130 214,127 203,118 209,112 209,103 218,104 223,113 216,132" id="68089" class="commune" fill="steelblue" stroke-width="1" stroke="white" geotype="commune" geoname="Fellering" code_insee="68089" code_canton="6803"/><polygon points="279,162 294,159 310,164 309,166 282,195 273,195 269,209 262,205 244,209 230,207 229,198 238,181 266,172 279,162" id="68102" class="commune" fill="steelblue" stroke-width="1" stroke="white" geotype="commune" geoname="Geishouse" code_insee="68102" code_canton="6803"/><polygon points="282,195 309,166 326,183 358,189 354,210 347,217 329,218 303,226 293,220 297,207 282,195" id="68106" class="commune" fill="steelblue" stroke-width="1" stroke="white" geotype="commune" geoname="Goldbach-Altenbach" code_insee="68106" code_canton="6803"/><polygon points="108,197 104,192 101,191 119,183 134,179 150,190 158,187 162,174 166,176 168,186 160,194 165,200 164,205 153,204 145,209 143,217 129,229 124,227 120,230 115,223 128,224 135,212 127,208 127,201 108,197" id="68151" class="commune" fill="steelblue" stroke-width="1" stroke="white" geotype="commune" geoname="Husseren-Wesserling" code_insee="68151" code_canton="6803"/><polygon points="133,41 149,63 150,69 160,74 139,91 136,104 146,103 149,107 141,112 143,115 117,130 111,129 114,138 108,139 103,133 79,140 76,129 64,127 61,120 76,101 90,100 84,88 51,81 41,87 44,76 52,57 66,52 64,49 72,44 88,50 87,54 95,60 93,67 104,59 121,65 123,59 139,58 135,53 128,53 126,43 133,41" id="68171" class="commune" fill="steelblue" stroke-width="1" stroke="white" geotype="commune" geoname="Kruth" code_insee="68171" code_canton="6803"/><polygon points="337,335 335,342 297,341 281,329 273,323 275,319 287,317 329,330 329,334 337,335" id="68180" class="commune" fill="steelblue" stroke-width="1" stroke="white" geotype="commune" geoname="Leimbach" code_insee="68180" code_canton="6803"/><polygon points="170,239 176,236 179,224 215,215 225,219 222,225 197,233 184,245 170,239" id="68199" class="commune" fill="steelblue" stroke-width="1" stroke="white" geotype="commune" geoname="Malmerspach" code_insee="68199" code_canton="6803"/><polygon points="299,378 302,370 311,365 363,378 350,394 299,378" id="68206" class="commune" fill="steelblue" stroke-width="1" stroke="white" geotype="commune" geoname="Michelbach" code_insee="68206" code_canton="6803"/><polygon points="179,224 176,236 170,239 138,255 134,255 129,229 143,217 145,209 153,204 164,205 165,200 179,203 179,224" id="68211" class="commune" fill="steelblue" stroke-width="1" stroke="white" geotype="commune" geoname="Mitzach" code_insee="68211" code_canton="6803"/><polygon points="108,197 127,201 127,208 135,212 128,224 115,223 120,230 124,227 129,229 134,255 110,257 94,249 74,247 66,242 84,231 87,226 81,215 111,202 108,197" id="68213" class="commune" fill="steelblue" stroke-width="1" stroke="white" geotype="commune" geoname="Mollau" code_insee="68213" code_canton="6803"/><polygon points="197,283 185,286 173,288 164,276 142,267 138,255 170,239 184,245 197,233 222,225 225,219 230,217 230,207 244,209 262,205 269,209 261,221 267,228 238,252 224,252 208,258 197,283" id="68217" class="commune" fill="steelblue" stroke-width="1" stroke="white" geotype="commune" geoname="Moosch" code_insee="68217" code_canton="6803"/><polygon points="202,94 209,103 209,112 203,118 214,127 211,130 207,131 180,119 172,123 167,122 168,125 161,130 169,131 158,152 152,155 156,156 128,169 87,158 72,142 79,140 103,133 108,139 114,138 111,129 117,130 143,115 141,112 149,107 146,103 136,104 139,91 160,74 150,69 149,63 171,81 197,95 202,94" id="68247" class="commune" fill="steelblue" stroke-width="1" stroke="white" geotype="commune" geoname="Oderen" code_insee="68247" code_canton="6803"/><polygon points="236,309 248,311 255,317 275,319 273,323 281,329 256,353 230,339 221,323 228,311 236,309" id="68261" class="commune" fill="steelblue" stroke-width="1" stroke="white" geotype="commune" geoname="Rammersmatt" code_insee="68261" code_canton="6803"/><polygon points="179,203 165,200 160,194 168,186 166,176 163,168 172,132 188,126 206,134 216,132 236,151 182,195 179,203" id="68262" class="commune" fill="steelblue" stroke-width="1" stroke="white" geotype="commune" geoname="Ranspach" code_insee="68262" code_canton="6803"/><polygon points="311,365 302,370 299,378 281,375 263,365 256,353 281,329 297,341 335,342 332,351 311,365" id="68279" class="commune" fill="steelblue" stroke-width="1" stroke="white" geotype="commune" geoname="Roderen" code_insee="68279" code_canton="6803"/><polygon points="179,224 179,203 182,195 236,151 257,149 264,160 279,162 266,172 238,181 229,198 230,207 230,217 225,219 215,215 179,224" id="68292" class="commune" fill="steelblue" stroke-width="1" stroke="white" geotype="commune" geoname="Saint-Amarin" code_insee="68292" code_canton="6803"/><polygon points="429,355 439,354 438,368 435,377 441,385 446,386 443,389 449,393 444,396 448,397 444,400 451,401 447,406 459,408 473,420 449,427 431,429 407,417 383,402 429,355" id="68302" class="commune" fill="steelblue" stroke-width="1" stroke="white" geotype="commune" geoname="Schweighouse-Thann" code_insee="68302" code_canton="6803"/><polygon points="411,292 411,301 370,308 364,306 359,296 344,284 342,269 332,261 345,258 353,265 358,264 359,271 385,279 411,292" id="68322" class="commune" fill="steelblue" stroke-width="1" stroke="white" geotype="commune" geoname="Steinbach" code_insee="68322" code_canton="6803"/><polygon points="104,192 108,197 111,202 81,215 87,226 84,231 66,242 52,247 36,244 34,232 53,229 69,207 104,192" id="68328" class="commune" fill="steelblue" stroke-width="1" stroke="white" geotype="commune" geoname="Storckensohn" code_insee="68328" code_canton="6803"/><polygon points="275,319 255,317 248,311 236,309 250,294 270,298 284,293 300,279 312,277 317,266 332,261 342,269 344,284 330,311 338,322 329,330 287,317 275,319" id="68334" class="commune" fill="steelblue" stroke-width="1" stroke="white" geotype="commune" geoname="Thann" code_insee="68334" code_canton="6803"/><polygon points="499,275 500,275 496,289 471,304 452,299 429,299 421,292 411,292 385,279 359,271 358,264 353,265 345,258 332,261 337,247 357,238 371,243 382,255 393,258 413,275 478,286 499,275" id="68342" class="commune" fill="steelblue" stroke-width="1" stroke="white" geotype="commune" geoname="Uffholtz" code_insee="68342" code_canton="6803"/><polygon points="34,232 23,223 16,223 18,210 12,199 20,195 15,191 2,191 0,181 33,170 68,179 86,178 97,185 119,183 101,191 104,192 69,207 53,229 34,232" id="68344" class="commune" fill="steelblue" stroke-width="1" stroke="white" geotype="commune" geoname="Urbès" code_insee="68344" code_canton="6803"/><polygon points="386,331 367,325 363,328 352,326 337,335 329,334 329,330 338,322 330,311 344,284 359,296 364,306 370,308 386,331" id="68348" class="commune" fill="steelblue" stroke-width="1" stroke="white" geotype="commune" geoname="Vieux-Thann" code_insee="68348" code_canton="6803"/><polygon points="357,238 359,232 398,227 405,227 424,231 424,240 448,244 470,262 499,275 478,286 413,275 393,258 382,255 371,243 357,238" id="68359" class="commune" fill="steelblue" stroke-width="1" stroke="white" geotype="commune" geoname="Wattwiller" code_insee="68359" code_canton="6803"/><polygon points="133,41 126,43 128,53 135,53 139,58 123,59 121,65 104,59 93,67 95,60 87,54 88,50 72,44 73,27 74,15 89,10 99,14 121,0 130,0 128,35 133,41" id="68370" class="commune" fill="steelblue" stroke-width="1" stroke="white" geotype="commune" geoname="Wildenstein" code_insee="68370" code_canton="6803"/><polygon points="359,232 357,238 337,247 317,246 310,253 283,264 260,265 251,271 244,269 197,283 208,258 224,252 238,252 267,228 261,221 269,209 273,195 282,195 297,207 293,220 303,226 329,218 347,217 359,232" id="68372" class="commune" fill="steelblue" stroke-width="1" stroke="white" geotype="commune" geoname="Willer-sur-Thur" code_insee="68372" code_canton="6803"/></svg>