<?xml version="1.0" encoding="utf-8"?>
<svg version="1.1" id="svgmap" xmlns="http://www.w3.org/2000/svg" xmlns:xlink="http://www.w3.org/1999/xlink" x="0px" y="0px" width="100%" height="100%" viewBox="0 0 500 346">
<polygon points="90,190 89,189 39,167 0,136 6,128 72,113 113,118 140,141 114,165 122,176 99,187 90,190" id="68032" class="commune" fill="steelblue" stroke-width="1" stroke="white" geotype="commune" geoname="Berrwiller" code_insee="68032" code_canton="6817"/><polygon points="181,70 215,77 212,86 221,90 209,101 221,111 201,124 209,130 184,158 157,165 139,185 114,196 99,187 122,176 114,165 140,141 113,118 114,115 142,110 153,74 181,70" id="68043" class="commune" fill="steelblue" stroke-width="1" stroke="white" geotype="commune" geoname="Bollwiller" code_insee="68043" code_canton="6817"/><polygon points="184,158 209,130 201,124 221,111 209,101 221,90 212,86 215,77 226,62 245,69 262,62 268,67 237,96 243,102 231,107 238,112 231,115 243,126 237,141 221,149 219,163 205,178 186,179 184,158" id="68088" class="commune" fill="steelblue" stroke-width="1" stroke="white" geotype="commune" geoname="Feldkirch" code_insee="68088" code_canton="6817"/><polygon points="334,119 368,123 345,149 354,157 335,172 324,170 311,185 263,202 246,202 227,171 230,160 238,141 268,125 279,132 334,119" id="68258" class="commune" fill="steelblue" stroke-width="1" stroke="white" geotype="commune" geoname="Pulversheim" code_insee="68258" code_canton="6817"/><polygon points="500,248 477,244 434,255 426,252 437,234 429,233 439,227 427,218 411,218 425,199 363,186 331,198 311,185 324,170 335,172 355,174 361,182 491,185 487,205 500,248" id="68289" class="commune" fill="steelblue" stroke-width="1" stroke="white" geotype="commune" geoname="Ruelisheim" code_insee="68289" code_canton="6817"/><polygon points="83,215 90,190 99,187 114,196 139,185 157,165 184,158 186,179 205,178 219,163 230,160 227,171 246,202 165,225 83,215" id="68321" class="commune" fill="steelblue" stroke-width="1" stroke="white" geotype="commune" geoname="Staffelfelden" code_insee="68321" code_canton="6817"/><polygon points="230,160 219,163 221,149 237,141 243,126 231,115 238,112 231,107 243,102 237,96 268,67 284,51 288,16 301,17 338,0 358,18 374,20 367,30 373,63 359,87 343,96 353,101 352,109 334,119 279,132 268,125 238,141 230,160" id="68343" class="commune" fill="steelblue" stroke-width="1" stroke="white" geotype="commune" geoname="Ungersheim" code_insee="68343" code_canton="6817"/><polygon points="168,342 130,346 56,339 59,312 37,269 39,241 83,215 165,225 246,202 263,202 255,232 225,252 225,269 193,277 192,289 166,305 177,318 184,327 170,330 168,342" id="68375" class="commune" fill="steelblue" stroke-width="1" stroke="white" geotype="commune" geoname="Wittelsheim" code_insee="68375" code_canton="6817"/><polygon points="434,255 435,266 436,271 420,273 411,275 407,266 373,267 333,281 226,291 192,289 193,277 225,269 225,252 255,232 263,202 311,185 331,198 363,186 425,199 411,218 427,218 439,227 429,233 437,234 426,252 434,255" id="68376" class="commune" fill="steelblue" stroke-width="1" stroke="white" geotype="commune" geoname="Wittenheim" code_insee="68376" code_canton="6817"/></svg>