<?xml version="1.0" encoding="utf-8"?>
<svg version="1.1" id="svgmap" xmlns="http://www.w3.org/2000/svg" xmlns:xlink="http://www.w3.org/1999/xlink" x="0px" y="0px" width="100%" height="100%" viewBox="0 0 500 345">
<polygon points="416,162 437,167 433,199 446,207 399,201 387,193 388,180 376,169 410,163 416,162" id="69004" class="commune" fill="steelblue" stroke-width="1" stroke="white" geotype="commune" geoname="Alix" code_insee="69004" code_canton="6904"/><polygon points="313,210 286,210 290,186 301,185 320,166 324,169 340,181 351,176 396,205 395,226 359,223 313,210" id="69017" class="commune" fill="steelblue" stroke-width="1" stroke="white" geotype="commune" geoname="Bagnols" code_insee="69017" code_canton="6904"/><polygon points="425,287 436,269 445,268 460,286 444,305 427,297 425,287" id="69020" class="commune" fill="steelblue" stroke-width="1" stroke="white" geotype="commune" geoname="Belmont-d'Azergues" code_insee="69020" code_canton="6904"/><polygon points="219,198 221,195 209,189 205,182 220,176 237,161 267,148 277,157 282,153 284,164 290,163 284,183 290,186 286,210 283,211 284,187 262,193 257,190 244,202 243,197 219,198" id="69024" class="commune" fill="steelblue" stroke-width="1" stroke="white" geotype="commune" geoname="Bois-d'Oingt" code_insee="69024" code_canton="6904"/><polygon points="286,210 313,210 303,247 312,259 297,266 288,261 264,262 237,228 263,224 283,211 286,210" id="69026" class="commune" fill="steelblue" stroke-width="1" stroke="white" geotype="commune" geoname="Breuil" code_insee="69026" code_canton="6904"/><polygon points="306,330 303,334 296,331 290,345 278,337 263,342 238,339 232,330 220,330 210,324 196,292 236,270 261,270 264,262 288,261 297,266 292,287 302,289 312,300 306,330" id="69032" class="commune" fill="steelblue" stroke-width="1" stroke="white" geotype="commune" geoname="Bully" code_insee="69032" code_canton="6904"/><polygon points="50,89 29,72 24,57 0,57 4,52 17,52 38,40 37,27 73,16 83,7 104,0 156,9 164,1 166,13 121,61 104,67 103,61 101,61 99,72 50,89" id="69039" class="commune" fill="steelblue" stroke-width="1" stroke="white" geotype="commune" geoname="Chamelet" code_insee="69039" code_canton="6904"/><polygon points="396,205 399,201 446,207 457,211 453,256 447,255 445,268 436,269 425,287 417,285 411,270 418,268 416,257 391,240 395,226 396,205" id="69047" class="commune" fill="steelblue" stroke-width="1" stroke="white" geotype="commune" geoname="Charnay" code_insee="69047" code_canton="6904"/><polygon points="359,223 395,226 391,240 416,257 418,268 411,270 417,285 425,287 427,297 444,305 453,306 447,311 416,308 376,331 358,310 349,287 350,267 357,260 366,227 359,223" id="69050" class="commune" fill="steelblue" stroke-width="1" stroke="white" geotype="commune" geoname="Châtillon" code_insee="69050" code_canton="6904"/><polygon points="357,260 312,259 303,247 313,210 359,223 366,227 357,260" id="69056" class="commune" fill="steelblue" stroke-width="1" stroke="white" geotype="commune" geoname="Chessy" code_insee="69056" code_canton="6904"/><polygon points="227,32 219,19 226,23 241,17 259,27 273,23 308,31 330,29 334,16 350,15 353,10 358,19 374,23 371,29 381,31 382,37 364,42 380,49 336,54 303,51 271,32 245,29 227,32" id="69061" class="commune" fill="steelblue" stroke-width="1" stroke="white" geotype="commune" geoname="Cogny" code_insee="69061" code_canton="6904"/><polygon points="399,201 396,205 351,176 340,181 324,169 327,156 334,159 336,154 348,154 382,161 408,154 410,163 376,169 388,180 387,193 399,201" id="69090" class="commune" fill="steelblue" stroke-width="1" stroke="white" geotype="commune" geoname="Frontenas" code_insee="69090" code_canton="6904"/><polygon points="336,54 380,49 372,54 401,59 399,83 375,82 373,91 360,92 362,99 347,102 338,96 344,84 336,78 346,67 338,63 348,60 336,54" id="69101" class="commune" fill="steelblue" stroke-width="1" stroke="white" geotype="commune" geoname="Jarnioux" code_insee="69101" code_canton="6904"/><polygon points="210,216 214,215 206,204 208,201 219,198 243,197 244,202 257,190 262,193 284,187 283,211 263,224 237,228 219,229 210,216" id="69111" class="commune" fill="steelblue" stroke-width="1" stroke="white" geotype="commune" geoname="Légny" code_insee="69111" code_canton="6904"/><polygon points="164,1 174,1 186,12 197,11 204,60 193,73 182,91 151,114 131,100 125,105 98,101 77,107 55,91 50,89 99,72 101,61 103,61 104,67 121,61 166,13 164,1" id="69113" class="commune" fill="steelblue" stroke-width="1" stroke="white" geotype="commune" geoname="Létra" code_insee="69113" code_canton="6904"/><polygon points="401,59 422,52 454,58 468,51 475,63 449,102 431,115 428,113 420,88 411,80 399,83 401,59" id="69114" class="commune" fill="steelblue" stroke-width="1" stroke="white" geotype="commune" geoname="Liergues" code_insee="69114" code_canton="6904"/><polygon points="324,169 320,166 301,185 290,186 284,183 290,163 284,164 282,153 283,152 295,149 298,140 308,152 327,156 324,169" id="69134" class="commune" fill="steelblue" stroke-width="1" stroke="white" geotype="commune" geoname="Moiré" code_insee="69134" code_canton="6904"/><polygon points="282,153 277,157 267,148 244,115 256,98 265,96 268,85 260,69 273,75 290,105 286,115 290,126 282,134 287,143 283,152 282,153" id="69146" class="commune" fill="steelblue" stroke-width="1" stroke="white" geotype="commune" geoname="Oingt" code_insee="69146" code_canton="6904"/><polygon points="362,99 360,92 373,91 375,82 399,83 411,80 420,88 428,113 389,125 375,118 368,103 373,103 362,99" id="69159" class="commune" fill="steelblue" stroke-width="1" stroke="white" geotype="commune" geoname="Pouilly-le-Monial" code_insee="69159" code_canton="6904"/><polygon points="312,259 357,260 350,267 349,287 358,310 376,331 366,343 351,344 343,337 332,342 306,330 312,300 302,289 292,287 297,266 312,259" id="69208" class="commune" fill="steelblue" stroke-width="1" stroke="white" geotype="commune" geoname="Saint-Germain-Nuelles" code_insee="69208" code_canton="6904"/><polygon points="460,286 445,268 447,255 453,256 483,255 497,260 500,270 488,276 487,289 460,286" id="69212" class="commune" fill="steelblue" stroke-width="1" stroke="white" geotype="commune" geoname="Saint-Jean-des-Vignes" code_insee="69212" code_canton="6904"/><polygon points="220,176 197,177 196,173 177,162 169,151 186,143 180,135 194,122 239,104 249,95 252,63 254,70 260,69 268,85 265,96 256,98 244,115 267,148 237,161 220,176" id="69222" class="commune" fill="steelblue" stroke-width="1" stroke="white" geotype="commune" geoname="Saint-Laurent-d'Oingt" code_insee="69222" code_canton="6904"/><polygon points="219,19 227,32 252,63 249,95 239,104 194,122 193,113 211,86 193,73 204,60 197,11 219,19" id="69230" class="commune" fill="steelblue" stroke-width="1" stroke="white" geotype="commune" geoname="Sainte-Paule" code_insee="69230" code_canton="6904"/><polygon points="45,134 53,122 48,122 53,121 64,124 81,126 111,135 119,140 131,143 142,142 160,147 169,151 177,162 196,173 197,177 220,176 205,182 209,189 221,195 219,198 208,201 206,204 214,215 210,216 205,214 194,218 185,216 179,212 171,215 158,213 142,208 131,202 101,198 78,190 67,183 70,170 67,160 61,157 60,150 45,134" id="69239" class="commune" fill="steelblue" stroke-width="1" stroke="white" geotype="commune" geoname="Saint-Vérand" code_insee="69239" code_canton="6904"/><polygon points="169,151 160,147 142,142 131,143 119,140 111,135 81,126 64,124 53,121 48,122 45,107 55,91 77,107 98,101 125,105 131,100 151,114 182,91 193,73 211,86 193,113 194,122 180,135 186,143 169,151" id="69245" class="commune" fill="steelblue" stroke-width="1" stroke="white" geotype="commune" geoname="Ternand" code_insee="69245" code_canton="6904"/><polygon points="428,113 431,115 432,117 424,146 416,162 410,163 408,154 382,161 348,154 336,154 334,159 327,156 308,152 298,140 295,149 283,152 287,143 282,134 290,126 286,115 304,113 313,117 328,102 347,102 362,99 373,103 368,103 375,118 389,125 428,113" id="69246" class="commune" fill="steelblue" stroke-width="1" stroke="white" geotype="commune" geoname="Theizé" code_insee="69246" code_canton="6904"/><polygon points="227,32 245,29 271,32 303,51 336,54 348,60 338,63 346,67 336,78 344,84 338,96 347,102 328,102 313,117 304,113 286,115 290,105 273,75 260,69 254,70 252,63 227,32" id="69265" class="commune" fill="steelblue" stroke-width="1" stroke="white" geotype="commune" geoname="Ville-sur-Jarnioux" code_insee="69265" code_canton="6904"/></svg>