<?xml version="1.0" encoding="utf-8"?>
<svg version="1.1" id="svgmap" xmlns="http://www.w3.org/2000/svg" xmlns:xlink="http://www.w3.org/1999/xlink" x="0px" y="0px" width="100%" height="100%" viewBox="0 0 500 217">
<polygon points="55,85 48,91 52,102 47,107 40,108 39,104 37,98 21,90 20,72 13,68 14,65 27,66 27,70 30,73 31,68 37,72 50,72 51,76 56,78 55,85" id="71001" class="commune" fill="steelblue" stroke-width="1" stroke="white" geotype="commune" geoname="Abergement-de-Cuisery" code_insee="71001" code_canton="7114"/><polygon points="175,74 174,59 168,55 164,45 187,48 190,43 197,43 201,39 210,43 216,51 233,53 240,49 240,54 240,59 235,60 227,61 220,59 221,64 217,63 215,68 205,63 200,68 193,67 190,71 178,75 175,74" id="71018" class="commune" fill="steelblue" stroke-width="1" stroke="white" geotype="commune" geoname="Bantanges" code_insee="71018" code_canton="7114"/><polygon points="93,95 100,94 106,93 108,97 116,95 121,97 124,99 120,99 121,104 115,105 111,111 101,113 90,122 86,117 82,98 85,93 87,97 93,95" id="71061" class="commune" fill="steelblue" stroke-width="1" stroke="white" geotype="commune" geoname="Brienne" code_insee="71061" code_canton="7114"/><polygon points="498,181 499,181 494,189 476,195 462,191 455,199 446,195 440,187 444,182 439,175 420,177 419,174 410,172 404,174 405,179 396,176 394,159 400,158 423,165 432,164 449,168 459,176 466,178 470,176 474,179 480,174 488,179 495,178 498,181" id="71079" class="commune" fill="steelblue" stroke-width="1" stroke="white" geotype="commune" geoname="Champagnat" code_insee="71079" code_canton="7114"/><polygon points="148,115 153,111 151,107 157,107 160,105 156,98 154,97 149,100 152,96 143,89 143,85 149,82 156,82 163,89 175,90 181,93 187,91 182,87 193,88 194,87 215,93 218,99 211,105 207,105 196,125 184,124 175,128 176,125 168,125 167,122 161,122 162,120 155,120 148,115" id="71097" class="commune" fill="steelblue" stroke-width="1" stroke="white" geotype="commune" geoname="Chapelle-Thècle" code_insee="71097" code_canton="7114"/><polygon points="351,214 343,211 334,212 332,206 325,203 331,190 336,188 336,173 357,171 357,181 362,186 369,187 379,186 378,191 401,200 401,205 400,209 390,209 389,215 384,217 367,212 362,216 351,214" id="71143" class="commune" fill="steelblue" stroke-width="1" stroke="white" geotype="commune" geoname="Condal" code_insee="71143" code_canton="7114"/><polygon points="498,181 495,178 488,179 480,174 474,179 470,176 466,178 459,176 449,168 432,164 423,165 400,158 394,159 380,148 379,140 391,143 414,141 416,143 414,138 438,138 436,142 447,146 463,146 471,153 474,156 481,156 486,162 493,159 500,161 496,172 500,174 498,181" id="71157" class="commune" fill="steelblue" stroke-width="1" stroke="white" geotype="commune" geoname="Cuiseaux" code_insee="71157" code_canton="7114"/><polygon points="47,107 52,102 48,91 55,85 76,84 88,86 93,95 87,97 85,93 82,98 86,117 90,122 90,123 75,122 68,126 61,124 61,127 54,119 55,113 47,107" id="71158" class="commune" fill="steelblue" stroke-width="1" stroke="white" geotype="commune" geoname="Cuisery" code_insee="71158" code_canton="7114"/><polygon points="375,133 379,140 380,148 394,159 396,176 391,184 393,189 379,186 369,187 362,186 357,181 357,171 336,173 337,151 346,146 347,141 354,141 357,137 355,135 375,133" id="71177" class="commune" fill="steelblue" stroke-width="1" stroke="white" geotype="commune" geoname="Dommartin-lès-Cuiseaux" code_insee="71177" code_canton="7114"/><polygon points="454,81 440,84 434,84 427,90 422,90 430,87 429,82 434,79 437,72 434,69 438,66 435,57 440,51 448,48 457,50 477,48 474,51 483,51 482,53 488,56 487,59 493,61 485,70 484,80 469,83 462,80 454,81" id="71198" class="commune" fill="steelblue" stroke-width="1" stroke="white" geotype="commune" geoname="Flacey-en-Bresse" code_insee="71198" code_canton="7114"/><polygon points="94,25 105,16 95,9 95,4 108,4 116,8 135,8 139,11 139,8 144,7 151,10 151,13 156,16 158,25 151,25 152,28 143,28 142,30 139,28 143,32 141,35 136,34 135,36 129,37 118,35 111,33 113,31 100,25 94,25" id="71206" class="commune" fill="steelblue" stroke-width="1" stroke="white" geotype="commune" geoname="Frette" code_insee="71206" code_canton="7114"/><polygon points="343,87 345,92 355,95 362,96 364,91 367,92 367,95 375,95 385,106 387,104 397,107 404,104 411,109 410,116 402,111 391,118 393,123 383,125 385,129 380,133 375,133 355,135 352,132 349,132 347,127 347,123 343,121 345,119 339,113 349,104 347,100 343,101 341,99 343,87" id="71209" class="commune" fill="steelblue" stroke-width="1" stroke="white" geotype="commune" geoname="Frontenaud" code_insee="71209" code_canton="7114"/><polygon points="90,122 101,113 111,111 115,105 121,104 120,99 124,99 121,97 126,97 128,93 142,93 143,89 152,96 149,100 154,97 156,98 160,105 157,107 151,107 153,111 148,115 123,125 119,131 104,134 101,129 97,130 90,123 90,122" id="71213" class="commune" fill="steelblue" stroke-width="1" stroke="white" geotype="commune" geoname="Genête" code_insee="71213" code_canton="7114"/><polygon points="144,68 135,80 124,80 118,77 110,74 106,66 109,60 116,56 115,51 118,48 114,46 116,41 110,40 108,36 118,35 129,37 135,36 136,34 141,35 156,45 145,54 144,68" id="71234" class="commune" fill="steelblue" stroke-width="1" stroke="white" geotype="commune" geoname="Huilly-sur-Seille" code_insee="71234" code_canton="7114"/><polygon points="455,199 452,202 444,202 437,198 425,201 401,200 378,191 379,186 393,189 391,184 396,176 405,179 404,174 410,172 419,174 420,177 439,175 444,182 440,187 446,195 455,199" id="71243" class="commune" fill="steelblue" stroke-width="1" stroke="white" geotype="commune" geoname="Joudes" code_insee="71243" code_canton="7114"/><polygon points="118,77 124,80 135,80 144,68 156,74 158,75 155,80 149,82 143,85 143,89 142,93 128,93 126,97 121,97 116,95 108,97 106,93 100,94 104,91 102,87 107,82 109,83 110,78 118,77" id="71244" class="commune" fill="steelblue" stroke-width="1" stroke="white" geotype="commune" geoname="Jouvençon" code_insee="71244" code_canton="7114"/><polygon points="55,85 56,78 51,76 50,72 56,71 59,67 68,66 75,61 93,56 105,41 110,40 116,41 114,46 118,48 115,51 116,56 109,60 106,66 110,74 118,77 110,78 109,83 107,82 102,87 104,91 100,94 93,95 88,86 76,84 55,85" id="71261" class="commune" fill="steelblue" stroke-width="1" stroke="white" geotype="commune" geoname="Loisy" code_insee="71261" code_canton="7114"/><polygon points="235,60 240,66 239,74 231,74 236,83 238,85 232,90 227,89 225,93 215,93 194,87 193,88 182,87 187,91 181,93 175,90 163,89 156,82 149,82 155,80 158,75 156,74 164,72 169,76 175,74 178,75 190,71 193,67 200,68 205,63 215,68 217,63 221,64 220,59 227,61 235,60" id="71293" class="commune" fill="steelblue" stroke-width="1" stroke="white" geotype="commune" geoname="Ménetreuil" code_insee="71293" code_canton="7114"/><polygon points="379,140 375,133 380,133 385,129 383,125 393,123 391,118 402,111 410,116 411,109 410,97 418,88 422,90 427,90 434,84 440,84 446,95 442,99 434,98 441,110 438,137 438,138 414,138 416,143 414,141 391,143 379,140" id="71300" class="commune" fill="steelblue" stroke-width="1" stroke="white" geotype="commune" geoname="Miroir" code_insee="71300" code_canton="7114"/><polygon points="236,83 243,83 247,89 257,89 263,95 277,93 275,98 283,101 284,103 292,104 291,108 285,109 288,115 284,118 291,123 288,125 298,131 307,131 281,157 279,153 254,151 249,145 243,144 218,131 203,131 196,125 207,105 211,105 218,99 215,93 225,93 227,89 232,90 238,85 236,83" id="71318" class="commune" fill="steelblue" stroke-width="1" stroke="white" geotype="commune" geoname="Montpont-en-Bresse" code_insee="71318" code_canton="7114"/><polygon points="21,40 31,30 30,7 36,7 49,5 67,26 61,26 62,32 57,32 50,43 38,44 30,50 18,49 21,40" id="71332" class="commune" fill="steelblue" stroke-width="1" stroke="white" geotype="commune" geoname="Ormes" code_insee="71332" code_canton="7114"/><polygon points="164,45 168,55 174,59 175,74 169,76 164,72 156,74 144,68 145,54 156,45 164,45" id="71365" class="commune" fill="steelblue" stroke-width="1" stroke="white" geotype="commune" geoname="Rancy" code_insee="71365" code_canton="7114"/><polygon points="86,151 80,152 56,146 53,138 62,133 61,127 61,124 68,126 75,122 90,123 97,130 93,132 99,141 86,151" id="71366" class="commune" fill="steelblue" stroke-width="1" stroke="white" geotype="commune" geoname="Ratenelle" code_insee="71366" code_canton="7114"/><polygon points="148,176 131,178 117,170 105,170 102,165 90,161 85,155 86,151 99,141 93,132 97,130 101,129 104,134 119,131 123,125 148,115 155,120 162,120 161,122 167,122 168,125 176,125 175,128 184,124 196,125 203,131 218,131 243,144 243,159 233,154 223,155 215,152 212,153 214,159 211,160 207,159 206,162 193,166 186,171 174,162 169,167 165,166 162,171 148,176" id="71373" class="commune" fill="steelblue" stroke-width="1" stroke="white" geotype="commune" geoname="Romenay" code_insee="71373" code_canton="7114"/><polygon points="306,67 309,65 312,68 310,70 314,70 312,74 317,79 324,78 332,81 335,85 343,87 341,99 343,101 347,100 349,104 339,113 345,119 343,121 347,123 347,127 341,128 332,127 324,120 317,119 312,125 307,127 307,131 298,131 288,125 291,123 284,118 288,115 285,109 291,108 292,104 284,103 283,101 293,92 304,91 303,87 295,86 300,79 293,77 302,75 306,67" id="71401" class="commune" fill="steelblue" stroke-width="1" stroke="white" geotype="commune" geoname="Sainte-Croix" code_insee="71401" code_canton="7114"/><polygon points="201,39 197,43 190,43 187,48 164,45 156,45 141,35 143,32 139,28 142,30 143,28 152,28 151,25 158,25 161,26 173,22 176,6 182,3 186,3 190,0 190,5 199,5 207,30 201,39" id="71508" class="commune" fill="steelblue" stroke-width="1" stroke="white" geotype="commune" geoname="Savigny-sur-Seille" code_insee="71508" code_canton="7114"/><polygon points="118,35 108,36 110,40 105,41 93,56 75,61 68,66 59,67 56,71 50,72 37,72 31,68 30,73 27,70 27,66 14,65 12,66 3,71 0,69 18,49 30,50 38,44 50,43 57,32 62,32 61,26 67,26 94,25 100,25 113,31 111,33 118,35" id="71522" class="commune" fill="steelblue" stroke-width="1" stroke="white" geotype="commune" geoname="Simandre" code_insee="71522" code_canton="7114"/><polygon points="325,203 319,201 313,204 302,193 292,193 294,188 287,183 291,178 283,175 288,169 282,167 276,159 281,157 307,131 307,127 312,125 317,119 324,120 332,127 341,128 347,127 349,132 352,132 355,135 357,137 354,141 347,141 346,146 337,151 336,173 336,188 331,190 325,203" id="71558" class="commune" fill="steelblue" stroke-width="1" stroke="white" geotype="commune" geoname="Varennes-Saint-Sauveur" code_insee="71558" code_canton="7114"/></svg>