<?xml version="1.0" encoding="utf-8"?>
<svg version="1.1" id="svgmap" xmlns="http://www.w3.org/2000/svg" xmlns:xlink="http://www.w3.org/1999/xlink" x="0px" y="0px" width="100%" height="100%" viewBox="0 0 500 485">
<polygon points="310,168 303,158 299,159 301,154 296,156 289,152 277,136 274,120 270,118 265,120 262,117 261,104 277,103 278,105 304,100 309,110 325,117 325,130 333,134 307,153 322,160 315,167 310,168" id="71013" class="commune" fill="steelblue" stroke-width="1" stroke="white" geotype="commune" geoname="Authumes" code_insee="71013" code_canton="7126"/><polygon points="445,404 440,411 451,416 448,419 423,422 418,429 404,430 388,427 381,431 376,431 379,420 374,417 381,412 377,404 384,404 384,398 389,398 393,393 400,394 400,391 410,389 420,396 445,404" id="71027" class="commune" fill="steelblue" stroke-width="1" stroke="white" geotype="commune" geoname="Beaurepaire-en-Bresse" code_insee="71027" code_canton="7126"/><polygon points="448,166 457,164 456,168 460,169 460,172 464,171 465,172 468,174 469,171 472,172 470,175 473,176 479,172 478,169 475,170 475,169 469,169 469,171 466,172 463,169 463,166 459,164 465,164 476,165 478,166 476,168 477,167 490,172 492,171 495,172 491,178 493,179 492,182 489,182 489,184 500,190 497,192 496,192 496,194 494,195 489,203 497,206 497,207 494,207 491,204 486,204 484,204 485,206 481,206 478,210 476,209 476,207 473,205 468,208 464,207 460,209 458,207 454,209 441,205 437,207 436,206 432,206 429,200 444,203 446,198 445,198 445,195 443,194 445,194 445,192 442,190 439,190 442,187 457,181 455,177 457,176 448,166" id="71028" class="commune" fill="steelblue" stroke-width="1" stroke="white" geotype="commune" geoname="Beauvernois" code_insee="71028" code_canton="7126"/><polygon points="393,207 385,208 377,204 377,201 366,201 357,196 362,188 356,180 347,179 354,177 354,174 345,169 347,164 343,161 349,158 350,154 365,163 378,161 383,170 388,169 386,173 394,174 385,186 378,188 385,196 390,196 389,200 397,200 393,207" id="71029" class="commune" fill="steelblue" stroke-width="1" stroke="white" geotype="commune" geoname="Bellevesvre" code_insee="71029" code_canton="7126"/><polygon points="288,287 289,278 297,282 297,279 310,281 316,275 316,264 331,263 342,254 351,255 351,251 357,252 362,259 366,258 372,264 377,265 376,259 380,260 382,264 378,271 384,275 394,273 404,280 403,286 382,301 381,306 374,303 351,302 351,305 346,306 346,302 323,295 316,300 309,299 302,296 304,292 294,293 297,288 288,287" id="71044" class="commune" fill="steelblue" stroke-width="1" stroke="white" geotype="commune" geoname="Bosjean" code_insee="71044" code_canton="7126"/><polygon points="289,278 288,287 275,301 267,302 259,298 257,292 247,285 250,283 246,281 257,272 250,267 251,264 258,263 264,259 283,257 285,247 315,244 307,256 309,265 290,271 293,274 289,278" id="71045" class="commune" fill="steelblue" stroke-width="1" stroke="white" geotype="commune" geoname="Bouhans" code_insee="71045" code_canton="7126"/><polygon points="206,218 183,201 187,195 178,189 179,183 170,181 174,170 180,173 186,169 188,166 200,168 199,163 207,168 217,159 226,165 238,166 257,153 270,157 286,155 294,162 299,159 303,158 310,168 311,178 305,184 293,186 295,191 291,197 298,198 297,205 307,213 302,213 291,221 291,213 288,210 294,202 283,201 274,194 271,200 254,198 253,202 243,204 238,202 238,199 226,196 209,204 212,219 206,218" id="71093" class="commune" fill="steelblue" stroke-width="1" stroke="white" geotype="commune" geoname="Chapelle-Saint-Sauveur" code_insee="71093" code_canton="7126"/><polygon points="120,82 121,81 150,69 146,84 153,84 162,90 167,99 176,102 178,94 190,90 197,88 201,92 189,108 198,110 194,116 200,120 194,124 188,118 182,122 172,121 169,152 151,145 148,147 121,145 122,137 126,137 132,129 141,128 132,115 140,116 144,105 143,98 138,94 121,91 124,89 117,87 120,82" id="71101" class="commune" fill="steelblue" stroke-width="1" stroke="white" geotype="commune" geoname="Charette-Varennes" code_insee="71101" code_canton="7126"/><polygon points="214,222 212,219 209,204 226,196 238,199 238,202 243,204 253,202 254,198 271,200 274,194 283,201 294,202 288,210 291,213 291,221 282,221 279,229 268,230 263,234 255,233 253,228 241,232 245,227 237,223 214,222" id="71121" class="commune" fill="steelblue" stroke-width="1" stroke="white" geotype="commune" geoname="Chaux" code_insee="71121" code_canton="7126"/><polygon points="178,189 187,195 183,201 206,218 200,227 186,224 178,228 159,226 146,220 143,223 133,217 142,217 145,211 134,202 124,202 127,192 132,194 146,188 162,188 166,184 178,189" id="71168" class="commune" fill="steelblue" stroke-width="1" stroke="white" geotype="commune" geoname="Dampierre-en-Bresse" code_insee="71168" code_canton="7126"/><polygon points="79,295 80,289 87,290 85,293 88,294 97,279 89,274 88,263 98,265 103,257 109,260 109,264 126,273 134,269 146,273 141,285 151,294 154,304 159,305 162,312 155,318 149,317 149,321 148,322 146,316 137,310 122,316 121,319 112,319 114,310 99,312 97,304 91,307 83,302 83,295 79,295" id="71173" class="commune" fill="steelblue" stroke-width="1" stroke="white" geotype="commune" geoname="Devrouze" code_insee="71173" code_canton="7126"/><polygon points="82,246 88,248 110,246 109,253 103,257 98,265 88,263 89,274 97,279 88,294 85,293 87,290 80,289 79,295 56,289 43,290 26,283 13,283 4,278 0,269 9,258 30,262 32,260 57,257 82,246" id="71175" class="commune" fill="steelblue" stroke-width="1" stroke="white" geotype="commune" geoname="Diconne" code_insee="71175" code_canton="7126"/><polygon points="329,385 319,385 318,377 322,369 306,366 306,357 285,357 274,349 268,351 261,346 264,335 270,339 274,330 312,320 337,322 336,325 348,325 347,328 368,328 367,330 400,330 399,332 409,333 408,335 404,341 411,341 411,350 400,346 395,346 391,351 379,345 371,348 360,346 352,351 357,357 351,357 352,368 343,371 340,382 329,385" id="71205" class="commune" fill="steelblue" stroke-width="1" stroke="white" geotype="commune" geoname="Frangy-en-Bresse" code_insee="71205" code_canton="7126"/><polygon points="261,104 256,103 256,99 241,98 244,83 240,80 250,79 268,64 279,62 280,68 285,68 298,65 296,72 301,79 297,83 293,83 302,88 304,100 278,105 277,103 261,104" id="71207" class="commune" fill="steelblue" stroke-width="1" stroke="white" geotype="commune" geoname="Fretterans" code_insee="71207" code_canton="7126"/><polygon points="120,82 117,87 124,89 121,91 138,94 143,98 144,105 140,116 132,115 141,128 132,129 126,137 122,137 121,145 101,143 81,141 81,135 100,115 97,106 102,104 93,97 95,93 102,93 99,90 107,81 120,82" id="71208" class="commune" fill="steelblue" stroke-width="1" stroke="white" geotype="commune" geoname="Frontenard" code_insee="71208" code_canton="7126"/><polygon points="227,58 243,67 240,80 244,83 241,98 231,98 231,102 222,103 210,121 203,116 200,120 194,116 198,110 189,108 201,92 197,88 190,90 183,79 188,76 195,82 204,74 224,68 222,60 227,58" id="71254" class="commune" fill="steelblue" stroke-width="1" stroke="white" geotype="commune" geoname="Lays-sur-le-Doubs" code_insee="71254" code_canton="7126"/><polygon points="206,218 212,219 214,222 210,232 225,234 223,240 215,239 210,234 199,234 195,228 185,228 187,235 181,234 175,241 167,243 163,250 163,255 169,256 172,262 184,270 179,278 189,281 188,286 181,294 167,300 166,304 159,305 154,304 151,294 141,285 146,273 134,269 126,273 109,264 109,260 103,257 109,253 110,246 88,248 82,246 73,240 79,236 84,225 83,210 92,213 109,212 109,216 119,220 133,217 143,223 146,220 159,226 178,228 186,224 200,227 206,218" id="71295" class="commune" fill="steelblue" stroke-width="1" stroke="white" geotype="commune" geoname="Mervans" code_insee="71295" code_canton="7126"/><polygon points="335,216 335,219 323,223 325,226 314,236 315,244 285,247 283,257 264,259 260,254 251,258 243,254 255,233 263,234 268,230 279,229 282,221 291,221 302,213 307,213 324,209 335,216" id="71314" class="commune" fill="steelblue" stroke-width="1" stroke="white" geotype="commune" geoname="Montjay" code_insee="71314" code_canton="7126"/><polygon points="448,166 457,176 455,177 457,181 442,187 439,190 442,190 445,192 445,194 443,194 445,195 445,198 446,198 444,203 429,200 420,201 420,204 404,204 399,209 393,207 397,200 389,200 390,196 385,196 378,188 385,186 394,174 386,173 388,169 383,170 378,161 365,163 350,154 349,158 343,161 342,165 322,160 307,153 333,134 339,127 352,123 368,137 376,135 379,130 389,130 388,127 395,125 406,122 421,128 416,136 424,141 419,145 424,150 420,155 426,155 421,156 434,161 436,165 448,166" id="71326" class="commune" fill="steelblue" stroke-width="1" stroke="white" geotype="commune" geoname="Mouthier-en-Bresse" code_insee="71326" code_canton="7126"/><polygon points="241,98 256,99 256,103 261,104 262,117 265,120 270,118 274,120 277,136 289,152 296,156 301,154 299,159 294,162 286,155 270,157 257,153 238,166 226,165 217,159 207,168 199,163 200,168 188,166 186,169 177,168 184,162 169,152 172,121 182,122 188,118 194,124 200,120 203,116 210,121 222,103 231,102 231,98 241,98" id="71351" class="commune" fill="steelblue" stroke-width="1" stroke="white" geotype="commune" geoname="Pierre-de-Bresse" code_insee="71351" code_canton="7126"/><polygon points="325,226 331,236 331,248 336,248 342,254 331,263 316,264 316,275 310,281 297,279 297,282 289,278 293,274 290,271 309,265 307,256 315,244 314,236 325,226" id="71352" class="commune" fill="steelblue" stroke-width="1" stroke="white" geotype="commune" geoname="Planois" code_insee="71352" code_canton="7126"/><polygon points="231,13 231,24 242,32 244,40 239,56 231,53 227,58 222,60 224,68 204,74 198,67 201,59 195,54 197,50 182,48 185,40 171,22 176,12 190,0 212,6 210,10 231,10 231,13" id="71357" class="commune" fill="steelblue" stroke-width="1" stroke="white" geotype="commune" geoname="Pourlans" code_insee="71357" code_canton="7126"/><polygon points="127,192 124,202 134,202 145,211 142,217 133,217 119,220 109,216 109,212 92,213 83,210 94,185 96,182 99,180 128,190 127,192" id="71364" class="commune" fill="steelblue" stroke-width="1" stroke="white" geotype="commune" geoname="Racineuse" code_insee="71364" code_canton="7126"/><polygon points="425,365 427,372 410,389 400,391 400,394 393,393 389,398 384,398 384,404 377,404 371,398 359,392 352,396 329,385 340,382 343,371 352,368 351,357 357,357 352,351 360,346 371,348 379,345 391,351 395,346 400,346 411,350 409,359 425,365" id="71380" class="commune" fill="steelblue" stroke-width="1" stroke="white" geotype="commune" geoname="Saillenard" code_insee="71380" code_canton="7126"/><polygon points="96,182 87,178 86,170 99,155 101,143 121,145 148,147 151,145 169,152 184,162 177,168 186,169 180,173 174,170 170,181 179,183 178,189 166,184 162,188 146,188 132,194 127,192 128,190 99,180 96,182" id="71396" class="commune" fill="steelblue" stroke-width="1" stroke="white" geotype="commune" geoname="Saint-Bonnet-en-Bresse" code_insee="71396" code_canton="7126"/><polygon points="246,281 250,283 247,285 257,292 259,298 267,302 268,313 257,323 261,326 258,333 264,335 261,346 268,351 266,356 270,359 234,360 237,344 220,345 213,342 199,347 185,344 183,346 172,344 175,332 155,318 162,312 159,305 166,304 167,300 181,294 188,286 195,290 203,289 203,291 211,289 212,285 227,289 228,285 237,282 244,284 246,281" id="71419" class="commune" fill="steelblue" stroke-width="1" stroke="white" geotype="commune" geoname="Saint-Germain-du-Bois" code_insee="71419" code_canton="7126"/><polygon points="448,419 451,421 433,428 468,449 468,456 459,462 434,479 415,481 389,484 377,482 368,485 357,476 358,470 354,462 340,460 337,453 357,448 357,438 376,431 381,431 388,427 404,430 418,429 423,422 448,419" id="71506" class="commune" fill="steelblue" stroke-width="1" stroke="white" geotype="commune" geoname="Savigny-en-Revermont" code_insee="71506" code_canton="7126"/><polygon points="267,302 275,301 288,287 297,288 294,293 304,292 302,296 309,299 316,300 323,295 346,302 346,306 338,312 336,317 341,321 337,322 312,320 274,330 270,339 264,335 258,333 261,326 257,323 268,313 267,302" id="71514" class="commune" fill="steelblue" stroke-width="1" stroke="white" geotype="commune" geoname="Sens-sur-Seille" code_insee="71514" code_canton="7126"/><polygon points="264,259 258,263 251,264 250,267 257,272 246,281 244,284 237,282 228,285 227,289 212,285 211,289 203,291 203,289 195,290 188,286 189,281 179,278 184,270 172,262 169,256 163,255 163,250 167,243 175,241 181,234 187,235 185,228 195,228 199,234 210,234 215,239 223,240 225,234 210,232 214,222 237,223 245,227 241,232 253,228 255,233 243,254 251,258 260,254 264,259" id="71516" class="commune" fill="steelblue" stroke-width="1" stroke="white" geotype="commune" geoname="Serley" code_insee="71516" code_canton="7126"/><polygon points="83,210 84,225 79,236 73,240 72,245 67,244 59,237 44,236 38,232 37,226 45,218 41,213 37,213 36,199 27,190 33,186 48,190 52,187 70,193 71,187 75,189 78,186 75,190 78,191 86,183 94,185 83,210" id="71519" class="commune" fill="steelblue" stroke-width="1" stroke="white" geotype="commune" geoname="Serrigny-en-Bresse" code_insee="71519" code_canton="7126"/><polygon points="374,303 368,328 347,328 348,325 336,325 337,322 341,321 336,317 338,312 346,306 351,305 351,302 374,303" id="71534" class="commune" fill="steelblue" stroke-width="1" stroke="white" geotype="commune" geoname="Tartre" code_insee="71534" code_canton="7126"/><polygon points="10,299 5,290 14,292 10,286 13,283 26,283 43,290 56,289 79,295 83,295 83,302 91,307 97,304 99,312 114,310 112,319 110,321 107,320 107,328 121,334 100,343 90,345 81,337 58,342 46,341 48,337 47,335 43,336 39,327 46,322 44,307 30,305 25,301 10,299" id="71538" class="commune" fill="steelblue" stroke-width="1" stroke="white" geotype="commune" geoname="Thurey" code_insee="71538" code_canton="7126"/><polygon points="322,160 342,165 343,161 347,164 345,169 354,174 354,177 347,179 356,180 362,188 357,196 366,201 377,201 377,204 385,208 384,211 380,209 372,211 368,218 359,220 355,225 347,222 349,218 342,210 339,212 343,217 337,213 339,216 335,216 324,209 307,213 297,205 298,198 291,197 295,191 293,186 305,184 311,178 310,168 315,167 322,160" id="71541" class="commune" fill="steelblue" stroke-width="1" stroke="white" geotype="commune" geoname="Torpes" code_insee="71541" code_canton="7126"/></svg>