<?xml version="1.0" encoding="utf-8"?>
<svg version="1.1" id="svgmap" xmlns="http://www.w3.org/2000/svg" xmlns:xlink="http://www.w3.org/1999/xlink" x="0px" y="0px" width="100%" height="100%" viewBox="0 0 500 291">
<polygon points="147,250 143,257 106,241 73,255 45,233 50,208 30,214 0,190 24,182 37,159 60,160 44,135 66,122 87,124 107,128 108,137 130,146 142,142 109,174 117,190 135,198 150,184 177,194 160,230 147,250" id="71102" class="commune" fill="steelblue" stroke-width="1" stroke="white" geotype="commune" geoname="Charmée" code_insee="71102" code_canton="7127"/><polygon points="339,165 327,153 332,139 326,109 296,99 316,80 362,84 392,69 407,83 424,81 433,111 449,117 446,165 453,171 404,190 379,166 339,165" id="71189" class="commune" fill="steelblue" stroke-width="1" stroke="white" geotype="commune" geoname="Épervans" code_insee="71189" code_canton="7127"/><polygon points="256,84 265,86 296,99 326,109 332,139 255,150 242,119 220,129 209,107 185,116 180,112 256,84" id="71269" class="commune" fill="steelblue" stroke-width="1" stroke="white" geotype="commune" geoname="Lux" code_insee="71269" code_canton="7127"/><polygon points="451,214 472,226 497,267 500,287 471,291 385,259 392,245 406,251 407,237 445,229 451,214" id="71283" class="commune" fill="steelblue" stroke-width="1" stroke="white" geotype="commune" geoname="Marnay" code_insee="71283" code_canton="7127"/><polygon points="332,139 327,153 339,165 227,221 214,221 226,242 160,230 177,194 188,196 255,150 332,139" id="71444" class="commune" fill="steelblue" stroke-width="1" stroke="white" geotype="commune" geoname="Saint-Loup-de-Varennes" code_insee="71444" code_canton="7127"/><polygon points="265,86 290,46 288,25 330,0 354,17 384,8 404,19 425,9 419,40 392,69 362,84 316,80 296,99 265,86" id="71445" class="commune" fill="steelblue" stroke-width="1" stroke="white" geotype="commune" geoname="Saint-Marcel" code_insee="71445" code_canton="7127"/><polygon points="158,38 212,50 224,44 232,70 256,84 180,112 142,142 130,146 108,137 107,128 87,124 96,114 112,117 129,95 84,77 80,65 96,59 118,73 122,60 157,47 158,38" id="71475" class="commune" fill="steelblue" stroke-width="1" stroke="white" geotype="commune" geoname="Saint-Rémy" code_insee="71475" code_canton="7127"/><polygon points="177,194 150,184 135,198 117,190 109,174 142,142 180,112 185,116 209,107 220,129 242,119 255,150 188,196 177,194" id="71520" class="commune" fill="steelblue" stroke-width="1" stroke="white" geotype="commune" geoname="Sevrey" code_insee="71520" code_canton="7127"/><polygon points="404,190 451,214 445,229 407,237 406,251 392,245 385,259 362,256 352,272 310,288 292,260 247,251 236,263 221,265 147,250 160,230 226,242 214,221 227,221 339,165 379,166 404,190" id="71555" class="commune" fill="steelblue" stroke-width="1" stroke="white" geotype="commune" geoname="Varennes-le-Grand" code_insee="71555" code_canton="7127"/></svg>