<?xml version="1.0" encoding="utf-8"?>
<svg version="1.1" id="svgmap" xmlns="http://www.w3.org/2000/svg" xmlns:xlink="http://www.w3.org/1999/xlink" x="0px" y="0px" width="100%" height="100%" viewBox="0 0 500 254">
<polygon points="0,60 8,52 28,50 44,35 58,34 73,27 94,24 117,47 29,87 0,60" id="73017" class="commune" fill="steelblue" stroke-width="1" stroke="white" geotype="commune" geoname="Apremont" code_insee="73017" code_canton="7311"/><polygon points="243,29 259,42 242,51 237,46 227,49 225,43 232,42 243,29" id="73018" class="commune" fill="steelblue" stroke-width="1" stroke="white" geotype="commune" geoname="Arbin" code_insee="73018" code_canton="7311"/><polygon points="410,254 380,250 372,245 387,243 402,231 394,225 382,199 337,170 318,141 308,137 282,145 277,138 292,127 311,122 314,124 331,127 338,134 355,140 385,146 430,169 424,178 411,181 412,195 417,198 411,205 422,229 416,248 410,254" id="73021" class="commune" fill="steelblue" stroke-width="1" stroke="white" geotype="commune" geoname="Arvillard" code_insee="73021" code_canton="7311"/><polygon points="404,59 415,54 423,56 428,56 431,67 441,71 457,89 440,108 425,90 401,80 401,74 415,61 404,59" id="73052" class="commune" fill="steelblue" stroke-width="1" stroke="white" geotype="commune" geoname="Bourget-en-Huile" code_insee="73052" code_canton="7311"/><polygon points="245,131 229,130 216,136 210,131 217,119 226,113 242,120 265,110 274,116 263,126 266,131 245,131" id="73075" class="commune" fill="steelblue" stroke-width="1" stroke="white" geotype="commune" geoname="Chapelle-Blanche" code_insee="73075" code_canton="7311"/><polygon points="207,68 242,51 255,64 251,70 237,71 219,78 218,72 207,68" id="73082" class="commune" fill="steelblue" stroke-width="1" stroke="white" geotype="commune" geoname="Chavanne" code_insee="73082" code_canton="7311"/><polygon points="175,46 161,44 145,36 131,28 139,14 143,15 139,11 148,5 146,1 164,1 171,0 175,9 179,9 189,35 183,46 175,46" id="73084" class="commune" fill="steelblue" stroke-width="1" stroke="white" geotype="commune" geoname="Chignin" code_insee="73084" code_canton="7311"/><polygon points="324,88 311,98 307,103 289,95 278,96 303,74 324,88" id="73095" class="commune" fill="steelblue" stroke-width="1" stroke="white" geotype="commune" geoname="Croix-de-la-Rochette" code_insee="73095" code_canton="7311"/><polygon points="282,145 271,147 274,134 266,131 263,126 274,116 265,110 267,107 277,116 288,120 292,127 277,138 282,145" id="73099" class="commune" fill="steelblue" stroke-width="1" stroke="white" geotype="commune" geoname="Détrier" code_insee="73099" code_canton="7311"/><polygon points="356,99 357,104 350,107 312,114 311,110 320,103 331,102 345,86 357,95 356,99" id="73111" class="commune" fill="steelblue" stroke-width="1" stroke="white" geotype="commune" geoname="Étable" code_insee="73111" code_canton="7311"/><polygon points="170,94 169,93 158,85 170,74 175,46 183,46 189,35 195,35 205,69 197,80 170,94" id="73118" class="commune" fill="steelblue" stroke-width="1" stroke="white" geotype="commune" geoname="Francin" code_insee="73118" code_canton="7311"/><polygon points="216,136 210,139 155,118 158,112 169,93 170,94 184,103 192,106 190,109 217,119 210,131 216,136" id="73141" class="commune" fill="steelblue" stroke-width="1" stroke="white" geotype="commune" geoname="Laissaud" code_insee="73141" code_canton="7311"/><polygon points="145,36 161,44 175,46 170,74 158,85 169,93 158,112 153,110 156,91 130,89 121,82 120,73 112,71 109,66 97,66 80,76 29,87 117,47 134,43 145,36" id="73151" class="commune" fill="steelblue" stroke-width="1" stroke="white" geotype="commune" geoname="Marches" code_insee="73151" code_canton="7311"/><polygon points="226,113 217,119 190,109 192,106 184,103 202,94 202,99 207,99 248,82 257,90 252,94 257,95 247,101 242,99 226,113" id="73159" class="commune" fill="steelblue" stroke-width="1" stroke="white" geotype="commune" geoname="Mollettes" code_insee="73159" code_canton="7311"/><polygon points="195,35 224,29 236,23 243,29 232,42 225,43 227,49 237,46 242,51 207,68 205,69 195,35" id="73171" class="commune" fill="steelblue" stroke-width="1" stroke="white" geotype="commune" geoname="Montmélian" code_insee="73171" code_canton="7311"/><polygon points="94,6 102,6 102,8 108,13 102,19 107,27 125,31 131,28 145,36 134,43 117,47 94,24 94,6" id="73183" class="commune" fill="steelblue" stroke-width="1" stroke="white" geotype="commune" geoname="Myans" code_insee="73183" code_canton="7311"/><polygon points="242,51 259,42 289,27 301,32 265,61 255,64 242,51" id="73200" class="commune" fill="steelblue" stroke-width="1" stroke="white" geotype="commune" geoname="Planaise" code_insee="73200" code_canton="7311"/><polygon points="457,89 441,71 431,67 428,56 423,56 440,48 457,49 457,45 470,41 498,36 500,41 485,59 457,89" id="73205" class="commune" fill="steelblue" stroke-width="1" stroke="white" geotype="commune" geoname="Pontet" code_insee="73205" code_canton="7311"/><polygon points="424,148 428,152 438,159 430,161 430,169 385,146 355,140 338,134 331,127 314,124 312,114 350,107 359,109 375,125 398,139 411,141 424,148" id="73207" class="commune" fill="steelblue" stroke-width="1" stroke="white" geotype="commune" geoname="Presle" code_insee="73207" code_canton="7311"/><polygon points="274,99 278,96 289,95 307,103 311,98 320,103 311,110 312,114 314,124 311,122 292,127 288,120 277,116 267,107 274,99" id="73215" class="commune" fill="steelblue" stroke-width="1" stroke="white" geotype="commune" geoname="Rochette" code_insee="73215" code_canton="7311"/><polygon points="311,98 324,88 336,81 345,86 331,102 320,103 311,98" id="73217" class="commune" fill="steelblue" stroke-width="1" stroke="white" geotype="commune" geoname="Rotherens" code_insee="73217" code_canton="7311"/><polygon points="207,68 218,72 219,78 237,71 251,70 255,64 265,61 269,66 248,82 207,99 202,99 202,94 184,103 170,94 197,80 205,69 207,68" id="73240" class="commune" fill="steelblue" stroke-width="1" stroke="white" geotype="commune" geoname="Sainte-Hélène-du-Lac" code_insee="73240" code_canton="7311"/><polygon points="278,96 274,99 257,95 252,94 257,90 248,82 269,66 304,43 325,56 321,60 303,74 278,96" id="73276" class="commune" fill="steelblue" stroke-width="1" stroke="white" geotype="commune" geoname="Saint-Pierre-de-Soucy" code_insee="73276" code_canton="7311"/><polygon points="336,81 346,69 362,79 369,79 397,57 404,59 415,61 401,74 401,80 425,90 440,108 432,115 433,128 422,129 424,120 410,125 404,122 395,112 374,100 376,94 356,99 357,95 345,86 336,81" id="73289" class="commune" fill="steelblue" stroke-width="1" stroke="white" geotype="commune" geoname="Table" code_insee="73289" code_canton="7311"/><polygon points="362,31 369,31 374,39 346,69 321,60 325,56 351,34 362,31" id="73302" class="commune" fill="steelblue" stroke-width="1" stroke="white" geotype="commune" geoname="Trinité" code_insee="73302" code_canton="7311"/><polygon points="350,107 357,104 356,99 376,94 374,100 395,112 404,122 410,125 424,120 422,129 433,128 437,131 435,140 424,148 411,141 398,139 375,125 359,109 350,107" id="73311" class="commune" fill="steelblue" stroke-width="1" stroke="white" geotype="commune" geoname="Verneil" code_insee="73311" code_canton="7311"/><polygon points="351,34 325,56 304,43 316,29 332,26 349,16 360,26 351,34" id="73314" class="commune" fill="steelblue" stroke-width="1" stroke="white" geotype="commune" geoname="Villard-d'Héry" code_insee="73314" code_canton="7311"/><polygon points="346,69 336,81 324,88 303,74 321,60 346,69 346,69" id="73316" class="commune" fill="steelblue" stroke-width="1" stroke="white" geotype="commune" geoname="Villard-Sallet" code_insee="73316" code_canton="7311"/><polygon points="265,110 242,120 226,113 242,99 247,101 257,95 274,99 267,107 265,110" id="73324" class="commune" fill="steelblue" stroke-width="1" stroke="white" geotype="commune" geoname="Villaroux" code_insee="73324" code_canton="7311"/></svg>