<?xml version="1.0" encoding="utf-8"?>
<svg version="1.1" id="svgmap" xmlns="http://www.w3.org/2000/svg" xmlns:xlink="http://www.w3.org/1999/xlink" x="0px" y="0px" width="100%" height="100%" viewBox="0 0 500 377">
<polygon points="396,15 404,31 389,37 411,50 405,54 396,51 384,47 371,50 369,44 341,54 321,39 339,22 371,23 396,15" id="74013" class="commune" fill="steelblue" stroke-width="1" stroke="white" geotype="commune" geoname="Anthy-sur-Léman" code_insee="74013" code_canton="7415"/><polygon points="172,198 166,184 154,180 153,145 164,130 175,125 198,121 211,125 225,115 234,119 243,114 240,123 270,131 283,140 242,157 228,173 198,184 187,178 172,198" id="74025" class="commune" fill="steelblue" stroke-width="1" stroke="white" geotype="commune" geoname="Ballaison" code_insee="74025" code_canton="7415"/><polygon points="225,304 222,299 226,274 231,263 272,253 300,267 332,265 324,279 332,313 343,306 355,306 356,321 356,334 348,338 341,329 323,320 299,339 309,323 286,328 268,326 225,304" id="74037" class="commune" fill="steelblue" stroke-width="1" stroke="white" geotype="commune" geoname="Boëge" code_insee="74037" code_canton="7415"/><polygon points="343,345 348,338 356,334 356,321 371,321 376,314 384,314 411,329 436,332 418,362 410,369 384,363 364,364 343,345" id="74038" class="commune" fill="steelblue" stroke-width="1" stroke="white" geotype="commune" geoname="Bogève" code_insee="74038" code_canton="7415"/><polygon points="172,198 187,178 198,184 228,173 242,157 283,140 286,140 288,142 287,152 266,177 271,188 278,191 273,203 283,210 276,214 293,235 272,253 231,263 226,274 211,265 213,249 209,236 198,234 202,225 198,216 187,212 173,216 171,203 172,198" id="74043" class="commune" fill="steelblue" stroke-width="1" stroke="white" geotype="commune" geoname="Bons-en-Chablais" code_insee="74043" code_canton="7415"/><polygon points="293,235 276,214 283,210 273,203 278,191 271,188 266,177 287,152 323,177 315,181 345,209 345,219 341,223 293,235" id="74048" class="commune" fill="steelblue" stroke-width="1" stroke="white" geotype="commune" geoname="Brenthonne" code_insee="74048" code_canton="7415"/><polygon points="355,306 343,306 332,313 324,279 332,265 343,248 353,250 362,233 372,220 383,220 390,245 405,265 395,279 379,296 355,306" id="74050" class="commune" fill="steelblue" stroke-width="1" stroke="white" geotype="commune" geoname="Burdignin" code_insee="74050" code_canton="7415"/><polygon points="77,159 73,163 77,168 63,162 41,170 37,154 28,154 21,149 22,135 8,130 30,117 40,99 36,92 62,68 75,79 91,74 100,79 98,84 106,88 69,135 70,157 77,159" id="74070" class="commune" fill="steelblue" stroke-width="1" stroke="white" geotype="commune" geoname="Chens-sur-Léman" code_insee="74070" code_canton="7415"/><polygon points="175,125 164,130 153,145 130,146 114,159 96,154 77,159 70,157 69,135 106,88 146,99 175,125" id="74105" class="commune" fill="steelblue" stroke-width="1" stroke="white" geotype="commune" geoname="Douvaine" code_insee="74105" code_canton="7415"/><polygon points="215,8 220,25 241,46 231,63 221,68 207,72 193,66 188,68 164,75 156,70 173,36 201,30 197,22 212,16 215,8" id="74121" class="commune" fill="steelblue" stroke-width="1" stroke="white" geotype="commune" geoname="Excenevex" code_insee="74121" code_canton="7415"/><polygon points="404,221 383,220 372,220 362,233 345,219 345,209 315,181 323,177 287,152 288,142 330,167 336,178 372,162 384,183 404,197 398,215 404,221" id="74126" class="commune" fill="steelblue" stroke-width="1" stroke="white" geotype="commune" geoname="Fessy" code_insee="74126" code_canton="7415"/><polygon points="383,220 404,221 423,251 454,255 485,269 485,276 458,308 439,294 395,279 405,265 390,245 383,220" id="74139" class="commune" fill="steelblue" stroke-width="1" stroke="white" geotype="commune" geoname="Habère-Lullin" code_insee="74139" code_canton="7415"/><polygon points="485,228 500,246 485,269 454,255 423,251 404,221 416,216 430,183 465,189 472,186 475,197 482,193 492,200 490,210 480,220 485,228" id="74140" class="commune" fill="steelblue" stroke-width="1" stroke="white" geotype="commune" geoname="Habère-Poche" code_insee="74140" code_canton="7415"/><polygon points="77,168 73,163 77,159 96,154 114,159 130,146 153,145 154,180 166,184 172,198 171,203 146,210 129,202 116,202 122,192 109,191 104,182 77,168" id="74150" class="commune" fill="steelblue" stroke-width="1" stroke="white" geotype="commune" geoname="Loisin" code_insee="74150" code_canton="7415"/><polygon points="288,142 286,140 292,134 297,137 303,127 320,124 355,153 369,152 372,162 336,178 330,167 288,142" id="74156" class="commune" fill="steelblue" stroke-width="1" stroke="white" geotype="commune" geoname="Lully" code_insee="74156" code_canton="7415"/><polygon points="396,51 397,66 385,66 376,91 362,106 358,119 342,124 335,119 334,85 327,84 342,64 325,47 311,42 321,39 341,54 369,44 371,50 384,47 396,51" id="74163" class="commune" fill="steelblue" stroke-width="1" stroke="white" geotype="commune" geoname="Margencel" code_insee="74163" code_canton="7415"/><polygon points="106,88 98,84 100,79 111,78 138,59 149,71 156,70 164,75 188,68 208,80 204,90 213,95 217,105 225,106 225,115 211,125 198,121 175,125 146,99 106,88" id="74171" class="commune" fill="steelblue" stroke-width="1" stroke="white" geotype="commune" geoname="Massongy" code_insee="74171" code_canton="7415"/><polygon points="100,79 91,74 75,79 62,68 76,50 75,42 104,24 120,37 149,25 145,22 156,14 170,25 173,36 156,70 149,71 138,59 111,78 100,79" id="74180" class="commune" fill="steelblue" stroke-width="1" stroke="white" geotype="commune" geoname="Messery" code_insee="74180" code_canton="7415"/><polygon points="156,14 145,22 149,25 120,37 104,24 124,11 150,6 156,14" id="74199" class="commune" fill="steelblue" stroke-width="1" stroke="white" geotype="commune" geoname="Nernier" code_insee="74199" code_canton="7415"/><polygon points="348,338 343,345 318,377 268,372 216,344 211,337 224,308 225,304 268,326 286,328 309,323 299,339 323,320 341,329 348,338" id="74226" class="commune" fill="steelblue" stroke-width="1" stroke="white" geotype="commune" geoname="Saint-André-de-Boëge" code_insee="74226" code_canton="7415"/><polygon points="345,219 362,233 353,250 343,248 332,265 300,267 272,253 293,235 341,223 345,219" id="74261" class="commune" fill="steelblue" stroke-width="1" stroke="white" geotype="commune" geoname="Saxel" code_insee="74261" code_canton="7415"/><polygon points="283,140 270,131 240,123 243,114 234,119 225,115 225,106 217,105 213,95 204,90 208,80 188,68 193,66 207,72 221,68 231,63 241,46 290,60 311,42 325,47 342,64 327,84 334,85 335,119 333,124 320,124 303,127 297,137 292,134 286,140 283,140" id="74263" class="commune" fill="steelblue" stroke-width="1" stroke="white" geotype="commune" geoname="Sciez" code_insee="74263" code_canton="7415"/><polygon points="77,168 104,182 109,191 122,192 116,202 110,206 79,232 56,239 44,231 46,226 24,211 0,181 1,173 27,161 28,154 37,154 41,170 63,162 77,168" id="74293" class="commune" fill="steelblue" stroke-width="1" stroke="white" geotype="commune" geoname="Veigy-Foncenex" code_insee="74293" code_canton="7415"/><polygon points="356,321 355,306 379,296 395,279 439,294 458,308 461,317 446,332 436,332 411,329 384,314 376,314 371,321 356,321" id="74301" class="commune" fill="steelblue" stroke-width="1" stroke="white" geotype="commune" geoname="Villard" code_insee="74301" code_canton="7415"/><polygon points="215,8 212,16 197,22 201,30 173,36 170,25 156,14 150,6 171,0 179,4 204,3 215,8" id="74315" class="commune" fill="steelblue" stroke-width="1" stroke="white" geotype="commune" geoname="Yvoire" code_insee="74315" code_canton="7415"/></svg>