<?xml version="1.0" encoding="utf-8"?>
<svg version="1.1" id="svgmap" xmlns="http://www.w3.org/2000/svg" xmlns:xlink="http://www.w3.org/1999/xlink" x="0px" y="0px" width="100%" height="100%" viewBox="0 0 500 389">
<polygon points="94,264 141,258 152,291 136,302 152,307 125,318 144,330 128,349 41,319 69,287 87,286 94,264" id="76165" class="commune" fill="steelblue" stroke-width="1" stroke="white" geotype="commune" geoname="Caudebec-lès-Elbeuf" code_insee="76165" code_canton="7605"/><polygon points="232,140 247,162 245,165 226,167 240,205 209,214 206,205 165,214 117,218 100,231 64,175 112,162 109,155 232,140" id="76178" class="commune" fill="steelblue" stroke-width="1" stroke="white" geotype="commune" geoname="Cléon" code_insee="76178" code_canton="7605"/><polygon points="240,205 278,192 307,178 323,173 328,178 340,173 352,205 271,216 185,249 168,251 161,237 186,231 165,214 206,205 209,214 240,205" id="76282" class="commune" fill="steelblue" stroke-width="1" stroke="white" geotype="commune" geoname="Freneuse" code_insee="76282" code_canton="7605"/><polygon points="141,258 94,264 43,263 6,241 0,223 33,185 64,175 100,231 117,218 165,214 186,231 161,237 168,251 141,258" id="76561" class="commune" fill="steelblue" stroke-width="1" stroke="white" geotype="commune" geoname="Saint-Aubin-lès-Elbeuf" code_insee="76561" code_canton="7605"/><polygon points="168,251 185,249 201,261 194,269 211,271 245,297 260,323 219,326 200,336 207,353 246,371 240,375 230,386 205,372 197,387 191,369 154,389 152,383 176,364 128,349 144,330 125,318 152,307 136,302 152,291 141,258 168,251" id="76640" class="commune" fill="steelblue" stroke-width="1" stroke="white" geotype="commune" geoname="Saint-Pierre-lès-Elbeuf" code_insee="76640" code_canton="7605"/><polygon points="340,173 353,165 392,155 428,154 484,141 500,150 492,205 475,205 352,205 340,173" id="76682" class="commune" fill="steelblue" stroke-width="1" stroke="white" geotype="commune" geoname="Sotteville-sous-le-Val" code_insee="76682" code_canton="7605"/><polygon points="464,59 461,77 449,92 438,98 456,103 446,105 433,115 451,132 438,125 426,142 440,151 476,141 484,141 428,154 392,155 353,165 340,173 328,178 323,173 307,178 278,192 240,205 226,167 245,165 247,162 232,140 247,134 252,138 265,137 285,125 324,120 354,113 385,116 386,107 407,104 435,91 439,85 433,84 447,69 459,64 463,40 467,33 464,17 466,16 463,5 459,1 461,0 469,5 471,15 471,32 462,53 464,59" id="76705" class="commune" fill="steelblue" stroke-width="1" stroke="white" geotype="commune" geoname="Tourville-la-Rivière" code_insee="76705" code_canton="7605"/></svg>