<?xml version="1.0" encoding="utf-8"?>
<svg version="1.1" id="svgmap" xmlns="http://www.w3.org/2000/svg" xmlns:xlink="http://www.w3.org/1999/xlink" x="0px" y="0px" width="100%" height="100%" viewBox="0 0 500 441">
<polygon points="234,320 228,309 235,305 252,304 251,293 273,291 268,279 301,280 302,285 316,289 324,298 320,311 325,314 308,310 281,314 234,320" id="76046" class="commune" fill="steelblue" stroke-width="1" stroke="white" geotype="commune" geoname="Auzouville-sur-Ry" code_insee="76046" code_canton="7621"/><polygon points="219,137 231,132 238,136 234,138 243,145 234,151 239,153 247,160 228,163 222,160 222,156 207,149 219,137" id="76094" class="commune" fill="steelblue" stroke-width="1" stroke="white" geotype="commune" geoname="Bierville" code_insee="76094" code_canton="7621"/><polygon points="305,228 295,229 297,236 260,227 247,228 235,214 208,205 206,201 205,192 214,191 215,187 209,179 224,162 228,163 247,160 239,153 246,152 262,174 288,181 282,203 299,214 305,228" id="76100" class="commune" fill="steelblue" stroke-width="1" stroke="white" geotype="commune" geoname="Blainville-Crevon" code_insee="76100" code_canton="7621"/><polygon points="224,300 228,309 234,320 238,332 220,342 210,338 216,333 208,331 208,327 192,332 181,329 177,323 165,326 169,319 175,297 188,296 190,299 199,296 224,300" id="76106" class="commune" fill="steelblue" stroke-width="1" stroke="white" geotype="commune" geoname="Bois-d'Ennebourg" code_insee="76106" code_canton="7621"/><polygon points="484,146 439,154 440,165 445,170 439,175 431,171 419,171 421,165 410,166 417,156 404,147 407,127 424,130 471,115 484,146" id="76107" class="commune" fill="steelblue" stroke-width="1" stroke="white" geotype="commune" geoname="Bois-Guilbert" code_insee="76107" code_canton="7621"/><polygon points="432,79 441,79 451,68 465,69 480,62 482,64 458,75 451,75 431,91 438,103 470,115 471,115 424,130 407,127 398,116 417,88 432,79" id="76109" class="commune" fill="steelblue" stroke-width="1" stroke="white" geotype="commune" geoname="Bois-Héroult" code_insee="76109" code_canton="7621"/><polygon points="224,300 199,296 190,299 188,296 175,297 178,283 166,279 165,271 154,264 187,261 188,252 196,250 197,262 228,264 226,276 232,286 223,290 224,300" id="76111" class="commune" fill="steelblue" stroke-width="1" stroke="white" geotype="commune" geoname="Bois-l'Évêque" code_insee="76111" code_canton="7621"/><polygon points="336,183 322,164 336,150 341,151 338,154 358,161 371,160 378,174 391,175 396,194 390,195 392,198 384,201 368,203 358,188 336,183" id="76113" class="commune" fill="steelblue" stroke-width="1" stroke="white" geotype="commune" geoname="Boissay" code_insee="76113" code_canton="7621"/><polygon points="113,427 118,417 105,408 85,405 70,411 64,410 67,405 63,406 57,396 71,390 78,373 83,373 87,366 115,373 125,358 130,363 141,359 151,357 160,359 159,364 178,364 180,375 168,374 162,389 133,397 142,398 134,402 137,405 129,413 127,432 112,433 113,427" id="76116" class="commune" fill="steelblue" stroke-width="1" stroke="white" geotype="commune" geoname="Boos" code_insee="76116" code_canton="7621"/><polygon points="480,62 465,69 451,68 441,79 432,79 423,79 419,67 401,50 399,31 420,18 407,0 428,3 443,21 447,15 459,14 472,23 452,28 447,34 456,46 475,52 480,62" id="76120" class="commune" fill="steelblue" stroke-width="1" stroke="white" geotype="commune" geoname="Bosc-Bordel" code_insee="76120" code_canton="7621"/><polygon points="482,64 500,73 494,79 482,79 493,89 483,88 489,92 478,103 480,113 470,115 438,103 431,91 451,75 458,75 482,64" id="76121" class="commune" fill="steelblue" stroke-width="1" stroke="white" geotype="commune" geoname="Bosc-Édeline" code_insee="76121" code_canton="7621"/><polygon points="432,79 417,88 398,116 393,115 363,90 348,94 339,89 348,84 375,76 377,65 368,62 361,69 326,50 325,45 339,42 344,46 353,39 372,36 379,29 399,31 401,50 419,67 423,79 432,79" id="76127" class="commune" fill="steelblue" stroke-width="1" stroke="white" geotype="commune" geoname="Bosc-Roger-sur-Buchy" code_insee="76127" code_canton="7621"/><polygon points="325,45 326,50 361,69 368,62 377,65 375,76 348,84 338,82 329,80 337,70 320,61 323,58 312,51 318,48 325,45" id="76146" class="commune" fill="steelblue" stroke-width="1" stroke="white" geotype="commune" geoname="Buchy" code_insee="76146" code_canton="7621"/><polygon points="155,51 174,60 184,66 175,72 196,79 190,86 159,91 153,90 152,94 146,83 133,78 132,66 120,61 131,58 133,62 144,58 144,49 155,51" id="76152" class="commune" fill="steelblue" stroke-width="1" stroke="white" geotype="commune" geoname="Cailly" code_insee="76152" code_canton="7621"/><polygon points="322,164 336,183 323,192 325,199 316,203 319,208 299,214 282,203 288,181 285,177 300,168 322,164" id="76163" class="commune" fill="steelblue" stroke-width="1" stroke="white" geotype="commune" geoname="Catenay" code_insee="76163" code_canton="7621"/><polygon points="379,211 387,213 397,235 409,238 424,248 435,248 407,264 399,261 389,258 351,227 379,211" id="76230" class="commune" fill="steelblue" stroke-width="1" stroke="white" geotype="commune" geoname="Elbeuf-sur-Andelle" code_insee="76230" code_canton="7621"/><polygon points="336,150 334,147 336,142 343,139 345,126 368,120 373,123 368,146 386,152 381,152 382,158 370,158 371,160 358,161 338,154 341,151 336,150" id="76243" class="commune" fill="steelblue" stroke-width="1" stroke="white" geotype="commune" geoname="Ernemont-sur-Buchy" code_insee="76243" code_canton="7621"/><polygon points="222,79 232,77 239,65 259,59 267,62 296,58 302,42 318,48 312,51 323,58 320,61 337,70 329,80 338,82 336,89 324,92 319,86 323,77 319,79 318,72 307,69 296,78 281,78 277,74 262,81 267,91 262,87 257,92 251,89 227,93 228,86 222,79" id="76248" class="commune" fill="steelblue" stroke-width="1" stroke="white" geotype="commune" geoname="Estouteville-Écalles" code_insee="76248" code_canton="7621"/><polygon points="221,343 220,342 238,332 234,320 281,314 290,342 290,347 287,336 278,364 263,367 261,352 221,343" id="76285" class="commune" fill="steelblue" stroke-width="1" stroke="white" geotype="commune" geoname="Fresne-le-Plan" code_insee="76285" code_canton="7621"/><polygon points="290,252 281,256 282,264 262,266 262,260 261,250 230,243 228,232 247,228 260,227 297,236 305,238 290,252" id="76316" class="commune" fill="steelblue" stroke-width="1" stroke="white" geotype="commune" geoname="Grainville-sur-Ry" code_insee="76316" code_canton="7621"/><polygon points="391,175 378,174 371,160 370,158 382,158 381,152 386,152 368,146 373,123 379,115 384,118 393,115 398,116 407,127 404,147 417,156 410,166 402,173 397,170 403,176 391,175" id="76359" class="commune" fill="steelblue" stroke-width="1" stroke="white" geotype="commune" geoname="Héronchelles" code_insee="76359" code_canton="7621"/><polygon points="203,126 213,117 232,124 240,120 252,122 284,118 286,127 280,127 286,138 282,141 270,138 263,146 257,144 259,148 246,152 239,153 234,151 243,145 234,138 238,136 231,132 219,137 218,131 203,126" id="76396" class="commune" fill="steelblue" stroke-width="1" stroke="white" geotype="commune" geoname="Longuerue" code_insee="76396" code_canton="7621"/><polygon points="262,260 262,266 282,264 281,256 290,252 289,258 303,261 301,280 268,279 273,291 251,293 252,304 235,305 228,309 224,300 223,290 232,286 226,276 228,264 239,262 241,258 252,262 262,260" id="76412" class="commune" fill="steelblue" stroke-width="1" stroke="white" geotype="commune" geoname="Martainville-Épreville" code_insee="76412" code_canton="7621"/><polygon points="61,329 56,336 48,334 41,339 47,343 42,354 29,356 34,363 26,363 19,360 26,351 12,353 10,348 0,350 2,333 14,331 6,324 16,318 33,316 42,325 55,325 61,329" id="76429" class="commune" fill="steelblue" stroke-width="1" stroke="white" geotype="commune" geoname="Mesnil-Esnard" code_insee="76429" code_canton="7621"/><polygon points="245,379 214,381 188,379 193,373 191,368 199,363 204,352 221,343 261,352 263,367 256,366 253,377 243,377 245,379" id="76434" class="commune" fill="steelblue" stroke-width="1" stroke="white" geotype="commune" geoname="Mesnil-Raoul" code_insee="76434" code_canton="7621"/><polygon points="220,342 221,343 204,352 199,363 169,356 160,359 151,357 141,359 140,358 154,350 154,336 165,326 177,323 181,329 192,332 208,327 208,331 216,333 210,338 220,342" id="76448" class="commune" fill="steelblue" stroke-width="1" stroke="white" geotype="commune" geoname="Montmain" code_insee="76448" code_canton="7621"/><polygon points="222,160 228,163 224,162 209,179 215,187 214,191 205,192 206,201 194,198 169,184 166,178 152,179 157,175 153,164 155,160 164,164 182,162 180,158 197,152 222,160" id="76453" class="commune" fill="steelblue" stroke-width="1" stroke="white" geotype="commune" geoname="Morgny-la-Pommeraye" code_insee="76453" code_canton="7621"/><polygon points="183,439 127,435 127,432 129,413 137,405 134,402 142,398 133,397 162,389 168,374 180,375 178,364 159,364 160,359 169,356 199,363 191,368 193,373 188,379 214,381 245,379 250,397 244,399 245,416 240,416 238,425 223,425 223,429 223,441 183,439" id="76464" class="commune" fill="steelblue" stroke-width="1" stroke="white" geotype="commune" geoname="Neuville-Chant-d'Oisel" code_insee="76464" code_canton="7621"/><polygon points="57,370 46,364 54,360 42,354 47,343 41,339 48,334 56,336 73,340 78,332 103,339 122,340 118,343 140,358 141,359 130,363 125,358 115,373 87,366 57,370" id="76475" class="commune" fill="steelblue" stroke-width="1" stroke="white" geotype="commune" geoname="Franqueville-Saint-Pierre" code_insee="76475" code_canton="7621"/><polygon points="180,158 167,141 190,127 195,131 203,126 218,131 219,137 207,149 222,156 222,160 197,152 180,158" id="76502" class="commune" fill="steelblue" stroke-width="1" stroke="white" geotype="commune" geoname="Pierreval" code_insee="76502" code_canton="7621"/><polygon points="154,264 144,260 144,254 124,253 120,250 107,241 88,241 79,220 72,217 92,210 92,204 146,179 157,193 178,206 173,208 181,222 174,239 177,248 193,244 196,250 188,252 187,261 154,264" id="76509" class="commune" fill="steelblue" stroke-width="1" stroke="white" geotype="commune" geoname="Préaux" code_insee="76509" code_canton="7621"/><polygon points="391,175 403,176 397,170 402,173 410,166 421,165 419,171 431,171 439,175 418,194 422,199 417,202 410,196 404,199 403,205 396,206 392,198 390,195 396,194 391,175" id="76521" class="commune" fill="steelblue" stroke-width="1" stroke="white" geotype="commune" geoname="Rebets" code_insee="76521" code_canton="7621"/><polygon points="213,117 203,126 195,131 190,127 180,126 158,102 168,98 159,91 190,86 196,79 222,79 228,86 227,93 222,95 228,96 213,117" id="76547" class="commune" fill="steelblue" stroke-width="1" stroke="white" geotype="commune" geoname="Rue-Saint-Pierre" code_insee="76547" code_canton="7621"/><polygon points="297,236 295,229 305,228 307,232 315,234 321,229 327,233 334,228 344,228 353,245 344,248 351,254 349,257 334,263 303,261 289,258 290,252 305,238 297,236" id="76548" class="commune" fill="steelblue" stroke-width="1" stroke="white" geotype="commune" geoname="Ry" code_insee="76548" code_canton="7621"/><polygon points="344,228 334,228 327,233 321,229 315,234 307,232 305,228 299,214 319,208 316,203 325,199 323,192 336,183 358,188 368,203 384,201 379,211 351,227 344,228" id="76554" class="commune" fill="steelblue" stroke-width="1" stroke="white" geotype="commune" geoname="Saint-Aignan-sur-Ry" code_insee="76554" code_canton="7621"/><polygon points="190,127 167,141 180,158 182,162 164,164 155,160 153,164 141,158 140,154 119,146 117,149 104,147 116,125 102,119 111,115 114,109 118,105 147,97 151,99 152,94 153,90 159,91 168,98 158,102 180,126 190,127" id="76555" class="commune" fill="steelblue" stroke-width="1" stroke="white" geotype="commune" geoname="Saint-André-sur-Cailly" code_insee="76555" code_canton="7621"/><polygon points="348,84 339,89 348,94 363,90 393,115 384,118 379,115 373,123 368,120 345,126 343,139 336,142 334,147 314,137 310,139 291,116 301,110 281,78 296,78 307,69 318,72 319,79 323,77 319,86 324,92 336,89 338,82 348,84" id="76571" class="commune" fill="steelblue" stroke-width="1" stroke="white" geotype="commune" geoname="Sainte-Croix-sur-Buchy" code_insee="76571" code_canton="7621"/><polygon points="324,298 316,289 302,285 301,280 303,261 334,263 349,257 351,254 344,248 353,245 344,228 351,227 389,258 399,261 394,269 375,280 332,287 329,294 343,300 339,305 324,298" id="76573" class="commune" fill="steelblue" stroke-width="1" stroke="white" geotype="commune" geoname="Saint-Denis-le-Thiboult" code_insee="76573" code_canton="7621"/><polygon points="334,147 336,150 322,164 300,168 285,177 288,181 262,174 246,152 259,148 257,144 263,146 270,138 282,141 286,138 280,127 286,127 284,118 291,116 310,139 314,137 334,147" id="76581" class="commune" fill="steelblue" stroke-width="1" stroke="white" geotype="commune" geoname="Saint-Germain-des-Essourts" code_insee="76581" code_canton="7621"/><polygon points="131,58 120,61 132,66 133,78 146,83 152,94 151,99 147,97 118,105 111,95 120,92 112,85 106,86 107,71 119,61 116,60 130,56 131,58" id="76583" class="commune" fill="steelblue" stroke-width="1" stroke="white" geotype="commune" geoname="Saint-Germain-sous-Cailly" code_insee="76583" code_canton="7621"/><polygon points="196,250 193,244 190,238 210,225 203,224 200,212 201,206 208,205 235,214 247,228 228,232 230,243 261,250 262,260 252,262 241,258 239,262 228,264 197,262 196,250" id="76673" class="commune" fill="steelblue" stroke-width="1" stroke="white" geotype="commune" geoname="Servaville-Salmonville" code_insee="76673" code_canton="7621"/><polygon points="227,93 251,89 257,92 262,87 267,91 262,81 277,74 281,78 301,110 291,116 284,118 252,122 240,120 232,124 213,117 228,96 222,95 227,93" id="76738" class="commune" fill="steelblue" stroke-width="1" stroke="white" geotype="commune" geoname="Vieux-Manoir" code_insee="76738" code_canton="7621"/><polygon points="193,244 177,248 174,239 181,222 173,208 178,206 157,193 146,179 152,179 166,178 169,184 194,198 206,201 208,205 201,206 200,212 203,224 210,225 190,238 193,244" id="76740" class="commune" fill="steelblue" stroke-width="1" stroke="white" geotype="commune" geoname="Vieux-Rue" code_insee="76740" code_canton="7621"/><polygon points="239,65 232,77 222,79 196,79 175,72 184,66 174,60 176,57 169,54 174,46 180,48 189,44 183,42 185,40 205,42 214,39 231,64 239,65" id="76756" class="commune" fill="steelblue" stroke-width="1" stroke="white" geotype="commune" geoname="Yquebeuf" code_insee="76756" code_canton="7621"/></svg>