<?xml version="1.0" encoding="utf-8"?>
<svg version="1.1" id="svgmap" xmlns="http://www.w3.org/2000/svg" xmlns:xlink="http://www.w3.org/1999/xlink" x="0px" y="0px" width="100%" height="100%" viewBox="0 0 500 397">
<polygon points="157,166 149,162 140,148 147,141 174,144 198,162 204,159 214,163 222,173 199,174 195,178 170,177 157,166" id="76022" class="commune" fill="steelblue" stroke-width="1" stroke="white" geotype="commune" geoname="Anquetierville" code_insee="76022" code_canton="7625"/><polygon points="149,162 157,166 156,172 147,171 142,178 129,179 130,176 116,177 102,171 89,174 87,168 73,165 81,158 67,158 66,155 92,141 100,147 102,137 112,142 109,148 118,149 126,158 149,162" id="76031" class="commune" fill="steelblue" stroke-width="1" stroke="white" geotype="commune" geoname="Auberville-la-Campagne" code_insee="76031" code_canton="7625"/><polygon points="75,75 57,71 44,73 28,53 22,53 29,47 28,38 21,42 11,35 18,31 12,23 18,20 13,10 16,0 34,11 27,12 29,16 43,13 45,18 56,16 65,29 71,29 79,37 106,34 108,45 93,58 94,72 75,75" id="76115" class="commune" fill="steelblue" stroke-width="1" stroke="white" geotype="commune" geoname="Bolleville" code_insee="76115" code_canton="7625"/><polygon points="308,183 329,176 318,174 328,174 325,162 333,164 330,151 339,150 349,152 348,161 361,161 377,151 377,146 385,146 383,166 391,172 380,189 344,185 310,188 308,183" id="76164" class="commune" fill="steelblue" stroke-width="1" stroke="white" geotype="commune" geoname="Caudebec-en-Caux" code_insee="76164" code_canton="7625"/><polygon points="66,155 67,158 81,158 73,165 87,168 89,174 102,171 116,177 130,176 129,179 120,190 122,196 112,195 105,200 89,211 72,212 56,222 41,213 31,205 42,196 42,189 31,200 24,197 22,194 34,191 37,176 32,172 37,164 51,160 65,166 52,157 66,155" id="76281" class="commune" fill="steelblue" stroke-width="1" stroke="white" geotype="commune" geoname="Frénaye" code_insee="76281" code_canton="7625"/><polygon points="147,141 140,148 149,162 126,158 118,149 109,148 112,142 102,137 76,126 95,113 119,111 119,125 129,120 144,127 148,124 149,134 145,137 152,140 144,139 147,141" id="76318" class="commune" fill="steelblue" stroke-width="1" stroke="white" geotype="commune" geoname="Grand-Camp" code_insee="76318" code_canton="7625"/><polygon points="478,268 493,283 500,300 499,318 476,339 475,352 470,352 442,293 473,275 478,268" id="76362" class="commune" fill="steelblue" stroke-width="1" stroke="white" geotype="commune" geoname="Heurteauville" code_insee="76362" code_canton="7625"/><polygon points="102,137 100,147 92,141 66,155 52,157 50,155 73,142 65,133 59,137 56,135 53,129 39,132 25,135 13,123 31,113 17,110 50,94 77,89 95,113 76,126 102,137" id="76388" class="commune" fill="steelblue" stroke-width="1" stroke="white" geotype="commune" geoname="Lintot" code_insee="76388" code_canton="7625"/><polygon points="294,106 295,103 287,96 275,92 281,87 284,87 283,83 295,83 295,85 302,87 301,89 304,90 306,87 310,87 311,83 314,81 312,78 316,77 316,76 330,76 329,78 333,77 344,70 352,71 349,78 357,80 356,87 364,86 380,105 391,106 381,107 374,116 364,117 354,111 344,111 343,115 308,113 299,109 292,114 294,106" id="76398" class="commune" fill="steelblue" stroke-width="1" stroke="white" geotype="commune" geoname="Louvetot" code_insee="76398" code_canton="7625"/><polygon points="448,378 442,382 434,380 427,369 411,365 394,376 375,375 368,378 370,383 360,385 321,381 311,329 317,279 327,250 335,250 336,258 355,256 361,266 368,266 382,265 401,253 426,250 438,260 478,268 473,275 442,293 470,352 479,380 471,378 467,369 448,378" id="76401" class="commune" fill="steelblue" stroke-width="1" stroke="white" geotype="commune" geoname="Mailleraye-sur-Seine" code_insee="76401" code_canton="7625"/><polygon points="236,111 241,110 242,104 248,104 249,93 261,96 260,92 271,99 270,103 285,105 285,107 294,106 292,114 299,109 308,113 343,115 344,111 354,111 364,117 374,116 382,127 368,141 377,146 377,151 361,161 348,161 349,152 339,150 330,151 333,164 325,162 317,152 301,147 298,150 271,138 247,138 243,137 249,129 223,121 230,114 236,115 236,111" id="76418" class="commune" fill="steelblue" stroke-width="1" stroke="white" geotype="commune" geoname="Maulévrier-Sainte-Gertrude" code_insee="76418" code_canton="7625"/><polygon points="229,300 182,275 170,284 172,281 141,264 154,261 159,251 152,242 151,234 169,226 209,220 214,222 212,228 224,234 221,239 237,250 229,300" id="76471" class="commune" fill="steelblue" stroke-width="1" stroke="white" geotype="commune" geoname="Norville" code_insee="76471" code_canton="7625"/><polygon points="382,190 405,200 421,213 425,248 426,250 401,253 382,265 368,266 361,266 355,256 350,231 370,215 382,190" id="76473" class="commune" fill="steelblue" stroke-width="1" stroke="white" geotype="commune" geoname="Notre-Dame-de-Bliquetuit" code_insee="76473" code_canton="7625"/><polygon points="118,264 98,260 23,293 12,284 9,282 17,278 0,262 1,256 17,247 33,222 26,218 41,213 56,222 72,212 89,211 105,200 120,199 120,206 125,204 133,208 137,218 128,235 143,240 121,260 123,265 118,264" id="76476" class="commune" fill="steelblue" stroke-width="1" stroke="white" geotype="commune" geoname="Notre-Dame-de-Gravenchon" code_insee="76476" code_canton="7625"/><polygon points="144,348 117,349 86,341 50,316 23,293 98,260 118,264 118,279 126,280 121,288 129,294 144,348" id="76499" class="commune" fill="steelblue" stroke-width="1" stroke="white" geotype="commune" geoname="Petiville" code_insee="76499" code_canton="7625"/><polygon points="325,162 328,174 318,174 329,176 308,183 261,187 226,183 199,174 222,173 214,163 204,159 198,162 174,144 147,141 144,139 152,140 145,137 149,134 168,139 170,132 173,134 221,146 247,138 271,138 298,150 301,147 317,152 325,162" id="76557" class="commune" fill="steelblue" stroke-width="1" stroke="white" geotype="commune" geoname="Saint-Arnoult" code_insee="76557" code_canton="7625"/><polygon points="195,86 211,90 225,96 193,98 191,102 198,102 192,113 178,121 167,116 169,107 143,107 139,103 132,103 146,82 168,79 180,89 195,86" id="76559" class="commune" fill="steelblue" stroke-width="1" stroke="white" geotype="commune" geoname="Saint-Aubin-de-Crétot" code_insee="76559" code_canton="7625"/><polygon points="225,96 225,102 236,107 236,111 236,115 230,114 223,121 249,129 243,137 247,138 221,146 173,134 172,127 178,121 192,113 198,102 191,102 193,98 225,96" id="76585" class="commune" fill="steelblue" stroke-width="1" stroke="white" geotype="commune" geoname="Saint-Gilles-de-Crétot" code_insee="76585" code_canton="7625"/><polygon points="145,348 144,348 129,294 121,288 126,280 118,279 118,264 123,265 121,260 143,240 152,242 159,251 154,261 141,264 172,281 170,284 182,275 229,300 194,322 145,348" id="76622" class="commune" fill="steelblue" stroke-width="1" stroke="white" geotype="commune" geoname="Saint-Maurice-d'Ételan" code_insee="76622" code_canton="7625"/><polygon points="310,188 344,185 380,189 382,190 370,215 350,231 355,256 336,258 335,250 327,250 319,247 329,233 319,214 314,209 300,209 283,192 310,188" id="76625" class="commune" fill="steelblue" stroke-width="1" stroke="white" geotype="commune" geoname="Saint-Nicolas-de-Bliquetuit" code_insee="76625" code_canton="7625"/><polygon points="149,134 148,124 144,127 129,120 119,125 119,111 120,106 132,103 139,103 143,107 169,107 167,116 178,121 172,127 173,134 170,132 168,139 149,134" id="76626" class="commune" fill="steelblue" stroke-width="1" stroke="white" geotype="commune" geoname="Saint-Nicolas-de-la-Haie" code_insee="76626" code_canton="7625"/><polygon points="374,116 381,107 391,106 397,116 406,113 408,116 403,141 419,140 422,149 438,152 444,164 476,165 481,173 466,195 485,212 482,220 474,219 454,228 447,223 425,248 421,213 405,200 382,190 380,189 391,172 383,166 385,146 377,146 368,141 382,127 374,116" id="76659" class="commune" fill="steelblue" stroke-width="1" stroke="white" geotype="commune" geoname="Saint-Wandrille-Rançon" code_insee="76659" code_canton="7625"/><polygon points="157,166 170,177 169,184 179,195 167,195 167,204 148,203 133,208 125,204 120,206 120,199 105,200 112,195 122,196 120,190 129,179 142,178 147,171 156,172 157,166" id="76701" class="commune" fill="steelblue" stroke-width="1" stroke="white" geotype="commune" geoname="Touffreville-la-Cable" code_insee="76701" code_canton="7625"/><polygon points="169,226 151,234 152,242 143,240 128,235 137,218 133,208 148,203 167,204 175,208 169,226" id="76713" class="commune" fill="steelblue" stroke-width="1" stroke="white" geotype="commune" geoname="Triquerville" code_insee="76713" code_canton="7625"/><polygon points="129,41 131,46 155,52 166,63 160,67 168,79 146,82 132,103 120,106 119,111 95,113 77,89 75,75 94,72 93,58 108,45 129,41" id="76715" class="commune" fill="steelblue" stroke-width="1" stroke="white" geotype="commune" geoname="Trouville" code_insee="76715" code_canton="7625"/><polygon points="170,358 182,335 193,330 205,334 204,330 194,322 229,300 237,250 250,207 263,197 283,192 300,209 314,209 319,214 329,233 319,247 327,250 317,279 311,329 321,381 319,383 308,381 311,386 303,396 277,389 243,394 230,397 219,390 205,385 224,373 216,366 210,362 197,374 188,368 198,362 191,359 198,354 191,352 172,361 170,358" id="76727" class="commune" fill="steelblue" stroke-width="1" stroke="white" geotype="commune" geoname="Vatteville-la-Rue" code_insee="76727" code_canton="7625"/><polygon points="308,183 310,188 283,192 263,197 250,207 237,250 221,239 224,234 212,228 214,222 209,220 169,226 175,208 167,204 167,195 179,195 169,184 170,177 195,178 199,174 226,183 261,187 308,183" id="76742" class="commune" fill="steelblue" stroke-width="1" stroke="white" geotype="commune" geoname="Villequier" code_insee="76742" code_canton="7625"/></svg>