<?xml version="1.0" encoding="utf-8"?>
<svg version="1.1" id="svgmap" xmlns="http://www.w3.org/2000/svg" xmlns:xlink="http://www.w3.org/1999/xlink" x="0px" y="0px" width="100%" height="100%" viewBox="0 0 500 404">
<polygon points="264,165 254,157 289,145 293,150 336,167 330,177 316,180 310,182 301,165 264,165" id="78013" class="commune" fill="steelblue" stroke-width="1" stroke="white" geotype="commune" geoname="Andelu" code_insee="78013" code_canton="7801"/><polygon points="361,90 358,88 355,83 349,84 343,65 334,62 343,52 338,23 335,19 307,26 322,22 323,17 365,7 375,25 379,62 391,67 389,70 380,76 370,72 361,90" id="78029" class="commune" fill="steelblue" stroke-width="1" stroke="white" geotype="commune" geoname="Aubergenville" code_insee="78029" code_canton="7801"/><polygon points="358,88 361,90 364,103 343,111 339,107 327,109 325,102 321,97 333,94 331,90 338,85 348,92 358,88" id="78033" class="commune" fill="steelblue" stroke-width="1" stroke="white" geotype="commune" geoname="Aulnay-sur-Mauldre" code_insee="78033" code_canton="7801"/><polygon points="331,246 328,254 291,253 279,250 299,229 296,225 300,217 319,221 319,226 326,221 335,227 331,246" id="78034" class="commune" fill="steelblue" stroke-width="1" stroke="white" geotype="commune" geoname="Auteuil" code_insee="78034" code_canton="7801"/><polygon points="257,252 246,249 267,214 272,215 289,205 300,217 296,225 299,229 279,250 257,252" id="78036" class="commune" fill="steelblue" stroke-width="1" stroke="white" geotype="commune" geoname="Autouillet" code_insee="78036" code_canton="7801"/><polygon points="412,81 419,82 414,89 426,92 437,97 432,107 421,106 409,117 402,114 391,107 364,103 361,90 370,72 380,76 389,70 391,79 412,81" id="78049" class="commune" fill="steelblue" stroke-width="1" stroke="white" geotype="commune" geoname="Bazemont" code_insee="78049" code_canton="7801"/><polygon points="391,300 393,301 382,321 390,332 383,334 378,341 380,349 388,353 385,361 372,362 353,349 343,357 320,348 334,337 336,329 365,332 391,300" id="78050" class="commune" fill="steelblue" stroke-width="1" stroke="white" geotype="commune" geoname="Bazoches-sur-Guyonne" code_insee="78050" code_canton="7801"/><polygon points="188,240 180,245 187,252 177,267 145,275 146,252 138,250 154,223 178,226 177,233 188,240" id="78053" class="commune" fill="steelblue" stroke-width="1" stroke="white" geotype="commune" geoname="Béhoust" code_insee="78053" code_canton="7801"/><polygon points="251,273 259,268 257,252 279,250 291,253 289,256 303,263 297,276 288,283 283,277 267,283 259,277 255,279 251,273" id="78084" class="commune" fill="steelblue" stroke-width="1" stroke="white" geotype="commune" geoname="Boissy-sans-Avoir" code_insee="78084" code_canton="7801"/><polygon points="426,92 414,89 419,82 412,81 409,68 418,55 413,53 414,29 420,26 429,18 434,22 446,21 448,32 456,29 461,34 452,58 449,61 438,60 428,72 426,92" id="78090" class="commune" fill="steelblue" stroke-width="1" stroke="white" geotype="commune" geoname="Bouafle" code_insee="78090" code_canton="7801"/><polygon points="220,235 188,240 177,233 178,226 154,223 150,214 154,210 161,212 168,208 169,204 163,200 173,192 170,188 174,181 187,188 207,193 216,192 219,199 214,204 220,208 216,212 230,222 217,233 220,235" id="78236" class="commune" fill="steelblue" stroke-width="1" stroke="white" geotype="commune" geoname="Flexanville" code_insee="78236" code_canton="7801"/><polygon points="365,7 381,4 398,0 400,16 415,20 420,26 414,29 413,53 418,55 409,68 412,81 391,79 389,70 391,67 379,62 375,25 365,7" id="78238" class="commune" fill="steelblue" stroke-width="1" stroke="white" geotype="commune" geoname="Flins-sur-Seine" code_insee="78238" code_canton="7801"/><polygon points="288,283 299,295 281,311 267,313 271,318 265,326 256,319 230,311 231,301 252,307 263,302 267,283 283,277 288,283" id="78262" class="commune" fill="steelblue" stroke-width="1" stroke="white" geotype="commune" geoname="Galluis" code_insee="78262" code_canton="7801"/><polygon points="129,300 165,302 160,303 167,320 154,333 146,329 126,329 129,332 124,337 130,342 116,338 114,346 130,347 150,358 148,367 116,364 120,360 102,358 101,355 75,357 73,352 60,356 44,354 39,359 29,353 15,360 7,346 0,343 27,337 26,334 32,331 20,320 33,311 129,300" id="78263" class="commune" fill="steelblue" stroke-width="1" stroke="white" geotype="commune" geoname="Gambais" code_insee="78263" code_canton="7801"/><polygon points="246,249 257,252 259,268 251,273 234,284 222,283 219,290 200,294 198,285 177,267 187,252 180,245 188,240 220,235 241,251 246,249" id="78265" class="commune" fill="steelblue" stroke-width="1" stroke="white" geotype="commune" geoname="Garancières" code_insee="78265" code_canton="7801"/><polygon points="254,157 264,165 265,169 249,175 253,178 241,186 216,192 207,193 187,188 189,183 207,178 200,175 224,161 235,150 254,157" id="78278" class="commune" fill="steelblue" stroke-width="1" stroke="white" geotype="commune" geoname="Goupillières" code_insee="78278" code_canton="7801"/><polygon points="265,326 261,331 279,333 252,352 256,342 230,351 220,356 197,359 192,344 176,336 167,320 160,303 165,302 169,302 230,311 256,319 265,326" id="78289" class="commune" fill="steelblue" stroke-width="1" stroke="white" geotype="commune" geoname="Grosrouvre" code_insee="78289" code_canton="7801"/><polygon points="409,117 433,117 428,121 438,123 439,135 453,142 438,164 419,161 414,160 418,154 399,147 393,148 388,137 387,132 400,129 402,114 409,117" id="78305" class="commune" fill="steelblue" stroke-width="1" stroke="white" geotype="commune" geoname="Herbeville" code_insee="78305" code_canton="7801"/><polygon points="426,353 420,345 420,336 414,331 420,312 413,303 414,292 412,291 420,288 426,291 426,285 436,284 447,292 459,295 476,303 491,304 490,312 500,312 493,331 483,325 469,332 462,324 450,321 441,330 428,332 438,349 442,353 426,353" id="78321" class="commune" fill="steelblue" stroke-width="1" stroke="white" geotype="commune" geoname="Jouars-Pontchartrain" code_insee="78321" code_canton="7801"/><polygon points="300,217 289,205 296,191 316,185 316,180 330,177 339,188 338,211 331,215 318,216 319,221 300,217" id="78364" class="commune" fill="steelblue" stroke-width="1" stroke="white" geotype="commune" geoname="Marcq" code_insee="78364" code_canton="7801"/><polygon points="345,298 367,302 384,297 391,300 365,332 336,329 337,322 342,321 335,319 336,312 349,303 345,298" id="78366" class="commune" fill="steelblue" stroke-width="1" stroke="white" geotype="commune" geoname="Mareil-le-Guyon" code_insee="78366" code_canton="7801"/><polygon points="410,183 396,179 386,162 374,162 373,157 377,156 371,158 370,146 379,138 388,137 393,148 399,147 418,154 414,160 419,161 423,178 410,183" id="78368" class="commune" fill="steelblue" stroke-width="1" stroke="white" geotype="commune" geoname="Mareil-sur-Mauldre" code_insee="78368" code_canton="7801"/><polygon points="336,167 293,150 289,145 284,131 287,125 294,111 307,108 325,102 327,109 339,107 343,111 364,103 391,107 402,114 400,129 387,132 388,137 379,138 370,146 371,158 336,167" id="78380" class="commune" fill="steelblue" stroke-width="1" stroke="white" geotype="commune" geoname="Maule" code_insee="78380" code_canton="7801"/><polygon points="265,326 271,318 267,313 281,311 299,295 288,283 297,276 326,282 336,278 356,279 345,298 349,303 336,312 335,319 342,321 337,322 336,329 334,337 324,328 301,324 279,333 261,331 265,326" id="78389" class="commune" fill="steelblue" stroke-width="1" stroke="white" geotype="commune" geoname="Méré" code_insee="78389" code_canton="7801"/><polygon points="311,354 320,348 343,357 353,349 372,362 363,377 333,387 326,384 325,388 315,392 294,382 316,366 311,354" id="78398" class="commune" fill="steelblue" stroke-width="1" stroke="white" geotype="commune" geoname="Mesnuls" code_insee="78398" code_canton="7801"/><polygon points="165,302 129,300 132,296 138,289 129,280 145,275 177,267 198,285 200,294 169,302 165,302" id="78404" class="commune" fill="steelblue" stroke-width="1" stroke="white" geotype="commune" geoname="Millemont" code_insee="78404" code_canton="7801"/><polygon points="396,179 398,184 393,180 372,188 339,188 330,177 336,167 371,158 377,156 373,157 374,162 386,162 396,179" id="78415" class="commune" fill="steelblue" stroke-width="1" stroke="white" geotype="commune" geoname="Montainville" code_insee="78415" code_canton="7801"/><polygon points="252,352 279,333 301,324 324,328 334,337 320,348 311,354 309,351 306,355 273,362 252,352" id="78420" class="commune" fill="steelblue" stroke-width="1" stroke="white" geotype="commune" geoname="Montfort-l'Amaury" code_insee="78420" code_canton="7801"/><polygon points="459,295 447,292 436,284 426,285 416,283 433,276 438,265 455,268 459,273 451,274 453,278 465,294 459,295" id="78442" class="commune" fill="steelblue" stroke-width="1" stroke="white" geotype="commune" geoname="Neauphle-le-Château" code_insee="78442" code_canton="7801"/><polygon points="393,301 391,300 384,297 367,302 345,298 356,279 360,278 348,277 345,254 353,255 355,246 363,244 371,244 370,249 383,250 391,249 393,244 397,246 391,257 381,264 390,268 384,278 406,284 412,291 414,292 398,289 393,301" id="78443" class="commune" fill="steelblue" stroke-width="1" stroke="white" geotype="commune" geoname="Neauphle-le-Vieux" code_insee="78443" code_canton="7801"/><polygon points="327,64 334,62 343,65 349,84 355,83 358,88 348,92 338,85 327,64" id="78451" class="commune" fill="steelblue" stroke-width="1" stroke="white" geotype="commune" geoname="Nézel" code_insee="78451" code_canton="7801"/><polygon points="251,273 255,279 259,277 267,283 263,302 252,307 231,301 230,311 169,302 200,294 219,290 222,283 234,284 251,273" id="78513" class="commune" fill="steelblue" stroke-width="1" stroke="white" geotype="commune" geoname="Queue-les-Yvelines" code_insee="78513" code_canton="7801"/><polygon points="470,258 463,269 455,268 438,265 428,261 419,247 407,251 408,245 421,221 426,226 438,237 443,235 447,241 469,245 470,258" id="78550" class="commune" fill="steelblue" stroke-width="1" stroke="white" geotype="commune" geoname="Saint-Germain-de-la-Grange" code_insee="78550" code_canton="7801"/><polygon points="420,345 426,353 424,372 432,384 429,388 441,396 392,404 364,403 361,394 367,379 363,377 372,362 385,361 388,353 415,351 420,345" id="78576" class="commune" fill="steelblue" stroke-width="1" stroke="white" geotype="commune" geoname="Saint-Rémy-l'Honoré" code_insee="78576" code_canton="7801"/><polygon points="338,211 355,221 353,228 345,230 341,252 331,246 335,227 326,221 319,226 319,221 318,216 331,215 338,211" id="78588" class="commune" fill="steelblue" stroke-width="1" stroke="white" geotype="commune" geoname="Saulx-Marchais" code_insee="78588" code_canton="7801"/><polygon points="241,186 253,178 249,175 265,169 264,165 301,165 310,182 316,180 316,185 296,191 289,205 272,215 267,214 258,212 262,207 255,193 241,186" id="78616" class="commune" fill="steelblue" stroke-width="1" stroke="white" geotype="commune" geoname="Thoiry" code_insee="78616" code_canton="7801"/><polygon points="388,353 380,349 378,341 383,334 390,332 382,321 393,301 398,289 414,292 413,303 420,312 414,331 420,336 420,345 415,351 388,353" id="78623" class="commune" fill="steelblue" stroke-width="1" stroke="white" geotype="commune" geoname="Tremblay-sur-Mauldre" code_insee="78623" code_canton="7801"/><polygon points="341,252 345,254 348,277 360,278 356,279 336,278 326,282 297,276 303,263 289,256 291,253 328,254 331,246 341,252" id="78653" class="commune" fill="steelblue" stroke-width="1" stroke="white" geotype="commune" geoname="Vicq" code_insee="78653" code_canton="7801"/><polygon points="220,235 217,233 230,222 216,212 220,208 214,204 219,199 216,192 241,186 255,193 262,207 258,212 267,214 246,249 241,251 220,235" id="78681" class="commune" fill="steelblue" stroke-width="1" stroke="white" geotype="commune" geoname="Villiers-le-Mahieu" code_insee="78681" code_canton="7801"/><polygon points="397,246 408,245 407,251 419,247 428,261 438,265 433,276 416,283 426,285 426,291 420,288 412,291 406,284 384,278 390,268 381,264 391,257 397,246" id="78683" class="commune" fill="steelblue" stroke-width="1" stroke="white" geotype="commune" geoname="Villiers-Saint-Frédéric" code_insee="78683" code_canton="7801"/></svg>