<?xml version="1.0" encoding="utf-8"?>
<svg version="1.1" id="svgmap" xmlns="http://www.w3.org/2000/svg" xmlns:xlink="http://www.w3.org/1999/xlink" x="0px" y="0px" width="100%" height="100%" viewBox="0 0 500 268">
<polygon points="424,60 434,58 418,81 427,82 425,89 433,88 431,97 417,105 428,107 426,111 447,128 434,135 437,138 432,140 429,128 383,113 394,104 384,94 395,90 397,82 378,64 398,67 405,61 424,60" id="78143" class="commune" fill="steelblue" stroke-width="1" stroke="white" geotype="commune" geoname="Châteaufort" code_insee="78143" code_canton="7809"/><polygon points="331,201 311,200 305,215 295,214 292,209 278,209 271,186 260,181 267,165 256,163 234,147 222,147 226,132 245,133 250,125 277,129 287,121 301,121 309,129 322,125 331,130 333,124 340,125 354,138 344,140 341,166 331,165 327,181 338,199 331,201" id="78160" class="commune" fill="steelblue" stroke-width="1" stroke="white" geotype="commune" geoname="Chevreuse" code_insee="78160" code_canton="7809"/><polygon points="242,268 205,259 220,239 221,223 208,205 211,198 225,196 234,199 248,194 257,180 260,181 271,186 278,209 292,209 295,214 287,215 277,247 275,261 241,255 242,268" id="78162" class="commune" fill="steelblue" stroke-width="1" stroke="white" geotype="commune" geoname="Choisel" code_insee="78162" code_canton="7809"/><polygon points="97,59 102,62 82,70 90,76 80,92 67,99 64,94 54,107 28,102 31,100 21,97 6,87 10,82 0,66 2,42 23,41 18,36 47,56 74,59 82,51 97,59" id="78168" class="commune" fill="steelblue" stroke-width="1" stroke="white" geotype="commune" geoname="Coignières" code_insee="78168" code_canton="7809"/><polygon points="257,180 248,194 234,199 225,196 179,179 171,185 154,178 132,192 103,184 92,178 100,155 117,140 130,140 137,135 144,123 161,132 159,140 204,155 212,173 257,180" id="78193" class="commune" fill="steelblue" stroke-width="1" stroke="white" geotype="commune" geoname="Dampierre-en-Yvelines" code_insee="78193" code_canton="7809"/><polygon points="28,102 54,107 64,94 67,99 80,92 113,107 132,98 146,105 144,123 137,135 130,140 117,140 100,155 91,153 96,135 49,127 36,131 19,130 28,102" id="78334" class="commune" fill="steelblue" stroke-width="1" stroke="white" geotype="commune" geoname="Lévis-Saint-Nom" code_insee="78334" code_canton="7809"/><polygon points="202,76 241,48 270,60 302,64 303,71 319,68 341,72 357,59 378,64 397,82 395,90 384,94 394,104 383,113 429,128 432,140 424,143 387,131 367,146 364,128 366,125 336,108 292,110 257,90 229,79 202,76" id="78356" class="commune" fill="steelblue" stroke-width="1" stroke="white" geotype="commune" geoname="Magny-les-Hameaux" code_insee="78356" code_canton="7809"/><polygon points="121,53 97,59 82,51 74,59 47,56 18,36 4,14 22,11 34,0 50,3 59,14 77,5 90,12 111,33 106,40 127,43 121,53" id="78383" class="commune" fill="steelblue" stroke-width="1" stroke="white" geotype="commune" geoname="Maurepas" code_insee="78383" code_canton="7809"/><polygon points="80,92 90,76 104,79 111,70 124,80 138,74 128,66 131,58 153,60 164,65 202,76 194,80 199,90 186,103 197,110 195,115 182,117 181,124 167,126 161,132 144,123 146,105 132,98 113,107 80,92" id="78397" class="commune" fill="steelblue" stroke-width="1" stroke="white" geotype="commune" geoname="Mesnil-Saint-Denis" code_insee="78397" code_canton="7809"/><polygon points="354,138 340,125 333,124 331,130 322,125 309,129 301,121 287,121 278,122 281,117 266,108 257,90 292,110 336,108 366,125 364,128 354,138" id="78406" class="commune" fill="steelblue" stroke-width="1" stroke="white" geotype="commune" geoname="Milon-la-Chapelle" code_insee="78406" code_canton="7809"/><polygon points="195,115 229,129 226,132 222,147 234,147 256,163 267,165 260,181 257,180 212,173 204,155 159,140 161,132 167,126 181,124 182,117 195,115" id="78548" class="commune" fill="steelblue" stroke-width="1" stroke="white" geotype="commune" geoname="Saint-Forget" code_insee="78548" code_canton="7809"/><polygon points="226,132 229,129 195,115 197,110 186,103 199,90 194,80 202,76 229,79 257,90 266,108 281,117 278,122 287,121 277,129 250,125 245,133 226,132" id="78561" class="commune" fill="steelblue" stroke-width="1" stroke="white" geotype="commune" geoname="Saint-Lambert" code_insee="78561" code_canton="7809"/><polygon points="432,140 437,138 443,144 423,168 415,168 416,186 399,178 384,204 358,194 349,196 354,201 331,201 338,199 327,181 331,165 341,166 344,140 354,138 364,128 367,146 387,131 424,143 432,140" id="78575" class="commune" fill="steelblue" stroke-width="1" stroke="white" geotype="commune" geoname="Saint-Rémy-lès-Chevreuse" code_insee="78575" code_canton="7809"/><polygon points="220,239 196,220 156,220 151,217 141,222 86,203 92,199 103,184 132,192 154,178 171,185 179,179 225,196 211,198 208,205 221,223 220,239" id="78590" class="commune" fill="steelblue" stroke-width="1" stroke="white" geotype="commune" geoname="Senlisse" code_insee="78590" code_canton="7809"/><polygon points="434,58 450,56 468,64 470,70 479,66 487,76 483,81 500,86 493,98 474,97 460,87 454,94 431,97 433,88 425,89 427,82 418,81 434,58" id="78620" class="commune" fill="steelblue" stroke-width="1" stroke="white" geotype="commune" geoname="Toussus-le-Noble" code_insee="78620" code_canton="7809"/><polygon points="327,37 346,44 347,57 357,59 341,72 319,68 303,71 302,64 270,60 273,52 295,49 305,38 311,41 319,33 327,37" id="78688" class="commune" fill="steelblue" stroke-width="1" stroke="white" geotype="commune" geoname="Voisins-le-Bretonneux" code_insee="78688" code_canton="7809"/></svg>