<?xml version="1.0" encoding="utf-8"?>
<svg version="1.1" id="svgmap" xmlns="http://www.w3.org/2000/svg" xmlns:xlink="http://www.w3.org/1999/xlink" x="0px" y="0px" width="100%" height="100%" viewBox="0 0 500 396">
<polygon points="132,132 132,132 133,147 161,148 169,159 167,165 173,169 175,175 168,182 172,192 168,200 163,206 150,206 145,209 148,212 138,217 144,222 172,224 173,237 168,242 158,249 158,253 146,257 139,250 121,256 110,255 105,253 90,256 76,254 72,248 89,233 83,230 90,219 86,215 93,207 106,208 105,170 121,155 132,132" id="79012" class="commune" fill="steelblue" stroke-width="1" stroke="white" geotype="commune" geoname="Ardin" code_insee="79012" code_canton="7901"/><polygon points="249,231 239,228 232,242 218,237 211,244 195,236 191,244 185,242 182,245 168,242 173,237 172,224 144,222 138,217 148,212 145,209 150,206 163,206 168,200 172,192 168,182 175,175 173,169 179,160 197,151 207,161 206,168 214,172 207,184 191,191 206,196 213,206 220,205 221,211 225,208 242,210 239,216 254,217 249,231" id="79032" class="commune" fill="steelblue" stroke-width="1" stroke="white" geotype="commune" geoname="Béceleuf" code_insee="79032" code_canton="7901"/><polygon points="248,68 236,69 229,77 224,76 224,80 228,79 227,90 216,91 210,97 184,87 173,78 168,85 171,88 160,87 165,77 163,68 175,61 182,62 185,51 201,40 219,15 230,13 230,21 235,25 233,28 255,40 255,46 245,50 252,53 247,58 252,56 248,68" id="79035" class="commune" fill="steelblue" stroke-width="1" stroke="white" geotype="commune" geoname="Beugnon" code_insee="79035" code_canton="7901"/><polygon points="46,7 53,11 75,8 88,11 87,16 104,31 104,45 109,43 120,47 118,52 126,54 125,60 131,64 132,72 104,71 103,83 95,89 100,113 95,119 78,123 69,115 61,118 63,110 54,106 57,88 40,91 41,87 37,87 40,76 31,69 44,62 50,53 36,46 45,43 46,38 40,39 28,28 46,7" id="79059" class="commune" fill="steelblue" stroke-width="1" stroke="white" geotype="commune" geoname="Busseau" code_insee="79059" code_canton="7901"/><polygon points="434,198 426,203 405,216 371,252 365,259 356,253 340,250 339,231 345,217 340,205 321,202 324,198 346,188 348,183 363,185 369,171 389,163 400,163 402,171 412,173 426,198 434,198" id="79066" class="commune" fill="steelblue" stroke-width="1" stroke="white" geotype="commune" geoname="Champdeniers-Saint-Denis" code_insee="79066" code_canton="7901"/><polygon points="426,203 434,198 445,199 461,188 485,180 487,197 500,230 492,232 478,246 464,248 454,264 440,273 426,270 443,259 434,253 441,243 420,228 419,221 425,218 421,215 433,206 426,203" id="79070" class="commune" fill="steelblue" stroke-width="1" stroke="white" geotype="commune" geoname="Chapelle-Bâton" code_insee="79070" code_canton="7901"/><polygon points="132,132 132,132 129,129 117,134 114,126 107,129 95,119 100,113 95,89 103,83 104,71 132,72 155,64 163,68 165,77 160,87 156,99 163,117 171,121 165,144 155,143 132,132" id="79077" class="commune" fill="steelblue" stroke-width="1" stroke="white" geotype="commune" geoname="Chapelle-Thireuil" code_insee="79077" code_canton="7901"/><polygon points="356,290 365,274 365,259 371,252 377,253 374,259 384,267 400,266 424,275 426,270 440,273 454,264 480,281 475,290 477,302 471,311 463,306 457,307 450,311 453,315 444,322 440,326 412,323 412,320 390,309 383,306 380,309 366,304 369,297 356,290" id="79086" class="commune" fill="steelblue" stroke-width="1" stroke="white" geotype="commune" geoname="Cherveux" code_insee="79086" code_canton="7901"/><polygon points="72,248 67,246 63,258 59,246 54,244 43,233 39,213 21,209 31,200 31,183 17,173 45,180 61,175 67,177 69,170 104,165 105,170 106,208 93,207 86,215 90,219 83,230 89,233 72,248" id="79101" class="commune" fill="steelblue" stroke-width="1" stroke="white" geotype="commune" geoname="Coulonges-sur-l'Autize" code_insee="79101" code_canton="7901"/><polygon points="361,138 364,137 368,148 376,148 369,153 371,156 381,156 389,163 369,171 363,185 348,183 346,188 324,198 318,196 307,209 303,209 299,222 296,221 290,213 293,207 284,197 295,186 289,172 304,159 320,156 334,155 361,138" id="79104" class="commune" fill="steelblue" stroke-width="1" stroke="white" geotype="commune" geoname="Cours" code_insee="79104" code_canton="7901"/><polygon points="168,242 182,245 185,242 191,244 195,236 211,244 218,237 232,242 239,228 249,231 230,278 243,283 244,287 232,293 216,297 214,284 205,279 136,267 146,257 158,253 158,249 168,242" id="79117" class="commune" fill="steelblue" stroke-width="1" stroke="white" geotype="commune" geoname="Faye-sur-Ardin" code_insee="79117" code_canton="7901"/><polygon points="161,148 165,144 171,121 163,117 156,99 160,87 171,88 168,85 173,78 184,87 210,97 216,91 227,90 228,79 224,80 224,76 229,77 236,69 248,68 250,74 267,77 275,85 262,106 275,119 260,140 262,147 267,149 253,154 253,157 245,162 221,164 221,169 214,172 206,168 207,161 197,151 179,160 173,169 167,165 169,159 161,148" id="79119" class="commune" fill="steelblue" stroke-width="1" stroke="white" geotype="commune" geoname="Fenioux" code_insee="79119" code_canton="7901"/><polygon points="365,259 365,274 356,290 325,282 310,287 298,282 287,271 292,272 300,262 298,252 304,247 300,241 305,236 299,222 303,209 307,209 318,196 324,198 321,202 340,205 345,217 339,231 340,250 356,253 365,259" id="79133" class="commune" fill="steelblue" stroke-width="1" stroke="white" geotype="commune" geoname="Germond-Rouvre" code_insee="79133" code_canton="7901"/><polygon points="320,156 304,159 289,172 277,169 264,175 267,149 262,147 260,140 275,119 287,122 297,113 317,112 323,115 320,120 334,116 338,114 326,144 317,150 320,156" id="79200" class="commune" fill="steelblue" stroke-width="1" stroke="white" geotype="commune" geoname="Pamplie" code_insee="79200" code_canton="7901"/><polygon points="132,132 155,143 165,144 161,148 133,147 132,132" id="79223" class="commune" fill="steelblue" stroke-width="1" stroke="white" geotype="commune" geoname="Puihardy" code_insee="79223" code_canton="7901"/><polygon points="371,252 405,216 426,203 433,206 421,215 425,218 419,221 420,228 441,243 434,253 443,259 426,270 424,275 400,266 384,267 374,259 377,253 371,252" id="79241" class="commune" fill="steelblue" stroke-width="1" stroke="white" geotype="commune" geoname="Saint-Christophe-sur-Roc" code_insee="79241" code_canton="7901"/><polygon points="61,118 69,115 78,123 95,119 107,129 114,126 117,134 129,129 132,132 121,155 105,170 104,165 102,158 98,162 84,149 76,149 69,158 63,132 61,118" id="79263" class="commune" fill="steelblue" stroke-width="1" stroke="white" geotype="commune" geoname="Saint-Laurs" code_insee="79263" code_canton="7901"/><polygon points="104,165 69,170 67,177 61,175 45,180 17,173 0,164 0,161 12,160 9,157 12,147 3,148 6,143 35,135 38,141 43,142 48,136 54,142 63,132 69,158 76,149 84,149 98,162 102,158 104,165" id="79269" class="commune" fill="steelblue" stroke-width="1" stroke="white" geotype="commune" geoname="Saint-Maixent-de-Beugné" code_insee="79269" code_canton="7901"/><polygon points="216,297 232,293 263,301 267,297 280,303 288,307 280,313 278,334 256,320 255,332 266,339 265,343 257,346 233,346 232,354 219,357 221,351 186,334 207,324 213,307 211,298 216,297" id="79281" class="commune" fill="steelblue" stroke-width="1" stroke="white" geotype="commune" geoname="Saint-Maxire" code_insee="79281" code_canton="7901"/><polygon points="298,282 280,303 267,297 263,301 232,293 244,287 254,280 271,232 282,230 296,221 299,222 305,236 300,241 304,247 298,252 300,262 292,272 287,271 298,282" id="79284" class="commune" fill="steelblue" stroke-width="1" stroke="white" geotype="commune" geoname="Sainte-Ouenne" code_insee="79284" code_canton="7901"/><polygon points="110,255 117,259 106,302 105,320 91,318 74,307 52,302 36,335 8,326 25,316 10,306 9,296 17,280 14,275 40,266 42,258 38,243 46,252 54,244 59,246 63,258 67,246 72,248 76,254 90,256 105,253 110,255" id="79290" class="commune" fill="steelblue" stroke-width="1" stroke="white" geotype="commune" geoname="Saint-Pompain" code_insee="79290" code_canton="7901"/><polygon points="171,394 153,386 155,382 127,373 154,341 169,340 186,334 221,351 219,357 210,370 198,369 197,374 192,373 187,379 199,392 196,396 174,389 171,394" id="79293" class="commune" fill="steelblue" stroke-width="1" stroke="white" geotype="commune" geoname="Saint-Rémy" code_insee="79293" code_canton="7901"/><polygon points="232,354 237,357 277,355 279,360 271,372 254,370 247,376 224,375 210,370 219,357 232,354" id="79308" class="commune" fill="steelblue" stroke-width="1" stroke="white" geotype="commune" geoname="Sciecq" code_insee="79308" code_canton="7901"/><polygon points="93,0 113,0 129,12 131,27 164,41 172,50 163,68 155,64 132,72 131,64 125,60 126,54 118,52 120,47 109,43 104,45 104,31 87,16 88,11 92,9 84,4 93,0" id="79309" class="commune" fill="steelblue" stroke-width="1" stroke="white" geotype="commune" geoname="Scillé" code_insee="79309" code_canton="7901"/><polygon points="244,287 243,283 230,278 249,231 254,217 257,213 253,190 267,179 264,175 277,169 289,172 295,186 284,197 293,207 290,213 296,221 282,230 271,232 254,280 244,287" id="79320" class="commune" fill="steelblue" stroke-width="1" stroke="white" geotype="commune" geoname="Surin" code_insee="79320" code_canton="7901"/><polygon points="105,320 106,302 117,259 110,255 121,256 139,250 146,257 136,267 205,279 214,284 216,297 211,298 213,307 207,324 186,334 169,340 154,341 137,331 114,332 106,327 105,320" id="79351" class="commune" fill="steelblue" stroke-width="1" stroke="white" geotype="commune" geoname="Villiers-en-Plaine" code_insee="79351" code_canton="7901"/><polygon points="264,175 267,179 253,190 257,213 254,217 239,216 242,210 225,208 221,211 220,205 213,206 206,196 191,191 207,184 214,172 221,169 221,164 245,162 253,157 253,154 267,149 264,175" id="79357" class="commune" fill="steelblue" stroke-width="1" stroke="white" geotype="commune" geoname="Xaintray" code_insee="79357" code_canton="7901"/></svg>