<?xml version="1.0" encoding="utf-8"?>
<svg version="1.1" id="svgmap" xmlns="http://www.w3.org/2000/svg" xmlns:xlink="http://www.w3.org/1999/xlink" x="0px" y="0px" width="100%" height="100%" viewBox="0 0 500 163">
<polygon points="394,163 380,127 385,116 407,95 396,71 410,55 463,62 478,74 495,75 500,91 483,100 480,118 494,153 474,153 464,150 457,162 394,163" id="80036" class="commune" fill="steelblue" stroke-width="1" stroke="white" geotype="commune" geoname="Aubigny" code_insee="80036" code_canton="8008"/><polygon points="215,35 208,19 259,10 264,15 292,6 324,17 351,78 279,73 278,82 259,81 233,81 215,35" id="80156" class="commune" fill="steelblue" stroke-width="1" stroke="white" geotype="commune" geoname="Bussy-lès-Daours" code_insee="80156" code_canton="8008"/><polygon points="116,11 117,2 146,1 193,21 201,19 208,19 215,35 202,38 216,49 195,94 174,112 192,120 137,126 108,138 85,133 74,131 80,128 63,104 51,103 58,87 76,75 103,75 102,64 114,66 122,30 150,22 116,11" id="80164" class="commune" fill="steelblue" stroke-width="1" stroke="white" geotype="commune" geoname="Camon" code_insee="80164" code_canton="8008"/><polygon points="259,81 278,82 279,73 351,78 324,17 397,13 414,21 415,31 399,41 410,55 396,71 407,95 385,116 371,125 332,119 376,116 392,86 388,74 365,78 350,90 350,102 335,102 339,115 283,116 258,95 259,81" id="80234" class="commune" fill="steelblue" stroke-width="1" stroke="white" geotype="commune" geoname="Daours" code_insee="80234" code_canton="8008"/><polygon points="283,116 272,119 254,121 218,124 192,120 174,112 195,94 216,49 202,38 215,35 233,81 259,81 258,95 283,116" id="80461" class="commune" fill="steelblue" stroke-width="1" stroke="white" geotype="commune" geoname="Lamotte-Brebière" code_insee="80461" code_canton="8008"/><polygon points="76,0 116,11 150,22 122,30 114,66 102,64 103,75 76,75 58,87 51,103 0,88 21,80 23,58 58,48 62,27 53,16 76,0" id="80674" class="commune" fill="steelblue" stroke-width="1" stroke="white" geotype="commune" geoname="Rivery" code_insee="80674" code_canton="8008"/><polygon points="272,119 283,116 339,115 335,102 350,102 350,90 365,78 388,74 392,86 376,116 332,119 272,119" id="80785" class="commune" fill="steelblue" stroke-width="1" stroke="white" geotype="commune" geoname="Vecquemont" code_insee="80785" code_canton="8008"/></svg>