<?xml version="1.0" encoding="utf-8"?>
<svg version="1.1" id="svgmap" xmlns="http://www.w3.org/2000/svg" xmlns:xlink="http://www.w3.org/1999/xlink" x="0px" y="0px" width="100%" height="100%" viewBox="0 0 500 236">
<polygon points="416,49 434,47 396,60 424,66 447,82 452,79 465,86 482,84 500,93 499,116 490,123 495,132 411,166 348,151 344,168 312,161 310,175 287,179 266,158 238,161 224,193 140,219 126,236 96,204 108,193 78,174 98,159 84,148 65,152 64,134 87,107 108,105 157,70 156,53 116,40 126,38 115,22 128,14 152,21 175,0 209,9 314,33 416,49" id="80131" class="commune" fill="steelblue" stroke-width="1" stroke="white" geotype="commune" geoname="Boves" code_insee="80131" code_canton="8010"/><polygon points="107,8 115,22 126,38 116,40 156,53 157,70 108,105 87,107 64,134 21,121 0,87 27,33 107,8" id="80160" class="commune" fill="steelblue" stroke-width="1" stroke="white" geotype="commune" geoname="Cagny" code_insee="80160" code_canton="8010"/></svg>