<?xml version="1.0" encoding="utf-8"?>
<svg version="1.1" id="svgmap" xmlns="http://www.w3.org/2000/svg" xmlns:xlink="http://www.w3.org/1999/xlink" x="0px" y="0px" width="100%" height="100%" viewBox="0 0 474 500">
<polygon points="228,461 203,454 215,403 211,378 223,353 222,342 226,334 236,330 233,317 239,298 311,319 335,342 332,350 314,356 320,382 327,390 307,399 288,424 252,442 239,439 228,461" id="83016" class="commune" fill="steelblue" stroke-width="1" stroke="white" geotype="commune" geoname="Beausset" code_insee="83016" code_canton="8312"/><polygon points="7,404 11,358 18,325 53,319 57,314 106,332 148,358 160,385 160,403 169,411 166,419 173,422 179,439 178,445 165,451 162,458 167,461 151,460 148,450 131,454 122,446 122,453 115,456 118,462 100,459 109,448 105,438 98,434 107,410 102,409 105,387 96,381 47,396 42,404 16,401 7,404" id="83027" class="commune" fill="steelblue" stroke-width="1" stroke="white" geotype="commune" geoname="Cadière-d'Azur" code_insee="83027" code_canton="8312"/><polygon points="203,454 167,461 162,458 165,451 178,445 179,439 173,422 166,419 169,411 160,403 160,385 148,358 106,332 57,314 51,304 65,300 70,294 107,286 111,279 158,269 167,265 174,273 239,298 233,317 236,330 226,334 222,342 223,353 211,378 215,403 203,454" id="83035" class="commune" fill="steelblue" stroke-width="1" stroke="white" geotype="commune" geoname="Castellet" code_insee="83035" code_canton="8312"/><polygon points="212,0 227,1 247,3 258,15 271,19 274,28 293,33 266,48 282,66 277,74 283,84 273,86 264,95 270,116 208,133 160,137 135,134 122,105 127,99 118,68 119,43 138,31 186,18 212,0" id="83087" class="commune" fill="steelblue" stroke-width="1" stroke="white" geotype="commune" geoname="Nans-les-Pins" code_insee="83087" code_canton="8312"/><polygon points="189,157 97,180 34,188 14,176 23,171 22,164 31,162 25,140 56,115 113,139 135,134 160,137 208,133 270,116 270,133 258,140 229,144 189,157" id="83093" class="commune" fill="steelblue" stroke-width="1" stroke="white" geotype="commune" geoname="Plan-d'Aups-Sainte-Baume" code_insee="83093" code_canton="8312"/><polygon points="97,180 189,157 190,185 178,210 178,230 160,242 138,230 111,204 97,180" id="83105" class="commune" fill="steelblue" stroke-width="1" stroke="white" geotype="commune" geoname="Riboux" code_insee="83105" code_canton="8312"/><polygon points="118,462 114,467 99,464 102,486 96,500 79,480 69,487 67,481 63,486 40,487 38,473 19,468 18,458 39,449 40,437 25,423 14,427 19,424 6,427 0,424 7,404 16,401 42,404 47,396 96,381 105,387 102,409 107,410 98,434 105,438 109,448 100,459 118,462" id="83112" class="commune" fill="steelblue" stroke-width="1" stroke="white" geotype="commune" geoname="Saint-Cyr-sur-Mer" code_insee="83112" code_canton="8312"/><polygon points="135,134 113,139 56,115 56,109 40,97 32,54 19,35 51,20 93,18 138,31 119,43 118,68 127,99 122,105 135,134" id="83120" class="commune" fill="steelblue" stroke-width="1" stroke="white" geotype="commune" geoname="Saint-Zacharie" code_insee="83120" code_canton="8312"/><polygon points="455,334 474,360 433,357 388,366 345,364 332,350 335,342 311,319 239,298 174,273 167,265 158,269 160,242 178,230 178,210 190,185 189,157 229,144 258,140 283,184 294,170 323,157 341,160 342,165 364,171 393,168 411,184 445,184 449,193 464,198 467,204 457,214 457,228 467,248 455,334" id="83127" class="commune" fill="steelblue" stroke-width="1" stroke="white" geotype="commune" geoname="Signes" code_insee="83127" code_canton="8312"/></svg>