<?xml version="1.0" encoding="utf-8"?>
<svg version="1.1" id="svgmap" xmlns="http://www.w3.org/2000/svg" xmlns:xlink="http://www.w3.org/1999/xlink" x="0px" y="0px" width="100%" height="100%" viewBox="0 0 500 295">
<polygon points="338,42 358,47 368,61 377,65 378,69 385,70 386,74 385,80 358,83 333,93 326,91 335,89 329,86 318,73 306,77 304,71 286,61 310,42 305,36 316,29 321,35 327,34 329,39 338,42" id="85063" class="commune" fill="steelblue" stroke-width="1" stroke="white" geotype="commune" geoname="Châtelliers-Châteaumur" code_insee="85063" code_canton="8506"/><polygon points="191,270 190,270 187,268 208,250 209,242 215,239 232,236 246,240 259,236 259,229 286,242 286,249 267,263 247,264 223,272 207,267 191,270" id="85066" class="commune" fill="steelblue" stroke-width="1" stroke="white" geotype="commune" geoname="Chavagnes-les-Redoux" code_insee="85066" code_canton="8506"/><polygon points="295,8 300,13 306,27 316,29 305,36 310,42 286,61 273,66 258,62 257,57 250,54 223,61 203,58 193,34 203,22 197,20 203,16 200,7 206,4 231,18 241,16 246,10 261,7 266,2 288,0 295,8" id="85082" class="commune" fill="steelblue" stroke-width="1" stroke="white" geotype="commune" geoname="Epesses" code_insee="85082" code_canton="8506"/><polygon points="386,74 394,81 374,88 359,99 359,108 354,114 360,120 341,133 328,135 320,143 301,146 295,162 257,150 257,138 249,132 262,122 273,121 276,112 277,115 291,108 289,104 296,102 291,97 297,93 305,93 308,86 329,86 335,89 326,91 333,93 358,83 385,80 386,74" id="85090" class="commune" fill="steelblue" stroke-width="1" stroke="white" geotype="commune" geoname="Flocellière" code_insee="85090" code_canton="8506"/><polygon points="7,54 1,50 3,46 17,46 30,40 48,36 58,30 61,19 73,17 76,13 101,9 115,2 120,3 137,19 146,19 168,32 179,21 182,25 189,23 200,7 203,16 197,20 203,22 193,34 203,58 200,69 181,85 173,89 174,94 163,105 147,107 146,112 140,114 134,124 139,131 125,126 106,124 100,121 90,122 92,118 83,109 56,108 49,103 42,97 32,88 33,81 28,69 21,71 6,58 7,54" id="85109" class="commune" fill="steelblue" stroke-width="1" stroke="white" geotype="commune" geoname="Herbiers" code_insee="85109" code_canton="8506"/><polygon points="307,242 286,249 286,242 259,229 250,219 248,210 256,202 254,199 264,201 268,198 276,202 280,200 296,206 296,212 305,212 335,194 358,192 364,184 384,189 382,205 376,206 367,216 332,222 312,213 300,213 297,218 302,221 303,229 310,236 307,242" id="85140" class="commune" fill="steelblue" stroke-width="1" stroke="white" geotype="commune" geoname="Meilleraie-Tillay" code_insee="85140" code_canton="8506"/><polygon points="208,194 207,184 237,181 239,188 246,187 246,194 254,199 256,202 248,210 250,219 259,229 259,236 246,240 232,236 215,239 209,242 208,250 187,268 184,265 189,261 183,257 193,250 186,249 191,243 181,236 191,231 182,226 189,221 185,217 190,214 188,211 208,194" id="85145" class="commune" fill="steelblue" stroke-width="1" stroke="white" geotype="commune" geoname="Monsireigne" code_insee="85145" code_canton="8506"/><polygon points="384,189 400,179 431,182 443,172 449,161 458,158 474,157 466,165 469,172 466,183 467,187 474,188 475,197 460,202 455,207 458,213 455,215 448,217 427,215 416,232 405,241 394,243 391,240 382,241 377,235 363,236 350,227 345,229 332,222 367,216 376,206 382,205 384,189" id="85147" class="commune" fill="steelblue" stroke-width="1" stroke="white" geotype="commune" geoname="Montournais" code_insee="85147" code_canton="8506"/><polygon points="140,132 135,136 137,139 118,152 118,156 109,154 111,158 105,162 106,166 88,167 101,172 107,169 122,175 152,179 142,198 135,204 95,199 95,197 83,196 82,198 59,190 49,192 45,197 30,203 21,204 16,209 10,206 0,209 4,202 18,196 12,189 12,176 5,172 13,162 9,155 13,146 29,137 32,119 49,103 56,108 83,109 92,118 90,122 100,121 106,124 125,126 139,131 140,132" id="85153" class="commune" fill="steelblue" stroke-width="1" stroke="white" geotype="commune" geoname="Mouchamps" code_insee="85153" code_canton="8506"/><polygon points="411,95 418,103 429,106 423,110 414,111 405,117 416,127 414,132 422,133 421,138 383,134 341,133 360,120 354,114 359,108 359,99 374,88 394,81 399,85 400,92 411,95" id="85180" class="commune" fill="steelblue" stroke-width="1" stroke="white" geotype="commune" geoname="Pommeraie-sur-Sèvre" code_insee="85180" code_canton="8506"/><polygon points="400,179 384,189 364,184 358,192 335,194 305,212 296,212 296,206 280,200 297,179 291,173 295,162 301,146 320,143 328,135 341,133 383,134 421,138 414,149 403,153 404,156 399,161 386,164 382,169 381,174 400,179" id="85182" class="commune" fill="steelblue" stroke-width="1" stroke="white" geotype="commune" geoname="Pouzauges" code_insee="85182" code_canton="8506"/><polygon points="332,222 345,229 350,227 363,236 377,235 382,241 391,240 394,243 405,241 425,248 429,256 414,263 397,266 392,264 386,271 373,276 372,280 367,274 353,269 351,264 346,266 332,262 324,263 322,260 324,248 307,242 310,236 303,229 302,221 297,218 300,213 312,213 332,222" id="85187" class="commune" fill="steelblue" stroke-width="1" stroke="white" geotype="commune" geoname="Réaumur" code_insee="85187" code_canton="8506"/><polygon points="203,58 223,61 250,54 257,57 258,62 262,76 261,78 252,76 246,87 243,82 231,88 208,82 196,83 194,86 181,85 200,69 203,58" id="85242" class="commune" fill="steelblue" stroke-width="1" stroke="white" geotype="commune" geoname="Saint-Mars-la-Réorthe" code_insee="85242" code_canton="8506"/><polygon points="429,106 453,109 460,118 471,116 486,119 500,134 483,138 477,144 478,153 474,157 458,158 449,161 443,172 431,182 400,179 381,174 382,169 386,164 399,161 404,156 403,153 414,149 421,138 422,133 414,132 416,127 405,117 414,111 423,110 429,106" id="85254" class="commune" fill="steelblue" stroke-width="1" stroke="white" geotype="commune" geoname="Saint-Mesmin" code_insee="85254" code_canton="8506"/><polygon points="249,132 246,129 240,133 237,129 226,131 205,118 213,115 209,109 216,96 210,93 210,88 204,86 208,82 231,88 243,82 246,87 252,76 261,78 262,76 258,62 273,66 286,61 304,71 306,77 318,73 329,86 308,86 305,93 297,93 291,97 296,102 289,104 291,108 277,115 276,112 273,121 262,122 249,132" id="85257" class="commune" fill="steelblue" stroke-width="1" stroke="white" geotype="commune" geoname="Saint-Michel-Mont-Mercure" code_insee="85257" code_canton="8506"/><polygon points="205,118 178,120 156,129 140,132 139,131 134,124 140,114 146,112 147,107 163,105 174,94 173,89 181,85 194,86 196,83 208,82 204,86 210,88 210,93 216,96 209,109 213,115 205,118" id="85259" class="commune" fill="steelblue" stroke-width="1" stroke="white" geotype="commune" geoname="Saint-Paul-en-Pareds" code_insee="85259" code_canton="8506"/><polygon points="286,249 307,242 324,248 322,260 318,262 318,270 309,278 314,285 300,289 284,288 274,295 262,289 253,293 250,287 230,287 218,283 223,277 207,278 191,270 207,267 223,272 247,264 267,263 286,249" id="85287" class="commune" fill="steelblue" stroke-width="1" stroke="white" geotype="commune" geoname="Tallud-Sainte-Gemme" code_insee="85287" code_canton="8506"/></svg>