<?xml version="1.0" encoding="utf-8"?>
<svg version="1.1" id="svgmap" xmlns="http://www.w3.org/2000/svg" xmlns:xlink="http://www.w3.org/1999/xlink" x="0px" y="0px" width="100%" height="100%" viewBox="0 0 500 270">
<polygon points="284,95 283,102 272,93 263,99 256,97 246,104 246,99 239,96 226,94 213,88 202,95 196,93 220,71 206,70 198,61 201,54 195,52 208,47 205,44 209,42 213,45 237,40 235,44 247,46 259,59 256,67 250,67 245,72 256,78 273,76 282,83 284,95" id="86002" class="commune" fill="steelblue" stroke-width="1" stroke="white" geotype="commune" geoname="Amberre" code_insee="86002" code_canton="8611"/><polygon points="405,205 395,192 402,168 409,168 425,182 431,179 455,183 474,196 470,206 456,211 436,201 429,206 425,205 416,220 405,205" id="86016" class="commune" fill="steelblue" stroke-width="1" stroke="white" geotype="commune" geoname="Avanton" code_insee="86016" code_canton="8611"/><polygon points="283,102 284,95 299,97 318,81 326,82 347,79 370,83 361,95 363,94 367,103 374,102 382,104 374,116 365,118 367,132 359,139 356,142 352,139 348,147 309,126 283,102" id="86030" class="commune" fill="steelblue" stroke-width="1" stroke="white" geotype="commune" geoname="Blaslay" code_insee="86030" code_canton="8611"/><polygon points="188,95 196,93 202,95 213,88 226,94 239,96 246,99 246,104 256,97 263,99 272,93 283,102 309,126 304,124 290,139 265,132 260,138 254,136 246,144 235,133 219,139 216,136 208,136 200,144 191,141 191,138 186,139 186,133 182,132 193,128 188,125 191,121 172,115 188,95" id="86053" class="commune" fill="steelblue" stroke-width="1" stroke="white" geotype="commune" geoname="Champigny-le-Sec" code_insee="86053" code_canton="8611"/><polygon points="285,175 264,167 267,161 260,158 253,163 250,157 250,147 246,144 254,136 260,138 265,132 290,139 304,124 309,126 348,147 332,162 333,164 329,164 323,169 308,164 306,168 290,167 285,175" id="86060" class="commune" fill="steelblue" stroke-width="1" stroke="white" geotype="commune" geoname="Charrais" code_insee="86060" code_canton="8611"/><polygon points="370,83 374,84 400,68 402,70 402,91 409,94 407,104 401,102 398,105 382,104 374,102 367,103 363,94 361,95 370,83" id="86071" class="commune" fill="steelblue" stroke-width="1" stroke="white" geotype="commune" geoname="Cheneché" code_insee="86071" code_canton="8611"/><polygon points="122,171 109,182 104,178 99,182 90,176 81,182 66,178 45,178 38,172 22,185 0,186 32,168 13,155 19,152 44,147 45,139 40,137 45,133 37,126 45,125 74,110 81,112 78,114 81,116 87,115 73,127 78,133 86,132 111,141 110,144 115,143 115,140 122,140 127,146 141,150 137,153 143,155 122,171" id="86073" class="commune" fill="steelblue" stroke-width="1" stroke="white" geotype="commune" geoname="Cherves" code_insee="86073" code_canton="8611"/><polygon points="395,192 405,205 391,212 395,215 387,221 376,221 366,228 362,226 350,234 360,236 360,244 342,240 340,232 304,227 315,221 308,214 315,210 302,206 313,189 318,190 325,181 341,191 351,190 360,200 395,192" id="86076" class="commune" fill="steelblue" stroke-width="1" stroke="white" geotype="commune" geoname="Cissé" code_insee="86076" code_canton="8611"/><polygon points="196,93 188,95 177,91 174,95 160,96 152,94 154,91 147,91 138,77 127,76 137,61 138,55 150,56 148,59 157,56 157,60 167,60 167,52 161,45 158,32 168,39 184,38 186,42 198,35 209,42 205,44 208,47 195,52 201,54 198,61 206,70 220,71 196,93" id="86089" class="commune" fill="steelblue" stroke-width="1" stroke="white" geotype="commune" geoname="Cuhon" code_insee="86089" code_canton="8611"/><polygon points="81,112 87,110 93,111 112,100 140,110 146,111 144,115 133,128 119,137 122,140 115,140 115,143 110,144 111,141 86,132 78,133 73,127 87,115 81,116 78,114 81,112" id="86144" class="commune" fill="steelblue" stroke-width="1" stroke="white" geotype="commune" geoname="Maisonneuve" code_insee="86144" code_canton="8611"/><polygon points="160,96 149,104 144,102 140,110 112,100 93,111 87,110 89,105 83,97 72,84 91,62 107,70 114,56 137,61 127,76 138,77 147,91 154,91 152,94 160,96" id="86150" class="commune" fill="steelblue" stroke-width="1" stroke="white" geotype="commune" geoname="Massognes" code_insee="86150" code_canton="8611"/><polygon points="500,248 499,251 483,248 485,245 474,240 475,249 448,253 452,258 433,270 402,254 378,250 371,244 360,244 360,236 350,234 362,226 366,228 376,221 387,221 395,215 391,212 405,205 416,220 425,205 429,206 436,201 456,211 470,206 484,216 481,218 499,238 500,248" id="86158" class="commune" fill="steelblue" stroke-width="1" stroke="white" geotype="commune" geoname="Migné-Auxances" code_insee="86158" code_canton="8611"/><polygon points="259,59 247,46 235,44 237,40 248,29 267,33 279,27 284,29 322,2 328,6 335,0 343,6 340,9 344,11 334,14 341,20 329,26 334,28 330,37 337,43 327,45 298,37 293,39 289,50 283,50 272,62 259,59" id="86160" class="commune" fill="steelblue" stroke-width="1" stroke="white" geotype="commune" geoname="Mirebeau" code_insee="86160" code_canton="8611"/><polygon points="402,168 395,192 360,200 351,190 341,191 325,181 327,170 323,169 329,164 333,164 332,162 348,147 352,139 356,142 359,139 370,147 379,141 389,140 398,144 389,158 402,157 402,168" id="86177" class="commune" fill="steelblue" stroke-width="1" stroke="white" geotype="commune" geoname="Neuville-de-Poitou" code_insee="86177" code_canton="8611"/><polygon points="365,2 371,3 380,18 376,24 379,26 393,28 403,26 413,33 434,33 438,37 451,33 462,38 470,37 468,39 478,45 465,52 468,58 437,65 417,61 402,70 400,68 374,84 370,83 347,79 326,82 318,81 321,69 327,63 319,61 327,53 327,45 337,43 330,37 334,28 329,26 341,20 334,14 344,11 340,9 343,6 347,9 365,2" id="86271" class="commune" fill="steelblue" stroke-width="1" stroke="white" geotype="commune" geoname="Thurageau" code_insee="86271" code_canton="8611"/><polygon points="284,95 282,83 273,76 256,78 245,72 250,67 256,67 259,59 272,62 283,50 289,50 293,39 298,37 327,45 327,53 319,61 327,63 321,69 318,81 299,97 284,95" id="86277" class="commune" fill="steelblue" stroke-width="1" stroke="white" geotype="commune" geoname="Varennes" code_insee="86277" code_canton="8611"/><polygon points="230,173 250,157 253,163 260,158 267,161 264,167 285,175 281,180 286,183 282,187 294,202 287,210 256,203 240,203 231,193 237,188 229,185 230,173" id="86292" class="commune" fill="steelblue" stroke-width="1" stroke="white" geotype="commune" geoname="Villiers" code_insee="86292" code_canton="8611"/><polygon points="160,96 174,95 177,91 188,95 172,115 191,121 188,125 193,128 182,132 186,133 186,139 191,138 191,141 200,144 185,157 176,164 147,152 143,155 137,153 141,150 127,146 122,140 119,137 133,128 144,115 146,111 140,110 144,102 149,104 160,96" id="86299" class="commune" fill="steelblue" stroke-width="1" stroke="white" geotype="commune" geoname="Vouzailles" code_insee="86299" code_canton="8611"/><polygon points="323,169 327,170 325,181 318,190 313,189 302,206 294,202 282,187 286,183 281,180 285,175 290,167 306,168 308,164 323,169" id="86300" class="commune" fill="steelblue" stroke-width="1" stroke="white" geotype="commune" geoname="Yversay" code_insee="86300" code_canton="8611"/></svg>