<?xml version="1.0" encoding="utf-8"?>
<svg version="1.1" id="svgmap" xmlns="http://www.w3.org/2000/svg" xmlns:xlink="http://www.w3.org/1999/xlink" x="0px" y="0px" width="100%" height="100%" viewBox="0 0 500 463">
<polygon points="337,349 276,353 266,342 258,342 252,338 242,335 247,335 246,332 240,326 256,319 262,323 275,325 275,327 291,319 308,307 320,308 323,292 315,284 325,273 338,265 348,263 354,264 364,282 368,287 352,294 341,304 347,309 348,321 338,322 338,330 321,337 337,349" id="89014" class="commune" fill="steelblue" stroke-width="1" stroke="white" geotype="commune" geoname="Arces-Dilo" code_insee="89014" code_canton="8906"/><polygon points="290,163 296,156 286,155 293,134 289,130 276,129 282,111 293,108 304,108 320,113 338,113 348,128 348,134 338,138 320,154 326,163 320,163 314,168 296,166 290,163" id="89027" class="commune" fill="steelblue" stroke-width="1" stroke="white" geotype="commune" geoname="Bagneaux" code_insee="89027" code_canton="8906"/><polygon points="258,377 254,374 236,363 235,358 252,338 258,342 266,342 276,353 337,349 342,355 353,360 349,370 356,383 343,386 347,390 334,395 336,398 328,400 316,394 306,387 293,385 289,382 275,382 258,377" id="89035" class="commune" fill="steelblue" stroke-width="1" stroke="white" geotype="commune" geoname="Bellechaume" code_insee="89035" code_canton="8906"/><polygon points="409,294 399,291 387,290 384,277 382,273 399,268 426,261 427,250 430,250 437,261 442,262 462,249 453,227 458,226 489,235 497,243 500,256 486,264 482,270 468,266 450,289 448,299 409,294" id="89048" class="commune" fill="steelblue" stroke-width="1" stroke="white" geotype="commune" geoname="Bœurs-en-Othe" code_insee="89048" code_canton="8906"/><polygon points="336,398 346,406 358,406 359,400 365,401 383,415 378,418 389,437 375,448 362,452 361,459 368,460 363,462 355,457 346,460 340,458 336,463 320,463 308,460 303,456 308,448 315,445 317,439 313,438 307,426 293,414 308,406 308,400 316,394 328,400 336,398" id="89055" class="commune" fill="steelblue" stroke-width="1" stroke="white" geotype="commune" geoname="Brienon-sur-Armançon" code_insee="89055" code_canton="8906"/><polygon points="379,234 349,240 349,236 334,236 333,227 313,222 345,207 367,215 379,234" id="89065" class="commune" fill="steelblue" stroke-width="1" stroke="white" geotype="commune" geoname="Cérilly" code_insee="89065" code_canton="8906"/><polygon points="179,313 152,303 157,298 154,295 160,272 155,261 162,254 171,252 192,266 196,269 212,279 244,290 272,293 287,305 277,304 262,303 254,309 212,319 179,313" id="89066" class="commune" fill="steelblue" stroke-width="1" stroke="white" geotype="commune" geoname="Cerisiers" code_insee="89066" code_canton="8906"/><polygon points="337,349 321,337 338,330 345,329 352,340 369,340 361,345 388,368 408,378 430,406 427,410 430,413 408,424 383,415 365,401 368,400 356,383 349,370 353,360 342,355 337,349" id="89076" class="commune" fill="steelblue" stroke-width="1" stroke="white" geotype="commune" geoname="Champlost" code_insee="89076" code_canton="8906"/><polygon points="148,190 171,178 185,176 193,181 189,184 195,188 213,198 228,201 216,207 208,207 202,211 202,221 182,221 163,208 147,197 148,190" id="89107" class="commune" fill="steelblue" stroke-width="1" stroke="white" geotype="commune" geoname="Chigy" code_insee="89107" code_canton="8906"/><polygon points="155,136 165,140 171,139 177,147 180,145 185,149 173,155 172,159 178,160 173,165 185,176 171,178 148,190 130,182 127,171 128,158 155,136" id="89111" class="commune" fill="steelblue" stroke-width="1" stroke="white" geotype="commune" geoname="Clérimois" code_insee="89111" code_canton="8906"/><polygon points="283,212 291,211 296,216 313,222 333,227 334,236 349,236 349,240 356,253 348,263 338,265 325,273 309,255 290,259 274,232 276,212 283,212" id="89120" class="commune" fill="steelblue" stroke-width="1" stroke="white" geotype="commune" geoname="Coulours" code_insee="89120" code_canton="8906"/><polygon points="271,134 257,135 259,122 243,123 244,120 231,118 234,113 222,100 189,92 221,70 246,64 255,58 277,56 279,66 275,68 286,74 296,74 298,80 306,80 305,90 294,99 301,100 306,105 320,105 322,109 331,109 338,113 320,113 304,108 293,108 282,111 276,129 271,134" id="89122" class="commune" fill="steelblue" stroke-width="1" stroke="white" geotype="commune" geoname="Courgenay" code_insee="89122" code_canton="8906"/><polygon points="254,374 258,377 266,386 277,390 283,398 279,403 293,414 307,426 313,438 317,439 315,445 308,448 303,456 283,458 272,436 277,433 276,423 287,416 273,409 267,407 263,410 256,405 256,391 242,380 254,374" id="89156" class="commune" fill="steelblue" stroke-width="1" stroke="white" geotype="commune" geoname="Esnon" code_insee="89156" code_canton="8906"/><polygon points="291,211 283,212 281,208 272,187 279,186 290,163 296,166 314,168 320,163 326,163 329,159 337,160 345,168 336,174 333,184 320,195 291,211" id="89165" class="commune" fill="steelblue" stroke-width="1" stroke="white" geotype="commune" geoname="Flacy" code_insee="89165" code_canton="8906"/><polygon points="185,176 173,165 178,160 172,159 173,155 185,149 180,145 188,138 196,140 201,142 200,145 209,145 212,156 227,153 233,162 226,165 230,171 246,183 248,200 241,202 238,197 230,198 228,201 213,198 195,188 189,184 193,181 185,176" id="89171" class="commune" fill="steelblue" stroke-width="1" stroke="white" geotype="commune" geoname="Foissy-sur-Vanne" code_insee="89171" code_canton="8906"/><polygon points="128,158 127,171 115,174 99,183 73,182 55,186 48,176 60,169 59,158 94,154 128,158" id="89172" class="commune" fill="steelblue" stroke-width="1" stroke="white" geotype="commune" geoname="Fontaine-la-Gaillarde" code_insee="89172" code_canton="8906"/><polygon points="349,240 379,234 391,245 399,268 382,273 384,277 364,282 354,264 348,263 356,253 349,240" id="89181" class="commune" fill="steelblue" stroke-width="1" stroke="white" geotype="commune" geoname="Fournaudin" code_insee="89181" code_canton="8906"/><polygon points="180,145 177,147 171,139 165,140 155,136 173,119 168,115 173,110 182,106 188,92 189,92 222,100 234,113 231,118 244,120 243,123 259,122 257,135 253,136 243,153 229,150 227,153 212,156 209,145 200,145 201,142 196,140 188,138 180,145" id="89214" class="commune" fill="steelblue" stroke-width="1" stroke="white" geotype="commune" geoname="Lailly" code_insee="89214" code_canton="8906"/><polygon points="69,232 42,234 27,228 28,220 37,218 43,210 32,199 47,192 64,194 73,199 78,207 76,211 83,212 96,231 95,231 69,232" id="89240" class="commune" fill="steelblue" stroke-width="1" stroke="white" geotype="commune" geoname="Malay-le-Petit" code_insee="89240" code_canton="8906"/><polygon points="365,401 359,400 358,406 346,406 336,398 334,395 347,390 343,386 356,383 368,400 365,401" id="89249" class="commune" fill="steelblue" stroke-width="1" stroke="white" geotype="commune" geoname="Mercy" code_insee="89249" code_canton="8906"/><polygon points="257,135 271,134 272,138 264,141 261,147 263,156 259,156 263,157 263,162 267,163 272,187 281,208 254,204 248,200 246,183 230,171 226,165 233,162 227,153 229,150 243,153 253,136 257,135" id="89261" class="commune" fill="steelblue" stroke-width="1" stroke="white" geotype="commune" geoname="Molinons" code_insee="89261" code_canton="8906"/><polygon points="105,273 99,278 77,272 79,263 67,261 66,257 61,257 63,254 57,251 63,239 70,239 69,232 95,231 105,273" id="89278" class="commune" fill="steelblue" stroke-width="1" stroke="white" geotype="commune" geoname="Noé" code_insee="89278" code_canton="8906"/><polygon points="258,377 275,382 289,382 293,385 306,387 316,394 308,400 308,406 293,414 279,403 283,398 277,390 266,386 258,377" id="89288" class="commune" fill="steelblue" stroke-width="1" stroke="white" geotype="commune" geoname="Paroy-en-Othe" code_insee="89288" code_canton="8906"/><polygon points="127,171 130,182 148,190 147,197 163,208 152,214 159,218 155,221 157,226 147,217 143,222 123,222 109,229 105,226 115,209 109,188 116,179 115,174 127,171" id="89308" class="commune" fill="steelblue" stroke-width="1" stroke="white" geotype="commune" geoname="Pont-sur-Vanne" code_insee="89308" code_canton="8906"/><polygon points="111,115 113,110 117,110 120,107 126,89 139,88 138,72 142,73 146,78 165,88 176,87 188,92 182,106 173,110 168,115 133,118 111,115" id="89310" class="commune" fill="steelblue" stroke-width="1" stroke="white" geotype="commune" geoname="Postolle" code_insee="89310" code_canton="8906"/><polygon points="189,92 188,92 176,87 165,88 166,79 163,79 168,64 153,52 156,41 178,33 181,10 175,1 201,0 219,11 228,24 243,36 255,41 255,58 246,64 221,70 189,92" id="89359" class="commune" fill="steelblue" stroke-width="1" stroke="white" geotype="commune" geoname="Saint-Maurice-aux-Riches-Hommes" code_insee="89359" code_canton="8906"/><polygon points="27,167 38,163 40,158 46,156 59,158 60,169 48,176 55,186 47,192 32,199 22,201 13,200 14,195 4,196 0,184 4,177 27,167" id="89373" class="commune" fill="steelblue" stroke-width="1" stroke="white" geotype="commune" geoname="Saligny" code_insee="89373" code_canton="8906"/><polygon points="228,201 230,198 238,197 241,202 248,200 254,204 281,208 283,212 276,212 274,232 290,259 265,260 250,254 238,256 211,250 203,236 205,231 200,228 202,221 202,211 208,207 216,207 228,201" id="89395" class="commune" fill="steelblue" stroke-width="1" stroke="white" geotype="commune" geoname="Sièges" code_insee="89395" code_canton="8906"/><polygon points="105,273 95,231 96,231 100,232 109,229 123,222 143,222 147,217 157,226 172,247 192,266 171,252 154,246 137,248 121,238 115,243 121,246 115,253 119,255 105,273" id="89411" class="commune" fill="steelblue" stroke-width="1" stroke="white" geotype="commune" geoname="Theil-sur-Vanne" code_insee="89411" code_canton="8906"/><polygon points="211,250 204,264 196,269 192,266 172,247 157,226 155,221 159,218 152,214 163,208 182,221 202,221 200,228 205,231 203,236 211,250" id="89429" class="commune" fill="steelblue" stroke-width="1" stroke="white" geotype="commune" geoname="Vareilles" code_insee="89429" code_canton="8906"/><polygon points="196,269 204,264 211,250 238,256 250,254 265,260 290,259 309,255 325,273 315,284 323,292 320,308 308,307 291,319 277,304 287,305 272,293 244,290 212,279 196,269" id="89432" class="commune" fill="steelblue" stroke-width="1" stroke="white" geotype="commune" geoname="Vaudeurs" code_insee="89432" code_canton="8906"/><polygon points="99,278 105,273 119,255 115,253 121,246 115,243 121,238 137,248 154,246 171,252 162,254 155,261 160,272 154,295 157,298 152,303 118,290 99,278" id="89434" class="commune" fill="steelblue" stroke-width="1" stroke="white" geotype="commune" geoname="Vaumort" code_insee="89434" code_canton="8906"/><polygon points="338,330 338,322 348,321 347,309 341,304 352,294 368,287 364,282 384,277 387,290 399,291 402,307 384,314 368,307 357,318 360,321 396,326 405,334 403,335 420,340 428,349 431,348 444,357 455,354 461,338 464,341 461,352 477,368 468,376 472,381 468,392 474,397 463,407 464,414 458,415 463,418 449,421 438,418 438,414 430,413 427,410 430,406 408,378 388,368 361,345 369,340 352,340 345,329 338,330" id="89436" class="commune" fill="steelblue" stroke-width="1" stroke="white" geotype="commune" geoname="Venizy" code_insee="89436" code_canton="8906"/><polygon points="291,319 275,327 275,325 262,323 256,319 240,326 246,332 247,335 242,335 230,328 204,330 184,327 179,313 212,319 254,309 262,303 277,304 291,319" id="89451" class="commune" fill="steelblue" stroke-width="1" stroke="white" geotype="commune" geoname="Villechétive" code_insee="89451" code_canton="8906"/><polygon points="276,129 289,130 293,134 286,155 296,156 290,163 279,186 272,187 267,163 263,162 263,157 259,156 263,156 261,147 264,141 272,138 271,134 276,129" id="89461" class="commune" fill="steelblue" stroke-width="1" stroke="white" geotype="commune" geoname="Villeneuve-l'Archevêque" code_insee="89461" code_canton="8906"/><polygon points="55,186 73,182 99,183 115,174 116,179 109,188 115,209 105,226 109,229 100,232 96,231 83,212 76,211 78,207 73,199 64,194 47,192 55,186" id="89471" class="commune" fill="steelblue" stroke-width="1" stroke="white" geotype="commune" geoname="Villiers-Louis" code_insee="89471" code_canton="8906"/></svg>