<?xml version="1.0" encoding="utf-8"?>
<svg version="1.1" id="svgmap" xmlns="http://www.w3.org/2000/svg" xmlns:xlink="http://www.w3.org/1999/xlink" x="0px" y="0px" width="100%" height="100%" viewBox="0 0 500 423">
<polygon points="204,196 209,194 213,194 219,201 229,196 245,203 243,214 234,222 228,221 225,216 219,215 220,209 204,196" id="89002" class="commune" fill="steelblue" stroke-width="1" stroke="white" geotype="commune" geoname="Aigremont" code_insee="89002" code_canton="8907"/><polygon points="311,328 323,324 332,327 337,325 337,331 341,331 340,337 346,343 348,348 341,354 328,355 319,351 327,346 327,341 315,345 311,328" id="89008" class="commune" fill="steelblue" stroke-width="1" stroke="white" geotype="commune" geoname="Angely" code_insee="89008" code_canton="8907"/><polygon points="242,225 246,222 256,213 264,211 276,197 275,194 284,191 287,187 283,163 297,162 298,159 301,161 299,166 303,171 316,178 318,182 323,184 323,194 310,204 305,212 290,216 268,231 257,229 255,230 242,225" id="89010" class="commune" fill="steelblue" stroke-width="1" stroke="white" geotype="commune" geoname="Annay-sur-Serein" code_insee="89010" code_canton="8907"/><polygon points="370,276 371,280 380,283 377,286 377,302 370,300 355,301 346,291 350,282 349,273 355,273 351,268 355,266 357,269 359,266 361,267 361,270 370,276" id="89012" class="commune" fill="steelblue" stroke-width="1" stroke="white" geotype="commune" geoname="Annoux" code_insee="89012" code_canton="8907"/><polygon points="111,106 112,109 113,112 119,114 120,119 101,140 106,150 90,148 86,141 74,145 61,132 58,125 59,120 65,118 73,109 75,101 84,102 92,110 111,106" id="89034" class="commune" fill="steelblue" stroke-width="1" stroke="white" geotype="commune" geoname="Beine" code_insee="89034" code_canton="8907"/><polygon points="214,145 208,138 211,130 230,127 238,123 234,126 239,132 236,142 233,143 214,145" id="89039" class="commune" fill="steelblue" stroke-width="1" stroke="white" geotype="commune" geoname="Béru" code_insee="89039" code_canton="8907"/><polygon points="499,280 497,282 500,286 497,302 500,305 489,305 485,302 486,309 475,322 471,322 469,319 460,319 456,313 449,310 448,306 438,299 446,295 439,285 443,277 452,276 457,271 464,271 470,267 488,272 495,280 499,280" id="89042" class="commune" fill="steelblue" stroke-width="1" stroke="white" geotype="commune" geoname="Bierry-les-Belles-Fontaines" code_insee="89042" code_canton="8907"/><polygon points="356,337 346,343 340,337 341,331 337,331 337,325 355,307 355,301 370,300 365,308 363,330 356,337" id="89043" class="commune" fill="steelblue" stroke-width="1" stroke="white" geotype="commune" geoname="Blacy" code_insee="89043" code_canton="8907"/><polygon points="214,35 212,41 185,50 176,46 170,47 162,34 163,33 168,29 194,26 201,21 205,23 213,25 214,35" id="89062" class="commune" fill="steelblue" stroke-width="1" stroke="white" geotype="commune" geoname="Carisey" code_insee="89062" code_canton="8907"/><polygon points="360,232 349,232 351,229 343,223 347,216 344,211 359,215 366,215 367,223 376,228 370,231 360,232" id="89064" class="commune" fill="steelblue" stroke-width="1" stroke="white" geotype="commune" geoname="Censy" code_insee="89064" code_canton="8907"/><polygon points="181,97 187,98 192,109 189,113 184,118 185,121 181,126 179,134 172,131 169,137 163,136 155,142 157,145 154,145 160,158 158,159 159,164 140,170 133,169 133,166 130,164 136,152 118,151 105,155 106,150 101,140 120,119 119,114 113,112 112,109 123,107 124,111 143,107 148,108 144,112 156,108 163,112 168,112 181,97" id="89068" class="commune" fill="steelblue" stroke-width="1" stroke="white" geotype="commune" geoname="Chablis" code_insee="89068" code_canton="8907"/><polygon points="112,109 111,106 115,104 107,100 110,95 126,92 126,96 130,97 129,100 152,102 148,108 143,107 124,111 123,107 112,109" id="89081" class="commune" fill="steelblue" stroke-width="1" stroke="white" geotype="commune" geoname="Chapelle-Vaupelteigne" code_insee="89081" code_canton="8907"/><polygon points="377,302 377,286 380,283 371,280 370,276 371,269 380,270 393,267 393,265 400,266 411,262 414,263 413,257 419,249 422,250 430,265 443,277 439,285 446,295 438,299 433,301 401,297 401,310 387,308 386,309 381,306 377,302" id="89092" class="commune" fill="steelblue" stroke-width="1" stroke="white" geotype="commune" geoname="Châtel-Gérard" code_insee="89092" code_canton="8907"/><polygon points="184,189 177,184 173,185 170,180 186,175 185,163 189,158 202,147 214,145 233,143 233,150 217,155 210,160 211,166 207,168 209,171 207,177 188,189 184,189" id="89095" class="commune" fill="steelblue" stroke-width="1" stroke="white" geotype="commune" geoname="Chemilly-sur-Serein" code_insee="89095" code_canton="8907"/><polygon points="211,130 208,138 214,145 202,147 189,158 185,163 186,175 170,180 159,164 158,159 160,158 154,145 157,145 155,142 163,136 169,137 172,131 179,134 184,136 198,134 211,130" id="89104" class="commune" fill="steelblue" stroke-width="1" stroke="white" geotype="commune" geoname="Chichée" code_insee="89104" code_canton="8907"/><polygon points="61,151 68,149 74,145 81,152 78,156 90,156 94,159 97,172 94,172 93,174 76,181 68,180 55,181 52,178 48,177 52,175 39,165 37,164 43,162 44,158 49,158 61,151" id="89108" class="commune" fill="steelblue" stroke-width="1" stroke="white" geotype="commune" geoname="Chitry" code_insee="89108" code_canton="8907"/><polygon points="384,367 389,367 390,370 393,369 399,370 399,373 393,376 394,379 391,378 386,381 380,386 377,385 375,388 366,387 363,383 365,376 377,373 384,367" id="89109" class="commune" fill="steelblue" stroke-width="1" stroke="white" geotype="commune" geoname="Cisery" code_insee="89109" code_canton="8907"/><polygon points="74,145 86,141 90,148 106,150 105,155 118,151 136,152 130,164 127,163 106,173 97,172 94,159 90,156 78,156 81,152 74,145" id="89123" class="commune" fill="steelblue" stroke-width="1" stroke="white" geotype="commune" geoname="Courgis" code_insee="89123" code_canton="8907"/><polygon points="474,240 468,254 470,261 468,264 470,267 464,271 457,271 452,276 443,277 430,265 422,250 418,244 421,238 408,236 402,231 410,223 414,224 417,222 419,224 430,222 434,224 450,219 451,224 462,227 467,232 454,236 454,239 464,238 474,240" id="89161" class="commune" fill="steelblue" stroke-width="1" stroke="white" geotype="commune" geoname="Étivey" code_insee="89161" code_canton="8907"/><polygon points="228,122 230,127 211,130 198,134 184,136 179,134 181,126 185,121 184,118 189,113 199,119 198,121 202,116 211,119 216,118 219,115 228,122" id="89168" class="commune" fill="steelblue" stroke-width="1" stroke="white" geotype="commune" geoname="Fleys" code_insee="89168" code_canton="8907"/><polygon points="148,108 152,102 166,92 179,95 181,97 168,112 163,112 156,108 144,112 148,108" id="89175" class="commune" fill="steelblue" stroke-width="1" stroke="white" geotype="commune" geoname="Fontenay-près-Chablis" code_insee="89175" code_canton="8907"/><polygon points="323,184 318,182 316,178 303,171 299,166 301,161 307,161 308,153 311,154 328,173 328,180 325,185 323,184" id="89183" class="commune" fill="steelblue" stroke-width="1" stroke="white" geotype="commune" geoname="Fresnes" code_insee="89183" code_canton="8907"/><polygon points="346,259 344,261 333,269 328,270 316,268 312,264 304,265 293,261 271,263 273,265 273,270 258,268 254,275 243,266 246,264 241,261 257,252 256,249 264,249 272,256 285,251 291,246 322,235 342,239 338,243 337,256 346,259" id="89194" class="commune" fill="steelblue" stroke-width="1" stroke="white" geotype="commune" geoname="Grimault" code_insee="89194" code_canton="8907"/><polygon points="395,338 396,340 389,346 396,350 408,351 406,360 408,374 415,377 418,385 414,387 406,391 402,389 402,387 386,381 391,378 394,379 393,376 399,373 399,370 393,369 390,370 389,367 384,367 372,360 369,356 370,354 383,350 387,341 395,338" id="89197" class="commune" fill="steelblue" stroke-width="1" stroke="white" geotype="commune" geoname="Guillon" code_insee="89197" code_canton="8907"/><polygon points="337,325 332,327 323,324 321,312 326,312 331,310 355,307 337,325" id="89204" class="commune" fill="steelblue" stroke-width="1" stroke="white" geotype="commune" geoname="Isle-sur-Serein" code_insee="89204" code_canton="8907"/><polygon points="349,232 360,232 362,237 368,237 367,243 359,246 353,256 349,260 346,259 337,256 338,243 342,239 349,232" id="89207" class="commune" fill="steelblue" stroke-width="1" stroke="white" geotype="commune" geoname="Jouancy" code_insee="89207" code_canton="8907"/><polygon points="160,217 157,217 149,214 164,208 184,189 188,189 198,195 204,196 220,209 219,215 211,218 169,225 160,217" id="89224" class="commune" fill="steelblue" stroke-width="1" stroke="white" geotype="commune" geoname="Lichères-près-Aigremont" code_insee="89224" code_canton="8907"/><polygon points="72,73 72,73 78,63 82,63 82,66 92,71 90,77 96,78 100,82 100,89 105,91 104,98 107,100 115,104 111,106 92,110 84,102 75,101 74,100 80,87 77,83 76,75 72,73" id="89226" class="commune" fill="steelblue" stroke-width="1" stroke="white" geotype="commune" geoname="Lignorelles" code_insee="89226" code_canton="8907"/><polygon points="153,61 150,62 139,67 116,70 107,72 92,71 82,66 82,63 91,67 100,66 99,57 103,59 105,52 104,50 96,47 99,44 91,38 93,36 99,27 94,22 90,22 92,19 88,16 86,6 97,6 100,0 106,4 110,3 125,7 134,10 126,28 122,32 131,58 153,61" id="89227" class="commune" fill="steelblue" stroke-width="1" stroke="white" geotype="commune" geoname="Ligny-le-Châtel" code_insee="89227" code_canton="8907"/><polygon points="187,98 181,97 179,95 166,92 152,102 129,100 130,97 126,96 126,92 126,91 121,90 123,88 117,83 116,70 139,67 150,62 163,68 166,68 180,80 190,94 187,98" id="89242" class="commune" fill="steelblue" stroke-width="1" stroke="white" geotype="commune" geoname="Maligny" code_insee="89242" code_canton="8907"/><polygon points="386,309 387,308 401,310 401,297 433,301 428,313 415,324 395,335 386,309" id="89244" class="commune" fill="steelblue" stroke-width="1" stroke="white" geotype="commune" geoname="Marmeaux" code_insee="89244" code_canton="8907"/><polygon points="349,273 350,282 346,291 355,301 355,307 331,310 326,312 321,312 310,310 311,303 304,299 308,296 307,294 293,301 290,299 284,300 280,299 263,290 246,289 254,275 258,268 273,270 273,265 271,263 293,261 304,265 312,264 316,268 328,270 333,269 344,261 344,265 349,273" id="89246" class="commune" fill="steelblue" stroke-width="1" stroke="white" geotype="commune" geoname="Massangis" code_insee="89246" code_canton="8907"/><polygon points="163,33 162,34 170,47 176,46 185,50 187,57 183,63 186,68 184,73 187,79 180,80 166,68 163,68 150,62 153,61 156,48 153,36 147,30 153,29 159,31 160,30 164,30 163,33" id="89250" class="commune" fill="steelblue" stroke-width="1" stroke="white" geotype="commune" geoname="Méré" code_insee="89250" code_canton="8907"/><polygon points="273,165 276,162 283,163 287,187 284,191 275,194 276,197 264,211 256,213 246,222 245,220 250,210 249,203 264,188 264,185 258,185 257,183 262,182 264,175 271,170 273,165" id="89259" class="commune" fill="steelblue" stroke-width="1" stroke="white" geotype="commune" geoname="Môlay" code_insee="89259" code_canton="8907"/><polygon points="25,86 26,79 30,80 38,71 42,72 42,69 47,70 72,73 76,75 77,83 80,87 74,100 71,101 68,100 64,102 56,100 42,105 40,103 36,99 38,93 36,95 32,91 27,90 23,88 25,86" id="89265" class="commune" fill="steelblue" stroke-width="1" stroke="white" geotype="commune" geoname="Montigny-la-Resle" code_insee="89265" code_canton="8907"/><polygon points="346,343 356,337 368,341 374,341 376,337 381,342 385,339 387,341 383,350 370,354 367,352 358,353 349,364 339,359 341,354 348,348 346,343" id="89267" class="commune" fill="steelblue" stroke-width="1" stroke="white" geotype="commune" geoname="Montréal" code_insee="89267" code_canton="8907"/><polygon points="344,211 334,195 328,191 326,187 350,176 351,184 358,185 383,194 381,199 385,207 366,215 359,215 344,211" id="89271" class="commune" fill="steelblue" stroke-width="1" stroke="white" geotype="commune" geoname="Moulins-en-Tonnerrois" code_insee="89271" code_canton="8907"/><polygon points="219,215 225,216 228,221 234,222 241,226 253,238 256,249 257,252 241,261 225,266 219,270 208,266 205,264 198,266 185,258 189,254 189,247 182,243 186,234 181,230 169,225 211,218 219,215" id="89277" class="commune" fill="steelblue" stroke-width="1" stroke="white" geotype="commune" geoname="Nitry" code_insee="89277" code_canton="8907"/><polygon points="326,187 328,191 334,195 344,211 347,216 343,223 351,229 349,232 342,239 322,235 291,246 285,251 272,256 264,249 256,249 253,238 241,226 242,225 255,230 257,229 268,231 290,216 305,212 310,204 323,194 323,184 325,185 326,187" id="89279" class="commune" fill="steelblue" stroke-width="1" stroke="white" geotype="commune" geoname="Noyers" code_insee="89279" code_canton="8907"/><polygon points="366,215 385,207 393,208 400,213 408,211 413,217 410,223 402,231 388,235 380,227 376,228 367,223 366,215" id="89290" class="commune" fill="steelblue" stroke-width="1" stroke="white" geotype="commune" geoname="Pasilly" code_insee="89290" code_canton="8907"/><polygon points="458,345 451,346 448,354 442,356 430,356 418,354 420,348 414,346 419,341 434,334 440,328 437,324 438,299 448,306 449,310 448,330 451,337 460,342 458,345" id="89300" class="commune" fill="steelblue" stroke-width="1" stroke="white" geotype="commune" geoname="Pisy" code_insee="89300" code_canton="8907"/><polygon points="209,194 204,196 198,195 188,189 207,177 209,171 207,168 211,166 210,160 217,155 233,150 233,143 236,142 252,144 257,148 257,158 268,162 261,162 257,168 243,174 237,185 226,182 217,191 209,194" id="89303" class="commune" fill="steelblue" stroke-width="1" stroke="white" geotype="commune" geoname="Poilly-sur-Serein" code_insee="89303" code_canton="8907"/><polygon points="82,63 78,63 72,73 75,43 73,41 57,37 55,37 54,34 51,32 63,32 66,30 82,32 93,36 91,38 99,44 96,47 104,50 105,52 103,59 99,57 100,66 91,67 82,63" id="89307" class="commune" fill="steelblue" stroke-width="1" stroke="white" geotype="commune" geoname="Pontigny" code_insee="89307" code_canton="8907"/><polygon points="130,164 133,166 133,169 140,170 159,164 170,180 173,185 165,189 148,190 141,193 132,189 128,186 118,184 117,180 113,181 113,177 106,173 127,163 130,164" id="89315" class="commune" fill="steelblue" stroke-width="1" stroke="white" geotype="commune" geoname="Préhy" code_insee="89315" code_canton="8907"/><polygon points="26,79 36,47 40,42 40,43 44,42 48,36 54,34 55,37 57,37 58,46 53,48 47,70 42,69 42,72 38,71 30,80 26,79" id="89328" class="commune" fill="steelblue" stroke-width="1" stroke="white" geotype="commune" geoname="Rouvray" code_insee="89328" code_canton="8907"/><polygon points="359,384 366,387 366,396 380,401 400,415 402,422 397,423 397,420 390,415 384,419 382,416 371,421 353,414 333,401 337,394 359,384" id="89333" class="commune" fill="steelblue" stroke-width="1" stroke="white" geotype="commune" geoname="Saint-André-en-Terre-Plaine" code_insee="89333" code_canton="8907"/><polygon points="173,185 177,184 184,189 164,208 149,214 157,217 150,221 138,224 135,221 143,213 139,210 127,216 118,213 97,208 86,210 74,208 76,204 85,198 83,196 86,192 86,190 75,194 65,190 68,180 76,181 93,174 94,172 97,172 106,173 113,177 113,181 117,180 118,184 128,186 132,189 141,193 148,190 165,189 173,185" id="89341" class="commune" fill="steelblue" stroke-width="1" stroke="white" geotype="commune" geoname="Saint-Cyr-les-Colons" code_insee="89341" code_canton="8907"/><polygon points="246,222 242,225 241,226 234,222 243,214 245,203 229,196 219,201 213,194 209,194 217,191 226,182 237,185 243,174 257,168 261,162 268,162 273,165 271,170 264,175 262,182 257,183 258,185 264,185 264,188 249,203 250,210 245,220 246,222" id="89371" class="commune" fill="steelblue" stroke-width="1" stroke="white" geotype="commune" geoname="Sainte-Vertu" code_insee="89371" code_canton="8907"/><polygon points="396,340 395,338 395,335 415,324 428,313 433,301 438,299 437,324 440,328 434,334 419,341 407,339 402,341 396,340" id="89375" class="commune" fill="steelblue" stroke-width="1" stroke="white" geotype="commune" geoname="Santigny" code_insee="89375" code_canton="8907"/><polygon points="344,261 346,259 349,260 353,256 359,246 367,243 368,237 362,237 360,232 370,231 376,228 380,227 388,235 402,231 408,236 421,238 418,244 422,250 419,249 413,257 414,263 411,262 400,266 393,265 393,267 380,270 371,269 370,276 361,270 361,267 359,266 357,269 355,266 351,268 355,273 349,273 344,265 344,261" id="89376" class="commune" fill="steelblue" stroke-width="1" stroke="white" geotype="commune" geoname="Sarry" code_insee="89376" code_canton="8907"/><polygon points="417,392 423,398 417,402 418,408 421,408 412,412 406,423 402,422 400,415 399,401 405,399 403,398 407,394 417,392" id="89377" class="commune" fill="steelblue" stroke-width="1" stroke="white" geotype="commune" geoname="Sauvigny-le-Beuréal" code_insee="89377" code_canton="8907"/><polygon points="414,387 417,392 407,394 403,398 405,399 399,401 400,415 380,401 366,396 366,387 375,388 377,385 380,386 386,381 402,387 402,389 406,391 414,387" id="89379" class="commune" fill="steelblue" stroke-width="1" stroke="white" geotype="commune" geoname="Savigny-en-Terre-Plaine" code_insee="89379" code_canton="8907"/><polygon points="328,355 341,354 339,359 349,364 351,367 346,373 355,372 354,376 359,384 337,394 333,401 332,395 333,393 337,393 337,390 327,382 319,381 319,378 312,374 313,367 328,355" id="89381" class="commune" fill="steelblue" stroke-width="1" stroke="white" geotype="commune" geoname="Sceaux" code_insee="89381" code_canton="8907"/><polygon points="395,335 395,338 387,341 385,339 381,342 376,337 371,334 371,330 374,315 381,306 386,309 395,335" id="89406" class="commune" fill="steelblue" stroke-width="1" stroke="white" geotype="commune" geoname="Talcy" code_insee="89406" code_canton="8907"/><polygon points="370,300 377,302 381,306 374,315 371,330 371,334 376,337 374,341 368,341 356,337 363,330 365,308 370,300" id="89412" class="commune" fill="steelblue" stroke-width="1" stroke="white" geotype="commune" geoname="Thizy" code_insee="89412" code_canton="8907"/><polygon points="366,387 359,384 354,376 355,372 346,373 351,367 349,364 358,353 367,352 370,354 369,356 372,360 384,367 377,373 365,376 363,383 366,387" id="89421" class="commune" fill="steelblue" stroke-width="1" stroke="white" geotype="commune" geoname="Trévilly" code_insee="89421" code_canton="8907"/><polygon points="153,61 131,58 122,32 126,28 127,29 139,26 147,30 153,36 156,48 153,61" id="89430" class="commune" fill="steelblue" stroke-width="1" stroke="white" geotype="commune" geoname="Varennes" code_insee="89430" code_canton="8907"/><polygon points="476,331 464,348 458,345 460,342 451,337 448,330 449,310 456,313 460,319 469,319 471,322 475,322 476,331" id="89431" class="commune" fill="steelblue" stroke-width="1" stroke="white" geotype="commune" geoname="Vassy-sous-Pisy" code_insee="89431" code_canton="8907"/><polygon points="72,73 72,73 47,70 53,48 58,46 57,37 73,41 75,43 72,73" id="89437" class="commune" fill="steelblue" stroke-width="1" stroke="white" geotype="commune" geoname="Venouse" code_insee="89437" code_canton="8907"/><polygon points="442,356 445,362 438,368 433,375 427,375 420,378 415,377 408,374 406,360 408,351 396,350 389,346 396,340 402,341 407,339 419,341 414,346 420,348 418,354 430,356 442,356" id="89448" class="commune" fill="steelblue" stroke-width="1" stroke="white" geotype="commune" geoname="Vignes" code_insee="89448" code_canton="8907"/><polygon points="16,113 11,98 7,95 11,93 13,89 17,89 11,88 10,85 0,85 1,79 25,86 23,88 27,90 32,91 36,95 38,93 36,99 40,103 21,108 26,114 16,113" id="89463" class="commune" fill="steelblue" stroke-width="1" stroke="white" geotype="commune" geoname="Villeneuve-Saint-Salves" code_insee="89463" code_canton="8907"/><polygon points="126,92 110,95 107,100 104,98 105,91 100,89 100,82 96,78 90,77 92,71 107,72 116,70 117,83 123,88 121,90 126,91 126,92" id="89477" class="commune" fill="steelblue" stroke-width="1" stroke="white" geotype="commune" geoname="Villy" code_insee="89477" code_canton="8907"/></svg>