<?xml version="1.0" encoding="utf-8"?>
<svg version="1.1" id="svgmap" xmlns="http://www.w3.org/2000/svg" xmlns:xlink="http://www.w3.org/1999/xlink" x="0px" y="0px" width="100%" height="100%" viewBox="0 0 500 326">
<polygon points="295,110 163,182 80,131 38,107 7,89 0,69 15,38 54,0 134,34 151,23 226,86 259,73 295,110" id="91201" class="commune" fill="steelblue" stroke-width="1" stroke="white" geotype="commune" geoname="Draveil" code_insee="91201" code_canton="9106"/><polygon points="322,291 320,290 251,243 301,208 313,147 447,114 500,157 477,168 472,162 459,176 469,183 393,221 400,235 372,272 322,291" id="91225" class="commune" fill="steelblue" stroke-width="1" stroke="white" geotype="commune" geoname="Étiolles" code_insee="91225" code_canton="9106"/><polygon points="380,326 322,291 372,272 400,235 419,267 453,266 463,299 481,300 442,325 380,326" id="91553" class="commune" fill="steelblue" stroke-width="1" stroke="white" geotype="commune" geoname="Saint-Germain-lès-Corbeil" code_insee="91553" code_canton="9106"/><polygon points="163,182 295,110 316,122 350,95 406,80 426,96 447,114 313,147 301,208 251,243 196,202 163,182" id="91600" class="commune" fill="steelblue" stroke-width="1" stroke="white" geotype="commune" geoname="Soisy-sur-Seine" code_insee="91600" code_canton="9106"/></svg>