<?xml version="1.0" encoding="utf-8"?>
<svg version="1.1" id="svgmap" xmlns="http://www.w3.org/2000/svg" xmlns:xlink="http://www.w3.org/1999/xlink" x="0px" y="0px" width="100%" height="100%" viewBox="0 0 500 417">
<polygon points="237,291 253,268 308,235 376,147 364,85 307,53 170,29 0,3 11,0 193,11 388,72 412,156 347,231 307,270 237,291" id="93039" class="commune" fill="steelblue" stroke-width="1" stroke="white" geotype="commune" geoname="Île-Saint-Denis" code_insee="93039" code_canton="9318"/><polygon points="322,412 238,417 246,383 188,306 237,291 307,270 347,231 402,261 384,297 460,303 493,334 500,409 322,412" id="93070" class="commune" fill="steelblue" stroke-width="1" stroke="white" geotype="commune" geoname="Saint-Ouen" code_insee="93070" code_canton="9318"/></svg>