<?xml version="1.0" encoding="utf-8"?>
<svg version="1.1" id="svgmap" xmlns="http://www.w3.org/2000/svg" xmlns:xlink="http://www.w3.org/1999/xlink" x="0px" y="0px" width="100%" height="100%" viewBox="0 0 403 500">
<polygon points="230,357 251,331 262,345 353,330 361,342 345,361 346,403 360,410 356,413 327,398 301,415 255,408 233,397 252,386 230,357" id="93015" class="commune" fill="steelblue" stroke-width="1" stroke="white" geotype="commune" geoname="Coubron" code_insee="93015" code_canton="9320"/><polygon points="179,445 255,408 301,415 327,398 356,413 328,427 348,445 339,464 244,481 230,499 194,500 183,490 185,457 171,455 179,445" id="93047" class="commune" fill="steelblue" stroke-width="1" stroke="white" geotype="commune" geoname="Montfermeil" code_insee="93047" code_canton="9320"/><polygon points="208,9 255,0 275,18 250,20 251,26 272,25 278,49 297,47 317,84 315,104 298,111 306,130 249,124 243,131 356,243 374,289 289,296 268,271 246,252 241,209 194,161 167,177 157,172 129,184 99,140 0,145 5,132 55,118 46,103 73,97 72,84 87,80 124,28 160,24 190,37 189,23 206,22 208,9" id="93073" class="commune" fill="steelblue" stroke-width="1" stroke="white" geotype="commune" geoname="Tremblay-en-France" code_insee="93073" code_canton="9320"/><polygon points="221,306 220,302 266,295 258,273 268,271 289,296 374,289 403,292 400,325 361,342 353,330 262,345 251,331 239,310 221,306" id="93074" class="commune" fill="steelblue" stroke-width="1" stroke="white" geotype="commune" geoname="Vaujours" code_insee="93074" code_canton="9320"/></svg>