<?xml version="1.0" encoding="utf-8"?>
<svg version="1.1" id="svgmap" xmlns="http://www.w3.org/2000/svg" xmlns:xlink="http://www.w3.org/1999/xlink" x="0px" y="0px" width="100%" height="100%" viewBox="0 0 500 317">
<polygon points="47,6 58,0 77,18 108,12 130,42 161,32 196,65 173,70 147,120 109,132 84,118 30,129 0,118 36,120 65,103 34,33 47,6" id="94015" class="commune" fill="steelblue" stroke-width="1" stroke="white" geotype="commune" geoname="Bry-sur-Marne" code_insee="94015" code_canton="9422"/><polygon points="364,286 335,252 290,260 292,238 331,204 286,178 279,166 299,156 348,181 378,209 474,241 500,248 473,294 456,317 388,316 364,286" id="94059" class="commune" fill="steelblue" stroke-width="1" stroke="white" geotype="commune" geoname="Plessis-Trévise" code_insee="94059" code_canton="9422"/><polygon points="173,70 214,89 231,83 308,135 368,151 348,181 299,156 279,166 286,178 218,172 163,187 134,164 109,163 109,132 147,120 173,70" id="94079" class="commune" fill="steelblue" stroke-width="1" stroke="white" geotype="commune" geoname="Villiers-sur-Marne" code_insee="94079" code_canton="9422"/></svg>