<?xml version="1.0" encoding="utf-8"?>
<svg version="1.1" id="svgmap" xmlns="http://www.w3.org/2000/svg" xmlns:xlink="http://www.w3.org/1999/xlink" x="0px" y="0px" width="100%" height="100%" viewBox="0 0 500 147">
<polygon points="72,35 75,59 91,84 60,106 49,99 2,58 0,47 27,47 30,34 72,35" id="95074" class="commune" fill="steelblue" stroke-width="1" stroke="white" geotype="commune" geoname="Boisemont" code_insee="95074" code_canton="9505"/><polygon points="500,67 458,105 359,82 339,77 344,66 372,59 383,46 401,0 434,10 481,50 500,67" id="95218" class="commune" fill="steelblue" stroke-width="1" stroke="white" geotype="commune" geoname="Éragny" code_insee="95218" code_canton="9505"/><polygon points="281,107 198,137 143,132 124,147 83,133 60,106 91,84 75,59 147,59 190,40 281,107" id="95323" class="commune" fill="steelblue" stroke-width="1" stroke="white" geotype="commune" geoname="Jouy-le-Moutier" code_insee="95323" code_canton="9505"/><polygon points="359,82 352,102 321,114 323,131 309,132 281,107 190,40 173,22 180,8 250,50 268,39 304,65 344,66 339,77 359,82" id="95450" class="commune" fill="steelblue" stroke-width="1" stroke="white" geotype="commune" geoname="Neuville-sur-Oise" code_insee="95450" code_canton="9505"/></svg>