<?xml version="1.0" encoding="utf-8"?>
<svg version="1.1" id="svgmap" xmlns="http://www.w3.org/2000/svg" xmlns:xlink="http://www.w3.org/1999/xlink" x="0px" y="0px" width="100%" height="100%" viewBox="0 0 500 229">
<polygon points="219,227 195,227 161,229 139,217 112,221 110,216 113,192 106,189 128,172 151,157 175,165 165,175 187,179 196,200 224,215 219,227" id="95088" class="commune" fill="steelblue" stroke-width="1" stroke="white" geotype="commune" geoname="Bonneuil-en-France" code_insee="95088" code_canton="9521"/><polygon points="157,0 159,17 168,16 181,63 138,53 130,59 119,54 124,45 88,30 107,17 118,27 126,15 140,19 157,0" id="95094" class="commune" fill="steelblue" stroke-width="1" stroke="white" geotype="commune" geoname="Bouqueval" code_insee="95094" code_canton="9521"/><polygon points="335,178 325,172 308,194 291,186 258,206 252,202 229,229 219,227 224,215 196,200 187,179 165,175 175,165 151,157 105,103 139,65 130,59 138,53 181,63 183,67 192,70 185,84 244,95 234,107 249,116 252,111 285,117 299,101 305,101 300,109 313,112 311,127 357,137 351,161 348,170 334,171 335,178" id="95277" class="commune" fill="steelblue" stroke-width="1" stroke="white" geotype="commune" geoname="Gonesse" code_insee="95277" code_canton="9521"/><polygon points="446,31 445,46 453,46 458,63 475,65 476,57 487,56 500,70 499,80 487,81 487,91 465,82 439,85 412,123 400,126 401,135 381,140 388,151 351,161 357,137 311,127 313,112 300,109 305,101 315,99 312,93 319,70 341,30 346,23 365,28 374,17 418,22 446,31" id="95527" class="commune" fill="steelblue" stroke-width="1" stroke="white" geotype="commune" geoname="Roissy-en-France" code_insee="95527" code_canton="9521"/><polygon points="319,70 312,93 299,101 285,117 252,111 249,116 234,107 244,95 185,84 192,70 183,67 259,76 285,66 319,70" id="95612" class="commune" fill="steelblue" stroke-width="1" stroke="white" geotype="commune" geoname="Thillay" code_insee="95612" code_canton="9521"/><polygon points="312,93 315,99 305,101 299,101 312,93" id="95633" class="commune" fill="steelblue" stroke-width="1" stroke="white" geotype="commune" geoname="Vaudherland" code_insee="95633" code_canton="9521"/><polygon points="86,30 88,30 124,45 119,54 130,59 139,65 105,103 103,113 82,123 5,93 0,60 38,59 86,30" id="95680" class="commune" fill="steelblue" stroke-width="1" stroke="white" geotype="commune" geoname="Villiers-le-Bel" code_insee="95680" code_canton="9521"/></svg>