<?xml version="1.0" encoding="utf-8"?>
<svg version="1.1" id="france_regions_2016_domtom" xmlns="http://www.w3.org/2000/svg" xmlns:xlink="http://www.w3.org/1999/xlink" x="0px" y="0px" width="100%" height="100%" viewBox="165 65 185 130">
<path id="Normandie" code_insee="28" code_region="" class="state" fill-rule="evenodd" clip-rule="evenodd" fill="steelblue" stroke-width="1" stroke="white" d="m 327.03,67.39 -0.03,0.03 c -1.74,1.16 -3.94,-0.1 -5.28,2.16 -2.29,2.35 -4.85,4.56 -8.03,5.59 -2.34,1.39 -4.9,2.39 -7.66,2.22 -2.35,0.61 -4.59,1.65 -6.97,2.19 -3.55,1.43 -7.66,0.45 -11.06,2.44 -2.95,1.51 -5.58,3.64 -8.75,4.69 -1.51,1.33 -3.22,2.27 -5.19,2.72 -1.86,1 -4.4,1.37 -5.13,3.69 -0.75,3.04 -2.14,5.78 -3.56,8.56 -1.79,2.24 0.52,4.64 2.72,5.19 1.7,0.51 3.43,0.34 5.16,1.25 3.58,0.81 7.28,-0.28 10.44,-1.97 0.12,0.06 0.23,0.08 0.34,0.13 -1.79,0.9 -3.17,2.57 -5.28,2.81 -0.83,0.09 -1.85,0.21 -2.63,0.53 -0.64,-0.13 -2.55,0.27 -3,0.28 -2.27,0.34 -4.7,0.99 -6.5,2.44 -1.26,1.74 -2.9,3.08 -4.88,3.94 -2.67,1.45 -5.6,2.57 -8.66,2.72 -1.57,0.68 -2.47,1.17 -3.78,-0.13 -2.28,-0.63 -4.34,-1.82 -6.47,-2.81 -2.03,-0.27 -4.08,-0.36 -6.09,-0.91 -1.82,0.2 -3.72,0.61 -5.59,0.16 -3.59,-0.37 -7.33,-0.44 -10.72,-1.81 -1.79,-1.87 -4.45,-1.13 -6.75,-1.16 -1.97,-0.42 -3.96,1.4 -3.34,3.41 0.03,1.19 -1.86,-1.57 -3.19,-1.13 1.82,-3.14 -1.03,-5.44 -2.84,-7.69 -1.07,-2.07 -3.58,-4.19 -2.53,-6.72 1.49,-0.46 1.59,-1.77 2.81,-2.53 0.64,-1.58 -0.91,-6.17 -3.88,-5.59 -2.22,-0.46 -4.6,-0.57 -6.75,0.28 -0.7,2.48 -3.39,2.48 -5.44,2.63 -3.16,0.33 -5.73,-2.16 -9.06,-2.06 -1.72,-0.12 -2.65,-2.59 -4.5,-1.56 -0.6,-0.28 -1.01,-1.03 -1.69,-1.09 l 0,-0.03 c -0.1,-0.01 -0.2,0.01 -0.31,0.03 -2.07,1.53 -0.37,4.37 2,4.31 2.23,1.05 2.23,4.3 1.5,6.31 -2.49,1.68 -0.73,3.58 0.41,5.38 0.96,2.16 0.93,4.77 1.5,7.06 2.08,-0.34 2.6,2.06 4.31,3 0.39,-2.34 1.97,0.49 0.34,0.84 1.8,1.66 2.22,4.31 3.28,6.44 1.02,-0.52 2.96,-1.19 3.44,0.25 -3.06,-1.2 -2.53,3.85 -1.06,4.84 0.73,1.01 -2.29,2.18 -0.88,4 0.9,1.35 -0.83,3.99 1.22,4.78 -0.29,-1.98 3.58,-1.34 2.47,-0.94 -2.19,-0.32 -2.42,4.49 -0.94,5.53 -1.49,1.88 -0.81,4.79 -2.53,6.75 2.86,1.4 0.28,5.39 2.63,7.16 1.57,2.06 3.28,4.7 6.22,4.41 1.27,0.62 2.97,2.16 0.44,1.47 -2.01,-0.05 -3.98,1.29 -6.03,0.56 -1.76,-0.81 -2.47,0.59 -0.91,1.63 1.59,2.18 0.86,5.02 2.72,7.12 1.82,0.95 4.55,4.48 6.47,1.53 1.1,-1.94 3.71,-1.76 4.13,-4.25 2.92,-0.15 5.6,1.84 8.56,2.03 1.72,0.13 4.33,2.58 5.31,-0.25 1.6,-0.43 2.17,1.64 4.63,0.78 1.35,0.03 1.31,2.39 2.78,2.84 1.25,-0.81 1.25,2.87 2.91,0.84 -0.34,-1.52 0.41,-2.15 1.78,-1.59 1.44,-1.68 1.56,0.19 2.09,1.19 1.94,-0.76 4.28,-1.38 5.81,-3.09 1.96,-0.76 5.17,-1.36 7.31,0.56 0.86,-1.55 2.64,-2.22 3.84,-1.53 2.19,-0.69 -0.32,-3.61 2.41,-3.25 1.22,0.63 4.83,2.18 2.66,3.66 0.42,2.11 1.42,5 4.16,3.63 2.64,-0.54 -0.68,6.29 2.44,4 1.37,-0.32 3.43,2.21 3.94,-0.5 1.52,-1.02 2.55,-2.1 3.94,-2.88 0.13,-1.39 3.5,-1.75 5.06,-2.47 2.07,-0.26 4.59,1.16 5.28,3.16 -0.06,2.06 0.38,4.02 0.44,6.06 0.3,2.62 4.16,1.96 5.31,3.19 -0.15,2.4 3.74,4.17 5.78,2.94 2.1,-2.41 3.28,1.6 4.31,2.97 0.79,2.77 5.5,0.5 4.25,-1.69 -2.11,-1.04 0.14,-4.68 -2.47,-4.47 -0.11,-2.74 2.48,-3.47 4.63,-3.75 2.4,-0.8 4.73,-4.05 4.38,-5.91 -2.6,-1.75 2.03,-5.1 -1.28,-6.03 0.58,-2.87 -4.21,-1.68 -4.03,-4.59 -1.43,-0.4 -0.87,-3.36 -1.31,-4.59 1.17,-0.26 2.31,-1.04 2.63,-2.13 0.83,-1.86 3.06,0.75 4.25,-1.28 1.94,0.28 3.17,-1.23 4.75,-2.06 1.61,0.81 2.92,-0.26 2.44,-1.91 1.47,-0.48 2.17,1.45 3.91,1.19 2.24,-0.19 5.23,1.16 7.19,-0.97 1.37,-1.08 -1.66,-3.52 0.97,-4.19 1.41,-1.51 5.16,-1.7 3.31,-4.59 -1.33,-2.09 3.37,-1.11 1.81,-3.13 1.16,-1.54 -0.11,-0.87 -1.16,-1.03 -0.43,-1.14 0.79,-2.47 -0.66,-3.59 -0.98,-1.38 0.17,-2.29 1.41,-1.59 1.25,-0.64 0.95,-2.16 2.41,-1.03 2.27,-0.15 3.98,-1.17 4.72,-3.38 1.38,-2.46 0.92,-5.49 2.69,-7.81 -0.2,-2.14 2.83,-2.48 3.56,-0.75 1.77,-0.54 0.57,-2.61 -0.28,-3.25 0.01,-7.53 -6.31,-5.19 -0.03,-11.56 1.4,-1.6 -0.11,-2.95 -1.28,-1.25 -2.63,-0.14 1.22,-2.56 -0.91,-3.41 0.87,-1.65 -2.2,-1.66 -1,-2.97 -0.44,-1.5 1.55,-2.17 0.03,-3.66 0.3,-0.9 3.07,-3.11 1.44,-3.25 -0.65,1.38 -2.98,0.6 -1.41,-0.63 0.63,-1.59 1.4,-2.89 2.66,-3.78 1.98,-0.19 -1.74,-2.75 -1.53,-4.38 -0.55,-2.02 -0.55,-4.33 -2.5,-5.63 -1.72,-1.41 -3.84,-2.18 -5.03,-4.19 -1.56,-1.57 -3.44,-2.86 -5,-4.38 -0.11,-0.69 0.28,-2 -0.94,-1.75 z" />
</svg>
