<svg width="500" height="422"><polygon points="349,409 347,409 344,409 342,408 342,407 341,405 342,404 341,404 342,403 348,402 349,400 350,399 350,399 348,398 349,397 348,396 347,396 346,395 346,392 344,390 342,388 345,386 344,386 344,382 344,382 345,380 346,381 347,380 346,379 347,378 346,376 347,375 347,374 346,374 345,372 343,373 343,372 341,371 339,370 339,369 339,368 341,368 340,367 341,367 342,366 339,365 338,363 336,363 335,363 333,363 331,362 332,360 331,360 330,359 330,360 329,359 328,359 327,357 327,356 332,355 332,354 334,354 334,353 334,352 335,352 335,351 333,349 333,349 332,348 332,348 330,347 328,347 324,343 323,342 326,343 328,343 328,342 329,342 332,339 330,337 334,336 335,335 337,335 339,334 342,330 340,329 337,329 334,330 328,326 328,323 330,323 330,322 331,321 331,320 332,319 332,318 331,318 334,316 332,314 330,313 330,312 329,312 329,311 327,311 326,310 325,309 325,309 322,309 321,308 322,308 323,306 323,305 325,304 325,302 324,300 325,299 324,298 320,299 321,300 321,300 320,300 320,300 317,300 317,298 319,298 316,297 316,296 317,295 316,295 315,295 312,296 312,296 311,295 311,295 308,297 306,298 304,298 304,299 301,298 299,299 298,299 297,299 292,298 288,296 285,296 285,296 283,296 283,295 281,295 280,294 281,293 285,291 286,290 286,289 286,289 288,287 291,287 290,283 290,280 292,280 292,279 295,281 296,282 299,281 299,281 301,281 302,280 303,277 302,276 299,275 299,274 304,273 304,272 304,271 307,268 308,269 313,271 316,273 318,272 319,272 321,273 321,272 327,270 329,269 332,269 334,269 335,270 338,270 339,269 339,268 340,267 342,267 342,267 341,264 340,264 339,264 339,263 338,263 338,262 337,262 337,261 336,261 337,260 336,259 335,255 332,256 333,252 335,249 335,247 339,250 347,244 350,250 354,249 356,248 357,244 356,242 355,242 356,241 356,240 355,239 356,238 356,237 357,236 355,235 352,235 349,236 348,236 351,232 351,231 348,226 337,226 337,225 337,223 337,222 336,221 337,221 339,220 341,218 343,218 349,217 354,215 355,215 357,215 364,213 364,214 366,215 369,217 372,217 375,219 375,220 376,219 377,220 378,219 379,220 381,219 381,219 382,218 388,216 390,217 390,219 394,221 396,222 396,223 399,223 401,222 402,223 405,222 408,223 409,223 410,225 411,225 413,225 415,226 417,228 416,230 418,231 419,231 420,232 421,232 423,233 423,236 424,236 423,236 425,237 428,237 431,236 433,236 433,235 434,235 435,234 434,234 435,233 434,232 435,231 434,231 435,229 435,228 436,228 437,230 438,230 441,230 442,231 443,231 444,232 444,232 445,232 444,233 445,233 446,233 445,235 447,235 448,235 451,235 453,232 459,231 461,233 462,234 462,237 463,238 465,239 466,241 466,241 468,244 468,245 466,247 466,249 466,250 463,252 461,256 460,258 458,260 458,261 459,261 459,262 459,263 460,264 463,265 465,265 467,267 469,269 474,272 476,273 476,274 475,278 476,280 478,282 479,283 482,290 482,290 482,293 483,294 484,295 484,298 484,298 484,301 483,303 482,304 483,305 483,306 484,306 484,306 486,306 486,307 488,308 489,308 489,307 490,308 492,311 491,311 491,314 490,315 489,319 491,321 492,322 492,323 490,326 490,326 487,330 487,331 489,332 489,334 490,336 490,338 490,340 488,342 489,343 489,344 486,346 486,347 485,348 484,349 483,349 482,348 478,349 476,348 473,347 472,348 471,349 471,350 470,350 470,349 469,349 469,349 468,349 465,350 464,350 465,351 463,352 459,353 459,354 457,355 454,357 454,360 452,360 451,359 448,359 445,359 444,360 444,361 442,361 442,361 440,362 439,361 439,360 437,360 437,359 436,358 437,358 436,357 435,356 434,357 433,358 433,357 431,358 431,359 430,360 431,360 431,361 431,361 431,361 430,361 429,361 429,361 428,361 428,362 426,363 427,364 423,365 422,366 421,366 421,366 420,366 419,366 418,366 417,368 418,369 419,368 420,369 419,371 418,371 417,371 415,371 415,369 414,370 413,370 409,371 409,372 413,373 413,375 413,376 412,376 412,378 409,379 410,379 411,382 413,382 413,381 415,381 415,382 413,382 415,383 414,384 415,385 415,386 415,386 415,387 416,387 416,388 416,388 416,388 410,391 410,391 405,393 404,394 404,394 403,393 403,392 402,392 401,392 400,392 400,393 397,393 397,391 395,392 393,393 391,393 390,394 389,394 388,393 386,393 385,393 384,394 379,394 377,394 376,394 374,395 371,397 370,398 369,399 370,400 370,401 368,402 366,401 363,405 363,407 362,409 362,410 360,409 358,409 358,409 356,409 354,410 354,409 353,409 349,409" id="18" class="departement" geotype="departement" geoname="Cher" code_insee="18" code_region="24" style="fill:steelblue;stroke:white;stroke-width:1"/><polygon points="217,156 215,158 214,160 213,160 213,160 210,159 210,160 208,160 204,160 203,160 203,159 203,158 200,159 198,159 197,159 197,159 197,159 196,159 196,158 196,157 194,157 190,157 188,158 186,158 186,158 185,158 187,157 186,156 185,156 184,153 182,152 181,152 181,151 180,150 180,150 181,150 181,149 180,148 177,148 176,147 174,147 173,146 173,144 171,143 172,142 172,141 173,141 172,140 171,140 165,141 165,139 159,139 158,139 155,140 155,139 154,139 152,137 155,136 161,134 162,133 161,133 160,132 159,131 156,131 153,132 153,133 151,134 148,136 147,136 147,137 145,137 145,136 145,135 143,135 139,136 136,136 134,136 135,135 134,135 128,136 130,133 130,131 132,131 133,132 133,131 134,131 135,131 140,131 140,130 139,130 139,129 139,129 135,127 133,127 131,126 130,126 129,126 128,126 127,126 126,125 125,124 125,124 124,124 123,123 121,122 121,121 123,121 122,120 124,120 125,119 126,119 125,117 124,115 123,115 122,113 122,112 119,110 120,110 119,109 120,107 123,106 120,105 118,104 117,104 117,104 116,104 115,105 114,104 115,103 115,103 117,102 116,101 118,99 119,99 119,98 119,98 122,97 123,96 124,96 126,97 126,97 128,97 128,96 128,96 128,96 130,96 131,96 133,95 134,95 135,95 137,93 138,92 139,93 140,92 140,91 141,92 141,91 142,91 142,89 144,88 146,88 145,86 145,85 146,85 147,84 150,82 150,81 149,81 147,81 145,79 144,79 144,77 143,76 147,75 147,73 146,73 144,72 147,71 149,68 146,67 145,67 143,66 141,66 144,64 142,62 142,62 139,61 137,60 134,60 133,60 130,58 129,58 129,54 128,54 126,54 125,54 124,54 124,53 126,50 125,50 125,47 124,47 124,46 123,45 124,44 126,42 128,43 130,42 132,41 131,40 133,39 132,39 134,37 136,36 138,37 139,37 139,38 141,37 141,38 144,37 145,37 147,36 148,35 150,34 151,35 154,35 157,35 157,34 159,35 160,34 159,34 160,33 161,32 162,31 164,30 165,30 165,31 167,31 168,30 168,31 169,30 169,31 170,31 170,30 171,31 172,31 172,32 172,31 173,30 173,29 174,28 175,29 173,28 174,28 173,25 174,25 176,25 179,25 178,27 180,28 180,28 180,28 184,27 188,28 190,30 192,29 190,29 190,28 194,28 196,29 195,30 197,30 198,29 199,29 202,28 205,29 205,29 206,29 208,29 209,28 212,26 213,26 213,26 215,26 215,24 214,23 214,22 213,22 212,20 212,20 212,18 213,17 217,15 219,14 220,13 223,13 224,12 225,12 227,12 228,11 230,10 230,8 231,7 229,7 229,5 228,5 229,4 227,3 229,2 229,1 232,0 234,1 235,0 237,1 236,2 238,3 238,3 240,3 241,3 242,4 242,4 243,5 241,6 244,8 246,8 245,10 244,10 243,11 243,12 245,13 245,12 247,13 249,13 248,16 249,16 251,17 250,17 248,18 250,20 250,21 248,21 249,22 248,22 248,23 248,24 248,24 247,24 248,26 249,27 249,28 248,29 249,29 249,29 253,29 256,31 255,33 255,33 254,33 250,37 249,38 251,38 248,39 249,39 249,40 250,40 251,40 253,41 252,43 252,43 253,44 252,44 252,45 253,46 255,47 255,47 257,48 258,47 259,48 258,48 260,49 259,50 261,51 260,52 262,53 262,53 263,53 265,52 266,53 265,53 266,54 266,53 268,54 270,53 271,54 268,58 269,58 269,59 272,60 273,59 274,60 275,60 276,59 277,59 278,60 278,61 280,63 282,63 280,67 280,70 281,70 281,72 282,72 282,72 282,73 283,74 283,75 283,75 283,75 285,76 284,77 286,77 290,77 290,79 290,79 291,80 291,80 293,80 294,81 296,81 297,81 298,81 301,82 301,81 304,80 304,79 305,79 305,79 305,79 305,80 306,80 306,81 307,81 306,82 307,82 306,83 307,84 307,85 305,85 305,85 305,85 304,86 306,86 305,87 305,87 308,87 310,87 313,88 313,88 312,89 312,90 311,91 313,91 314,92 313,93 314,93 314,94 312,95 312,97 311,97 314,100 312,100 313,101 313,102 312,102 312,102 310,103 310,104 311,105 312,105 312,105 313,105 314,105 313,105 312,105 312,106 315,106 314,109 313,110 311,111 310,113 310,114 311,114 310,114 311,114 311,115 310,117 311,117 312,119 313,120 312,122 310,121 311,120 310,120 309,121 309,121 309,122 311,123 311,123 312,123 312,124 312,125 311,125 309,124 308,125 308,125 307,126 304,125 303,126 303,126 302,127 301,128 301,129 301,129 304,129 302,132 301,132 300,132 299,136 298,137 296,137 295,138 295,138 295,139 292,139 291,138 290,139 290,140 289,140 289,140 284,139 284,139 284,141 282,140 281,141 281,140 279,142 279,141 278,142 278,141 277,142 276,142 275,143 274,142 274,142 272,142 271,142 270,142 269,142 266,140 264,142 264,142 263,143 262,142 263,142 262,141 262,141 261,141 259,142 258,141 257,142 255,142 255,143 255,144 254,145 255,145 254,145 255,146 253,146 253,146 251,146 251,148 249,148 249,148 246,147 243,146 242,147 244,147 243,148 239,147 238,148 237,148 238,150 238,151 239,151 240,152 238,154 239,154 238,155 239,156 238,156 238,155 238,156 237,156 236,155 235,155 234,155 232,153 228,152 225,151 224,152 225,152 224,153 225,154 225,155 225,156 225,157 220,158 218,157 218,156 217,156" id="28" class="departement" geotype="departement" geoname="Eure-et-Loir" code_insee="28" code_region="24" style="fill:steelblue;stroke:white;stroke-width:1"/><polygon points="331,411 331,411 329,411 329,410 327,410 324,410 321,409 320,408 315,408 315,407 315,408 313,406 313,407 309,407 307,408 305,408 304,408 304,407 303,406 302,406 301,407 300,407 300,407 299,406 298,406 298,408 298,408 293,408 291,408 291,409 290,409 289,408 288,409 287,408 287,407 285,406 284,404 282,405 282,404 275,405 276,405 277,407 277,407 277,409 276,411 276,412 274,413 272,415 270,414 269,414 268,414 268,413 267,413 268,413 268,412 266,412 265,410 262,412 260,414 258,416 257,415 256,415 256,414 255,414 255,413 254,413 254,412 255,410 255,410 253,410 253,409 251,410 251,412 250,412 248,411 247,412 245,413 244,414 243,414 242,410 241,410 241,409 239,409 237,410 237,411 235,412 235,413 235,414 234,413 232,414 231,416 230,416 230,416 230,417 230,417 228,417 226,417 226,419 225,419 225,420 223,421 221,422 221,421 220,419 219,418 218,418 218,418 218,418 216,417 215,416 213,414 212,413 211,413 210,413 209,413 205,414 205,414 206,414 206,415 206,416 204,416 204,416 205,417 203,418 201,417 200,418 199,417 196,417 195,417 193,419 190,419 190,418 190,419 189,419 188,417 189,416 189,415 188,415 187,415 185,416 185,417 184,417 183,416 186,413 185,412 185,412 189,408 187,408 187,408 184,409 184,408 184,406 181,406 178,405 176,402 180,402 177,399 176,397 177,397 178,397 174,393 171,392 169,391 167,391 165,390 162,391 157,391 158,389 157,386 156,386 152,386 151,386 152,386 151,385 150,385 148,385 147,384 144,384 143,383 144,382 140,381 139,379 139,378 138,378 139,377 138,377 138,377 137,376 137,375 139,373 139,373 141,372 139,370 140,369 139,368 138,368 140,366 142,366 142,364 140,363 140,362 139,361 140,360 138,359 138,358 137,359 135,358 134,358 134,358 132,356 135,355 137,355 138,356 139,355 140,355 142,355 143,355 145,358 145,358 147,358 148,357 151,355 151,354 156,355 155,353 154,351 155,350 155,349 152,348 151,348 153,347 154,346 155,346 156,346 155,344 155,342 156,341 158,341 157,339 158,338 158,335 158,335 159,331 160,325 161,324 164,324 163,323 164,323 164,320 162,319 163,318 163,316 166,315 165,315 166,314 167,313 168,312 168,312 169,312 172,311 173,312 175,311 180,309 183,309 185,310 186,311 187,311 190,312 192,313 194,312 195,312 198,310 199,309 199,308 198,308 200,307 201,305 201,304 203,304 204,304 205,304 205,302 204,300 206,299 207,298 208,299 209,299 212,298 213,296 213,295 213,294 211,291 210,287 207,285 209,284 211,284 218,282 220,280 222,278 227,277 231,277 234,277 234,278 235,278 236,277 239,279 240,280 241,280 241,278 239,276 240,275 239,274 245,273 250,274 250,271 253,271 254,271 255,271 256,271 258,271 259,271 260,271 260,272 259,273 262,274 263,273 264,273 265,273 268,273 269,272 270,271 276,275 280,278 281,278 282,278 283,277 286,278 288,279 290,280 290,283 291,287 288,287 286,289 286,289 286,290 285,291 281,293 280,294 281,295 283,295 283,296 285,296 285,296 288,296 292,298 297,299 298,299 299,299 301,298 304,299 304,298 306,298 308,297 311,295 311,295 312,296 312,296 315,295 316,295 317,295 316,296 316,297 319,298 317,298 317,300 320,300 320,300 321,300 321,300 320,299 324,298 325,299 324,300 325,302 325,304 323,305 323,306 322,308 321,308 322,309 325,309 325,309 326,310 327,311 329,311 329,312 330,312 330,313 332,314 334,316 331,318 332,318 332,319 331,320 331,321 330,322 330,323 328,323 328,326 334,330 337,329 340,329 342,330 339,334 337,335 335,335 334,336 330,337 332,339 329,342 328,342 328,343 326,343 323,342 324,343 328,347 330,347 332,348 332,348 333,349 333,349 335,351 335,352 334,352 334,353 334,354 332,354 332,355 327,356 327,357 328,359 329,359 330,360 330,359 331,360 332,360 331,362 333,363 335,363 336,363 338,363 339,365 342,366 341,367 340,367 341,368 339,368 339,369 339,370 341,371 343,372 343,373 345,372 346,374 347,374 347,375 346,376 347,378 346,379 347,380 346,381 345,380 344,382 344,382 344,386 345,386 342,388 344,390 346,392 346,395 347,396 348,396 349,397 348,398 350,399 350,399 349,400 348,402 342,403 341,404 342,404 341,405 342,407 342,408 344,409 343,410 340,409 339,410 337,410 335,410 333,412 331,411" id="36" class="departement" geotype="departement" geoname="Indre" code_insee="36" code_region="24" style="fill:steelblue;stroke:white;stroke-width:1"/><polygon points="64,325 63,327 59,326 57,326 54,325 54,325 51,324 50,324 48,326 47,326 44,327 42,326 41,323 40,323 41,322 40,320 41,319 41,319 41,318 40,318 39,317 41,317 42,316 41,316 41,315 41,314 40,312 40,312 41,312 42,311 41,309 42,308 41,307 40,307 37,308 35,308 35,309 34,308 35,308 34,307 34,307 35,305 31,304 30,305 30,304 29,305 28,306 25,307 23,305 22,306 20,306 20,304 24,301 21,299 21,297 18,298 18,299 15,298 13,298 13,297 14,295 12,296 11,295 9,295 9,294 9,295 9,295 8,295 8,296 6,296 5,296 4,295 5,294 4,292 2,292 2,292 2,292 1,290 0,289 0,289 2,287 2,285 0,284 0,283 1,282 2,281 2,281 3,281 4,280 3,280 3,277 2,275 3,275 4,275 3,273 4,272 4,271 6,271 6,270 4,269 7,266 7,266 7,265 10,264 11,263 10,262 14,261 15,259 14,257 16,256 21,254 20,253 18,253 19,251 16,251 17,250 18,250 20,248 21,248 21,246 21,242 22,241 23,238 24,238 24,237 27,234 27,231 28,231 28,230 27,230 26,230 24,230 25,229 23,228 24,228 25,225 25,224 26,223 26,222 28,222 29,222 29,221 29,220 29,217 29,216 33,216 35,217 35,218 36,218 44,219 46,221 46,221 50,222 53,223 55,222 57,222 56,220 56,219 54,216 52,216 51,215 51,214 53,212 54,211 56,211 58,213 58,214 59,214 60,215 61,215 64,215 66,213 65,213 66,211 69,210 69,211 72,211 72,210 72,211 75,209 76,209 79,209 80,209 81,208 82,207 82,207 85,207 88,206 89,205 90,205 90,205 91,205 92,203 92,203 91,203 92,202 93,201 95,200 96,202 98,202 97,203 96,204 98,204 101,202 104,204 107,205 108,203 109,203 111,202 114,203 114,203 117,204 118,204 120,205 122,205 123,205 126,206 127,206 129,205 131,204 132,203 132,203 132,204 131,204 131,205 131,206 131,207 130,208 128,211 129,211 131,212 132,213 131,214 130,214 130,216 131,216 131,218 132,218 137,217 138,217 137,217 136,216 137,216 138,216 138,215 138,216 139,215 138,215 140,214 140,213 141,213 144,213 146,214 148,213 149,214 153,215 151,216 152,217 151,217 152,218 152,220 153,220 153,221 154,221 155,220 156,218 156,217 158,217 159,217 164,222 164,224 166,223 166,223 167,224 162,228 161,228 162,228 161,229 163,230 163,230 165,231 165,232 166,232 165,233 167,235 167,236 169,239 169,240 168,240 168,240 172,240 174,242 176,243 172,246 171,245 169,246 168,246 170,247 170,248 171,248 172,249 172,251 174,252 173,253 174,253 172,254 171,255 171,256 173,257 174,258 172,259 173,259 171,261 171,262 169,262 170,265 171,267 174,268 175,267 175,268 175,268 177,269 180,271 182,269 184,269 185,269 185,270 187,269 189,269 189,268 190,268 193,269 193,269 193,270 193,271 196,273 196,273 197,274 199,274 199,275 201,276 202,277 203,280 206,284 207,285 210,287 211,291 213,294 213,295 213,296 212,298 209,299 208,299 207,298 206,299 204,300 205,302 205,304 204,304 203,304 201,304 201,305 200,307 198,308 199,308 199,309 198,310 195,312 194,312 192,313 190,312 187,311 186,311 185,310 183,309 180,309 175,311 173,312 172,311 169,312 168,312 168,312 167,313 166,314 165,315 166,315 163,316 163,318 162,319 164,320 164,323 163,323 164,324 161,324 160,325 159,331 158,335 158,335 158,338 157,339 158,341 156,341 155,342 155,344 156,346 155,346 154,346 153,347 151,348 152,348 155,349 155,350 154,351 155,353 156,355 151,354 151,355 148,357 147,358 145,358 145,358 143,355 142,355 140,355 139,355 138,356 137,355 135,355 132,356 131,355 131,355 129,354 128,353 126,352 126,350 124,350 123,348 124,347 123,347 123,346 123,346 123,343 122,343 121,343 119,342 119,341 121,340 120,340 116,340 116,339 117,338 117,338 116,337 114,338 112,336 111,336 110,335 106,331 106,330 107,329 106,328 106,326 104,322 104,322 104,320 99,319 98,318 97,317 95,318 93,317 92,316 93,315 92,314 87,315 85,315 84,315 84,315 85,317 85,318 85,319 88,319 89,320 89,322 89,323 83,323 81,322 79,322 77,323 76,322 75,323 73,322 73,323 71,323 64,325" id="37" class="departement" geotype="departement" geoname="Indre-et-Loire" code_insee="37" code_region="24" style="fill:steelblue;stroke:white;stroke-width:1"/><polygon points="123,205 122,205 120,205 118,204 117,204 114,203 114,203 111,202 109,203 108,203 107,205 104,204 101,202 98,204 96,204 97,203 98,202 96,202 95,200 93,201 92,202 91,203 90,204 88,204 88,203 88,201 86,200 88,198 90,198 91,197 91,197 92,196 92,194 93,193 95,193 97,193 97,193 101,191 102,190 104,191 105,191 106,191 106,190 103,189 104,188 105,187 107,188 107,187 107,187 108,187 109,186 109,186 111,184 112,184 111,183 113,181 114,181 115,180 115,180 116,180 117,179 117,179 117,177 115,176 116,175 114,172 115,170 116,169 117,168 120,167 121,168 120,169 123,171 124,171 124,170 124,170 123,169 124,169 123,168 124,167 123,167 124,166 123,165 124,164 127,163 129,163 129,160 127,159 127,158 126,157 125,156 124,155 126,154 127,153 127,152 127,152 127,152 127,150 128,150 128,149 128,148 128,147 126,148 126,148 124,148 123,148 122,147 121,147 120,145 121,143 120,142 122,141 127,142 128,141 129,139 129,139 129,138 129,138 128,138 128,138 128,139 126,138 126,138 123,138 124,137 127,137 128,136 134,135 135,135 134,136 136,136 139,136 143,135 145,135 145,136 145,137 147,137 147,136 148,136 151,134 153,133 153,132 156,131 159,131 160,132 161,133 162,133 161,134 155,136 152,137 154,139 155,139 155,140 158,139 159,139 165,139 165,141 171,140 172,140 173,141 172,141 172,142 171,143 173,144 173,146 174,147 176,147 177,148 180,148 181,149 181,150 180,150 180,150 181,151 181,152 182,152 184,153 185,156 186,156 187,157 185,158 186,158 186,158 188,158 190,157 194,157 196,157 196,158 196,159 197,159 197,159 197,159 198,159 200,159 203,158 203,159 203,160 204,160 208,160 210,160 210,159 213,160 213,160 214,160 215,158 217,156 218,156 218,157 220,158 225,157 225,156 225,155 225,154 224,153 225,152 224,152 225,151 228,152 232,153 234,155 235,155 236,155 237,156 238,156 238,155 238,156 240,156 242,155 243,155 244,154 245,155 246,155 246,157 245,158 244,158 244,158 243,159 243,160 244,160 244,161 241,161 239,162 240,163 239,164 239,165 244,166 248,169 248,169 247,170 249,170 248,171 249,172 249,172 250,173 249,174 249,174 248,174 245,178 244,178 243,178 243,179 243,179 241,179 241,179 241,179 241,179 241,180 241,180 240,181 241,181 240,182 240,182 241,182 242,183 245,185 245,185 245,186 246,185 247,186 245,187 247,188 243,190 252,195 249,197 249,197 252,197 254,195 256,192 261,194 264,195 266,195 269,196 270,196 270,198 272,202 271,202 272,204 273,205 273,205 274,207 274,208 275,209 281,210 280,211 283,212 284,212 285,210 286,209 287,210 289,209 291,209 291,207 291,207 291,206 291,204 293,203 294,203 295,204 294,204 294,205 295,206 295,206 296,205 296,206 297,205 298,206 298,205 301,206 301,206 303,206 303,206 304,206 304,205 306,205 307,206 307,206 307,206 306,207 306,207 306,207 307,207 307,208 309,208 311,209 312,208 314,207 314,207 314,208 316,208 316,207 317,207 316,206 318,206 318,205 321,206 324,205 327,206 328,205 329,205 331,205 333,205 334,206 334,206 335,207 335,206 337,205 339,205 341,207 342,206 344,207 346,206 350,205 350,206 350,208 351,208 351,207 352,207 356,211 355,215 354,215 349,217 343,218 341,218 339,220 337,221 336,221 337,222 337,223 337,225 337,226 348,226 351,231 351,232 348,236 349,236 352,235 355,235 357,236 356,237 356,238 355,239 356,240 356,241 355,242 356,242 357,244 356,248 354,249 350,250 347,244 339,250 335,247 335,249 333,252 332,256 335,255 336,259 337,260 336,261 337,261 337,262 338,262 338,263 339,263 339,264 340,264 341,264 342,267 342,267 340,267 339,268 339,269 338,270 335,270 334,269 332,269 329,269 327,270 321,272 321,273 319,272 318,272 316,273 313,271 308,269 307,268 304,271 304,272 304,273 299,274 299,275 302,276 303,277 302,280 301,281 299,281 299,281 296,282 295,281 292,279 292,280 290,280 288,279 286,278 283,277 282,278 281,278 280,278 276,275 270,271 269,272 268,273 265,273 264,273 263,273 262,274 259,273 260,272 260,271 259,271 258,271 256,271 255,271 254,271 253,271 250,271 250,274 245,273 239,274 240,275 239,276 241,278 241,280 240,280 239,279 236,277 235,278 234,278 234,277 231,277 227,277 222,278 220,280 218,282 211,284 209,284 207,285 206,284 203,280 202,277 201,276 199,275 199,274 197,274 196,273 196,273 193,271 193,270 193,269 193,269 190,268 189,268 189,269 187,269 185,270 185,269 184,269 182,269 180,271 177,269 175,268 175,268 175,267 174,268 171,267 170,265 169,262 171,262 171,261 173,259 172,259 174,258 173,257 171,256 171,255 172,254 174,253 173,253 174,252 172,251 172,249 171,248 170,248 170,247 168,246 169,246 171,245 172,246 176,243 174,242 172,240 168,240 168,240 169,240 169,239 167,236 167,235 165,233 166,232 165,232 165,231 163,230 163,230 161,229 162,228 161,228 162,228 167,224 166,223 166,223 164,224 164,222 159,217 158,217 156,217 156,218 155,220 154,221 153,221 153,220 152,220 152,218 151,217 152,217 151,216 153,215 149,214 148,213 146,214 144,213 141,213 140,213 140,214 138,215 139,215 138,216 138,215 138,216 137,216 136,216 137,217 138,217 137,217 132,218 131,218 131,216 130,216 130,214 131,214 132,213 131,212 129,211 128,211 130,208 131,207 131,206 131,205 131,204 132,204 132,203 132,203 131,204 129,205 127,206 126,206 123,205" id="41" class="departement" geotype="departement" geoname="Loir-et-Cher" code_insee="41" code_region="24" style="fill:steelblue;stroke:white;stroke-width:1"/><polygon points="425,237 423,236 424,236 423,236 423,233 421,232 420,232 419,231 418,231 416,230 417,228 415,226 413,225 411,225 410,225 409,223 408,223 405,222 402,223 401,222 399,223 396,223 396,222 394,221 390,219 390,217 388,216 382,218 381,219 381,219 379,220 378,219 377,220 376,219 375,220 375,219 372,217 369,217 366,215 364,214 364,213 357,215 355,215 356,211 352,207 351,207 351,208 350,208 350,206 350,205 346,206 344,207 342,206 341,207 339,205 337,205 335,206 335,207 334,206 334,206 333,205 331,205 329,205 328,205 327,206 324,205 321,206 318,205 318,206 316,206 317,207 316,207 316,208 314,208 314,207 314,207 312,208 311,209 309,208 307,208 307,207 306,207 306,207 306,207 307,206 307,206 307,206 306,205 304,205 304,206 303,206 303,206 301,206 301,206 298,205 298,206 297,205 296,206 296,205 295,206 295,206 294,205 294,204 295,204 294,203 293,203 291,204 291,206 291,207 291,207 291,209 289,209 287,210 286,209 285,210 284,212 283,212 280,211 281,210 275,209 274,208 274,207 273,205 273,205 272,204 271,202 272,202 270,198 270,196 269,196 266,195 264,195 261,194 256,192 254,195 252,197 249,197 249,197 252,195 243,190 247,188 245,187 247,186 246,185 245,186 245,185 245,185 242,183 241,182 240,182 240,182 241,181 240,181 241,180 241,180 241,179 241,179 241,179 241,179 243,179 243,179 243,178 244,178 245,178 248,174 249,174 249,174 250,173 249,172 249,172 248,171 249,170 247,170 248,169 248,169 244,166 239,165 239,164 240,163 239,162 241,161 244,161 244,160 243,160 243,159 244,158 244,158 245,158 246,157 246,155 245,155 244,154 243,155 242,155 240,156 238,156 239,156 238,155 239,154 238,154 240,152 239,151 238,151 238,150 237,148 238,148 239,147 243,148 244,147 242,147 243,146 246,147 249,148 249,148 251,148 251,146 253,146 253,146 255,146 254,145 255,145 254,145 255,144 255,143 255,142 257,142 258,141 259,142 261,141 262,141 262,141 263,142 262,142 263,143 264,142 264,142 266,140 269,142 270,142 271,142 272,142 274,142 274,142 275,143 276,142 277,142 278,141 278,142 279,141 279,142 281,140 281,141 282,140 284,141 284,139 284,139 289,140 289,140 290,140 290,139 291,138 292,139 295,139 295,138 295,138 296,137 298,137 299,136 300,132 301,132 302,132 304,129 301,129 301,129 301,128 302,127 303,126 303,126 304,125 307,126 308,125 308,125 309,124 311,125 312,125 312,124 312,123 311,123 311,123 309,122 309,121 309,121 310,120 311,120 310,121 312,122 313,120 312,119 311,117 310,117 311,115 311,114 310,114 311,114 310,114 310,113 311,111 313,110 314,109 315,106 318,107 321,106 323,106 323,107 325,106 325,105 331,105 331,104 333,103 335,103 334,105 343,104 343,104 343,103 342,104 341,103 341,102 344,102 344,102 346,102 346,102 347,101 346,101 346,100 347,100 347,99 349,98 350,97 349,97 350,97 350,97 351,98 352,99 353,98 354,100 355,99 356,99 356,99 357,99 355,102 358,102 357,103 356,105 358,104 360,102 361,102 363,102 365,103 365,102 366,101 367,99 368,99 368,99 369,99 370,99 370,99 370,100 371,100 372,102 373,102 374,103 375,103 376,102 377,103 380,102 381,102 381,102 382,102 381,101 382,101 383,103 385,104 385,106 384,108 385,110 385,110 386,111 388,112 389,111 390,112 392,112 393,112 393,111 394,112 394,113 395,114 399,114 399,116 401,116 400,117 400,118 401,118 401,119 401,119 401,120 401,120 402,121 401,121 400,122 400,122 401,122 399,124 400,125 400,125 401,126 399,128 395,126 394,128 393,128 394,129 392,129 391,131 390,132 389,132 388,133 389,133 390,133 391,133 392,132 393,132 393,132 394,132 396,132 401,133 401,132 404,130 409,130 410,132 415,132 420,130 425,133 425,133 427,133 431,133 431,133 434,131 439,129 439,128 437,127 436,126 439,127 440,127 440,126 441,126 442,127 443,126 445,126 446,126 446,126 447,126 448,126 448,127 446,128 447,129 446,130 446,131 447,132 450,132 450,131 452,131 455,130 457,128 458,128 463,127 469,126 472,126 472,127 473,128 476,129 476,128 478,128 478,129 479,130 480,129 481,129 483,131 484,131 482,134 484,134 485,134 485,137 486,138 487,138 487,139 487,141 489,143 492,143 493,144 495,144 494,145 494,145 494,146 495,146 494,146 499,148 499,148 499,149 498,148 496,149 495,150 496,151 497,151 498,151 499,152 499,153 499,153 499,154 499,154 500,154 499,155 500,156 500,158 500,158 497,159 497,160 496,162 495,161 495,162 495,162 494,162 493,162 492,163 492,164 490,164 489,165 487,165 487,168 485,168 485,167 484,168 483,168 482,168 482,168 481,168 481,169 482,169 481,170 480,170 481,171 480,172 481,172 481,173 478,175 483,176 484,176 483,176 484,177 484,178 485,178 484,180 481,180 481,182 483,183 482,183 483,183 484,185 483,188 479,188 477,188 476,188 473,190 472,190 471,191 469,191 469,192 467,191 465,191 464,191 464,191 463,191 463,192 461,191 458,191 457,192 456,192 455,192 456,194 455,196 455,197 454,198 455,198 454,199 455,199 456,200 459,198 460,200 460,201 459,201 460,201 462,202 463,202 464,203 465,203 466,204 467,205 466,207 467,209 469,209 469,208 470,209 470,209 472,211 469,212 468,214 469,214 468,215 470,217 469,218 470,218 470,219 471,220 472,220 473,220 473,222 473,222 475,222 475,223 473,224 472,225 465,224 464,225 464,225 460,226 459,226 458,227 456,227 456,225 454,227 455,229 459,231 453,232 451,235 448,235 447,235 445,235 446,233 445,233 444,233 445,232 444,232 444,232 443,231 442,231 441,230 438,230 437,230 436,228 435,228 435,229 434,231 435,231 434,232 435,233 434,234 435,234 434,235 433,235 433,236 431,236 428,237 425,237" id="45" class="departement" geotype="departement" geoname="Loiret" code_insee="45" code_region="24" style="fill:steelblue;stroke:white;stroke-width:1"/></svg>