<svg width="500" height="265"><polygon points="362,137 359,137 358,136 358,134 357,133 355,132 355,133 351,135 350,135 347,135 344,137 344,139 343,140 343,141 342,142 338,142 338,142 331,144 332,146 332,146 331,145 330,146 329,145 328,146 328,147 323,149 322,152 321,151 320,152 319,151 316,151 315,152 314,151 313,152 312,150 311,151 312,152 310,153 309,152 308,153 309,154 312,156 308,155 307,155 304,154 304,154 304,154 303,154 302,153 303,153 303,152 300,152 300,152 298,151 297,152 294,151 292,150 290,150 289,150 288,149 286,150 285,149 285,149 283,150 282,150 281,148 277,149 276,151 276,151 277,152 277,152 275,153 274,155 274,155 271,153 271,152 269,153 270,152 269,151 272,151 272,150 271,150 271,150 269,151 268,150 267,150 267,151 266,149 264,148 263,146 260,147 260,147 260,147 261,147 260,146 259,146 259,146 259,146 258,146 259,146 259,147 258,147 258,146 257,146 257,146 256,146 257,147 256,146 255,147 254,146 254,146 254,146 253,147 253,147 252,148 251,148 250,149 248,148 248,149 249,150 249,150 246,151 246,151 245,150 244,150 239,150 237,153 236,153 235,153 234,152 231,152 230,153 226,154 223,154 223,153 223,151 221,152 220,151 219,152 218,151 217,152 216,151 216,150 215,150 213,152 215,154 217,155 213,157 212,158 212,158 211,159 209,159 207,160 204,160 200,161 199,162 197,162 196,164 195,165 193,167 189,167 191,165 193,164 193,163 193,163 191,164 187,165 185,165 184,166 182,166 182,165 180,164 177,164 176,163 177,164 176,164 175,163 173,163 172,162 171,160 169,161 168,161 167,162 167,163 164,162 163,162 161,162 160,163 156,161 155,161 152,163 150,162 148,162 145,160 145,160 147,160 147,159 146,158 145,156 144,156 143,156 142,155 141,156 141,155 140,156 140,155 138,155 138,154 136,155 135,154 135,153 135,152 137,153 138,152 138,151 140,150 141,150 142,149 143,148 144,148 145,146 145,146 147,145 147,146 149,146 149,147 149,146 150,146 151,145 152,145 153,144 154,142 158,141 160,139 160,138 159,137 159,137 159,137 155,138 153,137 151,138 149,138 149,136 151,136 151,136 150,136 151,135 151,134 150,134 153,133 152,132 153,131 154,132 154,131 155,131 157,131 159,132 161,132 163,133 164,133 168,131 170,130 172,130 177,126 178,125 178,122 179,122 180,123 180,122 181,120 184,120 186,120 186,118 185,119 185,118 184,117 182,118 181,117 181,116 183,115 184,113 184,112 184,112 184,111 183,109 183,108 183,107 183,106 183,104 181,104 181,104 175,107 177,105 178,105 179,104 181,103 182,102 180,102 178,102 179,101 178,101 175,100 175,100 174,100 173,99 172,98 174,97 169,97 170,96 171,96 172,96 173,97 175,96 176,94 177,94 177,93 179,93 177,92 178,92 177,92 177,92 181,90 181,89 180,90 179,90 178,88 175,86 175,85 176,85 175,85 175,85 174,85 174,86 174,86 174,87 174,87 173,87 172,87 171,88 172,88 170,89 170,90 168,91 167,92 164,91 164,90 163,90 161,90 161,89 158,89 158,88 157,88 157,87 156,87 156,87 156,86 154,87 154,85 152,86 151,85 149,84 148,83 147,83 147,82 146,83 145,81 145,81 144,81 143,80 143,79 141,79 141,78 140,79 139,78 140,77 139,77 141,77 142,76 140,76 139,75 139,74 138,73 138,71 143,68 142,65 143,65 142,63 147,59 150,58 157,58 159,57 161,57 163,57 164,56 165,57 169,56 175,57 177,58 182,61 186,62 192,63 198,64 203,64 203,64 203,64 203,64 203,64 204,64 203,64 203,65 204,65 204,64 204,65 206,65 210,65 219,65 223,65 226,66 229,66 232,66 235,66 239,65 247,65 253,67 259,67 262,67 265,67 269,68 272,69 275,71 280,73 284,74 285,74 291,74 291,75 291,75 294,76 294,75 304,75 309,75 316,73 318,73 318,74 318,74 320,72 322,72 326,71 331,69 336,67 338,66 342,64 343,63 345,61 346,61 351,58 356,55 359,55 365,53 371,51 380,51 382,51 384,51 384,54 385,56 385,57 386,58 386,58 385,61 386,63 388,65 388,66 389,66 387,68 387,69 386,70 384,71 387,71 387,72 388,73 388,74 386,75 386,76 387,76 389,77 389,76 390,75 392,74 394,74 395,73 396,74 399,75 398,76 399,79 397,79 396,80 395,79 391,81 389,81 388,81 388,82 391,85 394,86 396,87 399,87 399,87 400,88 401,89 399,90 400,91 399,92 400,92 399,93 400,94 400,97 399,98 399,98 400,99 403,99 403,99 405,99 406,99 406,100 407,100 407,100 406,100 406,102 404,102 403,102 403,103 403,104 403,105 402,105 401,107 401,108 403,108 404,108 401,109 402,109 401,109 404,109 404,112 403,111 402,111 400,111 399,112 398,112 398,113 398,114 396,115 396,115 397,116 397,115 398,116 398,116 399,117 398,118 400,118 400,118 403,119 406,119 407,120 407,120 407,120 409,120 409,121 409,121 409,122 408,122 407,124 407,126 406,127 406,127 407,128 407,129 407,130 404,133 402,132 403,131 401,130 399,130 398,129 396,131 394,133 390,134 390,134 388,134 386,132 382,133 381,133 381,132 380,132 381,131 380,131 381,131 380,130 377,130 376,131 375,131 374,133 374,134 373,135 371,134 370,133 365,134 364,136 362,137" id="14" class="departement" geotype="departement" geoname="Calvados" code_insee="14" code_region="25" style="fill:steelblue;stroke:white;stroke-width:1"/><polygon points="259,147 259,147 259,147 260,148 259,148 259,147" id="14" class="departement" geotype="departement" geoname="Calvados" code_insee="14" code_region="25" style="fill:steelblue;stroke:white;stroke-width:1"/><polygon points="20,144 20,144 20,145 20,144 20,144" id="50" class="departement" geotype="departement" geoname="Manche" code_insee="50" code_region="25" style="fill:steelblue;stroke:white;stroke-width:1"/><polygon points="135,40 136,40 136,40 136,40 135,40" id="50" class="departement" geotype="departement" geoname="Manche" code_insee="50" code_region="25" style="fill:steelblue;stroke:white;stroke-width:1"/><polygon points="23,145 23,145 23,145 23,145 23,145" id="50" class="departement" geotype="departement" geoname="Manche" code_insee="50" code_region="25" style="fill:steelblue;stroke:white;stroke-width:1"/><polygon points="16,145 16,145 16,145 16,145 16,145" id="50" class="departement" geotype="departement" geoname="Manche" code_insee="50" code_region="25" style="fill:steelblue;stroke:white;stroke-width:1"/><polygon points="26,145 26,145 26,145 26,145 26,145" id="50" class="departement" geotype="departement" geoname="Manche" code_insee="50" code_region="25" style="fill:steelblue;stroke:white;stroke-width:1"/><polygon points="26,144 27,144 27,144 27,144 26,144" id="50" class="departement" geotype="departement" geoname="Manche" code_insee="50" code_region="25" style="fill:steelblue;stroke:white;stroke-width:1"/><polygon points="22,144 22,144 22,144 22,144 22,144" id="50" class="departement" geotype="departement" geoname="Manche" code_insee="50" code_region="25" style="fill:steelblue;stroke:white;stroke-width:1"/><polygon points="17,144 17,144 17,144 17,144 17,144" id="50" class="departement" geotype="departement" geoname="Manche" code_insee="50" code_region="25" style="fill:steelblue;stroke:white;stroke-width:1"/><polygon points="19,147 19,147 19,147 19,147 19,147" id="50" class="departement" geotype="departement" geoname="Manche" code_insee="50" code_region="25" style="fill:steelblue;stroke:white;stroke-width:1"/><polygon points="14,144 14,144 14,144 14,144 14,144" id="50" class="departement" geotype="departement" geoname="Manche" code_insee="50" code_region="25" style="fill:steelblue;stroke:white;stroke-width:1"/><polygon points="48,10 49,10 49,10 49,10 48,10" id="50" class="departement" geotype="departement" geoname="Manche" code_insee="50" code_region="25" style="fill:steelblue;stroke:white;stroke-width:1"/><polygon points="74,186 75,186 75,187 75,187 74,186" id="50" class="departement" geotype="departement" geoname="Manche" code_insee="50" code_region="25" style="fill:steelblue;stroke:white;stroke-width:1"/><polygon points="21,145 21,145 21,145 21,145 21,145" id="50" class="departement" geotype="departement" geoname="Manche" code_insee="50" code_region="25" style="fill:steelblue;stroke:white;stroke-width:1"/><polygon points="23,143 24,143 24,143 23,143 23,143" id="50" class="departement" geotype="departement" geoname="Manche" code_insee="50" code_region="25" style="fill:steelblue;stroke:white;stroke-width:1"/><polygon points="74,182 74,182 75,182 75,182 74,182" id="50" class="departement" geotype="departement" geoname="Manche" code_insee="50" code_region="25" style="fill:steelblue;stroke:white;stroke-width:1"/><polygon points="19,143 20,143 20,143 19,143 19,143" id="50" class="departement" geotype="departement" geoname="Manche" code_insee="50" code_region="25" style="fill:steelblue;stroke:white;stroke-width:1"/><polygon points="23,146 23,146 23,146 23,146 23,146" id="50" class="departement" geotype="departement" geoname="Manche" code_insee="50" code_region="25" style="fill:steelblue;stroke:white;stroke-width:1"/><polygon points="24,143 24,143 24,143 24,143 24,143" id="50" class="departement" geotype="departement" geoname="Manche" code_insee="50" code_region="25" style="fill:steelblue;stroke:white;stroke-width:1"/><polygon points="31,146 31,146 31,146 31,146 31,146" id="50" class="departement" geotype="departement" geoname="Manche" code_insee="50" code_region="25" style="fill:steelblue;stroke:white;stroke-width:1"/><polygon points="19,142 19,142 19,142 19,142 19,142" id="50" class="departement" geotype="departement" geoname="Manche" code_insee="50" code_region="25" style="fill:steelblue;stroke:white;stroke-width:1"/><polygon points="18,146 19,146 19,146 19,146 18,146" id="50" class="departement" geotype="departement" geoname="Manche" code_insee="50" code_region="25" style="fill:steelblue;stroke:white;stroke-width:1"/><polygon points="30,146 31,146 31,146 31,146 30,146" id="50" class="departement" geotype="departement" geoname="Manche" code_insee="50" code_region="25" style="fill:steelblue;stroke:white;stroke-width:1"/><polygon points="22,146 23,146 23,146 22,146 22,146" id="50" class="departement" geotype="departement" geoname="Manche" code_insee="50" code_region="25" style="fill:steelblue;stroke:white;stroke-width:1"/><polygon points="24,146 24,146 24,147 24,146 24,146" id="50" class="departement" geotype="departement" geoname="Manche" code_insee="50" code_region="25" style="fill:steelblue;stroke:white;stroke-width:1"/><polygon points="25,143 25,143 25,143 25,143 25,143" id="50" class="departement" geotype="departement" geoname="Manche" code_insee="50" code_region="25" style="fill:steelblue;stroke:white;stroke-width:1"/><polygon points="187,208 186,209 184,210 184,210 182,210 180,211 179,210 178,210 177,210 176,210 175,209 176,208 175,207 172,207 170,207 168,208 169,209 168,210 167,210 167,211 164,211 162,212 160,211 159,211 158,210 156,209 156,209 155,209 154,208 153,208 152,207 152,208 150,208 144,208 142,206 139,206 138,207 137,207 136,206 134,206 134,205 130,205 128,204 128,204 127,203 127,203 123,203 120,203 120,202 120,202 117,203 116,204 116,205 116,206 115,207 114,208 113,208 111,210 108,210 107,210 106,210 106,211 106,211 106,212 105,211 104,212 102,213 103,214 101,215 100,215 99,217 98,217 97,217 95,216 94,216 89,216 87,215 88,214 87,213 85,212 84,212 83,212 81,212 80,212 79,211 78,212 77,208 76,207 76,207 75,206 75,205 74,205 74,205 73,204 74,203 71,202 71,201 72,200 72,199 72,199 73,199 72,199 73,199 73,198 72,197 72,196 71,196 69,196 69,195 70,193 69,192 69,192 67,191 65,190 66,189 65,188 68,188 70,187 73,188 74,190 75,190 75,189 78,189 79,190 79,189 81,189 85,188 85,189 89,186 89,185 90,185 90,186 95,185 97,186 98,185 99,186 100,187 102,187 100,185 98,185 97,184 95,184 94,183 94,182 96,180 96,180 95,180 90,181 90,181 88,181 87,183 86,183 86,181 84,180 83,180 82,179 79,178 76,178 76,177 74,175 73,173 71,170 68,170 67,170 65,168 64,167 64,164 65,160 65,158 64,156 63,156 64,155 62,155 62,153 59,153 58,153 57,153 57,152 60,152 61,151 62,150 63,148 64,144 64,143 65,140 66,137 68,135 68,136 67,137 68,137 67,138 68,139 69,139 68,137 69,136 68,135 66,135 66,133 66,130 66,127 67,126 66,125 66,123 67,123 68,124 67,123 66,123 67,121 67,120 71,118 74,119 74,120 74,120 75,120 76,121 76,121 75,120 74,120 74,120 74,119 73,119 71,118 70,118 69,118 67,119 66,119 65,122 64,121 65,120 63,122 64,124 65,125 64,125 62,124 60,120 59,114 58,112 59,113 59,113 59,114 60,112 59,112 59,111 59,112 58,111 58,112 58,110 58,108 59,105 61,101 60,100 60,95 59,92 58,91 59,89 57,87 63,86 61,86 62,86 60,86 58,85 58,85 58,85 56,86 55,86 55,86 55,88 56,88 55,88 52,86 51,84 49,80 48,78 46,76 47,75 47,76 48,77 49,76 49,76 47,76 48,76 47,75 45,75 44,73 43,72 42,71 40,68 45,68 43,68 42,66 40,65 41,66 41,67 39,68 41,68 42,67 42,68 42,68 40,69 39,69 35,65 33,64 32,63 30,61 28,61 27,61 26,61 24,61 23,60 22,60 22,59 21,59 20,56 21,53 21,53 21,49 21,49 21,46 19,44 19,44 18,44 17,43 18,40 17,37 15,37 13,37 11,36 10,33 11,32 13,31 15,30 16,29 16,28 17,28 18,26 18,25 18,22 18,19 16,14 15,13 14,13 13,12 10,12 9,11 6,11 3,10 3,9 1,10 2,9 0,9 1,8 2,6 0,4 1,2 0,2 1,2 1,0 2,0 5,0 6,0 6,1 7,1 9,2 9,3 10,3 10,3 12,3 15,2 16,2 17,2 17,2 19,3 21,6 23,6 27,7 32,8 37,8 39,8 40,8 42,9 43,10 45,9 46,10 49,9 46,10 46,10 45,10 46,11 47,12 51,12 54,11 60,12 61,13 62,13 63,13 62,13 62,13 65,12 65,11 65,12 67,12 68,12 71,12 72,12 73,12 76,11 77,10 78,10 79,10 79,8 81,8 81,7 81,6 81,5 85,6 88,4 88,5 89,4 90,4 91,4 95,4 100,4 103,4 105,4 105,4 106,5 111,6 113,6 114,6 115,6 115,5 115,6 117,5 117,7 116,7 116,7 116,8 116,8 117,8 117,9 117,9 118,9 117,10 117,10 118,9 118,10 121,12 121,13 121,13 123,18 123,21 120,20 118,20 119,20 117,23 118,24 116,25 116,27 115,26 115,26 116,25 113,24 112,25 111,25 110,29 110,31 111,33 113,36 115,37 115,38 119,42 123,45 124,46 126,48 129,50 130,51 134,55 135,58 135,59 132,60 132,62 132,62 131,62 131,63 130,63 131,64 131,65 128,67 128,67 130,66 133,63 135,63 138,62 139,63 139,64 142,65 143,68 138,71 138,73 139,74 139,75 140,76 142,76 141,77 139,77 140,77 139,78 140,79 141,78 141,79 143,79 143,80 144,81 145,81 145,81 146,83 147,82 147,83 148,83 149,84 151,85 152,86 154,85 154,87 156,86 156,87 156,87 157,87 157,88 158,88 158,89 161,89 161,90 163,90 164,90 164,91 167,92 168,91 170,90 170,89 172,88 171,88 172,87 173,87 174,87 174,87 174,86 174,86 174,85 175,85 175,85 176,85 175,85 175,86 178,88 179,90 180,90 181,89 181,90 177,92 177,92 178,92 177,92 179,93 177,93 177,94 176,94 175,96 173,97 172,96 171,96 170,96 169,97 174,97 172,98 173,99 174,100 175,100 175,100 178,101 179,101 178,102 180,102 182,102 181,103 179,104 178,105 177,105 175,107 181,104 181,104 183,104 183,106 183,107 183,108 183,109 184,111 184,112 184,112 184,113 183,115 181,116 181,117 182,118 184,117 185,118 185,119 186,118 186,120 184,120 181,120 180,122 180,123 179,122 178,122 178,125 177,126 172,130 170,130 168,131 164,133 163,133 161,132 159,132 157,131 155,131 154,131 154,132 153,131 152,132 153,133 150,134 151,134 151,135 150,136 151,136 151,136 149,136 149,138 151,138 153,137 155,138 159,137 159,137 159,137 160,138 160,139 158,141 154,142 153,144 152,145 151,145 150,146 149,146 149,147 149,146 147,146 147,145 145,146 145,146 144,148 143,148 142,149 141,150 140,150 138,151 138,152 137,153 135,152 135,153 135,154 136,155 138,154 138,155 140,155 140,156 141,155 141,156 142,155 143,156 144,156 145,156 146,158 147,159 147,160 145,160 145,160 148,162 150,162 152,163 155,161 156,161 160,163 161,162 163,162 164,162 167,163 167,162 168,161 169,161 171,160 172,162 173,163 175,163 176,164 177,164 176,163 177,164 180,164 182,165 182,166 184,166 185,165 187,165 191,164 193,163 193,163 193,164 191,165 189,167 187,168 188,170 189,171 190,171 191,170 192,170 193,170 195,171 196,173 197,173 197,174 198,175 200,175 202,176 203,177 206,177 208,178 207,179 206,179 206,180 204,180 203,182 201,183 201,184 202,185 203,186 203,187 206,188 207,189 205,189 205,192 204,194 201,194 202,195 201,197 201,199 200,200 198,201 195,201 195,202 193,204 192,204 192,205 188,206 187,208 187,208" id="50" class="departement" geotype="departement" geoname="Manche" code_insee="50" code_region="25" style="fill:steelblue;stroke:white;stroke-width:1"/><polygon points="120,24 120,23 121,24 121,24 120,24" id="50" class="departement" geotype="departement" geoname="Manche" code_insee="50" code_region="25" style="fill:steelblue;stroke:white;stroke-width:1"/><polygon points="51,9 56,9 60,10 56,9 51,9" id="50" class="departement" geotype="departement" geoname="Manche" code_insee="50" code_region="25" style="fill:steelblue;stroke:white;stroke-width:1"/><polygon points="19,145 20,145 19,146 22,146 22,147 21,146 20,147 20,146 19,146 19,145" id="50" class="departement" geotype="departement" geoname="Manche" code_insee="50" code_region="25" style="fill:steelblue;stroke:white;stroke-width:1"/><polygon points="26,145 26,145 26,145 26,145 26,145" id="50" class="departement" geotype="departement" geoname="Manche" code_insee="50" code_region="25" style="fill:steelblue;stroke:white;stroke-width:1"/><polygon points="26,144 26,144 26,144 26,144 26,144" id="50" class="departement" geotype="departement" geoname="Manche" code_insee="50" code_region="25" style="fill:steelblue;stroke:white;stroke-width:1"/><polygon points="18,145 18,145 18,145 18,145 18,145" id="50" class="departement" geotype="departement" geoname="Manche" code_insee="50" code_region="25" style="fill:steelblue;stroke:white;stroke-width:1"/><polygon points="25,145 25,145 25,145 25,145 25,145" id="50" class="departement" geotype="departement" geoname="Manche" code_insee="50" code_region="25" style="fill:steelblue;stroke:white;stroke-width:1"/><polygon points="15,145 15,145 15,145 15,145 15,145" id="50" class="departement" geotype="departement" geoname="Manche" code_insee="50" code_region="25" style="fill:steelblue;stroke:white;stroke-width:1"/><polygon points="33,146 33,146 33,146 33,146 33,146" id="50" class="departement" geotype="departement" geoname="Manche" code_insee="50" code_region="25" style="fill:steelblue;stroke:white;stroke-width:1"/><polygon points="17,145 17,145 17,145 17,145 17,145" id="50" class="departement" geotype="departement" geoname="Manche" code_insee="50" code_region="25" style="fill:steelblue;stroke:white;stroke-width:1"/><polygon points="15,145 15,145 15,145 15,145 15,145" id="50" class="departement" geotype="departement" geoname="Manche" code_insee="50" code_region="25" style="fill:steelblue;stroke:white;stroke-width:1"/><polygon points="22,145 22,145 22,145 22,145 22,145" id="50" class="departement" geotype="departement" geoname="Manche" code_insee="50" code_region="25" style="fill:steelblue;stroke:white;stroke-width:1"/><polygon points="24,145 24,145 24,145 24,145 24,145" id="50" class="departement" geotype="departement" geoname="Manche" code_insee="50" code_region="25" style="fill:steelblue;stroke:white;stroke-width:1"/><polygon points="17,144 17,144 17,144 17,144 17,144" id="50" class="departement" geotype="departement" geoname="Manche" code_insee="50" code_region="25" style="fill:steelblue;stroke:white;stroke-width:1"/><polygon points="24,143 24,143 24,143 24,143 24,143" id="50" class="departement" geotype="departement" geoname="Manche" code_insee="50" code_region="25" style="fill:steelblue;stroke:white;stroke-width:1"/><polygon points="21,142 22,142 22,142 21,142 21,142" id="50" class="departement" geotype="departement" geoname="Manche" code_insee="50" code_region="25" style="fill:steelblue;stroke:white;stroke-width:1"/><polygon points="19,147 19,146 19,147 19,147 19,147" id="50" class="departement" geotype="departement" geoname="Manche" code_insee="50" code_region="25" style="fill:steelblue;stroke:white;stroke-width:1"/><polygon points="121,24 121,24 121,24 121,24 121,24" id="50" class="departement" geotype="departement" geoname="Manche" code_insee="50" code_region="25" style="fill:steelblue;stroke:white;stroke-width:1"/><polygon points="22,145 22,145 22,145 22,145 22,145" id="50" class="departement" geotype="departement" geoname="Manche" code_insee="50" code_region="25" style="fill:steelblue;stroke:white;stroke-width:1"/><polygon points="26,145 26,145 26,145 26,145 26,145" id="50" class="departement" geotype="departement" geoname="Manche" code_insee="50" code_region="25" style="fill:steelblue;stroke:white;stroke-width:1"/><polygon points="62,10 63,10 63,9 64,9 63,10 64,10 64,11 64,11 65,11 64,10 62,10" id="50" class="departement" geotype="departement" geoname="Manche" code_insee="50" code_region="25" style="fill:steelblue;stroke:white;stroke-width:1"/><polygon points="20,145 21,145 21,145 20,145 20,145" id="50" class="departement" geotype="departement" geoname="Manche" code_insee="50" code_region="25" style="fill:steelblue;stroke:white;stroke-width:1"/><polygon points="18,146 18,146 19,146 18,146 18,146" id="50" class="departement" geotype="departement" geoname="Manche" code_insee="50" code_region="25" style="fill:steelblue;stroke:white;stroke-width:1"/><polygon points="137,39 137,39 137,39 137,39 137,39" id="50" class="departement" geotype="departement" geoname="Manche" code_insee="50" code_region="25" style="fill:steelblue;stroke:white;stroke-width:1"/><polygon points="18,144 18,144 18,144 18,144 18,144" id="50" class="departement" geotype="departement" geoname="Manche" code_insee="50" code_region="25" style="fill:steelblue;stroke:white;stroke-width:1"/><polygon points="22,144 22,144 22,144 22,144 22,144" id="50" class="departement" geotype="departement" geoname="Manche" code_insee="50" code_region="25" style="fill:steelblue;stroke:white;stroke-width:1"/><polygon points="14,144 14,144 14,145 14,144 14,144" id="50" class="departement" geotype="departement" geoname="Manche" code_insee="50" code_region="25" style="fill:steelblue;stroke:white;stroke-width:1"/><polygon points="18,144 18,144 18,145 18,145 18,144" id="50" class="departement" geotype="departement" geoname="Manche" code_insee="50" code_region="25" style="fill:steelblue;stroke:white;stroke-width:1"/><polygon points="25,143 25,143 25,143 25,143 25,143" id="50" class="departement" geotype="departement" geoname="Manche" code_insee="50" code_region="25" style="fill:steelblue;stroke:white;stroke-width:1"/><polygon points="21,144 21,144 22,144 21,144 21,144" id="50" class="departement" geotype="departement" geoname="Manche" code_insee="50" code_region="25" style="fill:steelblue;stroke:white;stroke-width:1"/><polygon points="22,145 22,145 22,145 22,145" id="50" class="departement" geotype="departement" geoname="Manche" code_insee="50" code_region="25" style="fill:steelblue;stroke:white;stroke-width:1"/><polygon points="24,145 24,145 25,145 24,145 24,145" id="50" class="departement" geotype="departement" geoname="Manche" code_insee="50" code_region="25" style="fill:steelblue;stroke:white;stroke-width:1"/><polygon points="30,146 30,146 31,146 31,146 30,146" id="50" class="departement" geotype="departement" geoname="Manche" code_insee="50" code_region="25" style="fill:steelblue;stroke:white;stroke-width:1"/><polygon points="22,145 22,145 22,145 22,145 22,145" id="50" class="departement" geotype="departement" geoname="Manche" code_insee="50" code_region="25" style="fill:steelblue;stroke:white;stroke-width:1"/><polygon points="201,220 201,219 200,219 200,216 199,216 197,216 197,217 194,217 194,217 194,215 193,215 194,215 193,214 192,214 192,213 191,213 191,212 190,212 189,211 188,210 188,210 186,209 187,208 187,208 188,206 192,205 192,204 193,204 195,202 195,201 198,201 200,200 201,199 201,197 202,195 201,194 204,194 205,192 205,189 207,189 206,188 203,187 203,186 202,185 201,184 201,183 203,182 204,180 206,180 206,179 207,179 208,178 206,177 203,177 202,176 200,175 198,175 197,174 197,173 196,173 195,171 193,170 192,170 191,170 190,171 189,171 188,170 187,168 189,167 193,167 195,165 196,164 197,162 199,162 200,161 204,160 207,160 209,159 211,159 212,158 212,158 213,157 217,155 215,154 213,152 215,150 216,150 216,151 217,152 218,151 219,152 220,151 221,152 223,151 223,153 223,154 226,154 230,153 231,152 234,152 235,153 236,153 237,153 239,150 244,150 245,150 246,151 246,151 249,150 249,150 248,149 248,148 250,149 251,148 252,148 253,147 253,147 254,146 254,146 254,146 255,147 256,146 257,147 256,146 257,146 257,146 258,146 258,147 259,147 259,146 258,146 259,146 259,146 259,146 260,146 261,147 260,147 260,147 260,147 263,146 264,148 266,149 267,151 267,150 268,150 269,151 271,150 271,150 272,150 272,151 269,151 270,152 269,153 271,152 271,153 274,155 274,155 275,153 277,152 277,152 276,151 276,151 277,149 281,148 282,150 283,150 285,149 285,149 286,150 288,149 289,150 290,150 292,150 294,151 297,152 298,151 300,152 300,152 303,152 303,153 302,153 303,154 304,154 304,154 304,154 307,155 308,155 312,156 309,154 308,153 309,152 310,153 312,152 311,151 312,150 313,152 314,151 315,152 316,151 319,151 320,152 321,151 322,152 323,149 328,147 328,146 329,145 330,146 331,145 332,146 332,146 331,144 338,142 338,142 342,142 343,141 343,140 344,139 344,137 347,135 350,135 351,135 355,133 355,132 357,133 358,134 358,136 359,137 362,137 364,136 365,134 370,133 371,134 373,135 374,134 374,133 375,131 376,131 377,130 380,130 381,131 380,131 381,131 380,132 381,132 381,133 382,133 386,132 388,134 390,134 390,134 394,133 396,131 398,129 399,130 401,130 403,131 402,132 404,133 404,133 401,136 400,137 399,138 399,140 401,140 402,141 404,141 404,142 405,142 405,143 405,143 405,144 409,144 408,143 410,143 409,145 411,145 411,144 415,144 417,145 420,145 420,145 422,145 426,146 427,146 428,145 432,142 435,143 435,144 433,145 433,145 434,146 435,146 436,146 437,145 438,145 436,146 436,148 438,149 437,149 439,149 441,149 442,149 439,150 438,152 437,153 439,153 440,154 444,156 446,157 451,160 452,159 453,160 455,161 455,161 456,161 458,161 460,162 462,164 463,164 462,164 461,165 463,166 466,169 463,171 463,172 460,173 458,174 458,175 462,175 464,176 464,177 463,178 464,178 463,179 465,179 464,180 464,181 466,181 467,181 469,180 471,181 473,181 471,182 473,183 473,183 474,184 474,186 475,187 473,190 473,191 474,191 475,191 477,191 478,191 478,195 479,196 482,197 484,197 486,197 489,199 491,200 491,200 494,201 491,203 492,204 495,204 496,205 499,206 496,209 494,210 495,211 496,211 497,213 493,214 493,215 494,217 495,217 496,219 499,220 499,219 500,220 497,222 496,224 495,224 494,225 496,227 494,227 492,228 491,230 491,230 490,231 489,230 490,231 488,232 487,231 486,232 484,234 483,234 482,234 480,235 479,236 477,235 477,235 477,235 477,236 475,236 475,237 473,235 472,235 471,236 468,237 467,237 467,238 467,238 465,240 465,241 463,242 464,243 462,244 463,244 465,244 466,243 466,244 466,243 469,245 471,246 469,247 467,249 468,250 468,251 470,252 470,253 472,255 473,256 474,257 475,259 474,259 472,260 471,260 471,261 470,262 463,265 462,264 459,263 458,261 457,261 456,261 455,259 453,258 454,257 452,255 450,254 451,253 450,253 450,252 448,252 447,251 445,250 442,251 441,252 442,255 441,255 440,255 441,254 440,253 438,254 437,253 435,253 432,253 429,253 427,252 425,253 425,251 424,250 422,250 421,249 421,249 421,249 419,248 419,248 417,247 419,245 420,245 420,245 417,242 415,244 413,243 412,243 411,243 409,243 407,243 406,241 405,240 404,240 403,240 404,241 403,241 401,240 398,238 398,237 399,237 399,236 399,236 399,235 399,235 398,232 398,230 397,229 398,228 397,225 398,224 399,223 398,223 397,222 396,220 395,218 393,217 393,217 391,216 390,216 391,216 389,215 389,215 387,214 386,215 385,213 382,213 382,213 380,213 379,212 378,212 378,213 378,213 376,214 374,214 373,214 372,214 370,214 368,215 366,216 366,216 363,216 362,217 363,218 361,218 359,217 358,217 358,217 360,219 360,220 359,220 354,221 354,221 352,221 351,222 352,223 350,225 348,225 347,225 346,225 345,225 345,226 342,228 344,230 343,230 340,230 337,230 336,230 335,229 334,229 334,228 333,227 332,228 331,228 331,228 330,228 330,229 327,229 327,230 324,230 325,231 324,231 324,230 323,229 324,229 324,228 323,227 324,226 323,225 324,225 323,223 324,223 323,222 324,222 325,218 324,218 322,217 321,217 321,218 319,218 315,219 310,218 308,217 307,216 308,214 307,214 308,213 307,211 306,210 304,209 304,209 304,208 305,207 304,207 307,206 308,207 308,206 308,205 304,203 303,203 302,203 302,202 300,201 300,200 298,199 296,200 295,199 293,199 292,198 291,199 291,200 289,201 288,201 291,202 292,203 290,205 288,205 288,206 286,207 287,207 287,207 287,208 284,209 284,207 284,206 283,207 280,207 278,206 276,208 275,210 273,210 272,210 273,212 273,213 270,212 270,211 269,210 266,210 266,208 265,208 265,208 263,209 260,208 261,208 259,207 258,208 257,207 256,208 253,208 253,208 251,209 250,209 250,210 249,209 248,209 248,208 247,209 246,208 245,209 245,210 244,211 243,210 242,211 241,212 239,213 239,214 237,215 237,214 235,215 233,215 232,215 232,214 228,217 226,217 222,219 221,219 221,218 221,217 220,215 221,214 220,214 220,213 220,213 219,212 219,213 218,212 217,213 216,214 217,215 215,215 213,215 213,215 214,214 213,214 211,215 209,214 208,214 207,216 208,217 209,217 209,217 211,218 211,218 209,219 207,219 206,220 206,220 205,220 204,221 202,221 202,220 201,220" id="61" class="departement" geotype="departement" geoname="Orne" code_insee="61" code_region="25" style="fill:steelblue;stroke:white;stroke-width:1"/></svg>