<?xml version="1.0" encoding="utf-8"?>
<svg version="1.1" id="svgmap" xmlns="http://www.w3.org/2000/svg" xmlns:xlink="http://www.w3.org/1999/xlink" x="0px" y="0px" width="100%" height="100%" viewBox="0 0 500 407">
<polygon points="150,243 137,245 128,245 130,243 129,238 131,236 127,233 126,229 133,229 133,228 137,225 137,223 139,223 144,224 146,229 151,229 151,231 148,232 146,237 150,243" id="6001" class="commune" fill="steelblue" stroke-width="1" stroke="white" geotype="commune" geoname="Aiglun" code_insee="6001" code_canton="626" code_intercom="200039931" code_arrondissement="61" code_departement="93" code_region_2015="93"/><polygon points="68,221 72,215 77,211 76,209 92,205 93,206 95,209 93,216 89,217 90,222 87,222 75,223 73,224 72,222 68,221" id="6002" class="commune" fill="steelblue" stroke-width="1" stroke="white" geotype="commune" geoname="Amirat" code_insee="6002" code_canton="611" code_intercom="200039857" code_arrondissement="61" code_departement="93" code_region_2015="93"/><polygon points="95,291 87,288 80,283 74,284 69,283 71,275 68,274 69,268 63,267 63,256 69,255 73,256 78,254 104,250 104,267 105,269 102,269 103,276 108,283 110,290 107,288 95,291" id="6003" class="commune" fill="steelblue" stroke-width="1" stroke="white" geotype="commune" geoname="Andon" code_insee="6003" code_canton="611" code_intercom="200039857" code_arrondissement="61" code_departement="93" code_region_2015="93"/><polygon points="233,365 234,364 234,364 234,365 233,365" id="6004" class="commune" fill="steelblue" stroke-width="1" stroke="white" geotype="commune" geoname="Antibes" code_insee="6004" code_canton="694" code_intercom="240600585" code_arrondissement="61" code_departement="93" code_region_2015="93"/><polygon points="229,343 227,354 229,357 227,358 226,357 225,358 227,359 227,358 228,359 230,356 229,360 226,363 229,366 233,365 231,372 232,373 234,372 236,374 232,375 232,377 229,377 228,376 225,376 225,378 223,375 225,373 225,370 224,369 224,370 223,370 221,369 222,370 223,369 221,367 215,365 209,365 205,360 199,357 198,350 200,348 199,348 201,346 208,348 208,347 211,347 217,343 221,344 223,341 229,343" id="6004" class="commune" fill="steelblue" stroke-width="1" stroke="white" geotype="commune" geoname="Antibes" code_insee="6004" code_canton="694" code_intercom="240600585" code_arrondissement="61" code_departement="93" code_region_2015="93"/><polygon points="156,203 159,201 160,197 173,196 190,201 196,203 192,208 189,208 185,215 178,210 176,211 171,211 168,212 165,212 165,205 162,204 161,203 159,204 156,203" id="6005" class="commune" fill="steelblue" stroke-width="1" stroke="white" geotype="commune" geoname="Ascros" code_insee="6005" code_canton="626" code_intercom="200039931" code_arrondissement="62" code_departement="93" code_region_2015="93"/><polygon points="290,275 287,276 287,280 283,282 281,282 279,276 275,275 271,272 280,263 279,259 281,258 286,259 287,261 285,262 285,265 290,275" id="6006" class="commune" fill="steelblue" stroke-width="1" stroke="white" geotype="commune" geoname="Aspremont" code_insee="6006" code_canton="624" code_intercom="200030195" code_arrondissement="62" code_departement="93" code_region_2015="93"/><polygon points="124,341 127,341 130,340 133,343 136,344 136,345 130,353 128,352 124,350 120,346 121,344 123,343 124,341" id="6007" class="commune" fill="steelblue" stroke-width="1" stroke="white" geotype="commune" geoname="Auribeau-sur-Siagne" code_insee="6007" code_canton="613" code_intercom="200039857" code_arrondissement="61" code_departement="93" code_region_2015="93"/><polygon points="142,148 142,149 138,155 130,156 130,159 132,160 132,163 130,165 132,169 135,165 142,164 141,171 140,173 126,177 124,179 118,181 119,182 116,183 116,182 118,180 118,176 122,166 121,162 127,156 124,152 129,150 128,146 134,147 139,147 142,148" id="6008" class="commune" fill="steelblue" stroke-width="1" stroke="white" geotype="commune" geoname="Auvare" code_insee="6008" code_canton="626" code_intercom="200039931" code_arrondissement="62" code_departement="93" code_region_2015="93"/><polygon points="229,161 229,161 232,166 231,174 234,180 228,185 229,186 225,187 220,185 221,179 219,178 215,171 212,171 212,168 215,165 229,161" id="6009" class="commune" fill="steelblue" stroke-width="1" stroke="white" geotype="commune" geoname="Bairols" code_insee="6009" code_canton="626" code_intercom="200030195" code_arrondissement="62" code_departement="93" code_region_2015="93"/><polygon points="122,299 134,298 136,307 146,303 150,306 157,303 160,304 158,301 159,299 164,299 169,305 172,307 185,305 180,308 180,307 171,307 169,310 163,312 160,313 155,311 150,312 140,308 126,306 122,299" id="6010" class="commune" fill="steelblue" stroke-width="1" stroke="white" geotype="commune" geoname="Bar-sur-Loup" code_insee="6010" code_canton="625" code_intercom="240600585" code_arrondissement="61" code_departement="93" code_region_2015="93"/><polygon points="321,304 319,305 317,302 320,302 318,301 327,299 324,300 325,301 325,302 324,300 323,304 321,304" id="6011" class="commune" fill="steelblue" stroke-width="1" stroke="white" geotype="commune" geoname="Beaulieu-sur-Mer" code_insee="6011" code_canton="604" code_intercom="200030195" code_arrondissement="62" code_departement="93" code_region_2015="93"/><polygon points="370,281 359,289 357,286 362,283 360,280 365,278 370,281" id="6012" class="commune" fill="steelblue" stroke-width="1" stroke="white" geotype="commune" geoname="Beausoleil" code_insee="6012" code_canton="604" code_intercom="240600551" code_arrondissement="62" code_departement="93" code_region_2015="93"/><polygon points="347,110 350,109 356,113 360,112 364,115 366,115 368,121 365,123 365,125 368,127 365,130 366,143 364,144 362,147 364,150 364,153 359,157 351,158 347,160 331,159 324,165 320,165 319,168 318,168 315,165 315,163 313,164 315,158 313,155 314,153 311,150 315,145 318,144 317,140 315,139 310,138 303,139 303,134 311,133 318,133 322,132 332,133 333,136 336,138 341,135 347,130 346,128 348,126 346,122 348,117 347,110" id="6013" class="commune" fill="steelblue" stroke-width="1" stroke="white" geotype="commune" geoname="Belvédère" code_insee="6013" code_canton="624" code_intercom="200030195" code_arrondissement="62" code_departement="93" code_region_2015="93"/><polygon points="295,237 297,237 305,240 308,248 305,248 303,250 304,251 300,253 299,252 298,253 295,252 292,249 296,248 295,237" id="6014" class="commune" fill="steelblue" stroke-width="1" stroke="white" geotype="commune" geoname="Bendejun" code_insee="6014" code_canton="610" code_intercom="240600593" code_arrondissement="62" code_departement="93" code_region_2015="93"/><polygon points="333,255 330,253 326,248 322,249 316,247 309,238 315,234 321,232 324,234 324,235 328,239 327,241 329,246 331,245 333,255" id="6015" class="commune" fill="steelblue" stroke-width="1" stroke="white" geotype="commune" geoname="Berre-les-Alpes" code_insee="6015" code_canton="610" code_intercom="240600593" code_arrondissement="62" code_departement="93" code_region_2015="93"/><polygon points="142,149 142,148 142,143 137,137 140,132 149,130 145,122 150,119 150,116 153,115 152,113 155,112 156,110 152,108 153,105 150,103 146,99 134,95 127,91 129,80 136,81 146,77 152,87 151,92 157,93 160,93 166,99 166,106 171,108 172,114 181,117 179,123 180,128 178,132 182,137 179,137 172,141 170,144 163,147 159,147 159,150 154,149 152,150 145,150 142,149" id="6016" class="commune" fill="steelblue" stroke-width="1" stroke="white" geotype="commune" geoname="Beuil" code_insee="6016" code_canton="626" code_intercom="200039931" code_arrondissement="62" code_departement="93" code_region_2015="93"/><polygon points="191,248 199,247 210,249 215,250 219,253 230,255 230,257 229,258 230,263 229,264 227,266 220,269 218,267 210,268 204,263 205,261 203,259 196,257 194,256 192,253 191,248" id="6017" class="commune" fill="steelblue" stroke-width="1" stroke="white" geotype="commune" geoname="Bézaudun-les-Alpes" code_insee="6017" code_canton="626" code_intercom="240600585" code_arrondissement="61" code_departement="93" code_region_2015="93"/><polygon points="223,341 221,344 217,343 211,347 208,347 208,348 201,346 195,344 194,337 190,334 193,332 206,332 214,330 220,336 220,339 223,341" id="6018" class="commune" fill="steelblue" stroke-width="1" stroke="white" geotype="commune" geoname="Biot" code_insee="6018" code_canton="603" code_intercom="240600585" code_arrondissement="61" code_departement="93" code_region_2015="93"/><polygon points="322,272 324,271 324,268 327,265 331,264 333,259 333,257 330,256 330,253 333,255 334,256 339,253 337,251 339,249 342,249 344,252 344,257 345,258 342,264 340,264 336,269 330,271 324,275 321,274 322,272" id="6019" class="commune" fill="steelblue" stroke-width="1" stroke="white" geotype="commune" geoname="Blausasc" code_insee="6019" code_canton="610" code_intercom="240600593" code_arrondissement="62" code_departement="93" code_region_2015="93"/><polygon points="368,167 365,168 360,169 356,172 354,172 349,176 349,179 344,182 337,181 330,182 325,180 322,177 316,176 316,172 315,169 318,168 319,168 320,165 324,165 331,159 347,160 351,158 359,157 364,160 368,167" id="6020" class="commune" fill="steelblue" stroke-width="1" stroke="white" geotype="commune" geoname="Bollène-Vésubie" code_insee="6020" code_canton="624" code_intercom="200030195" code_arrondissement="62" code_departement="93" code_region_2015="93"/><polygon points="260,232 259,236 259,239 247,234 246,231 242,230 242,229 249,226 250,225 253,225 256,223 260,228 260,232" id="6021" class="commune" fill="steelblue" stroke-width="1" stroke="white" geotype="commune" geoname="Bonson" code_insee="6021" code_canton="626" code_intercom="200030195" code_arrondissement="62" code_departement="93" code_region_2015="93"/><polygon points="228,237 229,238 231,238 234,240 236,243 233,245 236,249 235,250 243,251 233,256 230,257 230,255 219,253 215,250 210,249 216,246 217,245 222,242 226,237 228,237" id="6022" class="commune" fill="steelblue" stroke-width="1" stroke="white" geotype="commune" geoname="Bouyon" code_insee="6022" code_canton="626" code_intercom="240600585" code_arrondissement="61" code_departement="93" code_region_2015="93"/><polygon points="432,191 430,193 433,196 431,198 432,200 431,200 431,203 426,205 428,209 428,214 423,216 417,216 411,220 409,220 407,221 405,220 404,223 400,225 402,222 396,216 396,206 393,207 383,207 378,202 379,200 376,197 379,195 380,191 375,186 376,184 374,180 372,180 371,178 373,177 372,175 369,170 365,168 368,167 373,168 380,168 393,174 402,175 407,182 411,184 419,184 425,187 430,191 432,191" id="6023" class="commune" fill="steelblue" stroke-width="1" stroke="white" geotype="commune" geoname="Breil-sur-Roya" code_insee="6023" code_canton="610" code_intercom="240600551" code_arrondissement="62" code_departement="93" code_region_2015="93"/><polygon points="32,233 29,233 29,225 25,223 20,223 17,219 38,223 53,226 68,221 72,222 73,224 71,228 74,239 65,240 61,237 44,236 43,233 41,232 32,233" id="6024" class="commune" fill="steelblue" stroke-width="1" stroke="white" geotype="commune" geoname="Briançonnet" code_insee="6024" code_canton="611" code_intercom="200039857" code_arrondissement="61" code_departement="93" code_region_2015="93"/><polygon points="255,248 256,250 253,250 253,252 258,257 243,261 241,263 237,265 235,268 231,266 230,263 229,258 230,257 233,256 243,251 235,250 236,249 233,245 236,243 234,240 237,238 242,238 248,242 254,249 255,248" id="6025" class="commune" fill="steelblue" stroke-width="1" stroke="white" geotype="commune" geoname="Broc" code_insee="6025" code_canton="617" code_intercom="200030195" code_arrondissement="61" code_departement="93" code_region_2015="93"/><polygon points="117,318 116,320 121,325 120,330 117,328 108,330 109,327 106,326 108,324 106,325 107,324 106,323 107,323 105,321 114,318 117,318" id="6026" class="commune" fill="steelblue" stroke-width="1" stroke="white" geotype="commune" geoname="Cabris" code_insee="6026" code_canton="611" code_intercom="200039857" code_arrondissement="61" code_departement="93" code_region_2015="93"/><polygon points="224,319 226,318 230,317 230,313 235,309 233,307 234,305 238,306 241,309 244,309 250,308 251,313 250,317 252,322 250,326 246,325 242,326 236,332 229,328 231,325 226,322 224,319" id="6027" class="commune" fill="steelblue" stroke-width="1" stroke="white" geotype="commune" geoname="Cagnes-sur-Mer" code_insee="6027" code_canton="695" code_intercom="200030195" code_arrondissement="61" code_departement="93" code_region_2015="93"/><polygon points="63,267 69,268 68,274 71,275 69,283 65,282 60,283 50,281 44,276 42,270 40,268 49,264 57,265 58,266 63,267" id="6028" class="commune" fill="steelblue" stroke-width="1" stroke="white" geotype="commune" geoname="Caille" code_insee="6028" code_canton="611" code_intercom="200039857" code_arrondissement="61" code_departement="93" code_region_2015="93"/><polygon points="152,364 155,366 152,367 153,370 159,369 161,367 168,368 171,366 174,368 177,368 181,366 185,366 191,368 192,374 195,374 188,378 186,381 185,380 184,380 183,379 182,379 184,380 184,379 184,377 183,379 184,376 179,375 176,376 176,374 174,374 177,377 170,375 159,376 152,378 147,382 149,377 146,377 146,374 148,374 149,372 147,370 148,368 147,366 145,366 143,365 148,363 152,364" id="6029" class="commune" fill="steelblue" stroke-width="1" stroke="white" geotype="commune" geoname="Cannes" code_insee="6029" code_canton="696" code_intercom="200039915" code_arrondissement="61" code_departement="93" code_region_2015="93"/><polygon points="183,387 190,386 201,390 200,391 188,390 185,390 183,387" id="6029" class="commune" fill="steelblue" stroke-width="1" stroke="white" geotype="commune" geoname="Cannes" code_insee="6029" code_canton="696" code_intercom="200039915" code_arrondissement="61" code_departement="93" code_region_2015="93"/><polygon points="195,395 195,395 196,394 196,395 195,395" id="6029" class="commune" fill="steelblue" stroke-width="1" stroke="white" geotype="commune" geoname="Cannes" code_insee="6029" code_canton="696" code_intercom="200039915" code_arrondissement="61" code_departement="93" code_region_2015="93"/><polygon points="186,394 191,393 194,394 191,395 186,394" id="6029" class="commune" fill="steelblue" stroke-width="1" stroke="white" geotype="commune" geoname="Cannes" code_insee="6029" code_canton="696" code_intercom="200039915" code_arrondissement="61" code_departement="93" code_region_2015="93"/><polygon points="202,390 202,390 203,391 202,391 202,390" id="6029" class="commune" fill="steelblue" stroke-width="1" stroke="white" geotype="commune" geoname="Cannes" code_insee="6029" code_canton="696" code_intercom="200039915" code_arrondissement="61" code_departement="93" code_region_2015="93"/><polygon points="185,366 181,366 177,368 174,368 171,366 168,368 161,367 159,369 153,370 152,367 155,366 166,361 174,360 176,361 177,357 182,360 186,360 184,362 185,366" id="6030" class="commune" fill="steelblue" stroke-width="1" stroke="white" geotype="commune" geoname="Cannet" code_insee="6030" code_canton="697" code_intercom="200039915" code_arrondissement="61" code_departement="93" code_region_2015="93"/><polygon points="324,268 324,271 322,272 315,278 312,278 311,281 307,280 305,278 305,274 307,272 303,270 315,267 317,266 318,267 324,268" id="6031" class="commune" fill="steelblue" stroke-width="1" stroke="white" geotype="commune" geoname="Cantaron" code_insee="6031" code_canton="610" code_intercom="240600593" code_arrondissement="62" code_departement="93" code_region_2015="93"/><polygon points="359,291 357,292 362,294 361,295 360,295 361,294 360,293 360,294 360,294 359,294 358,295 356,296 356,297 354,296 353,296 353,297 350,296 349,296 348,297 349,295 348,295 345,295 349,294 349,293 349,293 351,291 353,291 354,291 357,290 359,291" id="6032" class="commune" fill="steelblue" stroke-width="1" stroke="white" geotype="commune" geoname="Cap-d'Ail" code_insee="6032" code_canton="604" code_intercom="200030195" code_arrondissement="62" code_departement="93" code_region_2015="93"/><polygon points="350,296 350,296 350,296 350,296 350,296" id="6032" class="commune" fill="steelblue" stroke-width="1" stroke="white" geotype="commune" geoname="Cap-d'Ail" code_insee="6032" code_canton="604" code_intercom="200030195" code_arrondissement="62" code_departement="93" code_region_2015="93"/><polygon points="235,268 237,265 241,263 243,261 258,257 261,259 264,261 268,267 266,272 263,275 257,275 255,272 250,271 245,272 235,268" id="6033" class="commune" fill="steelblue" stroke-width="1" stroke="white" geotype="commune" geoname="Carros" code_insee="6033" code_canton="617" code_intercom="200030195" code_arrondissement="61" code_departement="93" code_region_2015="93"/><polygon points="284,255 286,256 286,259 281,258 279,259 280,263 271,272 266,272 268,267 264,261 267,260 270,260 272,258 276,256 280,257 281,255 284,255" id="6034" class="commune" fill="steelblue" stroke-width="1" stroke="white" geotype="commune" geoname="Castagniers" code_insee="6034" code_canton="624" code_intercom="200030195" code_arrondissement="62" code_departement="93" code_region_2015="93"/><polygon points="398,236 399,238 403,240 402,242 408,258 405,262 403,260 403,262 400,262 396,261 395,257 394,257 394,258 393,257 394,251 392,248 393,247 393,244 390,237 398,236" id="6035" class="commune" fill="steelblue" stroke-width="1" stroke="white" geotype="commune" geoname="Castellar" code_insee="6035" code_canton="614" code_intercom="240600551" code_arrondissement="62" code_departement="93" code_region_2015="93"/><polygon points="390,237 393,244 393,247 392,248 390,247 384,248 381,249 375,247 371,239 374,241 379,237 387,236 390,237" id="6036" class="commune" fill="steelblue" stroke-width="1" stroke="white" geotype="commune" geoname="Castillon" code_insee="6036" code_canton="614" code_intercom="240600551" code_arrondissement="62" code_departement="93" code_region_2015="93"/><polygon points="134,298 122,299 114,299 107,294 107,292 110,290 108,283 103,276 117,278 145,282 149,284 143,287 139,295 134,298" id="6037" class="commune" fill="steelblue" stroke-width="1" stroke="white" geotype="commune" geoname="Caussols" code_insee="6037" code_canton="625" code_intercom="240600585" code_arrondissement="61" code_departement="93" code_region_2015="93"/><polygon points="164,333 163,332 156,329 156,327 152,324 150,318 155,315 153,313 150,312 155,311 160,313 163,312 166,312 169,315 166,316 166,320 160,318 157,321 159,323 161,323 164,325 169,332 169,333 164,333" id="6038" class="commune" fill="steelblue" stroke-width="1" stroke="white" geotype="commune" geoname="Châteauneuf-Grasse" code_insee="6038" code_canton="625" code_intercom="240600585" code_arrondissement="61" code_departement="93" code_region_2015="93"/><polygon points="303,270 303,266 299,263 298,258 295,252 298,253 299,252 300,253 304,251 303,250 305,248 308,248 306,250 308,252 307,254 309,257 308,260 313,264 315,267 303,270" id="6039" class="commune" fill="steelblue" stroke-width="1" stroke="white" geotype="commune" geoname="Châteauneuf-Villevieille" code_insee="6039" code_canton="610" code_intercom="240600593" code_arrondissement="62" code_departement="93" code_region_2015="93"/><polygon points="80,85 82,82 82,79 90,72 94,77 110,82 113,88 106,89 102,93 98,99 102,101 101,104 98,106 99,108 96,110 92,116 87,116 89,109 86,107 84,102 87,88 84,86 80,85" id="6040" class="commune" fill="steelblue" stroke-width="1" stroke="white" geotype="commune" geoname="Châteauneuf-d'Entraunes" code_insee="6040" code_canton="626" code_intercom="200039931" code_arrondissement="62" code_departement="93" code_region_2015="93"/><polygon points="161,273 165,278 164,280 161,281 161,285 158,286 150,285 149,284 145,282 117,278 103,276 102,269 105,269 104,267 113,265 116,266 120,265 124,264 131,265 152,264 156,265 161,273" id="6041" class="commune" fill="steelblue" stroke-width="1" stroke="white" geotype="commune" geoname="Cipières" code_insee="6041" code_canton="625" code_intercom="240600585" code_arrondissement="61" code_departement="93" code_region_2015="93"/><polygon points="239,184 236,180 234,180 231,174 232,166 229,161 233,162 239,162 239,158 238,157 242,157 243,156 244,156 245,155 251,154 249,153 250,152 254,149 261,148 264,148 267,152 274,156 277,159 273,165 263,166 259,173 253,174 249,182 239,184" id="6042" class="commune" fill="steelblue" stroke-width="1" stroke="white" geotype="commune" geoname="Clans" code_insee="6042" code_canton="624" code_intercom="200030195" code_arrondissement="62" code_departement="93" code_region_2015="93"/><polygon points="305,240 297,237 295,237 294,226 300,223 301,220 311,219 311,216 314,215 318,223 318,230 321,232 315,234 309,238 305,240" id="6043" class="commune" fill="steelblue" stroke-width="1" stroke="white" geotype="commune" geoname="Coaraze" code_insee="6043" code_canton="610" code_intercom="240600593" code_arrondissement="62" code_departement="93" code_region_2015="93"/><polygon points="226,318 224,319 220,320 213,317 210,314 207,315 205,314 202,312 202,310 204,309 204,305 205,303 210,305 213,303 221,308 221,312 226,318" id="6044" class="commune" fill="steelblue" stroke-width="1" stroke="white" geotype="commune" geoname="Colle-sur-Loup" code_insee="6044" code_canton="627" code_intercom="240600585" code_arrondissement="61" code_departement="93" code_region_2015="93"/><polygon points="93,206 101,206 102,210 102,209 107,210 116,218 119,218 120,223 116,225 117,226 112,227 108,224 107,219 101,219 93,216 95,209 93,206" id="6045" class="commune" fill="steelblue" stroke-width="1" stroke="white" geotype="commune" geoname="Collongues" code_insee="6045" code_canton="611" code_intercom="200039857" code_arrondissement="61" code_departement="93" code_region_2015="93"/><polygon points="271,272 275,275 279,276 281,282 271,286 270,282 268,282 268,280 261,277 263,275 266,272 271,272" id="6046" class="commune" fill="steelblue" stroke-width="1" stroke="white" geotype="commune" geoname="Colomars" code_insee="6046" code_canton="624" code_intercom="200030195" code_arrondissement="62" code_departement="93" code_region_2015="93"/><polygon points="199,247 191,248 186,249 182,246 180,246 180,242 172,237 182,236 184,233 191,234 202,234 199,247" id="6047" class="commune" fill="steelblue" stroke-width="1" stroke="white" geotype="commune" geoname="Conségudes" code_insee="6047" code_canton="626" code_intercom="240600585" code_arrondissement="61" code_departement="93" code_region_2015="93"/><polygon points="305,240 309,238 316,247 322,249 326,248 330,253 330,256 333,257 333,259 331,264 327,265 324,268 318,267 317,266 315,267 313,264 308,260 309,257 307,254 308,252 306,250 308,248 305,240" id="6048" class="commune" fill="steelblue" stroke-width="1" stroke="white" geotype="commune" geoname="Contes" code_insee="6048" code_canton="610" code_intercom="240600593" code_arrondissement="62" code_departement="93" code_region_2015="93"/><polygon points="164,280 165,278 161,273 163,273 169,274 176,272 186,276 194,282 193,284 181,287 181,291 176,291 172,292 168,291 168,284 164,280" id="6049" class="commune" fill="steelblue" stroke-width="1" stroke="white" geotype="commune" geoname="Courmes" code_insee="6049" code_canton="625" code_intercom="240600585" code_arrondissement="61" code_departement="93" code_region_2015="93"/><polygon points="191,248 192,253 194,256 196,257 203,259 205,261 204,263 210,268 209,270 203,273 203,277 194,282 186,276 176,272 169,274 163,273 168,267 169,253 165,249 166,246 169,247 180,246 182,246 186,249 191,248" id="6050" class="commune" fill="steelblue" stroke-width="1" stroke="white" geotype="commune" geoname="Coursegoules" code_insee="6050" code_canton="626" code_intercom="240600585" code_arrondissement="61" code_departement="93" code_region_2015="93"/><polygon points="99,183 98,177 93,175 94,172 96,166 93,162 93,161 98,162 104,158 103,155 107,153 104,148 111,154 117,152 124,152 127,156 121,162 122,166 118,176 118,180 116,182 99,183" id="6051" class="commune" fill="steelblue" stroke-width="1" stroke="white" geotype="commune" geoname="Croix-sur-Roudoule" code_insee="6051" code_canton="626" code_intercom="200039931" code_arrondissement="62" code_departement="93" code_region_2015="93"/><polygon points="142,214 147,214 159,213 162,216 166,214 165,212 168,212 171,211 176,211 178,210 185,215 189,208 192,208 191,216 194,220 191,223 192,228 184,227 182,226 177,226 176,225 174,225 174,221 166,221 149,222 140,221 139,217 141,215 142,214" id="6052" class="commune" fill="steelblue" stroke-width="1" stroke="white" geotype="commune" geoname="Cuébris" code_insee="6052" code_canton="626" code_intercom="200039931" code_arrondissement="62" code_departement="93" code_region_2015="93"/><polygon points="75,163 72,156 66,156 52,147 53,139 58,130 61,132 65,136 74,138 84,142 88,143 95,149 98,147 104,148 107,153 103,155 104,158 98,162 93,161 93,162 88,164 82,163 78,161 75,163" id="6053" class="commune" fill="steelblue" stroke-width="1" stroke="white" geotype="commune" geoname="Daluis" code_insee="6053" code_canton="626" code_intercom="200039931" code_arrondissement="62" code_departement="93" code_region_2015="93"/><polygon points="315,278 322,272 321,274 324,275 336,276 335,280 331,282 316,283 315,284 315,282 316,281 315,278" id="6054" class="commune" fill="steelblue" stroke-width="1" stroke="white" geotype="commune" geoname="Drap" code_insee="6054" code_canton="610" code_intercom="240600593" code_arrondissement="62" code_departement="93" code_region_2015="93"/><polygon points="294,226 289,227 287,224 284,224 281,221 286,217 286,211 289,212 293,210 299,211 301,208 303,209 305,204 307,204 310,205 314,206 313,207 311,206 310,211 311,213 314,215 311,216 311,219 301,220 300,223 294,226" id="6055" class="commune" fill="steelblue" stroke-width="1" stroke="white" geotype="commune" geoname="Duranus" code_insee="6055" code_canton="624" code_intercom="200030195" code_arrondissement="62" code_departement="93" code_region_2015="93"/><polygon points="87,68 90,72 82,79 82,82 80,85 75,83 72,84 68,89 65,89 60,91 54,92 50,91 47,88 34,89 31,85 32,82 30,79 33,77 34,74 38,71 37,66 42,63 42,61 40,59 42,55 41,52 43,51 46,51 50,48 52,48 52,47 54,47 57,46 56,43 58,38 72,41 74,47 77,49 78,53 81,55 79,59 81,65 87,68" id="6056" class="commune" fill="steelblue" stroke-width="1" stroke="white" geotype="commune" geoname="Entraunes" code_insee="6056" code_canton="626" code_intercom="200039931" code_arrondissement="62" code_departement="93" code_region_2015="93"/><polygon points="339,249 337,251 339,253 334,256 333,255 331,245 329,246 327,241 328,239 324,235 330,235 331,236 333,236 332,240 336,241 338,239 343,239 343,237 346,236 346,238 350,239 351,240 350,244 339,249" id="6057" class="commune" fill="steelblue" stroke-width="1" stroke="white" geotype="commune" geoname="Escarène" code_insee="6057" code_canton="610" code_intercom="240600593" code_arrondissement="62" code_departement="93" code_region_2015="93"/><polygon points="69,283 74,284 80,283 87,288 95,291 95,293 88,294 87,296 82,294 80,295 80,299 77,301 74,306 72,305 71,306 71,308 65,308 65,303 61,300 61,295 56,293 57,290 55,287 51,288 39,288 37,287 47,284 50,281 60,283 65,282 69,283" id="6058" class="commune" fill="steelblue" stroke-width="1" stroke="white" geotype="commune" geoname="Escragnolles" code_insee="6058" code_canton="611" code_intercom="200039857" code_arrondissement="61" code_departement="93" code_region_2015="93"/><polygon points="349,293 349,294 345,295 342,297 334,295 329,299 327,295 318,295 317,294 318,293 322,292 322,292 328,288 332,288 334,286 340,288 340,285 342,285 341,289 348,288 349,290 349,293" id="6059" class="commune" fill="steelblue" stroke-width="1" stroke="white" geotype="commune" geoname="Èze" code_insee="6059" code_canton="604" code_intercom="200030195" code_arrondissement="62" code_departement="93" code_region_2015="93"/><polygon points="290,275 291,276 293,275 298,280 296,281 299,282 300,284 297,285 298,286 295,285 290,285 289,284 285,287 284,285 285,284 284,284 283,282 287,280 287,276 290,275" id="6060" class="commune" fill="steelblue" stroke-width="1" stroke="white" geotype="commune" geoname="Falicon" code_insee="6060" code_canton="624" code_intercom="200030195" code_arrondissement="62" code_departement="93" code_region_2015="93"/><polygon points="210,249 199,247 202,234 206,234 213,231 215,231 217,231 219,232 222,235 227,234 228,237 226,237 222,242 217,245 216,246 210,249" id="6061" class="commune" fill="steelblue" stroke-width="1" stroke="white" geotype="commune" geoname="Ferres" code_insee="6061" code_canton="626" code_intercom="240600585" code_arrondissement="61" code_departement="93" code_region_2015="93"/><polygon points="462,167 464,169 460,170 461,171 458,170 457,166 449,168 449,169 447,168 438,169 434,168 422,171 422,170 413,169 413,165 411,165 411,162 395,161 395,159 391,156 390,154 386,155 387,152 382,145 384,143 394,146 396,145 398,143 416,143 425,146 425,149 428,151 435,153 437,153 443,157 451,158 456,164 462,167" id="6062" class="commune" fill="steelblue" stroke-width="1" stroke="white" geotype="commune" geoname="Fontan" code_insee="6062" code_canton="610" code_intercom="240600551" code_arrondissement="62" code_departement="93" code_region_2015="93"/><polygon points="73,224 75,223 87,222 90,224 89,227 99,226 96,229 100,232 100,236 94,236 80,240 74,239 71,228 73,224" id="6063" class="commune" fill="steelblue" stroke-width="1" stroke="white" geotype="commune" geoname="Gars" code_insee="6063" code_canton="611" code_intercom="200039857" code_arrondissement="61" code_departement="93" code_region_2015="93"/><polygon points="229,264 230,263 231,266 235,268 245,272 250,271 255,272 257,275 263,275 261,277 254,284 240,279 239,277 232,270 229,264" id="6064" class="commune" fill="steelblue" stroke-width="1" stroke="white" geotype="commune" geoname="Gattières" code_insee="6064" code_canton="617" code_intercom="200030195" code_arrondissement="61" code_departement="93" code_region_2015="93"/><polygon points="244,309 241,309 238,306 234,305 234,298 237,294 235,294 234,295 232,293 232,290 239,286 242,288 249,286 253,286 254,297 249,297 247,298 246,307 245,306 244,309" id="6065" class="commune" fill="steelblue" stroke-width="1" stroke="white" geotype="commune" geoname="Gaude" code_insee="6065" code_canton="606" code_intercom="200030195" code_arrondissement="61" code_departement="93" code_region_2015="93"/><polygon points="259,239 257,244 255,248 254,249 248,242 242,238 237,238 234,240 231,238 229,238 228,237 227,234 227,232 231,230 233,231 242,230 246,231 247,234 259,239" id="6066" class="commune" fill="steelblue" stroke-width="1" stroke="white" geotype="commune" geoname="Gilette" code_insee="6066" code_canton="626" code_intercom="200030195" code_arrondissement="62" code_departement="93" code_region_2015="93"/><polygon points="386,270 382,269 379,271 377,270 373,271 370,270 364,267 364,265 366,263 365,260 373,259 381,265 387,268 386,270" id="6067" class="commune" fill="steelblue" stroke-width="1" stroke="white" geotype="commune" geoname="Gorbio" code_insee="6067" code_canton="614" code_intercom="240600551" code_arrondissement="62" code_departement="93" code_region_2015="93"/><polygon points="164,299 159,299 158,301 160,304 157,303 150,306 146,303 136,307 134,298 139,295 143,287 149,284 150,285 158,286 161,285 161,281 164,280 168,284 168,291 164,299" id="6068" class="commune" fill="steelblue" stroke-width="1" stroke="white" geotype="commune" geoname="Gourdon" code_insee="6068" code_canton="625" code_intercom="240600585" code_arrondissement="61" code_departement="93" code_region_2015="93"/><polygon points="136,345 136,344 133,343 130,340 127,341 124,341 119,338 120,330 121,325 116,320 117,318 119,316 122,318 122,316 130,314 130,310 125,307 127,307 126,306 140,308 150,312 153,313 155,315 150,318 152,324 156,327 156,329 163,332 159,333 158,335 153,337 153,340 149,339 141,339 138,343 138,344 136,345" id="6069" class="commune" fill="steelblue" stroke-width="1" stroke="white" geotype="commune" geoname="Grasse" code_insee="6069" code_canton="698" code_intercom="200039857" code_arrondissement="61" code_departement="93" code_region_2015="93"/><polygon points="128,245 137,245 150,243 165,249 169,253 168,267 163,273 161,273 156,265 152,264 131,265 124,264 120,265 116,266 113,265 104,267 104,250 128,245" id="6070" class="commune" fill="steelblue" stroke-width="1" stroke="white" geotype="commune" geoname="Gréolières" code_insee="6070" code_canton="625" code_intercom="240600585" code_arrondissement="61" code_departement="93" code_region_2015="93"/><polygon points="104,148 98,147 95,149 88,143 84,142 74,138 76,138 86,134 92,135 97,138 99,138 100,137 99,135 100,130 99,130 100,129 96,122 86,118 83,118 86,115 87,116 92,116 96,110 99,108 98,106 101,104 102,101 98,99 102,93 106,89 113,88 122,91 122,92 119,100 115,105 118,111 115,116 117,122 122,121 126,122 136,121 135,128 140,132 137,137 142,143 142,148 139,147 134,147 128,146 129,150 124,152 117,152 111,154 104,148" id="6071" class="commune" fill="steelblue" stroke-width="1" stroke="white" geotype="commune" geoname="Guillaumes" code_insee="6071" code_canton="626" code_intercom="200039931" code_arrondissement="62" code_departement="93" code_region_2015="93"/><polygon points="228,146 228,147 227,149 229,151 229,161 215,165 212,168 212,171 207,171 206,169 204,169 201,165 202,164 194,157 194,155 197,154 196,152 197,149 193,146 194,142 191,140 199,134 202,136 207,135 208,138 213,135 219,135 221,137 223,142 228,145 228,146" id="6072" class="commune" fill="steelblue" stroke-width="1" stroke="white" geotype="commune" geoname="Ilonse" code_insee="6072" code_canton="624" code_intercom="200030195" code_arrondissement="62" code_departement="93" code_region_2015="93"/><polygon points="178,60 179,59 181,61 183,60 184,63 187,64 195,61 198,63 201,60 205,60 209,61 211,66 215,65 221,67 235,75 237,75 244,71 251,76 256,75 258,81 258,85 255,84 245,89 235,87 232,88 232,91 231,91 228,89 218,92 217,93 219,98 213,99 211,96 198,100 195,98 192,98 187,96 175,94 165,92 164,93 160,93 157,93 157,90 159,79 165,74 172,77 173,76 181,66 178,66 178,60" id="6073" class="commune" fill="steelblue" stroke-width="1" stroke="white" geotype="commune" geoname="Isola" code_insee="6073" code_canton="624" code_intercom="200030195" code_arrondissement="62" code_departement="93" code_region_2015="93"/><polygon points="284,159 286,159 291,163 302,166 303,169 306,171 313,168 315,169 316,172 316,176 322,177 325,180 330,182 337,181 344,182 342,188 339,191 339,195 336,193 330,193 323,191 317,191 315,195 310,193 307,195 304,194 297,193 292,188 291,183 288,181 290,179 288,177 290,175 288,173 289,172 287,172 281,166 284,164 284,159" id="6074" class="commune" fill="steelblue" stroke-width="1" stroke="white" geotype="commune" geoname="Lantosque" code_insee="6074" code_canton="624" code_intercom="200030195" code_arrondissement="62" code_departement="93" code_region_2015="93"/><polygon points="281,221 284,224 287,224 289,227 294,226 295,237 296,248 292,249 287,250 285,247 281,246 280,245 274,248 273,250 269,251 269,248 272,246 268,244 264,241 263,237 259,236 260,232 267,231 269,226 281,221" id="6075" class="commune" fill="steelblue" stroke-width="1" stroke="white" geotype="commune" geoname="Levens" code_insee="6075" code_canton="624" code_intercom="200030195" code_arrondissement="62" code_departement="93" code_region_2015="93"/><polygon points="194,157 202,164 201,165 198,165 194,167 193,169 189,168 185,170 184,172 175,175 173,170 171,169 172,164 177,163 185,159 194,157" id="6076" class="commune" fill="steelblue" stroke-width="1" stroke="white" geotype="commune" geoname="Lieuche" code_insee="6076" code_canton="626" code_intercom="200039931" code_arrondissement="62" code_departement="93" code_region_2015="93"/><polygon points="310,205 304,197 304,194 307,195 310,193 315,195 317,191 323,191 330,193 336,193 339,195 345,196 345,198 349,198 348,200 350,200 348,203 353,209 352,211 353,214 350,218 352,218 351,223 354,225 355,229 357,230 357,235 354,234 355,230 353,232 350,232 347,230 343,231 344,233 340,233 338,235 336,234 335,235 334,234 333,236 331,236 330,235 324,235 324,234 321,232 318,230 318,223 314,215 311,213 310,211 311,206 313,207 314,206 310,205" id="6077" class="commune" fill="steelblue" stroke-width="1" stroke="white" geotype="commune" geoname="Lucéram" code_insee="6077" code_canton="610" code_intercom="240600593" code_arrondissement="62" code_departement="93" code_region_2015="93"/><polygon points="219,199 223,199 226,196 231,199 234,197 241,203 246,204 254,208 256,210 258,208 259,211 255,213 257,215 255,216 254,217 252,215 245,213 244,216 241,215 234,212 228,208 220,207 216,208 213,205 206,206 207,204 209,201 211,200 214,200 219,199" id="6078" class="commune" fill="steelblue" stroke-width="1" stroke="white" geotype="commune" geoname="Malaussène" code_insee="6078" code_canton="626" code_intercom="200039931" code_arrondissement="62" code_departement="93" code_region_2015="93"/><polygon points="142,365 143,365 145,366 147,366 148,368 147,370 149,372 148,374 146,374 146,377 149,377 147,382 146,385 144,385 145,385 146,386 144,388 145,385 142,388 142,390 141,391 142,390 140,390 130,391 130,394 124,400 120,397 115,396 121,389 121,385 113,384 113,383 117,373 122,371 123,368 125,368 129,369 134,365 142,365" id="6079" class="commune" fill="steelblue" stroke-width="1" stroke="white" geotype="commune" geoname="Mandelieu-la-Napoule" code_insee="6079" code_canton="613" code_intercom="200039915" code_arrondissement="61" code_departement="93" code_region_2015="93"/><polygon points="229,161 229,161 229,151 227,149 228,147 229,146 232,147 236,146 240,142 245,145 256,144 264,146 264,148 261,148 254,149 250,152 249,153 251,154 245,155 244,156 243,156 242,157 238,157 239,158 239,162 233,162 229,161" id="6080" class="commune" fill="steelblue" stroke-width="1" stroke="white" geotype="commune" geoname="Marie" code_insee="6080" code_canton="624" code_intercom="200030195" code_arrondissement="62" code_departement="93" code_region_2015="93"/><polygon points="126,229 127,233 131,236 129,238 130,243 128,245 104,250 78,254 80,251 76,246 76,243 80,240 94,236 100,236 121,232 126,229" id="6081" class="commune" fill="steelblue" stroke-width="1" stroke="white" geotype="commune" geoname="Mas" code_insee="6081" code_canton="611" code_intercom="200039857" code_arrondissement="61" code_departement="93" code_region_2015="93"/><polygon points="212,171 215,171 219,178 221,179 220,185 225,187 229,186 234,189 238,197 241,198 243,201 247,201 246,204 241,203 234,197 231,199 226,196 223,199 219,199 217,186 219,181 214,178 212,171" id="6082" class="commune" fill="steelblue" stroke-width="1" stroke="white" geotype="commune" geoname="Massoins" code_insee="6082" code_canton="626" code_intercom="200039931" code_arrondissement="62" code_departement="93" code_region_2015="93"/><polygon points="392,248 394,251 393,257 394,258 394,257 395,257 396,261 400,262 403,262 403,260 405,262 408,258 413,264 413,267 406,267 410,267 404,268 403,269 405,270 404,271 405,270 404,271 399,272 394,275 390,274 386,270 387,268 390,265 389,264 390,261 388,259 387,254 385,252 386,250 384,248 390,247 392,248" id="6083" class="commune" fill="steelblue" stroke-width="1" stroke="white" geotype="commune" geoname="Menton" code_insee="6083" code_canton="614" code_intercom="240600551" code_arrondissement="62" code_departement="93" code_region_2015="93"/><polygon points="163,332 164,333 163,335 164,338 168,340 168,343 170,343 169,343 167,345 165,344 159,346 156,343 148,352 143,353 139,349 138,344 138,343 141,339 149,339 153,340 153,337 158,335 159,333 163,332" id="6084" class="commune" fill="steelblue" stroke-width="1" stroke="white" geotype="commune" geoname="Mouans-Sartoux" code_insee="6084" code_canton="612" code_intercom="200039857" code_arrondissement="61" code_departement="93" code_region_2015="93"/><polygon points="155,366 152,364 151,361 153,359 153,353 148,352 156,343 159,346 165,344 167,345 169,343 170,343 178,346 186,346 194,351 192,354 189,354 186,360 182,360 177,357 176,361 174,360 166,361 155,366" id="6085" class="commune" fill="steelblue" stroke-width="1" stroke="white" geotype="commune" geoname="Mougins" code_insee="6085" code_canton="609" code_intercom="200039915" code_arrondissement="61" code_departement="93" code_region_2015="93"/><polygon points="365,168 369,170 372,175 373,177 371,178 372,180 374,180 376,184 375,186 380,191 379,195 376,197 372,200 369,199 363,203 359,202 360,205 357,204 358,207 357,207 356,212 353,209 348,203 350,200 348,200 349,198 345,198 345,196 339,195 339,191 342,188 344,182 349,179 349,176 354,172 356,172 360,169 365,168" id="6086" class="commune" fill="steelblue" stroke-width="1" stroke="white" geotype="commune" geoname="Moulinet" code_insee="6086" code_canton="610" code_intercom="240600551" code_arrondissement="62" code_departement="93" code_region_2015="93"/><polygon points="87,222 90,222 89,217 93,216 101,219 107,219 108,224 112,227 117,226 119,226 119,229 123,228 125,226 126,229 121,232 100,236 100,232 96,229 99,226 89,227 90,224 87,222" id="6087" class="commune" fill="steelblue" stroke-width="1" stroke="white" geotype="commune" geoname="Mujouls" code_insee="6087" code_canton="611" code_intercom="200039857" code_arrondissement="61" code_departement="93" code_region_2015="93"/><polygon points="317,294 318,295 314,296 313,298 307,303 307,305 311,309 309,312 304,312 304,310 300,308 301,306 299,308 302,310 295,308 283,310 275,315 275,321 272,325 272,323 270,325 271,326 267,329 261,331 261,330 263,328 261,326 261,324 255,310 254,297 253,286 254,284 261,277 268,280 268,282 270,282 271,286 281,282 283,282 284,284 285,284 284,285 285,287 289,284 290,285 295,285 298,286 300,289 305,289 306,287 305,283 306,280 305,278 307,280 311,281 313,284 311,288 304,290 309,296 310,293 314,295 317,294" id="6088" class="commune" fill="steelblue" stroke-width="1" stroke="white" geotype="commune" geoname="Nice" code_insee="6088" code_canton="699" code_intercom="200030195" code_arrondissement="62" code_departement="93" code_region_2015="93"/><polygon points="169,332 164,325 161,323 159,323 157,321 160,318 166,320 170,319 172,321 175,322 182,321 182,323 187,324 189,328 180,328 176,331 173,329 172,332 169,332" id="6089" class="commune" fill="steelblue" stroke-width="1" stroke="white" geotype="commune" geoname="Opio" code_insee="6089" code_canton="625" code_intercom="240600585" code_arrondissement="61" code_departement="93" code_region_2015="93"/><polygon points="143,353 143,354 136,359 142,365 134,365 129,369 125,368 127,368 126,364 122,360 128,352 130,353 136,345 138,344 139,349 143,353" id="6090" class="commune" fill="steelblue" stroke-width="1" stroke="white" geotype="commune" geoname="Pégomas" code_insee="6090" code_canton="613" code_intercom="200039857" code_arrondissement="61" code_departement="93" code_region_2015="93"/><polygon points="365,278 360,280 356,280 354,275 349,279 346,277 350,273 349,271 351,267 350,266 342,264 345,258 344,257 344,252 342,249 339,249 350,244 351,240 350,239 346,238 346,236 348,235 352,236 354,234 357,235 358,239 366,237 371,239 375,247 375,253 372,256 375,258 373,259 365,260 366,263 364,265 364,267 370,270 369,278 365,278" id="6091" class="commune" fill="steelblue" stroke-width="1" stroke="white" geotype="commune" geoname="Peille" code_insee="6091" code_canton="610" code_intercom="240600593" code_arrondissement="62" code_departement="93" code_region_2015="93"/><polygon points="346,277 338,277 335,280 336,276 324,275 330,271 336,269 340,264 342,264 350,266 351,267 349,271 350,273 346,277" id="6092" class="commune" fill="steelblue" stroke-width="1" stroke="white" geotype="commune" geoname="Peillon" code_insee="6092" code_canton="610" code_intercom="240600593" code_arrondissement="62" code_departement="93" code_region_2015="93"/><polygon points="123,201 119,199 128,196 130,194 136,195 141,194 141,195 145,196 151,194 156,196 160,197 159,201 156,203 150,210 148,211 147,214 142,214 142,212 136,209 129,200 123,201" id="6093" class="commune" fill="steelblue" stroke-width="1" stroke="white" geotype="commune" geoname="Penne" code_insee="6093" code_canton="626" code_intercom="200039931" code_arrondissement="62" code_departement="93" code_region_2015="93"/><polygon points="113,88 116,84 121,80 124,79 129,80 127,91 134,95 146,99 150,103 153,105 152,108 156,110 155,112 152,113 153,115 150,116 150,119 145,122 149,130 140,132 135,128 136,121 126,122 122,121 117,122 115,116 118,111 115,105 119,100 122,92 122,91 113,88" id="6094" class="commune" fill="steelblue" stroke-width="1" stroke="white" geotype="commune" geoname="Péone" code_insee="6094" code_canton="626" code_intercom="200039931" code_arrondissement="62" code_departement="93" code_region_2015="93"/><polygon points="120,346 115,349 109,341 109,339 106,338 104,335 105,333 104,331 105,330 108,330 117,328 120,330 119,338 124,341 123,343 121,344 120,346" id="6095" class="commune" fill="steelblue" stroke-width="1" stroke="white" geotype="commune" geoname="Peymeinade" code_insee="6095" code_canton="611" code_intercom="200039857" code_arrondissement="61" code_departement="93" code_region_2015="93"/><polygon points="191,140 194,142 193,146 197,149 196,152 197,154 194,155 194,157 185,159 177,163 172,164 167,166 161,162 161,159 158,156 159,150 159,147 163,147 170,144 172,141 179,137 182,137 191,140" id="6096" class="commune" fill="steelblue" stroke-width="1" stroke="white" geotype="commune" geoname="Pierlas" code_insee="6096" code_canton="626" code_intercom="200039931" code_arrondissement="62" code_departement="93" code_region_2015="93"/><polygon points="196,203 201,205 207,204 206,206 207,208 210,210 206,213 205,217 212,219 215,224 215,231 213,231 206,234 202,234 191,234 194,230 192,228 191,223 194,220 191,216 192,208 196,203" id="6097" class="commune" fill="steelblue" stroke-width="1" stroke="white" geotype="commune" geoname="Pierrefeu" code_insee="6097" code_canton="626" code_intercom="200039931" code_arrondissement="62" code_departement="93" code_region_2015="93"/><polygon points="142,149 145,150 142,153 142,161 151,173 158,177 153,182 149,184 148,186 138,185 132,186 126,184 124,183 119,182 118,181 124,179 126,177 140,173 141,171 142,164 135,165 132,169 130,165 132,163 132,160 130,159 130,156 138,155 142,149" id="6098" class="commune" fill="steelblue" stroke-width="1" stroke="white" geotype="commune" geoname="Puget-Rostang" code_insee="6098" code_canton="626" code_intercom="200039931" code_arrondissement="62" code_departement="93" code_region_2015="93"/><polygon points="116,182 116,183 119,182 124,183 126,184 132,186 138,185 148,186 150,187 148,190 151,191 151,194 145,196 141,195 141,194 136,195 130,194 128,196 119,199 111,192 111,189 99,188 99,183 116,182" id="6099" class="commune" fill="steelblue" stroke-width="1" stroke="white" geotype="commune" geoname="Puget-Théniers" code_insee="6099" code_canton="626" code_intercom="200039931" code_arrondissement="62" code_departement="93" code_region_2015="93"/><polygon points="256,223 253,225 250,225 249,226 242,229 241,227 237,224 238,216 241,215 244,216 245,213 252,215 254,217 255,216 256,223" id="6100" class="commune" fill="steelblue" stroke-width="1" stroke="white" geotype="commune" geoname="Revest-les-Roches" code_insee="6100" code_canton="626" code_intercom="200039931" code_arrondissement="62" code_departement="93" code_region_2015="93"/><polygon points="166,187 163,191 162,190 151,191 148,190 150,187 148,186 149,184 153,182 158,177 151,173 142,161 142,153 145,150 152,150 154,149 159,150 158,156 161,159 161,162 167,166 172,164 171,169 173,170 175,175 172,177 174,183 166,187" id="6101" class="commune" fill="steelblue" stroke-width="1" stroke="white" geotype="commune" geoname="Rigaud" code_insee="6101" code_canton="626" code_intercom="200039931" code_arrondissement="62" code_departement="93" code_region_2015="93"/><polygon points="228,146 228,145 223,142 221,137 226,131 225,130 227,126 226,122 231,112 230,107 234,106 240,100 240,97 244,96 246,103 246,103 249,109 250,115 248,117 244,116 239,123 241,126 238,131 235,137 232,136 230,139 231,144 228,146" id="6102" class="commune" fill="steelblue" stroke-width="1" stroke="white" geotype="commune" geoname="Rimplas" code_insee="6102" code_canton="624" code_intercom="200030195" code_arrondissement="62" code_departement="93" code_region_2015="93"/><polygon points="318,168 315,169 313,168 306,171 303,169 302,166 291,163 286,159 294,146 300,148 302,147 303,146 300,146 303,142 303,139 310,138 315,139 317,140 318,144 315,145 311,150 314,153 313,155 315,158 313,164 315,163 315,165 318,168" id="6103" class="commune" fill="steelblue" stroke-width="1" stroke="white" geotype="commune" geoname="Roquebillière" code_insee="6103" code_canton="624" code_intercom="200030195" code_arrondissement="62" code_departement="93" code_region_2015="93"/><polygon points="370,281 365,278 369,278 370,270 373,271 377,270 379,271 382,269 386,270 390,274 394,275 391,279 394,281 393,283 388,282 382,278 378,278 374,282 371,283 370,281" id="6104" class="commune" fill="steelblue" stroke-width="1" stroke="white" geotype="commune" geoname="Roquebrune-Cap-Martin" code_insee="6104" code_canton="614" code_intercom="240600551" code_arrondissement="62" code_departement="93" code_region_2015="93"/><polygon points="180,308 185,305 193,307 197,307 197,308 199,308 199,311 202,310 202,312 205,314 207,315 210,314 213,317 210,316 209,317 208,320 206,321 202,329 198,330 194,330 193,331 189,328 187,324 182,323 182,321 180,314 177,310 180,308" id="6105" class="commune" fill="steelblue" stroke-width="1" stroke="white" geotype="commune" geoname="Roquefort-les-Pins" code_insee="6105" code_canton="627" code_intercom="240600585" code_arrondissement="61" code_departement="93" code_region_2015="93"/><polygon points="191,234 184,233 182,232 178,233 177,230 173,229 172,226 165,225 166,221 174,221 174,225 176,225 177,226 182,226 184,227 192,228 194,230 191,234" id="6106" class="commune" fill="steelblue" stroke-width="1" stroke="white" geotype="commune" geoname="Roquestéron" code_insee="6106" code_canton="626" code_intercom="200039931" code_arrondissement="62" code_departement="93" code_region_2015="93"/><polygon points="150,243 146,237 148,232 151,231 151,229 156,229 156,228 159,227 158,226 161,225 165,225 172,226 173,229 177,230 178,233 182,232 184,233 182,236 172,237 180,242 180,246 169,247 166,246 165,249 150,243" id="6107" class="commune" fill="steelblue" stroke-width="1" stroke="white" geotype="commune" geoname="Roquestéron-Grasse" code_insee="6107" code_canton="626" code_intercom="240600585" code_arrondissement="61" code_departement="93" code_region_2015="93"/><polygon points="143,365 142,365 136,359 143,354 143,353 148,352 153,353 153,359 151,361 152,364 148,363 143,365" id="6108" class="commune" fill="steelblue" stroke-width="1" stroke="white" geotype="commune" geoname="Roquette-sur-Siagne" code_insee="6108" code_canton="613" code_intercom="200039857" code_arrondissement="61" code_departement="93" code_region_2015="93"/><polygon points="259,239 259,236 263,237 264,241 268,244 272,246 269,248 269,251 269,252 266,251 267,249 264,246 261,248 258,248 259,245 257,244 259,239" id="6109" class="commune" fill="steelblue" stroke-width="1" stroke="white" geotype="commune" geoname="Roquette-sur-Var" code_insee="6109" code_canton="624" code_intercom="200030195" code_arrondissement="62" code_departement="93" code_region_2015="93"/><polygon points="160,93 164,93 165,92 175,94 177,101 184,104 180,107 184,113 194,121 195,124 200,126 199,134 191,140 182,137 178,132 180,128 179,123 181,117 172,114 171,108 166,106 166,99 160,93" id="6110" class="commune" fill="steelblue" stroke-width="1" stroke="white" geotype="commune" geoname="Roubion" code_insee="6110" code_canton="624" code_intercom="200030195" code_arrondissement="62" code_departement="93" code_region_2015="93"/><polygon points="207,135 202,136 199,134 200,126 195,124 194,121 184,113 180,107 184,104 177,101 175,94 187,96 192,98 195,98 198,100 211,96 213,99 215,107 211,110 211,113 215,117 218,126 215,126 207,135" id="6111" class="commune" fill="steelblue" stroke-width="1" stroke="white" geotype="commune" geoname="Roure" code_insee="6111" code_canton="624" code_intercom="200030195" code_arrondissement="62" code_departement="93" code_region_2015="93"/><polygon points="163,312 169,310 171,307 180,307 180,308 177,310 180,314 182,321 175,322 172,321 170,319 166,320 166,316 169,315 166,312 163,312" id="6112" class="commune" fill="steelblue" stroke-width="1" stroke="white" geotype="commune" geoname="Rouret" code_insee="6112" code_canton="625" code_intercom="240600585" code_arrondissement="61" code_departement="93" code_region_2015="93"/><polygon points="375,247 381,249 384,248 386,250 385,252 387,254 388,259 390,261 389,264 390,265 387,268 381,265 373,259 375,258 372,256 375,253 375,247" id="6113" class="commune" fill="steelblue" stroke-width="1" stroke="white" geotype="commune" geoname="Sainte-Agnès" code_insee="6113" code_canton="614" code_intercom="240600551" code_arrondissement="62" code_departement="93" code_region_2015="93"/><polygon points="298,286 297,285 300,284 299,282 296,281 298,280 301,281 302,279 306,280 305,283 306,287 305,289 300,289 298,286" id="6114" class="commune" fill="steelblue" stroke-width="1" stroke="white" geotype="commune" geoname="Saint-André-de-la-Roche" code_insee="6114" code_canton="621" code_intercom="200030195" code_arrondissement="62" code_departement="93" code_region_2015="93"/><polygon points="147,214 148,211 150,210 156,203 159,204 161,203 162,204 165,205 165,212 166,214 162,216 159,213 147,214" id="6115" class="commune" fill="steelblue" stroke-width="1" stroke="white" geotype="commune" geoname="Saint-Antonin" code_insee="6115" code_canton="626" code_intercom="200039931" code_arrondissement="62" code_departement="93" code_region_2015="93"/><polygon points="15,245 16,240 20,237 20,235 32,233 41,232 43,233 44,236 61,237 65,240 74,239 80,240 76,243 76,246 80,251 78,254 73,256 69,255 63,256 55,257 35,254 36,252 32,248 20,245 15,245" id="6116" class="commune" fill="steelblue" stroke-width="1" stroke="white" geotype="commune" geoname="Saint-Auban" code_insee="6116" code_canton="611" code_intercom="200039857" code_arrondissement="61" code_departement="93" code_region_2015="93"/><polygon points="287,250 284,255 281,255 280,257 276,256 272,258 270,260 267,260 264,261 261,259 263,256 267,254 269,252 269,251 273,250 274,248 280,245 281,246 285,247 287,250" id="6117" class="commune" fill="steelblue" stroke-width="1" stroke="white" geotype="commune" geoname="Saint-Blaise" code_insee="6117" code_canton="624" code_intercom="200030195" code_arrondissement="62" code_departement="93" code_region_2015="93"/><polygon points="65,308 71,308 74,313 83,316 93,323 99,324 97,329 88,341 83,337 78,339 76,339 73,336 74,334 72,331 66,324 61,324 59,321 59,314 61,312 60,311 65,308" id="6118" class="commune" fill="steelblue" stroke-width="1" stroke="white" geotype="commune" geoname="Saint-Cézaire-sur-Siagne" code_insee="6118" code_canton="611" code_intercom="200039857" code_arrondissement="61" code_departement="93" code_region_2015="93"/><polygon points="75,22 80,19 81,15 87,14 95,7 100,7 103,9 106,7 116,14 115,16 116,20 123,22 124,26 123,35 124,38 118,41 116,41 105,45 107,47 105,48 99,49 95,54 97,57 93,59 93,64 87,68 81,65 79,59 81,55 78,53 77,49 74,47 72,41 70,34 75,29 74,23 75,22" id="6119" class="commune" fill="steelblue" stroke-width="1" stroke="white" geotype="commune" geoname="Saint-Dalmas-le-Selvage" code_insee="6119" code_canton="624" code_intercom="200030195" code_arrondissement="62" code_departement="93" code_region_2015="93"/><polygon points="90,72 87,68 93,64 93,59 97,57 95,54 99,49 105,48 107,47 105,45 116,41 118,41 124,38 123,35 124,26 123,22 116,20 115,16 116,14 106,7 109,5 117,0 133,5 132,8 135,14 140,16 140,17 147,20 150,24 149,31 155,31 154,35 156,36 160,35 167,38 167,51 173,59 178,60 178,66 181,66 173,76 172,77 165,74 159,79 157,90 157,93 151,92 152,87 146,77 136,81 129,80 124,79 121,80 116,84 113,88 110,82 94,77 90,72" id="6120" class="commune" fill="steelblue" stroke-width="1" stroke="white" geotype="commune" geoname="Saint-Étienne-de-Tinée" code_insee="6120" code_canton="624" code_intercom="200030195" code_arrondissement="62" code_departement="93" code_region_2015="93"/><polygon points="319,305 321,304 323,311 323,309 326,312 330,312 326,313 325,312 325,313 323,312 323,315 321,317 319,317 317,311 316,309 319,307 318,305 319,305" id="6121" class="commune" fill="steelblue" stroke-width="1" stroke="white" geotype="commune" geoname="Saint-Jean-Cap-Ferrat" code_insee="6121" code_canton="604" code_intercom="200030195" code_arrondissement="62" code_departement="93" code_region_2015="93"/><polygon points="220,269 227,266 229,264 232,270 239,277 240,279 254,284 253,286 249,286 242,288 239,286 232,290 231,286 228,281 224,279 223,277 221,276 220,269" id="6122" class="commune" fill="steelblue" stroke-width="1" stroke="white" geotype="commune" geoname="Saint-Jeannet" code_insee="6122" code_canton="626" code_intercom="200030195" code_arrondissement="61" code_departement="93" code_region_2015="93"/><polygon points="254,297 255,310 261,324 261,326 258,325 252,326 251,326 254,326 254,325 250,326 252,322 250,317 251,313 250,308 244,309 245,306 246,307 247,298 249,297 254,297" id="6123" class="commune" fill="steelblue" stroke-width="1" stroke="white" geotype="commune" geoname="Saint-Laurent-du-Var" code_insee="6123" code_canton="606" code_intercom="200030195" code_arrondissement="61" code_departement="93" code_region_2015="93"/><polygon points="94,172 75,163 78,161 82,163 88,164 93,162 96,166 94,172" id="6124" class="commune" fill="steelblue" stroke-width="1" stroke="white" geotype="commune" geoname="Saint-Léger" code_insee="6124" code_canton="626" code_intercom="200039931" code_arrondissement="62" code_departement="93" code_region_2015="93"/><polygon points="43,115 40,112 35,109 34,103 35,100 31,97 32,94 26,89 31,85 34,89 47,88 50,91 54,92 60,91 65,89 68,89 72,84 75,83 80,85 84,86 82,93 70,100 70,104 65,108 55,109 43,115" id="6125" class="commune" fill="steelblue" stroke-width="1" stroke="white" geotype="commune" geoname="Saint-Martin-d'Entraunes" code_insee="6125" code_canton="626" code_intercom="200039931" code_arrondissement="62" code_departement="93" code_region_2015="93"/><polygon points="258,257 253,252 253,250 256,250 255,248 257,244 259,245 258,248 261,248 264,246 267,249 266,251 269,252 267,254 263,256 261,259 258,257" id="6126" class="commune" fill="steelblue" stroke-width="1" stroke="white" geotype="commune" geoname="Saint-Martin-du-Var" code_insee="6126" code_canton="624" code_intercom="200030195" code_arrondissement="62" code_departement="93" code_region_2015="93"/><polygon points="347,110 348,117 346,122 348,126 346,128 347,130 341,135 336,138 333,136 332,133 322,132 318,133 311,133 303,134 303,139 303,142 300,146 303,146 302,147 300,148 294,146 290,144 287,138 281,137 277,138 279,135 276,131 277,130 277,124 279,124 278,122 280,116 280,112 273,110 273,107 273,106 275,106 275,104 282,102 286,102 287,102 287,100 290,99 294,99 299,102 302,100 305,101 309,100 311,101 312,99 317,101 328,100 328,104 334,114 338,113 347,110" id="6127" class="commune" fill="steelblue" stroke-width="1" stroke="white" geotype="commune" geoname="Saint-Martin-Vésubie" code_insee="6127" code_canton="624" code_intercom="200030195" code_arrondissement="62" code_departement="93" code_region_2015="93"/><polygon points="235,309 230,313 230,317 226,318 221,312 221,308 213,303 220,300 224,300 229,303 231,308 235,309" id="6128" class="commune" fill="steelblue" stroke-width="1" stroke="white" geotype="commune" geoname="Saint-Paul-de-Vence" code_insee="6128" code_canton="627" code_intercom="240600585" code_arrondissement="61" code_departement="93" code_region_2015="93"/><polygon points="231,91 234,94 239,93 244,96 240,97 240,100 234,106 230,107 231,112 226,122 227,126 225,130 226,131 221,137 219,135 213,135 208,138 207,135 215,126 218,126 215,117 211,113 211,110 215,107 213,99 219,98 217,93 218,92 228,89 231,91" id="6129" class="commune" fill="steelblue" stroke-width="1" stroke="white" geotype="commune" geoname="Saint-Sauveur-sur-Tinée" code_insee="6129" code_canton="624" code_intercom="200030195" code_arrondissement="62" code_departement="93" code_region_2015="93"/><polygon points="95,291 107,288 110,290 107,292 107,294 114,299 122,299 126,306 127,307 125,307 130,310 130,314 122,316 122,318 119,316 117,318 114,318 105,321 99,324 93,323 83,316 74,313 71,308 71,306 72,305 74,306 77,301 80,299 80,295 82,294 87,296 88,294 95,293 95,291" id="6130" class="commune" fill="steelblue" stroke-width="1" stroke="white" geotype="commune" geoname="Saint-Vallier-de-Thiey" code_insee="6130" code_canton="611" code_intercom="200039857" code_arrondissement="61" code_departement="93" code_region_2015="93"/><polygon points="119,218 124,216 131,216 141,215 139,217 140,221 139,223 137,223 137,225 133,228 133,229 126,229 125,226 123,228 119,229 119,226 117,226 116,225 120,223 119,218" id="6131" class="commune" fill="steelblue" stroke-width="1" stroke="white" geotype="commune" geoname="Sallagriffon" code_insee="6131" code_canton="626" code_intercom="200039931" code_arrondissement="61" code_departement="93" code_region_2015="93"/><polygon points="432,191 430,191 425,187 419,184 411,184 407,182 402,175 393,174 380,168 373,168 368,167 364,160 359,157 364,153 364,150 362,147 364,144 368,145 369,147 376,147 382,145 387,152 386,155 390,154 391,156 395,159 395,161 411,162 411,165 413,165 413,169 422,170 422,171 434,168 438,169 447,168 449,169 449,168 457,166 458,170 461,171 460,170 464,169 462,167 470,165 474,160 478,168 474,171 475,173 471,174 470,179 465,179 451,188 445,187 438,188 437,191 436,190 434,191 434,192 432,191" id="6132" class="commune" fill="steelblue" stroke-width="1" stroke="white" geotype="commune" geoname="Saorge" code_insee="6132" code_canton="610" code_intercom="240600551" code_arrondissement="62" code_departement="93" code_region_2015="93"/><polygon points="58,130 54,127 61,123 61,121 71,118 72,116 76,118 81,119 83,119 83,118 86,118 96,122 100,129 99,130 100,130 99,135 100,137 99,138 97,138 92,135 86,134 76,138 74,138 65,136 61,132 58,130" id="6133" class="commune" fill="steelblue" stroke-width="1" stroke="white" geotype="commune" geoname="Sauze" code_insee="6133" code_canton="626" code_intercom="200039931" code_arrondissement="62" code_departement="93" code_region_2015="93"/><polygon points="12,284 10,284 8,276 2,274 5,271 4,269 1,268 0,264 6,266 7,267 20,270 40,268 42,270 44,276 50,281 47,284 37,287 37,285 32,281 22,279 12,284" id="6134" class="commune" fill="steelblue" stroke-width="1" stroke="white" geotype="commune" geoname="Séranon" code_insee="6134" code_canton="611" code_intercom="200039857" code_arrondissement="61" code_departement="93" code_region_2015="93"/><polygon points="151,229 146,229 144,224 139,223 140,221 149,222 166,221 165,225 161,225 158,226 159,227 156,228 156,229 151,229" id="6135" class="commune" fill="steelblue" stroke-width="1" stroke="white" geotype="commune" geoname="Sigale" code_insee="6135" code_canton="626" code_intercom="200039931" code_arrondissement="62" code_departement="93" code_region_2015="93"/><polygon points="376,197 379,200 378,202 383,207 393,207 396,206 396,216 402,222 400,225 398,227 399,229 397,230 398,236 390,237 387,236 379,237 374,241 371,239 366,237 358,239 357,235 357,230 355,229 354,225 351,223 352,218 350,218 353,214 352,211 353,209 356,212 357,207 358,207 357,204 360,205 359,202 363,203 369,199 372,200 376,197" id="6136" class="commune" fill="steelblue" stroke-width="1" stroke="white" geotype="commune" geoname="Sospel" code_insee="6136" code_canton="610" code_intercom="240600551" code_arrondissement="62" code_departement="93" code_region_2015="93"/><polygon points="99,324 105,321 107,323 106,323 107,324 106,325 108,324 106,326 109,327 108,330 105,330 104,331 105,333 104,335 102,332 97,329 99,324" id="6137" class="commune" fill="steelblue" stroke-width="1" stroke="white" geotype="commune" geoname="Spéracèdes" code_insee="6137" code_canton="611" code_intercom="200039857" code_arrondissement="61" code_departement="93" code_region_2015="93"/><polygon points="124,400 130,394 130,391 140,390 140,394 147,395 149,399 146,399 144,402 145,404 144,405 142,404 137,405 137,407 129,405 128,400 124,400" id="6138" class="commune" fill="steelblue" stroke-width="1" stroke="white" geotype="commune" geoname="Théoule-sur-Mer" code_insee="6138" code_canton="613" code_intercom="200039915" code_arrondissement="61" code_departement="93" code_region_2015="93"/><polygon points="201,165 204,169 206,169 204,177 198,180 197,187 194,189 196,191 195,191 186,190 184,188 178,187 177,185 173,186 171,190 168,189 166,187 174,183 172,177 175,175 184,172 185,170 189,168 193,169 194,167 198,165 201,165" id="6139" class="commune" fill="steelblue" stroke-width="1" stroke="white" geotype="commune" geoname="Thiéry" code_insee="6139" code_canton="626" code_intercom="200039931" code_arrondissement="62" code_departement="93" code_region_2015="93"/><polygon points="95,345 92,342 88,341 97,329 102,332 104,335 106,338 109,339 109,341 115,349 110,348 107,350 103,346 101,347 101,350 97,346 95,345" id="6140" class="commune" fill="steelblue" stroke-width="1" stroke="white" geotype="commune" geoname="Tignet" code_insee="6140" code_canton="611" code_intercom="200039857" code_arrondissement="61" code_departement="93" code_region_2015="93"/><polygon points="227,234 222,235 219,232 217,231 215,231 215,224 212,219 205,217 206,213 210,210 207,208 206,206 213,205 216,208 220,207 228,208 234,212 223,223 224,229 221,231 227,232 227,234" id="6141" class="commune" fill="steelblue" stroke-width="1" stroke="white" geotype="commune" geoname="Toudon" code_insee="6141" code_canton="626" code_intercom="200039931" code_arrondissement="62" code_departement="93" code_region_2015="93"/><polygon points="346,236 343,237 343,239 338,239 336,241 332,240 333,236 334,234 335,235 336,234 338,235 340,233 344,233 343,231 347,230 350,232 353,232 355,230 354,234 352,236 348,235 346,236" id="6142" class="commune" fill="steelblue" stroke-width="1" stroke="white" geotype="commune" geoname="Touët-de-l'Escarène" code_insee="6142" code_canton="610" code_intercom="240600593" code_arrondissement="62" code_departement="93" code_region_2015="93"/><polygon points="151,191 162,190 163,191 166,187 168,189 171,190 173,186 177,185 178,187 184,188 186,190 195,191 195,194 193,194 194,196 190,199 190,201 173,196 160,197 156,196 151,194 151,191" id="6143" class="commune" fill="steelblue" stroke-width="1" stroke="white" geotype="commune" geoname="Touët-sur-Var" code_insee="6143" code_canton="626" code_intercom="200039931" code_arrondissement="62" code_departement="93" code_region_2015="93"/><polygon points="239,184 249,182 253,174 259,173 263,166 273,165 276,172 280,188 275,189 274,190 269,190 274,193 270,194 267,197 269,199 265,199 264,200 255,202 248,196 243,195 244,192 239,184" id="6144" class="commune" fill="steelblue" stroke-width="1" stroke="white" geotype="commune" geoname="Tour" code_insee="6144" code_canton="626" code_intercom="200030195" code_arrondissement="62" code_departement="93" code_region_2015="93"/><polygon points="242,229 242,230 233,231 231,230 227,232 221,231 224,229 223,223 234,212 241,215 238,216 237,224 241,227 242,229" id="6145" class="commune" fill="steelblue" stroke-width="1" stroke="white" geotype="commune" geoname="Tourette-du-Château" code_insee="6145" code_canton="626" code_intercom="200039931" code_arrondissement="62" code_departement="93" code_region_2015="93"/><polygon points="234,180 236,180 239,184 244,192 243,195 248,196 255,202 256,205 254,208 246,204 247,201 243,201 241,198 238,197 234,189 229,186 228,185 234,180" id="6146" class="commune" fill="steelblue" stroke-width="1" stroke="white" geotype="commune" geoname="Tournefort" code_insee="6146" code_canton="626" code_intercom="200030195" code_arrondissement="62" code_departement="93" code_region_2015="93"/><polygon points="298,280 293,275 291,276 290,275 285,265 285,262 287,261 286,259 286,256 284,255 287,250 292,249 295,252 298,258 299,263 303,266 303,270 307,272 305,274 305,278 306,280 302,279 301,281 298,280" id="6147" class="commune" fill="steelblue" stroke-width="1" stroke="white" geotype="commune" geoname="Tourrette-Levens" code_insee="6147" code_canton="624" code_intercom="200030195" code_arrondissement="62" code_departement="93" code_region_2015="93"/><polygon points="185,305 172,307 169,305 164,299 168,291 172,292 176,291 181,291 181,287 193,284 195,287 196,287 200,287 200,289 205,294 205,303 204,305 204,309 202,310 199,311 199,308 197,308 197,307 193,307 185,305" id="6148" class="commune" fill="steelblue" stroke-width="1" stroke="white" geotype="commune" geoname="Tourrettes-sur-Loup" code_insee="6148" code_canton="625" code_intercom="240600585" code_arrondissement="61" code_departement="93" code_region_2015="93"/><polygon points="349,279 347,280 346,284 342,285 340,285 340,288 334,286 332,288 328,288 322,292 322,292 318,293 317,294 314,295 310,293 309,296 304,290 311,288 313,284 311,281 312,278 315,278 316,281 315,282 315,284 316,283 331,282 335,280 338,277 346,277 349,279" id="6149" class="commune" fill="steelblue" stroke-width="1" stroke="white" geotype="commune" geoname="Trinité" code_insee="6149" code_canton="621" code_intercom="200030195" code_arrondissement="62" code_departement="93" code_region_2015="93"/><polygon points="359,291 357,290 354,291 353,291 351,291 349,293 349,293 349,290 348,288 341,289 342,285 346,284 347,280 349,279 354,275 356,280 360,280 362,283 357,286 359,289 359,291" id="6150" class="commune" fill="steelblue" stroke-width="1" stroke="white" geotype="commune" geoname="Turbie" code_insee="6150" code_canton="604" code_intercom="240600551" code_arrondissement="62" code_departement="93" code_region_2015="93"/><polygon points="304,194 304,197 310,205 307,204 305,204 303,209 301,208 299,211 293,210 289,212 286,211 286,217 281,221 269,226 267,231 260,232 260,228 256,223 255,216 257,215 255,213 259,211 258,208 256,210 254,208 256,205 255,202 264,200 265,199 269,199 267,197 270,194 274,193 269,190 274,190 275,189 280,188 276,172 273,165 277,159 280,158 284,159 284,164 281,166 287,172 289,172 288,173 290,175 288,177 290,179 288,181 291,183 292,188 297,193 304,194" id="6151" class="commune" fill="steelblue" stroke-width="1" stroke="white" geotype="commune" geoname="Utelle" code_insee="6151" code_canton="624" code_intercom="200030195" code_arrondissement="62" code_departement="93" code_region_2015="93"/><polygon points="193,331 193,332 190,334 194,337 195,344 201,346 199,348 200,348 194,351 186,346 178,346 170,343 168,343 168,340 164,338 163,335 164,333 169,333 169,332 172,332 173,329 176,331 180,328 189,328 193,331" id="6152" class="commune" fill="steelblue" stroke-width="1" stroke="white" geotype="commune" geoname="Valbonne" code_insee="6152" code_canton="625" code_intercom="240600585" code_arrondissement="61" code_departement="93" code_region_2015="93"/><polygon points="228,147 228,146 231,144 230,139 232,136 235,137 238,131 241,126 239,123 244,116 248,117 250,115 249,109 246,103 246,103 244,96 239,93 234,94 231,91 232,91 232,88 235,87 245,89 255,84 258,85 258,81 261,81 263,85 267,86 270,89 274,89 277,86 280,87 284,94 287,96 290,99 287,100 287,102 286,102 282,102 275,104 275,106 273,106 273,107 273,110 280,112 280,116 278,122 279,124 277,124 277,130 276,131 279,135 277,138 272,140 269,140 264,146 256,144 245,145 240,142 236,146 232,147 229,146 228,147" id="6153" class="commune" fill="steelblue" stroke-width="1" stroke="white" geotype="commune" geoname="Valdeblore" code_insee="6153" code_canton="624" code_intercom="200030195" code_arrondissement="62" code_departement="93" code_region_2015="93"/><polygon points="0,264 2,261 25,257 35,254 55,257 63,256 63,267 58,266 57,265 49,264 40,268 20,270 7,267 6,266 0,264" id="6154" class="commune" fill="steelblue" stroke-width="1" stroke="white" geotype="commune" geoname="Valderoure" code_insee="6154" code_canton="611" code_intercom="200039857" code_arrondissement="61" code_departement="93" code_region_2015="93"/><polygon points="200,348 198,350 199,357 205,360 209,365 207,366 208,367 205,369 207,367 207,366 205,368 203,368 205,368 200,369 195,374 192,374 191,368 185,366 184,362 186,360 189,354 192,354 194,351 200,348" id="6155" class="commune" fill="steelblue" stroke-width="1" stroke="white" geotype="commune" geoname="Vallauris" code_insee="6155" code_canton="601" code_intercom="240600585" code_arrondissement="61" code_departement="93" code_region_2015="93"/><polygon points="286,159 284,159 280,158 277,159 274,156 267,152 264,148 264,146 269,140 272,140 277,138 281,137 287,138 290,144 294,146 286,159" id="6156" class="commune" fill="steelblue" stroke-width="1" stroke="white" geotype="commune" geoname="Venanson" code_insee="6156" code_canton="624" code_intercom="200030195" code_arrondissement="62" code_departement="93" code_region_2015="93"/><polygon points="210,268 218,267 220,269 221,276 223,277 224,279 228,281 231,286 232,290 232,293 234,295 235,294 237,294 234,298 234,305 233,307 235,309 231,308 229,303 224,300 220,300 213,303 210,305 205,303 205,294 200,289 200,287 196,287 195,287 193,284 194,282 203,277 203,273 209,270 210,268" id="6157" class="commune" fill="steelblue" stroke-width="1" stroke="white" geotype="commune" geoname="Vence" code_insee="6157" code_canton="626" code_intercom="200030195" code_arrondissement="61" code_departement="93" code_region_2015="93"/><polygon points="207,204 201,205 196,203 190,201 190,199 194,196 193,194 195,194 195,191 196,191 194,189 197,187 198,180 204,177 206,169 207,171 212,171 214,178 219,181 217,186 219,199 214,200 211,200 209,201 207,204" id="6158" class="commune" fill="steelblue" stroke-width="1" stroke="white" geotype="commune" geoname="Villars-sur-Var" code_insee="6158" code_canton="626" code_intercom="200039931" code_arrondissement="62" code_departement="93" code_region_2015="93"/><polygon points="318,295 327,295 329,299 327,299 318,301 320,302 317,302 319,305 318,305 317,305 316,303 313,302 310,306 312,306 310,307 311,309 307,305 307,303 313,298 314,296 318,295" id="6159" class="commune" fill="steelblue" stroke-width="1" stroke="white" geotype="commune" geoname="Villefranche-sur-Mer" code_insee="6159" code_canton="604" code_intercom="200030195" code_arrondissement="62" code_departement="93" code_region_2015="93"/><polygon points="54,127 50,121 43,115 55,109 65,108 70,104 70,100 82,93 84,86 87,88 84,102 86,107 89,109 87,116 86,115 83,118 83,119 81,119 76,118 72,116 71,118 61,121 61,123 54,127" id="6160" class="commune" fill="steelblue" stroke-width="1" stroke="white" geotype="commune" geoname="Villeneuve-d'Entraunes" code_insee="6160" code_canton="626" code_intercom="200039931" code_arrondissement="62" code_departement="93" code_region_2015="93"/><polygon points="193,332 193,331 194,330 198,330 202,329 206,321 208,320 209,317 210,316 213,317 220,320 224,319 226,322 231,325 229,328 236,332 233,337 234,335 232,335 233,336 229,343 223,341 220,339 220,336 214,330 206,332 193,332" id="6161" class="commune" fill="steelblue" stroke-width="1" stroke="white" geotype="commune" geoname="Villeneuve-Loubet" code_insee="6161" code_canton="627" code_intercom="240600585" code_arrondissement="61" code_departement="93" code_region_2015="93"/><polygon points="474,160 470,165 462,167 456,164 451,158 443,157 437,153 436,150 441,144 440,140 443,136 449,135 452,128 455,129 456,128 456,124 464,120 465,117 469,114 475,114 480,113 488,117 500,129 498,139 494,142 493,147 484,150 480,154 476,153 474,155 474,160" id="6162" class="commune" fill="steelblue" stroke-width="1" stroke="white" geotype="commune" geoname="Brigue" code_insee="6162" code_canton="610" code_intercom="240600551" code_arrondissement="62" code_departement="93" code_region_2015="93"/><polygon points="458,92 460,89 460,86 467,85 478,86 480,85 484,87 483,91 478,94 478,96 482,99 481,102 474,100 474,99 471,97 468,97 462,93 458,92" id="6162" class="commune" fill="steelblue" stroke-width="1" stroke="white" geotype="commune" geoname="Brigue" code_insee="6162" code_canton="610" code_intercom="240600551" code_arrondissement="62" code_departement="93" code_region_2015="93"/><polygon points="382,145 376,147 369,147 368,145 364,144 366,143 365,130 368,127 365,125 365,123 368,121 366,115 367,107 381,109 386,106 392,105 396,102 403,101 406,103 409,104 415,99 422,100 428,99 430,97 429,95 433,97 434,96 441,98 443,97 447,98 455,98 458,92 462,93 468,97 471,97 474,99 474,100 481,102 476,107 480,113 475,114 469,114 465,117 464,120 456,124 456,128 455,129 452,128 449,135 443,136 440,140 441,144 436,150 437,153 435,153 428,151 425,149 425,146 416,143 398,143 396,145 394,146 384,143 382,145" id="6163" class="commune" fill="steelblue" stroke-width="1" stroke="white" geotype="commune" geoname="Tende" code_insee="6163" code_canton="610" code_intercom="240600551" code_arrondissement="62" code_departement="93" code_region_2015="93"/></svg>