<?xml version="1.0" encoding="utf-8"?>
<svg version="1.1" id="svgmap" xmlns="http://www.w3.org/2000/svg" xmlns:xlink="http://www.w3.org/1999/xlink" x="0px" y="0px" width="100%" height="100%" viewBox="0 0 500 426">
<polygon points="83,40 88,45 90,48 89,50 94,51 98,55 96,57 99,58 101,62 98,62 97,64 93,64 92,71 88,74 84,71 84,65 81,65 80,63 74,61 72,62 66,59 69,56 62,57 60,54 63,54 59,52 59,49 62,48 60,45 59,44 64,43 66,40 67,42 70,42 68,40 72,36 79,36 83,40" id="48001" class="commune" fill="steelblue" stroke-width="1" stroke="white" geotype="commune" geoname="Albaret-le-Comtal" code_insee="48001" code_canton="4801" code_intercom="244800363" code_arrondissement="482" code_departement="91" code_region_2015="91"/><polygon points="120,32 132,29 135,35 138,35 143,39 141,41 143,45 137,47 138,53 141,53 140,52 143,50 147,51 148,54 145,56 138,58 138,63 137,64 135,64 133,60 135,58 131,50 128,49 124,51 120,46 121,44 126,44 120,39 120,32" id="48002" class="commune" fill="steelblue" stroke-width="1" stroke="white" geotype="commune" geoname="Albaret-Sainte-Marie" code_insee="48002" code_canton="4812" code_intercom="200006765" code_arrondissement="482" code_departement="91" code_region_2015="91"/><polygon points="336,217 327,219 324,221 316,217 321,203 325,199 324,196 330,195 336,195 338,194 348,195 357,194 357,197 359,202 368,211 360,220 354,223 351,220 352,225 346,225 344,222 342,222 341,215 336,217" id="48003" class="commune" fill="steelblue" stroke-width="1" stroke="white" geotype="commune" geoname="Allenc" code_insee="48003" code_canton="4806" code_intercom="244800397" code_arrondissement="482" code_departement="91" code_region_2015="91"/><polygon points="425,280 423,280 411,275 406,274 409,263 417,259 424,248 420,246 422,244 421,242 419,243 420,240 415,237 408,236 407,232 412,232 421,230 429,231 437,233 444,232 448,238 453,239 452,249 449,252 449,255 446,255 448,257 446,258 445,262 448,267 447,269 442,271 440,274 431,274 425,280" id="48004" class="commune" fill="steelblue" stroke-width="1" stroke="white" geotype="commune" geoname="Altier" code_insee="48004" code_canton="4813" code_intercom="244800413" code_arrondissement="482" code_departement="91" code_region_2015="91"/><polygon points="121,184 124,184 127,182 124,177 138,181 140,181 146,185 147,194 148,196 147,198 139,203 136,201 135,202 133,198 130,199 129,202 123,200 121,196 122,195 120,192 122,189 120,187 123,186 121,184" id="48005" class="commune" fill="steelblue" stroke-width="1" stroke="white" geotype="commune" geoname="Antrenas" code_insee="48005" code_canton="4808" code_intercom="244800470" code_arrondissement="482" code_departement="91" code_region_2015="91"/><polygon points="58,70 57,66 58,65 56,64 57,62 56,62 55,60 60,54 62,57 69,56 66,59 72,62 71,66 74,69 73,68 72,70 67,71 63,75 62,72 59,72 58,70" id="48007" class="commune" fill="steelblue" stroke-width="1" stroke="white" geotype="commune" geoname="Arzenc-d'Apcher" code_insee="48007" code_canton="4801" code_intercom="244800363" code_arrondissement="482" code_departement="91" code_region_2015="91"/><polygon points="335,178 318,180 311,178 310,175 305,172 302,174 289,173 286,171 288,168 287,166 275,159 280,156 277,155 279,148 286,136 288,140 291,141 293,145 296,147 302,143 307,145 316,146 320,144 322,145 325,139 324,134 329,131 334,136 333,138 336,139 333,146 335,149 335,154 339,159 337,161 341,171 339,176 335,178" id="48008" class="commune" fill="steelblue" stroke-width="1" stroke="white" geotype="commune" geoname="Arzenc-de-Randon" code_insee="48008" code_canton="4806" code_intercom="244800330" code_arrondissement="482" code_departement="91" code_region_2015="91"/><polygon points="136,108 146,110 148,109 148,112 151,112 151,113 153,114 151,115 156,119 154,120 155,121 161,121 164,116 171,118 170,124 169,127 165,128 162,126 157,129 158,130 156,132 153,133 153,137 158,143 153,143 149,147 146,147 143,144 148,137 145,136 145,132 141,130 135,130 138,127 137,126 123,123 123,121 125,120 124,118 134,116 135,113 133,111 136,108" id="48009" class="commune" fill="steelblue" stroke-width="1" stroke="white" geotype="commune" geoname="Aumont-Aubrac" code_insee="48009" code_canton="4801" code_intercom="244800322" code_arrondissement="482" code_departement="91" code_region_2015="91"/><polygon points="387,114 384,113 383,117 381,117 380,120 379,118 375,120 372,123 370,123 369,122 366,124 365,123 360,122 358,123 358,119 354,118 349,117 344,118 342,116 340,117 339,116 343,113 350,113 348,106 346,106 349,100 359,95 363,96 364,93 369,94 371,89 374,88 374,91 380,92 384,94 382,99 388,100 385,102 387,103 380,105 380,107 383,109 387,114" id="48010" class="commune" fill="steelblue" stroke-width="1" stroke="white" geotype="commune" geoname="Auroux" code_insee="48010" code_canton="4807" code_intercom="200006930" code_arrondissement="482" code_departement="91" code_region_2015="91"/><polygon points="98,55 101,56 103,56 103,52 107,50 112,51 120,46 124,51 128,49 131,50 135,58 133,60 135,64 136,67 133,67 130,70 128,72 129,74 124,77 118,80 111,77 111,74 105,74 101,72 105,70 107,68 104,64 105,62 101,62 99,58 96,57 98,55" id="48012" class="commune" fill="steelblue" stroke-width="1" stroke="white" geotype="commune" geoname="Monts-Verts" code_insee="48012" code_canton="4801" code_intercom="200006765" code_arrondissement="482" code_departement="91" code_region_2015="91"/><polygon points="295,227 287,224 281,226 276,226 273,224 272,225 269,225 267,223 269,222 268,220 271,218 269,217 272,214 268,212 267,196 269,195 271,196 276,205 283,205 284,210 289,209 293,207 292,214 298,217 301,216 303,217 300,220 300,221 295,221 295,227" id="48013" class="commune" fill="steelblue" stroke-width="1" stroke="white" geotype="commune" geoname="Badaroux" code_insee="48013" code_canton="4806" code_intercom="244800405" code_arrondissement="482" code_departement="91" code_region_2015="91"/><polygon points="332,235 330,234 330,230 335,222 337,227 340,228 341,230 338,231 338,233 332,235" id="48014" class="commune" fill="steelblue" stroke-width="1" stroke="white" geotype="commune" geoname="Bagnols-les-Bains" code_insee="48014" code_canton="4813" code_intercom="244800397" code_arrondissement="482" code_departement="91" code_region_2015="91"/><polygon points="483,215 486,218 487,221 490,223 489,226 492,226 495,232 493,238 494,238 494,245 497,250 499,251 500,254 494,261 489,262 490,264 487,268 488,270 487,270 480,269 477,266 474,262 475,259 472,257 473,256 477,254 484,255 486,252 488,252 490,249 488,248 491,246 482,245 479,246 475,243 471,243 473,239 477,236 476,232 480,232 482,230 486,230 482,227 478,227 478,220 476,216 477,214 483,215" id="48015" class="commune" fill="steelblue" stroke-width="1" stroke="white" geotype="commune" geoname="Pied-de-Borne" code_insee="48015" code_canton="4813" code_intercom="244800413" code_arrondissement="482" code_departement="91" code_region_2015="91"/><polygon points="213,248 214,248 212,241 218,237 215,233 217,230 223,227 222,226 233,223 236,229 235,232 237,233 238,237 240,236 239,241 243,243 238,246 237,248 234,248 235,252 239,255 236,259 233,260 233,263 232,267 230,266 227,266 226,267 223,265 223,267 218,268 217,265 215,264 214,262 216,259 212,254 213,248" id="48016" class="commune" fill="steelblue" stroke-width="1" stroke="white" geotype="commune" geoname="Balsièges" code_insee="48016" code_canton="4803" code_intercom="244800389" code_arrondissement="482" code_departement="91" code_region_2015="91"/><polygon points="82,279 81,277 85,277 88,274 92,274 90,270 87,267 87,266 90,265 85,263 81,262 83,257 89,258 88,261 93,261 94,255 98,254 101,257 108,255 113,257 111,260 113,262 106,263 109,267 112,268 108,269 111,272 107,271 102,270 100,277 95,282 90,283 90,281 82,279" id="48017" class="commune" fill="steelblue" stroke-width="1" stroke="white" geotype="commune" geoname="Banassac" code_insee="48017" code_canton="4802" code_intercom="200001170" code_arrondissement="482" code_departement="91" code_region_2015="91"/><polygon points="192,230 194,226 202,222 203,220 205,220 199,217 201,215 200,213 214,201 220,197 222,199 220,200 221,206 220,207 221,210 225,215 223,219 225,220 223,220 220,221 223,220 220,227 222,226 223,227 217,230 215,233 218,237 212,241 214,248 213,248 206,246 204,244 203,241 201,242 199,241 204,237 201,236 201,234 197,233 190,233 192,230" id="48018" class="commune" fill="steelblue" stroke-width="1" stroke="white" geotype="commune" geoname="Barjac" code_insee="48018" code_canton="4803" code_intercom="244800504" code_arrondissement="482" code_departement="91" code_region_2015="91"/><polygon points="363,361 362,363 350,364 346,368 342,366 339,366 335,373 328,368 321,366 317,362 317,358 316,355 318,355 320,348 329,346 331,338 334,340 332,343 336,344 340,343 347,337 348,339 352,343 357,344 364,344 361,347 356,348 353,347 347,349 344,345 342,346 346,354 352,356 353,354 357,354 358,351 365,349 362,357 363,361" id="48019" class="commune" fill="steelblue" stroke-width="1" stroke="white" geotype="commune" geoname="Barre-des-Cévennes" code_insee="48019" code_canton="4804" code_intercom="200047710" code_arrondissement="481" code_departement="91" code_region_2015="91"/><polygon points="329,391 322,393 320,400 317,405 323,406 325,407 330,408 322,411 320,421 317,422 314,421 306,423 303,422 289,420 289,415 286,414 289,415 288,410 281,403 279,399 292,401 291,398 296,398 298,396 296,392 298,384 302,383 304,387 307,387 307,377 318,381 320,383 326,384 329,391" id="48020" class="commune" fill="steelblue" stroke-width="1" stroke="white" geotype="commune" geoname="Bassurels" code_insee="48020" code_canton="4804" code_intercom="244800421" code_arrondissement="481" code_departement="91" code_region_2015="91"/><polygon points="455,181 453,186 454,189 460,191 459,194 463,199 461,201 461,206 451,205 449,208 444,211 446,215 450,219 446,219 440,222 438,219 433,215 429,207 437,204 436,202 438,199 434,195 434,190 430,188 442,192 446,188 451,188 451,185 455,181" id="48021" class="commune" fill="steelblue" stroke-width="1" stroke="white" geotype="commune" geoname="Bastide-Puylaurent" code_insee="48021" code_canton="4813" code_intercom="244800413" code_arrondissement="482" code_departement="91" code_region_2015="91"/><polygon points="294,304 293,302 293,298 294,296 297,297 298,301 306,304 309,307 308,309 310,310 311,310 310,311 315,310 323,311 319,307 320,306 317,303 317,301 313,302 313,299 320,296 332,298 336,302 340,302 343,306 344,310 342,310 347,315 353,317 356,322 349,319 335,320 329,317 327,313 325,313 316,314 315,318 308,317 300,315 302,313 299,311 300,309 298,307 300,306 297,304 294,304" id="48022" class="commune" fill="steelblue" stroke-width="1" stroke="white" geotype="commune" geoname="Bédouès" code_insee="48022" code_canton="4813" code_intercom="200047710" code_arrondissement="481" code_departement="91" code_region_2015="91"/><polygon points="368,211 359,202 357,197 361,195 366,198 368,200 376,202 381,201 383,204 382,207 390,209 387,210 387,217 372,215 368,211" id="48023" class="commune" fill="steelblue" stroke-width="1" stroke="white" geotype="commune" geoname="Belvezet" code_insee="48023" code_canton="4806" code_intercom="244800397" code_arrondissement="482" code_departement="91" code_region_2015="91"/><polygon points="106,103 102,100 99,96 102,96 108,93 116,94 120,93 135,92 133,88 138,88 144,95 145,94 150,94 147,105 148,108 146,110 136,108 135,108 127,110 118,104 106,103" id="48025" class="commune" fill="steelblue" stroke-width="1" stroke="white" geotype="commune" geoname="Bessons" code_insee="48025" code_canton="4801" code_intercom="200006765" code_arrondissement="482" code_departement="91" code_region_2015="91"/><polygon points="163,49 164,54 161,55 161,53 154,51 151,52 149,53 150,55 148,57 152,60 151,66 147,67 144,65 137,66 137,64 138,63 138,58 145,56 148,54 147,51 143,50 140,52 141,53 138,53 137,47 143,45 141,41 143,39 146,40 148,39 157,42 158,45 162,46 163,49" id="48026" class="commune" fill="steelblue" stroke-width="1" stroke="white" geotype="commune" geoname="Blavignac" code_insee="48026" code_canton="4812" code_intercom="200018315" code_arrondissement="482" code_departement="91" code_region_2015="91"/><polygon points="372,215 387,217 390,218 391,222 385,227 381,226 378,228 373,238 378,238 381,242 373,246 367,242 364,243 360,236 361,232 362,233 366,232 369,222 367,219 372,215" id="48027" class="commune" fill="steelblue" stroke-width="1" stroke="white" geotype="commune" geoname="Bleymard" code_insee="48027" code_canton="4813" code_intercom="244800397" code_arrondissement="482" code_departement="91" code_region_2015="91"/><polygon points="336,263 344,266 347,266 339,277 340,279 338,284 340,285 337,286 340,294 338,296 340,298 338,300 340,302 336,302 332,298 320,296 313,299 313,302 310,304 307,303 306,304 298,301 297,297 300,291 300,284 302,283 297,279 301,276 307,275 311,272 317,272 326,266 333,266 336,263" id="48028" class="commune" fill="steelblue" stroke-width="1" stroke="white" geotype="commune" geoname="Bondons" code_insee="48028" code_canton="4813" code_intercom="200047710" code_arrondissement="481" code_departement="91" code_region_2015="91"/><polygon points="267,196 265,196 264,193 265,191 263,184 267,182 272,182 276,178 287,179 289,173 302,174 293,184 296,192 301,196 298,201 298,203 293,207 289,209 284,210 283,205 276,205 271,196 269,195 267,196" id="48029" class="commune" fill="steelblue" stroke-width="1" stroke="white" geotype="commune" geoname="Born" code_insee="48029" code_canton="4806" code_intercom="244800405" code_arrondissement="482" code_departement="91" code_region_2015="91"/><polygon points="284,246 277,250 274,250 273,251 271,247 265,247 261,245 263,242 261,241 259,232 264,233 266,230 271,233 274,233 276,232 279,235 278,239 282,240 284,246" id="48030" class="commune" fill="steelblue" stroke-width="1" stroke="white" geotype="commune" geoname="Brenoux" code_insee="48030" code_canton="4813" code_intercom="244800389" code_arrondissement="482" code_departement="91" code_region_2015="91"/><polygon points="53,131 53,128 50,129 47,120 43,118 40,120 34,110 29,106 33,105 30,100 33,96 37,97 39,101 43,101 44,102 45,100 50,100 59,103 65,111 60,111 60,119 58,121 58,126 54,131 53,131" id="48031" class="commune" fill="steelblue" stroke-width="1" stroke="white" geotype="commune" geoname="Brion" code_insee="48031" code_canton="4801" code_intercom="244800363" code_arrondissement="482" code_departement="91" code_region_2015="91"/><polygon points="138,181 124,177 127,182 124,184 121,184 121,180 119,177 106,177 91,170 92,167 95,167 96,165 99,166 103,164 104,167 109,166 111,162 118,159 112,157 114,157 118,156 118,159 122,163 129,160 131,161 133,161 134,163 130,166 133,169 140,170 142,173 141,175 144,176 138,178 136,176 138,181" id="48032" class="commune" fill="steelblue" stroke-width="1" stroke="white" geotype="commune" geoname="Buisson" code_insee="48032" code_canton="4801" code_intercom="244800470" code_arrondissement="482" code_departement="91" code_region_2015="91"/><polygon points="76,279 76,278 71,276 72,275 72,273 79,270 79,266 75,263 76,261 79,263 84,264 85,263 90,265 87,266 87,267 90,270 92,274 88,274 85,277 81,277 82,279 76,279" id="48033" class="commune" fill="steelblue" stroke-width="1" stroke="white" geotype="commune" geoname="Canilhac" code_insee="48033" code_canton="4802" code_intercom="200001170" code_arrondissement="482" code_departement="91" code_region_2015="91"/><polygon points="111,272 108,269 112,268 109,267 106,263 113,262 111,260 113,257 108,255 104,250 105,247 102,244 101,234 103,233 103,230 109,227 111,228 109,234 110,237 113,237 115,240 122,238 126,241 128,239 128,242 132,243 132,246 133,248 140,250 141,253 146,254 148,257 141,261 141,263 149,263 149,266 152,267 160,268 162,269 163,275 167,278 169,283 171,285 171,289 168,291 171,298 163,300 160,307 156,309 152,308 154,310 154,311 148,314 145,308 145,302 135,301 134,304 129,303 126,290 119,291 117,294 117,296 114,297 114,294 117,288 114,286 113,280 114,278 111,272" id="48034" class="commune" fill="steelblue" stroke-width="1" stroke="white" geotype="commune" geoname="Canourgue" code_insee="48034" code_canton="4802" code_intercom="200001170" code_arrondissement="482" code_departement="91" code_region_2015="91"/><polygon points="386,361 384,362 378,359 368,359 363,361 362,357 365,349 358,351 357,354 353,354 352,356 346,354 342,346 344,345 347,349 353,347 356,348 361,347 364,344 357,344 352,343 348,339 352,338 355,338 359,337 359,332 366,330 370,325 374,325 379,323 384,323 380,338 382,341 386,341 393,350 385,355 387,359 386,361" id="48036" class="commune" fill="steelblue" stroke-width="1" stroke="white" geotype="commune" geoname="Cassagnas" code_insee="48036" code_canton="4804" code_intercom="200047710" code_arrondissement="481" code_departement="91" code_region_2015="91"/><polygon points="316,217 324,221 327,219 336,217 335,222 330,230 330,234 332,235 334,235 334,237 331,238 329,236 322,241 319,240 318,243 316,240 319,239 318,236 320,235 317,234 318,232 313,232 316,226 313,223 314,220 314,217 316,217" id="48037" class="commune" fill="steelblue" stroke-width="1" stroke="white" geotype="commune" geoname="Chadenet" code_insee="48037" code_canton="4806" code_intercom="244800397" code_arrondissement="482" code_departement="91" code_region_2015="91"/><polygon points="320,48 326,48 329,50 330,49 334,52 336,57 340,60 338,63 339,65 332,69 327,70 328,67 324,64 328,61 328,58 321,52 320,48" id="48038" class="commune" fill="steelblue" stroke-width="1" stroke="white" geotype="commune" geoname="Chambon-le-Château" code_insee="48038" code_canton="4806" code_intercom="244800447" code_arrondissement="482" code_departement="91" code_region_2015="91"/><polygon points="159,235 164,234 172,234 172,236 170,238 176,237 178,241 177,247 179,247 180,246 185,250 187,249 201,254 204,253 206,246 213,248 212,254 216,259 214,262 215,264 217,265 218,268 210,275 203,276 197,272 189,271 185,278 178,278 177,277 171,275 167,278 163,275 162,269 160,268 152,267 149,266 149,263 141,263 141,261 148,257 146,254 141,253 140,250 149,248 147,245 149,243 162,242 159,235" id="48039" class="commune" fill="steelblue" stroke-width="1" stroke="white" geotype="commune" geoname="Chanac" code_insee="48039" code_canton="4802" code_intercom="244800504" code_arrondissement="482" code_departement="91" code_region_2015="91"/><polygon points="433,215 425,218 424,222 430,224 433,227 429,231 421,230 412,232 407,232 396,227 391,222 390,218 387,217 387,210 390,209 393,207 392,206 392,200 394,193 396,191 405,188 423,186 427,188 430,188 434,190 434,195 438,199 436,202 437,204 429,207 433,215" id="48040" class="commune" fill="steelblue" stroke-width="1" stroke="white" geotype="commune" geoname="Chasseradès" code_insee="48040" code_canton="4813" code_intercom="244800397" code_arrondissement="482" code_departement="91" code_region_2015="91"/><polygon points="365,123 366,124 369,122 370,123 372,123 375,120 379,118 380,120 381,117 383,117 384,113 387,114 390,113 392,115 390,119 391,121 383,124 385,125 383,130 386,131 386,134 385,132 381,135 377,134 374,132 371,133 369,133 369,126 366,124 364,124 365,123" id="48041" class="commune" fill="steelblue" stroke-width="1" stroke="white" geotype="commune" geoname="Chastanier" code_insee="48041" code_canton="4807" code_intercom="200006930" code_arrondissement="482" code_departement="91" code_region_2015="91"/><polygon points="263,184 265,191 264,193 265,196 267,196 268,212 263,214 256,212 255,214 250,216 248,220 244,215 247,213 244,210 244,211 246,209 243,210 241,205 238,206 234,203 232,197 233,192 238,187 236,186 237,185 244,184 247,182 248,186 252,184 252,189 258,184 263,184" id="48042" class="commune" fill="steelblue" stroke-width="1" stroke="white" geotype="commune" geoname="Chastel-Nouvel" code_insee="48042" code_canton="4811" code_intercom="244800355" code_arrondissement="482" code_departement="91" code_region_2015="91"/><polygon points="353,149 351,151 352,154 361,156 361,161 358,163 361,168 358,170 355,175 349,174 348,182 344,182 343,183 341,183 335,178 339,176 341,171 337,161 339,159 335,154 335,149 333,146 336,139 339,140 344,146 347,145 353,149" id="48043" class="commune" fill="steelblue" stroke-width="1" stroke="white" geotype="commune" geoname="Châteauneuf-de-Randon" code_insee="48043" code_canton="4806" code_intercom="244800330" code_arrondissement="482" code_departement="91" code_region_2015="91"/><polygon points="49,76 48,79 50,81 49,82 50,88 52,90 57,89 58,90 60,99 59,103 50,100 45,100 44,102 43,101 39,101 37,97 33,96 34,94 31,88 32,85 36,82 40,77 47,74 51,73 49,76" id="48044" class="commune" fill="steelblue" stroke-width="1" stroke="white" geotype="commune" geoname="Chauchailles" code_insee="48044" code_canton="4801" code_intercom="244800363" code_arrondissement="482" code_departement="91" code_region_2015="91"/><polygon points="391,182 389,183 388,182 368,183 365,179 355,175 358,170 361,168 358,163 361,161 361,156 362,153 371,148 380,145 382,143 387,144 387,145 390,146 391,151 401,150 400,155 398,156 398,159 394,161 394,165 398,168 398,171 391,178 391,182" id="48045" class="commune" fill="steelblue" stroke-width="1" stroke="white" geotype="commune" geoname="Chaudeyrac" code_insee="48045" code_canton="4806" code_intercom="244800330" code_arrondissement="482" code_departement="91" code_region_2015="91"/><polygon points="131,18 135,17 141,17 138,19 138,22 143,24 149,24 152,28 150,28 150,30 145,33 146,35 143,39 138,35 135,35 132,29 129,24 131,23 128,20 132,20 131,18" id="48046" class="commune" fill="steelblue" stroke-width="1" stroke="white" geotype="commune" geoname="Chaulhac" code_insee="48046" code_canton="4811" code_intercom="200006765" code_arrondissement="482" code_departement="91" code_region_2015="91"/><polygon points="123,123 137,126 138,127 135,130 141,130 145,132 145,136 148,137 143,144 146,147 147,149 142,152 138,150 136,147 137,142 135,141 134,138 131,138 130,137 120,136 110,133 109,133 108,138 106,139 101,137 98,138 97,134 111,129 116,126 118,127 118,126 122,125 123,123" id="48047" class="commune" fill="steelblue" stroke-width="1" stroke="white" geotype="commune" geoname="Chaze-de-Peyre" code_insee="48047" code_canton="4801" code_intercom="244800322" code_arrondissement="482" code_departement="91" code_region_2015="91"/><polygon points="405,188 401,183 391,182 391,178 398,171 398,168 394,165 394,161 398,159 398,156 400,155 401,150 402,145 404,143 407,143 410,145 408,148 410,154 415,155 414,157 418,164 416,167 418,171 421,172 419,175 422,179 422,184 423,186 405,188" id="48048" class="commune" fill="steelblue" stroke-width="1" stroke="white" geotype="commune" geoname="Cheylard-l'Évêque" code_insee="48048" code_canton="4807" code_intercom="200006930" code_arrondissement="482" code_departement="91" code_region_2015="91"/><polygon points="149,225 148,226 144,224 142,227 140,227 140,225 138,225 137,223 126,223 121,220 118,221 109,217 104,215 102,208 103,207 100,207 93,202 96,200 106,201 111,200 112,198 114,199 117,198 118,200 118,198 121,196 123,200 129,202 130,199 133,198 135,202 140,210 146,214 149,213 148,216 152,221 149,225" id="48049" class="commune" fill="steelblue" stroke-width="1" stroke="white" geotype="commune" geoname="Chirac" code_insee="48049" code_canton="4803" code_intercom="244800470" code_arrondissement="482" code_departement="91" code_region_2015="91"/><polygon points="313,302 317,301 317,303 320,306 319,307 323,311 315,310 310,311 311,310 310,310 308,309 309,307 306,304 307,303 310,304 313,302" id="48050" class="commune" fill="steelblue" stroke-width="1" stroke="white" geotype="commune" geoname="Cocurès" code_insee="48050" code_canton="4813" code_intercom="200047710" code_arrondissement="481" code_departement="91" code_region_2015="91"/><polygon points="476,373 475,374 470,374 462,370 454,369 457,367 459,362 445,347 446,344 456,343 461,341 464,332 470,336 472,340 468,344 474,349 476,349 476,353 479,357 474,362 474,366 477,370 476,373" id="48051" class="commune" fill="steelblue" stroke-width="1" stroke="white" geotype="commune" geoname="Collet-de-Dèze" code_insee="48051" code_canton="4804" code_intercom="244800454" code_arrondissement="481" code_departement="91" code_region_2015="91"/><polygon points="404,274 403,259 401,257 400,250 394,248 392,248 389,253 388,259 390,270 388,271 384,267 379,265 377,262 377,252 372,249 373,246 381,242 378,238 373,238 378,228 381,226 385,227 391,222 396,227 407,232 408,236 415,237 420,240 419,243 421,242 422,244 420,246 424,248 417,259 409,263 406,274 404,274" id="48053" class="commune" fill="steelblue" stroke-width="1" stroke="white" geotype="commune" geoname="Cubières" code_insee="48053" code_canton="4813" code_intercom="244800397" code_arrondissement="482" code_departement="91" code_region_2015="91"/><polygon points="390,270 388,259 389,253 392,248 394,248 400,250 401,257 403,259 404,274 398,275 390,270" id="48054" class="commune" fill="steelblue" stroke-width="1" stroke="white" geotype="commune" geoname="Cubiérettes" code_insee="48054" code_canton="4813" code_intercom="244800397" code_arrondissement="482" code_departement="91" code_region_2015="91"/><polygon points="190,233 197,233 201,234 201,236 204,237 199,241 201,242 203,241 204,244 200,245 198,242 194,243 194,241 191,241 190,233" id="48055" class="commune" fill="steelblue" stroke-width="1" stroke="white" geotype="commune" geoname="Cultures" code_insee="48055" code_canton="4803" code_intercom="244800504" code_arrondissement="482" code_departement="91" code_region_2015="91"/><polygon points="190,229 192,230 190,233 191,241 194,241 194,243 198,242 200,245 204,244 206,246 204,253 201,254 187,249 185,250 180,246 179,247 177,247 178,241 176,237 177,235 180,236 181,234 189,231 190,229" id="48056" class="commune" fill="steelblue" stroke-width="1" stroke="white" geotype="commune" geoname="Esclanèdes" code_insee="48056" code_canton="4803" code_intercom="244800504" code_arrondissement="482" code_departement="91" code_region_2015="91"/><polygon points="286,136 279,148 277,155 280,156 275,159 272,161 265,160 262,158 262,159 260,160 255,156 250,159 247,158 239,161 236,159 236,155 243,150 240,148 242,144 240,139 247,134 246,131 249,128 251,131 255,133 257,134 253,136 264,136 272,142 286,136" id="48057" class="commune" fill="steelblue" stroke-width="1" stroke="white" geotype="commune" geoname="Estables" code_insee="48057" code_canton="4811" code_intercom="244800355" code_arrondissement="482" code_departement="91" code_region_2015="91"/><polygon points="99,96 102,100 106,103 99,105 98,108 98,114 102,117 98,118 99,122 91,128 82,130 75,129 68,123 58,126 58,121 60,119 60,111 65,111 69,111 79,106 78,97 76,95 84,94 92,91 99,96" id="48058" class="commune" fill="steelblue" stroke-width="1" stroke="white" geotype="commune" geoname="Fage-Montivernoux" code_insee="48058" code_canton="4801" code_intercom="244800363" code_arrondissement="482" code_departement="91" code_region_2015="91"/><polygon points="92,91 91,90 95,85 98,84 98,81 102,80 103,81 107,77 111,77 118,80 124,77 124,80 120,81 125,83 130,88 133,88 135,92 120,93 116,94 108,93 102,96 99,96 92,91" id="48059" class="commune" fill="steelblue" stroke-width="1" stroke="white" geotype="commune" geoname="Fage-Saint-Julien" code_insee="48059" code_canton="4801" code_intercom="200006765" code_arrondissement="482" code_departement="91" code_region_2015="91"/><polygon points="136,108 133,111 135,113 134,116 124,118 125,120 123,121 123,123 122,125 118,126 118,127 116,126 111,129 97,134 95,132 94,127 101,125 99,122 98,118 102,117 98,114 98,108 99,105 106,103 118,104 127,110 135,108 136,108" id="48060" class="commune" fill="steelblue" stroke-width="1" stroke="white" geotype="commune" geoname="Fau-de-Peyre" code_insee="48060" code_canton="4801" code_intercom="244800322" code_arrondissement="482" code_departement="91" code_region_2015="91"/><polygon points="284,338 285,334 283,333 283,331 278,330 277,326 282,322 282,316 282,312 292,307 294,304 297,304 300,306 298,307 300,309 299,311 302,313 300,315 308,317 305,320 306,326 317,336 319,340 315,343 311,339 304,337 302,338 294,336 288,339 284,338" id="48061" class="commune" fill="steelblue" stroke-width="1" stroke="white" geotype="commune" geoname="Florac" code_insee="48061" code_canton="4805" code_intercom="200047710" code_arrondissement="481" code_departement="91" code_region_2015="91"/><polygon points="385,86 388,85 390,86 389,88 392,87 402,93 404,95 404,101 406,102 401,105 395,105 394,106 387,103 385,102 388,100 382,99 384,94 380,92 385,86" id="48062" class="commune" fill="steelblue" stroke-width="1" stroke="white" geotype="commune" geoname="Fontanes" code_insee="48062" code_canton="4807" code_intercom="200006930" code_arrondissement="482" code_departement="91" code_region_2015="91"/><polygon points="218,122 214,124 210,125 206,122 203,124 203,121 200,119 193,125 198,126 197,132 195,133 191,132 187,132 184,128 182,129 182,123 180,122 180,115 178,115 178,111 173,111 172,108 179,101 177,99 181,99 180,96 183,97 198,100 205,110 210,103 216,107 219,112 211,113 214,114 218,122" id="48063" class="commune" fill="steelblue" stroke-width="1" stroke="white" geotype="commune" geoname="Fontans" code_insee="48063" code_canton="4811" code_intercom="200006765" code_arrondissement="482" code_departement="91" code_region_2015="91"/><polygon points="56,73 55,70 58,70 59,72 62,72 63,75 67,71 72,70 73,68 74,69 78,70 78,74 81,78 87,81 87,83 90,86 87,88 85,87 82,89 81,88 77,89 76,88 72,91 71,90 71,92 65,95 63,95 63,89 66,86 64,84 65,83 63,81 62,77 57,76 56,73" id="48064" class="commune" fill="steelblue" stroke-width="1" stroke="white" geotype="commune" geoname="Fournels" code_insee="48064" code_canton="4801" code_intercom="244800363" code_arrondissement="482" code_departement="91" code_region_2015="91"/><polygon points="272,392 266,389 254,386 256,382 255,374 255,370 264,364 269,367 281,365 284,367 286,369 292,368 287,374 282,377 284,381 280,383 279,391 276,392 272,392" id="48065" class="commune" fill="steelblue" stroke-width="1" stroke="white" geotype="commune" geoname="Fraissinet-de-Fourques" code_insee="48065" code_canton="4804" code_intercom="244800066" code_arrondissement="481" code_departement="91" code_region_2015="91"/><polygon points="340,302 338,300 340,298 338,296 340,294 337,286 340,285 338,284 340,279 339,277 347,266 372,270 373,273 367,282 371,290 370,294 374,301 371,301 371,303 365,303 363,305 362,303 360,304 359,302 354,300 342,304 340,302" id="48066" class="commune" fill="steelblue" stroke-width="1" stroke="white" geotype="commune" geoname="Fraissinet-de-Lozère" code_insee="48066" code_canton="4813" code_intercom="244800496" code_arrondissement="481" code_departement="91" code_region_2015="91"/><polygon points="366,399 358,399 350,396 345,390 354,390 353,386 357,385 358,382 360,385 364,387 362,390 371,390 368,391 370,395 366,399" id="48067" class="commune" fill="steelblue" stroke-width="1" stroke="white" geotype="commune" geoname="Gabriac" code_insee="48067" code_canton="4804" code_intercom="244800421" code_arrondissement="481" code_departement="91" code_region_2015="91"/><polygon points="214,201 200,213 201,215 199,217 205,220 203,220 202,222 194,226 192,230 190,229 192,228 193,222 191,219 187,218 186,216 183,215 184,212 183,207 187,201 190,200 191,199 188,196 187,196 197,187 196,192 198,195 202,196 202,198 204,200 209,200 214,201" id="48068" class="commune" fill="steelblue" stroke-width="1" stroke="white" geotype="commune" geoname="Gabrias" code_insee="48068" code_canton="4803" code_intercom="244800470" code_arrondissement="482" code_departement="91" code_region_2015="91"/><polygon points="233,373 234,370 229,368 229,367 233,365 237,365 239,362 243,361 248,365 252,366 251,373 255,374 256,382 254,386 266,389 272,392 271,393 275,394 279,399 281,403 288,410 289,415 286,414 276,407 273,402 267,399 267,398 258,396 255,394 249,393 245,389 237,388 236,376 233,373" id="48069" class="commune" fill="steelblue" stroke-width="1" stroke="white" geotype="commune" geoname="Gatuzières" code_insee="48069" code_canton="4805" code_intercom="244800066" code_arrondissement="481" code_departement="91" code_region_2015="91"/><polygon points="344,118 334,121 329,121 328,114 323,114 323,113 327,112 321,108 319,111 316,110 311,111 306,114 299,111 298,109 299,107 298,104 302,101 298,98 288,100 288,99 295,98 296,94 298,94 298,89 293,86 294,80 297,79 297,81 299,81 299,78 305,77 307,80 314,81 317,80 321,83 324,82 328,84 334,84 334,83 337,83 346,84 348,87 346,89 351,89 353,86 358,89 356,91 358,92 356,94 359,95 349,100 346,106 348,106 350,113 343,113 339,116 340,117 342,116 344,118" id="48070" class="commune" fill="steelblue" stroke-width="1" stroke="white" geotype="commune" geoname="Grandrieu" code_insee="48070" code_canton="4806" code_intercom="244800447" code_arrondissement="482" code_departement="91" code_region_2015="91"/><polygon points="23,119 24,111 27,107 29,106 34,110 40,120 43,118 47,120 50,129 45,132 44,125 40,125 39,128 35,129 28,128 26,121 22,121 23,119" id="48071" class="commune" fill="steelblue" stroke-width="1" stroke="white" geotype="commune" geoname="Grandvals" code_insee="48071" code_canton="4801" code_intercom="200011286" code_arrondissement="482" code_departement="91" code_region_2015="91"/><polygon points="186,216 187,218 191,219 193,222 192,228 190,229 189,231 181,234 180,236 177,235 176,237 170,238 172,236 172,234 164,234 160,230 164,228 169,222 172,221 171,220 172,217 176,216 182,217 183,215 186,216" id="48072" class="commune" fill="steelblue" stroke-width="1" stroke="white" geotype="commune" geoname="Grèzes" code_insee="48072" code_canton="4803" code_intercom="244800470" code_arrondissement="482" code_departement="91" code_region_2015="91"/><polygon points="85,231 82,235 84,240 82,247 80,246 81,243 79,242 79,237 75,233 69,232 64,227 68,220 65,220 61,215 63,213 62,209 65,206 71,204 72,207 77,212 77,214 80,217 83,226 85,228 85,231" id="48073" class="commune" fill="steelblue" stroke-width="1" stroke="white" geotype="commune" geoname="Hermaux" code_insee="48073" code_canton="4801" code_intercom="200001170" code_arrondissement="482" code_departement="91" code_region_2015="91"/><polygon points="243,361 239,362 237,365 233,365 229,367 229,368 234,370 233,373 232,373 230,374 226,373 226,371 225,370 206,367 206,365 203,364 201,368 194,367 186,371 188,375 184,380 186,380 186,381 179,381 174,380 166,381 160,379 152,379 152,375 154,371 161,370 164,366 171,364 170,361 152,353 150,352 151,350 158,350 160,347 166,347 169,347 172,350 178,351 178,345 192,346 192,343 196,342 197,339 202,339 205,342 210,342 212,339 212,340 223,342 226,344 226,347 229,346 232,344 233,336 235,335 239,338 241,339 239,341 242,342 243,349 247,354 243,361" id="48074" class="commune" fill="steelblue" stroke-width="1" stroke="white" geotype="commune" geoname="Hures-la-Parade" code_insee="48074" code_canton="4805" code_intercom="244800066" code_arrondissement="481" code_departement="91" code_region_2015="91"/><polygon points="301,276 297,279 302,283 300,284 300,291 297,297 294,296 293,298 293,302 291,303 283,302 281,297 277,301 273,301 266,295 265,298 263,298 263,301 261,301 259,295 253,291 250,293 247,292 243,288 243,284 239,282 242,279 239,272 239,267 240,265 245,265 249,263 252,263 256,265 253,270 265,275 272,276 273,274 289,272 296,274 301,276" id="48075" class="commune" fill="steelblue" stroke-width="1" stroke="white" geotype="commune" geoname="Ispagnac" code_insee="48075" code_canton="4805" code_intercom="200047710" code_arrondissement="481" code_departement="91" code_region_2015="91"/><polygon points="158,143 153,137 153,133 156,132 158,130 157,129 162,126 165,128 169,127 170,124 180,122 182,123 182,129 184,128 187,132 191,132 191,135 186,139 193,139 189,143 191,148 185,145 181,149 183,153 178,154 173,157 167,158 165,149 159,147 160,142 158,143" id="48076" class="commune" fill="steelblue" stroke-width="1" stroke="white" geotype="commune" geoname="Javols" code_insee="48076" code_canton="4801" code_intercom="244800322" code_arrondissement="482" code_departement="91" code_region_2015="91"/><polygon points="175,10 183,10 184,13 176,18 170,17 168,19 166,22 167,27 164,28 156,28 154,27 152,28 149,24 156,18 160,17 162,19 164,17 164,16 175,10" id="48077" class="commune" fill="steelblue" stroke-width="1" stroke="white" geotype="commune" geoname="Julianges" code_insee="48077" code_canton="4811" code_intercom="200006765" code_arrondissement="482" code_departement="91" code_region_2015="91"/><polygon points="197,187 187,196 186,197 181,197 180,196 177,197 174,196 169,197 171,196 170,193 179,190 183,187 183,182 181,182 179,179 176,178 173,180 171,178 173,173 183,175 183,170 187,169 187,161 192,164 195,169 201,174 201,176 205,173 207,173 217,175 210,180 209,186 202,187 199,185 197,187" id="48078" class="commune" fill="steelblue" stroke-width="1" stroke="white" geotype="commune" geoname="Lachamp" code_insee="48078" code_canton="4808" code_intercom="244800355" code_arrondissement="482" code_departement="91" code_region_2015="91"/><polygon points="244,82 235,87 228,80 226,80 225,83 222,82 223,81 220,80 220,78 215,76 213,71 208,72 208,66 203,66 206,62 214,64 218,62 221,63 226,60 234,67 233,72 237,73 244,82" id="48079" class="commune" fill="steelblue" stroke-width="1" stroke="white" geotype="commune" geoname="Lajo" code_insee="48079" code_canton="4811" code_intercom="200006765" code_arrondissement="482" code_departement="91" code_region_2015="91"/><polygon points="433,114 435,114 437,116 440,116 440,117 441,120 439,120 439,121 438,120 437,122 435,122 433,126 434,127 433,130 434,130 435,131 437,131 438,132 438,133 435,134 437,135 437,137 431,140 431,139 429,139 428,140 427,142 424,141 422,141 422,140 423,138 422,138 422,138 422,137 421,137 421,136 420,134 418,134 418,134 415,134 414,135 413,135 412,136 411,135 410,135 407,136 406,133 407,132 408,132 408,131 406,130 407,129 402,129 401,128 401,127 401,126 400,124 401,123 400,123 401,122 400,122 401,121 399,119 399,118 398,118 397,117 399,116 398,113 399,113 399,112 406,113 408,110 409,110 408,110 409,109 410,109 410,109 414,111 414,112 415,112 414,112 415,111 415,112 416,111 416,109 417,109 420,111 420,112 426,113 427,113 429,113 430,113 432,113 433,114" id="48080" class="commune" fill="steelblue" stroke-width="1" stroke="white" geotype="commune" geoname="Langogne" code_insee="48080" code_canton="4807" code_intercom="200006930" code_arrondissement="482" code_departement="91" code_region_2015="91"/><polygon points="320,251 318,250 309,253 305,252 302,254 298,253 296,249 292,250 287,249 287,246 284,246 282,240 278,239 279,235 276,232 274,233 267,228 271,227 279,228 281,226 287,224 295,227 302,229 309,229 313,232 318,232 317,234 320,235 318,236 319,239 316,240 318,243 322,246 320,251" id="48081" class="commune" fill="steelblue" stroke-width="1" stroke="white" geotype="commune" geoname="Lanuéjols" code_insee="48081" code_canton="4813" code_intercom="244800389" code_arrondissement="482" code_departement="91" code_region_2015="91"/><polygon points="311,178 318,180 335,178 341,183 340,189 336,191 336,195 330,195 324,196 322,193 321,194 314,190 310,183 311,178" id="48082" class="commune" fill="steelblue" stroke-width="1" stroke="white" geotype="commune" geoname="Laubert" code_insee="48082" code_canton="4806" code_intercom="244800330" code_arrondissement="482" code_departement="91" code_region_2015="91"/><polygon points="214,124 218,122 222,125 228,123 230,125 232,125 232,127 234,127 242,125 249,128 246,131 247,134 240,139 229,143 229,146 227,147 223,144 223,147 217,146 213,149 208,144 209,141 211,141 211,138 216,134 216,132 211,129 211,126 210,126 214,124" id="48083" class="commune" fill="steelblue" stroke-width="1" stroke="white" geotype="commune" geoname="Laubies" code_insee="48083" code_canton="4811" code_intercom="244800355" code_arrondissement="482" code_departement="91" code_region_2015="91"/><polygon points="371,89 369,94 364,93 363,96 359,95 356,94 358,92 356,91 358,89 353,86 351,89 346,89 348,87 346,84 337,83 334,78 347,77 348,80 352,80 357,77 360,78 358,80 359,84 368,84 369,87 371,89" id="48084" class="commune" fill="steelblue" stroke-width="1" stroke="white" geotype="commune" geoname="Laval-Atger" code_insee="48084" code_canton="4807" code_intercom="244800447" code_arrondissement="482" code_departement="91" code_region_2015="91"/><polygon points="160,307 163,300 171,298 168,291 171,289 171,285 169,283 167,278 171,275 177,277 178,278 185,278 189,271 197,272 203,276 198,282 192,278 189,286 185,286 183,288 180,288 182,291 184,292 183,296 190,296 194,294 195,299 194,300 191,300 187,302 189,305 186,310 189,312 187,314 188,315 185,315 183,318 181,316 179,317 178,315 176,319 170,319 167,316 162,316 160,314 160,307" id="48085" class="commune" fill="steelblue" stroke-width="1" stroke="white" geotype="commune" geoname="Laval-du-Tarn" code_insee="48085" code_canton="4802" code_intercom="200001170" code_arrondissement="482" code_departement="91" code_region_2015="91"/><polygon points="427,142 428,140 429,139 431,139 431,140 437,137 444,137 444,139 440,141 437,146 438,148 441,148 441,151 444,153 443,156 444,157 447,157 449,160 451,163 449,164 448,178 454,179 455,181 451,185 451,188 446,188 442,192 430,188 427,188 423,186 422,184 422,179 419,175 421,172 418,171 416,167 418,164 414,157 415,155 422,154 426,151 429,145 429,142 427,142" id="48086" class="commune" fill="steelblue" stroke-width="1" stroke="white" geotype="commune" geoname="Luc" code_insee="48086" code_canton="4807" code_intercom="200006930" code_arrondissement="482" code_departement="91" code_region_2015="91"/><polygon points="70,143 63,142 54,131 58,126 68,123 75,129 82,130 91,128 99,122 101,125 94,127 95,132 90,133 86,138 78,136 70,138 70,143" id="48087" class="commune" fill="steelblue" stroke-width="1" stroke="white" geotype="commune" geoname="Malbouzon" code_insee="48087" code_canton="4801" code_intercom="200011286" code_arrondissement="482" code_departement="91" code_region_2015="91"/><polygon points="148,314 154,311 154,310 152,308 156,309 160,307 160,314 162,316 167,316 170,319 176,319 174,325 175,325 178,325 179,327 181,326 186,334 186,336 178,344 178,345 178,351 172,350 169,347 166,347 160,347 158,350 151,350 147,346 148,343 146,336 150,329 148,325 150,324 149,322 145,323 145,319 142,317 144,316 143,313 147,316 148,314" id="48088" class="commune" fill="steelblue" stroke-width="1" stroke="white" geotype="commune" geoname="Malène" code_insee="48088" code_canton="4802" code_intercom="244800439" code_arrondissement="481" code_departement="91" code_region_2015="91"/><polygon points="215,33 214,34 215,39 223,47 224,58 226,60 221,63 218,62 214,64 206,62 203,66 203,68 201,68 200,69 202,70 198,72 195,72 191,74 185,73 182,75 180,72 181,70 180,67 175,65 176,61 177,61 178,63 181,62 182,61 189,58 184,56 179,56 179,55 181,53 179,52 181,48 176,48 177,45 181,44 188,42 202,31 208,28 209,27 212,30 215,33" id="48089" class="commune" fill="steelblue" stroke-width="1" stroke="white" geotype="commune" geoname="Malzieu-Forain" code_insee="48089" code_canton="4811" code_intercom="200006765" code_arrondissement="482" code_departement="91" code_region_2015="91"/><polygon points="164,54 163,49 168,50 176,48 181,48 179,52 181,53 179,55 179,56 184,56 189,58 182,61 181,62 178,63 177,61 176,61 175,65 172,64 169,61 168,56 164,54" id="48090" class="commune" fill="steelblue" stroke-width="1" stroke="white" geotype="commune" geoname="Malzieu-Ville" code_insee="48090" code_canton="4811" code_intercom="200006765" code_arrondissement="482" code_departement="91" code_region_2015="91"/><polygon points="63,142 70,143 72,148 69,151 82,159 77,162 73,167 76,168 77,171 71,174 67,178 69,185 63,187 54,181 52,183 48,183 47,182 44,180 43,176 42,175 46,170 49,172 53,168 52,165 54,162 52,159 54,155 53,153 54,152 51,149 49,144 58,144 63,142" id="48091" class="commune" fill="steelblue" stroke-width="1" stroke="white" geotype="commune" geoname="Marchastel" code_insee="48091" code_canton="4801" code_intercom="200011286" code_arrondissement="482" code_departement="91" code_region_2015="91"/><polygon points="135,202 136,201 139,203 147,198 148,196 147,194 150,193 153,199 153,197 156,196 157,197 159,197 156,201 163,202 162,203 164,203 166,209 155,210 156,212 155,211 154,214 152,214 154,218 152,218 153,221 152,221 148,216 149,213 146,214 140,210 135,202" id="48092" class="commune" fill="steelblue" stroke-width="1" stroke="white" geotype="commune" geoname="Marvejols" code_insee="48092" code_canton="4808" code_intercom="244800470" code_arrondissement="482" code_departement="91" code_region_2015="91"/><polygon points="347,266 344,266 336,263 332,260 338,251 341,251 342,250 345,252 349,250 350,246 347,245 346,240 350,241 355,235 358,235 360,236 364,243 367,242 373,246 372,249 377,252 377,262 379,265 384,267 388,271 382,273 381,270 372,270 347,266" id="48093" class="commune" fill="steelblue" stroke-width="1" stroke="white" geotype="commune" geoname="Mas-d'Orcières" code_insee="48093" code_canton="4813" code_intercom="244800397" code_arrondissement="482" code_departement="91" code_region_2015="91"/><polygon points="85,346 80,344 77,350 70,352 68,351 71,342 69,340 74,338 75,336 85,328 90,328 91,326 96,324 99,321 106,323 109,328 88,341 85,346" id="48094" class="commune" fill="steelblue" stroke-width="1" stroke="white" geotype="commune" geoname="Massegros" code_insee="48094" code_canton="4802" code_intercom="244800348" code_arrondissement="481" code_departement="91" code_region_2015="91"/><polygon points="229,198 232,197 234,203 238,206 241,205 243,210 246,209 244,211 244,210 247,213 244,215 248,220 250,216 255,214 256,212 263,214 268,212 272,214 269,217 271,218 268,220 269,222 267,223 269,225 272,225 273,224 276,226 281,226 279,228 271,227 267,228 274,233 271,233 266,230 264,233 259,232 255,230 249,231 240,236 238,237 237,233 235,232 236,229 233,223 222,226 220,227 223,220 220,221 223,220 225,220 223,219 225,215 221,210 220,207 221,206 223,208 224,206 230,204 229,198" id="48095" class="commune" fill="steelblue" stroke-width="1" stroke="white" geotype="commune" geoname="Mende" code_insee="48095" code_canton="4899" code_intercom="244800405" code_arrondissement="482" code_departement="91" code_region_2015="91"/><polygon points="193,396 193,392 191,391 190,388 186,388 187,386 185,385 185,383 187,382 186,381 186,380 184,380 188,375 186,371 194,367 201,368 203,364 206,365 206,367 225,370 226,371 226,373 230,374 232,373 233,373 236,376 237,388 245,389 249,393 255,394 258,396 267,398 267,399 273,402 276,407 286,414 289,415 289,420 286,420 277,424 276,426 274,421 266,421 257,418 245,419 238,417 230,418 225,416 222,414 221,408 216,405 211,404 208,400 204,401 203,397 193,396" id="48096" class="commune" fill="steelblue" stroke-width="1" stroke="white" geotype="commune" geoname="Meyrueis" code_insee="48096" code_canton="4805" code_intercom="244800066" code_arrondissement="481" code_departement="91" code_region_2015="91"/><polygon points="408,417 401,418 394,414 389,410 388,409 385,411 383,409 383,406 380,406 384,402 384,399 382,397 381,398 381,396 379,397 379,394 380,392 386,391 391,387 395,388 409,393 410,395 407,399 415,401 415,408 418,413 413,413 412,415 408,417" id="48097" class="commune" fill="steelblue" stroke-width="1" stroke="white" geotype="commune" geoname="Moissac-Vallée-Française" code_insee="48097" code_canton="4804" code_intercom="244800421" code_arrondissement="481" code_departement="91" code_region_2015="91"/><polygon points="335,373 339,366 342,366 346,368 350,364 362,363 367,370 361,374 362,376 360,385 358,382 353,374 350,381 344,378 339,380 331,378 335,375 336,373 335,373" id="48098" class="commune" fill="steelblue" stroke-width="1" stroke="white" geotype="commune" geoname="Molezon" code_insee="48098" code_canton="4804" code_intercom="244800421" code_arrondissement="481" code_departement="91" code_region_2015="91"/><polygon points="128,239 126,241 122,238 115,240 113,237 110,237 109,234 111,228 109,227 103,230 104,228 101,228 100,225 102,223 106,223 105,221 109,217 118,221 121,220 126,223 137,223 138,225 140,225 140,227 137,229 139,231 133,234 129,239 128,239" id="48099" class="commune" fill="steelblue" stroke-width="1" stroke="white" geotype="commune" geoname="Monastier-Pin-Moriès" code_insee="48099" code_canton="4803" code_intercom="244800470" code_arrondissement="482" code_departement="91" code_region_2015="91"/><polygon points="357,197 357,194 348,195 338,194 336,195 336,191 340,189 341,183 343,183 344,182 348,182 349,174 355,175 365,179 368,183 388,182 389,183 379,187 376,194 367,195 366,198 361,195 357,197" id="48100" class="commune" fill="steelblue" stroke-width="1" stroke="white" geotype="commune" geoname="Montbel" code_insee="48100" code_canton="4806" code_intercom="244800330" code_arrondissement="482" code_departement="91" code_region_2015="91"/><polygon points="241,339 239,338 243,327 242,324 239,319 241,317 243,315 245,314 248,316 250,314 253,317 255,313 262,310 261,307 271,312 273,318 278,318 282,316 282,322 277,326 278,330 283,331 283,333 273,332 261,333 253,338 241,339" id="48101" class="commune" fill="steelblue" stroke-width="1" stroke="white" geotype="commune" geoname="Montbrun" code_insee="48101" code_canton="4805" code_intercom="244800439" code_arrondissement="481" code_departement="91" code_region_2015="91"/><polygon points="187,196 188,196 191,199 190,200 187,201 183,207 184,212 183,215 186,216 183,215 182,217 176,216 172,217 166,216 163,217 160,216 154,218 152,214 154,214 155,211 156,212 155,210 166,209 164,203 162,203 163,202 156,201 159,197 157,197 161,193 170,193 171,196 169,197 174,196 177,197 180,196 181,197 186,197 187,196" id="48103" class="commune" fill="steelblue" stroke-width="1" stroke="white" geotype="commune" geoname="Montrodat" code_insee="48103" code_canton="4803" code_intercom="244800470" code_arrondissement="482" code_departement="91" code_region_2015="91"/><polygon points="0,163 2,160 4,156 7,155 8,153 12,153 11,155 13,155 16,154 18,150 25,149 29,142 33,144 36,144 45,145 47,144 47,138 50,137 49,133 53,131 54,131 63,142 58,144 49,144 51,149 54,152 53,153 54,155 52,159 54,162 52,165 53,168 49,172 46,170 42,175 43,176 44,180 47,182 43,187 45,191 41,192 38,194 34,190 27,187 24,185 18,180 15,174 0,163" id="48104" class="commune" fill="steelblue" stroke-width="1" stroke="white" geotype="commune" geoname="Nasbinals" code_insee="48104" code_canton="4801" code_intercom="200011286" code_arrondissement="482" code_departement="91" code_region_2015="91"/><polygon points="419,122 420,122 420,119 421,119 422,120 422,122 422,124 421,124 419,122" id="48105" class="commune" fill="steelblue" stroke-width="1" stroke="white" geotype="commune" geoname="Naussac" code_insee="48105" code_canton="4807" code_intercom="200006930" code_arrondissement="482" code_departement="91" code_region_2015="91"/><polygon points="417,109 416,109 416,111 415,112 415,111 414,112 415,112 414,112 414,111 410,109 410,109 409,109 408,110 409,110 408,110 406,113 399,112 399,113 398,113 399,116 397,117 395,118 392,115 390,113 387,114 383,109 380,107 380,105 387,103 394,106 395,105 401,105 406,102 408,103 408,102 410,102 412,100 418,98 423,100 423,103 417,109" id="48105" class="commune" fill="steelblue" stroke-width="1" stroke="white" geotype="commune" geoname="Naussac" code_insee="48105" code_canton="4807" code_intercom="200006930" code_arrondissement="482" code_departement="91" code_region_2015="91"/><polygon points="91,90 92,91 84,94 76,95 76,96 70,95 65,96 63,95 60,99 58,90 57,89 52,90 50,88 49,82 50,81 48,79 49,76 56,73 57,76 62,77 63,81 65,83 64,84 66,86 63,89 63,95 65,95 71,92 71,90 72,91 76,88 77,89 81,88 82,89 85,87 87,88 91,90" id="48106" class="commune" fill="steelblue" stroke-width="1" stroke="white" geotype="commune" geoname="Noalhac" code_insee="48106" code_canton="4801" code_intercom="244800363" code_arrondissement="482" code_departement="91" code_region_2015="91"/><polygon points="164,234 159,235 156,236 158,234 157,230 154,229 152,230 153,227 149,225 152,221 153,221 152,218 154,218 160,216 163,217 166,216 172,217 171,220 172,221 169,222 164,228 160,230 164,234" id="48107" class="commune" fill="steelblue" stroke-width="1" stroke="white" geotype="commune" geoname="Palhers" code_insee="48107" code_canton="4803" code_intercom="244800470" code_arrondissement="482" code_departement="91" code_region_2015="91"/><polygon points="270,110 270,110 273,108 279,106 279,103 288,100 298,98 302,101 298,104 299,107 298,109 299,111 306,114 311,111 316,110 319,111 321,108 327,112 323,113 323,114 319,122 319,125 321,126 317,128 317,130 296,133 288,136 285,135 283,131 287,123 283,114 279,114 276,116 270,110" id="48108" class="commune" fill="steelblue" stroke-width="1" stroke="white" geotype="commune" geoname="Panouse" code_insee="48108" code_canton="4806" code_intercom="244800447" code_arrondissement="482" code_departement="91" code_region_2015="91"/><polygon points="183,10 187,2 192,0 191,3 194,6 192,6 192,8 201,12 204,8 208,9 212,15 213,23 212,30 209,27 208,28 201,25 198,26 196,22 190,21 189,19 185,18 184,13 183,10" id="48110" class="commune" fill="steelblue" stroke-width="1" stroke="white" geotype="commune" geoname="Paulhac-en-Margeride" code_insee="48110" code_canton="4811" code_intercom="200006765" code_arrondissement="482" code_departement="91" code_region_2015="91"/><polygon points="316,217 314,217 314,220 309,220 303,217 301,216 298,217 292,214 293,207 298,203 298,201 301,196 296,192 293,184 302,174 305,172 310,175 311,178 310,183 314,190 321,194 322,193 324,196 325,199 321,203 316,217" id="48111" class="commune" fill="steelblue" stroke-width="1" stroke="white" geotype="commune" geoname="Pelouse" code_insee="48111" code_canton="4806" code_intercom="244800405" code_arrondissement="482" code_departement="91" code_region_2015="91"/><polygon points="361,156 352,154 351,151 353,149 356,147 356,138 360,137 362,135 364,135 368,138 371,133 374,132 377,134 381,135 385,132 386,134 388,136 386,139 389,140 387,144 382,143 380,145 371,148 362,153 361,156" id="48112" class="commune" fill="steelblue" stroke-width="1" stroke="white" geotype="commune" geoname="Pierrefiche" code_insee="48112" code_canton="4806" code_intercom="244800330" code_arrondissement="482" code_departement="91" code_region_2015="91"/><polygon points="317,362 321,366 328,368 335,373 336,373 335,375 331,378 339,380 344,378 350,381 353,374 358,382 357,385 353,386 354,390 345,390 338,388 337,389 339,392 332,395 329,391 326,384 320,383 318,381 317,379 313,365 314,363 317,362" id="48115" class="commune" fill="steelblue" stroke-width="1" stroke="white" geotype="commune" geoname="Pompidou" code_insee="48115" code_canton="4804" code_intercom="244800421" code_arrondissement="481" code_departement="91" code_region_2015="91"/><polygon points="357,323 356,322 353,317 347,315 342,310 344,310 343,306 340,302 342,304 354,300 359,302 360,304 362,303 363,305 365,303 371,303 371,301 374,301 370,294 371,290 367,282 373,273 372,270 381,270 382,273 388,271 390,270 398,275 404,274 406,274 411,275 423,280 425,280 431,285 446,287 444,290 443,291 441,290 433,292 429,295 427,293 419,294 419,296 414,295 412,297 411,297 409,298 407,298 400,300 401,304 398,309 394,308 387,313 385,323 384,323 379,323 374,325 370,325 357,323" id="48116" class="commune" fill="steelblue" stroke-width="1" stroke="white" geotype="commune" geoname="Pont-de-Montvert" code_insee="48116" code_canton="4813" code_intercom="244800496" code_arrondissement="481" code_departement="91" code_region_2015="91"/><polygon points="446,287 431,285 425,280 431,274 440,274 442,271 447,269 448,267 445,262 446,258 448,257 446,255 449,255 449,252 452,249 453,239 459,239 462,238 464,238 465,244 469,254 458,254 459,256 457,256 456,260 462,259 463,261 456,262 456,263 463,267 463,271 461,274 460,281 456,282 452,287 450,289 446,287" id="48117" class="commune" fill="steelblue" stroke-width="1" stroke="white" geotype="commune" geoname="Pourcharesses" code_insee="48117" code_canton="4813" code_intercom="244800413" code_arrondissement="482" code_departement="91" code_region_2015="91"/><polygon points="473,256 469,254 465,244 464,238 462,238 459,239 453,239 448,238 444,232 437,233 429,231 433,227 430,224 424,222 425,218 433,215 438,219 440,222 446,219 450,219 446,215 444,211 449,208 451,205 461,206 461,201 463,199 466,200 470,198 476,198 479,201 481,208 481,209 484,214 483,215 477,214 476,216 478,220 478,227 482,227 486,230 482,230 480,232 476,232 477,236 473,239 471,243 475,243 479,246 482,245 491,246 488,248 490,249 488,252 486,252 484,255 477,254 473,256" id="48119" class="commune" fill="steelblue" stroke-width="1" stroke="white" geotype="commune" geoname="Prévenchères" code_insee="48119" code_canton="4813" code_intercom="244800413" code_arrondissement="482" code_departement="91" code_region_2015="91"/><polygon points="114,157 112,157 118,159 111,162 109,166 104,167 103,164 99,166 96,165 95,167 92,167 91,170 86,170 80,167 76,168 73,167 77,162 82,159 69,151 72,148 70,143 70,138 78,136 86,138 90,133 95,132 97,134 98,138 101,137 106,139 108,138 111,143 109,146 111,149 109,152 114,154 114,157" id="48120" class="commune" fill="steelblue" stroke-width="1" stroke="white" geotype="commune" geoname="Prinsuéjols" code_insee="48120" code_canton="4801" code_intercom="200011286" code_arrondissement="482" code_departement="91" code_region_2015="91"/><polygon points="172,64 175,65 180,67 181,70 180,72 182,75 183,88 181,87 174,91 170,88 170,84 164,83 162,79 158,78 164,73 169,72 169,68 172,64" id="48121" class="commune" fill="steelblue" stroke-width="1" stroke="white" geotype="commune" geoname="Prunières" code_insee="48121" code_canton="4812" code_intercom="200006765" code_arrondissement="482" code_departement="91" code_region_2015="91"/><polygon points="293,302 294,304 292,307 282,312 282,316 278,318 273,318 271,312 261,307 262,310 255,313 253,317 250,314 248,316 245,314 243,315 241,314 244,310 240,309 239,305 241,303 244,302 247,292 250,293 253,291 259,295 261,301 263,301 263,298 265,298 266,295 273,301 277,301 281,297 283,302 291,303 293,302" id="48122" class="commune" fill="steelblue" stroke-width="1" stroke="white" geotype="commune" geoname="Quézac" code_insee="48122" code_canton="4805" code_intercom="244800439" code_arrondissement="481" code_departement="91" code_region_2015="91"/><polygon points="50,129 53,128 53,131 49,133 50,137 47,138 47,144 45,145 36,144 33,144 29,142 25,149 18,150 16,154 13,155 11,155 12,153 8,153 7,155 4,156 2,160 0,160 1,157 8,148 9,141 13,139 17,129 20,129 22,127 28,128 35,129 39,128 40,125 44,125 45,132 50,129" id="48123" class="commune" fill="steelblue" stroke-width="1" stroke="white" geotype="commune" geoname="Recoules-d'Aubrac" code_insee="48123" code_canton="4801" code_intercom="200011286" code_arrondissement="482" code_departement="91" code_region_2015="91"/><polygon points="183,170 183,175 173,173 171,178 159,174 161,170 167,166 169,161 174,161 176,162 177,160 183,163 181,168 183,170" id="48124" class="commune" fill="steelblue" stroke-width="1" stroke="white" geotype="commune" geoname="Recoules-de-Fumas" code_insee="48124" code_canton="4808" code_intercom="244800470" code_arrondissement="482" code_departement="91" code_region_2015="91"/><polygon points="85,328 83,325 81,326 80,323 85,317 81,316 75,318 75,316 71,309 74,304 76,305 80,302 82,303 83,301 88,301 90,295 94,296 100,295 101,298 103,298 101,307 102,308 106,309 99,313 99,321 96,324 91,326 90,328 85,328" id="48125" class="commune" fill="steelblue" stroke-width="1" stroke="white" geotype="commune" geoname="Recoux" code_insee="48125" code_canton="4802" code_intercom="244800348" code_arrondissement="481" code_departement="91" code_region_2015="91"/><polygon points="177,160 173,157 178,154 183,153 181,149 185,145 191,148 199,151 202,155 207,154 209,155 212,161 220,157 221,159 225,159 227,163 224,167 217,165 207,173 205,173 201,176 201,174 195,169 192,164 187,161 187,169 183,170 181,168 183,163 177,160" id="48126" class="commune" fill="steelblue" stroke-width="1" stroke="white" geotype="commune" geoname="Ribennes" code_insee="48126" code_canton="4808" code_intercom="244800355" code_arrondissement="482" code_departement="91" code_region_2015="91"/><polygon points="232,197 229,198 230,195 225,193 225,188 220,184 222,181 221,178 217,175 207,173 217,165 224,167 227,163 232,163 234,162 231,161 236,159 239,161 247,158 250,159 255,156 260,160 262,159 262,158 265,160 272,161 275,159 287,166 288,168 286,171 289,173 287,179 276,178 272,182 267,182 263,184 258,184 252,189 252,184 248,186 247,182 244,184 237,185 236,186 238,187 233,192 232,197" id="48127" class="commune" fill="steelblue" stroke-width="1" stroke="white" geotype="commune" geoname="Rieutort-de-Randon" code_insee="48127" code_canton="4811" code_intercom="244800355" code_arrondissement="482" code_departement="91" code_region_2015="91"/><polygon points="183,88 186,89 184,91 183,97 180,96 181,99 177,99 179,101 172,108 173,111 178,111 178,115 180,115 180,122 170,124 171,118 164,116 161,121 155,121 154,120 156,119 151,115 153,114 151,113 151,112 148,112 148,109 146,110 148,108 147,105 150,94 151,93 153,94 154,91 150,90 149,87 157,86 163,93 164,91 170,88 174,91 181,87 183,88" id="48128" class="commune" fill="steelblue" stroke-width="1" stroke="white" geotype="commune" geoname="Rimeize" code_insee="48128" code_canton="4812" code_intercom="200018315" code_arrondissement="482" code_departement="91" code_region_2015="91"/><polygon points="397,117 398,118 399,118 399,119 401,121 400,122 401,122 400,123 401,123 400,124 401,126 401,127 401,128 402,129 407,129 406,130 408,131 408,132 407,132 406,133 407,136 407,143 404,143 402,145 401,150 391,151 390,146 387,145 387,144 389,140 386,139 388,136 386,134 386,131 383,130 385,125 383,124 391,121 390,119 392,115 395,118 397,117" id="48129" class="commune" fill="steelblue" stroke-width="1" stroke="white" geotype="commune" geoname="Rocles" code_insee="48129" code_canton="4807" code_intercom="200006930" code_arrondissement="482" code_departement="91" code_region_2015="91"/><polygon points="307,377 307,387 304,387 302,383 298,384 296,392 298,396 296,398 291,398 292,401 279,399 275,394 271,393 272,392 276,392 279,391 280,383 284,381 282,377 287,374 292,368 296,370 299,370 303,373 307,374 307,377" id="48130" class="commune" fill="steelblue" stroke-width="1" stroke="white" geotype="commune" geoname="Rousses" code_insee="48130" code_canton="4804" code_intercom="200047710" code_arrondissement="481" code_departement="91" code_region_2015="91"/><polygon points="109,385 113,384 117,379 122,383 120,387 109,387 109,385" id="48131" class="commune" fill="steelblue" stroke-width="1" stroke="white" geotype="commune" geoname="Rozier" code_insee="48131" code_canton="4805" code_intercom="244800066" code_arrondissement="481" code_departement="91" code_region_2015="91"/><polygon points="183,97 184,91 186,89 183,88 182,75 185,73 191,74 195,72 198,72 202,70 200,69 201,68 203,68 203,66 208,66 208,72 213,71 215,76 220,78 220,80 223,81 222,82 225,83 226,80 228,80 235,87 235,91 231,95 231,99 228,104 225,105 218,104 216,107 210,103 205,110 198,100 183,97" id="48132" class="commune" fill="steelblue" stroke-width="1" stroke="white" geotype="commune" geoname="Saint-Alban-sur-Limagnole" code_insee="48132" code_canton="4811" code_intercom="200006765" code_arrondissement="482" code_departement="91" code_region_2015="91"/><polygon points="240,139 242,144 240,148 243,150 236,155 236,159 231,161 234,162 232,163 227,163 225,159 221,159 220,157 227,152 226,151 228,148 227,147 229,146 229,143 240,139" id="48133" class="commune" fill="steelblue" stroke-width="1" stroke="white" geotype="commune" geoname="Saint-Amans" code_insee="48133" code_canton="4811" code_intercom="244800355" code_arrondissement="482" code_departement="91" code_region_2015="91"/><polygon points="463,330 464,332 461,341 456,343 454,338 440,327 449,326 463,330" id="48134" class="commune" fill="steelblue" stroke-width="1" stroke="white" geotype="commune" geoname="Saint-Andéol-de-Clerguemort" code_insee="48134" code_canton="4804" code_intercom="244800496" code_arrondissement="481" code_departement="91" code_region_2015="91"/><polygon points="477,266 480,269 487,270 480,278 476,277 476,281 477,282 476,283 474,284 465,280 460,281 461,274 463,271 469,268 472,269 477,266" id="48135" class="commune" fill="steelblue" stroke-width="1" stroke="white" geotype="commune" geoname="Saint-André-Capcèze" code_insee="48135" code_canton="4813" code_intercom="244800413" code_arrondissement="482" code_departement="91" code_region_2015="91"/><polygon points="385,323 387,322 393,324 395,327 395,332 404,338 398,341 396,344 403,349 412,350 416,348 422,352 417,356 420,359 423,361 424,363 418,362 413,363 413,366 411,368 404,365 405,360 400,355 400,352 393,350 386,341 382,341 380,338 384,323 385,323" id="48136" class="commune" fill="steelblue" stroke-width="1" stroke="white" geotype="commune" geoname="Saint-André-de-Lancize" code_insee="48136" code_canton="4804" code_intercom="244800454" code_arrondissement="481" code_departement="91" code_region_2015="91"/><polygon points="239,267 234,265 233,263 233,260 236,259 239,255 235,252 234,248 237,248 238,246 243,243 239,241 240,236 249,231 255,230 259,232 261,241 263,242 261,245 265,247 271,247 273,251 274,253 272,253 268,251 261,255 261,258 258,259 259,264 256,265 252,263 249,263 245,265 240,265 239,267" id="48137" class="commune" fill="steelblue" stroke-width="1" stroke="white" geotype="commune" geoname="Saint-Bauzile" code_insee="48137" code_canton="4813" code_intercom="244800389" code_arrondissement="482" code_departement="91" code_region_2015="91"/><polygon points="129,239 133,234 139,231 137,229 140,227 142,227 144,224 148,226 149,225 153,227 152,230 154,229 157,230 158,234 156,236 149,237 145,235 141,234 138,235 138,234 134,237 135,238 135,241 129,239" id="48138" class="commune" fill="steelblue" stroke-width="1" stroke="white" geotype="commune" geoname="Saint-Bonnet-de-Chirac" code_insee="48138" code_canton="4803" code_intercom="244800470" code_arrondissement="482" code_departement="91" code_region_2015="91"/><polygon points="383,79 384,82 382,84 385,86 380,92 374,91 374,88 371,89 369,87 368,84 359,84 358,80 360,78 357,77 352,80 348,80 347,77 334,78 337,75 332,76 332,74 336,72 345,72 348,71 352,71 353,68 358,68 364,71 367,70 371,70 371,67 375,68 376,72 379,73 378,75 383,79" id="48139" class="commune" fill="steelblue" stroke-width="1" stroke="white" geotype="commune" geoname="Saint-Bonnet-de-Montauroux" code_insee="48139" code_canton="4807" code_intercom="244800447" code_arrondissement="482" code_departement="91" code_region_2015="91"/><polygon points="135,64 137,64 137,66 144,65 147,67 151,66 153,70 149,71 148,73 151,73 153,74 155,79 158,78 162,79 164,83 170,84 170,88 164,91 163,93 157,86 149,87 150,90 154,91 153,94 151,93 150,94 145,94 144,95 138,88 133,88 130,88 125,83 120,81 124,80 124,77 129,74 128,72 130,70 133,67 136,67 135,64" id="48140" class="commune" fill="steelblue" stroke-width="1" stroke="white" geotype="commune" geoname="Saint-Chély-d'Apcher" code_insee="48140" code_canton="4812" code_intercom="200018315" code_arrondissement="482" code_departement="91" code_region_2015="91"/><polygon points="239,338 235,335 233,336 232,344 229,346 226,347 226,344 223,342 212,340 212,339 210,342 205,342 202,339 197,339 196,342 192,343 192,346 178,345 178,344 186,336 186,334 181,326 185,324 184,321 191,316 196,322 202,319 204,319 205,315 212,315 212,309 216,304 221,307 225,308 226,312 229,311 231,312 235,317 238,316 241,317 239,319 242,324 243,327 239,338" id="48141" class="commune" fill="steelblue" stroke-width="1" stroke="white" geotype="commune" geoname="Mas-Saint-Chély" code_insee="48141" code_canton="4805" code_intercom="244800439" code_arrondissement="481" code_departement="91" code_region_2015="91"/><polygon points="131,161 129,160 122,163 118,159 118,156 114,157 114,154 109,152 111,149 109,146 111,143 108,138 109,133 110,133 120,136 130,137 131,138 134,138 135,141 137,142 136,147 138,150 138,152 132,154 131,161" id="48142" class="commune" fill="steelblue" stroke-width="1" stroke="white" geotype="commune" geoname="Sainte-Colombe-de-Peyre" code_insee="48142" code_canton="4801" code_intercom="244800322" code_arrondissement="482" code_departement="91" code_region_2015="91"/><polygon points="380,406 376,403 372,403 366,399 370,395 368,391 371,390 362,390 364,387 360,385 362,376 361,374 367,370 368,374 375,377 376,386 380,387 384,380 389,382 388,385 391,387 386,391 380,392 379,394 379,397 381,396 381,398 382,397 384,399 384,402 380,406" id="48144" class="commune" fill="steelblue" stroke-width="1" stroke="white" geotype="commune" geoname="Sainte-Croix-Vallée-Française" code_insee="48144" code_canton="4804" code_intercom="244800421" code_arrondissement="481" code_departement="91" code_region_2015="91"/><polygon points="270,110 270,110 269,115 263,119 257,126 255,133 251,131 249,128 242,125 234,127 232,127 232,125 230,125 228,123 222,125 218,122 214,114 211,113 219,112 216,107 218,104 225,105 228,104 236,102 239,108 250,107 255,111 258,108 260,105 258,104 260,102 266,101 268,102 265,107 270,110" id="48145" class="commune" fill="steelblue" stroke-width="1" stroke="white" geotype="commune" geoname="Saint-Denis-en-Margeride" code_insee="48145" code_canton="4811" code_intercom="244800355" code_arrondissement="482" code_departement="91" code_region_2015="91"/><polygon points="243,315 241,317 238,316 235,317 231,312 229,311 226,312 225,308 221,307 216,304 212,309 212,315 205,315 204,319 202,319 196,322 191,316 184,321 185,324 181,326 179,327 178,325 175,325 174,325 176,319 178,315 179,317 181,316 183,318 185,315 188,315 187,314 189,312 186,310 189,305 187,302 191,300 194,300 195,299 194,294 190,296 183,296 184,292 182,291 180,288 183,288 185,286 189,286 192,278 198,282 203,276 210,275 218,268 223,267 223,265 226,267 227,266 230,266 232,267 233,263 234,265 239,267 239,272 242,279 239,282 243,284 243,288 247,292 244,302 241,303 239,305 240,309 244,310 241,314 243,315" id="48146" class="commune" fill="steelblue" stroke-width="1" stroke="white" geotype="commune" geoname="Sainte-Enimie" code_insee="48146" code_canton="4802" code_intercom="244800439" code_arrondissement="481" code_departement="91" code_region_2015="91"/><polygon points="284,246 287,246 287,249 292,250 296,249 298,253 302,254 305,252 309,253 318,250 320,251 320,257 332,260 336,263 333,266 326,266 317,272 311,272 307,275 301,276 296,274 289,272 273,274 272,276 265,275 253,270 256,265 259,264 258,259 261,258 261,255 268,251 272,253 274,253 273,251 274,250 277,250 284,246" id="48147" class="commune" fill="steelblue" stroke-width="1" stroke="white" geotype="commune" geoname="Saint-Étienne-du-Valdonnez" code_insee="48147" code_canton="4813" code_intercom="244800389" code_arrondissement="482" code_departement="91" code_region_2015="91"/><polygon points="457,401 456,408 453,406 449,408 439,416 439,418 433,415 430,416 426,413 421,414 418,413 415,408 415,401 407,399 410,395 409,393 395,388 399,385 411,386 411,382 414,381 418,385 423,385 429,381 430,374 439,375 441,371 446,374 442,378 445,379 448,387 445,392 457,401" id="48148" class="commune" fill="steelblue" stroke-width="1" stroke="white" geotype="commune" geoname="Saint-Étienne-Vallée-Française" code_insee="48148" code_canton="4804" code_intercom="244800421" code_arrondissement="481" code_departement="91" code_region_2015="91"/><polygon points="235,87 244,82 249,83 254,86 265,85 273,90 270,93 263,93 256,94 250,107 239,108 236,102 228,104 231,99 231,95 235,91 235,87" id="48149" class="commune" fill="steelblue" stroke-width="1" stroke="white" geotype="commune" geoname="Sainte-Eulalie" code_insee="48149" code_canton="4811" code_intercom="200006765" code_arrondissement="482" code_departement="91" code_region_2015="91"/><polygon points="407,136 410,135 411,135 412,136 413,135 414,135 415,134 418,134 418,134 420,134 421,136 421,137 422,137 422,138 422,138 423,138 422,140 422,141 424,141 427,142 429,142 429,145 426,151 422,154 415,155 410,154 408,148 410,145 407,143 407,136" id="48150" class="commune" fill="steelblue" stroke-width="1" stroke="white" geotype="commune" geoname="Saint-Flour-de-Mercoire" code_insee="48150" code_canton="4807" code_intercom="200006930" code_arrondissement="482" code_departement="91" code_region_2015="91"/><polygon points="389,183 391,182 401,183 405,188 396,191 394,193 392,200 392,206 393,207 390,209 382,207 383,204 381,201 376,202 368,200 366,198 367,195 376,194 379,187 389,183" id="48151" class="commune" fill="steelblue" stroke-width="1" stroke="white" geotype="commune" geoname="Saint-Frézal-d'Albuges" code_insee="48151" code_canton="4806" code_intercom="244800397" code_arrondissement="482" code_departement="91" code_region_2015="91"/><polygon points="440,327 454,338 456,343 446,344 441,341 437,343 435,341 431,342 428,344 425,339 418,337 416,332 423,332 420,328 419,323 429,328 434,328 440,327" id="48152" class="commune" fill="steelblue" stroke-width="1" stroke="white" geotype="commune" geoname="Saint-Frézal-de-Ventalon" code_insee="48152" code_canton="4804" code_intercom="244800496" code_arrondissement="481" code_departement="91" code_region_2015="91"/><polygon points="208,144 213,149 217,146 223,147 223,144 227,147 228,148 226,151 227,152 220,157 212,161 209,155 207,154 202,155 199,151 202,150 203,146 205,144 204,143 208,144" id="48153" class="commune" fill="steelblue" stroke-width="1" stroke="white" geotype="commune" geoname="Saint-Gal" code_insee="48153" code_canton="4811" code_intercom="244800355" code_arrondissement="482" code_departement="91" code_region_2015="91"/><polygon points="146,336 143,336 137,333 132,333 133,335 131,337 123,336 121,334 118,333 118,329 109,328 106,323 99,321 99,313 106,309 102,308 101,307 103,298 114,297 117,296 117,294 119,291 126,290 129,303 134,304 135,301 145,302 145,308 148,314 147,316 143,313 144,316 142,317 145,319 145,323 149,322 150,324 148,325 150,329 146,336" id="48154" class="commune" fill="steelblue" stroke-width="1" stroke="white" geotype="commune" geoname="Saint-Georges-de-Lévéjac" code_insee="48154" code_canton="4802" code_intercom="244800348" code_arrondissement="481" code_departement="91" code_region_2015="91"/><polygon points="386,361 387,359 385,355 393,350 400,352 400,355 405,360 404,365 411,368 413,366 413,363 418,362 424,363 425,365 426,367 431,370 441,370 441,371 439,375 430,374 429,381 423,385 418,385 414,381 411,382 411,386 399,385 395,388 391,387 388,385 389,382 392,380 393,375 388,372 389,364 386,361" id="48155" class="commune" fill="steelblue" stroke-width="1" stroke="white" geotype="commune" geoname="Saint-Germain-de-Calberte" code_insee="48155" code_canton="4804" code_intercom="244800454" code_arrondissement="481" code_departement="91" code_region_2015="91"/><polygon points="108,255 101,257 98,254 94,255 93,261 88,261 89,258 83,257 84,255 81,253 82,247 84,240 82,235 85,231 89,227 91,230 93,222 97,225 100,225 101,228 104,228 103,230 103,233 101,234 102,244 105,247 104,250 108,255" id="48156" class="commune" fill="steelblue" stroke-width="1" stroke="white" geotype="commune" geoname="Saint-Germain-du-Teil" code_insee="48156" code_canton="4803" code_intercom="200001170" code_arrondissement="482" code_departement="91" code_region_2015="91"/><polygon points="313,232 309,229 302,229 295,227 295,221 300,221 300,220 303,217 309,220 314,220 313,223 316,226 313,232" id="48157" class="commune" fill="steelblue" stroke-width="1" stroke="white" geotype="commune" geoname="Sainte-Hélène" code_insee="48157" code_canton="4806" code_intercom="244800397" code_arrondissement="482" code_departement="91" code_region_2015="91"/><polygon points="424,363 423,361 420,359 417,356 422,352 416,348 421,348 423,350 427,347 431,349 433,348 434,349 436,348 438,353 442,351 441,354 443,355 439,359 433,363 425,365 424,363" id="48158" class="commune" fill="steelblue" stroke-width="1" stroke="white" geotype="commune" geoname="Saint-Hilaire-de-Lavit" code_insee="48158" code_canton="4804" code_intercom="244800454" code_arrondissement="481" code_departement="91" code_region_2015="91"/><polygon points="329,121 334,121 344,118 349,117 354,118 358,119 358,123 360,122 365,123 364,124 366,124 369,126 369,133 371,133 368,138 364,135 362,135 360,137 356,138 356,147 353,149 347,145 344,146 339,140 336,139 333,138 334,136 329,131 327,130 330,127 329,121" id="48160" class="commune" fill="steelblue" stroke-width="1" stroke="white" geotype="commune" geoname="Saint-Jean-la-Fouillouse" code_insee="48160" code_canton="4806" code_intercom="244800330" code_arrondissement="482" code_departement="91" code_region_2015="91"/><polygon points="55,70 56,73 49,76 51,73 47,74 45,74 44,68 50,70 55,70" id="48161" class="commune" fill="steelblue" stroke-width="1" stroke="white" geotype="commune" geoname="Saint-Juéry" code_insee="48161" code_canton="4801" code_intercom="244800363" code_arrondissement="482" code_departement="91" code_region_2015="91"/><polygon points="348,339 347,337 340,343 336,344 332,343 334,340 331,338 332,336 330,335 326,335 320,337 317,335 320,332 319,329 320,326 330,330 335,329 337,326 348,325 351,323 357,323 370,325 366,330 359,332 359,337 355,338 352,338 348,339" id="48162" class="commune" fill="steelblue" stroke-width="1" stroke="white" geotype="commune" geoname="Saint-Julien-d'Arpaon" code_insee="48162" code_canton="4804" code_intercom="200047710" code_arrondissement="481" code_departement="91" code_region_2015="91"/><polygon points="487,357 485,356 484,358 482,357 478,359 479,357 476,353 476,349 475,348 479,347 486,349 489,353 487,357" id="48163" class="commune" fill="steelblue" stroke-width="1" stroke="white" geotype="commune" geoname="Saint-Julien-des-Points" code_insee="48163" code_canton="4804" code_intercom="244800454" code_arrondissement="481" code_departement="91" code_region_2015="91"/><polygon points="332,260 320,257 320,251 322,246 318,243 319,240 322,241 329,236 331,238 334,237 334,235 332,235 338,233 338,231 341,230 340,228 337,227 335,222 336,217 341,215 342,222 344,222 346,225 352,225 351,220 354,223 360,220 368,211 372,215 367,219 369,222 366,232 362,233 361,232 360,236 358,235 355,235 350,241 346,240 347,245 350,246 349,250 345,252 342,250 341,251 338,251 332,260" id="48164" class="commune" fill="steelblue" stroke-width="1" stroke="white" geotype="commune" geoname="Saint-Julien-du-Tournel" code_insee="48164" code_canton="4813" code_intercom="244800397" code_arrondissement="482" code_departement="91" code_region_2015="91"/><polygon points="121,184 123,186 120,187 122,189 120,192 122,195 121,196 118,198 118,200 117,198 114,199 112,198 111,200 106,201 96,200 93,202 87,201 89,197 86,196 83,197 76,194 73,192 76,190 69,185 67,178 71,174 77,171 76,168 80,167 86,170 91,170 106,177 119,177 121,180 121,184" id="48165" class="commune" fill="steelblue" stroke-width="1" stroke="white" geotype="commune" geoname="Saint-Laurent-de-Muret" code_insee="48165" code_canton="4801" code_intercom="244800470" code_arrondissement="482" code_departement="91" code_region_2015="91"/><polygon points="317,336 317,335 320,337 326,335 330,335 332,336 331,338 329,346 320,348 318,355 316,355 317,358 307,357 302,352 299,353 292,348 284,346 281,341 284,338 288,339 294,336 302,338 304,337 311,339 315,343 319,340 317,336" id="48166" class="commune" fill="steelblue" stroke-width="1" stroke="white" geotype="commune" geoname="Saint-Laurent-de-Trèves" code_insee="48166" code_canton="4804" code_intercom="200047710" code_arrondissement="481" code_departement="91" code_region_2015="91"/><polygon points="65,111 59,103 60,99 63,95 65,96 70,95 76,96 76,95 78,97 79,106 69,111 65,111" id="48167" class="commune" fill="steelblue" stroke-width="1" stroke="white" geotype="commune" geoname="Saint-Laurent-de-Veyrès" code_insee="48167" code_canton="4801" code_intercom="244800363" code_arrondissement="482" code_departement="91" code_region_2015="91"/><polygon points="147,194 146,185 140,181 138,181 136,176 138,178 144,176 146,176 148,175 151,169 156,166 167,166 161,170 159,174 171,178 173,180 176,178 179,179 181,182 183,182 183,187 179,190 170,193 161,193 157,197 156,196 153,197 153,199 150,193 147,194" id="48168" class="commune" fill="steelblue" stroke-width="1" stroke="white" geotype="commune" geoname="Saint-Léger-de-Peyre" code_insee="48168" code_canton="4808" code_intercom="244800470" code_arrondissement="482" code_departement="91" code_region_2015="91"/><polygon points="143,39 146,35 145,33 150,30 150,28 152,28 154,27 156,28 164,28 167,27 164,31 167,34 169,32 172,34 183,30 183,33 179,36 181,37 179,39 181,44 177,45 176,48 168,50 163,49 162,46 158,45 157,42 148,39 146,40 143,39" id="48169" class="commune" fill="steelblue" stroke-width="1" stroke="white" geotype="commune" geoname="Saint-Léger-du-Malzieu" code_insee="48169" code_canton="4811" code_intercom="200006765" code_arrondissement="482" code_departement="91" code_region_2015="91"/><polygon points="475,374 470,384 471,385 477,384 478,386 480,385 482,388 479,388 481,388 480,391 483,392 482,394 484,394 484,396 487,394 489,396 488,399 477,396 467,391 463,390 462,392 466,396 465,401 462,402 457,401 445,392 448,387 445,379 442,378 446,374 441,371 441,370 446,368 454,369 462,370 470,374 475,374" id="48170" class="commune" fill="steelblue" stroke-width="1" stroke="white" geotype="commune" geoname="Saint-Martin-de-Boubaux" code_insee="48170" code_canton="4804" code_intercom="244800454" code_arrondissement="481" code_departement="91" code_region_2015="91"/><polygon points="362,363 363,361 368,359 378,359 384,362 386,361 389,364 388,372 393,375 392,380 389,382 384,380 380,387 376,386 375,377 368,374 367,370 362,363" id="48171" class="commune" fill="steelblue" stroke-width="1" stroke="white" geotype="commune" geoname="Saint-Martin-de-Lansuscle" code_insee="48171" code_canton="4804" code_intercom="244800421" code_arrondissement="481" code_departement="91" code_region_2015="91"/><polygon points="393,324 387,322 385,323 387,313 394,308 398,309 401,304 400,300 407,298 409,298 411,297 412,297 414,295 419,296 419,294 427,293 429,295 430,297 430,306 427,306 428,308 421,308 421,312 419,316 427,320 434,320 434,328 429,328 419,323 420,328 423,332 416,332 410,330 410,327 406,324 394,323 393,324" id="48172" class="commune" fill="steelblue" stroke-width="1" stroke="white" geotype="commune" geoname="Saint-Maurice-de-Ventalon" code_insee="48172" code_canton="4813" code_intercom="244800496" code_arrondissement="481" code_departement="91" code_region_2015="91"/><polygon points="441,370 431,370 426,367 425,365 433,363 439,359 443,355 441,354 442,351 445,347 459,362 457,367 454,369 446,368 441,370" id="48173" class="commune" fill="steelblue" stroke-width="1" stroke="white" geotype="commune" geoname="Saint-Michel-de-Dèze" code_insee="48173" code_canton="4804" code_intercom="244800454" code_arrondissement="481" code_departement="91" code_region_2015="91"/><polygon points="299,78 299,81 297,81 297,79 294,80 293,86 298,89 298,94 296,94 295,98 288,99 288,100 279,103 279,106 273,108 270,110 265,107 268,102 266,101 260,102 258,104 260,105 258,108 255,111 250,107 256,94 263,93 270,93 273,90 265,85 254,86 249,83 254,77 258,75 274,73 285,74 284,70 289,69 292,69 294,74 295,74 299,78" id="48174" class="commune" fill="steelblue" stroke-width="1" stroke="white" geotype="commune" geoname="Saint-Paul-le-Froid" code_insee="48174" code_canton="4806" code_intercom="244800447" code_arrondissement="482" code_departement="91" code_region_2015="91"/><polygon points="76,261 76,255 71,254 66,247 69,243 71,244 75,242 71,240 66,239 60,232 57,222 61,215 65,220 68,220 64,227 69,232 75,233 79,237 79,242 81,243 80,246 82,247 81,253 84,255 83,257 81,262 85,263 84,264 79,263 76,261" id="48175" class="commune" fill="steelblue" stroke-width="1" stroke="white" geotype="commune" geoname="Saint-Pierre-de-Nogaret" code_insee="48175" code_canton="4801" code_intercom="200001170" code_arrondissement="482" code_departement="91" code_region_2015="91"/><polygon points="122,367 122,365 125,366 126,364 132,364 135,361 136,358 139,357 145,359 147,356 152,353 170,361 171,364 164,366 161,370 154,371 152,375 152,379 151,382 140,381 127,386 120,387 122,383 117,379 119,375 119,371 122,369 122,367" id="48176" class="commune" fill="steelblue" stroke-width="1" stroke="white" geotype="commune" geoname="Saint-Pierre-des-Tripiers" code_insee="48176" code_canton="4805" code_intercom="244800066" code_arrondissement="481" code_departement="91" code_region_2015="91"/><polygon points="151,66 152,60 148,57 150,55 149,53 151,52 154,51 161,53 161,55 164,54 168,56 169,61 172,64 169,68 169,72 164,73 158,78 155,79 153,74 151,73 148,73 149,71 153,70 151,66" id="48177" class="commune" fill="steelblue" stroke-width="1" stroke="white" geotype="commune" geoname="Saint-Pierre-le-Vieux" code_insee="48177" code_canton="4812" code_intercom="200006765" code_arrondissement="482" code_departement="91" code_region_2015="91"/><polygon points="446,344 445,347 442,351 438,353 436,348 434,349 433,348 431,349 427,347 423,350 421,348 416,348 412,350 403,349 396,344 398,341 404,338 395,332 395,327 393,324 394,323 406,324 410,327 410,330 416,332 418,337 425,339 428,344 431,342 435,341 437,343 441,341 446,344" id="48178" class="commune" fill="steelblue" stroke-width="1" stroke="white" geotype="commune" geoname="Saint-Privat-de-Vallongue" code_insee="48178" code_canton="4804" code_intercom="244800454" code_arrondissement="481" code_departement="91" code_region_2015="91"/><polygon points="208,28 202,31 188,42 181,44 179,39 181,37 179,36 183,33 183,30 172,34 169,32 167,34 164,31 167,27 166,22 168,19 170,17 176,18 184,13 185,18 189,19 190,21 196,22 198,26 201,25 208,28" id="48179" class="commune" fill="steelblue" stroke-width="1" stroke="white" geotype="commune" geoname="Saint-Privat-du-Fau" code_insee="48179" code_canton="4811" code_intercom="200006765" code_arrondissement="482" code_departement="91" code_region_2015="91"/><polygon points="122,365 122,367 119,367 106,362 104,362 102,357 101,358 97,359 88,360 86,357 87,353 85,346 88,341 109,328 118,329 118,333 121,334 119,337 116,337 114,339 116,341 115,349 117,356 123,356 122,365" id="48180" class="commune" fill="steelblue" stroke-width="1" stroke="white" geotype="commune" geoname="Saint-Rome-de-Dolan" code_insee="48180" code_canton="4802" code_intercom="244800348" code_arrondissement="481" code_departement="91" code_region_2015="91"/><polygon points="95,282 100,277 102,270 107,271 111,272 114,278 113,280 114,286 112,289 107,289 106,291 103,290 105,287 104,286 100,288 99,287 96,287 95,282" id="48181" class="commune" fill="steelblue" stroke-width="1" stroke="white" geotype="commune" geoname="Saint-Saturnin" code_insee="48181" code_canton="4802" code_intercom="200001170" code_arrondissement="482" code_departement="91" code_region_2015="91"/><polygon points="286,136 285,135 288,136 296,133 317,130 317,128 321,126 319,125 319,122 323,114 328,114 329,121 330,127 327,130 329,131 324,134 325,139 322,145 320,144 316,146 307,145 302,143 296,147 293,145 291,141 288,140 286,136" id="48182" class="commune" fill="steelblue" stroke-width="1" stroke="white" geotype="commune" geoname="Saint-Sauveur-de-Ginestoux" code_insee="48182" code_canton="4806" code_intercom="244800330" code_arrondissement="482" code_departement="91" code_region_2015="91"/><polygon points="173,157 177,160 176,162 174,161 169,161 167,166 156,166 151,169 148,175 146,176 144,176 141,175 142,173 140,170 133,169 130,166 134,163 133,161 131,161 132,154 138,152 138,150 142,152 147,149 146,147 149,147 153,143 158,143 160,142 159,147 165,149 167,158 173,157" id="48183" class="commune" fill="steelblue" stroke-width="1" stroke="white" geotype="commune" geoname="Saint-Sauveur-de-Peyre" code_insee="48183" code_canton="4801" code_intercom="244800322" code_arrondissement="482" code_departement="91" code_region_2015="91"/><polygon points="337,83 334,83 334,84 328,84 324,82 321,83 317,80 314,81 307,80 305,77 299,78 295,74 299,73 299,70 297,68 301,66 299,64 303,57 301,49 308,47 311,50 318,47 320,48 321,52 328,58 328,61 324,64 328,67 327,70 332,69 336,72 332,74 332,76 337,75 334,78 337,83" id="48184" class="commune" fill="steelblue" stroke-width="1" stroke="white" geotype="commune" geoname="Saint-Symphorien" code_insee="48184" code_canton="4806" code_intercom="244800447" code_arrondissement="482" code_departement="91" code_region_2015="91"/><polygon points="140,250 133,248 132,246 132,243 128,242 128,239 129,239 135,241 135,238 134,237 138,234 138,235 141,234 145,235 149,237 156,236 159,235 162,242 149,243 147,245 149,248 140,250" id="48185" class="commune" fill="steelblue" stroke-width="1" stroke="white" geotype="commune" geoname="Salelles" code_insee="48185" code_canton="4803" code_intercom="244800504" code_arrondissement="482" code_departement="91" code_region_2015="91"/><polygon points="356,322 357,323 351,323 348,325 337,326 335,329 330,330 320,326 319,329 320,332 317,335 317,336 306,326 305,320 308,317 315,318 316,314 325,313 327,313 329,317 335,320 349,319 356,322" id="48186" class="commune" fill="steelblue" stroke-width="1" stroke="white" geotype="commune" geoname="Salle-Prunet" code_insee="48186" code_canton="4805" code_intercom="200047710" code_arrondissement="481" code_departement="91" code_region_2015="91"/><polygon points="46,200 46,198 41,196 38,194 41,192 45,191 43,187 47,182 48,183 52,183 54,181 63,187 69,185 76,190 73,192 76,194 83,197 86,196 89,197 87,201 93,202 100,207 103,207 102,208 104,215 109,217 105,221 106,223 102,223 100,225 97,225 93,222 91,230 89,227 85,231 85,228 83,226 80,217 77,214 77,212 72,207 71,204 65,206 62,209 58,205 57,197 46,200" id="48187" class="commune" fill="steelblue" stroke-width="1" stroke="white" geotype="commune" geoname="Salces" code_insee="48187" code_canton="4801" code_intercom="200001170" code_arrondissement="482" code_departement="91" code_region_2015="91"/><polygon points="191,132 195,133 197,132 198,126 193,125 200,119 203,121 203,124 206,122 210,125 214,124 210,126 211,126 211,129 216,132 216,134 211,138 211,141 209,141 208,144 204,143 205,144 203,146 202,150 199,151 191,148 189,143 193,139 186,139 191,135 191,132" id="48188" class="commune" fill="steelblue" stroke-width="1" stroke="white" geotype="commune" geoname="Serverette" code_insee="48188" code_canton="4811" code_intercom="200006765" code_arrondissement="482" code_departement="91" code_region_2015="91"/><polygon points="214,201 209,200 204,200 202,198 202,196 198,195 196,192 197,187 199,185 202,187 209,186 210,180 217,175 221,178 222,181 220,184 225,188 225,193 230,195 229,198 230,204 224,206 223,208 221,206 220,200 222,199 220,197 214,201" id="48189" class="commune" fill="steelblue" stroke-width="1" stroke="white" geotype="commune" geoname="Servières" code_insee="48189" code_canton="4808" code_intercom="244800355" code_arrondissement="482" code_departement="91" code_region_2015="91"/><polygon points="72,62 74,61 80,63 81,65 84,65 84,71 88,74 92,71 93,64 97,64 98,62 101,62 105,62 104,64 107,68 105,70 101,72 105,74 111,74 111,77 107,77 103,81 102,80 98,81 98,84 95,85 91,90 87,88 90,86 87,83 87,81 81,78 78,74 78,70 74,69 71,66 72,62" id="48190" class="commune" fill="steelblue" stroke-width="1" stroke="white" geotype="commune" geoname="Termes" code_insee="48190" code_canton="4801" code_intercom="244800363" code_arrondissement="482" code_departement="91" code_region_2015="91"/><polygon points="69,298 70,293 67,291 68,289 78,287 76,279 82,279 90,281 90,283 95,282 96,287 99,287 100,288 104,286 105,287 103,290 106,291 107,289 112,289 114,286 117,288 114,294 114,297 103,298 101,298 100,295 94,296 90,295 88,301 83,301 82,303 80,302 76,305 74,304 68,302 69,298" id="48191" class="commune" fill="steelblue" stroke-width="1" stroke="white" geotype="commune" geoname="Tieule" code_insee="48191" code_canton="4802" code_intercom="200001170" code_arrondissement="482" code_departement="91" code_region_2015="91"/><polygon points="58,243 49,237 46,237 42,233 47,226 46,225 45,218 50,205 46,200 57,197 58,205 62,209 63,213 61,215 57,222 60,232 66,239 71,240 75,242 71,244 69,243 66,247 58,243" id="48192" class="commune" fill="steelblue" stroke-width="1" stroke="white" geotype="commune" geoname="Trélans" code_insee="48192" code_canton="4801" code_intercom="200001170" code_arrondissement="482" code_departement="91" code_region_2015="91"/><polygon points="283,333 285,334 284,338 281,341 284,346 292,348 299,353 302,352 307,357 317,358 317,362 314,363 313,365 317,379 318,381 307,377 307,374 303,373 299,370 296,370 292,368 286,369 284,367 281,365 269,367 264,364 255,370 255,374 251,373 252,366 248,365 243,361 247,354 243,349 242,342 239,341 241,339 253,338 261,333 273,332 283,333" id="48193" class="commune" fill="steelblue" stroke-width="1" stroke="white" geotype="commune" geoname="Vebron" code_insee="48193" code_canton="4804" code_intercom="200047710" code_arrondissement="481" code_departement="91" code_region_2015="91"/><polygon points="429,295 433,292 441,290 443,291 444,290 457,298 459,303 465,308 464,309 468,312 469,315 473,315 477,317 476,321 476,319 474,320 473,324 463,330 449,326 440,327 434,328 434,320 427,320 419,316 421,312 421,308 428,308 427,306 430,306 430,297 429,295" id="48194" class="commune" fill="steelblue" stroke-width="1" stroke="white" geotype="commune" geoname="Vialas" code_insee="48194" code_canton="4813" code_intercom="243000528" code_arrondissement="481" code_departement="91" code_region_2015="91"/><polygon points="151,350 150,352 152,353 147,356 145,359 139,357 136,358 135,361 132,364 126,364 125,366 122,365 123,356 117,356 115,349 116,341 114,339 116,337 119,337 121,334 123,336 131,337 133,335 132,333 137,333 143,336 146,336 148,343 147,346 151,350" id="48195" class="commune" fill="steelblue" stroke-width="1" stroke="white" geotype="commune" geoname="Vignes" code_insee="48195" code_canton="4802" code_intercom="244800348" code_arrondissement="481" code_departement="91" code_region_2015="91"/><polygon points="285,135 286,136 272,142 264,136 253,136 257,134 255,133 257,126 263,119 269,115 270,110 276,116 279,114 283,114 287,123 283,131 285,135" id="48197" class="commune" fill="steelblue" stroke-width="1" stroke="white" geotype="commune" geoname="Villedieu" code_insee="48197" code_canton="4811" code_intercom="244800355" code_arrondissement="482" code_departement="91" code_region_2015="91"/><polygon points="469,254 473,256 472,257 475,259 474,262 477,266 472,269 469,268 463,271 463,267 456,263 456,262 463,261 462,259 456,260 457,256 459,256 458,254 469,254" id="48198" class="commune" fill="steelblue" stroke-width="1" stroke="white" geotype="commune" geoname="Villefort" code_insee="48198" code_canton="4813" code_intercom="244800413" code_arrondissement="482" code_departement="91" code_region_2015="91"/></svg>