<?xml version="1.0" encoding="utf-8"?>
<svg version="1.1" id="svgmap" xmlns="http://www.w3.org/2000/svg" xmlns:xlink="http://www.w3.org/1999/xlink" x="0px" y="0px" width="100%" height="100%" viewBox="0 0 500 337">
<polygon points="418,138 416,136 416,135 410,134 410,132 412,129 410,125 401,124 394,125 391,124 387,125 383,123 378,126 375,126 372,125 373,123 371,120 367,118 362,117 360,116 356,114 354,119 352,121 352,126 344,126 340,128 335,125 334,123 329,120 327,116 325,113 326,112 324,110 316,102 313,101 311,99 308,98 308,95 305,94 305,92 302,89 302,85 295,83 290,83 290,81 286,79 281,81 273,82 272,85 260,84 257,77 255,76 255,74 253,72 251,68 250,67 250,67 256,67 257,65 259,65 259,66 262,66 262,64 266,63 271,61 274,64 282,67 282,65 286,64 286,61 289,55 284,51 285,50 288,49 292,46 294,47 297,51 302,55 306,56 306,57 309,61 309,62 311,65 315,65 319,63 322,66 327,66 330,71 334,70 340,72 345,71 347,72 354,71 356,72 360,73 367,72 370,73 371,73 375,72 377,73 386,72 389,59 392,56 396,56 398,54 403,44 402,41 409,41 418,36 422,36 425,34 426,30 432,29 435,25 440,23 442,19 446,19 453,17 457,18 461,15 461,13 463,11 462,10 466,11 471,10 471,9 474,8 474,6 480,2 481,1 482,0 490,3 493,2 495,8 500,11 500,13 496,12 495,13 493,17 490,19 488,22 488,29 481,31 482,33 481,34 470,36 467,40 462,42 461,44 463,53 467,57 469,58 468,60 470,62 478,65 481,71 489,75 490,77 493,78 492,79 488,78 488,80 485,81 482,79 477,81 476,81 474,81 476,86 474,89 475,97 475,98 472,99 472,101 466,105 464,106 462,107 460,106 456,106 450,111 446,112 445,115 441,117 441,118 441,123 438,126 439,131 429,129 427,132 428,135 426,136 424,135 424,136 423,136 420,139 418,138" id="41" class="arrondissement" fill="steelblue" stroke-width="1" stroke="white" geotype="arrondissement" geoname="BARCELONNETTE" code_insee="41" code_departement="4" code_region_2015="93"/><polygon points="299,312 300,303 303,301 305,295 301,295 298,294 295,293 296,291 292,291 289,289 289,287 293,282 290,282 288,280 290,278 299,283 301,282 304,280 307,276 312,275 313,271 316,267 318,266 320,266 323,264 325,265 329,263 333,258 330,256 330,254 324,248 323,246 325,245 324,242 317,237 317,235 313,232 318,229 316,227 317,227 319,226 320,223 319,222 317,214 313,208 316,205 317,204 314,196 317,193 314,192 313,185 314,181 316,179 324,179 332,176 335,174 337,169 340,167 341,165 348,163 350,163 353,159 352,156 353,153 352,151 353,149 352,145 355,143 356,142 354,137 357,134 352,126 352,121 354,119 356,114 360,116 362,117 367,118 371,120 373,123 372,125 375,126 378,126 383,123 387,125 391,124 394,125 401,124 410,125 412,129 410,132 410,134 416,135 416,136 418,138 416,139 417,142 416,144 417,146 417,147 413,150 414,153 411,155 410,158 408,159 409,162 409,164 405,166 409,170 409,172 412,175 411,177 412,181 416,183 418,186 423,190 426,194 428,197 425,203 425,209 435,216 439,216 441,221 455,228 454,230 458,231 459,236 459,240 468,240 468,243 474,248 476,249 481,249 486,255 491,257 491,259 490,259 483,260 477,260 474,261 471,262 464,256 461,255 461,256 460,253 455,253 454,252 442,255 443,256 439,259 436,264 425,268 414,265 398,262 401,265 404,265 407,266 408,272 409,273 400,274 401,275 398,277 397,281 401,281 409,284 412,286 412,288 404,290 388,293 386,295 383,295 384,295 383,292 383,290 378,290 377,291 370,290 370,292 368,292 359,297 357,300 355,300 356,298 355,295 350,290 347,289 344,292 336,295 335,295 332,292 331,293 330,292 326,294 320,293 319,294 315,295 311,295 310,301 311,305 309,306 309,308 308,308 305,310 301,314 299,312" id="42" class="arrondissement" fill="steelblue" stroke-width="1" stroke="white" geotype="arrondissement" geoname="CASTELLANE" code_insee="42" code_departement="4" code_region_2015="93"/><polygon points="97,307 97,306 106,300 111,290 112,288 121,280 123,276 130,266 133,260 134,255 136,249 135,245 136,243 137,241 143,230 147,222 150,221 156,216 159,212 163,210 166,208 170,206 176,207 177,207 179,208 178,206 181,203 183,202 184,201 186,201 188,199 193,196 196,194 197,195 196,193 193,191 194,187 195,186 198,186 198,184 195,180 195,178 192,176 198,170 201,165 203,163 205,156 205,155 206,154 206,151 212,149 216,146 221,144 227,148 228,145 229,144 234,146 235,145 238,147 242,144 245,143 243,141 245,138 243,136 237,134 239,132 239,128 243,128 246,127 242,123 243,121 248,117 257,115 261,111 261,110 264,109 265,107 260,102 254,102 250,100 251,96 248,95 248,94 253,93 256,92 255,91 260,84 272,85 273,82 281,81 286,79 290,81 290,83 295,83 302,85 302,89 305,92 305,94 308,95 308,98 311,99 313,101 316,102 324,110 326,112 325,113 327,116 329,120 334,123 335,125 340,128 344,126 352,126 357,134 354,137 356,142 355,143 352,145 353,149 352,151 353,153 352,156 353,159 350,163 348,163 341,165 340,167 337,169 335,174 332,176 324,179 316,179 314,181 313,185 314,192 317,193 314,196 317,204 316,205 313,208 317,214 319,222 320,223 319,226 317,227 316,227 318,229 313,232 317,235 317,237 324,242 325,245 323,246 324,248 330,254 330,256 333,258 329,263 325,265 323,264 320,266 318,266 316,267 313,271 312,275 307,276 304,280 301,282 299,283 290,278 288,280 290,282 293,282 289,287 289,289 292,291 296,291 295,293 298,294 301,295 305,295 303,301 300,303 299,312 297,311 293,314 290,313 288,311 282,310 281,308 278,307 279,306 276,306 275,304 271,304 266,301 262,299 260,298 258,293 256,291 247,292 243,292 234,300 234,303 229,307 218,313 215,313 211,312 210,310 208,310 203,316 202,316 202,317 200,319 201,320 197,322 197,323 195,324 191,325 190,326 188,327 183,328 184,333 178,337 175,334 173,330 167,327 166,321 162,321 159,317 156,319 152,317 150,316 152,313 150,309 146,309 146,307 145,306 142,308 138,308 139,312 137,315 132,318 122,318 120,320 117,313 114,310 105,309 97,307" id="43" class="arrondissement" fill="steelblue" stroke-width="1" stroke="white" geotype="arrondissement" geoname="DIGNE-LES-BAINS" code_insee="43" code_departement="4" code_region_2015="93"/><polygon points="97,307 89,315 84,311 75,307 73,298 71,299 69,297 67,297 64,296 60,289 57,288 54,283 51,283 46,282 44,281 36,283 34,282 31,283 26,282 24,282 23,285 21,285 18,286 16,286 18,281 18,274 22,272 24,271 26,271 32,262 34,257 38,253 37,252 29,253 29,250 24,245 24,243 16,245 10,242 9,243 6,243 4,238 6,233 7,226 9,225 9,223 13,220 16,215 16,200 7,202 2,202 0,198 1,190 0,189 1,188 1,185 4,184 5,182 16,179 18,173 25,174 28,172 29,171 23,166 27,160 34,160 36,159 38,159 41,164 46,165 46,166 49,167 46,170 46,173 51,174 58,173 62,174 63,168 56,167 51,168 50,167 53,160 61,160 61,159 67,161 67,160 70,159 73,158 74,156 82,156 85,155 86,153 88,153 95,154 100,152 101,151 108,153 113,156 118,156 123,158 127,158 133,158 134,159 137,159 140,159 142,155 132,153 128,150 128,148 127,146 124,144 123,141 114,136 112,135 111,130 114,126 114,123 119,122 129,125 128,130 141,139 144,140 144,137 145,134 141,133 143,129 141,126 146,125 145,122 145,121 145,118 145,117 141,119 135,115 135,114 139,112 138,109 141,109 144,109 146,106 150,102 151,97 155,90 156,89 161,87 163,86 168,84 178,82 180,80 179,77 182,76 190,71 190,71 192,71 191,73 197,75 197,73 195,71 199,67 198,65 197,65 199,62 202,62 206,64 208,62 210,63 216,66 225,67 223,72 225,74 226,77 230,75 231,76 233,78 234,80 240,83 248,94 248,95 251,96 250,100 254,102 260,102 265,107 264,109 261,110 261,111 257,115 248,117 243,121 242,123 246,127 243,128 239,128 239,132 237,134 243,136 245,138 243,141 245,143 242,144 238,147 235,145 234,146 229,144 228,145 227,148 221,144 216,146 212,149 206,151 206,154 205,155 205,156 203,163 201,165 198,170 192,176 195,178 195,180 198,184 198,186 195,186 194,187 193,191 196,193 197,195 196,194 193,196 188,199 186,201 184,201 183,202 181,203 178,206 179,208 177,207 176,207 170,206 166,208 163,210 159,212 156,216 150,221 147,222 143,230 137,241 136,243 135,245 136,249 134,255 133,260 130,266 123,276 121,280 112,288 111,290 106,300 97,306 97,307" id="44" class="arrondissement" fill="steelblue" stroke-width="1" stroke="white" geotype="arrondissement" geoname="FORCALQUIER" code_insee="44" code_departement="4" code_region_2015="93"/></svg>