<?xml version="1.0" encoding="utf-8"?>
<svg version="1.1" id="svgmap" xmlns="http://www.w3.org/2000/svg" xmlns:xlink="http://www.w3.org/1999/xlink" x="0px" y="0px" width="100%" height="100%" viewBox="0 0 500 247">
<polygon points="418,81 419,81 419,81 419,81 418,81" id="221" class="arrondissement" fill="steelblue" stroke-width="1" stroke="white" geotype="arrondissement" geoname="DINAN" code_insee="221" code_departement="22" code_region_2015="53"/><polygon points="487,107 487,107 487,107 487,107 487,107" id="221" class="arrondissement" fill="steelblue" stroke-width="1" stroke="white" geotype="arrondissement" geoname="DINAN" code_insee="221" code_departement="22" code_region_2015="53"/><polygon points="415,79 415,79 415,79 415,79 415,79" id="221" class="arrondissement" fill="steelblue" stroke-width="1" stroke="white" geotype="arrondissement" geoname="DINAN" code_insee="221" code_departement="22" code_region_2015="53"/><polygon points="486,104 486,104 487,104 486,105 486,104" id="221" class="arrondissement" fill="steelblue" stroke-width="1" stroke="white" geotype="arrondissement" geoname="DINAN" code_insee="221" code_departement="22" code_region_2015="53"/><polygon points="421,77 421,77 421,77 421,77 421,77" id="221" class="arrondissement" fill="steelblue" stroke-width="1" stroke="white" geotype="arrondissement" geoname="DINAN" code_insee="221" code_departement="22" code_region_2015="53"/><polygon points="430,80 431,79 431,80 431,80 430,80" id="221" class="arrondissement" fill="steelblue" stroke-width="1" stroke="white" geotype="arrondissement" geoname="DINAN" code_insee="221" code_departement="22" code_region_2015="53"/><polygon points="420,79 420,79 421,79 420,79 420,79" id="221" class="arrondissement" fill="steelblue" stroke-width="1" stroke="white" geotype="arrondissement" geoname="DINAN" code_insee="221" code_departement="22" code_region_2015="53"/><polygon points="322,212 322,212 320,209 321,206 315,197 315,195 314,194 310,192 309,187 311,183 310,182 310,180 307,176 308,173 309,172 310,172 310,170 312,167 313,167 314,169 317,169 320,169 323,163 324,163 325,161 329,160 329,158 331,157 335,156 339,155 341,152 342,152 340,148 338,148 336,147 338,146 336,144 338,139 338,135 335,131 337,130 339,131 340,131 342,132 345,130 347,130 358,134 358,134 360,133 360,131 359,129 361,129 360,128 358,127 357,129 354,127 358,124 357,123 354,120 353,116 353,115 354,115 354,116 355,116 355,114 358,113 358,112 361,112 360,109 358,108 357,106 355,106 354,107 349,111 346,111 345,112 341,113 339,111 339,110 338,108 331,106 333,104 335,104 337,104 340,104 341,101 339,98 342,95 340,95 342,92 342,90 343,88 345,88 348,86 349,83 352,84 351,88 354,88 354,89 357,90 358,89 362,89 364,89 368,87 369,87 372,86 373,83 369,84 367,82 367,79 365,76 362,76 361,75 359,74 358,75 356,74 355,74 355,73 362,72 364,70 366,71 369,69 371,70 374,68 375,66 376,67 381,65 381,62 382,62 383,60 385,62 386,62 385,64 386,65 392,66 393,66 393,67 390,68 389,71 386,73 387,74 385,76 383,77 383,78 382,78 378,80 383,80 383,81 385,82 389,78 390,78 391,79 392,78 392,76 397,75 396,74 397,74 399,74 400,73 401,73 405,73 405,73 405,73 405,74 405,74 404,75 405,74 404,74 402,74 402,76 405,78 406,78 404,81 409,82 411,85 410,87 413,87 414,89 414,92 412,93 412,94 412,94 412,94 413,94 413,95 412,95 412,95 412,96 412,96 412,96 413,96 412,96 412,96 411,96 411,97 411,97 412,97 412,98 413,98 412,99 412,99 413,99 413,98 413,98 412,98 412,97 412,97 411,97 411,96 412,96 413,96 413,96 413,96 412,95 412,95 412,95 413,95 413,95 414,94 413,94 412,94 412,93 413,93 414,93 414,93 414,93 414,93 415,93 415,93 415,93 415,93 416,92 415,91 417,91 420,87 418,86 419,84 418,82 422,84 422,85 422,86 422,87 423,88 421,89 421,91 423,92 425,91 427,91 427,92 427,91 429,89 430,89 425,86 426,86 427,83 431,83 431,80 433,80 434,81 434,82 439,85 438,86 439,87 439,89 441,90 443,90 445,92 446,92 447,94 450,94 451,95 457,94 458,95 461,96 461,96 461,98 459,98 459,99 461,102 463,102 463,102 464,100 465,98 468,99 469,97 472,95 473,94 474,95 474,96 476,97 477,99 476,99 478,100 478,100 477,101 482,101 482,104 479,106 475,107 478,107 478,109 480,109 478,111 479,114 477,114 473,117 474,118 472,119 472,120 471,122 467,123 465,125 463,127 467,123 471,122 474,121 474,120 473,119 475,119 474,116 476,116 476,115 478,115 481,114 480,114 480,111 481,110 484,110 482,108 484,106 486,107 487,108 488,108 487,108 488,106 488,104 489,104 491,104 489,103 489,103 494,99 496,101 495,103 497,104 498,108 500,110 499,112 496,112 496,114 497,116 498,116 499,117 500,119 495,120 493,122 495,123 496,125 495,127 492,129 491,128 489,129 488,131 489,132 488,134 490,136 492,137 492,139 491,139 492,140 490,142 494,144 491,144 492,145 491,146 492,147 489,148 489,152 490,154 493,154 493,155 494,157 489,159 484,159 487,165 487,166 486,167 486,169 483,170 486,171 486,173 484,173 481,170 477,171 476,171 475,172 475,174 473,173 474,176 470,177 470,176 467,176 466,175 460,174 461,172 459,171 455,173 451,173 453,175 451,177 443,178 442,179 443,180 447,180 445,183 443,183 444,185 438,182 431,183 431,182 426,184 425,184 424,185 421,186 421,188 421,189 420,193 422,194 422,195 422,196 417,197 414,195 409,196 410,198 412,198 411,199 412,201 410,204 410,208 408,210 406,210 403,211 403,213 407,214 407,215 402,215 400,213 398,213 397,213 396,214 395,214 395,215 394,215 392,218 390,219 390,218 388,218 387,217 386,218 384,218 382,220 383,221 378,222 378,221 375,220 372,225 371,224 367,220 367,219 367,216 360,212 359,208 353,207 347,207 345,208 345,210 341,210 340,211 338,208 336,209 335,211 336,212 335,212 329,211 322,212" id="221" class="arrondissement" fill="steelblue" stroke-width="1" stroke="white" geotype="arrondissement" geoname="DINAN" code_insee="221" code_departement="22" code_region_2015="53"/><polygon points="416,81 416,81 416,81 416,81 416,81" id="221" class="arrondissement" fill="steelblue" stroke-width="1" stroke="white" geotype="arrondissement" geoname="DINAN" code_insee="221" code_departement="22" code_region_2015="53"/><polygon points="485,106 485,106 485,106 485,106 485,106" id="221" class="arrondissement" fill="steelblue" stroke-width="1" stroke="white" geotype="arrondissement" geoname="DINAN" code_insee="221" code_departement="22" code_region_2015="53"/><polygon points="485,106 486,106 487,106 486,106 485,106" id="221" class="arrondissement" fill="steelblue" stroke-width="1" stroke="white" geotype="arrondissement" geoname="DINAN" code_insee="221" code_departement="22" code_region_2015="53"/><polygon points="485,105 485,104 485,104 485,105 485,105" id="221" class="arrondissement" fill="steelblue" stroke-width="1" stroke="white" geotype="arrondissement" geoname="DINAN" code_insee="221" code_departement="22" code_region_2015="53"/><polygon points="415,82 415,81 416,82 415,82 415,82" id="221" class="arrondissement" fill="steelblue" stroke-width="1" stroke="white" geotype="arrondissement" geoname="DINAN" code_insee="221" code_departement="22" code_region_2015="53"/><polygon points="418,80 420,78 421,78 421,79 419,79 419,80 418,80" id="221" class="arrondissement" fill="steelblue" stroke-width="1" stroke="white" geotype="arrondissement" geoname="DINAN" code_insee="221" code_departement="22" code_region_2015="53"/><polygon points="485,105 487,105 488,105 486,105 485,105" id="221" class="arrondissement" fill="steelblue" stroke-width="1" stroke="white" geotype="arrondissement" geoname="DINAN" code_insee="221" code_departement="22" code_region_2015="53"/><polygon points="380,61 380,61 380,61 380,61 380,61" id="221" class="arrondissement" fill="steelblue" stroke-width="1" stroke="white" geotype="arrondissement" geoname="DINAN" code_insee="221" code_departement="22" code_region_2015="53"/><polygon points="487,105 487,104 487,104 487,105 487,105" id="221" class="arrondissement" fill="steelblue" stroke-width="1" stroke="white" geotype="arrondissement" geoname="DINAN" code_insee="221" code_departement="22" code_region_2015="53"/><polygon points="419,79 419,79 419,79 419,79 419,79" id="221" class="arrondissement" fill="steelblue" stroke-width="1" stroke="white" geotype="arrondissement" geoname="DINAN" code_insee="221" code_departement="22" code_region_2015="53"/><polygon points="417,78 417,77 418,77 418,78 417,78" id="221" class="arrondissement" fill="steelblue" stroke-width="1" stroke="white" geotype="arrondissement" geoname="DINAN" code_insee="221" code_departement="22" code_region_2015="53"/><polygon points="29,203 28,202 35,201 41,203 42,202 41,200 41,198 36,197 32,193 32,192 31,192 32,192 31,191 32,189 31,187 35,187 36,184 38,183 39,185 41,183 40,182 40,180 39,179 40,178 41,178 42,176 40,176 40,175 36,175 34,173 32,173 32,171 36,171 39,166 42,166 40,164 36,167 35,167 33,167 32,166 33,165 31,161 31,158 29,158 30,155 31,155 30,154 31,153 30,152 32,151 31,149 32,148 29,148 28,149 27,148 24,147 22,148 20,146 18,146 17,146 18,144 18,144 18,142 19,142 19,136 23,133 29,131 33,129 32,127 28,128 25,125 25,124 26,125 27,123 30,124 32,122 30,121 35,121 36,122 37,122 38,123 39,121 40,122 41,120 45,121 46,120 46,120 48,119 49,119 50,120 52,120 53,120 53,119 54,117 56,117 57,118 61,118 63,118 64,115 65,116 68,113 70,114 70,113 69,112 70,109 72,108 75,108 78,104 76,103 76,101 77,97 75,96 74,95 78,93 79,93 79,93 81,89 81,87 82,86 81,87 81,85 82,83 81,83 82,82 86,81 87,81 89,81 91,81 91,82 93,81 92,79 95,79 94,73 97,71 96,70 102,69 106,65 108,65 110,68 113,67 114,68 115,68 117,70 121,70 123,68 123,64 122,62 120,61 118,60 118,58 122,59 126,57 124,55 128,51 129,49 130,48 133,48 136,44 137,46 141,45 143,46 147,46 147,47 151,48 152,51 150,53 151,54 149,54 145,55 144,56 145,55 151,54 150,53 153,51 152,49 155,50 157,50 158,51 159,51 162,52 164,53 165,52 165,53 169,54 168,55 168,57 169,57 170,55 170,56 171,57 173,56 176,57 174,57 173,59 170,59 169,60 166,60 162,62 161,63 161,65 162,66 164,66 167,67 169,67 169,65 170,64 172,64 174,65 173,68 169,69 167,70 168,71 166,73 164,72 160,75 156,73 155,72 155,71 154,70 152,70 151,73 149,73 148,73 149,75 148,76 148,77 150,77 150,78 150,79 148,83 153,88 154,90 156,89 156,90 158,90 158,90 160,91 161,92 162,92 163,94 164,94 165,95 167,94 167,95 169,95 173,96 173,97 176,97 176,95 176,92 176,91 173,91 172,89 174,86 177,84 175,82 174,82 174,80 177,81 177,80 183,77 181,76 183,75 185,75 186,76 187,78 190,78 190,80 191,80 193,82 192,83 193,86 196,88 196,91 198,93 201,95 201,97 201,97 200,98 197,98 196,99 197,102 196,104 198,104 198,103 201,105 202,105 202,106 204,108 203,110 199,114 192,114 190,117 189,119 183,122 183,126 183,129 181,130 181,132 182,132 179,134 182,136 180,137 181,138 180,139 176,141 176,142 173,147 174,149 177,148 176,149 177,148 178,150 176,151 178,152 180,151 181,153 176,154 175,156 169,159 166,161 166,164 170,167 167,168 165,170 162,170 160,172 161,172 162,173 164,175 163,176 163,178 166,180 164,181 163,182 165,183 164,183 165,184 164,185 167,186 169,185 169,186 170,186 171,187 173,187 173,187 173,187 175,187 178,189 179,192 186,191 189,190 187,187 190,187 191,186 189,186 190,186 191,185 193,185 194,184 193,181 194,181 192,181 192,180 197,179 195,178 194,176 198,175 202,176 203,177 206,176 207,177 207,179 204,180 206,183 200,184 206,189 206,190 204,191 206,192 210,192 215,192 221,190 222,190 222,191 224,192 222,192 222,193 224,193 226,193 227,194 221,197 220,203 216,203 216,205 217,206 217,208 218,208 220,207 220,208 221,208 220,209 217,210 215,209 209,208 206,207 200,208 195,210 190,210 191,208 186,207 186,204 184,202 186,200 185,200 181,201 179,198 176,199 174,197 169,198 168,196 166,197 165,198 163,199 162,198 159,198 159,197 158,198 157,197 156,199 152,199 152,201 151,202 151,204 152,206 151,208 148,210 145,211 144,208 142,210 140,211 139,210 137,210 135,209 131,211 130,212 129,212 128,213 129,216 125,215 126,214 125,214 123,214 123,213 121,213 119,214 118,214 116,215 113,215 113,216 111,215 109,216 107,215 107,214 106,214 107,212 105,213 105,212 105,212 104,212 100,212 99,214 97,214 97,210 94,209 94,207 91,208 90,209 87,209 85,210 84,209 83,209 83,210 78,213 77,212 75,212 73,214 71,215 66,212 65,211 67,208 69,208 70,207 63,203 63,205 61,206 60,205 58,205 56,206 53,203 48,204 40,205 32,205 29,203" id="222" class="arrondissement" fill="steelblue" stroke-width="1" stroke="white" geotype="arrondissement" geoname="GUINGAMP" code_insee="222" code_departement="22" code_region_2015="53"/><polygon points="105,17 106,17 107,18 106,18 105,17" id="223" class="arrondissement" fill="steelblue" stroke-width="1" stroke="white" geotype="arrondissement" geoname="LANNION" code_insee="223" code_departement="22" code_region_2015="53"/><polygon points="38,21 38,21 38,21 38,21 38,21" id="223" class="arrondissement" fill="steelblue" stroke-width="1" stroke="white" geotype="arrondissement" geoname="LANNION" code_insee="223" code_departement="22" code_region_2015="53"/><polygon points="19,31 20,31 20,32 19,31 19,31" id="223" class="arrondissement" fill="steelblue" stroke-width="1" stroke="white" geotype="arrondissement" geoname="LANNION" code_insee="223" code_departement="22" code_region_2015="53"/><polygon points="32,22 32,22 33,23 32,23 32,22" id="223" class="arrondissement" fill="steelblue" stroke-width="1" stroke="white" geotype="arrondissement" geoname="LANNION" code_insee="223" code_departement="22" code_region_2015="53"/><polygon points="106,15 106,15 106,15 106,15 106,15" id="223" class="arrondissement" fill="steelblue" stroke-width="1" stroke="white" geotype="arrondissement" geoname="LANNION" code_insee="223" code_departement="22" code_region_2015="53"/><polygon points="51,5 52,4 54,5 54,5 51,5" id="223" class="arrondissement" fill="steelblue" stroke-width="1" stroke="white" geotype="arrondissement" geoname="LANNION" code_insee="223" code_departement="22" code_region_2015="53"/><polygon points="30,29 30,29 30,30 30,29 30,29" id="223" class="arrondissement" fill="steelblue" stroke-width="1" stroke="white" geotype="arrondissement" geoname="LANNION" code_insee="223" code_departement="22" code_region_2015="53"/><polygon points="133,10 134,9 134,11 133,10 133,10" id="223" class="arrondissement" fill="steelblue" stroke-width="1" stroke="white" geotype="arrondissement" geoname="LANNION" code_insee="223" code_departement="22" code_region_2015="53"/><polygon points="106,18 106,18 106,18 106,18 106,18" id="223" class="arrondissement" fill="steelblue" stroke-width="1" stroke="white" geotype="arrondissement" geoname="LANNION" code_insee="223" code_departement="22" code_region_2015="53"/><polygon points="32,22 32,22 32,22 32,22 32,22" id="223" class="arrondissement" fill="steelblue" stroke-width="1" stroke="white" geotype="arrondissement" geoname="LANNION" code_insee="223" code_departement="22" code_region_2015="53"/><polygon points="105,17 105,17 105,17 105,17 105,17" id="223" class="arrondissement" fill="steelblue" stroke-width="1" stroke="white" geotype="arrondissement" geoname="LANNION" code_insee="223" code_departement="22" code_region_2015="53"/><polygon points="136,10 136,10 136,10 136,10 136,10" id="223" class="arrondissement" fill="steelblue" stroke-width="1" stroke="white" geotype="arrondissement" geoname="LANNION" code_insee="223" code_departement="22" code_region_2015="53"/><polygon points="33,27 34,27 34,27 34,27 33,27" id="223" class="arrondissement" fill="steelblue" stroke-width="1" stroke="white" geotype="arrondissement" geoname="LANNION" code_insee="223" code_departement="22" code_region_2015="53"/><polygon points="103,14 104,14 104,15 104,14 103,14" id="223" class="arrondissement" fill="steelblue" stroke-width="1" stroke="white" geotype="arrondissement" geoname="LANNION" code_insee="223" code_departement="22" code_region_2015="53"/><polygon points="72,16 73,16 74,18 74,20 72,16" id="223" class="arrondissement" fill="steelblue" stroke-width="1" stroke="white" geotype="arrondissement" geoname="LANNION" code_insee="223" code_departement="22" code_region_2015="53"/><polygon points="137,10 138,10 138,9 138,10 137,10 137,10" id="223" class="arrondissement" fill="steelblue" stroke-width="1" stroke="white" geotype="arrondissement" geoname="LANNION" code_insee="223" code_departement="22" code_region_2015="53"/><polygon points="36,27 36,27 36,27 36,27 36,27" id="223" class="arrondissement" fill="steelblue" stroke-width="1" stroke="white" geotype="arrondissement" geoname="LANNION" code_insee="223" code_departement="22" code_region_2015="53"/><polygon points="25,25 26,25 26,25 26,25 25,25" id="223" class="arrondissement" fill="steelblue" stroke-width="1" stroke="white" geotype="arrondissement" geoname="LANNION" code_insee="223" code_departement="22" code_region_2015="53"/><polygon points="115,13 116,13 116,14 116,13 115,13" id="223" class="arrondissement" fill="steelblue" stroke-width="1" stroke="white" geotype="arrondissement" geoname="LANNION" code_insee="223" code_departement="22" code_region_2015="53"/><polygon points="17,28 17,28 17,28 17,28 17,28" id="223" class="arrondissement" fill="steelblue" stroke-width="1" stroke="white" geotype="arrondissement" geoname="LANNION" code_insee="223" code_departement="22" code_region_2015="53"/><polygon points="105,16 105,15 106,16 105,16 105,16" id="223" class="arrondissement" fill="steelblue" stroke-width="1" stroke="white" geotype="arrondissement" geoname="LANNION" code_insee="223" code_departement="22" code_region_2015="53"/><polygon points="47,5 48,5 49,5 47,5 47,5" id="223" class="arrondissement" fill="steelblue" stroke-width="1" stroke="white" geotype="arrondissement" geoname="LANNION" code_insee="223" code_departement="22" code_region_2015="53"/><polygon points="136,8 137,7 138,9 137,9 136,8" id="223" class="arrondissement" fill="steelblue" stroke-width="1" stroke="white" geotype="arrondissement" geoname="LANNION" code_insee="223" code_departement="22" code_region_2015="53"/><polygon points="131,13 132,13 132,14 131,14 131,13" id="223" class="arrondissement" fill="steelblue" stroke-width="1" stroke="white" geotype="arrondissement" geoname="LANNION" code_insee="223" code_departement="22" code_region_2015="53"/><polygon points="33,25 33,25 33,25 33,25 33,25" id="223" class="arrondissement" fill="steelblue" stroke-width="1" stroke="white" geotype="arrondissement" geoname="LANNION" code_insee="223" code_departement="22" code_region_2015="53"/><polygon points="48,6 50,6 51,6 50,7 48,6" id="223" class="arrondissement" fill="steelblue" stroke-width="1" stroke="white" geotype="arrondissement" geoname="LANNION" code_insee="223" code_departement="22" code_region_2015="53"/><polygon points="94,18 94,18 94,19 94,18 94,18" id="223" class="arrondissement" fill="steelblue" stroke-width="1" stroke="white" geotype="arrondissement" geoname="LANNION" code_insee="223" code_departement="22" code_region_2015="53"/><polygon points="32,29 32,29 32,29 32,29 32,29" id="223" class="arrondissement" fill="steelblue" stroke-width="1" stroke="white" geotype="arrondissement" geoname="LANNION" code_insee="223" code_departement="22" code_region_2015="53"/><polygon points="166,15 167,14 167,15 167,15 166,15" id="223" class="arrondissement" fill="steelblue" stroke-width="1" stroke="white" geotype="arrondissement" geoname="LANNION" code_insee="223" code_departement="22" code_region_2015="53"/><polygon points="34,22 35,22 35,22 35,22 34,22" id="223" class="arrondissement" fill="steelblue" stroke-width="1" stroke="white" geotype="arrondissement" geoname="LANNION" code_insee="223" code_departement="22" code_region_2015="53"/><polygon points="83,21 83,21 84,21 83,21 83,21" id="223" class="arrondissement" fill="steelblue" stroke-width="1" stroke="white" geotype="arrondissement" geoname="LANNION" code_insee="223" code_departement="22" code_region_2015="53"/><polygon points="108,17 108,17 108,17 108,17 108,17" id="223" class="arrondissement" fill="steelblue" stroke-width="1" stroke="white" geotype="arrondissement" geoname="LANNION" code_insee="223" code_departement="22" code_region_2015="53"/><polygon points="16,30 16,29 17,30 16,30 16,30" id="223" class="arrondissement" fill="steelblue" stroke-width="1" stroke="white" geotype="arrondissement" geoname="LANNION" code_insee="223" code_departement="22" code_region_2015="53"/><polygon points="106,17 106,17 106,17 106,17 106,17" id="223" class="arrondissement" fill="steelblue" stroke-width="1" stroke="white" geotype="arrondissement" geoname="LANNION" code_insee="223" code_departement="22" code_region_2015="53"/><polygon points="106,15 107,15 107,15 107,15 106,15" id="223" class="arrondissement" fill="steelblue" stroke-width="1" stroke="white" geotype="arrondissement" geoname="LANNION" code_insee="223" code_departement="22" code_region_2015="53"/><polygon points="30,25 30,25 30,25 30,25 30,25" id="223" class="arrondissement" fill="steelblue" stroke-width="1" stroke="white" geotype="arrondissement" geoname="LANNION" code_insee="223" code_departement="22" code_region_2015="53"/><polygon points="114,15 114,15 114,15 114,15 114,15" id="223" class="arrondissement" fill="steelblue" stroke-width="1" stroke="white" geotype="arrondissement" geoname="LANNION" code_insee="223" code_departement="22" code_region_2015="53"/><polygon points="64,0 65,0 65,0 65,1 64,0" id="223" class="arrondissement" fill="steelblue" stroke-width="1" stroke="white" geotype="arrondissement" geoname="LANNION" code_insee="223" code_departement="22" code_region_2015="53"/><polygon points="49,20 49,20 49,20 49,20 49,20" id="223" class="arrondissement" fill="steelblue" stroke-width="1" stroke="white" geotype="arrondissement" geoname="LANNION" code_insee="223" code_departement="22" code_region_2015="53"/><polygon points="49,18 49,18 49,19 49,19 49,18" id="223" class="arrondissement" fill="steelblue" stroke-width="1" stroke="white" geotype="arrondissement" geoname="LANNION" code_insee="223" code_departement="22" code_region_2015="53"/><polygon points="21,28 23,28 23,27 24,27 25,27 25,28 28,26 29,28 29,29 28,29 26,30 25,29 26,30 25,30 25,29 24,29 23,30 23,28 21,28" id="223" class="arrondissement" fill="steelblue" stroke-width="1" stroke="white" geotype="arrondissement" geoname="LANNION" code_insee="223" code_departement="22" code_region_2015="53"/><polygon points="18,28 18,28 19,29 19,29 19,28 18,28 18,27 19,28 20,29 21,28 20,29 22,30 19,29 18,28" id="223" class="arrondissement" fill="steelblue" stroke-width="1" stroke="white" geotype="arrondissement" geoname="LANNION" code_insee="223" code_departement="22" code_region_2015="53"/><polygon points="106,15 106,15 106,15 106,15 106,15" id="223" class="arrondissement" fill="steelblue" stroke-width="1" stroke="white" geotype="arrondissement" geoname="LANNION" code_insee="223" code_departement="22" code_region_2015="53"/><polygon points="101,15 102,15 103,15 104,16 103,15 102,15 102,16 101,15" id="223" class="arrondissement" fill="steelblue" stroke-width="1" stroke="white" geotype="arrondissement" geoname="LANNION" code_insee="223" code_departement="22" code_region_2015="53"/><polygon points="25,124 24,124 21,124 20,122 19,122 20,122 19,120 17,121 16,120 19,118 17,115 19,114 24,112 30,106 36,103 32,102 31,100 27,98 27,97 24,99 23,98 20,98 19,97 20,96 21,96 23,93 22,90 20,90 19,90 14,88 10,89 8,87 7,87 8,82 5,83 3,81 1,72 0,71 1,70 2,69 6,65 9,65 8,62 10,62 12,61 12,61 14,61 15,62 14,62 14,63 16,66 25,65 26,64 28,61 27,61 23,60 25,58 23,52 24,51 23,50 27,50 29,49 29,48 31,49 37,49 36,48 35,47 33,48 33,44 30,42 29,40 23,41 25,39 24,38 22,37 23,37 23,37 23,34 24,34 25,33 23,31 24,32 25,31 28,31 27,30 28,30 28,29 32,31 32,30 35,29 35,28 37,28 37,25 34,26 34,24 36,24 36,22 38,22 42,23 40,22 41,21 40,20 42,20 42,19 43,19 43,18 45,18 46,17 48,18 46,19 44,19 45,19 44,21 47,22 46,20 48,20 48,20 50,21 50,22 50,21 52,22 51,20 50,20 50,19 51,19 51,18 54,18 55,21 59,23 59,24 61,24 64,23 67,23 68,22 68,24 65,25 65,28 65,27 64,27 64,29 67,29 67,29 65,29 66,28 69,29 79,28 80,25 79,24 80,24 85,23 85,22 88,23 90,22 89,22 93,20 94,21 99,18 100,18 102,18 106,20 106,19 108,18 109,17 110,17 111,16 111,18 113,19 115,18 117,16 116,15 118,14 120,12 123,11 122,9 125,9 126,9 126,9 128,10 129,13 129,14 131,15 130,15 127,19 128,18 130,18 131,18 131,18 132,19 132,18 132,18 132,19 132,19 132,22 131,22 131,25 130,25 127,28 124,29 125,30 125,30 124,30 124,31 123,32 122,31 122,31 121,31 122,31 120,33 121,32 119,33 119,32 119,31 118,31 118,32 117,33 117,33 117,33 117,33 118,33 118,33 118,33 118,33 118,32 118,32 118,32 118,32 118,32 118,32 118,32 118,32 118,31 118,31 118,31 119,31 119,31 119,32 118,32 118,32 118,32 118,32 118,32 118,32 118,32 118,33 119,33 119,33 119,33 119,33 119,33 120,32 120,32 120,32 120,32 120,32 120,32 120,32 120,32 120,32 120,32 120,33 120,33 120,33 120,33 120,33 120,33 120,33 120,33 120,33 120,33 120,33 120,33 121,33 122,31 122,32 123,32 124,31 125,31 125,31 126,32 126,34 126,34 126,34 126,34 126,34 126,34 126,35 126,35 126,35 126,35 126,35 126,35 126,35 126,35 126,35 126,35 126,35 126,36 126,36 126,36 126,36 126,36 126,36 125,36 125,36 125,36 125,36 125,36 125,36 125,37 125,37 125,37 125,37 125,37 125,37 125,37 125,37 125,37 125,37 125,37 125,37 125,37 125,37 124,37 124,37 124,37 124,37 124,38 123,38 123,38 123,38 123,38 123,38 122,38 122,38 123,38 123,38 123,38 123,39 122,39 122,39 122,39 122,39 122,39 122,39 122,39 122,39 122,39 122,39 122,39 122,40 122,40 122,40 121,40 121,40 121,40 121,40 121,40 121,40 120,40 120,40 120,40 119,40 119,40 119,40 119,40 119,40 119,40 118,40 118,41 118,41 118,41 118,41 117,41 117,41 117,41 117,41 117,41 117,41 117,41 117,41 117,41 117,41 117,41 117,40 117,40 117,41 117,41 117,41 117,41 117,41 117,41 117,41 117,41 117,42 117,42 117,42 117,42 116,42 116,42 116,42 116,42 116,42 115,42 115,42 115,42 115,42 114,42 114,42 114,42 114,42 114,42 114,42 113,43 113,43 113,43 113,43 113,43 113,43 113,43 114,44 114,44 115,44 115,44 114,44 114,44 114,44 114,44 114,43 114,43 114,43 114,43 114,43 113,43 113,43 114,43 114,43 114,43 114,43 114,42 114,42 114,42 114,42 115,42 115,42 115,42 115,42 115,42 115,42 115,43 116,43 116,43 116,43 116,43 116,43 116,42 116,42 117,43 117,42 117,42 117,42 118,42 118,42 118,42 118,42 118,42 118,42 118,42 118,42 119,41 121,41 123,40 124,38 126,38 127,37 129,38 129,39 129,38 131,37 132,38 133,39 133,38 132,37 129,37 126,36 128,33 126,31 126,30 133,23 133,21 135,18 138,16 140,17 142,13 146,14 148,13 149,12 152,12 153,10 160,9 166,7 169,4 168,6 161,10 165,10 165,9 168,12 168,13 165,10 163,12 164,12 164,14 166,15 161,20 164,19 164,20 166,19 166,20 167,20 169,19 168,21 167,20 165,21 164,25 161,27 162,27 161,29 161,31 160,32 161,33 159,33 157,35 155,36 153,36 155,37 154,40 152,42 147,44 147,46 143,46 141,45 137,46 136,44 133,48 130,48 129,49 128,51 124,55 126,57 122,59 118,58 118,60 120,61 122,62 123,64 123,68 121,70 117,70 115,68 114,68 113,67 110,68 108,65 106,65 102,69 96,70 97,71 94,73 95,79 92,79 93,81 91,82 91,81 89,81 87,81 86,81 82,82 81,83 82,83 81,85 81,87 82,86 81,87 81,89 79,93 79,93 78,93 74,95 75,96 77,97 76,101 76,103 78,104 75,108 72,108 70,109 69,112 70,113 70,114 68,113 65,116 64,115 63,118 61,118 57,118 56,117 54,117 53,119 53,120 52,120 50,120 49,119 48,119 46,120 46,120 45,121 41,120 40,122 39,121 38,123 37,122 36,122 35,121 30,121 32,122 30,124 27,123 26,125 25,124" id="223" class="arrondissement" fill="steelblue" stroke-width="1" stroke="white" geotype="arrondissement" geoname="LANNION" code_insee="223" code_departement="22" code_region_2015="53"/><polygon points="105,14 105,14 105,14 105,14 105,14" id="223" class="arrondissement" fill="steelblue" stroke-width="1" stroke="white" geotype="arrondissement" geoname="LANNION" code_insee="223" code_departement="22" code_region_2015="53"/><polygon points="29,21 30,21 30,21 30,21 29,21" id="223" class="arrondissement" fill="steelblue" stroke-width="1" stroke="white" geotype="arrondissement" geoname="LANNION" code_insee="223" code_departement="22" code_region_2015="53"/><polygon points="115,14 115,14 116,14 116,14 115,14" id="223" class="arrondissement" fill="steelblue" stroke-width="1" stroke="white" geotype="arrondissement" geoname="LANNION" code_insee="223" code_departement="22" code_region_2015="53"/><polygon points="130,15 130,15 130,15 130,15 130,15" id="223" class="arrondissement" fill="steelblue" stroke-width="1" stroke="white" geotype="arrondissement" geoname="LANNION" code_insee="223" code_departement="22" code_region_2015="53"/><polygon points="105,15 105,15 105,15 105,15 105,15" id="223" class="arrondissement" fill="steelblue" stroke-width="1" stroke="white" geotype="arrondissement" geoname="LANNION" code_insee="223" code_departement="22" code_region_2015="53"/><polygon points="98,16 99,16 99,16 98,16 98,16" id="223" class="arrondissement" fill="steelblue" stroke-width="1" stroke="white" geotype="arrondissement" geoname="LANNION" code_insee="223" code_departement="22" code_region_2015="53"/><polygon points="97,17 98,16 98,17 98,17 97,17" id="223" class="arrondissement" fill="steelblue" stroke-width="1" stroke="white" geotype="arrondissement" geoname="LANNION" code_insee="223" code_departement="22" code_region_2015="53"/><polygon points="112,17 112,17 112,17 112,18 112,17" id="223" class="arrondissement" fill="steelblue" stroke-width="1" stroke="white" geotype="arrondissement" geoname="LANNION" code_insee="223" code_departement="22" code_region_2015="53"/><polygon points="105,15 105,15 105,15 105,15 105,15" id="223" class="arrondissement" fill="steelblue" stroke-width="1" stroke="white" geotype="arrondissement" geoname="LANNION" code_insee="223" code_departement="22" code_region_2015="53"/><polygon points="106,14 107,14 107,15 108,15 110,14 111,16 110,15 109,15 107,15 106,14" id="223" class="arrondissement" fill="steelblue" stroke-width="1" stroke="white" geotype="arrondissement" geoname="LANNION" code_insee="223" code_departement="22" code_region_2015="53"/><polygon points="18,37 19,37 21,38 19,38 18,37" id="223" class="arrondissement" fill="steelblue" stroke-width="1" stroke="white" geotype="arrondissement" geoname="LANNION" code_insee="223" code_departement="22" code_region_2015="53"/><polygon points="105,18 105,18 105,18 105,18 105,18" id="223" class="arrondissement" fill="steelblue" stroke-width="1" stroke="white" geotype="arrondissement" geoname="LANNION" code_insee="223" code_departement="22" code_region_2015="53"/><polygon points="101,16 101,16 101,16 101,16 101,16" id="223" class="arrondissement" fill="steelblue" stroke-width="1" stroke="white" geotype="arrondissement" geoname="LANNION" code_insee="223" code_departement="22" code_region_2015="53"/><polygon points="134,7 136,8 135,8 134,8 134,7" id="223" class="arrondissement" fill="steelblue" stroke-width="1" stroke="white" geotype="arrondissement" geoname="LANNION" code_insee="223" code_departement="22" code_region_2015="53"/><polygon points="172,3 172,2 172,2 172,3 172,3" id="223" class="arrondissement" fill="steelblue" stroke-width="1" stroke="white" geotype="arrondissement" geoname="LANNION" code_insee="223" code_departement="22" code_region_2015="53"/><polygon points="31,28 31,27 32,28 31,28 31,28" id="223" class="arrondissement" fill="steelblue" stroke-width="1" stroke="white" geotype="arrondissement" geoname="LANNION" code_insee="223" code_departement="22" code_region_2015="53"/><polygon points="105,14 105,14 105,13 105,14 105,14" id="223" class="arrondissement" fill="steelblue" stroke-width="1" stroke="white" geotype="arrondissement" geoname="LANNION" code_insee="223" code_departement="22" code_region_2015="53"/><polygon points="106,14 106,14 106,14 106,14 106,14" id="223" class="arrondissement" fill="steelblue" stroke-width="1" stroke="white" geotype="arrondissement" geoname="LANNION" code_insee="223" code_departement="22" code_region_2015="53"/><polygon points="109,16 109,15 110,16 109,16 109,16" id="223" class="arrondissement" fill="steelblue" stroke-width="1" stroke="white" geotype="arrondissement" geoname="LANNION" code_insee="223" code_departement="22" code_region_2015="53"/><polygon points="22,37 22,37 22,37 23,36 22,37 22,37" id="223" class="arrondissement" fill="steelblue" stroke-width="1" stroke="white" geotype="arrondissement" geoname="LANNION" code_insee="223" code_departement="22" code_region_2015="53"/><polygon points="57,3 57,2 58,3 57,3 57,3" id="223" class="arrondissement" fill="steelblue" stroke-width="1" stroke="white" geotype="arrondissement" geoname="LANNION" code_insee="223" code_departement="22" code_region_2015="53"/><polygon points="18,28 18,28 18,28 18,28 18,28" id="223" class="arrondissement" fill="steelblue" stroke-width="1" stroke="white" geotype="arrondissement" geoname="LANNION" code_insee="223" code_departement="22" code_region_2015="53"/><polygon points="16,34 17,34 17,34 16,34 16,34" id="223" class="arrondissement" fill="steelblue" stroke-width="1" stroke="white" geotype="arrondissement" geoname="LANNION" code_insee="223" code_departement="22" code_region_2015="53"/><polygon points="35,28 35,27 35,28 35,28 35,28" id="223" class="arrondissement" fill="steelblue" stroke-width="1" stroke="white" geotype="arrondissement" geoname="LANNION" code_insee="223" code_departement="22" code_region_2015="53"/><polygon points="112,15 112,14 112,15 112,15 112,15" id="223" class="arrondissement" fill="steelblue" stroke-width="1" stroke="white" geotype="arrondissement" geoname="LANNION" code_insee="223" code_departement="22" code_region_2015="53"/><polygon points="45,7 45,7 45,7 45,7 45,7" id="223" class="arrondissement" fill="steelblue" stroke-width="1" stroke="white" geotype="arrondissement" geoname="LANNION" code_insee="223" code_departement="22" code_region_2015="53"/><polygon points="183,18 184,18 184,19 183,18 183,18" id="224" class="arrondissement" fill="steelblue" stroke-width="1" stroke="white" geotype="arrondissement" geoname="SAINT-BRIEUC" code_insee="224" code_departement="22" code_region_2015="53"/><polygon points="191,17 191,17 191,17 191,17 191,17" id="224" class="arrondissement" fill="steelblue" stroke-width="1" stroke="white" geotype="arrondissement" geoname="SAINT-BRIEUC" code_insee="224" code_departement="22" code_region_2015="53"/><polygon points="186,14 187,14 189,15 191,14 191,15 190,16 190,18 190,18 189,18 188,17 187,18 186,18 187,15 186,14" id="224" class="arrondissement" fill="steelblue" stroke-width="1" stroke="white" geotype="arrondissement" geoname="SAINT-BRIEUC" code_insee="224" code_departement="22" code_region_2015="53"/><polygon points="194,15 194,15 194,15 194,15 194,15" id="224" class="arrondissement" fill="steelblue" stroke-width="1" stroke="white" geotype="arrondissement" geoname="SAINT-BRIEUC" code_insee="224" code_departement="22" code_region_2015="53"/><polygon points="219,56 219,56 219,56 219,57 219,56" id="224" class="arrondissement" fill="steelblue" stroke-width="1" stroke="white" geotype="arrondissement" geoname="SAINT-BRIEUC" code_insee="224" code_departement="22" code_region_2015="53"/><polygon points="190,16 191,16 191,16 190,16 190,16" id="224" class="arrondissement" fill="steelblue" stroke-width="1" stroke="white" geotype="arrondissement" geoname="SAINT-BRIEUC" code_insee="224" code_departement="22" code_region_2015="53"/><polygon points="313,84 316,84 315,85 314,84 313,84" id="224" class="arrondissement" fill="steelblue" stroke-width="1" stroke="white" geotype="arrondissement" geoname="SAINT-BRIEUC" code_insee="224" code_departement="22" code_region_2015="53"/><polygon points="185,19 185,18 185,18 185,19 185,19" id="224" class="arrondissement" fill="steelblue" stroke-width="1" stroke="white" geotype="arrondissement" geoname="SAINT-BRIEUC" code_insee="224" code_departement="22" code_region_2015="53"/><polygon points="309,80 309,80 309,81 309,80 309,80" id="224" class="arrondissement" fill="steelblue" stroke-width="1" stroke="white" geotype="arrondissement" geoname="SAINT-BRIEUC" code_insee="224" code_departement="22" code_region_2015="53"/><polygon points="185,19 186,19 186,19 186,19 185,19" id="224" class="arrondissement" fill="steelblue" stroke-width="1" stroke="white" geotype="arrondissement" geoname="SAINT-BRIEUC" code_insee="224" code_departement="22" code_region_2015="53"/><polygon points="194,15 194,14 194,15 194,15 194,15" id="224" class="arrondissement" fill="steelblue" stroke-width="1" stroke="white" geotype="arrondissement" geoname="SAINT-BRIEUC" code_insee="224" code_departement="22" code_region_2015="53"/><polygon points="239,70 239,70 239,70 239,70 239,70" id="224" class="arrondissement" fill="steelblue" stroke-width="1" stroke="white" geotype="arrondissement" geoname="SAINT-BRIEUC" code_insee="224" code_departement="22" code_region_2015="53"/><polygon points="192,14 192,14 192,14 192,14 192,14" id="224" class="arrondissement" fill="steelblue" stroke-width="1" stroke="white" geotype="arrondissement" geoname="SAINT-BRIEUC" code_insee="224" code_departement="22" code_region_2015="53"/><polygon points="185,18 185,17 185,18 185,18 185,18" id="224" class="arrondissement" fill="steelblue" stroke-width="1" stroke="white" geotype="arrondissement" geoname="SAINT-BRIEUC" code_insee="224" code_departement="22" code_region_2015="53"/><polygon points="192,15 193,14 193,15 193,15 192,15" id="224" class="arrondissement" fill="steelblue" stroke-width="1" stroke="white" geotype="arrondissement" geoname="SAINT-BRIEUC" code_insee="224" code_departement="22" code_region_2015="53"/><polygon points="191,13 191,13 191,13 191,13 191,13" id="224" class="arrondissement" fill="steelblue" stroke-width="1" stroke="white" geotype="arrondissement" geoname="SAINT-BRIEUC" code_insee="224" code_departement="22" code_region_2015="53"/><polygon points="193,16 193,15 194,16 194,16 193,16" id="224" class="arrondissement" fill="steelblue" stroke-width="1" stroke="white" geotype="arrondissement" geoname="SAINT-BRIEUC" code_insee="224" code_departement="22" code_region_2015="53"/><polygon points="192,16 192,16 193,16 192,16 192,16" id="224" class="arrondissement" fill="steelblue" stroke-width="1" stroke="white" geotype="arrondissement" geoname="SAINT-BRIEUC" code_insee="224" code_departement="22" code_region_2015="53"/><polygon points="194,15 194,15 194,15 194,15 194,15" id="224" class="arrondissement" fill="steelblue" stroke-width="1" stroke="white" geotype="arrondissement" geoname="SAINT-BRIEUC" code_insee="224" code_departement="22" code_region_2015="53"/><polygon points="194,12 195,12 195,11 195,12 194,12" id="224" class="arrondissement" fill="steelblue" stroke-width="1" stroke="white" geotype="arrondissement" geoname="SAINT-BRIEUC" code_insee="224" code_departement="22" code_region_2015="53"/><polygon points="194,13 194,13 194,13 194,13 194,13" id="224" class="arrondissement" fill="steelblue" stroke-width="1" stroke="white" geotype="arrondissement" geoname="SAINT-BRIEUC" code_insee="224" code_departement="22" code_region_2015="53"/><polygon points="195,13 195,13 195,13 195,13 195,13" id="224" class="arrondissement" fill="steelblue" stroke-width="1" stroke="white" geotype="arrondissement" geoname="SAINT-BRIEUC" code_insee="224" code_departement="22" code_region_2015="53"/><polygon points="192,13 192,13 192,13 192,13 192,13" id="224" class="arrondissement" fill="steelblue" stroke-width="1" stroke="white" geotype="arrondissement" geoname="SAINT-BRIEUC" code_insee="224" code_departement="22" code_region_2015="53"/><polygon points="192,16 192,16 192,16 192,16 192,16" id="224" class="arrondissement" fill="steelblue" stroke-width="1" stroke="white" geotype="arrondissement" geoname="SAINT-BRIEUC" code_insee="224" code_departement="22" code_region_2015="53"/><polygon points="192,13 192,13 193,14 192,14 192,13" id="224" class="arrondissement" fill="steelblue" stroke-width="1" stroke="white" geotype="arrondissement" geoname="SAINT-BRIEUC" code_insee="224" code_departement="22" code_region_2015="53"/><polygon points="177,12 179,10 180,11 178,12 177,12" id="224" class="arrondissement" fill="steelblue" stroke-width="1" stroke="white" geotype="arrondissement" geoname="SAINT-BRIEUC" code_insee="224" code_departement="22" code_region_2015="53"/><polygon points="296,72 296,72 296,72 296,72 296,72" id="224" class="arrondissement" fill="steelblue" stroke-width="1" stroke="white" geotype="arrondissement" geoname="SAINT-BRIEUC" code_insee="224" code_departement="22" code_region_2015="53"/><polygon points="182,17 182,17 182,17 182,17 182,17" id="224" class="arrondissement" fill="steelblue" stroke-width="1" stroke="white" geotype="arrondissement" geoname="SAINT-BRIEUC" code_insee="224" code_departement="22" code_region_2015="53"/><polygon points="192,10 193,10 193,10 193,10 192,10" id="224" class="arrondissement" fill="steelblue" stroke-width="1" stroke="white" geotype="arrondissement" geoname="SAINT-BRIEUC" code_insee="224" code_departement="22" code_region_2015="53"/><polygon points="312,71 313,71 313,72 313,72 312,71" id="224" class="arrondissement" fill="steelblue" stroke-width="1" stroke="white" geotype="arrondissement" geoname="SAINT-BRIEUC" code_insee="224" code_departement="22" code_region_2015="53"/><polygon points="310,72 311,71 312,71 312,72 310,72" id="224" class="arrondissement" fill="steelblue" stroke-width="1" stroke="white" geotype="arrondissement" geoname="SAINT-BRIEUC" code_insee="224" code_departement="22" code_region_2015="53"/><polygon points="191,14 191,14 191,14 191,14 191,14" id="224" class="arrondissement" fill="steelblue" stroke-width="1" stroke="white" geotype="arrondissement" geoname="SAINT-BRIEUC" code_insee="224" code_departement="22" code_region_2015="53"/><polygon points="193,12 193,12 193,12 193,12 193,12" id="224" class="arrondissement" fill="steelblue" stroke-width="1" stroke="white" geotype="arrondissement" geoname="SAINT-BRIEUC" code_insee="224" code_departement="22" code_region_2015="53"/><polygon points="192,16 192,16 192,16 192,16 192,16" id="224" class="arrondissement" fill="steelblue" stroke-width="1" stroke="white" geotype="arrondissement" geoname="SAINT-BRIEUC" code_insee="224" code_departement="22" code_region_2015="53"/><polygon points="181,18 182,18 182,18 182,19 181,18" id="224" class="arrondissement" fill="steelblue" stroke-width="1" stroke="white" geotype="arrondissement" geoname="SAINT-BRIEUC" code_insee="224" code_departement="22" code_region_2015="53"/><polygon points="192,12 193,12 193,12 193,12 192,12" id="224" class="arrondissement" fill="steelblue" stroke-width="1" stroke="white" geotype="arrondissement" geoname="SAINT-BRIEUC" code_insee="224" code_departement="22" code_region_2015="53"/><polygon points="183,16 185,16 185,18 184,17 184,16 183,16" id="224" class="arrondissement" fill="steelblue" stroke-width="1" stroke="white" geotype="arrondissement" geoname="SAINT-BRIEUC" code_insee="224" code_departement="22" code_region_2015="53"/><polygon points="178,16 179,16 179,16 179,17 178,16" id="224" class="arrondissement" fill="steelblue" stroke-width="1" stroke="white" geotype="arrondissement" geoname="SAINT-BRIEUC" code_insee="224" code_departement="22" code_region_2015="53"/><polygon points="191,16 191,16 191,16 191,16 191,16" id="224" class="arrondissement" fill="steelblue" stroke-width="1" stroke="white" geotype="arrondissement" geoname="SAINT-BRIEUC" code_insee="224" code_departement="22" code_region_2015="53"/><polygon points="194,15 194,15 194,15 194,15 194,15" id="224" class="arrondissement" fill="steelblue" stroke-width="1" stroke="white" geotype="arrondissement" geoname="SAINT-BRIEUC" code_insee="224" code_departement="22" code_region_2015="53"/><polygon points="191,18 192,17 192,17 193,17 191,18" id="224" class="arrondissement" fill="steelblue" stroke-width="1" stroke="white" geotype="arrondissement" geoname="SAINT-BRIEUC" code_insee="224" code_departement="22" code_region_2015="53"/><polygon points="185,18 185,18 185,18 185,18 185,18" id="224" class="arrondissement" fill="steelblue" stroke-width="1" stroke="white" geotype="arrondissement" geoname="SAINT-BRIEUC" code_insee="224" code_departement="22" code_region_2015="53"/><polygon points="186,12 190,11 191,10 193,10 194,10 193,12 191,12 191,13 190,14 189,13 187,13 186,12" id="224" class="arrondissement" fill="steelblue" stroke-width="1" stroke="white" geotype="arrondissement" geoname="SAINT-BRIEUC" code_insee="224" code_departement="22" code_region_2015="53"/><polygon points="184,15 184,15 184,15 184,15 184,15" id="224" class="arrondissement" fill="steelblue" stroke-width="1" stroke="white" geotype="arrondissement" geoname="SAINT-BRIEUC" code_insee="224" code_departement="22" code_region_2015="53"/><polygon points="185,18 185,18 185,18 185,18 185,18" id="224" class="arrondissement" fill="steelblue" stroke-width="1" stroke="white" geotype="arrondissement" geoname="SAINT-BRIEUC" code_insee="224" code_departement="22" code_region_2015="53"/><polygon points="193,16 193,16 193,16 193,16 193,16" id="224" class="arrondissement" fill="steelblue" stroke-width="1" stroke="white" geotype="arrondissement" geoname="SAINT-BRIEUC" code_insee="224" code_departement="22" code_region_2015="53"/><polygon points="191,15 191,15 191,15 191,15 191,15" id="224" class="arrondissement" fill="steelblue" stroke-width="1" stroke="white" geotype="arrondissement" geoname="SAINT-BRIEUC" code_insee="224" code_departement="22" code_region_2015="53"/><polygon points="192,16 192,16 192,16 192,16 192,16" id="224" class="arrondissement" fill="steelblue" stroke-width="1" stroke="white" geotype="arrondissement" geoname="SAINT-BRIEUC" code_insee="224" code_departement="22" code_region_2015="53"/><polygon points="191,17 191,17 191,17 191,17 191,17" id="224" class="arrondissement" fill="steelblue" stroke-width="1" stroke="white" geotype="arrondissement" geoname="SAINT-BRIEUC" code_insee="224" code_departement="22" code_region_2015="53"/><polygon points="185,13 185,13 186,13 186,13 185,13" id="224" class="arrondissement" fill="steelblue" stroke-width="1" stroke="white" geotype="arrondissement" geoname="SAINT-BRIEUC" code_insee="224" code_departement="22" code_region_2015="53"/><polygon points="189,14 190,14 190,14 190,14 189,14" id="224" class="arrondissement" fill="steelblue" stroke-width="1" stroke="white" geotype="arrondissement" geoname="SAINT-BRIEUC" code_insee="224" code_departement="22" code_region_2015="53"/><polygon points="194,15 195,15 196,15 195,15 194,15" id="224" class="arrondissement" fill="steelblue" stroke-width="1" stroke="white" geotype="arrondissement" geoname="SAINT-BRIEUC" code_insee="224" code_departement="22" code_region_2015="53"/><polygon points="195,8 195,8 195,8 195,8 195,8" id="224" class="arrondissement" fill="steelblue" stroke-width="1" stroke="white" geotype="arrondissement" geoname="SAINT-BRIEUC" code_insee="224" code_departement="22" code_region_2015="53"/><polygon points="194,15 194,15 194,15 194,15 194,15" id="224" class="arrondissement" fill="steelblue" stroke-width="1" stroke="white" geotype="arrondissement" geoname="SAINT-BRIEUC" code_insee="224" code_departement="22" code_region_2015="53"/><polygon points="353,70 353,69 353,70 353,70 353,70" id="224" class="arrondissement" fill="steelblue" stroke-width="1" stroke="white" geotype="arrondissement" geoname="SAINT-BRIEUC" code_insee="224" code_departement="22" code_region_2015="53"/><polygon points="196,12 196,11 197,11 197,12 196,12" id="224" class="arrondissement" fill="steelblue" stroke-width="1" stroke="white" geotype="arrondissement" geoname="SAINT-BRIEUC" code_insee="224" code_departement="22" code_region_2015="53"/><polygon points="193,13 193,13 193,13 193,13 193,13" id="224" class="arrondissement" fill="steelblue" stroke-width="1" stroke="white" geotype="arrondissement" geoname="SAINT-BRIEUC" code_insee="224" code_departement="22" code_region_2015="53"/><polygon points="191,16 191,16 191,16 191,16 191,16" id="224" class="arrondissement" fill="steelblue" stroke-width="1" stroke="white" geotype="arrondissement" geoname="SAINT-BRIEUC" code_insee="224" code_departement="22" code_region_2015="53"/><polygon points="310,80 311,80 311,80 312,80 311,81 310,80" id="224" class="arrondissement" fill="steelblue" stroke-width="1" stroke="white" geotype="arrondissement" geoname="SAINT-BRIEUC" code_insee="224" code_departement="22" code_region_2015="53"/><polygon points="191,13 192,13 192,13 192,13 191,13" id="224" class="arrondissement" fill="steelblue" stroke-width="1" stroke="white" geotype="arrondissement" geoname="SAINT-BRIEUC" code_insee="224" code_departement="22" code_region_2015="53"/><polygon points="190,16 190,16 190,16 190,16 190,16" id="224" class="arrondissement" fill="steelblue" stroke-width="1" stroke="white" geotype="arrondissement" geoname="SAINT-BRIEUC" code_insee="224" code_departement="22" code_region_2015="53"/><polygon points="185,18 185,18 186,18 185,18 185,18" id="224" class="arrondissement" fill="steelblue" stroke-width="1" stroke="white" geotype="arrondissement" geoname="SAINT-BRIEUC" code_insee="224" code_departement="22" code_region_2015="53"/><polygon points="194,11 194,11 194,11 194,11 194,11" id="224" class="arrondissement" fill="steelblue" stroke-width="1" stroke="white" geotype="arrondissement" geoname="SAINT-BRIEUC" code_insee="224" code_departement="22" code_region_2015="53"/><polygon points="159,51 157,50 153,49 151,47 147,47 149,44 155,42 156,39 160,38 161,37 161,35 160,34 163,34 163,32 163,30 165,28 165,26 168,23 171,22 172,23 172,22 174,22 173,23 174,24 184,22 187,23 185,25 186,27 189,28 188,29 187,29 185,29 182,31 177,32 178,33 176,33 177,33 177,34 177,34 177,34 177,34 177,33 178,33 178,33 187,34 185,35 182,35 181,36 184,37 184,37 185,38 185,38 186,38 188,38 188,38 192,39 201,39 203,37 204,37 203,38 203,39 206,41 210,41 206,44 206,46 208,46 207,48 204,49 206,52 208,52 209,51 209,52 213,56 215,56 217,57 219,57 221,57 221,59 223,60 222,62 223,64 227,64 228,65 230,64 231,66 232,66 235,67 236,70 239,69 239,72 241,71 242,72 241,71 240,72 242,72 240,73 239,72 239,73 240,73 239,75 241,76 240,78 241,80 242,83 241,84 242,85 241,85 241,85 242,85 240,85 240,86 241,87 244,88 249,90 252,90 254,94 258,95 262,96 264,97 264,96 266,97 266,96 266,97 269,98 271,98 271,99 268,100 270,103 270,104 268,105 266,106 265,106 263,107 260,107 263,107 264,106 264,107 264,106 265,106 264,106 265,106 265,106 266,106 267,106 268,105 272,105 271,104 272,105 272,105 272,105 272,105 270,106 271,107 270,107 272,108 273,109 273,109 274,109 274,110 274,110 274,111 275,111 276,112 278,112 278,112 278,114 279,115 279,115 278,114 280,113 281,113 281,112 282,111 281,111 282,110 282,110 282,109 281,107 281,107 281,106 280,106 280,105 281,104 283,104 284,104 284,104 286,104 286,105 287,105 287,106 288,107 292,107 295,107 296,107 295,108 296,108 298,109 297,108 295,108 296,107 294,105 294,103 295,103 302,99 303,97 305,97 310,92 311,91 314,92 314,91 312,92 312,90 313,90 317,88 317,87 316,86 317,85 321,86 323,86 332,83 335,81 339,79 340,77 339,77 340,77 341,76 341,75 338,75 338,76 335,73 339,73 341,71 345,72 350,70 356,72 354,73 354,74 356,74 356,75 356,74 358,75 359,74 361,75 362,76 365,76 367,79 367,82 369,84 373,83 372,86 369,87 368,87 364,89 362,89 358,89 357,90 354,89 354,88 351,88 352,84 349,83 348,86 345,88 343,88 342,90 342,92 340,95 342,95 339,98 341,101 340,104 337,104 335,104 333,104 331,106 338,108 339,110 339,111 341,113 345,112 346,111 349,111 354,107 355,106 357,106 358,108 360,109 361,112 358,112 358,113 355,114 355,116 354,116 354,115 353,115 353,116 354,120 357,123 358,124 354,127 357,129 358,127 360,128 361,129 359,129 360,131 360,133 358,134 358,134 347,130 345,130 342,132 340,131 339,131 337,130 335,131 338,135 338,139 336,144 338,146 336,147 338,148 340,148 342,152 341,152 339,155 335,156 331,157 329,158 329,160 325,161 324,163 323,163 320,169 317,169 314,169 313,167 312,167 310,170 310,172 309,172 308,173 307,176 310,180 310,182 311,183 309,187 310,192 314,194 315,195 315,197 321,206 320,209 322,212 322,212 323,213 327,216 328,217 328,219 326,221 323,225 322,225 322,226 319,227 317,228 316,228 317,229 318,230 317,230 318,231 317,233 318,234 314,235 314,237 310,236 309,237 306,240 301,243 295,247 293,245 292,246 290,246 291,244 289,246 288,245 288,247 286,245 287,245 286,243 284,243 283,242 284,242 285,240 283,238 284,237 286,233 287,232 288,231 287,230 289,228 287,226 289,226 289,225 289,224 287,223 289,222 286,220 286,219 284,218 282,219 276,222 275,222 274,224 268,224 268,223 262,224 260,223 258,224 258,228 256,229 256,231 254,231 253,230 254,229 252,228 253,226 251,225 252,223 251,221 250,221 249,219 245,216 245,215 244,214 240,214 234,216 232,216 224,213 220,209 221,208 220,208 220,207 218,208 217,208 217,206 216,205 216,203 220,203 221,197 227,194 226,193 224,193 222,193 222,192 224,192 222,191 222,190 221,190 215,192 210,192 206,192 204,191 206,190 206,189 200,184 206,183 204,180 207,179 207,177 206,176 203,177 202,176 198,175 194,176 195,178 197,179 192,180 192,181 194,181 193,181 194,184 193,185 191,185 190,186 189,186 191,186 190,187 187,187 189,190 186,191 179,192 178,189 175,187 173,187 173,187 173,187 171,187 170,186 169,186 169,185 167,186 164,185 165,184 164,183 165,183 163,182 164,181 166,180 163,178 163,176 164,175 162,173 161,172 160,172 162,170 165,170 167,168 170,167 166,164 166,161 169,159 175,156 176,154 181,153 180,151 178,152 176,151 178,150 177,148 176,149 177,148 174,149 173,147 176,142 176,141 180,139 181,138 180,137 182,136 179,134 182,132 181,132 181,130 183,129 183,126 183,122 189,119 190,117 192,114 199,114 203,110 204,108 202,106 202,105 201,105 198,103 198,104 196,104 197,102 196,99 197,98 200,98 201,97 201,97 201,95 198,93 196,91 196,88 193,86 192,83 193,82 191,80 190,80 190,78 187,78 186,76 185,75 183,75 181,76 183,77 177,80 177,81 174,80 174,82 175,82 177,84 174,86 172,89 173,91 176,91 176,92 176,95 176,97 173,97 173,96 169,95 167,95 167,94 165,95 164,94 163,94 162,92 161,92 160,91 158,90 158,90 156,90 156,89 154,90 153,88 148,83 150,79 150,78 150,77 148,77 148,76 149,75 148,73 149,73 151,73 152,70 154,70 155,71 155,72 156,73 160,75 164,72 166,73 168,71 167,70 169,69 173,68 174,65 172,64 170,64 169,65 169,67 167,67 164,66 162,66 161,65 161,63 162,62 166,60 169,60 170,59 173,59 174,57 176,57 173,56 171,57 170,56 170,55 169,57 168,57 168,55 169,54 165,53 165,52 164,53 162,52 159,51" id="224" class="arrondissement" fill="steelblue" stroke-width="1" stroke="white" geotype="arrondissement" geoname="SAINT-BRIEUC" code_insee="224" code_departement="22" code_region_2015="53"/><polygon points="194,12 194,12 194,12 194,12 194,12" id="224" class="arrondissement" fill="steelblue" stroke-width="1" stroke="white" geotype="arrondissement" geoname="SAINT-BRIEUC" code_insee="224" code_departement="22" code_region_2015="53"/><polygon points="185,18 185,18 185,18 185,18 185,18" id="224" class="arrondissement" fill="steelblue" stroke-width="1" stroke="white" geotype="arrondissement" geoname="SAINT-BRIEUC" code_insee="224" code_departement="22" code_region_2015="53"/><polygon points="184,14 185,14 185,14 185,15 184,14" id="224" class="arrondissement" fill="steelblue" stroke-width="1" stroke="white" geotype="arrondissement" geoname="SAINT-BRIEUC" code_insee="224" code_departement="22" code_region_2015="53"/></svg>