<?xml version="1.0" encoding="utf-8"?>
<svg version="1.1" id="svgmap" xmlns="http://www.w3.org/2000/svg" xmlns:xlink="http://www.w3.org/1999/xlink" x="0px" y="0px" width="100%" height="100%" viewBox="0 0 477 500">
<polygon points="43,327 43,327 43,328 43,328 43,327" id="501" class="arrondissement" fill="steelblue" stroke-width="1" stroke="white" geotype="arrondissement" geoname="AVRANCHES" code_insee="501" code_departement="50" code_region_2015="25"/><polygon points="37,334 37,334 38,334 38,334 37,334" id="501" class="arrondissement" fill="steelblue" stroke-width="1" stroke="white" geotype="arrondissement" geoname="AVRANCHES" code_insee="501" code_departement="50" code_region_2015="25"/><polygon points="50,334 50,334 50,334 50,334" id="501" class="arrondissement" fill="steelblue" stroke-width="1" stroke="white" geotype="arrondissement" geoname="AVRANCHES" code_insee="501" code_departement="50" code_region_2015="25"/><polygon points="35,334 35,333 35,334 35,334 35,334" id="501" class="arrondissement" fill="steelblue" stroke-width="1" stroke="white" geotype="arrondissement" geoname="AVRANCHES" code_insee="501" code_departement="50" code_region_2015="25"/><polygon points="171,420 171,419 172,420 171,420 171,420" id="501" class="arrondissement" fill="steelblue" stroke-width="1" stroke="white" geotype="arrondissement" geoname="AVRANCHES" code_insee="501" code_departement="50" code_region_2015="25"/><polygon points="51,334 51,334 51,334 52,334 51,334" id="501" class="arrondissement" fill="steelblue" stroke-width="1" stroke="white" geotype="arrondissement" geoname="AVRANCHES" code_insee="501" code_departement="50" code_region_2015="25"/><polygon points="44,338 44,338 45,338 45,338 44,338" id="501" class="arrondissement" fill="steelblue" stroke-width="1" stroke="white" geotype="arrondissement" geoname="AVRANCHES" code_insee="501" code_departement="50" code_region_2015="25"/><polygon points="53,336 53,336 53,336 53,336 53,336" id="501" class="arrondissement" fill="steelblue" stroke-width="1" stroke="white" geotype="arrondissement" geoname="AVRANCHES" code_insee="501" code_departement="50" code_region_2015="25"/><polygon points="43,337 43,337 43,337 43,337 43,337" id="501" class="arrondissement" fill="steelblue" stroke-width="1" stroke="white" geotype="arrondissement" geoname="AVRANCHES" code_insee="501" code_departement="50" code_region_2015="25"/><polygon points="38,334 38,333 38,333 38,334 38,334" id="501" class="arrondissement" fill="steelblue" stroke-width="1" stroke="white" geotype="arrondissement" geoname="AVRANCHES" code_insee="501" code_departement="50" code_region_2015="25"/><polygon points="45,332 46,332 46,333 46,332 45,332" id="501" class="arrondissement" fill="steelblue" stroke-width="1" stroke="white" geotype="arrondissement" geoname="AVRANCHES" code_insee="501" code_departement="50" code_region_2015="25"/><polygon points="51,331 51,331 52,331 51,331 51,331" id="501" class="arrondissement" fill="steelblue" stroke-width="1" stroke="white" geotype="arrondissement" geoname="AVRANCHES" code_insee="501" code_departement="50" code_region_2015="25"/><polygon points="39,331 39,331 39,331 39,331 39,331" id="501" class="arrondissement" fill="steelblue" stroke-width="1" stroke="white" geotype="arrondissement" geoname="AVRANCHES" code_insee="501" code_departement="50" code_region_2015="25"/><polygon points="49,331 49,331 50,331 49,331 49,331" id="501" class="arrondissement" fill="steelblue" stroke-width="1" stroke="white" geotype="arrondissement" geoname="AVRANCHES" code_insee="501" code_departement="50" code_region_2015="25"/><polygon points="70,337 70,337 70,337 70,337 70,337" id="501" class="arrondissement" fill="steelblue" stroke-width="1" stroke="white" geotype="arrondissement" geoname="AVRANCHES" code_insee="501" code_departement="50" code_region_2015="25"/><polygon points="48,334 49,334 49,334 48,334 48,334" id="501" class="arrondissement" fill="steelblue" stroke-width="1" stroke="white" geotype="arrondissement" geoname="AVRANCHES" code_insee="501" code_departement="50" code_region_2015="25"/><polygon points="50,330 50,330 50,330 50,330 50,330" id="501" class="arrondissement" fill="steelblue" stroke-width="1" stroke="white" geotype="arrondissement" geoname="AVRANCHES" code_insee="501" code_departement="50" code_region_2015="25"/><polygon points="50,333 50,333 50,333 50,334 50,333" id="501" class="arrondissement" fill="steelblue" stroke-width="1" stroke="white" geotype="arrondissement" geoname="AVRANCHES" code_insee="501" code_departement="50" code_region_2015="25"/><polygon points="55,330 55,330 55,330 55,330 55,330" id="501" class="arrondissement" fill="steelblue" stroke-width="1" stroke="white" geotype="arrondissement" geoname="AVRANCHES" code_insee="501" code_departement="50" code_region_2015="25"/><polygon points="42,334 42,334 42,335 42,334 42,334" id="501" class="arrondissement" fill="steelblue" stroke-width="1" stroke="white" geotype="arrondissement" geoname="AVRANCHES" code_insee="501" code_departement="50" code_region_2015="25"/><polygon points="55,336 56,337 56,337 56,337 55,336" id="501" class="arrondissement" fill="steelblue" stroke-width="1" stroke="white" geotype="arrondissement" geoname="AVRANCHES" code_insee="501" code_departement="50" code_region_2015="25"/><polygon points="58,334 58,334 58,334 58,334 58,334" id="501" class="arrondissement" fill="steelblue" stroke-width="1" stroke="white" geotype="arrondissement" geoname="AVRANCHES" code_insee="501" code_departement="50" code_region_2015="25"/><polygon points="171,429 172,429 173,429 172,430 171,429" id="501" class="arrondissement" fill="steelblue" stroke-width="1" stroke="white" geotype="arrondissement" geoname="AVRANCHES" code_insee="501" code_departement="50" code_region_2015="25"/><polygon points="71,335 72,335 72,336 71,336 71,335" id="501" class="arrondissement" fill="steelblue" stroke-width="1" stroke="white" geotype="arrondissement" geoname="AVRANCHES" code_insee="501" code_departement="50" code_region_2015="25"/><polygon points="42,336 43,336 43,336 42,336 42,336" id="501" class="arrondissement" fill="steelblue" stroke-width="1" stroke="white" geotype="arrondissement" geoname="AVRANCHES" code_insee="501" code_departement="50" code_region_2015="25"/><polygon points="55,335 56,334 56,335 55,335 55,335" id="501" class="arrondissement" fill="steelblue" stroke-width="1" stroke="white" geotype="arrondissement" geoname="AVRANCHES" code_insee="501" code_departement="50" code_region_2015="25"/><polygon points="32,332 32,331 33,333 32,332 32,332" id="501" class="arrondissement" fill="steelblue" stroke-width="1" stroke="white" geotype="arrondissement" geoname="AVRANCHES" code_insee="501" code_departement="50" code_region_2015="25"/><polygon points="428,482 424,483 423,483 420,483 414,485 413,483 410,484 408,483 405,482 403,481 404,479 403,477 395,477 391,476 388,477 388,481 386,483 384,482 384,485 377,485 372,487 369,485 366,486 364,483 359,482 358,480 356,480 354,479 352,479 349,476 349,479 346,479 332,478 327,474 321,474 318,475 315,476 312,475 309,473 308,471 299,471 295,470 295,468 292,466 292,467 282,468 276,467 275,465 275,465 270,467 266,469 267,471 267,473 264,476 263,479 260,479 255,483 248,484 247,483 244,483 244,485 243,486 243,488 241,486 239,487 236,490 237,493 233,496 230,496 228,498 226,499 224,500 219,498 216,498 205,498 200,494 202,491 199,489 196,487 192,489 190,487 187,488 183,488 183,486 180,487 178,479 174,476 175,475 172,473 172,472 170,471 169,471 169,469 170,468 164,464 163,463 166,460 165,459 166,458 167,458 166,457 168,458 169,456 165,453 165,452 164,451 160,451 159,448 162,444 158,443 159,441 155,440 151,438 151,436 149,433 157,431 161,431 169,433 170,436 172,436 172,436 178,435 181,437 181,436 186,436 194,433 196,434 206,428 204,427 206,426 207,428 219,426 223,428 225,427 228,427 231,430 234,431 230,425 226,425 224,423 219,423 216,422 216,419 221,415 221,413 218,413 208,416 206,417 203,417 201,421 198,422 197,416 193,414 190,414 188,412 182,409 175,410 174,407 171,403 169,397 163,392 156,391 154,390 149,387 147,383 148,378 149,369 149,363 147,358 146,358 146,357 142,357 142,353 136,353 134,352 131,352 131,350 138,349 140,347 143,346 146,340 152,343 153,343 155,345 160,345 161,349 171,348 171,345 174,344 175,344 184,345 190,343 195,342 197,343 199,343 200,346 198,346 197,348 194,351 196,353 200,352 203,353 206,354 209,352 210,352 209,349 215,347 218,344 225,346 229,346 231,345 232,346 231,348 233,348 235,350 234,351 236,352 237,352 237,353 239,353 238,355 242,357 244,357 245,359 247,359 248,360 248,362 245,364 246,366 252,364 255,362 255,364 252,367 249,368 252,370 258,372 259,373 265,372 266,376 270,376 272,374 281,373 285,372 286,371 288,370 291,371 294,372 299,372 300,371 300,369 305,365 299,361 303,358 304,355 308,352 311,351 311,355 313,356 317,355 318,357 322,357 323,358 324,357 325,358 328,357 329,359 331,358 333,359 336,364 337,365 337,367 335,367 333,369 341,373 344,373 350,375 356,371 358,371 368,376 371,373 376,374 378,373 384,375 384,373 386,370 388,371 392,369 397,373 398,374 402,375 404,376 406,377 406,376 408,377 415,377 418,380 418,381 424,382 425,380 431,379 439,378 443,376 444,376 443,378 438,380 436,383 431,386 432,391 435,393 438,393 439,392 441,391 444,392 449,394 450,399 452,399 453,400 455,402 461,403 464,406 468,408 474,408 477,410 477,412 474,411 473,413 469,414 468,418 462,421 463,422 464,426 467,429 466,431 475,433 476,435 471,435 471,442 468,445 464,447 464,450 462,453 462,458 460,460 455,463 450,463 448,464 443,468 441,469 441,471 433,474 430,478 430,479 428,482" id="501" class="arrondissement" fill="steelblue" stroke-width="1" stroke="white" geotype="arrondissement" geoname="AVRANCHES" code_insee="501" code_departement="50" code_region_2015="25"/><polygon points="44,337 44,337 44,337 44,337 44,337" id="501" class="arrondissement" fill="steelblue" stroke-width="1" stroke="white" geotype="arrondissement" geoname="AVRANCHES" code_insee="501" code_departement="50" code_region_2015="25"/><polygon points="52,335 52,335 52,336 52,336 52,335" id="501" class="arrondissement" fill="steelblue" stroke-width="1" stroke="white" geotype="arrondissement" geoname="AVRANCHES" code_insee="501" code_departement="50" code_region_2015="25"/><polygon points="54,329 54,329 54,330 54,329 54,329" id="501" class="arrondissement" fill="steelblue" stroke-width="1" stroke="white" geotype="arrondissement" geoname="AVRANCHES" code_insee="501" code_departement="50" code_region_2015="25"/><polygon points="47,333 48,334 48,334 47,333 47,333" id="501" class="arrondissement" fill="steelblue" stroke-width="1" stroke="white" geotype="arrondissement" geoname="AVRANCHES" code_insee="501" code_departement="50" code_region_2015="25"/><polygon points="42,332 42,332 42,333 42,333 42,332" id="501" class="arrondissement" fill="steelblue" stroke-width="1" stroke="white" geotype="arrondissement" geoname="AVRANCHES" code_insee="501" code_departement="50" code_region_2015="25"/><polygon points="60,334 60,334 60,335 60,334 60,334" id="501" class="arrondissement" fill="steelblue" stroke-width="1" stroke="white" geotype="arrondissement" geoname="AVRANCHES" code_insee="501" code_departement="50" code_region_2015="25"/><polygon points="52,334 52,334 53,334 52,334 52,334" id="501" class="arrondissement" fill="steelblue" stroke-width="1" stroke="white" geotype="arrondissement" geoname="AVRANCHES" code_insee="501" code_departement="50" code_region_2015="25"/><polygon points="57,330 58,329 58,330 58,330 57,330" id="501" class="arrondissement" fill="steelblue" stroke-width="1" stroke="white" geotype="arrondissement" geoname="AVRANCHES" code_insee="501" code_departement="50" code_region_2015="25"/><polygon points="34,333 35,333 35,333 34,333 34,333" id="501" class="arrondissement" fill="steelblue" stroke-width="1" stroke="white" geotype="arrondissement" geoname="AVRANCHES" code_insee="501" code_departement="50" code_region_2015="25"/><polygon points="55,334 55,334 55,334 55,334 55,334" id="501" class="arrondissement" fill="steelblue" stroke-width="1" stroke="white" geotype="arrondissement" geoname="AVRANCHES" code_insee="501" code_departement="50" code_region_2015="25"/><polygon points="59,331 59,331 59,331 59,331 59,331" id="501" class="arrondissement" fill="steelblue" stroke-width="1" stroke="white" geotype="arrondissement" geoname="AVRANCHES" code_insee="501" code_departement="50" code_region_2015="25"/><polygon points="44,329 45,329 45,329 45,329 44,329" id="501" class="arrondissement" fill="steelblue" stroke-width="1" stroke="white" geotype="arrondissement" geoname="AVRANCHES" code_insee="501" code_departement="50" code_region_2015="25"/><polygon points="49,327 50,327 50,328 49,327 49,327" id="501" class="arrondissement" fill="steelblue" stroke-width="1" stroke="white" geotype="arrondissement" geoname="AVRANCHES" code_insee="501" code_departement="50" code_region_2015="25"/><polygon points="76,335 76,335 77,335 77,335 76,335" id="501" class="arrondissement" fill="steelblue" stroke-width="1" stroke="white" geotype="arrondissement" geoname="AVRANCHES" code_insee="501" code_departement="50" code_region_2015="25"/><polygon points="57,329 57,329 58,329 57,329 57,329" id="501" class="arrondissement" fill="steelblue" stroke-width="1" stroke="white" geotype="arrondissement" geoname="AVRANCHES" code_insee="501" code_departement="50" code_region_2015="25"/><polygon points="55,330 55,329 55,329 55,330 55,330" id="501" class="arrondissement" fill="steelblue" stroke-width="1" stroke="white" geotype="arrondissement" geoname="AVRANCHES" code_insee="501" code_departement="50" code_region_2015="25"/><polygon points="59,334 59,334 60,334 59,334 59,334" id="501" class="arrondissement" fill="steelblue" stroke-width="1" stroke="white" geotype="arrondissement" geoname="AVRANCHES" code_insee="501" code_departement="50" code_region_2015="25"/><polygon points="50,334 51,334 51,335 50,335 50,334" id="501" class="arrondissement" fill="steelblue" stroke-width="1" stroke="white" geotype="arrondissement" geoname="AVRANCHES" code_insee="501" code_departement="50" code_region_2015="25"/><polygon points="33,332 33,332 33,332 33,332 33,332" id="501" class="arrondissement" fill="steelblue" stroke-width="1" stroke="white" geotype="arrondissement" geoname="AVRANCHES" code_insee="501" code_departement="50" code_region_2015="25"/><polygon points="43,334 45,334 44,335 50,336 50,338 49,337 46,338 45,336 43,336 43,334" id="501" class="arrondissement" fill="steelblue" stroke-width="1" stroke="white" geotype="arrondissement" geoname="AVRANCHES" code_insee="501" code_departement="50" code_region_2015="25"/><polygon points="42,332 42,332 42,332 42,332 42,332" id="501" class="arrondissement" fill="steelblue" stroke-width="1" stroke="white" geotype="arrondissement" geoname="AVRANCHES" code_insee="501" code_departement="50" code_region_2015="25"/><polygon points="59,333 59,333 59,333 59,333 59,333" id="501" class="arrondissement" fill="steelblue" stroke-width="1" stroke="white" geotype="arrondissement" geoname="AVRANCHES" code_insee="501" code_departement="50" code_region_2015="25"/><polygon points="61,332 61,332 61,332 61,332 61,332" id="501" class="arrondissement" fill="steelblue" stroke-width="1" stroke="white" geotype="arrondissement" geoname="AVRANCHES" code_insee="501" code_departement="50" code_region_2015="25"/><polygon points="39,331 39,331 39,331 39,331 39,331" id="501" class="arrondissement" fill="steelblue" stroke-width="1" stroke="white" geotype="arrondissement" geoname="AVRANCHES" code_insee="501" code_departement="50" code_region_2015="25"/><polygon points="70,336 70,336 71,336 70,336 70,336" id="501" class="arrondissement" fill="steelblue" stroke-width="1" stroke="white" geotype="arrondissement" geoname="AVRANCHES" code_insee="501" code_departement="50" code_region_2015="25"/><polygon points="275,55 276,53 279,54 278,55 275,55" id="502" class="arrondissement" fill="steelblue" stroke-width="1" stroke="white" geotype="arrondissement" geoname="CHERBOURG" code_insee="502" code_departement="50" code_region_2015="25"/><polygon points="315,90 316,90 316,90 315,91 315,90" id="502" class="arrondissement" fill="steelblue" stroke-width="1" stroke="white" geotype="arrondissement" geoname="CHERBOURG" code_insee="502" code_departement="50" code_region_2015="25"/><polygon points="312,92 313,92 314,92 312,92 312,92" id="502" class="arrondissement" fill="steelblue" stroke-width="1" stroke="white" geotype="arrondissement" geoname="CHERBOURG" code_insee="502" code_departement="50" code_region_2015="25"/><polygon points="111,22 112,22 112,22 112,23 111,22" id="502" class="arrondissement" fill="steelblue" stroke-width="1" stroke="white" geotype="arrondissement" geoname="CHERBOURG" code_insee="502" code_departement="50" code_region_2015="25"/><polygon points="143,22 145,23 145,21 147,20 145,23 148,24 148,24 148,25 149,26 148,24 143,22" id="502" class="arrondissement" fill="steelblue" stroke-width="1" stroke="white" geotype="arrondissement" geoname="CHERBOURG" code_insee="502" code_departement="50" code_region_2015="25"/><polygon points="118,21 130,21 138,22 130,21 118,21" id="502" class="arrondissement" fill="steelblue" stroke-width="1" stroke="white" geotype="arrondissement" geoname="CHERBOURG" code_insee="502" code_departement="50" code_region_2015="25"/><polygon points="98,165 96,164 93,158 105,156 100,156 96,152 93,151 94,151 94,154 91,156 95,156 97,155 96,157 96,156 92,158 90,158 80,149 77,147 74,144 69,141 64,140 62,141 60,140 55,140 54,138 51,138 50,135 47,135 46,129 49,122 47,122 48,114 49,114 48,107 44,102 43,101 41,101 40,100 40,92 38,86 35,85 31,84 26,82 23,76 25,73 30,71 33,68 37,67 37,65 40,64 42,61 42,57 42,51 41,45 37,33 35,31 33,30 30,27 24,27 20,24 13,24 7,23 7,22 3,22 4,21 1,21 1,19 5,15 0,9 2,5 0,4 1,4 3,0 5,0 11,0 15,1 15,2 17,2 21,4 21,6 23,7 23,8 29,8 36,4 38,4 39,5 42,6 45,8 45,9 46,9 46,11 47,11 48,13 53,15 63,16 73,19 85,20 91,19 93,19 94,21 96,22 99,23 103,21 105,22 106,23 112,22 105,23 106,23 104,24 106,26 109,27 118,28 125,26 138,28 139,29 142,30 145,29 143,29 142,29 147,28 149,26 149,27 154,29 157,28 164,28 165,27 168,28 175,24 178,24 179,22 181,23 182,19 186,18 187,16 185,15 187,12 195,14 201,10 203,11 205,10 208,9 210,10 219,8 229,8 237,10 242,9 245,11 255,13 260,14 262,13 264,14 264,12 265,13 269,12 268,16 267,16 266,17 267,18 266,19 269,19 268,20 270,21 271,21 270,22 270,23 272,22 272,24 279,28 279,30 277,31 283,41 283,48 275,45 272,45 273,46 268,53 271,55 266,59 266,62 264,61 265,59 268,57 261,55 257,57 255,58 252,66 252,71 254,75 259,82 264,86 266,88 274,96 283,104 286,107 290,110 296,115 299,117 307,125 311,133 310,136 305,138 304,143 303,142 301,143 301,145 300,146 302,147 301,150 294,154 294,154 291,155 289,156 289,154 265,149 265,151 259,151 257,152 256,152 254,154 253,153 248,153 246,153 246,149 243,149 239,149 241,147 239,146 230,150 223,154 226,151 223,150 221,147 224,145 223,144 218,144 216,146 207,149 205,148 205,147 202,147 195,149 193,147 194,145 191,143 192,142 189,141 186,142 185,142 177,148 172,148 170,147 166,147 164,149 159,149 151,151 151,149 147,148 146,148 146,150 143,150 141,149 134,152 133,148 135,147 129,148 126,146 125,147 122,144 120,145 117,144 117,146 119,148 118,150 115,151 117,152 115,154 120,154 121,155 119,156 118,157 111,156 110,158 113,161 108,162 98,165" id="502" class="arrondissement" fill="steelblue" stroke-width="1" stroke="white" geotype="arrondissement" geoname="CHERBOURG" code_insee="502" code_departement="50" code_region_2015="25"/><polygon points="278,56 278,56 278,56 278,56 278,56" id="502" class="arrondissement" fill="steelblue" stroke-width="1" stroke="white" geotype="arrondissement" geoname="CHERBOURG" code_insee="502" code_departement="50" code_region_2015="25"/><polygon points="146,340 148,331 148,329 150,321 152,315 156,311 156,313 154,314 156,314 155,317 156,319 158,319 157,316 159,313 157,310 152,310 152,305 152,298 152,293 153,291 153,287 152,284 153,283 156,285 155,283 153,282 155,279 154,275 163,272 171,275 170,276 171,277 173,277 174,278 174,278 173,277 170,276 171,275 171,274 167,273 163,271 161,271 160,272 155,273 153,274 149,280 148,279 149,277 146,280 148,286 149,287 148,288 143,285 138,275 135,262 134,258 136,259 135,260 136,261 138,257 135,257 136,256 135,257 134,255 134,258 133,253 133,248 135,242 140,233 138,229 137,219 135,211 134,208 136,205 131,200 145,198 140,198 142,197 139,198 133,197 134,196 134,196 130,197 127,199 127,198 127,202 129,203 127,203 121,199 117,193 113,184 110,180 105,175 107,173 108,176 110,176 113,174 112,174 109,175 110,174 108,173 103,173 101,169 98,165 108,162 113,161 110,158 111,156 118,157 119,156 121,155 120,154 115,154 117,152 115,151 118,150 119,148 117,146 117,144 120,145 122,144 125,147 126,146 129,148 135,147 133,148 134,152 141,149 143,150 146,150 146,148 147,148 151,149 151,151 159,149 164,149 166,147 170,147 172,148 177,148 185,142 186,142 189,141 192,142 191,143 194,145 193,147 195,149 202,147 205,147 205,148 207,149 216,146 218,144 223,144 224,145 221,147 223,150 226,151 223,154 230,150 239,146 241,147 239,149 243,149 246,149 246,153 248,153 253,153 254,154 257,158 255,160 252,159 247,160 244,163 238,165 235,165 232,166 231,168 230,171 232,176 235,177 237,177 239,178 239,179 237,181 238,182 233,182 233,186 231,188 229,190 230,191 233,191 234,192 235,198 227,204 229,206 232,206 234,209 238,209 241,208 243,209 248,207 253,207 254,206 256,206 257,204 264,201 266,199 269,199 271,200 268,203 264,205 265,207 262,210 263,211 263,217 263,219 260,221 260,223 255,224 255,227 252,230 255,231 257,229 260,229 262,233 267,234 266,236 265,237 264,240 264,242 271,245 263,253 271,251 265,259 268,261 267,261 269,263 270,263 271,265 278,270 281,269 281,271 277,273 277,280 282,279 283,280 288,280 289,292 278,295 284,299 289,301 287,305 287,307 290,308 290,310 283,315 276,316 273,316 271,317 269,317 267,319 272,319 272,323 271,324 276,326 275,328 276,331 274,332 267,332 265,333 265,335 261,333 263,336 263,338 261,338 262,342 260,343 257,344 249,348 246,347 244,350 240,350 235,350 233,348 231,348 232,346 231,345 229,346 225,346 218,344 215,347 209,349 210,352 209,352 206,354 203,353 200,352 196,353 194,351 197,348 198,346 200,346 199,343 197,343 195,342 190,343 184,345 175,344 174,344 171,345 171,348 161,349 160,345 155,345 153,343 152,343 146,340" id="503" class="arrondissement" fill="steelblue" stroke-width="1" stroke="white" geotype="arrondissement" geoname="COUTANCES" code_insee="503" code_departement="50" code_region_2015="25"/><polygon points="235,350 240,350 244,350 246,347 249,348 257,344 260,343 262,342 261,338 263,338 263,336 261,333 265,335 265,333 267,332 274,332 276,331 275,328 276,326 271,324 272,323 272,319 267,319 269,317 271,317 273,316 276,316 283,315 290,310 290,308 287,307 287,305 289,301 284,299 278,295 289,292 288,280 283,280 282,279 277,280 277,273 281,271 281,269 278,270 271,265 270,263 269,263 267,261 268,261 265,259 271,251 263,253 271,245 264,242 264,240 265,237 266,236 267,234 262,233 260,229 257,229 255,231 252,230 255,227 255,224 260,223 260,221 263,219 263,217 263,211 262,210 265,207 264,205 268,203 271,200 269,199 266,199 264,201 257,204 256,206 254,206 253,207 248,207 243,209 241,208 238,209 234,209 232,206 229,206 227,204 235,198 234,192 233,191 230,191 229,190 231,188 233,186 233,182 238,182 237,181 239,179 239,178 237,177 235,177 232,176 230,171 231,168 232,166 235,165 238,165 244,163 247,160 252,159 255,160 257,158 254,154 256,152 257,152 259,151 265,151 265,149 289,154 289,156 291,155 294,154 300,152 307,144 310,145 318,142 320,145 319,147 327,150 329,157 318,164 318,169 319,171 320,174 323,174 326,176 325,178 320,176 321,178 320,180 323,181 324,179 325,182 329,183 328,183 332,186 334,187 335,186 337,190 339,189 339,191 341,192 342,194 348,196 350,197 353,196 354,199 358,199 360,199 359,201 361,201 360,202 363,203 364,206 370,205 370,207 374,207 378,208 378,210 383,211 386,208 391,207 392,205 396,203 394,201 396,200 398,201 399,201 400,200 401,198 400,197 400,196 403,196 402,195 404,195 402,196 403,198 409,203 412,206 413,207 417,206 417,206 407,211 406,212 409,212 408,213 411,213 406,213 407,215 404,216 402,221 398,223 395,222 393,220 391,221 389,222 400,224 396,226 397,227 401,229 403,229 404,230 409,231 411,233 410,234 414,234 418,235 416,238 412,239 409,242 407,241 403,246 416,239 417,240 421,240 421,244 421,245 422,248 420,251 424,255 424,257 424,259 424,261 422,264 416,267 416,268 418,271 423,270 425,271 425,273 427,272 427,276 424,275 418,277 414,282 413,282 412,281 410,281 409,287 406,290 395,299 391,299 387,302 377,305 374,306 370,304 365,304 362,301 357,302 354,301 353,303 351,302 350,304 352,306 345,307 348,308 348,310 346,312 348,312 348,313 344,314 343,317 347,318 352,316 357,317 365,314 366,315 365,316 368,317 368,320 364,324 354,328 352,330 350,334 348,335 346,337 344,337 343,338 342,337 339,336 337,333 334,335 335,337 332,339 328,340 326,342 325,346 322,345 318,348 317,350 314,351 311,350 311,351 308,352 304,355 303,358 299,361 305,365 300,369 300,371 299,372 294,372 291,371 288,370 286,371 285,372 281,373 272,374 270,376 266,376 265,372 259,373 258,372 252,370 249,368 252,367 255,364 255,362 252,364 246,366 245,364 248,362 248,360 247,359 245,359 244,357 242,357 238,355 239,353 237,353 237,352 236,352 234,351 235,350" id="504" class="arrondissement" fill="steelblue" stroke-width="1" stroke="white" geotype="arrondissement" geoname="SAINT-LO" code_insee="504" code_departement="50" code_region_2015="25"/></svg>