<?xml version="1.0" encoding="utf-8"?>
<svg version="1.1" id="svgmap" xmlns="http://www.w3.org/2000/svg" xmlns:xlink="http://www.w3.org/1999/xlink" x="0px" y="0px" width="100%" height="100%" viewBox="0 0 500 303">
<polygon points="348,259 348,259 351,255 350,253 349,255 344,254 340,255 335,254 333,253 335,252 335,251 338,250 338,248 340,249 342,248 346,249 346,248 354,247 355,246 352,245 350,242 351,241 350,239 354,238 349,234 349,233 350,232 350,230 347,228 348,225 348,224 344,226 332,224 331,223 330,220 330,218 331,216 331,213 332,209 325,206 328,203 327,202 327,200 330,200 335,197 335,193 336,194 338,194 340,196 340,195 342,193 341,189 342,191 346,192 346,193 350,193 353,195 356,195 355,193 358,188 361,188 362,184 364,186 367,186 369,189 371,189 373,191 377,191 378,192 381,192 379,190 380,188 379,186 378,181 376,180 378,177 378,177 376,176 377,174 377,173 381,174 383,172 390,172 391,173 396,172 399,173 401,175 401,179 406,180 405,176 401,175 406,172 405,167 407,166 409,167 417,169 420,167 421,164 425,161 427,159 429,160 429,160 430,160 431,163 432,165 434,166 436,166 435,168 436,171 437,172 434,174 435,177 440,182 444,188 448,191 448,194 449,195 454,197 460,198 461,198 461,201 463,201 467,204 471,206 476,206 476,208 483,212 486,214 487,217 490,219 488,223 488,225 490,227 490,228 492,231 492,232 493,236 494,237 496,237 500,238 499,241 500,241 499,242 495,244 494,246 494,247 496,249 495,252 497,253 494,253 494,254 492,254 493,256 493,257 489,258 488,258 487,259 484,259 483,260 479,260 479,261 477,261 476,262 476,264 474,264 474,265 473,265 473,266 470,270 471,273 472,273 470,274 471,275 470,277 472,279 471,280 472,282 471,282 468,282 465,282 461,280 459,281 456,277 453,279 453,276 454,276 453,273 449,274 448,273 443,271 442,271 440,273 439,273 439,275 437,277 439,279 438,280 439,280 439,282 435,282 436,283 433,284 429,281 428,282 425,282 423,283 421,282 420,280 418,281 416,280 413,280 410,281 409,279 413,278 413,276 410,277 407,276 408,274 405,275 406,274 404,273 402,274 401,273 400,275 399,280 396,281 393,281 393,283 392,284 388,287 385,288 382,286 380,283 376,281 374,278 375,276 373,273 370,267 368,269 366,271 365,269 358,267 357,269 356,266 355,267 350,264 348,259" id="631" class="arrondissement" fill="steelblue" stroke-width="1" stroke="white" geotype="arrondissement" geoname="AMBERT" code_insee="631" code_departement="63" code_region_2015="83"/><polygon points="40,220 35,220 34,219 32,217 32,215 29,214 29,214 26,212 27,211 23,207 24,205 28,203 29,194 31,192 33,194 34,193 36,193 39,193 41,193 41,191 44,187 43,188 41,187 41,186 40,185 39,183 40,181 42,181 44,180 42,178 43,176 42,176 41,175 41,172 42,171 40,170 38,167 37,166 32,162 32,161 30,159 27,160 25,156 22,156 21,155 27,154 28,153 33,153 39,152 37,151 38,151 40,150 41,147 43,147 48,144 50,144 51,144 51,146 53,147 56,147 56,145 59,146 64,147 69,150 79,151 82,149 91,147 93,147 94,151 97,152 98,148 99,149 99,149 102,150 102,148 103,147 107,150 111,146 111,144 116,146 119,144 121,143 126,143 128,143 129,141 131,141 131,142 132,143 130,144 131,145 130,145 128,150 131,150 132,151 137,152 139,153 140,151 141,152 146,150 145,144 143,143 148,143 148,141 150,142 152,142 151,140 152,139 160,140 164,142 170,143 174,141 177,139 181,138 178,133 179,131 181,132 185,130 192,132 195,131 193,129 195,126 198,126 200,126 204,126 205,129 205,130 208,130 214,129 218,130 235,128 235,128 240,127 243,128 243,128 243,129 245,130 246,131 250,132 249,134 251,135 254,135 254,134 257,127 267,127 268,125 269,127 272,128 273,130 276,129 276,127 286,130 288,130 288,133 288,134 289,134 289,135 291,135 291,136 292,140 290,143 291,145 295,144 296,145 299,145 306,144 309,146 312,144 311,143 313,140 314,141 317,141 321,141 323,142 334,145 335,146 339,145 341,146 338,148 337,151 337,152 335,157 336,160 338,160 338,161 344,162 346,161 348,163 349,164 351,164 353,165 355,164 357,165 357,167 359,168 357,169 359,170 360,172 364,173 366,175 368,174 373,174 375,174 375,172 377,174 376,176 378,177 378,177 376,180 378,181 379,186 380,188 379,190 381,192 378,192 377,191 373,191 371,189 369,189 367,186 364,186 362,184 361,188 358,188 355,193 356,195 353,195 350,193 346,193 346,192 342,191 341,189 342,193 340,195 340,196 338,194 336,194 335,193 335,197 330,200 327,200 326,200 325,199 320,197 319,198 317,198 316,196 314,196 314,198 310,201 312,204 309,207 305,209 304,210 300,212 296,209 297,206 293,204 294,201 292,200 292,198 286,197 284,197 282,196 281,197 281,199 283,199 284,201 282,201 282,200 279,203 278,203 276,203 272,209 269,209 264,207 260,205 260,204 262,203 260,202 259,202 258,200 259,198 261,197 260,196 258,195 254,195 249,199 248,201 238,206 232,203 233,203 231,201 230,198 229,197 226,199 218,196 216,197 213,199 213,201 214,202 206,204 206,203 203,203 201,203 200,201 198,200 198,199 197,199 197,197 191,198 189,198 187,198 185,203 184,203 179,203 179,204 179,205 180,206 177,206 176,208 170,207 169,206 169,205 166,205 166,205 162,205 161,206 156,203 154,204 148,204 145,204 144,203 140,205 142,205 142,207 143,208 143,211 141,212 143,214 141,214 140,217 138,218 139,220 138,221 139,222 139,225 137,227 133,228 129,226 129,225 129,223 128,223 125,221 126,219 122,217 119,216 117,218 115,218 114,216 114,217 111,216 107,213 104,213 105,210 101,210 102,208 103,207 102,207 103,207 106,206 104,205 103,204 106,205 109,203 108,202 108,202 111,202 112,201 116,201 119,200 117,198 113,198 112,196 106,194 104,196 102,195 102,194 103,193 102,192 100,192 98,192 97,191 96,189 93,189 92,190 87,190 90,193 88,194 83,194 80,195 82,196 82,198 75,198 74,199 70,200 64,203 63,202 58,204 52,208 50,210 46,212 44,214 44,216 41,218 41,219 40,220" id="632" class="arrondissement" fill="steelblue" stroke-width="1" stroke="white" geotype="arrondissement" geoname="CLERMONT-FERRAND" code_insee="632" code_departement="63" code_region_2015="83"/><polygon points="102,274 98,271 99,268 98,268 96,269 94,267 96,266 91,266 91,261 94,259 94,256 91,256 91,255 90,256 88,256 86,257 82,255 78,254 74,254 74,247 72,246 71,246 72,248 67,252 64,252 63,253 62,252 62,251 58,251 58,249 57,249 57,248 56,248 54,248 54,249 52,249 52,248 49,248 48,250 46,250 49,243 46,243 41,242 38,244 37,242 39,239 38,237 38,235 39,233 40,231 41,231 40,231 41,230 39,229 40,228 42,227 40,224 41,223 40,221 40,220 41,219 41,218 44,216 44,214 46,212 50,210 52,208 58,204 63,202 64,203 70,200 74,199 75,198 82,198 82,196 80,195 83,194 88,194 90,193 87,190 92,190 93,189 96,189 97,191 98,192 100,192 102,192 103,193 102,194 102,195 104,196 106,194 112,196 113,198 117,198 119,200 116,201 112,201 111,202 108,202 108,202 109,203 106,205 103,204 104,205 106,206 103,207 102,207 103,207 102,208 101,210 105,210 104,213 107,213 111,216 114,217 114,216 115,218 117,218 119,216 122,217 126,219 125,221 128,223 129,223 129,225 129,226 133,228 137,227 139,225 139,222 138,221 139,220 138,218 140,217 141,214 143,214 141,212 143,211 143,208 142,207 142,205 140,205 144,203 145,204 148,204 154,204 156,203 161,206 162,205 166,205 166,205 169,205 169,206 170,207 176,208 177,206 180,206 179,205 179,204 179,203 184,203 185,203 187,198 189,198 191,198 197,197 197,199 198,199 198,200 200,201 201,203 203,203 206,203 206,204 214,202 213,201 213,199 216,197 218,196 226,199 229,197 230,198 231,201 233,203 232,203 238,206 248,201 249,199 254,195 258,195 260,196 261,197 259,198 258,200 259,202 260,202 262,203 260,204 260,205 264,207 269,209 272,209 276,203 278,203 279,203 282,200 282,201 284,201 283,199 281,199 281,197 282,196 284,197 286,197 292,198 292,200 294,201 293,204 297,206 296,209 300,212 304,210 305,209 309,207 312,204 310,201 314,198 314,196 316,196 317,198 319,198 320,197 325,199 326,200 327,200 327,202 328,203 325,206 332,209 331,213 331,216 330,218 330,220 331,223 332,224 344,226 348,224 348,225 347,228 350,230 350,232 349,233 349,234 354,238 350,239 351,241 350,242 352,245 355,246 354,247 346,248 346,249 342,248 340,249 338,248 338,250 335,251 335,252 333,253 335,254 340,255 344,254 349,255 350,253 351,255 348,259 348,259 342,261 341,263 338,264 336,266 336,267 334,268 332,267 328,268 326,267 325,267 323,269 323,268 321,268 319,267 318,268 316,268 314,267 312,267 311,268 306,264 303,261 301,262 298,261 299,263 296,266 296,269 295,269 294,268 293,269 293,266 292,266 292,264 290,264 289,262 287,262 284,262 283,266 281,268 276,270 273,271 271,272 267,271 267,270 265,270 265,271 261,274 260,278 259,277 258,278 257,277 252,278 252,280 248,279 246,282 248,283 239,283 236,284 235,282 232,283 230,284 229,283 224,282 222,283 220,285 220,286 219,287 217,288 214,288 213,289 210,290 211,290 211,292 212,293 212,295 210,295 209,296 210,297 205,300 203,300 198,301 198,303 197,303 191,302 191,301 182,297 180,297 179,296 175,296 172,291 171,291 168,285 168,284 167,280 167,278 164,279 160,277 160,275 158,275 155,273 152,274 152,276 147,273 147,272 145,271 145,270 141,270 138,271 136,271 137,269 136,268 133,268 130,270 128,270 124,271 124,273 123,272 117,272 113,271 111,270 106,271 102,274" id="633" class="arrondissement" fill="steelblue" stroke-width="1" stroke="white" geotype="arrondissement" geoname="ISSOIRE" code_insee="633" code_departement="63" code_region_2015="83"/><polygon points="276,127 276,129 273,130 272,128 269,127 268,125 267,127 257,127 254,134 254,135 251,135 249,134 250,132 246,131 245,130 243,129 243,128 243,128 240,127 235,128 235,128 218,130 214,129 208,130 205,130 205,129 204,126 200,126 198,126 195,126 193,129 195,131 192,132 185,130 181,132 179,131 178,133 181,138 177,139 174,141 170,143 164,142 160,140 152,139 151,140 152,142 150,142 148,141 148,143 143,143 145,144 146,150 141,152 140,151 139,153 137,152 132,151 131,150 128,150 130,145 131,145 130,144 132,143 131,142 131,141 129,141 128,143 126,143 121,143 119,144 116,146 111,144 111,146 107,150 103,147 102,148 102,150 99,149 99,149 98,148 97,152 94,151 93,147 91,147 82,149 79,151 69,150 64,147 59,146 56,145 56,147 53,147 51,146 51,144 50,144 48,144 43,147 41,147 40,150 38,151 37,151 39,152 33,153 28,153 27,154 21,155 20,155 20,156 18,156 14,152 13,146 12,146 12,145 11,144 8,142 8,140 6,140 6,139 0,135 0,134 5,131 11,132 13,132 14,131 15,128 19,128 19,126 17,125 17,122 24,122 24,120 28,121 29,123 33,123 32,122 35,120 36,118 36,115 39,116 40,115 43,113 43,112 47,111 48,111 48,109 50,109 52,108 52,107 49,107 48,105 49,102 52,100 51,99 57,97 55,94 61,92 63,93 68,91 70,88 65,84 64,81 65,79 67,77 66,75 67,74 66,71 67,70 57,65 55,60 53,59 51,53 51,51 51,49 50,45 51,44 51,43 53,41 52,41 53,40 53,39 54,39 54,37 55,37 55,35 56,35 58,36 64,40 67,39 70,40 72,42 73,41 74,42 75,41 77,43 81,42 84,41 84,38 86,37 86,36 86,36 88,35 88,34 88,31 89,32 90,31 90,26 93,25 95,25 99,24 102,24 105,23 104,22 108,19 106,18 106,16 105,16 104,14 106,13 108,10 113,12 117,15 119,14 125,18 131,19 132,19 132,19 134,17 134,12 136,11 136,9 134,8 135,5 137,4 141,2 143,2 148,0 149,2 151,1 158,1 162,2 168,2 172,4 175,5 171,6 170,7 171,10 173,10 172,11 168,12 165,13 165,15 163,17 167,20 166,22 167,23 164,24 165,26 168,26 174,28 176,27 177,27 176,27 178,29 178,36 180,40 183,42 184,41 189,41 195,44 196,47 196,48 200,48 204,47 206,49 210,48 212,48 220,44 220,47 223,51 222,53 223,54 227,55 229,56 232,58 233,59 242,60 248,59 248,57 249,57 256,57 259,57 261,59 262,58 264,58 263,60 267,61 270,61 272,60 278,61 280,59 284,61 286,60 286,61 291,61 291,61 291,62 290,62 296,63 295,66 297,66 298,66 298,65 303,64 308,63 311,60 314,60 317,60 323,57 325,60 327,61 330,62 333,60 335,61 335,62 336,62 337,65 339,67 338,68 336,68 338,73 337,74 337,78 340,77 341,79 337,79 336,81 335,80 334,81 329,82 327,85 325,86 319,85 319,86 314,85 313,87 310,86 310,87 305,89 303,90 303,93 296,94 295,95 295,98 294,100 292,101 288,101 288,102 290,103 289,106 287,106 288,109 290,109 288,112 287,116 281,117 280,119 278,119 278,121 276,122 276,127" id="634" class="arrondissement" fill="steelblue" stroke-width="1" stroke="white" geotype="arrondissement" geoname="RIOM" code_insee="634" code_departement="63" code_region_2015="83"/><polygon points="276,127 276,122 278,121 278,119 280,119 281,117 287,116 288,112 290,109 288,109 287,106 289,106 290,103 288,102 288,101 292,101 294,100 295,98 295,95 296,94 303,93 303,90 305,89 310,87 310,86 313,87 314,85 319,86 319,85 325,86 327,85 329,82 334,81 335,80 336,81 337,79 341,79 340,77 343,76 348,76 350,75 351,76 353,75 356,77 355,74 359,73 362,76 363,75 364,75 366,74 372,75 376,73 377,73 378,75 379,75 380,78 383,80 383,81 387,85 389,92 392,91 394,92 400,92 403,93 405,96 403,96 405,99 409,102 418,105 420,107 423,109 428,116 425,116 426,117 423,120 422,120 422,121 415,121 417,124 418,124 418,124 420,123 419,126 417,127 417,127 417,129 418,129 420,133 418,135 416,137 417,139 415,142 407,146 411,149 414,148 415,149 417,149 421,151 423,153 421,155 420,155 419,157 420,157 421,158 423,159 425,161 421,164 420,167 417,169 409,167 407,166 405,167 406,172 401,175 405,176 406,180 401,179 401,175 399,173 396,172 391,173 390,172 383,172 381,174 377,173 377,174 375,172 375,174 373,174 368,174 366,175 364,173 360,172 359,170 357,169 359,168 357,167 357,165 355,164 353,165 351,164 349,164 348,163 346,161 344,162 338,161 338,160 336,160 335,157 337,152 337,151 338,148 341,146 339,145 335,146 334,145 323,142 321,141 317,141 314,141 313,140 311,143 312,144 309,146 306,144 299,145 296,145 295,144 291,145 290,143 292,140 291,136 291,135 289,135 289,134 288,134 288,133 288,130 286,130 276,127" id="635" class="arrondissement" fill="steelblue" stroke-width="1" stroke="white" geotype="arrondissement" geoname="THIERS" code_insee="635" code_departement="63" code_region_2015="83"/></svg>