<?xml version="1.0" encoding="utf-8"?>
<svg version="1.1" id="svgmap" xmlns="http://www.w3.org/2000/svg" xmlns:xlink="http://www.w3.org/1999/xlink" x="0px" y="0px" width="100%" height="100%" viewBox="0 0 500 201">
<polygon points="205,170 209,169 224,164 227,162 229,161 236,156 239,154 246,149 251,148 253,146 255,146 256,144 264,142 273,144 282,141 283,139 286,139 285,134 287,129 285,128 287,123 288,122 291,122 291,124 293,123 297,125 300,125 298,127 300,127 300,128 301,129 305,130 306,128 308,128 310,129 314,128 316,129 318,131 320,130 319,123 323,121 328,120 336,118 340,117 341,114 340,112 342,112 344,112 343,111 343,111 346,110 345,111 347,112 352,112 353,112 353,117 350,117 347,122 346,124 344,124 345,126 344,129 346,133 350,134 354,131 355,130 361,129 365,127 368,130 370,129 372,130 372,129 374,130 375,127 385,129 388,132 391,131 395,128 393,127 389,127 387,124 388,122 384,117 387,116 388,115 394,118 397,116 399,117 401,124 403,123 406,125 409,122 408,120 411,119 417,120 418,119 420,115 431,115 443,114 445,112 454,112 457,128 460,132 465,132 469,134 468,136 470,135 473,136 476,135 478,136 476,137 476,138 480,137 479,136 487,138 484,139 485,140 481,142 483,144 486,144 484,145 485,147 483,148 484,149 484,150 485,151 486,150 492,152 492,154 495,156 493,157 496,159 494,160 497,162 496,164 499,164 500,164 498,165 499,166 492,166 489,167 486,166 481,166 480,165 476,166 473,169 468,169 466,167 465,166 463,166 462,164 459,162 455,158 453,153 450,152 443,155 438,153 435,153 433,153 432,155 428,156 426,153 421,150 416,152 413,156 413,158 411,159 406,159 401,157 400,158 394,155 392,156 391,159 390,160 385,158 384,158 381,160 382,162 379,165 375,164 374,167 372,167 370,172 365,172 363,174 360,174 357,172 356,170 354,169 345,170 344,170 333,176 329,176 327,177 326,183 319,183 322,185 323,188 322,190 327,193 327,198 326,198 322,198 319,197 313,197 313,197 305,196 296,193 288,193 286,194 285,198 282,199 282,201 278,201 273,200 267,198 261,199 259,196 256,192 252,191 252,188 249,189 245,187 244,180 235,181 228,178 219,177 215,175 213,172 207,172 205,170" id="661" class="arrondissement" fill="steelblue" stroke-width="1" stroke="white" geotype="arrondissement" geoname="CERET" code_insee="661" code_departement="66" code_region_2015="91"/><polygon points="328,120 324,119 320,112 315,112 313,114 308,111 307,109 306,109 307,108 309,109 311,107 313,107 313,103 311,102 310,99 310,98 314,97 315,98 318,97 317,95 319,93 319,87 326,84 326,83 322,83 318,80 318,78 316,78 317,77 314,75 314,73 310,73 306,75 301,73 295,70 292,67 283,67 277,69 274,68 278,64 281,63 283,60 282,57 275,58 271,57 270,58 269,57 268,50 259,49 248,46 247,49 243,50 241,53 236,56 235,58 230,57 225,59 217,58 216,55 216,53 213,50 214,48 213,40 210,40 210,34 209,33 205,32 206,30 208,31 207,29 211,27 223,25 227,24 233,26 248,28 252,28 254,27 258,27 267,23 270,23 272,25 273,26 287,25 292,26 303,28 315,28 324,28 329,30 337,30 340,28 342,29 349,29 354,23 358,15 367,8 374,7 377,6 384,2 393,0 397,3 399,6 407,8 410,12 418,14 431,17 434,18 443,22 454,28 452,48 452,60 453,67 452,73 454,74 452,75 451,82 451,95 452,101 453,102 454,109 454,112 445,112 443,114 431,115 420,115 418,119 417,120 411,119 408,120 409,122 406,125 403,123 401,124 399,117 397,116 394,118 388,115 387,116 384,117 388,122 387,124 389,127 393,127 395,128 391,131 388,132 385,129 375,127 374,130 372,129 372,130 370,129 368,130 365,127 361,129 355,130 354,131 350,134 346,133 344,129 345,126 344,124 346,124 347,122 350,117 353,117 353,112 352,112 347,112 345,111 346,110 343,111 343,111 344,112 342,112 340,112 341,114 340,117 336,118 328,120" id="662" class="arrondissement" fill="steelblue" stroke-width="1" stroke="white" geotype="arrondissement" geoname="PERPIGNAN" code_insee="662" code_departement="66" code_region_2015="91"/><polygon points="328,120 323,121 319,123 320,130 318,131 316,129 314,128 310,129 308,128 306,128 305,130 301,129 300,128 300,127 298,127 300,125 297,125 293,123 291,124 291,122 288,122 287,123 285,128 287,129 285,134 286,139 283,139 282,141 273,144 264,142 256,144 255,146 253,146 251,148 246,149 239,154 236,156 229,161 227,162 224,164 209,169 205,170 201,168 198,170 195,170 193,168 191,168 188,166 187,167 183,165 180,168 172,169 165,172 158,172 153,170 152,170 149,170 141,173 138,175 137,179 135,180 135,184 126,187 124,191 123,190 120,190 115,193 107,193 103,193 101,196 100,194 95,193 93,192 92,192 88,188 86,187 83,184 83,182 82,180 82,177 80,175 81,170 75,168 76,163 73,159 67,162 61,161 60,162 56,161 54,158 49,155 47,157 43,155 42,153 35,148 32,150 28,147 24,149 17,148 14,148 8,145 3,146 1,138 0,138 2,137 3,136 5,127 9,122 16,121 22,118 27,119 35,116 39,115 44,115 45,116 47,115 49,117 52,116 54,113 56,113 59,111 59,108 60,107 61,104 63,106 65,107 70,106 73,108 76,107 76,105 78,103 86,103 92,93 94,89 96,88 98,89 100,89 100,90 101,91 105,91 110,90 113,88 116,88 120,86 123,87 125,86 130,87 139,84 145,88 152,88 156,91 156,93 161,92 161,89 172,84 179,82 183,76 186,74 186,72 191,74 195,75 206,72 214,66 218,66 218,64 217,58 225,59 230,57 235,58 236,56 241,53 243,50 247,49 248,46 259,49 268,50 269,57 270,58 271,57 275,58 282,57 283,60 281,63 278,64 274,68 277,69 283,67 292,67 295,70 301,73 306,75 310,73 314,73 314,75 317,77 316,78 318,78 318,80 322,83 326,83 326,84 319,87 319,93 317,95 318,97 315,98 314,97 310,98 310,99 311,102 313,103 313,107 311,107 309,109 307,108 306,109 307,109 308,111 313,114 315,112 320,112 324,119 328,120" id="663" class="arrondissement" fill="steelblue" stroke-width="1" stroke="white" geotype="arrondissement" geoname="PRADES" code_insee="663" code_departement="66" code_region_2015="91"/></svg>