<?xml version="1.0" encoding="utf-8"?>
<svg version="1.1" id="svgmap" xmlns="http://www.w3.org/2000/svg" xmlns:xlink="http://www.w3.org/1999/xlink" x="0px" y="0px" width="100%" height="100%" viewBox="0 0 500 428">
<polygon points="85,72 73,60 74,59 80,59 79,57 81,57 81,54 79,50 77,51 76,48 74,48 74,47 76,47 74,45 69,46 67,44 65,44 65,45 63,45 62,43 61,43 61,40 66,41 74,38 76,34 79,30 87,30 82,28 83,26 78,27 77,25 82,21 85,16 88,16 91,13 93,10 97,10 99,10 99,7 102,6 103,4 105,5 104,7 107,8 111,7 114,9 115,9 116,10 120,11 123,14 130,18 128,20 128,22 133,23 141,18 140,17 142,16 143,18 145,18 146,20 147,25 155,24 158,23 169,18 161,15 170,15 168,12 171,12 179,9 184,14 189,15 194,14 199,20 205,20 212,16 215,17 218,14 228,17 232,16 234,17 236,17 237,13 242,14 246,11 248,12 247,14 249,14 250,18 251,20 256,20 257,14 261,12 262,12 263,13 264,11 274,14 275,13 282,14 286,13 289,14 284,9 285,7 291,0 295,2 301,3 303,4 310,5 313,4 314,5 319,4 324,7 331,8 326,15 329,16 332,17 336,20 339,24 338,26 339,28 342,28 342,31 338,31 339,33 337,34 336,38 331,39 330,40 331,42 332,42 333,43 332,45 338,45 343,47 346,47 345,48 346,48 348,50 349,50 350,53 357,54 357,56 359,55 358,58 360,58 360,60 363,60 368,62 370,67 372,70 371,71 373,72 373,73 372,74 374,77 377,77 380,76 391,72 395,79 395,84 389,92 387,93 384,92 382,92 377,90 371,90 369,92 365,91 363,89 355,88 349,87 350,85 352,84 354,80 342,75 336,77 336,79 333,80 334,80 337,81 336,82 328,83 329,86 328,87 327,90 325,89 323,90 319,89 321,92 320,93 316,96 317,96 318,99 320,99 315,101 315,103 313,101 313,103 312,103 312,106 314,106 307,106 308,109 309,112 311,112 315,118 313,119 314,120 315,121 319,120 322,122 323,120 328,121 330,120 331,120 331,121 333,122 333,124 331,125 331,124 331,128 332,128 330,141 317,142 320,148 325,152 321,155 317,156 317,154 312,153 307,165 299,165 299,167 297,166 297,169 290,167 288,168 287,167 287,165 283,165 282,163 282,159 276,158 276,157 269,158 266,157 263,154 257,151 253,147 249,148 245,143 241,143 241,145 238,144 235,145 233,144 232,142 233,135 231,135 232,128 231,127 225,125 226,121 221,119 214,120 212,123 214,124 210,125 207,130 203,128 199,124 198,123 196,123 194,124 192,122 192,118 185,119 189,115 187,115 190,111 190,110 186,110 188,107 185,107 185,105 187,103 187,102 186,102 176,103 180,99 178,99 178,95 176,96 175,90 175,89 177,90 179,88 178,87 177,86 176,79 171,81 169,81 165,85 163,83 159,85 154,83 150,84 142,75 137,75 138,74 141,73 142,68 142,68 136,70 127,69 126,71 123,71 121,69 112,69 108,70 97,71 96,69 85,72" id="771" class="arrondissement" fill="steelblue" stroke-width="1" stroke="white" geotype="arrondissement" geoname="MEAUX" code_insee="771" code_departement="77" code_region_2015="11"/><polygon points="216,297 213,296 211,293 209,295 206,294 205,297 196,296 196,298 189,297 184,297 182,287 179,286 172,287 171,286 169,286 169,283 165,283 162,281 163,279 160,274 157,272 153,271 151,270 140,271 130,273 124,272 121,270 121,270 117,264 115,264 116,270 107,267 104,266 102,269 107,275 106,276 109,278 109,280 103,280 104,282 102,282 102,284 99,286 98,288 89,291 88,293 87,300 78,314 66,309 66,307 58,301 53,296 48,295 49,291 46,290 49,288 48,287 49,286 45,283 46,282 49,281 47,279 49,278 47,277 48,276 47,274 48,274 47,271 51,270 51,267 52,261 50,261 50,258 45,257 45,253 47,253 48,251 47,250 49,249 51,246 46,246 46,245 47,245 55,238 54,235 59,234 60,233 56,233 54,229 61,227 64,223 64,218 64,217 57,216 58,213 53,209 55,208 58,208 64,208 64,202 67,201 60,197 63,196 61,195 67,191 68,192 71,189 73,193 76,193 77,192 77,190 82,189 80,185 81,184 77,183 76,181 81,180 78,179 76,176 75,175 77,173 78,174 80,169 81,170 85,166 87,165 87,163 83,161 85,159 87,159 90,156 88,153 90,154 95,153 100,150 103,150 102,149 107,150 105,152 108,152 111,154 108,155 110,158 116,156 118,156 121,160 125,159 132,158 133,158 138,153 136,147 138,147 145,145 147,144 144,137 146,136 145,135 148,134 152,135 154,130 156,129 156,131 157,133 159,134 165,132 173,139 176,145 180,148 180,149 176,151 173,155 180,158 182,164 191,164 196,166 195,169 191,176 188,176 182,180 184,182 181,186 186,186 190,188 187,190 189,191 190,189 194,189 196,185 201,187 211,186 216,187 217,190 218,193 221,196 224,200 227,198 230,199 230,204 225,207 230,211 237,208 243,209 243,211 245,212 247,212 247,211 250,212 255,211 258,212 254,213 258,219 259,219 260,217 264,216 271,216 270,217 276,219 276,220 277,223 276,225 275,229 272,228 274,231 269,233 269,234 264,234 260,234 261,235 259,234 253,236 252,237 249,237 249,240 248,240 245,252 240,253 239,255 231,257 232,259 229,261 229,264 234,264 233,270 236,277 241,279 243,278 245,281 246,292 243,290 242,287 237,290 234,289 229,293 228,294 223,297 220,293 216,297" id="772" class="arrondissement" fill="steelblue" stroke-width="1" stroke="white" geotype="arrondissement" geoname="MELUN" code_insee="772" code_departement="77" code_region_2015="11"/><polygon points="267,348 264,347 265,340 263,337 255,340 247,341 248,345 246,345 244,341 243,341 238,337 238,335 234,336 234,326 232,328 229,326 224,329 223,326 221,326 221,324 218,324 213,324 213,327 208,327 200,324 199,323 200,322 197,319 198,319 195,317 196,316 198,317 201,315 209,312 208,308 211,307 210,303 215,302 216,297 220,293 223,297 228,294 229,293 234,289 237,290 242,287 243,290 246,292 245,281 243,278 241,279 236,277 233,270 234,264 229,264 229,261 232,259 231,257 239,255 240,253 245,252 248,240 249,240 249,237 252,237 253,236 259,234 261,235 260,234 264,234 269,234 269,233 274,231 272,228 275,229 276,225 277,223 276,220 276,219 270,217 271,216 264,216 260,217 259,219 258,219 254,213 258,212 255,211 250,212 247,211 247,212 245,212 243,211 243,209 237,208 230,211 225,207 230,204 230,199 227,198 224,200 221,196 218,193 217,190 216,187 211,186 201,187 196,185 194,189 190,189 189,191 187,190 190,188 186,186 181,186 184,182 182,180 188,176 191,176 195,169 196,166 191,164 182,164 180,158 173,155 176,151 180,149 180,148 176,145 173,139 165,132 162,127 169,125 168,124 171,123 171,124 174,123 175,124 176,124 176,124 179,123 181,122 183,124 187,123 191,123 192,122 194,124 196,123 198,123 199,124 203,128 207,130 210,125 214,124 212,123 214,120 221,119 226,121 225,125 231,127 232,128 231,135 233,135 232,142 233,144 235,145 238,144 241,145 241,143 245,143 249,148 253,147 257,151 263,154 266,157 269,158 276,157 276,158 282,159 282,163 283,165 287,165 287,167 288,168 290,167 297,169 297,166 299,167 299,165 307,165 312,153 317,154 317,156 321,155 325,152 320,148 317,142 330,141 332,128 331,128 331,124 331,125 333,124 333,122 331,121 331,120 330,120 328,121 323,120 322,122 319,120 315,121 314,120 313,119 315,118 311,112 309,112 308,109 307,106 314,106 312,106 312,103 313,103 313,101 315,103 315,101 320,99 318,99 317,96 316,96 320,93 321,92 319,89 323,90 325,89 327,90 328,87 329,86 328,83 336,82 337,81 334,80 333,80 336,79 336,77 342,75 354,80 352,84 350,85 349,87 355,88 363,89 365,91 369,92 371,90 377,90 382,92 384,92 387,93 389,92 395,84 402,90 405,89 409,86 410,87 411,86 412,87 416,85 418,84 418,81 420,83 420,86 422,89 419,91 419,96 425,99 424,99 425,100 424,102 424,106 429,106 429,104 435,104 435,106 433,106 432,108 436,109 442,107 446,111 452,110 454,112 452,118 457,118 459,120 462,114 469,114 471,121 469,125 469,130 467,131 464,128 462,127 458,129 458,130 453,132 445,131 439,129 434,132 437,135 440,134 442,136 450,135 449,137 450,141 450,144 448,143 445,145 443,143 436,143 430,154 432,156 436,157 438,156 442,156 444,154 448,156 449,162 454,164 455,163 461,163 462,163 461,167 461,169 461,175 459,176 465,180 463,180 463,185 459,185 456,187 450,191 452,193 449,195 458,199 454,207 465,206 472,202 481,203 489,202 482,206 483,208 491,208 499,213 500,215 492,215 490,218 476,220 482,226 472,226 469,230 461,234 460,235 463,237 464,237 465,243 468,243 469,245 469,246 466,245 467,247 464,247 457,252 454,253 453,252 449,253 443,252 442,250 438,251 434,253 442,259 447,266 447,269 441,268 438,270 436,271 434,270 433,271 431,271 432,272 429,272 429,273 425,274 425,274 427,275 428,278 432,279 430,281 434,285 435,287 434,291 432,293 430,292 431,293 428,298 431,297 437,299 437,300 435,301 433,300 433,301 437,302 442,301 441,304 438,312 433,312 426,308 422,308 421,311 418,310 416,315 417,320 413,320 413,317 411,317 410,319 405,319 404,321 402,320 394,318 393,318 394,319 390,319 389,317 385,318 385,316 382,316 382,317 378,318 377,317 375,317 375,319 372,319 373,321 368,323 367,322 357,321 352,322 348,323 346,323 342,320 340,321 338,319 334,317 332,320 326,320 324,321 323,323 320,320 315,321 316,322 313,321 309,323 305,330 303,328 303,326 298,326 295,324 289,326 282,325 276,332 278,333 276,336 279,338 273,341 272,343 267,348" id="773" class="arrondissement" fill="steelblue" stroke-width="1" stroke="white" geotype="arrondissement" geoname="PROVINS" code_insee="773" code_departement="77" code_region_2015="11"/><polygon points="56,426 42,425 36,424 33,424 32,425 31,424 28,425 27,427 24,425 21,426 22,423 25,423 29,421 32,416 35,415 34,413 37,413 39,409 49,412 53,408 51,406 53,404 49,402 54,398 52,398 52,396 55,396 56,394 56,393 54,393 55,391 53,389 54,387 52,387 52,383 54,381 49,382 49,377 39,377 36,374 37,372 33,370 32,371 32,370 26,372 23,370 20,371 15,369 13,366 12,365 11,360 13,356 12,351 7,347 5,342 1,339 0,335 4,337 8,335 15,335 18,336 16,331 18,327 21,329 22,326 16,324 22,321 23,322 25,322 24,319 25,319 33,318 40,315 35,312 39,309 46,309 47,311 55,307 55,306 66,307 66,309 78,314 87,300 88,293 89,291 98,288 99,286 102,284 102,282 104,282 103,280 109,280 109,278 106,276 107,275 102,269 104,266 107,267 116,270 115,264 117,264 121,270 121,270 124,272 130,273 140,271 151,270 153,271 157,272 160,274 163,279 162,281 165,283 169,283 169,286 171,286 172,287 179,286 182,287 184,297 189,297 196,298 196,296 205,297 206,294 209,295 211,293 213,296 216,297 215,302 210,303 211,307 208,308 209,312 201,315 198,317 196,316 195,317 198,319 197,319 200,322 199,323 200,324 208,327 213,327 213,324 218,324 221,324 221,326 223,326 224,329 229,326 232,328 234,326 234,336 238,335 238,337 243,341 244,341 246,345 248,345 247,341 255,340 263,337 265,340 264,347 267,348 269,349 272,349 272,350 269,353 273,357 271,361 280,363 279,367 281,372 276,372 274,372 272,376 269,378 269,380 270,380 266,384 262,391 259,390 257,392 256,390 249,391 249,394 248,396 241,397 233,401 233,402 233,409 218,411 205,412 203,412 198,418 190,422 185,422 184,424 175,423 174,420 173,418 175,415 174,414 179,410 179,408 176,409 175,407 172,407 171,409 167,408 163,410 161,409 157,409 158,410 156,411 148,408 149,411 155,414 156,417 141,421 135,426 134,426 122,425 118,428 117,428 106,420 90,423 78,423 76,419 62,419 55,425 56,426" id="774" class="arrondissement" fill="steelblue" stroke-width="1" stroke="white" geotype="arrondissement" geoname="FONTAINEBLEAU" code_insee="774" code_departement="77" code_region_2015="11"/><polygon points="95,153 92,147 86,149 83,147 84,144 87,143 86,141 89,138 85,137 88,134 86,133 87,132 87,130 86,125 84,125 83,125 83,122 78,113 82,112 81,111 83,110 84,108 79,108 77,107 75,108 77,102 72,100 73,98 83,96 84,94 82,92 85,90 86,90 84,89 84,85 86,83 90,81 90,77 87,77 85,72 96,69 97,71 108,70 112,69 121,69 123,71 126,71 127,69 136,70 142,68 142,68 141,73 138,74 137,75 142,75 150,84 154,83 159,85 163,83 165,85 169,81 171,81 176,79 177,86 178,87 179,88 177,90 175,89 175,90 176,96 178,95 178,99 180,99 176,103 186,102 187,102 187,103 185,105 185,107 188,107 186,110 190,110 190,111 187,115 189,115 185,119 192,118 192,122 191,123 187,123 183,124 181,122 179,123 176,124 176,124 175,124 174,123 171,124 171,123 168,124 169,125 162,127 165,132 159,134 157,133 156,131 156,129 154,130 152,135 148,134 145,135 146,136 144,137 147,144 145,145 138,147 136,147 138,153 133,158 132,158 125,159 121,160 118,156 116,156 110,158 108,155 111,154 108,152 105,152 107,150 102,149 103,150 100,150 95,153" id="775" class="arrondissement" fill="steelblue" stroke-width="1" stroke="white" geotype="arrondissement" geoname="TORCY" code_insee="775" code_departement="77" code_region_2015="11"/></svg>