<?xml version="1.0" encoding="utf-8"?>
<svg version="1.1" id="svgmap" xmlns="http://www.w3.org/2000/svg" xmlns:xlink="http://www.w3.org/1999/xlink" x="0px" y="0px" width="100%" height="100%" viewBox="0 0 493 500">
<polygon points="109,179 105,177 106,176 101,170 96,167 97,167 96,166 94,168 95,166 94,165 92,164 93,166 91,166 91,163 89,164 88,164 92,161 90,157 85,157 81,155 80,151 78,151 77,150 79,146 77,143 80,140 82,139 81,135 84,133 90,132 85,126 79,125 75,126 73,123 64,122 60,120 57,118 53,116 53,114 51,112 48,110 48,109 45,108 45,107 42,105 38,100 31,98 33,97 38,90 36,87 39,85 42,83 36,83 33,77 27,79 25,77 28,77 28,76 24,73 22,75 19,76 19,75 22,75 25,72 24,71 19,71 13,72 10,71 10,71 9,69 9,69 10,69 10,69 11,68 11,68 12,68 12,67 13,68 15,68 15,69 16,69 16,70 16,70 17,70 19,70 19,70 18,69 16,68 17,69 17,67 18,67 17,66 16,67 15,67 15,66 16,66 16,66 17,65 17,64 17,64 16,64 16,64 14,65 14,66 14,66 14,66 13,66 12,67 11,67 9,65 9,65 9,64 9,64 9,63 10,63 11,62 12,63 12,62 11,62 12,61 11,61 11,61 10,61 10,61 9,61 9,61 8,61 7,60 7,61 7,61 7,60 7,59 6,60 6,60 5,60 4,61 6,62 5,62 4,61 4,61 4,61 3,61 2,62 1,62 1,62 0,62 1,61 1,61 1,61 0,60 1,60 0,60 2,60 3,58 5,58 9,57 11,59 17,59 20,61 24,59 20,57 24,56 25,54 27,52 28,54 30,54 33,51 37,50 40,50 40,51 39,52 40,52 42,53 43,52 41,51 47,49 51,45 53,47 58,46 59,47 59,50 62,51 70,51 70,47 76,49 82,55 90,50 94,51 95,53 98,53 99,52 98,51 100,49 100,47 102,46 106,49 111,48 113,51 119,49 121,49 122,51 124,51 135,49 135,47 139,45 142,41 149,39 150,34 157,35 159,32 156,30 153,29 152,23 153,22 151,20 170,13 180,11 183,12 191,11 193,12 195,12 193,15 187,16 183,19 186,24 190,23 194,17 203,18 209,16 211,17 213,16 217,18 220,17 223,7 227,7 227,9 239,6 241,6 243,7 247,7 247,9 259,7 264,4 273,2 273,4 278,3 281,1 281,4 290,1 296,4 305,5 306,7 315,3 315,0 329,3 335,2 335,5 333,7 324,11 318,17 320,18 324,19 328,17 332,17 337,19 336,23 340,24 352,19 356,31 357,33 358,36 363,44 362,44 359,42 355,42 356,45 359,52 359,54 367,50 372,50 374,51 376,51 380,52 382,56 376,63 377,65 382,69 383,73 383,73 387,74 391,82 393,88 389,87 388,89 386,88 385,89 382,88 381,89 376,89 375,86 368,86 368,83 364,83 364,85 369,91 363,94 366,96 359,94 350,95 349,92 345,89 333,87 330,89 327,89 317,98 315,106 313,105 313,110 308,112 308,113 304,114 303,117 298,118 290,118 282,115 279,116 280,118 276,122 273,121 272,124 268,132 259,142 259,142 246,152 238,153 230,155 226,153 220,153 221,156 215,155 210,159 209,158 207,158 208,155 208,154 204,155 199,152 195,154 192,153 191,151 186,151 185,149 187,148 186,147 190,146 190,143 193,143 192,141 188,142 182,141 181,141 179,142 177,141 175,142 172,141 170,144 167,145 166,145 165,151 162,152 158,153 153,154 144,152 141,154 133,157 123,157 125,159 125,162 127,164 125,168 130,172 124,174 121,178 112,180 109,179" id="791" class="arrondissement" fill="steelblue" stroke-width="1" stroke="white" geotype="arrondissement" geoname="BRESSUIRE" code_insee="791" code_departement="79" code_region_2015="54"/><polygon points="351,500 346,497 337,496 339,492 337,492 336,487 333,486 333,485 327,484 328,483 324,482 325,478 325,477 321,477 326,471 325,470 314,475 313,467 310,467 312,463 309,465 303,467 296,466 294,465 294,465 277,461 277,456 274,456 274,452 271,451 269,448 268,449 263,453 253,451 249,451 237,453 236,452 239,450 237,449 233,445 229,446 229,444 227,444 221,450 211,446 212,437 203,441 205,444 203,445 198,441 194,442 189,441 182,439 175,440 170,437 173,435 169,432 172,430 172,429 170,431 164,430 166,427 163,427 162,425 154,423 149,424 142,421 141,425 133,424 128,424 126,427 121,424 121,422 118,421 123,419 130,420 133,418 127,416 121,416 121,414 118,414 114,414 109,412 104,405 99,407 98,406 95,408 93,408 94,407 91,405 96,403 90,402 92,401 95,401 98,400 95,398 95,393 93,390 88,388 67,379 65,376 67,375 74,369 69,364 65,355 67,353 68,354 71,353 78,353 81,354 82,352 79,351 82,348 86,347 91,344 102,348 106,347 108,348 110,347 114,346 117,344 118,343 116,342 117,339 124,338 131,334 132,331 130,331 132,328 143,331 150,329 152,327 160,317 155,314 148,314 146,313 145,311 141,310 136,307 129,305 124,315 115,312 121,309 116,306 116,303 118,298 117,297 125,294 126,291 125,287 127,290 129,287 126,284 125,278 119,276 123,274 122,268 118,265 113,263 113,262 117,261 116,260 117,257 114,258 115,256 124,254 125,255 126,256 128,254 129,256 132,253 132,248 132,246 130,245 130,239 125,240 126,239 124,239 125,235 123,233 127,231 128,228 124,226 127,225 127,224 125,224 122,221 127,214 129,215 136,214 140,215 141,215 139,213 142,212 148,212 153,216 153,220 163,225 166,227 163,233 167,231 169,231 170,228 175,224 180,217 184,216 184,219 185,220 184,221 191,224 192,226 188,228 190,228 189,230 191,229 189,233 190,235 195,236 198,238 194,245 197,249 201,249 204,247 211,247 212,247 212,249 216,248 217,247 213,256 211,258 211,260 216,260 224,254 225,254 226,258 229,258 227,259 227,260 230,260 233,262 236,262 237,265 240,265 244,273 246,273 250,273 255,270 262,268 263,273 265,271 269,277 274,273 283,284 280,289 284,288 292,287 297,283 300,283 303,287 306,287 305,286 308,285 309,282 308,281 309,281 313,281 314,273 317,272 320,275 328,275 329,279 330,290 338,286 341,289 343,289 345,288 348,288 350,286 353,286 363,283 365,285 363,289 365,291 367,290 370,293 381,287 385,290 387,290 388,287 392,289 390,295 392,301 390,300 388,302 390,305 386,310 389,311 389,309 391,309 393,309 391,312 391,313 394,313 393,316 397,314 399,315 403,315 406,316 407,321 411,322 403,330 403,332 413,335 407,335 406,340 403,343 406,343 410,342 413,344 419,346 420,348 431,353 434,351 434,349 440,345 438,344 440,341 450,337 451,334 457,333 465,335 473,340 474,343 469,347 471,350 471,352 468,353 466,352 463,354 465,354 465,356 472,362 471,363 472,364 470,368 467,370 453,369 457,379 458,381 460,386 458,386 457,388 454,387 448,394 447,393 445,397 446,401 444,405 458,407 460,409 459,411 462,411 461,413 464,414 465,418 472,418 473,420 479,421 481,420 482,416 490,417 493,417 493,418 492,418 493,421 491,426 487,427 486,430 483,430 483,431 486,431 486,433 485,435 479,438 480,441 483,445 481,445 481,446 479,446 479,448 477,448 475,450 471,451 470,449 456,441 449,444 444,444 439,440 437,441 441,446 439,448 434,446 429,445 422,449 422,451 419,452 424,455 420,456 415,457 413,456 409,461 405,463 399,460 396,462 388,463 386,462 379,463 380,467 387,474 385,474 383,477 377,478 377,481 375,483 376,485 371,487 379,487 380,490 377,489 378,491 374,491 371,492 369,496 369,495 365,496 364,495 351,500" id="792" class="arrondissement" fill="steelblue" stroke-width="1" stroke="white" geotype="arrondissement" geoname="NIORT" code_insee="792" code_departement="79" code_region_2015="54"/><polygon points="127,214 123,210 123,209 118,207 114,206 108,208 107,205 112,203 112,198 117,195 115,195 108,189 98,185 109,179 112,180 121,178 124,174 130,172 125,168 127,164 125,162 125,159 123,157 133,157 141,154 144,152 153,154 158,153 162,152 165,151 166,145 167,145 170,144 172,141 175,142 177,141 179,142 181,141 182,141 188,142 192,141 193,143 190,143 190,146 186,147 187,148 185,149 186,151 191,151 192,153 195,154 199,152 204,155 208,154 208,155 207,158 209,158 210,159 215,155 221,156 220,153 226,153 230,155 238,153 246,152 259,142 259,142 268,132 272,124 273,121 276,122 280,118 279,116 282,115 290,118 298,118 303,117 304,114 308,113 308,112 313,110 313,105 315,106 317,98 327,89 330,89 333,87 345,89 349,92 350,95 359,94 366,96 363,94 369,91 364,85 364,83 368,83 368,86 375,86 376,89 381,89 382,88 385,89 386,88 388,89 389,87 393,88 389,92 386,93 385,100 381,103 383,104 385,102 395,104 395,107 401,110 408,112 412,112 404,120 403,120 399,116 392,114 389,117 387,117 384,118 381,121 377,121 377,125 375,125 375,127 377,125 379,127 383,127 388,130 394,126 395,127 400,129 399,132 393,135 389,139 385,140 389,144 389,145 387,146 389,148 386,149 389,154 391,155 396,152 408,162 411,162 413,165 413,167 411,167 408,167 398,172 396,172 398,174 397,176 398,177 398,179 389,181 387,182 394,187 383,193 379,195 382,196 381,198 383,201 379,201 373,205 367,210 368,213 376,213 381,211 384,211 386,210 388,206 394,203 397,204 397,209 391,217 395,217 398,219 407,217 406,219 408,221 407,225 416,227 410,230 405,230 395,236 392,240 392,243 392,244 393,244 400,246 394,257 389,255 386,257 385,256 383,256 384,259 382,260 384,263 380,267 379,270 383,272 384,273 381,273 376,275 380,275 378,276 377,279 379,281 390,278 391,280 393,281 388,287 387,290 385,290 381,287 370,293 367,290 365,291 363,289 365,285 363,283 353,286 350,286 348,288 345,288 343,289 341,289 338,286 330,290 329,279 328,275 320,275 317,272 314,273 313,281 309,281 308,281 309,282 308,285 305,286 306,287 303,287 300,283 297,283 292,287 284,288 280,289 283,284 274,273 269,277 265,271 263,273 262,268 255,270 250,273 246,273 244,273 240,265 237,265 236,262 233,262 230,260 227,260 227,259 229,258 226,258 225,254 224,254 216,260 211,260 211,258 213,256 217,247 216,248 212,249 212,247 211,247 204,247 201,249 197,249 194,245 198,238 195,236 190,235 189,233 191,229 189,230 190,228 188,228 192,226 191,224 184,221 185,220 184,219 184,216 180,217 175,224 170,228 169,231 167,231 163,233 166,227 163,225 153,220 153,216 148,212 142,212 139,213 141,215 140,215 136,214 129,215 127,214" id="793" class="arrondissement" fill="steelblue" stroke-width="1" stroke="white" geotype="arrondissement" geoname="PARTHENAY" code_insee="793" code_departement="79" code_region_2015="54"/></svg>