<?xml version="1.0" encoding="utf-8"?>
<svg version="1.1" id="svgmap" xmlns="http://www.w3.org/2000/svg" xmlns:xlink="http://www.w3.org/1999/xlink" x="0px" y="0px" width="100%" height="100%" viewBox="0 0 500 292">
<polygon points="41,152 38,151 38,147 41,145 39,143 35,142 34,143 32,142 28,140 26,141 19,137 19,136 21,134 18,131 20,130 21,128 20,128 13,126 7,119 7,118 9,119 10,117 7,116 7,115 10,115 5,111 4,106 8,101 12,101 14,101 13,97 14,96 13,95 15,94 11,92 4,91 2,91 1,90 2,88 0,86 1,86 5,88 5,85 6,85 11,84 20,86 31,86 30,81 33,78 34,75 35,75 36,74 40,75 42,74 44,73 41,67 46,68 48,68 49,67 48,66 50,66 51,64 56,64 57,59 60,56 56,49 54,49 50,48 49,50 48,50 46,48 46,47 45,46 47,44 48,40 42,37 42,33 44,30 45,31 49,30 53,31 54,32 61,30 68,31 67,29 70,32 76,30 77,33 82,33 84,37 87,37 92,36 93,35 90,35 90,33 94,30 95,30 97,27 103,31 103,33 106,33 108,35 109,31 105,24 108,20 109,20 111,23 112,24 117,20 125,23 128,21 129,24 132,25 135,23 137,22 135,21 132,18 128,17 130,15 134,13 137,14 142,16 144,19 147,19 149,18 155,21 159,19 160,16 161,16 160,18 162,18 167,18 177,16 176,12 180,12 187,10 187,9 184,5 190,4 191,6 195,8 196,6 200,4 199,6 201,7 200,10 204,6 203,3 207,2 212,2 213,0 219,0 221,2 220,4 224,5 221,7 222,8 225,8 229,7 231,8 230,11 234,14 236,14 239,11 246,12 248,14 250,13 251,15 249,17 242,18 242,20 236,20 237,19 234,18 233,20 230,21 231,22 233,23 235,22 239,23 246,22 250,24 255,22 257,21 259,20 259,20 261,20 263,19 265,20 267,20 271,22 272,23 269,28 272,28 274,28 276,30 280,28 284,28 287,32 291,34 294,35 297,37 300,37 304,39 305,38 305,39 309,42 309,45 311,45 313,47 312,52 320,53 324,52 330,54 331,60 332,60 333,61 334,60 338,63 342,68 343,70 341,70 343,73 345,77 353,78 352,81 352,85 351,87 345,88 344,91 345,91 347,90 347,92 349,92 357,95 357,98 361,97 360,99 363,98 362,99 364,101 363,105 362,107 362,110 372,114 373,116 371,118 368,119 367,121 367,125 366,127 356,127 355,128 348,131 347,132 342,132 343,133 342,135 345,136 342,140 338,141 338,144 339,146 337,147 338,148 335,148 335,147 335,146 331,148 329,146 330,145 325,145 325,140 323,139 322,139 324,138 322,137 324,134 322,134 322,135 319,135 316,133 316,132 318,131 315,130 317,130 314,130 310,129 309,127 307,127 308,129 304,129 304,128 302,130 301,129 302,131 300,131 303,135 299,135 293,137 293,136 295,134 293,134 289,138 287,141 290,141 290,142 289,142 291,144 284,147 281,148 279,153 280,154 277,156 278,160 279,159 279,160 278,162 276,161 271,161 264,158 263,155 261,156 258,155 256,156 250,156 248,155 244,155 243,154 242,155 238,154 235,157 229,155 224,154 222,152 222,151 219,150 215,150 212,150 210,149 205,152 202,148 195,145 195,146 194,147 186,149 185,151 180,148 178,146 180,144 177,143 176,143 173,142 169,144 165,146 166,148 162,151 156,146 154,145 151,146 142,143 135,143 133,145 127,143 125,143 120,142 120,143 118,145 119,146 118,147 118,149 116,149 118,151 116,154 117,157 114,158 113,154 111,151 107,150 101,146 97,145 96,143 89,141 87,141 84,146 84,148 82,148 79,146 75,146 71,151 71,153 69,153 63,153 59,152 54,151 53,148 48,149 45,149 41,152" id="811" class="arrondissement" fill="steelblue" stroke-width="1" stroke="white" geotype="arrondissement" geoname="ALBI" code_insee="811" code_departement="81" code_region_2015="73"/><polygon points="176,273 174,269 171,269 171,268 173,265 172,261 175,259 180,258 183,255 181,253 183,251 182,247 180,245 179,248 180,250 179,250 177,250 176,248 171,247 170,247 172,255 170,256 169,257 164,256 162,258 157,255 150,252 149,253 146,252 145,252 142,249 140,250 137,248 136,250 132,247 127,246 126,244 126,244 124,244 123,239 120,238 123,236 117,234 112,232 114,231 112,228 112,226 108,223 109,222 105,222 102,221 99,221 98,222 94,221 94,220 92,220 87,219 85,217 85,215 82,213 81,214 78,213 76,214 75,213 75,213 73,212 69,211 67,208 62,206 60,208 58,207 56,206 54,204 56,203 56,200 59,197 61,196 67,194 70,194 70,192 69,190 66,188 66,183 58,181 46,181 47,178 45,177 52,178 53,176 57,175 56,174 60,175 61,174 61,173 56,168 55,169 52,166 49,166 47,164 44,164 43,161 41,160 43,155 41,152 45,149 48,149 53,148 54,151 59,152 63,153 69,153 71,153 71,151 75,146 79,146 82,148 84,148 84,146 87,141 89,141 96,143 97,145 101,146 107,150 111,151 113,154 114,158 117,157 116,154 118,151 116,149 118,149 118,147 119,146 118,145 120,143 120,142 125,143 127,143 133,145 135,143 142,143 151,146 154,145 156,146 162,151 166,148 165,146 169,144 173,142 176,143 177,143 180,144 178,146 180,148 185,151 186,149 194,147 195,146 195,145 202,148 205,152 210,149 212,150 215,150 219,150 222,151 222,152 224,154 229,155 235,157 238,154 242,155 243,154 244,155 248,155 250,156 256,156 258,155 261,156 263,155 264,158 271,161 276,161 278,162 279,160 279,159 278,160 277,156 280,154 279,153 281,148 284,147 291,144 289,142 290,142 290,141 287,141 289,138 293,134 295,134 293,136 293,137 299,135 303,135 300,131 302,131 301,129 302,130 304,128 304,129 308,129 307,127 309,127 310,129 314,130 317,130 315,130 318,131 316,132 316,133 319,135 322,135 322,134 324,134 322,137 324,138 322,139 323,139 325,140 325,145 330,145 329,146 331,148 335,146 335,147 335,148 338,148 337,147 339,146 338,144 338,141 342,140 345,136 342,135 343,133 342,132 347,132 348,131 355,128 356,127 366,127 367,128 370,130 371,129 376,137 379,136 380,137 380,139 383,140 384,142 384,143 389,147 389,149 391,150 400,156 400,158 409,163 414,163 422,164 430,168 433,167 438,167 445,166 447,160 456,157 460,157 461,159 465,161 467,160 472,161 472,161 475,162 476,165 488,164 490,165 491,164 493,166 495,166 493,168 495,170 496,177 498,179 500,180 499,181 497,181 493,183 495,186 493,189 494,192 489,195 479,194 477,198 472,199 468,198 461,201 456,200 456,202 454,202 452,204 449,206 444,205 442,207 441,206 439,209 435,209 431,207 429,203 428,203 427,202 424,201 423,199 420,198 419,200 419,198 411,196 410,195 405,197 400,196 399,197 398,194 396,193 392,205 389,208 390,210 385,215 386,216 388,216 388,217 390,217 389,219 391,220 386,227 389,230 391,233 398,238 399,240 403,242 407,245 401,244 402,249 399,251 401,256 400,256 404,261 403,264 397,262 397,261 394,262 394,263 396,264 396,265 387,271 386,272 383,271 381,271 383,274 381,275 379,274 378,275 376,275 373,277 368,278 368,278 367,278 366,279 363,277 351,277 348,275 344,275 342,273 335,273 333,273 331,273 327,274 319,273 316,276 310,277 311,279 307,280 306,279 303,279 302,278 300,278 297,277 290,274 288,274 284,272 277,271 275,269 273,269 268,270 266,271 261,267 259,265 258,264 257,267 253,269 252,271 251,272 247,275 245,274 245,280 248,282 248,284 246,285 247,287 242,292 232,287 227,280 222,280 219,282 216,283 216,284 213,285 211,286 206,286 205,287 205,288 200,287 198,288 196,286 194,287 192,287 189,284 191,283 188,280 185,275 176,273" id="812" class="arrondissement" fill="steelblue" stroke-width="1" stroke="white" geotype="arrondissement" geoname="CASTRES" code_insee="812" code_departement="81" code_region_2015="73"/></svg>