<?xml version="1.0" encoding="utf-8"?>
<svg version="1.1" id="svgmap" xmlns="http://www.w3.org/2000/svg" xmlns:xlink="http://www.w3.org/1999/xlink" x="0px" y="0px" width="100%" height="100%" viewBox="0 0 431 500">
<polygon points="357,500 354,474 303,493 291,475 315,459 294,439 301,431 327,429 326,416 376,404 393,407 384,416 368,441 371,449 395,456 380,469 386,474 378,480 390,482 381,498 357,500" id="92002" class="commune" fill="steelblue" stroke-width="1" stroke="white" geotype="commune" geoname="Antony" code_insee="92002" code_canton="9201" nom_canton="" code_intercom="249200015" nom_intercom="CA des Hauts de Bièvre" code_arrondissement="921" nom_arrondissement="Antony" code_departement="92" nom_departement="Hauts-de-Seine" code_region_2015="11" nom_region_2015="Île-de-France"/><polygon points="272,101 269,92 285,92 304,72 288,55 287,39 310,44 319,66 330,75 337,70 340,87 388,68 397,73 393,79 379,84 344,93 320,107 313,110 290,97 272,101" id="92004" class="commune" fill="steelblue" stroke-width="1" stroke="white" geotype="commune" geoname="Asnières-sur-Seine" code_insee="92004" code_canton="9295" nom_canton="" code_intercom="" nom_intercom="" code_arrondissement="922" nom_arrondissement="Nanterre" code_departement="92" nom_departement="Hauts-de-Seine" code_region_2015="11" nom_region_2015="Île-de-France"/><polygon points="331,350 355,333 361,322 354,316 391,318 389,327 402,329 408,322 402,337 390,368 376,365 370,375 355,374 344,353 331,350" id="92007" class="commune" fill="steelblue" stroke-width="1" stroke="white" geotype="commune" geoname="Bagneux" code_insee="92007" code_canton="9203" nom_canton="" code_intercom="249200056" nom_intercom="CA Sud de Seine" code_arrondissement="921" nom_arrondissement="Antony" code_departement="92" nom_departement="Hauts-de-Seine" code_region_2015="11" nom_region_2015="Île-de-France"/><polygon points="288,55 304,72 285,92 269,92 272,101 265,108 261,100 254,102 252,85 261,84 265,70 274,71 275,59 288,55" id="92009" class="commune" fill="steelblue" stroke-width="1" stroke="white" geotype="commune" geoname="Bois-Colombes" code_insee="92009" code_canton="9211" nom_canton="" code_intercom="" nom_intercom="" code_arrondissement="922" nom_arrondissement="Nanterre" code_departement="92" nom_departement="Hauts-de-Seine" code_region_2015="11" nom_region_2015="Île-de-France"/><polygon points="203,292 196,289 177,262 177,220 241,238 239,253 247,262 264,264 236,284 203,292" id="92012" class="commune" fill="steelblue" stroke-width="1" stroke="white" geotype="commune" geoname="Boulogne-Billancourt" code_insee="92012" code_canton="9296" nom_canton="" code_intercom="200023356" nom_intercom="CA Grand Paris Seine Ouest (Gpso)" code_arrondissement="923" nom_arrondissement="Boulogne-Billancourt" code_departement="92" nom_departement="Hauts-de-Seine" code_region_2015="11" nom_region_2015="Île-de-France"/><polygon points="390,368 405,372 406,382 408,389 393,407 376,404 380,393 364,392 370,375 376,365 390,368" id="92014" class="commune" fill="steelblue" stroke-width="1" stroke="white" geotype="commune" geoname="Bourg-la-Reine" code_insee="92014" code_canton="9203" nom_canton="" code_intercom="249200015" nom_intercom="CA des Hauts de Bièvre" code_arrondissement="921" nom_arrondissement="Antony" code_departement="92" nom_departement="Hauts-de-Seine" code_region_2015="11" nom_region_2015="Île-de-France"/><polygon points="197,417 188,398 191,393 207,394 211,403 256,401 290,393 302,380 301,397 319,400 326,416 327,429 301,431 294,439 279,436 278,426 228,429 209,417 197,417" id="92019" class="commune" fill="steelblue" stroke-width="1" stroke="white" geotype="commune" geoname="Châtenay-Malabry" code_insee="92019" code_canton="9206" nom_canton="" code_intercom="249200015" nom_intercom="CA des Hauts de Bièvre" code_arrondissement="921" nom_arrondissement="Antony" code_departement="92" nom_departement="Hauts-de-Seine" code_region_2015="11" nom_region_2015="Île-de-France"/><polygon points="348,315 354,316 361,322 355,333 331,350 285,354 297,337 287,337 303,316 327,321 334,314 348,315" id="92020" class="commune" fill="steelblue" stroke-width="1" stroke="white" geotype="commune" geoname="Châtillon" code_insee="92020" code_canton="9207" nom_canton="" code_intercom="249200072" nom_intercom="CC de Châtillon - Montrouge" code_arrondissement="921" nom_arrondissement="Antony" code_departement="92" nom_departement="Hauts-de-Seine" code_region_2015="11" nom_region_2015="Île-de-France"/><polygon points="70,309 74,307 99,305 118,294 123,298 115,307 135,320 136,341 128,344 84,347 93,339 82,339 78,330 84,329 69,316 70,309" id="92022" class="commune" fill="steelblue" stroke-width="1" stroke="white" geotype="commune" geoname="Chaville" code_insee="92022" code_canton="9217" nom_canton="" code_intercom="200023356" nom_intercom="CA Grand Paris Seine Ouest (Gpso)" code_arrondissement="923" nom_arrondissement="Boulogne-Billancourt" code_departement="92" nom_departement="Hauts-de-Seine" code_region_2015="11" nom_region_2015="Île-de-France"/><polygon points="303,316 287,337 297,337 285,354 284,362 236,376 227,388 213,386 213,398 207,394 191,393 188,398 182,395 176,385 183,382 201,376 201,351 216,334 232,332 231,324 247,318 239,304 250,302 261,311 286,308 299,309 290,310 303,316" id="92023" class="commune" fill="steelblue" stroke-width="1" stroke="white" geotype="commune" geoname="Clamart" code_insee="92023" code_canton="9208" nom_canton="" code_intercom="249200056" nom_intercom="CA Sud de Seine" code_arrondissement="921" nom_arrondissement="Antony" code_departement="92" nom_departement="Hauts-de-Seine" code_region_2015="11" nom_region_2015="Île-de-France"/><polygon points="393,114 357,128 320,107 344,93 379,84 395,105 393,114" id="92024" class="commune" fill="steelblue" stroke-width="1" stroke="white" geotype="commune" geoname="Clichy" code_insee="92024" code_canton="9209" nom_canton="" code_intercom="" nom_intercom="" code_arrondissement="922" nom_arrondissement="Nanterre" code_departement="92" nom_departement="Hauts-de-Seine" code_region_2015="11" nom_region_2015="Île-de-France"/><polygon points="287,39 288,55 275,59 274,71 265,70 261,84 252,85 188,102 169,69 193,52 230,32 232,39 253,30 263,36 287,39" id="92025" class="commune" fill="steelblue" stroke-width="1" stroke="white" geotype="commune" geoname="Colombes" code_insee="92025" code_canton="9297" nom_canton="" code_intercom="" nom_intercom="" code_arrondissement="922" nom_arrondissement="Nanterre" code_departement="92" nom_departement="Hauts-de-Seine" code_region_2015="11" nom_region_2015="Île-de-France"/><polygon points="272,101 290,97 313,110 283,119 244,145 215,136 214,126 199,125 194,114 227,111 254,102 261,100 265,108 272,101" id="92026" class="commune" fill="steelblue" stroke-width="1" stroke="white" geotype="commune" geoname="Courbevoie" code_insee="92026" code_canton="9298" nom_canton="" code_intercom="200026979" nom_intercom="CA Seine-Défense" code_arrondissement="922" nom_arrondissement="Nanterre" code_departement="92" nom_departement="Hauts-de-Seine" code_region_2015="11" nom_region_2015="Île-de-France"/><polygon points="331,350 344,353 355,374 307,379 303,373 291,373 284,362 285,354 331,350" id="92032" class="commune" fill="steelblue" stroke-width="1" stroke="white" geotype="commune" geoname="Fontenay-aux-Roses" code_insee="92032" code_canton="9207" nom_canton="" code_intercom="249200056" nom_intercom="CA Sud de Seine" code_arrondissement="921" nom_arrondissement="Antony" code_departement="92" nom_departement="Hauts-de-Seine" code_region_2015="11" nom_region_2015="Île-de-France"/><polygon points="94,256 47,256 48,246 75,241 83,225 101,223 110,214 118,217 134,225 118,234 120,247 94,256" id="92033" class="commune" fill="steelblue" stroke-width="1" stroke="white" geotype="commune" geoname="Garches" code_insee="92033" code_canton="9223" nom_canton="" code_intercom="249200049" nom_intercom="CA Coeur de Seine" code_arrondissement="922" nom_arrondissement="Nanterre" code_departement="92" nom_departement="Hauts-de-Seine" code_region_2015="11" nom_region_2015="Île-de-France"/><polygon points="194,114 188,102 252,85 254,102 227,111 194,114" id="92035" class="commune" fill="steelblue" stroke-width="1" stroke="white" geotype="commune" geoname="Garenne-Colombes" code_insee="92035" code_canton="9211" nom_canton="" code_intercom="" nom_intercom="" code_arrondissement="922" nom_arrondissement="Nanterre" code_departement="92" nom_departement="Hauts-de-Seine" code_region_2015="11" nom_region_2015="Île-de-France"/><polygon points="397,73 388,68 340,87 337,70 330,75 319,66 310,44 287,39 263,36 253,30 232,39 230,32 276,11 327,0 374,7 369,24 392,34 398,41 389,53 412,64 397,73" id="92036" class="commune" fill="steelblue" stroke-width="1" stroke="white" geotype="commune" geoname="Gennevilliers" code_insee="92036" code_canton="9214" nom_canton="" code_intercom="" nom_intercom="" code_arrondissement="922" nom_arrondissement="Nanterre" code_departement="92" nom_departement="Hauts-de-Seine" code_region_2015="11" nom_region_2015="Île-de-France"/><polygon points="265,264 280,266 275,278 287,278 301,268 324,277 304,282 307,295 286,308 261,311 250,302 239,304 203,292 236,284 264,264 265,264" id="92040" class="commune" fill="steelblue" stroke-width="1" stroke="white" geotype="commune" geoname="Issy-les-Moulineaux" code_insee="92040" code_canton="9215" nom_canton="" code_intercom="200023356" nom_intercom="CA Grand Paris Seine Ouest (Gpso)" code_arrondissement="923" nom_arrondissement="Boulogne-Billancourt" code_departement="92" nom_departement="Hauts-de-Seine" code_region_2015="11" nom_region_2015="Île-de-France"/><polygon points="357,128 313,148 283,119 313,110 320,107 357,128" id="92044" class="commune" fill="steelblue" stroke-width="1" stroke="white" geotype="commune" geoname="Levallois-Perret" code_insee="92044" code_canton="9216" nom_canton="" code_intercom="" nom_intercom="" code_arrondissement="922" nom_arrondissement="Nanterre" code_departement="92" nom_departement="Hauts-de-Seine" code_region_2015="11" nom_region_2015="Île-de-France"/><polygon points="351,284 380,291 348,315 334,314 327,321 303,316 290,310 299,309 328,301 351,284" id="92046" class="commune" fill="steelblue" stroke-width="1" stroke="white" geotype="commune" geoname="Malakoff" code_insee="92046" code_canton="9218" nom_canton="" code_intercom="249200056" nom_intercom="CA Sud de Seine" code_arrondissement="921" nom_arrondissement="Antony" code_departement="92" nom_departement="Hauts-de-Seine" code_region_2015="11" nom_region_2015="Île-de-France"/><polygon points="11,298 13,293 23,256 47,256 94,256 79,272 63,286 36,288 11,298" id="92047" class="commune" fill="steelblue" stroke-width="1" stroke="white" geotype="commune" geoname="Marnes-la-Coquette" code_insee="92047" code_canton="9223" nom_canton="" code_intercom="200023356" nom_intercom="CA Grand Paris Seine Ouest (Gpso)" code_arrondissement="923" nom_arrondissement="Boulogne-Billancourt" code_departement="92" nom_departement="Hauts-de-Seine" code_region_2015="11" nom_region_2015="Île-de-France"/><polygon points="196,289 203,292 239,304 247,318 231,324 232,332 216,334 201,351 201,376 183,382 175,373 148,368 137,375 149,361 128,344 136,341 135,320 169,307 161,301 178,288 196,289" id="92048" class="commune" fill="steelblue" stroke-width="1" stroke="white" geotype="commune" geoname="Meudon" code_insee="92048" code_canton="9217" nom_canton="" code_intercom="200023356" nom_intercom="CA Grand Paris Seine Ouest (Gpso)" code_arrondissement="923" nom_arrondissement="Boulogne-Billancourt" code_departement="92" nom_departement="Hauts-de-Seine" code_region_2015="11" nom_region_2015="Île-de-France"/><polygon points="354,316 348,315 380,291 420,302 414,310 406,319 391,318 354,316" id="92049" class="commune" fill="steelblue" stroke-width="1" stroke="white" geotype="commune" geoname="Montrouge" code_insee="92049" code_canton="9218" nom_canton="" code_intercom="249200072" nom_intercom="CC de Châtillon - Montrouge" code_arrondissement="921" nom_arrondissement="Antony" code_departement="92" nom_departement="Hauts-de-Seine" code_region_2015="11" nom_region_2015="Île-de-France"/><polygon points="188,102 194,114 199,125 176,154 160,168 147,167 140,173 53,125 65,117 123,96 169,69 188,102" id="92050" class="commune" fill="steelblue" stroke-width="1" stroke="white" geotype="commune" geoname="Nanterre" code_insee="92050" code_canton="9299" nom_canton="" code_intercom="200018059" nom_intercom="CA du Mont Valérien" code_arrondissement="922" nom_arrondissement="Nanterre" code_departement="92" nom_departement="Hauts-de-Seine" code_region_2015="11" nom_region_2015="Île-de-France"/><polygon points="225,169 244,145 283,119 313,148 303,163 256,160 246,174 225,169" id="92051" class="commune" fill="steelblue" stroke-width="1" stroke="white" geotype="commune" geoname="Neuilly-sur-Seine" code_insee="92051" code_canton="9221" nom_canton="" code_intercom="" nom_intercom="" code_arrondissement="922" nom_arrondissement="Nanterre" code_departement="92" nom_departement="Hauts-de-Seine" code_region_2015="11" nom_region_2015="Île-de-France"/><polygon points="302,380 290,393 256,401 211,403 207,394 213,398 213,386 227,388 236,376 284,362 291,373 303,373 307,379 302,380" id="92060" class="commune" fill="steelblue" stroke-width="1" stroke="white" geotype="commune" geoname="Plessis-Robinson" code_insee="92060" code_canton="9206" nom_canton="" code_intercom="249200015" nom_intercom="CA des Hauts de Bièvre" code_arrondissement="921" nom_arrondissement="Antony" code_departement="92" nom_departement="Hauts-de-Seine" code_region_2015="11" nom_region_2015="Île-de-France"/><polygon points="244,145 225,169 214,179 195,184 205,175 194,170 205,161 176,154 199,125 214,126 215,136 244,145" id="92062" class="commune" fill="steelblue" stroke-width="1" stroke="white" geotype="commune" geoname="Puteaux" code_insee="92062" code_canton="9213" nom_canton="" code_intercom="200026979" nom_intercom="CA Seine-Défense" code_arrondissement="922" nom_arrondissement="Nanterre" code_departement="92" nom_departement="Hauts-de-Seine" code_region_2015="11" nom_region_2015="Île-de-France"/><polygon points="131,204 118,217 110,214 101,223 83,225 32,233 10,212 18,195 26,184 6,186 10,181 28,159 39,154 40,141 53,125 140,173 147,183 153,181 140,196 127,192 122,202 131,204" id="92063" class="commune" fill="steelblue" stroke-width="1" stroke="white" geotype="commune" geoname="Rueil-Malmaison" code_insee="92063" code_canton="9222" nom_canton="" code_intercom="200018059" nom_intercom="CA du Mont Valérien" code_arrondissement="922" nom_arrondissement="Nanterre" code_departement="92" nom_departement="Hauts-de-Seine" code_region_2015="11" nom_region_2015="Île-de-France"/><polygon points="118,217 131,204 151,202 154,207 180,207 177,220 177,262 176,274 165,281 121,274 92,276 79,272 94,256 120,247 118,234 134,225 118,217" id="92064" class="commune" fill="steelblue" stroke-width="1" stroke="white" geotype="commune" geoname="Saint-Cloud" code_insee="92064" code_canton="9223" nom_canton="" code_intercom="249200049" nom_intercom="CA Coeur de Seine" code_arrondissement="923" nom_arrondissement="Boulogne-Billancourt" code_departement="92" nom_departement="Hauts-de-Seine" code_region_2015="11" nom_region_2015="Île-de-France"/><polygon points="376,404 326,416 319,400 301,397 302,380 307,379 355,374 370,375 364,392 380,393 376,404" id="92071" class="commune" fill="steelblue" stroke-width="1" stroke="white" geotype="commune" geoname="Sceaux" code_insee="92071" code_canton="9206" nom_canton="" code_intercom="249200015" nom_intercom="CA des Hauts de Bièvre" code_arrondissement="921" nom_arrondissement="Antony" code_departement="92" nom_departement="Hauts-de-Seine" code_region_2015="11" nom_region_2015="Île-de-France"/><polygon points="177,262 196,289 178,288 161,301 169,307 135,320 115,307 123,298 118,294 99,305 74,307 81,301 120,291 121,274 165,281 176,274 177,262" id="92072" class="commune" fill="steelblue" stroke-width="1" stroke="white" geotype="commune" geoname="Sèvres" code_insee="92072" code_canton="9205" nom_canton="" code_intercom="200023356" nom_intercom="CA Grand Paris Seine Ouest (Gpso)" code_arrondissement="923" nom_arrondissement="Boulogne-Billancourt" code_departement="92" nom_departement="Hauts-de-Seine" code_region_2015="11" nom_region_2015="Île-de-France"/><polygon points="195,184 180,207 154,207 151,202 131,204 122,202 127,192 140,196 153,181 147,183 140,173 147,167 160,168 176,154 205,161 194,170 205,175 195,184" id="92073" class="commune" fill="steelblue" stroke-width="1" stroke="white" geotype="commune" geoname="Suresnes" code_insee="92073" code_canton="9220" nom_canton="" code_intercom="200018059" nom_intercom="CA du Mont Valérien" code_arrondissement="922" nom_arrondissement="Nanterre" code_departement="92" nom_departement="Hauts-de-Seine" code_region_2015="11" nom_region_2015="Île-de-France"/><polygon points="324,277 351,284 328,301 299,309 286,308 307,295 304,282 324,277" id="92075" class="commune" fill="steelblue" stroke-width="1" stroke="white" geotype="commune" geoname="Vanves" code_insee="92075" code_canton="9208" nom_canton="" code_intercom="200023356" nom_intercom="CA Grand Paris Seine Ouest (Gpso)" code_arrondissement="921" nom_arrondissement="Antony" code_departement="92" nom_departement="Hauts-de-Seine" code_region_2015="11" nom_region_2015="Île-de-France"/><polygon points="0,258 0,247 14,231 32,233 83,225 75,241 48,246 47,256 23,256 13,293 6,276 0,258" id="92076" class="commune" fill="steelblue" stroke-width="1" stroke="white" geotype="commune" geoname="Vaucresson" code_insee="92076" code_canton="9223" nom_canton="" code_intercom="249200049" nom_intercom="CA Coeur de Seine" code_arrondissement="923" nom_arrondissement="Boulogne-Billancourt" code_departement="92" nom_departement="Hauts-de-Seine" code_region_2015="11" nom_region_2015="Île-de-France"/><polygon points="74,307 70,309 53,305 47,313 35,312 11,298 36,288 63,286 79,272 92,276 121,274 120,291 81,301 74,307" id="92077" class="commune" fill="steelblue" stroke-width="1" stroke="white" geotype="commune" geoname="Ville-d'Avray" code_insee="92077" code_canton="9223" nom_canton="" code_intercom="200023356" nom_intercom="CA Grand Paris Seine Ouest (Gpso)" code_arrondissement="923" nom_arrondissement="Boulogne-Billancourt" code_departement="92" nom_departement="Hauts-de-Seine" code_region_2015="11" nom_region_2015="Île-de-France"/><polygon points="412,64 389,53 398,41 392,34 369,24 374,7 412,14 428,23 431,40 412,64" id="92078" class="commune" fill="steelblue" stroke-width="1" stroke="white" geotype="commune" geoname="Villeneuve-la-Garenne" code_insee="92078" code_canton="9214" nom_canton="" code_intercom="" nom_intercom="" code_arrondissement="922" nom_arrondissement="Nanterre" code_departement="92" nom_departement="Hauts-de-Seine" code_region_2015="11" nom_region_2015="Île-de-France"/></svg>