<?xml version="1.0" encoding="utf-8"?>
<svg version="1.1" id="svgmap" xmlns="http://www.w3.org/2000/svg" xmlns:xlink="http://www.w3.org/1999/xlink" x="0px" y="0px" width="100%" height="100%" viewBox="0 0 500 418">
<polygon points="85,307 84,304 96,284 97,274 134,238 139,230 152,220 152,222 148,235 140,241 137,253 137,246 131,257 130,267 124,275 111,283 110,290 114,293 110,309 112,312 106,307 89,302 85,307" id="97401" class="commune" fill="steelblue" stroke-width="1" stroke="white" geotype="commune" geoname="Avirons" code_insee="97401" code_canton="97401" nom_canton="" code_intercom="249740077" nom_intercom="CA Civis (Communauté Intercommunale des Villes Solidaires)" code_arrondissement="9742" nom_arrondissement="Saint-Pierre" code_departement="974" nom_departement="La Réunion" code_region_2015="4" nom_region_2015="La Réunion"/><polygon points="390,83 391,108 384,108 369,114 369,118 365,119 368,127 364,130 357,132 344,130 335,137 325,136 319,148 303,164 299,172 293,172 276,162 271,162 278,155 278,139 272,134 276,123 287,111 297,108 297,104 310,105 319,101 321,96 328,96 342,86 368,89 390,83" id="97402" class="commune" fill="steelblue" stroke-width="1" stroke="white" geotype="commune" geoname="Bras-Panon" code_insee="97402" code_canton="97406" nom_canton="" code_intercom="249740093" nom_intercom="CA Intercommunale de la Réunion Est (Cirest)" code_arrondissement="9743" nom_arrondissement="Saint-Benoît" code_departement="974" nom_departement="La Réunion" code_region_2015="4" nom_region_2015="La Réunion"/><polygon points="234,216 251,213 248,215 249,218 246,219 254,245 253,254 247,251 242,253 241,266 234,269 240,276 237,280 239,282 238,286 229,290 226,296 219,296 222,301 212,309 205,311 205,320 193,334 197,325 194,322 197,321 200,309 196,299 199,277 198,261 223,248 234,216" id="97403" class="commune" fill="steelblue" stroke-width="1" stroke="white" geotype="commune" geoname="Entre-Deux" code_insee="97403" code_canton="97416" nom_canton="" code_intercom="249740085" nom_intercom="CA du Sud" code_arrondissement="9742" nom_arrondissement="Saint-Pierre" code_departement="974" nom_departement="La Réunion" code_region_2015="4" nom_region_2015="La Réunion"/><polygon points="85,307 89,302 106,307 112,312 110,309 114,293 110,290 111,283 124,275 130,267 131,257 137,246 137,253 133,262 141,275 138,291 142,312 132,331 141,339 120,333 99,330 93,324 95,321 92,312 85,307" id="97404" class="commune" fill="steelblue" stroke-width="1" stroke="white" geotype="commune" geoname="Étang-Salé" code_insee="97404" code_canton="97401" nom_canton="" code_intercom="249740077" nom_intercom="CA Civis (Communauté Intercommunale des Villes Solidaires)" code_arrondissement="9742" nom_arrondissement="Saint-Pierre" code_departement="974" nom_departement="La Réunion" code_region_2015="4" nom_region_2015="La Réunion"/><polygon points="283,408 283,407 284,407 284,408 283,408" id="97405" class="commune" fill="steelblue" stroke-width="1" stroke="white" geotype="commune" geoname="Petite-Île" code_insee="97405" code_canton="97422" nom_canton="" code_intercom="249740077" nom_intercom="CA Civis (Communauté Intercommunale des Villes Solidaires)" code_arrondissement="9742" nom_arrondissement="Saint-Pierre" code_departement="974" nom_departement="La Réunion" code_region_2015="4" nom_region_2015="La Réunion"/><polygon points="296,404 286,407 273,403 270,405 257,396 266,364 292,354 304,338 313,336 314,343 300,359 297,371 301,374 301,393 299,396 296,397 296,404" id="97405" class="commune" fill="steelblue" stroke-width="1" stroke="white" geotype="commune" geoname="Petite-Île" code_insee="97405" code_canton="97422" nom_canton="" code_intercom="249740077" nom_intercom="CA Civis (Communauté Intercommunale des Villes Solidaires)" code_arrondissement="9742" nom_arrondissement="Saint-Pierre" code_departement="974" nom_departement="La Réunion" code_region_2015="4" nom_region_2015="La Réunion"/><polygon points="403,242 392,247 386,253 373,253 358,268 340,238 333,240 329,249 324,251 317,251 310,247 309,244 302,243 299,236 301,230 299,225 293,221 295,216 287,211 297,204 306,209 312,205 317,206 324,200 334,198 340,188 350,187 403,242" id="97406" class="commune" fill="steelblue" stroke-width="1" stroke="white" geotype="commune" geoname="Plaine-des-Palmistes" code_insee="97406" code_canton="97407" nom_canton="" code_intercom="249740093" nom_intercom="CA Intercommunale de la Réunion Est (Cirest)" code_arrondissement="9743" nom_arrondissement="Saint-Benoît" code_departement="974" nom_departement="La Réunion" code_region_2015="4" nom_region_2015="La Réunion"/><polygon points="92,45 88,53 92,56 83,79 79,78 78,73 67,69 49,68 52,53 55,53 54,54 53,59 55,54 56,56 59,51 56,49 56,52 53,52 54,44 58,41 70,46 83,45 83,48 79,49 86,51 87,47 86,46 85,44 92,45" id="97407" class="commune" fill="steelblue" stroke-width="1" stroke="white" geotype="commune" geoname="Port" code_insee="97407" code_canton="97402" nom_canton="" code_intercom="249740101" nom_intercom="CA Territoire de la Côte Ouest (Tco)" code_arrondissement="9744" nom_arrondissement="Saint-Paul" code_departement="974" nom_departement="La Réunion" code_region_2015="4" nom_region_2015="La Réunion"/><polygon points="83,79 92,56 88,53 92,45 104,40 109,32 128,20 131,32 139,41 142,54 154,69 150,90 164,90 170,94 178,95 190,104 197,116 198,125 191,128 192,150 183,157 200,172 187,171 181,173 182,176 179,178 171,177 165,181 151,172 162,157 149,143 151,133 146,126 152,120 148,111 135,102 129,103 125,94 112,83 104,81 98,82 92,78 83,79" id="97408" class="commune" fill="steelblue" stroke-width="1" stroke="white" geotype="commune" geoname="Possession" code_insee="97408" code_canton="97403" nom_canton="" code_intercom="249740101" nom_intercom="CA Territoire de la Côte Ouest (Tco)" code_arrondissement="9744" nom_arrondissement="Saint-Paul" code_departement="974" nom_departement="La Réunion" code_region_2015="4" nom_region_2015="La Réunion"/><polygon points="297,104 288,98 304,80 317,75 328,65 331,68 337,66 341,57 346,57 346,52 343,47 333,44 333,31 347,35 362,44 380,64 390,83 368,89 342,86 328,96 321,96 319,101 310,105 297,104" id="97409" class="commune" fill="steelblue" stroke-width="1" stroke="white" geotype="commune" geoname="Saint-André" code_insee="97409" code_canton="97491" nom_canton="" code_intercom="249740093" nom_intercom="CA Intercommunale de la Réunion Est (Cirest)" code_arrondissement="9743" nom_arrondissement="Saint-Benoît" code_departement="974" nom_departement="La Réunion" code_region_2015="4" nom_region_2015="La Réunion"/><polygon points="251,213 234,216 232,202 225,193 231,184 243,177 248,167 252,171 260,165 271,162 276,162 293,172 299,172 303,164 319,148 325,136 335,137 344,130 357,132 364,130 368,127 365,119 369,118 369,114 384,108 391,108 396,126 404,129 416,143 416,154 444,187 423,208 425,213 422,214 422,216 427,219 422,229 419,229 418,236 415,239 403,242 350,187 340,188 334,198 324,200 317,206 312,205 306,209 297,204 287,211 273,215 266,211 260,214 251,213" id="97410" class="commune" fill="steelblue" stroke-width="1" stroke="white" geotype="commune" geoname="Saint-Benoît" code_insee="97410" code_canton="97492" nom_canton="" code_intercom="249740093" nom_intercom="CA Intercommunale de la Réunion Est (Cirest)" code_arrondissement="9743" nom_arrondissement="Saint-Benoît" code_departement="974" nom_departement="La Réunion" code_region_2015="4" nom_region_2015="La Réunion"/><polygon points="197,116 190,104 178,95 170,94 164,90 150,90 154,69 142,54 139,41 131,32 128,20 144,8 165,2 180,4 189,0 207,11 220,11 231,9 233,30 239,41 230,51 223,68 224,72 221,73 220,91 222,93 213,98 211,104 204,111 197,116" id="97411" class="commune" fill="steelblue" stroke-width="1" stroke="white" geotype="commune" geoname="Saint-Denis" code_insee="97411" code_canton="97493" nom_canton="" code_intercom="249740119" nom_intercom="CA Intercommunale du Nord de la Réunion (Cinor)" code_arrondissement="9741" nom_arrondissement="Saint-Denis" code_departement="974" nom_departement="La Réunion" code_region_2015="4" nom_region_2015="La Réunion"/><polygon points="313,336 311,323 309,307 313,298 313,288 322,272 339,260 349,266 353,274 353,284 347,294 373,297 372,302 375,316 379,322 382,324 385,326 383,332 382,340 380,348 385,364 387,370 389,372 389,376 388,376 389,379 388,383 390,391 393,395 394,398 394,404 390,407 374,406 367,413 357,412 347,418 339,412 317,416 301,407 299,403 296,404 296,397 299,396 301,393 301,374 297,371 300,359 314,343 313,336" id="97412" class="commune" fill="steelblue" stroke-width="1" stroke="white" geotype="commune" geoname="Saint-Joseph" code_insee="97412" code_canton="97494" nom_canton="" code_intercom="249740085" nom_intercom="CA du Sud" code_arrondissement="9742" nom_arrondissement="Saint-Pierre" code_departement="974" nom_departement="La Réunion" code_region_2015="4" nom_region_2015="La Réunion"/><polygon points="161,202 151,215 152,220 139,230 134,238 97,274 96,284 84,304 62,289 56,271 51,267 57,251 57,235 53,228 45,224 44,213 88,198 107,195 161,202" id="97413" class="commune" fill="steelblue" stroke-width="1" stroke="white" geotype="commune" geoname="Saint-Leu" code_insee="97413" code_canton="97495" nom_canton="" code_intercom="249740101" nom_intercom="CA Territoire de la Côte Ouest (Tco)" code_arrondissement="9744" nom_arrondissement="Saint-Paul" code_departement="974" nom_departement="La Réunion" code_region_2015="4" nom_region_2015="La Réunion"/><polygon points="152,222 159,236 178,257 198,261 199,277 196,299 200,309 197,321 194,322 197,325 193,334 163,341 151,348 141,339 132,331 142,312 138,291 141,275 133,262 137,253 140,241 148,235 152,222" id="97414" class="commune" fill="steelblue" stroke-width="1" stroke="white" geotype="commune" geoname="Saint-Louis" code_insee="97414" code_canton="97496" nom_canton="" code_intercom="249740077" nom_intercom="CA Civis (Communauté Intercommunale des Villes Solidaires)" code_arrondissement="9742" nom_arrondissement="Saint-Pierre" code_departement="974" nom_departement="La Réunion" code_region_2015="4" nom_region_2015="La Réunion"/><polygon points="200,172 193,179 192,185 166,197 145,183 129,183 116,179 97,180 85,178 67,180 41,191 30,192 12,177 3,166 6,147 0,134 15,118 24,120 30,117 49,103 53,86 49,68 67,69 78,73 79,78 83,79 92,78 98,82 104,81 112,83 125,94 129,103 135,102 148,111 152,120 146,126 151,133 149,143 162,157 151,172 165,181 171,177 179,178 182,176 181,173 187,171 200,172" id="97415" class="commune" fill="steelblue" stroke-width="1" stroke="white" geotype="commune" geoname="Saint-Paul" code_insee="97415" code_canton="97497" nom_canton="" code_intercom="249740101" nom_intercom="CA Territoire de la Côte Ouest (Tco)" code_arrondissement="9744" nom_arrondissement="Saint-Paul" code_departement="974" nom_departement="La Réunion" code_region_2015="4" nom_region_2015="La Réunion"/><polygon points="193,334 205,320 205,311 212,309 226,322 227,328 242,339 237,346 244,346 257,359 260,355 269,354 273,348 288,342 292,334 311,323 313,336 304,338 292,354 266,364 257,396 248,395 230,386 216,387 211,384 212,379 208,381 209,381 209,382 210,381 211,382 208,383 196,379 190,370 172,366 162,362 151,348 163,341 193,334" id="97416" class="commune" fill="steelblue" stroke-width="1" stroke="white" geotype="commune" geoname="Saint-Pierre" code_insee="97416" code_canton="97498" nom_canton="" code_intercom="249740077" nom_intercom="CA Civis (Communauté Intercommunale des Villes Solidaires)" code_arrondissement="9742" nom_arrondissement="Saint-Pierre" code_departement="974" nom_departement="La Réunion" code_region_2015="4" nom_region_2015="La Réunion"/><polygon points="373,297 474,306 472,313 474,323 473,327 477,335 475,341 475,351 474,353 475,366 478,370 476,375 468,386 462,389 457,393 457,395 456,394 452,396 451,398 445,398 442,397 438,397 435,396 431,400 422,401 417,401 415,402 412,401 404,406 399,406 399,407 398,406 397,407 390,407 394,404 394,398 393,395 390,391 388,383 389,379 388,376 389,376 389,372 387,370 385,364 380,348 382,340 383,332 385,326 382,324 379,322 375,316 372,302 373,297" id="97417" class="commune" fill="steelblue" stroke-width="1" stroke="white" geotype="commune" geoname="Saint-Philippe" code_insee="97417" code_canton="97408" nom_canton="" code_intercom="249740085" nom_intercom="CA du Sud" code_arrondissement="9742" nom_arrondissement="Saint-Pierre" code_departement="974" nom_departement="La Réunion" code_region_2015="4" nom_region_2015="La Réunion"/><polygon points="453,396 453,396 453,396 453,396" id="97417" class="commune" fill="steelblue" stroke-width="1" stroke="white" geotype="commune" geoname="Saint-Philippe" code_insee="97417" code_canton="97408" nom_canton="" code_intercom="249740085" nom_intercom="CA du Sud" code_arrondissement="9742" nom_arrondissement="Saint-Pierre" code_departement="974" nom_departement="La Réunion" code_region_2015="4" nom_region_2015="La Réunion"/><polygon points="204,111 211,104 213,98 222,93 220,91 221,73 224,72 223,68 230,51 239,41 233,30 231,9 262,18 269,19 276,16 289,18 291,24 286,39 291,55 282,64 261,107 242,110 238,104 230,104 204,111" id="97418" class="commune" fill="steelblue" stroke-width="1" stroke="white" geotype="commune" geoname="Sainte-Marie" code_insee="97418" code_canton="97423" nom_canton="" code_intercom="249740119" nom_intercom="CA Intercommunale du Nord de la Réunion (Cinor)" code_arrondissement="9741" nom_arrondissement="Saint-Denis" code_departement="974" nom_departement="La Réunion" code_region_2015="4" nom_region_2015="La Réunion"/><polygon points="492,220 492,220 492,220 492,220 492,220" id="97419" class="commune" fill="steelblue" stroke-width="1" stroke="white" geotype="commune" geoname="Sainte-Rose" code_insee="97419" code_canton="97408" nom_canton="" code_intercom="249740093" nom_intercom="CA Intercommunale de la Réunion Est (Cirest)" code_arrondissement="9743" nom_arrondissement="Saint-Benoît" code_departement="974" nom_departement="La Réunion" code_region_2015="4" nom_region_2015="La Réunion"/><polygon points="476,211 477,211 477,211 476,211" id="97419" class="commune" fill="steelblue" stroke-width="1" stroke="white" geotype="commune" geoname="Sainte-Rose" code_insee="97419" code_canton="97408" nom_canton="" code_intercom="249740093" nom_intercom="CA Intercommunale de la Réunion Est (Cirest)" code_arrondissement="9743" nom_arrondissement="Saint-Benoît" code_departement="974" nom_departement="La Réunion" code_region_2015="4" nom_region_2015="La Réunion"/><polygon points="373,297 347,294 353,284 353,274 358,268 373,253 386,253 392,247 403,242 415,239 418,236 419,229 422,229 427,219 422,216 422,214 425,213 423,208 444,187 457,204 467,205 478,214 491,219 493,226 499,233 497,237 500,251 491,254 490,267 482,276 477,287 474,306 373,297" id="97419" class="commune" fill="steelblue" stroke-width="1" stroke="white" geotype="commune" geoname="Sainte-Rose" code_insee="97419" code_canton="97408" nom_canton="" code_intercom="249740093" nom_intercom="CA Intercommunale de la Réunion Est (Cirest)" code_arrondissement="9743" nom_arrondissement="Saint-Benoît" code_departement="974" nom_departement="La Réunion" code_region_2015="4" nom_region_2015="La Réunion"/><polygon points="492,223 492,223 492,223 492,223 492,223" id="97419" class="commune" fill="steelblue" stroke-width="1" stroke="white" geotype="commune" geoname="Sainte-Rose" code_insee="97419" code_canton="97408" nom_canton="" code_intercom="249740093" nom_intercom="CA Intercommunale de la Réunion Est (Cirest)" code_arrondissement="9743" nom_arrondissement="Saint-Benoît" code_departement="974" nom_departement="La Réunion" code_region_2015="4" nom_region_2015="La Réunion"/><polygon points="289,18 296,21 303,20 326,31 333,31 333,44 343,47 346,52 346,57 341,57 337,66 331,68 328,65 317,75 304,80 288,98 273,109 261,107 282,64 291,55 286,39 291,24 289,18" id="97420" class="commune" fill="steelblue" stroke-width="1" stroke="white" geotype="commune" geoname="Sainte-Suzanne" code_insee="97420" code_canton="97404" nom_canton="" code_intercom="249740119" nom_intercom="CA Intercommunale du Nord de la Réunion (Cinor)" code_arrondissement="9741" nom_arrondissement="Saint-Denis" code_departement="974" nom_departement="La Réunion" code_region_2015="4" nom_region_2015="La Réunion"/><polygon points="288,98 297,104 297,108 287,111 276,123 272,134 278,139 278,155 271,162 260,165 252,171 248,167 243,177 231,184 225,193 221,188 213,184 210,178 200,172 183,157 192,150 191,128 198,125 197,116 204,111 230,104 238,104 242,110 261,107 273,109 288,98" id="97421" class="commune" fill="steelblue" stroke-width="1" stroke="white" geotype="commune" geoname="Salazie" code_insee="97421" code_canton="97406" nom_canton="" code_intercom="249740093" nom_intercom="CA Intercommunale de la Réunion Est (Cirest)" code_arrondissement="9743" nom_arrondissement="Saint-Benoît" code_departement="974" nom_departement="La Réunion" code_region_2015="4" nom_region_2015="La Réunion"/><polygon points="212,309 222,301 219,296 226,296 229,290 238,286 239,282 237,280 240,276 234,269 241,266 242,253 247,251 253,254 254,245 246,219 249,218 248,215 251,213 260,214 266,211 273,215 287,211 295,216 293,221 299,225 301,230 299,236 302,243 309,244 310,247 317,251 324,251 329,249 333,240 340,238 358,268 353,274 349,266 339,260 322,272 313,288 313,298 309,307 311,323 292,334 288,342 273,348 269,354 260,355 257,359 244,346 237,346 242,339 227,328 226,322 212,309" id="97422" class="commune" fill="steelblue" stroke-width="1" stroke="white" geotype="commune" geoname="Tampon" code_insee="97422" code_canton="97499" nom_canton="" code_intercom="249740085" nom_intercom="CA du Sud" code_arrondissement="9742" nom_arrondissement="Saint-Pierre" code_departement="974" nom_departement="La Réunion" code_region_2015="4" nom_region_2015="La Réunion"/><polygon points="166,197 161,202 107,195 88,198 44,213 41,207 29,195 30,192 41,191 67,180 85,178 97,180 116,179 129,183 145,183 166,197" id="97423" class="commune" fill="steelblue" stroke-width="1" stroke="white" geotype="commune" geoname="Trois-Bassins" code_insee="97423" code_canton="97414" nom_canton="" code_intercom="249740101" nom_intercom="CA Territoire de la Côte Ouest (Tco)" code_arrondissement="9744" nom_arrondissement="Saint-Paul" code_departement="974" nom_departement="La Réunion" code_region_2015="4" nom_region_2015="La Réunion"/><polygon points="39,206 39,206 39,206 39,206 39,206" id="97423" class="commune" fill="steelblue" stroke-width="1" stroke="white" geotype="commune" geoname="Trois-Bassins" code_insee="97423" code_canton="97414" nom_canton="" code_intercom="249740101" nom_intercom="CA Territoire de la Côte Ouest (Tco)" code_arrondissement="9744" nom_arrondissement="Saint-Paul" code_departement="974" nom_departement="La Réunion" code_region_2015="4" nom_region_2015="La Réunion"/><polygon points="152,220 151,215 161,202 166,197 192,185 193,179 200,172 210,178 213,184 221,188 225,193 232,202 234,216 223,248 198,261 178,257 159,236 152,222 152,220" id="97424" class="commune" fill="steelblue" stroke-width="1" stroke="white" geotype="commune" geoname="Cilaos" code_insee="97424" code_canton="97416" nom_canton="" code_intercom="249740077" nom_intercom="CA Civis (Communauté Intercommunale des Villes Solidaires)" code_arrondissement="9742" nom_arrondissement="Saint-Pierre" code_departement="974" nom_departement="La Réunion" code_region_2015="4" nom_region_2015="La Réunion"/></svg>