<?xml version="1.0" encoding="utf-8"?>
<svg version="1.1" id="svgmap" xmlns="http://www.w3.org/2000/svg" xmlns:xlink="http://www.w3.org/1999/xlink" x="0px" y="0px" width="100%" height="100%" viewBox="0 0 500 463">
<polygon points="162,460 158,462 151,462 146,458 147,456 145,453 146,450 145,449 147,448 160,445 163,440 165,439 165,437 161,434 163,434 161,431 158,431 157,428 156,422 152,418 147,411 154,408 152,407 151,399 151,397 155,394 156,394 158,393 157,390 158,388 156,384 158,382 159,378 155,378 154,375 149,377 149,374 145,372 140,370 139,366 140,364 143,365 142,363 144,363 146,359 141,358 137,354 133,353 129,352 126,353 120,351 122,347 122,346 119,344 118,345 117,343 114,343 112,340 112,336 123,335 124,333 128,331 129,329 128,327 131,328 131,326 127,320 125,320 123,317 122,318 118,315 114,314 105,305 103,302 109,305 113,305 115,303 116,305 123,297 118,292 128,290 130,287 135,287 140,284 146,275 143,273 134,273 129,274 114,266 114,259 118,258 119,257 121,253 120,251 123,249 124,247 122,246 128,242 124,236 118,234 118,233 117,233 115,231 111,231 110,228 107,226 106,225 99,225 98,223 100,222 101,219 102,216 108,214 107,208 105,205 107,202 105,200 96,201 98,204 98,205 96,204 95,205 88,205 89,201 92,199 87,197 86,194 87,194 85,193 82,193 77,195 75,195 75,193 73,193 67,196 63,199 58,200 57,202 50,199 46,202 44,201 42,203 28,199 20,195 14,194 12,196 7,195 7,193 3,192 0,191 4,188 11,184 14,181 14,178 15,177 19,174 26,173 24,164 25,157 29,157 30,156 36,159 38,163 46,159 46,159 50,159 52,156 55,151 52,148 45,146 47,144 58,140 56,137 57,136 65,130 67,132 77,135 86,140 90,138 93,138 96,140 97,138 111,133 117,132 123,132 127,132 131,134 138,133 140,132 140,129 143,127 147,127 147,126 144,119 142,120 140,119 141,118 137,118 137,116 135,115 136,113 133,113 136,109 134,108 130,99 124,101 126,91 132,84 131,80 139,86 159,73 165,86 175,85 180,82 182,72 179,68 177,68 181,65 181,64 178,61 180,58 180,55 182,53 177,51 170,51 163,54 162,54 168,45 169,41 162,31 136,30 134,27 136,23 135,22 132,18 135,18 141,15 145,11 150,11 162,8 174,3 178,3 182,3 198,0 198,2 204,4 211,8 218,9 225,14 225,15 227,15 230,17 233,14 235,15 238,14 238,13 240,11 255,7 259,9 260,13 269,19 274,21 275,23 282,23 287,22 287,22 297,21 303,22 304,23 306,27 310,27 314,27 319,31 323,34 321,39 326,41 328,41 331,44 334,43 338,46 338,53 340,54 339,54 343,55 350,56 357,54 361,54 362,51 365,52 366,50 363,48 365,47 364,43 366,41 364,41 366,38 365,36 367,35 370,38 373,40 381,40 383,42 385,42 386,43 388,43 389,44 387,46 389,46 392,48 391,50 394,50 396,52 403,51 409,45 422,42 428,47 429,50 431,55 432,57 438,61 439,64 439,65 444,72 444,75 439,80 439,84 439,86 433,91 428,101 424,105 420,110 420,112 422,113 422,115 423,118 426,120 431,121 437,123 441,126 447,131 459,138 462,141 463,144 462,152 463,157 468,162 469,164 476,180 478,181 476,187 480,191 481,192 482,200 482,201 482,206 479,211 477,214 479,217 480,218 482,218 482,219 487,219 487,221 491,223 494,224 494,221 497,223 500,230 499,230 498,236 496,239 494,249 497,255 500,256 500,260 495,265 495,266 489,276 490,277 493,281 494,283 496,288 495,293 497,298 491,303 492,306 492,308 487,312 486,315 483,317 482,320 480,320 477,318 467,319 462,317 455,316 454,318 452,319 452,321 450,321 448,320 447,320 446,320 444,320 437,321 435,323 436,326 431,327 423,330 423,333 417,335 410,340 411,346 407,346 404,343 396,343 391,343 388,346 388,348 384,349 382,347 377,349 376,349 377,347 372,345 371,343 369,342 370,340 368,338 366,337 364,339 362,340 361,339 357,341 357,344 355,345 358,346 356,348 357,348 356,349 354,347 352,348 352,349 350,348 350,351 344,353 347,354 338,357 335,360 334,361 334,360 332,359 328,360 326,360 324,364 326,367 330,366 330,366 328,372 326,373 323,371 319,371 319,367 316,370 315,369 305,372 304,374 314,377 315,380 314,383 311,385 312,388 305,391 308,392 310,397 314,397 314,396 318,396 318,397 315,397 318,399 317,402 320,405 320,407 318,408 319,409 321,409 320,411 322,411 322,413 307,418 306,420 296,423 292,425 292,425 290,424 290,422 289,422 286,421 283,422 283,424 277,425 277,420 272,420 267,423 262,423 259,425 257,425 255,423 251,423 248,423 247,425 234,426 230,426 228,426 222,428 215,433 213,436 211,437 213,440 212,443 208,445 204,442 195,452 196,456 193,462 194,463 190,462 185,463 184,461 180,461 176,463 174,462 172,463 162,460" id="18" class="departement" fill="steelblue" stroke-width="1" stroke="white" geotype="departement" geoname="Cher" code_insee="18" code_region_2015="24" nom_region_2015="Centre-Val de Loire"/></svg>