<?xml version="1.0" encoding="utf-8"?>
<svg version="1.1" id="svgmap" xmlns="http://www.w3.org/2000/svg" xmlns:xlink="http://www.w3.org/1999/xlink" x="0px" y="0px" width="100%" height="100%" viewBox="0 0 500 280">
<polygon points="47,213 52,203 102,173 126,220 181,230 179,234 164,230 147,253 124,253 121,261 114,258 107,263 69,242 47,213" id="2142" class="commune" fill="steelblue" stroke-width="1" stroke="white" geotype="commune" geoname="Castres" code_insee="2142" code_canton="215"/><polygon points="47,213 69,242 107,263 96,265 86,280 57,268 55,260 27,258 27,250 14,248 13,255 0,254 4,236 47,213" id="2214" class="commune" fill="steelblue" stroke-width="1" stroke="white" geotype="commune" geoname="Contescourt" code_insee="2214" code_canton="215"/><polygon points="236,145 224,159 254,172 249,178 265,199 251,193 241,196 229,187 216,197 197,193 128,164 114,172 107,168 149,134 170,142 206,129 208,136 236,145" id="2340" class="commune" fill="steelblue" stroke-width="1" stroke="white" geotype="commune" geoname="Gauchy" code_insee="2340" code_canton="215"/><polygon points="102,173 103,172 107,168 114,172 128,164 197,193 216,197 229,187 241,196 231,200 235,205 221,203 205,209 187,231 181,230 126,220 102,173" id="2359" class="commune" fill="steelblue" stroke-width="1" stroke="white" geotype="commune" geoname="Grugies" code_insee="2359" code_canton="215"/><polygon points="332,142 299,135 273,125 265,105 307,100 309,95 363,95 331,106 335,111 360,103 367,108 375,118 342,142 332,142" id="2371" class="commune" fill="steelblue" stroke-width="1" stroke="white" geotype="commune" geoname="Harly" code_insee="2371" code_canton="215"/><polygon points="451,5 477,0 486,9 482,29 500,55 465,68 472,74 464,91 446,94 462,105 467,127 495,124 497,130 484,135 478,131 467,146 451,147 453,141 436,138 417,142 404,130 409,120 367,108 360,103 335,111 331,106 363,95 355,89 366,47 398,22 405,25 416,14 451,5" id="2383" class="commune" fill="steelblue" stroke-width="1" stroke="white" geotype="commune" geoname="Homblières" code_insee="2383" code_canton="215"/><polygon points="332,142 342,142 375,118 367,108 409,120 404,130 417,142 436,138 453,141 451,147 467,146 468,167 443,163 434,175 396,175 396,168 383,177 362,173 355,150 332,142" id="2481" class="commune" fill="steelblue" stroke-width="1" stroke="white" geotype="commune" geoname="Mesnil-Saint-Laurent" code_insee="2481" code_canton="215"/><polygon points="299,135 332,142 355,150 362,173 383,177 396,168 396,175 434,175 442,178 432,190 440,196 430,198 400,189 393,193 376,185 342,191 306,181 314,194 305,188 290,203 287,210 265,199 249,178 254,172 224,159 236,145 255,153 261,150 254,145 299,135" id="2549" class="commune" fill="steelblue" stroke-width="1" stroke="white" geotype="commune" geoname="Neuville-Saint-Amand" code_insee="2549" code_canton="215"/></svg>