<?xml version="1.0" encoding="utf-8"?>
<svg version="1.1" id="svgmap" xmlns="http://www.w3.org/2000/svg" xmlns:xlink="http://www.w3.org/1999/xlink" x="0px" y="0px" width="100%" height="100%" viewBox="0 0 500 495">
<polygon points="447,339 446,343 443,340 419,345 412,352 417,362 396,373 380,390 359,385 347,365 335,366 322,346 303,354 297,345 295,327 310,312 316,306 295,294 292,285 298,280 292,272 303,270 305,262 356,257 386,274 393,320 447,339" id="3023" class="commune" fill="steelblue" stroke-width="1" stroke="white" geotype="commune" geoname="Bellerive-sur-Allier" code_insee="3023" code_canton="301"/><polygon points="51,223 47,225 40,201 23,184 0,189 8,164 23,154 43,151 51,140 54,128 66,121 52,95 49,66 72,77 75,71 101,71 102,65 124,67 137,85 127,94 150,107 156,127 176,138 206,140 243,153 209,184 191,196 172,205 131,197 95,198 81,218 55,218 51,223" id="3043" class="commune" fill="steelblue" stroke-width="1" stroke="white" geotype="commune" geoname="Broût-Vernet" code_insee="3043" code_canton="301"/><polygon points="396,373 400,390 411,390 403,402 423,425 406,426 367,445 344,450 319,447 300,471 260,474 230,484 227,493 218,490 208,495 216,471 167,466 175,461 180,456 175,454 139,456 142,446 152,437 201,424 211,413 231,401 239,405 293,403 294,396 312,394 319,377 335,366 347,365 359,385 380,390 396,373" id="3044" class="commune" fill="steelblue" stroke-width="1" stroke="white" geotype="commune" geoname="Brugheas" code_insee="3044" code_canton="301"/><polygon points="176,378 70,377 43,368 46,361 48,354 63,356 73,329 90,321 109,314 115,324 161,328 179,341 204,331 208,339 227,337 220,345 231,368 194,360 176,378" id="3080" class="commune" fill="steelblue" stroke-width="1" stroke="white" geotype="commune" geoname="Cognat-Lyonne" code_insee="3080" code_canton="301"/><polygon points="47,225 51,223 70,236 65,243 103,241 98,248 123,252 121,293 109,314 90,321 73,309 7,306 18,285 7,282 5,254 47,225" id="3109" class="commune" fill="steelblue" stroke-width="1" stroke="white" geotype="commune" geoname="Escurolles" code_insee="3109" code_canton="301"/><polygon points="109,314 121,293 157,289 152,277 184,267 198,278 221,265 223,275 242,284 291,253 305,262 303,270 292,272 298,280 292,285 295,294 316,306 310,312 289,317 269,337 238,344 227,337 208,339 204,331 179,341 161,328 115,324 109,314" id="3110" class="commune" fill="steelblue" stroke-width="1" stroke="white" geotype="commune" geoname="Espinasse-Vozelle" code_insee="3110" code_canton="301"/><polygon points="411,390 441,397 454,376 500,416 472,438 483,450 460,460 440,458 419,445 406,426 423,425 403,402 411,390" id="3126" class="commune" fill="steelblue" stroke-width="1" stroke="white" geotype="commune" geoname="Hauterive" code_insee="3126" code_canton="301"/><polygon points="124,67 140,55 122,38 144,24 140,22 153,10 166,19 187,15 202,22 196,9 211,0 288,29 297,51 293,57 319,113 317,118 309,114 305,119 289,117 276,127 261,126 260,149 243,153 206,140 176,138 156,127 150,107 127,94 137,85 124,67" id="3227" class="commune" fill="steelblue" stroke-width="1" stroke="white" geotype="commune" geoname="Saint-Didier-la-Forêt" code_insee="3227" code_canton="301"/><polygon points="51,223 55,218 81,218 95,198 131,197 172,205 191,196 192,215 169,234 179,235 181,252 168,255 190,257 181,263 184,267 152,277 157,289 121,293 123,252 98,248 103,241 65,243 70,236 51,223" id="3252" class="commune" fill="steelblue" stroke-width="1" stroke="white" geotype="commune" geoname="Saint-Pont" code_insee="3252" code_canton="301"/><polygon points="211,413 189,411 181,395 168,392 176,378 194,360 231,368 220,345 227,337 238,344 269,337 289,317 310,312 295,327 297,345 303,354 322,346 335,366 319,377 312,394 294,396 293,403 239,405 231,401 211,413" id="3271" class="commune" fill="steelblue" stroke-width="1" stroke="white" geotype="commune" geoname="Serbannes" code_insee="3271" code_canton="301"/><polygon points="191,196 209,184 217,192 292,186 318,204 314,220 304,226 312,237 291,253 242,284 223,275 221,265 198,278 184,267 181,263 190,257 168,255 181,252 179,235 169,234 192,215 191,196" id="3304" class="commune" fill="steelblue" stroke-width="1" stroke="white" geotype="commune" geoname="Vendat" code_insee="3304" code_canton="301"/></svg>