<?xml version="1.0" encoding="utf-8"?>
<svg version="1.1" id="svgmap" xmlns="http://www.w3.org/2000/svg" xmlns:xlink="http://www.w3.org/1999/xlink" x="0px" y="0px" width="100%" height="100%" viewBox="0 0 500 254">
<polygon points="44,164 24,148 33,142 63,157 154,124 169,132 198,99 219,109 225,127 246,125 251,130 256,151 288,159 272,181 246,177 240,160 201,148 185,153 178,167 151,174 101,205 89,184 61,179 44,164" id="7041" class="commune" fill="steelblue" stroke-width="1" stroke="white" geotype="commune" geoname="Boulieu-lès-Annonay" code_insee="7041" code_canton="701"/><polygon points="385,170 377,209 346,215 318,249 320,232 300,227 304,198 256,194 272,181 288,159 334,169 343,141 385,170" id="7078" class="commune" fill="steelblue" stroke-width="1" stroke="white" geotype="commune" geoname="Davézieux" code_insee="7078" code_canton="701"/><polygon points="328,107 343,141 334,169 288,159 256,151 251,130 246,125 225,127 219,109 259,84 284,94 284,115 328,107" id="7225" class="commune" fill="steelblue" stroke-width="1" stroke="white" geotype="commune" geoname="Saint-Clair" code_insee="7225" code_canton="701"/><polygon points="385,170 386,152 401,154 441,178 500,179 492,222 459,253 426,254 403,237 373,232 377,209 385,170" id="7227" class="commune" fill="steelblue" stroke-width="1" stroke="white" geotype="commune" geoname="Saint-Cyr" code_insee="7227" code_canton="701"/><polygon points="198,99 169,132 154,124 63,157 33,142 24,148 4,147 0,135 19,110 23,88 62,80 99,79 91,62 70,55 78,51 72,22 100,24 122,10 129,13 158,60 257,32 242,53 200,81 198,99" id="7265" class="commune" fill="steelblue" stroke-width="1" stroke="white" geotype="commune" geoname="Saint-Marcel-lès-Annonay" code_insee="7265" code_canton="701"/><polygon points="255,14 264,32 322,33 336,48 328,107 284,115 284,94 259,84 219,109 198,99 200,81 242,53 257,32 158,60 129,13 156,1 207,0 203,4 222,10 244,4 255,14" id="7310" class="commune" fill="steelblue" stroke-width="1" stroke="white" geotype="commune" geoname="Savas" code_insee="7310" code_canton="701"/></svg>