<?xml version="1.0" encoding="utf-8"?>
<svg version="1.1" id="svgmap" xmlns="http://www.w3.org/2000/svg" xmlns:xlink="http://www.w3.org/1999/xlink" x="0px" y="0px" width="100%" height="100%" viewBox="0 0 462 500">
<polygon points="202,255 194,281 205,305 189,328 208,345 195,373 196,384 182,399 161,393 155,389 129,397 108,382 89,387 88,372 104,355 89,330 115,295 114,285 127,278 122,271 169,256 202,255" id="7034" class="commune" fill="steelblue" stroke-width="1" stroke="white" geotype="commune" geoname="Bidon" code_insee="7034" code_canton="705"/><polygon points="205,305 194,281 202,255 192,247 181,218 239,225 272,219 288,230 314,231 317,235 336,229 384,231 384,247 358,294 352,342 357,374 297,336 289,339 269,325 244,326 205,305" id="7042" class="commune" fill="steelblue" stroke-width="1" stroke="white" geotype="commune" geoname="Bourg-Saint-Andéol" code_insee="7042" code_canton="705"/><polygon points="202,255 169,256 151,228 139,231 132,217 102,217 90,210 80,214 66,213 56,186 43,187 29,177 10,180 0,173 1,166 12,163 15,151 10,144 26,138 19,120 41,118 36,113 46,108 77,111 76,98 66,87 105,76 126,84 141,82 186,104 199,92 210,95 220,88 235,88 230,123 235,133 203,148 196,163 211,162 215,178 230,189 258,180 269,185 262,197 234,195 212,208 188,210 181,218 192,247 202,255" id="7099" class="commune" fill="steelblue" stroke-width="1" stroke="white" geotype="commune" geoname="Gras" code_insee="7099" code_canton="705"/><polygon points="269,185 258,180 230,189 215,178 211,162 196,163 203,148 235,133 230,123 235,88 238,85 242,94 250,88 279,101 294,98 309,103 304,103 300,117 282,137 287,152 269,185" id="7133" class="commune" fill="steelblue" stroke-width="1" stroke="white" geotype="commune" geoname="Larnas" code_insee="7133" code_canton="705"/><polygon points="364,452 363,458 357,500 351,500 339,476 327,468 294,484 270,459 258,458 258,434 252,418 275,430 290,417 298,417 308,419 314,432 318,428 320,433 336,434 338,443 332,452 322,448 313,450 303,460 332,460 348,448 364,452" id="7259" class="commune" fill="steelblue" stroke-width="1" stroke="white" geotype="commune" geoname="Saint-Just-d'Ardèche" code_insee="7259" code_canton="705"/><polygon points="161,393 182,399 196,384 195,373 208,345 189,328 205,305 244,326 269,325 289,339 297,336 357,374 360,384 364,452 348,448 332,460 303,460 313,450 322,448 332,452 338,443 336,434 320,433 318,428 314,432 308,419 298,417 290,417 275,430 252,418 258,434 243,425 210,423 205,412 185,406 182,409 157,397 161,393" id="7264" class="commune" fill="steelblue" stroke-width="1" stroke="white" geotype="commune" geoname="Saint-Marcel-d'Ardèche" code_insee="7264" code_canton="705"/><polygon points="258,434 258,458 234,452 216,439 202,443 178,435 151,401 157,397 182,409 185,406 205,412 210,423 243,425 258,434" id="7268" class="commune" fill="steelblue" stroke-width="1" stroke="white" geotype="commune" geoname="Saint-Martin-d'Ardèche" code_insee="7268" code_canton="705"/><polygon points="384,231 336,229 317,235 314,231 288,230 272,219 239,225 181,218 188,210 212,208 234,195 262,197 269,185 287,152 282,137 300,117 323,107 333,122 383,113 400,151 390,164 391,171 412,172 391,187 384,231" id="7279" class="commune" fill="steelblue" stroke-width="1" stroke="white" geotype="commune" geoname="Saint-Montan" code_insee="7279" code_canton="705"/><polygon points="300,117 304,103 309,103 316,103 353,66 335,52 340,44 352,40 340,22 353,10 384,17 399,6 431,10 433,0 462,1 443,16 432,45 436,65 455,86 457,109 445,158 433,167 412,172 391,171 390,164 400,151 383,113 333,122 323,107 300,117" id="7346" class="commune" fill="steelblue" stroke-width="1" stroke="white" geotype="commune" geoname="Viviers" code_insee="7346" code_canton="705"/></svg>