<?xml version="1.0" encoding="utf-8"?>
<svg version="1.1" id="svgmap" xmlns="http://www.w3.org/2000/svg" xmlns:xlink="http://www.w3.org/1999/xlink" x="0px" y="0px" width="100%" height="100%" viewBox="0 0 407 500">
<polygon points="361,227 346,253 351,300 368,341 346,337 324,340 322,346 314,339 310,343 320,330 319,319 326,320 328,292 304,277 317,267 308,259 328,256 330,249 335,239 342,240 342,227 361,227" id="7009" class="commune" fill="steelblue" stroke-width="1" stroke="white" geotype="commune" geoname="Andance" code_insee="7009" code_canton="711"/><polygon points="332,499 321,500 314,492 311,462 314,457 325,463 338,461 346,457 346,450 373,450 374,446 406,450 354,498 332,499" id="7015" class="commune" fill="steelblue" stroke-width="1" stroke="white" geotype="commune" geoname="Arras-sur-Rhône" code_insee="7015" code_canton="711"/><polygon points="316,166 318,199 310,205 255,206 232,201 236,174 269,147 284,147 284,174 302,174 305,166 315,163 316,166" id="7036" class="commune" fill="steelblue" stroke-width="1" stroke="white" geotype="commune" geoname="Bogy" code_insee="7036" code_canton="711"/><polygon points="81,110 73,102 57,107 44,103 47,100 85,59 109,49 119,75 81,110" id="7044" class="commune" fill="steelblue" stroke-width="1" stroke="white" geotype="commune" geoname="Brossainc" code_insee="7044" code_canton="711"/><polygon points="364,204 365,211 337,215 310,205 318,199 316,166 364,166 364,204" id="7051" class="commune" fill="steelblue" stroke-width="1" stroke="white" geotype="commune" geoname="Champagne" code_insee="7051" code_canton="711"/><polygon points="252,63 245,68 212,75 198,72 138,35 165,31 170,24 180,26 208,27 196,38 199,43 210,39 214,47 237,51 251,45 252,63" id="7056" class="commune" fill="steelblue" stroke-width="1" stroke="white" geotype="commune" geoname="Charnas" code_insee="7056" code_canton="711"/><polygon points="232,201 255,206 256,228 214,227 185,210 232,201" id="7067" class="commune" fill="steelblue" stroke-width="1" stroke="white" geotype="commune" geoname="Colombier-le-Cardinal" code_insee="7067" code_canton="711"/><polygon points="176,420 192,409 200,413 211,401 208,394 225,388 219,384 273,406 311,462 283,467 290,477 283,481 259,476 233,472 218,457 209,461 189,443 162,457 140,460 140,438 159,437 159,426 176,420" id="7084" class="commune" fill="steelblue" stroke-width="1" stroke="white" geotype="commune" geoname="Eclassan" code_insee="7084" code_canton="711"/><polygon points="198,72 212,75 245,68 245,93 259,99 239,112 245,123 234,143 223,147 211,143 210,132 139,134 128,123 87,123 170,72 198,72" id="7089" class="commune" fill="steelblue" stroke-width="1" stroke="white" geotype="commune" geoname="Félines" code_insee="7089" code_canton="711"/><polygon points="248,0 285,24 285,43 263,46 260,58 259,65 252,63 251,45 237,51 214,47 210,39 199,43 196,38 208,27 180,26 185,9 248,0" id="7143" class="commune" fill="steelblue" stroke-width="1" stroke="white" geotype="commune" geoname="Limony" code_insee="7143" code_canton="711"/><polygon points="406,450 374,446 373,450 346,450 346,457 338,461 325,463 314,457 311,462 273,406 313,403 299,410 293,421 298,424 346,394 354,404 364,405 359,418 366,429 394,434 407,444 406,450" id="7169" class="commune" fill="steelblue" stroke-width="1" stroke="white" geotype="commune" geoname="Ozon" code_insee="7169" code_canton="711"/><polygon points="185,210 175,208 174,222 144,200 133,176 139,134 210,132 211,143 223,147 234,143 248,140 246,149 257,144 269,147 236,174 232,201 185,210" id="7172" class="commune" fill="steelblue" stroke-width="1" stroke="white" geotype="commune" geoname="Peaugres" code_insee="7172" code_canton="711"/><polygon points="316,166 315,163 305,166 302,174 284,174 284,147 269,147 257,144 246,149 248,140 265,133 280,135 303,119 344,146 364,166 316,166" id="7174" class="commune" fill="steelblue" stroke-width="1" stroke="white" geotype="commune" geoname="Peyraud" code_insee="7174" code_canton="711"/><polygon points="250,259 256,228 255,206 310,205 337,215 365,211 361,227 342,227 342,240 335,239 330,249 278,248 250,259" id="7228" class="commune" fill="steelblue" stroke-width="1" stroke="white" geotype="commune" geoname="Saint-Désirat" code_insee="7228" code_canton="711"/><polygon points="250,259 278,248 330,249 328,256 308,259 317,267 304,277 290,285 281,264 250,259" id="7234" class="commune" fill="steelblue" stroke-width="1" stroke="white" geotype="commune" geoname="Saint-Étienne-de-Valoux" code_insee="7234" code_canton="711"/><polygon points="47,100 10,100 0,85 50,55 88,42 115,41 127,45 109,49 85,59 47,100" id="7243" class="commune" fill="steelblue" stroke-width="1" stroke="white" geotype="commune" geoname="Saint-Jacques-d'Atticieux" code_insee="7243" code_canton="711"/><polygon points="305,337 310,343 314,339 322,346 324,340 346,337 368,341 353,361 356,371 368,389 364,405 354,404 346,394 298,424 293,421 299,410 313,403 273,406 219,384 225,374 243,376 243,369 256,376 272,375 274,369 283,372 306,367 305,337" id="7308" class="commune" fill="steelblue" stroke-width="1" stroke="white" geotype="commune" geoname="Sarras" code_insee="7308" code_canton="711"/><polygon points="245,68 252,63 259,65 264,94 303,119 280,135 265,133 248,140 234,143 245,123 239,112 259,99 245,93 245,68" id="7313" class="commune" fill="steelblue" stroke-width="1" stroke="white" geotype="commune" geoname="Serrières" code_insee="7313" code_canton="711"/><polygon points="87,123 81,110 119,75 109,49 127,45 138,35 198,72 170,72 87,123" id="7344" class="commune" fill="steelblue" stroke-width="1" stroke="white" geotype="commune" geoname="Vinzieux" code_insee="7344" code_canton="711"/></svg>