<?xml version="1.0" encoding="utf-8"?>
<svg version="1.1" id="svgmap" xmlns="http://www.w3.org/2000/svg" xmlns:xlink="http://www.w3.org/1999/xlink" x="0px" y="0px" width="100%" height="100%" viewBox="0 0 500 326">
<polygon points="189,304 181,293 182,284 132,279 129,272 140,274 165,262 181,258 190,259 193,268 182,288 184,294 191,304 189,304" id="8011" class="commune" fill="steelblue" stroke-width="1" stroke="white" geotype="commune" geoname="Anchamps" code_insee="8011" code_canton="812"/><polygon points="212,109 204,79 216,66 240,68 256,76 282,71 278,81 295,90 285,105 269,109 255,101 229,102 212,109" id="8166" class="commune" fill="steelblue" stroke-width="1" stroke="white" geotype="commune" geoname="Fépin" code_insee="8166" code_canton="812"/><polygon points="0,166 40,156 108,155 179,136 223,138 235,143 250,135 258,137 262,150 257,160 246,164 248,170 281,190 295,207 319,220 245,223 236,211 215,202 206,204 203,200 194,206 185,199 165,195 166,185 161,184 163,193 146,224 134,222 129,232 97,227 88,230 90,238 77,231 73,210 62,202 50,203 0,166" id="8185" class="commune" fill="steelblue" stroke-width="1" stroke="white" geotype="commune" geoname="Fumay" code_insee="8185" code_canton="812"/><polygon points="407,31 424,24 444,16 459,16 474,19 473,36 482,42 498,44 500,56 460,82 464,89 453,102 461,108 452,129 458,140 435,160 409,165 405,210 401,223 389,233 374,238 357,234 329,222 356,190 353,183 364,165 357,144 367,140 346,117 344,107 326,94 336,94 342,88 343,64 366,69 368,51 384,35 407,31" id="8214" class="commune" fill="steelblue" stroke-width="1" stroke="white" geotype="commune" geoname="Hargnies" code_insee="8214" code_canton="812"/><polygon points="212,109 229,102 255,101 269,109 285,105 295,90 278,81 282,71 288,62 309,72 313,90 326,94 344,107 346,117 367,140 357,144 364,165 353,183 356,190 329,222 319,220 295,207 281,190 248,170 246,164 257,160 262,150 258,137 250,135 235,143 223,138 210,129 205,118 212,109" id="8222" class="commune" fill="steelblue" stroke-width="1" stroke="white" geotype="commune" geoname="Haybes" code_insee="8222" code_canton="812"/><polygon points="288,62 282,71 256,76 240,68 216,66 233,31 228,19 227,9 251,9 262,0 278,3 276,36 288,62" id="8304" class="commune" fill="steelblue" stroke-width="1" stroke="white" geotype="commune" geoname="Montigny-sur-Meuse" code_insee="8304" code_canton="812"/><polygon points="191,304 184,294 182,288 193,268 190,259 181,258 165,262 140,274 129,272 112,280 93,262 85,252 90,238 88,230 97,227 129,232 134,222 146,224 163,193 161,184 166,185 165,195 185,199 194,206 203,200 206,204 215,202 236,211 245,223 319,220 329,222 357,234 349,241 306,252 290,264 304,288 300,298 308,306 302,313 267,326 245,317 246,310 231,291 215,296 209,313 199,312 191,304" id="8363" class="commune" fill="steelblue" stroke-width="1" stroke="white" geotype="commune" geoname="Revin" code_insee="8363" code_canton="812"/></svg>