<?xml version="1.0" encoding="utf-8"?>
<svg version="1.1" id="svgmap" xmlns="http://www.w3.org/2000/svg" xmlns:xlink="http://www.w3.org/1999/xlink" x="0px" y="0px" width="100%" height="100%" viewBox="0 0 500 368">
<polygon points="138,214 120,221 113,222 96,224 88,227 68,225 72,216 63,208 94,198 98,192 109,191 111,198 140,201 143,209 137,211 138,214" id="8007" class="commune" fill="steelblue" stroke-width="1" stroke="white" geotype="commune" geoname="Alleux" code_insee="8007" code_canton="819"/><polygon points="330,31 334,29 347,25 364,36 367,35 367,39 363,43 365,46 361,57 357,57 342,42 342,36 330,31" id="8013" class="commune" fill="steelblue" stroke-width="1" stroke="white" geotype="commune" geoname="Angecourt" code_insee="8013" code_canton="819"/><polygon points="278,169 274,170 270,165 252,160 250,151 268,141 271,135 276,133 286,141 283,145 277,153 278,169" id="8019" class="commune" fill="steelblue" stroke-width="1" stroke="white" geotype="commune" geoname="Grandes-Armoises" code_insee="8019" code_canton="819"/><polygon points="187,194 181,187 175,187 169,183 177,181 175,175 187,177 201,175 206,172 213,172 212,175 221,180 199,191 187,194" id="8020" class="commune" fill="steelblue" stroke-width="1" stroke="white" geotype="commune" geoname="Petites-Armoises" code_insee="8020" code_canton="819"/><polygon points="242,99 243,91 251,91 262,86 272,86 269,89 281,92 271,101 282,101 285,107 283,112 277,111 278,123 273,124 262,125 256,129 249,125 251,123 248,119 250,116 246,110 249,106 242,99" id="8023" class="commune" fill="steelblue" stroke-width="1" stroke="white" geotype="commune" geoname="Artaise-le-Vivier" code_insee="8023" code_canton="819"/><polygon points="246,243 239,245 229,245 213,229 221,229 218,223 227,223 232,218 234,219 248,214 255,207 276,206 278,203 282,210 279,215 264,220 268,222 265,223 267,226 259,227 261,230 250,236 253,239 246,243" id="8033" class="commune" fill="steelblue" stroke-width="1" stroke="white" geotype="commune" geoname="Authe" code_insee="8033" code_canton="819"/><polygon points="276,257 269,249 253,249 248,248 250,246 246,243 253,239 250,236 261,230 259,227 267,226 265,223 268,222 264,220 279,215 282,210 284,213 288,212 291,219 309,226 286,237 284,242 271,245 269,247 273,248 276,257" id="8035" class="commune" fill="steelblue" stroke-width="1" stroke="white" geotype="commune" geoname="Autruche" code_insee="8035" code_canton="819"/><polygon points="170,267 170,269 159,274 144,275 138,280 130,280 115,275 102,278 101,276 96,277 92,271 84,274 82,270 74,276 63,275 66,271 71,271 68,268 86,258 95,253 113,249 122,250 125,254 142,272 170,267" id="8045" class="commune" fill="steelblue" stroke-width="1" stroke="white" geotype="commune" geoname="Ballay" code_insee="8045" code_canton="819"/><polygon points="355,237 343,240 338,249 323,261 312,260 312,265 294,267 292,265 311,251 307,248 316,240 317,232 323,227 333,221 337,226 351,220 368,223 362,225 365,229 355,237" id="8049" class="commune" fill="steelblue" stroke-width="1" stroke="white" geotype="commune" geoname="Bar-lès-Buzancy" code_insee="8049" code_canton="819"/><polygon points="356,302 364,289 368,289 368,281 373,275 371,270 383,270 397,263 426,279 395,302 405,319 391,324 381,323 370,312 356,307 356,302" id="8052" class="commune" fill="steelblue" stroke-width="1" stroke="white" geotype="commune" geoname="Bayonville" code_insee="8052" code_canton="819"/><polygon points="165,182 169,183 175,187 181,187 187,194 205,204 206,215 213,229 229,245 225,246 220,241 216,245 214,248 206,247 186,251 169,264 166,259 175,249 171,242 176,240 178,227 161,216 139,215 138,214 137,211 143,209 140,201 145,196 163,188 165,182" id="8057" class="commune" fill="steelblue" stroke-width="1" stroke="white" geotype="commune" geoname="Belleville-et-Châtillon-sur-Bar" code_insee="8057" code_canton="819"/><polygon points="407,186 417,181 423,182 440,178 439,183 450,187 455,197 461,197 467,204 465,214 428,214 414,222 415,226 409,226 395,221 385,221 386,207 393,198 390,194 395,189 407,186" id="8059" class="commune" fill="steelblue" stroke-width="1" stroke="white" geotype="commune" geoname="Belval-Bois-des-Dames" code_insee="8059" code_canton="819"/><polygon points="278,169 277,153 283,145 284,146 289,142 300,147 314,139 321,140 331,147 344,144 353,148 352,153 347,159 331,160 327,163 324,160 309,167 289,171 278,169" id="8061" class="commune" fill="steelblue" stroke-width="1" stroke="white" geotype="commune" geoname="Berlière" code_insee="8061" code_canton="819"/><polygon points="381,136 349,141 344,144 331,147 321,140 329,132 324,130 310,132 298,123 301,115 309,121 360,103 371,109 368,117 383,130 381,136" id="8063" class="commune" fill="steelblue" stroke-width="1" stroke="white" geotype="commune" geoname="Besace" code_insee="8063" code_canton="819"/><polygon points="170,269 170,267 169,264 186,251 206,247 214,248 216,245 232,252 233,263 219,283 211,284 193,297 188,298 182,284 172,277 170,269" id="8075" class="commune" fill="steelblue" stroke-width="1" stroke="white" geotype="commune" geoname="Boult-aux-Bois" code_insee="8075" code_canton="819"/><polygon points="275,194 278,203 276,206 255,207 248,214 234,219 232,218 227,223 218,223 221,229 213,229 206,215 205,204 187,194 199,191 221,180 225,183 236,179 240,180 226,188 234,203 241,195 246,196 254,193 275,194" id="8085" class="commune" fill="steelblue" stroke-width="1" stroke="white" geotype="commune" geoname="Brieulles-sur-Bar" code_insee="8085" code_canton="819"/><polygon points="257,303 252,307 244,304 237,301 236,294 216,294 212,295 216,311 206,313 205,310 197,310 193,297 211,284 219,283 233,263 245,262 249,265 264,260 275,262 283,270 271,269 261,278 259,294 268,296 257,303" id="8086" class="commune" fill="steelblue" stroke-width="1" stroke="white" geotype="commune" geoname="Briquenay" code_insee="8086" code_canton="819"/><polygon points="262,44 271,37 274,37 302,29 308,36 297,49 296,60 289,63 286,62 286,65 286,65 270,52 263,50 262,44" id="8088" class="commune" fill="steelblue" stroke-width="1" stroke="white" geotype="commune" geoname="Bulson" code_insee="8088" code_canton="819"/><polygon points="294,267 312,265 312,260 323,261 338,249 343,240 355,237 357,243 363,245 376,256 387,251 393,251 401,257 398,262 397,263 383,270 371,270 373,275 368,281 368,289 364,289 356,302 341,304 336,302 333,302 333,296 323,292 334,284 335,279 321,281 315,276 285,270 294,267" id="8089" class="commune" fill="steelblue" stroke-width="1" stroke="white" geotype="commune" geoname="Buzancy" code_insee="8089" code_canton="819"/><polygon points="201,65 209,64 210,64 214,64 220,60 209,53 205,49 207,49 207,46 204,44 201,38 204,32 211,30 218,31 222,33 222,38 228,38 231,41 262,44 263,50 270,52 286,65 272,69 262,86 251,91 243,91 242,99 241,91 225,87 222,83 198,84 195,78 200,79 201,73 190,63 198,67 201,65" id="8115" class="commune" fill="steelblue" stroke-width="1" stroke="white" geotype="commune" geoname="Chémery-sur-Bar" code_insee="8115" code_canton="819"/><polygon points="128,149 165,144 173,153 166,153 176,156 178,160 169,160 162,157 160,176 164,176 165,182 163,188 145,196 140,201 111,198 109,191 107,182 99,181 91,171 95,162 90,151 99,151 108,148 121,146 129,152 128,149" id="8116" class="commune" fill="steelblue" stroke-width="1" stroke="white" geotype="commune" geoname="Chesne" code_insee="8116" code_canton="819"/><polygon points="130,280 138,280 144,275 159,274 170,269 172,277 182,284 164,288 157,293 138,297 124,288 130,280" id="8135" class="commune" fill="steelblue" stroke-width="1" stroke="white" geotype="commune" geoname="Croix-aux-Bois" code_insee="8135" code_canton="819"/><polygon points="355,237 365,229 362,225 368,223 385,221 395,221 409,226 405,237 400,239 402,243 393,251 387,251 376,256 363,245 357,243 355,237" id="8176" class="commune" fill="steelblue" stroke-width="1" stroke="white" geotype="commune" geoname="Fossé" code_insee="8176" code_canton="819"/><polygon points="229,245 239,245 246,243 250,246 248,248 253,249 269,249 276,257 275,262 264,260 249,265 245,262 233,263 232,252 216,245 220,241 225,246 229,245" id="8186" class="commune" fill="steelblue" stroke-width="1" stroke="white" geotype="commune" geoname="Germont" code_insee="8186" code_canton="819"/><polygon points="371,54 361,63 356,66 353,63 341,62 340,64 339,62 333,64 334,62 328,62 323,58 317,64 312,65 311,61 301,68 286,65 286,62 289,63 296,60 297,49 308,36 330,31 342,36 342,42 357,57 361,57 365,46 368,46 370,53 371,54" id="8211" class="commune" fill="steelblue" stroke-width="1" stroke="white" geotype="commune" geoname="Haraucourt" code_insee="8211" code_canton="819"/><polygon points="309,226 323,227 317,232 316,240 307,248 311,251 292,265 294,267 285,270 283,270 275,262 276,257 273,248 269,247 271,245 284,242 286,237 309,226" id="8215" class="commune" fill="steelblue" stroke-width="1" stroke="white" geotype="commune" geoname="Harricourt" code_insee="8215" code_canton="819"/><polygon points="356,302 356,307 370,312 381,323 372,327 371,331 359,330 348,335 343,333 333,334 319,329 322,324 330,320 327,317 339,312 336,302 341,304 356,302" id="8233" class="commune" fill="steelblue" stroke-width="1" stroke="white" geotype="commune" geoname="Imécourt" code_insee="8233" code_canton="819"/><polygon points="405,319 407,321 428,316 433,319 441,319 433,326 436,333 416,351 404,357 407,361 407,368 394,366 382,359 377,360 359,356 348,350 346,346 343,347 333,335 333,334 343,333 348,335 359,330 371,331 372,327 381,323 391,324 405,319" id="8246" class="commune" fill="steelblue" stroke-width="1" stroke="white" geotype="commune" geoname="Landres-et-Saint-Georges" code_insee="8246" code_canton="819"/><polygon points="128,149 129,152 121,146 108,148 99,151 90,151 85,144 84,143 81,121 90,115 85,109 90,107 90,112 100,110 115,114 117,117 113,129 123,134 118,134 121,143 128,149" id="8261" class="commune" fill="steelblue" stroke-width="1" stroke="white" geotype="commune" geoname="Louvergny" code_insee="8261" code_canton="819"/><polygon points="283,112 285,107 282,101 271,101 281,92 269,89 272,86 262,86 272,69 286,65 286,65 301,68 307,71 312,86 308,102 300,105 299,109 301,115 283,112" id="8268" class="commune" fill="steelblue" stroke-width="1" stroke="white" geotype="commune" geoname="Maisoncelle-et-Villers" code_insee="8268" code_canton="819"/><polygon points="271,135 268,141 250,151 223,159 210,138 203,134 197,136 191,128 184,121 188,115 206,102 224,112 227,110 238,113 248,119 251,123 249,125 256,129 262,125 273,124 273,127 269,130 271,135" id="8300" class="commune" fill="steelblue" stroke-width="1" stroke="white" geotype="commune" geoname="Mont-Dieu" code_insee="8300" code_canton="819"/><polygon points="90,151 95,162 91,171 99,181 80,189 62,183 52,174 61,165 67,165 68,157 74,151 82,151 85,144 90,151" id="8301" class="commune" fill="steelblue" stroke-width="1" stroke="white" geotype="commune" geoname="Montgon" code_insee="8301" code_canton="819"/><polygon points="242,99 249,106 246,110 250,116 248,119 238,113 227,110 224,112 206,102 200,91 190,90 198,84 222,83 225,87 241,91 242,99" id="8317" class="commune" fill="steelblue" stroke-width="1" stroke="white" geotype="commune" geoname="Neuville-à-Maire" code_insee="8317" code_canton="819"/><polygon points="139,215 161,216 178,227 176,240 171,242 164,240 158,234 139,232 139,215" id="8325" class="commune" fill="steelblue" stroke-width="1" stroke="white" geotype="commune" geoname="Noirval" code_insee="8325" code_canton="819"/><polygon points="409,226 415,226 414,222 428,214 465,214 478,226 483,225 485,225 460,239 448,254 429,254 411,261 398,262 401,257 393,251 402,243 400,239 405,237 409,226" id="8326" class="commune" fill="steelblue" stroke-width="1" stroke="white" geotype="commune" geoname="Nouart" code_insee="8326" code_canton="819"/><polygon points="274,170 278,169 289,171 309,167 324,160 327,163 323,165 330,174 325,176 321,184 288,188 283,186 277,183 275,176 266,174 274,170" id="8332" class="commune" fill="steelblue" stroke-width="1" stroke="white" geotype="commune" geoname="Oches" code_insee="8332" code_canton="819"/><polygon points="120,221 138,214 139,215 139,232 158,234 164,240 171,242 175,249 166,259 149,258 133,252 125,254 122,250 113,249 112,232 114,224 120,221" id="8350" class="commune" fill="steelblue" stroke-width="1" stroke="white" geotype="commune" geoname="Quatre-Champs" code_insee="8350" code_canton="819"/><polygon points="301,115 301,115 299,109 300,105 308,102 312,86 307,71 301,68 311,61 312,65 317,64 323,58 328,62 334,62 333,64 339,62 340,64 341,62 353,63 356,66 361,63 364,74 374,82 382,84 379,91 360,103 309,121 301,115" id="8354" class="commune" fill="steelblue" stroke-width="1" stroke="white" geotype="commune" geoname="Raucourt-et-Flaba" code_insee="8354" code_canton="819"/><polygon points="365,46 363,43 367,39 367,35 364,36 347,25 334,29 338,23 336,19 338,17 330,6 334,3 338,4 342,0 346,5 359,6 360,10 368,14 378,9 380,11 389,10 396,17 395,20 406,26 405,33 394,39 395,41 383,45 370,53 368,46 365,46" id="8357" class="commune" fill="steelblue" stroke-width="1" stroke="white" geotype="commune" geoname="Remilly-Aillicourt" code_insee="8357" code_canton="819"/><polygon points="278,203 275,194 284,189 283,186 288,188 321,184 325,176 330,174 323,165 327,163 331,160 347,159 352,153 358,152 360,157 368,158 351,168 347,180 329,190 339,201 342,212 333,221 323,227 309,226 291,219 288,212 284,213 282,210 278,203" id="8394" class="commune" fill="steelblue" stroke-width="1" stroke="white" geotype="commune" geoname="Saint-Pierremont" code_insee="8394" code_canton="819"/><polygon points="165,144 128,149 121,143 118,134 123,134 113,129 117,117 131,115 134,108 147,112 162,112 165,117 182,113 188,115 184,121 191,128 186,136 175,140 164,140 165,144" id="8405" class="commune" fill="steelblue" stroke-width="1" stroke="white" geotype="commune" geoname="Sauville" code_insee="8405" code_canton="819"/><polygon points="368,158 397,174 385,178 391,185 378,186 349,201 339,201 329,190 347,180 351,168 368,158" id="8424" class="commune" fill="steelblue" stroke-width="1" stroke="white" geotype="commune" geoname="Sommauthe" code_insee="8424" code_canton="819"/><polygon points="301,115 301,115 298,123 310,132 324,130 329,132 321,140 314,139 300,147 289,142 284,146 283,145 286,141 276,133 271,135 269,130 273,127 273,124 278,123 277,111 283,112 301,115" id="8430" class="commune" fill="steelblue" stroke-width="1" stroke="white" geotype="commune" geoname="Stonne" code_insee="8430" code_canton="819"/><polygon points="274,170 266,174 240,180 236,179 225,183 221,180 212,175 213,172 218,168 218,159 223,159 250,151 252,160 270,165 274,170" id="8434" class="commune" fill="steelblue" stroke-width="1" stroke="white" geotype="commune" geoname="Sy" code_insee="8434" code_canton="819"/><polygon points="441,319 433,319 428,316 407,321 405,319 395,302 426,279 397,263 398,262 411,261 429,254 448,254 460,239 485,225 489,224 495,228 491,231 491,241 483,242 490,260 489,263 500,266 493,273 480,274 473,281 458,286 470,287 472,288 468,291 483,298 489,296 485,298 487,300 482,305 484,312 476,316 471,321 464,319 453,322 441,319" id="8437" class="commune" fill="steelblue" stroke-width="1" stroke="white" geotype="commune" geoname="Tailly" code_insee="8437" code_canton="819"/><polygon points="169,183 165,182 164,176 160,176 162,157 169,160 178,160 176,156 166,153 173,153 165,144 164,140 175,140 186,136 191,128 197,136 203,134 210,138 223,159 218,159 218,168 213,172 206,172 201,175 187,177 175,175 177,181 169,183" id="8439" class="commune" fill="steelblue" stroke-width="1" stroke="white" geotype="commune" geoname="Tannay" code_insee="8439" code_canton="819"/><polygon points="68,225 88,227 96,224 113,222 98,227 95,232 99,236 95,240 52,236 45,237 38,234 39,231 34,231 37,224 30,221 33,218 37,219 36,217 46,220 61,221 68,225" id="8443" class="commune" fill="steelblue" stroke-width="1" stroke="white" geotype="commune" geoname="Terron-sur-Aisne" code_insee="8443" code_canton="819"/><polygon points="283,270 285,270 315,276 321,281 335,279 334,284 323,292 309,294 302,291 301,293 287,292 284,289 268,296 259,294 261,278 271,269 283,270" id="8446" class="commune" fill="steelblue" stroke-width="1" stroke="white" geotype="commune" geoname="Thénorgues" code_insee="8446" code_canton="819"/><polygon points="125,254 133,252 149,258 166,259 169,264 170,267 142,272 125,254" id="8453" class="commune" fill="steelblue" stroke-width="1" stroke="white" geotype="commune" geoname="Toges" code_insee="8453" code_canton="819"/><polygon points="113,222 120,221 114,224 112,232 113,249 95,253 86,258 81,255 75,259 50,266 49,261 44,257 47,254 42,254 49,252 49,256 51,256 53,253 51,252 45,251 48,247 37,246 38,234 45,237 52,236 95,240 99,236 95,232 98,227 113,222" id="8461" class="commune" fill="steelblue" stroke-width="1" stroke="white" geotype="commune" geoname="Vandy" code_insee="8461" code_canton="819"/><polygon points="333,221 342,212 339,201 349,201 378,186 391,185 401,182 407,186 395,189 390,194 393,198 386,207 385,221 368,223 351,220 337,226 333,221" id="8463" class="commune" fill="steelblue" stroke-width="1" stroke="white" geotype="commune" geoname="Vaux-en-Dieulet" code_insee="8463" code_canton="819"/><polygon points="286,328 278,319 280,318 276,312 271,312 261,309 257,303 268,296 284,289 287,292 301,293 302,291 309,294 323,292 333,296 333,302 336,302 339,312 327,317 330,320 322,324 319,329 309,330 296,325 286,328" id="8470" class="commune" fill="steelblue" stroke-width="1" stroke="white" geotype="commune" geoname="Verpel" code_insee="8470" code_canton="819"/><polygon points="275,194 254,193 246,196 241,195 234,203 226,188 240,180 266,174 275,176 277,183 283,186 284,189 275,194" id="8471" class="commune" fill="steelblue" stroke-width="1" stroke="white" geotype="commune" geoname="Verrières" code_insee="8471" code_canton="819"/><polygon points="20,278 24,278 22,274 22,272 43,271 45,267 50,266 75,259 81,255 86,258 68,268 71,271 66,271 63,275 74,276 82,270 84,274 92,271 96,277 101,276 102,278 115,275 130,280 124,288 122,291 112,292 106,297 75,295 74,297 75,298 71,298 71,301 75,302 70,307 74,316 68,319 63,310 56,313 56,315 48,316 40,316 40,312 23,307 10,313 9,311 0,303 4,302 4,299 0,296 5,294 8,287 20,278" id="8490" class="commune" fill="steelblue" stroke-width="1" stroke="white" geotype="commune" geoname="Vouziers" code_insee="8490" code_canton="819"/></svg>