<?xml version="1.0" encoding="utf-8"?>
<svg version="1.1" id="svgmap" xmlns="http://www.w3.org/2000/svg" xmlns:xlink="http://www.w3.org/1999/xlink" x="0px" y="0px" width="100%" height="100%" viewBox="0 0 500 340">
<polygon points="119,23 164,46 171,42 194,75 246,102 228,106 197,145 176,148 154,126 109,113 145,55 117,39 119,23" id="9099" class="commune" fill="steelblue" stroke-width="1" stroke="white" geotype="commune" geoname="Cos" code_insee="9099" code_canton="905"/><polygon points="237,252 258,223 315,194 339,187 339,208 329,246 238,261 237,252" id="9121" class="commune" fill="steelblue" stroke-width="1" stroke="white" geotype="commune" geoname="Ferrières-sur-Ariège" code_insee="9121" code_canton="905"/><polygon points="385,40 343,82 345,99 326,106 347,123 346,134 366,144 404,167 424,196 377,222 371,203 339,208 339,187 315,194 258,223 237,252 240,210 208,186 218,165 185,166 176,148 197,145 228,106 246,102 285,105 316,77 306,57 319,48 312,20 313,0 330,2 385,40" id="9122" class="commune" fill="steelblue" stroke-width="1" stroke="white" geotype="commune" geoname="Foix" code_insee="9122" code_canton="905"/><polygon points="0,331 6,310 75,262 75,248 109,223 94,205 115,171 135,166 138,157 185,166 218,165 208,186 240,210 237,252 238,261 154,309 156,320 140,336 99,340 49,324 22,334 0,331" id="9130" class="commune" fill="steelblue" stroke-width="1" stroke="white" geotype="commune" geoname="Ganac" code_insee="9130" code_canton="905"/><polygon points="329,246 339,208 371,203 377,222 424,196 404,167 468,183 458,241 495,244 500,258 491,264 402,268 378,289 367,256 329,246" id="9207" class="commune" fill="steelblue" stroke-width="1" stroke="white" geotype="commune" geoname="Montgaillard" code_insee="9207" code_canton="905"/><polygon points="108,146 79,122 79,117 93,105 109,113 154,126 176,148 185,166 138,157 108,146" id="9273" class="commune" fill="steelblue" stroke-width="1" stroke="white" geotype="commune" geoname="Saint-Pierre-de-Rivière" code_insee="9273" code_canton="905"/></svg>