<?xml version="1.0" encoding="utf-8"?>
<svg version="1.1" id="svgmap" xmlns="http://www.w3.org/2000/svg" xmlns:xlink="http://www.w3.org/1999/xlink" x="0px" y="0px" width="100%" height="100%" viewBox="0 0 500 270">
<polygon points="425,261 399,270 392,261 359,254 377,239 378,226 406,234 419,234 423,243 425,261" id="9040" class="commune" fill="steelblue" stroke-width="1" stroke="white" geotype="commune" geoname="Bastide-de-Lordat" code_insee="9040" code_canton="910"/><polygon points="201,217 178,206 152,208 147,199 134,192 133,186 140,180 150,183 153,177 177,183 186,184 201,178 222,186 249,184 249,187 248,200 201,217" id="9060" class="commune" fill="steelblue" stroke-width="1" stroke="white" geotype="commune" geoname="Bonnac" code_insee="9060" code_canton="910"/><polygon points="58,111 61,106 71,110 75,124 102,136 118,138 111,145 112,162 105,158 86,161 82,153 46,153 41,149 50,138 55,118 65,115 58,111" id="9067" class="commune" fill="steelblue" stroke-width="1" stroke="white" geotype="commune" geoname="Brie" code_insee="9067" code_canton="910"/><polygon points="71,110 61,106 58,111 57,98 39,91 47,87 57,71 96,55 90,52 122,40 117,30 126,25 143,49 132,51 133,57 109,68 106,75 93,79 88,91 92,94 83,106 71,110" id="9076" class="commune" fill="steelblue" stroke-width="1" stroke="white" geotype="commune" geoname="Canté" code_insee="9076" code_canton="910"/><polygon points="46,153 82,153 86,161 86,165 77,185 59,187 65,192 60,197 41,188 26,189 0,175 12,166 37,165 46,153" id="9117" class="commune" fill="steelblue" stroke-width="1" stroke="white" geotype="commune" geoname="Esplas" code_insee="9117" code_canton="910"/><polygon points="371,207 379,179 388,167 394,174 411,170 443,178 444,189 500,215 493,222 463,207 433,213 430,209 424,213 399,205 371,207" id="9132" class="commune" fill="steelblue" stroke-width="1" stroke="white" geotype="commune" geoname="Gaudiès" code_insee="9132" code_canton="910"/><polygon points="55,118 50,138 41,149 27,149 16,144 10,124 14,114 28,106 55,118" id="9146" class="commune" fill="steelblue" stroke-width="1" stroke="white" geotype="commune" geoname="Justiniac" code_insee="9146" code_canton="910"/><polygon points="117,30 122,40 90,52 96,55 57,71 46,63 117,28 117,30" id="9147" class="commune" fill="steelblue" stroke-width="1" stroke="white" geotype="commune" geoname="Labatut" code_insee="9147" code_canton="910"/><polygon points="76,15 79,38 115,25 117,28 46,63 36,63 33,56 38,49 47,38 51,40 65,34 76,15" id="9170" class="commune" fill="steelblue" stroke-width="1" stroke="white" geotype="commune" geoname="Lissac" code_insee="9170" code_canton="910"/><polygon points="388,167 379,179 361,162 340,152 261,129 263,102 267,91 282,91 300,80 302,70 293,65 291,53 330,20 354,32 376,60 371,73 364,75 373,79 383,78 376,87 387,90 397,106 410,111 406,122 413,131 387,151 388,167" id="9185" class="commune" fill="steelblue" stroke-width="1" stroke="white" geotype="commune" geoname="Mazères" code_insee="9185" code_canton="910"/><polygon points="379,179 371,207 373,217 354,224 347,250 322,246 325,237 324,229 316,226 308,194 285,195 249,187 249,184 249,175 237,161 236,153 227,154 221,114 263,102 261,129 340,152 361,162 379,179" id="9199" class="commune" fill="steelblue" stroke-width="1" stroke="white" geotype="commune" geoname="Montaut" code_insee="9199" code_canton="910"/><polygon points="76,15 65,34 51,40 47,38 38,49 30,39 44,29 39,20 44,1 60,12 70,0 79,7 76,15" id="9275" class="commune" fill="steelblue" stroke-width="1" stroke="white" geotype="commune" geoname="Saint-Quirc" code_insee="9275" code_canton="910"/><polygon points="177,183 153,177 150,183 140,180 133,186 86,165 86,161 105,158 112,162 111,145 118,138 102,136 75,124 71,110 83,106 92,94 88,91 93,79 106,75 109,68 133,57 132,51 143,49 156,65 164,62 171,47 161,36 167,28 172,34 177,30 182,40 211,44 223,54 271,61 267,91 263,102 221,114 227,154 214,153 209,160 197,161 181,168 177,183" id="9282" class="commune" fill="steelblue" stroke-width="1" stroke="white" geotype="commune" geoname="Saverdun" code_insee="9282" code_canton="910"/><polygon points="419,234 406,234 378,226 373,217 371,207 399,205 424,213 428,219 420,224 419,234" id="9315" class="commune" fill="steelblue" stroke-width="1" stroke="white" geotype="commune" geoname="Trémoulet" code_insee="9315" code_canton="910"/><polygon points="249,184 222,186 201,178 186,184 177,183 181,168 197,161 209,160 214,153 227,154 236,153 237,161 249,175 249,184" id="9331" class="commune" fill="steelblue" stroke-width="1" stroke="white" geotype="commune" geoname="Vernet" code_insee="9331" code_canton="910"/><polygon points="248,200 249,187 285,195 308,194 316,226 324,229 325,237 316,244 276,236 262,240 247,239 236,213 248,209 248,200" id="9339" class="commune" fill="steelblue" stroke-width="1" stroke="white" geotype="commune" geoname="Villeneuve-du-Paréage" code_insee="9339" code_canton="910"/></svg>