<?xml version="1.0" encoding="utf-8"?>
<svg version="1.1" id="svgmap" xmlns="http://www.w3.org/2000/svg" xmlns:xlink="http://www.w3.org/1999/xlink" x="0px" y="0px" width="100%" height="100%" viewBox="0 0 500 491">
<polygon points="266,140 285,142 311,144 306,152 306,185 290,188 285,192 271,169 273,147 271,141 266,140" id="10043" class="commune" fill="steelblue" stroke-width="1" stroke="white" geotype="commune" geoname="Bessy" code_insee="10043" code_canton="1006"/><polygon points="139,83 145,82 146,76 190,80 173,123 157,129 141,126 141,121 114,121 100,117 104,114 110,113 113,118 123,119 125,112 120,112 134,97 135,83 139,83" id="10052" class="commune" fill="steelblue" stroke-width="1" stroke="white" geotype="commune" geoname="Boulages" code_insee="10052" code_canton="1006"/><polygon points="326,40 340,39 360,42 341,63 355,68 339,80 332,78 326,86 313,84 303,77 292,77 287,85 273,83 258,105 240,86 257,56 268,48 289,50 294,46 322,43 326,40" id="10075" class="commune" fill="steelblue" stroke-width="1" stroke="white" geotype="commune" geoname="Champfleury" code_insee="10075" code_canton="1006"/><polygon points="257,295 260,294 292,278 301,284 322,283 324,287 350,273 368,288 362,293 336,302 349,319 362,339 344,343 329,325 311,336 304,328 295,330 276,320 270,321 265,313 269,309 257,295" id="10082" class="commune" fill="steelblue" stroke-width="1" stroke="white" geotype="commune" geoname="Chapelle-Vallon" code_insee="10082" code_canton="1006"/><polygon points="157,184 161,182 163,179 169,166 164,166 169,155 159,154 161,147 166,148 168,144 167,144 168,141 167,140 168,136 172,132 172,132 174,133 173,134 173,135 171,136 174,137 172,138 172,140 170,140 169,140 167,140 173,142 177,141 178,141 179,144 184,145 187,144 201,147 202,146 208,147 213,149 215,147 215,145 219,143 222,145 221,146 224,146 226,145 230,144 231,144 231,146 232,145 230,153 231,156 230,156 230,176 227,178 225,178 225,179 219,183 214,186 214,187 191,191 191,193 170,196 157,184" id="10086" class="commune" fill="steelblue" stroke-width="1" stroke="white" geotype="commune" geoname="Charny-le-Bachot" code_insee="10086" code_canton="1006"/><polygon points="17,263 3,257 5,247 0,247 24,198 37,195 42,201 49,199 67,205 80,206 75,208 80,216 85,216 84,221 36,261 29,255 17,263" id="10089" class="commune" fill="steelblue" stroke-width="1" stroke="white" geotype="commune" geoname="Châtres" code_insee="10089" code_canton="1006"/><polygon points="257,295 269,309 265,313 270,321 247,333 216,336 197,320 194,323 188,322 183,313 207,309 207,307 257,295" id="10090" class="commune" fill="steelblue" stroke-width="1" stroke="white" geotype="commune" geoname="Chauchigny" code_insee="10090" code_canton="1006"/><polygon points="492,408 489,412 500,426 480,430 480,435 430,444 434,448 422,454 430,461 422,475 407,474 399,469 408,469 410,463 411,451 403,447 411,436 400,430 409,418 428,410 430,405 458,395 454,399 468,410 475,407 477,412 488,406 492,408" id="10115" class="commune" fill="steelblue" stroke-width="1" stroke="white" geotype="commune" geoname="Creney-près-Troyes" code_insee="10115" code_canton="1006"/><polygon points="169,274 165,273 146,251 149,241 164,237 160,234 164,229 192,227 206,220 219,217 221,220 236,214 256,241 238,249 243,251 240,256 196,269 184,271 182,269 169,274" id="10131" class="commune" fill="steelblue" stroke-width="1" stroke="white" geotype="commune" geoname="Droupt-Saint-Basle" code_insee="10131" code_canton="1006"/><polygon points="170,196 191,193 191,191 214,187 231,210 236,214 221,220 219,217 206,220 192,227 164,229 160,234 164,237 149,241 146,251 127,237 119,232 124,229 124,220 130,221 148,210 151,212 171,199 170,196" id="10132" class="commune" fill="steelblue" stroke-width="1" stroke="white" geotype="commune" geoname="Droupt-Sainte-Marie" code_insee="10132" code_canton="1006"/><polygon points="104,114 100,117 114,121 110,132 115,139 123,141 119,167 83,163 83,160 79,160 71,160 69,138 74,136 74,126 77,127 75,122 64,121 63,111 80,114 86,110 88,113 97,113 99,116 102,114 104,114" id="10144" class="commune" fill="steelblue" stroke-width="1" stroke="white" geotype="commune" geoname="Étrelles-sur-Aube" code_insee="10144" code_canton="1006"/><polygon points="58,337 99,316 108,319 124,311 130,318 144,312 149,315 150,322 153,321 157,328 127,342 128,348 119,352 104,360 100,355 87,362 83,358 77,354 81,351 65,339 60,341 58,337" id="10151" class="commune" fill="steelblue" stroke-width="1" stroke="white" geotype="commune" geoname="Fontaine-les-Grès" code_insee="10151" code_canton="1006"/><polygon points="350,273 324,287 322,283 301,284 292,278 260,294 252,286 255,282 249,279 254,277 238,258 240,256 243,251 238,249 256,241 277,232 286,234 295,227 307,232 313,228 317,235 343,256 355,263 361,267 350,273" id="10166" class="commune" fill="steelblue" stroke-width="1" stroke="white" geotype="commune" geoname="Grandes-Chapelles" code_insee="10166" code_canton="1006"/><polygon points="357,460 350,447 404,414 409,418 400,430 411,436 403,447 393,445 383,448 362,461 364,465 357,460" id="10191" class="commune" fill="steelblue" stroke-width="1" stroke="white" geotype="commune" geoname="Lavau" code_insee="10191" code_canton="1006"/><polygon points="168,136 167,140 168,141 167,144 168,144 166,148 161,147 159,154 169,155 164,166 169,166 163,179 161,182 157,184 151,188 144,181 136,173 126,174 127,167 119,167 123,141 115,139 110,132 114,121 141,121 141,126 157,129 168,136" id="10207" class="commune" fill="steelblue" stroke-width="1" stroke="white" geotype="commune" geoname="Longueville-sur-Aube" code_insee="10207" code_canton="1006"/><polygon points="362,339 363,341 367,352 336,357 281,383 276,391 279,389 279,395 254,378 242,367 250,371 258,367 251,358 311,336 329,325 344,343 362,339" id="10230" class="commune" fill="steelblue" stroke-width="1" stroke="white" geotype="commune" geoname="Mergey" code_insee="10230" code_canton="1006"/><polygon points="157,184 170,196 171,199 151,212 148,210 130,221 124,220 124,229 119,232 127,237 118,242 115,238 108,224 102,232 90,229 84,221 85,216 80,216 75,208 80,206 93,202 128,181 132,185 144,181 151,188 157,184" id="10233" class="commune" fill="steelblue" stroke-width="1" stroke="white" geotype="commune" geoname="Méry-sur-Seine" code_insee="10233" code_canton="1006"/><polygon points="36,261 84,221 90,229 102,232 108,224 115,238 92,253 86,251 62,268 53,262 45,268 36,261" id="10234" class="commune" fill="steelblue" stroke-width="1" stroke="white" geotype="commune" geoname="Mesgrigny" code_insee="10234" code_canton="1006"/><polygon points="232,145 231,146 231,144 230,144 226,145 224,146 221,146 222,145 219,143 215,145 215,147 213,149 208,147 202,146 201,147 187,144 184,145 179,144 178,141 177,141 173,142 167,140 169,140 170,140 172,140 172,138 174,137 171,136 173,135 173,134 174,133 172,132 172,132 168,136 157,129 173,123 190,80 199,58 212,46 215,43 217,49 228,51 231,46 237,43 251,45 233,79 240,86 258,105 273,83 287,85 292,77 303,77 313,84 326,86 305,111 297,134 291,133 285,142 266,140 247,138 239,142 241,145 232,145" id="10289" class="commune" fill="steelblue" stroke-width="1" stroke="white" geotype="commune" geoname="Plancy-l'Abbaye" code_insee="10289" code_canton="1006"/><polygon points="285,192 290,188 306,185 312,198 330,209 337,207 343,212 317,235 313,228 307,232 295,227 286,234 277,232 256,241 236,214 231,210 271,202 278,194 285,192" id="10305" class="commune" fill="steelblue" stroke-width="1" stroke="white" geotype="commune" geoname="Prémierfait" code_insee="10305" code_canton="1006"/><polygon points="214,187 214,186 219,183 225,179 225,178 227,178 230,176 230,156 231,156 230,153 232,145 241,145 239,142 247,138 266,140 271,141 273,147 271,169 285,192 278,194 271,202 231,210 214,187" id="10316" class="commune" fill="steelblue" stroke-width="1" stroke="white" geotype="commune" geoname="Rhèges" code_insee="10316" code_canton="1006"/><polygon points="260,294 257,295 207,307 207,309 183,313 178,310 184,310 177,305 181,301 176,296 184,292 169,274 182,269 184,271 196,269 240,256 238,258 254,277 249,279 255,282 252,286 260,294" id="10320" class="commune" fill="steelblue" stroke-width="1" stroke="white" geotype="commune" geoname="Rilly-Sainte-Syre" code_insee="10320" code_canton="1006"/><polygon points="367,352 366,365 375,375 337,391 334,388 302,400 295,406 303,409 300,410 287,405 289,402 279,395 279,389 276,391 281,383 336,357 367,352" id="10336" class="commune" fill="steelblue" stroke-width="1" stroke="white" geotype="commune" geoname="Saint-Benoît-sur-Seine" code_insee="10336" code_canton="1006"/><polygon points="375,375 389,367 395,379 391,382 394,384 387,388 393,397 381,402 385,406 396,400 400,402 397,413 401,411 404,414 350,447 350,443 337,444 330,440 323,431 307,420 300,410 303,409 295,406 302,400 334,388 337,391 375,375" id="10352" class="commune" fill="steelblue" stroke-width="1" stroke="white" geotype="commune" geoname="Sainte-Maure" code_insee="10352" code_canton="1006"/><polygon points="165,273 169,274 184,292 176,296 181,301 177,305 149,315 144,312 130,318 124,311 108,319 99,316 58,337 48,323 72,309 126,278 138,280 153,275 157,283 167,280 165,273" id="10353" class="commune" fill="steelblue" stroke-width="1" stroke="white" geotype="commune" geoname="Saint-Mesmin" code_insee="10353" code_canton="1006"/><polygon points="80,206 67,205 49,199 42,201 37,195 45,189 60,187 78,168 79,160 83,160 83,163 119,167 127,167 126,174 136,173 144,181 132,185 128,181 93,202 80,206" id="10356" class="commune" fill="steelblue" stroke-width="1" stroke="white" geotype="commune" geoname="Saint-Oulph" code_insee="10356" code_canton="1006"/><polygon points="326,40 322,43 294,46 289,50 268,48 257,56 240,86 233,79 251,45 237,43 231,46 227,47 226,44 236,15 260,0 289,2 297,6 307,2 317,4 321,4 324,1 348,7 326,40" id="10365" class="commune" fill="steelblue" stroke-width="1" stroke="white" geotype="commune" geoname="Salon" code_insee="10365" code_canton="1006"/><polygon points="183,313 188,322 194,323 197,320 216,336 223,349 216,353 211,352 191,364 154,379 151,380 144,373 135,370 119,352 128,348 127,342 157,328 153,321 150,322 149,315 177,305 184,310 178,310 183,313" id="10368" class="commune" fill="steelblue" stroke-width="1" stroke="white" geotype="commune" geoname="Savières" code_insee="10368" code_canton="1006"/><polygon points="450,360 462,388 465,391 458,395 430,405 428,410 409,418 404,414 401,411 397,413 400,402 396,400 385,406 381,402 393,397 387,388 394,384 391,382 395,379 400,382 450,360" id="10391" class="commune" fill="steelblue" stroke-width="1" stroke="white" geotype="commune" geoname="Vailly" code_insee="10391" code_canton="1006"/><polygon points="146,251 165,273 167,280 157,283 153,275 138,280 126,278 72,309 59,304 66,301 61,295 67,292 58,277 62,268 86,251 92,253 115,238 118,242 127,237 146,251" id="10392" class="commune" fill="steelblue" stroke-width="1" stroke="white" geotype="commune" geoname="Vallant-Saint-Georges" code_insee="10392" code_canton="1006"/><polygon points="367,80 347,101 340,111 343,119 324,142 322,139 318,141 317,147 311,144 285,142 291,133 297,134 305,111 326,86 332,78 339,80 355,68 372,76 367,80" id="10408" class="commune" fill="steelblue" stroke-width="1" stroke="white" geotype="commune" geoname="Viâpres-le-Petit" code_insee="10408" code_canton="1006"/><polygon points="270,321 276,320 295,330 304,328 311,336 251,358 258,367 250,371 242,367 223,349 216,336 247,333 270,321" id="10409" class="commune" fill="steelblue" stroke-width="1" stroke="white" geotype="commune" geoname="Villacerf" code_insee="10409" code_canton="1006"/><polygon points="480,488 466,491 449,488 435,489 433,478 422,475 430,461 422,454 434,448 430,444 480,435 480,430 500,426 500,427 498,432 491,433 494,441 494,445 481,447 474,458 475,472 467,475 469,478 477,477 480,488" id="10412" class="commune" fill="steelblue" stroke-width="1" stroke="white" geotype="commune" geoname="Villechétif" code_insee="10412" code_canton="1006"/></svg>