<?xml version="1.0" encoding="utf-8"?>
<svg version="1.1" id="svgmap" xmlns="http://www.w3.org/2000/svg" xmlns:xlink="http://www.w3.org/1999/xlink" x="0px" y="0px" width="100%" height="100%" viewBox="0 0 500 317">
<polygon points="111,216 128,219 152,225 208,260 222,285 247,291 244,300 231,303 218,296 204,312 190,314 183,309 163,312 162,306 163,317 118,308 125,296 117,280 135,264 122,258 127,235 111,216" id="13021" class="commune" fill="steelblue" stroke-width="1" stroke="white" geotype="commune" geoname="Carry-le-Rouet" code_insee="13021" code_canton="1311"/><polygon points="128,219 111,216 37,225 29,206 39,189 24,175 40,160 21,128 69,117 77,118 75,129 90,138 124,132 212,82 248,116 260,146 273,148 270,174 250,186 245,220 215,225 135,206 128,219" id="13026" class="commune" fill="steelblue" stroke-width="1" stroke="white" geotype="commune" geoname="Châteauneuf-les-Martigues" code_insee="13026" code_canton="1311"/><polygon points="372,307 377,306 377,307 374,308 372,307" id="13033" class="commune" fill="steelblue" stroke-width="1" stroke="white" geotype="commune" geoname="Ensuès-la-Redonne" code_insee="13033" code_canton="1311"/><polygon points="244,300 247,291 222,285 208,260 152,225 128,219 135,206 215,225 245,220 250,186 270,174 281,199 285,186 320,175 326,190 355,211 362,228 353,243 377,260 378,271 368,276 377,303 336,311 330,302 327,308 305,309 278,297 275,307 262,308 244,300" id="13033" class="commune" fill="steelblue" stroke-width="1" stroke="white" geotype="commune" geoname="Ensuès-la-Redonne" code_insee="13033" code_canton="1311"/><polygon points="446,125 448,127 463,152 432,156 432,147 416,147 387,167 356,176 320,175 285,186 281,199 270,174 273,148 446,125" id="13043" class="commune" fill="steelblue" stroke-width="1" stroke="white" geotype="commune" geoname="Gignac-la-Nerthe" code_insee="13043" code_canton="1311"/><polygon points="273,148 260,146 248,116 212,82 269,35 295,23 271,6 279,0 305,18 335,5 351,27 359,26 369,62 383,71 351,78 369,100 421,103 446,125 273,148" id="13054" class="commune" fill="steelblue" stroke-width="1" stroke="white" geotype="commune" geoname="Marignane" code_insee="13054" code_canton="1311"/><polygon points="463,152 475,158 483,179 500,195 482,215 492,247 450,277 438,276 434,287 423,286 393,303 377,303 368,276 378,271 377,260 353,243 362,228 355,211 326,190 320,175 356,176 387,167 416,147 432,147 432,156 463,152" id="13088" class="commune" fill="steelblue" stroke-width="1" stroke="white" geotype="commune" geoname="Rove" code_insee="13088" code_canton="1311"/><polygon points="111,216 127,235 122,258 135,264 117,280 125,296 118,308 78,312 51,310 54,306 49,304 51,311 25,311 0,299 9,282 38,266 37,225 111,216" id="13104" class="commune" fill="steelblue" stroke-width="1" stroke="white" geotype="commune" geoname="Sausset-les-Pins" code_insee="13104" code_canton="1311"/></svg>