<?xml version="1.0" encoding="utf-8"?>
<svg version="1.1" id="svgmap" xmlns="http://www.w3.org/2000/svg" xmlns:xlink="http://www.w3.org/1999/xlink" x="0px" y="0px" width="100%" height="100%" viewBox="0 0 500 299">
<polygon points="66,29 83,34 90,39 105,41 112,44 111,51 130,62 121,65 122,67 156,77 160,89 160,125 151,144 151,164 141,168 138,163 134,167 118,165 120,155 108,121 83,106 78,107 71,94 65,93 43,77 40,63 38,59 42,51 53,46 58,33 66,29" id="15026" class="commune" fill="steelblue" stroke-width="1" stroke="white" geotype="commune" geoname="Brezons" code_insee="15026" code_canton="1512"/><polygon points="263,146 250,151 225,154 218,168 208,167 206,170 191,167 181,158 180,161 177,159 151,164 151,144 160,125 160,89 156,77 122,67 121,65 130,62 199,87 200,93 205,92 212,96 203,102 211,108 220,112 228,110 246,124 258,128 266,139 260,144 263,146" id="15033" class="commune" fill="steelblue" stroke-width="1" stroke="white" geotype="commune" geoname="Cézens" code_insee="15033" code_canton="1512"/><polygon points="263,146 260,144 266,139 258,128 272,128 279,121 280,111 295,114 304,100 310,102 318,96 319,99 328,98 335,103 338,100 333,107 338,110 330,113 332,118 328,119 334,120 327,126 316,144 319,142 320,149 310,150 297,166 292,157 274,154 263,146" id="15059" class="commune" fill="steelblue" stroke-width="1" stroke="white" geotype="commune" geoname="Cussac" code_insee="15059" code_canton="1512"/><polygon points="213,205 208,204 203,191 199,191 207,184 199,177 206,170 208,167 218,168 225,154 250,151 255,161 251,165 254,172 244,175 254,184 243,185 225,197 211,198 218,203 213,205" id="15077" class="commune" fill="steelblue" stroke-width="1" stroke="white" geotype="commune" geoname="Gourdièges" code_insee="15077" code_canton="1512"/><polygon points="33,184 31,188 22,190 17,205 7,199 10,197 5,195 0,179 3,154 8,149 12,151 18,148 19,133 27,141 30,157 22,180 25,183 29,180 33,184" id="15086" class="commune" fill="steelblue" stroke-width="1" stroke="white" geotype="commune" geoname="Lacapelle-Barrès" code_insee="15086" code_canton="1512"/><polygon points="36,183 33,184 29,180 25,183 22,180 30,157 27,141 19,133 9,113 26,95 33,93 33,85 37,86 34,76 40,63 43,77 65,93 71,94 78,107 83,106 81,112 93,123 92,134 105,138 107,144 99,148 101,156 95,156 87,165 91,167 85,168 89,174 84,174 87,175 80,179 73,176 63,177 65,166 60,163 57,151 52,153 54,163 45,168 41,181 36,183" id="15112" class="commune" fill="steelblue" stroke-width="1" stroke="white" geotype="commune" geoname="Malbo" code_insee="15112" code_canton="1512"/><polygon points="86,225 80,214 57,194 52,193 41,200 42,190 36,183 41,181 45,168 54,163 52,153 57,151 60,163 65,166 63,177 73,176 80,179 87,175 84,174 89,174 98,193 106,198 99,206 102,215 86,225" id="15139" class="commune" fill="steelblue" stroke-width="1" stroke="white" geotype="commune" geoname="Narnhac" code_insee="15139" code_canton="1512"/><polygon points="250,151 263,146 274,154 292,157 297,166 319,185 313,194 319,200 312,208 317,219 315,225 320,228 319,240 308,250 288,254 283,247 271,246 267,250 255,251 247,249 239,235 253,237 258,231 249,221 230,214 233,211 216,212 211,209 213,205 218,203 211,198 225,197 243,185 254,184 244,175 254,172 251,165 255,161 250,151" id="15145" class="commune" fill="steelblue" stroke-width="1" stroke="white" geotype="commune" geoname="Oradour" code_insee="15145" code_canton="1512"/><polygon points="353,84 347,89 326,94 328,98 319,99 318,96 310,102 304,100 295,114 280,111 279,121 272,128 258,128 246,124 228,110 220,112 211,108 203,102 212,96 205,92 200,93 199,87 130,62 111,51 112,44 105,41 114,34 125,38 147,39 178,40 182,43 204,43 200,58 221,66 232,57 236,61 251,63 268,64 267,61 276,62 274,60 280,57 285,60 288,56 305,60 307,56 313,60 315,57 317,60 309,70 316,70 315,75 321,74 317,78 319,79 329,74 331,78 343,75 347,82 355,82 353,84" id="15148" class="commune" fill="steelblue" stroke-width="1" stroke="white" geotype="commune" geoname="Paulhac" code_insee="15148" code_canton="1512"/><polygon points="192,271 184,277 160,275 152,278 144,275 137,279 128,272 123,273 95,289 93,295 86,294 83,299 74,284 79,277 79,265 83,265 89,255 108,249 116,233 124,237 128,234 158,229 173,229 178,234 191,230 198,244 187,271 192,271" id="15149" class="commune" fill="steelblue" stroke-width="1" stroke="white" geotype="commune" geoname="Paulhenc" code_insee="15149" code_canton="1512"/><polygon points="141,168 151,164 177,159 180,161 181,158 191,167 206,170 199,177 207,184 199,191 203,191 208,204 208,211 201,215 210,234 207,242 203,239 198,244 191,230 178,234 173,229 158,229 128,234 130,226 126,225 123,214 126,211 127,213 133,211 136,204 129,191 131,175 138,177 136,181 147,179 139,171 141,168" id="15152" class="commune" fill="steelblue" stroke-width="1" stroke="white" geotype="commune" geoname="Pierrefort" code_insee="15152" code_canton="1512"/><polygon points="208,204 213,205 211,209 216,212 233,211 230,214 249,221 258,231 253,237 239,235 247,249 255,251 267,250 271,246 283,247 265,265 240,280 233,279 228,282 197,272 192,271 187,271 198,244 203,239 207,242 210,234 201,215 208,211 208,204" id="15198" class="commune" fill="steelblue" stroke-width="1" stroke="white" geotype="commune" geoname="Sainte-Marie" code_insee="15198" code_canton="1512"/><polygon points="89,255 80,240 86,225 102,215 99,206 106,198 98,193 89,174 85,168 91,167 87,165 95,156 101,156 99,148 107,144 105,138 92,134 93,123 81,112 83,106 108,121 120,155 118,165 134,167 138,163 141,168 139,171 147,179 136,181 138,177 131,175 129,191 136,204 133,211 127,213 126,211 123,214 126,225 130,226 128,234 124,237 116,233 108,249 89,255" id="15201" class="commune" fill="steelblue" stroke-width="1" stroke="white" geotype="commune" geoname="Saint-Martin-sous-Vigouroux" code_insee="15201" code_canton="1512"/><polygon points="474,152 475,157 480,157 468,163 455,162 445,170 435,163 433,156 419,150 411,151 411,154 398,154 381,138 384,133 398,129 393,127 405,117 424,118 474,152" id="15227" class="commune" fill="steelblue" stroke-width="1" stroke="white" geotype="commune" geoname="Sériers" code_insee="15227" code_canton="1512"/><polygon points="403,86 395,85 398,89 395,90 381,91 379,95 378,92 377,95 373,90 362,90 353,84 355,82 347,82 343,75 331,78 329,74 319,79 317,78 321,74 315,75 316,70 309,70 317,60 334,59 332,56 338,56 338,52 335,53 339,49 353,44 356,51 357,48 361,50 367,57 381,56 387,52 395,56 394,62 408,67 410,75 407,83 401,83 403,86" id="15232" class="commune" fill="steelblue" stroke-width="1" stroke="white" geotype="commune" geoname="Tanavelle" code_insee="15232" code_canton="1512"/><polygon points="328,98 326,94 347,89 353,84 362,90 373,90 377,95 378,92 379,95 381,91 395,90 398,89 395,85 403,86 421,91 433,98 433,106 439,105 436,112 424,118 405,117 393,127 398,129 384,133 381,138 358,145 353,141 358,142 355,138 361,136 357,136 357,128 349,122 340,127 327,126 334,120 328,119 332,118 330,113 338,110 333,107 338,100 335,103 328,98" id="15235" class="commune" fill="steelblue" stroke-width="1" stroke="white" geotype="commune" geoname="Ternes" code_insee="15235" code_canton="1512"/><polygon points="178,40 178,34 165,32 165,27 205,9 210,3 215,3 213,11 217,12 225,6 228,8 236,7 246,10 258,0 265,0 264,5 270,5 289,9 289,12 294,11 298,15 322,9 335,17 332,18 336,19 333,21 338,29 347,33 339,49 335,53 338,52 338,56 332,56 334,59 317,60 315,57 313,60 307,56 305,60 288,56 285,60 280,57 274,60 276,62 267,61 268,64 251,63 236,61 232,57 221,66 200,58 204,43 182,43 178,40" id="15248" class="commune" fill="steelblue" stroke-width="1" stroke="white" geotype="commune" geoname="Valuéjols" code_insee="15248" code_canton="1512"/><polygon points="410,75 416,72 446,79 448,76 458,77 465,87 459,89 468,89 474,86 479,92 482,89 486,92 486,90 491,99 486,101 495,106 490,108 497,112 495,117 500,126 496,130 499,136 492,136 488,141 480,140 474,152 424,118 436,112 439,105 433,106 433,98 421,91 403,86 401,83 407,83 410,75" id="15262" class="commune" fill="steelblue" stroke-width="1" stroke="white" geotype="commune" geoname="Villedieu" code_insee="15262" code_canton="1512"/></svg>