<?xml version="1.0" encoding="utf-8"?>
<svg version="1.1" id="svgmap" xmlns="http://www.w3.org/2000/svg" xmlns:xlink="http://www.w3.org/1999/xlink" x="0px" y="0px" width="100%" height="100%" viewBox="0 0 500 220">
<polygon points="225,170 197,183 188,173 182,171 180,158 196,158 198,147 208,148 220,158 219,161 224,158 229,162 225,170" id="16010" class="commune" fill="steelblue" stroke-width="1" stroke="white" geotype="commune" geoname="Ambleville" code_insee="16010" code_canton="1607"/><polygon points="131,67 139,61 149,62 148,68 173,69 171,75 155,75 154,102 118,106 115,112 106,117 71,125 78,119 74,117 85,85 93,80 109,85 112,75 118,77 129,75 131,67" id="16012" class="commune" fill="steelblue" stroke-width="1" stroke="white" geotype="commune" geoname="Angeac-Champagne" code_insee="16012" code_canton="1607"/><polygon points="405,57 409,66 415,64 419,67 426,78 422,83 403,94 385,96 382,106 370,104 353,97 347,88 380,68 393,51 405,57" id="16013" class="commune" fill="steelblue" stroke-width="1" stroke="white" geotype="commune" geoname="Angeac-Charente" code_insee="16013" code_canton="1607"/><polygon points="400,142 412,146 418,138 427,138 432,144 457,133 466,143 457,163 442,160 417,184 403,183 402,180 378,152 400,151 400,142" id="16045" class="commune" fill="steelblue" stroke-width="1" stroke="white" geotype="commune" geoname="Birac" code_insee="16045" code_canton="1607"/><polygon points="351,126 368,143 345,146 334,161 332,159 313,166 304,162 290,162 283,159 288,152 276,144 281,143 300,120 302,118 305,123 333,123 336,116 351,126" id="16050" class="commune" fill="steelblue" stroke-width="1" stroke="white" geotype="commune" geoname="Bonneuil" code_insee="16050" code_canton="1607"/><polygon points="370,104 357,107 365,114 351,126 336,116 333,123 305,123 302,118 297,102 304,86 308,81 319,79 332,68 338,70 336,80 347,88 353,97 370,104" id="16057" class="commune" fill="steelblue" stroke-width="1" stroke="white" geotype="commune" geoname="Bouteville" code_insee="16057" code_canton="1607"/><polygon points="365,114 357,107 370,104 382,106 385,96 403,94 422,83 432,91 441,84 455,90 453,95 466,99 461,105 466,107 474,104 481,110 480,121 488,129 466,143 457,133 432,144 427,138 418,138 412,146 400,142 396,131 399,123 379,127 365,114" id="16090" class="commune" fill="steelblue" stroke-width="1" stroke="white" geotype="commune" geoname="Châteauneuf-sur-Charente" code_insee="16090" code_canton="1607"/><polygon points="260,189 268,205 274,207 272,219 261,218 255,212 248,212 234,214 228,209 216,208 173,195 158,189 173,180 175,183 182,171 188,173 197,183 225,170 242,170 253,190 260,189" id="16116" class="commune" fill="steelblue" stroke-width="1" stroke="white" geotype="commune" geoname="Criteuil-la-Magdeleine" code_insee="16116" code_canton="1607"/><polygon points="368,143 351,126 365,114 379,127 399,123 396,131 400,142 400,151 378,152 368,143" id="16129" class="commune" fill="steelblue" stroke-width="1" stroke="white" geotype="commune" geoname="Éraville" code_insee="16129" code_canton="1607"/><polygon points="131,67 127,53 119,47 100,43 114,18 112,10 117,0 146,11 152,3 161,7 161,18 187,38 204,46 201,50 175,49 173,69 148,68 149,62 139,61 131,67" id="16150" class="commune" fill="steelblue" stroke-width="1" stroke="white" geotype="commune" geoname="Gensac-la-Pallue" code_insee="16150" code_canton="1607"/><polygon points="100,43 119,47 127,53 131,67 129,75 118,77 112,75 109,85 93,80 85,85 81,86 66,77 72,39 100,43" id="16151" class="commune" fill="steelblue" stroke-width="1" stroke="white" geotype="commune" geoname="Genté" code_insee="16151" code_canton="1607"/><polygon points="208,148 198,147 171,144 147,136 125,135 118,130 116,123 124,122 115,112 118,106 154,102 173,102 185,105 187,123 192,128 195,125 217,135 208,148" id="16171" class="commune" fill="steelblue" stroke-width="1" stroke="white" geotype="commune" geoname="Juillac-le-Coq" code_insee="16171" code_canton="1607"/><polygon points="217,135 225,135 259,128 263,137 276,140 272,137 275,131 270,133 273,127 291,126 300,120 281,143 276,144 288,152 283,159 290,162 278,162 287,170 281,172 285,179 276,180 279,185 260,189 253,190 242,170 225,170 229,162 224,158 219,161 220,158 208,148 217,135" id="16186" class="commune" fill="steelblue" stroke-width="1" stroke="white" geotype="commune" geoname="Lignières-Sonneville" code_insee="16186" code_canton="1607"/><polygon points="378,152 402,180 396,184 375,183 366,197 354,195 351,208 350,202 341,202 336,190 339,186 333,181 340,170 327,169 334,161 345,146 368,143 378,152" id="16204" class="commune" fill="steelblue" stroke-width="1" stroke="white" geotype="commune" geoname="Malaville" code_insee="16204" code_canton="1607"/><polygon points="478,71 493,75 500,99 493,106 481,110 474,104 466,107 461,105 466,99 453,95 455,90 465,79 464,76 478,71" id="16233" class="commune" fill="steelblue" stroke-width="1" stroke="white" geotype="commune" geoname="Mosnac" code_insee="16233" code_canton="1607"/><polygon points="390,217 371,209 358,211 357,212 351,208 354,195 366,197 375,183 396,184 402,180 403,183 417,184 422,186 407,201 398,202 390,217" id="16247" class="commune" fill="steelblue" stroke-width="1" stroke="white" geotype="commune" geoname="Nonaville" code_insee="16247" code_canton="1607"/><polygon points="338,70 343,63 333,62 342,44 336,41 340,37 351,38 356,44 365,46 377,44 384,45 381,49 393,51 380,68 347,88 336,80 338,70" id="16297" class="commune" fill="steelblue" stroke-width="1" stroke="white" geotype="commune" geoname="Graves-Saint-Amant" code_insee="16297" code_canton="1607"/><polygon points="110,157 110,157 104,156 92,141 80,137 68,130 71,125 106,117 115,112 124,122 116,123 118,130 125,135 119,138 120,145 110,157" id="16316" class="commune" fill="steelblue" stroke-width="1" stroke="white" geotype="commune" geoname="Saint-Fort-sur-le-Né" code_insee="16316" code_canton="1607"/><polygon points="284,81 304,86 297,102 302,118 300,120 291,126 273,127 270,133 275,131 272,137 276,140 263,137 259,128 225,135 228,121 245,119 243,114 251,114 260,101 257,95 263,80 282,83 284,81" id="16343" class="commune" fill="steelblue" stroke-width="1" stroke="white" geotype="commune" geoname="Saint-Preuil" code_insee="16343" code_canton="1607"/><polygon points="422,83 426,78 419,67 429,65 426,62 435,56 431,50 445,48 454,51 467,41 476,42 477,47 472,50 480,59 478,71 464,76 465,79 455,90 441,84 432,91 422,83" id="16351" class="commune" fill="steelblue" stroke-width="1" stroke="white" geotype="commune" geoname="Saint-Simeux" code_insee="16351" code_canton="1607"/><polygon points="405,57 393,51 381,49 384,45 377,44 374,41 379,42 387,33 390,20 401,22 418,41 403,52 405,57" id="16352" class="commune" fill="steelblue" stroke-width="1" stroke="white" geotype="commune" geoname="Saint-Simon" code_insee="16352" code_canton="1607"/><polygon points="44,36 44,36 72,39 66,77 81,86 85,85 74,117 78,119 71,125 68,130 62,127 52,128 47,117 29,114 19,104 5,98 0,85 18,73 16,68 26,72 30,66 39,69 32,59 45,50 44,36" id="16359" class="commune" fill="steelblue" stroke-width="1" stroke="white" geotype="commune" geoname="Salles-d'Angles" code_insee="16359" code_canton="1607"/><polygon points="201,50 220,51 274,65 286,67 284,81 282,83 263,80 257,95 260,101 251,114 243,114 245,119 228,121 225,135 217,135 195,125 192,128 187,123 185,105 173,102 154,102 155,75 171,75 173,69 175,49 201,50" id="16366" class="commune" fill="steelblue" stroke-width="1" stroke="white" geotype="commune" geoname="Segonzac" code_insee="16366" code_canton="1607"/><polygon points="272,219 274,207 268,205 260,189 279,185 276,180 285,179 281,172 287,170 278,162 290,162 304,162 313,166 332,159 334,161 327,169 340,170 333,181 339,186 336,190 329,191 333,201 323,199 320,213 312,214 312,217 283,220 272,219" id="16386" class="commune" fill="steelblue" stroke-width="1" stroke="white" geotype="commune" geoname="Touzac" code_insee="16386" code_canton="1607"/><polygon points="182,171 175,183 173,180 158,189 148,178 141,176 142,171 110,157 120,145 119,138 125,135 147,136 171,144 198,147 196,158 180,158 182,171" id="16399" class="commune" fill="steelblue" stroke-width="1" stroke="white" geotype="commune" geoname="Verrières" code_insee="16399" code_canton="1607"/><polygon points="419,67 415,64 409,66 405,57 403,52 418,41 431,50 435,56 426,62 429,65 419,67" id="16402" class="commune" fill="steelblue" stroke-width="1" stroke="white" geotype="commune" geoname="Vibrac" code_insee="16402" code_canton="1607"/><polygon points="351,208 357,212 351,215 312,217 312,214 320,213 323,199 333,201 329,191 336,190 341,202 350,202 351,208" id="16417" class="commune" fill="steelblue" stroke-width="1" stroke="white" geotype="commune" geoname="Viville" code_insee="16417" code_canton="1607"/></svg>