<?xml version="1.0" encoding="utf-8"?>
<svg version="1.1" id="svgmap" xmlns="http://www.w3.org/2000/svg" xmlns:xlink="http://www.w3.org/1999/xlink" x="0px" y="0px" width="100%" height="100%" viewBox="0 0 500 225">
<polygon points="78,117 80,95 88,95 102,101 106,99 103,98 108,88 135,92 158,95 157,101 191,114 169,129 163,142 153,140 152,151 126,147 107,135 97,132 113,122 98,117 78,117" id="17008" class="commune" fill="steelblue" stroke-width="1" stroke="white" geotype="commune" geoname="Andilly" code_insee="17008" code_canton="1709"/><polygon points="224,171 220,175 230,188 228,195 235,206 227,207 217,203 219,200 211,199 184,182 176,170 188,166 195,160 194,156 207,156 215,157 216,170 220,168 224,171" id="17009" class="commune" fill="steelblue" stroke-width="1" stroke="white" geotype="commune" geoname="Angliers" code_insee="17009" code_canton="1709"/><polygon points="438,193 434,199 451,205 446,215 440,222 437,218 442,213 424,202 420,208 413,207 415,204 410,201 403,205 407,208 401,213 406,218 398,225 390,223 372,224 370,220 358,218 319,206 317,199 325,193 311,187 302,188 308,181 305,180 308,172 311,172 320,174 322,171 328,174 332,173 326,165 333,161 329,150 338,148 351,152 372,147 382,149 385,147 391,152 386,156 406,160 407,166 402,169 406,172 402,176 407,177 406,183 417,185 429,176 443,179 443,185 433,181 430,185 438,193" id="17041" class="commune" fill="steelblue" stroke-width="1" stroke="white" geotype="commune" geoname="Benon" code_insee="17041" code_canton="1709"/><polygon points="8,72 17,61 17,52 23,52 25,58 36,61 42,59 46,64 52,58 70,58 63,52 72,48 77,52 71,55 78,57 84,53 91,56 92,52 97,52 106,68 121,75 112,75 115,84 129,87 135,86 135,92 108,88 103,98 106,99 102,101 88,95 80,95 78,117 68,121 57,118 37,119 22,119 10,128 0,127 22,117 17,116 8,72" id="17091" class="commune" fill="steelblue" stroke-width="1" stroke="white" geotype="commune" geoname="Charron" code_insee="17091" code_canton="1709"/><polygon points="385,147 382,149 372,147 351,152 338,148 329,150 327,141 333,140 335,131 331,129 341,120 357,123 360,119 376,117 383,96 428,100 398,123 402,133 385,147" id="17127" class="commune" fill="steelblue" stroke-width="1" stroke="white" geotype="commune" geoname="Courçon" code_insee="17127" code_canton="1709"/><polygon points="438,193 430,185 433,181 443,185 443,179 429,176 433,169 428,167 431,161 426,159 433,155 427,152 431,145 422,137 475,159 488,165 493,171 493,183 500,189 494,192 484,191 463,184 455,190 448,189 447,191 441,189 438,193" id="17132" class="commune" fill="steelblue" stroke-width="1" stroke="white" geotype="commune" geoname="Cramchaban" code_insee="17132" code_canton="1709"/><polygon points="327,141 329,150 333,161 326,165 332,173 328,174 322,171 320,174 311,172 313,162 304,160 298,161 292,157 282,157 281,144 307,142 327,141" id="17158" class="commune" fill="steelblue" stroke-width="1" stroke="white" geotype="commune" geoname="Ferrières" code_insee="17158" code_canton="1709"/><polygon points="406,160 386,156 391,152 385,147 402,133 398,123 428,100 429,99 441,112 424,127 419,128 422,137 431,145 427,152 423,151 418,163 408,158 406,160" id="17182" class="commune" fill="steelblue" stroke-width="1" stroke="white" geotype="commune" geoname="Grève-sur-Mignon" code_insee="17182" code_canton="1709"/><polygon points="260,200 263,197 268,198 267,193 273,194 273,190 289,191 302,188 311,187 325,193 317,199 319,206 291,208 288,215 274,210 260,200" id="17186" class="commune" fill="steelblue" stroke-width="1" stroke="white" geotype="commune" geoname="Gué-d'Alleré" code_insee="17186" code_canton="1709"/><polygon points="429,176 417,185 406,183 407,177 402,176 406,172 402,169 407,166 406,160 408,158 418,163 423,151 427,152 433,155 426,159 431,161 428,167 433,169 429,176" id="17201" class="commune" fill="steelblue" stroke-width="1" stroke="white" geotype="commune" geoname="Laigne" code_insee="17201" code_canton="1709"/><polygon points="176,170 158,160 147,162 152,151 153,140 163,142 169,129 191,114 199,117 201,119 191,130 203,141 209,151 207,156 194,156 195,160 188,166 176,170" id="17208" class="commune" fill="steelblue" stroke-width="1" stroke="white" geotype="commune" geoname="Longèves" code_insee="17208" code_canton="1709"/><polygon points="242,125 221,124 199,117 191,114 157,101 158,95 135,92 135,86 129,87 115,84 112,75 121,75 106,68 97,52 92,52 91,56 84,53 78,57 71,55 77,52 72,48 93,23 94,31 137,17 137,23 152,17 157,22 179,21 190,6 190,6 205,11 215,3 221,5 231,0 223,12 213,37 192,52 213,57 227,66 231,60 238,64 244,60 247,63 238,77 244,78 240,85 253,86 246,98 248,101 250,98 257,99 257,102 242,125" id="17218" class="commune" fill="steelblue" stroke-width="1" stroke="white" geotype="commune" geoname="Marans" code_insee="17218" code_canton="1709"/><polygon points="199,117 221,124 242,125 246,125 241,139 270,146 273,153 264,155 262,163 255,161 224,171 220,168 216,170 215,157 207,156 209,151 203,141 191,130 201,119 199,117" id="17267" class="commune" fill="steelblue" stroke-width="1" stroke="white" geotype="commune" geoname="Nuaillé-d'Aunis" code_insee="17267" code_canton="1709"/><polygon points="383,96 334,89 366,50 376,50 386,56 396,57 403,64 414,64 424,72 418,76 429,99 428,100 383,96" id="17303" class="commune" fill="steelblue" stroke-width="1" stroke="white" geotype="commune" geoname="Ronde" code_insee="17303" code_canton="1709"/><polygon points="334,89 383,96 376,117 360,119 357,123 341,120 331,129 335,131 333,140 327,141 307,142 315,124 309,122 313,114 310,112 322,86 334,89" id="17322" class="commune" fill="steelblue" stroke-width="1" stroke="white" geotype="commune" geoname="Saint-Cyr-du-Doret" code_insee="17322" code_canton="1709"/><polygon points="307,142 281,144 270,146 241,139 246,125 242,125 257,102 257,99 250,98 248,101 246,98 253,86 240,85 244,78 238,77 247,63 267,59 268,52 275,48 279,51 291,53 296,48 301,48 304,50 301,56 301,62 307,63 304,70 317,78 312,85 322,86 310,112 313,114 309,122 315,124 307,142" id="17349" class="commune" fill="steelblue" stroke-width="1" stroke="white" geotype="commune" geoname="Saint-Jean-de-Liversay" code_insee="17349" code_canton="1709"/><polygon points="146,162 102,171 96,156 93,156 99,142 94,135 94,132 97,132 107,135 126,147 152,151 147,162 146,162" id="17376" class="commune" fill="steelblue" stroke-width="1" stroke="white" geotype="commune" geoname="Saint-Ouen-d'Aunis" code_insee="17376" code_canton="1709"/><polygon points="230,188 220,175 224,171 255,161 262,163 264,155 273,153 270,146 281,144 282,157 292,157 298,161 304,160 313,162 311,172 308,172 305,180 308,181 302,188 289,191 273,190 273,194 267,193 268,198 263,197 260,200 230,188" id="17396" class="commune" fill="steelblue" stroke-width="1" stroke="white" geotype="commune" geoname="Saint-Sauveur-d'Aunis" code_insee="17396" code_canton="1709"/><polygon points="366,50 334,89 322,86 312,85 317,78 304,70 307,63 301,62 301,56 316,57 321,49 317,42 326,33 335,31 341,37 350,37 360,35 364,31 370,31 373,35 364,38 361,42 366,50" id="17439" class="commune" fill="steelblue" stroke-width="1" stroke="white" geotype="commune" geoname="Taugon" code_insee="17439" code_canton="1709"/><polygon points="38,153 37,152 47,146 44,144 49,138 55,140 56,138 52,129 37,119 57,118 68,121 78,117 98,117 113,122 97,132 94,132 94,135 99,142 93,156 85,156 82,160 75,158 72,164 63,165 38,153" id="17472" class="commune" fill="steelblue" stroke-width="1" stroke="white" geotype="commune" geoname="Villedoux" code_insee="17472" code_canton="1709"/></svg>