<?xml version="1.0" encoding="utf-8"?>
<svg version="1.1" id="svgmap" xmlns="http://www.w3.org/2000/svg" xmlns:xlink="http://www.w3.org/1999/xlink" x="0px" y="0px" width="100%" height="100%" viewBox="0 0 497 500">
<polygon points="439,110 444,108 440,104 463,96 469,102 461,115 467,121 461,125 497,148 495,159 485,159 478,168 466,167 468,172 448,177 438,173 445,166 435,156 439,146 421,137 426,126 422,123 426,115 439,110" id="18006" class="commune" fill="steelblue" stroke-width="1" stroke="white" geotype="commune" geoname="Annoix" code_insee="18006" code_canton="1817"/><polygon points="133,205 128,199 124,200 122,196 127,192 120,178 113,179 132,156 124,151 118,137 134,136 132,130 136,131 140,122 126,106 135,101 126,90 145,89 149,97 158,97 157,103 177,107 172,152 179,149 187,163 169,166 167,188 149,202 133,205" id="18008" class="commune" fill="steelblue" stroke-width="1" stroke="white" geotype="commune" geoname="Arçay" code_insee="18008" code_canton="1817"/><polygon points="151,384 176,393 168,398 173,419 160,430 166,441 175,435 179,439 191,437 192,449 183,456 161,452 143,456 130,453 111,419 111,402 151,384" id="18046" class="commune" fill="steelblue" stroke-width="1" stroke="white" geotype="commune" geoname="Chambon" code_insee="18046" code_canton="1817"/><polygon points="183,322 156,329 151,335 131,336 117,327 118,313 106,299 115,296 109,282 111,279 126,277 147,249 156,248 177,242 187,252 189,249 195,251 186,278 203,292 196,293 182,304 189,320 183,322" id="18058" class="commune" fill="steelblue" stroke-width="1" stroke="white" geotype="commune" geoname="Châteauneuf-sur-Cher" code_insee="18058" code_canton="1817"/><polygon points="272,326 259,329 218,329 188,338 183,322 189,320 182,304 196,293 203,292 205,297 216,297 234,289 229,281 237,274 220,265 232,256 252,250 270,256 292,252 295,264 299,263 305,274 303,283 293,285 290,296 282,297 282,294 275,299 296,308 296,314 288,317 271,317 272,326" id="18063" class="commune" fill="steelblue" stroke-width="1" stroke="white" geotype="commune" geoname="Chavannes" code_insee="18063" code_canton="1817"/><polygon points="156,248 147,249 126,277 111,279 109,282 88,297 31,260 22,251 22,245 27,243 78,225 112,228 115,219 121,218 130,225 152,227 150,236 154,235 149,246 158,244 156,248" id="18073" class="commune" fill="steelblue" stroke-width="1" stroke="white" geotype="commune" geoname="Corquoy" code_insee="18073" code_canton="1817"/><polygon points="176,393 151,384 127,369 120,355 138,351 145,346 154,345 157,354 193,363 195,380 176,393" id="18078" class="commune" fill="steelblue" stroke-width="1" stroke="white" geotype="commune" geoname="Crézançay-sur-Cher" code_insee="18078" code_canton="1817"/><polygon points="109,179 113,179 120,178 127,192 122,196 124,200 128,199 133,205 125,208 133,212 121,218 115,219 112,228 78,225 27,243 23,240 24,234 38,223 75,217 72,202 77,194 109,179" id="18122" class="commune" fill="steelblue" stroke-width="1" stroke="white" geotype="commune" geoname="Lapan" code_insee="18122" code_canton="1817"/><polygon points="167,188 169,166 187,163 203,159 215,166 238,164 238,158 262,156 274,176 266,177 274,185 277,184 295,207 292,210 288,219 274,219 276,224 268,234 258,234 253,243 246,246 212,244 209,231 225,226 226,221 214,213 202,210 201,196 187,205 178,187 167,188" id="18126" class="commune" fill="steelblue" stroke-width="1" stroke="white" geotype="commune" geoname="Levet" code_insee="18126" code_canton="1817"/><polygon points="187,163 179,149 172,152 177,107 205,95 209,99 235,95 237,113 264,108 266,118 273,117 275,122 291,120 282,132 283,151 266,158 262,156 238,158 238,164 215,166 203,159 187,163" id="18129" class="commune" fill="steelblue" stroke-width="1" stroke="white" geotype="commune" geoname="Lissay-Lochy" code_insee="18129" code_canton="1817"/><polygon points="282,132 291,120 275,122 273,117 266,118 264,108 237,113 235,95 239,94 239,82 232,65 237,58 231,58 229,36 251,19 292,41 314,45 317,55 322,66 328,67 323,64 336,60 351,72 357,64 370,74 376,70 393,82 362,100 364,106 348,131 282,132" id="18180" class="commune" fill="steelblue" stroke-width="1" stroke="white" geotype="commune" geoname="Plaimpied-Givaudins" code_insee="18180" code_canton="1817"/><polygon points="113,179 109,179 105,179 89,156 80,150 69,150 66,139 31,142 27,137 33,133 53,126 75,108 86,110 87,112 112,114 126,106 140,122 136,131 132,130 134,136 118,137 124,151 132,156 113,179" id="18201" class="commune" fill="steelblue" stroke-width="1" stroke="white" geotype="commune" geoname="Saint-Caprais" code_insee="18201" code_canton="1817"/><polygon points="393,82 425,72 429,75 425,77 440,86 422,95 439,110 426,115 422,123 426,126 410,132 402,142 400,139 387,143 371,150 372,152 367,139 355,138 348,131 364,106 362,100 393,82" id="18218" class="commune" fill="steelblue" stroke-width="1" stroke="white" geotype="commune" geoname="Saint-Just" code_insee="18218" code_canton="1817"/><polygon points="183,322 188,338 218,329 259,329 272,326 272,354 256,375 219,384 195,380 193,363 157,354 154,345 158,340 151,335 156,329 183,322" id="18221" class="commune" fill="steelblue" stroke-width="1" stroke="white" geotype="commune" geoname="Saint-Loup-des-Chaumes" code_insee="18221" code_canton="1817"/><polygon points="121,218 133,212 125,208 133,205 149,202 167,188 178,187 187,205 201,196 202,210 214,213 226,221 225,226 209,231 212,244 200,253 195,251 189,249 187,252 177,242 156,248 158,244 149,246 154,235 150,236 152,227 130,225 121,218" id="18222" class="commune" fill="steelblue" stroke-width="1" stroke="white" geotype="commune" geoname="Sainte-Lunaise" code_insee="18222" code_canton="1817"/><polygon points="62,386 54,381 60,371 86,367 85,359 94,356 120,355 127,369 151,384 111,402 88,391 62,386" id="18236" class="commune" fill="steelblue" stroke-width="1" stroke="white" geotype="commune" geoname="Saint-Symphorien" code_insee="18236" code_canton="1817"/><polygon points="348,131 355,138 348,146 324,159 325,172 316,177 319,182 309,186 315,209 304,214 292,210 295,207 277,184 274,185 266,177 274,176 262,156 266,158 283,151 282,132 348,131" id="18248" class="commune" fill="steelblue" stroke-width="1" stroke="white" geotype="commune" geoname="Senneçay" code_insee="18248" code_canton="1817"/><polygon points="246,246 252,250 232,256 220,265 237,274 229,281 234,289 216,297 205,297 203,292 186,278 195,251 200,253 212,244 246,246" id="18250" class="commune" fill="steelblue" stroke-width="1" stroke="white" geotype="commune" geoname="Serruelles" code_insee="18250" code_canton="1817"/><polygon points="425,72 393,82 376,70 370,74 357,64 351,72 336,60 323,64 328,67 322,66 317,55 320,46 331,47 340,43 317,21 333,12 334,7 350,11 416,40 440,56 429,67 426,65 425,72" id="18254" class="commune" fill="steelblue" stroke-width="1" stroke="white" geotype="commune" geoname="Soye-en-Septaine" code_insee="18254" code_canton="1817"/><polygon points="177,107 157,103 158,97 149,97 145,89 136,78 155,49 164,41 182,52 211,1 224,0 229,36 231,58 237,58 232,65 239,82 239,94 235,95 209,99 205,95 177,107" id="18267" class="commune" fill="steelblue" stroke-width="1" stroke="white" geotype="commune" geoname="Trouy" code_insee="18267" code_canton="1817"/><polygon points="256,375 272,354 272,326 271,317 288,317 296,314 296,308 299,316 308,317 334,306 338,310 335,319 343,325 349,317 368,317 372,328 391,337 399,328 418,336 429,336 440,342 439,346 405,347 381,353 361,379 363,391 342,398 329,404 308,404 288,404 285,386 272,386 272,370 256,375" id="18268" class="commune" fill="steelblue" stroke-width="1" stroke="white" geotype="commune" geoname="Uzay-le-Venon" code_insee="18268" code_canton="1817"/><polygon points="219,384 228,390 252,397 250,407 275,413 273,421 266,428 255,430 252,427 249,434 231,444 237,447 231,450 233,455 239,457 225,469 228,477 221,498 216,500 205,496 206,489 190,475 183,456 192,449 191,437 179,439 175,435 166,441 160,430 173,419 168,398 176,393 195,380 219,384" id="18270" class="commune" fill="steelblue" stroke-width="1" stroke="white" geotype="commune" geoname="Vallenay" code_insee="18270" code_canton="1817"/><polygon points="109,282 115,296 106,299 118,313 117,327 131,336 151,335 158,340 154,345 145,346 138,351 120,355 94,356 85,359 86,367 60,371 41,347 20,332 13,326 16,309 22,307 0,290 12,281 29,270 31,260 88,297 109,282" id="18273" class="commune" fill="steelblue" stroke-width="1" stroke="white" geotype="commune" geoname="Venesmes" code_insee="18273" code_canton="1817"/><polygon points="355,138 367,139 372,152 386,168 396,171 406,191 372,207 368,203 360,208 364,211 360,220 350,223 345,221 337,224 333,220 317,224 314,220 322,209 315,209 309,186 319,182 316,177 325,172 324,159 348,146 355,138" id="18288" class="commune" fill="steelblue" stroke-width="1" stroke="white" geotype="commune" geoname="Vorly" code_insee="18288" code_canton="1817"/></svg>