<?xml version="1.0" encoding="utf-8"?>
<svg version="1.1" id="svgmap" xmlns="http://www.w3.org/2000/svg" xmlns:xlink="http://www.w3.org/1999/xlink" x="0px" y="0px" width="100%" height="100%" viewBox="0 0 500 391">
<polygon points="187,242 191,237 186,221 190,211 228,206 206,193 190,198 180,191 202,172 223,176 227,157 235,149 241,138 243,134 251,139 260,138 269,153 284,151 301,151 318,169 341,162 349,172 329,183 363,216 362,221 353,238 340,245 334,244 333,251 315,254 299,266 307,276 289,277 269,265 257,269 261,264 249,258 214,269 209,263 196,250 192,253 188,251 187,242" id="19002" class="commune" fill="steelblue" stroke-width="1" stroke="white" geotype="commune" geoname="Aix" code_insee="19002" code_canton="1917"/><polygon points="133,132 111,112 124,110 129,104 149,117 159,112 151,101 160,106 161,100 184,93 198,75 194,64 221,83 242,88 226,110 227,123 241,138 235,149 213,142 212,138 190,124 169,126 174,134 169,138 133,132" id="19064" class="commune" fill="steelblue" stroke-width="1" stroke="white" geotype="commune" geoname="Couffy-sur-Sarsonne" code_insee="19064" code_canton="1917"/><polygon points="180,191 169,187 165,176 165,159 150,153 133,132 169,138 174,134 169,126 190,124 212,138 213,142 235,149 227,157 223,176 202,172 180,191" id="19065" class="commune" fill="steelblue" stroke-width="1" stroke="white" geotype="commune" geoname="Courteix" code_insee="19065" code_canton="1917"/><polygon points="382,144 349,172 341,162 318,169 301,151 284,151 286,143 303,139 311,118 322,124 330,122 331,117 320,113 304,91 292,98 273,100 249,92 241,83 231,81 222,64 233,53 229,41 238,42 254,51 258,47 262,51 300,48 344,66 368,79 367,90 379,92 374,109 382,105 397,115 419,111 423,121 418,130 382,144" id="19080" class="commune" fill="steelblue" stroke-width="1" stroke="white" geotype="commune" geoname="Eygurande" code_insee="19080" code_canton="1917"/><polygon points="344,66 357,50 368,47 374,51 396,31 407,42 405,46 415,51 408,56 447,80 443,82 453,84 455,99 469,103 475,112 476,124 485,127 484,133 493,136 500,133 484,153 419,111 397,115 382,105 374,109 379,92 367,90 368,79 344,66" id="19083" class="commune" fill="steelblue" stroke-width="1" stroke="white" geotype="commune" geoname="Feyt" code_insee="19083" code_canton="1917"/><polygon points="284,151 269,153 260,138 251,139 243,134 241,138 227,123 226,110 242,88 221,83 194,64 188,54 198,48 229,41 233,53 222,64 231,81 241,83 249,92 273,100 292,98 304,91 320,113 331,117 330,122 322,124 311,118 303,139 286,143 284,151" id="19103" class="commune" fill="steelblue" stroke-width="1" stroke="white" geotype="commune" geoname="Lamazière-Haute" code_insee="19103" code_canton="1917"/><polygon points="396,31 406,32 402,17 414,13 422,3 438,0 460,22 467,23 478,42 491,45 484,54 484,68 492,74 497,72 491,86 500,94 487,103 481,101 475,112 469,103 455,99 453,84 443,82 447,80 408,56 415,51 405,46 407,42 396,31" id="19108" class="commune" fill="steelblue" stroke-width="1" stroke="white" geotype="commune" geoname="Laroche-près-Feyt" code_insee="19108" code_canton="1917"/><polygon points="349,172 382,144 396,152 395,159 404,167 422,173 415,219 394,231 390,225 385,226 385,221 362,221 363,216 329,183 349,172" id="19134" class="commune" fill="steelblue" stroke-width="1" stroke="white" geotype="commune" geoname="Merlines" code_insee="19134" code_canton="1917"/><polygon points="484,153 486,163 475,166 455,167 445,163 439,169 431,161 422,173 404,167 395,159 396,152 382,144 418,130 423,121 419,111 484,153" id="19141" class="commune" fill="steelblue" stroke-width="1" stroke="white" geotype="commune" geoname="Monestier-Merlines" code_insee="19141" code_canton="1917"/><polygon points="180,191 190,198 206,193 228,206 190,211 186,221 191,237 187,242 179,248 173,244 168,246 157,241 146,242 140,237 136,239 134,232 139,228 138,216 142,217 149,210 142,205 135,176 145,178 151,173 165,176 169,187 180,191" id="19232" class="commune" fill="steelblue" stroke-width="1" stroke="white" geotype="commune" geoname="Saint-Pardoux-le-Neuf" code_insee="19232" code_canton="1917"/><polygon points="187,242 188,251 192,253 196,250 209,263 207,273 192,282 208,291 198,297 198,302 183,308 193,331 185,333 190,338 181,350 166,356 153,356 143,380 136,382 134,378 132,385 91,390 88,383 80,385 72,381 42,391 45,378 59,372 50,368 55,357 46,357 32,365 24,351 0,351 5,343 19,337 46,343 62,325 45,310 67,311 77,301 74,295 89,285 84,277 106,276 107,266 117,261 113,243 120,243 123,231 134,232 136,239 140,237 146,242 157,241 168,246 173,244 179,248 187,242" id="19275" class="commune" fill="steelblue" stroke-width="1" stroke="white" geotype="commune" geoname="Ussel" code_insee="19275" code_canton="1917"/></svg>