<?xml version="1.0" encoding="utf-8"?>
<svg version="1.1" id="svgmap" xmlns="http://www.w3.org/2000/svg" xmlns:xlink="http://www.w3.org/1999/xlink" x="0px" y="0px" width="100%" height="100%" viewBox="0 0 500 490">
<polygon points="169,249 174,244 185,242 188,228 203,231 221,226 251,240 249,241 227,253 231,272 220,297 222,307 236,313 212,316 197,329 183,328 178,333 169,328 166,322 149,319 145,312 158,289 173,283 169,249" id="19015" class="commune" fill="steelblue" stroke-width="1" stroke="white" geotype="commune" geoname="Ayen" code_insee="19015" code_canton="1919"/><polygon points="136,407 143,403 159,405 169,400 196,400 209,393 226,396 229,389 244,394 250,402 263,399 268,420 252,419 273,445 279,481 274,485 260,483 248,490 221,482 208,466 204,475 170,445 167,448 163,426 144,429 134,421 130,437 110,441 129,423 126,411 136,407" id="19030" class="commune" fill="steelblue" stroke-width="1" stroke="white" geotype="commune" geoname="Brignac-la-Plaine" code_insee="19030" code_canton="1919"/><polygon points="188,188 184,181 212,177 216,171 199,148 207,135 199,125 207,116 220,115 256,127 283,149 282,157 273,159 272,172 263,173 242,199 233,197 214,210 212,207 188,188" id="19035" class="commune" fill="steelblue" stroke-width="1" stroke="white" geotype="commune" geoname="Chabrignac" code_insee="19035" code_canton="1919"/><polygon points="241,0 235,23 241,57 262,69 270,83 256,127 220,115 235,108 163,71 183,61 189,50 183,43 198,26 194,20 241,0 241,0" id="19059" class="commune" fill="steelblue" stroke-width="1" stroke="white" geotype="commune" geoname="Concèze" code_insee="19059" code_canton="1919"/><polygon points="220,115 207,116 199,125 207,135 199,148 216,171 212,177 184,181 188,188 147,175 140,178 148,202 81,191 31,184 24,183 28,173 17,143 65,146 93,130 111,102 120,87 115,80 148,70 163,71 235,108 220,115" id="19094" class="commune" fill="steelblue" stroke-width="1" stroke="white" geotype="commune" geoname="Juillac" code_insee="19094" code_canton="1919"/><polygon points="283,149 256,127 270,83 297,78 300,68 318,69 335,79 334,87 326,88 327,103 304,115 296,144 283,149" id="19109" class="commune" fill="steelblue" stroke-width="1" stroke="white" geotype="commune" geoname="Lascaux" code_insee="19109" code_canton="1919"/><polygon points="8,360 13,344 59,334 102,304 116,310 131,302 145,312 149,319 166,322 169,328 162,332 170,340 151,346 143,355 141,361 149,363 138,385 113,386 136,407 126,411 91,385 74,392 11,394 2,377 8,360" id="19120" class="commune" fill="steelblue" stroke-width="1" stroke="white" geotype="commune" geoname="Louignac" code_insee="19120" code_canton="1919"/><polygon points="357,211 372,208 379,221 372,244 388,245 403,239 407,251 406,259 421,271 423,287 410,286 373,305 363,303 368,293 361,286 344,281 337,276 340,270 346,253 341,231 356,222 357,211" id="19153" class="commune" fill="steelblue" stroke-width="1" stroke="white" geotype="commune" geoname="Objat" code_insee="19153" code_canton="1919"/><polygon points="169,328 178,333 183,328 197,329 212,316 236,313 255,313 259,318 272,349 275,358 260,363 244,394 229,389 226,396 209,393 196,400 169,400 159,405 143,403 136,407 113,386 138,385 149,363 141,361 143,355 151,346 170,340 162,332 169,328" id="19161" class="commune" fill="steelblue" stroke-width="1" stroke="white" geotype="commune" geoname="Perpezac-le-Blanc" code_insee="19161" code_canton="1919"/><polygon points="221,226 203,231 188,228 185,242 174,244 120,236 116,221 126,214 125,202 103,202 81,191 148,202 140,178 147,175 188,188 212,207 221,226" id="19177" class="commune" fill="steelblue" stroke-width="1" stroke="white" geotype="commune" geoname="Rosiers-de-Juillac" code_insee="19177" code_canton="1919"/><polygon points="373,305 392,317 388,324 395,322 386,328 370,330 357,338 338,334 326,340 298,337 272,349 259,318 292,308 311,288 331,284 344,281 361,286 368,293 363,303 373,305" id="19182" class="commune" fill="steelblue" stroke-width="1" stroke="white" geotype="commune" geoname="Saint-Aulaire" code_insee="19182" code_canton="1919"/><polygon points="251,240 221,226 212,207 214,210 233,197 242,199 263,173 272,172 273,159 282,157 283,149 296,144 302,174 316,193 278,217 280,248 251,240" id="19187" class="commune" fill="steelblue" stroke-width="1" stroke="white" geotype="commune" geoname="Saint-Bonnet-la-Rivière" code_insee="19187" code_canton="1919"/><polygon points="249,241 265,249 252,270 270,282 326,278 331,284 311,288 292,308 259,318 255,313 236,313 222,307 220,297 231,272 227,253 249,241" id="19195" class="commune" fill="steelblue" stroke-width="1" stroke="white" geotype="commune" geoname="Saint-Cyprien" code_insee="19195" code_canton="1919"/><polygon points="316,193 320,196 331,206 352,200 357,211 356,222 341,231 346,253 340,270 280,248 278,217 316,193" id="19196" class="commune" fill="steelblue" stroke-width="1" stroke="white" geotype="commune" geoname="Saint-Cyr-la-Roche" code_insee="19196" code_canton="1919"/><polygon points="169,249 173,283 158,289 145,312 131,302 116,310 102,304 99,276 105,279 134,258 142,259 148,247 169,249" id="19239" class="commune" fill="steelblue" stroke-width="1" stroke="white" geotype="commune" geoname="Saint-Robert" code_insee="19239" code_canton="1919"/><polygon points="372,208 357,211 352,200 331,206 320,196 326,192 321,180 330,177 347,157 354,135 374,139 382,159 383,171 370,181 372,208" id="19242" class="commune" fill="steelblue" stroke-width="1" stroke="white" geotype="commune" geoname="Saint-Solve" code_insee="19242" code_canton="1919"/><polygon points="174,244 169,249 148,247 142,259 134,258 105,279 99,276 91,273 55,278 25,266 31,255 12,244 0,244 13,205 25,206 21,195 31,184 81,191 103,202 125,202 126,214 116,221 120,236 174,244" id="19253" class="commune" fill="steelblue" stroke-width="1" stroke="white" geotype="commune" geoname="Segonzac" code_insee="19253" code_canton="1919"/><polygon points="249,241 251,240 280,248 340,270 337,276 344,281 331,284 326,278 270,282 252,270 265,249 249,241" id="19279" class="commune" fill="steelblue" stroke-width="1" stroke="white" geotype="commune" geoname="Vars-sur-Roseix" code_insee="19279" code_canton="1919"/><polygon points="320,196 316,193 302,174 296,144 304,115 327,103 326,88 334,87 335,79 337,77 346,87 374,97 386,92 399,94 420,122 405,134 399,150 404,151 402,158 382,159 374,139 354,135 347,157 330,177 321,180 326,192 320,196" id="19286" class="commune" fill="steelblue" stroke-width="1" stroke="white" geotype="commune" geoname="Vignols" code_insee="19286" code_canton="1919"/><polygon points="382,159 402,158 404,151 443,161 455,140 476,153 487,175 500,177 489,183 491,195 486,216 478,217 459,247 457,271 441,262 435,252 422,257 407,251 403,239 388,245 372,244 379,221 372,208 370,181 383,171 382,159" id="19288" class="commune" fill="steelblue" stroke-width="1" stroke="white" geotype="commune" geoname="Voutezac" code_insee="19288" code_canton="1919"/><polygon points="268,420 263,399 250,402 244,394 260,363 275,358 272,349 298,337 326,340 338,334 357,338 356,341 377,341 393,347 362,379 362,402 374,409 368,418 340,420 327,416 318,429 304,433 297,422 268,420" id="19289" class="commune" fill="steelblue" stroke-width="1" stroke="white" geotype="commune" geoname="Yssandon" code_insee="19289" code_canton="1919"/></svg>