<?xml version="1.0" encoding="utf-8"?>
<svg version="1.1" id="svgmap" xmlns="http://www.w3.org/2000/svg" xmlns:xlink="http://www.w3.org/1999/xlink" x="0px" y="0px" width="100%" height="100%" viewBox="0 0 500 355">
<polygon points="500,158 494,162 459,172 456,158 390,160 359,146 343,153 314,91 351,78 433,59 481,70 500,158" id="21105" class="commune" fill="steelblue" stroke-width="1" stroke="white" geotype="commune" geoname="Bressey-sur-Tille" code_insee="21105" code_canton="2107"/><polygon points="144,205 164,162 134,163 60,141 80,128 145,114 173,95 219,94 243,76 314,91 343,153 310,194 246,185 228,216 228,228 192,232 140,223 144,205" id="21171" class="commune" fill="steelblue" stroke-width="1" stroke="white" geotype="commune" geoname="Chevigny-Saint-Sauveur" code_insee="21171" code_canton="2107"/><polygon points="192,232 228,228 248,257 167,309 134,318 104,299 104,299 135,264 143,237 192,232" id="21213" class="commune" fill="steelblue" stroke-width="1" stroke="white" geotype="commune" geoname="Crimolois" code_insee="21213" code_canton="2107"/><polygon points="464,355 406,343 398,355 347,348 391,314 324,295 309,227 228,216 246,185 310,194 343,153 359,146 390,160 393,228 411,236 416,258 434,255 429,284 450,313 478,350 464,355" id="21370" class="commune" fill="steelblue" stroke-width="1" stroke="white" geotype="commune" geoname="Magny-sur-Tille" code_insee="21370" code_canton="2107"/><polygon points="32,204 76,207 98,220 108,209 144,205 140,223 192,232 143,237 135,264 104,299 12,265 26,242 10,234 29,219 32,204" id="21452" class="commune" fill="steelblue" stroke-width="1" stroke="white" geotype="commune" geoname="Neuilly-lès-Dijon" code_insee="21452" code_canton="2107"/><polygon points="243,76 219,94 173,95 145,114 80,128 13,114 0,91 23,90 25,73 80,70 71,59 81,53 117,51 131,8 148,2 200,0 230,40 222,59 243,76" id="21515" class="commune" fill="steelblue" stroke-width="1" stroke="white" geotype="commune" geoname="Quetigny" code_insee="21515" code_canton="2107"/><polygon points="60,141 134,163 164,162 144,205 108,209 98,220 76,207 32,204 28,177 60,141" id="21605" class="commune" fill="steelblue" stroke-width="1" stroke="white" geotype="commune" geoname="Sennecey-lès-Dijon" code_insee="21605" code_canton="2107"/></svg>