<?xml version="1.0" encoding="utf-8"?>
<svg version="1.1" id="svgmap" xmlns="http://www.w3.org/2000/svg" xmlns:xlink="http://www.w3.org/1999/xlink" x="0px" y="0px" width="100%" height="100%" viewBox="0 0 500 228">
<polygon points="344,151 339,148 340,137 346,136 348,130 364,119 368,120 383,112 385,107 392,106 387,103 391,99 389,88 394,82 390,76 395,75 415,71 426,77 450,80 455,91 466,94 474,101 488,99 490,107 500,108 499,115 487,124 479,123 477,120 465,121 446,130 438,124 429,124 421,141 411,146 412,152 402,163 380,161 377,158 370,163 363,149 344,151" id="23002" class="commune" fill="steelblue" stroke-width="1" stroke="white" geotype="commune" geoname="Ajain" code_insee="23002" code_canton="2314"/><polygon points="233,91 207,83 200,90 185,94 170,92 165,87 160,83 161,80 169,82 168,62 172,56 183,51 178,45 172,47 168,41 170,36 175,35 173,32 189,18 200,23 204,29 219,26 222,18 231,17 229,14 235,10 236,18 242,16 242,19 229,36 256,41 251,47 256,51 265,50 267,47 275,50 271,60 275,63 278,69 286,71 286,81 282,82 286,84 265,88 256,88 252,85 242,94 233,91" id="23004" class="commune" fill="steelblue" stroke-width="1" stroke="white" geotype="commune" geoname="Anzême" code_insee="23004" code_canton="2314"/><polygon points="134,200 121,194 114,196 116,175 124,173 125,165 139,158 137,154 144,156 158,157 163,167 163,170 159,167 154,170 153,181 159,184 162,193 140,195 134,200" id="23033" class="commune" fill="steelblue" stroke-width="1" stroke="white" geotype="commune" geoname="Brionne" code_insee="23033" code_canton="2314"/><polygon points="173,32 175,35 170,36 168,41 172,47 178,45 183,51 172,56 168,62 169,82 161,80 160,83 165,87 152,94 126,91 122,86 127,85 122,82 100,81 97,79 91,82 80,75 77,80 81,84 64,82 59,93 49,96 38,94 37,87 27,87 19,78 27,74 13,69 15,60 18,62 16,56 26,60 35,60 35,53 19,51 25,48 35,48 39,46 38,39 53,24 74,23 78,27 91,18 100,29 111,29 121,24 124,28 144,19 161,29 173,32" id="23036" class="commune" fill="steelblue" stroke-width="1" stroke="white" geotype="commune" geoname="Bussière-Dunoise" code_insee="23036" code_canton="2314"/><polygon points="28,219 27,200 38,185 31,181 45,180 47,173 55,169 82,176 89,192 84,193 83,199 74,199 68,208 57,212 57,218 48,222 42,219 40,221 28,219" id="23088" class="commune" fill="steelblue" stroke-width="1" stroke="white" geotype="commune" geoname="Gartempe" code_insee="23088" code_canton="2314"/><polygon points="393,64 397,66 392,71 395,75 390,76 394,82 389,88 391,99 387,103 392,106 385,107 383,112 368,120 364,119 348,130 346,136 340,137 333,137 321,127 310,114 307,116 301,113 304,111 300,105 310,100 306,88 286,81 286,71 278,69 275,63 291,59 295,62 302,58 300,54 306,57 303,61 306,63 321,59 322,63 332,63 333,74 343,79 345,75 352,73 351,68 347,69 350,65 356,66 355,61 368,56 384,65 393,64" id="23092" class="commune" fill="steelblue" stroke-width="1" stroke="white" geotype="commune" geoname="Glénic" code_insee="23092" code_canton="2314"/><polygon points="275,63 271,60 275,50 282,44 296,43 304,37 307,40 312,35 302,29 305,27 302,26 302,20 308,21 311,17 308,10 326,0 335,5 332,8 336,6 340,11 344,9 348,15 356,16 364,21 372,20 373,25 384,29 380,37 383,42 388,42 389,51 395,52 387,55 395,57 393,64 384,65 368,56 355,61 356,66 350,65 347,69 351,68 352,73 345,75 343,79 333,74 332,63 322,63 321,59 306,63 303,61 306,57 300,54 302,58 295,62 291,59 275,63" id="23101" class="commune" fill="steelblue" stroke-width="1" stroke="white" geotype="commune" geoname="Jouillat" code_insee="23101" code_canton="2314"/><polygon points="233,91 242,94 252,85 256,88 265,88 286,84 282,82 286,81 306,88 310,100 300,105 304,111 301,113 307,116 310,114 321,127 309,138 313,141 308,148 290,153 289,146 281,143 284,137 268,126 266,131 257,126 242,132 233,127 251,116 246,111 249,102 244,103 246,98 236,98 233,91" id="23195" class="commune" fill="steelblue" stroke-width="1" stroke="white" geotype="commune" geoname="Saint-Fiel" code_insee="23195" code_canton="2314"/><polygon points="212,189 204,195 216,202 197,210 199,213 203,213 198,215 185,210 189,220 176,223 167,215 169,211 163,211 149,218 153,220 145,220 150,226 144,228 128,221 137,218 130,209 132,205 134,200 140,195 162,193 159,184 153,181 154,170 159,167 163,170 163,167 168,171 192,167 212,189" id="23208" class="commune" fill="steelblue" stroke-width="1" stroke="white" geotype="commune" geoname="Saint-Léger-le-Guérétois" code_insee="23208" code_canton="2314"/><polygon points="165,87 170,92 185,94 200,90 207,83 233,91 236,98 246,98 244,103 249,102 246,111 251,116 233,127 233,142 228,149 231,153 225,162 218,159 216,163 224,174 217,172 223,178 212,189 192,167 168,171 163,167 158,157 144,156 146,146 143,145 139,148 137,146 132,121 144,110 144,99 152,94 165,87" id="23245" class="commune" fill="steelblue" stroke-width="1" stroke="white" geotype="commune" geoname="Saint-Sulpice-le-Guérétois" code_insee="23245" code_canton="2314"/><polygon points="144,156 137,154 139,158 125,165 124,173 116,175 114,196 108,192 103,193 97,187 102,181 94,171 82,176 55,169 47,173 42,163 13,152 3,153 0,148 15,138 24,138 37,117 37,110 38,94 49,96 59,93 64,82 81,84 77,80 80,75 91,82 97,79 100,81 122,82 127,85 122,86 126,91 152,94 144,99 144,110 132,121 137,146 139,148 143,145 146,146 144,156" id="23247" class="commune" fill="steelblue" stroke-width="1" stroke="white" geotype="commune" geoname="Saint-Vaury" code_insee="23247" code_canton="2314"/></svg>