<?xml version="1.0" encoding="utf-8"?>
<svg version="1.1" id="svgmap" xmlns="http://www.w3.org/2000/svg" xmlns:xlink="http://www.w3.org/1999/xlink" x="0px" y="0px" width="100%" height="100%" viewBox="0 0 500 296">
<polygon points="480,41 465,42 454,36 447,34 452,34 448,30 448,25 446,25 444,20 439,16 440,9 437,9 440,5 453,7 461,5 468,9 473,15 472,18 475,21 478,31 480,41" id="25003" class="commune" fill="steelblue" stroke-width="1" stroke="white" geotype="commune" geoname="Abbenans" code_insee="25003" code_canton="2502"/><polygon points="397,202 389,202 380,197 358,181 360,177 365,176 382,180 391,180 394,183 421,190 411,197 397,202" id="25006" class="commune" fill="steelblue" stroke-width="1" stroke="white" geotype="commune" geoname="Adam-lès-Passavant" code_insee="25006" code_canton="2502"/><polygon points="340,194 340,194 344,202 369,215 365,224 369,221 375,225 373,232 370,232 368,239 359,235 356,236 353,235 350,231 346,232 345,229 338,230 335,229 340,214 339,210 334,210 335,208 330,207 331,203 338,200 340,194" id="25009" class="commune" fill="steelblue" stroke-width="1" stroke="white" geotype="commune" geoname="Aïssey" code_insee="25009" code_canton="2502"/><polygon points="397,109 406,112 411,109 411,115 415,117 417,129 425,129 417,133 397,135 396,132 390,132 390,130 384,129 383,125 390,119 393,117 395,117 397,109" id="25032" class="commune" fill="steelblue" stroke-width="1" stroke="white" geotype="commune" geoname="Autechaux" code_insee="25032" code_canton="2502"/><polygon points="297,66 302,66 312,68 315,75 311,79 314,83 308,92 302,94 299,92 294,95 292,94 286,85 291,85 291,82 294,82 296,74 297,66" id="25038" class="commune" fill="steelblue" stroke-width="1" stroke="white" geotype="commune" geoname="Avilley" code_insee="25038" code_canton="2502"/><polygon points="312,116 309,115 307,108 301,105 301,102 298,101 294,103 291,100 294,95 299,92 302,94 308,92 315,105 315,113 312,116" id="25045" class="commune" fill="steelblue" stroke-width="1" stroke="white" geotype="commune" geoname="Battenans-les-Mines" code_insee="25045" code_canton="2502"/><polygon points="423,146 412,147 405,151 400,151 398,154 402,157 400,160 387,161 380,168 371,170 367,164 370,163 365,159 349,156 348,154 344,153 341,145 335,142 320,155 317,156 317,153 310,150 310,147 313,140 309,134 322,131 336,133 344,140 354,134 357,135 363,133 367,135 375,133 390,132 396,132 397,135 417,133 416,133 407,140 412,143 422,144 423,146" id="25047" class="commune" fill="steelblue" stroke-width="1" stroke="white" geotype="commune" geoname="Baume-les-Dames" code_insee="25047" code_canton="2502"/><polygon points="231,94 233,95 223,100 219,100 216,96 220,96 222,91 231,94" id="25065" class="commune" fill="steelblue" stroke-width="1" stroke="white" geotype="commune" geoname="Blarians" code_insee="25065" code_canton="2502"/><polygon points="397,10 390,19 388,15 380,20 375,15 372,15 371,13 379,12 388,8 397,10" id="25072" class="commune" fill="steelblue" stroke-width="1" stroke="white" geotype="commune" geoname="Bonnal" code_insee="25072" code_canton="2502"/><polygon points="100,185 94,180 94,179 94,175 102,173 96,169 98,168 89,165 95,161 100,157 100,154 105,152 110,153 112,151 118,152 121,158 115,175 123,174 125,176 111,183 100,185" id="25073" class="commune" fill="steelblue" stroke-width="1" stroke="white" geotype="commune" geoname="Bonnay" code_insee="25073" code_canton="2502"/><polygon points="234,271 226,259 245,246 245,238 250,236 249,234 258,231 271,222 277,222 284,228 294,226 307,234 307,237 307,242 300,252 301,256 304,257 303,258 294,262 279,251 275,251 264,255 248,257 241,268 234,271" id="25078" class="commune" fill="steelblue" stroke-width="1" stroke="white" geotype="commune" geoname="Bouclans" code_insee="25078" code_canton="2502"/><polygon points="310,147 310,150 316,159 309,163 301,167 295,165 295,161 297,152 295,149 300,146 310,147" id="25088" class="commune" fill="steelblue" stroke-width="1" stroke="white" geotype="commune" geoname="Breconchaux" code_insee="25088" code_canton="2502"/><polygon points="323,122 322,131 309,134 292,133 304,116 309,115 312,116 316,121 323,122" id="25092" class="commune" fill="steelblue" stroke-width="1" stroke="white" geotype="commune" geoname="Bretenière" code_insee="25092" code_canton="2502"/><polygon points="340,194 340,194 324,198 316,179 332,173 340,173 345,180 344,184 348,187 340,194" id="25094" class="commune" fill="steelblue" stroke-width="1" stroke="white" geotype="commune" geoname="Bretigney-Notre-Dame" code_insee="25094" code_canton="2502"/><polygon points="283,127 280,117 282,114 277,110 270,109 264,104 265,100 271,96 270,94 276,93 278,97 279,98 292,94 294,95 291,100 294,103 285,109 292,120 287,131 283,127" id="25107" class="commune" fill="steelblue" stroke-width="1" stroke="white" geotype="commune" geoname="Cendrey" code_insee="25107" code_canton="2502"/><polygon points="297,187 299,191 294,193 291,197 300,214 296,219 287,212 283,215 273,213 273,212 268,213 263,209 259,211 258,204 254,202 257,199 267,201 275,198 274,188 281,191 297,187" id="25116" class="commune" fill="steelblue" stroke-width="1" stroke="white" geotype="commune" geoname="Champlive" code_insee="25116" code_canton="2502"/><polygon points="229,157 227,164 229,167 225,168 223,178 199,177 199,174 204,171 201,171 201,169 214,160 229,157" id="25132" class="commune" fill="steelblue" stroke-width="1" stroke="white" geotype="commune" geoname="Châtillon-Guyotte" code_insee="25132" code_canton="2502"/><polygon points="66,174 62,173 59,169 63,168 62,163 66,158 73,160 77,164 72,171 66,174" id="25153" class="commune" fill="steelblue" stroke-width="1" stroke="white" geotype="commune" geoname="Chevroz" code_insee="25153" code_canton="2502"/><polygon points="242,133 243,137 236,146 238,147 236,153 230,155 227,152 222,154 221,150 217,148 215,138 211,141 209,139 209,139 219,126 226,129 234,129 242,133" id="25163" class="commune" fill="steelblue" stroke-width="1" stroke="white" geotype="commune" geoname="Corcelle-Mieslot" code_insee="25163" code_canton="2502"/><polygon points="335,229 338,230 345,229 346,232 350,231 353,235 347,242 336,239 334,240 320,235 330,229 335,229" id="25166" class="commune" fill="steelblue" stroke-width="1" stroke="white" geotype="commune" geoname="Côtebrune" code_insee="25166" code_canton="2502"/><polygon points="429,2 425,13 432,19 426,25 428,27 425,30 420,32 416,26 406,22 403,23 403,18 401,16 407,14 413,3 426,0 429,2" id="25181" class="commune" fill="steelblue" stroke-width="1" stroke="white" geotype="commune" geoname="Cubrial" code_insee="25181" code_canton="2502"/><polygon points="435,35 425,30 428,27 426,25 432,19 425,13 429,2 430,1 440,5 437,9 440,9 439,16 444,20 446,25 448,25 448,30 452,34 447,34 454,36 442,34 440,36 435,35" id="25182" class="commune" fill="steelblue" stroke-width="1" stroke="white" geotype="commune" geoname="Cubry" code_insee="25182" code_canton="2502"/><polygon points="432,178 418,173 428,174 434,170 443,171 457,166 473,168 472,170 471,173 466,172 462,174 456,181 454,180 449,184 450,181 445,175 432,178" id="25183" class="commune" fill="steelblue" stroke-width="1" stroke="white" geotype="commune" geoname="Cusance" code_insee="25183" code_canton="2502"/><polygon points="389,38 393,37 395,25 403,18 403,23 406,22 416,26 420,32 416,36 415,47 419,49 414,49 411,51 408,48 409,46 405,45 408,43 406,40 400,42 395,41 396,37 389,38" id="25184" class="commune" fill="steelblue" stroke-width="1" stroke="white" geotype="commune" geoname="Cuse-et-Adrisans" code_insee="25184" code_canton="2502"/><polygon points="21,183 5,184 0,177 5,170 9,167 3,156 5,154 16,157 17,155 20,158 31,159 34,157 36,161 37,161 29,168 30,172 21,183" id="25186" class="commune" fill="steelblue" stroke-width="1" stroke="white" geotype="commune" geoname="Cussey-sur-l'Ognon" code_insee="25186" code_canton="2502"/><polygon points="340,194 338,200 331,203 330,207 311,212 303,216 300,214 291,197 294,193 299,191 297,187 316,179 324,198 340,194" id="25189" class="commune" fill="steelblue" stroke-width="1" stroke="white" geotype="commune" geoname="Dammartin-les-Templiers" code_insee="25189" code_canton="2502"/><polygon points="89,165 98,168 96,169 102,173 94,175 94,179 91,178 82,183 81,177 69,178 68,175 65,177 66,174 72,171 77,164 79,163 84,166 86,163 89,165" id="25200" class="commune" fill="steelblue" stroke-width="1" stroke="white" geotype="commune" geoname="Devecey" code_insee="25200" code_canton="2502"/><polygon points="277,156 281,151 289,148 293,149 295,149 297,152 295,161 281,161 281,157 277,156" id="25215" class="commune" fill="steelblue" stroke-width="1" stroke="white" geotype="commune" geoname="Écouvotte" code_insee="25215" code_canton="2502"/><polygon points="349,156 365,159 370,163 367,164 354,165 350,170 340,173 332,173 331,168 341,166 343,159 349,156" id="25221" class="commune" fill="steelblue" stroke-width="1" stroke="white" geotype="commune" geoname="Esnans" code_insee="25221" code_canton="2502"/><polygon points="264,104 261,106 258,105 260,101 259,101 253,100 248,93 253,89 249,82 252,84 258,87 265,87 270,94 271,96 265,100 264,104" id="25242" class="commune" fill="steelblue" stroke-width="1" stroke="white" geotype="commune" geoname="Flagey-Rigney" code_insee="25242" code_canton="2502"/><polygon points="417,81 417,74 418,66 416,60 410,59 413,57 414,49 419,49 427,50 434,55 437,66 441,67 439,75 435,78 432,77 417,81" id="25247" class="commune" fill="steelblue" stroke-width="1" stroke="white" geotype="commune" geoname="Fontenelle-Montby" code_insee="25247" code_canton="2502"/><polygon points="322,131 323,122 338,119 351,118 358,122 354,134 344,140 336,133 322,131" id="25249" class="commune" fill="steelblue" stroke-width="1" stroke="white" geotype="commune" geoname="Fontenotte" code_insee="25249" code_canton="2502"/><polygon points="331,168 324,168 323,163 323,159 340,158 348,154 349,156 343,159 341,166 331,168" id="25251" class="commune" fill="steelblue" stroke-width="1" stroke="white" geotype="commune" geoname="Fourbanne" code_insee="25251" code_canton="2502"/><polygon points="54,167 63,181 56,186 46,188 43,182 35,180 21,183 30,172 29,168 37,161 43,164 45,168 46,166 49,167 46,168 49,170 54,167" id="25265" class="commune" fill="steelblue" stroke-width="1" stroke="white" geotype="commune" geoname="Geneuille" code_insee="25265" code_canton="2502"/><polygon points="259,101 259,101 238,103 233,101 223,100 233,95 231,94 237,94 239,92 236,93 237,91 242,90 242,82 248,79 249,82 253,89 248,93 253,100 259,101" id="25269" class="commune" fill="steelblue" stroke-width="1" stroke="white" geotype="commune" geoname="Germondans" code_insee="25269" code_canton="2502"/><polygon points="320,235 313,238 307,237 307,234 294,226 296,219 300,214 303,216 311,212 330,207 335,208 334,210 339,210 340,214 335,229 330,229 320,235" id="25273" class="commune" fill="steelblue" stroke-width="1" stroke="white" geotype="commune" geoname="Glamondans" code_insee="25273" code_canton="2502"/><polygon points="439,75 441,67 450,65 450,63 458,63 466,52 476,58 479,55 476,54 477,48 480,47 484,48 485,43 500,42 497,47 488,53 482,64 475,66 474,77 468,83 464,83 463,92 453,96 450,93 454,90 454,83 439,75" id="25276" class="commune" fill="steelblue" stroke-width="1" stroke="white" geotype="commune" geoname="Gondenans-Montby" code_insee="25276" code_canton="2502"/><polygon points="414,49 413,57 410,59 408,59 392,57 396,53 392,52 390,54 388,49 394,42 389,38 396,37 395,41 400,42 406,40 408,43 405,45 409,46 408,48 411,51 414,49" id="25277" class="commune" fill="steelblue" stroke-width="1" stroke="white" geotype="commune" geoname="Gondenans-les-Moulins" code_insee="25277" code_canton="2502"/><polygon points="350,264 350,265 352,271 338,280 319,278 320,276 315,274 303,258 304,257 301,256 300,252 307,242 307,237 313,238 320,235 334,240 336,239 347,242 355,248 350,249 339,257 343,262 342,265 350,264" id="25278" class="commune" fill="steelblue" stroke-width="1" stroke="white" geotype="commune" geoname="Gonsans" code_insee="25278" code_canton="2502"/><polygon points="388,49 390,54 392,52 396,53 392,57 408,59 406,62 387,62 385,66 379,67 373,68 371,72 369,68 363,69 360,67 362,61 358,60 358,58 361,54 363,53 364,58 368,58 369,51 388,49" id="25279" class="commune" fill="steelblue" stroke-width="1" stroke="white" geotype="commune" geoname="Gouhelans" code_insee="25279" code_canton="2502"/><polygon points="323,159 320,155 335,142 341,145 344,153 348,154 340,158 323,159" id="25298" class="commune" fill="steelblue" stroke-width="1" stroke="white" geotype="commune" geoname="Grosbois" code_insee="25298" code_canton="2502"/><polygon points="432,178 423,180 425,186 421,190 394,183 391,180 395,174 403,173 416,171 418,173 432,178" id="25299" class="commune" fill="steelblue" stroke-width="1" stroke="white" geotype="commune" geoname="Guillon-les-Bains" code_insee="25299" code_canton="2502"/><polygon points="359,93 352,90 352,88 352,88 358,81 358,76 363,75 363,69 369,68 371,72 373,68 379,67 377,76 378,80 370,80 359,93" id="25310" class="commune" fill="steelblue" stroke-width="1" stroke="white" geotype="commune" geoname="Huanne-Montmartin" code_insee="25310" code_canton="2502"/><polygon points="423,146 422,144 431,142 432,134 438,131 441,134 460,138 460,147 446,149 440,139 433,143 423,146" id="25312" class="commune" fill="steelblue" stroke-width="1" stroke="white" geotype="commune" geoname="Hyèvre-Magny" code_insee="25312" code_canton="2502"/><polygon points="457,113 471,114 473,115 476,119 466,123 460,129 461,133 460,138 441,134 438,131 432,134 431,142 422,144 412,143 407,140 416,133 432,127 446,124 457,113" id="25313" class="commune" fill="steelblue" stroke-width="1" stroke="white" geotype="commune" geoname="Hyèvre-Paroisse" code_insee="25313" code_canton="2502"/><polygon points="288,184 274,188 275,198 267,201 257,199 259,194 253,191 253,188 274,187 288,184" id="25323" class="commune" fill="steelblue" stroke-width="1" stroke="white" geotype="commune" geoname="Laissey" code_insee="25323" code_canton="2502"/><polygon points="418,173 416,171 425,165 428,159 446,149 460,147 472,147 470,157 474,160 473,168 457,166 443,171 434,170 428,174 418,173" id="25341" class="commune" fill="steelblue" stroke-width="1" stroke="white" geotype="commune" geoname="Lomont-sur-Crête" code_insee="25341" code_canton="2502"/><polygon points="390,132 375,133 367,135 363,133 357,135 354,134 358,122 351,118 351,116 361,113 390,119 383,125 384,129 390,130 390,132" id="25354" class="commune" fill="steelblue" stroke-width="1" stroke="white" geotype="commune" geoname="Luxiol" code_insee="25354" code_canton="2502"/><polygon points="132,183 130,185 125,176 123,174 115,175 121,158 118,152 112,151 114,149 116,148 118,150 119,152 126,152 129,161 134,166 133,173 128,175 132,183" id="25376" class="commune" fill="steelblue" stroke-width="1" stroke="white" geotype="commune" geoname="Mérey-Vieilley" code_insee="25376" code_canton="2502"/><polygon points="417,74 417,81 413,87 399,88 393,88 390,86 383,87 383,84 378,80 377,76 391,73 397,75 410,72 414,73 414,75 417,74" id="25377" class="commune" fill="steelblue" stroke-width="1" stroke="white" geotype="commune" geoname="Mésandans" code_insee="25377" code_canton="2502"/><polygon points="209,139 195,148 190,144 177,146 175,144 174,145 158,140 167,140 169,136 166,136 166,135 171,136 172,133 175,132 175,135 179,134 197,131 199,136 204,135 209,139 209,139" id="25382" class="commune" fill="steelblue" stroke-width="1" stroke="white" geotype="commune" geoname="Moncey" code_insee="25382" code_canton="2502"/><polygon points="327,67 337,59 334,53 343,51 355,57 355,60 351,63 346,60 348,68 343,71 338,80 334,77 326,72 327,67" id="25384" class="commune" fill="steelblue" stroke-width="1" stroke="white" geotype="commune" geoname="Mondon" code_insee="25384" code_canton="2502"/><polygon points="343,51 334,53 337,59 327,67 319,65 314,61 317,54 322,52 324,49 330,46 328,34 332,31 331,27 339,30 340,37 354,43 351,46 342,47 343,51" id="25385" class="commune" fill="steelblue" stroke-width="1" stroke="white" geotype="commune" geoname="Montagney-Servigney" code_insee="25385" code_canton="2502"/><polygon points="421,190 425,186 423,180 432,178 445,175 450,181 449,184 440,186 437,190 432,189 431,192 431,194 421,190" id="25401" class="commune" fill="steelblue" stroke-width="1" stroke="white" geotype="commune" geoname="Montivernage" code_insee="25401" code_canton="2502"/><polygon points="334,77 332,80 324,84 314,83 311,79 315,75 312,68 319,65 327,67 326,72 334,77" id="25408" class="commune" fill="steelblue" stroke-width="1" stroke="white" geotype="commune" geoname="Montussaint" code_insee="25408" code_canton="2502"/><polygon points="231,272 234,271 241,268 248,257 264,255 275,251 279,251 294,262 303,258 315,274 320,276 319,278 306,278 282,290 268,291 263,294 263,292 259,292 255,296 257,292 247,291 247,287 238,284 234,282 231,272" id="25417" class="commune" fill="steelblue" stroke-width="1" stroke="white" geotype="commune" geoname="Naisey-les-Granges" code_insee="25417" code_canton="2502"/><polygon points="427,50 419,49 415,47 416,36 420,32 425,30 435,35 435,40 427,50" id="25419" class="commune" fill="steelblue" stroke-width="1" stroke="white" geotype="commune" geoname="Nans" code_insee="25419" code_canton="2502"/><polygon points="286,85 292,94 279,98 278,97 280,93 271,82 274,79 286,85" id="25430" class="commune" fill="steelblue" stroke-width="1" stroke="white" geotype="commune" geoname="Ollans" code_insee="25430" code_canton="2502"/><polygon points="230,215 244,209 243,206 254,202 258,204 259,211 263,209 268,213 273,212 273,213 269,220 271,222 258,231 249,234 240,229 236,220 233,220 230,215" id="25437" class="commune" fill="steelblue" stroke-width="1" stroke="white" geotype="commune" geoname="Osse" code_insee="25437" code_canton="2502"/><polygon points="323,163 324,168 331,168 332,173 316,179 297,187 281,191 274,188 288,184 288,182 303,173 301,167 309,163 310,165 315,163 318,165 323,163" id="25439" class="commune" fill="steelblue" stroke-width="1" stroke="white" geotype="commune" geoname="Ougney-Douvot" code_insee="25439" code_canton="2502"/><polygon points="157,140 157,142 151,140 148,141 140,140 139,130 147,130 153,132 155,131 159,134 157,140" id="25444" class="commune" fill="steelblue" stroke-width="1" stroke="white" geotype="commune" geoname="Palise" code_insee="25444" code_canton="2502"/><polygon points="443,216 425,221 420,233 409,228 397,225 391,226 382,222 387,207 397,202 411,197 421,190 431,194 434,195 428,208 429,213 443,216" id="25446" class="commune" fill="steelblue" stroke-width="1" stroke="white" geotype="commune" geoname="Passavant" code_insee="25446" code_canton="2502"/><polygon points="365,176 371,170 380,168 387,161 400,160 403,173 395,174 391,180 382,180 365,176" id="25465" class="commune" fill="steelblue" stroke-width="1" stroke="white" geotype="commune" geoname="Pont-les-Moulins" code_insee="25465" code_canton="2502"/><polygon points="243,137 248,138 251,137 253,138 254,150 248,156 258,159 262,163 262,169 255,171 255,177 245,181 234,182 232,178 223,178 225,168 229,167 227,164 229,157 230,155 236,153 238,147 236,146 243,137" id="25468" class="commune" fill="steelblue" stroke-width="1" stroke="white" geotype="commune" geoname="Pouligney-Lusans" code_insee="25468" code_canton="2502"/><polygon points="332,80 334,77 338,80 343,71 348,68 354,66 357,70 360,67 363,69 363,75 358,76 358,81 352,88 343,83 344,81 339,83 332,80" id="25472" class="commune" fill="steelblue" stroke-width="1" stroke="white" geotype="commune" geoname="Puessans" code_insee="25472" code_canton="2502"/><polygon points="293,149 289,148 281,151 277,156 266,160 267,162 262,163 258,159 248,156 254,150 277,149 291,144 293,149" id="25474" class="commune" fill="steelblue" stroke-width="1" stroke="white" geotype="commune" geoname="Puy" code_insee="25474" code_canton="2502"/><polygon points="199,122 201,119 204,115 207,117 214,116 207,114 213,113 216,115 218,108 224,104 234,104 233,101 238,103 259,101 257,106 257,110 253,111 235,113 229,111 233,113 230,115 230,120 236,127 234,129 226,129 219,126 209,139 204,135 207,131 202,122 199,122" id="25490" class="commune" fill="steelblue" stroke-width="1" stroke="white" geotype="commune" geoname="Rigney" code_insee="25490" code_canton="2502"/><polygon points="253,111 252,112 253,113 253,115 251,116 250,118 252,122 250,123 251,124 242,133 234,129 236,127 230,120 230,115 233,113 229,111 235,113 253,111" id="25491" class="commune" fill="steelblue" stroke-width="1" stroke="white" geotype="commune" geoname="Rignosot" code_insee="25491" code_canton="2502"/><polygon points="383,87 390,86 393,88 399,88 396,95 399,99 397,102 384,103 371,95 381,87 383,87" id="25492" class="commune" fill="steelblue" stroke-width="1" stroke="white" geotype="commune" geoname="Rillans" code_insee="25492" code_canton="2502"/><polygon points="332,80 339,83 344,81 343,83 352,88 352,88 347,92 347,95 342,98 329,98 326,101 323,98 327,91 324,84 332,80" id="25498" class="commune" fill="steelblue" stroke-width="1" stroke="white" geotype="commune" geoname="Rognon" code_insee="25498" code_canton="2502"/><polygon points="408,59 410,59 416,60 418,66 417,74 414,75 414,73 410,72 397,75 391,73 377,76 379,67 385,66 387,62 406,62 408,59" id="25499" class="commune" fill="steelblue" stroke-width="1" stroke="white" geotype="commune" geoname="Romain" code_insee="25499" code_canton="2502"/><polygon points="403,18 395,25 393,37 389,38 394,42 388,49 369,51 368,58 364,58 363,53 361,54 358,58 358,60 362,61 360,67 357,70 354,66 348,68 346,60 351,63 355,60 355,57 343,51 342,47 351,46 354,43 340,37 339,30 346,32 346,30 357,30 360,26 369,25 372,24 368,21 371,20 368,18 375,15 380,20 388,15 390,19 397,10 401,13 406,12 407,14 401,16 403,18" id="25505" class="commune" fill="steelblue" stroke-width="1" stroke="white" geotype="commune" geoname="Rougemont" code_insee="25505" code_canton="2502"/><polygon points="292,133 292,133 289,134 287,131 292,120 285,109 294,103 298,101 301,102 301,105 307,108 309,115 304,116 292,133" id="25506" class="commune" fill="steelblue" stroke-width="1" stroke="white" geotype="commune" geoname="Rougemontot" code_insee="25506" code_canton="2502"/><polygon points="295,165 301,167 303,173 288,182 288,184 274,187 253,188 244,189 245,181 255,177 255,171 262,169 279,172 285,170 294,167 295,165" id="25508" class="commune" fill="steelblue" stroke-width="1" stroke="white" geotype="commune" geoname="Roulans" code_insee="25508" code_canton="2502"/><polygon points="295,161 295,165 294,167 285,170 271,166 266,160 277,156 281,157 281,161 295,161" id="25518" class="commune" fill="steelblue" stroke-width="1" stroke="white" geotype="commune" geoname="Saint-Hilaire" code_insee="25518" code_canton="2502"/><polygon points="348,187 358,181 380,197 389,202 397,202 387,207 382,222 375,225 369,221 365,224 369,215 344,202 340,194 348,187" id="25520" class="commune" fill="steelblue" stroke-width="1" stroke="white" geotype="commune" geoname="Saint-Juan" code_insee="25520" code_canton="2502"/><polygon points="320,155 323,159 323,163 318,165 315,163 310,165 309,163 316,159 310,150 317,153 317,156 320,155" id="25538" class="commune" fill="steelblue" stroke-width="1" stroke="white" geotype="commune" geoname="Séchin" code_insee="25538" code_canton="2502"/><polygon points="371,170 365,176 360,177 358,181 348,187 344,184 345,180 340,173 350,170 354,165 367,164 371,170" id="25546" class="commune" fill="steelblue" stroke-width="1" stroke="white" geotype="commune" geoname="Silley-Bléfond" code_insee="25546" code_canton="2502"/><polygon points="324,84 327,91 323,98 326,101 322,110 315,113 315,105 308,92 314,83 324,84" id="25556" class="commune" fill="steelblue" stroke-width="1" stroke="white" geotype="commune" geoname="Tallans" code_insee="25556" code_canton="2502"/><polygon points="172,133 161,126 165,125 170,125 179,121 180,122 182,119 196,123 199,122 202,122 207,131 204,135 199,136 197,131 179,134 175,135 175,132 172,133" id="25563" class="commune" fill="steelblue" stroke-width="1" stroke="white" geotype="commune" geoname="Thurey-le-Mont" code_insee="25563" code_canton="2502"/><polygon points="243,137 242,133 251,124 250,123 252,122 250,118 251,116 253,115 253,113 252,112 253,111 257,110 257,106 259,101 259,101 260,101 258,105 261,106 264,104 270,109 277,110 282,114 280,117 283,127 279,128 266,133 255,135 253,138 251,137 248,138 243,137" id="25566" class="commune" fill="steelblue" stroke-width="1" stroke="white" geotype="commune" geoname="Tour-de-Sçay" code_insee="25566" code_canton="2502"/><polygon points="352,88 352,90 359,93 361,94 359,98 365,98 357,108 338,119 323,122 316,121 312,116 315,113 322,110 326,101 329,98 342,98 347,95 347,92 352,88" id="25567" class="commune" fill="steelblue" stroke-width="1" stroke="white" geotype="commune" geoname="Tournans" code_insee="25567" code_canton="2502"/><polygon points="372,15 375,15 368,18 371,20 368,21 372,24 369,25 360,26 357,30 346,30 352,26 356,16 360,14 372,15" id="25570" class="commune" fill="steelblue" stroke-width="1" stroke="white" geotype="commune" geoname="Tressandans" code_insee="25570" code_canton="2502"/><polygon points="371,95 365,98 359,98 361,94 359,93 370,80 378,80 383,84 383,87 381,87 371,95" id="25572" class="commune" fill="steelblue" stroke-width="1" stroke="white" geotype="commune" geoname="Trouvans" code_insee="25572" code_canton="2502"/><polygon points="441,67 437,66 434,55 427,50 435,40 435,35 440,36 442,34 454,36 465,42 480,41 485,43 484,48 480,47 477,48 476,54 479,55 476,58 466,52 458,63 450,63 450,65 441,67" id="25574" class="commune" fill="steelblue" stroke-width="1" stroke="white" geotype="commune" geoname="Uzelle" code_insee="25574" code_canton="2502"/><polygon points="292,133 292,133 309,134 313,140 310,147 300,146 295,149 293,149 291,144 292,133" id="25579" class="commune" fill="steelblue" stroke-width="1" stroke="white" geotype="commune" geoname="Val-de-Roulans" code_insee="25579" code_canton="2502"/><polygon points="201,119 199,122 196,123 182,119 180,122 179,121 170,125 165,125 163,123 159,125 157,123 160,119 167,117 169,112 172,113 171,109 177,111 181,117 193,117 201,119" id="25582" class="commune" fill="steelblue" stroke-width="1" stroke="white" geotype="commune" geoname="Valleroy" code_insee="25582" code_canton="2502"/><polygon points="296,219 294,226 284,228 277,222 271,222 269,220 273,213 283,215 287,212 296,219" id="25587" class="commune" fill="steelblue" stroke-width="1" stroke="white" geotype="commune" geoname="Vauchamps" code_insee="25587" code_canton="2502"/><polygon points="195,148 194,148 190,151 182,152 170,158 165,162 159,159 156,160 150,151 151,147 144,144 149,143 148,141 151,140 157,142 157,140 158,140 174,145 175,144 177,146 190,144 195,148" id="25598" class="commune" fill="steelblue" stroke-width="1" stroke="white" geotype="commune" geoname="Venise" code_insee="25598" code_canton="2502"/><polygon points="262,163 267,162 266,160 271,166 285,170 279,172 262,169 262,163" id="25599" class="commune" fill="steelblue" stroke-width="1" stroke="white" geotype="commune" geoname="Vennans" code_insee="25599" code_canton="2502"/><polygon points="411,109 406,112 397,109 397,102 399,99 396,95 399,88 413,87 424,95 424,98 423,100 420,100 413,105 411,109" id="25602" class="commune" fill="steelblue" stroke-width="1" stroke="white" geotype="commune" geoname="Vergranne" code_insee="25602" code_canton="2502"/><polygon points="365,98 371,95 384,103 397,102 397,109 395,117 393,117 390,119 361,113 351,116 351,118 338,119 357,108 365,98" id="25604" class="commune" fill="steelblue" stroke-width="1" stroke="white" geotype="commune" geoname="Verne" code_insee="25604" code_canton="2502"/><polygon points="140,140 148,141 149,143 144,144 151,147 150,151 156,160 159,159 165,162 158,170 146,176 134,179 132,183 128,175 133,173 134,166 129,161 126,152 119,152 118,150 133,149 138,146 140,140" id="25612" class="commune" fill="steelblue" stroke-width="1" stroke="white" geotype="commune" geoname="Vieilley" code_insee="25612" code_canton="2502"/><polygon points="413,87 417,81 432,77 435,78 439,75 454,83 454,90 450,93 443,97 443,103 428,102 424,98 424,95 413,87" id="25613" class="commune" fill="steelblue" stroke-width="1" stroke="white" geotype="commune" geoname="Viéthorey" code_insee="25613" code_canton="2502"/><polygon points="253,138 255,135 266,133 279,128 283,127 287,131 289,134 292,133 291,144 277,149 254,150 253,138" id="25624" class="commune" fill="steelblue" stroke-width="1" stroke="white" geotype="commune" geoname="Villers-Grélot" code_insee="25624" code_canton="2502"/><polygon points="400,160 402,157 398,154 400,151 405,151 412,147 423,146 433,143 440,139 446,149 428,159 425,165 416,171 403,173 400,160" id="25626" class="commune" fill="steelblue" stroke-width="1" stroke="white" geotype="commune" geoname="Villers-Saint-Martin" code_insee="25626" code_canton="2502"/><polygon points="417,133 425,129 417,129 415,117 411,115 411,109 413,105 420,100 423,100 424,98 428,102 443,103 448,107 452,108 451,112 457,113 446,124 432,127 416,133 417,133" id="25629" class="commune" fill="steelblue" stroke-width="1" stroke="white" geotype="commune" geoname="Voillans" code_insee="25629" code_canton="2502"/></svg>