<?xml version="1.0" encoding="utf-8"?>
<svg version="1.1" id="svgmap" xmlns="http://www.w3.org/2000/svg" xmlns:xlink="http://www.w3.org/1999/xlink" x="0px" y="0px" width="100%" height="100%" viewBox="0 0 500 260">
<polygon points="437,71 471,109 456,123 438,124 412,123 394,134 362,127 348,136 328,148 323,128 339,127 322,121 336,105 325,97 336,89 326,90 378,44 419,45 437,71" id="25011" class="commune" fill="steelblue" stroke-width="1" stroke="white" geotype="commune" geoname="Allenjoie" code_insee="25011" code_canton="2510"/><polygon points="96,107 87,116 82,108 66,117 84,136 73,146 37,138 0,91 17,67 59,47 71,2 92,0 124,51 109,98 96,107" id="25057" class="commune" fill="steelblue" stroke-width="1" stroke="white" geotype="commune" geoname="Bethoncourt" code_insee="25057" code_canton="2510"/><polygon points="246,127 253,102 263,101 326,90 336,89 325,97 336,105 322,121 339,127 323,128 328,148 285,153 268,146 246,127" id="25097" class="commune" fill="steelblue" stroke-width="1" stroke="white" geotype="commune" geoname="Brognard" code_insee="25097" code_canton="2510"/><polygon points="378,44 326,90 263,101 275,52 356,26 378,44" id="25188" class="commune" fill="steelblue" stroke-width="1" stroke="white" geotype="commune" geoname="Dambenois" code_insee="25188" code_canton="2510"/><polygon points="351,251 290,260 294,225 254,211 229,200 216,171 249,162 246,155 267,159 268,146 285,153 328,148 348,136 374,169 416,181 425,185 405,229 352,239 351,251" id="25228" class="commune" fill="steelblue" stroke-width="1" stroke="white" geotype="commune" geoname="Étupes" code_insee="25228" code_canton="2510"/><polygon points="205,243 186,241 161,251 152,242 134,196 151,188 182,189 216,171 229,200 254,211 250,219 207,224 205,243" id="25230" class="commune" fill="steelblue" stroke-width="1" stroke="white" geotype="commune" geoname="Exincourt" code_insee="25230" code_canton="2510"/><polygon points="416,181 374,169 348,136 362,127 394,134 412,123 438,124 500,148 484,155 458,145 456,167 416,181" id="25237" class="commune" fill="steelblue" stroke-width="1" stroke="white" geotype="commune" geoname="Fesches-le-Châtel" code_insee="25237" code_canton="2510"/><polygon points="180,143 131,150 96,107 109,98 124,51 173,56 195,90 196,110 163,141 180,143" id="25284" class="commune" fill="steelblue" stroke-width="1" stroke="white" geotype="commune" geoname="Grand-Charmont" code_insee="25284" code_canton="2510"/><polygon points="173,56 260,51 275,52 263,101 253,102 246,127 232,127 232,116 195,90 173,56" id="25428" class="commune" fill="steelblue" stroke-width="1" stroke="white" geotype="commune" geoname="Nommay" code_insee="25428" code_canton="2510"/><polygon points="216,171 182,189 151,188 133,179 131,150 180,143 207,153 216,171" id="25547" class="commune" fill="steelblue" stroke-width="1" stroke="white" geotype="commune" geoname="Sochaux" code_insee="25547" code_canton="2510"/><polygon points="268,146 267,159 246,155 249,162 216,171 207,153 180,143 163,141 196,110 195,90 232,116 232,127 246,127 268,146" id="25614" class="commune" fill="steelblue" stroke-width="1" stroke="white" geotype="commune" geoname="Vieux-Charmont" code_insee="25614" code_canton="2510"/></svg>