<?xml version="1.0" encoding="utf-8"?>
<svg version="1.1" id="svgmap" xmlns="http://www.w3.org/2000/svg" xmlns:xlink="http://www.w3.org/1999/xlink" x="0px" y="0px" width="100%" height="100%" viewBox="0 0 500 345">
<polygon points="231,294 224,295 216,288 220,279 211,276 211,274 217,270 212,262 216,249 219,235 209,230 220,219 230,215 244,225 256,211 267,207 269,221 257,238 248,240 251,257 245,264 248,270 239,274 234,280 231,294" id="26011" class="commune" fill="steelblue" stroke-width="1" stroke="white" geotype="commune" geoname="Aouste-sur-Sye" code_insee="26011" code_canton="2602"/><polygon points="130,299 140,286 145,286 149,282 157,285 161,271 167,273 179,269 188,280 198,296 182,303 189,308 180,315 179,319 173,317 170,319 161,319 158,345 155,342 154,320 147,310 142,312 140,308 135,309 138,303 129,301 130,299" id="26020" class="commune" fill="steelblue" stroke-width="1" stroke="white" geotype="commune" geoname="Répara-Auriples" code_insee="26020" code_canton="2602"/><polygon points="159,263 158,270 161,271 157,285 149,282 145,286 140,286 130,299 135,282 125,286 127,279 119,275 124,271 120,267 136,258 159,263" id="26021" class="commune" fill="steelblue" stroke-width="1" stroke="white" geotype="commune" geoname="Autichamp" code_insee="26021" code_canton="2602"/><polygon points="248,50 253,51 245,76 249,91 233,84 222,86 216,80 220,69 209,59 214,57 212,55 230,46 234,49 239,47 248,50" id="26024" class="commune" fill="steelblue" stroke-width="1" stroke="white" geotype="commune" geoname="Barcelonne" code_insee="26024" code_canton="2602"/><polygon points="249,95 263,107 254,106 254,127 232,129 220,127 212,121 193,122 185,119 183,109 189,114 203,105 196,94 214,88 216,84 230,91 249,95" id="26032" class="commune" fill="steelblue" stroke-width="1" stroke="white" geotype="commune" geoname="Baume-Cornillane" code_insee="26032" code_canton="2602"/><polygon points="352,150 362,158 376,158 377,160 377,163 367,164 361,170 337,179 337,185 329,190 323,192 323,190 316,188 313,181 318,165 331,157 334,147 340,143 352,150" id="26035" class="commune" fill="steelblue" stroke-width="1" stroke="white" geotype="commune" geoname="Beaufort-sur-Gervanne" code_insee="26035" code_canton="2602"/><polygon points="159,263 136,258 120,267 110,265 101,258 96,250 103,236 98,230 109,208 129,216 148,219 152,239 160,242 156,254 159,263" id="26065" class="commune" fill="steelblue" stroke-width="1" stroke="white" geotype="commune" geoname="Chabrillan" code_insee="26065" code_canton="2602"/><polygon points="238,9 248,0 269,4 270,11 292,23 303,37 312,41 322,41 352,44 347,49 328,48 317,44 305,49 249,46 244,38 235,40 239,34 236,26 242,25 243,22 236,20 238,9" id="26081" class="commune" fill="steelblue" stroke-width="1" stroke="white" geotype="commune" geoname="Châteaudouble" code_insee="26081" code_canton="2602"/><polygon points="267,207 256,211 244,225 230,215 241,200 232,187 237,171 246,169 249,162 260,171 279,170 280,180 267,184 268,196 264,201 267,207" id="26098" class="commune" fill="steelblue" stroke-width="1" stroke="white" geotype="commune" geoname="Cobonne" code_insee="26098" code_canton="2602"/><polygon points="249,91 245,76 253,51 248,50 249,46 305,49 317,44 328,48 347,49 343,58 334,68 335,78 323,107 289,113 280,108 263,107 249,95 249,91" id="26100" class="commune" fill="steelblue" stroke-width="1" stroke="white" geotype="commune" geoname="Combovin" code_insee="26100" code_canton="2602"/><polygon points="230,215 220,219 209,230 219,235 216,249 200,251 194,249 194,243 187,240 185,245 171,245 159,219 148,219 174,190 181,191 184,198 192,194 210,196 215,189 223,191 232,187 241,200 230,215" id="26108" class="commune" fill="steelblue" stroke-width="1" stroke="white" geotype="commune" geoname="Crest" code_insee="26108" code_canton="2602"/><polygon points="161,271 158,270 159,263 156,254 160,242 152,239 148,219 148,219 159,219 171,245 185,245 187,240 194,243 194,249 200,251 216,249 212,262 217,270 211,274 188,280 179,269 167,273 161,271" id="26115" class="commune" fill="steelblue" stroke-width="1" stroke="white" geotype="commune" geoname="Divajeu" code_insee="26115" code_canton="2602"/><polygon points="108,208 119,185 113,183 118,174 137,166 153,165 163,159 171,163 178,172 173,177 177,179 174,190 148,219 148,219 129,216 109,208 108,208" id="26125" class="commune" fill="steelblue" stroke-width="1" stroke="white" geotype="commune" geoname="Eurre" code_insee="26125" code_canton="2602"/><polygon points="254,127 254,106 263,107 280,108 289,113 323,107 335,78 334,68 343,58 352,56 348,85 355,86 346,101 339,107 327,110 321,119 322,126 333,132 340,143 334,147 331,157 318,165 304,161 285,164 280,161 279,170 260,171 249,162 250,150 256,138 254,127" id="26141" class="commune" fill="steelblue" stroke-width="1" stroke="white" geotype="commune" geoname="Gigors-et-Lozeron" code_insee="26141" code_canton="2602"/><polygon points="35,189 108,208 109,208 98,230 103,236 96,250 101,258 89,267 75,271 63,282 47,284 45,274 34,278 32,258 24,250 30,238 15,232 11,227 15,220 1,219 4,204 0,193 3,188 24,190 34,193 35,189" id="26144" class="commune" fill="steelblue" stroke-width="1" stroke="white" geotype="commune" geoname="Grane" code_insee="26144" code_canton="2602"/><polygon points="257,238 269,221 288,221 292,215 310,229 333,236 340,229 346,231 363,228 366,230 366,240 347,251 330,252 332,257 323,260 308,258 305,251 275,247 257,238" id="26183" class="commune" fill="steelblue" stroke-width="1" stroke="white" geotype="commune" geoname="Mirabel-et-Blacons" code_insee="26183" code_canton="2602"/><polygon points="316,188 323,190 323,192 329,190 337,185 337,179 361,170 367,164 377,163 377,160 381,161 382,168 386,167 390,173 391,180 403,178 401,191 389,196 390,202 378,207 363,228 346,231 340,229 333,236 310,229 292,215 296,204 308,202 316,188" id="26195" class="commune" fill="steelblue" stroke-width="1" stroke="white" geotype="commune" geoname="Montclar-sur-Gervanne" code_insee="26195" code_canton="2602"/><polygon points="185,119 185,126 146,118 117,121 119,127 117,129 108,122 106,119 115,117 106,104 99,105 102,99 112,95 117,96 126,89 132,83 142,81 144,73 190,83 196,86 196,94 203,105 189,114 183,109 185,119" id="26206" class="commune" fill="steelblue" stroke-width="1" stroke="white" geotype="commune" geoname="Montmeyran" code_insee="26206" code_canton="2602"/><polygon points="137,52 145,46 163,49 176,47 185,53 198,49 212,55 214,57 209,59 220,69 216,80 222,86 233,84 249,91 249,95 230,91 216,84 214,88 196,94 196,86 190,83 144,73 147,63 143,62 147,54 141,56 137,52" id="26212" class="commune" fill="steelblue" stroke-width="1" stroke="white" geotype="commune" geoname="Montvendre" code_insee="26212" code_canton="2602"/><polygon points="431,30 441,35 449,33 453,25 456,28 467,26 500,36 486,54 476,73 461,82 457,78 453,81 442,91 439,99 434,104 423,104 418,107 409,115 402,129 381,131 368,137 369,133 392,117 381,100 384,96 380,82 385,83 387,79 383,76 384,56 395,56 400,67 402,66 407,48 407,32 431,30" id="26221" class="commune" fill="steelblue" stroke-width="1" stroke="white" geotype="commune" geoname="Omblèze" code_insee="26221" code_canton="2602"/><polygon points="185,126 185,119 193,122 212,121 220,127 232,129 254,127 256,138 250,150 228,150 186,131 185,126" id="26224" class="commune" fill="steelblue" stroke-width="1" stroke="white" geotype="commune" geoname="Ourches" code_insee="26224" code_canton="2602"/><polygon points="269,4 281,4 284,7 292,2 304,4 318,14 338,19 335,24 342,34 335,39 322,39 322,41 312,41 303,37 292,23 270,11 269,4" id="26232" class="commune" fill="steelblue" stroke-width="1" stroke="white" geotype="commune" geoname="Peyrus" code_insee="26232" code_canton="2602"/><polygon points="323,299 305,298 283,290 260,287 249,293 231,294 234,280 239,274 248,270 245,264 251,257 248,240 257,238 275,247 305,251 308,258 323,260 320,275 324,279 323,299" id="26234" class="commune" fill="steelblue" stroke-width="1" stroke="white" geotype="commune" geoname="Piégros-la-Clastre" code_insee="26234" code_canton="2602"/><polygon points="352,150 340,143 333,132 322,126 321,119 327,110 339,107 346,101 355,86 359,86 355,83 363,77 373,75 380,82 384,96 381,100 392,117 369,133 368,137 352,147 352,150" id="26240" class="commune" fill="steelblue" stroke-width="1" stroke="white" geotype="commune" geoname="Plan-de-Baix" code_insee="26240" code_canton="2602"/><polygon points="130,299 129,301 108,302 105,307 90,290 63,282 75,271 89,267 101,258 110,265 120,267 124,271 119,275 127,279 125,286 135,282 130,299" id="26277" class="commune" fill="steelblue" stroke-width="1" stroke="white" geotype="commune" geoname="Roche-sur-Grane" code_insee="26277" code_canton="2602"/><polygon points="269,221 267,207 264,201 268,196 267,184 280,180 279,170 280,161 285,164 304,161 318,165 313,181 316,188 308,202 296,204 292,215 288,221 269,221" id="26346" class="commune" fill="steelblue" stroke-width="1" stroke="white" geotype="commune" geoname="Suze" code_insee="26346" code_canton="2602"/><polygon points="118,174 110,167 127,151 117,135 119,127 117,121 146,118 185,126 186,131 184,153 179,154 171,163 163,159 153,165 137,166 118,174" id="26358" class="commune" fill="steelblue" stroke-width="1" stroke="white" geotype="commune" geoname="Upie" code_insee="26358" code_canton="2602"/><polygon points="249,162 246,169 237,171 232,187 223,191 215,189 210,196 192,194 184,198 181,191 174,190 177,179 173,177 178,172 171,163 179,154 184,153 186,131 228,150 250,150 249,162" id="26365" class="commune" fill="steelblue" stroke-width="1" stroke="white" geotype="commune" geoname="Vaunaveys-la-Rochette" code_insee="26365" code_canton="2602"/></svg>