<?xml version="1.0" encoding="utf-8"?>
<svg version="1.1" id="svgmap" xmlns="http://www.w3.org/2000/svg" xmlns:xlink="http://www.w3.org/1999/xlink" x="0px" y="0px" width="100%" height="100%" viewBox="0 0 500 274">
<polygon points="178,95 184,92 186,88 189,90 198,86 207,84 214,77 224,79 232,83 227,86 220,96 216,99 204,99 201,103 196,104 194,107 182,102 178,95" id="26013" class="commune" fill="steelblue" stroke-width="1" stroke="white" geotype="commune" geoname="Arpavon" code_insee="26013" code_canton="2610"/><polygon points="107,52 110,52 118,68 128,74 128,69 131,69 143,82 137,84 143,90 148,101 126,101 121,88 112,85 107,86 101,83 95,79 97,74 93,70 104,62 101,57 107,52" id="26016" class="commune" fill="steelblue" stroke-width="1" stroke="white" geotype="commune" geoname="Aubres" code_insee="26016" code_canton="2610"/><polygon points="310,181 314,185 323,183 322,188 327,191 325,199 330,203 325,206 321,206 303,199 295,195 288,190 289,187 310,181" id="26018" class="commune" fill="steelblue" stroke-width="1" stroke="white" geotype="commune" geoname="Aulan" code_insee="26018" code_canton="2610"/><polygon points="471,166 479,162 491,160 500,167 490,175 490,181 484,181 484,182 479,182 477,184 465,185 456,197 447,200 445,200 444,189 450,187 444,184 451,179 450,176 453,170 461,170 471,166" id="26022" class="commune" fill="steelblue" stroke-width="1" stroke="white" geotype="commune" geoname="Ballons" code_insee="26022" code_canton="2610"/><polygon points="412,235 426,245 423,248 416,251 403,250 381,253 362,242 355,236 356,233 349,231 345,222 341,222 337,217 336,209 345,211 351,210 352,211 353,214 356,214 379,210 404,237 408,238 412,235" id="26026" class="commune" fill="steelblue" stroke-width="1" stroke="white" geotype="commune" geoname="Barret-de-Lioure" code_insee="26026" code_canton="2610"/><polygon points="154,150 154,145 144,144 142,140 148,137 152,129 159,126 158,131 164,136 178,140 183,144 181,149 165,153 154,150" id="26043" class="commune" fill="steelblue" stroke-width="1" stroke="white" geotype="commune" geoname="Beauvoisin" code_insee="26043" code_canton="2610"/><polygon points="273,91 275,91 280,96 286,107 291,108 291,110 271,108 261,114 255,113 253,115 247,114 246,116 239,116 248,102 249,94 256,91 257,89 271,89 272,88 273,91" id="26046" class="commune" fill="steelblue" stroke-width="1" stroke="white" geotype="commune" geoname="Bellecombe-Tarendol" code_insee="26046" code_canton="2610"/><polygon points="161,122 159,126 152,129 148,137 142,140 144,144 154,145 154,150 149,154 139,151 131,144 133,137 130,133 143,124 147,118 152,116 154,121 157,122 161,122" id="26048" class="commune" fill="steelblue" stroke-width="1" stroke="white" geotype="commune" geoname="Bénivay-Ollon" code_insee="26048" code_canton="2610"/><polygon points="225,121 234,119 248,121 254,124 256,128 263,129 265,131 246,136 226,136 221,136 221,127 225,121" id="26050" class="commune" fill="steelblue" stroke-width="1" stroke="white" geotype="commune" geoname="Bésignan" code_insee="26050" code_canton="2610"/><polygon points="232,174 218,174 211,178 203,180 192,193 187,192 181,167 178,165 182,159 179,152 181,149 183,144 186,144 188,139 194,139 193,137 199,138 208,134 211,137 221,136 226,136 227,142 231,145 229,149 241,151 241,153 226,152 221,155 215,156 216,166 226,167 232,174" id="26063" class="commune" fill="steelblue" stroke-width="1" stroke="white" geotype="commune" geoname="Buis-les-Baronnies" code_insee="26063" code_canton="2610"/><polygon points="337,8 339,10 344,19 339,21 337,24 341,34 324,34 306,29 310,24 317,20 318,15 321,13 332,16 337,8" id="26075" class="commune" fill="steelblue" stroke-width="1" stroke="white" geotype="commune" geoname="Charce" code_insee="26075" code_canton="2610"/><polygon points="126,101 148,101 152,104 152,116 147,118 143,124 130,133 128,132 125,130 122,131 117,126 103,129 102,125 110,117 115,119 123,115 127,109 126,101" id="26082" class="commune" fill="steelblue" stroke-width="1" stroke="white" geotype="commune" geoname="Châteauneuf-de-Bordette" code_insee="26082" code_canton="2610"/><polygon points="160,3 162,0 168,1 180,9 182,15 193,9 206,9 205,12 209,16 208,28 197,31 195,35 187,35 181,33 177,23 170,23 167,21 156,24 146,18 149,11 160,3" id="26089" class="commune" fill="steelblue" stroke-width="1" stroke="white" geotype="commune" geoname="Chaudebonne" code_insee="26089" code_canton="2610"/><polygon points="361,116 368,111 382,106 387,112 395,112 393,119 396,121 404,121 410,117 415,120 417,119 428,120 426,120 427,122 420,125 416,132 416,138 413,140 414,141 405,142 399,146 365,134 362,131 366,128 365,118 361,116" id="26091" class="commune" fill="steelblue" stroke-width="1" stroke="white" geotype="commune" geoname="Chauvac-Laux-Montaux" code_insee="26091" code_canton="2610"/><polygon points="143,82 131,69 128,69 128,74 118,68 110,52 115,49 114,45 120,41 132,44 136,43 142,44 152,53 151,55 154,60 163,60 167,67 166,70 154,70 150,78 153,82 151,84 145,84 143,82" id="26103" class="commune" fill="steelblue" stroke-width="1" stroke="white" geotype="commune" geoname="Condorcet" code_insee="26103" code_canton="2610"/><polygon points="323,47 308,54 293,59 289,59 288,57 284,55 269,48 270,42 279,39 284,33 292,27 295,30 297,28 306,29 324,34 323,47" id="26104" class="commune" fill="steelblue" stroke-width="1" stroke="white" geotype="commune" geoname="Cornillac" code_insee="26104" code_canton="2610"/><polygon points="249,21 253,16 257,15 265,22 272,26 276,18 281,19 288,21 292,27 292,27 284,33 279,39 270,42 269,48 257,47 256,42 250,42 248,38 246,34 252,30 253,26 249,21" id="26105" class="commune" fill="steelblue" stroke-width="1" stroke="white" geotype="commune" geoname="Cornillon-sur-l'Oule" code_insee="26105" code_canton="2610"/><polygon points="165,80 160,78 159,75 160,73 166,72 174,73 178,71 188,71 190,73 189,77 192,81 183,85 186,88 184,92 178,95 176,95 173,89 167,86 168,82 165,80" id="26112" class="commune" fill="steelblue" stroke-width="1" stroke="white" geotype="commune" geoname="Curnier" code_insee="26112" code_canton="2610"/><polygon points="444,221 439,220 437,218 425,214 423,209 413,208 412,205 415,202 419,201 417,198 423,199 428,191 420,186 414,186 410,179 436,182 441,178 445,178 450,176 451,179 444,184 450,187 444,189 445,200 447,200 446,207 452,216 453,218 444,221" id="26126" class="commune" fill="steelblue" stroke-width="1" stroke="white" geotype="commune" geoname="Eygalayes" code_insee="26126" code_canton="2610"/><polygon points="237,176 214,191 210,200 192,193 203,180 211,178 218,174 232,174 237,176" id="26127" class="commune" fill="steelblue" stroke-width="1" stroke="white" geotype="commune" geoname="Eygaliers" code_insee="26127" code_canton="2610"/><polygon points="166,70 167,67 163,60 167,59 175,55 181,49 191,52 193,51 192,48 206,50 207,53 194,60 189,60 184,67 182,68 180,66 178,71 174,73 166,72 166,70" id="26130" class="commune" fill="steelblue" stroke-width="1" stroke="white" geotype="commune" geoname="Eyroles" code_insee="26130" code_canton="2610"/><polygon points="329,259 338,242 355,236 362,242 381,253 403,250 397,262 375,268 372,273 366,274 334,272 330,268 329,259" id="26135" class="commune" fill="steelblue" stroke-width="1" stroke="white" geotype="commune" geoname="Ferrassières" code_insee="26135" code_canton="2610"/><polygon points="404,174 407,172 417,172 419,170 417,168 425,162 436,164 452,164 456,159 455,154 461,150 462,156 472,163 471,166 461,170 453,170 450,176 445,178 441,178 436,182 410,179 407,177 407,174 404,174" id="26150" class="commune" fill="steelblue" stroke-width="1" stroke="white" geotype="commune" geoname="Izon-la-Bruisse" code_insee="26150" code_canton="2610"/><polygon points="444,138 450,136 457,142 462,142 468,147 461,150 455,154 456,159 452,164 436,164 425,162 417,168 407,160 399,146 405,142 414,141 435,136 441,142 444,138" id="26153" class="commune" fill="steelblue" stroke-width="1" stroke="white" geotype="commune" geoname="Laborel" code_insee="26153" code_canton="2610"/><polygon points="496,192 492,206 500,217 499,219 492,221 491,222 475,222 466,215 452,216 446,207 447,200 456,197 465,185 477,184 479,182 484,182 484,181 490,181 492,182 490,185 492,187 498,189 496,192" id="26154" class="commune" fill="steelblue" stroke-width="1" stroke="white" geotype="commune" geoname="Lachau" code_insee="26154" code_canton="2610"/><polygon points="320,93 326,94 326,101 319,105 323,109 323,115 315,125 309,125 299,113 291,110 291,108 286,107 280,96 275,91 295,91 300,95 307,94 309,96 317,96 320,93" id="26161" class="commune" fill="steelblue" stroke-width="1" stroke="white" geotype="commune" geoname="Lemps" code_insee="26161" code_canton="2610"/><polygon points="140,173 131,176 125,181 124,166 115,164 115,157 125,152 125,151 129,150 131,144 139,151 140,154 138,157 142,167 140,173" id="26180" class="commune" fill="steelblue" stroke-width="1" stroke="white" geotype="commune" geoname="Mérindol-les-Oliviers" code_insee="26180" code_canton="2610"/><polygon points="330,203 325,199 327,191 322,188 323,183 325,179 329,179 327,173 332,170 345,175 364,177 388,176 384,190 381,190 372,197 368,198 367,202 357,205 352,211 351,210 345,211 336,209 330,203" id="26181" class="commune" fill="steelblue" stroke-width="1" stroke="white" geotype="commune" geoname="Mévouillon" code_insee="26181" code_canton="2610"/><polygon points="110,117 102,125 103,129 117,126 122,131 94,134 92,142 88,144 84,143 84,146 81,148 76,147 74,149 75,152 71,154 64,154 60,150 58,142 52,137 65,125 80,119 92,111 95,114 105,115 110,117" id="26182" class="commune" fill="steelblue" stroke-width="1" stroke="white" geotype="commune" geoname="Mirabel-aux-Baronnies" code_insee="26182" code_canton="2610"/><polygon points="125,181 131,176 140,173 148,170 154,172 154,181 157,185 162,190 172,192 181,192 179,205 174,206 171,203 168,205 163,203 158,205 145,200 135,200 129,196 120,192 120,189 118,191 116,189 118,187 125,181" id="26188" class="commune" fill="steelblue" stroke-width="1" stroke="white" geotype="commune" geoname="Mollans-sur-Ouvèze" code_insee="26188" code_canton="2610"/><polygon points="365,135 365,134 399,146 407,160 417,168 419,170 417,172 407,172 404,174 388,176 364,177 355,173 351,159 343,156 355,151 358,147 359,142 369,141 369,140 363,137 365,135" id="26189" class="commune" fill="steelblue" stroke-width="1" stroke="white" geotype="commune" geoname="Montauban-sur-l'Ouvèze" code_insee="26189" code_canton="2610"/><polygon points="161,122 157,122 154,121 152,116 152,104 156,103 157,100 153,84 159,84 165,80 168,82 167,86 173,89 176,95 178,95 182,102 182,106 165,115 161,122" id="26190" class="commune" fill="steelblue" stroke-width="1" stroke="white" geotype="commune" geoname="Montaulieu" code_insee="26190" code_canton="2610"/><polygon points="284,213 278,211 289,202 295,195 303,199 321,206 325,206 330,203 336,209 337,217 341,222 345,222 349,231 356,233 355,236 338,242 329,259 321,257 321,248 314,230 308,230 308,226 300,226 295,217 284,213" id="26193" class="commune" fill="steelblue" stroke-width="1" stroke="white" geotype="commune" geoname="Montbrun-les-Bains" code_insee="26193" code_canton="2610"/><polygon points="326,94 340,95 344,106 341,107 337,112 337,116 341,122 340,128 323,130 319,128 315,125 323,115 323,109 319,105 326,101 326,94" id="26199" class="commune" fill="steelblue" stroke-width="1" stroke="white" geotype="commune" geoname="Montferrand-la-Fare" code_insee="26199" code_canton="2610"/><polygon points="452,216 466,215 475,222 469,236 471,238 483,238 497,240 494,253 486,251 471,251 460,249 460,244 466,237 461,236 461,233 449,230 444,221 453,218 452,216" id="26200" class="commune" fill="steelblue" stroke-width="1" stroke="white" geotype="commune" geoname="Montfroc" code_insee="26200" code_canton="2610"/><polygon points="339,130 348,130 365,135 363,137 369,140 369,141 359,142 358,147 355,151 343,156 334,154 336,149 329,132 339,130" id="26201" class="commune" fill="steelblue" stroke-width="1" stroke="white" geotype="commune" geoname="Montguers" code_insee="26201" code_canton="2610"/><polygon points="232,83 224,79 214,77 210,76 216,71 217,61 227,54 235,59 242,70 239,72 244,84 243,86 240,87 232,83" id="26209" class="commune" fill="steelblue" stroke-width="1" stroke="white" geotype="commune" geoname="Montréal-les-Sources" code_insee="26209" code_canton="2610"/><polygon points="101,83 107,86 112,85 121,88 126,101 127,109 123,115 115,119 110,117 105,115 95,114 92,111 80,119 76,116 69,104 72,101 76,100 86,92 92,93 101,83" id="26220" class="commune" fill="steelblue" stroke-width="1" stroke="white" geotype="commune" geoname="Nyons" code_insee="26220" code_canton="2610"/><polygon points="273,91 272,88 277,79 286,79 293,85 273,91" id="26227" class="commune" fill="steelblue" stroke-width="1" stroke="white" geotype="commune" geoname="Pelonne" code_insee="26227" code_canton="2610"/><polygon points="178,165 181,167 187,192 181,192 172,192 165,166 170,160 178,165" id="26229" class="commune" fill="steelblue" stroke-width="1" stroke="white" geotype="commune" geoname="Penne-sur-l'Ouvèze" code_insee="26229" code_canton="2610"/><polygon points="122,131 125,130 128,132 117,136 120,141 116,141 94,152 87,156 86,159 80,156 71,154 75,152 74,149 76,147 81,148 84,146 84,143 88,144 92,142 94,134 122,131" id="26233" class="commune" fill="steelblue" stroke-width="1" stroke="white" geotype="commune" geoname="Piégon" code_insee="26233" code_canton="2610"/><polygon points="172,192 162,190 157,185 154,181 154,172 159,169 160,165 165,166 172,192" id="26236" class="commune" fill="steelblue" stroke-width="1" stroke="white" geotype="commune" geoname="Pierrelongue" code_insee="26236" code_canton="2610"/><polygon points="166,72 160,73 159,75 160,78 165,80 159,84 153,84 157,100 156,103 152,104 148,101 143,90 137,84 143,82 145,84 151,84 153,82 150,78 154,70 166,70 166,72" id="26238" class="commune" fill="steelblue" stroke-width="1" stroke="white" geotype="commune" geoname="Pilles" code_insee="26238" code_canton="2610"/><polygon points="210,200 214,191 237,176 252,185 257,192 260,193 271,188 282,185 287,185 289,187 288,190 295,195 289,202 278,211 263,204 250,212 237,207 233,208 226,207 226,210 210,200" id="26239" class="commune" fill="steelblue" stroke-width="1" stroke="white" geotype="commune" geoname="Plaisians" code_insee="26239" code_canton="2610"/><polygon points="310,181 289,187 287,185 282,185 271,188 280,176 290,169 306,178 314,177 310,181" id="26242" class="commune" fill="steelblue" stroke-width="1" stroke="white" geotype="commune" geoname="Poët-en-Percip" code_insee="26242" code_canton="2610"/><polygon points="242,70 245,70 246,71 245,76 257,89 256,91 249,94 248,102 239,116 234,119 225,121 228,118 224,116 225,114 220,96 227,86 232,83 240,87 243,86 244,84 239,72 242,70" id="26244" class="commune" fill="steelblue" stroke-width="1" stroke="white" geotype="commune" geoname="Poët-Sigillat" code_insee="26244" code_canton="2610"/><polygon points="362,51 357,50 350,57 340,52 323,47 324,34 341,34 342,37 363,44 365,45 362,51" id="26245" class="commune" fill="steelblue" stroke-width="1" stroke="white" geotype="commune" geoname="Pommerol" code_insee="26245" code_canton="2610"/><polygon points="154,172 148,170 140,173 142,167 138,157 140,154 139,151 149,154 154,150 165,153 181,149 179,152 182,159 178,165 170,160 165,166 160,165 159,169 154,172" id="26256" class="commune" fill="steelblue" stroke-width="1" stroke="white" geotype="commune" geoname="Propiac" code_insee="26256" code_canton="2610"/><polygon points="283,215 284,213 295,217 300,226 308,226 308,230 314,230 321,248 315,251 307,246 293,248 283,246 285,227 282,220 283,215" id="26263" class="commune" fill="steelblue" stroke-width="1" stroke="white" geotype="commune" geoname="Reilhanette" code_insee="26263" code_canton="2610"/><polygon points="272,88 271,89 257,89 245,76 246,71 245,70 254,61 259,60 257,47 269,48 284,55 277,60 280,68 271,66 267,69 274,73 277,79 272,88" id="26264" class="commune" fill="steelblue" stroke-width="1" stroke="white" geotype="commune" geoname="Rémuzat" code_insee="26264" code_canton="2610"/><polygon points="364,177 345,175 332,170 317,164 325,152 334,154 343,156 351,159 355,173 364,177" id="26267" class="commune" fill="steelblue" stroke-width="1" stroke="white" geotype="commune" geoname="Rioms" code_insee="26267" code_canton="2610"/><polygon points="159,126 161,122 165,115 182,106 182,102 194,107 200,113 194,114 191,118 193,122 189,132 193,137 194,139 188,139 186,144 183,144 178,140 164,136 158,131 159,126" id="26269" class="commune" fill="steelblue" stroke-width="1" stroke="white" geotype="commune" geoname="Rochebrune" code_insee="26269" code_canton="2610"/><polygon points="237,176 232,174 226,167 216,166 215,156 221,155 226,152 241,153 254,157 273,159 288,167 290,169 280,176 271,188 260,193 257,192 252,185 237,176" id="26278" class="commune" fill="steelblue" stroke-width="1" stroke="white" geotype="commune" geoname="Roche-sur-le-Buis" code_insee="26278" code_canton="2610"/><polygon points="323,183 314,185 310,181 314,177 306,178 290,169 288,167 297,160 297,158 302,158 317,164 332,170 327,173 329,179 325,179 323,183" id="26279" class="commune" fill="steelblue" stroke-width="1" stroke="white" geotype="commune" geoname="Rochette-du-Buis" code_insee="26279" code_canton="2610"/><polygon points="365,134 365,135 348,130 339,130 340,128 341,122 337,116 337,112 341,107 344,106 352,106 361,116 365,118 366,128 362,131 365,134" id="26286" class="commune" fill="steelblue" stroke-width="1" stroke="white" geotype="commune" geoname="Roussieux" code_insee="26286" code_canton="2610"/><polygon points="186,88 183,85 192,81 189,77 190,73 188,71 178,71 180,66 182,68 184,67 189,60 194,60 207,53 206,50 211,49 211,48 215,49 219,47 219,45 223,49 230,48 232,50 227,54 217,61 216,71 210,76 214,77 207,84 198,86 189,90 186,88" id="26288" class="commune" fill="steelblue" stroke-width="1" stroke="white" geotype="commune" geoname="Sahune" code_insee="26288" code_canton="2610"/><polygon points="319,128 323,130 340,128 339,130 329,132 336,149 334,154 325,152 317,164 302,158 302,154 299,152 301,148 295,145 294,146 296,138 306,136 309,132 317,131 319,128" id="26292" class="commune" fill="steelblue" stroke-width="1" stroke="white" geotype="commune" geoname="Saint-Auban-sur-l'Ouvèze" code_insee="26292" code_canton="2610"/><polygon points="302,158 297,158 297,160 292,159 285,155 283,150 275,147 270,141 272,138 277,136 270,133 284,131 293,131 301,128 308,129 309,132 306,136 296,138 294,146 295,145 301,148 299,152 302,154 302,158" id="26303" class="commune" fill="steelblue" stroke-width="1" stroke="white" geotype="commune" geoname="Sainte-Euphémie-sur-Ouvèze" code_insee="26303" code_canton="2610"/><polygon points="142,44 144,35 149,42 153,38 157,37 156,24 167,21 170,23 177,23 181,33 187,35 195,35 199,40 192,48 193,51 191,52 181,49 175,55 167,59 163,60 154,60 151,55 152,53 142,44" id="26304" class="commune" fill="steelblue" stroke-width="1" stroke="white" geotype="commune" geoname="Saint-Ferréol-Trente-Pas" code_insee="26304" code_canton="2610"/><polygon points="225,121 221,127 221,136 211,137 208,134 199,138 193,137 189,132 193,122 191,118 194,114 200,113 194,107 196,104 201,103 204,99 216,99 220,96 225,114 224,116 228,118 225,121" id="26306" class="commune" fill="steelblue" stroke-width="1" stroke="white" geotype="commune" geoname="Sainte-Jalle" code_insee="26306" code_canton="2610"/><polygon points="2,153 0,148 3,134 6,131 9,130 9,130 10,130 7,128 19,124 16,131 17,132 24,131 30,144 21,148 12,152 2,153" id="26317" class="commune" fill="steelblue" stroke-width="1" stroke="white" geotype="commune" geoname="Saint-Maurice-sur-Eygues" code_insee="26317" code_canton="2610"/><polygon points="245,70 242,70 235,59 227,54 232,50 230,48 235,47 237,42 243,41 248,38 250,42 256,42 257,47 259,60 254,61 245,70" id="26318" class="commune" fill="steelblue" stroke-width="1" stroke="white" geotype="commune" geoname="Saint-May" code_insee="26318" code_canton="2610"/><polygon points="270,133 268,130 265,131 263,129 256,128 254,124 248,121 234,119 239,116 246,116 247,114 253,115 255,113 261,114 271,108 291,110 299,113 309,125 315,125 319,128 317,131 309,132 308,129 301,128 293,131 284,131 270,133" id="26329" class="commune" fill="steelblue" stroke-width="1" stroke="white" geotype="commune" geoname="Saint-Sauveur-Gouvernet" code_insee="26329" code_canton="2610"/><polygon points="439,220 435,223 421,223 412,235 408,238 404,237 379,210 383,200 390,200 402,198 407,201 415,202 412,205 413,208 423,209 425,214 437,218 439,220" id="26340" class="commune" fill="steelblue" stroke-width="1" stroke="white" geotype="commune" geoname="Séderon" code_insee="26340" code_canton="2610"/><polygon points="146,18 156,24 157,37 153,38 149,42 144,35 133,33 132,29 135,24 140,19 146,18" id="26363" class="commune" fill="steelblue" stroke-width="1" stroke="white" geotype="commune" geoname="Valouse" code_insee="26363" code_canton="2610"/><polygon points="60,83 54,69 62,70 60,60 64,56 71,53 78,58 84,54 85,43 99,44 107,52 101,57 104,62 93,70 97,74 95,79 101,83 92,93 86,92 76,100 72,101 69,104 61,99 59,88 60,83" id="26367" class="commune" fill="steelblue" stroke-width="1" stroke="white" geotype="commune" geoname="Venterol" code_insee="26367" code_canton="2610"/><polygon points="275,91 273,91 293,85 286,79 277,79 274,73 267,69 271,66 280,68 277,60 284,55 288,57 289,59 293,59 308,54 311,60 317,61 319,63 326,78 324,82 326,86 316,88 320,93 317,96 309,96 307,94 300,95 295,91 275,91" id="26369" class="commune" fill="steelblue" stroke-width="1" stroke="white" geotype="commune" geoname="Verclause" code_insee="26369" code_canton="2610"/><polygon points="265,131 268,130 270,133 277,136 272,138 270,141 275,147 283,150 285,155 292,159 297,160 288,167 273,159 254,157 241,153 241,151 229,149 231,145 227,142 226,136 246,136 265,131" id="26370" class="commune" fill="steelblue" stroke-width="1" stroke="white" geotype="commune" geoname="Vercoiran" code_insee="26370" code_canton="2610"/><polygon points="404,174 407,174 407,177 410,179 414,186 420,186 428,191 423,199 417,198 419,201 415,202 407,201 402,198 390,200 384,190 388,176 404,174" id="26372" class="commune" fill="steelblue" stroke-width="1" stroke="white" geotype="commune" geoname="Vers-sur-Méouge" code_insee="26372" code_canton="2610"/><polygon points="455,117 460,119 461,122 458,123 449,131 446,131 444,138 441,142 435,136 414,141 413,140 416,138 416,132 420,125 427,122 426,120 428,120 429,120 434,120 440,118 451,120 455,117" id="26374" class="commune" fill="steelblue" stroke-width="1" stroke="white" geotype="commune" geoname="Villebois-les-Pins" code_insee="26374" code_canton="2610"/><polygon points="379,210 356,214 353,214 352,211 357,205 367,202 368,198 372,197 381,190 384,190 390,200 383,200 379,210" id="26375" class="commune" fill="steelblue" stroke-width="1" stroke="white" geotype="commune" geoname="Villefranche-le-Château" code_insee="26375" code_canton="2610"/><polygon points="209,16 226,10 239,18 248,19 249,21 253,26 252,30 246,34 248,38 243,41 237,42 235,47 230,48 223,49 219,45 219,47 215,49 211,48 211,49 206,50 192,48 199,40 195,35 197,31 208,28 209,16" id="26376" class="commune" fill="steelblue" stroke-width="1" stroke="white" geotype="commune" geoname="Villeperdrix" code_insee="26376" code_canton="2610"/><polygon points="80,119 65,125 52,137 42,142 30,144 24,131 17,132 16,131 19,124 16,123 16,118 26,110 25,102 28,98 32,99 35,97 40,98 49,96 51,92 59,88 61,99 69,104 76,116 80,119" id="26377" class="commune" fill="steelblue" stroke-width="1" stroke="white" geotype="commune" geoname="Vinsobres" code_insee="26377" code_canton="2610"/></svg>