<?xml version="1.0" encoding="utf-8"?>
<svg version="1.1" id="svgmap" xmlns="http://www.w3.org/2000/svg" xmlns:xlink="http://www.w3.org/1999/xlink" x="0px" y="0px" width="100%" height="100%" viewBox="0 0 500 377">
<polygon points="173,247 203,244 265,218 295,221 302,220 300,226 308,230 304,248 267,263 272,273 296,280 284,293 251,302 224,296 212,314 209,288 172,248 173,247" id="26038" class="commune" fill="steelblue" stroke-width="1" stroke="white" geotype="commune" geoname="Beaumont-Monteux" code_insee="26038" code_canton="2613"/><polygon points="295,221 265,218 203,244 173,247 222,196 221,174 227,171 250,185 270,185 285,187 295,221" id="26071" class="commune" fill="steelblue" stroke-width="1" stroke="white" geotype="commune" geoname="Chanos-Curson" code_insee="26071" code_canton="2613"/><polygon points="214,29 214,30 228,89 230,103 207,104 197,119 170,112 157,131 146,128 138,108 131,67 131,45 191,19 214,29" id="26072" class="commune" fill="steelblue" stroke-width="1" stroke="white" geotype="commune" geoname="Chantemerle-les-Blés" code_insee="26072" code_canton="2613"/><polygon points="443,310 442,306 372,335 347,355 335,346 314,345 298,355 295,365 264,360 255,366 223,347 179,377 118,362 138,340 146,334 163,332 175,317 212,314 224,296 251,302 284,293 296,280 272,273 267,263 304,248 333,243 366,250 392,262 426,259 476,274 498,269 500,274 443,310" id="26084" class="commune" fill="steelblue" stroke-width="1" stroke="white" geotype="commune" geoname="Châteauneuf-sur-Isère" code_insee="26084" code_canton="2613"/><polygon points="91,75 96,67 119,67 103,82 88,111 97,135 93,139 105,142 101,154 109,162 107,166 49,166 55,155 67,131 60,108 74,114 80,86 91,75" id="26110" class="commune" fill="steelblue" stroke-width="1" stroke="white" geotype="commune" geoname="Crozes-Hermitage" code_insee="26110" code_canton="2613"/><polygon points="131,67 119,67 96,67 91,75 72,74 38,97 34,94 23,97 0,75 0,61 42,64 61,55 61,50 73,51 80,40 106,41 108,35 115,38 131,45 131,67" id="26119" class="commune" fill="steelblue" stroke-width="1" stroke="white" geotype="commune" geoname="Érôme" code_insee="26119" code_canton="2613"/><polygon points="119,67 131,67 138,108 146,128 157,131 158,150 128,174 109,162 101,154 105,142 93,139 97,135 88,111 103,82 119,67" id="26156" class="commune" fill="steelblue" stroke-width="1" stroke="white" geotype="commune" geoname="Larnage" code_insee="26156" code_canton="2613"/><polygon points="118,214 129,210 137,193 126,184 128,174 158,150 157,131 170,112 197,119 207,104 229,129 235,138 228,152 241,157 227,171 221,174 222,196 173,247 172,248 114,240 104,233 118,214" id="26179" class="commune" fill="steelblue" stroke-width="1" stroke="white" geotype="commune" geoname="Mercurol" code_insee="26179" code_canton="2613"/><polygon points="172,248 209,288 212,314 175,317 163,332 146,334 138,340 119,318 113,288 156,268 172,248" id="26250" class="commune" fill="steelblue" stroke-width="1" stroke="white" geotype="commune" geoname="Pont-de-l'Isère" code_insee="26250" code_canton="2613"/><polygon points="103,375 102,373 99,340 81,326 67,310 84,294 83,281 71,267 78,250 104,233 114,240 172,248 156,268 113,288 119,318 138,340 118,362 103,375" id="26271" class="commune" fill="steelblue" stroke-width="1" stroke="white" geotype="commune" geoname="Roche-de-Glun" code_insee="26271" code_canton="2613"/><polygon points="4,57 55,10 56,4 64,0 74,4 107,22 108,35 106,41 80,40 73,51 61,50 61,55 42,64 0,61 4,57" id="26341" class="commune" fill="steelblue" stroke-width="1" stroke="white" geotype="commune" geoname="Serves-sur-Rhône" code_insee="26341" code_canton="2613"/><polygon points="128,174 126,184 137,193 129,210 118,214 108,197 65,187 52,178 49,166 107,166 109,162 128,174" id="26347" class="commune" fill="steelblue" stroke-width="1" stroke="white" geotype="commune" geoname="Tain-l'Hermitage" code_insee="26347" code_canton="2613"/><polygon points="270,185 250,185 227,171 241,157 228,152 235,138 229,129 239,133 252,127 262,139 276,139 278,161 270,185" id="26366" class="commune" fill="steelblue" stroke-width="1" stroke="white" geotype="commune" geoname="Veaunes" code_insee="26366" code_canton="2613"/><polygon points="364,205 398,204 389,227 398,227 392,262 366,250 333,243 304,248 308,230 300,226 302,220 364,205" id="26379" class="commune" fill="steelblue" stroke-width="1" stroke="white" geotype="commune" geoname="Granges-les-Beaumont" code_insee="26379" code_canton="2613"/><polygon points="53,126 44,114 23,97 34,94 38,97 72,74 91,75 80,86 74,114 60,108 67,131 55,155 53,126" id="26380" class="commune" fill="steelblue" stroke-width="1" stroke="white" geotype="commune" geoname="Gervans" code_insee="26380" code_canton="2613"/></svg>