<?xml version="1.0" encoding="utf-8"?>
<svg version="1.1" id="svgmap" xmlns="http://www.w3.org/2000/svg" xmlns:xlink="http://www.w3.org/1999/xlink" x="0px" y="0px" width="100%" height="100%" viewBox="0 0 500 234">
<polygon points="305,158 315,158 315,155 308,154 309,150 300,146 304,144 300,141 314,131 316,132 322,130 333,131 330,135 334,146 332,146 339,151 333,149 329,152 331,159 326,162 327,167 323,164 318,165 316,161 312,165 308,164 306,160 304,161 305,158" id="27002" class="commune" fill="steelblue" stroke-width="1" stroke="white" geotype="commune" geoname="Acon" code_insee="27002" code_canton="2722"/><polygon points="43,234 34,232 30,227 42,227 50,224 62,222 80,211 81,208 89,207 94,205 86,212 84,223 74,231 67,231 56,227 46,234 43,234" id="27019" class="commune" fill="steelblue" stroke-width="1" stroke="white" geotype="commune" geoname="Armentières-sur-Avre" code_insee="27019" code_canton="2722"/><polygon points="243,59 247,57 249,59 256,58 257,58 254,55 257,52 264,51 267,52 271,51 285,57 282,60 287,64 273,70 272,75 271,80 267,83 257,80 249,70 243,59" id="27024" class="commune" fill="steelblue" stroke-width="1" stroke="white" geotype="commune" geoname="Roncenay-Authenay" code_insee="27024" code_canton="2722"/><polygon points="363,2 369,1 371,11 374,10 375,17 371,16 372,19 361,23 359,20 355,22 354,20 350,23 343,21 340,22 336,18 339,16 331,12 334,9 332,6 339,4 345,8 348,5 354,5 354,3 363,2" id="27032" class="commune" fill="steelblue" stroke-width="1" stroke="white" geotype="commune" geoname="Avrilly" code_insee="27032" code_canton="2722"/><polygon points="226,161 225,173 220,174 216,173 203,171 198,163 191,159 200,158 202,161 212,159 226,161" id="27036" class="commune" fill="steelblue" stroke-width="1" stroke="white" geotype="commune" geoname="Bâlines" code_insee="27036" code_canton="2722"/><polygon points="56,179 60,180 73,176 84,174 87,176 93,172 103,172 106,175 102,176 102,178 94,183 93,188 86,194 57,198 57,193 61,189 48,192 43,190 53,185 57,181 56,179" id="27038" class="commune" fill="steelblue" stroke-width="1" stroke="white" geotype="commune" geoname="Barils" code_insee="27038" code_canton="2722"/><polygon points="73,176 60,180 56,179 50,172 43,147 56,141 53,141 53,136 59,131 54,121 62,120 66,128 72,128 76,136 83,135 84,137 77,140 89,149 92,157 82,166 71,170 73,176" id="27108" class="commune" fill="steelblue" stroke-width="1" stroke="white" geotype="commune" geoname="Bourth" code_insee="27108" code_canton="2722"/><polygon points="300,141 304,144 300,146 309,150 308,154 315,155 315,158 305,158 300,162 291,165 288,157 284,156 277,149 274,140 273,135 277,131 288,142 290,142 293,138 300,141" id="27115" class="commune" fill="steelblue" stroke-width="1" stroke="white" geotype="commune" geoname="Breux-sur-Avre" code_insee="27115" code_canton="2722"/><polygon points="273,43 273,47 271,51 267,52 264,51 257,52 254,55 257,58 256,58 249,59 247,57 243,59 240,56 242,49 239,47 243,44 257,41 268,45 273,43" id="27145" class="commune" fill="steelblue" stroke-width="1" stroke="white" geotype="commune" geoname="Chanteloup" code_insee="27145" code_canton="2722"/><polygon points="50,224 42,227 30,227 35,225 28,223 29,218 27,218 33,212 46,214 52,220 50,224" id="27155" class="commune" fill="steelblue" stroke-width="1" stroke="white" geotype="commune" geoname="Chennebrun" code_insee="27155" code_canton="2722"/><polygon points="370,43 375,53 366,60 360,60 340,66 335,61 328,59 327,57 330,57 326,56 331,52 326,47 331,43 337,43 351,36 351,33 352,35 356,33 362,35 368,44 370,43" id="27172" class="commune" fill="steelblue" stroke-width="1" stroke="white" geotype="commune" geoname="Corneuil" code_insee="27172" code_canton="2722"/><polygon points="444,116 445,110 459,105 473,115 490,114 500,116 491,120 487,118 487,122 479,126 473,131 464,131 462,134 454,132 456,129 450,129 455,126 447,126 444,116" id="27181" class="commune" fill="steelblue" stroke-width="1" stroke="white" geotype="commune" geoname="Courdemanche" code_insee="27181" code_canton="2722"/><polygon points="226,161 237,157 239,171 247,174 249,177 244,182 228,182 217,184 211,180 210,177 215,176 216,173 220,174 225,173 226,161" id="27182" class="commune" fill="steelblue" stroke-width="1" stroke="white" geotype="commune" geoname="Courteilles" code_insee="27182" code_canton="2722"/><polygon points="272,75 273,70 287,64 282,60 285,57 271,51 273,47 284,52 292,51 294,53 300,53 308,61 316,60 321,64 326,64 325,71 321,76 316,79 314,77 311,79 308,78 301,83 288,76 283,77 284,75 277,76 272,75" id="27198" class="commune" fill="steelblue" stroke-width="1" stroke="white" geotype="commune" geoname="Damville" code_insee="27198" code_canton="2722"/><polygon points="333,131 322,130 316,132 314,131 300,141 293,138 290,142 288,142 277,131 288,131 295,129 295,127 324,122 329,119 336,108 334,106 355,106 365,109 369,114 379,117 378,120 381,126 377,130 366,124 359,133 345,134 333,131" id="27206" class="commune" fill="steelblue" stroke-width="1" stroke="white" geotype="commune" geoname="Droisy" code_insee="27206" code_canton="2722"/><polygon points="206,55 209,51 206,48 209,41 207,36 213,33 220,31 221,34 224,36 232,35 243,44 239,47 242,49 240,56 243,59 249,70 227,75 216,75 212,68 207,63 206,55" id="27225" class="commune" fill="steelblue" stroke-width="1" stroke="white" geotype="commune" geoname="Essarts" code_insee="27225" code_canton="2722"/><polygon points="56,179 57,181 53,185 43,190 48,192 61,189 57,193 57,198 33,210 20,203 3,204 0,201 13,192 26,189 27,183 39,175 50,172 56,179" id="27291" class="commune" fill="steelblue" stroke-width="1" stroke="white" geotype="commune" geoname="Gournay-le-Guérin" code_insee="27291" code_canton="2722"/><polygon points="249,70 257,80 254,83 245,82 238,86 240,92 237,93 234,101 225,99 228,92 221,88 221,85 203,78 201,74 212,68 216,75 227,75 249,70" id="27293" class="commune" fill="steelblue" stroke-width="1" stroke="white" geotype="commune" geoname="Gouville" code_insee="27293" code_canton="2722"/><polygon points="265,121 267,120 263,119 266,118 261,107 263,107 269,103 289,97 297,96 302,106 309,109 321,104 322,108 327,104 331,107 334,106 336,108 329,119 324,122 295,127 295,129 288,131 277,131 265,121" id="27297" class="commune" fill="steelblue" stroke-width="1" stroke="white" geotype="commune" geoname="Grandvilliers" code_insee="27297" code_canton="2722"/><polygon points="277,131 273,135 274,140 267,142 264,140 254,140 238,131 232,126 237,125 239,126 252,120 265,121 277,131" id="27341" class="commune" fill="steelblue" stroke-width="1" stroke="white" geotype="commune" geoname="Hosmes" code_insee="27341" code_canton="2722"/><polygon points="419,86 421,84 419,81 425,77 431,81 436,79 441,83 443,91 448,91 453,88 468,94 478,92 476,89 484,85 491,96 486,99 491,106 490,108 494,111 490,114 473,115 459,105 445,110 444,116 432,114 426,123 416,112 414,106 420,101 417,98 425,91 419,86" id="27350" class="commune" fill="steelblue" stroke-width="1" stroke="white" geotype="commune" geoname="Illiers-l'Évêque" code_insee="27350" code_canton="2722"/><polygon points="444,116 447,126 455,126 450,129 448,133 450,139 445,137 443,141 434,142 438,147 419,149 407,149 377,130 381,126 378,120 390,114 402,114 400,111 405,108 412,112 416,112 426,123 432,114 444,116" id="27378" class="commune" fill="steelblue" stroke-width="1" stroke="white" geotype="commune" geoname="Madeleine-de-Nonancourt" code_insee="27378" code_canton="2722"/><polygon points="103,172 93,172 87,176 84,174 73,176 71,170 82,166 92,157 89,149 107,143 114,154 125,151 131,154 130,159 134,163 133,169 117,166 110,172 109,171 103,172" id="27383" class="commune" fill="steelblue" stroke-width="1" stroke="white" geotype="commune" geoname="Mandres" code_insee="27383" code_canton="2722"/><polygon points="273,43 268,45 257,41 243,44 232,35 224,36 221,34 228,29 249,23 255,24 268,8 271,12 277,13 280,19 285,18 288,23 292,22 294,27 302,28 304,30 293,33 289,30 286,32 285,30 281,31 275,35 280,35 283,39 273,43" id="27387" class="commune" fill="steelblue" stroke-width="1" stroke="white" geotype="commune" geoname="Manthelon" code_insee="27387" code_canton="2722"/><polygon points="390,76 409,85 414,84 419,86 425,91 417,98 420,101 414,106 416,112 412,112 405,108 400,111 402,114 390,114 378,120 379,117 369,114 365,109 355,106 356,100 353,99 356,97 352,92 360,91 369,94 371,91 374,93 378,90 376,89 385,88 383,78 390,76" id="27390" class="commune" fill="steelblue" stroke-width="1" stroke="white" geotype="commune" geoname="Marcilly-la-Campagne" code_insee="27390" code_canton="2722"/><polygon points="375,70 381,68 385,73 391,72 390,76 383,78 385,88 376,89 378,90 374,93 371,91 369,94 360,91 352,92 346,89 359,84 357,80 362,77 358,75 363,71 375,70" id="27411" class="commune" fill="steelblue" stroke-width="1" stroke="white" geotype="commune" geoname="Moisville" code_insee="27411" code_canton="2722"/><polygon points="326,64 328,59 335,61 340,66 360,60 366,60 375,70 363,71 358,75 362,77 357,80 359,84 346,89 352,92 356,97 353,99 356,100 355,106 334,106 331,107 327,104 322,108 321,104 309,109 302,106 297,96 307,88 301,83 308,78 311,79 314,77 316,79 321,76 325,71 326,64" id="27416" class="commune" fill="steelblue" stroke-width="1" stroke="white" geotype="commune" geoname="Buis-sur-Damville" code_insee="27416" code_canton="2722"/><polygon points="419,149 421,153 428,153 419,157 407,150 389,144 368,148 364,147 367,146 357,141 359,133 366,124 377,130 407,149 419,149" id="27438" class="commune" fill="steelblue" stroke-width="1" stroke="white" geotype="commune" geoname="Nonancourt" code_insee="27438" code_canton="2722"/><polygon points="160,152 162,135 170,136 178,135 183,138 187,136 184,132 207,128 215,134 219,131 224,130 233,132 235,138 225,143 237,152 237,157 226,161 212,159 202,161 200,158 191,159 185,156 184,151 160,152" id="27457" class="commune" fill="steelblue" stroke-width="1" stroke="white" geotype="commune" geoname="Piseux" code_insee="27457" code_canton="2722"/><polygon points="99,203 86,194 93,188 94,183 102,178 102,176 106,175 103,172 109,171 110,172 117,166 133,169 151,175 152,177 134,181 135,185 126,187 127,188 121,187 116,190 118,192 109,199 104,199 99,203" id="27481" class="commune" fill="steelblue" stroke-width="1" stroke="white" geotype="commune" geoname="Pullay" code_insee="27481" code_canton="2722"/><polygon points="237,101 234,101 237,93 240,92 238,86 245,82 254,83 257,80 267,83 271,80 272,75 277,76 284,75 283,77 288,76 301,83 307,88 297,96 289,97 269,103 263,107 252,101 241,103 237,101" id="27491" class="commune" fill="steelblue" stroke-width="1" stroke="white" geotype="commune" geoname="Roman" code_insee="27491" code_canton="2722"/><polygon points="273,47 273,43 283,39 280,35 275,35 281,31 285,30 286,32 289,30 293,33 297,37 292,40 302,46 300,53 294,53 292,51 284,52 273,47" id="27503" class="commune" fill="steelblue" stroke-width="1" stroke="white" geotype="commune" geoname="Sacq" code_insee="27503" code_canton="2722"/><polygon points="86,194 99,203 94,205 89,207 81,208 80,211 62,222 50,224 52,220 46,214 33,212 33,210 57,198 86,194" id="27521" class="commune" fill="steelblue" stroke-width="1" stroke="white" geotype="commune" geoname="Saint-Christophe-sur-Avre" code_insee="27521" code_canton="2722"/><polygon points="450,129 456,129 454,132 462,134 462,140 467,143 465,146 460,145 460,150 462,151 466,151 466,153 460,153 457,158 446,157 448,151 438,147 434,142 443,141 445,137 450,139 448,133 450,129" id="27548" class="commune" fill="steelblue" stroke-width="1" stroke="white" geotype="commune" geoname="Saint-Germain-sur-Avre" code_insee="27548" code_canton="2722"/><polygon points="84,223 86,212 94,205 99,203 104,199 109,199 118,192 126,193 117,203 119,207 112,212 115,217 103,220 95,224 84,223" id="27610" class="commune" fill="steelblue" stroke-width="1" stroke="white" geotype="commune" geoname="Saint-Victor-sur-Avre" code_insee="27610" code_canton="2722"/><polygon points="340,22 343,21 350,23 354,20 355,22 359,20 361,23 372,19 371,16 375,17 377,22 382,21 388,27 392,27 395,33 396,38 370,43 368,44 362,35 356,33 352,35 351,33 340,22" id="27634" class="commune" fill="steelblue" stroke-width="1" stroke="white" geotype="commune" geoname="Thomer-la-Sôgne" code_insee="27634" code_canton="2722"/><polygon points="233,132 238,131 254,140 264,140 267,142 274,140 277,149 284,156 271,165 269,169 260,172 259,178 261,180 255,182 249,177 247,174 239,171 237,157 237,152 225,143 235,138 233,132" id="27643" class="commune" fill="steelblue" stroke-width="1" stroke="white" geotype="commune" geoname="Tillières-sur-Avre" code_insee="27643" code_canton="2722"/><polygon points="131,154 133,151 153,154 160,152 184,151 185,156 191,159 198,163 203,171 216,173 215,176 210,177 211,180 197,185 193,192 185,195 177,195 163,199 162,196 153,198 151,196 145,197 137,189 126,193 118,192 116,190 121,187 127,188 126,187 135,185 134,181 152,177 151,175 133,169 134,163 130,159 131,154" id="27679" class="commune" fill="steelblue" stroke-width="1" stroke="white" geotype="commune" geoname="Verneuil-sur-Avre" code_insee="27679" code_canton="2722"/><polygon points="291,18 292,22 288,23 285,18 280,19 277,13 271,12 268,8 271,5 274,0 281,1 280,7 277,9 283,11 291,18" id="27688" class="commune" fill="steelblue" stroke-width="1" stroke="white" geotype="commune" geoname="Villalet" code_insee="27688" code_canton="2722"/><polygon points="328,59 326,64 321,64 316,60 308,61 300,53 302,46 292,40 297,37 293,33 304,30 302,28 294,27 292,22 291,18 293,22 301,20 296,12 307,8 314,11 320,9 323,14 321,20 328,17 332,19 336,18 340,22 351,33 351,36 337,43 331,43 326,47 331,52 326,56 330,57 327,57 328,59" id="27693" class="commune" fill="steelblue" stroke-width="1" stroke="white" geotype="commune" geoname="Sylvains-les-Moulins" code_insee="27693" code_canton="2722"/></svg>