<?xml version="1.0" encoding="utf-8"?>
<svg version="1.1" id="svgmap" xmlns="http://www.w3.org/2000/svg" xmlns:xlink="http://www.w3.org/1999/xlink" x="0px" y="0px" width="100%" height="100%" viewBox="0 0 500 442">
<polygon points="23,257 20,253 25,227 39,225 58,241 69,240 76,223 89,227 99,223 81,218 117,203 134,209 135,221 169,226 157,256 164,256 165,264 172,266 177,261 188,269 213,253 217,258 229,259 233,273 201,281 173,296 189,295 202,305 223,300 217,315 208,313 208,317 119,327 99,323 84,313 59,308 44,299 45,278 57,278 43,273 31,258 27,260 23,257" id="28001" class="commune" fill="steelblue" stroke-width="1" stroke="white" geotype="commune" geoname="Abondant" code_insee="28001" code_canton="2801"/><polygon points="165,201 160,205 148,201 144,181 127,181 124,164 139,164 127,148 139,139 156,142 175,133 190,129 201,149 189,157 178,168 185,172 184,186 165,201" id="28007" class="commune" fill="steelblue" stroke-width="1" stroke="white" geotype="commune" geoname="Anet" code_insee="28007" code_canton="2801"/><polygon points="401,143 424,150 412,179 413,191 395,205 381,196 360,200 345,212 318,223 302,216 306,208 328,173 343,167 357,151 368,157 377,143 378,136 401,143" id="28036" class="commune" fill="steelblue" stroke-width="1" stroke="white" geotype="commune" geoname="Berchères-sur-Vesgre" code_insee="28036" code_canton="2801"/><polygon points="165,201 184,186 185,172 178,168 189,157 201,154 210,160 213,155 238,157 239,165 221,165 226,178 190,194 187,201 165,201" id="28050" class="commune" fill="steelblue" stroke-width="1" stroke="white" geotype="commune" geoname="Boncourt" code_insee="28050" code_canton="2801"/><polygon points="369,343 375,342 372,337 388,334 394,340 398,335 405,337 410,332 400,319 422,322 419,326 425,330 420,333 469,335 500,357 497,373 491,380 483,380 434,423 417,419 416,415 403,417 387,433 371,433 370,442 350,435 331,440 332,435 304,425 305,418 283,400 300,397 302,385 308,390 313,388 310,383 324,376 330,382 349,379 363,352 360,347 369,343" id="28056" class="commune" fill="steelblue" stroke-width="1" stroke="white" geotype="commune" geoname="Boutigny-Prouais" code_insee="28056" code_canton="2801"/><polygon points="302,385 295,378 285,383 269,375 272,358 259,337 286,332 281,325 289,319 316,313 340,329 343,325 355,330 355,335 366,337 369,343 360,347 363,352 349,379 330,382 324,376 310,383 313,388 308,390 302,385" id="28062" class="commune" fill="steelblue" stroke-width="1" stroke="white" geotype="commune" geoname="Broué" code_insee="28062" code_canton="2801"/><polygon points="291,295 269,302 256,295 223,300 202,305 189,295 173,296 201,281 233,273 229,259 217,258 213,253 188,269 177,261 172,266 165,264 164,256 157,256 169,226 199,235 221,236 246,245 265,209 272,216 281,212 282,204 290,205 302,216 318,223 323,225 319,236 332,243 327,248 337,267 297,285 291,295" id="28064" class="commune" fill="steelblue" stroke-width="1" stroke="white" geotype="commune" geoname="Bû" code_insee="28064" code_canton="2801"/><polygon points="269,375 285,383 295,378 302,385 300,397 283,400 273,407 255,405 229,415 203,408 210,407 207,387 228,391 253,378 269,375" id="28076" class="commune" fill="steelblue" stroke-width="1" stroke="white" geotype="commune" geoname="Chapelle-Forainvilliers" code_insee="28076" code_canton="2801"/><polygon points="197,77 194,58 221,60 240,83 249,81 253,87 258,85 267,91 316,113 292,129 242,112 204,115 206,96 215,81 197,77" id="28096" class="commune" fill="steelblue" stroke-width="1" stroke="white" geotype="commune" geoname="Chaussée-d'Ivry" code_insee="28096" code_canton="2801"/><polygon points="84,313 99,323 119,327 208,317 219,340 218,344 194,350 194,356 184,357 187,368 166,367 134,365 136,368 128,369 117,366 116,362 88,359 87,349 94,347 82,340 85,327 93,324 80,319 84,313" id="28098" class="commune" fill="steelblue" stroke-width="1" stroke="white" geotype="commune" geoname="Cherisy" code_insee="28098" code_canton="2801"/><polygon points="259,337 272,358 269,375 253,378 228,391 207,387 186,387 176,371 165,372 166,367 187,368 184,357 194,356 194,350 218,344 219,340 252,332 253,338 259,337" id="28178" class="commune" fill="steelblue" stroke-width="1" stroke="white" geotype="commune" geoname="Germainville" code_insee="28178" code_canton="2801"/><polygon points="343,42 345,47 352,56 339,64 326,65 308,73 310,76 267,91 258,85 253,87 249,81 294,35 302,29 322,30 339,34 343,42" id="28180" class="commune" fill="steelblue" stroke-width="1" stroke="white" geotype="commune" geoname="Gilles" code_insee="28180" code_canton="2801"/><polygon points="422,322 400,319 410,332 405,337 398,335 394,340 388,334 372,337 375,342 369,343 366,337 355,335 355,330 343,325 340,329 316,313 315,304 349,295 346,293 361,289 359,284 372,283 369,273 353,270 386,253 408,244 415,245 424,248 411,252 416,262 412,270 419,273 408,279 410,294 431,311 422,322" id="28185" class="commune" fill="steelblue" stroke-width="1" stroke="white" geotype="commune" geoname="Goussainville" code_insee="28185" code_canton="2801"/><polygon points="171,31 193,24 196,6 231,1 252,9 271,0 290,12 281,24 294,35 249,81 240,83 221,60 194,58 185,51 193,49 171,31" id="28187" class="commune" fill="steelblue" stroke-width="1" stroke="white" geotype="commune" geoname="Guainville" code_insee="28187" code_canton="2801"/><polygon points="291,295 297,285 337,267 353,270 369,273 372,283 359,284 361,289 346,293 349,295 315,304 305,292 291,295" id="28193" class="commune" fill="steelblue" stroke-width="1" stroke="white" geotype="commune" geoname="Havelu" code_insee="28193" code_canton="2801"/><polygon points="269,302 291,295 305,292 315,304 316,313 289,319 281,325 269,302" id="28235" class="commune" fill="steelblue" stroke-width="1" stroke="white" geotype="commune" geoname="Marchezais" code_insee="28235" code_canton="2801"/><polygon points="353,127 324,116 316,113 267,91 310,76 308,73 326,65 339,64 367,88 386,94 378,110 373,109 353,127" id="28247" class="commune" fill="steelblue" stroke-width="1" stroke="white" geotype="commune" geoname="Mesnil-Simon" code_insee="28247" code_canton="2801"/><polygon points="0,300 11,299 17,291 35,296 41,280 27,260 31,258 43,273 57,278 45,278 44,299 59,308 84,313 80,319 93,324 85,327 82,340 77,338 69,343 39,335 30,324 19,329 12,306 6,307 0,300" id="28267" class="commune" fill="steelblue" stroke-width="1" stroke="white" geotype="commune" geoname="Montreuil" code_insee="28267" code_canton="2801"/><polygon points="190,129 204,115 242,112 292,129 316,113 324,116 297,134 293,160 270,158 265,167 239,165 238,157 213,155 210,160 201,154 189,157 201,149 190,129" id="28293" class="commune" fill="steelblue" stroke-width="1" stroke="white" geotype="commune" geoname="Oulins" code_insee="28293" code_canton="2801"/><polygon points="160,205 165,201 187,201 190,194 226,178 221,165 239,165 265,167 270,158 293,160 294,190 287,193 292,203 306,208 302,216 290,205 282,204 281,212 272,216 265,209 246,245 221,236 199,235 169,226 135,221 160,205" id="28321" class="commune" fill="steelblue" stroke-width="1" stroke="white" geotype="commune" geoname="Rouvres" code_insee="28321" code_canton="2801"/><polygon points="415,245 408,244 386,253 353,270 337,267 327,248 332,243 319,236 323,225 318,223 345,212 360,200 381,196 395,205 413,191 412,179 429,181 450,190 442,199 414,207 436,229 437,234 415,245" id="28347" class="commune" fill="steelblue" stroke-width="1" stroke="white" geotype="commune" geoname="Saint-Lubin-de-la-Haye" code_insee="28347" code_canton="2801"/><polygon points="324,116 353,127 352,132 377,143 368,157 357,151 343,167 328,173 306,208 292,203 287,193 294,190 293,160 297,134 324,116" id="28355" class="commune" fill="steelblue" stroke-width="1" stroke="white" geotype="commune" geoname="Saint-Ouen-Marchefroy" code_insee="28355" code_canton="2801"/><polygon points="63,176 79,156 94,148 127,148 139,164 124,164 127,181 81,189 63,176" id="28371" class="commune" fill="steelblue" stroke-width="1" stroke="white" geotype="commune" geoname="Saussay" code_insee="28371" code_canton="2801"/><polygon points="281,325 286,332 259,337 253,338 252,332 219,340 208,317 208,313 217,315 223,300 256,295 269,302 281,325" id="28375" class="commune" fill="steelblue" stroke-width="1" stroke="white" geotype="commune" geoname="Serville" code_insee="28375" code_canton="2801"/><polygon points="7,205 11,198 63,176 81,189 127,181 144,181 148,201 160,205 135,221 134,209 117,203 81,218 99,223 89,227 76,223 69,240 58,241 39,225 25,227 20,253 0,231 7,224 7,205" id="28377" class="commune" fill="steelblue" stroke-width="1" stroke="white" geotype="commune" geoname="Sorel-Moussel" code_insee="28377" code_canton="2801"/></svg>