<?xml version="1.0" encoding="utf-8"?>
<svg version="1.1" id="svgmap" xmlns="http://www.w3.org/2000/svg" xmlns:xlink="http://www.w3.org/1999/xlink" x="0px" y="0px" width="100%" height="100%" viewBox="0 0 500 277">
<polygon points="186,140 188,138 197,138 201,134 213,136 222,124 230,122 249,130 254,129 258,130 278,143 276,146 279,149 276,154 280,154 278,159 291,171 285,177 280,177 276,176 265,172 256,173 252,175 256,177 254,179 249,180 244,179 216,184 215,177 189,177 183,174 169,179 167,176 162,177 156,168 168,160 198,152 199,146 197,146 194,141 186,140" id="28012" class="commune" fill="steelblue" stroke-width="1" stroke="white" geotype="commune" geoname="Arrou" code_insee="28012" code_canton="2803"/><polygon points="177,117 174,117 169,118 167,115 161,114 145,117 125,118 132,115 137,113 136,110 145,110 145,106 151,104 149,98 163,97 169,99 176,96 179,97 180,95 184,96 184,98 189,100 180,101 183,107 188,108 177,110 177,117" id="28016" class="commune" fill="steelblue" stroke-width="1" stroke="white" geotype="commune" geoname="Autels-Villevillon" code_insee="28016" code_canton="2803"/><polygon points="361,227 372,225 378,227 384,225 389,219 404,225 408,233 408,238 418,242 417,245 420,244 419,247 418,250 409,252 403,249 400,252 395,248 395,245 391,244 385,248 379,247 377,250 363,246 367,244 360,236 367,233 361,227" id="28017" class="commune" fill="steelblue" stroke-width="1" stroke="white" geotype="commune" geoname="Autheuil" code_insee="28017" code_canton="2803"/><polygon points="103,79 117,80 110,85 102,84 100,87 91,88 93,97 90,97 94,104 92,107 89,107 88,103 85,103 78,101 76,102 71,102 71,101 63,103 66,98 64,95 51,95 47,97 47,82 53,81 60,77 60,74 69,72 75,71 84,75 85,80 103,79" id="28018" class="commune" fill="steelblue" stroke-width="1" stroke="white" geotype="commune" geoname="Authon-du-Perche" code_insee="28018" code_canton="2803"/><polygon points="201,134 197,138 188,138 186,140 171,141 159,145 158,147 148,151 134,162 130,162 128,166 121,167 123,161 120,156 126,150 121,148 116,149 114,147 106,148 106,144 98,144 98,142 104,138 99,136 94,133 95,130 104,128 109,125 120,124 122,120 114,114 129,109 134,110 132,115 125,118 145,117 161,114 167,115 169,118 174,117 171,123 182,133 194,132 201,134" id="28027" class="commune" fill="steelblue" stroke-width="1" stroke="white" geotype="commune" geoname="Bazoche-Gouet" code_insee="28027" code_canton="2803"/><polygon points="117,80 103,79 100,75 113,63 102,60 99,57 95,53 97,52 107,52 107,47 112,40 128,45 136,40 151,40 172,34 164,40 150,45 146,49 146,55 141,59 141,69 156,72 149,75 126,75 120,79 117,80" id="28031" class="commune" fill="steelblue" stroke-width="1" stroke="white" geotype="commune" geoname="Beaumont-les-Autels" code_insee="28031" code_canton="2803"/><polygon points="103,79 85,80 84,75 75,71 69,72 63,66 63,57 66,57 78,51 81,54 90,51 94,53 93,57 98,59 99,57 102,60 113,63 100,75 103,79" id="28038" class="commune" fill="steelblue" stroke-width="1" stroke="white" geotype="commune" geoname="Béthonvilliers" code_insee="28038" code_canton="2803"/><polygon points="288,194 290,198 287,207 283,208 275,212 267,213 265,216 257,215 255,211 252,202 257,199 288,194" id="28044" class="commune" fill="steelblue" stroke-width="1" stroke="white" geotype="commune" geoname="Boisgasson" code_insee="28044" code_canton="2803"/><polygon points="259,85 265,83 262,81 265,80 264,76 275,75 276,70 269,68 268,61 272,59 266,55 268,54 282,50 285,58 292,56 297,57 300,62 304,61 304,63 305,69 299,73 304,80 303,86 300,86 295,91 296,94 292,95 287,99 279,97 274,98 273,94 270,96 259,85" id="28061" class="commune" fill="steelblue" stroke-width="1" stroke="white" geotype="commune" geoname="Brou" code_insee="28061" code_canton="2803"/><polygon points="340,55 342,54 344,55 362,51 369,62 379,59 382,63 377,67 369,70 365,63 364,65 362,64 351,68 338,72 341,74 340,78 336,78 335,75 331,76 331,74 338,72 328,65 327,61 340,55" id="28066" class="commune" fill="steelblue" stroke-width="1" stroke="white" geotype="commune" geoname="Bullou" code_insee="28066" code_canton="2803"/><polygon points="99,136 104,138 98,142 98,144 106,144 106,148 114,147 116,149 121,148 126,150 120,156 109,156 94,163 78,164 71,163 72,159 68,158 41,163 52,148 48,140 59,139 64,141 65,139 70,138 73,140 97,139 99,136" id="28078" class="commune" fill="steelblue" stroke-width="1" stroke="white" geotype="commune" geoname="Chapelle-Guillaume" code_insee="28078" code_canton="2803"/><polygon points="174,117 177,117 190,115 200,118 214,118 222,124 213,136 201,134 194,132 182,133 171,123 174,117" id="28079" class="commune" fill="steelblue" stroke-width="1" stroke="white" geotype="commune" geoname="Chapelle-Royale" code_insee="28079" code_canton="2803"/><polygon points="117,80 120,79 125,81 138,80 147,84 139,86 141,90 136,93 149,98 151,104 145,106 145,110 136,110 137,113 132,115 134,110 129,109 114,114 92,107 94,104 90,97 93,97 91,88 100,87 102,84 110,85 117,80" id="28080" class="commune" fill="steelblue" stroke-width="1" stroke="white" geotype="commune" geoname="Charbonnières" code_insee="28080" code_canton="2803"/><polygon points="400,277 395,273 396,270 392,267 400,257 401,259 403,258 404,261 413,259 416,262 425,262 426,264 433,265 439,263 437,260 444,259 445,256 448,254 453,256 459,257 452,264 446,277 442,276 441,273 428,269 426,275 416,274 400,277" id="28083" class="commune" fill="steelblue" stroke-width="1" stroke="white" geotype="commune" geoname="Charray" code_insee="28083" code_canton="2803"/><polygon points="291,171 278,159 280,154 276,154 279,149 276,146 278,143 258,130 260,127 268,124 275,126 299,123 300,126 310,127 313,128 315,124 324,126 325,125 324,129 329,132 333,140 338,141 339,145 340,157 337,159 333,159 327,166 317,168 315,167 312,174 304,172 298,174 297,172 291,171" id="28093" class="commune" fill="steelblue" stroke-width="1" stroke="white" geotype="commune" geoname="Châtillon-en-Dunois" code_insee="28093" code_canton="2803"/><polygon points="360,236 367,244 363,246 360,248 359,255 353,259 334,260 324,266 316,265 313,267 310,264 318,260 315,256 309,254 306,240 296,238 304,233 310,232 318,236 322,236 324,233 330,232 337,240 351,233 357,237 360,236" id="28103" class="commune" fill="steelblue" stroke-width="1" stroke="white" geotype="commune" geoname="Cloyes-sur-le-Loir" code_insee="28103" code_canton="2803"/><polygon points="69,72 60,74 60,77 53,81 47,82 44,77 33,73 40,66 37,61 42,59 38,59 38,54 34,54 34,51 41,48 50,41 50,43 63,42 73,46 79,49 78,51 66,57 63,57 63,66 69,72" id="28111" class="commune" fill="steelblue" stroke-width="1" stroke="white" geotype="commune" geoname="Coudray-au-Perche" code_insee="28111" code_canton="2803"/><polygon points="256,173 265,172 276,176 275,180 279,184 274,183 267,186 265,182 262,182 256,173" id="28115" class="commune" fill="steelblue" stroke-width="1" stroke="white" geotype="commune" geoname="Courtalain" code_insee="28115" code_canton="2803"/><polygon points="268,61 269,68 276,70 275,75 264,76 265,80 262,81 265,83 259,85 256,83 235,82 234,78 228,78 220,68 219,60 235,57 245,60 254,60 254,62 262,60 265,62 268,61" id="28123" class="commune" fill="steelblue" stroke-width="1" stroke="white" geotype="commune" geoname="Dampierre-sous-Brou" code_insee="28123" code_canton="2803"/><polygon points="389,219 384,225 378,227 372,225 363,215 359,214 360,209 363,205 365,204 369,209 389,203 395,205 389,215 383,217 384,218 389,219" id="28133" class="commune" fill="steelblue" stroke-width="1" stroke="white" geotype="commune" geoname="Douy" code_insee="28133" code_canton="2803"/><polygon points="33,73 27,71 22,65 17,63 11,55 11,50 0,42 3,39 7,38 7,41 11,42 13,40 19,44 21,42 27,50 34,51 34,54 38,54 38,59 42,59 37,61 40,66 33,73" id="28144" class="commune" fill="steelblue" stroke-width="1" stroke="white" geotype="commune" geoname="Étilleux" code_insee="28144" code_canton="2803"/><polygon points="409,252 418,250 419,247 426,242 435,243 438,250 444,248 445,252 445,256 444,259 437,260 439,263 433,265 426,264 425,262 416,262 413,259 404,261 403,258 403,255 409,252" id="28150" class="commune" fill="steelblue" stroke-width="1" stroke="white" geotype="commune" geoname="Ferté-Villeneuil" code_insee="28150" code_canton="2803"/><polygon points="187,42 186,38 207,35 207,33 228,36 232,27 230,25 227,21 233,19 239,21 241,25 251,25 254,35 269,34 286,39 281,44 281,48 272,46 263,46 261,51 268,54 266,55 272,59 268,61 265,62 262,60 254,62 254,60 245,60 235,57 219,60 218,52 214,48 205,52 198,50 201,49 199,41 187,42" id="28161" class="commune" fill="steelblue" stroke-width="1" stroke="white" geotype="commune" geoname="Frazé" code_insee="28161" code_canton="2803"/><polygon points="325,125 324,126 315,124 313,128 310,127 303,123 307,120 309,123 313,118 319,117 316,115 322,114 317,109 322,105 326,106 330,104 344,109 351,110 360,106 361,112 355,117 358,120 345,124 344,122 335,122 331,117 328,117 327,120 329,120 325,125" id="28182" class="commune" fill="steelblue" stroke-width="1" stroke="white" geotype="commune" geoname="Gohory" code_insee="28182" code_canton="2803"/><polygon points="265,216 267,213 275,212 283,208 287,207 290,198 288,194 299,185 303,185 316,188 318,195 322,195 322,191 325,190 328,191 325,194 329,197 338,197 337,199 343,207 328,211 321,210 321,211 316,211 314,216 311,215 303,219 297,218 296,221 291,222 286,220 273,220 265,216" id="28204" class="commune" fill="steelblue" stroke-width="1" stroke="white" geotype="commune" geoname="Langey" code_insee="28204" code_canton="2803"/><polygon points="205,52 199,55 198,59 205,64 202,69 207,74 206,76 202,76 202,77 186,75 181,76 179,74 156,72 159,71 155,66 157,62 165,63 168,58 167,55 173,50 171,48 184,46 182,42 187,42 199,41 201,49 198,50 205,52" id="28219" class="commune" fill="steelblue" stroke-width="1" stroke="white" geotype="commune" geoname="Luigny" code_insee="28219" code_canton="2803"/><polygon points="494,236 498,237 495,243 499,249 496,251 500,255 498,260 476,265 466,261 465,258 459,257 453,256 448,254 445,256 445,252 450,251 458,245 453,235 455,236 462,235 457,232 462,231 466,233 473,232 480,226 483,228 488,225 493,228 494,236" id="28241" class="commune" fill="steelblue" stroke-width="1" stroke="white" geotype="commune" geoname="Mée" code_insee="28241" code_canton="2803"/><polygon points="379,59 369,62 362,51 344,55 342,54 352,48 353,46 363,45 365,42 371,45 376,42 384,44 389,44 386,47 388,49 381,56 384,57 379,59" id="28250" class="commune" fill="steelblue" stroke-width="1" stroke="white" geotype="commune" geoname="Mézières-au-Perche" code_insee="28250" code_canton="2803"/><polygon points="172,34 174,34 180,35 178,38 186,38 187,42 182,42 184,46 171,48 173,50 167,55 168,58 165,63 157,62 155,66 159,71 156,72 156,72 141,69 141,59 146,55 146,49 150,45 164,40 172,34" id="28252" class="commune" fill="steelblue" stroke-width="1" stroke="white" geotype="commune" geoname="Miermaigne" code_insee="28252" code_canton="2803"/><polygon points="286,39 269,34 254,35 251,25 241,25 239,21 233,19 234,15 214,14 213,13 214,9 215,3 217,3 219,0 228,0 235,5 242,2 252,6 255,9 267,7 267,5 272,6 275,7 275,8 287,12 292,11 292,20 294,25 300,24 303,25 305,34 302,33 298,35 298,38 295,40 286,39" id="28261" class="commune" fill="steelblue" stroke-width="1" stroke="white" geotype="commune" geoname="Montigny-le-Chartif" code_insee="28261" code_canton="2803"/><polygon points="304,233 315,222 350,223 359,228 361,227 367,233 360,236 357,237 351,233 337,240 330,232 324,233 322,236 318,236 310,232 304,233" id="28262" class="commune" fill="steelblue" stroke-width="1" stroke="white" geotype="commune" geoname="Montigny-le-Gannelon" code_insee="28262" code_canton="2803"/><polygon points="304,63 304,61 300,62 297,57 292,56 285,58 282,50 268,54 261,51 263,46 272,46 281,48 281,44 286,39 295,40 298,38 305,39 311,45 307,55 310,61 304,63" id="28272" class="commune" fill="steelblue" stroke-width="1" stroke="white" geotype="commune" geoname="Mottereau" code_insee="28272" code_canton="2803"/><polygon points="120,79 126,75 149,75 156,72 156,72 179,74 181,76 186,75 202,77 202,76 206,76 207,74 217,78 212,78 213,83 208,83 212,88 208,88 207,90 204,88 203,89 202,85 198,84 197,87 192,86 190,83 147,84 138,80 125,81 120,79" id="28273" class="commune" fill="steelblue" stroke-width="1" stroke="white" geotype="commune" geoname="Moulhard" code_insee="28273" code_canton="2803"/><polygon points="363,246 377,250 379,247 385,248 391,244 395,245 395,248 400,252 403,249 409,252 403,255 403,258 401,259 400,257 392,267 381,269 371,269 368,272 364,271 366,269 362,268 363,266 360,261 353,259 359,255 360,248 363,246" id="28318" class="commune" fill="steelblue" stroke-width="1" stroke="white" geotype="commune" geoname="Romilly-sur-Aigre" code_insee="28318" code_canton="2803"/><polygon points="47,82 47,97 51,95 53,98 41,107 38,114 31,110 28,105 27,106 20,104 18,100 6,98 8,93 16,91 14,85 21,85 28,81 33,81 27,71 33,73 44,77 47,82" id="28327" class="commune" fill="steelblue" stroke-width="1" stroke="white" geotype="commune" geoname="Saint-Bomer" code_insee="28327" code_canton="2803"/><polygon points="338,197 339,196 347,199 345,203 349,205 350,204 349,202 358,206 363,205 360,209 359,214 363,215 372,225 361,227 359,228 350,223 315,222 304,233 296,238 293,237 293,234 285,229 286,226 291,227 291,222 296,221 297,218 303,219 311,215 314,216 316,211 321,211 321,210 328,211 343,207 337,199 338,197" id="28340" class="commune" fill="steelblue" stroke-width="1" stroke="white" geotype="commune" geoname="Saint-Hilaire-sur-Yerre" code_insee="28340" code_canton="2803"/><polygon points="288,194 257,199 252,202 244,196 248,190 248,185 251,184 249,180 254,179 256,177 252,175 256,173 262,182 265,182 267,186 274,183 279,184 275,180 276,176 280,177 285,177 291,171 297,172 298,174 305,179 303,185 299,185 288,194" id="28356" class="commune" fill="steelblue" stroke-width="1" stroke="white" geotype="commune" geoname="Saint-Pellerin" code_insee="28356" code_canton="2803"/><polygon points="51,95 64,95 66,98 63,103 71,101 71,102 76,102 78,101 85,103 88,103 89,107 92,107 114,114 122,120 120,124 109,125 104,128 95,130 95,128 76,118 63,117 55,114 51,116 47,114 43,116 38,114 41,107 53,98 51,95" id="28376" class="commune" fill="steelblue" stroke-width="1" stroke="white" geotype="commune" geoname="Soizé" code_insee="28376" code_canton="2803"/><polygon points="205,52 214,48 218,52 219,60 220,68 228,78 234,78 235,82 256,83 259,85 270,96 273,94 274,98 279,97 268,104 272,107 269,111 271,113 270,114 263,115 264,122 268,124 260,127 258,130 254,129 249,130 230,122 222,124 214,118 200,118 190,115 177,117 177,110 188,108 183,107 180,101 189,100 184,98 184,96 180,95 179,97 176,96 169,99 163,97 149,98 136,93 141,90 139,86 147,84 190,83 192,86 197,87 198,84 202,85 203,89 204,88 207,90 208,88 212,88 208,83 213,83 212,78 217,78 207,74 202,69 205,64 198,59 199,55 205,52" id="28398" class="commune" fill="steelblue" stroke-width="1" stroke="white" geotype="commune" geoname="Unverre" code_insee="28398" code_canton="2803"/><polygon points="310,61 316,63 321,61 327,61 328,65 338,72 331,74 331,76 335,75 336,78 340,78 341,74 338,72 351,68 351,71 342,79 344,82 349,83 346,93 339,97 346,107 344,109 330,104 326,106 322,105 317,109 322,114 316,115 319,117 313,118 309,123 307,120 303,123 310,127 300,126 299,123 275,126 268,124 264,122 263,115 270,114 271,113 269,111 272,107 268,104 279,97 287,99 292,95 296,94 295,91 300,86 303,86 304,80 299,73 305,69 304,63 310,61" id="28424" class="commune" fill="steelblue" stroke-width="1" stroke="white" geotype="commune" geoname="Yèvres" code_insee="28424" code_canton="2803"/></svg>