<?xml version="1.0" encoding="utf-8"?>
<svg version="1.1" id="svgmap" xmlns="http://www.w3.org/2000/svg" xmlns:xlink="http://www.w3.org/1999/xlink" x="0px" y="0px" width="100%" height="100%" viewBox="0 0 500 407">
<polygon points="401,108 446,178 415,254 479,276 500,290 480,282 455,314 423,303 386,339 309,342 291,360 159,407 146,392 122,397 108,382 146,294 127,273 130,239 110,227 127,207 61,167 64,105 21,42 0,16 32,30 65,0 182,11 194,38 283,14 348,49 356,96 401,108" id="29212" class="commune" fill="steelblue" stroke-width="1" stroke="white" geotype="commune" geoname="Plouzané" code_insee="29212" code_canton="2903"/></svg>