<?xml version="1.0" encoding="utf-8"?>
<svg version="1.1" id="svgmap" xmlns="http://www.w3.org/2000/svg" xmlns:xlink="http://www.w3.org/1999/xlink" x="0px" y="0px" width="100%" height="100%" viewBox="0 0 500 227">
<polygon points="224,179 187,131 189,109 178,103 177,88 199,87 200,74 222,82 223,61 239,62 252,62 251,71 293,76 272,79 275,91 296,102 278,124 253,138 242,173 224,179" id="29011" class="commune" fill="steelblue" stroke-width="1" stroke="white" geotype="commune" geoname="Bohars" code_insee="29011" code_canton="2904"/><polygon points="319,47 339,24 360,15 356,5 382,0 385,13 400,18 399,38 461,44 500,32 498,70 478,66 468,72 468,110 417,133 397,119 375,125 364,99 331,93 350,74 345,77 328,67 319,47" id="29061" class="commune" fill="steelblue" stroke-width="1" stroke="white" geotype="commune" geoname="Gouesnou" code_insee="29061" code_canton="2904"/><polygon points="178,103 189,109 187,131 224,179 227,192 208,192 189,201 164,198 138,215 106,213 94,227 69,221 65,194 28,175 22,152 0,133 5,123 74,98 75,87 117,73 152,85 169,106 178,103" id="29069" class="commune" fill="steelblue" stroke-width="1" stroke="white" geotype="commune" geoname="Guilers" code_insee="29069" code_canton="2904"/></svg>