<?xml version="1.0" encoding="utf-8"?>
<svg version="1.1" id="svgmap" xmlns="http://www.w3.org/2000/svg" xmlns:xlink="http://www.w3.org/1999/xlink" x="0px" y="0px" width="100%" height="100%" viewBox="0 0 500 206">
<polygon points="223,63 222,53 233,46 246,47 243,54 231,61 223,63" id="29001" class="commune" fill="steelblue" stroke-width="1" stroke="white" geotype="commune" geoname="Argol" code_insee="29001" code_canton="2909"/><polygon points="260,114 254,116 255,114 251,112 260,105 259,101 263,96 259,87 249,79 253,67 254,61 287,57 293,55 295,58 311,62 315,66 302,69 314,68 316,70 313,71 323,73 320,76 325,77 320,86 312,88 305,93 302,92 290,92 277,96 271,105 266,107 260,114" id="29001" class="commune" fill="steelblue" stroke-width="1" stroke="white" geotype="commune" geoname="Argol" code_insee="29001" code_canton="2909"/><polygon points="8,75 8,75 10,75 9,76 8,75" id="29022" class="commune" fill="steelblue" stroke-width="1" stroke="white" geotype="commune" geoname="Camaret-sur-Mer" code_insee="29022" code_canton="2909"/><polygon points="63,70 51,74 49,72 43,76 39,73 31,74 31,71 19,66 13,68 10,74 10,71 7,71 15,62 16,56 12,53 3,52 3,50 18,51 22,48 18,47 28,45 28,49 38,51 37,52 29,51 35,55 45,54 49,49 52,50 55,47 63,50 59,54 62,55 62,57 72,61 71,64 66,65 67,67 63,70" id="29022" class="commune" fill="steelblue" stroke-width="1" stroke="white" geotype="commune" geoname="Camaret-sur-Mer" code_insee="29022" code_canton="2909"/><polygon points="3,78 4,78 4,77 4,77 3,78" id="29022" class="commune" fill="steelblue" stroke-width="1" stroke="white" geotype="commune" geoname="Camaret-sur-Mer" code_insee="29022" code_canton="2909"/><polygon points="0,79 0,78 1,78 1,79 0,79" id="29022" class="commune" fill="steelblue" stroke-width="1" stroke="white" geotype="commune" geoname="Camaret-sur-Mer" code_insee="29022" code_canton="2909"/><polygon points="4,76 5,76 5,77 4,77 4,76" id="29022" class="commune" fill="steelblue" stroke-width="1" stroke="white" geotype="commune" geoname="Camaret-sur-Mer" code_insee="29022" code_canton="2909"/><polygon points="6,76 7,75 7,75 7,76 6,76" id="29022" class="commune" fill="steelblue" stroke-width="1" stroke="white" geotype="commune" geoname="Camaret-sur-Mer" code_insee="29022" code_canton="2909"/><polygon points="482,150 476,150 475,152 479,155 478,157 479,160 477,164 478,169 473,172 471,172 466,179 461,183 455,180 455,177 448,179 448,177 438,176 432,179 427,176 423,168 414,164 403,171 400,171 399,175 392,174 384,177 367,175 363,171 357,172 359,161 373,165 374,160 385,160 388,156 386,148 391,150 403,149 417,144 416,142 424,139 423,136 426,138 439,144 448,140 446,138 448,136 458,137 458,139 464,138 460,145 462,150 465,149 472,150 477,147 481,149 482,150" id="29025" class="commune" fill="steelblue" stroke-width="1" stroke="white" geotype="commune" geoname="Cast" code_insee="29025" code_canton="2909"/><polygon points="436,112 448,107 462,103 465,105 464,108 467,109 471,107 470,104 467,99 472,93 484,90 483,88 489,87 495,95 493,98 489,97 490,101 500,105 495,109 497,127 492,133 488,133 482,128 486,117 482,113 477,113 462,125 455,128 448,127 444,133 444,139 446,138 448,140 439,144 426,138 431,136 431,131 435,129 434,124 434,122 427,119 438,114 436,112" id="29026" class="commune" fill="steelblue" stroke-width="1" stroke="white" geotype="commune" geoname="Châteaulin" code_insee="29026" code_canton="2909"/><polygon points="89,34 91,34 90,35 90,34 89,34" id="29042" class="commune" fill="steelblue" stroke-width="1" stroke="white" geotype="commune" geoname="Crozon" code_insee="29042" code_canton="2909"/><polygon points="163,100 164,99 164,99 164,100 163,100" id="29042" class="commune" fill="steelblue" stroke-width="1" stroke="white" geotype="commune" geoname="Crozon" code_insee="29042" code_canton="2909"/><polygon points="103,117 103,116 103,116 103,117 103,117" id="29042" class="commune" fill="steelblue" stroke-width="1" stroke="white" geotype="commune" geoname="Crozon" code_insee="29042" code_canton="2909"/><polygon points="162,97 165,95 166,95 165,98 162,97" id="29042" class="commune" fill="steelblue" stroke-width="1" stroke="white" geotype="commune" geoname="Crozon" code_insee="29042" code_canton="2909"/><polygon points="85,32 86,30 87,29 87,31 85,32" id="29042" class="commune" fill="steelblue" stroke-width="1" stroke="white" geotype="commune" geoname="Crozon" code_insee="29042" code_canton="2909"/><polygon points="59,120 59,120 59,120 59,121 59,120" id="29042" class="commune" fill="steelblue" stroke-width="1" stroke="white" geotype="commune" geoname="Crozon" code_insee="29042" code_canton="2909"/><polygon points="79,33 81,31 83,32 80,33 79,33" id="29042" class="commune" fill="steelblue" stroke-width="1" stroke="white" geotype="commune" geoname="Crozon" code_insee="29042" code_canton="2909"/><polygon points="222,53 223,63 222,66 226,69 206,73 206,80 197,82 198,92 190,99 183,99 183,96 176,96 173,93 166,94 171,89 168,86 161,89 165,91 167,89 167,92 154,88 144,89 141,85 133,88 115,89 108,97 116,99 117,96 117,101 103,108 99,115 102,117 97,119 97,125 90,130 79,133 77,139 79,142 77,144 67,145 62,143 62,138 69,132 66,130 69,128 66,126 69,125 68,108 63,107 65,104 61,93 51,92 52,90 50,89 73,84 72,77 63,70 67,67 66,65 71,64 72,61 62,57 62,55 59,54 63,50 55,47 55,41 60,38 66,39 65,40 67,39 75,43 79,40 77,45 82,48 93,43 92,41 89,41 89,39 97,37 105,26 112,25 115,26 115,28 112,26 110,30 113,31 110,30 102,38 96,39 99,43 102,43 106,46 107,45 108,45 106,47 104,48 109,50 117,60 120,57 133,57 131,60 132,65 148,66 158,69 184,64 188,65 196,62 207,62 207,55 222,53" id="29042" class="commune" fill="steelblue" stroke-width="1" stroke="white" geotype="commune" geoname="Crozon" code_insee="29042" code_canton="2909"/><polygon points="355,86 355,86 355,86 355,86 355,86 355,86 355,86 355,85 355,85 355,85 355,85 355,85 355,85 355,85 355,85 355,85 355,85 355,85 355,85 355,85 355,85 355,84 355,84 355,84 355,83 354,83 354,83 354,82 354,82 353,82 353,82 352,81 352,81 352,80 352,79 351,79 351,79 352,78 352,78 352,79 352,79 353,79 354,79 356,80 356,80 357,80 357,80 358,80 358,80 358,80 358,80 358,80 359,80 359,80 359,80 359,80 359,80 359,80 360,80 361,80 361,80 362,80 363,79 363,79 365,79 365,79 366,79 366,79 366,79 366,79 366,79 367,79 367,79 367,79 367,79 368,79 368,79 368,79 368,79 368,79 368,79 368,79 369,79 369,79 369,79 369,79 369,79 369,79 369,79 370,79 370,79 370,79 370,79 370,79 370,79 371,79 371,79 372,79 373,79 373,79 374,79 374,79 374,79 375,79 376,79 376,79 376,80 376,80 376,80 377,80 376,80 377,80 377,80 376,80 376,80 377,80 377,80 377,81 377,80 377,80 377,81 377,81 377,81 377,81 377,81 377,81 377,81 377,81 377,81 377,81 377,81 377,81 377,81 377,81 377,80 377,80 377,80 377,80 377,80 377,80 377,80 377,80 377,80 378,80 378,80 378,80 379,80 380,80 380,80 380,80 381,80 381,80 381,80 382,80 382,80 382,80 382,80 383,80 384,80 384,80 385,80 385,80 386,80 386,80 387,80 389,80 389,80 389,80 390,80 390,80 391,80 391,80 391,80 392,80 392,80 391,80 391,80 391,80 391,80 391,81 391,81 391,81 391,81 391,81 391,81 391,80 391,80 391,80 392,80 392,80 392,80 392,80 392,80 392,80 393,80 394,80 394,80 395,80 395,81 396,81 397,81 397,81 398,81 398,81 399,81 400,81 400,81 400,81 401,81 401,81 401,82 402,82 402,82 402,82 403,82 403,82 403,83 404,83 403,83 403,83 404,83 404,83 404,83 405,84 405,84 405,84 405,84 405,84 405,84 406,84 406,85 406,85 407,85 407,85 408,85 408,85 408,86 408,86 408,86 408,86 408,86 408,86 408,86 409,87 409,87 409,87 409,87 409,87 409,87 410,87 410,87 410,87 410,87 411,87 411,87 411,87 412,88 413,88 414,88 414,88 414,88 414,88 414,88 414,88 414,88 414,88 414,88 415,87 416,87 417,87 417,87 418,87 418,87 418,87 418,87 419,86 419,86 419,86 419,86 420,86 420,86 420,86 420,86 421,86 420,86 420,85 421,85 421,85 421,85 421,85 421,85 421,85 421,85 421,85 421,84 422,84 422,84 422,84 422,84 422,84 422,84 422,84 422,84 422,84 422,83 423,83 422,83 422,83 423,83 423,83 423,83 423,82 423,83 423,82 423,82 423,82 423,82 423,82 423,82 423,82 423,82 423,82 423,82 424,82 424,82 424,82 424,82 424,82 424,81 424,81 424,81 425,81 425,81 426,81 426,81 426,81 426,81 426,81 426,81 426,81 426,81 427,80 427,80 427,80 427,80 428,80 428,80 428,80 428,80 428,80 428,80 428,80 428,80 428,80 429,80 429,80 429,80 429,80 429,80 429,80 430,80 430,80 430,80 430,80 430,80 430,80 431,80 431,80 431,80 431,80 431,80 431,80 431,80 431,80 431,80 430,80 430,80 430,80 430,79 430,79 431,79 432,79 432,79 432,79 432,79 432,79 432,79 432,79 433,79 433,79 433,79 433,79 433,79 434,79 434,79 434,79 434,79 434,79 434,79 434,79 435,79 435,79 434,79 434,79 435,79 434,79 434,79 434,79 434,79 434,79 434,80 434,80 434,80 434,80 434,80 434,80 434,80 434,80 434,80 434,79 434,79 434,79 435,79 435,79 435,79 435,79 435,79 435,79 435,79 435,79 436,80 436,80 436,80 436,80 436,80 436,80 436,80 436,81 436,81 436,82 436,82 436,82 436,82 436,83 435,83 435,83 434,84 434,84 434,85 433,85 433,85 433,86 432,87 432,87 432,89 431,90 431,90 431,90 431,90 431,91 431,91 431,91 431,91 431,92 431,93 430,93 430,93 430,93 430,93 431,93 431,94 431,94 431,94 431,95 431,95 431,96 431,96 431,96 431,96 431,96 431,96 431,96 431,96 431,96 431,97 430,98 430,98 430,98 430,99 430,100 429,100 429,101 429,102 429,102 428,103 428,103 428,103 428,103 428,103 428,104 428,104 428,104 428,104 428,104 428,104 428,105 428,105 428,105 428,105 428,105 428,106 428,106 429,106 429,107 429,107 429,107 430,108 430,108 430,108 430,108 430,108 430,108 430,108 430,108 431,109 431,109 431,109 431,109 432,109 432,110 432,110 433,110 433,111 433,111 434,112 434,112 435,112 435,112 436,113 436,113 436,113 436,112 436,112 438,114 427,119 434,122 434,124 422,127 422,131 396,130 375,122 368,116 337,114 334,111 326,111 323,99 331,96 351,96 358,93 355,86" id="29044" class="commune" fill="steelblue" stroke-width="1" stroke="white" geotype="commune" geoname="Dinéault" code_insee="29044" code_canton="2909"/><polygon points="231,61 243,54 246,47 271,37 287,36 283,37 310,40 307,41 305,48 297,43 290,44 287,50 290,54 287,57 254,61 253,67 232,66 231,61" id="29104" class="commune" fill="steelblue" stroke-width="1" stroke="white" geotype="commune" geoname="Landévennec" code_insee="29104" code_canton="2909"/><polygon points="207,55 207,62 196,62 188,65 184,64 158,69 148,66 132,65 131,60 133,57 120,57 117,60 109,50 137,45 141,42 139,41 144,39 156,42 172,42 180,39 179,47 186,54 207,55" id="29120" class="commune" fill="steelblue" stroke-width="1" stroke="white" geotype="commune" geoname="Lanvéoc" code_insee="29120" code_canton="2909"/><polygon points="301,162 297,159 300,157 312,154 323,147 343,141 353,144 378,146 386,148 388,156 385,160 374,160 373,165 359,161 355,158 339,155 330,157 325,157 317,161 301,162" id="29166" class="commune" fill="steelblue" stroke-width="1" stroke="white" geotype="commune" geoname="Ploéven" code_insee="29166" code_canton="2909"/><polygon points="434,124 435,129 431,131 431,136 426,138 423,136 424,139 416,142 417,144 403,149 391,150 386,148 378,146 353,144 343,141 323,147 312,154 300,157 298,154 288,154 287,152 283,153 281,152 283,147 278,145 284,144 285,138 281,130 288,125 326,111 334,111 337,114 368,116 375,122 396,130 422,131 422,127 434,124" id="29172" class="commune" fill="steelblue" stroke-width="1" stroke="white" geotype="commune" geoname="Plomodiern" code_insee="29172" code_canton="2909"/><polygon points="301,162 317,161 325,157 330,157 339,155 355,158 359,161 357,172 363,171 367,175 363,176 362,179 354,183 354,186 351,187 355,188 355,191 359,191 357,195 351,195 351,193 339,195 332,193 334,204 331,205 327,206 319,202 312,194 304,192 290,194 294,185 289,179 295,177 297,172 304,175 301,162" id="29176" class="commune" fill="steelblue" stroke-width="1" stroke="white" geotype="commune" geoname="Plonévez-Porzay" code_insee="29176" code_canton="2909"/><polygon points="298,162 299,162 300,162 299,163 298,162" id="29176" class="commune" fill="steelblue" stroke-width="1" stroke="white" geotype="commune" geoname="Plonévez-Porzay" code_insee="29176" code_canton="2909"/><polygon points="448,107 446,108 444,106 450,99 460,99 461,96 470,104 471,107 467,109 464,108 465,105 462,103 448,107" id="29222" class="commune" fill="steelblue" stroke-width="1" stroke="white" geotype="commune" geoname="Port-Launay" code_insee="29222" code_canton="2909"/><polygon points="377,202 372,195 359,191 355,191 355,188 351,187 354,186 354,183 362,179 363,176 367,175 384,177 392,174 399,175 400,171 403,171 414,164 423,168 427,176 432,179 438,176 448,177 448,179 455,177 455,180 461,183 458,189 447,192 442,196 418,204 406,198 401,200 396,198 377,202" id="29229" class="commune" fill="steelblue" stroke-width="1" stroke="white" geotype="commune" geoname="Quéménéven" code_insee="29229" code_canton="2909"/><polygon points="67,39 65,40 66,39 60,38 55,41 55,38 50,35 53,31 49,29 50,27 47,27 50,24 42,18 47,16 46,14 52,13 52,10 59,8 66,3 85,0 74,14 75,18 72,27 68,31 61,30 65,31 67,39" id="29238" class="commune" fill="steelblue" stroke-width="1" stroke="white" geotype="commune" geoname="Roscanvel" code_insee="29238" code_canton="2909"/><polygon points="488,133 491,138 485,145 480,146 481,149 477,147 472,150 465,149 462,150 460,145 464,138 458,139 458,137 448,136 446,138 444,139 444,133 448,127 455,128 462,125 477,113 482,113 486,117 482,128 488,133" id="29243" class="commune" fill="steelblue" stroke-width="1" stroke="white" geotype="commune" geoname="Saint-Coulitz" code_insee="29243" code_canton="2909"/><polygon points="260,114 266,107 271,105 277,96 290,92 302,92 305,93 323,99 326,111 288,125 281,130 274,121 267,120 264,115 260,114" id="29256" class="commune" fill="steelblue" stroke-width="1" stroke="white" geotype="commune" geoname="Saint-Nic" code_insee="29256" code_canton="2909"/><polygon points="223,63 231,61 232,66 253,67 249,79 259,87 263,96 259,101 260,105 251,112 219,113 216,112 220,109 213,102 205,102 201,104 201,101 194,101 190,99 198,92 197,82 206,80 206,73 226,69 222,66 223,63" id="29280" class="commune" fill="steelblue" stroke-width="1" stroke="white" geotype="commune" geoname="Telgruc-sur-Mer" code_insee="29280" code_canton="2909"/><polygon points="325,77 324,77 324,77 325,76 325,76 325,76 325,76 326,76 326,76 326,76 326,76 327,76 327,75 328,75 328,75 328,75 329,75 329,76 330,76 330,76 331,76 331,76 332,76 333,76 333,76 333,76 333,76 333,76 333,76 334,76 334,76 335,76 335,76 335,75 336,75 336,75 337,75 337,75 337,75 338,74 338,74 338,74 339,74 339,73 339,73 340,73 340,72 340,72 340,72 341,72 341,71 341,71 341,71 341,71 342,70 342,70 342,70 343,69 344,69 344,69 345,69 346,69 346,69 346,69 346,70 346,70 346,70 346,70 347,71 347,71 346,71 346,71 346,72 346,72 347,72 347,72 347,72 347,72 347,73 348,73 348,73 348,73 348,73 348,73 349,74 349,74 349,74 349,74 348,75 348,75 348,76 348,76 348,76 348,76 348,76 349,77 349,77 349,77 349,77 349,77 348,77 348,77 348,77 348,77 348,77 348,78 348,78 349,78 349,78 349,78 350,78 350,78 350,78 350,78 350,78 350,78 350,78 350,78 350,78 350,78 350,79 350,79 350,79 350,79 350,79 350,80 350,80 350,81 350,81 350,81 350,81 349,81 349,81 349,82 349,82 348,82 348,82 348,82 348,82 348,82 349,82 349,82 349,82 349,82 350,82 350,82 351,82 351,82 351,82 351,82 352,82 352,82 352,82 353,83 353,83 353,83 353,83 354,83 354,83 354,84 354,84 354,84 354,84 354,84 354,85 354,85 354,85 354,85 355,85 355,85 355,85 355,85 355,85 355,86 355,86 355,86 355,86 355,86 355,86 355,86 358,93 351,96 331,96 323,99 305,93 312,88 320,86 325,77" id="29289" class="commune" fill="steelblue" stroke-width="1" stroke="white" geotype="commune" geoname="Trégarvan" code_insee="29289" code_canton="2909"/></svg>