<?xml version="1.0" encoding="utf-8"?>
<svg version="1.1" id="svgmap" xmlns="http://www.w3.org/2000/svg" xmlns:xlink="http://www.w3.org/1999/xlink" x="0px" y="0px" width="100%" height="100%" viewBox="0 0 500 257">
<polygon points="142,188 174,189 187,200 198,200 198,201 198,202 198,203 198,204 197,205 197,205 196,205 196,205 197,205 198,205 198,206 197,207 197,207 196,208 196,208 196,208 195,209 193,210 191,211 190,211 189,212 189,212 189,212 188,212 188,212 188,212 188,212 187,212 187,212 186,212 186,212 186,212 186,212 185,212 183,212 182,211 180,211 179,211 178,211 176,211 174,211 173,211 172,212 170,212 168,214 166,214 165,215 163,216 162,217 160,217 160,218 159,219 158,219 157,220 157,220 156,221 156,222 155,222 155,223 154,225 153,226 153,227 152,227 152,228 151,228 149,229 147,229 146,230 145,231 143,230 142,231 141,232 142,231 143,231 145,231 146,230 147,231 145,233 143,235 142,236 139,237 133,238 130,239 129,239 127,239 127,238 127,239 126,238 125,238 124,238 124,238 124,238 124,238 124,238 125,238 126,239 127,239 126,239 126,239 125,239 125,239 125,239 125,239 124,239 124,239 123,239 122,239 121,240 120,240 121,240 122,240 123,239 124,239 125,240 126,239 126,239 126,240 127,239 128,239 124,241 122,243 120,245 116,247 113,249 111,250 108,250 106,250 103,251 100,252 96,254 91,256 89,257 88,257 88,256 85,255 82,255 82,254 81,253 79,254 54,245 57,233 47,214 71,201 62,196 68,189 93,193 109,186 142,188" id="29056" class="commune" fill="steelblue" stroke-width="1" stroke="white" geotype="commune" geoname="Forest-Landerneau" code_insee="29056" code_canton="2913"/><polygon points="339,81 340,75 365,65 362,53 382,49 387,61 409,76 394,78 375,97 369,84 339,81" id="29116" class="commune" fill="steelblue" stroke-width="1" stroke="white" geotype="commune" geoname="Lanneuffret" code_insee="29116" code_canton="2913"/><polygon points="350,241 349,241 311,221 290,235 276,200 306,193 306,173 276,171 297,163 291,160 299,156 320,143 317,149 351,161 361,156 364,165 374,173 364,180 376,181 367,183 373,187 358,198 361,202 378,198 386,201 382,207 390,207 376,210 363,227 346,234 350,241" id="29156" class="commune" fill="steelblue" stroke-width="1" stroke="white" geotype="commune" geoname="Pencran" code_insee="29156" code_canton="2913"/><polygon points="340,75 339,81 326,93 329,107 345,122 342,135 327,134 320,143 299,156 288,160 265,154 247,133 215,137 203,145 183,130 188,125 173,111 185,109 177,99 180,81 154,54 160,46 188,47 232,79 244,79 255,68 280,70 280,65 288,68 303,58 312,60 331,64 340,75" id="29181" class="commune" fill="steelblue" stroke-width="1" stroke="white" geotype="commune" geoname="Plouédern" code_insee="29181" code_canton="2913"/><polygon points="465,91 481,87 496,97 500,97 493,102 486,97 453,123 443,118 439,134 449,149 427,149 417,147 421,155 395,161 388,175 376,171 377,163 364,165 361,156 351,161 317,149 320,143 327,134 342,135 345,122 329,107 326,93 339,81 369,84 375,97 385,105 389,100 392,106 407,104 412,110 405,113 425,109 436,96 465,91" id="29237" class="commune" fill="steelblue" stroke-width="1" stroke="white" geotype="commune" geoname="Roche-Maurice" code_insee="29237" code_canton="2913"/><polygon points="142,188 109,186 93,193 68,189 62,196 71,201 47,214 41,206 50,196 30,191 37,178 0,163 45,147 51,135 75,133 80,143 99,142 114,152 127,153 141,182 142,188" id="29245" class="commune" fill="steelblue" stroke-width="1" stroke="white" geotype="commune" geoname="Saint-Divy" code_insee="29245" code_canton="2913"/><polygon points="51,135 52,123 25,110 39,102 20,87 34,61 40,64 50,54 63,55 80,75 79,88 111,107 162,124 166,158 157,174 141,182 127,153 114,152 99,142 80,143 75,133 51,135" id="29268" class="commune" fill="steelblue" stroke-width="1" stroke="white" geotype="commune" geoname="Saint-Thonan" code_insee="29268" code_canton="2913"/><polygon points="188,47 186,40 202,17 223,24 239,13 249,15 241,0 248,7 272,1 279,31 302,35 315,54 312,60 303,58 288,68 280,65 280,70 255,68 244,79 232,79 188,47" id="29295" class="commune" fill="steelblue" stroke-width="1" stroke="white" geotype="commune" geoname="Trémaouézan" code_insee="29295" code_canton="2913"/></svg>