<?xml version="1.0" encoding="utf-8"?>
<svg version="1.1" id="svgmap" xmlns="http://www.w3.org/2000/svg" xmlns:xlink="http://www.w3.org/1999/xlink" x="0px" y="0px" width="100%" height="100%" viewBox="0 0 500 271">
<polygon points="220,184 211,180 207,174 193,168 196,159 184,153 186,150 179,145 206,148 204,142 210,142 206,138 205,124 200,124 193,115 191,87 192,85 195,87 202,84 224,83 231,77 239,81 260,79 275,83 277,79 283,84 281,92 288,102 295,104 295,136 307,139 289,153 277,152 267,163 268,168 250,175 239,177 228,174 229,180 220,184" id="29030" class="commune" fill="steelblue" stroke-width="1" stroke="white" geotype="commune" geoname="Cléder" code_insee="29030" code_canton="2926"/><polygon points="357,11 378,6 380,0 403,1 414,11 425,11 427,19 421,22 419,17 407,16 405,18 400,18 400,22 400,17 402,17 394,12 387,19 396,21 389,21 372,15 364,17 357,11" id="29082" class="commune" fill="steelblue" stroke-width="1" stroke="white" geotype="commune" geoname="Île-de-Batz" code_insee="29082" code_canton="2926"/><polygon points="452,24 454,23 453,25 452,24" id="29082" class="commune" fill="steelblue" stroke-width="1" stroke="white" geotype="commune" geoname="Île-de-Batz" code_insee="29082" code_canton="2926"/><polygon points="373,0 376,0 376,1 374,1 373,0" id="29082" class="commune" fill="steelblue" stroke-width="1" stroke="white" geotype="commune" geoname="Île-de-Batz" code_insee="29082" code_canton="2926"/><polygon points="81,241 80,235 87,230 79,227 77,220 92,222 101,227 115,223 138,227 153,215 158,225 180,218 187,229 178,240 185,249 181,254 170,253 169,264 163,271 120,263 83,257 77,254 76,246 87,244 87,241 81,241" id="29111" class="commune" fill="steelblue" stroke-width="1" stroke="white" geotype="commune" geoname="Lanhouarneau" code_insee="29111" code_canton="2926"/><polygon points="356,170 403,175 405,190 420,192 421,206 416,211 412,211 412,207 398,207 380,210 383,201 378,201 378,195 366,186 353,188 350,194 353,201 345,201 339,209 336,208 329,204 324,193 309,193 308,183 331,176 339,183 339,173 356,170" id="29148" class="commune" fill="steelblue" stroke-width="1" stroke="white" geotype="commune" geoname="Mespaul" code_insee="29148" code_canton="2926"/><polygon points="500,212 488,224 471,233 473,230 466,226 460,225 455,229 444,223 447,220 423,218 416,211 421,206 420,192 405,190 403,175 356,170 350,161 355,155 377,158 386,150 399,148 399,140 403,139 407,136 416,137 417,140 429,142 430,145 438,141 448,149 470,144 480,156 475,171 467,172 474,172 477,184 468,187 469,191 482,183 493,197 492,206 500,212 500,212" id="29184" class="commune" fill="steelblue" stroke-width="1" stroke="white" geotype="commune" geoname="Plouénan" code_insee="29184" code_canton="2926"/><polygon points="133,104 133,103 133,103 133,103 133,104" id="29185" class="commune" fill="steelblue" stroke-width="1" stroke="white" geotype="commune" geoname="Plouescat" code_insee="29185" code_canton="2926"/><polygon points="191,87 193,115 200,124 205,124 206,138 210,142 204,142 206,148 179,145 164,144 147,139 140,134 111,133 108,128 118,124 121,116 143,104 155,92 161,90 166,94 172,91 178,92 180,88 191,87" id="29185" class="commune" fill="steelblue" stroke-width="1" stroke="white" geotype="commune" geoname="Plouescat" code_insee="29185" code_canton="2926"/><polygon points="128,104 128,104 129,104 128,104 128,104" id="29185" class="commune" fill="steelblue" stroke-width="1" stroke="white" geotype="commune" geoname="Plouescat" code_insee="29185" code_canton="2926"/><polygon points="112,109 112,109 112,109 112,109 112,109" id="29185" class="commune" fill="steelblue" stroke-width="1" stroke="white" geotype="commune" geoname="Plouescat" code_insee="29185" code_canton="2926"/><polygon points="113,110 114,110 114,110 114,111 113,110" id="29185" class="commune" fill="steelblue" stroke-width="1" stroke="white" geotype="commune" geoname="Plouescat" code_insee="29185" code_canton="2926"/><polygon points="131,102 132,101 132,103 132,103 131,102" id="29185" class="commune" fill="steelblue" stroke-width="1" stroke="white" geotype="commune" geoname="Plouescat" code_insee="29185" code_canton="2926"/><polygon points="116,113 117,112 118,112 117,113 116,113" id="29185" class="commune" fill="steelblue" stroke-width="1" stroke="white" geotype="commune" geoname="Plouescat" code_insee="29185" code_canton="2926"/><polygon points="133,104 134,104 134,104 133,104" id="29185" class="commune" fill="steelblue" stroke-width="1" stroke="white" geotype="commune" geoname="Plouescat" code_insee="29185" code_canton="2926"/><polygon points="155,91 155,91 155,91 155,91 155,91" id="29185" class="commune" fill="steelblue" stroke-width="1" stroke="white" geotype="commune" geoname="Plouescat" code_insee="29185" code_canton="2926"/><polygon points="112,113 112,111 114,111 116,114 112,113" id="29185" class="commune" fill="steelblue" stroke-width="1" stroke="white" geotype="commune" geoname="Plouescat" code_insee="29185" code_canton="2926"/><polygon points="128,104 128,104 128,104 128,104 128,104" id="29185" class="commune" fill="steelblue" stroke-width="1" stroke="white" geotype="commune" geoname="Plouescat" code_insee="29185" code_canton="2926"/><polygon points="115,121 118,122 118,123 115,121" id="29185" class="commune" fill="steelblue" stroke-width="1" stroke="white" geotype="commune" geoname="Plouescat" code_insee="29185" code_canton="2926"/><polygon points="134,104 134,104 134,104 134,104 134,104" id="29185" class="commune" fill="steelblue" stroke-width="1" stroke="white" geotype="commune" geoname="Plouescat" code_insee="29185" code_canton="2926"/><polygon points="96,118 97,117 97,118 97,118 96,118" id="29185" class="commune" fill="steelblue" stroke-width="1" stroke="white" geotype="commune" geoname="Plouescat" code_insee="29185" code_canton="2926"/><polygon points="130,95 135,94 135,96 132,97 130,95" id="29185" class="commune" fill="steelblue" stroke-width="1" stroke="white" geotype="commune" geoname="Plouescat" code_insee="29185" code_canton="2926"/><polygon points="132,104 133,104 133,105 132,104 132,104" id="29185" class="commune" fill="steelblue" stroke-width="1" stroke="white" geotype="commune" geoname="Plouescat" code_insee="29185" code_canton="2926"/><polygon points="135,97 137,97 138,99 136,98 135,97" id="29185" class="commune" fill="steelblue" stroke-width="1" stroke="white" geotype="commune" geoname="Plouescat" code_insee="29185" code_canton="2926"/><polygon points="106,117 106,117 106,117 106,117 106,117" id="29185" class="commune" fill="steelblue" stroke-width="1" stroke="white" geotype="commune" geoname="Plouescat" code_insee="29185" code_canton="2926"/><polygon points="108,116 108,116 108,116 108,117 108,116" id="29185" class="commune" fill="steelblue" stroke-width="1" stroke="white" geotype="commune" geoname="Plouescat" code_insee="29185" code_canton="2926"/><polygon points="107,117 107,117 107,117 107,117 107,117" id="29185" class="commune" fill="steelblue" stroke-width="1" stroke="white" geotype="commune" geoname="Plouescat" code_insee="29185" code_canton="2926"/><polygon points="103,113 103,113 104,113 104,113 103,113" id="29185" class="commune" fill="steelblue" stroke-width="1" stroke="white" geotype="commune" geoname="Plouescat" code_insee="29185" code_canton="2926"/><polygon points="115,110 116,110 117,110 116,111 115,110" id="29185" class="commune" fill="steelblue" stroke-width="1" stroke="white" geotype="commune" geoname="Plouescat" code_insee="29185" code_canton="2926"/><polygon points="105,120 106,119 107,120 106,120 105,120" id="29185" class="commune" fill="steelblue" stroke-width="1" stroke="white" geotype="commune" geoname="Plouescat" code_insee="29185" code_canton="2926"/><polygon points="96,117 96,117 97,117 96,117 96,117" id="29185" class="commune" fill="steelblue" stroke-width="1" stroke="white" geotype="commune" geoname="Plouescat" code_insee="29185" code_canton="2926"/><polygon points="118,112 118,112 118,113 118,113 118,112" id="29185" class="commune" fill="steelblue" stroke-width="1" stroke="white" geotype="commune" geoname="Plouescat" code_insee="29185" code_canton="2926"/><polygon points="116,117 117,116 118,117 117,117 116,117" id="29185" class="commune" fill="steelblue" stroke-width="1" stroke="white" geotype="commune" geoname="Plouescat" code_insee="29185" code_canton="2926"/><polygon points="129,103 129,103 131,103 130,104 129,103" id="29185" class="commune" fill="steelblue" stroke-width="1" stroke="white" geotype="commune" geoname="Plouescat" code_insee="29185" code_canton="2926"/><polygon points="331,105 317,91 318,88 322,92 328,90 338,93 356,89 379,92 386,104 374,128 403,134 403,139 399,140 399,148 386,150 377,158 355,155 350,161 356,170 339,173 339,183 331,176 308,183 306,182 304,171 326,159 322,151 325,147 330,150 333,147 339,148 350,144 331,105" id="29192" class="commune" fill="steelblue" stroke-width="1" stroke="white" geotype="commune" geoname="Plougoulm" code_insee="29192" code_canton="2926"/><polygon points="91,124 92,124 93,125 91,125 91,124" id="29206" class="commune" fill="steelblue" stroke-width="1" stroke="white" geotype="commune" geoname="Plounévez-Lochrist" code_insee="29206" code_canton="2926"/><polygon points="70,122 71,123 71,123 70,122" id="29206" class="commune" fill="steelblue" stroke-width="1" stroke="white" geotype="commune" geoname="Plounévez-Lochrist" code_insee="29206" code_canton="2926"/><polygon points="89,121 90,121 90,123 89,122 89,121" id="29206" class="commune" fill="steelblue" stroke-width="1" stroke="white" geotype="commune" geoname="Plounévez-Lochrist" code_insee="29206" code_canton="2926"/><polygon points="69,121 70,121 70,121 70,121 69,121" id="29206" class="commune" fill="steelblue" stroke-width="1" stroke="white" geotype="commune" geoname="Plounévez-Lochrist" code_insee="29206" code_canton="2926"/><polygon points="69,120 70,120 70,120 70,121 69,120" id="29206" class="commune" fill="steelblue" stroke-width="1" stroke="white" geotype="commune" geoname="Plounévez-Lochrist" code_insee="29206" code_canton="2926"/><polygon points="80,129 80,128 81,128 81,128 80,129" id="29206" class="commune" fill="steelblue" stroke-width="1" stroke="white" geotype="commune" geoname="Plounévez-Lochrist" code_insee="29206" code_canton="2926"/><polygon points="179,145 186,150 184,153 196,159 193,168 207,174 211,180 204,203 195,205 196,211 180,218 158,225 153,215 138,227 115,223 101,227 92,222 77,220 71,208 73,206 87,207 88,197 91,193 98,194 102,181 97,175 89,174 86,161 79,156 83,151 78,142 108,133 92,141 94,143 110,144 147,139 164,144 179,145" id="29206" class="commune" fill="steelblue" stroke-width="1" stroke="white" geotype="commune" geoname="Plounévez-Lochrist" code_insee="29206" code_canton="2926"/><polygon points="73,124 73,124 73,124 73,124 73,124" id="29206" class="commune" fill="steelblue" stroke-width="1" stroke="white" geotype="commune" geoname="Plounévez-Lochrist" code_insee="29206" code_canton="2926"/><polygon points="81,132 81,131 82,131 82,132 81,132" id="29206" class="commune" fill="steelblue" stroke-width="1" stroke="white" geotype="commune" geoname="Plounévez-Lochrist" code_insee="29206" code_canton="2926"/><polygon points="72,126 73,125 74,125 73,126 72,126" id="29206" class="commune" fill="steelblue" stroke-width="1" stroke="white" geotype="commune" geoname="Plounévez-Lochrist" code_insee="29206" code_canton="2926"/><polygon points="69,123 69,123 69,123 69,123 69,123" id="29206" class="commune" fill="steelblue" stroke-width="1" stroke="white" geotype="commune" geoname="Plounévez-Lochrist" code_insee="29206" code_canton="2926"/><polygon points="84,130 85,130 85,131 84,131 84,130" id="29206" class="commune" fill="steelblue" stroke-width="1" stroke="white" geotype="commune" geoname="Plounévez-Lochrist" code_insee="29206" code_canton="2926"/><polygon points="429,30 430,30 429,31 429,30 429,30" id="29239" class="commune" fill="steelblue" stroke-width="1" stroke="white" geotype="commune" geoname="Roscoff" code_insee="29239" code_canton="2926"/><polygon points="396,52 397,50 403,37 411,36 401,45 411,57 423,50 422,41 426,35 434,37 437,36 443,37 436,38 441,42 447,41 446,36 449,39 451,37 453,36 453,40 461,43 465,45 459,43 456,48 459,49 450,55 453,58 448,59 448,68 428,68 416,80 403,78 400,61 405,60 402,53 396,52" id="29239" class="commune" fill="steelblue" stroke-width="1" stroke="white" geotype="commune" geoname="Roscoff" code_insee="29239" code_canton="2926"/><polygon points="406,47 406,47 407,47 407,47 406,47" id="29239" class="commune" fill="steelblue" stroke-width="1" stroke="white" geotype="commune" geoname="Roscoff" code_insee="29239" code_canton="2926"/><polygon points="430,31 430,31 430,31 430,31 430,31" id="29239" class="commune" fill="steelblue" stroke-width="1" stroke="white" geotype="commune" geoname="Roscoff" code_insee="29239" code_canton="2926"/><polygon points="486,107 486,107 487,107 486,107 486,107" id="29259" class="commune" fill="steelblue" stroke-width="1" stroke="white" geotype="commune" geoname="Saint-Pol-de-Léon" code_insee="29259" code_canton="2926"/><polygon points="490,116 491,116 490,117 490,117 490,116" id="29259" class="commune" fill="steelblue" stroke-width="1" stroke="white" geotype="commune" geoname="Saint-Pol-de-Léon" code_insee="29259" code_canton="2926"/><polygon points="379,92 392,78 403,78 416,80 428,68 448,68 445,76 460,82 459,87 470,89 464,92 468,95 468,98 464,92 465,90 455,86 450,108 455,109 460,105 470,110 475,106 480,110 473,115 478,125 470,144 448,149 438,141 430,145 429,142 417,140 416,137 407,136 403,139 403,134 374,128 386,104 379,92" id="29259" class="commune" fill="steelblue" stroke-width="1" stroke="white" geotype="commune" geoname="Saint-Pol-de-Léon" code_insee="29259" code_canton="2926"/><polygon points="397,50 394,48 403,37 397,50" id="29273" class="commune" fill="steelblue" stroke-width="1" stroke="white" geotype="commune" geoname="Santec" code_insee="29273" code_canton="2926"/><polygon points="313,66 315,64 324,64 330,66 330,69 313,66" id="29273" class="commune" fill="steelblue" stroke-width="1" stroke="white" geotype="commune" geoname="Santec" code_insee="29273" code_canton="2926"/><polygon points="356,89 334,91 335,72 340,69 340,64 353,70 361,65 364,54 378,58 396,52 402,53 405,60 400,61 403,78 392,78 379,92 356,89" id="29273" class="commune" fill="steelblue" stroke-width="1" stroke="white" geotype="commune" geoname="Santec" code_insee="29273" code_canton="2926"/><polygon points="398,35 400,35 400,36 400,36 398,35" id="29273" class="commune" fill="steelblue" stroke-width="1" stroke="white" geotype="commune" geoname="Santec" code_insee="29273" code_canton="2926"/><polygon points="358,55 359,55 359,55 358,55 358,55" id="29273" class="commune" fill="steelblue" stroke-width="1" stroke="white" geotype="commune" geoname="Santec" code_insee="29273" code_canton="2926"/><polygon points="322,151 299,156 289,153 307,139 295,136 295,104 288,102 281,92 286,84 297,85 297,82 301,82 312,88 305,88 304,90 314,92 314,95 321,97 319,101 331,105 350,144 339,148 333,147 330,150 325,147 322,151" id="29276" class="commune" fill="steelblue" stroke-width="1" stroke="white" geotype="commune" geoname="Sibiril" code_insee="29276" code_canton="2926"/><polygon points="289,153 299,156 322,151 326,159 304,171 306,182 286,186 281,180 271,182 266,183 263,177 255,182 249,175 244,177 241,184 248,202 235,200 230,190 225,191 227,188 220,184 229,180 228,174 239,177 250,175 268,168 267,163 277,152 289,153" id="29285" class="commune" fill="steelblue" stroke-width="1" stroke="white" geotype="commune" geoname="Tréflaouénan" code_insee="29285" code_canton="2926"/><polygon points="20,144 21,144 22,144 21,144 20,144" id="29287" class="commune" fill="steelblue" stroke-width="1" stroke="white" geotype="commune" geoname="Tréflez" code_insee="29287" code_canton="2926"/><polygon points="52,135 52,134 53,134 53,135 52,135" id="29287" class="commune" fill="steelblue" stroke-width="1" stroke="white" geotype="commune" geoname="Tréflez" code_insee="29287" code_canton="2926"/><polygon points="63,128 64,128 65,128 64,129 63,128" id="29287" class="commune" fill="steelblue" stroke-width="1" stroke="white" geotype="commune" geoname="Tréflez" code_insee="29287" code_canton="2926"/><polygon points="68,130 69,130 70,130 69,131 68,130" id="29287" class="commune" fill="steelblue" stroke-width="1" stroke="white" geotype="commune" geoname="Tréflez" code_insee="29287" code_canton="2926"/><polygon points="23,143 23,143 24,143 24,144 23,143" id="29287" class="commune" fill="steelblue" stroke-width="1" stroke="white" geotype="commune" geoname="Tréflez" code_insee="29287" code_canton="2926"/><polygon points="53,135 54,134 54,134 54,135 53,135" id="29287" class="commune" fill="steelblue" stroke-width="1" stroke="white" geotype="commune" geoname="Tréflez" code_insee="29287" code_canton="2926"/><polygon points="48,136 48,135 49,135 49,136 48,136" id="29287" class="commune" fill="steelblue" stroke-width="1" stroke="white" geotype="commune" geoname="Tréflez" code_insee="29287" code_canton="2926"/><polygon points="58,123 59,123 59,124 58,124 58,123" id="29287" class="commune" fill="steelblue" stroke-width="1" stroke="white" geotype="commune" geoname="Tréflez" code_insee="29287" code_canton="2926"/><polygon points="44,134 46,134 47,134 47,135 44,134" id="29287" class="commune" fill="steelblue" stroke-width="1" stroke="white" geotype="commune" geoname="Tréflez" code_insee="29287" code_canton="2926"/><polygon points="30,141 30,141 31,141 31,141 30,141" id="29287" class="commune" fill="steelblue" stroke-width="1" stroke="white" geotype="commune" geoname="Tréflez" code_insee="29287" code_canton="2926"/><polygon points="51,136 51,135 51,135 52,136 51,136" id="29287" class="commune" fill="steelblue" stroke-width="1" stroke="white" geotype="commune" geoname="Tréflez" code_insee="29287" code_canton="2926"/><polygon points="55,133 56,133 56,133 55,133 55,133" id="29287" class="commune" fill="steelblue" stroke-width="1" stroke="white" geotype="commune" geoname="Tréflez" code_insee="29287" code_canton="2926"/><polygon points="40,137 41,135 41,135 41,135 40,137" id="29287" class="commune" fill="steelblue" stroke-width="1" stroke="white" geotype="commune" geoname="Tréflez" code_insee="29287" code_canton="2926"/><polygon points="71,208 53,209 38,196 43,182 40,179 44,169 41,166 22,165 12,160 2,157 0,153 28,151 36,141 78,142 83,151 79,156 86,161 89,174 97,175 102,181 98,194 91,193 88,197 87,207 73,206 71,208" id="29287" class="commune" fill="steelblue" stroke-width="1" stroke="white" geotype="commune" geoname="Tréflez" code_insee="29287" code_canton="2926"/><polygon points="31,137 32,137 32,138 32,138 31,137" id="29287" class="commune" fill="steelblue" stroke-width="1" stroke="white" geotype="commune" geoname="Tréflez" code_insee="29287" code_canton="2926"/><polygon points="50,135 51,135 51,136 50,135 50,135" id="29287" class="commune" fill="steelblue" stroke-width="1" stroke="white" geotype="commune" geoname="Tréflez" code_insee="29287" code_canton="2926"/><polygon points="32,137 34,137 34,137 33,138 32,137" id="29287" class="commune" fill="steelblue" stroke-width="1" stroke="white" geotype="commune" geoname="Tréflez" code_insee="29287" code_canton="2926"/><polygon points="19,144 19,144 20,144 19,145 19,144" id="29287" class="commune" fill="steelblue" stroke-width="1" stroke="white" geotype="commune" geoname="Tréflez" code_insee="29287" code_canton="2926"/><polygon points="28,138 28,138 29,138 28,139 28,138" id="29287" class="commune" fill="steelblue" stroke-width="1" stroke="white" geotype="commune" geoname="Tréflez" code_insee="29287" code_canton="2926"/><polygon points="41,139 42,138 42,138 41,139 41,139" id="29287" class="commune" fill="steelblue" stroke-width="1" stroke="white" geotype="commune" geoname="Tréflez" code_insee="29287" code_canton="2926"/><polygon points="48,138 50,137 52,140 49,140 48,138" id="29287" class="commune" fill="steelblue" stroke-width="1" stroke="white" geotype="commune" geoname="Tréflez" code_insee="29287" code_canton="2926"/><polygon points="55,134 55,134 55,135 55,135 55,134" id="29287" class="commune" fill="steelblue" stroke-width="1" stroke="white" geotype="commune" geoname="Tréflez" code_insee="29287" code_canton="2926"/><polygon points="50,134 50,133 52,134 51,135 50,134" id="29287" class="commune" fill="steelblue" stroke-width="1" stroke="white" geotype="commune" geoname="Tréflez" code_insee="29287" code_canton="2926"/><polygon points="43,141 44,140 45,140 44,141 43,141" id="29287" class="commune" fill="steelblue" stroke-width="1" stroke="white" geotype="commune" geoname="Tréflez" code_insee="29287" code_canton="2926"/><polygon points="61,119 61,117 65,117 64,120 61,119" id="29287" class="commune" fill="steelblue" stroke-width="1" stroke="white" geotype="commune" geoname="Tréflez" code_insee="29287" code_canton="2926"/><polygon points="31,141 32,140 32,141 31,141 31,141" id="29287" class="commune" fill="steelblue" stroke-width="1" stroke="white" geotype="commune" geoname="Tréflez" code_insee="29287" code_canton="2926"/></svg>