<?xml version="1.0" encoding="utf-8"?>
<svg version="1.1" id="svgmap" xmlns="http://www.w3.org/2000/svg" xmlns:xlink="http://www.w3.org/1999/xlink" x="0px" y="0px" width="100%" height="100%" viewBox="0 0 500 181">
<polygon points="331,48 334,65 324,77 307,64 294,64 290,74 267,75 251,66 241,65 234,74 229,68 209,66 199,76 191,74 195,91 176,84 176,94 170,95 162,94 156,81 133,40 113,32 99,35 92,24 93,8 130,18 208,0 252,1 261,9 297,8 316,30 318,46 331,48" id="2A006" class="commune" fill="steelblue" stroke-width="1" stroke="white" geotype="commune" geoname="Alata" code_insee="2A006" code_canton="02A05"/><polygon points="360,172 363,160 381,158 408,143 387,143 385,139 397,126 384,123 392,106 387,103 400,89 390,85 401,68 413,64 426,72 481,73 500,80 485,95 464,100 466,114 484,135 468,146 441,154 433,164 420,159 396,168 393,173 384,170 365,181 360,172" id="2A032" class="commune" fill="steelblue" stroke-width="1" stroke="white" geotype="commune" geoname="Bastelicaccia" code_insee="2A032" code_canton="02A05"/><polygon points="18,45 19,44 20,44 20,44 18,45" id="2A351" class="commune" fill="steelblue" stroke-width="1" stroke="white" geotype="commune" geoname="Villanova" code_insee="2A351" code_canton="02A05"/><polygon points="156,81 113,95 93,93 84,76 55,71 48,62 15,62 0,56 0,46 20,52 50,50 92,24 99,35 113,32 133,40 156,81" id="2A351" class="commune" fill="steelblue" stroke-width="1" stroke="white" geotype="commune" geoname="Villanova" code_insee="2A351" code_canton="02A05"/></svg>