<?xml version="1.0" encoding="utf-8"?>
<svg version="1.1" id="svgmap" xmlns="http://www.w3.org/2000/svg" xmlns:xlink="http://www.w3.org/1999/xlink" x="0px" y="0px" width="100%" height="100%" viewBox="0 0 500 194">
<polygon points="486,164 436,143 413,150 406,167 385,166 380,182 354,184 292,165 228,164 199,156 177,169 177,178 141,194 69,192 61,157 92,116 92,72 52,10 0,1 62,0 166,30 241,19 342,29 380,48 437,51 478,90 498,82 489,142 500,158 486,164" id="2B353" class="commune" fill="steelblue" stroke-width="1" stroke="white" geotype="commune" geoname="Ville-di-Pietrabugno" code_insee="2B353" code_canton="02B01"/></svg>