<?xml version="1.0" encoding="utf-8"?>
<svg version="1.1" id="svgmap" xmlns="http://www.w3.org/2000/svg" xmlns:xlink="http://www.w3.org/1999/xlink" x="0px" y="0px" width="100%" height="100%" viewBox="0 0 500 422">
<polygon points="487,1 499,3 500,23 485,42 458,53 437,63 419,82 375,94 343,110 337,86 341,69 342,63 355,62 362,53 352,31 408,7 435,0 487,1" id="30012" class="commune" fill="steelblue" stroke-width="1" stroke="white" geotype="commune" geoname="Aramon" code_insee="30012" code_canton="3006"/><polygon points="320,298 316,297 313,315 292,355 247,355 156,345 158,337 176,324 190,287 151,267 147,246 169,226 161,211 185,209 238,216 249,202 257,172 265,169 264,160 308,161 331,163 345,170 366,212 361,250 320,298" id="30032" class="commune" fill="steelblue" stroke-width="1" stroke="white" geotype="commune" geoname="Beaucaire" code_insee="30032" code_canton="3006"/><polygon points="0,318 20,311 24,287 37,281 45,269 50,264 70,256 108,254 147,246 151,267 190,287 176,324 158,337 156,345 144,350 109,350 89,355 83,347 75,350 64,336 44,363 38,382 9,359 0,318" id="30034" class="commune" fill="steelblue" stroke-width="1" stroke="white" geotype="commune" geoname="Bellegarde" code_insee="30034" code_canton="3006"/><polygon points="308,161 264,160 265,155 247,161 241,155 221,154 212,144 189,139 189,136 218,138 248,124 283,124 283,121 296,127 298,141 290,146 306,153 308,161" id="30089" class="commune" fill="steelblue" stroke-width="1" stroke="white" geotype="commune" geoname="Comps" code_insee="30089" code_canton="3006"/><polygon points="76,399 38,382 44,363 64,336 75,350 83,347 89,355 109,350 144,350 156,345 247,355 292,355 298,385 312,400 319,422 300,416 277,421 265,419 239,402 199,397 166,384 143,393 95,394 76,399" id="30117" class="commune" fill="steelblue" stroke-width="1" stroke="white" geotype="commune" geoname="Fourques" code_insee="30117" code_canton="3006"/><polygon points="264,160 265,169 257,172 249,202 238,216 185,209 161,211 137,178 147,171 150,157 161,152 161,130 186,136 189,136 189,139 212,144 221,154 241,155 247,161 265,155 264,160" id="30135" class="commune" fill="steelblue" stroke-width="1" stroke="white" geotype="commune" geoname="Jonquières-Saint-Vincent" code_insee="30135" code_canton="3006"/><polygon points="343,110 354,124 342,138 349,140 374,134 386,144 381,151 357,158 345,170 331,163 308,161 306,153 290,146 298,141 296,127 283,121 297,113 312,85 313,77 341,69 337,86 343,110" id="30336" class="commune" fill="steelblue" stroke-width="1" stroke="white" geotype="commune" geoname="Vallabrègues" code_insee="30336" code_canton="3006"/></svg>