<?xml version="1.0" encoding="utf-8"?>
<svg version="1.1" id="svgmap" xmlns="http://www.w3.org/2000/svg" xmlns:xlink="http://www.w3.org/1999/xlink" x="0px" y="0px" width="100%" height="100%" viewBox="0 0 500 427">
<polygon points="173,190 173,188 174,185 178,185 186,188 194,187 199,195 199,207 176,195 173,190" id="31009" class="commune" fill="steelblue" stroke-width="1" stroke="white" geotype="commune" geoname="Antichan-de-Frontignes" code_insee="31009" code_canton="3102"/><polygon points="99,301 123,299 128,319 106,318 100,306 99,301" id="31010" class="commune" fill="steelblue" stroke-width="1" stroke="white" geotype="commune" geoname="Antignac" code_insee="31010" code_canton="3102"/><polygon points="363,174 368,170 372,171 376,163 382,164 393,166 397,171 389,175 389,180 386,184 383,184 375,188 353,180 363,174" id="31011" class="commune" fill="steelblue" stroke-width="1" stroke="white" geotype="commune" geoname="Arbas" code_insee="31011" code_canton="3102"/><polygon points="248,176 217,172 216,166 225,162 224,160 227,162 243,164 249,170 248,176" id="31012" class="commune" fill="steelblue" stroke-width="1" stroke="white" geotype="commune" geoname="Arbon" code_insee="31012" code_canton="3102"/><polygon points="146,102 161,108 164,107 169,111 170,123 177,124 171,129 164,122 164,120 160,120 150,110 140,105 146,102" id="31013" class="commune" fill="steelblue" stroke-width="1" stroke="white" geotype="commune" geoname="Ardiège" code_insee="31013" code_canton="3102"/><polygon points="227,184 242,190 235,211 249,213 255,217 250,224 218,212 220,210 206,209 219,189 227,184" id="31014" class="commune" fill="steelblue" stroke-width="1" stroke="white" geotype="commune" geoname="Arguenos" code_insee="31014" code_canton="3102"/><polygon points="220,265 212,261 213,256 206,251 213,249 221,251 228,263 232,263 228,266 224,267 220,265" id="31015" class="commune" fill="steelblue" stroke-width="1" stroke="white" geotype="commune" geoname="Argut-Dessous" code_insee="31015" code_canton="3102"/><polygon points="206,251 213,256 212,261 220,265 214,269 214,284 200,289 189,289 183,288 183,286 187,278 191,278 194,271 199,268 199,255 206,251" id="31017" class="commune" fill="steelblue" stroke-width="1" stroke="white" geotype="commune" geoname="Arlos" code_insee="31017" code_canton="3102"/><polygon points="357,39 360,40 361,37 375,38 391,46 393,48 387,51 390,53 391,58 376,55 370,58 352,53 355,52 357,39" id="31018" class="commune" fill="steelblue" stroke-width="1" stroke="white" geotype="commune" geoname="Arnaud-Guilhem" code_insee="31018" code_canton="3102"/><polygon points="173,306 175,312 181,315 177,323 163,324 153,320 145,323 139,317 142,315 134,313 133,306 137,302 144,302 152,306 173,306" id="31019" class="commune" fill="steelblue" stroke-width="1" stroke="white" geotype="commune" geoname="Artigue" code_insee="31019" code_canton="3102"/><polygon points="255,144 255,144 259,142 289,139 289,146 301,145 316,155 332,156 337,159 330,179 308,178 291,173 284,173 281,171 267,173 267,165 255,144" id="31020" class="commune" fill="steelblue" stroke-width="1" stroke="white" geotype="commune" geoname="Aspet" code_insee="31020" code_canton="3102"/><polygon points="458,47 467,37 472,38 474,36 473,29 484,34 493,35 499,40 496,45 500,47 500,48 498,50 488,50 485,46 473,49 458,47" id="31030" class="commune" fill="steelblue" stroke-width="1" stroke="white" geotype="commune" geoname="Ausseing" code_insee="31030" code_canton="3102"/><polygon points="378,10 386,12 385,15 385,19 380,29 372,30 361,37 360,40 357,39 352,39 350,35 355,26 353,24 355,16 370,24 370,22 362,18 373,11 378,10" id="31034" class="commune" fill="steelblue" stroke-width="1" stroke="white" geotype="commune" geoname="Auzas" code_insee="31034" code_canton="3102"/><polygon points="146,253 141,258 139,256 130,255 111,256 112,251 117,245 122,250 129,250 135,253 145,251 146,253" id="31040" class="commune" fill="steelblue" stroke-width="1" stroke="white" geotype="commune" geoname="Bachos" code_insee="31040" code_canton="3102"/><polygon points="144,177 146,176 149,186 153,189 153,195 140,192 135,184 137,182 133,179 144,177" id="31041" class="commune" fill="steelblue" stroke-width="1" stroke="white" geotype="commune" geoname="Bagiry" code_insee="31041" code_canton="3102"/><polygon points="156,372 163,375 174,375 177,383 189,395 189,402 194,407 185,418 188,425 180,427 138,421 121,414 120,397 125,383 131,381 118,374 115,370 115,366 106,360 106,353 99,346 103,339 106,340 116,337 113,329 116,327 126,329 127,334 123,344 123,350 127,359 140,368 156,372" id="31042" class="commune" fill="steelblue" stroke-width="1" stroke="white" geotype="commune" geoname="Bagnères-de-Luchon" code_insee="31042" code_canton="3102"/><polygon points="153,131 156,147 155,154 148,154 152,151 147,149 137,151 130,141 129,127 145,132 153,131" id="31045" class="commune" fill="steelblue" stroke-width="1" stroke="white" geotype="commune" geoname="Barbazan" code_insee="31045" code_canton="3102"/><polygon points="135,275 150,277 165,276 172,281 171,282 145,283 137,281 134,278 135,275" id="31046" class="commune" fill="steelblue" stroke-width="1" stroke="white" geotype="commune" geoname="Baren" code_insee="31046" code_canton="3102"/><polygon points="329,72 337,63 358,65 363,85 348,84 341,86 341,78 329,72" id="31050" class="commune" fill="steelblue" stroke-width="1" stroke="white" geotype="commune" geoname="Beauchalot" code_insee="31050" code_canton="3102"/><polygon points="498,50 499,54 495,53 494,57 499,59 497,71 487,68 483,72 476,69 474,71 471,70 472,67 467,63 467,57 459,55 460,52 457,51 458,47 473,49 485,46 488,50 498,50" id="31059" class="commune" fill="steelblue" stroke-width="1" stroke="white" geotype="commune" geoname="Belbèze-en-Comminges" code_insee="31059" code_canton="3102"/><polygon points="68,307 76,316 88,319 91,329 76,325 67,319 61,307 61,304 68,307" id="31064" class="commune" fill="steelblue" stroke-width="1" stroke="white" geotype="commune" geoname="Benque-Dessous-et-Dessus" code_insee="31064" code_canton="3102"/><polygon points="250,224 225,219 216,223 210,233 204,227 199,228 177,226 179,222 194,218 203,212 206,209 220,210 218,212 250,224" id="31067" class="commune" fill="steelblue" stroke-width="1" stroke="white" geotype="commune" geoname="Bezins-Garraux" code_insee="31067" code_canton="3102"/><polygon points="61,307 67,319 76,325 72,328 68,328 59,330 61,307" id="31068" class="commune" fill="steelblue" stroke-width="1" stroke="white" geotype="commune" geoname="Billière" code_insee="31068" code_canton="3102"/><polygon points="48,276 47,282 51,288 44,292 30,297 23,298 15,297 8,292 18,286 18,277 22,270 32,271 35,273 38,272 42,274 44,278 48,276" id="31081" class="commune" fill="steelblue" stroke-width="1" stroke="white" geotype="commune" geoname="Bourg-d'Oueil" code_insee="31081" code_canton="3102"/><polygon points="302,211 305,210 319,217 317,225 322,228 324,233 317,235 312,240 317,245 317,248 320,252 306,250 300,254 297,251 293,253 280,252 271,255 260,264 248,265 228,266 232,263 228,263 221,251 224,251 225,247 219,243 213,243 209,234 210,233 216,223 225,219 250,224 249,229 281,225 294,228 295,220 298,219 302,211" id="31085" class="commune" fill="steelblue" stroke-width="1" stroke="white" geotype="commune" geoname="Boutx" code_insee="31085" code_canton="3102"/><polygon points="141,258 146,253 150,252 154,257 167,264 165,276 150,277 141,258" id="31092" class="commune" fill="steelblue" stroke-width="1" stroke="white" geotype="commune" geoname="Burgalays" code_insee="31092" code_canton="3102"/><polygon points="228,132 236,132 244,134 247,138 251,138 255,144 255,144 242,148 231,147 228,133 228,132" id="31095" class="commune" fill="steelblue" stroke-width="1" stroke="white" geotype="commune" geoname="Cabanac-Cazaux" code_insee="31095" code_canton="3102"/><polygon points="463,75 458,74 456,73 452,74 451,72 440,80 428,79 427,75 426,71 432,67 438,53 457,51 460,52 459,55 467,57 467,63 472,67 471,70 471,72 463,75" id="31110" class="commune" fill="steelblue" stroke-width="1" stroke="white" geotype="commune" geoname="Cassagne" code_insee="31110" code_canton="3102"/><polygon points="421,129 424,123 444,117 443,127 447,127 446,130 450,129 451,136 450,136 442,132 421,129" id="31112" class="commune" fill="steelblue" stroke-width="1" stroke="white" geotype="commune" geoname="Castagnède" code_insee="31112" code_canton="3102"/><polygon points="387,129 406,130 410,138 407,144 398,145 395,154 389,155 385,149 387,145 381,139 387,129" id="31114" class="commune" fill="steelblue" stroke-width="1" stroke="white" geotype="commune" geoname="Castelbiague" code_insee="31114" code_canton="3102"/><polygon points="68,328 72,328 76,325 78,327 75,331 88,335 91,340 88,342 90,344 87,345 84,351 89,360 97,365 100,370 103,391 111,408 118,414 112,423 64,416 79,394 85,390 87,384 96,379 83,375 66,377 64,374 71,370 76,357 75,348 66,332 68,328" id="31123" class="commune" fill="steelblue" stroke-width="1" stroke="white" geotype="commune" geoname="Castillon-de-Larboust" code_insee="31123" code_canton="3102"/><polygon points="391,58 393,61 391,64 380,58 360,59 358,65 337,63 329,60 315,59 297,52 287,51 283,49 285,47 281,44 282,43 283,41 293,45 304,46 317,51 327,49 344,55 352,53 370,58 376,55 391,58" id="31124" class="commune" fill="steelblue" stroke-width="1" stroke="white" geotype="commune" geoname="Castillon-de-Saint-Martory" code_insee="31124" code_canton="3102"/><polygon points="45,305 49,308 55,308 56,319 51,326 47,328 40,328 43,324 39,303 45,305" id="31125" class="commune" fill="steelblue" stroke-width="1" stroke="white" geotype="commune" geoname="Cathervielle" code_insee="31125" code_canton="3102"/><polygon points="55,308 49,308 45,305 60,290 63,283 60,282 62,279 70,284 71,288 61,304 61,307 55,308" id="31127" class="commune" fill="steelblue" stroke-width="1" stroke="white" geotype="commune" geoname="Caubous" code_insee="31127" code_canton="3102"/><polygon points="103,339 99,338 99,334 104,328 106,324 116,327 113,329 116,337 106,340 103,339" id="31129" class="commune" fill="steelblue" stroke-width="1" stroke="white" geotype="commune" geoname="Cazarilh-Laspènes" code_insee="31129" code_canton="3102"/><polygon points="207,180 201,177 217,172 248,176 238,180 242,190 227,184 218,179 207,180" id="31131" class="commune" fill="steelblue" stroke-width="1" stroke="white" geotype="commune" geoname="Cazaunous" code_insee="31131" code_canton="3102"/><polygon points="103,276 104,271 124,271 134,278 137,281 133,283 120,277 103,276" id="31132" class="commune" fill="steelblue" stroke-width="1" stroke="white" geotype="commune" geoname="Cazaux-Layrisse" code_insee="31132" code_canton="3102"/><polygon points="57,332 59,330 68,328 66,332 75,348 76,357 71,370 64,374 66,377 83,375 96,379 87,384 85,390 79,394 64,416 53,411 51,405 54,399 53,389 63,377 51,360 57,354 54,340 57,339 57,332" id="31133" class="commune" fill="steelblue" stroke-width="1" stroke="white" geotype="commune" geoname="Cazeaux-de-Larboust" code_insee="31133" code_canton="3102"/><polygon points="203,212 194,218 179,222 177,226 179,228 179,231 167,230 165,223 161,214 178,210 203,212" id="31139" class="commune" fill="steelblue" stroke-width="1" stroke="white" geotype="commune" geoname="Chaum" code_insee="31139" code_canton="3102"/><polygon points="337,159 339,154 348,149 362,152 370,157 377,156 376,163 372,171 368,170 363,174 344,178 332,184 332,179 330,179 337,159" id="31140" class="commune" fill="steelblue" stroke-width="1" stroke="white" geotype="commune" geoname="Chein-Dessus" code_insee="31140" code_canton="3102"/><polygon points="123,299 99,301 94,286 91,284 103,276 120,277 133,283 133,297 123,299" id="31142" class="commune" fill="steelblue" stroke-width="1" stroke="white" geotype="commune" geoname="Cier-de-Luchon" code_insee="31142" code_canton="3102"/><polygon points="128,126 125,119 132,117 130,111 133,108 140,105 150,110 160,120 164,120 164,122 171,129 164,131 153,131 145,132 129,127 128,126" id="31143" class="commune" fill="steelblue" stroke-width="1" stroke="white" geotype="commune" geoname="Cier-de-Rivière" code_insee="31143" code_canton="3102"/><polygon points="121,236 124,229 129,223 136,222 147,225 163,225 165,223 167,230 163,238 166,242 167,255 177,262 173,268 172,281 165,276 167,264 154,257 150,252 155,243 147,243 143,238 121,236" id="31144" class="commune" fill="steelblue" stroke-width="1" stroke="white" geotype="commune" geoname="Cierp-Gaud" code_insee="31144" code_canton="3102"/><polygon points="62,279 60,282 63,283 60,290 45,305 39,303 30,297 44,292 51,288 47,282 48,276 62,279" id="31146" class="commune" fill="steelblue" stroke-width="1" stroke="white" geotype="commune" geoname="Cirès" code_insee="31146" code_canton="3102"/><polygon points="321,130 302,132 298,137 291,137 289,133 295,133 292,130 292,121 299,120 302,123 307,121 317,123 321,130" id="31155" class="commune" fill="steelblue" stroke-width="1" stroke="white" geotype="commune" geoname="Couret" code_insee="31155" code_canton="3102"/><polygon points="228,121 236,110 239,110 240,112 247,112 251,115 254,114 257,122 263,127 256,131 259,142 255,144 251,138 247,138 244,134 236,132 228,132 230,130 234,130 235,124 228,121" id="31167" class="commune" fill="steelblue" stroke-width="1" stroke="white" geotype="commune" geoname="Encausse-les-Thermes" code_insee="31167" code_canton="3102"/><polygon points="348,149 339,154 337,159 332,156 316,155 301,145 289,146 289,139 291,137 298,137 302,132 321,130 325,132 337,124 345,124 354,129 356,134 355,136 348,136 353,143 348,149" id="31174" class="commune" fill="steelblue" stroke-width="1" stroke="white" geotype="commune" geoname="Estadens" code_insee="31174" code_canton="3102"/><polygon points="158,208 161,214 165,223 163,225 147,225 136,222 139,219 146,218 153,209 158,208" id="31176" class="commune" fill="steelblue" stroke-width="1" stroke="white" geotype="commune" geoname="Esténos" code_insee="31176" code_canton="3102"/><polygon points="177,226 199,228 204,227 210,233 191,235 186,230 179,228 177,226" id="31177" class="commune" fill="steelblue" stroke-width="1" stroke="white" geotype="commune" geoname="Eup" code_insee="31177" code_canton="3102"/><polygon points="366,113 363,113 358,109 360,101 357,99 361,94 358,89 363,85 378,83 387,86 391,92 400,97 398,106 393,109 394,113 388,112 387,109 377,106 371,108 372,111 366,113" id="31183" class="commune" fill="steelblue" stroke-width="1" stroke="white" geotype="commune" geoname="Figarol" code_insee="31183" code_canton="3102"/><polygon points="228,266 248,265 250,271 245,280 274,288 281,296 290,301 276,305 263,303 257,299 236,294 234,289 214,284 214,269 220,265 224,267 228,266" id="31190" class="commune" fill="steelblue" stroke-width="1" stroke="white" geotype="commune" geoname="Fos" code_insee="31190" code_canton="3102"/><polygon points="426,193 417,197 405,198 396,197 383,184 386,184 389,180 389,175 397,171 393,166 382,164 391,162 395,167 399,167 400,173 410,177 426,193" id="31191" class="commune" fill="steelblue" stroke-width="1" stroke="white" geotype="commune" geoname="Fougaron" code_insee="31191" code_canton="3102"/><polygon points="447,150 454,149 464,155 463,157 467,158 466,161 474,161 470,163 463,162 458,165 452,177 440,174 446,160 447,150" id="31195" class="commune" fill="steelblue" stroke-width="1" stroke="white" geotype="commune" geoname="Francazal" code_insee="31195" code_canton="3102"/><polygon points="386,12 386,10 402,0 406,2 411,12 407,16 411,23 406,23 401,18 385,15 386,12" id="31198" class="commune" fill="steelblue" stroke-width="1" stroke="white" geotype="commune" geoname="Fréchet" code_insee="31198" code_canton="3102"/><polygon points="159,199 164,199 174,204 199,207 203,212 178,210 161,214 158,208 162,202 159,199" id="31199" class="commune" fill="steelblue" stroke-width="1" stroke="white" geotype="commune" geoname="Fronsac" code_insee="31199" code_canton="3102"/><polygon points="173,190 176,195 199,207 174,204 164,199 173,190" id="31200" class="commune" fill="steelblue" stroke-width="1" stroke="white" geotype="commune" geoname="Frontignan-de-Comminges" code_insee="31200" code_canton="3102"/><polygon points="153,189 149,186 146,176 144,177 147,171 144,167 156,163 160,167 154,166 158,183 153,189" id="31207" class="commune" fill="steelblue" stroke-width="1" stroke="white" geotype="commune" geoname="Galié" code_insee="31207" code_canton="3102"/><polygon points="337,124 325,132 321,130 317,123 307,121 302,123 299,120 292,121 286,116 289,112 304,110 304,106 314,105 322,108 326,106 333,108 341,106 343,109 349,109 354,114 350,114 339,119 337,124" id="31208" class="commune" fill="steelblue" stroke-width="1" stroke="white" geotype="commune" geoname="Ganties" code_insee="31208" code_canton="3102"/><polygon points="55,308 61,307 59,330 57,332 43,335 22,338 11,343 9,333 17,334 33,327 40,328 47,328 51,326 56,319 55,308" id="31213" class="commune" fill="steelblue" stroke-width="1" stroke="white" geotype="commune" geoname="Garin" code_insee="31213" code_canton="3102"/><polygon points="177,177 171,175 169,169 184,161 192,166 190,169 193,175 177,177" id="31217" class="commune" fill="steelblue" stroke-width="1" stroke="white" geotype="commune" geoname="Génos" code_insee="31217" code_canton="3102"/><polygon points="43,335 38,340 39,352 37,355 30,359 26,366 11,370 3,359 9,344 11,343 22,338 43,335" id="31221" class="commune" fill="steelblue" stroke-width="1" stroke="white" geotype="commune" geoname="Gouaux-de-Larboust" code_insee="31221" code_canton="3102"/><polygon points="137,281 145,283 171,282 173,284 183,286 183,288 189,289 189,296 174,302 173,306 152,306 144,302 137,302 132,303 133,297 133,283 137,281" id="31222" class="commune" fill="steelblue" stroke-width="1" stroke="white" geotype="commune" geoname="Gouaux-de-Luchon" code_insee="31222" code_canton="3102"/><polygon points="107,103 115,104 114,114 120,118 116,120 113,117 113,120 103,121 94,119 91,116 89,117 85,114 89,114 92,109 94,107 100,101 107,103" id="31224" class="commune" fill="steelblue" stroke-width="1" stroke="white" geotype="commune" geoname="Gourdan-Polignan" code_insee="31224" code_canton="3102"/><polygon points="150,277 135,275 137,269 135,266 105,266 111,256 130,255 139,256 141,258 150,277" id="31235" class="commune" fill="steelblue" stroke-width="1" stroke="white" geotype="commune" geoname="Guran" code_insee="31235" code_canton="3102"/><polygon points="383,203 352,204 347,203 335,206 335,200 341,193 334,188 332,184 344,178 363,174 353,180 375,188 383,184 396,197 383,203" id="31236" class="commune" fill="steelblue" stroke-width="1" stroke="white" geotype="commune" geoname="Herran" code_insee="31236" code_canton="3102"/><polygon points="444,117 424,123 421,129 414,125 416,117 422,104 433,105 438,109 443,113 444,117" id="31237" class="commune" fill="steelblue" stroke-width="1" stroke="white" geotype="commune" geoname="His" code_insee="31237" code_canton="3102"/><polygon points="115,104 127,101 133,108 130,111 132,117 125,119 128,126 127,125 117,122 122,120 120,118 114,114 115,104" id="31238" class="commune" fill="steelblue" stroke-width="1" stroke="white" geotype="commune" geoname="Huos" code_insee="31238" code_canton="3102"/><polygon points="231,147 242,148 255,144 267,165 267,173 262,174 249,170 243,164 227,162 224,160 226,151 231,147" id="31241" class="commune" fill="steelblue" stroke-width="1" stroke="white" geotype="commune" geoname="Izaut-de-l'Hôtel" code_insee="31241" code_canton="3102"/><polygon points="11,302 15,297 23,298 27,303 26,309 35,322 33,322 18,322 7,315 11,302" id="31242" class="commune" fill="steelblue" stroke-width="1" stroke="white" geotype="commune" geoname="Jurvielle" code_insee="31242" code_canton="3102"/><polygon points="127,334 126,329 128,319 130,319 134,326 137,327 157,323 160,332 173,337 167,345 136,335 127,334" id="31244" class="commune" fill="steelblue" stroke-width="1" stroke="white" geotype="commune" geoname="Juzet-de-Luchon" code_insee="31244" code_canton="3102"/><polygon points="248,176 249,170 262,174 265,181 272,182 274,187 269,202 261,214 255,217 249,213 235,211 242,190 238,180 248,176" id="31245" class="commune" fill="steelblue" stroke-width="1" stroke="white" geotype="commune" geoname="Juzet-d'Izaut" code_insee="31245" code_canton="3102"/><polygon points="128,126 129,127 130,141 118,140 108,141 101,138 96,138 95,135 103,136 112,127 127,125 128,126" id="31255" class="commune" fill="steelblue" stroke-width="1" stroke="white" geotype="commune" geoname="Labroquère" code_insee="31255" code_canton="3102"/><polygon points="391,46 375,38 361,37 372,30 380,29 385,19 396,20 397,26 389,30 394,31 396,33 394,33 387,38 388,41 393,43 391,46" id="31260" class="commune" fill="steelblue" stroke-width="1" stroke="white" geotype="commune" geoname="Laffite-Toupière" code_insee="31260" code_canton="3102"/><polygon points="135,275 134,278 124,271 104,271 105,266 135,266 137,269 135,275" id="31290" class="commune" fill="steelblue" stroke-width="1" stroke="white" geotype="commune" geoname="Lège" code_insee="31290" code_canton="3102"/><polygon points="363,85 358,65 360,59 380,58 391,64 393,61 394,62 393,71 378,83 363,85" id="31296" class="commune" fill="steelblue" stroke-width="1" stroke="white" geotype="commune" geoname="Lestelle-de-Saint-Martory" code_insee="31296" code_canton="3102"/><polygon points="221,251 213,249 206,251 199,243 206,240 209,234 213,243 219,243 225,247 224,251 221,251" id="31298" class="commune" fill="steelblue" stroke-width="1" stroke="white" geotype="commune" geoname="Lez" code_insee="31298" code_canton="3102"/><polygon points="163,184 169,181 171,175 177,177 178,185 174,185 173,188 163,184" id="31306" class="commune" fill="steelblue" stroke-width="1" stroke="white" geotype="commune" geoname="Lourde" code_insee="31306" code_canton="3102"/><polygon points="137,152 137,151 147,149 152,151 148,154 155,154 156,163 144,167 136,161 137,152" id="31308" class="commune" fill="steelblue" stroke-width="1" stroke="white" geotype="commune" geoname="Luscan" code_insee="31308" code_canton="3102"/><polygon points="218,151 226,151 224,160 225,162 216,166 217,172 201,177 193,175 190,169 192,166 184,161 193,159 192,157 218,151" id="31313" class="commune" fill="steelblue" stroke-width="1" stroke="white" geotype="commune" geoname="Malvezie" code_insee="31313" code_canton="3102"/><polygon points="385,19 385,15 401,18 406,23 411,23 421,26 425,25 420,31 425,33 422,35 424,36 417,44 415,45 407,43 394,33 396,33 394,31 389,30 397,26 396,20 385,19" id="31314" class="commune" fill="steelblue" stroke-width="1" stroke="white" geotype="commune" geoname="Mancioux" code_insee="31314" code_canton="3102"/><polygon points="407,89 407,87 417,92 423,92 424,96 418,99 422,104 416,117 412,114 409,116 409,113 407,111 393,109 398,106 400,97 404,97 402,94 404,92 407,92 407,89" id="31315" class="commune" fill="steelblue" stroke-width="1" stroke="white" geotype="commune" geoname="Mane" code_insee="31315" code_canton="3102"/><polygon points="171,282 172,281 173,268 177,262 167,255 166,242 163,238 167,230 179,231 182,238 191,245 191,278 187,278 183,286 173,284 171,282" id="31316" class="commune" fill="steelblue" stroke-width="1" stroke="white" geotype="commune" geoname="Marignac" code_insee="31316" code_canton="3102"/><polygon points="449,87 446,87 440,80 451,72 452,74 456,73 458,74 459,83 454,85 455,87 449,87" id="31321" class="commune" fill="steelblue" stroke-width="1" stroke="white" geotype="commune" geoname="Marsoulas" code_insee="31321" code_canton="3102"/><polygon points="146,102 156,94 166,90 170,102 169,111 164,107 161,108 146,102" id="31323" class="commune" fill="steelblue" stroke-width="1" stroke="white" geotype="commune" geoname="Martres-de-Rivière" code_insee="31323" code_canton="3102"/><polygon points="68,307 61,304 71,288 70,284 72,282 82,281 86,285 81,298 83,306 73,305 68,307" id="31335" class="commune" fill="steelblue" stroke-width="1" stroke="white" geotype="commune" geoname="Mayrègne" code_insee="31335" code_canton="3102"/><polygon points="421,74 407,65 418,57 421,49 425,50 433,40 438,48 438,53 432,67 426,71 427,75 421,74" id="31336" class="commune" fill="steelblue" stroke-width="1" stroke="white" geotype="commune" geoname="Mazères-sur-Salat" code_insee="31336" code_canton="3102"/><polygon points="339,303 338,314 315,311 302,304 290,301 281,296 274,288 245,280 250,271 248,265 260,264 271,255 280,252 293,253 297,251 300,254 306,250 320,252 324,255 326,261 319,276 323,280 329,281 337,302 339,303" id="31337" class="commune" fill="steelblue" stroke-width="1" stroke="white" geotype="commune" geoname="Melles" code_insee="31337" code_canton="3102"/><polygon points="335,206 322,203 323,201 310,193 292,190 281,191 287,180 287,177 283,176 284,173 291,173 308,178 330,179 332,179 332,184 334,188 341,193 335,200 335,206" id="31342" class="commune" fill="steelblue" stroke-width="1" stroke="white" geotype="commune" geoname="Milhas" code_insee="31342" code_canton="3102"/><polygon points="206,209 203,212 199,207 199,195 194,187 207,180 218,179 227,184 219,189 206,209" id="31348" class="commune" fill="steelblue" stroke-width="1" stroke="white" geotype="commune" geoname="Moncaup" code_insee="31348" code_canton="3102"/><polygon points="382,164 376,163 377,156 370,157 362,152 348,149 353,143 348,136 355,136 356,134 361,134 375,128 379,118 374,120 366,113 372,111 371,108 377,106 387,109 388,112 383,125 384,126 389,126 387,129 381,139 387,145 385,149 389,155 395,154 391,162 382,164" id="31357" class="commune" fill="steelblue" stroke-width="1" stroke="white" geotype="commune" geoname="Montastruc-de-Salies" code_insee="31357" code_canton="3102"/><polygon points="123,344 127,334 136,335 167,345 161,349 151,351 134,349 123,344" id="31360" class="commune" fill="steelblue" stroke-width="1" stroke="white" geotype="commune" geoname="Montauban-de-Luchon" code_insee="31360" code_canton="3102"/><polygon points="171,175 169,181 163,184 158,183 154,166 160,167 169,169 171,175" id="31369" class="commune" fill="steelblue" stroke-width="1" stroke="white" geotype="commune" geoname="Mont-de-Galié" code_insee="31369" code_canton="3102"/><polygon points="341,86 348,84 363,85 358,89 361,94 357,99 360,101 358,109 363,113 354,114 349,109 343,109 341,106 333,108 326,106 322,108 314,105 314,92 318,89 322,91 330,86 341,86" id="31372" class="commune" fill="steelblue" stroke-width="1" stroke="white" geotype="commune" geoname="Montespan" code_insee="31372" code_canton="3102"/><polygon points="406,130 387,129 389,126 384,126 383,125 388,112 394,113 393,109 407,111 409,113 409,116 412,114 416,117 414,125 410,127 407,126 406,130" id="31376" class="commune" fill="steelblue" stroke-width="1" stroke="white" geotype="commune" geoname="Montgaillard-de-Salies" code_insee="31376" code_canton="3102"/><polygon points="407,65 421,74 405,81 407,89 407,92 404,92 402,94 404,97 400,97 391,92 387,86 378,83 393,71 394,62 401,61 407,65" id="31391" class="commune" fill="steelblue" stroke-width="1" stroke="white" geotype="commune" geoname="Montsaunès" code_insee="31391" code_canton="3102"/><polygon points="106,318 128,319 126,329 116,327 106,324 106,318" id="31394" class="commune" fill="steelblue" stroke-width="1" stroke="white" geotype="commune" geoname="Moustajon" code_insee="31394" code_canton="3102"/><polygon points="11,370 26,366 30,359 37,355 39,352 38,340 43,335 57,332 57,339 54,340 57,354 51,360 63,377 53,389 54,399 51,405 53,411 64,416 59,419 57,425 51,425 35,423 27,419 19,418 26,413 23,408 17,405 17,401 10,400 0,392 2,388 8,387 10,383 8,376 11,370" id="31404" class="commune" fill="steelblue" stroke-width="1" stroke="white" geotype="commune" geoname="Oô" code_insee="31404" code_canton="3102"/><polygon points="173,188 173,190 164,199 159,199 154,196 153,195 153,189 158,183 163,184 173,188" id="31405" class="commune" fill="steelblue" stroke-width="1" stroke="white" geotype="commune" geoname="Ore" code_insee="31405" code_canton="3102"/><polygon points="211,129 222,133 228,133 231,147 226,151 218,151 213,143 208,130 211,129" id="31408" class="commune" fill="steelblue" stroke-width="1" stroke="white" geotype="commune" geoname="Payssous" code_insee="31408" code_canton="3102"/><polygon points="166,90 156,94 146,102 140,105 133,108 127,101 127,97 124,94 125,88 133,91 136,95 141,94 145,92 148,86 151,83 158,83 168,80 166,90" id="31426" class="commune" fill="steelblue" stroke-width="1" stroke="white" geotype="commune" geoname="Pointis-de-Rivière" code_insee="31426" code_canton="3102"/><polygon points="322,203 335,206 347,203 352,204 355,217 361,223 352,231 345,228 337,233 327,230 324,233 322,228 317,225 319,217 305,210 322,203" id="31431" class="commune" fill="steelblue" stroke-width="1" stroke="white" geotype="commune" geoname="Portet-d'Aspet" code_insee="31431" code_canton="3102"/><polygon points="7,315 18,322 33,322 31,327 33,327 17,334 9,333 9,331 5,326 7,315" id="31432" class="commune" fill="steelblue" stroke-width="1" stroke="white" geotype="commune" geoname="Portet-de-Luchon" code_insee="31432" code_canton="3102"/><polygon points="39,303 43,324 40,328 33,327 31,327 33,322 35,322 26,309 27,303 23,298 30,297 39,303" id="31434" class="commune" fill="steelblue" stroke-width="1" stroke="white" geotype="commune" geoname="Poubeau" code_insee="31434" code_canton="3102"/><polygon points="336,26 344,29 353,24 355,26 350,35 352,39 357,39 355,52 352,53 341,46 338,41 338,35 333,34 336,26" id="31440" class="commune" fill="steelblue" stroke-width="1" stroke="white" geotype="commune" geoname="Proupiary" code_insee="31440" code_canton="3102"/><polygon points="305,210 302,211 302,209 293,206 288,202 281,191 292,190 310,193 323,201 322,203 305,210" id="31447" class="commune" fill="steelblue" stroke-width="1" stroke="white" geotype="commune" geoname="Razecueillé" code_insee="31447" code_canton="3102"/><polygon points="467,37 458,47 457,51 438,53 438,48 433,40 425,50 421,49 417,44 424,36 430,33 436,21 449,18 460,23 464,29 463,36 467,37" id="31457" class="commune" fill="steelblue" stroke-width="1" stroke="white" geotype="commune" geoname="Roquefort-sur-Garonne" code_insee="31457" code_canton="3102"/><polygon points="363,113 366,113 374,120 379,118 375,128 361,134 356,134 354,129 345,124 337,124 339,119 350,114 354,114 363,113" id="31461" class="commune" fill="steelblue" stroke-width="1" stroke="white" geotype="commune" geoname="Rouède" code_insee="31461" code_canton="3102"/><polygon points="100,306 106,318 106,324 104,328 91,329 88,319 100,306" id="31465" class="commune" fill="steelblue" stroke-width="1" stroke="white" geotype="commune" geoname="Saccourvielle" code_insee="31465" code_canton="3102"/><polygon points="121,414 118,414 111,408 103,391 100,370 97,365 89,360 84,351 87,345 90,344 88,342 91,340 88,335 75,331 78,327 76,325 91,329 92,333 99,338 103,339 99,346 106,353 106,360 115,366 115,370 118,374 131,381 125,383 120,397 121,414" id="31470" class="commune" fill="steelblue" stroke-width="1" stroke="white" geotype="commune" geoname="Saint-Aventin" code_insee="31470" code_canton="3102"/><polygon points="206,251 199,255 199,268 194,271 191,278 191,245 182,238 179,231 179,228 186,230 191,235 210,233 209,234 206,240 199,243 206,251" id="31471" class="commune" fill="steelblue" stroke-width="1" stroke="white" geotype="commune" geoname="Saint-Béat" code_insee="31471" code_canton="3102"/><polygon points="96,138 101,138 99,141 107,143 108,148 112,150 110,153 102,151 96,152 92,156 86,158 79,166 76,168 67,166 67,163 63,164 63,162 70,154 72,140 70,138 80,132 93,139 96,138" id="31472" class="commune" fill="steelblue" stroke-width="1" stroke="white" geotype="commune" geoname="Saint-Bertrand-de-Comminges" code_insee="31472" code_canton="3102"/><polygon points="156,372 140,368 127,359 123,350 123,344 134,349 151,351 161,349 168,354 179,356 170,361 162,371 156,372" id="31500" class="commune" fill="steelblue" stroke-width="1" stroke="white" geotype="commune" geoname="Saint-Mamet" code_insee="31500" code_canton="3102"/><polygon points="393,61 391,58 390,53 387,51 393,48 391,46 393,43 388,41 387,38 394,33 407,43 415,45 417,44 421,49 418,57 407,65 401,61 394,62 393,61" id="31503" class="commune" fill="steelblue" stroke-width="1" stroke="white" geotype="commune" geoname="Saint-Martory" code_insee="31503" code_canton="3102"/><polygon points="337,63 329,72 318,69 303,67 302,61 290,57 297,52 315,59 329,60 337,63" id="31504" class="commune" fill="steelblue" stroke-width="1" stroke="white" geotype="commune" geoname="Saint-Médard" code_insee="31504" code_canton="3102"/><polygon points="99,301 100,306 88,319 76,316 68,307 73,305 83,306 81,298 86,285 91,284 94,286 99,301" id="31508" class="commune" fill="steelblue" stroke-width="1" stroke="white" geotype="commune" geoname="Saint-Paul-d'Oueil" code_insee="31508" code_canton="3102"/><polygon points="201,177 207,180 194,187 186,188 178,185 177,177 193,175 201,177" id="31509" class="commune" fill="steelblue" stroke-width="1" stroke="white" geotype="commune" geoname="Saint-Pé-d'Ardet" code_insee="31509" code_canton="3102"/><polygon points="407,144 410,138 406,130 407,126 410,127 414,125 421,129 442,132 444,149 447,150 446,160 440,174 431,169 431,165 426,160 428,154 407,144" id="31521" class="commune" fill="steelblue" stroke-width="1" stroke="white" geotype="commune" geoname="Saleich" code_insee="31521" code_canton="3102"/><polygon points="424,96 423,92 417,92 407,87 407,89 405,81 421,74 427,75 428,79 440,80 446,87 444,89 439,88 436,93 432,94 432,96 424,96" id="31523" class="commune" fill="steelblue" stroke-width="1" stroke="white" geotype="commune" geoname="Salies-du-Salat" code_insee="31523" code_canton="3102"/><polygon points="133,297 132,303 137,302 133,306 134,313 130,319 128,319 123,299 133,297" id="31524" class="commune" fill="steelblue" stroke-width="1" stroke="white" geotype="commune" geoname="Salles-et-Pratviel" code_insee="31524" code_canton="3102"/><polygon points="171,129 177,124 190,114 204,116 211,115 212,118 211,129 208,130 213,143 218,151 192,157 193,159 184,161 169,169 160,167 156,163 155,154 156,147 153,131 164,131 171,129" id="31535" class="commune" fill="steelblue" stroke-width="1" stroke="white" geotype="commune" geoname="Sauveterre-de-Comminges" code_insee="31535" code_canton="3102"/><polygon points="89,117 91,116 94,119 103,121 113,120 113,117 116,120 120,118 122,120 117,122 127,125 112,127 103,136 95,135 91,130 92,120 89,117" id="31542" class="commune" fill="steelblue" stroke-width="1" stroke="white" geotype="commune" geoname="Seilhan" code_insee="31542" code_canton="3102"/><polygon points="250,224 255,217 261,214 269,202 274,187 272,182 265,181 262,174 267,173 281,171 284,173 283,176 287,177 287,180 281,191 288,202 293,206 302,209 302,211 298,219 295,220 294,228 281,225 249,229 250,224" id="31544" class="commune" fill="steelblue" stroke-width="1" stroke="white" geotype="commune" geoname="Sengouagnet" code_insee="31544" code_canton="3102"/><polygon points="331,26 333,24 336,26 333,34 338,35 338,41 341,46 352,53 344,55 327,49 317,51 304,46 293,45 297,34 303,34 303,27 316,24 328,33 331,26" id="31545" class="commune" fill="steelblue" stroke-width="1" stroke="white" geotype="commune" geoname="Sepx" code_insee="31545" code_canton="3102"/><polygon points="121,243 121,236 143,238 147,243 155,243 150,252 146,253 145,251 131,244 121,243" id="31548" class="commune" fill="steelblue" stroke-width="1" stroke="white" geotype="commune" geoname="Signac" code_insee="31548" code_canton="3102"/><polygon points="177,323 181,332 173,337 160,332 157,323 137,327 134,326 130,319 134,313 142,315 139,317 145,323 153,320 163,324 177,323" id="31549" class="commune" fill="steelblue" stroke-width="1" stroke="white" geotype="commune" geoname="Sode" code_insee="31549" code_canton="3102"/><polygon points="289,139 259,142 256,131 263,127 257,122 265,119 263,115 266,112 271,112 276,110 289,112 286,116 292,121 292,130 295,133 289,133 291,137 289,139" id="31550" class="commune" fill="steelblue" stroke-width="1" stroke="white" geotype="commune" geoname="Soueich" code_insee="31550" code_canton="3102"/><polygon points="422,104 418,99 424,96 432,96 432,94 436,93 439,88 444,89 446,87 449,87 450,96 461,101 455,106 453,109 438,109 433,105 422,104" id="31554" class="commune" fill="steelblue" stroke-width="1" stroke="white" geotype="commune" geoname="Touille" code_insee="31554" code_canton="3102"/><polygon points="104,328 99,334 99,338 92,333 91,329 104,328" id="31559" class="commune" fill="steelblue" stroke-width="1" stroke="white" geotype="commune" geoname="Trébons-de-Luchon" code_insee="31559" code_canton="3102"/><polygon points="452,177 440,186 439,190 426,193 410,177 400,173 399,167 395,167 391,162 395,154 398,145 407,144 428,154 426,160 431,165 431,169 440,174 452,177" id="31562" class="commune" fill="steelblue" stroke-width="1" stroke="white" geotype="commune" geoname="Urau" code_insee="31562" code_canton="3102"/><polygon points="101,138 108,141 118,140 120,145 117,147 117,151 112,150 108,148 107,143 99,141 101,138" id="31564" class="commune" fill="steelblue" stroke-width="1" stroke="white" geotype="commune" geoname="Valcabrère" code_insee="31564" code_canton="3102"/><polygon points="117,244 121,243 131,244 145,251 135,253 129,250 122,250 117,245 117,244" id="31590" class="commune" fill="steelblue" stroke-width="1" stroke="white" geotype="commune" geoname="Binos" code_insee="31590" code_canton="3102"/><polygon points="487,86 483,87 476,85 476,83 471,82 471,79 466,78 463,75 471,72 471,70 474,71 476,69 483,72 487,68 497,71 487,86" id="31591" class="commune" fill="steelblue" stroke-width="1" stroke="white" geotype="commune" geoname="Escoulis" code_insee="31591" code_canton="3102"/></svg>