<?xml version="1.0" encoding="utf-8"?>
<svg version="1.1" id="svgmap" xmlns="http://www.w3.org/2000/svg" xmlns:xlink="http://www.w3.org/1999/xlink" x="0px" y="0px" width="100%" height="100%" viewBox="0 0 500 391">
<polygon points="313,203 297,207 280,189 228,183 228,177 215,176 215,167 186,159 191,138 191,124 218,119 253,118 287,128 300,121 305,129 342,137 349,153 367,156 367,167 357,183 307,189 313,203" id="32019" class="commune" fill="steelblue" stroke-width="1" stroke="white" geotype="commune" geoname="Auterive" code_insee="32019" code_canton="3206"/><polygon points="288,232 240,217 179,225 150,214 146,205 167,197 166,190 214,193 215,180 228,183 280,189 297,207 313,203 320,240 288,232" id="32060" class="commune" fill="steelblue" stroke-width="1" stroke="white" geotype="commune" geoname="Boucagnères" code_insee="32060" code_canton="3206"/><polygon points="164,239 158,254 143,258 201,280 190,299 152,309 123,308 98,332 73,323 37,329 10,321 0,258 11,242 52,218 51,211 154,229 164,239" id="32118" class="commune" fill="steelblue" stroke-width="1" stroke="white" geotype="commune" geoname="Durban" code_insee="32118" code_canton="3206"/><polygon points="367,262 314,257 320,240 313,203 307,189 357,183 367,167 396,178 389,183 432,217 414,223 449,253 434,278 367,262" id="32153" class="commune" fill="steelblue" stroke-width="1" stroke="white" geotype="commune" geoname="Haulies" code_insee="32153" code_canton="3206"/><polygon points="191,138 186,159 215,167 215,176 228,177 228,183 215,180 214,193 166,190 167,197 146,205 150,214 179,225 164,239 154,229 51,211 17,170 19,159 60,123 86,133 86,144 122,146 149,131 191,138" id="32201" class="commune" fill="steelblue" stroke-width="1" stroke="white" geotype="commune" geoname="Lasseube-Propre" code_insee="32201" code_canton="3206"/><polygon points="179,225 240,217 288,232 298,262 282,273 294,289 247,284 233,285 225,275 201,280 143,258 158,254 164,239 179,225" id="32300" class="commune" fill="steelblue" stroke-width="1" stroke="white" geotype="commune" geoname="Orbessan" code_insee="32300" code_canton="3206"/><polygon points="255,326 276,336 278,371 241,391 195,371 117,368 99,374 99,383 80,379 73,323 98,332 123,308 152,309 202,313 200,323 218,332 249,336 255,326" id="32302" class="commune" fill="steelblue" stroke-width="1" stroke="white" geotype="commune" geoname="Ornézan" code_insee="32302" code_canton="3206"/><polygon points="251,28 302,21 302,0 340,12 396,1 444,18 481,21 479,34 492,38 500,53 418,37 407,42 410,57 461,67 447,87 459,94 435,150 405,134 399,140 406,154 396,178 367,167 367,156 349,153 342,137 305,129 300,121 287,128 288,88 262,66 265,51 251,28" id="32312" class="commune" fill="steelblue" stroke-width="1" stroke="white" geotype="commune" geoname="Pessan" code_insee="32312" code_canton="3206"/><polygon points="152,309 190,299 201,280 225,275 233,285 247,284 258,290 249,304 262,320 255,326 249,336 218,332 200,323 202,313 152,309" id="32411" class="commune" fill="steelblue" stroke-width="1" stroke="white" geotype="commune" geoname="Sansan" code_insee="32411" code_canton="3206"/></svg>