<?xml version="1.0" encoding="utf-8"?>
<svg version="1.1" id="svgmap" xmlns="http://www.w3.org/2000/svg" xmlns:xlink="http://www.w3.org/1999/xlink" x="0px" y="0px" width="100%" height="100%" viewBox="0 0 498 500">
<polygon points="498,284 451,382 440,364 345,393 257,335 182,413 95,253 38,265 84,162 151,141 148,90 173,112 169,93 218,84 274,31 361,0 411,50 456,32 493,118 498,284" id="34084" class="commune" fill="steelblue" stroke-width="1" stroke="white" geotype="commune" geoname="Corneilhan" code_insee="34084" code_canton="3403"/><polygon points="0,315 38,265 95,253 182,413 189,474 131,500 96,463 40,463 0,315" id="34140" class="commune" fill="steelblue" stroke-width="1" stroke="white" geotype="commune" geoname="Lignan-sur-Orb" code_insee="34140" code_canton="3403"/></svg>