<?xml version="1.0" encoding="utf-8"?>
<svg version="1.1" id="svgmap" xmlns="http://www.w3.org/2000/svg" xmlns:xlink="http://www.w3.org/1999/xlink" x="0px" y="0px" width="100%" height="100%" viewBox="0 0 500 367">
<polygon points="346,281 356,299 385,307 385,311 364,315 363,326 348,348 349,363 336,367 320,357 286,354 281,343 260,341 255,332 246,331 282,317 313,318 312,299 330,291 333,278 346,281" id="35028" class="commune" fill="steelblue" stroke-width="1" stroke="white" geotype="commune" geoname="Boistrudan" code_insee="35028" code_canton="3505"/><polygon points="421,221 433,226 422,232 408,238 394,236 392,231 379,230 381,226 359,222 353,223 356,239 330,235 324,212 332,213 326,201 362,212 375,210 379,215 408,214 421,221" id="35053" class="commune" fill="steelblue" stroke-width="1" stroke="white" geotype="commune" geoname="Chancé" code_insee="35053" code_canton="3505"/><polygon points="245,32 255,34 265,21 269,26 291,16 310,17 299,2 308,0 345,15 372,34 379,46 377,63 370,63 375,76 372,85 355,98 327,99 325,109 338,119 317,122 315,130 297,129 265,114 261,117 256,111 255,104 245,104 250,93 245,85 263,78 253,37 244,38 245,32" id="35068" class="commune" fill="steelblue" stroke-width="1" stroke="white" geotype="commune" geoname="Châteaubourg" code_insee="35068" code_canton="3505"/><polygon points="163,222 153,236 128,237 124,242 124,229 114,226 117,222 91,216 109,203 116,187 107,187 108,170 137,169 138,177 144,172 167,171 158,198 175,198 155,214 163,222" id="35069" class="commune" fill="steelblue" stroke-width="1" stroke="white" geotype="commune" geoname="Châteaugiron" code_insee="35069" code_canton="3505"/><polygon points="362,212 326,201 321,197 315,202 301,194 301,181 286,183 298,201 296,206 306,211 299,219 290,221 283,215 259,214 258,218 244,214 247,205 266,208 261,188 275,185 252,172 248,154 231,149 219,143 227,122 218,110 239,107 256,111 261,117 265,114 297,129 315,130 317,122 338,119 340,124 360,125 365,137 387,139 395,159 396,169 381,168 370,184 368,199 358,199 362,212" id="35096" class="commune" fill="steelblue" stroke-width="1" stroke="white" geotype="commune" geoname="Domagné" code_insee="35096" code_canton="3505"/><polygon points="13,115 23,115 35,104 55,105 69,100 73,114 79,115 71,133 84,134 87,149 95,159 103,159 108,170 107,187 116,187 109,203 91,216 49,190 17,180 19,174 0,162 3,157 13,156 11,145 22,137 13,115" id="35099" class="commune" fill="steelblue" stroke-width="1" stroke="white" geotype="commune" geoname="Domloup" code_insee="35099" code_canton="3505"/><polygon points="494,195 480,206 467,202 460,211 462,219 447,213 429,213 421,221 408,214 379,215 375,210 362,212 358,199 368,199 370,184 381,168 396,169 395,159 430,151 431,160 440,160 447,169 461,161 483,159 494,195" id="35161" class="commune" fill="steelblue" stroke-width="1" stroke="white" geotype="commune" geoname="Louvigné-de-Bais" code_insee="35161" code_canton="3505"/><polygon points="44,64 52,63 68,47 91,44 104,64 111,66 101,81 140,94 161,95 171,115 196,103 202,109 218,110 227,122 219,143 231,149 226,156 214,158 184,154 183,158 170,160 167,171 144,172 138,177 137,169 108,170 103,159 95,159 87,149 84,134 71,133 79,115 73,114 69,100 55,105 35,104 35,89 43,89 39,84 45,82 44,64" id="35207" class="commune" fill="steelblue" stroke-width="1" stroke="white" geotype="commune" geoname="Noyal-sur-Vilaine" code_insee="35207" code_canton="3505"/><polygon points="175,198 158,198 167,171 170,160 183,158 184,154 214,158 226,156 231,149 248,154 252,172 275,185 261,188 228,195 175,198" id="35209" class="commune" fill="steelblue" stroke-width="1" stroke="white" geotype="commune" geoname="Ossé" code_insee="35209" code_canton="3505"/><polygon points="242,330 230,322 228,302 216,306 207,309 193,303 203,298 200,283 206,282 183,243 181,227 208,223 207,212 212,217 244,214 258,218 259,214 283,215 290,221 299,219 306,211 296,206 298,201 286,183 301,181 301,194 315,202 321,197 326,201 332,213 324,212 330,235 322,241 327,252 358,272 346,281 333,278 330,291 312,299 313,318 282,317 246,331 242,330" id="35220" class="commune" fill="steelblue" stroke-width="1" stroke="white" geotype="commune" geoname="Piré-sur-Seiche" code_insee="35220" code_canton="3505"/><polygon points="181,227 163,222 155,214 175,198 228,195 261,188 266,208 247,205 244,214 212,217 207,212 208,223 181,227" id="35254" class="commune" fill="steelblue" stroke-width="1" stroke="white" geotype="commune" geoname="Saint-Aubin-du-Pavail" code_insee="35254" code_canton="3505"/><polygon points="445,86 438,91 454,106 448,118 437,121 424,141 417,141 430,151 395,159 387,139 365,137 360,125 340,124 338,119 325,109 327,99 355,98 372,85 375,76 392,78 422,94 445,86" id="35264" class="commune" fill="steelblue" stroke-width="1" stroke="white" geotype="commune" geoname="Saint-Didier" code_insee="35264" code_canton="3505"/><polygon points="447,85 445,86 422,94 392,78 375,76 370,63 377,63 379,46 372,34 379,34 383,28 384,37 393,34 394,43 432,47 439,43 450,44 473,50 500,65 500,74 490,75 471,69 458,74 454,85 447,85" id="35283" class="commune" fill="steelblue" stroke-width="1" stroke="white" geotype="commune" geoname="Saint-Jean-sur-Vilaine" code_insee="35283" code_canton="3505"/><polygon points="163,57 170,42 164,42 160,26 195,8 204,33 197,42 214,39 234,27 236,36 245,32 244,38 253,37 263,78 245,85 250,93 245,104 255,104 256,111 239,107 218,110 202,109 196,103 193,75 183,70 172,76 172,63 162,61 163,57" id="35327" class="commune" fill="steelblue" stroke-width="1" stroke="white" geotype="commune" geoname="Servon-sur-Vilaine" code_insee="35327" code_canton="3505"/></svg>