<?xml version="1.0" encoding="utf-8"?>
<svg version="1.1" id="svgmap" xmlns="http://www.w3.org/2000/svg" xmlns:xlink="http://www.w3.org/1999/xlink" x="0px" y="0px" width="100%" height="100%" viewBox="0 0 500 397">
<polygon points="499,220 493,220 491,226 482,221 460,228 415,227 391,222 386,210 401,198 384,181 395,168 413,150 429,150 462,144 481,149 473,159 479,167 476,175 500,189 495,207 499,220" id="36003" class="commune" fill="steelblue" stroke-width="1" stroke="white" geotype="commune" geoname="Ambrault" code_insee="36003" code_canton="3601"/><polygon points="183,303 127,260 179,235 176,229 188,209 219,193 239,190 262,208 286,212 285,218 294,225 307,233 323,235 329,240 313,253 318,253 321,264 329,262 325,272 335,276 338,314 303,334 291,335 282,326 249,320 218,305 183,303" id="36005" class="commune" fill="steelblue" stroke-width="1" stroke="white" geotype="commune" geoname="Ardentes" code_insee="36005" code_canton="3601"/><polygon points="45,261 96,261 116,294 131,308 139,310 155,327 145,335 136,335 138,351 117,357 113,368 105,373 108,379 73,397 65,392 59,395 7,392 0,383 3,363 8,353 22,343 14,329 20,322 18,316 26,312 19,310 23,303 19,299 45,261" id="36009" class="commune" fill="steelblue" stroke-width="1" stroke="white" geotype="commune" geoname="Arthon" code_insee="36009" code_canton="3601"/><polygon points="238,61 256,69 272,107 285,112 292,123 287,128 274,126 266,140 253,136 226,181 209,172 205,153 180,142 164,146 162,134 163,124 204,96 216,71 236,69 238,61" id="36064" class="commune" fill="steelblue" stroke-width="1" stroke="white" geotype="commune" geoname="Diors" code_insee="36064" code_canton="3601"/><polygon points="176,229 162,214 166,211 158,207 165,203 162,195 152,187 143,188 128,181 118,162 119,156 138,148 138,143 162,134 164,146 180,142 205,153 209,172 226,181 239,190 219,193 188,209 176,229" id="36071" class="commune" fill="steelblue" stroke-width="1" stroke="white" geotype="commune" geoname="Étrechet" code_insee="36071" code_canton="3601"/><polygon points="139,310 183,303 218,305 249,320 282,326 291,335 290,347 280,359 290,367 262,376 262,370 238,368 226,377 219,377 229,390 210,395 184,397 187,391 108,379 105,373 113,368 117,357 138,351 136,335 145,335 155,327 139,310" id="36089" class="commune" fill="steelblue" stroke-width="1" stroke="white" geotype="commune" geoname="Jeu-les-Bois" code_insee="36089" code_canton="3601"/><polygon points="395,168 384,181 369,190 354,179 338,181 319,178 290,203 286,212 262,208 239,190 226,181 253,136 266,140 274,126 287,128 292,123 336,121 344,140 353,143 351,149 357,152 350,161 395,168" id="36112" class="commune" fill="steelblue" stroke-width="1" stroke="white" geotype="commune" geoname="Mâron" code_insee="36112" code_canton="3601"/><polygon points="86,94 100,89 117,73 114,70 123,58 146,49 143,45 149,43 144,36 153,32 156,22 150,8 161,8 211,6 220,0 235,4 248,9 250,21 234,43 231,57 238,61 236,69 216,71 204,96 163,124 102,105 86,94" id="36128" class="commune" fill="steelblue" stroke-width="1" stroke="white" geotype="commune" geoname="Montierchaume" code_insee="36128" code_canton="3601"/><polygon points="26,198 30,202 45,204 56,200 64,197 73,182 95,176 96,168 118,162 128,181 143,188 152,187 162,195 165,203 158,207 166,211 162,214 176,229 179,235 127,260 183,303 139,310 131,308 116,294 96,261 45,261 3,261 11,248 9,238 8,228 28,208 26,198" id="36159" class="commune" fill="steelblue" stroke-width="1" stroke="white" geotype="commune" geoname="Poinçonnet" code_insee="36159" code_canton="3601"/><polygon points="377,46 372,64 363,71 363,84 347,79 339,84 338,89 361,93 363,104 359,110 341,116 342,122 336,121 292,123 285,112 272,107 256,69 263,64 298,71 312,56 323,31 338,24 341,32 377,46" id="36190" class="commune" fill="steelblue" stroke-width="1" stroke="white" geotype="commune" geoname="Sainte-Fauste" code_insee="36190" code_canton="3601"/><polygon points="384,181 401,198 386,210 391,222 415,227 416,230 399,237 393,247 378,250 381,260 390,263 363,301 361,318 338,314 335,276 325,272 329,262 321,264 318,253 313,253 329,240 323,235 307,233 294,225 285,218 286,212 290,203 319,178 338,181 354,179 369,190 384,181" id="36211" class="commune" fill="steelblue" stroke-width="1" stroke="white" geotype="commune" geoname="Sassierges-Saint-Germain" code_insee="36211" code_canton="3601"/><polygon points="336,121 342,122 341,116 359,110 363,104 365,108 378,101 392,103 396,112 424,110 432,125 426,141 431,147 429,150 413,150 395,168 350,161 357,152 351,149 353,143 344,140 336,121" id="36248" class="commune" fill="steelblue" stroke-width="1" stroke="white" geotype="commune" geoname="Vouillon" code_insee="36248" code_canton="3601"/></svg>