<?xml version="1.0" encoding="utf-8"?>
<svg version="1.1" id="svgmap" xmlns="http://www.w3.org/2000/svg" xmlns:xlink="http://www.w3.org/1999/xlink" x="0px" y="0px" width="100%" height="100%" viewBox="0 0 500 413">
<polygon points="223,392 220,389 214,379 223,377 225,379 242,365 244,366 244,374 247,375 253,375 256,379 254,385 246,383 243,386 250,391 240,393 230,390 223,392" id="36015" class="commune" fill="steelblue" stroke-width="1" stroke="white" geotype="commune" geoname="Beaulieu" code_insee="36015" code_canton="3612"/><polygon points="94,208 103,205 110,208 148,208 161,213 177,213 158,220 152,226 151,235 137,242 137,259 142,261 140,266 132,268 132,271 112,285 91,268 92,253 97,241 104,237 105,227 109,221 94,208" id="36016" class="commune" fill="steelblue" stroke-width="1" stroke="white" geotype="commune" geoname="Bélâbre" code_insee="36016" code_canton="3612"/><polygon points="214,379 220,389 204,387 197,388 185,397 174,397 173,395 170,398 168,397 164,387 168,384 165,379 171,378 177,373 184,374 190,369 205,375 210,374 214,379" id="36020" class="commune" fill="steelblue" stroke-width="1" stroke="white" geotype="commune" geoname="Bonneuil" code_insee="36020" code_canton="3612"/><polygon points="168,339 174,335 182,335 194,324 198,326 205,321 216,322 219,321 231,324 253,315 255,325 253,326 266,331 279,330 281,329 283,331 284,331 284,330 285,329 282,335 285,342 285,349 281,352 283,363 274,368 268,371 250,373 247,375 244,374 244,366 242,365 225,379 223,377 214,379 210,374 205,375 190,369 181,362 177,353 177,342 168,339" id="36035" class="commune" fill="steelblue" stroke-width="1" stroke="white" geotype="commune" geoname="Chaillac" code_insee="36035" code_canton="3612"/><polygon points="213,227 216,230 213,237 196,250 196,256 190,262 191,267 186,270 187,274 182,276 185,280 200,277 202,278 198,280 198,283 184,294 179,285 152,271 142,270 140,266 142,261 137,259 137,242 151,235 152,226 158,220 177,213 177,213 186,230 195,228 204,231 213,227" id="36036" class="commune" fill="steelblue" stroke-width="1" stroke="white" geotype="commune" geoname="Chalais" code_insee="36036" code_canton="3612"/><polygon points="274,368 283,363 281,352 285,349 285,342 292,340 296,341 297,338 306,334 312,338 320,339 327,347 332,347 339,351 341,356 349,355 347,360 343,360 343,363 339,363 336,369 330,369 329,371 331,371 326,372 327,376 319,382 324,384 318,387 317,393 313,393 306,390 300,383 289,373 284,369 277,370 274,368" id="36047" class="commune" fill="steelblue" stroke-width="1" stroke="white" geotype="commune" geoname="Châtre-Langlin" code_insee="36047" code_canton="3612"/><polygon points="353,293 338,294 329,292 324,283 328,275 337,274 347,269 349,263 352,265 352,261 364,266 363,271 368,273 367,289 356,289 353,293" id="36049" class="commune" fill="steelblue" stroke-width="1" stroke="white" geotype="commune" geoname="Chazelet" code_insee="36049" code_canton="3612"/><polygon points="281,177 274,170 258,168 269,151 258,149 273,138 275,139 294,129 310,145 307,152 309,158 302,165 301,172 295,177 281,177" id="36051" class="commune" fill="steelblue" stroke-width="1" stroke="white" geotype="commune" geoname="Chitray" code_insee="36051" code_canton="3612"/><polygon points="253,308 253,315 231,324 219,321 216,322 201,310 214,299 212,294 232,305 236,312 240,309 243,311 253,308" id="36067" class="commune" fill="steelblue" stroke-width="1" stroke="white" geotype="commune" geoname="Dunet" code_insee="36067" code_canton="3612"/><polygon points="216,322 205,321 198,326 194,324 182,335 174,335 168,339 165,342 157,341 155,344 143,346 140,345 143,335 128,331 114,329 100,310 119,312 106,300 99,289 104,289 112,285 132,271 132,268 140,266 142,270 152,271 179,285 184,294 198,283 201,289 212,294 214,299 201,310 216,322" id="36094" class="commune" fill="steelblue" stroke-width="1" stroke="white" geotype="commune" geoname="Lignac" code_insee="36094" code_canton="3612"/><polygon points="453,122 446,123 441,113 427,104 427,102 415,102 418,96 416,82 428,81 430,74 433,76 449,76 459,79 468,90 480,86 485,82 497,79 494,83 500,85 478,113 478,121 475,121 472,127 466,127 462,123 453,122" id="36101" class="commune" fill="steelblue" stroke-width="1" stroke="white" geotype="commune" geoname="Luant" code_insee="36101" code_canton="3612"/><polygon points="280,233 285,228 293,224 300,229 319,231 338,238 346,237 361,239 343,249 341,252 332,256 325,266 319,263 300,263 290,268 284,266 285,262 278,257 271,259 267,257 263,257 261,256 264,252 279,247 282,236 280,233" id="36106" class="commune" fill="steelblue" stroke-width="1" stroke="white" geotype="commune" geoname="Luzeret" code_insee="36106" code_canton="3612"/><polygon points="94,208 109,221 105,227 104,237 97,241 92,253 91,268 83,253 83,246 77,242 84,235 82,234 82,224 64,229 56,223 44,225 42,216 44,212 39,204 62,197 67,201 94,208" id="36114" class="commune" fill="steelblue" stroke-width="1" stroke="white" geotype="commune" geoname="Mauvières" code_insee="36114" code_canton="3612"/><polygon points="293,103 289,99 289,94 287,90 289,88 299,84 306,77 314,74 309,72 313,69 318,72 325,67 330,67 330,62 346,53 357,53 359,57 362,56 365,58 370,66 368,70 362,74 364,75 362,81 356,88 357,88 361,88 362,89 355,96 356,108 327,110 317,112 313,110 299,112 298,107 293,103" id="36118" class="commune" fill="steelblue" stroke-width="1" stroke="white" geotype="commune" geoname="Méobecq" code_insee="36118" code_canton="3612"/><polygon points="193,65 202,65 205,71 210,70 217,72 220,78 226,80 224,81 227,81 224,85 227,85 232,92 274,91 282,92 284,96 289,94 289,99 293,103 285,122 294,129 275,139 273,138 258,149 243,153 241,151 232,148 218,135 207,136 212,133 211,122 206,122 204,119 198,120 199,111 194,105 198,102 198,97 194,99 194,97 187,96 192,90 187,90 187,88 183,86 186,80 180,75 193,65" id="36124" class="commune" fill="steelblue" stroke-width="1" stroke="white" geotype="commune" geoname="Migné" code_insee="36124" code_canton="3612"/><polygon points="400,374 397,371 384,374 380,383 377,383 374,385 377,387 375,390 364,389 357,390 355,398 348,398 353,405 339,409 333,413 329,410 327,401 320,396 315,396 317,393 318,387 324,384 319,382 327,376 326,372 331,371 329,371 330,369 336,369 339,363 343,363 343,360 347,360 349,355 371,351 402,365 403,369 400,374" id="36134" class="commune" fill="steelblue" stroke-width="1" stroke="white" geotype="commune" geoname="Mouhet" code_insee="36134" code_canton="3612"/><polygon points="430,74 428,81 416,82 399,82 402,86 399,85 396,89 394,103 401,104 395,109 384,113 366,106 356,108 355,96 362,89 361,88 357,88 356,88 362,81 364,75 362,74 368,70 370,66 365,58 362,56 359,57 357,53 346,53 347,51 343,47 353,44 352,36 361,35 364,30 365,29 377,33 385,28 390,41 409,42 411,47 417,51 419,61 425,67 424,70 430,74" id="36139" class="commune" fill="steelblue" stroke-width="1" stroke="white" geotype="commune" geoname="Neuillay-les-Bois" code_insee="36139" code_canton="3612"/><polygon points="395,109 392,123 397,133 390,137 378,150 366,158 354,146 330,160 325,155 316,157 313,144 310,145 294,129 285,122 293,103 298,107 299,112 313,110 317,112 327,110 356,108 366,106 384,113 395,109" id="36144" class="commune" fill="steelblue" stroke-width="1" stroke="white" geotype="commune" geoname="Nuret-le-Ferron" code_insee="36144" code_canton="3612"/><polygon points="216,230 213,227 218,226 220,220 212,213 214,207 209,208 210,186 219,182 221,176 234,177 247,172 249,169 258,168 274,170 281,177 270,200 264,203 274,214 271,216 275,220 276,224 285,226 285,228 280,233 278,231 274,232 260,229 246,230 237,232 231,229 228,231 216,230" id="36148" class="commune" fill="steelblue" stroke-width="1" stroke="white" geotype="commune" geoname="Oulches" code_insee="36148" code_canton="3612"/><polygon points="423,347 412,352 410,359 402,365 371,351 349,355 341,356 339,351 332,347 327,347 320,339 312,338 332,326 333,324 330,322 342,312 346,312 347,315 357,310 365,318 374,315 372,313 376,307 380,306 380,310 384,310 392,317 401,316 405,320 409,319 417,325 426,335 423,347" id="36150" class="commune" fill="steelblue" stroke-width="1" stroke="white" geotype="commune" geoname="Parnac" code_insee="36150" code_canton="3612"/><polygon points="397,133 392,123 395,109 401,104 394,103 396,89 399,85 402,86 399,82 416,82 418,96 415,102 427,102 427,104 441,113 446,123 453,122 446,128 426,131 426,134 408,129 397,133" id="36157" class="commune" fill="steelblue" stroke-width="1" stroke="white" geotype="commune" geoname="Pérouille" code_insee="36157" code_canton="3612"/><polygon points="198,283 198,280 202,278 200,277 185,280 182,276 187,274 186,270 191,267 190,262 196,256 196,250 213,237 216,230 228,231 231,229 237,232 246,230 260,229 274,232 278,231 280,233 282,236 279,247 264,252 261,256 263,257 256,268 264,273 272,271 281,273 279,278 283,280 282,284 277,288 273,288 271,290 258,293 252,305 253,308 243,311 240,309 236,312 232,305 212,294 201,289 198,283" id="36168" class="commune" fill="steelblue" stroke-width="1" stroke="white" geotype="commune" geoname="Prissac" code_insee="36168" code_canton="3612"/><polygon points="310,145 313,144 316,157 325,155 330,160 331,167 327,170 324,178 330,180 332,186 330,191 335,192 339,196 335,204 308,214 293,224 285,228 285,226 276,224 275,220 271,216 274,214 264,203 270,200 281,177 295,177 301,172 302,165 309,158 307,152 310,145" id="36172" class="commune" fill="steelblue" stroke-width="1" stroke="white" geotype="commune" geoname="Rivarennes" code_insee="36172" code_canton="3612"/><polygon points="285,342 282,335 285,329 284,330 284,331 283,331 281,329 279,330 266,331 253,326 255,325 273,323 277,310 285,304 296,302 307,292 311,302 340,308 342,312 330,322 319,325 317,331 306,334 297,338 296,341 292,340 285,342" id="36174" class="commune" fill="steelblue" stroke-width="1" stroke="white" geotype="commune" geoname="Roussines" code_insee="36174" code_canton="3612"/><polygon points="253,315 253,308 252,305 258,293 271,290 273,288 277,288 282,284 283,280 279,278 281,273 272,271 264,273 256,268 263,257 267,257 271,259 278,257 285,262 284,266 290,268 300,263 319,263 325,266 332,256 341,252 345,254 348,261 352,261 352,265 349,263 347,269 337,274 328,275 325,274 322,269 306,279 298,281 299,286 307,292 296,302 285,304 277,310 273,323 255,325 253,315" id="36177" class="commune" fill="steelblue" stroke-width="1" stroke="white" geotype="commune" geoname="Sacierges-Saint-Martin" code_insee="36177" code_canton="3612"/><polygon points="312,338 306,334 317,331 319,325 330,322 333,324 332,326 312,338" id="36182" class="commune" fill="steelblue" stroke-width="1" stroke="white" geotype="commune" geoname="Saint-Benoît-du-Sault" code_insee="36182" code_canton="3612"/><polygon points="328,275 324,283 329,292 338,294 353,293 349,302 340,308 311,302 307,292 299,286 298,281 306,279 322,269 325,274 328,275" id="36187" class="commune" fill="steelblue" stroke-width="1" stroke="white" geotype="commune" geoname="Saint-Civran" code_insee="36187" code_canton="3612"/><polygon points="353,173 346,174 341,178 330,180 324,178 327,170 331,167 330,160 354,146 366,158 353,173" id="36192" class="commune" fill="steelblue" stroke-width="1" stroke="white" geotype="commune" geoname="Saint-Gaultier" code_insee="36192" code_canton="3612"/><polygon points="353,293 356,289 367,289 369,290 366,295 373,296 375,303 380,306 376,307 372,313 374,315 365,318 357,310 347,315 346,312 342,312 340,308 349,302 353,293" id="36196" class="commune" fill="steelblue" stroke-width="1" stroke="white" geotype="commune" geoname="Saint-Gilles" code_insee="36196" code_canton="3612"/><polygon points="0,230 10,226 15,216 17,218 26,215 35,219 42,216 44,225 56,223 64,229 82,224 82,234 84,235 77,242 83,246 83,253 91,268 76,259 64,255 53,257 43,254 30,257 5,256 9,245 4,233 0,230" id="36197" class="commune" fill="steelblue" stroke-width="1" stroke="white" geotype="commune" geoname="Saint-Hilaire-sur-Benaize" code_insee="36197" code_canton="3612"/><polygon points="361,239 346,237 338,238 319,231 300,229 293,224 308,214 335,204 339,196 335,192 330,191 332,186 330,180 341,178 346,174 353,173 373,182 379,183 387,188 373,197 375,200 362,208 358,208 360,210 356,216 362,219 359,228 361,235 361,239" id="36220" class="commune" fill="steelblue" stroke-width="1" stroke="white" geotype="commune" geoname="Thenay" code_insee="36220" code_canton="3612"/><polygon points="165,342 168,339 177,342 177,353 181,362 190,369 184,374 177,373 171,378 165,379 162,378 159,379 147,386 148,388 139,389 135,383 151,368 147,365 149,361 165,342" id="36223" class="commune" fill="steelblue" stroke-width="1" stroke="white" geotype="commune" geoname="Tilly" code_insee="36223" code_canton="3612"/><polygon points="217,72 221,66 229,64 233,53 244,54 244,56 247,52 251,53 247,50 250,39 239,28 248,16 252,16 263,10 273,11 277,7 301,0 319,7 324,13 328,11 333,17 337,18 339,13 342,14 341,17 344,16 348,19 349,33 357,33 361,29 364,30 361,35 352,36 353,44 343,47 347,51 346,53 330,62 330,67 325,67 318,72 313,69 309,72 314,74 306,77 299,84 289,88 287,90 289,94 284,96 282,92 274,91 232,92 227,85 224,85 227,81 224,81 226,80 220,78 217,72" id="36232" class="commune" fill="steelblue" stroke-width="1" stroke="white" geotype="commune" geoname="Vendœuvres" code_insee="36232" code_canton="3612"/><polygon points="367,289 368,273 363,271 364,266 352,261 348,261 345,254 341,252 343,249 361,239 361,235 376,230 392,235 402,243 389,252 390,266 400,273 408,285 411,283 412,290 406,300 408,302 404,303 412,310 409,319 405,320 401,316 392,317 384,310 380,310 380,306 375,303 373,296 366,295 369,290 367,289" id="36239" class="commune" fill="steelblue" stroke-width="1" stroke="white" geotype="commune" geoname="Vigoux" code_insee="36239" code_canton="3612"/></svg>