<?xml version="1.0" encoding="utf-8"?>
<svg version="1.1" id="svgmap" xmlns="http://www.w3.org/2000/svg" xmlns:xlink="http://www.w3.org/1999/xlink" x="0px" y="0px" width="100%" height="100%" viewBox="0 0 500 236">
<polygon points="120,75 117,73 113,74 111,69 127,56 128,51 131,51 134,47 141,45 161,46 164,48 162,55 168,56 170,60 167,64 155,70 157,72 150,74 148,73 144,76 133,72 120,75" id="37016" class="commune" fill="steelblue" stroke-width="1" stroke="white" geotype="commune" geoname="Azay-sur-Indre" code_insee="37016" code_canton="3709"/><polygon points="204,115 203,119 221,119 229,125 223,126 217,133 207,129 208,131 202,133 201,136 196,116 204,115" id="37020" class="commune" fill="steelblue" stroke-width="1" stroke="white" geotype="commune" geoname="Beaulieu-lès-Loches" code_insee="37020" code_canton="3709"/><polygon points="353,102 341,84 342,81 335,74 348,67 350,64 352,55 347,52 355,51 363,57 367,66 381,71 384,78 397,85 380,92 377,104 371,105 370,107 365,100 358,99 356,102 354,100 353,102" id="37023" class="commune" fill="steelblue" stroke-width="1" stroke="white" geotype="commune" geoname="Beaumont-Village" code_insee="37023" code_canton="3709"/><polygon points="284,209 269,213 264,217 261,216 256,220 237,220 233,213 239,192 241,195 245,193 255,181 258,182 262,180 267,185 270,184 269,186 273,186 275,189 272,192 273,198 280,198 284,209" id="37039" class="commune" fill="steelblue" stroke-width="1" stroke="white" geotype="commune" geoname="Bridoré" code_insee="37039" code_canton="3709"/><polygon points="120,75 133,72 144,76 148,73 150,74 157,72 155,70 167,64 189,77 193,77 205,79 204,83 200,97 198,102 191,107 185,109 182,108 173,104 171,106 164,103 161,106 129,100 126,98 129,94 124,82 117,77 121,76 120,75" id="37049" class="commune" fill="steelblue" stroke-width="1" stroke="white" geotype="commune" geoname="Chambourg-sur-Indre" code_insee="37049" code_canton="3709"/><polygon points="182,108 175,115 169,110 162,116 140,126 137,131 133,129 114,127 109,120 110,113 119,110 120,105 129,100 161,106 164,103 171,106 173,104 182,108" id="37053" class="commune" fill="steelblue" stroke-width="1" stroke="white" geotype="commune" geoname="Chanceaux-près-Loches" code_insee="37053" code_canton="3709"/><polygon points="154,29 156,26 167,24 168,22 179,21 183,21 186,25 197,22 200,25 214,41 199,49 201,54 197,55 200,59 194,65 198,64 200,69 193,77 189,77 167,64 170,60 168,56 162,55 164,48 161,46 165,45 162,41 160,41 161,37 154,29" id="37066" class="commune" fill="steelblue" stroke-width="1" stroke="white" geotype="commune" geoname="Chédigny" code_insee="37066" code_canton="3709"/><polygon points="353,102 360,106 359,108 356,114 349,116 352,117 352,119 342,119 339,122 330,121 314,126 297,124 301,119 292,114 285,115 290,112 302,100 302,94 313,88 315,81 335,74 342,81 341,84 353,102" id="37069" class="commune" fill="steelblue" stroke-width="1" stroke="white" geotype="commune" geoname="Chemillé-sur-Indrois" code_insee="37069" code_canton="3709"/><polygon points="111,69 113,74 117,73 120,75 121,76 117,77 124,82 129,94 126,98 129,100 120,105 119,110 110,113 109,120 100,119 92,126 89,117 84,115 83,117 80,111 73,108 70,98 66,97 66,94 71,88 66,83 74,85 77,84 74,82 88,69 94,62 104,71 109,67 111,69" id="37097" class="commune" fill="steelblue" stroke-width="1" stroke="white" geotype="commune" geoname="Dolus-le-Sec" code_insee="37097" code_canton="3709"/><polygon points="223,126 229,125 221,119 203,119 204,115 204,113 210,110 207,110 203,106 204,102 200,97 204,83 221,91 250,105 271,120 271,126 256,126 247,129 238,129 236,126 229,129 223,126" id="37108" class="commune" fill="steelblue" stroke-width="1" stroke="white" geotype="commune" geoname="Ferrière-sur-Beaulieu" code_insee="37108" code_canton="3709"/><polygon points="312,47 335,51 345,48 347,52 352,55 350,64 348,67 335,74 315,81 313,88 302,94 302,100 290,112 285,115 271,120 250,105 221,91 234,81 229,81 237,71 242,71 236,68 234,62 243,62 245,67 253,59 253,52 246,49 251,48 245,44 246,40 252,42 265,49 266,52 287,47 302,54 312,47" id="37111" class="commune" fill="steelblue" stroke-width="1" stroke="white" geotype="commune" geoname="Genillé" code_insee="37111" code_canton="3709"/><polygon points="252,42 284,24 281,21 285,19 285,23 293,23 294,32 303,37 312,47 302,54 287,47 266,52 265,49 252,42" id="37127" class="commune" fill="steelblue" stroke-width="1" stroke="white" geotype="commune" geoname="Liège" code_insee="37127" code_canton="3709"/><polygon points="204,115 196,116 201,136 179,142 162,155 164,158 156,160 155,159 147,160 145,158 135,162 141,148 137,141 128,133 133,129 137,131 140,126 162,116 169,110 175,115 182,108 185,109 191,107 198,102 200,97 204,102 203,106 207,110 210,110 204,113 204,115" id="37132" class="commune" fill="steelblue" stroke-width="1" stroke="white" geotype="commune" geoname="Loches" code_insee="37132" code_canton="3709"/><polygon points="354,207 343,198 344,181 337,179 319,162 295,161 303,156 300,153 302,148 307,145 305,139 314,126 330,121 339,122 338,128 353,137 365,133 380,132 384,134 390,132 398,136 408,149 418,154 431,168 422,169 418,174 415,174 410,183 405,182 403,184 404,187 397,190 398,192 379,204 376,203 371,204 371,208 365,209 359,210 354,207" id="37133" class="commune" fill="steelblue" stroke-width="1" stroke="white" geotype="commune" geoname="Loché-sur-Indrois" code_insee="37133" code_canton="3709"/><polygon points="370,107 359,108 360,106 353,102 354,100 356,102 358,99 365,100 370,107" id="37157" class="commune" fill="steelblue" stroke-width="1" stroke="white" geotype="commune" geoname="Montrésor" code_insee="37157" code_canton="3709"/><polygon points="491,141 479,148 472,149 468,144 460,144 452,153 458,161 454,172 452,174 446,171 438,172 431,170 431,168 418,154 422,154 433,138 415,128 414,114 417,114 418,98 415,95 420,93 428,91 442,81 455,76 457,78 463,69 467,76 482,87 487,103 497,119 498,128 500,129 491,141" id="37173" class="commune" fill="steelblue" stroke-width="1" stroke="white" geotype="commune" geoname="Nouans-les-Fontaines" code_insee="37173" code_canton="3709"/><polygon points="434,29 440,32 446,47 463,69 457,78 455,76 442,81 428,91 420,93 397,85 384,78 381,71 367,66 363,57 355,51 347,52 345,48 354,48 362,45 361,39 365,38 365,33 370,25 388,15 392,10 392,2 395,0 411,10 410,12 415,17 424,16 427,23 434,29" id="37177" class="commune" fill="steelblue" stroke-width="1" stroke="white" geotype="commune" geoname="Orbigny" code_insee="37177" code_canton="3709"/><polygon points="194,183 186,187 185,191 169,191 172,187 169,183 171,175 168,168 162,165 159,166 160,164 156,160 164,158 162,155 179,142 201,136 202,133 208,131 207,129 217,133 223,126 229,129 236,126 238,129 247,129 248,140 241,138 233,145 208,156 209,160 203,163 205,167 196,176 198,176 195,179 191,178 189,180 194,183" id="37183" class="commune" fill="steelblue" stroke-width="1" stroke="white" geotype="commune" geoname="Perrusson" code_insee="37183" code_canton="3709"/><polygon points="161,46 141,45 134,47 131,51 128,51 127,56 111,69 109,67 104,71 94,62 88,69 80,64 87,60 83,58 79,59 78,55 86,49 95,56 102,52 100,50 105,48 97,43 108,38 101,34 102,33 107,35 110,31 104,27 114,22 127,23 136,28 142,26 148,32 154,29 161,37 160,41 162,41 165,45 161,46" id="37192" class="commune" fill="steelblue" stroke-width="1" stroke="white" geotype="commune" geoname="Reignac-sur-Indre" code_insee="37192" code_canton="3709"/><polygon points="66,83 71,88 66,94 60,92 54,96 47,92 45,86 44,84 35,84 36,82 40,77 48,76 54,78 56,82 66,83" id="37209" class="commune" fill="steelblue" stroke-width="1" stroke="white" geotype="commune" geoname="Saint-Bauld" code_insee="37209" code_canton="3709"/><polygon points="259,173 270,171 281,164 285,165 292,161 295,161 319,162 337,179 344,181 343,198 327,200 302,210 288,212 284,209 280,198 273,198 272,192 275,189 273,186 269,186 270,184 267,185 262,180 259,177 259,173" id="37221" class="commune" fill="steelblue" stroke-width="1" stroke="white" geotype="commune" geoname="Saint-Hippolyte" code_insee="37221" code_canton="3709"/><polygon points="292,161 285,165 281,164 270,171 259,173 252,172 255,170 252,167 241,166 239,164 237,170 232,173 228,173 224,177 209,178 195,186 194,183 189,180 191,178 195,179 198,176 196,176 205,167 203,163 209,160 208,156 233,145 241,138 248,140 246,143 255,151 261,150 271,156 292,161" id="37222" class="commune" fill="steelblue" stroke-width="1" stroke="white" geotype="commune" geoname="Saint-Jean-Saint-Germain" code_insee="37222" code_canton="3709"/><polygon points="200,25 208,19 217,27 236,33 246,40 245,44 251,48 246,49 253,52 253,59 245,67 243,62 234,62 236,68 242,71 237,71 229,81 234,81 221,91 204,83 205,79 193,77 200,69 198,64 194,65 200,59 197,55 201,54 199,49 214,41 200,25" id="37234" class="commune" fill="steelblue" stroke-width="1" stroke="white" geotype="commune" geoname="Saint-Quentin-sur-Indrois" code_insee="37234" code_canton="3709"/><polygon points="156,160 160,164 159,166 162,165 168,168 171,175 169,183 172,187 169,191 185,191 186,198 183,198 177,205 171,206 146,204 140,207 125,209 124,207 136,199 132,199 122,191 124,179 134,176 129,165 135,162 145,158 147,160 155,159 156,160" id="37238" class="commune" fill="steelblue" stroke-width="1" stroke="white" geotype="commune" geoname="Saint-Senoch" code_insee="37238" code_canton="3709"/><polygon points="271,120 285,115 292,114 301,119 297,124 314,126 305,139 307,145 302,148 300,153 303,156 295,161 292,161 271,156 261,150 255,151 246,143 248,140 247,129 256,126 271,126 271,120" id="37246" class="commune" fill="steelblue" stroke-width="1" stroke="white" geotype="commune" geoname="Sennevières" code_insee="37246" code_canton="3709"/><polygon points="70,28 62,37 66,46 69,45 78,55 79,59 83,58 87,60 80,64 88,69 74,82 77,84 74,85 66,83 56,82 54,78 48,76 40,77 36,82 16,78 1,78 0,66 1,57 16,54 19,55 26,52 30,49 26,46 33,41 33,38 47,32 43,26 50,12 57,16 58,23 61,22 70,28" id="37254" class="commune" fill="steelblue" stroke-width="1" stroke="white" geotype="commune" geoname="Tauxigny" code_insee="37254" code_canton="3709"/><polygon points="185,191 186,187 194,183 195,186 209,178 224,177 228,173 232,173 237,170 239,164 241,166 252,167 255,170 252,172 259,173 259,177 262,180 258,182 255,181 245,193 241,195 239,192 233,213 237,220 256,220 254,226 248,228 253,231 238,236 218,233 209,234 206,230 191,224 184,213 172,210 171,206 177,205 183,198 186,198 185,191" id="37269" class="commune" fill="steelblue" stroke-width="1" stroke="white" geotype="commune" geoname="Verneuil-sur-Indre" code_insee="37269" code_canton="3709"/><polygon points="438,172 435,180 430,187 418,191 423,195 425,200 417,203 405,215 400,216 387,221 379,213 365,209 371,208 371,204 376,203 379,204 398,192 397,190 404,187 403,184 405,182 410,183 415,174 418,174 422,169 431,168 431,170 438,172" id="37275" class="commune" fill="steelblue" stroke-width="1" stroke="white" geotype="commune" geoname="Villedômain" code_insee="37275" code_canton="3709"/><polygon points="359,108 370,107 371,105 377,104 380,92 397,85 420,93 415,95 418,98 417,114 414,114 415,128 433,138 422,154 418,154 408,149 398,136 390,132 384,134 380,132 365,133 353,137 338,128 339,122 342,119 352,119 352,117 349,116 356,114 359,108" id="37277" class="commune" fill="steelblue" stroke-width="1" stroke="white" geotype="commune" geoname="Villeloin-Coulangé" code_insee="37277" code_canton="3709"/></svg>