<?xml version="1.0" encoding="utf-8"?>
<svg version="1.1" id="svgmap" xmlns="http://www.w3.org/2000/svg" xmlns:xlink="http://www.w3.org/1999/xlink" x="0px" y="0px" width="100%" height="100%" viewBox="0 0 500 212">
<polygon points="417,81 425,91 439,93 448,100 448,111 462,113 470,109 474,113 465,120 431,126 432,134 422,136 417,135 393,133 375,114 362,111 357,116 342,118 362,93 417,81" id="42032" class="commune" fill="steelblue" stroke-width="1" stroke="white" geotype="commune" geoname="Cellieu" code_insee="42032" code_canton="4221"/><polygon points="432,81 437,79 451,75 460,78 456,87 471,93 467,103 448,100 439,93 425,91 417,81 432,81" id="42036" class="commune" fill="steelblue" stroke-width="1" stroke="white" geotype="commune" geoname="Chagnon" code_insee="42036" code_canton="4221"/><polygon points="119,176 112,175 104,156 128,142 169,127 194,132 181,154 167,157 172,177 166,181 162,172 151,174 139,171 119,176" id="42092" class="commune" fill="steelblue" stroke-width="1" stroke="white" geotype="commune" geoname="Étrat" code_insee="42092" code_canton="4221"/><polygon points="226,37 231,37 248,50 266,56 273,79 260,89 254,107 242,110 236,106 220,86 223,69 232,73 239,61 226,37" id="42096" class="commune" fill="steelblue" stroke-width="1" stroke="white" geotype="commune" geoname="Fontanès" code_insee="42096" code_canton="4221"/><polygon points="0,112 2,107 13,105 26,112 49,112 54,102 74,104 101,121 105,119 108,134 128,142 104,156 112,175 101,173 103,181 93,178 87,182 77,185 74,181 51,188 45,180 39,179 32,152 16,135 1,128 0,112" id="42097" class="commune" fill="steelblue" stroke-width="1" stroke="white" geotype="commune" geoname="Fouillouse" code_insee="42097" code_canton="4221"/><polygon points="302,19 299,13 306,4 327,0 342,7 353,7 366,2 366,19 353,42 338,51 328,45 313,49 284,35 293,31 302,19" id="42133" class="commune" fill="steelblue" stroke-width="1" stroke="white" geotype="commune" geoname="Marcenod" code_insee="42133" code_canton="4221"/><polygon points="266,56 284,35 313,49 328,45 338,51 353,42 366,49 358,53 352,72 336,88 342,118 326,126 318,121 311,124 301,133 303,141 284,134 266,124 269,117 254,107 260,89 273,79 266,56" id="42208" class="commune" fill="steelblue" stroke-width="1" stroke="white" geotype="commune" geoname="Saint-Christo-en-Jarez" code_insee="42208" code_canton="4221"/><polygon points="130,42 138,50 153,55 177,47 201,49 204,64 223,69 220,86 236,106 222,123 225,127 215,142 213,137 206,138 194,132 169,127 128,142 108,134 105,119 114,108 102,78 107,64 130,42" id="42234" class="commune" fill="steelblue" stroke-width="1" stroke="white" geotype="commune" geoname="Saint-Héand" code_insee="42234" code_canton="4221"/><polygon points="437,79 432,81 422,69 394,53 366,49 353,42 366,19 379,18 391,25 400,25 410,18 436,14 445,16 468,8 473,10 492,20 500,29 493,29 479,39 478,45 471,44 461,49 457,63 451,59 441,65 437,79" id="42283" class="commune" fill="steelblue" stroke-width="1" stroke="white" geotype="commune" geoname="Saint-Romain-en-Jarez" code_insee="42283" code_canton="4221"/><polygon points="236,106 242,110 254,107 269,117 266,124 284,134 294,158 288,168 302,179 292,184 273,182 262,180 259,168 236,164 235,153 205,150 215,142 225,127 222,123 236,106" id="42302" class="commune" fill="steelblue" stroke-width="1" stroke="white" geotype="commune" geoname="Sorbiers" code_insee="42302" code_canton="4221"/><polygon points="233,212 215,199 215,188 213,181 202,179 200,174 212,161 205,150 235,153 236,164 259,168 262,180 273,182 274,193 265,191 242,199 233,212" id="42305" class="commune" fill="steelblue" stroke-width="1" stroke="white" geotype="commune" geoname="Talaudière" code_insee="42305" code_canton="4221"/><polygon points="172,177 167,157 181,154 194,132 206,138 213,137 215,142 205,150 212,161 200,174 202,179 213,181 215,188 203,190 187,182 176,184 172,177" id="42311" class="commune" fill="steelblue" stroke-width="1" stroke="white" geotype="commune" geoname="Tour-en-Jarez" code_insee="42311" code_canton="4221"/><polygon points="432,81 417,81 362,93 342,118 336,88 352,72 358,53 366,49 394,53 422,69 432,81" id="42320" class="commune" fill="steelblue" stroke-width="1" stroke="white" geotype="commune" geoname="Valfleury" code_insee="42320" code_canton="4221"/></svg>