<?xml version="1.0" encoding="utf-8"?>
<svg version="1.1" id="svgmap" xmlns="http://www.w3.org/2000/svg" xmlns:xlink="http://www.w3.org/1999/xlink" x="0px" y="0px" width="100%" height="100%" viewBox="0 0 500 159">
<polygon points="343,67 359,61 383,59 395,66 400,66 399,71 395,72 397,85 407,88 411,85 414,87 389,94 391,97 384,99 382,104 370,99 365,109 361,106 357,109 354,105 350,108 351,105 347,106 346,101 341,96 332,94 336,89 345,86 340,76 345,73 343,67" id="43001" class="commune" fill="steelblue" stroke-width="1" stroke="white" geotype="commune" geoname="Agnat" code_insee="43001" code_canton="4317"/><polygon points="32,101 31,97 35,94 31,84 27,83 31,76 22,73 38,75 41,77 49,77 57,73 62,77 69,77 71,79 51,89 54,90 53,93 65,97 63,101 66,111 55,112 53,109 32,101" id="43014" class="commune" fill="steelblue" stroke-width="1" stroke="white" geotype="commune" geoname="Autrac" code_insee="43014" code_canton="4317"/><polygon points="326,51 321,45 311,45 308,47 310,59 296,58 288,64 281,62 281,58 262,49 261,41 257,39 262,37 260,36 269,38 277,32 286,16 300,28 304,24 311,24 315,28 321,28 325,24 333,28 338,27 339,30 333,39 334,46 326,51" id="43016" class="commune" fill="steelblue" stroke-width="1" stroke="white" geotype="commune" geoname="Auzon" code_insee="43016" code_canton="4317"/><polygon points="332,94 327,100 314,105 306,101 308,89 301,86 298,80 285,73 283,68 288,64 296,58 310,59 308,47 311,45 321,45 326,51 329,53 329,60 346,56 347,59 340,66 343,67 345,73 340,76 345,86 336,89 332,94" id="43017" class="commune" fill="steelblue" stroke-width="1" stroke="white" geotype="commune" geoname="Azérat" code_insee="43017" code_canton="4317"/><polygon points="83,159 87,153 84,151 88,148 85,147 88,146 85,142 81,143 78,140 81,139 76,135 79,133 84,125 78,124 73,119 77,118 78,113 76,114 72,115 73,111 69,113 66,111 63,101 65,97 53,93 54,90 51,89 71,79 69,77 99,75 100,82 103,83 100,85 104,87 102,90 105,89 108,92 106,95 111,98 127,93 127,96 136,98 137,102 129,122 120,128 117,126 116,127 112,127 110,132 103,135 110,137 104,143 104,148 102,149 106,151 83,159" id="43033" class="commune" fill="steelblue" stroke-width="1" stroke="white" geotype="commune" geoname="Blesle" code_insee="43033" code_canton="4317"/><polygon points="178,37 177,47 171,49 174,54 170,53 168,56 159,56 154,53 152,57 149,53 137,58 140,46 154,37 154,33 159,34 161,38 172,39 178,37" id="43050" class="commune" fill="steelblue" stroke-width="1" stroke="white" geotype="commune" geoname="Chambezon" code_insee="43050" code_canton="4317"/><polygon points="414,87 411,85 407,88 397,85 395,72 399,71 400,66 395,66 383,59 385,54 399,60 403,51 400,44 409,41 429,48 434,47 433,52 437,55 430,57 429,61 441,66 448,79 460,80 466,94 451,94 451,99 436,93 432,104 421,107 417,107 417,104 420,95 425,90 419,85 414,87" id="43052" class="commune" fill="steelblue" stroke-width="1" stroke="white" geotype="commune" geoname="Champagnac-le-Vieux" code_insee="43052" code_canton="4317"/><polygon points="434,47 429,48 409,41 400,44 388,50 382,44 369,41 367,33 374,27 382,26 380,21 388,14 396,13 399,7 420,0 425,16 441,25 442,32 432,36 434,47" id="43064" class="commune" fill="steelblue" stroke-width="1" stroke="white" geotype="commune" geoname="Chassignolles" code_insee="43064" code_canton="4317"/><polygon points="116,127 117,126 120,128 129,122 137,102 141,103 146,100 150,103 153,110 158,110 158,113 159,110 159,113 162,111 163,116 170,121 177,122 179,127 186,127 189,135 194,135 195,139 173,141 169,138 158,141 151,139 147,140 144,134 141,137 136,137 133,143 118,139 116,127" id="43088" class="commune" fill="steelblue" stroke-width="1" stroke="white" geotype="commune" geoname="Espalem" code_insee="43088" code_canton="4317"/><polygon points="219,38 230,34 234,38 234,44 225,48 219,38" id="43099" class="commune" fill="steelblue" stroke-width="1" stroke="white" geotype="commune" geoname="Frugerès-les-Mines" code_insee="43099" code_canton="4317"/><polygon points="145,156 138,156 142,151 134,151 129,146 104,148 104,143 110,137 103,135 110,132 112,127 116,127 118,139 133,143 136,137 141,137 144,134 147,140 151,139 158,141 155,148 153,146 144,145 145,156" id="43103" class="commune" fill="steelblue" stroke-width="1" stroke="white" geotype="commune" geoname="Grenier-Montgon" code_insee="43103" code_canton="4317"/><polygon points="220,60 223,63 218,66 201,65 197,68 192,69 191,58 186,54 174,54 171,49 177,47 178,37 190,35 205,28 218,38 215,46 210,50 216,53 220,60" id="43120" class="commune" fill="steelblue" stroke-width="1" stroke="white" geotype="commune" geoname="Lempdes-sur-Allagnon" code_insee="43120" code_canton="4317"/><polygon points="137,102 136,98 127,96 127,93 124,81 128,80 129,76 133,80 140,77 135,73 137,69 131,66 130,61 134,58 137,58 149,53 152,57 154,53 159,56 168,56 170,53 174,54 186,54 191,58 192,69 197,68 197,78 194,84 170,82 166,93 159,91 149,99 150,103 146,100 141,103 137,102" id="43121" class="commune" fill="steelblue" stroke-width="1" stroke="white" geotype="commune" geoname="Léotoing" code_insee="43121" code_canton="4317"/><polygon points="186,127 179,127 177,122 170,121 163,116 162,111 159,113 159,110 158,113 158,110 153,110 150,103 149,99 159,91 166,93 170,82 194,84 197,78 195,90 199,91 202,104 204,108 207,106 211,117 191,121 186,127" id="43123" class="commune" fill="steelblue" stroke-width="1" stroke="white" geotype="commune" geoname="Lorlanges" code_insee="43123" code_canton="4317"/><polygon points="79,133 73,133 65,140 55,138 49,142 29,144 21,136 0,138 4,131 2,129 15,127 23,128 33,117 31,117 30,117 31,115 17,111 9,105 10,102 22,99 32,101 53,109 55,112 66,111 69,113 73,111 72,115 76,114 78,113 77,118 73,119 78,124 84,125 79,133" id="43182" class="commune" fill="steelblue" stroke-width="1" stroke="white" geotype="commune" geoname="Saint-Étienne-sur-Blesle" code_insee="43182" code_canton="4317"/><polygon points="248,31 246,34 252,38 246,37 237,45 234,44 234,38 230,34 219,38 218,38 205,28 210,23 214,9 222,7 229,9 234,16 239,14 239,20 243,20 244,31 247,29 248,31" id="43185" class="commune" fill="steelblue" stroke-width="1" stroke="white" geotype="commune" geoname="Sainte-Florine" code_insee="43185" code_canton="4317"/><polygon points="383,59 359,61 343,67 340,66 347,59 346,56 329,60 329,53 326,51 334,46 333,39 339,30 344,26 349,26 356,27 368,24 374,27 367,33 369,41 382,44 388,50 400,44 403,51 399,60 385,54 383,59" id="43193" class="commune" fill="steelblue" stroke-width="1" stroke="white" geotype="commune" geoname="Saint-Hilaire" code_insee="43193" code_canton="4317"/><polygon points="434,47 432,36 442,32 441,25 443,21 449,29 450,25 473,30 476,36 484,32 488,25 500,45 488,42 485,45 491,56 471,67 474,75 462,75 460,80 448,79 441,66 429,61 430,57 437,55 433,52 434,47" id="43226" class="commune" fill="steelblue" stroke-width="1" stroke="white" geotype="commune" geoname="Saint-Vert" code_insee="43226" code_canton="4317"/><polygon points="127,93 111,98 106,95 108,92 105,89 102,90 104,87 100,85 103,83 100,82 99,75 93,72 99,63 113,65 112,60 127,56 130,61 131,66 137,69 135,73 140,77 133,80 129,76 128,80 124,81 127,93" id="43247" class="commune" fill="steelblue" stroke-width="1" stroke="white" geotype="commune" geoname="Torsiac" code_insee="43247" code_canton="4317"/><polygon points="252,38 257,39 261,41 262,49 281,58 281,62 288,64 283,68 275,70 272,75 267,76 245,61 237,67 234,66 231,63 233,56 220,60 216,53 210,50 215,46 218,38 219,38 225,48 234,44 237,45 246,37 252,38" id="43258" class="commune" fill="steelblue" stroke-width="1" stroke="white" geotype="commune" geoname="Vergongheon" code_insee="43258" code_canton="4317"/><polygon points="252,38 246,34 248,31 253,29 252,20 262,11 259,6 268,8 275,5 286,16 277,32 269,38 260,36 262,37 257,39 252,38" id="43261" class="commune" fill="steelblue" stroke-width="1" stroke="white" geotype="commune" geoname="Vézézoux" code_insee="43261" code_canton="4317"/></svg>