<?xml version="1.0" encoding="utf-8"?>
<svg version="1.1" id="svgmap" xmlns="http://www.w3.org/2000/svg" xmlns:xlink="http://www.w3.org/1999/xlink" x="0px" y="0px" width="100%" height="100%" viewBox="0 0 500 453">
<polygon points="275,121 297,121 304,109 315,104 319,107 360,107 380,96 391,96 402,102 411,103 425,99 428,102 446,107 464,99 471,101 481,97 495,104 500,113 488,140 480,139 473,169 480,175 475,184 480,194 478,200 455,205 445,210 427,221 401,207 396,200 402,199 403,195 392,188 355,192 356,189 345,188 346,185 337,180 314,176 303,187 303,192 298,195 294,194 289,190 290,181 245,161 246,159 234,159 228,149 247,144 252,136 275,121" id="44015" class="commune" fill="steelblue" stroke-width="1" stroke="white" geotype="commune" geoname="Blain" code_insee="44015" code_canton="4403"/><polygon points="187,378 130,372 131,355 152,356 152,348 162,340 175,338 183,315 191,321 220,323 234,327 240,323 246,326 243,337 248,341 244,349 237,365 223,379 213,384 187,378" id="44019" class="commune" fill="steelblue" stroke-width="1" stroke="white" geotype="commune" geoname="Bouée" code_insee="44019" code_canton="4403"/><polygon points="203,150 218,153 228,149 234,159 246,159 245,161 290,181 289,190 294,194 289,205 293,210 309,212 321,208 317,228 298,229 286,241 277,242 244,259 235,258 219,256 208,261 192,255 189,252 200,234 194,228 193,216 188,213 196,197 182,181 198,177 203,150" id="44023" class="commune" fill="steelblue" stroke-width="1" stroke="white" geotype="commune" geoname="Bouvron" code_insee="44023" code_canton="4403"/><polygon points="48,210 19,204 0,193 0,190 6,189 12,193 53,190 63,192 84,186 91,187 98,178 107,179 105,175 116,171 114,158 151,163 154,176 159,175 170,184 182,181 196,197 188,213 193,216 194,228 200,234 189,252 192,255 179,264 151,259 153,252 145,235 140,237 131,234 119,246 111,248 92,240 63,218 48,210" id="44025" class="commune" fill="steelblue" stroke-width="1" stroke="white" geotype="commune" geoname="Campbon" code_insee="44025" code_canton="4403"/><polygon points="77,366 71,365 70,341 79,338 76,336 80,319 71,306 94,301 91,289 100,282 85,271 92,240 111,248 119,246 131,234 140,237 145,235 153,252 151,259 139,259 139,269 135,274 142,282 130,295 121,304 115,324 95,346 95,363 85,361 81,366 77,366" id="44033" class="commune" fill="steelblue" stroke-width="1" stroke="white" geotype="commune" geoname="Chapelle-Launay" code_insee="44033" code_canton="4403"/><polygon points="213,384 223,379 237,365 244,349 250,351 250,348 267,343 281,342 314,318 326,315 340,319 343,330 354,330 359,334 361,328 365,332 378,342 374,352 351,367 320,374 307,383 269,393 261,401 278,415 292,420 282,422 274,422 255,412 233,393 213,384" id="44045" class="commune" fill="steelblue" stroke-width="1" stroke="white" geotype="commune" geoname="Cordemais" code_insee="44045" code_canton="4403"/><polygon points="402,102 391,96 380,96 360,107 319,107 315,104 304,109 297,121 275,121 248,97 254,90 267,88 273,82 303,69 303,59 315,44 336,41 353,34 351,19 358,8 375,0 415,5 410,21 399,24 391,23 390,27 411,28 409,41 414,57 408,72 421,76 415,78 409,87 402,86 402,102" id="44062" class="commune" fill="steelblue" stroke-width="1" stroke="white" geotype="commune" geoname="Gâvre" code_insee="44062" code_canton="4403"/><polygon points="130,372 95,363 95,346 115,324 121,304 130,295 137,302 148,302 155,310 157,303 175,300 183,315 175,338 162,340 152,348 152,356 131,355 130,372" id="44080" class="commune" fill="steelblue" stroke-width="1" stroke="white" geotype="commune" geoname="Lavau-sur-Loire" code_insee="44080" code_canton="4403"/><polygon points="244,349 248,341 243,337 246,326 240,323 234,327 220,323 219,310 224,307 243,277 233,274 238,265 258,258 266,261 284,253 290,254 294,269 289,279 342,313 348,318 340,319 326,315 314,318 281,342 267,343 250,348 250,351 244,349" id="44089" class="commune" fill="steelblue" stroke-width="1" stroke="white" geotype="commune" geoname="Malville" code_insee="44089" code_canton="4403"/><polygon points="71,306 70,301 10,288 10,283 33,274 42,260 31,255 33,249 49,237 29,232 40,225 48,210 63,218 92,240 85,271 100,282 91,289 94,301 71,306" id="44137" class="commune" fill="steelblue" stroke-width="1" stroke="white" geotype="commune" geoname="Prinquiau" code_insee="44137" code_canton="4403"/><polygon points="182,181 170,184 159,175 154,176 151,163 114,158 108,138 130,138 135,133 134,123 143,117 152,118 154,127 170,127 183,141 198,141 203,150 198,177 182,181" id="44139" class="commune" fill="steelblue" stroke-width="1" stroke="white" geotype="commune" geoname="Quilly" code_insee="44139" code_canton="4403"/><polygon points="284,430 282,422 292,420 278,415 261,401 269,393 307,383 320,374 351,367 374,352 378,342 428,380 445,387 444,392 438,407 426,418 417,437 388,441 377,450 377,453 365,453 357,449 357,452 352,449 353,452 335,449 304,430 284,430" id="44158" class="commune" fill="steelblue" stroke-width="1" stroke="white" geotype="commune" geoname="Saint-Étienne-de-Montluc" code_insee="44158" code_canton="4403"/><polygon points="151,259 179,264 192,255 208,261 219,256 235,258 238,265 233,274 243,277 224,307 219,310 220,323 191,321 183,315 175,300 157,303 155,310 148,302 137,302 130,295 142,282 135,274 139,269 139,259 151,259" id="44195" class="commune" fill="steelblue" stroke-width="1" stroke="white" geotype="commune" geoname="Savenay" code_insee="44195" code_canton="4403"/><polygon points="357,306 360,312 355,318 369,328 365,328 365,332 361,328 359,334 354,330 343,330 340,319 348,318 342,313 352,316 357,306" id="44203" class="commune" fill="steelblue" stroke-width="1" stroke="white" geotype="commune" geoname="Temple-de-Bretagne" code_insee="44203" code_canton="4403"/></svg>