<?xml version="1.0" encoding="utf-8"?>
<svg version="1.1" id="svgmap" xmlns="http://www.w3.org/2000/svg" xmlns:xlink="http://www.w3.org/1999/xlink" x="0px" y="0px" width="100%" height="100%" viewBox="0 0 500 253">
<polygon points="207,113 207,112 211,109 200,103 193,104 188,98 181,100 187,89 194,87 182,74 186,58 203,54 207,47 213,47 212,44 219,42 224,47 219,52 225,53 229,61 246,65 268,58 261,68 280,76 278,85 280,91 272,109 260,117 245,117 246,114 241,114 243,111 237,109 236,114 230,116 217,112 213,115 207,113" id="44006" class="commune" fill="steelblue" stroke-width="1" stroke="white" geotype="commune" geoname="Assérac" code_insee="44006" code_canton="4409"/><polygon points="378,90 371,76 384,69 394,68 393,65 399,66 424,61 439,61 442,65 437,77 429,79 426,84 445,89 446,100 435,108 417,112 386,98 378,90" id="44030" class="commune" fill="steelblue" stroke-width="1" stroke="white" geotype="commune" geoname="Chapelle-des-Marais" code_insee="44030" code_canton="4409"/><polygon points="281,218 274,216 267,222 254,236 255,243 241,245 233,251 226,251 224,247 221,247 224,250 209,249 211,251 205,253 198,252 187,243 170,242 165,239 159,238 157,236 162,236 157,234 149,236 149,235 151,234 151,234 147,232 147,236 135,232 137,228 145,230 162,226 161,227 162,227 163,228 164,228 165,222 163,224 150,225 158,223 155,221 156,221 158,221 159,221 159,220 158,218 158,217 156,219 157,217 155,217 153,223 147,225 134,224 136,222 133,222 123,234 128,224 134,220 143,220 142,213 150,210 157,194 181,173 186,163 183,157 208,158 210,167 227,172 232,160 273,137 281,138 280,141 286,140 293,146 293,150 287,155 275,158 269,168 257,168 256,164 245,180 253,180 253,183 260,179 267,183 274,172 294,170 316,176 318,171 328,168 334,168 336,176 313,189 307,197 291,202 281,218" id="44069" class="commune" fill="steelblue" stroke-width="1" stroke="white" geotype="commune" geoname="Guérande" code_insee="44069" code_canton="4409"/><polygon points="155,221 157,220 158,218 158,219 159,220 159,221 155,221" id="44069" class="commune" fill="steelblue" stroke-width="1" stroke="white" geotype="commune" geoname="Guérande" code_insee="44069" code_canton="4409"/><polygon points="354,0 356,0 362,3 367,0 373,7 380,3 389,6 394,3 401,5 402,9 390,15 413,24 393,37 397,42 394,46 400,47 399,52 393,55 393,65 394,68 384,69 371,76 378,90 383,107 367,123 363,121 352,117 346,119 332,115 334,125 330,124 323,127 308,128 302,126 289,134 286,140 280,141 281,138 273,137 279,133 274,129 277,124 272,121 265,123 260,117 272,109 280,91 278,85 280,76 261,68 268,58 278,56 295,67 299,63 312,61 324,62 334,59 340,55 338,33 348,26 354,17 356,4 354,0" id="44072" class="commune" fill="steelblue" stroke-width="1" stroke="white" geotype="commune" geoname="Herbignac" code_insee="44072" code_canton="4409"/><polygon points="207,112 207,113 203,129 191,137 188,145 179,148 175,150 163,148 162,150 153,152 134,149 130,138 137,121 145,120 153,111 160,112 164,108 167,108 171,102 170,107 177,112 175,114 183,110 189,115 202,110 207,112" id="44097" class="commune" fill="steelblue" stroke-width="1" stroke="white" geotype="commune" geoname="Mesquer" code_insee="44097" code_canton="4409"/><polygon points="0,114 4,111 8,113 5,115 0,114" id="44125" class="commune" fill="steelblue" stroke-width="1" stroke="white" geotype="commune" geoname="Piriac-sur-Mer" code_insee="44125" code_canton="4409"/><polygon points="162,150 154,162 140,165 137,162 126,160 117,165 112,164 104,166 101,163 87,163 71,154 87,143 86,146 90,145 87,144 90,144 91,145 90,146 96,144 124,126 137,121 130,138 134,149 153,152 162,150" id="44125" class="commune" fill="steelblue" stroke-width="1" stroke="white" geotype="commune" geoname="Piriac-sur-Mer" code_insee="44125" code_canton="4409"/><polygon points="455,188 455,193 459,195 453,201 464,210 459,207 442,211 438,201 429,206 433,210 418,217 419,220 410,213 399,212 396,206 391,206 392,203 382,196 371,197 368,194 368,182 364,181 358,188 353,189 357,192 355,195 342,199 332,182 336,176 338,168 334,167 335,164 329,161 336,159 333,157 348,155 355,149 356,137 365,129 364,127 358,128 354,123 363,121 367,123 383,107 378,90 386,98 417,112 435,108 446,100 462,108 479,124 472,128 475,133 483,134 487,128 500,139 490,155 498,165 477,167 475,169 462,168 452,181 451,187 455,188" id="44168" class="commune" fill="steelblue" stroke-width="1" stroke="white" geotype="commune" geoname="Saint-Joachim" code_insee="44168" code_canton="4409"/><polygon points="336,176 336,176 334,168 328,168 318,171 316,176 294,170 274,172 267,183 260,179 253,183 253,180 245,180 256,164 257,168 269,168 275,158 287,155 293,150 293,146 286,140 289,134 302,126 308,128 323,127 330,124 334,125 332,115 346,119 352,117 363,121 354,123 358,128 364,127 365,129 356,137 355,149 348,155 333,157 336,159 329,161 335,164 334,167 338,168 336,176" id="44175" class="commune" fill="steelblue" stroke-width="1" stroke="white" geotype="commune" geoname="Saint-Lyphard" code_insee="44175" code_canton="4409"/><polygon points="183,157 179,148 188,145 191,137 203,129 207,113 213,115 217,112 230,116 236,114 237,109 243,111 241,114 246,114 245,117 260,117 265,123 272,121 277,124 274,129 279,133 273,137 232,160 227,172 210,167 208,158 183,157" id="44183" class="commune" fill="steelblue" stroke-width="1" stroke="white" geotype="commune" geoname="Saint-Molf" code_insee="44183" code_canton="4409"/><polygon points="179,148 183,157 186,163 181,173 157,194 150,210 142,213 143,220 134,220 128,224 123,234 120,230 131,216 129,195 126,187 120,185 124,183 120,184 121,181 119,185 112,171 104,166 112,164 117,165 126,160 137,162 140,165 154,162 162,150 163,148 175,150 179,148" id="44211" class="commune" fill="steelblue" stroke-width="1" stroke="white" geotype="commune" geoname="Turballe" code_insee="44211" code_canton="4409"/></svg>