<?xml version="1.0" encoding="utf-8"?>
<svg version="1.1" id="svgmap" xmlns="http://www.w3.org/2000/svg" xmlns:xlink="http://www.w3.org/1999/xlink" x="0px" y="0px" width="100%" height="100%" viewBox="0 0 500 260">
<polygon points="284,53 282,47 287,38 280,33 287,18 299,14 299,2 330,0 361,34 386,37 371,50 383,60 394,66 419,62 437,70 423,94 384,109 385,117 324,116 315,68 284,53" id="44013" class="commune" fill="steelblue" stroke-width="1" stroke="white" geotype="commune" geoname="Besné" code_insee="44013" code_canton="4427"/><polygon points="284,53 315,68 324,116 385,117 484,139 486,147 500,167 494,197 499,199 485,204 485,244 408,226 292,222 259,139 242,135 248,129 219,113 222,104 205,91 217,83 222,62 232,55 263,77 284,53" id="44052" class="commune" fill="steelblue" stroke-width="1" stroke="white" geotype="commune" geoname="Donges" code_insee="44052" code_canton="4427"/><polygon points="80,158 71,153 71,144 99,158 123,158 131,163 136,157 153,156 176,141 184,143 183,128 195,122 189,120 203,107 190,95 205,91 222,104 219,113 248,129 242,135 259,139 292,222 200,237 143,259 122,237 122,221 115,219 145,197 135,198 129,183 122,185 124,179 113,171 80,158" id="44103" class="commune" fill="steelblue" stroke-width="1" stroke="white" geotype="commune" geoname="Montoir-de-Bretagne" code_insee="44103" code_canton="4427"/><polygon points="160,47 198,79 207,77 217,83 205,91 190,95 203,107 189,120 195,122 183,128 184,143 176,141 153,156 136,157 131,163 123,158 99,158 71,144 65,142 65,129 85,105 112,107 115,102 155,98 141,79 160,47" id="44176" class="commune" fill="steelblue" stroke-width="1" stroke="white" geotype="commune" geoname="Saint-Malo-de-Guersac" code_insee="44176" code_canton="4427"/><polygon points="80,158 113,171 124,179 122,185 129,183 135,198 145,197 115,219 60,260 46,254 45,245 15,230 2,206 0,200 29,186 20,178 39,169 47,188 80,181 90,186 68,168 80,158" id="44210" class="commune" fill="steelblue" stroke-width="1" stroke="white" geotype="commune" geoname="Trignac" code_insee="44210" code_canton="4427"/></svg>