<?xml version="1.0" encoding="utf-8"?>
<svg version="1.1" id="svgmap" xmlns="http://www.w3.org/2000/svg" xmlns:xlink="http://www.w3.org/1999/xlink" x="0px" y="0px" width="100%" height="100%" viewBox="0 0 500 386">
<polygon points="15,184 27,174 45,178 61,173 74,181 109,166 125,167 145,152 157,160 184,128 194,126 210,134 210,124 242,119 248,133 279,134 272,151 207,200 191,225 157,211 147,223 124,218 87,233 25,247 4,214 12,208 0,199 15,184" id="45092" class="commune" fill="steelblue" stroke-width="1" stroke="white" geotype="commune" geoname="Chevillon-sur-Huillard" code_insee="45092" code_canton="4511"/><polygon points="187,280 167,296 149,284 122,282 94,262 103,260 89,250 87,233 124,218 147,223 157,211 191,225 200,234 193,244 208,252 210,265 187,280" id="45185" class="commune" fill="steelblue" stroke-width="1" stroke="white" geotype="commune" geoname="Lombreuil" code_insee="45185" code_canton="4511"/><polygon points="391,93 401,94 402,85 409,90 447,81 447,66 500,66 481,74 486,80 476,80 470,88 476,121 418,131 417,124 394,119 398,99 391,93" id="45208" class="commune" fill="steelblue" stroke-width="1" stroke="white" geotype="commune" geoname="Montargis" code_insee="45208" code_canton="4511"/><polygon points="471,222 477,235 462,260 484,278 486,294 418,286 379,296 364,303 347,295 368,243 397,210 408,199 458,200 471,222" id="45216" class="commune" fill="steelblue" stroke-width="1" stroke="white" geotype="commune" geoname="Mormant-sur-Vernisson" code_insee="45216" code_canton="4511"/><polygon points="360,45 347,47 357,74 347,84 375,87 351,108 330,111 304,104 295,117 276,125 279,134 248,133 242,119 210,124 211,106 192,100 186,79 156,62 187,30 177,23 202,0 216,1 208,9 217,11 224,3 241,3 256,8 253,13 291,17 308,28 317,24 360,45" id="45247" class="commune" fill="steelblue" stroke-width="1" stroke="white" geotype="commune" geoname="Pannes" code_insee="45247" code_canton="4511"/><polygon points="210,124 210,134 194,126 184,128 157,160 145,152 125,167 109,166 74,181 61,173 45,178 27,174 45,139 40,131 50,130 60,114 62,91 84,88 109,70 118,73 150,62 156,62 186,79 192,100 211,106 210,124" id="45293" class="commune" fill="steelblue" stroke-width="1" stroke="white" geotype="commune" geoname="Saint-Maurice-sur-Fessard" code_insee="45293" code_canton="4511"/><polygon points="471,386 430,375 424,369 405,373 389,334 376,329 379,296 418,286 486,294 500,305 483,333 471,386" id="45312" class="commune" fill="steelblue" stroke-width="1" stroke="white" geotype="commune" geoname="Solterre" code_insee="45312" code_canton="4511"/><polygon points="418,131 403,180 408,199 397,210 400,196 340,181 313,162 272,151 279,134 276,125 295,117 304,104 330,111 351,108 375,87 391,93 398,99 394,119 417,124 418,131" id="45338" class="commune" fill="steelblue" stroke-width="1" stroke="white" geotype="commune" geoname="Villemandeur" code_insee="45338" code_canton="4511"/><polygon points="397,210 368,243 347,295 296,289 294,312 263,313 246,298 230,302 234,294 188,313 182,304 204,293 187,280 210,265 208,252 193,244 200,234 191,225 207,200 272,151 313,162 340,181 400,196 397,210" id="45345" class="commune" fill="steelblue" stroke-width="1" stroke="white" geotype="commune" geoname="Vimory" code_insee="45345" code_canton="4511"/></svg>