<?xml version="1.0" encoding="utf-8"?>
<svg version="1.1" id="svgmap" xmlns="http://www.w3.org/2000/svg" xmlns:xlink="http://www.w3.org/1999/xlink" x="0px" y="0px" width="100%" height="100%" viewBox="0 0 500 407">
<polygon points="99,90 107,69 128,71 144,66 159,67 163,71 175,65 165,79 176,79 177,92 184,94 184,98 175,97 173,101 168,102 160,97 155,101 142,103 139,103 142,99 126,97 127,93 99,90" id="45005" class="commune" fill="steelblue" stroke-width="1" stroke="white" geotype="commune" geoname="Andonville" code_insee="45005" code_canton="4517"/><polygon points="69,280 68,276 74,275 93,271 90,265 100,261 106,263 113,260 111,253 127,248 153,245 157,252 171,252 158,279 138,311 127,305 110,307 104,299 110,297 104,291 99,293 95,290 88,279 74,285 69,280" id="45009" class="commune" fill="steelblue" stroke-width="1" stroke="white" geotype="commune" geoname="Aschères-le-Marché" code_insee="45009" code_canton="4517"/><polygon points="215,252 223,251 224,254 237,251 255,253 260,260 277,257 275,253 296,242 303,242 304,245 313,244 324,267 319,268 319,280 310,284 309,289 303,286 307,283 303,285 289,282 283,271 281,267 256,273 242,265 236,266 238,273 222,277 236,294 225,297 210,298 217,293 209,286 217,283 212,277 220,277 215,252" id="45011" class="commune" fill="steelblue" stroke-width="1" stroke="white" geotype="commune" geoname="Attray" code_insee="45011" code_canton="4517"/><polygon points="361,96 356,93 359,89 357,78 373,73 393,71 392,66 398,65 405,55 416,52 425,53 427,57 435,57 434,64 447,73 437,82 427,77 420,84 416,83 409,92 398,92 397,98 385,100 382,93 364,93 361,96" id="45012" class="commune" fill="steelblue" stroke-width="1" stroke="white" geotype="commune" geoname="Audeville" code_insee="45012" code_canton="4517"/><polygon points="173,101 175,97 184,98 184,94 177,92 176,79 165,79 175,65 177,59 220,59 222,54 234,46 249,45 245,57 243,63 264,66 263,68 283,75 277,79 279,82 292,80 285,93 277,90 267,98 261,96 257,105 251,104 248,99 242,100 239,95 231,102 215,101 208,112 204,110 201,113 185,109 182,112 178,108 188,98 173,101" id="45015" class="commune" fill="steelblue" stroke-width="1" stroke="white" geotype="commune" geoname="Autruy-sur-Juine" code_insee="45015" code_canton="4517"/><polygon points="204,184 199,184 196,196 193,195 191,207 210,207 209,212 215,223 234,222 235,226 258,223 263,230 221,241 223,251 215,252 197,255 199,248 186,249 185,244 174,245 171,252 157,252 153,245 127,248 123,239 131,237 131,228 137,228 134,202 124,202 123,190 124,178 144,179 149,170 174,172 171,178 204,184" id="45025" class="commune" fill="steelblue" stroke-width="1" stroke="white" geotype="commune" geoname="Bazoches-les-Gallerandes" code_insee="45025" code_canton="4517"/><polygon points="75,130 75,125 69,125 73,123 69,122 70,117 74,106 92,98 99,90 127,93 126,97 118,114 110,117 95,116 87,123 86,128 77,127 75,130" id="45037" class="commune" fill="steelblue" stroke-width="1" stroke="white" geotype="commune" geoname="Boisseaux" code_insee="45037" code_canton="4517"/><polygon points="175,368 170,378 173,388 126,390 120,358 108,342 132,319 150,329 144,331 154,336 149,341 165,349 161,352 165,353 168,362 175,368" id="45044" class="commune" fill="steelblue" stroke-width="1" stroke="white" geotype="commune" geoname="Bougy-lez-Neuville" code_insee="45044" code_canton="4517"/><polygon points="409,92 416,83 420,84 427,77 437,82 447,73 450,75 453,74 451,71 478,69 475,73 482,78 489,76 480,84 485,87 479,85 492,90 483,97 500,101 496,107 489,106 483,112 449,125 437,123 408,108 409,92" id="45065" class="commune" fill="steelblue" stroke-width="1" stroke="white" geotype="commune" geoname="Césarville-Dossainville" code_insee="45065" code_canton="4517"/><polygon points="208,112 215,101 231,102 239,95 242,100 248,99 251,104 257,105 260,116 273,118 276,115 292,118 292,122 297,122 294,133 292,135 287,134 279,150 276,148 269,157 252,153 239,154 234,150 239,143 228,140 230,134 217,132 217,128 208,129 216,115 208,112" id="45080" class="commune" fill="steelblue" stroke-width="1" stroke="white" geotype="commune" geoname="Charmont-en-Beauce" code_insee="45080" code_canton="4517"/><polygon points="258,223 235,226 234,222 215,223 209,212 210,207 254,205 252,207 258,223" id="45086" class="commune" fill="steelblue" stroke-width="1" stroke="white" geotype="commune" geoname="Châtillon-le-Roi" code_insee="45086" code_canton="4517"/><polygon points="78,205 82,203 80,197 107,196 108,193 114,193 116,189 123,190 124,202 134,202 137,228 131,228 131,237 123,239 108,241 107,237 101,237 100,231 73,226 78,205" id="45088" class="commune" fill="steelblue" stroke-width="1" stroke="white" geotype="commune" geoname="Chaussy" code_insee="45088" code_canton="4517"/><polygon points="158,279 171,252 174,245 185,244 186,249 199,248 197,255 215,252 220,277 212,277 217,283 209,286 217,293 210,298 199,304 185,294 175,289 171,291 166,279 158,279" id="45118" class="commune" fill="steelblue" stroke-width="1" stroke="white" geotype="commune" geoname="Crottes-en-Pithiverais" code_insee="45118" code_canton="4517"/><polygon points="450,260 439,265 437,263 431,261 434,251 415,248 413,241 405,239 401,242 396,241 380,229 395,216 401,216 419,215 423,204 427,203 440,201 462,208 470,205 473,204 479,210 472,219 472,223 479,224 473,229 467,228 462,234 452,232 443,242 454,246 451,254 454,256 450,260" id="45119" class="commune" fill="steelblue" stroke-width="1" stroke="white" geotype="commune" geoname="Dadonville" code_insee="45119" code_canton="4517"/><polygon points="437,123 430,133 437,137 433,140 423,137 405,146 401,145 408,165 397,165 396,161 387,162 380,158 357,147 353,136 362,119 376,123 382,109 388,109 386,104 392,105 397,98 398,92 409,92 408,108 437,123" id="45133" class="commune" fill="steelblue" stroke-width="1" stroke="white" geotype="commune" geoname="Engenville" code_insee="45133" code_canton="4517"/><polygon points="110,117 118,114 126,97 142,99 139,103 142,103 155,101 160,97 168,102 173,101 188,98 178,108 182,112 168,125 169,137 159,135 155,141 142,140 139,136 114,132 115,130 111,129 114,119 110,117" id="45135" class="commune" fill="steelblue" stroke-width="1" stroke="white" geotype="commune" geoname="Erceville" code_insee="45135" code_canton="4517"/><polygon points="210,207 191,207 193,195 196,196 199,184 204,184 210,181 205,179 207,176 217,179 216,166 223,162 220,159 224,151 239,154 252,153 269,157 267,164 273,167 269,179 295,187 310,188 310,196 302,197 297,202 279,200 275,203 255,202 254,205 210,207" id="45160" class="commune" fill="steelblue" stroke-width="1" stroke="white" geotype="commune" geoname="Greneville-en-Beauce" code_insee="45160" code_canton="4517"/><polygon points="269,157 276,148 279,150 287,134 292,135 294,133 297,122 292,122 292,118 323,119 339,111 351,117 362,119 353,136 357,147 380,158 377,162 370,160 365,163 362,172 358,171 354,179 344,179 342,182 334,183 335,185 331,183 326,188 316,184 310,188 295,187 269,179 273,167 267,164 269,157" id="45162" class="commune" fill="steelblue" stroke-width="1" stroke="white" geotype="commune" geoname="Guigneville" code_insee="45162" code_canton="4517"/><polygon points="361,96 364,93 382,93 385,100 397,98 392,105 386,104 388,109 382,109 376,123 362,119 351,117 355,113 348,106 349,100 357,102 361,96" id="45170" class="commune" fill="steelblue" stroke-width="1" stroke="white" geotype="commune" geoname="Intville-la-Guétard" code_insee="45170" code_canton="4517"/><polygon points="223,251 221,241 263,230 258,223 252,207 254,205 255,202 275,203 279,200 297,202 298,208 294,210 306,222 302,230 304,233 299,235 296,242 275,253 277,257 260,260 255,253 237,251 224,254 223,251" id="45174" class="commune" fill="steelblue" stroke-width="1" stroke="white" geotype="commune" geoname="Jouy-en-Pithiverais" code_insee="45174" code_canton="4517"/><polygon points="239,154 224,151 220,159 208,151 205,153 197,150 208,129 217,128 217,132 230,134 228,140 239,143 234,150 239,154" id="45181" class="commune" fill="steelblue" stroke-width="1" stroke="white" geotype="commune" geoname="Léouville" code_insee="45181" code_canton="4517"/><polygon points="283,271 262,286 250,294 236,294 222,277 238,273 236,266 242,265 256,273 281,267 283,271" id="45214" class="commune" fill="steelblue" stroke-width="1" stroke="white" geotype="commune" geoname="Montigny" code_insee="45214" code_canton="4517"/><polygon points="257,105 261,96 267,98 277,90 285,93 285,95 299,101 300,98 309,100 317,99 317,89 340,96 340,105 348,106 355,113 351,117 339,111 323,119 292,118 276,115 273,118 260,116 257,105" id="45217" class="commune" fill="steelblue" stroke-width="1" stroke="white" geotype="commune" geoname="Morville-en-Beauce" code_insee="45217" code_canton="4517"/><polygon points="132,319 138,311 158,279 166,279 171,291 175,289 185,294 199,304 210,298 225,297 234,304 226,309 230,311 225,313 227,316 212,344 217,346 215,358 223,359 217,369 219,377 198,368 191,371 175,368 168,362 165,353 161,352 165,349 149,341 154,336 144,331 150,329 132,319" id="45224" class="commune" fill="steelblue" stroke-width="1" stroke="white" geotype="commune" geoname="Neuville-aux-Bois" code_insee="45224" code_canton="4517"/><polygon points="127,248 111,253 113,260 106,263 100,261 90,265 93,271 74,275 73,271 66,272 65,267 62,268 58,259 56,247 60,246 61,242 67,225 73,226 100,231 101,237 107,237 108,241 123,239 127,248" id="45231" class="commune" fill="steelblue" stroke-width="1" stroke="white" geotype="commune" geoname="Oison" code_insee="45231" code_canton="4517"/><polygon points="70,145 75,130 77,127 86,128 87,123 95,116 110,117 114,119 111,129 115,130 114,132 139,136 142,140 155,141 159,135 169,137 168,125 182,112 185,109 201,113 204,110 208,112 216,115 208,129 197,150 205,153 208,151 220,159 223,162 216,166 217,179 207,176 205,179 210,181 204,184 171,178 174,172 149,170 144,179 124,178 123,190 116,189 114,193 108,193 107,196 80,197 80,192 73,191 73,187 57,184 59,178 56,177 64,167 75,169 70,178 80,183 90,167 81,162 76,148 70,145" id="45240" class="commune" fill="steelblue" stroke-width="1" stroke="white" geotype="commune" geoname="Outarville" code_insee="45240" code_canton="4517"/><polygon points="315,38 309,50 306,50 305,48 299,48 296,43 294,34 315,38" id="45246" class="commune" fill="steelblue" stroke-width="1" stroke="white" geotype="commune" geoname="Pannecières" code_insee="45246" code_canton="4517"/><polygon points="292,80 279,82 277,79 283,75 263,68 264,66 243,63 245,57 306,55 302,69 295,80 292,80" id="45246" class="commune" fill="steelblue" stroke-width="1" stroke="white" geotype="commune" geoname="Pannecières" code_insee="45246" code_canton="4517"/><polygon points="430,176 424,181 432,186 420,196 423,198 433,199 434,201 427,203 423,204 419,215 401,216 387,190 391,187 387,186 391,179 396,183 399,180 402,183 405,180 407,183 413,181 412,177 416,177 418,174 430,176" id="45252" class="commune" fill="steelblue" stroke-width="1" stroke="white" geotype="commune" geoname="Pithiviers" code_insee="45252" code_canton="4517"/><polygon points="396,241 389,247 372,246 369,248 368,246 362,246 366,241 359,241 361,239 346,236 346,234 335,235 329,230 335,228 334,225 326,228 325,225 320,225 320,221 306,222 294,210 298,208 297,202 302,197 310,196 310,188 316,184 326,188 331,183 335,185 334,183 342,182 344,179 354,179 358,171 362,172 365,163 370,160 377,162 380,158 387,162 396,161 397,165 408,165 414,165 418,174 416,177 412,177 413,181 407,183 405,180 402,183 399,180 396,183 391,179 387,186 391,187 387,190 401,216 395,216 380,229 396,241" id="45253" class="commune" fill="steelblue" stroke-width="1" stroke="white" geotype="commune" geoname="Pithiviers-le-Vieil" code_insee="45253" code_canton="4517"/><polygon points="406,18 396,34 379,31 375,40 363,39 363,42 344,36 329,37 333,28 330,28 330,25 337,20 337,15 355,7 357,3 354,0 360,0 360,4 366,5 370,13 379,10 389,21 396,15 402,18 402,14 406,18" id="45263" class="commune" fill="steelblue" stroke-width="1" stroke="white" geotype="commune" geoname="Rouvres-Saint-Jean" code_insee="45263" code_canton="4517"/><polygon points="80,330 83,334 89,334 89,337 105,346 108,342 120,358 126,390 112,407 109,399 119,395 117,393 104,393 95,400 90,397 80,405 65,403 52,407 66,391 49,366 37,363 35,355 34,349 41,347 38,344 43,343 39,334 49,328 57,335 76,329 80,330" id="45289" class="commune" fill="steelblue" stroke-width="1" stroke="white" geotype="commune" geoname="Saint-Lyé-la-Forêt" code_insee="45289" code_canton="4517"/><polygon points="405,55 398,65 392,66 393,71 373,73 357,78 345,79 342,85 333,83 336,79 322,70 302,69 306,55 306,50 309,50 315,38 317,35 329,40 329,37 344,36 363,42 363,39 375,40 379,31 396,34 413,34 406,43 405,55" id="45310" class="commune" fill="steelblue" stroke-width="1" stroke="white" geotype="commune" geoname="Sermaises" code_insee="45310" code_canton="4517"/><polygon points="357,78 359,89 356,93 361,96 357,102 349,100 348,106 340,105 340,96 317,89 317,99 309,100 300,98 299,101 285,95 285,93 292,80 295,80 302,69 322,70 336,79 333,83 342,85 345,79 357,78" id="45320" class="commune" fill="steelblue" stroke-width="1" stroke="white" geotype="commune" geoname="Thignonville" code_insee="45320" code_canton="4517"/><polygon points="6,220 13,210 15,212 25,203 44,210 49,202 55,204 57,200 78,205 73,226 67,225 61,242 20,235 2,235 5,231 0,227 6,220" id="45325" class="commune" fill="steelblue" stroke-width="1" stroke="white" geotype="commune" geoname="Tivernon" code_insee="45325" code_canton="4517"/><polygon points="138,311 132,319 108,342 105,346 89,337 89,334 83,334 80,330 80,316 89,311 89,306 104,299 110,307 127,305 138,311" id="45342" class="commune" fill="steelblue" stroke-width="1" stroke="white" geotype="commune" geoname="Villereau" code_insee="45342" code_canton="4517"/></svg>