<?xml version="1.0" encoding="utf-8"?>
<svg version="1.1" id="svgmap" xmlns="http://www.w3.org/2000/svg" xmlns:xlink="http://www.w3.org/1999/xlink" x="0px" y="0px" width="100%" height="100%" viewBox="0 0 500 314">
<polygon points="183,314 181,288 144,252 179,211 155,191 203,182 382,186 398,213 183,314" id="45075" class="commune" fill="steelblue" stroke-width="1" stroke="white" geotype="commune" geoname="Chapelle-Saint-Mesmin" code_insee="45075" code_canton="4519"/><polygon points="28,111 58,105 71,88 76,94 98,79 132,82 133,68 240,46 255,52 320,0 357,48 402,75 366,115 382,186 203,182 155,191 114,193 108,177 54,157 0,112 28,111" id="45169" class="commune" fill="steelblue" stroke-width="1" stroke="white" geotype="commune" geoname="Ingré" code_insee="45169" code_canton="4519"/><polygon points="402,75 442,85 488,75 500,98 490,137 452,181 454,204 398,213 382,186 366,115 402,75" id="45285" class="commune" fill="steelblue" stroke-width="1" stroke="white" geotype="commune" geoname="Saint-Jean-de-la-Ruelle" code_insee="45285" code_canton="4519"/></svg>