<?xml version="1.0" encoding="utf-8"?>
<svg version="1.1" id="svgmap" xmlns="http://www.w3.org/2000/svg" xmlns:xlink="http://www.w3.org/1999/xlink" x="0px" y="0px" width="100%" height="100%" viewBox="0 0 500 274">
<polygon points="98,214 102,205 108,201 111,189 139,200 148,194 162,198 169,191 175,190 177,194 190,192 209,183 223,192 223,198 199,212 202,224 194,225 186,229 178,228 155,224 153,220 130,212 114,215 103,211 99,214 98,214" id="47023" class="commune" fill="steelblue" stroke-width="1" stroke="white" geotype="commune" geoname="Beaugas" code_insee="47023" code_canton="4710"/><polygon points="223,192 209,183 215,174 211,173 198,158 198,147 208,149 213,155 229,161 233,158 244,160 244,167 251,175 244,183 248,189 237,192 223,192" id="47033" class="commune" fill="steelblue" stroke-width="1" stroke="white" geotype="commune" geoname="Boudy-de-Beauregard" code_insee="47033" code_canton="4710"/><polygon points="264,77 266,78 239,90 225,101 217,98 213,90 204,92 195,85 197,82 194,75 198,70 194,67 200,66 200,59 214,52 225,56 230,55 235,57 241,68 264,77" id="47037" class="commune" fill="steelblue" stroke-width="1" stroke="white" geotype="commune" geoname="Bournel" code_insee="47037" code_canton="4710"/><polygon points="200,146 198,147 198,158 211,173 215,174 209,183 190,192 177,194 175,190 169,191 162,198 148,194 137,187 140,185 140,180 132,172 145,163 152,168 157,166 159,161 152,154 145,157 121,141 135,143 165,141 175,138 178,140 188,140 200,146" id="47048" class="commune" fill="steelblue" stroke-width="1" stroke="white" geotype="commune" geoname="Cancon" code_insee="47048" code_canton="4710"/><polygon points="234,246 227,242 218,235 213,239 201,238 202,224 199,212 223,198 223,192 237,192 248,189 250,197 263,198 263,208 273,213 261,217 250,217 246,219 247,226 242,224 236,231 248,232 252,237 234,246 234,246" id="47055" class="commune" fill="steelblue" stroke-width="1" stroke="white" geotype="commune" geoname="Castelnaud-de-Gratecambe" code_insee="47055" code_canton="4710"/><polygon points="371,124 350,111 343,110 343,102 350,97 347,91 363,84 376,81 377,85 385,88 384,93 389,96 371,124" id="47080" class="commune" fill="steelblue" stroke-width="1" stroke="white" geotype="commune" geoname="Dévillac" code_insee="47080" code_canton="4710"/><polygon points="214,52 212,47 214,46 208,38 194,29 195,27 199,29 203,26 212,28 218,25 233,29 252,36 254,44 242,58 238,60 235,57 230,55 225,56 214,52" id="47083" class="commune" fill="steelblue" stroke-width="1" stroke="white" geotype="commune" geoname="Doudrac" code_insee="47083" code_canton="4710"/><polygon points="420,112 433,113 436,123 447,122 479,133 488,130 496,137 497,142 486,173 488,175 479,178 477,182 463,171 468,167 466,165 450,158 444,161 439,159 435,147 433,141 416,136 408,133 416,127 420,112" id="47109" class="commune" fill="steelblue" stroke-width="1" stroke="white" geotype="commune" geoname="Gavaudun" code_insee="47109" code_canton="4710"/><polygon points="349,208 363,200 381,195 391,203 403,201 407,207 410,205 419,216 410,219 390,226 365,226 361,217 349,208" id="47124" class="commune" fill="steelblue" stroke-width="1" stroke="white" geotype="commune" geoname="Lacaussade" code_insee="47124" code_canton="4710"/><polygon points="343,110 350,111 371,124 361,136 354,138 356,143 346,148 351,155 345,158 342,166 336,170 324,167 324,157 319,152 309,141 311,138 304,117 319,120 323,111 332,109 338,112 343,110" id="47141" class="commune" fill="steelblue" stroke-width="1" stroke="white" geotype="commune" geoname="Laussou" code_insee="47141" code_canton="4710"/><polygon points="233,29 245,27 253,26 264,28 267,26 281,28 272,32 277,42 267,49 258,50 257,53 264,59 264,62 275,64 269,73 264,77 241,68 235,57 238,60 242,58 254,44 252,36 233,29" id="47164" class="commune" fill="steelblue" stroke-width="1" stroke="white" geotype="commune" geoname="Mazières-Naresse" code_insee="47164" code_canton="4710"/><polygon points="98,214 98,214 76,204 62,204 59,197 43,198 35,195 0,164 0,164 24,146 29,152 50,155 61,146 79,159 87,157 94,164 102,161 103,158 109,160 115,174 95,179 98,192 108,201 102,205 98,214" id="47170" class="commune" fill="steelblue" stroke-width="1" stroke="white" geotype="commune" geoname="Monbahus" code_insee="47170" code_canton="4710"/><polygon points="381,195 363,200 349,208 334,217 330,224 333,235 329,252 334,260 338,266 334,267 332,274 313,265 308,260 313,255 300,249 303,242 288,238 280,223 281,214 273,213 263,208 263,198 250,197 248,189 244,183 251,175 258,179 266,175 268,163 273,164 268,154 279,141 300,157 304,153 306,156 312,150 319,152 324,157 324,167 336,170 342,166 345,158 351,155 363,162 364,170 376,173 380,182 377,192 381,195" id="47175" class="commune" fill="steelblue" stroke-width="1" stroke="white" geotype="commune" geoname="Monflanquin" code_insee="47175" code_canton="4710"/><polygon points="410,219 419,216 430,214 447,211 453,218 448,229 466,238 463,244 474,249 470,254 460,257 448,255 441,259 431,252 424,229 410,219" id="47178" class="commune" fill="steelblue" stroke-width="1" stroke="white" geotype="commune" geoname="Monségur" code_insee="47178" code_canton="4710"/><polygon points="416,136 433,141 435,147 423,151 430,162 422,176 429,184 429,188 425,187 430,196 427,202 430,214 419,216 410,205 407,207 403,201 391,203 381,195 377,192 380,182 376,173 391,164 403,166 399,158 402,146 411,146 410,140 416,136" id="47181" class="commune" fill="steelblue" stroke-width="1" stroke="white" geotype="commune" geoname="Montagnac-sur-Lède" code_insee="47181" code_canton="4710"/><polygon points="195,85 204,92 213,90 217,98 225,101 239,90 266,78 267,87 262,91 255,105 260,112 247,120 248,125 233,124 220,119 215,120 211,114 204,120 199,118 192,110 197,95 196,90 193,88 195,85" id="47184" class="commune" fill="steelblue" stroke-width="1" stroke="white" geotype="commune" geoname="Montaut" code_insee="47184" code_canton="4710"/><polygon points="104,149 99,154 103,158 102,161 94,164 87,157 79,159 61,146 50,155 54,146 60,142 73,140 77,135 82,136 86,130 91,129 94,132 87,137 100,141 102,143 99,145 104,149" id="47192" class="commune" fill="steelblue" stroke-width="1" stroke="white" geotype="commune" geoname="Monviel" code_insee="47192" code_canton="4710"/><polygon points="104,149 121,141 145,157 152,154 159,161 157,166 152,168 145,163 132,172 140,180 140,185 137,187 148,194 139,200 111,189 108,201 98,192 95,179 115,174 109,160 103,158 99,154 104,149" id="47193" class="commune" fill="steelblue" stroke-width="1" stroke="white" geotype="commune" geoname="Moulinet" code_insee="47193" code_canton="4710"/><polygon points="178,228 186,229 194,225 202,224 201,238 213,239 218,235 227,242 197,257 191,267 187,268 174,263 168,258 170,255 176,251 175,243 180,238 178,228" id="47198" class="commune" fill="steelblue" stroke-width="1" stroke="white" geotype="commune" geoname="Pailloles" code_insee="47198" code_canton="4710"/><polygon points="414,36 403,39 406,52 395,53 378,57 366,54 347,56 341,45 342,39 347,37 359,33 377,34 385,28 393,35 414,36" id="47200" class="commune" fill="steelblue" stroke-width="1" stroke="white" geotype="commune" geoname="Parranquet" code_insee="47200" code_canton="4710"/><polygon points="389,96 398,93 400,96 399,104 392,106 394,111 406,109 420,112 416,127 408,133 416,136 410,140 411,146 402,146 399,158 403,166 391,164 376,173 364,170 363,162 351,155 346,148 356,143 354,138 361,136 371,124 389,96" id="47202" class="commune" fill="steelblue" stroke-width="1" stroke="white" geotype="commune" geoname="Paulhiac" code_insee="47202" code_canton="4710"/><polygon points="347,37 342,39 341,45 347,56 341,56 332,60 320,58 322,49 313,46 315,36 298,30 281,28 299,21 317,25 317,13 335,20 343,18 341,27 347,37" id="47219" class="commune" fill="steelblue" stroke-width="1" stroke="white" geotype="commune" geoname="Rayet" code_insee="47219" code_canton="4710"/><polygon points="269,73 275,64 264,62 264,59 257,53 258,50 267,49 277,42 272,32 281,28 298,30 315,36 313,46 322,49 320,58 309,58 307,62 299,63 288,71 281,69 269,73" id="47223" class="commune" fill="steelblue" stroke-width="1" stroke="white" geotype="commune" geoname="Rives" code_insee="47223" code_canton="4710"/><polygon points="365,226 390,226 410,219 424,229 431,252 426,258 428,261 423,265 426,272 422,274 414,274 401,267 391,267 381,263 376,254 375,238 352,231 365,226" id="47230" class="commune" fill="steelblue" stroke-width="1" stroke="white" geotype="commune" geoname="Saint-Aubin" code_insee="47230" code_canton="4710"/><polygon points="343,110 338,112 332,109 323,111 319,120 304,117 293,114 294,108 291,103 287,104 285,94 284,91 288,86 322,74 339,80 347,91 350,97 343,102 343,110" id="47240" class="commune" fill="steelblue" stroke-width="1" stroke="white" geotype="commune" geoname="Saint-Étienne-de-Villeréal" code_insee="47240" code_canton="4710"/><polygon points="198,147 200,146 204,129 196,119 199,118 204,120 211,114 215,120 220,119 233,124 248,125 247,120 260,112 255,105 262,91 267,87 269,91 279,93 280,96 285,94 287,104 291,103 294,108 293,114 304,117 311,138 309,141 319,152 312,150 306,156 304,153 300,157 279,141 268,154 273,164 268,163 266,175 258,179 251,175 244,167 244,160 233,158 229,161 213,155 208,149 198,147" id="47241" class="commune" fill="steelblue" stroke-width="1" stroke="white" geotype="commune" geoname="Saint-Eutrope-de-Born" code_insee="47241" code_canton="4710"/><polygon points="395,53 398,66 393,69 399,72 392,72 376,81 363,84 356,69 346,66 341,56 347,56 366,54 378,57 395,53" id="47256" class="commune" fill="steelblue" stroke-width="1" stroke="white" geotype="commune" geoname="Saint-Martin-de-Villeréal" code_insee="47256" code_canton="4710"/><polygon points="135,143 121,141 104,149 99,145 102,143 100,141 87,137 94,132 91,129 100,125 106,114 127,110 130,113 128,126 131,140 135,143" id="47259" class="commune" fill="steelblue" stroke-width="1" stroke="white" geotype="commune" geoname="Saint-Maurice-de-Lestapel" code_insee="47259" code_canton="4710"/><polygon points="475,213 456,208 447,211 430,214 427,202 430,196 425,187 429,188 429,184 422,176 430,162 423,151 435,147 439,159 444,161 450,158 466,165 468,167 463,171 477,182 479,178 488,175 500,196 491,195 475,213" id="47284" class="commune" fill="steelblue" stroke-width="1" stroke="white" geotype="commune" geoname="Salles" code_insee="47284" code_canton="4710"/><polygon points="234,246 252,237 248,232 236,231 242,224 247,226 246,219 250,217 261,217 273,213 281,214 280,223 288,238 303,242 300,249 297,251 286,250 283,259 279,261 272,262 271,259 259,263 254,260 249,249 234,246" id="47291" class="commune" fill="steelblue" stroke-width="1" stroke="white" geotype="commune" geoname="Sauvetat-sur-Lède" code_insee="47291" code_canton="4710"/><polygon points="349,208 361,217 365,226 352,231 375,238 376,254 352,254 344,258 334,260 329,252 333,235 330,224 334,217 349,208" id="47295" class="commune" fill="steelblue" stroke-width="1" stroke="white" geotype="commune" geoname="Savignac-sur-Leyze" code_insee="47295" code_canton="4710"/><polygon points="347,37 341,27 343,18 342,11 353,0 369,4 374,7 376,4 387,11 391,19 385,28 377,34 359,33 347,37" id="47311" class="commune" fill="steelblue" stroke-width="1" stroke="white" geotype="commune" geoname="Tourliac" code_insee="47311" code_canton="4710"/><polygon points="266,78 264,77 269,73 281,69 288,71 299,63 307,62 309,58 320,58 332,60 341,56 346,66 356,69 363,84 347,91 339,80 322,74 288,86 284,91 285,94 280,96 279,93 269,91 267,87 266,78" id="47324" class="commune" fill="steelblue" stroke-width="1" stroke="white" geotype="commune" geoname="Villeréal" code_insee="47324" code_canton="4710"/></svg>