<?xml version="1.0" encoding="utf-8"?>
<svg version="1.1" id="svgmap" xmlns="http://www.w3.org/2000/svg" xmlns:xlink="http://www.w3.org/1999/xlink" x="0px" y="0px" width="100%" height="100%" viewBox="0 0 500 386">
<polygon points="41,142 41,138 50,137 59,130 69,130 65,118 57,108 57,106 64,105 51,98 40,96 46,83 62,86 58,94 72,94 76,76 86,75 96,82 115,77 128,83 123,90 128,95 110,100 117,109 126,111 115,116 121,125 112,120 96,119 93,137 79,150 65,155 65,150 41,142" id="48017" class="commune" fill="steelblue" stroke-width="1" stroke="white" geotype="commune" geoname="Banassac" code_insee="48017" code_canton="4802"/><polygon points="27,144 27,140 12,136 16,133 16,125 33,118 34,107 24,99 26,93 34,98 49,101 51,98 64,105 57,106 57,108 65,118 69,130 59,130 50,137 41,138 41,142 27,144" id="48033" class="commune" fill="steelblue" stroke-width="1" stroke="white" geotype="commune" geoname="Canilhac" code_insee="48033" code_canton="4802"/><polygon points="121,125 115,116 126,111 117,109 110,100 128,95 123,90 128,83 115,77 104,62 107,54 98,47 94,18 101,14 101,7 118,0 122,1 117,19 120,28 127,27 135,35 152,30 164,37 170,33 171,41 181,44 179,51 184,56 202,62 207,71 218,74 225,81 205,93 205,100 228,100 227,107 235,111 259,112 264,116 267,132 279,141 282,155 288,160 288,172 279,175 289,195 266,202 258,221 248,225 237,224 243,229 241,233 225,241 216,224 218,207 190,203 186,212 173,210 165,174 145,176 138,184 139,191 132,192 130,185 140,168 131,161 128,147 132,141 121,125" id="48034" class="commune" fill="steelblue" stroke-width="1" stroke="white" geotype="commune" geoname="Canourgue" code_insee="48034" code_canton="4802"/><polygon points="256,23 270,20 291,19 291,25 285,29 303,28 307,37 305,54 311,55 315,52 328,63 333,59 372,75 380,71 385,52 404,58 402,75 414,89 407,96 409,101 417,103 420,112 396,133 378,133 361,124 339,121 326,140 309,141 306,136 289,131 279,141 267,132 264,116 259,112 235,111 227,107 228,100 205,100 205,93 225,81 218,74 207,71 202,62 227,57 221,48 227,44 263,41 256,23" id="48039" class="commune" fill="steelblue" stroke-width="1" stroke="white" geotype="commune" geoname="Chanac" code_insee="48039" code_canton="4802"/><polygon points="258,221 266,202 289,195 279,175 288,172 288,160 282,155 279,141 289,131 306,136 309,141 326,140 339,121 361,124 378,133 364,150 346,141 340,163 328,163 323,169 314,168 318,177 324,180 322,189 341,190 351,185 354,197 352,201 343,200 334,205 339,216 332,229 338,236 332,239 335,244 326,244 322,252 316,245 311,248 307,244 301,254 286,254 277,245 263,245 257,239 258,221" id="48085" class="commune" fill="steelblue" stroke-width="1" stroke="white" geotype="commune" geoname="Laval-du-Tarn" code_insee="48085" code_canton="4802"/><polygon points="225,241 241,233 243,229 237,224 248,225 258,221 257,239 263,245 277,245 286,254 301,254 298,269 301,271 308,269 310,275 318,274 331,294 331,300 308,322 308,326 307,341 292,340 283,331 276,330 259,330 254,339 232,338 222,329 226,321 220,301 230,282 226,270 232,267 229,263 216,265 217,253 209,248 214,246 211,238 223,246 225,241" id="48088" class="commune" fill="steelblue" stroke-width="1" stroke="white" geotype="commune" geoname="Malène" code_insee="48088" code_canton="4802"/><polygon points="50,328 36,324 28,340 10,345 3,343 11,317 6,311 21,305 23,300 50,279 66,279 68,272 81,268 90,260 109,265 118,277 59,316 50,328" id="48094" class="commune" fill="steelblue" stroke-width="1" stroke="white" geotype="commune" geoname="Massegros" code_insee="48094" code_canton="4802"/><polygon points="50,279 46,270 39,272 37,266 50,249 38,247 22,250 24,245 13,227 19,213 27,214 36,208 42,209 46,203 60,203 65,187 75,190 91,188 95,195 102,197 95,219 98,223 110,225 91,238 90,260 81,268 68,272 66,279 50,279" id="48125" class="commune" fill="steelblue" stroke-width="1" stroke="white" geotype="commune" geoname="Recoux" code_insee="48125" code_canton="4802"/><polygon points="487,242 481,249 474,246 466,249 456,235 449,232 442,235 438,222 428,221 413,212 401,226 402,243 382,243 381,254 373,255 359,263 345,246 324,260 328,268 318,274 310,275 308,269 301,271 298,269 301,254 307,244 311,248 316,245 322,252 326,244 335,244 332,239 338,236 332,229 339,216 334,205 343,200 352,201 354,197 351,185 341,190 322,189 324,180 318,177 314,168 323,169 328,163 340,163 346,141 364,150 378,133 396,133 420,112 432,110 433,105 442,110 444,107 452,107 457,111 461,99 464,104 478,111 477,124 486,142 478,152 487,158 489,168 500,180 491,208 482,209 477,214 480,225 491,228 484,239 487,242" id="48146" class="commune" fill="steelblue" stroke-width="1" stroke="white" geotype="commune" geoname="Sainte-Enimie" code_insee="48146" code_canton="4802"/><polygon points="220,301 210,300 195,292 181,293 183,298 177,304 156,301 151,297 143,294 141,282 118,277 109,265 90,260 91,238 110,225 98,223 95,219 102,197 132,192 139,191 138,184 145,176 165,174 173,210 186,212 190,203 218,207 216,224 225,241 223,246 211,238 214,246 209,248 217,253 216,265 229,263 232,267 226,270 230,282 220,301" id="48154" class="commune" fill="steelblue" stroke-width="1" stroke="white" geotype="commune" geoname="Saint-Georges-de-Lévéjac" code_insee="48154" code_canton="4802"/><polygon points="154,382 154,386 144,386 110,372 102,372 97,359 96,363 84,365 59,366 54,359 58,347 50,328 59,316 118,277 141,282 143,294 151,297 145,305 135,304 130,309 137,314 133,336 140,355 157,356 154,382" id="48180" class="commune" fill="steelblue" stroke-width="1" stroke="white" geotype="commune" geoname="Saint-Rome-de-Dolan" code_insee="48180" code_canton="4802"/><polygon points="79,150 93,137 96,119 112,120 121,125 132,141 128,147 131,161 125,170 113,172 109,176 102,175 105,165 102,164 93,169 90,165 82,165 79,150" id="48181" class="commune" fill="steelblue" stroke-width="1" stroke="white" geotype="commune" geoname="Saint-Saturnin" code_insee="48181" code_canton="4802"/><polygon points="7,195 9,182 0,175 5,170 31,166 27,144 41,142 65,150 65,155 79,150 82,165 90,165 93,169 102,164 105,165 102,175 109,176 113,172 125,170 131,161 140,168 130,185 132,192 102,197 95,195 91,188 75,190 65,187 60,203 46,203 42,209 36,208 27,214 19,213 3,206 7,195" id="48191" class="commune" fill="steelblue" stroke-width="1" stroke="white" geotype="commune" geoname="Tieule" code_insee="48191" code_canton="4802"/><polygon points="232,338 229,345 235,347 223,355 218,365 200,359 191,362 190,369 180,378 163,378 162,385 154,382 157,356 140,355 133,336 137,314 130,309 135,304 145,305 151,297 156,301 177,304 183,298 181,293 195,292 210,300 220,301 226,321 222,329 232,338" id="48195" class="commune" fill="steelblue" stroke-width="1" stroke="white" geotype="commune" geoname="Vignes" code_insee="48195" code_canton="4802"/></svg>