<?xml version="1.0" encoding="utf-8"?>
<svg version="1.1" id="svgmap" xmlns="http://www.w3.org/2000/svg" xmlns:xlink="http://www.w3.org/1999/xlink" x="0px" y="0px" width="100%" height="100%" viewBox="0 0 399 500">
<polygon points="224,434 201,440 192,445 173,434 184,397 196,389 192,381 208,377 222,378 227,374 254,377 277,375 277,382 281,396 305,418 283,442 268,448 262,442 264,455 249,454 244,446 238,446 235,430 224,434" id="48003" class="commune" fill="steelblue" stroke-width="1" stroke="white" geotype="commune" geoname="Allenc" code_insee="48003" code_canton="4806"/><polygon points="222,335 178,338 159,336 156,327 143,318 137,323 104,321 95,316 101,309 97,304 67,285 79,277 73,274 79,257 96,227 100,238 108,239 114,250 121,255 135,244 150,251 171,253 182,249 189,249 195,235 193,221 206,215 219,228 216,233 222,235 215,253 222,261 221,272 230,285 225,292 235,317 230,330 222,335" id="48008" class="commune" fill="steelblue" stroke-width="1" stroke="white" geotype="commune" geoname="Arzenc-de-Randon" code_insee="48008" code_canton="4806"/><polygon points="118,458 97,453 83,458 69,456 63,450 59,454 52,454 48,448 53,446 50,443 56,436 53,433 59,427 50,420 47,381 52,377 57,381 71,404 87,403 90,415 103,413 113,407 110,426 127,433 133,432 140,435 130,441 131,445 119,444 118,458" id="48013" class="commune" fill="steelblue" stroke-width="1" stroke="white" geotype="commune" geoname="Badaroux" code_insee="48013" code_canton="4806"/><polygon points="305,418 281,396 277,382 286,378 300,385 304,389 326,396 339,392 344,400 340,408 360,413 354,415 354,434 314,429 305,418" id="48023" class="commune" fill="steelblue" stroke-width="1" stroke="white" geotype="commune" geoname="Belvezet" code_insee="48023" code_canton="4806"/><polygon points="47,381 43,381 39,373 43,368 38,350 47,344 60,344 71,335 98,337 104,321 137,323 114,350 122,370 134,381 125,393 127,397 113,407 103,413 90,415 87,403 71,404 57,381 52,377 47,381" id="48029" class="commune" fill="steelblue" stroke-width="1" stroke="white" geotype="commune" geoname="Born" code_insee="48029" code_canton="4806"/><polygon points="173,434 192,445 201,440 224,434 222,447 208,466 209,477 214,479 218,480 218,486 209,487 206,483 187,494 180,492 176,500 173,494 179,490 178,483 183,481 175,477 176,473 165,472 171,456 164,449 166,442 167,435 173,434" id="48037" class="commune" fill="steelblue" stroke-width="1" stroke="white" geotype="commune" geoname="Chadenet" code_insee="48037" code_canton="4806"/><polygon points="182,4 197,4 204,8 209,5 217,12 222,25 234,33 229,42 232,47 214,56 201,58 203,51 193,44 202,37 203,29 185,13 182,4" id="48038" class="commune" fill="steelblue" stroke-width="1" stroke="white" geotype="commune" geoname="Chambon-le-Château" code_insee="48038" code_canton="4806"/><polygon points="267,261 262,265 265,274 288,279 286,291 279,296 288,308 279,314 273,326 256,323 254,346 243,344 240,348 235,347 222,335 230,330 235,317 225,292 230,285 221,272 222,261 215,253 222,235 230,236 244,252 252,250 267,261" id="48043" class="commune" fill="steelblue" stroke-width="1" stroke="white" geotype="commune" geoname="Châteauneuf-de-Randon" code_insee="48043" code_canton="4806"/><polygon points="364,344 359,348 355,344 305,347 296,336 273,326 279,314 288,308 279,296 286,291 288,279 289,271 313,258 336,250 340,245 354,248 354,251 362,253 364,266 389,263 386,275 381,277 381,286 371,292 371,301 380,309 381,315 364,334 364,344" id="48045" class="commune" fill="steelblue" stroke-width="1" stroke="white" geotype="commune" geoname="Chaudeyrac" code_insee="48045" code_canton="4806"/><polygon points="243,182 219,189 204,189 203,172 189,172 189,168 199,166 184,155 181,164 172,162 158,164 146,171 130,163 125,159 130,153 126,147 136,137 127,131 100,137 100,133 117,130 121,120 126,120 126,107 112,99 117,84 122,83 124,87 129,88 129,79 143,76 150,84 166,87 174,84 185,92 192,89 203,96 217,96 217,93 225,92 248,94 253,101 250,106 262,106 266,100 278,108 275,113 280,115 274,120 282,124 256,134 249,150 253,150 258,169 240,170 231,176 234,179 239,177 243,182" id="48070" class="commune" fill="steelblue" stroke-width="1" stroke="white" geotype="commune" geoname="Grandrieu" code_insee="48070" code_canton="4806"/><polygon points="159,336 178,338 222,335 235,347 233,362 222,368 222,378 208,377 192,381 187,373 184,375 167,365 157,348 159,336" id="48082" class="commune" fill="steelblue" stroke-width="1" stroke="white" geotype="commune" geoname="Laubert" code_insee="48082" code_canton="4806"/><polygon points="277,382 277,375 254,377 227,374 222,378 222,368 233,362 235,347 240,348 243,344 254,346 256,323 273,326 296,336 305,347 355,344 359,348 334,359 324,374 302,378 300,385 286,378 277,382" id="48100" class="commune" fill="steelblue" stroke-width="1" stroke="white" geotype="commune" geoname="Montbel" code_insee="48100" code_canton="4806"/><polygon points="56,161 55,160 61,155 77,151 78,142 100,137 127,131 136,137 126,147 130,153 125,159 130,163 146,171 158,164 172,162 181,164 184,155 199,166 189,168 189,172 181,191 180,199 184,203 175,208 176,212 121,219 101,228 93,225 89,214 98,193 88,171 78,172 70,177 56,161" id="48108" class="commune" fill="steelblue" stroke-width="1" stroke="white" geotype="commune" geoname="Panouse" code_insee="48108" code_canton="4806"/><polygon points="173,434 167,435 166,442 154,441 140,435 133,432 127,433 110,426 113,407 127,397 125,393 134,381 122,370 114,350 137,323 143,318 156,327 159,336 157,348 167,365 184,375 187,373 192,381 196,389 184,397 173,434" id="48111" class="commune" fill="steelblue" stroke-width="1" stroke="white" geotype="commune" geoname="Pelouse" code_insee="48111" code_canton="4806"/><polygon points="288,279 265,274 262,265 267,261 275,255 273,231 285,231 288,225 295,225 304,231 314,221 321,217 327,223 337,224 349,217 351,222 355,227 350,236 358,238 354,248 340,245 336,250 313,258 289,271 288,279" id="48112" class="commune" fill="steelblue" stroke-width="1" stroke="white" geotype="commune" geoname="Pierrefiche" code_insee="48112" code_canton="4806"/><polygon points="359,348 364,344 389,346 399,360 377,367 372,373 365,390 365,405 369,409 360,413 340,408 344,400 339,392 326,396 304,389 300,385 302,378 324,374 334,359 359,348" id="48151" class="commune" fill="steelblue" stroke-width="1" stroke="white" geotype="commune" geoname="Saint-Frézal-d'Albuges" code_insee="48151" code_canton="4806"/><polygon points="165,472 154,465 136,464 118,458 119,444 131,445 130,441 140,435 154,441 166,442 164,449 171,456 165,472" id="48157" class="commune" fill="steelblue" stroke-width="1" stroke="white" geotype="commune" geoname="Sainte-Hélène" code_insee="48157" code_canton="4806"/><polygon points="204,189 219,189 243,182 255,180 268,181 279,184 279,193 284,191 296,193 295,197 299,197 306,203 307,218 314,221 304,231 295,225 288,225 285,231 273,231 275,255 267,261 252,250 244,252 230,236 222,235 216,233 219,228 206,215 201,212 207,203 204,189" id="48160" class="commune" fill="steelblue" stroke-width="1" stroke="white" geotype="commune" geoname="Saint-Jean-la-Fouillouse" code_insee="48160" code_canton="4806"/><polygon points="129,79 129,88 124,87 122,83 117,84 112,99 126,107 126,120 121,120 117,130 100,133 100,137 78,142 77,151 61,155 55,160 41,153 49,141 45,139 29,141 24,146 28,147 24,156 17,162 4,154 19,120 36,117 55,119 63,110 42,97 14,100 0,93 14,77 25,71 65,66 93,70 91,60 104,56 110,58 115,69 120,68 129,79" id="48174" class="commune" fill="steelblue" stroke-width="1" stroke="white" geotype="commune" geoname="Saint-Paul-le-Froid" code_insee="48174" code_canton="4806"/><polygon points="96,227 93,225 101,228 121,219 176,212 175,208 184,203 180,199 181,191 189,172 203,172 204,189 207,203 201,212 206,215 193,221 195,235 189,249 182,249 171,253 150,251 135,244 121,255 114,250 108,239 100,238 96,227" id="48182" class="commune" fill="steelblue" stroke-width="1" stroke="white" geotype="commune" geoname="Saint-Sauveur-de-Ginestoux" code_insee="48182" code_canton="4806"/><polygon points="225,92 217,93 217,96 203,96 192,89 185,92 174,84 166,87 150,84 143,76 129,79 120,68 128,68 128,60 123,54 134,49 129,42 140,26 134,5 151,1 160,8 177,0 182,4 185,13 203,29 202,37 193,44 203,51 201,58 214,56 224,65 213,68 213,75 225,72 217,80 225,92" id="48184" class="commune" fill="steelblue" stroke-width="1" stroke="white" geotype="commune" geoname="Saint-Symphorien" code_insee="48184" code_canton="4806"/></svg>