<?xml version="1.0" encoding="utf-8"?>
<svg version="1.1" id="svgmap" xmlns="http://www.w3.org/2000/svg" xmlns:xlink="http://www.w3.org/1999/xlink" x="0px" y="0px" width="100%" height="100%" viewBox="0 0 500 142">
<polygon points="375,58 371,73 363,77 360,83 358,78 355,78 353,80 350,78 339,72 332,73 331,72 334,67 337,66 344,67 349,66 360,69 361,64 356,62 360,58 367,59 375,58" id="49024" class="commune" fill="steelblue" stroke-width="1" stroke="white" geotype="commune" geoname="Beausse" code_insee="49024" code_canton="4916"/><polygon points="332,73 339,72 350,78 340,85 304,94 296,101 280,93 279,95 276,94 275,83 282,69 287,72 303,71 308,73 318,74 332,73" id="49034" class="commune" fill="steelblue" stroke-width="1" stroke="white" geotype="commune" geoname="Botz-en-Mauges" code_insee="49034" code_canton="4916"/><polygon points="415,94 399,97 398,93 385,86 388,80 409,80 416,73 428,75 431,70 436,70 439,68 443,68 456,70 449,80 455,86 448,94 441,90 438,84 432,86 427,82 427,86 415,94" id="49039" class="commune" fill="steelblue" stroke-width="1" stroke="white" geotype="commune" geoname="Bourgneuf-en-Mauges" code_insee="49039" code_canton="4916"/><polygon points="207,34 215,34 223,35 227,38 221,42 225,43 225,47 240,52 235,56 230,56 233,65 227,69 229,76 217,76 214,80 202,76 199,77 199,80 194,80 190,75 195,70 192,64 193,60 189,56 188,50 182,45 198,41 197,40 207,34" id="49040" class="commune" fill="steelblue" stroke-width="1" stroke="white" geotype="commune" geoname="Bouzillé" code_insee="49040" code_canton="4916"/><polygon points="96,82 80,87 63,96 63,94 58,94 51,89 59,85 64,76 66,60 62,56 83,55 104,49 105,62 102,70 95,73 100,77 96,82" id="49069" class="commune" fill="steelblue" stroke-width="1" stroke="white" geotype="commune" geoname="Champtoceaux" code_insee="49069" code_canton="4916"/><polygon points="240,89 233,79 237,77 235,75 229,76 227,69 233,65 230,56 235,56 240,52 266,46 264,59 267,61 270,60 273,63 276,62 281,64 282,69 275,83 272,84 269,80 271,76 268,72 255,87 251,85 240,89" id="49075" class="commune" fill="steelblue" stroke-width="1" stroke="white" geotype="commune" geoname="Chapelle-Saint-Florent" code_insee="49075" code_canton="4916"/><polygon points="152,78 144,81 137,78 132,81 127,83 121,92 96,82 100,77 95,73 102,70 105,62 104,49 107,48 117,49 121,46 126,48 146,44 146,53 140,56 140,60 144,61 145,65 151,70 152,78" id="49126" class="commune" fill="steelblue" stroke-width="1" stroke="white" geotype="commune" geoname="Drain" code_insee="49126" code_canton="4916"/><polygon points="127,130 121,133 120,137 105,142 95,138 94,135 86,135 86,133 79,126 73,125 66,116 64,112 67,110 64,106 66,101 72,99 84,108 103,113 113,104 126,111 131,119 126,127 127,130" id="49172" class="commune" fill="steelblue" stroke-width="1" stroke="white" geotype="commune" geoname="Landemont" code_insee="49172" code_canton="4916"/><polygon points="205,32 207,34 197,40 198,41 182,45 188,50 189,56 193,60 192,64 195,70 190,75 194,80 196,85 194,88 184,92 188,102 175,116 173,114 177,104 170,101 170,97 162,93 162,88 153,86 152,78 151,70 145,65 144,61 140,60 140,56 146,53 146,44 151,40 149,38 160,33 163,35 179,31 184,33 205,32" id="49177" class="commune" fill="steelblue" stroke-width="1" stroke="white" geotype="commune" geoname="Liré" code_insee="49177" code_canton="4916"/><polygon points="248,29 264,35 275,35 275,38 271,39 266,46 240,52 225,47 225,43 221,42 227,38 223,35 215,34 239,29 248,29" id="49190" class="commune" fill="steelblue" stroke-width="1" stroke="white" geotype="commune" geoname="Marillais" code_insee="49190" code_canton="4916"/><polygon points="335,24 348,16 354,15 351,20 356,18 370,7 369,6 374,3 381,9 384,14 382,30 391,45 379,50 375,58 367,59 360,58 361,45 358,43 349,42 346,34 348,30 341,24 335,24" id="49204" class="commune" fill="steelblue" stroke-width="1" stroke="white" geotype="commune" geoname="Mesnil-en-Vallée" code_insee="49204" code_canton="4916"/><polygon points="436,10 444,14 440,19 461,28 464,36 452,39 453,37 448,37 444,33 444,29 439,29 382,30 384,14 381,9 374,3 386,3 387,1 395,0 407,3 415,3 436,10" id="49212" class="commune" fill="steelblue" stroke-width="1" stroke="white" geotype="commune" geoname="Montjean-sur-Loire" code_insee="49212" code_canton="4916"/><polygon points="371,73 375,58 379,50 391,45 382,30 439,29 444,29 444,33 448,37 453,37 452,39 464,36 460,41 460,52 453,57 443,68 439,68 436,70 431,70 428,75 416,73 409,80 388,80 385,86 382,84 383,80 378,80 378,77 371,73" id="49244" class="commune" fill="steelblue" stroke-width="1" stroke="white" geotype="commune" geoname="Pommeraye" code_insee="49244" code_canton="4916"/><polygon points="175,116 177,122 157,128 148,141 136,134 137,131 127,130 126,127 131,119 150,113 150,115 166,114 166,119 169,119 175,116" id="49270" class="commune" fill="steelblue" stroke-width="1" stroke="white" geotype="commune" geoname="Saint-Christophe-la-Couperie" code_insee="49270" code_canton="4916"/><polygon points="334,67 331,72 332,73 318,74 308,73 303,71 287,72 282,69 281,64 276,62 273,63 270,60 267,61 264,59 266,46 271,39 275,38 275,35 291,34 298,31 306,31 309,28 323,29 325,32 320,37 325,41 324,43 320,42 319,44 321,52 334,67" id="49276" class="commune" fill="steelblue" stroke-width="1" stroke="white" geotype="commune" geoname="Saint-Florent-le-Vieil" code_insee="49276" code_canton="4916"/><polygon points="500,82 500,84 498,86 500,87 499,95 493,102 474,106 466,100 461,100 448,94 455,86 449,80 456,70 443,68 453,57 459,67 464,64 461,62 466,61 468,64 472,65 470,67 472,69 477,67 485,73 493,73 500,82" id="49295" class="commune" fill="steelblue" stroke-width="1" stroke="white" geotype="commune" geoname="Saint-Laurent-de-la-Plaine" code_insee="49295" code_canton="4916"/><polygon points="175,116 175,116 169,119 166,119 166,114 150,115 150,113 131,119 126,111 113,104 114,99 121,92 127,83 132,81 137,78 144,81 152,78 153,86 162,88 162,93 170,97 170,101 177,104 173,114 175,116" id="49296" class="commune" fill="steelblue" stroke-width="1" stroke="white" geotype="commune" geoname="Saint-Laurent-des-Autels" code_insee="49296" code_canton="4916"/><polygon points="322,25 335,24 341,24 348,30 346,34 349,42 358,43 361,45 360,58 356,62 361,64 360,69 349,66 344,67 337,66 334,67 321,52 319,44 320,42 324,43 325,41 320,37 325,32 323,29 329,25 322,25" id="49297" class="commune" fill="steelblue" stroke-width="1" stroke="white" geotype="commune" geoname="Saint-Laurent-du-Mottay" code_insee="49297" code_canton="4916"/><polygon points="63,96 80,87 96,82 121,92 114,99 113,104 103,113 84,108 72,99 66,101 68,98 63,96" id="49320" class="commune" fill="steelblue" stroke-width="1" stroke="white" geotype="commune" geoname="Saint-Sauveur-de-Landemont" code_insee="49320" code_canton="4916"/><polygon points="0,87 16,74 29,72 41,61 62,56 66,60 64,76 59,85 51,89 49,85 47,88 35,88 31,89 29,85 26,88 11,90 0,87" id="49360" class="commune" fill="steelblue" stroke-width="1" stroke="white" geotype="commune" geoname="Varenne" code_insee="49360" code_canton="4916"/></svg>