<?xml version="1.0" encoding="utf-8"?>
<svg version="1.1" id="svgmap" xmlns="http://www.w3.org/2000/svg" xmlns:xlink="http://www.w3.org/1999/xlink" x="0px" y="0px" width="100%" height="100%" viewBox="0 0 500 222">
<polygon points="287,213 276,206 236,212 211,204 198,212 159,205 153,193 172,184 164,168 179,171 219,138 241,136 250,141 286,173 287,180 276,182 286,190 284,197 296,202 287,213" id="50149" class="commune" fill="steelblue" stroke-width="1" stroke="white" geotype="commune" geoname="Couville" code_insee="50149" code_canton="5008"/><polygon points="250,141 270,123 284,125 305,107 312,110 367,89 375,102 371,117 383,119 354,142 326,146 334,171 286,173 250,141" id="50230" class="commune" fill="steelblue" stroke-width="1" stroke="white" geotype="commune" geoname="Hardinvast" code_insee="50230" code_canton="5008"/><polygon points="271,55 298,50 317,38 329,48 375,54 429,78 367,89 312,110 305,107 284,125 270,123 245,120 240,114 248,102 229,84 244,81 271,55" id="50294" class="commune" fill="steelblue" stroke-width="1" stroke="white" geotype="commune" geoname="Martinvast" code_insee="50294" code_canton="5008"/><polygon points="211,0 216,6 233,0 256,8 272,29 252,45 239,56 208,45 184,22 211,0" id="50382" class="commune" fill="steelblue" stroke-width="1" stroke="white" geotype="commune" geoname="Nouainville" code_insee="50382" code_canton="5008"/><polygon points="350,204 318,210 307,222 293,222 287,213 296,202 284,197 286,190 276,182 287,180 286,173 334,171 338,178 350,204" id="50519" class="commune" fill="steelblue" stroke-width="1" stroke="white" geotype="commune" geoname="Saint-Martin-le-Gréard" code_insee="50519" code_canton="5008"/><polygon points="270,123 250,141 241,136 219,138 194,126 185,114 168,118 160,96 163,85 208,45 239,56 252,45 271,55 244,81 229,84 248,102 240,114 245,120 270,123" id="50575" class="commune" fill="steelblue" stroke-width="1" stroke="white" geotype="commune" geoname="Sideville" code_insee="50575" code_canton="5008"/><polygon points="52,99 98,69 102,62 145,54 156,74 146,88 160,96 168,118 153,118 143,128 106,141 97,131 70,154 73,165 60,163 46,182 25,191 6,192 17,186 0,169 37,162 25,157 13,132 11,119 12,115 37,115 32,108 52,99" id="50594" class="commune" fill="steelblue" stroke-width="1" stroke="white" geotype="commune" geoname="Teurthéville-Hague" code_insee="50594" code_canton="5008"/><polygon points="500,120 493,140 478,140 450,159 338,178 334,171 326,146 354,142 383,119 371,117 375,102 367,89 429,78 440,77 443,98 481,91 480,106 500,120" id="50599" class="commune" fill="steelblue" stroke-width="1" stroke="white" geotype="commune" geoname="Tollevast" code_insee="50599" code_canton="5008"/><polygon points="219,138 179,171 164,168 172,184 153,193 136,181 119,188 102,174 69,176 73,165 70,154 97,131 106,141 143,128 153,118 168,118 185,114 194,126 219,138" id="50643" class="commune" fill="steelblue" stroke-width="1" stroke="white" geotype="commune" geoname="Virandeville" code_insee="50643" code_canton="5008"/></svg>