<?xml version="1.0" encoding="utf-8"?>
<svg version="1.1" id="svgmap" xmlns="http://www.w3.org/2000/svg" xmlns:xlink="http://www.w3.org/1999/xlink" x="0px" y="0px" width="100%" height="100%" viewBox="0 0 500 352">
<polygon points="87,246 87,254 94,257 63,268 57,261 42,258 47,252 64,249 39,241 40,232 65,222 70,233 91,228 84,241 87,246" id="50039" class="commune" fill="steelblue" stroke-width="1" stroke="white" geotype="commune" geoname="Beaucoudray" code_insee="50039" code_canton="5009"/><polygon points="291,262 277,254 256,258 245,243 247,237 261,230 267,225 263,217 278,214 287,219 306,222 318,240 284,253 291,262" id="50050" class="commune" fill="steelblue" stroke-width="1" stroke="white" geotype="commune" geoname="Beuvrigny" code_insee="50050" code_canton="5009"/><polygon points="487,71 489,78 429,95 426,88 438,64 450,61 459,49 472,47 487,62 487,71" id="50054" class="commune" fill="steelblue" stroke-width="1" stroke="white" geotype="commune" geoname="Biéville" code_insee="50054" code_canton="5009"/><polygon points="225,147 241,142 259,146 286,145 256,171 245,165 243,168 228,167 221,160 225,147" id="50075" class="commune" fill="steelblue" stroke-width="1" stroke="white" geotype="commune" geoname="Brectouville" code_insee="50075" code_canton="5009"/><polygon points="87,246 84,241 91,228 97,227 104,217 123,215 123,221 133,219 147,224 138,228 131,240 105,238 95,247 87,246" id="50134" class="commune" fill="steelblue" stroke-width="1" stroke="white" geotype="commune" geoname="Chevry" code_insee="50134" code_canton="5009"/><polygon points="225,147 215,145 198,151 194,149 201,139 224,122 214,110 202,100 196,96 204,96 223,84 224,76 218,63 209,58 207,47 221,43 221,34 222,34 240,37 243,44 236,49 250,59 271,61 271,68 278,69 283,78 300,82 287,90 294,97 295,103 289,104 308,120 305,125 299,125 292,142 286,145 259,146 241,142 225,147" id="50139" class="commune" fill="steelblue" stroke-width="1" stroke="white" geotype="commune" geoname="Condé-sur-Vire" code_insee="50139" code_canton="5009"/><polygon points="261,230 257,227 202,228 199,216 184,210 184,207 191,207 183,200 184,191 195,177 202,165 216,165 221,160 228,167 243,168 245,165 256,171 238,187 244,188 251,184 265,186 281,190 295,187 302,189 290,194 287,219 278,214 263,217 267,225 261,230" id="50164" class="commune" fill="steelblue" stroke-width="1" stroke="white" geotype="commune" geoname="Domjean" code_insee="50164" code_canton="5009"/><polygon points="195,177 184,191 183,200 180,209 170,213 139,207 142,199 137,186 155,178 158,181 185,175 195,177" id="50180" class="commune" fill="steelblue" stroke-width="1" stroke="white" geotype="commune" geoname="Fervaches" code_insee="50180" code_canton="5009"/><polygon points="202,228 257,227 261,230 247,237 245,243 224,248 212,243 210,251 200,249 194,237 202,228" id="50192" class="commune" fill="steelblue" stroke-width="1" stroke="white" geotype="commune" geoname="Fourneaux" code_insee="50192" code_canton="5009"/><polygon points="256,171 286,145 332,147 350,147 360,150 373,157 373,163 372,169 364,169 366,180 345,175 327,176 312,166 276,177 265,186 251,184 244,188 238,187 256,171" id="50202" class="commune" fill="steelblue" stroke-width="1" stroke="white" geotype="commune" geoname="Giéville" code_insee="50202" code_canton="5009"/><polygon points="108,313 112,307 107,284 125,274 179,270 189,270 190,281 180,288 187,288 187,292 172,295 171,306 165,312 141,319 124,332 109,324 112,318 108,313" id="50214" class="commune" fill="steelblue" stroke-width="1" stroke="white" geotype="commune" geoname="Gouvets" code_insee="50214" code_canton="5009"/><polygon points="434,167 427,188 418,202 373,236 356,237 340,248 302,261 291,262 284,253 318,240 306,222 316,209 321,215 331,217 340,214 334,207 336,199 325,185 330,182 327,176 345,175 366,180 364,169 372,169 373,163 381,163 385,171 431,161 434,167" id="50224" class="commune" fill="steelblue" stroke-width="1" stroke="white" geotype="commune" geoname="Guilberville" code_insee="50224" code_canton="5009"/><polygon points="459,49 450,61 438,64 426,88 411,87 412,84 400,85 381,79 388,75 383,72 404,43 404,36 411,48 429,42 452,50 459,49" id="50261" class="commune" fill="steelblue" stroke-width="1" stroke="white" geotype="commune" geoname="Lamberville" code_insee="50261" code_canton="5009"/><polygon points="86,140 93,137 102,144 141,151 153,169 125,171 124,177 87,162 70,154 77,140 86,140" id="50316" class="commune" fill="steelblue" stroke-width="1" stroke="white" geotype="commune" geoname="Mesnil-Opac" code_insee="50316" code_canton="5009"/><polygon points="214,110 224,122 201,139 194,149 198,151 191,154 176,152 167,140 179,130 196,114 206,115 214,110" id="50319" class="commune" fill="steelblue" stroke-width="1" stroke="white" geotype="commune" geoname="Mesnil-Raoult" code_insee="50319" code_canton="5009"/><polygon points="404,29 403,28 455,0 459,6 475,4 476,22 433,31 404,29" id="50351" class="commune" fill="steelblue" stroke-width="1" stroke="white" geotype="commune" geoname="Montrabot" code_insee="50351" code_canton="5009"/><polygon points="139,207 135,206 136,215 123,215 104,217 97,227 91,228 70,233 65,222 40,232 32,213 26,209 7,205 0,196 31,183 27,178 34,161 44,149 50,160 69,162 81,167 87,162 124,177 125,171 153,169 155,178 137,186 142,199 139,207" id="50363" class="commune" fill="steelblue" stroke-width="1" stroke="white" geotype="commune" geoname="Moyon" code_insee="50363" code_canton="5009"/><polygon points="489,78 486,85 478,100 454,112 454,115 424,111 417,115 413,106 429,95 489,78" id="50398" class="commune" fill="steelblue" stroke-width="1" stroke="white" geotype="commune" geoname="Perron" code_insee="50398" code_canton="5009"/><polygon points="448,168 445,170 441,165 434,167 431,161 434,157 418,139 423,137 417,115 424,111 454,115 465,125 481,123 491,126 491,133 500,132 499,144 488,143 462,151 448,168" id="50404" class="commune" fill="steelblue" stroke-width="1" stroke="white" geotype="commune" geoname="Placy-Montaigu" code_insee="50404" code_canton="5009"/><polygon points="383,72 388,75 381,79 359,77 350,82 349,77 336,72 300,82 302,66 323,60 327,45 345,33 358,34 356,42 365,59 383,72" id="50414" class="commune" fill="steelblue" stroke-width="1" stroke="white" geotype="commune" geoname="Précorbin" code_insee="50414" code_canton="5009"/><polygon points="345,33 351,29 368,23 385,20 389,28 404,29 404,36 404,43 383,72 365,59 356,42 358,34 345,33" id="50441" class="commune" fill="steelblue" stroke-width="1" stroke="white" geotype="commune" geoname="Rouxeville" code_insee="50441" code_canton="5009"/><polygon points="426,88 429,95 413,106 417,115 423,137 418,139 434,157 431,161 385,171 381,163 373,163 373,157 360,150 350,147 332,147 338,128 328,125 329,121 320,127 308,120 289,104 295,103 294,97 287,90 300,82 300,82 336,72 349,77 350,82 359,77 381,79 400,85 412,84 411,87 426,88" id="50444" class="commune" fill="steelblue" stroke-width="1" stroke="white" geotype="commune" geoname="Saint-Amand" code_insee="50444" code_canton="5009"/><polygon points="351,29 345,33 327,45 323,60 302,66 300,82 300,82 283,78 278,69 271,68 271,61 250,59 236,49 243,44 257,45 281,38 283,35 273,29 295,21 301,11 313,7 328,4 350,0 342,7 337,26 342,30 351,29" id="50492" class="commune" fill="steelblue" stroke-width="1" stroke="white" geotype="commune" geoname="Saint-Jean-des-Baisants" code_insee="50492" code_canton="5009"/><polygon points="306,222 287,219 290,194 302,189 295,187 281,190 265,186 276,177 312,166 327,176 330,182 325,185 336,199 334,207 340,214 331,217 321,215 316,209 306,222" id="50504" class="commune" fill="steelblue" stroke-width="1" stroke="white" geotype="commune" geoname="Saint-Louet-sur-Vire" code_insee="50504" code_canton="5009"/><polygon points="266,306 266,318 252,334 211,349 191,352 184,345 169,347 144,343 124,332 141,319 165,312 171,306 184,310 206,303 225,306 256,297 260,299 256,304 266,306" id="50563" class="commune" fill="steelblue" stroke-width="1" stroke="white" geotype="commune" geoname="Saint-Vigor-des-Monts" code_insee="50563" code_canton="5009"/><polygon points="94,257 87,254 87,246 95,247 105,238 131,240 138,228 147,224 133,219 123,221 123,215 136,215 135,206 139,207 170,213 180,209 183,200 191,207 184,207 184,210 199,216 202,228 194,237 200,249 197,258 203,265 179,270 125,274 128,271 121,271 120,265 126,251 94,257" id="50592" class="commune" fill="steelblue" stroke-width="1" stroke="white" geotype="commune" geoname="Tessy-sur-Vire" code_insee="50592" code_canton="5009"/><polygon points="286,145 292,142 299,125 305,125 308,120 320,127 329,121 328,125 338,128 332,147 286,145" id="50601" class="commune" fill="steelblue" stroke-width="1" stroke="white" geotype="commune" geoname="Torigni-sur-Vire" code_insee="50601" code_canton="5009"/><polygon points="198,151 215,145 225,147 221,160 216,165 202,165 195,177 185,175 158,181 155,178 153,169 141,151 145,139 156,142 155,133 164,124 179,130 167,140 176,152 191,154 198,151" id="50608" class="commune" fill="steelblue" stroke-width="1" stroke="white" geotype="commune" geoname="Troisgots" code_insee="50608" code_canton="5009"/><polygon points="476,22 475,26 478,37 472,47 459,49 452,50 429,42 411,48 404,36 404,29 433,31 476,22" id="50635" class="commune" fill="steelblue" stroke-width="1" stroke="white" geotype="commune" geoname="Vidouville" code_insee="50635" code_canton="5009"/></svg>