<?xml version="1.0" encoding="utf-8"?>
<svg version="1.1" id="svgmap" xmlns="http://www.w3.org/2000/svg" xmlns:xlink="http://www.w3.org/1999/xlink" x="0px" y="0px" width="100%" height="100%" viewBox="0 0 500 339">
<polygon points="216,148 224,152 245,158 240,166 256,169 253,173 247,179 247,187 229,185 217,178 196,185 185,181 182,178 187,176 180,168 188,164 187,157 198,156 203,159 216,148" id="50012" class="commune" fill="steelblue" stroke-width="1" stroke="white" geotype="commune" geoname="Angoville-sur-Ay" code_insee="50012" code_canton="5011"/><polygon points="122,108 98,112 96,77 99,66 116,64 128,69 122,108" id="50035" class="commune" fill="steelblue" stroke-width="1" stroke="white" geotype="commune" geoname="Baudreville" code_insee="50035" code_canton="5011"/><polygon points="128,69 136,70 135,77 144,81 149,96 157,97 168,83 188,83 193,79 204,84 217,81 218,84 208,86 210,90 173,106 142,104 122,108 128,69" id="50063" class="commune" fill="steelblue" stroke-width="1" stroke="white" geotype="commune" geoname="Bolleville" code_insee="50063" code_canton="5011"/><polygon points="71,193 57,160 87,154 93,149 105,148 127,138 128,141 152,142 156,154 146,163 130,166 128,171 112,172 100,181 71,193" id="50078" class="commune" fill="steelblue" stroke-width="1" stroke="white" geotype="commune" geoname="Bretteville-sur-Ay" code_insee="50078" code_canton="5011"/><polygon points="89,53 88,52 81,48 64,49 73,41 64,36 74,31 78,24 70,18 70,12 82,15 91,9 100,21 106,17 115,25 137,22 129,26 107,37 89,53" id="50097" class="commune" fill="steelblue" stroke-width="1" stroke="white" geotype="commune" geoname="Canville-la-Rocque" code_insee="50097" code_canton="5011"/><polygon points="479,60 484,64 479,70 485,74 468,84 463,83 456,80 447,81 431,74 419,68 420,58 424,56 436,71 454,61 445,55 445,49 460,54 465,49 479,60" id="50136" class="commune" fill="steelblue" stroke-width="1" stroke="white" geotype="commune" geoname="Coigny" code_insee="50136" code_canton="5011"/><polygon points="279,275 264,278 230,281 233,272 199,262 178,258 137,258 135,250 141,238 125,219 175,212 192,217 213,219 212,227 219,233 231,231 247,239 254,248 273,254 279,275" id="50151" class="commune" fill="steelblue" stroke-width="1" stroke="white" geotype="commune" geoname="Créances" code_insee="50151" code_canton="5011"/><polygon points="88,52 89,53 99,66 96,77 70,85 64,92 40,93 38,97 36,95 10,104 0,88 39,76 58,75 45,64 48,55 77,59 78,55 88,52" id="50160" class="commune" fill="steelblue" stroke-width="1" stroke="white" geotype="commune" geoname="Denneville" code_insee="50160" code_canton="5011"/><polygon points="179,33 178,27 184,26 197,28 198,36 226,30 244,28 253,23 269,21 274,24 264,33 265,38 275,38 275,43 243,53 239,62 225,67 217,81 208,77 187,54 188,43 174,44 159,51 169,40 183,35 179,33" id="50166" class="commune" fill="steelblue" stroke-width="1" stroke="white" geotype="commune" geoname="Doville" code_insee="50166" code_canton="5011"/><polygon points="264,278 279,275 303,256 315,255 323,251 325,244 330,242 321,271 326,280 333,280 331,288 344,300 324,315 302,321 294,322 291,318 287,322 277,316 264,278" id="50182" class="commune" fill="steelblue" stroke-width="1" stroke="white" geotype="commune" geoname="Feuillie" code_insee="50182" code_canton="5011"/><polygon points="57,160 47,145 83,140 98,129 124,122 136,124 127,138 105,148 93,149 87,154 57,160" id="50204" class="commune" fill="steelblue" stroke-width="1" stroke="white" geotype="commune" geoname="Glatigny" code_insee="50204" code_canton="5011"/><polygon points="223,112 225,106 241,99 248,96 256,99 261,104 256,119 248,121 244,132 247,139 237,140 224,152 216,148 220,147 215,141 223,136 214,129 224,126 216,122 223,112" id="50236" class="commune" fill="steelblue" stroke-width="1" stroke="white" geotype="commune" geoname="Haye-du-Puits" code_insee="50236" code_canton="5011"/><polygon points="385,156 388,170 396,175 394,184 384,184 368,194 364,192 356,195 353,198 347,197 345,191 332,186 332,178 322,175 318,163 327,159 332,146 349,153 385,156" id="50265" class="commune" fill="steelblue" stroke-width="1" stroke="white" geotype="commune" geoname="Laulne" code_insee="50265" code_canton="5011"/><polygon points="185,181 196,185 217,178 229,185 247,187 257,187 276,199 275,206 286,218 292,222 307,222 330,242 325,244 323,251 315,255 303,256 279,275 273,254 254,248 247,239 231,231 219,233 212,227 213,219 192,217 199,210 194,195 183,185 185,181" id="50267" class="commune" fill="steelblue" stroke-width="1" stroke="white" geotype="commune" geoname="Lessay" code_insee="50267" code_canton="5011"/><polygon points="360,104 353,113 339,119 323,122 299,139 291,134 273,126 276,117 256,119 261,104 256,99 257,96 275,97 295,84 316,77 332,78 345,91 355,94 362,90 365,95 357,101 360,104" id="50273" class="commune" fill="steelblue" stroke-width="1" stroke="white" geotype="commune" geoname="Lithaire" code_insee="50273" code_canton="5011"/><polygon points="394,289 388,301 381,305 351,307 344,300 331,288 333,280 326,280 321,271 330,242 307,222 353,217 366,223 383,219 398,225 387,234 380,250 389,266 387,269 395,276 394,289" id="50328" class="commune" fill="steelblue" stroke-width="1" stroke="white" geotype="commune" geoname="Millières" code_insee="50328" code_canton="5011"/><polygon points="253,173 256,169 240,166 245,158 224,152 237,140 247,139 244,132 248,121 256,119 276,117 273,126 291,134 287,151 281,151 277,163 263,172 253,173" id="50330" class="commune" fill="steelblue" stroke-width="1" stroke="white" geotype="commune" geoname="Mobecq" code_insee="50330" code_canton="5011"/><polygon points="216,148 203,159 198,156 187,157 188,164 180,168 165,172 158,165 146,163 156,154 152,142 128,141 127,138 136,124 145,114 152,109 166,115 193,115 193,125 217,112 223,112 216,122 224,126 214,129 223,136 215,141 220,147 216,148" id="50343" class="commune" fill="steelblue" stroke-width="1" stroke="white" geotype="commune" geoname="Montgardon" code_insee="50343" code_canton="5011"/><polygon points="210,90 208,86 218,84 217,81 225,67 239,62 239,69 254,76 252,79 290,78 295,84 275,97 257,96 256,99 248,96 241,99 237,87 210,90" id="50372" class="commune" fill="steelblue" stroke-width="1" stroke="white" geotype="commune" geoname="Neufmesnil" code_insee="50372" code_canton="5011"/><polygon points="277,316 283,338 270,339 269,333 236,331 216,324 197,326 187,324 178,328 151,327 147,290 137,258 178,258 199,262 233,272 230,281 264,278 277,316" id="50403" class="commune" fill="steelblue" stroke-width="1" stroke="white" geotype="commune" geoname="Pirou" code_insee="50403" code_canton="5011"/><polygon points="447,117 445,134 433,146 425,148 421,145 398,144 395,150 381,152 385,156 349,153 332,146 330,140 352,135 339,119 353,113 360,104 377,104 389,109 409,110 410,116 447,117" id="50405" class="commune" fill="steelblue" stroke-width="1" stroke="white" geotype="commune" geoname="Plessis-Lastelle" code_insee="50405" code_canton="5011"/><polygon points="420,58 419,68 431,74 425,76 405,71 401,73 399,69 381,77 390,79 387,82 401,91 377,104 360,104 357,101 365,95 362,90 355,94 345,91 332,78 316,77 311,75 313,70 350,54 356,45 361,51 397,53 398,60 410,63 420,58" id="50415" class="commune" fill="steelblue" stroke-width="1" stroke="white" geotype="commune" geoname="Prétot-Sainte-Suzanne" code_insee="50415" code_canton="5011"/><polygon points="180,168 187,176 182,178 185,181 183,185 194,195 199,210 192,217 175,212 158,212 163,207 152,213 131,206 136,204 133,203 119,207 110,215 109,211 109,226 115,229 108,230 85,215 71,193 100,181 112,172 128,171 130,166 146,163 158,165 165,172 180,168" id="50481" class="commune" fill="steelblue" stroke-width="1" stroke="white" geotype="commune" geoname="Saint-Germain-sur-Ay" code_insee="50481" code_canton="5011"/><polygon points="500,93 494,99 492,111 480,107 468,108 447,117 410,116 409,110 389,109 377,104 401,91 387,82 390,79 381,77 399,69 401,73 405,71 425,76 431,74 447,81 456,80 463,83 463,90 472,95 500,93" id="50497" class="commune" fill="steelblue" stroke-width="1" stroke="white" geotype="commune" geoname="Saint-Jores" code_insee="50497" code_canton="5011"/><polygon points="217,81 204,84 193,79 188,83 168,83 157,97 149,96 144,81 135,77 136,70 159,51 174,44 188,43 187,54 208,77 217,81" id="50528" class="commune" fill="steelblue" stroke-width="1" stroke="white" geotype="commune" geoname="Saint-Nicolas-de-Pierrepont" code_insee="50528" code_canton="5011"/><polygon points="394,184 402,187 402,195 400,227 398,225 383,219 366,223 353,217 358,213 353,198 356,195 364,192 368,194 384,184 394,184" id="50533" class="commune" fill="steelblue" stroke-width="1" stroke="white" geotype="commune" geoname="Saint-Patrice-de-Claids" code_insee="50533" code_canton="5011"/><polygon points="96,77 98,112 58,119 52,123 42,128 44,123 37,118 21,119 10,104 36,95 38,97 40,93 64,92 70,85 96,77" id="50544" class="commune" fill="steelblue" stroke-width="1" stroke="white" geotype="commune" geoname="Saint-Rémy-des-Landes" code_insee="50544" code_canton="5011"/><polygon points="136,70 128,69 116,64 99,66 89,53 107,37 129,26 136,39 161,28 168,31 179,33 183,35 169,40 159,51 136,70" id="50548" class="commune" fill="steelblue" stroke-width="1" stroke="white" geotype="commune" geoname="Saint-Sauveur-de-Pierrepont" code_insee="50548" code_canton="5011"/><polygon points="241,99 225,106 223,112 217,112 193,125 193,115 166,115 152,109 145,114 142,104 173,106 210,90 237,87 241,99" id="50558" class="commune" fill="steelblue" stroke-width="1" stroke="white" geotype="commune" geoname="Saint-Symphorien-le-Valois" code_insee="50558" code_canton="5011"/><polygon points="98,112 122,108 142,104 145,114 136,124 124,122 98,129 83,140 47,145 28,125 36,119 37,129 45,130 55,124 52,123 58,119 98,112" id="50586" class="commune" fill="steelblue" stroke-width="1" stroke="white" geotype="commune" geoname="Surville" code_insee="50586" code_canton="5011"/><polygon points="340,0 352,4 347,8 357,15 355,22 360,29 353,36 356,45 350,54 313,70 311,75 316,77 295,84 290,78 252,79 254,76 239,69 239,62 243,53 275,43 275,38 265,38 264,33 274,24 294,24 323,5 329,2 340,0" id="50617" class="commune" fill="steelblue" stroke-width="1" stroke="white" geotype="commune" geoname="Varenguebec" code_insee="50617" code_canton="5011"/><polygon points="247,187 247,179 253,173 263,172 277,163 281,151 287,151 291,134 299,139 323,122 339,119 352,135 330,140 332,146 327,159 318,163 322,175 332,178 332,186 345,191 347,197 353,198 358,213 353,217 307,222 292,222 286,218 275,206 276,199 257,187 247,187" id="50629" class="commune" fill="steelblue" stroke-width="1" stroke="white" geotype="commune" geoname="Vesly" code_insee="50629" code_canton="5011"/></svg>