<?xml version="1.0" encoding="utf-8"?>
<svg version="1.1" id="svgmap" xmlns="http://www.w3.org/2000/svg" xmlns:xlink="http://www.w3.org/1999/xlink" x="0px" y="0px" width="100%" height="100%" viewBox="0 0 500 303">
<polygon points="324,252 327,249 339,250 344,246 357,244 363,248 361,254 367,255 374,250 378,253 392,248 390,242 394,242 403,245 417,242 429,247 440,233 470,230 494,235 500,240 494,248 481,253 470,256 458,272 468,285 454,285 449,281 434,282 432,285 440,290 432,303 422,302 406,295 383,290 337,297 329,290 317,289 325,276 313,276 308,271 315,270 327,260 324,252" id="53005" class="commune" fill="steelblue" stroke-width="1" stroke="white" geotype="commune" geoname="Andouillé" code_insee="53005" code_canton="5305"/><polygon points="324,252 327,260 315,270 308,271 313,276 325,276 317,289 310,295 272,289 269,293 253,296 248,300 237,296 221,298 212,296 205,296 204,293 215,285 193,272 198,265 196,258 207,257 213,253 227,253 260,239 274,241 281,235 281,239 324,252" id="53015" class="commune" fill="steelblue" stroke-width="1" stroke="white" geotype="commune" geoname="Baconnière" code_insee="53015" code_canton="5305"/><polygon points="403,171 403,176 422,189 423,198 418,201 418,207 429,210 427,215 440,216 440,233 429,247 417,242 403,245 394,242 389,236 393,230 387,225 384,217 367,210 366,203 355,195 357,191 348,177 360,172 368,172 375,179 403,171" id="53031" class="commune" fill="steelblue" stroke-width="1" stroke="white" geotype="commune" geoname="Bigottière" code_insee="53031" code_canton="5305"/><polygon points="371,152 361,161 368,172 360,172 348,177 357,191 355,195 346,193 329,200 328,211 336,213 340,221 332,232 321,233 314,238 327,249 324,252 281,239 281,235 284,234 281,231 269,228 261,219 256,220 248,214 245,196 253,184 253,172 247,166 251,162 264,161 273,167 283,160 303,155 310,156 317,162 336,150 339,152 371,152" id="53048" class="commune" fill="steelblue" stroke-width="1" stroke="white" geotype="commune" geoname="Chailland" code_insee="53048" code_canton="5305"/><polygon points="142,244 136,259 127,258 122,271 117,272 114,269 105,271 99,259 93,256 65,258 54,253 46,253 37,261 28,263 28,250 35,237 24,230 17,223 26,211 35,210 46,214 58,214 89,221 95,227 110,228 126,239 142,244" id="53086" class="commune" fill="steelblue" stroke-width="1" stroke="white" geotype="commune" geoname="Croixille" code_insee="53086" code_canton="5305"/><polygon points="177,167 165,160 169,153 160,148 152,154 142,147 150,145 147,131 155,126 166,127 171,119 151,109 150,93 176,79 187,81 191,74 203,76 208,73 229,61 241,65 250,63 254,58 269,57 278,64 290,60 299,71 289,72 277,75 280,87 274,95 275,106 264,111 255,122 232,122 224,125 201,122 188,130 194,135 193,141 182,139 178,143 171,143 170,150 179,151 182,155 177,167" id="53096" class="commune" fill="steelblue" stroke-width="1" stroke="white" geotype="commune" geoname="Ernée" code_insee="53096" code_canton="5305"/><polygon points="177,167 179,167 191,180 185,197 191,236 179,238 161,238 148,244 142,244 126,239 110,228 95,227 89,221 58,214 46,214 35,210 26,211 21,209 19,197 11,194 13,185 1,172 0,147 9,141 23,139 25,146 43,148 50,145 54,147 49,151 77,151 90,166 98,168 110,166 126,155 134,153 136,146 142,147 152,154 160,148 169,153 165,160 177,167" id="53123" class="commune" fill="steelblue" stroke-width="1" stroke="white" geotype="commune" geoname="Juvigné" code_insee="53123" code_canton="5305"/><polygon points="62,0 67,0 68,2 92,2 115,11 116,15 141,12 158,17 160,22 189,19 201,38 205,47 200,59 204,62 198,67 203,71 208,69 208,73 203,76 191,74 187,81 176,79 174,75 152,71 141,83 127,81 124,71 96,70 83,65 79,54 74,55 64,51 58,52 52,34 58,21 45,18 56,2 62,0" id="53126" class="commune" fill="steelblue" stroke-width="1" stroke="white" geotype="commune" geoname="Larchamp" code_insee="53126" code_canton="5305"/><polygon points="179,167 177,167 182,155 179,151 170,150 171,143 178,143 182,139 193,141 194,135 188,130 201,122 224,125 232,122 255,122 264,111 275,106 274,95 280,87 277,75 289,72 285,76 288,86 299,85 296,87 302,90 313,92 326,91 321,105 327,109 325,118 329,123 322,133 328,131 342,136 345,140 352,140 369,147 372,151 371,152 339,152 336,150 317,162 310,156 303,155 283,160 273,167 264,161 251,162 239,158 225,160 222,154 217,154 198,165 191,160 181,162 179,167" id="53155" class="commune" fill="steelblue" stroke-width="1" stroke="white" geotype="commune" geoname="Montenay" code_insee="53155" code_canton="5305"/><polygon points="51,91 51,91 72,69 58,52 64,51 74,55 79,54 83,65 96,70 124,71 127,81 119,79 95,101 58,89 51,91" id="53177" class="commune" fill="steelblue" stroke-width="1" stroke="white" geotype="commune" geoname="Pellerine" code_insee="53177" code_canton="5305"/><polygon points="383,9 388,9 389,13 380,29 387,39 394,44 388,46 388,59 384,60 390,62 378,69 389,78 383,78 374,71 362,75 364,80 338,88 328,83 322,71 307,72 303,74 307,81 302,90 296,87 299,85 288,86 285,76 289,72 299,71 290,60 278,64 269,57 254,58 250,63 241,65 229,61 208,73 208,69 203,71 198,67 204,62 200,59 205,47 201,38 208,36 205,27 213,21 226,18 228,14 243,8 252,15 282,13 285,19 293,17 299,21 311,12 311,7 318,5 322,15 336,23 349,18 353,23 359,19 370,20 373,11 383,9" id="53211" class="commune" fill="steelblue" stroke-width="1" stroke="white" geotype="commune" geoname="Saint-Denis-de-Gastines" code_insee="53211" code_canton="5305"/><polygon points="394,242 390,242 392,248 378,253 374,250 367,255 361,254 363,248 357,244 344,246 339,250 327,249 314,238 321,233 332,232 340,221 336,213 328,211 329,200 346,193 355,195 366,203 367,210 384,217 387,225 393,230 389,236 394,242" id="53225" class="commune" fill="steelblue" stroke-width="1" stroke="white" geotype="commune" geoname="Saint-Germain-le-Guillaume" code_insee="53225" code_canton="5305"/><polygon points="281,235 274,241 260,239 227,253 213,253 207,257 196,258 195,250 179,238 191,236 185,197 191,180 179,167 181,162 191,160 198,165 217,154 222,154 225,160 239,158 251,162 247,166 253,172 253,184 245,196 248,214 256,220 261,219 269,228 281,231 284,234 281,235" id="53226" class="commune" fill="steelblue" stroke-width="1" stroke="white" geotype="commune" geoname="Saint-Hilaire-du-Maine" code_insee="53226" code_canton="5305"/><polygon points="176,79 150,93 151,109 171,119 166,127 155,126 147,131 150,145 142,147 136,146 134,153 126,155 110,166 98,168 90,166 77,151 49,151 54,147 50,145 43,148 25,146 23,139 9,141 13,120 21,115 23,108 51,91 58,89 95,101 119,79 127,81 141,83 152,71 174,75 176,79" id="53245" class="commune" fill="steelblue" stroke-width="1" stroke="white" geotype="commune" geoname="Saint-Pierre-des-Landes" code_insee="53245" code_canton="5305"/><polygon points="418,112 372,151 369,147 352,140 345,140 342,136 328,131 322,133 329,123 325,118 327,109 321,105 326,91 313,92 302,90 307,81 303,74 307,72 322,71 328,83 338,88 364,80 362,75 374,71 383,78 389,78 390,87 399,90 406,87 409,104 405,105 418,112" id="53269" class="commune" fill="steelblue" stroke-width="1" stroke="white" geotype="commune" geoname="Vautorte" code_insee="53269" code_canton="5305"/></svg>