<?xml version="1.0" encoding="utf-8"?>
<svg version="1.1" id="svgmap" xmlns="http://www.w3.org/2000/svg" xmlns:xlink="http://www.w3.org/1999/xlink" x="0px" y="0px" width="100%" height="100%" viewBox="0 0 500 446">
<polygon points="441,249 381,301 315,325 301,315 312,285 275,280 262,267 288,245 276,239 293,241 321,261 339,249 356,248 355,242 421,231 441,249" id="54096" class="commune" fill="steelblue" stroke-width="1" stroke="white" geotype="commune" geoname="Bréhain-la-Ville" code_insee="54096" code_canton="5423"/><polygon points="381,301 441,249 460,253 464,249 468,255 499,297 466,305 440,328 391,298 381,301" id="54149" class="commune" fill="steelblue" stroke-width="1" stroke="white" geotype="commune" geoname="Crusnes" code_insee="54149" code_canton="5423"/><polygon points="315,325 381,301 391,298 440,328 440,340 418,355 390,360 355,338 316,334 315,325" id="54181" class="commune" fill="steelblue" stroke-width="1" stroke="white" geotype="commune" geoname="Errouville" code_insee="54181" code_canton="5423"/><polygon points="275,280 312,285 301,315 315,325 316,334 293,353 297,363 253,395 227,404 229,409 214,406 210,396 195,396 192,385 164,391 168,380 156,376 163,369 159,352 191,329 213,323 216,304 233,298 275,280" id="54194" class="commune" fill="steelblue" stroke-width="1" stroke="white" geotype="commune" geoname="Fillières" code_insee="54194" code_canton="5423"/><polygon points="381,164 361,177 353,181 346,177 319,189 301,183 297,164 265,163 236,141 209,144 191,139 182,125 209,115 202,111 207,107 185,104 194,87 234,94 208,78 170,86 165,77 160,58 184,55 176,80 196,76 201,58 220,68 225,65 255,78 262,95 284,101 303,117 374,125 370,130 387,158 381,164" id="54270" class="commune" fill="steelblue" stroke-width="1" stroke="white" geotype="commune" geoname="Hussigny-Godbrange" code_insee="54270" code_canton="5423"/><polygon points="89,300 85,302 36,248 0,227 5,224 37,227 73,209 77,196 94,191 95,199 102,197 117,212 126,208 136,213 118,240 125,250 107,253 111,271 89,291 89,300" id="54290" class="commune" fill="steelblue" stroke-width="1" stroke="white" geotype="commune" geoname="Laix" code_insee="54290" code_canton="5423"/><polygon points="143,53 116,50 115,41 96,48 85,41 102,39 95,35 103,22 152,10 153,0 159,5 154,11 164,9 176,21 178,30 143,53" id="54321" class="commune" fill="steelblue" stroke-width="1" stroke="white" geotype="commune" geoname="Longlaville" code_insee="54321" code_canton="5423"/><polygon points="262,267 275,280 233,298 229,290 214,288 215,281 128,300 89,300 89,291 111,271 107,253 125,250 118,240 136,213 145,222 186,218 194,228 208,227 238,256 262,267" id="54385" class="commune" fill="steelblue" stroke-width="1" stroke="white" geotype="commune" geoname="Morfontaine" code_insee="54385" code_canton="5423"/><polygon points="160,58 143,53 178,30 176,21 227,7 250,40 221,48 225,65 220,68 201,58 196,76 176,80 184,55 160,58" id="54493" class="commune" fill="steelblue" stroke-width="1" stroke="white" geotype="commune" geoname="Saulnes" code_insee="54493" code_canton="5423"/><polygon points="418,355 439,363 437,380 418,384 408,397 388,399 395,411 387,418 323,434 306,446 272,446 272,432 253,432 250,419 229,409 227,404 253,395 297,363 293,353 316,334 355,338 390,360 418,355" id="54504" class="commune" fill="steelblue" stroke-width="1" stroke="white" geotype="commune" geoname="Serrouville" code_insee="54504" code_canton="5423"/><polygon points="361,177 381,164 406,153 422,163 434,162 426,172 434,181 423,201 435,207 421,221 425,228 373,189 377,181 361,177" id="54521" class="commune" fill="steelblue" stroke-width="1" stroke="white" geotype="commune" geoname="Thil" code_insee="54521" code_canton="5423"/><polygon points="425,228 421,231 355,242 356,248 339,249 321,261 293,241 276,239 292,230 288,222 296,212 315,205 319,189 346,177 353,181 361,177 377,181 373,189 425,228" id="54525" class="commune" fill="steelblue" stroke-width="1" stroke="white" geotype="commune" geoname="Tiercelet" code_insee="54525" code_canton="5423"/><polygon points="276,239 288,245 262,267 238,256 208,227 194,228 186,218 145,222 136,213 126,208 117,212 102,197 95,199 94,191 105,180 174,154 191,139 209,144 236,141 265,163 297,164 301,183 319,189 315,205 296,212 288,222 292,230 276,239" id="54575" class="commune" fill="steelblue" stroke-width="1" stroke="white" geotype="commune" geoname="Villers-la-Montagne" code_insee="54575" code_canton="5423"/><polygon points="465,154 467,164 493,175 496,179 472,190 490,200 487,223 500,241 495,248 468,255 464,249 460,253 441,249 421,231 425,228 421,221 435,207 423,201 434,181 426,172 434,162 465,154" id="54580" class="commune" fill="steelblue" stroke-width="1" stroke="white" geotype="commune" geoname="Villerupt" code_insee="54580" code_canton="5423"/></svg>