<?xml version="1.0" encoding="utf-8"?>
<svg version="1.1" id="svgmap" xmlns="http://www.w3.org/2000/svg" xmlns:xlink="http://www.w3.org/1999/xlink" x="0px" y="0px" width="100%" height="100%" viewBox="0 0 500 348">
<polygon points="280,311 270,313 268,311 258,313 256,310 232,314 223,308 218,308 222,305 213,300 214,298 196,294 193,300 177,303 173,307 156,308 151,303 161,300 165,295 169,281 163,268 203,255 210,255 221,247 233,247 238,248 249,260 255,260 253,262 259,264 286,289 285,292 296,293 298,298 286,307 279,308 280,311" id="55012" class="commune" fill="steelblue" stroke-width="1" stroke="white" geotype="commune" geoname="Apremont-la-Forêt" code_insee="55012" code_canton="5513"/><polygon points="442,118 457,122 460,126 467,125 477,128 474,135 494,145 493,156 479,156 477,164 456,167 436,162 426,158 413,157 405,150 383,144 389,137 405,130 443,132 442,118" id="55046" class="commune" fill="steelblue" stroke-width="1" stroke="white" geotype="commune" geoname="Beney-en-Woëvre" code_insee="55046" code_canton="5513"/><polygon points="104,256 90,261 90,265 83,263 82,266 79,262 72,260 68,256 80,243 98,235 112,235 113,240 117,241 116,246 110,249 115,250 111,252 104,256" id="55054" class="commune" fill="steelblue" stroke-width="1" stroke="white" geotype="commune" geoname="Bislée" code_insee="55054" code_canton="5513"/><polygon points="354,298 342,299 338,295 335,297 322,293 309,297 306,292 286,289 291,287 293,275 299,276 301,273 308,272 321,268 334,271 335,274 347,270 355,272 357,277 357,282 347,291 354,298" id="55062" class="commune" fill="steelblue" stroke-width="1" stroke="white" geotype="commune" geoname="Bouconville-sur-Madt" code_insee="55062" code_canton="5513"/><polygon points="386,334 392,342 367,344 358,348 325,333 314,330 310,333 313,322 310,320 307,321 299,318 293,314 289,315 282,317 292,314 291,310 280,311 279,308 286,307 298,298 296,293 285,292 286,289 306,292 309,297 322,293 335,297 338,295 342,299 354,298 355,301 366,301 366,305 372,305 383,316 391,316 392,318 384,325 386,334" id="55085" class="commune" fill="steelblue" stroke-width="1" stroke="white" geotype="commune" geoname="Broussey-Raulecourt" code_insee="55085" code_canton="5513"/><polygon points="269,180 269,180 286,186 296,183 310,189 324,186 335,188 340,190 341,195 351,192 346,199 356,204 357,212 361,213 359,217 332,220 330,215 324,217 319,221 322,232 317,233 310,226 303,226 258,241 247,242 240,239 230,239 239,231 243,222 238,213 246,210 249,200 267,193 256,188 269,180" id="55093" class="commune" fill="steelblue" stroke-width="1" stroke="white" geotype="commune" geoname="Buxières-sous-les-Côtes" code_insee="55093" code_canton="5513"/><polygon points="269,180 269,180 241,180 244,172 229,170 227,166 216,164 219,159 209,152 226,143 233,145 235,139 249,137 248,143 265,142 273,157 281,157 303,151 313,151 313,154 296,155 277,163 278,168 269,180" id="55096" class="commune" fill="steelblue" stroke-width="1" stroke="white" geotype="commune" geoname="Chaillon" code_insee="55096" code_canton="5513"/><polygon points="22,239 31,229 62,221 66,217 75,219 121,206 128,210 128,215 120,216 111,230 96,231 98,235 80,243 74,241 71,234 48,243 34,238 29,233 22,239" id="55111" class="commune" fill="steelblue" stroke-width="1" stroke="white" geotype="commune" geoname="Chauvoncourt" code_insee="55111" code_canton="5513"/><polygon points="161,97 166,91 171,95 181,89 172,85 181,83 186,86 202,80 202,84 212,88 217,95 224,95 228,103 207,106 201,104 193,107 196,114 174,121 164,114 168,112 166,104 161,97" id="55160" class="commune" fill="steelblue" stroke-width="1" stroke="white" geotype="commune" geoname="Dompierre-aux-Bois" code_insee="55160" code_canton="5513"/><polygon points="203,255 163,268 169,281 159,276 147,284 133,288 131,293 123,294 123,292 109,297 101,296 93,289 94,284 99,279 96,280 94,276 99,271 94,262 107,259 104,256 111,252 115,255 117,252 133,253 139,247 148,247 171,248 175,250 203,255" id="55229" class="commune" fill="steelblue" stroke-width="1" stroke="white" geotype="commune" geoname="Han-sur-Meuse" code_insee="55229" code_canton="5513"/><polygon points="351,192 341,195 340,190 335,188 324,186 310,189 296,183 286,186 269,180 278,168 277,163 296,155 313,154 319,154 324,157 355,157 348,173 354,175 351,192" id="55245" class="commune" fill="steelblue" stroke-width="1" stroke="white" geotype="commune" geoname="Heudicourt-sous-les-Côtes" code_insee="55245" code_canton="5513"/><polygon points="371,24 387,10 409,0 413,5 420,5 430,11 439,14 442,9 446,10 442,23 445,27 464,22 465,25 464,35 471,40 458,45 442,44 429,37 426,39 421,33 410,37 412,39 409,38 396,45 387,35 383,36 371,28 371,24" id="55256" class="commune" fill="steelblue" stroke-width="1" stroke="white" geotype="commune" geoname="Jonville-en-Woëvre" code_insee="55256" code_canton="5513"/><polygon points="465,25 479,21 476,28 479,34 485,41 491,42 493,47 500,48 500,51 497,54 472,61 471,67 460,75 454,72 449,79 435,82 431,78 404,82 403,85 397,83 398,85 386,88 379,93 377,88 370,83 373,81 369,74 389,68 388,60 401,58 402,56 393,52 412,39 410,37 421,33 426,39 429,37 442,44 458,45 471,40 464,35 465,25" id="55267" class="commune" fill="steelblue" stroke-width="1" stroke="white" geotype="commune" geoname="Lachaussée" code_insee="55267" code_canton="5513"/><polygon points="172,85 181,89 171,95 166,91 161,97 158,93 138,107 135,116 139,122 149,125 147,127 153,129 141,148 114,145 101,149 96,148 96,152 89,149 94,144 87,141 88,137 84,137 76,131 59,126 55,121 67,119 73,110 93,100 111,105 130,99 125,97 132,93 121,95 118,91 122,85 132,88 136,86 141,90 148,87 161,87 166,83 172,85" id="55268" class="commune" fill="steelblue" stroke-width="1" stroke="white" geotype="commune" geoname="Lacroix-sur-Meuse" code_insee="55268" code_canton="5513"/><polygon points="385,202 386,205 397,221 425,233 420,243 409,245 399,239 396,231 389,230 384,219 390,217 375,219 381,202 385,202" id="55270" class="commune" fill="steelblue" stroke-width="1" stroke="white" geotype="commune" geoname="Lahayville" code_insee="55270" code_canton="5513"/><polygon points="249,137 235,139 233,145 226,143 209,152 191,157 176,169 172,176 180,180 167,186 166,183 155,184 141,191 144,194 137,188 131,189 133,187 123,177 127,174 121,169 142,155 141,148 153,129 164,127 166,121 174,121 196,114 193,107 201,104 207,106 228,103 224,95 234,93 243,112 251,108 265,111 279,118 273,125 251,129 249,137" id="55274" class="commune" fill="steelblue" stroke-width="1" stroke="white" geotype="commune" geoname="Lamorville" code_insee="55274" code_canton="5513"/><polygon points="286,289 259,264 270,257 271,251 277,252 272,249 302,243 306,239 303,226 310,226 317,233 322,232 326,241 312,250 314,253 310,256 316,262 303,266 308,272 301,273 299,276 293,275 291,287 286,289" id="55303" class="commune" fill="steelblue" stroke-width="1" stroke="white" geotype="commune" geoname="Loupmont" code_insee="55303" code_canton="5513"/><polygon points="80,165 80,164 90,167 93,173 121,169 127,174 123,177 133,187 131,189 137,188 144,194 141,191 155,184 166,183 167,186 180,180 185,183 190,183 188,193 162,206 160,204 128,215 128,210 121,206 102,196 99,197 92,192 85,193 82,191 83,185 73,177 79,175 77,170 80,165" id="55312" class="commune" fill="steelblue" stroke-width="1" stroke="white" geotype="commune" geoname="Maizey" code_insee="55312" code_canton="5513"/><polygon points="322,232 319,221 324,217 330,215 332,220 359,217 371,219 377,224 371,226 374,231 364,234 355,240 352,236 345,235 340,243 326,241 322,232" id="55353" class="commune" fill="steelblue" stroke-width="1" stroke="white" geotype="commune" geoname="Montsec" code_insee="55353" code_canton="5513"/><polygon points="436,162 422,171 421,179 413,177 409,180 418,183 411,188 396,191 383,190 373,199 356,204 346,199 351,192 354,175 348,173 355,157 355,155 347,153 350,148 377,148 383,144 405,150 413,157 426,158 436,162" id="55386" class="commune" fill="steelblue" stroke-width="1" stroke="white" geotype="commune" geoname="Nonsard-Lamarche" code_insee="55386" code_canton="5513"/><polygon points="121,206 75,219 66,217 53,218 53,213 34,212 27,207 7,203 0,199 2,196 9,200 29,196 50,197 73,195 82,191 85,193 92,192 99,197 102,196 121,206" id="55401" class="commune" fill="steelblue" stroke-width="1" stroke="white" geotype="commune" geoname="Paroches" code_insee="55401" code_canton="5513"/><polygon points="407,268 410,270 406,279 414,294 415,302 413,307 404,310 408,318 400,330 386,334 384,325 392,318 391,316 383,316 372,305 366,305 366,301 355,301 354,298 347,291 357,282 357,277 375,272 382,267 400,265 407,268" id="55412" class="commune" fill="steelblue" stroke-width="1" stroke="white" geotype="commune" geoname="Rambucourt" code_insee="55412" code_canton="5513"/><polygon points="105,82 79,93 67,93 50,79 56,76 58,68 45,61 50,55 55,55 62,50 81,52 91,50 107,47 124,51 117,70 105,82" id="55415" class="commune" fill="steelblue" stroke-width="1" stroke="white" geotype="commune" geoname="Ranzières" code_insee="55415" code_canton="5513"/><polygon points="373,199 381,202 375,219 390,217 384,219 389,230 396,231 399,239 409,245 395,249 390,244 355,240 364,234 374,231 371,226 377,224 371,219 359,217 361,213 357,212 356,204 373,199" id="55431" class="commune" fill="steelblue" stroke-width="1" stroke="white" geotype="commune" geoname="Richecourt" code_insee="55431" code_canton="5513"/><polygon points="80,164 85,160 92,160 96,152 96,148 101,149 114,145 141,148 142,155 121,169 93,173 90,167 80,164" id="55444" class="commune" fill="steelblue" stroke-width="1" stroke="white" geotype="commune" geoname="Rouvrois-sur-Meuse" code_insee="55444" code_canton="5513"/><polygon points="299,60 310,67 316,65 324,75 328,72 331,76 327,78 310,79 293,92 271,99 275,101 251,108 243,112 234,93 258,84 275,81 286,73 299,71 296,68 299,60" id="55462" class="commune" fill="steelblue" stroke-width="1" stroke="white" geotype="commune" geoname="Saint-Maurice-sous-les-Côtes" code_insee="55462" code_canton="5513"/><polygon points="233,247 221,247 210,255 203,255 175,250 171,248 148,247 139,247 133,253 117,252 115,255 111,252 115,250 110,249 116,246 117,241 113,240 112,235 98,235 96,231 111,230 120,216 128,215 160,204 162,206 188,193 214,200 225,211 238,213 243,222 239,231 230,239 240,239 233,247" id="55463" class="commune" fill="steelblue" stroke-width="1" stroke="white" geotype="commune" geoname="Saint-Mihiel" code_insee="55463" code_canton="5513"/><polygon points="161,97 166,104 168,112 164,114 174,121 166,121 164,127 153,129 147,127 149,125 139,122 135,116 138,107 158,93 161,97" id="55487" class="commune" fill="steelblue" stroke-width="1" stroke="white" geotype="commune" geoname="Seuzey" code_insee="55487" code_canton="5513"/><polygon points="36,113 34,112 40,109 35,108 32,99 29,99 31,96 20,94 16,85 15,79 30,86 50,79 67,93 79,93 105,82 118,91 121,95 132,93 125,97 130,99 111,105 93,100 73,110 67,119 55,121 46,115 41,116 36,113" id="55521" class="commune" fill="steelblue" stroke-width="1" stroke="white" geotype="commune" geoname="Troyon" code_insee="55521" code_canton="5513"/><polygon points="259,264 253,262 255,260 249,260 238,248 233,247 240,239 247,242 258,241 303,226 306,239 302,243 272,249 277,252 271,251 270,257 259,264" id="55528" class="commune" fill="steelblue" stroke-width="1" stroke="white" geotype="commune" geoname="Varnéville" code_insee="55528" code_canton="5513"/><polygon points="269,180 256,188 267,193 249,200 246,210 238,213 225,211 214,200 188,193 190,183 185,183 180,180 172,176 176,169 191,157 209,152 219,159 216,164 227,166 229,170 244,172 241,180 269,180" id="55530" class="commune" fill="steelblue" stroke-width="1" stroke="white" geotype="commune" geoname="Valbois" code_insee="55530" code_canton="5513"/><polygon points="166,83 161,87 148,87 141,90 136,86 132,88 122,85 118,91 105,82 117,70 124,51 149,51 168,68 178,72 166,83" id="55540" class="commune" fill="steelblue" stroke-width="1" stroke="white" geotype="commune" geoname="Vaux-lès-Palameix" code_insee="55540" code_canton="5513"/><polygon points="460,75 462,82 455,86 452,93 454,93 455,89 470,92 460,93 463,94 457,97 450,107 438,114 442,118 443,132 405,130 389,137 383,144 377,148 350,148 347,153 355,155 355,157 324,157 319,154 313,154 313,151 303,151 281,157 273,157 265,142 248,143 249,137 251,129 273,125 279,118 265,111 251,108 275,101 271,99 293,92 310,79 327,78 329,80 334,78 336,81 345,74 357,78 369,74 373,81 370,83 377,88 379,93 386,88 398,85 397,83 403,85 404,82 431,78 435,82 449,79 454,72 460,75" id="55551" class="commune" fill="steelblue" stroke-width="1" stroke="white" geotype="commune" geoname="Vigneulles-lès-Hattonchâtel" code_insee="55551" code_canton="5513"/><polygon points="357,277 355,272 347,270 335,274 334,271 321,268 308,272 303,266 316,262 310,256 314,253 312,250 326,241 340,243 345,235 352,236 355,240 390,244 395,249 400,265 382,267 375,272 357,277" id="55586" class="commune" fill="steelblue" stroke-width="1" stroke="white" geotype="commune" geoname="Xivray-et-Marvoisin" code_insee="55586" code_canton="5513"/></svg>