<?xml version="1.0" encoding="utf-8"?>
<svg version="1.1" id="svgmap" xmlns="http://www.w3.org/2000/svg" xmlns:xlink="http://www.w3.org/1999/xlink" x="0px" y="0px" width="100%" height="100%" viewBox="0 0 500 202">
<polygon points="294,140 286,143 278,142 277,132 279,127 282,128 293,124 297,128 300,128 296,131 299,138 294,140" id="57007" class="commune" fill="steelblue" stroke-width="1" stroke="white" geotype="commune" geoname="Adaincourt" code_insee="57007" code_canton="5707"/><polygon points="442,129 438,134 433,135 427,140 426,144 409,141 412,138 410,134 406,135 405,127 415,126 416,122 427,122 432,127 443,126 442,129" id="57008" class="commune" fill="steelblue" stroke-width="1" stroke="white" geotype="commune" geoname="Adelange" code_insee="57008" code_canton="5707"/><polygon points="268,104 270,105 267,106 269,107 255,117 256,118 251,119 242,124 239,121 231,111 232,107 240,108 249,105 259,101 268,104" id="57020" class="commune" fill="steelblue" stroke-width="1" stroke="white" geotype="commune" geoname="Ancerville" code_insee="57020" code_canton="5707"/><polygon points="362,173 359,174 359,171 356,171 357,168 354,168 353,166 354,166 353,165 351,165 350,164 352,162 350,156 351,156 351,154 350,154 350,155 350,155 349,152 348,151 349,151 349,150 360,144 365,147 371,160 370,163 366,164 369,169 362,173" id="57027" class="commune" fill="steelblue" stroke-width="1" stroke="white" geotype="commune" geoname="Arraincourt" code_insee="57027" code_canton="5707"/><polygon points="325,112 352,113 356,119 353,126 343,131 340,136 336,138 332,138 328,131 322,131 319,128 321,123 327,119 325,117 328,116 325,112" id="57029" class="commune" fill="steelblue" stroke-width="1" stroke="white" geotype="commune" geoname="Arriance" code_insee="57029" code_canton="5707"/><polygon points="196,107 200,107 200,105 207,107 205,111 208,112 206,115 209,116 212,115 217,122 213,122 209,125 203,125 199,129 193,127 189,123 180,119 186,112 195,111 196,107" id="57037" class="commune" fill="steelblue" stroke-width="1" stroke="white" geotype="commune" geoname="Aube" code_insee="57037" code_canton="5707"/><polygon points="407,71 399,65 395,59 396,56 393,54 396,45 403,42 419,38 425,41 428,52 443,58 440,62 427,66 418,66 418,67 407,71" id="57047" class="commune" fill="steelblue" stroke-width="1" stroke="white" geotype="commune" geoname="Bambiderstroff" code_insee="57047" code_canton="5707"/><polygon points="267,153 247,157 250,165 245,167 240,163 238,167 234,165 226,167 225,165 222,166 220,162 222,161 222,158 225,157 221,138 227,138 232,142 237,141 239,145 242,145 250,143 266,145 264,149 267,153" id="57057" class="commune" fill="steelblue" stroke-width="1" stroke="white" geotype="commune" geoname="Béchy" code_insee="57057" code_canton="5707"/><polygon points="193,127 199,129 195,131 195,136 186,142 187,143 171,149 166,146 163,146 157,141 174,131 181,130 185,133 191,131 193,127" id="57075" class="commune" fill="steelblue" stroke-width="1" stroke="white" geotype="commune" geoname="Beux" code_insee="57075" code_canton="5707"/><polygon points="461,18 455,19 452,22 443,20 426,26 420,21 405,20 416,16 414,15 416,14 419,14 417,12 417,11 422,13 424,12 430,5 427,5 428,4 438,0 443,2 449,3 442,15 461,18" id="57095" class="commune" fill="steelblue" stroke-width="1" stroke="white" geotype="commune" geoname="Boucheporn" code_insee="57095" code_canton="5707"/><polygon points="146,167 146,163 140,154 145,152 157,151 158,148 163,146 166,146 171,149 174,152 160,157 154,162 153,165 146,167" id="57116" class="commune" fill="steelblue" stroke-width="1" stroke="white" geotype="commune" geoname="Buchy" code_insee="57116" code_canton="5707"/><polygon points="295,111 291,113 293,115 291,115 287,111 277,111 271,107 269,107 267,106 270,105 268,104 275,101 277,96 281,97 280,93 286,95 292,95 296,103 291,109 295,111" id="57127" class="commune" fill="steelblue" stroke-width="1" stroke="white" geotype="commune" geoname="Chanville" code_insee="57127" code_canton="5707"/><polygon points="43,194 40,195 28,193 23,190 22,188 27,183 26,181 21,181 23,175 17,174 18,171 13,171 12,168 15,168 16,166 1,165 0,161 7,160 10,162 15,161 17,162 26,158 27,155 32,154 27,165 44,166 44,169 48,167 52,168 54,174 50,177 56,187 50,185 46,187 42,191 43,194" id="57137" class="commune" fill="steelblue" stroke-width="1" stroke="white" geotype="commune" geoname="Cheminot" code_insee="57137" code_canton="5707"/><polygon points="121,139 118,136 108,138 110,137 105,128 107,123 111,121 119,126 126,123 136,126 141,126 146,132 137,133 128,138 121,139" id="57139" class="commune" fill="steelblue" stroke-width="1" stroke="white" geotype="commune" geoname="Chérisey" code_insee="57139" code_canton="5707"/><polygon points="381,116 377,115 382,106 376,105 375,103 384,97 384,93 391,91 390,88 402,84 398,72 407,71 418,67 418,68 412,73 408,79 411,94 408,96 410,102 403,105 404,107 401,108 406,112 391,118 384,115 381,116" id="57159" class="commune" fill="steelblue" stroke-width="1" stroke="white" geotype="commune" geoname="Créhange" code_insee="57159" code_canton="5707"/><polygon points="390,88 391,91 384,93 384,97 375,103 376,105 382,106 377,115 375,116 371,111 363,112 359,107 357,106 358,101 355,97 360,95 362,87 365,87 363,84 368,80 366,78 371,77 371,84 374,88 381,90 390,88" id="57190" class="commune" fill="steelblue" stroke-width="1" stroke="white" geotype="commune" geoname="Elvange" code_insee="57190" code_canton="5707"/><polygon points="385,135 388,130 387,123 381,116 384,115 391,118 406,112 401,108 404,107 403,105 410,102 408,96 411,94 408,79 412,73 418,68 415,71 424,89 430,82 438,85 430,92 434,97 434,103 439,105 437,107 440,109 428,111 423,115 427,122 416,122 415,126 405,127 406,135 410,134 412,138 409,141 406,141 385,135" id="57209" class="commune" fill="steelblue" stroke-width="1" stroke="white" geotype="commune" geoname="Faulquemont" code_insee="57209" code_canton="5707"/><polygon points="399,65 407,71 398,72 402,84 390,88 381,90 374,88 371,84 371,77 371,76 377,71 385,72 399,65" id="57217" class="commune" fill="steelblue" stroke-width="1" stroke="white" geotype="commune" geoname="Flétrange" code_insee="57217" code_canton="5707"/><polygon points="106,94 107,101 111,102 111,109 106,111 109,114 85,119 74,120 71,119 68,113 63,113 68,108 67,104 74,103 75,100 90,99 96,95 95,93 106,94" id="57218" class="commune" fill="steelblue" stroke-width="1" stroke="white" geotype="commune" geoname="Fleury" code_insee="57218" code_canton="5707"/><polygon points="245,167 250,165 247,157 267,153 270,152 275,154 277,162 264,168 256,170 251,172 245,167" id="57220" class="commune" fill="steelblue" stroke-width="1" stroke="white" geotype="commune" geoname="Flocourt" code_insee="57220" code_canton="5707"/><polygon points="331,52 338,47 346,52 350,50 355,53 357,52 366,54 362,62 347,67 340,72 331,68 330,66 332,65 328,62 334,60 332,59 335,54 331,52" id="57230" class="commune" fill="steelblue" stroke-width="1" stroke="white" geotype="commune" geoname="Fouligny" code_insee="57230" code_canton="5707"/><polygon points="105,139 108,138 118,136 121,139 121,144 128,153 126,154 127,156 116,159 108,159 102,156 89,160 91,163 85,162 83,151 81,141 87,143 98,142 105,139" id="57251" class="commune" fill="steelblue" stroke-width="1" stroke="white" geotype="commune" geoname="Goin" code_insee="57251" code_canton="5707"/><polygon points="320,81 324,79 320,78 325,76 331,68 340,72 347,67 362,62 360,64 366,71 364,72 371,76 371,77 366,78 368,80 363,84 365,87 362,87 360,95 355,97 358,101 346,101 340,97 346,92 340,77 332,81 326,81 324,83 327,85 325,85 322,85 320,81" id="57276" class="commune" fill="steelblue" stroke-width="1" stroke="white" geotype="commune" geoname="Guinglange" code_insee="57276" code_canton="5707"/><polygon points="385,44 377,44 375,42 371,44 365,38 368,35 374,29 390,27 387,37 391,41 385,44" id="57284" class="commune" fill="steelblue" stroke-width="1" stroke="white" geotype="commune" geoname="Hallering" code_insee="57284" code_canton="5707"/><polygon points="278,142 286,143 294,140 297,147 298,149 290,152 289,156 284,151 279,147 278,142" id="57293" class="commune" fill="steelblue" stroke-width="1" stroke="white" geotype="commune" geoname="Han-sur-Nied" code_insee="57293" code_canton="5707"/><polygon points="352,113 325,112 319,107 312,99 309,100 311,102 308,109 305,111 295,111 291,109 296,103 292,95 301,96 321,90 330,97 335,97 333,92 322,88 325,85 327,85 324,83 326,81 332,81 340,77 346,92 340,97 346,101 358,101 357,106 359,107 352,113" id="57313" class="commune" fill="steelblue" stroke-width="1" stroke="white" geotype="commune" geoname="Hémilly" code_insee="57313" code_canton="5707"/><polygon points="340,147 338,149 337,149 336,150 331,152 329,149 317,148 307,150 308,149 305,147 297,147 294,140 299,138 317,131 311,111 316,110 319,107 325,112 328,116 325,117 327,119 321,123 319,128 322,131 328,131 332,138 336,138 338,140 336,145 340,147" id="57319" class="commune" fill="steelblue" stroke-width="1" stroke="white" geotype="commune" geoname="Herny" code_insee="57319" code_canton="5707"/><polygon points="336,150 337,149 338,149 340,147 340,147 340,148 342,150 343,148 346,150 349,150 349,150 349,151 348,151 349,152 350,155 350,155 350,154 351,154 351,156 350,156 352,162 350,164 348,164 347,165 346,165 343,166 343,165 336,165 329,165 327,165 326,166 326,165 327,164 331,164 331,163 331,161 333,161 336,160 332,159 334,158 335,156 337,156 336,154 338,153 338,153 339,152 339,151 336,151 336,151 338,150 336,150" id="57328" class="commune" fill="steelblue" stroke-width="1" stroke="white" geotype="commune" geoname="Holacourt" code_insee="57328" code_canton="5707"/><polygon points="451,58 457,64 466,65 468,71 466,74 453,81 445,82 443,72 445,68 440,66 440,62 443,58 451,58" id="57386" class="commune" fill="steelblue" stroke-width="1" stroke="white" geotype="commune" geoname="Laudrefang" code_insee="57386" code_canton="5707"/><polygon points="232,107 231,111 239,121 234,123 231,120 229,122 228,117 212,115 209,116 206,115 208,112 205,111 207,107 208,100 211,99 221,106 228,105 232,107" id="57392" class="commune" fill="steelblue" stroke-width="1" stroke="white" geotype="commune" geoname="Lemud" code_insee="57392" code_canton="5707"/><polygon points="145,152 140,154 132,159 131,157 127,156 126,154 128,153 121,144 121,139 128,138 137,133 146,132 152,139 141,143 140,146 145,152" id="57403" class="commune" fill="steelblue" stroke-width="1" stroke="white" geotype="commune" geoname="Liéhon" code_insee="57403" code_canton="5707"/><polygon points="419,38 426,35 426,26 443,20 452,22 459,24 463,23 467,26 489,29 498,34 500,39 497,49 484,50 475,54 459,55 451,58 443,58 428,52 425,41 419,38" id="57413" class="commune" fill="steelblue" stroke-width="1" stroke="white" geotype="commune" geoname="Longeville-lès-Saint-Avold" code_insee="57413" code_canton="5707"/><polygon points="90,189 90,191 65,193 59,190 62,185 56,187 50,177 54,174 52,168 48,167 44,169 44,166 53,162 52,160 58,162 55,157 60,150 60,148 64,148 67,151 74,153 83,151 85,162 87,175 90,189" id="57422" class="commune" fill="steelblue" stroke-width="1" stroke="white" geotype="commune" geoname="Louvigny" code_insee="57422" code_canton="5707"/><polygon points="184,172 184,172 180,166 186,158 178,151 174,152 171,149 187,143 186,142 195,136 196,134 200,136 204,135 204,138 207,136 209,139 221,138 225,157 222,158 222,161 220,162 222,166 214,172 220,175 216,176 214,177 203,171 199,173 191,169 184,172" id="57425" class="commune" fill="steelblue" stroke-width="1" stroke="white" geotype="commune" geoname="Luppy" code_insee="57425" code_canton="5707"/><polygon points="377,115 381,116 387,123 388,130 385,135 383,134 372,130 353,126 356,119 352,113 359,107 363,112 371,111 375,116 377,115" id="57430" class="commune" fill="steelblue" stroke-width="1" stroke="white" geotype="commune" geoname="Mainvillers" code_insee="57430" code_canton="5707"/><polygon points="353,126 372,130 383,134 376,138 378,143 368,145 365,147 360,144 349,150 349,150 346,150 343,148 342,150 340,148 340,147 340,147 336,145 338,140 336,138 340,136 343,131 353,126" id="57442" class="commune" fill="steelblue" stroke-width="1" stroke="white" geotype="commune" geoname="Many" code_insee="57442" code_canton="5707"/><polygon points="338,47 337,43 345,33 356,26 358,25 362,27 368,35 365,38 371,44 375,42 377,44 385,44 376,51 366,54 357,52 355,53 350,50 346,52 338,47" id="57444" class="commune" fill="steelblue" stroke-width="1" stroke="white" geotype="commune" geoname="Marange-Zondrange" code_insee="57444" code_canton="5707"/><polygon points="134,104 140,115 145,113 147,115 140,118 142,125 136,126 126,123 119,126 111,121 113,120 109,114 106,111 111,109 111,102 117,100 118,103 123,102 127,104 134,104" id="57527" class="commune" fill="steelblue" stroke-width="1" stroke="white" geotype="commune" geoname="Orny" code_insee="57527" code_canton="5707"/><polygon points="85,162 91,163 89,160 102,156 108,159 116,159 113,161 114,170 112,170 115,170 115,173 107,177 101,172 87,175 85,162" id="57532" class="commune" fill="steelblue" stroke-width="1" stroke="white" geotype="commune" geoname="Pagny-lès-Goin" code_insee="57532" code_canton="5707"/><polygon points="59,135 60,133 63,133 60,137 62,138 80,133 81,137 76,140 81,141 83,151 74,153 67,151 64,148 60,148 60,150 56,144 60,140 56,138 59,135" id="57547" class="commune" fill="steelblue" stroke-width="1" stroke="white" geotype="commune" geoname="Pommérieux" code_insee="57547" code_canton="5707"/><polygon points="157,141 152,139 146,132 141,126 136,126 142,125 140,118 147,115 149,116 153,114 153,116 156,114 174,113 176,118 174,121 180,119 189,123 193,127 191,131 185,133 181,130 174,131 157,141" id="57548" class="commune" fill="steelblue" stroke-width="1" stroke="white" geotype="commune" geoname="Pontoy" code_insee="57548" code_canton="5707"/><polygon points="440,109 437,107 439,105 434,103 434,97 430,92 438,85 445,82 453,81 453,86 456,89 454,89 461,100 472,105 456,114 452,114 452,111 444,111 440,109" id="57549" class="commune" fill="steelblue" stroke-width="1" stroke="white" geotype="commune" geoname="Pontpierre" code_insee="57549" code_canton="5707"/><polygon points="108,138 105,139 104,136 101,137 98,133 93,133 89,127 86,126 88,121 85,119 109,114 113,120 111,121 107,123 105,128 110,137 108,138" id="57554" class="commune" fill="steelblue" stroke-width="1" stroke="white" geotype="commune" geoname="Pournoy-la-Grasse" code_insee="57554" code_canton="5707"/><polygon points="60,133 63,129 61,127 67,125 69,122 84,122 83,125 76,128 80,128 80,133 62,138 60,137 63,133 60,133" id="57554" class="commune" fill="steelblue" stroke-width="1" stroke="white" geotype="commune" geoname="Pournoy-la-Grasse" code_insee="57554" code_canton="5707"/><polygon points="284,151 279,153 277,151 270,152 267,153 264,149 266,145 250,143 242,145 239,145 237,141 232,142 227,138 221,138 209,139 207,136 204,138 204,135 200,136 196,134 195,136 195,131 199,129 203,125 209,125 213,122 217,122 212,115 228,117 229,122 231,120 234,123 239,121 242,124 251,119 253,123 261,122 258,127 254,127 255,129 263,128 271,124 271,127 274,125 278,129 275,131 277,132 278,142 279,147 284,151" id="57572" class="commune" fill="steelblue" stroke-width="1" stroke="white" geotype="commune" geoname="Rémilly" code_insee="57572" code_canton="5707"/><polygon points="60,150 55,157 58,162 52,160 53,162 44,166 27,165 32,154 27,155 24,150 27,149 19,147 17,148 20,145 18,144 16,145 15,143 20,140 59,135 56,138 60,140 56,144 60,150" id="57652" class="commune" fill="steelblue" stroke-width="1" stroke="white" geotype="commune" geoname="Sillegny" code_insee="57652" code_canton="5707"/><polygon points="152,139 157,141 163,146 158,148 157,151 145,152 140,146 141,143 152,139" id="57653" class="commune" fill="steelblue" stroke-width="1" stroke="white" geotype="commune" geoname="Silly-en-Saulnois" code_insee="57653" code_canton="5707"/><polygon points="146,167 153,165 154,162 160,157 174,152 178,151 186,158 180,166 184,172 181,171 166,176 163,174 152,173 147,174 144,170 146,167" id="57655" class="commune" fill="steelblue" stroke-width="1" stroke="white" geotype="commune" geoname="Solgne" code_insee="57655" code_canton="5707"/><polygon points="453,81 466,74 470,86 473,87 477,84 484,91 499,98 495,101 498,107 490,110 477,110 472,105 461,100 454,89 456,89 453,86 453,81" id="57668" class="commune" fill="steelblue" stroke-width="1" stroke="white" geotype="commune" geoname="Teting-sur-Nied" code_insee="57668" code_canton="5707"/><polygon points="406,141 407,143 401,148 395,149 396,150 393,151 388,148 381,151 377,156 373,157 372,159 375,159 371,160 365,147 368,145 378,143 376,138 383,134 385,135 406,141" id="57670" class="commune" fill="steelblue" stroke-width="1" stroke="white" geotype="commune" geoname="Thicourt" code_insee="57670" code_canton="5707"/><polygon points="259,186 260,191 254,192 239,201 237,202 233,199 235,196 229,187 233,180 239,178 239,173 253,173 256,170 264,168 266,170 259,170 262,177 257,178 259,186" id="57671" class="commune" fill="steelblue" stroke-width="1" stroke="white" geotype="commune" geoname="Thimonville" code_insee="57671" code_canton="5707"/><polygon points="401,148 402,153 400,154 398,152 395,160 388,163 377,156 381,151 388,148 393,151 396,150 395,149 401,148" id="57673" class="commune" fill="steelblue" stroke-width="1" stroke="white" geotype="commune" geoname="Thonville" code_insee="57673" code_canton="5707"/><polygon points="222,166 225,165 226,167 234,165 238,167 240,163 245,167 251,172 256,170 253,173 239,173 239,178 233,180 229,187 213,186 218,182 215,180 216,176 220,175 214,172 222,166" id="57676" class="commune" fill="steelblue" stroke-width="1" stroke="white" geotype="commune" geoname="Tragny" code_insee="57676" code_canton="5707"/><polygon points="438,85 430,82 424,89 415,71 418,68 418,67 418,66 427,66 440,62 440,66 445,68 443,72 445,82 438,85" id="57679" class="commune" fill="steelblue" stroke-width="1" stroke="white" geotype="commune" geoname="Tritteling-Redlach" code_insee="57679" code_canton="5707"/><polygon points="458,136 457,133 449,132 451,130 448,128 442,129 443,126 432,127 427,122 423,115 428,111 440,109 444,111 452,111 452,114 456,114 456,122 451,124 453,127 455,126 465,137 458,136" id="57686" class="commune" fill="steelblue" stroke-width="1" stroke="white" geotype="commune" geoname="Vahl-lès-Faulquemont" code_insee="57686" code_canton="5707"/><polygon points="336,150 338,150 336,151 336,151 339,151 339,152 338,153 338,153 336,154 337,156 335,156 334,158 332,159 336,160 333,161 331,161 331,163 331,164 327,164 326,165 326,166 325,166 321,168 314,164 313,167 307,167 303,163 293,161 289,156 290,152 298,149 297,147 305,147 308,149 307,150 317,148 329,149 331,152 336,150" id="57698" class="commune" fill="steelblue" stroke-width="1" stroke="white" geotype="commune" geoname="Vatimont" code_insee="57698" code_canton="5707"/><polygon points="71,119 74,120 85,119 88,121 86,126 89,127 93,133 98,133 101,137 104,136 105,139 98,142 87,143 81,141 76,140 81,137 80,133 80,128 76,128 83,125 84,122 69,122 68,121 71,119" id="57708" class="commune" fill="steelblue" stroke-width="1" stroke="white" geotype="commune" geoname="Verny" code_insee="57708" code_canton="5707"/><polygon points="403,42 396,45 393,54 396,56 395,59 399,65 385,72 377,71 371,76 364,72 366,71 360,64 362,62 366,54 376,51 385,44 391,41 397,40 403,42" id="57714" class="commune" fill="steelblue" stroke-width="1" stroke="white" geotype="commune" geoname="Haute-Vigneulles" code_insee="57714" code_canton="5707"/><polygon points="292,95 286,95 280,93 281,97 277,96 275,101 268,104 259,101 249,105 257,100 247,94 261,91 262,83 265,84 267,83 270,85 270,83 271,86 285,82 298,87 306,85 308,82 312,83 315,78 320,81 322,85 325,85 322,88 333,92 335,97 330,97 321,90 301,96 292,95" id="57718" class="commune" fill="steelblue" stroke-width="1" stroke="white" geotype="commune" geoname="Villers-Stoncourt" code_insee="57718" code_canton="5707"/><polygon points="291,115 293,115 291,113 295,111 305,111 308,109 311,102 309,100 312,99 319,107 316,110 311,111 317,131 299,138 296,131 300,128 297,128 293,124 282,128 279,127 277,132 275,131 278,129 274,125 271,127 271,124 269,118 273,116 279,116 284,114 291,115" id="57726" class="commune" fill="steelblue" stroke-width="1" stroke="white" geotype="commune" geoname="Vittoncourt" code_insee="57726" code_canton="5707"/><polygon points="269,107 271,107 277,111 287,111 291,115 284,114 279,116 273,116 269,118 271,124 263,128 255,129 254,127 258,127 261,122 253,123 251,119 256,118 255,117 269,107" id="57728" class="commune" fill="steelblue" stroke-width="1" stroke="white" geotype="commune" geoname="Voimhaut" code_insee="57728" code_canton="5707"/><polygon points="426,26 426,35 419,38 403,42 397,40 391,41 387,37 390,27 393,25 389,20 405,20 420,21 426,26" id="57762" class="commune" fill="steelblue" stroke-width="1" stroke="white" geotype="commune" geoname="Zimming" code_insee="57762" code_canton="5707"/></svg>