<?xml version="1.0" encoding="utf-8"?>
<svg version="1.1" id="svgmap" xmlns="http://www.w3.org/2000/svg" xmlns:xlink="http://www.w3.org/1999/xlink" x="0px" y="0px" width="100%" height="100%" viewBox="0 0 500 397">
<polygon points="485,202 466,205 441,195 415,200 392,193 377,195 383,169 390,169 397,151 409,134 433,135 449,128 474,149 478,162 487,178 480,187 500,202 485,202" id="57091" class="commune" fill="steelblue" stroke-width="1" stroke="white" geotype="commune" geoname="Bliesbruck" code_insee="57091" code_canton="5722"/><polygon points="336,136 338,127 348,135 379,142 397,151 390,169 383,169 377,195 364,200 355,204 343,190 333,187 342,172 337,170 348,162 343,150 330,148 336,136" id="57092" class="commune" fill="steelblue" stroke-width="1" stroke="white" geotype="commune" geoname="Blies-Ébersing" code_insee="57092" code_canton="5722"/><polygon points="267,128 252,127 235,107 240,102 232,92 238,83 254,86 276,77 300,85 281,100 282,114 287,115 282,120 274,117 267,128" id="57093" class="commune" fill="steelblue" stroke-width="1" stroke="white" geotype="commune" geoname="Blies-Guersviller" code_insee="57093" code_canton="5722"/><polygon points="338,127 336,136 307,131 286,139 267,128 274,117 282,120 287,115 282,114 328,107 338,127" id="57234" class="commune" fill="steelblue" stroke-width="1" stroke="white" geotype="commune" geoname="Frauenberg" code_insee="57234" code_canton="5722"/><polygon points="60,54 68,46 83,48 105,34 106,17 98,4 110,0 114,8 138,4 123,47 134,62 132,75 163,117 160,134 142,132 127,143 115,142 109,137 121,128 107,123 99,112 72,103 78,95 70,69 57,62 60,54" id="57260" class="commune" fill="steelblue" stroke-width="1" stroke="white" geotype="commune" geoname="Grosbliederstroff" code_insee="57260" code_canton="5722"/><polygon points="92,339 81,331 82,324 70,315 71,307 91,297 82,272 110,266 121,256 113,240 135,222 131,212 136,210 149,209 149,234 149,243 123,255 145,254 162,259 176,254 187,279 215,283 228,297 179,339 174,334 166,335 150,323 117,322 98,327 102,333 92,339" id="57289" class="commune" fill="steelblue" stroke-width="1" stroke="white" geotype="commune" geoname="Hambach" code_insee="57289" code_canton="5722"/><polygon points="20,241 15,236 11,228 17,223 6,227 0,218 14,209 6,174 11,168 27,161 37,148 67,151 65,180 46,215 41,227 20,241" id="57340" class="commune" fill="steelblue" stroke-width="1" stroke="white" geotype="commune" geoname="Hundling" code_insee="57340" code_canton="5722"/><polygon points="46,215 65,180 67,151 89,152 95,154 94,174 100,176 77,201 66,213 46,215" id="57348" class="commune" fill="steelblue" stroke-width="1" stroke="white" geotype="commune" geoname="Ippling" code_insee="57348" code_canton="5722"/><polygon points="401,340 412,362 424,368 433,367 432,379 424,379 428,389 401,397 401,389 327,390 331,372 318,364 319,353 318,339 305,339 301,334 313,324 356,303 368,299 379,302 389,317 386,334 377,342 401,340" id="57355" class="commune" fill="steelblue" stroke-width="1" stroke="white" geotype="commune" geoname="Kalhausen" code_insee="57355" code_canton="5722"/><polygon points="50,59 60,54 57,62 70,69 78,95 72,103 35,108 28,114 17,113 19,94 36,62 50,59" id="57408" class="commune" fill="steelblue" stroke-width="1" stroke="white" geotype="commune" geoname="Lixing-lès-Rouhling" code_insee="57408" code_canton="5722"/><polygon points="210,221 213,225 229,224 247,231 266,230 271,240 255,254 241,259 223,248 206,265 215,283 187,279 176,254 162,259 145,254 123,255 149,243 149,234 167,236 192,231 210,221" id="57499" class="commune" fill="steelblue" stroke-width="1" stroke="white" geotype="commune" geoname="Neufgrange" code_insee="57499" code_canton="5722"/><polygon points="256,206 282,220 280,224 267,221 266,230 247,231 229,224 213,225 210,221 220,204 231,198 256,206" id="57568" class="commune" fill="steelblue" stroke-width="1" stroke="white" geotype="commune" geoname="Rémelfing" code_insee="57568" code_canton="5722"/><polygon points="28,114 35,108 72,103 99,112 107,123 121,128 109,137 115,142 89,152 67,151 37,148 42,141 30,126 36,120 28,114" id="57598" class="commune" fill="steelblue" stroke-width="1" stroke="white" geotype="commune" geoname="Rouhling" code_insee="57598" code_canton="5722"/><polygon points="252,127 267,128 286,139 307,131 336,136 330,148 343,150 348,162 337,170 342,172 333,187 296,187 265,197 256,206 231,198 220,204 210,221 192,231 167,236 149,234 149,209 136,210 125,201 119,207 115,198 105,202 95,217 79,213 95,212 98,198 77,201 100,176 94,174 95,154 89,152 115,142 127,143 142,132 160,134 158,155 168,164 186,169 205,163 216,143 249,132 252,127" id="57631" class="commune" fill="steelblue" stroke-width="1" stroke="white" geotype="commune" geoname="Sarreguemines" code_insee="57631" code_canton="5722"/><polygon points="266,230 267,221 280,224 282,220 256,206 265,197 296,187 333,187 343,190 355,204 364,200 371,216 366,230 348,232 335,219 324,219 322,230 302,229 295,224 271,240 266,230" id="57633" class="commune" fill="steelblue" stroke-width="1" stroke="white" geotype="commune" geoname="Sarreinsming" code_insee="57633" code_canton="5722"/><polygon points="458,264 410,284 405,273 373,266 360,256 366,230 371,216 364,200 377,195 392,193 412,209 416,205 412,225 428,233 458,264" id="57745" class="commune" fill="steelblue" stroke-width="1" stroke="white" geotype="commune" geoname="Wiesviller" code_insee="57745" code_canton="5722"/><polygon points="174,384 171,384 171,378 165,383 170,385 167,389 163,388 161,385 152,388 152,384 141,388 135,388 136,377 128,373 120,372 118,369 131,367 129,362 131,357 114,348 100,345 92,339 102,333 98,327 117,322 150,323 166,335 174,334 179,339 164,371 178,377 174,384" id="57746" class="commune" fill="steelblue" stroke-width="1" stroke="white" geotype="commune" geoname="Willerwald" code_insee="57746" code_canton="5722"/><polygon points="410,284 379,302 368,299 356,303 313,324 286,307 286,286 277,280 276,269 301,267 307,277 335,280 344,276 365,278 373,266 405,273 410,284" id="57748" class="commune" fill="steelblue" stroke-width="1" stroke="white" geotype="commune" geoname="Wittring" code_insee="57748" code_canton="5722"/><polygon points="466,260 458,264 428,233 412,225 416,205 412,209 392,193 415,200 441,195 466,205 485,202 487,226 472,238 466,260" id="57750" class="commune" fill="steelblue" stroke-width="1" stroke="white" geotype="commune" geoname="Wœlfling-lès-Sarreguemines" code_insee="57750" code_canton="5722"/><polygon points="271,240 295,224 302,229 322,230 324,219 335,219 348,232 366,230 360,256 373,266 365,278 344,276 335,280 307,277 301,267 313,260 299,251 283,252 271,240" id="57760" class="commune" fill="steelblue" stroke-width="1" stroke="white" geotype="commune" geoname="Zetting" code_insee="57760" code_canton="5722"/></svg>