<?xml version="1.0" encoding="utf-8"?>
<svg version="1.1" id="svgmap" xmlns="http://www.w3.org/2000/svg" xmlns:xlink="http://www.w3.org/1999/xlink" x="0px" y="0px" width="100%" height="100%" viewBox="0 0 500 210">
<polygon points="114,110 114,110 111,112 105,112 102,113 103,115 98,116 96,115 87,116 83,114 83,110 92,109 96,109 110,106 113,108 114,110" id="57002" class="commune" fill="steelblue" stroke-width="1" stroke="white" geotype="commune" geoname="Aboncourt-sur-Seille" code_insee="57002" code_canton="5723"/><polygon points="250,39 251,45 253,45 257,47 256,51 258,54 250,56 248,58 243,54 234,52 236,48 242,45 244,40 250,39" id="57004" class="commune" fill="steelblue" stroke-width="1" stroke="white" geotype="commune" geoname="Achain" code_insee="57004" code_canton="5723"/><polygon points="72,99 66,102 62,97 56,97 52,95 53,91 62,90 66,89 68,87 70,88 72,92 72,99" id="57009" class="commune" fill="steelblue" stroke-width="1" stroke="white" geotype="commune" geoname="Ajoncourt" code_insee="57009" code_canton="5723"/><polygon points="79,56 81,56 86,60 95,54 95,52 99,52 102,55 90,62 92,65 91,67 84,71 76,68 78,62 79,56" id="57010" class="commune" fill="steelblue" stroke-width="1" stroke="white" geotype="commune" geoname="Alaincourt-la-Côte" code_insee="57010" code_canton="5723"/><polygon points="399,39 402,36 404,33 421,29 434,27 439,28 438,30 448,35 449,40 450,41 451,39 452,40 453,47 459,48 459,49 449,49 448,47 442,46 438,47 435,51 423,53 422,52 425,52 424,51 422,52 422,50 413,47 400,49 398,49 394,42 399,39" id="57011" class="commune" fill="steelblue" stroke-width="1" stroke="white" geotype="commune" geoname="Albestroff" code_insee="57011" code_canton="5723"/><polygon points="172,100 162,93 169,90 183,87 187,94 192,97 193,100 200,101 202,104 198,109 196,105 191,106 186,104 185,106 172,100" id="57018" class="commune" fill="steelblue" stroke-width="1" stroke="white" geotype="commune" geoname="Amelécourt" code_insee="57018" code_canton="5723"/><polygon points="114,110 114,110 121,109 119,111 122,111 124,114 120,117 121,119 119,118 116,118 117,113 114,110" id="57036" class="commune" fill="steelblue" stroke-width="1" stroke="white" geotype="commune" geoname="Attilloncourt" code_insee="57036" code_canton="5723"/><polygon points="118,135 114,136 107,133 106,131 110,130 109,129 114,127 113,125 121,120 120,123 122,129 121,132 117,133 118,135" id="57036" class="commune" fill="steelblue" stroke-width="1" stroke="white" geotype="commune" geoname="Attilloncourt" code_insee="57036" code_canton="5723"/><polygon points="90,83 106,84 110,84 109,87 105,89 102,88 103,86 97,89 95,89 89,83 91,84 90,83" id="57040" class="commune" fill="steelblue" stroke-width="1" stroke="white" geotype="commune" geoname="Aulnois-sur-Seille" code_insee="57040" code_canton="5723"/><polygon points="62,90 61,86 59,86 60,81 66,83 69,83 67,75 71,76 73,78 77,77 83,82 84,81 86,83 83,85 68,87 66,89 62,90" id="57040" class="commune" fill="steelblue" stroke-width="1" stroke="white" geotype="commune" geoname="Aulnois-sur-Seille" code_insee="57040" code_canton="5723"/><polygon points="131,32 133,31 135,34 140,33 141,35 136,36 138,42 135,43 137,45 136,45 130,50 129,49 126,49 125,46 122,45 120,46 116,43 128,37 133,36 131,32" id="57045" class="commune" fill="steelblue" stroke-width="1" stroke="white" geotype="commune" geoname="Bacourt" code_insee="57045" code_canton="5723"/><polygon points="379,87 377,87 375,85 370,85 369,77 384,65 385,65 390,73 394,74 395,75 392,78 388,79 385,84 379,87" id="57053" class="commune" fill="steelblue" stroke-width="1" stroke="white" geotype="commune" geoname="Bassing" code_insee="57053" code_canton="5723"/><polygon points="150,20 155,18 158,13 166,14 168,17 173,17 176,24 174,26 159,29 157,27 157,25 150,20" id="57054" class="commune" fill="steelblue" stroke-width="1" stroke="white" geotype="commune" geoname="Baudrecourt" code_insee="57054" code_canton="5723"/><polygon points="234,52 243,54 248,58 244,65 239,66 234,63 233,61 228,61 226,59 229,54 234,52" id="57059" class="commune" fill="steelblue" stroke-width="1" stroke="white" geotype="commune" geoname="Bellange" code_insee="57059" code_canton="5723"/><polygon points="362,65 357,67 354,62 351,61 344,64 343,69 342,69 341,62 339,60 342,58 339,56 341,53 348,50 344,42 360,39 360,41 356,42 364,52 363,53 366,57 364,60 366,63 362,65" id="57060" class="commune" fill="steelblue" stroke-width="1" stroke="white" geotype="commune" geoname="Bénestroff" code_insee="57060" code_canton="5723"/><polygon points="325,30 330,31 331,34 337,36 332,40 337,41 339,44 332,46 327,44 324,45 324,46 319,46 321,43 317,44 312,35 321,29 325,30" id="57065" class="commune" fill="steelblue" stroke-width="1" stroke="white" geotype="commune" geoname="Bermering" code_insee="57065" code_canton="5723"/><polygon points="259,155 262,154 263,155 262,156 269,161 270,161 272,163 274,162 275,164 276,167 267,171 267,174 265,176 266,177 264,178 260,176 252,177 250,168 246,166 249,165 249,163 254,159 254,157 259,155" id="57077" class="commune" fill="steelblue" stroke-width="1" stroke="white" geotype="commune" geoname="Bezange-la-Petite" code_insee="57077" code_canton="5723"/><polygon points="370,85 375,85 377,87 379,87 382,90 389,92 391,94 387,97 378,101 379,102 375,103 376,106 366,107 367,101 359,95 361,92 360,90 363,89 370,85" id="57081" class="commune" fill="steelblue" stroke-width="1" stroke="white" geotype="commune" geoname="Bidestroff" code_insee="57081" code_canton="5723"/><polygon points="97,128 96,124 91,119 97,118 97,116 98,116 103,115 102,113 105,112 111,112 114,110 117,113 116,118 119,118 121,119 121,120 113,125 114,127 109,129 110,130 106,131 107,133 103,136 98,136 97,128" id="57084" class="commune" fill="steelblue" stroke-width="1" stroke="white" geotype="commune" geoname="Bioncourt" code_insee="57084" code_canton="5723"/><polygon points="309,119 314,120 315,122 311,123 312,126 317,129 316,131 312,131 310,135 303,138 301,139 293,138 289,135 288,131 286,132 284,130 293,126 302,124 304,121 309,119" id="57090" class="commune" fill="steelblue" stroke-width="1" stroke="white" geotype="commune" geoname="Blanche-Église" code_insee="57090" code_canton="5723"/><polygon points="369,77 370,85 363,89 357,87 352,91 352,84 348,82 350,79 346,75 348,69 343,69 344,64 351,61 354,62 357,67 362,65 362,68 370,72 369,77" id="57098" class="commune" fill="steelblue" stroke-width="1" stroke="white" geotype="commune" geoname="Bourgaltroff" code_insee="57098" code_canton="5723"/><polygon points="313,167 323,166 326,165 323,163 325,162 324,160 332,158 334,157 344,160 354,155 357,158 360,165 353,168 354,169 350,172 353,175 351,176 353,182 357,185 353,189 351,188 346,190 341,185 337,186 337,184 334,183 333,180 328,180 326,179 324,180 321,179 319,172 322,170 319,167 313,167" id="57099" class="commune" fill="steelblue" stroke-width="1" stroke="white" geotype="commune" geoname="Bourdonnay" code_insee="57099" code_canton="5723"/><polygon points="229,54 226,59 220,60 217,62 213,56 205,52 207,51 210,51 214,48 218,48 224,49 225,53 229,54" id="57107" class="commune" fill="steelblue" stroke-width="1" stroke="white" geotype="commune" geoname="Bréhain" code_insee="57107" code_canton="5723"/><polygon points="230,75 243,72 245,77 248,77 246,82 260,82 260,85 247,85 246,91 241,96 239,97 234,95 235,93 229,86 229,83 227,83 230,81 230,75" id="57120" class="commune" fill="steelblue" stroke-width="1" stroke="white" geotype="commune" geoname="Burlioncourt" code_insee="57120" code_canton="5723"/><polygon points="162,113 170,114 170,116 171,118 176,122 175,126 180,131 180,133 174,133 172,134 169,136 169,139 163,140 164,144 159,145 158,139 160,137 159,136 153,137 147,130 145,129 144,121 141,121 144,116 143,115 148,116 147,112 153,115 161,111 162,113" id="57126" class="commune" fill="steelblue" stroke-width="1" stroke="white" geotype="commune" geoname="Chambrey" code_insee="57126" code_canton="5723"/><polygon points="217,62 216,67 206,68 200,66 199,64 194,63 193,64 189,63 191,58 188,56 205,52 213,56 217,62" id="57130" class="commune" fill="steelblue" stroke-width="1" stroke="white" geotype="commune" geoname="Château-Bréhain" code_insee="57130" code_canton="5723"/><polygon points="170,116 170,114 162,113 162,108 168,108 167,106 165,106 166,102 172,100 185,106 186,104 191,106 196,105 198,109 202,104 203,104 206,106 202,109 205,111 208,118 206,121 200,118 188,117 183,119 181,118 183,117 181,116 175,117 170,116" id="57132" class="commune" fill="steelblue" stroke-width="1" stroke="white" geotype="commune" geoname="Château-Salins" code_insee="57132" code_canton="5723"/><polygon points="289,79 291,77 293,78 293,80 285,83 272,92 273,96 278,99 278,97 281,98 282,100 283,101 277,102 268,108 266,108 263,104 267,99 263,98 261,94 260,85 260,82 264,80 269,81 271,84 270,86 275,87 289,79" id="57133" class="commune" fill="steelblue" stroke-width="1" stroke="white" geotype="commune" geoname="Château-Voué" code_insee="57133" code_canton="5723"/><polygon points="182,17 183,16 184,17 186,16 187,17 186,19 191,19 194,24 190,28 186,28 185,28 184,28 181,30 179,27 174,26 176,24 173,17 174,15 179,18 182,17" id="57138" class="commune" fill="steelblue" stroke-width="1" stroke="white" geotype="commune" geoname="Chenois" code_insee="57138" code_canton="5723"/><polygon points="192,38 197,40 199,43 197,45 198,47 203,45 207,51 205,52 188,56 185,54 183,49 182,46 184,43 181,40 183,38 188,39 192,38" id="57141" class="commune" fill="steelblue" stroke-width="1" stroke="white" geotype="commune" geoname="Chicourt" code_insee="57141" code_canton="5723"/><polygon points="289,79 282,75 285,73 283,73 282,71 284,69 281,64 284,59 296,51 298,54 305,52 303,57 310,56 310,58 301,62 301,65 299,66 304,75 293,78 291,77 289,79" id="57151" class="commune" fill="steelblue" stroke-width="1" stroke="white" geotype="commune" geoname="Conthil" code_insee="57151" code_canton="5723"/><polygon points="67,75 68,73 60,71 66,67 65,66 67,66 67,64 78,62 76,68 84,71 91,67 90,69 97,75 100,79 105,79 104,81 108,82 106,84 90,83 86,83 84,81 83,82 77,77 73,78 71,76 67,75" id="57158" class="commune" fill="steelblue" stroke-width="1" stroke="white" geotype="commune" geoname="Craincourt" code_insee="57158" code_canton="5723"/><polygon points="409,88 417,91 416,92 419,95 416,98 413,97 412,98 403,101 402,100 399,101 400,99 390,101 387,97 391,94 400,87 409,88" id="57161" class="commune" fill="steelblue" stroke-width="1" stroke="white" geotype="commune" geoname="Cutting" code_insee="57161" code_canton="5723"/><polygon points="216,67 217,62 220,60 226,59 228,61 233,61 234,63 239,66 244,65 243,72 230,75 223,67 220,66 216,67" id="57166" class="commune" fill="steelblue" stroke-width="1" stroke="white" geotype="commune" geoname="Dalhain" code_insee="57166" code_canton="5723"/><polygon points="100,79 97,75 103,76 103,74 108,72 111,68 115,67 110,61 112,60 116,63 122,63 123,61 126,65 132,65 131,66 125,70 124,74 112,78 110,76 100,79" id="57171" class="commune" fill="steelblue" stroke-width="1" stroke="white" geotype="commune" geoname="Delme" code_insee="57171" code_canton="5723"/><polygon points="336,105 341,108 344,111 345,114 336,120 335,124 329,125 328,131 322,131 322,128 321,130 316,131 317,129 312,126 311,123 315,122 318,118 317,116 318,112 325,111 329,107 332,106 334,107 336,105" id="57177" class="commune" fill="steelblue" stroke-width="1" stroke="white" geotype="commune" geoname="Dieuze" code_insee="57177" code_canton="5723"/><polygon points="379,87 385,84 388,79 392,78 395,75 406,79 410,79 411,86 409,88 400,87 391,94 389,92 382,90 379,87" id="57181" class="commune" fill="steelblue" stroke-width="1" stroke="white" geotype="commune" geoname="Domnom-lès-Dieuze" code_insee="57181" code_canton="5723"/><polygon points="143,71 140,72 141,79 127,78 125,78 123,75 124,74 125,70 131,66 143,71" id="57182" class="commune" fill="steelblue" stroke-width="1" stroke="white" geotype="commune" geoname="Donjeux" code_insee="57182" code_canton="5723"/><polygon points="312,143 313,145 318,144 320,146 324,149 326,155 332,158 324,160 325,162 323,163 326,165 323,166 313,167 305,164 299,162 298,159 294,160 288,155 297,144 312,143" id="57183" class="commune" fill="steelblue" stroke-width="1" stroke="white" geotype="commune" geoname="Donnelay" code_insee="57183" code_canton="5723"/><polygon points="183,87 169,90 163,86 165,82 160,81 162,77 160,73 155,74 153,73 158,71 156,69 158,64 163,63 162,59 168,57 177,67 184,67 183,66 187,65 190,68 192,69 195,74 199,74 200,76 193,80 188,86 183,87" id="57225" class="commune" fill="steelblue" stroke-width="1" stroke="white" geotype="commune" geoname="Fonteny" code_insee="57225" code_canton="5723"/><polygon points="81,101 72,99 72,92 70,88 68,87 83,85 86,83 90,83 91,84 89,83 95,89 91,90 81,101" id="57228" class="commune" fill="steelblue" stroke-width="1" stroke="white" geotype="commune" geoname="Fossieux" code_insee="57228" code_canton="5723"/><polygon points="81,56 79,56 79,55 73,54 68,52 70,47 69,46 78,42 82,40 85,41 90,46 77,51 81,56" id="57231" class="commune" fill="steelblue" stroke-width="1" stroke="white" geotype="commune" geoname="Foville" code_insee="57231" code_canton="5723"/><polygon points="393,32 386,35 388,38 383,38 379,37 375,32 374,33 369,34 363,29 363,22 368,21 368,19 365,19 363,17 360,17 360,15 367,16 366,14 369,12 376,15 379,10 376,8 374,1 382,0 396,5 393,6 388,6 388,12 383,18 381,26 387,28 391,32 392,31 393,32" id="57232" class="commune" fill="steelblue" stroke-width="1" stroke="white" geotype="commune" geoname="Francaltroff" code_insee="57232" code_canton="5723"/><polygon points="181,40 184,43 182,46 183,49 174,53 172,52 170,46 163,45 158,42 155,40 161,38 170,40 176,38 178,40 181,40" id="57236" class="commune" fill="steelblue" stroke-width="1" stroke="white" geotype="commune" geoname="Frémery" code_insee="57236" code_canton="5723"/><polygon points="162,113 161,111 159,109 145,111 138,109 138,107 142,107 141,105 139,106 138,101 133,100 134,96 134,93 144,84 148,83 162,93 172,100 166,102 165,106 167,106 168,108 162,108 162,113" id="57238" class="commune" fill="steelblue" stroke-width="1" stroke="white" geotype="commune" geoname="Fresnes-en-Saulnois" code_insee="57238" code_canton="5723"/><polygon points="320,146 326,140 330,138 328,135 335,137 341,132 349,142 351,143 354,142 356,145 354,148 361,148 360,152 364,157 363,158 361,156 357,158 354,155 344,160 334,157 332,158 326,155 324,149 320,146" id="57246" class="commune" fill="steelblue" stroke-width="1" stroke="white" geotype="commune" geoname="Gelucourt" code_insee="57246" code_canton="5723"/><polygon points="212,98 209,100 203,94 195,92 188,86 193,80 197,82 196,86 200,87 208,94 213,96 212,98" id="57247" class="commune" fill="steelblue" stroke-width="1" stroke="white" geotype="commune" geoname="Gerbécourt" code_insee="57247" code_canton="5723"/><polygon points="459,48 453,47 452,40 451,39 450,41 449,40 448,35 451,34 459,35 462,37 459,48" id="57248" class="commune" fill="steelblue" stroke-width="1" stroke="white" geotype="commune" geoname="Givrycourt" code_insee="57248" code_canton="5723"/><polygon points="161,111 153,115 147,112 148,116 143,115 144,116 141,121 139,127 136,125 132,127 131,126 128,129 126,127 122,129 120,123 121,120 121,119 120,117 124,114 122,111 119,111 121,109 128,109 139,106 141,105 142,107 138,107 138,109 145,111 159,109 161,111" id="57257" class="commune" fill="steelblue" stroke-width="1" stroke="white" geotype="commune" geoname="Grémecey" code_insee="57257" code_canton="5723"/><polygon points="320,88 324,85 324,89 334,100 334,105 336,105 334,107 332,106 329,107 325,105 316,90 320,88" id="57265" class="commune" fill="steelblue" stroke-width="1" stroke="white" geotype="commune" geoname="Guébestroff" code_insee="57265" code_canton="5723"/><polygon points="303,138 310,135 312,131 316,131 321,130 322,128 322,131 328,131 328,135 330,138 326,140 320,146 318,144 313,145 312,143 311,140 303,138" id="57266" class="commune" fill="steelblue" stroke-width="1" stroke="white" geotype="commune" geoname="Guéblange-lès-Dieuze" code_insee="57266" code_canton="5723"/><polygon points="342,69 343,69 348,69 346,75 350,79 348,82 352,84 352,91 349,93 344,89 338,88 335,85 332,85 332,83 326,83 325,77 332,78 333,72 338,72 337,71 342,69" id="57268" class="commune" fill="steelblue" stroke-width="1" stroke="white" geotype="commune" geoname="Guébling" code_insee="57268" code_canton="5723"/><polygon points="315,122 314,120 309,119 304,111 300,110 301,106 297,104 293,105 288,100 301,98 304,94 316,90 325,105 329,107 325,111 318,112 317,116 318,118 315,122" id="57270" class="commune" fill="steelblue" stroke-width="1" stroke="white" geotype="commune" geoname="Val-de-Bride" code_insee="57270" code_canton="5723"/><polygon points="395,75 394,74 398,72 398,69 404,66 412,64 422,75 418,78 410,79 406,79 395,75" id="57278" class="commune" fill="steelblue" stroke-width="1" stroke="white" geotype="commune" geoname="Guinzeling" code_insee="57278" code_canton="5723"/><polygon points="248,58 250,56 258,54 265,59 267,68 265,70 266,76 264,80 260,82 246,82 248,77 245,77 243,72 244,65 248,58" id="57281" class="commune" fill="steelblue" stroke-width="1" stroke="white" geotype="commune" geoname="Haboudange" code_insee="57281" code_canton="5723"/><polygon points="234,95 239,97 241,96 257,95 261,94 263,98 267,99 263,104 252,107 244,117 241,113 237,114 233,115 236,110 233,109 231,106 226,107 224,104 225,96 233,96 234,95" id="57290" class="commune" fill="steelblue" stroke-width="1" stroke="white" geotype="commune" geoname="Hampont" code_insee="57290" code_canton="5723"/><polygon points="172,52 168,54 167,52 161,55 159,54 154,57 153,56 148,58 147,54 147,49 157,46 158,42 163,45 170,46 172,52" id="57292" class="commune" fill="steelblue" stroke-width="1" stroke="white" geotype="commune" geoname="Hannocourt" code_insee="57292" code_canton="5723"/><polygon points="243,124 247,119 244,117 252,107 263,104 266,108 266,112 264,114 266,114 267,119 264,120 267,129 265,130 258,128 255,129 253,127 243,124" id="57295" class="commune" fill="steelblue" stroke-width="1" stroke="white" geotype="commune" geoname="Haraucourt-sur-Seille" code_insee="57295" code_canton="5723"/><polygon points="482,26 484,27 500,28 497,32 494,35 495,38 483,43 476,40 474,37 469,34 469,32 472,29 482,26" id="57335" class="commune" fill="steelblue" stroke-width="1" stroke="white" geotype="commune" geoname="Honskirch" code_insee="57335" code_canton="5723"/><polygon points="448,35 438,30 439,28 434,27 421,29 416,23 418,20 432,18 441,12 436,17 438,16 449,23 451,34 448,35" id="57346" class="commune" fill="steelblue" stroke-width="1" stroke="white" geotype="commune" geoname="Insming" code_insee="57346" code_canton="5723"/><polygon points="440,75 436,74 433,69 437,60 453,55 461,59 464,62 470,64 476,69 470,70 469,68 461,68 452,72 454,76 448,73 444,75 440,75" id="57347" class="commune" fill="steelblue" stroke-width="1" stroke="white" geotype="commune" geoname="Insviller" code_insee="57347" code_canton="5723"/><polygon points="114,110 113,108 110,106 110,105 106,101 114,94 114,91 121,90 125,94 127,91 130,96 134,96 133,100 138,101 139,106 128,109 121,109 114,110" id="57349" class="commune" fill="steelblue" stroke-width="1" stroke="white" geotype="commune" geoname="Jallaucourt" code_insee="57349" code_canton="5723"/><polygon points="279,153 279,152 280,152 280,151 277,148 276,148 275,143 272,141 289,135 293,138 301,139 303,138 311,140 312,143 297,144 288,155 279,153" id="57353" class="commune" fill="steelblue" stroke-width="1" stroke="white" geotype="commune" geoname="Juvelize" code_insee="57353" code_canton="5723"/><polygon points="98,49 90,46 85,41 92,36 91,34 97,32 108,32 114,40 112,42 102,45 103,47 98,49" id="57354" class="commune" fill="steelblue" stroke-width="1" stroke="white" geotype="commune" geoname="Juville" code_insee="57354" code_canton="5723"/><polygon points="293,183 295,181 304,184 312,185 321,181 326,184 331,182 334,183 337,184 337,186 341,185 346,190 345,192 353,194 353,195 352,206 348,208 343,207 338,210 334,210 330,206 327,208 325,204 322,205 319,203 316,205 312,204 311,203 314,200 308,196 302,204 299,204 296,208 295,205 298,204 298,196 302,194 293,183" id="57375" class="commune" fill="steelblue" stroke-width="1" stroke="white" geotype="commune" geoname="Lagarde" code_insee="57375" code_canton="5723"/><polygon points="169,90 162,93 148,83 144,84 146,82 140,82 144,81 141,79 140,72 143,71 145,71 147,73 150,71 153,73 155,74 160,73 162,77 160,81 165,82 163,86 169,90" id="57381" class="commune" fill="steelblue" stroke-width="1" stroke="white" geotype="commune" geoname="Laneuveville-en-Saulnois" code_insee="57381" code_canton="5723"/><polygon points="109,87 110,84 106,84 108,82 104,81 105,79 100,79 110,76 112,78 124,74 123,75 125,78 127,78 126,81 128,85 130,85 128,88 129,90 127,90 124,89 121,90 114,91 109,87" id="57391" class="commune" fill="steelblue" stroke-width="1" stroke="white" geotype="commune" geoname="Lemoncourt" code_insee="57391" code_canton="5723"/><polygon points="402,36 399,39 393,32 392,31 391,32 387,28 381,26 383,18 388,12 392,14 398,10 404,16 401,18 401,21 397,23 397,24 395,25 396,29 400,32 399,35 402,36" id="57394" class="commune" fill="steelblue" stroke-width="1" stroke="white" geotype="commune" geoname="Léning" code_insee="57394" code_canton="5723"/><polygon points="181,30 184,28 185,28 186,28 190,28 194,24 191,19 186,19 187,17 186,16 184,17 183,16 182,17 183,16 184,16 186,15 191,16 196,15 196,16 199,15 199,16 200,15 201,15 202,16 203,16 204,16 204,16 204,18 206,18 206,20 208,20 209,23 211,22 213,24 212,26 213,27 209,29 213,34 210,36 208,36 202,36 200,38 197,40 192,38 194,37 195,36 194,36 193,35 195,34 192,30 185,31 181,30" id="57395" class="commune" fill="steelblue" stroke-width="1" stroke="white" geotype="commune" geoname="Lesse" code_insee="57395" code_canton="5723"/><polygon points="279,164 278,164 279,163 279,162 280,161 278,159 276,158 275,157 277,154 276,153 279,153 288,155 294,160 298,159 299,162 305,164 300,165 297,167 298,169 290,174 291,176 287,176 286,172 281,168 282,165 279,164" id="57397" class="commune" fill="steelblue" stroke-width="1" stroke="white" geotype="commune" geoname="Ley" code_insee="57397" code_canton="5723"/><polygon points="272,141 275,143 276,148 277,148 280,151 280,152 279,152 279,153 276,153 277,154 275,157 276,158 278,159 280,161 279,162 279,163 278,164 279,164 278,165 275,164 274,162 272,163 270,161 269,161 262,156 263,155 262,154 259,155 257,153 258,150 255,149 258,148 257,147 255,146 250,146 246,144 249,145 253,142 254,143 255,143 258,141 260,142 261,140 263,140 264,143 271,142 272,141" id="57399" class="commune" fill="steelblue" stroke-width="1" stroke="white" geotype="commune" geoname="Lezey" code_insee="57399" code_canton="5723"/><polygon points="324,85 320,88 315,78 310,75 307,75 309,72 308,70 313,67 319,65 321,66 323,65 333,58 339,56 342,58 339,60 341,62 342,69 337,71 338,72 333,72 332,78 325,77 326,83 324,85" id="57401" class="commune" fill="steelblue" stroke-width="1" stroke="white" geotype="commune" geoname="Lidrezing" code_insee="57401" code_canton="5723"/><polygon points="328,131 329,125 335,124 336,120 345,114 351,116 355,113 368,110 369,113 366,114 365,119 369,121 362,126 360,127 349,128 341,132 335,137 328,135 328,131" id="57404" class="commune" fill="steelblue" stroke-width="1" stroke="white" geotype="commune" geoname="Lindre-Basse" code_insee="57404" code_canton="5723"/><polygon points="366,108 368,110 355,113 351,116 345,114 344,111 341,108 348,106 354,110 366,108" id="57405" class="commune" fill="steelblue" stroke-width="1" stroke="white" geotype="commune" geoname="Lindre-Haute" code_insee="57405" code_canton="5723"/><polygon points="90,46 98,49 99,52 95,52 95,54 86,60 81,56 77,51 90,46" id="57406" class="commune" fill="steelblue" stroke-width="1" stroke="white" geotype="commune" geoname="Liocourt" code_insee="57406" code_canton="5723"/><polygon points="440,75 440,78 436,75 431,75 429,77 427,74 422,75 412,64 423,60 427,60 430,62 437,60 433,69 436,74 440,75" id="57410" class="commune" fill="steelblue" stroke-width="1" stroke="white" geotype="commune" geoname="Lhor" code_insee="57410" code_canton="5723"/><polygon points="417,91 409,88 411,86 410,79 418,78 422,75 427,74 429,77 431,75 436,75 440,78 435,80 428,80 427,81 429,82 425,82 422,84 425,85 423,89 417,91" id="57417" class="commune" fill="steelblue" stroke-width="1" stroke="white" geotype="commune" geoname="Lostroff" code_insee="57417" code_canton="5723"/><polygon points="453,100 450,101 451,102 442,106 440,103 419,109 410,103 416,98 419,95 416,92 417,91 423,89 425,85 422,84 425,82 429,82 427,81 428,80 435,80 440,78 440,75 444,75 448,73 454,76 452,72 461,68 469,68 470,70 476,69 480,75 476,75 478,74 473,74 475,76 467,77 469,75 467,73 464,74 462,79 453,82 449,85 446,84 447,85 454,85 453,100" id="57418" class="commune" fill="steelblue" stroke-width="1" stroke="white" geotype="commune" geoname="Loudrefing" code_insee="57418" code_canton="5723"/><polygon points="209,100 203,104 202,104 200,101 193,100 192,97 187,94 183,87 188,86 195,92 203,94 209,100" id="57423" class="commune" fill="steelblue" stroke-width="1" stroke="white" geotype="commune" geoname="Lubécourt" code_insee="57423" code_canton="5723"/><polygon points="181,30 185,31 192,30 195,34 193,35 194,36 195,36 194,37 192,38 188,39 183,38 181,40 178,40 176,38 170,40 161,38 160,34 156,31 157,27 159,29 174,26 179,27 181,30" id="57424" class="commune" fill="steelblue" stroke-width="1" stroke="white" geotype="commune" geoname="Lucy" code_insee="57424" code_canton="5723"/><polygon points="363,158 373,164 381,166 386,171 391,174 396,172 399,177 389,181 394,185 399,183 398,187 394,189 390,191 390,188 387,187 382,192 373,200 365,199 362,204 357,202 361,200 360,197 355,198 357,197 353,195 353,194 345,192 346,190 351,188 353,189 357,185 353,182 351,176 353,175 350,172 354,169 353,168 360,165 357,158 361,156 363,158" id="57434" class="commune" fill="steelblue" stroke-width="1" stroke="white" geotype="commune" geoname="Maizières-lès-Vic" code_insee="57434" code_canton="5723"/><polygon points="87,102 81,101 91,90 95,89 97,89 103,86 102,88 105,89 109,87 114,91 114,94 106,101 94,104 87,102" id="57436" class="commune" fill="steelblue" stroke-width="1" stroke="white" geotype="commune" geoname="Malaucourt-sur-Seille" code_insee="57436" code_canton="5723"/><polygon points="67,110 62,108 64,106 69,107 73,104 78,107 83,107 86,106 87,102 94,104 106,101 110,105 110,106 96,109 92,109 83,110 82,108 78,110 74,109 67,110" id="57440" class="commune" fill="steelblue" stroke-width="1" stroke="white" geotype="commune" geoname="Manhoué" code_insee="57440" code_canton="5723"/><polygon points="384,65 369,77 370,72 362,68 362,65 366,63 376,60 380,58 384,60 381,62 381,65 384,65" id="57446" class="commune" fill="steelblue" stroke-width="1" stroke="white" geotype="commune" geoname="Marimont-lès-Bénestroff" code_insee="57446" code_canton="5723"/><polygon points="272,141 271,142 264,143 263,140 261,140 260,142 258,141 255,143 254,143 253,142 249,145 246,144 247,133 246,132 244,133 243,131 242,125 243,124 253,127 255,129 258,128 265,130 267,129 271,128 273,130 280,129 284,130 286,132 288,131 289,135 272,141" id="57448" class="commune" fill="steelblue" stroke-width="1" stroke="white" geotype="commune" geoname="Marsal" code_insee="57448" code_canton="5723"/><polygon points="210,36 213,34 220,28 228,25 232,31 230,34 236,38 243,38 244,40 242,45 236,48 234,52 229,54 225,53 224,49 218,48 217,42 210,36" id="57451" class="commune" fill="steelblue" stroke-width="1" stroke="white" geotype="commune" geoname="Marthille" code_insee="57451" code_canton="5723"/><polygon points="394,74 390,73 385,65 398,60 402,57 399,61 401,62 404,61 404,66 398,69 398,72 394,74" id="57470" class="commune" fill="steelblue" stroke-width="1" stroke="white" geotype="commune" geoname="Molring" code_insee="57470" code_canton="5723"/><polygon points="85,41 82,40 78,42 77,39 78,37 76,31 78,31 75,30 76,28 74,21 79,19 86,22 88,20 97,25 99,24 98,27 100,29 97,32 91,34 92,36 85,41" id="57472" class="commune" fill="steelblue" stroke-width="1" stroke="white" geotype="commune" geoname="Moncheux" code_insee="57472" code_canton="5723"/><polygon points="275,164 278,165 279,164 282,165 281,168 286,172 287,176 291,176 292,176 295,181 293,183 290,182 284,183 280,186 278,186 270,179 266,179 264,178 266,177 265,176 267,174 267,171 276,167 275,164" id="57473" class="commune" fill="steelblue" stroke-width="1" stroke="white" geotype="commune" geoname="Moncourt" code_insee="57473" code_canton="5723"/><polygon points="383,38 388,38 386,35 393,32 399,39 394,42 388,44 382,41 383,38" id="57478" class="commune" fill="steelblue" stroke-width="1" stroke="white" geotype="commune" geoname="Montdidier" code_insee="57478" code_canton="5723"/><polygon points="208,118 205,111 202,109 206,106 213,105 219,107 221,104 224,104 226,107 231,106 233,109 236,110 233,115 237,114 234,117 232,117 229,118 227,121 224,121 224,124 211,120 208,118" id="57485" class="commune" fill="steelblue" stroke-width="1" stroke="white" geotype="commune" geoname="Morville-lès-Vic" code_insee="57485" code_canton="5723"/><polygon points="157,27 156,31 147,35 146,37 141,35 140,33 135,34 133,31 131,32 130,26 134,25 138,21 144,22 150,20 157,25 157,27" id="57486" class="commune" fill="steelblue" stroke-width="1" stroke="white" geotype="commune" geoname="Morville-sur-Nied" code_insee="57486" code_canton="5723"/><polygon points="244,117 247,119 243,124 242,125 243,131 244,133 246,132 247,133 246,144 240,148 229,151 221,153 220,152 218,148 222,142 222,140 219,137 220,132 227,133 231,131 224,124 224,121 227,121 229,118 232,117 234,117 237,114 241,113 244,117" id="57490" class="commune" fill="steelblue" stroke-width="1" stroke="white" geotype="commune" geoname="Moyenvic" code_insee="57490" code_canton="5723"/><polygon points="309,119 304,121 302,124 293,126 284,130 280,129 278,128 280,126 280,122 285,118 285,114 290,112 288,111 293,105 297,104 301,106 300,110 304,111 309,119" id="57493" class="commune" fill="steelblue" stroke-width="1" stroke="white" geotype="commune" geoname="Mulcey" code_insee="57493" code_canton="5723"/><polygon points="423,53 435,51 438,47 442,46 448,47 449,49 459,49 462,52 457,55 454,54 453,55 437,60 430,62 427,60 423,60 421,59 423,53" id="57494" class="commune" fill="steelblue" stroke-width="1" stroke="white" geotype="commune" geoname="Munster" code_insee="57494" code_canton="5723"/><polygon points="388,44 394,42 398,49 400,49 400,52 403,54 402,57 398,60 385,65 384,65 381,65 381,62 384,60 380,58 376,60 375,56 384,49 383,46 388,44" id="57496" class="commune" fill="steelblue" stroke-width="1" stroke="white" geotype="commune" geoname="Nébing" code_insee="57496" code_canton="5723"/><polygon points="369,34 374,33 364,42 362,40 369,34" id="57501" class="commune" fill="steelblue" stroke-width="1" stroke="white" geotype="commune" geoname="Neufvillage" code_insee="57501" code_canton="5723"/><polygon points="241,96 246,91 247,85 260,85 261,94 257,95 241,96" id="57520" class="commune" fill="steelblue" stroke-width="1" stroke="white" geotype="commune" geoname="Obreck" code_insee="57520" code_canton="5723"/><polygon points="313,167 319,167 322,170 319,172 321,179 324,180 326,179 328,180 333,180 334,183 331,182 326,184 321,181 312,185 304,184 295,181 292,176 291,176 290,174 298,169 297,167 300,165 305,164 313,167" id="57524" class="commune" fill="steelblue" stroke-width="1" stroke="white" geotype="commune" geoname="Ommeray" code_insee="57524" code_canton="5723"/><polygon points="141,79 144,81 140,82 146,82 144,84 134,93 134,96 130,96 127,91 125,94 121,90 124,89 127,90 129,90 128,88 130,85 128,85 126,81 127,78 141,79" id="57525" class="commune" fill="steelblue" stroke-width="1" stroke="white" geotype="commune" geoname="Oriocourt" code_insee="57525" code_canton="5723"/><polygon points="168,54 172,52 174,53 183,49 185,54 188,56 191,58 189,63 190,68 187,65 183,66 184,67 177,67 168,57 166,57 166,56 168,56 166,54 168,54" id="57528" class="commune" fill="steelblue" stroke-width="1" stroke="white" geotype="commune" geoname="Oron" code_insee="57528" code_canton="5723"/><polygon points="141,121 144,121 145,129 147,130 144,131 142,133 134,134 122,139 118,135 117,133 121,132 122,129 126,127 128,129 131,126 132,127 136,125 139,127 141,121" id="57538" class="commune" fill="steelblue" stroke-width="1" stroke="white" geotype="commune" geoname="Pettoncourt" code_insee="57538" code_canton="5723"/><polygon points="258,54 256,51 263,53 264,50 270,50 275,54 278,53 280,54 276,56 272,55 265,59 258,54" id="57539" class="commune" fill="steelblue" stroke-width="1" stroke="white" geotype="commune" geoname="Pévange" code_insee="57539" code_canton="5723"/><polygon points="156,31 160,34 161,38 155,40 158,42 157,46 147,49 147,54 141,55 139,50 140,49 136,45 137,45 135,43 138,42 136,36 141,35 146,37 147,35 156,31" id="57555" class="commune" fill="steelblue" stroke-width="1" stroke="white" geotype="commune" geoname="Prévocourt" code_insee="57555" code_canton="5723"/><polygon points="209,100 212,98 215,97 213,95 217,89 217,85 221,82 223,83 227,83 229,83 229,86 235,93 234,95 233,96 225,96 224,104 221,104 219,107 213,105 206,106 203,104 209,100" id="57558" class="commune" fill="steelblue" stroke-width="1" stroke="white" geotype="commune" geoname="Puttigny" code_insee="57558" code_canton="5723"/><polygon points="91,67 92,65 90,62 102,55 104,54 107,60 110,61 115,67 111,68 108,72 103,74 103,76 97,75 90,69 91,67" id="57559" class="commune" fill="steelblue" stroke-width="1" stroke="white" geotype="commune" geoname="Puzieux" code_insee="57559" code_canton="5723"/><polygon points="421,29 404,33 402,36 399,35 400,32 396,29 395,25 397,24 409,24 418,20 416,23 421,29" id="57573" class="commune" fill="steelblue" stroke-width="1" stroke="white" geotype="commune" geoname="Réning" code_insee="57573" code_canton="5723"/><polygon points="284,59 281,64 284,69 282,71 283,73 276,76 266,76 265,70 267,68 265,59 272,55 276,56 284,59" id="57580" class="commune" fill="steelblue" stroke-width="1" stroke="white" geotype="commune" geoname="Riche" code_insee="57580" code_canton="5723"/><polygon points="344,42 348,50 341,53 339,56 333,58 323,65 321,62 318,63 316,60 317,58 314,60 310,58 310,56 303,57 305,52 311,47 319,46 324,46 324,45 327,44 332,46 339,44 344,42" id="57587" class="commune" fill="steelblue" stroke-width="1" stroke="white" geotype="commune" geoname="Rodalbe" code_insee="57587" code_canton="5723"/><polygon points="419,109 421,110 420,111 409,111 399,109 397,105 390,101 400,99 399,101 402,100 403,101 412,98 413,97 416,98 410,103 419,109" id="57595" class="commune" fill="steelblue" stroke-width="1" stroke="white" geotype="commune" geoname="Rorbach-lès-Dieuze" code_insee="57595" code_canton="5723"/><polygon points="74,21 74,21 76,28 75,30 78,31 76,31 78,37 77,39 69,38 63,41 62,40 58,43 54,42 49,40 47,41 43,38 45,36 57,31 58,27 61,26 60,24 71,20 74,21" id="57605" class="commune" fill="steelblue" stroke-width="1" stroke="white" geotype="commune" geoname="Sailly-Achâtel" code_insee="57605" code_canton="5723"/><polygon points="140,6 145,5 147,6 150,5 154,9 158,13 155,18 150,20 144,22 138,21 134,25 131,20 137,19 136,18 145,14 144,7 140,6" id="57609" class="commune" fill="steelblue" stroke-width="1" stroke="white" geotype="commune" geoname="Saint-Epvre" code_insee="57609" code_canton="5723"/><polygon points="22,44 20,40 18,41 19,42 16,42 15,41 15,42 13,42 13,41 15,37 14,36 13,36 12,35 7,34 6,34 6,35 2,34 0,23 11,21 15,25 21,21 24,23 28,24 38,38 27,44 22,44" id="57617" class="commune" fill="steelblue" stroke-width="1" stroke="white" geotype="commune" geoname="Saint-Jure" code_insee="57617" code_canton="5723"/><polygon points="266,108 268,108 277,102 283,101 282,100 288,100 293,105 288,111 290,112 285,114 285,118 280,122 280,126 278,128 280,129 273,130 271,128 267,129 264,120 267,119 266,114 264,114 266,112 266,108" id="57621" class="commune" fill="steelblue" stroke-width="1" stroke="white" geotype="commune" geoname="Saint-Médard" code_insee="57621" code_canton="5723"/><polygon points="164,144 163,140 169,139 169,136 172,134 174,133 180,133 180,131 175,126 176,122 171,118 170,116 175,117 181,116 183,117 181,118 183,119 188,117 200,118 206,121 208,118 211,120 200,126 197,130 198,131 194,133 189,131 187,136 191,137 187,140 188,141 184,142 186,143 184,145 180,144 168,144 168,142 164,144" id="57625" class="commune" fill="steelblue" stroke-width="1" stroke="white" geotype="commune" geoname="Salonnes" code_insee="57625" code_canton="5723"/><polygon points="43,38 38,38 28,24 30,22 32,23 37,22 41,18 44,19 46,22 49,21 58,23 60,24 61,26 58,27 57,31 45,36 43,38" id="57643" class="commune" fill="steelblue" stroke-width="1" stroke="white" geotype="commune" geoname="Secourt" code_insee="57643" code_canton="5723"/><polygon points="283,73 285,73 282,75 289,79 275,87 270,86 271,84 269,81 264,80 266,76 276,76 283,73" id="57657" class="commune" fill="steelblue" stroke-width="1" stroke="white" geotype="commune" geoname="Sotzeling" code_insee="57657" code_canton="5723"/><polygon points="362,126 370,131 371,132 365,131 368,134 362,136 369,140 369,142 369,142 368,141 367,140 363,140 364,144 360,146 356,145 354,142 351,143 349,142 341,132 349,128 360,127 362,126" id="57664" class="commune" fill="steelblue" stroke-width="1" stroke="white" geotype="commune" geoname="Tarquimpol" code_insee="57664" code_canton="5723"/><polygon points="147,54 148,58 141,61 141,62 136,62 136,64 132,65 126,65 123,61 121,60 123,58 118,56 115,50 109,48 109,46 114,44 116,43 120,46 122,45 125,46 126,49 129,49 130,50 136,45 140,49 139,50 141,55 147,54" id="57674" class="commune" fill="steelblue" stroke-width="1" stroke="white" geotype="commune" geoname="Tincry" code_insee="57674" code_canton="5723"/><polygon points="400,49 413,47 422,50 422,52 424,51 425,52 422,52 423,53 421,59 423,60 412,64 404,66 404,61 401,62 399,61 402,57 403,54 400,52 400,49" id="57675" class="commune" fill="steelblue" stroke-width="1" stroke="white" geotype="commune" geoname="Torcheville" code_insee="57675" code_canton="5723"/><polygon points="366,63 364,60 366,57 363,53 364,52 356,42 360,41 362,40 364,42 374,33 375,32 379,37 383,38 382,41 388,44 383,46 384,49 375,56 376,60 366,63" id="57685" class="commune" fill="steelblue" stroke-width="1" stroke="white" geotype="commune" geoname="Vahl-lès-Bénestroff" code_insee="57685" code_canton="5723"/><polygon points="230,75 230,81 227,83 223,83 221,82 217,85 210,79 204,78 203,77 201,78 200,76 199,74 195,74 192,69 190,68 189,63 193,64 194,63 199,64 200,66 206,68 216,67 220,66 223,67 230,75" id="57692" class="commune" fill="steelblue" stroke-width="1" stroke="white" geotype="commune" geoname="Vannecourt" code_insee="57692" code_canton="5723"/><polygon points="193,80 200,76 201,78 203,77 204,78 210,79 217,85 217,89 213,95 215,97 212,98 213,96 208,94 200,87 196,86 197,82 193,80" id="57702" class="commune" fill="steelblue" stroke-width="1" stroke="white" geotype="commune" geoname="Vaxy" code_insee="57702" code_canton="5723"/><polygon points="324,85 326,83 332,83 332,85 335,85 338,88 344,89 349,93 352,91 357,87 363,89 360,90 361,92 359,95 367,101 366,107 366,108 354,110 348,106 341,108 336,105 334,105 334,100 324,89 324,85" id="57706" class="commune" fill="steelblue" stroke-width="1" stroke="white" geotype="commune" geoname="Vergaville" code_insee="57706" code_canton="5723"/><polygon points="480,75 476,69 470,64 464,62 461,59 453,55 454,54 457,55 462,52 459,49 459,48 462,37 470,36 473,37 470,44 482,45 480,48 486,57 479,63 493,66 500,65 488,70 480,75" id="57711" class="commune" fill="steelblue" stroke-width="1" stroke="white" geotype="commune" geoname="Vibersviller" code_insee="57711" code_canton="5723"/><polygon points="220,152 215,152 214,154 211,156 199,153 196,156 193,157 192,156 193,153 196,153 197,152 184,145 186,143 184,142 188,141 187,140 191,137 187,136 189,131 194,133 198,131 197,130 200,126 211,120 224,124 231,131 227,133 220,132 219,137 222,140 222,142 218,148 220,152" id="57712" class="commune" fill="steelblue" stroke-width="1" stroke="white" geotype="commune" geoname="Vic-sur-Seille" code_insee="57712" code_canton="5723"/><polygon points="41,7 45,14 45,17 44,19 41,18 37,22 32,23 30,22 28,24 24,23 21,21 21,20 19,20 21,19 19,12 22,11 30,9 34,9 34,11 41,7" id="57715" class="commune" fill="steelblue" stroke-width="1" stroke="white" geotype="commune" geoname="Vigny" code_insee="57715" code_canton="5723"/><polygon points="197,40 200,38 202,36 208,36 210,36 217,42 218,48 214,48 210,51 207,51 203,45 198,47 197,45 199,43 197,40" id="57719" class="commune" fill="steelblue" stroke-width="1" stroke="white" geotype="commune" geoname="Villers-sur-Nied" code_insee="57719" code_canton="5723"/><polygon points="360,41 360,39 344,42 339,44 337,41 332,40 337,36 331,34 330,31 334,28 343,27 350,21 357,23 363,22 363,29 369,34 362,40 360,41" id="57723" class="commune" fill="steelblue" stroke-width="1" stroke="white" geotype="commune" geoname="Virming" code_insee="57723" code_canton="5723"/><polygon points="474,37 473,37 470,36 462,37 459,35 451,34 449,23 453,23 455,21 457,22 460,21 468,20 482,26 472,29 469,32 469,34 474,37" id="57725" class="commune" fill="steelblue" stroke-width="1" stroke="white" geotype="commune" geoname="Vittersbourg" code_insee="57725" code_canton="5723"/><polygon points="168,57 162,59 163,63 158,64 156,69 158,71 153,73 150,71 147,73 145,71 143,71 131,66 132,65 136,64 136,62 141,62 141,61 148,58 153,56 154,57 159,54 161,55 167,52 168,54 166,54 168,56 166,56 166,57 168,57" id="57727" class="commune" fill="steelblue" stroke-width="1" stroke="white" geotype="commune" geoname="Viviers" code_insee="57727" code_canton="5723"/><polygon points="54,49 54,42 58,43 62,40 63,41 69,38 77,39 78,42 69,46 54,49" id="57737" class="commune" fill="steelblue" stroke-width="1" stroke="white" geotype="commune" geoname="Vulmont" code_insee="57737" code_canton="5723"/><polygon points="293,78 304,75 307,75 310,75 315,78 320,88 316,90 304,94 301,98 288,100 282,100 281,98 278,97 278,99 273,96 272,92 285,83 293,80 293,78" id="57753" class="commune" fill="steelblue" stroke-width="1" stroke="white" geotype="commune" geoname="Wuisse" code_insee="57753" code_canton="5723"/><polygon points="246,144 250,146 255,146 257,147 258,148 255,149 258,150 257,153 259,155 254,157 254,159 249,163 249,165 246,166 246,166 242,165 237,162 230,155 229,151 240,148 246,144" id="57754" class="commune" fill="steelblue" stroke-width="1" stroke="white" geotype="commune" geoname="Xanrey" code_insee="57754" code_canton="5723"/><polygon points="102,55 99,52 98,49 103,47 102,45 112,42 114,44 109,46 109,48 115,50 118,56 123,58 121,60 123,61 122,63 116,63 112,60 110,61 107,60 104,54 102,55" id="57755" class="commune" fill="steelblue" stroke-width="1" stroke="white" geotype="commune" geoname="Xocourt" code_insee="57755" code_canton="5723"/><polygon points="304,75 299,66 301,65 301,62 310,58 314,60 317,58 316,60 318,63 321,62 323,65 321,66 319,65 313,67 308,70 309,72 307,75 304,75" id="57759" class="commune" fill="steelblue" stroke-width="1" stroke="white" geotype="commune" geoname="Zarbeling" code_insee="57759" code_canton="5723"/><polygon points="368,110 366,108 366,107 376,106 375,103 379,102 378,101 387,97 390,101 397,105 399,109 388,111 385,113 384,112 378,118 369,121 365,119 366,114 369,113 368,110" id="57763" class="commune" fill="steelblue" stroke-width="1" stroke="white" geotype="commune" geoname="Zommange" code_insee="57763" code_canton="5723"/></svg>