<?xml version="1.0" encoding="utf-8"?>
<svg version="1.1" id="svgmap" xmlns="http://www.w3.org/2000/svg" xmlns:xlink="http://www.w3.org/1999/xlink" x="0px" y="0px" width="100%" height="100%" viewBox="0 0 500 325">
<polygon points="214,54 392,0 441,68 394,84 246,103 214,54" id="59107" class="commune" fill="steelblue" stroke-width="1" stroke="white" geotype="commune" geoname="Bray-Dunes" code_insee="59107" code_canton="5917"/><polygon points="246,103 394,84 441,68 465,152 420,123 356,132 335,146 332,187 296,215 304,232 295,243 233,203 224,206 203,190 168,189 140,148 147,131 134,124 120,79 142,73 163,130 214,108 220,113 217,106 246,103" id="59260" class="commune" fill="steelblue" stroke-width="1" stroke="white" geotype="commune" geoname="Ghyvelde" code_insee="59260" code_canton="5917"/><polygon points="0,109 120,79 134,124 116,130 130,146 119,148 115,184 129,200 98,217 97,207 58,224 47,220 57,193 42,183 59,166 50,155 43,147 7,144 0,109" id="59340" class="commune" fill="steelblue" stroke-width="1" stroke="white" geotype="commune" geoname="Leffrinckoucke" code_insee="59340" code_canton="5917"/><polygon points="487,267 479,267 482,283 493,293 487,301 463,308 450,308 427,322 411,325 391,325 380,320 330,298 311,278 296,263 295,243 304,232 296,215 332,187 335,146 356,132 420,123 465,152 500,264 487,267" id="59404" class="commune" fill="steelblue" stroke-width="1" stroke="white" geotype="commune" geoname="Moëres" code_insee="59404" code_canton="5917"/><polygon points="214,54 246,103 217,106 220,113 214,108 163,130 142,73 214,54" id="59668" class="commune" fill="steelblue" stroke-width="1" stroke="white" geotype="commune" geoname="Zuydcoote" code_insee="59668" code_canton="5917"/></svg>