<?xml version="1.0" encoding="utf-8"?>
<svg version="1.1" id="svgmap" xmlns="http://www.w3.org/2000/svg" xmlns:xlink="http://www.w3.org/1999/xlink" x="0px" y="0px" width="100%" height="100%" viewBox="0 0 500 317">
<polygon points="233,47 245,35 273,32 284,48 267,62 249,49 244,53 233,47" id="59013" class="commune" fill="steelblue" stroke-width="1" stroke="white" geotype="commune" geoname="Anstaing" code_insee="59013" code_canton="5936"/><polygon points="47,169 51,179 75,188 78,197 65,210 74,214 72,229 61,240 60,241 51,234 60,228 59,218 29,218 30,203 17,204 6,191 20,174 47,169" id="59022" class="commune" fill="steelblue" stroke-width="1" stroke="white" geotype="commune" geoname="Attiches" code_insee="59022" code_canton="5936"/><polygon points="78,197 75,188 51,179 47,169 53,149 49,142 60,140 61,135 57,125 65,117 71,118 70,112 103,103 120,129 112,134 117,137 109,140 109,159 123,172 115,182 109,183 118,195 93,205 78,197" id="59034" class="commune" fill="steelblue" stroke-width="1" stroke="white" geotype="commune" geoname="Avelin" code_insee="59034" code_canton="5936"/><polygon points="409,122 421,133 413,133 419,147 414,156 424,162 427,174 383,172 374,165 371,150 381,148 370,133 375,130 371,121 387,118 399,116 409,122" id="59042" class="commune" fill="steelblue" stroke-width="1" stroke="white" geotype="commune" geoname="Bachy" code_insee="59042" code_canton="5936"/><polygon points="380,3 374,12 399,31 403,43 373,42 365,50 339,59 328,66 317,55 311,51 313,46 319,46 326,38 320,37 320,26 303,19 306,14 286,14 286,12 344,15 350,9 365,10 372,2 380,3" id="59044" class="commune" fill="steelblue" stroke-width="1" stroke="white" geotype="commune" geoname="Baisieux" code_insee="59044" code_canton="5936"/><polygon points="235,246 234,253 225,256 224,267 238,271 235,281 224,291 186,279 165,278 152,258 163,255 161,249 168,241 163,234 170,230 165,225 181,216 223,232 235,246" id="59071" class="commune" fill="steelblue" stroke-width="1" stroke="white" geotype="commune" geoname="Bersée" code_insee="59071" code_canton="5936"/><polygon points="387,118 371,121 375,130 370,133 381,148 371,150 350,153 342,139 347,128 340,111 345,109 338,98 341,89 336,76 359,77 368,86 378,85 378,108 387,112 387,118" id="59096" class="commune" fill="steelblue" stroke-width="1" stroke="white" geotype="commune" geoname="Bourghelles" code_insee="59096" code_canton="5936"/><polygon points="298,73 268,80 264,86 268,90 282,95 269,106 262,106 260,97 254,96 247,81 268,64 274,60 298,73" id="59106" class="commune" fill="steelblue" stroke-width="1" stroke="white" geotype="commune" geoname="Bouvines" code_insee="59106" code_canton="5936"/><polygon points="336,76 334,75 346,61 339,59 365,50 373,42 403,43 410,51 407,56 416,58 409,82 395,84 390,80 378,85 368,86 359,77 336,76" id="59124" class="commune" fill="steelblue" stroke-width="1" stroke="white" geotype="commune" geoname="Camphin-en-Pévèle" code_insee="59124" code_canton="5936"/><polygon points="265,228 235,246 223,232 181,216 206,206 205,195 215,188 233,194 239,190 247,192 256,190 272,203 273,211 282,214 285,218 265,228" id="59129" class="commune" fill="steelblue" stroke-width="1" stroke="white" geotype="commune" geoname="Cappelle-en-Pévèle" code_insee="59129" code_canton="5936"/><polygon points="284,48 273,32 275,10 287,10 286,12 286,14 306,14 303,19 320,26 320,37 326,38 319,46 313,46 311,51 317,55 284,48" id="59146" class="commune" fill="steelblue" stroke-width="1" stroke="white" geotype="commune" geoname="Chéreng" code_insee="59146" code_canton="5936"/><polygon points="371,150 374,165 383,172 374,175 370,172 357,170 343,159 328,159 318,152 321,147 314,146 325,136 331,140 342,139 350,153 371,150" id="59150" class="commune" fill="steelblue" stroke-width="1" stroke="white" geotype="commune" geoname="Cobrieux" code_insee="59150" code_canton="5936"/><polygon points="334,75 336,76 341,89 338,98 345,109 340,111 347,128 342,139 331,140 325,136 314,146 306,155 282,152 265,141 272,141 283,132 284,118 267,112 242,116 247,107 254,96 260,97 262,106 269,106 282,95 268,90 264,86 268,80 298,73 312,81 326,74 334,75" id="59168" class="commune" fill="steelblue" stroke-width="1" stroke="white" geotype="commune" geoname="Cysoing" code_insee="59168" code_canton="5936"/><polygon points="123,172 109,159 109,140 117,137 112,134 120,129 126,137 175,134 176,139 187,139 184,135 204,128 205,139 212,139 205,148 216,156 211,159 207,155 196,160 176,158 181,170 176,174 172,191 164,190 154,179 123,172" id="59197" class="commune" fill="steelblue" stroke-width="1" stroke="white" geotype="commune" geoname="Ennevelin" code_insee="59197" code_canton="5936"/><polygon points="120,129 103,103 101,100 128,96 139,85 151,84 159,74 166,75 170,76 167,82 187,84 192,88 196,86 218,100 214,102 222,109 216,115 223,121 204,128 184,135 187,139 176,139 175,134 126,137 120,129" id="59256" class="commune" fill="steelblue" stroke-width="1" stroke="white" geotype="commune" geoname="Fretin" code_insee="59256" code_canton="5936"/><polygon points="282,152 306,155 314,146 321,147 318,152 328,159 343,159 357,170 370,172 369,180 360,186 320,189 300,199 291,193 277,167 282,152" id="59258" class="commune" fill="steelblue" stroke-width="1" stroke="white" geotype="commune" geoname="Genech" code_insee="59258" code_canton="5936"/><polygon points="268,64 267,62 284,48 317,55 328,66 339,59 346,61 334,75 326,74 312,81 298,73 274,60 268,64" id="59275" class="commune" fill="steelblue" stroke-width="1" stroke="white" geotype="commune" geoname="Gruson" code_insee="59275" code_canton="5936"/><polygon points="92,86 87,70 91,63 107,66 135,35 161,46 158,49 169,52 174,49 178,52 168,59 174,65 166,75 159,74 151,84 139,85 128,96 101,100 95,93 101,92 92,86" id="59343" class="commune" fill="steelblue" stroke-width="1" stroke="white" geotype="commune" geoname="Lesquin" code_insee="59343" code_canton="5936"/><polygon points="242,116 267,112 284,118 283,132 272,141 265,141 238,123 242,116" id="59364" class="commune" fill="steelblue" stroke-width="1" stroke="white" geotype="commune" geoname="Louvil" code_insee="59364" code_canton="5936"/><polygon points="93,205 118,195 125,190 142,198 164,190 172,191 205,195 206,206 181,216 165,225 153,224 133,237 106,223 100,211 88,210 93,205" id="59398" class="commune" fill="steelblue" stroke-width="1" stroke="white" geotype="commune" geoname="Mérignies" code_insee="59398" code_canton="5936"/><polygon points="140,280 111,292 119,303 98,305 78,317 51,311 58,296 53,292 81,288 93,275 140,280" id="59408" class="commune" fill="steelblue" stroke-width="1" stroke="white" geotype="commune" geoname="Moncheaux" code_insee="59408" code_canton="5936"/><polygon points="61,240 72,229 81,230 88,223 94,227 106,223 133,237 153,224 165,225 170,230 163,234 168,241 161,249 163,255 152,258 165,278 140,280 93,275 77,277 68,271 64,266 76,257 61,240" id="59411" class="commune" fill="steelblue" stroke-width="1" stroke="white" geotype="commune" geoname="Mons-en-Pévèle" code_insee="59411" code_canton="5936"/><polygon points="500,207 440,210 409,211 384,197 373,197 369,180 370,172 374,175 383,172 427,174 458,187 486,190 500,207" id="59419" class="commune" fill="steelblue" stroke-width="1" stroke="white" geotype="commune" geoname="Mouchin" code_insee="59419" code_canton="5936"/><polygon points="17,204 30,203 29,218 59,218 60,228 51,234 60,241 53,245 55,243 30,242 26,245 22,241 16,244 3,228 0,226 12,217 17,204" id="59427" class="commune" fill="steelblue" stroke-width="1" stroke="white" geotype="commune" geoname="Neuville" code_insee="59427" code_canton="5936"/><polygon points="247,107 242,116 238,123 223,121 216,115 222,109 214,102 218,100 247,107" id="59458" class="commune" fill="steelblue" stroke-width="1" stroke="white" geotype="commune" geoname="Péronne-en-Mélantois" code_insee="59458" code_canton="5936"/><polygon points="118,195 109,183 115,182 123,172 154,179 164,190 142,198 125,190 118,195" id="59466" class="commune" fill="steelblue" stroke-width="1" stroke="white" geotype="commune" geoname="Pont-à-Marcq" code_insee="59466" code_canton="5936"/><polygon points="267,62 268,64 247,81 254,96 247,107 218,100 196,86 192,88 187,84 167,82 170,76 166,75 174,65 168,59 178,52 174,49 186,54 203,44 218,50 233,47 244,53 249,49 267,62" id="59523" class="commune" fill="steelblue" stroke-width="1" stroke="white" geotype="commune" geoname="Sainghin-en-Mélantois" code_insee="59523" code_canton="5936"/><polygon points="282,214 273,211 272,203 256,190 247,192 239,190 233,194 215,188 205,195 172,191 176,174 181,170 176,158 196,160 207,155 211,159 216,156 205,148 212,139 205,139 204,128 223,121 238,123 265,141 282,152 277,167 291,193 281,198 282,214" id="59586" class="commune" fill="steelblue" stroke-width="1" stroke="white" geotype="commune" geoname="Templeuve" code_insee="59586" code_canton="5936"/><polygon points="60,241 61,240 76,257 64,266 68,271 77,277 93,275 81,288 53,292 40,296 38,287 16,268 18,259 10,250 16,244 22,241 26,245 30,242 55,243 53,245 60,241" id="59592" class="commune" fill="steelblue" stroke-width="1" stroke="white" geotype="commune" geoname="Thumeries" code_insee="59592" code_canton="5936"/><polygon points="72,229 74,214 65,210 78,197 93,205 88,210 100,211 106,223 94,227 88,223 81,230 72,229" id="59600" class="commune" fill="steelblue" stroke-width="1" stroke="white" geotype="commune" geoname="Tourmignies" code_insee="59600" code_canton="5936"/><polygon points="245,35 239,32 241,21 274,5 280,6 283,0 287,10 275,10 273,32 245,35" id="59602" class="commune" fill="steelblue" stroke-width="1" stroke="white" geotype="commune" geoname="Tressin" code_insee="59602" code_canton="5936"/><polygon points="409,122 399,116 387,118 387,112 378,108 378,85 390,80 395,84 409,82 420,93 414,97 412,112 425,116 409,122" id="59638" class="commune" fill="steelblue" stroke-width="1" stroke="white" geotype="commune" geoname="Wannehain" code_insee="59638" code_canton="5936"/></svg>