<?xml version="1.0" encoding="utf-8"?>
<svg version="1.1" id="svgmap" xmlns="http://www.w3.org/2000/svg" xmlns:xlink="http://www.w3.org/1999/xlink" x="0px" y="0px" width="100%" height="100%" viewBox="0 0 500 287">
<polygon points="429,219 386,201 269,180 282,157 270,145 315,116 281,102 312,79 300,50 311,25 342,1 364,0 430,102 500,166 429,219" id="59544" class="commune" fill="steelblue" stroke-width="1" stroke="white" geotype="commune" geoname="Saint-Saulve" code_insee="59544" code_canton="5939"/><polygon points="54,151 94,174 132,173 159,135 192,136 231,90 269,74 268,105 281,102 315,116 270,145 282,157 269,180 220,268 177,259 168,278 164,286 147,281 119,268 102,287 51,265 81,250 53,225 2,203 0,180 31,172 54,151" id="59606" class="commune" fill="steelblue" stroke-width="1" stroke="white" geotype="commune" geoname="Valenciennes" code_insee="59606" code_canton="5939"/></svg>