<?xml version="1.0" encoding="utf-8"?>
<svg version="1.1" id="svgmap" xmlns="http://www.w3.org/2000/svg" xmlns:xlink="http://www.w3.org/1999/xlink" x="0px" y="0px" width="100%" height="100%" viewBox="0 0 500 236">
<polygon points="169,124 213,124 215,143 203,144 181,155 186,169 176,177 167,169 157,173 156,185 148,185 146,163 139,164 132,158 111,171 101,171 97,163 88,167 72,165 67,157 61,158 60,154 67,155 64,131 42,136 45,127 52,115 44,108 39,89 58,85 78,92 105,87 117,111 129,120 169,124" id="60010" class="commune" fill="steelblue" stroke-width="1" stroke="white" geotype="commune" geoname="Amblainville" code_insee="60010" code_canton="6012"/><polygon points="189,12 193,19 196,13 216,18 219,36 232,57 227,66 218,60 210,66 196,55 182,56 177,48 175,38 189,36 193,22 187,18 189,12" id="60012" class="commune" fill="steelblue" stroke-width="1" stroke="white" geotype="commune" geoname="Andeville" code_insee="60012" code_canton="6012"/><polygon points="304,86 312,95 301,100 310,105 294,105 291,122 281,119 257,131 254,121 259,105 245,95 250,89 243,86 265,71 260,69 264,51 277,48 304,86" id="60018" class="commune" fill="steelblue" stroke-width="1" stroke="white" geotype="commune" geoname="Anserville" code_insee="60018" code_canton="6012"/><polygon points="240,196 220,191 237,177 262,171 311,140 321,141 349,139 358,153 316,170 308,179 312,189 301,184 275,194 240,196" id="60060" class="commune" fill="steelblue" stroke-width="1" stroke="white" geotype="commune" geoname="Belle-Église" code_insee="60060" code_canton="6012"/><polygon points="215,143 231,148 228,139 239,146 257,131 281,119 291,122 308,137 315,132 321,137 321,141 311,140 262,171 237,177 220,191 232,201 212,206 208,213 198,209 187,197 200,185 176,177 186,169 181,155 203,144 215,143" id="60088" class="commune" fill="steelblue" stroke-width="1" stroke="white" geotype="commune" geoname="Bornel" code_insee="60088" code_canton="6012"/><polygon points="340,236 295,231 309,216 330,207 308,194 301,184 312,189 308,179 316,170 358,153 365,158 361,169 372,179 383,174 403,197 399,209 379,223 363,234 341,232 340,236" id="60139" class="commune" fill="steelblue" stroke-width="1" stroke="white" geotype="commune" geoname="Chambly" code_insee="60139" code_canton="6012"/><polygon points="301,45 319,52 331,46 336,51 343,46 376,48 384,54 389,80 375,99 365,97 365,106 356,107 331,99 327,83 304,86 277,48 277,48 301,45" id="60197" class="commune" fill="steelblue" stroke-width="1" stroke="white" geotype="commune" geoname="Dieudonné" code_insee="60197" code_canton="6012"/><polygon points="457,48 473,61 465,66 468,74 478,79 484,82 480,88 500,103 451,107 443,105 434,84 456,65 446,53 457,48" id="60212" class="commune" fill="steelblue" stroke-width="1" stroke="white" geotype="commune" geoname="Ercuis" code_insee="60212" code_canton="6012"/><polygon points="213,124 169,124 167,116 192,85 197,85 199,73 213,72 210,66 218,60 227,66 232,57 242,58 264,51 260,69 265,71 243,86 222,103 219,120 213,124" id="60218" class="commune" fill="steelblue" stroke-width="1" stroke="white" geotype="commune" geoname="Esches" code_insee="60218" code_canton="6012"/><polygon points="257,131 239,146 228,139 231,148 215,143 213,124 219,120 222,103 243,86 250,89 245,95 259,105 254,121 257,131" id="60246" class="commune" fill="steelblue" stroke-width="1" stroke="white" geotype="commune" geoname="Fosseuse" code_insee="60246" code_canton="6012"/><polygon points="358,153 349,139 321,141 321,137 337,135 354,120 356,124 370,123 369,131 400,132 403,141 413,138 415,147 420,148 422,142 427,143 417,160 419,165 398,164 383,174 372,179 361,169 365,158 358,153" id="60259" class="commune" fill="steelblue" stroke-width="1" stroke="white" geotype="commune" geoname="Fresnoy-en-Thelle" code_insee="60259" code_canton="6012"/><polygon points="69,20 87,19 94,23 103,18 110,24 104,28 115,44 102,76 67,69 69,20" id="60370" class="commune" fill="steelblue" stroke-width="1" stroke="white" geotype="commune" geoname="Lormaison" code_insee="60370" code_canton="6012"/><polygon points="169,124 129,120 117,111 105,87 78,92 58,85 67,74 67,69 102,76 115,44 104,28 110,24 120,22 118,13 130,3 152,7 177,0 189,12 187,18 193,22 189,36 175,38 177,48 182,56 196,55 210,66 213,72 199,73 197,85 192,85 167,116 169,124" id="60395" class="commune" fill="steelblue" stroke-width="1" stroke="white" geotype="commune" geoname="Méru" code_insee="60395" code_canton="6012"/><polygon points="451,107 453,132 438,134 439,139 424,134 422,142 420,148 415,147 413,138 403,141 400,132 369,131 370,123 356,124 354,120 356,107 365,106 365,97 375,99 389,80 384,54 397,44 429,47 450,42 457,48 446,53 456,65 434,84 443,105 451,107" id="60450" class="commune" fill="steelblue" stroke-width="1" stroke="white" geotype="commune" geoname="Neuilly-en-Thelle" code_insee="60450" code_canton="6012"/><polygon points="291,122 294,105 310,105 301,100 312,95 304,86 327,83 331,99 356,107 354,120 337,135 321,137 315,132 308,137 291,122" id="60517" class="commune" fill="steelblue" stroke-width="1" stroke="white" geotype="commune" geoname="Puiseux-le-Hauberger" code_insee="60517" code_canton="6012"/><polygon points="58,85 39,89 44,108 33,113 17,113 0,108 0,102 7,97 14,100 23,90 22,81 14,77 23,71 13,66 40,58 45,65 56,63 67,74 58,85" id="60678" class="commune" fill="steelblue" stroke-width="1" stroke="white" geotype="commune" geoname="Villeneuve-les-Sablons" code_insee="60678" code_canton="6012"/></svg>