<?xml version="1.0" encoding="utf-8"?>
<svg version="1.1" id="svgmap" xmlns="http://www.w3.org/2000/svg" xmlns:xlink="http://www.w3.org/1999/xlink" x="0px" y="0px" width="100%" height="100%" viewBox="0 0 500 436">
<polygon points="415,259 420,250 416,244 401,245 394,253 388,252 382,245 385,231 408,224 425,237 461,238 469,246 463,253 467,258 482,259 487,267 482,270 500,281 483,298 464,294 455,293 448,286 452,276 424,264 422,268 415,259" id="61014" class="commune" fill="steelblue" stroke-width="1" stroke="white" geotype="commune" geoname="Aunou-le-Faucon" code_insee="61014" code_canton="6104"/><polygon points="116,17 126,9 165,5 180,14 205,21 214,30 209,35 219,38 221,52 196,41 185,51 144,36 147,33 119,22 116,17" id="61062" class="commune" fill="steelblue" stroke-width="1" stroke="white" geotype="commune" geoname="Brieux" code_insee="61062" code_canton="6104"/><polygon points="88,101 96,102 149,108 180,100 196,112 171,136 162,136 158,130 133,133 122,145 81,132 88,101" id="61114" class="commune" fill="steelblue" stroke-width="1" stroke="white" geotype="commune" geoname="Commeaux" code_insee="61114" code_canton="6104"/><polygon points="210,288 209,289 199,282 183,281 176,290 145,299 130,291 136,286 150,269 159,268 151,248 176,238 206,243 210,234 223,234 228,240 210,288" id="61173" class="commune" fill="steelblue" stroke-width="1" stroke="white" geotype="commune" geoname="Fontenai-sur-Orne" code_insee="61173" code_canton="6104"/><polygon points="385,231 382,245 388,252 394,253 401,245 416,244 420,250 415,259 411,265 387,271 386,276 374,276 378,265 365,261 362,246 343,245 370,223 385,231" id="61212" class="commune" fill="steelblue" stroke-width="1" stroke="white" geotype="commune" geoname="Juvigny-sur-Orne" code_insee="61212" code_canton="6104"/><polygon points="96,102 95,96 107,89 110,75 128,46 144,36 185,51 196,41 221,52 216,56 227,59 214,69 227,76 223,80 201,75 180,100 149,108 96,102" id="61283" class="commune" fill="steelblue" stroke-width="1" stroke="white" geotype="commune" geoname="Montabard" code_insee="61283" code_canton="6104"/><polygon points="239,153 259,181 239,194 235,205 245,216 237,218 240,225 248,230 230,225 211,229 200,216 206,204 190,201 124,201 119,185 130,182 180,166 188,172 197,170 193,176 199,178 205,172 226,170 239,153" id="61298" class="commune" fill="steelblue" stroke-width="1" stroke="white" geotype="commune" geoname="Moulins-sur-Orne" code_insee="61298" code_canton="6104"/><polygon points="76,63 43,39 35,26 43,23 62,26 82,16 75,3 80,0 99,17 111,11 116,17 119,22 147,33 144,36 128,46 110,75 76,63" id="61303" class="commune" fill="steelblue" stroke-width="1" stroke="white" geotype="commune" geoname="Nécy" code_insee="61303" code_canton="6104"/><polygon points="223,80 220,91 245,99 257,113 269,114 269,124 239,153 226,170 205,172 199,178 193,176 197,170 188,172 180,166 130,182 122,168 138,161 122,151 122,145 133,133 158,130 162,136 171,136 196,112 180,100 201,75 223,80" id="61314" class="commune" fill="steelblue" stroke-width="1" stroke="white" geotype="commune" geoname="Occagnes" code_insee="61314" code_canton="6104"/><polygon points="49,154 0,141 42,95 58,81 86,91 88,101 81,132 49,154" id="61349" class="commune" fill="steelblue" stroke-width="1" stroke="white" geotype="commune" geoname="Ri" code_insee="61349" code_canton="6104"/><polygon points="96,102 88,101 86,91 58,81 42,95 9,82 24,55 32,49 76,63 110,75 107,89 95,96 96,102" id="61352" class="commune" fill="steelblue" stroke-width="1" stroke="white" geotype="commune" geoname="Rônai" code_insee="61352" code_canton="6104"/><polygon points="343,245 323,231 330,219 370,212 378,200 389,203 397,186 415,199 414,206 426,208 429,204 443,215 414,219 408,224 385,231 370,223 343,245" id="61358" class="commune" fill="steelblue" stroke-width="1" stroke="white" geotype="commune" geoname="Sai" code_insee="61358" code_canton="6104"/><polygon points="288,304 304,302 320,310 322,328 331,328 331,320 348,326 335,294 350,294 355,280 374,276 386,276 387,271 411,265 415,259 422,268 424,264 452,276 448,286 455,293 464,294 439,304 424,304 420,311 412,310 405,328 444,352 460,354 467,364 453,380 430,408 386,389 383,402 377,402 358,426 358,436 299,428 241,413 233,411 237,398 244,357 237,352 258,338 254,334 269,335 267,328 288,304" id="61375" class="commune" fill="steelblue" stroke-width="1" stroke="white" geotype="commune" geoname="Boischampré" code_insee="61375" code_canton="6104"/><polygon points="288,304 269,302 220,282 210,288 228,240 223,234 210,234 211,229 230,225 248,230 253,237 281,239 299,249 320,310 304,302 288,304" id="61462" class="commune" fill="steelblue" stroke-width="1" stroke="white" geotype="commune" geoname="Sarceaux" code_insee="61462" code_canton="6104"/><polygon points="345,149 343,165 322,182 316,164 310,162 291,163 282,172 259,181 239,153 269,124 312,123 309,131 337,136 336,143 345,149" id="61472" class="commune" fill="steelblue" stroke-width="1" stroke="white" geotype="commune" geoname="Sévigny" code_insee="61472" code_canton="6104"/></svg>