<?xml version="1.0" encoding="utf-8"?>
<svg version="1.1" id="svgmap" xmlns="http://www.w3.org/2000/svg" xmlns:xlink="http://www.w3.org/1999/xlink" x="0px" y="0px" width="100%" height="100%" viewBox="0 0 500 392">
<polygon points="132,301 141,292 169,283 187,264 219,277 218,283 219,311 182,322 142,349 126,341 130,322 119,318 132,301" id="62020" class="commune" fill="steelblue" stroke-width="1" stroke="white" geotype="commune" geoname="Alembon" code_insee="62020" code_canton="6219"/><polygon points="264,107 280,111 288,104 307,109 316,119 311,121 312,129 288,142 257,172 213,155 239,116 264,113 264,107" id="62031" class="commune" fill="steelblue" stroke-width="1" stroke="white" geotype="commune" geoname="Andres" code_insee="62031" code_canton="6219"/><polygon points="414,155 392,166 362,173 374,153 352,120 340,112 394,53 420,73 427,95 443,134 434,135 426,141 431,147 414,155" id="62038" class="commune" fill="steelblue" stroke-width="1" stroke="white" geotype="commune" geoname="Ardres" code_insee="62038" code_canton="6219"/><polygon points="307,109 288,104 280,111 264,107 190,81 190,80 218,87 222,71 212,69 209,50 227,54 231,37 275,49 270,40 279,32 306,25 312,36 327,28 338,47 382,32 394,53 340,112 323,103 307,109" id="62043" class="commune" fill="steelblue" stroke-width="1" stroke="white" geotype="commune" geoname="Attaques" code_insee="62043" code_canton="6219"/><polygon points="392,166 414,155 421,163 412,170 422,175 410,180 415,184 408,189 418,196 404,208 368,202 392,166" id="62059" class="commune" fill="steelblue" stroke-width="1" stroke="white" geotype="commune" geoname="Autingues" code_insee="62059" code_canton="6219"/><polygon points="183,366 190,362 205,363 249,336 260,337 264,343 279,336 283,343 289,353 272,360 274,366 216,392 185,390 173,376 183,366" id="62076" class="commune" fill="steelblue" stroke-width="1" stroke="white" geotype="commune" geoname="Bainghen" code_insee="62076" code_canton="6219"/><polygon points="264,176 254,179 257,172 288,142 312,129 311,121 316,119 307,109 323,103 340,112 352,120 337,123 327,141 333,152 318,157 309,183 281,173 275,178 264,176" id="62078" class="commune" fill="steelblue" stroke-width="1" stroke="white" geotype="commune" geoname="Balinghem" code_insee="62078" code_canton="6219"/><polygon points="219,277 187,264 176,249 184,235 189,232 204,222 209,211 216,213 237,201 247,205 256,200 279,222 258,245 205,265 223,270 225,276 219,277" id="62161" class="commune" fill="steelblue" stroke-width="1" stroke="white" geotype="commune" geoname="Bouquehault" code_insee="62161" code_canton="6219"/><polygon points="132,301 119,318 130,322 126,341 110,346 48,350 25,343 6,335 27,331 30,324 42,324 48,314 63,312 69,301 85,299 90,304 132,301" id="62167" class="commune" fill="steelblue" stroke-width="1" stroke="white" geotype="commune" geoname="Boursin" code_insee="62167" code_canton="6219"/><polygon points="362,173 346,187 347,195 342,194 350,210 332,211 326,229 307,226 301,223 305,216 320,206 309,194 315,184 309,183 318,157 333,152 327,141 337,123 352,120 374,153 362,173" id="62174" class="commune" fill="steelblue" stroke-width="1" stroke="white" geotype="commune" geoname="Brêmes" code_insee="62174" code_canton="6219"/><polygon points="38,203 14,193 13,197 0,198 35,168 28,154 34,152 49,155 80,170 102,184 38,203" id="62191" class="commune" fill="steelblue" stroke-width="1" stroke="white" geotype="commune" geoname="Caffiers" code_insee="62191" code_canton="6219"/><polygon points="257,172 254,179 264,176 270,179 258,188 262,193 256,200 247,205 237,201 216,213 209,211 204,222 189,232 205,215 205,207 192,193 181,194 193,188 199,167 213,155 257,172" id="62203" class="commune" fill="steelblue" stroke-width="1" stroke="white" geotype="commune" geoname="Campagne-lès-Guines" code_insee="62203" code_canton="6219"/><polygon points="270,40 275,49 231,37 227,54 209,50 212,69 222,71 218,87 190,80 191,58 176,43 147,33 153,31 144,9 166,13 166,3 173,0 228,12 242,25 270,40" id="62244" class="commune" fill="steelblue" stroke-width="1" stroke="white" geotype="commune" geoname="Coulogne" code_insee="62244" code_canton="6219"/><polygon points="38,203 102,184 152,213 155,223 180,234 153,229 133,237 129,235 123,245 113,248 97,240 94,247 87,250 83,247 77,252 62,246 41,245 29,239 30,230 17,227 36,228 22,219 38,203" id="62334" class="commune" fill="steelblue" stroke-width="1" stroke="white" geotype="commune" geoname="Fiennes" code_insee="62334" code_canton="6219"/><polygon points="184,235 180,234 155,223 152,213 102,184 80,170 118,124 136,113 130,110 163,91 176,103 190,81 264,107 264,113 239,116 213,155 199,167 193,188 181,194 192,193 205,207 205,215 189,232 184,235" id="62397" class="commune" fill="steelblue" stroke-width="1" stroke="white" geotype="commune" geoname="Guînes" code_insee="62397" code_canton="6219"/><polygon points="141,292 132,301 90,304 85,299 69,301 72,298 53,289 43,275 27,272 41,260 41,245 62,246 77,252 83,247 87,250 94,247 97,240 113,248 111,263 125,265 125,286 141,292" id="62412" class="commune" fill="steelblue" stroke-width="1" stroke="white" geotype="commune" geoname="Hardinghen" code_insee="62412" code_canton="6219"/><polygon points="183,366 169,371 161,365 196,338 248,315 279,312 280,318 260,337 249,336 205,363 190,362 183,366" id="62432" class="commune" fill="steelblue" stroke-width="1" stroke="white" geotype="commune" geoname="Herbinghen" code_insee="62432" code_canton="6219"/><polygon points="180,234 184,235 176,249 187,264 169,283 141,292 125,286 125,265 111,263 113,248 123,245 129,235 133,237 153,229 180,234" id="62439" class="commune" fill="steelblue" stroke-width="1" stroke="white" geotype="commune" geoname="Hermelinghen" code_insee="62439" code_canton="6219"/><polygon points="283,343 279,336 264,343 260,337 280,318 286,325 294,321 299,327 314,327 324,344 319,351 307,349 304,345 310,341 304,337 283,343" id="62455" class="commune" fill="steelblue" stroke-width="1" stroke="white" geotype="commune" geoname="Hocquinghen" code_insee="62455" code_canton="6219"/><polygon points="309,229 307,226 326,229 332,211 350,210 369,207 377,221 384,220 379,224 385,227 393,224 388,229 400,235 392,254 389,262 387,256 377,255 375,275 359,270 365,251 343,250 339,245 335,248 309,229" id="62488" class="commune" fill="steelblue" stroke-width="1" stroke="white" geotype="commune" geoname="Landrethun-lès-Ardres" code_insee="62488" code_canton="6219"/><polygon points="279,222 291,228 309,229 335,248 339,245 343,250 365,251 359,270 352,301 341,309 338,324 332,328 314,327 299,327 294,321 286,325 280,318 279,312 264,293 231,288 228,281 218,283 219,277 225,276 223,270 205,265 258,245 279,222" id="62506" class="commune" fill="steelblue" stroke-width="1" stroke="white" geotype="commune" geoname="Licques" code_insee="62506" code_canton="6219"/><polygon points="429,249 400,256 392,254 400,235 388,229 393,224 385,227 379,224 384,220 377,221 369,207 350,210 342,194 347,195 346,187 362,173 392,166 368,202 404,208 418,196 424,190 433,195 438,191 458,198 472,184 493,192 497,186 500,190 479,221 486,225 483,240 458,249 429,249" id="62531" class="commune" fill="steelblue" stroke-width="1" stroke="white" geotype="commune" geoname="Louches" code_insee="62531" code_canton="6219"/><polygon points="418,196 408,189 415,184 410,180 422,175 412,170 421,163 414,155 431,147 426,141 434,135 443,134 453,135 444,137 472,184 458,198 438,191 433,195 424,190 418,196" id="62614" class="commune" fill="steelblue" stroke-width="1" stroke="white" geotype="commune" geoname="Nielles-lès-Ardres" code_insee="62614" code_canton="6219"/><polygon points="307,226 309,229 291,228 279,222 256,200 262,193 258,188 270,179 264,176 275,178 281,173 309,183 315,184 309,194 320,206 305,216 301,223 307,226" id="62716" class="commune" fill="steelblue" stroke-width="1" stroke="white" geotype="commune" geoname="Rodelinghem" code_insee="62716" code_canton="6219"/><polygon points="149,358 142,349 182,322 219,311 218,283 228,281 231,288 264,293 279,312 248,315 196,338 161,365 149,358" id="62775" class="commune" fill="steelblue" stroke-width="1" stroke="white" geotype="commune" geoname="Sanghen" code_insee="62775" code_canton="6219"/></svg>