<?xml version="1.0" encoding="utf-8"?>
<svg version="1.1" id="svgmap" xmlns="http://www.w3.org/2000/svg" xmlns:xlink="http://www.w3.org/1999/xlink" x="0px" y="0px" width="100%" height="100%" viewBox="0 0 500 244">
<polygon points="369,107 341,142 337,151 313,155 293,169 237,178 226,172 249,147 267,104 293,105 314,87 361,106 369,107" id="62249" class="commune" fill="steelblue" stroke-width="1" stroke="white" geotype="commune" geoname="Courcelles-lès-Lens" code_insee="62249" code_canton="6228"/><polygon points="38,241 0,215 20,199 13,193 33,183 29,173 57,171 92,195 69,210 86,235 66,244 54,231 38,241" id="62277" class="commune" fill="steelblue" stroke-width="1" stroke="white" geotype="commune" geoname="Drocourt" code_insee="62277" code_canton="6228"/><polygon points="361,106 314,87 276,71 272,56 286,55 286,48 302,50 346,40 367,51 378,42 392,70 421,91 417,97 400,96 378,86 361,106" id="62321" class="commune" fill="steelblue" stroke-width="1" stroke="white" geotype="commune" geoname="Évin-Malmaison" code_insee="62321" code_canton="6228"/><polygon points="460,100 401,99 386,109 369,107 361,106 378,86 400,96 417,97 421,91 392,70 378,42 387,27 431,6 454,0 463,7 452,33 500,44 477,61 460,100" id="62497" class="commune" fill="steelblue" stroke-width="1" stroke="white" geotype="commune" geoname="Leforest" code_insee="62497" code_canton="6228"/><polygon points="226,172 213,175 195,168 167,141 182,128 200,104 249,94 241,83 276,71 314,87 293,105 267,104 249,147 226,172" id="62624" class="commune" fill="steelblue" stroke-width="1" stroke="white" geotype="commune" geoname="Noyelles-Godault" code_insee="62624" code_canton="6228"/></svg>