<?xml version="1.0" encoding="utf-8"?>
<svg version="1.1" id="svgmap" xmlns="http://www.w3.org/2000/svg" xmlns:xlink="http://www.w3.org/1999/xlink" x="0px" y="0px" width="100%" height="100%" viewBox="0 0 500 207">
<polygon points="313,85 312,66 302,55 286,40 340,24 372,0 403,10 414,3 453,6 492,9 500,10 455,27 424,58 410,54 366,77 313,85" id="62033" class="commune" fill="steelblue" stroke-width="1" stroke="white" geotype="commune" geoname="Annay" code_insee="62033" code_canton="6229"/><polygon points="217,92 239,110 260,148 208,176 223,187 212,199 188,185 175,199 145,206 130,207 121,190 105,201 102,189 71,195 33,167 0,119 33,104 54,110 85,99 119,82 119,63 173,47 217,92" id="62498" class="commune" fill="steelblue" stroke-width="1" stroke="white" geotype="commune" geoname="Lens" code_insee="62498" code_canton="6229"/><polygon points="302,55 312,66 313,85 328,128 361,123 366,134 383,132 390,141 424,136 401,142 349,140 261,149 260,148 239,110 217,92 302,55" id="62523" class="commune" fill="steelblue" stroke-width="1" stroke="white" geotype="commune" geoname="Loison-sous-Lens" code_insee="62523" code_canton="6229"/></svg>