<?xml version="1.0" encoding="utf-8"?>
<svg version="1.1" id="svgmap" xmlns="http://www.w3.org/2000/svg" xmlns:xlink="http://www.w3.org/1999/xlink" x="0px" y="0px" width="100%" height="100%" viewBox="0 0 500 178">
<polygon points="222,118 214,89 239,59 279,34 270,54 293,67 274,96 222,118" id="62107" class="commune" fill="steelblue" stroke-width="1" stroke="white" geotype="commune" geoname="Bénifontaine" code_insee="62107" code_canton="6239"/><polygon points="462,99 437,96 444,82 421,86 417,77 431,64 466,47 484,48 500,63 471,74 462,99" id="62311" class="commune" fill="steelblue" stroke-width="1" stroke="white" geotype="commune" geoname="Estevelles" code_insee="62311" code_canton="6239"/><polygon points="71,168 45,176 0,132 5,126 15,130 35,120 59,124 73,136 83,165 71,168" id="62386" class="commune" fill="steelblue" stroke-width="1" stroke="white" geotype="commune" geoname="Grenay" code_insee="62386" code_canton="6239"/><polygon points="214,89 200,101 189,94 181,100 170,88 161,93 159,88 161,49 171,51 196,43 208,29 230,42 244,25 254,34 281,25 271,18 279,13 288,11 299,18 279,34 239,59 214,89" id="62464" class="commune" fill="steelblue" stroke-width="1" stroke="white" geotype="commune" geoname="Hulluch" code_insee="62464" code_canton="6239"/><polygon points="214,89 222,118 226,133 226,145 204,156 185,163 171,159 150,168 110,178 96,170 83,174 71,168 83,165 73,136 97,126 85,122 99,106 133,72 159,88 161,93 170,88 181,100 189,94 200,101 214,89" id="62528" class="commune" fill="steelblue" stroke-width="1" stroke="white" geotype="commune" geoname="Loos-en-Gohelle" code_insee="62528" code_canton="6239"/><polygon points="450,11 463,21 475,34 466,47 431,64 398,63 407,53 394,48 388,57 386,29 391,0 410,0 415,9 404,11 416,17 424,11 441,19 450,11" id="62573" class="commune" fill="steelblue" stroke-width="1" stroke="white" geotype="commune" geoname="Meurchin" code_insee="62573" code_canton="6239"/><polygon points="437,96 412,94 405,99 386,93 366,108 371,93 395,86 388,57 394,48 407,53 398,63 431,64 417,77 421,86 444,82 437,96" id="62666" class="commune" fill="steelblue" stroke-width="1" stroke="white" geotype="commune" geoname="Pont-à-Vendin" code_insee="62666" code_canton="6239"/><polygon points="341,127 288,151 260,123 226,133 222,118 274,96 293,67 302,61 323,62 349,52 386,29 388,57 395,86 371,93 366,108 331,118 341,127" id="62842" class="commune" fill="steelblue" stroke-width="1" stroke="white" geotype="commune" geoname="Vendin-le-Vieil" code_insee="62842" code_canton="6239"/><polygon points="338,1 391,0 386,29 349,52 323,62 302,61 293,67 270,54 279,34 299,18 338,1" id="62895" class="commune" fill="steelblue" stroke-width="1" stroke="white" geotype="commune" geoname="Wingles" code_insee="62895" code_canton="6239"/></svg>