<?xml version="1.0" encoding="utf-8"?>
<svg version="1.1" id="svgmap" xmlns="http://www.w3.org/2000/svg" xmlns:xlink="http://www.w3.org/1999/xlink" x="0px" y="0px" width="100%" height="100%" viewBox="0 0 500 248">
<polygon points="472,88 459,92 424,78 379,89 324,87 292,72 275,63 286,59 279,20 293,2 314,0 342,3 379,28 398,13 466,30 476,31 464,33 461,71 472,88" id="63014" class="commune" fill="steelblue" stroke-width="1" stroke="white" geotype="commune" geoname="Aubière" code_insee="63014" code_canton="6303"/><polygon points="379,89 424,78 459,92 472,88 500,127 412,160 380,130 398,104 379,89" id="63272" class="commune" fill="steelblue" stroke-width="1" stroke="white" geotype="commune" geoname="Pérignat-lès-Sarliève" code_insee="63272" code_canton="6303"/><polygon points="292,72 324,87 379,89 398,104 380,130 321,148 297,179 271,186 281,232 234,248 123,231 119,229 131,221 110,218 106,212 120,214 108,201 88,215 71,214 0,193 59,178 87,183 175,170 182,153 202,149 197,125 235,104 228,90 231,80 253,83 254,74 287,79 292,72" id="63307" class="commune" fill="steelblue" stroke-width="1" stroke="white" geotype="commune" geoname="Romagnat" code_insee="63307" code_canton="6303"/></svg>