<?xml version="1.0" encoding="utf-8"?>
<svg version="1.1" id="svgmap" xmlns="http://www.w3.org/2000/svg" xmlns:xlink="http://www.w3.org/1999/xlink" x="0px" y="0px" width="100%" height="100%" viewBox="0 0 500 247">
<polygon points="57,79 41,77 42,72 31,71 17,78 30,66 37,46 54,31 64,27 63,23 76,20 72,24 101,26 96,41 100,44 94,50 99,52 98,55 90,60 79,61 77,67 57,79" id="63030" class="commune" fill="steelblue" stroke-width="1" stroke="white" geotype="commune" geoname="Bas-et-Lezat" code_insee="63030" code_canton="6320"/><polygon points="178,121 173,129 160,125 153,120 149,121 149,114 143,115 144,112 148,93 155,93 182,77 184,97 179,100 178,121" id="63033" class="commune" fill="steelblue" stroke-width="1" stroke="white" geotype="commune" geoname="Beaumont-lès-Randan" code_insee="63033" code_canton="6320"/><polygon points="219,160 233,165 244,162 246,154 257,162 264,169 260,174 254,171 256,175 247,178 247,182 234,188 233,194 224,197 216,192 222,179 215,180 204,171 217,172 219,160" id="63095" class="commune" fill="steelblue" stroke-width="1" stroke="white" geotype="commune" geoname="Charnat" code_insee="63095" code_canton="6320"/><polygon points="389,103 404,97 417,96 428,102 423,113 429,114 434,128 440,130 437,136 441,141 456,150 447,155 445,163 449,163 449,166 443,172 426,166 412,168 407,166 398,169 394,175 378,161 373,164 372,160 358,157 344,148 346,140 334,132 334,123 320,115 329,112 340,114 354,108 355,114 389,103" id="63102" class="commune" fill="steelblue" stroke-width="1" stroke="white" geotype="commune" geoname="Châteldon" code_insee="63102" code_canton="6320"/><polygon points="393,79 398,75 426,76 441,67 446,68 452,76 457,77 461,89 474,98 475,103 491,119 500,152 498,154 477,150 456,150 441,141 437,136 440,130 434,128 429,114 423,113 428,102 417,96 404,97 389,103 386,92 393,89 393,79" id="63184" class="commune" fill="steelblue" stroke-width="1" stroke="white" geotype="commune" geoname="Lachaux" code_insee="63184" code_canton="6320"/><polygon points="291,95 292,100 281,103 288,105 286,109 281,115 287,136 279,136 276,141 269,139 257,162 246,154 244,162 233,165 219,160 211,162 202,154 223,132 223,123 233,119 242,106 261,104 267,100 272,101 274,97 291,95" id="63196" class="commune" fill="steelblue" stroke-width="1" stroke="white" geotype="commune" geoname="Limons" code_insee="63196" code_canton="6320"/><polygon points="96,163 98,159 127,156 128,143 136,137 159,130 160,125 173,129 178,121 196,124 200,119 223,123 223,132 202,154 211,162 219,160 217,172 204,171 183,173 159,188 160,191 167,187 171,190 169,195 163,194 161,199 161,199 154,194 137,191 139,183 130,180 118,165 96,163" id="63201" class="commune" fill="steelblue" stroke-width="1" stroke="white" geotype="commune" geoname="Luzillat" code_insee="63201" code_canton="6320"/><polygon points="161,199 159,205 151,204 139,213 140,224 132,224 123,230 120,242 115,244 105,237 101,238 106,247 95,241 67,238 73,224 64,222 62,209 70,209 72,196 66,195 65,187 84,189 91,186 96,178 96,163 118,165 130,180 139,183 137,191 154,194 161,199" id="63210" class="commune" fill="steelblue" stroke-width="1" stroke="white" geotype="commune" geoname="Maringues" code_insee="63210" code_canton="6320"/><polygon points="273,89 287,85 291,95 274,97 272,101 267,100 261,104 242,106 233,119 223,123 200,119 196,124 178,121 179,100 184,97 182,77 201,75 212,69 212,77 225,89 242,85 241,93 253,95 273,89" id="63232" class="commune" fill="steelblue" stroke-width="1" stroke="white" geotype="commune" geoname="Mons" code_insee="63232" code_canton="6320"/><polygon points="249,193 267,198 283,197 292,201 298,207 295,210 283,227 264,225 261,222 254,221 258,217 258,213 250,209 258,208 247,201 249,193" id="63253" class="commune" fill="steelblue" stroke-width="1" stroke="white" geotype="commune" geoname="Noalhat" code_insee="63253" code_canton="6320"/><polygon points="295,210 298,207 292,201 283,197 267,198 249,193 251,188 243,186 247,182 247,178 256,175 254,171 260,174 264,169 269,171 280,166 285,172 305,173 316,180 342,177 356,181 370,209 377,206 412,208 428,210 431,214 410,223 407,229 397,234 380,235 388,238 377,240 370,241 354,235 350,244 349,236 344,234 324,224 328,219 324,211 320,216 306,218 304,212 295,210" id="63271" class="commune" fill="steelblue" stroke-width="1" stroke="white" geotype="commune" geoname="Paslières" code_insee="63271" code_canton="6320"/><polygon points="264,169 257,162 269,139 276,141 279,136 287,136 281,115 286,109 300,109 319,113 320,115 334,123 334,132 346,140 344,148 358,157 372,160 373,164 378,161 394,175 387,183 372,187 361,186 356,181 342,177 316,180 305,173 285,172 280,166 269,171 264,169" id="63291" class="commune" fill="steelblue" stroke-width="1" stroke="white" geotype="commune" geoname="Puy-Guillaume" code_insee="63291" code_canton="6320"/><polygon points="182,77 155,93 148,93 144,112 131,112 123,116 102,113 97,109 91,108 91,99 85,99 92,94 102,94 116,84 118,70 128,63 158,51 175,61 183,58 191,62 182,77" id="63295" class="commune" fill="steelblue" stroke-width="1" stroke="white" geotype="commune" geoname="Randan" code_insee="63295" code_canton="6320"/><polygon points="387,79 393,79 393,89 386,92 389,103 355,114 354,108 340,114 329,112 320,115 319,113 300,109 286,109 288,105 281,103 292,100 291,95 287,85 301,80 323,82 331,77 337,80 345,78 356,85 350,73 370,70 381,82 387,79" id="63301" class="commune" fill="steelblue" stroke-width="1" stroke="white" geotype="commune" geoname="Ris" code_insee="63301" code_canton="6320"/><polygon points="98,159 96,163 96,178 91,186 84,189 65,187 52,184 44,188 32,188 35,163 31,162 36,128 71,126 89,118 96,121 98,129 91,145 82,148 98,159" id="63317" class="commune" fill="steelblue" stroke-width="1" stroke="white" geotype="commune" geoname="Saint-André-le-Coq" code_insee="63317" code_canton="6320"/><polygon points="17,78 31,71 42,72 41,77 57,79 56,93 85,99 91,99 91,108 97,109 89,118 71,126 36,128 32,123 20,123 24,120 15,116 22,111 16,105 19,100 0,97 0,89 15,88 15,84 17,78" id="63332" class="commune" fill="steelblue" stroke-width="1" stroke="white" geotype="commune" geoname="Saint-Clément-de-Régnat" code_insee="63332" code_canton="6320"/><polygon points="144,112 143,115 149,114 149,121 153,120 160,125 159,130 136,137 128,143 127,156 98,159 82,148 91,145 98,129 96,121 89,118 97,109 102,113 123,116 131,112 144,112" id="63333" class="commune" fill="steelblue" stroke-width="1" stroke="white" geotype="commune" geoname="Saint-Denis-Combarnazat" code_insee="63333" code_canton="6320"/><polygon points="285,45 281,48 272,47 280,68 274,72 273,89 253,95 241,93 242,85 225,89 212,77 212,69 201,75 182,77 191,62 207,53 214,42 230,38 234,34 255,34 265,20 271,24 273,36 285,45" id="63387" class="commune" fill="steelblue" stroke-width="1" stroke="white" geotype="commune" geoname="Saint-Priest-Bramefant" code_insee="63387" code_canton="6320"/><polygon points="100,44 96,41 102,38 107,40 109,34 127,29 151,26 162,12 177,14 191,11 214,0 222,11 234,19 246,20 260,14 267,16 265,20 255,34 234,34 230,38 214,42 207,53 191,62 183,58 175,61 158,51 128,63 122,53 100,44" id="63400" class="commune" fill="steelblue" stroke-width="1" stroke="white" geotype="commune" geoname="Saint-Sylvestre-Pragoulin" code_insee="63400" code_canton="6320"/><polygon points="100,44 122,53 128,63 118,70 116,84 102,94 92,94 85,99 56,93 57,79 77,67 79,61 90,60 98,55 99,52 94,50 100,44" id="63459" class="commune" fill="steelblue" stroke-width="1" stroke="white" geotype="commune" geoname="Villeneuve-les-Cerfs" code_insee="63459" code_canton="6320"/></svg>