<?xml version="1.0" encoding="utf-8"?>
<svg version="1.1" id="svgmap" xmlns="http://www.w3.org/2000/svg" xmlns:xlink="http://www.w3.org/1999/xlink" x="0px" y="0px" width="100%" height="100%" viewBox="0 0 461 500">
<polygon points="20,124 22,124 24,124 23,125 20,124" id="64122" class="commune" fill="steelblue" stroke-width="1" stroke="white" geotype="commune" geoname="Biarritz" code_insee="64122" code_canton="6407"/><polygon points="304,10 451,92 461,273 449,357 401,432 402,500 376,500 227,493 163,463 102,372 0,338 22,304 7,286 17,291 41,272 104,172 109,146 74,137 101,122 84,107 102,112 110,99 116,117 143,116 124,115 123,115 124,114 123,110 124,110 151,115 151,107 172,112 256,44 261,15 236,0 304,10" id="64122" class="commune" fill="steelblue" stroke-width="1" stroke="white" geotype="commune" geoname="Biarritz" code_insee="64122" code_canton="6407"/><polygon points="69,106 74,107 80,111 75,110 69,106" id="64122" class="commune" fill="steelblue" stroke-width="1" stroke="white" geotype="commune" geoname="Biarritz" code_insee="64122" code_canton="6407"/><polygon points="171,60 172,59 177,59 173,60 171,60" id="64122" class="commune" fill="steelblue" stroke-width="1" stroke="white" geotype="commune" geoname="Biarritz" code_insee="64122" code_canton="6407"/><polygon points="93,98 94,98 96,99 95,99 93,98" id="64122" class="commune" fill="steelblue" stroke-width="1" stroke="white" geotype="commune" geoname="Biarritz" code_insee="64122" code_canton="6407"/><polygon points="76,103 76,102 77,102 77,104 76,103" id="64122" class="commune" fill="steelblue" stroke-width="1" stroke="white" geotype="commune" geoname="Biarritz" code_insee="64122" code_canton="6407"/><polygon points="97,109 97,109 99,109 97,110 97,109" id="64122" class="commune" fill="steelblue" stroke-width="1" stroke="white" geotype="commune" geoname="Biarritz" code_insee="64122" code_canton="6407"/><polygon points="217,15 224,16 229,23 225,22 217,15" id="64122" class="commune" fill="steelblue" stroke-width="1" stroke="white" geotype="commune" geoname="Biarritz" code_insee="64122" code_canton="6407"/><polygon points="148,105 149,104 153,104 150,106 148,105" id="64122" class="commune" fill="steelblue" stroke-width="1" stroke="white" geotype="commune" geoname="Biarritz" code_insee="64122" code_canton="6407"/><polygon points="129,108 132,107 136,109 131,110 129,108" id="64122" class="commune" fill="steelblue" stroke-width="1" stroke="white" geotype="commune" geoname="Biarritz" code_insee="64122" code_canton="6407"/><polygon points="96,99 99,98 105,99 102,101 96,99" id="64122" class="commune" fill="steelblue" stroke-width="1" stroke="white" geotype="commune" geoname="Biarritz" code_insee="64122" code_canton="6407"/><polygon points="49,97 49,96 52,97 51,97 49,97" id="64122" class="commune" fill="steelblue" stroke-width="1" stroke="white" geotype="commune" geoname="Biarritz" code_insee="64122" code_canton="6407"/><polygon points="134,98 138,98 139,99 135,99 134,98" id="64122" class="commune" fill="steelblue" stroke-width="1" stroke="white" geotype="commune" geoname="Biarritz" code_insee="64122" code_canton="6407"/><polygon points="43,106 45,104 54,105 50,107 43,106" id="64122" class="commune" fill="steelblue" stroke-width="1" stroke="white" geotype="commune" geoname="Biarritz" code_insee="64122" code_canton="6407"/><polygon points="155,100 155,99 157,100 156,101 155,100" id="64122" class="commune" fill="steelblue" stroke-width="1" stroke="white" geotype="commune" geoname="Biarritz" code_insee="64122" code_canton="6407"/><polygon points="212,49 219,50 217,54 215,54 212,49" id="64122" class="commune" fill="steelblue" stroke-width="1" stroke="white" geotype="commune" geoname="Biarritz" code_insee="64122" code_canton="6407"/><polygon points="150,96 151,95 158,96 155,97 150,96" id="64122" class="commune" fill="steelblue" stroke-width="1" stroke="white" geotype="commune" geoname="Biarritz" code_insee="64122" code_canton="6407"/><polygon points="32,104 33,104 33,104 33,105 32,104" id="64122" class="commune" fill="steelblue" stroke-width="1" stroke="white" geotype="commune" geoname="Biarritz" code_insee="64122" code_canton="6407"/></svg>