<?xml version="1.0" encoding="utf-8"?>
<svg version="1.1" id="svgmap" xmlns="http://www.w3.org/2000/svg" xmlns:xlink="http://www.w3.org/1999/xlink" x="0px" y="0px" width="100%" height="100%" viewBox="0 0 500 205">
<polygon points="141,64 141,61 145,59 146,48 169,43 176,37 180,50 185,55 184,60 156,64 152,73 151,69 145,69 141,64" id="65015" class="commune" fill="steelblue" stroke-width="1" stroke="white" geotype="commune" geoname="Antin" code_insee="65015" code_canton="6503"/><polygon points="376,123 375,120 384,114 383,112 391,103 402,102 407,95 414,92 418,93 417,100 413,102 416,106 404,110 395,117 399,120 397,123 385,128 376,123" id="65026" class="commune" fill="steelblue" stroke-width="1" stroke="white" geotype="commune" geoname="Aries-Espénan" code_insee="65026" code_canton="6503"/><polygon points="115,102 125,107 129,106 137,117 141,118 141,123 141,125 131,126 111,122 107,121 105,109 114,110 115,102" id="65044" class="commune" fill="steelblue" stroke-width="1" stroke="white" geotype="commune" geoname="Aubarède" code_insee="65044" code_canton="6503"/><polygon points="339,99 348,92 354,94 352,100 349,104 337,107 334,105 339,99" id="65068" class="commune" fill="steelblue" stroke-width="1" stroke="white" geotype="commune" geoname="Barthe" code_insee="65068" code_canton="6503"/><polygon points="414,150 417,149 422,148 434,153 439,152 440,164 436,167 419,175 411,171 402,177 385,172 394,160 402,158 414,150" id="65074" class="commune" fill="steelblue" stroke-width="1" stroke="white" geotype="commune" geoname="Bazordan" code_insee="65074" code_canton="6503"/><polygon points="206,50 210,56 185,55 180,50 176,37 174,35 177,28 172,19 173,17 186,21 197,13 203,44 206,50" id="65085" class="commune" fill="steelblue" stroke-width="1" stroke="white" geotype="commune" geoname="Bernadets-Debat" code_insee="65085" code_canton="6503"/><polygon points="457,105 429,103 428,100 433,97 422,91 418,93 414,92 415,86 423,87 433,95 444,87 450,87 443,94 457,97 457,105" id="65088" class="commune" fill="steelblue" stroke-width="1" stroke="white" geotype="commune" geoname="Betbèze" code_insee="65088" code_canton="6503"/><polygon points="305,124 304,123 316,108 326,109 334,99 339,99 334,105 337,107 338,118 333,124 313,120 308,125 305,124" id="65090" class="commune" fill="steelblue" stroke-width="1" stroke="white" geotype="commune" geoname="Betpouy" code_insee="65090" code_canton="6503"/><polygon points="189,146 193,139 193,126 211,126 226,119 225,126 244,132 246,135 250,135 254,139 248,144 251,146 245,151 238,148 230,156 227,158 219,155 196,158 193,168 189,162 189,146" id="65095" class="commune" fill="steelblue" stroke-width="1" stroke="white" geotype="commune" geoname="Bonnefont" code_insee="65095" code_canton="6503"/><polygon points="72,96 57,97 55,89 52,76 50,68 50,63 65,66 76,65 82,59 86,73 81,80 73,82 76,90 72,96" id="65103" class="commune" fill="steelblue" stroke-width="1" stroke="white" geotype="commune" geoname="Bouilh-Péreuilh" code_insee="65103" code_canton="6503"/><polygon points="21,138 17,142 8,141 7,138 1,124 8,121 16,122 13,129 21,130 21,138" id="65104" class="commune" fill="steelblue" stroke-width="1" stroke="white" geotype="commune" geoname="Boulin" code_insee="65104" code_canton="6503"/><polygon points="193,126 193,139 189,146 175,147 176,142 170,130 175,121 174,116 199,118 193,126" id="65110" class="commune" fill="steelblue" stroke-width="1" stroke="white" geotype="commune" geoname="Bugard" code_insee="65110" code_canton="6503"/><polygon points="108,127 102,126 84,122 82,116 78,114 80,111 87,112 87,107 96,106 96,99 114,98 115,102 114,110 105,109 107,121 111,122 111,125 108,127" id="65115" class="commune" fill="steelblue" stroke-width="1" stroke="white" geotype="commune" geoname="Cabanac" code_insee="65115" code_canton="6503"/><polygon points="304,123 285,122 291,111 299,97 296,91 321,93 316,98 319,100 316,108 304,123" id="65126" class="commune" fill="steelblue" stroke-width="1" stroke="white" geotype="commune" geoname="Campuzan" code_insee="65126" code_canton="6503"/><polygon points="361,109 361,105 352,100 354,94 364,91 367,88 365,85 372,83 381,83 388,76 388,69 403,58 407,60 410,65 402,67 394,86 400,86 397,89 406,87 407,95 402,102 391,103 383,112 361,109" id="65129" class="commune" fill="steelblue" stroke-width="1" stroke="white" geotype="commune" geoname="Castelnau-Magnoac" code_insee="65129" code_canton="6503"/><polygon points="57,97 72,96 84,96 85,99 96,99 96,106 87,107 87,112 80,111 78,114 82,116 68,118 65,118 57,97" id="65131" class="commune" fill="steelblue" stroke-width="1" stroke="white" geotype="commune" geoname="Castelvieilh" code_insee="65131" code_canton="6503"/><polygon points="50,63 50,68 39,72 15,74 9,72 14,67 11,65 14,64 13,59 34,60 48,53 52,56 50,63" id="65133" class="commune" fill="steelblue" stroke-width="1" stroke="white" geotype="commune" geoname="Castéra-Lou" code_insee="65133" code_canton="6503"/><polygon points="441,75 432,73 437,67 441,65 456,73 461,71 465,73 458,79 447,76 444,70 441,75" id="65134" class="commune" fill="steelblue" stroke-width="1" stroke="white" geotype="commune" geoname="Casterets" code_insee="65134" code_canton="6503"/><polygon points="320,156 318,153 318,144 322,141 325,142 331,137 347,133 360,135 352,144 330,146 324,156 320,156" id="65136" class="commune" fill="steelblue" stroke-width="1" stroke="white" geotype="commune" geoname="Caubous" code_insee="65136" code_canton="6503"/><polygon points="129,106 125,107 115,102 114,98 96,99 85,99 84,96 101,91 102,78 96,78 101,74 95,71 94,69 98,68 94,63 105,67 106,75 114,76 119,79 137,94 129,106" id="65142" class="commune" fill="steelblue" stroke-width="1" stroke="white" geotype="commune" geoname="Chelle-Debat" code_insee="65142" code_canton="6503"/><polygon points="383,112 384,114 375,120 376,123 366,134 360,135 347,133 331,137 334,130 333,124 338,118 347,119 361,109 383,112" id="65148" class="commune" fill="steelblue" stroke-width="1" stroke="white" geotype="commune" geoname="Cizos" code_insee="65148" code_canton="6503"/><polygon points="55,89 57,97 30,105 33,96 33,93 55,89" id="65151" class="commune" fill="steelblue" stroke-width="1" stroke="white" geotype="commune" geoname="Collongues" code_insee="65151" code_canton="6503"/><polygon points="82,147 74,151 69,151 67,148 70,136 70,133 74,131 92,135 92,142 82,147" id="65153" class="commune" fill="steelblue" stroke-width="1" stroke="white" geotype="commune" geoname="Coussan" code_insee="65153" code_canton="6503"/><polygon points="410,123 405,126 397,123 399,120 395,117 404,110 416,106 413,102 417,100 418,93 422,91 433,97 428,100 429,103 426,103 426,107 429,108 429,118 423,115 424,118 420,116 420,118 413,119 410,123" id="65155" class="commune" fill="steelblue" stroke-width="1" stroke="white" geotype="commune" geoname="Devèze" code_insee="65155" code_canton="6503"/><polygon points="2,58 11,59 13,59 14,64 11,65 14,67 9,72 15,74 19,80 21,96 10,99 8,94 1,93 0,76 1,67 2,58" id="65156" class="commune" fill="steelblue" stroke-width="1" stroke="white" geotype="commune" geoname="Dours" code_insee="65156" code_canton="6503"/><polygon points="171,0 173,17 172,19 161,23 143,24 144,6 144,6 152,2 171,0" id="65170" class="commune" fill="steelblue" stroke-width="1" stroke="white" geotype="commune" geoname="Estampures" code_insee="65170" code_canton="6503"/><polygon points="234,38 241,35 249,34 249,32 261,32 261,38 269,36 265,38 264,50 258,52 257,50 256,54 240,58 226,52 206,50 203,44 215,43 218,39 234,38" id="65177" class="commune" fill="steelblue" stroke-width="1" stroke="white" geotype="commune" geoname="Fontrailles" code_insee="65177" code_canton="6503"/><polygon points="117,16 122,11 129,12 144,6 143,24 148,35 140,39 132,37 123,27 120,16 117,16" id="65178" class="commune" fill="steelblue" stroke-width="1" stroke="white" geotype="commune" geoname="Fréchède" code_insee="65178" code_canton="6503"/><polygon points="322,161 327,161 327,158 340,153 363,150 373,159 372,168 367,168 362,166 360,169 357,167 342,171 319,173 322,161" id="65187" class="commune" fill="steelblue" stroke-width="1" stroke="white" geotype="commune" geoname="Gaussan" code_insee="65187" code_canton="6503"/><polygon points="74,151 82,147 83,149 95,148 92,154 81,154 76,157 74,155 74,151" id="65204" class="commune" fill="steelblue" stroke-width="1" stroke="white" geotype="commune" geoname="Gonez" code_insee="65204" code_canton="6503"/><polygon points="314,47 330,51 340,52 341,55 338,62 331,76 324,75 312,83 300,81 307,73 310,74 312,60 314,55 310,51 314,47" id="65213" class="commune" fill="steelblue" stroke-width="1" stroke="white" geotype="commune" geoname="Guizerix" code_insee="65213" code_canton="6503"/><polygon points="334,99 326,109 316,108 319,100 316,98 321,93 332,95 334,99" id="65214" class="commune" fill="steelblue" stroke-width="1" stroke="white" geotype="commune" geoname="Hachan" code_insee="65214" code_canton="6503"/><polygon points="70,133 70,136 59,140 24,138 26,136 32,133 55,135 63,133 69,128 70,133" id="65225" class="commune" fill="steelblue" stroke-width="1" stroke="white" geotype="commune" geoname="Hourc" code_insee="65225" code_canton="6503"/><polygon points="86,73 82,59 82,59 96,60 94,63 98,68 94,69 95,71 96,76 89,78 86,73" id="65232" class="commune" fill="steelblue" stroke-width="1" stroke="white" geotype="commune" geoname="Jacque" code_insee="65232" code_canton="6503"/><polygon points="479,108 462,112 442,127 435,127 429,118 429,108 426,107 426,103 429,103 457,105 480,106 479,108" id="65249" class="commune" fill="steelblue" stroke-width="1" stroke="white" geotype="commune" geoname="Lalanne" code_insee="65249" code_canton="6503"/><polygon points="188,67 220,71 236,71 219,85 208,84 186,77 188,67" id="65250" class="commune" fill="steelblue" stroke-width="1" stroke="white" geotype="commune" geoname="Lalanne-Trie" code_insee="65250" code_canton="6503"/><polygon points="174,116 175,121 170,116 160,118 155,115 156,102 179,104 181,102 174,116" id="65253" class="commune" fill="steelblue" stroke-width="1" stroke="white" geotype="commune" geoname="Lamarque-Rustaing" code_insee="65253" code_canton="6503"/><polygon points="71,157 67,166 27,171 28,167 25,165 31,158 61,160 66,156 71,157" id="65259" class="commune" fill="steelblue" stroke-width="1" stroke="white" geotype="commune" geoname="Lansac" code_insee="65259" code_canton="6503"/><polygon points="220,71 188,67 184,60 185,55 210,56 214,62 222,64 220,71" id="65260" class="commune" fill="steelblue" stroke-width="1" stroke="white" geotype="commune" geoname="Lapeyre" code_insee="65260" code_canton="6503"/><polygon points="352,144 359,143 366,146 368,148 363,150 340,153 327,158 327,161 322,161 320,156 324,156 330,146 352,144" id="65261" class="commune" fill="steelblue" stroke-width="1" stroke="white" geotype="commune" geoname="Laran" code_insee="65261" code_canton="6503"/><polygon points="338,62 341,55 347,55 362,62 365,61 364,77 375,80 372,83 365,85 367,88 364,91 354,94 348,92 350,86 347,81 353,77 339,68 338,62" id="65263" class="commune" fill="steelblue" stroke-width="1" stroke="white" geotype="commune" geoname="Larroque" code_insee="65263" code_canton="6503"/><polygon points="25,165 20,164 12,148 23,146 33,151 53,152 67,148 69,151 74,151 74,155 71,157 66,156 61,160 31,158 25,165" id="65265" class="commune" fill="steelblue" stroke-width="1" stroke="white" geotype="commune" geoname="Laslades" code_insee="65265" code_canton="6503"/><polygon points="367,168 365,171 368,172 357,184 344,182 345,173 342,171 357,167 360,169 362,166 367,168" id="65266" class="commune" fill="steelblue" stroke-width="1" stroke="white" geotype="commune" geoname="Lassales" code_insee="65266" code_canton="6503"/><polygon points="26,136 24,138 21,138 21,130 13,129 16,122 19,118 27,115 26,136" id="65276" class="commune" fill="steelblue" stroke-width="1" stroke="white" geotype="commune" geoname="Lizos" code_insee="65276" code_canton="6503"/><polygon points="52,76 55,89 33,93 33,96 21,96 19,80 52,76" id="65285" class="commune" fill="steelblue" stroke-width="1" stroke="white" geotype="commune" geoname="Louit" code_insee="65285" code_canton="6503"/><polygon points="152,73 156,64 184,60 188,67 186,77 185,80 174,82 160,79 155,82 150,80 152,73" id="65288" class="commune" fill="steelblue" stroke-width="1" stroke="white" geotype="commune" geoname="Lubret-Saint-Luc" code_insee="65288" code_canton="6503"/><polygon points="181,102 179,104 156,102 146,89 150,80 155,82 160,79 174,82 185,80 188,87 184,89 185,92 181,102" id="65289" class="commune" fill="steelblue" stroke-width="1" stroke="white" geotype="commune" geoname="Luby-Betmont" code_insee="65289" code_canton="6503"/><polygon points="226,119 211,126 193,126 199,118 204,106 221,107 233,111 226,119" id="65293" class="commune" fill="steelblue" stroke-width="1" stroke="white" geotype="commune" geoname="Lustar" code_insee="65293" code_canton="6503"/><polygon points="92,135 74,131 70,133 69,128 68,118 82,116 84,122 102,126 98,131 92,132 92,135" id="65298" class="commune" fill="steelblue" stroke-width="1" stroke="white" geotype="commune" geoname="Marquerie" code_insee="65298" code_canton="6503"/><polygon points="72,96 76,90 73,82 81,80 86,73 89,78 96,76 95,71 101,74 96,78 102,78 101,91 84,96 72,96" id="65301" class="commune" fill="steelblue" stroke-width="1" stroke="white" geotype="commune" geoname="Marseillan" code_insee="65301" code_canton="6503"/><polygon points="176,37 169,43 146,48 145,42 140,39 148,35 143,24 161,23 172,19 177,28 174,35 176,37" id="65308" class="commune" fill="steelblue" stroke-width="1" stroke="white" geotype="commune" geoname="Mazerolles" code_insee="65308" code_canton="6503"/><polygon points="363,150 368,148 366,146 359,143 352,144 360,135 366,134 376,123 385,128 397,123 405,126 405,132 422,141 414,150 402,158 394,160 385,172 373,185 356,186 357,184 368,172 365,171 367,168 372,168 373,159 363,150" id="65315" class="commune" fill="steelblue" stroke-width="1" stroke="white" geotype="commune" geoname="Monléon-Magnoac" code_insee="65315" code_canton="6503"/><polygon points="356,186 356,197 347,205 338,204 337,201 336,197 340,188 316,189 321,178 319,173 342,171 345,173 344,182 357,184 356,186" id="65316" class="commune" fill="steelblue" stroke-width="1" stroke="white" geotype="commune" geoname="Monlong" code_insee="65316" code_canton="6503"/><polygon points="141,123 141,118 137,117 129,106 137,94 143,91 144,88 146,89 156,102 155,115 144,118 145,122 141,123" id="65326" class="commune" fill="steelblue" stroke-width="1" stroke="white" geotype="commune" geoname="Mun" code_insee="65326" code_canton="6503"/><polygon points="16,122 8,121 10,107 25,107 27,115 19,118 16,122" id="65332" class="commune" fill="steelblue" stroke-width="1" stroke="white" geotype="commune" geoname="Oléac-Debat" code_insee="65332" code_canton="6503"/><polygon points="337,107 349,104 352,100 361,105 361,109 347,119 338,118 337,107" id="65336" class="commune" fill="steelblue" stroke-width="1" stroke="white" geotype="commune" geoname="Organ" code_insee="65336" code_canton="6503"/><polygon points="141,64 145,69 151,69 152,73 150,80 146,89 144,88 143,91 137,94 119,79 121,75 130,75 141,64" id="65342" class="commune" fill="steelblue" stroke-width="1" stroke="white" geotype="commune" geoname="Osmets" code_insee="65342" code_canton="6503"/><polygon points="382,54 383,56 403,58 388,69 388,76 381,83 372,83 375,80 364,77 365,61 372,54 382,54" id="65358" class="commune" fill="steelblue" stroke-width="1" stroke="white" geotype="commune" geoname="Peyret-Saint-André" code_insee="65358" code_canton="6503"/><polygon points="111,125 111,122 131,126 141,125 141,123 145,122 148,137 149,142 145,147 138,149 132,148 138,140 136,136 129,133 118,133 120,128 111,125" id="65359" class="commune" fill="steelblue" stroke-width="1" stroke="white" geotype="commune" geoname="Peyriguère" code_insee="65359" code_canton="6503"/><polygon points="410,123 413,119 420,118 420,116 424,118 423,115 429,118 435,127 426,131 419,124 410,123" id="65368" class="commune" fill="steelblue" stroke-width="1" stroke="white" geotype="commune" geoname="Pouy" code_insee="65368" code_canton="6503"/><polygon points="25,107 29,108 30,105 57,97 65,118 68,118 69,128 63,133 55,135 32,133 26,136 27,115 25,107" id="65369" class="commune" fill="steelblue" stroke-width="1" stroke="white" geotype="commune" geoname="Pouyastruc" code_insee="65369" code_canton="6503"/><polygon points="348,92 339,99 334,99 332,95 321,93 296,91 300,81 300,81 312,83 324,75 331,76 338,62 339,68 353,77 347,81 350,86 348,92" id="65373" class="commune" fill="steelblue" stroke-width="1" stroke="white" geotype="commune" geoname="Puntous" code_insee="65373" code_canton="6503"/><polygon points="296,91 299,97 291,111 279,113 267,114 257,113 252,109 244,110 244,102 250,98 241,92 240,85 251,85 254,80 263,82 267,85 300,81 296,91" id="65374" class="commune" fill="steelblue" stroke-width="1" stroke="white" geotype="commune" geoname="Puydarrieux" code_insee="65374" code_canton="6503"/><polygon points="30,105 29,108 25,107 10,107 10,99 21,96 33,96 30,105" id="65380" class="commune" fill="steelblue" stroke-width="1" stroke="white" geotype="commune" geoname="Sabalos" code_insee="65380" code_canton="6503"/><polygon points="300,81 300,81 267,85 263,82 254,80 253,72 263,59 260,55 256,54 257,50 258,52 264,50 266,54 280,58 312,60 310,74 307,73 300,81" id="65383" class="commune" fill="steelblue" stroke-width="1" stroke="white" geotype="commune" geoname="Sadournin" code_insee="65383" code_canton="6503"/><polygon points="437,67 432,73 441,75 448,79 444,82 444,87 433,95 423,87 415,86 414,92 407,95 406,87 397,89 400,86 394,86 402,67 410,65 407,60 414,58 418,58 419,61 430,62 429,66 437,67" id="65404" class="commune" fill="steelblue" stroke-width="1" stroke="white" geotype="commune" geoname="Sariac-Magnoac" code_insee="65404" code_canton="6503"/><polygon points="175,121 170,130 176,142 171,142 171,138 148,137 145,122 144,118 155,115 160,118 170,116 175,121" id="65423" class="commune" fill="steelblue" stroke-width="1" stroke="white" geotype="commune" geoname="Sère-Rustaing" code_insee="65423" code_canton="6503"/><polygon points="50,68 52,76 19,80 15,74 39,72 50,68" id="65430" class="commune" fill="steelblue" stroke-width="1" stroke="white" geotype="commune" geoname="Soréac" code_insee="65430" code_canton="6503"/><polygon points="8,141 17,142 21,138 24,138 59,140 70,136 67,148 53,152 33,151 23,146 12,148 8,141" id="65436" class="commune" fill="steelblue" stroke-width="1" stroke="white" geotype="commune" geoname="Souyeaux" code_insee="65436" code_canton="6503"/><polygon points="465,73 472,76 500,85 499,93 481,98 480,106 457,105 457,97 443,94 450,87 444,87 444,82 448,79 441,75 444,70 447,76 458,79 465,73" id="65442" class="commune" fill="steelblue" stroke-width="1" stroke="white" geotype="commune" geoname="Thermes-Magnoac" code_insee="65442" code_canton="6503"/><polygon points="108,127 111,125 120,128 118,133 113,132 108,127" id="65443" class="commune" fill="steelblue" stroke-width="1" stroke="white" geotype="commune" geoname="Thuy" code_insee="65443" code_canton="6503"/><polygon points="233,111 221,107 204,106 202,102 209,98 218,93 226,95 236,94 240,85 241,92 250,98 244,102 244,110 235,108 233,111" id="65448" class="commune" fill="steelblue" stroke-width="1" stroke="white" geotype="commune" geoname="Tournous-Darré" code_insee="65448" code_canton="6503"/><polygon points="226,95 227,83 219,85 236,71 220,71 222,64 214,62 210,56 206,50 226,52 240,58 256,54 260,55 263,59 253,72 254,80 251,85 240,85 236,94 226,95" id="65452" class="commune" fill="steelblue" stroke-width="1" stroke="white" geotype="commune" geoname="Trie-sur-Baïse" code_insee="65452" code_canton="6503"/><polygon points="219,85 227,83 226,95 218,93 209,98 185,92 184,89 188,87 185,80 186,77 208,84 219,85" id="65461" class="commune" fill="steelblue" stroke-width="1" stroke="white" geotype="commune" geoname="Vidou" code_insee="65461" code_canton="6503"/><polygon points="305,124 308,125 313,120 333,124 334,130 331,137 325,142 322,141 323,136 307,141 299,138 302,133 299,131 305,124" id="65468" class="commune" fill="steelblue" stroke-width="1" stroke="white" geotype="commune" geoname="Vieuzos" code_insee="65468" code_canton="6503"/><polygon points="199,118 174,116 181,102 185,92 209,98 202,102 204,106 199,118" id="65474" class="commune" fill="steelblue" stroke-width="1" stroke="white" geotype="commune" geoname="Villembits" code_insee="65474" code_canton="6503"/><polygon points="442,127 444,132 442,132 432,133 426,143 417,149 414,150 422,141 405,132 405,126 410,123 419,124 426,131 435,127 442,127" id="65475" class="commune" fill="steelblue" stroke-width="1" stroke="white" geotype="commune" geoname="Villemur" code_insee="65475" code_canton="6503"/></svg>