<?xml version="1.0" encoding="utf-8"?>
<svg version="1.1" id="svgmap" xmlns="http://www.w3.org/2000/svg" xmlns:xlink="http://www.w3.org/1999/xlink" x="0px" y="0px" width="100%" height="100%" viewBox="0 0 356 500">
<polygon points="132,37 116,59 124,94 117,97 93,98 87,89 59,91 45,73 44,58 93,12 118,0 113,13 121,35 132,37" id="65002" class="commune" fill="steelblue" stroke-width="1" stroke="white" geotype="commune" geoname="Adé" code_insee="65002" code_canton="6506"/><polygon points="165,174 185,190 194,206 210,207 213,219 179,215 171,221 176,213 166,203 139,205 115,182 165,174" id="65011" class="commune" fill="steelblue" stroke-width="1" stroke="white" geotype="commune" geoname="Angles" code_insee="65011" code_canton="6506"/><polygon points="185,190 165,174 171,155 190,152 209,150 226,156 223,160 185,190" id="65020" class="commune" fill="steelblue" stroke-width="1" stroke="white" geotype="commune" geoname="Arcizac-ez-Angles" code_insee="65020" code_canton="6506"/><polygon points="210,207 229,203 234,191 241,192 254,201 251,209 269,217 272,227 295,235 299,249 288,269 245,245 213,219 210,207" id="65033" class="commune" fill="steelblue" stroke-width="1" stroke="white" geotype="commune" geoname="Arrodets-ez-Angles" code_insee="65033" code_canton="6506"/><polygon points="139,205 166,203 176,213 171,221 153,231 143,254 138,254 139,205" id="65038" class="commune" fill="steelblue" stroke-width="1" stroke="white" geotype="commune" geoname="Artigues" code_insee="65038" code_canton="6506"/><polygon points="81,269 91,271 98,278 87,295 96,294 109,306 89,320 112,351 106,357 20,329 31,317 49,316 42,309 55,305 54,289 81,269" id="65082" class="commune" fill="steelblue" stroke-width="1" stroke="white" geotype="commune" geoname="Berbérust-Lias" code_insee="65082" code_canton="6506"/><polygon points="140,137 159,133 157,137 169,135 167,143 177,139 190,152 171,155 136,151 140,137" id="65107" class="commune" fill="steelblue" stroke-width="1" stroke="white" geotype="commune" geoname="Bourréac" code_insee="65107" code_canton="6506"/><polygon points="187,257 245,245 288,269 251,273 202,278 198,286 169,290 177,277 196,273 187,257" id="65144" class="commune" fill="steelblue" stroke-width="1" stroke="white" geotype="commune" geoname="Cheust" code_insee="65144" code_canton="6506"/><polygon points="228,163 223,160 226,156 209,150 190,152 177,139 250,121 262,131 260,146 228,163" id="65164" class="commune" fill="steelblue" stroke-width="1" stroke="white" geotype="commune" geoname="Escoubès-Pouts" code_insee="65164" code_canton="6506"/><polygon points="151,314 168,291 198,322 229,326 232,336 260,341 286,358 284,365 321,401 323,442 312,456 287,463 269,460 259,466 246,493 234,500 188,479 150,472 154,454 109,392 114,379 106,357 112,351 147,327 143,315 151,314" id="65191" class="commune" fill="steelblue" stroke-width="1" stroke="white" geotype="commune" geoname="Gazost" code_insee="65191" code_canton="6506"/><polygon points="54,289 19,281 24,276 47,254 58,260 73,256 81,269 54,289" id="65197" class="commune" fill="steelblue" stroke-width="1" stroke="white" geotype="commune" geoname="Ger" code_insee="65197" code_canton="6506"/><polygon points="260,341 245,300 255,286 251,273 288,269 299,249 295,235 337,238 342,249 323,291 333,308 336,347 356,371 321,374 313,363 299,364 287,345 260,341" id="65200" class="commune" fill="steelblue" stroke-width="1" stroke="white" geotype="commune" geoname="Germs-sur-l'Oussouet" code_insee="65200" code_canton="6506"/><polygon points="54,289 55,305 42,309 49,316 31,317 20,329 11,329 3,323 0,299 19,281 54,289" id="65201" class="commune" fill="steelblue" stroke-width="1" stroke="white" geotype="commune" geoname="Geu" code_insee="65201" code_canton="6506"/><polygon points="223,160 228,163 241,192 234,191 229,203 210,207 194,206 185,190 223,160" id="65203" class="commune" fill="steelblue" stroke-width="1" stroke="white" geotype="commune" geoname="Gez-ez-Angles" code_insee="65203" code_canton="6506"/><polygon points="115,182 139,205 138,254 77,236 97,193 106,182 115,182" id="65233" class="commune" fill="steelblue" stroke-width="1" stroke="white" geotype="commune" geoname="Jarret" code_insee="65233" code_canton="6506"/><polygon points="140,137 109,137 93,98 117,97 125,104 134,91 180,88 198,82 194,91 196,95 207,104 203,122 165,118 160,121 169,127 159,133 140,137" id="65236" class="commune" fill="steelblue" stroke-width="1" stroke="white" geotype="commune" geoname="Julos" code_insee="65236" code_canton="6506"/><polygon points="168,291 151,314 151,309 142,284 131,283 111,266 137,263 143,254 163,250 187,257 196,273 177,277 169,290 168,291" id="65237" class="commune" fill="steelblue" stroke-width="1" stroke="white" geotype="commune" geoname="Juncalas" code_insee="65237" code_canton="6506"/><polygon points="241,192 228,163 260,146 262,131 284,134 281,158 295,177 273,223 269,217 251,209 254,201 241,192" id="65247" class="commune" fill="steelblue" stroke-width="1" stroke="white" geotype="commune" geoname="Arrayou-Lahitte" code_insee="65247" code_canton="6506"/><polygon points="109,137 140,137 136,151 171,155 165,174 115,182 109,137" id="65271" class="commune" fill="steelblue" stroke-width="1" stroke="white" geotype="commune" geoname="Lézignan" code_insee="65271" code_canton="6506"/><polygon points="47,254 48,242 54,234 67,240 73,256 58,260 47,254" id="65291" class="commune" fill="steelblue" stroke-width="1" stroke="white" geotype="commune" geoname="Lugagnan" code_insee="65291" code_canton="6506"/><polygon points="295,235 272,227 269,217 273,223 295,177 317,198 304,209 303,227 295,235" id="65345" class="commune" fill="steelblue" stroke-width="1" stroke="white" geotype="commune" geoname="Ossun-ez-Angles" code_insee="65345" code_canton="6506"/><polygon points="260,341 232,336 229,326 198,322 168,291 169,290 198,286 202,278 251,273 255,286 245,300 260,341" id="65348" class="commune" fill="steelblue" stroke-width="1" stroke="white" geotype="commune" geoname="Ourdis-Cotdoussan" code_insee="65348" code_canton="6506"/><polygon points="112,351 89,320 109,306 138,302 151,309 151,314 143,315 147,327 112,351" id="65349" class="commune" fill="steelblue" stroke-width="1" stroke="white" geotype="commune" geoname="Ourdon" code_insee="65349" code_canton="6506"/><polygon points="111,266 131,283 142,284 151,309 138,302 109,306 96,294 87,295 98,278 91,271 111,266" id="65351" class="commune" fill="steelblue" stroke-width="1" stroke="white" geotype="commune" geoname="Ousté" code_insee="65351" code_canton="6506"/><polygon points="196,95 226,98 234,118 250,121 177,139 167,143 169,135 157,137 159,133 169,127 160,121 165,118 203,122 207,104 196,95" id="65355" class="commune" fill="steelblue" stroke-width="1" stroke="white" geotype="commune" geoname="Paréac" code_insee="65355" code_canton="6506"/><polygon points="91,271 81,269 73,256 67,240 77,236 138,254 143,254 137,263 111,266 91,271" id="65386" class="commune" fill="steelblue" stroke-width="1" stroke="white" geotype="commune" geoname="Saint-Créac" code_insee="65386" code_canton="6506"/><polygon points="143,254 153,231 171,221 179,215 213,219 245,245 187,257 163,250 143,254" id="65421" class="commune" fill="steelblue" stroke-width="1" stroke="white" geotype="commune" geoname="Sère-Lanso" code_insee="65421" code_canton="6506"/></svg>