<?xml version="1.0" encoding="utf-8"?>
<svg version="1.1" id="svgmap" xmlns="http://www.w3.org/2000/svg" xmlns:xlink="http://www.w3.org/1999/xlink" x="0px" y="0px" width="100%" height="100%" viewBox="0 0 500 306">
<polygon points="371,205 411,210 420,212 412,227 409,223 392,220 384,219 383,211 371,205" id="67037" class="commune" fill="steelblue" stroke-width="1" stroke="white" geotype="commune" geoname="Biblisheim" code_insee="67037" code_canton="6713"/><polygon points="176,274 174,270 165,269 168,263 175,262 172,253 172,250 183,249 182,255 200,257 204,264 196,267 201,270 190,267 189,272 177,271 176,274" id="67048" class="commune" fill="steelblue" stroke-width="1" stroke="white" geotype="commune" geoname="Bitschhoffen" code_insee="67048" code_canton="6713"/><polygon points="260,59 275,68 247,78 240,95 236,95 244,97 228,112 219,106 209,108 205,104 191,102 170,105 161,102 142,105 142,101 135,99 137,95 166,69 160,59 182,43 213,32 236,30 249,38 241,40 238,52 243,56 257,55 260,59" id="67083" class="commune" fill="steelblue" stroke-width="1" stroke="white" geotype="commune" geoname="Dambach" code_insee="67083" code_canton="6713"/><polygon points="411,184 398,184 393,179 387,176 382,177 377,171 377,167 383,166 382,159 390,157 394,157 394,163 399,162 403,173 413,177 421,175 438,181 440,186 432,190 420,184 411,184" id="67093" class="commune" fill="steelblue" stroke-width="1" stroke="white" geotype="commune" geoname="Dieffenbach-lès-Wœrth" code_insee="67093" code_canton="6713"/><polygon points="341,219 346,201 352,197 353,200 365,201 371,205 383,211 384,219 392,220 385,230 367,224 359,229 348,228 346,231 341,219" id="67110" class="commune" fill="steelblue" stroke-width="1" stroke="white" geotype="commune" geoname="Durrenbach" code_insee="67110" code_canton="6713"/><polygon points="183,249 172,250 172,253 155,252 155,248 159,244 160,230 190,220 190,221 193,230 185,234 183,249" id="67123" class="commune" fill="steelblue" stroke-width="1" stroke="white" geotype="commune" geoname="Engwiller" code_insee="67123" code_canton="6713"/><polygon points="306,252 318,235 350,237 349,242 355,242 359,243 356,248 345,251 341,258 315,254 311,256 306,255 306,252" id="67132" class="commune" fill="steelblue" stroke-width="1" stroke="white" geotype="commune" geoname="Eschbach" code_insee="67132" code_canton="6713"/><polygon points="315,229 316,229 291,240 288,232 290,228 283,229 281,226 277,226 275,224 281,220 269,213 285,205 304,204 308,206 315,215 312,226 315,229" id="67141" class="commune" fill="steelblue" stroke-width="1" stroke="white" geotype="commune" geoname="Forstheim" code_insee="67141" code_canton="6713"/><polygon points="303,148 326,146 318,163 328,179 323,181 304,185 299,179 290,178 291,175 298,174 296,172 283,170 287,164 283,158 281,155 303,148" id="67147" class="commune" fill="steelblue" stroke-width="1" stroke="white" geotype="commune" geoname="Frœschwiller" code_insee="67147" code_canton="6713"/><polygon points="390,157 382,159 383,166 377,167 377,171 349,175 346,168 353,166 353,163 350,157 344,157 352,147 350,140 363,131 361,127 364,119 375,110 374,102 385,97 404,117 414,121 397,124 405,133 405,145 386,155 390,157" id="67160" class="commune" fill="steelblue" stroke-width="1" stroke="white" geotype="commune" geoname="Gœrsdorf" code_insee="67160" code_canton="6713"/><polygon points="204,207 211,215 198,212 190,220 160,230 151,225 158,206 177,205 178,203 172,202 174,194 187,189 192,191 204,207" id="67174" class="commune" fill="steelblue" stroke-width="1" stroke="white" geotype="commune" geoname="Gumbrechtshoffen" code_insee="67174" code_canton="6713"/><polygon points="211,215 204,207 218,202 217,199 225,200 222,195 227,193 246,191 273,182 274,170 283,163 283,158 287,164 283,170 296,172 298,174 291,175 290,178 299,179 304,185 308,206 304,204 285,205 269,213 281,220 275,224 277,226 270,232 240,241 240,236 233,234 224,222 216,221 211,215" id="67176" class="commune" fill="steelblue" stroke-width="1" stroke="white" geotype="commune" geoname="Gundershoffen" code_insee="67176" code_canton="6713"/><polygon points="411,210 371,205 365,201 353,200 352,197 349,192 351,185 369,186 383,182 398,184 411,184 411,210" id="67177" class="commune" fill="steelblue" stroke-width="1" stroke="white" geotype="commune" geoname="Gunstett" code_insee="67177" code_canton="6713"/><polygon points="346,231 350,237 318,235 316,229 315,229 341,219 346,231" id="67186" class="commune" fill="steelblue" stroke-width="1" stroke="white" geotype="commune" geoname="Hegeney" code_insee="67186" code_canton="6713"/><polygon points="125,277 117,272 117,265 130,262 129,255 138,250 155,248 155,252 172,253 175,262 168,263 165,269 166,275 157,280 125,277" id="67238" class="commune" fill="steelblue" stroke-width="1" stroke="white" geotype="commune" geoname="Kindwiller" code_insee="67238" code_canton="6713"/><polygon points="451,159 455,156 453,150 463,147 458,136 463,134 467,143 486,147 487,155 495,155 500,168 487,179 492,181 487,182 486,188 475,185 466,189 457,175 461,173 458,162 451,159" id="67254" class="commune" fill="steelblue" stroke-width="1" stroke="white" geotype="commune" geoname="Kutzenhausen" code_insee="67254" code_canton="6713"/><polygon points="469,97 440,119 441,125 458,136 463,147 453,150 455,156 451,159 447,162 444,160 439,151 433,153 427,147 418,148 424,140 416,132 417,119 408,117 403,109 432,97 465,91 469,97" id="67257" class="commune" fill="steelblue" stroke-width="1" stroke="white" geotype="commune" geoname="Lampertsloch" code_insee="67257" code_canton="6713"/><polygon points="326,146 303,148 297,135 284,124 313,104 305,99 308,95 298,85 304,83 307,78 318,78 330,100 343,102 347,112 361,127 326,146" id="67259" class="commune" fill="steelblue" stroke-width="1" stroke="white" geotype="commune" geoname="Langensoultzbach" code_insee="67259" code_canton="6713"/><polygon points="291,240 316,229 318,235 306,252 295,250 291,240" id="67260" class="commune" fill="steelblue" stroke-width="1" stroke="white" geotype="commune" geoname="Laubach" code_insee="67260" code_canton="6713"/><polygon points="361,127 361,127 347,112 343,102 330,100 318,78 307,78 304,83 298,85 292,76 275,68 260,59 265,59 306,54 316,55 327,48 318,39 323,28 348,23 356,26 367,25 383,10 389,20 397,21 399,30 393,38 396,48 407,46 405,55 409,58 417,54 418,66 421,62 421,66 426,66 441,60 456,59 462,64 457,68 461,75 455,83 463,86 465,91 432,97 403,109 408,117 417,119 414,121 404,117 385,97 374,102 375,110 364,119 361,127" id="67263" class="commune" fill="steelblue" stroke-width="1" stroke="white" geotype="commune" geoname="Lembach" code_insee="67263" code_canton="6713"/><polygon points="486,147 467,143 463,134 458,136 441,125 440,119 445,119 446,123 462,124 468,128 470,123 475,128 482,125 486,129 481,136 486,147" id="67271" class="commune" fill="steelblue" stroke-width="1" stroke="white" geotype="commune" geoname="Lobsann" code_insee="67271" code_canton="6713"/><polygon points="444,160 447,162 451,159 458,162 461,173 457,175 466,189 448,194 432,190 440,186 438,181 431,170 444,160" id="67290" class="commune" fill="steelblue" stroke-width="1" stroke="white" geotype="commune" geoname="Merkwiller-Pechelbronn" code_insee="67290" code_canton="6713"/><polygon points="277,226 281,226 283,229 290,228 288,232 266,234 261,239 269,246 276,241 282,243 285,239 290,239 289,246 271,252 275,254 273,258 288,268 286,271 276,269 280,275 277,277 269,280 246,272 248,265 240,260 248,258 238,249 240,241 270,232 277,226" id="67291" class="commune" fill="steelblue" stroke-width="1" stroke="white" geotype="commune" geoname="Mertzwiller" code_insee="67291" code_canton="6713"/><polygon points="204,264 200,257 182,255 183,249 185,234 193,230 190,221 208,225 215,232 233,234 240,236 240,241 238,249 248,258 240,260 204,264" id="67292" class="commune" fill="steelblue" stroke-width="1" stroke="white" geotype="commune" geoname="Mietesheim" code_insee="67292" code_canton="6713"/><polygon points="304,185 323,181 343,185 342,192 349,192 352,197 346,201 341,219 315,229 312,226 315,215 308,206 304,185" id="67303" class="commune" fill="steelblue" stroke-width="1" stroke="white" geotype="commune" geoname="Morsbronn-les-Bains" code_insee="67303" code_canton="6713"/><polygon points="131,129 125,126 142,105 161,102 170,105 191,102 205,104 209,108 219,106 228,112 244,97 259,105 261,116 276,128 281,132 267,139 266,133 264,133 264,144 243,142 243,149 235,150 236,154 218,165 208,164 205,167 215,173 217,183 204,187 205,190 192,191 198,187 193,185 199,180 187,174 185,165 190,161 186,144 171,148 151,140 149,132 131,129" id="67324" class="commune" fill="steelblue" stroke-width="1" stroke="white" geotype="commune" geoname="Niederbronn-les-Bains" code_insee="67324" code_canton="6713"/><polygon points="225,284 231,282 229,292 209,297 205,302 200,302 201,306 178,299 170,296 177,281 187,284 200,282 214,286 225,284" id="67328" class="commune" fill="steelblue" stroke-width="1" stroke="white" geotype="commune" geoname="Niedermodern" code_insee="67328" code_canton="6713"/><polygon points="323,28 318,39 327,48 316,55 306,54 265,59 288,49 292,44 278,40 278,20 272,15 276,10 289,12 293,17 305,15 310,19 323,13 323,28" id="67334" class="commune" fill="steelblue" stroke-width="1" stroke="white" geotype="commune" geoname="Niedersteinbach" code_insee="67334" code_canton="6713"/><polygon points="192,191 192,191 187,189 174,194 172,202 166,202 142,191 146,188 142,186 136,188 123,184 122,180 113,178 99,171 97,168 90,166 93,163 90,160 111,144 123,141 126,135 131,129 149,132 151,140 171,148 186,144 190,161 185,165 187,174 199,180 193,185 198,187 192,191" id="67340" class="commune" fill="steelblue" stroke-width="1" stroke="white" geotype="commune" geoname="Oberbronn" code_insee="67340" code_canton="6713"/><polygon points="349,175 377,171 382,177 387,176 393,179 398,184 383,182 369,186 351,185 349,175" id="67341" class="commune" fill="steelblue" stroke-width="1" stroke="white" geotype="commune" geoname="Oberdorf-Spachbach" code_insee="67341" code_canton="6713"/><polygon points="182,43 202,21 195,15 249,27 257,21 278,20 278,40 292,44 288,49 265,59 260,59 257,55 243,56 238,52 241,40 249,38 236,30 213,32 182,43" id="67353" class="commune" fill="steelblue" stroke-width="1" stroke="white" geotype="commune" geoname="Obersteinbach" code_insee="67353" code_canton="6713"/><polygon points="122,222 110,226 108,223 101,224 95,217 91,219 79,224 71,217 67,203 55,201 38,183 23,174 39,158 47,162 56,157 68,172 97,168 99,171 85,185 104,194 120,196 124,212 128,218 122,222" id="67358" class="commune" fill="steelblue" stroke-width="1" stroke="white" geotype="commune" geoname="Offwiller" code_insee="67358" code_canton="6713"/><polygon points="174,281 177,281 170,296 149,299 144,304 141,301 135,301 136,286 127,282 125,277 157,280 165,284 174,281" id="67372" class="commune" fill="steelblue" stroke-width="1" stroke="white" geotype="commune" geoname="Pfaffenhoffen" code_insee="67372" code_canton="6713"/><polygon points="390,157 386,155 405,145 405,133 397,124 414,121 417,119 416,132 424,140 418,148 427,147 433,153 439,151 444,160 431,170 438,181 421,175 413,177 403,173 399,162 394,163 394,157 390,157" id="67379" class="commune" fill="steelblue" stroke-width="1" stroke="white" geotype="commune" geoname="Preuschdorf" code_insee="67379" code_canton="6713"/><polygon points="284,124 297,135 303,148 281,155 283,158 283,163 274,170 273,182 246,191 227,193 222,195 225,200 217,199 218,202 204,207 192,191 192,191 205,190 204,187 217,183 215,173 205,167 208,164 218,165 236,154 235,150 243,149 243,142 264,144 264,133 266,133 267,139 281,132 276,128 281,122 284,124" id="67388" class="commune" fill="steelblue" stroke-width="1" stroke="white" geotype="commune" geoname="Reichshoffen" code_insee="67388" code_canton="6713"/><polygon points="71,217 37,225 30,220 18,224 8,222 0,216 5,210 27,203 9,199 16,192 38,183 55,201 67,203 71,217" id="67415" class="commune" fill="steelblue" stroke-width="1" stroke="white" geotype="commune" geoname="Rothbach" code_insee="67415" code_canton="6713"/><polygon points="177,281 174,281 176,274 177,271 189,272 190,267 201,270 206,276 205,281 217,285 225,284 214,286 200,282 187,284 177,281" id="67496" class="commune" fill="steelblue" stroke-width="1" stroke="white" geotype="commune" geoname="Uberach" code_insee="67496" code_canton="6713"/><polygon points="122,222 128,218 124,212 150,211 158,206 151,225 160,230 159,244 155,248 138,250 129,255 130,262 117,265 100,259 90,260 81,251 81,245 109,240 123,228 122,222" id="67498" class="commune" fill="steelblue" stroke-width="1" stroke="white" geotype="commune" geoname="Uhrwiller" code_insee="67498" code_canton="6713"/><polygon points="190,221 190,220 198,212 211,215 216,221 224,222 233,234 215,232 208,225 190,221" id="67502" class="commune" fill="steelblue" stroke-width="1" stroke="white" geotype="commune" geoname="Uttenhoffen" code_insee="67502" code_canton="6713"/><polygon points="350,237 346,231 348,228 359,229 367,224 385,230 392,220 409,223 412,227 432,232 427,243 418,244 416,248 411,246 409,242 405,240 397,242 380,236 355,242 349,242 350,237" id="67511" class="commune" fill="steelblue" stroke-width="1" stroke="white" geotype="commune" geoname="Walbourg" code_insee="67511" code_canton="6713"/><polygon points="157,280 166,275 165,269 174,270 176,274 174,281 165,284 157,280" id="67512" class="commune" fill="steelblue" stroke-width="1" stroke="white" geotype="commune" geoname="Walck" code_insee="67512" code_canton="6713"/><polygon points="244,97 236,95 240,95 247,78 275,68 292,76 298,85 308,95 305,99 313,104 284,124 281,122 276,128 261,116 259,105 244,97" id="67536" class="commune" fill="steelblue" stroke-width="1" stroke="white" geotype="commune" geoname="Windstein" code_insee="67536" code_canton="6713"/><polygon points="482,39 465,47 456,59 441,60 426,66 421,66 421,62 418,66 417,54 409,58 405,55 407,46 396,48 393,38 399,30 397,21 389,20 383,10 396,10 404,0 423,5 427,11 445,17 450,24 465,26 469,29 475,28 482,39" id="67537" class="commune" fill="steelblue" stroke-width="1" stroke="white" geotype="commune" geoname="Wingen" code_insee="67537" code_canton="6713"/><polygon points="326,146 361,127 361,127 363,131 350,140 352,147 344,157 350,157 353,163 353,166 346,168 349,175 351,185 349,192 342,192 343,185 323,181 328,179 318,163 326,146" id="67550" class="commune" fill="steelblue" stroke-width="1" stroke="white" geotype="commune" geoname="Wœrth" code_insee="67550" code_canton="6713"/><polygon points="172,202 178,203 177,205 158,206 150,211 124,212 120,196 104,194 85,185 99,171 113,178 122,180 123,184 136,188 142,186 146,188 142,191 166,202 172,202" id="67558" class="commune" fill="steelblue" stroke-width="1" stroke="white" geotype="commune" geoname="Zinswiller" code_insee="67558" code_canton="6713"/></svg>