<?xml version="1.0" encoding="utf-8"?>
<svg version="1.1" id="svgmap" xmlns="http://www.w3.org/2000/svg" xmlns:xlink="http://www.w3.org/1999/xlink" x="0px" y="0px" width="100%" height="100%" viewBox="0 0 500 203">
<polygon points="496,51 476,54 474,58 466,58 459,54 447,42 433,42 436,32 411,22 375,50 395,59 377,65 364,49 325,70 301,50 337,30 348,38 398,8 389,4 410,0 429,1 443,34 453,18 484,29 496,51" id="67043" class="commune" fill="steelblue" stroke-width="1" stroke="white" geotype="commune" geoname="Bischheim" code_insee="67043" code_canton="6715"/><polygon points="327,112 322,123 320,141 309,150 300,148 293,154 278,144 265,140 263,143 244,139 244,136 218,134 218,130 200,132 185,131 184,129 157,133 155,127 132,130 133,125 123,126 122,123 83,115 82,96 310,99 307,103 320,105 327,112" id="67043" class="commune" fill="steelblue" stroke-width="1" stroke="white" geotype="commune" geoname="Bischheim" code_insee="67043" code_canton="6715"/><polygon points="261,54 270,39 276,39 281,51 261,62 261,54" id="67447" class="commune" fill="steelblue" stroke-width="1" stroke="white" geotype="commune" geoname="Schiltigheim" code_insee="67447" code_canton="6715"/><polygon points="320,105 307,103 310,99 320,105" id="67447" class="commune" fill="steelblue" stroke-width="1" stroke="white" geotype="commune" geoname="Schiltigheim" code_insee="67447" code_canton="6715"/><polygon points="37,174 22,165 28,156 0,144 5,144 4,128 10,128 8,120 3,119 5,114 25,120 28,117 33,119 41,118 71,124 75,115 83,115 122,123 123,126 133,125 132,130 155,127 157,133 184,129 185,131 200,132 218,130 218,134 244,136 244,139 263,143 265,140 278,144 293,154 300,148 309,150 320,141 322,123 327,112 338,84 377,65 395,59 375,50 411,22 436,32 433,42 447,42 459,54 466,58 474,58 476,54 496,51 500,62 484,67 464,63 440,54 423,57 409,76 413,99 403,106 387,109 352,100 344,103 324,124 325,130 338,145 336,155 315,167 313,179 310,181 290,184 271,183 262,188 263,195 234,197 228,201 187,203 155,187 145,185 140,188 112,181 113,179 104,179 101,171 103,168 98,163 95,164 95,162 85,166 83,161 63,169 54,165 45,173 42,171 37,174" id="67447" class="commune" fill="steelblue" stroke-width="1" stroke="white" geotype="commune" geoname="Schiltigheim" code_insee="67447" code_canton="6715"/></svg>