<?xml version="1.0" encoding="utf-8"?>
<svg version="1.1" id="svgmap" xmlns="http://www.w3.org/2000/svg" xmlns:xlink="http://www.w3.org/1999/xlink" x="0px" y="0px" width="100%" height="100%" viewBox="0 0 470 500">
<polygon points="185,209 228,214 237,211 233,202 253,206 250,211 296,235 304,253 318,268 330,314 296,295 265,295 248,288 244,293 181,287 175,273 176,259 164,243 171,239 182,246 185,209" id="68007" class="commune" fill="steelblue" stroke-width="1" stroke="white" geotype="commune" geoname="Andolsheim" code_insee="68007" code_canton="6805"/><polygon points="233,202 237,211 228,214 185,209 195,190 223,179 191,164 197,151 211,151 208,155 273,149 252,157 251,169 233,202" id="68038" class="commune" fill="steelblue" stroke-width="1" stroke="white" geotype="commune" geoname="Bischwihr" code_insee="68038" code_canton="6805"/><polygon points="327,222 308,235 304,253 296,235 250,211 253,206 233,202 251,169 293,168 295,179 303,176 300,186 328,194 327,222" id="68095" class="commune" fill="steelblue" stroke-width="1" stroke="white" geotype="commune" geoname="Fortschwihr" code_insee="68095" code_canton="6805"/><polygon points="457,72 439,74 376,62 326,45 330,9 317,4 331,7 333,0 349,2 347,9 470,29 457,72" id="68110" class="commune" fill="steelblue" stroke-width="1" stroke="white" geotype="commune" geoname="Grussenheim" code_insee="68110" code_canton="6805"/><polygon points="211,151 197,151 191,164 181,162 171,143 139,145 137,136 143,127 150,128 154,122 147,121 182,73 216,75 214,92 232,93 251,104 248,117 211,151" id="68143" class="commune" fill="steelblue" stroke-width="1" stroke="white" geotype="commune" geoname="Holtzwihr" code_insee="68143" code_canton="6805"/><polygon points="185,209 182,246 171,239 164,243 176,259 175,273 145,275 129,254 111,248 104,205 116,199 112,191 119,197 139,177 129,177 139,145 171,143 181,162 191,164 223,179 195,190 185,209" id="68145" class="commune" fill="steelblue" stroke-width="1" stroke="white" geotype="commune" geoname="Horbourg-Wihr" code_insee="68145" code_canton="6805"/><polygon points="59,80 89,10 120,17 104,54 123,56 118,87 82,120 10,116 5,95 37,93 38,82 59,80" id="68146" class="commune" fill="steelblue" stroke-width="1" stroke="white" geotype="commune" geoname="Houssen" code_insee="68146" code_canton="6805"/><polygon points="457,72 465,86 444,106 447,129 401,142 297,131 286,135 268,105 281,79 297,72 326,45 376,62 439,74 457,72" id="68157" class="commune" fill="steelblue" stroke-width="1" stroke="white" geotype="commune" geoname="Jebsheim" code_insee="68157" code_canton="6805"/><polygon points="251,169 252,157 273,149 286,135 297,131 401,142 388,183 340,182 336,196 328,194 300,186 303,176 295,179 293,168 251,169" id="68227" class="commune" fill="steelblue" stroke-width="1" stroke="white" geotype="commune" geoname="Muntzenheim" code_insee="68227" code_canton="6805"/><polygon points="216,75 239,46 243,54 278,61 275,66 297,72 281,79 268,105 251,104 232,93 214,92 216,75" id="68272" class="commune" fill="steelblue" stroke-width="1" stroke="white" geotype="commune" geoname="Riedwihr" code_insee="68272" code_canton="6805"/><polygon points="0,385 18,372 17,357 4,357 13,326 19,316 43,322 69,319 72,330 111,342 130,345 132,338 170,348 166,372 145,382 151,403 164,401 164,395 212,403 209,414 225,416 230,432 317,450 287,499 278,500 278,488 215,462 185,464 188,451 157,439 133,438 130,447 117,440 92,439 94,446 73,447 32,432 41,416 0,385" id="68295" class="commune" fill="steelblue" stroke-width="1" stroke="white" geotype="commune" geoname="Sainte-Croix-en-Plaine" code_insee="68295" code_canton="6805"/><polygon points="335,341 271,324 270,332 258,330 255,338 244,338 240,349 227,345 177,342 170,348 132,338 130,345 111,342 72,330 69,319 84,311 99,316 147,295 145,275 175,273 181,287 244,293 248,288 265,295 296,295 330,314 338,326 335,341" id="68331" class="commune" fill="steelblue" stroke-width="1" stroke="white" geotype="commune" geoname="Sundhoffen" code_insee="68331" code_canton="6805"/><polygon points="273,149 208,155 211,151 248,117 251,104 268,105 286,135 273,149" id="68366" class="commune" fill="steelblue" stroke-width="1" stroke="white" geotype="commune" geoname="Wickerschwihr" code_insee="68366" code_canton="6805"/></svg>