<?xml version="1.0" encoding="utf-8"?>
<svg version="1.1" id="svgmap" xmlns="http://www.w3.org/2000/svg" xmlns:xlink="http://www.w3.org/1999/xlink" x="0px" y="0px" width="100%" height="100%" viewBox="0 0 500 460">
<polygon points="343,303 371,298 377,316 366,314 359,317 354,316 335,325 334,335 315,340 312,338 311,328 302,324 309,319 315,322 331,314 346,304 343,303" id="68002" class="commune" fill="steelblue" stroke-width="1" stroke="white" geotype="commune" geoname="Altenach" code_insee="68002" code_canton="6809"/><polygon points="434,210 431,213 425,211 414,213 406,204 401,205 397,199 404,197 404,194 410,189 419,191 437,203 434,210" id="68006" class="commune" fill="steelblue" stroke-width="1" stroke="white" geotype="commune" geoname="Ammerzwiller" code_insee="68006" code_canton="6809"/><polygon points="377,316 371,298 385,283 389,274 427,269 435,285 426,291 428,297 416,300 418,307 401,320 378,319 377,316" id="68017" class="commune" fill="steelblue" stroke-width="1" stroke="white" geotype="commune" geoname="Ballersdorf" code_insee="68017" code_canton="6809"/><polygon points="412,247 383,242 368,232 378,227 384,229 381,223 389,217 386,215 391,212 400,209 401,205 406,204 414,213 425,211 431,213 434,210 448,215 443,230 440,228 438,234 423,238 415,245 412,247" id="68018" class="commune" fill="steelblue" stroke-width="1" stroke="white" geotype="commune" geoname="Balschwiller" code_insee="68018" code_canton="6809"/><polygon points="248,202 251,202 272,201 272,197 276,196 290,205 294,200 301,199 304,208 292,211 290,208 251,208 248,202" id="68024" class="commune" fill="steelblue" stroke-width="1" stroke="white" geotype="commune" geoname="Bellemagny" code_insee="68024" code_canton="6809"/><polygon points="457,216 448,215 434,210 437,203 419,191 425,176 434,176 441,162 443,170 452,171 454,177 463,182 459,191 473,199 457,216" id="68031" class="commune" fill="steelblue" stroke-width="1" stroke="white" geotype="commune" geoname="Bernwiller" code_insee="68031" code_canton="6809"/><polygon points="281,245 272,256 270,257 252,256 246,242 259,232 261,229 255,227 284,220 297,219 301,223 308,232 286,238 281,245" id="68050" class="commune" fill="steelblue" stroke-width="1" stroke="white" geotype="commune" geoname="Bréchaumont" code_insee="68050" code_canton="6809"/><polygon points="301,199 294,200 290,205 276,196 272,192 275,187 266,179 262,166 289,173 299,185 304,191 301,199" id="68052" class="commune" fill="steelblue" stroke-width="1" stroke="white" geotype="commune" geoname="Bretten" code_insee="68052" code_canton="6809"/><polygon points="361,223 365,226 360,228 368,232 383,242 412,247 383,255 376,257 367,249 362,251 358,245 356,239 359,237 354,233 353,230 361,223" id="68057" class="commune" fill="steelblue" stroke-width="1" stroke="white" geotype="commune" geoname="Buethwiller" code_insee="68057" code_canton="6809"/><polygon points="419,191 410,189 404,194 389,183 379,185 368,184 359,189 349,179 349,169 354,164 362,163 387,168 391,163 402,161 409,145 429,156 444,154 441,162 434,176 425,176 419,191" id="68059" class="commune" fill="steelblue" stroke-width="1" stroke="white" geotype="commune" geoname="Burnhaupt-le-Bas" code_insee="68059" code_canton="6809"/><polygon points="363,127 390,133 409,145 402,161 391,163 387,168 362,163 354,164 349,169 322,158 327,154 322,150 325,142 361,131 363,127" id="68060" class="commune" fill="steelblue" stroke-width="1" stroke="white" geotype="commune" geoname="Burnhaupt-le-Haut" code_insee="68060" code_canton="6809"/><polygon points="252,256 270,257 274,261 271,269 255,275 241,284 233,284 232,288 218,290 215,281 223,286 217,277 221,278 223,274 218,270 226,267 223,262 227,255 252,256" id="68065" class="commune" fill="steelblue" stroke-width="1" stroke="white" geotype="commune" geoname="Chavannes-sur-l'Étang" code_insee="68065" code_canton="6809"/><polygon points="371,298 343,303 337,286 341,278 352,273 385,283 371,298" id="68068" class="commune" fill="steelblue" stroke-width="1" stroke="white" geotype="commune" geoname="Dannemarie" code_insee="68068" code_canton="6809"/><polygon points="348,180 358,191 332,193 299,185 321,179 328,173 348,180" id="68071" class="commune" fill="steelblue" stroke-width="1" stroke="white" geotype="commune" geoname="Diefmatten" code_insee="68071" code_canton="6809"/><polygon points="85,93 77,95 64,92 72,83 69,80 70,69 78,69 94,62 96,58 102,58 101,50 95,44 115,46 134,61 120,71 110,85 88,84 85,93" id="68073" class="commune" fill="steelblue" stroke-width="1" stroke="white" geotype="commune" geoname="Dolleren" code_insee="68073" code_canton="6809"/><polygon points="415,245 423,238 438,234 440,228 443,230 453,254 443,264 438,257 431,264 415,245" id="68077" class="commune" fill="steelblue" stroke-width="1" stroke="white" geotype="commune" geoname="Eglingen" code_insee="68077" code_canton="6809"/><polygon points="291,277 271,269 274,261 270,257 272,256 308,260 314,269 310,274 291,277" id="68079" class="commune" fill="steelblue" stroke-width="1" stroke="white" geotype="commune" geoname="Elbach" code_insee="68079" code_canton="6809"/><polygon points="237,186 250,165 261,163 262,166 266,179 275,187 272,192 276,196 272,197 272,201 251,202 244,199 245,193 236,191 237,186" id="68085" class="commune" fill="steelblue" stroke-width="1" stroke="white" geotype="commune" geoname="Eteimbes" code_insee="68085" code_canton="6809"/><polygon points="368,232 360,228 365,226 361,223 336,215 336,212 336,211 368,206 377,217 387,209 391,212 386,215 389,217 381,223 384,229 378,227 368,232" id="68086" class="commune" fill="steelblue" stroke-width="1" stroke="white" geotype="commune" geoname="Falkwiller" code_insee="68086" code_canton="6809"/><polygon points="354,387 356,380 373,374 387,360 387,356 396,350 423,346 428,352 433,364 426,373 399,373 370,396 354,387" id="68098" class="commune" fill="steelblue" stroke-width="1" stroke="white" geotype="commune" geoname="Friesen" code_insee="68098" code_canton="6809"/><polygon points="438,325 446,329 439,333 419,336 401,343 388,343 385,336 377,335 371,327 378,319 401,320 410,329 438,325" id="68100" class="commune" fill="steelblue" stroke-width="1" stroke="white" geotype="commune" geoname="Fulleren" code_insee="68100" code_canton="6809"/><polygon points="348,180 349,179 359,189 368,184 379,185 389,183 404,194 404,197 397,199 401,205 400,209 391,212 387,209 377,217 368,206 358,191 348,180" id="68105" class="commune" fill="steelblue" stroke-width="1" stroke="white" geotype="commune" geoname="Gildwiller" code_insee="68105" code_canton="6809"/><polygon points="389,274 385,283 352,273 355,257 362,251 367,249 376,257 383,255 383,267 389,274" id="68107" class="commune" fill="steelblue" stroke-width="1" stroke="white" geotype="commune" geoname="Gommersdorf" code_insee="68107" code_canton="6809"/><polygon points="336,211 336,212 301,223 297,219 284,220 283,218 294,215 292,211 304,208 334,209 336,211" id="68114" class="commune" fill="steelblue" stroke-width="1" stroke="white" geotype="commune" geoname="Guevenatten" code_insee="68114" code_canton="6809"/><polygon points="322,150 308,149 300,143 303,136 287,134 293,114 304,111 319,113 362,127 363,127 361,131 325,142 322,150" id="68115" class="commune" fill="steelblue" stroke-width="1" stroke="white" geotype="commune" geoname="Guewenheim" code_insee="68115" code_canton="6809"/><polygon points="427,269 389,274 383,267 383,255 412,247 415,245 431,264 438,257 443,264 427,269" id="68119" class="commune" fill="steelblue" stroke-width="1" stroke="white" geotype="commune" geoname="Hagenbach" code_insee="68119" code_canton="6809"/><polygon points="336,211 334,209 331,203 342,202 332,193 358,191 368,206 336,211" id="68125" class="commune" fill="steelblue" stroke-width="1" stroke="white" geotype="commune" geoname="Hecken" code_insee="68125" code_canton="6809"/><polygon points="428,352 423,346 396,350 387,356 387,360 373,374 356,380 354,387 337,381 339,373 355,363 361,355 374,345 384,346 388,343 401,343 419,336 439,333 439,348 428,352" id="68137" class="commune" fill="steelblue" stroke-width="1" stroke="white" geotype="commune" geoname="Hindlingen" code_insee="68137" code_canton="6809"/><polygon points="103,100 91,93 85,93 88,84 110,85 120,71 134,61 151,67 153,72 166,69 163,79 152,84 138,85 128,96 111,96 103,100" id="68167" class="commune" fill="steelblue" stroke-width="1" stroke="white" geotype="commune" geoname="Kirchberg" code_insee="68167" code_canton="6809"/><polygon points="471,377 462,380 464,383 453,387 426,377 426,373 433,364 428,352 439,348 450,353 451,360 467,363 467,367 471,377" id="68176" class="commune" fill="steelblue" stroke-width="1" stroke="white" geotype="commune" geoname="Largitzen" code_insee="68176" code_canton="6809"/><polygon points="231,133 218,120 210,121 202,119 210,112 211,106 223,104 236,92 248,104 240,129 231,133" id="68179" class="commune" fill="steelblue" stroke-width="1" stroke="white" geotype="commune" geoname="Lauw" code_insee="68179" code_canton="6809"/><polygon points="271,269 291,277 290,285 298,288 298,295 295,298 285,296 266,300 256,294 247,293 248,288 257,286 255,275 271,269" id="68192" class="commune" fill="steelblue" stroke-width="1" stroke="white" geotype="commune" geoname="Valdieu-Lutran" code_insee="68192" code_canton="6809"/><polygon points="247,293 256,294 266,300 266,306 272,306 278,312 282,311 282,315 297,313 297,321 292,324 293,319 286,318 273,322 253,318 246,327 235,329 231,322 246,317 251,303 250,299 239,298 247,293" id="68196" class="commune" fill="steelblue" stroke-width="1" stroke="white" geotype="commune" geoname="Magny" code_insee="68196" code_canton="6809"/><polygon points="303,297 308,292 337,286 343,303 346,304 331,314 315,322 309,319 302,324 297,321 304,312 301,305 304,302 299,299 303,297" id="68200" class="commune" fill="steelblue" stroke-width="1" stroke="white" geotype="commune" geoname="Manspach" code_insee="68200" code_canton="6809"/><polygon points="105,103 103,100 111,96 128,96 136,108 152,103 155,96 163,97 176,93 192,91 190,86 197,78 209,78 216,70 211,65 201,65 196,65 199,73 185,70 190,61 188,57 188,47 207,44 214,38 224,37 236,40 241,48 234,54 224,48 222,56 214,63 218,70 234,79 236,92 223,104 211,106 210,112 202,119 210,121 218,120 231,133 222,137 218,140 201,134 179,127 167,127 141,110 130,108 126,101 105,103" id="68201" class="commune" fill="steelblue" stroke-width="1" stroke="white" geotype="commune" geoname="Masevaux" code_insee="68201" code_canton="6809"/><polygon points="371,327 377,335 385,336 388,343 384,346 374,345 362,335 341,343 340,337 366,326 371,327" id="68202" class="commune" fill="steelblue" stroke-width="1" stroke="white" geotype="commune" geoname="Mertzen" code_insee="68202" code_canton="6809"/><polygon points="239,298 250,299 251,303 246,317 231,322 235,329 234,334 227,334 222,330 229,328 227,325 218,319 214,320 209,317 216,313 217,310 231,308 239,298" id="68214" class="commune" fill="steelblue" stroke-width="1" stroke="white" geotype="commune" geoname="Montreux-Jeune" code_insee="68214" code_canton="6809"/><polygon points="215,281 218,290 232,288 233,284 241,284 255,275 257,286 248,288 247,293 239,298 231,308 217,310 216,313 212,312 209,295 213,293 211,286 210,283 215,281" id="68215" class="commune" fill="steelblue" stroke-width="1" stroke="white" geotype="commune" geoname="Montreux-Vieux" code_insee="68215" code_canton="6809"/><polygon points="466,418 475,420 491,414 488,424 493,428 490,430 500,437 495,438 492,436 486,447 459,453 452,428 466,418" id="68216" class="commune" fill="steelblue" stroke-width="1" stroke="white" geotype="commune" geoname="Mooslargue" code_insee="68216" code_canton="6809"/><polygon points="231,133 240,129 272,140 263,150 244,159 244,159 228,148 222,137 231,133" id="68219" class="commune" fill="steelblue" stroke-width="1" stroke="white" geotype="commune" geoname="Mortzwiller" code_insee="68219" code_canton="6809"/><polygon points="163,79 176,93 163,97 155,96 152,103 136,108 128,96 138,85 152,84 163,79" id="68233" class="commune" fill="steelblue" stroke-width="1" stroke="white" geotype="commune" geoname="Niederbruck" code_insee="68233" code_canton="6809"/><polygon points="95,44 72,37 69,23 71,21 83,24 102,39 131,44 145,41 145,47 134,61 115,46 95,44" id="68239" class="commune" fill="steelblue" stroke-width="1" stroke="white" geotype="commune" geoname="Oberbruck" code_insee="68239" code_canton="6809"/><polygon points="383,415 391,411 406,421 412,424 423,421 437,424 449,420 452,428 459,453 461,458 461,458 458,454 409,460 394,451 368,443 378,433 383,415" id="68257" class="commune" fill="steelblue" stroke-width="1" stroke="white" geotype="commune" geoname="Pfetterhouse" code_insee="68257" code_canton="6809"/><polygon points="337,286 308,292 303,297 298,295 298,288 290,285 291,277 310,274 314,269 341,278 337,286" id="68268" class="commune" fill="steelblue" stroke-width="1" stroke="white" geotype="commune" geoname="Retzwiller" code_insee="68268" code_canton="6809"/><polygon points="182,10 185,10 188,21 182,28 163,29 163,35 145,41 131,44 102,39 83,24 71,21 72,15 84,7 93,6 101,1 113,4 125,0 132,4 149,6 162,13 182,10" id="68275" class="commune" fill="steelblue" stroke-width="1" stroke="white" geotype="commune" geoname="Rimbach-près-Masevaux" code_insee="68275" code_canton="6809"/><polygon points="298,295 303,297 299,299 304,302 301,305 304,312 297,321 297,321 297,313 282,315 282,311 278,312 272,306 266,306 266,300 285,296 295,298 298,295" id="68282" class="commune" fill="steelblue" stroke-width="1" stroke="white" geotype="commune" geoname="Romagny" code_insee="68282" code_canton="6809"/><polygon points="255,227 250,224 256,216 264,215 263,212 251,208 290,208 292,211 294,215 283,218 284,220 255,227" id="68293" class="commune" fill="steelblue" stroke-width="1" stroke="white" geotype="commune" geoname="Saint-Cosme" code_insee="68293" code_canton="6809"/><polygon points="315,340 334,335 335,325 354,316 359,317 366,314 377,316 378,319 371,327 366,326 340,337 341,343 322,354 315,340" id="68299" class="commune" fill="steelblue" stroke-width="1" stroke="white" geotype="commune" geoname="Saint-Ulrich" code_insee="68299" code_canton="6809"/><polygon points="248,104 274,114 293,114 287,134 272,140 240,129 248,104" id="68304" class="commune" fill="steelblue" stroke-width="1" stroke="white" geotype="commune" geoname="Sentheim" code_insee="68304" code_canton="6809"/><polygon points="406,421 391,411 383,415 378,408 402,398 426,377 453,387 406,421" id="68305" class="commune" fill="steelblue" stroke-width="1" stroke="white" geotype="commune" geoname="Seppois-le-Bas" code_insee="68305" code_canton="6809"/><polygon points="464,383 469,387 460,397 463,397 459,401 462,402 456,408 460,408 455,411 466,418 452,428 449,420 437,424 423,421 412,424 406,421 453,387 464,383" id="68306" class="commune" fill="steelblue" stroke-width="1" stroke="white" geotype="commune" geoname="Seppois-le-Haut" code_insee="68306" code_canton="6809"/><polygon points="69,23 72,37 95,44 101,50 102,58 96,58 94,62 78,69 70,69 69,80 72,83 64,92 49,87 39,89 31,84 25,78 27,75 10,64 12,56 8,51 2,49 0,40 6,36 14,33 21,35 34,27 69,23" id="68307" class="commune" fill="steelblue" stroke-width="1" stroke="white" geotype="commune" geoname="Sewen" code_insee="68307" code_canton="6809"/><polygon points="176,93 163,79 166,69 170,62 188,57 190,61 185,70 199,73 196,65 201,65 211,65 216,70 209,78 197,78 190,86 192,91 176,93" id="68308" class="commune" fill="steelblue" stroke-width="1" stroke="white" geotype="commune" geoname="Sickert" code_insee="68308" code_canton="6809"/><polygon points="349,179 348,180 328,173 321,179 299,185 289,173 304,165 302,157 308,149 322,150 327,154 322,158 349,169 349,179" id="68313" class="commune" fill="steelblue" stroke-width="1" stroke="white" geotype="commune" geoname="Soppe-le-Bas" code_insee="68313" code_canton="6809"/><polygon points="250,165 244,159 263,150 272,140 287,134 303,136 300,143 308,149 302,157 304,165 289,173 262,166 261,163 250,165" id="68314" class="commune" fill="steelblue" stroke-width="1" stroke="white" geotype="commune" geoname="Soppe-le-Haut" code_insee="68314" code_canton="6809"/><polygon points="304,208 301,199 304,191 299,185 332,193 342,202 331,203 334,209 304,208" id="68326" class="commune" fill="steelblue" stroke-width="1" stroke="white" geotype="commune" geoname="Sternenberg" code_insee="68326" code_canton="6809"/><polygon points="374,345 361,355 355,363 339,373 336,359 322,354 341,343 362,335 374,345" id="68330" class="commune" fill="steelblue" stroke-width="1" stroke="white" geotype="commune" geoname="Strueth" code_insee="68330" code_canton="6809"/><polygon points="272,256 281,245 308,247 354,233 359,237 356,239 358,245 356,253 341,260 330,257 313,261 308,260 272,256" id="68336" class="commune" fill="steelblue" stroke-width="1" stroke="white" geotype="commune" geoname="Traubach-le-Bas" code_insee="68336" code_canton="6809"/><polygon points="281,245 286,238 308,232 301,223 336,212 336,215 361,223 353,230 354,233 308,247 281,245" id="68337" class="commune" fill="steelblue" stroke-width="1" stroke="white" geotype="commune" geoname="Traubach-le-Haut" code_insee="68337" code_canton="6809"/><polygon points="371,397 370,396 399,373 426,373 426,377 402,398 378,408 371,397" id="68340" class="commune" fill="steelblue" stroke-width="1" stroke="white" geotype="commune" geoname="Ueberstrass" code_insee="68340" code_canton="6809"/><polygon points="188,57 170,62 166,69 153,72 151,67 134,61 145,47 145,41 163,35 163,29 182,28 188,21 207,28 214,38 207,44 188,47 188,57" id="68361" class="commune" fill="steelblue" stroke-width="1" stroke="white" geotype="commune" geoname="Wegscheid" code_insee="68361" code_canton="6809"/><polygon points="358,245 362,251 355,257 352,273 341,278 314,269 308,260 313,261 330,257 341,260 356,253 358,245" id="68378" class="commune" fill="steelblue" stroke-width="1" stroke="white" geotype="commune" geoname="Wolfersdorf" code_insee="68378" code_canton="6809"/></svg>