<?xml version="1.0" encoding="utf-8"?>
<svg version="1.1" id="svgmap" xmlns="http://www.w3.org/2000/svg" xmlns:xlink="http://www.w3.org/1999/xlink" x="0px" y="0px" width="100%" height="100%" viewBox="0 0 500 381">
<polygon points="0,168 10,164 10,157 28,165 40,165 49,160 79,157 94,152 114,147 130,153 139,165 151,180 152,193 139,218 106,212 73,204 47,207 15,175 0,168" id="69012" class="commune" fill="steelblue" stroke-width="1" stroke="white" geotype="commune" geoname="Ardillats" code_insee="69012" code_canton="6903"/><polygon points="151,180 139,165 150,160 171,163 183,158 187,143 183,140 200,133 199,148 227,174 214,177 221,182 216,187 208,194 203,192 170,195 151,180" id="69015" class="commune" fill="steelblue" stroke-width="1" stroke="white" geotype="commune" geoname="Avenas" code_insee="69015" code_canton="6903"/><polygon points="104,267 122,255 139,218 152,193 151,180 170,195 203,192 203,219 186,246 189,253 174,254 152,274 130,279 124,272 104,267" id="69018" class="commune" fill="steelblue" stroke-width="1" stroke="white" geotype="commune" geoname="Beaujeu" code_insee="69018" code_canton="6903"/><polygon points="333,301 359,295 412,304 418,301 438,311 445,309 434,318 415,334 417,347 414,348 409,342 376,335 359,318 339,316 333,301" id="69019" class="commune" fill="steelblue" stroke-width="1" stroke="white" geotype="commune" geoname="Belleville" code_insee="69019" code_canton="6903"/><polygon points="331,6 331,18 348,36 353,33 356,43 353,57 347,55 342,60 333,54 321,63 310,59 301,65 300,78 288,70 279,71 272,80 253,80 244,82 228,74 217,74 214,64 220,55 212,40 228,28 242,25 240,11 247,8 268,3 285,17 307,10 304,4 309,0 315,6 331,6" id="69035" class="commune" fill="steelblue" stroke-width="1" stroke="white" geotype="commune" geoname="Cenves" code_insee="69035" code_canton="6903"/><polygon points="249,287 256,273 279,274 303,266 327,268 340,273 339,280 335,279 315,283 303,278 297,281 300,293 282,292 270,296 268,293 260,293 249,287" id="69036" class="commune" fill="steelblue" stroke-width="1" stroke="white" geotype="commune" geoname="Cercié" code_insee="69036" code_canton="6903"/><polygon points="339,316 359,318 376,335 361,338 353,353 358,360 341,363 343,374 331,380 313,381 290,362 288,355 290,340 283,322 291,318 324,321 339,316" id="69045" class="commune" fill="steelblue" stroke-width="1" stroke="white" geotype="commune" geoname="Charentay" code_insee="69045" code_canton="6903"/><polygon points="313,145 307,135 338,119 365,118 365,118 364,121 364,121 366,118 372,121 376,124 373,131 389,136 386,143 396,146 394,155 382,152 373,168 332,143 313,145" id="69053" class="commune" fill="steelblue" stroke-width="1" stroke="white" geotype="commune" geoname="Chénas" code_insee="69053" code_canton="6903"/><polygon points="221,182 214,177 227,174 255,176 278,167 288,170 304,185 311,200 308,208 282,202 267,203 251,196 237,181 231,184 221,182" id="69058" class="commune" fill="steelblue" stroke-width="1" stroke="white" geotype="commune" geoname="Chiroubles" code_insee="69058" code_canton="6903"/><polygon points="418,215 407,254 394,255 378,263 368,262 353,246 346,250 341,241 347,215 382,224 420,209 418,215" id="69065" class="commune" fill="steelblue" stroke-width="1" stroke="white" geotype="commune" geoname="Corcelles-en-Beaujolais" code_insee="69065" code_canton="6903"/><polygon points="465,201 468,209 483,221 500,232 489,259 477,272 425,254 407,254 418,215 439,213 438,202 458,200 465,201" id="69077" class="commune" fill="steelblue" stroke-width="1" stroke="white" geotype="commune" geoname="Dracé" code_insee="69077" code_canton="6903"/><polygon points="335,116 338,119 307,135 313,145 301,139 278,132 269,111 303,123 302,119 335,116" id="69082" class="commune" fill="steelblue" stroke-width="1" stroke="white" geotype="commune" geoname="Émeringes" code_insee="69082" code_canton="6903"/><polygon points="301,139 313,145 332,143 373,168 379,189 366,187 361,194 341,199 335,205 311,200 304,185 288,170 284,151 290,149 294,140 301,139" id="69084" class="commune" fill="steelblue" stroke-width="1" stroke="white" geotype="commune" geoname="Fleurie" code_insee="69084" code_canton="6903"/><polygon points="338,119 335,116 330,105 308,90 300,78 301,65 310,59 309,73 316,82 323,81 323,88 330,90 338,83 356,90 368,97 372,95 373,102 379,100 398,115 391,123 372,121 366,118 364,121 364,121 365,118 365,118 338,119" id="69103" class="commune" fill="steelblue" stroke-width="1" stroke="white" geotype="commune" geoname="Juliénas" code_insee="69103" code_canton="6903"/><polygon points="253,80 272,80 279,71 288,70 300,78 308,90 330,105 335,116 302,119 303,123 269,111 233,90 253,80" id="69104" class="commune" fill="steelblue" stroke-width="1" stroke="white" geotype="commune" geoname="Jullié" code_insee="69104" code_canton="6903"/><polygon points="347,215 338,212 335,205 341,199 361,194 366,187 379,189 386,189 381,191 387,192 383,196 387,199 416,203 421,207 432,208 438,202 439,213 418,215 420,209 382,224 347,215" id="69108" class="commune" fill="steelblue" stroke-width="1" stroke="white" geotype="commune" geoname="Lancié" code_insee="69108" code_canton="6903"/><polygon points="203,192 208,194 232,215 241,234 232,252 218,267 189,253 186,246 203,219 203,192" id="69109" class="commune" fill="steelblue" stroke-width="1" stroke="white" geotype="commune" geoname="Lantignié" code_insee="69109" code_canton="6903"/><polygon points="110,342 109,333 97,325 94,313 82,306 78,287 91,281 104,267 124,272 130,279 152,274 163,310 175,318 161,341 152,338 129,346 110,342" id="69124" class="commune" fill="steelblue" stroke-width="1" stroke="white" geotype="commune" geoname="Marchampt" code_insee="69124" code_canton="6903"/><polygon points="291,318 283,322 290,340 288,355 255,347 212,334 224,317 251,304 258,307 291,318" id="69145" class="commune" fill="steelblue" stroke-width="1" stroke="white" geotype="commune" geoname="Odenas" code_insee="69145" code_canton="6903"/><polygon points="260,293 263,299 258,307 251,304 224,317 212,334 185,351 174,351 172,347 163,348 161,341 175,318 163,310 152,274 174,254 189,253 218,267 237,275 234,280 249,287 260,293" id="69162" class="commune" fill="steelblue" stroke-width="1" stroke="white" geotype="commune" geoname="Quincié-en-Beaujolais" code_insee="69162" code_canton="6903"/><polygon points="208,194 216,187 259,221 262,238 303,266 279,274 256,273 249,287 234,280 237,275 218,267 232,252 241,234 232,215 208,194" id="69165" class="commune" fill="steelblue" stroke-width="1" stroke="white" geotype="commune" geoname="Régnié-Durette" code_insee="69165" code_canton="6903"/><polygon points="67,281 43,266 30,251 42,244 34,240 43,228 65,237 77,237 105,224 106,212 139,218 122,255 104,267 91,281 78,287 67,281" id="69196" class="commune" fill="steelblue" stroke-width="1" stroke="white" geotype="commune" geoname="Saint-Didier-sur-Beaujeu" code_insee="69196" code_canton="6903"/><polygon points="212,334 255,347 257,357 226,378 174,351 185,351 212,334" id="69198" class="commune" fill="steelblue" stroke-width="1" stroke="white" geotype="commune" geoname="Saint-Étienne-la-Varenne" code_insee="69198" code_canton="6903"/><polygon points="418,301 412,304 359,295 333,301 340,289 335,279 339,280 340,273 327,268 341,262 346,250 353,246 368,262 378,263 394,255 407,254 425,254 420,257 406,256 422,281 414,296 418,301" id="69211" class="commune" fill="steelblue" stroke-width="1" stroke="white" geotype="commune" geoname="Saint-Jean-d'Ardières" code_insee="69211" code_canton="6903"/><polygon points="258,307 263,299 260,293 268,293 270,296 282,292 300,293 297,281 303,278 315,283 335,279 340,289 333,301 339,316 324,321 291,318 258,307" id="69218" class="commune" fill="steelblue" stroke-width="1" stroke="white" geotype="commune" geoname="Saint-Lager" code_insee="69218" code_canton="6903"/><polygon points="477,272 452,292 445,309 438,311 418,301 414,296 422,281 406,256 420,257 425,254 477,272" id="69242" class="commune" fill="steelblue" stroke-width="1" stroke="white" geotype="commune" geoname="Taponas" code_insee="69242" code_canton="6903"/><polygon points="221,93 233,90 269,111 278,132 301,139 294,140 290,149 284,151 288,170 278,167 255,176 227,174 199,148 200,133 208,116 221,112 221,93" id="69258" class="commune" fill="steelblue" stroke-width="1" stroke="white" geotype="commune" geoname="Vauxrenard" code_insee="69258" code_canton="6903"/><polygon points="47,207 73,204 106,212 105,224 77,237 65,237 43,228 47,207" id="69261" class="commune" fill="steelblue" stroke-width="1" stroke="white" geotype="commune" geoname="Vernay" code_insee="69261" code_canton="6903"/><polygon points="335,205 338,212 347,215 341,241 346,250 341,262 327,268 303,266 262,238 259,221 216,187 221,182 231,184 237,181 251,196 267,203 282,202 308,208 311,200 335,205" id="69267" class="commune" fill="steelblue" stroke-width="1" stroke="white" geotype="commune" geoname="Villié-Morgon" code_insee="69267" code_canton="6903"/></svg>