<?xml version="1.0" encoding="utf-8"?>
<svg version="1.1" id="svgmap" xmlns="http://www.w3.org/2000/svg" xmlns:xlink="http://www.w3.org/1999/xlink" x="0px" y="0px" width="100%" height="100%" viewBox="0 0 500 261">
<polygon points="474,176 443,183 414,182 415,161 333,175 317,150 337,132 342,114 378,103 406,104 409,115 426,112 438,126 470,126 464,143 475,174 474,176" id="69013" class="commune" fill="steelblue" stroke-width="1" stroke="white" geotype="commune" geoname="Arnas" code_insee="69013" code_canton="6907"/><polygon points="199,144 189,141 185,132 153,134 143,122 149,116 152,111 214,106 219,117 228,108 254,112 271,94 267,84 284,70 317,86 327,110 321,117 265,128 259,124 239,134 217,128 199,144" id="69023" class="commune" fill="steelblue" stroke-width="1" stroke="white" geotype="commune" geoname="Blacé" code_insee="69023" code_canton="6907"/><polygon points="212,164 231,164 232,151 248,153 259,148 270,151 278,147 317,150 333,175 330,179 341,181 335,194 291,196 284,196 270,187 256,188 246,196 230,192 226,183 212,164" id="69074" class="commune" fill="steelblue" stroke-width="1" stroke="white" geotype="commune" geoname="Denicé" code_insee="69074" code_canton="6907"/><polygon points="292,224 291,196 335,194 341,181 330,179 333,175 415,161 414,182 409,178 388,180 391,191 385,200 396,206 395,211 381,211 372,222 363,232 351,238 343,234 337,223 323,230 292,224" id="69092" class="commune" fill="steelblue" stroke-width="1" stroke="white" geotype="commune" geoname="Gleizé" code_insee="69092" code_canton="6907"/><polygon points="291,196 292,224 272,230 244,226 251,221 236,214 254,209 253,203 244,201 246,196 256,188 270,187 284,196 291,196" id="69105" class="commune" fill="steelblue" stroke-width="1" stroke="white" geotype="commune" geoname="Lacenas" code_insee="69105" code_canton="6907"/><polygon points="363,232 372,222 394,217 399,225 449,225 467,232 459,245 449,243 436,261 421,258 379,250 363,232" id="69115" class="commune" fill="steelblue" stroke-width="1" stroke="white" geotype="commune" geoname="Limas" code_insee="69115" code_canton="6907"/><polygon points="232,151 231,164 212,164 184,157 168,159 168,152 154,157 127,128 130,122 149,116 143,122 153,134 185,132 189,141 199,144 204,152 232,151" id="69137" class="commune" fill="steelblue" stroke-width="1" stroke="white" geotype="commune" geoname="Montmelas-Saint-Sorlin" code_insee="69137" code_canton="6907"/><polygon points="226,56 235,57 241,67 225,65 212,80 199,77 202,66 167,59 150,63 138,57 102,67 72,62 54,48 75,9 100,14 129,3 141,8 144,17 155,15 157,21 226,56" id="69151" class="commune" fill="steelblue" stroke-width="1" stroke="white" geotype="commune" geoname="Perréon" code_insee="69151" code_canton="6907"/><polygon points="212,164 226,183 223,188 208,189 203,202 183,204 149,196 136,199 118,190 103,195 97,192 75,184 65,185 73,176 72,166 61,163 66,157 56,156 63,146 52,145 97,131 127,128 154,157 168,152 168,159 184,157 212,164" id="69167" class="commune" fill="steelblue" stroke-width="1" stroke="white" geotype="commune" geoname="Rivolet" code_insee="69167" code_canton="6907"/><polygon points="267,84 271,94 254,112 228,108 219,117 214,106 204,102 209,93 224,93 212,80 225,65 241,67 249,67 267,84" id="69172" class="commune" fill="steelblue" stroke-width="1" stroke="white" geotype="commune" geoname="Salles-Arbuissonnas-en-Beaujolais" code_insee="69172" code_canton="6907"/><polygon points="52,145 46,135 0,130 4,114 9,109 27,110 15,106 42,94 45,85 68,99 83,119 95,122 97,131 52,145" id="69192" class="commune" fill="steelblue" stroke-width="1" stroke="white" geotype="commune" geoname="Saint-Cyr-le-Chatoux" code_insee="69192" code_canton="6907"/><polygon points="241,67 235,57 226,56 266,29 264,16 306,26 310,36 339,60 347,71 337,72 338,79 329,76 329,82 317,86 284,70 267,84 249,67 241,67" id="69197" class="commune" fill="steelblue" stroke-width="1" stroke="white" geotype="commune" geoname="Saint-Étienne-des-Oullières" code_insee="69197" code_canton="6907"/><polygon points="500,45 494,59 456,84 468,111 470,126 438,126 426,112 409,115 406,104 378,103 342,114 327,110 317,86 329,82 329,76 338,79 337,72 347,71 339,60 363,59 378,52 375,36 398,32 391,24 402,4 421,0 465,9 471,17 475,16 489,22 500,45" id="69206" class="commune" fill="steelblue" stroke-width="1" stroke="white" geotype="commune" geoname="Saint-Georges-de-Reneins" code_insee="69206" code_canton="6907"/><polygon points="342,114 337,132 317,150 278,147 270,151 259,148 248,153 232,151 204,152 199,144 217,128 239,134 259,124 265,128 321,117 327,110 342,114" id="69215" class="commune" fill="steelblue" stroke-width="1" stroke="white" geotype="commune" geoname="Saint-Julien" code_insee="69215" code_canton="6907"/><polygon points="45,85 43,69 54,47 54,48 72,62 102,67 138,57 150,63 167,59 202,66 199,77 212,80 224,93 209,93 204,102 214,106 152,111 149,116 130,122 127,128 97,131 95,122 83,119 68,99 45,85" id="69257" class="commune" fill="steelblue" stroke-width="1" stroke="white" geotype="commune" geoname="Vaux-en-Beaujolais" code_insee="69257" code_canton="6907"/></svg>