<?xml version="1.0" encoding="utf-8"?>
<svg version="1.1" id="svgmap" xmlns="http://www.w3.org/2000/svg" xmlns:xlink="http://www.w3.org/1999/xlink" x="0px" y="0px" width="100%" height="100%" viewBox="0 0 500 226">
<polygon points="152,100 169,103 171,97 178,98 184,106 181,110 177,109 174,112 172,111 164,116 160,114 152,100" id="70030" class="commune" fill="steelblue" stroke-width="1" stroke="white" geotype="commune" geoname="Arsans" code_insee="70030" code_canton="7009"/><polygon points="357,122 349,114 342,114 343,104 341,105 339,100 348,99 354,94 355,91 352,87 358,89 363,86 365,91 371,87 388,99 391,98 388,92 412,98 409,107 396,105 385,106 382,112 377,110 372,116 357,122" id="70039" class="commune" fill="steelblue" stroke-width="1" stroke="white" geotype="commune" geoname="Autoreille" code_insee="70039" code_canton="7009"/><polygon points="284,145 276,140 279,128 291,115 298,111 311,117 312,120 319,118 323,113 325,116 342,114 349,114 357,122 353,144 346,150 333,162 308,161 309,157 284,145" id="70045" class="commune" fill="steelblue" stroke-width="1" stroke="white" geotype="commune" geoname="Avrigney-Virey" code_insee="70045" code_canton="7009"/><polygon points="180,205 181,210 175,212 167,209 155,211 149,202 140,202 147,194 157,193 154,191 156,188 166,189 166,187 177,187 176,194 185,201 180,205" id="70048" class="commune" fill="steelblue" stroke-width="1" stroke="white" geotype="commune" geoname="Bard-lès-Pesmes" code_insee="70048" code_canton="7009"/><polygon points="232,179 236,171 247,171 246,174 252,177 259,173 262,176 266,172 277,178 265,196 256,196 249,191 248,182 242,185 236,183 237,180 232,179" id="70057" class="commune" fill="steelblue" stroke-width="1" stroke="white" geotype="commune" geoname="Bay" code_insee="70057" code_canton="7009"/><polygon points="391,176 377,178 378,169 373,171 371,168 361,163 356,153 346,150 353,144 365,148 381,138 392,146 390,148 400,165 400,170 395,170 391,176" id="70060" class="commune" fill="steelblue" stroke-width="1" stroke="white" geotype="commune" geoname="Beaumotte-lès-Pin" code_insee="70060" code_canton="7009"/><polygon points="244,143 240,146 224,141 216,132 238,121 247,124 253,136 244,143" id="70075" class="commune" fill="steelblue" stroke-width="1" stroke="white" geotype="commune" geoname="Bonboillon" code_insee="70075" code_canton="7009"/><polygon points="499,68 500,73 490,92 467,88 459,80 459,75 466,69 476,71 485,68 499,68" id="70076" class="commune" fill="steelblue" stroke-width="1" stroke="white" geotype="commune" geoname="Bonnevent-Velloreille" code_insee="70076" code_canton="7009"/><polygon points="184,220 180,222 165,223 160,226 147,219 155,211 167,209 175,212 181,210 180,205 191,213 192,217 186,217 184,220" id="70092" class="commune" fill="steelblue" stroke-width="1" stroke="white" geotype="commune" geoname="Bresilley" code_insee="70092" code_canton="7009"/><polygon points="80,167 70,176 57,168 55,171 51,172 41,168 38,168 37,163 30,161 12,159 12,163 5,162 0,159 7,154 4,151 9,149 9,146 6,146 9,144 17,149 25,143 27,131 21,120 37,117 40,114 45,117 48,113 58,110 63,111 69,119 66,121 71,128 66,131 76,134 87,139 85,143 89,151 97,151 98,153 94,159 90,158 80,167" id="70101" class="commune" fill="steelblue" stroke-width="1" stroke="white" geotype="commune" geoname="Broye-Aubigney-Montseugny" code_insee="70101" code_canton="7009"/><polygon points="377,178 359,182 357,184 356,180 344,187 338,187 340,172 333,162 346,150 356,153 361,163 371,168 373,171 378,169 377,178" id="70102" class="commune" fill="steelblue" stroke-width="1" stroke="white" geotype="commune" geoname="Brussey" code_insee="70102" code_canton="7009"/><polygon points="382,39 388,42 399,40 400,46 417,46 428,51 419,63 441,58 444,66 455,74 441,73 439,91 428,100 425,93 400,83 388,86 388,79 384,85 374,83 377,61 361,46 374,42 378,48 380,45 377,43 382,39" id="70104" class="commune" fill="steelblue" stroke-width="1" stroke="white" geotype="commune" geoname="Bucey-lès-Gy" code_insee="70104" code_canton="7009"/><polygon points="476,148 464,144 461,146 462,143 455,144 453,141 444,146 448,140 436,135 432,131 444,131 456,126 459,128 467,122 475,127 474,132 481,146 476,148" id="70119" class="commune" fill="steelblue" stroke-width="1" stroke="white" geotype="commune" geoname="Chambornay-lès-Pin" code_insee="70119" code_canton="7009"/><polygon points="209,132 216,132 224,141 240,146 240,153 227,169 213,167 203,159 190,158 189,154 198,154 207,142 204,141 209,137 206,136 209,132" id="70126" class="commune" fill="steelblue" stroke-width="1" stroke="white" geotype="commune" geoname="Chancey" code_insee="70126" code_canton="7009"/><polygon points="291,115 289,112 296,109 292,106 309,99 320,90 329,95 331,86 336,89 334,91 341,91 339,100 341,105 343,104 342,114 325,116 323,113 319,118 312,120 311,117 298,111 291,115" id="70130" class="commune" fill="steelblue" stroke-width="1" stroke="white" geotype="commune" geoname="Charcenne" code_insee="70130" code_canton="7009"/><polygon points="162,161 167,158 178,164 174,171 177,187 166,187 166,189 156,188 157,183 152,181 145,183 146,179 148,171 162,161" id="70142" class="commune" fill="steelblue" stroke-width="1" stroke="white" geotype="commune" geoname="Chaumercenne" code_insee="70142" code_canton="7009"/><polygon points="277,178 283,174 288,175 298,188 295,189 300,201 293,206 284,208 288,211 282,215 284,217 281,216 281,212 276,215 271,214 274,210 258,211 259,208 251,208 247,202 256,196 265,196 277,178" id="70150" class="commune" fill="steelblue" stroke-width="1" stroke="white" geotype="commune" geoname="Chenevrey-et-Morogne" code_insee="70150" code_canton="7009"/><polygon points="126,156 111,157 109,158 105,154 98,153 97,151 111,146 114,133 126,133 127,135 134,133 145,141 137,152 136,150 132,154 130,152 126,156" id="70151" class="commune" fill="steelblue" stroke-width="1" stroke="white" geotype="commune" geoname="Chevigney" code_insee="70151" code_canton="7009"/><polygon points="294,39 291,34 297,33 307,36 315,37 319,40 306,41 304,54 314,58 318,79 328,81 331,86 329,95 320,90 309,99 292,106 296,109 289,112 274,101 267,92 270,88 273,90 285,84 288,76 294,66 294,59 300,55 297,53 301,45 300,39 294,39" id="70152" class="commune" fill="steelblue" stroke-width="1" stroke="white" geotype="commune" geoname="Choye" code_insee="70152" code_canton="7009"/><polygon points="307,36 339,14 352,32 341,43 322,43 319,40 315,37 307,36" id="70156" class="commune" fill="steelblue" stroke-width="1" stroke="white" geotype="commune" geoname="Citey" code_insee="70156" code_canton="7009"/><polygon points="381,138 365,148 353,144 357,122 372,116 377,110 382,112 385,106 396,105 387,118 388,127 381,138" id="70181" class="commune" fill="steelblue" stroke-width="1" stroke="white" geotype="commune" geoname="Courcuire" code_insee="70181" code_canton="7009"/><polygon points="289,112 291,115 279,128 255,124 247,124 238,121 241,118 235,109 236,105 232,102 244,94 266,86 267,92 274,101 289,112" id="70192" class="commune" fill="steelblue" stroke-width="1" stroke="white" geotype="commune" geoname="Cugney" code_insee="70192" code_canton="7009"/><polygon points="288,175 283,174 277,178 266,172 265,164 273,155 271,154 284,145 309,157 308,161 288,175" id="70193" class="commune" fill="steelblue" stroke-width="1" stroke="white" geotype="commune" geoname="Cult" code_insee="70193" code_canton="7009"/><polygon points="491,130 490,133 477,130 474,132 475,127 467,122 473,116 484,108 487,103 483,95 490,93 488,95 492,94 498,105 499,122 491,130" id="70224" class="commune" fill="steelblue" stroke-width="1" stroke="white" geotype="commune" geoname="Étuz" code_insee="70224" code_canton="7009"/><polygon points="409,107 412,98 425,93 428,100 439,91 452,97 464,112 473,116 467,122 459,128 456,126 444,131 432,131 420,125 420,115 409,107" id="70268" class="commune" fill="steelblue" stroke-width="1" stroke="white" geotype="commune" geoname="Gézier-et-Fontenelay" code_insee="70268" code_canton="7009"/><polygon points="412,98 388,92 391,98 388,99 371,87 365,91 363,86 358,89 352,87 355,91 354,94 348,99 339,100 341,91 334,91 336,89 331,86 328,81 318,79 314,58 304,54 306,41 319,40 322,43 341,43 361,46 377,61 374,83 384,85 388,79 388,86 400,83 425,93 412,98" id="70282" class="commune" fill="steelblue" stroke-width="1" stroke="white" geotype="commune" geoname="Gy" code_insee="70282" code_canton="7009"/><polygon points="240,146 244,143 249,151 258,154 264,152 271,154 273,155 265,164 266,172 262,176 259,173 252,177 246,174 247,171 236,171 232,179 224,189 222,191 220,189 220,183 229,173 227,169 240,153 240,146" id="70286" class="commune" fill="steelblue" stroke-width="1" stroke="white" geotype="commune" geoname="Hugier" code_insee="70286" code_canton="7009"/><polygon points="174,112 168,125 161,131 153,132 149,128 152,122 135,108 135,101 141,98 152,100 160,114 164,116 172,111 174,112" id="70302" class="commune" fill="steelblue" stroke-width="1" stroke="white" geotype="commune" geoname="Lieucourt" code_insee="70302" code_canton="7009"/><polygon points="119,224 110,225 108,216 108,211 113,210 119,203 122,205 134,194 147,194 140,202 149,202 155,211 147,219 141,220 137,216 136,219 126,219 119,224" id="70327" class="commune" fill="steelblue" stroke-width="1" stroke="white" geotype="commune" geoname="Malans" code_insee="70327" code_canton="7009"/><polygon points="318,197 306,204 300,201 295,189 298,188 288,175 308,161 333,162 340,172 338,187 327,186 318,197" id="70334" class="commune" fill="steelblue" stroke-width="1" stroke="white" geotype="commune" geoname="Marnay" code_insee="70334" code_canton="7009"/><polygon points="215,202 207,203 207,206 211,206 203,212 191,213 180,205 185,201 176,194 177,187 174,171 178,164 180,165 180,170 185,169 190,174 197,175 200,183 212,185 212,189 214,187 218,189 215,202" id="70353" class="commune" fill="steelblue" stroke-width="1" stroke="white" geotype="commune" geoname="Montagney" code_insee="70353" code_canton="7009"/><polygon points="490,92 490,93 483,95 487,103 484,108 473,116 464,112 452,97 439,91 441,73 455,74 459,75 459,80 467,88 490,92" id="70356" class="commune" fill="steelblue" stroke-width="1" stroke="white" geotype="commune" geoname="Montboillon" code_insee="70356" code_canton="7009"/><polygon points="422,14 441,27 440,32 446,36 448,43 440,54 432,55 439,51 438,45 427,42 424,38 415,37 410,30 400,15 393,16 394,14 389,14 394,7 416,15 422,14" id="70366" class="commune" fill="steelblue" stroke-width="1" stroke="white" geotype="commune" geoname="Villers-Chemin-et-Mont-lès-Étrelles" code_insee="70366" code_canton="7009"/><polygon points="189,154 190,158 203,159 213,167 227,169 229,173 220,183 220,189 218,189 214,187 212,189 212,185 200,183 197,175 190,174 185,169 180,170 180,165 186,160 186,155 189,154" id="70374" class="commune" fill="steelblue" stroke-width="1" stroke="white" geotype="commune" geoname="Motey-Besuche" code_insee="70374" code_canton="7009"/><polygon points="55,171 57,168 70,176 80,167 91,172 91,181 102,182 104,185 113,181 119,182 128,169 118,163 108,168 111,157 126,156 129,158 133,155 132,162 139,172 135,179 146,179 145,183 152,181 157,183 156,188 154,191 157,193 147,194 134,194 122,205 119,203 113,210 108,211 108,216 104,215 107,211 104,208 92,207 89,209 93,200 81,196 77,198 74,191 65,193 67,187 61,184 62,177 55,176 55,171" id="70408" class="commune" fill="steelblue" stroke-width="1" stroke="white" geotype="commune" geoname="Pesmes" code_insee="70408" code_canton="7009"/><polygon points="430,154 421,162 409,160 406,164 400,165 390,148 392,146 381,138 388,127 387,118 396,105 409,107 420,115 420,125 419,135 425,138 424,143 428,146 430,154" id="70410" class="commune" fill="steelblue" stroke-width="1" stroke="white" geotype="commune" geoname="Pin" code_insee="70410" code_canton="7009"/><polygon points="97,151 89,151 85,143 87,139 76,134 79,131 94,129 99,124 107,133 114,133 111,146 97,151" id="70443" class="commune" fill="steelblue" stroke-width="1" stroke="white" geotype="commune" geoname="Grande-Résie" code_insee="70443" code_canton="7009"/><polygon points="162,161 148,171 146,179 135,179 139,172 132,162 133,155 146,154 152,157 156,155 157,162 162,161" id="70444" class="commune" fill="steelblue" stroke-width="1" stroke="white" geotype="commune" geoname="Résie-Saint-Martin" code_insee="70444" code_canton="7009"/><polygon points="80,167 90,158 94,159 98,153 105,154 109,158 111,157 108,168 118,163 128,169 119,182 113,181 104,185 102,182 91,181 91,172 80,167" id="70480" class="commune" fill="steelblue" stroke-width="1" stroke="white" geotype="commune" geoname="Sauvigney-lès-Pesmes" code_insee="70480" code_canton="7009"/><polygon points="239,213 239,209 234,210 231,206 228,208 223,207 222,203 215,202 218,189 220,189 222,191 224,189 232,179 237,180 236,183 242,185 248,182 249,191 256,196 247,202 251,208 239,213" id="70494" class="commune" fill="steelblue" stroke-width="1" stroke="white" geotype="commune" geoname="Sornay" code_insee="70494" code_canton="7009"/><polygon points="279,128 276,140 284,145 271,154 264,152 258,154 249,151 244,143 253,136 247,124 255,124 279,128" id="70509" class="commune" fill="steelblue" stroke-width="1" stroke="white" geotype="commune" geoname="Tromarey" code_insee="70509" code_canton="7009"/><polygon points="109,107 135,108 152,122 149,128 153,132 154,137 145,141 134,133 127,135 126,133 114,133 107,133 99,124 94,129 79,131 76,134 66,131 71,128 66,121 69,119 76,120 86,113 93,115 98,110 101,113 109,107" id="70510" class="commune" fill="steelblue" stroke-width="1" stroke="white" geotype="commune" geoname="Vadans" code_insee="70510" code_canton="7009"/><polygon points="178,164 167,158 162,161 157,162 156,155 152,157 146,154 133,155 129,158 126,156 130,152 132,154 136,150 137,152 145,141 154,137 153,132 161,131 168,125 174,112 177,109 181,110 188,111 199,117 198,121 209,132 206,136 209,137 204,141 207,142 198,154 189,154 186,155 186,160 180,165 178,164" id="70514" class="commune" fill="steelblue" stroke-width="1" stroke="white" geotype="commune" geoname="Valay" code_insee="70514" code_canton="7009"/><polygon points="399,40 388,42 382,39 374,32 371,34 368,31 364,32 356,25 359,22 364,24 373,22 374,20 358,5 367,0 378,3 394,7 389,14 394,14 393,16 400,15 410,30 405,30 403,34 407,36 399,40" id="70521" class="commune" fill="steelblue" stroke-width="1" stroke="white" geotype="commune" geoname="Vantoux-et-Longevelle" code_insee="70521" code_canton="7009"/><polygon points="441,58 419,63 428,51 417,46 400,46 399,40 407,36 403,34 405,30 410,30 415,37 424,38 427,42 438,45 439,51 432,55 440,54 441,58" id="70531" class="commune" fill="steelblue" stroke-width="1" stroke="white" geotype="commune" geoname="Velleclaire" code_insee="70531" code_canton="7009"/><polygon points="339,14 349,5 358,5 374,20 373,22 364,24 359,22 356,25 364,32 368,31 371,34 374,32 382,39 377,43 380,45 378,48 374,42 361,46 341,43 352,32 339,14" id="70533" class="commune" fill="steelblue" stroke-width="1" stroke="white" geotype="commune" geoname="Vellefrey-et-Vellefrange" code_insee="70533" code_canton="7009"/><polygon points="288,76 285,84 273,90 270,88 267,92 266,86 244,94 236,94 231,89 240,84 246,88 251,86 265,81 262,76 265,70 269,69 288,76" id="70540" class="commune" fill="steelblue" stroke-width="1" stroke="white" geotype="commune" geoname="Velloreille-lès-Choye" code_insee="70540" code_canton="7009"/><polygon points="216,132 209,132 198,121 199,117 188,111 190,108 201,110 216,100 214,102 224,98 232,102 236,105 235,109 241,118 238,121 216,132" id="70542" class="commune" fill="steelblue" stroke-width="1" stroke="white" geotype="commune" geoname="Venère" code_insee="70542" code_canton="7009"/><polygon points="294,39 300,39 301,45 297,53 300,55 294,59 294,66 288,76 269,69 265,70 262,67 265,61 264,56 278,55 285,52 286,46 294,39" id="70557" class="commune" fill="steelblue" stroke-width="1" stroke="white" geotype="commune" geoname="Villefrancon" code_insee="70557" code_canton="7009"/><polygon points="451,161 446,166 442,166 442,161 437,161 437,157 430,154 428,146 424,143 425,138 419,135 420,125 432,131 436,135 448,140 444,146 451,161" id="70578" class="commune" fill="steelblue" stroke-width="1" stroke="white" geotype="commune" geoname="Vregille" code_insee="70578" code_canton="7009"/></svg>