<?xml version="1.0" encoding="utf-8"?>
<svg version="1.1" id="svgmap" xmlns="http://www.w3.org/2000/svg" xmlns:xlink="http://www.w3.org/1999/xlink" x="0px" y="0px" width="100%" height="100%" viewBox="0 0 500 192">
<polygon points="323,95 324,97 312,93 300,101 285,99 283,92 295,75 318,74 321,77 317,85 322,89 317,92 323,95" id="70005" class="commune" fill="steelblue" stroke-width="1" stroke="white" geotype="commune" geoname="Aillevans" code_insee="70005" code_canton="7017"/><polygon points="423,66 440,74 441,76 430,83 427,92 420,97 409,90 384,106 375,101 371,103 369,102 379,93 375,80 381,72 391,69 390,64 411,72 415,68 423,66" id="70031" class="commune" fill="steelblue" stroke-width="1" stroke="white" geotype="commune" geoname="Athesans-Étroitefontaine" code_insee="70031" code_canton="7017"/><polygon points="244,67 243,73 227,78 223,81 217,77 219,75 216,70 220,49 233,48 240,50 237,53 244,67" id="70040" class="commune" fill="steelblue" stroke-width="1" stroke="white" geotype="commune" geoname="Autrey-lès-Cerre" code_insee="70040" code_canton="7017"/><polygon points="269,131 281,131 284,129 285,133 292,135 290,138 287,145 291,151 285,152 279,150 279,153 278,154 271,150 275,145 273,140 276,139 269,131" id="70042" class="commune" fill="steelblue" stroke-width="1" stroke="white" geotype="commune" geoname="Autrey-le-Vay" code_insee="70042" code_canton="7017"/><polygon points="396,127 383,128 387,132 385,133 380,131 369,128 368,124 358,115 359,107 383,108 395,110 393,116 396,127" id="70072" class="commune" fill="steelblue" stroke-width="1" stroke="white" geotype="commune" geoname="Beveuge" code_insee="70072" code_canton="7017"/><polygon points="259,101 258,105 253,116 252,107 233,118 230,117 210,125 206,110 216,100 215,92 223,81 227,78 243,73 244,67 250,68 254,75 264,76 263,85 259,84 254,93 259,101" id="70077" class="commune" fill="steelblue" stroke-width="1" stroke="white" geotype="commune" geoname="Borey" code_insee="70077" code_canton="7017"/><polygon points="133,37 145,14 139,5 159,3 160,4 151,6 160,16 158,21 174,22 179,25 183,24 186,27 202,26 214,36 213,42 206,39 181,39 177,44 157,49 151,55 145,57 142,50 146,43 143,43 139,39 143,38 133,37" id="70111" class="commune" fill="steelblue" stroke-width="1" stroke="white" geotype="commune" geoname="Calmoutier" code_insee="70111" code_canton="7017"/><polygon points="216,70 219,75 217,77 223,81 215,92 216,100 206,110 181,106 179,99 185,86 180,82 193,76 194,71 207,72 208,70 213,72 216,70" id="70115" class="commune" fill="steelblue" stroke-width="1" stroke="white" geotype="commune" geoname="Cerre-lès-Noroy" code_insee="70115" code_canton="7017"/><polygon points="130,73 128,75 121,79 112,74 100,72 88,77 88,80 80,66 72,62 90,51 100,50 108,51 119,56 122,64 129,66 124,67 130,73" id="70162" class="commune" fill="steelblue" stroke-width="1" stroke="white" geotype="commune" geoname="Colombe-lès-Vesoul" code_insee="70162" code_canton="7017"/><polygon points="183,24 179,25 174,22 158,21 160,16 151,6 160,4 159,3 169,0 175,4 183,3 185,5 183,24" id="70164" class="commune" fill="steelblue" stroke-width="1" stroke="white" geotype="commune" geoname="Colombotte" code_insee="70164" code_canton="7017"/><polygon points="413,153 416,150 419,147 421,151 437,144 454,155 468,152 472,168 467,171 467,180 462,184 447,182 442,189 433,179 420,173 411,170 415,163 408,158 413,153" id="70180" class="commune" fill="steelblue" stroke-width="1" stroke="white" geotype="commune" geoname="Courchaton" code_insee="70180" code_canton="7017"/><polygon points="467,123 478,117 479,119 489,118 496,128 493,131 499,135 494,138 496,141 486,136 469,134 466,131 466,126 469,126 467,123" id="70187" class="commune" fill="steelblue" stroke-width="1" stroke="white" geotype="commune" geoname="Crevans-et-la-Chapelle-lès-Granges" code_insee="70187" code_canton="7017"/><polygon points="100,50 109,40 122,43 133,37 143,38 139,39 143,43 146,43 142,50 145,57 134,64 130,73 124,67 129,66 122,64 119,56 108,51 100,50" id="70199" class="commune" fill="steelblue" stroke-width="1" stroke="white" geotype="commune" geoname="Dampvalley-lès-Colombe" code_insee="70199" code_canton="7017"/><polygon points="29,96 30,91 37,85 52,82 57,84 57,83 73,91 65,98 69,100 49,110 35,103 29,96" id="70203" class="commune" fill="steelblue" stroke-width="1" stroke="white" geotype="commune" geoname="Demie" code_insee="70203" code_canton="7017"/><polygon points="211,133 210,125 230,117 233,118 252,107 253,116 253,122 259,128 269,131 276,139 273,140 275,145 271,150 252,160 249,158 244,160 240,153 211,133" id="70219" class="commune" fill="steelblue" stroke-width="1" stroke="white" geotype="commune" geoname="Esprels" code_insee="70219" code_canton="7017"/><polygon points="383,166 389,167 388,169 370,182 362,183 362,191 358,192 355,181 351,178 353,173 346,166 355,158 363,156 373,165 383,166" id="70226" class="commune" fill="steelblue" stroke-width="1" stroke="white" geotype="commune" geoname="Fallon" code_insee="70226" code_canton="7017"/><polygon points="380,143 380,141 387,138 403,136 401,139 414,139 414,142 418,144 414,148 416,150 413,153 406,154 404,149 390,150 381,143 380,143" id="70264" class="commune" fill="steelblue" stroke-width="1" stroke="white" geotype="commune" geoname="Georfans" code_insee="70264" code_canton="7017"/><polygon points="390,64 391,69 381,72 375,80 368,79 363,82 351,83 352,79 343,76 342,74 345,63 356,56 363,55 367,61 377,65 378,69 382,68 385,65 381,58 390,42 397,41 406,48 403,54 396,56 390,64" id="70271" class="commune" fill="steelblue" stroke-width="1" stroke="white" geotype="commune" geoname="Gouhenans" code_insee="70271" code_canton="7017"/><polygon points="388,169 389,167 383,166 390,161 391,156 381,143 390,150 404,149 406,154 413,153 408,158 415,163 411,170 420,173 418,178 410,182 403,182 403,179 393,178 393,171 388,169" id="70273" class="commune" fill="steelblue" stroke-width="1" stroke="white" geotype="commune" geoname="Grammont" code_insee="70273" code_canton="7017"/><polygon points="449,100 447,95 457,94 462,108 466,110 458,114 464,118 448,123 443,118 452,109 449,100" id="70276" class="commune" fill="steelblue" stroke-width="1" stroke="white" geotype="commune" geoname="Granges-la-Ville" code_insee="70276" code_canton="7017"/><polygon points="489,118 479,119 478,117 467,123 464,118 458,114 466,110 462,108 457,94 463,93 459,82 464,78 491,83 495,99 490,101 491,106 500,111 498,116 489,118" id="70277" class="commune" fill="steelblue" stroke-width="1" stroke="white" geotype="commune" geoname="Granges-le-Bourg" code_insee="70277" code_canton="7017"/><polygon points="214,36 214,36 235,29 240,35 253,36 251,40 240,50 233,48 220,49 213,42 214,36" id="70303" class="commune" fill="steelblue" stroke-width="1" stroke="white" geotype="commune" geoname="Liévans" code_insee="70303" code_canton="7017"/><polygon points="323,95 317,92 322,89 317,85 321,77 329,74 334,77 341,77 342,74 343,76 352,79 351,83 350,88 341,95 323,95" id="70307" class="commune" fill="steelblue" stroke-width="1" stroke="white" geotype="commune" geoname="Longevelle" code_insee="70307" code_canton="7017"/><polygon points="314,162 302,157 302,153 285,152 291,151 287,145 290,138 307,142 318,139 327,141 331,138 339,141 344,140 357,142 356,145 365,151 363,156 355,158 346,166 338,162 329,164 314,162" id="70317" class="commune" fill="steelblue" stroke-width="1" stroke="white" geotype="commune" geoname="Magny" code_insee="70317" code_canton="7017"/><polygon points="281,131 269,131 259,128 253,122 253,116 258,105 268,112 271,121 278,125 281,131" id="70332" class="commune" fill="steelblue" stroke-width="1" stroke="white" geotype="commune" geoname="Marast" code_insee="70332" code_canton="7017"/><polygon points="365,151 367,149 373,149 372,147 380,143 381,143 391,156 390,161 383,166 373,165 363,156 365,151" id="70336" class="commune" fill="steelblue" stroke-width="1" stroke="white" geotype="commune" geoname="Mélecey" code_insee="70336" code_canton="7017"/><polygon points="457,71 464,78 459,82 463,93 457,94 447,95 449,100 444,96 447,106 439,112 433,107 430,109 422,105 424,104 420,97 427,92 430,83 441,76 440,74 453,71 457,71" id="70347" class="commune" fill="steelblue" stroke-width="1" stroke="white" geotype="commune" geoname="Mignavillers" code_insee="70347" code_canton="7017"/><polygon points="258,105 259,101 271,105 280,101 282,103 280,109 294,109 307,122 300,125 302,131 292,135 285,133 284,129 281,131 278,125 271,121 268,112 258,105" id="70349" class="commune" fill="steelblue" stroke-width="1" stroke="white" geotype="commune" geoname="Moimay" code_insee="70349" code_canton="7017"/><polygon points="275,46 270,60 276,59 275,66 279,68 268,72 266,76 264,76 254,75 250,68 244,67 237,53 240,50 251,40 255,39 257,43 263,42 267,46 275,46" id="70364" class="commune" fill="steelblue" stroke-width="1" stroke="white" geotype="commune" geoname="Montjustin-et-Velotte" code_insee="70364" code_canton="7017"/><polygon points="113,117 121,117 108,123 101,124 90,118 74,129 61,131 53,129 53,113 49,110 69,100 65,98 73,91 80,98 84,98 88,101 88,111 113,117" id="70381" class="commune" fill="steelblue" stroke-width="1" stroke="white" geotype="commune" geoname="Neurey-lès-la-Demie" code_insee="70381" code_canton="7017"/><polygon points="128,75 130,73 134,64 145,57 151,55 157,49 177,44 181,39 206,39 213,42 220,49 216,70 213,72 208,70 207,72 194,71 193,76 180,82 185,86 179,99 181,106 172,117 161,117 152,111 152,107 144,109 145,105 141,99 145,95 133,89 128,75" id="70390" class="commune" fill="steelblue" stroke-width="1" stroke="white" geotype="commune" geoname="Noroy-le-Bourg" code_insee="70390" code_canton="7017"/><polygon points="283,92 285,99 282,103 280,101 271,105 259,101 254,93 259,84 263,85 264,76 266,76 267,85 275,89 275,92 283,92" id="70395" class="commune" fill="steelblue" stroke-width="1" stroke="white" geotype="commune" geoname="Oppenans" code_insee="70395" code_canton="7017"/><polygon points="295,75 283,92 275,92 275,89 267,85 266,76 268,72 279,68 293,72 295,75" id="70396" class="commune" fill="steelblue" stroke-width="1" stroke="white" geotype="commune" geoname="Oricourt" code_insee="70396" code_canton="7017"/><polygon points="263,167 252,165 256,163 252,160 271,150 278,154 279,153 279,150 285,152 302,153 302,157 300,159 296,156 282,160 274,173 273,171 267,171 263,167" id="70420" class="commune" fill="steelblue" stroke-width="1" stroke="white" geotype="commune" geoname="Pont-sur-l'Ognon" code_insee="70420" code_canton="7017"/><polygon points="380,131 385,133 387,132 383,128 396,127 403,126 406,133 403,136 387,138 380,131" id="70462" class="commune" fill="steelblue" stroke-width="1" stroke="white" geotype="commune" geoname="Saint-Ferjeux" code_insee="70462" code_canton="7017"/><polygon points="324,97 323,95 341,95 352,110 342,112 343,114 326,122 331,116 321,111 327,109 324,105 324,97" id="70474" class="commune" fill="steelblue" stroke-width="1" stroke="white" geotype="commune" geoname="Saint-Sulpice" code_insee="70474" code_canton="7017"/><polygon points="469,134 469,134 456,135 445,143 440,135 446,134 448,123 464,118 467,123 469,126 466,126 466,131 469,134" id="70484" class="commune" fill="steelblue" stroke-width="1" stroke="white" geotype="commune" geoname="Secenans" code_insee="70484" code_canton="7017"/><polygon points="384,106 409,90 420,97 424,104 422,105 430,109 433,107 439,112 447,106 444,96 449,100 452,109 443,118 448,123 446,134 440,135 437,132 439,126 434,126 426,115 411,125 403,126 396,127 393,116 395,110 383,108 384,106" id="70487" class="commune" fill="steelblue" stroke-width="1" stroke="white" geotype="commune" geoname="Senargent-Mignafans" code_insee="70487" code_canton="7017"/><polygon points="206,110 210,125 211,133 190,136 178,146 172,145 164,143 154,135 148,126 157,117 161,117 172,117 181,106 206,110" id="70516" class="commune" fill="steelblue" stroke-width="1" stroke="white" geotype="commune" geoname="Vallerois-le-Bois" code_insee="70516" code_canton="7017"/><polygon points="0,103 0,103 29,96 35,103 49,110 53,113 53,129 50,132 41,126 34,131 38,138 34,137 29,132 40,125 27,119 17,106 10,106 0,103" id="70517" class="commune" fill="steelblue" stroke-width="1" stroke="white" geotype="commune" geoname="Vallerois-Lorioz" code_insee="70517" code_canton="7017"/><polygon points="468,152 454,155 437,144 421,151 419,147 416,150 414,148 418,144 414,142 414,139 401,139 403,136 406,133 403,126 411,125 426,115 434,126 439,126 437,132 440,135 445,143 456,135 469,134 470,139 462,140 463,142 456,147 461,151 464,149 470,149 468,152" id="70530" class="commune" fill="steelblue" stroke-width="1" stroke="white" geotype="commune" geoname="Vellechevreux-et-Courbenans" code_insee="70530" code_canton="7017"/><polygon points="423,66 415,68 411,72 390,64 396,56 403,54 412,50 415,53 415,58 423,66" id="70544" class="commune" fill="steelblue" stroke-width="1" stroke="white" geotype="commune" geoname="Vergenne" code_insee="70544" code_canton="7017"/><polygon points="375,80 379,93 369,102 371,103 375,101 384,106 383,108 359,107 352,110 341,95 350,88 351,83 363,82 368,79 375,80" id="70552" class="commune" fill="steelblue" stroke-width="1" stroke="white" geotype="commune" geoname="Villafans" code_insee="70552" code_canton="7017"/><polygon points="387,138 380,141 380,143 372,147 373,149 367,149 370,143 364,141 358,131 359,128 368,124 369,128 380,131 387,138" id="70553" class="commune" fill="steelblue" stroke-width="1" stroke="white" geotype="commune" geoname="Villargent" code_insee="70553" code_canton="7017"/><polygon points="290,138 292,135 302,131 300,125 307,122 294,109 280,109 282,103 285,99 300,101 312,93 324,97 324,105 327,109 321,111 331,116 326,122 343,114 339,117 342,122 335,131 344,140 339,141 331,138 327,141 318,139 307,142 290,138" id="70561" class="commune" fill="steelblue" stroke-width="1" stroke="white" geotype="commune" geoname="Villersexel" code_insee="70561" code_canton="7017"/><polygon points="367,149 365,151 356,145 357,142 344,140 335,131 342,122 339,117 343,114 342,112 352,110 359,107 358,115 368,124 359,128 358,131 364,141 370,143 367,149" id="70562" class="commune" fill="steelblue" stroke-width="1" stroke="white" geotype="commune" geoname="Villers-la-Ville" code_insee="70562" code_canton="7017"/><polygon points="121,117 113,117 110,91 106,87 90,84 88,80 88,77 100,72 112,74 121,79 128,75 133,89 145,95 141,99 145,105 144,109 133,117 121,117" id="70563" class="commune" fill="steelblue" stroke-width="1" stroke="white" geotype="commune" geoname="Villers-le-Sec" code_insee="70563" code_canton="7017"/></svg>