<?xml version="1.0" encoding="utf-8"?>
<svg version="1.1" id="svgmap" xmlns="http://www.w3.org/2000/svg" xmlns:xlink="http://www.w3.org/1999/xlink" x="0px" y="0px" width="100%" height="100%" viewBox="0 0 500 415">
<polygon points="74,17 102,26 122,22 137,35 152,48 163,67 187,77 167,87 169,102 93,91 72,96 57,89 33,97 17,64 26,59 25,46 47,45 50,32 41,30 74,17" id="71038" class="commune" fill="steelblue" stroke-width="1" stroke="white" geotype="commune" geoname="Bizots" code_insee="71038" code_canton="7103"/><polygon points="26,100 33,97 57,89 72,96 93,91 169,102 141,135 161,140 172,148 181,141 204,146 206,151 214,147 213,157 212,163 203,166 219,185 220,199 188,210 171,210 160,219 153,214 148,220 107,221 101,215 108,195 98,194 87,186 87,181 73,175 67,163 41,167 30,164 34,151 19,148 27,144 26,138 2,140 0,134 9,123 9,114 26,100" id="71040" class="commune" fill="steelblue" stroke-width="1" stroke="white" geotype="commune" geoname="Blanzy" code_insee="71040" code_canton="7103"/><polygon points="427,275 429,283 422,283 420,291 403,289 404,294 393,291 359,301 345,289 331,294 302,286 310,275 341,260 348,249 363,248 366,228 384,220 389,223 383,225 387,242 402,248 414,246 430,256 422,259 431,268 427,275" id="71139" class="commune" fill="steelblue" stroke-width="1" stroke="white" geotype="commune" geoname="Collonge-en-Charollais" code_insee="71139" code_canton="7103"/><polygon points="309,44 326,28 345,21 357,18 372,35 393,28 416,36 420,45 420,62 412,70 414,81 409,78 399,82 399,91 378,92 369,78 361,78 345,69 336,73 330,71 330,78 315,81 308,77 298,60 300,52 315,49 309,44" id="71187" class="commune" fill="steelblue" stroke-width="1" stroke="white" geotype="commune" geoname="Écuisses" code_insee="71187" code_canton="7103"/><polygon points="477,290 470,276 465,279 427,275 431,268 422,259 430,256 414,246 402,248 387,242 383,225 389,223 397,221 419,222 430,218 430,222 468,223 480,226 477,230 485,238 479,242 500,275 492,286 488,283 477,290" id="71214" class="commune" fill="steelblue" stroke-width="1" stroke="white" geotype="commune" geoname="Genouilly" code_insee="71214" code_canton="7103"/><polygon points="160,219 165,236 181,226 203,220 226,226 223,233 244,233 251,224 249,233 258,235 267,243 274,243 279,252 264,253 256,259 268,261 262,270 271,274 261,281 255,277 249,296 267,313 263,321 269,328 260,342 250,342 242,336 232,340 219,342 209,324 201,326 204,329 197,328 196,317 183,316 188,308 157,297 163,292 168,294 174,284 164,275 170,276 165,265 170,259 151,259 152,249 123,238 107,221 148,220 153,214 160,219" id="71222" class="commune" fill="steelblue" stroke-width="1" stroke="white" geotype="commune" geoname="Gourdon" code_insee="71222" code_canton="7103"/><polygon points="449,339 443,347 435,348 440,371 427,372 423,367 401,364 407,355 365,350 354,349 353,341 365,337 369,326 365,322 371,318 356,315 359,301 393,291 404,294 403,289 420,291 422,283 429,283 427,275 465,279 463,298 454,304 464,308 453,316 443,312 434,317 437,329 451,331 449,339" id="71242" class="commune" fill="steelblue" stroke-width="1" stroke="white" geotype="commune" geoname="Joncy" code_insee="71242" code_canton="7103"/><polygon points="258,235 249,233 251,224 244,233 223,233 226,226 203,220 181,226 165,236 160,219 171,210 188,210 220,199 219,185 203,166 212,163 213,157 227,153 228,147 239,155 252,157 259,151 261,154 291,149 307,165 294,184 315,181 345,191 328,213 338,221 308,232 266,230 258,235" id="71278" class="commune" fill="steelblue" stroke-width="1" stroke="white" geotype="commune" geoname="Marigny" code_insee="71278" code_canton="7103"/><polygon points="358,367 339,359 330,371 262,349 260,342 269,328 263,321 280,315 281,306 299,312 292,298 302,286 331,294 345,289 359,301 356,315 371,318 365,322 369,326 365,337 353,341 354,349 365,350 360,353 363,359 353,359 367,364 358,367" id="71286" class="commune" fill="steelblue" stroke-width="1" stroke="white" geotype="commune" geoname="Mary" code_insee="71286" code_canton="7103"/><polygon points="309,44 315,49 300,52 298,60 308,77 294,79 277,95 269,103 245,109 227,73 260,49 261,41 279,45 309,44" id="71310" class="commune" fill="steelblue" stroke-width="1" stroke="white" geotype="commune" geoname="Montchanin" code_insee="71310" code_canton="7103"/><polygon points="366,228 363,248 348,249 341,260 310,275 302,286 292,298 299,312 281,306 280,315 263,321 267,313 249,296 255,277 261,281 271,274 262,270 268,261 256,259 264,253 279,252 274,243 267,243 258,235 266,230 308,232 338,221 353,219 366,228" id="71320" class="commune" fill="steelblue" stroke-width="1" stroke="white" geotype="commune" geoname="Mont-Saint-Vincent" code_insee="71320" code_canton="7103"/><polygon points="468,221 468,223 430,222 430,218 419,222 397,221 407,204 433,192 427,183 434,177 438,187 465,188 467,193 479,195 468,221" id="71363" class="commune" fill="steelblue" stroke-width="1" stroke="white" geotype="commune" geoname="Puley" code_insee="71363" code_canton="7103"/><polygon points="169,102 167,87 187,77 202,86 213,77 227,73 245,109 269,103 277,95 294,113 320,117 326,122 318,144 291,149 261,154 259,151 252,157 239,155 228,147 227,153 213,157 214,147 206,151 204,146 181,141 172,148 161,140 141,135 169,102" id="71412" class="commune" fill="steelblue" stroke-width="1" stroke="white" geotype="commune" geoname="Saint-Eusèbe" code_insee="71412" code_canton="7103"/><polygon points="393,7 402,9 421,0 430,4 422,12 437,26 457,40 441,47 420,45 416,36 393,28 372,35 357,18 383,3 393,7" id="71435" class="commune" fill="steelblue" stroke-width="1" stroke="white" geotype="commune" geoname="Saint-Julien-sur-Dheune" code_insee="71435" code_canton="7103"/><polygon points="399,91 401,91 373,123 376,138 354,142 326,122 320,117 294,113 277,95 294,79 308,77 315,81 330,78 330,71 336,73 345,69 361,78 369,78 378,92 399,91" id="71436" class="commune" fill="steelblue" stroke-width="1" stroke="white" geotype="commune" geoname="Saint-Laurent-d'Andenay" code_insee="71436" code_canton="7103"/><polygon points="440,371 432,412 423,410 418,415 405,406 378,399 387,386 374,382 367,368 358,367 367,364 353,359 363,359 360,353 365,350 407,355 401,364 423,367 427,372 440,371" id="71458" class="commune" fill="steelblue" stroke-width="1" stroke="white" geotype="commune" geoname="Saint-Martin-la-Patrouille" code_insee="71458" code_canton="7103"/><polygon points="397,221 389,223 384,220 366,228 353,219 338,221 328,213 345,191 315,181 294,184 307,165 291,149 318,144 326,122 354,142 376,138 389,144 401,138 430,144 436,156 425,163 434,177 427,183 433,192 407,204 397,221" id="71465" class="commune" fill="steelblue" stroke-width="1" stroke="white" geotype="commune" geoname="Saint-Micaud" code_insee="71465" code_canton="7103"/></svg>