<?xml version="1.0" encoding="utf-8"?>
<svg version="1.1" id="svgmap" xmlns="http://www.w3.org/2000/svg" xmlns:xlink="http://www.w3.org/1999/xlink" x="0px" y="0px" width="100%" height="100%" viewBox="0 0 500 296">
<polygon points="263,81 264,74 271,69 275,61 283,57 293,58 297,52 308,58 310,56 317,60 325,58 329,62 322,81 325,88 322,95 314,95 303,93 293,85 291,87 286,84 276,85 263,81" id="71050" class="commune" fill="steelblue" stroke-width="1" stroke="white" geotype="commune" geoname="Bourgvilain" code_insee="71050" code_canton="7108"/><polygon points="225,62 225,63 228,65 230,69 228,70 228,74 223,77 237,84 239,83 241,84 239,84 243,86 242,87 252,89 246,101 251,101 248,111 247,116 237,111 230,111 227,114 215,112 212,111 213,104 217,102 218,93 215,80 201,81 194,74 189,76 189,73 199,70 195,68 206,66 205,63 214,58 225,62" id="71055" class="commune" fill="steelblue" stroke-width="1" stroke="white" geotype="commune" geoname="Brandon" code_insee="71055" code_canton="7108"/><polygon points="432,190 437,187 484,198 485,199 484,203 475,201 448,204 430,196 434,195 432,190" id="71074" class="commune" fill="steelblue" stroke-width="1" stroke="white" geotype="commune" geoname="Chaintré" code_insee="71074" code_canton="7108"/><polygon points="421,200 430,196 448,204 446,232 436,226 441,211 427,204 421,200" id="71084" class="commune" fill="steelblue" stroke-width="1" stroke="white" geotype="commune" geoname="Chânes" code_insee="71084" code_canton="7108"/><polygon points="414,226 433,232 436,226 446,232 465,229 485,235 482,240 479,254 467,257 458,255 449,261 442,257 437,260 428,256 413,250 405,247 408,242 395,239 398,233 395,231 409,233 414,226" id="71090" class="commune" fill="steelblue" stroke-width="1" stroke="white" geotype="commune" geoname="Chapelle-de-Guinchay" code_insee="71090" code_canton="7108"/><polygon points="225,56 225,62 214,58 205,63 206,66 195,68 187,68 186,72 173,75 166,56 164,54 157,56 160,55 156,50 159,45 164,45 170,40 172,44 174,39 182,41 187,38 194,40 198,38 196,42 212,41 207,47 225,56" id="71091" class="commune" fill="steelblue" stroke-width="1" stroke="white" geotype="commune" geoname="Chapelle-du-Mont-de-France" code_insee="71091" code_canton="7108"/><polygon points="381,183 383,173 381,166 405,165 409,179 381,183" id="71108" class="commune" fill="steelblue" stroke-width="1" stroke="white" geotype="commune" geoname="Chasselas" code_insee="71108" code_canton="7108"/><polygon points="225,56 226,56 229,54 233,56 237,56 237,58 239,59 246,61 249,65 252,62 255,63 263,62 263,63 261,64 254,64 255,66 258,64 259,66 257,67 258,68 262,67 266,69 268,68 271,69 264,74 263,81 260,82 257,87 252,89 242,87 243,86 239,84 241,84 239,83 237,84 223,77 228,74 228,70 230,69 228,65 225,63 225,62 225,56" id="71134" class="commune" fill="steelblue" stroke-width="1" stroke="white" geotype="commune" geoname="Clermain" code_insee="71134" code_canton="7108"/><polygon points="446,232 448,204 475,201 484,203 485,199 500,201 497,219 488,229 485,235 465,229 446,232" id="71150" class="commune" fill="steelblue" stroke-width="1" stroke="white" geotype="commune" geoname="Crêches-sur-Saône" code_insee="71150" code_canton="7108"/><polygon points="407,135 411,133 423,135 423,138 426,138 439,137 437,134 441,133 453,150 441,153 421,154 421,150 418,151 417,148 401,140 407,135" id="71169" class="commune" fill="steelblue" stroke-width="1" stroke="white" geotype="commune" geoname="Davayé" code_insee="71169" code_canton="7108"/><polygon points="156,50 160,55 157,56 164,54 166,56 173,75 174,78 161,84 173,88 173,91 149,100 146,109 135,108 119,113 106,109 97,112 89,111 86,116 64,121 66,103 73,100 77,94 78,83 74,80 85,74 80,62 95,52 98,59 130,64 156,50" id="71178" class="commune" fill="steelblue" stroke-width="1" stroke="white" geotype="commune" geoname="Dompierre-les-Ormes" code_insee="71178" code_canton="7108"/><polygon points="437,187 432,190 422,188 420,179 409,179 405,165 418,161 422,163 437,156 441,162 439,175 436,176 437,187" id="71210" class="commune" fill="steelblue" stroke-width="1" stroke="white" geotype="commune" geoname="Fuissé" code_insee="71210" code_canton="7108"/><polygon points="276,170 282,182 277,189 271,186 241,184 225,176 224,159 238,156 247,165 276,170" id="71217" class="commune" fill="steelblue" stroke-width="1" stroke="white" geotype="commune" geoname="Germolles-sur-Grosne" code_insee="71217" code_canton="7108"/><polygon points="430,196 421,200 410,195 400,198 389,196 386,190 372,186 377,181 381,183 409,179 420,179 422,188 432,190 434,195 430,196" id="71258" class="commune" fill="steelblue" stroke-width="1" stroke="white" geotype="commune" geoname="Leynes" code_insee="71258" code_canton="7108"/><polygon points="128,162 113,166 93,151 72,156 70,151 57,145 65,132 64,121 86,116 89,111 97,112 106,109 119,113 135,108 146,109 154,113 154,121 176,136 173,143 148,150 142,157 128,162" id="71289" class="commune" fill="steelblue" stroke-width="1" stroke="white" geotype="commune" geoname="Matour" code_insee="71289" code_canton="7108"/><polygon points="195,68 199,70 189,73 189,76 194,74 201,81 215,80 218,93 217,102 213,104 209,100 201,105 194,93 176,97 173,91 173,88 161,84 174,78 173,75 186,72 187,68 195,68" id="71304" class="commune" fill="steelblue" stroke-width="1" stroke="white" geotype="commune" geoname="Montagny-sur-Grosne" code_insee="71304" code_canton="7108"/><polygon points="74,80 78,83 77,94 73,100 66,103 64,121 65,132 63,130 60,135 52,136 27,134 20,124 23,117 21,111 0,90 23,79 38,62 48,64 51,70 56,69 63,77 74,80" id="71316" class="commune" fill="steelblue" stroke-width="1" stroke="white" geotype="commune" geoname="Montmelard" code_insee="71316" code_canton="7108"/><polygon points="314,95 322,95 325,88 352,94 357,101 366,102 364,106 373,112 370,116 377,121 365,124 359,129 339,128 324,122 316,126 304,126 314,95" id="71350" class="commune" fill="steelblue" stroke-width="1" stroke="white" geotype="commune" geoname="Pierreclos" code_insee="71350" code_canton="7108"/><polygon points="383,207 383,208 370,202 364,208 358,207 359,201 353,202 348,195 349,185 357,188 366,181 372,186 386,190 389,196 391,198 384,198 383,207" id="71362" class="commune" fill="steelblue" stroke-width="1" stroke="white" geotype="commune" geoname="Pruzilly" code_insee="71362" code_canton="7108"/><polygon points="413,250 428,256 428,263 434,265 437,277 451,279 449,284 459,290 444,291 439,296 432,295 427,292 406,289 403,287 406,284 402,283 405,281 400,282 396,266 402,254 411,256 413,250" id="71372" class="commune" fill="steelblue" stroke-width="1" stroke="white" geotype="commune" geoname="Romanèche-Thorins" code_insee="71372" code_canton="7108"/><polygon points="436,226 433,232 414,226 400,215 396,217 395,211 392,213 383,208 383,207 423,207 427,204 441,211 436,226" id="71385" class="commune" fill="steelblue" stroke-width="1" stroke="white" geotype="commune" geoname="Saint-Amour-Bellevue" code_insee="71385" code_canton="7108"/><polygon points="212,111 215,112 223,116 220,122 236,130 240,139 231,151 222,156 208,154 203,143 186,136 176,136 182,132 192,131 212,111" id="71441" class="commune" fill="steelblue" stroke-width="1" stroke="white" geotype="commune" geoname="Saint-Léger-sous-la-Bussière" code_insee="71441" code_canton="7108"/><polygon points="146,186 128,162 142,157 148,150 173,143 176,136 186,136 203,143 208,154 202,159 203,165 196,165 194,178 184,183 165,182 146,186" id="71469" class="commune" fill="steelblue" stroke-width="1" stroke="white" geotype="commune" geoname="Saint-Pierre-le-Vieux" code_insee="71469" code_canton="7108"/><polygon points="252,89 257,87 260,82 263,81 276,85 286,84 291,87 293,85 303,93 314,95 304,126 298,127 298,132 280,130 269,125 264,116 248,111 251,101 246,101 252,89" id="71470" class="commune" fill="steelblue" stroke-width="1" stroke="white" geotype="commune" geoname="Saint-Point" code_insee="71470" code_canton="7108"/><polygon points="464,290 459,290 449,284 451,279 437,277 434,265 428,263 428,256 437,260 442,257 449,261 458,255 467,257 479,254 480,261 464,276 464,290" id="71481" class="commune" fill="steelblue" stroke-width="1" stroke="white" geotype="commune" geoname="Saint-Symphorien-d'Ancelles" code_insee="71481" code_canton="7108"/><polygon points="421,200 427,204 423,207 383,207 384,198 391,198 389,196 400,198 410,195 421,200" id="71487" class="commune" fill="steelblue" stroke-width="1" stroke="white" geotype="commune" geoname="Saint-Vérand" code_insee="71487" code_canton="7108"/><polygon points="377,121 377,121 364,145 352,145 348,141 344,144 347,148 330,154 317,143 301,146 296,145 292,140 298,132 298,127 304,126 316,126 324,122 339,128 359,129 365,124 377,121" id="71518" class="commune" fill="steelblue" stroke-width="1" stroke="white" geotype="commune" geoname="Serrières" code_insee="71518" code_canton="7108"/><polygon points="441,153 437,156 422,163 418,161 405,165 381,166 377,168 365,154 381,153 381,150 387,150 388,147 391,148 398,142 400,144 401,140 417,148 418,151 421,150 421,154 441,153" id="71526" class="commune" fill="steelblue" stroke-width="1" stroke="white" geotype="commune" geoname="Solutré-Pouilly" code_insee="71526" code_canton="7108"/><polygon points="224,159 222,156 231,151 240,139 236,130 220,122 223,116 215,112 227,114 230,111 237,111 247,116 248,111 264,116 269,125 280,130 298,132 292,140 296,145 301,146 297,149 298,159 288,162 276,170 247,165 238,156 224,159" id="71545" class="commune" fill="steelblue" stroke-width="1" stroke="white" geotype="commune" geoname="Tramayes" code_insee="71545" code_canton="7108"/><polygon points="213,104 212,111 192,131 182,132 176,136 154,121 154,113 146,109 149,100 173,91 176,97 194,93 201,105 209,100 213,104" id="71546" class="commune" fill="steelblue" stroke-width="1" stroke="white" geotype="commune" geoname="Trambly" code_insee="71546" code_canton="7108"/><polygon points="159,45 156,50 130,64 98,59 95,52 96,45 107,37 112,26 118,27 119,18 123,23 133,23 148,28 154,30 152,34 155,34 159,45" id="71547" class="commune" fill="steelblue" stroke-width="1" stroke="white" geotype="commune" geoname="Trivy" code_insee="71547" code_canton="7108"/><polygon points="377,121 390,121 393,124 401,125 407,135 401,140 400,144 398,142 391,148 388,147 387,150 381,150 381,153 365,154 364,145 377,121" id="71567" class="commune" fill="steelblue" stroke-width="1" stroke="white" geotype="commune" geoname="Vergisson" code_insee="71567" code_canton="7108"/><polygon points="38,62 38,62 37,45 56,35 42,26 50,10 44,7 59,0 77,4 78,22 94,13 115,15 119,18 118,27 112,26 107,37 96,45 95,52 80,62 85,74 74,80 63,77 56,69 51,70 48,64 38,62" id="71571" class="commune" fill="steelblue" stroke-width="1" stroke="white" geotype="commune" geoname="Verosvres" code_insee="71571" code_canton="7108"/><polygon points="437,187 436,176 439,175 472,179 485,179 479,193 485,196 484,198 437,187" id="71583" class="commune" fill="steelblue" stroke-width="1" stroke="white" geotype="commune" geoname="Vinzelles" code_insee="71583" code_canton="7108"/></svg>