<?xml version="1.0" encoding="utf-8"?>
<svg version="1.1" id="svgmap" xmlns="http://www.w3.org/2000/svg" xmlns:xlink="http://www.w3.org/1999/xlink" x="0px" y="0px" width="100%" height="100%" viewBox="0 0 500 357">
<polygon points="123,100 131,100 132,94 146,89 149,96 154,95 158,99 163,97 164,100 179,104 182,102 184,105 194,105 198,101 203,100 210,107 206,124 197,131 179,136 188,139 188,142 192,139 194,143 198,143 202,147 187,149 199,160 194,164 194,167 188,168 193,181 200,184 198,193 193,197 183,195 173,187 163,186 156,179 143,181 124,180 119,168 121,159 101,156 96,152 108,137 100,129 92,125 87,114 107,121 117,128 117,119 122,114 119,112 125,104 123,100" id="71047" class="commune" fill="steelblue" stroke-width="1" stroke="white" geotype="commune" geoname="Bourbon-Lancy" code_insee="71047" code_canton="7115"/><polygon points="198,193 200,184 193,181 188,168 194,167 194,164 199,160 216,154 237,137 249,135 258,129 272,130 274,128 284,132 288,135 284,138 286,145 281,146 282,155 291,161 291,165 281,170 286,177 278,185 272,187 272,191 267,197 245,210 239,212 227,207 224,208 220,203 225,193 217,191 198,193" id="71075" class="commune" fill="steelblue" stroke-width="1" stroke="white" geotype="commune" geoname="Chalmoux" code_insee="71075" code_canton="7115"/><polygon points="183,54 177,56 174,62 162,59 162,56 141,51 124,56 126,64 110,66 103,63 98,65 87,63 68,58 66,55 35,69 31,56 34,49 30,47 29,50 22,50 16,48 16,29 0,14 8,3 10,3 9,8 19,15 27,11 39,16 58,15 87,6 123,0 138,8 171,18 169,24 164,25 177,34 183,54" id="71155" class="commune" fill="steelblue" stroke-width="1" stroke="white" geotype="commune" geoname="Cronat" code_insee="71155" code_canton="7115"/><polygon points="433,315 417,315 413,313 408,315 403,312 399,305 378,296 376,291 365,292 355,293 350,291 356,278 369,283 374,275 393,267 394,264 388,261 388,258 393,256 391,253 414,261 418,258 432,262 463,257 467,251 471,251 478,253 488,263 491,261 496,267 500,280 489,282 487,291 480,296 476,297 473,293 472,289 462,290 453,281 442,282 430,280 428,283 437,298 430,298 433,315" id="71176" class="commune" fill="steelblue" stroke-width="1" stroke="white" geotype="commune" geoname="Digoin" code_insee="71176" code_canton="7115"/><polygon points="168,239 165,230 160,227 140,230 126,226 117,218 118,211 122,214 126,211 150,213 180,201 184,198 183,195 193,197 198,193 217,191 225,193 220,203 224,208 227,207 228,212 217,221 208,223 201,231 201,247 191,247 184,240 168,239" id="71220" class="commune" fill="steelblue" stroke-width="1" stroke="white" geotype="commune" geoname="Gilly-sur-Loire" code_insee="71220" code_canton="7115"/><polygon points="284,215 275,207 283,208 284,205 292,205 294,210 293,203 314,209 314,203 330,205 331,208 336,206 335,202 341,200 349,207 352,213 352,236 347,238 346,247 340,247 339,253 333,256 328,251 319,252 316,249 317,245 310,246 305,242 300,246 293,245 296,236 290,232 291,221 284,218 284,215" id="71229" class="commune" fill="steelblue" stroke-width="1" stroke="white" geotype="commune" geoname="Guerreaux" code_insee="71229" code_canton="7115"/><polygon points="82,107 82,104 113,99 119,103 123,100 125,104 119,112 122,114 117,119 117,128 107,121 87,114 82,107" id="71255" class="commune" fill="steelblue" stroke-width="1" stroke="white" geotype="commune" geoname="Lesme" code_insee="71255" code_canton="7115"/><polygon points="162,59 174,62 177,56 183,54 191,54 197,50 217,51 221,75 240,79 242,82 246,83 248,89 258,91 253,96 256,100 254,110 247,119 238,111 231,111 209,94 197,94 198,101 194,105 184,105 182,102 179,104 164,100 163,97 158,99 154,95 149,96 146,89 143,71 154,70 155,63 151,60 162,59" id="71273" class="commune" fill="steelblue" stroke-width="1" stroke="white" geotype="commune" geoname="Maltat" code_insee="71273" code_canton="7115"/><polygon points="247,119 258,129 249,135 237,137 216,154 199,160 187,149 202,147 198,143 194,143 192,139 188,142 188,139 179,136 197,131 206,124 210,107 203,100 198,101 197,94 209,94 231,111 238,111 247,119" id="71301" class="commune" fill="steelblue" stroke-width="1" stroke="white" geotype="commune" geoname="Mont" code_insee="71301" code_canton="7115"/><polygon points="349,207 360,210 366,213 368,217 375,218 376,223 371,225 376,226 383,233 378,237 380,247 391,253 393,256 388,258 388,261 394,264 393,267 374,275 369,283 356,278 328,278 312,273 314,268 333,256 339,253 340,247 346,247 347,238 352,236 352,213 349,207" id="71325" class="commune" fill="steelblue" stroke-width="1" stroke="white" geotype="commune" geoname="Motte-Saint-Jean" code_insee="71325" code_canton="7115"/><polygon points="284,205 283,208 275,207 284,215 282,222 273,225 272,221 262,215 258,216 254,231 249,236 253,241 237,255 236,255 231,248 238,243 228,235 201,247 201,231 208,223 217,221 228,212 227,207 239,212 245,210 267,197 272,191 275,196 284,198 281,201 286,203 282,207 284,205" id="71348" class="commune" fill="steelblue" stroke-width="1" stroke="white" geotype="commune" geoname="Perrigny-sur-Loire" code_insee="71348" code_canton="7115"/><polygon points="293,283 286,288 259,280 253,273 257,256 250,252 237,255 253,241 249,236 254,231 258,216 262,215 272,221 273,225 282,222 284,215 284,218 291,221 290,232 296,236 293,245 300,246 305,242 310,246 317,245 316,249 319,252 328,251 333,256 314,268 312,273 299,276 293,283" id="71382" class="commune" fill="steelblue" stroke-width="1" stroke="white" geotype="commune" geoname="Saint-Agnan" code_insee="71382" code_canton="7115"/><polygon points="125,188 124,180 143,181 156,179 163,186 173,187 183,195 184,198 180,201 150,213 126,211 122,214 118,211 126,205 128,198 125,188" id="71389" class="commune" fill="steelblue" stroke-width="1" stroke="white" geotype="commune" geoname="Saint-Aubin-sur-Loire" code_insee="71389" code_canton="7115"/><polygon points="403,312 408,315 413,313 417,315 433,315 433,320 447,328 463,329 463,331 470,330 474,341 467,342 469,347 458,348 458,350 452,348 440,350 425,357 418,346 397,347 389,337 407,330 399,320 403,312" id="71557" class="commune" fill="steelblue" stroke-width="1" stroke="white" geotype="commune" geoname="Varenne-Saint-Germain" code_insee="71557" code_canton="7115"/><polygon points="146,89 132,94 131,100 123,100 119,103 113,99 82,104 78,97 52,86 53,74 35,69 66,55 68,58 87,63 98,65 103,63 110,66 126,64 124,56 141,51 162,56 162,59 151,60 155,63 154,70 143,71 146,89" id="71589" class="commune" fill="steelblue" stroke-width="1" stroke="white" geotype="commune" geoname="Vitry-sur-Loire" code_insee="71589" code_canton="7115"/></svg>