<?xml version="1.0" encoding="utf-8"?>
<svg version="1.1" id="svgmap" xmlns="http://www.w3.org/2000/svg" xmlns:xlink="http://www.w3.org/1999/xlink" x="0px" y="0px" width="100%" height="100%" viewBox="0 0 500 437">
<polygon points="235,206 231,214 240,216 222,229 219,244 180,236 164,225 149,227 119,207 118,195 132,182 140,187 139,196 151,196 152,187 140,181 158,171 149,162 163,154 172,156 181,159 180,170 187,163 203,172 240,178 235,206" id="71016" class="commune" fill="steelblue" stroke-width="1" stroke="white" geotype="commune" geoname="Azé" code_insee="71016" code_canton="7119"/><polygon points="79,338 61,304 71,301 71,295 76,300 85,296 81,284 99,292 97,308 118,313 121,338 120,355 104,355 79,338" id="71032" class="commune" fill="steelblue" stroke-width="1" stroke="white" geotype="commune" geoname="Berzé-la-Ville" code_insee="71032" code_canton="7119"/><polygon points="218,77 223,78 225,74 227,76 230,70 233,72 236,74 235,79 247,89 271,93 271,97 274,98 274,101 279,115 272,120 248,116 233,108 236,106 224,103 219,111 201,121 209,93 201,83 218,77" id="71035" class="commune" fill="steelblue" stroke-width="1" stroke="white" geotype="commune" geoname="Bissy-la-Mâconnaise" code_insee="71035" code_canton="7119"/><polygon points="313,152 331,123 346,117 363,117 357,143 332,160 313,152" id="71066" class="commune" fill="steelblue" stroke-width="1" stroke="white" geotype="commune" geoname="Burgy" code_insee="71066" code_canton="7119"/><polygon points="99,407 98,407 87,400 92,392 77,384 80,376 86,369 108,367 148,392 120,407 99,407" id="71069" class="commune" fill="steelblue" stroke-width="1" stroke="white" geotype="commune" geoname="Bussières" code_insee="71069" code_canton="7119"/><polygon points="324,263 325,260 334,263 339,258 358,265 370,275 357,303 337,301 342,305 322,307 324,301 316,299 324,263" id="71099" class="commune" fill="steelblue" stroke-width="1" stroke="white" geotype="commune" geoname="Charbonnières" code_insee="71099" code_canton="7119"/><polygon points="244,408 244,409 219,411 213,394 201,395 209,370 222,357 247,365 244,408" id="71126" class="commune" fill="steelblue" stroke-width="1" stroke="white" geotype="commune" geoname="Chevagny-les-Chevrières" code_insee="71126" code_canton="7119"/><polygon points="324,263 298,254 278,254 284,215 296,216 294,205 311,199 321,201 330,192 335,188 331,195 339,197 345,190 351,191 377,211 361,219 352,231 339,258 334,263 325,260 324,263" id="71135" class="commune" fill="steelblue" stroke-width="1" stroke="white" geotype="commune" geoname="Clessé" code_insee="71135" code_canton="7119"/><polygon points="295,38 295,42 297,42 293,50 300,51 299,55 305,62 299,70 292,71 291,80 297,88 296,91 291,92 290,98 283,96 274,101 274,98 271,97 271,93 247,89 235,79 236,74 233,72 230,70 227,76 225,74 223,78 218,77 211,71 213,53 201,46 201,35 207,36 213,43 220,44 222,40 229,37 235,22 232,15 226,8 215,6 210,0 216,6 229,7 241,13 245,6 255,9 255,19 242,37 242,42 250,38 269,40 282,35 295,38" id="71156" class="commune" fill="steelblue" stroke-width="1" stroke="white" geotype="commune" geoname="Cruzille" code_insee="71156" code_canton="7119"/><polygon points="305,362 308,375 302,379 299,400 284,409 280,412 261,402 261,408 244,408 247,365 261,324 304,336 289,348 305,362" id="71235" class="commune" fill="steelblue" stroke-width="1" stroke="white" geotype="commune" geoname="Hurigny" code_insee="71235" code_canton="7119"/><polygon points="119,207 149,227 164,225 180,236 219,244 229,253 213,259 208,274 219,289 183,289 177,284 167,288 142,282 128,275 116,254 85,241 108,211 119,207" id="71236" class="commune" fill="steelblue" stroke-width="1" stroke="white" geotype="commune" geoname="Igé" code_insee="71236" code_canton="7119"/><polygon points="261,324 250,322 249,295 266,286 273,272 261,261 271,255 278,258 278,254 298,254 324,263 316,299 324,301 322,307 315,329 304,336 261,324" id="71250" class="commune" fill="steelblue" stroke-width="1" stroke="white" geotype="commune" geoname="Laizé" code_insee="71250" code_canton="7119"/><polygon points="274,101 283,96 290,98 291,92 296,91 297,88 291,80 292,71 299,70 305,62 326,64 332,71 357,72 368,77 370,84 371,113 363,117 346,117 331,123 313,152 288,151 279,156 269,150 281,134 264,127 272,120 279,115 274,101" id="71267" class="commune" fill="steelblue" stroke-width="1" stroke="white" geotype="commune" geoname="Lugny" code_insee="71267" code_canton="7119"/><polygon points="79,338 104,355 103,361 112,364 108,367 86,369 80,376 66,375 56,363 72,339 79,338" id="71299" class="commune" fill="steelblue" stroke-width="1" stroke="white" geotype="commune" geoname="Milly-Lamartine" code_insee="71299" code_canton="7119"/><polygon points="500,108 500,142 463,175 445,170 450,158 423,158 415,149 391,150 389,144 366,143 361,148 357,143 363,117 371,113 370,84 379,75 389,85 396,81 433,97 444,99 454,94 463,101 500,108" id="71305" class="commune" fill="steelblue" stroke-width="1" stroke="white" geotype="commune" geoname="Montbellet" code_insee="71305" code_canton="7119"/><polygon points="235,206 240,178 269,150 279,156 288,151 313,152 332,160 323,186 330,192 321,201 311,199 294,205 296,216 284,215 235,206" id="71345" class="commune" fill="steelblue" stroke-width="1" stroke="white" geotype="commune" geoname="Péronne" code_insee="71345" code_canton="7119"/><polygon points="120,407 148,392 156,391 160,383 166,382 159,370 181,374 209,370 201,395 213,394 219,411 244,409 245,429 204,428 198,430 200,434 180,437 174,437 175,431 155,428 148,432 137,415 124,414 120,407" id="71360" class="commune" fill="steelblue" stroke-width="1" stroke="white" geotype="commune" geoname="Prissé" code_insee="71360" code_canton="7119"/><polygon points="247,365 222,357 209,370 181,374 159,370 166,382 160,383 156,391 148,392 108,367 112,364 103,361 104,355 120,355 121,338 136,345 145,341 161,344 192,340 206,346 217,328 238,321 248,326 250,322 261,324 247,365" id="71371" class="commune" fill="steelblue" stroke-width="1" stroke="white" geotype="commune" geoname="Roche-Vineuse" code_insee="71371" code_canton="7119"/><polygon points="455,189 456,210 451,228 427,228 424,234 403,229 383,239 352,231 361,219 377,211 403,213 411,201 418,201 450,203 455,189" id="71383" class="commune" fill="steelblue" stroke-width="1" stroke="white" geotype="commune" geoname="Saint-Albain" code_insee="71383" code_canton="7119"/><polygon points="240,178 203,172 187,163 180,170 181,159 172,156 178,147 173,141 182,136 198,137 201,121 219,111 224,103 236,106 233,108 248,116 272,120 264,127 281,134 269,150 240,178" id="71416" class="commune" fill="steelblue" stroke-width="1" stroke="white" geotype="commune" geoname="Saint-Gengoux-de-Scissé" code_insee="71416" code_canton="7119"/><polygon points="407,308 393,323 377,316 367,320 358,317 357,303 370,275 422,290 407,308" id="71448" class="commune" fill="steelblue" stroke-width="1" stroke="white" geotype="commune" geoname="Saint-Martin-Belle-Roche" code_insee="71448" code_canton="7119"/><polygon points="219,244 222,229 240,216 231,214 235,206 284,215 278,254 278,258 271,255 261,261 273,272 266,286 249,295 237,291 228,294 219,289 208,274 213,259 229,253 219,244" id="71460" class="commune" fill="steelblue" stroke-width="1" stroke="white" geotype="commune" geoname="Saint-Maurice-de-Satonnay" code_insee="71460" code_canton="7119"/><polygon points="451,228 449,255 412,256 377,251 358,265 339,258 352,231 383,239 403,229 424,234 427,228 451,228" id="71494" class="commune" fill="steelblue" stroke-width="1" stroke="white" geotype="commune" geoname="Salle" code_insee="71494" code_canton="7119"/><polygon points="449,256 422,290 370,275 358,265 377,251 412,256 449,255 449,256" id="71513" class="commune" fill="steelblue" stroke-width="1" stroke="white" geotype="commune" geoname="Senozan" code_insee="71513" code_canton="7119"/><polygon points="0,263 6,258 54,281 59,296 53,297 61,304 79,338 72,339 56,363 12,353 7,341 19,310 12,303 15,288 5,283 8,275 0,263" id="71525" class="commune" fill="steelblue" stroke-width="1" stroke="white" geotype="commune" geoname="Sologny" code_insee="71525" code_canton="7119"/><polygon points="81,284 87,258 80,256 85,241 116,254 128,275 142,282 167,288 177,284 183,289 219,289 228,294 237,291 249,295 250,322 248,326 238,321 217,328 206,346 192,340 161,344 145,341 136,345 121,338 118,313 97,308 99,292 81,284" id="71574" class="commune" fill="steelblue" stroke-width="1" stroke="white" geotype="commune" geoname="Verzé" code_insee="71574" code_canton="7119"/><polygon points="332,160 357,143 361,148 366,143 389,144 391,150 415,149 423,158 422,171 402,180 419,192 418,201 411,201 403,213 377,211 351,191 345,190 339,197 331,195 335,188 330,192 323,186 332,160" id="71584" class="commune" fill="steelblue" stroke-width="1" stroke="white" geotype="commune" geoname="Viré" code_insee="71584" code_canton="7119"/><polygon points="460,179 455,189 450,203 418,201 419,192 402,180 422,171 423,158 450,158 445,170 463,175 460,179" id="71591" class="commune" fill="steelblue" stroke-width="1" stroke="white" geotype="commune" geoname="Fleurville" code_insee="71591" code_canton="7119"/></svg>