<?xml version="1.0" encoding="utf-8"?>
<svg version="1.1" id="svgmap" xmlns="http://www.w3.org/2000/svg" xmlns:xlink="http://www.w3.org/1999/xlink" x="0px" y="0px" width="100%" height="100%" viewBox="0 0 500 406">
<polygon points="250,128 256,139 270,143 271,147 286,139 317,142 317,146 331,153 329,160 337,167 350,164 357,167 382,158 390,171 381,187 346,185 341,201 307,194 304,203 297,204 306,207 301,217 276,212 255,199 250,199 249,213 241,214 232,213 227,204 219,210 201,198 208,191 215,195 234,163 224,161 232,153 219,150 231,134 250,128" id="71002" class="commune" fill="steelblue" stroke-width="1" stroke="white" geotype="commune" geoname="Abergement-Sainte-Colombe" code_insee="71002" code_canton="7124"/><polygon points="165,128 144,125 130,113 133,107 107,99 77,70 107,56 118,36 128,30 140,35 147,46 149,57 138,65 144,71 148,74 176,72 184,76 183,84 192,86 202,125 179,131 165,128" id="71004" class="commune" fill="steelblue" stroke-width="1" stroke="white" geotype="commune" geoname="Allériot" code_insee="71004" code_canton="7124"/><polygon points="292,364 268,364 268,373 288,387 266,405 213,406 179,365 154,369 168,311 205,313 238,284 260,300 265,290 285,288 288,283 302,293 302,334 287,342 295,350 287,355 292,364" id="71023" class="commune" fill="steelblue" stroke-width="1" stroke="white" geotype="commune" geoname="Baudrières" code_insee="71023" code_canton="7124"/><polygon points="52,91 65,85 77,70 107,99 133,107 130,113 124,118 68,107 53,114 39,106 18,113 1,101 0,89 18,79 52,91" id="71117" class="commune" fill="steelblue" stroke-width="1" stroke="white" geotype="commune" geoname="Châtenoy-en-Bresse" code_insee="71117" code_canton="7124"/><polygon points="250,128 262,98 277,102 287,90 304,89 323,121 317,142 286,139 271,147 270,143 256,139 250,128" id="71228" class="commune" fill="steelblue" stroke-width="1" stroke="white" geotype="commune" geoname="Guerfand" code_insee="71228" code_canton="7124"/><polygon points="162,152 156,165 144,171 132,177 118,168 85,179 85,183 74,179 67,158 56,159 45,149 64,129 80,125 91,132 101,131 119,138 128,148 162,152" id="71253" class="commune" fill="steelblue" stroke-width="1" stroke="white" geotype="commune" geoname="Lans" code_insee="71253" code_canton="7124"/><polygon points="306,207 297,204 304,203 307,194 341,201 346,185 381,187 390,171 414,175 420,181 443,183 445,205 434,214 440,228 447,225 449,229 446,236 442,236 442,232 424,227 425,222 411,224 394,218 393,208 387,203 360,209 352,202 306,207" id="71256" class="commune" fill="steelblue" stroke-width="1" stroke="white" geotype="commune" geoname="Lessard-en-Bresse" code_insee="71256" code_canton="7124"/><polygon points="262,98 250,128 231,134 218,131 225,121 202,125 192,86 211,58 209,40 252,69 259,86 254,93 262,98" id="71312" class="commune" fill="steelblue" stroke-width="1" stroke="white" geotype="commune" geoname="Montcoy" code_insee="71312" code_canton="7124"/><polygon points="130,113 144,125 165,128 162,152 128,148 119,138 101,131 91,132 80,125 64,129 68,107 124,118 130,113" id="71333" class="commune" fill="steelblue" stroke-width="1" stroke="white" geotype="commune" geoname="Oslon" code_insee="71333" code_canton="7124"/><polygon points="119,290 102,261 87,252 53,235 88,222 83,218 85,183 85,179 118,168 132,177 144,171 151,183 134,192 143,194 142,201 183,218 195,219 209,209 207,221 216,224 206,229 208,237 194,248 186,247 186,267 181,273 161,280 158,290 145,294 129,287 119,290" id="71336" class="commune" fill="steelblue" stroke-width="1" stroke="white" geotype="commune" geoname="Ouroux-sur-Saône" code_insee="71336" code_canton="7124"/><polygon points="144,171 156,165 162,152 165,128 179,131 202,125 225,121 218,131 231,134 219,150 232,153 224,161 234,163 215,195 208,191 201,198 219,210 227,204 232,213 241,214 249,213 250,199 255,199 276,212 301,217 307,227 313,227 301,236 280,238 277,251 242,255 230,246 231,240 221,240 226,234 208,237 206,229 216,224 207,221 209,209 195,219 183,218 142,201 143,194 134,192 151,183 144,171" id="71398" class="commune" fill="steelblue" stroke-width="1" stroke="white" geotype="commune" geoname="Saint-Christophe-en-Bresse" code_insee="71398" code_canton="7124"/><polygon points="121,303 119,290 129,287 145,294 158,290 161,280 181,273 186,267 186,247 194,248 208,237 226,234 221,240 231,240 230,246 242,255 277,251 292,255 292,262 305,267 284,277 288,283 285,288 265,290 260,300 238,284 205,313 168,311 154,369 142,369 121,303" id="71420" class="commune" fill="steelblue" stroke-width="1" stroke="white" geotype="commune" geoname="Saint-Germain-du-Plain" code_insee="71420" code_canton="7124"/><polygon points="382,158 357,167 350,164 337,167 329,160 331,153 317,146 317,142 323,121 304,89 287,90 277,102 262,98 254,93 259,86 252,69 270,44 293,42 300,44 307,36 324,32 334,20 342,22 342,9 359,0 367,9 371,1 414,11 411,5 417,4 430,19 432,40 426,50 410,51 412,59 398,60 398,67 388,73 390,91 405,90 389,109 375,125 381,139 395,147 390,152 396,160 382,158" id="71456" class="commune" fill="steelblue" stroke-width="1" stroke="white" geotype="commune" geoname="Saint-Martin-en-Bresse" code_insee="71456" code_canton="7124"/><polygon points="301,217 306,207 352,202 360,209 387,203 393,208 394,218 411,224 425,222 424,227 442,232 442,236 426,242 418,252 377,255 389,248 388,244 364,236 359,227 347,222 325,229 313,227 307,227 301,217" id="71548" class="commune" fill="steelblue" stroke-width="1" stroke="white" geotype="commune" geoname="Tronchy" code_insee="71548" code_canton="7124"/><polygon points="500,90 461,107 424,111 421,115 389,109 405,90 390,91 388,73 398,67 398,60 412,59 410,51 426,50 432,40 438,39 443,48 432,60 433,69 442,76 465,77 477,87 484,88 486,82 500,90" id="71577" class="commune" fill="steelblue" stroke-width="1" stroke="white" geotype="commune" geoname="Villegaudin" code_insee="71577" code_canton="7124"/></svg>