<?xml version="1.0" encoding="utf-8"?>
<svg version="1.1" id="svgmap" xmlns="http://www.w3.org/2000/svg" xmlns:xlink="http://www.w3.org/1999/xlink" x="0px" y="0px" width="100%" height="100%" viewBox="0 0 500 293">
<polygon points="340,231 343,237 336,250 351,253 349,256 341,255 340,259 335,259 336,264 324,267 312,277 300,274 297,279 288,280 281,293 275,293 271,284 278,279 278,271 270,261 263,260 259,243 292,232 293,224 320,218 327,225 320,228 327,238 340,231" id="72007" class="commune" fill="steelblue" stroke-width="1" stroke="white" geotype="commune" geoname="Ardenay-sur-Mérize" code_insee="72007" code_canton="7219"/><polygon points="349,256 351,253 336,250 343,237 340,231 355,231 358,224 368,224 394,233 423,232 431,233 436,241 474,223 485,230 469,238 465,245 472,247 493,242 500,255 471,269 455,266 450,269 444,267 401,268 397,266 390,270 390,273 380,275 351,267 352,259 344,261 349,256" id="72046" class="commune" fill="steelblue" stroke-width="1" stroke="white" geotype="commune" geoname="Breil-sur-Mérize" code_insee="72046" code_canton="7219"/><polygon points="385,131 390,136 396,135 401,142 398,144 404,146 430,140 412,151 417,152 408,171 388,186 371,182 366,191 340,204 304,184 325,178 324,156 345,150 344,141 338,139 351,126 369,125 380,132 385,131" id="72090" class="commune" fill="steelblue" stroke-width="1" stroke="white" geotype="commune" geoname="Connerré" code_insee="72090" code_canton="7219"/><polygon points="170,185 144,181 126,183 120,164 158,155 174,154 179,161 194,165 194,168 170,185" id="72129" class="commune" fill="steelblue" stroke-width="1" stroke="white" geotype="commune" geoname="Fatines" code_insee="72129" code_canton="7219"/><polygon points="307,82 310,97 325,98 348,109 341,125 351,126 338,139 344,141 345,150 324,156 321,141 315,139 290,151 287,128 280,128 283,123 265,128 265,133 257,134 247,127 239,127 229,121 199,120 213,100 214,86 220,86 222,78 230,73 247,64 253,71 272,69 273,86 296,78 307,82" id="72165" class="commune" fill="steelblue" stroke-width="1" stroke="white" geotype="commune" geoname="Lombron" code_insee="72165" code_canton="7219"/><polygon points="423,232 394,233 368,224 364,219 375,208 372,202 379,195 370,196 366,191 371,182 388,186 404,196 407,211 423,232" id="72224" class="commune" fill="steelblue" stroke-width="1" stroke="white" geotype="commune" geoname="Nuillé-le-Jalais" code_insee="72224" code_canton="7219"/><polygon points="324,156 325,178 304,184 278,187 268,188 261,177 249,175 247,180 244,180 233,165 213,156 218,154 215,149 203,149 199,141 194,141 196,130 187,123 199,120 229,121 239,127 247,127 257,134 265,133 265,128 283,123 280,128 287,128 290,151 315,139 321,141 324,156" id="72241" class="commune" fill="steelblue" stroke-width="1" stroke="white" geotype="commune" geoname="Montfort-le-Gesnois" code_insee="72241" code_canton="7219"/><polygon points="320,11 341,7 359,16 360,23 351,22 349,30 339,34 343,48 331,54 336,58 333,66 324,75 320,74 319,79 307,79 307,82 296,78 273,86 272,69 277,67 263,53 271,52 271,46 273,49 283,44 280,40 295,24 323,16 320,11" id="72271" class="commune" fill="steelblue" stroke-width="1" stroke="white" geotype="commune" geoname="Saint-Célerin" code_insee="72271" code_canton="7219"/><polygon points="174,154 158,155 155,150 138,142 129,145 129,126 143,118 136,112 143,98 183,100 214,86 213,100 199,120 187,123 189,146 174,154" id="72275" class="commune" fill="steelblue" stroke-width="1" stroke="white" geotype="commune" geoname="Saint-Corneille" code_insee="72275" code_canton="7219"/><polygon points="293,224 292,232 259,243 263,260 262,267 248,279 193,278 178,274 188,264 186,255 190,243 197,247 204,245 201,242 204,241 180,202 172,198 172,194 167,196 170,185 194,168 194,165 179,161 174,154 189,146 187,123 196,130 194,141 199,141 203,149 215,149 218,154 213,156 233,165 244,180 247,180 249,175 261,177 268,188 278,187 261,204 275,210 287,207 293,224" id="72300" class="commune" fill="steelblue" stroke-width="1" stroke="white" geotype="commune" geoname="Saint-Mars-la-Brière" code_insee="72300" code_canton="7219"/><polygon points="33,82 61,83 83,79 85,86 100,86 101,68 111,61 130,63 132,72 146,81 133,92 143,98 136,112 143,118 129,126 129,145 115,148 116,153 105,158 87,158 62,165 58,159 65,154 62,147 52,150 25,148 36,141 41,129 32,116 25,114 25,106 13,107 0,104 33,82" id="72329" class="commune" fill="steelblue" stroke-width="1" stroke="white" geotype="commune" geoname="Savigné-l'Évêque" code_insee="72329" code_canton="7219"/><polygon points="230,73 222,78 220,86 214,86 183,100 143,98 133,92 146,81 132,72 130,63 141,58 153,58 164,66 172,59 177,62 202,60 223,63 230,57 230,73" id="72335" class="commune" fill="steelblue" stroke-width="1" stroke="white" geotype="commune" geoname="Sillé-le-Philippe" code_insee="72335" code_canton="7219"/><polygon points="340,231 327,238 320,228 327,225 320,218 293,224 287,207 275,210 261,204 278,187 304,184 340,204 366,191 370,196 379,195 372,202 375,208 364,219 368,224 358,224 355,231 340,231" id="72341" class="commune" fill="steelblue" stroke-width="1" stroke="white" geotype="commune" geoname="Soulitré" code_insee="72341" code_canton="7219"/><polygon points="312,277 324,267 336,264 335,259 340,259 341,255 349,256 344,261 352,259 351,267 380,275 390,273 390,270 396,272 399,287 391,287 391,291 369,284 334,284 315,280 312,277" id="72345" class="commune" fill="steelblue" stroke-width="1" stroke="white" geotype="commune" geoname="Surfonds" code_insee="72345" code_canton="7219"/><polygon points="262,8 269,14 278,0 283,1 289,11 298,7 311,13 320,11 323,16 295,24 280,40 283,44 273,49 271,46 271,52 263,53 277,67 272,69 253,71 247,64 230,73 230,57 223,63 202,60 177,62 172,59 211,17 232,19 245,15 252,17 255,10 262,8" id="72359" class="commune" fill="steelblue" stroke-width="1" stroke="white" geotype="commune" geoname="Torcé-en-Vallée" code_insee="72359" code_canton="7219"/></svg>