<?xml version="1.0" encoding="utf-8"?>
<svg version="1.1" id="svgmap" xmlns="http://www.w3.org/2000/svg" xmlns:xlink="http://www.w3.org/1999/xlink" x="0px" y="0px" width="100%" height="100%" viewBox="0 0 422 500">
<polygon points="171,160 168,215 112,214 109,227 98,232 29,219 31,215 82,156 171,160" id="73050" class="commune" fill="steelblue" stroke-width="1" stroke="white" geotype="commune" geoname="Bourdeau" code_insee="73050" code_canton="7312"/><polygon points="6,283 16,246 29,219 98,232 109,227 112,214 168,215 166,240 159,246 185,261 208,288 192,294 149,298 126,287 121,323 102,361 7,356 6,283" id="73051" class="commune" fill="steelblue" stroke-width="1" stroke="white" geotype="commune" geoname="Bourget-du-Lac" code_insee="73051" code_canton="7312"/><polygon points="134,34 158,91 171,160 82,156 88,117 59,68 44,47 57,46 40,17 48,0 84,41 134,34" id="73076" class="commune" fill="steelblue" stroke-width="1" stroke="white" geotype="commune" geoname="Chapelle-du-Mont-du-Chat" code_insee="73076" code_canton="7312"/><polygon points="290,201 294,207 307,206 358,191 415,224 422,245 413,253 413,281 387,278 390,269 312,256 268,279 252,225 272,223 277,206 290,201" id="73103" class="commune" fill="steelblue" stroke-width="1" stroke="white" geotype="commune" geoname="Drumettaz-Clarafond" code_insee="73103" code_canton="7312"/><polygon points="268,279 312,256 390,269 387,278 339,367 317,365 319,348 303,341 267,286 268,279" id="73155" class="commune" fill="steelblue" stroke-width="1" stroke="white" geotype="commune" geoname="Méry" code_insee="73155" code_canton="7312"/><polygon points="6,461 1,386 0,367 7,356 102,361 121,323 126,287 149,298 192,294 191,317 161,326 190,363 212,412 199,415 204,430 164,448 155,484 129,485 111,499 97,500 87,460 58,473 22,473 24,462 6,461" id="73179" class="commune" fill="steelblue" stroke-width="1" stroke="white" geotype="commune" geoname="Motte-Servolex" code_insee="73179" code_canton="7312"/><polygon points="250,226 252,225 268,279 267,286 259,292 264,302 239,305 208,288 185,261 159,246 166,240 234,243 250,226" id="73328" class="commune" fill="steelblue" stroke-width="1" stroke="white" geotype="commune" geoname="Viviers-du-Lac" code_insee="73328" code_canton="7312"/><polygon points="192,294 208,288 239,305 246,350 232,352 229,362 190,363 161,326 191,317 192,294" id="73329" class="commune" fill="steelblue" stroke-width="1" stroke="white" geotype="commune" geoname="Voglans" code_insee="73329" code_canton="7312"/></svg>