<?xml version="1.0" encoding="utf-8"?>
<svg version="1.1" id="svgmap" xmlns="http://www.w3.org/2000/svg" xmlns:xlink="http://www.w3.org/1999/xlink" x="0px" y="0px" width="100%" height="100%" viewBox="0 0 500 301">
<polygon points="83,260 89,258 105,238 123,235 139,236 153,226 161,228 175,224 178,230 195,233 204,251 219,253 226,260 237,263 237,279 246,284 233,293 208,284 149,301 130,274 133,270 115,251 109,251 106,243 106,253 98,261 88,264 83,260" id="74011" class="commune" fill="steelblue" stroke-width="1" stroke="white" geotype="commune" geoname="Annecy-le-Vieux" code_insee="74011" code_canton="7403"/><polygon points="161,228 153,226 139,236 123,235 113,222 122,208 130,204 143,202 168,190 182,195 177,203 180,209 161,228" id="74019" class="commune" fill="steelblue" stroke-width="1" stroke="white" geotype="commune" geoname="Argonay" code_insee="74019" code_canton="7403"/><polygon points="243,184 236,168 255,145 260,125 283,128 300,135 349,141 353,146 337,171 353,185 380,189 380,196 366,203 349,195 314,198 314,192 301,189 276,172 243,184" id="74022" class="commune" fill="steelblue" stroke-width="1" stroke="white" geotype="commune" geoname="Aviernoz" code_insee="74022" code_canton="7403"/><polygon points="151,126 172,130 189,140 180,156 181,174 146,179 152,154 139,145 139,139 150,134 151,126" id="74062" class="commune" fill="steelblue" stroke-width="1" stroke="white" geotype="commune" geoname="Charvonnex" code_insee="74062" code_canton="7403"/><polygon points="6,206 8,194 21,184 27,183 28,189 46,193 62,230 49,249 40,259 23,249 27,237 0,228 35,215 6,206" id="74112" class="commune" fill="steelblue" stroke-width="1" stroke="white" geotype="commune" geoname="Épagny" code_insee="74112" code_canton="7403"/><polygon points="327,57 329,64 313,72 298,91 254,101 244,99 243,93 245,79 251,75 239,71 248,57 240,58 245,48 227,43 231,39 225,32 242,17 235,14 238,6 246,2 256,7 269,0 279,6 285,3 296,6 304,13 317,9 320,13 306,19 305,26 321,38 316,45 327,57" id="74120" class="commune" fill="steelblue" stroke-width="1" stroke="white" geotype="commune" geoname="Évires" code_insee="74120" code_canton="7403"/><polygon points="189,140 172,130 151,126 146,115 126,104 147,85 153,67 189,52 201,51 207,43 227,43 245,48 240,58 248,57 239,71 251,75 245,79 243,93 244,99 254,101 243,121 215,119 198,128 189,140" id="74137" class="commune" fill="steelblue" stroke-width="1" stroke="white" geotype="commune" geoname="Groisy" code_insee="74137" code_canton="7403"/><polygon points="105,238 89,258 57,242 49,249 62,230 46,193 58,193 66,204 86,216 84,221 99,227 105,238" id="74181" class="commune" fill="steelblue" stroke-width="1" stroke="white" geotype="commune" geoname="Metz-Tessy" code_insee="74181" code_canton="7403"/><polygon points="226,260 219,253 204,251 195,233 218,230 231,216 237,222 264,225 258,257 240,254 226,260" id="74198" class="commune" fill="steelblue" stroke-width="1" stroke="white" geotype="commune" geoname="Nâves-Parmelan" code_insee="74198" code_canton="7403"/><polygon points="260,125 255,145 236,168 243,184 230,188 207,184 183,192 181,174 180,156 189,140 198,128 215,119 243,121 260,125" id="74204" class="commune" fill="steelblue" stroke-width="1" stroke="white" geotype="commune" geoname="Ollières" code_insee="74204" code_canton="7403"/><polygon points="21,184 31,168 44,163 54,169 69,171 72,180 74,184 133,197 130,204 122,208 113,222 123,235 105,238 99,227 84,221 86,216 66,204 58,193 46,193 28,189 27,183 21,184" id="74217" class="commune" fill="steelblue" stroke-width="1" stroke="white" geotype="commune" geoname="Pringy" code_insee="74217" code_canton="7403"/><polygon points="103,150 114,151 107,133 129,132 139,139 139,145 152,154 146,179 181,174 183,192 182,195 168,190 143,202 130,204 133,197 74,184 72,180 82,173 96,172 99,180 110,184 119,165 112,157 102,157 103,150" id="74245" class="commune" fill="steelblue" stroke-width="1" stroke="white" geotype="commune" geoname="Saint-Martin-Bellevue" code_insee="74245" code_canton="7403"/><polygon points="494,111 500,140 458,168 489,209 476,224 437,212 366,203 380,196 380,189 353,185 337,171 353,146 349,141 300,135 283,128 260,125 243,121 254,101 298,91 313,72 329,64 358,76 389,69 417,72 494,111" id="74282" class="commune" fill="steelblue" stroke-width="1" stroke="white" geotype="commune" geoname="Thorens-Glières" code_insee="74282" code_canton="7403"/><polygon points="195,233 178,230 175,224 161,228 180,209 177,203 182,195 183,192 207,184 230,188 243,184 276,172 301,189 314,192 314,198 300,215 278,216 264,225 237,222 231,216 218,230 195,233" id="74303" class="commune" fill="steelblue" stroke-width="1" stroke="white" geotype="commune" geoname="Villaz" code_insee="74303" code_canton="7403"/></svg>