<?xml version="1.0" encoding="utf-8"?>
<svg version="1.1" id="svgmap" xmlns="http://www.w3.org/2000/svg" xmlns:xlink="http://www.w3.org/1999/xlink" x="0px" y="0px" width="100%" height="100%" viewBox="0 0 500 270">
<polygon points="166,145 162,147 155,143 143,131 121,127 122,120 113,111 119,103 124,99 142,111 157,113 167,119 177,119 177,122 173,124 174,127 160,129 171,140 166,145" id="74064" class="commune" fill="steelblue" stroke-width="1" stroke="white" geotype="commune" geoname="Châtillon-sur-Cluses" code_insee="74064" code_canton="7406"/><polygon points="177,172 168,171 165,176 148,170 143,161 134,163 133,156 123,146 109,140 121,134 117,133 121,127 143,131 155,143 162,147 166,145 170,153 164,156 175,162 177,172" id="74081" class="commune" fill="steelblue" stroke-width="1" stroke="white" geotype="commune" geoname="Cluses" code_insee="74081" code_canton="7406"/><polygon points="69,197 62,191 77,162 68,159 66,153 79,141 72,141 91,137 98,139 105,155 94,166 80,192 69,197" id="74169" class="commune" fill="steelblue" stroke-width="1" stroke="white" geotype="commune" geoname="Marnaz" code_insee="74169" code_canton="7406"/><polygon points="119,103 103,105 98,102 90,103 78,99 62,87 60,81 57,82 57,77 44,68 39,56 31,51 36,38 43,31 61,39 83,35 111,22 113,10 122,0 127,15 115,20 112,25 134,26 139,32 138,36 135,37 139,40 146,37 146,31 163,30 168,34 166,38 142,40 138,54 128,57 126,64 141,79 131,86 124,99 119,103" id="74183" class="commune" fill="steelblue" stroke-width="1" stroke="white" geotype="commune" geoname="Mieussy" code_insee="74183" code_canton="7406"/><polygon points="8,161 2,156 13,155 33,150 41,154 59,151 66,153 68,159 77,162 62,191 69,197 50,203 35,213 18,216 13,222 0,209 1,197 10,173 8,161" id="74189" class="commune" fill="steelblue" stroke-width="1" stroke="white" geotype="commune" geoname="Mont-Saxonnex" code_insee="74189" code_canton="7406"/><polygon points="273,186 261,182 253,183 239,175 238,161 219,142 238,118 244,123 261,125 273,128 264,135 266,141 260,147 260,160 263,163 270,162 276,172 273,186" id="74190" class="commune" fill="steelblue" stroke-width="1" stroke="white" geotype="commune" geoname="Morillon" code_insee="74190" code_canton="7406"/><polygon points="134,163 143,161 148,170 165,176 160,180 159,188 163,195 151,204 154,221 136,231 131,225 132,222 120,214 118,204 123,188 120,172 134,163" id="74196" class="commune" fill="steelblue" stroke-width="1" stroke="white" geotype="commune" geoname="Nancy-sur-Cluses" code_insee="74196" code_canton="7406"/><polygon points="69,197 80,192 100,187 106,192 109,188 114,190 123,188 118,204 120,214 132,222 131,225 136,231 133,237 142,241 130,246 132,250 127,253 119,270 97,260 96,251 88,240 73,242 71,245 51,243 13,222 18,216 35,213 50,203 69,197" id="74221" class="commune" fill="steelblue" stroke-width="1" stroke="white" geotype="commune" geoname="Reposoir" code_insee="74221" code_canton="7406"/><polygon points="236,116 238,118 219,142 217,141 204,133 194,122 177,122 177,119 167,119 157,113 197,110 236,116" id="74223" class="commune" fill="steelblue" stroke-width="1" stroke="white" geotype="commune" geoname="Rivière-Enverse" code_insee="74223" code_canton="7406"/><polygon points="217,141 207,149 201,150 193,147 191,150 164,156 170,153 166,145 171,140 160,129 174,127 173,124 177,122 194,122 204,133 217,141" id="74252" class="commune" fill="steelblue" stroke-width="1" stroke="white" geotype="commune" geoname="Saint-Sigismond" code_insee="74252" code_canton="7406"/><polygon points="315,223 313,219 297,213 290,206 293,194 281,186 273,186 276,172 270,162 263,163 260,160 260,147 266,141 264,135 273,128 261,125 273,89 293,78 301,80 313,68 329,55 347,60 352,54 379,50 387,70 398,70 406,78 400,80 404,90 413,95 420,105 389,112 369,139 344,145 322,158 333,172 323,178 332,183 338,195 332,214 325,222 315,223" id="74258" class="commune" fill="steelblue" stroke-width="1" stroke="white" geotype="commune" geoname="Samoëns" code_insee="74258" code_canton="7406"/><polygon points="98,139 109,140 123,146 133,156 134,163 120,172 123,188 114,190 109,188 106,192 100,187 80,192 94,166 105,155 98,139" id="74264" class="commune" fill="steelblue" stroke-width="1" stroke="white" geotype="commune" geoname="Scionzier" code_insee="74264" code_canton="7406"/><polygon points="304,238 315,223 325,222 332,214 338,195 332,183 323,178 333,172 322,158 344,145 369,139 389,112 420,105 413,95 404,90 400,80 406,78 432,74 446,81 470,82 480,85 490,82 500,84 492,95 495,100 492,105 480,116 491,127 487,133 490,139 478,144 470,163 455,172 445,185 447,193 439,201 431,205 430,210 422,216 411,219 410,217 404,218 400,211 393,208 383,211 370,208 366,201 359,202 362,224 373,243 368,249 351,258 336,257 312,259 304,238" id="74273" class="commune" fill="steelblue" stroke-width="1" stroke="white" geotype="commune" geoname="Sixt-Fer-à-Cheval" code_insee="74273" code_canton="7406"/><polygon points="157,113 142,111 124,99 131,86 141,79 126,64 128,57 138,54 142,40 166,38 168,34 183,29 189,32 189,42 185,55 187,63 196,71 193,78 201,78 205,73 209,74 212,72 237,89 243,99 236,116 197,110 157,113" id="74276" class="commune" fill="steelblue" stroke-width="1" stroke="white" geotype="commune" geoname="Taninges" code_insee="74276" code_canton="7406"/><polygon points="90,103 98,102 103,105 119,103 113,111 122,120 121,127 117,133 121,134 109,140 98,139 91,137 72,141 75,119 87,112 90,103" id="74278" class="commune" fill="steelblue" stroke-width="1" stroke="white" geotype="commune" geoname="Thyez" code_insee="74278" code_canton="7406"/><polygon points="238,118 236,116 243,99 237,89 238,85 231,74 239,71 248,70 260,81 278,72 271,57 272,43 295,65 307,63 313,68 301,80 293,78 273,89 261,125 244,123 238,118" id="74294" class="commune" fill="steelblue" stroke-width="1" stroke="white" geotype="commune" geoname="Verchaix" code_insee="74294" code_canton="7406"/></svg>