<?xml version="1.0" encoding="utf-8"?>
<svg version="1.1" id="svgmap" xmlns="http://www.w3.org/2000/svg" xmlns:xlink="http://www.w3.org/1999/xlink" x="0px" y="0px" width="100%" height="100%" viewBox="0 0 500 292">
<polygon points="414,24 427,22 448,41 472,51 460,60 450,74 443,76 426,65 417,52 400,51 400,37 395,31 401,23 416,26 414,24" id="74016" class="commune" fill="steelblue" stroke-width="1" stroke="white" geotype="commune" geoname="Archamps" code_insee="74016" code_canton="7413"/><polygon points="6,213 6,194 31,198 33,202 47,205 58,217 53,220 53,226 35,240 27,231 6,220 6,213" id="74029" class="commune" fill="steelblue" stroke-width="1" stroke="white" geotype="commune" geoname="Bassy" code_insee="74029" code_canton="7413"/><polygon points="426,65 443,76 427,91 422,91 414,102 382,91 382,84 369,81 372,74 378,74 384,69 383,62 390,66 404,56 426,65" id="74031" class="commune" fill="steelblue" stroke-width="1" stroke="white" geotype="commune" geoname="Beaumont" code_insee="74031" code_canton="7413"/><polygon points="441,16 442,11 477,1 480,4 490,0 496,6 500,9 488,24 461,11 453,20 445,20 441,16" id="74044" class="commune" fill="steelblue" stroke-width="1" stroke="white" geotype="commune" geoname="Bossey" code_insee="74044" code_canton="7413"/><polygon points="6,194 0,184 9,173 4,162 19,160 26,162 44,151 50,155 55,159 39,194 31,198 6,194" id="74055" class="commune" fill="steelblue" stroke-width="1" stroke="white" geotype="commune" geoname="Challonges" code_insee="74055" code_canton="7413"/><polygon points="149,133 152,123 142,110 148,106 178,135 198,133 208,140 205,148 216,158 210,171 213,175 203,175 196,172 192,177 184,181 185,166 178,167 164,161 153,148 149,133" id="74065" class="commune" fill="steelblue" stroke-width="1" stroke="white" geotype="commune" geoname="Chaumont" code_insee="74065" code_canton="7413"/><polygon points="265,126 267,130 271,128 281,132 281,128 285,128 288,150 284,154 278,150 268,153 267,149 259,150 255,144 256,136 265,126" id="74066" class="commune" fill="steelblue" stroke-width="1" stroke="white" geotype="commune" geoname="Chavannaz" code_insee="74066" code_canton="7413"/><polygon points="55,159 50,155 53,147 30,133 36,126 48,130 58,119 70,122 80,120 91,130 89,132 96,137 94,148 102,155 102,160 97,158 89,161 76,156 62,159 55,159" id="74068" class="commune" fill="steelblue" stroke-width="1" stroke="white" geotype="commune" geoname="Chêne-en-Semine" code_insee="74068" code_canton="7413"/><polygon points="234,91 223,80 229,55 225,51 233,45 238,47 239,54 247,58 257,76 253,92 234,91" id="74069" class="commune" fill="steelblue" stroke-width="1" stroke="white" geotype="commune" geoname="Chênex" code_insee="74069" code_canton="7413"/><polygon points="149,133 153,148 146,156 117,172 112,174 108,170 117,149 115,143 149,133" id="74071" class="commune" fill="steelblue" stroke-width="1" stroke="white" geotype="commune" geoname="Chessenaz" code_insee="74071" code_canton="7413"/><polygon points="113,51 119,50 130,47 148,45 159,48 151,69 130,83 113,51" id="74074" class="commune" fill="steelblue" stroke-width="1" stroke="white" geotype="commune" geoname="Chevrier" code_insee="74074" code_canton="7413"/><polygon points="235,252 211,248 201,253 203,245 182,228 165,231 149,217 151,202 158,189 169,187 178,190 177,188 179,187 200,200 205,200 205,195 209,200 223,197 222,206 229,213 237,223 235,231 240,238 234,244 235,252" id="74075" class="commune" fill="steelblue" stroke-width="1" stroke="white" geotype="commune" geoname="Chilly" code_insee="74075" code_canton="7413"/><polygon points="148,106 142,110 152,123 149,133 115,143 91,130 80,120 90,109 78,94 100,95 111,91 113,77 103,66 113,51 130,83 136,96 148,106" id="74077" class="commune" fill="steelblue" stroke-width="1" stroke="white" geotype="commune" geoname="Clarafond-Arcine" code_insee="74077" code_canton="7413"/><polygon points="149,217 165,231 157,243 141,247 139,263 134,263 122,254 114,252 116,246 111,246 101,232 104,230 121,230 137,225 142,227 149,217" id="74078" class="commune" fill="steelblue" stroke-width="1" stroke="white" geotype="commune" geoname="Clermont" code_insee="74078" code_canton="7413"/><polygon points="472,51 448,41 427,22 434,15 437,18 441,16 445,20 453,20 461,11 488,24 475,33 472,51" id="74082" class="commune" fill="steelblue" stroke-width="1" stroke="white" geotype="commune" geoname="Collonges-sous-Salève" code_insee="74082" code_canton="7413"/><polygon points="216,158 230,153 237,165 261,179 238,187 220,192 223,197 209,200 205,195 209,180 203,175 213,175 210,171 216,158" id="74086" class="commune" fill="steelblue" stroke-width="1" stroke="white" geotype="commune" geoname="Contamine-Sarzin" code_insee="74086" code_canton="7413"/><polygon points="101,232 97,233 84,233 80,221 59,216 57,210 67,203 64,200 71,199 75,187 80,187 84,181 102,177 108,170 112,174 117,172 119,189 136,191 142,187 142,193 151,202 149,217 142,227 137,225 121,230 104,230 101,232" id="74100" class="commune" fill="steelblue" stroke-width="1" stroke="white" geotype="commune" geoname="Desingy" code_insee="74100" code_canton="7413"/><polygon points="223,80 234,91 233,96 224,97 223,100 215,94 163,99 148,106 136,96 149,94 166,79 198,83 211,79 223,80" id="74101" class="commune" fill="steelblue" stroke-width="1" stroke="white" geotype="commune" geoname="Dingy-en-Vuache" code_insee="74101" code_canton="7413"/><polygon points="97,233 101,232 111,246 116,246 114,252 110,259 106,258 104,269 97,274 87,275 83,252 80,253 97,233" id="74107" class="commune" fill="steelblue" stroke-width="1" stroke="white" geotype="commune" geoname="Droisy" code_insee="74107" code_canton="7413"/><polygon points="80,120 70,122 58,119 48,114 42,101 32,92 21,89 23,78 18,71 33,67 46,74 49,81 65,93 78,94 90,109 80,120" id="74109" class="commune" fill="steelblue" stroke-width="1" stroke="white" geotype="commune" geoname="Éloise" code_insee="74109" code_canton="7413"/><polygon points="372,74 369,81 355,74 341,75 339,84 320,89 316,85 319,78 336,66 335,63 328,63 328,52 334,45 347,35 348,29 360,46 361,55 368,60 360,68 372,74" id="74124" class="commune" fill="steelblue" stroke-width="1" stroke="white" geotype="commune" geoname="Feigères" code_insee="74124" code_canton="7413"/><polygon points="1,148 11,134 30,133 53,147 50,155 44,151 26,162 19,160 4,162 1,148" id="74130" class="commune" fill="steelblue" stroke-width="1" stroke="white" geotype="commune" geoname="Franclens" code_insee="74130" code_canton="7413"/><polygon points="153,148 164,161 178,167 185,166 184,181 169,187 158,189 151,202 142,193 142,187 136,191 119,189 117,172 146,156 153,148" id="74131" class="commune" fill="steelblue" stroke-width="1" stroke="white" geotype="commune" geoname="Frangy" code_insee="74131" code_canton="7413"/><polygon points="234,91 253,92 270,96 264,107 247,116 239,124 225,120 216,121 208,115 206,107 215,94 223,100 224,97 233,96 234,91" id="74144" class="commune" fill="steelblue" stroke-width="1" stroke="white" geotype="commune" geoname="Jonzier-Épagny" code_insee="74144" code_canton="7413"/><polygon points="284,154 281,157 285,160 281,168 263,180 289,186 291,192 285,195 255,194 244,192 238,187 261,179 237,165 230,153 247,152 246,148 255,144 259,150 267,149 268,153 278,150 284,154" id="74168" class="commune" fill="steelblue" stroke-width="1" stroke="white" geotype="commune" geoname="Marlioz" code_insee="74168" code_canton="7413"/><polygon points="165,284 149,284 148,272 143,269 140,270 139,263 141,247 157,243 165,231 182,228 203,245 201,253 194,253 182,264 177,263 174,267 163,268 165,284" id="74178" class="commune" fill="steelblue" stroke-width="1" stroke="white" geotype="commune" geoname="Menthonnex-sous-Clermont" code_insee="74178" code_canton="7413"/><polygon points="230,153 216,158 205,148 208,140 220,135 216,121 225,120 239,124 247,116 264,107 270,96 274,97 267,106 273,109 265,126 256,136 255,144 246,148 247,152 230,153" id="74184" class="commune" fill="steelblue" stroke-width="1" stroke="white" geotype="commune" geoname="Minzier" code_insee="74184" code_canton="7413"/><polygon points="184,181 192,177 196,172 203,175 209,180 205,195 205,200 200,200 179,187 177,188 178,190 169,187 184,181" id="74195" class="commune" fill="steelblue" stroke-width="1" stroke="white" geotype="commune" geoname="Musièges" code_insee="74195" code_canton="7413"/><polygon points="395,31 400,37 400,51 417,52 426,65 404,56 390,66 383,62 384,69 378,74 372,74 360,68 368,60 361,55 360,46 374,32 388,35 391,29 395,31" id="74201" class="commune" fill="steelblue" stroke-width="1" stroke="white" geotype="commune" geoname="Neydens" code_insee="74201" code_canton="7413"/><polygon points="317,94 320,89 339,84 341,75 355,74 369,81 382,84 382,91 414,102 414,102 408,108 386,118 372,109 370,103 356,98 349,100 343,90 335,94 328,93 317,96 317,94" id="74216" class="commune" fill="steelblue" stroke-width="1" stroke="white" geotype="commune" geoname="Présilly" code_insee="74216" code_canton="7413"/><polygon points="11,134 12,130 3,125 8,104 21,89 32,92 42,101 48,114 58,119 48,130 36,126 30,133 11,134" id="74235" class="commune" fill="steelblue" stroke-width="1" stroke="white" geotype="commune" geoname="Saint-Germain-sur-Rhône" code_insee="74235" code_canton="7413"/><polygon points="414,24 416,26 401,23 395,31 391,29 388,35 374,32 360,46 348,29 347,35 334,45 324,32 314,36 311,22 318,10 347,13 369,9 378,19 414,24" id="74243" class="commune" fill="steelblue" stroke-width="1" stroke="white" geotype="commune" geoname="Saint-Julien-en-Genevois" code_insee="74243" code_canton="7413"/><polygon points="148,106 163,99 215,94 206,107 208,115 216,121 220,135 208,140 198,133 178,135 148,106" id="74260" class="commune" fill="steelblue" stroke-width="1" stroke="white" geotype="commune" geoname="Savigny" code_insee="74260" code_canton="7413"/><polygon points="35,254 35,240 53,226 53,220 58,217 59,216 80,221 84,233 97,233 80,253 83,252 87,275 73,292 50,289 41,292 29,284 38,267 35,254" id="74269" class="commune" fill="steelblue" stroke-width="1" stroke="white" geotype="commune" geoname="Seyssel" code_insee="74269" code_canton="7413"/><polygon points="58,217 47,205 33,202 31,198 39,194 55,159 62,159 72,166 74,175 84,181 80,187 75,187 71,199 64,200 67,203 57,210 59,216 58,217" id="74285" class="commune" fill="steelblue" stroke-width="1" stroke="white" geotype="commune" geoname="Usinens" code_insee="74285" code_canton="7413"/><polygon points="233,45 225,51 229,55 223,80 211,79 198,83 201,72 200,58 193,44 196,39 216,35 225,29 232,36 233,45" id="74288" class="commune" fill="steelblue" stroke-width="1" stroke="white" geotype="commune" geoname="Valleiry" code_insee="74288" code_canton="7413"/><polygon points="115,143 117,149 108,170 102,177 84,181 74,175 72,166 62,159 76,156 89,161 97,158 102,160 102,155 94,148 96,137 89,132 91,130 115,143" id="74291" class="commune" fill="steelblue" stroke-width="1" stroke="white" geotype="commune" geoname="Vanzy" code_insee="74291" code_canton="7413"/><polygon points="317,96 320,101 300,105 290,101 279,101 273,109 267,106 274,97 270,96 253,92 257,76 276,75 279,68 280,81 303,84 303,93 317,94 317,96" id="74296" class="commune" fill="steelblue" stroke-width="1" stroke="white" geotype="commune" geoname="Vers" code_insee="74296" code_canton="7413"/><polygon points="320,89 317,94 303,93 303,84 280,81 279,68 276,75 257,76 247,58 239,54 238,47 233,45 232,36 225,29 229,20 243,18 255,22 270,20 287,24 296,32 301,25 311,22 314,36 324,32 334,45 328,52 328,63 335,63 336,66 319,78 316,85 320,89" id="74309" class="commune" fill="steelblue" stroke-width="1" stroke="white" geotype="commune" geoname="Viry" code_insee="74309" code_canton="7413"/><polygon points="194,34 196,39 193,44 200,58 201,72 198,83 166,79 149,94 136,96 130,83 151,69 159,48 148,45 130,47 144,37 157,36 169,40 194,34" id="74314" class="commune" fill="steelblue" stroke-width="1" stroke="white" geotype="commune" geoname="Vulbens" code_insee="74314" code_canton="7413"/></svg>