<?xml version="1.0" encoding="utf-8"?>
<svg version="1.1" id="svgmap" xmlns="http://www.w3.org/2000/svg" xmlns:xlink="http://www.w3.org/1999/xlink" x="0px" y="0px" width="100%" height="100%" viewBox="0 0 500 289">
<polygon points="248,55 241,69 231,65 211,68 192,59 187,44 194,38 219,53 248,55" id="76131" class="commune" fill="steelblue" stroke-width="1" stroke="white" geotype="commune" geoname="Bouille" code_insee="76131" code_canton="7609"/><polygon points="280,197 299,196 304,185 321,184 354,194 354,167 361,164 365,176 389,191 424,192 419,206 407,207 388,228 446,248 478,258 462,271 450,268 422,277 409,273 417,278 408,285 381,278 406,286 371,289 355,285 353,274 392,263 388,258 367,266 346,260 337,268 346,250 339,247 326,249 323,242 312,239 309,220 269,243 270,235 253,223 263,224 273,218 269,211 275,207 278,212 291,208 303,211 285,202 272,203 280,197" id="76231" class="commune" fill="steelblue" stroke-width="1" stroke="white" geotype="commune" geoname="Elbeuf" code_insee="76231" code_canton="7609"/><polygon points="320,112 294,100 318,89 322,84 314,80 329,78 294,75 290,54 318,50 355,28 383,0 469,33 452,38 434,55 441,59 428,75 457,97 482,91 500,105 459,108 418,98 409,102 400,93 405,87 320,112" id="76319" class="commune" fill="steelblue" stroke-width="1" stroke="white" geotype="commune" geoname="Grand-Couronne" code_insee="76319" code_canton="7609"/><polygon points="294,100 320,112 297,136 319,150 327,145 334,150 315,168 321,184 304,185 299,196 280,197 286,189 261,190 254,183 255,164 234,144 231,122 198,144 154,158 161,179 137,180 119,170 128,169 120,162 120,150 137,139 129,138 135,132 118,143 103,130 107,127 88,129 66,120 54,123 48,108 44,117 31,113 22,119 7,118 0,107 16,101 26,102 15,91 42,82 35,73 44,66 53,68 55,74 69,77 92,70 95,64 185,86 212,71 236,81 282,84 274,91 294,100" id="76391" class="commune" fill="steelblue" stroke-width="1" stroke="white" geotype="commune" geoname="Londe" code_insee="76391" code_canton="7609"/><polygon points="211,68 231,65 241,69 248,55 290,54 294,75 329,78 314,80 322,84 318,89 294,100 274,91 282,84 236,81 212,71 211,68" id="76457" class="commune" fill="steelblue" stroke-width="1" stroke="white" geotype="commune" geoname="Moulineaux" code_insee="76457" code_canton="7609"/><polygon points="403,133 383,139 361,164 354,167 354,194 321,184 315,168 334,150 327,145 319,150 297,136 320,112 405,87 400,93 409,102 418,98 459,108 428,112 434,119 435,124 403,133" id="76486" class="commune" fill="steelblue" stroke-width="1" stroke="white" geotype="commune" geoname="Orival" code_insee="76486" code_canton="7609"/></svg>