<?xml version="1.0" encoding="utf-8"?>
<svg version="1.1" id="svgmap" xmlns="http://www.w3.org/2000/svg" xmlns:xlink="http://www.w3.org/1999/xlink" x="0px" y="0px" width="100%" height="100%" viewBox="0 0 500 232">
<polygon points="357,167 354,171 356,174 352,176 337,174 327,167 314,177 314,182 308,180 300,183 295,174 288,169 285,162 283,156 285,145 283,144 286,141 296,145 299,141 296,137 300,136 309,141 311,147 322,150 330,150 338,157 356,165 357,167" id="77031" class="commune" fill="steelblue" stroke-width="1" stroke="white" geotype="commune" geoname="Bernay-Vilbert" code_insee="77031" code_canton="7708"/><polygon points="352,176 356,174 354,171 357,167 359,166 364,171 366,171 366,174 375,174 381,171 390,173 398,181 397,188 392,188 385,196 381,195 372,200 358,195 354,189 356,177 352,176" id="77087" class="commune" fill="steelblue" stroke-width="1" stroke="white" geotype="commune" geoname="Chapelle-Iger" code_insee="77087" code_canton="7708"/><polygon points="209,105 203,92 217,91 227,83 238,83 239,85 236,90 237,94 241,93 238,96 247,97 246,106 239,107 238,110 228,106 209,105" id="77091" class="commune" fill="steelblue" stroke-width="1" stroke="white" geotype="commune" geoname="Chapelles-Bourbon" code_insee="77091" code_canton="7708"/><polygon points="206,154 199,155 196,159 192,152 190,150 196,144 187,141 190,132 179,127 177,124 179,122 182,120 182,116 187,116 190,110 193,109 204,112 209,105 228,106 238,110 236,115 227,130 220,130 209,140 212,144 206,154" id="77104" class="commune" fill="steelblue" stroke-width="1" stroke="white" geotype="commune" geoname="Châtres" code_insee="77104" code_canton="7708"/><polygon points="196,159 199,155 206,154 217,154 225,158 220,162 224,164 225,161 234,160 239,152 250,156 272,153 283,156 285,162 279,163 278,172 273,171 270,178 264,176 259,179 256,175 247,182 240,179 238,180 236,185 226,183 218,188 214,186 197,193 210,185 197,183 188,178 195,175 200,177 201,174 194,162 196,159" id="77107" class="commune" fill="steelblue" stroke-width="1" stroke="white" geotype="commune" geoname="Chaumes-en-Brie" code_insee="77107" code_canton="7708"/><polygon points="104,171 94,170 95,174 90,175 89,173 86,168 74,166 81,164 102,146 113,143 119,143 121,147 136,150 124,156 122,163 104,171" id="77127" class="commune" fill="steelblue" stroke-width="1" stroke="white" geotype="commune" geoname="Coubert" code_insee="77127" code_canton="7708"/><polygon points="313,207 304,200 312,194 314,182 314,177 327,167 337,174 352,176 356,177 354,189 358,195 372,200 373,203 368,209 358,211 351,208 350,211 346,211 342,208 341,203 330,201 313,207" id="77135" class="commune" fill="steelblue" stroke-width="1" stroke="white" geotype="commune" geoname="Courpalay" code_insee="77135" code_canton="7708"/><polygon points="122,163 124,156 136,150 121,147 119,143 127,140 136,144 138,142 143,146 152,146 150,148 155,148 157,151 160,151 167,157 163,158 165,161 161,163 157,168 154,167 151,170 147,169 140,174 135,169 137,167 135,167 132,163 129,165 122,163" id="77136" class="commune" fill="steelblue" stroke-width="1" stroke="white" geotype="commune" geoname="Courquetaine" code_insee="77136" code_canton="7708"/><polygon points="276,99 276,86 272,83 280,72 285,66 321,85 327,88 321,90 319,87 319,90 312,90 298,99 283,101 276,99" id="77144" class="commune" fill="steelblue" stroke-width="1" stroke="white" geotype="commune" geoname="Crèvecœur-en-Brie" code_insee="77144" code_canton="7708"/><polygon points="303,20 315,23 318,26 315,41 300,44 289,43 257,52 263,30 285,36 285,32 290,24 294,25 303,20" id="77154" class="commune" fill="steelblue" stroke-width="1" stroke="white" geotype="commune" geoname="Dammartin-sur-Tigeaux" code_insee="77154" code_canton="7708"/><polygon points="1,170 6,164 13,165 24,160 26,154 42,155 43,158 40,161 44,170 55,166 59,164 61,166 55,175 59,183 70,178 77,183 85,185 82,190 78,190 79,194 52,199 53,201 42,205 39,210 31,208 31,196 22,194 18,188 11,189 17,183 22,184 16,171 16,174 4,172 3,170 0,171 1,170" id="77175" class="commune" fill="steelblue" stroke-width="1" stroke="white" geotype="commune" geoname="Évry-Grégy-sur-Yerre" code_insee="77175" code_canton="7708"/><polygon points="400,92 393,90 386,83 374,77 364,68 364,41 370,38 386,36 382,46 387,55 394,70 405,83 400,92" id="77176" class="commune" fill="steelblue" stroke-width="1" stroke="white" geotype="commune" geoname="Faremoutiers" code_insee="77176" code_canton="7708"/><polygon points="300,136 296,137 299,141 296,145 286,141 283,144 285,145 283,156 272,153 250,156 239,152 234,160 225,161 224,164 220,162 225,158 217,154 206,154 212,144 209,140 220,130 227,130 236,115 250,114 249,119 254,119 255,123 252,129 263,126 275,130 277,128 291,130 303,134 300,136" id="77192" class="commune" fill="steelblue" stroke-width="1" stroke="white" geotype="commune" geoname="Fontenay-Trésigny" code_insee="77192" code_canton="7708"/><polygon points="55,166 54,159 40,154 41,144 43,146 50,143 69,134 73,137 94,132 110,130 119,138 113,143 102,146 81,164 74,166 86,168 89,173 81,175 76,181 77,183 70,178 59,183 55,175 61,166 59,164 55,166" id="77217" class="commune" fill="steelblue" stroke-width="1" stroke="white" geotype="commune" geoname="Grisy-Suisnes" code_insee="77217" code_canton="7708"/><polygon points="339,60 337,62 332,61 324,63 321,62 318,55 320,40 315,41 318,26 315,23 303,20 304,10 313,7 341,6 339,4 343,0 355,0 369,10 371,12 365,21 358,19 352,29 349,29 345,34 347,37 343,43 344,50 340,53 335,53 339,60" id="77219" class="commune" fill="steelblue" stroke-width="1" stroke="white" geotype="commune" geoname="Guérard" code_insee="77219" code_canton="7708"/><polygon points="246,106 247,97 238,96 241,93 237,94 236,90 239,85 240,78 236,77 236,69 246,61 251,61 260,73 280,72 272,83 276,86 276,99 268,105 260,104 260,107 246,106" id="77229" class="commune" fill="steelblue" stroke-width="1" stroke="white" geotype="commune" geoname="Houssaye-en-Brie" code_insee="77229" code_canton="7708"/><polygon points="39,210 42,205 53,201 52,199 79,194 87,197 86,199 93,198 93,202 87,207 84,222 83,220 82,221 74,218 63,218 64,216 56,212 44,214 39,210" id="77252" class="commune" fill="steelblue" stroke-width="1" stroke="white" geotype="commune" geoname="Limoges-Fourches" code_insee="77252" code_canton="7708"/><polygon points="117,206 112,223 102,226 102,232 99,232 85,229 84,222 87,207 93,202 93,198 101,198 105,202 104,204 117,206" id="77253" class="commune" fill="steelblue" stroke-width="1" stroke="white" geotype="commune" geoname="Lissy" code_insee="77253" code_canton="7708"/><polygon points="177,124 179,127 190,132 187,141 196,144 190,150 192,152 174,161 167,157 160,151 157,151 155,148 150,148 152,146 156,134 167,129 171,123 177,124" id="77254" class="commune" fill="steelblue" stroke-width="1" stroke="white" geotype="commune" geoname="Liverdy-en-Brie" code_insee="77254" code_canton="7708"/><polygon points="321,85 321,82 325,81 333,79 338,88 348,88 351,92 349,100 355,104 349,104 348,108 361,112 367,110 380,112 386,113 384,116 389,126 367,139 359,147 348,150 343,145 336,147 331,146 330,150 322,150 311,147 309,141 300,136 303,134 291,130 309,116 309,111 295,112 299,108 298,99 312,90 319,90 319,87 321,90 327,88 321,85" id="77264" class="commune" fill="steelblue" stroke-width="1" stroke="white" geotype="commune" geoname="Lumigny-Nesles-Ormeaux" code_insee="77264" code_canton="7708"/><polygon points="236,115 238,110 239,107 246,106 260,107 260,104 268,105 276,99 283,101 298,99 299,108 295,112 309,111 309,116 291,130 277,128 275,130 263,126 252,129 255,123 254,119 249,119 250,114 236,115" id="77277" class="commune" fill="steelblue" stroke-width="1" stroke="white" geotype="commune" geoname="Marles-en-Brie" code_insee="77277" code_canton="7708"/><polygon points="325,81 321,82 321,85 285,66 280,72 260,73 251,61 246,61 242,58 246,54 257,52 289,43 300,44 315,41 320,40 318,55 321,62 325,81" id="77318" class="commune" fill="steelblue" stroke-width="1" stroke="white" geotype="commune" geoname="Mortcerf" code_insee="77318" code_canton="7708"/><polygon points="239,85 238,83 227,83 217,91 203,92 188,84 194,75 203,72 205,69 196,63 188,49 202,46 204,49 206,46 210,46 210,50 218,53 233,52 236,55 243,45 252,49 246,54 242,58 246,61 236,69 236,77 240,78 239,85" id="77336" class="commune" fill="steelblue" stroke-width="1" stroke="white" geotype="commune" geoname="Neufmoutiers-en-Brie" code_insee="77336" code_canton="7708"/><polygon points="192,152 196,159 194,162 201,174 200,177 195,175 188,178 177,176 169,185 160,190 149,188 148,184 143,185 141,184 136,182 140,174 147,169 151,170 154,167 157,168 161,163 165,161 163,158 167,157 174,161 192,152" id="77352" class="commune" fill="steelblue" stroke-width="1" stroke="white" geotype="commune" geoname="Ozouer-le-Voulgis" code_insee="77352" code_canton="7708"/><polygon points="477,209 477,215 452,210 447,204 447,206 435,204 431,198 423,198 404,188 418,182 422,183 418,178 424,178 423,175 428,173 434,172 438,173 452,167 455,163 464,167 478,169 477,209" id="77357" class="commune" fill="steelblue" stroke-width="1" stroke="white" geotype="commune" geoname="Pécy" code_insee="77357" code_canton="7708"/><polygon points="398,123 409,116 422,115 428,120 433,114 439,117 433,125 433,131 424,132 420,136 418,135 416,137 408,134 400,135 398,123" id="77365" class="commune" fill="steelblue" stroke-width="1" stroke="white" geotype="commune" geoname="Plessis-Feu-Aussoux" code_insee="77365" code_canton="7708"/><polygon points="364,41 359,32 365,29 365,21 371,12 369,10 375,11 384,1 398,6 391,10 391,17 394,16 395,20 402,19 402,23 407,23 409,25 416,26 417,29 415,37 405,35 397,47 390,47 387,55 382,46 386,36 370,38 364,41" id="77371" class="commune" fill="steelblue" stroke-width="1" stroke="white" geotype="commune" geoname="Pommeuse" code_insee="77371" code_canton="7708"/><polygon points="179,122 177,124 171,123 167,129 156,134 152,146 143,146 138,142 136,144 127,140 119,143 113,143 119,138 110,130 94,132 97,113 101,111 104,110 105,112 145,110 149,112 150,110 159,116 179,122" id="77377" class="commune" fill="steelblue" stroke-width="1" stroke="white" geotype="commune" geoname="Presles-en-Brie" code_insee="77377" code_canton="7708"/><polygon points="356,165 338,157 330,150 331,146 336,147 343,145 348,150 359,147 359,162 356,165" id="77393" class="commune" fill="steelblue" stroke-width="1" stroke="white" geotype="commune" geoname="Rozay-en-Brie" code_insee="77393" code_canton="7708"/><polygon points="134,199 128,200 123,204 117,206 104,204 105,202 101,198 93,198 86,199 87,197 79,194 78,190 82,190 85,185 77,183 76,181 81,175 89,173 90,175 95,174 94,170 104,171 109,187 112,188 115,184 117,188 121,186 124,190 137,186 141,193 138,198 133,198 134,199" id="77455" class="commune" fill="steelblue" stroke-width="1" stroke="white" geotype="commune" geoname="Soignolles-en-Brie" code_insee="77455" code_canton="7708"/><polygon points="104,171 122,163 129,165 132,163 135,167 137,167 135,169 140,174 136,182 141,184 137,186 124,190 121,186 117,188 115,184 112,188 109,187 104,171" id="77457" class="commune" fill="steelblue" stroke-width="1" stroke="white" geotype="commune" geoname="Solers" code_insee="77457" code_canton="7708"/><polygon points="439,111 442,113 446,111 461,115 460,110 465,112 465,107 482,107 481,125 486,125 495,133 500,133 493,141 480,145 478,169 464,167 455,163 452,167 438,173 434,172 428,173 426,166 420,166 427,155 426,150 436,150 438,142 433,136 433,131 433,125 439,117 439,111" id="77486" class="commune" fill="steelblue" stroke-width="1" stroke="white" geotype="commune" geoname="Vaudoy-en-Brie" code_insee="77486" code_canton="7708"/><polygon points="357,167 356,165 359,162 359,147 367,139 389,126 398,123 400,135 408,134 416,137 418,135 420,136 424,132 433,131 433,136 438,142 436,150 426,150 427,155 420,166 426,166 428,173 423,175 424,178 418,178 422,183 418,182 404,188 397,188 398,181 390,173 381,171 375,174 366,174 366,171 364,171 359,166 357,167" id="77527" class="commune" fill="steelblue" stroke-width="1" stroke="white" geotype="commune" geoname="Voinsles" code_insee="77527" code_canton="7708"/></svg>