<?xml version="1.0" encoding="utf-8"?>
<svg version="1.1" id="svgmap" xmlns="http://www.w3.org/2000/svg" xmlns:xlink="http://www.w3.org/1999/xlink" x="0px" y="0px" width="100%" height="100%" viewBox="0 0 500 446">
<polygon points="463,233 403,265 339,272 291,250 273,216 235,196 202,155 270,151 317,127 325,124 362,144 410,130 411,156 445,164 500,192 500,206 473,211 478,225 463,233" id="81048" class="commune" fill="steelblue" stroke-width="1" stroke="white" geotype="commune" geoname="Cagnac-les-Mines" code_insee="81048" code_canton="8103"/><polygon points="138,264 155,253 190,271 252,248 263,248 267,260 291,250 339,272 339,295 353,304 340,315 342,330 290,334 276,358 263,361 237,345 216,354 178,350 137,370 109,383 81,383 69,311 110,318 153,279 138,264" id="81063" class="commune" fill="steelblue" stroke-width="1" stroke="white" geotype="commune" geoname="Castelnau-de-Lévis" code_insee="81063" code_canton="8103"/><polygon points="200,71 214,91 232,65 290,96 317,127 270,151 202,155 235,196 197,202 176,194 175,194 135,148 147,126 171,111 173,100 151,81 166,76 200,71" id="81152" class="commune" fill="steelblue" stroke-width="1" stroke="white" geotype="commune" geoname="Mailhoc" code_insee="81152" code_canton="8103"/><polygon points="81,383 109,383 137,370 140,389 164,392 186,409 159,446 34,436 17,426 56,390 81,383" id="81156" class="commune" fill="steelblue" stroke-width="1" stroke="white" geotype="commune" geoname="Marssac-sur-Tarn" code_insee="81156" code_canton="8103"/><polygon points="22,28 72,0 134,58 99,79 79,69 68,76 22,28" id="81166" class="commune" fill="steelblue" stroke-width="1" stroke="white" geotype="commune" geoname="Milhavet" code_insee="81166" code_canton="8103"/><polygon points="263,361 274,389 186,409 164,392 140,389 137,370 178,350 216,354 237,345 263,361" id="81297" class="commune" fill="steelblue" stroke-width="1" stroke="white" geotype="commune" geoname="Terssac" code_insee="81297" code_canton="8103"/><polygon points="175,194 149,196 143,212 128,204 139,187 115,174 79,172 87,182 80,190 64,173 50,176 21,175 21,142 0,119 20,89 31,89 15,51 22,28 68,76 79,69 99,79 134,58 156,63 166,76 151,81 173,100 171,111 147,126 135,148 175,194" id="81319" class="commune" fill="steelblue" stroke-width="1" stroke="white" geotype="commune" geoname="Villeneuve-sur-Vère" code_insee="81319" code_canton="8103"/><polygon points="155,253 168,239 135,238 137,233 176,194 197,202 235,196 273,216 291,250 267,260 263,248 252,248 190,271 155,253" id="81326" class="commune" fill="steelblue" stroke-width="1" stroke="white" geotype="commune" geoname="Sainte-Croix" code_insee="81326" code_canton="8103"/></svg>