<?xml version="1.0" encoding="utf-8"?>
<svg version="1.1" id="svgmap" xmlns="http://www.w3.org/2000/svg" xmlns:xlink="http://www.w3.org/1999/xlink" x="0px" y="0px" width="100%" height="100%" viewBox="0 0 299 500">
<polygon points="69,91 86,59 73,47 125,30 134,12 185,32 209,0 254,14 253,23 261,23 249,40 234,42 209,61 215,90 191,102 138,86 69,91" id="81018" class="commune" fill="steelblue" stroke-width="1" stroke="white" geotype="commune" geoname="Arthès" code_insee="81018" code_canton="8122"/><polygon points="290,195 291,196 286,204 226,200 212,206 219,214 207,229 193,224 187,242 151,255 127,258 119,243 67,198 88,183 93,168 116,181 180,197 248,188 290,195" id="81052" class="commune" fill="steelblue" stroke-width="1" stroke="white" geotype="commune" geoname="Cambon" code_insee="81052" code_canton="8122"/><polygon points="93,168 93,162 106,127 124,132 135,125 199,146 214,176 233,174 248,188 180,197 116,181 93,168" id="81074" class="commune" fill="steelblue" stroke-width="1" stroke="white" geotype="commune" geoname="Cunac" code_insee="81074" code_canton="8122"/><polygon points="166,398 167,403 184,417 184,436 197,452 190,465 168,466 160,453 128,440 123,468 110,477 119,494 79,500 42,471 52,459 38,452 16,439 0,405 13,395 5,386 11,374 24,367 39,371 100,386 109,370 133,380 135,392 152,388 166,398" id="81079" class="commune" fill="steelblue" stroke-width="1" stroke="white" geotype="commune" geoname="Dénat" code_insee="81079" code_canton="8122"/><polygon points="167,403 166,398 134,345 71,292 82,277 94,274 96,261 119,243 127,258 151,255 187,242 193,224 207,229 216,233 215,249 234,270 219,288 255,322 270,315 276,318 252,337 246,370 215,373 167,403" id="81097" class="commune" fill="steelblue" stroke-width="1" stroke="white" geotype="commune" geoname="Fréjairolles" code_insee="81097" code_canton="8122"/><polygon points="166,398 152,388 135,392 133,380 109,370 100,386 39,371 46,352 32,352 40,343 14,310 30,300 26,293 50,298 71,292 134,345 166,398" id="81113" class="commune" fill="steelblue" stroke-width="1" stroke="white" geotype="commune" geoname="Labastide-Dénat" code_insee="81113" code_canton="8122"/><polygon points="191,102 221,134 258,154 271,175 299,189 290,195 248,188 233,174 214,176 199,146 135,125 124,132 106,127 93,162 59,123 41,120 69,91 138,86 191,102" id="81257" class="commune" fill="steelblue" stroke-width="1" stroke="white" geotype="commune" geoname="Saint-Juéry" code_insee="81257" code_canton="8122"/></svg>