<?xml version="1.0" encoding="utf-8"?>
<svg version="1.1" id="svgmap" xmlns="http://www.w3.org/2000/svg" xmlns:xlink="http://www.w3.org/1999/xlink" x="0px" y="0px" width="100%" height="100%" viewBox="0 0 500 295">
<polygon points="478,229 450,241 441,253 424,250 406,237 399,221 410,201 385,201 393,184 390,173 423,164 462,190 498,199 500,206 499,207 475,225 478,229" id="82099" class="commune" fill="steelblue" stroke-width="1" stroke="white" geotype="commune" geoname="Lizac" code_insee="82099" code_canton="8205"/><polygon points="368,208 364,233 358,237 342,244 277,257 279,263 237,288 215,295 213,290 197,287 178,291 167,288 161,284 132,262 120,266 119,259 132,248 106,239 85,222 93,219 75,214 71,194 96,189 91,176 112,178 107,154 131,137 74,107 61,104 55,113 29,99 30,93 66,82 98,79 110,82 114,92 140,96 155,106 162,89 221,81 268,106 263,118 276,113 297,123 326,111 349,128 373,128 368,102 383,102 390,95 442,104 453,112 414,146 423,164 390,173 393,184 385,201 368,208" id="82112" class="commune" fill="steelblue" stroke-width="1" stroke="white" geotype="commune" geoname="Moissac" code_insee="82112" code_canton="8205"/><polygon points="0,80 15,71 18,61 53,39 132,9 135,5 212,0 218,34 240,38 267,53 277,45 293,50 295,58 268,106 221,81 162,89 155,106 140,96 114,92 110,82 98,79 66,82 30,93 7,93 0,80" id="82127" class="commune" fill="steelblue" stroke-width="1" stroke="white" geotype="commune" geoname="Montesquieu" code_insee="82127" code_canton="8205"/></svg>