<?xml version="1.0" encoding="utf-8"?>
<svg version="1.1" id="svgmap" xmlns="http://www.w3.org/2000/svg" xmlns:xlink="http://www.w3.org/1999/xlink" x="0px" y="0px" width="100%" height="100%" viewBox="0 0 500 201">
<polygon points="72,143 73,140 75,140 76,144 72,143" id="83129" class="commune" fill="steelblue" stroke-width="1" stroke="white" geotype="commune" geoname="Six-Fours-les-Plages" code_insee="83129" code_canton="8317"/><polygon points="112,16 132,3 154,3 225,0 224,30 240,71 217,128 221,193 211,201 188,192 171,194 151,182 134,155 75,139 81,127 103,121 110,85 126,73 121,62 103,57 119,55 129,43 112,16" id="83129" class="commune" fill="steelblue" stroke-width="1" stroke="white" geotype="commune" geoname="Six-Fours-les-Plages" code_insee="83129" code_canton="8317"/><polygon points="0,112 6,106 11,111 5,114 0,112" id="83129" class="commune" fill="steelblue" stroke-width="1" stroke="white" geotype="commune" geoname="Six-Fours-les-Plages" code_insee="83129" code_canton="8317"/><polygon points="32,107 49,107 49,110 54,112 54,113 45,112 42,116 54,114 56,121 65,112 72,118 41,139 32,107" id="83129" class="commune" fill="steelblue" stroke-width="1" stroke="white" geotype="commune" geoname="Six-Fours-les-Plages" code_insee="83129" code_canton="8317"/><polygon points="58,134 67,132 71,137 72,141 58,134" id="83129" class="commune" fill="steelblue" stroke-width="1" stroke="white" geotype="commune" geoname="Six-Fours-les-Plages" code_insee="83129" code_canton="8317"/><polygon points="370,129 372,114 383,116 408,96 420,98 424,114 436,119 431,110 454,102 453,94 454,94 455,101 494,115 500,128 480,148 460,134 441,133 392,149 379,131 370,129" id="83153" class="commune" fill="steelblue" stroke-width="1" stroke="white" geotype="commune" geoname="Saint-Mandrier-sur-Mer" code_insee="83153" code_canton="8317"/></svg>