<?xml version="1.0" encoding="utf-8"?>
<svg version="1.1" id="svgmap" xmlns="http://www.w3.org/2000/svg" xmlns:xlink="http://www.w3.org/1999/xlink" x="0px" y="0px" width="100%" height="100%" viewBox="0 0 500 189">
<polygon points="282,96 304,96 306,103 301,106 308,111 310,119 326,120 329,134 318,145 309,162 299,170 294,169 292,167 277,169 272,160 260,159 247,158 239,161 229,159 227,152 232,155 237,153 243,154 259,153 267,144 283,139 278,120 286,103 279,101 282,96" id="86007" class="commune" fill="steelblue" stroke-width="1" stroke="white" geotype="commune" geoname="Antran" code_insee="86007" code_canton="8603"/><polygon points="464,48 465,51 453,54 445,60 440,55 437,62 402,37 393,35 400,24 404,24 414,20 423,23 429,31 461,35 464,48" id="86042" class="commune" fill="steelblue" stroke-width="1" stroke="white" geotype="commune" geoname="Buxeuil" code_insee="86042" code_canton="8603"/><polygon points="432,104 432,120 409,111 390,112 374,107 371,109 360,107 344,99 352,95 340,88 315,91 309,87 323,78 318,67 323,66 323,60 317,59 317,52 328,55 364,54 367,51 372,52 374,71 382,69 384,74 409,76 417,74 427,77 424,94 432,104" id="86092" class="commune" fill="steelblue" stroke-width="1" stroke="white" geotype="commune" geoname="Dangé-Saint-Romain" code_insee="86092" code_canton="8603"/><polygon points="432,120 432,120 422,124 389,124 377,132 376,137 367,147 370,148 365,152 371,153 377,150 381,155 376,167 382,170 380,176 375,180 382,186 381,189 366,188 367,182 359,182 350,178 351,172 348,170 333,173 329,171 332,169 330,166 322,168 309,162 318,145 329,134 326,120 333,109 344,99 360,107 371,109 374,107 390,112 409,111 432,120" id="86111" class="commune" fill="steelblue" stroke-width="1" stroke="white" geotype="commune" geoname="Ingrandes" code_insee="86111" code_canton="8603"/><polygon points="260,84 268,92 264,96 260,96 245,112 233,116 225,114 211,103 209,89 217,77 246,85 260,84" id="86127" class="commune" fill="steelblue" stroke-width="1" stroke="white" geotype="commune" geoname="Leigné-sur-Usseau" code_insee="86127" code_canton="8603"/><polygon points="432,120 432,120 432,104 455,93 463,84 467,87 473,86 479,94 473,103 475,110 500,130 492,132 488,137 459,142 457,130 447,129 447,121 442,124 432,120" id="86130" class="commune" fill="steelblue" stroke-width="1" stroke="white" geotype="commune" geoname="Leugny" code_insee="86130" code_canton="8603"/><polygon points="251,55 257,67 255,74 263,81 260,84 246,85 217,77 209,89 203,89 196,82 203,70 251,55" id="86162" class="commune" fill="steelblue" stroke-width="1" stroke="white" geotype="commune" geoname="Mondion" code_insee="86162" code_canton="8603"/><polygon points="49,115 52,108 69,102 92,111 100,112 104,114 99,125 97,129 114,143 111,148 107,156 96,164 85,162 75,155 80,152 60,144 62,139 45,128 49,115" id="86182" class="commune" fill="steelblue" stroke-width="1" stroke="white" geotype="commune" geoname="Orches" code_insee="86182" code_canton="8603"/><polygon points="390,15 404,24 400,24 393,35 402,37 437,62 437,66 428,72 427,77 417,74 409,76 384,74 382,69 374,71 372,52 367,51 366,36 357,32 343,30 337,26 338,16 346,13 358,15 364,13 367,19 390,15" id="86183" class="commune" fill="steelblue" stroke-width="1" stroke="white" geotype="commune" geoname="Ormes" code_insee="86183" code_canton="8603"/><polygon points="382,189 381,189 382,186 375,180 380,176 382,170 376,167 381,155 377,150 371,153 365,152 370,148 367,147 376,137 377,132 389,124 422,124 432,120 442,124 447,121 447,129 457,130 459,142 460,146 456,157 448,159 434,177 382,189" id="86186" class="commune" fill="steelblue" stroke-width="1" stroke="white" geotype="commune" geoname="Oyré" code_insee="86186" code_canton="8603"/><polygon points="331,2 339,3 355,1 384,0 390,4 387,11 390,15 367,19 364,13 358,15 346,13 338,16 330,5 331,2" id="86195" class="commune" fill="steelblue" stroke-width="1" stroke="white" geotype="commune" geoname="Port-de-Piles" code_insee="86195" code_canton="8603"/><polygon points="101,75 115,62 121,61 144,69 143,67 161,75 148,94 150,99 135,104 120,117 119,121 114,119 119,114 107,102 104,90 112,83 101,75" id="86217" class="commune" fill="steelblue" stroke-width="1" stroke="white" geotype="commune" geoname="Saint-Christophe" code_insee="86217" code_canton="8603"/><polygon points="161,75 176,73 196,82 203,89 209,89 211,103 225,114 226,128 223,126 211,127 197,132 199,141 212,147 219,158 201,163 192,158 179,145 186,139 165,133 163,141 148,141 145,138 143,139 127,136 121,129 119,121 120,117 135,104 150,99 148,94 161,75" id="86224" class="commune" fill="steelblue" stroke-width="1" stroke="white" geotype="commune" geoname="Saint-Gervais-les-Trois-Clochers" code_insee="86224" code_canton="8603"/><polygon points="465,51 476,74 473,86 467,87 463,84 455,93 432,104 424,94 427,77 428,72 437,66 437,62 440,55 445,60 453,54 465,51" id="86241" class="commune" fill="steelblue" stroke-width="1" stroke="white" geotype="commune" geoname="Saint-Rémy-sur-Creuse" code_insee="86241" code_canton="8603"/><polygon points="61,171 52,166 48,164 47,158 34,157 28,154 26,155 13,147 9,147 0,142 14,136 14,133 33,118 49,115 45,128 62,139 60,144 80,152 75,155 70,172 61,171" id="86257" class="commune" fill="steelblue" stroke-width="1" stroke="white" geotype="commune" geoname="Savigny-sous-Faye" code_insee="86257" code_canton="8603"/><polygon points="49,38 60,46 54,55 57,57 63,73 78,81 93,75 101,75 112,83 104,90 107,102 119,114 114,119 99,125 104,114 100,112 92,111 69,102 52,108 39,96 35,83 28,74 28,63 37,49 49,38" id="86260" class="commune" fill="steelblue" stroke-width="1" stroke="white" geotype="commune" geoname="Sérigny" code_insee="86260" code_canton="8603"/><polygon points="111,148 114,143 97,129 99,125 114,119 119,121 121,129 127,136 143,139 145,138 148,141 163,141 151,160 157,165 155,169 162,172 154,172 137,163 131,166 118,160 111,148" id="86265" class="commune" fill="steelblue" stroke-width="1" stroke="white" geotype="commune" geoname="Sossais" code_insee="86265" code_canton="8603"/><polygon points="225,114 233,116 245,112 260,96 264,96 268,92 282,96 279,101 286,103 278,120 283,139 267,144 259,153 243,154 237,153 232,155 227,152 225,144 230,131 226,128 225,114" id="86275" class="commune" fill="steelblue" stroke-width="1" stroke="white" geotype="commune" geoname="Usseau" code_insee="86275" code_canton="8603"/><polygon points="344,99 333,109 326,120 310,119 308,111 301,106 306,103 304,96 315,91 340,88 352,95 344,99" id="86279" class="commune" fill="steelblue" stroke-width="1" stroke="white" geotype="commune" geoname="Vaux-sur-Vienne" code_insee="86279" code_canton="8603"/><polygon points="304,96 282,96 268,92 260,84 263,81 255,74 257,67 251,55 261,54 266,50 275,55 282,52 289,55 302,50 317,52 317,59 323,60 323,66 318,67 323,78 309,87 315,91 304,96" id="86280" class="commune" fill="steelblue" stroke-width="1" stroke="white" geotype="commune" geoname="Vellèches" code_insee="86280" code_canton="8603"/></svg>