<?xml version="1.0" encoding="utf-8"?>
<svg version="1.1" id="svgmap" xmlns="http://www.w3.org/2000/svg" xmlns:xlink="http://www.w3.org/1999/xlink" x="0px" y="0px" width="100%" height="100%" viewBox="0 0 500 275">
<polygon points="306,57 305,49 314,42 339,38 361,28 376,34 398,34 405,46 394,55 412,66 434,70 431,73 446,84 439,90 417,101 401,100 387,105 356,127 328,120 311,124 308,118 288,118 289,106 300,94 294,77 305,74 306,57" id="86019" class="commune" fill="steelblue" stroke-width="1" stroke="white" geotype="commune" geoname="Beaumont" code_insee="86019" code_canton="8607"/><polygon points="0,149 13,139 9,117 23,115 34,97 59,98 62,93 71,96 79,100 71,117 29,152 17,161 0,149" id="86048" class="commune" fill="steelblue" stroke-width="1" stroke="white" geotype="commune" geoname="Chabournay" code_insee="86048" code_canton="8607"/><polygon points="464,196 463,207 458,210 426,203 370,208 322,189 300,171 283,161 294,151 287,148 292,146 284,136 290,134 286,128 311,124 328,120 356,127 365,134 381,133 392,142 396,137 400,149 436,168 442,162 459,171 465,168 458,193 464,196" id="86095" class="commune" fill="steelblue" stroke-width="1" stroke="white" geotype="commune" geoname="Dissay" code_insee="86095" code_canton="8607"/><polygon points="143,215 108,209 104,182 117,173 130,178 161,141 173,148 200,127 210,123 221,125 271,134 286,128 290,134 284,136 292,146 287,148 294,151 283,161 300,171 258,195 250,213 242,213 237,220 213,218 197,212 208,206 200,200 143,215" id="86115" class="commune" fill="steelblue" stroke-width="1" stroke="white" geotype="commune" geoname="Jaunay-Clan" code_insee="86115" code_canton="8607"/><polygon points="311,124 286,128 271,134 221,125 228,115 216,101 192,83 182,86 171,78 175,70 162,57 178,41 199,55 210,48 233,49 240,26 252,26 256,21 258,0 280,1 257,33 282,52 280,59 306,57 305,74 294,77 300,94 289,106 288,118 308,118 311,124" id="86146" class="commune" fill="steelblue" stroke-width="1" stroke="white" geotype="commune" geoname="Marigny-Brizay" code_insee="86146" code_canton="8607"/><polygon points="356,127 387,105 401,100 417,101 439,90 453,99 453,108 468,109 477,117 453,131 461,138 489,146 500,159 497,167 493,176 464,196 458,193 465,168 459,171 442,162 436,168 400,149 396,137 392,142 381,133 365,134 356,127" id="86219" class="commune" fill="steelblue" stroke-width="1" stroke="white" geotype="commune" geoname="Saint-Cyr" code_insee="86219" code_canton="8607"/><polygon points="463,207 493,246 472,255 417,259 400,269 389,267 368,274 333,258 326,262 294,257 288,275 261,267 260,258 248,253 265,231 261,217 250,213 258,195 300,171 322,189 370,208 426,203 458,210 463,207" id="86222" class="commune" fill="steelblue" stroke-width="1" stroke="white" geotype="commune" geoname="Saint-Georges-lès-Baillargeaux" code_insee="86222" code_canton="8607"/><polygon points="108,209 98,213 74,193 65,192 64,176 45,177 58,156 45,150 29,152 71,117 79,100 71,96 75,82 64,77 64,46 87,33 116,38 163,28 178,41 162,57 175,70 171,78 182,86 192,83 216,101 228,115 221,125 210,123 200,127 173,148 161,141 130,178 117,173 104,182 108,209" id="86281" class="commune" fill="steelblue" stroke-width="1" stroke="white" geotype="commune" geoname="Vendeuvre-du-Poitou" code_insee="86281" code_canton="8607"/></svg>