<?xml version="1.0" encoding="utf-8"?>
<svg version="1.1" id="svgmap" xmlns="http://www.w3.org/2000/svg" xmlns:xlink="http://www.w3.org/1999/xlink" x="0px" y="0px" width="100%" height="100%" viewBox="0 0 492 500">
<polygon points="287,274 289,278 283,279 263,292 265,299 259,302 255,296 250,301 236,302 218,296 217,293 209,292 215,284 212,281 215,274 192,263 179,262 191,256 194,247 202,247 218,246 219,249 229,247 251,249 269,257 282,266 287,274" id="86005" class="commune" fill="steelblue" stroke-width="1" stroke="white" geotype="commune" geoname="Angliers" code_insee="86005" code_canton="8608"/><polygon points="85,268 85,268 94,265 119,244 121,238 117,236 128,221 136,216 147,223 139,230 150,239 143,245 158,254 149,255 154,266 149,267 150,268 113,275 116,285 104,290 95,271 85,268" id="86008" class="commune" fill="steelblue" stroke-width="1" stroke="white" geotype="commune" geoname="Arçay" code_insee="86008" code_canton="8608"/><polygon points="209,292 217,293 218,296 236,302 250,301 255,296 259,302 255,311 229,319 224,325 209,322 197,318 199,299 203,300 205,293 209,292" id="86013" class="commune" fill="steelblue" stroke-width="1" stroke="white" geotype="commune" geoname="Aulnay" code_insee="86013" code_canton="8608"/><polygon points="257,128 262,130 264,127 292,139 294,146 286,148 268,163 271,171 261,174 240,167 236,164 241,157 237,149 257,128" id="86018" class="commune" fill="steelblue" stroke-width="1" stroke="white" geotype="commune" geoname="Basses" code_insee="86018" code_canton="8608"/><polygon points="81,135 77,143 79,146 43,155 30,152 15,157 3,127 0,120 4,118 2,113 6,112 5,104 16,106 17,110 25,111 25,114 31,115 48,113 60,118 60,121 66,121 66,127 81,135" id="86022" class="commune" fill="steelblue" stroke-width="1" stroke="white" geotype="commune" geoname="Berrie" code_insee="86022" code_canton="8608"/><polygon points="464,311 461,318 443,321 422,337 404,326 402,309 384,304 381,298 388,295 403,304 410,301 425,303 449,297 464,311" id="86023" class="commune" fill="steelblue" stroke-width="1" stroke="white" geotype="commune" geoname="Berthegon" code_insee="86023" code_canton="8608"/><polygon points="321,132 301,130 303,126 290,121 301,109 305,87 311,78 328,69 332,85 350,97 320,119 321,132" id="86026" class="commune" fill="steelblue" stroke-width="1" stroke="white" geotype="commune" geoname="Beuxes" code_insee="86026" code_canton="8608"/><polygon points="172,158 168,155 161,160 147,149 179,117 179,104 171,96 192,88 208,77 216,66 223,61 240,63 240,81 221,105 248,118 257,128 237,149 226,150 203,141 191,145 191,149 177,153 172,158" id="86036" class="commune" fill="steelblue" stroke-width="1" stroke="white" geotype="commune" geoname="Bournand" code_insee="86036" code_canton="8608"/><polygon points="356,208 363,200 341,195 338,174 339,169 349,169 362,143 358,140 380,132 387,128 389,122 393,124 399,119 426,124 417,138 424,139 425,145 422,148 413,145 408,149 411,157 421,158 416,163 419,165 409,170 412,174 397,184 389,198 381,195 370,205 356,208" id="86044" class="commune" fill="steelblue" stroke-width="1" stroke="white" geotype="commune" geoname="Ceaux-en-Loudun" code_insee="86044" code_canton="8608"/><polygon points="464,374 474,379 473,390 478,397 475,402 454,400 451,397 455,381 464,374" id="86047" class="commune" fill="steelblue" stroke-width="1" stroke="white" geotype="commune" geoname="Cernay" code_insee="86047" code_canton="8608"/><polygon points="269,257 251,249 229,247 219,249 218,246 202,247 203,243 198,241 201,236 196,237 194,232 187,231 198,217 237,209 249,216 245,228 252,231 254,235 277,229 282,231 277,240 268,247 269,257" id="86049" class="commune" fill="steelblue" stroke-width="1" stroke="white" geotype="commune" geoname="Chalais" code_insee="86049" code_canton="8608"/><polygon points="265,299 279,330 275,335 280,339 272,345 267,346 259,340 244,342 239,366 234,367 230,366 233,354 215,343 218,334 215,331 210,333 204,325 209,322 224,325 229,319 255,311 259,302 265,299" id="86069" class="commune" fill="steelblue" stroke-width="1" stroke="white" geotype="commune" geoname="Chaussée" code_insee="86069" code_canton="8608"/><polygon points="391,396 410,415 395,421 391,418 384,413 378,418 372,414 338,439 334,437 323,442 306,438 296,448 274,453 271,450 261,444 235,430 249,431 256,425 256,417 253,415 256,406 274,404 279,408 281,396 279,393 289,390 289,391 293,405 303,405 311,398 315,400 317,398 363,403 368,407 370,405 377,408 391,396" id="86075" class="commune" fill="steelblue" stroke-width="1" stroke="white" geotype="commune" geoname="Chouppes" code_insee="86075" code_canton="8608"/><polygon points="341,195 363,200 356,208 346,222 355,223 350,229 354,231 349,236 356,244 335,256 331,251 322,255 299,272 298,282 287,274 282,266 269,257 268,247 277,240 282,231 295,227 309,214 298,207 301,205 306,207 311,202 325,206 341,198 341,195" id="86079" class="commune" fill="steelblue" stroke-width="1" stroke="white" geotype="commune" geoname="Roche-Rigault" code_insee="86079" code_canton="8608"/><polygon points="391,396 377,408 370,405 368,407 363,403 317,398 315,400 311,398 303,405 293,405 289,391 302,388 303,383 309,384 316,379 319,381 336,367 343,369 346,363 353,361 363,367 376,358 389,369 399,391 391,396" id="86085" class="commune" fill="steelblue" stroke-width="1" stroke="white" geotype="commune" geoname="Coussay" code_insee="86085" code_canton="8608"/><polygon points="95,457 100,455 100,452 90,443 100,440 112,428 120,435 117,437 122,443 126,439 133,444 144,441 152,448 157,443 164,444 170,456 176,454 176,460 186,459 201,463 202,461 207,462 207,467 186,463 180,475 165,468 148,488 158,500 151,500 119,474 106,482 100,477 93,465 100,462 95,457" id="86087" class="commune" fill="steelblue" stroke-width="1" stroke="white" geotype="commune" geoname="Craon" code_insee="86087" code_canton="8608"/><polygon points="21,218 23,214 15,195 13,186 23,187 29,193 32,192 19,172 48,168 52,174 54,172 65,176 79,172 95,162 117,169 109,171 103,177 95,178 95,185 86,185 85,191 66,195 56,207 42,208 21,218" id="86090" class="commune" fill="steelblue" stroke-width="1" stroke="white" geotype="commune" geoname="Curçay-sur-Dive" code_insee="86090" code_canton="8608"/><polygon points="308,292 298,282 318,277 334,263 350,257 354,264 364,263 371,258 373,259 371,257 374,253 391,256 407,252 405,247 412,244 416,248 416,258 405,259 401,265 392,264 369,285 339,283 318,287 308,292" id="86093" class="commune" fill="steelblue" stroke-width="1" stroke="white" geotype="commune" geoname="Dercé" code_insee="86093" code_canton="8608"/><polygon points="416,415 410,415 391,396 399,391 389,369 376,358 384,353 395,349 407,348 416,353 421,352 436,362 438,360 444,364 459,365 460,371 464,374 455,381 451,397 454,400 475,402 478,397 473,390 474,379 484,380 481,383 491,388 492,397 484,411 486,417 467,418 461,414 459,416 454,415 448,402 437,399 416,415" id="86096" class="commune" fill="steelblue" stroke-width="1" stroke="white" geotype="commune" geoname="Doussay" code_insee="86096" code_canton="8608"/><polygon points="95,185 95,178 103,177 109,171 117,169 147,179 148,183 147,187 140,184 128,189 131,200 120,213 113,217 91,218 94,204 110,193 99,190 95,185" id="86106" class="commune" fill="steelblue" stroke-width="1" stroke="white" geotype="commune" geoname="Glénouze" code_insee="86106" code_canton="8608"/><polygon points="137,391 139,390 155,394 166,400 153,409 155,411 148,418 184,431 183,426 189,430 205,433 202,438 207,441 203,447 207,447 199,453 190,451 186,459 176,460 176,454 170,456 164,444 157,443 152,448 144,441 133,444 126,439 122,443 117,437 120,435 112,428 127,420 129,414 115,407 113,404 137,391" id="86108" class="commune" fill="steelblue" stroke-width="1" stroke="white" geotype="commune" geoname="Grimaudière" code_insee="86108" code_canton="8608"/><polygon points="279,330 265,299 263,292 283,279 289,278 287,274 298,282 308,292 323,302 311,316 311,321 300,326 294,340 281,328 279,330" id="86109" class="commune" fill="steelblue" stroke-width="1" stroke="white" geotype="commune" geoname="Guesnes" code_insee="86109" code_canton="8608"/><polygon points="237,149 241,157 236,164 240,167 261,174 271,171 269,178 273,185 288,189 298,207 309,214 295,227 282,231 277,229 254,235 252,231 245,228 249,216 237,209 198,217 195,212 182,206 183,197 176,189 187,174 176,168 172,158 177,153 191,149 191,145 203,141 226,150 237,149" id="86137" class="commune" fill="steelblue" stroke-width="1" stroke="white" geotype="commune" geoname="Loudun" code_insee="86137" code_canton="8608"/><polygon points="150,277 179,262 192,263 215,274 212,281 215,284 209,292 205,293 203,300 199,299 197,318 178,319 163,323 155,323 144,309 150,277" id="86149" class="commune" fill="steelblue" stroke-width="1" stroke="white" geotype="commune" geoname="Martaizé" code_insee="86149" code_canton="8608"/><polygon points="389,198 395,200 399,209 406,216 401,234 412,244 405,247 407,252 391,256 374,253 371,257 373,259 371,258 364,263 354,264 350,257 334,263 318,277 298,282 299,272 322,255 331,251 335,256 356,244 349,236 354,231 350,229 355,223 346,222 356,208 370,205 381,195 389,198" id="86151" class="commune" fill="steelblue" stroke-width="1" stroke="white" geotype="commune" geoname="Maulay" code_insee="86151" code_canton="8608"/><polygon points="235,430 261,444 250,450 249,446 234,448 225,441 228,453 234,459 233,466 224,466 224,463 216,465 218,462 207,462 202,461 201,463 186,459 190,451 199,453 207,447 203,447 207,441 202,438 205,433 189,430 183,426 194,409 215,419 218,415 231,421 230,427 235,430" id="86154" class="commune" fill="steelblue" stroke-width="1" stroke="white" geotype="commune" geoname="Mazeuil" code_insee="86154" code_canton="8608"/><polygon points="341,195 341,198 325,206 311,202 306,207 301,205 298,207 288,189 273,185 310,174 327,175 329,172 338,174 341,195" id="86156" class="commune" fill="steelblue" stroke-width="1" stroke="white" geotype="commune" geoname="Messemé" code_insee="86156" code_canton="8608"/><polygon points="150,277 144,309 155,323 163,323 166,325 151,328 147,338 169,340 167,344 172,347 184,352 181,363 170,362 159,368 149,369 131,363 117,356 115,349 90,344 85,348 79,344 90,338 93,320 101,317 110,306 104,290 116,285 113,275 150,268 150,277" id="86161" class="commune" fill="steelblue" stroke-width="1" stroke="white" geotype="commune" geoname="Moncontour" code_insee="86161" code_canton="8608"/><polygon points="64,403 69,402 68,393 80,393 86,385 94,381 101,382 107,375 127,379 137,391 113,404 115,407 112,405 97,415 85,407 74,408 69,404 64,408 64,403" id="86161" class="commune" fill="steelblue" stroke-width="1" stroke="white" geotype="commune" geoname="Moncontour" code_insee="86161" code_canton="8608"/><polygon points="308,292 318,287 339,283 369,285 373,289 369,297 373,299 355,320 350,318 341,315 336,320 320,319 316,323 311,321 311,316 323,302 308,292" id="86167" class="commune" fill="steelblue" stroke-width="1" stroke="white" geotype="commune" geoname="Monts-sur-Guesnes" code_insee="86167" code_canton="8608"/><polygon points="113,96 98,91 80,102 90,80 75,78 73,71 80,63 93,63 101,66 110,74 110,80 124,82 127,79 144,85 126,101 119,94 116,97 113,96" id="86169" class="commune" fill="steelblue" stroke-width="1" stroke="white" geotype="commune" geoname="Morton" code_insee="86169" code_canton="8608"/><polygon points="179,262 150,277 150,268 149,267 154,266 149,255 158,254 143,245 150,239 139,230 147,223 136,216 128,221 120,213 131,200 128,189 140,184 147,187 148,183 147,179 117,169 126,166 152,176 164,163 176,168 187,174 176,189 183,197 182,206 195,212 198,217 187,231 194,232 196,237 201,236 198,241 203,243 202,247 194,247 191,256 179,262" id="86173" class="commune" fill="steelblue" stroke-width="1" stroke="white" geotype="commune" geoname="Mouterre-Silly" code_insee="86173" code_canton="8608"/><polygon points="399,209 408,206 439,204 444,214 453,212 461,220 470,217 467,222 473,226 461,234 447,245 438,261 416,258 416,248 412,244 401,234 406,216 399,209" id="86181" class="commune" fill="steelblue" stroke-width="1" stroke="white" geotype="commune" geoname="Nueil-sous-Faye" code_insee="86181" code_canton="8608"/><polygon points="5,104 9,96 22,86 25,88 43,87 42,94 42,100 48,102 48,113 31,115 25,114 25,111 17,110 16,106 5,104" id="86196" class="commune" fill="steelblue" stroke-width="1" stroke="white" geotype="commune" geoname="Pouançay" code_insee="86196" code_canton="8608"/><polygon points="461,139 469,141 474,149 470,157 474,169 469,176 466,175 461,179 471,189 467,195 472,201 477,203 468,212 453,212 444,214 439,204 408,206 399,209 395,200 389,198 397,184 412,174 409,170 419,165 416,163 421,158 411,157 408,149 413,145 422,148 427,153 431,148 439,149 461,139" id="86197" class="commune" fill="steelblue" stroke-width="1" stroke="white" geotype="commune" geoname="Pouant" code_insee="86197" code_canton="8608"/><polygon points="381,298 373,299 369,297 373,289 369,285 392,264 401,265 405,259 416,258 438,261 438,273 446,283 449,297 425,303 410,301 403,304 388,295 381,298" id="86201" class="commune" fill="steelblue" stroke-width="1" stroke="white" geotype="commune" geoname="Prinçay" code_insee="86201" code_canton="8608"/><polygon points="82,223 76,212 67,209 62,211 56,207 66,195 85,191 86,185 95,185 99,190 110,193 94,204 91,218 87,221 85,218 82,223" id="86205" class="commune" fill="steelblue" stroke-width="1" stroke="white" geotype="commune" geoname="Ranton" code_insee="86205" code_canton="8608"/><polygon points="147,66 142,75 145,84 144,85 127,79 124,82 110,80 110,74 101,66 105,59 112,66 121,61 124,62 122,65 131,69 147,66" id="86206" class="commune" fill="steelblue" stroke-width="1" stroke="white" geotype="commune" geoname="Raslay" code_insee="86206" code_canton="8608"/><polygon points="145,84 142,75 147,66 157,55 151,53 153,51 169,38 165,38 162,19 176,8 182,14 181,18 190,24 193,33 196,32 195,38 210,34 213,49 207,60 216,66 208,77 192,88 171,96 165,96 145,84" id="86210" class="commune" fill="steelblue" stroke-width="1" stroke="white" geotype="commune" geoname="Roiffé" code_insee="86210" code_canton="8608"/><polygon points="197,318 209,322 204,325 210,333 215,331 218,334 215,343 201,341 203,346 197,350 194,357 201,361 181,363 184,352 172,347 167,344 169,340 147,338 151,328 166,325 163,323 178,319 197,318" id="86218" class="commune" fill="steelblue" stroke-width="1" stroke="white" geotype="commune" geoname="Saint-Clair" code_insee="86218" code_canton="8608"/><polygon points="139,390 159,368 170,362 181,363 201,361 194,357 197,350 203,346 201,341 215,343 233,354 230,366 234,367 239,366 244,342 259,340 267,346 272,345 288,351 295,364 280,368 288,377 289,390 279,393 281,396 279,408 274,404 256,406 253,415 256,417 256,425 249,431 235,430 230,427 231,421 218,415 215,419 194,409 183,426 184,431 148,418 155,411 153,409 166,400 155,394 139,390" id="86225" class="commune" fill="steelblue" stroke-width="1" stroke="white" geotype="commune" geoname="Saint-Jean-de-Sauves" code_insee="86225" code_canton="8608"/><polygon points="85,268 83,257 68,248 67,241 82,223 85,218 87,221 91,218 113,217 120,213 128,221 117,236 121,238 119,244 94,265 85,268" id="86227" class="commune" fill="steelblue" stroke-width="1" stroke="white" geotype="commune" geoname="Saint-Laon" code_insee="86227" code_canton="8608"/><polygon points="42,94 51,92 73,94 73,101 80,102 98,91 113,96 81,135 66,127 66,121 60,121 60,118 48,113 48,102 42,100 42,94" id="86229" class="commune" fill="steelblue" stroke-width="1" stroke="white" geotype="commune" geoname="Saint-Léger-de-Montbrillais" code_insee="86229" code_canton="8608"/><polygon points="373,299 381,298 384,304 402,309 404,326 422,337 422,341 407,348 395,349 384,353 351,326 354,324 350,318 355,320 373,299" id="86249" class="commune" fill="steelblue" stroke-width="1" stroke="white" geotype="commune" geoname="Saires" code_insee="86249" code_canton="8608"/><polygon points="142,0 162,19 165,38 169,38 153,51 151,53 157,55 147,66 131,69 122,65 124,62 121,61 112,66 105,59 101,66 93,63 80,63 79,58 105,24 142,0" id="86250" class="commune" fill="steelblue" stroke-width="1" stroke="white" geotype="commune" geoname="Saix" code_insee="86250" code_canton="8608"/><polygon points="301,130 321,132 336,132 340,126 358,140 362,143 349,169 339,169 338,174 329,172 327,175 310,174 273,185 269,178 271,171 268,163 286,148 294,146 292,139 301,130" id="86252" class="commune" fill="steelblue" stroke-width="1" stroke="white" geotype="commune" geoname="Sammarçolles" code_insee="86252" code_canton="8608"/><polygon points="19,172 17,163 15,157 30,152 43,155 79,146 80,150 99,149 95,162 79,172 65,176 54,172 52,174 48,168 19,172" id="86269" class="commune" fill="steelblue" stroke-width="1" stroke="white" geotype="commune" geoname="Ternay" code_insee="86269" code_canton="8608"/><polygon points="79,146 77,143 81,135 113,96 116,97 119,94 126,101 144,85 145,84 165,96 171,96 179,104 179,117 147,149 161,160 168,155 172,158 176,168 164,163 152,176 126,166 117,169 95,162 99,149 80,150 79,146" id="86274" class="commune" fill="steelblue" stroke-width="1" stroke="white" geotype="commune" geoname="Trois-Moutiers" code_insee="86274" code_canton="8608"/><polygon points="272,345 280,339 275,335 279,330 281,328 294,340 300,326 311,321 316,323 320,319 336,320 341,315 350,318 354,324 351,326 384,353 376,358 363,367 353,361 346,363 343,369 336,367 319,381 316,379 309,384 303,383 302,388 289,391 289,390 288,377 280,368 295,364 288,351 272,345" id="86286" class="commune" fill="steelblue" stroke-width="1" stroke="white" geotype="commune" geoname="Verrue" code_insee="86286" code_canton="8608"/><polygon points="292,139 264,127 262,130 257,128 248,118 221,105 240,81 240,63 239,58 243,58 242,54 247,52 247,54 261,54 265,64 281,58 273,70 274,78 288,80 305,87 301,109 290,121 303,126 301,130 292,139" id="86287" class="commune" fill="steelblue" stroke-width="1" stroke="white" geotype="commune" geoname="Vézières" code_insee="86287" code_canton="8608"/></svg>