<?xml version="1.0" encoding="utf-8"?>
<svg version="1.1" id="svgmap" xmlns="http://www.w3.org/2000/svg" xmlns:xlink="http://www.w3.org/1999/xlink" x="0px" y="0px" width="100%" height="100%" viewBox="0 0 500 228">
<polygon points="183,130 177,124 166,124 165,116 162,112 155,113 154,100 158,99 158,95 162,96 158,94 165,89 158,75 145,69 139,55 153,49 155,53 168,53 168,47 186,37 188,41 190,37 199,38 207,45 212,37 227,33 226,42 215,50 221,55 206,57 221,69 231,64 234,66 235,86 224,92 221,108 214,118 207,115 200,104 199,95 198,94 198,93 198,93 183,130" id="87019" class="commune" fill="steelblue" stroke-width="1" stroke="white" geotype="commune" geoname="Boisseuil" code_insee="87019" code_canton="8705"/><polygon points="0,48 23,38 55,10 65,2 73,3 72,7 78,6 73,12 74,22 88,27 91,25 90,28 88,67 74,83 71,80 60,79 63,85 57,87 51,83 51,76 38,70 15,56 7,55 0,48" id="87048" class="commune" fill="steelblue" stroke-width="1" stroke="white" geotype="commune" geoname="Condat-sur-Vienne" code_insee="87048" code_canton="8705"/><polygon points="221,108 224,92 235,86 234,66 231,64 221,69 206,57 221,55 215,50 226,42 227,33 246,36 254,25 232,13 240,5 247,9 255,2 254,9 258,0 270,3 266,10 269,15 259,21 266,25 263,27 270,33 287,30 287,26 296,22 296,16 300,14 320,21 320,25 314,31 304,33 307,44 317,45 304,60 311,74 280,82 284,83 282,87 288,88 283,90 285,101 278,97 268,100 261,95 253,100 250,113 240,111 229,116 221,108" id="87063" class="commune" fill="steelblue" stroke-width="1" stroke="white" geotype="commune" geoname="Eyjeaux" code_insee="87063" code_canton="8705"/><polygon points="232,208 236,200 229,200 234,197 224,189 208,183 201,185 206,179 201,171 208,175 208,172 213,174 219,170 221,173 232,163 239,164 244,167 242,173 259,175 263,178 257,179 259,183 270,189 263,202 256,202 257,209 253,205 253,209 248,207 247,202 241,207 234,204 232,208" id="87119" class="commune" fill="steelblue" stroke-width="1" stroke="white" geotype="commune" geoname="Pierre-Buffière" code_insee="87119" code_canton="8705"/><polygon points="498,88 500,100 489,114 471,119 467,125 472,132 461,139 472,147 470,150 452,154 451,157 457,157 450,162 458,167 452,176 431,179 435,184 429,189 435,195 444,195 434,217 419,208 417,212 407,211 394,201 383,200 382,184 387,185 396,175 392,171 385,174 385,156 359,142 374,127 371,122 417,120 421,107 435,107 438,102 453,108 461,104 459,98 471,97 473,92 483,88 498,88" id="87138" class="commune" fill="steelblue" stroke-width="1" stroke="white" geotype="commune" geoname="Saint-Bonnet-Briance" code_insee="87138" code_canton="8705"/><polygon points="385,174 378,180 379,186 363,194 365,204 358,203 357,208 344,213 335,204 301,194 300,187 289,187 290,181 279,185 275,179 279,175 271,173 275,167 305,158 308,148 314,147 318,140 322,141 323,132 359,142 385,156 385,174" id="87144" class="commune" fill="steelblue" stroke-width="1" stroke="white" geotype="commune" geoname="Saint-Genest-sur-Roselle" code_insee="87144" code_canton="8705"/><polygon points="201,171 187,156 183,130 198,93 198,93 198,94 199,95 200,104 207,115 214,118 221,108 229,116 240,111 250,113 253,100 261,95 268,100 278,97 285,101 289,102 283,110 290,112 292,118 301,121 308,119 323,132 322,141 318,140 314,147 308,148 305,158 275,167 271,173 279,175 275,179 279,185 270,189 259,183 257,179 263,178 259,175 242,173 244,167 239,164 232,163 221,173 219,170 213,174 208,172 208,175 201,171" id="87148" class="commune" fill="steelblue" stroke-width="1" stroke="white" geotype="commune" geoname="Saint-Hilaire-Bonneval" code_insee="87148" code_canton="8705"/><polygon points="165,116 166,124 177,124 183,130 187,156 201,171 206,179 201,185 208,183 224,189 234,197 229,200 236,200 232,208 235,212 229,212 226,218 220,216 219,221 213,219 215,213 201,215 195,221 166,228 161,223 157,227 141,221 136,212 119,212 104,219 87,210 83,201 90,186 81,175 91,168 106,180 135,160 140,165 145,163 151,158 143,156 145,151 162,148 161,143 165,142 158,134 159,123 165,116" id="87151" class="commune" fill="steelblue" stroke-width="1" stroke="white" geotype="commune" geoname="Saint-Jean-Ligoure" code_insee="87151" code_canton="8705"/><polygon points="10,167 22,157 32,156 42,147 51,147 55,149 64,143 68,146 75,141 85,146 90,158 86,163 84,160 86,165 73,170 81,175 90,186 83,201 51,200 34,197 39,186 34,174 10,167" id="87169" class="commune" fill="steelblue" stroke-width="1" stroke="white" geotype="commune" geoname="Saint-Maurice-les-Brousses" code_insee="87169" code_canton="8705"/><polygon points="473,92 471,97 459,98 461,104 453,108 438,102 435,107 421,107 417,120 371,122 374,127 359,142 323,132 308,119 301,121 292,118 290,112 283,110 289,102 285,101 283,90 288,88 282,87 284,83 280,82 311,74 304,60 317,45 319,41 323,44 327,39 335,40 345,48 359,52 370,68 404,70 400,77 406,80 421,78 437,69 447,73 455,88 473,92" id="87174" class="commune" fill="steelblue" stroke-width="1" stroke="white" geotype="commune" geoname="Saint-Paul" code_insee="87174" code_canton="8705"/><polygon points="90,28 97,28 101,38 112,59 117,59 121,63 120,70 131,70 131,82 122,86 128,90 124,95 111,94 114,102 99,106 81,124 69,128 64,121 56,120 53,134 40,127 26,123 27,106 44,89 53,93 64,92 60,91 71,80 74,83 88,67 90,28" id="87192" class="commune" fill="steelblue" stroke-width="1" stroke="white" geotype="commune" geoname="Solignac" code_insee="87192" code_canton="8705"/><polygon points="51,147 51,143 40,144 35,137 34,130 40,127 53,134 56,120 64,121 69,128 81,124 99,106 114,102 111,94 124,95 128,90 122,86 131,82 131,70 120,70 121,63 117,59 112,59 101,38 109,36 108,31 118,32 126,40 157,46 166,43 168,47 168,53 155,53 153,49 139,55 145,69 158,75 165,89 158,94 162,96 158,95 158,99 154,100 155,113 162,112 165,116 159,123 158,134 165,142 161,143 162,148 145,151 143,156 151,158 145,163 140,165 135,160 106,180 91,168 81,175 73,170 86,165 84,160 86,163 90,158 85,146 75,141 68,146 64,143 55,149 51,147" id="87205" class="commune" fill="steelblue" stroke-width="1" stroke="white" geotype="commune" geoname="Vigen" code_insee="87205" code_canton="8705"/></svg>