<?xml version="1.0" encoding="utf-8"?>
<svg version="1.1" id="svgmap" xmlns="http://www.w3.org/2000/svg" xmlns:xlink="http://www.w3.org/1999/xlink" x="0px" y="0px" width="100%" height="100%" viewBox="0 0 500 304">
<polygon points="416,120 435,124 475,107 491,119 491,140 479,166 482,173 486,170 492,174 491,189 500,194 470,208 480,219 472,215 476,221 474,222 463,219 466,215 455,218 451,210 441,213 433,200 422,198 416,202 403,195 396,196 391,189 397,158 392,162 371,157 365,164 346,143 355,136 365,141 382,137 386,128 403,126 409,117 416,120" id="87038" class="commune" fill="steelblue" stroke-width="1" stroke="white" geotype="commune" geoname="Chaptelat" code_insee="87038" code_canton="8706"/><polygon points="365,164 371,157 392,162 397,158 391,189 396,196 403,195 416,202 422,198 433,200 441,213 451,210 455,218 466,215 463,219 474,222 476,221 472,215 480,219 466,238 472,248 463,255 464,263 477,267 462,269 459,281 428,291 420,300 412,296 404,304 392,287 369,292 335,271 328,250 313,251 288,228 271,226 260,210 240,206 257,205 274,194 282,195 280,190 285,193 288,212 310,222 329,217 327,197 337,193 329,184 336,180 340,182 352,172 366,171 365,164" id="87050" class="commune" fill="steelblue" stroke-width="1" stroke="white" geotype="commune" geoname="Couzeix" code_insee="87050" code_canton="8706"/><polygon points="346,143 365,164 366,171 352,172 340,182 336,180 329,184 337,193 327,197 329,217 310,222 288,212 285,193 285,182 273,181 257,150 244,153 215,143 225,135 222,127 229,121 236,124 254,116 257,120 258,111 263,112 278,93 281,102 294,102 300,110 306,108 304,112 314,117 328,111 325,120 332,117 341,124 336,139 346,143" id="87107" class="commune" fill="steelblue" stroke-width="1" stroke="white" geotype="commune" geoname="Nieul" code_insee="87107" code_canton="8706"/><polygon points="119,10 126,13 145,10 149,4 160,6 165,26 175,26 173,16 181,32 195,25 213,35 222,48 229,39 241,37 240,32 248,32 252,21 260,16 263,0 281,1 282,9 276,10 283,11 281,15 273,18 269,28 291,55 288,60 281,55 278,61 269,56 286,94 278,93 263,112 258,111 257,120 254,116 236,124 229,121 222,127 183,108 130,128 125,123 137,119 116,116 124,107 116,99 106,108 101,99 69,97 64,105 55,105 55,93 40,83 50,77 54,82 63,77 62,82 68,75 65,72 72,75 76,71 62,59 68,43 78,43 73,30 86,24 84,29 92,27 98,16 119,10" id="87118" class="commune" fill="steelblue" stroke-width="1" stroke="white" geotype="commune" geoname="Peyrilhac" code_insee="87118" code_canton="8706"/><polygon points="226,242 217,246 219,242 202,239 187,224 186,203 170,198 172,176 158,173 164,170 157,165 160,142 129,138 124,133 130,128 183,108 222,127 225,135 215,143 244,153 257,150 273,181 285,182 285,193 280,190 282,195 274,194 257,205 240,206 260,210 271,226 288,228 267,239 250,240 244,236 240,239 231,230 226,242" id="87143" class="commune" fill="steelblue" stroke-width="1" stroke="white" geotype="commune" geoname="Saint-Gence" code_insee="87143" code_canton="8706"/><polygon points="437,70 436,76 445,82 426,90 431,96 415,102 416,120 409,117 403,126 386,128 382,137 365,141 355,136 346,143 336,139 341,124 332,117 325,120 328,111 314,117 304,112 306,108 300,110 294,102 281,102 278,93 286,94 269,56 278,61 281,55 288,60 291,55 308,49 319,19 326,25 330,40 356,48 346,28 362,20 373,24 373,34 380,26 383,32 403,24 409,29 402,29 410,30 406,43 423,55 433,55 437,70" id="87152" class="commune" fill="steelblue" stroke-width="1" stroke="white" geotype="commune" geoname="Saint-Jouvent" code_insee="87152" code_canton="8706"/><polygon points="64,105 69,97 101,99 106,108 116,99 124,107 116,116 137,119 125,123 130,128 124,133 129,138 160,142 157,165 164,170 158,173 172,176 170,198 186,203 187,224 202,239 219,242 217,246 215,257 205,258 200,251 186,259 180,272 162,267 158,259 144,259 144,252 131,245 92,239 91,233 86,236 87,231 82,233 87,228 69,236 67,229 53,232 55,228 47,223 14,229 3,218 11,202 0,187 17,172 43,172 58,163 72,166 80,148 77,140 59,128 64,105" id="87202" class="commune" fill="steelblue" stroke-width="1" stroke="white" geotype="commune" geoname="Veyrac" code_insee="87202" code_canton="8706"/></svg>