<?xml version="1.0" encoding="utf-8"?>
<svg version="1.1" id="svgmap" xmlns="http://www.w3.org/2000/svg" xmlns:xlink="http://www.w3.org/1999/xlink" x="0px" y="0px" width="100%" height="100%" viewBox="0 0 500 289">
<polygon points="192,253 185,262 191,267 186,276 170,283 161,282 154,272 108,261 107,256 99,256 102,246 79,252 72,245 75,229 83,227 76,223 80,206 62,197 44,200 85,189 128,195 143,191 139,213 129,220 135,228 131,235 140,240 153,234 167,237 170,247 190,252 192,253" id="87030" class="commune" fill="steelblue" stroke-width="1" stroke="white" geotype="commune" geoname="Chaillac-sur-Vienne" code_insee="87030" code_canton="8719"/><polygon points="231,0 241,0 244,5 258,14 286,19 309,35 327,32 331,45 345,41 353,41 353,53 370,59 353,62 353,69 344,71 341,76 351,85 344,100 347,107 330,114 316,105 301,119 297,115 292,119 270,113 277,106 272,106 270,104 275,105 279,104 269,104 265,95 246,98 245,94 236,96 235,86 226,87 228,82 224,87 217,84 211,88 209,85 220,80 208,79 209,70 222,73 223,68 246,63 246,50 241,50 246,41 254,41 252,32 240,35 231,29 226,26 235,20 224,15 231,0" id="87078" class="commune" fill="steelblue" stroke-width="1" stroke="white" geotype="commune" geoname="Javerdat" code_insee="87078" code_canton="8719"/><polygon points="345,41 354,35 351,31 360,36 361,31 370,33 368,29 377,29 389,39 377,38 382,44 371,55 375,60 396,63 390,64 395,70 405,65 409,79 415,75 413,67 418,56 426,59 439,57 436,65 454,69 468,78 468,88 476,88 471,108 487,118 489,125 483,141 470,138 457,146 434,146 420,159 397,166 388,166 385,160 371,161 374,168 362,161 361,156 353,156 354,160 352,161 352,153 338,151 289,156 283,140 298,128 299,120 292,119 297,115 301,119 316,105 330,114 347,107 344,100 351,85 341,76 344,71 353,69 353,62 370,59 353,53 353,41 345,41" id="87110" class="commune" fill="steelblue" stroke-width="1" stroke="white" geotype="commune" geoname="Oradour-sur-Glane" code_insee="87110" code_canton="8719"/><polygon points="37,199 44,200 62,197 80,206 76,223 83,227 75,229 72,245 52,249 43,235 37,241 28,239 25,228 15,222 8,226 0,222 16,208 37,199" id="87131" class="commune" fill="steelblue" stroke-width="1" stroke="white" geotype="commune" geoname="Saillat-sur-Vienne" code_insee="87131" code_canton="8719"/><polygon points="292,119 299,120 298,128 283,140 289,156 338,151 352,153 352,161 354,160 353,156 361,156 362,161 359,165 344,163 353,169 344,168 348,177 336,180 345,190 339,192 344,208 340,211 318,210 308,215 296,220 268,217 258,206 223,200 232,201 244,180 246,186 255,189 248,181 257,180 281,157 282,141 263,126 257,130 250,124 241,129 242,126 235,126 240,122 234,112 217,114 206,100 209,85 211,88 217,84 224,87 228,82 226,87 235,86 236,96 245,94 246,98 265,95 269,104 279,104 275,105 270,104 272,106 277,106 270,113 292,119" id="87140" class="commune" fill="steelblue" stroke-width="1" stroke="white" geotype="commune" geoname="Saint-Brice-sur-Vienne" code_insee="87140" code_canton="8719"/><polygon points="44,200 37,199 31,187 10,173 18,164 15,136 0,127 8,124 3,120 9,111 28,110 51,127 81,124 95,136 113,126 122,125 126,129 139,126 175,107 176,98 191,102 206,100 217,114 234,112 240,122 235,126 242,126 241,129 250,124 257,130 263,126 282,141 281,157 257,180 248,181 255,189 246,186 244,180 232,201 223,200 210,203 199,224 201,238 190,252 170,247 167,237 153,234 140,240 131,235 135,228 129,220 139,213 143,191 128,195 85,189 44,200" id="87154" class="commune" fill="steelblue" stroke-width="1" stroke="white" geotype="commune" geoname="Saint-Junien" code_insee="87154" code_canton="8719"/><polygon points="265,287 246,267 230,258 192,253 190,252 201,238 199,224 210,203 223,200 258,206 268,217 296,220 293,226 300,242 296,247 290,245 302,255 276,264 282,282 270,284 272,289 265,287" id="87164" class="commune" fill="steelblue" stroke-width="1" stroke="white" geotype="commune" geoname="Saint-Martin-de-Jussac" code_insee="87164" code_canton="8719"/><polygon points="389,252 384,256 358,235 339,234 326,220 308,215 318,210 340,211 344,208 339,192 345,190 336,180 348,177 344,168 353,169 344,163 359,165 362,161 374,168 371,161 385,160 388,166 397,166 420,159 430,172 423,186 432,195 461,190 468,194 465,198 478,195 480,202 495,194 491,199 496,197 494,202 498,199 500,204 498,212 485,211 458,228 445,214 420,207 405,209 409,228 416,232 414,238 404,241 406,245 391,247 389,252" id="87185" class="commune" fill="steelblue" stroke-width="1" stroke="white" geotype="commune" geoname="Saint-Victurnien" code_insee="87185" code_canton="8719"/></svg>