<?xml version="1.0" encoding="utf-8"?>
<svg version="1.1" id="svgmap" xmlns="http://www.w3.org/2000/svg" xmlns:xlink="http://www.w3.org/1999/xlink" x="0px" y="0px" width="100%" height="100%" viewBox="0 0 500 231">
<polygon points="277,115 275,124 285,128 270,138 193,155 191,149 167,140 148,129 125,94 122,87 131,86 130,78 139,81 145,75 153,80 159,89 165,91 162,94 150,94 134,89 135,96 147,97 154,103 160,103 165,98 167,106 157,107 187,115 210,125 228,124 261,112 277,115" id="88021" class="commune" fill="steelblue" stroke-width="1" stroke="white" geotype="commune" geoname="Autrey" code_insee="88021" code_canton="8813"/><polygon points="285,128 275,124 277,115 267,105 282,83 288,80 293,85 301,80 321,79 333,83 360,80 365,80 372,89 367,106 374,111 386,110 386,119 370,124 342,114 339,122 322,133 298,127 285,128" id="88068" class="commune" fill="steelblue" stroke-width="1" stroke="white" geotype="commune" geoname="Bourgonce" code_insee="88068" code_canton="8813"/><polygon points="277,115 261,112 228,124 210,125 187,115 157,107 167,106 165,98 160,103 154,103 147,97 135,96 134,89 150,94 162,94 165,91 159,89 153,80 145,75 184,70 247,78 257,76 282,83 267,105 277,115" id="88243" class="commune" fill="steelblue" stroke-width="1" stroke="white" geotype="commune" geoname="Housseras" code_insee="88243" code_canton="8813"/><polygon points="288,80 282,83 257,76 247,78 184,70 145,75 139,81 130,78 131,86 122,87 116,71 102,64 98,61 106,53 103,52 106,46 130,41 141,45 158,43 176,49 175,52 201,48 214,51 230,49 276,60 280,65 290,78 288,80" id="88251" class="commune" fill="steelblue" stroke-width="1" stroke="white" geotype="commune" geoname="Jeanménil" code_insee="88251" code_canton="8813"/><polygon points="122,13 95,41 106,46 103,52 106,53 98,61 102,64 87,56 79,56 65,75 56,70 55,77 45,82 2,64 0,55 27,33 32,20 29,15 37,12 41,17 75,5 78,0 85,0 96,3 102,11 110,9 122,13" id="88367" class="commune" fill="steelblue" stroke-width="1" stroke="white" geotype="commune" geoname="Rambervillers" code_insee="88367" code_canton="8813"/><polygon points="125,94 98,94 95,81 82,95 69,94 65,75 79,56 87,56 102,64 116,71 122,87 125,94" id="88417" class="commune" fill="steelblue" stroke-width="1" stroke="white" geotype="commune" geoname="Saint-Gorgon" code_insee="88417" code_canton="8813"/><polygon points="386,119 386,110 374,111 367,106 372,89 393,85 389,82 393,75 403,74 408,66 423,62 433,55 443,60 442,66 462,71 472,101 442,107 438,99 429,114 408,123 386,119" id="88428" class="commune" fill="steelblue" stroke-width="1" stroke="white" geotype="commune" geoname="Saint-Michel-sur-Meurthe" code_insee="88428" code_canton="8813"/><polygon points="360,80 333,83 321,79 301,80 293,85 288,80 290,78 280,65 286,69 307,64 326,68 330,64 356,61 365,76 360,80" id="88438" class="commune" fill="steelblue" stroke-width="1" stroke="white" geotype="commune" geoname="Salle" code_insee="88438" code_canton="8813"/><polygon points="459,221 450,230 440,231 439,229 435,226 426,229 411,226 409,221 404,216 395,202 371,187 349,176 359,170 362,166 361,164 375,161 380,154 384,151 389,149 395,149 401,145 409,138 411,130 427,140 435,138 453,151 458,143 463,146 457,154 462,153 469,162 493,158 498,166 500,172 490,192 482,198 483,205 464,208 478,213 468,211 462,216 460,214 459,221" id="88463" class="commune" fill="steelblue" stroke-width="1" stroke="white" geotype="commune" geoname="Taintrux" code_insee="88463" code_canton="8813"/><polygon points="460,19 466,28 461,36 452,37 479,45 483,52 477,54 476,60 462,71 442,66 443,60 433,55 436,49 431,48 427,34 447,28 460,19" id="88519" class="commune" fill="steelblue" stroke-width="1" stroke="white" geotype="commune" geoname="Voivre" code_insee="88519" code_canton="8813"/></svg>