<?xml version="1.0" encoding="utf-8"?>
<svg version="1.1" id="svgmap" xmlns="http://www.w3.org/2000/svg" xmlns:xlink="http://www.w3.org/1999/xlink" x="0px" y="0px" width="100%" height="100%" viewBox="0 0 500 434">
<polygon points="393,307 321,377 262,374 236,338 178,343 109,322 70,308 88,281 193,268 190,226 165,223 188,181 287,189 331,162 372,173 402,136 466,139 466,168 500,175 491,197 432,230 393,307" id="91027" class="commune" fill="steelblue" stroke-width="1" stroke="white" geotype="commune" geoname="Athis-Mons" code_insee="91027" code_canton="9102"/><polygon points="109,322 178,343 236,338 262,374 321,377 294,434 194,420 181,428 182,394 135,379 155,361 85,356 75,335 109,322" id="91326" class="commune" fill="steelblue" stroke-width="1" stroke="white" geotype="commune" geoname="Juvisy-sur-Orge" code_insee="91326" code_canton="9102"/><polygon points="188,181 165,223 190,226 193,268 88,281 70,308 55,301 85,206 3,202 46,149 0,79 43,84 69,51 91,56 134,0 178,0 185,128 188,181" id="91479" class="commune" fill="steelblue" stroke-width="1" stroke="white" geotype="commune" geoname="Paray-Vieille-Poste" code_insee="91479" code_canton="9102"/></svg>