<?xml version="1.0" encoding="utf-8"?>
<svg version="1.1" id="svgmap" xmlns="http://www.w3.org/2000/svg" xmlns:xlink="http://www.w3.org/1999/xlink" x="0px" y="0px" width="100%" height="100%" viewBox="0 0 500 346">
<polygon points="162,111 163,98 198,95 207,113 219,116 234,109 250,117 250,123 245,122 247,134 235,137 230,145 212,148 198,146 180,142 185,133 167,125 167,118 159,117 162,111" id="91017" class="commune" fill="steelblue" stroke-width="1" stroke="white" geotype="commune" geoname="Angervilliers" code_insee="91017" code_canton="9105"/><polygon points="357,145 379,138 392,142 395,139 413,142 432,140 426,145 431,147 408,159 404,166 379,169 335,164 319,156 326,148 357,145" id="91105" class="commune" fill="steelblue" stroke-width="1" stroke="white" geotype="commune" geoname="Breuillet" code_insee="91105" code_canton="9105"/><polygon points="364,210 361,208 362,186 350,186 335,164 379,169 404,166 391,186 383,199 364,210" id="91106" class="commune" fill="steelblue" stroke-width="1" stroke="white" geotype="commune" geoname="Breux-Jouy" code_insee="91106" code_canton="9105"/><polygon points="341,91 341,99 320,103 310,91 274,91 272,86 300,73 305,59 300,47 309,44 293,35 303,23 324,17 321,41 343,36 350,40 343,51 363,51 369,60 342,73 336,87 341,91" id="91111" class="commune" fill="steelblue" stroke-width="1" stroke="white" geotype="commune" geoname="Briis-sous-Forges" code_insee="91111" code_canton="9105"/><polygon points="440,243 447,215 467,218 461,227 474,232 490,230 491,235 500,249 480,249 468,259 470,262 461,271 454,268 457,265 435,258 440,243" id="91132" class="commune" fill="steelblue" stroke-width="1" stroke="white" geotype="commune" geoname="Chamarande" code_insee="91132" code_canton="9105"/><polygon points="394,237 405,241 403,244 419,251 410,258 401,257 400,261 394,259 397,270 403,272 400,277 356,274 355,267 352,255 358,250 374,249 387,235 394,237" id="91148" class="commune" fill="steelblue" stroke-width="1" stroke="white" geotype="commune" geoname="Chauffour-lès-Étréchy" code_insee="91148" code_canton="9105"/><polygon points="2,277 12,259 22,253 18,249 24,247 21,241 33,236 32,232 38,233 49,223 58,224 56,227 45,234 48,245 73,261 85,276 84,284 92,281 101,286 96,293 93,307 75,306 69,313 58,309 50,314 43,310 36,314 22,304 0,300 2,277" id="91175" class="commune" fill="steelblue" stroke-width="1" stroke="white" geotype="commune" geoname="Corbreuse" code_insee="91175" code_canton="9105"/><polygon points="320,103 341,99 341,91 355,91 367,105 363,113 355,113 357,125 346,128 340,121 327,124 324,117 302,121 308,110 322,108 320,103" id="91186" class="commune" fill="steelblue" stroke-width="1" stroke="white" geotype="commune" geoname="Courson-Monteloup" code_insee="91186" code_canton="9105"/><polygon points="49,172 63,174 74,183 82,175 116,180 137,176 152,189 192,194 166,212 168,240 174,248 166,258 172,262 162,268 142,240 112,249 101,246 73,261 48,245 45,234 56,227 74,228 71,212 63,208 56,210 59,218 27,204 29,193 18,201 2,191 8,169 30,174 49,172" id="91200" class="commune" fill="steelblue" stroke-width="1" stroke="white" geotype="commune" geoname="Dourdan" code_insee="91200" code_canton="9105"/><polygon points="461,271 436,296 423,302 424,314 406,309 371,311 350,301 332,292 355,267 356,274 400,277 403,272 397,270 394,259 400,261 401,257 410,258 419,251 403,244 405,241 413,240 427,247 440,243 435,258 457,265 454,268 461,271" id="91226" class="commune" fill="steelblue" stroke-width="1" stroke="white" geotype="commune" geoname="Étréchy" code_insee="91226" code_canton="9105"/><polygon points="341,91 336,87 342,73 369,60 390,67 404,56 414,45 437,61 405,61 389,77 397,84 397,96 384,105 396,118 390,128 348,134 346,128 357,125 355,113 363,113 367,105 355,91 341,91" id="91243" class="commune" fill="steelblue" stroke-width="1" stroke="white" geotype="commune" geoname="Fontenay-lès-Briis" code_insee="91243" code_canton="9105"/><polygon points="209,283 215,288 207,300 227,315 229,324 223,328 216,326 211,330 188,326 184,329 172,325 165,327 153,326 138,300 160,299 185,291 204,287 209,283" id="91247" class="commune" fill="steelblue" stroke-width="1" stroke="white" geotype="commune" geoname="Forêt-le-Roi" code_insee="91247" code_canton="9105"/><polygon points="198,95 196,87 201,90 209,77 197,79 197,73 185,73 178,65 190,57 202,63 219,62 218,58 241,58 241,54 257,55 271,41 289,41 300,47 305,59 300,73 272,86 234,109 219,116 207,113 198,95" id="91249" class="commune" fill="steelblue" stroke-width="1" stroke="white" geotype="commune" geoname="Forges-les-Bains" code_insee="91249" code_canton="9105"/><polygon points="96,293 101,286 92,281 84,284 85,276 73,261 101,246 112,249 142,240 162,268 185,291 160,299 138,300 131,302 130,297 118,301 96,293" id="91284" class="commune" fill="steelblue" stroke-width="1" stroke="white" geotype="commune" geoname="Granges-le-Roi" code_insee="91284" code_canton="9105"/><polygon points="369,60 363,51 343,51 350,40 343,36 321,41 324,17 331,10 327,0 334,2 362,11 397,16 372,30 383,29 376,36 387,39 384,43 404,56 390,67 369,60" id="91319" class="commune" fill="steelblue" stroke-width="1" stroke="white" geotype="commune" geoname="Janvry" code_insee="91319" code_canton="9105"/><polygon points="178,65 176,64 187,46 204,40 210,29 187,26 196,11 208,6 238,10 240,5 251,8 253,6 255,9 259,1 267,0 272,2 264,10 282,12 303,23 293,35 309,44 300,47 289,41 271,41 257,55 241,54 241,58 218,58 219,62 202,63 190,57 178,65" id="91338" class="commune" fill="steelblue" stroke-width="1" stroke="white" geotype="commune" geoname="Limours" code_insee="91338" code_canton="9105"/><polygon points="447,215 440,243 427,247 413,240 412,228 417,223 413,214 414,211 424,212 422,201 432,201 429,204 439,210 436,215 447,215" id="91378" class="commune" fill="steelblue" stroke-width="1" stroke="white" geotype="commune" geoname="Mauchamps" code_insee="91378" code_canton="9105"/><polygon points="165,327 170,327 168,336 144,330 142,340 135,341 136,335 128,335 113,342 77,346 67,331 72,330 50,325 62,315 56,313 58,309 69,313 75,306 93,307 96,293 118,301 130,297 131,302 138,300 153,326 165,327" id="91519" class="commune" fill="steelblue" stroke-width="1" stroke="white" geotype="commune" geoname="Richarville" code_insee="91519" code_canton="9105"/><polygon points="199,191 208,190 210,210 221,236 219,243 229,254 220,258 226,268 214,269 222,272 209,283 204,287 185,291 162,268 172,262 166,258 174,248 168,240 166,212 192,194 199,191" id="91525" class="commune" fill="steelblue" stroke-width="1" stroke="white" geotype="commune" geoname="Roinville" code_insee="91525" code_canton="9105"/><polygon points="260,185 274,181 307,165 304,160 319,156 335,164 350,186 362,186 361,208 336,209 307,222 295,210 287,209 283,201 269,202 260,185" id="91540" class="commune" fill="steelblue" stroke-width="1" stroke="white" geotype="commune" geoname="Saint-Chéron" code_insee="91540" code_canton="9105"/><polygon points="137,176 134,159 147,146 145,140 167,125 185,133 180,142 198,146 199,191 192,194 152,189 137,176" id="91546" class="commune" fill="steelblue" stroke-width="1" stroke="white" geotype="commune" geoname="Saint-Cyr-sous-Dourdan" code_insee="91546" code_canton="9105"/><polygon points="357,145 326,148 319,156 304,160 307,165 274,181 274,166 285,153 276,147 281,146 279,141 285,134 262,129 259,118 277,117 289,126 302,121 324,117 327,124 340,121 346,128 348,134 357,145" id="91568" class="commune" fill="steelblue" stroke-width="1" stroke="white" geotype="commune" geoname="Saint-Maurice-Montcouronne" code_insee="91568" code_canton="9105"/><polygon points="405,241 394,237 390,206 386,204 367,212 364,210 383,199 391,186 414,194 422,201 424,212 414,211 413,214 417,223 412,228 413,240 405,241" id="91578" class="commune" fill="steelblue" stroke-width="1" stroke="white" geotype="commune" geoname="Saint-Sulpice-de-Favières" code_insee="91578" code_canton="9105"/><polygon points="283,255 264,247 254,251 243,248 229,254 219,243 221,236 210,210 208,190 260,185 269,202 283,201 287,209 295,210 307,222 284,236 294,245 283,249 283,255" id="91593" class="commune" fill="steelblue" stroke-width="1" stroke="white" geotype="commune" geoname="Sermaise" code_insee="91593" code_canton="9105"/><polygon points="361,208 364,210 367,212 386,204 390,206 394,237 387,235 374,249 358,250 352,255 341,233 307,222 336,209 361,208" id="91602" class="commune" fill="steelblue" stroke-width="1" stroke="white" geotype="commune" geoname="Souzy-la-Briche" code_insee="91602" code_canton="9105"/><polygon points="274,181 260,185 208,190 199,191 198,146 212,148 230,145 235,137 247,134 245,122 250,123 250,117 259,118 262,129 285,134 279,141 281,146 276,147 285,153 274,166 274,181" id="91630" class="commune" fill="steelblue" stroke-width="1" stroke="white" geotype="commune" geoname="Val-Saint-Germain" code_insee="91630" code_canton="9105"/><polygon points="259,118 250,117 234,109 272,86 274,91 310,91 320,103 322,108 308,110 302,121 289,126 277,117 259,118" id="91634" class="commune" fill="steelblue" stroke-width="1" stroke="white" geotype="commune" geoname="Vaugrigneuse" code_insee="91634" code_canton="9105"/><polygon points="305,322 300,317 309,303 306,283 289,282 287,278 280,281 272,271 282,266 283,255 283,249 294,245 284,236 307,222 341,233 352,255 355,267 332,292 350,301 347,304 337,301 316,323 305,322" id="91662" class="commune" fill="steelblue" stroke-width="1" stroke="white" geotype="commune" geoname="Villeconin" code_insee="91662" code_canton="9105"/></svg>