<?xml version="1.0" encoding="utf-8"?>
<svg version="1.1" id="svgmap" xmlns="http://www.w3.org/2000/svg" xmlns:xlink="http://www.w3.org/1999/xlink" x="0px" y="0px" width="100%" height="100%" viewBox="0 0 500 459">
<polygon points="356,174 343,201 333,198 336,212 297,265 230,253 247,209 234,210 274,141 334,165 332,173 356,174" id="91044" class="commune" fill="steelblue" stroke-width="1" stroke="white" geotype="commune" geoname="Ballainvilliers" code_insee="91044" code_canton="9111"/><polygon points="190,0 308,28 308,59 298,86 268,83 219,77 195,62 157,52 156,35 190,0" id="91136" class="commune" fill="steelblue" stroke-width="1" stroke="white" geotype="commune" geoname="Champlan" code_insee="91136" code_canton="9111"/><polygon points="356,174 373,178 422,160 451,139 497,182 500,222 440,214 416,229 375,267 336,212 333,198 343,201 356,174" id="91216" class="commune" fill="steelblue" stroke-width="1" stroke="white" geotype="commune" geoname="Épinay-sur-Orge" code_insee="91216" code_canton="9111"/><polygon points="254,399 230,420 180,414 149,458 118,451 59,459 45,459 40,433 0,421 9,392 35,385 27,378 87,380 90,354 131,345 199,354 213,372 226,364 254,399" id="91339" class="commune" fill="steelblue" stroke-width="1" stroke="white" geotype="commune" geoname="Linas" code_insee="91339" code_canton="9111"/><polygon points="405,114 458,134 451,139 422,160 373,178 356,174 332,173 334,165 274,141 282,107 260,99 268,83 298,86 308,59 333,62 345,50 353,65 340,86 364,96 359,111 405,132 405,114" id="91345" class="commune" fill="steelblue" stroke-width="1" stroke="white" geotype="commune" geoname="Longjumeau" code_insee="91345" code_canton="9111"/><polygon points="152,297 189,301 216,289 261,323 248,337 258,354 248,374 263,387 254,399 226,364 213,372 199,354 131,345 109,317 152,297" id="91425" class="commune" fill="steelblue" stroke-width="1" stroke="white" geotype="commune" geoname="Montlhéry" code_insee="91425" code_canton="9111"/><polygon points="195,62 219,77 268,83 260,99 282,107 274,141 234,210 181,209 151,197 95,195 98,151 78,144 110,138 152,97 180,97 198,85 195,62" id="91587" class="commune" fill="steelblue" stroke-width="1" stroke="white" geotype="commune" geoname="Saulx-les-Chartreux" code_insee="91587" code_canton="9111"/><polygon points="216,289 189,301 152,297 149,268 131,268 111,226 181,209 234,210 247,209 230,253 216,289" id="91665" class="commune" fill="steelblue" stroke-width="1" stroke="white" geotype="commune" geoname="Ville-du-Bois" code_insee="91665" code_canton="9111"/></svg>