<?xml version="1.0" encoding="utf-8"?>
<svg version="1.1" id="svgmap" xmlns="http://www.w3.org/2000/svg" xmlns:xlink="http://www.w3.org/1999/xlink" x="0px" y="0px" width="100%" height="100%" viewBox="0 0 448 500">
<polygon points="310,74 360,70 381,70 375,83 366,86 371,89 363,99 357,98 357,117 349,111 339,115 335,127 314,126 304,119 316,116 316,106 306,98 318,79 310,74" id="91037" class="commune" fill="steelblue" stroke-width="1" stroke="white" geotype="commune" geoname="Auvernaux" code_insee="91037" code_canton="9113"/><polygon points="131,65 150,74 158,70 154,77 168,79 186,91 178,98 202,103 200,136 189,141 115,130 109,97 127,81 131,65" id="91045" class="commune" fill="steelblue" stroke-width="1" stroke="white" geotype="commune" geoname="Ballancourt-sur-Essonne" code_insee="91045" code_canton="9113"/><polygon points="115,130 189,141 190,144 176,146 170,171 205,183 188,183 186,191 161,184 156,176 125,172 117,164 96,171 92,177 80,172 91,167 115,130" id="91047" class="commune" fill="steelblue" stroke-width="1" stroke="white" geotype="commune" geoname="Baulne" code_insee="91047" code_canton="9113"/><polygon points="48,455 49,450 55,452 76,431 125,430 141,435 151,428 155,444 164,449 166,466 183,477 175,481 178,486 173,491 167,488 158,494 122,499 116,493 101,500 96,496 84,485 71,486 59,465 46,467 48,455" id="91069" class="commune" fill="steelblue" stroke-width="1" stroke="white" geotype="commune" geoname="Boigneville" code_insee="91069" code_canton="9113"/><polygon points="177,221 189,218 201,229 201,248 219,268 216,280 223,292 209,303 163,310 164,314 155,310 141,279 129,269 107,259 110,242 177,221" id="91099" class="commune" fill="steelblue" stroke-width="1" stroke="white" geotype="commune" geoname="Boutigny-sur-Essonne" code_insee="91099" code_canton="9113"/><polygon points="229,399 232,402 258,410 252,421 242,416 231,430 239,452 230,447 199,448 182,455 164,449 155,444 151,428 147,408 156,378 149,368 153,365 192,356 196,380 204,388 229,399" id="91121" class="commune" fill="steelblue" stroke-width="1" stroke="white" geotype="commune" geoname="Buno-Bonnevaux" code_insee="91121" code_canton="9113"/><polygon points="306,98 316,106 316,116 304,119 314,126 330,145 323,158 304,155 306,180 268,177 248,172 252,158 211,140 190,144 189,141 200,136 202,103 243,105 265,112 282,101 286,105 291,97 306,98" id="91135" class="commune" fill="steelblue" stroke-width="1" stroke="white" geotype="commune" geoname="Champcueil" code_insee="91135" code_canton="9113"/><polygon points="297,73 310,74 318,79 306,98 291,97 286,105 282,101 265,112 243,105 202,103 178,98 186,91 224,67 250,65 253,61 297,73" id="91159" class="commune" fill="steelblue" stroke-width="1" stroke="white" geotype="commune" geoname="Chevannes" code_insee="91159" code_canton="9113"/><polygon points="402,13 419,13 417,18 396,20 398,34 367,64 360,63 360,70 310,74 297,73 306,63 299,56 306,46 276,42 281,31 311,12 313,6 316,17 327,21 320,5 323,0 326,2 331,18 345,24 360,25 402,13" id="91179" class="commune" fill="steelblue" stroke-width="1" stroke="white" geotype="commune" geoname="Coudray-Montceaux" code_insee="91179" code_canton="9113"/><polygon points="357,227 374,237 370,244 374,247 362,258 375,262 370,277 342,284 313,286 299,282 297,287 289,286 292,256 305,250 310,245 319,247 324,241 330,243 342,232 350,235 357,227" id="91180" class="commune" fill="steelblue" stroke-width="1" stroke="white" geotype="commune" geoname="Courances" code_insee="91180" code_canton="9113"/><polygon points="52,318 54,309 67,299 78,300 74,308 99,296 97,285 129,269 141,279 155,310 137,315 86,309 80,316 65,321 52,318" id="91184" class="commune" fill="steelblue" stroke-width="1" stroke="white" geotype="commune" geoname="Courdimanche-sur-Essonne" code_insee="91184" code_canton="9113"/><polygon points="361,223 357,227 350,235 342,232 330,243 324,241 319,247 310,245 305,250 259,235 258,226 266,219 255,207 260,194 282,192 316,208 330,220 344,218 361,223" id="91195" class="commune" fill="steelblue" stroke-width="1" stroke="white" geotype="commune" geoname="Dannemois" code_insee="91195" code_canton="9113"/><polygon points="161,184 152,198 137,199 94,188 84,189 88,192 84,199 75,192 80,172 92,177 96,171 117,164 125,172 156,176 161,184" id="91232" class="commune" fill="steelblue" stroke-width="1" stroke="white" geotype="commune" geoname="Ferté-Alais" code_insee="91232" code_canton="9113"/><polygon points="186,91 168,79 154,77 158,70 150,74 131,65 138,55 161,43 183,33 200,46 209,48 202,52 215,56 210,60 224,67 186,91" id="91244" class="commune" fill="steelblue" stroke-width="1" stroke="white" geotype="commune" geoname="Fontenay-le-Vicomte" code_insee="91244" code_canton="9113"/><polygon points="147,408 132,403 91,410 86,404 44,425 42,418 37,419 39,412 2,419 0,412 10,388 37,381 44,371 52,375 74,370 107,375 124,367 153,365 149,368 156,378 147,408" id="91273" class="commune" fill="steelblue" stroke-width="1" stroke="white" geotype="commune" geoname="Gironville-sur-Essonne" code_insee="91273" code_canton="9113"/><polygon points="177,221 110,242 105,236 92,238 78,234 79,203 84,199 88,192 84,189 94,188 137,199 152,198 188,200 177,221" id="91293" class="commune" fill="steelblue" stroke-width="1" stroke="white" geotype="commune" geoname="Guigneville-sur-Essonne" code_insee="91293" code_canton="9113"/><polygon points="100,81 107,85 127,81 109,97 115,130 91,167 86,153 77,153 74,147 60,150 58,157 35,145 9,149 10,140 39,114 42,117 67,109 71,98 61,89 65,82 75,78 100,81" id="91315" class="commune" fill="steelblue" stroke-width="1" stroke="white" geotype="commune" geoname="Itteville" code_insee="91315" code_canton="9113"/><polygon points="155,310 164,314 163,310 209,303 223,304 224,310 213,324 200,327 203,330 192,336 192,356 153,365 124,367 107,375 74,370 52,375 44,371 53,340 37,338 42,330 37,329 52,318 65,321 80,316 86,309 137,315 155,310" id="91359" class="commune" fill="steelblue" stroke-width="1" stroke="white" geotype="commune" geoname="Maisse" code_insee="91359" code_canton="9113"/><polygon points="219,14 250,7 254,7 267,10 281,31 276,42 306,46 299,56 306,63 297,73 253,61 250,65 224,67 210,60 215,56 202,52 209,48 200,46 183,33 201,30 219,14" id="91386" class="commune" fill="steelblue" stroke-width="1" stroke="white" geotype="commune" geoname="Mennecy" code_insee="91386" code_canton="9113"/><polygon points="392,281 412,304 448,329 401,323 400,329 366,345 359,338 331,337 313,349 292,334 279,338 273,356 252,369 252,384 229,399 204,388 196,380 192,356 192,336 203,330 200,327 213,324 224,310 223,304 209,303 223,292 225,289 242,291 265,303 285,303 294,293 289,286 297,287 299,282 313,286 342,284 370,277 392,281" id="91405" class="commune" fill="steelblue" stroke-width="1" stroke="white" geotype="commune" geoname="Milly-la-Forêt" code_insee="91405" code_canton="9113"/><polygon points="259,235 305,250 292,256 289,286 294,293 285,303 265,303 242,291 225,289 223,292 216,280 219,268 201,248 201,229 219,227 231,233 250,230 259,235" id="91408" class="commune" fill="steelblue" stroke-width="1" stroke="white" geotype="commune" geoname="Moigny-sur-École" code_insee="91408" code_canton="9113"/><polygon points="268,177 264,185 245,180 244,185 205,183 170,171 176,146 190,144 211,140 252,158 248,172 268,177" id="91412" class="commune" fill="steelblue" stroke-width="1" stroke="white" geotype="commune" geoname="Mondeville" code_insee="91412" code_canton="9113"/><polygon points="386,131 383,157 369,154 362,161 354,160 351,166 323,158 330,145 314,126 335,127 339,115 349,111 357,117 377,118 376,132 386,131" id="91441" class="commune" fill="steelblue" stroke-width="1" stroke="white" geotype="commune" geoname="Nainville-les-Roches" code_insee="91441" code_canton="9113"/><polygon points="232,402 229,399 252,384 252,369 273,356 279,338 292,334 313,349 334,362 303,375 272,378 265,382 271,393 264,394 257,388 232,402" id="91463" class="commune" fill="steelblue" stroke-width="1" stroke="white" geotype="commune" geoname="Oncy-sur-École" code_insee="91463" code_canton="9113"/><polygon points="306,5 313,6 311,12 281,31 267,10 254,7 279,4 292,9 306,5" id="91468" class="commune" fill="steelblue" stroke-width="1" stroke="white" geotype="commune" geoname="Ormoy" code_insee="91468" code_canton="9113"/><polygon points="76,431 83,426 71,427 70,422 45,429 44,425 86,404 91,410 132,403 147,408 151,428 141,435 125,430 76,431" id="91507" class="commune" fill="steelblue" stroke-width="1" stroke="white" geotype="commune" geoname="Prunay-sur-Essonne" code_insee="91507" code_canton="9113"/><polygon points="244,185 245,180 264,185 268,177 306,180 304,155 323,158 351,166 354,160 362,161 369,154 383,157 380,170 364,177 369,186 363,189 371,196 365,200 374,204 364,209 372,219 361,223 344,218 330,220 316,208 282,192 260,194 244,192 244,185" id="91599" class="commune" fill="steelblue" stroke-width="1" stroke="white" geotype="commune" geoname="Soisy-sur-École" code_insee="91599" code_canton="9113"/><polygon points="201,229 189,218 177,221 188,200 152,198 161,184 186,191 188,183 205,183 244,185 244,192 260,194 255,207 266,219 258,226 259,235 250,230 231,233 219,227 201,229" id="91654" class="commune" fill="steelblue" stroke-width="1" stroke="white" geotype="commune" geoname="Videlles" code_insee="91654" code_canton="9113"/></svg>