<?xml version="1.0" encoding="utf-8"?>
<svg version="1.1" id="svgmap" xmlns="http://www.w3.org/2000/svg" xmlns:xlink="http://www.w3.org/1999/xlink" x="0px" y="0px" width="100%" height="100%" viewBox="0 0 500 295">
<polygon points="465,153 476,184 328,202 258,185 295,178 265,165 287,164 297,134 328,131 383,90 415,99 387,143 439,150 440,162 465,153" id="93013" class="commune" fill="steelblue" stroke-width="1" stroke="white" geotype="commune" geoname="Bourget" code_insee="93013" code_canton="9307"/><polygon points="225,285 163,255 37,273 0,246 21,235 2,219 20,191 53,198 63,185 72,131 160,78 202,55 297,134 287,164 265,165 295,178 258,185 328,202 266,276 242,295 225,285" id="93027" class="commune" fill="steelblue" stroke-width="1" stroke="white" geotype="commune" geoname="Courneuve" code_insee="93027" code_canton="9307"/><polygon points="500,26 415,99 383,90 328,131 297,134 202,55 229,44 224,24 297,0 303,12 367,2 418,31 500,26" id="93030" class="commune" fill="steelblue" stroke-width="1" stroke="white" geotype="commune" geoname="Dugny" code_insee="93030" code_canton="9307"/></svg>