<?xml version="1.0" encoding="utf-8"?>
<svg version="1.1" id="svgmap" xmlns="http://www.w3.org/2000/svg" xmlns:xlink="http://www.w3.org/1999/xlink" x="0px" y="0px" width="100%" height="100%" viewBox="0 0 500 267">
<polygon points="104,183 94,158 91,152 101,150 105,142 103,134 113,132 123,140 126,137 142,145 169,148 186,158 174,176 138,196 104,183" id="95028" class="commune" fill="steelblue" stroke-width="1" stroke="white" geotype="commune" geoname="Attainville" code_insee="95028" code_canton="9509"/><polygon points="360,140 345,105 367,87 336,83 362,60 402,60 405,70 397,72 393,96 412,96 410,106 381,143 360,140" id="95055" class="commune" fill="steelblue" stroke-width="1" stroke="white" geotype="commune" geoname="Bellefontaine" code_insee="95055" code_canton="9509"/><polygon points="222,88 211,104 218,103 216,107 228,111 194,128 186,141 175,139 175,134 156,125 160,121 139,126 133,123 122,105 138,96 157,70 172,67 174,72 217,64 212,72 222,88" id="95056" class="commune" fill="steelblue" stroke-width="1" stroke="white" geotype="commune" geoname="Belloy-en-France" code_insee="95056" code_canton="9509"/><polygon points="400,175 383,173 364,164 358,168 341,164 328,151 318,150 319,147 324,145 337,148 343,141 338,139 350,135 360,140 381,143 400,175" id="95144" class="commune" fill="steelblue" stroke-width="1" stroke="white" geotype="commune" geoname="Châtenay-en-France" code_insee="95144" code_canton="9509"/><polygon points="358,11 349,20 332,27 321,41 315,40 309,51 297,55 298,46 287,47 278,34 266,39 258,34 270,29 274,17 307,16 331,12 353,1 361,5 358,11" id="95149" class="commune" fill="steelblue" stroke-width="1" stroke="white" geotype="commune" geoname="Chaumontel" code_insee="95149" code_canton="9509"/><polygon points="200,202 233,206 255,238 221,258 194,258 170,261 161,267 161,246 162,242 182,211 200,202" id="95205" class="commune" fill="steelblue" stroke-width="1" stroke="white" geotype="commune" geoname="Écouen" code_insee="95205" code_canton="9509"/><polygon points="287,101 281,111 280,117 265,124 246,120 228,111 216,107 218,103 211,104 222,88 231,81 247,89 262,87 265,92 248,101 270,97 287,101" id="95214" class="commune" fill="steelblue" stroke-width="1" stroke="white" geotype="commune" geoname="Épinay-Champlâtreux" code_insee="95214" code_canton="9509"/><polygon points="144,232 132,221 118,218 114,209 128,202 134,205 138,196 174,176 195,192 191,202 200,202 182,211 162,242 144,232" id="95229" class="commune" fill="steelblue" stroke-width="1" stroke="white" geotype="commune" geoname="Ézanville" code_insee="95229" code_canton="9509"/><polygon points="401,178 384,202 357,196 355,206 329,210 318,217 318,228 312,228 306,228 305,217 272,192 258,179 262,173 282,170 318,150 328,151 341,164 358,168 364,164 383,173 400,175 401,178" id="95241" class="commune" fill="steelblue" stroke-width="1" stroke="white" geotype="commune" geoname="Fontenay-en-Parisis" code_insee="95241" code_canton="9509"/><polygon points="405,70 417,72 458,75 500,86 499,92 486,88 436,97 412,96 393,96 397,72 405,70" id="95250" class="commune" fill="steelblue" stroke-width="1" stroke="white" geotype="commune" geoname="Fosses" code_insee="95250" code_canton="9509"/><polygon points="335,94 333,98 345,105 360,140 350,135 338,139 343,141 337,148 324,145 319,147 315,134 294,128 294,122 280,117 281,111 304,111 335,94" id="95316" class="commune" fill="steelblue" stroke-width="1" stroke="white" geotype="commune" geoname="Jagny-sous-Bois" code_insee="95316" code_canton="9509"/><polygon points="281,111 287,101 318,77 336,83 335,94 304,111 281,111" id="95331" class="commune" fill="steelblue" stroke-width="1" stroke="white" geotype="commune" geoname="Lassy" code_insee="95331" code_canton="9509"/><polygon points="391,22 387,27 435,40 443,49 419,62 417,72 405,70 402,60 362,60 336,83 318,77 287,101 270,97 248,101 265,92 262,87 247,89 231,81 222,88 212,72 217,64 227,53 238,48 233,42 252,31 257,16 259,12 278,15 292,0 314,0 307,16 274,17 270,29 258,34 266,39 278,34 287,47 298,46 297,55 309,51 315,40 321,41 332,27 349,20 358,11 379,13 391,22" id="95352" class="commune" fill="steelblue" stroke-width="1" stroke="white" geotype="commune" geoname="Luzarches" code_insee="95352" code_canton="9509"/><polygon points="113,132 103,134 95,136 93,132 82,139 53,138 49,141 31,134 26,127 26,130 15,126 12,132 0,128 16,109 40,101 36,93 45,83 58,89 89,103 84,112 99,107 95,120 104,119 112,131 113,132" id="95353" class="commune" fill="steelblue" stroke-width="1" stroke="white" geotype="commune" geoname="Maffliers" code_insee="95353" code_canton="9509"/><polygon points="223,147 246,120 265,124 280,117 294,122 294,128 315,134 319,147 318,150 282,170 262,173 250,173 223,147" id="95365" class="commune" fill="steelblue" stroke-width="1" stroke="white" geotype="commune" geoname="Mareil-en-France" code_insee="95365" code_canton="9509"/><polygon points="262,173 258,179 272,192 268,189 242,197 238,194 233,206 200,202 191,202 195,192 174,176 186,158 208,148 206,153 223,147 250,173 262,173" id="95395" class="commune" fill="steelblue" stroke-width="1" stroke="white" geotype="commune" geoname="Mesnil-Aubry" code_insee="95395" code_canton="9509"/><polygon points="233,206 238,194 242,197 268,189 272,192 305,217 292,230 283,227 277,235 269,229 256,238 255,238 233,206" id="95492" class="commune" fill="steelblue" stroke-width="1" stroke="white" geotype="commune" geoname="Plessis-Gassot" code_insee="95492" code_canton="9509"/><polygon points="345,105 333,98 335,94 336,83 367,87 345,105" id="95493" class="commune" fill="steelblue" stroke-width="1" stroke="white" geotype="commune" geoname="Plessis-Luzarches" code_insee="95493" code_canton="9509"/><polygon points="401,178 400,175 381,143 410,106 417,108 405,120 411,121 408,128 420,131 418,137 435,139 436,151 451,156 445,170 421,183 401,178" id="95509" class="commune" fill="steelblue" stroke-width="1" stroke="white" geotype="commune" geoname="Puiseux-en-France" code_insee="95509" code_canton="9509"/><polygon points="133,123 112,131 104,119 95,120 99,107 84,112 89,103 58,89 51,85 51,76 64,65 54,57 71,49 74,34 101,40 107,37 117,49 131,51 143,41 145,61 157,70 138,96 122,105 133,123" id="95566" class="commune" fill="steelblue" stroke-width="1" stroke="white" geotype="commune" geoname="Saint-Martin-du-Tertre" code_insee="95566" code_canton="9509"/><polygon points="252,31 233,42 238,48 227,53 203,49 201,29 208,26 229,31 241,26 252,31" id="95594" class="commune" fill="steelblue" stroke-width="1" stroke="white" geotype="commune" geoname="Seugy" code_insee="95594" code_canton="9509"/><polygon points="217,64 174,72 172,67 157,70 145,61 143,41 162,20 182,7 199,13 213,5 217,9 257,16 252,31 241,26 229,31 208,26 201,29 203,49 227,53 217,64" id="95652" class="commune" fill="steelblue" stroke-width="1" stroke="white" geotype="commune" geoname="Viarmes" code_insee="95652" code_canton="9509"/><polygon points="112,131 133,123 139,126 160,121 156,125 175,134 175,139 169,148 142,145 126,137 123,140 113,132 112,131" id="95660" class="commune" fill="steelblue" stroke-width="1" stroke="white" geotype="commune" geoname="Villaines-sous-Bois" code_insee="95660" code_canton="9509"/><polygon points="246,120 223,147 206,153 208,148 186,158 169,148 175,139 186,141 194,128 228,111 246,120" id="95682" class="commune" fill="steelblue" stroke-width="1" stroke="white" geotype="commune" geoname="Villiers-le-Sec" code_insee="95682" code_canton="9509"/></svg>