<?xml version="1.0" encoding="utf-8"?>
<svg version="1.1" id="svgmap" xmlns="http://www.w3.org/2000/svg" xmlns:xlink="http://www.w3.org/1999/xlink" x="0px" y="0px" width="100%" height="100%" viewBox="0 0 483 500">
<polygon points="216,34 246,37 234,59 298,105 283,200 247,197 230,235 148,246 128,240 181,190 140,168 215,95 216,34" id="95014" class="commune" fill="steelblue" stroke-width="1" stroke="white" geotype="commune" geoname="Andilly" code_insee="95014" code_canton="9515"/><polygon points="282,427 330,472 299,499 241,500 193,469 149,448 185,404 213,401 233,370 255,386 282,427" id="95210" class="commune" fill="steelblue" stroke-width="1" stroke="white" geotype="commune" geoname="Enghien-les-Bains" code_insee="95210" code_canton="9515"/><polygon points="140,168 181,190 128,240 60,229 74,193 140,168" id="95369" class="commune" fill="steelblue" stroke-width="1" stroke="white" geotype="commune" geoname="Margency" code_insee="95369" code_canton="9515"/><polygon points="216,34 215,95 140,168 74,193 0,167 57,136 57,86 97,45 121,54 150,0 171,10 216,34" id="95426" class="commune" fill="steelblue" stroke-width="1" stroke="white" geotype="commune" geoname="Montlignon" code_insee="95426" code_canton="9515"/><polygon points="282,427 255,386 296,340 256,322 306,293 284,271 327,223 283,200 298,105 320,132 366,136 368,139 357,173 438,203 439,248 483,270 466,359 374,349 373,363 328,369 327,432 306,445 282,427" id="95428" class="commune" fill="steelblue" stroke-width="1" stroke="white" geotype="commune" geoname="Montmorency" code_insee="95428" code_canton="9515"/><polygon points="185,404 139,390 82,324 148,246 230,235 247,197 283,200 327,223 284,271 306,293 256,322 296,340 255,386 233,370 213,401 185,404" id="95598" class="commune" fill="steelblue" stroke-width="1" stroke="white" geotype="commune" geoname="Soisy-sous-Montmorency" code_insee="95598" code_canton="9515"/></svg>