<?xml version="1.0" encoding="utf-8"?>
<svg version="1.1" id="svgmap" xmlns="http://www.w3.org/2000/svg" xmlns:xlink="http://www.w3.org/1999/xlink" x="0px" y="0px" width="100%" height="100%" viewBox="0 0 500 206">
<polygon points="348,195 341,202 275,178 179,151 218,106 245,121 310,130 293,177 348,195" id="95051" class="commune" fill="steelblue" stroke-width="1" stroke="white" geotype="commune" geoname="Beauchamp" code_insee="95051" code_canton="9519"/><polygon points="182,53 219,26 250,42 296,20 303,28 344,18 382,26 414,36 387,71 345,84 280,79 218,106 159,82 182,53" id="95060" class="commune" fill="steelblue" stroke-width="1" stroke="white" geotype="commune" geoname="Bessancourt" code_insee="95060" code_canton="9519"/><polygon points="218,106 179,151 275,178 260,187 215,206 111,155 109,190 42,155 0,117 109,63 159,82 218,106" id="95488" class="commune" fill="steelblue" stroke-width="1" stroke="white" geotype="commune" geoname="Pierrelaye" code_insee="95488" code_canton="9519"/><polygon points="356,197 348,195 293,177 310,130 245,121 218,106 280,79 345,84 387,71 414,36 382,26 412,0 426,10 452,29 500,42 500,65 466,55 448,115 384,161 356,197" id="95607" class="commune" fill="steelblue" stroke-width="1" stroke="white" geotype="commune" geoname="Taverny" code_insee="95607" code_canton="9519"/></svg>