<?xml version="1.0" encoding="utf-8"?>
<svg version="1.1" id="svgmap" xmlns="http://www.w3.org/2000/svg" xmlns:xlink="http://www.w3.org/1999/xlink" x="0px" y="0px" width="100%" height="100%" viewBox="0 0 406 500">
<polygon points="344,441 313,399 325,382 323,398 355,436 378,436 344,441" id="97120" class="commune" fill="steelblue" stroke-width="1" stroke="white" geotype="commune" geoname="Pointe-à-Pitre" code_insee="97120" code_canton="97115"/><polygon points="84,384 91,375 98,379 88,388 84,384" id="97120" class="commune" fill="steelblue" stroke-width="1" stroke="white" geotype="commune" geoname="Pointe-à-Pitre" code_insee="97120" code_canton="97115"/><polygon points="116,0 305,77 336,135 340,129 362,183 331,313 378,337 406,373 393,387 384,430 372,428 378,418 352,413 351,404 383,401 386,377 362,383 327,354 314,353 315,334 344,336 354,327 329,317 332,294 325,301 303,298 290,258 310,249 309,234 295,229 298,213 288,208 270,236 252,224 231,200 239,164 203,156 208,126 202,108 124,39 132,26 121,21 123,33 101,17 115,16 105,11 116,0" id="97120" class="commune" fill="steelblue" stroke-width="1" stroke="white" geotype="commune" geoname="Pointe-à-Pitre" code_insee="97120" code_canton="97115"/><polygon points="103,377 127,389 135,399 134,401 103,377" id="97120" class="commune" fill="steelblue" stroke-width="1" stroke="white" geotype="commune" geoname="Pointe-à-Pitre" code_insee="97120" code_canton="97115"/><polygon points="39,358 46,358 50,369 85,388 55,380 39,358" id="97120" class="commune" fill="steelblue" stroke-width="1" stroke="white" geotype="commune" geoname="Pointe-à-Pitre" code_insee="97120" code_canton="97115"/><polygon points="177,464 188,428 220,473 268,472 280,494 293,497 230,500 191,492 177,464" id="97120" class="commune" fill="steelblue" stroke-width="1" stroke="white" geotype="commune" geoname="Pointe-à-Pitre" code_insee="97120" code_canton="97115"/><polygon points="16,297 22,289 32,307 21,306 16,297" id="97120" class="commune" fill="steelblue" stroke-width="1" stroke="white" geotype="commune" geoname="Pointe-à-Pitre" code_insee="97120" code_canton="97115"/><polygon points="0,365 2,354 6,353 9,373 0,365" id="97120" class="commune" fill="steelblue" stroke-width="1" stroke="white" geotype="commune" geoname="Pointe-à-Pitre" code_insee="97120" code_canton="97115"/></svg>