<?xml version="1.0" encoding="utf-8"?>
<svg version="1.1" id="svgmap" xmlns="http://www.w3.org/2000/svg" xmlns:xlink="http://www.w3.org/1999/xlink" x="0px" y="0px" width="100%" height="100%" viewBox="0 0 363 500">
<polygon points="0,183 26,111 14,102 27,78 64,64 81,39 140,0 148,37 174,65 181,107 218,151 208,218 250,217 269,231 293,234 330,262 353,296 354,325 335,335 336,402 310,424 363,472 322,468 304,473 306,482 296,490 272,486 255,500 211,470 244,423 205,383 209,349 195,329 212,310 199,281 160,254 142,257 129,231 88,197 64,189 48,193 29,182 0,183" id="97408" class="commune" fill="steelblue" stroke-width="1" stroke="white" geotype="commune" geoname="Possession" code_insee="97408" code_canton="97403"/></svg>