<?xml version="1.0" encoding="utf-8"?>
<svg version="1.1" id="svgmap" xmlns="http://www.w3.org/2000/svg" xmlns:xlink="http://www.w3.org/1999/xlink" x="0px" y="0px" width="100%" height="100%" viewBox="0 0 294 500">
<polygon points="220,18 243,16 243,16 243,16 243,16 243,16 243,16 244,16 244,16 244,16 245,16 246,16 246,16 246,16 246,16 246,16 246,16 246,16 247,15 247,15 247,15 248,15 248,15 248,15 248,15 248,15 249,15 250,15 250,15 251,15 251,15 251,15 252,15 253,15 253,15 254,16 254,16 256,16 256,16 257,16 258,16 259,16 259,16 260,16 261,17 261,17 262,17 262,17 262,17 263,17 264,17 264,17 278,5 280,3 281,3 284,0 284,0 286,2 287,3 289,5 292,8 292,8 293,10 293,10 293,10 293,11 293,11 293,12 294,12 284,30 280,36 277,38 276,38 276,38 275,38 275,38 274,38 273,39 272,39 272,39 272,39 271,40 271,40 271,41 271,41 271,41 270,42 270,42 269,43 268,45 268,45 268,46 268,46 267,46 267,46 266,46 266,47 264,48 264,48 262,49 262,49 258,50 258,50 254,55 254,55 253,56 253,56 253,56 253,56 252,57 252,57 252,58 251,58 251,58 252,58 257,61 257,61 254,70 253,74 252,75 252,78 252,79 252,79 252,80 251,81 251,81 251,81 252,81 251,82 251,84 251,84 251,84 251,84 251,85 251,85 251,86 251,87 252,87 252,88 252,88 252,88 252,89 252,90 252,91 252,91 252,91 251,99 251,99 251,100 250,101 250,102 250,102 251,104 253,105 253,105 253,106 254,106 254,106 255,106 256,106 256,106 257,106 258,106 258,106 259,105 259,105 260,105 260,105 260,106 261,106 261,107 260,107 260,107 260,107 260,108 260,108 260,108 259,109 259,110 259,110 258,110 257,110 257,111 257,111 256,112 256,112 255,112 253,113 259,118 259,118 260,118 260,119 261,119 262,119 262,119 263,119 264,119 265,119 265,119 266,119 266,119 266,119 267,119 267,119 267,119 266,120 265,120 265,121 264,122 264,122 264,123 263,123 263,124 263,125 263,125 263,125 262,125 262,126 261,126 261,126 260,126 259,126 258,126 257,126 257,126 256,127 254,128 254,128 253,129 253,129 253,129 252,129 252,129 252,129 252,129 251,128 251,128 250,129 249,129 248,129 248,129 247,129 247,129 246,128 246,128 246,128 246,128 246,129 246,129 245,130 245,130 245,130 245,131 245,131 244,131 243,131 242,131 242,131 241,131 240,131 240,131 239,131 239,132 239,132 239,132 238,133 237,133 236,134 236,134 235,134 235,135 235,135 235,135 236,136 236,136 236,136 236,136 235,137 235,137 234,137 234,137 233,137 232,136 231,137 230,137 230,137 229,137 228,137 228,137 228,138 227,138 227,138 226,139 226,139 225,139 224,139 224,140 223,140 223,140 223,140 222,140 221,141 221,141 221,141 220,141 220,141 219,142 218,142 218,142 218,142 217,143 217,143 217,144 217,144 217,144 216,144 216,145 216,145 216,145 215,146 215,147 214,147 214,147 214,148 213,149 213,149 213,150 212,151 212,151 212,151 212,151 212,152 211,152 211,152 211,153 211,153 211,153 211,154 211,155 211,155 211,155 211,156 211,156 211,157 211,157 211,157 211,157 211,158 210,158 210,158 209,158 209,159 209,159 209,160 209,160 207,162 206,163 206,163 206,163 206,164 206,164 206,164 205,165 204,166 203,166 203,166 203,167 203,167 203,167 202,168 202,168 201,169 201,169 201,169 201,169 201,170 201,170 201,171 201,172 201,173 201,173 201,174 201,175 201,175 201,176 201,176 201,176 201,177 201,177 200,177 200,178 200,178 199,179 198,180 198,180 198,180 198,180 197,181 197,181 197,182 197,182 199,182 202,182 203,183 203,183 204,183 205,184 206,184 207,184 209,185 210,185 212,185 212,185 226,182 226,182 226,181 227,178 227,178 230,175 232,174 234,176 234,176 235,175 238,173 238,173 240,174 240,173 240,174 240,174 240,174 240,174 240,174 240,174 240,174 240,174 240,174 241,174 241,174 242,175 242,175 244,177 244,177 244,177 244,177 244,177 244,177 244,177 245,177 245,177 247,178 247,178 248,178 249,179 249,179 249,179 250,179 250,179 252,180 252,180 253,180 254,180 254,180 254,180 254,180 255,181 255,182 256,182 256,182 258,183 259,182 259,182 260,182 260,183 260,183 262,184 262,184 262,184 262,184 270,188 274,189 275,189 277,190 277,190 277,190 278,193 279,193 286,198 286,201 285,209 284,210 284,210 284,211 285,211 292,215 291,216 290,217 290,217 289,218 289,218 289,218 289,218 289,219 289,219 289,220 290,221 290,224 291,226 291,226 291,227 291,227 291,228 291,228 291,229 290,229 290,231 290,231 289,232 289,233 289,233 289,233 289,234 290,234 289,234 288,236 288,236 288,236 288,237 289,238 289,238 289,238 290,242 290,243 290,248 290,249 289,251 289,252 289,252 290,255 291,259 291,265 291,265 286,270 284,271 284,271 283,273 282,275 282,276 282,276 281,277 282,277 282,278 281,278 281,280 281,280 281,280 281,280 280,281 279,282 279,283 279,283 278,283 278,284 278,284 278,285 278,285 278,285 277,286 277,286 277,286 277,286 277,287 277,287 278,288 278,288 279,290 279,291 279,291 280,291 280,292 280,292 281,292 281,292 281,292 281,293 281,293 281,293 282,293 282,293 282,293 283,294 283,294 283,294 283,295 283,296 284,296 284,298 285,298 285,299 285,299 284,300 284,300 284,301 284,301 283,302 283,302 283,302 282,303 281,303 280,303 280,303 280,304 280,304 280,304 280,304 280,304 280,305 280,305 280,306 280,306 279,307 279,307 279,307 279,308 278,309 278,309 278,309 278,310 278,310 278,311 278,312 278,312 278,313 278,313 278,313 278,314 278,314 278,314 279,314 279,314 279,314 278,314 278,314 278,316 277,316 277,316 277,317 277,318 276,318 276,318 276,318 275,319 275,319 274,319 274,319 274,319 273,320 271,321 271,321 270,321 270,321 270,320 267,318 267,317 266,317 264,316 263,316 262,315 261,314 260,313 260,313 259,312 258,312 258,311 258,311 256,311 256,310 255,310 254,309 254,308 252,307 251,306 249,305 247,301 247,300 247,299 246,298 244,296 242,294 242,294 237,292 236,291 234,290 232,289 231,288 229,287 227,287 225,287 225,287 223,288 221,289 218,291 216,291 215,291 210,290 208,290 208,291 207,291 207,292 208,293 208,293 210,294 213,296 214,301 215,305 214,307 214,309 212,312 211,316 210,317 209,318 208,318 207,319 207,320 205,321 204,322 204,323 205,326 204,327 203,328 202,329 201,331 201,331 199,332 197,332 194,334 193,335 193,336 193,336 194,339 194,340 193,342 191,343 191,347 190,349 189,351 189,353 188,355 188,356 188,358 187,359 186,361 187,362 187,363 188,364 188,365 189,367 189,368 192,369 198,370 199,371 199,372 198,374 198,376 197,378 196,379 195,382 194,384 193,386 191,387 189,389 189,390 188,390 188,390 187,391 186,392 185,395 185,397 185,397 186,398 186,399 186,399 187,400 187,400 187,401 187,401 188,402 188,403 188,403 189,404 189,405 189,406 189,408 189,409 189,410 189,412 189,414 189,416 190,418 190,418 191,419 191,419 192,421 193,422 193,423 194,423 194,424 195,427 195,429 195,430 193,433 192,435 189,439 188,439 187,441 186,441 184,442 183,443 183,443 183,444 182,444 182,446 183,447 184,448 187,451 190,452 192,454 192,456 191,457 188,459 189,465 189,466 190,471 191,472 191,473 192,478 192,483 185,483 185,483 184,483 184,482 184,482 184,481 183,482 183,482 183,482 181,482 180,482 179,483 178,482 177,482 175,482 174,482 174,482 173,482 173,482 172,482 171,482 170,482 169,480 168,480 168,480 168,479 167,479 166,479 164,479 163,478 163,477 162,476 162,476 161,476 161,476 160,476 160,476 159,476 158,476 158,476 157,476 156,476 156,476 155,476 154,477 153,477 153,477 152,478 150,478 149,478 149,478 147,478 146,479 146,479 145,479 144,479 143,479 142,479 141,479 140,479 139,479 139,479 138,480 137,480 136,481 135,481 135,482 135,483 134,483 134,483 134,483 133,484 133,484 133,484 133,485 132,487 132,487 132,488 131,488 131,488 131,489 130,489 129,489 129,489 129,489 128,490 128,491 128,491 127,491 127,491 127,491 126,492 126,492 125,492 124,492 124,493 124,493 121,493 119,493 118,494 117,494 116,494 115,494 115,494 113,495 112,495 110,495 110,495 109,495 108,495 107,495 107,495 86,498 85,499 84,499 83,499 81,500 81,499 81,499 81,499 81,498 81,498 81,497 81,496 81,496 81,494 81,494 81,493 80,492 79,489 79,488 79,488 79,487 78,487 78,487 78,487 78,486 78,485 77,484 76,483 76,483 76,481 76,481 76,481 76,480 76,480 76,479 76,479 76,479 76,479 76,478 76,478 75,478 74,477 74,477 72,476 72,475 69,474 69,474 69,473 69,473 68,472 68,472 68,472 67,472 67,472 66,471 66,471 65,469 64,469 64,469 64,469 64,469 64,469 64,468 64,468 64,467 64,467 64,467 63,466 63,466 63,466 63,464 63,464 63,464 63,464 63,462 61,460 47,445 42,436 42,435 37,427 36,427 36,427 36,425 36,423 36,423 36,423 36,422 36,422 36,421 36,418 36,417 37,414 37,413 37,413 35,411 35,410 35,409 36,408 36,408 36,407 35,405 35,405 36,404 36,403 36,401 36,399 36,399 37,398 39,394 38,392 38,391 38,389 38,387 39,387 39,387 39,385 39,384 39,383 39,383 40,381 40,381 42,377 42,377 43,366 44,364 45,352 45,352 41,346 35,337 26,310 30,295 30,294 30,293 31,292 32,291 34,289 34,289 35,288 35,288 35,287 36,285 37,284 37,283 37,282 40,277 40,276 41,275 41,274 42,273 42,272 45,255 45,254 46,254 50,254 50,254 56,247 56,247 56,246 56,246 58,241 58,241 58,242 59,241 59,241 58,240 59,240 59,240 59,239 59,239 59,239 59,239 59,239 59,238 59,238 60,238 60,238 60,238 60,238 61,238 61,238 61,238 61,238 62,238 62,238 63,237 63,237 64,237 64,236 64,236 64,236 65,235 65,235 65,235 66,235 67,234 67,234 67,234 67,234 67,234 67,233 67,233 67,232 68,232 68,232 68,231 68,231 69,231 69,230 70,230 70,230 70,230 71,229 71,228 72,228 72,228 72,228 72,227 72,227 72,227 72,227 72,227 73,226 73,226 73,225 74,224 74,224 74,224 74,223 74,223 74,223 74,223 74,223 75,223 75,222 75,222 75,222 75,222 75,221 75,221 75,221 75,221 75,221 75,220 75,220 76,220 76,220 76,219 77,219 77,219 77,219 77,218 77,218 78,218 77,217 78,217 78,217 78,217 78,217 78,217 79,216 79,216 79,216 79,215 79,215 79,215 79,215 79,215 79,214 80,213 80,213 80,213 80,213 79,213 79,213 79,212 79,212 79,212 79,211 79,211 79,210 79,210 79,209 79,209 79,208 79,208 78,208 78,207 77,207 77,206 77,206 77,206 77,206 76,206 76,206 76,206 76,205 76,205 75,205 75,204 75,204 75,204 74,204 74,204 73,204 73,203 73,203 73,203 73,203 73,202 72,202 72,202 72,202 72,202 72,202 72,201 72,201 72,200 72,200 72,200 72,200 73,200 74,200 74,200 74,200 74,200 74,200 75,200 74,200 75,199 75,199 75,198 75,198 76,198 76,197 76,197 76,197 76,197 77,196 77,196 77,195 77,195 77,195 77,195 78,194 78,194 78,194 77,194 77,193 77,193 77,193 74,189 71,186 61,182 31,180 30,180 30,180 29,180 29,180 29,179 29,179 28,179 28,179 28,179 27,179 27,179 27,179 27,178 27,178 26,178 26,178 26,178 26,177 25,177 25,177 25,177 25,177 24,176 24,176 24,176 24,176 24,176 23,176 23,176 23,175 23,175 23,175 23,175 23,175 23,175 22,175 22,174 21,174 21,174 22,169 22,168 21,168 21,169 20,169 19,169 18,169 16,170 15,170 13,170 13,170 12,170 11,170 10,169 9,169 7,167 6,166 7,166 5,164 0,163 1,161 3,157 3,150 4,149 5,146 7,140 13,130 13,130 13,129 13,129 14,128 13,127 13,127 13,126 13,126 13,126 13,126 14,126 14,126 14,126 15,124 15,124 15,123 18,117 33,124 33,124 34,124 34,124 34,124 34,124 34,124 34,124 34,124 34,124 34,124 34,124 34,124 35,124 35,124 35,124 35,124 35,124 35,124 36,124 36,124 36,124 36,124 37,124 38,124 38,124 38,124 39,124 40,124 40,124 40,124 41,125 41,125 41,125 41,125 42,125 42,125 43,124 43,124 43,124 43,124 43,124 43,124 44,124 44,124 44,124 43,123 43,123 43,123 44,123 44,123 44,123 44,123 45,123 45,123 45,123 46,124 46,124 46,124 46,124 46,124 47,124 47,124 47,124 47,124 48,125 48,125 49,126 49,126 49,126 50,126 50,126 50,126 50,126 50,126 50,126 51,126 51,125 51,125 52,125 52,125 52,125 53,125 54,125 54,125 54,125 55,125 55,125 55,125 56,125 56,125 57,125 57,125 57,125 57,125 57,125 58,125 59,125 59,125 59,125 59,125 59,125 60,125 60,126 60,126 60,126 61,126 61,126 61,126 61,126 61,126 62,126 62,126 62,126 62,126 63,127 63,127 63,126 63,126 64,126 64,127 65,127 65,127 65,127 66,127 66,127 67,128 66,128 67,128 67,128 67,129 67,129 67,129 67,130 67,130 67,130 68,131 68,131 69,131 69,132 69,132 69,133 69,133 71,133 71,133 71,133 72,133 72,133 73,133 73,133 73,133 73,133 74,133 74,132 74,132 74,132 74,132 74,132 74,131 74,131 74,131 75,130 75,129 77,128 78,127 78,127 78,127 78,126 78,126 78,125 80,124 80,124 80,123 80,123 80,123 81,123 81,123 82,123 82,123 83,124 84,124 85,124 85,125 85,125 86,125 87,126 88,126 88,126 89,126 96,127 101,124 109,122 109,122 109,122 111,121 111,120 112,120 113,119 114,119 114,119 114,119 115,118 115,118 115,118 116,118 116,118 117,117 117,117 117,117 116,109 116,108 115,108 105,102 106,98 105,98 105,98 102,98 109,75 124,60 129,54 138,52 138,52 138,53 138,53 138,53 138,54 138,54 138,54 138,54 147,52 157,56 164,62 164,62 166,62 167,63 170,63 171,62 171,62 172,62 173,62 187,55 187,54 189,53 203,54 205,53 212,53 219,49 219,49 217,44 219,42 219,40 220,39 220,38 221,37 221,37 222,36 223,35 224,35 225,33 225,33 225,32 226,30 223,29 222,27 221,25 221,25 221,25 221,25 221,25 221,25 221,25 221,25 221,25 221,24 221,24 221,23 221,22 221,21 221,20 220,18 220,18" id="103" class="canton" fill="steelblue" stroke-width="1" stroke="white" geotype="canton" geoname="Bellegarde-sur-Valserine" code_insee="103" code_departement="1" nom_departement="Ain" code_region="84" nom_region="Auvergne-Rhône-Alpes"/></svg>