<?xml version="1.0" encoding="utf-8"?>
<svg version="1.1" id="svgmap" xmlns="http://www.w3.org/2000/svg" xmlns:xlink="http://www.w3.org/1999/xlink" x="0px" y="0px" width="100%" height="100%" viewBox="0 0 500 168">
<polygon points="21,69 21,70 21,70 21,70 21,70 21,70 21,70 22,71 22,71 22,71 22,71 22,71 23,70 23,70 23,70 23,70 23,70 23,70 23,70 23,70 24,70 24,70 24,70 24,70 24,70 26,70 26,70 26,70 26,70 26,70 27,70 27,70 28,69 28,69 28,69 29,68 29,68 29,68 29,68 29,68 29,68 29,68 29,68 29,68 30,68 30,68 30,68 31,68 31,68 31,68 31,68 31,69 31,69 32,68 32,68 33,69 33,69 33,69 33,68 34,68 34,68 34,68 34,68 34,68 36,68 36,68 36,68 36,68 36,68 37,67 37,68 39,67 39,67 39,68 40,67 40,67 40,68 40,68 46,73 46,73 46,73 46,73 47,73 47,73 48,73 48,73 48,73 48,73 48,73 50,73 50,73 50,73 50,73 51,72 52,72 52,72 52,72 52,72 53,72 53,72 53,73 53,73 53,73 53,73 53,74 53,74 53,74 53,74 53,74 53,74 53,74 53,75 53,75 53,75 53,75 53,75 53,75 55,75 55,75 55,76 55,76 55,76 56,76 56,76 56,76 56,76 56,76 56,76 56,76 56,76 58,76 58,76 58,76 58,76 58,76 58,76 58,76 58,76 58,76 58,76 58,76 59,76 59,76 59,76 59,77 59,77 59,77 59,77 59,77 60,78 60,78 60,78 60,78 61,78 61,78 61,78 61,78 62,79 62,79 62,79 63,78 63,78 64,78 64,78 64,78 64,78 65,77 65,77 65,77 65,77 65,77 66,76 66,77 66,77 66,77 66,77 67,77 67,77 67,77 67,76 67,76 67,76 74,75 75,75 76,75 75,75 75,75 75,75 75,75 75,75 75,75 74,75 74,74 75,74 75,74 77,74 77,74 77,74 77,74 78,74 78,74 78,74 81,74 81,74 81,74 81,74 81,74 81,74 81,74 81,73 82,74 82,74 82,74 82,74 82,74 82,74 82,74 82,74 82,74 82,74 82,75 82,75 82,75 82,75 82,75 87,74 92,74 92,74 91,73 91,73 91,73 91,72 90,71 90,71 94,69 94,69 96,68 97,67 98,66 98,66 98,66 98,66 100,65 100,65 101,65 101,65 101,65 101,65 101,65 101,65 101,65 101,65 103,63 103,63 103,63 104,63 104,63 108,64 108,64 108,64 108,64 108,64 108,63 108,63 108,63 109,63 109,63 109,63 109,62 109,62 110,61 110,61 110,61 110,61 111,62 111,62 111,62 118,55 118,55 118,55 118,56 119,56 119,55 119,55 120,55 120,55 120,55 120,55 120,55 120,55 120,55 120,54 120,54 120,54 120,54 120,54 120,54 120,54 120,54 121,54 121,54 121,53 121,53 121,53 120,52 120,52 120,52 120,52 120,52 120,51 120,51 120,50 120,50 120,50 120,49 120,49 120,49 120,49 122,49 122,49 122,48 121,48 121,47 120,47 120,47 120,47 120,47 120,47 121,46 121,46 121,46 121,46 121,46 122,46 122,45 123,45 124,45 124,44 124,44 125,44 125,44 126,44 126,44 127,44 128,44 128,44 129,44 130,44 130,44 130,44 131,44 131,44 131,44 131,43 131,43 131,42 130,40 130,40 130,40 134,39 134,39 135,39 135,39 135,39 135,39 136,38 136,38 136,38 134,37 134,37 134,37 134,37 135,37 136,36 136,36 134,35 134,34 134,30 134,30 138,28 138,28 138,28 139,28 140,28 141,28 142,27 143,27 144,27 144,27 144,27 145,28 145,29 146,29 147,32 147,32 152,37 152,37 155,37 155,37 155,37 156,38 156,38 156,38 156,38 157,38 158,38 158,38 158,38 158,38 159,38 159,39 159,39 159,39 159,39 159,39 159,39 159,39 159,39 160,39 161,40 162,40 163,41 163,41 165,42 165,42 165,42 166,42 166,42 166,42 166,42 164,42 163,42 161,43 161,43 161,43 161,43 160,43 159,44 159,44 158,44 158,44 166,45 166,45 166,45 166,45 166,45 166,45 166,46 166,46 165,46 165,46 165,46 165,46 164,46 164,47 164,47 164,47 163,47 163,48 162,48 162,49 161,50 160,51 159,51 159,51 159,51 159,51 159,51 159,51 159,51 159,51 158,52 158,52 157,52 157,52 157,52 157,52 156,53 156,53 156,53 155,54 155,54 155,54 154,54 154,54 154,54 154,54 154,54 154,54 153,54 153,54 153,54 153,54 153,54 152,54 152,54 152,54 151,54 151,54 151,54 150,55 150,55 150,55 150,55 150,55 150,55 150,55 150,55 149,55 149,55 149,55 150,55 150,56 150,56 150,56 150,56 150,56 150,57 150,57 149,57 149,57 150,57 150,57 149,58 149,58 149,58 149,58 148,58 148,58 148,58 148,58 148,58 148,58 148,58 148,59 148,59 148,59 148,59 147,59 147,59 147,59 146,59 146,59 146,59 146,60 146,60 146,60 146,60 146,60 145,60 145,60 145,60 145,60 145,61 145,61 145,61 145,61 144,61 144,61 144,61 144,61 144,61 144,62 144,62 144,62 144,61 143,61 143,61 143,61 143,62 143,62 143,62 143,62 143,62 143,62 143,62 143,62 142,62 142,62 142,62 142,62 142,62 141,62 141,62 141,62 141,62 141,62 141,62 141,62 140,62 140,62 140,63 140,63 140,63 139,63 139,63 139,63 139,63 139,63 139,63 139,63 139,63 138,64 138,64 138,64 138,64 138,64 138,64 138,64 138,65 137,65 137,65 137,65 136,65 136,65 136,65 136,65 136,65 135,65 135,65 135,65 135,65 135,65 134,66 134,66 134,66 134,66 134,66 134,66 134,66 134,66 133,67 133,67 133,67 133,67 133,67 133,67 133,67 133,67 133,68 133,68 133,68 133,68 133,68 132,68 132,68 132,68 132,69 132,69 132,69 132,69 132,69 132,69 132,69 133,70 133,70 133,70 133,70 132,70 132,70 132,70 132,71 132,71 132,71 132,71 132,71 132,71 132,71 132,72 133,72 133,72 133,72 133,72 134,72 134,72 134,72 135,72 135,72 136,72 137,72 137,72 137,72 137,71 137,71 137,71 137,71 137,70 137,70 138,70 138,70 139,70 141,71 141,71 142,70 142,71 142,71 143,72 143,72 143,72 142,73 142,73 142,73 142,73 142,73 142,73 142,73 142,73 142,73 142,73 143,73 143,73 143,73 143,73 145,73 145,73 146,73 147,73 147,74 148,74 149,74 149,74 149,74 149,74 149,74 149,74 149,74 149,74 149,74 149,73 149,73 151,74 151,74 151,74 150,74 151,74 151,74 151,74 152,74 152,74 152,75 152,75 152,75 152,75 151,76 151,76 151,76 151,76 152,76 152,77 153,77 153,77 154,77 154,77 156,77 156,78 155,78 155,78 155,78 157,79 157,79 157,79 157,79 157,79 157,79 158,79 158,79 158,79 158,80 158,80 158,80 159,79 159,79 159,79 159,80 159,80 160,80 160,80 161,80 161,80 161,80 161,80 161,80 161,80 161,80 161,80 162,80 162,80 162,80 162,80 162,80 162,80 163,80 163,80 163,79 163,79 163,79 163,79 162,79 162,79 162,78 162,78 162,78 162,78 163,78 163,77 163,77 163,77 163,77 163,77 163,77 163,77 164,77 164,77 164,77 165,76 164,75 164,75 164,75 168,75 168,75 170,74 170,74 170,74 170,73 172,74 172,74 173,72 173,71 173,71 174,71 175,72 176,72 176,72 176,71 176,71 180,71 180,71 181,71 180,70 180,70 180,70 180,69 182,69 182,69 183,66 183,66 186,64 186,64 186,64 187,64 187,64 188,64 188,65 189,65 189,65 190,65 191,65 191,65 191,65 192,64 194,64 194,63 196,63 196,63 196,63 197,61 197,61 197,61 196,61 196,61 196,61 198,59 198,59 199,57 199,57 199,57 199,57 199,57 200,57 200,57 200,57 201,56 201,56 202,56 203,56 204,57 204,57 204,57 205,55 205,55 206,55 206,55 209,56 209,56 209,56 209,56 209,55 209,55 208,54 208,54 208,54 208,54 211,53 211,53 211,53 214,52 214,52 215,52 215,52 219,54 219,54 219,54 219,54 220,55 221,55 221,55 221,55 221,55 221,55 221,55 222,55 222,55 223,55 224,56 224,56 224,56 224,56 224,56 224,56 224,56 224,56 224,56 224,56 226,57 226,57 226,57 226,57 227,57 227,56 227,55 227,55 227,55 227,55 227,55 229,53 229,53 229,53 229,53 229,53 229,53 229,53 230,52 231,52 231,52 231,51 231,51 231,51 232,50 232,51 234,52 234,52 235,52 235,52 235,52 235,51 235,51 235,51 235,51 235,51 235,50 235,50 235,50 235,50 235,50 235,50 234,49 234,49 234,49 233,49 233,48 232,48 232,48 232,48 233,48 235,49 236,49 236,49 236,49 236,49 237,49 237,49 238,50 240,50 240,50 241,50 242,51 242,51 242,51 243,51 244,51 244,51 244,51 245,50 245,50 245,50 248,51 248,51 249,50 249,50 249,50 251,50 251,50 251,50 252,50 253,50 253,50 253,50 254,51 254,51 254,51 254,51 255,49 255,49 255,49 255,49 255,50 255,50 256,50 256,50 256,50 256,50 256,51 257,51 257,51 259,52 259,52 259,52 260,52 260,52 261,52 261,52 262,51 262,51 262,51 262,51 263,51 263,51 263,51 263,51 263,50 263,50 263,51 264,51 264,51 264,51 264,51 264,51 265,51 266,52 266,52 266,52 266,52 266,52 267,52 267,52 267,52 268,52 268,52 268,52 270,53 271,53 271,53 271,53 272,53 272,53 272,53 272,53 272,54 272,54 273,54 273,53 273,53 273,53 276,53 276,53 276,53 276,52 276,52 274,52 274,52 274,51 274,51 273,51 273,51 273,51 273,51 274,50 274,50 274,50 274,50 275,49 275,49 275,49 275,49 275,48 275,48 275,48 275,48 277,47 274,46 274,46 276,43 277,42 277,42 277,42 279,43 279,43 280,43 280,43 281,43 281,42 284,42 284,42 284,42 285,44 285,44 285,44 287,43 287,43 287,42 286,42 286,41 286,41 286,41 284,41 284,41 284,40 284,40 286,39 286,39 286,39 286,38 286,38 285,37 285,37 285,37 285,37 285,37 285,35 285,35 285,35 286,35 286,35 287,35 287,35 287,33 287,33 287,33 287,33 288,33 288,33 288,33 288,32 288,32 288,32 289,31 289,32 289,32 290,33 290,33 290,33 290,33 290,33 293,32 293,32 294,31 294,31 294,29 296,29 296,29 299,28 300,28 300,28 300,28 300,28 300,28 300,28 300,27 300,27 300,27 300,27 300,27 300,27 300,27 300,27 301,25 301,25 302,25 302,25 304,25 304,25 304,25 305,25 305,25 305,25 305,25 302,24 302,24 302,23 302,23 303,22 303,22 303,22 302,22 301,22 301,21 306,21 306,21 305,20 306,20 308,19 308,19 308,19 308,19 308,19 308,19 309,19 309,19 309,19 310,18 308,17 308,17 308,17 310,16 312,16 313,15 314,15 314,15 314,15 314,15 315,15 315,15 316,15 317,15 318,15 319,15 321,15 321,15 322,16 322,16 320,17 320,17 320,17 320,17 320,19 320,19 321,19 321,19 322,19 322,19 324,19 325,19 325,18 326,18 327,18 327,17 327,17 328,17 328,17 329,17 329,17 330,16 330,16 330,16 330,16 330,16 330,16 332,15 332,15 332,15 332,15 332,14 332,14 332,15 334,15 334,15 334,15 334,15 334,14 334,14 334,14 336,15 336,15 336,15 336,14 336,11 336,11 336,11 336,11 336,11 335,11 335,11 334,9 334,9 334,9 334,9 334,9 334,9 334,9 334,9 334,8 334,8 334,8 334,8 334,8 334,8 332,7 332,7 332,7 332,7 332,5 333,5 333,5 334,2 334,2 334,1 334,1 340,3 341,3 341,3 342,1 342,1 343,2 343,2 344,2 344,3 345,4 345,4 345,4 345,4 346,4 346,4 346,4 346,5 346,5 347,5 347,5 347,5 347,5 347,5 347,5 348,6 348,6 348,6 348,6 348,6 348,6 348,6 348,6 348,6 350,7 350,7 350,7 350,7 351,8 351,8 351,8 351,8 355,7 356,7 357,7 358,7 358,7 359,7 359,7 359,7 360,7 360,7 360,7 360,7 360,7 361,8 361,8 364,8 364,8 364,8 364,8 364,9 364,9 364,9 364,10 364,10 364,10 365,10 370,12 370,12 371,12 371,12 371,11 371,12 372,13 372,13 372,13 375,12 375,12 375,12 375,12 375,12 375,12 375,13 376,13 376,13 376,13 376,13 376,13 377,13 378,14 378,14 378,14 379,13 379,13 381,14 381,14 381,14 381,14 381,13 381,13 381,13 381,13 384,12 384,12 385,12 385,12 385,12 386,12 386,12 386,12 387,12 387,11 387,11 387,11 388,11 389,11 389,10 389,10 390,10 391,9 391,9 392,8 392,8 392,8 392,8 392,8 392,8 392,8 392,8 391,7 391,7 391,7 391,6 391,6 391,6 390,6 391,6 391,6 391,6 391,6 391,6 391,6 391,6 391,6 391,6 391,6 391,6 391,6 391,6 391,6 391,6 392,6 392,6 392,7 392,7 393,7 393,7 393,7 393,7 393,7 393,7 394,7 394,7 394,7 394,7 394,7 394,6 394,6 394,6 393,6 393,6 393,6 393,6 393,6 393,6 393,6 393,6 393,6 393,6 393,6 393,6 393,6 393,6 393,6 393,6 393,5 393,5 394,5 394,5 394,5 394,5 395,5 395,5 395,5 395,5 395,5 395,5 395,4 395,4 396,4 396,4 396,4 396,4 396,4 396,4 397,3 397,3 397,3 397,3 397,3 397,3 398,3 398,3 398,3 398,3 399,3 399,3 400,3 400,2 401,2 401,2 401,2 402,2 402,2 402,2 403,2 403,1 403,1 404,1 404,1 405,1 405,1 405,0 406,0 406,0 407,0 407,0 406,0 406,1 407,1 408,2 408,2 408,2 409,3 409,5 409,5 411,5 411,5 411,5 412,5 412,5 413,7 413,7 413,7 415,6 415,6 415,6 415,6 416,6 416,6 416,6 417,6 417,6 417,6 417,6 418,6 419,7 419,7 420,8 420,8 420,8 420,8 421,8 421,8 421,8 421,9 423,10 423,10 423,11 423,11 423,11 423,11 423,11 424,12 424,12 424,12 424,12 424,13 424,13 424,13 425,13 425,13 426,13 427,13 429,14 430,15 431,16 431,16 431,16 432,16 432,17 433,18 433,18 435,19 435,19 435,19 434,20 434,21 434,21 435,21 436,21 437,22 437,22 438,23 438,23 438,23 438,23 438,23 438,23 443,24 443,24 443,24 443,24 444,24 445,25 445,25 444,27 444,28 443,29 442,29 442,30 441,31 441,31 441,31 443,31 443,31 444,31 445,31 445,31 447,31 447,31 448,31 448,31 451,31 451,31 451,31 451,31 450,33 450,33 452,34 452,34 452,35 452,35 455,37 459,40 459,40 462,42 462,42 462,42 461,43 458,44 457,44 457,44 454,44 454,44 454,44 454,44 454,44 453,44 453,44 453,44 452,45 452,45 452,45 454,45 456,46 456,46 456,46 455,47 454,47 454,47 454,47 455,47 456,47 456,47 456,47 456,48 455,49 455,49 454,51 454,51 453,52 453,52 452,53 452,53 452,53 452,53 452,53 452,54 452,54 452,54 452,56 452,56 452,56 451,57 451,58 451,58 451,58 452,58 455,58 455,58 454,60 454,60 455,61 456,61 456,61 458,60 461,60 461,60 461,60 460,60 460,62 459,63 459,63 459,64 459,64 459,64 459,65 459,65 459,65 459,65 460,66 460,66 460,66 460,66 460,66 460,66 461,67 463,67 463,67 464,67 465,68 465,68 465,68 467,68 468,68 468,68 467,69 464,74 464,74 461,76 461,76 461,76 462,77 462,77 462,77 460,81 460,81 459,82 458,83 458,84 458,84 458,84 459,84 460,84 460,84 460,84 460,84 460,84 461,84 461,84 463,84 463,84 463,85 463,85 464,84 464,85 465,85 465,85 465,86 465,86 465,88 465,88 465,88 466,88 466,88 467,88 467,88 468,89 468,89 468,89 468,89 468,89 468,89 468,89 468,89 468,89 470,92 468,92 468,92 468,92 468,92 468,92 468,92 469,93 469,93 469,93 470,93 470,93 470,93 470,93 470,93 471,93 471,93 471,93 471,93 471,93 471,93 471,93 472,93 472,93 472,93 472,93 473,93 473,93 473,93 473,93 473,93 473,93 473,94 473,94 473,94 473,94 474,94 474,94 474,95 474,95 474,95 474,95 475,95 475,95 475,95 475,94 476,94 476,94 476,94 476,94 476,94 476,93 476,93 477,93 477,93 477,93 477,93 478,93 479,93 479,93 479,93 479,94 479,94 479,94 479,94 479,96 479,96 479,96 481,97 481,97 481,96 482,96 485,95 485,95 485,95 487,95 487,95 487,95 487,95 487,95 488,95 488,95 489,95 491,94 491,94 491,94 493,93 493,93 495,95 495,95 496,95 496,95 498,96 497,96 497,96 495,96 495,96 495,97 497,98 497,98 497,98 495,98 495,98 495,98 497,99 497,99 495,100 495,100 495,100 496,101 496,101 496,101 497,101 497,101 497,101 498,102 499,103 499,103 499,103 499,104 500,105 500,105 500,106 500,106 500,107 500,107 500,107 500,108 500,109 500,109 500,109 500,110 500,110 500,110 496,110 496,110 496,110 495,110 495,110 495,110 495,110 494,110 493,110 493,110 492,110 492,110 491,110 491,110 491,110 490,110 488,110 487,111 487,111 486,111 485,111 483,111 480,111 479,111 479,111 479,111 479,110 479,110 478,110 477,110 477,110 476,111 476,111 475,111 475,111 474,109 473,109 472,109 472,109 472,109 472,109 471,109 471,109 470,110 470,110 467,112 466,112 466,112 466,112 468,113 468,113 468,113 468,113 467,113 466,114 463,115 463,115 463,115 463,116 463,116 463,116 463,116 465,118 465,118 465,118 463,119 463,119 463,119 464,120 464,121 463,121 462,121 462,121 462,121 462,121 462,121 461,121 459,121 458,121 458,120 458,120 455,123 454,123 454,123 454,123 452,124 452,124 452,124 452,124 452,125 449,126 448,126 446,127 446,127 446,127 446,126 446,126 445,126 445,125 445,125 445,125 444,126 443,126 442,127 441,127 441,127 439,129 437,130 437,130 433,132 433,133 433,133 433,133 433,133 433,133 432,134 432,134 431,135 431,135 430,135 430,136 430,136 429,136 429,136 429,136 428,136 427,135 427,135 427,136 427,136 425,136 425,136 425,136 423,136 421,136 421,136 420,136 419,136 419,136 418,136 418,136 417,136 416,136 416,136 414,136 414,136 414,136 412,137 412,137 412,136 412,136 412,136 412,136 412,136 412,136 412,136 411,136 411,135 411,135 411,135 411,135 411,135 411,135 411,135 411,134 411,134 411,134 411,134 411,134 411,134 412,134 412,134 412,134 412,134 412,134 412,134 412,134 412,134 411,133 410,133 410,133 410,133 410,133 410,133 410,133 410,134 410,134 410,134 410,134 410,134 410,134 410,134 410,135 410,135 406,133 406,133 407,133 408,132 408,132 409,131 409,131 409,131 409,131 409,130 403,128 403,128 404,127 404,127 404,128 404,128 404,128 406,126 406,126 406,126 405,126 405,126 404,126 404,126 403,125 403,125 403,125 403,125 402,125 402,125 402,125 402,125 401,125 401,124 399,124 399,124 399,124 399,123 398,123 398,123 398,123 398,123 397,122 397,122 396,122 396,122 395,121 395,121 394,120 394,120 394,120 394,120 392,118 392,118 385,121 382,123 381,123 380,122 380,122 379,122 378,121 377,120 377,120 377,120 376,120 375,119 374,119 373,118 373,118 372,117 371,117 370,116 370,116 368,117 367,117 366,117 366,117 365,117 365,117 365,117 365,117 365,117 365,117 362,118 362,118 362,118 364,121 364,121 364,121 364,121 364,121 359,123 359,123 359,123 361,125 361,125 361,125 358,126 355,128 355,128 354,127 353,127 353,126 353,126 353,126 351,126 351,126 351,126 350,127 350,127 350,127 349,127 349,127 349,127 349,126 349,126 349,126 349,126 349,126 348,126 348,126 348,126 348,126 348,127 348,127 348,127 348,127 347,127 347,127 347,127 347,128 347,128 346,128 346,128 346,128 346,128 346,129 346,129 346,129 346,129 346,129 346,129 345,129 341,129 340,129 340,129 340,129 340,130 340,130 340,130 336,130 336,130 332,137 332,137 330,138 330,138 330,138 330,138 330,138 329,138 329,138 329,138 329,138 329,138 329,138 328,137 328,137 328,137 328,137 328,137 328,137 328,137 328,137 328,137 328,137 328,137 325,137 324,137 323,137 323,137 322,137 320,137 320,137 319,137 319,137 319,137 319,136 318,135 318,135 318,135 317,134 317,134 317,134 316,134 316,133 314,131 314,131 311,132 310,132 310,132 309,132 309,132 309,133 309,133 308,133 306,134 305,134 303,134 303,134 303,134 303,134 301,134 300,134 297,135 295,135 295,135 296,137 295,137 294,138 294,138 294,138 293,138 292,138 291,138 291,138 291,138 291,137 291,137 290,137 290,137 290,137 290,137 289,136 289,136 287,137 287,137 287,137 287,136 287,136 287,136 285,136 285,136 285,136 285,137 285,137 285,137 285,137 282,138 282,138 283,139 283,139 283,139 278,140 278,140 278,140 276,141 276,141 276,141 276,141 276,140 276,140 276,140 276,140 276,140 276,140 276,140 276,140 276,140 276,140 273,140 273,140 273,140 273,140 273,140 273,140 273,140 273,140 271,141 271,141 270,141 270,141 270,141 270,141 270,141 270,142 270,142 270,142 269,142 269,142 269,142 269,142 269,142 269,142 269,142 269,142 268,142 268,142 268,142 268,142 268,143 268,143 268,143 268,143 269,143 269,143 269,143 269,143 269,143 269,143 270,144 270,144 270,144 270,144 270,144 270,144 271,144 271,144 271,144 271,144 271,144 271,144 271,144 271,144 271,144 271,145 271,145 271,145 271,145 271,145 271,145 271,145 272,145 272,145 272,145 272,146 272,146 272,146 272,146 272,146 272,146 272,146 272,147 272,147 272,147 272,147 272,147 272,147 271,147 271,147 271,147 271,147 271,147 270,147 270,147 270,147 270,146 270,146 270,146 270,146 270,146 270,146 269,146 269,146 269,146 268,146 268,146 268,146 268,146 267,146 267,146 267,146 267,146 267,146 267,146 267,146 267,145 267,146 267,146 267,146 267,146 267,146 266,146 266,146 265,146 265,146 265,145 264,145 264,145 264,145 264,145 264,145 264,145 265,146 265,146 265,146 265,146 265,146 265,147 265,147 265,147 265,147 264,147 264,147 262,147 262,146 262,146 261,146 261,146 261,146 260,147 259,147 259,147 258,147 258,147 257,147 257,147 254,148 252,148 252,148 244,149 238,150 238,150 237,149 237,149 236,149 236,149 236,150 235,150 235,150 235,149 234,149 233,149 233,150 233,150 233,150 233,150 233,150 233,150 233,150 231,150 231,150 231,150 231,150 231,150 231,150 231,150 230,150 230,150 230,150 230,150 228,148 228,148 227,149 227,149 227,149 227,149 227,149 227,149 225,150 225,150 223,150 223,150 223,150 222,150 220,154 220,154 218,154 217,154 217,154 216,153 213,152 208,149 208,149 208,149 209,149 209,149 209,149 209,149 209,148 210,148 210,148 210,148 210,148 214,147 214,147 215,146 215,146 214,146 214,146 213,144 212,143 212,143 212,143 212,143 212,143 212,142 212,142 212,142 211,141 211,141 210,141 210,141 210,141 210,141 210,141 208,141 208,141 208,141 208,141 208,141 208,141 208,141 207,141 207,141 207,141 206,142 204,142 199,146 198,146 198,146 198,146 199,149 194,147 192,146 190,145 190,145 190,145 190,145 189,145 188,145 188,145 187,145 187,145 187,145 186,145 186,145 186,145 186,145 185,146 185,146 185,146 184,145 184,145 184,145 184,144 184,144 184,144 183,144 183,144 182,143 181,143 181,142 181,142 180,143 180,143 180,143 180,143 180,143 179,142 179,142 178,143 178,143 178,143 177,143 177,143 176,144 176,144 175,145 175,146 174,147 174,147 173,147 173,147 171,147 171,148 169,149 169,149 169,151 169,151 169,151 166,153 164,152 163,152 161,151 160,151 160,150 158,149 157,150 157,151 148,151 148,150 148,150 147,149 146,150 145,150 144,150 144,151 143,151 143,151 143,150 143,150 142,150 141,149 140,149 140,150 140,150 140,150 141,144 141,143 140,143 136,142 135,142 134,142 132,142 131,142 131,142 131,142 129,142 128,142 131,145 131,145 132,148 133,149 133,149 133,149 133,149 133,151 130,151 129,153 128,154 127,155 127,155 127,156 125,158 125,160 123,160 123,165 123,166 122,166 121,166 120,166 119,166 119,166 118,166 118,166 117,166 116,166 115,166 115,166 115,166 115,166 115,166 115,166 112,165 111,165 110,166 110,166 110,166 109,166 109,166 108,166 108,166 108,166 108,166 108,166 101,168 101,168 100,168 97,166 97,165 96,164 95,163 95,163 95,162 95,162 95,161 95,160 93,160 92,161 91,164 88,164 88,164 88,163 88,162 87,163 86,162 82,163 82,163 82,163 81,163 81,163 81,163 80,163 80,163 80,164 80,164 79,164 79,164 79,164 79,164 79,164 78,164 78,164 77,165 77,165 75,165 71,165 71,165 72,164 72,164 73,164 73,164 72,162 72,160 72,160 72,158 72,157 72,157 72,156 74,156 75,155 75,155 75,155 76,154 75,154 76,154 76,153 76,153 76,153 76,152 74,151 72,152 72,151 71,151 71,149 71,149 71,149 71,149 71,148 70,146 69,146 69,146 68,146 68,146 66,147 66,147 66,147 66,147 66,148 67,148 67,150 66,151 63,151 63,151 63,151 63,152 62,153 62,152 62,151 62,150 62,150 62,149 62,149 61,148 61,148 61,148 60,148 60,147 60,147 60,146 59,146 59,146 59,146 59,145 59,145 59,145 59,144 59,144 59,144 58,144 56,144 56,144 54,144 52,144 51,143 53,143 53,142 51,142 51,141 51,140 51,139 50,139 51,139 51,137 49,137 49,136 50,134 50,133 46,133 47,132 47,132 45,131 45,130 46,130 46,129 45,129 46,128 46,128 46,128 46,128 45,128 45,128 44,127 44,126 45,126 45,126 44,125 44,126 43,126 43,125 42,125 41,124 41,124 40,123 38,124 38,123 37,123 37,123 36,122 35,122 35,121 34,121 34,120 34,120 34,119 34,119 34,118 34,118 34,118 34,118 33,117 33,116 32,113 32,113 31,111 30,109 30,109 31,108 31,108 30,107 29,107 29,106 28,106 28,105 29,105 28,103 29,103 30,103 29,102 30,102 29,101 28,101 28,100 28,100 28,100 28,100 29,98 30,98 30,97 31,97 31,96 31,96 30,95 31,95 30,95 31,94 32,94 32,93 32,93 34,92 34,92 34,91 33,91 32,92 31,91 31,92 30,92 29,92 28,92 28,92 28,92 27,92 27,93 25,92 25,92 24,92 24,92 21,92 21,92 19,92 16,91 15,93 15,93 15,92 12,92 11,91 8,91 8,90 9,89 7,89 7,89 6,89 6,89 5,88 4,88 4,87 5,86 6,85 5,84 5,84 5,83 4,82 4,82 3,81 3,80 2,80 3,80 2,79 2,79 0,79 0,79 0,78 0,78 1,78 1,78 2,77 2,77 3,78 3,78 3,78 4,77 4,77 4,77 4,77 4,77 4,77 5,76 5,76 6,76 6,76 6,76 7,75 7,75 7,75 7,76 7,76 8,76 8,76 8,76 9,76 9,76 10,76 10,76 10,76 10,76 11,75 11,75 11,74 11,74 11,74 11,73 11,73 11,73 10,72 10,72 10,72 10,72 11,73 11,73 12,73 12,73 12,73 12,73 13,73 13,73 14,73 15,73 15,73 15,72 15,72 15,72 17,71 17,71 17,71 17,71 17,71 18,70 20,70 20,70 20,70 21,70 21,70 21,69" id="212" class="canton" fill="steelblue" stroke-width="1" stroke="white" geotype="canton" geoname="Ribemont" code_insee="212" code_departement="2" nom_departement="Aisne" code_region="32" nom_region="Hauts-de-France"/></svg>