<?xml version="1.0" encoding="utf-8"?>
<svg version="1.1" id="svgmap" xmlns="http://www.w3.org/2000/svg" xmlns:xlink="http://www.w3.org/1999/xlink" x="0px" y="0px" width="100%" height="100%" viewBox="0 0 500 259">
<polygon points="13,92 14,91 14,90 14,89 15,89 15,88 15,88 14,87 13,86 13,85 13,85 13,84 14,82 14,82 15,82 16,83 18,84 19,84 21,84 22,85 23,85 24,85 24,85 25,85 25,85 28,87 29,87 30,88 31,88 31,89 33,91 35,93 35,93 35,92 35,92 35,92 35,91 36,91 37,90 38,90 39,91 40,89 40,89 41,89 41,89 42,89 42,89 42,88 43,88 43,88 43,88 44,88 44,88 43,87 44,87 44,87 45,87 46,87 47,86 47,86 49,86 49,86 49,85 49,85 49,85 51,85 51,85 52,85 52,85 53,84 53,84 54,84 54,83 55,83 56,82 57,82 58,82 59,81 59,81 59,80 59,80 59,80 59,79 59,79 60,78 60,78 60,78 60,77 60,76 60,75 61,74 61,74 61,74 61,75 62,75 63,75 63,75 64,75 64,75 65,75 66,75 68,75 69,75 69,75 69,75 70,76 71,76 71,76 71,76 72,76 72,75 72,75 76,75 76,75 77,75 78,75 79,75 81,74 81,74 82,74 82,73 85,71 86,70 87,70 88,69 89,69 89,69 89,69 90,69 90,69 91,68 91,68 94,69 94,69 95,69 95,69 95,69 96,69 97,69 97,69 98,69 98,69 99,69 100,69 101,70 101,71 102,71 102,72 103,72 103,73 104,73 105,77 105,79 106,82 106,82 107,83 107,83 107,84 107,84 107,84 113,81 115,80 119,78 120,78 121,77 126,74 129,71 132,69 135,68 137,67 139,66 139,66 142,64 144,62 145,61 147,61 149,60 151,60 153,59 156,58 161,57 168,55 172,54 173,53 174,52 176,51 177,50 179,46 182,43 183,41 184,39 185,36 186,35 188,31 192,28 193,26 195,23 196,19 197,18 200,16 202,15 204,13 207,18 208,18 210,18 213,17 214,17 215,18 216,19 217,20 222,21 228,23 230,22 233,23 234,23 235,22 235,22 236,22 239,23 240,24 241,25 243,26 245,28 246,28 246,29 248,30 250,31 251,32 251,32 252,33 253,33 253,34 257,36 259,36 262,38 266,39 266,39 269,40 270,41 270,41 273,40 276,40 277,40 277,39 278,39 282,38 285,37 288,36 290,35 296,33 298,32 301,31 303,31 305,30 306,30 308,30 310,30 313,30 315,30 325,29 329,29 329,29 329,29 329,29 330,29 332,29 333,29 345,28 348,28 352,28 357,28 359,28 359,28 359,27 359,27 359,27 359,26 360,25 361,24 366,19 367,18 367,18 367,18 367,18 376,8 376,8 376,8 377,8 377,7 377,7 378,6 378,5 378,5 379,3 380,3 380,3 380,3 380,3 380,3 380,3 381,5 381,5 381,5 381,6 381,6 382,6 382,6 382,6 385,5 388,4 390,4 390,4 390,4 392,4 392,4 392,5 392,5 392,6 392,6 392,6 392,8 392,10 392,10 392,10 394,10 395,10 395,10 397,5 398,2 398,2 399,1 399,0 400,0 402,3 403,3 404,5 405,5 405,6 406,7 407,7 408,8 410,10 411,11 411,11 413,13 413,13 414,14 414,14 414,14 414,14 415,16 416,16 416,16 418,18 418,18 417,18 417,18 416,18 416,18 415,18 414,18 412,19 412,19 411,19 411,19 410,19 410,19 409,19 404,19 404,19 403,20 403,20 403,20 403,20 402,21 402,22 402,23 401,24 401,24 401,24 401,25 399,24 398,26 397,28 397,30 398,32 400,36 402,39 400,39 398,40 398,40 396,40 396,40 395,40 396,41 396,41 395,42 395,43 395,43 395,43 395,44 395,44 396,45 396,45 396,45 396,47 396,47 396,48 396,48 396,48 397,48 397,48 397,48 397,48 398,49 398,49 398,49 399,50 399,50 399,49 399,49 399,49 399,49 399,49 399,49 399,48 399,48 399,48 399,48 400,48 400,49 400,49 400,50 400,50 400,50 400,51 400,51 399,51 399,51 398,52 396,52 396,53 395,53 394,53 394,54 393,54 393,54 392,55 392,55 391,55 391,56 388,57 386,58 386,58 386,58 385,59 384,59 383,60 382,61 382,61 381,62 380,62 379,63 378,64 378,64 376,66 376,66 375,66 375,66 375,66 375,67 374,68 368,73 361,79 360,80 360,80 359,81 357,81 358,82 359,82 358,82 358,82 358,83 357,83 357,83 357,84 357,84 357,84 357,84 357,84 357,84 357,84 358,84 358,84 358,84 359,83 359,83 360,83 360,83 360,83 360,82 360,82 360,82 361,82 361,82 361,82 361,82 362,82 362,81 363,81 364,80 365,80 366,79 366,79 366,79 366,79 366,79 366,79 367,79 367,79 367,79 367,79 367,79 367,79 367,79 368,79 368,78 368,78 368,78 369,78 369,78 370,77 370,77 370,77 370,77 370,77 371,77 371,77 371,77 371,77 371,77 371,77 372,77 372,77 372,76 373,76 374,76 374,76 374,76 374,76 374,76 374,76 374,76 374,75 374,75 374,75 374,75 375,75 375,75 375,75 375,75 375,75 375,75 375,75 375,75 376,74 376,74 377,74 377,73 378,73 378,73 378,73 379,72 380,72 380,72 380,72 380,72 381,72 381,72 382,72 383,72 383,72 385,72 385,72 385,72 386,72 386,72 386,72 387,72 388,71 388,71 388,71 388,71 389,71 389,71 389,71 389,70 390,70 390,70 390,70 390,70 391,70 392,69 392,69 393,69 394,70 394,70 394,69 395,69 395,69 395,69 395,69 395,69 396,68 397,68 398,68 399,68 399,69 399,69 400,69 400,69 400,69 401,69 401,69 401,69 401,69 402,69 402,69 402,69 403,68 403,68 403,69 403,69 403,69 404,69 404,69 404,69 404,69 405,69 405,69 405,69 405,69 406,69 408,68 408,68 409,67 409,67 409,67 410,66 410,66 411,66 411,66 411,66 411,65 412,64 412,64 413,64 414,63 414,65 414,66 414,67 415,68 417,68 420,70 422,71 424,72 425,72 427,74 429,75 429,75 430,75 431,75 443,76 444,76 444,76 458,74 466,74 468,74 470,73 472,73 473,73 475,73 476,73 476,73 476,73 476,73 476,73 477,74 477,74 477,74 477,75 477,75 478,75 478,75 478,75 478,75 479,75 479,75 480,75 480,75 480,75 481,76 481,76 481,76 481,76 482,76 482,76 483,76 483,76 483,76 483,76 483,76 483,77 483,77 483,77 483,78 483,78 483,78 483,79 484,79 484,79 484,79 484,80 484,80 485,80 485,80 485,80 485,80 485,80 486,80 486,80 486,81 487,81 487,81 488,81 488,81 489,81 489,81 490,82 491,82 491,82 491,83 491,83 491,83 491,83 491,83 491,83 491,83 491,84 491,84 491,84 491,84 491,84 491,84 491,84 491,85 491,85 491,85 491,85 491,85 491,86 491,86 492,86 492,86 492,86 492,86 492,86 493,86 493,86 493,86 493,86 493,87 493,87 493,87 493,87 493,87 493,88 493,88 494,88 494,88 495,89 495,89 495,89 495,90 495,90 495,90 496,90 496,90 496,90 496,90 496,91 496,91 496,91 496,92 496,92 496,92 496,92 496,92 497,92 497,92 497,93 497,93 497,93 497,93 498,93 498,93 498,94 498,94 499,94 499,94 499,94 499,94 500,94 500,94 500,94 500,95 499,95 499,95 499,96 499,96 499,97 499,97 499,98 499,98 499,98 500,99 500,99 500,100 499,100 499,100 499,100 483,100 483,100 480,102 480,102 467,108 466,108 465,108 465,108 465,109 462,110 462,110 461,110 462,110 448,110 448,110 448,110 448,110 448,110 448,110 448,110 437,117 437,117 437,117 436,117 436,117 435,117 435,117 433,118 433,118 432,119 432,119 431,119 431,119 431,120 431,120 430,120 430,120 430,120 430,121 430,121 430,121 430,121 430,121 430,121 430,121 430,121 429,121 429,121 429,121 428,121 426,121 423,122 417,122 417,122 416,122 416,124 414,125 413,127 410,129 410,130 408,132 408,133 408,133 406,136 405,136 405,139 405,139 404,140 404,141 403,141 401,143 400,144 399,144 399,144 398,144 398,144 397,144 396,144 396,144 396,144 395,144 394,145 393,146 392,146 392,147 392,147 391,149 391,150 391,152 390,152 390,153 390,153 389,153 389,153 387,154 387,154 385,154 383,155 382,155 381,155 380,154 379,155 379,155 378,155 378,155 378,155 378,156 378,156 379,157 379,157 380,158 380,158 380,158 380,159 380,159 379,160 378,161 377,162 377,162 377,163 377,163 377,164 376,164 376,165 375,166 374,167 373,167 373,168 372,168 371,168 371,168 371,168 371,167 371,167 370,167 370,167 369,168 367,169 366,169 364,170 364,170 364,170 364,171 364,171 364,171 365,171 366,172 367,172 368,172 368,172 368,173 368,173 368,173 368,174 368,174 368,175 367,175 366,176 365,176 365,177 364,177 363,178 362,178 362,178 360,178 358,178 358,178 357,178 357,178 356,178 354,178 354,178 353,178 352,179 351,179 350,181 350,181 349,182 349,182 349,182 350,184 350,184 350,186 350,186 350,187 351,188 351,189 352,189 353,190 354,191 354,192 355,194 355,195 355,195 355,197 355,199 354,200 354,200 354,201 354,202 353,203 353,203 352,203 349,202 348,202 348,203 347,203 344,204 343,205 342,205 342,205 339,204 338,204 338,204 335,203 335,203 334,202 334,202 333,200 333,199 332,199 332,198 331,198 330,197 329,197 329,197 329,197 328,197 327,197 327,197 327,198 328,199 328,201 329,202 326,207 324,210 324,210 323,211 322,213 321,213 321,213 319,215 317,216 316,216 312,217 310,218 308,218 307,218 306,219 302,220 299,221 299,221 298,221 295,223 294,223 293,224 293,225 293,225 293,226 293,226 292,228 291,232 291,233 290,235 290,235 290,236 290,236 290,236 289,237 289,237 285,238 282,239 281,239 280,239 279,240 279,240 278,240 277,241 277,241 274,243 268,247 268,248 267,248 266,249 266,250 266,251 265,251 265,252 263,252 262,253 261,253 260,252 259,252 259,252 257,252 254,254 251,255 249,256 247,257 246,258 245,258 245,258 244,259 244,259 243,259 243,258 242,258 242,258 241,257 241,257 241,256 241,256 242,255 242,254 243,254 244,253 244,253 244,252 244,251 244,251 244,250 243,250 242,249 240,249 240,249 238,249 237,249 234,249 233,249 232,249 231,249 231,249 230,249 228,251 225,249 225,250 224,250 222,249 222,249 222,249 221,250 221,250 221,250 219,251 218,250 217,250 216,250 216,250 215,250 215,250 214,249 214,249 213,248 212,247 212,247 212,246 211,246 210,244 209,244 208,244 207,244 207,243 207,242 207,241 207,239 207,238 207,237 207,237 206,237 206,237 203,238 200,238 200,238 198,238 199,236 200,236 201,234 200,233 198,232 195,233 190,233 189,231 184,232 183,230 183,231 180,229 177,230 171,231 169,231 169,230 168,228 168,227 168,226 168,225 168,222 167,219 167,219 166,219 166,218 164,215 164,215 163,214 161,213 160,213 160,212 159,211 159,210 159,210 157,210 157,209 157,209 156,208 156,207 156,207 156,206 155,205 155,204 154,204 154,203 154,202 153,199 153,199 152,199 151,198 151,198 150,197 149,197 148,197 146,196 145,196 145,196 146,195 146,195 146,194 147,194 148,194 148,194 148,194 148,193 148,192 149,191 149,191 148,189 147,188 146,187 144,186 143,185 143,185 142,184 142,184 142,184 142,183 142,182 141,182 142,180 143,179 143,179 143,178 143,177 143,177 143,175 143,175 143,174 143,173 144,173 144,172 144,172 144,171 145,171 145,170 146,170 146,169 147,168 147,166 148,165 148,164 148,163 148,162 148,161 149,160 149,157 148,157 148,156 146,157 146,156 144,157 143,157 143,157 142,157 141,157 140,157 139,157 139,157 139,157 139,157 136,155 135,155 134,154 133,154 133,153 132,152 132,152 131,151 131,151 128,149 128,149 128,149 128,149 127,149 126,145 126,143 126,142 125,142 125,141 125,140 125,140 121,140 120,140 117,140 115,140 114,140 112,140 109,140 109,140 106,140 104,139 104,139 103,139 102,138 99,137 98,136 97,136 96,135 96,135 95,134 95,134 94,134 94,134 93,134 92,134 91,134 89,134 89,134 88,134 88,134 89,133 85,132 83,132 82,131 81,131 81,131 80,130 79,129 78,129 76,128 76,127 75,127 74,127 72,126 70,126 70,126 69,126 67,126 67,126 66,125 66,125 65,125 64,125 64,125 64,125 63,125 63,126 63,126 62,126 61,126 61,126 61,126 60,127 60,127 59,127 58,127 58,127 56,128 56,128 56,128 55,129 55,128 54,128 53,128 53,128 53,128 52,128 51,128 51,128 51,127 51,127 51,127 51,127 51,127 51,127 51,126 50,127 50,127 51,128 51,128 51,129 50,129 50,129 50,130 49,130 47,130 47,129 46,129 45,128 44,128 43,127 42,126 42,125 41,125 41,126 41,126 40,126 40,125 40,126 38,130 37,132 37,135 37,135 36,136 35,137 34,138 34,138 32,140 31,141 30,141 30,142 29,142 29,142 30,143 31,146 31,149 30,151 26,149 26,148 25,148 25,148 24,148 24,148 24,148 23,148 22,148 20,149 20,149 19,150 19,150 18,150 17,149 16,149 16,149 16,148 16,148 15,148 15,146 14,145 14,145 14,144 13,143 13,142 13,142 13,141 13,140 12,139 12,139 13,139 13,139 13,139 13,138 13,138 12,138 11,137 11,137 11,137 11,136 11,136 12,135 12,134 12,134 12,134 12,134 12,134 10,133 10,133 8,132 8,131 7,131 7,129 7,129 6,128 6,128 6,128 6,127 6,127 6,127 6,127 6,126 5,126 5,125 3,124 3,124 3,124 3,124 4,124 4,123 3,123 2,122 2,122 1,122 0,121 1,121 0,120 0,120 2,119 3,118 3,118 3,117 3,117 3,115 2,115 2,115 3,115 3,114 4,114 4,114 4,114 5,113 5,113 5,113 6,114 6,114 6,114 7,114 8,114 8,114 9,114 9,114 10,114 11,114 12,114 12,114 13,114 13,114 13,114 13,114 13,113 14,112 14,112 15,111 15,111 15,111 15,111 15,111 14,110 13,110 13,110 12,110 12,109 12,109 12,107 12,107 12,107 12,104 12,103 12,103 13,101 13,101 15,100 15,99 15,99 14,99 14,99 13,99 13,99 13,100 13,100 12,100 12,100 13,99 13,98 14,97 14,96 14,96 14,94 13,92 13,92 13,92" id="312" class="canton" fill="steelblue" stroke-width="1" stroke="white" geotype="canton" geoname="Montluçon-4" code_insee="312" code_departement="3" nom_departement="Allier" code_region="84" nom_region="Auvergne-Rhône-Alpes"/></svg>