<?xml version="1.0" encoding="utf-8"?>
<svg version="1.1" id="svgmap" xmlns="http://www.w3.org/2000/svg" xmlns:xlink="http://www.w3.org/1999/xlink" x="0px" y="0px" width="100%" height="100%" viewBox="0 0 500 413">
<polygon points="0,84 3,84 4,83 5,83 6,82 7,82 8,82 9,82 9,82 10,82 10,82 10,82 11,82 11,82 13,82 13,82 14,82 14,82 14,82 15,82 16,82 16,82 17,82 18,82 18,82 18,82 18,82 18,82 19,82 20,82 20,82 21,82 21,82 22,82 22,82 23,81 23,81 23,81 24,81 24,81 25,81 25,81 25,81 25,81 26,81 26,81 26,81 26,81 26,81 26,81 26,81 27,81 27,81 27,81 28,81 28,81 28,81 28,81 30,80 30,80 30,80 30,80 31,80 31,80 32,80 33,80 34,79 34,79 35,79 35,79 35,78 35,78 35,78 35,78 35,79 35,79 36,79 36,79 36,79 36,79 36,79 36,79 36,79 36,78 37,78 37,78 37,78 37,78 37,78 38,78 39,78 39,78 40,78 40,78 40,78 40,78 40,78 40,77 40,77 40,77 41,77 41,77 41,77 41,77 41,77 41,77 42,77 42,77 42,77 42,77 43,77 43,77 43,76 44,76 44,76 44,76 44,76 45,76 45,76 45,76 46,76 47,76 47,76 48,76 49,76 51,76 51,76 51,75 51,75 53,75 53,75 54,74 55,74 55,74 56,74 57,74 57,74 58,73 59,73 59,74 60,74 60,74 60,74 60,74 61,73 61,72 62,72 62,72 62,72 63,72 63,72 63,72 64,72 64,72 65,72 65,72 66,72 67,71 67,71 68,70 69,70 69,70 69,70 70,70 71,70 71,69 72,69 72,69 73,69 73,69 73,69 74,69 74,69 74,69 74,68 75,68 75,68 75,68 76,68 77,67 86,68 88,69 91,70 93,70 93,70 94,70 96,70 97,70 100,70 100,70 102,69 103,69 103,69 104,69 105,69 106,69 107,69 107,69 108,69 108,69 110,68 110,68 111,68 111,68 111,68 112,68 112,68 112,68 113,68 114,68 115,68 116,68 116,68 117,68 117,68 118,68 118,68 120,68 120,67 121,67 122,67 122,67 123,66 124,66 125,66 125,66 125,65 126,65 126,64 127,64 127,63 127,63 128,63 128,63 128,63 129,63 129,63 131,62 131,62 132,61 133,60 134,59 135,58 135,58 135,58 136,58 139,55 140,54 140,54 141,53 141,53 141,52 141,51 143,50 143,50 143,49 144,49 144,48 146,48 146,48 147,47 147,46 148,44 148,43 148,43 146,42 146,42 149,42 150,42 151,42 152,42 153,42 153,41 154,41 155,41 155,41 157,41 158,41 159,41 159,41 160,41 161,41 162,41 163,41 164,42 164,41 164,41 165,41 166,40 167,40 168,40 169,39 169,39 169,39 170,39 170,39 171,39 172,39 173,38 173,38 174,38 174,38 174,38 175,38 175,38 175,38 175,38 175,38 177,38 178,37 179,37 180,37 181,37 183,36 185,35 185,35 185,35 185,35 185,35 187,35 187,35 188,35 190,34 191,34 191,34 192,34 193,33 194,33 194,33 195,33 196,33 196,33 196,33 197,33 198,33 199,33 199,33 199,33 200,33 201,33 201,33 202,33 205,33 207,32 207,32 208,32 209,32 209,32 210,32 210,32 210,33 211,33 211,34 212,34 212,34 213,34 214,33 214,33 216,33 216,33 217,33 217,33 217,32 217,32 217,32 219,31 219,31 219,32 220,32 221,32 221,31 222,30 222,29 223,28 223,28 223,28 224,28 224,29 225,30 225,30 225,30 226,30 226,30 227,30 227,30 226,28 227,29 228,29 229,31 230,30 232,30 233,30 234,31 234,31 234,31 232,32 232,32 232,33 234,33 235,34 236,33 237,34 239,34 239,34 239,33 239,31 239,31 239,31 239,31 240,31 241,31 242,30 242,30 242,30 242,30 242,30 242,29 241,29 241,29 241,29 241,27 241,27 241,26 241,26 241,26 242,26 242,26 242,26 243,26 243,26 244,26 244,26 244,26 245,26 245,25 245,25 246,25 247,26 248,26 250,27 251,28 252,28 254,30 255,31 255,31 257,31 262,35 265,37 265,36 265,36 265,36 266,35 267,32 267,31 267,30 268,30 269,30 281,20 281,19 282,19 283,19 284,19 284,18 284,18 286,17 286,17 287,16 289,15 290,15 291,14 292,13 293,13 293,12 295,12 299,10 303,15 303,15 308,18 310,19 311,19 312,19 312,20 314,20 315,21 315,21 315,21 316,21 316,22 318,22 318,22 320,23 320,23 321,25 321,25 322,25 326,26 329,27 330,27 331,27 331,27 333,27 335,27 336,26 338,25 339,25 339,25 342,23 342,22 342,22 343,22 344,22 344,22 344,21 344,21 345,20 345,20 346,20 348,20 348,20 348,20 349,20 350,20 350,20 351,20 351,19 351,19 353,19 354,19 354,19 355,20 355,20 356,20 356,20 356,19 357,19 358,18 358,17 358,16 358,16 359,16 359,16 359,15 360,14 360,14 361,13 362,13 362,13 363,12 364,12 365,12 366,12 367,12 368,12 368,12 369,12 369,12 370,12 371,11 372,11 373,9 374,8 374,8 375,8 375,8 376,8 376,7 378,6 379,6 379,5 380,5 381,5 382,5 383,4 383,4 384,4 384,4 386,4 387,5 387,5 388,3 390,0 390,2 391,2 391,2 393,3 396,4 397,4 412,8 413,8 426,10 432,11 432,11 455,14 455,16 455,16 455,17 455,18 455,18 456,19 457,19 462,20 462,20 462,20 462,20 464,20 465,21 465,21 466,22 467,22 468,23 468,23 469,24 469,24 470,25 471,27 471,27 472,27 473,28 473,28 474,28 474,28 475,29 476,29 477,30 477,31 478,32 478,33 478,33 478,33 478,34 479,35 480,37 478,38 478,39 478,40 478,41 478,41 479,43 479,45 479,45 479,45 481,47 482,48 485,51 486,51 486,51 486,51 486,51 486,52 487,53 487,53 488,54 488,54 488,54 489,55 489,55 490,56 491,57 491,58 492,58 492,58 492,59 493,61 493,64 494,65 496,67 496,68 496,68 497,68 497,68 498,68 498,71 499,73 499,73 499,73 499,74 500,77 500,78 500,82 500,83 500,83 500,83 499,83 498,84 497,84 496,84 495,84 494,85 492,85 492,85 491,86 489,86 489,86 487,87 485,87 483,88 482,88 481,88 480,88 479,88 478,88 477,88 476,88 475,88 475,88 474,88 473,89 472,90 470,91 470,91 469,91 469,92 468,92 467,97 467,104 467,104 466,104 465,105 465,105 464,106 463,108 463,109 463,110 463,111 462,111 462,112 462,112 462,112 462,113 462,114 462,115 462,117 461,118 461,118 461,119 461,121 462,122 462,123 463,123 463,124 464,125 464,125 466,127 466,128 467,128 468,128 469,128 470,129 471,129 472,130 472,130 473,130 474,130 474,131 474,131 474,131 475,131 476,131 477,132 477,132 479,134 480,136 481,136 482,137 484,137 484,138 484,139 485,140 486,140 487,141 487,142 487,142 488,142 490,148 490,148 491,149 491,150 491,150 490,150 490,150 489,149 488,149 487,148 486,148 485,148 484,148 482,148 481,148 480,149 480,149 479,150 478,150 476,151 474,152 474,152 473,153 471,153 470,154 469,154 468,155 467,156 466,157 463,160 461,159 460,159 458,159 456,159 454,160 452,163 452,164 452,164 451,165 449,166 449,166 447,169 444,169 441,170 440,170 438,171 438,171 438,172 437,173 437,174 437,176 435,177 433,178 431,179 431,179 431,179 430,180 430,180 428,180 426,180 426,180 425,182 422,185 421,186 419,188 418,190 417,193 417,194 417,194 415,195 414,196 413,197 413,197 412,200 412,200 409,198 407,196 407,196 406,196 404,196 403,195 401,195 400,195 399,195 399,195 392,201 391,202 390,205 388,206 388,206 380,207 377,210 374,210 373,210 372,210 372,210 370,215 367,220 366,222 364,224 364,225 363,225 360,227 359,227 356,231 356,232 355,233 354,234 355,234 355,234 356,235 358,236 358,237 358,237 356,236 359,242 359,242 360,243 362,247 361,248 361,247 358,245 358,245 350,242 344,244 344,244 341,244 341,244 343,239 343,239 337,237 334,237 332,236 329,236 325,236 322,235 314,235 306,234 303,234 295,233 294,233 290,232 288,233 287,234 282,238 264,250 262,250 262,250 261,251 260,251 258,253 252,256 248,257 246,258 244,259 241,261 239,263 236,265 228,271 224,273 221,274 214,276 212,277 212,277 212,277 212,277 210,278 208,280 206,282 202,286 199,289 197,290 197,293 197,295 195,296 194,298 192,300 190,301 189,302 188,303 187,304 187,304 190,306 186,309 182,312 179,315 176,317 170,321 166,324 162,327 159,330 155,334 150,338 145,342 143,343 141,344 139,345 136,346 135,347 132,347 129,348 129,348 127,349 127,349 126,351 125,353 124,354 121,359 120,361 118,363 118,364 117,365 116,367 115,369 114,372 113,374 113,375 112,375 109,378 108,380 107,381 105,383 105,384 105,385 101,391 100,393 100,393 98,395 98,395 98,397 97,399 97,399 97,401 97,403 96,404 95,406 94,407 93,409 93,410 92,412 91,413 85,411 79,409 78,409 78,409 77,409 77,409 76,408 76,408 75,408 75,408 74,407 74,407 73,407 73,407 73,407 72,406 72,405 72,405 71,404 71,403 70,403 70,403 69,402 69,402 69,402 68,403 68,403 68,403 67,402 65,402 65,401 64,401 64,401 64,401 64,402 63,402 63,403 63,403 63,403 63,403 62,403 62,403 62,403 62,402 62,402 61,401 61,401 61,400 60,400 60,400 59,400 59,400 59,400 58,399 56,399 55,399 55,399 54,399 54,399 53,399 53,398 52,398 51,397 51,397 50,397 49,397 49,397 49,396 49,396 48,396 47,395 45,395 44,394 43,394 43,394 42,392 42,392 41,392 41,392 41,391 41,391 40,391 40,391 39,390 38,390 38,390 37,390 36,389 34,389 34,388 34,388 34,388 34,387 34,387 33,386 31,384 30,384 29,383 29,383 28,383 27,383 26,383 26,383 24,382 23,382 23,382 23,382 22,382 21,381 21,380 21,380 21,380 21,379 21,379 23,378 23,378 23,377 23,377 23,377 23,375 23,375 22,374 22,374 21,373 21,372 21,372 21,372 20,371 18,369 18,368 17,367 17,367 16,366 15,366 15,366 15,365 15,365 15,363 15,363 15,363 14,362 13,361 13,361 14,360 16,357 17,356 17,356 17,355 17,355 18,354 18,354 18,352 18,352 18,352 20,351 20,351 20,351 20,350 20,349 20,348 20,347 20,347 20,347 20,347 20,346 20,346 19,345 19,345 20,344 20,344 19,343 19,343 20,342 20,342 20,341 20,341 20,341 20,340 20,340 20,339 20,339 20,338 21,336 21,335 21,335 22,334 22,334 22,333 22,333 23,333 23,333 23,333 23,331 23,331 24,330 24,330 24,330 26,330 26,330 26,330 27,330 27,329 27,329 27,329 27,328 27,328 27,327 27,327 27,326 27,325 27,325 27,324 27,324 26,323 26,322 25,322 25,322 26,322 26,322 25,321 24,320 24,320 24,320 23,320 23,320 23,319 22,319 21,318 21,318 21,317 21,316 21,316 21,316 21,315 21,315 21,315 21,315 21,315 21,314 22,313 22,313 22,312 23,312 23,311 24,310 24,310 24,310 24,310 24,310 25,310 25,311 25,310 25,310 26,310 27,309 27,309 28,308 29,308 30,307 30,307 31,306 32,306 33,305 34,304 34,304 34,304 26,300 26,300 26,300 26,300 29,296 29,296 25,294 25,293 17,286 17,286 17,286 17,285 17,283 17,282 17,282 17,282 17,281 18,281 18,280 18,280 18,277 18,276 18,276 18,275 19,273 19,273 19,273 19,273 17,271 17,271 18,269 18,268 16,265 15,264 15,263 15,262 16,261 16,260 17,259 17,259 18,258 18,257 19,257 19,256 19,255 20,255 20,253 21,252 21,251 22,251 22,250 22,250 23,248 23,247 24,246 24,243 25,243 25,242 26,242 26,242 26,243 27,243 27,244 27,245 27,245 27,245 28,246 28,246 29,245 29,245 31,244 31,244 32,244 33,243 33,243 34,243 34,243 35,243 35,243 35,243 36,243 36,243 38,242 38,241 40,240 40,240 40,240 40,240 41,240 41,240 42,241 42,240 44,240 44,240 45,240 45,240 45,240 47,240 47,240 48,239 49,239 49,239 50,239 51,239 51,239 51,238 51,238 52,239 52,238 53,238 54,237 54,237 54,237 55,237 56,237 57,236 57,236 58,236 58,236 59,237 59,237 59,237 60,237 60,236 60,236 59,236 59,235 59,235 59,235 59,235 59,234 60,234 60,234 60,234 60,234 60,233 60,233 60,233 60,232 60,232 60,232 61,232 61,232 62,232 62,232 61,231 61,231 62,231 63,231 64,231 64,231 65,231 65,231 65,231 65,230 66,230 66,230 66,230 67,230 67,229 68,229 68,229 68,229 69,229 69,229 69,228 69,228 69,228 70,228 70,227 71,227 72,227 73,227 74,228 75,228 75,228 75,228 75,228 76,229 76,229 77,230 77,230 78,230 78,230 78,230 78,230 79,230 79,229 79,229 79,229 79,228 79,228 79,228 79,227 80,227 81,228 81,228 81,228 81,227 81,227 81,227 81,226 81,226 81,226 81,226 81,226 82,226 82,227 82,227 83,228 83,228 83,228 84,228 84,228 84,228 84,227 84,227 85,227 85,227 85,227 86,227 86,227 86,227 86,226 86,226 86,226 87,226 88,226 88,227 89,227 90,227 90,227 90,227 91,227 91,227 91,227 92,227 92,226 92,226 93,226 93,226 94,226 94,226 95,226 95,226 96,227 97,227 97,227 98,227 98,227 98,227 98,227 98,226 98,226 98,225 98,225 98,225 99,225 99,225 100,225 101,225 101,225 101,225 102,226 103,227 103,227 104,227 104,228 105,228 105,229 105,229 105,229 106,229 106,229 107,229 107,229 107,229 107,229 107,230 107,230 107,230 107,231 107,231 108,231 108,232 108,232 108,232 108,231 109,231 109,231 109,231 109,230 109,229 109,229 110,229 110,228 110,228 110,228 111,228 112,228 112,228 113,227 113,227 113,226 113,226 113,225 113,225 113,224 114,224 114,223 114,223 114,223 115,222 115,221 115,221 115,221 116,220 117,220 118,219 118,219 118,219 119,218 119,218 119,218 120,217 121,217 121,216 122,216 122,216 123,215 123,215 124,215 124,214 125,214 126,214 127,213 127,213 129,213 130,212 130,212 131,212 131,212 131,211 130,211 130,210 130,210 129,210 128,209 128,209 127,209 127,208 127,208 126,208 126,207 125,206 125,206 124,206 123,206 123,206 122,206 122,205 121,205 121,205 120,204 120,204 120,203 119,203 119,202 118,202 118,202 117,201 117,201 116,201 116,200 116,200 115,200 115,199 114,199 114,198 114,198 113,197 113,197 112,197 112,196 112,196 111,195 111,195 111,195 112,195 113,195 115,196 116,197 116,197 116,197 117,197 118,197 120,197 120,197 121,196 123,195 124,195 125,194 126,194 126,193 127,193 128,192 128,192 129,191 129,191 129,190 130,189 130,189 130,188 131,188 131,188 131,187 132,187 133,186 133,186 134,185 135,184 135,184 135,183 137,183 137,183 133,179 130,177 124,170 122,168 120,166 120,166 120,165 120,165 119,165 119,164 118,164 113,162 106,159 99,156 96,154 92,153 88,152 88,152 79,150 78,149 66,146 65,146 64,147 63,147 63,147 61,146 59,145 57,144 56,144 55,143 53,143 51,142 50,141 49,141 47,140 45,139 44,139 42,139 39,138 37,138 35,137 32,137 30,136 27,135 26,134 25,134 25,133 24,132 24,131 22,129 21,128 20,127 20,127 20,127 20,127 20,125 19,124 19,122 18,121 17,120 16,119 16,119 16,119 15,118 16,116 16,116 16,115 16,113 14,109 13,107 13,107 14,106 13,100 12,98 10,96 8,93 7,93 0,84" id="403" class="canton" fill="steelblue" stroke-width="1" stroke="white" geotype="canton" geoname="Château-Arnoux-Saint-Auban" code_insee="403" code_departement="4" nom_departement="Alpes-de-Haute-Provence" code_region="93" nom_region="Provence-Alpes-Côte d'Azur"/></svg>