<?xml version="1.0" encoding="utf-8"?>
<svg version="1.1" id="svgmap" xmlns="http://www.w3.org/2000/svg" xmlns:xlink="http://www.w3.org/1999/xlink" x="0px" y="0px" width="100%" height="100%" viewBox="0 0 500 469">
<polygon points="1,190 5,188 7,188 7,188 7,187 7,186 7,186 7,186 7,186 8,185 8,183 8,183 9,183 13,183 13,182 19,182 22,181 24,181 25,180 26,179 34,178 53,174 53,173 58,172 61,172 63,173 69,170 80,170 85,169 87,167 97,164 106,163 113,159 113,157 114,156 116,154 116,154 116,153 115,151 115,150 113,148 112,148 111,146 109,145 108,145 105,143 103,139 96,138 94,137 91,137 89,137 87,137 83,136 74,132 68,130 66,130 65,129 62,129 61,129 56,130 55,129 54,130 53,129 51,130 48,130 54,114 53,113 54,112 57,113 58,112 57,112 58,111 58,111 59,110 62,108 63,107 64,104 64,97 75,95 76,95 76,95 77,96 79,95 80,96 82,94 84,93 85,93 88,93 89,93 90,93 93,92 93,92 93,92 95,92 95,91 97,91 97,92 98,92 103,92 102,92 102,92 102,92 102,92 102,92 102,92 102,92 102,92 102,92 102,92 102,92 102,92 102,92 102,92 101,92 101,92 100,92 100,92 100,92 100,92 100,92 100,92 100,91 100,91 100,91 100,91 100,91 100,91 100,91 100,91 100,91 100,91 100,91 100,91 100,91 100,91 99,91 99,91 99,91 99,91 99,91 99,91 98,91 98,91 98,91 97,91 97,91 97,91 97,91 97,91 97,91 96,91 96,91 96,91 97,91 97,91 97,91 97,90 97,90 97,90 98,90 98,90 98,90 98,90 97,90 97,90 97,90 97,90 97,90 97,90 97,90 96,90 96,90 96,90 96,90 96,90 96,90 96,90 96,90 96,90 96,89 96,89 96,89 96,89 96,89 96,89 97,89 97,89 97,89 97,89 96,89 96,89 96,89 96,88 96,88 96,88 96,88 96,88 97,88 97,87 97,87 97,87 97,87 97,87 97,87 97,86 97,86 97,86 97,86 97,86 97,86 97,86 97,86 97,86 97,86 97,86 96,86 96,85 96,85 96,85 96,85 96,85 96,85 96,85 96,85 96,85 96,85 96,85 97,85 97,85 97,85 97,85 96,84 96,84 96,84 96,84 96,84 96,84 96,84 97,84 97,84 97,84 97,84 97,84 97,84 97,84 97,83 97,83 96,83 96,83 96,83 96,83 96,83 96,83 96,83 96,83 96,82 96,82 96,82 96,82 96,82 96,82 96,82 96,82 96,82 96,81 96,81 96,81 96,81 96,81 96,81 96,81 96,81 95,81 95,81 95,80 95,80 95,80 95,80 95,80 95,80 95,80 95,80 95,80 95,79 95,79 95,79 96,79 96,79 96,79 96,79 96,79 96,79 96,78 96,78 95,78 95,78 95,78 95,78 95,78 95,78 95,78 95,78 95,78 95,78 95,78 95,78 95,78 95,78 95,78 95,78 95,78 95,78 95,78 95,78 95,78 95,78 95,78 95,78 95,78 95,77 95,77 95,77 95,77 94,77 94,77 94,77 95,77 95,77 95,77 95,76 95,76 95,76 95,76 95,76 95,76 95,76 95,76 94,76 94,76 94,76 94,76 94,75 95,75 95,75 95,75 95,75 95,75 95,75 95,75 95,75 95,75 95,75 95,75 96,75 96,75 96,75 95,75 95,74 95,74 95,74 95,74 96,74 96,74 96,74 96,74 96,74 96,74 96,74 96,74 96,74 96,73 96,73 96,73 96,73 96,73 96,73 95,73 95,73 96,73 96,73 96,73 96,73 96,73 97,73 97,73 97,73 97,72 97,72 97,72 97,72 97,72 96,71 96,71 96,71 96,71 96,71 96,71 96,70 96,70 96,70 96,70 96,70 96,70 96,69 96,69 96,69 96,69 96,69 96,69 96,69 96,69 95,69 95,69 95,69 95,69 95,69 95,69 95,69 95,69 95,69 95,68 95,68 95,68 95,67 95,67 95,67 95,67 95,67 95,67 95,66 95,66 95,66 95,65 94,65 94,65 94,65 94,65 94,65 94,65 94,65 94,65 94,64 94,64 94,64 94,64 94,64 93,64 93,64 93,64 93,64 93,64 92,64 92,63 92,63 92,63 92,63 92,63 92,62 92,62 91,62 91,62 91,62 91,62 90,62 90,62 90,62 89,62 89,62 89,62 89,62 89,62 88,62 88,62 88,62 88,62 88,62 88,62 88,62 88,62 88,62 88,62 88,62 88,61 88,61 88,61 88,61 88,61 88,61 88,61 88,61 88,61 87,61 87,61 87,61 87,61 87,61 87,61 87,60 87,60 87,60 87,60 87,60 87,60 86,60 86,60 86,60 86,60 86,60 86,60 86,60 85,60 85,60 85,60 85,60 85,60 85,60 85,60 85,60 85,60 85,60 84,60 84,60 84,60 84,60 84,61 84,61 84,61 84,61 84,61 84,61 84,61 84,60 84,60 84,60 84,60 84,60 84,60 84,60 83,60 83,60 83,60 83,60 83,60 83,60 83,60 83,60 83,60 83,60 83,60 83,60 83,60 83,60 83,60 83,60 83,60 82,60 82,60 82,60 82,60 82,60 82,60 82,60 82,60 82,60 82,59 82,59 82,59 82,59 82,59 82,59 82,59 82,59 82,59 82,59 81,59 81,59 81,59 81,59 81,59 81,59 81,59 80,59 80,59 80,59 80,59 80,59 80,59 80,59 80,59 80,59 80,59 80,59 79,59 79,59 79,59 79,59 79,59 79,59 79,59 79,59 79,59 79,59 79,59 79,59 79,59 79,59 79,59 79,59 78,59 78,59 78,59 78,59 78,59 78,59 78,59 78,59 78,59 78,59 78,60 78,60 78,60 78,60 78,60 78,60 78,60 78,59 78,59 78,59 78,59 78,59 78,59 77,59 77,59 77,59 77,59 77,59 76,59 76,59 76,59 76,59 76,59 76,59 76,59 75,59 75,59 75,59 75,59 75,59 75,59 75,59 75,59 75,59 75,59 75,59 74,59 74,59 74,59 74,59 73,59 73,59 73,59 73,59 73,59 73,59 73,59 73,59 73,59 73,59 72,59 72,59 72,59 72,59 72,59 72,58 72,58 72,59 72,59 71,59 71,59 71,59 71,59 71,59 71,59 71,59 71,59 71,59 71,59 71,59 70,59 70,59 70,59 70,59 70,59 70,59 70,59 70,59 70,59 70,59 69,59 69,59 69,58 69,58 69,58 68,58 68,58 68,58 68,58 68,58 67,58 67,58 67,58 67,58 67,58 67,59 67,59 67,59 66,58 66,58 66,58 66,58 66,58 65,58 65,58 65,58 65,58 65,58 65,58 65,57 65,57 65,57 64,57 64,57 64,57 64,57 64,57 64,57 64,57 64,57 64,57 64,57 64,57 64,57 64,57 63,57 63,57 63,57 63,57 63,56 63,56 63,56 63,56 63,56 62,56 62,56 62,56 62,56 62,56 61,56 61,56 61,56 61,56 61,55 61,55 61,55 61,55 61,55 61,55 60,55 60,55 60,55 60,54 60,54 60,54 60,54 60,54 60,54 60,54 60,54 60,54 60,54 60,54 60,53 59,53 59,53 59,53 59,53 59,53 59,53 59,53 59,53 59,53 59,52 58,52 59,52 59,52 58,52 58,52 58,52 58,51 58,51 58,51 58,51 58,51 58,51 58,51 58,51 58,51 58,50 58,50 58,50 58,50 58,50 58,50 58,50 58,50 58,50 58,50 58,50 58,50 58,49 58,49 58,49 58,49 58,49 57,49 57,48 57,48 57,48 58,48 58,48 58,48 57,47 57,47 57,47 57,47 57,47 57,47 57,47 57,46 57,46 57,46 56,46 56,46 56,46 56,46 56,46 56,46 56,46 56,46 55,46 55,46 55,46 55,46 55,46 56,46 56,46 56,45 56,45 56,45 56,45 56,45 56,45 56,45 56,45 57,45 57,45 57,45 57,45 57,45 57,45 57,45 58,45 58,45 58,45 58,45 58,45 58,45 58,45 58,45 58,45 59,45 59,45 59,45 59,45 59,45 59,45 59,45 59,45 59,45 59,45 60,45 60,45 60,46 60,46 60,46 60,46 61,46 61,46 61,46 62,46 62,46 62,46 63,46 63,46 63,46 63,46 63,46 64,46 64,46 64,46 64,46 64,46 64,46 64,46 64,46 65,46 65,46 65,46 65,47 65,47 65,47 65,47 66,47 66,47 66,47 67,47 67,47 67,47 68,47 68,47 68,47 68,48 68,48 69,48 69,48 70,48 70,48 70,48 70,48 70,48 70,48 71,48 71,48 71,48 71,48 71,48 71,48 72,48 72,48 72,48 72,48 72,48 72,48 73,48 73,48 74,48 74,48 75,48 75,48 75,48 75,48 75,48 75,48 75,48 76,48 76,48 76,48 77,48 77,48 77,48 78,48 78,49 79,49 80,49 80,49 80,49 80,49 80,49 80,49 81,49 81,50 81,50 82,50 82,50 82,50 83,50 83,50 83,50 83,50 83,50 83,50 83,50 84,50 84,51 84,51 84,51 84,51 84,51 84,51 84,51 84,51 84,50 85,50 85,50 85,50 85,50 86,50 86,50 86,50 86,50 86,50 86,50 86,50 86,50 87,50 87,50 87,50 87,50 87,50 87,50 87,50 87,50 87,50 88,50 88,50 88,50 88,50 88,51 88,51 88,51 88,51 88,51 89,51 89,51 89,51 89,51 89,51 89,51 89,51 90,51 90,51 90,51 90,51 90,51 90,51 90,51 90,51 91,51 91,51 91,51 91,51 91,51 92,51 92,51 92,51 92,51 92,51 92,51 92,51 92,51 92,51 92,51 92,51 93,51 93,51 93,52 93,52 93,52 93,52 94,52 94,52 94,52 94,52 94,52 94,52 94,52 94,52 94,52 94,52 95,52 95,52 95,52 95,52 95,52 95,52 95,52 95,52 95,52 95,52 95,52 95,52 95,52 95,52 95,52 95,52 96,52 96,52 96,52 96,52 96,52 96,52 96,52 96,52 97,52 97,52 97,52 97,52 97,52 97,52 97,52 97,52 97,52 97,52 97,52 97,52 98,52 98,52 98,52 98,52 98,52 98,52 99,52 99,53 99,53 99,53 99,53 99,53 99,53 99,53 99,53 99,53 99,53 99,53 99,53 99,53 99,53 99,53 100,53 100,53 100,53 100,53 100,53 100,53 100,53 100,53 100,53 100,53 100,53 100,53 100,53 100,53 100,53 100,53 100,53 100,53 100,53 100,53 101,53 101,53 101,53 101,53 101,53 101,53 101,53 101,53 101,53 101,53 101,53 101,53 101,53 101,53 101,53 101,53 101,53 101,53 101,53 101,53 102,53 102,53 102,53 102,53 102,53 102,53 102,54 102,54 102,54 102,54 102,54 102,54 102,54 102,54 102,54 102,54 102,53 102,53 102,53 102,53 102,53 103,54 103,54 103,54 103,54 103,54 103,54 104,54 104,54 104,54 104,54 104,54 104,54 104,54 104,54 104,54 104,54 104,54 105,54 105,54 105,54 105,54 105,54 105,54 105,54 105,54 105,54 105,54 105,54 105,54 105,54 105,54 105,54 105,54 105,54 106,54 106,54 106,54 106,54 106,54 106,54 106,54 106,54 106,54 107,54 107,54 107,54 107,54 107,54 107,54 107,54 107,54 107,54 107,54 107,54 107,54 108,54 108,54 108,54 108,54 108,54 108,54 109,55 109,55 109,55 109,55 109,55 109,55 109,55 109,55 109,55 109,55 110,55 110,55 110,55 110,55 110,55 110,55 110,55 110,55 110,55 110,55 110,55 110,55 110,55 110,55 111,55 111,55 111,55 111,55 111,55 111,55 111,55 111,55 111,55 111,55 111,55 111,55 112,55 112,55 112,55 112,55 112,55 112,55 112,56 113,56 113,56 113,56 113,56 113,56 113,56 114,56 114,56 115,56 115,56 115,56 115,56 115,56 115,56 116,56 116,56 116,56 116,56 116,56 116,56 116,56 116,56 117,56 117,56 117,56 117,56 117,56 117,56 117,56 117,56 117,56 117,56 118,56 118,56 118,57 118,57 118,57 118,57 118,57 118,57 118,57 118,57 118,57 118,57 118,57 118,57 119,57 119,57 119,57 119,57 119,57 119,57 119,57 119,57 119,57 119,57 120,57 120,57 120,57 120,57 120,57 120,57 120,57 120,57 120,57 120,57 120,57 121,57 121,57 121,57 121,57 121,57 121,57 121,57 121,57 121,57 122,57 122,57 122,57 122,57 122,57 122,57 122,57 122,57 122,57 122,57 122,57 122,58 122,58 122,58 122,58 123,58 123,58 123,58 123,58 123,58 123,58 123,58 123,58 123,58 123,58 123,58 123,58 123,58 123,58 123,58 124,58 124,58 124,58 124,58 124,58 124,58 124,58 125,58 125,58 125,58 125,58 125,58 125,58 125,58 125,58 125,58 125,58 125,59 125,59 125,59 126,59 126,59 126,59 126,59 126,59 126,59 126,59 126,59 127,59 127,59 127,59 127,59 127,59 127,59 127,59 127,59 127,59 127,59 127,59 127,59 127,59 127,59 127,59 128,59 128,59 128,59 128,59 128,59 128,59 128,59 128,59 128,59 128,59 128,59 128,59 128,59 128,60 129,60 129,60 129,60 129,60 129,60 129,60 129,60 129,60 129,60 129,60 129,60 129,60 130,60 130,60 130,60 130,60 130,59 130,59 130,59 130,59 130,60 130,60 130,60 130,60 130,60 130,60 130,60 130,60 131,60 131,60 131,60 131,60 131,60 131,60 132,60 132,60 132,60 132,60 132,60 132,60 132,60 132,60 132,60 132,60 132,60 133,60 133,60 133,60 133,60 133,60 133,60 134,60 134,60 134,60 134,60 134,60 134,60 134,60 134,60 134,60 134,60 135,60 135,60 135,61 135,61 135,61 135,61 135,61 135,61 135,61 135,61 135,61 136,61 136,61 136,61 136,61 136,61 136,61 136,61 136,61 136,61 137,61 137,61 137,61 137,61 138,62 138,62 138,62 138,62 139,62 139,62 139,62 139,62 139,62 139,62 139,62 140,62 140,62 140,62 140,62 140,62 140,62 141,63 141,63 141,63 141,63 141,63 141,63 141,63 141,63 142,63 142,63 142,63 142,63 142,63 143,63 143,63 143,64 143,64 143,64 143,64 143,64 144,64 144,64 144,64 144,64 144,64 144,64 144,64 145,64 145,64 145,64 145,64 146,64 146,64 146,65 146,65 147,65 147,65 147,65 148,65 148,65 148,65 148,65 148,65 148,65 148,65 148,65 149,65 149,65 149,65 149,65 149,65 149,65 149,65 149,65 150,65 150,65 150,65 150,65 150,65 150,65 150,65 150,65 150,65 150,65 150,65 151,66 151,66 151,66 151,66 151,66 151,66 151,66 151,66 152,66 152,66 152,66 152,66 152,66 152,66 152,66 152,66 153,66 153,66 153,66 153,66 153,66 153,66 153,66 153,66 154,66 154,66 154,66 154,66 154,66 155,66 155,66 155,66 156,66 156,66 156,66 156,66 156,66 156,66 156,67 156,67 156,67 157,67 157,67 157,67 157,67 157,67 157,67 157,67 157,67 158,67 158,67 158,67 158,67 158,67 158,67 158,67 158,67 158,67 158,67 159,67 159,67 159,67 159,67 160,67 160,67 160,67 160,67 160,67 160,67 160,67 160,67 161,67 161,67 161,67 161,67 161,67 161,67 161,67 162,67 162,67 162,67 162,67 162,67 162,67 163,68 163,68 163,68 164,68 164,68 164,68 164,68 164,68 165,68 165,68 165,68 165,68 165,68 165,68 165,68 166,68 166,69 166,69 166,69 166,69 166,69 166,69 166,69 167,69 167,69 167,69 167,69 167,69 167,69 167,69 167,69 167,69 168,69 168,69 168,69 168,69 169,69 169,69 170,69 170,69 170,69 171,69 171,70 171,70 171,70 172,70 172,70 172,70 172,69 172,69 173,69 173,69 173,69 173,69 173,69 174,69 174,69 174,69 174,69 174,69 174,69 174,69 175,68 175,68 175,68 175,68 175,68 176,68 176,68 177,68 177,68 177,68 177,68 178,68 178,68 178,68 178,68 179,68 179,68 179,68 179,68 179,68 179,67 179,67 179,67 179,67 180,67 180,67 180,67 180,67 180,67 180,67 180,67 180,67 180,67 180,67 180,67 180,67 180,67 181,67 181,67 181,67 181,67 181,67 181,66 182,66 182,66 182,66 182,66 182,66 182,66 183,66 183,65 183,65 183,65 183,65 183,65 184,64 184,64 184,64 184,64 184,64 184,64 184,64 184,64 184,64 184,64 184,64 184,63 184,63 185,63 185,63 185,63 185,63 185,63 185,63 185,63 185,63 185,63 185,63 185,63 185,62 185,62 186,62 186,62 186,62 186,62 186,62 186,62 187,62 187,62 187,62 187,62 187,62 187,62 187,62 188,62 188,62 188,62 188,62 188,62 188,62 188,62 188,62 189,62 189,62 189,62 189,62 189,62 189,62 189,62 189,62 190,62 190,62 190,62 190,62 191,62 191,62 191,62 191,62 191,62 191,62 191,62 191,62 191,62 192,62 192,62 192,62 192,62 192,62 192,62 192,62 193,61 193,61 193,61 193,61 193,61 194,61 194,61 194,61 194,61 194,61 194,61 194,61 195,61 195,61 195,61 195,61 195,61 195,61 195,61 196,61 196,61 196,61 196,61 196,61 196,61 197,61 197,61 197,61 197,61 197,61 197,61 197,61 198,61 198,61 198,61 198,61 198,61 198,61 198,61 198,61 199,61 199,61 199,61 199,60 199,60 200,61 200,61 200,61 200,60 200,60 200,60 201,60 201,60 201,60 202,60 202,60 202,60 202,60 202,60 202,60 202,60 203,60 203,60 203,60 203,60 203,60 203,60 203,60 203,60 204,60 204,60 204,60 204,60 204,60 204,60 204,60 204,59 205,59 205,59 205,59 205,59 206,59 206,59 206,59 206,59 207,59 207,59 207,59 208,59 208,59 208,59 208,58 209,58 209,58 209,58 209,57 210,57 210,57 210,57 210,57 211,57 211,57 211,57 211,57 211,57 212,56 212,56 212,56 213,56 213,55 214,55 214,55 214,54 215,54 215,54 215,53 216,53 216,53 216,53 217,52 217,52 217,52 218,52 218,52 218,52 219,52 219,52 220,52 220,52 220,52 220,52 221,51 222,50 222,50 222,50 222,50 222,49 222,49 222,49 222,49 223,49 223,49 223,49 223,48 224,48 224,48 224,48 224,48 224,48 224,48 224,47 224,47 224,47 224,47 224,47 224,47 224,47 224,46 225,46 225,46 225,46 225,46 225,46 225,46 226,46 226,46 226,46 226,45 226,45 226,45 227,45 227,45 227,45 227,45 227,45 227,45 227,44 227,44 227,44 228,44 228,44 228,43 228,43 228,43 228,43 228,43 228,43 228,42 229,42 229,42 230,42 230,42 230,41 230,41 230,41 230,41 230,41 230,41 230,41 230,41 230,40 230,40 230,40 230,40 231,39 231,38 231,38 231,38 231,38 231,38 231,37 231,37 232,37 232,36 232,36 232,36 232,36 233,35 233,35 233,35 233,35 233,34 233,33 233,33 233,33 233,33 233,32 233,32 233,32 234,32 234,32 235,31 235,31 235,31 235,31 235,31 235,30 235,30 236,30 236,30 237,30 237,30 238,29 238,29 238,29 238,29 238,29 238,28 238,28 238,28 239,28 239,28 239,28 240,28 240,27 240,27 240,27 240,27 240,27 240,27 240,27 240,27 240,27 241,27 241,27 241,27 240,27 240,26 240,26 240,26 240,26 241,26 241,25 242,25 242,25 242,24 242,24 242,24 242,24 243,24 243,24 243,23 244,23 244,23 244,22 244,22 244,22 244,22 245,22 245,22 245,21 245,21 246,21 246,21 247,20 248,19 248,19 248,19 248,19 248,19 248,19 248,19 248,18 248,18 248,18 248,18 248,18 248,18 248,18 248,18 248,17 248,17 247,17 247,17 247,17 247,17 247,17 247,17 247,17 247,17 247,17 247,17 247,17 247,17 247,17 247,17 247,16 247,16 247,16 246,16 246,16 246,16 246,16 246,16 246,16 246,16 246,16 246,16 246,15 246,15 246,15 246,15 246,15 246,15 246,14 245,14 245,14 245,14 245,14 246,14 246,13 246,13 246,13 246,13 246,13 246,13 246,13 246,13 246,13 245,13 245,13 245,13 245,13 245,12 246,13 246,13 246,12 247,12 247,12 247,12 247,12 247,12 248,12 248,11 248,11 248,11 248,11 249,11 249,11 249,11 249,11 249,11 250,11 250,11 250,11 250,11 250,11 250,11 251,12 251,12 251,12 251,12 251,12 252,11 252,11 252,11 253,11 253,11 254,11 254,11 254,11 254,11 254,11 254,11 255,11 255,10 255,10 256,11 256,10 256,10 256,10 256,10 256,10 257,10 257,10 258,10 259,10 259,10 259,10 260,10 260,9 260,9 260,9 261,9 261,9 261,9 261,10 262,10 262,10 262,10 262,9 262,9 263,9 263,9 263,9 263,9 263,9 263,9 263,9 263,9 263,9 264,9 264,9 264,9 264,9 264,9 265,8 265,8 265,8 265,8 265,8 265,8 265,8 265,8 265,8 266,8 266,8 266,8 266,8 266,8 266,8 266,8 267,8 267,8 267,8 267,8 267,7 268,7 268,7 268,7 268,7 269,7 269,7 269,7 269,7 269,7 269,7 270,7 270,7 270,7 270,7 270,7 270,7 271,6 271,6 271,6 271,6 271,6 271,6 271,6 271,6 271,6 271,6 272,6 272,6 272,6 272,6 272,6 272,6 272,6 272,6 273,5 273,5 273,5 273,5 273,5 273,5 273,5 274,5 274,5 274,5 274,5 274,5 274,5 274,4 274,4 275,4 275,4 275,4 275,4 275,4 275,4 276,4 276,4 276,4 276,4 276,4 276,4 276,4 276,4 277,4 277,4 277,4 277,4 278,4 278,4 278,4 278,4 279,4 279,4 279,4 280,4 280,4 280,4 280,4 280,4 280,4 281,4 281,4 281,4 281,4 282,4 282,4 282,4 282,4 282,3 283,3 283,3 283,3 283,3 284,3 284,3 284,3 284,3 284,3 285,2 285,2 285,2 285,2 286,2 286,2 286,2 286,2 286,2 286,2 286,2 287,2 287,2 287,2 287,2 287,2 288,2 288,2 288,2 288,2 288,2 288,2 288,2 288,2 288,1 289,1 289,1 289,1 290,1 290,1 290,1 290,1 291,1 291,0 291,0 292,0 292,0 292,0 293,0 293,0 293,0 294,0 295,0 295,0 296,0 296,0 296,1 296,1 296,1 296,1 296,1 296,1 296,1 297,4 297,4 297,4 298,4 299,4 299,4 301,4 301,4 301,4 301,4 302,4 303,4 304,4 305,4 305,4 306,4 307,4 308,4 309,3 310,3 310,3 310,4 310,4 310,4 311,4 311,4 312,4 312,4 313,5 314,5 315,6 315,6 315,6 316,7 316,7 317,7 318,7 318,7 318,7 319,7 319,7 320,7 321,7 323,7 323,7 324,6 325,6 326,6 326,6 326,6 327,6 327,6 327,6 327,6 327,7 327,7 327,7 327,7 327,7 327,8 327,8 327,8 326,11 326,11 326,11 326,11 326,11 326,12 326,12 326,12 326,12 326,12 326,12 326,13 326,13 326,13 326,13 326,13 326,14 326,14 326,14 326,14 326,14 326,15 326,15 327,15 327,15 327,15 327,16 327,16 327,16 327,16 327,16 327,16 327,17 328,17 328,17 328,17 328,17 328,17 328,17 328,17 329,17 329,16 330,16 330,16 330,16 330,15 330,15 330,15 333,16 333,16 335,16 336,17 336,17 336,17 336,17 336,17 337,17 337,17 338,17 338,17 338,17 338,17 338,17 338,17 339,17 339,17 339,17 340,17 340,17 340,17 340,17 340,17 340,17 341,17 341,17 341,17 341,17 342,17 342,17 342,17 342,17 343,17 343,17 343,17 344,17 344,17 344,18 344,18 345,19 346,19 346,19 346,19 346,20 346,20 346,20 346,21 346,21 346,21 346,21 347,22 347,22 348,22 349,22 350,22 350,22 350,22 350,23 350,23 351,23 351,24 352,25 352,25 352,25 352,25 353,25 354,25 354,25 354,25 354,25 354,26 354,26 354,26 355,26 355,26 356,26 356,26 356,26 357,27 358,27 360,28 360,28 361,29 362,30 362,30 363,31 364,31 364,32 364,33 365,33 365,34 365,34 365,34 365,34 366,35 367,35 367,35 367,35 367,36 368,36 368,36 368,36 368,36 368,36 368,36 368,36 369,37 369,37 370,38 370,38 371,40 374,43 374,44 374,44 375,44 376,43 381,43 383,43 383,43 385,42 385,42 385,42 386,45 386,45 386,46 387,46 387,47 387,48 388,49 388,51 388,52 388,52 388,52 389,53 389,54 389,54 389,55 389,55 389,56 389,56 389,57 389,57 389,57 389,57 389,58 389,58 389,58 389,58 389,58 388,58 388,59 388,59 388,59 388,59 388,59 388,59 388,59 388,59 387,59 387,59 387,59 387,59 387,59 387,59 387,59 387,59 387,59 387,59 386,59 386,59 386,59 386,59 386,59 386,59 386,59 385,59 385,59 385,59 385,59 385,59 385,59 385,59 385,59 385,59 385,59 385,59 385,59 385,59 385,60 385,60 385,60 385,60 385,60 384,60 384,60 384,59 384,59 384,59 384,59 384,59 384,60 384,60 384,60 384,60 384,60 383,60 383,60 383,60 383,60 383,60 383,60 382,60 382,60 381,60 381,60 381,60 381,60 381,60 380,60 380,60 379,60 379,60 379,61 378,61 378,61 378,61 378,61 378,62 378,62 378,62 377,62 377,62 377,62 377,62 377,63 377,63 377,63 377,63 377,64 376,64 376,64 376,64 376,64 375,64 375,64 375,64 375,64 375,64 375,64 375,64 375,64 375,64 376,65 376,65 376,65 376,65 376,66 376,66 376,66 376,66 376,66 377,66 377,66 377,66 377,66 377,67 377,67 377,67 377,67 378,67 378,67 378,68 378,68 378,68 378,68 378,68 379,68 379,68 380,67 381,67 382,67 383,68 383,68 383,68 383,69 383,69 383,70 382,70 382,70 382,71 382,72 382,72 382,73 382,74 382,74 382,75 383,75 382,76 383,77 386,77 386,77 389,77 391,77 393,76 394,76 396,76 398,75 400,73 403,71 404,70 404,71 403,72 404,73 404,74 405,75 406,77 407,78 408,79 408,79 408,80 407,81 407,81 407,82 407,82 407,83 407,83 407,83 407,83 408,84 409,84 409,85 409,85 409,86 409,86 409,86 409,87 410,87 410,88 410,88 410,89 411,89 411,89 412,90 412,90 412,90 412,90 412,91 412,91 412,91 412,91 412,91 412,91 412,91 413,92 413,92 413,92 414,92 414,92 414,92 414,92 415,92 415,92 415,93 416,93 416,94 416,94 416,94 417,95 417,95 417,96 417,96 417,97 417,97 417,97 417,98 417,98 418,98 418,98 418,98 419,98 419,98 420,97 420,97 421,97 421,97 421,97 421,97 421,98 421,98 421,98 421,99 421,99 421,99 421,99 422,99 422,99 422,99 422,99 423,99 423,99 423,100 423,100 423,100 423,100 423,101 423,101 423,101 423,101 423,102 423,102 423,102 422,102 422,103 422,103 421,104 421,104 420,105 420,105 420,105 419,105 419,106 419,106 419,106 419,107 419,107 419,107 419,107 419,108 418,108 418,108 418,108 418,108 418,109 419,109 420,110 420,110 420,110 420,110 420,111 420,111 420,112 420,112 420,112 420,113 420,113 421,113 421,114 421,114 421,114 421,114 421,114 421,114 421,115 422,115 422,115 422,116 422,116 422,116 421,117 421,118 421,118 421,118 420,118 420,119 421,119 421,119 420,120 420,121 420,121 420,122 420,122 420,123 420,124 415,128 415,129 414,129 413,129 413,130 411,131 411,130 410,131 410,131 409,131 407,131 405,131 404,132 403,132 402,132 401,132 400,132 400,133 399,133 397,133 396,133 396,133 393,133 393,134 392,133 390,133 388,134 386,135 386,135 385,135 385,135 382,136 382,136 381,137 381,137 380,137 379,138 378,138 378,138 377,138 376,139 375,139 375,139 374,139 373,140 372,139 371,139 370,140 370,140 368,139 368,139 367,139 367,139 367,139 367,139 366,139 366,139 365,139 365,139 364,139 362,140 359,141 359,141 358,141 357,141 355,142 353,142 351,143 350,142 349,142 348,142 346,143 345,143 345,143 344,143 342,144 341,145 339,146 339,146 335,147 335,148 335,149 335,149 336,150 337,152 337,154 337,155 337,156 337,157 337,157 337,158 337,158 337,158 337,159 337,159 337,160 337,161 337,161 336,162 336,164 336,164 336,164 336,166 336,166 336,167 336,168 336,168 336,169 336,170 337,171 337,172 337,172 337,173 337,174 337,175 337,176 338,177 338,178 337,179 337,179 337,180 337,180 337,181 337,182 337,183 337,183 337,184 337,184 337,185 336,186 336,186 336,187 336,187 336,188 336,189 336,189 336,190 336,190 336,190 336,190 336,190 336,191 335,191 335,191 335,191 335,191 335,192 335,192 335,192 335,192 335,193 335,193 335,193 335,193 335,193 335,194 335,194 335,194 335,194 335,195 334,195 334,195 335,196 335,197 335,197 335,197 335,197 335,198 335,198 335,198 335,198 335,198 335,199 335,200 335,200 336,200 337,201 337,201 337,201 337,201 337,202 337,202 337,202 337,202 337,202 337,202 337,202 337,202 337,202 337,202 337,202 337,202 337,202 337,202 337,202 337,202 337,202 337,202 338,202 338,202 338,202 338,202 338,202 338,202 338,202 338,202 338,202 338,202 338,203 338,203 338,203 338,204 338,204 339,205 339,205 339,206 339,207 339,207 339,207 338,207 337,207 337,207 336,207 336,207 335,207 335,207 334,207 334,207 333,207 333,207 332,208 331,208 330,208 329,208 329,208 330,209 330,209 330,210 330,210 330,211 330,211 330,211 330,212 330,212 330,212 330,212 330,212 330,213 330,213 330,213 330,213 330,213 330,213 330,213 331,213 331,214 331,214 332,215 332,215 332,215 332,215 332,216 332,216 332,216 332,216 332,216 333,216 333,217 333,217 333,217 333,217 333,218 333,218 333,218 333,218 333,218 333,218 333,219 333,219 333,219 333,219 333,219 333,220 333,220 333,220 333,221 334,221 334,222 334,223 334,223 334,224 334,224 334,224 334,225 334,225 334,225 334,225 334,225 334,226 334,226 334,226 334,226 334,226 334,226 334,226 334,226 334,226 334,226 334,226 334,227 334,227 334,228 334,228 334,228 334,228 334,229 335,230 336,232 336,232 336,233 337,234 337,234 338,236 339,237 340,238 342,239 344,241 345,242 345,243 347,246 347,246 346,247 347,248 348,248 348,248 348,249 348,249 348,250 349,251 349,251 350,251 350,251 350,251 351,251 351,252 350,254 350,254 350,255 350,255 350,255 349,256 349,257 350,258 351,260 351,260 351,261 352,262 352,262 352,262 353,263 353,264 354,265 355,265 355,265 355,266 355,267 356,268 357,269 357,270 356,272 356,272 355,273 354,275 354,275 354,276 354,276 353,276 353,277 353,277 352,278 351,278 350,278 350,279 350,279 350,280 349,280 348,280 348,280 347,281 346,281 345,282 344,283 344,283 344,284 343,285 343,285 346,288 358,295 359,296 359,296 362,299 365,300 367,302 370,303 377,304 380,305 382,306 390,306 395,305 396,305 396,306 395,307 396,307 396,308 396,308 396,308 395,308 395,308 395,308 395,308 396,308 396,308 396,309 397,309 397,309 397,310 398,310 398,310 399,310 400,312 401,313 402,313 403,314 403,314 402,314 402,314 402,314 401,314 401,314 402,314 402,314 403,315 403,316 404,317 404,318 404,319 404,319 404,321 404,321 404,321 404,321 404,321 404,322 404,322 404,322 405,323 405,323 405,323 405,324 405,324 405,324 405,325 405,325 405,325 406,326 406,326 407,326 408,327 410,327 410,327 410,328 410,328 412,328 413,328 414,328 414,328 414,328 414,328 414,328 415,328 415,328 416,328 416,328 416,328 417,328 418,328 418,328 419,328 421,328 422,328 423,328 424,329 425,329 425,329 426,328 426,328 426,328 427,328 427,329 427,329 427,329 428,329 428,329 428,329 428,329 429,329 429,330 429,330 429,330 429,331 429,331 430,331 430,331 430,331 430,331 430,331 430,331 431,331 432,332 432,332 432,332 432,332 433,332 434,331 434,331 434,331 435,331 435,331 436,331 436,331 437,331 437,331 437,331 438,331 439,331 439,331 440,331 440,331 442,331 443,331 443,331 444,331 444,331 445,331 447,332 448,332 448,332 448,332 450,333 450,333 450,333 451,333 451,333 452,333 452,333 453,333 453,333 453,333 454,334 454,334 454,334 454,334 455,335 455,335 455,335 455,335 455,335 456,335 456,335 456,335 456,335 457,336 457,336 457,336 457,336 457,336 457,336 457,336 458,336 458,336 459,336 460,336 460,336 461,336 462,336 462,336 463,336 463,336 464,336 464,336 464,336 464,336 464,336 464,337 465,337 465,337 465,338 465,338 466,339 466,339 466,339 466,339 466,339 466,339 466,339 467,339 468,339 468,339 468,338 468,338 469,339 469,339 469,339 469,339 469,339 469,339 470,339 470,339 471,339 472,339 472,339 472,339 473,340 473,340 473,340 474,340 475,341 475,341 475,341 476,341 477,341 477,341 478,341 479,342 480,342 481,342 483,343 484,343 485,344 485,344 485,344 485,344 485,345 486,345 486,345 487,345 487,345 488,345 488,345 488,345 489,346 489,346 490,346 490,346 490,346 491,346 491,346 491,346 491,346 492,347 492,347 492,347 494,347 494,348 494,348 495,348 495,348 495,348 495,348 495,348 496,349 496,349 496,349 496,349 496,349 496,350 496,350 496,350 496,350 496,350 497,350 497,350 497,350 497,350 497,350 497,351 498,351 498,351 498,351 498,351 497,351 497,351 497,351 497,351 497,351 497,351 497,352 497,352 497,352 497,352 498,352 499,352 499,352 499,352 499,352 499,352 500,352 500,352 499,353 499,354 499,354 499,354 499,354 499,354 499,355 499,355 499,355 499,355 500,355 500,355 499,355 499,355 500,356 500,356 500,356 500,356 500,356 499,357 499,357 499,357 500,357 500,357 499,357 499,357 498,358 498,358 497,359 497,359 496,359 496,359 496,359 496,360 495,360 495,360 495,361 495,361 494,361 494,361 493,362 493,362 493,363 493,363 493,363 493,363 493,363 493,363 493,363 492,363 492,363 492,363 492,363 492,363 492,363 491,363 490,363 490,364 489,364 489,364 487,364 487,365 487,365 487,365 487,365 487,365 486,365 486,365 486,366 485,366 484,366 484,367 484,367 484,367 484,367 484,367 485,367 485,367 485,367 485,367 484,367 484,367 483,368 483,368 482,368 482,368 482,368 481,368 480,368 479,368 478,368 478,368 477,368 477,368 476,368 476,368 476,368 476,368 476,368 475,369 475,369 475,369 474,369 473,369 473,369 473,369 473,369 473,369 472,369 472,369 472,370 472,370 471,370 471,370 470,369 470,369 470,369 470,369 469,370 469,370 469,370 468,370 468,371 467,372 467,372 467,373 467,373 467,373 467,373 467,373 467,373 466,373 466,373 466,373 465,373 465,373 465,373 465,374 465,374 465,374 465,374 465,374 464,375 464,375 464,375 464,375 463,375 463,375 462,375 462,376 462,376 461,376 461,376 460,377 460,377 460,377 459,377 459,377 459,377 458,377 458,377 458,377 458,377 458,377 458,377 458,378 458,378 458,378 457,378 456,379 456,379 455,379 455,379 455,379 455,380 455,380 454,380 452,381 451,381 451,381 451,382 451,382 451,382 451,382 451,382 451,381 451,381 451,381 451,381 450,381 450,381 449,381 449,381 449,381 448,381 448,381 447,381 447,381 447,381 446,382 444,382 444,382 443,383 443,383 443,383 442,383 442,383 442,384 442,384 442,384 440,385 440,386 440,386 439,386 439,386 439,386 439,387 439,387 439,387 439,387 439,387 438,387 438,387 438,387 438,387 438,388 438,388 438,387 437,387 437,387 437,387 436,387 436,387 436,387 436,387 436,387 436,387 436,386 436,386 436,386 436,386 436,386 436,386 436,386 436,386 436,386 435,386 435,386 435,386 435,386 435,386 435,386 435,387 435,387 435,387 435,387 435,387 435,388 435,388 434,388 434,388 434,388 434,388 434,388 434,388 434,388 434,388 434,388 433,388 433,388 433,388 433,388 432,388 432,388 432,388 432,388 432,388 432,388 432,388 432,388 432,388 432,389 431,389 431,389 430,389 430,390 430,390 430,390 430,390 429,391 429,391 429,391 428,392 428,392 428,392 428,392 428,392 428,393 427,393 427,393 427,393 427,393 427,393 427,393 427,393 427,394 428,394 428,394 428,394 428,394 428,395 428,395 428,395 428,395 428,395 429,395 429,396 429,396 429,396 429,396 430,397 429,397 429,397 429,397 429,397 429,397 429,398 429,398 429,398 429,398 429,398 429,398 429,398 429,398 429,398 429,398 429,398 428,398 428,398 428,398 426,399 426,399 425,399 424,399 424,399 423,399 423,399 423,400 423,399 423,400 423,400 423,400 423,400 423,400 423,400 422,400 422,401 422,401 422,402 422,402 422,402 422,402 422,402 421,402 421,402 421,403 421,403 421,403 420,403 418,402 417,402 417,402 417,402 417,402 417,402 416,403 416,403 416,403 416,403 416,403 416,403 416,403 416,403 417,403 417,404 417,404 417,404 418,405 418,405 418,405 418,405 418,406 418,407 418,407 418,407 418,407 417,408 417,408 417,408 417,408 417,408 416,409 416,409 416,409 416,409 416,409 415,410 415,410 414,411 414,411 414,411 414,411 414,411 414,412 414,412 414,412 414,412 413,412 413,412 413,412 412,412 412,413 411,413 411,413 411,413 410,413 410,413 410,413 410,413 410,413 409,412 409,412 409,412 409,412 408,412 408,412 408,411 408,411 408,411 408,411 408,411 407,411 407,411 407,411 406,411 405,411 405,411 405,411 404,411 404,410 403,410 402,411 402,411 401,411 401,411 401,411 400,411 400,412 400,412 400,412 400,412 400,411 400,411 400,411 400,411 400,411 399,411 399,412 399,412 398,412 398,412 398,412 398,412 398,412 398,412 398,412 398,412 397,412 397,412 397,412 397,412 397,412 397,412 396,412 396,411 396,411 396,411 396,410 395,409 395,409 395,409 394,409 394,408 393,408 393,408 392,407 392,407 391,407 390,407 390,407 390,407 389,407 389,407 389,407 388,407 387,407 387,407 386,407 386,407 386,407 387,408 387,408 386,409 387,409 387,409 387,410 387,410 387,410 386,411 386,411 386,411 386,412 386,412 386,412 386,413 387,413 387,414 387,414 387,414 387,414 388,415 388,415 389,416 389,416 389,417 389,417 389,417 389,418 389,419 388,420 387,422 387,423 387,423 388,424 388,425 388,425 388,426 388,426 388,426 388,427 389,427 389,428 389,428 389,428 388,428 388,428 388,428 388,429 388,429 388,429 388,429 388,429 387,429 386,430 386,430 386,430 386,430 386,430 386,430 386,430 387,431 387,431 387,431 388,431 388,432 388,432 388,432 388,432 388,433 389,433 389,433 389,433 389,433 389,433 390,434 390,434 390,435 390,435 391,435 391,435 391,435 391,435 392,435 392,435 392,435 392,435 392,434 392,434 392,434 392,433 393,433 393,433 393,433 394,433 394,433 394,433 394,433 395,433 395,433 395,433 396,434 396,434 396,434 395,435 396,435 395,435 395,436 395,436 395,436 395,436 395,436 396,436 396,436 396,436 396,436 397,437 397,437 398,438 398,438 398,438 398,438 399,439 399,439 399,439 399,439 399,439 399,439 399,441 399,442 399,444 399,446 398,446 398,446 397,446 397,446 397,446 397,446 396,446 396,446 396,446 396,447 395,447 395,447 395,447 395,447 394,448 394,448 394,448 394,448 393,448 392,448 392,449 392,449 392,449 392,449 392,449 392,449 392,449 392,449 392,449 392,449 392,450 391,450 391,450 391,450 391,450 391,450 391,450 391,450 391,451 391,451 391,451 391,451 391,451 391,451 391,452 391,452 391,452 390,452 390,452 390,452 390,452 390,452 390,453 390,453 390,453 390,453 389,454 389,454 389,454 389,455 389,455 389,455 389,455 389,456 389,456 389,456 389,456 389,456 389,456 389,456 389,456 389,456 389,456 389,457 388,457 388,456 388,456 387,456 387,456 386,456 386,456 386,456 385,457 385,458 384,458 383,459 382,459 381,460 381,461 380,461 380,462 378,463 377,463 375,463 375,463 374,464 373,464 373,464 373,464 372,464 371,464 370,464 369,464 368,464 367,464 366,464 366,464 364,463 361,463 359,463 357,462 356,462 355,462 353,463 352,464 351,465 350,466 348,466 347,467 347,468 347,469 346,469 346,469 346,469 346,469 345,469 345,468 344,468 344,467 344,467 343,466 343,466 343,465 343,465 343,464 342,464 342,464 340,464 340,464 340,465 339,465 339,464 338,464 338,464 337,463 336,462 336,461 336,461 336,460 336,459 336,458 336,458 336,458 335,457 335,457 334,457 334,457 333,457 332,458 332,458 333,459 333,459 333,460 332,460 332,460 331,460 330,460 330,460 329,460 329,460 328,460 328,459 328,459 327,459 326,460 326,460 326,461 326,462 327,463 328,464 328,465 328,465 329,466 328,467 328,467 327,467 327,467 326,467 325,467 324,466 323,465 322,464 322,463 321,463 321,462 320,460 319,460 319,459 318,458 317,458 317,457 317,457 317,457 316,457 315,457 315,457 315,457 314,456 314,456 314,456 315,455 314,454 314,454 313,454 312,454 311,454 310,454 309,454 309,454 308,454 307,454 307,454 306,453 306,453 305,453 305,453 305,452 306,452 306,452 308,452 308,451 308,451 307,451 307,450 306,450 306,449 305,448 305,447 304,447 304,447 303,447 303,447 303,447 302,447 302,447 302,447 301,447 301,446 301,446 301,446 301,445 301,445 301,444 300,444 300,444 299,444 299,443 299,443 298,443 298,443 298,443 298,442 297,442 296,441 295,441 294,441 293,441 292,441 292,441 291,441 291,442 290,441 289,441 288,440 287,440 285,439 285,439 284,439 284,438 283,437 282,437 281,436 280,436 279,435 278,434 277,434 276,433 275,433 275,432 274,432 274,432 274,431 274,430 273,430 273,429 272,429 271,429 271,429 269,429 268,428 268,428 267,428 267,428 266,429 266,429 266,429 265,429 265,430 264,430 263,430 262,431 261,431 260,431 259,431 259,431 258,432 257,432 256,432 255,432 254,433 253,433 252,434 252,434 251,433 250,433 250,433 249,433 248,433 248,433 247,432 247,432 246,432 246,431 246,431 246,430 246,430 245,429 245,428 244,428 244,428 244,427 243,427 243,426 242,426 242,426 241,426 241,426 241,425 241,425 240,424 240,424 239,424 239,424 238,424 238,424 237,424 237,424 236,423 236,423 236,423 236,423 236,422 236,422 237,422 237,421 237,421 238,421 239,421 239,421 239,420 239,420 239,420 239,419 239,419 239,418 239,418 239,417 239,417 239,416 239,416 239,415 239,415 238,414 237,413 237,412 236,412 236,412 236,411 236,411 236,410 235,410 235,410 235,410 235,409 234,409 234,409 234,409 234,408 233,408 233,408 233,408 233,409 233,409 233,409 233,409 232,409 232,409 232,408 232,408 232,408 232,407 231,407 230,406 229,405 229,405 229,405 229,404 229,404 228,404 228,403 228,403 227,403 227,403 226,402 226,402 225,402 225,402 225,402 225,401 225,401 225,401 225,401 225,401 226,400 226,400 226,400 226,399 227,399 227,399 227,398 227,398 227,398 227,398 227,398 225,396 225,396 224,395 224,395 224,394 224,394 224,394 224,394 223,394 223,394 221,393 221,392 220,392 219,392 219,392 217,391 217,391 216,390 216,390 215,390 215,390 215,390 215,389 215,389 215,389 215,388 215,388 215,387 215,387 215,387 215,386 214,386 214,386 214,385 213,385 213,385 213,384 213,384 212,384 212,384 212,384 212,384 211,384 211,384 211,384 210,384 210,384 209,384 209,384 208,384 207,384 205,384 204,384 204,383 203,383 203,383 203,384 202,384 201,384 201,384 200,384 199,384 199,384 198,384 198,384 197,384 197,383 196,383 196,383 196,383 196,382 196,382 195,382 195,382 195,382 194,382 194,381 194,381 193,381 193,381 193,381 193,380 192,380 192,380 192,379 192,379 192,378 192,378 192,378 192,378 192,378 191,377 191,377 191,376 191,376 191,376 190,376 190,376 190,375 190,375 190,374 190,374 191,373 191,372 191,372 191,371 191,371 191,370 191,370 190,369 190,369 189,368 189,368 189,367 189,367 189,366 189,365 188,365 188,364 188,364 188,363 189,363 190,363 191,363 192,362 191,362 191,362 190,361 190,361 191,361 191,360 191,360 192,358 192,358 192,357 192,357 192,356 192,356 191,356 190,355 190,355 190,354 190,354 190,354 190,353 191,353 192,352 193,351 193,350 194,350 194,349 194,349 195,348 196,348 196,348 196,348 196,348 196,347 196,347 197,347 198,347 198,347 198,347 199,346 199,346 199,346 199,346 198,345 198,345 197,345 197,345 196,344 196,344 195,343 195,343 195,342 196,342 196,341 196,341 197,341 197,341 198,341 198,340 198,340 199,340 199,339 200,339 200,339 201,339 202,339 202,339 202,339 203,338 203,338 203,338 203,337 203,337 203,337 203,336 203,336 204,336 204,336 205,336 205,336 205,335 206,335 208,334 209,334 209,334 210,334 210,334 210,334 210,334 210,334 209,333 209,332 209,332 208,332 207,332 208,331 209,330 208,329 208,329 207,328 207,328 208,327 208,327 208,326 207,326 208,324 208,324 209,322 209,322 209,320 210,319 210,319 209,318 209,317 209,317 208,317 208,317 207,316 207,315 206,315 206,315 204,314 203,313 203,313 203,312 203,312 202,312 202,312 202,312 201,311 201,311 201,311 200,311 200,311 200,311 200,311 200,310 199,309 199,309 199,308 199,308 200,308 200,307 200,307 200,306 200,306 200,306 200,305 200,305 200,305 200,304 200,304 199,304 199,303 199,302 199,301 198,300 198,300 198,300 199,300 199,299 199,299 199,299 199,299 199,299 199,299 199,299 199,298 199,298 199,297 198,297 198,296 198,295 198,295 198,294 198,294 198,294 198,293 198,293 198,293 198,293 198,293 198,293 199,293 199,293 199,293 199,293 199,292 198,292 197,291 197,291 197,291 196,291 196,291 195,291 195,290 195,290 195,290 195,291 194,291 194,291 193,291 193,291 192,290 192,290 192,290 191,290 191,290 190,289 189,289 189,289 188,289 187,289 187,289 186,288 186,288 186,288 186,288 186,288 186,287 186,287 186,286 186,286 186,286 185,286 184,286 184,285 184,285 183,285 183,285 183,284 183,284 183,284 183,284 183,284 183,284 183,284 183,283 183,283 183,283 183,283 182,283 182,282 182,282 182,282 182,282 182,282 183,282 183,282 183,281 183,281 183,281 183,281 183,280 183,280 183,280 183,280 183,280 183,280 183,280 184,280 184,280 184,280 185,280 185,280 185,279 185,279 185,279 185,279 185,279 185,279 185,279 185,278 185,278 185,278 185,278 185,278 185,278 185,277 185,277 184,277 184,277 184,277 185,277 185,276 185,276 185,276 185,276 185,276 185,276 185,275 185,275 185,275 185,275 184,274 184,274 184,274 184,273 184,273 184,273 183,273 183,273 183,273 183,273 183,273 182,272 182,272 182,272 182,272 182,272 182,271 182,271 182,271 182,271 182,270 182,270 182,270 182,270 182,270 181,270 180,270 180,270 180,270 180,270 179,270 179,270 178,270 178,270 178,270 178,270 178,270 178,269 178,269 179,269 179,268 179,268 179,268 179,267 178,267 178,266 178,266 178,266 178,266 178,266 178,265 178,265 178,264 177,264 176,264 176,265 174,266 173,266 169,268 166,270 165,269 163,269 161,268 159,268 156,268 156,268 154,267 154,267 151,267 147,267 145,267 144,267 143,268 142,268 139,267 138,268 137,268 136,268 135,268 135,268 132,268 130,268 130,268 127,268 126,268 126,268 124,268 122,267 122,267 121,267 120,266 120,266 120,266 117,266 117,265 117,265 117,265 117,265 118,265 118,265 119,265 119,264 119,264 120,262 120,260 121,258 118,257 117,256 113,255 111,254 111,252 111,252 110,251 109,251 107,249 104,248 103,247 100,245 100,245 99,245 99,245 98,245 97,245 97,245 96,245 95,245 94,244 93,244 92,244 92,244 91,244 90,245 88,244 88,244 87,244 86,244 85,243 84,243 83,242 82,242 80,241 79,241 78,241 77,241 77,241 77,240 76,240 74,240 72,240 70,240 70,240 69,241 67,241 65,242 64,244 62,246 61,247 58,248 58,248 57,249 56,250 55,250 55,250 54,251 50,251 47,251 44,254 43,254 41,254 41,256 34,254 35,253 34,252 32,248 31,240 29,236 30,235 30,235 30,235 30,234 29,234 27,231 26,229 25,228 21,226 7,224 6,223 12,219 14,215 16,215 16,214 15,212 15,210 14,208 11,208 10,207 9,207 8,206 7,206 6,206 5,206 4,205 3,204 2,203 2,203 1,203 1,202 1,201 1,201 1,201 1,200 0,200 0,200 0,199 0,198 1,198 1,197 1,196 1,196 2,196 2,195 3,195 3,195 3,194 3,193 1,193 1,193 1,192 1,192 1,191 1,190" id="611" class="canton" fill="steelblue" stroke-width="1" stroke="white" geotype="canton" geoname="Grasse-1" code_insee="611" code_departement="6" nom_departement="Alpes-Maritimes" code_region="93" nom_region="Provence-Alpes-Côte d'Azur"/></svg>