<?xml version="1.0" encoding="utf-8"?>
<svg version="1.1" id="svgmap" xmlns="http://www.w3.org/2000/svg" xmlns:xlink="http://www.w3.org/1999/xlink" x="0px" y="0px" width="100%" height="100%" viewBox="0 0 500 480">
<polygon points="177,73 179,73 178,71 179,69 177,66 177,64 179,62 180,61 180,59 180,59 180,57 180,55 180,54 182,54 183,54 185,55 185,55 187,55 189,55 190,56 192,56 195,56 196,56 198,55 198,55 199,55 201,55 202,56 204,56 206,57 208,57 209,57 211,58 212,58 213,58 215,57 215,57 220,55 221,55 222,54 223,53 223,53 224,53 225,52 226,51 227,51 229,51 229,51 231,50 232,51 232,51 234,51 235,51 235,51 235,51 236,51 236,51 236,51 236,51 237,50 237,50 237,50 238,50 238,50 238,50 239,50 239,50 240,50 240,50 240,50 241,49 241,49 244,48 245,48 246,47 247,47 248,46 248,46 249,45 250,43 250,43 251,42 253,42 256,41 258,41 259,41 259,41 260,40 261,40 262,40 264,40 264,39 265,39 266,38 266,38 267,39 267,40 268,41 270,41 271,41 271,41 272,42 274,44 275,45 275,45 275,45 276,45 278,44 278,44 279,45 280,46 282,46 283,46 283,45 283,45 283,45 284,45 284,45 283,45 283,45 284,45 285,44 286,44 287,44 288,43 288,43 288,42 289,41 290,40 291,39 291,38 291,38 291,38 291,37 292,37 292,36 294,36 295,35 296,35 296,34 297,36 298,36 299,36 300,37 300,37 301,37 303,38 305,38 305,38 306,38 308,37 309,37 309,37 310,37 311,37 312,38 312,38 312,38 312,38 312,37 313,37 313,37 312,37 312,37 314,37 315,37 315,37 314,36 313,36 316,36 316,36 319,36 319,36 319,36 317,36 317,35 318,36 319,36 320,36 320,36 320,36 319,35 319,35 320,35 321,35 321,35 321,35 323,35 323,35 323,34 323,34 324,33 324,33 325,33 326,34 326,34 326,33 327,33 328,32 330,31 331,31 331,30 331,29 330,29 329,27 329,26 329,26 329,26 330,27 333,27 333,27 333,28 334,29 337,30 338,31 339,31 340,30 340,29 341,29 342,28 343,29 344,30 345,30 345,30 345,30 349,30 351,31 353,32 358,32 360,31 361,30 362,30 363,29 364,29 364,29 366,29 367,29 367,30 370,31 371,32 372,32 374,32 377,32 380,32 382,32 383,32 385,33 389,33 391,33 392,31 393,30 393,29 396,27 396,26 397,24 399,23 399,22 400,21 400,20 399,19 398,18 399,17 399,17 400,17 400,17 404,12 404,12 402,9 405,7 404,6 403,4 410,2 412,2 412,2 420,0 426,0 432,1 438,2 439,2 441,2 447,3 447,3 448,2 450,2 451,1 462,6 461,10 458,16 450,20 450,20 450,21 450,22 448,23 448,28 449,29 450,29 452,30 453,31 457,35 454,41 454,42 453,42 453,42 453,43 452,43 452,43 451,45 450,45 450,46 450,46 449,46 449,46 449,46 448,46 448,47 447,47 446,48 446,48 445,49 445,49 444,49 444,50 444,50 443,50 443,50 442,54 443,54 443,54 443,54 443,54 443,54 443,54 443,54 444,55 444,55 444,55 445,55 445,56 446,56 446,56 446,56 446,57 446,57 446,57 447,57 447,58 447,59 447,59 447,59 447,59 447,60 447,60 447,60 447,61 448,61 448,61 448,62 448,62 448,62 448,63 448,63 448,64 449,65 450,66 450,66 451,67 451,68 456,69 460,71 462,71 462,71 468,75 470,77 476,84 493,98 495,100 495,100 500,105 500,107 498,111 497,113 496,117 495,126 494,129 494,130 495,131 495,130 494,131 493,131 493,131 493,131 493,131 492,132 490,133 490,133 489,134 489,134 488,134 488,134 488,134 488,135 488,135 488,135 487,135 487,135 487,135 487,135 487,136 487,136 487,136 487,136 487,136 487,136 487,136 487,136 486,137 486,137 485,137 485,137 485,137 485,137 485,138 485,138 485,138 485,138 485,138 485,138 485,138 485,138 485,138 485,138 485,138 485,138 485,139 485,139 485,139 485,139 485,139 485,139 485,139 485,139 485,139 484,140 484,140 484,141 484,141 483,141 483,141 483,142 483,142 483,142 483,142 483,143 483,143 483,144 482,144 482,144 482,144 482,145 483,145 483,145 483,146 483,146 483,146 483,146 483,147 483,147 483,148 483,148 483,149 483,149 483,149 483,149 483,150 483,150 482,151 482,151 482,151 481,152 481,152 481,152 481,152 481,152 481,153 480,153 480,153 480,153 480,153 480,153 479,153 479,153 478,153 478,153 478,153 477,153 476,153 476,154 475,154 474,154 474,154 474,155 474,155 474,154 473,154 473,154 472,154 472,154 471,154 471,154 470,154 470,154 469,154 469,154 468,155 468,155 468,155 467,155 467,156 466,156 465,156 465,156 465,157 464,157 464,157 464,157 463,157 462,157 462,157 462,158 461,158 461,158 461,158 461,158 460,159 460,159 460,159 460,159 459,159 459,159 458,160 458,160 457,160 457,161 457,161 457,161 456,161 456,161 455,161 455,161 455,162 454,162 454,162 454,162 454,163 453,163 453,163 453,164 452,164 452,164 452,165 452,165 452,165 452,165 452,165 452,166 452,166 452,166 452,166 452,166 451,166 451,166 450,166 450,165 450,165 450,165 449,165 449,165 448,165 447,165 447,165 447,165 446,165 446,165 446,165 446,164 446,164 445,164 445,164 444,164 444,164 443,164 443,164 442,164 442,164 442,164 442,164 441,164 441,164 441,164 441,164 441,164 441,165 441,166 441,166 441,166 440,166 440,166 440,166 440,166 440,166 439,166 439,166 439,166 438,166 438,166 438,166 438,167 437,168 437,168 437,168 437,169 437,169 437,169 438,170 438,170 437,170 437,171 437,171 437,171 437,171 437,172 437,172 438,172 438,172 438,172 437,173 437,173 437,173 437,173 437,173 437,173 437,174 437,174 438,174 438,174 438,175 438,175 439,175 439,175 439,175 439,176 439,176 439,176 438,176 438,177 438,177 438,177 438,177 438,178 438,178 437,178 437,178 437,178 437,179 437,179 437,179 438,180 438,180 438,180 438,181 438,181 438,182 439,182 439,183 439,183 439,183 439,184 440,184 440,184 440,184 440,184 440,184 440,185 441,185 441,185 441,185 442,186 442,186 442,186 442,186 441,187 441,187 441,187 441,188 441,188 441,188 441,188 441,189 441,189 441,189 442,190 442,190 442,190 443,190 444,191 444,191 444,191 444,191 444,191 444,191 444,192 444,192 444,192 444,192 444,193 444,193 444,194 444,194 444,194 444,194 444,195 444,195 444,195 445,196 445,196 445,197 445,197 445,197 445,198 445,198 445,198 445,198 445,198 445,199 445,199 446,199 446,199 446,200 446,200 446,200 446,200 447,200 447,200 446,200 446,201 446,201 445,202 445,202 445,202 444,202 444,203 444,203 444,203 444,203 443,203 443,204 443,204 442,204 442,204 442,204 442,205 442,205 442,205 442,205 442,205 442,205 442,205 441,205 441,205 441,205 440,206 440,206 440,206 439,206 439,207 439,207 439,207 439,207 439,207 439,208 439,208 439,208 439,208 439,208 439,209 439,209 439,209 439,209 439,209 439,209 439,210 439,210 439,210 439,210 440,210 440,210 440,210 439,211 439,211 439,211 439,211 439,211 439,211 439,211 440,211 440,212 440,212 440,212 440,212 439,213 439,213 439,213 439,213 438,214 438,214 438,214 438,214 438,214 438,214 437,213 437,213 437,213 436,213 436,213 436,213 435,213 435,213 435,213 435,213 434,213 434,213 434,214 434,214 433,214 433,214 433,214 433,214 431,215 431,215 431,215 430,215 430,215 430,215 430,215 430,216 430,216 430,216 430,217 430,217 430,218 430,218 430,218 430,218 430,219 430,219 430,220 430,220 430,220 430,221 429,222 429,223 429,224 429,224 429,224 429,224 430,224 430,225 430,225 429,225 429,225 429,225 428,225 427,225 427,225 427,225 427,225 427,226 427,227 427,227 427,227 427,227 427,227 427,227 427,227 427,227 427,228 427,228 427,228 426,228 426,228 426,228 425,227 425,227 425,227 424,227 424,227 424,227 423,227 423,227 422,227 422,227 421,227 420,227 420,227 419,227 418,227 417,227 417,227 416,228 415,229 414,229 414,229 414,230 414,230 413,231 413,231 413,231 413,231 413,232 413,232 412,232 412,232 412,232 411,232 411,232 410,233 410,232 409,232 409,233 408,233 408,233 406,233 406,233 406,234 405,235 405,235 405,235 405,236 404,236 403,237 403,237 402,237 402,237 402,237 402,237 401,238 401,238 400,238 400,238 399,239 399,239 399,239 399,239 399,239 399,239 398,240 398,240 397,240 397,241 396,241 396,241 395,241 395,241 395,241 395,241 394,241 393,242 393,242 393,242 392,242 392,242 392,242 392,242 390,243 389,243 389,243 389,243 389,244 388,244 388,244 387,244 387,244 387,244 386,245 386,245 385,245 385,245 384,246 383,247 382,247 382,247 382,247 381,248 381,248 381,248 381,248 381,248 381,249 381,249 381,249 381,249 381,249 381,249 381,249 381,249 380,248 380,248 380,248 380,248 380,248 379,248 379,248 379,248 379,248 379,248 379,247 379,247 379,247 378,247 378,247 378,247 378,247 377,247 377,247 377,247 377,247 377,247 377,247 376,247 376,247 376,247 375,247 375,247 375,247 374,247 374,246 374,246 374,246 373,246 372,246 371,246 371,246 371,246 371,245 371,245 370,245 370,245 370,245 370,245 369,246 369,246 369,246 369,246 368,246 368,246 367,246 367,246 367,246 367,246 366,246 366,246 366,247 366,247 366,247 366,247 366,247 365,247 365,247 365,247 364,247 364,247 364,247 363,247 363,247 363,247 362,247 362,247 362,247 362,247 362,247 361,248 361,248 361,248 360,248 360,248 359,248 359,248 358,248 358,248 358,248 357,248 357,248 357,248 357,248 356,248 356,248 356,248 355,248 355,248 354,248 354,249 354,249 354,249 353,249 353,249 353,249 353,249 353,249 353,249 352,249 352,249 352,249 352,250 351,250 351,250 351,251 351,251 351,251 351,251 351,252 351,252 350,253 350,253 350,253 350,253 349,254 349,254 349,255 348,256 348,256 348,256 348,256 348,256 348,256 348,256 348,255 348,255 347,255 347,255 346,255 346,254 346,254 346,254 345,254 345,254 345,254 345,254 344,254 343,255 343,255 343,255 342,255 342,255 342,256 342,256 342,256 342,256 341,256 341,256 341,256 341,256 341,256 341,256 341,256 341,257 341,257 341,257 341,257 341,257 341,257 341,258 341,258 341,258 342,258 342,258 342,259 341,259 341,259 341,259 341,258 341,258 341,258 341,258 340,258 340,258 340,258 340,258 340,258 339,257 339,257 339,257 339,258 339,258 339,258 338,258 338,258 338,257 338,257 338,257 338,257 338,257 337,257 337,257 337,257 337,257 337,257 337,257 337,257 336,257 336,257 336,257 335,257 335,257 335,257 335,257 335,257 335,257 335,257 335,257 335,257 335,257 335,257 335,257 335,257 335,257 335,258 335,258 335,258 335,258 335,258 335,258 335,258 335,258 335,258 335,259 335,259 335,259 336,260 336,260 336,260 336,260 336,260 336,260 336,260 335,260 335,260 335,260 334,260 334,260 334,260 334,260 333,261 333,261 333,261 333,261 333,261 333,261 333,261 333,261 332,261 332,261 332,261 332,261 332,261 332,261 332,261 332,261 332,261 332,261 332,261 332,261 332,262 333,262 333,262 333,262 333,262 333,262 333,263 333,263 333,263 333,263 334,263 334,263 334,263 335,263 335,263 335,264 335,264 335,264 335,264 336,264 336,265 336,265 336,265 336,265 336,266 336,266 336,266 336,267 337,267 337,267 337,267 337,267 338,267 338,267 338,267 339,267 339,267 339,267 339,268 339,268 340,268 340,268 340,268 340,269 340,269 340,269 340,269 340,270 339,270 339,270 339,270 339,270 339,270 338,270 338,270 338,270 338,271 337,271 337,271 337,271 337,271 337,272 337,272 337,272 337,272 337,272 337,272 336,273 336,273 336,273 336,273 336,273 335,273 335,273 335,274 335,274 336,274 336,274 336,275 336,275 336,275 336,275 336,276 336,276 337,276 337,276 337,276 337,277 337,277 337,278 337,278 337,278 337,278 336,278 336,278 336,278 336,278 335,278 335,278 335,278 335,278 334,278 334,278 334,278 334,278 334,278 334,278 334,278 334,278 334,278 334,278 334,279 334,279 334,279 333,279 333,280 333,280 333,280 333,280 333,281 333,281 333,281 333,281 333,281 333,282 333,282 333,282 333,283 333,283 333,283 333,283 334,283 333,283 334,284 333,284 333,284 333,284 333,284 333,284 333,284 333,284 332,284 332,284 332,284 332,285 332,285 332,285 332,285 331,285 331,285 331,285 330,285 330,285 330,285 330,285 330,285 330,285 330,285 329,285 329,286 329,286 329,286 329,286 329,286 329,286 328,286 328,286 328,286 328,286 327,286 327,286 327,287 327,287 327,287 326,287 326,287 326,287 326,287 326,288 326,288 326,288 325,288 325,288 325,288 325,288 324,288 324,288 324,288 324,288 324,289 324,289 324,289 323,289 323,289 323,289 323,289 323,289 323,289 323,290 322,290 322,290 322,290 322,290 323,290 323,291 323,291 323,291 323,291 324,292 324,292 324,292 324,292 324,292 324,292 325,293 325,293 325,293 325,293 325,294 325,294 325,294 325,294 326,294 326,295 326,296 326,296 326,296 327,296 327,297 327,297 327,297 327,298 327,298 327,298 328,298 327,299 327,299 327,299 327,299 327,300 326,301 326,301 326,301 327,301 327,301 327,301 327,301 327,301 327,301 327,302 326,302 327,302 327,302 327,303 327,303 328,305 328,305 328,305 328,306 328,307 328,308 327,308 327,308 327,309 327,309 327,309 326,310 326,310 325,311 325,311 324,312 324,312 323,312 323,312 323,313 322,313 322,313 321,313 320,313 319,313 319,314 318,314 318,314 317,314 317,314 317,314 317,315 316,315 316,315 316,315 315,315 315,315 315,315 315,315 314,315 314,316 314,316 314,316 314,316 314,316 313,316 313,316 312,316 311,316 310,316 310,316 309,316 309,316 308,316 307,316 307,316 306,316 306,316 306,316 306,316 305,316 305,316 304,316 304,316 304,316 303,316 303,316 302,316 302,316 302,316 302,317 301,317 301,317 300,317 300,317 300,317 299,317 298,318 297,319 297,319 296,320 296,320 296,320 295,319 295,319 295,319 295,319 294,320 294,320 294,320 294,320 294,320 294,320 293,320 293,320 293,320 293,320 293,320 293,320 292,320 291,322 290,322 288,324 288,324 288,324 288,324 287,324 287,324 287,324 287,324 286,324 286,324 286,324 286,324 285,324 285,324 285,324 285,324 284,324 284,324 284,324 283,324 283,324 283,324 282,324 282,324 282,324 282,324 282,324 281,324 280,324 280,324 280,325 280,325 280,325 279,325 279,325 279,326 279,326 279,326 279,327 279,327 279,327 279,327 279,327 278,327 278,328 278,328 278,328 278,328 278,328 278,328 278,328 278,328 278,328 277,329 277,329 277,329 277,329 277,329 276,329 276,328 276,328 275,328 275,327 275,327 275,327 274,327 273,327 273,327 273,327 272,327 272,326 272,326 272,326 272,326 272,326 271,326 271,325 271,325 271,325 271,325 271,326 271,326 271,326 271,327 271,327 271,327 271,327 271,327 272,327 272,328 272,328 272,328 272,328 272,328 271,328 271,328 271,328 271,328 271,328 270,328 270,328 270,328 270,328 270,329 270,329 270,329 270,329 270,329 269,329 269,329 269,329 269,329 269,329 268,330 269,330 269,330 269,331 269,331 269,331 269,332 270,332 270,332 268,332 268,333 268,333 267,333 267,333 267,333 267,333 266,334 266,334 266,334 265,335 264,335 262,337 262,337 261,337 261,337 261,337 261,337 260,337 260,337 260,337 259,337 259,337 258,338 258,339 255,342 255,342 255,342 258,345 258,345 258,346 258,346 258,347 258,347 257,348 256,349 256,349 253,349 253,351 253,352 253,352 253,352 253,354 253,354 253,357 253,358 253,359 253,360 253,360 254,361 254,361 253,362 254,363 254,363 254,363 252,364 251,364 251,364 249,364 249,364 248,364 248,364 248,364 247,364 247,364 247,364 247,364 246,364 246,364 246,364 245,364 243,365 243,365 242,365 240,366 240,366 240,366 240,366 240,366 240,366 240,366 239,366 238,367 237,367 237,367 235,367 234,367 234,367 234,367 234,367 234,367 233,367 233,367 232,366 232,366 232,366 232,366 232,366 232,366 232,366 232,366 232,366 231,366 230,364 230,364 230,364 229,364 229,364 228,364 228,363 228,363 228,363 228,364 227,364 227,364 227,364 226,364 226,365 226,365 225,365 225,365 225,365 225,365 224,365 224,366 223,366 223,366 222,366 222,366 222,366 222,366 222,366 221,366 221,366 221,366 220,366 220,366 220,366 220,366 219,366 219,366 219,366 219,366 219,366 218,366 218,366 218,366 218,366 217,366 217,366 217,366 217,366 216,366 216,366 216,366 216,366 216,366 215,366 215,366 215,366 214,366 214,366 214,366 214,366 214,366 213,366 213,366 213,366 213,366 213,367 213,367 213,367 213,367 212,367 212,367 212,367 212,367 212,367 212,367 212,367 212,367 212,367 211,367 211,367 211,367 211,367 211,367 211,367 210,367 210,367 209,367 209,367 209,367 209,367 209,367 209,367 209,368 209,368 209,368 209,368 208,368 208,368 208,368 208,368 208,368 208,368 208,368 208,368 207,368 207,368 207,368 207,368 207,368 207,368 207,368 207,368 207,369 207,369 206,369 206,369 206,369 206,369 206,369 206,369 205,369 205,369 205,369 205,369 205,369 205,369 204,369 204,369 204,370 204,370 204,370 204,370 204,371 204,371 204,371 204,371 204,371 204,371 204,371 204,372 204,372 204,372 203,372 203,372 203,372 203,372 203,372 203,373 203,373 203,373 203,373 202,373 202,373 202,373 202,373 202,374 202,374 201,374 201,374 201,374 201,374 201,374 201,374 200,374 200,375 200,375 199,375 199,375 199,375 199,375 199,375 199,375 198,375 198,375 198,375 198,375 197,375 197,375 197,375 197,375 196,375 196,375 196,375 195,374 195,374 195,374 195,374 195,374 194,374 194,374 194,374 194,374 194,374 194,374 194,374 193,374 193,373 193,373 193,373 193,373 192,373 192,373 192,373 192,373 192,373 191,373 191,372 191,372 191,372 191,372 190,372 190,372 190,372 190,372 190,372 190,372 190,372 190,372 190,372 191,373 191,373 191,374 191,374 191,374 192,374 192,374 193,375 193,376 193,376 193,376 193,376 193,377 193,377 193,377 193,377 194,377 194,378 194,378 194,378 194,378 195,378 195,379 195,379 195,379 196,380 197,380 197,380 197,380 197,380 197,380 197,380 198,380 198,380 198,381 198,381 198,381 198,382 198,383 197,384 197,384 197,384 197,384 198,384 198,385 198,385 198,385 198,385 198,385 198,385 198,385 199,385 199,385 199,385 199,385 200,386 200,386 200,386 200,386 200,386 200,387 200,387 200,387 200,387 201,388 201,388 200,389 200,389 200,389 201,389 201,389 201,390 201,390 201,390 200,390 201,390 200,393 200,393 200,393 200,393 200,393 200,393 200,393 200,393 200,394 200,394 200,394 200,394 200,394 200,394 200,394 200,394 200,394 200,395 200,395 200,395 200,395 200,395 200,395 200,395 200,395 200,395 200,395 200,395 200,395 200,395 200,395 200,395 200,396 200,396 200,396 200,396 200,396 200,396 200,396 200,397 200,397 200,398 200,398 200,398 200,398 200,398 200,398 200,398 200,399 199,399 199,399 199,399 199,399 199,399 199,399 199,399 199,399 199,399 199,399 199,399 199,399 199,399 199,399 199,399 199,399 199,399 199,399 199,400 199,400 199,400 199,400 199,400 199,400 199,400 199,400 199,400 199,400 199,400 199,400 199,400 199,400 198,400 198,400 198,400 198,400 198,400 198,400 198,400 198,400 198,400 198,400 198,400 198,400 198,400 198,400 198,401 198,401 198,401 198,401 198,401 198,402 198,402 198,402 198,402 198,402 199,402 199,402 199,402 199,402 199,404 199,404 199,404 199,404 199,404 199,404 199,404 199,404 199,404 199,405 199,405 199,405 199,405 199,405 199,405 199,405 199,405 199,405 198,406 198,407 198,407 197,407 197,408 197,408 196,408 196,408 196,408 195,408 195,408 195,408 195,408 194,409 194,409 193,410 193,410 194,410 194,410 193,411 193,411 192,411 192,411 192,412 192,412 192,412 192,412 193,412 193,412 193,412 193,412 194,412 194,412 195,412 195,413 195,413 195,413 195,414 196,414 196,414 196,414 197,414 198,414 198,414 198,415 198,415 198,415 198,415 199,415 199,415 199,416 199,416 199,416 200,417 200,417 195,420 195,420 195,420 195,420 195,420 195,420 195,420 195,420 194,420 194,420 194,420 194,420 193,420 193,420 193,421 192,421 192,421 192,421 192,421 191,421 191,421 191,421 190,421 190,421 190,421 189,421 189,421 189,421 188,421 187,422 187,422 187,422 186,422 186,422 186,422 186,422 185,422 185,422 184,422 184,422 184,422 183,422 183,422 183,422 183,422 182,422 182,422 181,421 181,421 181,421 181,421 181,421 180,422 180,422 179,422 179,422 176,422 176,422 176,422 176,422 176,422 176,423 175,423 175,424 175,424 175,424 175,425 175,425 177,426 177,426 177,427 177,427 177,427 177,427 177,428 177,428 178,428 178,428 178,428 177,428 177,429 177,429 177,429 177,429 177,429 175,432 175,432 173,432 172,433 172,433 172,433 172,435 172,436 172,436 172,437 172,437 172,438 172,438 172,438 172,438 172,438 172,438 173,438 173,438 173,439 173,439 173,439 174,439 174,440 174,440 175,440 175,441 175,441 175,441 176,441 176,441 176,441 176,441 176,441 176,441 177,441 178,441 178,441 178,441 178,441 177,442 177,442 178,442 178,442 179,442 179,442 180,442 180,442 180,442 181,442 181,442 182,443 183,443 183,443 183,443 183,443 184,443 186,443 186,443 186,443 186,443 186,443 186,443 186,444 186,444 187,444 187,444 187,444 187,444 187,444 187,444 187,444 187,444 187,445 187,445 187,445 187,446 187,446 186,449 186,449 186,451 186,453 186,454 186,456 186,458 186,458 186,458 187,461 187,461 187,461 187,462 186,464 186,464 186,464 182,466 182,466 182,466 177,465 174,466 174,466 172,465 172,465 172,465 171,466 171,466 170,467 169,467 169,467 167,468 167,468 166,468 166,468 165,468 165,468 164,468 164,469 162,469 161,470 159,471 159,471 158,471 157,471 156,470 155,470 155,470 154,470 154,470 154,469 153,467 153,465 151,464 151,465 151,464 150,464 150,464 150,464 150,464 150,463 150,463 150,463 149,463 149,463 149,462 149,462 149,462 149,462 148,461 148,461 148,461 148,461 148,460 148,460 148,459 148,459 148,459 148,458 148,458 148,458 148,458 148,458 148,458 148,458 148,459 148,459 147,459 147,459 147,460 147,460 147,460 146,460 146,460 146,461 146,461 145,461 145,461 145,461 145,461 145,462 144,462 144,462 144,462 144,463 143,463 143,463 143,463 143,463 143,463 142,463 142,464 142,464 142,464 141,464 141,465 141,465 140,465 139,465 139,465 139,465 139,465 139,465 139,465 138,466 138,466 138,466 138,466 138,466 137,466 137,467 136,467 135,465 134,465 132,463 132,463 131,462 130,463 129,463 128,463 127,463 126,463 126,464 124,464 124,464 124,464 123,464 123,464 123,464 122,464 122,464 122,464 122,464 121,464 121,464 121,464 120,464 118,463 117,463 117,463 117,463 116,463 116,464 116,464 115,464 114,464 112,463 111,463 111,463 110,463 110,463 109,464 109,464 108,464 108,464 108,464 108,464 108,464 108,465 108,465 108,465 108,465 108,465 107,466 107,466 106,466 106,465 106,466 105,467 105,468 105,469 104,469 103,470 103,469 102,470 102,470 101,470 101,470 101,470 100,471 100,471 99,472 99,472 99,472 99,472 97,472 97,473 96,473 95,474 94,474 92,474 91,473 90,473 90,473 90,473 90,473 89,473 89,473 88,473 88,473 87,473 87,473 86,473 85,473 84,474 82,474 82,473 80,473 79,473 77,474 75,474 75,474 75,475 74,475 74,475 74,475 73,476 72,476 72,476 71,477 71,477 70,477 69,477 69,477 69,477 69,477 69,476 68,476 68,476 68,476 67,476 67,476 66,476 66,476 65,476 65,476 65,476 64,476 64,476 63,476 62,476 62,476 62,476 62,476 61,476 61,476 60,476 60,476 59,476 59,476 59,477 60,477 60,478 60,478 59,479 58,479 58,480 57,480 56,480 55,480 55,479 56,479 56,478 55,476 55,475 55,475 56,474 58,474 58,472 58,471 59,471 59,471 59,470 58,468 58,469 56,466 56,466 56,465 55,465 55,465 54,464 54,464 54,464 53,464 53,464 52,464 52,464 51,464 51,464 51,464 50,464 50,464 49,464 49,464 48,465 47,466 48,467 48,467 49,467 49,467 48,467 48,468 49,468 49,469 49,469 48,469 47,469 47,469 47,469 46,469 46,469 47,470 47,470 47,470 46,470 46,471 46,471 46,471 46,471 46,471 45,471 45,471 45,471 44,471 44,471 43,471 43,472 43,472 42,471 41,471 40,471 39,471 39,471 39,471 39,471 38,470 37,470 37,470 36,470 36,470 36,470 36,470 36,470 36,470 36,470 35,470 35,469 35,469 35,469 34,469 34,469 34,469 34,469 34,469 34,468 34,468 34,468 34,468 34,468 34,468 33,468 33,468 33,467 33,467 33,467 33,467 33,467 33,467 33,467 33,466 33,466 33,466 33,466 33,466 33,466 32,466 32,465 32,465 31,465 31,464 32,464 31,463 31,459 31,458 31,456 32,455 34,453 35,451 36,451 36,450 36,450 34,449 33,448 32,448 32,447 32,447 32,447 32,447 31,447 31,446 30,446 29,446 29,446 28,445 28,445 28,444 28,444 28,443 27,443 26,442 27,442 27,441 27,441 26,440 26,440 25,440 25,438 26,438 26,437 26,437 25,437 24,436 23,436 23,436 23,436 17,430 17,429 17,429 17,429 16,429 17,428 17,427 17,425 17,425 17,424 17,424 17,423 17,423 15,422 16,421 15,419 15,417 15,416 14,413 14,412 13,412 12,411 12,411 11,410 11,409 10,408 9,408 9,408 9,406 9,406 9,406 9,406 9,406 8,405 7,405 7,404 6,404 7,403 6,403 6,402 6,402 6,402 5,401 5,401 5,401 5,401 4,400 4,400 4,400 4,399 3,398 3,398 2,397 3,396 3,396 3,396 2,396 1,396 0,395 0,395 2,394 8,393 10,393 10,392 10,392 10,391 9,390 9,390 9,388 9,386 8,386 8,385 8,384 8,383 7,383 7,382 8,379 7,378 7,376 7,374 7,374 7,373 6,371 6,370 6,369 6,369 6,368 6,367 6,366 6,365 6,364 7,364 7,362 6,360 6,358 6,356 6,355 6,355 7,355 7,354 6,353 7,353 6,352 6,352 6,351 6,350 6,350 6,349 6,348 6,345 6,344 6,343 7,343 7,342 6,341 6,341 10,339 10,339 11,338 12,338 12,338 12,338 13,338 13,338 13,337 13,337 13,337 14,337 14,337 15,336 15,336 15,336 15,336 15,336 16,336 16,335 16,335 17,334 17,334 17,334 18,334 19,333 19,333 20,333 20,332 20,332 20,332 20,330 20,330 20,329 21,329 21,329 21,328 21,328 21,328 21,328 21,327 21,327 21,326 22,326 22,325 24,325 24,325 27,324 27,324 29,324 30,324 32,324 35,325 36,325 38,324 38,324 39,324 40,324 40,324 40,324 41,324 41,324 41,324 41,324 41,324 41,324 41,324 42,324 42,324 42,324 41,324 41,324 41,324 42,324 42,324 42,324 43,324 43,324 43,324 43,324 43,324 43,324 43,324 43,324 43,323 43,323 43,323 43,323 43,323 44,323 44,324 44,323 44,323 44,323 45,323 45,323 45,324 45,324 45,324 45,324 45,324 46,323 46,323 46,323 46,323 46,323 46,323 46,322 46,322 46,322 46,322 46,322 46,322 46,322 46,321 46,321 46,321 46,321 46,321 46,321 46,321 46,321 46,321 46,321 46,321 47,321 47,321 47,321 47,320 47,320 47,320 47,320 47,320 46,319 46,319 46,319 46,319 46,319 46,319 46,319 46,319 45,319 45,319 45,318 45,318 45,318 45,318 45,318 45,318 45,318 45,318 46,317 46,317 45,317 45,316 45,316 45,316 45,316 45,316 45,316 45,316 46,315 46,315 46,315 46,315 46,315 46,315 46,315 47,315 47,315 47,315 47,315 46,314 46,314 47,314 47,314 47,314 47,314 47,314 48,314 48,314 48,313 48,313 48,313 49,313 49,313 50,313 50,313 50,313 51,313 52,313 52,313 52,313 53,313 47,309 45,308 45,308 44,307 44,307 44,306 45,306 45,306 45,306 45,306 45,305 45,305 45,305 45,305 45,305 45,305 45,304 45,304 45,304 45,304 45,304 45,304 45,303 44,303 44,303 44,301 44,301 44,300 44,300 44,299 44,299 45,299 45,298 46,298 46,298 45,297 45,297 45,297 45,297 45,296 45,296 45,296 45,296 45,296 45,296 45,295 45,295 45,295 45,295 45,294 46,294 46,293 46,293 46,293 46,293 46,293 47,293 47,293 47,293 47,292 48,293 48,293 50,294 50,294 52,291 50,291 49,291 49,290 49,290 48,290 48,289 47,289 46,289 45,289 45,289 44,289 44,289 44,289 43,289 43,288 43,288 43,288 43,288 42,288 42,287 42,287 41,286 41,286 41,286 41,286 41,285 41,285 41,285 41,285 41,284 41,284 40,284 41,284 41,283 41,283 41,283 40,282 40,282 39,282 38,281 38,280 38,280 37,280 37,280 37,280 37,280 36,280 36,280 36,279 36,279 36,279 36,279 36,279 36,279 35,279 35,278 35,278 35,278 35,278 35,277 35,277 35,276 35,276 34,275 34,275 33,274 33,274 33,274 33,274 32,274 32,274 32,273 31,272 31,272 30,272 30,272 30,272 30,271 30,271 29,271 29,270 29,270 29,270 29,270 28,270 28,269 28,268 28,268 27,267 27,267 27,266 27,266 27,266 27,265 27,265 27,265 27,264 28,263 28,263 28,263 28,263 29,263 29,263 29,263 30,263 30,263 30,263 30,263 31,263 31,264 31,263 32,264 33,264 33,264 33,264 34,264 35,264 35,265 35,265 36,265 36,265 36,265 37,265 37,265 37,265 38,265 39,265 39,265 39,265 38,264 38,264 39,263 41,261 41,261 42,261 42,261 42,261 43,261 44,261 44,261 45,261 46,261 46,261 46,261 47,261 48,261 48,262 49,264 49,264 50,264 50,265 52,265 52,265 53,265 54,265 54,265 55,264 56,264 56,264 56,264 56,263 56,263 56,263 57,263 57,263 58,262 58,262 59,261 59,260 61,259 61,259 61,259 61,258 61,258 61,257 62,256 61,256 61,255 63,255 63,255 63,255 64,255 64,255 66,256 66,256 66,256 67,256 68,256 68,257 69,257 69,257 69,256 69,256 70,256 71,256 72,256 73,256 73,255 74,255 74,255 74,255 78,255 79,255 81,256 82,256 84,257 85,258 87,259 89,259 90,259 92,260 92,260 93,260 93,260 94,260 96,260 96,261 97,261 98,261 98,261 98,261 99,261 100,261 100,261 101,261 102,261 102,261 103,262 103,262 103,262 104,262 104,262 104,262 105,262 106,261 106,261 107,261 107,261 107,261 107,261 108,262 108,262 108,262 108,262 108,262 109,263 109,264 109,265 114,265 113,265 113,264 113,263 112,261 112,261 112,260 113,260 113,259 113,259 113,258 113,257 113,256 114,255 115,254 116,253 117,253 119,251 119,251 120,250 120,249 121,247 121,246 121,246 122,245 122,245 122,244 123,243 123,242 123,241 123,241 124,240 124,240 124,239 124,238 124,237 124,237 125,236 126,235 126,235 126,234 126,234 127,234 127,234 127,234 127,234 128,233 128,233 129,232 129,232 129,232 130,232 130,232 130,231 130,231 130,231 130,231 131,231 131,231 132,231 133,231 133,231 134,230 134,230 135,229 135,229 136,229 136,229 136,229 137,228 137,228 137,228 137,228 138,227 138,227 138,227 138,227 138,226 138,226 138,226 138,226 138,226 138,225 139,224 139,224 138,224 138,223 138,223 138,223 138,223 138,222 138,222 138,220 138,220 138,220 138,219 138,219 139,219 139,219 140,218 140,218 140,218 141,217 141,217 141,217 142,217 142,217 143,216 143,216 143,216 143,216 143,216 143,215 143,214 144,214 144,214 144,214 145,213 145,213 146,213 146,212 148,211 148,211 148,210 148,210 151,210 152,210 152,210 153,210 153,210 154,210 154,210 154,210 154,210 155,209 155,209 155,209 155,209 156,208 156,208 157,207 157,207 157,207 157,207 157,207 157,206 158,205 158,205 158,205 159,204 159,204 161,204 161,204 161,204 162,203 162,203 164,202 164,202 165,202 165,202 166,202 166,202 166,202 167,202 168,202 168,202 169,202 170,203 170,203 170,203 171,203 171,203 171,203 172,203 172,203 174,202 174,202 174,202 176,202 175,202 175,201 175,201 174,201 174,201 175,200 175,200 175,200 176,199 177,199 178,199 179,199 180,198 181,198 182,198 183,198 184,197 183,195 183,194 182,193 182,193 182,193 182,192 181,192 181,191 180,190 180,189 179,189 179,189 178,188 178,188 178,188 177,187 177,187 176,187 176,186 176,186 176,186 176,185 176,184 176,184 175,184 173,182 173,180 171,180 170,179 169,179 168,178 168,178 167,178 167,178 165,177 163,176 163,176 162,176 162,176 161,175 160,175 160,175 160,175 161,175 161,174 161,172 161,172 162,172 163,171 164,170 165,169 165,169 165,169 167,168 168,167 170,167 170,166 170,166 171,165 171,165 173,164 172,160 173,158 173,157 173,157 173,156 173,156 172,155 171,153 171,152 170,151 170,151 168,150 168,149 168,149 170,147 172,145 172,144 175,143 178,141 178,139 177,137 177,137 176,133 178,132 178,131 175,128 176,128 176,126 176,125 176,122 177,122 178,121 177,119 176,116 176,115 176,112 177,112 176,110 176,110 180,108 180,108 180,107 181,105 182,102 180,101 180,101 177,98 176,97 176,96 177,95 176,94 176,93 176,92 177,92 178,91 178,91 180,91 182,90 182,88 181,86 182,85 181,83 180,81 179,78 178,77 177,77 177,77 176,75 177,73" id="610" class="canton" fill="steelblue" stroke-width="1" stroke="white" geotype="canton" geoname="Contes" code_insee="610" code_departement="6" nom_departement="Alpes-Maritimes" code_region="93" nom_region="Provence-Alpes-Côte d'Azur"/></svg>