<?xml version="1.0" encoding="utf-8"?>
<svg version="1.1" id="svgmap" xmlns="http://www.w3.org/2000/svg" xmlns:xlink="http://www.w3.org/1999/xlink" x="0px" y="0px" width="100%" height="100%" viewBox="0 0 392 500">
<polygon points="24,301 25,301 27,300 28,299 28,299 30,299 30,299 34,297 36,297 37,297 38,296 39,296 39,296 39,295 39,294 40,293 42,291 42,290 43,289 44,289 45,290 45,290 45,289 47,287 48,287 51,287 53,287 54,287 54,287 55,286 57,286 57,286 58,286 59,286 59,285 60,285 60,285 65,286 69,288 71,287 73,288 74,288 76,288 77,287 80,287 82,286 83,286 84,286 86,286 88,287 89,285 92,283 93,282 95,280 101,278 104,278 105,278 107,277 108,277 109,276 110,275 110,275 112,274 113,274 116,272 116,272 117,271 119,269 120,268 120,267 123,265 123,264 123,264 125,263 125,262 127,260 128,258 129,257 129,257 130,256 131,256 133,254 133,254 134,254 134,254 134,255 133,255 133,256 133,257 133,259 134,259 134,258 134,258 135,258 135,258 135,258 136,258 137,258 137,258 138,258 138,257 138,257 139,257 139,257 141,256 141,256 141,256 142,256 142,256 142,256 142,256 143,256 143,256 143,256 143,256 144,255 144,255 144,255 145,255 145,254 146,254 146,254 146,254 147,254 147,253 147,253 147,253 147,252 147,252 147,252 147,251 148,251 148,251 148,251 148,251 148,251 148,251 149,251 149,251 150,251 150,250 150,250 150,250 150,250 151,250 151,250 151,250 152,250 152,250 152,250 152,250 153,250 153,250 153,250 153,250 154,250 154,249 154,249 155,249 155,249 155,249 155,249 155,249 156,249 156,249 156,249 156,249 157,249 157,249 157,249 158,248 158,248 159,248 159,248 159,248 159,248 159,248 160,248 160,248 160,248 160,248 161,248 161,248 161,247 161,247 161,247 161,247 162,247 162,247 162,247 162,247 162,247 162,247 162,247 162,247 162,247 162,247 163,247 163,247 163,246 163,246 164,246 164,246 164,246 164,246 164,246 164,246 164,246 164,246 164,245 164,245 165,245 165,245 165,245 165,245 165,245 166,245 166,245 166,244 166,244 167,244 167,244 167,244 167,244 167,244 167,244 167,244 167,244 168,244 168,244 168,244 168,244 168,243 168,243 168,243 168,243 168,243 169,242 169,242 170,242 170,242 170,242 171,242 171,242 171,242 171,242 172,242 172,242 173,242 173,242 174,242 175,242 175,242 175,242 175,242 176,242 176,242 176,242 176,242 176,243 177,243 177,243 177,243 178,242 178,242 178,242 179,242 179,242 179,242 180,243 180,243 180,243 181,243 182,243 182,243 184,244 185,244 185,244 187,245 188,245 189,245 189,246 191,246 192,246 193,246 194,247 195,247 196,247 199,248 204,248 202,247 203,235 204,228 204,224 205,222 205,221 204,220 204,218 204,217 203,217 203,215 202,214 202,213 203,211 203,210 202,209 202,208 203,206 204,205 206,203 208,200 209,197 215,197 215,196 216,196 216,196 217,196 217,195 217,195 217,195 217,195 216,194 216,194 216,194 215,193 215,193 215,191 215,191 215,190 215,190 215,189 215,189 215,189 215,188 216,188 216,187 217,187 217,187 217,187 216,186 216,186 216,186 215,185 214,184 214,184 213,183 212,183 211,182 211,182 210,182 210,181 210,181 210,181 209,181 209,180 209,180 209,180 208,179 208,179 207,179 207,179 207,178 207,178 207,178 206,177 206,177 206,177 206,177 206,176 206,176 205,176 205,175 205,175 207,174 207,174 209,173 208,173 208,173 208,172 207,172 207,172 207,172 207,171 206,170 206,170 207,170 207,170 207,169 207,169 207,168 207,168 208,168 208,168 208,167 208,166 208,166 208,166 208,166 208,166 208,165 208,165 209,165 210,164 211,162 211,162 212,162 212,161 211,160 211,159 211,159 211,158 210,158 210,158 211,157 211,157 211,156 211,156 212,155 212,155 212,155 212,154 212,154 212,153 212,152 212,151 212,151 212,150 211,149 211,149 211,148 211,148 212,147 212,147 214,146 214,145 215,144 215,144 215,144 215,140 215,139 215,139 215,139 215,138 215,137 215,137 215,136 215,136 215,136 214,135 214,133 213,130 213,130 213,129 213,128 211,124 208,122 205,119 205,118 205,118 204,116 203,113 203,113 201,112 200,112 197,111 197,111 198,110 198,110 199,110 199,110 199,109 199,109 199,109 198,109 198,109 198,109 199,108 199,108 199,108 199,108 199,108 199,107 199,107 199,107 199,107 199,107 199,106 199,106 199,106 199,106 200,106 200,106 200,106 199,106 199,106 198,106 198,106 198,106 198,106 198,105 198,105 198,105 198,105 198,105 198,105 198,104 198,104 198,105 197,105 197,105 197,105 196,105 196,104 196,103 196,103 195,103 195,103 195,103 195,103 195,102 195,102 195,102 195,102 194,102 194,102 194,102 194,102 194,101 194,101 194,101 194,101 193,101 193,101 193,101 193,101 193,101 193,101 192,101 192,101 192,101 192,101 192,101 191,100 191,100 191,100 191,100 191,100 191,100 191,100 191,100 190,99 190,99 190,99 190,98 189,98 189,98 189,98 189,98 189,98 188,98 188,98 188,98 188,98 188,98 188,97 187,97 187,97 187,97 187,96 188,96 187,96 187,96 187,96 187,96 187,95 187,95 187,94 185,93 185,93 184,93 184,93 183,93 182,93 182,93 182,93 182,93 181,93 180,93 180,93 180,93 180,93 179,93 179,93 178,93 177,93 177,93 177,93 176,93 176,93 176,92 175,92 175,92 174,92 173,92 173,92 173,92 172,92 172,92 171,92 171,92 171,91 170,91 169,91 169,91 168,91 168,90 167,90 167,90 167,90 166,89 166,89 166,89 166,89 165,87 165,87 164,87 164,87 163,86 162,84 162,83 162,83 161,83 161,83 161,83 161,83 160,82 160,82 160,82 158,82 158,82 157,82 155,82 155,82 154,82 153,82 153,82 153,82 152,82 152,82 152,82 151,82 151,82 150,82 148,82 147,82 144,81 144,81 143,81 144,85 144,86 144,87 130,89 130,89 130,89 130,89 131,88 132,87 132,87 132,86 132,85 132,85 132,84 132,83 132,83 131,82 131,82 131,81 131,81 131,80 131,79 131,78 131,78 131,78 131,78 131,77 132,76 131,75 131,73 131,72 131,72 130,72 130,72 129,71 129,71 129,70 131,66 132,66 132,66 133,66 133,65 134,65 134,65 134,65 135,65 135,65 135,65 136,65 137,65 137,65 138,65 139,65 139,65 141,66 141,66 141,66 142,66 145,65 146,65 146,65 147,65 147,66 149,66 150,66 150,66 150,66 152,66 152,66 152,66 153,66 153,66 153,67 154,67 155,67 156,67 156,67 157,67 157,66 158,66 158,66 158,66 158,66 158,65 158,65 158,65 158,65 159,65 159,65 160,65 160,65 160,65 161,65 162,64 162,64 162,64 163,65 163,65 163,64 164,64 164,64 165,64 165,64 166,63 166,63 166,63 166,63 167,63 167,63 167,63 168,62 169,62 169,61 169,61 169,61 169,61 170,62 170,62 171,62 171,62 171,63 171,64 171,64 171,64 171,64 171,64 172,64 173,65 175,65 175,65 175,65 176,66 176,66 177,66 178,67 179,67 179,67 180,67 180,67 180,68 180,68 180,68 180,68 181,68 182,69 183,69 184,69 184,70 185,70 185,70 186,71 187,71 188,71 189,71 190,72 191,73 191,73 192,73 192,73 193,76 194,76 194,76 194,76 194,76 194,76 197,71 202,65 202,64 202,64 205,62 208,60 212,57 215,55 217,54 218,53 220,51 222,49 224,48 226,46 227,45 227,45 227,45 228,44 230,42 231,41 233,39 234,38 235,37 236,36 237,35 240,31 242,29 246,25 246,24 248,22 249,21 250,19 250,18 250,18 250,18 258,17 268,15 270,15 277,14 279,14 280,13 281,13 284,12 293,11 293,10 293,10 295,10 295,10 296,10 296,10 296,10 297,9 297,9 297,9 297,9 298,9 298,9 298,9 298,9 299,9 299,9 300,8 300,8 300,8 300,8 300,8 301,9 301,9 301,9 301,8 301,8 302,8 302,8 302,8 302,8 302,8 302,8 302,9 302,9 302,9 302,9 302,9 302,8 302,8 302,8 302,7 302,7 303,7 303,7 304,7 304,7 305,7 306,6 306,6 307,7 307,7 307,7 307,7 307,7 308,7 308,7 308,7 309,7 310,7 310,7 311,7 311,6 311,6 312,6 312,6 313,6 314,6 315,6 316,6 317,6 317,6 317,6 317,6 318,6 319,5 319,5 319,5 320,5 320,5 320,5 320,5 320,5 321,3 321,3 321,2 322,2 322,2 322,2 322,2 323,1 323,1 323,1 325,1 325,1 326,1 326,1 327,1 328,1 329,1 329,1 330,1 331,1 331,1 333,1 333,1 334,1 334,1 335,1 335,1 336,1 336,0 336,0 337,0 338,0 338,0 339,0 339,1 339,1 340,1 340,0 341,0 341,0 342,0 343,0 343,1 343,1 344,1 344,2 345,3 345,3 345,6 345,7 345,7 345,8 345,8 345,10 345,12 345,12 346,12 346,12 349,13 350,13 351,13 351,13 352,14 352,14 352,14 353,14 354,14 355,14 355,15 355,15 355,15 355,15 355,15 355,15 355,15 355,16 354,16 354,16 354,16 354,17 355,17 355,17 355,17 354,18 354,18 354,18 353,18 353,18 352,18 353,19 353,19 353,20 354,22 355,22 354,24 354,25 354,25 353,26 353,29 353,30 356,33 357,33 356,35 356,36 356,36 356,38 356,38 363,42 362,43 363,44 363,45 363,45 362,47 362,48 362,48 361,48 361,49 361,49 361,49 361,49 361,50 361,50 368,55 368,55 351,66 353,74 352,75 352,81 353,84 360,86 360,86 360,87 360,87 360,88 360,88 360,89 361,89 364,93 365,93 365,93 366,94 366,94 366,94 367,95 367,95 367,97 367,98 367,98 365,103 365,103 363,104 360,107 359,107 359,108 358,109 357,109 357,110 356,111 355,112 352,113 351,114 351,114 346,119 346,120 348,124 350,127 351,128 351,130 352,133 353,135 354,137 354,138 355,142 356,145 356,149 356,150 356,152 356,157 355,169 354,180 356,187 365,195 372,204 375,212 376,224 378,231 381,236 387,244 391,253 392,259 386,259 387,261 387,264 387,265 386,269 386,270 386,272 386,273 385,274 385,275 385,276 385,276 385,278 384,279 383,280 383,281 382,282 381,284 380,284 380,286 380,286 379,287 380,287 380,288 380,289 382,292 383,293 385,296 387,302 388,308 387,309 386,310 386,311 385,312 384,314 384,315 383,316 382,317 381,318 380,319 379,320 378,322 376,325 374,327 370,332 368,335 366,337 365,338 364,340 363,341 362,342 361,343 360,344 359,346 357,348 356,349 354,350 353,351 352,353 351,354 350,355 348,358 347,359 344,364 332,380 324,390 308,414 316,417 316,418 315,420 315,420 314,422 314,422 313,423 312,423 312,424 313,427 311,429 310,432 309,433 309,435 310,436 311,436 311,438 310,440 310,441 307,442 306,443 306,444 304,445 300,446 299,446 298,446 297,446 293,447 293,447 292,447 290,448 287,449 285,449 284,449 283,450 281,451 276,451 271,451 263,451 262,452 260,452 255,453 251,454 249,454 248,455 246,457 239,466 236,471 238,476 239,482 239,484 240,486 240,488 239,490 238,492 238,492 238,494 236,497 235,498 234,500 233,500 232,499 230,497 229,496 228,494 226,491 224,489 221,491 219,493 216,492 209,490 209,490 208,490 208,489 205,489 205,490 205,490 205,489 205,489 204,489 204,489 204,489 203,489 203,488 203,488 202,488 201,488 201,487 201,487 200,486 200,486 199,485 199,485 199,486 198,485 197,485 197,486 197,486 197,486 197,486 195,486 195,486 193,487 193,487 192,487 192,487 192,487 192,487 191,487 191,487 191,487 190,487 189,488 188,488 187,488 186,489 186,489 186,489 185,489 184,489 173,488 173,488 173,487 173,487 167,486 165,485 151,483 151,483 151,482 149,480 149,480 149,480 147,478 147,478 147,477 148,476 148,476 148,475 148,475 148,475 151,472 151,472 152,470 150,467 148,463 148,463 148,463 148,463 147,462 147,462 147,461 148,459 141,457 141,457 140,456 140,455 140,454 140,453 140,453 140,452 139,452 139,451 138,451 138,450 138,450 138,450 137,448 138,447 138,446 138,445 138,444 137,443 136,442 135,441 134,439 133,438 132,437 132,437 132,436 132,435 131,435 130,434 129,433 129,431 129,431 129,431 129,431 130,427 130,427 129,426 129,424 128,420 128,419 128,418 128,417 129,415 129,414 129,414 129,413 129,411 129,411 129,411 129,410 129,410 128,404 127,404 127,404 127,404 127,404 126,404 125,404 125,404 124,404 124,404 124,404 124,404 124,403 123,403 123,403 123,402 122,402 122,401 121,401 121,401 120,400 120,400 120,400 120,400 120,400 120,400 120,400 120,399 120,399 120,399 120,399 120,399 120,399 119,399 119,399 118,399 118,399 118,398 118,398 118,398 117,398 117,398 117,397 117,397 117,397 116,396 116,395 116,395 116,395 116,395 116,395 115,395 115,394 115,394 114,394 114,393 113,393 113,393 113,393 113,393 113,393 113,393 113,393 113,393 112,393 111,391 110,391 108,389 105,388 106,387 106,387 103,386 101,385 100,384 97,383 94,381 90,379 88,377 87,376 86,375 82,373 82,373 81,371 77,368 72,365 70,364 67,362 65,358 62,356 59,353 56,352 53,350 51,349 51,349 50,348 49,347 48,346 48,345 46,343 45,342 43,341 41,339 39,339 38,338 35,337 33,336 32,336 31,335 29,335 29,335 29,335 28,335 27,335 27,335 26,335 26,335 26,335 25,335 25,335 23,334 21,333 21,333 20,332 18,332 17,332 16,333 16,333 16,333 13,332 13,331 13,331 11,331 10,331 10,331 9,330 9,330 9,329 9,328 5,327 4,326 3,325 3,325 3,324 2,324 3,323 3,323 2,322 1,321 0,320 0,320 0,320 0,320 1,319 1,319 2,320 2,320 2,320 2,319 3,319 3,319 3,319 4,319 4,319 4,319 4,319 5,319 6,319 6,319 6,319 7,319 7,319 7,318 7,318 8,317 8,317 8,317 8,316 9,316 10,315 10,315 12,315 12,315 11,315 11,314 11,314 11,314 12,314 12,314 12,314 11,313 11,313 11,313 11,312 12,312 12,312 12,312 12,312 12,311 12,311 12,311 12,311 12,310 13,310 13,310 13,309 21,302 21,302 21,302 22,302 23,302 24,301 24,301 24,301" id="709" class="canton" fill="steelblue" stroke-width="1" stroke="white" geotype="canton" geoname="Pouzin" code_insee="709" code_departement="7" nom_departement="Ardèche" code_region="84" nom_region="Auvergne-Rhône-Alpes"/></svg>