<?xml version="1.0" encoding="utf-8"?>
<svg version="1.1" id="svgmap" xmlns="http://www.w3.org/2000/svg" xmlns:xlink="http://www.w3.org/1999/xlink" x="0px" y="0px" width="100%" height="100%" viewBox="0 0 500 326">
<polygon points="159,182 160,182 164,180 163,179 162,179 162,178 165,175 174,165 176,163 181,159 188,152 192,149 192,149 194,145 207,121 208,119 208,118 208,113 208,112 208,107 210,96 210,95 209,95 202,84 201,83 201,83 201,82 204,77 206,71 207,69 207,68 205,65 205,64 205,64 205,63 206,62 206,61 208,60 208,59 209,57 209,57 209,56 208,55 207,55 211,55 212,55 212,55 210,53 210,51 209,49 209,49 210,45 211,44 212,42 214,39 217,36 217,35 217,34 217,32 216,32 214,29 213,28 207,20 207,19 208,19 209,18 209,18 210,17 212,17 212,17 212,16 213,15 213,16 214,16 217,17 219,17 220,17 221,17 224,16 227,16 229,16 230,15 231,15 232,15 233,14 234,14 235,15 239,14 240,14 241,14 242,13 244,13 247,13 254,12 254,12 257,12 260,12 264,13 267,13 278,15 282,16 287,17 293,17 296,18 298,18 301,18 304,18 306,18 313,17 322,16 326,16 331,15 333,14 334,14 338,15 342,15 355,18 363,19 367,19 369,20 374,20 374,21 377,14 380,8 382,6 384,5 386,4 389,4 392,3 393,0 407,1 421,3 425,3 445,8 464,12 463,13 463,14 463,14 465,15 466,16 468,16 469,16 470,17 471,17 477,18 478,18 477,21 477,32 477,37 477,41 477,42 478,43 479,44 479,44 481,49 481,49 479,51 479,51 479,51 492,63 492,63 492,63 487,66 487,66 487,66 492,69 492,70 484,79 484,79 488,80 488,80 485,84 484,84 480,83 474,93 475,93 479,94 479,94 479,94 479,95 478,95 478,95 478,98 477,98 477,98 473,97 473,98 471,101 471,102 475,103 475,103 475,103 473,107 473,107 473,107 472,107 469,117 469,117 469,118 474,119 475,119 477,115 477,115 488,120 492,123 500,130 500,130 480,145 480,146 463,168 463,169 462,169 454,166 454,166 454,166 454,166 453,166 444,174 444,174 443,174 440,178 439,178 431,175 431,176 429,178 428,181 428,183 427,183 428,183 427,188 427,189 426,189 426,189 425,190 425,191 426,194 426,195 428,201 426,201 426,201 426,202 426,203 425,204 425,204 426,206 426,206 428,209 428,210 429,211 431,213 431,214 435,219 435,219 437,220 440,221 441,221 442,222 443,222 443,223 444,223 445,223 445,224 445,224 446,225 445,225 444,228 444,228 443,230 443,230 445,231 446,232 448,234 449,235 450,236 450,236 450,238 450,238 451,240 452,241 454,242 454,242 453,244 453,245 454,245 455,246 460,248 459,248 459,249 456,254 455,254 442,261 440,262 439,262 435,262 434,262 433,262 432,263 430,264 429,264 428,265 427,265 423,267 422,267 421,269 421,269 420,269 420,270 419,270 418,270 418,270 417,270 417,271 417,271 426,277 427,277 427,278 426,279 426,281 426,281 427,284 427,286 425,298 424,302 422,305 421,306 417,308 417,309 401,313 401,313 401,313 399,311 405,298 405,298 400,296 396,295 395,295 393,294 392,294 392,294 387,295 385,295 383,296 381,296 379,296 377,296 377,296 374,296 373,296 372,296 370,296 367,296 366,296 365,296 365,296 364,297 362,297 360,297 358,296 357,295 356,295 353,294 351,294 345,291 345,284 338,285 300,287 301,284 284,285 276,286 274,292 269,308 264,307 260,307 257,307 255,307 254,307 251,307 250,307 246,306 234,305 231,305 226,306 223,307 222,307 219,307 218,307 217,307 216,308 213,308 210,309 208,309 206,310 206,310 206,309 205,309 205,309 204,309 204,309 203,308 203,309 202,309 201,308 199,310 194,311 191,311 189,310 186,310 185,311 184,311 153,316 145,318 104,326 81,324 72,322 70,321 52,318 49,318 42,319 37,320 34,318 28,318 21,319 14,321 13,318 12,317 11,315 6,307 5,306 1,304 0,303 4,304 5,304 6,303 10,300 12,298 24,292 28,288 33,287 38,285 40,285 48,283 65,274 75,269 88,257 91,254 92,252 106,234 108,232 111,230 113,228 114,223 121,223 127,224 131,222 148,212 147,210 148,209 147,208 148,205 154,191 156,191 156,190 157,189 159,182 159,182" id="807" class="canton" fill="steelblue" stroke-width="1" stroke="white" geotype="canton" geoname="Charleville-Mézières-4" code_insee="807" code_departement="8" nom_departement="Ardennes" code_region="44" nom_region="Grand-Est"/></svg>