<?xml version="1.0" encoding="utf-8"?>
<svg version="1.1" id="svgmap" xmlns="http://www.w3.org/2000/svg" xmlns:xlink="http://www.w3.org/1999/xlink" x="0px" y="0px" width="100%" height="100%" viewBox="0 0 500 491">
<polygon points="0,247 2,243 0,243 4,237 4,236 5,235 8,229 8,229 9,227 11,224 13,219 14,219 14,219 15,215 20,207 21,207 23,203 23,203 23,203 24,203 22,203 23,203 23,202 23,202 23,202 23,200 24,199 24,198 24,198 25,198 25,198 26,198 26,197 27,196 28,196 28,196 29,196 30,196 31,196 32,196 32,196 32,195 32,195 32,194 33,194 33,194 33,194 34,194 34,194 34,194 35,194 35,194 36,194 37,195 38,193 39,192 39,192 39,191 43,192 43,191 43,191 43,191 43,191 44,190 44,190 44,189 45,189 46,191 47,190 47,190 48,189 48,188 51,188 53,189 54,188 55,188 55,187 57,187 58,187 58,187 59,187 59,187 60,187 61,184 61,184 61,184 64,181 63,181 69,175 71,173 71,173 73,171 73,172 74,171 73,171 75,170 75,170 75,171 78,168 77,167 79,165 78,165 80,162 78,161 79,160 77,160 73,160 71,160 69,139 69,138 71,138 72,138 72,137 72,137 73,136 74,136 74,133 74,131 75,131 75,131 75,130 75,130 73,130 73,128 74,128 74,127 74,127 74,126 74,126 74,127 75,127 76,127 77,127 77,127 77,126 76,124 76,123 75,122 73,122 68,121 67,123 66,122 66,122 66,123 65,123 65,123 65,122 65,122 64,122 64,121 64,121 64,120 64,119 64,119 64,119 64,118 64,118 64,118 64,117 63,117 63,116 63,116 63,115 62,115 61,114 62,113 62,113 63,113 63,113 62,112 63,111 64,111 64,111 65,112 65,112 65,113 66,113 67,113 67,113 68,112 69,112 70,111 71,111 71,112 72,112 72,112 72,113 72,113 72,113 73,114 74,114 75,114 76,113 77,112 77,112 78,112 79,112 79,112 79,113 79,113 80,114 80,113 81,113 81,112 81,112 82,112 82,111 83,111 83,111 84,111 84,111 85,110 86,110 86,110 87,110 87,110 87,111 87,111 87,112 87,112 88,113 88,113 90,112 90,113 92,113 92,113 93,112 93,112 94,112 95,113 96,113 97,113 97,113 98,113 99,114 98,115 98,115 98,116 99,116 100,116 100,116 100,116 100,115 101,115 102,115 102,114 102,114 103,114 103,114 104,114 104,114 105,114 106,113 107,113 107,113 107,113 108,113 110,113 110,113 111,113 111,114 112,114 112,114 111,115 111,115 111,115 113,118 114,118 115,118 117,118 118,118 120,119 123,119 124,117 124,115 125,114 125,114 125,112 122,112 120,112 122,108 124,108 125,108 126,108 128,106 130,104 131,103 131,102 132,101 133,100 134,97 132,98 132,97 132,93 133,92 135,85 135,83 137,83 139,83 144,82 144,82 145,82 146,81 146,81 145,81 145,80 145,80 145,79 145,79 145,78 144,77 145,77 145,76 146,76 147,76 147,76 147,77 149,76 152,76 154,77 155,77 160,77 160,78 165,78 165,78 166,78 168,78 169,78 174,79 181,80 184,80 184,80 185,80 190,80 190,79 192,74 192,74 194,69 195,69 195,68 196,66 196,64 197,65 198,62 199,60 199,58 199,58 200,58 200,57 201,56 202,55 203,54 203,53 204,53 207,51 210,48 212,46 214,44 215,43 215,43 217,49 222,50 225,50 228,51 228,51 228,50 228,50 230,49 230,48 231,47 231,46 231,46 229,46 227,47 226,45 226,44 227,43 227,43 227,41 227,40 228,40 228,39 228,38 229,36 230,34 231,30 231,28 232,27 232,25 233,23 234,21 234,21 234,19 235,17 236,15 237,13 238,12 239,12 240,11 242,10 244,9 247,8 248,8 248,8 252,7 254,6 254,6 255,5 256,3 257,1 260,1 260,0 260,0 260,0 264,0 271,0 271,1 275,1 278,1 280,1 280,1 283,2 289,2 289,2 288,3 288,3 293,5 297,6 298,4 298,4 301,5 302,5 302,4 306,4 306,4 307,2 313,3 314,3 314,3 314,3 317,4 318,4 319,4 321,4 324,1 326,2 327,2 329,3 330,3 331,3 333,4 334,4 336,5 337,5 339,6 340,6 341,6 344,7 345,7 347,7 348,7 348,7 348,7 348,8 346,9 345,11 344,12 344,12 343,13 342,14 341,17 340,19 339,21 339,21 338,22 337,23 337,24 336,26 335,27 334,28 334,29 333,30 332,32 331,34 330,34 329,36 328,37 327,39 326,40 326,40 328,40 331,40 336,39 340,39 342,39 343,39 346,40 348,40 351,41 356,41 357,41 360,42 357,46 355,48 355,49 354,50 353,52 352,53 351,53 348,56 346,59 344,60 344,61 341,63 342,64 343,64 343,64 343,64 345,64 350,66 355,68 355,68 356,68 358,69 359,69 361,71 363,72 366,73 368,74 369,74 370,75 371,75 372,76 372,76 371,76 370,77 370,77 368,78 367,80 366,80 364,81 363,82 363,82 363,82 360,86 359,86 357,88 357,88 356,89 356,89 354,92 353,93 353,93 351,96 350,98 349,99 347,101 345,104 345,105 343,108 340,111 341,111 341,111 341,111 342,112 342,112 342,113 342,113 342,114 342,115 342,115 343,116 343,118 343,118 343,119 343,120 340,121 339,122 337,124 336,125 335,126 336,126 335,127 334,128 333,131 333,131 331,136 330,137 330,137 329,138 329,139 328,139 327,141 326,141 326,141 324,142 324,142 324,141 324,141 324,141 323,140 323,140 323,140 323,140 323,140 322,139 322,139 322,139 321,140 321,140 321,140 321,140 320,140 320,140 320,141 319,141 319,141 319,141 319,141 318,141 318,141 318,142 318,142 318,142 318,143 318,143 318,144 318,144 318,144 318,145 318,145 318,146 317,146 317,147 317,147 317,147 317,147 317,147 317,147 317,147 317,147 316,147 316,147 316,146 315,145 314,145 314,145 313,145 313,145 311,144 311,144 309,148 309,148 309,148 309,149 309,149 309,149 308,150 308,150 307,151 306,152 306,152 306,152 307,152 308,152 308,152 308,152 308,152 309,152 309,152 309,152 309,152 309,152 309,152 309,152 308,152 308,152 308,152 308,153 309,153 309,153 309,153 309,153 308,154 308,155 308,155 308,155 308,155 308,155 308,156 308,156 308,156 308,156 308,156 307,158 307,158 307,159 307,159 307,159 309,159 309,159 308,161 308,161 308,174 308,174 306,174 306,174 306,175 306,185 306,185 306,185 307,186 307,187 307,187 308,187 308,188 308,189 309,189 309,190 309,190 310,191 310,191 310,192 311,192 311,192 311,192 311,193 312,193 312,194 313,195 313,195 313,195 313,195 313,196 313,196 314,196 314,196 313,196 313,196 313,196 313,196 313,197 313,197 313,197 313,197 313,197 313,197 312,197 312,197 312,197 312,198 312,197 312,198 312,198 312,198 313,198 314,199 314,199 314,199 314,199 314,199 316,200 317,200 318,201 318,201 319,201 319,201 319,201 319,201 319,201 320,201 321,202 322,202 323,203 324,203 325,204 326,204 326,204 326,205 326,205 326,205 326,205 326,206 326,206 326,206 326,206 326,206 326,206 326,206 326,206 326,207 327,207 327,207 327,207 328,207 328,207 328,207 328,207 329,207 329,207 329,207 330,207 330,208 329,208 330,208 330,208 330,208 330,208 330,208 330,208 330,208 330,208 330,209 330,209 330,209 331,209 331,209 331,209 331,208 331,208 331,208 331,208 331,208 331,208 331,207 331,207 332,207 332,207 332,207 333,208 333,208 333,208 333,208 334,208 335,208 335,208 335,208 336,207 336,207 336,207 336,207 337,207 337,207 337,207 337,208 337,208 338,208 338,208 339,208 340,208 340,208 340,208 340,208 340,209 339,209 339,209 340,209 340,209 340,209 340,210 340,210 340,210 341,210 341,210 341,210 341,210 341,210 342,210 342,210 343,210 343,210 343,210 343,210 343,210 343,210 343,210 343,210 343,210 342,211 342,211 342,211 342,212 342,212 342,212 343,212 343,212 343,212 343,212 340,218 339,218 338,219 338,219 328,227 326,228 324,230 317,235 335,246 330,248 342,256 342,256 343,256 346,259 349,257 350,259 351,260 351,259 353,261 354,262 355,263 355,263 355,263 355,263 356,263 356,263 356,264 356,264 356,264 356,264 356,264 356,264 357,265 357,265 357,265 358,265 358,265 358,265 359,266 359,266 359,266 360,266 360,266 360,266 360,266 361,267 361,267 361,267 360,267 358,269 357,269 356,269 356,270 356,270 355,270 354,271 353,271 351,272 351,273 350,273 357,279 362,283 365,285 366,287 368,288 363,291 363,291 362,291 361,291 362,293 362,293 362,293 345,298 345,298 348,299 347,299 340,301 340,301 340,301 339,301 336,302 336,302 336,302 337,303 337,303 337,303 337,304 338,305 339,305 339,306 339,306 340,306 340,307 340,307 341,309 341,309 341,309 341,309 341,309 341,309 341,310 342,310 342,311 342,311 342,312 343,312 343,312 343,313 344,313 344,313 345,314 345,315 345,315 345,315 347,316 347,316 348,317 348,317 348,317 348,317 348,317 348,318 349,318 349,319 349,319 349,319 350,320 350,320 350,320 350,320 350,320 350,320 350,320 351,321 351,321 351,321 351,321 351,321 351,321 353,323 353,323 353,323 353,323 353,323 354,323 354,324 354,324 354,324 354,324 354,324 355,325 355,325 355,325 355,326 355,326 355,326 356,327 356,327 356,327 357,328 357,328 357,328 357,329 358,329 358,329 358,330 358,330 358,331 358,331 358,331 358,331 358,331 358,331 358,332 358,332 358,332 358,333 359,333 359,334 359,334 359,334 360,335 360,335 361,336 361,336 361,336 361,338 362,338 362,339 363,340 363,340 363,341 364,342 364,343 364,344 364,344 364,344 365,345 365,345 366,346 366,346 366,346 366,347 366,348 367,350 367,350 367,351 367,352 367,352 367,352 367,353 366,358 366,359 366,362 366,363 366,365 366,365 366,365 366,365 366,365 366,365 367,364 369,368 369,368 371,370 371,370 375,375 375,374 376,374 380,371 381,371 382,370 384,369 389,367 389,367 394,373 394,373 394,373 394,373 394,373 395,374 395,374 395,374 395,374 393,375 394,378 395,378 395,379 395,379 396,379 396,379 398,380 399,380 399,381 399,381 399,381 399,381 399,381 399,381 400,382 400,382 401,380 401,380 401,380 402,380 405,378 406,378 408,377 411,375 412,375 413,374 414,374 417,373 419,372 420,371 422,370 426,369 427,368 432,367 435,366 440,364 447,361 450,360 450,360 450,360 452,359 458,378 458,378 456,378 458,386 460,386 460,386 462,388 462,388 464,390 465,391 462,393 461,393 461,394 461,394 460,394 460,394 459,395 459,395 458,395 456,397 456,398 455,398 455,398 454,399 455,400 457,402 458,403 459,404 460,404 461,405 461,405 462,406 463,406 464,408 465,408 464,408 465,408 466,410 467,410 468,410 468,410 474,407 475,407 475,407 476,409 476,409 477,412 488,406 488,406 492,408 492,408 492,408 492,408 493,409 493,409 489,412 489,412 492,415 493,415 493,415 493,415 493,415 493,415 496,419 496,419 496,419 499,423 499,424 500,426 500,426 500,427 500,427 499,427 497,428 497,428 497,429 498,432 498,432 491,433 494,441 494,441 494,442 494,443 494,445 484,446 484,446 483,446 482,447 482,447 482,447 481,447 481,447 481,447 481,448 481,448 481,449 480,450 480,451 480,453 480,453 479,455 479,456 479,456 474,458 474,458 474,458 474,458 474,466 474,467 474,467 474,467 474,468 475,468 476,468 476,470 476,470 475,470 475,470 475,472 475,472 474,473 473,473 472,473 469,474 468,474 468,474 468,475 467,475 467,475 469,478 476,478 476,478 476,478 476,478 476,478 476,478 477,477 477,477 477,477 478,477 478,480 479,480 479,481 480,481 480,481 480,482 480,483 480,486 480,487 480,488 480,488 479,489 473,490 473,490 468,489 468,489 466,490 466,491 464,490 462,490 460,490 460,490 456,489 454,488 454,488 454,488 453,488 453,488 453,488 451,488 451,488 451,488 450,488 449,488 447,488 445,488 445,488 439,487 439,487 435,489 435,489 435,489 435,487 435,487 435,486 435,486 435,486 434,485 435,485 434,483 433,482 433,482 433,481 433,481 433,479 433,478 429,478 427,475 427,475 426,475 426,475 426,475 426,475 425,475 425,475 424,475 423,475 423,475 422,475 422,475 420,474 419,474 418,474 418,474 417,473 417,473 410,473 407,474 407,474 406,473 406,472 405,472 405,472 405,472 405,472 404,472 404,472 404,472 404,472 404,472 403,472 403,472 401,471 401,471 401,471 401,471 401,471 401,471 400,471 400,471 400,470 400,470 400,470 400,470 399,470 399,470 399,470 399,469 399,469 405,470 408,469 407,469 407,469 407,469 408,467 409,467 409,467 409,466 409,466 409,466 409,465 409,465 409,463 409,463 410,463 410,463 410,463 410,463 409,463 409,463 409,463 409,463 409,463 409,462 409,462 409,462 409,462 409,462 409,462 409,462 409,462 409,461 409,461 408,461 408,461 408,460 408,460 407,460 407,460 407,460 407,460 407,459 407,459 408,459 408,459 408,459 408,458 408,458 409,458 409,457 410,456 410,456 410,456 410,455 410,455 410,455 410,455 410,455 410,455 410,455 410,455 411,454 411,454 411,454 409,452 409,452 411,451 411,451 410,451 408,450 408,450 405,448 403,447 403,447 403,447 403,447 403,447 403,447 403,447 403,447 402,446 402,446 400,446 400,446 397,445 395,445 394,445 393,445 392,445 392,445 391,446 391,446 390,446 390,446 389,446 388,446 387,446 386,447 383,448 380,449 380,449 378,450 375,452 375,452 375,452 374,452 374,452 375,453 375,453 375,454 375,454 376,454 376,454 376,454 376,454 376,454 377,454 377,454 377,454 377,454 377,454 377,454 377,454 377,454 377,455 377,455 377,455 376,454 376,455 376,454 375,455 375,455 376,455 376,455 376,455 376,455 376,455 376,455 376,455 376,455 376,455 376,455 376,455 375,455 375,455 374,456 374,456 374,456 374,456 373,456 372,457 372,457 372,457 370,457 368,459 368,459 367,459 367,459 366,460 366,460 366,460 365,460 365,460 365,460 365,460 364,461 364,461 364,461 364,461 363,461 363,461 363,461 363,461 363,461 363,461 363,461 363,461 363,461 362,461 362,461 362,461 362,461 362,461 362,462 362,462 362,462 362,462 362,462 362,462 362,462 362,462 362,462 362,462 363,462 363,462 363,462 363,462 363,463 363,463 363,463 364,463 364,464 364,464 364,465 364,465 363,465 363,465 363,465 362,465 362,465 362,465 362,464 362,464 362,464 361,464 361,464 361,464 361,464 361,464 361,464 361,463 360,463 360,462 360,462 360,462 359,461 359,461 359,461 358,461 358,461 358,461 357,461 357,461 357,460 357,460 357,460 356,459 356,459 355,458 355,458 355,458 353,457 353,457 353,456 352,456 352,455 352,455 352,455 351,454 351,453 350,452 350,452 351,451 352,451 352,450 352,450 352,450 352,449 351,449 351,449 351,448 350,447 350,447 348,447 348,446 349,446 349,445 349,444 350,443 350,443 349,443 346,443 345,444 344,444 344,444 343,445 341,444 339,444 337,444 338,442 337,442 336,442 336,442 336,441 335,441 334,442 332,442 332,441 331,440 330,440 330,440 330,440 330,440 329,440 327,438 326,437 325,437 325,436 325,436 325,436 325,436 325,436 325,436 325,436 325,436 325,436 325,435 324,435 323,434 323,434 323,434 323,434 323,433 325,433 325,432 325,432 324,431 323,431 323,431 323,431 322,430 322,430 321,430 321,430 321,430 321,429 321,429 321,429 321,429 320,429 320,429 320,429 320,429 320,429 320,428 320,428 320,428 320,428 320,428 320,428 320,428 319,428 319,428 319,428 318,428 318,428 318,428 318,428 318,428 318,428 318,428 318,427 317,427 317,427 317,427 317,427 316,427 316,427 316,427 316,427 316,427 316,427 316,427 316,427 315,427 315,427 315,427 315,427 315,426 315,426 315,426 315,426 315,426 315,426 315,426 315,425 315,425 315,425 315,425 314,425 314,425 314,425 314,424 313,424 313,424 313,424 313,424 313,424 313,424 314,424 314,423 313,423 313,423 313,423 313,423 313,423 313,423 313,423 313,422 313,422 313,422 313,422 313,422 313,422 313,422 313,422 313,422 312,422 312,422 312,422 312,422 312,422 311,422 311,422 311,422 311,422 311,422 311,422 311,421 311,421 311,421 311,421 310,421 310,421 310,422 310,422 310,422 309,422 309,421 309,421 309,421 309,421 310,421 310,421 310,421 310,420 310,420 309,420 309,420 309,420 309,420 309,420 309,420 309,420 309,420 308,420 308,420 308,420 307,420 307,420 307,420 307,420 307,420 307,420 307,420 306,420 306,420 306,420 306,420 305,418 305,417 305,417 304,417 304,416 304,415 302,414 303,413 301,412 301,412 301,412 302,412 302,411 300,410 299,410 298,410 297,409 297,409 297,409 296,409 295,409 295,408 294,408 293,408 293,408 293,408 292,408 291,408 291,408 291,407 291,407 289,406 289,406 289,406 288,405 288,405 287,405 287,404 287,404 286,403 286,403 286,403 289,402 287,401 286,400 286,399 286,399 286,399 285,398 285,398 285,397 284,397 284,397 283,397 282,397 281,396 280,395 280,395 280,395 280,395 279,395 274,391 274,391 274,391 273,390 271,389 271,389 271,389 270,390 269,389 267,387 266,386 266,385 265,384 265,384 264,383 262,382 261,381 261,381 260,381 260,381 260,381 260,381 259,381 259,381 258,381 258,381 257,380 257,380 257,380 256,380 256,380 256,380 256,379 256,379 256,379 255,379 255,379 255,379 255,378 255,378 254,378 254,378 254,378 253,377 253,377 252,377 252,376 251,376 251,376 251,376 251,376 251,376 250,376 250,376 250,376 250,376 250,376 250,376 249,376 249,375 249,375 249,375 249,375 249,375 249,375 249,375 249,374 249,374 248,374 248,374 248,373 248,373 248,373 248,373 247,373 247,373 247,372 247,372 247,372 247,371 247,371 247,370 246,370 246,370 246,370 246,369 246,369 246,369 246,369 245,369 245,369 244,369 244,368 243,368 242,367 242,367 238,365 238,365 238,364 238,364 238,364 238,364 238,364 238,363 238,363 238,363 236,361 235,361 232,359 232,359 232,358 232,358 232,358 232,358 231,357 230,357 230,357 230,357 230,357 230,356 230,356 230,356 230,356 229,356 229,356 229,356 229,356 229,356 230,356 230,356 230,356 229,356 229,355 229,355 228,356 228,356 228,356 228,355 228,355 228,355 228,355 227,355 227,355 228,355 228,355 227,354 227,354 227,353 226,353 226,353 226,353 226,353 225,353 225,353 225,353 225,353 225,352 225,352 225,352 225,352 224,352 224,351 224,351 224,351 224,351 224,351 224,351 224,351 224,351 223,351 223,350 223,351 223,351 223,351 223,350 223,350 222,350 222,350 223,349 222,349 221,350 219,350 219,350 219,350 219,350 218,350 218,350 218,350 218,350 218,351 218,351 217,352 217,352 217,352 217,352 217,353 216,353 216,353 216,353 216,353 215,353 215,353 214,352 214,352 214,352 214,352 213,352 213,352 212,352 212,352 211,352 211,352 211,352 211,352 211,352 211,352 211,352 211,352 211,352 211,352 211,352 212,353 212,353 212,353 212,353 212,353 209,354 209,354 209,354 209,354 209,354 209,354 209,354 208,354 207,355 207,355 205,355 205,355 205,355 205,355 205,355 204,355 204,355 204,355 203,355 203,355 202,356 202,356 201,356 201,356 201,356 201,356 201,356 201,357 200,357 200,357 200,357 199,357 199,358 198,358 197,359 197,359 196,359 196,359 195,359 195,360 195,360 195,360 194,360 194,360 194,360 193,360 193,360 193,360 193,360 193,360 193,360 193,360 193,360 192,361 192,361 192,361 192,361 191,361 191,361 191,361 191,361 191,361 191,361 191,361 191,361 191,361 191,361 191,361 191,361 191,361 190,362 190,362 190,362 190,362 190,362 190,362 190,362 190,363 191,364 191,364 190,364 190,364 190,364 190,364 177,370 177,370 177,370 174,371 174,371 174,371 170,372 170,372 170,372 170,372 170,372 170,372 168,373 168,373 167,374 164,375 164,375 164,375 164,375 162,376 162,376 162,376 161,376 161,376 160,376 160,376 160,377 160,377 158,377 158,377 158,377 158,377 156,378 156,378 156,378 156,378 154,379 154,379 153,379 153,379 153,379 151,380 151,380 150,380 150,380 150,379 150,379 149,378 149,378 149,378 149,378 148,377 148,377 148,377 148,377 144,373 144,373 141,374 141,374 141,374 140,373 139,371 137,369 137,368 137,368 137,368 135,370 135,370 135,370 133,367 133,367 133,367 133,367 133,367 132,365 132,362 132,362 132,362 131,362 131,362 131,362 131,362 119,352 119,352 119,352 107,358 107,359 106,359 106,359 106,359 105,359 105,359 105,359 105,359 105,359 105,359 105,359 104,360 104,360 104,360 104,359 100,355 87,362 87,362 87,362 83,358 77,354 77,354 77,354 81,351 81,351 81,351 75,346 65,339 60,341 60,341 60,340 60,340 58,337 57,337 58,337 57,336 56,334 56,334 55,333 54,331 54,331 52,328 51,326 50,325 48,323 50,322 50,322 51,322 51,322 51,321 52,321 53,319 54,319 55,318 56,317 56,317 56,317 57,316 59,315 60,315 60,315 61,314 63,313 63,313 64,313 66,312 67,311 69,310 69,310 69,310 72,309 72,309 72,309 70,309 69,308 68,308 67,308 67,307 66,307 66,307 65,307 64,307 61,305 59,304 59,304 59,304 61,303 64,302 66,301 66,301 65,299 64,298 63,297 61,295 61,295 61,295 63,294 64,293 67,292 67,292 67,291 66,291 64,289 62,287 63,287 63,286 61,283 60,283 61,283 63,282 64,282 63,282 63,281 63,281 62,280 62,280 62,280 62,280 60,279 58,277 58,277 59,277 61,275 60,274 58,273 62,268 59,266 56,264 53,262 53,263 51,263 50,264 50,264 49,265 48,266 46,267 45,268 45,268 45,267 44,267 44,266 43,266 42,265 42,265 42,265 40,264 40,264 38,262 37,261 36,261 36,261 35,260 33,258 30,257 29,255 28,255 25,257 24,258 24,258 24,258 23,258 21,260 21,260 20,261 19,261 19,262 18,262 18,263 18,263 17,263 4,257 4,257 3,257 3,256 5,251 5,249 5,247 4,247 3,247 2,247 1,247 0,247" id="1006" class="canton" fill="steelblue" stroke-width="1" stroke="white" geotype="canton" geoname="Creney-près-Troyes" code_insee="1006" code_departement="10" nom_departement="Aube" code_region="44" nom_region="Grand-Est"/></svg>