<?xml version="1.0" encoding="utf-8"?>
<svg version="1.1" id="svgmap" xmlns="http://www.w3.org/2000/svg" xmlns:xlink="http://www.w3.org/1999/xlink" x="0px" y="0px" width="100%" height="100%" viewBox="0 0 500 422">
<polygon points="0,180 0,180 0,180 1,179 1,179 1,179 1,179 1,179 1,178 1,178 1,177 1,177 1,177 1,177 1,176 1,176 1,176 1,176 1,175 1,175 1,174 1,174 1,174 1,174 1,173 1,173 2,173 2,173 1,173 1,171 1,171 1,171 2,170 2,170 2,170 2,170 2,170 2,169 3,169 3,169 3,169 4,168 4,168 4,168 4,168 4,168 4,168 4,168 4,168 4,168 5,168 5,167 5,167 6,167 6,167 6,167 6,167 6,167 6,167 7,167 7,167 7,167 8,167 8,168 8,168 9,168 9,168 9,168 9,168 9,168 9,168 9,168 9,168 9,168 9,169 10,169 10,169 10,169 10,169 11,169 11,169 11,169 12,169 12,170 12,170 13,170 13,170 13,170 13,171 13,171 13,171 14,171 14,172 14,172 14,172 14,172 14,172 14,172 14,172 14,171 14,171 14,171 14,171 14,171 15,171 15,171 15,171 15,171 15,172 15,172 15,172 15,172 15,172 15,172 15,172 15,172 14,172 14,172 14,172 14,173 14,173 14,173 15,173 15,173 15,173 15,173 15,173 15,173 15,173 16,173 16,173 16,173 16,173 16,173 16,173 16,173 16,173 16,172 17,171 17,171 17,171 17,171 18,170 18,170 18,170 18,170 18,170 18,170 19,170 19,170 19,170 19,170 19,170 19,170 20,170 20,170 21,170 21,170 22,170 22,170 22,170 22,169 22,169 22,169 22,169 22,169 22,169 22,169 22,169 23,169 23,168 23,168 23,168 23,168 23,168 24,168 24,168 24,168 24,168 24,167 24,167 24,167 25,167 25,166 25,166 25,166 25,165 25,165 25,165 25,164 25,164 25,164 26,164 26,164 26,164 26,164 26,164 26,163 26,163 26,163 26,162 27,162 27,161 27,161 27,161 27,161 28,161 28,161 28,161 28,161 28,161 29,161 29,161 30,161 30,161 30,161 30,161 30,161 31,161 31,161 31,161 31,161 32,161 32,160 32,160 32,160 33,160 33,160 33,160 33,160 33,160 33,160 33,160 33,160 33,160 32,160 32,159 32,159 32,159 32,159 32,159 32,159 32,159 32,158 32,158 31,158 31,158 31,157 31,157 31,157 31,157 31,157 31,157 31,157 32,157 32,157 32,157 32,157 32,156 32,156 32,156 32,156 31,156 31,156 31,156 31,156 31,156 31,156 30,156 30,156 30,156 30,156 30,155 30,155 30,155 30,155 30,155 30,154 30,154 30,154 30,154 30,154 30,154 30,154 30,154 30,154 30,153 29,153 29,153 29,153 29,153 28,153 28,153 28,153 28,153 28,153 28,153 28,152 28,152 28,152 28,152 29,152 29,151 29,151 29,151 29,151 29,150 29,150 29,150 29,150 29,150 30,150 30,149 30,149 30,149 29,149 29,149 29,149 29,149 29,149 29,149 28,149 28,149 28,149 28,149 28,148 28,148 28,148 28,147 28,147 28,147 28,147 28,147 28,146 28,146 28,146 28,146 28,145 28,145 28,145 28,144 28,144 28,144 28,143 28,143 28,143 28,143 29,142 29,142 29,142 29,142 29,142 29,142 29,141 30,141 30,141 30,141 30,141 31,141 31,141 31,141 31,141 31,140 31,140 31,140 31,140 32,140 32,140 32,140 32,140 32,140 32,139 33,139 33,139 33,139 33,139 33,139 33,138 33,138 33,138 33,138 34,137 34,137 34,137 34,137 34,137 34,137 35,137 35,137 35,137 35,136 35,136 35,136 35,136 35,136 35,135 35,135 35,135 35,135 35,135 35,135 35,134 35,134 36,134 36,134 36,134 36,134 36,134 36,134 36,133 37,133 37,133 37,133 37,133 37,133 37,133 37,132 37,132 37,132 37,132 37,132 38,132 38,132 38,131 38,131 38,131 38,131 38,131 38,131 38,131 38,130 38,130 39,130 39,130 39,130 38,129 38,129 39,129 39,129 39,129 39,129 39,128 40,128 40,128 40,128 40,127 40,127 40,127 40,127 40,126 40,126 40,126 40,126 40,125 40,125 40,125 41,125 41,125 41,124 41,124 41,124 41,124 41,124 41,124 42,123 42,123 42,123 42,123 43,123 43,123 43,123 43,123 43,123 43,123 43,122 42,122 42,122 42,122 42,122 42,122 43,122 43,122 43,122 43,122 43,122 43,121 43,121 43,121 43,121 43,121 43,121 43,121 43,120 43,120 43,120 43,120 43,119 43,119 43,119 43,119 43,119 43,118 43,118 43,118 43,118 44,118 44,118 44,118 44,118 44,117 45,117 45,117 45,116 45,116 45,116 44,116 44,115 44,115 44,115 45,114 45,114 45,114 45,114 45,114 46,113 46,113 46,113 46,113 46,113 46,113 47,113 47,113 47,113 47,113 48,113 48,113 48,113 48,113 48,113 48,113 48,113 49,113 49,113 49,113 50,112 50,112 50,112 51,112 51,112 51,112 51,112 51,112 52,111 52,111 52,111 52,111 52,111 53,110 53,110 53,110 53,110 53,110 53,110 53,110 54,110 54,110 54,110 54,110 54,110 55,110 55,110 55,110 55,110 56,110 56,110 56,110 56,110 56,110 57,110 57,110 57,110 57,110 57,109 58,109 58,109 58,109 58,109 58,109 58,109 58,109 58,108 58,108 58,108 58,107 59,107 59,107 60,106 60,106 60,106 60,106 62,107 63,108 63,108 64,109 64,109 64,109 65,110 65,110 65,110 65,109 66,109 66,108 67,108 67,107 68,105 68,105 68,105 68,105 68,105 69,105 69,105 69,105 69,104 69,104 69,104 69,104 69,104 70,104 69,103 69,103 69,103 70,103 70,103 70,102 70,102 70,102 70,102 70,102 70,102 70,102 71,102 71,102 71,102 72,101 72,101 71,101 72,101 71,101 72,100 73,100 73,100 74,100 75,100 75,99 74,99 74,99 73,99 73,98 73,98 73,98 73,97 73,97 72,97 71,95 71,95 70,94 73,94 76,93 77,93 78,93 79,93 79,92 81,91 81,91 82,90 82,90 82,89 83,89 83,89 84,89 84,88 84,88 85,88 85,88 86,87 87,87 87,86 88,86 88,86 88,86 89,86 89,85 89,85 89,85 90,85 90,84 92,84 93,84 93,84 94,84 95,84 95,83 96,83 96,83 96,83 96,83 97,83 97,83 97,83 99,83 100,83 101,84 101,84 102,84 102,83 103,83 102,82 102,82 102,81 102,81 102,81 102,81 104,81 104,81 104,81 104,80 105,80 106,80 106,80 107,79 109,78 109,78 110,78 113,77 113,77 114,77 114,76 114,76 114,75 114,75 114,74 114,74 116,72 119,71 121,71 122,70 124,70 124,70 125,70 126,72 127,72 127,72 128,72 130,71 130,71 130,70 130,70 130,70 129,70 128,70 127,69 127,68 126,65 127,64 129,63 130,62 131,62 131,62 131,62 131,61 130,61 126,61 126,61 125,61 126,59 127,58 127,58 128,57 130,57 130,57 130,57 130,56 129,56 128,56 126,57 125,58 124,58 122,59 122,59 122,60 122,60 122,60 122,61 122,61 122,61 122,61 122,62 122,63 122,63 122,63 122,63 121,63 122,64 121,64 121,64 121,64 121,64 120,63 120,63 120,64 120,64 120,64 120,65 119,64 119,64 118,65 118,65 118,65 116,65 116,65 115,65 114,65 114,65 114,65 113,65 112,65 112,65 112,65 111,65 111,65 110,65 110,65 109,65 108,65 108,65 107,65 107,64 107,64 107,64 108,63 108,63 108,63 108,62 108,62 108,62 109,60 111,60 111,61 112,60 112,60 113,60 113,60 114,61 114,61 115,61 116,60 115,59 114,58 115,58 115,58 116,58 116,58 116,58 116,58 116,57 116,57 116,57 116,56 116,56 117,56 118,56 118,56 119,56 119,56 120,56 121,57 122,57 123,57 123,57 124,57 128,56 127,56 127,56 127,55 127,55 128,55 129,55 129,54 129,54 129,54 129,53 129,53 129,53 129,53 128,53 128,53 128,53 128,53 128,52 128,52 128,52 128,51 128,51 129,51 129,51 129,51 129,51 129,51 130,50 130,50 130,50 131,49 131,49 132,49 133,49 133,48 133,48 133,48 134,47 135,47 136,47 136,47 137,47 138,47 138,47 138,47 138,47 138,46 139,45 140,44 140,44 140,44 140,43 140,43 140,43 140,43 141,42 142,42 142,41 143,41 143,41 144,41 144,41 144,40 144,39 144,39 143,38 144,38 144,37 145,37 146,36 147,37 148,36 149,36 149,35 149,35 149,35 149,35 149,34 150,34 150,34 151,34 151,34 152,34 152,34 153,34 154,34 155,33 155,33 157,32 157,32 157,32 158,31 158,31 158,31 158,30 158,30 158,30 158,30 158,30 159,30 159,30 159,30 159,29 159,29 160,29 160,28 159,28 159,28 159,28 160,28 160,28 161,28 162,28 163,27 163,27 164,27 166,27 166,27 167,26 167,26 168,26 169,25 169,25 169,24 170,24 172,25 172,25 172,25 172,26 172,26 174,27 175,28 176,28 176,28 177,28 177,28 178,29 179,29 180,30 180,30 182,31 182,31 183,31 183,31 184,31 185,30 186,29 187,29 187,28 188,27 188,27 188,26 188,25 189,25 190,25 190,24 190,23 189,23 189,22 189,22 189,21 189,20 189,19 189,19 189,19 190,19 190,18 190,18 189,18 189,17 189,17 189,17 189,17 189,16 189,15 188,15 188,15 188,15 188,14 189,14 190,14 190,14 191,14 191,14 192,13 193,13 193,13 194,13 195,13 195,14 196,13 196,13 197,13 197,13 197,12 197,12 197,12 195,11 195,11 195,11 194,10 194,11 194,10 194,10 194,9 194,9 195,9 195,8 195,8 196,7 196,7 196,6 196,6 196,6 197,5 197,5 197,5 197,4 198,4 198,4 199,3 199,3 200,2 201,2 201,2 201,2 203,2 203,2 203,2 204,2 204,2 205,2 205,2 205,2 205,2 206,2 206,2 207,2 207,2 207,1 207,1 208,1 209,1 209,1 209,0 209,0 209,0 210,0 210,0 211,1 212,1 213,1 213,1 214,1 215,1 215,1 216,1 216,1 216,1 216,1 216,1 216,1 217,1 217,1 217,1 217,1 218,2 218,2 218,2 218,2 218,2 219,1 219,1 219,1 219,1 219,1 219,1 219,1 220,1 220,1 220,0 220,0 220,0 220,0 220,0 221,0 221,0 221,0 222,0 222,1 222,1 222,1 222,1 223,1 223,1 224,1 224,1 224,1 224,2 224,2 224,2 224,2 223,3 223,3 223,4 222,4 222,4 222,5 222,5 222,5 222,5 222,5 223,5 224,5 224,5 223,6 223,6 224,6 224,6 224,7 224,7 224,7 224,7 224,7 224,7 225,7 225,7 225,7 226,7 227,8 227,8 227,8 228,8 228,8 228,8 228,8 228,9 228,9 228,9 228,9 229,9 229,9 229,10 229,10 229,10 229,10 230,11 230,11 230,11 231,12 231,12 232,13 232,13 232,13 232,13 232,13 232,13 232,13 232,13 232,13 232,14 232,14 232,14 232,15 232,15 233,16 233,16 233,16 233,17 233,17 233,17 234,17 234,17 234,18 234,18 234,18 235,18 235,18 235,18 235,18 235,19 235,19 235,19 235,19 235,19 235,20 235,20 235,20 236,20 236,20 236,21 235,21 235,21 235,21 235,21 236,21 236,21 236,21 236,21 236,22 236,22 236,22 236,22 236,22 236,22 236,23 236,23 236,23 236,23 235,23 235,23 235,23 234,23 234,24 234,24 234,24 234,24 234,24 233,25 233,25 233,25 233,25 233,26 233,26 233,26 232,26 232,27 232,27 232,27 231,27 231,27 230,28 230,28 230,28 229,29 229,29 229,29 229,29 229,29 229,29 229,30 228,30 228,30 229,30 228,31 229,31 229,31 229,31 228,31 228,31 228,32 228,32 228,32 228,32 228,33 228,33 228,33 228,33 229,34 229,34 229,34 229,34 230,34 230,35 230,35 230,35 230,36 230,36 230,36 230,36 231,37 231,37 231,37 231,37 231,38 231,38 231,38 231,38 232,39 232,39 232,39 232,39 232,39 232,39 233,40 233,40 233,40 233,40 233,41 233,41 233,41 233,42 233,42 232,42 232,42 232,42 232,43 232,43 232,43 232,43 232,43 232,43 232,43 231,44 231,44 230,45 230,45 230,45 229,45 229,45 229,45 228,45 228,46 228,46 228,46 228,46 228,46 227,46 227,46 227,46 227,46 226,47 226,47 226,47 225,47 225,47 225,47 224,47 224,47 224,47 223,47 223,47 223,47 222,47 222,47 222,48 222,48 222,48 222,48 222,49 222,49 221,49 221,49 221,49 221,49 221,49 221,50 221,50 221,50 221,50 221,50 221,50 222,51 222,51 222,51 222,51 223,52 223,52 223,52 223,53 223,53 223,53 223,53 223,53 223,54 224,54 224,54 224,54 224,54 224,55 224,55 224,55 224,55 224,56 224,55 223,55 223,55 223,55 222,55 222,55 222,55 222,55 222,55 222,55 222,56 221,56 221,56 220,55 220,55 219,54 219,54 218,54 218,54 217,54 217,54 216,54 216,54 216,55 216,55 215,55 215,55 215,56 214,56 214,57 214,58 213,60 213,61 213,61 212,61 212,62 212,62 212,62 211,62 210,62 209,62 208,62 208,62 208,62 208,61 207,61 206,61 205,60 205,59 204,59 204,59 203,59 203,58 202,58 202,58 201,58 200,58 199,59 199,59 198,59 198,59 197,60 196,61 196,61 196,62 195,62 195,63 195,63 196,64 196,64 196,64 197,65 197,66 198,67 198,67 198,68 198,68 198,69 198,70 198,70 198,72 198,72 198,74 198,74 198,75 198,75 198,75 198,76 198,76 200,78 200,78 200,78 200,78 200,79 200,80 200,80 200,80 199,80 199,81 198,81 198,81 197,81 196,81 195,81 194,81 194,81 193,82 193,82 192,82 192,82 192,83 192,83 192,83 192,83 192,84 192,84 192,84 192,84 192,85 193,85 194,85 194,86 195,86 195,87 195,87 195,87 195,88 195,88 195,89 195,89 194,89 194,90 193,90 191,90 190,91 189,91 188,92 187,93 186,93 185,94 184,94 184,95 183,96 183,96 183,97 183,97 183,98 182,98 182,98 182,100 181,100 181,101 181,101 180,102 180,102 179,102 179,102 179,102 178,102 177,102 177,102 176,101 176,101 174,100 173,100 173,99 172,99 172,99 171,99 171,99 170,99 170,99 169,99 169,99 168,99 168,99 168,99 168,99 168,99 167,100 167,100 167,101 167,101 167,101 167,102 167,102 167,103 167,103 165,105 165,106 165,106 164,107 164,107 163,107 163,107 162,107 161,107 160,107 159,107 156,108 155,108 153,108 152,109 150,109 149,109 148,109 148,109 147,109 147,110 146,110 146,110 146,111 145,111 145,112 144,113 144,114 144,115 143,116 143,117 143,117 143,118 144,120 144,121 145,122 145,123 146,124 147,126 147,127 147,127 148,129 148,130 149,131 149,131 149,132 150,132 150,132 150,133 150,133 150,134 151,134 150,135 150,135 150,136 150,136 150,136 149,136 149,136 149,136 149,137 148,137 148,138 148,138 148,140 148,140 148,141 148,142 148,143 148,143 148,144 149,144 149,144 149,145 150,145 150,145 150,145 151,145 151,145 152,145 152,145 152,145 153,145 154,146 155,147 156,147 156,148 157,148 157,148 157,148 158,150 158,151 159,151 159,152 160,153 160,153 160,153 160,154 160,154 160,154 161,154 162,155 163,155 163,155 164,155 164,155 164,155 164,155 165,155 165,155 166,155 166,155 166,155 166,155 166,155 167,155 167,155 168,156 168,156 168,156 168,156 169,155 169,155 169,155 169,155 169,155 169,155 169,155 170,154 170,154 170,154 170,154 170,154 170,153 170,153 170,153 171,153 171,154 171,153 171,153 171,153 170,152 170,152 171,152 171,152 171,152 172,152 172,152 173,153 173,153 174,153 174,153 174,153 174,153 174,153 174,153 174,153 174,152 174,152 174,152 174,152 174,152 173,152 174,151 174,151 175,151 175,151 176,151 176,151 177,151 177,151 178,151 178,151 178,152 178,152 178,152 179,152 179,152 179,152 180,152 180,153 182,153 182,153 182,153 182,154 182,154 183,154 183,154 184,154 185,153 185,153 185,153 185,153 186,153 186,153 186,153 187,153 188,153 188,153 189,152 189,152 189,152 190,152 190,152 190,152 190,152 191,153 191,152 192,152 192,152 192,152 192,152 192,150 192,150 193,149 193,149 193,149 194,149 194,149 194,149 195,150 195,150 196,150 197,150 197,150 197,150 199,151 201,150 201,150 203,150 203,150 204,150 204,150 204,149 202,148 202,147 202,147 201,146 201,146 201,144 201,144 200,144 200,144 200,144 200,144 200,144 200,144 199,143 199,143 199,143 198,143 198,143 198,143 195,143 194,143 194,143 193,143 193,143 193,143 192,143 192,143 191,144 191,143 191,143 190,143 190,143 189,143 188,143 187,142 187,143 187,143 187,143 186,143 186,143 186,143 186,142 186,142 186,141 186,141 186,141 187,141 188,140 188,140 189,140 189,140 189,140 189,141 189,141 189,141 189,141 189,141 191,141 191,141 191,141 191,140 192,140 192,140 192,139 191,139 191,139 191,139 191,139 192,139 193,138 193,138 194,137 195,137 195,137 195,136 195,136 195,136 195,136 195,136 195,135 194,135 194,135 194,134 193,134 193,134 193,133 192,133 192,133 191,133 191,133 191,132 191,132 191,132 191,132 191,131 191,131 191,131 191,130 191,130 191,130 191,129 191,129 191,128 190,127 190,127 190,127 190,126 189,126 189,126 189,126 188,126 188,126 188,126 187,126 187,125 187,125 187,125 187,124 188,123 188,123 189,123 189,122 189,122 190,122 190,122 190,122 190,122 191,122 191,122 192,122 192,122 193,122 193,123 194,123 194,123 194,123 195,123 195,123 195,124 196,124 196,125 196,125 197,126 197,126 197,126 197,125 197,125 198,125 198,124 198,124 199,123 199,123 199,123 199,123 199,123 200,123 201,123 201,123 201,124 201,124 201,124 202,125 202,125 203,126 203,127 204,127 205,127 205,128 206,129 207,129 207,129 207,129 207,129 208,129 209,129 210,129 210,129 210,130 210,130 211,130 211,130 212,130 212,131 212,131 213,131 213,132 213,132 213,132 213,133 213,133 213,133 213,133 213,133 213,133 214,133 215,133 215,133 216,134 216,134 217,134 217,134 217,134 217,135 217,135 217,136 217,136 218,137 219,137 219,137 219,137 218,138 218,138 218,138 217,138 217,138 217,139 216,139 216,139 216,140 216,140 216,140 216,140 216,141 216,141 216,141 216,142 216,142 216,142 216,142 215,142 215,143 215,143 215,143 215,143 214,143 214,143 211,147 209,148 209,148 210,149 210,149 210,149 209,150 209,151 208,153 208,154 208,154 208,154 208,155 206,155 205,155 205,155 204,155 204,155 204,156 204,156 204,156 204,156 204,157 204,157 203,157 203,158 203,158 203,158 203,158 203,158 202,159 202,159 202,159 202,159 202,159 201,159 201,159 200,160 200,160 200,160 201,160 201,160 202,160 202,161 202,161 202,161 203,161 203,161 203,161 204,161 204,161 204,161 204,161 204,161 205,160 205,160 205,160 205,160 206,160 206,160 207,160 207,160 207,160 208,160 208,160 208,160 208,160 209,161 209,161 211,162 211,162 212,162 212,161 212,162 212,162 212,162 212,162 213,162 213,162 213,163 213,163 214,163 214,163 214,163 214,163 213,164 213,164 213,164 213,165 213,165 214,165 215,165 215,165 216,165 217,165 218,165 218,165 219,165 221,165 222,164 223,164 223,164 223,164 223,164 223,164 224,165 225,165 225,165 226,165 227,166 227,167 228,168 228,168 230,168 231,168 231,168 231,168 231,168 232,168 232,168 234,168 235,167 235,168 237,169 238,169 238,169 238,170 237,170 237,170 237,170 237,170 237,170 237,170 237,171 237,172 236,174 236,174 234,176 234,176 234,176 233,177 234,177 234,177 234,177 235,177 235,177 235,177 234,179 234,179 234,179 235,180 235,180 235,181 234,184 234,184 234,184 234,184 233,183 230,183 229,182 229,182 230,182 230,181 230,181 230,181 229,181 229,181 228,181 227,180 227,180 226,180 226,181 226,181 226,182 226,182 226,182 225,183 224,183 224,183 223,182 223,182 223,182 222,182 221,181 220,181 220,181 219,181 219,181 219,180 219,180 219,180 218,180 218,180 218,180 217,180 217,181 216,181 216,181 215,181 215,181 214,181 214,181 214,182 214,182 214,181 214,181 214,180 214,180 214,180 213,180 213,180 212,180 212,180 212,180 211,180 211,180 211,180 211,180 210,180 209,180 209,180 209,180 209,180 209,180 208,180 208,180 208,180 208,181 207,181 207,181 207,182 207,182 207,182 206,181 205,181 205,181 202,181 200,181 199,181 199,181 198,181 198,181 197,182 197,182 197,182 196,182 196,182 196,182 196,183 196,183 196,183 195,183 195,183 195,183 195,183 194,182 194,182 194,182 193,182 193,182 193,182 192,182 192,182 192,182 191,183 191,183 192,183 192,183 192,183 192,183 192,183 192,183 192,183 192,184 193,184 193,184 193,184 193,185 192,185 192,185 192,185 192,185 191,186 191,186 191,186 189,184 189,185 189,185 189,185 189,186 189,186 189,186 189,187 190,188 190,188 190,188 191,189 191,190 192,191 192,191 192,191 191,192 191,192 191,193 191,193 191,193 190,193 189,194 189,194 189,194 189,194 189,194 188,194 188,194 188,194 187,194 187,194 187,195 187,195 187,196 187,196 184,196 184,196 184,196 184,196 184,196 184,196 184,196 183,196 183,196 183,196 183,196 183,196 183,196 183,196 183,196 183,197 183,197 183,196 183,196 182,196 182,196 182,196 182,196 181,196 181,196 181,196 181,197 180,197 180,197 180,197 179,198 180,200 180,200 179,200 179,201 179,201 178,201 178,201 178,201 177,201 177,201 177,201 177,201 177,201 177,200 177,200 176,200 176,199 176,199 176,199 176,199 177,198 177,197 178,197 176,195 175,194 175,194 174,195 174,195 174,195 175,195 175,196 175,196 175,196 173,196 173,196 173,196 172,196 172,196 172,197 172,197 171,197 171,197 170,197 168,197 168,196 168,196 167,196 167,196 167,196 167,196 167,197 166,197 165,197 165,197 165,197 165,197 166,198 165,198 164,198 164,198 164,198 164,197 163,197 163,197 163,197 163,197 162,197 162,197 161,196 161,196 162,196 161,196 161,196 161,196 160,196 160,194 159,194 159,194 159,194 159,194 159,194 158,195 158,195 158,195 158,195 158,195 157,195 157,195 156,195 156,195 156,195 156,195 155,195 155,195 155,195 155,195 155,195 154,195 154,195 154,195 153,195 153,195 153,195 152,196 152,196 152,196 150,197 150,197 150,197 150,198 150,198 150,198 150,199 150,199 150,199 151,200 151,200 152,201 152,201 152,201 153,201 154,202 154,202 155,203 155,203 157,204 157,205 159,207 159,207 159,208 160,208 160,210 160,211 160,211 160,212 160,212 159,213 159,213 159,213 159,214 159,214 160,214 160,214 160,214 161,214 162,214 167,215 168,215 168,215 168,215 169,214 170,214 170,214 171,214 172,214 172,214 173,214 173,215 173,215 174,215 174,215 175,216 175,217 175,217 175,218 175,219 176,219 176,219 176,220 176,220 177,221 177,221 178,222 178,222 179,223 179,223 180,224 181,224 182,225 182,225 182,226 182,226 183,226 183,227 183,227 183,228 184,228 185,229 185,229 187,230 187,230 188,230 188,230 188,231 188,231 188,231 189,231 189,232 189,232 190,232 190,232 191,232 192,232 193,232 194,232 194,232 194,232 195,233 197,233 198,234 199,234 200,234 200,234 201,234 202,234 202,234 202,234 202,234 203,234 203,234 204,234 204,234 204,234 204,234 205,233 205,233 205,233 205,232 206,232 206,232 206,231 206,231 206,231 206,230 206,230 206,230 206,229 206,229 206,228 206,228 206,228 206,228 206,227 207,227 207,227 207,227 207,227 207,226 207,226 207,226 207,225 207,225 207,225 208,225 208,225 208,225 208,225 209,225 209,225 209,225 210,225 210,225 211,225 212,225 212,225 212,224 212,224 213,224 213,223 213,223 213,223 213,223 213,223 213,222 214,222 214,221 214,221 215,221 215,221 216,220 216,220 216,220 216,220 216,219 216,219 216,219 216,219 216,219 216,219 217,219 217,219 217,219 218,219 218,219 218,219 219,218 219,218 219,218 219,218 219,218 220,218 220,218 220,218 221,218 221,218 221,218 221,218 221,218 222,218 222,218 222,218 222,218 223,218 223,218 223,218 223,218 224,218 224,218 225,218 226,218 226,218 226,218 227,218 227,218 227,218 228,218 228,218 229,218 229,218 229,218 229,218 230,218 230,218 231,217 231,217 231,217 232,217 232,217 233,217 233,217 233,218 233,218 234,218 234,218 234,218 234,218 234,218 235,218 235,218 235,218 235,218 236,218 236,218 236,218 237,218 238,218 239,218 239,218 239,218 239,217 240,217 240,217 240,217 240,217 241,217 241,218 241,218 241,218 242,218 242,218 243,217 243,217 244,217 244,217 244,216 244,216 245,216 245,216 245,215 245,215 245,214 245,214 245,214 246,213 246,213 246,213 246,212 246,211 246,211 246,211 246,211 246,210 247,210 247,210 247,210 248,210 248,210 248,210 248,210 248,210 248,211 248,211 248,211 248,211 248,211 248,211 249,211 249,211 249,210 249,210 250,210 250,210 250,210 250,209 250,209 251,209 251,209 251,209 252,209 252,209 252,209 252,209 252,209 252,208 253,208 253,208 253,208 254,209 254,209 254,208 254,208 254,208 254,208 254,208 255,207 255,207 255,207 255,206 255,206 256,206 256,206 255,205 255,205 255,205 256,204 256,204 256,204 256,204 256,204 257,204 257,204 257,204 257,204 257,204 258,204 258,204 258,204 258,204 258,203 258,203 259,204 260,204 260,204 260,204 261,204 261,205 261,205 262,205 262,205 262,205 263,205 264,206 264,206 265,206 265,206 265,206 265,207 265,207 265,207 265,207 266,206 266,206 267,206 267,206 267,206 267,206 268,206 268,206 268,206 268,206 268,206 269,206 269,206 269,206 269,206 269,206 270,206 270,205 270,205 270,205 271,205 271,205 272,206 272,206 272,206 272,206 272,205 272,205 273,205 273,204 273,204 273,204 273,203 273,203 273,203 273,203 273,203 273,203 273,203 274,202 274,202 274,202 274,202 274,202 274,202 274,201 274,201 274,201 274,201 274,201 275,201 275,201 276,201 277,201 277,201 278,201 278,201 278,201 278,201 278,201 279,200 279,200 279,200 279,200 279,200 279,200 280,199 280,199 280,199 281,199 281,200 282,200 282,199 282,199 282,199 282,199 282,199 282,199 282,199 282,199 282,198 282,198 282,198 282,198 282,198 282,198 282,198 283,198 283,197 283,197 283,197 283,197 284,197 284,197 284,197 285,197 285,197 285,197 286,197 286,197 287,197 287,196 287,197 288,197 288,197 288,197 288,197 289,197 289,197 289,197 289,197 289,197 289,197 289,197 289,197 289,197 289,197 289,198 290,198 290,198 290,198 291,198 291,198 291,198 291,198 291,199 291,199 291,199 292,199 292,199 292,200 292,200 292,200 292,200 292,200 293,200 293,200 293,200 293,200 294,200 294,200 294,200 295,200 295,200 295,200 296,200 296,200 296,200 296,200 296,200 296,200 296,200 296,200 297,200 297,199 297,199 297,199 298,199 298,199 298,199 298,199 299,199 299,199 299,199 299,199 300,199 300,199 300,199 301,199 301,199 302,199 302,199 302,199 302,199 302,199 302,199 303,199 303,199 303,199 303,199 304,199 304,199 304,199 304,199 304,199 304,199 304,199 305,199 305,199 305,199 305,199 306,199 306,199 307,199 307,199 307,200 307,200 308,200 308,200 308,200 308,200 308,199 308,199 309,200 309,199 309,199 309,199 309,199 309,199 309,199 310,199 310,199 310,199 310,199 310,199 310,198 310,198 311,198 311,198 311,198 311,197 311,197 311,197 312,197 312,197 312,197 312,197 312,197 313,197 313,197 313,197 314,197 314,196 314,196 314,196 314,196 314,196 314,196 315,196 315,196 315,196 315,196 316,196 316,196 316,195 316,195 316,195 317,195 317,195 317,195 317,195 317,195 318,195 318,196 318,196 319,196 319,196 319,196 319,196 319,196 320,196 320,196 320,196 320,196 320,196 320,196 320,196 321,197 321,197 321,197 321,197 321,197 322,197 322,197 322,198 322,198 322,198 322,198 322,198 323,198 323,198 323,198 324,198 324,198 324,198 324,198 324,198 325,198 325,198 325,198 325,198 325,199 325,199 325,199 326,199 326,199 326,199 326,199 326,199 327,198 327,198 327,198 327,198 328,198 328,198 328,198 328,198 329,199 329,199 329,199 329,199 329,199 330,199 330,199 330,200 330,200 330,200 330,200 331,201 332,201 332,201 332,201 332,201 332,201 333,201 333,202 333,202 333,202 334,202 334,202 334,203 334,203 334,203 334,203 334,203 334,203 334,203 334,203 334,203 334,204 335,204 335,204 335,204 335,204 335,204 336,204 336,205 336,205 336,205 336,205 336,205 336,205 336,206 336,206 336,206 336,206 336,206 336,207 336,207 336,207 336,207 336,207 337,207 337,207 337,207 337,207 337,208 338,208 337,208 337,208 338,208 338,208 338,208 338,208 339,208 339,209 339,209 339,209 339,209 339,209 340,209 340,209 340,209 340,209 340,209 341,208 341,208 341,208 341,208 342,208 342,208 342,208 343,207 343,207 344,207 344,207 344,207 344,207 344,207 345,207 345,207 346,206 348,204 348,204 348,204 349,204 350,204 351,203 351,203 353,203 354,203 354,203 355,203 356,202 357,202 357,202 357,202 357,202 358,202 359,202 359,202 360,202 360,203 362,203 362,203 360,205 360,205 361,206 361,206 362,206 362,206 362,206 363,206 363,207 365,206 365,206 366,205 366,205 367,205 368,204 368,205 368,206 368,206 369,206 369,206 369,206 369,206 370,206 370,207 370,207 370,207 370,207 370,207 370,207 370,208 371,208 371,208 371,208 371,208 371,208 372,208 372,208 372,208 372,208 372,208 373,209 373,208 373,209 374,209 374,209 374,209 374,209 375,209 375,209 375,209 375,209 376,209 376,209 376,209 376,209 377,210 377,210 377,210 377,210 378,210 378,210 378,210 378,210 378,211 379,211 379,211 379,211 379,211 379,211 379,211 379,211 380,212 380,212 380,211 380,211 380,211 380,212 381,212 381,212 381,212 381,212 381,212 381,213 381,213 382,213 382,213 382,213 382,213 382,214 383,214 383,214 383,214 383,214 383,214 383,214 383,215 383,214 384,214 384,214 384,213 384,213 385,213 385,213 385,213 385,212 385,212 385,212 386,212 386,211 387,211 386,211 386,211 386,211 388,210 388,210 388,211 389,211 389,211 390,212 390,212 390,212 390,212 390,212 391,211 391,211 392,211 392,211 392,211 393,211 393,210 393,210 393,210 394,210 394,209 395,209 395,209 395,209 397,208 397,208 396,208 396,207 396,207 396,206 396,206 396,206 395,206 395,206 395,206 395,206 395,205 394,205 394,205 393,205 393,205 393,204 393,204 393,204 393,204 393,204 393,204 393,204 394,204 394,204 395,203 395,203 395,203 396,203 396,203 397,203 397,203 397,203 397,203 397,202 398,202 399,202 399,203 399,203 399,203 399,203 399,203 400,204 400,204 400,204 400,204 400,205 400,205 400,205 400,206 400,206 401,206 401,206 401,206 401,207 401,207 401,207 401,207 401,208 401,208 401,208 400,207 399,207 398,207 398,207 398,207 398,207 397,208 397,208 397,208 397,208 397,208 397,208 397,209 397,209 397,209 397,209 397,209 397,209 397,209 397,210 397,210 397,211 397,212 397,212 397,212 397,212 398,212 398,213 398,213 398,213 398,213 398,213 398,213 398,214 398,214 398,214 399,213 399,213 399,213 399,213 399,213 399,213 400,213 401,212 401,212 401,212 402,212 402,212 402,212 402,212 403,213 403,213 403,213 403,213 404,213 404,213 404,213 405,213 405,213 405,213 405,214 405,214 406,214 406,214 407,214 407,214 407,214 407,214 408,213 408,213 408,213 408,213 409,212 409,212 409,212 410,212 410,212 410,212 410,212 410,211 411,211 411,211 411,211 412,211 412,211 412,212 413,212 413,212 413,213 413,213 413,213 413,213 413,214 414,214 414,214 414,214 414,214 414,215 414,215 414,215 414,215 414,216 415,217 415,217 415,217 414,218 414,218 413,219 413,219 412,220 411,220 411,220 411,221 410,221 409,222 409,222 409,222 409,223 409,223 409,223 408,223 408,223 408,223 407,224 407,224 407,224 407,224 406,224 406,224 406,224 405,224 405,224 404,224 404,224 404,224 404,225 403,225 403,225 402,225 401,225 401,225 401,225 401,226 401,226 400,226 399,226 399,226 399,226 399,226 398,226 398,226 398,226 398,226 397,226 397,226 397,226 397,226 396,226 396,226 396,226 396,226 396,226 396,226 396,227 396,227 396,227 396,227 396,227 395,227 395,227 395,227 395,227 395,227 394,227 394,227 394,228 394,228 395,228 395,228 394,229 394,229 394,229 395,229 395,229 396,230 396,230 396,230 396,230 396,231 396,231 396,232 396,232 395,232 395,232 395,232 395,233 395,233 395,233 394,234 394,234 394,235 394,235 394,235 393,235 393,235 392,236 392,236 392,236 392,236 392,236 392,236 392,236 392,237 392,237 392,237 392,238 392,238 392,238 392,238 392,238 391,238 392,239 391,239 391,239 391,239 391,240 391,240 391,240 391,241 392,241 392,242 391,242 391,242 391,242 390,243 390,243 390,243 390,243 390,243 390,244 390,244 390,244 390,244 390,244 390,245 390,245 390,245 390,246 390,246 390,246 390,246 391,246 391,246 391,246 391,246 392,246 392,247 392,247 392,247 393,246 393,246 394,247 394,247 394,247 395,247 395,247 395,247 396,248 396,248 397,248 397,248 397,248 398,248 398,247 399,247 399,247 400,247 400,247 401,247 401,247 401,247 401,246 401,246 401,246 401,246 401,246 401,246 401,245 401,245 401,245 401,245 401,244 401,244 401,244 401,243 401,243 401,243 402,243 402,243 403,243 403,243 403,243 403,242 403,242 403,242 403,242 403,242 404,241 404,241 404,241 404,241 404,241 405,240 405,240 405,240 405,240 405,239 405,239 405,239 406,239 406,239 406,239 407,238 407,238 407,238 408,238 408,238 408,238 409,238 409,238 410,238 410,238 410,238 410,238 410,238 410,237 410,237 410,237 410,237 411,237 411,236 411,236 411,236 411,236 411,236 411,236 411,235 411,235 411,235 411,235 411,234 411,234 412,234 412,234 412,234 413,233 414,233 414,233 414,233 414,233 414,233 414,233 414,232 415,232 415,232 415,232 415,232 416,232 416,232 417,232 417,233 417,233 417,233 417,233 417,233 418,233 418,232 418,232 418,232 418,232 418,232 418,232 417,232 417,232 417,232 417,232 417,231 418,231 418,231 419,231 419,231 419,231 419,230 419,230 420,230 420,230 420,230 420,230 420,230 420,230 421,230 421,230 421,231 421,231 421,231 421,231 421,231 422,231 422,231 422,231 423,231 423,230 423,230 423,230 423,230 423,229 424,229 424,229 424,229 424,229 425,229 425,229 425,229 425,229 426,229 426,230 426,230 426,230 427,229 427,229 427,229 426,228 426,228 426,228 426,228 426,227 426,227 426,227 426,227 426,227 426,227 426,227 427,227 427,227 427,227 427,227 427,227 427,227 428,227 428,227 428,226 428,226 428,226 429,226 429,226 429,226 429,226 429,226 429,226 430,227 430,226 431,226 431,226 431,226 431,226 431,225 431,225 431,225 431,225 431,225 431,225 432,225 432,225 432,225 432,225 432,225 433,225 433,225 433,225 433,225 433,225 433,225 434,225 434,225 434,225 434,225 434,225 434,225 434,225 434,225 435,226 435,226 435,226 435,226 435,226 436,226 436,226 436,226 436,226 436,226 436,226 437,227 437,227 437,227 437,227 438,227 438,228 438,228 439,228 439,228 439,228 439,228 440,228 440,228 440,228 440,228 441,228 441,228 441,229 441,229 441,229 441,229 442,229 442,230 442,230 442,230 442,230 443,230 443,230 443,229 443,229 443,230 443,230 443,230 444,230 444,230 444,230 444,230 444,230 444,231 444,231 444,231 445,231 445,231 445,231 445,231 446,231 446,231 446,230 446,230 446,231 446,231 447,230 447,230 447,230 447,230 448,230 448,230 448,230 448,230 448,230 449,230 449,230 449,230 449,230 449,230 449,230 449,229 449,229 449,229 449,229 450,229 450,229 450,229 450,229 450,229 450,229 451,229 451,229 451,229 451,229 451,229 452,230 452,230 453,230 453,230 453,230 454,230 454,230 454,230 454,230 454,230 455,230 455,230 455,230 455,229 456,229 456,229 456,229 456,229 456,229 456,229 456,229 456,229 457,229 457,229 457,229 458,229 458,229 458,229 458,229 458,228 458,228 458,228 458,228 458,228 458,228 458,228 458,228 458,228 458,227 458,227 458,227 458,227 458,227 459,227 459,226 459,226 459,226 459,226 459,226 459,226 459,226 459,225 459,225 459,225 459,225 459,225 460,225 460,225 460,225 460,225 460,224 460,224 460,224 460,224 460,224 460,224 460,224 461,223 461,223 461,223 461,223 462,223 461,222 461,222 462,222 462,221 462,221 462,220 462,220 462,220 463,219 462,219 459,217 459,217 459,217 459,217 461,216 461,215 461,215 461,215 462,215 463,214 463,215 464,215 464,216 464,216 464,216 464,216 464,216 464,216 464,216 464,216 464,216 465,216 467,215 468,215 468,215 469,216 469,216 471,217 471,217 471,217 471,217 472,218 472,218 472,218 473,219 474,219 474,219 474,219 474,219 475,219 475,219 475,219 475,219 475,220 475,220 475,220 474,220 474,220 473,220 473,220 472,220 472,220 472,220 470,220 470,220 471,220 471,221 471,221 472,222 472,222 472,222 473,223 473,223 472,224 472,224 472,225 472,225 472,225 472,225 472,225 472,225 473,226 475,226 475,226 475,227 475,227 474,228 473,229 473,229 473,229 472,229 467,231 466,231 466,232 465,232 464,232 461,232 461,232 460,232 460,232 460,232 460,233 460,233 461,233 461,233 461,234 462,234 462,234 462,234 463,235 463,235 463,235 463,235 463,235 463,235 462,236 462,236 462,236 462,237 462,237 462,237 462,237 462,237 461,238 461,238 461,238 461,238 461,239 462,246 462,246 465,246 466,246 467,246 467,246 468,246 468,246 468,245 468,245 469,245 469,245 469,244 469,244 469,244 470,244 470,244 471,244 471,244 472,244 472,244 472,244 472,244 473,244 473,244 473,244 473,244 473,244 474,245 474,245 474,245 474,245 475,245 475,245 475,246 475,246 475,247 475,247 476,247 476,247 476,247 476,247 476,247 476,247 476,247 477,247 477,247 478,247 480,247 481,248 482,248 482,248 482,248 482,248 483,248 483,248 484,248 484,248 484,248 485,248 485,248 485,248 485,248 485,248 486,248 486,248 486,248 487,249 487,249 487,249 487,249 488,249 488,250 488,250 489,250 490,250 490,250 490,250 491,250 491,250 491,251 491,251 492,251 492,252 492,253 492,253 493,253 493,253 493,253 493,253 492,254 492,254 492,255 492,255 492,255 493,255 493,255 493,255 493,255 495,255 495,255 495,255 495,256 495,256 495,256 495,258 495,258 495,258 494,258 494,259 493,259 492,259 492,259 492,260 492,260 492,260 493,260 493,260 493,260 495,260 495,260 495,260 498,262 499,263 499,263 499,263 499,264 499,264 499,264 498,264 498,264 497,264 497,264 497,265 497,265 497,265 497,265 497,265 499,265 499,265 499,266 499,266 499,266 499,267 499,267 499,267 499,268 500,269 500,269 500,269 500,269 500,269 499,269 498,269 498,269 497,268 497,268 497,268 496,268 496,268 495,268 494,268 494,268 493,268 493,268 492,268 492,268 492,269 492,269 492,269 492,269 493,269 493,269 493,269 493,269 492,270 491,271 490,271 490,272 490,272 490,272 490,273 487,273 487,273 486,273 485,273 485,273 485,273 485,273 484,273 484,273 484,274 484,274 484,274 484,275 484,275 483,275 482,276 482,276 482,277 481,277 481,278 481,278 481,278 480,278 479,278 479,279 479,279 478,279 478,279 478,280 477,283 477,283 476,283 475,284 475,284 475,284 474,284 474,284 473,283 472,283 471,283 469,283 469,283 469,283 468,284 467,284 466,285 466,285 466,285 466,286 466,286 466,287 466,287 465,287 465,287 464,288 464,288 464,288 464,289 464,289 465,289 465,289 465,290 464,291 464,291 464,291 464,291 464,292 464,292 464,292 463,292 463,292 462,293 462,293 461,294 461,295 461,295 459,296 459,296 459,296 459,297 459,297 459,297 459,297 459,298 459,298 458,298 458,299 458,299 458,299 458,299 458,299 458,299 459,299 459,300 460,300 460,300 460,300 460,301 460,302 460,302 460,302 460,302 461,302 461,303 462,303 462,303 463,303 463,304 463,304 463,304 462,304 462,305 462,305 462,305 462,306 462,306 463,307 463,307 463,307 464,308 464,308 464,309 464,309 464,309 464,309 464,310 464,310 464,310 464,310 465,310 465,310 466,311 466,311 466,311 466,311 466,311 466,311 466,312 466,312 466,313 466,314 465,315 465,315 465,315 465,316 465,316 464,316 464,316 463,317 463,317 463,317 463,317 463,318 464,318 465,319 465,319 465,319 465,320 465,320 465,321 465,321 465,321 465,321 464,321 464,321 463,321 462,321 462,321 461,321 461,321 461,321 461,321 460,322 460,322 460,322 459,323 458,324 458,325 458,325 457,325 457,325 457,326 457,326 457,326 458,326 459,326 459,326 459,326 460,327 460,327 461,328 461,328 461,328 461,329 461,329 461,330 461,330 460,330 460,330 460,329 459,329 459,329 458,329 458,329 457,329 457,329 457,329 457,329 457,329 457,330 457,330 457,331 457,332 457,332 456,332 456,333 455,334 455,334 455,335 455,335 454,336 454,337 455,337 455,337 455,338 455,339 455,339 456,340 456,340 455,340 455,341 455,342 455,342 455,342 455,343 455,343 455,344 456,344 456,344 456,344 456,344 456,345 455,345 455,345 455,345 455,345 453,346 452,346 451,347 451,347 451,347 451,347 450,348 450,348 450,348 449,348 449,349 449,349 448,349 447,349 446,349 446,349 446,349 446,349 446,350 446,350 446,351 446,351 446,351 446,351 444,352 444,352 444,352 444,353 443,353 442,354 442,355 441,355 441,355 441,355 440,355 442,356 443,356 444,356 445,356 446,356 447,356 448,357 448,357 447,357 448,358 448,358 448,358 448,358 448,359 449,359 449,360 449,360 449,360 449,360 449,361 449,361 449,361 449,362 449,362 449,362 448,362 448,362 448,362 448,362 448,363 447,363 447,363 447,363 447,363 447,363 447,363 448,363 449,364 450,364 450,364 450,364 451,364 452,365 452,365 452,365 452,365 453,365 453,365 453,365 454,365 454,365 454,366 454,366 455,366 455,366 455,367 455,367 456,367 456,368 456,368 456,368 456,368 456,368 456,369 456,369 456,369 456,369 455,370 455,371 455,371 454,371 454,371 454,371 453,371 453,371 453,371 452,372 452,372 451,372 451,372 451,373 451,373 452,373 453,373 453,375 453,375 454,376 455,376 456,376 457,376 457,376 457,376 457,377 457,377 457,377 457,377 458,378 458,378 459,378 460,377 460,377 460,377 460,377 461,377 461,377 463,377 464,377 464,377 463,377 463,377 463,377 463,377 463,377 463,378 462,378 462,379 461,379 461,380 461,380 460,381 460,381 460,382 460,382 460,382 459,382 457,383 457,383 457,383 457,383 456,383 456,384 456,384 456,384 456,385 456,385 457,385 457,385 457,386 458,386 458,386 459,386 459,386 459,386 460,386 460,386 460,386 461,387 461,387 461,387 462,387 461,387 460,388 460,388 460,388 460,389 460,389 460,389 459,389 459,389 459,389 457,392 457,392 457,392 456,392 456,391 455,391 454,390 454,390 453,391 451,391 451,391 451,390 451,390 451,389 451,389 451,389 450,389 450,390 450,390 449,390 449,390 448,391 448,391 448,391 448,391 448,391 447,391 446,391 445,391 445,392 442,392 442,392 441,392 441,392 441,392 440,393 440,393 439,393 439,394 439,395 439,395 439,395 438,395 436,395 436,395 436,396 436,396 436,397 436,397 436,398 436,398 436,399 435,400 435,401 435,401 435,401 435,401 435,402 434,402 434,402 434,403 434,403 434,403 434,404 434,405 434,405 434,405 433,405 433,406 433,406 433,406 433,406 432,406 432,406 431,406 430,406 429,407 429,407 429,407 429,407 429,408 429,409 430,410 430,410 427,411 427,411 425,412 424,412 422,413 422,413 421,413 420,413 420,413 419,414 419,415 418,415 418,416 416,417 416,417 415,419 415,419 415,419 415,420 414,420 414,421 413,422 413,422 411,420 410,419 410,419 410,418 410,418 410,418 410,418 410,418 409,418 409,418 408,418 407,418 407,418 407,417 407,417 406,417 406,417 405,416 405,416 405,416 405,416 405,415 405,415 404,414 404,413 403,413 402,411 402,410 401,409 400,409 400,408 400,408 400,408 400,408 400,407 399,407 399,407 399,407 398,407 398,407 398,407 397,406 397,406 397,406 396,407 396,407 396,407 396,406 395,405 395,404 393,403 392,402 392,402 391,401 391,401 390,400 390,400 390,400 389,399 389,399 388,399 388,399 387,399 386,398 385,398 385,398 384,398 383,398 383,398 381,398 381,398 380,398 380,397 380,397 379,397 378,398 378,398 378,397 377,397 377,397 376,397 376,397 376,397 376,397 373,397 373,397 373,397 372,397 372,397 372,397 371,397 371,396 371,396 370,396 370,395 370,395 370,395 370,395 370,395 370,395 369,395 369,395 369,396 369,396 368,396 368,396 367,396 366,396 366,397 366,397 365,397 365,397 365,397 364,397 364,397 364,397 363,397 362,397 362,397 361,396 361,396 361,396 361,396 361,396 361,396 361,396 361,395 360,395 360,395 360,395 359,395 359,394 359,394 358,394 358,394 357,393 356,393 354,392 354,391 353,391 353,391 352,391 352,391 350,391 350,391 350,391 349,391 346,390 346,390 345,390 345,390 344,390 344,390 344,390 344,389 344,389 345,389 345,388 345,388 345,388 345,388 345,388 345,387 345,387 345,387 346,387 346,387 346,387 346,386 346,386 347,385 346,385 346,384 347,384 347,383 347,383 344,382 343,382 343,382 343,382 343,382 343,382 343,383 343,384 343,384 343,385 343,385 343,385 342,385 341,385 340,385 340,385 340,384 339,384 339,384 339,384 339,384 339,384 339,384 339,383 339,383 339,382 339,381 339,381 339,381 339,380 339,380 340,380 340,380 340,380 340,380 340,380 342,380 342,380 342,380 342,380 343,379 343,379 343,379 343,379 343,379 343,379 343,378 343,378 344,378 344,377 344,377 345,378 345,378 346,378 346,378 346,377 347,378 347,378 348,378 348,378 348,378 348,378 348,378 349,378 349,378 348,376 348,376 347,376 347,375 346,375 345,374 345,374 345,374 345,374 345,373 345,373 345,373 345,373 346,373 346,373 347,373 347,373 348,373 348,373 349,374 349,374 350,374 350,374 350,374 350,373 350,373 350,372 350,372 351,372 352,372 352,372 352,371 352,371 352,370 351,368 351,368 351,368 350,368 350,368 350,368 350,368 349,368 349,368 349,368 348,368 348,368 348,368 348,368 347,368 347,368 346,367 345,367 345,367 346,366 346,366 346,366 346,366 346,365 346,365 346,365 346,364 345,364 345,364 345,364 345,364 345,364 345,363 344,362 344,362 344,362 343,362 343,362 343,363 342,363 342,363 343,364 344,364 345,364 344,364 345,365 345,365 345,365 345,365 345,365 345,366 344,366 343,367 343,367 343,368 343,368 343,368 342,368 342,368 341,369 341,369 341,368 340,367 340,366 340,365 339,365 339,364 339,364 339,364 339,364 338,364 338,363 338,363 338,363 338,363 338,363 338,363 337,362 337,362 337,362 337,362 337,361 338,361 338,361 339,361 339,361 339,361 339,361 340,361 340,361 341,361 341,360 342,360 342,360 343,360 344,360 344,360 344,360 345,360 345,360 346,360 346,360 347,360 347,359 347,359 347,359 348,359 348,360 348,360 348,360 348,360 349,360 349,360 350,360 350,360 351,359 352,359 352,359 353,359 353,358 355,358 355,358 355,358 356,358 356,357 357,357 357,357 357,357 357,356 357,356 358,356 358,356 357,355 357,355 356,355 356,354 356,353 356,353 355,353 355,353 355,353 355,353 355,353 353,353 352,353 351,353 351,353 351,352 351,352 352,352 352,352 353,352 353,351 354,350 354,350 353,350 353,350 353,350 352,350 352,350 352,350 351,350 351,350 351,350 351,350 350,350 350,350 351,349 351,348 351,348 351,348 351,346 351,346 350,346 350,346 350,346 350,346 350,346 349,347 349,347 349,347 349,347 349,347 348,348 348,348 348,348 348,348 347,348 347,348 347,348 347,348 347,348 347,349 347,349 347,349 347,349 346,350 346,350 346,350 346,349 346,350 345,350 345,350 345,351 345,351 345,351 345,351 345,351 345,351 345,351 345,351 344,352 343,352 343,352 343,352 343,352 343,352 342,352 342,353 342,353 342,354 342,354 342,354 342,354 342,354 342,354 342,354 342,354 342,354 342,355 342,355 342,355 342,355 342,355 342,356 342,356 341,356 341,357 341,357 341,357 341,357 341,357 341,357 340,357 340,357 339,357 339,357 338,358 338,358 338,357 337,358 336,358 336,356 337,356 337,356 338,356 339,356 339,356 340,355 339,355 339,355 337,354 337,354 336,354 335,354 334,354 334,354 332,354 332,354 329,354 329,354 329,354 329,353 328,353 328,353 327,353 327,353 326,353 326,353 324,353 324,353 324,353 324,354 323,354 323,354 323,354 323,354 322,354 322,354 321,354 320,354 320,354 320,354 320,354 320,354 319,354 319,354 319,353 319,353 319,353 319,353 319,353 319,353 319,353 318,352 318,352 318,352 318,352 318,352 318,352 318,351 318,351 318,351 317,351 317,351 317,351 317,351 316,351 316,351 316,351 315,351 315,351 315,351 315,351 315,351 314,351 314,351 314,351 314,351 313,351 313,351 313,351 313,351 313,351 312,351 312,351 312,351 312,351 312,351 311,350 311,350 311,350 311,350 310,350 310,349 309,349 309,349 309,349 308,349 308,349 308,349 307,349 306,348 306,348 306,348 306,348 305,348 305,348 305,348 305,348 305,347 305,347 304,346 304,345 304,345 304,345 304,345 304,345 304,345 304,345 303,344 303,344 303,344 303,344 302,345 302,345 302,345 301,345 301,345 300,345 300,345 298,345 297,345 297,345 297,345 296,345 295,345 294,345 293,346 293,346 293,346 292,346 292,346 292,347 292,347 291,348 290,348 290,349 289,349 289,350 289,350 288,351 288,352 288,352 287,352 287,353 286,354 286,354 286,354 285,354 285,354 285,354 284,355 284,355 284,355 284,355 284,355 284,356 284,356 284,356 284,356 284,357 284,357 284,358 284,358 284,358 284,359 284,359 284,360 284,360 284,360 284,360 284,361 284,361 284,361 284,361 284,361 284,362 284,362 283,363 283,363 283,364 283,364 283,364 283,365 283,365 284,367 284,369 284,369 284,369 283,369 283,370 283,370 282,370 281,371 280,371 280,371 280,372 280,372 279,372 279,372 279,373 278,373 277,373 277,374 276,374 276,374 276,374 275,374 275,374 275,375 274,375 274,375 274,375 273,375 273,375 272,375 272,376 272,376 271,375 271,375 269,375 268,374 268,374 268,374 269,373 269,373 269,372 269,372 269,371 270,370 270,369 270,369 271,369 271,369 271,369 271,369 271,368 271,368 271,368 271,367 271,367 271,367 271,367 271,367 271,366 271,366 271,366 271,366 271,366 271,366 270,365 270,365 270,365 269,365 269,365 269,365 269,364 268,364 268,364 268,364 268,364 268,364 268,364 268,364 268,364 267,364 267,364 267,364 267,364 267,364 267,364 266,364 265,363 265,363 265,363 265,363 265,362 264,362 264,362 264,362 264,362 264,362 264,362 264,362 264,362 263,362 263,362 263,362 263,362 263,362 263,362 262,362 262,363 261,363 261,363 261,363 261,363 261,363 260,363 260,364 260,364 260,364 260,364 259,364 259,364 259,364 258,364 258,364 258,363 257,363 257,363 257,362 257,362 256,362 256,362 256,361 256,361 256,361 256,361 257,360 257,360 257,360 257,360 257,359 257,359 256,359 256,359 256,359 257,359 257,358 257,358 257,358 257,358 257,358 257,358 258,358 258,357 258,357 258,357 259,357 258,357 258,357 258,356 258,356 257,356 257,356 256,356 256,356 256,356 254,355 255,355 255,355 255,355 255,355 255,355 255,355 255,354 255,354 255,354 255,354 254,354 254,354 255,353 255,353 255,353 256,353 256,353 256,353 256,353 256,353 256,352 256,351 256,351 256,351 256,351 256,350 255,350 255,350 255,350 255,350 255,349 254,349 254,349 253,349 253,349 252,350 252,350 252,350 252,350 251,350 251,349 251,349 251,349 250,349 250,349 250,349 249,350 249,350 249,350 249,350 249,350 249,350 249,351 249,351 249,351 249,351 249,352 249,352 249,352 249,352 249,352 249,352 249,352 249,352 248,352 248,352 248,352 249,353 248,353 248,353 248,353 249,354 248,354 248,354 248,354 249,355 249,355 248,355 248,355 248,355 248,356 248,356 248,356 248,356 248,356 248,356 248,356 248,356 248,357 248,357 248,358 248,358 248,358 248,358 248,358 248,359 248,359 248,359 248,359 248,360 248,360 248,360 248,360 248,361 248,361 247,361 247,361 247,361 247,362 246,362 246,362 246,363 246,363 246,363 246,364 246,364 246,364 245,365 245,365 246,365 246,365 245,366 245,366 245,367 245,367 245,368 245,368 245,368 245,368 245,368 244,369 244,370 245,370 245,370 245,370 245,370 243,370 243,370 242,369 242,369 241,368 241,369 241,369 241,370 241,370 240,370 240,370 240,369 239,369 239,368 239,368 239,368 239,368 238,368 238,368 238,368 238,368 238,368 238,367 238,367 238,367 238,367 238,367 237,367 237,366 237,366 237,366 237,366 237,366 237,365 237,365 237,365 237,365 237,364 237,364 237,364 237,364 236,364 236,363 235,363 235,363 234,362 234,362 234,362 234,362 234,362 234,362 234,361 234,361 234,361 233,361 233,361 233,360 233,360 233,360 233,360 233,360 232,360 232,360 232,360 232,359 232,359 232,359 232,359 232,359 232,359 232,359 232,358 232,358 231,358 231,358 231,357 231,357 231,357 231,356 231,356 231,356 231,356 231,356 231,355 231,355 231,355 231,355 232,355 232,355 232,355 232,354 232,354 232,353 232,353 232,353 232,353 233,353 233,352 233,352 233,352 233,352 233,352 233,352 233,352 234,352 234,351 234,351 234,351 234,351 233,351 233,350 233,350 234,350 234,350 234,350 234,350 234,350 234,350 234,350 234,349 234,349 234,349 234,349 234,349 234,349 234,348 234,348 234,348 234,348 234,348 235,348 235,347 235,348 236,347 236,347 236,347 236,347 236,346 236,346 236,346 236,346 236,346 236,346 236,345 235,345 235,345 235,345 235,344 235,344 235,343 234,343 234,343 234,343 233,343 233,343 233,343 233,343 232,343 232,342 230,342 229,341 229,341 229,341 229,341 228,341 228,341 228,341 227,341 227,341 225,342 225,342 224,342 224,342 224,342 224,342 224,342 223,342 223,341 223,341 223,341 223,341 223,341 222,340 222,340 222,340 222,340 222,340 221,340 221,340 221,339 221,339 221,339 221,339 221,338 220,338 220,338 220,338 220,338 220,337 219,337 219,337 219,337 219,337 219,336 219,336 219,336 219,336 219,336 219,336 218,335 218,335 218,334 218,334 218,334 218,334 217,333 217,333 217,333 217,333 217,333 217,332 215,331 215,331 215,331 215,331 215,331 215,332 215,332 215,333 214,334 214,334 214,334 213,335 213,336 213,336 213,337 213,338 213,338 213,338 213,338 213,338 212,338 211,337 210,337 210,337 209,337 208,336 208,336 207,336 206,336 206,336 205,335 204,335 204,335 204,335 203,333 203,333 203,333 203,333 203,333 203,333 202,333 202,333 201,333 201,333 200,333 200,333 200,334 200,334 200,334 200,334 198,335 195,336 194,336 193,336 193,337 193,337 192,338 192,338 192,338 191,338 191,338 190,339 190,339 190,336 189,336 189,335 189,335 189,335 188,335 188,335 188,335 188,335 188,335 187,335 187,335 186,335 186,335 186,335 186,335 186,335 186,335 185,335 185,335 185,335 184,335 184,335 184,335 184,335 184,335 183,335 183,335 182,335 182,335 181,335 181,335 181,335 181,335 181,335 181,336 181,336 181,337 181,337 180,337 180,337 179,337 179,337 179,337 178,336 178,336 178,336 178,336 177,336 177,336 177,337 177,337 177,337 176,337 175,337 175,337 175,337 175,338 175,338 174,338 173,338 173,339 173,339 172,339 172,339 172,339 172,339 171,340 170,340 170,340 169,341 169,341 168,341 167,341 167,341 166,342 166,342 166,342 165,342 165,341 165,341 165,341 165,341 165,341 165,340 164,341 163,341 160,341 160,341 160,341 160,342 160,342 160,342 161,342 161,342 161,342 162,342 163,343 163,343 163,343 162,343 162,344 162,344 162,344 161,344 161,345 161,345 161,345 161,345 160,345 160,345 160,345 161,346 161,346 160,346 160,347 160,347 160,347 160,347 160,348 160,348 161,348 161,348 161,348 161,348 161,349 161,349 162,349 163,349 163,349 163,349 163,349 164,349 164,349 164,349 164,349 164,350 164,350 165,350 165,350 165,350 165,350 166,350 166,350 166,349 166,349 166,348 166,348 166,348 166,348 165,348 166,348 166,348 166,347 166,347 166,347 166,347 166,347 166,347 166,347 167,347 167,347 167,347 168,347 168,347 168,347 168,347 169,347 169,347 169,347 169,347 170,347 171,347 171,347 172,347 172,347 172,347 172,347 172,347 173,347 173,347 174,347 175,347 175,347 175,347 175,347 176,346 176,346 177,345 177,345 177,345 176,345 176,345 176,345 176,344 176,344 176,344 175,344 175,344 175,344 175,344 175,344 175,343 176,343 176,343 176,343 176,342 176,342 176,342 177,342 177,342 177,342 179,342 179,342 179,342 180,343 181,344 181,344 182,345 183,345 184,346 184,346 183,346 184,347 184,348 184,348 184,349 185,349 185,349 185,349 185,349 186,350 186,351 186,351 186,351 186,351 185,351 185,351 185,351 185,352 185,352 184,352 184,353 184,353 184,353 183,353 183,353 182,354 182,354 182,354 180,354 180,354 180,355 180,355 179,355 179,355 179,355 179,355 179,356 178,356 178,356 178,356 177,356 177,357 177,357 177,357 176,357 176,357 176,357 175,357 175,357 175,357 174,357 174,357 174,358 174,358 173,358 173,357 173,357 173,357 172,357 172,356 172,356 171,356 170,355 170,355 170,355 170,355 170,356 169,356 169,356 169,356 169,356 168,356 168,356 168,356 167,356 167,355 167,354 167,354 166,354 166,354 166,354 166,354 164,354 163,354 163,353 163,354 162,354 162,354 162,354 162,354 161,353 161,353 161,353 161,353 160,354 160,354 160,354 159,355 159,355 159,355 158,355 158,355 158,355 157,355 157,355 157,355 157,354 157,354 157,354 157,353 157,353 156,352 156,351 156,351 155,351 155,351 155,351 154,350 154,350 153,350 153,350 152,350 152,350 152,350 151,350 151,350 150,350 149,350 148,350 147,350 147,350 146,351 145,351 144,351 143,351 142,351 142,351 141,351 141,351 141,351 140,350 140,351 140,351 139,351 139,351 139,351 139,351 139,350 138,349 138,348 137,347 136,347 136,347 135,345 135,345 135,344 135,344 135,343 135,343 135,343 135,343 135,342 135,342 135,342 135,342 134,342 134,342 133,342 133,341 133,341 133,341 133,341 133,341 134,340 134,340 132,340 132,340 131,340 131,340 131,340 130,339 130,339 130,338 129,338 129,337 129,337 129,337 129,337 129,336 130,336 130,335 130,335 130,334 130,334 129,334 129,333 129,333 129,333 129,332 129,332 130,331 130,331 131,330 131,330 132,329 132,329 133,328 133,328 134,326 134,326 134,326 134,326 133,326 133,325 134,325 134,325 134,325 133,324 133,324 133,324 133,324 133,324 134,323 134,323 133,323 133,323 133,323 133,323 133,323 133,322 134,322 134,322 134,322 134,321 134,321 134,320 134,320 134,320 134,320 134,319 133,319 133,319 132,319 132,319 132,318 133,318 133,318 133,318 132,317 132,316 132,316 131,315 131,315 131,315 131,315 131,315 131,314 131,314 131,314 130,314 130,314 130,313 130,313 130,313 130,313 130,313 130,313 130,312 130,312 130,312 130,312 130,312 129,312 129,312 129,312 129,311 129,311 129,311 129,310 129,310 129,310 128,310 128,310 128,310 127,309 127,309 127,309 127,309 128,309 128,309 128,308 127,308 127,308 126,308 126,309 126,308 126,308 126,308 126,308 126,308 126,308 126,308 125,307 125,307 125,307 125,307 125,307 125,307 125,307 125,307 124,307 124,307 124,306 124,306 124,306 124,306 124,306 124,306 124,305 124,305 124,305 124,305 123,305 123,304 122,304 122,304 122,304 122,304 122,305 121,305 121,305 121,304 121,304 121,304 121,304 121,303 121,303 121,303 121,303 121,303 121,303 121,303 121,303 120,303 120,303 120,303 119,303 119,303 119,303 118,303 118,303 117,303 117,303 117,303 118,303 118,302 119,301 120,300 120,300 120,300 120,299 120,299 119,299 119,299 119,298 118,298 118,298 118,298 117,298 117,298 117,298 116,298 116,298 116,298 116,298 116,298 116,298 115,297 115,297 115,296 116,296 116,296 116,296 116,296 116,296 115,295 114,295 114,295 114,295 114,295 114,294 114,294 115,293 115,293 114,293 114,293 114,293 114,293 114,292 115,292 114,292 114,292 114,292 114,291 113,291 113,291 113,291 112,291 111,291 111,291 111,291 111,291 110,291 110,291 110,291 110,291 109,291 109,291 109,291 109,291 109,290 109,290 109,290 109,290 109,290 108,290 108,289 108,289 108,289 108,289 108,289 108,288 108,288 108,288 108,288 108,288 107,287 107,287 106,287 106,287 106,287 106,287 106,288 106,288 105,288 105,288 105,288 104,288 104,288 104,288 104,288 104,288 103,288 103,288 102,288 102,288 102,288 101,288 101,287 101,287 100,287 100,286 100,286 100,286 100,286 99,286 99,286 99,286 99,285 99,285 99,285 99,285 99,285 99,285 99,284 99,284 99,284 99,284 99,283 99,283 99,283 99,283 99,283 98,283 98,282 98,282 98,282 98,282 98,282 98,281 98,281 98,281 98,281 98,280 98,280 98,280 98,280 97,280 97,280 97,280 96,280 96,280 95,280 95,280 95,280 95,280 94,279 94,279 93,279 93,279 93,279 93,279 93,279 92,278 92,278 92,278 92,278 92,278 91,277 91,277 91,277 90,277 90,277 90,277 89,277 89,277 88,277 88,277 88,277 88,277 88,277 87,276 87,276 87,276 87,275 87,275 88,275 87,275 88,274 88,274 88,274 88,274 88,274 88,274 88,273 88,273 88,273 88,272 88,272 88,272 89,271 89,271 89,271 89,271 90,271 90,271 90,270 90,270 91,270 91,270 90,270 89,269 89,269 89,269 89,269 89,269 89,269 89,269 89,269 88,269 88,269 88,268 88,268 88,268 88,268 88,268 88,267 88,267 87,267 87,267 87,267 87,267 87,267 87,267 87,267 87,267 87,267 87,267 86,267 86,267 86,267 85,267 84,266 83,267 83,267 84,266 84,266 84,266 84,266 84,266 84,265 83,265 83,265 83,265 83,265 83,265 83,264 82,264 82,264 82,264 82,264 82,264 82,264 82,264 82,264 82,263 81,263 81,263 81,263 81,263 81,262 81,262 81,262 81,262 81,262 81,262 81,262 81,262 81,262 81,262 81,262 81,261 81,261 80,261 80,260 80,260 80,259 79,258 79,258 79,257 79,256 79,256 78,256 78,255 78,255 78,255 79,254 79,254 79,254 79,254 79,254 79,254 79,254 79,254 79,255 80,254 81,254 82,254 83,253 83,253 83,253 83,252 83,252 83,252 83,252 83,252 82,252 83,252 83,252 83,252 83,252 83,251 83,251 83,251 82,251 82,251 82,251 82,251 83,250 83,250 83,250 83,250 83,250 83,250 83,250 83,250 83,250 83,250 83,250 83,250 83,250 83,250 84,250 84,249 84,249 84,249 84,249 84,249 84,249 84,249 84,249 84,249 83,249 83,249 83,249 83,249 82,248 82,248 82,248 82,248 82,248 82,248 82,248 82,248 81,248 81,248 81,248 81,247 81,247 81,247 80,247 80,247 80,246 80,246 80,246 80,246 80,246 80,246 80,246 80,246 79,246 79,246 79,246 78,246 78,246 78,246 78,246 77,246 77,247 77,247 77,247 77,247 77,247 77,247 76,247 76,248 76,248 76,248 76,248 76,248 76,248 76,248 76,248 75,248 75,248 75,248 75,249 75,249 75,249 75,249 75,249 75,249 75,250 75,250 75,250 75,250 75,251 75,251 75,251 75,251 75,251 75,251 74,251 74,252 74,252 74,252 74,252 74,252 74,253 74,253 74,253 74,253 74,253 74,253 74,253 74,253 74,253 75,254 75,254 75,254 74,254 74,254 74,254 74,255 74,255 73,255 73,255 73,256 73,256 73,256 73,257 73,257 73,257 73,257 73,257 73,257 73,257 73,258 73,258 73,258 73,258 72,258 72,258 72,259 71,259 69,259 69,259 69,259 69,259 68,260 67,260 67,260 66,260 66,260 66,259 65,259 65,259 65,259 65,259 65,258 65,258 65,258 65,258 65,258 65,258 65,258 65,258 65,258 65,258 65,258 65,258 65,258 64,257 64,257 63,257 63,257 63,257 63,257 63,256 63,256 63,256 62,256 62,255 61,255 60,255 60,255 59,255 59,255 58,254 57,254 57,254 57,254 57,254 56,254 56,254 56,254 56,254 56,253 56,253 56,253 56,253 55,253 55,254 55,254 54,254 54,254 54,254 54,253 54,253 53,253 53,253 53,253 53,253 53,253 53,252 53,252 53,252 53,252 53,252 53,251 52,251 52,250 52,250 52,250 52,249 52,249 52,248 52,248 52,248 52,248 53,247 53,246 53,246 54,245 54,245 54,245 53,245 53,245 53,245 53,245 53,245 52,245 52,245 52,245 52,245 52,245 52,245 51,245 51,245 51,245 51,245 51,244 51,244 51,244 51,244 50,244 50,244 50,244 50,244 50,244 50,245 49,245 49,244 48,243 48,243 48,243 48,243 47,243 46,242 46,242 45,242 45,241 45,241 44,241 44,241 43,240 43,240 43,240 43,240 43,240 43,240 43,239 43,239 43,239 43,238 43,238 43,237 44,237 44,236 44,236 45,235 45,235 46,234 46,234 46,234 46,233 46,233 46,233 46,233 46,233 46,233 46,233 46,233 46,232 46,232 46,232 46,232 46,232 47,232 47,232 48,232 48,232 48,231 48,231 48,231 48,231 48,231 49,231 49,231 49,231 49,231 49,231 49,231 49,231 50,231 50,231 50,231 50,231 50,230 50,230 49,230 49,229 49,229 49,229 49,229 48,228 48,228 49,227 49,227 49,227 50,227 50,227 50,227 50,226 50,226 51,226 51,226 51,226 51,226 51,226 51,226 52,226 52,226 52,226 52,226 52,225 52,225 52,225 52,225 52,225 52,225 53,225 53,225 53,225 53,225 53,225 53,225 53,225 54,225 54,225 54,225 54,225 54,225 54,225 54,225 54,225 54,224 54,224 54,224 54,224 54,224 54,224 54,224 54,224 54,224 54,224 54,224 54,224 54,224 54,224 54,224 54,224 54,223 54,223 54,223 54,223 54,223 54,223 54,223 54,223 55,223 55,223 55,223 55,223 55,223 55,223 55,223 55,223 55,223 55,222 55,222 55,222 55,222 55,222 55,222 55,222 55,222 55,222 55,222 55,222 55,222 55,222 55,222 55,222 55,222 56,222 56,222 56,222 56,222 56,222 56,222 56,222 56,222 56,222 56,222 56,222 56,222 56,222 56,222 56,222 57,222 57,222 57,222 57,222 57,222 57,222 57,222 57,222 57,222 57,222 57,222 57,222 57,221 57,221 57,221 57,221 57,221 57,221 57,220 57,220 57,220 57,220 57,220 56,220 56,220 56,219 56,219 56,219 56,219 56,219 56,219 56,219 56,219 56,219 55,218 54,218 54,218 54,218 54,218 53,218 53,218 53,218 53,218 53,217 52,217 52,217 52,217 52,217 52,217 52,217 52,216 52,216 52,216 51,216 51,216 52,216 52,216 52,216 52,216 52,215 52,215 52,215 52,215 52,215 52,215 52,215 53,215 53,215 53,215 53,214 53,214 54,214 54,214 54,214 54,214 54,214 54,214 54,214 54,214 54,213 54,213 54,213 54,213 53,213 53,213 53,213 53,212 53,212 53,212 53,212 53,212 52,212 52,212 52,212 52,212 52,212 52,212 51,212 51,212 51,212 51,212 51,212 51,212 50,212 50,212 50,212 50,211 50,211 50,211 50,211 50,211 49,210 49,210 49,210 49,210 48,210 48,210 48,210 48,210 48,210 48,210 48,210 48,210 48,210 47,210 47,209 47,209 47,209 47,208 48,207 48,207 48,207 48,207 48,207 49,207 49,207 48,206 48,206 48,206 48,206 48,206 48,206 48,206 48,206 47,206 47,206 47,206 47,206 47,206 47,206 47,205 47,205 46,205 46,205 46,205 46,205 45,205 45,205 45,205 45,205 45,205 44,205 44,205 44,205 44,205 44,205 44,205 44,205 44,204 44,204 43,204 43,204 43,204 42,204 42,204 42,204 42,204 42,204 41,204 41,204 41,204 41,204 42,203 42,203 41,203 40,203 40,203 40,203 40,203 39,202 39,202 38,202 38,202 37,202 37,202 37,202 37,202 37,202 37,202 37,202 37,201 37,201 37,201 37,201 36,200 36,199 34,199 34,199 34,200 33,200 33,200 32,200 32,200 32,200 32,200 32,199 32,199 32,199 32,199 32,199 32,199 31,200 31,200 31,200 31,200 31,200 31,200 31,200 31,199 31,199 31,199 31,199 31,199 31,199 31,199 31,199 31,198 31,198 31,198 31,198 31,198 30,198 30,198 30,198 30,197 29,197 29,197 29,197 29,196 29,196 29,197 28,197 28,197 28,197 28,197 28,196 28,196 28,196 28,196 28,196 28,196 28,196 28,195 28,195 27,195 27,195 27,195 27,195 27,194 26,194 26,194 26,194 26,194 26,194 26,193 26,193 26,193 25,193 25,192 25,192 25,192 25,192 26,192 26,191 27,191 27,190 27,190 27,190 28,190 28,189 28,189 28,189 28,189 28,189 28,189 28,188 28,187 28,187 28,187 27,187 27,187 27,187 26,187 26,187 26,187 26,186 25,186 25,186 26,185 26,185 25,185 25,185 25,185 25,185 25,185 25,185 25,184 24,184 24,184 24,184 24,184 24,184 24,184 24,184 23,183 23,183 23,183 23,183 23,183 23,183 23,183 23,183 24,183 23,182 23,182 23,182 22,182 22,182 21,182 21,182 20,182 19,182 19,182 19,182 17,182 16,182 15,182 15,182 13,183 12,183 12,183 11,183 10,183 10,183 9,183 9,183 8,182 8,182 8,182 8,182 7,182 7,182 5,182 5,182 4,182 3,182 2,181 1,181 0,180" id="1210" class="canton" fill="steelblue" stroke-width="1" stroke="white" geotype="canton" geoname="Lot et Truyre" code_insee="1210" code_departement="12" nom_departement="Aveyron" code_region="76" nom_region="Occitanie"/></svg>