<?xml version="1.0" encoding="utf-8"?>
<svg version="1.1" id="svgmap" xmlns="http://www.w3.org/2000/svg" xmlns:xlink="http://www.w3.org/1999/xlink" x="0px" y="0px" width="100%" height="100%" viewBox="0 0 500 391">
<polygon points="297,154 337,144 357,157 369,165 370,166 399,185 414,190 443,199 450,202 455,196 462,198 464,194 465,193 469,191 479,190 484,191 489,192 490,192 495,189 499,188 499,189 499,193 500,197 500,197 499,208 498,208 498,208 499,208 499,209 498,213 498,214 498,214 498,215 498,216 499,216 497,224 495,229 495,231 495,231 494,231 484,229 480,228 480,228 475,231 468,235 464,238 458,224 452,214 443,216 436,218 435,218 435,221 436,226 436,230 437,233 432,233 434,237 422,240 427,245 427,245 423,245 422,245 419,245 419,243 414,237 412,239 411,240 405,247 403,249 400,251 397,254 397,255 396,256 394,259 390,254 382,258 385,261 392,268 394,269 397,272 405,280 410,285 413,288 409,290 403,294 402,294 388,302 387,302 386,303 368,309 351,317 342,321 342,325 339,325 329,326 328,329 327,327 326,327 326,327 328,329 329,329 328,332 327,334 326,337 326,336 323,344 308,346 301,346 300,348 302,350 303,351 304,353 305,354 308,357 311,361 317,369 320,372 321,374 322,375 323,377 324,385 318,386 318,385 318,384 318,384 318,383 316,378 315,378 309,377 308,376 307,377 305,377 302,377 300,377 298,377 295,378 293,378 291,378 290,378 287,378 288,379 287,379 286,379 282,379 280,380 279,379 277,379 274,380 272,380 269,380 267,380 266,380 263,381 261,381 259,381 254,383 249,384 247,384 244,385 241,385 238,386 235,386 232,387 230,387 218,390 218,390 217,391 217,391 216,390 211,390 210,389 209,389 209,389 208,388 208,388 204,386 202,384 201,382 200,382 200,382 199,381 199,381 199,380 199,380 200,379 200,379 201,376 202,376 205,377 212,373 214,369 213,368 209,370 206,366 205,366 209,371 199,375 195,371 191,372 195,378 194,378 186,368 179,359 178,358 171,350 169,348 125,367 125,368 124,367 164,349 168,347 170,346 171,346 171,346 172,346 172,346 176,333 176,333 176,332 176,332 175,332 175,332 175,332 175,331 176,327 177,327 177,326 177,326 177,326 178,326 184,306 187,297 188,297 191,288 190,288 190,288 190,288 190,287 190,287 192,283 192,282 192,282 192,282 193,282 193,282 194,281 193,281 193,280 194,280 202,259 202,259 202,258 202,258 200,255 200,255 199,255 199,255 199,255 199,255 199,255 197,252 197,252 197,252 197,252 183,235 183,235 182,235 183,235 183,235 182,235 178,230 178,230 178,229 159,207 159,207 159,207 159,206 159,206 158,206 154,201 154,201 154,201 138,182 138,182 137,181 138,181 137,181 137,181 136,179 136,179 118,157 117,157 117,157 117,156 117,156 117,156 116,155 116,155 99,135 98,134 98,134 97,133 98,133 97,133 97,132 96,131 96,131 77,108 76,108 76,108 76,108 76,107 75,107 74,105 74,105 55,83 55,83 54,82 55,82 54,81 54,81 53,80 53,80 51,77 31,53 30,53 30,53 30,53 29,52 29,51 28,50 28,50 5,22 4,23 4,22 4,22 4,21 3,21 2,20 2,19 0,17 0,17 1,16 3,17 3,17 4,17 15,13 13,11 24,6 21,3 21,1 90,4 92,4 97,5 102,4 107,0 116,1 124,2 129,2 134,4 135,5 140,11 143,26 142,28 147,29 148,29 148,29 148,35 150,43 161,51 162,52 165,52 167,54 168,54 172,57 175,57 178,57 182,57 181,59 181,60 182,65 182,71 182,73 184,74 184,75 186,77 190,82 192,84 192,85 193,85 194,86 201,97 203,100 207,106 215,114 227,126 228,129 230,131 231,133 233,136 234,137 236,140 236,141 235,143 235,146 236,147 239,152 242,155 249,162 256,171 269,186 269,187 275,185 274,183 276,181 276,181 279,175 280,169 284,160 284,158 297,154" id="1313" class="canton" fill="steelblue" stroke-width="1" stroke="white" geotype="canton" geoname="Marseille-2" code_insee="1313" code_departement="13" nom_departement="Bouches-du-Rhône" code_region="93" nom_region="Provence-Alpes-Côte d'Azur"/></svg>