<?xml version="1.0" encoding="utf-8"?>
<svg version="1.1" id="svgmap" xmlns="http://www.w3.org/2000/svg" xmlns:xlink="http://www.w3.org/1999/xlink" x="0px" y="0px" width="100%" height="100%" viewBox="0 0 500 226">
<polygon points="4,55 4,55 5,55 6,54 6,53 7,53 8,53 9,53 10,53 11,53 11,54 12,54 12,54 13,54 14,54 14,54 15,53 16,53 16,53 17,52 19,52 19,52 20,52 21,53 23,53 24,53 25,54 25,55 25,56 25,56 26,56 26,56 26,56 27,56 27,56 28,55 29,55 31,55 32,55 32,55 32,55 33,54 33,54 32,53 32,53 32,52 32,52 32,51 32,51 32,51 33,51 33,51 33,51 33,51 33,52 33,52 34,53 34,53 37,54 37,54 37,54 39,53 39,53 40,53 41,52 43,52 44,51 45,51 45,51 45,51 45,51 44,50 44,50 44,50 44,50 45,49 45,50 46,50 46,50 46,50 46,51 46,51 47,51 48,52 48,52 48,53 49,54 49,54 50,54 50,54 50,53 51,52 51,52 52,52 52,52 53,52 54,52 54,52 54,52 55,52 55,51 55,51 55,50 56,50 56,50 56,50 58,51 59,51 58,52 58,52 59,52 60,52 60,52 61,52 62,53 63,53 65,54 66,54 67,54 67,54 68,54 68,54 68,54 68,53 68,53 67,53 66,52 64,52 64,51 63,51 63,50 63,50 63,50 64,50 64,50 65,51 66,51 66,51 67,52 68,52 69,52 70,52 71,52 71,52 73,51 74,51 74,51 74,51 76,51 76,51 77,52 77,52 78,51 79,51 79,51 80,50 81,49 82,49 82,48 83,47 83,47 84,47 84,47 84,47 85,47 85,47 86,46 86,45 86,45 86,45 87,44 87,45 88,45 89,45 89,45 90,46 90,46 91,46 91,46 91,45 91,44 92,43 92,43 93,42 94,42 95,42 96,42 96,42 97,42 97,42 97,42 98,42 98,41 98,41 98,41 98,41 99,41 99,41 99,40 99,40 99,40 99,40 100,40 100,40 101,40 101,39 102,39 102,39 102,39 102,38 103,38 103,38 104,38 104,38 105,38 105,38 105,37 105,37 106,37 107,36 107,36 107,36 107,36 108,35 108,35 109,35 109,35 110,35 110,35 110,35 110,35 110,35 111,34 111,34 111,34 111,33 111,33 111,33 111,33 111,33 111,32 111,32 110,32 110,31 110,31 110,31 110,31 110,30 110,30 109,30 109,30 108,29 107,29 107,29 107,29 105,28 104,28 103,27 103,27 103,27 103,27 103,25 103,25 103,25 103,24 103,24 103,24 104,24 104,24 104,23 103,23 103,23 104,21 104,21 104,21 104,20 104,20 105,20 105,20 105,20 105,20 104,19 105,19 105,18 106,18 106,18 106,18 106,18 108,17 108,17 108,17 108,16 109,16 109,15 109,15 109,14 109,14 108,14 108,13 108,13 109,12 110,12 111,12 113,12 115,12 115,12 115,11 115,10 115,10 115,9 115,9 115,8 114,7 114,7 114,6 114,6 114,6 115,5 116,5 116,5 116,5 116,5 116,4 116,4 117,3 117,3 117,3 117,3 117,3 117,3 118,3 119,3 119,3 119,3 120,3 120,3 120,3 120,3 120,3 121,3 121,3 121,2 121,2 121,1 121,1 121,1 121,1 121,1 122,1 122,1 123,2 123,2 124,2 125,2 125,2 126,2 127,2 128,2 129,2 129,2 130,2 130,2 131,2 131,2 131,2 131,1 131,1 132,1 132,1 132,1 133,1 133,1 134,1 134,1 135,0 135,0 135,0 135,0 136,0 136,0 136,0 136,1 136,1 136,1 136,1 136,1 135,2 135,2 135,2 135,2 135,2 134,2 134,3 133,3 133,4 133,4 134,4 134,5 134,5 133,7 133,7 133,7 133,7 133,8 133,8 133,8 133,8 133,8 133,8 133,8 133,8 133,9 133,9 133,9 134,9 134,10 134,10 134,10 134,10 134,10 134,10 134,11 134,12 134,12 134,12 134,13 134,13 134,13 134,14 134,14 135,14 135,14 135,14 135,14 136,14 136,14 136,15 136,15 136,15 137,15 137,15 137,15 137,16 137,16 138,16 138,16 138,16 138,16 138,16 138,16 138,16 138,16 139,16 139,16 139,16 139,16 139,16 139,16 140,16 140,16 140,16 140,16 140,16 140,16 140,16 140,16 140,16 141,16 141,16 141,16 141,16 141,16 142,16 142,16 142,16 142,16 142,16 142,16 142,16 142,16 142,16 142,16 142,16 143,16 143,16 143,16 143,16 143,16 143,16 144,16 144,16 144,16 144,16 145,16 145,16 145,16 145,16 145,16 146,17 146,17 146,16 146,16 146,16 146,16 146,16 146,16 147,17 147,17 147,17 147,17 147,17 148,17 148,17 148,17 148,17 148,17 149,17 149,17 149,17 149,17 149,17 149,17 149,17 150,17 150,17 150,17 150,17 150,17 150,17 150,17 150,17 150,17 150,17 150,17 150,17 150,17 150,17 150,17 151,17 151,17 151,16 151,16 152,16 152,16 152,16 152,16 153,16 153,17 153,17 153,17 153,17 154,17 154,17 154,16 153,16 153,16 153,16 154,16 154,16 154,16 154,16 154,16 154,16 154,16 154,16 155,16 155,16 156,16 156,16 156,17 156,17 157,17 157,17 157,17 157,17 157,17 157,17 158,17 158,17 158,17 158,17 158,17 158,17 158,17 158,16 158,16 158,16 158,16 158,16 158,16 158,16 158,16 159,16 159,16 159,16 159,16 159,16 159,16 159,16 159,16 159,16 159,16 159,16 159,16 160,16 160,16 160,16 160,16 160,16 160,16 160,16 160,16 160,16 160,16 161,16 161,16 161,16 161,16 161,15 161,15 161,15 161,15 161,15 161,15 161,15 161,15 161,15 161,15 161,15 161,15 161,15 161,15 161,15 161,15 161,15 161,15 162,15 162,15 163,15 163,15 163,15 163,15 163,15 163,15 163,15 163,14 163,14 163,14 163,14 163,14 163,14 163,14 163,14 163,14 163,14 163,14 164,14 164,14 164,14 164,14 164,14 164,14 164,13 164,13 164,13 164,13 164,13 164,13 164,13 164,13 165,13 165,13 165,13 166,13 166,13 166,13 166,13 166,13 167,13 167,13 168,13 168,13 168,14 168,15 169,15 169,15 169,15 169,15 169,15 169,15 170,15 170,15 170,15 170,15 170,15 170,15 170,15 170,15 170,15 170,15 170,15 170,15 170,15 170,15 171,15 171,15 171,15 171,15 171,15 171,14 171,14 171,14 172,14 172,14 172,14 172,14 172,14 172,14 172,14 173,14 173,14 174,14 174,13 174,13 174,13 174,13 174,12 174,12 175,12 175,12 176,12 176,12 176,12 176,12 177,12 177,12 177,12 177,12 177,12 178,12 178,12 178,12 180,13 180,13 180,13 182,13 183,13 183,13 183,13 183,13 183,13 183,13 183,14 183,14 183,14 184,14 185,14 185,14 186,14 186,15 187,15 188,16 188,16 189,16 189,16 189,16 191,17 192,17 192,17 193,17 193,17 193,17 194,17 194,17 194,17 195,18 195,18 195,18 195,18 195,18 195,19 196,19 196,19 196,19 196,18 197,18 197,18 197,18 198,18 199,18 199,18 199,18 199,18 199,18 199,18 199,18 199,18 199,18 200,18 200,18 200,18 200,18 200,18 200,18 200,19 200,19 201,19 201,19 201,19 201,19 201,19 201,19 201,19 201,19 201,18 201,18 201,18 201,18 201,18 200,17 200,17 201,17 201,17 201,17 201,17 200,16 200,16 200,16 200,16 200,16 201,16 201,16 201,16 201,16 202,15 202,15 202,15 202,15 202,15 203,15 203,15 204,14 204,14 204,14 204,14 204,14 204,14 205,14 205,14 205,14 205,14 205,13 205,13 205,13 205,13 204,12 204,12 204,12 204,12 205,12 205,12 205,11 206,11 206,11 206,11 205,10 205,10 206,10 206,9 206,9 206,9 206,9 206,9 207,8 207,8 208,7 208,7 208,7 209,8 209,8 209,8 209,8 209,8 209,8 209,8 210,9 210,9 211,9 211,9 210,9 210,10 210,10 210,10 210,10 210,10 210,11 209,11 209,12 209,12 210,13 210,13 210,13 211,13 211,13 211,13 212,13 212,12 211,12 211,12 211,12 212,12 212,12 212,12 212,12 213,12 213,12 213,12 213,11 213,11 214,11 214,11 214,11 214,11 214,11 214,11 215,11 215,11 215,11 215,11 216,11 216,11 216,11 218,10 218,10 218,10 219,10 219,10 219,10 219,11 219,11 219,11 219,11 219,11 220,11 220,11 220,11 220,11 220,11 220,11 220,10 220,10 221,10 221,10 221,10 221,10 221,10 221,10 221,10 221,10 221,9 221,9 220,9 220,8 220,8 220,8 220,8 220,8 220,8 221,8 221,8 222,8 222,8 222,8 222,7 223,7 223,7 223,7 223,7 223,7 223,7 223,7 223,7 223,7 223,7 223,7 224,7 224,7 224,7 224,7 224,7 224,7 225,6 225,6 224,6 224,6 224,6 224,6 224,6 224,6 224,6 224,6 224,6 225,6 225,6 225,6 225,6 225,6 225,6 226,6 226,6 226,6 226,6 226,6 226,6 226,6 226,6 226,6 227,6 227,6 227,6 227,6 228,6 228,6 228,7 228,7 228,7 228,7 228,7 228,7 228,7 228,7 228,7 228,7 228,7 228,7 228,8 229,8 229,8 229,8 229,8 229,8 229,8 229,8 229,8 229,8 230,8 230,9 230,9 230,9 230,9 230,9 230,8 231,8 231,8 231,8 231,8 231,8 231,8 230,8 230,7 230,7 230,7 230,7 230,7 231,7 232,7 232,7 232,7 232,7 232,7 233,8 233,8 233,8 234,8 234,8 234,8 234,8 234,8 235,7 235,7 236,8 236,8 236,8 236,8 236,8 237,8 237,8 237,8 237,8 239,8 239,8 239,9 238,9 238,9 238,9 238,9 238,9 238,9 238,9 238,9 238,10 238,10 238,10 238,10 238,10 239,10 239,10 239,10 239,10 239,10 240,10 240,10 240,10 240,10 240,10 240,10 241,10 241,10 241,10 241,11 241,11 241,11 242,11 242,11 242,11 242,11 242,11 242,11 242,11 243,11 243,11 243,12 243,12 243,12 244,12 244,12 244,12 244,12 244,12 244,13 245,13 245,14 245,14 245,14 245,14 246,14 246,14 246,13 246,13 246,13 246,13 247,14 247,14 247,14 247,14 247,14 247,14 248,15 248,15 248,15 248,14 248,14 249,15 249,15 249,15 249,15 250,15 250,16 250,16 251,16 251,16 251,17 251,17 252,17 252,17 253,17 253,17 253,17 253,18 254,18 254,18 254,19 254,19 255,19 255,19 255,20 255,20 255,20 255,20 255,20 255,20 255,20 255,20 256,20 256,21 257,21 262,22 262,22 262,22 262,22 262,22 262,22 262,22 263,23 263,23 266,23 267,23 268,23 269,23 270,24 271,24 275,24 275,24 276,24 276,24 276,24 276,24 276,24 276,25 276,25 276,25 277,25 277,25 277,25 277,25 280,25 280,25 280,25 280,25 281,25 281,25 282,25 283,24 283,24 283,24 284,24 285,24 285,24 285,24 285,24 286,23 286,23 286,23 287,23 288,23 288,23 289,23 289,23 289,23 292,23 292,23 292,23 293,23 294,24 295,24 296,24 296,24 297,25 298,25 298,25 299,25 299,25 299,24 300,25 300,25 300,25 300,25 301,24 301,24 302,24 302,24 303,24 303,25 303,25 304,25 305,25 306,25 306,25 307,25 308,25 308,26 309,26 309,26 309,26 309,26 311,26 311,26 311,26 311,26 311,26 311,26 311,26 311,25 311,25 312,25 312,24 312,24 312,24 312,24 311,24 311,24 311,24 311,24 312,23 312,23 312,23 312,23 312,23 313,23 313,23 313,23 313,23 314,23 314,23 314,23 314,23 314,23 315,23 315,23 315,23 316,23 316,23 316,23 316,23 316,23 316,23 317,23 319,23 319,23 320,23 321,23 321,23 321,23 321,23 321,23 322,23 322,23 322,22 322,22 323,22 323,22 323,22 323,23 324,23 324,23 324,24 324,24 325,24 325,25 326,25 326,25 326,25 327,25 327,25 328,25 328,25 328,25 328,25 329,25 329,25 329,25 329,25 330,25 330,25 331,26 331,26 331,26 331,26 332,27 332,27 332,27 333,27 333,27 333,27 333,27 334,27 334,28 334,28 335,28 335,28 335,28 336,28 336,28 336,28 337,28 338,28 338,28 338,28 339,28 339,28 339,28 339,28 340,28 341,28 342,28 342,28 343,28 343,28 343,29 345,29 345,29 346,29 346,29 346,29 346,29 347,29 347,29 348,29 348,30 348,30 348,30 349,30 350,30 350,30 350,30 351,30 351,30 352,30 352,30 352,30 352,30 352,30 352,30 353,30 353,30 353,30 354,30 354,30 355,30 355,30 355,30 355,30 355,30 356,30 356,29 356,29 356,29 358,29 358,29 358,29 358,29 358,29 359,29 360,29 360,28 360,28 362,28 362,28 363,28 364,27 364,27 364,27 364,27 365,27 365,27 365,27 366,27 366,27 367,27 367,27 367,28 367,28 368,28 368,28 369,28 369,28 369,28 370,28 370,28 370,28 370,28 370,28 371,28 371,28 372,27 372,27 372,27 373,27 373,27 373,27 374,27 374,27 375,27 376,28 377,28 379,28 379,28 379,28 380,28 380,28 381,28 381,28 382,28 382,29 382,29 382,29 383,28 383,28 383,28 383,28 383,28 383,28 383,28 384,28 384,28 384,28 384,28 385,28 386,27 386,27 386,27 387,27 388,27 388,27 388,27 388,27 389,27 389,27 390,26 391,26 391,26 391,26 391,26 392,26 392,26 392,26 392,26 392,26 392,25 392,25 391,25 391,25 392,25 392,24 393,24 393,24 393,24 393,24 393,24 393,23 393,23 393,23 394,23 394,23 394,23 394,23 395,23 395,23 395,23 395,23 396,23 396,23 396,23 396,23 396,23 396,23 396,23 396,23 396,23 396,23 397,23 397,23 397,23 397,23 398,23 398,23 398,23 399,23 399,23 399,23 400,23 400,23 400,23 401,23 401,23 401,23 402,22 402,22 403,22 403,22 403,22 403,22 403,22 404,22 404,22 404,22 404,22 405,22 405,22 405,22 406,22 406,22 406,22 407,22 407,22 408,22 408,22 408,22 409,22 409,22 409,22 409,22 410,22 410,21 411,21 411,21 411,21 411,21 411,21 411,21 411,21 411,21 411,21 412,21 411,22 412,22 412,22 412,22 412,22 412,22 412,22 412,22 412,22 412,22 412,22 412,22 412,22 412,22 413,22 413,22 413,22 413,22 414,22 414,22 414,22 414,22 414,22 415,22 415,22 415,23 415,22 415,22 415,23 416,23 416,23 416,23 416,23 417,23 417,23 417,23 417,24 417,24 418,24 418,24 418,24 418,24 418,24 418,24 418,25 419,25 419,25 419,25 419,25 419,25 419,25 420,25 420,25 420,25 421,25 421,25 421,25 421,25 422,25 422,25 422,25 422,25 423,25 423,25 423,25 423,25 423,25 423,25 423,25 423,25 423,25 424,25 424,25 424,25 425,27 425,27 425,28 425,29 425,29 425,29 426,29 426,29 427,29 427,29 428,29 429,29 429,29 429,29 430,29 430,29 430,28 430,28 431,28 431,28 433,28 433,28 434,28 434,29 434,29 435,29 436,29 436,29 437,29 437,29 438,29 438,29 439,30 440,30 440,30 440,30 441,29 441,29 441,29 442,29 442,29 442,29 442,30 442,30 442,30 443,29 443,30 443,30 443,30 443,30 443,29 443,29 443,29 443,29 443,29 444,29 444,29 444,29 444,30 444,30 444,29 445,29 445,29 445,29 446,29 446,29 446,29 446,29 447,29 447,29 447,29 448,29 448,29 450,29 452,29 456,28 459,28 459,28 459,28 460,28 460,28 460,27 460,27 460,27 461,27 461,26 461,26 462,26 462,26 465,25 467,24 468,24 470,23 470,23 471,23 471,23 472,23 474,23 477,23 477,23 477,23 477,22 477,22 477,22 476,22 476,21 476,21 475,20 475,19 474,19 474,19 474,18 473,18 473,18 473,18 472,17 472,17 471,17 471,17 471,17 472,17 472,17 473,17 473,17 473,17 473,17 473,17 473,16 473,16 473,16 473,16 473,16 473,15 472,11 472,11 472,11 473,11 475,11 475,11 475,11 475,11 476,11 477,11 478,11 478,11 479,10 479,10 480,10 480,10 481,10 482,9 483,9 484,9 484,8 484,8 485,8 485,8 485,6 485,6 485,6 486,7 487,8 488,8 488,8 488,8 489,9 489,9 490,9 491,10 491,10 493,11 494,11 494,11 494,12 494,12 495,12 496,13 496,13 496,13 497,14 497,14 498,14 498,14 498,14 499,14 499,14 500,14 499,15 499,16 499,16 499,17 499,17 499,18 499,18 498,19 498,19 497,20 497,19 496,20 496,20 495,20 495,20 495,20 494,20 494,20 494,20 493,20 491,21 491,21 491,21 491,21 490,22 489,22 489,22 489,22 488,23 487,23 487,24 487,24 487,24 487,24 487,25 488,25 488,25 487,25 487,25 487,26 486,26 486,26 486,27 485,27 485,27 485,27 485,28 485,28 485,28 485,28 485,29 485,29 485,29 485,29 485,30 485,31 487,32 487,33 486,33 487,33 486,35 487,37 486,39 486,39 486,39 484,39 484,39 483,39 482,39 481,40 481,40 481,40 481,40 481,40 481,40 481,40 480,40 479,41 478,41 478,41 478,41 477,42 477,42 477,42 476,42 475,42 475,42 473,42 472,43 472,43 471,43 471,43 471,44 470,44 469,44 468,45 467,45 466,45 466,45 465,46 464,46 464,46 464,46 463,46 463,46 462,47 462,47 462,47 461,47 461,47 461,47 460,47 460,47 459,48 459,48 458,48 458,48 458,48 457,48 457,48 456,48 455,48 454,48 453,48 451,49 450,49 450,49 448,49 447,49 446,50 446,50 445,50 445,50 445,49 445,49 445,49 445,49 445,49 444,49 441,50 441,50 440,50 439,51 439,51 439,51 438,51 438,51 437,51 436,51 435,51 435,51 434,51 433,51 433,51 432,50 432,51 432,51 430,52 429,53 429,54 427,55 426,55 425,56 425,56 424,56 424,57 424,57 424,57 424,57 421,57 421,57 420,60 419,61 418,60 417,60 417,60 416,60 415,60 414,60 414,60 412,60 411,60 411,60 411,60 410,60 410,59 409,59 409,59 407,59 406,59 406,59 404,59 404,59 404,59 403,59 402,59 402,59 402,59 402,60 402,60 400,60 400,61 400,61 400,61 400,61 399,61 399,61 399,61 400,61 401,62 401,62 402,64 402,64 403,64 403,64 403,65 403,65 402,65 401,65 401,65 401,65 401,65 400,65 399,66 399,66 398,66 398,66 398,67 397,67 396,67 396,67 396,67 396,67 395,68 394,68 394,69 393,69 393,69 393,69 392,70 392,70 392,70 391,70 390,70 390,70 389,70 389,71 388,71 388,71 387,71 387,71 387,71 385,71 384,71 384,71 384,71 384,72 384,72 383,72 383,72 383,72 382,73 382,73 382,73 382,73 381,73 381,74 381,74 380,74 380,74 380,74 380,74 380,74 380,74 380,74 380,75 379,75 379,75 379,75 379,76 379,76 378,77 378,77 378,77 378,77 378,77 378,77 377,78 376,78 375,78 375,79 375,79 375,79 375,79 374,79 374,79 374,79 373,79 373,80 372,81 372,82 372,82 372,82 372,82 372,83 372,83 372,83 372,84 372,84 372,84 373,84 374,83 374,83 375,83 375,83 376,83 377,83 377,83 377,83 377,84 377,84 377,84 376,84 376,84 376,84 375,84 375,84 374,84 374,84 373,84 373,85 373,85 372,85 372,85 371,85 371,85 371,85 371,85 370,85 370,85 370,85 370,85 369,85 369,85 369,85 369,85 368,85 368,85 368,85 368,85 368,85 367,86 367,86 367,86 366,86 366,86 366,86 365,86 365,86 365,86 365,87 365,87 365,87 365,87 364,87 364,87 364,87 365,87 365,88 365,88 365,88 365,88 366,88 366,88 366,89 366,89 366,89 366,89 366,89 365,89 365,89 365,89 364,90 364,90 364,90 364,90 365,90 365,91 365,91 365,91 365,91 365,92 365,92 365,92 365,92 366,92 366,92 366,93 366,93 366,93 366,92 366,92 367,92 367,92 367,92 368,92 368,92 368,92 368,93 368,93 368,93 368,93 367,93 367,93 367,93 367,94 367,94 367,94 367,94 367,94 366,94 366,94 366,94 365,94 365,94 365,94 365,94 366,95 366,95 366,95 366,95 366,96 366,96 366,97 366,98 365,98 365,98 365,98 365,98 366,99 366,99 367,100 367,100 367,100 368,100 368,100 368,100 369,100 369,101 369,101 369,102 369,102 369,102 370,102 370,102 371,101 371,101 371,102 371,102 371,102 371,102 371,102 371,102 371,102 371,103 371,103 371,103 371,103 371,103 371,103 372,103 372,103 372,104 372,104 373,104 373,104 373,104 374,104 374,104 375,104 375,104 375,104 375,104 375,104 375,104 375,105 375,105 375,105 375,105 374,105 375,105 375,105 375,105 375,106 375,106 375,106 374,106 374,106 374,106 374,106 373,107 373,107 373,107 373,107 372,107 372,107 372,107 372,107 372,108 372,108 372,108 372,108 372,108 372,109 371,109 371,109 371,109 371,109 371,110 370,110 370,110 370,110 371,110 371,110 370,110 370,110 370,111 371,111 371,111 371,111 372,112 373,112 373,112 373,112 374,112 374,112 374,112 374,112 375,113 375,113 375,113 375,113 375,113 375,113 375,113 375,114 375,114 375,114 375,114 376,115 376,115 376,115 376,115 375,116 375,116 375,116 375,116 375,117 374,117 374,117 374,117 374,117 374,117 374,117 374,118 374,118 374,118 375,119 375,119 375,119 375,119 377,119 377,119 378,120 378,120 378,120 377,120 377,121 377,121 377,121 377,121 378,121 378,121 378,121 378,121 377,121 377,121 377,121 377,121 377,122 376,122 376,122 376,122 376,122 376,122 375,122 375,122 375,122 375,122 375,122 375,122 375,122 374,122 374,122 374,122 373,121 373,122 373,122 373,122 373,122 374,122 374,122 374,122 374,122 374,123 373,123 373,123 373,123 373,123 373,123 373,124 373,124 372,124 371,125 371,125 370,125 370,125 370,126 370,126 368,126 367,126 367,127 366,127 366,128 365,128 365,128 365,129 364,130 363,130 363,131 363,131 362,132 362,132 361,132 361,132 361,132 361,133 360,133 360,133 360,133 360,133 359,134 359,134 359,134 358,134 357,135 357,135 357,135 355,136 355,136 355,136 354,136 353,137 353,137 352,137 352,138 351,138 351,138 351,138 351,138 350,138 349,138 348,138 348,138 345,139 345,139 343,139 343,139 343,140 343,140 342,140 341,141 341,141 340,142 339,143 338,143 338,144 337,145 337,145 337,145 337,145 336,145 336,145 337,146 337,146 337,146 338,146 338,146 338,146 337,147 337,147 337,147 338,147 338,147 338,147 338,147 339,147 339,147 340,147 341,147 341,147 341,148 341,148 341,148 342,148 342,149 342,149 341,149 341,150 341,150 342,150 342,150 343,149 343,149 343,149 343,149 343,149 344,149 344,149 345,149 344,149 344,149 344,149 344,150 344,150 343,151 342,152 342,152 342,152 342,152 342,153 342,152 341,151 341,151 340,151 340,151 340,152 340,152 341,152 341,153 341,153 342,153 342,153 342,154 342,154 342,154 342,155 342,155 342,156 342,156 343,157 343,157 342,157 340,157 340,157 340,158 340,158 340,158 340,158 340,158 340,159 340,159 340,159 340,159 340,159 340,159 340,159 340,160 340,160 340,160 340,160 339,160 339,160 338,160 338,160 338,160 338,160 338,160 338,160 338,160 338,160 337,161 337,161 337,161 336,161 336,161 335,161 335,161 335,161 334,161 334,161 333,161 333,161 333,161 333,161 333,160 332,160 332,160 332,160 331,160 330,160 329,159 329,159 328,158 327,158 326,158 326,158 325,158 324,157 324,157 324,157 324,157 324,157 324,156 324,156 324,156 324,156 324,155 324,155 324,155 323,154 323,155 323,154 323,154 323,154 323,155 323,155 322,155 321,156 321,156 321,156 321,156 321,156 321,156 321,156 321,156 322,157 322,157 322,157 322,158 322,158 319,157 319,157 319,157 319,157 318,157 318,157 318,157 318,157 317,157 317,157 317,157 317,157 316,156 316,156 316,156 316,157 316,157 316,158 316,158 315,158 315,158 315,158 315,157 315,158 315,158 315,158 315,158 315,158 315,159 315,159 315,158 314,158 314,158 314,158 313,157 312,156 312,156 312,156 312,156 311,156 311,156 311,157 311,157 311,157 310,157 310,157 310,156 311,155 311,155 311,155 311,155 310,155 310,156 310,156 309,156 309,156 309,156 309,157 309,157 308,158 308,158 307,158 307,158 307,158 306,158 305,158 304,158 304,158 303,158 302,158 301,158 301,158 298,155 297,155 296,155 296,155 295,155 294,156 294,156 294,156 293,156 293,156 293,156 293,156 291,156 291,156 291,156 291,156 291,156 291,156 290,156 289,156 289,156 289,156 289,156 289,157 289,157 290,157 290,157 290,158 290,158 289,158 289,159 289,159 288,159 288,159 288,159 287,160 286,160 286,160 286,160 286,160 285,160 285,161 285,162 285,162 285,162 285,162 284,163 284,163 283,164 282,165 282,165 282,165 281,165 281,165 280,165 280,165 279,165 279,165 279,165 279,165 279,164 279,164 278,165 277,165 277,165 277,165 276,165 275,165 275,165 275,165 274,166 273,166 273,166 273,166 273,166 273,166 272,167 271,167 271,167 271,167 270,168 270,168 269,167 269,167 269,167 269,167 270,167 271,167 271,166 271,166 271,166 271,166 272,166 272,166 272,166 272,165 272,165 272,165 272,165 272,165 272,165 272,165 272,165 271,165 271,166 271,166 270,166 270,166 270,166 270,166 269,166 268,166 268,166 268,166 267,166 267,166 266,167 266,167 266,167 265,167 265,167 265,167 265,167 264,167 263,166 263,166 263,166 262,166 262,166 261,165 260,165 260,164 260,164 260,164 260,164 259,164 259,164 259,164 259,164 259,164 258,164 258,163 258,163 257,163 257,163 256,163 256,163 255,162 255,162 256,162 257,162 257,161 257,161 256,160 255,157 255,157 254,157 254,157 254,157 253,157 253,157 252,157 252,157 252,157 251,157 251,157 251,157 250,157 250,157 250,157 250,157 250,158 250,158 250,158 251,159 251,159 252,160 252,160 252,160 253,161 254,161 254,162 254,162 254,162 253,162 252,162 252,163 252,163 251,163 251,163 250,164 250,164 249,165 249,165 248,165 248,165 248,165 248,166 248,166 248,166 248,166 248,166 249,166 250,168 250,168 250,168 250,168 249,169 249,169 249,169 249,169 251,171 251,171 251,171 252,171 252,171 253,171 253,170 253,170 254,170 254,171 255,171 256,171 256,171 256,172 256,172 256,173 257,173 257,173 257,173 257,173 258,174 258,174 258,174 258,174 259,175 259,175 259,175 259,175 259,176 259,176 260,176 261,176 261,177 261,177 260,177 260,177 259,177 258,178 258,178 258,178 258,178 258,178 258,178 258,178 257,178 256,178 256,178 255,178 255,178 255,178 254,178 254,179 254,179 254,179 254,180 253,181 253,181 252,180 252,179 252,179 252,179 251,179 251,179 251,179 251,179 251,180 252,180 252,180 252,180 252,180 252,181 252,181 252,181 252,182 252,182 251,182 251,182 249,181 248,182 248,182 248,182 247,183 247,183 247,183 247,183 247,184 247,184 247,184 246,184 246,184 246,184 246,184 246,183 246,183 246,183 246,182 246,182 246,182 246,182 246,182 245,181 245,181 245,181 245,181 245,181 244,181 244,181 244,182 244,182 244,182 244,182 244,182 244,182 245,183 245,183 245,183 245,183 245,183 245,184 245,183 245,183 244,183 244,183 244,183 244,184 244,184 244,184 243,184 243,184 243,184 243,184 243,185 245,186 245,186 245,186 245,186 246,187 247,188 248,188 248,188 248,189 248,189 248,189 248,189 248,190 248,190 248,190 248,190 245,191 245,191 244,191 243,192 243,193 242,193 242,194 241,194 241,194 241,194 240,195 240,195 240,195 239,196 238,196 238,196 237,196 236,196 234,197 234,197 235,198 235,198 234,198 233,199 233,199 233,199 233,199 233,199 233,199 233,200 234,200 234,200 234,200 233,201 233,201 233,201 233,201 233,202 233,202 233,203 232,203 232,203 232,203 231,203 231,203 231,203 231,203 232,203 232,203 232,203 232,203 232,203 233,204 233,204 233,204 233,203 233,203 234,203 234,203 234,204 236,204 236,204 235,204 235,204 235,204 235,204 234,204 234,204 234,204 234,204 234,205 234,205 234,205 234,205 234,205 234,205 234,205 234,205 234,206 234,206 233,206 233,206 233,206 233,206 233,206 233,207 233,207 232,207 232,207 232,208 232,208 232,208 232,208 232,208 232,208 232,209 231,209 231,209 231,210 232,210 232,210 232,210 232,210 232,210 232,210 232,210 232,210 232,210 232,210 232,210 232,210 232,210 233,210 233,210 233,210 234,211 235,211 235,211 235,211 235,211 235,211 235,211 235,211 235,211 235,211 236,212 236,212 237,213 237,213 237,213 237,213 237,213 237,214 236,214 236,214 236,214 235,215 235,215 234,215 234,216 233,216 233,216 233,216 232,215 232,215 232,216 229,216 227,217 227,217 226,217 226,218 226,218 226,218 226,218 225,218 225,218 225,218 225,218 224,218 224,218 223,218 223,218 222,219 222,219 222,219 222,219 222,219 221,219 220,220 220,220 220,220 220,220 220,220 220,220 219,220 219,220 219,220 219,220 217,220 216,220 214,220 214,219 214,220 214,220 213,220 213,220 213,220 212,220 212,221 212,221 212,221 211,220 211,220 211,220 210,220 209,220 209,220 208,220 208,220 208,220 208,220 208,220 207,220 206,220 206,220 206,220 206,220 206,221 206,221 206,222 206,222 206,223 206,223 206,224 206,224 207,224 207,224 207,224 207,224 207,224 207,224 207,224 207,225 207,225 207,225 207,225 206,225 205,225 205,226 204,226 204,226 204,226 204,226 204,226 204,226 204,226 203,226 203,226 203,226 202,226 202,226 202,226 201,226 201,225 201,225 201,225 201,224 201,224 201,224 201,224 201,224 201,223 200,224 200,224 200,223 200,223 199,224 199,224 198,224 198,224 197,224 196,224 195,224 194,224 194,224 191,224 191,224 190,224 189,224 189,224 188,224 187,224 185,224 185,224 185,224 184,224 184,224 184,224 184,224 184,224 184,224 183,224 183,224 182,223 182,223 181,222 180,222 180,221 180,221 180,221 180,221 180,221 180,221 180,221 180,221 180,221 180,221 180,220 180,220 180,220 180,220 180,220 180,220 180,220 180,220 180,220 180,220 180,220 180,220 179,220 179,220 179,220 178,219 178,219 178,219 178,219 178,219 178,219 178,218 178,218 178,218 178,218 177,218 177,217 177,217 177,217 177,216 177,216 179,216 179,216 179,216 178,216 178,216 179,216 179,216 179,215 180,216 180,215 180,215 180,214 180,214 180,214 180,214 180,214 179,214 179,214 179,214 179,215 179,215 178,215 178,214 177,214 176,214 176,214 176,214 176,214 176,215 175,215 175,215 175,216 176,216 176,216 176,216 176,217 176,217 176,217 176,218 176,218 176,218 176,218 175,218 175,218 175,219 175,219 175,219 176,219 176,219 175,220 175,220 172,220 172,220 172,220 172,220 171,221 171,221 171,221 171,222 171,222 170,221 170,221 170,220 170,220 170,220 170,220 171,220 171,220 171,220 170,220 170,220 170,220 169,220 169,220 169,220 171,219 171,219 171,219 172,219 172,219 171,218 170,218 170,218 170,218 170,218 170,218 169,218 169,217 169,217 169,217 168,218 168,218 168,218 168,218 167,218 167,219 167,219 167,219 167,219 167,219 167,219 166,219 166,219 166,219 166,219 166,219 165,219 165,219 165,219 165,218 165,218 164,219 164,219 163,219 163,218 163,218 163,218 163,218 163,217 163,217 162,217 162,216 162,216 163,216 163,216 163,216 163,215 163,215 163,215 164,215 164,215 164,214 164,214 164,214 164,213 164,212 164,212 164,212 164,212 163,213 163,213 163,213 163,213 163,213 162,213 162,212 162,212 162,212 162,212 161,212 161,212 161,212 161,211 161,211 161,211 161,211 161,211 161,210 162,210 162,210 162,209 160,208 161,208 161,208 161,208 161,207 161,207 161,207 161,207 161,207 161,207 162,207 162,207 162,207 162,207 162,207 161,207 161,206 161,206 160,206 160,205 160,205 160,205 160,205 159,205 159,204 159,204 159,204 159,204 159,204 158,204 158,204 158,204 157,205 154,206 154,205 152,206 152,206 152,206 152,205 151,206 151,206 152,206 153,207 153,207 153,207 153,207 153,208 153,208 153,209 152,210 152,210 152,210 152,210 151,209 151,209 152,209 152,209 151,209 150,208 150,208 149,208 149,208 148,207 148,207 147,207 147,207 147,208 147,208 147,208 148,208 148,208 149,208 149,208 150,209 150,209 150,209 150,210 149,210 149,210 149,210 148,210 147,210 147,209 146,209 146,209 146,210 146,211 146,211 146,211 147,212 148,212 147,213 147,213 147,213 147,213 148,213 148,213 149,214 149,214 150,215 150,215 150,215 150,215 151,216 151,216 151,217 150,217 150,217 150,217 150,217 150,217 149,217 149,217 148,217 148,217 148,217 148,217 147,218 147,218 147,218 147,218 147,218 147,218 147,219 147,218 147,218 146,218 146,218 146,217 146,217 147,217 147,217 146,217 146,217 146,217 146,218 145,218 145,218 144,218 144,218 144,219 143,219 143,219 143,219 142,218 142,218 142,218 141,218 141,219 141,219 141,219 140,220 140,220 140,220 140,220 139,220 139,220 139,220 139,221 139,221 139,221 138,221 138,221 138,221 138,222 137,221 137,221 137,221 136,221 136,221 136,220 136,220 136,220 136,220 136,220 135,220 135,220 135,220 135,220 135,220 135,220 135,220 135,220 135,220 134,220 134,220 134,220 134,219 134,219 134,218 134,218 134,218 135,218 135,218 135,217 135,217 135,217 134,217 134,217 133,217 132,217 132,217 132,217 132,216 131,216 131,216 131,216 131,216 131,216 131,216 130,216 130,216 129,216 129,216 129,216 128,215 128,215 128,215 127,215 127,215 127,215 127,215 127,214 127,214 127,214 127,214 127,213 128,213 128,213 128,213 128,213 128,213 128,213 128,213 127,213 127,212 127,212 127,212 127,212 126,213 126,213 126,213 126,213 126,213 125,213 125,213 125,213 125,214 125,214 125,214 125,214 125,215 125,215 125,215 125,216 125,216 125,216 125,216 125,217 125,217 125,217 124,217 124,218 124,218 124,218 123,218 123,217 123,217 123,217 122,217 122,217 122,218 121,218 121,218 122,218 122,218 122,218 122,218 122,218 122,218 122,218 122,218 122,219 122,219 122,219 122,219 122,219 122,219 122,219 122,219 122,219 122,219 122,219 123,219 123,219 123,219 123,219 123,219 123,219 123,219 123,219 123,219 123,219 123,220 123,220 123,220 123,220 123,220 123,220 123,220 123,220 123,220 123,220 123,220 123,220 123,220 123,220 123,221 124,221 124,221 123,221 123,221 122,221 122,221 122,221 122,220 122,220 122,219 122,219 122,219 121,219 121,219 121,219 121,218 121,218 121,218 120,218 118,218 118,218 117,218 117,219 117,219 117,219 117,219 116,218 116,218 115,218 115,218 115,218 114,217 114,217 114,217 114,217 114,217 114,217 113,218 113,218 113,218 113,218 113,218 113,218 113,217 113,217 112,217 112,217 112,217 112,217 112,217 111,216 111,216 110,216 110,216 110,216 110,216 109,216 108,216 108,216 107,216 106,216 106,216 106,215 106,215 106,215 106,215 105,215 105,215 105,215 105,215 106,215 105,214 105,214 104,214 104,214 104,214 104,214 104,214 103,214 105,216 105,216 105,216 105,216 104,216 104,216 103,216 103,216 103,216 102,216 102,216 102,216 101,216 101,216 101,216 101,216 101,216 100,216 100,216 101,215 100,215 101,215 101,215 101,215 100,214 100,214 100,214 100,214 100,214 100,214 100,214 100,214 100,214 100,214 100,213 99,213 99,214 99,214 99,214 99,214 98,215 98,215 98,215 98,215 98,215 98,215 98,215 98,215 98,215 98,215 98,215 98,216 98,216 97,216 97,216 97,216 97,216 97,216 97,216 97,215 97,215 96,215 96,215 95,215 95,215 95,215 95,215 95,215 94,215 94,215 94,215 94,215 94,215 94,215 93,215 93,215 92,215 92,214 92,214 91,214 91,214 91,214 89,215 89,215 88,215 87,216 86,216 86,216 86,216 86,215 86,215 88,215 88,215 88,214 89,214 89,214 89,214 90,213 90,213 90,213 91,213 91,213 91,214 92,214 92,213 92,213 92,213 93,212 93,212 93,212 92,211 92,211 92,210 91,211 91,211 91,211 91,210 91,210 90,211 89,210 89,210 89,210 88,210 88,210 88,210 88,209 88,209 88,209 88,209 87,209 87,209 87,209 87,209 87,209 87,209 87,209 87,209 86,209 86,209 85,209 85,210 85,210 85,210 85,210 85,210 85,210 85,210 85,211 85,211 85,211 84,211 84,211 84,211 84,211 84,211 84,211 84,211 84,211 84,211 84,210 85,210 85,210 85,210 85,209 85,209 85,209 85,209 85,209 85,209 85,209 85,209 84,208 84,208 84,208 84,208 84,208 84,208 83,207 83,207 83,207 83,207 82,206 82,206 82,206 82,206 83,205 84,205 84,205 84,205 85,205 85,205 85,205 85,204 85,204 86,204 86,204 86,204 86,204 86,203 86,203 87,203 87,202 87,202 87,202 87,202 87,202 87,202 87,202 88,202 88,201 87,201 86,201 86,201 86,201 86,201 86,201 85,200 84,199 84,198 84,198 84,198 85,198 85,198 85,198 85,198 84,198 84,198 83,198 82,198 82,198 82,198 82,198 82,198 82,198 81,198 81,197 81,197 80,196 80,196 80,196 80,196 79,196 79,195 80,195 80,195 80,195 80,195 81,190 82,189 82,189 82,189 82,188 82,188 82,188 82,188 82,188 82,187 82,187 82,187 82,187 82,186 82,186 83,186 83,186 84,187 84,187 85,187 85,187 85,187 85,186 85,186 85,186 85,186 84,186 84,186 84,185 84,185 84,185 84,185 84,185 84,185 84,184 84,184 84,184 84,184 84,184 84,183 85,183 85,183 85,183 86,184 86,184 86,184 86,184 87,183 87,183 86,183 86,183 86,183 86,182 87,182 87,182 87,182 87,182 87,182 88,182 88,182 89,182 89,182 90,181 90,181 92,181 92,181 92,181 93,183 94,182 94,182 93,181 93,181 93,181 93,181 93,181 93,181 95,181 95,181 96,180 94,180 94,180 94,180 93,179 93,179 94,179 94,178 95,178 95,178 94,178 95,177 95,177 95,178 95,178 95,177 96,177 96,177 96,177 96,177 96,177 95,177 95,177 96,175 97,175 97,175 97,175 97,174 97,174 97,174 98,174 98,174 98,174 99,174 99,174 100,174 101,174 101,173 102,174 102,174 103,174 103,172 104,172 105,173 105,173 105,174 106,174 108,175 108,175 108,175 108,175 108,175 108,175 108,175 109,175 110,175 111,175 111,175 112,175 113,175 114,175 114,175 114,176 116,175 117,175 117,175 118,175 119,174 119,174 119,174 119,173 119,173 117,172 117,173 116,173 115,174 115,174 115,173 115,173 116,173 117,172 117,172 117,171 117,171 118,171 119,170 119,170 120,171 120,171 120,172 120,172 120,172 121,172 121,172 121,171 122,171 122,171 122,171 122,171 122,171 123,172 123,172 123,172 123,172 123,171 124,171 124,171 124,171 124,171 124,170 124,170 124,170 124,170 124,170 124,169 124,169 123,169 123,169 123,169 122,168 122,168 122,168 122,168 121,168 121,168 121,168 120,167 119,167 119,167 119,167 119,167 118,166 118,166 120,165 120,165 121,165 122,165 122,166 122,166 123,165 124,165 125,165 128,164 129,164 129,164 130,164 131,164 131,163 131,163 133,163 134,163 134,163 135,163 136,163 137,163 136,162 137,162 137,161 138,162 139,160 139,160 139,160 139,160 139,160 140,160 140,160 140,160 141,160 142,160 142,160 142,160 142,160 142,159 142,158 142,158 144,158 144,159 145,159 145,159 145,158 146,159 147,159 147,159 147,159 147,159 146,160 146,160 145,161 145,161 145,161 144,161 144,161 143,161 143,161 142,161 142,161 142,161 143,161 144,162 144,162 144,162 145,162 146,162 146,162 146,162 146,162 146,161 146,161 146,161 146,160 146,160 147,160 148,159 148,159 148,159 148,158 149,158 149,158 149,158 149,157 149,157 149,157 149,157 150,157 150,156 150,156 151,156 151,156 151,156 151,156 151,156 151,156 151,155 151,155 151,155 152,155 152,155 152,155 153,155 154,155 154,155 154,156 154,156 154,156 154,156 154,156 155,156 155,156 155,156 155,156 155,156 155,155 155,154 155,154 155,154 155,154 154,153 154,153 154,153 154,153 153,153 153,153 153,153 153,152 154,152 154,152 154,152 154,152 153,152 153,152 152,152 151,153 151,153 151,153 150,153 149,153 149,153 149,153 149,153 148,153 149,151 148,151 148,151 148,151 147,151 147,151 146,151 146,151 145,150 144,151 144,150 143,151 143,151 142,150 142,150 142,150 141,150 141,150 141,150 141,150 140,150 140,150 140,150 140,150 139,150 139,150 139,150 138,151 138,151 137,151 137,151 137,151 137,151 137,151 136,151 136,151 136,151 135,151 135,150 134,150 134,150 134,150 133,150 132,150 131,150 132,150 132,149 132,149 131,149 131,149 131,149 130,149 130,149 129,149 129,149 128,149 128,149 128,147 128,147 128,147 128,147 128,147 128,147 127,147 126,147 126,147 125,148 125,148 125,148 125,148 125,148 125,149 125,149 125,149 125,149 125,149 124,149 124,149 124,150 123,149 123,149 123,149 123,149 123,149 123,149 123,148 122,148 122,148 123,148 123,147 123,147 122,147 121,147 121,147 119,148 119,148 119,148 119,148 119,148 118,148 118,148 117,148 117,148 117,148 116,148 116,148 116,148 116,147 115,147 115,147 115,146 115,146 115,146 115,146 114,146 114,146 114,146 114,145 114,145 113,144 113,144 113,144 114,144 114,144 114,144 114,143 115,143 115,143 115,143 115,142 115,142 114,142 114,142 114,142 114,142 113,142 113,142 113,142 113,141 112,140 112,139 112,139 111,138 111,138 110,137 109,137 109,136 108,135 108,135 108,135 107,134 107,134 106,134 105,134 105,133 105,132 105,132 106,131 104,131 104,131 104,131 104,131 104,130 104,130 104,130 104,130 104,130 104,130 104,130 104,130 104,129 104,129 104,129 103,129 104,128 103,127 103,126 101,124 101,124 101,123 100,122 99,122 99,122 99,122 99,122 99,121 99,121 99,121 99,121 99,121 99,121 98,121 98,121 98,121 98,121 98,120 98,120 98,120 98,120 98,120 97,120 97,120 97,120 97,120 97,120 97,120 97,120 96,120 95,120 95,120 95,120 95,120 95,120 94,120 94,120 94,120 94,120 94,120 94,120 93,120 93,120 93,120 93,120 93,120 92,120 92,120 92,119 92,119 92,119 92,119 92,119 92,119 91,119 91,119 91,119 90,119 90,119 90,119 90,119 90,119 89,118 89,118 89,118 89,118 89,118 88,118 88,118 88,118 87,117 87,117 87,117 86,117 86,117 86,117 85,118 85,118 85,118 85,118 85,118 85,118 85,118 84,118 84,119 85,119 85,119 85,119 85,120 85,120 85,120 85,119 84,119 84,119 84,119 83,119 83,119 83,119 83,119 83,119 83,119 83,119 83,119 82,119 82,119 82,119 81,119 80,118 80,118 80,118 79,118 79,118 79,118 79,118 79,118 79,119 79,119 79,119 79,119 79,119 79,119 79,118 78,118 78,118 78,118 78,118 78,118 77,117 77,117 76,117 76,117 75,117 75,118 74,118 74,118 74,118 74,118 74,118 73,118 73,118 73,118 73,118 72,118 72,118 71,118 71,118 71,118 71,118 71,118 71,118 70,118 70,118 70,118 70,118 70,118 70,118 71,117 71,116 71,115 72,114 72,114 72,114 72,113 72,113 71,112 71,112 71,112 71,110 71,110 71,109 71,108 72,107 72,106 72,105 72,105 72,104 71,103 70,102 70,101 70,101 69,101 69,100 69,99 69,99 69,98 69,98 69,98 69,98 69,98 69,97 68,97 68,98 68,98 68,98 68,98 68,98 68,98 68,98 68,98 68,99 68,99 68,99 68,99 68,99 68,99 68,99 68,99 68,99 68,100 67,100 67,100 66,100 67,100 67,100 67,100 67,101 67,101 67,101 67,101 67,101 67,101 68,101 68,102 68,102 69,102 68,102 67,102 67,103 66,104 66,104 66,104 66,104 66,104 66,104 65,104 64,105 63,105 63,105 63,105 63,105 63,105 63,105 63,105 62,104 62,104 62,104 62,104 62,104 61,103 61,103 61,103 61,103 61,103 61,103 61,103 61,103 60,103 60,103 60,103 60,103 60,103 60,103 59,103 59,103 59,103 59,103 58,104 58,104 58,104 58,104 58,104 58,104 58,105 58,105 58,105 58,105 58,105 57,105 57,105 57,105 56,106 56,106 55,106 55,106 55,106 55,106 54,106 54,106 54,106 54,105 54,105 53,105 53,106 53,106 53,106 53,106 53,106 53,106 53,106 52,106 52,106 52,106 51,106 51,106 51,106 50,107 50,107 50,107 50,107 50,107 49,107 49,107 49,107 49,107 49,107 49,106 49,106 49,106 49,106 49,106 49,105 50,105 49,105 50,105 50,105 50,105 50,105 50,105 50,104 49,104 49,104 49,104 49,104 49,104 48,104 48,104 48,104 48,103 48,103 48,103 47,103 47,103 47,103 47,103 47,103 47,103 47,103 47,103 46,103 46,103 46,103 46,104 45,104 45,104 45,104 45,104 45,104 45,104 44,104 44,104 44,104 44,104 44,104 44,104 43,104 43,103 43,103 43,103 43,103 43,103 42,103 42,103 42,103 42,103 42,103 42,103 42,103 42,102 42,102 42,102 42,102 41,102 41,102 41,102 41,102 41,102 41,102 41,102 41,102 41,102 40,102 40,102 39,102 39,102 39,102 39,102 39,103 39,103 39,103 39,103 39,103 39,103 39,103 38,104 38,104 38,104 38,104 38,104 38,104 38,104 38,104 38,104 38,104 38,104 38,104 38,104 37,104 37,104 37,104 37,104 37,104 37,104 37,104 37,104 37,104 36,104 36,104 36,104 36,104 36,104 35,104 35,104 35,104 35,103 35,103 34,103 34,103 34,103 34,103 34,103 34,103 34,103 34,102 34,102 34,102 34,102 34,102 34,101 34,101 34,101 34,101 34,101 34,101 34,101 34,101 34,101 34,101 34,101 34,101 34,100 34,100 34,100 34,100 34,100 34,100 34,99 34,99 34,99 34,99 34,99 34,99 34,98 34,98 34,98 34,98 33,98 33,98 33,98 33,98 33,98 32,98 32,98 32,98 31,98 31,98 31,98 31,98 31,98 31,98 31,98 30,98 30,98 30,98 30,98 30,98 29,98 29,98 29,98 29,98 29,97 29,97 29,97 28,97 28,98 28,98 28,98 28,98 27,98 27,98 27,98 27,98 27,98 26,98 26,98 26,98 26,98 26,98 25,98 25,98 25,98 24,98 24,98 24,98 24,98 24,98 24,98 23,97 23,97 23,97 23,97 23,97 23,98 23,98 23,98 22,98 22,98 22,98 21,98 21,98 21,98 21,98 20,98 20,98 20,98 19,98 19,98 19,98 19,98 19,98 18,98 18,97 17,97 17,97 17,97 17,96 17,96 17,96 17,96 17,95 17,95 17,95 18,95 18,95 19,94 19,94 19,94 19,94 19,94 19,93 19,93 19,93 19,93 19,92 19,92 19,92 19,92 19,91 19,91 19,91 19,91 20,91 20,91 20,91 21,91 21,91 21,91 21,90 21,90 21,90 21,90 21,90 21,90 21,90 22,90 22,89 22,89 22,89 22,89 22,88 22,88 22,87 22,87 22,87 22,87 23,87 23,87 23,87 23,86 23,86 23,86 23,86 23,86 23,86 23,85 23,85 23,85 23,85 22,84 22,84 22,84 21,84 21,84 20,84 20,84 20,84 20,84 20,84 20,84 20,84 19,84 19,84 19,84 19,84 19,84 19,84 19,84 18,84 18,84 18,83 18,83 18,83 18,82 18,82 18,82 17,82 17,82 17,82 17,82 17,81 16,81 16,81 14,80 14,80 13,80 13,80 11,80 11,79 10,78 10,78 9,78 9,78 9,77 9,77 10,77 10,77 10,76 11,76 12,75 12,75 13,74 13,74 13,74 12,73 12,72 12,72 12,72 12,72 12,71 12,71 12,71 12,70 12,70 11,69 11,69 11,69 11,68 11,68 11,68 10,67 10,67 10,66 10,66 10,66 10,65 9,65 9,65 9,65 8,64 8,64 7,64 7,64 6,64 6,64 5,64 5,64 5,64 4,65 4,65 4,65 3,66 3,66 3,66 3,67 3,67 3,68 3,68 3,68 3,68 3,68 3,68 2,68 2,68 2,68 1,68 1,67 1,67 0,67 0,67 0,66 0,66 0,65 0,65 0,65 0,65 0,64 0,64 1,64 1,64 2,64 2,64 3,64 4,64 4,64 4,63 5,63 5,63 5,63 5,63 6,63 6,62 6,62 6,62 6,62 6,60 6,60 6,60 6,59 6,59 6,58 5,58 5,57 5,57 5,57 5,56 5,56 5,56 5,56 4,55 4,55 4,55" id="1508" class="canton" fill="steelblue" stroke-width="1" stroke="white" geotype="canton" geoname="Naucelles" code_insee="1508" code_departement="15" nom_departement="Cantal" code_region="84" nom_region="Auvergne-Rhône-Alpes"/></svg>