<?xml version="1.0" encoding="utf-8"?>
<svg version="1.1" id="svgmap" xmlns="http://www.w3.org/2000/svg" xmlns:xlink="http://www.w3.org/1999/xlink" x="0px" y="0px" width="100%" height="100%" viewBox="0 0 500 209">
<polygon points="33,57 34,57 35,57 37,57 37,57 40,57 41,57 41,57 41,57 44,58 45,58 45,58 45,58 46,58 47,58 49,57 50,57 50,57 51,57 51,57 51,57 52,57 53,57 54,58 54,58 54,58 55,58 56,58 56,58 57,58 57,58 58,58 58,58 59,58 60,58 60,57 60,57 61,57 62,57 62,57 62,57 62,56 62,56 62,55 61,55 61,55 61,55 61,55 62,54 62,55 62,55 62,55 64,55 64,55 65,55 67,55 70,55 71,54 72,54 73,54 75,53 76,52 77,51 78,50 78,49 81,50 81,50 82,49 82,49 85,50 86,50 86,50 86,50 87,51 87,51 88,51 89,52 91,52 91,52 91,53 92,53 92,53 95,55 95,55 95,55 97,55 98,55 98,56 101,57 101,57 101,57 103,58 105,59 105,59 106,58 106,57 107,56 108,55 108,55 108,55 109,54 109,53 109,53 109,53 109,52 109,52 108,51 109,50 109,49 109,49 110,49 112,49 113,49 114,48 115,48 116,48 117,48 117,48 118,48 118,49 119,49 119,49 121,50 122,50 123,50 124,50 125,50 126,50 128,50 128,51 128,51 129,51 130,53 130,53 130,54 130,54 131,55 131,57 130,58 130,58 129,59 130,60 130,61 130,62 130,63 129,63 130,64 130,64 130,65 131,65 131,66 131,67 131,67 131,68 130,68 130,70 130,70 129,70 129,71 130,71 130,71 131,71 131,71 131,71 131,72 131,73 131,73 133,74 134,74 134,75 134,75 137,76 137,76 142,78 142,81 142,82 142,83 142,83 143,83 144,83 144,83 145,83 145,82 154,83 157,83 158,82 160,82 163,80 163,80 163,80 164,80 164,81 166,82 169,84 170,84 172,85 174,85 175,84 175,84 176,84 177,84 178,84 178,83 178,83 179,82 179,82 180,82 181,80 182,81 184,81 185,81 186,81 186,81 186,80 186,79 186,78 187,78 188,77 189,77 189,77 190,77 191,77 191,77 192,77 192,77 193,76 194,76 196,73 198,73 199,74 200,73 200,72 201,71 201,69 202,64 201,64 200,63 200,62 199,59 200,58 202,56 202,56 202,56 202,56 202,56 202,56 203,56 203,56 203,56 203,56 203,56 203,56 203,55 203,55 203,55 203,55 203,55 203,55 203,55 203,55 203,55 204,55 204,55 204,54 204,54 204,54 205,54 205,54 205,54 205,54 206,54 206,54 206,54 206,54 206,54 207,54 208,54 212,53 212,52 212,51 212,49 212,48 212,45 212,45 212,44 211,43 211,43 211,42 211,41 212,42 213,42 214,42 214,43 215,43 215,43 216,44 217,44 218,45 218,45 220,45 221,46 221,46 221,46 222,47 223,47 223,47 224,48 226,49 226,49 227,49 228,50 229,50 229,50 229,50 231,51 232,51 234,51 233,52 234,52 234,53 234,54 234,54 234,54 234,55 234,55 235,56 235,58 236,62 236,63 236,65 236,66 236,67 236,67 237,67 237,68 237,68 239,69 240,70 241,71 241,71 242,70 242,71 244,70 244,69 244,69 244,68 244,68 245,67 244,67 244,66 243,65 243,63 242,62 242,61 242,61 242,60 243,59 243,59 243,59 244,59 244,58 245,58 245,58 246,59 246,59 248,60 249,60 249,60 250,60 250,60 251,57 252,56 252,55 252,55 252,54 253,54 253,54 253,53 254,53 255,53 255,52 256,51 256,51 257,51 258,51 258,51 259,51 260,50 261,50 262,50 262,49 263,48 263,47 262,47 262,47 262,46 261,46 259,44 259,43 258,43 257,42 257,42 256,41 255,40 255,40 254,38 253,36 253,34 253,33 253,33 253,32 254,31 252,30 252,29 252,29 251,28 251,27 251,27 253,26 253,26 254,26 254,27 255,27 256,27 257,28 257,28 260,30 260,30 262,30 265,32 268,33 270,35 270,35 271,34 272,35 272,35 274,36 274,36 275,36 276,36 277,36 277,37 279,37 280,37 281,37 282,37 283,37 283,38 283,38 284,38 286,38 287,38 288,38 288,38 289,38 289,38 291,37 292,36 292,35 292,35 293,36 294,33 294,32 295,28 298,29 300,29 301,27 305,22 304,21 305,21 308,21 308,21 308,21 309,21 310,21 311,21 312,21 312,21 313,21 315,20 316,19 316,19 317,19 317,19 318,19 319,18 319,17 320,18 320,18 321,18 321,19 321,19 321,20 321,20 321,21 321,21 321,22 322,22 322,22 322,22 322,21 323,21 323,21 324,20 325,20 326,19 327,18 327,18 328,17 327,17 329,15 330,15 332,13 332,12 332,12 332,12 334,11 335,11 335,10 336,10 337,8 339,6 340,6 342,4 343,3 344,3 345,2 346,2 347,2 347,2 347,3 347,4 347,4 346,5 346,6 347,8 348,9 348,10 349,12 349,12 349,12 349,12 350,12 351,11 351,11 352,11 352,10 354,10 355,9 355,8 356,8 360,10 363,8 365,7 366,6 368,5 369,5 370,5 370,5 371,5 372,5 372,5 374,5 376,5 378,5 379,5 381,5 382,5 384,4 385,3 387,3 388,3 389,2 390,2 395,0 395,0 395,1 397,3 399,6 400,8 401,9 401,10 401,10 402,10 402,11 405,12 405,12 405,12 407,12 407,12 409,13 410,13 411,13 412,14 412,14 412,14 413,14 413,14 413,14 414,14 414,14 414,14 414,14 414,14 415,15 415,15 416,15 416,15 416,15 416,15 416,15 418,16 418,16 419,16 419,16 420,17 421,17 422,17 422,17 422,18 422,18 423,18 424,18 424,18 425,18 426,18 426,18 427,19 427,19 427,19 428,19 428,19 428,19 429,20 429,20 429,20 430,20 431,20 433,21 433,21 434,21 434,21 435,21 435,21 435,21 436,21 436,22 437,22 437,22 437,22 438,22 438,23 439,23 439,23 439,24 440,24 440,24 440,24 441,24 441,24 442,25 442,25 442,24 443,24 443,24 443,25 444,25 444,25 445,26 446,26 447,26 447,26 448,26 450,27 450,27 450,27 450,27 451,28 451,28 451,28 451,28 451,28 451,28 451,29 451,29 450,30 450,31 450,31 450,31 450,31 449,31 449,31 449,31 449,32 449,32 449,33 449,33 449,33 449,33 448,33 448,34 448,34 448,35 448,35 448,35 449,35 449,36 449,36 449,37 449,37 449,37 449,37 449,38 450,38 450,38 450,39 450,39 450,39 450,39 450,39 450,39 451,39 451,39 451,39 452,39 452,39 452,39 452,39 453,39 453,39 453,39 453,39 453,39 453,38 453,38 454,38 455,38 455,38 456,38 457,38 457,39 458,39 458,39 459,39 459,39 460,39 460,39 460,39 460,39 460,39 461,39 461,39 461,39 461,39 462,39 462,39 462,39 462,39 463,39 463,39 463,39 463,39 464,39 464,40 464,40 464,40 465,40 465,40 465,40 465,40 465,40 465,40 465,40 466,40 466,40 467,40 467,40 467,40 467,40 467,40 467,40 467,40 467,40 468,40 468,40 468,40 469,40 469,40 470,40 470,40 470,40 471,40 471,40 472,40 472,39 472,39 472,39 473,39 473,39 474,39 474,39 475,39 475,38 475,38 475,38 475,38 476,38 476,38 477,38 477,38 477,38 478,38 478,38 479,38 479,38 480,38 480,39 481,39 481,39 481,39 482,38 482,38 483,38 484,38 485,38 486,38 486,38 486,38 486,38 486,38 487,38 487,39 487,39 487,39 488,39 488,39 488,39 488,39 489,40 489,40 489,40 490,40 490,40 490,40 490,40 490,40 491,40 492,41 492,41 493,41 493,41 494,41 494,41 495,41 495,41 495,41 496,41 496,41 497,41 498,41 498,41 499,41 499,41 499,42 499,42 499,42 499,42 499,42 498,42 498,43 498,43 498,45 498,45 498,45 497,46 497,46 497,46 497,46 497,46 497,46 498,46 498,46 498,46 498,46 498,46 498,46 499,46 499,45 499,45 499,45 500,45 500,45 500,45 500,45 500,45 500,46 499,46 499,46 499,46 499,46 499,47 499,47 499,47 499,47 499,47 499,47 499,47 499,47 499,47 499,47 499,47 499,47 498,48 498,48 498,48 498,49 497,49 497,49 496,49 496,49 496,49 496,49 495,49 495,49 495,49 494,49 494,49 494,50 493,50 493,50 493,50 493,50 493,50 492,50 492,50 492,50 492,50 492,51 492,51 492,51 491,51 491,51 491,52 491,52 491,52 491,52 491,52 491,53 491,53 491,53 491,53 491,54 490,54 490,54 490,54 490,54 490,54 490,54 490,54 490,55 490,55 490,55 490,55 489,55 489,55 489,55 489,55 489,56 489,56 489,56 489,56 489,56 488,57 488,58 488,58 488,58 488,58 487,59 487,59 486,59 486,59 486,60 486,60 485,60 485,60 485,60 485,60 485,60 485,60 485,61 484,61 484,62 484,62 484,62 483,63 483,63 482,63 482,63 482,64 482,64 482,64 481,64 481,64 481,65 481,65 480,65 480,65 480,65 480,65 479,64 479,64 479,64 478,63 478,63 478,63 478,63 478,64 478,64 478,64 477,64 477,64 477,64 477,64 477,64 476,64 476,64 476,64 476,65 475,65 475,65 475,65 474,65 474,65 473,66 473,66 473,66 473,66 473,66 473,66 473,67 473,67 473,67 473,68 473,68 473,68 473,68 473,69 473,69 473,70 473,70 473,70 473,70 473,70 473,71 473,71 473,71 473,72 473,72 473,72 473,72 473,72 473,73 473,73 472,73 472,73 472,73 472,74 472,74 472,74 472,75 472,75 472,75 472,75 472,75 472,75 472,75 471,77 471,77 471,77 471,78 471,78 471,78 471,78 471,79 471,79 471,79 471,79 471,79 471,79 471,79 471,80 470,83 470,83 470,83 470,86 470,86 469,86 468,87 466,88 466,88 466,88 466,88 466,88 466,88 465,88 465,88 464,88 464,88 461,90 461,90 461,91 461,91 461,91 460,91 459,92 459,92 459,92 459,92 459,92 459,92 459,92 459,93 459,93 459,93 458,92 456,92 456,92 456,92 455,92 455,92 455,91 455,91 455,91 454,91 453,90 453,90 453,90 451,91 449,91 449,91 449,91 448,91 448,91 448,91 448,90 447,90 445,89 445,89 443,90 442,90 439,90 439,90 438,90 437,90 437,90 436,90 436,90 436,90 436,90 434,92 434,92 434,92 434,92 433,92 433,92 432,92 432,92 432,92 431,92 431,92 431,92 431,93 431,93 431,93 431,93 431,93 431,94 431,94 431,94 431,94 431,94 431,94 431,94 431,94 431,94 432,95 432,95 432,95 432,95 432,95 433,95 433,95 433,95 433,95 433,96 433,96 433,97 433,97 433,97 433,98 433,98 433,98 434,98 434,98 434,98 434,98 433,99 433,99 433,99 433,99 433,99 433,99 433,99 433,100 433,100 433,100 433,100 433,100 433,100 434,100 434,100 435,101 435,101 435,101 434,101 433,101 432,101 432,101 432,101 431,102 431,102 431,102 431,102 430,102 430,102 430,102 429,102 429,102 429,102 429,102 429,102 429,102 429,102 429,102 429,102 430,103 430,103 431,103 431,104 431,104 431,104 431,105 431,105 431,105 431,106 431,106 431,106 431,106 431,106 431,106 431,106 431,106 430,106 429,106 428,106 428,107 428,107 428,107 427,107 427,107 427,107 426,107 425,107 425,107 425,107 424,107 424,107 424,107 423,107 423,107 423,107 423,107 423,107 423,108 423,108 422,108 422,108 422,108 422,108 422,108 421,108 421,109 421,109 421,109 421,109 421,109 421,109 421,110 420,112 420,112 420,112 420,112 421,112 421,113 422,112 422,112 423,112 423,112 424,111 424,111 425,112 426,113 426,113 426,113 426,113 426,113 426,115 425,115 425,116 425,116 425,116 424,116 424,117 424,117 423,118 423,118 423,119 423,119 423,120 422,120 422,121 422,121 418,122 418,122 418,121 414,121 412,121 412,121 411,121 410,121 410,121 410,121 409,121 408,121 407,121 407,121 407,121 407,121 407,121 407,121 407,123 407,124 406,124 406,124 406,125 406,125 406,125 407,126 407,127 407,127 407,128 407,128 407,128 407,129 407,129 406,129 406,129 406,129 406,129 406,130 406,130 406,130 406,131 406,131 406,131 406,131 406,132 406,132 406,133 406,133 406,133 406,133 406,134 406,134 406,134 405,134 405,134 405,134 404,134 404,134 404,134 404,134 404,134 404,134 403,134 403,134 403,134 402,134 402,134 402,134 402,134 402,134 401,134 400,135 400,135 399,135 399,136 399,136 399,137 399,138 399,138 399,139 398,139 398,139 398,140 397,142 397,142 397,143 397,143 397,143 397,143 397,143 397,143 397,143 397,143 397,143 397,144 397,144 397,144 397,144 397,144 397,144 396,145 396,145 396,146 397,146 397,146 397,146 397,147 397,147 396,147 396,147 396,147 396,147 395,147 395,147 395,147 395,147 394,146 394,146 394,146 393,145 393,145 392,145 388,144 388,143 385,144 385,144 385,144 385,144 384,144 384,144 383,144 383,144 383,145 383,145 382,143 382,143 382,142 382,142 382,142 379,141 378,141 378,141 378,141 378,141 377,141 377,141 376,141 376,141 376,141 376,141 376,141 376,141 375,141 374,141 374,141 374,141 374,140 373,140 373,140 373,140 372,140 372,140 372,139 372,139 372,139 372,138 371,138 371,138 371,138 371,138 371,138 370,137 370,137 369,137 369,137 369,137 368,137 368,137 368,137 368,137 367,137 367,137 366,137 366,137 366,137 365,137 365,137 364,137 364,137 362,136 362,136 362,137 361,138 360,138 360,139 359,140 359,140 359,140 358,141 357,141 355,141 354,141 353,142 353,142 352,141 352,141 352,141 351,140 350,139 350,139 348,139 347,138 347,138 347,138 347,138 344,137 344,137 344,137 343,136 343,136 343,136 343,136 343,136 342,137 342,136 342,137 341,136 340,136 340,136 339,136 338,135 337,135 337,135 337,135 337,135 336,135 336,137 335,138 335,139 334,140 330,145 330,145 328,144 328,144 328,144 326,144 326,144 326,144 325,144 325,144 325,143 324,143 323,143 323,143 322,143 322,143 321,143 321,143 321,143 321,143 321,143 321,143 321,141 321,141 320,142 319,140 318,139 318,139 317,138 316,137 315,135 315,134 314,133 314,133 314,132 314,132 314,132 314,132 313,132 311,133 311,133 311,133 310,133 310,133 309,133 309,133 309,133 308,133 305,133 305,133 304,134 303,134 303,135 303,135 303,135 298,133 298,133 298,133 298,133 298,133 298,133 297,132 297,131 297,131 297,131 296,131 295,130 294,130 294,130 294,130 292,130 292,130 291,129 291,129 289,128 289,128 288,128 287,128 287,128 287,129 286,130 286,130 286,131 284,130 284,130 284,130 284,130 284,130 284,130 283,130 283,130 283,130 283,130 283,130 283,130 283,130 283,130 283,130 283,130 282,129 282,129 282,129 280,129 279,129 279,128 278,128 277,128 277,127 277,127 277,127 277,127 276,127 276,127 276,127 275,126 274,126 274,126 273,126 272,126 271,125 270,125 270,125 269,125 268,125 268,125 267,125 267,124 266,124 266,124 266,123 266,123 266,123 266,123 267,123 267,123 267,122 267,122 267,121 268,120 268,120 268,120 268,120 268,120 268,120 268,120 269,119 269,118 269,117 269,117 268,116 268,116 268,116 267,115 267,115 267,115 267,115 266,115 266,115 264,114 261,114 261,114 261,114 260,114 259,114 258,114 257,113 256,113 255,113 255,113 254,113 253,114 252,114 252,114 252,114 251,114 251,113 251,113 251,113 251,113 250,113 250,112 250,112 250,111 250,111 250,111 249,110 249,110 249,110 249,110 248,109 248,109 248,109 247,108 247,108 246,107 245,107 245,106 245,106 243,105 242,104 242,104 241,103 241,103 239,103 238,103 237,103 237,103 238,103 238,103 239,104 239,105 239,105 239,106 239,106 239,106 239,107 239,107 239,108 240,108 240,108 239,109 239,110 239,110 239,110 238,110 238,110 238,110 239,113 239,113 239,113 238,113 238,114 238,114 238,114 238,115 237,115 236,115 235,115 233,115 233,115 233,115 232,116 232,117 232,117 232,117 232,117 231,118 231,118 231,118 231,118 231,119 231,119 230,119 230,119 229,120 229,120 229,120 228,119 227,119 227,119 227,119 227,119 226,119 226,119 225,119 225,119 225,119 224,119 224,119 224,119 224,119 223,120 220,120 220,120 219,120 219,120 218,121 218,121 217,121 217,121 217,121 216,121 216,122 216,122 216,122 215,122 215,122 215,122 215,122 215,123 215,123 214,123 215,123 215,123 215,123 211,127 212,128 212,128 214,128 216,127 216,127 217,128 218,128 220,128 220,128 221,128 222,128 224,128 224,128 226,129 227,130 227,130 227,130 227,130 227,131 227,132 227,132 226,132 226,132 225,133 225,134 224,134 224,135 223,135 223,135 223,136 223,137 223,137 223,138 223,138 222,139 222,139 222,139 222,140 222,140 222,140 222,141 222,141 222,141 222,141 222,141 222,141 222,141 222,142 223,142 223,142 223,142 224,142 224,142 224,142 225,142 226,143 226,144 226,144 226,144 227,145 227,145 226,146 226,147 226,147 227,147 227,147 227,147 227,148 227,148 227,149 226,149 224,149 223,149 222,149 221,149 221,149 220,149 219,149 218,149 217,149 217,149 216,149 215,149 215,149 215,149 214,149 214,149 213,149 212,149 212,149 211,149 210,149 209,148 208,148 208,148 207,148 207,148 207,148 206,148 206,149 206,149 205,149 204,149 204,149 204,149 203,149 203,149 203,149 203,149 202,149 202,150 201,150 201,150 201,150 201,151 201,151 202,151 202,151 202,151 202,151 202,151 202,151 202,151 202,152 202,152 201,153 201,154 201,154 200,154 200,154 200,155 200,155 200,155 199,156 199,156 199,157 199,157 199,157 199,157 199,158 199,158 199,159 199,159 198,159 198,159 198,159 198,159 197,160 197,160 197,161 197,161 197,161 196,162 196,162 196,162 196,163 196,163 196,163 196,163 196,163 195,164 195,164 195,165 195,165 194,165 194,165 194,165 193,167 193,167 193,167 193,168 193,168 193,168 193,168 193,168 193,168 192,169 192,169 193,169 192,170 192,170 192,171 192,171 192,171 192,171 192,171 191,171 191,171 191,171 191,171 191,171 191,172 191,172 191,172 191,173 191,173 190,174 187,174 187,174 183,175 181,177 180,177 179,177 178,177 177,177 176,176 175,176 174,176 174,176 173,176 173,176 172,178 171,179 172,180 172,180 171,181 171,182 171,182 171,184 171,185 171,186 171,186 172,188 172,189 172,190 172,191 172,192 172,193 172,194 174,197 174,197 174,198 174,200 174,201 174,202 175,202 175,203 175,204 175,205 177,206 171,208 171,208 167,209 166,208 166,207 165,206 163,203 162,203 161,202 158,200 157,199 156,198 155,198 154,198 153,197 152,197 152,196 151,196 150,195 149,194 148,193 147,192 146,191 145,191 146,191 147,190 148,190 148,189 148,189 149,189 149,189 149,189 148,189 149,188 149,188 150,188 152,187 153,187 154,187 154,186 154,186 154,186 154,185 155,185 155,184 155,184 156,183 156,183 156,183 156,183 156,182 156,182 157,182 157,182 158,181 157,181 158,181 157,180 157,179 157,178 156,178 156,178 156,178 156,177 155,177 155,176 155,176 155,176 155,175 155,175 155,175 155,174 156,174 156,174 156,174 156,174 156,174 156,173 156,173 155,173 155,172 155,172 156,171 155,171 155,171 155,170 154,168 154,168 153,167 153,167 153,167 153,167 152,166 152,166 152,166 152,166 152,167 152,167 151,167 151,167 151,167 150,167 150,167 150,167 150,167 149,168 149,168 149,168 149,168 149,168 148,169 146,167 145,167 145,167 143,167 139,166 139,167 138,166 133,166 133,166 130,166 129,165 127,165 124,165 122,164 120,164 120,164 119,164 118,164 117,163 117,162 116,161 116,161 116,160 116,159 113,160 112,160 111,161 111,162 112,162 111,163 110,163 108,163 107,163 107,163 106,163 106,162 107,161 106,158 104,157 103,156 102,157 102,157 100,157 100,157 99,156 99,155 97,155 95,156 93,156 92,157 91,158 90,156 89,155 89,154 88,152 87,150 87,148 86,147 85,143 83,143 82,143 77,143 77,142 77,141 77,140 77,139 78,138 79,136 79,136 76,135 73,136 72,136 68,137 65,137 65,137 65,137 64,137 64,136 63,136 61,136 61,136 60,136 58,136 59,135 59,135 59,135 59,134 59,132 55,131 56,130 54,130 57,127 54,127 51,125 47,123 46,123 45,123 43,123 40,121 39,121 37,121 34,120 32,120 30,120 29,120 25,119 23,118 21,117 19,116 18,115 16,115 15,115 13,114 13,114 12,114 11,114 10,114 6,112 4,111 3,110 3,110 0,109 0,109 0,108 0,107 0,107 1,107 2,106 2,104 1,103 1,102 2,102 2,102 3,101 4,101 5,100 5,99 5,99 5,98 5,97 5,97 6,96 6,96 6,96 7,95 7,94 8,93 9,93 9,93 9,92 8,91 9,91 9,90 11,88 13,88 14,87 16,86 18,85 19,85 21,84 22,83 23,83 24,82 25,80 27,78 28,78 28,78 28,77 28,77 28,77 28,76 27,76 25,74 24,73 23,72 21,71 22,71 23,70 23,70 23,70 23,70 22,69 22,68 22,67 21,66 21,66 21,65 21,64 21,64 21,63 21,63 21,63 22,62 22,62 22,61 22,61 23,60 24,60 24,60 26,60 27,59 27,59 27,59 28,59 29,59 30,58 30,58 31,58 32,57 33,57 33,57" id="1604" class="canton" fill="steelblue" stroke-width="1" stroke="white" geotype="canton" geoname="Boëme-Echelle" code_insee="1604" code_departement="16" nom_departement="Charente" code_region="75" nom_region="Nouvelle-Aquitaine"/></svg>