<?xml version="1.0" encoding="utf-8"?>
<svg version="1.1" id="svgmap" xmlns="http://www.w3.org/2000/svg" xmlns:xlink="http://www.w3.org/1999/xlink" x="0px" y="0px" width="100%" height="100%" viewBox="0 0 500 424">
<polygon points="372,4 377,2 382,1 387,0 393,0 398,0 403,1 408,1 412,2 417,4 421,6 428,9 441,17 446,20 457,29 460,30 464,35 467,38 469,42 470,45 471,50 471,54 471,57 470,60 468,65 467,68 467,71 467,75 467,79 468,83 470,87 473,92 477,95 482,100 488,105 492,108 494,111 496,114 498,118 499,122 500,125 500,127 500,130 500,132 500,133 499,134 498,137 497,139 496,141 495,144 493,145 491,147 488,150 485,152 478,157 475,160 467,166 463,169 458,172 452,175 430,188 411,199 408,202 405,204 402,207 399,209 397,211 395,215 393,218 388,227 385,232 382,239 381,243 380,246 380,250 380,254 380,258 381,262 382,266 384,274 385,279 386,285 388,290 390,295 394,305 398,315 400,320 402,325 404,329 406,333 409,337 411,341 407,348 407,349 407,349 405,352 403,359 401,364 405,367 405,367 406,369 406,370 401,391 401,392 403,394 403,394 399,401 399,401 389,417 385,424 382,424 378,423 376,422 375,420 361,411 358,408 356,403 351,397 345,390 338,384 332,377 329,375 319,372 310,369 306,369 304,369 302,368 290,368 286,368 284,369 283,369 281,369 278,368 277,368 271,368 266,368 264,368 261,369 257,369 254,370 246,371 244,372 240,373 240,374 240,374 240,374 235,376 232,375 231,375 226,374 222,372 221,371 217,370 215,370 214,369 210,368 206,366 202,365 198,364 187,362 186,362 184,361 179,360 170,359 166,360 161,360 149,359 147,359 143,360 143,360 138,360 135,360 132,359 131,360 129,359 128,359 127,359 125,358 122,359 116,359 115,359 109,361 106,361 103,361 98,360 95,359 91,359 86,359 82,359 81,359 82,358 83,357 85,356 91,354 93,353 94,352 96,351 97,350 100,348 103,347 106,346 84,326 84,326 99,306 94,273 94,272 109,259 242,235 242,234 256,192 257,192 305,172 305,171 305,170 305,170 306,170 306,170 306,170 308,172 309,174 309,174 323,172 323,172 336,170 340,168 341,167 341,166 343,166 343,166 343,165 343,165 342,165 341,165 341,164 339,164 335,163 332,163 331,163 330,162 330,161 330,161 332,159 334,158 335,156 337,154 337,153 336,150 336,150 336,150 336,150 335,151 335,151 334,151 334,151 334,151 333,151 332,150 332,150 332,150 329,148 320,156 314,156 315,158 316,158 316,158 315,158 314,158 315,158 314,156 305,160 302,158 288,164 288,164 288,167 284,168 283,168 282,168 280,167 279,166 272,158 271,158 269,157 267,158 268,159 268,159 267,160 267,160 267,161 266,161 265,161 251,170 250,169 252,168 245,164 240,159 232,151 215,151 210,151 203,152 202,152 202,153 201,153 198,153 195,153 189,154 188,155 176,157 162,159 136,165 118,170 109,174 108,174 109,178 109,179 100,181 96,182 90,183 81,184 81,184 79,181 78,177 77,171 77,171 68,172 60,173 52,175 48,175 47,175 45,176 44,176 40,176 29,176 23,177 18,177 16,177 14,176 13,176 12,176 10,176 8,175 6,174 4,173 3,172 3,172 3,171 3,171 3,171 2,169 2,168 1,163 0,159 0,156 0,153 0,151 0,150 1,149 2,147 3,143 6,139 7,137 8,134 9,133 10,131 12,124 12,124 13,122 14,116 15,109 15,106 15,106 16,101 17,100 17,98 18,97 19,91 21,86 23,82 24,80 25,81 25,81 26,81 26,80 27,80 27,80 29,80 31,80 35,80 35,80 41,80 44,80 46,80 50,81 54,81 55,81 56,80 56,80 57,80 57,79 58,77 57,76 59,73 69,73 75,73 83,72 90,71 97,69 104,67 109,65 114,62 119,59 124,55 127,54 134,49 137,46 141,44 146,42 152,40 158,38 166,36 172,35 178,34 186,34 191,34 205,34 213,34 220,34 227,34 233,33 239,32 245,31 251,29 257,26 260,25 263,23 277,16 283,13 289,11 293,10 298,8 300,8 304,7 311,6 313,6 314,6 318,5 327,5 333,6 342,7 348,8 353,8 357,7 361,7 366,6 372,4" id="1715" class="canton" fill="steelblue" stroke-width="1" stroke="white" geotype="canton" geoname="Rochelle-2" code_insee="1715" code_departement="17" nom_departement="Charente-Maritime" code_region="75" nom_region="Nouvelle-Aquitaine"/></svg>