<?xml version="1.0" encoding="utf-8"?>
<svg version="1.1" id="svgmap" xmlns="http://www.w3.org/2000/svg" xmlns:xlink="http://www.w3.org/1999/xlink" x="0px" y="0px" width="100%" height="100%" viewBox="0 0 500 266">
<polygon points="0,225 0,225 4,222 4,222 4,222 4,222 5,222 5,222 5,221 5,221 6,221 6,221 6,221 6,221 6,221 7,221 7,221 7,221 7,221 7,221 7,221 7,221 7,221 7,221 7,221 7,221 7,221 7,221 7,221 7,221 7,221 7,221 7,221 7,221 7,221 7,221 7,221 7,221 7,221 7,221 7,220 7,220 7,220 8,220 8,220 8,220 8,220 8,220 8,220 8,220 8,220 8,220 8,220 8,220 8,220 8,220 8,220 8,220 8,220 8,220 8,220 8,220 8,220 8,220 8,220 8,220 8,220 8,220 8,220 8,220 8,220 8,220 8,220 8,220 8,220 8,220 8,220 9,220 9,220 9,219 9,219 9,219 9,219 9,219 9,219 9,219 9,219 9,219 9,219 9,219 10,218 10,218 10,218 10,218 10,218 10,218 10,217 10,217 10,216 11,216 11,216 11,215 11,215 11,215 12,214 12,214 12,214 12,214 12,214 12,214 12,214 12,214 13,213 13,213 13,213 14,213 14,213 14,213 14,213 14,212 14,212 14,212 14,212 15,212 15,212 15,212 15,212 15,212 15,212 16,212 16,212 16,212 16,212 16,212 16,212 16,212 17,212 17,211 17,211 17,211 18,211 18,211 18,211 18,211 18,211 19,211 19,210 19,210 19,210 19,210 20,210 20,210 21,210 21,210 21,210 21,210 21,210 21,210 21,210 21,210 21,209 22,209 22,209 22,209 22,208 22,208 22,208 22,207 22,207 23,207 23,207 23,207 23,207 23,207 24,206 26,205 26,205 28,204 28,204 29,203 30,203 31,203 32,202 32,202 33,202 34,201 35,201 35,201 35,201 37,200 38,200 39,199 40,199 40,199 41,199 41,199 41,199 42,198 42,198 42,198 42,198 42,197 43,197 43,196 43,196 44,196 44,195 44,195 46,194 46,194 47,193 47,193 48,193 48,193 48,192 49,191 49,191 49,191 49,190 49,190 49,190 50,190 50,189 50,189 50,189 50,188 50,188 50,187 51,185 51,184 51,184 51,183 51,183 51,183 51,181 51,181 51,181 51,180 51,180 51,180 52,180 52,179 52,179 52,179 52,179 52,179 52,178 52,178 52,178 52,178 52,178 52,178 52,178 52,178 52,178 51,178 51,178 51,178 51,178 51,178 51,178 51,178 51,178 51,178 51,178 52,177 52,177 52,177 52,177 52,177 52,177 53,176 53,176 53,176 53,176 53,176 53,176 53,176 54,176 54,175 54,175 54,175 55,175 55,175 55,175 55,174 55,174 56,174 56,174 56,174 56,174 56,174 56,174 60,171 62,169 69,164 80,161 84,161 95,159 94,154 94,150 91,145 91,140 90,134 89,127 91,120 93,114 93,111 92,108 90,104 91,100 106,102 106,101 107,98 109,96 110,97 111,98 113,99 114,99 117,100 119,102 121,103 122,104 123,105 123,105 126,106 128,108 129,108 129,108 130,109 131,110 134,113 135,116 135,117 135,117 136,118 138,120 139,120 148,116 168,109 167,106 175,108 181,106 188,98 191,92 191,92 196,85 199,77 198,76 188,66 178,64 171,63 165,59 166,58 167,56 167,56 166,56 166,56 167,54 167,54 168,52 168,51 170,51 172,50 173,50 177,49 185,48 192,44 195,42 203,40 206,39 207,39 208,38 210,37 210,37 211,36 211,35 210,34 210,34 210,34 210,33 209,33 209,32 208,32 207,31 206,30 205,29 204,29 205,29 206,28 207,27 209,25 209,24 208,23 212,21 212,21 216,19 218,18 220,15 224,12 225,10 227,8 233,2 234,1 236,0 236,0 236,1 237,2 238,3 240,5 241,6 242,7 243,8 246,8 253,9 254,9 258,11 262,13 263,14 267,16 268,17 271,18 273,18 274,18 274,19 274,19 275,19 278,20 282,21 291,24 293,26 294,26 298,29 301,30 304,32 304,32 308,34 310,36 312,37 313,38 318,37 325,34 325,34 327,31 334,31 337,32 338,32 339,32 343,34 345,34 345,34 346,34 350,37 350,37 351,41 351,47 350,51 350,52 350,55 351,56 351,57 351,58 351,58 350,59 351,59 351,60 351,61 351,61 351,61 351,61 351,61 351,62 351,62 351,62 351,62 351,63 351,63 351,63 351,63 352,63 352,64 351,64 353,65 352,65 351,66 351,66 351,66 351,67 351,67 351,67 352,67 353,67 353,69 354,69 353,70 352,70 352,71 350,72 350,72 349,72 349,72 349,72 349,73 349,73 349,73 349,73 349,74 349,74 349,74 349,74 349,74 348,74 348,74 348,74 347,74 347,74 347,75 346,75 346,75 346,75 345,76 345,76 344,76 343,77 343,77 342,77 342,78 341,78 341,79 342,79 342,79 342,80 342,80 342,81 342,81 341,82 341,82 339,83 339,83 339,83 339,83 338,85 338,85 338,85 338,85 337,88 336,88 335,88 334,88 334,88 334,89 333,89 333,89 332,89 331,90 331,90 331,91 331,91 331,91 330,91 330,92 329,92 329,93 328,93 328,93 327,94 327,94 327,94 327,94 326,94 326,94 326,94 325,94 325,94 325,94 324,94 324,94 324,94 323,94 323,94 323,94 323,94 323,95 323,95 322,95 322,95 322,95 322,96 322,96 320,96 319,97 319,98 318,99 317,100 317,100 317,101 317,101 318,102 319,102 320,103 322,103 324,104 324,104 326,105 327,105 327,105 329,104 331,104 332,103 333,103 336,101 338,100 340,99 342,99 343,100 345,100 346,101 350,99 352,99 355,100 359,101 367,101 369,101 371,102 374,102 379,103 382,103 384,103 389,101 393,101 394,101 395,101 397,102 400,103 402,104 405,104 407,105 407,104 407,104 407,104 408,102 408,102 408,102 408,102 409,101 409,100 409,100 409,99 410,99 410,99 410,99 410,99 409,98 409,98 409,98 408,97 407,97 406,97 406,97 405,97 404,97 402,96 402,96 401,97 401,97 401,97 401,97 401,97 401,97 400,97 400,97 393,95 393,95 393,94 393,93 392,93 392,93 391,93 391,93 391,93 392,91 392,90 392,90 393,90 393,90 393,90 393,90 393,89 394,89 394,89 395,89 395,89 396,89 399,90 403,91 405,91 405,91 407,92 408,92 410,92 411,93 412,93 412,93 413,93 414,93 414,93 415,94 418,95 420,96 421,97 423,97 424,97 426,98 428,98 429,98 431,98 433,98 434,98 436,98 437,98 439,99 439,99 440,100 441,100 443,101 443,101 443,101 443,101 443,101 444,101 444,101 446,102 447,102 448,102 449,102 450,102 453,103 453,103 454,103 454,103 454,103 455,103 455,103 456,103 457,103 457,103 458,104 459,104 460,105 461,105 462,105 463,105 463,106 464,106 464,106 466,106 471,106 471,106 473,106 475,107 476,107 476,107 478,107 480,107 481,107 483,107 485,107 487,108 488,108 490,108 492,108 492,108 493,108 495,109 497,109 498,109 500,110 500,110 500,110 500,110 499,110 499,110 499,110 499,111 499,111 499,111 498,111 498,111 498,112 497,113 496,113 496,114 496,114 495,114 495,114 494,115 493,116 489,119 489,119 488,119 487,118 486,117 486,116 485,118 484,119 482,121 482,122 481,123 481,123 480,125 479,126 479,126 478,127 477,127 476,127 476,127 476,127 476,126 475,127 475,127 476,127 476,127 475,128 475,128 475,128 474,128 474,128 474,128 474,128 474,128 474,128 474,128 475,129 475,129 475,129 475,129 474,129 474,129 474,129 474,129 474,130 474,130 474,130 473,130 473,130 473,130 471,131 474,133 472,134 471,135 471,135 471,135 471,135 471,135 470,135 470,136 470,136 470,135 470,135 469,135 469,135 469,135 468,135 468,135 468,135 468,134 468,134 468,134 467,134 467,133 467,133 467,132 467,132 466,131 466,131 464,130 463,130 463,130 462,130 461,131 461,131 461,131 460,131 460,130 459,130 459,130 458,130 456,130 456,130 455,130 455,130 454,130 454,130 453,131 453,131 452,131 452,131 451,131 449,131 449,132 448,131 447,132 447,132 447,132 447,132 447,132 446,132 446,133 446,133 447,133 447,133 449,133 449,133 450,133 450,133 450,133 450,134 451,134 451,134 452,134 452,135 452,135 454,135 454,135 455,136 455,136 456,136 455,137 455,138 454,139 454,139 454,140 454,140 454,140 454,141 454,141 453,141 453,141 452,141 452,141 452,141 452,141 451,141 450,141 450,142 449,142 449,142 449,142 448,142 448,142 448,142 448,141 448,141 448,141 448,140 447,140 446,140 447,140 447,140 447,141 447,141 446,141 446,141 446,141 446,141 446,141 445,141 444,142 444,142 444,142 443,142 442,142 441,143 439,144 438,145 438,145 438,145 438,145 438,145 437,146 437,146 435,146 434,147 433,147 432,148 431,148 430,148 430,148 429,148 429,148 429,149 428,149 428,149 428,149 427,148 427,148 426,148 426,148 426,148 426,149 425,149 421,147 421,146 419,144 419,143 418,142 417,142 417,142 413,140 413,139 412,138 412,138 412,137 412,137 412,136 412,133 412,132 412,132 412,132 410,131 409,129 407,128 406,127 404,125 404,124 403,124 403,124 402,123 401,122 401,122 400,121 399,120 399,120 399,120 398,120 398,120 397,120 397,120 397,119 396,119 395,119 395,119 394,118 394,118 394,118 393,118 392,118 391,118 391,117 390,117 389,117 388,116 388,116 388,116 387,116 385,115 384,115 384,115 381,115 379,116 378,116 374,115 374,115 374,115 374,115 372,115 371,115 371,116 371,116 371,116 370,115 370,115 370,115 370,115 369,115 367,115 367,115 367,115 366,115 366,115 365,115 364,116 364,116 364,116 363,117 363,117 362,117 362,117 361,117 361,117 361,118 359,118 359,118 359,118 359,118 358,118 358,118 358,118 358,118 358,118 358,118 358,117 358,117 358,117 357,117 357,118 356,118 356,118 356,118 356,119 356,119 355,119 356,119 357,120 357,120 357,121 358,122 358,122 358,122 359,123 359,124 359,125 359,125 359,125 358,127 358,128 359,128 359,129 360,130 360,131 360,132 360,132 359,134 359,134 358,135 359,136 357,139 357,140 358,140 359,141 359,142 359,143 359,143 359,143 358,143 358,143 358,142 358,142 357,142 357,142 357,142 356,143 353,144 351,144 347,145 347,145 346,143 340,143 337,147 327,147 323,146 321,147 318,148 314,149 312,149 311,149 311,149 311,148 310,148 308,148 306,147 303,147 300,147 299,147 298,146 297,146 296,145 295,144 293,144 292,143 290,143 289,143 287,142 286,141 286,141 286,141 286,140 282,141 282,141 279,140 279,140 275,137 273,136 270,133 269,133 266,134 261,137 257,139 256,139 255,140 255,142 255,142 253,143 253,143 254,143 255,143 257,143 257,143 258,143 258,143 260,143 260,143 261,144 261,144 262,146 262,147 263,147 263,148 264,149 264,150 264,150 266,153 268,158 265,158 264,158 264,158 263,159 261,159 261,159 261,159 258,159 258,159 258,159 257,160 256,161 253,163 252,163 251,163 251,163 250,164 250,164 249,165 248,165 247,166 247,166 247,166 245,167 245,167 244,168 243,168 242,169 242,169 242,169 240,171 240,171 240,171 240,171 239,172 238,172 238,172 238,172 237,173 236,173 236,174 236,174 235,175 235,175 234,176 234,176 233,178 232,178 232,178 232,179 231,180 231,181 230,181 229,182 229,183 228,183 227,183 226,184 226,185 226,186 225,187 225,187 225,189 225,191 225,192 224,193 223,195 223,196 222,199 222,201 221,203 221,203 222,220 226,222 226,222 226,222 228,223 228,223 226,223 231,226 231,226 231,227 232,228 235,232 238,237 238,237 238,238 238,238 238,238 239,238 242,244 239,245 235,248 233,249 229,252 228,252 228,252 212,258 211,259 211,261 210,261 211,262 212,263 210,264 209,264 207,263 206,262 204,262 203,261 202,261 198,258 198,258 197,258 196,258 194,258 191,258 190,258 190,258 190,257 189,257 188,257 186,256 183,255 182,255 182,255 180,255 179,256 179,257 178,258 177,258 176,258 175,259 174,259 173,260 171,260 170,261 169,262 168,263 166,262 165,262 163,262 159,260 159,260 156,263 156,263 156,263 155,263 152,264 152,266 145,263 125,258 121,256 105,254 102,252 97,248 91,243 86,242 78,238 74,237 73,237 72,237 71,237 68,236 60,237 55,237 50,236 49,236 43,240 38,239 27,238 26,235 24,234 24,231 22,230 16,229 15,228 12,227 9,226 9,226 8,226 7,225 3,225 2,225 1,225 1,225 0,225 0,225" id="1819" class="canton" fill="steelblue" stroke-width="1" stroke="white" geotype="canton" geoname="Vierzon-2" code_insee="1819" code_departement="18" nom_departement="Cher" code_region="24" nom_region="Centre-Val de Loire"/></svg>