<?xml version="1.0" encoding="utf-8"?>
<svg version="1.1" id="svgmap" xmlns="http://www.w3.org/2000/svg" xmlns:xlink="http://www.w3.org/1999/xlink" x="0px" y="0px" width="100%" height="100%" viewBox="0 0 500 330">
<polygon points="90,178 92,180 94,182 96,183 97,185 98,188 98,188 99,191 101,191 103,192 102,192 104,192 104,193 104,193 105,193 105,193 106,194 106,194 107,195 107,195 108,196 108,196 109,196 109,197 109,199 110,202 109,204 109,205 109,205 111,206 116,208 118,209 122,210 125,210 128,208 129,207 129,206 129,206 129,205 130,205 130,203 134,199 134,198 134,196 135,194 135,192 134,191 134,190 135,188 135,187 137,181 136,174 134,171 139,168 143,166 145,164 146,163 146,163 149,160 151,156 150,156 150,156 149,155 148,155 148,155 147,155 146,154 143,153 145,152 144,152 144,152 143,152 143,152 143,151 143,150 143,149 143,149 141,147 142,147 143,147 144,147 144,147 144,147 144,147 145,147 145,146 145,146 148,144 148,144 147,143 147,143 146,143 145,143 145,143 143,142 141,140 147,137 147,136 147,136 148,136 148,136 149,136 150,136 150,136 150,135 151,135 152,135 152,135 154,134 154,134 155,133 155,133 157,131 158,131 159,130 159,130 160,130 161,129 162,128 164,125 164,125 164,124 164,121 165,121 166,121 167,119 169,118 170,123 172,121 175,120 178,120 179,120 180,120 181,119 181,119 182,119 182,119 182,119 184,120 184,120 185,120 185,120 186,120 187,119 188,118 188,117 189,115 190,115 190,114 192,112 193,111 192,110 192,110 191,109 191,108 191,108 191,108 191,107 192,107 192,106 193,106 193,105 194,105 194,105 194,105 195,104 195,104 196,103 196,103 196,102 196,102 196,101 195,101 195,101 192,101 192,101 191,101 190,100 189,100 188,100 186,100 185,99 183,99 180,97 179,96 178,96 175,95 173,94 173,94 172,94 171,94 170,94 168,94 167,94 167,94 166,94 166,94 165,94 165,94 164,94 164,94 164,94 163,94 163,94 163,93 163,93 163,92 163,92 163,91 163,91 164,90 164,89 165,87 166,87 166,86 167,85 167,85 167,84 167,84 167,83 167,83 167,82 167,82 166,82 166,82 165,82 164,81 164,81 163,80 163,80 161,80 161,80 160,79 158,79 151,76 147,75 145,74 144,74 144,74 143,74 141,74 140,74 138,74 138,73 137,73 137,73 136,73 136,72 135,72 134,71 134,71 133,70 133,70 133,70 133,68 132,67 131,67 130,66 129,65 128,65 127,65 127,65 126,65 126,64 127,64 127,64 128,64 129,64 129,64 129,64 130,64 130,64 131,64 131,64 132,63 132,63 132,63 143,63 148,60 164,57 172,54 179,52 191,48 191,62 191,68 197,68 201,68 208,67 209,76 212,90 215,89 217,88 218,88 219,88 219,87 220,87 221,88 222,88 223,88 223,88 226,88 227,89 228,89 231,90 232,90 233,90 236,91 236,91 236,90 237,91 237,91 238,91 241,91 242,92 242,92 243,92 243,92 243,92 243,92 243,92 243,92 244,92 244,92 244,91 244,91 244,91 245,91 245,91 246,91 246,91 246,91 246,91 248,91 250,90 251,90 252,90 253,89 254,89 255,89 255,89 256,89 258,89 260,89 260,89 261,90 262,90 262,90 262,90 262,90 262,90 262,90 263,89 263,89 263,88 263,88 264,88 265,88 266,88 266,88 268,86 269,86 269,86 270,86 270,86 270,86 271,86 272,86 273,85 273,85 274,85 274,85 274,85 274,85 274,85 275,85 275,85 275,85 275,85 276,85 276,85 276,85 276,85 277,84 277,84 278,83 278,83 278,83 279,83 280,83 281,83 285,82 297,79 300,75 305,74 303,70 302,69 302,61 302,59 308,47 308,47 314,40 314,40 320,34 327,27 334,26 336,26 341,25 343,24 357,20 358,20 362,20 366,19 371,18 377,17 387,16 391,17 398,19 399,18 401,17 401,15 401,14 401,14 398,12 390,9 390,9 388,8 388,7 387,6 387,6 387,6 388,3 389,3 390,1 391,1 392,1 393,0 394,0 397,0 399,1 402,1 403,2 404,3 408,5 410,3 410,4 413,8 415,8 416,8 416,8 417,9 418,9 417,13 418,13 416,30 416,30 414,29 414,29 413,28 412,26 412,25 411,25 411,24 411,23 410,21 410,21 409,20 408,20 408,19 407,19 407,19 407,19 407,19 406,17 406,17 405,16 404,17 403,19 403,20 401,21 399,22 399,22 398,22 398,23 397,24 397,24 396,25 396,25 395,26 395,26 395,27 395,27 394,28 394,28 393,28 393,29 393,29 392,30 392,30 391,31 391,31 390,32 390,32 390,33 389,33 389,33 388,34 387,34 387,35 387,35 386,35 386,36 385,36 385,36 384,37 383,37 383,37 382,38 382,39 381,40 379,41 380,41 380,42 380,42 380,42 379,43 378,44 377,44 376,44 376,44 376,45 377,48 377,48 377,49 377,49 377,49 377,49 377,50 378,50 378,51 378,51 378,51 379,52 379,52 380,53 380,54 380,54 381,55 381,56 381,56 381,57 381,57 381,57 381,58 381,58 381,58 383,60 384,62 384,62 385,62 385,63 385,63 384,63 383,63 383,64 382,64 381,65 381,65 380,65 380,66 379,67 379,67 378,68 378,68 378,68 378,68 377,69 376,69 377,70 378,71 378,71 378,71 379,72 379,72 380,73 380,74 380,75 380,75 380,75 381,76 382,77 383,80 383,81 383,82 384,84 384,84 384,84 384,84 384,85 384,85 384,85 385,85 385,85 386,86 386,86 387,86 387,87 387,87 388,87 388,87 388,87 388,87 388,88 389,88 389,89 391,89 391,90 391,89 394,90 394,90 395,91 395,91 395,91 397,92 397,92 397,93 398,93 398,93 399,93 399,93 399,93 399,94 400,94 400,95 400,95 400,95 400,96 401,96 401,97 401,97 401,97 403,99 404,99 406,101 406,102 407,102 407,103 408,104 408,104 408,105 409,106 409,106 409,106 409,107 409,108 409,108 409,109 409,109 409,110 409,110 409,111 410,111 410,112 410,113 410,113 411,113 411,114 412,114 412,115 412,116 412,116 412,116 413,117 415,119 416,120 416,120 416,120 416,122 417,123 417,123 417,124 417,124 417,124 417,125 419,130 419,131 420,135 420,137 421,138 421,138 421,138 421,139 426,158 424,161 423,163 423,163 421,164 420,165 420,166 419,166 419,167 418,167 418,168 418,168 417,168 417,169 416,170 415,171 414,172 414,172 413,176 413,177 413,177 412,178 412,178 412,178 412,179 413,179 415,179 415,179 424,179 424,179 425,179 426,180 426,180 428,180 428,181 429,181 429,181 431,181 433,181 434,182 435,182 436,182 437,181 437,181 439,179 439,178 439,178 441,177 441,176 443,175 444,175 445,174 445,174 445,175 445,175 446,177 446,178 446,178 446,180 447,181 449,182 449,183 449,183 449,184 448,184 445,183 444,184 443,185 443,185 444,186 444,186 445,190 446,191 446,191 447,191 448,191 449,192 451,192 452,193 454,194 454,194 455,194 455,194 455,195 455,195 455,195 455,196 455,196 455,197 455,197 455,200 455,202 456,203 456,204 457,206 457,208 455,208 451,209 446,210 442,211 443,212 443,212 444,213 444,214 445,215 445,216 445,217 446,219 445,219 445,220 445,221 445,221 445,221 445,221 445,222 445,222 445,222 445,223 445,223 446,223 447,223 447,223 447,223 448,223 448,223 448,223 449,223 449,223 449,223 449,223 449,222 450,222 450,222 450,222 450,222 451,222 451,222 451,222 451,222 451,222 451,221 451,221 451,221 452,221 452,221 453,222 453,222 453,222 453,222 453,222 453,221 453,221 454,221 454,221 454,221 455,221 455,221 455,221 455,221 455,221 455,221 455,221 456,221 456,221 456,221 456,221 456,221 456,221 456,221 456,221 458,222 458,222 458,222 459,222 466,230 466,230 474,238 474,238 474,238 474,238 475,238 475,238 478,239 478,239 478,239 479,239 480,240 480,241 479,242 482,243 483,241 488,243 489,245 491,245 492,245 492,245 493,246 493,246 493,246 496,247 497,248 497,248 498,249 499,250 499,251 500,251 500,252 499,253 499,255 499,256 499,257 499,257 498,259 498,259 498,259 498,259 498,260 497,260 497,261 496,261 496,261 495,261 494,261 493,260 492,259 491,259 490,257 489,257 488,257 486,258 486,258 486,258 486,259 487,260 488,261 488,262 490,262 492,262 492,263 492,263 493,263 493,264 490,264 489,265 489,265 487,264 484,264 479,263 476,263 474,263 472,263 468,259 466,263 465,264 465,265 463,268 462,269 461,270 461,271 462,272 463,272 465,273 462,276 468,278 470,278 467,283 463,281 462,282 462,282 462,282 461,282 461,283 460,283 459,283 458,283 456,284 453,285 449,286 448,286 447,287 448,287 448,289 447,289 447,291 447,292 444,292 443,293 441,293 438,294 436,294 436,294 435,294 434,294 433,294 432,294 432,294 431,294 429,293 428,293 427,292 426,292 425,292 425,292 423,290 422,290 422,290 422,290 421,289 421,289 420,289 420,289 418,289 416,290 416,290 413,290 412,290 411,290 411,290 409,290 408,290 408,289 407,289 406,289 406,289 405,289 405,289 405,289 405,288 405,288 405,288 405,287 406,287 406,287 407,286 407,286 408,285 408,285 410,284 410,284 410,284 410,284 410,284 410,284 410,283 410,283 410,283 410,283 410,282 410,282 410,281 409,281 409,280 408,280 408,280 407,279 406,278 406,278 405,278 404,277 403,277 402,277 402,277 402,277 401,277 401,277 400,278 400,278 399,278 399,278 398,279 398,279 397,280 396,281 396,282 396,282 395,283 395,283 395,283 395,283 395,284 395,284 394,284 394,284 393,284 392,284 392,284 392,284 391,284 390,285 390,285 391,286 391,286 390,287 390,287 390,288 390,289 377,293 376,294 376,295 375,296 374,296 374,296 373,297 372,298 372,298 372,298 371,298 371,298 370,299 369,300 369,300 369,301 369,301 368,302 368,302 367,302 367,302 367,294 366,294 366,293 366,292 365,290 365,290 365,289 365,289 365,289 364,288 363,288 361,287 361,287 358,285 357,285 357,284 356,284 354,282 353,282 353,282 353,282 352,281 352,281 350,280 350,280 349,279 349,279 348,279 348,279 347,278 346,278 345,276 345,276 339,272 339,272 337,271 334,268 337,266 339,264 341,263 342,263 344,262 344,261 344,261 345,260 346,259 346,259 347,258 349,257 350,256 353,252 352,251 352,251 351,251 350,250 349,249 348,249 347,248 347,248 346,246 345,246 345,245 345,245 343,244 343,243 341,242 340,242 339,242 338,241 337,241 335,242 335,242 334,243 333,244 333,244 332,244 332,244 330,244 330,243 329,243 328,242 328,241 327,240 327,239 325,238 323,241 323,241 323,242 323,242 323,243 322,246 320,245 319,249 318,249 315,251 315,250 308,255 301,251 301,253 301,253 301,254 301,254 302,255 303,256 296,257 287,259 284,258 281,259 280,260 280,260 280,260 280,260 277,261 275,261 273,261 273,261 273,261 273,261 273,260 273,260 273,259 273,257 271,258 271,259 271,260 271,260 272,260 272,261 271,261 271,261 270,261 266,264 266,264 265,264 265,264 264,264 260,264 259,263 258,262 258,260 258,259 257,258 257,258 256,258 255,258 255,258 255,259 255,259 253,259 252,259 251,259 251,260 250,260 247,259 246,258 245,257 242,256 242,255 241,256 240,257 239,257 237,258 236,258 234,258 233,258 232,259 231,259 229,260 228,261 227,261 220,261 217,261 217,261 217,262 217,263 216,264 216,267 216,267 216,268 215,270 213,269 213,269 212,269 210,268 209,268 208,268 208,268 208,268 208,268 208,268 207,268 194,266 191,265 185,268 185,268 184,269 183,269 183,269 182,269 179,271 176,273 173,274 173,274 171,275 171,275 171,275 167,276 165,278 161,279 159,279 156,281 155,281 154,282 153,281 152,280 150,279 147,281 145,282 145,282 140,276 139,277 138,277 136,278 135,281 136,282 136,282 136,282 136,282 136,283 136,283 136,284 131,290 130,290 130,290 125,293 125,294 124,294 124,294 122,296 111,303 111,304 110,304 110,304 110,304 110,304 110,303 111,303 110,303 110,303 107,303 106,303 106,303 106,303 105,303 105,303 104,304 103,303 103,303 102,302 102,302 102,302 102,302 102,301 102,300 102,300 102,300 102,299 101,299 101,298 98,298 97,299 95,300 95,301 95,302 95,302 94,303 92,304 92,305 90,305 90,305 89,305 89,306 88,306 88,306 87,306 83,306 81,307 76,306 75,310 75,311 71,315 71,315 71,316 71,316 70,316 70,316 70,316 67,316 65,316 64,317 63,317 61,317 60,318 58,319 58,319 56,320 54,322 54,322 54,322 54,322 54,322 52,324 51,325 51,326 49,325 48,326 47,326 46,326 44,326 41,328 40,328 39,328 39,328 39,328 34,329 32,329 30,329 29,329 27,329 27,329 27,329 27,329 26,330 23,330 23,330 23,330 21,329 21,329 21,328 20,328 20,328 18,328 17,328 17,328 16,328 14,328 12,329 11,329 9,328 9,327 9,327 9,327 9,326 9,326 9,326 9,326 9,326 9,325 9,325 9,325 9,325 9,325 9,325 9,325 9,324 10,324 10,323 10,322 10,322 10,321 10,321 9,321 9,320 9,320 9,319 9,319 9,319 8,318 8,318 8,317 8,317 7,316 7,316 7,316 7,315 7,315 8,314 8,313 8,313 8,313 8,312 9,312 9,312 9,312 9,312 9,311 9,311 9,311 9,311 9,311 9,311 9,311 9,310 9,310 9,310 9,310 8,309 8,309 8,309 7,308 8,306 8,304 6,300 6,299 7,297 7,296 7,293 7,291 5,288 5,284 2,280 2,280 2,280 2,280 2,279 2,279 2,279 2,279 2,279 2,279 1,278 1,278 0,278 0,278 0,278 0,278 0,278 1,277 2,277 3,277 3,277 3,277 3,276 6,275 7,274 8,273 8,273 8,273 9,272 9,271 9,271 12,269 12,268 12,268 12,268 14,265 15,265 16,264 17,263 17,262 18,262 18,261 18,261 19,261 19,261 19,259 19,259 19,259 19,259 19,259 19,259 19,259 20,258 20,258 20,258 21,258 21,258 21,258 21,258 28,254 28,254 29,253 30,252 30,252 31,251 31,251 31,251 31,251 31,250 31,250 31,250 32,249 32,249 32,249 32,248 32,248 32,248 33,247 33,247 33,246 33,246 34,245 34,245 34,245 35,245 35,245 36,244 37,243 37,243 37,243 38,242 38,242 39,241 40,241 41,239 41,239 42,238 45,236 45,234 45,234 45,233 45,232 46,230 46,230 46,229 46,229 47,228 47,228 49,226 49,225 50,225 50,224 50,223 51,223 51,222 51,222 52,222 52,221 52,221 52,221 53,220 54,219 55,218 56,217 56,217 57,216 58,216 58,215 59,215 60,214 60,214 61,214 61,214 62,213 63,213 63,212 64,212 64,212 64,212 64,210 64,210 64,210 64,210 64,209 63,209 63,209 63,209 63,208 63,208 63,207 63,207 62,206 63,206 64,204 65,204 65,203 65,203 66,203 67,202 69,201 69,201 71,200 72,199 72,199 72,199 74,199 73,198 73,197 73,197 72,195 72,194 71,192 71,191 71,190 71,190 71,189 71,189 71,189 71,189 72,189 74,188 74,188 75,187 76,187 76,187 76,187 77,187 77,187 78,187 79,187 81,188 81,188 82,189 83,189 83,189 83,189 83,189 83,189 83,189 82,187 81,186 80,186 79,185 78,184 77,183 77,183 76,181 76,181 75,180 77,179 78,179 79,178 80,178 80,178 81,178 82,177 83,177 84,177 85,176 87,175 90,178 90,178" id="1812" class="canton" fill="steelblue" stroke-width="1" stroke="white" geotype="canton" geoname="Saint-Amand-Montrond" code_insee="1812" code_departement="18" nom_departement="Cher" code_region="24" nom_region="Centre-Val de Loire"/></svg>