<?xml version="1.0" encoding="utf-8"?>
<svg version="1.1" id="svgmap" xmlns="http://www.w3.org/2000/svg" xmlns:xlink="http://www.w3.org/1999/xlink" x="0px" y="0px" width="100%" height="100%" viewBox="0 0 500 336">
<polygon points="499,85 498,85 498,86 498,87 498,87 499,88 499,89 499,91 499,91 499,92 498,94 497,94 497,95 498,95 498,95 500,97 500,97 500,97 500,98 499,98 497,99 496,100 496,100 496,100 495,103 495,103 494,104 493,104 492,105 491,105 489,106 488,106 485,108 483,109 481,110 480,110 477,111 476,111 475,112 474,113 471,115 470,116 464,120 463,121 462,123 462,123 460,124 458,126 457,126 457,127 456,127 455,128 455,129 455,129 455,131 455,131 456,132 457,134 458,136 458,137 458,138 458,138 458,139 458,139 458,139 458,140 457,140 456,140 456,140 456,141 456,142 455,142 454,143 454,143 453,143 453,143 452,144 451,144 451,144 447,143 440,142 438,141 437,141 436,142 430,143 429,143 426,143 426,143 425,143 423,144 422,145 422,146 422,146 422,146 422,146 425,148 425,148 426,149 426,149 426,150 426,150 426,151 426,151 425,154 424,155 424,155 423,156 422,156 418,158 418,158 417,158 416,158 415,158 414,158 413,158 413,157 413,157 412,157 412,156 410,156 409,156 408,156 408,156 407,156 407,156 406,156 406,157 405,158 405,158 405,159 405,160 405,161 405,161 406,163 405,163 405,164 404,165 404,165 403,165 403,165 402,166 400,167 400,168 400,168 399,168 399,171 399,173 399,173 400,175 400,176 401,176 403,179 403,179 403,181 403,182 403,183 403,186 403,187 403,188 402,189 401,191 400,191 400,192 399,192 398,192 397,192 396,192 393,193 390,194 389,195 388,195 386,196 385,197 384,197 384,197 383,200 383,201 383,201 383,202 383,203 383,205 383,206 382,206 381,207 380,207 379,208 377,208 373,209 373,209 370,209 369,210 367,210 367,210 365,211 364,212 364,212 363,212 362,212 361,212 361,211 360,210 359,210 359,210 358,210 357,210 356,210 355,210 354,210 354,211 354,211 354,211 355,213 356,213 356,214 357,214 358,214 359,214 360,214 360,215 362,217 362,218 362,218 363,219 363,220 362,221 362,223 361,224 360,225 360,226 360,226 359,226 358,227 356,228 354,228 349,229 348,229 345,229 344,229 341,229 341,229 338,228 337,227 335,227 335,226 334,226 333,226 332,226 332,226 331,227 329,228 329,229 329,229 331,229 333,229 333,230 333,230 331,230 331,231 331,232 330,233 330,234 329,236 328,236 327,237 326,238 324,239 323,239 321,239 321,239 319,238 318,238 317,239 315,239 315,238 313,238 311,238 310,238 308,238 306,239 304,239 303,239 302,239 301,240 298,240 297,240 294,241 293,241 293,242 294,242 295,243 297,243 297,244 298,246 298,247 298,248 300,251 301,252 302,253 303,253 304,254 305,254 304,257 304,259 304,261 303,262 302,263 302,264 301,266 299,269 299,269 296,271 294,272 292,272 291,273 291,272 290,273 290,273 286,274 285,275 284,276 280,277 277,278 273,278 267,280 266,281 265,281 262,284 262,284 261,284 261,284 256,282 253,281 252,281 251,280 250,278 249,277 249,277 248,275 246,273 245,271 245,271 244,270 245,270 244,269 243,268 243,268 242,268 242,268 240,267 239,267 238,267 235,267 233,267 231,267 229,267 227,266 223,265 221,264 219,264 218,263 217,263 216,263 215,263 214,264 213,265 211,265 210,266 208,266 207,266 206,266 204,265 204,265 203,264 203,264 203,264 203,264 201,263 201,262 200,262 195,262 192,262 186,263 184,263 179,263 177,264 175,264 174,265 171,270 169,274 164,278 164,278 161,280 159,281 157,282 156,282 150,283 147,284 146,285 144,285 143,286 141,288 140,289 139,290 137,291 136,293 136,295 134,297 133,300 131,305 129,309 127,314 126,316 125,318 124,320 124,320 123,321 122,322 121,323 120,323 118,324 115,325 108,328 105,329 102,331 99,332 96,333 95,333 93,334 90,334 87,334 81,336 79,336 77,336 76,336 75,335 75,334 75,334 74,333 77,331 80,329 79,328 78,327 77,326 74,324 73,323 72,323 72,322 70,322 70,322 69,321 68,321 67,321 66,321 66,321 66,321 64,321 64,320 64,320 64,319 64,318 64,318 63,317 63,317 62,317 61,316 60,316 58,315 56,314 56,313 55,313 53,313 52,313 52,313 51,313 50,312 49,311 48,310 47,310 46,309 45,309 45,309 44,309 44,309 43,309 43,308 43,307 43,307 43,306 44,305 43,304 43,303 41,302 40,301 39,301 39,301 38,300 38,300 38,300 38,299 37,299 37,299 37,299 37,298 36,297 35,296 34,296 31,294 30,293 30,293 28,293 28,293 28,293 28,293 28,293 27,292 27,292 27,292 27,291 27,290 27,290 27,290 27,289 27,288 28,287 29,287 29,286 28,285 29,285 29,284 30,283 30,283 30,282 30,281 31,280 31,280 31,280 32,280 32,279 33,279 33,278 33,277 33,276 33,276 33,276 33,276 32,275 32,274 32,274 32,274 32,273 31,273 31,273 31,273 30,273 29,272 29,271 28,271 28,270 27,270 27,270 27,269 27,269 27,269 26,269 25,268 24,267 23,267 23,267 23,265 23,265 29,264 29,264 31,263 31,263 33,262 38,261 39,261 40,261 41,261 41,261 41,262 41,262 41,262 42,262 44,262 48,262 53,262 53,262 53,262 53,262 53,261 53,259 52,255 52,253 53,252 53,251 53,251 51,247 51,246 50,245 47,242 47,242 47,241 45,241 45,241 45,240 44,240 43,238 43,237 41,235 41,235 41,234 41,233 41,232 40,232 41,231 41,231 48,230 49,230 49,229 50,229 50,228 50,226 51,226 51,225 52,225 54,224 54,223 55,223 57,220 58,220 58,220 59,220 59,220 62,221 62,221 62,221 62,221 62,221 62,221 63,221 63,221 63,221 63,221 64,221 64,221 70,221 77,220 79,220 80,220 82,219 84,219 84,218 86,214 86,214 86,214 87,212 86,207 86,207 86,207 86,206 86,206 86,206 87,204 88,204 88,204 91,204 91,204 91,204 91,203 91,202 92,201 92,201 96,201 96,201 98,202 99,202 99,204 99,206 99,206 99,206 101,207 102,208 102,208 103,208 105,209 107,209 108,209 108,209 109,209 110,208 111,210 112,210 112,210 113,211 114,211 114,211 114,210 115,210 115,209 116,209 121,208 123,208 125,208 125,207 124,207 124,207 123,206 123,205 123,204 123,204 124,203 124,203 122,200 122,200 123,199 123,198 122,197 122,197 121,196 121,195 121,194 120,194 120,194 120,194 120,193 121,193 122,192 122,191 122,191 122,190 122,189 122,189 119,187 118,186 118,185 118,183 117,182 118,181 118,179 118,179 118,179 118,178 117,178 117,178 117,177 115,177 113,176 111,175 107,174 104,172 102,172 101,170 100,169 100,167 99,166 99,165 99,165 98,164 97,164 96,163 96,162 96,162 96,162 96,162 96,162 96,161 95,160 95,159 94,159 92,159 91,158 91,158 90,158 88,156 85,154 85,153 84,151 83,150 83,149 82,148 81,148 80,147 80,147 79,148 79,148 78,148 77,149 75,151 72,153 71,155 71,155 70,156 70,156 70,156 69,156 69,156 69,156 69,154 68,154 68,153 67,152 67,152 66,151 64,151 64,151 64,151 63,151 62,151 60,151 57,150 56,150 55,150 54,151 54,150 53,149 53,148 52,148 53,148 53,148 53,148 55,148 55,149 57,149 61,149 62,148 63,148 64,148 65,148 67,148 68,149 69,149 70,148 71,148 72,147 72,145 72,144 73,143 73,143 76,142 76,142 76,141 77,139 77,138 77,138 79,137 77,137 77,136 74,135 73,134 73,134 74,134 74,133 73,133 73,132 73,131 73,131 72,130 70,130 69,129 68,129 68,129 66,128 66,128 65,127 65,127 64,126 64,126 64,125 65,125 65,125 67,124 67,124 67,124 68,123 68,123 68,122 68,121 67,120 67,119 66,119 66,118 66,118 65,117 64,117 63,116 62,116 60,116 59,116 59,116 58,116 57,115 57,115 56,113 56,112 57,111 56,110 55,109 54,108 53,107 52,106 51,105 51,105 51,104 52,102 52,102 52,101 52,100 52,99 52,98 51,97 49,96 49,95 49,95 48,94 48,93 48,93 47,92 47,91 47,89 47,88 46,87 46,86 46,85 46,84 46,83 46,82 45,82 44,81 43,80 43,79 42,77 42,76 41,76 40,75 39,74 37,74 37,73 36,73 37,72 37,72 37,72 35,71 35,71 35,70 35,70 34,70 34,69 35,69 35,68 35,68 35,67 34,67 34,66 34,65 34,65 33,65 32,64 31,64 30,64 30,63 29,62 28,62 29,61 29,59 29,59 28,57 28,57 27,56 23,54 23,54 23,55 23,55 22,55 21,56 20,56 20,55 19,56 20,56 19,56 20,56 19,57 19,56 19,57 19,57 18,57 18,57 17,57 16,58 15,58 15,58 14,58 12,58 11,58 10,58 8,57 7,57 7,57 6,56 6,56 7,55 5,54 3,54 2,53 1,53 0,53 0,51 0,50 1,49 2,48 3,48 4,47 4,47 4,47 5,48 6,48 8,48 8,48 9,48 11,48 13,49 13,49 14,49 14,51 14,51 17,47 17,47 17,46 17,46 18,46 19,45 20,45 20,44 21,44 20,44 20,44 20,43 21,43 22,43 22,42 22,42 23,41 23,41 24,40 24,39 24,39 25,39 25,38 26,38 28,37 29,37 29,36 29,36 30,35 30,34 30,34 29,33 29,32 30,32 31,31 32,30 33,30 34,29 35,29 35,27 35,27 35,26 36,26 36,26 36,26 36,26 38,23 39,20 40,20 40,20 41,19 41,19 41,18 42,17 42,17 42,16 44,16 46,15 48,16 48,16 49,17 50,17 50,17 53,17 55,18 57,17 61,18 66,18 67,18 68,18 69,18 72,18 73,19 75,19 76,19 77,19 78,19 78,18 80,18 80,18 82,18 84,17 89,16 90,15 90,16 90,16 89,16 97,18 100,17 101,17 101,20 102,21 102,21 112,22 111,20 115,20 117,23 119,22 119,22 118,25 117,29 119,29 121,25 122,23 123,24 121,27 125,28 126,27 129,28 129,28 130,28 130,27 132,27 134,28 135,28 135,28 135,27 135,25 137,26 137,25 137,25 137,24 137,24 137,23 138,22 139,22 139,21 140,21 140,21 141,22 143,22 143,22 142,23 142,25 142,26 142,26 143,26 145,26 146,25 147,24 148,24 148,24 148,23 148,23 148,22 150,21 152,20 154,20 155,19 156,19 159,19 159,19 158,21 162,22 166,21 166,21 167,20 173,19 174,18 174,18 175,18 175,18 175,17 176,17 178,17 178,17 181,17 181,16 183,16 184,16 184,16 187,17 188,18 190,19 192,20 192,19 192,19 192,18 191,16 192,16 192,16 193,16 193,16 193,15 194,16 194,16 195,16 196,16 197,17 197,18 198,18 199,18 199,18 200,18 200,17 202,17 202,17 203,17 203,17 203,17 204,16 205,16 205,16 206,16 206,16 207,16 210,14 208,12 208,11 208,11 208,9 208,8 211,7 212,7 213,7 217,6 218,6 220,7 220,7 221,7 222,7 223,7 224,5 224,5 224,4 224,4 223,3 223,3 229,0 230,1 231,2 232,3 234,2 234,2 234,3 234,3 234,4 233,5 233,5 233,5 233,6 233,6 238,6 240,9 242,10 242,10 244,10 245,10 247,10 247,6 249,6 251,10 251,10 251,11 249,10 248,12 246,14 247,15 248,16 251,16 251,16 252,15 261,17 261,19 263,19 264,19 265,18 265,18 266,17 266,17 267,17 267,16 266,16 266,15 276,8 277,9 278,9 280,9 280,9 282,10 282,10 282,9 283,9 284,9 285,9 287,9 289,8 290,8 290,8 289,6 290,6 291,7 292,7 293,7 296,8 296,7 296,7 295,7 295,7 295,7 295,7 295,6 295,6 295,6 295,5 296,5 296,4 296,4 296,3 296,3 296,3 296,2 297,2 297,1 298,1 299,0 299,0 299,2 298,3 298,5 298,6 298,7 298,8 299,9 299,9 299,10 300,11 301,12 301,13 301,14 301,15 301,17 301,18 303,17 303,17 305,16 306,19 307,20 307,20 307,21 308,23 310,24 313,25 317,27 320,29 321,29 322,28 324,28 328,27 331,26 331,26 332,26 332,30 331,31 329,31 327,32 329,32 330,33 331,33 332,34 333,35 334,36 334,36 335,37 335,37 336,37 337,37 337,38 338,38 339,38 341,39 342,39 343,40 345,41 348,42 349,42 351,44 353,46 355,47 356,48 357,49 358,51 361,49 363,48 365,50 366,50 367,47 367,43 368,42 369,41 369,40 369,39 374,39 374,36 383,38 383,37 384,36 383,34 382,32 380,29 379,26 379,25 386,24 387,24 388,25 388,25 387,28 387,28 387,28 388,28 388,28 388,28 390,27 390,27 390,26 391,25 391,25 392,24 394,23 396,22 397,22 398,23 399,22 400,22 400,22 400,22 401,22 402,22 403,23 404,23 408,23 411,23 411,23 411,23 411,23 412,23 414,22 415,22 417,23 417,23 418,23 419,23 420,23 420,23 420,23 421,24 421,24 420,24 419,25 418,25 419,25 420,26 420,26 422,26 422,26 422,26 423,29 423,29 423,29 424,32 425,32 426,33 426,33 426,33 426,33 427,34 427,34 427,34 426,35 425,35 426,37 426,37 431,37 434,39 434,39 434,39 435,38 437,39 438,39 438,39 442,41 442,42 443,42 443,42 443,42 445,42 446,42 447,42 447,43 448,43 448,44 448,44 448,44 448,43 449,43 449,42 449,42 451,42 452,42 453,47 453,48 453,48 453,49 453,49 454,49 457,50 457,50 458,51 458,51 458,52 456,52 455,53 455,53 454,53 455,53 457,53 457,53 458,54 458,55 460,55 461,56 465,57 465,58 470,62 470,62 471,62 472,62 472,62 474,63 474,64 475,65 476,65 478,66 478,66 476,69 476,69 477,70 477,70 477,70 476,71 476,72 476,72 480,74 480,75 480,75 480,78 480,79 480,80 480,81 481,81 482,82 482,81 482,81 483,80 483,80 487,81 487,81 494,83 495,84 495,84 497,85 498,85 498,85 498,85 499,85" id="1916" class="canton" fill="steelblue" stroke-width="1" stroke="white" geotype="canton" geoname="Tulle" code_insee="1916" code_departement="19" nom_departement="Corrèze" code_region="75" nom_region="Nouvelle-Aquitaine"/></svg>