<?xml version="1.0" encoding="utf-8"?>
<svg version="1.1" id="svgmap" xmlns="http://www.w3.org/2000/svg" xmlns:xlink="http://www.w3.org/1999/xlink" x="0px" y="0px" width="100%" height="100%" viewBox="0 0 500 307">
<polygon points="144,67 146,67 148,67 151,67 151,67 151,67 151,67 152,66 152,66 153,65 153,65 154,64 155,63 155,63 155,63 155,63 155,63 156,62 156,62 157,62 157,62 157,62 157,62 157,61 158,61 158,61 159,61 159,61 159,61 160,60 160,60 161,60 161,60 161,60 162,60 162,60 163,60 163,60 163,60 163,60 164,60 165,60 166,60 167,60 168,59 168,59 169,59 169,59 170,59 171,58 171,58 171,58 171,58 172,58 172,58 172,58 173,57 173,57 173,57 174,57 174,56 174,56 174,56 174,56 175,55 174,55 175,55 175,55 175,54 176,54 176,54 176,54 176,54 177,54 177,54 177,54 178,53 178,53 179,53 181,52 181,52 182,52 182,52 182,52 182,51 183,51 183,51 185,50 185,49 187,49 187,49 189,48 190,49 190,49 191,49 193,49 193,49 194,49 194,49 194,49 195,49 196,49 196,49 197,48 197,48 198,47 198,46 199,46 199,46 200,46 200,45 200,45 199,45 198,45 198,45 198,44 198,43 198,43 197,43 197,43 197,42 198,42 197,41 197,41 197,40 197,39 197,38 198,38 197,37 198,36 197,35 198,35 198,35 199,34 199,34 200,33 200,33 200,32 200,32 202,31 203,31 203,31 204,31 203,32 203,33 204,33 205,34 210,31 210,30 211,30 211,30 211,31 211,31 213,29 215,28 215,28 216,28 216,28 220,26 220,26 220,26 221,25 221,25 221,24 222,21 221,21 221,20 224,18 224,18 226,17 224,15 227,15 226,13 225,11 226,11 226,11 227,10 228,12 229,12 229,12 230,13 231,14 231,15 231,16 237,14 238,16 239,17 238,20 239,20 240,20 241,20 241,20 242,21 243,20 242,20 242,19 242,18 242,17 244,17 245,15 245,14 244,14 243,13 243,12 244,12 249,11 254,10 255,9 257,9 262,7 264,7 268,12 269,11 272,8 276,5 278,2 280,0 283,2 287,3 293,0 293,0 294,0 294,0 296,1 298,1 299,1 300,2 302,2 303,2 303,2 306,1 307,1 307,1 308,1 308,1 309,2 310,2 312,3 312,3 314,4 315,5 318,6 319,6 319,7 319,7 319,7 320,8 320,8 320,8 321,8 321,9 321,9 321,9 321,9 321,10 322,10 322,10 323,10 324,11 324,11 326,11 328,12 333,14 333,15 334,15 335,15 336,16 336,16 336,16 337,16 337,16 337,17 341,17 343,16 345,16 346,17 346,17 346,17 346,18 346,18 346,18 346,18 346,19 347,19 347,21 347,21 347,21 347,21 347,22 348,22 348,23 348,23 348,24 349,24 349,25 349,26 349,26 350,27 350,28 351,30 351,30 352,32 352,32 352,33 352,33 352,33 353,35 353,36 354,37 354,38 354,38 354,39 355,40 355,40 355,41 356,42 356,43 356,43 357,44 357,45 357,45 357,46 358,47 359,49 359,51 360,51 360,52 360,53 360,53 361,54 362,55 363,56 364,57 366,58 366,59 367,60 367,60 367,60 367,61 368,62 368,63 369,64 369,65 369,67 369,68 369,69 369,69 369,70 371,71 372,72 375,74 376,74 376,74 377,75 377,75 377,76 377,76 378,76 378,77 378,78 379,79 379,80 380,80 380,81 380,81 380,81 379,82 379,82 379,82 380,82 380,82 380,82 381,82 381,82 381,82 381,83 380,83 381,83 381,83 381,84 382,84 381,84 381,84 381,84 381,84 380,85 380,85 380,85 382,87 384,90 387,90 390,89 392,88 394,88 395,87 397,86 398,84 398,83 399,82 399,81 401,79 402,78 404,77 406,75 410,72 413,72 417,70 423,67 424,67 425,67 426,67 432,67 437,68 439,67 445,67 449,66 450,66 452,65 456,61 458,59 459,57 460,57 460,55 461,51 462,52 463,52 465,52 467,52 467,52 468,52 468,54 469,56 471,57 471,57 472,57 472,57 472,58 472,59 472,59 472,60 473,60 473,60 474,61 475,61 475,61 475,61 476,61 478,62 479,63 479,64 479,64 480,64 481,65 482,66 483,66 484,67 486,72 490,75 491,75 491,75 489,78 488,79 488,80 488,81 487,83 487,84 488,85 488,86 490,87 493,88 496,89 498,90 500,92 499,92 498,93 498,93 497,94 497,94 497,95 497,95 497,95 496,96 496,97 496,98 496,99 496,100 497,101 497,103 497,103 497,105 497,105 497,105 497,106 497,107 497,107 497,107 497,107 497,108 496,108 496,108 496,109 494,109 493,110 492,110 492,111 491,111 490,111 490,111 490,112 490,112 490,112 489,112 488,113 487,114 487,114 487,114 487,115 487,115 487,115 487,116 487,116 487,116 487,117 487,117 487,117 487,117 487,117 487,117 487,117 487,117 487,117 487,118 487,118 487,118 487,118 487,118 487,118 487,118 487,118 487,119 486,119 486,119 486,119 486,119 486,119 486,119 486,119 486,119 486,119 486,120 486,120 485,120 485,120 485,120 485,120 485,120 485,120 484,121 484,121 484,121 484,121 484,121 484,121 484,121 484,122 484,122 484,122 484,122 484,122 484,122 483,122 483,122 483,122 483,122 483,122 483,123 483,123 483,123 482,123 482,123 482,123 482,123 482,123 482,123 482,124 482,124 482,124 482,124 482,124 481,124 481,124 481,124 481,124 481,124 481,125 481,125 481,125 480,125 480,125 480,125 480,126 479,126 479,126 479,126 479,126 479,126 479,126 479,126 479,126 479,126 479,126 479,127 478,127 478,127 478,127 478,127 478,126 478,127 477,127 477,127 477,127 477,127 477,127 476,127 476,127 476,127 475,126 475,126 475,126 475,127 475,127 475,127 475,127 475,127 475,127 474,127 474,127 474,127 473,127 473,127 473,127 473,127 473,127 473,127 472,127 472,127 472,127 472,127 472,127 471,127 471,127 471,127 471,127 471,127 471,128 471,128 471,128 471,128 471,128 471,128 471,128 471,128 470,128 470,128 470,128 470,128 470,128 470,128 470,128 470,129 469,129 469,129 469,129 469,130 468,130 468,130 467,130 467,130 467,130 467,130 467,130 466,130 467,130 466,130 466,130 465,131 465,130 465,130 465,130 464,130 464,131 464,131 464,131 464,131 464,130 464,130 463,130 463,130 463,130 463,130 462,130 461,130 460,131 459,131 458,131 457,131 456,131 454,131 453,131 453,131 452,130 451,130 450,130 450,130 450,130 449,130 449,130 448,130 447,130 447,130 447,129 447,129 447,129 446,129 446,129 445,127 444,128 444,128 443,128 443,128 444,129 444,129 444,129 443,129 443,130 443,130 443,130 442,130 442,130 441,130 441,130 441,130 441,129 441,129 440,129 439,129 439,129 439,129 438,129 438,130 437,130 437,130 436,130 436,130 436,131 436,131 435,131 435,131 435,131 434,131 434,131 434,131 433,131 432,131 431,131 431,131 431,131 431,131 430,132 430,132 429,132 429,132 428,132 427,132 427,132 427,132 427,132 427,133 427,133 426,133 426,133 426,133 425,132 423,132 422,132 419,131 415,131 413,130 411,132 410,132 409,132 409,132 406,133 404,134 403,134 402,134 402,135 401,135 398,136 397,136 395,138 391,142 390,143 390,143 389,146 387,146 386,147 384,148 384,150 384,150 385,150 385,151 384,152 384,152 384,153 383,154 384,155 383,155 382,155 382,156 382,157 381,157 380,158 380,158 380,158 380,158 379,157 377,156 377,156 377,155 376,153 376,152 375,152 375,151 374,150 374,150 373,151 373,151 373,152 370,153 369,153 366,155 365,156 365,156 365,156 363,157 361,157 361,157 361,158 362,159 362,160 362,161 362,161 362,162 361,163 361,163 360,164 359,164 359,164 358,164 357,164 356,165 355,165 354,165 353,165 353,166 353,166 353,166 352,166 352,166 352,167 351,167 351,167 349,168 349,168 349,168 347,169 346,170 345,170 345,170 345,171 345,172 345,172 344,173 344,173 344,174 344,176 344,176 344,176 344,177 344,177 344,178 344,178 344,178 344,178 343,179 343,179 343,180 344,181 344,181 342,182 342,182 341,183 340,183 339,183 338,184 338,184 338,184 338,185 338,185 338,186 338,186 338,186 338,187 336,188 336,189 335,189 336,190 336,191 336,191 335,191 335,191 335,192 335,193 334,194 334,195 334,196 334,196 334,198 338,200 340,200 341,201 344,201 348,203 349,203 350,203 353,204 354,204 359,205 367,208 369,208 370,209 371,209 374,209 375,209 379,210 379,210 380,210 381,210 383,211 385,212 385,212 388,213 389,213 390,214 390,214 390,214 390,215 390,216 390,216 391,217 390,217 389,217 389,218 388,217 386,219 385,218 383,220 383,220 382,220 381,220 380,220 380,220 379,220 376,219 377,218 376,218 376,218 374,218 373,217 372,217 371,218 371,218 371,218 371,218 371,219 371,219 371,220 371,220 371,221 370,221 370,222 369,222 369,222 370,223 372,224 372,224 372,225 372,226 373,226 373,226 372,227 372,227 371,227 370,227 370,227 370,227 370,228 370,228 370,229 371,229 370,230 370,230 369,230 368,230 368,231 368,231 367,231 366,232 365,232 365,232 364,232 363,232 362,232 362,232 361,233 361,233 360,232 359,232 359,232 359,232 356,232 354,232 353,233 351,232 350,233 349,233 348,233 346,234 345,234 345,234 345,234 342,235 341,235 341,236 339,235 338,236 336,236 333,236 332,236 332,236 333,237 334,238 334,239 334,240 334,240 333,241 333,241 331,241 330,241 330,241 330,242 329,243 333,245 333,245 332,246 332,246 331,246 331,247 330,247 330,248 329,248 329,248 328,248 327,248 327,248 327,248 327,248 326,248 323,249 322,250 321,250 318,252 316,254 315,255 314,255 313,256 313,256 311,255 311,255 310,255 310,256 310,257 310,257 311,258 311,258 311,259 311,259 310,260 309,260 308,260 308,260 307,260 307,261 307,260 307,260 306,259 306,258 304,258 304,258 303,258 303,258 301,258 299,258 299,258 298,258 297,258 296,258 296,258 295,258 295,258 293,258 293,258 292,258 291,258 290,258 288,258 287,258 286,257 287,254 287,254 282,253 272,250 269,249 267,249 264,247 264,248 263,249 263,249 262,251 262,252 262,252 260,253 259,253 258,253 258,253 257,253 256,254 255,256 255,257 253,259 252,259 250,260 249,260 249,259 246,257 245,258 244,257 244,257 244,257 244,257 244,256 242,255 242,255 242,255 242,255 242,254 242,254 242,254 241,254 241,254 241,253 241,253 240,253 238,254 235,256 235,257 234,257 233,258 233,259 232,260 232,260 231,261 229,263 228,263 228,264 229,264 233,266 232,267 230,267 230,268 230,268 230,269 231,269 230,270 230,272 229,272 229,273 229,273 229,273 228,273 227,272 226,272 225,272 224,272 222,271 222,271 222,271 221,271 221,270 221,270 219,269 216,268 216,268 215,268 214,268 213,267 210,267 210,268 209,270 209,271 209,271 208,271 208,271 207,271 207,272 206,273 205,273 204,274 191,274 191,274 191,274 190,275 192,276 195,278 193,280 193,280 192,280 192,281 191,281 190,282 185,282 184,281 184,281 180,281 176,280 175,279 174,280 174,279 173,277 170,278 169,278 168,278 165,279 164,279 162,281 162,281 161,283 161,283 160,283 157,284 156,284 156,284 156,284 155,284 153,283 153,283 152,283 152,284 151,284 150,284 150,283 148,283 145,283 143,282 143,283 142,283 141,284 141,284 140,284 139,284 138,284 138,284 137,283 137,283 136,283 136,283 136,282 136,282 136,282 136,282 135,282 135,282 134,282 133,282 133,282 133,282 133,282 133,282 132,282 132,282 131,282 130,282 130,282 131,283 130,283 129,283 129,284 129,285 129,285 128,286 127,286 126,287 125,287 122,287 118,287 115,287 114,287 113,287 112,288 111,288 111,289 110,289 110,290 110,291 110,291 111,294 112,295 111,296 111,297 110,299 109,299 107,301 106,302 103,304 101,305 100,306 99,306 99,307 99,307 99,307 98,303 98,303 99,301 99,300 99,300 99,299 99,299 99,299 100,298 100,298 101,297 101,297 101,297 102,296 103,295 104,294 105,293 105,292 105,291 105,291 105,290 105,289 104,289 104,288 101,289 100,290 99,290 98,291 97,292 97,292 95,293 95,293 93,292 94,291 91,290 92,287 91,286 90,288 89,287 89,286 88,286 87,286 86,286 85,287 84,287 83,288 83,288 83,289 82,290 81,289 81,288 81,287 81,287 79,287 77,286 77,286 76,287 76,287 75,287 75,287 74,287 74,287 73,287 72,288 71,288 71,287 70,288 70,288 68,287 68,287 67,287 66,286 66,285 66,285 66,285 66,285 66,285 66,283 66,282 66,281 66,280 66,280 67,279 67,278 66,277 65,276 65,276 64,276 61,276 61,276 60,276 59,276 57,277 55,275 56,275 56,275 57,274 58,273 57,272 55,272 55,271 54,271 52,270 50,270 49,270 48,269 46,267 46,267 46,267 47,267 47,266 45,265 43,264 43,264 41,263 41,262 40,262 39,261 38,260 37,260 36,259 35,258 36,258 37,257 38,256 37,255 36,254 36,254 36,254 35,253 35,253 35,253 34,253 33,252 33,252 33,252 32,252 31,252 30,251 29,250 29,249 28,249 28,249 27,249 27,249 27,249 26,248 25,248 24,247 23,247 22,246 22,245 21,243 21,243 20,242 19,242 17,242 17,240 18,234 17,234 15,234 15,234 14,233 15,233 15,231 17,230 17,229 19,229 20,229 21,228 22,228 22,229 24,229 25,229 25,229 26,230 27,230 27,230 28,230 28,230 28,229 29,228 29,227 30,227 30,227 31,226 31,226 33,226 34,226 34,226 35,226 36,225 37,224 38,223 38,221 38,220 39,220 40,219 41,218 41,217 40,217 40,217 40,216 40,215 38,215 38,215 38,215 38,214 37,214 37,214 37,213 36,213 35,213 35,213 35,213 34,212 34,212 34,212 34,212 30,210 28,208 26,208 25,208 26,207 27,206 27,205 28,204 25,202 24,201 22,200 22,200 19,199 18,197 16,195 15,195 13,195 11,194 8,195 8,195 7,194 7,194 5,193 4,193 4,193 3,193 3,193 2,192 1,192 0,191 1,190 3,189 3,189 3,189 3,189 4,189 5,188 5,189 5,188 6,188 6,188 7,189 7,189 8,189 9,189 10,188 10,188 11,189 12,189 12,188 12,188 12,187 13,187 13,187 13,188 13,188 14,187 15,187 16,187 20,186 20,186 21,185 21,184 21,184 23,184 24,184 25,184 26,184 26,184 27,184 29,183 30,182 30,182 31,181 31,181 31,180 31,180 32,180 32,180 32,179 32,179 32,178 32,178 29,177 27,177 26,177 26,177 23,177 23,176 22,175 22,174 20,172 18,171 19,169 18,168 16,167 16,165 29,164 40,162 40,162 39,162 39,162 38,162 37,162 36,162 37,161 39,161 40,160 39,158 37,154 40,153 40,154 40,154 40,155 40,157 41,157 41,157 42,157 46,156 48,155 49,155 50,154 50,153 50,153 49,153 49,152 49,151 50,151 49,150 49,149 49,149 50,150 50,150 52,150 53,149 54,148 54,148 54,147 54,146 55,145 55,144 55,143 55,143 54,143 54,142 55,142 55,143 56,143 56,144 56,147 56,148 56,148 57,149 58,149 58,150 59,150 60,150 61,150 60,149 60,149 60,148 59,148 59,147 59,146 60,146 61,147 62,146 62,146 63,146 64,145 65,145 67,144 68,143 66,141 66,140 66,140 64,139 65,139 65,138 65,138 65,137 65,137 65,137 65,137 65,136 69,135 70,135 74,136 74,136 77,136 79,136 80,136 82,136 83,136 85,135 87,135 88,135 89,136 89,135 89,135 89,135 89,134 88,133 87,132 85,131 83,129 82,128 82,127 81,127 79,125 79,124 78,123 76,121 74,119 74,118 69,108 69,107 69,106 68,105 68,103 67,103 67,103 67,103 67,102 67,102 68,100 68,100 68,99 68,99 68,99 69,98 70,97 70,97 71,95 72,94 72,93 72,92 72,91 72,90 72,90 74,89 74,90 75,89 76,90 78,91 80,91 82,92 83,92 85,93 85,94 85,94 87,94 86,92 86,92 86,91 86,90 87,90 89,90 92,91 95,91 97,92 100,93 103,93 105,94 108,94 112,95 113,95 115,96 116,96 117,96 119,97 119,98 120,98 121,99 122,100 125,98 126,97 127,97 127,96 127,95 128,95 130,96 132,94 133,94 134,92 135,91 136,90 137,89 137,88 139,87 142,84 142,82 143,81 144,81 144,80 145,79 145,78 145,77 144,75 144,74 144,73 144,71 144,69 144,67" id="2104" class="canton" fill="steelblue" stroke-width="1" stroke="white" geotype="canton" geoname="Brazey-en-Plaine" code_insee="2104" code_departement="21" nom_departement="Côte-d'Or" code_region="27" nom_region="Bourgogne-Franche-Comté"/></svg>