<?xml version="1.0" encoding="utf-8"?>
<svg version="1.1" id="svgmap" xmlns="http://www.w3.org/2000/svg" xmlns:xlink="http://www.w3.org/1999/xlink" x="0px" y="0px" width="100%" height="100%" viewBox="0 0 500 364">
<polygon points="14,100 17,98 23,95 32,89 38,85 43,82 50,78 59,72 72,64 75,62 81,63 89,63 90,63 92,63 95,63 97,63 99,63 100,62 102,57 103,52 104,49 107,44 110,36 112,28 114,24 115,19 128,18 134,18 139,17 151,17 161,16 165,16 174,15 184,15 185,15 186,14 200,13 206,12 213,9 231,0 230,4 232,6 246,17 255,23 259,27 260,27 261,27 260,29 260,29 261,30 258,44 253,57 253,57 253,62 253,63 253,67 253,70 254,71 255,71 261,71 262,71 266,72 268,72 270,73 273,73 276,73 279,73 283,72 289,71 292,71 294,70 296,70 298,71 300,71 308,72 310,73 315,73 337,73 339,73 355,72 360,71 363,71 367,71 370,71 371,71 373,71 373,71 373,72 374,72 374,73 375,74 378,77 380,78 381,79 381,82 382,82 382,82 383,84 383,85 384,88 383,89 375,89 380,114 380,124 367,122 361,122 351,124 337,125 331,125 343,147 349,156 358,156 359,161 358,162 358,164 358,174 359,175 377,178 380,179 384,181 385,181 397,183 405,186 425,188 427,187 458,195 457,197 500,205 498,206 482,210 465,218 458,231 409,279 391,306 391,306 391,307 397,360 398,364 326,328 316,339 310,337 309,336 307,334 299,330 299,330 296,327 293,325 291,322 284,320 272,313 267,310 245,295 227,284 222,281 222,279 216,273 216,271 214,271 199,263 181,252 164,237 119,251 108,253 107,255 106,252 105,252 98,231 98,230 90,227 76,221 56,214 54,208 54,206 53,202 53,201 53,200 52,198 49,186 48,184 46,179 45,177 44,173 35,174 33,175 30,176 28,175 22,170 22,169 18,161 18,161 18,160 17,159 14,150 8,138 8,136 7,134 7,133 6,132 6,132 3,124 2,122 0,118 1,118 2,117 2,117 2,117 3,116 3,116 3,115 3,114 3,114 3,114 4,113 4,113 4,113 5,112 6,111 6,111 7,110 8,110 8,109 10,107 14,102 14,100" id="2111" class="canton" fill="steelblue" stroke-width="1" stroke="white" geotype="canton" geoname="Dijon-4" code_insee="2111" code_departement="21" nom_departement="Côte-d'Or" code_region="27" nom_region="Bourgogne-Franche-Comté"/></svg>