<?xml version="1.0" encoding="utf-8"?>
<svg version="1.1" id="svgmap" xmlns="http://www.w3.org/2000/svg" xmlns:xlink="http://www.w3.org/1999/xlink" x="0px" y="0px" width="100%" height="100%" viewBox="0 0 500 244">
<polygon points="13,53 13,53 15,54 15,53 15,53 16,53 16,53 16,53 16,53 16,53 16,53 17,53 17,53 17,52 18,52 18,52 18,52 18,52 18,52 18,52 18,52 18,51 18,51 18,51 19,51 19,51 19,51 19,50 19,50 20,50 20,50 20,50 20,50 20,50 21,50 21,49 21,49 21,49 21,49 21,49 21,49 22,49 22,49 22,48 22,48 22,48 22,48 23,48 23,48 23,48 24,48 24,47 24,48 24,48 24,48 24,48 24,48 25,48 26,48 26,48 26,48 27,49 27,49 27,50 28,50 27,50 28,51 28,51 28,51 28,51 29,51 29,50 30,50 30,50 31,50 31,50 32,50 32,50 32,49 33,49 33,49 33,49 32,47 32,47 33,47 34,47 34,47 34,46 34,46 35,46 35,46 35,46 35,46 36,46 36,46 37,46 37,46 38,46 38,46 39,46 39,46 39,46 39,46 39,46 40,46 41,46 41,46 42,46 42,46 42,46 43,46 43,46 43,46 44,46 44,46 44,46 44,46 44,46 43,46 43,46 43,46 43,46 43,45 43,45 43,45 43,45 44,45 44,45 44,45 44,45 44,45 44,45 44,45 44,45 44,45 45,45 45,45 45,45 45,45 45,45 46,45 46,45 46,45 46,45 46,45 46,45 46,45 47,45 47,45 47,45 47,45 47,45 47,45 47,45 48,45 48,45 48,45 48,45 49,45 49,45 49,45 49,45 49,45 49,45 49,45 49,45 49,45 49,44 49,44 49,44 49,44 50,44 50,44 50,44 50,44 50,44 50,44 50,44 50,44 50,44 51,44 51,43 52,43 52,43 51,43 51,43 51,43 51,43 51,43 52,43 52,42 52,42 52,42 52,42 51,42 51,42 51,42 51,42 52,42 52,42 52,42 52,42 51,42 51,42 51,42 52,42 52,42 52,42 52,42 52,42 52,42 52,41 52,41 52,41 52,41 51,41 51,41 51,41 51,41 52,41 52,41 52,41 52,41 52,41 52,41 52,41 52,41 52,41 52,41 52,41 52,41 52,41 52,41 52,41 52,41 53,41 53,41 53,41 53,41 53,41 53,41 53,41 53,41 53,41 53,41 53,40 53,40 53,40 53,40 54,40 53,41 53,41 54,41 54,41 54,41 53,41 53,41 53,41 54,41 54,41 54,41 54,41 55,41 55,41 55,41 55,41 56,41 56,41 55,41 55,41 55,41 55,40 55,40 55,40 56,41 56,41 56,41 56,40 56,40 56,40 57,40 57,40 57,41 57,41 57,41 58,41 58,41 58,41 58,41 59,40 59,40 59,40 59,40 60,40 60,40 60,40 60,40 60,40 60,40 61,40 61,40 61,40 62,40 62,40 62,40 62,40 63,40 63,40 63,40 63,40 63,40 63,40 64,40 64,40 64,39 64,39 64,39 65,39 65,39 65,39 65,39 65,39 65,39 66,39 66,39 66,39 67,39 67,39 67,39 67,39 67,39 67,39 67,40 67,40 68,39 68,39 68,39 68,39 68,39 69,39 69,40 69,40 69,40 69,40 69,40 69,40 69,41 69,41 69,41 69,41 69,41 70,41 70,41 72,42 72,42 72,42 72,42 73,42 73,42 73,42 73,42 73,42 73,42 73,42 74,42 74,42 75,42 75,42 75,41 75,41 75,41 75,41 75,41 75,41 75,41 76,41 76,41 76,41 76,41 76,41 76,41 76,41 76,41 77,41 77,40 77,40 77,40 78,40 78,40 78,40 78,40 78,40 79,40 79,40 79,40 80,40 80,40 80,40 80,40 80,40 80,40 80,40 80,40 81,40 81,40 81,40 81,40 81,40 81,40 81,40 81,40 81,40 81,40 82,40 82,40 82,40 82,40 82,40 82,40 82,40 82,39 82,39 82,39 82,39 83,39 83,39 83,39 84,39 85,39 86,39 86,39 87,39 87,39 87,39 88,39 88,39 88,39 88,38 89,38 89,38 89,37 89,37 89,37 89,37 89,37 89,37 89,37 88,37 88,37 88,36 88,36 88,36 88,36 88,36 88,36 88,35 89,35 89,35 89,35 89,35 89,35 89,35 89,35 90,35 90,35 90,35 90,35 90,35 90,34 91,34 91,34 91,34 90,34 90,34 90,34 91,34 91,34 91,34 91,34 90,33 90,33 90,33 90,33 90,33 90,33 90,32 90,32 90,32 90,32 89,32 89,32 89,31 90,31 90,31 89,31 89,31 90,31 90,30 90,30 90,30 90,30 90,30 90,30 89,30 89,30 90,30 90,30 90,30 89,30 89,30 89,30 89,30 89,30 89,30 89,30 89,29 89,29 89,29 89,29 90,29 90,29 90,29 90,29 90,29 89,28 89,28 89,28 89,28 89,28 89,28 88,28 88,28 88,28 88,28 88,28 88,28 88,28 88,27 88,27 88,27 88,27 88,27 88,27 88,27 88,27 88,27 88,27 88,27 88,27 88,27 88,27 88,26 89,26 88,26 89,26 89,26 89,25 89,25 89,25 89,25 89,24 89,24 89,24 89,24 89,23 89,23 89,23 89,23 89,23 89,23 90,23 90,23 90,23 90,22 90,22 90,22 90,22 89,22 89,22 89,22 89,22 89,22 89,21 90,21 90,21 90,21 90,21 90,21 90,21 91,21 91,21 91,21 91,21 91,21 91,21 91,20 91,20 91,20 91,20 90,20 90,19 91,19 91,19 91,19 91,19 92,19 92,19 92,19 92,18 92,18 92,19 93,19 93,19 93,19 93,19 93,19 93,19 93,18 93,18 93,18 93,18 93,18 94,18 94,18 94,18 94,18 93,18 94,18 94,17 94,17 94,17 94,17 94,17 94,17 94,17 94,17 94,17 94,17 94,17 94,17 94,16 94,16 94,16 94,16 94,16 95,16 95,16 95,16 95,16 95,16 96,16 96,16 96,16 96,15 96,15 95,15 95,16 95,16 95,15 95,15 95,15 95,15 95,15 95,15 96,15 96,15 96,15 96,15 96,15 96,15 96,14 96,14 96,14 96,14 96,14 96,14 96,13 97,13 97,13 97,13 97,13 97,13 97,13 97,13 98,13 98,13 98,13 98,13 98,13 98,13 98,13 99,13 99,13 99,12 99,12 99,12 99,12 99,12 99,13 99,12 100,12 100,12 100,12 100,12 100,12 100,12 100,12 100,11 100,11 100,11 100,11 101,11 100,11 100,11 100,11 100,11 101,11 101,11 101,11 102,11 102,11 102,10 101,10 101,10 101,10 101,10 102,10 102,10 103,10 103,10 103,10 103,10 104,10 104,10 104,10 104,10 104,10 104,10 104,10 104,10 104,10 105,10 105,10 105,10 105,10 105,10 106,10 106,10 106,10 106,10 106,10 107,10 107,10 107,10 108,9 108,9 108,9 109,9 109,9 109,9 109,9 110,9 110,9 110,9 110,9 111,8 111,8 111,8 111,8 111,8 112,8 112,7 112,7 112,7 112,7 112,7 113,7 113,7 113,7 113,7 113,7 114,7 113,6 114,6 115,5 115,5 115,5 116,5 116,4 116,4 116,4 116,4 116,3 117,3 117,3 117,3 118,4 118,4 118,4 118,4 119,4 119,4 119,4 119,5 119,5 119,5 119,5 119,5 119,5 119,5 119,5 119,5 119,5 119,5 119,6 119,6 119,6 119,7 119,7 119,7 119,7 119,7 119,7 120,7 121,8 121,8 121,8 121,8 121,8 122,8 122,9 122,8 123,9 123,9 123,9 123,9 124,9 124,9 125,9 125,9 125,9 125,9 126,9 126,9 126,9 126,9 126,10 126,10 126,10 126,10 126,10 126,11 126,11 126,11 127,11 127,11 127,11 128,12 128,12 128,12 129,12 129,12 129,12 130,13 130,13 130,13 130,13 130,13 130,13 130,13 130,13 131,13 131,13 131,13 132,13 132,13 132,13 133,14 133,14 133,14 133,14 134,14 134,14 134,15 134,15 134,15 134,15 134,15 134,15 135,15 135,14 135,14 136,13 136,13 136,13 137,13 137,12 137,12 137,12 138,12 138,12 138,12 141,12 143,12 143,12 143,13 143,14 143,14 143,14 143,14 143,15 144,15 144,15 144,15 144,15 145,15 145,15 146,15 146,16 146,16 146,16 147,16 147,16 147,16 148,16 149,15 149,15 149,15 149,15 150,15 150,16 150,16 150,16 150,16 150,16 150,17 150,17 150,17 150,17 150,17 150,17 150,17 150,17 150,17 149,17 150,17 150,17 150,17 149,18 149,18 149,18 149,18 149,18 149,18 149,18 149,18 149,18 149,19 149,19 149,19 149,19 149,19 149,19 149,19 149,19 149,19 149,19 149,19 149,19 149,19 149,19 150,20 149,20 149,20 149,20 149,21 148,21 148,21 148,22 148,22 148,22 148,22 148,21 148,21 147,22 147,22 147,22 147,22 147,23 147,23 148,23 148,23 148,23 148,23 148,23 148,23 148,24 148,24 148,24 148,24 149,24 149,24 149,25 149,25 149,25 149,25 149,25 149,25 149,25 149,25 149,25 149,25 149,25 149,26 149,26 149,26 149,26 149,26 149,27 150,27 150,27 150,27 150,27 150,27 151,27 151,27 151,27 151,27 151,27 151,28 152,28 152,28 152,28 152,28 152,28 152,28 152,28 152,28 152,28 153,28 153,28 153,28 153,29 153,29 152,29 152,29 153,29 153,29 153,29 152,29 152,30 151,30 151,30 151,30 151,30 151,31 150,31 150,31 150,31 150,31 150,31 150,31 150,31 150,31 150,31 150,32 149,31 149,31 149,32 149,32 149,32 149,32 149,32 148,32 148,32 148,32 148,33 148,33 147,33 147,33 147,33 147,33 147,33 147,33 147,33 146,33 146,33 146,33 146,33 146,34 145,34 145,34 144,34 144,34 144,34 144,34 144,35 143,35 143,35 143,35 142,36 142,36 142,36 142,37 142,37 142,37 141,37 141,38 141,38 141,38 140,38 140,38 140,38 140,39 140,39 139,39 139,39 139,39 139,39 139,39 139,39 139,39 139,39 139,39 139,39 139,39 138,39 138,40 138,40 138,40 138,40 138,40 138,40 138,40 138,40 138,40 138,40 138,40 138,40 138,40 138,40 138,40 138,40 138,40 138,40 138,40 137,40 137,40 137,41 137,41 137,41 137,41 137,41 137,41 137,41 137,42 137,42 137,42 137,42 137,42 137,42 137,42 137,43 137,43 137,43 137,43 137,43 137,43 138,43 138,43 138,43 138,43 138,44 138,44 139,44 139,44 139,44 139,44 139,44 138,45 138,45 138,45 138,45 138,45 138,45 138,45 138,45 138,45 138,45 138,45 138,45 138,46 138,46 138,46 138,46 138,46 138,46 138,46 138,46 138,46 138,46 138,46 138,46 138,46 138,46 137,46 137,46 137,46 137,46 137,46 137,46 137,47 137,47 137,47 137,47 137,47 137,47 137,47 137,47 137,47 137,47 137,47 137,48 136,48 136,48 136,48 136,48 136,48 136,48 136,48 136,49 136,49 136,49 136,49 136,49 136,49 136,49 136,49 136,49 136,49 136,49 136,49 136,49 136,49 136,50 136,50 136,50 136,50 136,50 136,50 136,50 136,50 136,50 136,51 136,51 136,51 136,51 136,51 137,51 137,51 137,51 138,52 138,52 138,52 138,52 138,52 138,52 138,53 138,53 138,53 138,53 138,53 139,53 140,52 142,52 144,51 146,50 147,50 147,50 148,49 149,49 149,49 151,49 151,49 154,48 154,48 154,48 155,48 155,47 155,47 155,47 155,47 156,46 157,46 157,45 157,45 158,45 158,45 158,44 158,44 159,44 159,44 159,44 159,43 159,43 159,43 159,43 160,42 160,42 160,41 160,41 160,41 161,40 161,40 162,40 163,39 164,39 164,39 164,39 165,39 165,39 166,39 166,39 167,39 167,38 168,37 169,37 169,37 170,37 171,37 172,38 176,39 176,39 176,39 177,38 177,38 178,37 178,37 178,37 179,37 179,37 179,37 179,38 179,38 180,38 180,38 181,38 181,38 181,38 181,38 182,38 183,38 184,38 184,38 185,38 185,38 185,38 186,38 186,37 186,37 187,37 187,38 188,38 188,39 189,39 190,40 190,40 190,40 191,40 192,40 192,40 193,40 194,39 195,39 195,39 196,39 196,39 196,39 197,39 197,39 198,39 198,39 199,38 199,38 199,38 200,38 200,38 200,38 199,39 199,39 199,39 198,39 198,40 199,40 199,40 199,40 199,40 199,40 200,40 200,40 202,40 202,40 203,40 203,40 204,40 204,40 204,40 205,40 205,40 205,40 205,40 206,40 206,40 206,40 206,40 207,40 207,40 207,41 207,42 207,42 207,42 207,43 207,43 207,43 207,44 207,44 206,44 206,44 206,45 206,45 206,45 205,45 205,45 205,46 204,46 204,46 204,46 204,46 205,47 204,47 205,47 205,48 205,48 205,48 204,49 204,49 205,49 205,50 205,50 206,50 206,50 207,51 207,51 207,52 208,52 208,52 208,52 209,52 209,52 209,52 209,52 209,53 209,53 210,53 210,53 210,53 211,53 211,54 212,54 212,54 212,54 213,55 213,55 214,55 214,55 214,55 214,55 214,55 214,55 214,55 216,55 216,55 216,55 216,55 216,56 216,56 216,56 216,56 216,56 216,56 216,56 216,56 217,56 217,56 217,56 218,57 219,57 219,57 220,57 220,57 220,58 221,58 222,58 222,58 222,58 222,58 222,58 222,58 222,58 222,58 222,58 223,58 223,58 224,58 224,59 224,59 224,60 224,60 225,60 225,60 225,60 225,60 225,61 226,61 226,61 226,61 227,62 227,62 228,62 228,63 229,63 230,64 230,64 230,64 231,64 232,64 232,64 232,64 232,65 232,65 232,65 232,65 233,65 233,65 233,65 233,65 233,65 233,66 233,66 234,66 235,66 235,66 235,66 235,66 236,66 236,66 236,66 236,66 236,67 236,67 237,67 237,67 237,67 238,67 238,67 239,68 240,68 240,68 240,68 241,68 241,68 241,68 241,68 242,69 242,69 242,69 242,69 242,69 243,69 243,69 243,69 243,69 243,69 244,69 244,70 244,70 244,70 244,70 245,70 245,70 245,70 245,70 245,70 245,70 245,70 246,70 246,70 247,71 247,71 248,71 248,71 248,71 249,71 249,71 249,71 249,71 250,71 250,71 251,70 252,70 252,70 252,70 252,70 253,70 253,70 254,69 254,69 255,69 255,69 255,69 256,69 256,69 256,69 256,69 256,69 257,69 257,69 257,69 257,69 257,69 257,69 258,69 258,69 258,68 258,68 258,68 258,68 259,68 259,67 259,67 259,67 259,67 259,67 259,67 259,67 259,67 259,67 259,67 260,66 261,66 261,66 262,66 262,65 262,65 262,65 263,65 263,65 264,65 264,65 264,65 264,65 265,65 265,65 265,65 266,65 266,65 267,65 268,65 268,64 268,64 268,64 268,64 268,64 268,64 269,64 269,64 269,63 270,63 271,63 271,63 271,63 271,63 271,62 271,62 271,62 271,62 271,62 271,62 271,62 270,61 270,61 269,60 268,60 268,60 267,59 266,59 265,58 265,58 264,58 264,58 264,57 263,57 263,57 263,57 263,56 262,56 261,55 261,54 261,54 260,53 260,53 260,53 259,52 259,51 259,51 259,51 258,50 259,49 259,49 259,49 259,49 260,48 260,48 261,48 261,48 261,47 262,47 262,47 262,47 263,46 263,46 263,46 263,46 263,45 264,45 264,45 264,45 264,45 264,45 264,45 264,44 264,44 265,44 265,44 265,44 265,44 265,44 265,44 266,44 266,43 266,43 266,43 266,42 267,42 267,42 267,42 267,42 267,42 267,42 267,41 267,41 267,41 268,41 268,41 268,41 268,41 268,40 268,40 268,40 269,40 269,40 269,40 269,39 269,39 270,39 270,39 270,38 270,38 270,38 270,38 271,38 271,38 271,38 271,38 271,38 271,38 271,38 271,38 271,38 271,38 271,38 271,38 272,37 272,37 272,37 272,37 272,37 272,37 272,37 273,37 273,37 273,37 273,36 273,36 273,36 273,36 273,36 274,35 274,35 274,35 274,35 274,35 274,35 275,35 275,35 275,34 275,34 275,34 275,34 275,34 276,34 276,34 276,34 276,34 276,34 277,34 277,34 277,34 277,34 277,33 277,33 277,33 278,33 278,33 278,33 278,33 279,33 279,33 279,33 279,33 279,33 279,33 279,33 279,33 279,33 279,32 279,32 279,32 279,32 279,32 279,32 280,32 280,32 280,32 280,32 280,32 280,31 280,31 280,31 280,31 280,31 280,31 280,31 281,31 280,31 280,30 281,30 280,30 280,30 280,30 280,30 280,30 280,30 280,30 280,29 280,29 280,29 280,29 280,29 280,29 280,29 280,29 280,29 280,28 280,28 280,28 280,28 280,28 280,27 280,27 280,27 280,27 280,27 279,27 280,27 280,27 279,27 279,27 279,27 279,27 279,26 279,26 279,26 279,26 279,26 279,26 279,26 279,26 279,25 280,25 279,25 279,25 280,25 280,25 280,25 280,24 280,24 280,24 280,24 280,24 280,24 280,24 280,24 280,23 280,23 281,23 281,23 281,23 281,23 281,23 281,23 282,23 282,22 282,22 283,22 283,21 283,21 283,21 284,21 284,20 284,20 284,20 285,20 285,20 285,20 285,20 286,20 286,20 286,19 287,19 287,19 287,19 288,18 288,18 287,18 287,18 287,18 287,18 288,18 288,17 288,17 288,17 288,17 288,17 289,17 289,17 289,18 289,18 289,18 289,18 290,18 290,17 290,17 290,17 290,17 290,17 290,17 290,17 290,17 290,18 291,18 291,18 291,18 291,18 291,18 291,18 292,18 292,18 292,18 292,18 292,18 292,18 292,17 293,18 293,18 293,18 293,18 293,18 293,18 293,18 293,18 294,18 294,18 294,18 294,18 295,18 295,18 295,18 295,18 295,18 295,18 296,18 296,18 296,18 296,18 296,18 296,18 296,18 296,18 297,18 297,18 297,18 297,17 297,18 297,18 297,17 297,17 298,17 298,17 298,17 298,17 298,17 298,17 298,17 298,17 298,17 298,17 299,17 299,17 299,17 299,17 299,17 299,17 299,18 299,18 299,18 299,17 299,17 299,17 299,17 300,17 300,17 300,17 300,17 300,17 300,17 300,17 300,17 301,17 301,17 301,17 301,17 301,17 301,17 301,17 301,17 301,17 301,17 301,17 302,17 302,17 302,17 302,17 302,17 302,17 302,17 302,17 302,17 302,16 302,16 303,16 303,16 303,16 303,16 303,16 303,16 303,16 303,16 303,16 303,16 303,16 303,15 303,15 303,15 303,15 303,15 303,15 303,15 303,15 303,15 304,15 304,15 304,14 304,14 304,14 304,14 304,14 305,14 305,13 305,14 305,13 305,13 305,13 306,13 306,13 309,11 309,11 309,10 308,10 308,10 308,10 308,10 308,10 308,9 307,9 307,9 307,9 307,9 307,9 308,8 308,8 308,7 307,7 307,6 307,6 307,6 307,6 307,5 307,5 308,5 308,5 309,5 309,4 309,4 309,4 309,4 309,4 310,4 310,4 310,4 310,3 310,3 310,3 310,3 310,3 310,3 311,3 311,3 311,3 311,3 311,3 311,2 311,2 311,2 311,2 311,2 311,2 311,2 311,2 311,2 311,2 312,2 312,2 311,2 311,2 311,2 312,2 312,2 312,2 312,2 312,2 312,2 312,2 312,2 312,2 313,2 313,2 313,2 313,1 313,1 314,1 314,1 314,1 314,1 314,1 314,1 314,1 314,1 314,1 314,1 314,1 314,1 314,1 314,1 315,1 315,1 315,0 315,0 315,0 315,0 316,0 316,0 316,0 316,1 316,1 317,1 317,1 317,1 317,1 318,2 318,2 318,2 318,2 318,2 318,2 319,2 319,2 319,3 319,3 319,3 320,3 320,3 320,3 320,3 320,4 320,4 320,4 320,4 320,4 320,4 320,5 320,5 320,5 320,5 320,5 320,5 320,5 320,5 320,5 320,6 321,6 321,6 321,6 321,7 321,7 321,7 321,7 322,7 324,6 325,6 326,6 327,6 327,6 329,5 331,5 331,5 331,5 332,5 332,5 332,5 333,5 334,5 334,5 335,5 335,5 336,5 338,5 338,5 339,5 339,5 339,5 340,6 340,6 340,6 340,6 340,6 341,7 341,7 341,7 341,7 342,8 342,8 342,8 342,8 343,8 343,8 344,8 344,8 345,8 345,8 345,8 346,8 346,8 346,8 346,8 347,8 348,9 348,9 348,9 348,9 348,9 348,9 349,9 349,9 350,9 350,9 350,9 350,9 350,10 351,10 351,10 352,10 352,10 353,9 353,9 354,10 354,10 355,9 355,9 355,9 355,9 355,9 355,9 355,9 356,9 356,9 356,9 357,9 357,9 358,9 358,9 359,9 360,9 360,9 360,9 361,8 361,8 361,8 362,8 362,8 363,8 364,8 364,8 366,8 366,8 367,9 366,11 365,12 364,12 364,12 363,13 363,13 364,14 364,14 365,15 366,15 367,16 367,16 367,16 369,16 369,15 370,15 370,15 371,15 371,15 372,15 374,15 375,15 377,15 377,15 378,16 378,15 378,15 379,15 380,15 382,16 383,17 383,17 384,18 386,19 386,20 387,21 387,22 387,23 387,23 387,24 387,24 387,25 387,27 387,27 388,28 389,29 390,30 390,30 391,30 391,31 391,31 391,32 391,32 390,32 389,35 388,36 387,36 387,36 387,36 386,37 386,37 384,38 383,38 382,39 381,40 380,41 380,41 380,42 380,42 380,42 380,42 380,42 380,42 380,42 380,42 380,42 381,43 381,43 381,43 381,43 382,43 382,44 382,44 382,44 383,44 383,44 383,44 383,45 382,45 382,46 382,46 381,46 380,46 379,45 379,45 379,45 379,45 378,45 378,45 378,45 378,45 378,45 379,46 380,46 380,46 380,46 381,46 382,46 383,46 382,46 383,46 383,46 383,46 383,46 383,45 384,45 384,45 383,44 383,44 383,44 383,43 383,43 383,43 382,43 382,43 382,42 381,42 381,42 382,41 383,40 384,40 384,39 385,39 385,39 386,39 387,38 388,38 389,38 389,37 390,36 391,35 391,35 392,34 392,33 393,32 393,32 392,31 392,30 392,30 392,30 392,30 392,30 391,29 391,29 391,29 390,28 390,28 390,27 389,27 389,26 389,26 389,26 389,26 389,26 389,26 389,26 389,25 389,25 389,24 389,24 390,24 390,25 391,25 393,25 396,25 398,25 399,25 401,25 402,26 403,26 403,27 403,27 403,27 404,27 405,27 406,27 409,27 411,26 412,26 412,26 412,26 413,26 413,26 413,26 414,27 415,27 415,28 415,28 415,29 415,29 415,30 415,31 416,31 416,31 418,31 419,31 421,31 422,30 422,30 422,30 422,30 422,30 423,30 423,30 424,31 424,31 424,31 424,31 424,32 424,32 425,32 426,33 427,33 427,33 429,34 429,34 430,34 430,34 431,34 431,34 432,35 432,35 433,36 433,36 434,37 434,37 435,37 435,37 436,37 436,37 437,37 437,37 438,37 439,37 440,38 442,38 444,39 444,39 444,39 446,38 446,38 447,37 448,37 448,37 449,36 449,36 449,35 449,35 450,35 451,35 451,35 451,36 451,36 451,36 451,36 451,37 451,37 451,37 449,38 449,38 449,38 448,38 448,39 448,39 449,40 449,41 449,41 449,42 449,42 450,42 450,42 451,42 451,42 452,42 453,42 453,41 454,41 454,41 455,41 455,42 455,42 455,42 456,42 457,43 458,44 459,44 460,44 460,45 461,45 461,45 462,45 462,45 463,44 464,44 464,44 464,44 464,44 464,44 465,44 466,44 466,44 467,44 467,44 467,45 467,45 467,46 467,47 466,47 466,47 465,48 464,50 463,50 463,50 463,50 462,50 462,51 462,51 462,51 462,51 462,52 462,53 462,53 462,54 462,54 463,55 463,55 464,56 464,56 465,57 465,57 465,58 465,58 466,58 466,58 466,58 467,58 468,58 469,58 469,58 469,58 469,58 469,57 469,57 469,56 469,56 469,55 468,55 468,55 468,55 468,54 468,54 469,53 469,53 470,52 470,52 471,52 471,52 472,52 472,52 472,51 473,51 473,52 474,52 474,52 474,53 474,53 474,53 474,53 473,53 473,53 473,54 472,54 472,54 472,54 471,55 471,55 471,55 471,56 471,56 471,56 471,57 472,57 472,57 473,57 473,57 474,57 474,58 474,58 475,58 475,58 476,60 477,60 477,60 477,60 478,60 478,60 479,60 479,60 481,59 481,59 482,58 482,58 483,57 483,57 483,57 483,57 483,56 483,56 483,56 484,56 484,56 485,56 485,56 486,56 486,56 486,56 487,56 487,57 489,57 490,57 490,57 490,57 491,57 491,57 492,57 492,57 492,57 492,57 492,58 492,58 492,58 492,58 493,58 493,58 494,58 495,59 495,59 495,59 495,59 495,58 496,58 496,58 496,59 496,59 497,60 497,60 498,60 499,60 499,60 500,60 500,60 500,60 500,61 500,61 500,61 500,61 500,62 499,62 498,62 498,62 498,63 498,63 497,62 497,62 496,62 495,62 495,62 494,62 494,62 493,61 493,61 492,61 491,61 491,61 491,62 490,62 490,62 490,62 488,64 488,64 488,64 487,64 487,65 487,65 487,66 487,66 487,67 487,67 486,67 486,68 486,67 485,67 485,67 485,67 485,67 485,67 484,67 484,67 484,67 484,67 484,67 483,67 483,67 483,67 483,67 483,67 483,67 483,67 483,67 483,67 483,67 483,67 482,67 482,67 481,67 481,67 481,67 481,68 481,68 481,68 480,69 480,69 480,69 480,69 480,69 480,69 479,69 479,69 479,69 479,69 479,69 479,69 479,69 478,69 478,69 478,69 478,68 478,68 478,68 478,68 478,68 477,68 477,68 477,68 476,69 475,69 475,69 475,69 474,70 474,70 474,71 474,71 474,71 474,71 473,71 473,71 473,71 473,71 473,71 473,72 473,72 473,72 473,72 473,72 473,72 473,72 473,72 473,72 473,72 473,72 473,72 473,72 473,72 473,72 473,72 472,72 472,72 472,72 472,72 472,72 472,72 472,72 471,72 471,72 471,72 471,73 471,73 471,73 471,73 470,73 470,73 470,73 470,73 470,73 469,73 469,73 469,73 469,73 469,74 469,74 469,74 469,74 469,74 469,74 469,74 469,74 469,74 469,74 469,74 469,74 469,75 469,75 469,75 469,75 469,75 469,75 469,75 468,75 468,75 468,75 468,75 468,75 468,75 468,75 468,75 468,75 467,75 467,75 467,75 467,75 467,75 467,75 466,75 466,75 466,75 465,75 465,75 465,75 465,75 465,75 464,75 464,75 464,75 464,75 464,75 464,75 464,75 464,75 464,75 463,75 463,75 463,75 463,75 463,75 463,75 463,75 463,75 463,75 463,75 463,75 463,75 463,75 463,75 463,76 462,76 462,76 462,76 463,76 463,76 463,76 463,76 463,76 463,76 463,76 462,76 462,76 462,76 462,76 462,76 462,76 462,76 462,76 462,76 462,76 462,76 461,76 461,76 461,76 461,76 461,76 461,76 461,76 461,76 461,76 461,76 461,76 461,76 460,76 460,76 460,76 460,76 460,76 460,76 460,76 460,76 460,76 460,76 460,76 460,76 459,76 459,76 459,76 459,76 459,76 459,76 459,75 458,75 458,75 458,75 458,75 458,75 458,75 458,75 458,75 458,75 458,75 458,75 458,75 458,75 458,75 457,75 457,75 457,75 457,75 457,75 457,75 457,75 457,75 457,75 457,75 457,75 457,75 456,75 456,75 456,75 456,75 456,75 456,75 456,75 456,75 455,75 455,75 455,75 455,75 455,75 455,75 455,75 454,76 454,76 452,76 452,76 451,76 451,76 451,77 450,77 449,77 449,77 449,77 449,77 449,77 449,77 449,78 448,78 448,78 448,78 448,78 448,78 448,78 448,78 448,78 447,78 447,78 447,78 447,78 447,78 446,78 446,78 446,78 446,78 446,78 446,78 445,78 445,78 445,78 445,78 445,79 445,79 444,79 444,79 444,79 444,79 443,80 443,80 442,80 441,80 441,80 441,80 440,80 440,80 440,80 440,80 440,80 440,80 440,80 440,80 440,80 439,80 439,80 439,80 439,80 439,80 439,80 438,80 437,80 437,80 436,80 436,81 436,81 436,81 436,81 436,81 436,81 436,81 435,81 435,82 435,82 435,82 435,82 435,82 435,82 435,82 434,82 434,82 434,82 434,82 434,83 434,83 434,83 434,83 434,83 434,83 434,83 433,83 433,83 434,83 434,83 433,83 433,83 433,83 433,83 433,83 433,83 433,83 433,83 433,83 433,84 433,84 433,84 433,84 433,84 433,84 433,84 432,84 432,84 432,84 432,84 432,84 432,84 431,84 431,84 431,85 431,85 431,85 431,85 431,85 431,85 431,85 431,85 430,85 430,85 430,85 430,85 430,85 430,86 430,86 430,86 430,87 430,88 430,88 430,88 430,88 430,88 430,88 430,88 430,88 430,88 430,88 430,88 430,89 430,89 430,89 430,89 430,89 430,89 430,89 430,89 430,89 430,90 431,90 431,90 431,91 431,92 431,92 431,92 430,92 431,92 431,92 430,93 430,93 430,93 430,93 429,93 429,93 430,93 429,93 429,94 429,94 429,94 429,95 429,95 429,95 429,95 429,95 429,95 429,95 429,95 429,95 429,95 429,95 429,95 429,95 429,95 429,96 430,96 430,96 430,96 430,96 430,96 430,96 430,96 430,97 430,97 430,97 430,97 430,97 430,97 430,97 430,97 430,97 430,97 430,97 431,98 431,98 430,98 430,98 430,98 430,98 430,98 430,98 430,99 429,99 429,99 429,99 429,99 429,99 429,99 429,99 429,99 428,99 428,99 428,99 428,99 428,99 428,99 428,99 428,99 428,100 428,100 427,100 427,100 427,100 427,100 427,100 426,100 426,100 426,100 426,100 426,101 426,101 426,101 426,101 426,101 426,101 426,102 426,102 426,102 426,102 426,102 426,102 426,103 426,103 426,103 426,103 426,103 425,103 425,103 425,104 425,104 425,104 425,104 425,104 425,104 425,105 424,105 424,105 424,105 424,105 424,105 424,105 424,105 424,106 424,106 424,106 424,106 424,106 424,106 423,107 423,107 423,107 423,107 422,107 423,107 422,107 422,107 422,107 422,107 421,108 421,107 421,107 419,108 419,108 419,109 418,109 418,109 418,109 418,109 417,109 417,109 417,110 416,110 416,111 416,111 416,111 416,111 415,111 415,111 415,112 415,112 415,112 414,112 414,112 414,112 414,113 414,113 414,113 414,114 414,114 414,114 414,114 414,114 414,115 414,115 413,116 413,116 412,117 412,117 412,117 411,118 411,118 411,118 410,118 410,118 410,119 410,119 410,119 410,120 409,120 409,120 410,120 410,120 410,120 410,120 410,121 410,121 410,121 409,121 409,122 409,122 408,122 408,123 408,123 407,123 407,123 407,124 407,124 405,124 404,124 404,124 404,124 403,123 403,123 402,123 401,122 401,121 400,121 399,121 399,120 398,120 398,120 396,120 396,120 396,120 396,120 395,120 395,120 395,120 394,120 394,120 393,120 392,121 392,121 391,121 391,121 391,121 390,121 390,121 390,121 390,121 390,121 391,121 391,122 390,122 390,122 390,123 390,123 389,123 389,123 389,123 389,123 388,123 388,123 388,123 388,123 387,124 387,124 386,125 386,125 386,125 386,125 386,126 386,126 385,126 385,126 384,127 384,127 384,127 384,127 384,127 384,127 384,128 383,128 383,128 383,128 383,128 383,129 383,129 383,129 384,129 384,129 384,129 384,129 384,129 385,130 385,130 385,130 385,130 385,130 385,130 385,130 385,130 384,130 384,131 384,131 384,131 384,131 384,132 384,132 383,132 383,133 383,133 383,133 383,133 383,133 382,133 382,133 382,133 382,133 381,133 380,133 380,133 380,133 380,133 379,133 379,133 379,133 378,133 378,133 378,133 378,132 378,132 378,132 378,132 377,132 377,132 377,132 376,132 376,133 376,133 376,133 375,134 375,134 375,134 375,134 375,134 374,135 374,135 374,135 373,135 373,135 372,135 372,135 372,136 371,136 371,136 371,136 372,137 372,138 372,138 372,138 372,139 372,139 372,139 372,140 372,140 372,140 372,140 374,140 374,141 375,141 375,141 375,141 375,142 375,142 374,142 374,142 374,142 374,142 373,143 372,143 371,143 370,144 370,145 369,145 369,146 369,146 369,146 369,147 369,147 370,148 370,148 370,148 370,149 370,149 370,149 370,150 371,151 371,151 371,151 372,152 373,152 373,152 374,152 377,152 378,152 379,152 379,152 379,152 379,153 379,153 379,153 378,155 378,155 378,156 378,157 378,157 379,157 379,157 379,157 379,158 379,158 378,158 378,158 378,158 378,159 378,159 378,159 379,160 379,160 379,161 380,161 380,161 381,161 381,162 381,162 381,162 381,162 381,162 381,163 380,163 380,164 380,164 380,164 380,164 380,165 380,165 380,165 380,165 380,166 380,166 380,167 380,167 379,167 379,168 379,169 379,169 379,170 379,170 378,171 377,171 377,171 377,172 378,172 378,172 378,173 377,173 377,174 377,174 377,174 376,174 374,175 374,175 373,176 373,177 373,177 373,177 373,178 373,178 371,180 371,181 370,182 370,182 370,183 370,183 370,184 371,184 371,185 371,185 371,186 371,186 371,186 370,186 369,187 369,187 369,187 368,188 368,188 368,188 368,188 368,188 367,188 367,188 367,188 366,188 366,188 366,188 366,188 365,188 365,188 365,188 365,188 365,187 365,187 365,187 365,187 364,187 364,187 364,187 364,186 364,186 364,186 364,186 364,186 363,186 363,186 363,187 363,187 363,187 363,187 363,187 362,187 362,187 362,187 362,187 361,187 361,187 361,187 361,187 361,187 360,187 360,187 360,187 360,187 360,187 360,187 360,187 359,187 359,187 359,187 359,187 359,187 358,187 358,187 358,187 357,187 357,187 356,187 356,187 356,187 356,187 356,187 356,187 356,187 355,187 355,187 355,187 354,187 354,186 353,186 353,186 353,185 353,185 353,185 353,184 353,184 351,184 350,185 348,185 347,185 347,185 347,184 347,184 347,184 346,184 345,184 345,185 345,184 345,184 345,183 345,183 344,182 344,181 344,181 343,180 343,180 343,180 342,180 342,180 342,180 342,181 342,181 340,182 340,182 340,183 340,183 339,183 338,183 338,183 338,184 338,184 336,184 336,183 336,183 337,182 337,182 337,182 337,182 337,182 337,181 337,181 336,181 336,181 336,181 336,181 335,181 334,181 334,181 334,181 333,180 333,180 333,180 333,180 333,180 333,180 333,180 332,180 332,180 332,180 332,180 332,180 331,180 331,180 331,180 331,180 331,180 330,181 330,181 330,181 330,181 330,181 329,181 329,181 329,181 329,181 329,181 329,181 328,181 328,181 328,181 328,181 328,181 328,181 327,182 327,182 327,182 327,182 327,182 326,182 325,183 325,183 325,183 325,183 325,183 324,183 323,183 323,183 322,183 322,183 322,184 321,184 321,184 320,184 320,184 320,184 319,185 319,185 319,185 319,185 318,185 318,184 318,184 318,184 316,185 316,185 316,185 315,186 315,186 315,186 314,186 313,187 313,187 313,187 312,187 312,187 311,187 311,187 311,186 312,185 312,184 312,183 313,183 313,183 312,182 312,181 312,181 309,182 309,181 308,181 308,181 308,181 307,182 306,182 305,182 304,183 303,183 303,183 302,183 302,183 301,184 301,184 301,184 300,184 300,184 300,184 300,184 299,184 299,184 299,184 298,184 298,184 298,184 298,184 297,184 297,184 297,184 296,184 296,184 296,184 296,184 295,184 295,185 295,185 295,185 294,185 294,185 293,185 293,186 292,185 291,185 291,185 290,185 289,185 289,186 289,186 289,186 289,186 289,187 289,188 289,189 286,189 286,189 286,189 286,190 286,190 286,191 286,191 284,191 283,191 283,191 283,191 282,191 281,191 280,191 280,191 280,191 280,190 280,190 280,190 279,190 279,189 279,189 278,189 278,189 278,189 277,188 275,188 275,188 275,188 274,188 273,188 272,188 272,188 271,188 270,187 270,187 269,187 269,187 267,188 267,188 267,188 267,188 267,188 266,188 265,189 263,189 263,189 262,189 262,189 262,189 261,190 260,190 260,191 259,192 258,192 258,192 258,193 258,193 258,193 258,193 258,193 258,193 259,194 258,194 258,194 259,194 259,194 259,194 259,194 259,194 259,195 259,195 259,195 259,195 259,195 259,195 259,195 259,195 259,195 259,195 259,195 259,196 259,196 259,196 259,196 259,196 259,196 259,196 259,196 259,196 259,197 259,197 259,197 259,197 259,197 259,197 259,197 259,197 260,197 260,198 260,198 260,198 261,198 261,198 261,198 262,198 262,198 262,198 262,199 263,199 263,199 263,199 263,199 263,199 263,200 263,200 263,200 263,200 263,200 263,200 263,201 263,201 263,201 263,201 263,201 263,202 262,202 262,202 263,202 263,202 263,202 263,203 263,203 263,203 263,203 263,203 263,203 264,203 264,204 264,204 264,204 264,204 264,204 264,204 263,205 263,205 263,205 263,205 263,206 264,206 264,206 264,206 264,207 264,207 265,207 265,208 266,208 267,208 267,208 267,208 267,208 267,208 269,211 269,212 269,213 269,214 269,214 269,215 269,215 269,215 268,215 268,215 268,215 268,215 268,215 268,216 268,216 268,217 268,217 268,217 268,218 268,218 268,219 269,219 269,220 269,220 269,221 270,221 270,222 270,222 270,222 270,222 271,223 271,223 271,223 271,224 271,225 271,226 271,226 271,226 271,226 271,226 271,226 271,226 271,226 271,226 270,226 270,226 270,226 270,226 270,226 269,226 269,226 268,226 268,226 268,226 268,226 268,226 267,226 266,226 266,226 266,226 266,226 265,226 264,226 263,225 262,226 262,226 261,226 261,226 260,225 260,225 260,225 260,225 260,225 260,225 260,225 260,224 260,224 258,224 258,224 258,224 258,223 257,223 257,222 257,222 256,222 256,222 255,222 255,222 254,222 254,222 253,222 251,222 251,222 251,222 251,221 250,221 250,221 249,221 248,221 247,221 247,221 247,222 247,223 247,223 247,223 247,223 247,223 247,223 247,223 247,223 247,224 247,224 247,224 246,224 246,224 246,224 245,225 245,225 245,225 245,226 244,226 244,226 241,226 241,226 241,226 240,226 240,226 240,226 240,226 239,226 239,226 238,226 238,226 238,226 238,226 237,226 237,226 237,226 237,226 236,226 236,226 236,226 236,226 236,226 235,226 235,226 235,226 235,226 235,226 235,226 235,226 234,227 234,227 233,227 233,227 233,227 232,227 232,227 231,227 231,228 231,228 231,228 231,228 231,228 231,228 231,229 231,229 231,229 231,229 231,229 231,229 231,230 231,230 231,230 231,230 232,230 232,230 232,230 232,230 232,231 232,231 232,231 231,231 231,231 231,231 231,231 231,232 231,232 231,232 231,232 231,232 230,232 230,232 230,233 230,233 230,232 230,232 229,233 229,233 227,233 218,233 218,233 218,233 219,232 219,232 219,232 218,232 218,232 219,231 219,231 218,231 218,231 218,231 218,230 218,230 218,230 218,230 218,230 218,230 218,229 218,229 218,229 218,229 217,229 217,229 217,228 217,228 216,228 216,228 216,228 216,228 216,228 216,228 215,228 215,228 215,228 215,228 214,227 214,227 214,227 214,227 214,227 214,227 214,227 214,227 214,227 214,226 213,226 213,226 213,226 213,226 213,225 213,225 213,225 213,225 213,225 213,224 213,223 213,223 213,223 213,223 212,223 212,222 212,222 212,222 212,222 212,222 212,221 212,221 212,221 212,221 212,221 212,220 212,220 213,220 213,220 212,220 212,220 212,220 212,220 212,220 212,220 212,220 212,220 211,220 211,220 211,220 211,220 211,220 210,221 210,221 210,221 210,221 209,221 209,221 209,221 209,221 209,221 209,222 209,222 208,222 208,222 208,222 208,222 208,222 207,222 207,222 207,222 207,222 207,222 207,222 207,222 207,223 207,223 207,223 207,223 207,223 206,223 206,223 206,223 206,223 206,223 206,223 205,223 204,223 204,223 204,223 203,223 203,224 203,224 203,224 203,224 203,224 203,224 203,224 203,224 203,224 203,224 203,224 202,224 202,224 202,224 202,224 202,224 202,225 202,225 202,225 201,224 201,224 201,224 201,224 201,225 200,225 200,225 200,225 200,225 200,225 200,225 199,226 199,226 198,226 198,227 197,228 197,228 197,228 197,228 197,228 197,228 197,228 197,229 196,229 196,229 195,229 195,230 195,230 195,230 194,230 194,230 194,230 194,230 194,230 194,231 194,231 194,231 194,231 193,231 193,231 193,231 193,231 193,231 193,231 192,231 192,231 192,231 191,231 191,231 191,231 190,232 190,232 190,232 190,232 190,232 190,232 189,232 189,232 189,232 189,232 189,232 189,232 189,232 189,232 188,232 188,233 188,233 188,233 188,233 188,233 188,233 188,233 187,233 188,234 188,234 187,234 187,234 187,234 187,234 187,234 187,234 187,234 187,234 186,235 186,235 186,235 186,235 186,235 187,236 187,236 187,237 187,237 187,237 186,237 186,238 186,238 186,238 186,238 186,238 186,238 186,238 186,238 186,239 185,239 185,239 185,239 185,240 185,240 185,240 185,240 185,240 185,240 185,240 185,240 185,240 185,240 184,240 184,240 184,240 184,240 184,240 184,240 184,241 184,241 184,240 184,240 184,240 183,240 183,240 183,241 183,240 183,240 183,240 183,240 183,240 182,240 182,240 182,240 182,240 182,240 182,240 182,240 182,240 182,240 181,240 179,241 179,241 178,241 178,241 178,241 178,241 178,241 177,241 177,242 177,242 177,242 177,242 177,242 177,242 177,242 177,242 177,242 177,242 177,242 177,242 176,243 176,243 176,243 176,243 176,242 176,242 176,242 176,242 176,242 176,242 175,242 175,242 175,243 175,243 176,243 176,243 176,243 176,243 175,243 175,243 175,243 175,243 175,243 175,243 174,243 174,243 174,243 174,243 174,243 174,243 174,243 174,243 174,243 173,243 173,243 173,243 173,243 173,243 173,243 173,243 173,243 173,243 173,243 173,243 172,243 172,243 172,243 173,243 172,244 172,244 172,244 172,244 172,244 172,244 172,244 172,244 172,244 171,244 171,244 171,244 171,244 171,244 171,244 171,244 171,244 171,244 170,244 170,244 170,244 170,244 170,244 170,244 169,244 169,244 169,244 169,244 168,244 168,244 168,244 168,244 168,244 168,244 167,244 167,244 167,244 167,244 167,244 167,244 166,244 166,244 166,244 166,244 166,244 166,244 166,244 166,244 166,244 166,244 165,244 165,243 165,243 165,243 164,243 164,243 164,242 164,242 164,242 163,242 163,242 163,242 163,242 163,242 162,241 162,241 162,241 162,241 162,241 161,241 161,241 161,241 161,241 161,241 161,241 161,240 160,240 160,240 160,240 160,240 160,240 160,240 160,239 160,239 160,239 159,239 159,239 159,239 159,239 158,239 158,239 158,239 158,239 158,239 158,238 158,238 158,238 158,238 157,238 157,238 157,238 157,238 157,238 158,238 158,237 158,237 158,237 158,237 159,237 159,236 159,236 159,236 159,236 159,236 159,236 159,235 159,235 159,234 160,233 160,233 160,232 160,232 160,232 160,232 160,230 160,230 159,228 159,228 159,227 159,227 158,225 158,224 158,224 157,223 157,223 157,223 157,223 157,223 157,223 157,223 157,223 157,222 157,222 156,221 155,220 155,220 153,219 152,218 151,218 151,218 151,218 150,217 148,219 148,218 147,218 147,218 146,218 146,218 146,218 146,217 146,217 145,217 145,217 145,217 145,217 144,217 144,217 144,216 143,216 143,216 143,216 142,216 142,216 142,215 142,215 141,215 141,215 140,215 140,215 140,214 140,214 139,214 139,214 139,214 139,214 138,213 138,213 138,213 138,213 137,213 137,213 137,212 137,212 136,212 136,212 135,211 135,211 135,211 135,211 134,211 134,211 134,211 134,211 134,211 134,210 134,210 134,210 135,210 135,210 135,210 135,210 135,210 135,210 135,210 135,210 135,210 135,210 135,209 135,209 135,209 136,209 136,208 136,208 136,208 136,208 136,208 136,208 137,207 137,207 137,207 137,207 137,207 137,207 137,207 137,207 138,207 137,206 138,206 138,206 138,206 138,206 138,206 138,206 138,206 138,206 139,206 139,206 139,206 139,206 139,206 139,206 139,205 139,205 140,205 140,205 140,205 140,205 141,205 141,205 141,205 141,205 141,205 141,205 141,205 141,205 141,205 142,205 142,204 142,204 142,204 142,204 143,204 143,204 143,204 143,204 143,203 143,203 143,203 142,203 142,203 142,202 142,202 142,202 141,202 141,201 142,201 142,201 141,201 141,200 141,200 141,200 141,200 141,200 140,200 140,200 140,200 140,200 141,200 141,200 141,200 141,199 140,199 140,199 140,199 140,199 139,199 139,199 139,199 139,199 139,199 139,199 139,199 139,198 138,198 137,198 137,198 137,198 136,198 136,198 136,198 136,198 136,198 136,198 136,198 136,198 136,198 136,198 136,198 135,198 135,198 135,198 135,197 135,197 135,197 135,197 135,197 134,197 134,197 134,197 134,197 134,197 134,197 134,197 134,197 133,196 133,196 133,196 133,196 133,196 133,196 133,196 132,196 132,196 132,196 132,196 132,196 132,196 132,196 132,196 132,196 131,195 131,195 131,195 131,195 131,195 131,195 130,195 130,195 130,195 130,195 130,195 130,195 130,195 129,195 129,195 129,195 129,195 129,195 129,195 129,195 129,195 128,195 128,194 128,194 128,194 129,194 129,194 129,194 129,194 129,194 129,193 129,193 129,193 129,193 129,193 129,193 129,193 129,193 129,193 129,193 129,193 129,193 129,193 129,193 129,193 129,192 129,192 129,192 129,192 129,192 129,192 129,192 129,192 129,192 129,192 129,192 129,191 129,191 129,191 129,191 129,191 129,191 129,191 129,191 129,191 129,191 129,191 129,190 129,190 129,190 129,190 129,190 129,190 129,190 129,190 129,190 129,190 129,189 129,189 129,189 129,189 129,189 129,189 129,189 129,189 129,189 129,188 129,188 129,188 129,188 129,188 129,188 129,187 129,187 129,187 129,187 129,187 129,187 129,187 129,187 129,186 129,186 129,186 129,186 129,186 129,186 129,186 129,186 129,186 129,186 129,185 129,185 129,185 129,185 129,185 129,185 129,185 129,185 129,185 129,185 129,185 129,184 129,184 129,184 129,184 129,184 129,184 129,183 129,183 129,183 129,183 130,183 129,183 129,183 129,183 129,182 129,182 129,182 129,182 128,182 128,182 128,182 128,182 128,182 128,182 128,182 127,182 127,182 127,182 127,182 127,182 127,182 127,181 127,181 126,181 126,181 126,181 126,181 126,181 126,181 126,181 126,181 126,181 126,181 126,181 126,181 126,181 126,181 126,181 126,181 126,181 126,181 126,181 126,181 126,180 126,180 126,180 126,180 126,180 126,180 126,180 126,180 126,180 126,180 126,180 126,179 126,179 125,179 125,179 125,179 125,179 125,179 125,179 124,178 124,178 124,178 124,178 124,178 124,178 124,178 124,178 124,178 123,178 123,178 123,178 123,178 123,177 123,177 123,177 123,177 122,177 123,177 123,177 123,177 123,176 123,176 123,176 122,176 122,176 122,176 122,176 122,176 122,176 122,176 122,176 122,176 122,176 122,176 122,176 122,176 122,175 122,175 122,175 122,175 122,175 121,175 121,175 121,175 121,175 121,174 120,174 120,174 120,174 120,174 120,174 119,174 119,174 119,174 119,174 119,174 119,174 119,174 119,174 118,174 118,174 118,173 118,173 118,173 118,173 118,173 118,173 118,173 118,173 117,173 117,173 117,173 117,173 117,173 117,173 117,173 117,173 117,172 117,172 117,172 116,172 116,172 116,172 116,172 116,172 116,172 116,172 116,172 116,172 116,172 116,171 116,171 116,171 116,171 116,171 116,171 116,171 116,171 115,171 115,171 115,171 115,171 115,171 115,171 116,171 116,170 115,170 115,170 115,170 115,170 115,170 115,170 115,169 115,170 114,170 114,170 113,171 113,171 112,171 111,172 110,172 110,172 109,172 109,173 107,173 107,173 107,173 107,173 107,172 107,172 107,172 107,171 107,171 107,170 107,170 107,170 107,170 106,170 104,171 104,171 104,171 104,171 104,171 104,172 104,172 104,173 104,173 104,173 103,172 103,172 102,172 102,172 102,171 102,171 102,171 101,171 101,171 100,171 97,172 97,172 96,173 96,172 96,172 96,172 95,171 95,170 93,171 92,171 91,170 91,170 91,170 90,170 90,170 89,169 89,169 89,169 89,169 89,170 89,170 89,170 89,170 88,170 88,170 88,170 88,170 88,170 88,171 88,171 88,172 87,171 86,171 86,170 86,170 86,170 85,171 85,171 85,171 84,172 84,172 84,172 84,173 83,173 83,173 83,172 82,172 82,172 82,172 82,172 82,172 81,172 81,172 81,172 81,172 81,172 80,172 80,172 80,172 80,172 80,172 79,172 79,172 79,172 78,172 77,173 77,173 77,173 76,173 76,173 76,173 76,173 76,173 75,173 75,173 75,173 75,173 75,173 75,174 74,174 74,174 73,175 72,175 71,175 71,175 69,175 68,175 67,175 67,175 67,175 67,174 67,174 67,174 67,173 67,173 67,172 66,172 66,172 65,172 65,172 64,172 64,172 64,171 63,170 63,170 63,170 63,169 63,169 62,169 62,168 62,168 62,168 62,168 62,167 62,167 62,167 62,167 62,166 62,166 62,166 62,166 62,166 62,166 61,166 61,166 61,166 61,166 60,165 59,165 59,165 59,165 59,166 58,165 58,165 57,165 57,165 57,165 57,165 56,165 56,165 56,165 56,165 55,164 55,164 55,164 55,164 55,164 55,164 55,164 54,164 54,164 54,164 53,164 53,164 53,164 53,164 53,164 52,163 52,163 51,163 51,163 51,163 50,163 50,163 50,163 50,163 49,163 49,163 49,162 49,162 49,162 48,162 48,162 48,162 48,162 47,162 47,162 47,162 46,162 46,162 46,162 46,162 46,162 46,162 45,162 45,162 45,162 45,161 44,161 44,161 44,161 44,161 44,161 44,161 44,160 44,160 44,160 44,160 44,160 44,160 44,160 44,160 44,160 44,160 44,160 44,160 44,160 44,159 44,159 44,159 44,159 44,159 44,159 44,159 44,159 44,159 44,159 44,159 44,159 43,158 43,158 43,158 43,158 42,158 42,158 42,158 42,158 42,158 42,158 42,158 42,158 42,158 42,157 42,157 42,157 42,157 42,157 42,157 41,157 41,157 41,157 42,157 42,156 41,156 41,156 41,156 41,156 41,156 41,156 41,156 41,156 41,156 40,156 40,155 40,155 40,155 40,155 40,155 40,155 39,155 39,155 39,155 39,155 38,155 38,155 38,155 38,155 38,155 37,155 37,155 37,155 37,155 36,155 36,155 36,155 36,155 36,155 36,155 35,155 34,155 34,155 34,155 34,155 34,155 34,155 33,156 33,156 33,156 33,156 33,156 33,156 33,157 33,157 33,157 32,157 32,157 32,157 32,157 32,157 32,157 32,157 32,157 32,157 32,157 32,158 31,158 31,158 31,158 31,158 31,158 31,158 31,158 31,158 31,158 31,159 30,159 30,159 30,159 30,159 30,159 30,159 30,159 30,160 30,160 30,160 30,160 30,160 29,160 29,160 29,161 29,161 29,161 29,161 29,161 28,162 28,162 28,162 28,162 28,162 28,162 27,163 27,163 27,163 27,163 27,163 27,163 27,163 27,163 27,163 27,163 27,163 26,163 26,163 26,164 25,164 25,164 24,164 24,164 24,164 24,164 24,164 23,163 24,163 24,163 24,163 24,162 24,162 24,162 24,161 24,161 24,160 24,160 23,159 23,159 23,158 23,158 23,157 22,157 22,157 22,156 22,156 21,155 21,155 21,154 21,154 21,153 21,153 21,152 21,152 21,152 21,150 21,149 20,148 20,148 20,147 19,147 19,146 19,146 18,145 18,145 18,144 17,144 17,144 17,144 16,143 15,143 14,143 14,142 13,142 13,142 13,142 13,141 12,141 12,141 11,141 11,140 10,140 9,140 8,140 7,140 7,140 6,140 6,140 6,140 6,139 5,139 5,139 5,138 5,138 5,138 6,137 7,137 7,136 8,135 8,135 9,135 9,135 9,134 7,133 7,133 7,132 7,132 7,132 7,131 7,131 7,131 6,131 5,131 5,131 4,131 4,131 4,131 4,130 3,130 3,129 3,129 2,128 2,128 1,127 1,127 0,127 0,126 0,125 0,125 0,125 1,125 1,125 2,125 3,125 4,125 4,125 4,125 4,125 5,125 5,125 6,125 6,125 7,125 7,125 7,125 8,124 8,123 8,123 8,123 8,123 7,122 6,121 6,121 5,120 4,120 4,120 4,120 4,119 4,118 3,118 3,117 3,117 3,116 2,114 2,114 1,112 0,112 0,111 0,111 0,111 0,110 0,110 1,110 1,110 1,110 2,110 2,110 3,109 3,109 4,109 5,108 8,106 9,106 9,105 9,105 9,105 9,105 9,105 9,103 9,103 9,103 9,102 9,102 9,102 9,101 9,101 9,101 10,100 11,100 11,100 11,99 12,98 12,97 13,97 14,95 14,95 14,95 15,94 16,94 16,93 16,93 16,93 16,93 16,93 17,93 17,93 17,92 17,92 18,92 18,92 18,91 18,91 18,91 18,90 18,90 18,90 18,89 18,88 18,88 19,87 19,87 19,86 19,86 18,85 18,84 18,84 17,83 17,82 16,82 16,82 16,81 15,81 14,80 14,79 12,77 12,76 12,76 12,75 12,75 12,75 11,74 10,74 10,74 10,73 10,73 9,73 8,72 7,72 7,72 7,71 7,71 7,71 6,70 5,70 5,70 5,69 5,69 5,69 6,68 6,67 6,67 6,66 6,66 6,66 6,65 5,65 5,65 4,65 4,65 2,64 2,63 2,63 1,63 1,62 1,62 1,62 1,62 1,62 2,62 3,62 3,61 4,61 4,61 4,61 4,60 5,60 6,59 7,59 7,58 8,57 8,57 8,57 9,57 11,56 12,56 12,56 12,55 13,55 13,55 13,55 13,54 13,54 13,53" id="2201" class="canton" fill="steelblue" stroke-width="1" stroke="white" geotype="canton" geoname="Bégard" code_insee="2201" code_departement="22" nom_departement="Côtes-d'Armor" code_region="53" nom_region="Bretagne"/></svg>