<?xml version="1.0" encoding="utf-8"?>
<svg version="1.1" id="svgmap" xmlns="http://www.w3.org/2000/svg" xmlns:xlink="http://www.w3.org/1999/xlink" x="0px" y="0px" width="100%" height="100%" viewBox="0 0 359 500">
<polygon points="33,45 33,45 35,46 40,47 42,48 43,49 43,49 44,49 44,49 45,50 45,51 45,51 46,51 46,51 46,52 49,52 51,52 51,52 50,51 50,50 50,49 50,48 50,47 51,47 51,46 53,45 53,45 54,44 57,43 59,42 61,41 64,42 64,42 65,42 66,44 68,48 71,51 72,53 76,54 82,56 84,56 84,55 86,53 88,51 90,49 91,48 91,47 90,41 90,41 90,40 90,40 89,37 91,35 91,31 91,30 91,30 91,29 91,29 91,28 91,28 91,27 91,27 91,27 91,27 91,27 92,27 92,27 92,27 92,26 93,26 93,26 93,26 93,26 93,26 93,26 93,26 94,26 94,26 94,26 94,26 94,26 94,26 94,26 95,26 95,25 95,25 95,24 94,24 94,23 94,23 94,23 94,22 93,22 93,21 92,21 92,21 92,21 92,20 92,20 92,18 92,17 92,17 92,17 92,17 92,17 92,16 92,15 92,15 92,15 92,15 92,15 92,15 92,14 92,14 91,14 89,13 89,12 88,12 88,12 88,11 88,11 88,11 88,11 88,10 88,9 88,9 88,9 87,9 86,9 85,8 84,8 84,8 83,8 82,8 82,8 81,7 82,7 82,7 82,6 82,6 82,6 82,6 82,5 82,5 82,5 82,4 82,4 82,4 82,4 82,4 82,4 82,3 82,3 83,3 83,3 83,2 83,2 83,2 84,1 85,0 85,0 85,0 85,0 86,0 86,0 87,0 87,0 87,0 88,1 89,1 89,1 90,1 90,1 90,1 91,1 91,1 92,0 94,0 94,0 94,0 94,1 94,1 94,1 94,2 94,3 94,3 94,3 94,3 94,3 94,4 94,4 95,5 95,5 96,5 96,5 97,5 97,5 98,5 98,5 99,4 99,4 99,4 99,4 100,5 100,5 100,5 101,5 101,5 101,5 102,5 102,5 103,5 103,5 104,5 108,6 108,6 108,6 108,7 108,7 108,7 108,7 108,7 109,8 109,8 109,8 109,8 109,9 109,9 109,10 109,10 109,10 110,11 110,11 110,11 110,11 110,11 110,11 110,11 110,11 110,11 111,11 111,11 111,11 112,11 112,11 113,11 114,11 114,11 114,11 114,11 115,12 115,12 115,12 115,11 115,11 116,11 116,12 116,12 116,11 117,11 117,11 117,11 118,11 118,11 118,11 118,11 118,11 119,11 119,11 119,10 119,10 119,10 121,13 121,13 124,15 124,15 124,15 124,15 127,18 127,18 128,18 128,18 128,18 129,19 129,19 129,19 129,19 129,19 130,19 130,19 130,20 130,20 131,20 131,20 131,20 131,20 131,20 131,20 132,20 132,21 133,21 133,21 133,21 133,21 133,21 133,21 134,22 135,23 135,23 135,23 135,23 135,23 135,23 135,23 135,23 135,24 135,24 136,24 136,24 136,24 137,25 137,25 137,25 137,25 137,25 137,25 137,25 138,25 138,25 138,25 138,26 138,26 138,26 139,26 139,26 139,26 139,26 139,26 140,27 140,27 140,27 140,27 141,28 141,28 141,28 142,28 142,27 142,27 143,27 143,27 144,27 144,27 144,27 144,27 144,26 145,26 145,25 145,25 146,25 146,24 147,24 147,24 147,24 148,24 148,24 148,24 148,24 149,25 149,25 149,25 149,25 149,26 149,26 149,26 150,27 150,28 150,28 150,28 150,29 150,29 150,29 150,29 150,29 151,30 151,30 151,30 152,30 152,30 153,29 154,29 155,29 155,29 155,29 155,29 156,29 158,29 158,29 158,29 159,28 159,27 159,27 159,27 159,29 159,29 159,29 160,30 161,31 161,31 161,31 161,32 161,32 162,33 162,34 162,34 163,34 163,33 164,33 164,31 165,31 165,30 167,29 167,28 167,28 168,28 170,26 170,25 170,25 170,25 171,25 172,24 173,23 175,23 175,23 176,22 177,22 179,22 179,22 181,22 181,22 181,22 182,22 183,22 183,22 184,23 184,23 185,25 186,25 186,26 187,26 188,27 188,28 189,28 191,29 192,29 193,30 196,30 197,30 199,30 202,29 203,29 203,29 207,28 208,28 209,28 210,27 211,27 212,26 214,25 216,24 217,24 218,23 218,23 220,22 220,22 220,22 220,22 221,22 221,22 222,23 222,23 222,23 222,23 222,24 223,24 223,24 223,25 223,25 223,27 223,27 224,28 224,29 223,30 223,31 223,32 223,32 223,33 223,33 223,33 223,34 223,34 223,34 223,35 224,35 224,35 225,36 225,36 226,36 227,37 227,37 227,37 228,37 228,37 229,37 230,37 231,37 233,37 233,37 235,37 237,37 237,37 239,37 240,37 240,37 241,37 242,37 244,37 245,37 246,37 246,37 246,37 246,37 246,37 246,37 246,37 246,37 246,37 246,37 249,36 250,36 251,36 251,36 251,35 252,35 254,34 256,34 257,33 257,33 259,33 260,32 261,32 263,32 264,32 265,32 266,32 266,32 267,32 268,32 269,32 269,32 269,32 270,32 271,33 271,33 272,34 273,34 273,35 274,35 274,36 275,36 277,36 277,37 279,37 280,37 282,38 282,38 283,39 284,39 285,39 286,40 287,40 288,40 289,41 290,41 290,41 291,42 292,42 292,42 293,42 294,43 294,43 294,43 296,43 297,43 303,45 304,45 305,45 306,46 308,46 308,47 310,47 309,48 309,48 309,48 309,48 309,49 309,49 309,49 309,49 309,49 309,50 309,50 309,50 309,50 309,50 309,50 309,50 309,50 309,51 309,51 309,51 309,51 309,51 309,52 310,52 310,53 310,53 310,53 310,53 310,53 310,53 310,53 310,53 311,54 311,54 311,54 311,54 311,54 311,54 311,54 311,54 311,55 311,55 311,55 311,55 311,55 311,55 311,56 311,56 310,56 310,56 310,56 310,56 310,56 310,56 310,56 310,56 310,57 310,57 310,57 310,57 310,58 310,58 310,58 310,58 310,58 310,58 310,58 309,58 310,59 310,59 310,59 310,59 309,59 309,59 309,59 309,59 309,59 309,59 309,59 309,59 310,59 310,59 310,59 310,59 310,59 309,59 309,60 309,60 309,60 309,60 309,60 309,60 309,61 309,61 308,61 308,61 308,61 308,61 308,61 308,61 308,61 308,62 308,62 308,63 308,63 308,63 307,63 307,63 307,63 307,64 307,64 307,64 307,64 307,64 307,64 307,64 307,64 307,64 306,64 306,64 306,64 306,65 306,65 306,65 305,65 305,65 305,65 304,65 303,65 303,65 303,65 303,65 303,65 302,65 302,65 302,65 302,65 302,65 302,65 302,65 302,65 302,65 302,65 302,65 302,65 301,65 301,65 301,65 301,66 301,66 301,66 301,66 301,66 301,66 301,66 301,66 301,66 301,66 301,67 301,67 301,67 300,67 300,67 300,67 300,67 300,67 299,67 299,67 299,68 298,68 298,68 298,68 298,68 298,68 298,68 297,68 297,68 297,68 297,68 297,68 296,68 296,69 295,69 295,69 295,69 295,69 295,69 295,69 295,70 295,70 294,70 294,70 294,70 293,70 293,70 293,70 293,70 293,70 292,70 292,70 292,70 292,70 292,70 291,70 291,71 291,71 291,71 291,71 291,71 291,71 291,71 290,71 290,71 290,71 290,71 290,71 290,71 290,72 289,72 289,72 289,72 288,72 288,72 288,72 288,72 288,72 288,72 287,72 287,73 286,73 286,73 286,73 286,73 285,73 285,73 285,73 284,74 284,74 284,74 283,74 283,74 282,74 282,74 282,74 282,74 281,74 281,74 281,74 280,74 280,74 280,74 279,74 279,74 278,74 278,74 278,74 277,74 277,74 277,74 277,74 277,74 277,74 276,74 276,74 276,74 276,74 276,74 276,74 275,74 275,74 275,74 275,74 273,75 273,75 273,75 272,75 272,75 272,75 272,75 272,75 271,75 271,75 271,75 271,76 270,76 270,76 270,76 270,76 270,76 270,75 270,75 269,75 269,75 269,75 269,75 268,75 268,75 268,75 268,75 268,75 267,75 267,75 267,75 267,75 266,75 266,75 266,75 266,74 266,74 266,74 265,74 265,74 264,74 264,74 264,74 263,74 262,74 262,74 262,74 262,74 262,74 261,74 261,74 261,74 260,74 260,74 260,74 260,74 260,75 260,75 259,75 259,76 259,76 259,76 259,76 259,76 259,76 260,77 260,77 260,77 260,77 260,77 260,77 261,77 261,77 262,78 262,78 262,78 262,78 262,78 263,78 263,78 263,79 263,79 263,79 262,79 262,79 262,79 262,79 262,80 262,80 262,80 262,80 262,80 262,81 262,81 262,81 262,81 262,81 263,82 263,82 263,82 263,82 263,82 263,82 264,81 264,81 264,81 264,81 264,81 264,81 264,81 264,81 264,81 264,81 264,80 264,80 264,80 264,80 265,79 265,79 265,79 267,79 267,79 267,78 267,78 268,78 268,77 268,77 269,77 270,77 270,77 270,77 270,77 271,77 271,77 271,77 271,77 272,78 272,78 272,78 272,78 273,78 273,78 273,78 273,78 273,78 273,78 273,79 272,80 273,81 273,81 273,81 273,81 274,82 274,82 274,82 274,82 275,82 275,82 276,82 276,82 276,82 276,82 277,82 277,82 277,82 277,83 277,83 277,83 277,83 277,83 276,83 276,83 276,83 276,83 276,83 276,83 276,84 276,84 276,84 276,84 276,84 276,84 276,85 276,85 276,85 279,86 279,86 279,85 279,85 280,85 280,85 280,85 280,86 281,87 281,87 282,87 282,87 282,88 283,90 283,91 284,92 285,93 285,94 285,94 285,95 284,95 284,95 283,97 283,96 282,96 282,97 280,97 279,97 279,98 279,99 279,100 280,100 280,100 281,101 281,101 282,101 281,101 282,101 282,101 282,102 282,102 282,102 282,102 281,103 282,103 282,104 282,105 283,106 285,108 285,109 287,110 287,110 290,114 291,114 293,117 293,117 293,118 294,118 294,118 294,119 294,119 295,120 295,120 295,120 296,120 296,121 297,121 298,121 298,122 299,123 299,123 299,123 299,123 300,124 300,124 300,124 301,124 301,125 301,125 301,125 301,126 301,126 300,126 300,127 299,128 299,128 299,128 298,128 299,129 298,129 298,129 298,130 298,130 297,131 297,131 297,131 296,131 296,131 295,131 294,132 293,132 293,132 294,133 293,133 293,133 293,134 293,135 292,135 292,135 292,136 291,136 291,137 291,137 290,138 290,138 290,138 291,138 292,139 294,139 294,139 295,139 296,140 296,140 297,140 298,140 299,141 300,141 300,141 301,141 302,140 302,140 302,140 303,140 303,139 303,139 304,139 305,138 305,138 305,138 305,138 305,138 306,138 307,137 307,137 308,138 310,138 310,138 310,138 308,140 308,141 307,142 306,143 306,144 306,144 305,144 305,145 304,147 303,147 303,147 303,148 303,149 303,149 302,149 302,150 303,150 304,151 305,151 306,151 306,151 307,151 307,151 309,151 310,152 311,153 312,153 312,153 314,154 316,155 316,155 318,158 318,158 319,159 318,159 319,160 319,160 319,161 320,161 320,161 320,162 321,163 321,164 321,164 322,164 322,165 322,165 322,166 323,166 324,166 325,167 325,167 328,168 328,170 328,171 328,173 328,174 328,174 329,175 331,175 331,176 332,176 333,176 333,176 334,177 334,177 335,178 336,178 337,179 338,180 338,180 339,181 340,182 340,182 341,182 359,197 359,197 358,198 358,198 357,198 356,199 356,199 355,200 355,200 354,200 354,200 352,201 352,202 351,202 351,202 351,202 350,203 350,203 350,203 351,204 353,204 353,204 354,205 354,205 354,205 354,205 352,205 351,205 351,206 350,206 350,206 348,206 348,206 347,206 346,207 346,207 344,207 343,207 343,207 343,207 342,207 342,207 342,207 342,207 341,207 341,208 341,208 341,208 341,208 341,208 340,208 340,208 340,208 339,208 339,208 339,208 339,209 339,209 339,209 338,209 338,209 337,210 337,210 337,210 336,210 335,210 335,210 333,211 333,211 333,211 333,211 333,211 332,211 332,211 331,211 330,211 330,212 329,212 329,212 328,212 328,212 327,212 327,212 327,212 326,212 326,212 326,212 325,212 324,212 324,212 323,213 323,213 323,213 322,213 321,213 321,213 319,213 319,213 319,213 318,213 318,213 318,213 317,213 317,213 317,213 316,213 315,213 313,214 312,214 311,214 309,215 307,215 306,215 304,215 304,215 304,215 304,216 304,217 304,217 304,217 305,217 305,218 306,219 306,219 306,219 307,221 307,221 307,221 307,221 307,222 308,222 308,222 308,222 308,222 307,222 307,222 308,222 308,223 308,223 309,224 309,225 309,225 310,225 310,226 310,226 310,226 310,226 310,227 310,227 310,227 310,227 311,228 311,228 311,228 311,228 310,229 310,229 310,229 310,229 310,229 311,230 311,230 311,231 311,231 311,231 311,232 311,232 311,232 312,232 312,233 313,233 313,233 313,233 313,234 313,234 313,234 313,234 312,234 312,234 311,234 311,234 311,234 310,237 310,237 309,237 309,238 308,239 308,239 308,239 307,239 307,240 307,240 307,240 307,240 307,241 307,241 307,241 307,241 307,241 308,242 308,242 308,243 308,243 308,243 308,243 308,244 308,244 309,244 309,244 310,244 310,244 310,245 311,245 311,245 311,245 311,245 312,246 312,246 312,246 314,246 314,246 314,246 314,246 314,246 315,247 315,247 315,247 316,247 316,248 316,248 316,248 316,249 316,250 316,250 316,250 316,251 316,251 316,251 316,252 316,252 316,252 316,252 316,252 316,252 316,252 316,252 315,253 315,253 315,253 312,255 312,255 312,256 312,256 312,256 312,256 311,257 312,257 312,257 312,257 312,257 312,257 311,258 311,258 311,258 312,258 312,258 312,258 311,259 311,259 311,259 311,259 310,259 310,259 310,260 310,260 311,260 311,260 311,261 311,261 311,261 310,261 309,262 309,262 309,262 309,262 309,263 309,263 309,263 309,264 310,264 312,265 312,265 312,266 312,266 313,267 313,267 314,267 314,267 314,268 315,268 316,268 316,268 316,268 317,268 317,268 317,268 318,268 318,269 320,269 320,269 321,269 321,269 321,269 321,269 321,270 321,270 321,270 321,270 321,271 321,271 321,271 321,271 321,271 321,271 321,271 321,272 321,272 321,272 321,272 321,272 321,272 320,273 320,273 320,273 320,274 320,274 320,274 320,274 321,274 321,274 321,274 321,274 321,275 321,275 321,275 320,275 320,275 320,275 320,275 320,275 320,276 319,276 319,276 319,276 319,276 318,276 318,276 318,276 317,276 317,276 317,277 317,277 317,277 317,277 317,277 317,277 317,277 317,277 317,277 317,277 316,278 316,278 316,278 315,278 315,278 315,278 315,278 315,278 315,279 315,279 315,280 315,280 315,280 315,280 315,281 315,281 315,281 316,281 316,281 316,280 316,280 316,280 316,280 316,280 316,280 317,280 317,281 317,281 317,280 317,280 317,280 317,280 318,281 319,282 319,282 318,283 318,283 318,283 318,283 318,283 318,284 318,284 319,285 319,285 319,285 319,285 319,285 318,286 318,286 318,286 317,286 317,286 317,286 317,287 317,287 317,287 318,287 318,287 319,287 319,287 320,287 320,287 320,287 321,287 321,287 322,287 322,288 322,288 322,289 322,289 323,289 323,289 322,289 322,290 322,290 322,290 322,290 323,291 323,291 324,291 325,293 325,293 326,293 326,293 327,293 327,293 327,294 327,294 327,294 328,295 328,295 328,296 328,296 328,297 328,297 329,297 329,298 329,298 329,298 329,299 330,299 330,300 330,300 331,300 331,300 331,301 332,301 333,301 333,301 334,301 335,302 335,302 336,301 337,301 337,301 337,301 337,301 338,301 338,301 339,301 339,302 340,303 340,303 340,304 340,304 340,304 341,305 341,307 342,307 342,307 342,308 342,308 343,308 343,309 343,309 343,309 343,308 343,308 343,308 343,308 344,308 343,308 343,308 343,308 343,308 343,309 343,309 343,309 343,309 342,310 342,310 342,311 342,311 342,312 342,312 341,312 340,312 340,312 340,312 339,312 339,312 339,312 339,312 339,312 339,313 339,313 339,313 339,313 339,313 338,313 338,313 338,313 338,313 338,313 338,313 338,313 338,313 338,313 339,313 339,313 339,313 339,313 339,313 339,313 339,314 339,314 340,314 340,314 340,314 340,314 340,314 341,314 341,314 341,314 341,314 341,314 341,314 341,314 341,314 341,315 341,315 341,315 341,315 341,315 341,315 342,315 343,316 343,316 344,316 344,316 344,317 344,317 344,317 344,317 344,317 344,317 344,317 344,318 344,318 344,318 344,318 344,318 344,319 344,319 344,319 344,320 344,320 344,320 344,320 343,320 343,321 340,322 340,322 340,322 341,322 341,322 342,324 342,324 342,325 342,325 342,325 342,325 342,325 342,325 342,325 342,325 343,325 343,325 344,326 344,326 344,326 345,326 345,326 345,326 346,325 346,325 347,326 347,326 348,327 348,327 348,327 347,327 347,327 347,327 346,327 346,327 346,328 345,328 345,329 345,329 345,331 345,331 345,331 345,331 345,331 345,331 344,331 344,331 344,332 344,332 344,332 344,332 344,332 345,332 345,332 346,332 346,332 347,332 347,332 347,332 348,333 349,333 349,333 349,333 349,333 349,333 349,333 349,333 349,334 349,334 349,334 350,335 350,335 350,335 351,336 351,336 351,337 351,337 350,337 350,337 350,337 350,337 349,337 349,337 349,337 349,337 349,337 350,338 350,338 350,338 350,338 350,338 350,338 350,339 350,339 350,340 350,340 350,340 350,341 350,341 351,342 351,342 351,342 351,343 351,343 351,343 352,343 352,343 352,343 351,343 350,343 350,343 349,343 348,343 348,343 348,343 348,343 347,343 347,343 346,343 346,343 346,343 346,343 345,342 345,342 344,342 343,342 343,342 342,342 341,342 341,342 341,341 341,341 340,341 340,340 339,340 339,340 339,340 339,340 338,339 337,339 337,339 337,339 336,339 336,339 336,339 335,339 335,339 335,339 335,339 334,339 334,339 334,339 334,339 333,339 332,339 332,339 332,339 332,339 332,339 331,339 331,339 330,339 330,340 330,340 330,340 329,340 329,340 329,339 329,339 329,339 329,339 329,339 329,338 329,338 329,338 329,338 328,338 328,338 327,338 326,338 326,338 326,339 325,339 325,339 325,339 324,339 323,340 323,340 323,340 323,341 323,341 323,342 323,342 323,342 323,343 323,343 323,343 322,343 322,344 322,344 321,344 321,344 321,344 320,344 320,344 319,344 319,344 318,344 318,344 317,344 317,344 317,344 317,344 317,344 316,344 316,344 316,345 315,345 315,346 315,346 315,346 314,346 314,346 313,346 313,346 312,347 312,347 312,347 311,347 311,347 311,347 311,347 311,347 310,348 310,348 310,348 310,349 310,349 310,349 310,349 310,349 310,349 310,350 310,350 310,350 310,350 309,350 309,351 309,351 309,351 308,352 308,352 308,353 307,353 307,353 307,353 306,353 306,354 306,354 306,354 307,354 307,354 307,353 307,353 308,353 308,354 308,354 308,354 309,354 309,354 310,354 310,354 310,354 310,354 311,354 311,353 312,353 312,353 312,353 312,353 313,353 313,353 313,353 313,353 314,353 314,353 315,353 315,353 315,353 315,355 315,355 315,355 316,355 316,355 316,356 316,356 317,356 317,356 317,356 318,356 318,356 318,356 319,356 319,357 320,357 320,357 321,357 321,357 321,357 321,358 321,358 320,359 320,359 320,359 320,359 319,360 319,360 319,360 319,361 319,361 319,361 319,361 319,362 319,362 319,362 319,362 319,363 319,363 319,363 319,363 319,363 319,363 318,364 318,364 318,364 318,364 318,364 318,364 318,364 318,364 317,364 317,365 317,366 317,366 317,366 317,366 317,367 318,367 318,367 318,367 318,367 319,368 320,368 320,368 320,368 320,368 320,368 320,368 320,368 320,368 320,368 320,368 320,368 320,369 320,369 320,369 321,370 321,370 321,370 321,370 321,371 321,371 321,371 322,371 322,371 322,371 322,372 323,372 323,372 323,373 324,373 324,373 325,373 325,373 325,373 325,373 325,373 326,374 326,374 326,374 327,374 327,374 328,374 328,375 328,375 328,375 329,375 329,375 329,375 329,376 329,376 329,376 329,376 330,376 330,376 330,376 331,377 331,377 331,377 332,377 332,377 332,377 333,378 334,378 334,378 334,378 334,378 334,378 334,378 334,378 335,379 335,379 335,379 336,379 336,379 336,379 336,380 337,380 337,380 338,380 340,380 340,380 340,380 340,381 341,381 341,381 341,381 341,381 342,381 342,381 343,380 343,380 344,380 344,380 344,380 344,380 344,381 344,381 344,381 346,382 346,382 347,382 347,382 347,382 347,383 347,383 347,383 347,384 347,385 348,385 348,386 348,386 348,386 349,388 350,388 350,389 350,389 350,390 351,390 351,391 351,392 351,393 351,394 351,394 351,395 351,396 351,396 351,397 351,397 351,397 350,398 350,398 350,399 349,399 348,401 348,401 348,401 347,402 346,403 346,403 345,403 344,404 342,404 341,405 340,405 337,406 336,406 336,406 335,406 334,406 334,407 334,407 333,406 333,406 332,406 331,406 330,406 329,406 328,406 328,406 328,406 327,406 326,406 325,406 322,407 322,407 321,407 321,407 320,407 320,407 318,407 316,406 315,406 313,406 311,406 311,406 310,406 310,406 309,405 309,405 307,405 307,405 307,406 307,406 307,406 307,406 307,406 307,406 307,407 307,407 307,407 307,407 308,407 308,407 308,407 307,408 307,408 307,408 308,408 308,408 308,408 308,408 308,408 308,408 308,408 308,409 308,409 308,409 308,409 308,409 308,409 308,409 309,409 309,410 309,410 309,410 309,410 309,411 309,411 309,411 309,411 309,411 309,411 309,411 309,411 309,411 309,412 309,412 309,412 309,412 308,412 308,412 308,412 308,412 308,412 308,412 308,412 307,412 307,412 307,412 308,412 308,412 308,413 308,413 308,413 308,413 308,413 308,413 308,413 308,413 308,413 308,413 308,414 307,414 308,414 308,414 308,414 308,414 308,414 308,414 308,414 307,414 307,415 306,415 306,415 306,415 306,415 306,415 305,416 305,416 305,416 304,416 304,416 304,416 304,416 304,416 304,416 304,416 303,416 303,416 303,416 303,416 303,416 302,416 302,416 302,416 302,416 302,416 302,416 302,416 302,416 302,417 302,417 302,417 302,416 302,416 302,416 301,416 301,416 302,417 302,417 302,417 301,417 301,417 301,417 301,417 301,417 300,417 300,418 300,418 299,418 299,418 299,418 299,418 298,418 298,418 299,418 298,419 298,419 298,419 298,419 298,419 298,419 298,419 298,419 298,419 298,419 298,419 298,419 298,419 298,419 298,420 298,420 299,420 299,420 299,420 299,420 299,420 299,420 299,420 299,420 299,420 299,421 299,421 299,421 299,422 299,422 299,423 298,423 298,423 298,424 298,424 298,424 298,424 299,424 299,424 299,424 299,424 299,425 299,425 298,425 298,425 298,425 298,425 298,426 298,426 298,426 298,426 298,426 298,426 298,426 298,426 297,427 297,427 297,427 297,427 298,427 298,427 299,427 299,427 299,427 299,427 299,427 299,427 299,427 298,427 298,428 298,428 296,430 296,430 296,431 296,431 296,431 296,431 296,431 296,431 296,431 296,431 296,432 296,432 296,432 296,432 296,432 296,432 296,432 296,432 296,432 296,432 296,433 296,433 296,433 296,433 296,433 296,433 296,433 296,433 296,433 296,433 296,433 296,434 296,434 296,434 296,434 296,435 296,435 296,435 296,435 295,435 295,435 295,435 295,435 295,436 295,436 295,436 295,436 295,436 295,436 295,436 295,436 295,436 295,436 295,436 295,436 295,436 295,436 295,437 295,437 295,437 295,437 295,437 294,437 294,437 294,437 294,437 295,437 295,437 295,437 295,437 295,437 295,437 295,437 295,438 294,438 294,438 294,438 294,438 294,438 294,438 293,437 293,437 293,437 293,437 292,437 292,437 292,437 291,438 291,438 291,438 290,438 289,439 289,439 288,439 288,439 288,439 287,439 287,438 287,438 287,438 286,438 286,438 286,438 286,438 286,438 285,438 285,438 285,438 285,438 285,438 284,438 284,438 284,438 283,438 283,438 282,438 282,438 281,438 281,438 281,438 281,438 281,438 279,437 279,437 279,437 278,437 278,437 278,437 277,437 277,437 275,436 275,436 275,436 275,436 275,436 274,436 273,436 273,435 273,436 270,438 270,439 270,439 270,439 270,439 270,439 271,440 272,441 272,441 269,442 266,444 266,444 264,445 261,447 261,447 259,449 259,448 258,448 257,447 255,446 254,446 254,446 254,445 254,445 254,445 254,445 254,445 253,444 253,444 253,444 253,444 253,443 253,442 253,441 253,441 253,441 252,441 252,442 252,442 251,442 251,442 251,441 250,441 250,441 250,441 250,441 249,441 249,442 249,442 247,442 247,442 246,442 246,442 246,442 246,442 246,443 246,443 245,443 244,444 244,444 244,443 243,443 243,443 243,443 243,443 243,443 243,443 242,443 242,444 242,444 242,445 242,445 242,445 241,445 241,445 241,445 241,446 241,446 240,446 240,446 239,447 239,447 239,447 239,447 238,448 238,448 238,449 238,449 238,449 237,449 237,449 237,450 237,450 236,451 236,451 236,451 236,451 236,452 236,452 236,452 236,452 236,453 236,453 236,453 236,453 236,454 235,455 235,456 235,457 234,458 234,459 234,459 234,459 234,459 234,460 235,460 235,460 235,460 235,461 235,461 235,462 236,463 236,463 236,463 236,464 236,464 235,466 235,466 235,467 235,467 235,468 235,469 235,469 235,470 235,470 235,471 235,471 234,472 234,472 236,473 236,473 236,473 237,477 237,478 237,478 238,479 239,479 239,480 240,480 242,485 242,485 242,485 242,485 242,485 242,485 243,486 243,486 243,486 243,486 242,486 242,486 242,487 242,487 239,487 239,487 239,487 239,489 239,489 239,489 240,490 240,490 240,491 238,492 238,492 237,492 234,492 233,492 233,492 233,492 232,492 232,492 231,493 231,493 231,493 230,493 230,493 230,493 229,493 229,493 229,493 229,493 229,493 229,494 226,495 226,495 226,495 223,496 223,496 223,496 223,496 223,496 223,496 222,496 222,496 222,496 220,496 219,496 219,496 218,497 218,497 216,497 215,497 214,497 211,498 211,498 210,498 210,498 209,498 209,498 209,498 208,499 207,499 205,500 205,500 205,500 204,500 202,499 202,499 200,499 200,499 200,499 199,499 198,499 198,499 198,499 198,499 198,499 197,499 195,498 195,498 194,498 193,498 192,498 192,498 186,499 186,499 185,499 185,499 185,499 185,499 185,499 185,499 184,499 184,499 184,499 183,498 182,497 181,497 181,497 180,496 180,495 180,495 179,495 179,494 179,494 179,493 179,492 179,492 179,491 179,491 179,490 179,490 179,490 179,489 179,489 179,489 179,488 179,488 178,488 178,487 178,487 178,487 178,487 178,487 177,486 177,486 177,486 177,485 176,485 176,485 176,484 176,484 175,483 175,483 174,483 173,482 173,482 173,482 172,482 172,482 172,481 171,481 171,481 171,480 171,480 170,480 170,480 170,479 169,479 169,478 169,478 168,479 168,479 168,479 168,479 167,479 167,478 167,478 167,478 164,477 163,476 162,476 161,475 159,475 157,474 155,473 153,473 152,472 152,472 151,472 151,472 150,472 150,472 149,472 149,471 148,471 147,471 147,471 146,471 146,471 146,471 145,471 145,470 144,470 144,470 143,469 143,470 141,470 141,470 139,468 138,467 137,467 136,465 136,465 136,464 134,463 133,462 132,462 131,463 131,465 131,465 131,465 132,466 132,466 132,466 133,467 133,468 133,468 133,469 133,469 135,472 132,472 131,473 129,473 127,474 124,474 122,474 118,474 116,474 113,473 112,473 112,473 111,472 109,472 108,472 107,472 107,471 106,471 104,471 103,470 102,470 101,469 100,468 100,467 99,465 99,464 99,462 99,460 98,458 98,456 98,454 97,452 96,450 96,449 95,448 93,447 92,447 91,447 88,447 87,447 85,447 83,448 82,449 81,448 80,448 80,447 74,441 74,438 74,438 74,438 74,437 74,437 74,437 74,437 73,435 72,434 71,432 72,432 72,432 72,432 73,432 74,432 74,432 74,432 75,432 76,433 76,433 77,433 77,433 77,433 77,433 77,433 76,432 76,432 76,431 76,431 76,431 76,431 76,431 76,431 76,431 76,430 76,430 76,430 76,429 76,428 76,428 76,428 75,428 75,428 74,427 73,427 72,426 72,426 71,426 72,426 74,426 74,426 74,426 75,426 76,426 77,426 77,426 77,427 78,427 78,427 78,426 78,426 79,426 80,425 80,425 80,425 81,425 81,424 81,424 81,423 81,423 81,423 81,422 81,422 81,422 81,422 81,421 81,421 81,421 81,421 81,420 81,420 81,420 81,420 80,419 80,419 80,419 80,418 79,418 79,418 79,418 79,417 79,417 79,417 79,417 79,416 79,416 79,416 79,416 79,416 80,416 80,416 81,416 81,416 83,416 83,416 83,416 83,416 84,416 87,417 88,417 88,416 88,416 89,415 89,414 89,414 89,413 88,412 88,411 87,411 87,411 88,411 87,410 85,407 85,407 85,407 86,406 87,405 87,405 88,405 89,404 89,403 89,402 89,402 89,402 90,402 89,400 90,400 90,399 90,399 90,399 90,398 90,398 88,398 88,398 88,399 88,399 87,399 87,399 86,398 86,398 85,398 84,397 84,397 84,396 83,395 83,395 83,395 83,395 82,394 82,394 82,394 81,393 80,393 80,393 79,393 79,392 79,392 78,392 78,391 78,390 78,390 79,390 81,390 81,390 81,390 81,389 81,389 81,389 82,389 82,389 82,389 83,389 84,389 84,389 84,389 84,389 84,389 85,389 85,389 86,389 86,389 86,389 87,388 87,388 88,388 88,388 88,388 89,388 91,388 91,388 92,388 92,388 92,388 94,389 95,390 95,390 95,391 95,392 95,392 95,393 95,393 95,393 95,393 95,393 95,394 96,394 96,394 96,394 96,395 97,395 97,395 97,395 97,395 97,395 98,396 98,396 99,396 99,396 99,396 100,397 100,397 101,397 101,398 101,398 101,399 102,399 102,399 102,399 102,399 103,399 103,400 104,400 105,400 105,401 106,401 106,401 106,401 106,402 106,402 106,403 106,403 106,403 106,404 106,404 106,405 107,405 107,406 108,406 108,406 109,407 109,407 109,408 109,408 108,410 108,412 108,412 109,411 109,412 110,412 111,412 112,412 112,412 113,413 113,413 114,413 114,413 115,414 115,414 115,414 116,414 116,413 117,413 117,413 117,413 117,413 117,413 117,413 117,412 118,412 118,412 118,412 118,412 118,412 118,412 119,412 119,412 119,412 119,412 119,412 119,412 120,412 120,412 120,411 120,411 120,411 120,411 121,411 121,411 121,411 121,411 121,411 122,411 122,411 122,411 122,411 122,411 122,411 122,411 122,411 123,411 123,411 123,411 123,411 123,410 123,410 123,410 123,410 123,410 123,410 123,410 123,410 124,410 124,410 124,410 124,409 124,409 124,409 124,409 125,409 125,409 125,409 125,409 126,409 126,409 126,409 126,408 126,408 126,408 126,409 127,409 127,409 127,409 127,409 128,409 128,409 129,410 129,410 129,409 129,409 129,409 130,410 130,410 130,410 131,410 132,410 133,412 134,412 134,412 134,412 135,412 135,412 136,412 137,412 137,411 138,411 138,410 138,410 139,410 141,408 140,407 140,407 140,406 140,405 139,404 139,404 139,403 139,402 139,401 140,401 140,401 140,400 139,399 139,399 138,397 136,396 136,396 135,396 135,395 135,395 133,394 133,394 133,393 133,392 133,392 133,391 133,391 133,390 134,390 134,389 134,388 133,387 133,387 133,387 132,387 132,386 132,386 133,386 133,386 134,385 134,385 134,385 134,385 134,385 134,384 134,384 134,383 134,383 134,383 134,382 134,382 133,381 133,380 133,380 132,379 132,379 132,379 133,379 132,379 133,378 132,378 133,378 133,377 133,375 134,375 134,374 134,374 134,373 134,373 134,372 133,372 133,372 133,371 133,371 132,370 132,370 132,369 132,368 132,367 131,367 131,367 131,366 131,366 131,366 131,366 131,365 130,365 130,365 130,365 130,364 130,364 130,364 130,364 130,364 130,364 130,363 130,363 131,363 131,363 131,363 131,363 131,363 131,363 132,363 132,362 132,362 132,362 132,362 133,362 133,362 133,362 133,362 133,361 133,361 133,361 133,361 134,361 134,361 134,361 135,361 135,361 135,360 136,360 136,360 137,360 138,360 138,360 139,359 140,359 141,358 141,358 141,358 141,358 142,358 142,357 143,357 143,357 144,357 144,357 144,357 145,357 146,357 146,356 147,356 148,356 148,356 148,356 148,355 148,355 148,355 148,355 149,355 149,354 149,354 149,354 149,354 149,354 150,354 150,353 150,353 150,353 151,353 151,353 152,353 152,352 152,352 152,352 152,352 152,352 153,352 153,352 153,352 153,352 154,352 154,352 155,352 155,352 155,352 156,352 156,352 156,352 156,352 157,352 157,352 158,352 159,351 159,351 160,351 160,351 160,351 160,351 160,351 160,351 161,351 161,351 161,350 161,350 161,350 161,350 162,349 162,349 163,348 163,348 163,347 164,346 164,346 164,346 165,345 165,345 165,345 166,344 166,344 166,344 166,344 166,344 167,344 168,343 168,343 168,343 168,342 168,342 169,342 169,342 169,342 168,341 167,340 167,340 167,340 166,339 166,338 166,338 166,337 166,336 166,335 166,335 167,334 167,333 168,333 168,332 168,332 168,330 167,330 167,329 166,329 166,328 166,328 166,327 166,326 166,326 166,326 166,326 165,325 165,325 164,325 164,325 164,325 164,324 164,324 164,324 164,323 164,322 164,322 164,321 163,321 163,321 163,321 163,321 162,321 161,320 161,320 159,319 159,318 158,317 157,316 157,316 156,315 154,314 153,313 153,313 152,313 152,313 152,314 152,314 151,314 151,314 151,314 150,314 150,314 150,314 149,315 148,315 148,315 147,316 147,316 146,316 145,316 145,316 145,316 145,316 144,316 144,316 144,316 143,316 143,316 142,316 142,316 142,316 141,316 141,316 140,317 140,317 140,317 140,317 139,317 139,317 139,317 138,317 138,317 137,317 137,317 137,318 136,317 136,317 136,318 135,318 135,318 134,319 134,319 134,319 133,319 133,318 133,318 133,318 133,319 133,319 132,319 132,319 132,319 132,319 129,318 129,317 128,317 128,316 127,317 127,316 127,316 126,317 126,317 126,317 124,317 124,317 124,317 123,317 123,316 123,316 123,316 123,316 123,316 123,316 123,315 122,315 122,315 122,315 122,314 122,314 121,314 121,314 121,314 121,313 121,313 121,313 121,313 120,313 120,312 120,312 120,312 120,312 120,312 120,311 119,310 119,310 119,310 118,310 118,310 116,310 117,309 115,309 115,309 115,309 113,309 112,309 112,309 110,309 109,309 109,309 109,309 109,309 109,308 109,308 108,308 108,308 108,308 108,308 108,308 107,308 107,308 107,308 106,309 106,309 106,310 105,310 104,310 103,309 100,308 99,308 98,307 95,307 94,306 91,305 90,305 90,305 90,305 89,304 89,304 89,304 88,303 88,303 88,303 87,302 86,302 86,302 85,302 84,302 83,302 83,302 82,302 82,302 81,302 81,301 81,301 80,301 80,300 80,299 80,299 80,299 80,298 80,298 79,297 79,297 78,297 78,297 77,298 77,298 76,298 76,298 72,298 71,297 70,298 70,298 69,298 69,298 68,298 68,298 67,298 67,297 66,297 66,297 65,296 65,295 64,295 63,294 62,293 62,293 61,292 60,292 59,291 59,291 59,290 58,290 58,289 57,289 57,288 57,288 57,288 57,287 57,287 56,287 56,287 55,286 55,286 55,286 55,286 55,286 54,285 53,285 54,285 55,285 55,285 56,284 56,284 57,284 57,284 58,284 59,283 59,283 59,283 60,282 60,282 61,282 62,281 62,281 63,279 63,278 64,277 64,276 64,276 64,276 64,276 64,272 64,273 64,273 60,272 60,272 60,271 60,270 60,269 60,268 60,268 59,268 55,269 56,268 56,268 56,268 55,268 55,268 54,268 52,268 51,268 50,268 49,267 48,267 47,267 47,266 46,266 46,266 45,267 45,267 45,267 44,268 44,268 43,268 43,268 43,268 43,269 42,269 42,269 41,269 40,270 39,270 38,270 38,270 37,270 37,270 36,270 35,269 34,269 34,269 33,268 32,268 32,268 32,268 30,268 30,268 29,269 29,269 27,269 27,269 27,269 25,269 24,269 23,268 23,268 22,268 22,268 21,267 21,267 20,266 19,266 18,265 18,265 18,265 17,264 16,263 16,262 15,262 15,260 15,260 14,260 14,259 13,258 13,258 12,257 12,256 12,255 12,255 12,255 11,254 11,253 14,253 13,252 14,252 15,252 16,252 16,252 16,252 16,251 15,249 15,249 15,247 15,247 15,247 16,246 16,246 15,245 15,245 15,244 15,244 15,244 15,243 16,243 15,243 15,242 15,242 15,241 15,239 14,238 14,237 14,236 13,236 13,235 13,234 11,234 11,234 12,234 12,233 12,232 12,229 13,226 13,225 13,224 13,224 14,221 15,219 15,218 17,216 18,215 18,213 18,213 19,213 19,214 30,215 30,215 30,215 30,215 33,215 34,215 34,215 35,215 35,215 36,215 36,215 38,215 38,215 38,214 38,214 38,213 38,213 39,212 39,210 40,208 38,208 36,207 35,207 35,207 34,207 33,207 33,206 34,206 34,206 33,205 33,204 33,204 33,203 32,203 32,203 31,203 30,202 29,202 29,201 29,202 30,199 31,198 30,198 30,199 29,199 28,199 27,198 28,197 28,197 29,197 29,197 30,197 30,196 30,195 28,194 28,193 28,193 28,193 31,191 32,191 32,191 32,191 33,190 33,189 34,188 36,187 36,186 36,186 36,186 36,186 36,185 36,185 37,184 37,184 37,184 38,183 38,182 38,181 38,181 38,180 38,180 38,180 39,179 40,179 40,179 41,178 42,178 42,176 43,177 43,177 43,177 44,178 46,179 47,180 47,180 47,180 47,180 48,181 48,181 48,181 49,182 50,182 50,183 50,183 50,183 50,183 51,183 52,184 53,184 53,184 53,184 54,183 55,183 56,183 56,182 57,182 58,182 59,181 60,181 61,180 61,180 62,180 62,178 63,178 63,179 64,178 63,178 64,178 64,178 64,177 65,177 65,177 65,177 66,176 65,176 66,175 66,174 66,174 66,173 66,173 67,172 67,171 67,171 67,171 68,170 68,170 68,170 68,169 69,170 70,169 72,170 74,170 74,170 76,170 76,170 77,170 78,170 78,171 79,171 79,171 78,172 78,172 77,174 77,175 76,177 76,178 76,178 76,179 76,180 76,180 77,181 77,181 77,182 77,183 77,183 78,185 78,185 79,185 79,186 81,187 81,187 81,188 82,188 82,189 82,189 82,189 82,189 83,189 83,188 83,188 83,187 82,187 82,186 83,186 84,186 83,184 89,182 90,182 90,182 91,182 91,182 91,181 91,181 91,181 91,181 91,181 91,180 92,180 93,179 92,179 93,178 92,178 93,177 93,177 93,177 93,177 93,176 93,176 94,176 94,175 97,175 97,175 97,175 97,175 97,175 98,175 98,175 99,175 99,175 102,171 103,170 103,171 103,171 104,171 105,172 106,172 106,173 106,173 107,173 108,174 108,174 109,174 110,174 110,174 111,175 113,176 113,176 114,176 114,176 116,176 117,176 118,176 118,176 119,176 120,176 120,176 121,176 121,176 122,176 123,176 124,176 125,176 125,176 126,176 127,176 128,175 129,175 130,175 130,175 132,172 133,172 134,172 135,171 135,171 133,170 134,169 134,170 134,170 135,169 135,168 134,168 134,168 135,168 135,168 135,167 135,167 135,167 135,167 135,165 135,164 135,164 133,165 133,165 132,164 131,164 132,163 132,163 132,163 132,163 132,162 132,161 132,159 132,157 133,157 132,156 132,155 132,155 132,154 132,154 132,153 132,153 132,152 132,151 132,151 132,151 132,150 132,150 132,150 131,150 132,148 133,147 133,146 133,146 134,145 134,145 133,144 132,143 132,142 132,142 132,142 131,142 131,141 131,141 131,141 130,140 130,140 130,140 130,139 128,138 127,138 127,137 127,137 127,137 127,137 126,137 125,136 124,135 123,134 123,134 122,134 121,133 121,133 118,133 118,133 116,132 115,133 115,132 114,133 114,133 114,133 114,133 113,132 113,132 113,132 113,132 113,132 112,131 112,131 112,131 113,130 113,130 113,130 113,129 112,129 112,129 112,129 112,128 113,128 113,128 113,128 113,128 113,128 113,128 114,127 114,127 113,127 113,127 113,127 112,128 111,129 111,129 110,129 108,129 108,129 107,129 106,130 105,130 104,131 104,131 102,131 102,131 101,131 102,130 102,130 102,130 102,129 102,128 98,121 96,121 96,121 96,121 95,121 94,121 94,120 93,120 93,120 93,120 93,120 92,119 92,119 92,118 91,118 86,115 85,115 86,114 88,113 88,112 88,111 85,109 83,108 81,108 81,107 81,107 80,107 79,107 79,107 77,107 77,107 75,106 75,106 74,106 74,106 73,106 73,107 72,107 71,107 71,107 71,107 70,107 70,107 70,107 70,107 69,107 69,107 69,107 69,107 68,107 68,106 67,106 67,106 66,106 64,105 65,104 65,104 65,104 63,105 62,105 61,105 60,105 60,105 59,105 58,105 56,104 55,104 55,104 52,104 51,104 50,104 48,103 47,103 46,102 46,102 44,101 44,100 43,100 42,100 41,100 38,100 38,100 37,100 35,100 34,100 33,100 33,100 32,97 31,96 30,96 28,97 26,97 25,97 23,96 22,96 16,92 12,91 9,91 4,89 2,88 0,88 2,77 3,76 5,74 11,67 15,63 19,58 22,55 25,55 28,55 29,55 30,55 30,54 28,53 29,52 29,50 29,49 29,48 30,48 30,47 31,47 32,46 32,46 32,46 33,45" id="2420" class="canton" fill="steelblue" stroke-width="1" stroke="white" geotype="canton" geoname="Terrasson-Lavilledieu" code_insee="2420" code_departement="24" nom_departement="Dordogne" code_region="75" nom_region="Nouvelle-Aquitaine"/></svg>