<?xml version="1.0" encoding="utf-8"?>
<svg version="1.1" id="svgmap" xmlns="http://www.w3.org/2000/svg" xmlns:xlink="http://www.w3.org/1999/xlink" x="0px" y="0px" width="100%" height="100%" viewBox="0 0 500 266">
<polygon points="0,113 1,112 2,111 3,110 7,109 7,109 7,108 8,108 8,108 8,108 10,108 10,108 11,108 12,108 13,109 14,109 17,109 18,109 18,109 19,109 19,109 19,109 20,109 20,110 21,110 21,110 21,111 21,111 21,111 23,112 23,112 23,112 24,114 25,114 25,115 26,115 26,115 26,115 26,115 26,116 28,118 28,118 28,118 29,118 30,119 30,119 30,119 31,120 32,120 33,120 36,121 36,121 36,121 36,120 36,120 36,120 36,120 36,119 37,118 37,117 37,117 37,116 37,115 37,115 38,115 38,114 38,114 38,114 42,111 43,110 44,109 44,109 44,109 45,107 46,107 46,107 48,105 49,105 49,104 49,104 49,102 49,99 49,97 49,97 49,97 49,97 49,97 49,97 50,96 50,96 51,95 51,95 51,95 49,93 49,93 50,93 50,93 51,93 52,93 52,92 52,92 54,92 54,92 55,92 55,91 56,91 56,91 56,91 56,91 57,90 57,90 58,90 58,90 58,90 58,89 57,90 56,90 55,90 55,90 53,90 52,90 52,89 51,89 49,89 48,89 48,89 46,89 44,88 44,88 42,88 42,88 42,88 40,88 40,88 40,88 40,88 38,87 37,86 35,86 33,85 32,85 31,84 31,84 30,84 30,84 29,83 29,83 28,83 27,82 27,82 26,82 25,81 25,81 24,80 24,80 23,79 23,79 23,79 23,79 23,78 23,78 23,78 23,78 23,78 23,78 22,77 22,77 22,77 21,77 20,77 18,76 18,76 18,76 17,76 17,76 17,75 17,75 18,75 18,74 18,74 19,73 19,73 20,72 20,72 20,72 20,72 22,71 22,71 23,70 23,70 26,70 30,68 32,68 32,68 33,69 33,69 33,69 35,68 35,68 36,67 36,67 37,66 38,66 38,65 38,65 38,64 38,64 38,64 38,64 38,64 38,62 39,62 39,61 39,60 39,60 40,59 41,58 42,55 42,55 42,55 43,54 43,53 44,53 44,53 45,52 45,52 46,51 47,51 48,50 48,50 48,50 49,51 49,51 49,51 50,52 50,52 51,52 52,53 52,53 54,54 54,55 55,55 55,55 55,55 55,55 56,56 56,56 56,57 56,57 56,57 56,57 56,58 55,59 55,59 55,59 59,58 60,58 60,58 64,57 64,57 67,58 67,58 69,58 69,58 71,58 74,57 75,57 75,56 75,56 75,56 76,56 76,55 76,54 76,54 76,54 76,54 76,54 76,54 77,54 73,44 73,44 75,41 75,41 75,41 75,40 75,40 75,40 75,40 75,39 76,38 76,38 76,37 77,36 77,36 77,36 77,35 77,35 78,35 78,35 78,35 78,35 78,34 78,33 78,33 78,33 78,31 78,31 78,31 79,31 79,31 79,30 79,30 79,30 80,30 80,31 80,31 82,32 82,32 83,32 83,32 83,32 83,32 84,32 84,32 85,32 86,32 87,32 88,32 89,32 89,32 89,32 89,32 90,32 90,32 93,31 93,31 93,30 93,30 94,31 95,31 97,32 97,32 97,32 98,30 99,30 100,29 100,29 101,30 103,30 104,29 104,29 107,29 109,25 109,25 109,24 108,23 108,22 108,19 110,20 114,21 116,21 120,21 119,19 120,18 122,17 124,16 123,16 125,16 126,16 127,16 127,15 128,15 129,15 131,15 132,14 132,13 133,11 133,11 133,10 134,9 135,8 136,8 136,7 137,6 137,5 138,5 139,5 140,4 142,4 143,4 143,4 145,3 144,2 143,2 143,1 144,1 144,2 145,2 146,3 146,3 147,4 148,5 149,6 149,6 150,7 151,8 153,8 154,8 154,9 155,9 156,10 156,10 156,11 156,11 156,11 156,11 156,12 157,12 157,13 157,13 157,13 158,14 158,15 159,15 159,16 160,16 161,17 162,17 162,18 163,18 164,18 165,18 165,18 167,19 168,19 169,18 170,17 173,14 175,13 176,12 177,12 178,11 178,10 179,9 179,9 180,8 180,8 182,6 183,5 184,5 185,5 185,4 184,4 184,4 184,4 185,3 185,3 186,2 186,0 186,0 187,0 187,1 187,1 188,2 190,3 191,5 192,7 193,8 193,9 194,10 195,12 196,13 196,13 197,14 198,15 198,15 199,15 200,16 200,16 201,17 202,18 203,19 204,19 205,18 207,18 208,17 209,16 209,16 210,15 210,15 211,15 211,15 212,14 212,13 214,12 215,11 216,10 217,9 218,9 219,9 220,8 221,8 222,8 223,8 224,9 225,9 226,9 228,10 229,10 229,11 230,12 230,12 231,13 232,13 232,13 233,14 233,14 234,14 234,13 234,13 234,13 235,14 235,14 235,14 236,15 236,15 237,15 238,15 238,15 239,15 240,15 240,16 241,16 241,16 241,16 241,16 242,16 243,17 244,17 245,17 245,18 245,18 246,18 246,19 246,18 247,17 247,17 249,16 249,16 249,16 250,15 250,15 251,14 251,14 251,14 253,16 253,16 254,17 254,16 256,17 257,17 258,18 259,18 262,19 265,20 266,20 270,22 275,26 277,27 278,28 278,28 278,28 277,29 276,30 276,30 275,30 275,31 275,31 275,31 274,31 274,32 276,33 276,33 277,33 277,33 278,34 278,35 279,35 279,36 280,38 280,39 280,39 281,40 281,40 288,39 290,39 290,40 291,41 291,41 291,42 291,42 292,43 292,43 292,44 293,44 294,44 295,45 297,45 298,46 300,46 301,46 302,46 303,46 304,46 304,47 305,47 306,48 307,49 307,49 308,50 308,50 306,53 302,57 303,57 305,58 306,59 308,60 309,60 310,61 310,61 312,62 313,63 315,64 318,65 319,65 320,65 319,66 316,73 315,75 315,76 313,77 313,78 313,78 312,78 310,80 309,81 309,82 308,83 308,84 307,86 306,87 305,88 304,89 302,94 301,95 301,95 303,96 305,97 306,97 307,96 308,96 309,96 309,96 312,98 314,99 315,100 315,100 316,100 317,100 318,100 319,101 320,101 321,101 323,101 324,102 325,102 326,102 327,102 328,103 328,103 330,103 331,103 332,103 334,103 335,103 342,106 348,109 347,110 346,111 351,116 355,120 356,119 358,118 359,118 360,117 361,115 363,113 368,110 368,110 371,114 371,114 371,115 371,115 371,115 371,116 372,116 372,117 373,117 373,117 373,117 374,117 375,118 375,118 376,118 377,117 377,117 378,117 379,118 379,118 379,117 380,117 382,115 383,115 383,115 384,115 386,115 388,114 389,114 390,114 391,114 393,115 394,115 396,115 397,114 398,114 399,113 401,113 402,113 402,113 403,114 404,115 404,115 405,115 405,115 405,114 406,114 407,113 409,112 410,112 411,112 412,112 412,112 415,112 415,112 417,111 418,111 418,111 419,111 421,110 421,110 422,111 423,111 424,111 425,111 425,111 425,111 425,111 426,111 426,110 427,110 427,109 427,109 428,109 429,108 429,108 430,109 432,109 434,110 436,110 437,111 437,111 438,111 439,111 441,111 442,111 443,110 444,110 445,110 446,111 448,111 448,112 448,113 449,113 450,113 451,113 451,113 452,112 453,112 453,112 454,112 454,112 455,112 456,112 457,113 457,113 459,113 459,113 461,112 462,112 463,111 464,111 464,111 464,110 464,110 466,111 467,111 468,112 468,113 468,113 469,114 470,115 470,115 470,117 472,118 473,120 473,120 474,121 475,122 475,122 475,122 475,122 476,123 477,123 479,126 479,126 480,127 480,128 480,128 480,129 480,130 481,130 481,132 480,133 480,134 480,135 480,135 479,136 479,137 479,137 479,138 479,138 479,138 479,139 479,138 480,138 481,138 481,138 482,137 482,137 483,137 484,136 484,136 485,136 485,135 485,136 486,136 486,136 486,137 487,137 487,138 487,138 487,145 487,145 487,145 487,146 487,146 488,148 488,149 488,150 489,152 489,153 489,154 489,154 489,156 489,157 489,158 489,158 489,159 489,159 488,159 488,160 488,160 487,161 487,162 487,162 488,162 488,163 488,163 488,164 488,164 488,165 488,165 488,166 488,167 488,168 488,168 488,168 488,169 488,169 488,169 489,170 489,171 490,171 491,172 492,174 492,174 492,175 493,176 493,178 493,178 494,180 494,180 495,181 496,182 497,182 497,183 498,183 498,184 498,184 498,184 498,184 499,185 500,185 500,185 500,185 499,185 500,187 499,187 499,188 499,188 499,189 499,189 499,189 499,190 498,191 498,191 497,192 497,192 497,192 496,192 495,193 494,194 493,194 493,194 493,195 493,195 492,196 491,196 490,197 490,197 489,198 489,198 488,198 488,199 487,199 487,200 486,200 486,201 486,201 485,201 485,202 485,202 484,202 484,202 484,202 482,202 482,202 481,202 481,202 481,202 480,203 479,203 478,204 478,204 478,204 477,204 476,204 476,204 476,204 476,204 474,204 474,204 474,204 473,204 472,204 472,204 470,205 469,205 469,205 469,205 465,207 464,208 464,208 462,209 462,210 462,210 461,212 460,213 459,214 458,214 458,215 458,215 457,215 457,215 456,216 456,216 455,216 453,217 452,218 451,218 450,218 449,219 449,220 448,221 446,223 445,224 445,224 444,224 444,225 440,226 439,226 438,226 438,227 436,228 436,228 435,228 434,229 433,229 432,230 430,230 429,230 430,231 428,231 426,231 423,232 420,232 419,232 417,234 414,234 412,235 413,236 413,236 412,237 411,237 411,237 410,237 409,238 407,238 407,239 406,239 405,240 405,240 405,240 405,240 405,241 404,241 403,241 402,242 401,241 400,241 398,241 397,240 395,240 393,239 392,238 390,238 387,238 384,238 378,237 374,237 373,236 372,236 371,235 368,233 368,233 368,232 368,231 367,230 367,228 366,228 365,227 365,227 364,226 361,225 361,225 360,224 360,223 360,222 360,221 360,220 360,219 359,219 358,219 357,219 357,219 356,219 355,219 352,220 352,220 352,220 351,220 348,219 348,219 348,219 348,219 347,219 346,219 345,219 342,220 342,220 341,220 341,220 339,222 338,222 338,222 336,223 335,224 334,224 333,225 332,226 331,227 330,228 329,229 329,230 328,231 328,233 328,233 327,235 327,237 327,239 328,239 328,241 328,242 328,243 328,244 327,244 327,245 327,245 326,245 326,246 323,246 322,246 320,247 317,248 316,248 316,248 315,248 313,248 312,249 312,249 311,249 310,249 310,249 309,249 308,249 307,250 306,250 305,250 305,250 303,250 302,251 299,251 297,251 294,252 294,252 292,252 290,252 289,252 287,252 287,252 282,252 281,251 280,251 279,251 278,251 276,251 274,250 274,250 273,250 272,250 271,250 271,250 270,250 269,250 269,250 269,250 268,250 267,250 267,250 265,251 265,251 263,252 261,252 260,252 260,252 257,254 256,254 255,254 253,255 251,255 250,256 248,258 247,258 247,259 244,260 242,261 241,261 241,261 237,264 235,265 233,266 233,266 231,266 230,266 229,266 228,265 227,265 226,265 225,264 224,263 223,263 223,262 223,262 222,261 221,260 221,260 220,259 220,259 219,258 216,256 215,256 214,256 213,255 211,255 211,255 210,255 208,254 207,255 205,255 204,255 202,255 201,255 201,254 199,254 198,254 196,253 193,253 191,253 190,253 189,253 189,252 189,252 189,252 189,252 189,252 189,251 189,251 189,251 189,251 189,252 189,252 188,252 188,252 188,252 188,252 188,252 188,252 187,252 187,252 187,252 187,252 187,252 187,252 187,252 187,253 187,253 186,253 186,253 186,253 185,253 185,254 185,254 185,254 185,253 185,253 185,253 184,253 184,253 184,253 184,253 184,253 183,253 183,253 183,253 183,253 182,253 181,253 181,253 181,252 181,252 181,251 180,250 180,250 180,250 180,250 181,250 182,249 193,247 188,241 189,241 189,241 190,240 195,239 197,238 198,238 199,237 200,237 201,237 201,237 199,232 199,232 198,232 196,232 195,232 194,232 194,232 193,232 192,231 192,232 191,232 189,232 187,232 185,232 184,232 182,233 181,233 180,233 180,233 179,233 178,234 176,236 175,236 175,236 174,237 174,237 174,237 174,237 174,237 174,236 173,236 170,235 167,235 167,235 167,234 167,234 167,234 166,234 164,234 164,234 164,234 163,235 163,235 159,233 158,234 159,233 159,232 160,232 160,232 160,231 160,230 160,229 159,229 159,229 159,228 159,228 159,228 160,228 160,228 160,228 160,228 160,228 159,227 159,228 159,228 159,227 158,227 158,226 156,225 156,225 156,225 155,223 155,223 155,223 155,222 156,221 156,220 157,219 156,219 154,218 153,217 151,216 151,216 152,216 153,215 153,215 151,215 148,215 147,214 144,214 144,214 144,214 143,215 141,216 140,216 140,216 138,217 137,218 137,218 136,218 135,218 135,219 134,221 133,223 132,222 131,222 131,222 130,222 130,222 128,221 127,221 127,220 127,220 127,220 126,221 126,221 126,221 126,221 126,221 125,221 125,221 124,221 124,220 123,220 123,220 121,219 121,219 121,219 119,218 120,216 120,215 120,214 121,214 121,212 121,210 121,209 121,209 117,207 109,203 109,203 108,206 108,207 108,208 103,210 103,210 103,209 102,209 102,209 102,209 102,208 102,208 101,207 101,207 101,207 100,206 100,205 99,205 98,204 98,204 98,204 97,203 97,202 96,201 95,201 95,200 95,200 95,199 94,199 97,197 100,197 100,194 98,193 96,192 94,189 91,185 88,185 88,185 87,185 86,185 86,184 85,184 85,183 84,183 84,182 85,181 84,181 82,180 83,179 82,178 84,175 85,174 86,174 86,174 87,173 86,172 84,170 84,170 83,170 83,170 83,171 83,171 82,171 82,171 82,171 82,171 81,171 79,172 78,172 78,172 78,172 78,172 77,172 76,171 76,171 75,171 75,171 75,171 74,171 74,171 75,170 78,169 77,167 78,167 77,165 73,165 65,164 65,165 64,164 58,160 57,161 50,159 50,159 50,160 51,161 51,161 50,161 50,161 50,161 50,162 50,162 50,162 49,163 49,164 49,164 49,164 47,165 46,164 44,164 43,164 42,165 36,166 36,166 36,165 36,165 35,165 35,165 35,165 35,164 35,164 35,164 35,164 35,164 35,164 35,164 35,164 35,164 35,164 35,164 35,163 35,163 35,162 34,161 34,160 34,160 34,159 33,158 32,157 32,157 32,157 32,157 31,155 30,155 30,155 30,155 29,154 29,155 29,154 29,154 28,153 28,152 28,152 27,151 26,150 26,149 26,149 26,148 25,147 25,147 25,146 25,146 25,145 25,144 25,144 25,144 25,144 24,144 24,144 23,141 22,141 22,141 22,141 22,140 22,140 22,140 21,139 20,139 19,137 19,137 19,137 18,136 18,135 18,135 18,134 17,133 16,131 15,130 14,129 13,128 12,127 11,126 10,125 10,125 9,125 9,125 8,124 7,124 7,123 6,123 6,122 5,122 5,122 5,121 5,120 4,118 4,117 3,116 2,115 1,114 0,113 0,113" id="2422" class="canton" fill="steelblue" stroke-width="1" stroke="white" geotype="canton" geoname="Trélissac" code_insee="2422" code_departement="24" nom_departement="Dordogne" code_region="75" nom_region="Nouvelle-Aquitaine"/></svg>