<?xml version="1.0" encoding="utf-8"?>
<svg version="1.1" id="svgmap" xmlns="http://www.w3.org/2000/svg" xmlns:xlink="http://www.w3.org/1999/xlink" x="0px" y="0px" width="100%" height="100%" viewBox="0 0 500 331">
<polygon points="0,114 4,100 4,92 12,93 21,93 35,91 41,90 41,91 42,91 44,92 44,92 45,91 44,91 44,91 45,91 46,90 48,91 54,91 54,91 55,91 55,92 59,92 62,93 65,93 67,93 69,93 69,97 75,97 76,97 77,97 77,98 78,98 79,98 82,97 83,96 84,96 85,96 85,96 92,91 93,91 94,91 101,100 101,100 104,99 106,98 107,98 108,98 111,97 116,95 117,95 118,94 119,93 121,91 123,91 124,90 124,90 124,90 125,90 125,90 127,90 127,90 128,90 129,90 133,92 134,93 135,93 139,92 139,92 140,92 142,92 142,91 143,88 143,82 143,79 144,77 144,75 145,74 147,74 154,73 154,73 156,73 155,72 155,72 158,72 163,72 173,72 173,72 176,71 179,70 180,70 185,69 185,69 185,69 189,62 199,65 207,69 218,74 218,74 226,75 226,75 226,77 224,95 222,108 226,108 231,105 236,104 241,103 242,102 246,101 248,101 252,100 261,98 263,98 264,98 268,98 270,98 273,98 275,98 280,100 280,94 281,91 281,91 281,88 286,88 290,88 291,88 293,89 294,89 296,89 297,89 298,89 300,88 309,87 310,87 312,87 318,85 322,84 323,84 324,84 326,82 329,80 331,79 330,72 330,71 350,39 350,38 347,37 342,33 341,33 342,33 346,30 353,27 354,27 360,26 366,24 367,24 376,22 377,22 379,21 384,11 385,9 386,6 386,6 385,6 383,5 382,5 382,5 382,5 381,4 379,3 379,2 379,2 378,2 378,2 381,0 381,0 382,0 382,0 382,1 382,1 382,2 383,2 383,3 383,3 384,3 385,3 385,3 386,3 387,3 387,3 396,7 397,7 397,7 406,9 408,9 408,9 416,6 420,4 421,3 423,5 428,7 429,7 435,7 439,5 445,4 449,7 452,9 458,9 461,11 469,16 477,23 485,23 485,24 488,29 489,30 490,32 493,34 496,36 500,39 496,45 492,49 486,52 487,53 487,54 486,55 486,67 485,75 489,76 489,78 491,78 495,90 495,91 494,99 494,99 496,108 498,111 498,114 497,114 495,113 493,109 492,109 489,108 485,109 480,110 480,116 477,115 474,111 466,111 460,113 458,113 454,114 453,114 453,114 453,113 452,112 451,110 450,109 450,108 450,106 450,105 453,100 453,99 453,99 453,97 453,96 452,96 451,92 451,91 451,90 451,89 450,89 450,88 450,87 451,87 451,86 450,87 450,84 450,84 451,82 450,80 450,78 443,79 439,74 437,66 430,67 428,67 425,68 422,69 422,70 420,69 417,67 415,66 417,73 416,73 413,74 403,76 401,74 404,73 404,73 395,73 393,74 393,72 391,73 389,73 388,74 386,75 382,77 380,79 379,79 379,79 378,79 376,80 367,82 365,83 364,82 363,81 363,81 360,80 359,80 357,80 356,81 351,81 349,81 352,82 353,82 354,83 356,84 357,84 362,84 364,84 364,84 364,84 365,84 366,84 367,84 368,84 369,85 370,86 369,86 368,86 365,86 363,87 364,90 365,90 367,92 369,95 370,99 371,99 371,102 372,102 372,107 373,108 373,112 374,116 376,120 377,121 377,122 379,123 379,124 379,124 381,126 385,131 387,134 387,136 392,136 397,136 395,139 395,141 392,141 389,141 389,141 388,141 386,141 386,141 386,142 386,143 385,143 379,144 380,147 378,147 375,149 374,148 373,148 373,147 365,151 366,152 368,153 362,156 362,156 363,156 364,156 365,156 364,156 366,157 370,159 373,160 381,162 380,164 384,169 385,168 386,168 390,169 393,169 394,169 395,169 399,170 400,170 404,170 406,171 407,174 413,174 416,175 408,179 409,190 418,191 419,196 421,197 424,199 428,200 430,200 432,200 433,200 434,201 435,201 437,203 439,204 442,209 444,211 444,212 445,216 443,219 443,221 443,223 444,225 445,226 448,228 450,230 451,233 451,235 450,237 455,237 452,240 448,240 441,242 433,243 422,243 415,242 413,241 408,241 401,240 394,241 384,241 380,241 379,241 373,242 366,242 365,246 358,250 357,250 356,251 354,251 350,253 346,254 345,254 344,255 343,256 341,257 340,259 340,260 340,261 341,265 342,270 340,272 332,278 336,283 337,283 338,284 340,286 341,286 344,288 345,289 343,296 341,297 339,300 336,303 334,306 333,307 333,308 333,310 334,311 336,312 332,313 327,315 325,315 322,315 319,315 317,315 315,316 312,316 307,315 303,315 299,315 297,315 295,315 294,316 290,316 283,317 279,318 278,319 275,320 268,324 262,326 259,329 259,329 258,330 257,330 254,331 254,331 252,331 251,329 248,327 245,326 242,326 239,324 238,323 238,322 236,321 233,320 229,319 227,316 227,314 227,312 227,310 227,308 228,307 224,307 227,302 227,302 230,299 234,295 228,292 227,291 228,287 230,281 237,274 238,269 233,267 228,264 220,266 219,267 215,266 213,265 210,263 205,263 203,267 203,267 203,267 203,265 203,264 203,264 203,264 203,264 202,263 202,262 202,262 201,260 200,260 200,259 200,259 199,255 199,255 198,253 197,252 197,252 194,245 189,246 189,245 188,242 187,241 187,241 183,233 182,233 184,229 184,229 184,227 185,221 182,220 183,220 178,220 175,221 172,221 172,221 166,222 164,214 164,214 160,202 160,201 159,201 159,201 158,201 157,200 157,200 157,199 157,199 156,198 154,198 154,198 153,198 151,196 149,196 150,193 150,190 150,189 151,187 151,185 151,184 151,182 151,181 150,181 150,180 149,178 149,178 147,178 147,177 146,176 141,170 139,167 137,161 134,152 133,148 133,144 133,143 131,137 131,134 131,133 131,132 131,131 132,130 135,126 135,126 136,125 136,123 135,122 134,122 133,121 129,119 127,118 125,117 121,117 112,117 101,116 94,117 86,118 84,118 66,121 59,121 57,122 53,121 35,118 33,118 31,117 22,114 20,113 18,113 16,112 13,111 11,111 7,112 4,112 0,114" id="2501" class="canton" fill="steelblue" stroke-width="1" stroke="white" geotype="canton" geoname="Audincourt" code_insee="2501" code_departement="25" nom_departement="Doubs" code_region="27" nom_region="Bourgogne-Franche-Comté"/></svg>