<?xml version="1.0" encoding="utf-8"?>
<svg version="1.1" id="svgmap" xmlns="http://www.w3.org/2000/svg" xmlns:xlink="http://www.w3.org/1999/xlink" x="0px" y="0px" width="100%" height="100%" viewBox="0 0 500 260">
<polygon points="0,91 1,89 2,90 3,89 7,87 5,80 13,76 17,67 30,64 41,57 42,55 47,51 53,49 59,47 62,41 66,30 68,23 68,15 70,8 71,2 83,1 91,0 92,0 97,9 103,20 107,23 110,26 114,32 117,39 118,40 122,48 122,49 124,51 130,51 154,55 173,56 180,55 193,51 196,50 197,50 198,50 207,52 212,52 217,53 231,51 243,51 256,51 260,51 262,51 269,52 272,52 275,52 278,52 278,47 285,46 296,43 296,42 298,42 302,42 302,41 306,41 310,42 314,42 316,42 319,41 320,41 323,39 323,39 329,32 330,33 331,32 334,34 345,31 356,26 359,27 362,28 368,33 371,37 378,44 383,43 391,44 397,45 401,45 407,45 411,45 415,45 419,45 422,48 430,51 432,52 432,52 434,57 436,62 437,64 436,67 437,71 437,72 438,73 438,74 438,74 439,75 439,75 440,76 441,77 443,77 446,79 448,80 449,80 449,81 450,81 451,82 452,84 454,86 455,88 456,90 456,90 457,92 460,93 461,94 462,95 464,97 466,101 466,102 468,105 468,106 468,107 468,108 470,109 470,110 471,109 470,111 470,111 469,112 469,112 468,113 468,113 468,113 468,114 467,115 468,115 467,116 465,117 465,116 464,116 462,117 460,118 458,120 458,121 457,122 456,123 451,124 448,124 446,124 444,124 441,124 438,124 439,127 439,128 443,128 444,128 450,129 450,129 455,129 464,131 471,132 469,136 476,136 477,136 477,139 478,144 481,146 484,147 489,148 500,148 499,150 495,152 487,155 487,154 484,155 475,153 475,153 474,152 465,149 464,149 463,149 462,148 462,148 461,148 460,148 460,148 460,148 459,148 459,147 459,146 459,146 458,146 458,145 458,145 455,147 454,148 455,148 456,148 456,148 458,150 458,151 459,151 459,151 460,151 462,151 463,152 463,152 462,155 461,157 456,167 454,169 453,169 443,171 442,171 435,173 429,174 428,174 421,178 416,180 416,181 416,181 422,185 425,185 425,186 404,221 403,222 405,229 403,230 400,232 397,234 396,234 395,235 391,236 384,237 383,238 381,238 372,239 369,240 369,240 367,240 366,240 364,239 362,239 361,239 357,239 352,239 352,242 352,242 351,246 351,251 345,250 344,250 340,249 338,249 334,249 333,249 331,249 321,251 317,252 315,253 310,254 309,254 304,256 298,257 294,260 290,260 291,246 293,227 294,225 293,225 285,224 285,224 273,218 264,214 254,211 250,218 250,218 250,219 245,220 244,220 241,221 237,222 237,222 226,222 221,222 219,222 218,222 219,223 217,223 217,223 210,223 207,224 207,225 206,227 206,229 206,232 205,239 205,242 205,243 203,243 202,243 201,243 197,244 196,244 195,243 190,241 190,241 188,241 188,241 186,241 186,241 186,241 186,241 185,241 184,242 183,242 180,244 179,245 178,246 177,246 171,248 169,249 167,250 167,250 164,250 161,251 161,251 153,242 152,242 151,239 145,236 143,228 143,228 143,227 142,211 142,210 142,209 141,208 141,208 139,204 139,203 138,201 135,196 134,196 138,192 138,192 151,188 136,184 133,180 133,179 127,167 127,167 127,166 128,163 128,162 129,162 129,162 129,161 129,161 129,160 129,159 131,155 131,155 131,151 131,150 131,150 130,150 130,150 130,149 131,149 131,149 130,149 130,148 130,148 130,147 130,147 130,146 130,146 130,146 130,146 130,145 130,145 129,145 129,144 130,144 130,144 130,144 129,143 129,143 129,142 129,141 129,141 128,140 127,140 120,133 119,131 111,122 102,113 101,111 99,109 96,107 93,111 88,116 87,116 87,116 87,116 87,116 85,111 85,111 84,110 83,108 83,109 82,108 79,109 77,109 77,109 75,110 74,110 72,110 71,111 72,111 70,112 70,112 66,117 66,117 66,117 66,118 66,118 66,118 66,121 66,122 66,125 68,127 82,135 84,136 83,138 79,141 78,142 78,142 76,143 75,144 75,145 74,146 74,146 73,146 70,145 70,145 69,145 64,144 63,142 58,143 58,143 59,141 58,141 52,140 45,139 39,138 39,138 38,138 38,138 37,138 36,136 36,136 36,135 36,135 35,134 34,133 33,133 31,130 30,130 29,129 25,127 19,122 19,121 17,118 13,114 13,112 13,107 13,106 12,104 9,101 9,100 6,97 6,96 2,92 0,91" id="2510" class="canton" fill="steelblue" stroke-width="1" stroke="white" geotype="canton" geoname="Bethoncourt" code_insee="2510" code_departement="25" nom_departement="Doubs" code_region="27" nom_region="Bourgogne-Franche-Comté"/></svg>