<?xml version="1.0" encoding="utf-8"?>
<svg version="1.1" id="svgmap" xmlns="http://www.w3.org/2000/svg" xmlns:xlink="http://www.w3.org/1999/xlink" x="0px" y="0px" width="100%" height="100%" viewBox="0 0 500 253">
<polygon points="0,122 1,114 1,113 2,113 2,113 2,113 2,112 2,112 2,112 2,112 2,112 2,112 2,112 2,111 2,111 2,111 3,111 3,110 3,110 3,110 3,110 3,110 3,109 3,109 3,109 3,109 3,109 3,108 3,108 3,108 4,108 4,108 4,108 4,108 4,108 4,108 4,108 4,108 5,108 5,108 5,108 5,108 6,108 6,108 6,108 6,108 6,107 6,107 6,107 6,107 6,107 6,106 6,106 6,106 6,106 6,106 6,105 6,105 7,105 8,104 8,104 9,104 9,103 10,103 10,102 10,102 11,102 11,101 11,102 13,100 13,100 13,100 13,100 13,100 13,99 14,99 14,99 14,99 14,99 14,99 14,98 14,98 15,98 15,98 16,97 16,97 16,96 16,96 16,96 16,96 17,96 17,95 17,95 18,95 18,95 18,95 18,95 18,95 19,95 19,95 19,94 19,94 20,94 19,94 19,94 19,94 19,94 19,94 19,94 19,94 18,94 18,94 18,94 18,94 19,93 19,93 19,93 19,93 20,92 20,91 20,91 21,91 21,91 21,90 21,90 21,90 22,90 22,90 22,89 22,89 22,89 23,88 23,88 23,88 23,88 23,88 24,88 24,88 24,88 24,88 24,88 24,88 24,88 24,87 24,87 25,87 25,86 25,86 25,86 25,86 25,86 25,86 25,86 25,86 26,86 26,85 26,85 26,85 26,85 27,85 27,85 27,85 27,85 27,85 27,85 27,85 27,85 28,85 28,85 28,84 28,84 28,84 28,83 28,83 28,83 28,83 29,82 29,82 29,82 29,82 29,82 30,81 30,81 30,81 30,81 30,80 30,80 30,80 31,80 31,80 32,79 32,79 32,79 32,79 32,79 32,79 32,79 33,80 33,80 33,80 33,80 33,79 33,79 33,79 33,79 33,79 33,79 33,79 34,79 34,79 34,79 34,78 34,78 34,77 34,77 35,77 35,77 35,75 35,74 35,73 35,72 35,72 35,72 35,72 35,72 35,72 35,72 35,72 35,72 35,71 35,71 35,70 35,70 35,70 35,70 35,69 34,70 34,70 34,70 34,70 34,70 33,69 33,69 33,69 33,69 32,69 32,69 32,69 31,69 31,69 31,69 31,69 31,69 31,68 31,68 31,68 31,68 30,68 30,68 30,68 30,68 30,68 30,68 30,68 30,67 30,67 29,67 29,67 29,67 29,67 29,66 29,66 29,66 29,66 29,66 29,65 29,65 29,65 29,65 30,65 30,65 30,65 30,65 30,64 30,64 30,64 31,64 31,64 31,64 31,64 31,64 32,64 32,64 32,64 33,63 33,63 33,63 33,63 33,63 33,63 33,63 33,63 33,63 33,62 33,62 33,62 34,62 34,61 34,61 34,61 34,61 34,61 34,60 34,60 34,59 34,59 34,59 34,58 34,58 34,58 34,58 35,57 35,57 35,57 35,57 35,56 35,56 35,56 35,55 35,55 35,55 35,54 36,54 36,54 36,53 36,53 36,53 36,53 36,52 36,51 36,51 36,51 36,50 36,50 36,50 36,50 36,50 36,50 36,49 37,49 37,49 38,48 38,48 38,47 38,47 38,47 38,47 38,47 39,47 39,46 39,46 39,46 39,46 39,46 40,46 40,46 41,46 42,45 42,45 42,45 42,44 42,44 41,44 41,44 41,44 42,44 42,44 42,44 42,44 42,44 44,43 44,43 44,43 44,43 45,43 45,43 46,42 45,42 46,42 46,42 46,42 46,42 46,42 45,42 45,42 45,42 45,41 45,41 45,42 45,42 45,42 46,42 46,42 46,42 46,42 45,41 45,41 45,41 45,41 45,41 45,41 45,41 45,41 45,40 45,40 45,40 45,40 45,39 45,39 45,39 45,39 45,38 46,37 46,37 46,37 46,35 46,35 46,35 46,35 46,35 46,35 46,35 46,35 46,35 46,35 46,35 46,35 46,34 46,34 46,34 46,34 46,34 46,33 46,33 46,33 46,33 46,33 46,33 46,33 46,33 46,33 46,33 46,32 46,32 46,32 46,32 46,32 46,32 46,32 46,32 46,32 45,32 45,31 45,31 45,31 45,30 45,30 45,30 45,30 45,30 45,30 45,29 45,29 45,29 45,29 45,29 46,29 46,28 46,28 46,28 45,28 44,28 44,27 43,27 43,27 42,27 42,27 41,26 41,26 41,26 41,26 41,26 41,26 41,26 41,26 41,26 41,26 41,26 41,26 41,26 41,25 41,25 42,25 42,25 42,25 42,25 43,24 43,24 43,24 43,24 44,24 44,23 44,23 43,22 44,22 43,22 43,21 43,21 43,21 43,21 43,21 43,21 43,21 42,21 42,21 42,21 42,21 42,21 42,20 42,20 42,20 42,20 42,20 41,20 41,20 41,20 41,20 41,20 41,19 42,19 42,19 42,19 42,18 43,18 43,18 43,18 43,18 43,17 43,17 42,17 42,15 42,15 42,13 42,13 42,13 42,12 41,12 41,12 43,11 42,10 42,10 43,10 43,10 43,10 44,10 44,10 44,10 44,10 45,10 45,10 45,10 46,10 47,10 47,10 47,9 47,9 46,9 46,9 46,8 46,8 45,8 45,8 45,8 45,8 45,8 44,7 44,7 44,7 44,6 45,6 45,6 45,6 45,6 45,6 45,6 46,6 46,5 46,5 48,4 48,4 48,4 49,4 49,4 49,4 50,4 50,4 50,4 50,4 50,4 51,4 51,3 51,3 52,3 52,3 52,3 52,3 53,4 53,4 54,3 54,3 54,3 54,4 54,4 54,4 55,3 55,3 55,4 55,4 55,4 55,3 55,3 56,3 56,3 56,3 56,4 56,4 56,4 56,4 56,4 57,4 57,4 58,5 58,5 58,5 59,5 60,5 61,5 61,5 61,5 63,5 64,5 64,5 64,5 65,5 65,5 65,5 65,5 66,5 66,4 66,4 66,4 67,4 67,4 66,3 65,3 65,3 67,2 67,2 67,2 67,2 68,1 68,1 69,1 69,1 69,1 69,1 69,1 69,1 70,0 70,0 71,0 71,0 72,1 72,1 72,1 72,2 72,2 73,3 73,3 73,3 73,3 73,3 73,3 73,3 73,3 74,3 75,5 75,5 76,6 76,7 76,7 76,7 76,7 77,8 77,8 78,9 78,9 78,10 78,10 78,10 79,11 79,11 79,11 79,11 79,11 80,11 80,12 80,12 80,12 80,12 81,12 81,13 81,13 81,13 81,13 81,13 82,14 82,14 82,15 82,15 83,15 83,15 83,15 83,15 84,16 84,16 84,16 84,15 84,15 85,15 85,15 85,15 85,15 85,15 86,15 86,15 86,15 86,15 87,15 88,14 89,14 90,14 91,13 93,13 95,12 96,12 98,11 99,10 100,10 100,10 101,10 101,10 101,10 102,10 103,10 104,10 105,9 105,9 106,9 108,8 109,8 110,7 110,7 112,7 113,7 114,6 114,6 115,6 116,5 117,5 118,5 119,6 119,6 120,6 121,6 121,6 121,7 121,7 122,7 122,7 122,8 123,8 125,9 125,9 126,9 126,9 126,9 126,9 126,9 127,9 127,9 127,9 127,9 128,9 128,9 128,9 129,8 131,9 131,9 132,9 134,10 134,9 134,9 134,9 134,9 135,8 136,7 137,7 137,7 137,7 137,7 138,7 138,7 138,7 138,7 138,7 138,7 138,7 138,6 139,6 139,6 139,6 139,6 139,6 140,5 140,5 140,5 141,4 141,4 141,4 141,4 141,4 141,4 141,5 141,5 141,5 142,5 142,5 142,5 142,5 143,5 143,5 143,5 143,5 143,5 143,5 143,6 144,6 145,7 146,7 146,8 146,8 146,8 146,9 147,9 147,9 148,9 148,9 149,9 149,9 149,10 149,11 149,11 150,11 150,10 150,10 150,11 150,11 151,11 151,11 151,11 151,11 150,11 150,12 150,12 150,12 149,12 149,12 149,12 149,12 150,12 150,12 150,12 150,13 150,13 150,13 150,13 150,13 150,13 149,13 150,14 151,14 151,14 152,14 152,14 152,14 153,14 153,14 153,14 154,14 154,14 155,14 155,15 155,15 156,15 156,15 156,15 156,16 156,16 156,16 155,16 155,16 155,16 155,16 155,16 155,17 155,17 155,17 155,17 155,17 155,17 155,17 156,18 156,18 156,18 157,18 157,18 158,18 159,18 159,18 158,18 158,19 158,19 158,19 159,21 158,21 158,21 158,21 159,22 159,22 159,22 159,22 159,22 159,23 159,23 159,23 160,23 160,23 160,23 159,24 159,25 159,25 159,26 160,27 160,27 159,28 160,28 160,28 160,28 160,28 161,28 160,28 160,28 161,29 161,30 161,32 162,32 163,32 162,33 162,34 160,34 159,34 157,34 156,34 156,34 156,35 156,35 155,35 155,36 155,36 154,37 154,37 154,37 154,38 154,38 154,38 154,38 154,39 154,39 154,39 154,39 153,40 153,40 153,40 152,41 152,41 152,41 151,41 151,41 151,41 151,42 151,42 150,42 150,42 150,42 150,42 150,42 150,43 150,43 150,43 150,43 151,43 151,43 150,44 150,44 150,45 150,45 151,45 151,45 151,45 151,46 151,46 151,46 152,46 152,46 152,47 153,47 153,47 153,47 153,47 153,47 154,47 154,47 154,47 154,47 154,47 154,47 156,48 157,48 157,48 157,48 157,48 157,48 157,48 159,48 160,48 160,48 160,49 159,49 159,49 160,50 160,50 160,50 161,50 161,50 161,50 161,50 161,51 162,51 162,51 162,51 162,51 162,51 162,51 162,51 163,51 163,51 163,51 163,51 163,51 163,51 166,52 166,53 166,53 166,53 166,53 166,53 166,53 166,53 167,53 167,53 167,53 167,53 167,53 167,53 166,54 166,55 165,55 165,55 165,55 165,55 165,55 165,55 165,55 165,56 166,56 166,57 166,57 166,57 166,57 166,57 166,58 165,59 164,59 163,60 163,61 163,61 163,61 163,62 162,62 162,62 162,62 162,62 162,62 162,62 161,62 161,62 161,63 161,63 161,63 161,63 161,63 161,63 161,63 160,63 160,63 160,63 160,63 160,63 160,64 160,64 160,64 160,64 159,64 159,64 159,64 159,64 158,64 157,64 157,64 155,65 155,65 155,65 155,65 154,65 154,66 154,66 154,66 154,65 153,65 153,65 153,65 153,65 152,65 152,65 151,64 151,64 151,64 150,65 150,65 150,66 149,67 149,67 149,67 149,67 148,67 148,67 148,67 148,67 147,67 147,67 145,68 145,68 144,68 144,69 144,69 144,69 143,69 143,69 143,69 143,69 143,69 143,69 143,69 143,70 143,70 143,70 143,70 143,70 143,70 143,70 143,70 143,71 142,71 142,71 142,71 142,72 142,72 142,72 142,72 142,72 142,72 141,73 141,73 141,73 140,73 140,74 139,74 139,74 139,74 139,74 139,75 138,75 138,75 138,75 138,75 138,76 138,76 138,76 138,76 137,77 137,77 137,77 137,77 137,78 137,78 137,78 137,77 137,78 137,78 137,78 136,78 136,78 136,78 136,78 136,78 136,78 135,78 134,79 133,79 133,79 133,79 132,79 132,79 132,79 132,80 131,80 131,80 131,80 131,80 131,80 131,81 131,81 131,82 131,83 132,83 132,84 132,83 131,83 131,83 131,83 131,83 131,83 131,83 131,83 130,83 130,83 130,83 130,83 130,83 130,83 129,83 129,83 129,83 129,83 128,82 128,82 128,82 127,82 127,82 127,82 127,82 127,83 127,83 127,83 127,84 127,84 126,84 126,84 126,84 126,84 125,85 125,85 125,85 125,85 124,85 124,86 124,86 124,86 124,86 124,86 124,87 124,87 124,87 124,88 124,88 125,88 125,88 127,88 127,88 127,88 127,88 127,88 128,88 128,88 129,88 129,88 130,88 130,88 130,88 130,89 130,89 130,89 131,89 131,89 131,89 132,89 132,89 132,89 133,90 133,90 133,90 133,90 133,90 133,90 133,91 133,91 133,91 133,91 133,91 133,91 133,91 133,91 133,91 133,92 133,92 133,92 133,92 133,92 133,92 133,92 133,93 133,94 133,94 133,94 133,95 133,95 133,95 132,96 131,96 131,97 131,97 131,97 130,97 130,97 130,98 130,98 130,98 130,99 130,99 130,99 130,99 130,99 130,99 130,99 129,99 129,99 129,99 129,99 129,99 128,100 128,100 128,100 128,100 128,101 128,101 128,101 128,101 127,102 127,102 127,103 127,103 127,103 127,103 127,103 127,103 128,103 128,104 128,104 127,104 127,104 127,104 127,105 127,105 127,105 127,105 127,106 126,106 124,106 124,107 124,107 124,107 123,107 123,107 123,107 123,107 123,107 123,108 123,108 124,108 122,110 122,110 121,111 121,111 121,111 121,111 126,112 128,112 128,112 127,113 128,113 128,113 128,113 128,113 129,113 129,113 129,113 130,113 130,113 130,113 130,113 131,113 131,113 131,113 131,113 131,113 131,113 131,113 131,113 132,113 132,113 133,113 133,113 133,113 134,112 134,112 135,112 135,112 135,112 136,112 136,112 136,112 137,113 137,113 137,113 138,113 138,113 138,113 138,113 139,112 139,112 139,112 139,112 140,112 140,112 140,112 141,113 142,113 143,113 144,113 144,113 144,113 144,113 145,113 145,114 145,114 146,114 146,114 146,114 146,114 149,114 149,113 150,113 150,113 150,113 150,113 150,114 151,114 151,114 151,114 151,114 151,114 152,114 152,113 152,113 152,113 152,113 152,113 152,113 153,113 153,113 153,113 153,113 153,113 153,113 154,113 154,113 155,113 155,113 156,113 157,113 157,113 158,113 158,113 159,113 160,113 160,113 161,113 161,113 162,114 162,114 163,114 163,114 163,114 163,114 164,115 164,115 164,115 164,115 164,115 164,116 164,116 164,116 165,116 165,116 165,116 165,117 165,117 165,117 165,117 166,117 166,117 166,117 166,117 166,117 166,116 167,116 167,116 167,116 168,116 168,116 168,116 168,116 168,115 168,115 168,115 169,115 169,115 169,114 169,114 169,114 169,114 169,114 169,114 170,114 170,114 170,113 171,113 172,113 172,113 172,113 172,113 172,113 173,113 173,113 173,113 173,113 174,113 174,113 175,113 175,113 176,113 177,114 178,114 178,114 178,114 178,113 179,113 179,112 179,112 179,112 179,111 179,111 180,111 180,110 180,110 180,110 180,110 180,109 180,109 181,109 181,109 181,108 181,108 181,108 181,108 181,107 181,107 181,107 181,107 181,107 181,107 182,106 182,106 182,106 182,105 183,105 183,105 183,105 183,105 184,105 184,105 184,104 185,106 186,106 186,106 186,107 186,107 186,108 187,108 187,108 188,109 189,109 189,110 189,110 189,110 189,110 190,110 190,110 190,110 191,110 191,111 191,111 191,111 192,111 192,111 193,111 193,111 193,111 193,111 192,112 193,112 193,112 193,112 193,113 194,113 194,113 194,113 195,113 195,113 195,113 195,113 195,113 195,113 196,114 196,114 197,114 197,114 197,114 198,115 198,115 199,115 199,115 199,115 200,116 201,116 201,116 201,116 201,116 202,116 202,116 202,116 203,116 203,117 203,117 203,117 204,117 204,117 204,117 204,117 204,117 205,117 205,117 205,116 205,116 206,116 206,116 206,115 206,115 207,115 207,115 207,115 208,114 208,114 208,114 208,114 209,114 210,113 210,113 210,113 210,113 211,113 211,113 212,113 212,113 212,113 212,112 212,112 212,112 211,112 211,112 212,112 212,111 212,111 212,111 212,111 213,111 213,111 213,111 213,111 213,111 214,111 214,111 214,111 214,111 214,111 214,111 214,111 215,111 215,111 215,111 216,111 216,111 216,111 216,111 216,111 216,111 216,111 217,111 217,110 218,110 218,110 218,110 218,110 218,109 217,109 217,108 217,107 217,107 218,107 219,107 218,106 218,106 218,106 219,106 219,105 219,105 219,105 219,105 220,105 220,105 220,105 221,106 221,106 221,106 221,107 221,107 222,106 222,106 223,105 223,105 223,104 224,104 224,104 224,104 224,104 224,104 225,103 225,103 225,103 225,103 225,103 226,103 226,103 226,102 226,102 227,102 227,101 227,101 227,101 228,100 228,100 228,100 228,100 229,100 229,99 229,99 229,99 230,99 230,99 230,99 231,98 231,98 231,98 232,98 232,98 233,98 233,98 233,98 234,98 234,97 234,97 236,97 236,96 236,97 237,97 237,97 238,96 238,96 238,96 238,96 239,96 239,96 239,96 239,96 239,95 239,95 240,95 240,95 240,95 241,95 241,95 241,95 242,95 242,95 242,95 242,95 243,95 243,95 243,95 243,95 243,95 243,96 244,96 244,96 244,96 244,96 244,96 245,96 245,96 246,95 246,95 246,95 247,95 247,95 248,95 248,95 249,95 250,95 250,94 250,94 250,94 250,94 252,94 253,94 253,94 253,94 253,94 253,94 253,94 254,94 254,94 254,94 255,94 255,94 255,94 255,94 256,94 256,94 257,94 257,94 257,95 257,95 258,95 258,95 258,95 258,95 258,95 258,95 259,96 259,96 259,96 259,96 259,97 259,97 259,97 259,97 259,97 260,97 260,97 260,97 260,97 261,97 261,97 261,97 262,97 262,97 262,96 263,96 263,96 263,96 263,96 264,96 264,96 264,96 264,95 264,95 265,95 265,95 265,95 265,95 266,95 266,95 266,95 266,95 267,95 267,95 267,95 267,95 267,95 267,95 268,95 268,95 268,95 268,94 269,94 269,94 269,94 269,94 269,94 270,94 270,93 270,93 270,94 270,94 270,94 270,94 270,94 271,94 272,94 272,94 272,93 272,93 272,92 272,92 272,92 272,91 272,91 272,91 272,91 272,91 272,91 272,91 272,90 272,90 272,90 272,90 272,89 273,89 273,89 273,89 273,89 273,89 274,89 274,89 274,88 274,88 274,88 274,88 275,88 275,88 275,88 275,88 277,88 277,88 277,88 277,88 277,88 277,88 277,88 278,88 278,88 278,88 278,88 278,88 278,88 278,88 278,88 279,88 279,89 279,89 279,89 280,89 282,89 282,89 282,89 282,89 282,89 282,89 282,89 282,89 282,89 282,88 283,88 283,88 283,88 282,88 282,88 282,88 282,88 283,88 283,88 283,88 283,88 283,87 283,87 283,87 283,87 283,87 283,87 283,87 283,87 283,87 283,87 282,87 282,87 282,87 282,86 282,86 282,86 282,86 282,86 282,85 282,85 282,85 282,85 282,85 282,85 282,85 282,85 282,85 282,85 282,85 282,84 281,84 281,84 281,84 281,84 281,84 281,84 281,84 281,84 280,84 280,84 280,84 280,83 280,83 280,83 280,83 280,83 280,83 280,83 280,83 280,83 280,83 279,83 280,82 280,82 280,82 280,82 280,82 280,82 280,81 280,81 280,81 280,81 280,81 280,80 281,80 281,80 281,80 281,80 282,80 282,80 282,80 283,80 284,79 285,79 285,80 286,79 288,79 289,79 289,79 290,79 290,79 291,79 291,79 291,79 292,79 292,79 292,78 292,78 292,78 293,78 293,78 293,78 293,78 293,78 293,78 294,78 294,78 294,77 295,77 295,76 295,76 295,76 295,76 295,76 295,76 295,76 296,76 296,76 296,76 296,76 297,75 298,75 298,75 298,75 298,74 299,74 299,74 300,73 301,73 301,73 301,73 301,73 302,73 302,73 302,73 302,73 302,73 301,74 301,74 301,74 301,74 301,74 301,75 300,75 300,75 300,75 300,75 300,75 300,75 300,75 300,75 300,75 299,76 299,76 299,76 299,76 299,76 299,76 299,76 299,76 299,76 299,77 298,77 298,77 298,77 298,77 298,77 298,77 298,77 298,78 298,78 298,78 298,78 298,78 298,78 298,78 298,79 298,79 297,80 297,80 297,80 297,80 297,80 297,80 297,80 296,80 296,80 296,80 296,81 295,81 295,81 294,81 294,81 294,81 294,81 294,81 294,82 294,82 294,82 293,82 293,82 293,82 293,82 293,82 293,82 292,82 292,82 292,82 292,82 292,83 292,83 292,83 292,83 292,83 292,83 292,83 292,83 292,83 292,83 291,83 291,83 291,83 291,83 291,84 291,84 290,84 289,84 289,85 289,85 289,85 289,85 289,86 289,86 289,86 288,86 288,86 288,86 288,87 288,87 288,87 288,87 288,87 288,87 288,87 288,87 288,88 288,88 288,88 288,88 288,88 288,88 288,88 288,88 288,89 288,89 287,89 287,89 287,89 287,89 287,89 287,89 287,89 287,89 287,89 287,89 287,89 287,89 287,89 286,90 286,90 285,90 285,90 285,90 285,90 285,91 285,91 285,91 284,91 284,91 284,91 284,91 284,92 283,92 283,92 283,92 283,92 283,92 283,92 283,93 282,93 282,93 282,93 282,93 282,93 282,93 282,93 282,93 282,93 282,93 281,93 281,93 281,93 281,93 281,94 281,94 281,94 280,94 280,94 280,94 280,94 280,94 280,94 280,94 280,94 280,94 280,95 279,95 279,95 279,95 279,95 279,95 279,95 279,95 279,95 279,95 279,95 279,95 279,95 280,95 280,96 280,96 280,96 280,96 279,96 279,96 279,96 279,96 279,96 279,96 279,96 279,96 279,96 279,97 279,97 280,97 280,97 280,97 280,97 280,97 280,97 280,97 280,97 280,97 280,98 280,98 280,98 280,98 280,98 280,98 280,98 280,98 280,98 281,99 281,99 281,99 281,99 281,99 281,99 281,99 281,99 281,99 280,99 280,99 280,99 280,99 280,99 280,99 280,100 281,100 281,100 281,100 281,100 281,100 281,100 281,100 281,100 281,100 281,101 281,101 282,101 282,101 282,102 282,102 282,102 282,102 282,102 283,101 283,101 283,101 284,100 285,100 285,100 285,101 285,101 285,101 285,102 285,102 286,103 286,103 286,103 286,103 286,103 286,103 287,104 287,104 288,104 289,104 289,104 289,104 289,104 289,104 289,104 290,105 290,105 290,105 289,105 289,105 289,105 289,105 288,105 288,105 287,105 287,106 288,107 288,107 287,107 287,108 287,108 288,108 288,108 288,108 288,108 288,108 288,108 288,108 289,108 289,108 289,108 289,108 290,108 290,108 290,108 290,108 290,108 290,108 290,108 290,108 290,109 290,109 290,109 290,109 290,109 290,109 290,109 290,109 290,109 290,109 290,110 290,110 290,110 291,110 291,110 291,110 291,110 291,110 291,110 291,111 291,111 291,111 291,111 291,111 291,111 291,112 291,112 291,112 291,112 290,112 290,112 290,112 290,112 290,113 291,113 291,113 291,113 291,113 291,113 291,114 292,114 292,114 292,114 292,114 292,114 292,114 292,114 292,114 292,115 292,115 292,115 292,115 292,115 292,115 292,115 292,115 292,115 293,115 293,115 294,115 294,115 295,115 295,115 296,115 296,115 296,115 297,114 298,114 299,114 299,114 299,114 300,114 300,114 301,114 301,114 301,114 301,113 302,113 302,113 302,113 302,113 302,113 302,114 302,114 302,115 301,116 301,116 300,120 299,121 299,121 299,122 298,123 298,123 299,123 304,124 308,126 308,126 315,121 317,119 317,119 318,119 321,116 322,116 324,114 324,114 325,113 326,112 326,112 326,112 329,110 329,110 331,109 332,109 333,108 334,108 334,108 334,108 335,108 335,107 335,107 337,106 338,106 340,105 342,104 342,104 342,104 344,104 345,104 345,103 346,103 348,102 349,102 350,101 351,101 352,101 352,100 353,100 353,100 354,100 354,100 354,100 355,100 355,100 355,100 356,100 356,100 357,100 357,100 358,100 358,100 359,100 359,100 360,100 360,100 361,100 361,100 361,100 362,100 362,100 362,101 363,104 364,107 364,109 364,110 364,110 365,111 365,112 365,112 365,112 367,113 369,113 369,113 370,113 372,112 373,112 373,112 374,112 375,111 378,110 379,109 381,108 381,108 380,109 378,111 376,112 375,114 375,114 379,114 381,115 383,115 381,116 380,118 379,118 378,119 377,120 372,124 369,127 369,127 370,127 370,128 370,128 371,129 371,129 372,130 372,130 373,131 373,131 373,131 374,131 374,131 375,131 375,131 375,132 375,132 375,132 375,133 375,133 376,134 376,134 376,134 377,134 377,134 377,135 377,135 378,135 378,136 378,137 379,137 379,138 379,138 379,139 379,139 380,139 380,140 381,141 381,141 381,142 385,141 385,141 390,142 391,142 391,142 392,142 392,142 392,142 393,142 394,142 394,142 394,142 394,142 394,142 394,141 395,141 395,141 395,141 396,141 396,141 396,140 396,140 396,140 396,140 397,139 397,138 397,138 397,137 398,137 398,137 398,136 399,136 399,135 400,135 400,135 401,134 401,134 402,133 402,133 402,133 403,132 404,131 404,131 405,131 405,130 406,130 406,130 406,129 406,129 408,128 408,128 408,128 408,128 408,128 409,128 409,128 409,128 409,128 410,127 410,127 411,127 411,127 411,126 412,126 412,126 413,125 414,125 414,124 414,124 414,124 414,124 415,124 415,124 415,124 416,124 416,124 417,124 418,124 418,124 418,124 418,124 419,124 419,124 419,124 420,124 420,124 420,124 422,123 423,123 423,123 423,123 423,123 424,123 424,123 424,122 424,122 425,122 425,122 425,122 426,122 426,122 426,122 427,122 427,122 427,121 427,121 427,121 427,121 428,122 428,122 428,122 428,122 428,122 428,121 429,121 430,121 430,121 430,121 430,121 430,121 430,121 430,121 430,121 430,121 431,121 431,121 431,121 431,121 431,121 431,121 431,120 432,120 432,120 432,121 432,121 432,121 433,121 433,121 434,120 435,120 436,120 436,119 436,119 437,119 438,119 438,119 438,119 438,118 439,118 439,118 439,118 439,118 439,118 441,118 441,118 442,117 442,117 442,117 442,117 443,118 443,118 444,119 445,119 446,120 446,120 446,120 446,121 446,121 446,121 446,121 445,122 445,123 445,123 445,123 446,123 446,124 446,124 446,124 446,124 447,124 447,124 447,124 447,124 448,124 448,125 448,125 449,125 449,125 449,125 449,125 449,125 449,125 449,125 450,125 450,125 450,125 450,125 450,125 451,126 451,126 451,126 451,126 451,126 451,126 451,127 451,127 450,127 450,127 450,127 450,127 450,127 450,128 450,128 450,128 448,128 447,129 447,129 447,129 447,129 447,129 447,129 447,129 446,129 446,129 446,129 446,129 446,130 446,130 446,130 447,131 447,131 447,131 447,131 447,131 447,132 447,132 447,133 447,134 447,134 447,134 447,134 447,134 447,134 447,135 447,135 447,135 447,135 447,135 446,135 446,135 446,135 446,136 446,136 446,136 446,137 446,137 446,138 445,138 445,139 445,139 445,139 445,139 445,140 446,140 446,140 446,141 446,141 446,142 447,142 447,142 448,142 448,142 447,143 446,143 446,143 446,143 446,144 446,144 446,144 445,144 445,144 445,144 445,145 446,145 446,145 446,145 445,145 445,145 445,145 445,146 444,146 444,146 445,146 445,146 445,146 445,147 445,147 445,147 446,147 446,147 446,148 446,148 446,148 446,148 446,148 446,148 446,149 446,149 446,149 446,149 446,149 446,149 446,149 446,149 446,150 446,150 447,150 447,150 447,150 447,150 447,150 447,150 446,151 446,151 446,151 446,151 446,151 446,152 446,152 446,152 446,152 446,152 446,153 446,153 446,153 446,153 446,153 446,153 446,153 446,153 446,154 447,154 447,155 448,155 448,155 448,156 448,156 448,156 448,156 449,156 449,156 449,157 449,157 449,157 450,157 450,158 450,158 450,158 449,158 448,159 447,159 447,159 446,159 446,160 446,160 445,160 445,160 444,160 444,161 444,161 444,161 443,160 443,160 443,161 441,162 441,162 440,163 440,163 441,163 441,164 441,164 442,164 441,165 441,165 441,165 441,165 441,165 441,165 442,166 442,166 442,166 442,166 442,166 442,166 442,166 443,166 443,166 443,166 444,167 444,167 444,167 445,168 445,168 445,168 445,168 446,168 446,168 446,168 446,168 446,168 446,168 447,168 447,168 448,168 448,169 448,169 449,169 449,169 449,169 449,169 449,169 450,169 450,169 450,169 450,169 450,169 450,169 450,169 450,169 451,169 451,169 451,169 451,169 451,169 451,169 451,169 451,169 451,169 451,169 451,169 451,169 451,169 451,170 451,170 451,170 452,171 452,171 452,171 453,171 453,171 453,171 454,172 455,172 455,172 455,172 455,172 455,172 455,172 455,172 456,172 456,172 456,172 456,172 456,172 456,172 456,172 456,172 456,172 457,172 457,172 457,172 457,172 457,172 457,172 457,172 457,172 458,172 458,172 459,172 459,173 459,173 458,173 458,173 458,173 458,173 459,173 459,173 459,173 459,173 459,173 459,173 459,173 459,174 459,174 459,174 459,174 459,174 459,174 459,174 459,174 459,174 459,174 459,174 459,174 459,175 459,175 459,175 459,175 459,175 459,175 459,175 459,175 459,175 459,175 459,175 459,176 459,176 459,176 459,176 459,176 460,176 460,176 460,176 460,176 460,176 460,176 460,176 460,176 460,177 460,177 461,177 461,177 462,178 462,178 463,178 463,178 463,178 463,179 463,179 463,179 463,179 463,179 463,179 463,179 462,179 463,179 463,179 463,179 463,179 464,179 464,179 465,179 464,180 464,180 464,181 464,181 463,182 463,182 463,183 463,183 463,182 463,182 462,183 462,184 462,184 462,185 462,185 462,185 462,185 462,185 462,185 462,185 462,185 462,185 462,185 462,185 462,185 462,185 462,185 462,185 462,185 462,185 462,185 462,185 462,186 462,186 462,186 462,186 463,186 463,186 466,186 467,187 467,187 467,187 468,187 468,187 469,187 469,187 470,187 470,187 471,187 471,187 471,187 472,187 472,187 473,188 473,188 473,188 473,188 473,188 473,188 474,188 474,189 475,189 475,189 476,189 476,189 476,189 476,189 476,189 477,189 477,189 478,189 478,189 479,189 479,189 480,189 480,189 481,188 481,188 482,188 482,188 482,189 482,189 483,188 483,188 483,188 483,188 483,188 484,188 484,188 484,188 484,188 485,188 485,188 485,188 485,188 486,187 486,187 487,187 487,187 487,187 487,187 487,187 487,187 487,188 487,188 487,188 487,188 487,188 488,188 488,188 488,188 488,189 488,189 488,189 489,189 489,189 489,189 490,189 490,189 490,189 491,189 491,189 491,189 491,189 491,190 492,190 492,190 492,190 492,190 493,190 493,190 493,190 493,190 494,191 494,191 495,192 496,192 496,192 496,192 497,192 497,193 496,193 496,193 495,193 495,193 494,193 494,193 494,193 494,193 495,194 495,194 495,194 495,195 495,195 495,195 496,195 496,195 496,195 496,196 496,196 496,196 496,196 496,196 496,196 496,197 496,197 496,197 496,197 496,198 496,198 495,198 495,198 495,199 495,199 495,199 496,199 496,200 497,200 497,200 497,201 498,201 498,202 499,202 499,202 498,203 498,203 497,203 497,203 497,204 497,204 497,204 497,204 498,203 498,203 499,203 499,203 499,203 500,204 500,204 500,204 500,204 499,204 499,204 498,205 498,205 498,205 497,205 497,205 497,205 497,205 497,205 497,205 496,205 496,205 496,205 495,205 495,205 495,205 494,205 494,205 494,205 494,205 494,205 493,205 493,205 493,205 492,205 492,205 491,205 491,205 490,205 490,205 489,205 488,205 488,205 487,205 487,205 486,205 486,205 486,205 486,205 485,205 485,205 484,205 484,205 483,206 483,206 483,206 482,206 482,206 482,207 481,207 481,208 481,208 480,207 480,207 480,207 480,207 479,207 478,208 478,208 477,208 477,208 478,208 478,208 478,208 478,208 478,208 478,208 478,208 478,208 478,208 478,208 477,209 476,209 476,209 475,210 474,209 473,208 472,209 470,210 469,210 469,210 468,210 469,210 469,211 471,212 472,213 473,214 473,214 474,214 474,214 473,215 473,215 472,215 471,215 471,215 471,215 471,215 470,215 469,215 469,215 469,215 469,215 469,215 469,215 469,215 469,215 468,215 468,215 468,215 468,215 468,215 468,215 467,215 467,215 467,215 467,215 466,215 466,215 465,214 465,214 465,214 465,214 465,214 465,214 464,214 464,214 464,214 464,214 463,214 463,214 462,214 462,214 462,213 461,213 460,214 460,214 460,214 460,214 459,214 459,214 458,214 458,214 458,214 457,214 457,214 456,215 456,215 456,215 456,215 456,215 454,216 453,217 453,217 453,217 453,217 452,216 452,216 452,216 451,216 451,216 451,216 450,216 450,215 450,215 449,215 449,214 448,214 448,213 447,213 446,212 446,212 446,212 446,212 446,212 446,212 446,211 446,211 445,212 444,212 444,212 444,212 442,212 442,212 442,212 442,212 441,213 441,213 440,213 440,213 439,213 439,213 438,212 438,212 437,212 437,213 437,213 437,213 437,212 437,213 436,213 437,213 434,214 433,214 433,214 432,214 431,214 431,214 431,214 431,214 431,214 431,214 430,214 430,214 430,214 430,214 429,215 429,215 429,215 429,215 428,215 428,215 428,215 428,215 428,215 428,215 428,215 428,214 428,214 425,215 425,215 425,215 425,215 425,215 425,215 425,215 425,215 425,216 425,216 425,216 425,216 425,216 425,216 426,216 426,217 426,217 427,217 427,218 428,219 428,219 428,219 427,219 427,219 427,219 426,220 425,220 425,220 424,220 424,220 424,220 424,220 424,220 424,220 424,220 424,220 423,220 423,220 423,220 423,220 422,220 422,220 422,219 421,219 420,218 420,218 420,218 420,218 420,218 420,218 420,218 418,218 418,218 417,218 417,218 417,218 416,218 414,219 414,219 414,218 414,218 414,218 414,218 413,219 413,219 413,219 413,219 413,219 412,219 412,219 411,219 411,219 411,219 411,219 411,218 411,218 410,218 409,219 409,219 409,218 409,218 409,218 408,218 408,218 408,218 407,218 407,218 407,218 407,218 406,218 406,218 406,218 406,218 406,218 406,218 406,219 406,219 407,219 407,220 407,221 407,221 406,222 406,222 406,222 406,223 405,223 405,224 405,224 405,224 405,225 404,226 404,227 404,227 404,227 404,228 404,228 404,228 404,229 404,229 404,230 404,231 404,231 404,231 404,231 404,232 404,233 404,233 404,233 404,233 404,233 403,233 403,233 403,233 403,234 401,234 400,234 400,234 398,235 397,235 397,235 397,235 395,234 394,234 393,234 393,234 390,234 390,234 390,234 386,233 386,233 385,233 385,233 385,233 385,233 385,233 384,233 383,233 383,233 382,232 382,232 381,233 381,233 381,233 381,232 381,232 381,232 381,232 381,232 380,232 380,232 380,232 380,232 380,232 379,233 379,233 379,233 378,234 378,234 377,234 377,234 377,234 377,234 376,234 375,234 375,234 374,233 374,233 374,233 373,233 373,233 372,232 372,232 372,232 372,232 372,232 372,232 371,232 370,233 370,233 370,233 370,233 370,233 370,233 369,232 369,232 369,232 369,232 369,232 369,232 368,233 368,233 367,233 366,233 365,234 365,234 364,234 364,234 364,234 364,234 364,234 364,234 363,234 363,235 362,235 362,235 362,234 362,234 362,234 362,234 362,233 361,233 361,233 361,233 361,232 361,232 361,231 361,231 361,231 361,231 361,231 360,230 360,230 360,230 360,230 360,229 360,229 360,229 360,229 359,228 359,228 359,228 358,227 358,227 358,226 357,226 357,226 357,225 357,225 355,226 355,226 355,226 355,227 354,227 354,227 353,227 353,227 353,227 353,227 353,227 352,227 352,227 352,227 352,227 352,227 351,227 351,227 350,227 350,227 350,227 350,227 350,227 350,227 350,227 349,228 349,228 349,228 349,228 349,228 348,228 348,228 348,228 348,228 348,228 348,228 348,228 347,228 347,228 347,228 347,228 347,228 346,228 346,229 345,229 345,229 345,229 345,229 344,229 344,229 344,229 344,229 343,229 343,229 343,229 343,229 342,229 342,229 342,229 342,229 342,229 341,230 341,230 341,230 341,230 341,230 341,230 341,230 340,230 340,230 340,230 340,230 340,230 340,230 340,230 334,227 334,227 334,227 333,227 333,226 333,226 333,226 333,226 333,226 333,226 333,226 333,226 332,226 332,225 332,225 332,225 332,225 332,225 332,224 331,224 331,224 331,224 331,224 331,224 331,224 330,222 330,222 330,222 330,222 330,222 331,222 331,222 332,221 332,221 333,221 334,221 335,220 335,220 336,220 336,220 336,220 336,220 336,220 336,220 336,219 336,219 335,219 335,219 335,219 335,219 335,219 335,219 335,218 335,218 335,218 335,218 335,218 334,218 334,218 334,217 334,217 334,218 334,218 333,218 333,218 333,218 333,218 333,218 332,218 332,218 332,218 332,218 331,218 331,218 331,218 331,218 330,218 330,219 330,219 330,219 328,219 328,219 328,219 328,219 328,219 328,219 328,218 328,218 327,217 327,217 327,217 326,217 326,217 326,216 326,216 326,216 327,215 327,215 327,215 327,215 328,215 328,215 327,215 327,215 327,214 327,214 327,214 327,214 327,214 326,213 326,213 326,213 326,213 326,213 326,213 325,212 325,212 325,212 325,212 325,212 325,211 324,211 324,212 324,212 324,212 324,212 324,212 323,212 323,212 323,212 322,212 322,212 322,212 322,212 322,212 322,212 322,212 322,212 322,212 322,212 322,212 322,212 322,212 322,211 322,211 322,211 322,211 322,211 322,211 322,211 322,211 322,211 321,211 321,211 321,211 320,211 320,211 320,211 319,211 319,211 319,211 319,211 318,210 318,210 318,210 318,209 318,209 318,209 318,209 318,209 318,208 318,208 318,208 318,208 318,208 318,208 318,207 318,207 317,207 317,207 317,206 317,206 316,207 316,207 316,207 316,206 316,205 316,205 314,205 312,205 311,205 311,205 311,205 310,205 310,205 309,206 309,206 309,206 309,207 309,207 309,207 310,207 311,209 311,209 311,210 313,213 313,213 313,214 313,214 313,214 312,214 312,215 312,215 312,215 312,215 312,215 311,216 311,216 311,216 311,216 311,216 311,216 311,216 311,216 311,216 310,216 310,216 310,216 310,216 310,217 309,217 309,217 309,217 309,217 308,217 308,218 308,218 308,218 308,218 307,219 307,219 307,219 307,219 307,219 308,220 308,220 308,220 308,220 308,220 308,221 308,221 308,221 308,221 308,221 308,222 308,222 308,222 308,222 308,223 308,223 308,223 308,223 308,223 309,223 309,223 309,223 309,223 310,223 310,223 310,223 310,223 310,223 309,224 309,224 309,224 308,225 308,225 308,225 308,225 307,225 307,225 307,225 307,225 306,225 306,225 306,225 306,225 306,225 305,226 304,226 303,226 303,226 302,226 302,226 302,226 302,226 302,226 302,226 302,227 302,227 302,227 301,227 301,227 301,227 300,227 299,227 299,227 298,228 298,228 298,228 299,228 299,229 299,229 299,229 299,229 299,229 299,230 299,230 299,230 300,231 300,231 300,231 299,231 300,231 300,232 300,232 300,232 300,232 300,232 300,232 300,232 300,232 300,232 300,232 300,232 300,232 300,233 300,233 300,233 300,234 300,234 300,234 300,235 300,235 301,235 301,235 301,236 301,236 301,236 301,236 301,237 301,237 301,238 301,238 301,238 301,239 301,239 301,239 301,239 301,239 301,239 301,239 301,239 301,240 301,240 301,240 302,240 301,240 301,240 301,240 301,241 301,241 301,241 301,241 301,241 301,241 301,242 301,242 301,242 301,242 301,243 301,243 301,243 302,244 302,244 302,245 302,245 302,245 302,245 303,246 303,246 304,247 304,247 304,248 304,248 304,248 304,248 304,248 304,248 304,248 304,248 304,248 304,248 304,248 304,248 305,249 305,250 305,250 305,250 305,250 304,250 304,250 305,251 305,251 305,251 304,251 304,251 304,251 304,251 304,251 304,251 304,251 302,252 302,252 302,252 302,252 301,252 301,252 301,252 301,252 300,252 300,252 300,252 300,252 299,253 299,253 298,253 298,253 298,253 298,253 297,253 296,253 296,253 296,253 296,253 296,253 296,253 296,253 296,253 296,253 296,253 295,253 295,253 295,253 295,253 294,253 294,252 294,252 294,252 293,251 293,251 293,251 293,250 292,250 292,250 292,250 292,250 291,249 291,249 290,248 289,247 289,247 289,247 288,245 288,245 287,244 287,244 286,243 285,242 285,242 284,241 281,239 280,238 280,238 279,238 277,237 276,236 276,236 276,236 276,235 276,235 276,235 276,235 276,235 276,235 276,235 276,235 276,235 276,235 276,235 276,235 276,235 276,235 276,235 277,235 277,235 277,235 277,235 277,235 277,235 277,235 277,235 277,234 277,234 278,234 278,234 278,234 278,234 278,234 279,234 279,234 279,234 279,234 279,234 279,234 279,233 279,233 279,233 280,233 280,233 280,233 280,233 280,233 280,233 280,233 280,232 281,232 281,232 281,232 281,232 281,232 281,232 281,232 282,232 282,232 282,231 281,231 281,231 281,232 280,231 280,231 281,231 281,231 281,231 281,231 282,231 282,231 282,231 282,231 283,231 283,231 283,231 283,231 283,231 283,231 284,230 284,230 284,230 283,230 283,230 283,230 283,230 282,230 281,229 281,228 281,228 280,228 280,227 279,226 278,226 276,226 276,226 275,226 275,225 274,225 274,225 272,225 271,224 271,224 270,224 269,224 269,223 269,223 268,223 268,223 268,223 267,222 267,221 267,221 267,221 267,221 266,221 266,220 266,220 266,220 265,220 265,220 265,220 264,219 264,219 264,219 264,219 264,218 264,218 264,218 264,218 264,218 264,218 264,218 264,218 264,217 264,217 264,217 264,217 264,217 264,217 263,217 263,217 263,217 263,217 262,217 262,217 262,217 262,216 262,216 262,216 261,216 261,216 261,216 260,216 260,216 259,216 258,216 258,215 257,215 257,215 257,215 256,215 256,215 256,215 256,215 256,215 255,215 255,215 254,215 254,215 254,215 253,215 253,215 252,216 250,217 250,217 250,216 249,216 249,216 249,215 249,215 249,215 248,215 248,215 248,214 248,214 248,214 248,214 248,214 248,214 248,214 248,214 248,214 248,214 247,214 247,214 247,214 247,214 246,214 246,214 246,214 245,213 245,213 245,213 244,213 244,213 243,213 243,213 243,213 242,213 242,213 242,212 241,212 241,212 241,212 240,212 240,212 240,212 239,212 239,212 239,212 237,211 237,211 237,211 237,211 236,211 236,211 235,210 235,210 235,210 235,210 235,210 235,210 234,210 234,209 234,209 233,210 233,210 233,210 233,210 231,210 231,210 231,211 230,211 230,211 230,211 230,211 230,210 230,210 230,210 229,210 229,209 228,209 228,209 228,208 227,208 226,208 226,207 225,207 224,206 223,205 223,205 222,205 219,203 217,201 216,201 216,201 216,201 216,201 216,201 216,201 216,201 215,200 215,200 215,200 215,200 214,200 214,199 212,198 212,198 211,198 211,198 211,198 210,198 209,197 209,197 208,197 208,197 208,197 208,197 207,197 207,196 207,196 206,196 206,196 205,196 205,196 205,196 204,195 204,195 203,195 203,195 203,195 202,195 202,195 201,194 201,194 201,194 200,194 200,194 198,194 198,194 197,194 197,193 196,193 196,193 196,193 195,193 195,193 195,193 195,193 194,193 194,193 194,192 194,192 194,192 194,192 193,192 193,191 193,191 192,191 192,190 192,190 192,190 191,190 191,189 190,189 190,189 189,189 189,188 189,188 188,188 188,188 187,188 187,188 186,188 185,187 185,187 185,187 185,187 184,187 184,187 184,187 184,187 182,186 183,186 181,185 180,185 180,185 180,184 180,184 180,184 179,184 179,183 176,183 176,183 176,183 176,183 174,183 174,183 173,182 172,182 172,182 171,182 171,182 171,182 171,182 171,182 171,182 171,182 171,182 170,182 169,181 168,181 169,180 170,179 171,179 172,179 172,178 173,178 173,178 174,178 174,177 174,177 174,177 175,176 175,176 175,176 175,176 175,176 175,175 175,175 175,175 175,175 175,175 175,174 175,174 175,174 175,174 175,174 175,174 175,173 175,173 175,173 175,173 175,173 175,172 175,172 176,172 176,172 176,172 176,172 176,172 176,171 176,171 176,171 176,171 177,171 177,171 177,171 177,171 177,171 177,170 178,170 178,170 178,170 178,170 179,170 179,169 179,169 179,169 179,169 179,169 179,169 179,169 179,169 179,169 179,169 179,169 180,169 180,169 180,168 181,168 181,168 181,168 181,168 181,168 181,168 182,168 182,168 183,167 183,167 183,167 184,167 184,167 184,167 185,166 185,166 185,166 186,166 186,166 186,166 186,166 187,166 187,165 187,165 188,165 188,165 188,165 188,165 189,165 190,164 189,164 188,163 188,163 186,164 185,165 185,165 184,165 184,165 183,165 183,165 182,165 181,165 181,165 180,165 180,166 179,166 179,166 178,166 178,166 177,166 176,166 175,165 174,165 173,165 173,165 171,165 171,165 169,165 169,164 170,164 170,164 170,164 170,164 170,164 171,163 171,163 171,162 171,162 171,162 171,162 171,162 171,161 171,161 170,161 170,161 170,161 169,161 169,160 169,160 169,160 169,159 169,159 168,159 168,159 168,159 167,159 167,159 167,159 167,158 166,158 166,158 166,158 165,158 165,158 165,158 164,158 165,158 165,157 165,157 166,155 166,153 166,153 166,152 166,152 166,152 167,152 167,151 167,151 168,151 168,150 168,150 168,150 169,150 169,149 169,149 170,149 170,149 170,149 171,149 171,148 171,148 172,148 172,148 172,148 173,148 173,147 173,147 174,147 174,147 174,147 174,147 172,146 172,146 171,146 171,146 170,146 170,146 170,146 170,146 170,146 169,146 169,145 167,147 166,148 166,149 166,149 166,149 166,149 166,149 163,149 163,149 163,149 162,149 161,149 161,149 160,149 160,148 160,148 159,149 159,149 158,149 157,149 157,150 157,150 156,150 156,150 155,150 154,150 154,150 153,149 153,149 152,148 151,148 151,147 152,145 152,145 152,145 152,144 152,144 152,144 152,144 156,142 157,142 157,142 159,143 159,141 160,141 160,141 159,140 159,140 159,140 159,140 159,139 159,139 159,139 159,138 158,138 158,138 158,138 158,138 157,138 157,138 157,138 156,138 155,138 155,138 154,138 153,137 153,137 152,137 151,136 151,136 151,136 150,136 150,136 149,136 149,136 148,136 148,135 147,135 147,135 146,134 145,135 145,135 145,135 144,135 144,135 143,135 142,136 141,136 140,137 140,137 140,137 139,137 139,138 139,138 139,138 138,138 138,139 137,139 137,139 136,139 136,140 135,140 135,141 135,142 134,142 133,143 132,144 132,144 131,144 131,144 130,145 130,145 130,145 130,145 129,146 129,146 129,146 128,147 127,147 127,147 127,147 126,148 126,148 126,148 126,149 125,149 124,149 124,149 123,149 122,149 121,149 119,149 118,148 117,148 117,148 116,148 116,147 115,147 115,147 114,147 112,147 112,146 112,146 111,146 111,146 110,146 109,146 109,146 107,145 106,145 105,145 104,144 104,144 103,144 103,144 102,144 102,144 97,144 95,144 95,144 95,144 95,144 94,144 94,144 94,144 93,145 93,145 93,145 93,146 93,146 93,146 93,146 92,146 92,146 92,146 92,147 91,147 91,147 91,147 90,147 90,146 88,146 88,146 87,146 87,146 86,146 85,146 84,146 84,146 84,146 83,146 83,145 82,146 82,146 81,145 81,145 80,145 78,145 79,144 77,143 76,143 68,140 68,140 68,140 67,140 67,139 66,139 66,139 65,139 64,139 64,139 63,139 63,139 63,139 62,139 61,139 61,139 61,139 60,139 59,138 58,138 58,138 57,138 57,138 56,138 56,139 55,139 55,139 54,140 54,140 54,141 53,141 53,142 53,142 53,142 53,143 53,143 53,143 53,144 54,144 54,145 54,145 54,145 54,145 53,145 52,145 52,145 51,145 50,146 48,145 49,145 47,144 46,144 46,144 45,144 45,144 44,144 44,144 43,144 43,143 43,143 43,143 43,143 43,143 43,143 43,143 43,142 43,142 43,142 43,142 43,142 43,142 44,142 44,142 44,142 44,142 44,142 44,142 44,142 44,142 44,142 44,141 44,141 44,141 44,141 44,141 44,141 44,141 45,141 45,141 45,141 45,141 45,141 45,141 45,141 45,141 45,140 45,140 46,140 46,140 46,140 46,140 46,139 46,139 47,139 47,138 47,138 47,138 47,138 47,138 47,138 47,138 47,138 47,137 48,137 48,137 48,137 48,137 48,136 47,136 47,136 47,136 47,136 46,136 46,136 46,136 46,137 46,137 45,137 44,137 44,137 43,137 43,137 43,137 42,138 42,138 41,138 41,138 41,138 40,138 40,138 40,138 40,138 40,138 40,138 40,139 40,139 41,139 41,139 41,139 41,139 41,139 41,139 41,139 41,139 43,140 42,141 40,140 40,140 39,141 39,141 38,141 38,141 38,141 37,141 37,141 36,141 35,140 34,140 32,140 32,140 31,140 31,140 30,140 29,140 29,140 28,140 28,140 26,140 26,139 26,139 25,139 26,138 26,138 26,137 26,137 25,136 24,136 24,136 25,135 25,135 25,134 26,134 26,133 25,133 26,132 26,131 26,131 24,130 24,130 23,131 22,130 21,130 21,130 21,129 21,129 21,129 21,129 20,129 19,129 19,129 18,129 17,129 17,129 17,129 16,129 15,129 15,129 15,128 14,128 14,128 13,127 13,127 13,127 12,126 9,124 9,124 9,124 7,123 6,123 5,123 4,123 4,123 3,123 3,122 2,122 1,122 1,122 0,122" id="2706" class="canton" fill="steelblue" stroke-width="1" stroke="white" geotype="canton" geoname="Breteuil" code_insee="2706" code_departement="27" nom_departement="Eure" code_region="28" nom_region="Normandie"/></svg>