<?xml version="1.0" encoding="utf-8"?>
<svg version="1.1" id="svgmap" xmlns="http://www.w3.org/2000/svg" xmlns:xlink="http://www.w3.org/1999/xlink" x="0px" y="0px" width="100%" height="100%" viewBox="0 0 500 202">
<polygon points="101,52 106,50 107,50 108,49 109,49 147,31 147,31 150,25 151,23 153,21 157,16 160,12 160,11 161,5 162,4 164,3 168,0 169,0 170,1 176,3 177,4 179,5 177,6 176,7 174,8 174,8 174,9 174,9 175,10 176,12 177,13 177,14 177,15 178,16 179,18 180,18 181,18 182,18 183,19 183,19 182,20 181,21 180,22 178,23 176,25 176,26 176,28 176,29 175,29 174,30 173,30 172,30 173,33 173,35 173,35 173,36 177,38 177,39 178,39 180,39 182,39 183,39 184,38 186,37 189,36 193,34 194,33 194,32 196,31 197,30 198,29 199,29 199,28 199,28 200,28 202,28 202,28 203,29 204,29 205,29 207,29 210,28 210,27 212,26 213,26 213,26 217,26 218,27 219,27 220,27 222,27 222,27 225,28 225,29 226,29 227,29 228,29 229,29 229,28 230,28 231,28 232,26 233,26 233,25 234,24 237,23 240,22 241,22 244,22 245,21 246,20 247,20 250,20 251,20 251,20 251,19 253,18 254,17 255,16 255,14 256,13 258,12 258,12 261,11 268,11 274,11 277,10 279,11 278,11 280,14 279,14 280,16 279,16 283,21 275,24 276,26 275,29 275,31 276,36 268,37 253,45 251,45 248,47 245,50 238,57 235,54 211,66 210,68 211,67 211,67 216,80 220,77 221,77 225,77 227,77 231,77 231,77 232,78 234,79 234,79 238,78 239,78 244,79 245,79 246,79 249,79 251,80 251,82 259,81 260,82 261,82 261,86 261,90 261,91 257,92 257,93 258,93 260,94 262,94 265,94 268,95 274,96 277,96 285,97 291,99 290,102 296,102 296,104 302,104 302,107 310,107 312,113 311,113 312,119 312,119 312,122 313,122 315,123 317,123 319,123 321,122 321,122 323,122 323,122 323,122 323,123 323,123 324,123 325,123 328,123 329,122 330,122 330,122 331,122 333,121 334,121 336,121 337,120 337,120 338,120 338,120 338,120 338,120 338,120 338,120 339,120 339,120 340,120 341,120 341,120 341,119 342,119 342,119 343,119 343,120 343,120 343,119 344,119 344,119 344,119 341,115 341,115 343,115 344,115 344,115 343,113 342,109 342,109 342,109 343,109 343,109 343,109 341,106 341,106 341,106 340,106 339,106 339,106 338,105 338,104 337,104 337,104 337,104 337,104 335,102 335,102 335,102 336,102 336,101 337,101 337,101 338,101 339,101 339,101 340,101 340,101 339,101 339,100 339,100 340,99 340,99 341,99 341,99 341,100 341,100 343,100 344,100 344,100 344,99 344,100 344,100 345,100 345,100 345,100 346,100 346,100 346,100 346,100 347,100 347,100 347,100 347,100 347,100 347,100 348,100 348,100 348,100 348,100 350,100 350,100 350,100 351,100 351,100 351,100 352,100 352,100 352,100 352,100 352,100 353,100 353,100 353,100 353,100 358,97 359,96 361,95 363,95 366,94 366,94 368,94 369,94 370,93 380,65 379,66 377,66 375,66 373,66 370,65 369,65 369,64 367,63 367,63 365,63 364,63 365,61 364,61 362,58 362,58 361,56 362,56 363,55 364,54 367,55 368,54 371,54 374,53 376,52 373,49 377,47 381,42 381,42 382,41 380,40 382,37 383,36 383,36 380,34 381,33 385,31 385,31 393,32 394,32 395,33 396,33 397,33 398,33 410,33 412,34 415,33 421,31 421,32 422,32 422,32 423,31 424,29 426,29 426,29 430,28 430,28 436,27 436,29 440,29 446,28 445,26 445,25 445,25 445,24 445,24 452,24 455,24 456,28 456,30 457,32 456,36 464,40 468,37 471,39 477,41 477,41 486,48 484,49 481,50 479,52 479,52 490,58 488,60 486,61 489,63 488,64 488,65 489,64 498,68 498,69 499,69 498,70 499,72 499,73 500,73 500,74 499,75 499,76 495,76 494,76 493,76 491,78 490,78 486,79 485,79 485,80 486,81 485,82 484,83 484,83 485,85 485,86 485,86 484,87 484,87 483,88 482,88 480,88 479,88 478,89 478,89 478,90 478,91 478,92 478,92 476,92 476,93 476,94 476,95 475,96 475,96 476,96 477,96 478,96 479,96 479,96 480,96 480,96 481,97 481,97 482,96 483,97 484,97 488,97 490,97 488,98 488,98 488,99 489,99 490,99 490,100 491,100 491,101 490,102 490,103 490,103 490,104 489,104 488,105 486,106 485,107 484,107 483,107 481,109 478,110 480,112 479,112 479,112 481,112 491,116 488,118 486,118 478,121 477,122 472,125 470,126 471,126 468,130 467,129 466,130 465,130 465,130 465,130 463,131 462,132 459,133 458,134 458,135 458,136 456,136 455,136 454,136 451,133 448,130 444,125 444,125 443,124 441,123 448,121 449,121 450,121 450,120 450,120 445,118 444,119 443,120 442,121 441,121 441,121 441,121 440,120 440,120 439,120 439,120 438,120 437,120 436,120 435,120 434,120 433,121 432,121 430,121 427,121 426,122 424,123 422,123 422,124 422,125 421,125 421,125 420,125 419,124 418,124 417,124 417,124 417,125 416,125 416,125 415,125 415,125 414,125 413,124 413,124 413,124 412,124 411,125 411,125 410,126 410,126 409,127 409,127 408,128 407,128 406,128 405,128 404,128 404,128 403,128 402,128 401,128 401,128 400,128 400,129 400,129 399,129 397,130 396,130 393,130 393,130 392,130 392,131 392,131 390,131 389,131 389,132 388,132 388,132 387,132 385,132 384,132 384,132 383,133 383,133 383,134 383,134 382,135 380,135 379,135 378,135 378,135 378,135 378,134 377,134 376,134 375,134 374,134 374,134 373,135 372,135 371,135 370,135 369,135 369,135 368,135 367,135 365,135 365,136 365,136 365,137 365,138 364,139 364,139 363,139 363,139 362,139 360,140 359,140 358,141 358,141 358,142 358,142 359,143 359,143 359,144 359,144 358,145 358,146 357,147 356,148 355,148 355,149 352,148 351,148 350,149 348,150 347,151 346,152 345,152 344,153 342,153 340,153 339,153 338,154 338,154 338,155 336,156 334,156 334,156 331,156 329,157 328,158 328,158 327,158 327,158 326,157 325,156 324,156 324,156 323,155 321,155 320,155 318,155 317,155 316,155 316,154 316,154 315,154 315,153 315,153 315,152 315,152 314,152 313,152 312,151 312,151 311,150 311,150 310,150 310,149 310,149 309,149 309,149 309,149 308,150 308,150 307,150 307,150 307,149 307,149 306,149 306,149 306,149 305,150 304,150 304,150 304,150 303,150 303,150 303,150 303,150 303,149 302,149 302,149 301,149 301,149 301,150 300,150 299,150 298,150 297,150 296,150 290,150 290,149 289,147 288,146 286,146 286,146 286,147 284,147 284,147 283,147 282,148 282,148 281,148 281,147 280,147 280,148 280,148 280,149 280,150 279,150 279,150 278,150 276,150 275,149 275,149 274,151 274,151 271,151 271,151 270,153 269,153 269,153 268,153 267,152 267,152 265,151 265,151 264,152 264,152 264,153 264,153 264,153 263,153 262,153 263,154 263,154 262,156 261,156 261,156 259,155 259,155 259,154 258,154 256,155 252,156 251,156 250,156 249,156 248,156 248,156 249,158 249,158 248,158 247,158 247,159 244,158 244,158 243,158 243,158 242,159 242,160 241,160 241,159 238,159 237,160 237,160 237,160 236,159 235,158 235,156 234,153 234,152 234,151 233,150 230,148 230,148 228,145 228,144 227,143 227,142 226,141 230,137 230,136 229,135 229,134 228,133 226,131 225,131 224,129 223,128 221,126 220,125 217,123 216,121 214,121 214,122 213,122 213,122 211,122 210,122 209,121 208,120 206,119 204,117 200,119 201,121 202,120 203,121 203,121 204,122 205,122 206,122 206,122 207,122 208,123 209,125 211,126 212,126 214,126 215,127 216,127 218,129 220,131 217,137 216,136 214,135 210,132 208,130 206,129 206,128 206,128 204,127 204,126 202,124 202,123 200,124 198,127 203,131 208,135 210,137 215,142 215,142 215,142 214,143 215,144 215,144 214,146 212,146 212,146 212,147 212,147 212,147 212,147 212,148 210,151 209,151 209,153 209,153 209,154 208,154 207,156 207,156 208,157 208,158 209,159 209,160 209,160 209,160 209,161 209,162 209,164 209,165 208,165 208,166 207,166 207,167 206,167 205,169 204,169 203,170 203,171 201,173 200,174 199,176 198,176 198,177 197,178 196,179 196,179 195,180 194,181 192,182 192,182 191,182 191,183 189,183 185,184 181,184 178,185 177,184 171,187 169,188 167,189 164,191 159,193 158,193 156,195 155,196 154,198 154,200 153,201 152,201 152,202 150,202 149,202 148,201 147,201 146,201 145,201 145,200 143,200 142,200 139,200 138,200 137,200 136,200 135,201 134,200 132,200 131,200 131,200 129,198 119,193 119,192 118,191 118,190 117,190 117,190 116,188 116,187 116,187 116,187 115,185 113,184 112,184 112,184 109,182 108,182 104,181 103,180 102,181 102,181 101,181 99,180 98,180 97,179 97,178 97,176 96,175 96,175 93,172 90,171 89,172 88,173 85,175 84,177 80,180 78,182 78,184 78,185 79,186 78,186 77,186 64,192 61,193 58,195 57,195 56,195 56,195 54,196 39,184 30,179 28,177 21,173 15,170 10,166 9,167 0,161 4,158 8,154 6,153 6,153 9,151 28,142 29,141 32,141 38,138 40,138 56,120 58,121 59,120 59,119 61,119 61,118 61,118 60,117 60,117 61,116 62,116 64,114 65,113 65,112 65,112 66,110 66,109 66,108 67,107 70,105 71,105 77,102 80,101 81,100 84,99 86,98 88,97 90,97 90,97 86,95 90,93 90,92 89,92 94,89 93,89 102,82 104,81 104,81 109,78 109,78 106,77 107,76 109,76 116,69 112,61 110,59 109,57 108,56 106,55 101,52" id="2723" class="canton" fill="steelblue" stroke-width="1" stroke="white" geotype="canton" geoname="Vernon" code_insee="2723" code_departement="27" nom_departement="Eure" code_region="28" nom_region="Normandie"/></svg>