<?xml version="1.0" encoding="utf-8"?>
<svg version="1.1" id="svgmap" xmlns="http://www.w3.org/2000/svg" xmlns:xlink="http://www.w3.org/1999/xlink" x="0px" y="0px" width="100%" height="100%" viewBox="0 0 333 500">
<polygon points="91,18 91,18 91,18 91,18 91,18 91,18 91,18 91,18 91,18 92,17 91,17 91,17 91,17 91,17 91,17 91,16 91,16 91,16 91,16 91,16 91,16 91,16 91,16 91,15 92,15 92,15 92,15 92,15 92,15 92,15 93,14 92,14 92,14 92,14 92,14 92,13 92,13 92,13 92,13 92,13 92,13 92,13 92,13 92,13 92,13 92,13 92,13 92,13 92,13 92,13 93,13 93,13 93,13 93,13 93,13 93,13 93,13 93,13 94,13 94,13 94,13 95,13 95,13 95,12 95,12 96,12 96,12 96,12 96,11 96,11 96,11 96,10 96,10 96,10 96,10 95,9 95,9 95,9 95,9 95,9 94,10 94,10 94,10 94,10 94,9 94,9 94,9 94,9 94,9 94,9 94,9 94,9 94,9 94,9 94,9 94,9 94,9 94,9 95,9 95,9 95,9 95,9 95,8 95,8 95,8 95,8 95,8 96,8 96,8 96,8 96,7 96,7 96,7 96,7 96,7 96,7 96,7 96,7 96,7 96,7 96,7 96,6 96,6 95,6 95,6 96,6 96,6 96,6 96,6 96,6 96,6 96,6 96,6 96,6 96,6 96,6 96,6 96,6 96,6 96,6 97,6 97,7 97,7 97,7 97,7 97,7 97,7 97,7 97,7 97,7 98,7 98,7 98,7 98,7 98,7 98,7 98,7 98,7 98,7 98,8 99,8 99,8 99,8 99,8 99,8 99,8 99,8 99,8 99,8 99,8 100,8 100,8 100,8 100,8 100,9 100,9 100,9 100,9 100,9 100,9 100,9 100,9 100,9 100,9 100,10 100,10 101,10 101,10 101,10 101,10 101,10 101,10 101,10 101,10 100,10 100,10 100,10 100,10 99,10 99,10 99,10 99,10 99,10 99,10 98,10 98,10 98,10 98,10 98,10 97,10 97,10 97,11 97,11 97,11 97,12 97,12 97,12 97,12 97,13 97,13 97,13 97,13 97,13 97,13 98,13 97,13 97,13 97,13 97,13 98,13 97,13 97,13 97,14 97,14 98,14 98,14 98,14 98,14 98,14 98,14 98,15 98,15 98,15 98,15 98,15 99,15 99,15 99,15 99,15 99,15 99,15 99,16 99,16 99,16 99,16 99,16 100,16 100,17 100,17 101,17 101,17 101,17 101,17 101,17 101,17 101,17 101,17 101,18 101,18 101,18 100,18 100,18 100,18 100,18 100,18 100,19 100,19 100,19 100,19 100,19 99,19 100,19 100,19 100,20 100,20 100,20 99,20 99,20 99,20 99,20 99,20 99,20 99,20 99,21 98,21 98,21 98,21 98,21 98,21 98,21 98,21 98,21 97,21 97,21 97,21 97,21 97,22 97,22 98,22 98,22 98,23 99,23 99,23 99,23 100,23 100,23 101,24 101,24 101,23 101,23 101,23 101,23 102,23 102,23 102,23 102,23 102,23 102,24 102,23 103,24 103,24 103,24 103,24 103,24 103,24 103,24 103,24 104,24 104,24 104,25 104,25 104,25 104,25 104,25 103,25 103,25 103,25 103,25 103,25 103,25 103,25 102,25 102,25 102,25 102,25 102,25 102,25 102,26 101,26 101,26 101,26 102,26 102,26 102,26 102,26 102,26 102,26 102,26 101,27 101,27 101,27 101,27 102,27 102,27 101,27 101,27 101,27 101,27 101,28 102,28 102,28 102,28 102,28 102,28 102,28 102,28 102,28 102,28 103,28 103,28 103,28 103,28 103,28 103,28 103,29 103,29 103,29 104,29 104,29 105,29 105,28 105,28 105,28 105,28 105,28 105,28 105,28 105,29 105,29 105,29 105,29 105,29 105,29 105,29 105,29 105,29 105,29 105,29 105,29 105,30 105,30 105,30 105,30 105,30 105,30 105,30 105,30 105,30 105,31 105,31 105,31 106,31 106,31 106,31 106,31 107,31 107,31 107,31 107,32 107,32 107,32 107,32 107,32 107,32 107,32 107,32 106,32 106,33 106,33 106,33 106,33 106,33 106,33 106,33 106,33 106,33 105,33 105,33 105,33 105,33 105,33 105,33 105,33 104,33 104,33 104,33 104,33 104,33 103,33 103,33 103,33 102,33 102,33 102,33 102,33 101,34 101,34 101,35 102,35 102,36 102,36 102,36 102,37 102,37 102,37 102,37 102,37 102,38 102,38 102,38 101,38 101,38 101,38 101,39 101,39 101,39 100,38 100,38 100,38 100,38 100,38 100,38 100,39 100,39 100,39 100,39 100,38 100,38 100,38 100,38 100,38 99,38 99,38 99,38 99,38 98,38 98,38 98,38 97,38 97,38 97,38 97,38 97,38 96,38 96,38 96,38 96,38 96,38 96,38 95,38 95,38 95,37 95,37 95,37 95,37 95,37 95,36 95,36 96,36 96,36 96,36 96,36 96,36 97,36 97,36 97,36 97,36 97,36 97,36 98,36 98,36 98,36 99,35 99,35 100,35 100,34 100,33 101,33 101,32 101,32 101,32 101,31 100,31 100,30 99,30 99,30 99,30 99,30 99,29 98,29 98,29 97,28 97,28 97,28 97,28 97,28 96,28 96,28 96,29 96,29 96,29 96,29 96,29 95,29 95,29 95,28 95,28 95,28 95,28 95,28 95,28 95,28 95,28 95,28 95,28 95,28 95,28 95,27 95,27 95,27 95,27 95,27 95,27 95,27 95,27 95,27 95,26 95,26 95,26 95,26 95,26 95,26 95,26 95,26 95,25 96,25 96,24 96,24 96,24 96,23 96,23 96,23 96,23 96,22 96,22 96,21 96,21 95,21 95,21 95,21 95,20 95,20 94,20 94,20 94,20 94,20 94,20 94,20 94,20 94,20 94,20 94,20 94,20 94,20 94,20 93,20 93,20 93,19 93,19 93,19 93,19 93,19 93,19 93,19 93,19 93,19 92,19 92,18 92,18 92,18 92,18 92,18 91,18 91,18 91,18 91,18 91,18" id="2917" class="canton" fill="steelblue" stroke-width="1" stroke="white" geotype="canton" geoname="Morlaix" code_insee="2917" code_departement="29" nom_departement="Finistère" code_region="53" nom_region="Bretagne"/><polygon points="106,41 106,41 107,41 107,41 107,41 106,41" id="2917" class="canton" fill="steelblue" stroke-width="1" stroke="white" geotype="canton" geoname="Morlaix" code_insee="2917" code_departement="29" nom_departement="Finistère" code_region="53" nom_region="Bretagne"/><polygon points="165,27 166,27 167,27 168,27 168,29 167,30 167,31 166,31 166,29 165,29 165,29 165,27" id="2917" class="canton" fill="steelblue" stroke-width="1" stroke="white" geotype="canton" geoname="Morlaix" code_insee="2917" code_departement="29" nom_departement="Finistère" code_region="53" nom_region="Bretagne"/><polygon points="68,71 68,71 68,71 68,71 68,71 69,71 69,71 69,70 70,70 70,71 70,71 71,71 71,71 71,71 71,71 71,72 71,72 71,72 71,72 70,72 70,72 70,72 70,72 70,72 69,72 69,72 69,72 69,72 68,72 68,71 68,71 68,71 68,71 68,71 68,71 68,71" id="2917" class="canton" fill="steelblue" stroke-width="1" stroke="white" geotype="canton" geoname="Morlaix" code_insee="2917" code_departement="29" nom_departement="Finistère" code_region="53" nom_region="Bretagne"/><polygon points="127,51 127,51 127,51 128,51 128,51 128,51 128,51 128,51 128,52 127,52 127,52 127,51 127,51 127,51" id="2917" class="canton" fill="steelblue" stroke-width="1" stroke="white" geotype="canton" geoname="Morlaix" code_insee="2917" code_departement="29" nom_departement="Finistère" code_region="53" nom_region="Bretagne"/><polygon points="162,44 162,44 162,44 162,44 162,44 162,44 162,43 162,43 162,43 162,43 162,43 162,43 162,43 162,43 162,43 163,43 163,43 163,43 163,43 163,43 164,43 164,44 164,44 164,44 164,44 165,44 165,44 165,44 165,44 166,45 166,45 166,45 166,45 166,45 166,45 166,45 166,45 166,46 166,46 166,46 165,46 165,46 165,46 165,46 165,46 165,46 165,46 165,46 165,46 165,46 165,46 165,46 165,46 165,46 164,46 164,46 164,46 164,46 164,46 164,46 164,46 164,46 164,46 164,46 164,45 164,46 164,46 164,45 164,45 164,45 164,45 164,45 164,45 164,45 164,45 164,45 164,45 164,44 164,45 163,44 163,44 163,44 163,44 163,44 163,44 163,44 162,44 162,44 162,44 162,44" id="2917" class="canton" fill="steelblue" stroke-width="1" stroke="white" geotype="canton" geoname="Morlaix" code_insee="2917" code_departement="29" nom_departement="Finistère" code_region="53" nom_region="Bretagne"/><polygon points="149,21 149,20 150,20 150,19 151,19 151,19 153,20 153,21 152,21 152,22 152,22 152,23 150,23 150,22 149,22 149,22 149,21" id="2917" class="canton" fill="steelblue" stroke-width="1" stroke="white" geotype="canton" geoname="Morlaix" code_insee="2917" code_departement="29" nom_departement="Finistère" code_region="53" nom_region="Bretagne"/><polygon points="113,44 113,44 114,43 114,43 114,44 114,44 115,44 115,44 114,44 114,44 114,44 114,44 113,44 113,44" id="2917" class="canton" fill="steelblue" stroke-width="1" stroke="white" geotype="canton" geoname="Morlaix" code_insee="2917" code_departement="29" nom_departement="Finistère" code_region="53" nom_region="Bretagne"/><polygon points="93,34 93,34 94,34 94,34 94,34 94,34 94,34 94,34 94,34 94,34 94,34 94,34 94,34 94,34 95,34 95,35 95,35 95,35 95,35 95,35 94,35 94,35 94,35 94,35 94,35 94,35 94,35 94,35 94,35 94,35 94,35 94,35 94,35 94,35 94,35 94,35 94,35 94,35 94,35 94,35 94,35 94,35 94,35 93,35 93,34" id="2917" class="canton" fill="steelblue" stroke-width="1" stroke="white" geotype="canton" geoname="Morlaix" code_insee="2917" code_departement="29" nom_departement="Finistère" code_region="53" nom_region="Bretagne"/><polygon points="94,41 94,41 94,41 94,41 94,41 94,41 94,41 94,41 94,41 95,41 95,41 95,41 95,41 95,42 95,42 95,42 94,42 94,42 94,42 94,42 94,42 94,42 94,42 94,42 94,41 94,41 94,41 94,41 94,41" id="2917" class="canton" fill="steelblue" stroke-width="1" stroke="white" geotype="canton" geoname="Morlaix" code_insee="2917" code_departement="29" nom_departement="Finistère" code_region="53" nom_region="Bretagne"/><polygon points="146,50 146,49 147,48 148,49 149,49 148,50 148,51 147,50 147,50 146,50" id="2917" class="canton" fill="steelblue" stroke-width="1" stroke="white" geotype="canton" geoname="Morlaix" code_insee="2917" code_departement="29" nom_departement="Finistère" code_region="53" nom_region="Bretagne"/><polygon points="90,5 90,5 90,5 90,5 90,5 90,5 90,5 90,5 90,5 90,5" id="2917" class="canton" fill="steelblue" stroke-width="1" stroke="white" geotype="canton" geoname="Morlaix" code_insee="2917" code_departement="29" nom_departement="Finistère" code_region="53" nom_region="Bretagne"/><polygon points="80,174 80,174 81,175 82,173 82,172 81,171 79,169 78,169 77,168 75,167 74,167 73,165 73,165 72,164 72,164 72,164 72,164 72,162 73,161 73,161 74,161 73,160 74,160 74,159 74,159 74,158 73,158 73,158 73,155 72,155 70,154 69,154 68,154 68,153 68,152 68,149 67,148 66,147 66,147 67,147 68,147 69,147 71,148 73,148 75,147 72,147 72,146 69,146 66,145 65,145 64,144 65,143 64,143 63,142 63,141 62,141 62,141 61,140 60,139 59,138 58,138 56,137 54,137 54,137 54,136 54,135 55,134 55,133 54,132 54,131 54,130 54,128 54,127 54,126 54,125 55,123 55,121 55,119 56,119 56,117 56,115 56,114 56,113 56,113 57,112 58,111 58,111 58,110 58,110 58,109 59,108 59,107 59,106 59,104 58,104 58,103 58,103 58,103 58,102 59,102 59,102 60,103 61,103 61,103 62,103 62,103 62,103 63,103 63,103 64,103 65,103 66,103 67,103 67,103 67,103 68,102 68,102 68,102 67,102 67,102 67,102 66,102 65,102 65,102 65,102 64,102 63,102 62,102 61,101 60,101 59,101 59,101 58,100 58,100 58,100 57,99 57,99 57,99 57,99 56,98 56,98 56,98 55,98 55,97 55,97 55,97 55,97 54,96 54,95 54,95 54,94 55,94 53,92 53,92 52,91 52,91 53,91 53,91 53,91 53,89 53,88 53,86 54,85 54,84 54,83 55,83 55,83 56,83 57,83 57,84 58,84 59,84 59,83 60,83 60,83 61,83 62,83 62,82 62,82 62,82 64,82 65,81 67,81 68,80 69,79 69,79 69,79 69,78 69,78 70,78 70,78 70,77 70,77 70,77 70,76 70,76 69,76 69,75 69,75 69,75 69,75 69,75 69,75 69,75 69,74 70,74 70,74 70,74 70,74 70,74 70,74 71,73 71,73 71,73 72,74 72,74 72,74 72,74 72,75 72,75 72,75 73,75 73,75 73,76 73,76 74,76 74,76 74,76 74,76 74,76 74,76 75,76 75,76 75,76 76,76 76,76 77,76 77,76 77,76 78,76 79,76 79,76 79,76 80,76 82,76 82,76 82,76 83,76 83,76 84,76 85,76 85,76 86,76 86,76 86,76 86,75 86,75 86,76 86,76 86,76 87,76 87,76 87,75 88,75 88,75 89,75 89,75 89,75 89,74 89,74 89,74 89,74 89,74 89,74 89,74 89,73 89,73 89,73 89,73 89,73 90,73 90,73 90,73 90,73 90,72 90,72 91,72 91,72 91,71 91,71 92,71 92,71 92,71 92,71 92,70 92,70 92,70 92,70 92,70 92,70 92,70 92,69 92,69 92,69 92,69 92,69 92,69 92,69 92,69 92,69 92,68 92,68 92,68 93,68 93,68 93,68 92,68 92,68 92,67 92,67 92,67 92,67 92,67 92,67 92,67 92,66 92,66 92,66 92,66 92,65 92,65 93,65 93,65 93,65 93,65 93,65 93,65 93,64 93,64 93,64 93,64 93,64 93,64 93,64 94,63 94,63 94,63 94,62 94,62 94,61 94,61 94,61 94,61 94,61 95,61 95,61 95,61 95,61 95,61 95,61 95,61 96,60 96,60 97,59 97,59 97,59 97,59 97,59 97,59 97,58 97,58 97,58 97,58 97,58 98,57 98,57 99,56 99,56 99,56 99,55 99,55 100,55 100,54 100,54 101,53 101,53 101,52 101,52 101,52 100,52 99,52 99,52 98,51 98,51 98,52 99,52 99,52 100,52 99,52 100,52 100,52 101,52 101,52 101,52 101,51 101,51 101,50 101,50 101,49 100,49 100,49 100,49 100,48 100,48 100,48 100,48 100,48 100,48 100,48 100,48 100,48 101,48 101,48 100,47 101,47 101,47 101,47 101,47 101,47 101,47 101,47 101,46 101,46 101,45 101,45 101,46 102,46 102,46 102,46 102,46 102,46 102,46 102,45 102,45 103,46 102,46 102,46 103,46 103,46 103,46 104,47 105,47 105,47 106,48 106,48 106,48 106,48 106,48 107,48 107,48 107,48 107,48 107,48 107,48 107,48 107,48 107,48 107,48 107,48 107,49 107,49 108,49 108,49 108,49 109,49 109,49 109,49 109,49 110,49 110,49 111,50 111,50 111,50 112,50 112,50 112,50 112,50 113,50 113,50 113,50 113,50 113,50 114,50 114,50 114,49 114,49 114,49 114,49 115,49 115,49 115,49 115,49 115,49 116,49 116,49 116,49 116,49 116,49 117,49 117,49 117,49 117,49 117,49 117,49 117,49 118,50 118,50 118,50 118,50 118,50 119,51 119,51 119,51 119,51 119,52 118,52 118,52 118,52 118,52 118,52 118,53 118,53 118,53 119,53 119,53 119,53 119,53 119,53 119,54 119,54 119,54 119,54 119,54 119,54 119,55 120,55 120,55 121,54 121,53 121,53 121,54 120,55 120,55 120,55 121,55 122,55 122,55 123,56 123,56 123,56 124,56 124,56 125,56 126,56 127,56 127,55 127,55 127,55 127,55 128,55 128,54 127,54 127,54 128,54 128,53 128,53 128,53 128,53 128,55 127,56 127,56 127,56 128,56 128,56 128,56 128,56 128,55 128,55 128,55 128,55 128,55 128,55 128,55 128,54 128,54 128,54 128,54 128,54 128,54 129,54 129,54 129,54 129,54 129,54 129,55 129,55 130,55 130,55 131,55 132,55 132,55 133,55 133,54 133,54 133,54 133,54 133,54 133,54 133,54 134,54 134,54 134,54 134,54 134,54 135,54 135,54 135,54 135,54 136,54 136,54 136,54 136,54 136,54 137,54 137,54 138,54 139,54 140,54 140,54 141,53 141,53 141,53 141,53 141,53 141,52 141,52 141,52 141,52 141,52 141,52 141,52 141,52 141,52 141,52 141,51 141,51 141,51 141,51 141,51 140,51 141,51 141,50 140,50 140,50 140,50 140,50 140,50 140,50 139,50 139,49 139,49 139,49 139,49 139,49 140,49 140,49 140,49 140,49 140,49 140,49 141,49 141,49 141,49 141,49 142,50 142,50 143,50 143,50 143,50 143,50 143,51 143,51 143,51 143,51 143,51 144,51 144,52 145,52 145,52 145,52 146,52 146,52 146,52 146,52 147,52 147,52 147,52 147,52 148,52 148,52 148,53 149,53 149,53 149,53 149,53 150,53 150,53 150,53 151,53 151,53 151,53 151,53 152,53 152,53 152,53 152,53 153,53 153,53 153,53 153,53 154,53 154,53 154,53 155,54 155,54 155,54 155,54 155,54 155,54 155,54 155,54 155,54 155,55 155,55 154,55 154,56 154,56 155,56 155,57 155,57 156,57 155,57 155,57 155,57 155,58 155,58 155,58 155,58 155,59 155,59 155,59 155,59 154,59 154,59 154,59 154,60 154,60 154,60 154,60 154,60 154,60 154,60 153,60 153,60 153,60 153,60 153,60 152,60 152,61 152,61 152,61 152,61 151,61 151,61 151,61 151,61 151,61 151,61 150,61 150,61 150,61 150,61 150,61 150,61 150,61 149,61 149,61 149,61 149,61 149,61 149,61 149,61 149,61 149,61 149,61 148,61 148,61 148,61 148,61 148,61 148,61 148,61 148,61 148,61 148,61 147,61 147,61 147,61 146,61 146,61 145,61 145,61 145,61 145,61 144,62 144,62 144,62 143,62 143,62 143,62 143,62 143,62 143,62 143,62 143,62 142,62 143,62 142,63 142,63 142,63 142,63 142,63 141,63 141,63 141,63 140,63 140,63 140,63 140,63 139,63 139,63 139,63 139,63 139,63 139,63 139,63 138,63 138,64 137,64 137,64 136,64 136,64 135,64 135,64 135,64 135,64 135,64 134,64 134,64 134,64 134,64 134,64 133,64 133,64 132,64 132,64 132,65 132,65 131,65 131,65 130,66 130,66 130,67 129,68 129,68 129,69 129,70 129,71 129,72 129,72 130,73 130,74 131,75 131,76 132,77 132,77 133,78 134,79 135,80 136,80 136,80 136,80 136,80 136,80 136,80 135,80 135,81 135,81 135,81 135,82 135,82 136,83 136,84 136,84 137,85 138,86 138,86 138,86 138,87 139,87 139,88 140,88 140,89 140,89 141,89 142,90 142,90 142,90 142,90 142,91 142,92 142,92 141,92 141,93 142,93 142,93 143,94 143,95 143,95 144,95 145,95 145,95 145,96 146,96 147,97 147,97 147,97 147,97 147,97 147,97 147,97 147,97 148,97 148,98 148,98 148,98 148,98 149,98 149,99 149,99 150,99 150,99 150,99 151,99 151,100 151,100 152,100 152,100 152,100 152,100 153,100 154,101 155,101 155,101 156,101 156,101 157,102 157,102 158,102 159,102 159,102 159,103 160,103 161,103 163,104 163,104 163,104 163,104 164,104 166,105 167,105 169,105 169,105 169,105 169,105 171,106 171,106 171,106 171,106 171,106 171,106 174,106 177,107 179,107 180,107 181,108 182,109 183,110 184,110 185,111 187,111 188,111 188,112 189,112 190,112 192,112 194,113 196,113 198,114 199,114 199,115 200,115 201,115 202,116 204,117 206,118 206,118 207,119 207,119 208,120 207,120 206,119 207,121 208,122 208,122 208,123 208,123 209,124 210,125 210,126 210,126 210,127 211,127 212,129 212,130 212,131 212,131 211,131 211,132 211,132 211,136 211,137 211,138 211,139 210,139 210,140 209,140 209,141 208,141 207,142 207,142 206,143 204,145 204,145 203,146 203,147 203,147 202,148 202,149 202,149 202,149 202,150 203,150 204,151 204,151 204,151 204,152 205,152 205,153 206,153 207,154 210,157 210,157 210,157 211,157 212,158 213,159 214,159 217,161 219,161 219,161 220,162 220,162 220,163 221,163 221,162 222,162 222,162 222,162 221,161 221,161 220,160 219,159 219,159 218,159 217,158 217,158 216,158 216,157 215,157 214,156 213,156 212,155 211,155 211,155 210,154 209,153 208,153 208,152 208,152 207,151 207,150 206,149 206,148 207,148 207,148 206,148 206,147 207,147 207,147 207,146 208,146 208,145 209,145 209,145 210,144 210,144 211,144 212,143 213,143 213,142 213,142 214,141 214,140 214,140 215,139 215,138 216,138 218,137 218,137 219,137 219,136 218,135 218,135 218,135 219,135 219,134 219,134 220,133 221,132 223,131 224,130 226,128 227,128 227,127 228,127 229,126 230,126 231,126 233,127 233,127 235,126 235,126 236,127 237,127 237,129 238,130 239,131 240,131 242,132 242,131 241,131 240,130 239,129 238,128 238,127 238,126 238,125 238,125 239,124 239,124 240,124 241,124 241,124 241,125 242,125 243,125 244,125 244,125 245,124 246,124 247,124 248,124 248,124 250,124 251,124 252,124 253,124 253,125 254,125 254,126 255,126 256,126 256,126 256,126 257,126 258,126 259,126 260,126 261,125 261,125 262,125 263,124 263,124 264,123 264,123 265,122 265,121 266,121 267,122 267,122 267,123 267,123 268,123 268,124 268,124 269,125 269,125 270,125 271,125 271,125 272,125 272,125 273,125 274,125 274,125 274,125 274,124 274,124 275,124 275,124 276,124 277,124 277,124 278,123 278,123 279,123 280,123 280,124 281,124 281,123 281,123 282,123 282,124 283,124 283,124 284,123 284,124 285,123 285,123 285,123 287,123 287,123 287,123 287,123 287,123 288,123 288,124 288,124 288,124 288,124 288,125 288,125 288,125 288,125 288,126 288,126 288,126 288,126 288,126 289,127 289,127 289,127 289,127 289,127 289,127 289,128 289,128 290,128 290,128 290,128 290,129 291,129 291,129 291,129 290,129 290,129 290,129 291,129 291,130 291,130 292,130 292,131 292,131 292,131 292,131 294,131 294,131 294,131 294,131 294,131 295,131 295,131 295,131 296,131 296,131 296,131 297,132 297,132 297,132 297,132 297,132 298,132 298,132 298,132 298,132 298,132 299,132 299,132 299,132 299,132 299,132 299,132 299,133 299,133 299,133 299,133 300,134 300,134 299,134 299,134 299,134 300,134 300,134 300,134 300,134 301,135 302,135 302,135 302,135 303,134 303,134 303,134 304,133 304,133 304,133 304,133 304,133 304,132 304,132 305,132 305,132 305,132 306,132 306,132 307,132 307,132 307,132 307,132 307,132 308,132 308,133 308,133 308,133 308,133 308,133 308,133 308,134 308,134 308,134 308,134 308,134 308,135 308,135 308,135 308,135 308,135 308,135 308,135 308,136 308,136 308,136 308,136 308,136 308,136 308,136 308,137 308,137 308,137 308,137 309,137 309,137 309,138 309,138 309,138 309,138 309,139 309,139 309,139 309,139 308,139 308,139 308,140 308,140 308,140 308,140 308,140 307,140 307,140 307,140 307,140 307,140 307,140 306,140 306,140 306,140 306,140 306,140 305,140 305,141 305,141 305,141 305,141 304,141 304,142 304,142 305,142 305,142 305,142 305,143 305,143 305,143 306,143 306,143 306,143 307,143 307,143 307,143 307,144 307,144 307,144 307,144 308,144 308,144 308,144 308,144 308,144 308,144 309,144 309,143 309,143 309,143 309,144 309,144 309,144 309,144 309,144 309,144 309,144 309,144 309,144 310,144 310,144 310,144 310,144 310,144 310,144 310,144 310,144 310,144 310,144 310,145 310,145 310,145 310,145 310,145 311,145 311,145 311,145 311,145 312,145 313,146 314,146 314,146 314,146 314,147 315,147 315,147 315,147 315,147 315,147 315,147 315,147 315,148 315,148 315,147 315,147 315,148 315,148 315,148 316,148 316,148 316,148 316,148 317,148 317,148 317,148 317,149 317,149 317,149 317,150 318,150 318,150 319,151 319,151 319,151 320,151 320,151 320,151 320,151 320,150 320,150 320,150 320,151 320,151 321,151 321,151 321,151 321,151 321,151 321,151 321,151 321,151 321,151 321,152 321,152 321,152 321,152 321,152 321,152 321,152 321,152 321,152 321,152 320,152 320,152 320,152 320,152 320,152 320,152 320,152 320,152 320,152 320,151 320,151 320,151 319,151 319,151 319,151 319,151 319,152 319,152 319,152 319,152 319,152 319,152 319,152 319,152 319,153 319,153 319,153 319,153 319,153 319,153 319,153 319,153 319,153 319,153 319,153 319,154 319,154 319,154 319,154 319,154 319,154 319,154 319,154 319,154 320,154 320,154 320,154 320,154 320,154 320,154 320,155 320,155 320,155 320,155 320,155 319,155 320,155 321,156 321,157 321,157 321,157 322,158 323,159 324,159 324,159 324,159 324,160 324,160 325,160 325,160 325,160 325,160 325,160 325,160 325,161 325,161 325,161 325,161 325,161 325,161 326,161 326,162 326,162 326,162 327,162 327,162 327,162 327,162 327,162 327,162 327,162 327,163 328,163 328,163 328,163 328,163 328,163 328,163 328,163 328,163 327,164 327,164 327,164 327,164 327,164 327,164 328,165 329,165 329,165 329,165 329,165 329,165 329,165 329,165 329,165 329,166 329,166 329,166 329,166 329,166 329,167 329,167 330,167 330,167 330,167 330,168 330,168 330,168 330,168 330,168 329,168 329,168 329,168 329,169 329,169 329,169 329,169 329,169 329,169 329,169 329,169 329,169 329,170 329,170 329,170 329,170 330,170 330,170 330,170 330,170 330,170 330,170 330,170 330,170 330,171 330,171 331,171 331,171 331,171 331,171 331,171 331,171 331,171 331,172 331,172 332,172 332,172 332,172 332,172 332,172 332,173 332,173 332,173 332,173 332,173 332,173 331,174 331,174 331,174 331,174 331,174 331,175 331,175 331,175 331,175 331,175 332,176 332,176 332,176 332,176 332,176 332,176 332,176 332,176 332,176 332,176 332,176 332,176 332,177 332,177 332,177 332,177 333,177 333,177 333,178 333,178 333,178 333,178 333,178 333,178 332,178 332,178 333,178 332,178 332,179 332,179 332,179 332,179 332,179 332,179 332,179 332,179 332,179 332,179 332,180 332,180 332,180 332,180 332,180 332,180 331,180 331,180 331,181 331,181 331,181 331,181 331,181 331,181 331,181 331,182 330,182 330,182 330,182 330,182 330,182 330,182 330,182 330,182 329,183 329,183 329,183 329,183 329,183 328,183 328,183 328,183 328,183 328,183 328,183 327,183 327,184 327,184 326,184 326,184 326,184 326,184 326,184 326,184 326,185 326,185 326,185 325,185 325,185 325,186 325,186 325,186 323,186 323,186 323,186 323,186 322,186 322,187 322,187 318,188 318,188 318,188 318,189 318,189 319,190 319,190 319,190 319,190 320,191 319,191 316,192 315,192 315,192 315,192 315,192 314,192 314,192 314,193 315,194 315,195 316,196 316,197 317,198 318,200 319,201 319,201 320,202 320,202 320,202 321,203 320,203 317,204 317,204 316,204 316,204 316,204 315,204 315,204 315,204 314,205 313,205 313,205 313,206 312,206 312,206 312,206 311,206 311,206 310,206 310,206 309,207 309,207 309,207 309,207 309,207 309,207 308,207 308,207 308,207 308,207 307,208 307,208 307,208 307,208 307,208 307,208 307,209 307,209 308,210 308,210 307,211 307,211 307,211 307,211 306,211 306,211 306,211 306,210 305,209 304,209 304,208 304,208 304,208 303,208 303,208 302,207 301,206 301,206 301,206 301,206 300,207 300,207 300,207 300,207 300,207 300,207 300,207 299,207 299,207 299,207 298,207 298,207 298,207 297,207 297,207 296,208 296,208 295,208 295,209 295,209 294,209 294,209 293,209 293,209 291,208 291,208 291,208 290,208 290,208 289,208 289,208 288,209 288,209 288,209 288,209 287,210 287,210 287,210 287,211 287,211 287,212 286,212 286,212 286,212 286,212 286,212 286,212 286,213 286,213 285,213 285,213 285,213 285,213 285,213 285,214 285,214 285,214 285,214 285,214 285,214 285,215 285,215 285,215 285,215 285,215 286,215 286,215 286,215 286,215 287,216 288,216 288,217 288,217 288,217 288,217 288,217 290,218 290,218 290,219 291,219 291,219 292,219 292,219 293,219 294,219 296,219 296,219 296,220 296,220 296,220 297,220 297,220 298,220 298,220 300,221 300,221 300,221 300,221 301,221 301,221 301,221 301,221 301,221 302,221 302,221 302,221 302,222 302,222 303,223 303,223 303,223 303,223 304,224 304,224 304,225 304,225 304,225 304,225 304,225 304,225 304,225 304,225 304,225 304,225 304,225 304,225 304,226 304,226 305,226 305,226 305,226 305,226 305,227 305,227 305,227 305,227 306,227 306,227 306,227 306,228 306,228 306,228 306,228 306,229 306,229 306,229 306,229 306,229 306,229 306,229 306,229 306,230 305,230 305,230 305,230 305,230 305,230 305,231 305,231 305,231 305,231 305,232 305,232 304,232 304,232 303,232 303,231 302,231 302,232 301,232 300,232 300,232 300,232 300,231 300,231 299,231 299,230 299,230 298,231 297,231 297,231 297,230 297,230 296,230 296,230 295,230 294,230 294,230 293,229 293,229 293,229 293,229 291,230 291,230 289,231 289,231 289,231 289,231 289,231 288,230 288,230 288,230 288,230 287,229 287,229 286,228 285,227 285,227 285,226 285,226 284,226 284,225 284,225 283,225 283,224 283,224 283,224 282,224 282,223 282,223 281,223 281,222 281,222 280,221 280,221 280,221 280,221 279,221 280,221 279,221 279,221 279,220 279,220 279,221 277,219 275,218 274,218 273,217 272,216 272,216 271,216 271,216 271,216 270,216 270,216 270,216 270,216 270,216 270,216 269,216 269,216 269,216 269,216 269,217 269,217 269,217 269,217 269,217 268,217 268,217 268,217 268,217 268,217 267,217 267,217 267,217 268,217 268,218 268,218 268,218 268,219 268,219 268,220 268,220 269,220 269,221 269,221 268,222 268,222 268,222 268,223 268,223 268,223 268,223 268,224 268,224 267,225 267,226 267,226 266,226 266,226 266,226 266,227 266,227 265,227 265,228 264,228 264,228 264,228 263,228 263,228 263,228 262,228 262,228 262,227 262,227 261,228 261,228 261,228 261,227 261,227 261,227 260,227 260,227 260,227 259,227 259,227 259,227 259,227 258,227 258,227 257,226 257,226 256,226 256,226 256,226 254,226 253,225 253,225 252,225 252,225 252,225 250,225 250,225 250,225 249,225 248,225 247,225 246,225 246,225 246,225 246,225 245,225 245,225 245,225 245,225 245,225 245,225 245,225 244,225 244,225 244,225 244,225 244,225 245,225 245,225 245,225 245,226 245,226 245,226 245,226 245,227 245,227 245,227 245,227 245,228 245,228 245,228 245,228 244,228 244,229 244,229 243,229 243,230 243,230 243,230 243,230 243,230 243,230 243,230 243,231 242,231 242,231 242,231 242,232 242,232 242,232 241,232 241,233 241,233 241,233 241,233 241,233 241,233 241,235 242,235 241,236 242,236 242,237 242,237 242,237 242,237 242,238 242,238 242,239 242,239 243,239 243,239 243,239 243,239 243,239 243,240 244,240 244,240 244,241 244,241 244,242 244,242 244,242 245,243 245,243 245,244 245,244 245,244 245,244 245,245 245,245 244,246 244,246 244,246 244,247 245,247 245,248 245,248 246,249 246,249 246,249 246,249 247,249 247,249 247,249 247,249 247,250 246,250 246,250 246,250 246,251 246,251 246,251 246,251 247,252 247,252 247,252 247,252 247,252 247,252 247,253 247,253 247,253 247,253 248,253 248,253 249,253 249,253 249,253 249,254 249,254 249,254 249,254 250,254 250,254 250,254 250,254 250,254 250,254 250,254 250,254 250,254 250,254 250,254 250,254 250,254 250,254 250,254 250,254 251,254 251,254 252,255 251,255 251,255 251,255 251,255 251,255 251,255 251,256 251,256 251,256 251,256 251,256 252,256 252,256 252,256 252,256 252,257 252,257 252,257 251,257 251,257 251,257 251,257 251,258 251,258 251,258 251,258 251,258 253,258 253,258 253,258 253,258 254,258 254,258 254,258 254,258 254,258 255,258 255,257 255,257 256,257 256,257 256,257 257,257 257,257 257,258 257,258 257,258 257,258 257,258 257,258 257,258 258,258 258,258 258,258 258,259 258,259 258,259 258,259 258,259 259,258 259,258 259,259 259,259 259,259 260,260 260,260 260,260 261,260 261,260 261,260 261,260 261,261 261,261 261,261 261,262 261,263 261,263 261,263 261,263 261,264 261,264 261,264 261,264 261,264 262,264 262,264 262,265 262,265 262,265 262,265 262,266 262,266 262,266 262,266 262,266 261,266 261,267 261,267 261,267 261,267 261,267 261,267 261,267 261,267 261,267 260,267 260,267 260,268 260,268 260,268 260,268 260,268 260,268 260,268 260,269 259,269 259,269 259,269 260,269 260,270 260,270 260,270 260,270 259,271 259,271 259,271 259,271 259,271 259,272 259,272 259,272 259,272 259,273 259,273 258,273 258,273 258,274 258,274 258,274 258,274 258,274 258,274 258,275 257,275 257,275 257,275 257,275 257,275 257,275 257,276 257,276 256,276 256,276 256,276 255,276 255,276 255,276 256,277 256,277 256,277 256,278 255,279 255,279 255,279 255,279 255,279 256,279 256,279 256,279 256,279 256,279 256,280 256,280 256,280 256,280 256,280 256,280 256,281 256,281 257,281 257,281 257,281 257,281 257,281 257,282 256,282 256,283 255,283 255,283 255,283 255,283 255,283 254,283 253,283 253,284 254,284 254,284 254,284 253,284 253,284 253,285 253,285 253,286 253,286 253,286 252,286 252,286 252,286 252,286 251,286 251,287 251,287 251,287 251,287 251,287 251,287 251,287 252,287 251,287 251,287 251,288 251,288 251,288 251,288 251,288 251,289 251,289 251,289 251,289 251,290 251,290 251,290 251,290 251,290 251,291 251,291 251,291 251,291 250,291 250,291 250,291 250,291 250,292 249,293 249,293 249,293 248,293 248,293 247,294 247,294 247,295 246,296 245,296 245,296 245,296 244,296 244,297 243,297 243,297 243,298 242,298 241,299 241,299 241,300 241,300 241,301 240,301 240,302 240,302 240,302 240,302 240,303 240,303 240,303 240,303 240,304 240,304 241,304 241,304 241,305 241,305 242,305 242,305 243,305 243,305 243,306 243,306 243,306 243,306 244,307 244,307 244,307 244,307 244,307 244,307 244,307 244,308 244,308 244,308 245,308 245,309 245,309 245,309 245,309 245,309 245,310 245,310 245,310 245,311 245,311 245,311 245,311 245,311 245,312 245,312 245,312 244,312 244,312 244,312 243,313 243,313 243,313 243,313 242,313 242,313 242,314 242,314 242,314 242,314 242,314 242,315 242,315 242,315 242,315 242,315 241,315 241,316 241,316 241,316 241,316 242,317 242,317 242,317 243,317 243,318 243,318 242,318 242,318 242,319 243,319 243,320 243,320 244,320 244,321 244,321 244,321 245,322 245,322 245,322 245,322 245,322 246,322 246,323 246,323 246,323 246,323 246,323 246,323 246,323 246,324 246,324 246,324 246,325 246,324 246,324 246,324 246,324 246,324 247,324 247,324 247,324 247,324 248,324 248,324 248,324 248,324 248,324 249,324 249,324 249,325 249,325 249,325 249,325 249,325 249,326 250,326 250,326 251,326 251,327 251,327 252,328 252,328 252,328 253,328 253,328 253,328 253,329 253,329 253,329 253,329 253,329 253,329 252,329 252,329 252,329 253,330 253,330 253,330 253,330 252,330 252,330 252,330 252,331 252,331 251,332 251,332 251,332 251,333 251,333 251,333 251,333 251,334 251,334 251,334 251,334 251,335 251,335 251,335 251,335 251,335 252,336 252,336 252,336 252,336 252,336 252,336 252,337 252,337 252,337 252,337 252,337 252,337 252,337 253,338 253,338 253,338 253,338 254,339 254,339 254,339 254,339 253,339 253,339 253,340 254,340 254,340 254,340 254,340 254,340 254,341 254,341 254,341 254,341 254,341 255,342 255,342 255,342 255,342 254,342 254,342 254,342 254,343 253,343 253,343 254,343 254,343 254,343 254,344 255,344 255,344 255,344 255,344 255,344 255,344 255,344 255,345 255,345 255,345 256,345 256,345 256,345 256,345 256,345 256,345 256,345 256,346 256,346 256,346 256,346 256,346 256,346 256,347 257,347 257,347 257,348 257,348 257,348 257,349 257,349 257,349 257,349 257,349 258,350 258,350 258,350 258,350 259,351 259,351 259,351 259,351 259,352 260,353 260,353 260,353 260,354 260,354 260,355 260,355 261,355 261,355 261,356 261,356 261,356 261,356 260,356 260,356 260,356 260,356 260,356 260,356 260,356 260,357 260,357 260,357 260,358 260,358 261,358 261,358 261,358 261,358 261,359 262,360 262,360 262,360 262,361 262,361 262,361 262,361 262,362 262,362 262,362 261,362 261,362 261,363 262,363 262,363 261,363 261,363 261,363 261,364 261,364 261,364 261,364 261,364 261,364 261,364 261,365 260,365 260,365 260,365 260,365 261,365 261,365 261,365 261,366 261,366 261,366 261,366 261,367 261,367 261,367 261,367 261,368 261,368 261,368 261,368 261,368 260,369 260,370 260,370 260,370 260,370 260,371 260,371 260,371 260,371 260,371 259,371 259,371 259,371 259,371 259,371 259,372 259,372 259,372 258,372 258,372 258,372 258,373 258,373 257,373 257,373 257,373 257,373 257,373 257,374 257,374 257,374 257,374 257,374 257,374 257,374 258,375 258,375 258,375 259,375 259,375 259,375 259,375 259,375 259,375 260,375 260,375 260,375 260,375 260,375 260,375 260,375 261,376 261,376 261,376 260,376 260,376 260,377 260,377 259,377 259,377 259,377 259,377 259,377 258,377 258,377 258,377 258,377 258,377 258,377 259,378 259,378 260,378 260,379 260,379 260,379 260,379 261,379 261,379 261,379 261,379 261,379 261,379 262,379 263,379 263,379 263,379 263,379 263,379 263,379 263,379 263,380 264,380 264,380 264,381 264,381 264,381 264,381 264,382 264,382 264,382 263,382 263,382 263,382 263,382 263,382 263,382 263,382 262,382 262,382 263,382 263,383 263,383 263,383 262,383 262,384 263,384 263,384 263,384 263,384 264,384 264,384 264,384 265,384 265,384 265,384 266,385 266,385 266,385 266,385 266,385 266,385 266,385 267,385 267,385 268,385 268,385 268,385 268,385 268,386 268,386 268,386 267,386 267,386 267,387 267,387 267,387 267,388 268,388 268,388 268,388 268,388 268,388 269,389 269,389 269,389 269,390 270,390 270,390 270,390 270,390 270,391 271,391 271,391 271,391 271,392 271,392 271,392 270,392 271,393 271,393 270,393 270,393 270,393 270,393 269,393 269,393 269,394 268,394 268,394 268,394 268,394 268,394 268,395 268,395 268,395 267,395 267,395 267,395 268,395 268,396 268,396 269,396 269,396 269,396 269,396 269,396 270,396 270,396 270,396 270,396 270,396 271,396 271,396 271,396 271,397 271,397 271,397 271,397 271,397 272,398 272,398 272,398 272,398 273,398 273,399 273,399 273,399 273,399 273,399 274,399 274,399 274,399 275,399 275,400 275,400 275,400 276,400 276,400 276,400 276,400 276,401 276,401 276,401 276,401 275,401 275,401 275,401 275,401 275,401 275,401 275,401 274,401 274,402 274,402 275,402 275,402 275,402 275,402 274,402 274,402 274,402 274,402 274,402 274,402 274,402 274,402 274,402 275,402 275,402 275,402 275,402 274,403 274,403 273,403 273,403 273,403 273,403 272,403 272,404 272,404 272,404 272,404 271,404 271,404 271,404 270,404 270,404 270,404 269,404 269,404 269,404 269,404 269,404 269,404 269,404 268,404 268,404 267,404 267,404 267,404 267,404 267,404 267,404 267,405 267,405 267,405 266,405 266,405 266,405 266,405 266,406 266,406 266,406 266,406 266,406 266,407 266,407 266,407 265,407 265,407 265,407 265,407 265,407 265,408 265,408 265,408 265,408 265,408 265,409 265,409 265,409 265,409 265,409 265,409 265,409 265,409 264,409 264,409 264,409 264,409 264,410 264,410 264,410 264,411 264,411 264,411 264,411 264,411 264,411 264,411 264,411 264,412 264,412 264,412 264,412 264,412 264,412 264,412 264,412 264,412 264,412 264,412 264,413 264,413 264,413 264,413 264,413 264,413 264,413 264,413 264,413 264,414 264,414 264,414 264,414 264,414 264,414 264,414 263,414 263,414 263,414 263,414 262,415 262,415 262,415 262,415 262,415 262,415 262,415 261,415 261,415 261,415 261,415 261,415 261,415 261,416 261,416 261,416 261,416 261,416 261,416 261,416 261,416 261,416 260,416 260,416 260,416 260,416 260,416 260,416 260,417 260,417 261,417 261,417 261,417 261,417 261,417 261,418 261,418 261,418 260,418 260,418 260,418 260,418 260,418 260,418 260,418 260,418 260,418 260,418 260,418 260,419 260,419 260,419 260,419 260,419 260,419 260,419 260,419 260,419 260,420 260,420 260,420 260,420 260,420 260,420 260,420 260,420 259,420 259,420 259,420 259,420 258,420 258,420 258,420 258,420 258,420 258,420 258,421 258,421 258,421 258,421 258,421 257,421 257,421 257,421 257,421 257,421 257,421 257,421 256,422 256,422 255,422 255,422 254,423 253,423 253,423 253,423 252,423 251,423 251,424 249,424 249,424 249,424 249,425 249,425 249,425 249,425 250,425 250,425 250,425 250,425 250,425 250,425 250,426 250,426 250,426 250,427 250,427 250,427 251,427 251,427 251,427 251,427 251,427 251,427 251,428 251,428 251,428 251,428 252,428 252,428 252,428 252,428 252,428 253,428 253,429 253,429 253,429 253,429 253,429 253,429 253,429 252,430 253,430 253,430 253,430 253,430 252,430 252,430 252,430 253,431 253,431 253,431 253,431 253,431 253,431 253,432 253,432 254,432 254,432 254,432 254,432 254,432 254,432 254,432 254,432 253,433 253,433 253,433 253,433 253,433 253,433 253,434 254,434 254,434 254,434 254,434 254,435 254,435 254,435 254,436 254,436 254,436 254,436 254,436 254,436 254,437 255,437 255,437 255,437 255,437 256,437 256,437 256,437 256,437 256,437 257,438 257,438 257,438 257,438 257,438 258,438 258,439 258,439 258,439 259,439 259,440 259,440 259,440 259,440 259,440 259,440 260,440 260,440 260,440 260,441 260,441 261,441 261,442 261,442 261,442 261,442 261,442 261,442 261,443 261,443 261,443 261,443 261,443 262,444 262,444 262,444 262,443 263,443 263,444 263,444 263,444 263,444 264,444 264,444 265,445 265,445 265,445 265,447 265,447 265,449 266,451 266,452 266,454 266,454 266,454 266,454 266,454 266,454 265,454 265,454 264,454 264,454 262,455 261,455 261,455 260,455 260,455 260,455 259,455 257,455 257,455 256,455 256,455 255,455 254,455 254,455 253,456 251,456 250,456 250,456 249,457 249,457 248,457 248,457 247,457 246,457 246,457 246,457 245,458 244,458 244,458 244,458 244,458 245,458 245,458 245,458 245,459 245,459 244,459 244,459 243,459 243,460 242,460 241,460 241,460 240,460 240,461 239,461 239,461 238,462 238,462 237,462 237,462 236,463 236,463 236,463 236,463 235,463 235,464 235,464 234,464 233,465 232,465 232,465 232,466 232,466 232,466 232,466 231,466 231,466 230,467 230,467 230,468 229,468 229,468 229,468 228,468 228,468 228,468 226,468 226,468 225,468 224,469 224,469 223,469 223,469 221,469 221,469 221,469 221,469 219,470 219,470 219,470 219,470 219,471 219,471 219,471 217,472 216,472 216,472 216,472 217,472 217,472 216,473 216,473 215,473 214,473 214,473 211,473 205,474 205,474 198,475 197,475 197,476 196,476 194,476 194,476 192,476 192,476 190,476 190,476 186,477 186,477 186,477 186,477 186,477 185,477 185,477 184,477 183,477 183,478 182,478 182,478 182,478 182,478 182,478 181,478 179,479 178,479 178,479 175,480 174,480 172,481 171,481 171,481 170,481 165,482 164,482 164,482 164,482 164,482 164,482 163,482 160,483 159,483 157,484 156,484 155,484 155,484 154,485 153,485 153,485 152,485 152,485 151,486 151,486 150,486 150,486 147,487 145,488 144,488 142,489 142,489 142,489 141,490 139,490 138,491 137,491 137,491 136,491 136,491 135,492 135,492 134,492 133,493 133,493 133,493 133,493 133,493 133,493 132,493 132,494 131,494 131,494 131,494 130,494 130,494 130,494 130,494 129,494 129,494 129,494 129,494 129,494 128,494 127,495 127,495 126,495 126,496 126,496 126,496 125,496 125,496 125,496 125,496 124,496 124,497 123,497 123,497 123,497 122,498 121,498 121,498 121,498 120,498 117,499 116,499 114,499 112,500 112,500 111,500 111,500 110,500 108,500 107,500 107,500 107,500 107,499 107,498 107,498 108,498 108,498 108,498 108,497 108,497 108,497 108,496 109,496 109,496 108,496 108,496 109,496 109,496 109,495 109,495 109,495 109,495 109,494 110,494 110,494 110,494 110,494 110,494 110,493 110,493 110,493 110,493 109,493 109,493 109,493 109,492 110,492 110,492 110,492 109,491 109,491 109,491 109,491 109,491 108,490 108,490 107,489 107,489 106,488 106,488 106,488 105,488 105,488 105,488 105,487 104,486 104,486 104,486 103,486 103,485 103,484 103,484 103,483 103,483 103,483 103,483 103,483 103,483 103,483 103,482 103,482 103,482 103,482 103,482 103,482 103,482 103,482 103,482 103,481 103,481 103,481 103,481 103,481 103,481 103,481 103,481 102,480 102,480 102,480 102,480 102,480 103,479 103,479 103,479 103,479 102,479 102,479 103,478 103,477 103,477 102,476 102,476 102,475 102,475 102,475 102,475 101,474 101,474 101,474 101,474 101,474 102,474 102,474 102,473 102,473 102,473 102,473 101,473 101,473 101,472 101,472 100,472 100,472 100,472 100,472 100,472 100,472 100,472 100,471 100,471 100,471 99,471 99,471 99,471 99,471 99,471 98,470 98,470 98,470 98,470 98,470 98,470 98,470 98,470 98,470 98,470 98,470 98,470 98,470 97,470 97,470 97,470 97,469 97,469 97,469 97,469 97,469 96,469 96,469 96,469 96,469 96,468 96,468 96,468 96,468 96,468 96,467 95,467 95,467 95,467 95,467 95,467 95,467 95,466 95,466 95,466 95,466 95,466 95,465 94,465 94,465 94,465 93,465 93,464 93,464 93,464 93,464 93,464 93,463 92,463 92,463 92,463 92,463 92,463 92,463 92,462 91,462 91,462 91,462 91,462 91,462 91,462 91,461 91,461 90,461 90,461 90,460 90,460 90,459 90,459 90,459 90,459 90,459 90,459 90,459 90,459 90,459 91,459 91,458 91,458 91,458 91,458 91,458 91,458 91,457 91,457 90,457 90,456 90,456 90,456 89,456 89,456 89,456 89,456 89,456 89,456 89,456 89,456 89,456 89,456 89,456 89,456 89,456 89,456 89,456 89,456 89,456 88,456 88,456 88,455 88,455 88,455 88,455 88,455 87,455 87,454 87,454 87,454 87,454 87,454 87,454 87,454 86,454 86,454 87,454 87,454 87,453 87,453 87,453 87,453 87,453 87,453 86,453 86,453 86,453 86,453 86,453 86,453 86,453 85,453 85,453 85,453 85,453 85,453 85,453 85,453 85,452 84,452 84,452 85,452 85,452 85,452 84,451 84,451 84,451 84,451 84,451 85,451 85,451 85,450 85,450 85,450 85,450 85,450 84,450 84,450 84,450 84,450 84,450 83,450 83,450 83,450 83,450 83,450 83,449 83,449 82,449 82,449 82,449 81,449 81,449 80,449 80,449 80,449 80,449 80,449 80,449 80,448 79,448 79,448 79,448 79,448 79,448 79,448 79,448 79,449 79,449 78,449 78,449 78,448 78,448 78,448 77,448 77,448 77,448 77,448 77,448 77,448 77,448 77,448 77,448 77,448 77,447 77,447 77,447 77,447 77,447 77,447 77,447 77,447 76,447 75,446 75,446 75,446 75,446 75,446 74,446 74,446 74,445 74,445 74,445 74,445 73,445 73,445 73,445 73,445 73,444 73,444 73,444 73,444 72,444 72,444 72,444 72,443 72,443 72,443 72,443 72,443 71,443 71,442 71,442 71,442 70,442 70,441 70,441 70,441 70,441 70,441 70,441 70,441 70,441 70,441 70,441 69,441 69,441 69,441 69,441 68,441 68,441 68,441 68,441 68,441 67,441 67,441 67,441 67,440 67,440 66,441 66,441 65,440 65,440 65,440 65,440 65,440 65,440 65,440 65,440 65,440 65,440 65,439 65,439 64,439 64,439 64,439 64,439 64,439 63,438 63,438 63,438 63,438 63,438 62,438 62,438 62,438 61,438 61,438 60,437 60,437 60,437 59,437 58,436 58,436 58,436 58,436 57,436 57,436 57,436 57,436 57,436 57,436 57,436 56,435 57,435 57,435 56,435 56,435 56,434 56,434 56,434 56,434 56,434 56,434 56,434 55,434 55,433 55,433 55,433 54,433 54,433 54,433 54,433 54,433 54,433 53,433 53,433 53,433 53,432 52,432 52,432 52,432 52,432 51,432 51,432 51,432 51,432 50,431 50,431 50,431 50,431 50,431 49,431 48,431 48,431 48,431 48,432 48,432 48,432 48,432 48,432 47,432 46,432 46,432 46,432 45,432 45,432 45,432 44,432 44,432 44,432 42,432 41,432 41,432 41,432 41,432 41,433 41,433 41,433 41,433 41,434 41,434 41,434 41,434 41,434 40,435 40,436 40,436 39,436 39,436 39,435 39,435 39,435 38,435 38,435 38,435 38,435 37,435 37,435 37,435 37,435 37,435 37,435 37,434 37,434 37,434 37,434 37,433 36,433 36,433 36,433 36,432 36,432 36,432 36,432 35,431 35,431 35,431 34,431 34,430 34,430 34,430 34,430 33,430 33,430 33,430 33,430 32,429 32,429 31,429 31,429 31,428 31,428 30,428 30,428 30,428 29,428 29,428 29,428 29,428 29,427 29,427 29,427 28,427 28,427 27,426 27,426 27,426 27,425 26,425 26,425 26,425 26,425 25,425 25,425 25,425 25,425 25,424 25,424 25,424 24,424 24,423 24,423 24,423 24,423 24,423 24,422 24,422 24,422 23,422 23,422 23,421 23,421 23,421 23,421 22,420 22,420 22,419 22,419 22,419 22,418 21,418 21,418 21,418 21,417 21,417 21,417 21,417 21,417 20,417 20,417 20,417 20,418 20,418 20,418 20,417 19,417 19,417 19,417 19,417 18,417 18,417 18,417 18,417 18,417 17,416 17,416 17,416 17,415 17,415 16,415 16,415 16,414 16,414 15,414 15,413 15,413 14,413 14,413 14,413 13,413 13,412 13,412 12,411 12,411 11,411 11,410 11,410 11,410 10,409 9,408 9,408 9,408 9,408 9,407 9,407 9,407 9,407 9,406 9,406 9,406 9,405 9,405 9,404 9,404 9,404 10,404 10,404 10,404 10,403 10,403 10,403 10,403 10,403 10,403 10,402 10,402 11,402 11,402 11,402 12,402 12,402 12,403 12,403 12,403 13,403 13,403 14,403 14,403 14,403 15,402 15,402 15,402 15,402 15,402 15,402 15,402 16,402 16,402 16,402 16,402 16,402 16,401 16,401 16,401 16,401 16,401 16,400 16,400 16,400 16,400 16,400 17,399 17,399 17,399 17,399 16,399 16,398 16,398 17,398 17,398 17,398 16,398 16,397 16,397 16,397 17,397 17,397 17,397 17,397 17,396 18,396 18,396 18,396 18,395 18,395 18,395 18,395 18,394 18,394 18,394 18,393 18,393 18,393 18,393 18,393 18,393 18,393 18,393 18,393 18,393 18,392 18,392 18,392 19,392 19,393 19,392 19,392 19,392 19,392 19,392 20,391 20,391 20,391 20,391 20,391 20,391 20,391 20,390 20,390 21,390 21,390 21,390 21,389 22,389 22,389 22,388 22,388 23,387 23,387 23,387 23,387 23,387 23,387 23,386 23,386 23,386 23,386 23,386 23,385 23,385 23,384 23,384 23,384 23,384 23,384 23,384 23,383 23,383 23,383 23,383 23,383 23,383 22,382 22,381 22,381 22,381 22,381 22,381 22,380 22,379 22,379 21,379 21,379 21,378 20,377 20,377 20,376 20,376 20,376 20,376 20,376 20,376 20,376 19,376 19,376 19,375 19,375 19,374 19,374 18,374 18,373 18,373 17,373 16,373 16,373 16,372 15,371 15,371 15,371 15,371 14,371 14,371 13,370 13,370 12,370 12,369 12,369 12,369 12,370 11,370 11,370 11,369 11,369 10,369 10,369 10,369 10,369 11,369 11,368 11,368 11,368 10,368 9,368 8,367 8,367 8,367 7,368 7,368 7,367 6,367 6,367 6,367 6,366 5,366 5,366 5,366 5,365 5,365 5,364 5,364 6,364 6,364 6,363 6,363 6,362 6,362 6,362 6,361 7,360 7,360 6,360 6,360 6,360 6,360 5,360 5,360 3,359 3,359 3,359 2,359 2,359 1,359 1,359 1,359 0,359 0,358 0,358 0,358 0,358 0,357 0,357 1,357 1,356 2,356 2,356 3,356 4,356 5,355 5,355 5,355 6,355 6,355 6,354 6,353 6,353 6,353 6,353 6,353 6,353 5,353 5,353 4,353 4,353 4,353 4,353 3,352 3,352 3,352 3,352 3,351 3,351 4,350 4,350 4,349 4,349 3,349 3,349 3,348 4,348 4,348 3,347 3,347 3,347 3,346 3,346 2,346 2,345 2,345 2,345 2,345 3,344 3,344 3,344 5,344 5,344 5,344 5,344 6,343 6,343 7,342 7,342 7,341 7,341 8,341 8,341 8,341 8,340 8,340 9,339 9,339 9,338 9,338 9,338 9,338 10,338 10,338 10,338 10,339 11,339 11,339 11,339 11,339 12,339 13,339 13,339 13,339 13,339 13,339 14,339 14,339 14,338 14,338 14,338 15,337 15,336 16,336 16,336 16,336 16,336 17,335 17,335 17,334 17,334 17,334 17,334 17,334 17,333 17,332 16,332 16,331 17,331 17,331 17,331 18,331 18,331 18,331 18,331 18,331 18,330 18,330 18,330 19,330 19,329 19,329 19,329 19,329 20,328 20,328 20,328 20,328 19,327 19,327 19,327 19,327 19,326 19,326 19,325 19,325 18,325 18,325 18,325 18,325 18,324 18,324 18,324 18,324 17,323 17,323 17,323 17,323 17,322 17,322 17,321 17,321 17,321 17,321 17,321 17,321 17,320 18,320 18,320 18,319 18,319 18,319 18,319 18,319 18,318 18,318 18,318 18,318 19,318 19,317 19,317 19,317 20,317 20,317 20,316 20,316 20,316 20,316 20,315 20,315 20,315 20,315 20,314 21,314 21,314 21,314 21,314 21,313 21,313 21,313 21,313 22,313 22,313 23,312 24,311 25,311 25,310 25,310 25,310 26,310 26,310 26,310 26,310 26,310 27,310 27,310 27,310 28,310 28,310 29,310 29,309 29,309 30,309 30,309 31,309 31,309 31,309 31,309 32,309 32,309 32,309 32,308 32,308 32,308 32,307 32,307 32,307 33,306 33,306 33,306 33,305 33,305 33,304 33,304 33,304 34,303 34,303 35,303 35,303 35,303 35,302 36,302 36,302 36,301 36,301 36,301 36,301 36,301 37,301 37,301 37,301 37,301 37,301 37,301 38,300 38,299 38,299 38,299 38,299 38,298 38,298 38,298 38,297 38,297 38,297 39,297 39,297 39,297 40,296 40,296 41,296 41,296 41,296 41,296 41,296 41,296 41,296 41,296 41,296 42,295 42,295 42,295 43,295 43,295 43,295 43,294 43,294 43,294 43,294 43,294 43,294 43,294 43,293 43,293 43,293 43,293 44,293 44,293 44,293 44,292 44,292 44,292 44,291 44,291 44,291 44,290 44,290 44,290 43,290 43,290 44,289 44,289 44,289 44,289 44,288 44,287 44,287 44,287 44,286 44,286 44,286 44,285 44,285 43,285 43,284 44,284 44,284 44,283 45,283 45,283 45,283 46,283 46,283 46,283 46,282 46,282 46,282 46,282 46,282 46,281 46,281 46,280 46,280 46,280 45,280 45,280 45,280 45,280 44,280 44,280 43,280 43,280 42,280 41,280 41,279 40,279 40,279 40,279 39,278 39,278 40,277 39,277 39,277 40,276 40,276 41,276 41,276 41,276 41,276 42,276 42,275 43,275 43,275 43,275 44,275 44,275 45,275 45,275 45,275 45,275 46,275 46,274 46,274 46,274 47,274 47,274 49,275 49,274 49,274 50,274 50,274 50,274 50,273 50,273 50,273 50,273 51,273 51,273 51,273 51,272 51,272 51,272 51,272 52,271 52,271 52,271 52,271 52,271 52,270 52,270 52,269 52,269 52,268 52,268 53,268 53,268 54,267 54,267 54,267 54,267 54,267 54,266 55,266 56,265 56,265 57,265 58,265 59,265 60,264 60,264 61,264 62,263 63,263 63,262 64,262 64,262 64,261 65,261 65,261 65,261 65,260 66,260 66,260 66,260 66,259 67,259 68,258 68,258 68,258 68,257 69,257 69,257 69,257 70,256 70,256 71,255 72,254 72,254 72,254 72,254 73,253 73,253 73,252 74,251 74,251 74,250 74,250 74,250 74,249 74,249 74,248 74,248 75,248 75,248 75,247 75,247 75,247 75,247 75,247 76,247 76,246 76,246 76,246 77,246 77,246 77,246 77,245 77,245 77,245 77,245 78,244 79,244 79,244 79,244 79,244 79,244 80,244 80,244 80,244 80,244 81,243 81,243 82,243 82,243 82,243 82,243 82,242 81,242 81,242 81,242 81,242 81,241 82,241 82,241 82,241 81,240 81,240 81,240 82,240 82,240 82,240 82,239 82,239 83,239 83,239 83,238 83,238 83,238 83,238 83,237 83,237 83,237 83,236 84,236 84,236 84,235 84,235 84,235 85,235 85,235 85,234 85,234 85,234 85,234 85,234 84,234 84,234 84,234 84,234 84,234 84,233 84,233 84,233 85,232 85,232 85,232 85,232 85,231 85,230 85,230 85,230 85,229 85,228 85,228 84,228 84,227 84,227 84,227 83,226 83,226 83,226 83,226 83,226 83,226 82,226 82,225 82,225 82,225 82,225 82,225 82,224 82,224 82,224 82,223 82,223 82,223 82,223 82,223 82,223 82,222 82,222 82,222 82,221 82,221 83,221 83,221 83,220 83,220 84,220 84,220 85,219 85,219 85,219 86,219 86,219 86,219 87,219 87,218 87,218 87,218 87,218 88,218 88,217 88,217 89,217 90,217 90,217 90,217 90,217 90,217 90,216 90,216 90,216 90,216 90,216 90,215 90,215 89,215 89,215 89,215 89,215 90,215 90,215 90,215 90,214 91,214 90,214 90,214 90,214 90,214 90,214 90,213 91,213 91,213 92,213 92,213 92,213 92,212 92,212 92,212 92,212 92,211 92,211 92,211 92,211 92,211 93,210 93,210 93,210 93,210 93,210 93,209 93,209 93,209 93,209 93,209 93,209 94,208 94,208 94,208 94,208 94,208 94,208 93,208 93,207 93,207 93,207 93,206 93,206 93,206 92,206 92,206 92,206 93,206 93,205 93,205 93,205 94,205 94,204 94,204 94,204 94,204 95,204 95,203 95,203 95,203 95,202 95,202 96,202 96,203 96,203 96,202 96,202 96,202 96,202 95,202 95,202 95,201 95,201 95,200 95,200 98,198 98,198 98,197 98,197 99,196 99,196 100,195 100,195 100,194 100,194 101,194 101,194 101,193 101,192 101,192 101,192 101,191 101,191 101,191 101,191 101,191 100,190 100,190 100,190 100,189 99,188 99,188 98,188 98,188 98,188 97,187 97,187 97,187 97,187 96,187 96,187 96,187 96,187 96,186 96,186 96,186 95,186 95,185 95,185 93,185 92,184 92,184 91,184 91,184 90,184 90,184 89,184 88,184 87,183 86,183 86,183 86,183 85,183 85,183 84,182 83,182 83,182 82,181 81,180 81,180 81,180 81,179 81,179 81,179 81,178 81,177 81,177 81,177 81,176 81,176 81,176 81,176 81,175 81,175 80,174" id="2917" class="canton" fill="steelblue" stroke-width="1" stroke="white" geotype="canton" geoname="Morlaix" code_insee="2917" code_departement="29" nom_departement="Finistère" code_region="53" nom_region="Bretagne"/><polygon points="166,44 166,44 166,44 166,44 166,44 166,44 166,44 166,44 166,44 166,44" id="2917" class="canton" fill="steelblue" stroke-width="1" stroke="white" geotype="canton" geoname="Morlaix" code_insee="2917" code_departement="29" nom_departement="Finistère" code_region="53" nom_region="Bretagne"/><polygon points="158,47 158,47 158,47 158,47 159,47 158,48 158,48 158,47 158,47" id="2917" class="canton" fill="steelblue" stroke-width="1" stroke="white" geotype="canton" geoname="Morlaix" code_insee="2917" code_departement="29" nom_departement="Finistère" code_region="53" nom_region="Bretagne"/><polygon points="157,43 157,42 158,42 158,43 159,43 159,43 158,43 158,43 157,43" id="2917" class="canton" fill="steelblue" stroke-width="1" stroke="white" geotype="canton" geoname="Morlaix" code_insee="2917" code_departement="29" nom_departement="Finistère" code_region="53" nom_region="Bretagne"/><polygon points="159,51 159,51 160,51 160,52 160,52 159,52 159,52 159,51 159,51" id="2917" class="canton" fill="steelblue" stroke-width="1" stroke="white" geotype="canton" geoname="Morlaix" code_insee="2917" code_departement="29" nom_departement="Finistère" code_region="53" nom_region="Bretagne"/><polygon points="163,42 163,42 163,42 163,42 163,41 163,41 163,41 164,42 164,42 164,42 164,42 164,42 164,42 163,42 163,42 163,42 163,42 163,42 163,42 163,42 163,42 163,42" id="2917" class="canton" fill="steelblue" stroke-width="1" stroke="white" geotype="canton" geoname="Morlaix" code_insee="2917" code_departement="29" nom_departement="Finistère" code_region="53" nom_region="Bretagne"/><polygon points="139,43 139,43 140,43 140,43 140,44 141,44 141,44 140,44 140,44 140,44 140,43 139,43" id="2917" class="canton" fill="steelblue" stroke-width="1" stroke="white" geotype="canton" geoname="Morlaix" code_insee="2917" code_departement="29" nom_departement="Finistère" code_region="53" nom_region="Bretagne"/><polygon points="163,16 165,16 165,16 166,18 164,18 164,17 163,17 163,16" id="2917" class="canton" fill="steelblue" stroke-width="1" stroke="white" geotype="canton" geoname="Morlaix" code_insee="2917" code_departement="29" nom_departement="Finistère" code_region="53" nom_region="Bretagne"/><polygon points="145,45 145,45 145,45 145,45 145,45 145,45 145,45 145,45 145,45" id="2917" class="canton" fill="steelblue" stroke-width="1" stroke="white" geotype="canton" geoname="Morlaix" code_insee="2917" code_departement="29" nom_departement="Finistère" code_region="53" nom_region="Bretagne"/><polygon points="157,53 157,53 157,53 157,53 157,53 157,53 157,53" id="2917" class="canton" fill="steelblue" stroke-width="1" stroke="white" geotype="canton" geoname="Morlaix" code_insee="2917" code_departement="29" nom_departement="Finistère" code_region="53" nom_region="Bretagne"/><polygon points="117,14 117,13 118,14 118,14 118,14 118,14 118,14 118,14 118,14 117,14" id="2917" class="canton" fill="steelblue" stroke-width="1" stroke="white" geotype="canton" geoname="Morlaix" code_insee="2917" code_departement="29" nom_departement="Finistère" code_region="53" nom_region="Bretagne"/><polygon points="151,48 151,48 151,48 151,48 151,48 151,48 151,48" id="2917" class="canton" fill="steelblue" stroke-width="1" stroke="white" geotype="canton" geoname="Morlaix" code_insee="2917" code_departement="29" nom_departement="Finistère" code_region="53" nom_region="Bretagne"/><polygon points="105,39 106,39 106,39 106,40 105,40 105,39" id="2917" class="canton" fill="steelblue" stroke-width="1" stroke="white" geotype="canton" geoname="Morlaix" code_insee="2917" code_departement="29" nom_departement="Finistère" code_region="53" nom_region="Bretagne"/><polygon points="157,49 157,49 158,49 158,49 158,49 158,49 158,49 158,49 158,49 159,49 159,49 159,49 159,49 159,49 159,49 159,49 158,49 158,49 158,49 158,49 158,49 158,49 158,49 158,49 158,49 158,49 158,49 157,49 157,49 157,49 157,49" id="2917" class="canton" fill="steelblue" stroke-width="1" stroke="white" geotype="canton" geoname="Morlaix" code_insee="2917" code_departement="29" nom_departement="Finistère" code_region="53" nom_region="Bretagne"/><polygon points="164,35 165,35 167,36 168,36 168,37 169,37 170,37 170,38 171,38 171,39 169,39 168,39 168,38 167,37 165,37 165,36 165,36 164,36 164,35" id="2917" class="canton" fill="steelblue" stroke-width="1" stroke="white" geotype="canton" geoname="Morlaix" code_insee="2917" code_departement="29" nom_departement="Finistère" code_region="53" nom_region="Bretagne"/><polygon points="109,38 109,38 111,38 111,38 111,39 111,39 110,39 109,38" id="2917" class="canton" fill="steelblue" stroke-width="1" stroke="white" geotype="canton" geoname="Morlaix" code_insee="2917" code_departement="29" nom_departement="Finistère" code_region="53" nom_region="Bretagne"/><polygon points="145,15 146,15 146,13 148,14 147,16 145,16 145,15" id="2917" class="canton" fill="steelblue" stroke-width="1" stroke="white" geotype="canton" geoname="Morlaix" code_insee="2917" code_departement="29" nom_departement="Finistère" code_region="53" nom_region="Bretagne"/><polygon points="105,22 105,21 105,21 105,21 105,21 106,21 106,21 106,22 105,22 106,22 105,22 105,22 105,22 105,22" id="2917" class="canton" fill="steelblue" stroke-width="1" stroke="white" geotype="canton" geoname="Morlaix" code_insee="2917" code_departement="29" nom_departement="Finistère" code_region="53" nom_region="Bretagne"/><polygon points="87,24 87,24 87,23 87,23 87,23 87,23 87,24 87,24 87,24" id="2917" class="canton" fill="steelblue" stroke-width="1" stroke="white" geotype="canton" geoname="Morlaix" code_insee="2917" code_departement="29" nom_departement="Finistère" code_region="53" nom_region="Bretagne"/><polygon points="122,0 123,0 125,0 125,1 125,1 124,1 122,1 122,0" id="2917" class="canton" fill="steelblue" stroke-width="1" stroke="white" geotype="canton" geoname="Morlaix" code_insee="2917" code_departement="29" nom_departement="Finistère" code_region="53" nom_region="Bretagne"/><polygon points="133,47 134,47 134,47 134,47 134,47 134,47 134,47 134,47 134,47 133,47" id="2917" class="canton" fill="steelblue" stroke-width="1" stroke="white" geotype="canton" geoname="Morlaix" code_insee="2917" code_departement="29" nom_departement="Finistère" code_region="53" nom_region="Bretagne"/><polygon points="119,45 119,45 119,45 120,45 120,45 120,45 120,45 119,45" id="2917" class="canton" fill="steelblue" stroke-width="1" stroke="white" geotype="canton" geoname="Morlaix" code_insee="2917" code_departement="29" nom_departement="Finistère" code_region="53" nom_region="Bretagne"/><polygon points="90,42 90,42 91,42 91,42 91,42 91,42 91,42 91,42 91,42 91,42 91,42 91,42 91,42 91,43 91,43 91,43 91,43 91,43 91,43 91,43 91,43 91,43 91,42 90,42 90,42 90,42 90,42 90,42 90,42 90,42" id="2917" class="canton" fill="steelblue" stroke-width="1" stroke="white" geotype="canton" geoname="Morlaix" code_insee="2917" code_departement="29" nom_departement="Finistère" code_region="53" nom_region="Bretagne"/></svg>