<?xml version="1.0" encoding="utf-8"?>
<svg version="1.1" id="svgmap" xmlns="http://www.w3.org/2000/svg" xmlns:xlink="http://www.w3.org/1999/xlink" x="0px" y="0px" width="100%" height="100%" viewBox="0 0 500 271">
<polygon points="130,103 130,103 130,103 130,103 131,103 131,103 131,103 131,103 131,104 130,103 130,103 130,103" id="2926" class="canton" fill="steelblue" stroke-width="1" stroke="white" geotype="canton" geoname="Saint-Pol-de-Léon" code_insee="2926" code_departement="29" nom_departement="Finistère" code_region="53" nom_region="Bretagne"/><polygon points="51,135 51,134 51,134 52,134 52,135 52,135 52,135 51,135 51,135 51,135 51,135" id="2926" class="canton" fill="steelblue" stroke-width="1" stroke="white" geotype="canton" geoname="Saint-Pol-de-Léon" code_insee="2926" code_departement="29" nom_departement="Finistère" code_region="53" nom_region="Bretagne"/><polygon points="33,140 33,140 33,140 33,140 33,140 33,140" id="2926" class="canton" fill="steelblue" stroke-width="1" stroke="white" geotype="canton" geoname="Saint-Pol-de-Léon" code_insee="2926" code_departement="29" nom_departement="Finistère" code_region="53" nom_region="Bretagne"/><polygon points="129,104 129,104 129,104 129,104 129,104 129,104 129,104 129,104" id="2926" class="canton" fill="steelblue" stroke-width="1" stroke="white" geotype="canton" geoname="Saint-Pol-de-Léon" code_insee="2926" code_departement="29" nom_departement="Finistère" code_region="53" nom_region="Bretagne"/><polygon points="117,113 117,112 118,112 118,112 118,112 118,112 118,112 118,112 118,112 118,112 118,112 118,112 118,113 118,113 118,113 117,113 117,113 117,113" id="2926" class="canton" fill="steelblue" stroke-width="1" stroke="white" geotype="canton" geoname="Saint-Pol-de-Léon" code_insee="2926" code_departement="29" nom_departement="Finistère" code_region="53" nom_region="Bretagne"/><polygon points="70,123 70,123 70,123 70,123 70,123" id="2926" class="canton" fill="steelblue" stroke-width="1" stroke="white" geotype="canton" geoname="Saint-Pol-de-Léon" code_insee="2926" code_departement="29" nom_departement="Finistère" code_region="53" nom_region="Bretagne"/><polygon points="133,104 134,104 134,104 134,104 134,104 134,104 133,104 133,104 133,104 133,104" id="2926" class="canton" fill="steelblue" stroke-width="1" stroke="white" geotype="canton" geoname="Saint-Pol-de-Léon" code_insee="2926" code_departement="29" nom_departement="Finistère" code_region="53" nom_region="Bretagne"/><polygon points="52,135 52,135 52,135 52,135 52,135 52,135 52,135 53,135 53,135 53,135 52,136 52,136 52,135 52,135" id="2926" class="canton" fill="steelblue" stroke-width="1" stroke="white" geotype="canton" geoname="Saint-Pol-de-Léon" code_insee="2926" code_departement="29" nom_departement="Finistère" code_region="53" nom_region="Bretagne"/><polygon points="71,122 72,122 72,122 72,122 71,122" id="2926" class="canton" fill="steelblue" stroke-width="1" stroke="white" geotype="canton" geoname="Saint-Pol-de-Léon" code_insee="2926" code_departement="29" nom_departement="Finistère" code_region="53" nom_region="Bretagne"/><polygon points="70,121 71,121 71,121 71,121 70,121" id="2926" class="canton" fill="steelblue" stroke-width="1" stroke="white" geotype="canton" geoname="Saint-Pol-de-Léon" code_insee="2926" code_departement="29" nom_departement="Finistère" code_region="53" nom_region="Bretagne"/><polygon points="398,35 399,35 398,35 399,35 399,35 399,35 399,35 399,35 399,35 399,35 400,35 400,35 400,35 400,35 400,35 400,35 400,35 400,35 400,35 401,35 401,35 401,35 400,35 400,36 400,36 400,36 400,36 400,36 400,36 400,36 400,36 400,36 399,35 399,35 399,35 399,35 399,35 399,35 399,35 398,35" id="2926" class="canton" fill="steelblue" stroke-width="1" stroke="white" geotype="canton" geoname="Saint-Pol-de-Léon" code_insee="2926" code_departement="29" nom_departement="Finistère" code_region="53" nom_region="Bretagne"/><polygon points="107,117 107,117 107,117 107,117 107,117 107,117 107,117" id="2926" class="canton" fill="steelblue" stroke-width="1" stroke="white" geotype="canton" geoname="Saint-Pol-de-Léon" code_insee="2926" code_departement="29" nom_departement="Finistère" code_region="53" nom_region="Bretagne"/><polygon points="136,97 136,97 136,97 136,97 136,97 136,97 136,97 136,97 137,97 137,97 137,96 137,96 137,97 137,97 137,97 137,97 137,97 137,97 138,97 138,97 137,97 137,97 138,97 138,97 138,97 138,96 138,96 138,97 138,97 138,97 138,97 138,97 138,97 138,98 138,98 138,98 138,98 138,98 138,98 138,98 138,98 138,98 138,98 138,98 138,98 138,98 138,98 138,98 137,98 137,98 137,98 137,98 137,98 137,98 137,98 137,98 136,97 136,97 136,97 136,97 136,97" id="2926" class="canton" fill="steelblue" stroke-width="1" stroke="white" geotype="canton" geoname="Saint-Pol-de-Léon" code_insee="2926" code_departement="29" nom_departement="Finistère" code_region="53" nom_region="Bretagne"/><polygon points="42,138 43,138 43,138 43,138 43,138 42,138 42,138" id="2926" class="canton" fill="steelblue" stroke-width="1" stroke="white" geotype="canton" geoname="Saint-Pol-de-Léon" code_insee="2926" code_departement="29" nom_departement="Finistère" code_region="53" nom_region="Bretagne"/><polygon points="131,95 132,95 133,95 133,95 133,94 134,93 134,93 135,93 135,93 135,93 135,94 136,93 136,93 136,94 136,94 136,95 136,95 136,95 136,95 136,96 136,96 135,96 136,95 135,95 135,96 134,96 134,96 134,96 134,97 133,97 132,96 132,95 131,95 131,95" id="2926" class="canton" fill="steelblue" stroke-width="1" stroke="white" geotype="canton" geoname="Saint-Pol-de-Léon" code_insee="2926" code_departement="29" nom_departement="Finistère" code_region="53" nom_region="Bretagne"/><polygon points="135,103 135,103 135,104 135,104 135,104 135,104 135,103" id="2926" class="canton" fill="steelblue" stroke-width="1" stroke="white" geotype="canton" geoname="Saint-Pol-de-Léon" code_insee="2926" code_departement="29" nom_departement="Finistère" code_region="53" nom_region="Bretagne"/><polygon points="155,90 155,90 155,90 156,90 156,90 155,90 155,90" id="2926" class="canton" fill="steelblue" stroke-width="1" stroke="white" geotype="canton" geoname="Saint-Pol-de-Léon" code_insee="2926" code_departement="29" nom_departement="Finistère" code_region="53" nom_region="Bretagne"/><polygon points="45,134 45,133 46,133 46,133 46,133 47,133 47,133 47,133 47,133 48,133 48,133 48,133 48,134 49,134 49,134 49,134 48,134 48,135 48,135 48,135 48,135 48,135 48,135 48,135 47,135 47,135 47,135 47,135 47,135 46,135 46,135 46,135 46,135 46,135 46,135 46,134 46,134 46,134 46,134 46,134 45,134 45,134 45,134" id="2926" class="canton" fill="steelblue" stroke-width="1" stroke="white" geotype="canton" geoname="Saint-Pol-de-Léon" code_insee="2926" code_departement="29" nom_departement="Finistère" code_region="53" nom_region="Bretagne"/><polygon points="70,120 71,119 70,120 71,120 71,120 70,120" id="2926" class="canton" fill="steelblue" stroke-width="1" stroke="white" geotype="canton" geoname="Saint-Pol-de-Léon" code_insee="2926" code_departement="29" nom_departement="Finistère" code_region="53" nom_region="Bretagne"/><polygon points="82,131 82,131 83,131 83,131 82,131" id="2926" class="canton" fill="steelblue" stroke-width="1" stroke="white" geotype="canton" geoname="Saint-Pol-de-Léon" code_insee="2926" code_departement="29" nom_departement="Finistère" code_region="53" nom_region="Bretagne"/><polygon points="97,116 97,116 97,116 97,116 97,117 97,117 97,117 97,117 97,117 97,116" id="2926" class="canton" fill="steelblue" stroke-width="1" stroke="white" geotype="canton" geoname="Saint-Pol-de-Léon" code_insee="2926" code_departement="29" nom_departement="Finistère" code_region="53" nom_region="Bretagne"/><polygon points="64,128 65,127 66,128 65,129 64,128" id="2926" class="canton" fill="steelblue" stroke-width="1" stroke="white" geotype="canton" geoname="Saint-Pol-de-Léon" code_insee="2926" code_departement="29" nom_departement="Finistère" code_region="53" nom_region="Bretagne"/><polygon points="97,117 97,117 97,117 97,117 97,117 97,117 98,117 98,117 98,117 98,117 98,117 98,117 98,118 98,118 98,118 98,118 97,118 97,118 98,118 97,117 97,118 97,117" id="2926" class="canton" fill="steelblue" stroke-width="1" stroke="white" geotype="canton" geoname="Saint-Pol-de-Léon" code_insee="2926" code_departement="29" nom_departement="Finistère" code_region="53" nom_region="Bretagne"/><polygon points="33,137 33,137 34,137 34,137 34,137 34,137 34,137 35,137 35,137 35,137 35,137 35,137 35,137 35,137 35,137 34,137 34,137 34,137 33,137 33,137" id="2926" class="canton" fill="steelblue" stroke-width="1" stroke="white" geotype="canton" geoname="Saint-Pol-de-Léon" code_insee="2926" code_departement="29" nom_departement="Finistère" code_region="53" nom_region="Bretagne"/><polygon points="116,110 116,110 117,110 117,110 117,110 117,110 117,110 117,110 117,110 117,110 117,110 117,110 117,110 117,110 117,110 116,110 116,110 117,110 116,110 116,110 116,110" id="2926" class="canton" fill="steelblue" stroke-width="1" stroke="white" geotype="canton" geoname="Saint-Pol-de-Léon" code_insee="2926" code_departement="29" nom_departement="Finistère" code_region="53" nom_region="Bretagne"/><polygon points="104,113 104,113 104,113 104,113 104,113 104,113 104,113 104,113 104,113 105,113 105,113 105,113 105,113 105,113 105,113 105,113 105,113 105,113 105,113 104,113 104,113 104,113 104,113 104,113 104,113 104,113 104,113 104,113 104,113" id="2926" class="canton" fill="steelblue" stroke-width="1" stroke="white" geotype="canton" geoname="Saint-Pol-de-Léon" code_insee="2926" code_departement="29" nom_departement="Finistère" code_region="53" nom_region="Bretagne"/><polygon points="109,116 109,116 109,116 109,116 109,116 109,116 109,116 109,116 109,116 109,116 109,116 109,116 109,116 109,116 109,116 109,116" id="2926" class="canton" fill="steelblue" stroke-width="1" stroke="white" geotype="canton" geoname="Saint-Pol-de-Léon" code_insee="2926" code_departement="29" nom_departement="Finistère" code_region="53" nom_region="Bretagne"/><polygon points="357,10 358,10 358,10 359,10 360,9 360,9 361,8 361,8 362,7 363,7 363,8 364,8 365,8 365,9 365,9 365,9 365,9 367,9 367,9 367,9 368,9 368,9 368,8 369,8 369,8 369,8 369,7 368,7 368,7 368,6 368,6 368,6 368,6 368,6 368,6 369,6 369,6 369,6 370,6 370,6 370,7 371,7 371,7 372,6 372,6 373,6 373,6 373,5 374,5 375,5 375,5 375,5 376,5 375,5 376,5 376,6 376,6 378,6 378,5 378,5 378,4 379,4 379,3 379,3 380,3 380,3 380,2 380,1 380,1 380,0 382,1 382,1 383,1 383,1 383,0 383,0 383,0 384,0 384,0 385,0 385,0 385,1 385,1 385,2 386,2 386,2 386,2 387,2 388,2 389,2 389,2 389,2 389,2 390,2 391,2 391,2 392,2 392,2 392,2 393,1 394,1 394,1 394,1 394,1 394,1 394,1 395,1 395,1 395,1 395,1 395,1 396,1 396,1 396,1 397,1 397,1 397,1 398,1 398,1 398,1 398,1 399,1 399,1 400,1 400,1 401,1 401,1 402,1 402,1 403,1 403,1 403,1 403,1 403,1 403,1 403,1 403,1 403,2 403,2 403,3 403,3 403,3 403,3 404,4 404,4 404,4 404,4 404,4 404,5 404,5 405,5 405,5 406,5 406,5 406,5 406,5 406,5 406,5 406,5 406,5 405,5 405,6 406,6 406,6 406,6 406,6 407,6 407,7 407,7 407,7 407,7 407,7 407,7 407,8 408,8 409,8 409,8 410,9 410,9 411,9 412,9 412,10 412,10 412,10 414,11 414,11 415,11 415,11 417,12 418,12 418,12 419,12 420,11 421,11 423,11 423,11 423,11 424,11 424,11 424,11 424,11 424,11 425,11 425,11 425,11 425,11 425,11 425,11 425,12 425,12 424,12 424,12 424,13 423,13 423,13 423,13 423,13 423,14 423,14 423,14 423,14 423,15 424,15 424,15 424,15 424,15 423,15 424,15 424,16 425,16 426,17 426,17 426,17 426,17 426,17 426,18 426,18 426,18 426,18 426,18 426,19 426,19 427,19 427,19 427,19 427,19 426,20 425,20 425,20 424,20 424,21 424,21 424,21 424,22 423,22 423,22 423,22 423,22 423,22 423,22 422,22 422,22 421,22 421,22 421,22 421,22 421,22 421,22 421,22 421,22 421,22 421,22 420,22 420,22 420,22 420,22 420,22 421,22 421,22 421,22 421,22 421,22 421,22 421,21 421,21 421,21 421,21 421,21 421,21 421,21 421,21 421,20 421,20 421,20 421,20 420,19 420,19 420,19 421,19 421,19 421,18 420,17 420,17 420,17 419,17 419,17 419,17 419,16 418,16 418,16 418,16 418,17 417,17 417,16 417,16 417,16 416,16 416,16 416,16 415,16 415,16 415,16 414,16 414,16 414,17 414,17 414,17 414,17 414,17 414,17 414,17 414,17 413,17 413,17 413,17 412,17 412,17 412,17 412,17 412,17 412,17 412,17 412,18 411,18 411,18 411,18 411,18 411,18 411,18 411,18 411,18 411,17 410,17 410,17 411,17 410,17 410,17 410,16 409,16 409,16 408,16 407,16 407,16 406,16 406,16 406,16 406,16 405,17 405,17 405,17 405,17 405,17 405,17 406,18 405,18 405,18 405,18 404,18 404,18 404,18 404,18 404,18 404,18 404,18 404,17 403,17 403,17 403,17 403,17 403,17 403,17 402,17 402,17 402,17 402,17 402,17 402,17 402,17 402,18 402,18 402,18 401,18 401,18 401,18 401,18 400,18 400,22 400,22 400,18 400,17 400,17 400,17 400,17 401,17 401,17 401,17 401,17 401,17 401,17 401,17 402,17 402,17 402,17 402,17 401,15 400,14 400,14 400,14 399,14 399,14 399,14 399,13 398,13 398,13 398,13 398,13 397,13 397,13 397,13 397,13 397,13 396,12 396,12 396,12 396,12 396,12 395,12 395,12 394,12 394,12 394,12 393,12 393,13 392,13 392,13 392,13 392,13 392,13 393,14 393,14 392,13 392,13 391,13 391,13 391,13 391,13 391,13 391,14 391,14 391,14 391,14 391,15 391,15 391,15 392,15 393,16 392,17 390,15 390,15 390,14 390,14 389,14 389,14 388,15 388,14 388,15 388,15 388,15 388,15 388,15 388,15 388,15 387,15 387,15 387,15 387,15 388,16 388,16 388,16 388,16 388,16 388,16 388,16 388,16 388,17 388,17 389,17 389,17 389,17 389,17 389,17 389,17 389,17 388,18 388,18 388,18 387,18 387,18 387,18 387,19 387,19 387,19 387,19 387,19 387,19 396,21 396,21 388,19 388,19 388,20 388,20 388,20 388,20 389,21 389,21 388,20 388,20 388,20 388,20 388,20 388,20 388,20 388,20 388,20 388,20 388,20 388,20 388,20 388,20 388,20 388,20 388,19 388,19 387,19 387,19 387,19 387,19 387,19 387,19 386,19 386,19 386,19 386,19 386,19 386,19 386,18 386,18 386,18 386,18 386,18 386,18 386,18 385,18 385,18 385,18 385,18 385,18 385,18 384,18 384,18 384,18 384,18 384,18 384,18 384,19 384,19 383,19 383,19 383,19 382,20 382,20 381,20 380,19 380,19 379,19 378,19 377,18 377,18 377,18 377,17 377,17 377,16 377,16 377,16 376,16 375,15 375,15 375,15 375,15 374,15 374,15 374,15 374,15 373,15 373,15 373,15 373,15 372,15 371,15 371,15 371,15 371,16 371,16 371,16 371,16 371,16 370,16 370,15 370,15 370,15 370,15 370,15 370,15 369,14 369,14 368,14 367,14 367,14 367,14 366,14 366,14 366,14 366,14 366,14 366,15 366,15 365,15 366,16 365,16 366,16 366,16 366,16 365,17 364,17 364,16 364,15 362,15 361,14 362,14 361,13 361,13 361,13 360,12 360,12 359,12 358,11 358,11 358,11 358,11 357,11 357,10" id="2926" class="canton" fill="steelblue" stroke-width="1" stroke="white" geotype="canton" geoname="Saint-Pol-de-Léon" code_insee="2926" code_departement="29" nom_departement="Finistère" code_region="53" nom_region="Bretagne"/><polygon points="56,132 56,132 57,132 57,132 57,133 57,133 57,133 56,133 56,133 56,133 56,132" id="2926" class="canton" fill="steelblue" stroke-width="1" stroke="white" geotype="canton" geoname="Saint-Pol-de-Léon" code_insee="2926" code_departement="29" nom_departement="Finistère" code_region="53" nom_region="Bretagne"/><polygon points="74,123 74,123 74,123 74,123 74,123" id="2926" class="canton" fill="steelblue" stroke-width="1" stroke="white" geotype="canton" geoname="Saint-Pol-de-Léon" code_insee="2926" code_departement="29" nom_departement="Finistère" code_region="53" nom_region="Bretagne"/><polygon points="69,130 70,129 71,130 70,130 69,130" id="2926" class="canton" fill="steelblue" stroke-width="1" stroke="white" geotype="canton" geoname="Saint-Pol-de-Léon" code_insee="2926" code_departement="29" nom_departement="Finistère" code_region="53" nom_region="Bretagne"/><polygon points="81,128 81,128 82,128 82,128 81,128 81,128" id="2926" class="canton" fill="steelblue" stroke-width="1" stroke="white" geotype="canton" geoname="Saint-Pol-de-Léon" code_insee="2926" code_departement="29" nom_departement="Finistère" code_region="53" nom_region="Bretagne"/><polygon points="373,0 374,0 376,0 376,1 374,1 374,1 373,0 373,0" id="2926" class="canton" fill="steelblue" stroke-width="1" stroke="white" geotype="canton" geoname="Saint-Pol-de-Léon" code_insee="2926" code_departement="29" nom_departement="Finistère" code_region="53" nom_region="Bretagne"/><polygon points="358,55 358,55 358,55 358,55 358,55 358,55 359,55 359,55 359,55 359,55 359,55 359,55 359,55 359,55 359,55 359,55 359,55 359,55 359,55 358,55 358,55 358,55 358,55 358,55" id="2926" class="canton" fill="steelblue" stroke-width="1" stroke="white" geotype="canton" geoname="Saint-Pol-de-Léon" code_insee="2926" code_departement="29" nom_departement="Finistère" code_region="53" nom_region="Bretagne"/><polygon points="108,117 108,117 108,117 108,117 108,117 108,117 108,117" id="2926" class="canton" fill="steelblue" stroke-width="1" stroke="white" geotype="canton" geoname="Saint-Pol-de-Léon" code_insee="2926" code_departement="29" nom_departement="Finistère" code_region="53" nom_region="Bretagne"/><polygon points="54,135 54,134 55,134 55,134 55,134 55,134 55,135 55,135 54,135 54,135" id="2926" class="canton" fill="steelblue" stroke-width="1" stroke="white" geotype="canton" geoname="Saint-Pol-de-Léon" code_insee="2926" code_departement="29" nom_departement="Finistère" code_region="53" nom_region="Bretagne"/><polygon points="430,31 430,30 430,31 430,31 430,31 430,31 430,31 430,31" id="2926" class="canton" fill="steelblue" stroke-width="1" stroke="white" geotype="canton" geoname="Saint-Pol-de-Léon" code_insee="2926" code_departement="29" nom_departement="Finistère" code_region="53" nom_region="Bretagne"/><polygon points="20,144 20,144 21,144 21,144 21,144 21,144 21,144 21,144 20,144 20,144 20,144" id="2926" class="canton" fill="steelblue" stroke-width="1" stroke="white" geotype="canton" geoname="Saint-Pol-de-Léon" code_insee="2926" code_departement="29" nom_departement="Finistère" code_region="53" nom_region="Bretagne"/><polygon points="62,119 62,119 63,118 62,117 65,117 65,117 66,117 65,117 65,118 65,120 64,120 62,119" id="2926" class="canton" fill="steelblue" stroke-width="1" stroke="white" geotype="canton" geoname="Saint-Pol-de-Léon" code_insee="2926" code_departement="29" nom_departement="Finistère" code_region="53" nom_region="Bretagne"/><polygon points="49,138 49,137 49,137 50,137 50,137 50,137 51,137 51,137 51,136 51,137 52,137 51,138 51,138 52,139 52,139 53,139 53,139 52,139 52,139 51,139 51,139 50,139 50,139 50,139 50,139 50,139 50,139 50,139 50,138 50,138 49,138 49,138 49,138" id="2926" class="canton" fill="steelblue" stroke-width="1" stroke="white" geotype="canton" geoname="Saint-Pol-de-Léon" code_insee="2926" code_departement="29" nom_departement="Finistère" code_region="53" nom_region="Bretagne"/><polygon points="51,133 51,133 51,133 52,133 52,133 53,133 53,133 53,134 53,134 52,134 52,134 52,134 51,134 51,133" id="2926" class="canton" fill="steelblue" stroke-width="1" stroke="white" geotype="canton" geoname="Saint-Pol-de-Léon" code_insee="2926" code_departement="29" nom_departement="Finistère" code_region="53" nom_region="Bretagne"/><polygon points="117,117 118,116 118,116 119,116 118,117 117,117" id="2926" class="canton" fill="steelblue" stroke-width="1" stroke="white" geotype="canton" geoname="Saint-Pol-de-Léon" code_insee="2926" code_departement="29" nom_departement="Finistère" code_region="53" nom_region="Bretagne"/><polygon points="116,121 116,121 119,122 119,122 116,121" id="2926" class="canton" fill="steelblue" stroke-width="1" stroke="white" geotype="canton" geoname="Saint-Pol-de-Léon" code_insee="2926" code_departement="29" nom_departement="Finistère" code_region="53" nom_region="Bretagne"/><polygon points="85,130 86,130 86,131 85,131 85,130" id="2926" class="canton" fill="steelblue" stroke-width="1" stroke="white" geotype="canton" geoname="Saint-Pol-de-Léon" code_insee="2926" code_departement="29" nom_departement="Finistère" code_region="53" nom_region="Bretagne"/><polygon points="33,137 33,137 33,137 33,137 33,137 33,137 33,137" id="2926" class="canton" fill="steelblue" stroke-width="1" stroke="white" geotype="canton" geoname="Saint-Pol-de-Léon" code_insee="2926" code_departement="29" nom_departement="Finistère" code_region="53" nom_region="Bretagne"/><polygon points="41,136 41,136 42,135 41,135 42,134 42,134 42,134 43,134 43,135 42,135 42,135 42,135 42,136 41,136 41,136 41,136" id="2926" class="canton" fill="steelblue" stroke-width="1" stroke="white" geotype="canton" geoname="Saint-Pol-de-Léon" code_insee="2926" code_departement="29" nom_departement="Finistère" code_region="53" nom_region="Bretagne"/><polygon points="113,113 113,113 113,113 113,112 113,112 113,112 113,112 114,112 113,112 113,112 114,112 114,112 114,112 114,112 114,112 114,112 114,112 114,112 114,112 114,112 114,112 114,111 114,111 114,111 113,111 113,111 113,111 114,111 114,111 114,111 114,111 114,111 114,111 114,111 114,111 114,111 115,111 115,111 115,111 115,111 115,111 115,111 115,111 115,111 116,111 116,111 116,111 116,112 116,112 116,112 116,112 116,112 116,112 116,112 117,112 116,112 117,112 117,112 117,112 116,113 116,113 116,113 117,113 117,113 117,113 117,113 117,113 116,113 116,113 116,113 116,113 116,113 116,113 116,113 116,113 116,113 116,113 116,113 116,114 115,113 115,113 115,113 115,113 115,113 115,113 115,114 115,114 114,113 114,114 114,114 114,114 114,113 114,113 114,113 114,113 113,113 113,113 113,113 113,113" id="2926" class="canton" fill="steelblue" stroke-width="1" stroke="white" geotype="canton" geoname="Saint-Pol-de-Léon" code_insee="2926" code_departement="29" nom_departement="Finistère" code_region="53" nom_region="Bretagne"/><polygon points="113,109 113,109 113,109 113,109 113,109 113,109 113,109" id="2926" class="canton" fill="steelblue" stroke-width="1" stroke="white" geotype="canton" geoname="Saint-Pol-de-Léon" code_insee="2926" code_departement="29" nom_departement="Finistère" code_region="53" nom_region="Bretagne"/><polygon points="429,30 429,30 430,30 429,30 429,30 429,30 429,30 429,30 429,30 429,30 429,30 429,30 429,30 429,30" id="2926" class="canton" fill="steelblue" stroke-width="1" stroke="white" geotype="canton" geoname="Saint-Pol-de-Léon" code_insee="2926" code_departement="29" nom_departement="Finistère" code_region="53" nom_region="Bretagne"/><polygon points="24,143 24,143 24,143 25,143 25,143 25,143 25,143 25,143 25,143 24,143 24,143 24,143 24,143" id="2926" class="canton" fill="steelblue" stroke-width="1" stroke="white" geotype="canton" geoname="Saint-Pol-de-Léon" code_insee="2926" code_departement="29" nom_departement="Finistère" code_region="53" nom_region="Bretagne"/><polygon points="56,134 56,133 56,134 57,134 56,134 56,135 56,134 56,134 56,134" id="2926" class="canton" fill="steelblue" stroke-width="1" stroke="white" geotype="canton" geoname="Saint-Pol-de-Léon" code_insee="2926" code_departement="29" nom_departement="Finistère" code_region="53" nom_region="Bretagne"/><polygon points="133,103 133,103 133,103 133,103 134,103 134,103 134,103 134,103 134,103 134,104 134,104 134,104 134,104 133,103" id="2926" class="canton" fill="steelblue" stroke-width="1" stroke="white" geotype="canton" geoname="Saint-Pol-de-Léon" code_insee="2926" code_departement="29" nom_departement="Finistère" code_region="53" nom_region="Bretagne"/><polygon points="129,104 129,104 129,104 129,104 129,104 129,104 129,104 129,104 129,104 129,104" id="2926" class="canton" fill="steelblue" stroke-width="1" stroke="white" geotype="canton" geoname="Saint-Pol-de-Léon" code_insee="2926" code_departement="29" nom_departement="Finistère" code_region="53" nom_region="Bretagne"/><polygon points="134,104 135,104 135,104 134,104 134,104 134,104 134,104" id="2926" class="canton" fill="steelblue" stroke-width="1" stroke="white" geotype="canton" geoname="Saint-Pol-de-Léon" code_insee="2926" code_departement="29" nom_departement="Finistère" code_region="53" nom_region="Bretagne"/><polygon points="90,121 90,120 90,121 91,121 91,121 91,122 91,122 91,122 90,122 90,121 90,121" id="2926" class="canton" fill="steelblue" stroke-width="1" stroke="white" geotype="canton" geoname="Saint-Pol-de-Léon" code_insee="2926" code_departement="29" nom_departement="Finistère" code_region="53" nom_region="Bretagne"/><polygon points="73,125 74,125 74,124 75,124 75,124 74,125 74,126 73,126 73,125" id="2926" class="canton" fill="steelblue" stroke-width="1" stroke="white" geotype="canton" geoname="Saint-Pol-de-Léon" code_insee="2926" code_departement="29" nom_departement="Finistère" code_region="53" nom_region="Bretagne"/><polygon points="132,102 132,101 133,102 133,102 133,102 133,101 133,101 133,101 133,101 134,101 133,102 134,102 134,102 134,102 134,102 134,102 134,102 134,102 134,103 133,103 133,103 133,103 132,103 132,102 132,102 132,102" id="2926" class="canton" fill="steelblue" stroke-width="1" stroke="white" geotype="canton" geoname="Saint-Pol-de-Léon" code_insee="2926" code_departement="29" nom_departement="Finistère" code_region="53" nom_region="Bretagne"/><polygon points="92,124 92,124 93,123 93,124 94,124 94,125 94,125 93,125 92,124 92,124" id="2926" class="canton" fill="steelblue" stroke-width="1" stroke="white" geotype="canton" geoname="Saint-Pol-de-Léon" code_insee="2926" code_departement="29" nom_departement="Finistère" code_region="53" nom_region="Bretagne"/><polygon points="59,122 60,123 60,124 59,124 59,122" id="2926" class="canton" fill="steelblue" stroke-width="1" stroke="white" geotype="canton" geoname="Saint-Pol-de-Léon" code_insee="2926" code_departement="29" nom_departement="Finistère" code_region="53" nom_region="Bretagne"/><polygon points="452,24 454,23 454,24 453,24 453,25 453,25 452,25 452,24" id="2926" class="canton" fill="steelblue" stroke-width="1" stroke="white" geotype="canton" geoname="Saint-Pol-de-Léon" code_insee="2926" code_departement="29" nom_departement="Finistère" code_region="53" nom_region="Bretagne"/><polygon points="49,135 49,135 49,135 49,135 49,135 49,135 49,134 50,134 50,134 50,134 50,135 50,135 50,135 50,135 49,135 49,136 49,136 49,135" id="2926" class="canton" fill="steelblue" stroke-width="1" stroke="white" geotype="canton" geoname="Saint-Pol-de-Léon" code_insee="2926" code_departement="29" nom_departement="Finistère" code_region="53" nom_region="Bretagne"/><polygon points="31,140 32,140 32,140 32,140 32,140 31,141 31,140" id="2926" class="canton" fill="steelblue" stroke-width="1" stroke="white" geotype="canton" geoname="Saint-Pol-de-Léon" code_insee="2926" code_departement="29" nom_departement="Finistère" code_region="53" nom_region="Bretagne"/><polygon points="486,107 486,107 487,107 487,107 486,107 486,107" id="2926" class="canton" fill="steelblue" stroke-width="1" stroke="white" geotype="canton" geoname="Saint-Pol-de-Léon" code_insee="2926" code_departement="29" nom_departement="Finistère" code_region="53" nom_region="Bretagne"/><polygon points="490,116 490,115 491,116 491,116 490,117 490,116 490,116" id="2926" class="canton" fill="steelblue" stroke-width="1" stroke="white" geotype="canton" geoname="Saint-Pol-de-Léon" code_insee="2926" code_departement="29" nom_departement="Finistère" code_region="53" nom_region="Bretagne"/><polygon points="119,112 119,112 119,112 119,112 119,112 119,112 119,112 119,112 119,112 119,112 119,112 119,112 119,112 119,112 119,112 119,112 119,112 119,112" id="2926" class="canton" fill="steelblue" stroke-width="1" stroke="white" geotype="canton" geoname="Saint-Pol-de-Léon" code_insee="2926" code_departement="29" nom_departement="Finistère" code_region="53" nom_region="Bretagne"/><polygon points="29,138 29,138 30,138 30,138 30,138 29,138 29,138 29,138" id="2926" class="canton" fill="steelblue" stroke-width="1" stroke="white" geotype="canton" geoname="Saint-Pol-de-Léon" code_insee="2926" code_departement="29" nom_departement="Finistère" code_region="53" nom_region="Bretagne"/><polygon points="406,47 406,47 406,47 406,47 407,47 407,47 407,47 407,47 407,47 407,47 406,47" id="2926" class="canton" fill="steelblue" stroke-width="1" stroke="white" geotype="canton" geoname="Saint-Pol-de-Léon" code_insee="2926" code_departement="29" nom_departement="Finistère" code_region="53" nom_region="Bretagne"/><polygon points="21,144 21,144 22,143 22,143 22,143 23,143 23,143 23,143 23,143 23,143 22,144 22,144 22,144 21,144" id="2926" class="canton" fill="steelblue" stroke-width="1" stroke="white" geotype="canton" geoname="Saint-Pol-de-Léon" code_insee="2926" code_departement="29" nom_departement="Finistère" code_region="53" nom_region="Bretagne"/><polygon points="114,110 114,110 115,110 114,110 115,110 115,110 115,110 115,110 115,110 115,110 115,110 115,110 114,110 114,110" id="2926" class="canton" fill="steelblue" stroke-width="1" stroke="white" geotype="canton" geoname="Saint-Pol-de-Léon" code_insee="2926" code_departement="29" nom_departement="Finistère" code_region="53" nom_region="Bretagne"/><polygon points="500,211 500,211 499,211 499,211 499,211 499,211 499,212 499,212 499,212 499,212 499,212 499,212 499,212 499,212 499,212 499,213 499,213 499,214 499,214 499,215 499,215 499,215 499,215 499,215 499,215 499,216 498,216 498,216 498,216 498,216 498,216 498,216 498,216 497,216 497,216 497,216 496,216 496,216 496,216 496,216 496,216 496,217 496,217 495,217 495,217 495,217 495,217 495,217 495,217 495,217 495,217 495,217 494,217 494,217 494,218 493,218 493,218 493,218 493,218 493,218 493,219 493,219 492,219 492,219 492,219 492,219 492,219 492,219 492,219 492,220 491,220 491,220 491,220 491,220 491,220 491,220 490,220 490,221 490,221 490,221 490,221 490,221 490,221 490,221 489,222 489,222 489,222 489,222 489,222 489,222 488,222 488,223 489,223 488,223 488,223 488,223 488,224 488,224 488,224 488,224 488,224 487,224 487,224 487,224 487,224 486,224 486,225 486,224 485,225 485,225 485,225 485,225 484,225 484,225 484,226 483,226 483,226 483,226 483,226 483,226 483,226 483,226 483,226 482,227 482,227 482,227 481,227 481,228 481,228 479,229 479,229 479,229 479,229 479,229 479,229 478,230 478,230 478,230 478,230 478,230 478,231 478,231 478,231 477,231 477,231 477,231 477,231 477,231 477,232 476,232 476,232 476,232 476,232 475,232 475,232 474,232 474,232 474,232 474,232 474,232 473,232 473,232 473,232 473,232 473,232 473,232 472,232 472,232 472,232 472,232 471,233 471,232 471,233 470,233 470,232 470,232 470,232 470,231 471,231 471,230 472,230 472,230 473,230 473,230 472,229 472,229 472,229 471,229 471,229 470,229 470,229 470,229 470,229 470,229 470,229 469,228 468,228 468,228 468,228 467,228 467,227 467,227 467,226 466,226 466,226 465,225 463,225 463,225 462,225 462,225 461,225 460,225 460,225 460,225 460,226 460,226 460,226 459,226 459,227 459,227 459,227 459,227 458,227 458,227 458,227 457,227 457,228 457,228 456,228 456,228 456,228 456,228 456,228 456,228 456,229 456,229 455,228 455,228 454,228 454,228 453,228 453,228 452,227 452,227 452,227 451,226 450,226 450,226 450,226 450,226 449,226 449,226 448,226 448,226 448,226 448,226 448,226 448,226 448,226 448,226 448,225 447,225 447,225 447,225 447,225 447,225 447,224 447,224 446,224 446,224 446,224 446,224 446,224 446,223 446,223 446,223 446,224 446,224 445,223 445,223 444,223 445,223 445,223 444,223 444,223 444,223 444,222 444,222 444,222 444,222 445,222 445,222 445,222 445,222 445,221 445,221 445,221 445,221 445,221 445,221 445,221 445,221 445,221 445,220 445,220 445,220 446,220 446,220 446,220 446,220 446,220 446,220 446,220 447,220 447,220 447,220 447,219 447,219 447,219 447,219 447,219 447,219 447,219 447,219 446,219 445,219 445,219 444,218 443,218 443,218 443,218 443,218 442,218 442,218 441,217 439,217 439,218 439,218 439,218 437,218 436,218 436,218 436,218 436,218 436,218 436,218 436,218 435,218 435,218 435,218 435,218 434,218 434,218 434,218 434,218 434,217 434,217 434,217 433,217 433,217 433,217 433,217 433,217 433,217 433,217 433,217 432,217 432,217 432,217 432,217 431,217 431,217 431,217 430,217 430,217 430,218 430,218 429,217 429,217 429,217 429,217 428,217 428,217 426,216 426,216 426,216 426,217 425,217 425,217 425,217 424,217 424,217 424,217 424,218 423,218 423,218 423,217 422,217 421,217 420,216 419,216 418,216 418,216 418,216 418,215 417,215 417,214 417,214 417,214 417,213 417,213 417,213 417,213 416,211 416,210 412,211 412,211 412,210 412,207 412,207 412,207 412,207 410,207 409,207 408,207 408,207 408,207 407,207 406,208 404,208 403,208 401,208 400,208 400,208 399,208 399,208 399,208 399,207 398,206 398,206 398,206 398,206 395,206 395,206 395,206 395,206 395,206 395,207 395,207 394,207 394,207 393,207 393,207 393,207 393,208 393,208 393,208 393,208 393,208 392,208 392,208 392,208 392,208 392,208 392,208 392,208 391,208 391,208 391,208 391,207 391,208 391,208 390,208 390,208 390,208 389,208 389,208 388,209 387,209 387,209 386,209 386,209 386,209 385,209 385,209 384,209 384,209 383,209 383,209 383,209 383,209 382,210 382,209 382,209 382,210 380,210 380,210 380,209 380,209 380,209 380,209 381,208 381,208 381,208 381,207 381,207 382,206 382,205 382,205 382,205 383,204 383,203 383,203 383,201 383,201 383,201 381,201 381,201 380,201 379,200 379,200 378,201 378,200 377,199 377,198 377,198 377,198 377,198 377,197 377,197 377,197 377,197 377,197 378,196 378,196 378,195 378,195 377,195 377,195 375,194 375,194 375,194 374,194 373,194 373,194 373,193 373,193 373,193 373,193 372,192 372,192 372,192 372,191 372,191 372,191 372,191 371,191 371,191 370,191 370,191 370,191 370,190 370,189 370,189 370,188 369,188 369,188 369,188 368,187 368,187 368,187 368,187 367,186 367,186 366,186 365,186 365,186 364,187 364,187 364,187 364,187 363,187 362,187 361,187 361,187 360,188 359,188 359,188 359,188 358,188 358,188 357,188 357,188 357,188 357,188 357,188 356,188 356,188 355,188 355,188 355,188 353,188 353,188 353,189 353,190 353,190 352,190 352,190 352,190 352,190 351,190 351,190 351,191 351,191 350,192 350,192 350,192 350,193 350,193 350,193 350,194 350,195 350,195 350,195 350,195 350,196 351,196 351,196 351,196 351,197 351,197 351,197 352,197 352,197 351,197 351,197 351,198 350,198 350,198 350,199 351,199 351,199 351,199 351,199 351,199 351,199 351,199 351,199 352,199 351,199 351,199 352,199 352,199 352,199 352,199 353,200 353,200 352,200 352,201 352,201 352,201 352,201 352,201 352,200 351,201 351,200 351,200 350,201 350,201 349,201 349,201 349,200 349,200 349,200 348,200 348,199 347,199 347,199 347,200 347,200 347,201 346,201 345,200 345,201 345,201 345,201 345,202 345,202 345,203 345,203 345,203 345,203 344,203 344,203 344,203 343,203 343,203 343,203 343,204 343,204 342,204 341,204 340,204 340,204 340,204 340,205 340,205 339,205 339,205 339,205 339,206 340,207 340,207 340,207 340,207 339,207 338,208 338,208 338,208 339,208 339,209 340,209 339,209 338,209 338,209 338,209 338,209 337,209 337,209 337,209 337,208 337,208 336,208 336,208 336,208 336,208 336,208 335,207 335,207 335,207 335,207 335,206 334,206 334,206 329,205 329,205 329,205 329,204 329,204 329,204 329,204 330,203 330,202 330,202 330,202 328,201 327,201 327,201 326,200 326,200 324,199 324,198 324,198 323,197 323,196 323,196 323,196 323,195 322,194 322,194 322,194 325,193 325,193 325,193 325,193 324,193 324,192 324,192 323,193 322,193 321,193 322,192 321,192 321,192 320,192 320,192 320,192 319,192 318,192 318,192 318,192 318,192 317,192 317,192 316,192 316,192 315,193 315,193 315,193 314,193 314,193 314,192 314,192 314,192 313,192 313,192 313,192 313,192 313,192 313,192 312,192 312,192 312,192 311,192 311,192 311,193 309,193 309,193 309,192 309,192 309,192 309,191 309,191 308,191 308,191 308,191 308,191 308,191 308,191 308,191 308,191 308,191 308,191 308,191 308,191 308,191 308,191 308,190 308,190 308,190 308,190 308,190 308,190 309,190 309,190 309,190 308,190 308,189 308,189 308,189 309,189 308,189 309,188 309,188 309,188 308,187 308,187 308,187 308,187 308,187 308,186 308,186 308,186 308,186 308,186 308,186 308,186 308,185 308,185 308,185 308,185 309,184 309,184 309,184 309,184 309,183 309,183 308,183 308,183 308,183 308,182 308,182 308,182 308,182 307,182 307,182 307,182 307,182 307,182 306,182 306,182 306,182 305,182 305,182 305,182 304,183 304,183 303,183 303,183 301,183 301,184 301,184 301,184 299,184 299,184 298,185 297,185 297,185 297,185 296,184 296,184 294,184 294,183 293,183 292,183 292,183 291,183 291,183 290,184 290,184 290,185 290,185 290,185 290,184 289,185 289,185 289,185 288,185 288,185 287,184 287,184 286,185 286,185 286,185 285,184 284,185 284,185 284,185 284,184 283,184 283,184 283,184 283,184 283,184 283,184 283,184 282,183 281,183 281,182 281,182 281,182 281,182 282,181 282,181 282,181 282,181 281,181 281,180 281,180 281,180 281,180 280,180 280,180 280,180 279,180 279,180 278,180 278,180 278,180 277,180 277,180 276,180 276,180 275,180 275,180 275,180 274,180 274,180 274,181 274,181 273,181 272,181 272,181 272,181 272,181 272,181 272,181 272,181 272,181 271,181 271,181 271,181 271,182 271,182 270,182 270,182 270,182 269,182 268,182 267,182 266,182 266,182 266,182 266,182 265,181 265,180 265,180 265,180 265,180 266,180 266,180 266,179 265,179 265,178 264,178 264,178 264,178 264,178 264,177 264,177 264,177 264,177 264,177 264,177 263,178 263,178 263,178 262,178 262,178 262,178 262,178 261,179 261,179 261,179 260,179 260,179 260,179 259,179 259,180 258,180 258,180 258,180 258,180 258,180 258,180 258,180 258,180 257,180 257,180 257,180 257,180 256,180 256,180 256,180 256,181 255,181 255,181 255,181 255,181 255,180 255,180 255,180 255,180 255,180 255,180 254,179 253,178 253,178 252,178 252,177 252,176 252,176 252,176 252,176 252,176 250,176 250,176 250,176 250,175 250,175 249,175 249,175 249,175 249,175 249,175 249,175 248,176 247,176 246,176 246,176 246,176 246,176 245,177 245,177 245,177 244,177 244,177 244,177 244,177 244,177 244,178 243,178 243,178 243,178 243,179 243,179 243,179 242,179 242,179 242,179 242,179 242,179 242,180 242,180 242,181 242,181 242,181 242,181 242,182 242,182 242,182 242,183 242,183 242,183 242,183 242,183 242,187 243,188 243,188 245,188 245,188 245,189 245,189 245,189 245,190 245,190 245,190 245,190 245,190 245,191 245,191 246,192 245,192 245,192 246,192 246,192 247,192 247,192 247,193 247,193 247,193 246,193 246,194 246,194 247,194 247,194 247,194 247,194 247,194 248,194 248,194 248,195 248,195 249,195 249,196 249,196 249,196 249,197 249,197 249,197 249,197 248,197 248,197 248,198 248,199 248,199 248,199 248,199 249,199 249,199 249,199 248,200 248,200 248,200 248,200 248,200 248,200 249,201 249,201 249,201 249,201 249,201 249,201 247,201 242,202 240,199 239,199 239,199 239,199 239,199 238,199 237,199 237,199 237,199 236,199 236,199 236,199 236,198 236,198 233,198 233,197 233,197 233,197 233,196 232,195 232,195 232,195 232,195 232,195 232,195 231,194 231,194 230,193 231,193 231,192 231,192 231,192 231,192 231,191 230,191 230,191 230,190 230,190 230,190 230,190 230,190 228,190 227,190 227,190 226,190 226,190 226,190 226,190 226,190 227,189 227,189 227,189 227,189 228,189 228,189 228,188 228,188 228,188 228,188 228,188 228,187 227,187 227,187 226,186 226,186 226,185 225,185 225,185 225,185 225,185 225,185 225,184 225,184 224,184 224,184 224,184 224,184 223,184 223,184 223,184 223,184 222,184 222,184 222,184 222,184 221,184 221,184 221,184 221,184 221,183 220,183 220,183 220,183 219,182 219,182 218,182 218,182 217,181 217,181 216,181 216,181 216,181 216,181 215,181 215,181 214,180 214,179 213,179 213,179 213,179 213,179 213,179 212,179 212,179 212,180 212,180 212,180 212,180 211,180 211,180 210,180 210,180 210,180 210,180 210,181 210,181 210,181 210,181 210,181 211,181 211,181 211,181 211,181 211,181 212,181 212,182 212,182 212,182 212,182 212,182 212,183 212,183 212,183 212,183 212,184 212,184 212,184 212,184 211,184 211,184 211,184 211,185 211,185 211,185 211,185 211,185 211,186 211,186 211,186 211,186 211,186 211,186 211,186 211,186 210,186 210,187 210,187 210,187 210,187 210,187 209,187 209,187 209,187 209,187 209,187 209,187 209,187 209,187 209,188 209,188 208,188 208,188 207,188 207,188 207,188 207,188 207,188 207,189 207,189 207,189 207,189 207,189 207,189 207,189 207,190 207,190 207,190 207,190 207,190 207,190 207,191 207,191 207,191 207,191 207,191 207,191 207,192 207,192 208,192 208,192 208,192 208,192 208,192 208,193 208,193 208,193 208,193 208,193 208,193 208,193 208,193 208,194 208,194 207,194 207,194 207,194 207,194 207,194 207,194 207,194 207,195 207,195 207,195 207,195 207,195 207,195 207,196 207,196 207,195 207,196 207,196 207,196 207,196 207,196 207,196 207,196 207,196 207,196 207,196 207,196 207,196 207,197 207,197 207,197 207,197 206,197 206,197 207,197 207,197 207,197 207,197 207,198 207,198 207,198 207,198 207,198 207,198 206,198 206,198 206,199 206,199 206,199 206,199 206,199 206,199 206,199 206,199 206,199 206,199 206,199 206,199 206,199 206,199 205,199 205,200 205,200 205,200 205,200 205,201 205,201 204,201 204,201 204,201 204,202 204,202 205,202 205,202 205,202 204,202 204,202 204,203 202,203 201,203 200,204 200,204 200,204 199,205 199,205 198,205 197,204 196,204 196,204 196,204 196,205 196,205 196,206 196,206 196,206 196,207 196,207 197,207 197,207 197,207 197,207 197,208 197,208 197,208 196,208 196,208 196,208 196,208 196,209 196,209 196,209 196,210 196,210 197,210 197,211 196,211 195,211 195,211 194,211 194,211 194,211 194,211 193,211 193,211 193,211 193,211 192,212 191,212 191,212 191,212 191,212 188,213 186,213 186,214 184,215 182,216 181,217 180,217 181,217 181,218 181,218 181,218 181,218 180,219 180,219 180,219 180,219 180,219 181,220 181,220 182,221 182,221 183,221 184,222 184,222 184,222 185,222 185,222 185,222 184,223 184,223 184,223 184,223 184,223 184,223 184,224 184,224 184,224 184,224 184,224 184,225 184,225 185,225 185,225 185,226 186,226 186,226 186,226 186,226 186,226 186,226 186,227 187,228 187,228 187,228 187,228 187,228 187,228 187,229 186,229 186,229 186,229 186,229 186,229 186,230 186,230 185,230 185,230 185,230 185,231 185,231 185,231 185,231 185,231 185,231 184,231 184,232 183,232 183,232 183,233 183,233 183,233 182,233 182,234 182,234 181,235 181,235 180,236 180,236 180,236 180,236 180,237 180,237 180,237 180,238 180,238 180,238 180,239 180,239 180,239 180,239 179,239 179,239 179,239 180,240 180,240 180,240 180,240 180,241 181,241 181,241 181,241 181,241 181,241 182,242 182,242 182,242 182,242 183,242 183,242 183,243 183,243 183,243 183,243 183,243 183,244 184,246 184,246 185,247 185,247 185,247 185,247 185,247 186,248 185,248 185,248 185,248 185,248 185,249 185,249 185,249 185,249 185,249 184,249 184,250 184,250 183,250 184,251 183,251 183,252 183,252 182,252 182,252 182,252 182,253 182,253 182,253 182,253 182,253 182,253 181,253 181,253 181,253 181,253 180,253 180,252 180,252 180,252 179,252 179,252 178,251 177,251 176,251 176,251 175,251 175,251 174,251 173,252 173,251 173,251 173,251 173,251 172,251 172,251 172,252 172,252 172,252 171,252 171,252 171,253 171,253 171,253 172,254 172,254 172,254 172,255 172,255 171,255 171,255 171,255 171,256 170,256 170,256 171,256 171,257 171,257 171,257 171,257 171,257 171,258 171,258 171,258 171,258 170,258 170,258 170,258 170,259 170,259 170,259 170,259 170,260 170,260 169,260 169,260 170,260 170,260 169,261 169,261 169,262 169,262 169,262 169,262 169,262 170,262 170,262 170,263 170,263 170,263 170,263 170,263 169,264 169,264 168,265 168,265 168,265 168,266 168,266 168,266 168,266 168,266 168,266 167,266 167,266 167,266 167,267 166,267 166,268 166,268 166,269 165,269 165,270 165,270 165,270 165,270 164,270 164,270 164,270 164,270 163,270 163,271 163,271 163,271 162,271 162,271 162,271 162,271 162,271 161,271 161,271 161,271 161,271 161,271 160,271 160,271 158,270 157,270 157,270 157,270 156,270 156,270 155,270 155,270 155,270 154,270 154,270 154,270 154,270 153,270 153,270 153,270 153,270 152,270 152,269 152,269 152,269 152,268 152,268 152,268 152,268 151,268 151,268 151,268 150,268 149,268 149,267 149,267 148,267 148,267 148,267 147,267 147,267 147,267 147,267 147,267 146,267 146,266 146,266 145,266 145,266 145,266 144,266 144,266 143,266 143,266 142,266 141,266 141,266 141,265 141,265 141,265 140,266 140,266 139,266 138,266 138,266 138,266 137,266 137,266 136,266 136,266 136,266 136,266 135,265 135,265 135,265 134,265 134,265 134,265 133,265 133,265 133,265 133,265 132,265 132,265 132,264 132,264 132,264 131,265 131,264 131,264 131,264 130,264 130,265 129,264 129,264 128,264 128,264 128,264 127,264 126,264 126,264 125,264 125,264 125,264 123,263 123,263 123,263 122,263 122,263 122,263 122,263 122,262 121,262 121,262 121,262 121,262 121,261 121,261 120,261 120,261 120,261 120,261 120,261 120,261 119,261 119,261 119,261 118,261 117,261 117,262 116,262 116,262 116,262 115,262 114,262 114,262 114,262 114,262 114,262 114,262 114,262 114,261 114,261 113,261 113,261 113,261 112,261 112,261 111,261 111,261 111,261 111,261 111,261 110,261 110,261 110,261 110,261 110,260 110,260 109,261 109,260 108,260 107,260 106,261 106,261 106,261 106,261 106,261 106,261 106,260 106,260 105,260 105,260 105,260 105,260 105,260 104,260 104,260 104,260 104,260 104,260 103,260 103,260 103,260 103,260 102,260 102,260 102,260 102,260 101,260 101,260 100,260 100,260 99,259 99,259 99,259 99,259 99,259 98,258 98,258 97,258 97,258 97,258 97,258 96,257 96,257 96,258 95,258 95,258 95,258 95,258 95,258 95,258 95,258 95,258 94,258 94,258 94,258 94,258 94,258 93,258 93,258 92,258 92,257 91,257 91,257 90,257 90,257 90,257 90,257 89,257 89,256 89,256 89,256 89,256 89,257 88,257 88,257 87,257 87,257 87,257 87,257 87,257 86,257 86,257 86,257 85,257 85,257 86,257 86,257 86,257 86,257 86,257 85,257 85,257 85,257 84,257 84,257 84,257 84,257 83,256 83,256 83,256 83,256 83,256 83,256 82,256 82,256 82,256 82,256 81,255 81,255 81,255 81,255 81,255 81,255 81,255 80,255 80,255 80,255 80,255 80,255 81,255 81,255 81,254 81,254 80,254 80,254 80,254 80,254 79,254 79,254 79,254 78,254 78,253 78,253 78,253 78,253 78,253 78,253 78,253 78,252 78,252 78,252 78,252 78,252 77,251 77,251 77,251 77,251 77,251 77,250 77,250 77,250 77,250 77,250 77,250 77,249 76,249 76,249 76,249 76,249 76,249 77,249 77,248 77,248 77,248 77,248 77,248 77,248 77,248 77,248 77,247 77,247 77,247 77,247 77,246 77,246 77,246 77,246 77,246 77,245 77,245 77,245 77,245 77,245 77,245 77,245 77,245 77,245 77,245 77,245 77,245 77,245 77,244 78,245 78,245 78,245 78,245 78,245 78,245 78,245 79,245 79,245 79,245 79,245 79,245 80,245 80,245 80,245 80,245 80,245 80,245 81,245 81,245 81,245 81,245 81,245 82,245 82,245 82,245 82,245 83,245 83,245 83,245 83,245 83,245 84,245 84,245 84,244 84,245 84,244 84,244 85,244 85,244 85,244 85,244 85,244 86,244 86,244 86,244 87,244 87,244 87,244 87,243 87,243 87,243 88,243 87,243 87,243 88,242 88,242 87,242 87,241 87,241 88,241 88,241 88,241 88,240 86,240 83,240 82,240 82,240 82,240 82,239 82,238 82,238 82,238 82,237 82,237 82,237 81,237 81,237 81,236 81,236 81,236 81,235 81,235 81,234 81,234 81,234 81,234 82,234 82,235 83,234 83,234 83,234 83,233 83,233 83,232 83,232 85,232 85,232 85,232 85,230 85,230 85,230 85,230 85,230 86,230 86,230 87,230 87,230 87,230 87,229 87,229 87,229 86,229 85,228 85,228 85,228 84,228 82,227 82,227 80,227 80,227 80,226 80,226 80,225 80,224 80,224 80,224 80,224 80,223 80,223 79,222 79,221 78,221 78,221 78,220 78,220 78,220 78,220 78,219 78,219 77,218 77,217 77,217 77,216 77,216 77,216 76,215 76,215 76,215 76,215 76,215 76,214 76,214 75,214 75,214 75,214 75,214 75,213 75,213 75,212 75,212 74,212 74,211 73,211 73,210 73,210 73,210 72,209 72,208 72,207 71,207 71,206 71,206 70,206 70,206 69,207 68,206 67,207 66,207 65,207 64,208 62,209 62,209 62,209 62,208 61,208 61,208 61,208 60,208 60,208 60,208 60,208 60,208 60,208 59,208 59,208 59,208 59,208 58,208 58,208 58,208 58,208 58,207 57,208 57,208 57,208 56,208 55,208 55,208 54,208 54,208 54,208 54,208 54,208 54,208 53,208 53,208 53,208 52,207 52,207 52,206 51,206 51,206 51,205 50,205 49,204 49,204 48,203 48,202 47,202 47,201 47,201 45,200 45,200 45,200 45,200 45,200 45,199 45,199 45,199 44,199 44,199 44,199 44,199 43,198 43,198 43,198 42,197 42,197 41,196 40,196 40,196 40,196 39,195 39,195 39,195 39,195 39,194 40,194 40,194 40,194 40,194 40,194 40,194 40,193 40,193 40,193 40,193 40,193 40,193 40,192 40,192 40,192 40,192 40,192 41,192 41,191 41,191 41,191 41,190 41,190 41,190 42,189 42,189 42,189 42,189 42,188 42,188 42,188 42,188 42,188 42,187 42,187 42,187 43,187 43,187 44,187 44,187 44,187 43,186 43,186 43,186 43,185 43,185 43,184 43,184 43,184 43,183 44,183 44,183 44,183 44,183 44,183 44,182 44,182 44,182 44,182 44,182 44,181 44,181 44,181 44,181 44,181 44,181 44,180 44,180 43,180 43,180 43,180 43,180 43,180 43,180 43,179 43,179 43,179 43,179 43,179 42,179 41,179 41,179 41,178 41,178 40,178 40,177 40,177 40,177 40,177 40,176 40,176 40,176 40,175 40,175 40,175 40,175 40,174 40,174 41,174 41,174 42,175 42,175 42,175 42,175 42,174 42,174 43,174 43,174 43,174 43,174 43,173 42,173 42,173 42,173 41,173 41,172 41,172 42,172 42,172 42,172 42,172 42,171 42,171 42,171 43,171 43,171 43,171 43,171 43,171 43,170 43,170 43,170 43,170 43,170 43,170 43,170 43,169 44,169 44,169 44,169 44,169 44,169 45,169 45,169 45,168 45,168 45,168 45,168 45,168 44,168 44,168 44,168 44,167 44,167 43,167 43,167 43,167 43,166 42,166 42,166 42,166 42,166 42,166 42,166 42,166 42,166 42,165 42,165 42,165 42,165 42,165 42,165 41,165 41,165 41,165 41,165 41,165 41,165 40,165 40,165 40,165 40,165 40,165 40,165 40,165 39,165 39,165 39,165 39,165 39,165 39,165 39,165 39,165 39,164 39,164 39,164 39,164 38,164 38,164 38,164 38,164 37,164 36,164 36,164 36,165 35,165 35,165 35,165 34,164 34,164 34,164 33,164 33,164 33,164 33,164 32,164 32,165 32,165 32,165 32,165 31,165 31,165 31,165 30,164 30,164 30,164 30,164 30,164 30,164 29,165 29,165 28,165 28,165 28,165 28,165 27,164 26,164 26,164 26,164 25,164 25,164 24,165 24,165 23,165 23,165 22,165 22,165 22,165 21,164 20,164 19,164 18,164 18,163 18,163 17,163 17,163 16,163 15,162 15,162 15,162 15,162 15,162 15,162 15,162 15,162 15,161 14,161 14,160 13,160 13,159 13,159 13,159 1,157 0,154 11,153 20,152 30,150 33,149 33,141 44,140 44,140 44,140 45,140 46,140 46,140 46,140 46,140 46,140 46,140 53,140 54,141 54,139 79,141 79,141 79,141 81,141 82,141 83,141 85,140 87,140 92,139 93,139 95,138 96,137 98,137 99,136 100,135 102,134 103,134 104,134 105,134 106,133 107,133 107,133 107,133 108,133 108,133 108,133 108,133 109,133 109,133 109,133 109,133 109,133 109,133 109,133 109,133 109,133 109,133 109,133 109,133 108,134 108,134 108,134 108,134 108,134 108,134 108,134 108,134 107,134 107,134 107,135 106,135 106,135 106,136 106,136 106,136 105,136 105,136 105,136 104,136 104,136 104,136 103,136 103,136 102,136 101,137 100,137 100,137 100,137 100,137 100,137 100,137 100,137 99,138 99,138 99,138 99,138 98,139 98,139 98,139 98,139 98,139 98,139 97,139 97,139 96,139 96,139 96,139 95,139 94,140 94,140 93,140 93,140 93,141 93,141 93,141 94,141 94,141 94,141 94,141 94,142 94,142 95,142 95,142 98,142 97,141 98,141 98,142 99,142 100,141 101,141 102,141 103,142 103,141 105,141 107,142 107,142 108,142 108,142 109,143 109,143 109,143 109,143 109,143 109,143 109,143 109,142 111,142 111,142 112,142 113,142 114,141 115,141 116,141 116,141 117,140 119,140 120,140 122,141 124,141 126,141 130,140 132,140 132,140 134,139 136,139 140,138 141,137 141,137 141,137 142,137 143,137 143,137 144,137 146,138 147,138 147,138 147,138 148,138 146,138 145,137 144,137 143,137 143,137 142,137 141,136 141,136 140,137 139,137 139,137 140,136 141,135 143,135 143,135 143,135 143,135 142,134 141,134 141,134 140,134 140,134 139,134 139,135 138,135 137,135 135,135 135,135 135,134 134,133 134,133 133,133 131,132 128,132 126,132 125,132 124,132 123,132 121,133 120,133 120,132 119,132 119,132 119,132 118,132 117,132 117,132 116,132 116,133 114,133 112,133 111,132 110,131 110,131 109,130 109,130 109,130 109,130 109,129 109,129 109,129 109,129 109,129 109,129 109,128 109,128 109,128 109,128 109,128 109,128 110,128 110,128 111,128 111,127 112,127 112,127 113,127 114,126 115,126 115,126 116,125 117,125 118,124 118,124 118,124 119,124 119,123 119,123 119,123 119,123 119,123 119,123 119,123 119,123 119,122 120,122 120,122 120,122 120,122 120,121 121,121 121,121 121,121 121,120 121,120 121,120 121,120 121,120 121,120 120,120 120,119 120,119 120,119 120,119 119,119 119,119 119,119 121,119 121,119 122,118 122,118 122,118 122,118 121,117 121,117 121,117 121,117 121,117 121,117 121,116 121,116 121,116 121,116 122,116 122,115 123,115 123,115 124,115 124,114 124,114 125,114 125,115 126,114 126,114 126,114 126,114 126,114 126,113 127,113 127,113 127,113 127,112 128,112 129,112 130,112 130,112 131,112 132,111 131,110 131,110 133,109 133,109 134,109 134,109 134,109 134,109 134,108 135,108 135,108 135,108 135,107 135,107 136,107 136,107 137,106 137,106 138,106 138,106 138,106 138,105 138,105 138,105 138,105 139,105 139,105 139,105 140,105 140,105 140,105 140,105 140,105 141,105 141,105 142,105 141,104 141,104 141,104 142,104 142,104 142,104 143,104 143,104 143,104 144,104 144,104 144,103 144,103 144,102 146,102 146,101 148,100 148,99 149,99 149,98 149,98 148,97 148,97 149,97 149,97 149,97 149,97 150,97 150,96 150,96 151,96 152,96 152,96 152,96 152,96 153,96 153,96 153,96 153,97 154,97 154,97 154,97 154,96 154,96 154,96 154,95 154,95 154,95 155,95 155,95 155,94 156,94 156,93 156,93 156,93 156,93 156,92 156,92 156,92 156,91 157,92 157,92 157,92 157,92 158,92 158,91 158,91 158,91 159,91 159,91 160,91 160,91 161,91 161,91 162,90 162,90 163,90 163,91 163,91 164,91 164,92 164,93 164,93 165,94 167,94 168,93 169,93 170,93 171,92 171,92 171,92 171,91 171,91 172,91 173,90 174,90 175,91 175,91 176,91 176,91 176,91 176,92 176,92 177,92 178,92 179,92 180,91 181,90 182,90 182,89 181,88 181,87 183,88 183,88 184,88 184,89 185,89 186,89 187,88 187,88 188,88 188,87 189,87 190,87 190,87 191,87 192,86 192,86 192,85 192,85 193,85 193,86 194,87 196,87 198,87 198,86 200,86 201,84 202,84 202,84 203,84 204,84 206,84 207,83 208,83 209,83 215,83 218,83 220,83 223,83 224,83 226,82 227,82 228,81 228,81 229,81 229,80 230,80 231,79 231,78 232,78 232,78 232,78 233,78 233,78 235,78 235,77 236,77 236,77 237,78 237,78 236,78 236,79 237,79 237,79 238,79 239,79 239,80 239,80 240,81 243,81 245,81 246,81 250,82 253,82 254,81 254,81 255,80 255,80 255,79 255,79 257,79 257,80 258,80 259,79 260,79 261,79 262,80 263,80 264,80 265,80 265,80 266,80 266,80 266,80 267,81 268,82 270,81 270,81 273,81 274,81 274,82 275,83 276,83 277,82 277,82 277,81 277,80 276,80 276,79 277,79 277,79 278,80 278,80 278,81 278,81 279,81 280,81 280,82 282,82 282,82 283,83 283,83 283,84 283,84 283,85 283,85 283,86 282,86 282,86 282,86 282,86 282,86 282,87 283,87 283,88 283,88 283,88 283,89 283,89 283,90 282,90 282,90 282,91 282,91 282,92 283,92 283,92 283,91 283,91 283,91 283,90 284,89 285,89 285,88 285,88 286,87 285,87 285,86 285,86 285,86 285,85 285,85 285,85 285,85 286,85 286,85 287,85 287,84 287,84 288,84 289,83 290,83 291,83 292,84 293,85 294,85 297,85 297,85 298,84 298,83 297,82 297,82 298,81 298,81 299,81 300,82 301,82 302,82 302,82 302,83 302,83 302,84 302,84 302,85 302,85 302,85 302,85 304,86 304,86 305,86 306,86 306,86 306,86 307,86 307,86 307,86 307,87 307,87 307,87 307,87 307,87 308,87 308,87 308,88 308,88 307,88 307,88 307,88 307,88 307,88 306,88 306,88 306,88 306,88 305,88 305,89 305,89 305,89 305,89 305,89 304,89 304,89 304,90 304,90 305,90 305,90 305,90 305,90 306,89 306,89 308,89 308,89 308,89 308,90 309,90 309,90 309,91 310,91 310,91 311,91 311,91 312,91 312,91 313,91 314,91 314,91 315,92 315,92 316,93 316,93 316,93 315,94 315,94 315,94 314,94 314,94 314,94 314,95 315,96 316,96 316,95 317,95 318,95 319,95 320,96 321,97 321,98 320,98 318,98 318,99 318,100 319,101 321,102 323,103 324,103 325,102 326,102 327,103 328,103 328,104 329,105 330,105 330,105 331,105 331,104 330,103 330,101 329,100 328,100 327,100 327,100 326,99 325,99 326,98 326,97 326,96 324,96 324,96 323,96 322,96 322,95 321,94 322,93 322,92 322,92 321,92 321,92 320,91 320,91 319,90 318,90 317,90 317,90 317,90 317,89 317,89 317,89 318,89 318,89 319,88 320,89 320,89 320,90 321,90 321,90 322,91 323,91 324,91 325,91 326,91 326,90 327,90 327,89 328,89 329,89 330,90 330,90 331,90 332,91 332,91 332,91 332,91 333,92 335,92 336,92 336,92 337,92 337,93 337,93 338,93 338,93 340,92 340,92 341,92 341,91 342,90 342,90 343,90 344,90 344,90 345,91 346,91 346,91 346,91 347,90 347,90 347,90 348,89 348,89 348,89 349,89 350,89 350,89 350,89 350,89 350,88 351,88 351,88 352,88 352,88 353,89 354,89 354,89 354,88 354,88 355,89 356,89 356,89 356,89 357,89 356,89 357,88 357,88 357,88 357,88 356,88 355,88 355,88 354,88 354,88 354,87 354,87 354,88 353,88 353,88 352,88 352,88 351,88 351,88 350,88 350,88 350,88 350,89 350,89 350,89 349,89 349,89 348,89 347,89 347,89 347,90 347,90 347,90 346,90 345,90 345,90 345,90 344,90 344,90 343,90 343,90 342,90 342,90 341,90 342,90 341,91 340,91 340,91 340,90 340,90 340,90 339,90 339,90 339,90 339,91 339,91 338,91 338,91 338,91 337,91 336,91 336,91 336,91 336,91 335,91 335,91 335,90 334,90 334,89 334,89 333,88 333,87 333,87 334,85 334,84 334,84 334,83 335,82 335,82 335,81 335,81 336,80 336,80 336,79 336,78 336,78 336,77 336,76 335,75 335,74 335,73 335,73 335,72 335,72 335,72 335,71 335,71 336,71 336,71 336,71 336,71 337,71 337,71 337,70 337,70 337,70 337,70 337,70 337,70 337,70 337,70 337,70 337,69 337,69 338,69 338,69 338,69 338,69 338,69 338,69 339,69 339,70 339,70 340,70 340,70 340,69 340,69 340,68 340,68 340,68 341,68 341,68 341,68 341,67 341,67 341,66 340,66 340,66 340,65 340,65 340,65 340,65 340,64 340,64 340,64 340,65 341,65 341,66 341,66 342,66 343,66 344,66 344,66 344,66 345,66 345,66 346,66 347,66 347,66 348,66 348,67 349,67 350,67 351,68 351,68 351,69 351,69 352,69 354,69 354,69 355,69 356,68 357,68 357,68 358,67 358,67 359,66 360,66 361,65 361,65 361,64 361,64 361,64 362,63 362,62 362,61 363,60 363,59 363,58 363,57 363,56 363,56 364,55 364,55 364,55 364,55 364,54 364,54 364,54 364,54 364,54 365,54 365,54 365,54 366,54 366,54 366,55 366,55 366,55 367,55 368,56 368,56 369,56 370,56 372,57 372,57 373,57 373,57 375,58 376,58 378,58 379,58 382,58 383,58 384,57 386,57 388,57 389,56 390,56 392,56 392,55 393,55 394,54 395,53 395,53 396,52 396,52 396,52 396,52 396,51 397,51 397,51 397,50 397,50 397,50 397,50 397,49 396,49 396,49 396,49 395,49 395,48 394,48 395,47 395,47 395,47 396,46 397,46 398,46 399,45 400,44 400,43 401,43 401,42 402,41 402,40 403,39 403,39 403,38 403,37 403,37 403,37 403,37 403,37 403,36 402,36 402,36 402,36 403,36 403,36 403,35 403,35 403,36 403,36 403,36 403,36 403,35 403,35 404,35 404,35 404,36 404,36 404,36 403,36 403,36 403,36 403,36 404,37 405,37 405,38 406,38 406,38 406,38 406,38 407,38 407,38 407,38 407,38 407,38 407,37 407,37 408,37 408,37 408,37 408,37 408,37 409,37 409,37 409,37 409,37 409,37 409,36 410,36 410,36 410,36 410,36 411,36 411,36 411,36 411,36 411,36 410,36 410,36 410,36 410,36 410,36 410,37 410,37 410,37 410,37 411,37 411,37 411,38 411,38 410,38 410,38 410,38 410,38 410,38 409,38 408,38 408,38 408,38 408,38 407,38 407,38 407,38 407,38 407,38 407,38 406,39 406,39 406,39 406,40 406,40 407,40 407,40 407,40 407,40 407,40 407,41 407,41 407,41 406,41 406,41 406,41 406,41 405,41 405,42 405,42 405,42 405,42 405,42 405,42 404,42 404,43 403,43 403,43 403,43 403,43 403,43 402,43 402,43 402,44 401,44 401,44 401,44 401,44 401,45 401,45 402,45 402,46 403,46 404,47 404,48 405,48 405,48 406,48 406,49 406,49 407,49 407,49 407,49 408,49 408,49 408,49 408,49 408,50 408,50 407,50 406,50 406,50 406,51 405,51 405,51 405,51 405,52 405,52 406,53 407,54 407,54 407,54 407,54 408,54 409,55 410,56 410,56 411,57 412,56 412,56 413,56 413,56 415,56 415,56 416,55 416,55 416,55 416,55 417,55 417,55 418,54 418,54 418,54 419,54 419,54 420,53 420,53 420,53 422,52 421,52 421,52 422,52 422,51 423,51 424,50 424,49 424,48 424,48 424,48 424,48 424,47 424,47 424,47 424,47 424,46 424,46 424,46 423,46 423,46 422,46 422,46 422,45 422,45 422,45 422,45 422,44 422,44 422,43 422,43 422,43 422,43 422,43 422,43 422,43 422,43 422,43 422,43 423,43 423,42 423,42 423,42 423,42 423,42 422,42 422,41 422,41 422,41 422,41 422,41 422,41 422,41 422,41 422,41 422,41 422,41 423,41 423,41 423,40 423,40 423,40 423,40 423,40 423,40 423,40 423,40 423,40 424,40 424,39 424,39 424,39 424,39 424,38 424,38 424,38 425,38 425,38 425,38 426,38 426,37 427,36 427,36 427,36 427,36 427,36 427,36 427,35 427,35 426,35 426,35 426,35 426,35 427,35 427,35 427,35 427,35 427,35 427,35 427,36 427,36 427,36 427,36 428,36 429,36 429,36 429,36 429,35 429,35 429,35 429,35 429,35 430,35 430,35 430,36 430,35 430,35 430,35 430,35 431,35 431,35 431,36 431,36 432,35 432,35 431,36 432,36 432,36 432,36 432,36 432,36 432,36 433,36 433,36 433,37 433,37 433,36 433,37 433,36 433,36 433,36 433,36 433,36 434,36 433,36 434,36 434,37 434,37 434,37 434,37 434,37 434,37 434,37 434,37 434,37 434,37 434,37 434,37 434,37 434,37 436,37 436,36 437,36 437,36 437,36 437,36 438,36 438,36 440,37 442,37 442,37 443,37 443,37 443,37 442,37 442,37 442,37 442,37 441,37 439,37 438,37 438,37 437,37 436,37 436,38 436,38 436,38 436,38 438,38 438,38 439,39 439,39 440,39 440,39 440,39 440,39 440,39 440,40 440,40 439,39 438,39 438,38 437,38 437,38 436,38 436,38 436,39 436,39 436,40 437,40 437,40 437,40 437,40 437,41 437,41 437,41 437,41 437,41 438,41 439,41 439,42 439,42 440,41 440,41 439,42 439,42 441,42 442,42 443,42 444,41 444,41 444,41 444,42 445,42 445,42 445,42 445,41 445,41 446,41 446,41 446,41 447,41 447,41 447,41 447,41 447,41 447,40 447,40 447,40 447,40 447,40 447,39 447,39 447,39 447,39 447,39 447,38 446,38 446,38 446,38 446,37 446,37 446,37 446,36 446,36 446,36 446,36 446,37 446,37 446,38 447,39 447,39 447,39 447,39 447,39 447,39 448,39 448,39 449,39 449,39 449,39 450,39 450,39 450,39 450,39 450,39 450,39 450,39 450,38 450,38 450,38 450,38 450,38 450,38 450,38 450,38 451,38 451,38 451,37 451,37 451,37 451,37 451,37 451,37 451,37 451,37 451,37 451,37 451,37 451,37 451,37 451,37 451,36 451,36 451,36 452,36 452,36 452,36 452,36 452,36 453,36 452,36 452,36 452,36 452,36 452,36 452,36 452,36 453,36 453,36 453,36 453,36 453,35 453,36 453,36 453,36 453,36 453,36 453,36 453,36 453,36 453,36 453,36 453,36 453,36 453,36 453,36 453,36 453,36 453,36 453,36 453,36 453,37 453,37 453,37 453,37 453,37 453,37 454,37 453,37 453,37 453,37 453,38 453,38 453,38 453,38 453,38 453,38 453,38 453,38 453,39 453,39 453,39 453,39 453,39 453,39 453,39 453,39 453,39 453,39 453,39 453,40 453,40 453,40 453,40 454,40 454,40 454,40 454,40 454,40 454,40 454,40 454,40 454,40 454,40 454,40 454,40 455,40 455,40 455,40 455,40 455,40 455,40 455,40 455,41 455,41 455,41 455,41 455,41 455,41 455,41 455,41 455,41 455,41 455,41 455,41 455,41 455,42 455,42 455,42 455,42 455,42 456,42 456,42 456,42 456,42 456,42 456,42 457,42 457,42 458,42 459,42 459,42 460,42 460,42 460,42 461,43 461,43 462,43 462,43 462,43 462,43 462,43 462,43 463,44 463,44 463,44 465,45 465,45 465,45 465,45 464,45 464,45 463,44 461,43 461,43 460,43 460,43 461,43 461,44 459,43 460,43 459,43 459,43 459,43 459,43 459,43 459,44 459,44 459,44 459,44 459,44 460,44 460,44 460,44 460,44 460,44 460,44 459,45 459,47 459,48 459,48 459,48 459,48 459,48 459,47 457,47 457,47 456,48 456,48 456,48 456,48 456,48 456,49 459,49 459,49 459,49 456,49 456,49 455,49 455,49 455,49 455,50 455,51 455,51 455,51 455,51 454,51 454,51 454,51 454,51 453,51 453,51 453,51 453,51 453,52 453,52 453,52 452,52 452,53 452,53 452,53 453,53 453,53 452,54 451,54 451,54 451,54 450,54 450,54 450,54 450,55 450,55 450,56 450,56 451,56 451,56 451,57 451,57 451,57 451,58 451,58 452,58 452,58 452,58 452,58 453,58 453,58 453,58 452,59 452,58 452,58 451,58 451,58 451,58 450,58 450,58 450,58 450,58 449,58 449,58 449,58 448,58 448,58 448,59 447,60 447,61 447,61 447,61 447,61 447,62 447,62 447,62 448,62 448,62 448,63 448,63 449,64 449,64 449,64 449,64 449,64 450,65 451,65 451,65 450,65 450,65 450,65 450,65 449,65 449,65 449,65 449,66 449,66 448,66 449,66 448,66 448,66 448,67 448,67 448,67 447,67 448,67 448,70 448,70 448,70 447,71 447,71 446,72 445,73 445,73 444,74 445,74 445,75 446,76 446,76 447,77 449,78 451,80 452,80 452,80 452,81 452,81 453,81 453,81 454,82 456,82 456,82 456,82 456,82 457,82 456,82 457,83 457,83 458,82 458,83 459,82 459,82 459,82 459,82 459,83 459,83 459,83 458,83 458,83 458,84 459,84 459,84 459,84 459,84 458,84 458,84 458,85 458,85 458,85 458,85 458,85 457,85 457,85 457,86 457,86 457,86 458,87 461,88 464,89 464,89 465,89 465,89 465,89 465,89 466,89 466,88 467,88 467,88 467,88 467,88 467,88 468,88 468,88 468,88 468,88 469,88 469,88 469,88 469,89 469,89 469,89 469,89 469,89 469,89 468,89 468,90 467,90 467,90 466,90 466,90 466,90 464,91 464,92 464,92 468,94 468,95 468,95 468,97 468,97 467,95 467,95 467,95 467,94 466,94 464,93 464,92 464,92 464,92 464,92 463,92 464,91 464,91 464,91 464,91 464,91 465,90 465,89 462,89 461,89 460,88 459,88 458,87 457,87 457,86 455,86 455,87 454,89 454,89 453,91 452,91 452,93 452,96 452,97 453,97 453,97 453,97 453,97 453,97 453,97 453,97 453,98 453,98 454,99 454,99 455,99 455,100 454,100 454,101 454,101 454,102 454,103 454,103 454,104 454,105 454,105 454,105 453,106 453,106 453,106 452,106 452,106 452,106 451,106 451,106 451,106 450,106 450,106 450,106 450,106 450,106 450,106 450,106 450,107 450,107 450,107 451,107 451,107 451,107 451,108 452,108 452,108 452,108 453,108 453,108 453,109 454,109 454,109 454,109 454,109 454,109 455,109 455,109 455,109 455,109 456,108 456,108 456,108 457,108 457,108 458,108 458,108 458,108 458,107 458,107 458,107 458,107 458,106 458,106 458,106 458,106 458,105 459,105 459,105 459,105 459,104 459,104 460,104 460,105 460,105 460,105 460,105 460,105 460,105 460,105 460,105 460,105 460,105 460,105 460,105 460,105 460,105 460,106 460,106 461,106 461,106 462,107 462,107 462,107 462,107 462,107 463,108 463,108 464,108 464,108 464,108 464,108 464,108 466,109 467,109 468,109 469,109 470,109 470,109 471,109 472,109 472,109 472,109 473,108 473,108 473,108 473,108 473,107 473,107 473,107 473,107 474,107 475,107 475,106 475,106 475,106 475,106 475,106 475,106 475,106 475,106 475,106 475,106 475,106 475,106 475,106 475,107 475,107 475,107 475,107 475,107 475,107 475,107 475,107 476,107 476,107 476,107 475,107 475,107 475,108 475,108 475,108 474,108 474,108 475,109 475,109 475,109 475,109 476,109 476,109 476,109 476,109 477,110 478,110 478,110 478,110 479,110 479,110 479,109 479,110 479,110 480,110 480,110 479,110 479,111 479,111 479,111 479,111 479,111 479,111 479,111 479,112 479,112 479,112 479,112 479,113 479,113 479,113 478,113 478,112 478,112 478,112 478,112 478,112 477,112 477,112 476,112 476,112 476,111 476,111 474,112 474,112 474,113 474,113 474,113 474,114 474,114 474,114 474,114 473,114 473,114 473,115 473,115 472,115 473,115 473,115 473,115 473,115 474,116 473,116 473,117 474,117 474,118 474,118 474,119 475,120 475,120 475,120 476,120 476,121 476,121 476,122 477,122 477,122 477,122 477,123 477,123 477,123 477,124 478,125 477,125 477,126 477,127 477,128 477,130 477,131 477,131 477,132 477,132 476,132 476,133 475,132 475,133 475,133 474,133 474,134 474,136 473,137 471,138 471,139 471,140 471,141 472,142 472,142 473,143 473,143 472,142 471,143 470,143 470,143 470,144 470,144 471,144 472,146 473,146 474,147 475,147 476,148 476,148 477,149 477,149 477,150 477,150 477,151 478,151 478,151 478,151 478,151 478,152 479,152 479,153 479,153 479,153 480,154 480,156 480,157 480,158 479,158 478,159 478,160 479,161 478,162 477,163 476,163 477,164 476,167 476,169 475,170 475,170 474,170 472,172 470,172 468,172 467,172 468,172 469,172 470,172 472,172 473,172 473,172 473,172 474,172 474,172 474,173 474,175 475,175 475,175 476,176 476,176 476,178 476,181 476,181 476,182 475,183 475,183 476,183 476,184 476,184 477,184 476,184 476,184 475,184 475,184 475,184 475,184 473,185 471,185 468,187 469,187 468,188 468,190 469,191 470,189 471,187 472,187 475,187 476,185 477,184 478,183 479,182 481,183 484,185 485,186 485,188 485,188 485,189 485,189 487,190 489,191 489,192 488,192 488,192 488,193 488,193 489,194 489,194 489,194 489,195 490,195 490,195 490,195 491,196 491,196 492,196 492,197 493,197 493,198 493,199 493,199 493,199 493,200 493,200 492,201 492,201 491,202 491,203 492,204 492,205 494,207 498,209 500,210 500,211" id="2926" class="canton" fill="steelblue" stroke-width="1" stroke="white" geotype="canton" geoname="Saint-Pol-de-Léon" code_insee="2926" code_departement="29" nom_departement="Finistère" code_region="53" nom_region="Bretagne"/><polygon points="313,66 313,66 313,66 313,65 314,65 314,65 314,65 314,65 314,65 315,64 315,64 315,64 316,64 316,64 317,64 317,64 318,64 318,64 319,64 319,63 319,64 320,64 321,64 321,64 321,64 322,64 323,64 324,64 324,64 325,64 325,64 325,64 326,65 326,65 327,65 327,65 327,65 328,65 328,65 329,65 329,65 329,65 330,65 330,65 330,65 330,65 331,65 331,66 330,66 330,66 330,66 330,66 330,66 330,67 329,67 329,67 330,67 330,67 330,67 330,68 330,68 330,68 330,68 330,68 330,69 330,69 330,69 330,69 330,69 330,69 329,69 329,69 328,69 328,69 327,69 327,69 327,69 327,68 326,68 326,68 326,68 325,67 325,67 324,67 324,67 324,67 323,66 323,66 322,67 322,67 321,66 321,66 320,66 320,66 319,66 319,66 319,65 319,65 318,65 318,65 317,65 316,65 316,65 316,65 316,65 316,66 315,66 316,66 316,66 316,66 316,66 317,67 317,67 316,67 316,66 316,66 316,66 315,66 315,67 315,66 315,66 315,66 314,66 314,66 314,66 313,66 313,66 313,66 313,66" id="2926" class="canton" fill="steelblue" stroke-width="1" stroke="white" geotype="canton" geoname="Saint-Pol-de-Léon" code_insee="2926" code_departement="29" nom_departement="Finistère" code_region="53" nom_region="Bretagne"/><polygon points="106,119 107,119 107,119 107,119 107,119 107,119 107,119 107,119 107,119 107,119 107,119 107,119 107,119 106,119" id="2926" class="canton" fill="steelblue" stroke-width="1" stroke="white" geotype="canton" geoname="Saint-Pol-de-Léon" code_insee="2926" code_departement="29" nom_departement="Finistère" code_region="53" nom_region="Bretagne"/><polygon points="53,135 53,134 54,134 54,134 54,134 54,135 54,135 53,135" id="2926" class="canton" fill="steelblue" stroke-width="1" stroke="white" geotype="canton" geoname="Saint-Pol-de-Léon" code_insee="2926" code_departement="29" nom_departement="Finistère" code_region="53" nom_region="Bretagne"/></svg>