<?xml version="1.0" encoding="utf-8"?>
<svg version="1.1" id="svgmap" xmlns="http://www.w3.org/2000/svg" xmlns:xlink="http://www.w3.org/1999/xlink" x="0px" y="0px" width="100%" height="100%" viewBox="0 0 500 439">
<polygon points="16,65 17,64 18,64 18,63 20,64 20,65 19,65 19,65 18,65 18,66 18,66 18,66 18,66 16,66 16,65" id="2920" class="canton" fill="steelblue" stroke-width="1" stroke="white" geotype="canton" geoname="Plouigneau" code_insee="2920" code_departement="29" nom_departement="Finistère" code_region="53" nom_region="Bretagne"/><polygon points="322,90 322,91 322,91 322,91 322,91 322,91 323,92 323,92 324,92 324,92 324,92 324,92 323,92 323,92 323,92 323,92 322,92 322,93 322,93 322,93 322,93 322,94 322,94 322,94 322,94 322,95 322,95 321,95 321,95 321,95 321,95 320,96 320,96 320,96 320,96 320,96 319,96 319,96 319,96 319,95 319,95 318,95 318,96 318,96 318,96 318,96 318,96 318,96 318,96 318,97 318,97 318,97 318,97 317,97 316,97 316,97 316,97 316,97 316,98 316,98 316,98 316,98 317,98 317,98 317,98 316,98 316,98 315,99 315,99 315,99 314,99 314,99 314,99 314,99 313,99 313,99 313,99 313,99 313,99 313,100 313,100 313,100 313,100 313,100 313,100 313,100 313,101 313,101 313,101 313,101 313,102 313,102 313,102 313,102 313,102 313,102 313,103 313,103 314,103 314,103 314,103 314,103 314,103 314,103 315,103 315,103 315,103 315,103 315,103 315,104 315,104 315,104 315,104 315,105 315,105 315,105 315,105 315,105 315,105 316,105 316,105 316,105 316,105 316,105 316,106 316,106 316,106 316,106 316,106 316,106 317,106 317,106 317,106 317,106 317,106 317,106 317,106 317,106 318,107 318,107 318,107 318,107 318,107 318,107 318,107 318,107 318,108 318,108 318,108 319,108 319,108 319,108 318,108 318,108 318,108 318,108 318,108 318,108 318,109 318,109 318,109 318,109 318,109 318,109 318,109 318,109 318,109 319,109 319,109 319,109 319,109 319,109 319,109 319,109 319,109 319,109 319,109 319,110 319,110 319,110 319,110 319,111 318,111 319,111 319,111 318,111 318,112 318,112 318,112 318,112 318,112 318,112 318,112 319,112 319,112 319,112 319,112 319,113 320,114 320,114 320,114 320,114 320,114 320,114 319,114 319,114 319,114 319,114 319,115 319,115 319,115 319,115 319,115 319,115 319,115 319,115 319,115 319,115 320,116 320,116 320,116 320,116 320,116 320,116 320,116 320,116 320,116 320,116 320,116 320,116 321,116 321,117 321,117 321,117 321,117 321,117 321,117 321,117 321,117 321,117 321,117 321,117 320,117 321,117 321,118 321,118 321,118 321,118 321,118 320,118 320,118 321,118 320,118 320,118 320,118 320,118 320,118 320,118 320,118 320,118 320,118 320,118 320,118 320,118 320,119 319,119 319,119 319,119 319,119 319,119 320,119 320,119 320,119 320,120 320,120 320,120 320,120 320,120 320,120 320,120 321,120 321,120 321,120 321,120 321,120 321,120 321,120 321,120 321,120 322,120 322,120 322,120 322,120 322,120 322,120 322,120 323,120 322,121 322,121 322,121 322,121 322,121 322,121 322,121 323,122 323,122 323,122 322,122 322,122 322,122 322,122 322,122 322,122 322,123 322,123 322,123 321,123 321,123 321,123 321,123 322,123 322,123 322,124 322,124 322,124 322,124 322,125 321,125 321,125 321,125 321,126 321,126 321,126 322,127 322,127 322,127 322,128 323,128 323,128 323,128 323,128 323,128 323,128 323,128 323,129 323,129 323,129 323,129 323,129 324,129 324,129 324,129 324,129 324,130 324,130 324,130 324,130 324,130 324,130 324,130 324,130 324,130 324,130 324,130 324,130 324,131 324,131 324,131 324,131 324,131 324,131 324,131 324,131 324,131 324,131 324,131 324,131 324,131 325,132 325,132 325,132 325,132 325,132 325,133 325,133 325,133 325,133 325,133 325,133 325,133 325,133 325,133 325,133 325,133 325,133 325,134 325,134 325,134 325,134 325,134 326,134 326,134 326,134 326,134 326,134 326,134 326,135 326,135 326,135 326,135 326,135 325,135 325,135 325,135 325,135 325,135 325,135 325,135 325,136 325,136 325,136 325,136 326,136 326,136 326,136 326,136 326,136 326,136 326,136 326,136 326,136 326,136 326,136 326,136 326,136 326,136 326,136 326,136 327,136 327,136 327,136 327,137 327,137 327,137 327,137 327,137 327,137 327,137 327,137 327,137 327,138 327,138 327,138 327,138 327,138 327,138 327,138 327,138 327,139 328,139 328,139 328,139 328,139 328,139 328,139 329,139 329,139 329,139 328,139 328,139 328,140 328,140 328,140 328,140 328,140 328,140 328,140 328,140 328,140 328,140 329,141 329,141 329,141 329,141 330,141 330,141 330,142 330,142 330,142 330,142 330,143 330,144 330,144 329,144 329,144 329,144 329,144 329,144 329,145 329,145 329,145 329,145 329,145 329,146 329,146 329,146 329,146 328,146 328,146 328,147 328,147 328,147 328,147 328,147 328,147 328,148 328,148 328,148 328,148 329,148 329,149 329,149 329,149 330,150 330,150 330,150 330,150 330,150 330,150 330,150 330,150 330,150 330,150 330,150 330,150 330,150 329,151 329,151 330,151 330,151 330,151 330,152 330,152 330,152 330,152 330,152 330,152 330,153 330,153 330,153 330,153 330,153 330,153 330,153 330,153 330,153 331,153 331,153 331,153 331,153 331,153 332,153 332,153 332,153 332,153 332,153 332,153 332,153 333,153 333,153 333,153 333,153 333,153 334,153 334,153 334,154 334,154 334,154 334,154 335,154 335,154 335,154 335,155 335,155 335,155 335,155 334,155 334,155 334,155 334,155 334,156 334,156 334,156 334,156 334,156 334,156 334,156 334,157 333,157 333,157 333,157 334,157 334,158 334,158 334,158 334,158 335,159 335,159 335,159 335,159 335,159 335,159 336,160 336,160 336,160 336,160 336,161 336,161 336,162 336,162 336,162 336,162 336,162 336,162 337,163 337,163 337,163 337,163 337,163 338,162 338,162 338,162 338,163 339,163 339,163 339,163 339,163 340,163 340,163 340,163 341,163 341,163 342,163 342,163 343,163 343,162 343,162 344,162 344,163 345,163 345,163 345,162 345,162 345,162 346,162 346,162 346,162 346,162 347,162 347,161 347,161 347,161 348,161 348,161 348,161 348,161 348,161 348,161 348,161 349,160 349,160 350,160 350,160 350,160 351,160 351,160 351,160 351,160 352,160 352,160 352,160 352,160 352,160 352,160 352,160 352,160 353,160 353,160 353,160 353,161 353,161 353,161 353,161 353,161 353,162 353,162 354,163 354,163 353,163 353,163 353,163 353,163 353,164 353,164 353,164 353,164 353,164 353,164 353,165 353,165 353,165 353,165 353,165 353,165 353,166 353,166 354,166 354,166 354,167 353,167 353,167 353,167 353,167 353,167 353,167 353,168 352,168 352,168 352,168 352,168 352,168 352,169 352,169 351,169 351,169 351,169 351,169 351,169 352,169 351,169 352,170 351,170 351,170 351,170 351,170 351,170 351,170 351,170 351,170 352,170 352,170 352,170 352,170 352,170 352,171 352,171 352,171 352,171 352,171 352,171 352,171 352,171 352,172 352,172 352,172 352,172 352,172 352,172 352,173 352,173 352,173 352,173 351,173 351,174 351,174 351,174 351,174 351,174 350,174 350,174 349,175 349,175 349,175 349,175 349,175 349,176 350,176 350,176 350,176 350,176 350,177 350,177 349,178 349,178 349,178 349,178 349,178 349,178 349,178 349,179 349,179 349,179 349,179 349,179 349,179 349,179 348,179 348,179 348,179 348,179 348,180 348,180 348,180 348,180 348,180 348,180 348,180 348,180 349,180 349,180 349,180 349,181 349,181 349,181 349,181 349,181 349,182 349,182 349,182 349,182 349,183 349,183 349,183 349,183 349,183 350,183 350,183 350,184 350,184 350,184 350,184 350,184 350,184 350,184 350,184 350,184 351,184 351,184 351,184 351,184 351,185 351,185 351,185 352,185 352,185 352,185 352,185 352,185 352,185 353,185 353,185 353,185 353,185 353,185 354,185 354,185 354,185 354,186 354,186 354,186 354,186 354,186 354,186 354,186 355,186 355,186 355,186 355,186 355,186 355,186 355,187 355,187 355,187 356,187 356,187 356,187 355,187 355,187 356,187 356,188 356,188 356,188 356,188 356,188 356,188 356,188 356,188 356,188 356,188 356,188 356,188 356,188 356,188 356,188 356,188 357,188 357,188 357,189 357,189 357,189 357,189 357,189 357,189 358,189 358,189 358,189 358,189 359,190 359,190 360,190 360,190 360,190 360,190 360,191 360,191 361,191 361,191 361,191 361,191 361,191 361,191 361,191 361,191 362,191 362,191 362,192 362,192 362,192 362,192 362,192 362,192 362,192 362,192 362,192 362,192 362,192 363,192 363,192 363,192 363,192 363,192 363,193 363,193 363,193 364,193 364,193 364,193 364,193 364,193 364,193 364,193 364,193 364,193 364,193 364,193 364,193 365,193 365,194 365,194 365,194 365,194 365,194 365,194 365,194 365,194 365,194 365,194 365,195 365,195 365,195 365,195 366,195 366,195 366,195 366,195 366,195 366,196 366,196 366,196 366,196 366,196 366,196 367,196 367,196 368,196 368,196 368,196 368,196 368,196 369,196 369,196 369,196 369,196 369,196 370,196 370,196 370,196 370,196 370,196 371,196 371,196 371,196 371,196 372,196 372,196 372,196 372,196 372,196 372,196 372,196 372,196 372,196 373,196 373,196 373,196 373,196 373,196 373,196 373,196 373,196 374,196 374,196 374,196 374,196 374,196 374,196 374,196 375,196 375,196 375,195 375,195 375,195 375,195 375,195 376,195 376,195 376,195 376,195 376,194 376,194 376,194 377,194 378,194 379,193 379,193 379,193 379,193 379,193 380,194 380,194 380,194 380,194 380,194 380,194 380,194 381,194 381,194 381,194 381,193 381,193 381,193 381,193 381,193 381,193 381,193 381,193 381,193 382,193 382,193 383,193 383,193 383,193 383,193 383,193 383,193 384,193 384,193 384,193 384,193 384,193 384,193 384,193 385,193 385,193 385,193 385,193 385,193 386,193 386,193 386,193 387,193 387,193 387,193 387,193 388,194 388,194 388,194 388,194 388,194 388,194 388,194 388,194 389,194 389,194 389,194 389,194 389,194 389,195 389,195 390,195 390,195 390,195 390,195 390,195 390,195 391,195 391,195 391,195 392,195 392,195 392,195 392,195 393,195 393,195 393,195 393,195 393,195 393,194 393,194 394,194 394,194 394,195 394,195 394,195 394,195 394,195 394,195 394,195 394,195 394,195 394,195 394,195 394,195 394,195 395,195 395,195 395,195 395,196 395,196 395,196 396,196 396,196 396,196 396,196 396,196 396,196 396,196 396,197 396,197 396,197 396,197 397,197 397,197 397,197 397,197 397,197 397,197 397,197 397,197 397,197 397,197 398,197 398,197 398,197 398,197 399,197 399,197 399,197 400,197 400,197 400,197 400,197 400,197 400,197 401,197 401,198 401,198 401,198 401,198 401,198 401,198 401,198 401,199 402,198 402,198 402,199 402,199 402,199 402,199 402,199 402,199 402,199 402,199 403,199 403,199 403,199 403,198 403,198 403,198 403,198 403,199 404,199 404,199 404,199 404,199 404,199 404,199 404,199 405,199 405,199 405,199 405,199 405,199 405,199 405,199 406,199 406,199 406,199 406,199 406,199 406,199 406,199 406,200 406,200 406,200 406,200 406,200 406,200 406,201 406,201 407,201 407,201 407,201 407,201 407,201 407,201 407,201 407,201 408,201 408,202 408,202 408,202 408,202 409,202 409,202 409,202 409,202 409,202 409,202 409,202 410,202 410,202 410,202 410,202 410,202 410,202 410,202 410,202 410,202 410,202 411,202 411,202 412,202 413,202 413,202 413,201 413,201 412,201 413,200 413,200 413,200 414,200 414,200 414,200 415,200 415,200 415,199 415,199 415,199 415,199 415,200 415,200 415,199 415,200 415,200 416,200 416,200 416,200 416,200 416,199 416,200 417,200 417,200 417,200 417,201 417,201 417,201 417,201 417,201 417,201 417,201 417,201 418,201 418,201 418,201 419,200 419,200 419,200 420,200 420,200 420,200 420,201 420,201 420,201 420,202 421,202 421,202 422,203 422,203 422,203 422,203 423,203 423,204 423,204 423,204 423,204 424,204 424,204 425,204 425,204 425,204 426,204 426,204 426,204 426,204 426,204 427,204 427,204 427,204 427,204 427,204 427,204 427,205 427,205 427,205 428,205 428,205 428,205 428,206 428,206 428,206 428,206 428,206 428,206 428,206 428,206 428,207 428,207 428,207 429,207 428,208 428,208 428,209 428,209 428,209 428,209 428,210 429,210 429,211 429,211 429,211 430,212 430,212 431,212 431,213 431,214 432,214 432,214 432,214 432,214 433,215 433,215 434,216 434,216 434,216 434,216 434,217 433,217 433,217 433,217 433,218 433,218 433,218 433,218 433,218 433,218 432,218 432,219 432,219 432,220 431,220 431,220 431,221 431,222 431,222 430,222 430,222 430,222 429,223 429,223 429,223 429,223 429,223 429,223 429,223 429,223 429,224 429,224 429,224 428,224 428,224 428,224 427,224 427,224 427,225 427,225 427,225 427,225 427,226 427,226 427,226 427,226 427,226 427,226 427,226 427,227 427,227 427,227 427,228 427,228 427,228 427,228 427,228 426,229 426,229 426,229 426,229 426,229 425,229 425,229 425,229 425,229 425,229 425,230 424,230 424,230 424,230 424,231 424,231 424,232 424,232 424,232 424,232 424,232 424,233 418,232 418,232 418,232 418,232 418,232 418,233 418,233 418,233 416,234 416,234 416,235 416,235 416,235 416,235 416,236 415,236 415,236 414,235 414,235 414,235 413,236 413,236 413,236 412,236 412,236 412,236 412,237 412,238 412,238 412,238 412,239 412,240 412,240 412,240 412,240 412,240 412,241 412,241 412,242 412,242 413,242 413,242 413,242 413,242 413,242 414,242 414,243 414,243 414,243 415,243 416,244 416,244 416,244 416,244 416,245 416,245 417,245 417,245 418,245 418,245 418,245 419,245 420,245 420,246 421,246 422,245 423,245 424,245 424,245 425,245 425,245 426,245 426,245 427,245 428,244 428,244 428,244 429,244 429,244 429,244 430,244 430,244 431,244 431,244 432,244 433,244 434,244 434,244 434,245 434,245 434,245 435,245 435,245 435,245 435,245 436,246 436,246 436,246 436,246 436,247 436,247 437,247 437,247 437,247 437,247 438,248 438,248 438,248 438,248 439,248 439,248 439,248 439,248 440,248 440,248 440,248 440,248 440,248 441,248 441,248 441,248 441,248 441,248 441,248 441,248 441,248 441,248 441,248 441,248 442,248 442,248 442,248 442,248 442,248 442,247 442,247 443,247 443,247 443,247 443,247 443,247 443,247 443,247 443,247 443,247 444,247 444,247 444,247 444,246 444,246 444,246 444,246 444,247 444,246 444,246 444,246 444,246 444,246 444,246 445,246 445,246 445,246 445,246 445,246 445,246 445,246 445,246 445,246 445,246 445,246 445,246 445,245 445,245 445,245 445,245 445,245 445,245 445,245 445,245 445,245 445,245 445,245 445,245 445,245 445,245 445,245 445,245 445,245 445,245 445,245 445,245 445,245 446,245 446,245 446,245 446,245 446,245 446,244 446,244 446,244 446,244 446,244 446,244 446,244 446,244 446,244 446,244 446,244 446,244 446,244 446,244 446,244 446,244 446,244 446,243 447,243 447,243 447,243 447,243 447,243 447,243 447,243 448,243 448,243 448,243 448,243 448,243 448,243 448,243 448,243 448,243 448,242 448,242 449,242 449,242 449,242 449,242 449,242 449,242 449,242 449,242 449,242 449,242 449,242 449,242 449,242 449,242 449,242 449,242 449,242 449,242 450,242 450,242 450,242 450,242 450,242 450,242 450,242 450,242 450,242 450,242 450,242 450,241 451,241 451,241 451,241 451,241 451,241 451,241 451,241 451,241 450,241 451,241 451,241 451,241 451,241 451,241 452,241 452,241 452,241 452,241 452,241 452,240 452,240 452,240 452,240 452,240 452,240 452,240 453,240 453,240 453,240 453,240 453,240 453,240 453,240 453,240 453,240 453,240 453,240 453,240 453,240 453,240 453,240 453,240 453,240 453,240 453,240 453,240 453,240 453,240 453,240 453,241 453,241 453,241 453,241 453,241 453,241 453,241 453,241 453,241 453,241 454,241 454,241 454,241 454,241 454,241 454,241 454,241 454,241 454,241 454,241 454,241 454,241 454,242 454,242 454,242 454,242 454,242 454,242 454,242 454,243 454,243 455,243 455,243 455,243 454,243 454,243 454,243 454,243 454,244 454,244 454,244 454,244 454,244 454,244 454,244 454,244 454,244 454,244 455,244 455,245 455,245 455,245 455,245 455,246 455,246 455,246 455,246 455,246 456,246 456,246 456,246 456,246 457,246 457,246 457,246 457,247 458,247 459,247 459,247 459,247 459,248 459,248 459,248 459,248 460,248 460,248 460,248 462,250 462,250 461,250 461,251 461,251 461,251 462,251 462,251 462,251 462,251 462,251 462,251 462,251 463,251 463,251 463,251 463,252 464,252 464,252 464,252 464,252 464,253 464,253 464,253 464,253 464,253 465,253 465,253 465,253 465,253 465,253 465,253 465,253 465,252 465,252 465,252 465,252 466,252 466,253 467,253 467,253 467,253 467,253 467,253 467,253 467,253 468,253 468,253 468,253 469,253 469,253 469,253 470,254 470,254 470,254 470,254 470,254 470,254 471,254 471,255 471,255 472,255 472,255 472,255 472,255 472,255 472,255 472,256 472,256 473,256 472,256 473,256 473,257 473,257 473,257 473,258 473,258 474,258 474,258 474,258 474,258 474,258 474,258 474,258 474,259 474,259 474,259 474,259 473,259 473,259 473,259 473,259 473,259 473,259 473,259 473,260 473,260 473,260 474,261 474,261 474,261 474,261 474,261 475,261 475,261 475,261 476,262 476,262 476,262 477,262 477,262 477,262 477,263 477,263 477,263 477,263 477,264 478,264 478,264 478,264 478,264 478,264 479,264 479,264 479,264 479,264 479,265 479,265 479,265 479,265 479,265 479,265 479,265 479,265 479,265 480,265 480,265 480,265 480,266 480,266 483,266 483,266 484,266 484,266 485,266 485,266 485,266 485,266 486,266 486,266 486,266 487,266 487,267 487,267 487,267 488,267 488,267 488,267 488,267 488,267 488,267 489,267 489,267 489,268 489,268 489,268 489,268 490,268 490,268 490,268 490,268 490,268 491,268 492,269 493,269 494,269 494,269 494,269 494,269 494,269 494,269 495,269 495,269 495,269 496,269 496,269 496,269 496,269 496,269 496,269 497,270 497,270 497,270 499,270 499,270 500,270 500,270 500,270 500,270 500,270 500,270 499,270 499,270 499,271 499,271 499,271 499,271 499,271 499,271 499,271 499,271 499,271 499,271 499,271 499,271 499,271 499,271 499,271 499,271 499,271 499,271 498,271 498,271 498,271 498,271 498,271 498,272 498,272 498,271 497,271 497,271 497,271 497,271 497,271 497,271 497,271 497,272 497,272 497,272 496,272 496,272 496,272 496,272 496,272 497,272 497,272 496,272 496,272 496,272 496,272 496,272 496,272 496,272 496,272 496,272 495,272 495,272 495,273 495,273 495,272 495,272 495,272 495,272 495,272 495,272 495,272 495,272 495,272 495,272 494,272 494,272 494,272 494,272 494,272 494,272 494,272 494,273 494,273 494,273 494,272 494,272 494,272 493,272 493,272 493,272 493,272 493,273 493,273 493,273 493,273 492,273 492,273 492,273 492,273 493,273 493,273 493,273 493,273 493,273 492,273 492,273 492,273 492,274 492,274 492,274 492,274 492,274 492,274 491,274 491,274 491,274 491,274 491,274 491,274 491,274 491,274 491,274 491,274 491,274 491,274 491,274 491,274 491,274 491,274 490,274 491,274 491,274 490,274 490,274 490,274 490,275 490,275 490,275 490,275 490,275 490,275 490,275 489,275 489,275 489,275 489,276 489,276 490,276 490,276 490,276 490,276 490,276 490,276 490,276 489,276 489,276 489,276 489,276 489,276 489,276 489,276 489,276 489,276 489,276 489,276 489,277 489,277 489,277 488,277 488,277 488,277 489,277 489,277 489,277 488,277 488,277 488,277 488,277 488,277 488,277 488,277 488,277 488,277 488,277 488,277 488,277 488,277 488,277 488,277 488,277 488,277 488,277 487,277 487,277 487,277 487,277 487,277 487,278 487,278 487,278 487,278 487,278 487,278 487,278 487,278 487,278 487,278 487,278 487,278 487,278 487,279 487,279 486,279 486,279 486,279 486,279 486,278 486,278 486,278 486,278 486,278 486,278 486,278 486,278 485,278 485,279 485,279 485,279 485,279 485,279 485,279 485,279 485,279 485,279 485,279 485,279 485,279 485,279 485,279 485,279 485,279 485,279 485,279 484,279 484,279 484,279 484,279 484,279 484,279 485,279 485,279 485,279 485,279 484,279 484,279 484,279 484,279 484,279 484,279 484,279 484,279 484,279 484,279 484,279 484,279 484,279 484,279 484,279 484,280 483,280 483,280 483,280 483,280 483,280 482,279 482,279 482,279 482,279 482,280 482,280 482,280 482,280 482,280 482,280 482,280 482,280 482,280 482,280 482,280 482,280 482,280 482,280 481,280 481,280 481,280 481,280 481,281 481,281 480,281 480,281 480,281 479,282 479,282 479,282 479,282 479,282 479,282 478,282 478,282 478,282 478,282 478,282 477,282 477,282 477,282 478,282 478,282 478,282 478,282 477,282 477,282 477,282 477,282 477,282 476,283 476,283 476,283 476,283 476,283 476,283 476,283 476,283 475,283 475,283 475,283 475,283 475,283 475,283 475,284 475,284 474,284 474,284 474,284 474,284 474,284 474,284 474,283 474,283 474,283 474,283 474,283 474,284 473,284 473,284 473,284 473,284 473,284 473,284 473,284 473,284 472,284 472,284 472,284 471,284 471,284 471,284 472,284 472,284 472,284 472,285 472,285 472,285 472,285 472,285 472,285 472,285 472,285 472,286 471,286 471,286 471,286 471,286 471,286 471,286 471,286 470,286 470,286 470,286 470,286 471,287 471,287 470,287 470,287 470,287 470,287 470,288 470,288 470,288 470,288 470,288 470,288 470,288 470,288 469,288 469,288 469,288 469,288 469,288 469,289 469,289 469,289 469,289 469,289 469,288 469,289 469,289 469,289 469,289 468,289 468,289 468,289 468,289 468,289 468,289 468,289 468,289 468,289 468,289 468,289 469,289 469,289 469,289 469,289 469,289 469,289 469,289 469,289 469,290 469,290 468,290 468,290 468,290 467,290 467,290 467,290 466,290 466,290 466,290 466,290 467,291 466,291 467,291 467,291 467,291 466,291 466,291 466,291 466,291 466,291 466,291 466,291 467,291 467,292 467,292 466,292 466,292 466,292 466,292 466,292 466,291 466,292 466,292 466,292 466,292 466,292 466,292 466,292 466,292 466,292 465,292 465,292 465,292 465,292 465,292 465,292 465,292 465,293 465,293 465,293 465,293 465,293 465,293 464,293 464,293 464,293 464,293 464,293 464,293 464,293 464,294 464,294 464,294 464,294 464,294 463,294 463,294 463,294 463,294 463,294 463,294 463,294 464,294 464,294 464,294 463,294 463,295 463,295 463,295 463,295 463,295 463,295 462,295 462,295 462,295 462,296 462,296 462,295 462,296 461,296 461,296 461,296 461,296 461,296 461,296 461,296 461,296 461,296 461,296 460,296 460,296 460,296 460,296 460,296 460,296 460,296 459,296 459,296 459,296 459,296 460,296 460,296 460,296 460,297 460,297 460,297 460,297 460,297 459,297 459,297 459,297 459,297 459,297 459,297 459,297 459,297 459,297 459,297 459,297 459,297 459,297 458,297 458,297 458,297 458,297 458,297 457,297 457,298 457,298 458,298 458,298 458,298 458,298 457,298 457,298 457,298 457,298 457,298 457,298 456,298 456,298 456,298 456,298 456,298 456,298 456,299 456,299 456,299 456,299 456,299 456,299 456,299 456,300 455,300 455,300 455,300 455,300 455,300 455,300 455,300 455,300 455,300 455,300 455,300 454,300 454,300 454,301 454,301 454,301 454,301 454,301 454,301 453,301 453,301 453,302 453,302 453,302 452,302 452,302 452,302 452,302 452,302 451,302 451,302 451,302 451,302 451,302 451,302 451,302 451,302 451,302 451,302 451,302 451,302 450,302 450,302 450,302 450,302 450,303 450,303 450,303 450,303 450,303 450,303 449,303 449,303 449,303 449,303 449,303 449,303 449,303 449,303 449,303 449,303 449,304 449,304 449,304 449,304 449,304 449,304 448,304 448,304 448,304 448,305 448,305 448,305 448,305 447,306 447,306 447,306 447,306 448,306 448,306 448,307 447,307 447,307 447,307 447,307 447,308 447,308 447,308 447,308 447,308 447,308 447,308 447,308 444,310 443,311 443,311 443,311 443,311 443,311 442,311 442,311 442,311 442,311 442,311 442,311 442,311 442,311 442,312 441,312 441,312 441,312 441,312 441,312 441,313 441,313 440,313 440,313 440,313 440,313 440,313 440,313 440,313 439,313 439,313 439,313 439,314 439,314 439,314 439,314 439,314 439,314 439,314 439,314 439,314 438,314 438,314 438,314 438,314 438,314 438,314 438,314 438,314 438,314 438,315 438,315 438,315 438,315 438,315 438,315 438,315 438,315 438,315 438,315 438,315 438,315 438,315 438,315 438,315 438,315 438,315 438,315 438,316 437,316 437,316 437,316 437,316 437,316 437,316 436,316 436,316 436,317 436,317 436,317 436,317 436,317 436,317 436,317 437,317 436,317 436,317 436,317 436,317 436,317 436,317 437,317 437,318 437,318 437,318 437,318 436,318 436,318 436,318 436,318 436,318 436,318 435,318 435,318 435,318 435,318 435,318 435,318 435,318 435,319 436,319 436,319 436,319 436,319 436,319 436,319 436,319 436,319 435,319 435,319 435,319 435,319 435,319 435,319 435,319 435,319 435,319 435,319 435,319 435,319 434,319 434,319 434,319 434,319 434,319 434,319 434,320 434,320 434,320 434,320 434,320 434,320 434,320 433,320 433,320 433,320 433,320 433,320 433,320 433,320 433,320 432,320 432,320 432,320 432,320 432,321 432,321 432,321 432,321 432,321 432,321 432,321 431,321 431,321 431,321 431,321 431,321 431,321 431,321 431,321 431,321 431,321 431,321 431,321 431,321 431,321 431,321 431,321 430,321 430,321 430,321 430,321 430,321 430,321 430,321 429,321 429,321 429,321 429,321 429,321 429,321 429,321 429,321 429,321 429,322 429,322 429,322 428,322 428,322 428,322 428,322 428,322 428,322 428,322 428,322 428,322 428,322 428,322 427,322 427,322 427,322 427,322 427,322 427,322 427,322 427,322 426,322 426,322 426,322 426,323 426,323 426,323 426,323 426,323 426,323 426,323 426,323 426,323 426,323 426,323 426,323 425,324 425,324 425,324 425,324 425,324 425,324 425,324 425,324 425,325 425,325 425,325 425,325 425,325 424,325 424,325 424,325 424,325 424,325 424,325 424,325 424,325 424,326 423,326 423,326 423,326 423,326 423,326 423,326 423,326 423,326 422,326 422,327 422,327 422,327 422,327 422,327 421,327 421,327 421,327 421,327 421,327 421,327 421,327 421,327 421,327 420,327 420,327 420,327 420,327 420,327 420,327 420,327 419,327 419,327 419,327 419,327 418,327 418,327 418,328 418,328 418,328 418,328 417,328 417,328 417,328 417,328 417,328 417,328 417,328 417,328 416,328 416,328 416,328 416,328 416,328 416,328 416,328 415,328 415,328 415,329 415,329 415,329 415,329 415,329 415,329 415,329 415,329 415,329 415,329 414,329 414,329 414,329 414,329 414,329 413,329 413,329 413,329 413,329 413,329 413,329 413,329 413,329 413,329 413,329 413,329 413,329 413,329 413,329 413,329 412,330 412,330 412,330 412,330 412,330 412,330 412,330 412,330 412,330 411,330 411,331 411,331 411,331 411,331 411,331 411,331 411,331 411,331 411,331 411,331 411,331 410,331 410,331 410,331 410,331 410,331 410,331 409,331 409,331 409,331 409,332 409,332 409,332 409,332 409,332 409,332 408,331 408,331 408,331 408,331 408,331 408,331 407,331 407,331 407,331 406,331 406,331 406,331 406,331 406,331 405,331 405,331 405,331 405,331 405,332 405,332 404,332 404,332 404,332 404,332 404,332 404,332 404,332 404,332 404,333 404,333 404,334 404,334 404,334 404,334 404,334 404,334 404,334 404,334 404,334 404,334 404,335 404,335 404,335 404,335 404,335 404,335 404,335 404,335 404,335 404,336 404,336 404,336 404,336 404,336 404,336 404,336 404,336 404,336 404,336 404,336 404,336 404,336 404,336 404,336 404,336 404,337 404,337 404,337 404,337 404,337 404,337 404,338 404,338 404,338 404,338 404,338 404,338 404,339 404,339 404,339 404,339 405,340 405,340 405,340 405,340 405,340 405,341 405,341 405,341 405,341 406,341 406,341 406,341 406,341 406,341 406,342 406,342 406,342 406,342 406,342 407,342 407,342 407,343 407,343 407,343 407,343 407,343 407,343 407,343 407,343 407,343 406,343 406,343 406,343 407,344 407,344 407,344 407,344 407,344 407,344 407,344 407,345 407,345 407,345 407,345 407,345 407,345 407,345 407,345 407,345 407,345 407,346 407,346 407,346 406,346 406,346 406,347 406,347 406,347 406,347 407,347 409,349 409,349 410,349 409,349 409,349 409,349 409,350 409,350 408,350 408,350 408,350 408,351 408,351 408,351 408,351 408,351 407,351 406,352 406,352 406,352 406,352 406,352 406,353 406,353 405,353 405,354 404,354 404,354 404,354 404,354 403,354 403,354 403,354 403,355 403,355 403,355 403,355 402,356 402,356 403,356 403,357 403,357 403,357 403,357 403,357 403,357 402,358 402,358 401,358 401,358 401,358 400,358 398,359 398,359 398,359 398,361 398,361 399,361 400,361 400,361 400,361 400,361 400,361 401,361 401,361 402,361 403,361 403,361 404,361 404,361 404,361 404,361 405,360 407,360 407,360 408,360 408,359 409,359 409,359 410,359 410,359 410,359 410,359 410,359 410,359 410,360 410,360 410,360 410,360 410,361 411,361 411,362 411,363 411,363 411,363 411,363 411,363 411,364 411,364 412,364 412,364 412,364 412,365 412,365 412,365 412,365 413,365 413,365 413,365 413,365 413,366 414,366 414,366 414,366 414,367 414,367 414,367 414,367 414,367 414,367 414,367 414,367 414,367 414,367 414,367 414,367 414,367 413,367 413,368 413,368 412,368 412,368 413,368 413,368 414,368 413,369 413,369 413,369 413,369 413,369 413,369 411,370 411,370 410,370 410,370 410,370 410,370 409,370 409,370 409,370 409,370 408,370 408,370 408,370 408,370 408,370 407,370 407,370 406,370 406,370 406,370 406,370 406,370 405,370 405,370 405,370 405,370 405,370 405,370 405,370 405,370 405,370 405,370 404,370 404,371 404,371 404,371 404,371 404,371 404,371 404,371 403,371 403,371 403,371 403,371 403,371 403,371 402,371 402,371 402,371 402,371 402,371 401,371 401,371 401,372 401,372 401,372 401,372 401,372 401,372 400,372 400,372 400,372 400,372 399,372 399,372 399,372 399,373 398,373 398,373 398,373 398,373 397,373 397,373 397,373 397,373 397,373 397,373 397,373 396,373 396,373 396,374 396,374 396,374 396,374 395,374 395,374 395,374 395,374 395,374 395,374 395,374 395,374 395,374 394,374 394,375 394,375 393,375 393,375 393,375 392,375 392,375 391,375 391,375 391,376 391,376 391,376 391,376 391,376 391,376 391,376 391,376 391,376 391,376 390,376 390,377 391,377 390,377 390,377 391,377 391,377 390,378 390,378 390,378 390,378 390,378 390,378 390,378 390,378 390,378 390,378 390,378 390,379 390,379 390,379 390,379 390,379 390,379 390,380 390,380 390,380 390,380 390,380 390,380 391,380 391,380 391,380 391,381 391,381 391,381 391,381 392,381 392,381 392,381 392,381 392,381 392,381 392,381 392,381 392,382 393,382 393,382 393,382 393,382 393,382 393,382 393,382 393,383 392,383 391,383 389,383 388,383 388,383 388,383 387,383 387,383 387,383 386,383 386,383 386,382 385,382 385,382 385,382 383,381 379,381 377,381 377,381 375,379 375,379 375,379 375,378 375,378 375,378 375,377 375,377 375,377 375,377 374,375 374,375 373,375 373,375 373,373 372,372 372,370 372,369 371,368 371,367 371,367 371,367 370,367 369,368 368,368 368,368 368,368 368,368 366,368 366,368 364,368 364,368 363,368 363,368 363,368 362,368 361,368 360,368 360,368 360,368 359,368 359,368 358,368 357,368 357,368 356,368 356,368 355,368 354,368 353,368 353,368 352,367 352,367 352,367 351,367 351,366 351,366 351,366 351,366 351,366 351,365 351,365 351,364 351,364 351,364 350,364 350,364 350,364 350,364 349,364 349,364 349,364 349,365 348,365 348,365 347,365 347,365 347,366 347,366 347,366 347,366 347,366 347,366 346,366 345,367 342,367 341,368 339,368 339,369 338,369 338,369 337,369 337,369 336,369 335,370 334,370 333,370 333,370 333,370 333,370 332,370 332,370 332,370 332,371 332,371 333,373 333,373 333,373 334,374 334,374 335,375 335,375 335,375 335,376 335,376 335,376 333,376 333,376 331,376 331,377 330,377 330,377 329,377 329,377 329,377 329,377 329,378 329,378 329,378 328,377 328,377 328,377 328,377 327,377 327,377 327,377 327,377 327,377 326,377 326,377 326,377 326,377 325,377 325,377 325,377 325,377 324,377 324,377 324,377 324,377 324,377 323,377 323,377 323,377 323,377 323,377 322,377 322,377 322,377 322,377 321,377 321,377 321,378 321,378 321,377 321,377 320,378 320,377 320,377 320,377 320,377 320,377 320,377 320,377 320,377 320,377 319,377 319,377 319,377 319,377 319,377 318,377 318,377 318,377 318,377 318,377 317,377 317,377 317,377 317,377 316,377 316,377 316,377 316,377 316,377 316,377 316,377 316,377 316,377 316,377 315,377 315,377 315,377 314,377 314,378 313,378 313,378 313,378 313,378 313,378 313,378 312,378 312,378 312,378 312,378 312,378 312,378 312,378 312,378 312,378 311,378 311,378 311,378 311,378 311,378 311,378 311,378 311,378 311,378 310,379 310,379 310,379 310,379 309,379 309,379 309,379 309,379 309,379 309,379 309,379 308,379 308,379 308,379 308,379 308,379 308,379 308,379 308,379 308,379 308,379 307,379 307,379 307,379 307,379 306,379 306,378 306,378 306,378 306,378 306,378 306,378 306,378 306,378 305,378 305,378 305,378 305,378 305,378 304,378 304,378 304,378 304,378 303,378 303,378 303,378 303,378 303,378 302,378 302,377 302,377 302,377 302,377 302,378 302,378 302,378 302,378 302,378 301,378 301,378 301,378 301,378 301,378 300,378 300,378 300,378 300,379 300,379 300,379 300,379 300,379 300,379 300,379 300,379 300,379 300,380 300,380 299,380 299,380 299,380 298,380 298,380 298,380 298,381 297,381 297,381 297,381 297,381 296,381 296,381 296,381 296,381 296,381 296,381 295,381 295,381 295,381 295,381 295,381 295,381 295,381 295,382 295,382 295,381 295,382 295,382 295,382 295,382 295,382 295,382 295,382 294,382 294,382 294,382 294,382 293,383 293,383 293,383 293,383 293,383 293,383 293,383 293,383 293,383 293,383 293,383 293,383 293,383 293,383 293,383 293,383 293,384 293,384 293,384 293,384 293,384 293,384 292,384 292,384 292,384 292,384 292,384 292,384 292,384 292,384 292,385 292,385 292,385 292,385 292,385 292,385 292,385 292,385 292,385 292,385 292,385 292,385 291,385 291,385 291,385 291,385 291,385 291,385 291,385 291,385 290,385 290,385 290,386 290,386 290,386 290,386 290,386 290,386 290,386 289,386 289,386 289,386 289,386 289,386 289,386 289,386 289,386 289,386 289,386 289,386 289,387 289,387 289,387 288,387 288,387 288,387 288,387 288,387 288,387 288,387 288,387 288,388 288,388 288,388 288,388 288,388 287,388 287,388 287,388 287,388 287,388 287,388 286,388 286,389 286,389 286,389 286,389 285,389 285,389 285,390 285,390 285,390 285,390 285,390 285,390 285,390 285,390 284,390 284,390 284,390 284,390 284,390 284,390 284,390 284,390 283,391 283,391 283,391 283,391 283,391 283,391 283,391 283,391 284,392 284,392 284,392 283,392 283,392 283,392 283,392 283,392 283,392 283,392 283,392 283,392 284,393 284,393 283,393 283,393 283,393 283,393 283,393 283,393 283,393 283,393 283,394 283,394 282,394 282,394 282,394 282,394 282,394 282,394 281,394 281,394 281,394 281,395 281,395 281,395 281,395 281,395 280,395 280,395 280,395 280,395 280,395 280,395 280,395 279,395 279,395 279,396 279,396 279,396 279,396 279,396 279,396 278,396 278,396 278,397 278,397 278,397 277,397 277,397 277,397 277,397 277,397 277,397 277,397 277,398 277,398 277,398 277,398 277,398 277,398 273,398 272,398 266,396 266,396 265,396 264,396 261,395 261,395 261,395 260,395 260,396 260,396 260,396 259,396 259,397 258,397 258,397 258,397 258,397 257,397 256,398 256,398 255,398 254,398 254,398 253,398 252,398 251,398 251,398 251,398 251,399 251,399 251,400 250,401 250,403 250,403 250,403 250,403 250,403 249,404 249,404 249,404 248,404 248,404 247,404 246,404 246,404 245,404 245,404 245,404 245,404 245,404 245,404 245,404 245,404 245,403 245,403 245,403 244,403 244,403 244,403 244,403 244,403 243,403 243,403 243,403 243,403 243,403 242,403 242,403 242,403 242,403 242,403 242,403 241,403 241,403 241,404 241,404 240,404 240,404 239,404 239,404 239,404 239,404 239,404 238,404 238,404 238,404 238,404 237,404 237,404 236,404 236,404 236,404 236,404 235,404 235,404 235,404 235,404 235,404 234,404 234,404 234,404 234,404 234,404 234,404 233,404 233,404 233,404 232,404 232,404 232,404 232,404 232,404 231,405 231,405 231,405 231,405 231,405 230,405 230,405 230,405 230,405 230,405 230,405 230,405 230,405 230,406 229,406 229,406 229,406 229,406 228,406 228,406 228,406 228,406 228,406 228,406 228,406 228,406 227,406 227,406 227,406 227,406 227,406 227,406 227,406 227,406 227,406 227,406 227,406 226,406 226,407 226,407 226,407 226,407 226,407 226,407 225,407 225,407 225,407 225,407 224,407 224,407 224,407 224,407 224,407 224,407 224,408 224,408 224,408 224,408 224,408 223,407 223,407 223,407 223,407 224,407 224,407 224,407 224,407 224,407 224,406 224,406 224,406 223,406 223,406 223,406 223,406 223,406 223,406 223,406 223,406 223,406 223,406 222,406 222,406 222,406 222,406 222,405 222,405 222,405 221,405 221,404 221,404 221,404 221,404 221,404 221,404 221,404 221,403 221,403 221,402 221,402 221,402 219,402 219,402 219,402 219,403 219,403 218,403 218,403 218,404 218,404 218,404 217,403 217,403 217,403 217,403 216,403 216,403 215,403 215,403 215,403 215,404 215,404 215,404 214,404 213,404 212,404 212,404 211,404 210,404 209,404 208,404 208,404 207,404 207,404 205,404 205,404 204,403 204,403 204,403 204,403 203,403 203,403 203,403 202,403 202,403 202,403 202,403 202,403 201,404 200,404 200,404 200,404 200,404 199,404 198,404 197,404 196,404 194,405 193,405 191,405 190,405 189,405 188,406 188,406 184,407 184,407 183,406 183,406 183,405 182,405 181,405 181,405 180,405 180,405 180,405 180,406 180,406 180,406 180,407 179,408 179,408 178,408 177,408 177,408 177,408 177,408 176,408 176,408 176,408 176,408 175,408 175,408 175,408 174,408 174,408 174,408 174,408 174,408 174,408 173,408 172,408 172,408 172,408 172,408 172,408 172,408 172,408 172,408 172,408 171,408 171,408 170,408 170,408 170,408 169,408 169,408 169,408 168,408 167,409 167,409 167,409 166,409 166,409 166,409 165,409 165,409 164,410 164,410 163,410 163,410 162,410 162,410 161,411 160,411 160,411 160,411 160,411 159,411 159,410 159,410 159,410 158,409 158,410 158,410 158,410 159,412 160,412 160,412 159,413 158,413 158,413 158,414 158,414 157,414 157,414 156,414 154,414 154,414 154,414 153,413 153,414 153,414 153,414 153,414 153,414 153,415 153,415 153,415 153,416 153,416 153,416 153,416 153,416 153,416 153,416 152,416 152,416 152,416 152,416 152,416 151,416 151,416 150,416 149,416 149,417 149,417 149,417 149,417 148,417 148,417 148,417 148,417 147,418 147,418 147,418 144,418 143,418 143,418 143,418 143,418 143,418 142,418 142,418 142,418 141,418 141,418 140,418 139,418 139,418 138,418 137,418 136,418 136,418 136,419 136,419 136,419 135,419 135,419 135,419 134,419 134,419 134,419 134,419 133,419 133,419 132,419 132,419 132,419 132,419 132,419 132,420 131,420 131,420 131,421 131,421 131,421 130,421 130,421 130,421 130,421 129,421 129,422 128,422 128,422 128,422 128,422 127,421 127,421 127,421 127,422 127,422 127,422 127,422 127,422 126,423 126,423 126,423 126,423 125,423 125,423 125,423 125,423 124,423 124,423 124,423 124,423 123,423 123,423 123,423 123,423 122,423 122,423 122,423 122,423 121,423 121,423 120,423 120,423 119,423 119,423 119,423 119,423 119,423 118,423 118,423 118,423 118,423 118,423 117,423 117,423 117,423 116,423 116,423 115,423 115,423 114,423 114,423 113,423 113,423 112,423 111,423 111,423 111,423 110,423 110,423 110,423 109,423 109,423 109,424 108,425 106,426 106,426 106,426 105,427 105,428 105,428 105,428 105,428 105,429 105,429 105,430 105,430 104,431 105,432 105,432 105,432 105,432 105,432 105,432 106,433 106,433 106,433 107,434 107,434 107,434 107,435 108,435 108,435 108,435 108,436 109,436 109,436 109,436 108,437 107,437 107,438 106,438 105,439 105,439 104,439 104,439 104,439 103,438 103,438 102,438 102,438 102,437 101,437 101,437 101,437 100,436 99,436 98,436 98,435 97,434 98,434 98,434 98,434 97,434 97,433 96,433 96,433 95,433 95,433 95,433 95,433 94,433 94,433 94,433 94,432 93,432 93,432 93,432 92,432 92,432 91,432 90,431 90,431 89,431 88,431 88,431 88,431 87,431 87,431 87,431 87,430 87,430 87,430 86,430 86,430 86,430 86,430 85,430 84,430 84,431 84,431 84,431 84,431 84,431 83,431 83,431 83,431 83,430 82,430 82,430 82,430 82,430 82,430 81,430 81,430 80,430 79,430 79,430 78,430 78,430 78,430 78,430 78,428 78,427 78,425 78,424 77,424 77,422 77,422 77,422 77,421 77,421 76,421 76,421 76,421 75,421 75,421 75,421 75,421 75,421 75,421 74,420 74,420 74,420 74,420 74,420 74,420 74,420 74,419 74,419 74,419 74,419 73,419 73,419 73,418 73,418 73,418 73,418 72,418 72,418 72,417 72,417 72,417 72,417 72,417 72,417 71,416 71,416 71,416 71,416 71,416 70,415 70,415 70,415 70,415 69,415 69,415 69,415 69,415 69,415 68,415 68,415 68,414 68,414 68,414 68,414 68,414 68,414 67,414 67,414 67,413 67,413 67,413 67,412 67,412 67,412 67,412 67,412 67,412 67,412 67,411 67,411 67,411 67,411 67,411 67,411 67,411 68,411 68,411 68,410 68,410 67,410 67,410 67,410 67,410 67,410 67,409 66,409 66,409 66,409 66,409 66,409 66,409 66,409 66,409 66,409 66,408 66,408 66,408 66,408 66,408 67,408 67,408 66,407 66,407 66,407 66,407 66,407 66,407 66,407 66,407 65,407 65,407 65,406 65,406 65,406 65,406 65,406 65,406 65,406 65,406 64,406 64,406 64,406 64,405 64,405 64,405 64,405 64,405 64,404 64,404 64,404 64,404 64,404 63,404 63,404 63,404 63,404 63,404 63,404 65,403 65,403 66,403 66,402 67,402 67,402 67,402 68,402 69,401 69,401 69,401 70,401 70,401 70,401 70,401 70,401 70,401 71,401 71,400 71,400 71,400 71,400 72,400 72,400 71,400 71,400 71,400 71,400 71,400 72,400 72,400 72,400 72,400 73,400 73,400 73,399 73,399 73,399 73,399 73,399 73,399 73,399 73,399 73,399 73,399 73,398 73,398 73,398 73,398 73,398 73,398 73,398 73,398 73,398 73,398 73,398 73,398 73,398 73,398 73,398 73,398 73,398 74,398 74,398 74,397 74,397 74,397 74,397 74,397 73,397 73,397 73,397 73,396 73,396 73,396 73,396 73,396 74,396 74,396 74,396 74,396 74,396 74,396 74,396 74,396 74,396 74,396 74,396 74,396 74,395 74,395 74,395 74,395 74,396 75,395 75,395 75,395 75,395 75,395 75,395 75,395 76,395 76,395 76,395 77,394 77,394 77,394 77,394 76,394 77,394 77,394 77,394 77,394 77,394 77,394 77,393 77,393 77,393 77,393 76,393 76,393 76,393 76,393 76,393 77,393 77,393 77,392 77,392 77,392 77,392 77,392 77,392 76,392 76,392 76,392 76,392 77,392 76,391 77,391 77,391 77,390 77,390 77,390 77,390 77,390 77,390 77,390 77,390 77,390 77,390 77,390 78,390 78,390 78,389 78,389 78,389 78,389 78,389 78,388 78,388 78,388 78,388 78,388 78,388 78,388 78,388 78,388 78,387 79,387 79,387 79,387 78,387 78,386 78,386 79,386 79,386 79,386 79,386 79,386 80,386 80,386 79,385 79,385 80,385 80,385 80,385 81,385 81,385 81,385 81,385 81,385 81,385 81,385 82,385 82,385 82,385 82,385 83,385 83,385 83,385 83,385 84,385 84,385 84,385 84,385 84,385 85,385 85,385 85,384 86,384 86,384 86,384 86,384 86,384 86,384 86,384 85,384 85,384 86,384 86,384 86,384 86,384 86,384 86,384 86,384 86,384 86,383 86,383 86,383 86,383 86,383 86,383 86,383 86,383 86,383 87,383 87,383 87,383 87,383 87,382 87,382 87,382 87,382 87,382 87,382 87,382 86,381 86,381 86,381 86,381 85,381 85,381 85,381 85,381 85,381 84,381 84,381 84,380 84,380 84,380 84,380 84,380 83,379 83,379 83,379 83,379 83,379 83,379 83,378 82,378 82,378 82,378 82,378 82,378 81,378 81,378 81,378 81,378 81,378 81,378 81,378 80,378 80,378 79,378 80,378 80,378 80,377 80,377 80,377 80,377 80,377 80,377 80,376 81,376 81,376 81,376 81,376 82,376 82,376 82,376 82,375 82,375 82,375 82,375 82,375 82,375 82,374 82,374 82,374 82,374 82,374 82,373 82,373 82,373 82,373 81,373 81,372 81,372 81,372 80,371 80,371 80,371 80,371 80,371 79,371 79,370 79,370 79,370 79,370 80,370 80,369 80,369 80,369 80,369 80,369 80,369 80,369 80,369 79,369 79,369 78,369 78,368 78,368 78,368 78,368 78,368 78,368 78,368 77,368 77,368 77,368 76,368 76,367 76,367 76,367 75,367 75,367 75,367 75,367 75,367 75,366 75,366 75,366 75,366 75,366 75,366 76,366 76,366 76,366 76,366 76,366 76,366 76,366 76,366 77,365 77,365 77,365 77,364 76,364 76,364 76,364 76,364 76,364 76,363 76,363 76,363 75,363 75,363 75,363 74,363 74,363 74,363 74,363 74,363 74,363 73,363 73,363 73,363 73,363 73,363 72,362 72,362 72,361 72,361 71,361 71,361 71,361 72,361 72,361 72,361 72,361 72,361 72,361 73,361 73,361 73,361 73,361 73,360 73,360 73,360 73,360 73,360 73,360 73,360 73,360 73,359 73,359 72,359 72,359 72,360 72,360 72,360 72,360 72,360 71,359 71,359 71,359 70,359 70,359 70,359 70,359 70,359 70,358 70,358 70,358 70,358 70,358 71,358 71,357 71,357 71,357 71,357 72,357 72,357 72,357 72,357 72,356 72,356 72,356 72,356 72,356 73,356 73,356 73,356 73,356 73,356 73,355 73,355 73,355 73,355 73,354 74,354 74,354 74,354 74,353 74,353 73,353 73,353 74,352 74,352 74,352 74,352 74,352 74,351 74,351 74,351 73,351 73,351 73,351 73,350 73,350 74,350 74,350 74,350 74,350 74,350 74,350 74,350 74,349 74,349 74,349 74,349 74,349 74,349 74,348 74,348 74,348 74,348 75,348 75,348 75,347 75,347 75,347 75,347 75,346 75,346 75,346 74,345 74,345 74,345 73,345 73,345 73,344 73,344 73,344 73,344 73,343 73,343 73,343 73,343 73,343 73,342 73,342 73,342 74,342 74,342 74,342 74,342 74,342 74,342 73,342 73,341 73,341 73,341 73,340 73,340 73,340 72,339 72,339 72,338 72,338 72,338 71,338 71,338 71,337 71,337 70,336 70,336 70,336 70,336 70,336 70,336 70,336 70,335 70,335 70,335 70,334 70,334 69,334 69,334 69,333 69,333 69,333 69,333 69,333 69,333 69,333 69,333 69,333 69,333 69,333 69,332 69,332 68,332 68,332 69,332 69,332 69,332 68,332 68,332 68,331 67,331 67,331 67,331 67,331 67,331 67,331 68,331 68,331 68,330 68,330 68,330 68,330 68,330 68,330 68,330 68,329 68,329 68,329 68,329 68,329 68,329 67,328 67,328 67,328 67,328 67,328 67,328 67,328 67,327 67,327 67,327 66,326 66,326 66,326 66,326 66,326 66,326 66,326 66,325 66,325 66,325 66,325 66,325 66,325 66,325 66,325 66,324 65,324 65,324 65,324 65,324 65,324 65,323 65,323 65,323 65,323 65,322 65,322 65,322 65,322 65,322 65,321 65,321 66,320 66,320 66,320 66,320 66,319 66,319 66,319 66,319 66,319 66,319 66,319 66,319 66,319 66,319 67,319 67,318 67,318 67,318 67,318 67,318 66,318 66,318 66,318 66,317 65,317 65,317 65,316 64,316 64,316 63,315 63,315 63,315 63,315 63,315 63,315 63,314 63,314 63,314 62,314 62,314 62,314 62,314 62,314 61,314 61,314 61,314 61,314 61,314 61,314 61,314 61,315 61,315 60,315 60,314 60,314 60,313 60,313 60,313 60,313 60,313 60,313 60,313 60,313 60,313 60,313 60,313 60,312 59,312 59,311 59,311 58,311 58,311 58,311 58,310 57,310 57,309 57,309 57,309 57,308 57,308 57,308 57,308 57,308 57,307 56,307 56,307 56,307 56,307 56,306 56,306 57,306 57,306 57,306 57,306 57,306 57,305 57,305 57,305 57,305 57,305 57,304 57,304 58,304 58,304 58,304 59,303 59,303 59,303 59,303 59,303 59,303 59,303 60,303 60,302 60,302 60,302 60,302 60,302 60,302 60,301 60,301 60,301 60,301 60,300 60,300 59,300 59,300 59,300 58,299 58,299 58,299 58,299 58,299 59,299 59,299 58,298 58,298 58,298 58,298 58,297 58,297 57,297 57,297 56,297 56,297 56,297 56,296 55,296 55,296 55,296 55,296 55,295 55,295 55,295 55,295 55,294 55,294 56,294 56,293 56,293 56,292 56,292 56,291 57,291 57,291 58,290 58,290 58,290 59,290 59,289 60,289 60,289 60,289 61,288 61,288 62,288 62,287 63,286 63,286 63,286 63,286 64,285 64,285 64,285 64,284 64,284 65,284 65,284 65,284 65,284 65,284 65,284 65,284 65,284 65,283 65,283 65,283 65,283 65,282 65,282 65,282 65,282 65,282 65,282 65,281 65,281 65,281 65,281 65,281 65,281 65,281 65,281 65,281 65,281 65,281 65,281 66,280 66,280 66,280 66,280 67,280 67,280 67,279 67,279 67,279 67,279 67,278 67,278 67,278 67,278 67,278 68,278 68,277 68,277 68,277 69,277 69,277 69,277 69,277 70,276 70,276 70,276 70,276 70,276 70,276 70,276 70,276 69,275 69,275 69,275 69,275 69,275 69,274 70,274 70,274 70,274 69,274 69,274 69,274 69,274 69,274 69,274 69,274 69,273 69,272 69,272 69,272 69,272 69,272 69,271 69,271 70,271 70,271 70,271 70,271 70,271 70,271 70,271 70,271 71,271 71,270 71,270 71,270 71,269 71,269 71,269 71,269 71,269 72,269 72,269 72,268 72,268 72,268 72,268 72,268 72,267 72,267 72,267 72,267 72,267 72,267 73,266 73,266 73,266 73,266 73,265 72,265 72,265 72,265 73,265 73,265 73,264 73,264 73,264 73,264 73,264 73,264 73,264 73,264 73,263 74,263 74,263 74,263 74,263 74,263 74,263 74,263 74,263 74,263 74,263 75,262 75,262 75,262 75,262 75,262 75,262 75,261 75,261 75,261 75,261 74,261 74,260 74,260 74,260 74,260 74,260 74,260 74,260 74,259 74,259 74,258 74,258 74,258 74,257 74,257 74,257 74,257 73,257 73,257 73,257 72,256 72,256 72,256 72,256 72,256 71,256 71,256 71,256 71,256 71,256 71,256 71,255 71,255 70,255 70,255 70,255 70,255 70,255 70,255 70,255 70,255 70,255 69,255 69,255 69,255 69,255 69,255 68,255 68,255 68,255 68,255 67,255 67,255 67,255 67,255 66,255 66,255 65,255 65,255 65,255 65,255 65,255 65,255 65,255 65,255 65,254 65,254 65,254 65,254 65,254 65,253 65,253 65,253 65,253 65,253 65,253 65,253 65,253 65,253 65,253 65,253 65,252 65,252 65,252 65,252 65,252 65,252 64,251 64,251 64,251 64,251 64,251 64,251 64,251 64,252 64,252 64,252 64,252 64,252 64,252 64,252 64,252 64,252 63,252 63,252 63,252 63,251 63,251 63,251 63,251 62,251 62,251 62,251 62,251 61,250 61,250 61,250 61,250 61,250 61,250 61,250 61,249 61,249 61,249 61,249 61,249 61,249 61,248 61,248 61,248 61,248 61,247 61,247 61,247 61,247 61,247 60,247 60,247 59,246 59,246 59,246 59,245 59,245 59,245 59,245 59,244 59,243 59,243 59,243 59,242 59,242 59,242 59,242 59,241 59,241 59,241 59,240 59,240 59,239 59,239 58,239 58,239 58,239 58,238 58,238 57,238 57,238 57,238 57,238 57,237 57,237 57,237 57,236 57,236 56,236 56,236 57,235 56,234 56,233 56,233 56,233 56,233 56,233 56,232 56,232 57,232 57,232 57,232 57,232 57,231 57,231 57,231 58,231 58,230 58,230 58,230 58,230 58,230 58,230 58,230 58,230 59,229 59,229 59,228 59,228 59,228 59,228 59,228 59,228 59,227 60,227 60,227 60,227 60,226 60,226 60,226 59,226 59,226 59,226 59,226 59,226 59,226 59,225 59,225 59,226 60,226 60,225 60,225 60,225 60,225 60,225 60,225 61,225 61,225 61,225 62,226 63,226 64,226 64,226 64,226 65,226 66,226 66,226 67,226 67,226 68,226 70,226 70,226 70,226 70,226 70,227 71,227 71,227 72,228 72,228 72,228 72,228 73,228 73,228 73,228 73,228 74,228 74,228 74,228 74,228 74,228 75,228 75,228 75,228 75,229 75,228 75,228 76,228 76,228 77,228 77,228 77,228 78,228 78,228 78,227 78,227 79,227 79,227 79,227 79,226 80,226 80,225 80,225 80,224 80,224 80,224 80,224 80,224 80,223 81,223 81,222 81,222 81,222 80,221 80,221 80,221 80,220 80,220 80,220 80,219 80,219 80,219 79,219 79,219 80,219 80,218 80,218 80,218 81,218 81,218 81,218 81,218 81,218 81,218 81,218 81,218 81,218 81,218 81,218 82,218 82,218 82,218 82,218 82,218 82,217 82,217 83,217 83,218 84,218 84,218 86,219 87,220 88,221 90,222 90,222 90,222 90,222 90,222 90,222 90,222 90,222 91,222 91,222 91,222 91,223 91,223 92,224 92,224 92,224 93,224 93,225 93,225 94,225 94,225 94,226 94,226 95,226 95,227 95,227 95,227 96,228 96,228 97,229 97,230 98,230 98,230 98,230 98,230 99,231 99,231 99,231 99,231 99,231 100,231 101,230 102,230 102,229 102,230 103,230 103,230 104,230 104,230 105,230 105,230 106,230 106,231 106,231 106,231 107,231 107,231 108,231 108,231 109,231 109,231 109,232 109,232 109,232 109,232 110,232 111,232 111,232 111,232 112,232 112,232 113,232 113,232 113,231 113,231 113,231 113,231 113,231 113,230 113,230 113,230 113,230 114,230 114,230 114,230 114,230 114,230 114,229 114,229 114,229 114,229 114,229 114,229 114,229 114,228 114,228 114,228 114,228 113,228 113,227 113,227 113,227 113,227 113,227 113,227 113,227 112,226 112,226 112,226 112,226 112,226 112,226 112,226 112,226 112,226 112,226 112,226 112,226 112,226 112,225 112,225 112,225 112,224 111,224 111,224 111,224 111,223 111,223 110,222 110,222 110,222 110,222 109,222 109,222 109,222 109,222 109,222 109,222 109,222 109,222 107,221 107,221 106,221 106,221 105,221 105,221 105,221 105,221 105,221 103,221 103,221 102,221 101,221 101,220 100,220 100,220 100,220 99,220 98,219 98,219 98,219 98,219 98,219 98,218 97,217 96,217 96,217 96,217 96,217 96,217 96,217 95,217 95,217 95,217 95,216 95,216 95,216 95,216 95,216 95,216 95,215 95,215 95,215 95,215 96,215 96,215 96,215 96,215 96,214 96,214 96,214 96,214 97,214 97,214 97,214 97,213 97,213 97,212 97,212 98,212 98,211 98,211 98,211 99,211 99,211 100,211 100,211 100,211 101,211 101,211 103,211 103,211 103,211 103,211 104,211 104,211 104,211 105,211 105,211 106,210 106,210 107,210 107,210 107,210 108,210 108,210 108,210 108,210 108,210 109,210 109,210 108,210 108,209 109,209 110,209 110,209 110,209 110,209 111,210 111,210 112,210 112,211 112,211 112,211 113,211 113,212 114,213 114,213 114,213 114,213 115,213 115,213 115,213 115,213 115,213 115,213 115,212 115,211 115,211 115,211 115,211 115,210 115,210 115,210 115,210 116,210 116,210 116,210 117,210 117,210 117,210 117,209 117,209 117,209 118,209 118,209 118,209 118,209 120,209 120,209 120,209 120,209 120,208 120,208 121,208 122,207 122,207 122,207 123,207 123,207 123,207 124,207 124,207 127,206 127,206 127,206 127,206 126,205 126,205 126,204 125,204 124,201 123,201 123,200 122,199 122,198 121,197 121,197 121,197 122,197 122,197 122,197 122,197 123,197 125,196 126,195 126,195 126,195 126,195 126,194 125,194 125,194 124,193 124,193 125,193 128,192 128,192 129,191 130,191 130,191 130,191 130,191 131,191 131,191 131,191 131,190 131,190 131,190 132,190 132,190 132,190 132,189 132,189 132,189 132,189 132,189 132,189 132,189 133,189 134,189 134,189 134,188 134,188 134,188 134,188 134,188 134,188 134,188 134,188 135,188 135,188 135,188 135,187 135,187 135,187 136,187 136,187 136,187 136,187 136,187 136,187 136,187 136,186 136,186 137,186 137,186 137,186 137,186 137,186 137,186 137,185 137,185 137,185 137,185 137,185 137,185 137,185 138,185 138,185 138,185 137,185 137,185 137,185 137,184 138,184 138,184 138,184 138,184 138,184 138,184 138,184 138,184 138,184 138,184 138,183 138,183 138,183 138,183 138,183 137,183 137,182 137,182 137,182 137,182 137,182 137,182 137,182 137,182 137,182 137,182 137,182 137,182 137,182 137,181 137,181 136,181 136,181 137,181 136,180 136,180 136,180 136,180 137,180 137,180 137,180 137,180 137,179 137,179 137,179 137,179 137,179 137,179 137,178 137,178 137,178 136,178 136,178 136,178 136,178 136,178 136,178 136,178 136,177 136,177 136,177 135,177 135,177 135,177 135,177 135,177 135,177 135,177 135,176 135,176 135,176 135,176 135,176 135,176 134,176 134,176 134,176 134,176 135,176 135,175 135,175 135,175 135,175 135,175 135,175 135,175 135,175 135,175 135,175 135,174 135,174 135,174 135,174 135,174 135,173 135,173 135,173 135,173 135,173 135,173 135,173 135,173 134,173 134,173 134,173 134,173 134,173 134,172 133,171 133,171 133,171 133,171 133,171 133,171 133,171 133,171 133,171 133,171 133,171 133,170 133,170 133,170 133,170 133,170 133,170 133,170 132,170 132,170 132,170 132,170 132,169 132,169 132,169 132,169 131,169 131,169 131,169 131,168 131,168 131,168 131,168 131,168 131,168 131,168 131,168 131,168 130,167 130,167 130,167 130,167 130,167 129,167 129,166 128,165 127,165 127,165 127,165 126,164 126,163 127,163 127,163 127,163 127,163 126,163 126,163 126,163 126,163 126,163 126,163 126,163 126,163 126,162 126,162 126,162 126,162 126,162 126,162 126,162 126,162 126,162 126,162 126,162 126,162 126,161 126,161 126,161 126,161 126,161 126,161 126,161 126,161 126,161 126,161 126,161 126,161 126,161 126,160 126,160 126,160 125,160 126,160 126,160 126,160 126,160 126,160 126,160 126,160 126,160 126,161 126,161 126,161 126,161 126,161 127,161 127,161 127,161 127,161 128,161 128,161 128,161 128,160 128,160 128,160 128,160 128,160 128,160 128,160 127,160 127,160 127,160 127,160 127,160 127,160 127,159 127,159 127,159 127,159 127,159 126,159 126,159 126,160 126,160 126,159 126,159 125,159 125,159 125,159 124,159 124,158 124,158 124,158 124,157 124,157 124,157 123,157 123,157 123,157 123,157 122,157 122,157 122,157 122,157 122,157 122,157 122,157 122,157 122,156 122,156 122,156 122,156 122,156 122,156 121,156 121,156 121,156 121,155 121,155 119,154 119,154 119,154 118,154 118,154 118,154 118,154 118,154 118,154 118,154 118,154 117,154 118,154 118,154 118,153 118,153 118,153 118,153 117,153 117,153 117,153 117,153 117,153 117,153 117,153 117,153 117,153 117,153 117,153 117,153 117,153 116,153 116,153 116,153 116,153 116,153 116,153 116,153 115,153 115,153 115,153 115,153 115,153 115,153 115,153 114,153 114,153 114,153 114,153 114,153 113,152 113,152 113,152 113,152 113,152 113,152 112,151 113,151 113,151 113,151 113,151 113,151 114,150 114,150 114,150 114,150 114,150 114,150 115,150 115,150 115,150 115,150 115,150 115,150 115,150 115,150 116,150 116,150 116,150 116,150 116,149 116,149 116,149 116,149 117,149 117,149 117,148 117,148 116,148 116,148 116,148 116,147 116,147 116,147 116,147 116,147 116,147 116,146 116,146 116,146 116,146 116,146 116,146 115,146 115,146 116,146 116,145 116,145 116,145 116,145 116,145 116,144 116,144 116,144 116,144 116,144 116,144 115,144 115,143 115,143 115,143 115,143 115,143 115,143 115,143 115,143 114,143 114,143 113,143 113,143 113,143 113,143 112,143 112,143 112,143 112,144 112,144 112,144 112,144 111,145 111,145 111,145 111,145 110,145 110,145 109,145 109,145 109,145 108,145 108,145 108,145 108,145 108,144 108,144 108,144 108,144 108,144 108,143 108,143 108,143 108,143 108,143 108,143 107,143 107,143 107,143 107,143 107,143 106,143 106,143 106,143 106,143 106,143 106,142 105,142 105,142 105,142 104,142 104,142 104,142 104,142 103,142 103,142 103,142 103,142 102,142 102,142 102,142 101,142 101,141 101,141 101,141 100,141 100,140 100,140 100,140 100,140 100,140 100,140 100,140 100,140 100,139 99,139 99,139 99,139 99,139 99,139 99,138 99,138 99,138 98,138 98,138 98,138 98,137 98,137 98,137 98,137 98,137 98,137 98,136 98,136 98,136 98,135 98,135 98,135 97,135 97,135 97,135 97,135 97,135 97,135 97,135 96,134 95,134 94,134 91,134 89,134 88,134 87,135 85,135 85,135 84,135 83,135 82,134 81,134 80,133 79,132 78,132 77,132 76,133 74,134 74,135 73,135 72,136 72,136 71,136 71,135 70,135 69,135 68,135 67,134 66,134 65,134 63,134 62,134 61,134 58,134 55,134 53,134 52,135 51,135 51,136 50,136 49,136 49,136 48,135 47,135 47,135 46,134 45,134 45,135 44,135 44,136 42,136 42,136 42,133 42,132 42,132 43,131 43,131 42,128 42,128 42,128 41,128 41,129 41,130 40,130 40,131 40,128 40,127 40,127 40,126 40,125 41,123 39,122 39,121 38,120 38,118 38,117 37,116 36,115 36,113 35,112 34,110 33,109 33,108 33,108 32,108 31,108 31,108 30,107 29,106 29,106 30,106 30,105 31,104 30,102 30,102 29,101 29,100 29,99 29,98 29,97 29,96 28,95 28,94 27,93 27,93 27,92 28,91 29,89 29,88 30,87 29,86 29,86 28,85 27,85 26,83 26,81 25,81 21,78 20,76 19,75 19,74 18,74 17,73 17,73 17,72 18,72 19,72 19,71 20,70 21,70 22,69 22,69 24,69 26,70 27,70 29,69 30,69 30,68 31,68 32,69 33,69 34,69 33,70 33,71 33,71 32,72 33,72 33,73 34,74 34,75 34,76 34,76 33,77 33,78 32,79 32,79 32,80 33,81 33,82 34,82 34,82 34,83 33,84 33,85 34,86 34,86 35,86 37,86 39,87 40,87 41,88 41,88 41,88 42,88 43,88 43,88 43,87 45,88 45,88 45,88 45,88 45,88 45,88 45,88 45,88 45,87 45,87 45,87 45,86 45,86 45,86 45,86 45,86 45,86 45,86 45,86 45,86 45,85 45,85 45,85 45,85 45,85 45,85 45,85 45,85 45,85 45,85 45,85 45,85 45,85 45,85 45,85 45,85 44,84 44,84 44,84 44,84 44,83 44,83 44,83 44,83 44,82 44,82 44,82 43,81 43,81 43,81 43,81 43,81 43,81 43,81 43,80 43,80 43,80 43,80 43,80 43,80 43,80 42,80 42,80 42,80 42,80 42,80 42,81 41,81 41,81 41,81 41,81 41,81 41,81 40,81 40,81 40,81 40,81 40,81 40,81 40,81 40,81 40,81 40,81 40,81 40,81 40,81 40,81 39,81 39,81 39,81 39,81 39,81 38,81 38,81 37,81 37,81 37,81 37,81 37,81 37,81 37,82 37,82 37,82 37,82 37,82 37,82 37,82 37,82 37,82 37,82 37,82 36,82 36,82 36,82 36,82 36,82 36,82 36,82 36,82 36,82 36,82 36,82 36,82 35,82 35,82 35,82 36,82 36,81 36,81 36,81 37,81 37,81 38,81 38,81 38,81 38,81 38,81 39,81 39,81 39,81 40,81 40,81 40,81 40,81 41,81 41,81 41,81 42,81 42,80 42,80 42,80 42,80 43,80 43,80 43,80 43,80 43,80 43,80 43,80 43,80 43,80 44,80 44,80 44,80 44,79 44,79 44,79 44,79 44,79 44,78 44,78 44,78 44,78 44,78 44,78 44,78 44,78 44,78 43,78 43,78 43,77 43,77 43,77 43,77 43,77 43,77 43,77 43,77 43,76 43,76 43,76 43,76 43,76 43,76 43,76 43,76 43,76 43,76 43,76 43,76 43,76 43,76 43,76 43,76 43,76 42,76 42,76 42,76 42,76 42,76 42,76 42,75 42,75 42,75 42,75 42,75 42,75 42,75 42,75 42,75 42,75 42,75 42,75 42,75 42,75 42,75 42,75 42,75 42,75 42,75 42,75 42,75 42,74 42,74 42,74 42,74 43,74 43,74 43,74 43,74 43,74 43,74 43,74 43,74 43,74 43,74 43,74 44,74 44,74 44,74 44,74 44,74 44,74 44,74 44,73 44,73 44,73 44,73 44,73 44,73 44,73 44,73 45,73 45,73 45,73 45,73 45,73 45,73 45,73 45,73 45,73 45,73 45,72 45,72 45,72 45,72 45,72 45,72 45,72 45,72 45,72 45,72 45,71 45,71 45,71 45,71 45,71 45,71 45,71 45,71 45,71 45,71 45,71 45,71 45,71 45,71 45,71 45,71 45,71 45,71 45,71 45,71 45,71 45,71 45,71 45,70 45,70 45,70 45,70 45,70 45,70 45,70 45,70 45,70 45,70 45,70 44,69 44,69 44,69 44,68 44,68 44,68 44,68 44,68 44,67 44,67 44,67 44,67 44,67 44,67 44,67 44,67 44,67 44,66 43,66 43,66 43,66 43,66 43,66 43,65 43,65 43,65 42,65 42,65 42,65 42,65 42,65 41,65 41,64 41,64 40,64 40,64 40,64 40,64 40,64 40,64 40,64 40,64 40,64 39,64 39,64 39,64 39,64 39,64 38,64 38,64 38,64 38,64 38,64 37,64 37,64 37,64 37,64 37,64 37,64 37,65 37,65 37,65 37,65 37,65 37,65 37,65 37,65 37,65 37,65 36,65 36,65 36,65 36,65 36,65 36,65 36,65 36,65 36,65 36,65 36,65 36,65 36,65 36,65 36,65 36,66 36,66 36,65 36,65 36,65 36,65 36,65 36,65 36,65 36,65 36,65 36,65 36,65 36,65 36,65 36,65 36,64 36,64 36,64 35,64 35,64 35,64 35,64 35,64 35,64 35,64 35,64 35,64 35,64 35,64 36,64 36,64 36,64 36,64 36,64 36,64 36,64 36,64 36,64 36,64 36,64 36,64 36,64 36,64 36,64 36,64 36,64 36,64 36,64 36,64 37,64 37,64 37,64 37,64 37,64 38,64 38,63 38,63 38,63 39,63 39,63 39,63 39,63 39,63 39,63 39,63 40,62 40,62 40,62 40,62 40,62 40,61 41,61 41,61 41,60 41,60 41,60 41,60 41,60 41,60 41,60 41,60 41,59 41,59 41,59 41,59 41,59 41,59 40,58 40,58 40,58 40,58 40,57 40,57 40,57 40,57 40,56 40,56 40,56 40,56 40,56 40,56 40,55 40,55 40,55 40,55 40,54 40,54 40,54 39,54 39,54 39,54 39,54 39,54 39,54 39,54 39,54 39,54 39,54 39,54 39,54 39,54 39,54 38,54 39,54 38,54 38,54 38,54 38,54 38,54 38,54 38,54 38,54 38,54 38,54 38,54 38,53 37,54 37,53 37,53 37,53 37,53 37,53 37,53 36,53 36,53 36,53 36,53 36,53 36,53 36,53 36,52 36,52 35,52 35,52 35,52 35,52 35,52 34,52 34,52 34,52 34,52 34,52 34,52 34,52 34,52 34,52 34,53 34,53 33,53 33,53 33,53 33,53 33,53 33,53 33,53 33,53 33,53 33,53 33,53 33,53 33,54 33,54 33,54 33,54 33,54 33,54 33,54 32,54 32,54 32,54 32,54 32,54 32,54 32,54 32,53 32,53 32,53 32,53 32,53 32,53 32,53 32,53 32,53 32,53 32,53 32,53 32,53 32,53 32,53 32,53 32,53 32,53 32,53 31,53 31,53 31,53 31,52 31,52 31,52 31,52 31,52 31,52 31,52 31,52 31,52 31,52 31,52 31,52 31,52 31,52 31,52 31,52 31,52 31,51 31,51 31,51 31,51 31,51 31,51 31,51 31,51 31,51 31,51 31,51 32,51 32,51 32,51 32,51 32,51 32,51 32,51 32,51 32,51 32,51 32,51 32,51 32,51 32,51 32,51 32,51 32,51 32,51 33,51 33,51 33,51 33,51 33,51 33,51 33,51 33,51 33,51 33,51 33,51 33,51 33,51 33,50 33,50 33,50 33,50 33,50 33,50 33,50 33,50 33,50 33,50 33,50 33,50 34,50 34,50 33,50 33,50 33,50 33,50 34,50 34,50 34,50 34,50 34,50 34,50 34,50 34,50 34,50 34,50 34,50 34,50 34,50 34,50 34,50 34,50 34,50 34,50 34,50 34,50 34,49 34,49 34,49 34,49 34,49 34,49 34,49 34,49 34,49 34,49 34,49 34,49 34,49 34,49 34,49 34,49 34,49 34,49 34,49 34,49 34,49 34,49 34,48 34,48 34,48 34,48 34,48 34,48 34,48 34,48 34,48 34,48 34,48 34,48 33,48 33,48 33,48 33,48 33,48 33,48 33,48 33,48 33,48 33,48 33,48 33,48 33,48 33,48 33,48 33,48 33,48 33,48 33,48 33,48 33,48 33,48 33,48 33,48 33,48 33,47 33,47 33,47 33,47 33,47 33,47 33,47 33,47 33,47 33,47 33,47 33,47 33,46 33,46 32,46 32,46 32,46 32,46 32,46 32,46 32,46 32,46 32,46 32,46 32,46 32,46 32,46 32,46 32,46 32,46 32,46 32,46 32,46 32,46 32,46 32,46 32,46 32,46 32,46 32,46 32,46 32,46 32,46 32,46 32,46 32,46 32,46 32,45 32,45 32,45 32,45 32,45 32,45 32,45 32,45 33,45 33,45 33,45 33,45 33,45 33,45 33,45 33,45 33,45 33,45 33,45 33,45 33,45 33,45 33,45 33,45 34,45 34,45 34,45 34,45 34,45 34,45 34,45 34,45 34,45 34,45 34,45 35,45 35,45 35,45 35,45 35,45 35,45 35,45 35,45 35,45 35,45 35,45 36,45 37,45 36,44 36,44 37,44 37,44 37,44 37,44 37,44 37,44 38,44 38,43 38,43 38,43 38,43 38,43 39,43 39,42 39,42 39,42 39,42 39,42 40,41 40,41 40,41 40,41 40,40 40,40 40,40 40,40 40,40 40,40 40,40 40,40 40,40 40,40 40,40 40,40 40,40 40,40 40,40 40,40 40,40 40,40 40,39 40,39 40,39 40,39 40,39 39,39 39,39 39,39 39,39 39,39 39,39 39,39 39,39 39,39 39,39 39,39 39,39 39,39 39,38 39,38 39,38 39,38 39,38 39,38 39,38 39,38 39,38 38,38 38,38 38,37 38,37 38,37 38,37 39,37 39,37 39,37 39,37 39,37 39,37 39,36 39,36 39,36 39,36 39,36 39,36 39,36 39,36 39,36 39,36 39,36 39,36 39,36 39,36 39,36 39,36 40,36 40,36 40,36 40,36 40,36 40,36 40,36 40,36 40,36 40,36 41,36 41,36 41,36 41,36 41,36 41,36 41,36 41,36 41,36 41,36 41,36 42,36 42,36 42,36 42,36 42,36 42,36 42,36 42,36 42,36 42,36 43,35 43,35 43,35 43,36 43,36 43,36 43,36 43,36 44,35 44,35 44,35 44,35 44,35 44,35 44,35 44,35 44,35 44,35 44,35 44,35 45,34 45,34 45,34 45,35 45,35 45,35 45,34 45,34 45,35 45,35 45,35 45,35 46,35 46,35 46,35 46,35 46,35 46,35 46,35 46,35 47,35 47,35 47,36 47,36 47,36 48,36 48,36 48,36 48,36 48,36 48,36 49,36 49,36 49,36 49,36 49,36 49,36 49,36 49,36 49,36 49,36 49,36 50,36 50,36 50,36 51,36 51,36 51,36 51,35 52,35 52,35 52,35 53,35 53,35 53,35 53,35 53,35 53,35 53,35 53,34 53,34 53,34 53,34 53,34 54,34 54,34 54,34 54,34 54,34 54,34 54,34 54,34 54,34 54,34 54,34 54,34 54,34 54,34 54,34 54,34 54,34 54,33 54,33 54,33 55,33 55,33 55,33 55,33 55,33 55,33 55,33 55,33 55,33 55,33 55,33 54,33 54,33 54,33 54,33 54,33 54,33 54,33 54,33 54,33 54,33 54,32 54,32 54,32 54,32 54,32 54,32 54,32 54,32 54,32 54,32 54,32 54,32 54,32 54,32 54,32 54,32 54,32 54,32 54,32 54,32 54,32 54,32 54,32 54,32 54,32 54,32 54,32 54,32 54,32 54,32 54,32 54,32 54,31 54,31 54,31 54,31 54,31 54,31 54,31 54,31 54,31 54,31 54,31 54,31 54,30 54,30 54,30 54,30 54,30 54,30 54,30 54,30 54,30 54,30 54,30 54,30 54,30 54,30 54,30 54,30 54,30 54,30 54,30 54,29 54,29 54,29 54,29 54,29 54,29 54,29 54,29 54,29 54,29 54,29 54,29 54,29 54,29 54,29 54,29 54,28 54,28 54,28 54,28 54,28 54,28 54,28 54,28 54,28 54,28 54,28 54,28 54,28 54,28 54,28 54,28 54,28 54,28 54,28 54,28 54,27 54,27 54,27 54,27 54,27 54,27 54,27 54,27 54,27 54,27 54,27 54,27 54,27 54,26 54,26 54,26 54,26 54,26 54,26 54,26 54,26 54,26 54,26 54,26 54,26 54,26 54,26 54,26 54,26 54,26 54,26 54,26 54,26 54,26 54,26 54,26 54,26 54,26 54,26 54,26 54,26 54,26 54,26 54,26 54,26 54,26 54,26 54,26 54,26 54,26 54,25 54,25 54,25 54,25 54,25 54,25 54,25 54,25 54,25 54,25 54,25 54,25 54,25 54,25 54,25 54,25 53,25 53,25 53,25 53,25 53,25 53,25 53,25 53,25 53,25 53,25 53,25 53,25 53,25 53,25 53,25 53,25 53,25 53,25 53,25 53,24 53,24 53,24 53,24 53,24 53,24 53,24 53,24 53,24 53,24 53,24 53,24 53,24 53,24 53,24 53,24 53,24 53,24 53,24 53,24 53,24 53,24 53,24 53,24 53,24 53,24 53,24 53,24 53,24 53,24 53,24 53,24 53,24 53,24 53,23 53,23 53,23 53,23 53,23 53,23 53,23 53,23 53,23 53,23 53,23 53,23 53,23 53,23 53,23 53,23 53,23 53,23 53,23 53,23 53,23 53,23 53,23 53,22 52,22 52,22 52,22 52,22 52,22 52,22 52,22 52,22 52,22 52,22 52,22 52,22 51,22 51,22 51,22 51,21 51,21 51,21 51,21 52,21 52,21 52,21 51,21 51,21 51,21 51,21 51,21 51,21 51,21 51,21 51,21 51,21 51,21 51,20 51,20 51,20 52,20 52,20 52,20 52,20 52,20 52,20 52,20 52,20 52,20 52,20 52,20 52,19 52,19 52,19 52,19 52,19 52,19 52,19 52,19 52,19 53,19 53,19 53,19 53,19 53,19 53,18 53,18 53,18 53,18 53,18 54,18 54,18 54,18 53,18 53,18 53,18 53,18 53,18 53,18 53,18 53,18 53,18 53,19 54,19 54,19 54,19 54,19 54,19 54,19 54,19 54,19 54,19 54,19 54,19 54,19 55,19 55,19 55,19 55,19 55,19 55,19 55,19 55,19 55,19 55,19 55,19 55,20 55,20 55,20 56,20 56,20 56,20 56,20 56,20 56,20 56,20 56,20 56,20 57,20 57,20 57,20 57,20 57,20 57,20 57,20 57,21 57,21 57,21 57,21 57,21 58,21 58,21 58,21 58,21 58,21 58,20 58,20 58,20 59,20 59,20 59,20 59,20 59,20 59,20 59,20 59,20 59,20 59,20 59,20 60,20 60,20 60,20 60,20 60,20 60,20 61,20 61,20 61,19 61,19 61,19 61,19 61,19 61,19 61,19 61,19 61,19 61,19 61,19 61,19 61,19 61,19 61,19 61,19 61,19 61,19 61,19 61,19 61,19 61,19 61,19 62,19 62,19 62,19 62,19 62,18 62,18 62,18 62,18 62,18 62,18 62,18 62,18 62,18 62,18 62,18 62,18 62,18 62,18 62,18 62,18 62,18 62,17 62,17 62,17 62,17 62,17 62,17 62,17 62,17 62,17 62,17 62,17 62,17 62,17 62,17 62,16 62,16 62,16 62,16 62,16 62,16 62,16 62,16 62,16 62,16 62,16 62,16 62,16 62,16 62,16 62,16 62,16 62,15 62,15 62,15 62,15 62,15 61,15 61,15 61,15 61,15 61,15 61,15 61,15 61,15 61,15 61,15 61,15 61,15 61,15 61,15 60,15 60,15 60,15 60,15 60,15 60,15 60,15 60,15 60,15 60,14 60,14 60,14 60,14 60,14 60,14 60,14 61,14 61,14 61,14 61,14 61,14 61,14 61,14 61,14 61,14 61,14 62,14 62,14 62,14 62,14 62,14 62,14 62,14 62,14 62,14 62,14 62,14 62,14 62,14 62,14 62,14 62,14 62,14 62,14 62,14 62,14 63,14 63,14 63,14 63,14 63,14 63,14 63,14 63,14 63,14 63,13 63,13 63,13 64,13 64,13 64,13 64,13 64,13 64,13 64,13 64,13 64,13 64,13 64,13 64,13 64,13 64,13 65,13 65,13 65,13 65,13 65,13 65,13 65,13 65,13 65,13 65,13 65,13 66,13 66,12 66,12 66,12 66,12 66,12 66,12 66,12 66,12 67,12 67,12 67,12 67,11 67,11 67,11 67,11 67,11 68,11 68,11 68,11 68,11 68,10 68,10 68,10 68,10 68,10 68,10 68,10 67,10 67,10 68,10 68,10 68,10 68,10 68,10 67,10 67,10 67,10 67,10 67,10 67,10 67,10 67,10 67,10 67,10 67,10 66,10 66,10 66,10 66,10 66,10 66,10 66,10 66,10 66,9 66,9 66,9 66,9 66,9 66,9 67,9 67,9 67,9 67,9 67,9 67,9 67,9 67,9 67,9 67,9 67,9 67,9 67,9 67,9 67,9 67,9 67,9 67,9 67,9 67,9 67,9 67,9 67,9 67,9 67,9 67,9 67,9 67,9 67,9 67,9 67,9 67,8 67,8 67,8 67,8 67,8 67,8 67,8 67,8 67,9 68,9 68,9 68,9 68,9 68,9 68,9 68,9 68,9 68,9 68,9 68,9 68,9 68,9 68,9 69,9 69,9 69,9 69,9 69,9 69,9 69,9 69,9 69,9 69,9 69,9 69,9 69,9 69,9 69,9 69,9 69,9 69,9 69,9 69,9 69,9 69,9 69,9 69,9 69,9 69,9 69,10 69,10 69,10 69,10 69,10 69,10 69,10 69,10 69,10 69,10 69,10 69,10 69,10 69,10 69,10 69,10 69,10 69,10 69,10 69,11 69,11 69,11 69,11 68,11 68,11 68,11 68,11 68,11 68,11 68,11 68,11 68,11 68,11 68,12 68,12 68,12 68,12 68,12 68,12 68,12 68,13 68,13 68,13 68,13 69,13 70,13 70,12 71,12 72,12 72,12 73,12 74,12 74,12 74,12 74,12 74,12 75,11 75,11 76,10 76,10 76,10 76,10 75,11 74,12 73,12 73,12 72,12 72,12 72,12 72,12 72,12 72,12 71,12 71,12 70,12 70,13 69,13 69,13 69,13 70,14 70,14 70,14 70,14 70,14 70,14 70,14 70,14 70,14 71,14 71,14 70,14 70,14 70,14 70,14 70,14 70,14 70,15 70,15 70,15 70,15 70,15 70,15 70,15 70,15 70,15 70,15 70,15 70,15 70,15 70,15 70,15 70,15 70,15 70,15 70,15 71,15 71,15 71,15 71,16 71,16 71,16 71,16 71,16 71,16 71,16 71,16 71,16 71,16 71,16 71,16 71,16 71,16 71,16 71,16 71,16 71,16 71,16 71,16 71,16 71,16 71,16 71,16 70,16 70,16 70,16 70,16 70,16 70,16 70,16 70,16 70,17 70,17 70,17 70,17 70,17 70,17 70,17 70,17 70,17 70,17 70,17 70,17 70,17 70,18 70,18 71,18 71,18 71,18 70,18 70,18 70,18 70,18 71,18 71,18 71,18 71,18 71,18 71,18 71,18 71,18 71,18 71,18 71,18 71,18 71,18 71,18 71,18 71,18 71,18 71,18 71,18 71,18 71,18 71,18 72,18 72,18 72,18 72,18 73,17 73,17 74,18 73,18 73,18 73,18 74,18 74,18 74,18 74,18 74,18 74,19 74,19 74,19 74,19 74,19 73,19 73,19 73,19 73,19 73,20 73,20 73,20 73,20 73,20 73,20 73,20 73,20 73,20 73,20 73,20 73,20 73,20 73,20 73,20 73,20 73,20 73,20 73,20 73,20 73,20 74,20 74,20 74,20 74,21 74,21 74,21 73,21 73,21 73,21 73,21 73,21 73,21 73,21 73,21 73,21 73,21 73,21 73,21 73,21 72,22 72,22 72,22 72,22 72,22 72,22 72,22 72,23 72,23 72,23 72,23 72,23 72,23 72,23 72,23 72,23 72,23 72,23 72,24 73,24 73,24 73,24 73,24 75,25 75,25 75,25 75,25 75,25 78,26 78,26 79,26 79,26 79,26 79,26 79,26 79,26 79,26 80,27 80,27 80,27 80,27 80,27 80,27 80,27 80,27 80,27 81,27 81,27 81,27 81,27 81,28 81,28 81,28 81,28 81,28 81,28 82,28 82,28 82,28 82,28 82,28 82,28 82,28 82,28 82,28 82,28 82,28 82,28 82,28 82,28 82,28 82,28 82,28 82,28 83,28 83,28 83,28 83,28 83,28 83,28 83,28 83,28 83,28 83,28 83,28 84,28 84,28 84,28 84,28 84,28 84,28 84,28 84,28 84,28 84,28 84,28 84,28 84,29 84,29 84,29 84,29 84,28 84,28 84,28 84,28 84,28 84,28 84,28 84,28 84,28 84,28 84,28 83,28 83,28 83,28 83,28 83,28 83,28 83,28 83,28 83,28 83,28 83,28 83,28 83,28 83,28 83,28 83,28 83,28 83,28 83,28 82,28 82,27 82,27 82,27 82,27 82,27 82,27 82,27 82,27 82,27 82,27 83,27 83,27 83,27 83,26 83,26 83,26 83,26 83,26 83,26 83,26 83,26 83,26 83,26 83,26 83,26 83,26 83,26 83,26 83,26 83,26 83,26 83,26 83,26 83,25 83,25 83,25 83,25 83,25 83,25 83,25 83,25 83,25 83,25 83,25 83,25 83,25 83,25 83,25 83,25 83,24 83,24 83,24 83,24 83,24 82,24 82,24 82,24 82,24 82,24 83,23 83,23 82,23 82,23 82,23 83,23 82,23 82,23 82,23 82,23 82,23 82,22 82,22 82,22 82,22 82,22 82,22 82,22 82,22 82,22 82,22 82,22 82,22 82,22 82,22 82,22 83,21 83,21 83,21 83,21 83,21 83,21 83,21 83,21 83,21 83,21 83,20 83,20 83,20 83,20 83,20 83,20 83,20 83,20 83,19 83,19 83,19 83,19 83,19 83,19 83,19 83,19 83,19 83,19 83,18 83,18 83,18 82,18 82,18 82,18 82,18 82,18 82,18 82,18 82,18 82,18 82,18 82,18 82,18 82,18 82,18 82,18 82,18 82,18 82,18 82,18 82,17 82,17 82,17 82,17 82,17 82,17 82,17 82,17 82,17 82,17 82,17 82,17 82,17 82,17 82,17 82,17 82,16 82,16 82,16 82,16 83,16 83,16 83,16 83,16 83,16 83,16 83,16 83,16 83,16 83,16 83,16 83,16 83,16 83,16 83,16 83,16 83,16 83,16 83,16 83,16 83,16 83,16 83,16 83,16 84,16 84,16 84,16 84,16 84,16 84,16 84,16 84,16 84,16 84,16 84,16 84,16 85,16 85,16 85,16 85,16 85,15 85,15 85,15 85,15 85,15 85,15 85,15 86,15 86,15 86,15 86,15 86,14 86,14 86,14 86,14 86,14 86,14 86,14 86,14 86,14 86,14 86,14 87,14 87,14 87,14 87,14 87,14 87,14 87,14 87,14 87,14 87,13 87,13 87,13 87,13 87,13 87,13 88,13 88,13 88,13 88,13 88,13 88,13 88,13 88,13 88,13 88,13 88,13 88,13 88,12 88,12 88,12 88,12 88,12 88,12 88,12 88,12 88,12 88,12 88,12 88,12 88,12 88,12 88,12 88,11 88,11 88,11 88,11 88,11 88,11 88,11 88,11 88,11 88,11 88,11 88,11 87,11 87,10 87,10 87,10 87,10 87,10 87,10 87,10 86,10 86,10 86,10 86,10 86,10 86,10 86,10 86,10 86,10 86,10 86,10 86,10 86,10 85,10 85,10 85,10 85,10 85,9 84,9 84,9 84,9 84,10 84,9 84,10 84,9 84,9 84,9 84,9 84,9 84,9 84,9 84,9 84,9 84,9 84,9 84,9 84,9 84,9 84,9 84,9 84,9 84,9 84,9 84,9 84,9 84,9 84,9 84,9 84,9 84,9 84,8 84,8 84,8 84,8 84,8 84,8 84,8 84,8 84,8 84,8 84,8 84,8 84,8 84,8 84,8 84,8 84,8 84,8 84,8 84,8 84,7 84,7 84,7 84,7 84,7 84,7 84,7 84,7 84,7 84,7 84,7 84,7 84,7 84,7 84,7 84,7 84,7 84,7 84,7 84,7 84,7 84,7 84,7 84,7 84,7 84,7 84,7 85,7 85,7 85,7 85,7 85,7 85,7 85,7 85,7 85,7 85,7 85,7 85,7 85,7 85,7 85,7 85,7 85,7 86,7 86,7 86,7 86,7 86,7 86,7 86,7 86,7 86,6 86,6 86,6 86,6 86,6 86,6 86,6 86,6 86,6 86,5 86,5 86,5 86,5 85,5 85,5 85,5 85,5 85,5 85,5 85,5 85,5 85,5 85,5 85,5 85,5 85,5 85,5 85,5 85,5 85,5 85,5 85,5 84,5 84,5 84,5 84,5 84,5 84,5 84,5 84,5 84,5 84,5 84,5 84,5 84,5 84,5 84,5 84,5 84,5 84,5 84,5 84,5 84,5 84,4 84,4 84,4 84,4 84,4 84,4 84,4 84,4 84,4 83,4 83,4 83,4 83,4 83,4 83,4 83,4 83,4 83,4 84,4 84,4 84,4 84,4 84,4 84,4 84,4 84,4 84,4 84,4 84,4 84,4 84,3 84,3 84,3 84,3 83,3 83,3 83,3 83,3 83,3 83,3 84,3 84,3 84,3 84,3 84,3 84,3 83,3 83,3 83,3 83,3 83,3 83,2 83,2 82,2 82,2 82,2 82,2 82,2 82,2 82,2 82,2 82,2 82,2 81,2 81,2 81,2 81,2 81,2 81,2 81,2 81,2 80,2 80,2 80,2 80,2 80,2 80,2 80,2 80,2 80,2 80,2 80,2 80,2 80,2 80,2 80,2 80,1 80,1 80,1 80,1 80,1 80,1 80,1 80,1 80,1 80,1 80,1 80,1 80,1 80,1 80,1 80,1 80,1 80,1 80,1 80,1 79,1 79,1 79,1 79,1 79,1 79,1 79,1 79,1 79,1 79,1 79,1 79,1 79,1 79,1 79,1 79,1 79,1 79,1 79,1 79,1 79,0 79,0 79,0 79,0 78,0 78,0 78,0 78,0 78,0 79,0 79,0 79,0 79,0 79,0 79,0 79,0 79,0 79,0 79,0 79,0 79,0 79,0 79,0 79,0 79,0 79,0 79,0 79,0 79,0 79,0 80,0 80,0 80,0 81,0 81,0 81,0 81,0 81,0 81,0 81,0 81,0 81,0 81,0 81,0 82,0 82,0 82,0 82,0 82,0 82,0 82,0 82,1 82,1 82,1 82,1 82,1 82,1 82,1 82,1 82,1 82,1 82,1 82,1 82,1 82,2 82,2 82,2 83,2 83,2 83,2 83,2 83,2 83,2 83,2 83,2 83,2 83,2 83,2 83,2 83,2 83,2 83,2 84,2 84,2 84,2 84,2 84,2 84,2 84,2 84,2 84,2 85,2 85,2 85,2 85,2 86,2 86,2 86,2 86,2 86,2 86,2 86,2 86,2 86,2 86,2 86,2 87,2 87,2 87,2 87,2 87,2 87,2 87,2 87,2 87,2 87,2 87,3 87,3 87,3 87,3 87,3 87,3 88,3 88,3 88,3 88,3 88,3 88,3 88,3 88,3 89,4 89,4 89,4 89,4 89,4 89,4 89,4 88,4 88,4 88,4 88,4 88,4 88,4 88,4 88,4 88,4 89,5 89,5 89,5 89,5 89,5 89,5 89,5 89,5 89,5 89,5 89,5 89,5 89,5 89,5 89,5 89,5 89,5 89,5 89,5 89,5 89,5 89,5 89,5 89,5 89,6 89,6 89,6 89,6 89,6 89,6 90,6 90,6 90,6 90,6 91,6 91,6 92,7 92,7 92,7 92,7 92,7 92,7 92,7 92,7 92,7 92,7 92,7 92,7 92,7 92,7 92,7 92,7 93,7 93,7 93,7 93,7 93,8 93,8 93,8 93,8 93,8 93,8 93,8 93,8 93,8 93,8 93,8 93,8 93,8 93,8 93,8 93,8 93,8 93,8 93,8 93,8 93,8 93,8 93,8 93,8 93,8 93,8 93,8 93,8 93,8 93,8 93,8 93,9 93,9 93,9 93,9 93,9 93,9 93,9 93,9 93,9 93,9 93,9 93,9 93,9 93,9 93,9 93,9 93,9 94,10 94,10 94,10 94,10 94,10 94,10 95,10 95,10 95,10 95,10 96,11 98,11 99,12 100,12 100,12 101,12 101,12 102,12 102,12 102,13 102,13 103,13 103,13 103,13 104,13 104,13 104,13 104,13 105,13 105,13 105,13 105,13 105,13 105,13 106,13 106,13 106,13 106,13 107,13 107,13 107,13 107,13 107,13 108,13 108,13 108,12 108,12 108,12 108,12 109,12 109,12 109,12 109,12 110,12 110,12 110,12 110,12 110,12 110,12 110,12 110,12 110,12 110,12 111,11 111,11 111,11 112,11 112,11 112,11 112,10 112,10 112,10 112,10 112,10 113,10 113,10 114,10 115,10 115,10 115,10 115,10 115,11 115,11 115,11 115,11 115,11 115,11 115,11 115,11 115,12 115,12 115,12 115,12 115,12 115,12 115,12 115,12 116,12 116,12 116,12 116,12 116,12 116,13 116,13 116,13 116,13 115,13 115,13 115,13 115,13 115,14 116,14 116,14 116,15 116,15 116,15 115,15 116,15 116,15 116,16 116,16 117,16 117,16 117,16 117,17 117,17 117,17 117,18 117,18 117,18 117,18 117,18 118,19 118,19 118,19 118,19 118,19 118,19 119,20 119,20 119,20 119,20 119,20 119,20 119,21 119,21 119,21 120,21 121,21 121,21 121,21 121,21 121,21 122,21 122,21 122,21 122,21 122,21 122,21 122,21 122,21 122,21 122,21 122,21 122,21 122,21 122,21 122,21 122,21 122,21 122,21 122,22 122,22 122,22 123,22 123,23 123,23 123,23 123,23 123,23 123,23 123,23 123,23 123,23 123,23 123,23 124,24 124,24 124,24 124,24 124,24 124,24 124,24 124,24 124,24 124,24 124,24 125,24 125,24 125,24 125,24 125,24 125,24 125,24 125,24 125,24 125,24 125,24 125,24 125,24 126,24 126,24 126,24 126,25 126,25 126,25 126,25 126,25 126,25 126,25 126,25 126,25 126,25 126,25 126,25 126,25 126,25 126,25 126,25 126,25 127,25 127,25 127,25 127,25 127,25 127,25 127,25 127,25 127,25 127,25 127,25 127,25 127,25 127,25 128,25 128,25 128,25 128,25 128,25 128,25 128,25 128,25 128,25 128,25 128,25 128,25 128,25 128,25 128,25 128,25 128,25 128,25 128,25 128,25 128,25 128,25 129,25 129,25 129,25 129,25 129,25 129,25 129,25 129,25 129,24 129,24 129,24 129,24 130,24 130,24 130,24 130,24 130,24 130,24 130,25 130,25 130,25 130,25 130,25 130,25 130,25 130,25 130,25 130,24 130,24 131,25 131,25 131,25 131,25 131,25 131,25 131,25 131,25 131,25 131,25 131,25 131,25 131,25 131,25 131,25 131,25 131,25 131,25 131,25 131,25 131,25 131,25 131,25 131,25 131,25 131,25 131,25 131,26 131,26 131,26 131,26 131,26 131,26 131,26 131,26 131,26 131,26 131,26 131,26 131,26 131,26 131,26 131,26 131,26 131,26 132,26 132,26 132,26 132,26 132,26 132,26 132,26 132,26 132,26 132,26 132,26 132,26 132,26 132,26 132,26 132,27 132,27 132,27 132,27 132,27 132,27 132,27 132,27 132,27 133,27 133,27 133,27 133,27 133,27 133,27 133,27 133,27 133,27 133,27 133,27 133,27 133,27 133,27 133,27 133,27 133,27 133,27 133,27 133,27 134,27 134,27 134,27 134,27 134,27 134,27 134,27 134,27 134,27 134,27 134,27 134,27 134,27 134,27 134,27 134,27 134,27 134,27 134,27 134,27 134,27 134,27 134,27 134,27 135,27 135,27 135,27 135,27 135,27 135,28 135,28 135,28 135,28 135,28 135,28 135,28 136,28 136,28 136,28 136,28 136,28 136,28 137,28 137,28 137,28 137,28 137,28 137,28 137,28 137,28 138,28 138,28 138,28 138,28 138,28 138,28 138,28 140,27 141,27 142,27 143,27 143,27 143,27 143,27 144,27 145,27 146,26 147,26 148,26 148,26 149,25 150,23 149,21 149,22 148,21 148,20 151,19 154,19 156,18 156,17 158,17 159,17 160,17 161,17 162,17 164,15 166,15 168,15 170,16 171,16 172,16 172,15 173,15 174,15 176,14 177,15 177,16 177,16 178,16 179,16 181,16 182,16 183,16 184,16 185,17 186,17 186,19 188,19 190,18 190,18 191,18 192,18 194,18 194,18 194,17 195,17 196,17 197,17 198,17 198,18 198,18 198,19 199,19 199,20 201,19 202,19 203,18 204,18 206,18 207,18 208,17 209,17 210,17 211,18 211,17 212,17 212,17 212,18 213,18 213,19 213,19 214,19 215,20 215,20 216,20 217,21 218,21 219,21 221,21 223,21 224,21 224,21 225,20 227,20 228,20 229,21 230,21 230,21 230,22 231,22 231,22 232,22 234,22 235,23 235,23 235,23 236,23 237,22 238,23 238,23 238,25 237,25 236,26 235,27 234,28 234,28 235,29 236,29 238,30 238,31 239,31 240,31 241,32 241,32 243,32 243,33 244,33 245,34 245,34 246,35 247,35 247,35 248,35 250,36 252,36 252,37 253,37 253,38 255,38 255,39 255,40 255,40 257,41 257,43 258,44 259,44 261,44 261,44 262,45 264,45 265,44 265,44 265,44 266,44 266,44 266,44 267,44 267,43 268,43 268,43 269,43 270,43 270,43 270,43 272,43 272,43 273,43 274,43 275,43 275,43 277,42 278,42 278,42 280,43 280,43 281,43 281,44 282,44 282,44 283,44 283,45 283,45 284,46 284,46 283,47 284,47 285,47 286,48 287,48 288,48 288,48 289,49 289,49 291,50 293,49 295,49 297,49 298,48 298,48 298,47 297,47 297,46 298,45 299,44 301,45 302,45 302,45 304,46 306,45 306,44 307,44 308,43 308,43 309,43 309,42 311,43 311,42 312,42 313,42 314,41 315,41 316,40 319,39 319,38 321,37 323,36 324,36 325,35 326,35 327,34 328,34 328,34 328,35 328,35 329,35 329,36 329,36 330,36 330,37 331,37 331,38 331,38 332,38 332,38 334,39 335,39 336,39 337,39 338,39 340,38 341,38 342,38 342,37 343,36 344,35 344,35 344,35 344,35 345,35 344,35 344,34 344,34 345,34 345,34 345,34 345,34 345,35 346,35 346,35 346,35 346,36 346,36 346,37 346,37 346,37 346,37 346,38 346,38 346,38 346,39 345,39 345,39 345,40 345,40 345,41 344,42 345,42 344,43 342,44 342,44 342,44 342,44 343,43 341,43 340,44 340,44 339,45 339,45 339,45 339,45 338,44 336,46 336,47 336,47 336,47 335,47 335,47 335,47 334,47 333,48 333,48 333,48 332,48 333,48 333,49 332,49 332,50 332,50 332,51 332,51 332,51 331,52 331,52 331,52 330,53 330,54 329,56 329,56 329,56 331,58 332,58 333,59 336,60 338,61 341,62 342,62 342,62 342,62 344,64 345,65 346,65 347,65 349,65 350,65 351,65 353,66 353,66 352,68 352,69 351,70 351,70 349,71 348,71 346,71 345,72 344,72 342,73 341,73 340,74 340,75 339,75 339,76 339,76 338,76 337,77 336,77 336,77 333,78 333,78 332,79 331,79 331,79 331,80 330,80 329,81 328,81 328,82 328,83 327,83 327,84 327,84 326,85 326,85 326,85 326,85 325,86 324,86 324,87 325,87 324,88 324,88 324,89 323,90 322,90" id="2920" class="canton" fill="steelblue" stroke-width="1" stroke="white" geotype="canton" geoname="Plouigneau" code_insee="2920" code_departement="29" nom_departement="Finistère" code_region="53" nom_region="Bretagne"/><polygon points="0,70 0,70 1,70 2,70 2,70 2,71 2,71 2,71 1,71 0,70" id="2920" class="canton" fill="steelblue" stroke-width="1" stroke="white" geotype="canton" geoname="Plouigneau" code_insee="2920" code_departement="29" nom_departement="Finistère" code_region="53" nom_region="Bretagne"/></svg>