<?xml version="1.0" encoding="utf-8"?>
<svg version="1.1" id="svgmap" xmlns="http://www.w3.org/2000/svg" xmlns:xlink="http://www.w3.org/1999/xlink" x="0px" y="0px" width="100%" height="100%" viewBox="0 0 500 231">
<polygon points="63,222 63,222 63,222 63,222 64,224 64,224 71,226 73,226 73,226 73,226 73,226 73,226 73,226 71,226 64,224 63,222" id="2922" class="canton" fill="steelblue" stroke-width="1" stroke="white" geotype="canton" geoname="Pont-l'Abbé" code_insee="2922" code_departement="29" nom_departement="Finistère" code_region="53" nom_region="Bretagne"/><polygon points="419,67 419,66 419,66 419,66 419,66 419,65 419,65 420,65 420,65 420,65 420,66 420,66 421,66 422,66 423,65 423,65 424,64 425,64 426,63 427,63 428,63 428,63 429,63 429,63 429,62 429,62 429,61 429,61 430,61 431,61 431,61 431,62 431,62 430,63 430,63 431,63 432,64 432,64 433,63 433,63 434,64 434,64 435,63 435,63 435,63 435,62 435,61 435,61 435,61 436,60 437,60 438,60 439,61 440,60 441,60 442,60 443,60 443,60 444,60 444,60 444,60 444,60 444,61 444,61 444,62 445,63 445,64 445,64 444,65 444,66 444,66 444,67 443,67 442,68 442,69 443,69 443,70 444,71 445,72 446,73 447,74 447,74 448,75 448,75 448,76 447,78 447,78 447,79 447,80 447,81 448,81 448,81 449,81 450,81 450,81 450,81 451,81 452,81 452,82 452,82 452,83 453,83 453,84 453,85 453,86 453,87 454,87 455,88 455,88 456,88 456,88 456,88 456,89 456,89 456,89 455,90 455,91 455,91 455,92 455,93 456,94 456,94 456,95 454,95 454,95 453,96 453,96 453,97 452,97 452,97 451,97 450,96 450,96 450,95 448,94 448,93 448,93 447,92 447,92 446,91 445,91 445,91 445,90 445,89 444,89 443,89 442,88 440,88 440,87 439,87 439,86 439,85 439,85 440,84 440,84 440,84 439,84 438,84 437,84 437,84 437,84 436,84 435,83 434,82 432,81 431,81 431,81 431,80 430,80 430,79 430,79 430,78 429,77 428,77 428,77 428,77 428,77 428,76 428,76 428,76 429,76 429,75 428,75 428,75 428,75 428,74 427,74 427,74 427,74 427,74 426,74 426,74 426,74 425,73 424,73 424,73 423,72 423,72 423,72 423,71 423,71 423,71 424,71 423,70 423,70 423,70 423,69 422,69 421,69 421,69 420,68 419,68 419,67 419,67" id="2922" class="canton" fill="steelblue" stroke-width="1" stroke="white" geotype="canton" geoname="Pont-l'Abbé" code_insee="2922" code_departement="29" nom_departement="Finistère" code_region="53" nom_region="Bretagne"/><polygon points="433,97 433,97 433,97 434,97 434,97 435,97 435,97 436,97 436,97 436,97 437,97 437,97 438,97 438,97 438,97 439,97 439,97 440,97 440,97 440,97 440,98 440,99 440,99 440,100 440,100 440,100 440,100 440,101 440,101 440,101 439,101 439,101 439,101 438,101 438,101 438,101 437,101 437,101 437,101 436,101 436,101 435,100 434,99 434,99 434,99 433,98 433,98 433,97" id="2922" class="canton" fill="steelblue" stroke-width="1" stroke="white" geotype="canton" geoname="Pont-l'Abbé" code_insee="2922" code_departement="29" nom_departement="Finistère" code_region="53" nom_region="Bretagne"/><polygon points="438,110 438,109 439,108 439,108 439,107 439,107 438,107 438,107 438,107 438,107 439,106 440,106 440,105 441,105 441,105 441,104 442,104 442,104 444,104 445,104 445,105 445,105 446,105 445,106 446,107 446,107 446,108 447,108 448,109 448,109 449,110 449,110 450,110 451,110 452,110 453,111 454,111 454,112 455,112 455,112 456,113 455,113 455,114 454,114 454,115 454,115 455,116 456,117 456,118 456,118 455,118 456,119 456,119 455,119 455,119 454,120 454,119 454,119 453,119 453,119 452,119 452,119 451,118 451,118 450,118 450,118 447,115 445,113 442,112 439,111 439,110 439,110 438,110 438,110 438,110" id="2922" class="canton" fill="steelblue" stroke-width="1" stroke="white" geotype="canton" geoname="Pont-l'Abbé" code_insee="2922" code_departement="29" nom_departement="Finistère" code_region="53" nom_region="Bretagne"/><polygon points="385,216 387,214 389,215 389,215 389,216 389,217 386,217 386,217 385,216" id="2922" class="canton" fill="steelblue" stroke-width="1" stroke="white" geotype="canton" geoname="Pont-l'Abbé" code_insee="2922" code_departement="29" nom_departement="Finistère" code_region="53" nom_region="Bretagne"/><polygon points="437,93 437,93 437,93 438,92 438,92 438,92 438,92 439,92 439,93 439,93 440,93 440,93 440,93 439,93 439,94 439,94 439,94 438,94 438,94 438,94 438,93 437,93 437,93 437,93" id="2922" class="canton" fill="steelblue" stroke-width="1" stroke="white" geotype="canton" geoname="Pont-l'Abbé" code_insee="2922" code_departement="29" nom_departement="Finistère" code_region="53" nom_region="Bretagne"/><polygon points="75,142 78,143 78,143 79,143 82,144 84,145 84,145 85,145 86,146 86,146 87,146 88,146 89,147 90,147 91,147 92,147 93,148 94,148 96,149 97,149 99,150 99,150 104,151 104,152 104,152 106,152 106,152 106,152 106,152 106,152 107,152 108,152 108,152 109,152 110,152 111,152 111,152 111,153 111,153 111,153 111,153 111,153 112,153 112,153 113,153 113,153 113,153 113,153 113,154 113,154 114,154 114,154 114,154 114,153 115,153 115,153 115,153 115,153 116,153 116,153 116,153 117,153 117,153 118,153 118,153 118,153 118,154 118,154 118,154 118,154 119,154 119,154 119,154 119,154 119,153 119,153 119,153 119,153 120,153 120,153 120,152 120,152 121,152 121,152 121,152 122,152 122,152 122,151 122,151 122,151 123,151 123,151 123,151 123,150 123,150 124,150 124,150 124,149 125,149 125,149 125,149 126,148 126,148 127,148 128,148 129,148 129,148 130,148 130,148 130,148 130,148 131,148 131,149 132,149 132,149 132,149 132,148 133,148 134,148 134,148 135,148 136,148 138,147 138,147 139,147 140,147 141,146 141,146 141,146 142,146 142,146 142,146 142,147 142,147 142,148 142,149 142,149 142,149 141,149 140,150 139,150 139,150 139,150 139,151 139,151 139,152 139,152 139,152 140,152 140,153 141,153 141,153 141,153 142,154 142,154 142,154 142,155 143,155 143,155 143,155 144,156 144,157 144,157 144,158 144,158 144,158 145,158 145,158 145,158 146,157 146,157 146,157 146,157 146,157 146,157 147,157 148,156 148,156 149,156 150,156 152,156 152,156 152,156 152,156 152,156 152,156 153,156 152,158 151,160 151,160 151,160 151,160 152,160 153,161 153,161 153,161 152,161 152,161 151,161 151,161 151,161 150,162 149,162 150,162 150,162 150,162 149,162 148,162 148,163 148,163 148,163 148,163 148,163 148,163 147,163 147,163 147,163 147,163 146,163 145,163 145,163 145,164 145,164 145,164 145,164 146,164 146,164 147,164 147,164 148,166 148,166 148,166 148,165 149,165 149,165 150,165 150,165 151,164 151,164 151,164 151,164 150,164 150,164 150,163 151,163 152,163 152,163 152,163 153,163 155,163 155,163 156,163 157,163 158,163 158,163 158,163 158,163 159,163 159,163 160,163 161,164 162,164 164,165 164,165 165,165 167,165 168,165 168,166 168,166 169,166 170,166 172,165 172,165 172,166 172,166 172,166 173,166 173,167 174,168 172,168 172,169 172,169 172,169 172,169 173,170 173,171 173,171 173,171 173,172 174,172 174,172 173,173 174,173 174,173 173,173 173,174 173,174 172,175 172,175 172,175 172,175 172,175 172,176 172,176 172,176 172,177 172,177 171,179 172,179 172,179 173,180 174,181 174,181 175,182 175,182 176,183 177,184 177,184 178,184 178,184 178,185 177,187 177,187 177,187 177,188 176,188 176,189 175,189 175,189 175,189 176,189 177,190 177,190 179,191 179,191 179,192 179,192 180,192 180,192 181,191 181,191 181,191 182,192 183,193 183,193 185,194 185,195 186,195 186,195 187,194 187,194 187,194 188,194 189,194 189,194 189,195 190,195 190,195 190,195 190,195 190,195 191,196 191,196 191,196 191,196 192,195 193,195 193,195 193,195 194,195 195,195 195,195 195,195 195,195 195,195 196,195 196,194 196,194 196,194 197,194 197,194 197,194 197,194 197,194 198,193 199,193 199,193 199,194 200,194 200,194 200,194 200,194 201,194 201,194 201,194 201,194 201,193 201,193 202,193 202,193 202,193 203,193 203,193 203,194 203,194 204,194 204,195 205,195 206,196 206,197 208,197 210,196 210,197 211,197 211,197 212,196 214,196 215,196 215,196 216,195 216,195 217,195 218,195 218,195 219,194 220,195 221,195 222,194 222,194 223,194 226,194 228,193 228,193 229,193 230,193 231,193 232,193 232,193 232,193 233,193 234,194 237,193 239,192 238,192 238,192 238,192 238,192 238,191 238,191 237,191 237,191 237,191 236,191 236,191 236,191 236,190 235,190 235,190 235,190 235,189 235,189 235,189 235,188 235,187 235,187 235,187 235,187 235,187 235,186 234,186 234,186 234,185 233,185 233,185 233,185 232,184 232,184 231,184 231,184 231,183 230,182 230,182 229,181 229,181 228,180 228,179 227,179 227,179 227,178 227,178 226,177 226,177 225,176 225,176 225,176 225,176 224,176 224,176 222,176 221,175 221,175 221,175 221,175 221,175 221,175 221,175 221,174 221,174 221,174 221,174 220,174 220,174 220,174 220,173 220,173 220,173 219,173 218,172 217,172 217,172 217,171 217,171 217,170 217,169 217,169 217,169 217,169 217,169 217,169 217,169 217,169 217,168 217,168 217,167 217,167 219,167 219,167 219,167 219,167 220,167 220,167 220,167 220,166 220,166 220,166 220,166 220,166 220,166 220,165 221,165 221,165 221,165 221,165 221,165 221,165 221,164 221,164 222,164 222,163 222,163 222,163 222,163 223,162 223,162 224,163 224,163 225,163 225,163 226,164 227,164 229,162 229,162 229,162 231,162 234,160 234,160 235,160 235,160 235,160 235,160 238,159 238,159 239,159 240,159 244,159 245,159 245,159 246,159 247,159 247,159 248,158 248,158 249,158 249,158 249,158 249,158 249,158 249,158 251,158 252,158 252,158 252,158 253,158 255,158 256,158 256,158 257,158 259,158 260,158 260,158 261,158 262,158 263,159 263,159 263,159 264,159 265,159 266,159 266,159 267,160 267,160 267,159 268,159 269,160 269,160 269,160 270,160 270,160 271,160 271,160 272,160 272,159 272,159 273,159 274,159 274,159 275,159 275,159 276,159 276,159 277,159 278,159 278,159 281,159 281,159 282,159 283,159 284,159 284,159 284,159 284,159 285,159 285,159 285,159 285,158 284,157 283,156 283,156 283,156 284,155 284,155 284,155 284,154 283,154 283,154 283,154 282,154 282,154 282,154 282,153 282,152 282,152 283,152 284,152 284,152 284,152 284,153 284,153 284,153 284,153 285,153 286,153 286,153 287,153 287,153 287,153 287,152 287,152 288,151 288,151 288,150 288,150 288,148 288,148 288,148 288,148 287,147 287,146 287,146 287,146 287,146 286,146 286,146 286,145 286,145 286,145 286,144 286,144 287,144 287,144 288,143 289,143 289,142 290,142 290,142 289,141 288,140 287,140 287,140 286,140 286,140 286,139 286,139 282,140 282,140 282,140 282,140 281,140 279,140 279,140 279,139 279,138 279,138 279,137 279,137 279,136 279,136 279,135 279,134 279,134 279,134 279,134 279,134 279,133 279,133 279,133 279,132 279,132 279,131 279,130 279,130 279,130 279,129 279,129 280,128 280,128 280,128 281,127 281,127 282,126 282,126 283,125 283,125 284,124 284,124 285,123 285,123 286,122 286,122 287,121 288,121 288,120 289,120 290,119 290,119 291,119 291,118 291,118 291,118 291,117 291,117 291,117 292,116 292,116 292,116 293,116 294,116 294,116 294,116 294,115 294,115 294,114 294,114 294,114 294,113 294,113 294,112 294,112 294,112 294,111 294,111 294,110 294,110 295,110 298,110 299,110 300,109 301,109 302,109 302,109 302,109 302,108 302,108 302,108 301,107 301,107 301,106 301,105 301,105 301,105 301,104 301,104 301,103 301,102 301,102 301,102 301,100 301,100 300,99 300,99 300,98 300,98 299,97 300,97 300,97 299,97 299,96 299,96 298,96 298,96 298,95 298,95 298,95 298,95 297,95 297,96 295,96 294,97 293,97 292,98 292,98 292,97 291,96 291,96 290,95 290,95 290,95 290,95 289,95 289,95 289,95 288,94 288,93 288,93 287,93 286,93 285,93 285,93 284,92 284,92 284,91 284,91 284,90 284,90 283,90 283,90 282,89 282,88 282,87 281,85 281,85 281,85 282,85 282,85 282,85 284,85 285,85 286,85 287,85 288,86 288,86 289,86 290,86 290,86 290,86 291,86 291,86 291,86 292,85 293,85 293,85 294,85 294,85 295,84 295,84 295,84 295,83 296,83 296,83 296,83 295,83 295,83 295,83 295,82 294,81 294,81 294,81 294,81 295,80 295,79 294,79 293,79 292,79 290,79 290,79 290,79 290,79 289,80 289,79 289,79 289,79 289,77 289,76 289,75 289,75 288,74 288,72 288,72 288,72 288,72 288,71 288,71 289,71 290,71 290,71 290,70 290,70 289,69 289,69 289,69 289,68 290,68 290,67 290,67 289,67 289,67 288,67 288,67 286,68 286,68 285,68 284,68 283,69 283,68 283,68 283,68 283,67 282,67 282,67 282,66 281,66 281,65 281,65 280,65 280,65 279,65 278,65 278,65 278,65 278,64 278,64 277,64 276,64 276,64 275,64 275,64 275,64 275,64 275,64 276,63 277,64 277,64 278,64 278,64 278,63 278,60 277,60 277,59 277,57 277,57 277,56 277,56 276,55 276,55 276,55 276,54 277,54 277,53 278,53 278,53 279,52 280,52 280,52 281,52 282,52 283,52 284,52 286,53 286,53 286,53 286,53 287,53 287,53 287,53 288,54 288,54 288,54 289,54 289,54 290,54 290,54 290,54 291,54 291,54 292,55 292,55 292,55 294,56 294,56 295,56 296,57 296,57 297,57 298,57 298,57 299,57 299,57 300,57 301,57 301,58 301,58 303,58 303,58 305,58 305,58 306,59 307,59 308,59 308,60 309,60 309,60 310,60 311,60 311,60 311,60 312,60 313,60 313,60 313,60 314,60 314,60 315,60 315,60 315,60 317,60 319,60 320,60 320,60 321,60 321,60 321,60 321,60 322,60 322,60 323,60 323,60 324,60 325,60 325,60 325,60 325,60 326,60 326,60 326,60 326,60 326,59 326,59 327,59 327,59 327,59 328,59 329,58 329,58 329,58 330,59 331,59 331,59 332,59 332,59 332,59 332,59 333,59 333,59 334,60 334,60 334,60 334,60 335,60 335,60 335,60 335,60 335,60 335,60 335,60 335,60 336,60 336,61 336,61 336,61 336,61 337,61 338,61 339,61 339,61 339,61 339,61 340,61 340,61 340,61 340,61 340,61 340,61 341,60 341,60 341,60 341,60 341,60 342,60 344,59 345,58 346,57 346,57 346,57 346,57 346,57 346,56 346,56 346,56 346,56 346,56 346,56 346,55 346,54 346,54 346,54 346,54 346,54 346,53 346,53 346,53 346,53 346,53 346,53 346,53 346,53 346,52 346,52 346,52 346,52 346,51 346,51 346,51 346,51 346,50 346,50 346,50 346,49 346,49 347,48 347,48 347,48 348,48 348,47 348,47 348,47 348,47 348,47 348,47 348,47 348,47 348,47 349,47 349,47 349,47 349,47 350,47 350,47 350,47 351,46 351,45 352,45 352,44 352,44 352,44 352,43 352,43 351,42 351,42 350,42 350,42 350,42 349,42 349,43 349,43 348,43 348,43 348,43 347,43 347,43 347,42 346,42 346,41 346,41 344,41 344,41 344,41 344,41 344,40 343,40 343,40 344,40 344,40 344,40 344,39 344,39 344,39 344,39 343,39 343,39 343,38 343,38 343,38 342,38 342,38 342,37 342,37 344,37 344,37 343,36 343,36 342,36 342,35 341,35 340,35 340,35 340,34 340,34 340,34 340,34 341,34 341,33 341,33 341,33 341,33 341,33 341,33 341,33 342,32 342,31 342,31 343,31 343,30 344,30 344,30 344,29 345,29 345,29 345,29 345,29 345,29 345,29 345,28 346,28 346,28 346,28 347,27 347,27 347,26 348,26 348,25 349,24 349,24 350,24 350,23 351,23 352,23 353,22 353,22 354,22 354,21 354,21 354,21 355,20 355,20 355,20 355,19 355,19 355,19 355,18 355,18 355,18 354,18 354,17 354,17 354,17 354,17 353,17 353,15 354,15 355,15 355,15 356,14 356,14 356,14 357,14 357,14 358,14 358,14 358,14 359,14 360,14 360,14 361,13 361,13 362,13 362,13 363,13 363,11 364,11 365,10 365,10 365,10 365,10 365,9 365,9 365,9 365,9 367,9 367,9 368,9 369,9 371,9 371,9 372,9 373,9 373,9 372,8 372,8 372,7 372,7 371,7 372,7 372,7 372,7 371,6 371,5 370,4 370,4 370,4 371,3 371,3 372,3 374,1 375,1 375,1 375,1 375,1 375,1 375,1 376,0 377,0 377,0 377,0 378,1 378,1 378,1 378,2 379,2 379,2 379,2 379,2 380,3 380,3 380,3 380,3 380,3 379,4 378,4 378,4 379,5 379,5 378,5 378,6 378,7 378,7 378,7 379,7 379,7 380,7 380,7 380,6 380,6 380,5 380,5 380,5 380,5 380,5 381,5 381,4 382,4 382,4 382,4 383,4 383,4 383,4 383,4 383,4 383,4 385,4 385,4 385,4 386,3 387,3 387,3 388,4 389,4 391,5 392,5 392,5 392,5 393,6 393,6 393,6 394,6 394,6 394,7 394,7 395,8 395,8 396,8 396,8 397,8 397,8 397,8 397,8 398,9 398,9 398,9 398,9 398,9 397,9 397,10 397,10 398,10 398,10 398,10 398,10 397,10 397,11 397,11 398,12 398,12 398,12 398,12 398,13 398,13 399,13 399,13 400,13 400,13 400,13 400,13 400,13 400,13 401,13 401,13 401,13 401,13 401,13 402,13 402,13 402,13 402,13 403,13 403,13 403,13 403,13 404,13 404,13 404,13 404,13 404,13 404,13 404,13 404,13 404,13 405,13 405,13 405,13 405,13 405,13 405,13 405,13 405,13 405,13 405,13 406,13 406,13 406,13 407,13 407,13 407,13 407,14 407,14 407,14 407,14 407,14 407,14 408,14 408,14 408,14 408,14 409,14 409,14 409,14 409,15 409,15 409,15 409,15 410,14 410,14 410,15 411,15 411,15 411,15 412,15 412,15 412,15 412,15 412,16 412,16 413,16 413,16 413,16 413,17 414,17 414,17 414,17 414,17 414,17 414,17 414,17 415,18 415,18 415,18 415,18 416,18 416,19 416,19 416,19 416,19 416,19 416,19 417,19 417,19 418,19 418,19 418,19 418,19 418,18 418,18 418,18 419,19 420,19 421,19 421,19 422,20 422,20 422,21 423,21 423,22 423,22 424,23 425,23 425,23 426,23 426,24 428,24 428,24 429,24 429,24 429,23 430,23 431,23 431,23 432,22 432,22 433,22 433,22 433,23 434,23 434,23 434,23 434,23 434,24 435,24 435,24 435,24 436,24 437,25 439,26 439,26 439,26 439,26 439,26 439,26 439,27 438,27 438,27 438,27 438,27 438,28 438,29 438,29 438,29 438,30 438,30 438,30 437,30 437,30 437,31 437,31 437,31 438,32 439,33 439,33 440,34 440,35 442,36 441,37 441,38 440,39 440,39 441,40 441,41 441,42 440,42 440,43 439,43 438,43 437,44 436,44 435,43 435,43 434,43 434,43 434,43 433,43 433,43 433,43 432,43 430,43 429,43 428,42 428,42 426,42 424,41 423,41 423,41 423,41 422,41 421,41 419,42 419,43 419,43 419,43 418,43 418,43 417,43 416,42 416,42 415,41 415,41 414,42 414,42 414,43 415,43 416,44 416,44 416,44 415,45 415,45 415,46 415,47 416,46 416,46 417,46 417,46 417,46 417,47 418,48 419,48 419,48 421,49 421,49 421,50 421,50 421,51 421,52 421,52 421,53 421,53 420,54 418,54 419,55 421,56 423,56 422,57 423,57 423,57 423,58 422,58 422,59 422,60 422,60 422,61 422,61 422,61 421,61 421,62 420,62 420,63 418,63 420,64 420,65 418,65 417,66 415,66 415,65 412,65 414,65 415,66 415,67 416,67 416,67 416,68 416,70 415,71 413,71 413,73 413,75 413,76 414,78 414,79 414,80 414,82 412,83 413,84 414,85 415,86 415,88 416,89 418,89 419,91 419,91 419,91 420,91 421,91 422,92 423,93 424,94 424,95 423,95 423,96 424,96 426,96 429,95 429,97 431,99 432,99 432,101 433,102 431,102 428,102 427,102 427,103 427,103 428,105 428,105 427,105 425,106 425,106 427,107 427,108 426,109 427,109 428,110 430,110 432,110 433,110 434,110 436,112 437,114 437,114 438,114 441,115 441,116 444,116 445,116 445,117 446,118 447,118 448,121 449,121 450,122 450,124 449,124 448,125 444,125 443,124 439,124 438,123 436,123 436,123 437,124 438,124 439,125 443,125 443,126 443,129 443,130 444,131 445,132 446,132 447,131 447,131 446,130 447,130 448,129 449,130 450,130 450,130 450,130 451,130 452,130 452,130 452,131 452,132 453,134 453,135 452,135 452,136 454,136 455,134 456,136 457,135 458,135 458,136 459,136 459,136 459,135 459,135 460,134 465,134 467,134 469,134 469,133 470,132 467,132 467,131 466,131 465,130 466,130 476,130 478,129 478,130 479,131 482,131 484,132 489,132 490,134 492,134 493,135 493,137 492,137 494,137 494,138 495,138 496,139 497,139 498,139 499,140 499,141 500,142 500,142 499,142 499,142 498,142 498,143 498,144 495,144 493,144 493,144 493,146 491,146 491,149 489,149 490,150 490,152 491,153 494,153 494,155 492,154 492,155 492,156 492,156 492,159 491,161 490,161 489,164 490,164 491,164 494,164 494,165 494,165 493,166 491,166 491,165 490,165 488,164 485,164 485,165 483,165 483,167 482,168 482,172 481,173 481,173 482,174 483,174 485,174 485,176 485,178 486,181 487,181 488,182 488,184 490,184 490,185 492,185 492,187 493,187 495,187 495,188 494,189 492,189 491,188 491,187 491,187 491,186 491,186 490,185 488,185 488,184 486,184 485,182 485,182 484,181 483,181 482,181 482,180 479,180 476,181 474,181 473,181 473,182 472,182 471,183 467,184 467,184 466,184 466,182 465,182 465,186 464,189 463,189 462,191 462,192 463,192 464,192 465,193 465,194 464,195 463,196 460,196 460,197 459,197 457,198 456,199 449,201 447,203 446,205 448,206 448,206 448,206 448,206 446,205 445,207 442,209 440,210 435,210 432,211 427,212 426,212 425,213 424,213 423,214 423,218 422,220 420,219 414,219 411,219 411,219 410,217 409,217 409,216 410,216 410,216 410,215 407,213 404,212 403,212 400,211 397,211 394,210 393,210 390,211 389,211 388,211 386,211 386,211 387,212 387,213 387,213 383,211 380,211 379,211 378,210 377,208 375,207 373,208 373,209 376,209 376,210 379,211 379,212 381,213 381,214 382,216 382,217 382,219 380,219 379,219 378,219 377,217 377,217 376,216 375,215 372,215 372,216 375,218 375,219 375,219 373,220 373,220 377,220 376,222 375,223 374,223 373,223 370,223 370,224 370,224 369,224 368,224 368,225 367,226 366,226 365,225 365,226 365,227 360,227 360,227 360,226 358,226 357,226 355,226 354,227 353,228 353,228 352,228 351,227 350,226 347,226 347,224 346,225 345,225 344,224 343,224 341,225 340,225 339,224 337,224 334,224 329,225 330,227 326,227 325,227 324,226 321,226 314,226 312,227 308,227 306,227 304,228 302,228 301,228 298,229 292,229 288,229 284,228 274,228 268,229 267,229 264,230 261,231 259,231 255,231 253,231 252,230 248,229 246,228 244,227 242,227 239,227 238,227 237,227 237,227 237,228 237,228 237,228 237,228 235,228 233,229 232,228 232,228 233,228 233,227 232,227 231,227 230,226 230,225 229,225 228,225 228,225 227,226 226,226 225,227 224,227 222,228 223,228 223,227 224,226 224,226 224,226 224,226 226,225 225,224 226,224 226,224 225,224 225,224 227,223 228,222 229,221 229,221 229,222 229,222 229,222 229,222 230,222 230,222 230,222 230,222 231,222 231,222 232,222 232,221 232,221 232,221 234,220 234,220 234,220 235,220 235,220 236,219 236,219 236,219 237,219 240,218 241,218 241,218 242,217 242,217 241,217 241,216 240,216 240,216 239,216 238,215 235,217 235,217 234,217 234,218 230,219 227,220 222,224 219,225 216,225 217,226 218,227 218,227 217,226 217,227 217,227 216,227 216,225 215,224 214,224 213,224 210,224 209,224 205,225 204,227 206,228 207,228 207,230 204,230 204,229 201,229 200,229 199,228 199,227 197,227 195,227 193,223 193,222 194,222 195,221 197,222 198,217 198,216 197,215 196,214 195,213 194,212 192,212 191,211 190,210 188,210 187,209 185,209 183,208 181,208 179,208 177,208 174,208 171,208 163,208 160,208 156,208 154,209 150,210 145,211 142,212 140,213 138,214 136,215 128,215 121,214 119,214 117,213 115,213 109,212 106,212 103,211 98,211 97,211 95,211 95,211 94,210 92,210 91,210 87,210 84,210 82,211 81,211 78,212 76,213 75,213 74,213 74,213 74,214 75,215 76,217 76,218 76,218 76,218 76,218 76,219 75,221 75,221 75,221 75,222 74,222 75,221 75,221 75,221 75,221 76,219 76,219 73,213 73,213 73,213 73,213 73,213 73,213 73,213 73,213 72,213 69,214 67,214 66,215 65,215 65,215 63,215 65,218 65,218 65,218 65,218 65,218 65,218 65,218 65,218 65,218 65,218 65,218 65,218 65,218 63,215 63,215 59,216 52,216 50,215 48,216 48,217 48,217 47,218 45,218 43,217 41,217 37,219 36,219 35,218 33,217 31,217 31,216 27,216 26,217 25,215 20,216 19,217 16,217 16,214 18,213 19,212 19,211 19,209 19,208 19,206 19,206 19,204 18,202 19,200 21,198 23,197 23,197 23,196 23,195 23,195 24,195 24,194 25,193 26,192 26,191 26,189 26,187 26,186 25,185 24,183 18,179 16,179 17,178 17,177 18,177 19,177 19,176 16,175 14,175 13,175 12,175 11,175 10,174 10,173 13,172 15,171 13,170 12,171 12,171 11,171 9,172 5,174 6,176 5,176 5,177 5,177 4,177 4,177 3,177 3,177 2,177 1,179 1,180 4,181 3,181 0,180 0,179 2,177 3,176 2,176 2,175 1,172 2,171 3,171 4,171 5,170 6,170 5,167 4,166 6,166 5,164 5,164 7,164 7,162 9,162 9,161 10,160 11,160 12,160 13,161 13,161 13,159 13,158 14,157 15,157 16,156 16,155 18,155 21,155 21,154 22,154 23,154 24,154 25,153 26,152 27,152 28,152 30,152 31,153 31,153 33,153 35,153 35,153 35,152 36,150 36,149 35,148 37,148 36,146 37,146 38,146 39,146 40,145 40,147 42,146 44,146 45,146 45,146 45,144 48,145 49,145 49,146 48,147 47,147 46,147 46,148 45,149 46,150 49,152 49,152 52,151 55,151 57,151 59,151 62,150 65,149 67,148 69,146 71,145 72,144 73,143 75,142 75,142" id="2922" class="canton" fill="steelblue" stroke-width="1" stroke="white" geotype="canton" geoname="Pont-l'Abbé" code_insee="2922" code_departement="29" nom_departement="Finistère" code_region="53" nom_region="Bretagne"/></svg>