<?xml version="1.0" encoding="utf-8"?>
<svg version="1.1" id="svgmap" xmlns="http://www.w3.org/2000/svg" xmlns:xlink="http://www.w3.org/1999/xlink" x="0px" y="0px" width="100%" height="100%" viewBox="0 0 471 500">
<polygon points="459,322 459,321 461,321 461,321 460,321 460,322 459,322" id="02A06" class="canton" fill="steelblue" stroke-width="1" stroke="white" geotype="canton" geoname="Bavella" code_insee="02A06" code_departement="2A" nom_departement="Corse-du-Sud" code_region="94" nom_region="Corse"/><polygon points="378,418 379,417 379,417 379,417 379,417 379,417 379,417 379,417 379,417 379,417 379,417 379,417 380,417 380,417 380,417 379,417 379,417 379,417 379,418 379,418 380,418 379,418 379,418 379,418 379,418 379,418 379,418 379,418 379,418 379,418 379,418 379,418 378,418" id="02A06" class="canton" fill="steelblue" stroke-width="1" stroke="white" geotype="canton" geoname="Bavella" code_insee="02A06" code_departement="2A" nom_departement="Corse-du-Sud" code_region="94" nom_region="Corse"/><polygon points="389,408 389,406 390,406 390,406 390,406 390,406 391,406 391,406 392,406 393,406 393,407 393,407 393,408 392,408 392,408 392,409 392,409 392,409 392,409 391,409 390,409 390,409 389,408 389,408" id="02A06" class="canton" fill="steelblue" stroke-width="1" stroke="white" geotype="canton" geoname="Bavella" code_insee="02A06" code_departement="2A" nom_departement="Corse-du-Sud" code_region="94" nom_region="Corse"/><polygon points="0,226 0,225 1,225 1,225 2,224 2,224 3,224 4,223 5,223 5,223 5,222 5,222 6,221 6,221 6,220 6,219 6,218 7,218 7,218 7,217 8,217 8,217 9,217 9,217 10,217 10,217 11,217 12,217 13,217 13,217 14,217 14,216 14,216 14,215 15,214 15,214 16,212 16,212 16,211 17,211 17,211 17,210 18,210 19,210 20,210 21,211 21,211 22,211 22,211 23,211 23,210 24,210 24,209 24,209 25,208 24,208 24,207 23,206 23,206 23,206 24,205 24,205 24,203 24,203 24,203 24,202 25,202 25,202 26,202 26,202 27,202 28,202 30,201 30,200 30,199 30,199 30,199 30,199 30,198 30,198 30,198 31,198 31,198 32,198 33,197 33,197 34,197 35,196 35,196 35,195 36,195 36,195 36,194 37,194 38,193 38,193 39,193 40,192 41,192 42,191 42,191 43,190 43,189 43,189 43,188 43,186 43,186 43,186 44,185 44,185 46,184 47,184 47,184 48,183 49,183 50,183 50,183 51,182 51,182 50,181 50,180 50,180 50,180 51,180 51,180 52,180 52,180 53,179 54,179 55,179 55,179 56,179 57,179 57,178 58,178 59,178 59,177 60,178 61,178 62,178 62,178 63,179 63,179 64,179 65,179 65,179 65,178 65,178 65,178 65,178 65,177 65,177 64,176 64,175 64,175 63,174 64,172 64,172 64,172 64,172 64,171 65,171 66,172 67,171 69,171 69,171 71,170 72,170 72,170 73,170 73,169 74,169 75,168 75,168 75,167 75,167 75,167 76,167 77,166 78,166 79,166 79,166 79,166 79,166 80,166 80,166 81,166 82,166 82,166 83,166 85,166 85,166 86,166 88,166 88,165 90,165 90,165 91,165 92,164 92,164 93,164 94,164 94,164 95,163 95,163 96,163 96,162 97,162 98,162 98,162 99,162 100,162 100,162 101,161 101,160 102,160 102,159 102,159 102,158 103,158 103,158 104,157 104,157 105,157 105,157 106,157 107,157 107,157 108,157 108,156 109,156 109,156 110,156 111,156 112,155 113,155 113,154 113,154 113,153 112,151 112,151 113,149 113,148 113,148 114,145 115,145 115,145 116,145 116,145 117,145 117,144 117,144 117,144 117,144 117,144 117,143 117,143 117,143 117,143 117,143 117,143 117,142 118,142 118,142 119,142 119,142 119,142 119,142 120,142 120,142 120,142 120,141 121,142 121,142 124,142 125,142 126,142 126,142 127,142 127,142 127,142 128,142 128,142 129,142 129,142 130,141 130,141 130,141 131,141 131,141 132,140 132,140 132,140 132,139 132,139 132,139 133,138 133,138 133,138 133,137 133,137 134,136 134,136 134,136 134,136 134,136 136,135 137,135 137,135 137,135 137,135 137,135 137,134 138,134 138,134 138,134 139,134 139,133 139,133 139,133 139,133 139,132 139,132 140,132 140,132 140,132 140,132 140,131 140,131 140,131 140,131 141,131 141,131 141,131 142,130 142,129 143,128 145,126 146,125 147,125 148,125 149,125 150,125 152,125 152,126 152,127 152,128 153,130 154,130 153,131 154,132 155,133 156,135 157,136 164,145 170,150 171,151 173,150 174,149 175,148 175,148 176,147 176,147 176,147 176,147 176,147 176,147 177,146 177,146 177,146 177,146 178,145 178,145 179,145 179,145 180,145 180,145 180,144 181,144 181,144 181,144 182,144 182,144 182,144 183,143 183,143 183,142 183,142 183,142 184,141 184,141 185,141 185,141 185,141 185,140 186,140 187,139 187,139 188,139 189,139 190,139 190,138 190,138 191,138 191,138 192,137 192,137 193,136 193,136 193,135 193,135 193,134 193,133 194,133 194,132 195,131 195,130 196,129 196,129 197,128 197,127 197,127 198,127 198,127 200,126 201,126 201,126 202,126 203,125 204,125 205,124 206,124 207,123 208,123 209,122 209,122 210,122 210,122 210,122 211,121 212,121 212,121 212,121 212,121 213,120 213,119 213,119 214,118 215,117 215,117 215,117 215,116 215,116 215,115 215,114 215,114 215,114 217,112 218,111 219,111 219,110 220,110 220,109 221,109 221,108 222,107 223,107 223,107 225,106 225,106 225,106 226,105 227,104 227,104 228,104 228,104 228,104 229,104 230,105 230,105 231,105 232,105 232,105 235,105 235,105 236,105 236,106 240,103 241,100 242,95 251,94 254,91 263,89 266,88 271,86 272,87 272,86 273,85 275,83 276,82 279,80 279,80 279,80 279,79 279,78 279,78 279,78 279,77 280,77 281,77 281,77 282,76 282,76 282,75 283,74 284,74 285,74 286,74 288,74 288,74 289,73 289,73 289,73 289,72 289,72 290,71 290,71 291,71 292,71 293,71 293,71 294,70 294,70 294,70 294,69 293,69 292,67 291,65 291,65 291,64 291,64 292,64 293,64 295,65 296,65 296,65 297,65 297,64 297,64 298,63 298,63 299,63 299,63 299,62 300,63 300,62 301,62 301,62 302,62 303,61 304,61 305,61 306,61 307,61 308,61 309,62 311,62 312,62 312,62 313,62 313,62 315,61 315,60 316,60 316,59 317,58 319,57 319,58 321,57 323,58 324,58 326,59 327,59 328,59 329,59 329,58 329,58 329,56 329,55 329,55 330,55 332,55 334,55 335,54 337,53 336,52 336,51 336,50 336,50 336,50 337,49 339,48 341,46 342,45 343,45 345,45 345,45 345,44 346,43 346,42 347,41 349,40 350,38 352,38 352,38 352,38 353,38 353,39 354,39 356,40 357,40 358,41 358,41 358,42 359,42 359,41 360,40 361,39 362,38 363,38 363,38 364,38 364,38 365,37 366,36 367,35 367,34 369,33 369,33 371,33 372,33 373,33 373,33 373,32 374,32 374,31 374,31 374,30 374,28 374,28 375,26 375,25 375,24 375,24 376,24 376,23 376,23 377,23 377,23 378,22 379,22 379,22 380,23 381,23 383,22 384,22 384,22 385,21 386,20 387,20 389,19 390,18 391,18 391,17 393,15 394,15 395,14 396,14 397,13 398,13 399,13 400,13 400,12 402,12 403,13 404,13 405,12 405,12 406,12 406,12 406,11 406,11 405,11 405,10 404,9 404,9 404,9 404,8 404,8 405,8 405,8 405,8 406,7 407,6 408,6 409,6 410,6 411,6 412,6 414,5 415,4 415,3 415,2 415,2 416,1 416,1 417,0 418,0 418,0 419,0 419,1 419,1 419,1 419,2 419,3 419,3 419,3 419,4 418,5 418,5 419,5 419,5 419,6 420,6 420,6 420,5 421,5 423,4 424,4 426,3 428,2 430,1 431,1 432,1 433,1 433,1 435,3 437,4 437,4 438,5 440,5 441,5 441,5 442,6 444,7 445,8 447,9 448,10 448,10 448,12 449,13 449,14 450,14 451,14 452,14 452,14 455,15 460,15 460,15 461,15 461,15 462,15 463,15 463,14 463,14 463,14 463,14 464,15 464,15 464,15 464,16 464,16 465,17 465,17 466,18 466,19 465,20 465,20 464,21 464,21 464,21 464,21 464,21 464,21 464,20 464,20 465,20 465,20 465,19 465,19 465,19 465,19 465,19 465,18 465,17 464,17 464,16 463,15 463,15 462,15 461,16 459,16 459,16 462,17 461,18 462,18 462,19 462,19 462,19 462,19 462,19 462,19 462,19 462,19 462,19 462,19 462,19 462,19 462,19 462,19 462,19 463,19 463,19 463,20 464,20 464,20 464,20 463,20 463,20 463,20 463,20 462,20 462,20 461,20 461,21 461,21 462,21 462,21 462,21 462,21 462,21 462,21 462,22 462,22 462,22 462,22 462,21 461,21 460,21 460,21 459,21 459,22 459,22 459,23 460,23 461,23 461,23 461,24 461,24 460,24 460,24 459,24 459,25 459,25 459,25 459,26 459,26 459,27 459,28 459,28 458,28 457,30 457,32 458,33 459,33 459,36 460,37 460,39 459,40 461,40 461,40 462,42 462,44 463,45 463,45 463,46 463,46 463,46 462,46 461,47 461,48 461,49 462,49 463,50 463,50 462,51 463,53 463,53 463,54 463,55 463,55 463,56 463,56 463,56 463,57 463,58 464,58 464,59 464,60 464,61 465,62 465,65 465,65 466,66 466,67 466,67 466,69 465,69 465,69 464,70 465,71 466,71 466,71 467,71 467,71 466,72 467,73 467,73 467,74 466,74 466,75 465,75 465,76 465,77 466,77 466,77 467,76 467,77 467,77 468,77 468,78 468,79 468,79 467,79 467,80 467,81 467,83 467,84 467,84 467,84 466,86 466,87 466,88 466,90 465,89 464,89 464,90 463,92 463,92 462,92 462,94 461,96 461,96 460,96 460,96 460,96 459,97 458,97 459,98 460,98 460,99 459,99 458,98 458,98 457,99 457,99 458,100 458,100 458,102 458,102 458,102 458,102 458,103 458,103 458,104 457,105 456,105 456,106 457,106 456,107 455,107 455,107 455,108 455,110 455,110 455,110 455,110 455,111 455,113 454,113 454,113 454,114 455,114 455,114 455,114 455,115 455,115 455,115 455,117 454,117 454,117 454,117 453,118 453,118 452,119 452,119 452,118 451,117 450,117 449,118 448,118 448,119 448,119 447,121 447,122 447,123 448,125 449,126 449,126 450,127 450,128 451,128 451,129 451,130 451,130 451,132 451,132 451,133 451,134 452,135 453,135 453,135 455,136 456,136 456,136 457,137 457,138 457,139 457,140 457,142 456,142 456,143 455,143 455,144 454,145 454,145 453,146 452,146 451,146 451,147 451,147 452,148 452,148 453,148 453,149 453,149 454,149 454,150 454,151 454,152 454,153 454,154 454,154 454,155 454,157 453,157 453,157 453,157 452,158 452,159 452,159 451,158 450,158 450,159 450,159 449,159 449,160 449,161 450,163 450,163 450,163 451,164 451,164 451,164 451,164 451,164 452,165 452,165 452,165 452,165 452,165 452,165 452,165 452,165 452,166 453,166 453,166 453,166 453,166 453,166 453,166 453,166 454,166 454,167 454,167 454,167 454,167 454,167 455,167 455,167 455,167 456,167 456,167 456,168 456,168 457,168 457,168 457,168 457,168 457,168 457,168 457,168 458,168 458,168 458,168 458,168 458,168 458,168 458,168 459,168 459,168 459,168 459,168 459,167 459,167 459,167 459,167 459,167 459,167 459,167 459,167 459,167 459,167 459,167 459,167 459,167 460,167 460,167 460,167 460,167 460,167 460,166 460,166 460,166 460,166 460,166 460,166 460,166 460,166 460,166 460,166 460,166 460,165 460,165 460,165 460,165 460,165 460,165 460,165 460,165 460,165 460,165 460,165 460,165 460,165 460,165 460,165 461,165 461,165 461,165 461,165 461,165 461,165 461,165 461,165 461,165 461,165 461,165 461,165 461,165 461,165 461,165 461,165 462,165 462,165 462,165 462,165 462,165 462,165 462,165 462,165 462,165 462,165 462,165 462,165 462,165 463,165 463,165 463,165 463,165 463,165 463,165 463,165 464,165 464,165 464,165 464,165 464,165 464,165 464,165 464,165 464,165 464,165 464,165 464,165 464,165 464,165 464,165 464,165 464,165 464,165 464,165 464,165 464,165 464,166 464,166 464,166 464,166 464,165 464,166 465,166 465,166 465,166 465,166 465,166 465,166 465,166 465,166 465,166 465,166 465,166 465,166 465,166 465,166 465,166 465,166 465,166 465,166 465,166 465,166 465,166 465,166 465,166 465,166 465,166 465,166 465,166 465,166 465,166 465,166 466,166 466,166 466,166 466,166 466,166 466,167 466,167 466,167 466,167 466,167 466,167 466,167 466,167 466,167 466,167 466,167 466,167 466,167 466,167 466,167 466,167 466,167 466,167 466,168 466,168 466,168 466,168 466,168 465,168 465,168 465,168 466,168 466,168 466,168 466,168 466,168 466,168 466,168 466,169 466,169 466,169 466,169 466,169 466,169 466,169 466,169 466,169 466,169 466,169 466,169 466,170 466,170 466,170 466,170 467,170 467,170 467,170 467,170 467,170 467,170 467,170 467,170 467,170 467,170 467,170 467,170 467,171 467,171 467,171 467,171 467,171 467,171 467,171 467,171 467,171 467,171 467,171 467,171 467,171 467,171 467,171 467,171 467,171 468,171 468,172 468,172 468,172 468,172 468,172 468,172 468,172 468,172 468,172 468,172 468,172 468,172 468,172 468,172 468,172 468,172 468,172 468,172 468,173 468,173 468,173 468,173 469,173 469,173 469,173 469,173 469,173 469,173 469,173 469,173 469,173 469,173 469,173 469,173 469,173 469,174 469,174 469,174 469,174 469,174 469,174 469,174 469,174 469,174 469,174 469,174 469,174 469,174 469,174 469,174 470,174 470,174 470,175 469,175 469,175 469,175 469,175 469,175 469,175 469,175 469,175 469,175 470,175 470,175 470,175 470,175 470,175 470,175 470,175 470,176 470,176 470,176 470,176 470,176 470,176 470,176 470,176 470,176 470,176 470,176 470,176 470,176 470,176 470,176 470,176 470,176 470,176 470,176 470,176 470,176 471,177 471,177 471,177 471,177 471,177 471,177 471,178 471,178 471,178 471,178 470,178 470,178 470,178 470,178 470,178 470,178 470,178 470,178 470,178 470,178 470,178 470,178 470,179 470,179 470,179 470,179 470,179 470,179 470,179 470,179 470,179 470,179 470,179 470,179 470,179 470,179 470,179 470,179 470,179 470,180 470,180 470,180 470,180 470,180 470,180 470,180 470,180 470,180 469,180 469,180 469,181 469,181 470,181 470,181 470,181 470,181 470,181 470,181 470,181 470,181 470,181 470,181 470,181 469,181 469,181 469,181 469,181 469,181 469,182 469,182 469,182 469,182 469,182 469,182 469,182 469,182 469,182 469,182 469,182 469,182 469,182 469,182 469,182 469,182 469,182 469,182 469,182 469,182 469,182 469,182 469,182 469,182 469,182 469,182 469,182 469,182 469,182 469,182 469,182 469,182 469,182 469,182 469,182 469,182 469,182 469,182 469,182 469,182 469,182 469,182 469,182 469,182 469,182 469,183 469,183 469,183 469,183 469,183 469,183 469,183 469,183 469,183 469,183 469,183 469,183 469,183 469,183 469,183 469,183 469,183 469,183 469,183 469,183 469,183 469,183 469,183 468,183 468,183 468,183 468,183 468,183 468,183 468,183 468,183 468,184 468,184 468,184 468,184 468,184 468,184 468,184 468,184 468,184 468,184 468,184 467,184 467,185 467,185 467,185 467,185 467,185 467,185 467,185 467,185 467,185 467,185 467,185 467,185 467,185 467,185 467,186 467,186 467,186 467,186 467,186 467,186 467,186 467,186 467,186 467,186 467,186 467,186 467,186 467,186 467,186 466,186 466,186 466,186 466,186 466,186 466,186 466,186 466,186 466,186 466,186 466,186 466,186 466,186 466,187 466,187 467,187 467,187 467,187 467,187 467,187 466,187 466,187 466,187 466,187 466,187 466,187 466,187 466,187 466,187 466,187 466,187 466,187 466,187 466,188 466,188 466,188 466,188 466,188 466,188 466,188 466,188 466,188 466,188 466,188 466,188 466,188 466,188 466,188 466,188 466,188 466,188 466,188 466,188 466,188 466,188 466,188 466,188 466,188 466,188 466,189 466,189 466,189 466,189 466,189 466,189 466,190 466,190 466,190 466,190 466,190 466,190 466,191 466,191 466,191 466,191 466,191 466,191 466,191 466,191 466,191 466,192 466,192 466,192 466,192 466,192 466,192 466,192 466,192 466,192 466,192 466,192 466,192 466,192 466,192 466,192 466,192 466,192 466,192 466,192 466,192 466,192 466,192 466,192 466,192 466,192 466,192 466,192 466,192 466,192 466,192 465,192 465,192 465,192 465,192 465,192 465,192 465,192 465,192 466,192 466,192 466,192 466,192 466,192 466,192 466,193 466,193 465,193 465,193 465,192 465,192 465,192 465,192 465,192 465,192 465,193 465,193 465,193 465,193 465,193 465,193 465,193 466,193 466,193 466,193 466,193 466,193 466,194 466,194 466,194 466,194 466,193 466,193 465,193 466,194 466,194 466,194 466,194 466,194 466,194 466,194 466,194 466,194 466,194 466,194 466,194 466,194 466,194 466,195 466,195 466,195 466,195 466,195 466,195 466,195 466,195 466,195 466,195 466,195 466,195 466,195 466,195 466,195 466,195 466,195 466,195 466,195 467,195 467,195 467,195 467,195 467,195 467,195 467,196 467,196 467,196 467,196 467,196 467,196 467,196 467,196 467,196 467,196 467,196 467,196 467,196 467,196 467,196 467,196 467,196 467,196 467,196 467,197 467,197 467,197 467,197 467,197 467,197 467,197 467,197 467,197 467,197 467,197 467,197 467,197 467,197 467,197 467,198 467,198 467,198 467,198 467,198 467,198 467,198 467,198 467,198 467,198 467,198 467,198 467,198 467,198 467,198 467,198 467,198 467,198 467,198 467,198 467,198 467,198 467,198 467,198 467,199 467,199 467,199 467,199 467,199 467,199 467,199 467,199 467,199 467,199 467,199 467,199 467,199 467,199 467,199 467,199 467,199 467,199 467,199 467,200 467,200 466,200 466,200 466,200 466,200 466,200 466,200 466,200 466,200 466,200 466,200 466,201 466,201 466,201 466,201 466,201 466,201 466,201 466,201 466,201 466,201 466,201 466,201 466,201 467,201 467,201 467,201 467,201 467,201 467,202 467,202 467,202 467,202 467,202 467,202 467,202 467,202 467,202 467,202 467,202 467,202 467,202 467,202 467,202 467,202 467,202 467,202 467,202 467,202 467,202 467,202 467,202 467,202 467,202 467,203 467,203 467,203 467,203 467,203 467,203 467,203 467,203 467,203 467,203 467,203 467,203 467,203 467,203 467,203 467,203 467,203 467,203 467,203 467,203 467,203 467,203 467,203 467,203 467,203 467,203 467,203 467,203 467,203 467,203 467,203 466,203 466,203 466,203 466,203 466,203 466,203 466,203 466,203 466,203 466,203 466,203 466,203 466,203 466,203 466,203 466,203 466,203 466,203 466,203 466,203 466,203 466,203 466,203 466,203 466,203 465,203 465,203 465,203 465,203 465,203 465,203 465,203 465,203 465,203 465,203 465,203 464,203 464,203 464,203 464,204 464,204 464,204 464,204 464,204 464,204 463,204 463,204 463,204 463,204 463,204 463,204 463,204 463,204 463,204 463,204 463,204 463,204 463,205 463,205 463,205 463,205 463,205 463,205 463,205 463,206 463,206 462,206 462,207 462,207 463,207 463,208 463,208 463,209 463,209 464,209 464,209 464,210 464,210 464,210 465,210 465,210 465,210 465,210 465,210 465,210 465,209 465,209 465,209 465,209 465,209 465,209 465,209 465,209 465,210 465,210 465,210 465,210 465,210 465,210 465,210 465,210 465,210 465,210 466,210 466,210 466,210 466,210 466,210 466,210 466,210 466,210 466,210 466,210 466,210 466,210 466,210 466,210 466,210 467,210 467,209 467,209 467,209 467,209 467,209 467,209 467,210 467,209 467,209 467,210 467,210 467,210 467,210 467,210 468,210 468,210 468,210 467,210 468,210 467,210 467,211 467,211 467,211 467,211 467,211 467,211 467,211 467,212 467,212 467,212 467,212 467,212 467,212 467,212 467,212 467,212 467,213 468,213 468,213 468,213 468,213 468,213 468,213 468,213 468,214 468,214 468,214 468,214 468,214 468,214 468,214 468,214 468,215 468,215 468,215 468,215 468,215 468,215 468,216 468,216 468,216 468,216 468,216 468,216 468,216 468,217 468,217 468,217 468,217 468,217 469,217 469,217 469,217 469,217 469,217 469,217 469,218 469,218 469,218 469,218 469,218 469,218 469,218 469,219 469,219 469,219 469,219 469,219 469,220 469,220 468,220 468,220 468,220 468,220 468,220 468,220 468,220 468,220 468,220 468,220 467,220 467,220 467,221 467,221 467,221 467,221 467,221 468,221 468,222 468,222 468,222 468,222 468,223 468,223 468,223 468,223 468,223 468,223 468,223 468,223 468,223 468,223 468,223 468,223 468,223 468,223 468,224 468,224 468,224 468,224 468,224 468,224 468,224 468,224 468,225 468,225 467,225 467,225 467,225 467,225 467,225 467,225 467,225 467,225 466,226 466,226 466,226 466,226 466,226 466,226 466,226 466,227 466,227 466,227 466,227 466,227 466,227 466,227 465,227 465,227 465,228 465,228 465,228 465,228 464,228 464,228 464,229 464,229 464,229 464,229 464,229 464,229 464,229 464,230 464,230 464,230 464,230 464,231 463,231 463,231 463,231 463,231 463,232 463,232 463,232 463,232 463,232 463,232 463,232 463,233 463,233 463,233 463,233 463,234 463,234 464,234 464,234 464,234 464,235 464,235 463,235 463,235 463,235 463,235 463,235 463,236 463,236 463,237 462,237 462,237 462,238 462,238 461,238 461,238 461,238 461,239 461,239 461,239 460,239 460,239 460,239 460,239 460,239 460,239 460,239 460,239 460,239 460,239 460,239 460,239 460,239 460,239 460,239 460,239 460,239 460,239 460,239 460,239 460,239 460,239 460,239 460,239 460,239 460,239 460,239 460,239 460,239 460,239 460,239 460,239 460,239 461,239 461,240 461,240 461,240 461,240 461,240 461,240 461,240 461,240 461,240 461,240 461,240 461,240 461,240 461,240 461,240 461,240 461,240 461,240 461,240 461,240 462,240 462,240 462,240 462,240 462,240 462,240 462,241 462,241 462,241 462,241 463,241 463,241 463,241 463,241 463,241 463,242 463,242 463,242 463,242 463,242 463,242 463,243 463,243 463,243 463,244 463,244 463,244 463,244 463,244 463,244 463,244 463,244 463,244 463,244 463,245 463,245 464,245 464,245 464,245 464,245 464,245 464,245 464,245 464,246 464,246 464,246 464,246 464,246 464,246 464,246 464,246 465,246 465,246 465,246 465,247 465,247 465,247 465,247 465,247 465,247 465,247 465,247 465,247 465,247 465,247 465,247 465,247 465,247 465,247 465,247 465,247 465,248 465,248 465,248 465,248 465,248 465,248 465,248 465,248 465,248 465,248 465,248 465,248 465,248 465,248 465,248 465,248 465,248 465,248 465,248 465,248 465,248 465,249 465,249 465,249 465,249 465,249 465,249 465,249 465,249 465,249 465,250 465,250 465,250 465,250 465,250 465,250 465,250 465,250 465,250 465,250 465,250 465,250 465,250 465,250 465,250 465,250 466,250 466,250 466,250 466,250 466,250 466,250 466,250 466,250 466,250 466,250 466,250 466,250 466,250 466,250 466,250 466,250 466,250 466,250 466,250 466,250 466,250 466,250 466,250 467,250 467,250 467,250 467,251 467,251 467,251 467,251 467,251 467,252 467,252 467,252 467,252 466,252 466,253 466,253 466,253 466,253 466,253 466,253 466,253 466,253 466,253 466,253 466,253 466,253 466,253 466,253 466,253 466,253 466,253 466,253 466,253 466,253 466,253 466,253 466,253 466,253 466,253 466,253 466,253 466,253 466,253 466,253 466,253 466,253 466,253 466,253 466,254 466,254 466,254 466,254 466,254 466,254 466,254 466,254 466,254 466,254 466,254 466,254 467,254 467,254 467,254 467,254 467,254 467,254 467,254 467,254 466,254 466,254 466,254 466,254 466,254 466,254 466,254 466,254 466,254 466,254 466,254 466,254 467,254 467,254 467,254 467,254 467,254 467,254 467,254 467,254 467,255 467,255 467,255 467,254 467,254 467,254 467,254 467,255 467,255 467,255 467,255 467,255 467,255 467,255 466,255 466,255 466,255 466,255 466,255 466,255 466,255 466,255 466,255 467,255 467,255 467,255 467,255 467,255 466,255 466,255 466,256 466,256 466,256 465,256 465,256 465,256 465,256 465,256 465,256 465,256 464,256 464,256 464,256 464,256 464,256 464,257 464,257 464,257 464,257 464,257 464,257 463,257 463,257 463,257 463,257 463,257 463,257 463,257 463,257 463,257 463,257 463,257 463,257 462,258 462,258 462,258 462,258 462,258 462,258 462,258 462,258 462,258 462,258 462,258 462,258 462,258 462,258 462,258 462,258 462,258 462,258 462,258 462,259 462,259 462,259 462,259 462,259 462,259 462,259 462,259 462,259 462,259 462,259 462,259 461,259 461,259 461,259 461,259 461,260 461,260 461,260 461,260 461,260 461,260 460,260 460,260 460,260 460,260 460,260 460,260 460,260 460,260 460,260 459,261 460,261 460,261 459,261 459,261 459,262 459,262 459,262 459,262 459,262 459,262 460,263 460,263 460,263 460,263 460,263 460,264 460,264 460,264 460,264 460,264 462,263 465,265 471,268 469,269 468,270 465,277 463,278 462,277 461,278 460,280 459,283 459,287 458,290 457,290 457,291 460,296 459,298 460,303 456,307 447,311 439,312 437,310 436,310 418,323 417,322 420,342 431,340 448,338 453,342 450,347 443,350 439,358 438,371 433,386 405,411 402,411 400,410 395,403 393,400 391,397 385,395 378,395 373,398 367,403 365,408 365,412 367,414 370,414 372,413 377,417 377,418 377,419 376,420 376,422 378,425 378,429 379,429 380,428 382,428 384,429 384,431 381,434 381,436 378,437 376,437 373,434 372,435 367,436 363,437 359,434 358,433 355,432 352,433 346,429 342,431 338,433 334,437 328,439 324,439 318,440 314,438 310,436 312,435 315,434 315,432 313,429 309,425 305,421 305,421 306,420 306,420 299,420 298,427 291,427 292,429 293,431 294,433 295,436 296,438 295,440 291,442 284,446 282,447 280,448 278,448 274,448 272,449 270,448 267,451 265,451 262,451 262,453 261,454 261,457 260,458 259,460 260,462 262,466 262,468 261,469 260,469 259,470 258,468 255,468 254,468 251,470 252,471 254,472 257,472 258,473 259,477 260,479 260,481 260,482 259,483 260,484 261,484 263,486 265,485 268,487 271,485 271,486 270,487 272,488 270,490 270,490 268,490 268,490 267,489 266,488 266,488 265,488 267,491 263,490 263,490 262,490 260,493 259,493 259,493 259,494 260,494 260,495 260,495 260,495 260,496 259,496 259,497 258,497 258,498 258,499 258,499 257,499 256,499 255,499 254,499 253,500 251,499 251,497 250,496 251,496 251,495 251,494 250,493 250,493 250,493 249,493 249,494 248,495 247,495 247,495 246,496 246,496 242,499 241,499 240,500 241,496 242,490 242,489 242,489 241,489 240,491 238,492 238,493 238,493 238,493 238,493 238,493 238,493 238,493 237,493 237,493 237,493 237,493 236,493 236,493 235,494 235,494 235,494 235,494 235,494 235,494 234,494 234,494 232,493 231,493 231,493 230,493 230,493 229,493 229,493 228,493 228,492 228,492 228,491 228,490 229,490 230,489 231,488 232,488 233,486 233,486 232,485 231,484 230,484 230,483 229,483 227,482 226,482 226,482 225,482 225,482 224,482 223,481 223,481 222,480 222,480 222,479 222,479 221,478 220,478 220,478 219,477 218,477 217,476 216,476 215,475 213,475 211,475 211,475 210,475 209,475 206,475 205,475 203,475 202,475 200,475 196,475 195,475 193,474 192,474 191,473 190,472 190,472 182,472 179,472 178,472 176,472 175,472 174,472 174,472 174,471 173,470 173,469 173,468 172,468 172,467 171,467 171,466 171,466 171,465 171,464 171,464 170,462 170,461 170,459 170,459 169,458 169,458 170,457 170,457 171,457 171,456 171,455 171,454 171,453 170,452 169,450 168,449 167,449 167,448 168,447 168,446 206,434 243,414 247,411 248,411 247,410 246,410 246,410 245,409 244,409 244,408 243,408 243,407 241,406 241,406 240,406 240,405 240,405 240,405 239,404 238,404 238,404 237,403 237,403 237,402 236,402 236,402 236,402 236,402 236,402 235,401 235,401 234,401 234,400 233,400 233,400 232,400 232,399 231,399 231,399 230,398 229,398 229,398 228,397 225,394 222,392 218,389 215,386 207,385 203,380 201,378 200,376 199,375 199,375 197,373 195,371 194,370 193,368 193,366 192,366 190,364 187,363 185,362 183,362 180,360 177,358 176,357 174,357 172,356 171,356 171,356 170,357 169,357 169,357 165,357 165,358 162,358 161,359 159,359 156,359 155,360 155,360 154,360 152,359 151,359 149,359 147,359 146,358 145,358 145,358 144,358 143,357 143,357 142,356 141,355 141,354 140,353 140,353 140,352 138,350 138,350 137,349 136,348 136,347 136,346 136,345 136,343 135,341 135,340 135,339 135,338 135,337 134,335 134,334 134,332 134,331 133,330 133,329 133,328 133,328 132,328 132,328 131,328 131,329 131,329 130,329 130,329 129,328 129,328 128,328 128,328 128,327 127,327 127,327 127,326 126,326 126,326 126,325 126,324 126,323 126,322 126,321 126,321 126,321 125,321 125,321 124,321 124,320 123,320 122,320 121,320 121,320 120,319 120,319 120,319 119,319 118,319 117,319 116,319 115,319 115,319 115,318 115,318 114,317 114,317 114,317 114,317 113,317 113,316 113,316 112,316 112,316 111,316 111,316 111,316 111,316 110,316 110,316 110,316 109,316 109,315 109,315 108,315 108,315 108,315 107,315 107,315 107,315 107,315 106,315 106,315 105,315 105,315 105,315 105,315 105,315 105,315 104,315 104,316 104,316 104,316 103,316 103,317 103,317 102,317 102,317 102,317 102,317 102,317 101,317 101,317 101,317 100,317 99,317 98,318 98,318 97,318 96,319 95,319 95,319 94,319 94,319 93,320 92,320 92,320 91,320 87,317 79,311 73,306 67,303 61,300 55,297 49,291 49,291 48,291 47,291 45,291 44,291 44,291 43,291 43,292 41,293 41,293 40,294 39,294 38,294 36,295 33,292 31,290 27,286 27,286 27,286 18,278 13,275 10,276 10,277 7,279 5,277 5,276 5,276 3,275 3,274 3,274 4,275 4,275 5,275 5,275 5,275 5,275 6,276 7,275 7,275 8,275 8,274 8,274 8,274 9,274 9,273 8,273 8,273 8,273 9,273 9,272 9,272 9,272 10,272 10,271 10,271 10,271 10,271 10,271 11,270 11,270 11,270 10,270 10,269 9,269 9,269 9,269 9,268 9,268 9,267 8,267 7,266 7,266 6,266 6,266 6,264 6,264 7,262 7,262 7,262 4,257 5,257 3,253 2,249 1,248 1,247 2,246 2,244 2,243 2,242 2,240 3,239 3,239 5,239 6,238 6,238 6,237 6,236 6,236 13,234 12,233 7,230 4,228 2,227 0,226" id="02A06" class="canton" fill="steelblue" stroke-width="1" stroke="white" geotype="canton" geoname="Bavella" code_insee="02A06" code_departement="2A" nom_departement="Corse-du-Sud" code_region="94" nom_region="Corse"/></svg>