<?xml version="1.0" encoding="utf-8"?>
<svg version="1.1" id="svgmap" xmlns="http://www.w3.org/2000/svg" xmlns:xlink="http://www.w3.org/1999/xlink" x="0px" y="0px" width="100%" height="100%" viewBox="0 0 500 416">
<polygon points="96,72 100,74 104,74 107,72 111,71 120,70 126,67 129,65 130,63 130,61 131,59 132,58 135,56 139,55 143,53 145,50 145,40 147,35 151,33 163,26 165,26 167,24 169,22 174,19 180,17 185,17 192,18 194,17 198,16 200,14 203,13 207,11 212,9 217,9 228,9 234,9 242,7 256,5 278,1 283,0 287,0 294,2 311,9 322,10 327,11 330,10 332,9 336,9 340,9 343,10 351,14 380,23 388,25 393,27 407,28 413,29 434,32 443,32 445,32 448,31 457,25 497,53 500,63 486,68 459,74 452,76 438,79 437,79 438,107 443,107 446,137 438,153 432,167 421,173 417,176 413,181 411,186 405,195 399,197 396,200 394,207 387,212 385,213 379,215 371,215 370,220 367,220 365,221 364,223 363,233 363,243 334,254 330,255 339,267 329,270 328,272 326,273 325,274 323,279 322,280 319,282 317,285 321,293 321,293 321,294 313,295 312,295 312,295 306,291 304,292 304,292 308,288 307,288 303,291 303,290 304,290 300,287 298,287 298,285 295,286 296,288 275,292 274,292 275,293 274,293 267,295 265,296 264,310 264,311 263,311 261,311 260,311 259,311 258,311 256,340 270,341 270,341 270,341 268,370 276,377 307,371 309,370 310,346 309,346 309,339 311,339 312,338 325,331 326,330 327,329 329,329 330,329 330,330 330,331 315,339 314,341 312,369 313,371 315,371 317,372 318,373 319,374 318,375 317,375 316,375 315,374 314,373 312,373 310,373 292,376 278,378 276,380 272,385 247,382 241,388 238,389 237,390 234,392 232,394 231,393 230,393 227,393 226,393 224,393 221,393 221,395 217,414 216,416 213,416 211,416 213,406 211,406 206,405 199,405 189,404 170,401 155,400 150,399 142,398 138,397 134,393 107,376 104,376 98,376 89,379 79,382 77,383 77,383 76,380 84,375 88,374 100,372 101,372 100,369 101,368 100,366 106,357 100,354 103,349 109,337 97,330 81,317 83,315 96,309 103,304 111,293 119,285 125,277 125,273 123,271 115,267 98,259 125,229 56,184 54,183 47,180 32,176 18,172 13,171 3,168 0,167 24,112 87,115 84,112 85,108 95,89 95,85 96,72" id="02A03" class="canton" fill="steelblue" stroke-width="1" stroke="white" geotype="canton" geoname="Ajaccio-3" code_insee="02A03" code_departement="2A" nom_departement="Corse-du-Sud" code_region="94" nom_region="Corse"/></svg>