<?xml version="1.0" encoding="utf-8"?>
<svg version="1.1" id="svgmap" xmlns="http://www.w3.org/2000/svg" xmlns:xlink="http://www.w3.org/1999/xlink" x="0px" y="0px" width="100%" height="100%" viewBox="0 0 500 296">
<polygon points="0,207 0,207 0,207 0,207 0,207 1,207 2,206 2,206 2,206 2,206 2,206 2,206 2,206 2,206 2,206 2,206 2,206 3,205 3,205 3,205 3,205 3,205 3,205 3,205 4,206 4,206 4,206 4,206 5,205 5,205 5,205 5,205 5,205 6,205 6,205 6,204 7,204 7,204 8,204 8,204 8,204 8,204 8,204 8,204 8,203 8,203 8,203 8,202 8,202 8,201 8,201 8,201 8,201 9,200 9,200 9,200 9,199 10,199 10,199 10,199 10,199 10,199 10,199 10,199 10,199 11,200 11,200 11,200 11,200 11,200 11,200 12,200 12,200 12,200 13,199 13,199 13,199 13,199 14,199 14,199 14,199 14,199 15,199 15,198 16,198 16,198 16,198 16,198 17,198 17,198 18,197 18,197 18,197 19,197 19,197 19,196 19,196 19,196 19,195 19,195 20,195 20,195 20,195 20,195 20,195 19,194 19,194 19,194 20,194 20,194 20,193 21,193 22,193 22,193 23,192 23,192 23,192 23,192 23,192 24,192 24,192 25,192 25,192 25,191 26,191 26,191 26,191 26,191 26,191 26,191 26,190 27,190 27,190 27,190 27,190 27,189 28,189 28,189 28,189 29,188 29,188 30,188 30,188 30,188 30,188 31,187 31,187 31,187 31,187 31,187 32,186 32,186 32,186 32,186 33,185 33,185 33,185 33,185 34,185 34,185 35,185 35,185 35,185 35,184 35,184 35,184 35,184 35,183 35,183 35,183 35,183 35,183 35,183 35,182 35,182 36,181 36,180 36,180 36,180 36,180 36,180 36,180 36,179 36,179 36,179 36,179 37,179 37,179 37,179 37,178 37,177 37,177 37,177 37,177 37,177 37,177 37,177 37,177 38,177 38,177 39,177 39,176 39,176 39,176 39,176 40,176 40,176 40,176 40,175 40,175 40,175 40,175 40,174 40,174 40,174 41,174 41,173 42,173 42,173 42,173 42,173 42,173 43,173 43,172 43,172 44,172 44,172 44,172 45,172 45,172 46,172 46,172 46,172 46,172 46,172 46,171 46,171 46,171 46,170 47,170 47,170 47,170 47,170 47,170 47,170 48,170 48,170 48,170 48,169 48,169 48,168 48,168 47,168 47,168 47,168 47,167 46,168 46,168 46,168 45,168 44,168 44,168 44,168 42,168 42,168 42,168 40,166 40,166 40,166 39,166 39,165 38,165 38,164 37,164 37,164 37,163 37,163 37,163 37,163 37,163 37,163 37,162 38,162 38,162 38,162 38,162 38,161 38,161 38,161 38,161 38,160 38,160 38,160 38,160 38,159 37,159 37,159 37,159 37,159 37,158 37,158 37,158 37,158 38,158 38,157 38,157 38,157 38,156 38,156 38,156 38,155 38,155 38,155 38,155 38,155 38,155 38,155 39,154 39,154 39,153 40,153 40,153 40,153 40,153 40,153 40,153 40,153 40,153 40,153 41,152 41,152 41,152 41,152 41,152 41,152 41,151 41,151 41,151 41,151 41,151 41,151 41,151 42,151 42,151 42,151 42,150 42,150 42,150 42,150 42,150 42,150 42,150 42,149 43,149 43,149 43,148 43,148 43,148 43,147 44,147 44,147 44,147 44,146 44,146 44,146 44,146 44,146 45,146 45,145 45,145 45,145 45,145 45,145 45,144 45,144 45,144 45,144 45,143 46,143 46,142 46,142 46,142 46,141 47,140 47,140 50,138 50,136 50,135 50,132 51,131 51,131 52,131 52,130 52,130 52,130 54,129 54,128 54,127 55,126 55,126 54,126 54,124 53,123 53,123 52,123 51,121 50,119 49,118 50,117 50,115 51,114 51,114 47,111 47,111 48,110 48,109 49,108 49,108 50,107 50,106 50,105 50,105 51,105 52,104 52,103 52,101 53,100 52,100 54,100 56,100 57,101 59,101 59,101 60,101 61,102 61,102 62,102 63,103 64,102 64,102 65,103 66,103 67,103 68,103 69,103 71,103 71,102 72,102 73,102 73,102 74,102 75,102 75,102 75,102 76,102 77,102 77,102 77,102 79,102 81,101 82,102 82,102 83,102 84,102 85,102 86,102 87,103 88,104 88,104 88,104 89,104 89,104 90,103 90,103 91,102 92,101 92,101 93,100 94,99 95,97 95,97 95,97 95,97 98,96 98,96 98,96 98,96 99,96 99,96 100,96 100,96 101,96 101,96 101,96 102,96 104,96 105,96 106,95 106,95 107,95 110,94 111,93 111,93 111,93 111,93 111,91 111,91 111,90 112,90 112,90 113,89 114,89 115,89 116,88 117,88 117,87 118,87 119,86 119,86 120,86 121,85 122,85 122,85 122,84 122,84 122,84 122,83 122,83 124,82 124,81 126,80 127,80 127,79 127,78 127,78 129,77 129,77 129,76 129,76 129,76 129,76 129,75 129,75 131,74 131,74 131,74 132,73 132,72 132,72 134,71 135,70 136,71 136,71 137,71 137,70 137,70 138,70 141,69 141,69 141,69 141,69 142,69 142,69 142,69 142,69 143,68 145,68 145,68 150,70 150,70 156,69 156,69 157,69 158,69 158,68 157,68 158,68 158,68 158,67 159,67 159,67 160,67 163,67 163,68 164,68 165,67 165,67 165,66 166,66 166,66 167,65 168,64 168,64 169,64 169,64 169,64 170,63 170,63 170,63 171,63 171,62 171,62 171,62 171,62 171,62 172,62 172,62 172,62 172,62 172,62 172,62 172,62 173,62 173,62 173,62 173,62 173,62 173,62 173,62 173,62 174,62 174,62 174,62 174,62 174,62 174,62 174,62 174,62 174,62 174,62 175,62 175,62 175,62 175,63 175,63 175,63 175,63 175,63 175,63 175,62 175,62 175,62 176,62 176,62 176,62 176,62 176,62 176,62 176,62 176,62 176,62 177,62 177,62 177,62 177,62 177,62 177,62 177,62 177,62 177,62 177,62 177,62 177,62 177,62 177,62 178,62 178,62 178,62 178,62 178,62 178,62 178,62 178,62 178,62 178,62 178,62 178,62 178,62 178,62 178,62 179,62 179,62 179,62 179,62 180,62 180,62 180,62 180,62 180,62 180,62 180,62 180,61 180,61 180,61 180,61 180,61 180,61 180,61 180,61 180,61 180,61 180,61 181,61 181,61 181,61 181,61 181,61 182,61 182,61 182,61 182,61 183,61 183,61 183,61 183,61 184,61 184,61 184,61 184,61 184,61 184,61 184,61 185,60 185,60 185,60 185,60 185,60 185,60 185,60 185,59 188,49 185,42 186,40 186,39 186,39 185,39 185,39 185,38 185,38 185,38 184,38 184,37 184,37 184,37 185,37 185,37 185,36 185,36 184,36 184,35 184,35 184,35 183,34 183,34 182,34 187,32 188,29 188,29 188,27 188,27 187,26 187,25 186,23 187,22 187,20 187,20 187,20 187,20 188,20 188,20 188,20 188,20 188,20 189,20 189,20 190,19 190,20 190,20 190,20 191,19 191,19 191,19 192,19 192,19 192,19 192,18 193,18 193,18 193,18 193,18 193,18 194,18 194,18 194,18 194,18 195,18 195,18 195,18 196,18 196,18 196,18 196,18 196,18 197,17 197,17 197,17 198,16 198,16 198,16 197,15 197,15 197,14 197,14 197,14 197,13 197,13 197,13 197,12 198,12 198,12 199,12 199,12 199,12 199,12 199,12 199,12 199,12 200,12 200,12 200,12 200,12 200,11 200,11 200,11 201,11 201,11 201,11 201,11 201,11 201,11 201,10 201,10 201,10 201,10 201,10 201,10 201,10 205,10 206,10 207,11 207,12 208,12 209,12 210,13 210,13 210,13 211,14 213,14 213,14 213,14 213,14 213,14 213,14 213,14 213,14 213,14 213,14 214,14 214,14 214,14 214,14 214,14 214,14 214,14 214,14 214,14 215,14 215,14 215,14 216,14 216,14 216,14 216,14 216,14 216,14 216,13 217,13 217,13 217,13 218,13 218,13 218,14 218,14 219,14 219,14 219,14 219,14 219,14 220,14 220,14 220,13 220,13 220,13 220,13 221,13 221,13 221,13 221,13 222,13 222,13 222,13 222,13 223,13 223,13 223,13 223,13 224,13 224,14 224,14 224,14 225,14 225,14 225,14 225,14 225,14 225,14 225,15 226,15 226,15 226,15 226,15 226,15 226,14 226,14 226,14 226,14 227,14 227,14 227,13 227,13 227,13 228,13 228,12 228,12 229,11 229,11 230,11 230,10 230,10 230,9 231,9 231,9 231,8 232,8 232,8 232,8 232,7 232,8 233,8 234,8 235,8 235,8 236,9 238,9 240,10 240,10 241,10 241,11 242,11 242,11 242,11 243,11 244,12 246,13 247,14 247,14 247,14 247,14 248,14 248,14 248,14 249,14 250,15 250,15 251,15 251,15 251,15 251,16 252,16 252,16 252,17 253,17 253,17 254,15 254,15 254,15 254,14 254,14 254,14 254,13 255,13 255,13 255,13 255,13 256,12 256,12 256,12 256,12 257,12 257,12 258,12 258,13 258,13 258,13 259,14 259,14 259,14 259,13 260,14 260,14 261,14 261,14 263,13 263,14 264,14 264,15 265,14 265,14 265,14 265,14 265,14 266,14 266,14 267,14 267,13 267,13 267,13 267,13 268,13 274,10 278,8 278,8 279,7 280,7 280,7 280,7 280,6 281,6 282,6 282,6 282,6 283,5 283,5 283,5 284,5 284,5 285,5 285,5 285,5 286,5 287,5 287,5 288,5 288,5 288,5 289,5 289,5 289,5 290,4 290,4 290,4 290,4 291,4 291,4 291,3 291,3 291,3 292,3 292,3 292,3 293,3 293,3 294,2 294,2 294,2 295,1 295,1 295,1 296,1 296,0 298,0 298,0 298,0 298,0 299,1 299,1 299,3 300,3 300,4 299,4 300,5 300,5 300,7 300,8 300,8 300,8 300,9 300,9 300,9 300,10 300,10 300,10 300,11 300,11 300,11 300,11 299,11 299,11 299,11 299,11 299,12 299,12 299,12 299,12 299,12 299,12 299,12 299,12 299,12 299,13 299,13 299,13 300,13 300,13 300,13 300,13 300,13 300,13 300,13 300,13 300,13 300,14 301,14 301,14 301,14 301,14 301,14 301,14 302,14 302,14 302,14 302,15 302,15 302,15 302,15 302,15 303,15 303,15 303,15 303,15 303,15 304,15 304,16 305,16 305,17 305,17 306,17 306,17 306,17 307,18 307,18 306,19 306,19 306,20 306,20 305,20 305,21 306,21 306,22 307,23 308,23 309,24 311,25 311,25 311,25 311,25 311,25 312,25 312,25 312,25 312,24 312,24 312,24 313,24 313,24 313,24 314,24 314,24 315,24 315,23 315,23 316,23 316,23 316,23 316,23 316,23 316,23 316,23 316,23 316,22 316,21 316,21 316,21 316,21 316,21 316,21 316,21 316,21 316,21 316,21 316,20 317,20 317,20 317,20 317,20 318,19 318,19 318,19 319,19 319,19 319,19 319,19 319,19 321,19 321,19 321,19 321,19 321,19 322,19 322,19 322,19 323,19 323,19 323,19 323,19 324,19 325,19 325,20 325,20 325,20 325,20 325,20 325,20 325,20 326,20 326,20 327,20 327,20 327,20 327,20 328,20 328,20 328,20 329,20 329,20 329,20 330,20 330,20 330,20 330,20 331,20 332,20 332,20 332,20 333,20 333,20 333,20 333,20 333,20 334,20 334,20 334,20 334,20 335,20 335,20 335,20 335,20 335,20 335,20 335,19 336,19 336,19 336,19 336,19 336,20 336,20 336,20 336,19 336,19 337,20 337,20 337,20 337,20 337,20 337,20 337,19 337,19 337,19 337,19 338,19 338,19 338,20 338,20 338,20 338,20 338,20 338,20 338,20 338,20 338,20 338,20 338,20 338,20 338,20 338,20 339,20 339,20 339,20 339,20 339,20 339,20 339,20 339,21 339,21 339,21 339,21 339,21 339,21 339,21 339,21 339,21 339,21 339,21 339,21 339,21 339,21 339,21 339,22 339,22 339,22 339,22 340,22 340,22 340,22 340,22 340,22 340,22 340,22 340,22 340,22 340,22 340,22 340,22 340,22 340,22 341,22 341,23 341,22 341,22 341,23 341,23 341,23 341,23 341,23 342,23 342,23 342,23 342,23 342,23 342,23 342,22 342,23 342,23 342,23 342,23 342,23 343,23 343,23 343,23 343,23 343,23 343,23 343,23 345,23 346,23 347,23 349,23 350,23 352,23 354,23 356,24 357,24 357,24 357,24 357,24 357,24 357,24 357,24 357,24 357,24 358,23 358,23 358,23 358,23 358,23 358,23 358,23 358,23 358,23 358,23 358,23 359,23 359,23 359,23 359,24 359,24 359,24 360,24 360,23 360,24 360,24 360,24 360,24 361,24 361,24 361,24 361,24 361,24 361,24 361,24 361,24 361,24 361,24 361,24 362,24 362,24 362,24 362,24 362,24 362,24 362,24 362,24 362,24 362,25 362,25 362,25 362,25 362,25 362,25 362,25 362,25 362,25 362,25 362,25 363,25 363,25 363,25 363,25 363,25 363,25 363,25 363,25 363,24 363,24 363,24 363,24 363,24 363,24 363,24 363,24 363,24 364,24 364,24 364,24 364,24 364,24 364,24 363,24 363,24 363,24 363,23 363,23 363,23 363,23 363,23 363,23 363,23 363,23 363,23 363,23 363,23 363,23 363,23 363,23 363,23 363,23 364,23 364,23 364,23 364,23 364,23 364,23 365,23 365,23 365,23 365,23 365,23 365,23 365,23 366,23 366,23 366,23 366,23 366,23 366,23 366,23 366,22 366,22 366,22 366,22 366,22 366,22 367,22 367,22 368,22 368,22 368,22 369,22 369,22 370,22 370,22 370,22 370,22 371,22 371,23 371,23 371,23 371,23 371,23 372,23 372,23 372,23 372,23 372,23 372,23 372,23 372,23 372,23 373,23 373,23 373,23 373,23 373,23 373,23 373,23 373,23 374,23 374,23 374,23 374,24 374,24 374,24 374,24 375,24 375,24 375,24 375,25 376,25 376,25 376,25 377,25 378,25 378,25 378,25 378,25 378,25 378,25 378,25 378,25 378,25 378,25 379,26 379,26 379,26 379,26 379,26 379,26 380,26 380,26 380,26 380,26 380,26 381,26 381,26 381,26 381,26 381,26 381,26 382,26 382,26 382,26 383,26 383,26 383,26 383,26 383,26 383,26 383,26 384,26 384,26 384,26 384,27 384,27 384,27 384,27 384,27 384,27 384,27 384,27 384,27 385,27 385,27 385,27 385,27 385,27 385,27 385,27 385,27 385,27 385,27 385,27 385,27 385,27 386,27 386,27 386,27 386,27 386,27 386,27 386,27 386,27 386,27 387,27 387,27 387,28 387,28 387,28 387,28 387,28 387,28 387,28 388,28 388,28 388,28 388,28 388,28 388,28 388,28 388,28 388,28 388,28 388,28 388,28 388,28 388,28 388,28 388,28 389,28 389,28 389,28 389,28 389,28 389,28 389,28 389,28 389,28 389,28 389,28 390,28 390,28 390,28 390,28 390,28 390,28 390,28 390,28 391,28 391,28 391,28 391,28 391,28 391,28 391,28 391,28 391,28 391,27 391,27 391,27 391,27 391,27 392,27 392,27 392,27 392,27 392,27 392,27 392,27 392,27 392,27 392,27 392,27 393,27 393,27 393,27 393,27 393,26 393,26 393,26 393,26 393,26 393,26 393,26 393,26 393,26 393,26 393,26 393,26 393,26 393,26 393,26 393,26 393,26 394,26 394,26 394,26 394,26 394,26 394,26 395,26 395,26 395,26 395,26 395,26 395,26 396,26 396,26 396,26 396,26 396,26 396,26 396,26 396,26 396,26 396,26 397,26 397,26 397,26 397,26 397,26 397,25 398,25 398,25 398,25 398,25 398,25 398,25 398,25 398,25 399,25 399,25 399,25 399,25 399,25 399,25 400,24 400,24 400,24 400,24 400,24 400,24 401,25 401,25 401,24 401,24 401,24 401,24 401,24 401,24 401,24 401,24 401,24 401,24 401,24 401,24 401,24 401,24 401,24 401,24 401,24 401,24 402,24 402,24 402,24 402,24 402,24 402,24 403,24 403,24 403,24 403,24 403,24 403,24 403,24 403,24 404,24 404,24 404,24 404,24 404,24 404,24 404,24 405,24 405,24 405,24 405,24 405,24 405,24 405,24 405,24 405,24 405,24 406,24 406,24 406,24 406,24 406,24 406,24 406,24 406,24 407,24 407,24 407,24 407,24 407,24 407,24 407,24 407,24 407,24 407,24 408,24 408,24 409,24 409,24 410,24 410,24 411,24 411,24 413,24 413,23 414,23 415,23 415,23 415,23 416,22 416,22 417,22 417,22 420,21 420,21 426,19 430,19 433,19 433,20 433,21 432,21 432,22 432,22 432,22 432,22 431,22 431,23 431,25 431,25 431,26 431,27 430,28 430,28 431,29 431,30 432,30 432,31 433,31 433,31 433,31 433,32 433,34 434,36 433,37 434,38 437,39 438,39 438,39 438,39 438,39 438,39 438,40 438,40 438,40 439,40 440,41 441,41 442,42 442,42 442,42 442,42 443,44 444,44 444,45 444,46 444,46 444,46 444,46 445,46 445,46 446,47 446,47 446,47 446,47 447,47 447,47 447,47 447,47 447,47 447,47 447,47 447,48 448,48 448,48 448,48 448,48 448,48 448,48 448,48 449,48 449,48 449,48 449,48 449,48 449,48 450,48 450,48 450,48 450,48 450,48 450,48 450,48 450,48 450,48 450,48 450,48 451,48 451,48 451,48 451,48 451,48 451,48 451,48 451,48 452,48 452,48 452,48 452,48 453,49 453,49 453,49 453,49 453,49 453,49 454,49 454,48 454,48 454,48 454,48 454,48 454,48 455,48 455,48 455,48 455,48 455,48 455,48 455,48 455,48 455,47 456,47 456,47 456,47 456,47 457,47 457,47 457,47 457,47 458,47 458,47 458,47 458,47 459,47 459,47 459,47 460,47 460,47 460,47 460,47 460,47 460,47 461,47 461,47 461,47 461,47 461,47 462,47 462,47 462,47 462,47 462,47 463,47 463,47 463,47 463,47 463,47 463,47 463,46 463,46 463,46 463,46 463,46 463,46 463,45 463,45 463,45 463,45 463,45 464,45 464,45 464,45 464,45 464,45 464,44 464,44 464,44 465,44 465,44 465,44 465,44 465,44 466,44 466,44 466,44 466,44 466,45 467,45 467,45 467,45 467,45 468,46 468,46 468,46 468,46 468,46 468,47 468,47 469,47 469,47 469,47 469,47 469,48 469,48 469,48 470,48 470,49 470,49 470,50 471,50 471,50 471,50 471,50 471,50 471,50 471,50 472,51 472,51 472,51 472,51 472,51 472,51 473,51 473,51 473,51 474,50 474,50 474,50 474,50 474,50 474,50 474,50 474,50 474,50 474,49 475,49 475,49 475,49 475,49 475,49 476,49 476,49 476,49 476,49 476,49 476,49 476,49 476,49 477,49 477,49 477,49 477,49 477,49 477,49 477,49 477,49 477,49 477,50 477,50 477,50 477,51 477,52 478,52 478,53 478,54 479,54 479,54 479,54 480,54 480,54 481,54 481,54 482,54 482,54 483,54 483,54 484,54 484,54 484,54 484,54 484,53 484,53 485,53 485,53 487,52 489,51 489,50 490,50 490,50 491,49 492,49 492,48 492,47 493,46 493,46 494,45 494,45 494,45 495,46 495,46 495,46 496,46 496,46 496,46 496,45 496,45 496,45 497,45 499,45 500,44 500,45 499,46 499,46 499,46 499,46 499,46 499,46 499,46 499,46 499,47 498,47 498,47 498,47 498,47 497,47 497,47 497,47 496,48 496,48 496,48 495,48 495,48 495,48 495,48 495,48 495,48 495,48 495,48 495,48 495,48 495,48 495,48 495,48 495,48 495,49 495,49 495,49 495,49 495,49 495,49 495,49 495,49 495,49 495,49 495,49 495,49 495,49 495,49 495,49 495,49 495,50 495,50 495,50 495,50 496,50 496,50 496,50 496,50 496,50 496,50 496,50 496,50 496,50 496,50 496,50 496,50 496,50 496,50 496,50 496,50 496,50 496,50 496,50 497,51 497,51 497,51 497,51 497,51 497,51 497,51 497,51 497,51 497,51 497,51 497,51 496,51 496,51 496,51 496,51 496,52 496,52 496,52 496,52 496,52 496,52 496,52 496,52 495,52 495,52 495,52 495,52 495,52 495,52 496,52 496,52 496,53 496,53 496,53 496,53 496,53 496,53 496,53 496,53 496,53 496,53 496,53 496,53 496,53 496,53 496,53 496,53 496,53 496,53 496,53 496,53 496,53 496,53 496,53 496,53 496,53 496,53 496,53 496,54 496,54 497,54 497,54 497,54 497,54 497,54 497,54 497,54 497,54 497,54 497,55 497,55 497,55 497,55 497,55 497,55 497,55 497,55 497,55 497,55 497,56 497,56 497,56 497,56 497,56 497,56 497,56 497,56 497,56 497,56 497,56 497,56 497,56 497,56 497,56 497,56 497,57 497,57 497,57 497,57 497,57 497,57 497,57 497,57 497,57 497,57 496,57 496,58 496,58 496,58 496,58 496,58 496,58 496,58 496,58 496,58 496,58 496,58 496,58 496,58 496,58 496,58 496,58 496,58 496,58 496,58 496,58 496,59 496,59 496,59 496,59 496,59 496,59 496,59 496,59 496,59 496,59 496,59 496,59 496,60 496,60 496,60 496,60 496,60 496,60 496,60 496,60 496,61 497,62 497,62 497,62 497,62 496,62 496,62 496,62 496,63 496,63 495,63 495,63 495,63 495,63 494,63 494,63 494,63 494,63 494,63 494,63 494,63 493,63 493,63 493,63 493,63 493,63 493,63 493,63 493,63 493,64 493,64 493,64 493,64 492,64 492,64 492,64 492,64 492,64 491,64 491,64 491,64 491,64 490,64 490,64 490,65 490,65 489,65 489,65 489,65 489,65 489,65 489,65 489,65 489,65 489,65 489,65 489,65 489,65 489,65 488,65 488,65 488,65 488,66 488,66 488,66 488,66 488,66 488,66 488,66 488,66 488,66 488,66 488,66 488,66 488,66 488,66 487,66 487,66 487,66 487,66 487,66 487,66 487,66 487,66 487,67 487,67 487,67 487,67 487,67 486,67 486,67 486,67 486,67 486,67 486,67 486,67 485,67 485,67 485,67 485,67 485,67 485,67 485,67 485,67 485,67 485,67 485,67 485,67 484,67 484,67 484,67 484,67 484,67 484,67 484,67 484,67 484,67 484,67 484,67 484,67 484,67 484,67 484,67 483,67 483,67 483,67 483,67 483,67 483,66 483,66 483,66 483,66 482,67 482,67 482,67 481,67 481,67 481,67 481,67 481,67 481,67 481,67 480,67 479,68 479,68 479,68 479,68 478,68 478,68 477,68 477,68 476,68 476,68 475,69 474,70 474,70 473,70 473,70 473,70 472,71 472,71 472,71 471,71 471,71 471,71 471,71 471,72 471,72 471,72 471,72 471,72 470,72 470,72 470,72 470,72 470,72 470,72 470,72 470,72 470,72 470,72 470,72 470,72 470,72 470,72 470,72 470,73 469,73 469,73 469,73 469,73 469,73 469,73 469,73 469,73 469,73 469,73 468,73 468,73 468,73 468,73 468,73 468,73 468,73 468,73 468,73 468,73 468,73 468,73 467,73 467,73 467,73 467,73 467,73 467,73 467,73 467,74 467,74 466,74 466,74 467,74 467,74 467,74 467,74 467,74 466,74 466,74 466,74 466,74 466,75 466,75 466,75 466,75 466,75 466,75 466,75 466,75 466,75 465,75 465,75 465,75 465,75 465,76 465,76 465,76 465,76 465,76 465,76 465,76 465,76 465,76 465,76 464,76 464,76 464,76 464,76 464,76 464,77 464,77 464,78 464,78 464,78 464,79 464,79 464,79 464,79 464,79 464,80 464,80 463,80 463,80 463,80 463,80 463,80 463,81 463,81 463,81 463,81 463,81 463,81 463,81 463,82 463,82 463,82 463,82 463,83 463,83 463,83 463,83 462,84 462,84 462,84 463,84 462,85 462,86 461,87 461,87 461,88 461,89 460,89 459,90 459,90 459,91 459,92 459,92 458,92 460,94 461,97 461,97 460,97 460,97 460,97 460,98 460,98 460,98 459,98 459,98 459,98 459,98 459,98 458,98 458,99 458,99 458,99 458,99 458,99 458,99 458,99 457,99 457,99 457,99 457,99 457,99 457,100 457,100 457,100 457,100 457,100 457,100 457,100 456,100 456,100 456,100 456,100 456,100 456,100 456,100 456,100 456,100 456,100 456,100 456,100 455,100 455,100 455,100 455,100 455,100 455,100 455,101 455,101 455,101 455,101 455,101 455,101 455,101 455,101 455,101 455,101 455,101 455,101 455,101 455,101 455,101 455,101 455,101 455,101 455,101 455,101 454,102 454,102 454,102 454,102 454,102 454,102 454,102 454,102 454,102 454,102 454,102 454,102 454,102 454,102 454,103 454,103 454,103 454,103 453,103 453,103 453,103 453,103 453,103 453,103 453,103 453,103 453,103 453,103 453,103 453,103 453,103 453,103 453,103 453,104 453,104 453,104 453,104 453,104 453,104 452,104 452,104 452,104 452,104 452,104 452,104 451,104 451,105 451,105 451,105 451,105 451,105 451,105 451,105 451,105 451,105 451,105 451,106 451,106 451,106 451,106 451,106 451,106 451,106 451,106 451,106 451,106 451,106 451,106 450,107 450,107 450,107 450,107 450,107 450,107 450,107 450,107 450,107 449,107 449,107 449,107 449,107 449,107 449,107 449,107 449,107 449,107 449,107 449,107 449,107 449,107 449,108 449,108 449,108 449,108 449,108 449,108 449,108 449,108 448,108 448,108 448,108 448,108 448,108 448,108 448,108 448,108 447,108 447,108 447,108 447,108 447,108 447,108 447,108 447,108 447,108 447,108 446,108 446,108 446,108 446,108 446,108 446,108 446,108 446,108 446,108 446,108 445,108 445,108 445,108 445,108 445,107 445,107 445,107 444,107 444,107 444,107 444,107 444,107 444,107 444,107 444,107 443,107 443,107 443,107 443,107 443,107 443,107 443,107 443,107 443,107 443,107 443,107 442,107 442,107 442,107 442,107 442,107 442,107 442,107 442,107 442,107 441,107 441,107 441,107 441,107 441,107 441,107 441,107 441,107 440,107 440,107 440,107 440,107 440,107 440,107 440,107 439,106 439,106 439,106 439,106 439,106 439,106 439,106 439,106 439,106 439,106 439,106 439,106 438,106 438,106 438,106 438,106 438,106 438,106 438,106 438,106 438,106 438,106 438,106 438,106 438,106 438,105 438,105 438,105 438,105 438,105 437,105 437,105 437,105 437,105 437,105 437,105 437,105 437,105 437,105 437,105 437,105 437,105 436,105 436,105 436,105 436,105 436,105 436,105 436,105 436,105 436,105 436,105 435,105 435,105 435,105 435,105 435,105 435,105 435,105 434,105 434,105 434,105 434,105 434,105 433,105 433,105 433,105 433,105 433,105 433,105 433,105 433,105 433,105 433,105 433,104 433,104 433,104 433,104 433,104 433,104 433,104 433,104 432,104 432,104 432,104 432,103 432,103 432,103 432,103 432,103 432,103 432,103 432,103 432,103 432,103 432,103 432,103 432,103 432,103 432,103 432,103 432,103 432,103 432,103 432,103 432,103 432,103 432,103 432,103 432,103 432,103 432,104 432,104 431,104 431,104 431,104 431,104 431,104 431,103 431,103 431,103 431,103 431,103 431,103 431,103 431,103 431,103 431,103 431,103 431,103 431,103 430,103 430,103 430,103 430,103 430,103 430,103 430,103 430,102 430,102 430,102 430,102 430,102 430,102 429,102 429,102 429,102 429,102 429,102 429,102 429,102 429,102 429,102 429,102 429,102 429,102 429,102 429,102 429,102 429,102 429,102 429,102 428,102 428,101 428,101 428,101 428,101 428,101 428,101 428,101 428,101 428,101 428,101 428,101 427,101 427,102 427,102 426,102 426,102 426,102 426,102 425,102 425,102 425,103 425,103 425,103 425,103 424,103 424,103 424,103 424,103 424,103 424,103 424,103 424,103 424,103 424,103 424,103 424,103 424,103 424,103 424,103 424,103 424,103 424,103 424,103 424,103 424,103 424,103 424,103 424,103 424,103 424,103 424,103 424,103 424,103 424,103 423,103 423,103 423,103 423,103 423,103 423,104 423,104 423,104 423,104 423,104 423,104 423,104 423,104 423,104 423,104 423,104 423,104 423,104 423,104 423,104 423,104 423,104 423,104 423,104 423,104 423,104 423,104 423,104 423,104 423,104 423,104 423,104 423,104 422,104 422,104 422,104 422,104 422,104 422,104 422,104 422,104 422,104 422,104 422,104 422,104 422,104 422,104 422,104 422,104 422,104 422,104 422,104 422,105 421,105 421,105 421,105 421,105 421,105 421,105 421,105 421,105 421,105 421,105 421,105 421,105 421,105 421,105 421,105 421,105 421,105 421,105 421,105 421,105 421,105 420,105 420,105 420,105 420,105 420,105 420,105 420,106 419,106 419,106 419,106 419,106 419,106 419,106 419,106 419,106 419,106 419,106 419,106 419,106 419,106 419,106 419,106 418,106 418,106 418,106 418,107 418,107 418,107 418,107 418,107 418,107 418,107 418,107 418,107 418,107 418,107 418,107 418,107 418,107 418,107 418,107 418,107 417,107 417,107 417,107 417,107 417,107 417,107 417,107 417,107 417,107 417,107 417,107 417,107 417,107 417,107 416,107 416,107 416,107 416,107 416,107 416,107 416,107 416,107 416,107 416,107 416,107 416,107 416,107 416,107 416,107 416,107 416,107 415,107 415,107 415,107 415,107 415,107 415,107 415,107 415,107 415,107 415,107 415,107 415,107 415,107 415,107 415,107 415,107 415,107 415,107 415,107 415,107 415,107 415,107 415,107 415,107 414,108 414,108 414,108 414,108 414,108 414,108 414,108 414,108 414,108 414,108 414,108 414,108 414,108 414,108 414,108 414,108 414,108 414,108 414,108 414,108 413,108 413,108 413,108 413,108 413,108 413,108 413,108 413,108 413,108 413,108 413,108 413,108 413,108 413,108 412,108 412,108 412,108 412,108 412,108 412,108 412,108 412,108 412,108 412,108 412,108 411,108 411,108 411,108 411,108 411,108 411,108 411,108 411,108 411,108 411,108 411,108 411,108 411,108 411,108 410,108 410,108 410,108 410,108 410,108 410,108 410,109 410,109 410,109 410,109 410,109 410,109 410,109 410,109 410,109 410,109 410,109 409,109 409,109 409,109 409,109 409,109 409,109 409,109 409,109 409,109 409,109 409,109 409,109 409,109 408,109 408,109 408,109 408,109 408,109 408,109 408,109 408,109 408,109 408,109 408,109 408,109 408,109 408,109 407,109 407,109 407,110 407,110 407,110 407,110 407,110 407,110 407,110 407,110 407,110 407,110 407,110 407,110 407,110 407,110 407,110 407,110 407,110 406,110 406,110 406,110 406,110 406,110 406,110 406,110 405,110 405,110 405,110 405,110 404,110 404,110 404,110 404,110 403,110 403,110 403,110 403,110 403,110 402,110 402,110 402,110 402,110 402,110 402,110 401,110 401,110 401,110 401,110 400,110 400,110 399,111 399,111 398,111 398,111 398,111 397,111 397,112 397,112 397,112 397,112 397,112 397,112 397,112 396,113 396,113 396,113 396,113 396,113 396,113 396,113 396,113 395,113 395,113 395,113 395,113 394,113 394,113 394,113 394,113 394,113 394,113 393,114 393,115 393,115 392,116 391,117 392,117 392,118 392,118 392,118 393,118 393,119 393,119 393,119 393,119 393,120 393,120 393,120 393,120 393,121 393,121 393,121 393,122 393,122 393,122 393,122 393,122 393,123 393,123 393,123 393,123 393,124 393,124 393,124 393,124 393,124 393,124 393,124 393,124 392,125 392,125 392,125 393,127 393,127 393,127 393,127 393,127 393,128 392,128 392,128 393,128 393,129 393,129 393,129 393,129 393,130 393,130 393,130 393,131 393,131 393,132 393,134 393,135 393,135 393,136 393,136 393,136 393,136 393,136 393,136 393,136 393,136 393,137 393,137 392,137 392,137 392,138 392,138 392,138 392,138 392,138 392,138 391,139 391,139 391,139 391,139 391,139 391,139 391,139 391,139 391,140 391,140 391,140 391,140 391,140 391,140 391,140 391,140 391,140 391,140 391,140 391,140 391,141 391,141 391,141 391,141 391,141 391,141 391,141 391,141 391,141 391,141 391,142 391,142 391,142 391,142 391,142 391,142 391,143 391,143 391,143 391,143 391,143 391,143 391,144 391,144 391,144 391,144 391,144 391,144 391,145 391,145 391,145 391,145 391,146 391,146 392,146 392,146 392,146 392,147 392,147 392,147 392,147 392,147 392,147 392,148 392,148 392,148 392,148 392,148 392,148 391,148 391,148 391,148 391,148 391,148 391,149 392,149 392,149 392,149 392,149 392,149 392,150 392,151 393,153 393,153 393,153 393,154 393,154 393,154 393,154 393,155 393,155 393,155 393,155 393,155 393,155 393,155 393,156 393,156 393,156 393,156 393,156 392,156 392,157 392,157 391,158 391,158 391,158 391,158 390,159 390,159 390,159 390,159 390,159 390,159 390,159 390,159 390,160 390,160 390,160 389,161 389,161 389,161 389,161 389,161 389,161 388,162 388,162 388,162 388,162 388,162 388,162 388,162 388,162 388,162 388,162 388,162 388,162 388,162 388,162 388,162 388,163 388,163 389,163 389,163 389,163 389,163 389,163 389,163 389,163 389,163 389,164 389,164 389,164 389,164 389,164 389,164 389,164 389,164 389,164 390,164 390,164 390,164 390,164 390,164 390,164 390,165 390,165 390,165 390,165 390,165 390,165 390,165 390,165 390,165 390,165 390,165 390,165 390,165 390,165 391,166 391,166 391,166 391,166 391,166 391,166 391,166 391,166 391,166 391,166 391,167 391,167 391,167 391,167 390,167 390,167 390,167 390,167 390,167 390,167 390,167 390,167 390,167 390,167 390,167 390,167 390,168 390,168 390,168 390,168 390,168 390,168 390,168 391,168 391,168 391,168 391,168 391,169 391,169 391,169 392,169 392,169 391,170 391,170 391,170 391,170 391,170 391,170 391,170 391,170 391,170 391,170 391,170 391,170 391,170 391,171 391,171 391,171 391,171 391,171 391,171 391,171 391,171 391,171 391,171 391,172 392,173 392,173 392,173 392,174 392,174 392,174 392,174 392,174 392,174 392,174 392,174 392,174 392,174 392,174 392,174 392,174 392,175 392,175 392,175 392,175 392,175 392,175 392,175 392,175 392,175 392,175 392,175 392,175 392,176 392,176 392,176 392,176 392,176 392,176 392,176 392,176 392,176 392,176 392,176 391,177 391,177 391,177 391,177 391,177 391,177 391,177 391,177 391,177 391,177 391,177 391,177 391,177 392,177 392,177 392,177 392,177 392,177 392,178 392,178 392,178 392,178 392,178 392,178 393,178 393,178 393,178 393,178 393,178 393,178 393,178 393,179 393,179 394,179 394,179 394,179 394,179 394,179 394,179 394,180 394,180 394,180 394,180 394,180 395,180 395,180 395,180 395,180 395,180 395,180 395,180 395,180 395,181 395,181 395,181 395,181 395,181 395,181 395,181 395,181 395,181 395,181 395,181 395,181 395,181 395,181 396,181 396,181 396,181 396,181 396,181 396,181 396,181 396,181 396,181 396,181 396,182 397,182 397,182 397,182 397,182 397,182 397,183 397,183 397,183 397,183 397,183 397,183 397,183 397,183 397,183 397,183 397,183 398,183 398,183 398,183 398,183 398,184 398,184 398,184 398,184 398,184 398,184 398,184 398,184 398,184 398,184 398,185 398,185 399,185 399,185 399,185 399,185 399,185 399,185 399,185 399,186 399,186 399,186 399,186 399,186 399,186 399,186 399,187 399,187 399,187 399,188 399,188 399,188 399,188 399,188 399,189 399,189 399,189 399,189 399,189 399,189 399,190 399,190 399,190 399,190 399,190 399,190 399,191 399,191 399,191 399,191 399,192 399,192 399,192 399,192 399,192 399,192 399,192 399,192 399,192 399,193 399,193 399,193 399,193 399,193 399,193 399,194 400,194 400,194 400,194 400,194 400,194 400,194 400,194 400,194 400,194 400,194 400,194 400,195 400,195 400,195 401,195 401,195 401,195 401,195 401,195 401,195 401,196 401,196 402,197 402,197 402,197 403,197 403,197 403,197 403,197 403,197 403,197 403,198 404,198 404,198 405,198 405,198 405,198 405,198 405,198 405,198 406,198 406,198 406,198 406,198 406,198 407,198 407,198 407,199 407,199 407,199 407,199 407,199 407,199 407,199 407,199 407,199 407,199 407,199 407,199 407,199 408,200 408,200 408,200 408,200 408,200 408,200 408,200 409,200 409,200 409,201 409,201 409,201 409,201 409,201 409,201 409,201 409,201 409,201 409,202 410,202 410,202 410,202 410,202 410,202 410,202 409,202 409,202 409,202 409,202 409,202 409,203 410,203 410,203 410,203 410,203 410,203 410,203 410,203 410,203 410,203 410,203 410,203 410,203 410,203 410,203 410,204 410,204 410,204 410,204 410,204 410,204 410,204 410,204 410,204 410,204 410,204 410,204 410,205 410,205 410,205 410,205 410,205 410,205 410,205 410,205 410,205 410,205 410,206 410,206 410,206 410,206 410,206 410,206 410,206 410,206 410,206 410,206 410,207 410,207 410,207 410,207 410,207 410,207 410,207 410,207 410,207 410,207 410,207 410,207 410,207 410,207 410,207 410,207 410,208 410,208 410,208 410,208 410,208 411,208 411,208 410,208 410,208 409,208 409,208 409,209 408,209 408,209 408,209 408,209 408,209 408,210 407,210 407,211 407,211 407,211 406,211 406,212 406,212 406,212 406,213 406,213 406,214 406,214 406,214 406,214 406,215 406,215 406,215 406,215 406,215 406,216 406,216 405,216 405,216 405,216 405,216 405,216 406,217 406,217 406,217 406,217 406,217 405,217 405,217 405,218 405,218 405,218 405,218 405,218 405,218 405,218 405,219 405,219 405,219 405,219 405,219 405,220 405,220 404,220 404,220 404,220 404,221 404,221 404,221 404,221 404,221 404,221 404,222 404,222 404,222 404,223 404,223 404,224 404,224 404,224 404,224 404,224 404,225 404,226 404,226 404,226 404,226 404,227 404,227 404,228 404,228 403,228 403,228 403,229 403,229 403,229 403,229 403,230 403,230 403,230 403,231 403,231 403,231 403,231 403,231 403,231 403,231 403,232 403,232 403,232 403,232 403,232 403,233 403,233 403,233 402,233 402,234 402,234 402,234 402,235 402,235 402,235 402,235 402,235 402,235 402,236 402,236 402,236 402,236 401,236 401,236 401,237 401,237 401,238 401,238 401,238 401,238 401,238 401,239 401,239 401,239 401,240 401,240 400,241 400,241 400,241 400,241 400,241 400,242 400,242 400,242 400,242 400,242 400,243 400,243 400,243 400,243 400,243 400,244 400,244 400,244 400,244 400,244 400,245 400,245 400,245 400,246 400,246 400,246 400,247 400,247 400,247 400,247 400,247 400,247 400,247 400,247 400,247 400,247 400,247 400,247 400,247 400,247 400,247 400,247 400,247 400,248 400,248 400,248 400,248 400,248 400,248 400,248 400,248 400,248 400,248 400,248 400,249 400,249 400,249 400,249 400,249 400,249 400,249 400,249 400,249 400,249 400,249 400,249 400,249 400,249 400,249 400,249 400,249 400,249 400,249 400,249 400,249 400,249 400,250 400,250 400,250 400,250 400,250 400,250 400,250 400,250 400,250 400,250 400,250 400,250 400,250 400,250 400,250 400,250 400,250 400,250 400,250 400,250 400,250 400,250 400,250 400,250 400,250 400,251 400,251 400,251 400,251 400,251 400,251 400,251 400,251 400,251 400,251 400,251 400,251 400,251 400,251 400,251 400,251 400,251 400,252 400,252 400,252 399,252 399,252 399,252 399,252 399,252 399,252 399,252 399,252 399,252 399,252 399,252 399,252 399,252 399,252 399,252 399,252 399,252 399,252 399,252 399,252 399,252 399,252 399,252 399,252 399,252 399,252 399,252 399,252 399,252 399,252 399,252 399,252 399,252 399,252 399,252 399,252 399,252 399,252 398,253 398,253 398,253 398,253 398,253 398,253 398,253 398,253 398,253 398,253 398,253 398,253 397,253 397,253 397,254 397,254 397,254 397,254 397,254 397,254 396,254 396,254 396,254 396,254 396,254 396,255 396,255 396,255 396,255 396,255 396,255 396,255 396,255 396,255 396,255 396,255 396,255 396,255 396,255 396,255 396,255 396,255 396,255 396,255 395,256 395,256 395,256 395,256 395,256 395,256 395,256 395,256 395,256 395,256 395,256 395,257 395,257 395,257 395,257 395,257 395,257 395,257 395,257 395,257 395,258 395,258 395,258 395,258 395,258 395,258 395,258 395,258 395,258 395,258 395,258 395,258 395,258 395,258 395,258 395,258 395,258 395,258 395,258 395,258 395,258 395,258 395,258 395,258 395,258 395,258 395,259 395,259 395,259 395,259 395,259 395,259 395,259 395,259 395,259 395,259 395,259 394,259 394,259 394,259 394,259 394,259 394,259 394,259 394,259 394,259 394,259 394,259 394,259 394,259 394,259 394,259 394,259 394,259 394,259 394,259 394,259 394,260 394,260 394,260 394,260 394,260 394,260 394,260 394,260 394,260 394,260 394,260 394,260 394,260 394,260 394,260 394,260 394,260 394,260 394,260 394,260 394,260 394,260 394,260 394,260 394,260 394,260 394,260 394,260 394,260 394,260 394,260 394,260 393,260 393,260 393,260 393,260 393,260 393,260 393,261 393,261 393,261 393,261 393,261 393,261 393,261 393,261 393,261 393,261 393,261 393,261 393,261 393,261 393,261 393,261 393,261 393,261 393,261 393,261 393,261 393,261 393,261 393,261 393,261 393,262 393,262 393,262 393,262 393,262 393,262 393,262 393,262 393,262 393,262 393,262 393,262 393,262 393,263 393,263 393,263 393,263 393,263 393,263 393,263 393,263 393,263 393,263 393,263 393,263 393,263 393,263 393,263 393,263 393,263 393,263 393,263 393,263 393,263 393,263 393,263 393,263 393,263 393,263 393,263 393,263 393,263 393,264 393,264 393,264 393,264 393,264 393,264 393,264 393,264 393,264 393,264 393,264 393,264 393,264 393,264 393,265 393,265 393,265 393,265 394,265 394,265 394,265 394,265 394,265 394,265 394,265 394,265 394,265 394,265 394,265 394,265 394,265 394,265 394,266 394,266 394,266 394,266 394,266 395,266 395,266 395,266 395,266 395,266 395,266 395,266 395,266 395,266 395,266 395,266 395,266 395,266 395,266 395,266 395,266 395,266 395,266 395,266 395,267 396,267 396,267 396,267 396,267 396,267 396,267 396,267 396,267 396,267 396,267 396,267 396,267 396,267 396,268 396,268 396,268 396,268 396,268 396,268 397,268 397,268 397,268 396,268 396,268 396,268 396,268 396,268 396,269 396,269 396,269 396,269 396,269 396,269 396,269 396,269 396,269 396,269 396,269 397,269 397,269 397,269 397,269 397,269 397,269 397,269 397,269 397,269 397,269 397,269 397,270 397,270 397,270 397,270 397,270 397,270 397,270 397,270 397,270 397,270 397,270 397,270 397,270 397,270 397,270 397,270 397,270 396,270 396,270 396,270 396,270 396,270 396,270 396,270 396,270 395,269 395,269 395,269 394,269 394,269 394,269 393,270 393,270 393,270 393,270 393,270 392,270 392,270 392,270 392,270 392,270 392,270 392,270 391,270 391,270 391,270 391,270 391,269 391,269 391,269 391,269 391,268 392,268 392,268 392,268 392,268 392,268 392,268 391,268 391,268 391,268 391,268 391,268 391,268 391,268 391,268 391,268 391,268 391,268 391,268 390,268 390,268 390,268 390,268 390,268 390,268 390,269 390,269 390,269 390,269 389,269 389,269 389,269 389,269 389,269 389,269 389,269 389,269 389,269 389,269 389,269 388,269 388,269 388,269 387,269 387,269 387,269 387,269 387,269 387,269 387,269 387,269 386,269 386,269 386,269 386,268 386,268 386,268 386,268 386,268 386,268 386,268 386,268 385,268 385,268 385,268 385,268 385,268 385,269 385,269 384,269 384,269 384,269 384,269 384,269 384,269 384,269 384,269 383,268 383,268 383,269 383,269 383,269 383,269 382,269 382,269 382,269 382,269 382,269 382,269 382,269 382,269 382,270 382,270 382,270 382,270 381,270 381,270 381,271 381,271 381,271 381,271 381,271 381,271 381,272 381,272 381,272 382,272 382,272 382,272 382,272 382,272 382,272 382,272 382,272 382,272 382,272 382,273 382,273 382,273 382,273 382,273 382,273 382,273 382,273 382,273 382,273 382,274 382,274 382,274 382,274 382,274 382,274 382,274 382,274 382,274 382,275 382,275 382,275 382,275 382,275 382,275 382,275 382,275 382,275 381,275 381,275 381,275 381,276 381,277 381,277 381,278 381,278 381,278 381,279 381,279 381,279 380,280 380,280 380,280 380,280 379,280 379,280 379,280 379,279 379,279 379,280 379,280 379,280 379,280 379,279 379,279 379,279 379,279 378,279 378,279 378,279 378,279 378,279 378,279 377,280 377,280 377,280 377,280 377,280 377,280 377,280 377,280 376,280 376,280 376,280 376,280 376,280 376,280 376,280 376,280 376,280 376,281 376,281 376,281 376,281 376,281 375,281 375,280 375,280 375,280 375,280 375,280 375,280 375,280 375,280 374,280 374,280 374,280 374,280 374,280 374,280 374,280 374,280 374,280 373,280 373,280 373,280 373,280 373,280 373,280 373,280 373,280 373,280 373,280 373,280 372,280 372,280 372,280 371,280 371,280 371,280 371,280 371,280 371,280 371,280 371,280 370,280 370,280 370,280 370,280 370,280 370,280 370,280 370,280 370,280 370,280 370,280 369,280 369,280 369,280 369,280 369,280 369,280 369,280 369,280 369,280 369,280 369,280 369,280 369,280 369,280 368,280 368,280 368,280 368,280 367,280 367,280 367,280 366,280 366,280 366,280 366,280 366,280 366,280 366,280 365,280 365,280 365,280 365,280 365,280 365,280 365,280 365,280 365,280 365,280 365,280 365,280 364,280 364,280 364,280 364,280 364,280 364,280 364,280 364,280 364,280 364,280 364,280 364,280 364,280 364,280 364,280 364,280 364,280 364,280 364,280 364,280 364,280 363,280 363,280 363,280 363,280 363,280 363,280 363,280 363,280 363,280 363,280 363,280 363,280 363,280 363,280 363,280 363,280 363,280 362,280 362,280 362,280 362,280 362,280 362,280 362,280 362,280 362,280 362,280 362,280 362,280 362,280 362,280 362,280 362,280 362,280 362,280 362,280 362,280 361,280 361,280 361,280 361,280 361,280 361,280 361,280 361,280 361,280 361,280 361,280 361,280 361,280 361,280 361,280 361,280 360,280 360,280 360,280 360,280 360,280 360,280 360,280 360,280 360,280 360,280 360,280 360,280 360,280 360,280 360,280 360,280 360,280 360,280 360,280 360,280 360,280 360,280 360,280 360,280 360,281 359,281 359,281 359,280 359,280 359,280 359,280 359,280 359,280 359,280 359,280 359,280 359,280 359,280 359,280 359,280 359,280 359,280 358,280 358,280 358,280 358,280 358,280 358,280 358,280 358,280 358,280 358,280 358,281 358,281 358,281 358,281 357,281 357,281 357,281 357,281 357,281 357,281 357,281 357,281 357,281 357,281 357,281 357,281 357,281 357,281 357,281 356,281 356,281 356,281 356,281 356,281 356,281 355,282 355,282 355,282 355,282 355,282 355,282 355,282 355,282 355,282 354,282 354,282 354,282 354,282 354,282 354,282 354,282 354,282 354,282 354,282 354,282 354,282 354,282 354,282 354,282 354,282 354,282 353,282 353,282 353,282 354,282 354,283 354,283 354,283 354,283 354,283 354,283 354,283 354,283 354,283 353,283 353,283 353,284 353,284 353,284 353,284 353,284 353,284 353,284 353,284 353,284 353,284 352,285 352,285 352,285 352,285 352,285 352,285 352,285 352,285 352,285 352,285 351,285 351,285 351,285 351,285 351,285 351,285 351,285 351,285 351,285 351,285 351,285 350,286 350,286 350,286 350,286 350,286 350,286 350,286 350,287 350,287 350,287 350,287 350,287 350,287 350,287 350,287 350,287 350,287 350,287 350,287 349,287 349,287 349,287 349,287 349,287 349,287 349,287 349,287 349,288 349,288 349,288 349,288 349,288 349,288 349,288 349,288 349,288 349,288 349,289 349,289 349,289 349,289 349,289 349,289 349,289 349,289 349,289 349,289 349,289 349,289 349,289 349,289 349,290 349,290 348,290 348,290 348,290 348,290 348,290 348,290 347,290 347,290 347,290 347,290 347,290 347,290 347,290 347,290 347,290 347,291 347,291 347,291 347,291 347,291 347,291 347,291 347,291 347,291 347,291 347,291 347,291 346,291 346,292 346,292 346,292 346,292 346,292 346,292 346,292 346,292 346,292 346,292 345,292 345,293 345,293 345,293 345,293 345,293 345,293 345,293 345,293 345,293 345,294 345,294 345,294 345,294 345,294 344,294 344,294 344,294 344,293 344,293 344,293 344,293 343,293 343,293 343,293 343,293 343,293 343,293 343,293 343,293 342,293 342,293 342,293 342,294 342,294 342,294 342,294 342,294 342,294 341,294 341,294 341,294 341,294 341,294 341,294 341,294 341,294 341,294 341,294 341,294 341,294 341,294 341,294 341,295 341,295 341,295 341,295 341,295 341,295 340,295 340,295 340,295 340,295 340,295 340,295 340,296 340,296 339,296 339,296 339,296 339,296 339,296 339,296 338,296 338,296 338,296 338,296 337,295 337,295 337,295 336,295 336,295 336,295 336,294 336,294 336,294 336,294 335,294 335,294 335,294 335,294 334,294 333,293 333,293 333,293 333,293 333,293 332,293 332,293 332,292 332,292 332,292 332,292 331,292 331,292 331,292 331,292 331,293 331,293 331,293 330,293 330,293 330,293 330,293 330,293 329,293 329,293 329,293 329,293 329,293 328,293 328,293 328,293 327,293 327,293 327,293 326,293 326,293 326,293 326,293 326,293 325,293 325,293 325,293 325,293 325,293 325,293 325,293 324,292 324,292 323,292 323,292 323,291 322,291 322,291 322,290 322,290 322,290 321,290 321,289 320,289 319,289 319,289 318,288 318,288 317,288 317,287 317,287 316,287 315,286 314,286 313,286 313,285 313,285 313,285 313,285 313,284 313,284 312,283 312,283 312,283 312,283 312,283 312,283 312,283 312,283 312,282 312,282 313,282 313,282 313,282 313,282 313,282 313,282 314,281 314,281 314,281 314,281 314,281 315,281 315,281 315,281 315,280 315,280 315,280 315,280 315,280 315,280 315,280 315,280 315,280 315,280 316,280 316,280 316,280 316,280 316,280 316,280 316,280 316,280 316,279 316,279 316,279 316,279 316,279 316,279 316,279 316,279 316,279 316,279 316,279 316,279 316,279 317,278 317,278 317,278 317,278 317,278 317,278 317,278 317,278 317,278 317,278 317,278 317,278 317,278 317,277 317,277 317,277 316,277 316,277 316,277 316,277 316,277 316,277 316,277 316,277 316,277 316,277 316,276 316,276 316,276 315,276 315,276 315,276 315,276 315,276 315,276 315,275 315,275 315,275 314,275 314,275 314,275 314,275 314,275 314,275 314,275 314,275 314,275 314,275 314,275 314,275 314,275 314,275 314,275 314,275 313,275 313,275 313,275 313,275 313,275 313,275 313,275 313,275 313,275 313,275 313,275 313,275 313,275 312,275 312,275 312,275 312,275 312,275 312,275 312,275 312,275 312,275 312,275 312,275 311,275 311,275 311,275 311,275 311,275 311,275 311,275 311,275 311,275 311,275 311,275 311,275 311,275 310,274 310,274 310,274 310,274 310,274 310,274 310,274 310,274 310,274 310,274 310,274 310,274 310,274 310,274 310,274 310,274 310,274 310,274 310,274 310,274 310,274 310,274 310,274 310,274 310,273 310,273 310,273 310,273 310,273 310,273 310,273 310,273 310,273 310,273 310,273 310,273 310,273 310,273 310,273 310,273 310,273 310,273 309,273 309,273 309,272 309,272 309,272 309,272 309,272 309,272 309,272 309,272 309,272 309,272 309,272 309,272 309,272 309,272 309,272 309,272 309,272 309,272 309,272 309,272 309,272 309,272 309,272 309,272 309,272 309,272 309,272 308,271 308,271 308,271 308,271 308,271 308,271 308,271 308,271 308,271 308,271 308,271 308,271 308,271 308,271 308,271 308,271 308,271 308,271 308,271 308,271 308,271 308,271 308,271 308,271 308,271 308,271 308,270 308,269 308,269 308,269 308,269 308,269 308,269 308,269 308,269 308,269 308,269 308,269 308,269 308,269 308,269 308,269 308,269 308,269 308,269 308,269 308,269 308,269 308,269 308,268 308,268 308,268 308,268 308,268 308,268 308,268 309,268 309,268 309,268 309,268 309,268 309,268 308,268 308,268 308,268 308,268 308,268 308,268 309,268 309,268 309,267 309,267 309,267 309,267 309,267 309,267 309,267 308,267 308,267 308,267 308,267 308,267 308,267 308,267 308,267 308,267 308,267 308,267 308,267 308,267 308,267 309,267 309,267 309,267 309,267 309,267 308,267 308,266 308,266 308,266 308,266 308,266 308,266 309,266 309,266 309,266 309,266 309,266 309,266 309,266 309,266 309,266 309,266 309,266 309,266 309,266 309,266 309,266 309,266 309,266 309,266 309,266 309,266 309,266 309,266 309,266 309,266 309,265 309,265 309,265 309,265 309,265 308,265 308,265 308,265 308,265 308,265 308,265 308,265 308,264 308,264 308,264 308,264 308,264 308,264 308,264 308,264 308,264 308,264 308,264 308,264 308,264 308,264 308,264 308,264 308,263 308,263 308,263 308,263 308,263 308,263 308,263 308,263 308,263 308,263 308,263 308,263 309,263 309,263 309,263 309,263 309,263 309,262 309,262 309,262 309,262 309,262 309,262 309,262 309,262 309,262 310,262 310,261 310,261 310,261 310,261 310,261 310,261 311,260 311,260 311,260 311,260 311,260 311,260 311,259 311,259 311,259 311,259 311,259 312,258 312,258 312,258 312,258 312,258 312,257 312,257 312,257 312,257 312,257 312,257 312,257 312,256 312,256 313,256 313,256 313,256 313,256 313,256 313,256 314,256 314,256 314,256 314,256 314,256 314,256 314,256 314,256 315,256 315,256 315,256 315,256 315,256 316,255 316,255 316,255 316,255 316,255 316,255 316,255 316,255 316,255 316,255 316,255 316,255 316,254 316,254 316,254 316,254 316,253 316,253 316,253 316,253 316,253 316,253 316,253 316,253 316,253 316,253 316,253 316,253 316,253 316,253 316,253 316,252 316,252 316,252 316,252 316,252 316,252 316,252 315,252 315,252 315,252 315,252 315,252 315,252 315,252 315,252 315,252 315,252 315,252 315,252 314,252 314,252 314,252 314,252 314,252 314,252 314,252 314,252 314,252 313,251 313,251 313,251 313,251 313,251 313,251 313,251 313,251 313,251 313,251 313,251 313,251 313,250 312,250 312,250 312,250 312,250 312,250 312,250 312,250 312,250 312,250 312,250 312,249 312,249 312,249 312,249 312,249 312,249 312,249 312,249 312,249 312,249 312,249 312,249 312,249 312,249 312,249 312,249 311,249 311,249 311,248 311,248 311,248 311,248 311,248 311,248 311,248 311,248 311,248 311,248 311,248 311,248 310,248 310,248 310,248 310,248 310,248 310,247 310,247 310,247 310,247 310,247 310,247 310,247 310,247 310,247 310,247 309,247 309,246 308,246 308,246 308,246 308,246 308,246 308,246 308,246 308,246 308,246 308,246 308,246 308,246 308,246 308,246 308,246 308,245 308,245 308,245 308,245 308,245 308,245 308,245 308,245 308,245 308,245 308,245 308,245 308,245 308,245 308,245 307,245 307,245 307,245 307,245 307,245 307,245 307,245 306,245 306,245 306,244 306,244 306,244 306,244 306,244 306,244 306,244 306,244 306,244 306,244 306,244 306,244 306,244 306,244 306,244 306,244 306,244 306,244 306,244 306,244 306,244 306,244 306,243 306,243 306,243 306,243 306,243 307,243 307,243 307,243 307,243 307,243 307,243 307,243 307,243 307,243 307,243 307,243 307,243 307,243 307,243 307,243 307,243 307,243 307,243 306,243 306,243 306,243 306,243 306,243 306,243 306,243 306,243 306,243 306,242 306,242 306,242 306,242 306,242 306,242 306,242 306,242 306,242 306,242 305,242 305,242 305,242 305,242 305,242 305,242 305,242 304,242 304,242 304,242 304,242 304,242 304,242 304,242 304,242 303,242 303,242 303,242 303,242 303,242 303,242 303,242 303,242 303,243 303,243 303,243 303,243 303,243 303,243 303,243 303,243 303,243 302,243 302,243 302,243 302,243 302,243 302,243 302,243 302,243 302,242 302,242 301,242 301,242 301,242 301,242 301,242 301,242 301,242 301,242 301,242 301,242 301,242 300,242 300,242 300,242 300,242 300,242 300,242 300,242 300,242 300,242 300,242 300,242 300,242 300,242 300,242 300,242 300,242 299,243 299,243 299,243 299,243 299,243 299,243 299,243 299,243 299,243 299,243 299,243 299,243 299,243 299,243 299,243 299,243 299,243 299,243 299,243 299,243 298,243 298,243 298,243 298,243 298,243 298,243 298,243 298,243 298,243 298,243 298,243 297,243 297,243 297,243 297,243 297,243 297,243 296,243 296,243 296,243 296,243 296,243 296,243 296,243 296,243 295,243 295,243 295,244 295,244 295,244 295,244 295,244 295,244 295,243 295,243 295,243 295,243 294,243 294,244 294,244 294,244 294,244 294,244 293,244 293,244 293,244 293,244 293,244 293,244 292,244 292,244 292,244 292,244 292,244 292,244 291,244 291,244 291,244 291,244 291,244 291,244 291,244 291,244 291,244 291,244 292,244 292,244 292,244 292,244 292,244 292,244 292,244 292,244 292,244 292,244 292,244 292,244 292,244 292,245 292,245 292,245 292,245 292,245 292,245 292,245 292,245 292,245 292,245 292,245 292,245 292,246 292,246 292,246 292,246 292,246 291,246 291,246 290,246 289,245 289,245 288,245 287,245 286,244 286,244 285,244 285,244 284,243 284,243 284,243 284,242 284,242 284,241 283,241 283,240 282,240 282,240 281,240 281,239 281,239 280,239 279,239 279,239 278,239 278,238 277,238 277,238 277,237 277,237 277,237 278,237 278,237 278,237 278,237 278,237 278,237 278,237 278,237 278,236 278,236 278,236 278,236 278,236 278,236 278,236 278,236 278,236 278,236 278,236 278,236 278,236 278,236 278,236 278,236 278,236 278,236 278,236 278,236 278,235 278,235 278,235 278,235 278,235 278,235 279,235 279,235 279,234 279,234 279,234 279,234 279,234 279,234 279,234 279,234 279,234 279,234 279,233 279,233 279,233 279,233 279,233 279,233 279,233 279,233 279,233 279,233 279,232 279,232 279,232 279,232 278,232 278,232 278,232 278,232 278,232 278,232 278,232 278,232 278,231 278,231 278,231 278,231 278,231 278,231 278,231 278,231 278,231 278,231 278,231 278,231 278,231 278,231 278,231 278,231 278,231 278,231 278,230 278,230 278,230 278,230 278,230 278,230 278,230 278,230 278,230 278,230 278,230 278,230 278,230 278,230 278,230 278,230 278,230 278,230 278,230 278,230 278,229 279,229 279,229 279,229 279,229 279,229 279,229 279,229 279,229 279,229 279,228 279,228 279,228 279,228 279,228 279,228 279,228 279,228 279,228 279,228 279,228 279,227 279,227 279,227 279,227 279,227 279,227 279,227 279,227 279,227 279,227 280,227 280,226 280,226 280,226 280,226 280,226 280,226 280,226 280,226 280,226 280,226 280,225 280,225 280,225 280,225 280,225 281,225 281,225 281,225 281,224 281,224 281,224 281,224 281,224 281,224 281,224 281,224 281,224 281,224 281,224 281,224 281,223 281,223 281,223 281,223 281,223 281,223 281,223 281,223 281,223 281,223 281,222 281,222 281,222 282,222 282,222 282,222 282,222 282,222 281,221 282,221 282,221 282,221 282,221 282,221 282,220 282,220 282,220 282,220 282,220 282,220 282,220 281,220 281,220 281,220 281,220 281,219 281,219 281,219 281,219 281,219 281,219 281,219 281,219 281,219 281,219 281,218 281,218 281,218 281,218 281,218 281,218 281,218 281,218 281,218 282,218 282,218 282,217 282,217 282,217 282,217 282,217 282,217 282,217 282,217 282,217 282,217 282,217 282,216 282,216 282,216 282,216 282,216 282,216 282,216 282,216 282,216 282,216 282,216 282,216 282,216 282,216 282,216 282,215 282,215 282,215 283,214 283,214 282,214 282,214 282,214 282,214 282,214 282,214 282,214 282,214 282,214 282,214 282,214 282,214 282,214 282,214 282,214 282,215 282,214 282,214 281,214 281,214 281,214 281,214 281,214 281,214 281,214 281,214 281,214 281,214 281,214 281,214 281,214 281,214 281,214 281,214 281,214 281,214 281,214 281,214 281,214 281,214 281,214 281,214 281,214 281,214 281,214 280,214 280,214 280,214 280,214 280,214 280,215 280,215 280,215 280,214 280,214 280,215 280,215 280,215 280,215 280,215 280,215 280,215 280,215 280,215 280,215 280,215 280,215 280,215 280,215 280,215 280,215 280,215 280,215 280,215 280,215 280,215 280,215 280,215 280,215 280,215 280,215 280,215 280,216 280,216 280,216 280,216 280,216 280,216 280,216 280,216 280,216 280,216 279,216 279,216 279,216 279,216 279,216 279,217 279,217 279,217 279,217 279,217 279,217 279,217 279,217 278,217 278,217 278,217 278,217 278,217 277,217 277,217 277,217 277,217 277,217 277,217 277,217 277,217 276,217 276,217 276,217 276,217 276,217 275,217 275,217 275,217 275,217 275,217 275,218 275,218 274,218 274,218 274,218 274,218 274,218 274,218 274,218 274,218 274,218 274,218 274,218 274,218 274,218 274,218 274,218 274,218 274,218 274,218 274,218 274,217 273,218 273,218 273,217 273,217 273,218 273,218 273,218 273,218 273,217 273,217 273,217 273,217 273,217 273,217 273,217 273,217 273,217 273,217 273,217 273,217 272,217 273,217 272,217 272,217 272,217 272,217 272,217 272,218 272,218 272,218 272,218 272,218 272,218 271,218 271,218 271,218 271,218 271,218 271,218 271,218 271,218 271,218 271,218 271,218 271,218 271,218 271,218 270,218 270,218 270,218 270,218 270,218 270,218 270,218 270,218 270,218 270,218 270,218 269,218 269,218 269,218 269,218 269,218 269,218 269,218 269,218 269,218 269,217 269,217 268,217 268,217 268,217 268,217 268,217 268,217 267,217 267,217 267,217 267,217 267,217 267,217 267,217 267,217 266,217 266,217 266,217 266,217 266,217 266,217 266,217 266,217 265,217 265,217 265,217 265,217 265,217 265,217 265,217 265,217 265,217 265,217 265,217 265,217 265,217 265,217 265,217 264,217 264,216 264,216 264,216 264,216 264,216 264,216 264,216 264,216 264,216 264,216 264,216 264,216 264,215 264,215 264,215 264,215 264,215 264,215 264,215 264,215 264,215 264,214 264,214 264,214 264,214 264,214 264,214 264,214 264,214 264,214 264,214 264,214 264,214 264,214 264,214 264,213 264,213 264,213 264,213 264,213 264,213 264,213 265,213 265,213 265,213 265,213 265,213 265,213 265,213 265,213 265,213 265,213 265,213 265,212 265,212 265,212 265,212 265,212 265,212 265,212 265,211 265,211 265,211 265,211 265,211 265,211 265,211 265,211 265,211 265,211 266,210 266,210 266,210 266,210 266,210 266,210 266,210 266,210 266,210 265,210 265,209 265,210 265,210 265,209 265,209 265,209 265,209 265,209 265,209 264,209 264,209 264,209 264,209 264,209 264,209 264,209 263,209 263,209 263,209 263,209 263,209 263,209 263,209 263,209 263,209 263,209 263,209 262,209 262,209 262,209 262,209 262,209 262,209 262,209 262,208 262,208 262,208 262,208 262,208 262,208 262,208 262,208 262,208 262,208 262,208 262,208 262,207 262,207 262,207 262,207 262,207 262,207 262,207 262,207 262,207 261,207 261,207 260,207 260,207 260,207 259,207 259,207 259,207 259,207 259,207 258,207 258,207 258,207 258,207 258,207 258,207 257,207 257,207 257,207 257,207 257,207 256,207 256,207 256,207 255,207 254,207 254,207 254,207 254,207 253,207 253,207 252,206 252,206 252,206 253,206 253,206 253,205 253,205 253,205 253,205 252,205 252,205 252,205 252,205 252,204 252,204 252,204 252,204 252,204 252,204 252,204 252,204 251,203 251,203 251,203 251,203 251,203 251,203 251,203 251,203 251,202 250,202 250,202 250,202 250,202 250,202 250,202 250,202 250,202 250,202 250,202 250,202 250,202 250,202 250,202 250,201 250,201 250,201 250,201 250,201 250,201 250,201 250,201 250,201 250,201 250,201 250,201 250,200 249,200 249,200 249,200 249,200 249,200 249,200 249,199 249,199 249,199 249,199 249,199 249,199 248,199 248,199 248,199 248,199 248,199 248,199 248,199 248,199 247,199 247,198 247,198 247,198 247,198 247,198 247,198 247,198 247,198 247,198 247,198 246,197 246,197 246,197 246,197 246,197 246,197 245,197 245,197 245,197 245,197 244,197 244,197 244,197 244,197 244,197 244,197 244,197 244,197 244,197 244,197 243,197 243,197 243,197 243,197 243,197 243,197 243,197 243,197 243,197 243,197 242,197 242,197 242,197 242,196 242,196 242,196 242,196 241,196 241,196 241,196 241,196 241,196 241,196 241,196 240,196 240,196 240,196 240,196 240,196 239,196 239,196 239,197 239,197 239,197 238,197 238,197 238,197 238,197 238,197 238,197 238,198 238,198 238,198 238,198 238,198 238,199 238,199 238,199 238,199 238,199 237,199 237,199 237,199 237,199 236,199 236,199 236,199 236,199 236,198 235,198 235,198 234,198 234,198 234,198 233,198 233,198 233,198 232,198 232,198 232,198 231,198 231,198 231,198 230,198 230,198 230,198 230,198 229,198 229,198 229,198 228,198 227,198 227,198 227,198 227,198 226,198 226,198 225,199 225,199 224,199 224,199 224,199 224,199 223,199 223,199 223,199 223,200 222,200 221,200 221,200 221,200 220,201 220,201 220,201 220,201 219,201 219,201 219,201 218,201 218,201 217,202 216,202 216,202 215,202 215,202 215,202 214,202 214,202 214,203 214,203 214,203 214,203 214,203 213,203 213,204 213,204 213,204 213,204 213,205 213,205 213,205 213,205 213,206 213,206 213,206 212,207 212,207 212,207 211,208 211,208 210,208 209,208 209,208 209,209 208,209 208,209 208,209 207,209 207,209 207,209 206,210 206,210 205,210 205,210 204,210 204,210 203,211 202,211 202,211 201,212 200,212 200,212 200,212 199,213 199,213 199,213 198,213 197,213 198,213 198,213 198,214 197,215 197,216 198,216 198,217 198,217 198,217 198,217 198,217 198,217 198,217 198,217 197,218 197,218 197,218 196,218 196,219 195,219 195,219 195,219 195,219 195,220 195,220 195,220 195,220 194,221 194,221 193,221 193,221 193,221 192,222 192,222 192,222 192,223 191,224 191,224 191,224 191,225 191,225 191,225 191,226 190,226 190,227 189,226 183,222 183,222 183,221 181,223 181,223 180,223 180,223 180,223 180,223 180,223 178,225 178,225 178,225 178,225 177,226 177,226 176,227 175,227 174,229 173,230 173,230 172,231 170,232 168,232 167,231 166,231 165,231 161,232 161,232 157,234 157,234 156,234 156,234 154,235 152,236 152,237 152,237 152,237 150,238 150,238 148,239 148,240 148,240 148,241 147,241 147,242 147,243 147,244 147,245 147,245 146,246 146,246 146,246 146,246 146,247 146,247 146,247 146,248 146,249 146,249 145,249 145,249 144,251 142,251 141,251 140,251 139,251 139,252 138,253 137,253 136,253 136,254 136,254 136,255 136,256 137,256 137,257 136,257 136,258 135,258 134,259 134,259 133,261 132,262 130,263 130,264 129,264 128,265 127,265 127,265 127,266 127,267 127,267 126,268 125,269 125,270 124,270 123,270 121,271 121,271 121,272 120,272 119,273 119,274 119,274 118,274 117,275 117,275 117,276 117,277 116,278 116,278 115,279 115,279 115,279 115,280 114,280 114,280 113,281 111,281 110,282 110,282 109,282 109,282 108,282 108,282 107,282 107,282 106,282 106,282 105,282 104,282 104,282 103,283 103,282 100,282 99,282 94,281 94,280 93,280 93,280 92,280 93,279 92,279 91,279 91,278 90,278 89,277 89,277 89,276 89,276 89,276 89,275 89,274 88,274 88,274 87,273 86,272 86,272 85,272 85,272 85,272 84,272 84,272 84,272 83,272 83,272 83,273 83,273 83,273 82,273 82,273 82,273 82,273 82,273 82,273 82,273 82,273 82,273 82,273 82,273 81,273 81,273 81,272 81,272 81,272 81,272 81,273 81,273 81,273 81,273 81,273 81,273 81,273 81,273 80,273 80,273 80,273 80,273 80,273 80,273 80,273 80,273 80,273 80,273 79,273 79,273 79,273 79,273 79,273 78,273 78,273 78,273 77,273 77,273 76,273 75,273 75,273 74,272 74,272 74,272 74,272 74,272 73,272 73,272 73,272 73,272 73,272 73,272 73,272 73,272 73,272 73,272 73,272 73,272 73,272 73,272 73,272 72,271 72,271 72,271 72,271 72,271 72,271 72,271 71,271 71,271 71,271 71,271 71,270 71,270 71,270 71,270 71,270 71,270 71,270 71,270 71,270 70,270 70,270 70,270 70,270 69,269 69,269 69,269 69,269 69,269 69,269 69,269 69,269 69,269 68,269 68,269 68,269 68,269 68,269 67,269 67,269 67,269 66,269 66,269 66,269 66,269 66,269 66,269 65,269 65,269 65,269 65,269 65,269 65,269 65,270 64,270 64,270 64,270 64,270 64,270 64,270 64,270 64,270 63,270 63,270 63,270 63,270 62,270 62,270 62,270 62,270 62,270 61,271 61,271 61,271 61,271 61,271 60,271 60,271 60,271 59,271 59,271 59,271 59,271 57,269 56,268 55,268 55,269 54,269 53,269 53,270 52,270 50,270 50,270 49,271 49,271 49,271 48,271 48,271 47,271 47,271 47,271 46,271 46,271 46,270 44,271 44,271 43,271 42,271 42,272 41,271 40,271 40,271 39,270 39,270 38,270 38,269 38,269 38,269 38,269 38,269 38,269 38,269 37,268 37,268 36,267 36,267 35,267 35,267 35,267 34,266 34,266 33,266 33,266 33,265 33,265 33,265 32,265 32,265 32,265 32,265 32,264 31,264 31,264 30,264 30,264 30,263 29,263 29,263 29,263 29,263 29,262 29,262 29,262 29,262 29,262 28,262 28,262 28,261 28,261 28,261 27,261 27,261 27,260 27,260 27,260 26,260 26,260 25,260 25,260 25,260 25,259 25,259 24,259 24,259 24,259 23,258 23,258 23,258 22,258 22,257 22,257 22,257 22,257 22,257 21,257 21,256 22,256 22,256 22,256 22,256 22,256 22,255 22,255 22,255 22,254 22,254 22,254 22,253 22,253 23,253 23,252 23,252 23,252 23,252 23,251 24,250 24,250 24,250 24,249 24,249 24,249 25,248 25,248 25,247 25,247 25,247 25,247 25,246 25,246 25,246 24,245 23,245 23,245 22,245 22,244 22,244 21,244 21,244 21,244 21,244 20,243 20,243 19,242 19,242 18,241 18,241 18,241 18,241 18,240 18,240 18,240 18,240 18,239 18,239 18,239 18,239 18,239 18,239 17,239 17,239 17,238 17,238 16,238 15,238 15,238 15,238 14,237 14,237 13,237 13,237 13,237 13,237 12,236 12,236 12,236 12,236 12,236 12,236 12,236 11,236 11,236 10,236 10,236 10,236 10,236 10,236 9,236 9,236 9,236 9,236 8,236 8,236 8,236 7,236 7,236 6,236 6,236 5,236 5,236 5,235 5,235 5,235 5,235 5,235 4,235 4,234 4,234 4,234 3,234 3,234 3,233 3,233 2,233 2,233 2,233 2,233 2,233 2,233 2,232 2,232 2,232 2,232 2,232 2,232 2,232 2,232 2,232 2,232 2,231 2,231 2,231 2,231 2,231 2,231 2,230 2,230 2,230 3,230 3,230 3,229 3,229 3,229 3,229 2,229 2,229 3,228 3,228 3,228 3,228 3,228 3,228 4,227 4,227 4,227 4,227 4,227 4,227 4,227 4,226 4,226 4,226 4,225 4,225 4,225 4,224 4,224 4,224 4,223 4,223 4,223 4,223 4,223 4,222 4,222 4,222 4,222 4,222 4,222 4,222 4,222 4,222 4,221 4,221 4,221 3,221 3,221 3,221 3,221 3,221 3,221 3,221 2,220 2,220 2,220 2,220 2,220 2,220 2,220 2,220 2,220 2,220 2,220 2,219 3,219 3,219 3,219 3,219 3,219 3,218 3,218 3,218 3,218 3,218 3,218 3,217 3,217 4,217 4,217 4,217 4,217 4,216 4,216 4,216 4,216 5,216 5,216 5,216 5,216 5,216 5,216 5,216 5,216 5,215 5,215 5,215 5,215 4,214 4,214 4,214 4,214 4,214 4,214 4,214 4,213 4,213 4,213 4,213 3,213 3,213 3,213 3,213 3,213 3,213 3,213 3,213 3,212 3,212 3,212 3,212 3,212 3,211 3,211 3,211 3,211 3,211 3,211 3,211 3,211 3,211 3,211 3,210 4,210 4,210 4,210 4,209 4,209 4,209 4,209 4,209 4,208 4,208 4,208 4,208 4,208 3,208 3,208 3,208 3,208 3,208 2,208 2,207 2,207 2,207 2,207 1,207 1,207 1,207 1,207 0,207 0,207" id="02B14" class="canton" fill="steelblue" stroke-width="1" stroke="white" geotype="canton" geoname="Golo-Morosaglia" code_insee="02B14" code_departement="2B" nom_departement="Haute-Corse" code_region="94" nom_region="Corse"/></svg>