<?xml version="1.0" encoding="utf-8"?>
<svg version="1.1" id="svgmap" xmlns="http://www.w3.org/2000/svg" xmlns:xlink="http://www.w3.org/1999/xlink" x="0px" y="0px" width="100%" height="100%" viewBox="0 0 500 333">
<polygon points="86,0 88,4 90,5 93,8 92,12 92,13 95,14 98,15 99,14 102,13 103,12 104,7 105,7 106,7 106,7 108,8 109,10 111,11 111,12 114,14 114,16 116,19 116,22 113,25 111,26 110,27 107,29 106,29 102,29 93,28 91,28 90,29 90,30 95,31 95,31 96,31 95,36 95,36 95,37 94,37 94,38 95,38 96,38 97,38 98,37 99,37 100,37 100,36 101,35 112,37 113,37 119,37 124,37 136,39 144,40 149,40 158,41 161,41 163,42 164,42 166,42 170,43 186,45 188,45 197,45 205,45 215,46 226,47 227,48 229,48 234,48 239,49 241,49 245,50 253,51 260,52 268,52 276,53 277,53 281,54 281,54 282,56 283,56 282,58 282,59 281,63 279,67 276,71 273,75 269,78 265,81 257,85 255,86 252,88 248,90 240,93 237,94 234,96 233,96 234,100 235,100 238,104 242,108 245,111 246,112 253,118 255,120 255,121 256,121 257,122 257,123 260,127 267,133 267,133 267,133 275,141 323,115 346,104 396,81 401,78 415,72 426,67 464,71 470,85 500,117 495,137 492,141 484,152 486,155 463,161 455,161 451,163 444,165 441,168 437,172 438,180 438,183 436,184 428,194 422,197 416,199 409,199 385,211 365,225 364,231 360,233 334,249 308,262 293,273 287,280 281,288 280,292 278,297 268,308 256,317 242,324 222,332 203,333 180,320 179,320 177,317 174,314 172,311 165,296 157,279 156,277 155,277 154,277 153,276 152,275 147,272 142,269 139,267 134,263 131,260 128,257 125,254 122,251 121,250 121,249 121,248 121,248 118,244 117,244 117,244 116,243 115,242 114,241 114,241 109,236 107,233 105,231 102,228 96,223 94,221 97,220 141,204 167,194 167,194 166,192 161,185 160,184 157,181 156,180 155,179 152,177 149,175 148,174 147,174 146,174 146,174 146,173 137,167 126,161 125,160 114,165 106,168 102,161 100,159 99,158 97,156 92,151 86,147 85,145 82,145 80,144 75,143 70,141 69,141 64,139 62,138 56,137 56,136 53,136 52,135 51,135 48,133 46,132 45,132 49,130 54,127 64,121 66,119 67,119 68,118 74,115 82,110 84,109 82,107 76,102 70,98 66,95 63,93 61,91 56,87 54,88 52,89 48,89 40,87 32,87 29,86 23,86 19,86 12,86 11,83 10,80 9,76 8,73 7,70 6,65 5,61 7,60 6,58 4,55 9,53 8,49 6,46 6,46 6,45 10,41 10,40 11,39 11,37 11,37 7,38 0,35 1,33 3,32 9,31 9,31 11,30 10,30 10,30 9,28 7,26 4,25 2,24 6,21 7,21 8,21 11,21 11,23 23,22 28,21 25,17 25,16 31,14 33,13 36,13 33,6 33,5 34,4 34,4 35,4 36,3 47,1 50,0 54,0 59,3 64,2 66,2 70,2 74,1 80,1 86,0" id="3012" class="canton" fill="steelblue" stroke-width="1" stroke="white" geotype="canton" geoname="Nîmes-3" code_insee="3012" code_departement="30" nom_departement="Gard" code_region="76" nom_region="Occitanie"/></svg>