<?xml version="1.0" encoding="utf-8"?>
<svg version="1.1" id="svgmap" xmlns="http://www.w3.org/2000/svg" xmlns:xlink="http://www.w3.org/1999/xlink" x="0px" y="0px" width="100%" height="100%" viewBox="0 0 500 386">
<polygon points="0,131 4,131 6,130 9,130 12,130 18,130 19,129 19,129 20,129 20,129 21,128 28,120 33,118 34,119 37,120 38,121 47,116 47,113 48,112 49,113 56,108 55,107 54,106 54,106 55,104 55,104 56,104 56,104 55,103 55,101 57,100 61,99 65,98 67,97 73,96 74,95 74,94 75,94 76,94 78,96 79,96 80,96 82,96 90,91 90,90 91,89 92,87 93,88 94,88 95,88 97,88 99,88 100,88 102,87 103,87 103,86 104,85 106,85 107,85 111,85 112,85 112,85 113,85 119,84 122,83 127,81 138,76 142,73 146,71 149,68 152,66 154,66 151,63 153,61 155,60 156,59 149,50 136,30 127,15 129,13 129,12 131,10 133,6 134,4 137,3 140,0 142,0 144,0 146,1 147,2 148,4 149,6 149,7 148,8 147,9 147,10 154,8 153,7 162,4 164,6 160,7 159,8 158,9 158,10 157,9 156,9 145,13 144,13 145,15 150,23 154,30 161,27 163,25 166,19 166,18 164,15 179,11 183,9 184,9 184,10 184,10 185,11 189,18 189,19 194,26 195,26 196,26 198,26 199,25 201,25 203,25 204,25 206,25 211,27 213,27 215,26 218,24 223,20 228,18 231,17 238,14 241,13 244,12 247,11 249,10 253,10 256,10 258,10 259,10 264,9 266,8 270,7 273,7 282,7 285,7 287,6 292,5 294,5 297,5 302,5 306,5 307,5 307,6 308,6 311,11 312,11 312,11 315,13 316,14 319,16 320,17 321,17 322,18 326,18 327,17 329,14 330,13 328,9 328,7 327,6 326,2 332,2 336,2 341,2 344,2 351,3 358,4 362,4 363,4 365,3 369,6 371,8 374,10 378,13 382,16 388,21 389,22 388,23 381,27 376,30 375,30 374,31 372,32 363,37 359,40 355,42 356,42 358,43 360,45 361,45 362,46 365,46 365,46 370,47 372,48 376,50 377,50 381,52 386,53 387,54 390,54 391,55 396,59 401,63 403,65 404,66 405,68 409,74 416,71 425,66 427,67 436,73 444,78 444,79 444,79 445,79 445,80 446,80 449,82 452,84 453,85 453,85 456,88 457,89 461,95 462,96 462,97 439,106 401,119 399,120 400,122 405,126 408,129 410,131 412,133 415,138 416,138 417,139 418,140 418,140 418,141 419,141 422,144 422,145 422,145 422,146 423,147 425,149 428,152 431,155 434,157 438,161 441,163 445,165 449,168 450,169 451,169 452,169 453,170 454,171 460,186 467,199 469,202 471,205 473,207 473,207 469,208 478,222 442,237 423,242 416,246 425,249 426,249 427,250 432,254 433,255 435,261 437,263 440,265 441,265 442,266 447,267 447,267 457,273 457,274 459,276 460,276 461,276 463,276 464,276 466,277 478,275 488,274 500,276 500,276 487,275 480,275 469,277 464,278 455,277 442,279 426,283 402,294 395,298 376,311 361,320 343,330 339,333 315,347 299,355 292,358 282,361 265,366 245,370 237,373 225,380 217,385 215,386 215,386 213,386 196,357 193,351 188,345 175,326 182,322 178,318 182,316 183,318 193,313 191,310 202,303 223,297 175,265 167,254 164,245 161,243 153,228 149,221 125,204 122,191 123,185 121,185 98,208 89,217 82,224 66,210 56,196 53,195 42,184 39,182 36,180 28,162 13,146 13,146 9,141 0,131" id="3013" class="canton" fill="steelblue" stroke-width="1" stroke="white" geotype="canton" geoname="Nîmes-4" code_insee="3013" code_departement="30" nom_departement="Gard" code_region="76" nom_region="Occitanie"/></svg>