<?xml version="1.0" encoding="utf-8"?>
<svg version="1.1" id="svgmap" xmlns="http://www.w3.org/2000/svg" xmlns:xlink="http://www.w3.org/1999/xlink" x="0px" y="0px" width="100%" height="100%" viewBox="0 0 500 295">
<polygon points="64,39 70,36 76,27 94,25 98,24 100,22 100,21 100,19 101,16 102,14 103,12 103,9 107,0 119,5 122,6 128,6 130,7 137,8 145,10 150,11 153,11 152,0 166,11 201,22 214,28 227,30 231,31 241,34 271,41 290,41 294,39 297,38 300,36 305,37 307,35 310,34 323,36 323,34 325,32 326,30 327,29 328,28 332,24 333,20 331,14 328,12 329,5 339,0 346,2 361,4 369,4 373,8 375,8 377,3 390,4 395,6 400,6 403,7 413,8 419,10 428,10 439,10 445,12 446,14 454,15 463,15 474,18 484,17 491,17 499,17 499,19 499,19 499,20 500,21 500,21 500,22 500,23 500,23 499,25 498,26 495,30 494,32 493,33 493,33 492,34 491,35 490,36 489,36 488,37 486,38 481,41 479,41 478,42 477,42 477,43 476,43 475,45 473,46 473,46 472,48 471,49 470,50 469,51 469,52 469,53 468,55 468,56 468,57 467,57 467,58 466,59 465,60 464,61 463,62 461,63 458,65 456,67 451,71 449,72 448,73 448,74 448,74 447,75 447,77 448,77 449,77 451,77 453,77 457,77 458,78 459,78 462,79 464,80 466,81 467,81 468,82 470,83 473,84 475,86 475,86 476,87 476,88 477,89 478,90 478,90 479,91 480,92 481,93 481,94 482,94 482,95 482,96 483,97 485,100 487,102 488,104 488,105 489,106 490,107 490,108 491,109 490,110 490,112 490,113 491,114 491,114 492,115 492,117 491,117 491,117 489,117 489,117 484,118 481,119 480,119 480,119 479,120 478,121 478,121 477,122 476,121 474,121 474,121 474,122 475,123 475,123 476,124 477,125 477,126 477,126 476,127 474,128 472,130 471,130 469,131 465,133 465,134 465,138 463,138 463,138 463,139 462,141 462,142 460,144 459,146 458,148 457,149 456,150 455,151 455,153 456,154 455,155 455,156 455,156 454,158 452,159 452,160 451,160 450,160 449,161 449,163 448,165 448,165 448,165 449,166 450,166 451,168 452,169 452,170 452,171 451,172 451,172 451,172 449,175 448,176 446,177 445,179 445,179 446,180 446,181 446,181 446,182 446,188 446,188 446,188 445,189 445,189 445,189 445,190 442,189 438,188 436,187 433,186 430,184 429,184 427,183 425,183 424,182 423,182 421,181 420,181 418,181 418,181 415,180 414,180 413,180 411,180 410,180 409,180 407,180 405,180 404,180 402,180 400,180 399,181 397,181 396,182 394,182 393,182 393,182 384,185 382,185 380,185 378,186 376,186 375,186 375,186 376,187 376,187 378,187 378,188 378,188 378,188 380,189 383,190 384,190 384,190 384,190 385,191 386,192 390,194 390,194 391,194 391,194 392,194 392,194 393,194 394,194 394,194 393,195 393,195 393,196 392,197 392,197 392,198 393,200 394,201 391,201 389,201 387,201 386,201 385,201 383,202 381,200 379,201 378,201 374,202 373,202 373,202 373,202 372,203 372,203 374,206 373,206 372,206 369,207 369,207 370,209 368,209 364,210 363,209 362,209 362,209 361,209 360,210 361,211 362,211 362,212 363,212 363,213 363,213 363,213 363,213 360,213 360,214 359,215 362,216 363,215 363,216 364,216 363,217 363,217 362,219 361,219 361,219 362,221 363,222 361,223 361,224 362,225 361,225 361,227 362,229 362,230 363,231 363,233 363,234 364,235 364,237 365,238 365,239 365,241 365,241 364,242 364,243 362,243 361,243 361,242 360,242 359,241 359,241 357,240 357,240 357,239 355,238 355,237 355,237 355,237 353,237 350,237 349,237 348,237 346,237 345,238 344,238 339,238 338,238 336,238 335,239 333,239 332,239 332,239 330,239 328,239 327,239 326,240 324,241 323,241 320,242 318,243 316,244 314,245 312,247 312,247 311,247 308,246 307,246 307,246 306,246 305,246 305,247 304,247 303,247 303,246 301,243 300,243 299,240 298,239 298,239 298,239 298,239 296,239 289,242 290,243 290,243 288,246 288,247 284,248 282,245 280,241 279,241 280,241 285,239 286,239 286,239 286,239 287,238 287,238 289,237 288,236 284,238 284,238 281,239 281,239 282,238 282,238 282,237 282,237 281,236 280,235 280,235 279,235 278,235 276,236 275,236 275,237 274,239 273,240 273,241 272,242 276,248 282,258 285,262 285,262 284,263 283,264 284,265 284,265 282,266 280,267 279,268 277,270 272,272 270,273 268,273 266,274 265,274 265,274 264,274 262,274 262,274 261,274 261,274 261,275 260,275 259,275 259,275 258,275 257,275 257,275 256,275 255,275 255,276 255,276 254,276 251,279 250,279 250,279 249,279 248,278 248,278 247,278 247,278 247,279 244,280 243,280 241,280 239,281 238,281 238,282 239,283 239,283 239,283 239,283 238,283 238,284 238,284 239,284 236,287 235,286 235,287 235,288 230,290 230,290 229,290 229,289 226,290 223,294 222,294 222,294 222,294 222,294 222,294 219,295 217,295 216,295 215,295 213,295 205,285 204,283 196,279 195,276 186,267 177,254 177,242 178,239 176,236 174,234 172,228 172,228 172,227 172,226 172,226 172,225 172,225 172,225 172,224 172,224 171,224 171,224 170,224 170,224 170,224 169,225 167,226 166,226 166,227 165,227 165,226 165,226 164,225 163,225 162,224 162,223 162,223 163,222 163,222 163,222 163,222 163,221 163,221 163,220 162,220 162,219 161,218 161,218 161,217 158,214 158,214 157,213 155,212 154,212 153,212 152,212 151,212 151,212 151,211 152,210 154,209 154,209 154,208 154,208 154,207 155,207 156,206 157,205 157,205 160,204 161,203 162,203 162,203 165,202 166,201 167,200 168,200 169,200 170,200 171,200 171,199 172,199 172,199 174,198 175,198 177,197 180,197 182,197 184,196 185,196 182,194 180,194 179,194 177,194 177,194 174,193 174,192 172,192 168,191 167,191 162,189 161,189 158,189 155,188 150,189 143,189 142,189 141,189 139,189 138,189 135,189 147,183 151,178 136,175 91,172 71,168 13,160 5,156 7,150 0,135 4,125 1,123 2,106 4,104 17,98 21,83 36,69 39,63 41,57 38,51 40,45 41,44 64,39" id="3010" class="canton" fill="steelblue" stroke-width="1" stroke="white" geotype="canton" geoname="Nîmes-1" code_insee="3010" code_departement="30" nom_departement="Gard" code_region="76" nom_region="Occitanie"/></svg>