<?xml version="1.0" encoding="utf-8"?>
<svg version="1.1" id="svgmap" xmlns="http://www.w3.org/2000/svg" xmlns:xlink="http://www.w3.org/1999/xlink" x="0px" y="0px" width="100%" height="100%" viewBox="0 0 500 254">
<polygon points="82,12 83,12 84,12 85,12 85,12 86,12 86,12 87,12 87,12 88,12 88,12 88,12 89,12 89,12 89,12 89,12 90,12 90,12 90,12 91,12 91,12 91,12 91,12 91,12 91,12 92,12 92,12 92,12 92,12 92,12 92,12 92,12 93,13 93,13 93,13 93,13 94,13 95,13 95,13 95,13 96,13 96,13 98,13 98,13 98,14 98,14 99,14 99,14 99,14 99,15 99,16 99,16 99,16 99,16 99,16 99,16 99,16 99,17 99,17 99,17 98,17 98,17 98,17 98,17 99,18 99,18 99,18 99,19 99,19 99,19 100,19 101,18 101,18 102,19 102,19 103,18 104,18 105,18 105,18 106,18 106,18 106,18 106,18 106,18 107,19 107,19 107,19 107,19 107,20 107,20 108,20 108,20 108,20 108,21 108,21 108,22 108,22 108,22 108,22 109,22 109,22 109,22 109,22 110,23 110,24 110,24 110,24 110,24 111,24 111,24 111,24 111,24 111,24 112,24 112,24 112,24 112,24 112,24 112,24 112,24 113,24 113,24 114,24 114,24 115,24 115,24 116,24 116,24 116,24 117,24 117,24 117,25 118,25 118,25 118,25 118,25 118,25 119,25 119,25 119,26 119,26 119,26 119,26 120,26 120,26 120,26 120,26 120,27 121,27 121,27 121,27 121,28 122,28 122,28 122,28 124,28 124,28 125,29 125,29 125,29 125,29 126,31 126,32 126,32 126,32 126,33 126,33 126,33 126,34 126,35 126,35 126,36 126,36 126,37 126,37 126,37 126,37 126,38 126,38 126,38 127,38 127,38 127,39 127,39 127,39 128,39 128,39 128,39 128,39 128,40 128,40 129,41 129,41 129,41 130,41 130,41 130,41 130,41 130,41 131,42 131,42 131,42 131,42 131,42 133,43 133,43 135,43 135,43 135,43 136,43 136,43 136,43 137,43 137,43 137,44 137,44 138,44 138,44 138,44 139,44 139,44 140,44 140,44 141,44 142,44 143,44 143,44 143,44 145,44 145,44 146,44 146,44 146,44 146,44 147,44 147,44 148,44 149,44 149,44 151,44 152,44 152,44 154,44 155,44 156,45 157,45 157,45 157,45 157,45 159,45 159,46 159,46 160,46 161,46 161,46 161,46 162,46 162,46 164,46 164,46 165,46 165,46 165,46 166,46 167,46 167,46 167,46 167,46 169,46 169,46 172,45 173,45 173,45 174,45 174,45 175,45 175,45 175,45 176,45 177,45 177,45 177,45 178,45 179,45 179,45 179,45 180,45 180,45 182,45 182,45 185,46 185,46 185,46 193,49 194,49 194,49 196,49 196,49 197,48 197,48 197,48 198,48 198,48 199,48 200,48 200,48 201,48 201,48 202,48 202,48 202,49 203,49 204,49 204,49 204,49 205,49 205,49 205,50 205,50 206,50 206,50 206,51 206,51 206,51 206,51 206,51 206,52 206,52 207,53 207,53 207,53 208,54 208,54 208,54 208,54 208,55 208,55 208,55 208,56 208,56 208,57 209,56 209,56 209,56 210,55 210,55 210,55 209,55 209,54 209,54 210,54 210,54 210,53 211,53 211,53 211,53 212,53 213,52 213,52 213,52 213,52 215,52 215,52 218,51 218,51 219,50 220,49 220,49 221,49 221,49 222,47 222,47 223,47 223,47 224,47 225,47 225,47 226,47 226,47 227,47 228,47 228,48 230,48 230,48 232,48 232,48 233,48 233,48 234,48 234,48 235,48 236,48 237,48 237,48 238,48 239,49 240,50 240,50 241,50 241,50 242,50 242,50 242,50 243,50 243,50 243,50 243,50 243,50 243,50 243,50 243,50 243,49 243,49 244,49 244,49 244,49 246,50 246,50 246,50 247,50 247,50 247,50 248,50 248,50 249,51 249,51 249,51 249,51 250,51 250,51 250,51 251,52 252,52 252,52 252,52 252,52 253,53 253,53 253,53 253,53 253,52 253,52 253,52 253,52 254,52 254,52 254,52 255,52 255,52 255,52 255,52 255,52 255,52 255,52 255,52 256,52 256,52 256,52 257,52 257,52 257,52 257,52 258,52 258,52 258,52 258,52 258,52 259,52 259,52 259,52 259,52 259,52 259,52 259,52 259,52 260,51 260,51 260,51 260,51 260,51 260,51 260,51 261,50 261,50 261,50 262,50 262,50 262,50 263,50 263,50 263,50 263,50 263,50 264,50 264,50 264,49 264,49 264,49 265,50 265,50 265,50 266,50 266,50 266,50 266,50 266,50 266,50 266,50 267,50 267,50 267,50 267,50 268,51 268,51 269,51 269,51 270,51 270,51 270,50 270,50 270,50 270,50 270,50 271,49 271,49 271,49 272,49 272,49 272,49 272,49 272,49 273,49 273,49 273,49 273,49 273,49 273,48 273,48 274,48 274,48 274,48 275,46 275,45 275,45 275,45 275,45 274,44 274,43 274,43 274,43 275,42 275,42 275,42 275,41 275,41 276,41 276,40 276,40 276,40 276,39 276,39 275,39 275,38 275,38 275,37 275,36 276,36 276,36 276,36 276,36 277,36 276,35 276,35 276,35 276,35 276,34 276,34 277,34 277,34 277,34 277,33 277,33 278,33 278,33 279,33 279,33 279,33 280,33 280,33 281,33 281,33 282,33 282,33 282,33 283,33 283,32 283,32 284,32 284,32 284,32 284,32 286,32 286,32 289,30 287,30 286,30 286,30 286,30 285,29 284,29 282,29 281,28 280,27 279,26 279,26 278,26 278,26 277,26 277,26 277,26 276,26 275,26 275,26 275,26 275,26 274,25 274,25 274,25 273,25 273,25 272,25 271,25 270,25 270,25 270,25 270,25 269,24 270,24 270,24 272,22 273,21 273,19 274,18 274,17 275,17 275,17 275,17 275,16 275,16 275,16 275,16 275,16 275,16 275,15 275,15 274,15 274,14 274,14 274,14 275,14 275,13 275,13 275,13 275,13 275,13 276,13 276,13 276,13 276,13 276,12 277,12 277,12 277,12 277,12 277,12 277,11 277,11 278,10 278,10 278,9 278,9 278,9 278,8 278,8 277,8 279,7 281,6 281,6 281,6 282,5 282,5 282,5 282,5 283,5 283,5 283,5 284,5 285,4 286,4 286,4 287,4 287,5 287,5 287,6 287,6 289,7 289,7 289,7 289,7 290,7 291,8 291,8 292,8 292,8 292,8 292,8 292,8 292,8 292,8 292,8 292,8 292,9 292,9 292,9 292,9 292,9 292,10 292,10 293,10 294,10 294,9 294,9 295,9 295,9 295,9 295,9 296,9 296,9 297,9 297,8 297,8 297,8 297,8 298,8 298,8 298,8 298,8 299,7 300,7 301,7 302,6 303,6 303,6 303,6 303,5 303,5 303,4 303,4 302,3 302,3 300,2 300,1 300,1 302,0 302,0 302,0 302,0 302,0 303,0 305,1 306,2 306,2 306,2 306,2 306,2 306,2 306,2 306,2 308,3 308,3 309,3 309,3 311,3 311,3 311,3 312,3 312,4 312,5 313,6 313,6 314,7 314,8 314,8 315,8 315,8 316,9 316,10 317,11 318,11 319,12 319,12 320,12 321,12 321,12 322,12 323,12 324,13 324,13 324,13 324,13 325,14 326,15 327,15 329,16 330,16 331,16 331,16 331,16 332,16 332,16 333,16 333,16 334,16 336,16 337,16 337,16 338,16 338,16 339,16 339,16 340,16 340,16 341,16 342,16 343,16 343,17 343,17 344,17 345,18 345,19 346,19 347,19 348,20 349,21 349,21 349,22 349,22 351,22 351,23 352,23 352,23 353,23 353,23 354,23 354,23 354,23 355,23 355,23 356,23 357,23 358,23 359,23 360,23 360,24 361,24 361,25 362,26 362,26 362,27 363,26 364,26 364,26 365,26 365,26 365,26 366,26 366,26 366,26 366,26 367,26 367,26 367,26 367,26 368,26 368,26 368,26 368,26 369,26 369,26 369,27 369,27 370,27 370,28 370,28 370,28 370,29 370,29 369,30 369,30 369,31 369,31 369,31 369,31 369,31 369,31 369,31 370,32 370,32 370,32 370,32 370,32 370,32 371,32 371,32 371,32 371,32 371,33 371,33 371,33 371,33 371,33 372,33 372,33 372,33 372,33 372,34 372,34 372,34 372,34 372,34 372,34 372,34 373,34 373,34 373,34 373,34 373,33 374,33 374,33 374,33 374,33 374,33 374,33 375,33 375,33 375,33 375,33 375,33 375,32 375,32 375,32 375,32 376,32 376,32 376,32 376,32 376,32 376,32 376,32 377,32 377,32 377,32 377,32 378,32 378,32 378,32 378,33 378,33 379,33 379,33 379,33 379,33 379,33 380,33 380,33 380,34 380,34 380,34 380,34 380,34 380,34 380,34 380,34 380,34 380,34 380,34 381,34 381,34 381,34 381,34 381,35 381,35 381,35 382,35 382,35 382,35 382,35 382,35 382,35 383,36 383,36 383,36 383,36 384,38 384,38 384,38 384,38 385,39 385,39 385,39 386,39 387,39 387,39 387,39 388,40 388,40 388,40 389,41 389,41 389,41 389,41 390,41 390,41 390,41 390,41 391,41 391,41 391,41 392,41 392,41 392,41 392,41 393,41 393,42 394,42 394,42 394,43 395,43 395,44 395,44 395,44 397,44 398,43 398,43 398,43 399,43 399,43 400,43 400,43 401,43 401,43 401,43 401,43 401,43 401,43 402,43 402,43 402,43 402,43 403,43 403,43 403,43 403,43 403,43 403,43 404,43 404,43 404,43 405,43 405,43 405,43 405,43 405,43 405,43 405,43 406,43 406,43 406,43 407,43 407,43 409,42 409,41 409,41 409,41 409,41 410,41 410,41 411,40 411,40 411,40 411,40 411,40 412,40 413,40 413,40 413,41 413,41 413,41 413,41 415,41 416,42 416,42 416,42 416,43 417,43 419,45 418,45 418,45 418,46 418,46 418,46 418,46 419,46 418,46 418,47 418,47 418,47 418,47 418,47 418,47 419,47 419,48 419,48 419,48 419,49 419,49 420,49 420,49 420,49 420,49 420,50 420,50 420,50 420,50 420,50 420,51 420,51 421,51 421,51 421,51 421,52 422,52 422,52 422,52 422,52 423,52 423,53 424,52 424,53 424,53 424,53 424,52 424,52 424,52 424,52 425,52 425,52 425,52 425,52 425,52 425,52 425,52 425,53 426,53 426,53 425,53 425,53 425,53 426,54 426,54 426,54 426,54 426,54 426,54 426,54 426,54 426,54 427,54 427,54 427,54 427,54 427,54 427,54 427,54 427,54 427,55 427,55 427,55 427,55 427,56 427,56 427,56 427,56 427,57 427,57 427,58 427,58 427,59 427,59 427,59 427,60 427,60 427,60 428,60 428,61 428,61 428,61 428,61 429,61 429,61 429,61 430,62 430,62 430,62 430,62 430,62 430,62 430,63 430,63 431,63 431,63 432,64 432,64 431,65 431,65 430,65 430,66 430,66 430,66 430,67 430,67 429,67 429,67 429,68 430,68 429,69 429,69 429,70 429,70 429,70 428,71 428,71 428,72 428,72 428,73 428,73 428,73 428,74 428,75 428,75 429,76 430,76 430,76 430,76 430,77 429,77 429,78 429,78 429,78 429,78 428,79 428,79 428,80 428,80 428,81 427,81 427,81 428,82 429,82 429,82 429,83 430,83 431,85 431,85 432,86 432,86 432,86 432,86 432,87 432,87 433,87 433,87 434,87 434,87 434,87 435,88 435,88 435,88 436,88 436,88 437,88 438,89 439,89 439,90 439,90 439,91 439,92 440,92 440,92 440,92 441,93 443,93 445,94 445,94 445,94 445,95 445,95 445,95 445,95 445,95 445,95 445,96 445,96 446,96 446,96 446,96 446,97 446,97 446,97 446,97 446,97 446,98 446,98 447,97 447,97 448,97 449,97 449,97 453,95 454,95 455,95 455,95 461,98 460,99 460,99 459,101 458,103 458,103 458,103 458,103 458,104 457,105 457,105 457,105 457,105 456,105 456,105 456,104 456,104 455,104 455,104 455,104 454,105 454,105 454,105 454,105 453,105 452,105 452,104 452,104 452,104 451,104 451,104 451,103 451,103 451,103 451,103 451,103 450,103 450,102 450,102 450,102 450,102 450,102 450,102 450,102 450,102 450,102 449,101 449,101 449,101 449,101 449,101 449,101 448,101 448,101 448,101 445,102 445,102 445,103 445,103 445,103 446,103 446,103 446,103 447,105 448,106 446,107 446,107 446,107 446,107 446,108 446,108 446,108 446,108 445,109 445,109 445,109 445,109 445,110 444,110 444,110 444,110 443,111 443,111 443,111 443,111 443,112 442,115 442,115 442,115 442,115 442,115 443,116 443,116 443,116 443,116 442,116 442,116 442,116 443,116 442,116 443,116 443,116 443,116 443,116 443,116 443,116 443,116 443,116 443,116 443,116 443,117 443,117 443,117 443,118 444,118 444,118 444,118 444,118 444,118 444,118 444,119 444,119 444,119 444,119 444,119 444,119 444,119 444,119 444,119 444,119 444,119 444,119 444,119 444,119 444,120 444,120 444,120 444,120 444,120 444,120 444,120 444,120 444,120 444,120 445,120 445,120 445,120 445,120 445,120 445,120 445,121 445,120 446,120 446,121 446,121 446,121 446,121 446,121 446,121 446,121 446,121 446,121 447,121 447,121 447,121 447,121 447,122 447,122 446,122 446,122 446,123 445,124 445,124 445,124 445,125 444,125 444,125 444,125 443,125 443,124 443,124 443,124 443,124 443,123 442,123 442,123 442,123 438,122 438,122 438,122 437,122 436,122 436,122 435,122 434,122 434,121 434,121 434,121 434,120 434,120 434,120 435,118 435,118 435,118 435,118 435,118 435,118 435,118 435,118 436,118 436,118 436,118 436,118 436,118 436,117 436,117 437,116 437,116 437,116 437,116 437,116 437,116 437,115 437,115 437,115 437,115 437,115 436,115 435,115 435,115 435,116 434,116 434,116 434,116 434,116 434,116 434,116 434,116 434,116 433,116 433,116 433,116 433,116 433,116 432,116 432,116 432,116 432,116 432,116 432,116 432,116 431,116 431,116 431,115 431,115 431,115 431,115 431,115 431,115 431,114 431,114 432,113 432,113 432,113 432,112 432,112 432,112 432,112 432,112 432,112 432,111 431,109 430,108 430,108 429,107 428,107 428,107 427,107 428,106 428,106 428,106 427,106 427,106 427,106 427,107 427,107 426,107 426,107 426,107 426,107 426,107 426,108 426,108 426,108 426,108 425,108 425,108 425,108 425,109 425,109 425,109 425,109 425,109 424,109 424,110 424,110 423,111 423,111 423,111 422,111 422,111 421,110 420,110 419,111 419,112 418,113 418,113 417,114 417,114 417,114 416,113 416,113 416,113 416,113 415,113 415,113 415,113 415,113 415,113 415,113 414,113 414,113 413,113 413,113 413,113 413,113 413,113 413,114 412,114 412,114 412,114 412,114 412,114 411,114 411,113 411,113 411,113 411,113 410,113 410,112 410,112 411,112 411,111 411,111 411,110 410,109 410,108 409,108 409,108 409,107 409,107 411,107 411,107 412,107 412,107 412,107 413,107 413,107 413,107 413,107 413,107 413,106 413,106 413,106 413,106 412,105 412,105 412,104 412,104 412,103 412,103 412,103 411,103 412,103 412,103 411,102 411,102 411,102 411,102 411,102 411,102 411,102 410,102 410,102 410,102 410,102 409,102 409,102 409,102 409,102 409,102 409,102 408,102 408,102 408,101 408,101 408,101 407,101 407,101 407,101 407,101 407,101 406,101 406,101 404,101 404,101 404,101 403,101 403,100 403,100 403,100 402,100 402,101 401,101 401,101 401,101 401,101 400,100 399,101 398,101 398,101 398,101 398,101 397,101 397,100 397,100 396,101 396,101 395,101 394,101 393,101 393,101 392,101 392,102 392,102 391,102 391,102 390,102 390,102 390,102 390,102 389,103 388,103 388,103 388,103 388,103 388,104 388,104 387,104 387,104 387,104 387,105 386,105 385,106 385,106 385,106 385,106 385,107 385,107 385,108 385,108 385,108 385,108 385,108 385,108 385,108 385,108 385,109 385,109 385,109 385,109 385,109 385,109 385,109 385,109 385,110 385,110 385,110 385,110 385,110 385,110 385,110 384,111 384,111 384,111 384,111 384,111 384,111 384,111 385,111 385,112 385,112 385,112 385,112 385,112 386,112 386,112 386,112 386,112 386,112 387,113 387,113 387,113 387,113 387,113 387,113 388,113 388,114 389,114 389,114 389,114 390,114 390,114 390,114 390,114 390,115 391,115 390,115 390,115 390,115 390,115 390,115 390,116 390,116 390,116 391,116 391,116 391,116 391,117 389,118 389,118 389,119 389,120 388,122 388,123 388,123 387,124 387,124 388,125 391,127 393,128 396,129 396,129 398,129 398,131 398,131 398,131 398,131 398,131 398,131 398,131 398,132 399,132 399,132 399,132 399,133 400,133 400,133 401,133 401,133 401,133 401,133 402,133 402,133 402,133 402,133 403,134 403,134 404,134 404,134 404,134 404,134 404,134 404,134 404,134 404,134 405,134 405,134 405,134 405,134 406,134 406,135 406,135 406,135 406,135 406,135 406,135 406,135 406,137 406,137 405,137 405,137 405,137 405,138 405,138 404,138 404,138 404,138 403,138 403,141 399,144 400,144 400,144 400,144 400,144 400,144 400,144 400,144 400,144 400,144 400,144 400,144 400,144 400,144 400,144 401,144 401,144 401,144 401,144 401,144 401,144 401,144 401,144 401,144 401,144 401,145 402,145 402,146 402,146 402,147 402,147 402,148 402,148 402,149 403,149 403,149 403,149 403,149 403,149 403,149 404,149 404,150 404,150 404,150 404,150 405,150 405,150 405,150 405,150 405,150 405,150 405,150 405,150 405,150 405,150 405,150 405,150 406,150 406,150 406,150 406,151 406,151 406,151 406,151 406,151 406,151 406,151 406,151 406,151 406,151 406,151 406,151 406,151 407,151 407,151 407,151 407,152 408,151 408,151 409,152 409,152 409,152 411,152 411,152 411,153 412,153 412,153 412,153 413,153 413,153 414,153 414,153 414,153 415,153 415,152 416,152 416,152 416,152 417,151 417,151 417,151 418,150 418,150 418,150 419,150 419,150 419,150 419,150 419,150 420,151 420,151 420,151 420,152 422,154 425,155 426,155 426,156 426,156 427,156 427,156 428,156 428,156 428,156 429,155 429,155 429,155 430,156 431,156 432,156 433,156 433,156 434,157 433,156 433,156 433,156 433,155 433,155 433,155 433,155 433,155 433,154 433,154 433,154 434,154 434,154 434,154 435,154 435,153 435,153 435,153 435,153 435,153 435,153 435,153 435,152 435,152 435,152 435,152 435,152 435,152 435,152 435,151 435,151 435,151 435,151 435,151 435,151 436,151 436,151 436,151 436,151 436,151 436,151 436,151 436,151 437,150 437,150 437,150 436,150 436,150 436,150 436,150 436,150 436,149 436,149 436,149 436,149 436,149 436,149 436,149 436,149 436,149 441,150 442,151 443,152 443,152 444,153 444,155 444,155 445,155 449,155 451,155 454,155 455,155 456,155 458,154 461,156 461,156 462,156 467,158 467,158 467,158 467,158 467,158 468,159 468,159 468,159 468,159 468,159 468,159 468,159 468,159 470,159 471,160 472,160 477,158 479,158 481,159 481,159 482,159 482,159 483,159 483,160 483,160 483,160 486,161 487,161 489,161 490,161 490,161 491,161 491,162 491,162 491,163 491,163 491,163 492,163 492,163 493,164 493,164 493,164 492,165 492,165 492,165 493,165 494,165 495,166 495,166 496,166 497,167 498,167 497,168 496,169 496,170 496,170 496,175 496,175 496,176 497,176 497,176 497,176 497,176 498,176 498,177 497,177 497,177 497,177 498,177 498,177 498,177 498,177 498,178 498,178 498,178 498,178 497,178 497,178 498,178 498,179 498,179 498,179 498,179 498,179 498,179 498,179 498,180 498,180 498,180 498,180 498,181 498,181 498,181 498,181 498,181 499,181 499,181 499,181 499,181 499,181 499,181 499,181 499,181 499,180 499,180 499,180 499,181 500,181 500,181 500,182 500,182 500,182 500,183 500,183 500,183 500,183 500,183 499,184 499,184 499,184 499,183 499,183 499,183 499,183 499,183 499,182 499,182 498,182 498,182 498,182 498,183 498,183 498,183 498,183 497,183 497,183 496,183 496,183 496,183 496,184 496,184 496,184 496,185 497,185 497,185 497,185 497,186 497,186 496,186 496,186 495,185 495,185 494,185 494,185 494,186 494,186 494,186 495,186 495,186 495,187 495,187 496,187 497,187 497,187 497,187 497,188 498,188 498,188 498,188 497,188 497,188 497,189 496,189 496,189 496,189 495,189 495,189 495,189 494,189 494,189 494,189 495,189 495,190 496,190 496,190 496,191 497,191 497,191 496,191 496,191 496,191 496,191 496,191 496,191 496,191 496,192 496,192 495,192 495,192 495,192 494,192 494,192 494,192 494,192 494,192 494,193 494,193 494,193 494,193 494,193 494,193 494,193 493,193 493,193 493,193 493,193 493,193 493,193 494,194 494,194 494,194 494,194 494,194 493,194 493,194 493,194 493,194 493,194 492,195 492,195 492,195 492,195 492,195 492,195 492,195 492,195 492,195 492,195 493,195 493,196 493,196 493,196 493,196 493,196 493,197 493,197 493,197 492,197 492,197 492,198 492,198 491,198 491,198 491,198 491,198 491,198 490,198 490,198 490,199 490,199 490,199 490,199 490,199 490,199 490,199 490,199 490,199 490,199 490,199 490,199 490,199 490,199 489,199 488,198 488,198 487,198 487,200 487,200 487,200 487,200 487,200 488,201 488,201 488,202 488,202 489,202 489,203 490,204 491,204 491,204 491,205 491,206 491,206 491,207 491,208 490,208 489,209 489,209 490,210 489,211 491,212 491,212 492,213 495,216 494,217 492,219 490,220 489,222 489,222 487,225 486,226 485,225 485,223 485,222 484,221 484,221 483,221 483,221 482,221 482,221 480,220 480,220 480,222 476,226 475,227 475,227 474,227 473,227 473,227 473,227 472,227 472,227 471,228 471,228 470,228 470,229 470,229 469,229 468,228 468,228 468,228 467,228 466,228 466,228 466,228 465,228 465,228 465,228 464,228 463,228 462,228 462,228 461,228 460,228 459,228 459,228 458,228 457,228 456,228 454,228 454,228 454,228 453,228 452,228 452,228 452,228 452,228 452,228 451,228 451,228 451,229 451,229 450,229 450,229 450,229 450,229 449,230 449,230 449,230 449,230 449,230 448,229 448,229 448,229 448,229 448,229 448,229 447,229 447,229 447,229 447,229 446,229 445,229 445,229 445,229 444,229 444,229 444,229 443,229 443,229 443,229 443,229 443,229 442,229 441,229 441,229 440,229 440,229 440,229 439,229 439,230 439,230 438,230 438,230 438,230 437,231 436,232 436,234 436,236 436,236 434,235 434,235 434,235 433,235 432,235 432,235 431,235 431,235 431,235 430,234 430,234 429,234 428,234 427,234 426,234 426,234 425,234 423,235 422,236 420,237 420,236 420,236 419,235 419,235 419,235 418,235 418,234 418,234 417,234 417,233 417,233 416,233 416,233 416,233 416,233 416,233 416,233 415,233 414,233 414,233 415,232 415,232 415,232 416,232 414,232 415,231 412,230 408,229 406,229 405,229 403,228 401,227 400,226 399,224 399,223 399,222 399,222 398,220 397,219 399,217 401,215 402,215 402,214 403,214 405,211 406,211 406,210 408,208 410,206 411,205 413,204 414,202 414,202 414,201 414,201 415,200 415,199 415,199 415,199 415,199 416,198 416,198 416,197 417,197 417,196 418,196 418,195 419,195 419,195 419,194 419,193 419,193 419,193 418,193 417,192 417,192 416,192 416,192 416,192 416,192 415,190 415,190 415,190 416,190 416,190 416,190 417,189 417,188 418,187 418,187 418,187 418,186 418,185 418,185 418,185 418,185 418,185 417,184 417,184 417,184 417,184 417,184 416,183 415,183 413,181 413,181 413,181 413,181 413,181 413,181 412,181 412,181 412,181 412,181 412,181 412,181 412,181 412,181 412,181 412,181 412,181 412,181 412,181 411,181 411,181 411,181 411,181 411,181 411,181 411,181 411,181 411,181 411,181 411,181 411,181 411,181 411,181 411,181 411,181 410,181 410,181 410,181 410,181 410,181 410,181 410,181 410,181 410,181 410,181 410,181 410,181 410,181 410,181 410,181 410,181 410,181 410,181 410,181 410,181 410,181 410,181 410,181 410,181 410,181 410,181 410,181 409,181 409,181 409,181 409,181 409,181 409,181 409,181 409,181 409,181 409,181 409,181 409,182 409,182 408,182 408,182 408,182 408,182 408,182 408,182 408,182 408,182 408,182 408,182 408,182 408,182 408,182 408,182 408,182 408,182 408,182 408,182 408,182 407,182 407,182 407,182 407,182 407,182 407,182 407,182 407,182 406,182 406,181 406,181 406,181 406,181 406,181 406,181 406,181 406,181 406,181 406,181 405,181 405,181 405,181 405,181 405,181 405,181 405,181 405,181 404,181 404,181 404,181 404,181 404,181 404,181 404,182 403,182 403,182 403,182 403,182 403,182 403,182 403,182 403,182 403,182 403,182 403,182 403,182 403,181 403,181 403,181 403,181 403,181 403,181 403,181 403,181 403,181 403,181 403,181 403,181 403,181 403,180 403,180 403,180 403,180 403,180 403,180 402,180 402,180 402,180 402,180 402,180 402,179 402,179 402,179 402,180 402,180 402,180 402,180 402,180 402,180 402,180 402,180 402,180 402,180 402,180 402,180 402,180 402,180 402,180 402,180 402,180 402,180 401,180 401,180 401,180 401,180 401,180 401,180 395,180 395,180 395,181 395,181 395,181 390,175 388,172 388,172 388,172 388,172 388,172 388,171 388,170 388,170 388,170 388,170 388,169 388,169 388,169 388,169 388,169 388,168 388,168 388,168 388,168 388,168 389,165 389,165 388,164 388,164 389,163 389,163 389,163 388,162 388,162 387,162 387,162 387,162 386,162 386,162 386,162 385,162 385,162 385,162 385,162 385,162 385,162 384,162 384,162 384,162 383,162 383,163 383,164 382,163 381,163 380,162 378,162 376,161 375,161 375,161 375,161 374,161 374,161 374,161 372,162 371,162 369,162 369,162 369,162 367,162 367,162 367,162 366,162 366,162 365,161 365,161 364,160 364,160 363,159 364,159 364,158 362,158 362,158 361,160 361,161 361,161 361,162 360,162 359,161 357,161 357,161 357,162 356,163 356,163 355,162 355,162 354,162 351,161 351,161 351,160 350,160 349,159 349,159 348,159 348,159 348,159 347,159 347,159 346,159 346,159 344,160 344,160 344,161 344,161 344,162 343,162 343,162 342,162 342,163 342,163 341,164 341,164 340,164 339,165 339,165 339,165 338,166 338,166 338,166 338,166 338,166 338,166 338,166 338,166 337,166 337,166 337,167 337,167 337,167 337,167 336,167 336,167 336,167 336,167 335,167 335,167 335,167 335,167 335,167 335,167 334,167 334,167 334,167 334,167 334,167 334,168 334,168 333,168 332,168 331,168 330,167 330,167 330,167 329,167 329,167 329,167 329,167 328,166 328,166 328,166 328,166 328,166 327,166 327,166 327,166 326,166 326,166 326,167 326,167 325,167 325,167 325,167 325,167 325,167 325,167 325,167 325,167 325,167 325,168 324,168 324,168 324,169 323,169 323,169 323,169 323,170 323,170 323,170 322,170 322,170 322,170 322,170 322,171 321,171 321,171 321,171 321,171 321,171 321,171 321,171 321,171 321,171 320,171 320,171 320,172 320,172 320,172 319,172 319,172 319,172 319,172 319,172 319,172 319,173 318,173 318,173 318,173 318,173 317,174 317,174 317,174 317,174 314,173 313,172 313,173 312,174 312,175 312,176 311,177 311,177 311,177 311,177 311,178 311,178 312,178 312,178 312,178 313,178 313,178 314,178 314,179 314,179 315,178 315,178 315,179 315,179 315,179 316,179 316,179 316,179 316,180 315,180 315,180 316,181 316,182 316,182 316,183 315,183 314,183 313,183 313,183 312,182 312,182 309,187 307,188 306,190 308,191 308,192 308,194 308,194 308,195 308,195 307,195 307,195 307,195 307,195 307,196 306,198 304,202 304,203 303,203 303,205 301,204 298,203 296,203 295,203 291,202 291,202 291,203 291,203 291,202 291,202 290,202 289,202 288,202 288,202 288,202 288,202 287,201 286,201 286,201 285,201 285,201 285,201 284,201 284,201 284,201 283,201 283,201 283,201 282,201 282,200 282,200 282,200 281,200 281,200 281,200 280,200 281,201 281,201 281,201 282,201 284,202 284,203 284,203 284,203 284,203 284,204 284,204 284,204 285,204 285,204 284,205 284,205 284,206 284,208 284,208 284,208 284,208 284,209 284,209 285,210 285,210 285,211 285,211 285,211 285,211 284,211 284,212 281,213 281,214 280,214 280,214 279,215 279,215 274,213 274,211 275,210 275,209 275,209 277,207 277,206 278,205 278,204 279,203 279,202 280,202 280,202 279,201 279,200 276,200 274,200 272,200 269,200 267,200 265,202 263,204 260,207 260,208 259,208 259,208 259,209 259,209 259,209 259,210 259,210 258,211 258,210 255,211 253,213 251,215 251,216 250,218 250,218 251,218 252,219 251,219 251,219 250,220 250,220 250,220 250,220 250,220 251,220 251,221 250,221 250,221 249,222 249,222 248,222 248,222 248,222 247,223 246,223 245,223 245,223 245,223 245,223 245,223 244,223 243,224 243,224 243,224 242,225 242,225 242,225 242,225 242,226 241,226 241,226 241,226 240,226 240,226 240,226 239,227 239,227 239,227 239,227 239,227 239,228 238,228 238,228 238,228 237,229 237,229 237,229 237,229 237,230 237,230 236,230 236,230 236,231 235,231 234,232 234,232 234,233 233,237 231,237 237,242 238,243 238,243 239,243 247,245 249,246 249,247 250,249 249,250 249,250 249,250 248,250 248,250 248,250 247,250 247,250 247,250 247,250 247,250 247,250 247,250 247,250 247,250 246,250 246,250 246,250 245,250 245,250 245,250 245,250 244,250 244,250 244,250 244,250 243,250 243,250 243,250 243,250 242,250 241,250 241,250 241,250 240,251 240,251 240,251 240,251 240,251 239,251 239,251 239,251 238,251 238,251 237,250 237,250 237,250 237,250 236,250 236,250 236,250 236,251 236,251 236,251 236,251 236,251 236,251 236,251 236,252 236,252 236,252 236,252 236,252 236,252 236,252 235,252 235,252 235,252 235,252 235,252 235,252 235,252 235,252 235,253 235,253 235,253 235,253 235,253 235,253 235,253 235,253 235,253 235,253 235,253 235,253 235,253 235,253 235,253 235,253 235,253 235,253 235,253 235,253 235,253 235,253 235,253 235,253 235,253 234,253 234,253 234,253 234,253 235,253 234,253 234,253 234,253 234,254 234,254 234,254 234,254 234,254 234,254 233,253 233,253 232,253 232,253 231,253 231,253 231,253 230,252 230,252 230,252 229,252 229,252 228,251 228,251 228,251 228,251 228,250 228,249 228,249 228,249 228,249 228,249 227,249 227,249 227,249 227,248 227,248 226,247 226,247 226,247 226,247 226,247 226,247 226,247 226,247 225,247 225,246 224,246 224,246 224,246 224,246 223,246 223,246 223,246 223,246 223,246 223,246 222,246 221,245 221,245 221,245 220,244 220,244 219,244 219,244 219,244 218,244 218,244 218,244 217,244 217,244 217,244 217,244 217,245 217,246 217,246 217,246 216,247 216,247 216,247 216,247 216,248 216,248 216,248 216,248 215,248 215,248 215,248 214,248 214,248 214,248 213,248 212,248 212,248 211,247 210,247 210,247 210,247 209,247 209,247 208,247 208,247 208,247 207,247 206,247 206,247 206,246 206,246 205,246 205,246 204,246 204,246 204,246 204,246 204,246 203,246 203,246 203,245 203,245 203,245 203,245 202,245 202,245 202,245 201,245 201,245 201,245 201,245 200,245 200,244 200,244 200,244 200,244 199,244 199,244 199,244 199,244 199,244 199,244 199,244 198,245 198,245 198,245 197,246 197,246 197,246 197,246 197,246 197,246 196,246 196,246 196,245 196,244 196,244 196,244 195,243 195,243 195,243 195,243 195,243 195,242 195,242 195,242 196,242 196,242 196,242 196,242 196,241 196,241 196,241 196,241 196,241 196,241 196,240 195,239 194,239 194,239 194,239 194,239 194,239 194,239 194,239 194,238 194,238 193,238 193,238 193,239 192,239 191,239 191,239 190,239 190,239 190,239 190,239 190,239 190,239 190,239 190,239 190,239 189,238 189,238 189,238 189,238 189,238 190,238 190,238 190,238 190,238 191,238 191,238 191,238 192,237 192,237 192,237 192,237 193,237 193,237 193,236 193,236 193,235 193,235 193,235 193,235 193,234 193,234 193,234 192,234 191,233 191,233 190,233 190,233 191,233 191,233 192,233 192,232 192,232 192,232 193,232 193,232 193,232 193,232 193,232 193,231 193,231 193,231 193,231 193,231 193,231 192,231 192,231 192,230 192,230 192,230 192,230 192,230 192,230 193,230 193,230 194,229 194,229 194,229 194,229 194,229 194,229 194,229 194,229 194,229 193,229 193,229 193,229 192,229 192,228 192,228 192,228 192,228 192,228 192,228 192,228 192,228 193,227 193,227 193,227 194,227 194,227 194,226 194,226 194,226 194,226 194,226 193,226 193,226 193,226 193,226 193,226 193,226 193,226 192,226 192,226 192,226 192,226 192,226 192,226 192,226 191,226 191,226 191,225 191,224 191,224 191,224 191,224 191,224 191,224 191,224 192,224 192,224 192,224 192,224 193,224 193,224 193,224 193,224 193,224 193,224 193,224 193,223 193,223 193,223 193,223 193,223 193,223 193,222 193,222 193,222 193,223 192,223 192,223 191,223 191,223 191,223 191,223 191,223 191,223 191,222 192,222 192,222 192,221 193,221 193,221 193,221 193,221 193,220 193,220 193,220 192,220 192,220 192,220 192,220 192,220 192,220 192,220 192,221 191,221 191,221 191,221 190,221 190,221 190,221 190,221 189,221 189,221 189,221 189,221 188,220 188,220 188,220 188,220 188,220 187,220 187,220 187,220 188,219 188,219 188,219 188,219 189,219 189,219 190,218 190,218 190,218 190,218 190,218 190,218 190,218 190,217 190,217 190,217 189,217 189,218 189,218 188,218 188,218 188,218 188,218 188,218 187,218 187,218 187,218 187,218 187,218 187,217 187,217 187,217 187,217 187,216 187,216 187,216 187,216 186,215 186,215 186,215 185,215 185,215 185,215 185,215 185,215 185,215 185,215 185,215 185,216 185,216 185,216 185,216 184,216 184,216 184,216 184,215 184,215 183,215 183,215 183,215 182,215 182,215 182,215 182,215 182,215 182,215 181,215 181,215 181,214 180,214 180,214 180,214 180,214 179,214 178,214 178,214 178,214 178,214 178,214 178,214 178,214 178,214 178,214 178,215 179,215 179,215 179,215 179,215 178,215 178,216 177,216 177,216 177,216 177,217 177,217 177,217 177,217 177,217 178,217 178,217 179,217 179,217 179,217 179,218 179,218 179,218 179,218 178,218 178,218 178,219 178,219 177,219 177,219 177,218 177,218 176,218 176,218 176,218 175,218 175,218 174,218 174,218 174,218 174,218 174,218 174,218 174,218 174,219 174,219 174,220 174,220 174,220 173,220 173,220 173,220 173,220 173,220 173,220 173,220 172,219 172,218 172,218 172,218 171,218 170,219 170,219 170,219 170,219 169,219 169,219 169,219 169,219 169,219 168,219 168,219 168,219 167,219 166,219 166,219 166,220 165,220 165,220 165,220 165,220 165,219 165,219 165,219 165,219 165,219 165,219 165,219 165,219 165,218 164,218 164,218 164,218 164,218 164,218 164,218 164,218 164,218 164,218 164,218 162,219 161,220 161,220 161,220 161,221 160,222 160,222 160,222 158,223 158,224 155,226 151,229 148,233 146,233 146,234 144,235 144,235 143,235 139,235 138,235 137,235 134,235 134,235 134,235 134,236 134,236 134,236 134,236 134,236 134,236 133,236 133,236 133,236 133,237 132,237 132,237 130,238 128,239 128,239 126,239 126,239 125,238 125,238 124,238 124,237 122,235 122,235 122,235 122,234 121,234 120,234 120,233 120,233 120,233 119,233 118,232 119,232 119,232 120,232 120,232 122,232 122,232 123,232 123,232 125,232 125,232 125,230 126,226 126,226 127,225 128,224 128,223 133,221 131,221 128,219 128,219 127,218 126,216 126,216 126,216 126,216 126,216 126,216 127,216 127,215 127,215 127,215 127,215 128,215 128,215 128,215 129,215 129,215 130,215 130,215 130,215 131,215 131,215 131,215 131,215 131,215 132,214 131,214 131,214 131,214 131,213 130,213 130,212 130,212 130,212 130,212 130,212 130,212 130,211 130,211 130,211 130,211 130,211 129,211 129,211 128,211 128,210 128,210 127,210 126,210 126,209 126,209 126,209 126,209 126,209 126,209 126,209 126,209 125,209 125,209 125,209 125,209 125,209 125,208 125,208 124,208 123,207 123,207 123,207 122,207 122,207 122,207 122,206 122,206 122,206 122,206 122,206 122,205 122,205 122,205 122,205 122,205 121,205 121,205 121,205 120,204 120,204 120,204 120,204 120,204 120,204 120,204 120,203 120,203 120,203 120,203 120,203 120,203 119,203 119,202 119,202 119,202 119,202 118,203 118,203 118,203 118,203 118,203 117,202 117,202 116,202 116,201 115,201 115,201 115,201 115,201 115,201 115,202 115,202 115,202 114,202 114,202 114,202 114,202 114,202 114,202 113,201 113,201 113,201 113,201 113,201 113,201 112,201 112,201 112,201 111,201 111,201 111,201 111,202 111,202 111,202 111,202 111,202 111,202 110,202 110,202 110,202 110,202 110,202 110,202 110,202 109,201 109,201 109,201 109,201 109,201 109,201 109,201 108,201 108,201 108,201 108,201 108,201 108,201 108,202 108,202 108,202 108,202 108,202 108,202 107,202 107,201 107,201 107,201 106,201 105,201 105,201 104,201 104,201 104,201 104,201 104,201 104,201 104,201 104,202 104,202 104,202 104,202 103,202 103,202 103,201 103,201 103,201 103,201 103,201 103,201 103,201 103,201 102,201 101,201 101,202 100,202 100,202 100,202 100,202 100,202 100,202 100,203 100,203 100,204 99,204 99,204 100,204 100,204 100,204 99,205 99,205 99,205 99,205 99,205 99,205 99,205 98,205 98,205 98,205 98,205 98,205 98,205 98,205 98,205 98,205 98,204 97,204 97,204 97,204 97,204 97,204 97,204 96,204 96,205 96,205 95,205 95,205 95,205 95,205 95,205 95,205 94,205 94,205 94,205 94,205 94,205 94,205 94,205 94,205 95,205 95,204 95,204 95,204 95,204 95,204 95,204 95,204 95,204 95,204 95,204 95,204 95,204 95,204 95,204 94,204 94,204 94,204 94,204 93,204 93,203 93,203 93,203 93,203 93,203 93,204 93,204 93,204 93,204 93,204 93,204 92,204 92,204 92,204 92,204 91,204 91,204 91,204 90,204 90,204 90,204 90,204 89,204 89,204 89,204 89,204 89,204 88,203 88,203 88,203 88,203 88,203 88,203 87,203 88,203 87,204 87,204 87,204 87,204 87,204 86,203 86,203 86,203 86,203 85,203 85,203 85,202 85,202 85,202 84,202 84,203 84,203 84,202 84,202 84,202 84,202 84,202 84,202 84,202 84,202 83,202 83,201 83,201 82,201 82,201 82,201 82,201 81,201 81,201 82,200 82,200 82,200 81,200 81,199 81,199 80,199 80,199 79,199 78,200 78,200 78,199 78,199 77,199 77,200 78,200 78,200 78,201 77,201 77,201 78,201 78,201 79,201 79,201 79,202 79,202 79,202 78,202 78,202 78,202 78,202 77,203 76,203 76,203 75,203 75,203 74,204 74,204 74,204 74,204 74,204 73,204 73,204 72,204 72,204 72,204 72,203 72,203 71,203 71,203 71,203 70,203 70,203 70,203 70,203 71,203 71,202 71,202 71,202 71,202 71,201 71,201 71,201 70,201 70,202 70,202 69,201 69,201 69,201 70,201 70,201 69,201 69,200 69,200 70,199 70,199 70,199 70,199 70,198 69,198 69,198 69,198 69,197 70,197 70,197 70,197 70,197 70,197 70,196 69,196 69,196 68,196 68,196 67,195 67,195 67,195 67,195 67,195 68,195 68,195 68,195 68,194 68,194 68,194 68,193 67,193 67,192 67,192 66,192 66,191 66,190 66,190 67,190 67,190 68,190 68,190 68,189 68,189 67,189 67,189 66,189 66,189 66,189 65,188 65,188 65,188 66,187 65,187 65,187 66,187 66,187 66,187 66,187 67,186 67,186 67,186 67,185 67,185 66,184 66,184 66,184 66,184 66,183 66,183 67,183 67,183 67,182 67,182 68,182 68,181 68,181 68,181 68,180 68,180 68,180 68,180 68,179 68,179 69,179 69,178 69,178 69,178 69,177 69,177 69,177 70,177 70,177 70,177 70,176 70,176 70,176 70,176 70,176 70,176 70,175 72,175 72,175 72,174 72,174 72,174 73,174 73,174 73,174 74,174 74,174 76,173 84,171 84,170 85,168 85,168 85,167 85,167 85,164 85,162 86,162 95,162 99,162 101,162 103,161 104,161 106,161 106,160 106,160 106,159 106,159 106,158 107,158 108,157 108,156 108,155 108,155 109,154 109,154 110,153 110,152 110,152 110,151 110,151 111,150 111,150 112,150 112,150 113,150 113,149 113,149 114,148 114,147 114,146 115,143 115,143 116,143 117,142 118,142 119,142 119,142 120,142 121,141 121,141 122,141 123,140 123,140 124,140 125,140 125,140 126,140 126,140 127,140 128,140 129,140 130,140 131,139 131,139 133,138 134,136 135,135 136,134 136,134 136,132 136,132 137,131 137,130 138,130 138,129 139,129 138,129 138,128 138,127 138,127 138,127 137,126 137,126 138,123 139,123 140,122 140,121 139,121 136,120 135,120 135,120 134,120 134,120 132,118 132,118 131,117 131,117 130,116 127,115 126,115 126,115 125,113 125,113 125,113 123,112 123,112 121,112 118,111 118,110 117,109 117,109 117,109 117,109 117,109 117,109 116,109 116,108 115,108 115,107 114,107 114,107 111,108 111,108 110,108 109,108 109,108 108,108 108,108 108,107 108,107 107,107 106,107 106,107 106,107 105,106 104,106 103,106 103,106 103,106 103,106 102,106 102,106 101,105 101,105 101,105 101,105 100,104 99,104 99,104 99,103 99,103 97,103 97,103 97,102 97,102 97,102 96,101 95,100 95,100 95,99 95,98 94,97 95,97 95,97 95,97 95,97 95,97 95,96 95,96 95,96 95,96 95,96 95,96 95,96 94,96 94,95 93,95 93,95 93,96 93,96 93,96 92,96 92,96 91,96 90,96 90,96 88,96 88,96 88,96 88,96 88,97 87,97 87,97 87,97 87,97 87,97 86,98 86,98 86,98 86,99 86,99 86,99 85,100 85,100 84,100 84,100 83,101 82,101 82,101 82,101 82,101 81,101 80,102 80,102 80,102 80,102 80,101 80,101 81,100 81,100 81,100 81,100 82,99 82,99 82,99 82,99 82,98 81,98 81,97 81,97 81,97 81,97 81,97 81,97 81,97 80,97 80,96 80,96 80,96 80,96 80,96 80,96 80,96 78,95 76,96 76,97 73,98 72,99 70,99 69,100 67,101 64,100 62,98 60,97 59,97 57,95 55,93 55,89 55,89 54,88 54,88 53,88 53,87 53,86 53,85 53,85 52,84 52,84 53,84 52,84 52,84 52,84 53,84 52,83 52,83 52,83 50,79 49,80 48,80 46,81 46,79 45,79 44,79 44,79 43,79 43,79 42,79 42,79 42,80 42,80 41,80 41,80 40,81 39,81 39,81 38,82 38,82 38,82 38,82 38,83 38,83 37,84 37,84 37,84 36,84 36,84 36,85 34,86 34,86 33,87 33,87 33,87 32,87 31,87 30,87 29,87 27,87 26,88 24,88 24,88 23,88 23,87 23,87 24,86 25,86 25,86 26,86 26,85 26,85 26,85 26,84 25,84 24,84 24,84 24,84 23,84 23,85 22,85 21,85 20,85 20,85 19,84 19,83 18,82 18,82 17,81 17,81 16,81 16,81 15,81 14,80 14,80 13,79 13,79 13,78 13,78 13,77 12,77 11,77 11,77 10,76 10,76 10,76 10,75 10,75 10,75 11,74 11,74 11,73 11,73 10,73 9,73 9,73 7,73 6,73 5,73 4,73 3,72 3,72 2,71 2,71 2,71 2,70 1,70 1,70 0,69 0,69 0,69 1,68 1,68 3,68 4,68 5,68 5,67 6,67 6,66 6,66 7,66 8,66 8,66 9,66 9,66 9,66 10,66 10,66 11,66 11,66 11,67 12,66 13,65 14,65 14,65 14,65 14,64 14,64 15,64 15,64 15,63 15,63 15,63 16,63 16,63 17,63 17,62 17,62 18,62 18,62 19,62 19,62 19,62 20,62 20,61 20,61 21,61 21,60 21,60 22,60 22,60 23,60 24,61 25,61 26,61 26,60 26,60 28,61 28,60 29,61 30,61 30,61 31,61 31,61 32,60 32,60 33,60 34,60 34,60 34,61 35,61 35,61 35,61 36,61 37,61 37,60 37,60 38,60 39,59 39,59 39,59 40,59 40,59 40,59 40,59 41,58 41,58 41,58 42,58 42,58 42,58 43,58 43,58 43,57 43,57 44,57 45,57 45,57 45,57 45,57 46,58 46,55 46,53 46,51 46,50 46,48 45,48 45,48 46,46 45,45 45,44 45,43 44,42 44,41 43,40 43,39 43,38 43,37 46,36 46,35 47,35 50,33 52,33 52,28 54,21 55,21 56,21 58,21 60,21 61,20 62,20 63,19 64,18 64,17 64,17 65,17 66,16 67,16 67,16 68,16 68,16 69,15 70,14 71,14 73,14 75,14 76,14 77,14 78,14 80,13 81,13 82,12" id="3022" class="canton" fill="steelblue" stroke-width="1" stroke="white" geotype="canton" geoname="Vigan" code_insee="3022" code_departement="30" nom_departement="Gard" code_region="76" nom_region="Occitanie"/></svg>