<?xml version="1.0" encoding="utf-8"?>
<svg version="1.1" id="svgmap" xmlns="http://www.w3.org/2000/svg" xmlns:xlink="http://www.w3.org/1999/xlink" x="0px" y="0px" width="100%" height="100%" viewBox="0 0 408 500">
<polygon points="12,78 12,78 12,78 13,78 13,77 14,77 14,76 15,75 15,75 15,75 16,74 18,73 18,73 19,72 20,71 21,70 21,70 22,70 34,68 34,68 36,68 37,68 37,69 37,68 37,69 38,69 38,69 39,69 39,69 39,69 39,69 48,75 53,78 53,78 57,81 57,81 57,81 56,82 57,82 58,83 59,83 63,85 64,86 64,86 64,87 66,87 66,87 67,89 67,89 65,89 65,89 65,89 65,89 65,90 65,90 67,90 68,90 69,91 70,90 69,92 72,92 72,92 84,91 84,90 84,89 100,89 112,84 118,82 130,77 138,77 144,76 144,74 144,74 143,70 143,69 141,65 141,63 141,60 141,60 141,59 142,57 143,56 143,55 144,53 144,52 143,52 141,51 144,48 168,29 169,27 172,28 172,27 173,27 173,27 173,27 174,27 176,26 176,26 177,26 178,26 178,25 179,25 179,24 179,23 179,23 180,22 180,21 181,21 181,21 182,21 181,18 182,16 183,15 184,16 185,17 188,15 189,16 190,16 193,17 194,17 194,17 196,17 197,16 198,16 199,15 198,14 199,13 198,12 201,11 201,11 202,11 201,10 202,10 202,9 204,9 204,8 202,8 202,8 205,8 206,8 207,6 205,5 208,4 208,3 209,2 208,1 209,0 210,0 211,1 210,1 211,2 212,3 214,4 215,6 217,7 218,7 220,7 220,9 219,9 219,10 219,10 220,10 221,10 222,12 223,12 223,13 223,14 224,14 226,17 228,16 229,17 230,17 231,18 232,20 233,20 234,21 235,22 235,24 239,25 242,25 242,27 243,29 244,31 248,35 251,36 253,36 253,37 257,39 258,40 259,40 260,41 261,42 261,43 261,44 261,45 262,46 261,46 264,50 264,50 264,51 263,52 264,54 268,53 271,57 273,58 273,60 273,60 274,61 275,62 276,59 278,57 288,52 291,52 292,53 299,60 305,65 307,66 316,73 319,76 320,77 320,77 321,77 321,78 323,79 325,80 325,81 324,81 325,82 324,83 326,84 326,85 327,85 329,86 329,87 330,88 331,88 331,89 332,89 332,89 332,90 331,91 331,91 334,93 336,95 334,100 335,102 335,102 336,103 333,104 334,104 322,110 320,110 320,111 317,113 316,113 315,114 314,113 313,115 313,116 311,118 310,120 311,120 310,121 312,122 313,123 314,125 315,128 316,129 317,131 319,132 319,134 320,134 322,142 322,143 322,144 322,144 322,145 325,149 325,150 326,151 327,154 327,157 326,159 326,161 326,162 326,163 326,163 326,166 326,168 324,170 327,172 327,177 329,179 330,182 329,183 330,186 330,188 329,188 328,193 328,194 328,195 330,201 329,202 329,202 330,204 328,204 331,214 331,221 331,223 331,223 331,225 337,238 340,246 344,253 353,268 356,267 359,268 360,268 361,270 367,280 348,284 346,285 348,290 348,290 350,296 362,361 384,421 378,426 408,446 382,462 381,463 380,463 379,464 357,474 357,474 357,474 357,477 356,477 355,478 355,478 354,478 353,478 352,478 351,479 351,479 351,479 351,479 351,479 350,481 350,482 349,486 349,487 349,487 349,487 349,487 349,487 348,487 346,487 346,487 346,487 346,488 344,488 343,489 342,490 341,490 341,491 339,492 337,493 336,493 333,495 329,497 328,497 325,498 324,499 324,499 324,499 324,498 323,498 322,499 321,500 321,500 321,500 321,500 320,500 320,500 319,500 318,500 317,500 317,500 316,499 312,497 311,497 310,497 306,494 305,493 303,492 301,492 300,491 298,490 297,489 295,489 293,488 292,487 291,486 290,486 289,485 289,484 287,484 287,483 287,483 286,482 286,482 286,480 286,480 286,480 286,479 286,478 286,478 286,478 286,477 286,477 287,476 287,476 288,475 288,475 289,474 290,474 291,473 296,470 296,470 297,470 297,469 298,469 298,469 299,468 299,468 299,468 299,467 300,467 300,466 300,466 300,466 300,465 300,465 299,465 299,464 299,464 298,463 298,462 297,462 297,462 296,461 295,461 295,460 293,459 293,459 291,459 291,459 291,459 291,459 291,458 292,458 296,454 290,450 277,445 273,443 261,439 259,439 258,437 256,437 253,436 247,436 239,437 238,437 231,438 239,421 240,418 241,416 243,410 241,403 241,395 190,398 183,384 174,369 169,363 177,354 180,352 185,353 191,350 188,348 184,344 186,342 185,336 196,328 192,323 187,324 187,328 181,330 180,328 176,329 174,327 173,329 171,330 171,331 168,333 166,334 164,335 167,337 167,338 167,341 160,343 158,345 156,345 153,348 150,349 149,347 146,346 147,344 148,342 150,341 150,340 151,340 152,339 162,324 162,320 169,304 169,303 172,300 180,280 187,271 188,268 190,267 190,259 189,256 189,255 188,254 180,235 170,216 153,212 154,211 153,210 154,209 152,205 151,197 152,196 154,195 154,193 155,192 155,191 157,190 159,190 161,186 162,185 164,183 163,182 165,181 164,180 164,180 165,180 167,179 169,178 168,176 166,173 167,171 170,170 170,168 172,165 172,162 174,160 176,160 179,156 180,157 181,155 181,155 181,155 181,154 174,157 166,159 163,160 161,161 156,164 150,166 143,167 141,167 138,168 135,168 131,169 120,168 114,167 110,166 104,166 102,166 100,167 97,169 96,170 94,170 92,169 91,171 91,171 91,172 90,172 85,173 80,175 75,175 72,176 70,176 66,177 63,176 58,177 55,178 51,178 49,178 47,178 46,178 49,177 50,176 50,176 50,176 52,173 54,171 55,170 57,168 58,167 59,167 59,167 58,166 58,166 58,166 59,164 59,164 59,164 59,163 59,163 58,163 58,162 58,161 58,161 58,161 58,161 58,161 58,161 58,161 58,161 58,160 58,160 58,159 57,159 57,159 57,158 57,158 57,156 57,156 57,155 57,155 57,154 57,153 57,153 57,153 57,152 57,152 57,152 57,151 57,151 57,151 56,150 56,150 56,149 55,148 55,148 55,148 54,147 54,146 54,146 53,146 53,145 53,145 53,144 53,144 52,143 52,142 52,142 52,142 52,141 51,141 51,141 51,141 51,141 51,140 51,140 51,139 51,139 51,138 51,138 50,138 49,138 49,138 49,138 49,137 49,137 48,136 48,136 48,136 48,136 48,135 47,135 47,134 47,134 47,134 46,134 46,134 45,134 43,133 43,133 43,133 43,133 42,133 42,133 41,133 38,134 36,134 35,135 33,135 33,135 32,135 32,135 32,135 32,135 29,135 27,134 27,134 25,133 25,133 24,133 23,133 22,132 22,132 21,132 20,132 20,131 16,130 15,129 15,129 13,128 13,128 12,128 10,127 10,127 9,127 8,126 6,125 4,124 4,124 4,124 4,123 3,123 3,122 1,119 0,118 1,118 1,117 0,111 1,108 2,103 7,99 9,95 9,95 10,93 10,92 11,92 11,90 12,90 12,88 12,87 13,86 11,84 11,82 12,81 12,78" id="3021" class="canton" fill="steelblue" stroke-width="1" stroke="white" geotype="canton" geoname="Vauvert" code_insee="3021" code_departement="30" nom_departement="Gard" code_region="76" nom_region="Occitanie"/></svg>