<?xml version="1.0" encoding="utf-8"?>
<svg version="1.1" id="svgmap" xmlns="http://www.w3.org/2000/svg" xmlns:xlink="http://www.w3.org/1999/xlink" x="0px" y="0px" width="100%" height="100%" viewBox="0 0 500 366">
<polygon points="149,0 150,0 154,2 159,4 163,5 164,6 168,7 171,8 172,9 173,10 180,15 182,16 189,22 192,24 194,25 199,27 204,29 209,30 211,32 214,33 216,34 218,34 222,36 224,39 226,40 226,41 225,44 226,45 228,46 231,47 232,47 232,48 232,50 231,52 231,54 231,55 233,57 235,58 235,60 238,63 241,67 244,73 245,74 247,77 247,80 248,81 249,82 250,84 251,86 252,87 252,89 252,90 252,93 252,95 251,98 251,99 252,103 253,105 253,107 254,109 259,112 259,113 270,105 270,105 272,104 273,103 274,104 277,102 270,95 270,95 277,92 278,92 277,91 280,90 280,90 287,94 287,95 288,96 289,96 289,96 290,96 291,97 291,98 292,99 294,102 294,103 295,104 298,105 301,108 302,107 302,107 301,104 301,103 300,102 299,100 297,97 297,96 296,95 296,95 303,92 303,92 304,93 307,95 309,91 310,91 310,91 313,92 313,92 318,90 319,89 320,89 320,89 321,87 321,87 324,87 324,86 324,84 325,84 329,85 329,85 329,87 331,86 331,86 335,89 336,88 337,88 340,86 340,86 340,86 342,85 340,83 340,83 337,81 337,81 337,81 333,78 335,75 335,75 338,72 338,72 341,67 341,66 344,64 346,62 347,60 349,60 349,60 350,56 350,56 348,54 348,53 348,53 349,51 349,51 349,50 349,49 348,48 348,48 349,43 350,44 353,44 355,45 356,45 357,46 359,48 361,51 363,52 363,52 364,52 368,53 369,53 369,53 370,53 371,53 370,53 370,53 371,54 372,54 372,55 372,55 372,57 372,57 372,57 371,58 371,58 370,58 369,58 369,59 368,59 368,60 368,60 367,61 366,61 366,62 365,63 364,64 364,64 364,64 364,65 363,65 363,67 362,68 362,69 361,70 361,71 361,72 361,72 361,73 361,74 361,74 360,75 360,76 359,77 358,78 358,78 357,79 357,80 357,80 356,81 356,82 355,83 355,84 355,84 355,85 355,85 356,86 356,87 362,86 363,86 363,86 364,88 364,90 365,91 366,94 367,96 368,98 368,98 366,100 366,100 367,101 367,101 371,103 374,104 375,105 376,105 380,108 383,109 384,109 389,111 391,113 393,113 398,117 401,119 401,119 402,120 402,120 404,120 407,122 411,124 414,125 418,126 428,128 428,128 433,127 433,127 433,128 433,128 433,128 436,129 436,129 437,128 438,127 439,126 445,127 447,127 448,127 449,126 450,128 452,130 453,131 453,131 454,132 454,132 454,132 454,133 454,133 454,134 454,134 454,134 455,134 456,134 456,135 458,133 459,133 460,133 461,133 462,133 465,136 465,136 468,137 468,138 468,139 466,140 466,140 466,142 465,143 463,147 463,149 463,150 463,151 463,152 463,153 462,154 461,155 460,157 459,158 458,159 457,160 456,161 455,163 455,163 455,165 455,165 454,166 454,167 454,167 454,169 454,169 454,170 453,170 451,171 448,174 446,175 445,176 444,176 442,176 441,177 438,178 436,179 436,179 434,180 433,180 433,181 432,181 431,182 431,182 430,183 430,184 429,184 429,184 427,183 426,183 425,183 425,183 424,183 423,183 422,183 415,186 415,186 415,186 415,187 415,187 416,195 417,196 419,203 419,202 419,202 425,200 426,199 427,200 427,200 430,201 430,201 431,201 429,203 429,203 429,204 430,204 430,204 430,204 433,207 434,207 438,210 438,210 438,210 438,211 439,211 440,212 443,212 444,213 447,214 448,214 450,215 450,215 451,215 452,216 453,217 456,218 456,218 455,219 455,219 455,220 458,221 459,221 459,221 460,220 463,221 467,221 466,223 466,223 466,224 467,224 468,225 469,225 468,230 468,230 469,231 469,231 469,231 469,231 477,227 478,227 478,227 479,227 480,229 480,230 488,233 489,233 492,234 491,235 490,236 490,236 492,237 494,238 489,242 487,243 486,244 486,244 486,244 490,246 489,247 491,248 492,248 495,250 495,250 495,250 500,254 500,254 497,257 495,262 495,262 495,264 495,265 495,266 495,266 496,268 497,271 497,272 497,272 497,273 497,273 497,273 495,275 495,275 494,276 494,276 493,277 493,277 493,277 489,278 488,278 488,278 488,277 488,277 487,277 486,277 485,277 484,276 482,276 481,276 481,276 480,276 478,276 478,276 477,275 477,275 476,275 476,274 475,274 475,274 471,272 470,272 468,271 467,271 466,271 463,272 463,272 461,273 458,274 456,274 451,277 447,278 445,279 442,280 441,281 440,281 441,282 442,282 443,282 452,280 453,280 454,280 456,280 465,278 464,280 464,281 464,282 462,285 461,287 461,287 461,287 460,288 458,291 458,291 457,292 455,294 453,296 453,297 452,298 452,299 452,301 444,298 443,298 442,298 441,298 441,299 440,299 440,299 439,299 439,299 439,298 437,298 437,298 437,298 436,298 435,298 434,298 433,298 433,299 433,300 433,300 432,301 432,301 432,301 431,301 431,301 431,300 431,299 430,299 430,299 430,299 429,300 428,301 428,302 427,303 427,303 427,304 426,304 425,305 425,306 426,307 426,308 426,310 426,312 426,313 426,314 427,317 427,318 427,320 429,322 429,324 429,324 431,326 431,327 432,327 432,327 429,328 429,328 426,329 425,330 422,331 404,336 403,336 403,333 403,333 395,335 398,344 398,345 400,350 400,351 400,351 400,352 401,352 402,365 402,366 401,364 400,364 397,363 395,362 389,362 386,358 377,355 373,356 370,354 368,353 367,353 362,353 353,354 351,352 351,351 350,341 347,338 343,336 341,335 336,334 336,335 332,336 330,336 326,337 323,338 321,338 320,339 316,339 315,340 314,340 311,339 309,339 308,338 307,337 306,334 305,332 304,332 304,330 304,329 297,331 298,333 298,334 296,335 288,333 271,334 250,334 244,331 243,329 239,323 239,323 240,314 243,309 245,305 245,304 246,303 246,300 246,300 246,300 245,298 245,298 244,296 244,295 243,295 243,295 242,294 241,294 240,294 239,293 238,293 238,293 237,293 237,293 237,293 235,293 233,293 233,294 230,295 228,296 227,296 226,297 225,297 222,297 221,297 218,297 218,297 217,298 211,301 211,300 210,299 209,298 207,296 206,295 204,293 203,291 201,290 198,287 197,287 196,285 194,281 192,279 192,278 190,273 188,266 187,259 186,254 186,254 187,252 187,252 188,249 188,248 192,239 193,237 193,236 194,235 194,234 194,233 190,234 190,234 188,233 179,230 179,230 178,231 177,232 175,231 174,231 173,229 172,228 172,227 170,226 167,226 163,224 157,224 155,223 154,223 152,221 151,220 150,218 149,217 148,216 148,216 146,214 144,213 143,212 142,211 141,210 138,206 136,204 136,203 134,202 134,202 131,199 126,194 129,190 128,188 128,188 126,184 125,181 117,186 116,184 107,179 103,172 103,169 103,165 109,153 110,150 105,145 91,135 88,133 68,128 60,125 57,123 53,116 44,104 39,95 35,90 28,89 18,86 15,83 6,78 2,75 1,74 0,68 0,65 3,59 4,59 7,60 10,60 15,59 16,60 17,60 18,60 19,60 19,60 20,60 21,61 24,64 26,64 27,65 36,70 41,66 42,66 43,65 44,65 45,65 46,64 47,64 48,64 49,64 50,64 51,64 54,64 54,63 54,63 67,64 67,64 70,64 76,64 80,62 88,58 91,57 93,56 95,55 97,54 99,53 103,52 106,51 109,50 111,48 113,47 117,45 122,42 124,41 129,37 138,30 138,30 129,17 130,16 141,8 142,8 140,4 140,4 141,4 145,3 147,3 149,0" id="3105" class="canton" fill="steelblue" stroke-width="1" stroke="white" geotype="canton" geoname="Castelginest" code_insee="3105" code_departement="31" nom_departement="Haute-Garonne" code_region="76" nom_region="Occitanie"/></svg>