<?xml version="1.0" encoding="utf-8"?>
<svg version="1.1" id="svgmap" xmlns="http://www.w3.org/2000/svg" xmlns:xlink="http://www.w3.org/1999/xlink" x="0px" y="0px" width="100%" height="100%" viewBox="0 0 427 500">
<polygon points="17,66 22,58 50,23 54,19 74,0 98,2 101,2 117,4 119,3 119,4 119,4 119,4 119,5 119,5 119,5 119,5 118,6 118,6 115,8 114,8 113,8 113,8 113,8 113,8 112,8 112,8 112,8 112,8 112,8 112,9 112,9 112,9 111,10 111,10 111,11 110,16 109,19 109,20 108,21 107,23 107,25 105,27 104,28 101,31 100,32 99,34 99,34 98,35 96,38 95,40 95,42 94,45 94,47 94,49 95,52 95,54 95,55 96,57 95,58 95,59 96,63 96,64 96,69 96,69 96,70 95,70 95,70 94,71 98,71 99,71 106,71 108,71 109,71 112,71 121,72 122,72 123,72 123,72 126,72 128,72 129,72 132,72 133,72 133,72 135,72 137,72 141,71 148,71 161,69 164,68 165,68 166,68 167,68 168,68 172,70 173,70 175,70 182,73 188,74 188,74 190,74 190,74 191,74 192,73 199,70 200,70 212,65 214,64 219,62 220,62 221,61 222,61 231,57 232,57 233,57 233,58 227,66 226,66 229,68 230,69 230,70 233,71 235,73 238,74 239,75 242,77 243,77 246,79 248,80 249,80 249,81 248,82 248,83 248,84 248,85 248,86 247,87 246,89 246,89 224,97 223,97 223,97 223,97 223,98 223,98 223,98 223,99 223,99 222,99 222,99 223,100 223,100 223,100 223,100 224,100 224,100 224,100 224,100 225,100 225,100 225,100 226,101 230,104 238,110 242,114 249,119 256,114 261,111 264,109 266,107 274,102 280,97 283,96 286,93 288,92 289,91 289,91 290,91 291,91 291,91 291,91 291,90 291,89 292,89 292,90 295,93 309,106 311,109 314,112 316,116 317,121 318,130 318,132 320,136 322,139 326,141 332,144 336,146 339,148 341,150 342,151 345,155 347,157 349,161 350,165 351,169 351,182 352,185 354,189 361,199 362,202 363,205 363,209 363,215 363,224 363,235 363,239 365,243 368,246 391,265 407,278 412,282 415,285 420,288 424,290 427,292 427,293 412,294 393,300 386,305 372,312 371,312 371,313 368,317 364,321 364,322 363,323 356,327 340,333 334,336 331,337 330,337 329,337 328,338 323,343 320,344 310,351 309,351 303,355 302,356 287,363 281,372 279,374 277,376 275,381 277,389 277,399 278,400 279,400 282,403 283,404 281,410 267,409 258,413 255,412 252,415 243,410 238,416 233,422 232,422 229,424 223,433 225,439 239,452 247,459 257,475 259,481 260,481 271,496 275,498 277,498 278,500 270,499 252,492 240,486 236,486 231,483 230,481 224,478 222,478 204,467 197,465 196,466 188,460 188,459 185,457 180,457 175,455 175,454 172,454 169,451 167,451 154,447 153,448 152,445 149,444 141,442 140,442 133,440 130,436 121,432 118,431 116,429 117,428 115,427 112,426 111,427 108,426 106,424 106,423 107,421 106,420 102,418 99,418 97,417 94,417 92,417 90,418 88,417 85,414 86,411 86,409 85,404 86,403 84,402 81,401 80,400 68,398 81,390 87,377 90,321 95,302 93,291 83,287 82,286 81,286 78,280 75,278 73,275 70,272 65,267 41,257 38,255 37,253 37,244 31,226 32,216 27,200 24,182 23,177 22,166 13,145 2,127 0,112 0,100 4,89 15,69 17,66" id="3119" class="canton" fill="steelblue" stroke-width="1" stroke="white" geotype="canton" geoname="Toulouse-5" code_insee="3119" code_departement="31" nom_departement="Haute-Garonne" code_region="76" nom_region="Occitanie"/></svg>