<?xml version="1.0" encoding="utf-8"?>
<svg version="1.1" id="svgmap" xmlns="http://www.w3.org/2000/svg" xmlns:xlink="http://www.w3.org/1999/xlink" x="0px" y="0px" width="100%" height="100%" viewBox="0 0 500 322">
<polygon points="72,38 72,38 79,37 83,36 85,36 91,36 95,36 101,35 102,34 103,34 103,34 103,34 103,34 104,34 104,34 104,34 105,34 105,34 105,34 106,34 106,34 107,34 108,34 113,34 110,40 109,41 113,42 117,43 122,45 124,45 125,45 128,44 128,44 130,44 130,45 132,48 131,50 130,52 129,54 129,55 129,55 131,59 132,60 132,60 137,58 138,57 139,57 139,57 140,58 141,58 142,58 142,59 142,59 142,59 142,59 143,59 143,59 143,60 143,60 144,61 144,62 143,64 143,64 143,64 143,64 151,76 151,77 154,81 155,82 159,83 160,83 162,83 165,84 167,85 167,85 167,85 167,85 168,85 168,85 169,85 171,83 171,83 172,83 177,79 178,78 178,78 178,78 178,78 179,78 179,78 179,78 179,78 179,78 179,78 179,78 179,77 184,73 185,73 185,73 186,73 186,73 186,73 186,73 186,73 187,73 187,73 188,73 192,74 197,76 198,76 198,76 198,76 199,76 199,76 199,77 200,77 200,77 200,77 201,77 201,77 201,78 202,80 203,80 203,80 203,80 203,81 204,81 204,81 204,81 205,81 212,79 220,77 225,76 226,76 221,64 222,63 222,62 221,60 237,41 239,38 240,37 242,35 244,33 246,31 248,30 251,28 254,26 258,25 271,20 274,24 278,31 282,37 286,44 290,50 294,57 300,66 303,70 305,69 307,67 308,66 308,66 308,65 308,65 309,65 309,65 309,65 310,65 312,64 314,63 318,61 323,59 324,58 325,58 325,58 326,57 329,55 330,54 331,53 332,52 335,49 336,47 338,45 339,45 339,44 340,42 343,39 344,38 344,37 347,33 347,33 347,33 348,31 349,31 353,32 355,33 358,34 360,35 366,36 367,37 369,37 369,38 369,38 369,38 369,38 367,41 367,43 367,43 366,43 366,44 366,44 366,44 365,45 365,46 365,46 365,47 364,47 364,48 364,48 364,48 363,48 363,49 360,49 360,50 360,50 358,53 358,53 358,54 358,54 358,54 363,55 363,55 366,56 367,56 373,58 379,60 380,60 381,60 383,61 383,61 385,58 389,51 390,48 392,44 393,40 393,38 394,34 396,29 397,22 398,16 399,9 400,1 400,0 400,0 401,1 403,2 404,2 409,6 412,8 417,11 417,11 418,11 426,16 426,17 429,19 430,19 430,20 431,20 431,20 432,20 432,20 432,21 433,21 434,21 435,22 442,23 440,26 432,41 430,49 429,58 431,69 439,83 446,98 446,106 447,110 450,123 453,136 453,143 457,157 457,163 458,164 460,166 478,174 481,177 483,180 485,181 487,183 489,188 490,188 491,188 498,191 500,199 496,213 494,256 490,265 480,271 471,270 454,267 442,265 441,264 433,263 433,263 432,264 430,263 428,264 427,264 413,269 409,271 400,277 389,272 371,264 353,258 321,245 288,278 275,269 266,279 258,273 236,293 226,293 223,294 220,297 214,307 212,309 202,311 198,312 194,315 189,319 185,322 159,305 151,310 145,306 137,290 134,283 137,282 99,261 59,241 56,240 73,233 81,230 89,226 93,224 101,218 87,208 83,205 77,202 66,195 49,185 36,182 28,180 26,179 22,179 17,178 3,174 9,161 16,153 17,151 18,145 18,144 18,141 17,141 18,139 19,138 20,136 21,134 24,132 38,123 44,117 50,112 60,105 62,94 62,94 40,81 1,58 0,58 0,58 5,56 15,53 20,51 25,50 32,48 68,39 72,38" id="3120" class="canton" fill="steelblue" stroke-width="1" stroke="white" geotype="canton" geoname="Toulouse-6" code_insee="3120" code_departement="31" nom_departement="Haute-Garonne" code_region="76" nom_region="Occitanie"/></svg>