<?xml version="1.0" encoding="utf-8"?>
<svg version="1.1" id="svgmap" xmlns="http://www.w3.org/2000/svg" xmlns:xlink="http://www.w3.org/1999/xlink" x="0px" y="0px" width="100%" height="100%" viewBox="0 0 500 269">
<polygon points="265,6 266,6 267,6 267,6 268,5 268,5 268,5 269,5 269,5 271,5 272,5 273,5 273,5 274,4 275,4 275,4 275,4 276,4 276,4 276,4 277,4 277,4 277,4 278,3 279,3 282,2 289,3 289,3 289,3 291,3 292,2 292,2 292,2 293,2 299,0 301,0 301,0 302,1 302,1 302,1 302,1 302,1 303,2 303,2 303,2 304,3 304,3 304,4 305,4 305,4 305,4 305,5 306,5 306,5 307,5 307,5 307,6 307,6 307,6 308,6 308,6 311,7 311,7 312,7 312,8 313,8 313,8 313,8 313,9 312,11 311,11 311,11 311,11 311,11 310,12 310,13 310,13 310,14 309,14 309,14 309,15 309,15 309,15 308,16 308,17 309,18 309,18 308,18 308,18 307,19 306,19 306,19 306,20 305,20 304,20 304,20 304,20 303,20 302,19 301,18 301,18 301,18 299,20 297,23 296,24 293,27 292,28 292,28 291,30 291,31 290,32 290,32 290,34 290,34 289,35 289,36 288,37 288,37 289,37 289,37 293,38 293,38 294,38 294,38 295,38 295,38 296,39 297,39 297,39 298,39 298,40 299,40 299,41 301,41 301,42 301,42 302,42 303,43 304,43 304,44 305,44 305,44 305,44 306,44 306,44 306,44 307,44 307,44 307,44 307,44 308,44 308,44 308,44 309,44 309,44 309,44 310,44 311,44 317,44 318,44 319,44 320,44 321,44 321,44 324,45 325,45 327,46 327,46 327,46 328,46 328,46 328,46 328,47 329,47 329,48 329,48 330,48 332,50 332,51 333,51 333,51 333,51 333,51 333,51 334,51 334,50 334,50 334,50 334,50 335,50 335,51 336,51 336,51 337,51 338,52 339,52 339,52 339,52 339,52 340,52 340,52 340,51 340,51 340,51 339,51 338,50 337,49 337,49 337,49 337,48 336,48 336,47 336,47 336,46 337,46 337,46 337,46 338,46 338,46 339,47 339,47 339,47 339,47 340,47 341,47 342,47 342,47 343,47 343,47 344,46 344,46 344,46 344,46 344,46 345,46 345,46 345,45 345,44 345,44 345,44 345,44 345,44 347,45 349,45 349,45 349,45 349,45 349,45 349,45 349,46 349,46 349,46 349,46 349,47 349,47 351,47 351,47 352,47 352,47 352,47 353,47 354,48 354,48 355,48 355,48 357,48 358,48 358,48 358,48 358,48 358,47 358,47 358,47 358,46 359,46 360,46 361,45 361,45 361,45 361,44 361,44 361,43 361,42 362,42 362,42 362,42 364,42 364,42 364,42 364,42 365,42 365,42 365,41 365,41 366,41 367,41 367,41 370,41 370,41 374,42 374,42 377,42 377,42 377,43 378,43 382,43 383,42 384,42 384,42 385,42 385,42 387,44 387,44 386,44 391,50 392,50 392,50 395,52 395,52 395,52 394,53 394,53 396,54 396,54 396,54 397,54 397,55 397,55 397,55 397,55 397,55 397,55 397,56 398,59 398,59 398,59 397,60 396,61 394,65 395,65 394,67 393,68 392,68 392,68 391,70 389,72 389,72 392,74 392,74 389,74 388,75 390,77 391,77 392,78 392,78 392,78 391,78 391,78 391,78 391,78 390,79 390,79 390,79 389,79 389,79 389,79 389,79 389,79 389,80 389,80 389,80 389,80 390,81 391,81 393,83 393,83 394,84 394,84 395,84 396,85 397,85 398,86 398,86 399,86 399,86 400,86 400,86 400,87 400,87 401,87 401,88 401,88 401,88 401,88 401,88 402,88 403,89 403,90 403,90 404,90 404,91 404,91 405,92 405,92 405,92 405,92 404,93 404,93 404,93 405,94 405,94 405,94 405,95 406,95 406,96 406,96 406,96 406,97 406,98 407,98 407,98 407,98 410,100 411,101 411,101 412,102 412,102 413,103 413,103 413,104 413,104 414,104 414,104 414,104 414,104 414,105 415,105 415,105 415,106 416,107 416,107 416,107 416,108 417,108 417,108 417,108 417,109 418,109 419,109 421,110 423,111 423,111 423,112 426,112 426,112 426,112 427,112 427,112 428,112 429,112 429,112 430,112 431,111 431,111 432,111 432,111 433,110 433,110 434,110 434,109 434,109 435,109 436,109 436,108 437,108 437,108 437,108 437,108 439,108 439,107 440,107 441,107 441,107 441,107 441,107 441,107 441,107 441,107 442,107 442,106 442,106 442,107 442,107 442,107 442,106 442,106 443,106 443,106 443,106 443,106 444,106 444,106 444,106 444,105 444,105 445,105 444,105 444,105 445,104 445,104 445,104 445,103 446,103 446,103 446,103 446,103 446,102 446,102 446,102 446,102 446,102 446,101 446,101 447,101 447,101 447,101 447,101 447,100 447,100 448,100 448,100 448,100 448,99 448,99 448,99 448,99 448,99 449,99 449,99 449,99 449,99 449,99 449,98 449,98 450,98 450,98 450,98 450,98 450,98 450,98 451,98 451,98 451,98 451,98 451,98 451,97 451,97 451,97 451,97 451,97 451,97 452,97 453,96 453,96 453,96 454,96 454,96 454,95 454,95 454,95 455,95 455,95 455,95 455,95 455,94 455,94 455,94 455,94 456,94 456,94 456,94 456,94 456,94 456,94 456,93 456,93 456,93 456,93 457,93 457,93 457,93 457,93 457,92 457,92 457,92 458,92 458,92 458,92 458,92 458,92 458,92 458,92 472,109 472,109 473,109 473,109 473,109 474,109 475,110 475,110 476,110 476,110 476,110 477,110 477,110 477,110 477,110 477,111 477,111 477,111 478,111 478,111 478,111 478,111 479,111 479,111 479,111 480,111 480,112 481,112 481,112 482,113 482,113 483,113 483,113 484,113 484,113 481,115 479,117 479,117 479,117 480,117 480,117 480,117 481,117 481,117 482,117 482,117 482,117 483,117 485,118 485,118 486,118 487,119 487,119 488,120 490,121 490,121 491,122 492,123 494,124 497,126 497,126 497,128 497,128 497,131 497,131 497,131 497,133 496,135 495,138 495,138 494,141 497,141 497,141 495,144 495,145 495,145 494,149 494,149 495,150 495,150 496,158 496,158 496,158 497,159 499,159 500,160 500,160 500,160 498,165 497,165 495,169 495,169 494,169 494,169 493,176 486,173 486,173 484,173 483,173 478,172 478,172 475,171 473,171 472,170 472,170 470,170 469,169 468,169 467,168 466,168 466,168 466,168 464,170 463,170 462,171 462,171 462,170 461,170 460,171 458,171 459,171 457,172 456,172 452,174 450,174 445,173 445,173 443,172 439,171 433,169 427,167 423,166 423,166 425,167 426,168 428,169 427,172 426,177 425,181 424,183 423,185 422,185 420,187 419,190 418,193 418,194 418,195 417,196 415,197 415,198 414,199 414,199 412,198 411,197 410,197 410,197 408,198 407,198 406,198 404,198 401,199 398,199 397,200 396,200 395,200 392,199 392,199 391,199 388,199 388,199 386,199 386,199 385,199 385,199 384,199 383,200 382,201 382,201 380,201 380,201 380,201 380,202 380,202 379,202 379,202 379,202 379,201 379,201 379,201 377,201 375,201 374,201 372,202 371,201 369,201 368,201 367,201 366,201 365,201 363,201 361,202 361,202 357,203 356,203 354,203 351,203 349,202 348,202 347,202 345,202 344,202 342,201 340,201 339,200 337,200 336,199 333,199 333,199 333,199 333,202 335,204 335,204 335,204 336,204 336,205 336,205 336,206 336,206 336,208 336,208 336,209 336,212 336,212 337,212 338,212 338,212 340,212 340,212 343,211 344,211 345,211 345,211 345,214 345,214 346,215 346,215 346,216 346,216 346,217 345,218 345,218 345,219 345,219 345,220 345,220 344,220 344,220 344,221 343,222 343,222 343,222 342,222 342,223 342,223 342,223 341,223 341,224 341,224 341,224 341,224 340,225 340,225 340,226 339,226 339,226 338,226 338,226 338,226 337,226 337,226 336,226 335,226 335,226 334,227 333,227 332,229 331,229 331,229 330,228 329,228 328,229 328,229 327,229 327,229 326,230 325,231 324,232 323,232 322,234 321,235 321,235 321,235 321,235 320,237 319,238 318,238 317,239 316,239 316,239 315,239 312,240 311,240 309,241 306,241 306,242 305,241 304,240 304,239 304,239 303,238 303,238 302,237 304,235 304,236 306,234 305,233 304,232 304,232 303,232 302,231 301,231 300,230 299,230 299,229 298,228 297,227 296,226 295,225 295,225 295,224 295,224 295,223 294,221 294,219 288,219 288,216 286,216 284,217 281,217 279,217 278,217 276,216 274,216 269,216 267,216 264,217 261,217 259,217 257,218 255,221 255,223 254,225 254,225 251,228 250,229 249,229 247,228 245,228 245,229 244,228 243,228 241,228 240,228 239,230 238,230 236,231 235,231 233,230 229,229 222,227 222,226 221,226 220,227 218,227 218,227 218,228 218,228 217,228 216,228 216,228 216,228 216,228 215,229 214,229 214,229 214,229 214,229 214,230 214,231 214,231 214,231 214,231 213,232 213,233 213,233 212,234 212,235 212,236 211,236 211,236 211,236 209,237 209,238 209,238 208,238 208,239 208,240 208,240 207,241 206,241 205,241 205,242 205,242 205,242 204,242 204,243 203,243 203,243 203,243 202,243 202,243 202,244 203,244 203,245 203,245 203,245 203,246 203,246 202,246 202,246 202,247 202,247 202,248 201,249 201,249 201,250 200,250 200,251 199,251 199,251 199,251 199,252 198,253 198,253 198,253 198,254 198,254 197,254 197,254 197,254 196,254 196,254 196,254 196,254 196,255 196,255 195,255 195,255 195,255 195,255 195,255 195,255 195,255 194,256 194,256 194,256 193,258 193,258 192,259 191,259 191,260 191,260 190,260 190,260 190,261 190,261 189,262 189,262 188,264 188,264 188,265 188,265 188,265 188,266 188,266 188,266 188,267 188,268 187,268 187,268 187,268 187,268 187,269 187,269 187,269 187,269 185,269 185,269 184,269 183,269 183,269 182,269 182,269 179,268 179,268 178,267 178,267 178,267 177,267 177,267 176,267 174,267 174,266 170,264 170,264 167,262 167,262 167,262 164,262 161,261 160,261 158,260 157,260 157,260 157,260 157,260 156,261 156,261 155,261 153,261 153,261 150,260 148,259 147,259 147,259 145,258 145,258 144,257 143,257 139,257 139,257 138,257 135,256 135,256 132,255 132,255 131,255 131,255 130,254 130,254 129,253 128,253 128,253 128,253 128,253 128,253 127,252 127,252 127,252 127,251 127,251 127,251 127,251 127,251 127,250 126,249 126,249 126,249 126,249 126,248 125,248 125,247 124,246 124,246 124,246 123,245 123,245 123,245 122,243 121,242 121,241 120,241 120,240 119,240 117,239 116,238 115,237 113,236 111,234 109,233 109,233 108,233 108,232 107,232 107,232 107,231 107,231 107,231 107,231 107,230 108,230 110,230 110,229 110,229 111,229 111,228 111,228 111,228 111,227 111,227 111,227 111,227 111,226 111,226 111,226 111,226 111,226 112,225 112,224 113,224 115,223 116,222 117,222 117,221 119,220 120,219 121,219 121,218 121,218 121,218 121,219 121,219 121,219 121,219 121,220 121,220 122,220 122,220 123,220 123,220 123,220 123,219 124,219 125,217 126,217 126,216 127,216 127,215 128,215 128,214 128,213 128,213 128,213 128,212 129,212 130,211 131,211 131,210 132,210 132,210 132,210 132,209 132,209 132,209 131,209 131,209 131,209 131,208 132,208 132,208 132,207 132,207 132,206 133,205 134,204 134,203 135,203 135,202 135,202 135,202 136,201 136,201 136,201 137,200 137,199 137,199 137,198 137,198 137,198 137,197 137,197 137,197 138,197 138,197 139,197 139,197 139,197 139,196 139,195 139,194 139,194 139,194 139,194 139,193 140,193 140,193 140,193 141,194 141,194 142,194 144,195 146,196 147,197 148,197 148,196 148,196 148,196 149,195 149,195 150,194 151,193 151,193 151,193 151,193 152,192 152,192 152,192 153,192 153,191 154,190 154,189 155,189 155,189 155,189 155,189 155,190 156,190 156,190 156,190 157,190 157,190 157,190 158,190 158,190 158,189 158,189 158,189 158,189 158,189 159,189 159,189 160,188 160,188 160,188 160,188 160,188 160,187 160,187 160,187 160,186 160,186 160,186 161,186 162,186 162,186 163,185 164,184 164,184 164,183 164,183 164,183 163,183 163,182 163,182 162,182 162,182 162,181 162,181 163,180 163,180 163,179 164,179 164,179 164,179 164,179 166,179 166,179 166,179 166,179 166,179 166,178 167,178 167,178 167,177 167,177 167,177 168,177 168,177 168,177 169,177 169,177 170,176 170,176 170,176 170,176 169,175 169,175 167,175 167,175 167,175 166,174 166,174 166,174 165,174 165,174 163,174 162,173 159,172 158,172 158,172 157,172 157,172 156,172 156,172 155,171 155,171 154,171 153,171 152,171 150,170 150,170 149,170 149,170 149,170 149,170 148,170 148,170 147,169 147,169 146,170 146,170 146,170 146,170 145,170 145,170 144,169 143,169 143,169 142,169 142,169 141,169 139,168 139,168 139,169 139,169 138,169 138,169 138,169 137,168 137,168 137,168 136,168 136,168 136,168 135,168 135,168 134,168 134,168 133,168 133,168 133,168 132,167 132,167 131,167 131,167 131,167 130,167 130,166 130,166 129,166 129,166 128,166 127,165 127,165 127,164 125,164 125,163 124,163 124,163 122,161 120,160 119,160 119,160 118,159 118,159 117,159 117,159 117,158 116,158 116,158 114,156 114,156 114,156 113,156 113,155 112,155 111,154 111,153 110,153 109,152 109,152 109,152 108,153 107,153 107,153 105,153 105,153 105,153 104,153 102,154 102,154 101,154 101,154 100,154 99,155 98,155 97,156 96,157 96,157 96,157 96,158 96,158 95,159 95,159 95,159 95,158 95,158 94,158 93,159 93,159 91,159 91,159 91,159 89,159 87,158 86,158 85,160 85,160 85,161 84,161 84,161 84,161 81,160 80,159 80,159 79,161 79,161 77,160 77,160 75,160 74,160 71,159 71,159 71,159 71,159 71,160 71,161 70,161 70,162 70,162 70,164 70,164 69,167 69,167 69,167 68,167 68,167 66,167 65,168 66,169 66,170 63,174 63,174 61,179 61,181 61,181 60,182 59,182 57,183 57,183 57,183 56,183 57,184 57,184 56,185 56,185 55,186 55,186 55,186 54,188 53,189 52,189 51,190 51,190 51,190 50,192 50,192 46,194 46,194 39,198 36,199 35,199 35,200 30,203 30,203 30,204 30,204 30,207 30,207 30,209 30,210 30,211 30,211 30,212 30,212 29,212 29,212 29,212 29,212 28,212 28,212 28,212 28,212 28,212 28,212 25,211 25,211 24,211 24,210 23,210 22,210 22,210 22,210 22,210 21,210 21,210 20,210 20,210 19,210 18,209 18,209 17,209 16,209 16,209 15,209 13,209 12,209 12,209 11,209 11,209 11,209 11,209 11,209 10,209 10,208 10,208 7,205 6,205 5,204 5,204 4,204 4,204 4,204 4,203 4,203 3,203 3,203 3,203 3,202 3,202 2,201 1,201 1,200 1,200 0,200 0,200 0,199 0,199 0,199 0,199 0,198 1,198 1,198 1,198 3,198 4,198 4,198 6,194 6,194 6,194 6,194 5,193 5,193 6,192 6,192 4,187 4,187 5,186 5,186 8,184 8,184 8,183 10,182 13,180 13,180 16,178 16,178 16,178 15,177 14,177 13,176 13,176 13,175 12,175 12,175 10,174 8,173 8,173 8,173 8,172 7,172 6,171 5,171 5,171 5,170 5,170 7,168 7,168 9,168 9,168 9,168 10,168 11,168 11,168 11,168 12,168 12,167 12,167 14,167 14,166 15,166 16,166 17,166 19,166 20,166 20,166 21,165 22,165 23,165 24,164 24,164 24,164 24,164 25,164 25,163 26,163 26,163 28,163 28,162 28,162 27,162 27,162 27,161 27,161 28,159 29,157 29,157 29,156 30,156 30,156 33,153 33,152 33,151 34,150 33,150 33,149 32,149 32,148 31,148 31,147 30,147 30,147 30,147 30,147 29,147 29,146 29,146 29,146 29,146 28,146 28,146 28,145 27,145 27,145 26,144 25,144 24,144 24,144 23,144 22,144 19,143 19,143 18,143 18,143 18,143 16,142 16,142 16,142 16,141 17,139 17,139 16,139 15,138 12,137 8,135 7,135 5,134 5,134 6,131 6,131 5,130 4,129 2,128 2,127 2,127 1,126 0,126 2,126 3,126 4,126 4,126 5,126 5,126 7,126 7,126 8,126 11,125 14,129 14,129 17,130 19,130 20,131 21,131 21,131 23,131 23,131 24,131 24,131 25,130 25,130 26,129 26,127 26,127 26,127 26,127 26,127 25,125 25,125 25,125 26,125 26,125 28,125 27,124 26,122 26,122 27,122 28,119 28,119 27,119 27,119 28,118 28,118 29,118 29,118 31,119 32,119 33,120 33,120 36,115 38,112 38,111 41,109 41,109 42,107 39,105 39,105 39,103 42,103 42,103 42,102 43,100 43,100 41,99 38,98 36,98 37,97 34,97 34,97 31,95 30,95 30,95 28,95 27,95 26,95 26,95 25,95 25,95 23,94 23,94 23,94 23,94 23,94 22,93 22,93 22,92 21,91 21,91 21,91 21,91 20,90 20,89 20,89 19,88 19,88 19,87 19,87 20,86 21,85 21,85 23,83 23,83 24,82 25,82 25,79 25,79 25,79 26,76 27,74 27,74 27,74 28,74 28,74 28,74 28,74 28,73 28,73 28,72 29,72 29,72 29,72 29,71 29,71 30,70 30,69 30,69 30,69 30,69 31,68 31,68 31,68 32,67 32,67 32,67 32,66 32,66 32,66 32,65 32,65 31,65 29,64 28,64 28,64 29,64 28,64 28,63 28,63 28,63 27,62 26,62 25,61 24,61 24,60 23,59 23,59 23,59 23,59 23,59 23,59 24,59 25,59 26,59 31,59 32,60 32,59 32,59 33,60 35,61 35,61 36,61 39,61 43,62 44,62 45,62 45,60 47,57 47,55 50,51 51,49 50,48 50,48 52,45 52,45 52,45 52,45 53,46 55,47 55,47 56,47 57,47 59,47 59,47 60,47 61,48 61,48 61,47 62,46 62,45 63,44 63,43 63,43 64,42 65,42 66,41 66,41 66,41 66,40 66,40 66,40 66,41 67,41 68,42 70,42 73,44 74,44 76,41 79,42 83,44 90,47 98,50 99,50 102,52 103,52 103,52 105,53 105,53 106,54 109,56 108,56 108,56 109,57 110,57 111,58 111,58 112,58 112,59 113,59 114,60 115,60 115,61 116,61 116,61 117,61 118,61 119,62 121,62 121,62 121,62 122,62 123,63 123,63 123,63 123,63 125,64 126,65 126,65 126,64 126,64 126,64 127,64 127,64 127,64 128,64 129,64 129,64 130,64 130,63 131,63 132,63 132,63 135,63 135,63 135,63 136,61 138,57 139,56 139,56 139,56 139,56 140,56 143,53 149,54 151,55 152,55 154,55 155,55 155,56 156,56 156,55 157,56 158,56 158,56 158,56 158,56 159,56 159,56 161,56 165,56 166,56 166,56 167,56 167,56 168,56 170,55 172,55 177,54 179,54 179,54 181,54 184,54 184,54 184,54 185,54 186,54 188,54 191,53 191,53 192,52 192,52 192,52 197,52 197,52 198,52 198,51 198,50 198,50 198,50 198,47 198,47 199,47 200,46 200,46 200,46 200,45 200,44 199,44 199,44 198,44 197,43 197,43 197,43 196,42 195,42 195,42 193,41 191,39 190,38 190,38 190,38 190,38 189,37 187,36 187,35 186,34 185,34 185,33 185,33 185,32 184,32 184,32 183,31 183,30 184,29 186,27 187,25 188,25 188,25 188,25 189,25 189,25 189,25 189,25 191,23 190,23 190,23 190,23 190,22 192,19 193,18 193,18 193,19 193,19 195,19 197,19 197,19 197,19 197,19 201,20 204,19 204,19 205,18 205,18 207,18 207,18 208,18 208,18 208,18 208,18 208,18 208,17 208,16 208,15 208,14 208,13 208,12 210,12 213,12 215,12 217,12 217,12 214,8 214,8 213,7 213,6 213,5 213,5 213,5 213,5 213,4 213,3 215,3 215,3 217,3 218,3 218,3 219,4 220,4 220,4 222,4 222,4 223,4 223,4 223,4 224,4 224,4 225,5 225,5 225,5 226,5 226,5 226,5 226,5 227,5 227,5 227,5 228,5 229,6 230,6 230,6 230,6 230,6 231,6 232,7 233,8 234,8 234,8 235,8 235,8 236,8 236,8 237,9 239,9 240,9 240,9 240,10 241,10 241,10 241,10 242,10 243,10 243,10 244,10 245,10 245,10 245,10 245,10 246,9 246,9 247,9 247,9 247,9 247,9 248,9 249,9 249,8 250,8 253,8 254,8 254,8 255,8 259,8 260,7 261,7 261,7 262,7 263,6 263,6 264,6 265,6 265,6" id="3213" class="canton" fill="steelblue" stroke-width="1" stroke="white" geotype="canton" geoname="Isle-Jourdain" code_insee="3213" code_departement="32" nom_departement="Gers" code_region="76" nom_region="Occitanie"/></svg>