<?xml version="1.0" encoding="utf-8"?>
<svg version="1.1" id="svgmap" xmlns="http://www.w3.org/2000/svg" xmlns:xlink="http://www.w3.org/1999/xlink" x="0px" y="0px" width="100%" height="100%" viewBox="0 0 500 297">
<polygon points="0,8 13,6 14,6 14,6 15,6 15,6 15,6 15,6 16,6 17,6 17,6 18,6 18,6 18,6 19,6 19,5 19,5 20,5 20,5 21,5 21,5 21,5 21,6 22,6 22,6 22,6 22,6 22,6 22,6 23,6 23,6 23,6 24,6 24,6 24,6 25,6 25,6 25,6 26,5 26,5 26,5 26,5 27,5 28,5 28,5 28,5 29,5 29,5 30,5 31,5 32,5 32,5 33,5 34,5 35,5 35,5 35,5 35,5 35,5 36,6 36,6 36,6 36,6 37,6 37,6 37,6 38,7 38,7 38,7 39,7 44,7 45,5 45,3 46,0 46,0 49,0 55,0 57,1 59,1 59,2 59,3 59,4 58,5 59,5 59,5 60,5 60,5 61,5 61,5 61,5 62,5 63,6 64,6 65,6 67,6 69,7 70,7 71,8 78,10 80,10 89,12 92,13 93,11 97,12 99,11 99,11 100,11 102,12 105,12 106,12 108,12 109,13 112,14 112,14 113,14 114,14 115,15 115,15 115,16 115,16 115,16 115,17 116,17 117,17 118,18 119,18 118,19 118,19 119,19 121,20 121,21 122,21 123,21 123,20 123,20 124,20 124,20 124,19 124,19 125,19 125,19 126,19 126,19 126,19 127,19 128,19 128,19 133,20 133,20 135,21 139,22 140,22 142,23 143,24 144,24 146,26 148,28 149,29 150,29 150,29 150,29 153,30 154,31 155,31 156,30 156,30 157,29 158,29 159,27 160,27 160,26 160,26 162,26 165,26 167,27 167,28 167,28 166,29 166,30 165,32 164,33 164,33 164,34 163,35 163,35 163,37 163,37 162,38 162,40 161,41 161,42 160,43 160,43 160,45 160,45 160,47 160,47 160,48 160,48 160,50 160,51 160,51 160,52 160,53 160,55 160,55 160,55 161,55 164,56 163,57 163,58 163,58 163,58 163,59 163,59 163,60 163,60 163,60 163,61 163,62 163,62 163,62 163,62 163,63 163,63 162,64 162,65 162,65 162,66 162,67 163,69 163,70 163,71 163,71 163,71 162,73 162,73 162,73 161,74 161,74 161,75 160,75 159,76 159,76 158,77 158,77 157,79 157,79 156,80 156,80 155,81 155,81 154,82 154,82 151,83 151,83 151,84 150,84 149,85 149,85 148,86 148,86 148,87 146,91 146,91 145,93 144,94 144,96 144,96 143,97 143,98 142,100 141,101 138,101 137,100 136,101 135,101 133,101 133,101 132,101 131,102 131,102 130,102 129,102 128,102 127,102 127,102 126,102 125,102 125,103 124,103 124,103 123,102 122,102 121,102 120,101 118,101 117,101 116,101 115,105 115,105 115,105 114,109 114,110 114,110 114,110 115,111 115,111 115,112 115,112 115,113 116,114 117,115 117,116 117,116 117,120 116,121 116,122 117,123 117,124 117,126 116,127 116,128 116,128 115,130 114,131 114,131 114,133 113,133 113,136 112,137 113,137 115,137 121,137 125,137 125,137 130,138 131,138 131,138 131,139 132,141 136,140 138,140 141,140 144,138 146,137 150,135 151,134 154,132 156,131 160,134 163,135 163,135 164,135 170,137 173,137 174,137 175,138 176,138 177,139 179,140 180,141 182,142 183,143 186,144 186,145 187,146 188,146 188,146 188,147 188,147 188,147 188,147 189,147 194,153 194,153 194,153 195,152 195,152 199,150 200,149 208,146 211,149 211,149 211,149 213,149 211,152 209,154 210,155 211,155 211,155 215,155 215,155 216,154 217,154 218,154 219,154 220,153 220,153 220,153 221,153 223,152 224,152 224,152 225,152 237,152 238,152 239,152 241,150 242,149 242,149 245,147 245,147 246,146 246,145 247,145 248,143 248,142 248,141 248,141 248,140 248,139 248,139 248,139 249,138 249,137 250,136 250,135 250,135 250,135 250,135 250,135 252,134 252,133 253,133 254,131 255,130 256,130 258,131 258,131 258,131 258,131 258,131 260,130 262,128 263,128 263,128 263,128 263,127 263,127 262,126 262,125 262,125 262,124 261,124 261,123 261,123 261,122 261,122 267,121 273,120 273,120 273,120 274,120 275,120 275,120 276,121 277,121 278,121 279,122 280,122 282,121 282,120 282,120 283,118 283,117 285,116 285,115 286,115 287,114 288,114 289,113 290,112 291,111 292,111 292,111 292,111 292,111 292,110 292,109 292,108 292,108 292,108 291,107 291,106 291,105 290,105 290,104 290,104 290,103 289,103 289,102 289,101 289,101 289,101 289,100 289,100 289,99 290,99 289,99 289,98 288,96 288,96 288,96 289,95 289,95 290,95 291,95 291,95 292,95 292,95 292,95 293,95 293,95 294,95 294,95 294,95 295,95 295,95 295,95 296,95 296,96 296,96 297,96 297,96 298,96 299,97 299,97 300,97 300,97 301,97 301,97 302,97 302,98 302,98 302,98 302,98 302,98 303,99 303,99 303,99 304,99 304,99 305,99 305,99 306,99 307,100 307,100 308,100 309,100 310,99 310,100 316,102 317,102 320,102 321,102 321,102 321,102 323,102 326,103 328,104 331,104 331,105 331,106 332,106 332,106 339,110 339,110 343,112 343,112 341,114 341,115 351,120 354,121 370,121 370,121 371,119 372,117 373,116 375,116 377,114 378,113 379,112 383,113 385,114 385,114 389,114 396,113 397,113 399,113 400,112 404,109 406,108 407,108 407,107 408,106 410,105 412,105 413,105 414,105 414,105 418,104 419,104 420,104 420,103 422,103 423,102 423,101 426,101 426,101 427,101 429,101 430,101 430,101 431,101 432,101 433,101 434,102 436,101 436,101 436,101 438,101 439,101 440,101 441,102 443,102 444,102 445,102 446,102 447,102 448,103 449,103 450,103 451,103 451,103 451,103 452,103 454,104 455,103 459,102 461,101 463,99 464,99 464,99 465,98 466,98 467,98 467,97 469,96 470,96 472,96 473,96 474,95 477,94 478,94 481,92 487,89 490,88 490,88 492,86 498,84 499,82 499,83 499,83 500,83 500,83 500,83 500,83 500,83 499,84 499,84 499,84 500,84 500,85 500,85 500,85 499,85 499,85 499,85 499,86 499,86 498,86 498,85 497,86 497,86 497,86 497,86 496,87 496,89 496,89 496,90 496,91 496,92 496,93 496,93 495,95 494,96 493,97 491,99 491,100 490,100 490,101 489,101 487,104 487,105 486,105 486,105 486,106 486,107 486,108 486,108 486,109 486,110 486,110 486,111 486,112 486,112 486,113 486,113 487,114 487,114 487,114 487,114 486,115 486,115 487,115 487,116 487,116 487,116 487,116 486,116 486,116 486,117 486,117 486,117 486,117 485,117 485,118 485,118 486,121 486,123 486,123 486,123 485,124 485,124 485,124 485,125 485,125 485,125 485,125 486,125 486,125 486,125 486,125 486,126 486,126 487,127 487,127 487,127 487,127 487,128 487,128 486,128 486,128 486,128 486,128 486,130 486,131 486,132 486,133 486,133 486,133 485,133 485,133 485,133 486,134 485,134 485,134 485,134 485,135 485,135 485,135 485,135 484,136 484,137 485,137 485,139 485,140 486,140 486,141 486,142 486,143 486,144 486,146 487,146 487,148 487,149 487,151 487,152 487,152 487,152 487,153 488,153 488,153 487,153 487,154 488,154 488,155 488,155 489,155 490,156 490,156 491,157 492,157 492,158 492,160 492,161 491,162 491,163 492,164 492,166 492,166 492,167 493,168 493,169 493,169 492,169 492,169 492,169 491,169 491,169 490,169 490,169 490,169 490,169 490,169 490,169 490,170 489,170 490,170 491,170 491,170 490,171 490,172 489,172 489,172 489,172 489,173 489,173 489,173 489,173 489,173 489,174 489,174 489,174 490,174 490,174 490,174 490,175 490,176 491,177 491,177 491,177 490,178 490,178 490,178 490,178 490,179 489,179 489,179 489,179 489,181 488,183 488,185 488,187 484,187 483,187 476,187 476,188 471,187 471,188 469,187 469,188 469,188 457,186 457,186 453,185 448,184 447,184 444,184 444,184 443,185 443,186 439,186 436,191 431,190 431,190 430,192 430,192 429,193 421,197 421,197 421,199 420,199 413,199 412,199 411,199 406,200 396,202 396,202 395,202 395,202 389,198 389,198 387,196 384,194 384,194 379,197 375,199 370,201 368,202 367,202 367,202 362,206 361,206 352,209 351,210 345,211 342,212 336,213 326,215 323,215 321,215 318,215 316,215 315,215 293,212 291,212 288,212 280,212 272,212 272,213 271,216 270,219 270,220 271,221 272,223 272,223 271,224 271,225 270,227 269,228 267,231 265,233 264,235 264,236 263,236 263,238 263,238 263,239 263,239 264,239 265,243 262,243 261,246 260,248 260,251 256,250 256,251 256,253 255,253 255,254 255,255 255,255 255,255 255,256 253,257 253,259 252,260 252,260 253,261 254,261 253,262 253,262 253,263 252,262 251,262 251,262 250,261 247,261 247,261 244,267 244,267 244,268 243,268 243,268 243,268 241,270 240,270 240,270 239,271 238,274 238,274 237,274 237,274 236,274 235,274 235,274 233,274 233,274 232,274 232,274 231,274 227,273 226,272 223,272 221,272 218,273 217,273 213,272 209,272 208,272 208,273 208,273 209,273 208,274 208,274 209,275 209,275 209,275 209,275 209,276 210,276 210,276 210,277 210,277 209,278 209,278 209,278 209,278 209,278 208,278 208,279 208,279 208,279 208,280 208,280 208,282 208,282 208,282 208,283 207,283 208,287 208,289 207,289 207,290 206,290 205,289 205,289 204,289 204,289 203,288 202,288 201,288 201,288 200,288 199,288 198,288 198,288 196,288 195,288 194,288 194,288 194,290 194,290 193,291 193,292 193,292 192,293 192,293 192,293 191,294 189,295 187,297 186,297 181,294 179,294 177,293 176,293 175,293 174,292 170,292 169,292 167,292 165,291 164,290 164,289 164,288 163,287 163,287 163,286 163,285 163,284 163,283 163,283 163,282 162,282 162,281 162,280 162,278 162,278 161,277 161,277 161,277 161,276 161,276 161,276 161,275 161,274 162,274 160,268 160,267 158,264 158,263 158,263 158,263 158,262 157,262 157,261 157,261 156,259 156,259 156,258 156,258 156,257 156,257 156,257 156,256 155,255 155,254 155,253 155,252 155,251 155,251 155,250 155,250 155,249 155,249 155,248 155,248 155,248 155,248 155,247 155,247 155,247 155,246 155,246 155,245 157,238 158,234 158,232 159,231 159,230 159,229 159,228 159,228 159,227 159,226 160,224 160,223 160,222 160,220 160,219 160,219 160,217 160,217 160,215 160,214 160,214 160,213 160,212 159,212 157,204 157,202 151,204 143,207 126,211 100,218 98,218 95,218 78,217 75,217 74,218 69,219 68,220 68,221 65,220 65,219 65,219 64,220 62,221 62,221 63,222 63,223 60,225 59,226 59,226 58,225 55,225 50,229 49,229 49,230 39,227 40,224 41,219 41,219 42,216 43,211 43,211 43,210 43,209 43,209 44,208 44,206 44,202 41,202 28,202 30,190 37,176 46,160 49,141 49,129 48,123 45,116 40,100 37,93 21,60 7,34 6,32 3,21 0,8" id="3317" class="canton" fill="steelblue" stroke-width="1" stroke="white" geotype="canton" geoname="Lormont" code_insee="3317" code_departement="33" nom_departement="Gironde" code_region="75" nom_region="Nouvelle-Aquitaine"/></svg>