<?xml version="1.0" encoding="utf-8"?>
<svg version="1.1" id="svgmap" xmlns="http://www.w3.org/2000/svg" xmlns:xlink="http://www.w3.org/1999/xlink" x="0px" y="0px" width="100%" height="100%" viewBox="0 0 500 381">
<polygon points="0,115 30,101 33,99 33,99 54,89 54,89 78,78 78,78 78,78 82,76 83,75 84,75 84,75 85,75 85,75 92,73 99,72 100,72 100,72 112,69 112,69 119,68 142,63 143,62 163,54 164,54 169,50 169,50 169,50 170,50 171,49 174,46 174,46 176,44 176,44 177,44 189,43 189,43 196,43 201,42 204,49 204,49 205,49 205,49 210,49 212,49 213,48 213,48 215,49 217,48 218,48 218,48 219,48 219,48 221,47 221,47 222,46 222,46 224,46 225,46 225,46 225,46 225,45 225,45 226,45 226,44 226,44 229,44 231,44 233,44 233,44 233,43 233,43 233,42 233,42 234,42 234,42 235,39 239,39 240,39 246,37 246,37 246,37 247,37 249,36 251,36 252,35 254,35 254,35 254,33 257,32 262,32 262,32 262,32 262,28 262,28 262,24 262,23 262,23 264,23 264,23 267,23 270,23 271,23 272,23 272,23 273,22 273,22 274,22 275,22 275,21 276,21 276,21 277,20 281,19 282,19 283,19 283,19 285,19 285,19 286,18 289,18 293,18 298,18 298,17 298,17 300,17 300,17 301,18 301,18 302,17 302,18 302,18 311,18 311,18 311,18 313,18 314,18 315,18 316,18 320,18 320,18 320,18 321,18 321,19 321,20 321,20 323,21 324,22 325,23 326,24 326,24 327,25 328,25 328,25 329,25 329,25 329,25 330,26 330,26 331,27 332,27 332,27 333,27 334,28 335,28 335,28 336,28 336,28 336,28 336,27 336,26 336,26 336,25 336,24 337,24 337,19 337,19 339,19 340,19 342,19 342,19 343,18 343,18 343,17 343,16 343,15 345,15 346,15 346,14 348,14 349,14 352,14 353,14 354,14 355,13 356,12 356,12 356,12 355,12 355,12 356,9 355,8 355,8 356,7 356,7 356,7 357,5 357,5 358,5 358,5 359,5 360,4 360,4 360,4 360,4 361,4 361,3 362,3 365,0 365,0 367,1 369,2 369,2 370,3 371,3 371,3 375,5 377,6 378,6 379,7 380,8 381,8 382,8 389,10 393,10 394,10 397,11 401,12 412,15 416,16 417,17 419,17 420,18 421,18 422,18 423,18 424,19 425,19 428,20 430,21 431,21 432,21 433,21 433,21 434,22 435,22 436,22 436,22 437,23 438,23 438,23 439,23 440,24 440,24 440,24 441,23 441,23 441,22 440,21 440,20 440,19 440,18 440,18 441,18 441,18 441,18 442,18 442,18 444,18 445,18 446,18 446,18 453,13 456,10 466,17 480,29 488,41 491,46 493,54 496,63 496,68 500,85 499,105 497,116 492,127 484,146 476,162 472,175 472,179 472,192 474,203 476,213 479,222 479,223 473,225 472,225 472,225 472,225 471,225 471,226 471,227 471,228 470,228 470,228 469,228 469,229 469,229 468,229 468,229 467,228 467,228 466,228 465,227 465,227 464,227 464,227 464,226 463,226 463,226 462,226 462,226 461,226 461,226 460,226 459,227 459,227 458,227 456,228 455,229 455,229 454,229 453,229 452,230 452,230 451,230 450,229 449,229 449,229 447,229 446,229 446,229 445,229 445,229 445,229 444,229 444,229 443,229 443,229 443,230 443,230 443,230 442,231 442,231 442,232 442,232 442,232 441,232 441,232 441,232 440,232 440,232 440,232 439,232 438,232 438,232 437,232 437,232 436,232 436,232 435,232 434,232 433,232 433,232 432,232 432,232 431,232 431,232 429,232 429,232 429,232 428,231 428,231 427,231 427,232 426,232 426,232 425,232 424,232 423,231 422,231 422,231 421,231 420,232 419,232 418,232 417,232 416,232 420,238 420,238 420,238 420,238 420,238 419,239 419,239 419,239 419,239 418,239 418,239 418,239 417,239 417,239 417,239 417,239 417,239 417,240 417,240 417,240 417,240 417,240 416,240 416,241 416,241 416,241 416,241 415,241 415,241 415,241 415,241 414,241 414,241 413,241 413,241 413,241 412,241 412,241 412,241 412,241 412,241 411,241 411,241 411,241 410,241 410,241 410,241 410,241 409,241 409,241 408,241 408,241 408,242 408,242 408,242 407,242 407,242 407,242 406,242 405,242 405,242 403,242 403,242 402,242 402,242 401,241 400,242 399,242 399,242 399,243 399,244 399,244 399,244 398,245 398,245 398,245 398,245 397,245 395,245 393,245 392,245 392,245 392,245 392,245 392,245 392,244 393,243 393,243 393,243 393,243 393,243 393,243 392,242 392,242 392,242 392,242 392,242 392,242 392,242 391,243 391,243 391,243 391,243 391,243 391,243 391,243 391,243 391,243 391,243 391,243 391,243 391,243 390,243 390,241 388,241 387,241 385,241 384,242 384,242 382,242 380,242 379,243 374,243 374,243 373,243 372,244 371,244 370,244 369,244 367,243 366,243 365,243 364,242 363,242 362,242 361,242 358,241 357,241 356,241 356,242 355,242 353,242 351,242 350,242 349,242 348,242 346,242 346,242 345,242 345,241 345,241 342,241 341,241 340,241 339,241 338,242 336,242 335,243 334,243 333,243 332,243 331,243 330,243 328,244 325,245 323,246 322,247 321,248 320,248 318,249 318,250 316,251 312,255 315,258 319,261 318,262 315,263 314,263 311,264 308,265 307,265 306,265 304,265 304,265 303,265 302,265 295,265 294,265 293,265 293,265 292,265 291,265 289,265 288,265 286,265 285,265 284,265 283,266 281,266 280,266 279,266 278,267 276,267 274,267 273,267 272,267 272,267 270,268 268,269 266,269 263,270 263,270 259,271 257,271 260,277 260,277 264,285 265,288 266,289 266,291 267,292 267,292 267,295 267,295 268,295 269,296 269,296 271,296 271,296 267,302 267,303 267,304 266,306 265,305 264,307 264,308 263,308 262,309 262,310 262,310 261,312 261,312 262,313 260,315 259,316 260,317 261,317 262,318 263,319 264,320 266,321 268,323 272,325 274,326 279,329 280,330 279,330 277,330 276,330 275,330 273,332 272,332 271,333 270,333 267,334 265,335 264,335 262,336 260,337 259,337 257,337 256,337 256,338 256,338 256,340 255,342 255,343 253,347 251,352 250,355 250,355 249,356 246,360 248,360 250,361 252,361 252,361 253,362 253,362 254,363 254,364 253,364 252,366 251,366 250,367 248,369 247,369 245,368 244,369 244,369 240,373 235,372 232,372 227,371 225,371 223,370 217,368 214,367 213,367 210,367 205,367 202,367 200,367 197,367 195,367 195,369 195,369 189,372 186,373 184,374 176,381 176,381 175,381 173,380 170,380 170,380 168,380 167,379 166,379 165,379 163,379 162,379 159,379 160,378 160,377 160,377 160,376 160,373 161,369 161,366 163,363 165,361 165,361 165,359 165,358 167,355 167,353 168,352 168,351 169,350 170,349 170,348 172,346 173,345 173,344 173,343 171,343 169,343 169,343 166,342 164,342 164,342 162,342 160,340 159,339 158,339 157,338 157,337 156,335 155,334 154,333 154,331 154,330 154,329 153,326 152,325 151,324 150,324 150,323 150,318 150,316 151,315 152,313 152,311 152,309 151,307 152,305 153,304 153,303 153,302 155,299 155,298 156,297 155,296 154,291 154,290 154,289 154,288 154,286 154,285 154,285 154,284 153,283 153,281 152,279 152,279 153,279 153,278 156,278 157,279 159,279 159,279 160,279 161,279 161,279 164,279 165,279 167,278 167,278 168,278 169,278 171,278 171,278 173,277 174,277 176,276 177,276 178,275 179,275 180,275 181,275 181,274 182,274 182,274 183,274 184,274 185,275 187,276 188,277 190,277 193,277 194,277 197,277 199,277 202,277 207,277 210,277 212,278 215,278 217,278 219,279 221,280 221,280 223,280 224,280 224,280 224,280 217,275 216,275 216,275 215,275 215,275 215,274 211,272 211,272 211,270 211,270 211,270 212,265 211,262 211,262 211,262 211,262 210,261 210,260 209,260 209,259 208,259 206,258 206,258 206,258 205,257 204,255 204,255 205,253 205,252 207,250 207,250 205,250 200,249 199,249 199,245 198,245 198,245 198,243 191,243 190,243 190,243 190,241 190,241 189,241 189,241 188,240 185,240 185,240 186,239 186,239 187,239 188,238 188,238 190,237 190,236 192,234 193,233 193,233 194,231 194,231 194,230 194,230 194,229 195,228 197,225 197,225 197,224 198,224 197,223 198,221 197,220 193,219 192,218 187,216 185,215 182,214 182,213 181,213 181,213 179,214 177,215 177,215 175,216 173,217 173,217 171,216 148,205 144,198 144,198 151,186 150,186 148,186 138,185 119,184 119,183 118,183 104,183 104,183 87,189 87,189 77,192 67,179 58,168 56,166 2,116 1,115 0,115" id="3325" class="canton" fill="steelblue" stroke-width="1" stroke="white" geotype="canton" geoname="Portes du Médoc" code_insee="3325" code_departement="33" nom_departement="Gironde" code_region="75" nom_region="Nouvelle-Aquitaine"/></svg>