<?xml version="1.0" encoding="utf-8"?>
<svg version="1.1" id="svgmap" xmlns="http://www.w3.org/2000/svg" xmlns:xlink="http://www.w3.org/1999/xlink" x="0px" y="0px" width="100%" height="100%" viewBox="0 0 439 500">
<polygon points="217,0 218,0 219,1 220,1 221,1 221,1 221,1 221,1 222,1 222,2 222,2 222,2 222,2 222,2 223,2 223,2 224,2 224,2 224,2 224,2 224,2 225,2 225,2 226,2 226,2 227,3 227,3 228,3 228,3 229,3 229,3 229,4 229,4 229,4 229,5 229,5 230,5 230,5 230,5 231,5 231,6 232,6 232,6 232,6 233,7 233,7 233,7 234,7 234,7 234,7 234,7 234,8 234,8 234,8 234,8 234,8 234,9 234,9 234,9 235,9 235,9 235,9 236,9 236,9 236,9 238,10 239,10 240,11 240,11 240,11 240,11 239,12 239,12 239,12 240,13 240,14 241,15 241,15 241,15 242,15 243,15 243,15 243,16 243,16 244,17 245,16 244,18 244,19 244,20 243,22 242,22 242,23 241,24 240,27 239,29 238,30 238,31 238,31 238,31 237,31 237,31 237,31 236,32 236,32 236,33 236,33 236,33 235,36 235,38 235,39 235,39 235,39 234,40 234,40 233,41 232,42 232,42 231,43 231,44 231,44 231,44 231,45 230,47 230,47 230,47 230,48 230,48 230,49 230,49 230,49 230,49 230,49 230,49 230,49 231,50 231,50 231,50 232,50 232,50 232,50 232,50 232,50 232,50 232,50 233,50 233,50 233,50 233,50 233,50 233,50 234,50 234,50 234,50 234,50 234,50 234,50 235,50 235,50 235,50 235,50 236,50 236,50 236,50 236,50 236,50 237,50 237,50 237,50 238,50 238,50 238,50 238,50 240,50 240,50 241,50 241,50 241,50 242,50 242,50 242,51 242,50 242,50 242,50 243,51 243,51 243,50 243,50 243,50 243,50 243,50 243,50 244,50 244,50 244,50 244,50 245,50 245,50 245,50 245,50 245,50 246,50 246,50 246,50 246,50 246,50 246,50 246,50 247,49 247,50 247,49 248,49 248,49 248,49 248,49 248,49 249,50 249,50 249,50 249,50 250,50 250,50 250,50 250,50 251,50 251,50 251,50 251,50 252,50 252,50 252,50 252,50 252,50 253,50 253,50 253,50 253,50 253,50 253,50 254,50 254,50 254,50 254,50 255,50 255,50 255,50 256,50 256,50 256,50 257,51 257,51 257,51 257,51 257,52 257,52 257,52 258,55 258,56 259,59 260,62 260,62 260,62 260,63 260,63 255,72 255,72 253,74 253,74 253,74 253,74 251,75 250,77 249,77 249,77 249,78 248,80 247,80 247,80 247,81 247,81 247,82 247,83 247,84 248,84 248,85 248,85 248,85 248,86 248,88 248,90 248,91 246,94 246,94 245,97 244,97 244,98 243,104 243,104 243,105 242,105 242,106 241,106 238,108 237,108 237,108 237,109 236,109 236,109 236,110 236,110 237,111 238,113 238,113 238,113 239,114 239,114 239,115 240,115 240,116 240,116 241,117 241,117 241,117 241,117 241,117 241,118 242,118 242,118 242,118 243,119 243,119 243,120 244,120 245,121 246,122 246,122 246,122 247,123 247,123 247,123 247,124 248,125 248,125 249,125 250,126 250,126 251,126 252,127 252,127 252,128 253,128 253,129 253,129 253,129 254,130 254,131 254,131 255,131 256,132 256,132 257,133 257,133 257,133 258,134 259,134 260,135 261,135 261,135 261,135 262,136 262,136 262,136 262,136 263,137 263,137 263,137 263,137 264,138 264,138 264,138 264,138 264,139 264,139 264,139 264,139 264,140 264,140 264,140 264,140 265,141 265,141 265,141 265,141 265,141 265,142 265,142 265,142 265,143 265,143 265,143 265,143 266,144 266,145 266,145 266,145 266,145 267,146 267,146 267,146 267,146 267,147 267,147 267,147 267,147 267,148 267,148 267,149 267,149 267,150 267,150 267,150 267,150 267,151 267,151 267,152 267,152 268,152 268,152 268,153 268,153 268,153 268,153 268,153 268,153 269,154 269,154 269,154 269,154 269,154 269,154 269,154 269,155 269,155 269,155 270,155 270,155 270,156 270,156 270,156 270,156 270,157 270,157 271,157 271,157 271,157 271,157 271,157 272,157 272,157 272,158 272,159 272,159 272,159 272,159 272,159 272,159 272,160 272,160 272,160 272,160 272,160 272,160 272,161 272,161 272,161 272,161 272,161 273,161 273,162 273,162 272,162 272,162 272,162 272,162 272,163 272,163 271,163 271,163 271,163 272,163 272,164 272,164 272,165 272,165 272,165 272,165 272,165 272,165 272,166 272,166 272,166 272,166 272,166 272,166 272,166 272,166 272,167 273,167 273,167 273,167 273,167 273,168 273,168 273,168 273,168 273,168 272,168 272,169 272,169 272,169 272,170 273,170 273,171 274,171 274,171 274,171 274,171 274,172 274,172 275,172 276,172 276,172 276,172 276,173 276,174 276,174 276,174 277,174 277,174 276,175 276,175 276,175 276,175 276,175 277,176 277,176 277,176 277,176 277,176 277,176 277,176 277,177 277,177 277,177 277,177 277,178 277,178 277,178 277,178 277,178 277,178 277,178 277,178 277,179 277,179 278,179 278,180 278,180 279,180 279,181 279,181 279,181 279,181 279,181 279,182 279,183 279,184 279,184 279,185 279,185 279,185 280,185 280,185 280,186 280,186 280,186 280,187 280,187 281,187 281,187 281,188 281,188 281,188 281,189 282,189 282,189 282,189 282,189 282,189 282,189 282,190 282,191 282,191 282,191 282,191 282,192 283,193 283,193 283,193 283,193 282,193 282,193 282,193 282,194 282,194 283,194 283,194 283,194 283,194 284,194 285,195 285,195 285,196 285,196 285,196 285,196 285,196 286,197 286,197 286,198 286,198 286,198 286,198 286,198 286,199 286,199 286,199 287,200 287,200 287,200 288,200 288,200 288,201 289,201 289,201 289,201 290,201 290,202 290,202 290,202 290,202 290,203 290,203 290,203 291,203 291,203 291,204 291,204 291,204 291,204 291,205 291,205 291,205 291,205 291,206 291,206 291,206 292,207 293,208 293,208 293,208 293,208 293,209 293,209 293,210 293,210 293,210 293,210 293,210 294,210 294,209 294,209 293,207 293,207 293,206 293,206 293,206 293,206 293,206 294,205 294,204 294,204 294,203 294,203 294,203 294,203 294,203 294,203 295,202 295,202 295,202 295,202 295,202 296,201 297,200 297,200 297,200 297,200 297,200 296,199 296,198 296,198 296,198 297,197 297,197 297,197 297,197 297,197 297,196 297,196 297,196 297,196 298,195 297,195 297,195 297,194 297,194 297,194 298,194 298,194 299,194 299,194 299,193 299,193 299,193 299,193 299,193 299,193 299,193 300,193 300,193 300,192 300,192 301,192 300,192 300,192 300,192 300,192 300,192 300,191 300,191 300,191 300,191 300,190 300,190 300,190 300,190 300,190 300,190 301,190 301,189 301,189 302,189 302,189 302,189 302,189 302,188 302,188 303,188 303,188 303,188 304,188 304,187 304,187 304,187 304,187 304,187 305,186 305,186 306,186 306,186 306,186 306,185 306,185 306,185 306,184 306,184 307,184 307,184 307,184 307,184 308,183 308,183 308,183 308,183 309,183 309,183 309,183 309,183 309,183 309,183 309,183 309,183 310,183 310,183 310,183 311,183 311,183 312,182 313,182 313,182 313,182 313,181 312,181 312,181 313,181 313,181 313,181 313,181 313,181 313,181 313,181 313,181 313,181 313,181 314,181 314,181 314,181 314,181 314,181 314,181 315,181 315,181 316,180 316,180 316,179 316,179 316,179 317,179 317,179 317,179 317,179 317,179 317,179 317,178 317,178 317,178 318,178 317,178 317,178 317,177 317,177 317,177 317,177 317,176 317,176 317,176 317,176 317,176 317,176 318,176 318,175 318,175 318,175 318,175 318,175 318,175 319,175 319,175 319,175 319,175 319,175 319,175 319,174 319,174 319,174 319,174 319,174 319,174 319,174 320,174 320,173 320,173 320,173 320,173 320,173 320,173 320,173 320,172 320,172 320,172 320,172 321,172 321,172 321,172 321,172 321,172 322,172 322,171 322,171 322,171 322,171 322,171 322,171 322,171 322,171 322,171 322,170 322,170 322,170 322,170 323,169 323,169 323,169 323,168 323,168 324,168 324,169 324,169 325,168 325,169 325,169 325,169 326,169 327,168 327,169 329,168 329,168 330,168 331,168 331,168 332,168 332,168 333,168 334,168 334,168 334,169 334,169 335,169 335,169 336,169 336,169 336,169 336,169 337,169 337,169 338,169 339,169 339,169 339,169 339,169 340,169 341,169 341,169 341,169 341,169 342,169 342,169 342,169 342,169 343,169 344,169 345,170 346,170 346,170 346,171 347,171 347,172 347,172 347,172 347,172 349,172 350,172 351,172 353,172 353,172 353,173 355,173 355,173 358,173 358,173 358,173 362,174 362,173 366,178 368,179 370,180 370,180 375,182 375,182 376,184 377,184 377,185 380,187 381,187 384,188 384,188 390,190 390,190 390,190 390,190 390,191 390,191 390,191 390,191 390,192 390,192 391,193 390,196 390,199 390,199 390,199 390,199 390,200 390,201 390,201 391,202 391,203 391,203 391,204 391,205 392,206 392,207 392,207 392,208 392,208 392,208 392,209 393,209 393,210 393,210 393,210 394,210 394,211 394,211 395,213 395,214 396,215 397,216 398,216 400,218 400,218 400,218 400,218 400,219 400,219 400,219 400,219 400,219 400,219 400,219 400,219 400,220 400,220 400,220 399,220 399,220 399,220 399,220 399,220 399,221 399,221 399,221 399,221 399,221 399,221 399,221 399,222 399,222 398,222 398,222 398,222 398,222 398,222 397,222 397,222 397,222 397,222 397,222 397,222 397,222 396,222 396,222 396,222 396,222 396,222 396,222 396,222 396,222 396,222 396,222 396,223 396,223 396,223 396,223 395,223 395,223 395,223 395,223 395,223 395,222 395,223 395,223 395,223 394,223 394,223 394,223 394,223 394,223 394,223 394,223 394,223 394,223 394,223 393,223 393,223 393,223 393,224 393,224 393,224 393,224 392,224 392,224 392,224 392,225 392,225 392,225 392,225 392,225 392,225 391,225 391,226 391,226 391,226 391,226 391,226 390,226 390,226 390,226 390,226 390,226 390,227 389,227 389,227 389,227 389,227 389,227 388,227 388,227 388,227 388,227 388,227 388,227 388,227 388,227 388,227 388,227 388,228 387,228 387,228 387,228 387,228 387,228 387,228 387,228 386,228 386,228 386,228 386,228 386,228 385,228 385,228 385,228 385,228 385,228 385,228 385,228 385,228 385,228 385,229 385,229 385,229 385,229 385,229 385,228 385,228 384,228 384,228 384,229 384,229 384,229 384,229 384,229 384,229 384,229 384,229 383,229 383,229 384,229 384,229 384,230 383,230 383,230 383,230 383,230 383,230 383,230 383,230 383,230 383,230 383,230 383,231 383,231 383,231 383,231 383,231 383,231 383,231 383,231 384,231 384,231 384,231 384,231 384,231 384,231 384,231 384,231 384,231 384,231 384,231 384,231 384,231 385,231 385,231 385,231 385,231 385,231 385,231 385,231 385,231 385,231 385,231 385,231 385,231 385,231 386,231 386,231 386,231 386,231 386,231 386,231 386,231 386,231 386,231 386,231 386,231 387,231 387,231 387,231 387,231 387,231 387,231 387,231 387,231 387,231 387,231 388,231 388,231 388,231 388,231 388,231 388,231 388,230 388,230 388,230 389,230 389,230 389,230 389,230 390,230 390,230 390,230 390,230 390,230 391,230 391,230 391,229 391,229 391,229 391,229 391,229 391,229 391,229 392,229 392,229 392,229 392,229 393,229 393,229 393,229 393,229 393,229 393,229 394,229 394,229 394,229 394,229 395,229 395,229 395,229 395,229 395,229 395,229 395,229 395,228 395,228 395,228 395,228 395,228 396,228 396,228 396,228 396,228 396,228 396,228 396,227 397,227 397,227 397,227 397,227 397,227 397,227 397,227 397,227 398,227 398,227 398,227 398,227 398,227 398,227 398,227 398,227 398,227 398,227 399,227 399,226 399,226 399,226 399,226 399,226 399,226 399,226 400,226 400,226 400,226 400,226 401,225 401,225 401,225 401,225 402,225 402,225 402,225 403,225 403,225 404,226 404,226 404,225 404,225 405,225 405,225 405,225 405,226 405,226 405,226 406,226 406,226 406,226 407,226 407,226 407,226 407,227 407,227 408,227 408,227 408,227 408,228 408,228 408,228 409,229 409,229 409,229 409,229 409,229 409,229 409,230 409,230 409,230 410,230 410,230 410,231 410,231 410,231 410,231 410,231 411,232 411,232 411,232 411,232 411,232 412,233 412,233 412,233 412,233 412,233 412,233 413,234 413,234 414,234 414,234 414,234 414,235 415,235 415,236 416,236 416,236 417,237 417,237 417,237 417,237 418,238 419,238 419,238 419,238 420,238 421,238 421,238 422,239 422,239 423,239 423,239 423,239 424,240 425,240 426,240 426,240 426,240 427,240 427,240 428,240 428,241 429,241 429,241 430,242 430,243 430,243 429,243 429,244 429,244 429,245 429,245 428,246 428,246 427,248 427,248 427,248 425,248 425,248 425,248 425,248 425,248 424,250 424,250 423,251 423,252 423,252 423,253 424,253 423,254 423,254 423,254 423,254 422,255 422,255 422,255 422,255 421,255 421,255 421,256 420,256 419,256 419,256 419,256 419,256 419,256 419,257 419,257 418,257 418,257 418,257 418,257 418,258 417,258 417,258 417,258 417,258 417,259 417,259 417,259 416,259 416,260 415,260 415,261 415,261 415,261 415,261 414,261 414,262 414,262 414,262 414,262 414,262 413,263 413,263 413,263 413,264 412,264 412,264 412,265 411,266 411,266 411,266 411,266 411,266 411,266 411,266 411,267 411,267 411,267 411,267 411,267 411,267 410,268 410,268 410,268 410,268 410,268 410,268 410,268 410,268 410,268 410,268 410,268 410,268 410,268 410,269 410,269 410,269 410,269 410,269 410,269 410,269 410,269 410,269 410,270 410,270 410,270 410,270 410,270 410,270 410,271 409,271 409,271 409,271 409,271 409,271 409,271 409,271 409,272 409,272 408,272 408,272 408,272 408,272 409,272 409,272 408,272 408,273 408,273 408,273 407,273 407,273 407,273 407,273 407,273 407,273 407,274 407,274 407,274 407,274 406,274 406,274 406,274 406,274 406,274 406,274 406,274 406,274 406,274 405,274 405,274 405,274 405,274 405,274 405,274 405,274 405,275 405,275 404,275 404,275 404,275 404,275 404,275 404,275 404,275 404,275 404,275 404,276 404,276 404,276 403,276 403,276 403,276 403,276 403,276 403,276 403,276 402,276 402,276 402,276 402,276 402,277 402,277 402,277 402,277 402,277 402,277 402,277 402,278 402,278 402,278 401,278 401,278 401,278 401,278 401,278 401,278 401,278 401,278 401,278 401,278 401,278 400,278 400,278 400,278 400,278 400,278 400,278 400,278 400,279 400,279 400,278 400,278 400,279 400,279 400,279 400,279 400,279 399,279 399,279 399,279 399,280 398,280 398,280 398,280 398,280 398,280 398,280 398,280 398,281 397,281 397,281 397,281 397,281 397,281 397,281 397,281 397,282 397,282 396,282 396,282 396,282 396,283 396,283 396,283 396,283 396,283 396,283 395,283 396,283 396,283 395,284 395,284 395,284 395,284 395,284 394,285 394,285 394,285 394,285 394,285 394,286 394,286 393,286 393,286 393,286 393,286 393,286 393,286 392,286 392,287 392,287 392,287 392,287 392,288 392,288 392,288 392,288 392,288 391,288 391,288 392,288 392,288 392,288 392,288 391,288 391,288 391,288 391,288 391,288 391,288 391,289 391,289 391,288 390,289 390,289 390,289 390,289 390,289 390,289 389,290 389,290 389,290 389,290 389,290 389,290 389,290 389,290 389,291 389,291 389,291 389,291 389,291 389,291 389,291 389,291 389,291 389,291 388,292 388,292 388,292 388,292 388,292 387,292 387,292 387,292 387,292 387,292 387,292 387,292 387,292 387,292 387,292 387,292 387,292 387,292 387,292 387,292 387,292 387,292 387,292 387,292 387,293 387,293 387,293 387,293 387,293 387,293 387,293 387,293 387,293 387,293 387,293 387,293 387,293 387,293 387,293 387,293 387,293 387,293 387,293 387,294 387,294 387,294 387,294 387,294 386,294 386,294 386,294 386,294 386,294 386,294 386,294 386,294 386,294 386,294 386,294 386,294 386,294 386,294 386,294 386,294 386,294 386,295 386,295 386,295 385,295 385,295 385,295 385,296 385,296 385,296 385,296 385,296 385,296 385,296 385,296 385,296 385,296 385,296 385,296 385,296 385,296 384,296 384,296 384,297 384,297 384,297 384,297 384,297 384,297 384,297 384,297 384,297 384,297 384,297 384,297 383,297 383,297 383,297 383,298 383,298 383,298 383,298 383,298 383,298 383,298 383,298 383,299 383,299 383,299 383,299 383,299 382,299 382,299 382,299 382,299 382,299 382,299 382,300 382,300 382,300 382,300 382,300 382,300 382,300 382,300 382,300 382,300 382,301 382,301 382,301 382,301 382,301 382,301 382,301 382,302 382,302 381,302 381,302 381,302 381,302 381,302 381,302 381,302 381,302 380,302 380,302 380,303 380,303 380,303 380,303 380,303 380,303 379,304 379,304 378,304 378,304 378,304 377,304 378,305 377,305 377,305 377,305 377,306 377,306 377,306 377,306 377,306 376,306 376,306 376,306 376,306 376,306 376,306 376,306 376,306 376,307 376,307 376,307 376,307 376,307 376,307 376,307 376,307 376,307 376,307 376,307 376,307 376,308 375,308 375,308 375,308 375,308 375,308 375,308 375,309 375,309 375,309 375,309 375,309 375,309 375,309 374,309 374,310 374,310 375,310 375,310 375,310 375,310 375,310 375,310 375,310 375,311 375,311 375,311 374,311 374,311 374,311 374,311 374,312 374,312 374,312 374,312 374,312 374,312 374,313 374,313 373,313 373,313 373,313 373,313 373,313 373,314 373,314 372,314 372,314 372,314 372,314 372,314 372,314 371,314 371,315 370,315 370,315 370,315 370,315 370,315 370,315 370,315 370,315 370,315 370,315 370,316 370,316 370,316 370,316 370,317 369,317 369,317 369,317 369,317 369,318 369,318 369,318 369,318 369,318 369,319 369,319 369,319 368,319 368,319 368,319 368,319 368,319 368,319 368,319 368,319 368,319 367,319 367,319 367,319 367,320 367,320 367,320 367,320 369,323 370,323 370,324 374,326 374,327 375,328 376,328 375,330 376,330 376,331 376,332 376,332 378,333 379,334 380,336 380,338 380,339 381,339 382,339 382,340 383,344 383,345 383,345 383,346 384,347 385,347 386,347 388,347 389,347 389,347 389,347 389,349 388,350 389,350 389,352 391,353 392,353 392,353 392,353 393,353 393,353 393,353 393,353 393,353 393,353 393,353 394,353 394,353 394,353 394,353 394,353 395,353 395,353 395,353 395,354 395,354 395,354 395,354 395,355 396,355 395,355 396,356 395,356 395,357 395,357 395,357 395,357 395,357 397,358 397,359 397,359 397,359 398,359 398,359 398,359 399,359 399,359 399,359 399,360 400,361 400,361 400,361 401,362 402,363 402,363 403,364 403,364 403,365 403,365 403,365 403,365 403,365 403,365 403,365 403,365 403,365 404,366 404,366 404,366 404,366 404,366 404,366 404,366 404,367 404,367 404,367 404,367 404,367 404,367 404,367 404,367 404,368 404,368 404,368 404,368 404,368 404,368 404,369 404,369 404,369 404,369 404,369 404,369 404,369 404,369 405,369 405,369 405,370 405,370 405,370 405,370 406,370 406,371 406,371 406,371 406,371 406,371 406,371 406,371 407,371 407,371 408,372 408,372 408,372 409,372 409,372 410,372 412,372 412,372 412,372 412,372 412,373 412,373 413,374 413,374 413,375 413,375 413,375 413,375 414,376 414,376 414,376 414,376 414,376 415,377 415,377 415,377 416,378 416,378 416,378 416,379 416,379 416,380 416,381 416,381 416,382 417,382 417,382 417,382 418,383 418,383 418,383 418,383 418,383 418,384 419,384 419,384 420,384 420,384 419,385 419,385 420,385 420,385 420,385 420,385 420,385 420,385 420,385 420,385 421,386 421,386 421,386 421,386 421,386 421,386 420,387 420,387 419,387 419,387 420,387 420,387 420,387 420,387 420,387 420,387 420,387 420,388 421,388 421,388 421,388 421,388 421,388 421,388 421,388 421,388 421,388 421,389 421,389 421,389 421,389 421,389 421,389 421,389 422,389 422,389 422,389 422,389 422,389 422,389 422,389 422,390 423,389 423,389 423,389 424,389 424,389 424,390 424,390 424,390 425,390 425,390 425,390 425,391 425,391 425,392 426,392 426,392 426,392 426,392 426,392 426,393 426,393 425,393 425,393 425,393 425,393 426,393 426,394 427,394 427,394 427,394 427,394 427,394 427,395 426,395 426,395 426,395 426,395 426,395 426,396 426,396 426,396 427,397 427,397 428,396 428,397 428,397 428,397 428,397 428,398 428,398 429,398 429,399 429,399 429,399 429,399 429,400 429,400 429,400 429,400 429,400 429,401 429,401 429,401 429,401 429,401 429,401 430,401 430,401 430,402 431,402 431,402 432,403 432,403 432,403 433,402 433,402 433,402 433,402 433,402 433,402 433,402 433,402 434,402 434,402 434,402 434,402 434,402 434,402 434,402 434,402 434,401 434,402 434,402 435,401 435,401 435,401 435,402 435,402 436,402 436,402 436,402 436,402 436,402 437,402 437,402 437,402 437,402 437,402 437,402 438,402 438,402 438,403 438,403 438,403 438,404 437,404 437,404 437,404 437,405 437,405 437,405 438,405 438,405 438,405 438,406 438,406 438,406 438,406 438,407 439,407 439,407 439,407 439,407 438,407 438,408 437,408 437,408 437,408 437,408 437,409 437,409 437,409 438,410 438,410 438,410 438,410 438,410 438,410 436,411 436,411 435,412 435,412 435,412 435,412 434,412 434,412 434,412 433,413 433,413 433,413 433,413 432,413 432,414 432,414 431,414 431,414 430,414 430,414 430,414 430,414 430,415 429,415 429,415 428,415 428,415 426,416 425,416 425,416 426,417 426,417 425,417 425,417 425,417 423,418 423,418 423,418 423,419 423,419 423,419 421,419 421,420 420,420 420,420 418,421 418,421 417,422 417,422 417,422 417,422 415,422 414,422 414,423 414,423 414,424 413,424 413,424 412,424 411,424 410,425 410,425 410,425 410,426 409,426 409,426 409,426 408,426 408,427 408,426 407,425 406,426 406,425 405,426 405,426 404,427 403,427 402,426 401,426 401,426 401,427 400,427 400,427 399,427 399,427 399,425 398,424 398,424 398,423 397,422 397,421 397,421 397,421 396,421 395,420 395,420 395,420 396,419 396,418 395,417 395,417 395,416 395,416 394,415 394,415 393,415 393,415 393,415 392,415 392,415 391,415 391,415 391,415 391,415 390,415 386,415 385,415 384,415 383,415 381,416 380,416 380,416 379,416 378,416 377,416 376,416 376,416 375,416 375,416 375,416 374,416 374,416 374,416 374,417 374,417 373,417 371,419 371,419 370,419 370,420 370,420 368,420 368,420 367,421 366,421 366,421 365,421 365,420 363,420 363,420 363,420 362,419 361,418 361,417 360,417 360,417 360,417 359,416 360,416 360,415 360,415 359,415 359,415 359,414 359,414 360,414 359,414 359,413 359,412 358,411 358,411 358,411 356,411 356,411 356,411 356,411 354,411 354,410 354,410 353,410 353,410 353,410 353,409 352,409 352,409 350,408 350,408 349,408 348,408 346,408 346,408 346,408 345,408 345,408 344,408 343,408 342,408 342,408 341,409 340,409 338,410 337,410 336,410 335,410 334,411 333,411 333,412 333,412 333,412 333,412 334,413 334,413 334,413 334,413 335,414 335,414 335,414 335,414 336,414 335,415 335,415 337,415 337,415 336,416 335,417 335,417 334,418 334,418 335,419 335,419 335,419 335,420 335,420 335,420 334,422 334,422 334,422 334,422 333,423 332,425 332,425 332,425 332,425 332,426 333,426 333,426 333,426 332,428 332,429 332,430 332,430 331,431 331,432 331,432 331,432 330,432 330,432 330,432 330,432 329,433 328,433 328,434 327,434 326,435 326,435 326,435 325,435 324,435 323,435 322,434 322,434 322,434 320,433 320,433 320,433 320,433 320,434 319,434 319,435 319,435 318,436 318,436 318,436 317,436 317,436 316,436 315,435 314,435 311,435 311,435 310,434 309,434 308,433 308,433 308,434 306,436 305,437 305,437 304,437 304,437 304,437 303,436 303,436 302,437 302,436 301,436 301,436 300,435 300,435 299,435 299,434 298,434 298,434 298,434 297,434 297,434 295,433 295,433 294,433 292,432 291,431 291,431 289,431 288,430 287,430 285,430 283,429 283,429 282,429 282,429 282,429 281,429 281,429 281,430 281,430 280,430 280,430 279,430 279,430 279,431 279,431 279,431 279,431 279,432 279,432 279,432 279,432 279,432 279,432 279,433 279,433 279,434 279,434 279,434 278,434 278,434 278,434 277,434 277,434 277,434 277,434 277,434 277,434 276,434 276,434 276,434 276,435 276,435 276,435 276,435 276,435 276,435 276,436 276,436 276,436 276,436 276,436 276,437 276,437 275,437 275,437 275,437 275,438 275,438 275,438 275,438 275,438 274,438 274,439 274,439 274,439 274,439 273,440 273,440 274,440 274,440 274,440 274,441 274,441 274,441 274,441 274,442 274,442 274,442 274,442 274,442 273,442 273,442 273,442 273,442 273,442 272,442 272,442 272,443 271,443 271,443 271,443 271,443 271,443 271,443 271,443 271,444 270,444 270,444 270,444 270,444 270,444 270,444 270,444 270,444 270,444 269,445 269,445 269,445 269,445 269,445 268,445 268,445 268,445 268,445 268,445 268,445 267,445 267,446 267,446 266,446 266,446 267,447 267,447 267,447 267,447 268,448 268,448 268,448 268,448 268,448 268,449 268,449 268,449 268,449 268,449 268,449 268,449 268,449 268,449 268,449 268,449 268,450 268,450 268,450 268,450 268,450 268,450 268,450 268,450 268,450 268,451 268,451 268,451 268,451 268,451 268,451 268,452 267,453 267,453 268,454 268,454 267,454 267,455 267,455 267,455 267,456 267,456 267,456 267,456 267,456 267,456 267,456 267,457 267,457 267,457 267,458 267,458 267,458 267,459 267,459 267,459 267,460 267,460 267,460 267,461 267,461 267,461 266,462 266,462 265,463 265,463 265,463 265,463 265,463 265,463 264,463 265,463 264,463 264,463 264,463 264,464 264,464 263,464 263,464 263,464 263,465 263,465 262,465 262,465 261,465 261,466 261,466 261,466 261,466 260,466 260,466 260,466 260,466 260,466 259,467 259,467 259,468 259,468 258,468 258,468 257,469 257,469 258,469 257,469 257,470 257,470 257,470 256,471 255,472 255,472 254,472 254,473 254,473 254,473 254,474 254,474 253,474 253,474 252,474 249,475 249,475 247,475 246,475 245,476 241,481 237,482 214,492 211,492 204,494 201,495 199,496 198,496 197,497 195,497 195,497 195,497 194,497 193,497 192,497 189,499 184,500 183,499 178,492 169,483 161,473 157,461 156,459 156,449 154,439 154,436 148,428 142,425 136,424 128,422 131,417 131,417 131,416 131,416 131,415 132,415 132,415 132,414 132,413 132,413 132,413 132,412 132,411 133,411 133,411 134,410 134,410 136,409 136,409 137,409 143,403 144,404 145,402 146,402 146,402 147,402 148,402 149,398 150,398 151,398 151,398 152,398 154,398 154,398 154,397 152,396 152,395 152,395 152,395 152,394 152,392 152,391 152,391 152,391 152,391 152,390 153,390 153,390 154,390 154,389 155,389 156,388 156,388 156,388 156,388 155,388 154,387 153,387 151,386 151,386 150,385 149,385 149,385 148,385 147,385 146,385 146,385 146,384 146,384 147,383 148,382 149,381 149,381 149,381 149,381 149,381 148,381 148,381 148,381 147,380 147,380 146,380 145,380 144,379 144,379 144,379 142,379 142,379 141,378 140,378 139,378 139,378 139,378 140,377 140,377 139,377 139,377 139,377 139,376 140,376 140,376 140,375 140,374 140,374 140,374 140,373 140,373 140,373 140,373 141,372 141,372 141,372 142,372 142,371 141,371 140,371 140,370 140,370 139,370 139,370 139,369 139,369 138,369 138,369 136,369 136,369 135,369 133,368 132,368 132,368 132,368 132,367 132,367 133,366 134,366 134,367 135,367 135,366 135,366 135,366 135,366 135,366 136,365 136,365 136,365 138,365 138,365 139,365 139,365 139,365 140,365 140,365 140,365 141,365 141,365 141,365 143,365 143,366 143,365 143,365 143,365 143,364 143,364 143,364 143,364 144,363 144,363 145,362 145,362 145,362 145,362 145,362 146,361 146,361 147,361 147,361 147,360 147,360 146,359 145,358 145,357 145,356 145,356 145,356 146,355 147,355 147,355 147,355 147,355 147,355 147,355 147,355 147,355 147,355 147,355 148,355 148,354 148,354 148,354 148,354 147,354 147,354 147,354 147,354 147,354 147,354 147,353 147,353 147,353 147,352 148,352 148,352 148,352 148,352 148,352 148,352 148,352 148,351 148,351 148,351 148,350 147,350 147,349 147,349 147,349 147,349 146,349 146,349 146,349 146,349 145,349 145,349 144,349 144,349 144,349 144,349 144,349 144,349 144,348 144,348 144,348 144,348 144,346 144,346 144,345 145,344 145,343 146,342 146,342 147,342 148,341 148,341 148,341 148,341 148,341 149,341 149,341 148,339 148,338 148,338 148,337 149,336 149,336 150,335 150,334 150,334 150,334 151,333 151,332 151,332 151,332 151,331 152,330 152,330 153,329 153,329 153,328 154,326 154,326 155,325 155,324 156,324 156,323 157,323 157,323 157,322 157,322 157,322 158,322 158,321 158,320 158,320 158,320 159,319 159,319 159,319 160,319 160,319 160,319 160,318 161,318 161,318 161,318 161,318 160,317 159,316 159,316 159,316 159,315 158,315 158,315 159,314 159,314 159,314 158,314 158,314 158,314 158,313 158,313 158,313 158,313 158,313 158,313 158,313 157,312 157,312 157,312 157,312 157,311 157,311 157,311 157,311 157,311 157,311 157,310 157,310 157,310 157,309 157,309 157,309 157,309 157,308 157,308 158,308 158,308 158,308 158,308 158,308 158,308 159,308 159,307 159,307 159,307 159,307 160,307 160,307 160,307 160,306 159,306 159,306 159,306 159,306 159,306 158,306 158,305 158,305 157,305 157,304 157,304 157,304 157,304 157,303 157,303 156,302 157,302 157,302 157,301 157,301 157,301 156,301 156,301 156,301 156,300 155,300 155,300 155,300 155,300 155,300 155,299 156,298 156,298 156,298 155,297 155,297 155,296 155,296 155,296 155,296 155,296 155,295 156,294 156,294 156,294 155,294 155,293 155,293 155,292 155,292 155,292 155,291 155,291 155,291 155,291 155,291 155,291 155,290 155,290 155,290 155,290 155,290 155,290 155,290 155,290 155,290 155,290 155,290 155,289 155,289 155,289 155,289 155,289 155,288 155,288 155,288 155,288 155,288 155,288 155,287 155,287 155,287 155,287 154,287 154,287 154,287 154,287 154,286 153,286 153,286 153,286 153,286 153,286 153,286 152,286 152,286 152,286 152,285 152,285 152,285 151,284 151,283 150,283 150,282 150,282 150,282 150,282 150,282 150,282 150,282 150,282 150,282 150,281 150,281 150,281 150,281 150,281 150,281 150,280 150,280 150,280 150,280 150,280 150,280 149,279 149,279 149,279 149,279 148,278 147,278 147,278 147,278 146,277 146,277 145,277 145,277 145,277 145,277 145,276 146,276 146,276 146,276 146,276 145,275 145,275 144,275 144,274 144,274 144,274 144,274 144,274 144,274 143,274 143,274 143,274 143,274 143,274 143,274 143,274 143,274 143,275 142,275 141,275 139,275 139,275 139,275 138,275 137,275 137,275 136,275 135,275 135,275 135,275 134,275 134,275 134,275 133,275 133,275 132,275 132,275 132,276 131,276 131,276 131,277 130,277 130,278 129,279 128,281 128,281 128,282 127,284 126,284 126,284 126,283 126,283 126,283 126,283 126,284 126,284 125,283 125,283 125,283 124,283 124,283 124,283 124,283 124,283 124,283 124,283 124,283 124,283 124,283 124,283 124,283 123,283 123,282 123,282 123,282 122,282 122,282 122,282 121,282 121,282 121,282 121,282 121,282 121,282 121,282 120,282 120,282 120,282 120,282 120,282 120,282 120,282 120,282 119,282 119,282 119,282 119,281 119,281 119,281 118,281 118,281 118,281 118,281 118,281 118,281 117,281 117,281 117,281 117,281 117,281 116,281 116,281 116,281 116,281 116,281 116,281 115,281 115,281 115,281 115,281 114,281 114,281 114,281 114,281 114,281 114,281 113,281 113,281 113,281 113,281 113,281 113,281 113,281 113,281 112,281 112,281 112,281 112,281 112,281 112,281 112,281 112,281 112,281 112,281 111,281 110,282 110,282 109,282 108,281 108,281 107,281 107,280 107,280 107,280 106,280 106,280 106,280 105,280 105,280 105,280 104,280 104,280 104,280 104,280 104,279 103,279 103,279 103,279 103,279 103,279 102,279 102,279 102,279 102,279 102,279 101,279 101,279 101,279 101,279 101,279 101,279 101,279 101,279 100,278 100,278 100,278 100,278 100,278 100,278 100,278 100,278 100,278 100,278 100,278 100,278 100,278 99,278 99,278 99,278 99,278 99,278 99,278 99,278 99,278 99,278 99,278 99,278 99,278 99,278 99,278 99,278 98,278 98,278 98,278 98,278 98,278 98,278 98,278 98,278 98,278 98,278 98,278 98,278 98,278 97,278 97,279 97,279 97,279 97,279 97,279 97,279 97,279 97,279 97,279 97,279 97,279 97,279 97,279 96,279 96,279 96,279 96,279 96,279 96,279 96,279 96,279 96,279 96,279 96,279 96,279 96,279 96,279 95,279 95,279 95,279 95,279 95,279 95,279 95,279 95,279 95,279 95,279 95,279 94,279 94,279 94,279 94,279 94,279 94,279 94,279 94,279 94,279 93,279 93,279 93,279 93,279 93,279 93,279 93,279 93,279 93,279 93,279 93,279 92,279 92,279 92,279 92,279 92,279 92,279 92,279 92,279 92,279 92,279 92,279 92,279 92,279 92,279 92,279 92,279 92,279 92,279 91,279 91,279 91,279 91,279 91,279 91,279 91,279 91,279 91,279 90,279 90,279 90,279 90,279 90,279 90,279 90,279 90,279 90,279 90,279 90,279 90,279 90,279 90,279 90,279 90,279 90,279 90,279 90,279 89,279 89,279 89,279 89,279 89,279 89,279 89,279 89,279 89,279 89,279 89,280 89,280 89,280 89,280 89,280 89,280 89,280 89,280 89,280 89,280 89,280 88,280 88,280 88,280 88,280 88,280 89,281 89,281 88,281 88,281 88,281 88,281 88,281 88,281 88,281 88,282 88,282 88,282 88,282 88,282 88,282 88,282 88,282 88,282 88,283 88,283 88,283 87,283 87,283 87,283 87,283 87,283 87,283 87,283 87,283 87,283 87,283 87,283 87,283 87,283 87,283 87,283 87,283 87,283 87,283 86,283 86,283 86,283 86,283 86,283 86,283 86,283 85,283 85,283 85,284 85,284 84,284 84,284 84,284 84,284 83,284 83,284 83,284 82,283 82,283 82,283 82,283 81,283 81,283 81,283 80,283 80,283 80,284 80,284 79,284 79,284 79,284 79,284 78,284 78,284 78,284 78,284 77,284 77,284 77,284 76,284 76,284 76,284 76,284 76,284 76,284 75,284 75,284 75,284 74,284 74,284 74,284 74,284 74,284 73,284 72,284 72,284 72,284 71,284 71,284 71,284 71,284 70,284 70,284 70,284 70,284 70,284 70,283 70,283 70,283 69,282 69,282 68,282 67,279 67,279 67,278 67,278 67,278 67,277 67,277 67,277 67,277 67,277 67,277 67,277 67,276 67,276 67,276 67,276 68,276 68,276 68,276 68,275 68,275 68,275 69,275 69,274 69,274 69,274 69,274 69,274 70,273 69,273 69,273 69,272 69,272 69,271 69,271 69,271 69,270 69,270 69,269 69,269 69,269 72,269 72,269 72,269 72,269 72,268 72,267 72,267 72,267 72,267 72,267 73,267 74,267 74,266 74,266 74,266 74,266 74,266 74,265 73,265 72,264 72,264 71,264 71,264 71,264 70,264 70,264 67,263 66,261 65,260 61,259 62,257 54,255 54,254 54,253 55,250 55,249 55,248 55,248 55,248 55,248 56,246 56,245 56,245 56,244 56,244 56,244 56,243 56,243 56,243 56,242 56,242 55,242 53,242 53,242 52,241 52,241 51,241 49,241 48,241 48,241 47,241 47,241 47,241 46,237 46,237 47,237 47,237 48,233 44,232 31,229 31,229 31,229 31,229 31,228 31,227 31,227 32,227 33,226 33,226 33,225 33,225 33,225 33,224 32,223 31,223 30,223 30,222 30,222 30,222 30,222 28,222 28,222 28,222 27,222 25,223 24,223 23,223 22,220 21,220 21,219 21,219 20,218 21,218 21,217 21,217 21,216 20,215 20,214 20,214 21,213 21,213 21,213 21,212 21,212 21,212 22,211 22,210 22,210 24,209 24,208 25,207 25,205 25,205 25,204 26,204 26,203 26,203 27,203 28,202 28,201 28,201 28,200 28,200 28,200 28,199 28,199 28,199 28,199 28,199 29,198 29,198 29,197 29,197 28,197 28,197 28,197 28,197 28,197 28,197 28,196 28,196 27,196 27,196 27,195 27,195 27,195 27,195 25,195 25,195 25,195 25,195 24,194 24,194 24,194 23,194 23,194 23,193 22,193 22,193 19,194 18,194 14,193 14,193 12,193 12,193 10,192 10,190 10,190 10,190 10,189 10,189 11,189 8,188 7,187 7,187 7,187 6,186 5,186 5,185 4,184 3,184 2,183 1,183 0,182 1,180 1,180 2,180 2,179 2,179 3,179 3,179 3,179 4,178 4,178 5,177 7,176 7,176 8,175 8,175 8,175 9,175 9,175 10,174 10,174 11,174 11,174 11,174 11,174 11,174 11,174 11,174 12,174 12,174 12,173 12,173 12,173 12,173 12,173 12,173 12,173 13,173 13,173 13,173 13,173 13,173 13,173 13,173 13,173 14,173 14,173 14,172 14,172 14,172 14,172 14,172 14,172 14,172 15,172 15,172 15,172 16,171 16,172 16,171 17,171 17,171 17,171 17,171 17,171 17,170 17,170 17,170 18,170 18,170 18,170 18,170 18,169 18,169 18,169 18,169 18,169 18,169 19,169 19,169 19,168 19,168 20,168 20,168 20,168 20,168 20,168 21,168 20,168 21,168 21,168 21,168 21,168 21,167 21,167 22,167 22,167 22,168 22,168 22,168 22,167 22,167 23,167 24,167 24,167 24,167 25,167 25,166 25,166 25,166 25,166 26,166 26,166 26,165 26,165 26,165 26,165 26,165 26,165 26,164 26,164 26,164 27,164 27,163 27,163 28,163 28,163 28,162 28,162 28,162 28,162 29,162 29,162 29,162 29,162 29,162 30,161 30,161 30,161 30,161 31,161 31,161 31,161 31,160 31,160 31,159 31,159 31,159 31,159 31,159 30,158 29,157 29,157 29,157 29,157 29,157 28,156 29,155 28,155 30,152 30,152 30,151 31,149 33,149 36,147 37,147 38,147 38,146 38,146 37,145 38,145 37,144 37,144 39,143 39,143 39,142 40,142 40,140 42,138 50,129 56,123 59,123 59,122 59,121 59,121 59,121 59,120 59,119 58,118 58,118 59,117 58,117 58,116 57,116 56,115 56,116 56,115 56,115 55,115 55,115 55,115 54,115 54,115 54,114 54,114 54,114 53,114 53,114 53,114 53,114 54,114 54,114 54,114 54,114 54,114 54,114 54,114 54,114 54,114 55,114 55,114 55,114 55,114 55,114 55,114 55,114 55,114 55,114 55,114 55,114 56,114 56,114 56,114 56,114 56,114 56,114 57,114 57,114 57,114 57,114 57,114 57,114 57,114 58,115 58,115 58,114 58,114 58,114 58,115 58,115 58,115 58,115 58,115 58,115 58,115 59,115 59,115 59,115 59,115 59,115 60,115 60,115 60,115 60,115 60,115 60,116 60,116 60,115 60,115 61,115 61,116 61,115 61,116 61,116 61,116 61,116 61,116 61,116 61,116 61,116 61,116 61,116 61,116 61,116 61,116 62,116 62,116 62,116 62,116 63,117 63,117 63,117 63,117 63,117 63,117 63,117 63,117 64,117 64,117 64,117 64,117 64,117 64,117 64,118 64,118 64,118 65,118 65,118 65,118 65,118 65,118 66,118 66,118 66,118 66,118 66,118 67,118 67,119 67,119 67,119 67,119 67,119 67,119 67,119 68,119 68,119 68,119 68,119 68,119 68,119 69,119 69,119 69,119 69,119 69,119 69,119 70,119 70,119 70,119 70,119 70,119 70,120 70,120 70,120 71,120 71,119 71,119 71,119 71,119 71,119 71,119 71,119 72,120 72,120 72,120 72,120 72,120 72,120 72,120 72,120 72,120 72,120 72,120 72,120 73,120 73,120 73,120 73,120 74,120 74,120 74,120 74,120 74,120 74,121 74,121 74,121 74,121 74,121 75,120 75,120 75,121 76,121 76,121 76,121 76,121 76,121 76,121 76,121 77,121 77,121 77,121 77,121 77,121 77,121 77,121 77,121 77,121 77,121 77,121 77,121 78,121 78,121 78,121 78,121 78,121 78,121 78,121 78,121 78,121 78,121 78,121 78,121 79,121 79,121 79,121 79,121 79,121 79,121 79,121 79,121 79,121 79,121 79,121 80,121 80,121 80,121 80,121 80,121 80,121 81,122 81,122 81,122 81,122 81,122 81,122 81,122 82,122 82,122 82,122 82,122 82,122 82,122 83,122 83,122 83,122 83,122 83,122 83,122 83,122 84,122 84,122 84,122 84,122 84,122 84,122 84,122 84,123 84,123 84,123 84,123 84,123 84,123 84,123 84,123 85,123 85,123 85,123 85,123 85,123 85,123 85,123 85,123 85,123 85,123 86,124 86,124 86,124 86,124 86,124 86,124 86,124 86,124 87,124 87,124 88,124 88,124 88,124 88,124 88,124 88,124 88,124 88,124 88,124 89,124 89,124 89,124 89,123 89,123 89,124 89,124 89,124 89,124 89,124 89,124 90,124 90,124 90,124 90,124 90,124 90,124 90,124 90,124 90,124 91,124 91,124 91,124 91,124 91,124 91,125 92,125 92,125 92,125 92,125 92,124 92,124 92,124 93,124 93,124 93,124 93,124 93,124 93,124 93,124 93,124 93,124 93,124 94,124 94,124 94,124 94,124 94,124 94,124 94,124 94,124 94,124 94,124 94,124 94,125 94,125 94,125 95,125 95,125 95,125 95,125 95,125 95,125 96,125 96,125 96,125 96,125 96,125 96,125 96,125 96,125 97,125 97,125 97,125 97,125 97,125 97,125 97,125 97,125 97,125 98,125 98,125 98,125 98,125 98,125 98,125 98,125 98,125 98,125 98,125 98,125 98,125 99,125 99,125 99,125 99,125 99,125 99,125 99,125 99,125 99,125 99,125 100,125 100,125 100,125 100,125 100,125 100,125 100,125 100,125 101,125 101,125 101,125 101,125 101,126 101,126 101,126 101,126 101,126 102,126 102,126 102,126 102,126 102,126 102,126 102,126 102,126 102,126 102,126 103,126 103,126 103,126 103,126 103,126 103,126 103,126 103,126 103,126 104,126 104,126 104,126 104,126 104,126 105,126 105,126 105,126 105,126 105,126 105,126 105,126 105,126 105,126 105,126 106,126 106,126 106,126 106,126 106,126 106,126 106,126 106,126 106,126 106,126 106,126 106,126 106,126 106,126 106,126 107,126 107,126 107,126 107,126 107,126 107,126 107,126 107,126 107,126 108,126 108,126 108,126 108,126 108,126 108,126 109,126 109,126 109,126 109,126 109,126 109,126 109,126 110,126 110,126 110,126 110,127 110,127 110,127 110,127 110,127 111,127 111,127 111,127 111,127 112,127 112,127 112,127 112,128 112,128 113,127 113,127 113,128 114,128 113,128 113,128 114,128 114,128 114,128 114,128 114,128 115,128 115,128 115,128 115,128 116,128 116,128 116,128 116,128 116,128 116,128 116,128 117,128 117,128 117,128 117,128 117,128 117,127 117,127 118,127 118,127 118,127 118,127 119,127 119,127 119,127 119,127 119,127 119,127 119,127 119,127 119,127 119,127 119,127 120,127 120,127 120,127 120,127 120,127 120,127 121,127 121,127 121,127 121,127 121,127 121,127 121,127 121,126 122,127 122,127 122,126 123,126 124,126 124,126 124,126 124,126 124,126 124,126 124,126 125,126 125,126 125,126 125,126 125,126 125,126 125,126 126,126 126,126 127,126 127,126 127,126 127,126 127,126 127,126 127,126 127,126 128,126 128,126 128,126 128,126 128,126 128,126 128,126 128,126 128,126 129,126 129,126 129,126 129,126 129,126 129,126 129,126 129,126 129,126 130,126 130,126 130,126 131,126 132,126 132,127 133,127 133,127 133,127 133,127 134,127 134,127 134,127 134,127 134,127 135,127 135,127 135,127 135,127 135,127 135,127 136,127 136,127 136,127 136,127 136,127 136,127 136,127 136,127 137,127 137,127 137,127 137,127 137,127 137,127 137,127 137,127 137,127 138,127 138,127 138,127 138,127 138,127 138,127 138,127 138,127 138,127 138,127 139,127 139,127 139,127 139,127 139,127 139,127 139,127 139,127 139,127 140,127 140,127 140,127 140,127 140,127 140,127 140,127 140,127 140,126 141,126 141,126 141,126 141,126 141,126 142,126 142,126 142,127 142,127 142,127 142,127 143,127 143,127 143,127 143,126 143,126 143,126 143,126 143,126 143,126 144,126 144,126 144,126 144,126 144,126 144,126 144,126 144,126 144,126 144,126 144,126 144,126 144,126 144,126 144,126 145,126 145,126 145,125 145,125 145,125 145,125 146,125 146,125 146,125 146,125 147,125 147,125 147,125 147,125 147,125 147,125 147,125 147,124 147,124 148,124 148,124 148,124 148,124 148,124 148,124 148,124 148,124 148,124 148,124 148,124 149,124 148,124 148,124 149,123 149,123 149,123 149,123 149,123 149,123 149,123 149,123 149,123 149,123 150,123 150,123 150,123 150,123 150,123 150,123 150,123 151,123 151,123 151,123 151,122 151,122 151,122 151,122 152,122 152,122 152,122 152,122 151,122 151,122 151,122 151,122 151,122 151,122 150,122 150,121 149,121 148,121 148,121 148,121 148,121 148,121 147,120 147,120 147,120 147,119 146,119 146,118 146,118 146,118 146,118 146,118 146,118 146,118 145,117 145,117 145,117 145,117 145,116 145,116 144,114 143,114 143,113 143,113 142,113 142,113 143,112 143,112 143,112 143,111 143,111 145,111 145,111 146,111 147,111 147,111 147,110 147,110 147,110 148,109 148,109 148,109 148,109 148,108 149,108 149,108 149,107 149,106 149,106 149,106 149,106 149,105 149,105 149,105 149,105 149,105 149,105 149,103 149,103 149,103 149,101 148,100 148,100 148,100 148,100 147,99 147,99 147,99 147,99 147,99 147,99 147,99 149,97 149,97 149,97 150,97 150,97 150,97 150,97 150,97 150,96 150,96 150,96 150,95 149,95 149,94 149,94 149,93 149,93 148,92 148,92 148,92 149,91 149,91 149,91 148,90 148,90 147,90 147,90 146,89 146,89 146,89 146,89 145,89 145,89 145,89 145,89 145,89 145,89 145,88 145,88 145,88 145,88 145,88 146,88 145,88 145,87 145,87 145,87 145,87 144,87 144,87 143,87 143,86 143,86 142,86 142,86 142,86 142,86 142,86 141,86 140,86 139,85 138,85 138,85 138,85 137,85 137,85 137,85 137,85 137,85 137,84 137,84 137,84 137,84 137,84 136,83 136,83 136,83 137,83 137,83 137,83 137,83 137,83 138,83 138,83 138,83 138,83 139,83 140,82 141,82 142,82 142,82 142,82 142,82 143,82 144,82 145,82 145,82 145,82 145,81 145,81 145,81 146,81 146,81 147,81 147,81 147,81 147,81 147,81 148,81 148,81 148,81 148,81 148,81 148,81 149,81 149,81 149,81 149,81 149,81 149,81 150,81 150,81 150,80 150,80 150,79 150,79 150,79 150,77 150,75 150,75 150,74 150,74 151,73 151,72 151,72 152,71 153,70 154,70 154,69 154,69 154,69 155,68 155,68 157,66 157,66 157,66 157,66 157,66 157,66 155,66 154,66 154,66 152,66 152,66 151,66 150,66 150,66 150,65 149,63 149,63 149,62 150,62 150,61 149,61 149,61 149,60 149,60 149,59 148,59 148,58 148,58 148,58 148,57 149,57 149,57 149,57 149,57 149,57 149,56 149,56 150,56 150,55 151,54 151,54 150,53 148,51 148,50 148,50 148,50 148,50 148,50 149,50 149,50 149,49 149,49 149,49 149,49 149,49 148,49 148,49 148,49 148,48 148,48 148,48 148,48 148,48 148,48 148,48 148,48 148,47 147,47 147,47 147,47 147,47 147,47 147,47 147,47 147,46 147,46 147,46 147,46 147,46 147,46 147,46 147,46 147,46 147,46 147,46 148,45 148,45 147,45 147,45 147,45 147,45 147,45 147,45 146,45 146,45 146,45 146,45 146,45 145,45 145,45 145,45 145,45 145,45 144,45 144,45 144,45 144,45 144,45 144,45 144,45 144,45 144,45 144,45 144,45 143,45 143,45 143,45 143,45 143,45 143,45 142,45 142,45 142,45 142,45 142,45 142,45 142,45 142,44 142,44 142,44 142,44 142,44 142,44 142,44 142,44 142,44 142,44 142,44 142,44 142,44 141,44 141,44 141,44 141,44 141,44 141,44 141,44 141,44 141,44 141,44 140,44 140,44 140,44 140,44 140,44 140,44 140,43 139,43 139,43 139,43 138,43 138,43 138,43 138,43 138,43 138,43 138,43 138,43 138,43 138,43 137,42 137,42 137,42 137,42 137,42 137,42 136,42 136,42 136,42 136,42 136,42 136,42 136,42 136,42 135,41 135,41 135,41 134,41 134,41 134,41 134,41 134,41 134,41 134,41 134,41 134,41 133,41 134,41 133,41 133,41 132,40 132,40 133,40 133,40 133,40 133,40 133,40 134,40 134,40 134,40 134,40 134,40 135,40 135,40 135,41 135,41 135,41 136,41 137,41 137,41 137,41 137,41 137,41 137,41 138,41 138,41 138,41 139,42 139,42 140,41 140,41 140,42 141,42 142,42 142,42 142,42 143,42 143,42 143,42 146,41 146,41 147,41 148,40 149,40 149,40 150,40 150,40 152,39 152,39 153,39 158,37 164,36 165,36 176,33 177,33 181,32 183,31 186,31 187,30 187,30 188,30 189,29 189,29 191,27 192,26 193,26 193,26 200,21 200,21 207,14 207,14 209,11 209,11 209,11 209,11 209,10 209,10 209,9 210,9 210,9 210,9 211,8 211,8 211,8 211,8 211,8 211,8 212,7 213,4 213,4 214,4 215,2 217,0" id="3320" class="canton" fill="steelblue" stroke-width="1" stroke="white" geotype="canton" geoname="Nord-Gironde" code_insee="3320" code_departement="33" nom_departement="Gironde" code_region="75" nom_region="Nouvelle-Aquitaine"/></svg>