<?xml version="1.0" encoding="utf-8"?>
<svg version="1.1" id="svgmap" xmlns="http://www.w3.org/2000/svg" xmlns:xlink="http://www.w3.org/1999/xlink" x="0px" y="0px" width="100%" height="100%" viewBox="0 0 500 191">
<polygon points="1,96 2,95 2,95 2,95 2,95 2,95 2,95 3,94 4,94 5,93 6,93 7,94 7,94 8,94 8,94 9,94 9,95 10,95 10,95 10,95 11,95 11,95 11,95 12,95 12,95 12,95 12,95 13,95 13,95 14,95 15,95 16,95 16,95 16,95 17,95 19,96 19,96 20,96 21,96 21,96 22,96 22,96 23,96 23,95 24,95 24,95 25,95 25,95 25,95 26,95 26,95 26,95 27,95 27,95 28,95 28,95 28,95 29,95 30,95 31,95 31,95 32,95 33,95 33,96 34,96 34,96 35,96 36,96 36,96 37,96 37,96 38,96 38,96 39,96 39,96 39,95 40,95 40,95 41,95 41,95 41,94 42,94 42,94 43,94 43,94 44,94 45,93 45,93 45,93 45,93 45,93 46,92 46,92 46,92 46,92 46,92 47,91 47,91 47,91 47,91 47,90 47,90 48,90 48,90 48,90 48,89 48,89 48,89 48,89 49,89 49,89 49,89 49,89 49,89 50,89 50,89 50,88 50,88 50,88 50,88 51,88 51,88 51,88 52,88 52,88 52,88 52,88 52,88 53,87 53,87 53,88 53,88 53,88 53,87 53,87 54,88 54,88 54,87 54,88 55,87 55,87 55,87 55,87 55,87 55,87 56,87 57,87 57,86 57,86 57,86 57,86 58,86 58,86 58,86 58,86 58,86 59,86 59,86 59,86 60,86 60,86 60,86 60,86 60,86 60,86 60,85 60,85 60,85 60,85 60,85 60,84 60,84 60,84 60,84 61,84 61,83 61,83 61,83 61,83 62,83 62,83 61,82 61,82 62,82 62,81 62,81 62,81 62,81 62,80 62,80 62,80 62,80 62,80 62,79 62,79 62,79 62,79 62,79 62,78 62,78 62,78 62,78 61,78 61,78 61,78 61,78 60,78 60,78 60,78 60,78 60,78 60,78 60,77 60,77 60,77 60,77 59,77 59,77 59,76 59,76 59,76 59,76 58,76 58,76 57,75 57,75 57,75 57,75 57,75 55,74 55,74 55,74 55,74 55,74 55,73 55,73 55,73 54,73 54,73 53,72 53,72 53,72 52,70 52,70 52,70 52,70 52,69 52,69 52,69 52,69 52,68 52,68 52,68 52,67 52,67 52,67 52,66 52,66 52,66 52,66 53,65 53,64 53,63 53,63 53,62 53,62 54,61 54,61 54,61 55,61 55,60 56,59 58,58 58,58 59,58 60,58 60,58 60,58 60,58 62,58 64,57 64,57 65,56 65,56 65,56 66,56 66,56 66,56 66,55 66,55 66,55 66,55 66,55 67,55 67,55 67,55 67,55 67,54 67,54 67,54 67,54 67,54 67,54 67,54 67,54 67,54 68,53 68,53 68,53 68,52 68,52 68,52 68,51 68,51 68,50 68,50 68,49 69,48 69,48 69,48 69,48 70,47 70,47 70,47 70,46 70,46 70,46 71,46 71,46 72,46 72,45 72,45 72,45 73,45 73,45 73,45 73,45 74,45 74,45 74,45 74,45 75,45 75,45 75,45 75,45 75,45 75,45 76,45 76,45 76,45 77,45 77,45 77,45 77,46 78,46 78,46 80,47 80,47 80,47 80,48 81,48 83,48 83,48 83,47 85,47 87,47 90,47 92,47 94,47 94,48 95,47 97,47 98,47 99,48 99,48 99,48 100,49 101,49 101,49 102,49 105,49 109,48 110,48 113,48 117,47 117,47 116,47 116,47 116,45 115,43 116,42 117,40 120,39 122,38 124,37 125,37 126,35 126,35 126,36 126,36 126,36 126,36 125,36 125,36 125,37 125,37 126,37 126,37 126,37 127,37 127,37 127,37 127,37 127,37 127,37 128,38 128,38 128,38 128,37 128,37 128,37 129,37 130,36 130,36 130,36 130,36 131,36 131,36 132,36 132,36 132,35 132,35 132,35 132,35 132,35 131,35 131,35 131,35 131,35 131,35 131,34 131,34 131,34 131,34 131,34 132,34 132,34 132,34 132,34 133,33 133,33 134,33 134,34 134,34 135,34 135,34 135,34 134,35 134,35 134,35 135,35 135,35 135,35 135,35 136,35 136,35 136,35 137,35 137,35 137,36 136,36 136,36 136,36 136,36 136,36 137,36 137,36 137,36 137,36 137,36 137,36 138,36 138,37 138,36 138,36 138,37 139,37 139,37 139,37 139,37 139,37 139,37 139,37 139,36 140,36 140,36 140,36 140,36 140,37 140,37 141,37 141,37 141,37 141,37 141,37 141,37 141,37 142,37 142,37 142,37 142,37 143,37 143,37 143,37 143,37 143,37 143,37 144,37 144,37 144,37 144,37 144,37 144,37 144,37 144,37 144,37 144,37 144,37 144,37 145,37 145,37 145,37 145,37 145,37 145,37 146,37 146,37 146,37 146,38 146,38 146,38 145,38 145,38 145,38 145,38 145,38 145,38 145,38 145,38 145,38 145,38 145,38 145,38 145,38 145,38 145,38 146,38 146,38 146,38 146,38 146,38 146,38 146,38 147,37 147,37 147,37 147,37 147,37 147,38 148,38 148,38 148,38 148,38 148,38 148,38 148,38 148,38 148,38 148,38 148,38 148,38 148,38 149,38 149,38 149,38 149,38 149,38 149,38 149,37 149,37 149,37 149,37 149,37 149,37 150,36 150,36 150,36 150,36 150,35 150,35 150,35 150,35 151,35 152,35 152,35 152,35 152,35 152,35 152,35 152,35 152,35 152,35 152,35 152,35 152,35 153,35 153,35 153,35 153,35 153,35 153,35 153,35 153,35 153,35 153,35 154,35 155,35 155,35 155,35 155,35 155,35 156,36 156,36 156,36 156,36 156,36 156,35 156,35 156,35 156,35 156,35 156,35 156,35 156,35 157,35 157,35 157,35 157,35 157,35 157,35 157,36 157,36 157,36 158,36 158,36 158,36 158,36 158,36 158,36 158,36 158,36 158,35 159,35 159,35 159,35 159,35 159,35 159,35 160,35 160,35 160,35 160,35 160,35 160,35 160,35 161,35 161,35 161,36 161,36 161,36 161,36 161,36 161,36 162,35 162,35 162,35 162,35 162,35 162,35 162,35 162,35 163,36 163,36 164,36 164,36 164,36 164,36 164,36 165,36 165,36 165,36 165,36 165,36 165,36 165,36 166,37 166,37 166,37 166,37 166,37 166,37 166,37 166,37 166,37 166,38 166,38 166,38 167,38 167,38 167,38 167,38 167,38 167,38 167,38 167,39 167,39 167,39 167,39 167,39 167,39 167,39 168,39 168,39 168,40 168,40 169,40 169,41 170,41 170,41 170,41 170,41 170,41 170,41 171,41 171,41 171,41 171,41 171,41 171,41 171,42 171,42 171,42 171,42 172,42 172,42 172,43 173,43 173,43 174,43 174,43 174,43 174,43 174,43 174,43 174,44 174,44 174,44 174,44 174,44 174,44 175,45 175,45 175,45 175,45 175,46 175,46 175,46 175,46 175,46 174,46 174,46 174,46 173,46 173,46 173,46 173,46 172,46 172,46 172,46 171,46 171,46 171,46 171,47 171,47 171,47 171,47 171,47 171,47 170,47 171,49 172,50 172,50 175,51 176,51 172,53 172,53 171,54 171,55 171,55 170,59 170,60 170,60 168,60 168,60 167,60 167,60 166,60 165,60 165,60 165,60 164,60 165,61 166,61 166,61 166,61 166,61 166,62 167,62 167,62 167,62 167,62 169,64 169,65 170,65 170,65 170,66 171,66 172,66 172,66 174,65 175,64 176,64 176,64 176,64 176,64 177,63 177,63 177,63 177,63 177,63 177,63 177,63 177,63 177,63 177,62 179,62 180,62 181,62 185,62 185,62 185,62 187,61 187,61 189,60 191,58 195,55 196,53 197,53 198,52 198,52 198,52 199,51 199,51 199,50 199,50 200,50 201,48 201,48 201,48 201,49 202,49 202,49 202,49 202,49 202,49 202,49 202,49 202,49 202,49 202,49 202,49 203,49 203,49 203,49 203,50 202,50 202,50 202,50 202,50 203,50 203,50 203,50 204,50 204,50 205,49 205,49 205,49 205,49 206,49 206,49 206,49 206,49 206,49 206,49 206,49 207,49 208,49 208,49 208,49 208,49 209,50 209,50 209,50 209,50 209,50 209,50 209,50 209,50 209,50 209,50 209,50 209,50 210,49 210,49 210,49 210,49 210,49 210,48 210,48 210,48 211,48 211,48 211,49 211,49 212,49 212,49 212,49 212,49 213,49 213,49 213,49 213,49 213,49 213,48 213,48 213,48 213,48 213,48 213,48 213,48 213,48 212,48 212,48 212,48 212,48 212,47 212,47 212,47 212,47 213,47 213,46 213,46 213,46 213,46 213,46 213,46 213,46 213,46 213,46 213,46 213,46 213,45 213,45 213,45 213,45 214,45 214,45 215,45 215,45 215,46 215,46 215,46 216,46 216,46 216,47 216,47 216,47 216,47 216,47 217,46 217,46 217,46 218,47 218,47 218,47 218,47 218,47 218,47 218,47 218,47 218,47 218,46 218,46 219,46 219,46 219,46 219,46 219,46 219,46 219,46 219,46 220,46 220,47 220,47 220,47 220,47 221,47 221,48 221,48 220,48 220,48 220,48 220,48 220,49 221,49 221,49 221,49 221,49 221,49 221,49 221,49 222,48 222,48 222,48 222,48 222,48 222,48 223,48 223,48 223,48 222,49 222,49 222,49 222,49 222,49 221,49 221,49 221,50 221,50 221,50 221,50 221,50 221,50 221,50 221,50 221,51 221,51 221,51 222,51 222,51 222,51 222,51 223,51 223,51 223,51 223,51 223,51 223,51 224,51 224,51 224,51 224,50 224,50 224,50 225,50 225,50 225,51 225,51 225,51 225,51 225,51 225,51 225,51 225,51 224,52 224,52 224,52 224,52 224,52 224,52 224,53 224,53 224,53 224,53 224,52 225,52 225,52 225,52 225,52 225,52 225,52 225,53 225,53 225,53 225,53 225,53 225,53 225,54 225,54 225,54 225,54 225,54 225,54 224,54 224,54 224,54 224,54 224,54 224,54 224,54 224,54 224,54 224,54 224,55 224,55 224,55 224,55 224,55 224,55 224,55 224,55 224,55 225,55 225,55 225,55 225,55 225,55 225,55 225,55 225,55 226,55 226,55 226,55 226,55 226,56 226,56 226,56 225,56 225,56 225,56 224,56 224,57 224,57 224,57 224,57 224,57 224,57 224,57 225,57 225,57 225,57 225,57 226,57 226,57 226,57 226,57 226,58 226,58 226,58 226,58 225,58 225,58 225,58 225,58 224,58 224,59 224,59 224,59 224,59 224,59 224,59 225,59 225,59 225,59 225,59 225,59 225,60 225,60 225,60 225,60 225,60 225,60 224,60 224,60 224,60 224,60 224,61 223,61 223,61 223,61 223,61 223,61 224,62 225,62 225,62 225,62 225,62 225,62 225,62 225,63 225,64 225,64 225,64 225,64 225,64 224,64 224,64 224,64 224,65 224,65 223,65 223,65 223,65 222,65 222,65 222,65 222,65 222,65 222,65 222,65 222,65 222,65 222,66 222,66 223,66 223,66 223,66 223,66 223,66 223,66 224,66 225,65 225,65 225,65 225,65 226,65 226,65 226,65 226,65 226,65 226,65 226,66 226,66 226,66 226,66 227,67 227,67 228,67 228,67 228,68 228,68 228,68 228,68 228,68 227,68 227,68 227,68 227,68 227,68 227,69 227,69 227,69 227,69 227,69 227,70 227,70 228,70 228,71 228,71 228,71 228,71 228,71 228,71 228,71 228,71 228,71 229,71 229,71 229,71 230,70 230,70 230,70 230,70 230,69 230,69 230,69 230,69 230,69 231,70 231,70 231,70 231,71 232,71 232,71 232,71 232,71 232,71 232,71 233,71 233,71 233,71 233,71 233,71 234,71 234,71 234,72 234,72 234,72 234,72 235,72 235,72 235,72 235,72 236,72 236,72 237,72 237,72 237,72 238,72 238,72 238,72 239,72 239,72 239,72 239,73 240,73 241,73 242,73 242,73 242,73 242,73 243,73 243,73 243,73 243,73 244,73 244,73 244,73 244,73 244,72 244,72 244,72 244,72 244,71 244,71 244,71 245,70 245,70 245,70 245,70 245,70 245,70 245,70 246,70 246,70 246,70 247,70 247,70 248,70 248,70 248,71 249,71 249,71 249,71 249,71 249,71 250,72 250,72 250,72 250,72 251,72 251,72 251,72 251,72 252,72 252,72 252,72 252,72 252,72 252,72 252,72 252,73 252,73 252,73 253,74 253,74 253,74 253,74 253,74 253,74 253,74 253,74 253,74 254,75 254,75 254,76 254,76 254,76 255,76 255,76 255,76 255,77 256,77 256,77 256,77 256,77 257,77 257,77 258,77 258,78 258,78 258,78 259,78 259,78 259,78 259,77 259,77 259,77 259,77 259,77 259,77 259,77 259,77 259,77 259,77 259,77 259,77 259,77 259,77 259,77 259,77 259,77 259,77 259,77 259,77 259,77 259,77 259,77 259,77 259,77 259,77 259,77 259,77 259,77 259,77 259,77 259,77 259,77 259,77 259,77 259,77 259,77 259,77 259,76 259,76 259,77 260,77 260,76 260,76 260,76 260,76 260,76 260,76 260,76 260,76 260,76 260,75 260,75 260,75 260,75 260,75 260,75 260,75 261,75 261,75 261,75 261,75 261,75 262,75 262,76 262,76 263,76 263,75 263,75 263,75 263,75 264,75 264,75 264,75 264,75 265,75 266,75 266,75 266,74 266,74 266,75 266,74 266,75 267,75 267,75 267,75 267,75 268,75 268,75 268,75 268,75 269,75 269,75 269,75 269,75 269,75 269,75 269,75 269,74 269,74 269,74 270,74 270,74 270,74 270,74 271,74 271,74 271,72 270,71 269,71 262,69 262,69 261,69 261,68 256,64 257,64 258,61 259,60 259,60 259,60 260,59 260,59 260,58 260,58 261,58 261,58 261,58 261,57 261,57 261,57 262,57 262,57 262,57 262,56 262,56 262,56 262,56 263,56 263,55 263,55 263,55 264,55 264,55 264,55 265,55 265,55 265,54 265,54 265,54 265,54 266,54 266,53 266,53 267,53 267,53 267,53 268,53 268,52 268,52 269,52 269,52 270,52 270,52 270,52 271,52 271,51 272,51 272,51 272,51 272,50 272,50 271,50 271,50 272,50 272,50 272,49 273,49 272,49 272,49 271,48 272,47 272,46 274,45 276,43 278,42 278,43 279,42 279,42 279,42 279,42 279,41 279,41 279,41 279,40 279,40 282,37 284,35 285,34 286,34 290,34 291,34 293,34 295,34 295,35 295,36 295,36 295,36 295,36 294,37 294,38 293,39 293,39 292,41 292,41 292,42 291,43 291,44 295,46 295,46 296,46 296,45 296,45 297,45 299,43 299,43 300,43 300,43 300,43 300,43 300,43 300,42 299,41 299,41 299,41 299,41 299,41 299,40 299,39 299,38 299,38 299,38 299,37 299,37 299,37 299,37 299,36 299,36 299,36 299,36 299,36 297,35 296,34 296,34 296,34 296,34 296,34 296,34 297,34 297,34 297,34 297,34 298,34 298,34 298,35 298,35 299,35 299,35 299,35 300,35 300,35 300,35 300,35 301,35 301,35 302,35 302,35 302,35 303,36 303,36 304,36 304,36 304,36 305,36 305,36 305,36 305,36 308,36 309,36 311,37 313,37 314,38 315,37 315,36 315,35 317,32 317,31 318,30 318,30 317,30 318,30 318,30 318,30 318,29 319,29 319,27 318,27 317,26 318,24 320,23 322,19 322,20 322,20 323,20 323,20 324,20 325,20 325,19 325,19 325,18 325,18 325,18 325,17 325,17 325,17 325,17 325,17 325,17 324,17 324,17 324,17 324,17 323,17 323,16 323,16 322,16 322,16 322,16 321,16 321,16 321,16 321,16 321,16 321,15 321,15 321,15 322,14 322,13 322,12 323,11 324,12 326,13 326,13 326,13 326,13 326,12 326,12 327,12 327,12 327,12 327,12 327,12 327,12 328,12 328,11 328,11 328,11 328,11 328,11 329,11 329,11 329,11 329,11 329,11 329,11 329,10 329,10 329,10 329,10 329,10 330,10 330,10 330,10 330,10 330,10 330,10 330,9 331,9 331,9 331,9 331,9 331,9 331,8 332,8 332,8 332,8 332,8 332,7 332,7 332,7 332,7 332,7 333,7 333,7 333,7 333,7 333,7 333,7 334,7 334,6 334,6 335,7 335,7 335,7 335,7 335,7 335,7 335,7 336,7 336,7 336,7 336,7 336,7 337,8 338,8 339,8 340,8 340,8 340,8 340,7 340,7 340,7 340,7 340,7 340,7 340,7 340,7 340,7 341,7 341,7 341,7 341,7 342,7 342,7 342,7 342,7 342,7 342,7 342,7 343,7 343,7 343,6 343,6 343,6 343,6 343,6 343,6 344,5 344,5 344,5 344,5 345,4 345,4 346,4 346,4 346,3 347,3 347,3 347,3 348,3 348,2 347,1 348,1 349,1 350,1 350,1 350,1 351,0 351,1 351,1 351,1 352,1 353,1 353,2 354,2 354,2 356,3 357,3 357,4 358,4 358,4 358,3 358,3 359,3 360,3 361,3 361,3 361,2 361,2 362,1 362,0 363,0 364,0 364,0 364,1 364,1 364,2 364,2 365,3 365,3 366,3 366,3 366,3 367,3 368,3 368,3 368,3 370,3 370,3 372,3 372,3 373,2 373,2 373,2 373,2 374,2 375,3 377,3 378,4 378,4 379,5 380,4 380,3 380,3 381,3 381,3 381,3 381,3 381,3 381,3 381,3 381,3 382,3 382,3 382,3 382,3 383,3 383,3 383,4 384,4 384,4 384,4 384,4 384,5 384,5 384,6 384,6 383,8 383,8 383,8 383,8 383,8 383,8 383,9 383,9 383,9 383,9 383,9 383,9 383,9 383,9 384,11 384,11 384,11 384,11 384,11 384,11 385,14 389,19 389,19 389,19 389,18 389,18 394,18 394,18 394,18 394,18 394,18 394,18 394,18 395,18 395,18 395,18 395,18 395,18 395,17 395,17 395,17 395,17 395,17 395,17 395,17 395,17 395,17 395,17 395,17 395,17 395,17 395,17 395,17 395,17 395,17 395,17 395,17 395,18 395,18 395,18 395,18 395,18 396,18 396,18 396,18 396,18 396,18 396,19 396,19 396,19 396,19 396,19 396,19 396,19 396,19 395,19 395,19 395,19 395,19 395,19 395,19 395,19 395,19 395,19 396,19 396,19 396,19 396,19 396,19 396,19 396,19 396,19 397,19 397,19 397,19 397,19 397,19 397,19 397,19 397,19 397,19 398,19 398,19 398,19 398,19 398,19 398,19 398,19 398,19 398,19 398,19 398,19 398,19 398,19 398,19 399,19 399,19 399,19 399,19 399,19 399,19 399,19 399,19 399,19 399,19 400,19 400,19 400,19 400,19 400,19 400,19 400,19 400,19 400,19 400,19 400,19 400,19 400,19 400,19 400,19 400,19 400,19 400,19 400,19 400,19 401,19 401,19 401,19 401,19 401,19 401,19 401,19 401,19 401,19 401,19 401,19 401,19 401,19 401,19 401,19 401,19 401,19 401,19 401,19 402,19 402,19 402,19 402,19 402,19 402,19 402,19 402,19 402,19 402,19 402,19 402,19 402,19 402,19 402,19 402,19 402,19 402,19 402,19 402,19 402,19 402,19 402,19 402,19 402,18 402,18 402,18 402,18 402,18 402,18 402,18 402,18 402,18 403,18 403,18 403,18 403,18 403,18 403,18 403,18 403,18 403,18 403,18 403,18 403,18 403,18 403,18 403,18 404,18 404,18 404,18 404,18 404,18 406,20 406,20 407,21 407,21 407,21 407,21 407,21 408,22 408,22 408,22 408,22 408,22 408,23 408,23 408,24 408,24 407,24 407,25 407,26 406,26 406,26 406,26 406,26 406,26 406,27 406,27 407,27 407,27 407,27 407,27 408,28 408,28 409,28 409,29 409,29 408,30 408,30 408,30 408,31 407,31 407,32 407,32 406,32 406,33 406,33 406,33 406,33 406,33 405,34 405,35 405,35 405,36 404,36 404,37 402,38 401,39 400,40 398,42 398,43 397,43 395,45 395,45 395,46 394,46 393,48 391,49 392,50 392,52 392,52 392,53 393,53 393,55 394,56 396,57 398,57 398,57 400,58 403,59 405,59 405,60 406,60 406,60 405,60 405,60 405,61 405,61 406,61 406,61 406,61 406,61 406,61 407,61 407,61 407,61 407,61 407,61 408,62 408,62 408,62 408,62 409,63 409,63 409,63 410,64 410,64 411,63 412,63 413,62 414,61 415,61 415,62 416,62 417,62 418,62 418,62 418,62 418,62 419,62 419,62 419,62 420,63 421,63 421,63 421,63 423,63 423,63 422,62 423,60 424,59 424,59 424,59 425,59 425,58 425,58 425,58 426,57 426,57 426,57 426,57 427,58 428,58 428,58 428,58 428,58 428,58 429,58 429,58 429,58 429,58 429,58 430,58 430,58 431,58 431,58 431,58 432,58 432,58 432,58 432,58 432,58 432,58 432,58 433,58 433,58 433,58 433,58 433,58 433,58 434,58 434,58 434,58 434,57 434,57 434,57 435,57 435,57 435,57 435,57 436,57 436,57 436,57 436,57 437,57 437,57 437,57 439,57 440,57 440,57 441,57 441,57 442,57 443,57 443,57 444,57 444,57 445,57 446,57 446,57 446,57 447,57 447,57 447,57 447,57 448,57 449,57 449,57 450,57 450,57 450,57 450,57 451,57 451,57 452,56 452,56 452,56 453,56 453,56 453,56 454,56 454,56 455,55 458,52 458,50 458,50 459,51 460,51 461,51 461,51 461,51 462,51 462,52 462,52 463,54 463,55 463,55 463,56 463,57 463,58 463,59 462,61 462,61 462,61 462,62 462,62 462,62 462,63 463,63 463,63 463,64 463,64 463,64 463,64 464,65 464,65 464,65 464,65 464,65 465,67 465,67 465,67 465,68 465,68 465,68 465,68 465,69 465,69 465,69 465,69 465,69 465,69 465,69 466,69 466,69 466,69 466,69 466,70 466,70 466,70 467,70 468,71 469,71 469,71 470,71 470,71 470,71 473,71 474,72 474,72 474,72 476,72 479,72 480,72 480,72 481,72 481,72 487,71 487,71 487,72 487,72 487,72 487,72 487,73 486,74 486,75 486,75 486,75 486,75 486,76 486,76 486,77 486,78 487,78 487,78 487,78 487,78 487,78 488,78 488,78 488,78 488,78 488,78 489,78 489,78 489,78 489,78 490,78 490,78 491,78 492,78 492,78 493,78 493,78 493,78 494,78 494,77 494,77 494,77 495,77 495,77 495,77 495,77 495,77 495,77 495,77 496,77 496,77 496,77 497,77 497,77 497,77 497,78 497,78 497,78 498,78 498,78 498,78 498,78 499,78 499,78 500,78 500,78 500,78 499,79 499,79 499,79 499,79 498,80 498,80 498,80 498,80 497,81 497,81 497,81 497,81 496,81 496,81 495,81 495,81 498,86 498,86 497,87 497,87 496,87 496,88 495,88 495,88 495,88 495,88 494,88 494,89 493,89 493,90 492,90 492,90 491,91 491,91 490,92 490,92 490,92 490,92 490,92 490,92 490,92 490,92 490,92 489,93 489,93 489,93 489,93 489,93 489,93 489,93 489,93 489,93 489,93 489,94 488,94 488,94 489,94 489,98 489,98 488,98 488,99 488,99 488,99 488,100 488,100 487,101 488,101 488,100 488,101 488,101 488,101 487,101 487,101 487,101 487,101 486,101 486,101 484,101 484,101 481,102 480,102 479,102 480,103 480,103 480,103 480,104 480,104 481,105 477,108 470,109 469,110 469,110 469,110 469,111 468,111 468,111 468,111 468,112 468,113 467,113 466,113 465,114 464,114 464,114 464,114 464,114 462,114 462,114 462,114 462,114 463,113 462,114 460,114 459,114 459,114 459,114 459,114 459,114 459,114 460,114 460,115 460,115 460,115 460,116 460,116 460,116 460,116 459,116 459,116 458,117 457,117 457,117 455,117 455,117 454,117 453,117 453,116 453,116 452,114 452,114 450,112 450,112 451,112 450,112 450,112 449,111 449,111 449,111 448,110 447,110 447,109 447,109 447,108 446,108 446,108 446,108 446,108 446,108 446,108 445,108 445,108 445,108 444,108 444,108 444,108 443,108 443,108 443,108 443,108 443,108 443,108 443,108 442,108 442,108 442,108 442,108 441,107 441,107 441,107 441,107 441,107 441,107 440,107 440,107 440,107 440,107 439,107 439,107 439,106 439,106 439,106 438,106 438,106 438,105 438,105 437,106 437,106 437,106 437,106 437,107 437,107 437,107 437,108 437,108 437,108 437,108 437,108 437,108 436,108 436,108 435,108 435,108 435,108 435,108 435,108 434,108 433,108 433,108 433,108 433,108 431,109 431,109 431,111 431,111 431,111 431,111 430,112 430,112 430,112 430,112 430,112 430,112 430,112 429,112 429,112 429,112 429,113 429,113 428,113 428,113 428,113 427,113 427,113 426,113 425,113 425,113 424,113 422,112 421,113 421,112 420,112 420,112 418,112 418,112 418,112 417,112 417,112 417,112 417,112 417,112 417,112 416,112 416,112 416,112 416,112 416,112 416,112 416,112 416,112 416,112 415,112 415,112 415,112 415,112 414,112 414,112 414,112 414,112 414,112 413,112 413,112 413,112 413,112 413,112 413,113 413,113 413,113 413,113 413,113 413,113 413,113 413,113 413,113 413,113 413,114 413,114 413,114 413,114 413,114 413,115 412,118 412,118 410,118 405,118 405,118 404,117 403,117 403,117 402,117 402,116 400,116 400,116 400,116 400,116 400,116 399,116 399,116 399,116 398,116 398,116 399,115 400,113 398,112 397,112 396,112 396,112 396,112 396,111 395,111 395,112 395,112 395,112 394,112 394,112 393,112 393,112 393,112 392,112 392,111 392,111 392,111 392,111 392,111 391,111 391,111 391,111 390,111 390,111 390,111 389,111 388,111 388,111 387,111 387,111 387,111 387,111 386,111 386,111 386,111 386,111 386,111 386,112 386,112 385,112 385,112 384,111 384,111 383,112 383,112 383,112 383,112 382,112 382,112 382,112 382,112 382,112 383,114 381,115 381,115 383,118 382,118 381,118 381,118 381,118 380,119 380,119 381,119 380,120 380,121 378,121 378,121 379,122 379,122 379,123 379,123 379,123 379,123 379,124 380,124 380,124 378,124 378,124 377,124 377,124 377,124 376,125 376,124 375,125 375,125 373,126 372,126 372,126 372,126 371,126 371,127 370,127 370,127 370,127 370,127 370,127 369,127 369,127 369,127 368,127 368,127 368,128 368,129 367,129 367,129 367,130 367,130 367,130 366,130 365,130 365,130 364,130 364,130 362,130 362,130 361,130 360,130 361,130 361,131 361,131 362,131 362,131 362,131 361,131 361,131 361,132 363,132 364,132 366,131 367,131 368,131 368,131 368,131 369,132 369,132 369,132 369,132 369,132 369,133 370,133 370,133 370,133 370,134 370,134 370,134 374,134 374,136 375,136 376,137 374,139 374,140 373,141 373,141 373,142 373,142 373,143 373,144 373,144 373,145 373,145 373,146 373,146 372,146 372,147 372,147 371,147 371,147 371,148 371,148 370,148 370,147 370,147 369,147 369,147 369,147 368,148 367,148 367,148 367,148 366,148 363,148 363,148 363,149 363,149 363,149 363,149 362,148 362,148 362,148 361,148 361,147 361,148 361,148 360,148 360,148 360,148 359,148 359,148 359,149 359,149 358,149 358,149 358,149 358,149 358,149 358,149 358,149 357,150 357,150 357,150 357,150 357,150 357,150 357,150 356,151 356,151 356,151 356,151 356,151 355,151 355,151 355,151 354,151 354,150 353,150 353,150 352,150 352,149 351,149 350,148 351,146 351,146 351,146 350,146 350,146 349,146 348,146 348,146 348,146 348,145 348,145 348,144 348,144 347,144 346,144 346,144 345,143 345,143 345,142 345,142 344,142 344,142 344,141 343,142 342,142 342,142 341,143 341,143 340,143 340,144 340,144 340,144 339,145 339,145 339,145 339,146 339,147 340,147 340,147 341,147 341,147 341,147 341,147 341,148 342,148 342,148 343,149 343,149 343,150 343,150 342,150 340,149 339,149 337,149 337,148 337,148 336,148 336,148 336,148 336,148 336,148 335,149 335,149 334,149 333,150 333,151 333,151 333,151 333,152 333,153 334,153 334,153 334,153 334,153 335,154 335,154 335,154 335,155 336,155 336,155 335,155 335,155 335,155 334,155 334,155 334,155 334,156 334,156 334,156 333,156 333,157 333,157 333,157 333,157 333,157 334,157 334,157 334,158 334,158 334,159 334,159 334,160 334,160 334,160 334,160 333,159 333,159 333,159 332,159 332,159 332,159 331,159 331,160 331,160 331,160 331,160 330,160 330,160 330,159 330,159 329,159 329,159 328,159 328,159 328,159 328,158 328,158 328,158 328,158 328,158 327,156 327,155 321,154 321,154 319,154 319,154 317,153 317,153 317,153 316,153 316,152 315,152 315,152 315,152 314,152 314,152 314,152 314,152 313,152 312,152 311,152 311,152 311,152 311,152 310,152 310,152 309,151 308,150 308,150 308,149 308,149 308,148 309,148 309,147 310,147 311,147 311,147 312,147 312,147 312,147 313,146 312,146 312,146 313,145 313,145 313,144 313,143 313,143 313,143 314,143 314,143 314,143 315,143 315,143 315,144 316,144 316,144 317,145 317,144 317,144 317,144 317,144 317,143 317,143 317,143 317,143 317,142 317,142 317,142 317,142 316,141 316,141 316,141 316,139 316,138 316,138 316,138 316,138 315,138 315,138 315,138 315,138 315,138 315,138 316,137 316,137 318,136 318,137 318,137 318,137 318,136 317,136 317,136 317,135 316,134 315,134 315,133 315,133 314,133 314,133 313,132 312,132 311,131 313,130 314,129 319,128 321,126 321,126 324,124 322,123 318,123 318,123 317,121 317,120 317,120 316,120 316,118 316,118 316,117 316,117 317,117 317,117 317,117 318,116 319,116 318,115 318,115 318,115 317,114 317,114 316,113 316,113 315,113 315,113 314,112 314,112 314,112 312,111 312,111 312,111 311,111 311,111 311,111 310,111 309,111 309,111 307,111 306,111 305,111 305,111 305,111 305,112 304,112 304,112 304,113 304,113 303,113 302,114 301,114 301,115 300,115 300,115 300,116 299,116 299,117 299,118 299,118 299,118 298,119 298,119 297,119 297,120 297,120 297,120 297,120 298,121 298,121 298,121 298,121 298,121 298,122 298,122 297,122 297,122 296,122 296,123 296,123 295,124 295,124 294,125 293,125 293,125 292,126 292,126 291,126 291,127 291,127 290,128 290,128 289,128 288,128 287,128 286,128 286,129 285,129 285,129 285,129 285,129 284,130 284,130 284,131 284,131 285,131 285,131 285,132 285,132 284,133 284,134 283,135 283,136 282,137 282,137 280,138 280,138 280,138 279,138 278,138 278,138 277,138 277,138 277,138 276,137 276,137 276,137 275,136 274,136 273,135 272,135 270,134 270,134 269,134 267,134 267,134 267,133 267,133 266,133 266,133 266,133 266,133 266,133 266,133 266,133 266,133 266,132 266,132 266,132 266,132 265,132 265,132 265,132 265,132 265,132 265,132 265,132 265,131 265,131 264,131 264,131 264,131 264,131 263,131 263,131 263,131 262,131 262,131 263,131 263,132 263,132 262,132 262,132 262,132 261,131 261,131 261,131 261,131 261,131 261,131 261,130 261,130 261,130 261,130 261,130 261,130 261,130 261,130 261,129 261,129 261,129 261,129 261,129 261,129 261,128 261,128 261,128 261,128 261,128 261,128 261,127 261,127 261,127 261,127 261,127 261,127 261,127 261,126 261,126 261,126 261,126 261,126 261,126 261,126 261,126 261,126 262,126 262,126 262,126 262,125 263,125 263,125 263,125 263,124 263,124 263,124 263,124 264,124 264,124 264,124 264,123 264,123 264,123 264,123 264,123 264,123 264,123 265,123 265,123 264,122 264,122 264,122 264,122 265,122 265,122 265,122 264,122 264,122 264,121 264,121 265,121 265,121 265,120 265,120 264,120 264,120 264,120 264,120 264,119 264,119 265,119 265,118 265,118 265,118 265,118 265,118 265,118 265,118 265,118 265,118 265,117 265,117 264,117 264,117 264,117 264,117 264,117 263,117 263,117 262,116 262,115 262,115 262,115 260,114 260,114 259,113 259,113 258,112 258,112 257,112 256,112 256,111 255,109 255,109 254,108 254,108 254,108 254,108 254,108 253,108 253,108 253,108 253,108 253,108 253,108 252,108 252,108 252,108 252,108 252,108 251,109 251,109 251,109 251,109 250,109 250,109 250,109 249,109 249,110 249,110 249,110 249,110 249,110 249,110 249,110 249,110 248,110 248,110 248,110 248,110 248,110 248,111 248,111 248,111 247,111 247,111 247,111 247,111 247,111 247,111 247,110 246,110 246,109 246,109 244,108 244,108 244,108 244,108 244,108 244,108 244,108 244,108 243,108 243,109 243,109 243,109 243,109 242,109 242,109 242,109 242,109 241,109 241,110 241,110 240,110 240,110 240,110 240,111 240,111 239,111 239,111 239,111 239,111 239,111 239,112 239,112 238,112 238,112 238,112 238,112 238,112 238,112 237,112 237,112 234,109 234,109 234,109 233,109 233,109 233,109 233,109 230,111 229,113 229,114 225,118 223,120 221,122 220,123 218,124 216,125 214,127 212,131 210,133 209,134 208,134 208,134 204,135 200,137 198,137 198,137 194,138 194,138 193,138 192,139 191,140 188,141 185,141 185,141 181,144 181,144 181,144 181,144 181,144 181,144 181,144 181,144 181,144 181,144 180,144 180,145 180,145 180,145 180,145 180,145 180,145 180,146 180,146 180,146 180,146 180,146 180,146 180,146 180,147 180,147 180,148 180,148 180,148 180,149 180,149 180,149 180,150 180,150 180,150 180,150 181,151 181,151 181,151 182,152 182,152 183,152 183,152 184,152 185,153 185,154 185,154 185,154 185,154 185,154 185,154 184,155 184,155 184,155 184,155 184,155 184,155 184,155 184,155 184,155 185,156 184,157 184,158 184,158 184,160 184,160 183,161 181,166 181,166 181,166 181,166 181,166 181,167 181,167 180,167 180,167 180,167 180,167 180,167 179,168 179,168 179,168 179,168 179,168 178,168 178,168 178,168 178,169 178,169 178,169 178,169 178,169 178,169 178,169 178,169 178,169 178,169 178,169 178,169 177,170 177,170 177,170 177,170 177,170 177,170 177,170 177,170 177,171 177,171 177,171 177,171 177,171 177,172 177,172 177,172 177,172 177,172 176,172 176,172 176,173 176,173 176,173 176,173 176,173 176,173 176,173 176,173 176,174 176,174 176,174 176,174 176,174 175,174 175,174 175,174 174,174 174,175 174,175 173,175 173,176 173,176 172,176 172,176 172,176 172,176 172,176 171,176 171,176 171,176 171,176 171,176 171,176 171,176 171,176 171,176 171,176 171,176 171,176 170,176 170,176 169,176 169,176 169,176 169,176 169,177 169,178 169,178 169,179 170,179 170,179 170,179 170,179 170,179 170,180 170,180 171,180 172,181 172,181 172,181 172,181 172,182 173,182 173,182 173,182 173,182 173,182 174,182 173,182 173,182 173,182 174,183 174,183 174,183 173,183 173,183 173,183 173,183 173,183 173,183 172,183 172,183 171,183 171,184 172,184 171,184 170,184 169,184 167,184 166,184 165,183 165,183 164,182 164,182 164,182 163,181 162,181 162,181 161,182 160,182 160,181 160,181 160,180 160,180 161,180 161,180 161,179 161,179 160,179 160,179 159,179 159,179 159,179 158,180 159,180 160,181 160,181 160,181 160,181 159,181 159,182 159,182 158,181 158,181 158,181 157,181 157,182 157,182 157,183 156,183 156,183 155,183 155,183 155,183 155,183 155,183 155,183 154,183 154,183 154,183 154,183 154,183 153,183 153,182 153,183 152,183 152,183 151,184 150,183 150,183 149,182 149,182 149,182 148,181 147,182 147,182 147,182 147,182 148,182 147,182 147,183 148,183 148,183 148,183 148,183 148,184 148,184 148,184 148,185 147,185 147,185 147,185 147,186 146,186 146,186 146,185 146,185 145,185 146,184 146,184 146,184 146,184 146,184 145,183 145,183 145,183 145,183 145,183 142,183 143,183 143,183 142,184 144,185 143,185 143,186 143,186 144,186 144,186 144,186 144,186 143,187 143,187 143,187 143,188 143,188 143,188 143,188 143,188 143,188 143,188 142,188 142,188 142,188 142,189 141,189 141,189 141,189 141,189 141,189 140,189 141,189 139,189 139,189 138,189 137,189 136,189 136,189 135,189 135,189 134,189 133,190 132,190 132,190 131,190 130,189 130,189 130,188 129,188 129,187 128,187 128,186 127,186 126,186 125,186 125,186 124,187 124,187 123,187 121,188 119,188 119,188 118,188 117,189 115,189 115,189 115,189 114,189 114,189 114,189 114,189 114,190 113,190 113,190 112,190 111,191 110,191 110,191 110,191 109,191 109,191 108,188 107,187 107,186 107,186 108,186 107,186 107,186 107,185 107,185 107,185 107,184 107,184 107,184 107,184 107,184 107,183 107,183 107,183 106,183 106,183 106,183 106,183 106,183 106,183 106,183 106,183 105,182 105,182 105,182 105,182 105,182 105,182 104,182 104,181 104,181 104,181 104,181 103,181 103,181 103,181 102,181 102,181 102,181 102,181 101,181 101,181 101,181 101,181 100,181 100,181 100,181 99,182 99,182 99,182 99,182 99,182 98,182 98,182 98,182 98,182 98,182 98,182 97,183 97,183 96,183 96,183 96,183 96,183 96,183 95,182 95,182 95,182 95,182 95,182 94,182 94,182 94,182 93,181 93,181 94,180 94,180 94,180 93,180 93,180 93,180 93,180 92,180 92,180 92,180 92,180 91,180 91,180 91,180 91,180 91,180 91,180 91,180 90,180 90,180 90,180 90,180 90,180 90,180 90,180 89,180 89,180 89,180 88,180 88,180 87,180 87,180 87,180 87,180 87,180 86,180 87,180 87,181 86,181 86,181 86,181 85,181 85,180 85,180 85,180 86,179 86,179 84,178 83,178 83,179 83,180 82,180 82,180 81,181 80,180 79,180 79,180 78,180 78,180 78,180 78,180 78,181 79,181 79,181 79,181 78,181 78,181 77,180 77,180 76,180 76,180 76,180 76,180 76,179 76,179 75,179 75,179 75,179 75,179 75,179 75,178 75,178 74,178 74,178 74,178 74,177 73,177 73,177 73,177 73,177 73,176 73,176 73,177 73,177 72,176 72,176 72,176 72,176 72,176 71,176 71,175 71,175 71,175 70,175 70,175 69,175 69,175 69,174 69,174 68,174 68,174 67,174 67,173 67,173 66,173 66,173 66,173 66,173 66,173 66,173 66,172 65,172 65,172 65,172 65,172 64,171 64,171 63,172 63,172 62,171 62,171 62,171 61,171 61,171 60,171 60,171 60,171 60,170 59,170 59,169 59,169 59,169 60,169 60,169 60,169 60,169 60,169 60,169 60,168 60,168 60,168 60,168 61,168 61,168 61,168 61,168 62,167 62,167 62,167 63,167 63,166 63,166 63,166 63,166 64,165 64,165 65,165 65,165 66,164 66,164 66,164 66,164 67,164 67,163 67,162 67,162 67,162 67,162 68,161 68,161 68,160 68,160 68,160 68,159 68,159 68,158 68,158 68,158 68,158 68,157 68,157 68,157 68,157 67,157 67,156 66,156 66,156 66,156 65,156 65,156 65,155 64,155 64,155 64,155 64,155 63,155 63,155 62,154 62,154 62,154 62,154 62,153 63,153 63,153 63,153 63,152 63,152 63,152 63,151 63,151 63,151 63,151 63,150 64,150 64,150 64,150 64,149 64,149 63,149 63,148 63,148 62,146 62,145 62,141 62,141 62,141 61,140 61,140 61,140 61,140 61,140 61,139 61,139 60,136 59,135 59,135 59,134 59,134 59,133 59,132 59,132 59,132 58,131 58,131 58,130 57,130 57,130 57,130 57,129 56,129 56,128 56,128 56,128 56,128 55,128 55,127 55,127 55,127 55,127 54,126 54,126 54,125 53,125 53,124 53,123 53,123 53,123 54,122 54,122 52,122 51,121 50,121 50,121 49,120 49,120 49,120 48,120 47,121 47,121 47,121 47,121 46,121 46,121 45,121 45,121 45,120 42,120 42,120 42,120 42,120 41,120 41,120 41,119 41,119 40,120 40,120 39,120 39,119 39,120 39,120 38,119 37,119 37,119 37,118 37,118 36,118 36,118 36,118 35,118 35,118 35,117 34,117 34,117 33,117 33,117 32,117 32,117 32,117 32,117 31,117 31,117 31,117 30,117 29,117 29,117 28,117 28,118 27,118 27,118 26,118 26,118 25,118 25,118 24,118 24,118 24,118 23,118 23,117 22,117 22,117 22,117 22,116 22,116 22,115 22,115 22,115 22,115 22,115 22,115 21,114 21,114 21,114 21,113 21,113 21,113 20,113 20,113 20,113 20,113 20,112 20,112 20,112 21,112 21,111 22,111 22,111 22,111 21,111 21,111 20,110 20,110 20,110 20,109 19,109 19,109 19,109 19,109 20,108 20,108 20,108 19,108 19,108 19,108 19,107 19,107 19,107 19,107 20,106 20,106 19,105 19,105 19,104 19,104 19,104 19,103 18,103 18,103 17,103 16,103 16,102 15,102 15,102 15,102 14,102 14,102 13,102 13,102 13,101 12,101 12,101 12,101 12,100 12,100 12,99 11,99 11,99 10,99 10,98 10,98 10,98 9,98 9,98 8,98 8,98 7,98 7,98 6,98 5,98 5,98 5,97 4,97 4,97 4,97 3,96 3,96 3,96 2,96 2,97 2,97 2,97 2,97 1,97 0,98 0,98 0,97 0,97 0,97 0,96 1,96 1,96 1,96" id="3411" class="canton" fill="steelblue" stroke-width="1" stroke="white" geotype="canton" geoname="Lodève" code_insee="3411" code_departement="34" nom_departement="Hérault" code_region="76" nom_region="Occitanie"/></svg>