<?xml version="1.0" encoding="utf-8"?>
<svg version="1.1" id="svgmap" xmlns="http://www.w3.org/2000/svg" xmlns:xlink="http://www.w3.org/1999/xlink" x="0px" y="0px" width="100%" height="100%" viewBox="0 0 500 398">
<polygon points="251,32 251,32 254,20 254,20 292,15 295,15 298,15 299,15 300,14 307,10 308,9 322,1 323,1 328,3 328,3 329,3 330,2 330,2 330,2 333,3 340,5 340,5 341,4 341,4 342,4 342,4 342,4 348,4 352,4 351,4 351,4 363,4 363,4 363,7 363,8 363,8 364,9 365,9 365,9 373,11 375,11 376,12 376,12 376,12 375,14 375,14 375,14 377,14 378,13 380,13 383,14 385,13 392,12 393,11 402,8 406,6 406,6 407,5 408,4 408,2 408,1 409,1 410,1 411,0 412,0 413,0 414,0 414,1 415,1 415,2 415,3 415,4 415,6 414,8 414,9 415,9 417,11 417,12 418,13 419,13 422,13 423,13 424,13 425,13 426,13 426,12 427,11 427,11 428,11 428,11 429,11 434,13 434,13 434,13 434,14 434,14 432,16 431,18 431,20 430,22 430,22 431,25 434,30 436,34 438,37 438,38 437,38 436,39 435,40 434,40 434,40 433,41 432,42 432,43 431,48 431,48 431,50 431,53 431,55 430,56 430,61 429,67 429,68 429,70 428,72 428,73 427,81 427,82 426,84 423,84 421,84 420,84 416,84 411,84 405,85 401,85 398,85 397,85 396,85 388,86 383,86 380,86 377,86 375,85 373,85 372,86 370,100 361,112 345,120 338,121 338,124 338,130 339,133 340,134 342,134 343,134 346,135 354,139 356,139 357,140 359,143 366,145 364,148 363,148 362,150 361,150 361,150 359,152 353,158 352,159 352,159 345,160 342,161 341,161 350,163 350,164 349,165 349,167 347,172 345,176 345,177 415,190 416,190 417,192 419,195 419,195 420,196 421,198 424,202 426,207 428,209 429,211 429,212 431,217 431,218 433,224 435,228 436,230 426,232 428,240 429,245 429,245 430,249 430,251 430,255 430,260 430,260 429,263 428,264 428,265 428,265 428,273 428,274 422,276 418,277 415,278 412,279 408,282 403,285 385,297 407,296 419,296 428,297 455,305 461,305 467,304 474,302 475,303 476,305 478,308 482,314 484,317 486,322 488,324 489,325 489,326 490,329 491,330 492,334 493,336 494,340 494,341 494,342 495,343 497,352 497,352 497,353 497,353 497,354 498,357 498,357 498,358 500,365 475,375 467,378 464,379 462,380 460,380 458,381 454,382 449,382 442,384 441,384 437,387 434,389 433,390 429,392 425,394 418,397 414,398 408,394 380,392 354,391 354,391 340,390 341,387 341,385 341,382 340,381 335,376 332,372 329,370 325,369 322,369 317,368 311,368 307,368 305,368 305,366 300,364 287,359 273,356 272,356 271,356 270,354 267,353 262,349 260,348 257,347 255,345 255,344 254,341 251,342 241,345 237,340 233,337 225,332 223,331 222,329 217,322 216,320 215,320 214,319 210,317 209,316 207,315 207,313 206,311 205,308 204,305 204,303 203,300 203,299 201,296 199,293 199,293 201,292 202,291 202,290 202,288 202,287 202,287 201,286 200,284 199,283 199,282 199,281 199,279 199,278 198,276 197,275 195,272 195,271 194,270 192,268 189,264 188,264 189,262 183,256 181,255 176,252 169,249 167,248 166,247 164,247 163,247 162,248 160,248 159,249 157,249 156,248 152,248 151,247 144,243 142,243 140,242 138,242 135,241 132,241 129,240 125,239 122,239 121,239 118,238 116,237 110,235 109,235 107,235 104,234 95,233 94,233 92,233 87,233 82,233 82,233 79,232 76,231 75,231 74,231 68,231 66,232 64,232 62,231 60,230 58,230 51,229 49,229 48,229 39,228 22,227 19,227 16,227 10,226 9,225 7,226 3,225 4,222 4,221 4,220 2,219 1,219 1,218 0,217 0,216 0,215 0,215 1,214 2,214 5,212 6,212 6,211 6,210 6,208 6,207 6,207 7,207 7,207 10,209 11,210 12,211 14,210 16,209 18,208 20,206 21,205 23,204 24,204 28,203 30,202 32,200 33,199 34,197 35,195 36,193 37,192 43,182 44,182 45,181 45,181 47,182 49,183 50,183 51,183 52,182 53,182 54,181 55,179 58,175 64,170 67,166 69,165 71,164 73,164 75,164 76,165 79,166 86,168 89,168 90,168 92,169 93,169 95,169 98,170 103,171 105,171 109,173 113,173 115,174 119,175 123,175 124,175 126,176 131,178 133,179 134,180 135,180 136,181 137,181 138,181 138,180 139,179 140,178 141,178 142,178 146,178 147,178 148,179 150,180 152,181 154,182 156,182 157,182 159,182 159,182 160,181 161,180 161,179 161,175 160,174 162,171 164,168 166,164 167,163 169,162 169,161 170,161 170,160 168,153 166,151 166,150 166,150 167,148 168,147 175,139 175,139 175,138 176,134 180,129 183,125 185,122 188,118 190,116 192,113 196,110 200,107 204,104 207,103 212,100 215,99 219,97 221,96 222,96 223,96 223,97 224,97 224,99 225,100 226,100 226,100 227,100 228,99 232,97 234,96 236,96 237,95 239,95 241,95 244,95 244,94 244,93 242,88 241,87 241,83 242,80 244,74 244,56 247,46 251,32" id="3607" class="canton" fill="steelblue" stroke-width="1" stroke="white" geotype="canton" geoname="Châteauroux-3" code_insee="3607" code_departement="36" nom_departement="Indre" code_region="24" nom_region="Centre-Val de Loire"/></svg>