<?xml version="1.0" encoding="utf-8"?>
<svg version="1.1" id="svgmap" xmlns="http://www.w3.org/2000/svg" xmlns:xlink="http://www.w3.org/1999/xlink" x="0px" y="0px" width="100%" height="100%" viewBox="0 0 500 311">
<polygon points="11,32 11,32 11,32 11,31 12,29 12,27 11,27 10,23 10,21 12,20 16,20 16,20 15,19 15,17 15,16 15,15 15,15 15,14 28,17 30,17 31,17 35,18 35,18 37,19 37,19 37,19 38,20 40,20 45,21 47,21 48,21 49,21 52,21 54,21 55,21 55,22 56,22 58,22 59,22 62,22 63,21 64,21 66,21 67,21 69,22 72,23 73,23 73,22 73,22 73,22 74,22 75,22 78,23 79,24 81,24 82,24 83,25 83,25 84,26 85,26 85,27 86,27 87,28 87,28 90,27 90,26 91,25 91,24 92,23 92,22 92,22 93,22 94,21 95,21 94,20 96,13 96,12 97,12 97,12 98,13 98,12 98,12 99,12 99,13 99,13 99,13 100,13 100,13 100,13 100,13 100,13 101,14 100,14 101,14 101,14 101,14 101,14 101,14 101,14 102,14 102,14 102,14 102,14 102,14 102,14 103,15 103,15 103,16 103,16 103,16 104,16 104,16 104,16 105,15 106,14 106,13 107,13 108,13 109,14 109,14 116,16 116,16 117,17 119,16 121,17 126,16 132,14 138,13 140,12 140,11 143,10 145,9 149,7 153,6 156,5 158,4 160,4 160,4 162,3 166,3 167,3 168,6 176,7 179,7 188,6 186,14 185,22 185,24 185,25 186,25 186,27 187,28 190,32 190,32 190,32 192,32 193,32 192,33 193,33 193,33 197,32 199,33 200,33 202,33 203,34 203,34 204,34 204,34 204,34 207,34 208,34 210,33 211,33 212,33 213,35 213,35 214,36 214,36 214,35 214,35 215,35 216,35 217,35 218,35 219,35 219,35 219,35 220,35 220,36 220,36 221,36 221,36 221,36 223,37 223,38 224,38 224,38 225,38 225,39 226,39 227,39 227,40 227,40 227,40 227,40 227,41 228,41 228,41 229,41 229,41 229,42 229,42 230,42 230,42 230,42 231,43 231,43 232,43 232,43 232,43 232,44 232,44 233,44 233,44 233,44 233,44 233,44 234,45 234,45 235,45 235,45 236,46 236,46 237,46 238,46 238,46 238,46 239,46 240,46 241,46 241,47 241,47 241,47 249,58 249,58 248,59 248,59 248,59 247,60 247,61 247,61 247,61 248,61 247,62 248,64 249,65 249,66 250,66 250,66 251,66 251,66 251,66 251,66 251,66 253,65 253,65 254,65 254,65 255,64 255,64 256,64 256,64 256,63 256,63 257,63 257,63 257,63 258,63 258,63 258,62 258,62 258,62 258,62 258,62 259,61 259,61 259,61 260,60 260,60 260,60 260,60 260,60 260,59 260,59 260,59 260,59 260,59 260,58 260,58 260,58 261,58 261,59 261,59 262,60 262,60 262,60 263,60 264,59 265,59 265,59 267,58 268,58 270,58 271,57 272,57 274,57 278,56 279,56 280,56 283,56 283,56 285,55 287,55 288,56 289,56 289,56 292,54 293,54 297,53 309,49 310,49 311,49 312,48 313,47 313,47 315,46 318,44 322,43 322,43 322,43 323,43 325,43 325,43 326,43 327,43 327,43 328,42 328,42 329,42 329,42 330,41 331,41 331,41 331,40 331,40 331,39 330,39 330,38 330,37 329,36 329,36 328,35 328,34 327,34 327,32 326,31 326,31 326,30 326,30 328,28 328,28 328,28 327,25 326,24 325,23 325,23 325,23 322,21 322,21 321,20 320,20 320,20 319,19 320,19 320,19 320,18 320,18 320,16 320,16 320,15 320,14 320,13 320,12 320,11 320,11 320,10 320,10 319,10 319,7 319,7 319,7 319,7 319,6 319,6 324,7 325,7 326,7 326,7 328,6 329,6 331,5 332,4 333,3 335,1 335,1 336,1 336,0 337,0 338,1 338,1 339,2 339,2 340,2 340,2 341,2 341,3 341,3 343,3 349,3 350,3 351,4 352,4 352,5 353,5 355,5 356,6 357,7 357,7 357,8 357,9 357,9 357,10 356,11 355,12 355,12 355,12 355,13 356,13 356,14 356,14 357,15 358,15 358,15 358,15 359,14 360,14 361,14 362,13 363,14 364,14 365,14 367,14 367,13 368,14 369,14 369,15 369,15 370,16 370,16 370,17 370,17 370,18 371,18 371,18 372,18 373,18 374,18 375,18 375,18 375,18 376,18 376,18 378,17 379,16 381,16 382,16 382,16 383,16 383,18 382,19 382,20 381,23 379,28 379,28 378,29 377,30 378,30 378,30 379,30 380,30 380,30 382,31 383,31 385,33 386,34 387,34 387,34 390,36 390,36 388,38 387,39 386,40 386,40 385,41 385,41 386,41 386,41 384,43 384,44 384,44 381,45 381,45 380,46 380,46 379,46 378,47 377,48 377,48 377,48 377,48 377,48 377,48 377,48 377,48 375,49 375,49 376,50 378,51 379,52 380,53 381,54 382,55 382,55 383,56 384,56 384,57 385,57 386,60 386,60 387,61 388,62 388,62 389,64 389,64 390,63 390,63 390,63 393,65 397,67 399,69 399,69 402,74 403,75 403,75 403,77 403,77 404,79 405,80 404,80 404,80 404,81 405,83 406,83 407,84 407,84 407,84 407,85 408,86 409,87 409,87 410,87 410,88 411,89 411,89 411,89 410,91 410,92 410,92 410,92 410,93 410,93 410,93 410,94 411,95 411,96 412,97 412,97 412,97 412,98 413,99 413,99 413,99 414,101 414,101 417,105 417,105 418,106 418,106 418,107 419,107 419,108 419,107 419,107 421,109 423,111 423,111 423,111 423,111 426,113 426,113 426,113 426,113 426,114 426,114 427,113 428,115 428,115 427,116 424,117 424,117 424,118 425,119 425,119 423,120 422,121 418,123 414,124 412,125 412,125 411,125 411,125 412,125 412,126 414,128 414,128 422,128 430,125 432,125 434,125 442,124 461,121 463,124 463,125 463,125 463,125 464,126 464,127 464,128 465,128 464,128 464,128 465,129 466,130 466,130 467,130 468,130 468,131 469,131 469,131 469,132 469,132 470,132 470,132 470,133 470,133 470,133 469,133 469,133 469,133 469,134 469,134 470,134 470,135 471,135 471,135 471,135 471,135 472,135 474,136 475,136 475,136 476,136 476,137 476,137 476,137 476,138 477,138 476,138 476,138 477,139 476,139 477,139 477,139 477,140 478,141 478,141 478,142 479,142 479,143 482,145 483,146 483,146 483,146 484,147 486,148 487,149 487,149 487,149 488,149 488,149 489,149 489,150 490,150 490,150 490,150 490,150 490,150 490,150 490,151 490,151 490,151 490,151 490,151 490,151 500,154 500,154 499,155 498,156 498,156 499,157 496,160 496,160 496,160 496,160 496,160 492,163 492,163 491,164 491,164 490,165 489,166 489,166 487,167 486,168 486,168 486,168 486,168 483,170 483,170 482,170 481,171 480,172 479,173 478,175 478,175 478,175 478,176 477,177 477,177 477,178 477,178 477,178 477,179 476,180 475,182 475,182 475,182 474,183 474,184 473,186 472,186 471,187 471,187 470,188 470,188 468,190 468,190 467,190 467,190 467,190 466,191 463,192 463,192 460,190 459,190 456,189 454,188 449,186 448,185 448,185 447,186 447,187 446,187 446,188 446,188 445,188 444,188 444,188 443,188 443,188 442,188 441,188 441,188 438,189 438,189 434,189 434,189 433,189 432,189 432,189 432,189 427,190 426,190 423,190 416,189 416,189 414,189 411,189 411,189 411,189 412,191 412,191 413,192 414,193 415,195 416,195 418,196 419,197 422,199 422,199 423,200 424,200 425,200 425,201 426,201 433,203 433,205 434,211 434,212 434,212 433,212 433,212 433,212 433,212 433,212 433,212 434,212 441,210 442,210 442,210 443,210 444,215 444,215 445,215 446,218 446,217 447,218 447,218 448,218 455,227 455,227 459,226 458,228 458,228 458,228 458,230 458,230 458,230 457,231 457,231 457,232 460,234 461,236 461,236 460,237 460,237 459,236 461,239 462,241 463,244 465,245 465,246 464,246 464,246 464,247 464,248 464,249 464,249 464,249 464,249 464,249 464,250 464,250 464,250 464,252 466,251 466,251 468,252 468,253 468,253 470,253 471,254 473,255 473,255 474,255 475,255 476,255 477,255 478,257 478,257 479,257 479,257 479,257 480,258 481,258 481,258 481,259 480,260 479,262 478,262 477,263 477,263 476,263 476,263 476,264 475,264 475,265 475,265 474,265 474,265 474,265 476,265 475,265 475,266 474,266 474,267 473,267 473,267 476,269 477,269 476,271 475,271 475,271 475,271 475,272 474,272 474,272 475,272 478,273 479,274 479,274 478,277 478,277 476,277 475,277 472,278 472,278 470,279 469,279 468,279 465,280 464,281 463,281 463,282 463,282 461,283 460,284 457,286 454,288 454,288 454,288 455,288 455,289 455,289 456,289 457,289 457,289 457,289 453,291 453,291 452,291 452,291 452,294 445,293 441,294 424,298 425,298 425,298 425,299 425,300 425,300 425,302 425,302 425,302 425,302 423,302 421,303 421,303 421,304 419,305 419,305 418,308 418,308 418,308 417,308 414,307 413,307 413,306 411,306 411,306 410,306 410,307 409,307 409,307 408,307 408,308 408,309 407,309 407,310 407,311 407,311 402,311 398,310 393,301 362,294 362,294 357,306 356,306 355,305 353,305 353,305 352,305 352,304 352,304 350,304 348,302 348,302 347,301 344,302 343,303 341,303 340,304 335,304 334,305 333,305 332,305 331,305 329,306 327,308 326,307 325,307 324,307 323,307 321,309 319,308 318,307 317,307 317,307 315,305 312,304 311,303 310,303 309,304 309,304 309,304 308,304 308,304 307,305 306,306 305,306 305,306 305,306 305,306 304,307 303,307 303,307 302,309 302,309 301,310 301,310 299,310 298,310 296,308 295,308 295,307 293,307 292,306 291,305 291,305 290,304 290,304 290,304 287,302 283,308 282,308 274,304 273,305 272,305 261,297 241,297 237,307 226,307 225,307 222,298 218,298 218,297 218,296 217,296 217,296 217,295 216,295 215,295 214,296 214,296 214,296 213,296 213,296 211,296 211,297 211,297 211,298 200,297 186,293 186,290 174,290 168,299 153,299 168,291 143,291 143,291 147,282 145,283 136,283 131,283 120,283 101,283 98,283 96,283 95,284 94,284 92,284 91,284 90,284 89,284 89,284 86,284 71,284 67,284 66,284 66,285 65,285 65,285 65,285 63,276 63,276 63,275 63,274 63,273 63,273 63,272 63,271 62,270 62,270 62,270 61,269 60,268 59,268 59,267 59,266 58,266 58,265 58,265 58,265 57,261 56,257 55,253 55,254 55,253 55,253 55,251 55,251 55,249 55,249 55,247 52,247 50,247 48,247 40,247 36,248 34,248 30,248 25,248 21,248 14,248 12,243 11,241 11,240 10,238 10,238 10,238 9,236 9,235 8,234 10,234 9,230 9,229 7,229 6,227 6,227 6,226 5,226 4,224 1,217 1,216 0,214 5,213 5,212 5,211 3,208 2,206 4,205 3,204 2,203 3,203 6,202 7,201 7,201 11,199 11,198 12,197 13,197 12,195 12,195 12,194 11,193 13,193 14,193 15,193 17,192 20,192 22,191 23,191 27,189 28,189 29,188 30,188 33,186 33,185 34,184 35,183 36,182 38,181 39,180 42,180 43,179 44,179 46,178 47,178 48,178 49,177 54,175 57,174 58,173 61,173 64,172 66,171 67,171 69,171 72,170 74,170 75,169 76,169 77,168 78,168 79,168 81,168 83,168 83,168 84,168 86,168 88,168 90,168 93,168 94,168 95,168 96,168 98,167 99,167 99,167 100,166 101,165 101,165 102,165 104,164 103,164 103,163 103,163 103,158 101,158 100,157 97,156 98,156 98,154 98,153 98,152 98,152 98,151 98,150 98,148 97,148 97,147 99,147 101,147 101,145 104,145 103,145 103,144 103,143 104,142 104,141 105,138 106,137 106,136 107,135 109,134 111,133 112,132 112,132 114,132 115,131 115,131 115,131 119,130 115,124 115,124 114,123 108,119 105,117 104,117 102,116 102,115 102,114 101,112 101,111 100,111 100,111 99,111 99,111 100,110 96,108 100,106 102,105 102,105 103,105 102,103 102,101 101,99 99,99 99,99 100,98 101,97 103,95 103,95 104,94 105,92 105,92 105,92 103,90 103,89 102,89 101,88 100,88 99,88 99,88 99,87 99,86 98,85 98,85 98,84 97,84 95,84 94,84 93,85 93,85 92,85 91,84 89,85 88,85 88,85 87,84 87,84 86,84 85,83 84,83 83,83 82,82 79,81 79,81 77,82 76,82 74,82 74,82 72,83 71,83 70,83 68,82 68,82 67,81 66,81 66,81 65,81 63,81 64,79 62,78 63,78 63,78 65,78 69,77 68,76 70,74 68,73 68,73 68,73 66,74 66,74 66,74 66,75 65,74 65,74 64,74 64,74 64,73 63,73 63,73 64,72 64,72 64,72 65,71 65,71 65,71 66,70 66,70 67,70 67,70 68,70 68,69 68,69 69,70 70,70 70,70 70,70 71,70 71,70 71,70 71,69 71,69 72,68 72,68 71,68 71,68 71,68 72,67 71,67 68,66 68,66 67,66 61,63 62,63 62,62 61,62 61,62 61,62 61,61 62,60 62,60 62,59 62,59 62,59 61,57 60,57 59,56 58,56 55,56 54,55 53,55 51,54 51,54 50,53 50,53 49,52 46,53 44,53 43,53 43,53 41,53 40,53 40,53 39,53 38,54 38,53 38,53 37,53 35,55 34,55 33,55 30,55 30,55 30,53 31,52 30,49 30,47 20,49 17,49 16,49 15,49 8,43 8,43 11,42 17,41 18,40 19,40 22,40 22,39 21,38 21,37 20,36 20,36 20,36 20,35 21,35 19,35 19,35 18,35 16,34 16,34 15,33 15,33 14,32 14,32 13,32 13,32 12,32 12,33 11,32" id="3701" class="canton" fill="steelblue" stroke-width="1" stroke="white" geotype="canton" geoname="Amboise" code_insee="3701" code_departement="37" nom_departement="Indre-et-Loire" code_region="24" nom_region="Centre-Val de Loire"/></svg>