<?xml version="1.0" encoding="utf-8"?>
<svg version="1.1" id="svgmap" xmlns="http://www.w3.org/2000/svg" xmlns:xlink="http://www.w3.org/1999/xlink" x="0px" y="0px" width="100%" height="100%" viewBox="0 0 500 291">
<polygon points="27,187 28,187 30,185 31,184 34,182 37,180 39,179 39,178 40,178 43,176 44,175 44,175 45,175 45,175 45,174 45,174 45,172 45,172 46,169 47,167 51,157 52,156 54,150 56,146 56,146 65,147 65,147 66,147 68,146 70,146 71,146 74,145 76,145 78,144 78,144 83,144 84,144 86,144 88,144 91,143 92,143 93,143 96,142 98,142 99,142 101,143 101,143 104,142 108,142 110,142 113,142 114,142 116,142 117,142 121,141 126,142 127,142 145,145 145,145 145,147 145,148 146,148 147,150 153,153 153,153 154,152 155,152 155,152 155,153 155,153 157,153 157,153 157,154 158,155 159,155 160,155 160,155 161,156 164,158 166,159 166,159 167,160 167,160 168,161 169,162 170,163 171,163 171,163 175,161 178,161 181,162 181,162 185,163 188,164 190,164 191,165 194,165 195,165 197,165 197,165 198,159 197,157 197,156 195,154 194,151 194,151 194,147 194,146 196,145 196,145 199,143 203,141 205,140 205,140 205,140 207,139 208,139 208,139 209,140 209,140 210,139 209,139 209,139 209,138 209,138 208,138 208,137 208,137 208,137 207,136 207,135 207,135 207,134 206,134 206,134 206,134 206,134 206,133 205,133 205,133 205,133 205,133 204,133 204,133 204,132 204,132 204,132 203,132 203,132 203,132 203,131 203,131 205,130 205,130 205,129 205,129 204,128 204,128 205,128 205,127 205,127 206,126 209,125 209,125 210,122 210,122 211,123 211,123 212,123 212,123 212,123 212,123 212,123 213,123 213,123 213,124 213,124 214,124 214,123 216,123 216,123 217,123 217,123 217,122 217,122 218,122 218,122 218,122 219,122 220,121 220,121 220,121 221,121 221,121 221,121 222,121 222,121 222,121 222,121 223,121 224,121 224,121 225,121 225,121 226,121 227,121 227,121 228,121 228,121 228,121 228,121 228,121 229,120 229,120 230,120 229,120 230,119 230,119 230,119 231,119 232,119 232,119 232,119 232,119 232,119 233,119 233,119 233,119 234,118 234,118 234,118 235,118 235,118 235,118 236,118 236,117 236,117 236,118 237,118 237,118 237,118 237,118 237,118 237,118 237,117 238,117 238,117 238,117 238,117 239,117 239,117 240,116 242,116 243,116 243,116 244,117 244,117 246,117 247,117 247,118 248,118 248,118 249,118 249,118 250,118 251,118 251,118 251,118 252,118 253,119 253,119 253,119 253,119 254,119 254,119 255,119 255,119 256,119 257,119 258,119 259,120 260,120 261,121 261,121 262,121 263,121 263,121 264,121 266,122 266,122 267,122 269,123 269,123 270,123 270,123 270,123 271,123 271,123 272,123 273,123 273,123 273,122 273,122 274,122 274,122 275,122 275,121 279,120 279,120 279,120 280,119 280,119 282,119 282,119 283,119 283,119 286,116 287,115 292,110 290,109 290,108 289,107 292,106 292,105 290,105 290,104 289,104 289,103 289,103 289,103 289,103 288,102 288,102 288,103 286,104 285,104 284,103 284,102 284,102 284,102 283,102 283,102 283,101 283,101 282,100 282,100 282,100 282,100 282,99 282,99 283,99 283,98 283,98 283,96 284,95 284,93 283,93 283,92 282,92 282,92 281,92 281,92 280,92 280,92 280,93 279,93 278,92 277,91 277,91 276,90 275,90 275,89 273,89 273,89 270,89 270,89 269,89 269,89 266,87 265,86 264,86 262,86 262,86 261,86 261,86 260,86 260,86 259,86 259,86 259,85 258,85 258,85 258,85 257,85 254,85 253,85 252,85 252,85 250,85 250,85 249,85 248,84 248,84 247,85 247,84 247,84 246,84 246,84 245,85 244,85 244,85 243,85 242,85 242,85 241,86 240,86 239,86 238,87 238,87 237,86 237,86 237,86 236,86 235,86 235,86 235,87 234,87 234,87 233,87 233,86 233,86 232,86 231,86 230,86 229,86 229,86 228,87 227,87 227,87 226,87 226,87 225,87 224,87 224,87 223,87 223,87 223,87 222,87 221,87 221,87 221,87 220,87 220,87 220,87 219,87 218,87 218,87 217,86 217,87 216,86 216,86 216,86 215,86 215,86 214,85 214,85 214,85 213,85 213,84 212,84 212,84 212,84 212,83 211,83 210,83 210,83 209,82 209,82 209,81 209,81 208,80 208,80 209,80 209,80 209,80 209,80 210,79 210,79 211,79 211,79 212,78 212,78 212,78 213,77 214,76 215,76 216,76 217,75 217,75 217,75 218,75 219,74 219,74 219,74 220,74 221,74 221,73 222,73 222,73 222,73 223,73 224,72 225,72 225,72 226,72 228,72 229,72 230,72 230,71 231,72 231,72 232,71 233,72 233,72 234,72 234,72 235,72 235,72 236,72 238,73 239,73 240,73 241,73 241,73 242,73 244,73 245,73 246,73 247,73 247,73 248,73 249,73 251,73 252,73 253,73 253,73 254,73 255,74 255,74 256,74 257,74 258,74 259,74 260,74 261,74 261,75 261,75 262,75 262,75 262,75 263,75 264,75 264,75 265,75 265,75 266,75 267,75 268,75 269,75 269,75 269,75 270,75 270,74 271,74 271,74 272,74 272,74 273,73 273,73 274,72 276,72 276,72 276,72 276,71 276,71 276,70 276,69 276,69 276,69 277,67 277,67 278,66 278,66 278,65 279,64 279,64 280,63 281,62 281,61 281,60 281,60 281,59 282,56 282,56 283,55 284,54 285,53 285,52 286,52 287,51 288,51 288,50 289,51 291,49 292,48 293,48 293,48 295,48 300,48 301,48 302,48 302,48 305,46 305,46 305,46 308,44 310,43 310,43 310,43 311,40 311,39 312,37 312,36 312,36 312,34 312,33 312,33 312,33 313,33 313,33 315,35 316,35 316,36 316,36 318,35 318,35 318,34 321,33 321,33 323,34 324,33 325,34 326,35 328,35 328,35 329,35 330,35 332,35 332,35 332,34 332,33 332,33 332,33 332,33 333,32 333,32 334,32 334,32 335,32 335,32 337,31 338,29 338,29 338,29 341,29 341,29 341,27 340,26 340,25 339,24 345,25 345,24 346,23 347,22 348,20 351,15 353,14 354,14 356,15 357,16 359,17 360,17 361,17 361,17 367,18 368,18 369,18 369,18 370,18 371,18 371,17 372,17 372,17 372,17 373,16 373,14 373,14 373,13 374,13 375,12 375,11 375,10 375,10 376,9 377,7 377,7 378,5 379,5 380,4 380,3 380,3 381,2 381,1 383,0 386,1 384,4 384,6 383,7 383,7 383,7 382,10 381,11 381,12 381,12 381,12 381,12 381,13 381,14 381,14 381,15 382,15 383,16 384,17 384,17 386,18 386,19 387,19 388,19 390,20 390,20 391,21 391,21 392,21 392,22 393,25 393,26 392,28 392,28 392,29 392,30 392,31 392,32 392,33 393,33 393,34 393,35 393,36 393,37 394,38 394,38 394,38 394,38 394,38 394,38 397,45 398,46 398,46 398,46 399,49 399,49 399,58 399,59 399,65 399,65 397,65 395,66 394,68 393,69 393,69 391,70 391,71 390,71 387,73 388,74 386,75 386,75 386,75 384,77 384,77 384,77 385,77 385,78 385,78 386,78 388,79 388,79 388,79 387,81 387,81 389,81 391,82 391,82 393,82 393,83 395,82 397,82 399,82 399,82 399,82 400,81 400,81 400,81 401,81 405,83 407,83 407,84 411,86 412,87 412,87 413,87 414,87 415,87 415,87 416,87 416,87 416,87 418,88 419,89 419,89 421,91 421,92 422,92 417,95 418,97 418,98 418,97 419,97 419,96 419,96 420,96 420,96 420,96 420,96 420,96 421,96 421,96 421,96 421,96 421,96 421,95 422,95 422,95 423,95 424,95 424,96 424,97 424,98 424,99 423,100 423,100 423,100 428,101 428,101 428,101 428,100 430,99 431,98 432,98 432,97 433,97 433,97 433,97 433,96 433,96 434,96 435,96 436,96 436,96 437,96 439,97 442,98 442,98 443,99 444,99 444,99 444,100 445,100 447,102 447,102 447,102 449,103 451,104 453,105 456,106 456,106 456,107 456,108 457,108 457,108 458,109 458,109 459,109 459,108 460,108 462,106 462,106 463,105 464,105 464,105 464,104 465,104 466,104 468,104 468,104 469,103 472,100 472,100 476,98 478,99 480,100 480,100 480,100 481,101 481,101 484,100 484,100 486,100 486,100 487,100 487,100 487,100 489,100 489,100 491,100 490,102 490,103 490,104 489,107 488,108 491,109 490,111 490,111 491,111 490,114 490,114 494,117 494,117 495,118 496,118 499,119 498,120 497,120 497,120 497,121 497,122 496,123 495,126 494,128 494,128 494,129 495,129 496,130 497,130 497,130 496,133 496,133 496,134 496,134 497,135 498,136 500,137 500,138 500,138 499,139 498,140 498,140 498,140 497,142 496,143 495,144 495,144 487,146 484,147 484,147 484,148 485,148 486,148 487,149 487,149 486,149 487,150 486,151 485,151 485,151 485,151 484,151 484,151 484,151 484,151 483,151 482,151 482,152 481,152 481,152 480,152 478,153 477,153 477,153 476,153 475,153 475,153 475,153 474,153 474,153 473,152 473,153 473,153 472,152 472,152 472,152 472,152 472,152 472,151 471,151 471,152 470,152 470,152 468,153 468,153 468,153 467,153 467,153 467,153 467,152 466,153 465,152 465,153 464,152 464,152 463,152 463,152 463,152 463,151 462,151 462,151 461,151 461,151 460,151 459,151 459,151 458,151 458,151 457,151 457,151 457,150 456,150 455,150 455,150 457,152 459,154 459,154 461,156 466,160 464,163 464,164 463,165 463,165 462,166 462,168 462,169 462,170 464,173 461,173 461,174 460,174 458,175 458,176 457,176 454,176 454,176 452,176 451,176 449,177 449,177 444,177 442,178 442,178 441,178 439,178 439,178 437,177 437,180 437,180 437,181 437,182 437,183 437,184 437,184 436,185 436,186 436,187 436,188 435,188 434,188 434,188 433,188 428,188 428,188 425,189 424,189 421,189 421,191 418,191 414,191 413,191 409,190 408,190 406,189 405,189 404,189 401,188 398,188 399,186 398,186 397,186 396,186 390,188 389,189 388,189 386,189 386,189 385,189 383,188 380,188 380,188 380,188 380,191 380,191 379,191 376,191 375,192 375,192 374,192 373,192 371,192 369,193 368,193 364,193 363,193 361,193 361,194 360,195 360,195 357,196 357,196 357,197 357,197 356,197 355,198 355,198 355,199 355,200 354,201 355,201 355,201 355,202 356,203 356,203 357,204 358,205 359,206 359,206 360,207 358,207 357,207 356,207 354,208 353,209 352,209 350,210 347,211 345,212 343,213 342,213 341,213 337,214 336,214 336,214 335,214 334,214 334,214 333,214 332,214 332,214 333,212 332,212 333,211 334,208 335,208 334,208 334,208 330,207 329,206 329,206 328,206 327,205 327,205 326,205 326,205 327,204 327,203 327,203 326,203 326,203 325,202 325,202 325,202 325,201 326,201 327,201 328,201 328,199 329,198 329,198 329,197 329,196 329,196 329,195 329,192 329,191 328,191 328,191 328,190 327,189 327,189 326,189 326,189 325,189 325,189 324,189 323,189 322,191 321,191 321,191 319,190 317,190 315,190 315,190 314,188 313,187 311,186 311,185 310,185 309,185 308,184 306,184 306,184 307,182 307,180 308,179 308,179 308,178 307,176 305,176 304,176 304,176 303,175 301,175 301,175 300,176 300,176 299,177 294,178 294,177 293,177 292,178 291,178 289,178 289,178 289,179 291,180 291,181 291,181 290,185 290,186 290,186 290,187 290,188 289,190 288,192 286,194 286,195 286,195 286,195 284,197 283,197 284,199 284,200 284,202 283,203 283,203 282,205 282,205 281,205 279,206 279,206 278,205 278,205 277,205 276,205 276,205 275,205 275,204 275,204 274,204 273,204 273,204 269,203 269,203 269,203 270,202 271,201 270,200 270,200 269,199 268,199 268,198 266,199 262,200 262,200 261,201 257,203 256,203 255,203 252,204 250,204 249,205 248,205 245,206 244,205 244,205 243,206 242,206 240,205 239,205 238,205 237,205 236,205 235,205 234,204 234,204 233,204 233,204 230,203 230,203 229,204 229,204 229,203 228,202 228,203 227,203 227,203 225,205 224,206 224,206 223,206 223,206 221,208 221,208 220,208 219,208 218,211 218,211 218,212 217,213 217,214 216,214 216,214 214,214 214,213 211,213 210,213 210,214 210,214 209,214 207,215 207,215 206,215 205,215 204,216 203,216 203,216 202,216 201,217 201,218 201,218 201,218 200,218 200,218 200,218 200,218 199,218 199,218 198,218 198,219 197,220 198,219 199,219 200,221 205,227 205,227 203,229 203,229 200,227 200,227 194,233 194,233 194,232 193,232 192,231 191,230 189,229 188,227 188,227 184,233 183,232 180,237 180,237 180,236 180,236 179,236 179,236 178,236 177,236 176,236 176,235 176,235 175,235 175,236 174,236 174,235 173,235 172,235 172,235 171,235 171,235 171,235 170,235 170,235 169,235 168,235 168,235 168,234 167,234 166,234 165,234 165,234 165,234 164,234 163,234 163,235 162,235 162,235 161,235 160,235 159,235 159,235 159,235 158,235 158,235 156,235 156,235 155,235 155,236 155,236 155,236 154,236 154,236 154,236 154,236 153,237 153,237 152,237 152,237 151,237 152,237 152,238 151,238 150,238 149,239 150,239 153,241 153,242 153,242 152,242 152,243 152,243 151,242 151,242 151,243 150,243 148,245 148,245 148,246 147,247 146,247 146,247 143,246 143,246 140,250 139,250 139,250 138,249 138,249 138,249 138,249 137,248 136,248 136,248 136,248 137,249 136,249 136,250 135,250 134,251 134,251 134,252 133,252 132,252 132,253 132,253 131,254 131,254 131,255 131,255 130,255 130,255 130,255 130,254 129,254 129,254 129,253 129,253 126,256 125,256 125,256 125,256 124,256 124,256 124,256 123,258 123,258 123,259 122,259 123,260 122,260 122,260 121,260 120,260 120,260 120,260 120,260 119,260 120,259 119,259 119,259 119,259 119,260 118,260 118,260 119,261 119,261 119,261 118,261 118,261 117,261 117,261 116,261 116,261 115,261 114,261 112,263 112,263 111,264 111,264 111,265 111,265 111,265 111,266 111,266 111,266 111,266 110,266 110,266 110,266 109,266 109,266 109,266 108,266 108,267 107,268 107,268 107,269 107,270 105,270 105,271 105,271 105,271 104,271 104,272 104,272 104,272 104,272 104,272 104,272 103,272 103,272 103,273 102,273 102,273 102,273 101,273 101,273 102,273 102,274 102,274 102,274 101,274 101,274 100,274 99,274 99,274 99,274 97,274 97,274 97,275 97,275 97,275 97,275 97,275 96,276 96,276 97,276 97,276 97,276 97,277 97,277 97,277 98,278 98,278 98,278 98,279 97,279 97,278 97,278 97,279 96,279 96,279 96,280 96,280 96,280 97,280 97,280 97,281 98,281 98,281 98,281 98,282 97,281 97,281 97,282 96,282 96,283 95,283 95,284 95,284 94,284 94,284 94,284 94,285 94,285 94,285 93,285 93,285 92,286 92,286 92,287 91,287 90,287 90,287 90,287 90,287 89,287 89,287 89,287 89,287 89,287 89,287 89,288 88,288 88,288 88,288 88,288 87,289 87,289 86,289 86,288 86,288 86,288 85,288 85,289 84,289 83,289 83,290 83,290 81,291 79,290 70,286 69,286 64,282 63,282 63,282 58,279 56,278 42,267 41,267 36,263 35,262 26,258 26,257 26,257 19,254 17,251 17,251 17,250 16,250 16,250 13,249 11,248 9,248 9,248 7,248 7,248 6,248 6,248 5,247 4,246 2,245 1,245 1,244 0,243 1,243 1,243 2,242 3,242 3,242 4,242 5,241 5,241 7,241 8,241 8,241 9,241 9,241 10,241 11,241 11,240 12,240 13,240 13,239 14,239 14,238 14,238 15,238 16,237 16,237 16,237 17,237 17,237 18,237 18,236 18,236 18,236 18,236 19,235 20,235 20,235 20,234 21,234 21,234 21,234 23,233 24,233 24,232 26,232 27,231 29,231 30,231 30,230 30,230 31,230 32,230 32,230 33,229 35,229 36,229 36,229 37,228 37,228 38,228 38,227 39,227 39,227 39,227 40,227 40,226 41,227 41,227 41,227 41,226 42,226 42,226 40,224 39,224 39,224 36,222 35,222 36,221 38,219 39,218 41,216 41,216 41,216 41,215 29,210 28,210 28,210 27,210 27,210 24,209 22,208 20,208 20,208 22,205 22,205 20,204 20,204 16,203 16,203 16,203 16,203 16,203 17,200 24,190 27,187" id="3907" class="canton" fill="steelblue" stroke-width="1" stroke="white" geotype="canton" geoname="Lons-le-Saunier-1" code_insee="3907" code_departement="39" nom_departement="Jura" code_region="27" nom_region="Bourgogne-Franche-Comté"/></svg>