<?xml version="1.0" encoding="utf-8"?>
<svg version="1.1" id="svgmap" xmlns="http://www.w3.org/2000/svg" xmlns:xlink="http://www.w3.org/1999/xlink" x="0px" y="0px" width="100%" height="100%" viewBox="0 0 500 346">
<polygon points="8,101 11,102 13,102 13,103 14,103 16,104 17,105 17,106 17,106 17,107 17,107 19,107 19,107 19,107 19,107 20,107 21,107 22,107 21,106 19,104 20,104 20,104 25,104 27,104 30,104 33,104 33,104 34,103 33,102 32,101 33,100 34,100 34,99 35,99 35,99 35,99 36,99 39,99 40,99 41,99 43,98 43,98 44,97 45,96 45,96 45,95 45,95 45,95 44,94 44,93 43,93 41,92 40,92 39,91 39,91 38,91 38,90 37,90 37,90 37,89 37,89 37,89 37,88 37,88 37,88 37,88 37,87 37,87 38,86 38,86 39,86 39,86 40,86 40,86 41,86 43,86 45,87 46,87 47,87 48,87 49,87 49,87 50,86 50,86 51,86 51,86 51,86 52,85 52,85 52,84 52,84 52,83 52,83 52,82 50,80 49,77 49,75 49,73 50,72 51,71 51,70 50,69 49,68 47,66 44,64 42,63 41,62 40,61 40,60 40,59 41,59 42,57 42,57 45,55 46,55 46,55 47,54 48,53 48,53 49,52 49,52 49,51 49,51 49,50 49,50 49,50 49,50 49,50 50,50 50,50 50,50 50,50 50,50 51,50 51,50 51,49 51,49 51,50 51,50 51,50 52,50 52,50 52,50 53,50 53,50 53,50 53,51 54,51 54,51 54,51 54,51 54,51 55,51 56,51 56,51 56,52 56,52 57,52 57,51 57,51 57,51 57,51 57,51 58,51 58,51 58,50 58,50 59,50 59,50 60,49 60,49 61,49 62,49 62,50 62,50 63,50 63,50 63,50 63,50 63,50 64,50 64,50 64,50 65,50 65,50 65,49 66,49 66,49 66,49 64,48 63,48 64,47 65,46 65,46 66,46 66,45 67,45 67,44 66,45 66,45 65,45 65,45 65,45 65,44 65,44 64,44 64,44 64,43 63,43 63,43 63,43 63,43 63,43 63,43 62,42 61,42 58,42 57,42 57,40 57,40 58,38 59,36 61,32 62,31 64,30 66,29 68,28 69,28 71,28 75,29 76,29 78,30 79,30 80,31 80,31 80,31 80,31 81,32 81,32 82,33 82,33 83,34 84,34 85,34 86,34 87,34 87,34 88,35 89,35 89,35 89,35 89,35 90,36 90,36 90,36 90,37 90,38 90,38 90,39 90,40 90,40 91,41 91,41 92,41 92,41 93,41 94,41 95,41 95,41 96,41 96,41 97,41 97,41 98,41 98,41 98,40 99,40 99,40 99,40 99,39 99,39 99,39 100,38 100,38 100,37 100,36 100,35 101,35 101,34 102,33 103,32 103,32 103,31 103,31 103,31 104,31 104,30 105,28 106,26 106,26 106,25 106,23 105,22 105,21 105,21 104,20 104,19 103,18 102,17 102,15 102,14 102,13 103,12 103,11 105,10 106,9 109,7 111,6 113,5 115,3 116,2 119,1 120,0 121,0 122,0 123,1 123,1 123,2 124,3 124,4 124,5 124,6 124,6 122,8 121,9 120,9 120,10 119,11 119,11 119,12 120,13 120,14 121,14 122,14 122,14 124,14 125,14 125,14 127,14 128,14 128,13 129,13 129,13 129,12 129,11 129,10 129,9 129,9 129,8 131,8 131,8 132,7 132,7 136,7 137,7 140,7 141,7 143,6 143,6 143,6 144,7 145,7 146,8 146,8 147,8 148,8 148,8 148,8 147,8 147,8 147,8 147,9 147,9 148,9 149,10 149,11 150,12 150,12 150,12 151,13 152,13 152,13 153,13 153,13 154,13 156,13 157,13 157,13 158,13 159,13 159,14 161,15 161,15 161,15 161,15 162,15 162,16 163,16 163,17 163,17 163,17 164,19 164,19 164,20 165,21 165,21 166,22 166,23 167,23 167,23 168,24 168,24 169,25 170,25 170,25 172,26 173,26 173,26 174,26 174,26 175,26 175,25 175,25 175,25 176,25 176,24 177,24 177,24 177,24 178,23 178,23 179,23 179,23 183,23 183,23 184,22 185,22 186,22 189,21 189,21 189,21 189,21 190,22 192,23 192,24 192,24 192,25 193,26 193,26 193,26 194,26 194,27 194,27 195,27 195,27 196,27 198,26 198,26 198,26 199,26 200,27 203,28 204,29 205,29 206,29 206,29 207,29 208,29 210,28 211,28 213,28 213,28 213,28 213,28 213,29 213,29 213,31 213,31 214,32 214,32 214,33 214,34 215,35 214,37 214,38 215,38 215,39 215,39 217,40 217,40 217,40 218,40 218,40 218,40 219,40 219,39 219,39 219,39 219,38 219,38 219,37 219,37 219,36 220,36 220,36 221,35 221,35 222,35 222,35 223,35 224,36 225,36 226,36 226,37 227,37 227,37 227,37 227,38 227,38 227,39 227,39 227,41 227,41 227,41 227,42 228,43 228,43 228,44 228,44 228,44 228,45 229,45 229,46 229,46 229,46 230,46 230,47 231,47 231,47 231,47 232,47 233,47 233,47 234,46 235,46 235,46 235,46 236,45 236,44 236,44 237,44 238,43 238,42 239,42 239,42 239,42 239,42 241,42 242,42 242,42 243,42 246,42 246,42 246,42 247,42 247,42 247,42 248,42 248,43 248,43 248,43 247,44 247,46 247,46 246,47 246,48 247,48 247,49 248,49 248,50 249,50 249,51 250,51 252,52 255,53 257,54 258,55 259,55 259,55 259,55 259,56 259,56 259,57 259,58 259,58 259,59 260,60 260,60 260,60 261,60 261,61 261,61 261,61 262,61 262,61 263,61 263,61 264,60 264,60 265,59 266,59 266,59 268,58 268,58 269,58 270,58 272,59 274,59 275,59 275,59 275,59 275,59 276,59 277,60 277,60 278,61 278,61 278,61 279,62 279,62 281,62 281,62 282,62 282,62 285,61 285,60 289,59 289,59 290,59 291,59 293,59 295,60 296,60 297,60 297,60 298,60 299,59 299,59 300,59 300,59 303,59 304,59 305,59 306,59 306,59 307,59 307,59 308,58 310,57 311,57 311,57 311,57 312,56 314,56 314,56 315,57 315,57 316,57 316,57 316,57 317,59 317,59 318,60 319,60 319,61 320,61 320,61 320,61 321,61 322,61 322,61 325,61 326,61 327,61 328,61 329,61 329,61 330,61 330,62 330,62 330,63 330,63 329,64 329,65 329,66 329,66 328,66 329,67 329,67 329,67 330,67 331,68 332,68 332,68 332,68 333,68 333,68 333,68 333,68 334,67 334,67 335,66 339,64 340,64 342,63 344,62 348,60 350,58 351,58 352,58 352,59 354,60 355,61 356,61 358,61 359,62 360,62 360,62 362,63 363,63 363,63 364,62 363,61 362,59 361,58 361,57 362,57 364,57 365,57 366,57 367,57 367,57 368,57 369,57 370,56 371,55 373,54 374,53 375,53 375,53 376,53 377,53 377,53 379,54 381,55 382,55 383,55 385,55 386,55 387,55 387,55 388,55 388,55 389,54 390,54 390,54 391,54 391,54 391,54 392,54 393,54 393,54 394,55 395,55 395,56 396,56 396,57 397,58 397,58 398,59 398,59 399,59 399,59 399,59 399,59 400,59 401,58 402,58 402,58 403,58 404,58 405,58 407,58 407,58 408,58 407,55 406,54 406,54 406,54 406,53 406,53 406,53 407,53 407,53 407,53 408,53 408,53 408,53 409,53 410,53 410,53 410,53 410,53 411,53 411,54 411,54 411,54 412,55 413,56 413,56 414,56 414,56 415,56 415,57 416,57 416,57 417,57 417,57 419,57 420,56 420,56 421,56 421,55 422,54 424,51 426,49 427,48 427,48 428,48 429,48 432,48 434,48 437,49 439,49 440,49 440,49 440,49 440,53 440,53 440,54 440,54 439,55 439,56 439,56 439,56 438,56 438,56 438,57 438,58 438,58 438,59 438,59 438,59 438,60 437,60 436,61 436,61 435,61 434,62 434,63 433,63 433,63 433,63 433,64 433,64 433,64 433,64 433,65 433,65 433,65 432,65 432,65 432,66 432,66 432,67 432,67 434,68 433,68 432,71 431,75 430,76 430,76 429,76 429,76 428,76 428,77 428,77 427,78 426,78 425,77 424,77 423,77 423,78 423,79 423,80 423,80 420,80 419,80 418,80 417,79 416,78 415,79 414,79 413,78 411,78 411,78 410,77 410,77 407,77 407,77 406,77 406,77 405,76 405,76 405,76 405,75 405,75 405,75 404,75 403,75 402,75 402,75 402,77 402,78 401,78 401,79 400,79 400,79 399,78 398,77 398,76 397,76 396,76 396,77 396,78 396,78 397,78 397,79 397,79 396,79 395,80 394,80 393,80 392,81 391,81 391,81 391,82 392,83 391,83 390,83 391,83 391,84 391,84 391,84 391,84 391,85 392,85 392,85 393,85 393,86 393,86 392,86 392,86 392,86 391,86 391,87 392,87 392,87 392,87 392,87 392,87 393,87 393,87 392,87 392,88 391,89 391,89 391,89 390,90 390,90 390,90 390,91 390,91 390,91 390,92 390,92 390,92 391,93 391,93 392,93 391,93 391,93 390,94 389,94 389,94 389,94 388,94 388,95 388,95 388,95 388,95 389,96 389,96 389,96 389,97 389,98 389,98 389,98 389,98 389,99 389,99 389,99 389,101 389,102 389,103 389,104 389,104 388,104 388,105 388,106 387,107 387,106 385,106 385,106 384,106 384,106 384,106 383,106 383,106 382,106 380,107 380,107 380,107 380,107 379,107 379,107 378,107 378,108 378,108 378,108 377,108 376,108 376,109 376,109 375,110 375,111 375,111 375,112 375,114 375,114 375,114 375,114 375,114 375,114 375,115 376,115 376,115 376,115 376,116 375,117 375,118 375,118 375,118 375,118 375,119 376,119 377,119 377,119 377,119 377,119 378,120 378,120 378,120 378,120 379,120 379,120 380,121 380,121 380,121 380,121 380,121 380,122 380,122 380,122 381,123 381,123 381,123 381,123 381,123 381,123 381,123 382,124 382,124 382,124 383,123 383,123 384,123 386,123 386,123 386,124 386,124 386,125 386,125 386,126 386,126 386,126 385,128 385,128 385,130 386,130 387,130 387,129 388,129 388,129 388,129 388,129 388,129 389,129 389,129 389,129 390,130 392,130 392,130 392,130 393,130 393,130 393,131 394,131 394,131 394,130 395,129 395,128 395,128 395,127 395,127 395,127 396,127 396,127 396,126 397,126 398,126 398,126 398,125 398,125 398,125 398,125 398,125 398,124 398,124 398,123 399,123 400,123 401,123 402,123 402,123 403,123 403,123 403,123 404,123 405,124 405,124 406,124 406,125 406,125 407,125 407,124 408,124 410,125 412,125 412,125 415,126 415,126 416,127 417,127 417,127 418,126 419,126 420,126 420,126 421,126 421,125 422,125 422,125 423,125 423,125 424,125 425,125 425,125 425,125 426,125 427,125 428,125 428,125 429,125 429,125 430,125 430,125 430,125 430,124 429,121 428,121 427,120 427,120 427,120 427,120 427,120 427,119 427,119 428,119 428,118 428,118 429,118 431,118 432,118 432,117 433,118 433,118 434,118 434,118 434,117 435,117 436,117 436,117 437,117 438,117 439,117 442,117 442,117 443,117 443,117 443,117 443,117 443,117 444,117 444,117 444,117 444,117 444,117 445,117 445,117 445,117 446,117 446,117 446,117 446,117 447,117 447,117 447,117 447,117 448,117 448,118 448,118 448,118 448,118 448,118 449,118 449,118 449,118 449,118 449,118 449,118 450,118 450,118 450,118 450,118 450,118 450,118 450,118 450,118 450,118 450,118 451,118 451,118 451,118 451,118 451,118 452,118 452,118 452,118 453,118 454,118 455,118 455,118 455,118 455,118 455,118 455,118 456,118 456,118 456,118 456,118 456,118 456,118 456,118 456,118 456,118 456,118 456,118 457,118 457,118 457,118 457,118 459,118 459,118 459,118 460,117 460,118 460,117 460,117 461,117 461,117 462,120 462,120 461,121 461,122 461,122 461,123 461,124 462,125 462,125 463,125 465,125 465,125 466,125 466,125 466,126 467,126 468,126 469,126 469,126 469,126 469,126 469,127 469,127 469,128 469,128 469,128 469,128 469,128 469,129 469,129 469,129 469,129 469,129 469,129 469,129 469,130 469,130 469,130 468,131 468,131 468,131 468,131 468,131 468,131 470,132 472,132 473,132 473,132 474,133 475,133 475,133 475,133 476,133 476,133 476,133 476,133 476,133 477,133 477,133 477,133 477,133 478,133 478,133 478,133 478,133 478,133 479,133 479,133 479,133 479,133 480,134 480,133 481,133 480,134 480,134 480,135 480,135 480,135 480,135 480,135 479,135 479,135 479,135 479,135 479,135 479,136 479,137 479,137 479,137 479,137 479,137 480,137 480,138 480,138 480,138 480,138 480,139 480,139 480,139 480,139 480,139 480,139 478,140 476,140 475,140 475,140 475,140 475,142 475,142 475,142 473,142 473,142 473,144 473,144 473,144 472,144 472,144 471,144 470,144 469,145 469,145 469,145 468,145 467,146 467,146 467,146 467,146 466,146 466,146 466,147 466,147 466,147 466,147 466,148 465,148 465,149 464,149 464,149 464,150 464,150 464,150 464,150 463,150 463,151 463,151 463,151 462,152 462,152 463,153 463,153 462,153 462,153 462,154 461,154 461,154 461,154 461,155 461,155 461,156 461,156 461,156 461,157 461,157 461,157 461,158 461,158 461,158 460,160 460,160 460,160 460,160 460,160 460,160 460,161 460,161 460,161 460,161 459,161 459,162 459,162 459,163 459,163 459,163 458,163 457,164 457,164 457,164 457,164 457,165 457,165 457,165 456,166 456,166 456,166 456,166 456,166 456,166 455,166 455,166 455,166 455,166 455,166 456,168 457,169 457,170 457,170 457,170 457,170 458,170 458,170 457,171 456,173 456,173 456,173 457,173 457,173 457,173 457,173 458,173 458,173 458,173 458,173 458,173 457,174 457,174 456,174 456,174 456,174 455,174 455,174 455,174 455,174 454,174 454,174 454,175 454,175 453,175 453,175 453,175 452,175 452,175 452,175 451,176 451,176 451,176 451,176 451,176 451,176 450,176 450,176 450,176 450,176 449,176 448,176 448,176 447,176 447,176 447,176 447,176 446,176 446,176 445,176 445,176 445,176 444,176 444,176 444,176 443,176 443,176 442,176 442,176 442,176 442,176 441,175 441,175 441,175 440,175 439,175 438,175 438,174 437,174 437,174 436,174 436,173 436,173 436,174 435,174 435,174 434,174 434,174 434,174 433,174 433,174 432,174 432,174 432,174 431,174 431,174 430,175 430,175 429,175 428,175 428,174 427,174 426,174 426,174 425,174 425,174 424,174 424,174 423,173 423,173 422,173 422,173 422,173 422,173 421,173 421,173 420,173 420,173 420,173 419,173 419,173 419,173 418,173 418,173 418,173 417,173 417,173 417,173 416,173 416,174 415,174 415,174 414,175 414,175 414,175 413,175 413,176 413,176 412,176 412,176 412,176 412,176 411,177 411,177 411,177 410,177 410,177 409,177 408,177 408,177 407,177 407,177 406,176 406,176 406,176 406,176 405,176 405,176 405,176 405,176 405,176 404,176 404,176 404,176 404,176 404,176 403,176 403,176 403,176 403,176 403,176 402,175 402,175 402,175 402,175 402,175 402,175 402,175 401,175 401,175 401,174 401,174 401,174 400,174 400,174 400,174 400,174 399,174 399,174 399,174 398,174 398,174 398,173 398,173 397,173 396,173 396,173 395,173 395,173 395,173 394,173 394,173 394,173 394,173 394,173 394,173 393,173 393,173 393,173 393,173 393,174 393,174 392,174 392,174 391,174 391,174 391,174 391,174 391,174 391,174 390,175 390,175 390,175 390,175 390,175 389,174 389,174 388,174 388,174 387,174 387,174 386,174 386,174 385,175 385,174 385,175 384,175 384,175 384,175 384,175 384,175 384,175 384,175 384,175 384,175 384,175 384,175 384,175 384,175 384,175 384,175 384,175 384,175 383,175 383,175 383,175 383,175 383,175 383,175 383,175 383,175 382,175 382,175 382,175 382,175 382,175 382,175 382,175 382,175 381,175 381,175 381,175 381,175 381,175 381,175 381,175 381,175 380,175 380,175 380,175 380,175 380,175 380,175 379,175 379,175 379,175 378,175 378,175 378,175 378,175 378,175 378,175 378,175 378,175 378,176 378,176 378,176 378,176 378,176 378,176 377,176 377,176 377,176 377,176 377,176 376,176 376,176 376,176 376,176 376,176 376,176 376,176 376,176 376,176 375,176 375,176 375,176 375,176 375,176 375,176 375,176 375,176 374,176 374,176 374,176 374,176 374,176 374,176 374,176 373,176 373,176 373,176 373,176 373,176 373,176 373,176 373,177 373,176 373,176 373,176 373,176 372,176 372,176 372,176 372,176 372,176 371,176 371,176 370,176 370,175 370,175 370,175 370,175 369,175 369,175 368,175 368,175 367,174 367,174 366,174 366,174 365,173 364,172 364,172 364,172 364,172 364,172 364,172 363,171 363,171 363,171 363,171 363,171 363,171 363,171 363,171 363,171 364,171 364,171 364,171 364,170 364,170 364,170 364,170 364,170 365,170 365,170 365,170 365,170 365,170 366,170 366,170 366,170 366,170 366,170 366,170 366,169 366,169 367,169 367,169 367,169 367,169 367,169 367,169 367,169 367,169 368,169 368,169 368,169 368,169 368,169 368,169 368,169 368,169 368,169 368,169 369,169 369,169 369,169 369,169 369,169 369,169 369,169 369,169 369,169 369,169 369,169 370,169 370,169 370,169 370,169 370,169 370,169 370,169 370,169 370,169 370,169 370,169 371,169 371,169 371,169 371,169 371,169 371,169 371,169 371,169 372,169 372,169 372,168 372,168 372,168 372,168 372,168 372,168 373,168 373,168 373,168 373,168 373,167 373,167 373,167 373,167 373,167 373,167 373,167 373,166 374,166 374,166 374,166 374,166 374,166 374,166 374,166 374,166 374,166 374,166 374,166 374,166 374,166 374,165 374,165 374,165 374,165 373,165 373,165 373,165 373,164 373,164 370,164 370,164 370,164 370,164 368,164 365,164 364,164 362,164 361,164 360,164 359,164 358,164 357,164 357,164 357,164 357,164 356,164 356,164 356,164 356,164 356,164 355,164 355,164 355,164 355,164 355,164 355,164 355,164 355,164 354,164 354,164 354,164 354,164 354,164 354,164 354,164 354,164 352,165 352,165 352,165 352,165 352,165 352,165 352,165 351,165 351,165 350,166 350,166 349,166 349,166 349,166 349,166 349,166 348,167 348,167 348,167 348,167 348,167 348,167 347,167 347,168 347,168 347,168 347,168 347,168 346,168 347,169 347,169 347,169 346,169 346,169 346,169 346,169 346,169 346,169 346,169 346,169 346,169 345,169 345,169 345,169 345,170 345,170 344,170 344,170 344,170 344,169 344,169 344,170 344,170 344,169 343,169 343,170 343,170 342,170 343,170 343,170 342,171 342,171 342,171 342,171 342,171 341,171 341,171 341,171 341,171 341,171 341,171 340,171 340,171 340,171 340,172 340,173 340,173 340,173 341,173 341,173 341,173 341,173 341,173 341,173 341,173 341,173 341,172 342,172 342,172 342,172 342,173 342,173 343,173 343,173 343,173 343,173 343,174 343,174 343,174 343,174 343,174 343,174 343,174 343,174 344,175 344,175 345,175 345,175 345,175 345,175 345,176 345,176 345,176 344,176 344,176 344,176 344,176 344,177 343,178 343,178 343,178 343,178 344,178 344,178 344,178 344,178 344,178 343,178 343,178 343,178 343,179 343,179 343,179 343,179 343,179 343,180 343,180 343,180 343,180 343,180 343,180 343,180 342,181 342,181 342,181 342,181 341,181 341,181 341,181 341,181 341,182 341,182 341,182 341,182 341,182 341,182 341,182 341,182 341,183 341,183 341,183 341,184 342,184 342,184 342,185 342,186 342,186 342,186 342,186 341,186 341,186 342,187 342,187 342,187 341,187 341,188 340,188 340,188 340,189 340,189 340,189 340,189 340,189 340,190 339,190 339,191 339,191 339,192 338,192 338,192 338,192 338,192 338,192 338,192 337,192 337,192 337,193 337,193 337,193 337,194 337,194 338,194 337,194 337,194 337,194 336,194 337,195 337,195 337,196 338,196 338,196 338,197 339,197 339,197 340,197 342,198 343,198 345,199 346,199 347,200 349,200 349,200 349,201 350,201 351,202 351,202 351,202 351,203 351,203 351,203 352,204 352,204 352,205 353,205 353,205 353,205 353,206 353,206 353,206 353,206 353,207 353,207 353,207 354,207 354,207 354,208 355,208 355,208 355,208 355,208 356,209 356,209 356,209 356,209 358,210 358,210 359,210 359,210 359,211 359,211 359,211 359,211 360,211 360,211 360,212 360,212 361,212 361,212 361,212 362,213 362,213 363,214 364,214 365,215 365,215 366,216 367,216 368,217 368,217 370,217 370,217 370,217 370,217 371,217 370,217 370,217 372,218 374,218 375,218 376,218 380,220 381,221 383,221 384,221 386,221 388,221 387,222 387,223 387,224 387,224 387,224 388,224 388,224 389,225 389,225 389,225 389,226 389,226 389,226 389,227 389,227 389,227 390,227 390,228 391,228 391,229 391,229 391,230 390,231 390,231 390,231 390,231 390,231 389,231 389,231 388,230 388,230 388,231 388,231 388,231 387,231 387,231 387,231 386,231 385,231 385,231 385,231 385,231 385,231 384,232 384,232 384,232 383,232 383,232 383,232 382,232 382,233 381,233 381,233 381,233 380,234 380,234 380,234 379,234 379,234 379,235 378,235 378,235 378,235 378,235 378,235 378,235 377,235 377,236 377,236 377,236 377,236 377,236 377,236 376,237 376,237 376,237 376,238 376,238 376,238 375,238 375,238 375,239 374,240 374,240 374,240 374,240 374,241 375,241 375,241 375,241 375,242 375,242 375,242 375,242 374,244 374,244 374,244 374,245 373,245 373,245 373,246 373,247 373,247 373,248 373,249 372,249 371,251 371,251 371,251 371,251 372,251 372,252 371,252 371,252 371,252 371,253 371,253 371,253 371,253 370,253 370,253 370,253 370,253 370,253 369,253 369,253 369,253 369,253 369,253 370,254 370,254 370,254 370,254 370,254 370,254 371,254 371,254 371,253 371,253 371,253 372,254 373,254 373,254 373,254 374,254 374,255 374,255 374,255 375,255 375,255 375,255 375,254 375,254 375,254 375,254 375,253 375,253 375,253 375,253 375,253 376,253 376,253 376,253 376,254 377,254 378,254 378,254 379,255 379,255 379,255 379,255 379,255 380,255 380,255 380,255 380,255 380,255 380,256 380,256 380,256 380,256 380,256 380,256 381,257 381,257 381,257 381,257 381,257 382,257 382,257 383,257 383,257 383,256 383,256 383,256 384,257 384,257 384,257 384,257 385,257 385,257 386,257 387,257 387,257 387,257 388,257 388,257 388,257 389,257 389,257 390,257 390,257 390,257 390,257 390,257 390,258 389,258 389,258 389,258 389,258 389,258 389,258 389,258 390,259 390,259 390,259 390,259 390,258 391,258 392,258 392,258 392,258 393,258 393,259 395,259 395,259 395,259 395,259 396,259 396,259 397,259 397,259 397,259 398,259 398,259 399,259 399,259 399,259 399,259 400,259 400,259 400,260 400,260 400,260 399,260 399,260 399,261 400,261 400,261 400,261 401,261 401,261 401,260 402,260 402,260 402,260 402,260 402,259 402,259 402,259 402,259 402,259 403,259 403,259 403,259 403,259 403,259 404,260 404,260 404,260 404,260 405,261 405,261 405,261 405,261 405,261 405,261 405,261 406,261 406,261 406,261 407,261 407,262 408,262 408,262 408,262 408,262 408,263 408,263 408,263 409,263 409,263 409,263 410,264 410,264 410,265 411,265 411,265 412,265 413,265 415,265 415,265 416,265 416,265 416,264 417,264 417,264 417,264 418,264 419,264 419,264 419,265 419,265 420,265 420,265 420,265 420,264 422,264 422,264 422,264 422,264 423,264 423,265 423,265 423,264 423,264 424,264 424,264 424,264 424,264 425,265 425,265 425,265 425,265 425,266 425,266 425,266 425,266 425,266 426,266 426,265 426,265 426,266 427,266 427,267 427,267 429,266 429,267 430,267 431,267 431,267 432,267 432,267 432,269 433,269 433,270 433,270 434,270 435,271 435,271 436,271 436,271 436,271 436,271 437,271 437,271 437,271 439,271 439,271 440,270 441,271 442,271 442,271 442,271 442,271 442,271 443,271 443,271 443,271 443,271 444,271 444,271 445,271 445,271 445,271 445,270 445,270 445,270 445,270 445,270 444,270 444,270 444,270 444,269 444,269 444,269 445,269 445,269 445,269 446,269 446,269 446,269 446,269 447,269 447,269 448,269 448,269 449,269 449,268 450,268 450,269 450,269 450,269 451,270 451,270 451,270 452,270 453,270 454,270 454,270 454,270 455,270 455,270 454,269 454,269 455,269 455,268 455,268 455,268 455,268 456,268 456,268 456,268 457,268 457,268 457,268 457,268 458,269 458,269 457,269 458,269 458,269 458,269 458,270 459,270 459,270 460,270 460,270 460,270 460,269 460,269 460,269 460,269 460,269 461,269 461,269 461,270 461,270 462,270 462,270 462,270 462,270 462,270 462,270 462,271 462,271 463,271 463,271 464,271 465,271 465,271 465,271 466,272 466,272 466,272 466,272 465,272 464,272 464,272 464,273 463,273 463,273 464,273 464,274 464,274 465,274 465,274 465,273 465,273 466,273 466,273 466,273 466,274 466,274 467,274 467,274 466,275 466,275 467,275 467,275 467,275 468,275 468,275 469,275 470,275 470,275 471,275 471,275 471,275 471,275 471,275 471,276 470,276 470,276 471,276 471,276 471,276 469,277 469,277 468,278 467,279 467,279 467,280 468,280 468,280 467,280 467,280 467,281 468,281 468,281 468,281 468,282 469,282 469,282 469,282 469,282 469,282 469,283 469,283 469,283 470,284 471,285 471,285 471,285 471,286 471,286 471,286 471,286 471,286 471,287 471,287 471,287 471,287 472,287 472,288 472,288 472,288 472,288 472,289 473,289 473,289 473,289 473,289 473,289 473,290 473,290 473,290 473,290 473,291 473,291 473,291 474,291 474,292 474,292 474,292 474,293 474,293 474,293 474,294 474,294 474,294 474,294 474,294 474,294 474,294 474,295 474,295 475,296 475,296 475,296 475,296 474,296 474,296 474,296 474,296 474,296 474,296 475,297 475,297 475,297 475,297 476,297 476,297 477,297 477,297 477,297 477,297 478,298 478,298 479,298 479,299 480,299 480,299 481,299 481,300 481,300 481,300 482,300 482,300 482,300 482,300 483,301 483,301 484,301 484,302 484,303 485,303 485,303 485,304 485,304 485,304 485,304 486,304 487,304 487,304 488,305 488,305 488,305 489,305 489,305 489,305 490,305 490,306 490,306 490,306 491,306 491,306 491,306 491,306 491,306 491,306 491,306 491,306 491,306 492,306 492,306 492,307 492,307 492,307 493,307 493,307 493,307 493,307 493,307 493,307 494,307 494,308 494,308 495,308 495,308 495,308 495,309 495,309 496,309 496,309 496,309 497,309 498,309 498,309 498,309 498,309 499,309 499,309 499,309 499,310 500,310 500,310 500,310 499,311 499,311 499,311 499,311 499,312 499,312 499,312 499,312 499,312 499,312 499,313 499,313 498,313 498,314 498,314 498,314 498,314 498,315 498,315 498,316 497,316 497,316 497,316 497,316 497,317 497,317 497,317 497,317 497,317 497,318 497,318 497,318 497,318 497,318 497,318 497,318 497,318 497,319 497,319 497,319 497,319 497,319 497,319 497,320 497,320 497,320 496,321 496,322 496,323 495,323 492,322 492,324 491,324 491,324 491,324 491,325 491,325 491,325 491,326 490,326 488,326 488,326 488,326 488,326 488,326 487,326 487,326 487,326 486,326 486,326 485,326 485,326 485,326 485,326 484,326 484,326 484,326 484,326 484,326 484,326 484,327 484,327 484,327 485,328 484,329 483,330 483,331 483,331 484,331 484,331 485,332 485,332 487,333 487,333 486,333 485,333 486,334 487,335 487,335 487,335 487,336 487,336 487,336 487,336 487,336 486,336 486,336 486,336 486,337 486,337 486,337 485,337 485,337 485,337 485,338 484,338 484,338 484,338 484,338 484,338 484,338 484,338 483,338 483,338 483,338 483,338 483,338 483,338 483,338 483,338 483,338 483,338 482,338 482,338 482,338 482,338 481,338 481,338 481,338 481,338 481,338 481,338 481,338 481,338 481,338 480,338 480,338 480,338 480,338 479,339 479,339 479,339 479,339 478,339 478,339 478,339 478,339 478,339 478,339 478,339 477,339 477,339 476,339 476,339 475,339 475,339 474,339 474,339 473,339 473,339 473,339 472,339 472,339 472,339 472,339 471,339 471,340 470,340 469,340 469,340 469,340 469,340 469,340 468,341 468,341 468,341 467,341 467,341 467,341 466,341 466,341 465,341 465,341 465,341 464,340 464,340 464,340 463,340 463,340 462,340 462,340 462,340 462,340 461,340 461,340 461,340 461,340 461,340 461,340 461,340 460,340 460,340 460,340 460,339 459,339 459,339 459,339 459,339 459,339 458,339 458,339 457,339 457,339 456,338 456,338 456,338 456,338 455,338 455,338 455,338 455,338 455,338 454,338 454,338 454,338 453,337 453,337 453,337 452,336 452,336 451,336 451,336 451,335 451,335 450,335 450,335 450,335 450,334 449,334 448,334 447,334 446,334 446,333 446,333 446,333 446,333 446,333 446,333 446,333 446,333 446,333 443,328 443,329 442,329 442,329 442,329 442,330 441,330 441,330 439,330 438,330 437,330 437,330 436,330 436,330 436,330 436,330 436,330 435,330 434,330 433,330 433,330 433,330 432,330 432,330 432,330 431,331 431,330 430,330 429,330 429,330 429,330 429,330 428,330 427,329 427,329 427,329 426,329 426,329 426,329 425,329 425,329 425,328 424,328 424,328 424,328 424,328 423,328 423,328 422,328 421,327 421,327 420,327 420,327 420,327 420,327 420,327 419,326 419,326 419,326 419,327 419,327 418,326 418,326 418,326 417,326 416,326 416,326 416,325 415,325 415,325 415,325 414,326 414,326 414,326 413,326 413,326 413,326 413,326 413,326 413,326 413,326 413,326 413,326 413,326 413,327 413,327 413,327 412,327 412,327 412,327 412,327 412,327 412,326 412,326 412,326 412,326 412,326 411,326 411,327 411,326 411,326 411,326 411,326 411,325 411,325 411,325 411,325 410,324 410,324 410,323 410,323 410,323 410,323 410,322 410,322 410,322 410,322 410,322 410,321 410,321 410,321 410,321 410,321 410,321 410,321 410,321 411,320 411,320 411,320 411,320 411,320 411,319 411,319 412,319 412,319 412,319 413,319 413,319 413,319 413,319 413,319 413,318 413,318 413,318 413,318 414,318 414,318 414,318 414,318 414,318 414,318 414,318 414,317 415,317 415,317 415,317 415,317 415,317 415,317 416,317 416,317 416,316 416,316 417,316 417,316 417,316 417,316 418,316 418,316 418,316 418,316 419,316 419,315 419,315 419,315 420,315 420,314 420,314 420,314 420,314 420,314 421,314 421,314 421,313 421,313 421,313 421,313 422,313 422,312 422,312 422,312 423,312 423,312 423,311 424,311 424,311 424,311 424,311 424,310 424,310 424,310 425,309 425,309 425,309 426,308 426,308 427,308 429,307 429,308 429,309 429,309 429,309 430,309 430,308 432,308 433,307 433,306 433,306 433,306 433,306 433,305 432,305 432,305 432,304 433,303 433,302 433,302 433,302 433,302 432,302 431,302 431,302 430,302 429,302 429,302 427,302 427,302 427,302 426,302 426,302 425,302 424,302 424,302 423,302 423,302 423,302 422,303 422,303 421,303 420,303 419,304 419,304 418,304 417,304 417,304 417,304 416,305 416,305 416,305 415,306 414,306 414,306 413,306 413,306 413,306 413,307 411,308 411,308 409,308 409,309 409,309 408,309 408,309 408,309 408,309 407,309 407,309 407,309 407,309 407,309 406,309 406,309 405,309 405,309 404,310 404,310 403,310 403,310 402,310 401,310 399,311 398,311 398,311 397,311 395,311 395,312 395,311 395,311 394,312 393,313 393,313 392,314 392,314 391,314 391,314 391,314 390,314 390,314 390,314 390,314 390,314 390,314 390,314 389,315 389,315 389,315 389,315 389,315 389,315 389,316 389,316 388,316 388,316 388,316 387,316 387,316 387,316 386,318 386,319 386,319 386,319 386,320 386,320 386,320 386,321 386,321 385,321 385,321 384,321 384,321 383,321 383,321 381,322 381,321 380,321 380,321 380,321 379,321 379,321 379,321 379,321 378,321 378,321 378,321 378,322 377,322 377,322 376,321 376,321 375,321 375,322 375,322 374,322 373,323 373,323 373,323 373,323 374,324 374,324 374,324 373,324 373,325 372,325 372,325 372,325 371,325 371,325 370,325 369,325 369,325 369,325 368,325 366,325 366,325 366,325 365,325 365,324 364,323 363,323 363,323 364,323 364,323 363,322 363,322 363,322 363,322 363,322 362,322 362,322 362,322 362,322 362,322 362,322 362,322 362,322 362,322 362,322 362,322 362,321 362,321 361,321 361,321 360,321 360,321 360,321 360,321 359,321 359,321 359,321 359,321 359,320 359,320 358,320 358,320 358,320 358,320 358,320 358,320 358,320 358,320 358,320 358,319 358,319 357,319 357,319 357,319 357,319 356,319 356,318 356,318 356,318 356,318 356,318 355,320 354,320 354,320 352,320 352,320 352,320 352,320 350,321 349,321 349,321 348,321 347,321 346,321 346,321 346,322 346,323 346,323 347,324 347,325 347,325 347,326 347,326 347,326 347,326 346,327 346,327 347,327 346,328 347,330 346,331 346,331 346,331 346,331 345,332 345,332 345,332 344,332 344,333 344,333 346,334 346,334 345,334 345,335 345,335 345,335 345,335 345,335 345,335 345,335 345,335 345,335 344,335 344,335 344,336 344,336 344,336 343,336 343,336 343,336 343,336 344,337 344,337 344,337 344,337 344,337 344,338 344,338 344,338 344,338 343,338 343,338 343,338 343,338 343,339 343,339 344,339 344,339 344,340 344,340 344,340 344,340 344,340 344,340 344,340 344,341 344,341 344,341 344,341 344,341 344,341 344,341 344,341 344,341 345,341 345,342 345,342 345,342 345,342 345,342 345,343 345,343 345,343 345,343 345,343 345,344 345,344 345,344 345,344 345,344 345,344 345,344 345,344 345,345 345,345 346,345 345,345 345,345 345,345 345,345 344,345 341,344 340,344 339,345 333,346 331,345 331,345 330,345 330,345 329,345 328,344 328,344 327,344 327,344 325,343 323,342 320,341 319,340 320,340 320,340 320,340 320,339 321,339 321,339 321,339 321,339 322,339 322,339 322,338 322,338 322,338 322,338 321,338 321,337 319,336 319,336 317,335 317,335 315,334 314,333 314,333 315,332 315,332 315,332 315,331 315,331 315,331 314,331 314,330 314,330 314,329 314,329 314,328 313,328 313,328 313,327 312,326 312,326 310,325 306,323 306,324 302,322 301,321 300,321 300,320 300,320 299,320 299,320 299,320 297,319 295,317 293,316 293,316 291,315 289,313 287,311 286,310 283,308 281,307 280,307 280,307 279,306 278,306 278,306 277,305 277,305 277,304 276,304 277,304 276,304 276,303 275,303 274,302 273,301 273,301 272,301 272,301 272,300 271,299 270,299 270,299 270,299 269,299 268,295 267,295 265,296 265,296 265,296 263,297 263,297 263,297 252,298 252,298 250,299 250,298 249,299 248,299 249,300 249,300 249,300 249,300 249,301 249,302 249,302 248,303 248,304 248,304 249,304 249,305 249,305 249,305 249,306 249,306 249,306 249,306 249,306 249,307 250,307 250,308 250,308 251,309 251,309 251,310 251,310 251,311 250,312 250,313 250,314 250,314 250,314 249,315 250,315 250,315 250,315 249,316 248,316 245,316 241,317 241,317 241,317 234,316 234,315 233,314 233,313 233,313 232,313 232,313 233,312 233,311 232,311 230,310 230,310 229,310 228,310 227,310 227,310 227,306 225,306 225,306 225,305 225,305 223,304 222,303 221,302 220,301 220,301 220,301 220,300 219,300 219,300 219,300 219,299 219,298 219,298 219,298 219,297 219,296 218,295 218,295 218,295 218,294 218,294 218,293 218,292 218,291 218,291 217,291 217,290 216,290 216,290 216,290 217,288 217,288 217,288 218,288 218,287 218,287 219,286 219,286 219,286 219,285 219,285 219,285 219,285 219,285 213,282 213,282 211,281 211,281 209,280 207,280 205,279 201,278 198,277 197,277 197,277 197,276 197,274 196,274 196,274 196,273 196,273 195,272 195,272 195,272 194,273 194,273 191,272 191,271 191,271 191,271 191,271 191,271 190,272 190,272 190,272 189,273 188,274 188,275 187,275 185,274 184,274 183,274 183,274 183,274 183,274 183,274 183,274 183,274 183,274 183,274 183,274 183,274 183,274 183,274 183,274 183,274 183,274 183,274 183,274 183,274 182,274 182,275 182,275 182,275 179,275 179,275 179,275 180,274 179,274 179,274 179,274 179,274 180,274 180,273 180,273 180,273 179,272 179,272 174,271 174,271 174,271 173,270 172,270 172,270 168,268 166,267 162,266 159,265 159,264 155,262 151,260 148,259 147,259 144,257 144,257 144,257 142,256 140,255 140,255 140,255 139,255 139,255 139,255 138,258 138,259 136,262 136,262 136,262 134,261 134,261 134,261 134,261 134,261 129,257 124,253 124,253 123,250 123,250 121,247 120,246 120,245 119,244 118,243 118,243 117,242 117,241 116,239 115,239 116,239 115,239 114,239 113,238 110,237 108,236 106,236 103,234 100,233 100,233 99,232 99,232 98,232 97,231 96,231 95,231 94,230 94,229 93,229 93,228 93,228 93,228 92,227 92,227 92,227 91,226 91,226 91,226 90,226 89,226 88,228 88,228 87,228 87,229 87,229 86,228 85,228 83,227 82,227 82,228 81,229 81,229 81,230 80,230 80,230 79,229 78,228 77,228 76,227 74,226 73,225 73,225 71,224 69,222 67,221 64,220 62,218 59,216 59,216 58,216 58,216 58,216 58,216 57,216 58,215 58,215 58,215 58,215 58,215 58,215 59,215 59,215 59,215 59,215 60,215 60,215 60,214 60,214 61,213 61,213 61,213 61,213 61,213 62,212 62,212 62,212 62,212 62,212 61,211 62,211 62,211 62,211 62,210 61,210 61,210 60,210 60,210 60,209 61,209 61,209 60,209 59,209 59,209 59,208 58,208 58,207 57,207 57,206 57,206 56,206 56,205 56,204 55,204 55,204 55,205 54,205 54,205 54,205 53,205 52,204 51,204 50,203 49,203 48,203 48,202 47,202 47,202 46,201 44,201 43,200 42,200 42,200 41,199 41,199 40,199 39,198 38,198 37,198 37,198 36,197 36,197 35,197 35,197 35,197 34,197 34,196 34,196 33,196 33,196 33,195 32,195 32,194 31,194 31,194 31,194 31,193 30,193 30,193 30,193 30,193 30,193 30,192 29,192 29,192 29,191 28,191 28,191 28,190 27,190 27,190 27,190 27,189 26,189 26,189 26,189 26,188 25,188 25,188 25,188 25,187 25,187 24,187 24,186 23,186 23,185 23,185 24,185 25,185 25,184 26,184 26,184 27,184 27,184 27,184 28,184 28,184 28,184 28,184 28,184 28,184 28,184 28,184 28,183 28,183 28,183 28,183 28,183 28,183 28,183 28,183 28,183 28,183 28,183 28,183 28,183 28,183 28,183 28,183 28,182 28,182 28,182 28,182 28,182 28,182 28,182 28,182 28,182 28,182 28,182 28,182 28,182 28,182 28,182 28,181 28,181 28,181 28,181 28,181 28,181 28,181 28,181 29,181 29,181 29,181 29,181 29,181 29,181 29,181 29,181 29,181 29,181 29,181 29,181 29,181 29,181 29,181 30,181 30,180 30,180 30,180 30,180 30,180 30,180 30,180 30,180 30,180 30,180 30,180 31,180 31,180 31,180 31,180 31,180 31,180 31,180 31,180 31,180 31,179 32,178 32,177 32,177 32,177 31,177 30,177 30,176 28,176 28,176 27,176 27,176 27,175 27,175 27,175 27,175 27,174 27,174 27,173 28,173 28,173 29,173 29,173 29,172 29,172 28,172 28,172 28,171 28,171 27,171 26,170 26,170 25,170 25,170 24,170 24,170 24,170 24,169 24,169 24,169 24,169 24,169 24,168 24,168 24,167 23,166 23,166 22,166 22,166 20,166 20,166 20,166 20,166 20,165 20,165 20,165 20,165 21,165 21,165 21,165 21,165 21,165 21,165 21,165 21,164 20,164 20,164 20,164 20,164 20,164 20,164 20,164 20,163 20,163 20,163 20,163 20,162 21,162 21,162 21,162 21,161 21,161 21,161 21,160 21,160 21,160 20,160 20,159 20,159 20,159 20,158 20,158 20,158 20,157 20,157 20,157 20,157 20,157 20,157 20,157 20,157 20,156 20,156 20,156 20,156 21,156 21,156 21,156 21,156 21,155 21,155 21,155 21,155 21,155 21,155 22,154 22,154 21,154 21,154 21,154 21,154 21,153 20,153 20,153 20,153 20,153 20,153 20,152 20,152 21,150 21,150 22,149 22,149 22,148 22,148 23,148 24,148 24,148 25,148 25,147 25,147 25,147 25,147 26,147 27,147 27,147 27,147 27,146 27,146 26,145 27,145 26,145 26,145 26,145 26,144 26,144 26,144 26,143 26,143 26,143 26,142 24,142 22,142 22,142 22,142 21,139 21,138 20,137 19,137 19,135 19,135 19,135 18,135 18,135 18,135 18,135 17,135 17,135 16,135 16,135 16,134 16,134 15,134 15,134 14,134 14,134 14,134 14,134 14,134 14,134 13,134 13,133 13,133 13,133 13,133 13,133 12,133 12,133 12,133 12,133 12,133 11,133 11,132 11,132 11,132 11,132 11,132 10,132 10,131 10,131 9,131 9,131 9,131 9,131 9,131 8,131 8,131 8,131 8,131 8,131 8,130 8,130 7,130 7,130 7,130 6,130 6,130 6,130 6,130 5,130 5,129 5,129 5,129 6,128 6,128 6,128 6,127 6,127 7,126 7,126 7,126 7,126 7,126 8,125 8,125 8,125 8,123 8,123 8,122 8,122 7,122 7,122 6,122 5,122 5,122 5,122 5,121 5,121 4,120 4,120 4,120 3,119 3,119 2,118 2,117 1,117 0,116 0,115 0,113 0,113 0,113 0,113 1,112 2,112 2,111 3,111 4,111 4,111 5,110 5,110 5,110 6,110 6,109 6,109 6,109 6,109 6,108 6,108 6,108 6,107 6,107 7,106 7,106 7,106 7,106 7,105 7,105 7,105 7,104 7,103 7,103 8,102 8,101" id="4004" class="canton" fill="steelblue" stroke-width="1" stroke="white" geotype="canton" geoname="Coteau de Chalosse" code_insee="4004" code_departement="40" nom_departement="Landes" code_region="75" nom_region="Nouvelle-Aquitaine"/></svg>