<?xml version="1.0" encoding="utf-8"?>
<svg version="1.1" id="svgmap" xmlns="http://www.w3.org/2000/svg" xmlns:xlink="http://www.w3.org/1999/xlink" x="0px" y="0px" width="100%" height="100%" viewBox="0 0 500 199">
<polygon points="30,74 31,74 32,74 37,76 37,76 40,77 44,79 55,83 55,83 63,87 64,87 72,88 81,90 81,88 80,87 80,87 77,80 77,80 77,80 77,80 76,79 73,75 74,74 74,74 74,74 74,74 74,74 74,74 74,74 73,74 73,73 73,73 73,73 73,73 73,73 73,73 74,73 74,73 74,73 74,73 74,73 74,73 74,73 74,73 74,73 74,73 74,73 74,73 74,73 74,73 74,72 74,72 74,72 74,72 74,72 74,72 74,72 74,72 75,72 75,72 75,72 75,72 75,71 75,71 77,71 79,66 81,50 81,50 81,50 89,54 90,54 90,55 90,55 90,55 90,55 90,55 90,55 91,55 91,55 96,59 98,59 98,59 101,59 103,59 104,59 104,59 105,59 106,59 107,59 108,59 108,59 109,59 110,59 110,59 111,59 113,59 113,59 113,59 114,59 114,58 115,58 116,58 117,58 119,58 120,58 120,58 121,58 121,58 123,58 124,58 124,58 125,58 127,58 128,58 130,57 132,57 133,57 134,57 135,57 135,57 136,57 136,57 136,57 136,57 136,57 136,57 136,57 136,57 136,57 136,57 136,57 136,57 136,57 137,57 137,57 137,57 137,57 137,56 137,56 137,56 136,56 136,56 136,56 136,56 136,56 136,56 136,56 136,56 136,56 137,56 137,56 137,56 137,56 137,56 137,56 137,56 137,56 137,56 137,56 137,56 137,56 137,56 137,56 137,56 137,56 138,56 138,56 138,56 138,56 138,56 137,55 137,55 137,55 137,55 137,55 137,55 137,55 137,55 137,55 137,55 137,55 137,55 137,55 137,55 138,55 138,55 138,54 138,54 138,54 138,54 138,54 139,55 139,55 139,55 139,55 139,55 139,55 139,55 139,55 139,55 139,55 139,55 139,55 139,55 140,55 140,55 140,55 140,55 140,55 140,55 140,55 140,54 140,54 140,54 140,54 140,54 139,54 139,54 139,54 139,54 139,54 138,53 138,53 138,53 138,53 138,53 138,53 138,53 138,53 138,53 138,53 139,53 139,53 139,53 139,53 139,53 139,53 139,53 139,53 139,53 139,53 139,53 139,53 139,53 139,53 139,53 139,53 139,53 139,53 139,52 139,52 139,52 139,52 139,52 139,52 139,52 139,52 139,52 139,52 139,52 139,52 138,52 138,52 138,52 138,52 138,52 138,52 138,52 138,52 138,52 138,52 137,51 137,51 137,51 137,51 137,51 137,51 137,51 137,51 137,51 137,51 137,51 137,51 138,51 138,51 138,51 138,51 138,51 138,51 139,51 139,51 139,51 139,51 139,50 139,50 138,50 138,50 138,50 138,50 138,50 139,50 139,50 139,50 139,50 139,50 139,50 139,50 139,50 139,50 139,50 139,50 139,50 139,50 140,50 140,50 140,49 140,49 140,49 140,50 140,50 140,50 140,50 140,50 140,50 141,50 141,50 141,50 141,50 141,50 141,50 141,49 142,49 142,49 142,49 142,49 142,49 142,49 142,49 142,49 142,49 142,49 142,49 142,49 142,49 142,49 142,49 142,49 142,50 142,50 142,50 142,50 142,50 142,50 142,50 142,50 142,50 142,50 142,50 142,50 142,50 142,50 142,50 142,50 142,50 142,50 142,50 142,50 142,50 142,50 142,50 142,50 142,50 142,50 142,50 142,50 143,50 143,50 143,50 143,50 143,50 143,50 143,50 143,50 143,50 143,50 143,50 143,50 143,50 143,50 143,50 143,50 143,50 143,50 143,50 143,50 143,50 143,50 143,50 143,50 143,50 143,50 143,50 143,51 143,51 144,51 144,51 144,51 144,51 144,51 144,51 144,51 144,51 144,51 144,51 144,51 144,51 144,51 144,51 144,51 144,51 144,51 144,51 144,51 144,51 144,51 144,51 145,51 145,51 145,51 145,51 145,51 145,51 145,51 145,51 145,51 145,51 146,51 146,52 146,52 146,52 146,52 146,52 146,52 146,52 146,52 146,52 146,52 146,52 146,52 146,52 146,52 146,52 146,52 146,52 146,52 146,52 146,52 146,52 146,52 146,52 146,52 146,52 146,52 146,52 146,52 147,52 147,52 147,52 147,52 147,52 147,53 147,53 147,53 147,53 147,53 147,53 147,53 147,53 147,53 147,53 147,53 147,53 147,53 147,53 147,53 147,52 147,52 147,52 147,52 147,52 147,52 147,52 147,52 148,52 148,52 148,52 148,52 148,52 148,53 148,53 148,53 148,53 148,53 148,53 148,53 148,53 148,53 148,53 148,53 148,53 148,53 148,53 148,53 148,53 148,53 148,53 148,53 148,53 148,53 148,53 148,53 148,53 148,53 148,53 148,53 148,53 148,53 149,53 149,53 149,53 149,53 149,54 149,54 149,54 149,54 149,54 149,54 149,54 149,54 149,54 149,54 149,54 149,54 149,54 149,54 149,54 150,55 150,55 150,55 150,55 150,55 150,55 150,55 150,55 150,55 150,55 150,55 150,55 150,55 150,55 150,55 150,55 150,55 150,55 150,55 151,55 151,55 151,55 151,55 151,55 151,55 151,55 151,55 151,55 151,55 151,55 151,55 151,55 151,55 151,55 151,55 151,55 151,55 151,55 151,55 152,55 152,55 152,55 152,55 152,56 152,56 152,56 152,56 152,56 152,56 152,56 152,56 152,56 152,56 153,56 153,56 153,56 153,56 153,56 153,56 153,56 153,56 154,56 154,56 154,56 154,56 154,56 154,56 154,56 154,56 154,56 155,56 155,56 155,56 155,56 155,56 155,56 155,57 155,57 155,57 155,57 155,57 156,57 156,57 156,57 156,57 156,57 156,57 157,57 157,57 165,58 166,58 170,58 171,58 174,59 174,59 174,59 174,58 174,58 175,57 175,56 175,56 175,56 175,55 175,55 175,54 175,54 175,53 175,53 175,52 175,52 175,51 176,50 176,50 176,49 176,48 176,48 176,47 176,47 176,47 176,46 176,46 176,45 176,45 176,45 176,43 176,43 175,41 175,40 175,40 175,39 175,39 174,38 174,37 175,34 175,30 176,30 175,30 175,30 176,30 176,30 176,29 176,29 176,29 176,29 177,27 177,27 177,26 178,25 178,24 178,23 179,23 179,23 180,21 180,21 180,21 180,21 180,20 180,20 180,20 180,20 180,19 180,19 180,19 181,19 181,19 181,18 181,18 181,18 181,18 181,17 182,17 182,17 182,17 182,17 182,17 182,16 182,16 182,15 183,14 183,13 184,12 184,12 184,12 184,12 184,12 184,12 184,12 184,12 184,12 184,12 184,12 184,12 185,12 185,12 185,12 185,12 185,12 185,12 185,11 185,11 185,11 185,11 185,11 185,11 185,11 185,11 185,11 185,11 185,11 186,11 185,11 185,11 185,10 185,10 185,10 185,10 185,10 185,10 185,10 185,10 185,10 185,10 185,10 185,10 185,10 185,10 185,10 185,9 185,9 185,9 185,9 185,9 185,9 185,9 185,9 185,9 185,9 185,9 185,9 185,9 185,9 185,9 185,9 185,9 185,9 185,9 185,9 185,8 185,8 185,8 185,8 185,8 186,8 186,8 186,8 186,8 186,8 186,8 186,8 186,8 186,8 186,8 186,8 186,8 186,8 186,8 186,8 186,8 186,8 186,8 187,8 187,8 187,8 187,8 187,7 187,7 187,7 188,6 188,6 188,6 188,5 189,4 189,4 190,3 190,3 190,3 190,2 190,2 191,2 191,1 191,1 191,1 192,0 192,0 192,0 192,0 192,0 192,0 192,0 192,0 192,0 192,0 192,0 192,0 192,0 193,0 193,0 193,0 193,0 193,0 193,0 193,0 193,0 193,0 193,0 193,0 193,0 193,0 193,0 193,0 194,0 194,0 194,0 194,0 194,0 194,0 194,0 195,0 195,0 195,0 195,0 195,0 195,0 195,0 195,0 195,0 195,0 195,0 196,0 196,0 196,0 196,0 196,0 196,0 197,1 199,1 203,2 206,3 207,4 207,4 207,4 214,5 214,5 215,6 216,6 217,6 219,7 220,7 220,7 220,7 220,7 222,8 222,8 222,9 223,10 224,10 224,10 226,11 227,11 229,11 231,12 232,13 233,13 233,13 234,13 235,14 237,14 238,17 239,19 239,20 241,24 242,24 246,26 248,27 249,27 252,28 254,29 255,29 257,30 261,30 266,30 270,30 272,31 273,31 273,31 275,31 276,38 275,39 275,39 275,39 276,39 276,39 276,40 276,40 276,40 276,40 276,40 277,39 277,39 277,39 277,39 277,39 277,39 278,39 278,39 278,39 278,39 278,39 279,40 279,40 279,40 279,40 279,40 279,40 279,40 280,40 280,40 280,40 280,40 280,40 280,40 280,40 280,40 280,40 280,40 280,41 280,41 280,41 280,41 280,41 280,41 280,41 281,41 281,41 281,41 281,42 281,42 281,42 282,42 282,42 282,42 283,42 283,42 284,43 284,43 284,43 284,43 285,43 285,43 285,43 285,43 285,43 285,43 285,43 285,43 285,43 285,44 285,44 285,44 285,44 285,44 285,44 285,44 286,44 286,44 286,44 285,44 285,44 285,44 285,44 286,44 286,44 286,44 286,44 286,45 286,45 286,45 286,45 286,45 286,45 286,45 286,45 287,45 287,45 287,45 287,45 288,45 288,45 288,45 288,45 288,45 289,45 289,45 289,45 289,45 290,45 290,45 290,45 291,45 291,45 291,45 291,45 292,45 292,45 292,44 292,44 292,44 292,44 293,44 293,44 293,45 293,45 293,45 293,45 293,45 293,45 294,45 294,45 294,45 294,45 291,57 289,65 292,76 298,76 299,77 299,77 315,78 323,78 328,79 337,81 338,81 338,82 338,82 338,82 338,82 338,82 339,82 339,82 340,81 342,81 343,80 358,77 357,77 357,71 357,70 356,57 356,54 356,54 357,54 358,53 358,53 359,53 359,53 363,53 363,53 363,54 363,54 363,54 363,54 363,54 363,54 363,54 363,54 363,54 364,54 364,54 364,54 364,54 364,54 364,54 364,54 364,54 364,54 364,54 365,54 365,54 365,54 365,54 365,54 365,54 365,54 365,54 365,54 365,54 365,54 366,54 366,54 366,54 366,54 366,53 366,53 366,53 366,53 366,53 366,53 366,53 366,53 366,53 366,53 366,53 366,53 366,53 366,53 366,53 366,53 366,53 366,53 366,53 367,53 367,53 367,53 367,53 367,53 367,53 367,53 367,53 367,53 367,53 367,53 367,52 367,52 367,52 367,52 367,52 367,52 367,52 367,52 367,52 367,52 367,52 367,52 367,52 367,52 368,52 368,52 368,52 368,52 368,52 368,52 368,52 368,52 368,51 368,52 368,52 368,51 368,51 368,51 368,51 368,51 368,51 368,51 368,51 368,51 369,51 369,51 369,51 369,51 369,51 369,51 369,51 369,51 369,51 369,51 369,51 369,51 369,51 369,51 369,51 369,51 369,51 369,51 369,51 369,51 369,51 370,51 370,51 370,51 370,51 371,52 371,52 371,52 371,52 373,54 375,55 375,55 375,55 375,55 375,55 375,55 375,55 377,56 377,56 377,56 377,57 378,59 379,60 379,61 379,61 379,61 379,61 379,61 379,61 379,61 380,63 380,63 380,63 382,64 383,65 384,65 385,66 385,66 386,66 386,66 387,67 390,69 395,78 394,83 395,98 401,98 401,98 401,98 402,98 403,97 404,97 404,97 405,97 406,97 407,97 407,97 408,97 409,97 410,97 410,97 410,97 411,97 411,97 412,97 412,97 413,97 413,97 413,97 413,97 414,97 415,98 416,98 417,98 417,98 418,98 419,98 422,99 440,99 440,99 440,99 440,99 440,99 440,99 440,99 440,99 441,99 441,99 441,99 441,99 441,99 441,99 441,99 441,99 441,99 442,99 442,99 442,99 442,99 442,99 442,99 442,99 442,99 442,99 442,99 442,99 442,99 443,99 443,99 443,99 443,99 443,99 443,99 444,99 444,99 444,99 444,99 444,99 444,99 444,99 444,99 444,99 444,99 444,99 444,99 444,99 444,99 445,99 457,104 457,104 460,107 471,107 476,108 477,108 480,108 484,108 487,108 492,109 500,109 498,110 498,110 498,110 498,110 498,111 498,111 498,111 498,111 498,111 498,111 498,111 498,111 498,111 498,111 498,111 498,112 498,112 498,112 498,112 498,112 498,112 498,112 498,112 498,112 499,113 499,113 499,113 499,113 499,113 499,113 499,113 499,113 499,113 499,113 499,113 500,113 500,113 500,114 500,114 500,114 500,114 500,114 499,114 500,114 500,114 500,114 500,114 500,115 500,115 500,115 500,115 500,115 500,115 500,115 500,115 500,115 500,115 500,115 500,115 499,116 499,115 499,115 499,115 499,116 499,116 499,116 499,116 499,116 499,116 499,116 498,116 498,116 498,116 498,116 498,116 498,116 498,116 498,116 498,116 498,116 498,116 498,116 498,116 498,116 498,116 497,116 497,116 497,116 497,116 497,116 497,116 497,116 497,116 497,116 497,116 497,116 496,116 497,116 497,116 497,116 496,116 496,116 496,116 496,116 496,117 496,117 496,117 496,117 496,117 496,117 495,117 495,117 495,117 495,117 495,117 495,117 495,117 495,117 495,117 495,117 495,117 495,117 495,117 495,117 495,118 495,118 495,118 495,118 495,118 495,118 494,118 494,118 494,118 494,118 494,118 494,118 493,118 493,118 493,118 493,118 493,119 493,119 493,119 493,119 493,119 493,119 493,119 492,119 493,119 493,119 493,119 493,119 493,119 492,119 492,119 492,119 492,119 492,120 492,120 492,120 492,120 492,120 491,120 491,120 491,121 491,121 491,121 491,121 491,121 491,121 491,121 490,121 490,121 490,121 490,121 490,122 490,122 490,122 489,122 489,122 489,122 489,122 489,122 489,122 488,122 488,123 488,123 488,123 488,123 488,123 488,123 487,123 487,123 487,123 487,123 487,123 487,123 487,123 487,123 486,124 486,124 486,124 486,124 486,124 486,124 486,124 486,124 486,124 486,124 486,125 486,125 486,125 486,125 486,125 486,125 486,125 486,125 486,126 486,126 487,126 487,126 487,126 487,126 487,126 487,126 487,126 487,126 487,126 488,126 488,126 488,126 488,126 488,127 488,127 488,127 488,127 488,127 488,127 488,127 488,127 488,127 488,127 488,127 488,128 487,128 487,128 486,128 486,128 486,128 486,128 486,128 486,128 486,128 486,128 486,128 486,128 486,128 486,127 486,127 486,127 486,127 486,127 486,127 486,127 485,127 485,127 485,127 485,127 485,127 485,127 485,127 485,128 485,128 485,128 484,131 483,132 483,132 479,133 481,135 480,138 480,138 480,138 480,138 480,138 480,138 480,138 480,138 480,138 479,138 479,138 479,138 479,138 479,138 479,138 479,138 479,139 479,139 479,139 479,139 479,139 479,139 479,139 479,139 479,139 479,139 479,139 479,139 479,139 479,139 479,140 479,140 479,140 479,140 479,140 479,140 479,140 478,140 478,140 478,140 478,140 478,140 478,140 478,140 478,140 478,140 477,140 477,141 477,141 477,141 477,141 477,141 477,141 477,141 477,141 478,141 478,142 478,142 478,142 478,142 478,142 478,142 478,142 478,142 478,143 478,143 478,143 478,143 478,144 477,144 477,145 476,146 476,147 476,147 475,148 475,148 475,148 475,148 474,149 474,149 474,148 473,149 473,149 472,148 472,148 472,148 472,148 472,148 472,148 471,148 471,149 471,149 471,149 471,148 470,148 470,149 470,149 470,149 470,149 470,149 470,149 470,149 470,149 470,149 470,149 470,149 470,149 470,149 470,149 470,149 470,149 470,149 470,149 470,149 470,149 470,149 470,149 470,149 470,149 470,150 470,150 471,150 471,150 470,150 471,150 470,150 470,150 470,150 470,150 470,150 470,150 470,150 470,150 471,150 471,150 470,150 470,150 470,150 470,150 470,150 470,150 470,150 471,150 471,150 471,151 471,151 471,151 470,151 470,151 471,151 471,151 471,151 471,151 471,151 471,151 471,151 471,151 471,151 471,151 470,151 470,151 471,151 470,151 471,152 471,152 471,152 471,152 471,152 471,152 470,152 470,152 470,152 470,152 470,152 470,152 470,152 470,152 470,152 470,152 470,153 470,153 470,153 470,153 470,153 470,153 470,153 470,153 470,153 470,153 470,153 470,153 470,153 470,153 470,153 470,153 470,153 470,153 470,154 470,154 470,154 470,154 470,154 470,154 470,154 470,154 470,154 470,154 471,154 470,154 470,155 470,155 470,155 470,155 470,155 470,155 470,155 470,155 470,155 470,155 470,155 470,155 470,155 470,155 470,155 470,155 470,156 470,156 470,156 470,156 470,156 470,156 470,156 470,156 470,156 470,156 470,156 470,156 470,157 470,157 470,157 470,157 470,157 471,157 470,157 470,157 470,157 470,157 470,157 470,157 471,157 471,157 471,157 471,157 471,157 471,157 471,157 471,157 471,157 471,158 471,158 471,158 471,158 471,158 471,158 471,158 471,158 471,158 471,159 471,159 471,159 471,159 471,159 471,159 472,159 472,159 472,159 472,159 472,159 472,159 472,160 472,160 472,160 472,160 472,160 472,160 472,160 472,160 472,160 472,160 472,160 472,160 472,160 472,160 472,160 472,160 472,160 472,160 473,160 473,160 473,160 473,160 473,160 473,160 473,160 473,160 473,161 473,161 473,161 473,161 473,161 473,161 473,161 473,161 473,161 473,161 473,161 473,161 473,161 473,161 473,161 473,161 473,161 474,161 474,161 474,162 474,162 474,162 474,162 474,162 474,162 474,162 474,162 474,162 474,162 474,162 474,162 474,162 474,162 474,162 474,162 474,162 474,162 475,162 475,162 475,162 475,163 475,163 475,163 475,163 475,163 475,163 475,163 475,163 475,163 475,163 475,163 475,163 475,163 475,164 475,164 475,164 475,164 475,164 475,164 476,164 476,164 476,164 476,164 476,164 476,164 476,164 476,164 476,164 476,164 476,164 476,165 476,165 476,165 476,165 476,165 476,165 476,165 476,165 476,165 476,165 475,165 475,165 475,165 475,165 475,165 475,166 475,166 475,166 475,166 475,166 475,166 475,166 475,166 475,166 475,166 475,166 475,166 475,166 475,166 475,166 475,166 475,166 475,166 476,166 476,166 476,166 476,166 476,166 476,166 476,166 476,166 476,167 476,167 476,167 476,167 476,167 476,167 476,167 476,167 476,167 476,167 476,167 475,167 475,167 475,167 475,167 475,167 475,167 475,167 475,167 475,167 475,167 475,167 475,167 475,167 475,167 475,167 475,167 475,167 475,167 474,167 474,167 474,167 474,167 474,167 474,167 474,167 474,167 474,167 474,167 474,167 474,167 474,168 474,168 474,168 474,168 474,168 474,168 474,168 474,168 473,168 473,168 473,168 473,168 473,168 473,168 473,169 473,169 473,169 472,169 472,169 472,169 472,169 472,169 472,169 472,169 472,169 472,169 472,169 472,169 472,169 472,169 472,170 472,170 472,170 472,170 472,170 472,170 472,170 472,170 472,170 472,170 472,170 472,170 472,170 472,170 472,170 472,170 472,170 472,170 472,170 472,170 472,170 472,171 472,171 472,171 472,171 472,171 473,171 473,171 473,171 473,171 473,171 473,171 473,171 473,171 473,171 473,171 473,171 473,171 473,171 473,171 473,171 473,171 473,171 473,171 473,171 473,171 473,171 473,171 473,171 473,171 473,171 473,172 473,172 473,172 473,172 473,172 473,172 473,172 473,172 473,172 473,172 473,172 473,172 473,172 473,172 473,172 473,172 473,172 473,172 473,172 473,172 473,172 473,172 472,172 472,172 472,172 472,172 472,172 472,172 473,172 472,172 472,172 472,172 472,172 472,172 472,172 472,172 472,172 472,172 472,172 472,172 472,172 472,172 472,172 472,172 472,172 472,172 472,172 472,172 472,172 472,172 472,172 472,172 472,172 471,172 471,172 471,172 471,172 471,172 471,172 471,172 471,172 471,172 471,172 471,172 471,172 471,172 471,172 471,172 471,172 471,172 471,172 471,172 471,172 470,172 470,172 470,172 470,172 470,172 470,172 470,172 470,172 470,172 470,172 470,172 470,172 470,173 470,173 470,173 470,173 470,173 470,173 470,173 470,173 470,173 470,173 470,173 470,173 470,173 470,173 470,173 470,173 470,173 470,173 470,173 470,173 470,173 469,174 469,174 469,174 469,174 469,174 469,174 469,174 469,174 469,173 469,173 469,173 469,173 469,173 469,173 469,173 469,173 469,173 469,173 469,173 469,173 469,173 469,173 468,173 468,173 468,173 468,174 468,174 468,174 468,174 468,174 468,174 468,174 468,174 468,174 468,174 468,174 468,174 468,174 468,174 468,174 468,174 468,174 468,174 468,174 468,175 468,175 468,175 468,175 468,175 468,175 468,175 468,175 468,175 468,175 468,175 468,175 468,175 468,175 468,175 468,175 468,175 468,175 468,175 468,175 468,175 468,175 468,176 468,176 468,176 468,176 468,176 468,176 468,176 468,176 468,176 468,176 468,176 468,176 468,176 468,176 468,176 468,176 468,176 468,176 468,176 468,176 468,176 468,176 468,176 468,176 468,176 468,176 468,176 468,177 468,177 468,177 468,177 468,177 468,177 468,177 468,177 468,177 468,177 468,177 468,177 468,177 468,177 469,177 469,177 469,177 469,177 469,177 469,177 469,177 469,177 468,177 468,177 468,177 468,178 468,178 468,178 469,178 469,178 469,178 469,178 468,178 468,178 468,178 468,178 468,178 468,178 468,178 469,178 469,178 469,178 469,178 469,178 469,178 469,178 469,178 469,178 469,178 469,178 469,178 469,178 469,178 469,178 469,178 469,178 469,178 469,178 469,178 469,178 469,178 469,178 469,178 469,178 469,178 470,178 470,178 470,178 470,178 470,178 470,178 470,179 470,179 470,179 470,179 470,179 470,179 470,179 470,179 470,179 470,179 470,179 470,179 470,179 470,179 470,179 470,179 470,179 470,179 470,179 470,179 470,179 470,180 470,180 471,180 471,180 471,180 471,180 471,180 471,180 471,180 471,180 471,180 471,180 471,180 471,180 471,180 471,180 471,180 471,180 471,180 471,180 471,180 471,180 471,180 471,180 471,180 471,180 471,180 471,180 471,180 471,180 471,180 471,180 471,180 471,180 471,181 471,181 471,181 471,181 471,181 471,181 471,181 471,181 471,181 471,181 471,181 471,181 471,181 471,181 471,181 471,181 471,181 471,181 471,181 471,181 471,182 471,182 471,182 471,182 471,182 471,182 471,182 471,182 471,182 471,182 471,182 471,182 471,182 471,182 471,182 471,182 472,182 472,182 472,182 472,182 472,182 472,182 472,182 472,182 472,182 472,182 472,182 472,182 472,182 472,182 472,182 472,182 472,182 472,182 472,182 473,182 473,182 473,182 473,182 473,182 473,182 473,182 473,182 473,182 473,183 473,183 473,183 473,183 473,183 473,183 473,183 473,183 473,183 473,183 473,183 473,183 473,183 473,183 473,184 473,184 473,184 473,184 474,184 474,184 474,184 474,184 474,184 474,184 474,184 474,184 474,184 473,184 473,184 473,184 473,184 473,184 473,184 473,184 473,184 474,184 474,184 474,184 474,184 474,184 474,184 474,184 474,185 474,185 474,185 474,185 474,185 474,185 474,185 474,185 474,185 474,185 474,185 474,185 474,185 474,185 474,185 474,185 474,185 474,185 474,185 474,185 474,186 474,186 474,186 474,186 474,186 474,186 474,186 474,186 474,186 474,186 474,187 474,187 474,187 475,187 475,187 475,187 475,187 475,187 475,187 475,187 475,187 475,187 475,187 475,187 475,187 475,187 475,187 475,187 475,187 475,188 475,188 475,188 475,188 475,188 475,188 475,188 475,188 475,188 475,188 475,188 475,188 475,189 475,189 475,189 475,189 475,189 475,189 475,189 475,189 475,189 475,189 475,189 475,189 475,189 475,189 475,190 475,190 475,190 475,190 475,190 475,190 475,190 475,190 475,190 475,190 475,190 475,190 475,190 475,190 475,190 475,190 475,190 475,190 475,191 475,191 475,191 475,191 475,191 475,191 475,191 475,191 475,191 475,191 476,191 476,191 476,191 476,191 476,191 476,191 476,191 476,191 476,191 476,192 476,192 476,192 476,192 476,192 476,192 476,192 476,192 476,192 476,192 476,192 476,192 476,192 475,192 475,192 475,192 475,192 475,192 475,192 475,192 475,192 475,192 475,192 475,193 474,193 474,193 474,193 474,193 475,193 475,193 475,193 475,193 474,193 474,193 475,193 475,193 475,194 474,194 474,194 474,194 475,194 475,194 474,194 474,194 474,194 474,194 474,194 474,194 474,194 474,194 474,194 474,194 474,194 474,194 474,195 474,195 474,195 474,195 474,195 474,195 474,195 474,195 474,195 474,195 474,195 474,196 474,196 474,196 474,196 474,196 474,196 474,196 474,196 475,196 475,196 475,196 475,196 475,196 474,197 474,197 474,196 474,196 474,196 473,196 473,196 473,197 473,197 472,197 472,197 471,197 471,197 471,197 471,197 471,197 471,197 471,197 471,197 470,197 470,197 470,198 470,198 470,198 470,198 470,198 469,198 469,198 469,199 469,199 469,199 469,199 468,199 468,199 468,199 467,198 466,198 465,198 463,197 462,196 462,196 461,197 461,197 460,197 460,198 460,198 460,198 459,198 459,198 459,198 458,198 458,198 456,196 456,195 456,195 456,195 455,195 455,195 455,195 454,195 454,194 453,194 453,193 453,193 453,193 452,193 452,193 452,193 452,193 452,193 451,193 451,192 451,192 451,192 450,192 450,192 450,192 449,192 449,192 449,191 448,191 448,191 448,191 448,191 448,191 447,191 447,191 447,191 447,191 447,191 447,191 447,191 447,191 446,190 446,190 446,190 445,190 445,189 444,189 444,189 444,189 443,189 443,188 443,188 443,188 442,189 442,189 442,189 441,189 440,189 440,188 440,188 439,188 439,188 439,188 439,188 439,188 439,188 439,188 439,188 439,188 439,187 439,187 439,187 439,187 439,187 439,187 439,187 439,187 439,187 439,187 439,187 439,187 439,187 439,187 439,187 439,187 438,187 438,187 438,187 438,187 438,186 438,186 438,187 437,186 437,186 436,186 437,186 437,186 437,186 437,186 437,186 437,186 437,186 437,186 437,186 438,186 438,186 438,186 438,186 438,186 439,186 439,185 439,185 439,185 439,185 440,185 440,184 440,184 441,184 441,184 441,184 442,184 442,184 442,184 442,184 442,184 442,184 442,184 442,184 442,183 442,183 442,183 442,183 443,183 443,182 443,182 443,182 444,182 444,182 444,182 445,182 445,182 445,182 445,182 445,182 446,181 447,181 447,181 447,181 447,181 448,181 448,181 448,181 448,181 448,181 448,181 448,180 448,180 448,180 448,179 449,179 449,177 448,176 448,176 448,176 447,174 447,174 446,174 446,174 446,174 445,174 445,174 444,173 438,170 432,165 430,170 429,171 429,172 429,172 429,172 429,172 429,172 429,172 429,172 429,173 428,173 428,173 428,173 428,174 428,174 427,174 427,174 427,174 427,174 427,174 426,174 426,174 426,174 426,174 426,174 426,174 426,174 426,174 425,174 425,174 425,174 424,174 424,174 424,174 423,174 423,174 423,174 423,174 422,174 422,174 422,174 422,174 422,174 422,174 422,174 422,174 422,175 422,175 422,175 422,175 421,175 421,175 421,176 421,176 421,176 421,176 421,176 420,177 420,177 419,177 419,177 419,178 419,178 418,178 418,178 418,178 418,178 418,179 418,179 418,179 418,179 418,179 418,179 418,179 418,179 418,179 418,180 418,180 418,180 418,180 418,180 418,180 418,180 417,180 417,180 417,180 417,180 417,180 416,180 416,180 416,180 416,180 416,180 416,180 416,180 416,180 416,180 416,180 415,180 415,180 415,180 415,180 415,180 415,181 415,181 415,181 415,181 415,181 415,181 415,181 415,181 414,181 414,181 414,181 414,181 414,181 414,181 414,181 414,181 414,181 413,181 413,181 413,181 413,181 413,180 413,180 413,180 412,180 412,180 412,180 412,180 412,180 412,180 412,179 412,179 412,179 411,179 411,179 411,179 411,179 411,179 411,179 411,179 411,179 411,178 411,178 410,178 410,178 410,178 410,179 410,179 409,179 409,179 409,179 409,179 409,179 409,179 409,179 409,180 409,180 409,180 409,180 408,180 408,180 408,180 408,180 408,180 408,180 408,180 408,181 408,181 407,181 407,181 407,181 407,181 407,181 407,181 407,181 407,181 407,181 407,181 407,181 408,181 407,182 407,182 407,182 407,182 407,182 407,182 407,182 407,182 407,182 407,182 407,182 407,182 407,182 407,183 407,183 407,183 407,183 407,183 407,183 407,183 407,183 407,183 407,183 407,183 407,183 407,184 407,184 407,184 407,184 407,184 407,184 407,184 407,184 407,184 407,184 407,184 407,184 408,184 408,185 408,185 408,185 409,185 409,185 409,185 409,186 408,186 408,186 408,186 408,186 408,186 407,187 407,187 406,187 406,187 406,187 406,187 406,187 405,187 405,187 405,187 405,187 404,187 404,187 404,187 404,187 404,187 403,186 403,186 403,186 403,186 403,186 403,186 403,186 403,186 403,186 403,185 403,185 403,185 403,185 402,185 402,185 402,185 402,185 402,185 402,185 402,185 402,185 402,185 402,184 402,184 401,184 401,184 401,184 401,184 400,184 400,184 400,183 400,183 400,183 400,183 400,183 399,182 399,182 399,182 399,182 399,182 399,182 399,182 398,182 398,181 398,181 397,181 397,180 396,180 396,181 396,181 396,181 396,181 396,182 396,182 395,182 395,182 395,182 395,182 394,182 394,182 394,182 394,183 393,183 393,183 393,183 393,183 393,183 393,183 392,183 392,184 392,184 392,184 392,184 392,184 392,184 392,184 392,184 392,183 392,183 392,183 392,183 392,183 392,183 391,183 391,183 391,183 391,183 390,183 390,183 390,183 390,183 390,183 390,183 389,183 389,183 389,183 388,183 388,183 388,182 388,182 388,182 388,182 388,182 388,182 388,182 387,182 387,182 387,182 387,182 387,182 387,182 387,182 387,182 386,182 386,182 386,182 386,182 386,182 386,182 385,182 385,182 385,182 385,183 385,183 385,183 385,183 385,183 385,183 385,183 385,184 385,184 385,184 385,184 385,184 385,184 385,184 385,184 385,185 385,185 385,185 385,185 385,185 385,185 385,185 385,185 384,185 384,185 384,185 384,185 384,185 383,185 383,186 383,186 383,186 383,186 383,186 382,186 383,187 383,187 382,187 382,187 382,187 381,187 381,187 381,187 381,187 381,187 381,187 381,187 380,187 380,187 380,187 380,187 380,187 380,187 380,187 380,186 380,186 380,186 380,186 379,186 379,186 379,186 379,186 378,185 378,185 378,185 378,185 378,185 378,185 378,185 377,185 377,184 377,184 377,184 376,184 376,183 376,183 375,183 375,183 376,183 375,183 375,183 375,183 375,183 375,183 375,183 375,183 375,183 375,183 375,183 375,183 375,183 374,184 374,184 375,184 374,184 374,184 374,184 374,184 375,184 374,184 375,184 375,184 374,185 374,185 374,185 375,185 374,185 374,185 374,185 374,185 374,185 375,185 374,186 374,186 374,186 374,186 373,186 373,187 372,187 372,187 371,187 370,187 370,187 370,188 370,188 370,188 370,188 370,188 370,188 370,188 369,189 369,189 369,189 369,189 369,189 369,189 368,189 368,189 368,190 368,190 368,190 368,190 368,190 367,191 367,191 367,192 367,192 367,192 367,192 367,192 367,192 367,192 367,192 367,192 366,192 366,192 366,192 366,192 366,192 366,192 366,192 366,192 366,192 366,193 365,193 365,193 365,193 365,193 365,193 365,193 365,193 365,193 365,193 365,193 365,193 364,193 364,193 364,193 364,193 364,193 364,193 364,193 364,193 364,193 363,193 363,193 363,193 363,193 363,193 363,193 363,193 363,193 363,193 363,193 363,193 363,193 363,193 364,193 364,193 364,193 364,193 364,193 364,193 364,193 364,193 364,193 364,193 364,193 364,192 364,192 364,192 364,192 364,192 364,192 364,192 364,192 364,192 364,192 364,192 364,192 364,192 364,192 364,192 364,192 364,192 364,192 364,192 364,192 364,192 364,192 364,192 364,192 364,192 364,192 364,192 364,192 364,192 364,192 364,192 364,192 364,192 363,192 363,192 363,191 363,191 363,191 363,191 363,191 363,191 363,191 363,191 363,191 363,191 363,191 363,191 363,191 363,191 363,191 363,191 363,191 363,191 363,191 363,191 363,191 363,191 363,191 363,190 363,190 363,190 363,190 363,190 363,190 363,190 363,190 363,190 363,190 363,190 363,190 363,190 363,190 363,190 363,190 363,190 363,190 363,190 363,190 364,190 364,190 364,190 364,190 364,190 364,190 364,190 364,190 364,190 364,190 364,190 364,190 364,190 364,190 364,190 364,190 364,190 364,190 364,190 364,190 364,190 364,190 364,189 364,189 364,189 364,189 364,189 364,189 364,189 364,189 364,189 364,189 364,189 364,189 364,189 364,189 364,189 364,189 364,189 364,189 364,188 363,188 363,188 363,188 363,188 363,188 363,188 363,188 363,188 364,188 364,188 364,188 364,188 364,188 364,188 364,188 364,187 364,187 364,187 364,187 364,187 364,187 364,187 364,187 363,187 363,187 363,187 363,187 363,187 363,187 363,187 363,187 363,187 363,187 363,187 363,187 363,186 363,186 363,186 363,186 363,186 363,186 363,186 363,186 363,186 363,186 363,186 363,186 363,186 363,186 363,186 363,186 363,186 363,186 364,186 363,186 363,186 363,186 363,186 363,186 363,186 363,186 363,186 363,186 363,186 363,186 363,186 363,186 363,186 363,186 363,186 363,186 363,186 363,185 363,185 363,185 363,185 363,185 363,185 363,185 363,185 363,185 363,185 363,185 363,185 362,185 362,185 362,185 362,185 362,185 362,185 362,185 362,185 362,185 362,185 362,185 362,185 362,185 362,185 362,185 362,185 362,185 362,185 362,185 362,184 362,184 362,184 362,184 362,184 362,184 362,184 362,184 362,184 362,184 362,184 362,184 361,184 361,184 361,184 361,184 361,184 361,184 361,184 360,184 360,184 360,184 360,184 360,184 360,184 360,184 360,183 360,183 360,183 360,183 360,183 360,183 360,183 360,183 360,183 359,183 359,183 359,183 359,183 359,183 359,183 359,183 359,183 359,183 359,183 359,183 359,183 359,183 359,183 359,183 359,183 359,183 359,183 359,183 359,183 359,183 359,183 359,183 359,183 359,183 359,183 359,183 359,183 359,183 359,183 359,183 358,183 358,183 358,183 358,183 358,183 358,183 358,183 358,183 358,183 358,183 358,183 358,183 358,183 358,183 358,183 358,183 358,183 358,183 358,183 358,183 358,183 358,183 358,183 358,183 358,183 358,183 358,183 358,183 358,182 358,182 358,182 358,182 358,182 358,182 358,182 358,182 358,182 358,182 358,182 358,182 358,182 358,182 358,182 358,182 358,182 358,182 358,182 358,182 358,182 358,182 358,182 358,182 358,182 358,182 358,182 358,181 358,181 358,181 358,181 358,181 358,181 359,181 358,181 358,181 358,181 358,181 358,181 358,181 358,181 358,181 358,181 358,181 358,181 358,181 358,181 358,181 358,181 358,181 358,181 358,181 358,181 358,181 358,181 358,181 358,181 358,181 358,181 358,181 358,181 358,181 358,181 358,181 358,181 358,181 358,181 358,181 358,181 358,181 358,181 358,181 358,181 358,181 358,181 358,181 358,181 358,181 358,181 358,181 358,181 358,181 358,181 358,181 358,181 358,181 358,181 358,181 358,181 358,181 358,181 358,181 358,180 358,180 358,180 358,180 358,180 358,180 358,180 358,180 358,180 357,180 357,180 357,180 357,180 357,180 357,180 357,180 357,180 357,180 357,180 357,180 357,180 357,180 357,180 357,180 357,180 357,180 357,180 357,180 357,180 357,180 357,180 357,180 357,180 357,180 357,180 357,180 357,180 357,180 357,180 357,180 357,180 357,180 357,180 357,180 357,180 357,180 357,180 357,180 357,180 357,180 357,180 357,180 357,180 357,180 357,180 357,180 357,180 357,180 357,180 357,180 357,180 357,180 357,180 357,180 357,180 357,180 357,179 357,179 357,179 357,179 357,179 357,179 357,179 357,179 358,179 358,179 358,179 358,179 358,179 358,179 358,179 358,179 358,179 358,179 358,179 358,179 358,179 358,179 358,179 358,179 358,179 358,179 358,179 358,179 358,179 358,179 358,179 358,178 358,178 358,178 358,178 358,178 358,178 358,178 358,178 358,178 358,178 358,178 358,178 358,178 358,178 358,178 358,178 358,178 358,178 358,178 358,178 358,178 358,178 357,178 357,178 357,178 357,178 357,178 357,178 357,178 357,178 357,178 357,178 357,178 357,178 357,178 357,178 357,178 357,178 357,178 357,178 357,178 357,178 357,178 357,178 356,178 356,178 356,178 356,178 356,178 356,178 356,178 356,178 356,178 356,178 356,178 356,178 356,178 356,178 356,178 356,178 356,178 356,178 356,178 356,178 356,178 356,178 356,178 356,178 355,178 355,178 355,178 355,178 355,178 355,178 355,178 355,178 355,178 355,178 355,178 355,178 355,178 355,178 355,178 355,178 355,178 355,178 355,178 355,178 355,178 355,178 355,178 355,178 355,178 355,178 355,178 355,178 355,178 355,178 355,178 355,178 355,178 355,178 355,178 355,178 355,178 355,178 355,178 355,178 355,178 355,178 355,178 355,178 355,178 355,178 355,179 355,179 355,179 355,179 355,179 355,179 355,179 355,179 355,179 355,179 355,179 355,179 355,179 355,179 355,179 355,179 355,179 355,179 355,179 355,179 355,179 355,179 355,179 355,179 355,179 355,179 355,179 355,179 355,179 355,179 355,179 355,179 355,179 355,179 355,179 355,179 355,179 355,179 354,179 354,179 354,179 354,179 354,179 354,179 354,179 354,179 354,179 354,179 354,179 354,179 354,179 354,179 354,179 354,179 354,179 354,179 354,179 354,179 354,179 354,179 354,179 354,179 354,179 354,179 354,179 354,179 354,179 354,179 354,179 354,179 354,179 354,179 354,179 354,179 354,179 354,179 354,179 354,180 354,180 353,180 353,180 353,180 353,180 353,180 353,180 353,180 353,180 353,180 353,180 353,180 353,180 353,180 353,180 353,180 353,180 353,180 353,180 353,180 353,180 353,180 353,180 353,180 353,180 353,180 353,180 353,180 353,180 353,180 353,180 353,180 353,180 353,180 353,180 353,180 353,180 353,180 352,180 352,180 352,180 352,180 352,180 352,180 352,180 352,180 352,180 352,180 352,180 352,180 352,180 352,180 352,180 352,180 352,180 352,180 352,180 352,180 352,180 352,180 352,180 352,180 352,180 352,180 352,180 352,180 352,180 352,180 352,180 352,180 352,180 352,180 352,180 352,180 352,180 352,180 352,180 351,180 351,180 351,180 351,180 351,180 351,180 351,180 351,180 351,180 351,180 351,180 351,180 351,180 351,180 351,180 351,180 351,180 351,180 351,180 351,179 351,179 351,179 351,179 351,179 351,179 351,179 351,179 351,179 351,179 351,179 351,179 351,179 351,179 351,179 351,179 351,179 351,179 351,179 351,179 351,179 351,179 351,179 351,179 351,179 351,179 350,179 350,179 350,179 350,179 350,179 350,179 350,179 350,179 350,179 350,179 350,179 350,179 350,179 350,179 350,178 350,178 350,178 350,178 350,178 350,178 350,178 350,178 350,178 350,178 350,178 350,178 350,178 350,178 350,178 350,178 350,178 350,178 350,178 350,178 350,178 350,178 350,178 350,178 350,178 350,178 350,178 350,178 350,178 350,178 350,178 350,178 350,178 350,178 350,178 350,178 350,178 350,178 350,178 350,178 350,178 350,178 350,178 350,178 350,178 350,178 350,178 350,178 350,178 350,178 350,178 350,178 350,178 350,178 350,178 350,178 350,178 350,178 350,178 350,178 350,178 350,178 350,178 350,178 350,178 350,178 350,178 350,178 350,178 350,178 350,178 350,178 350,178 350,178 350,178 350,178 350,177 350,177 350,177 350,177 350,177 350,177 350,177 350,177 350,177 350,177 350,177 350,177 350,177 350,177 350,177 350,177 350,177 350,177 350,177 350,177 350,177 350,177 350,177 350,177 350,177 350,177 350,177 350,177 350,177 350,177 350,177 350,177 350,177 350,177 350,177 350,177 350,177 350,177 350,177 350,177 350,177 349,177 349,176 349,176 349,176 349,176 349,176 348,176 348,176 348,176 348,176 348,176 348,176 348,176 348,176 348,176 348,176 347,176 347,176 347,176 347,176 347,176 347,176 347,176 347,176 347,176 347,176 347,176 347,176 347,176 347,175 347,175 346,175 346,175 346,175 346,175 346,175 346,175 346,175 346,175 346,175 346,175 346,175 346,175 346,175 346,175 346,175 346,175 346,175 346,175 346,175 346,175 345,175 345,175 345,175 345,175 345,175 345,175 345,175 345,175 345,175 345,175 345,175 345,175 345,175 345,175 345,175 345,175 345,175 345,175 345,175 345,175 345,175 345,175 345,175 345,175 345,175 345,175 345,175 345,175 345,175 345,174 345,174 345,174 345,174 345,174 346,174 346,174 346,174 346,173 346,173 345,173 345,173 345,173 345,173 344,173 344,173 344,173 344,173 344,173 344,173 344,172 344,172 344,172 344,172 344,172 343,172 343,172 343,172 343,172 344,172 343,171 342,171 341,170 341,170 341,170 340,170 340,170 339,169 339,169 339,169 338,169 338,169 338,169 338,169 338,169 338,169 338,169 338,169 337,169 337,169 337,169 338,169 337,169 337,169 337,168 337,168 338,168 338,168 337,168 336,168 336,168 336,168 336,168 336,168 336,168 336,168 336,168 336,168 336,168 335,168 334,167 334,167 334,167 334,167 334,167 333,167 333,167 333,167 333,167 332,167 332,167 332,167 332,167 332,166 331,166 331,166 331,166 331,166 331,166 331,166 331,166 330,166 330,166 329,166 329,165 329,165 329,165 329,165 329,165 328,165 328,164 328,164 328,164 327,164 327,164 327,164 327,164 327,164 327,164 326,164 326,164 326,164 326,164 326,164 325,164 325,164 325,164 324,164 324,164 324,164 324,164 324,164 324,164 324,164 324,164 324,164 324,164 324,164 324,164 324,164 323,163 323,162 323,162 323,162 323,162 322,162 322,162 322,162 321,162 320,161 320,161 320,161 320,161 319,162 318,161 317,161 317,161 317,161 317,161 318,161 318,160 318,160 318,160 318,160 318,159 318,159 317,159 317,159 317,159 317,159 317,159 317,159 317,159 317,159 317,159 317,159 317,159 316,158 316,158 316,159 316,159 316,159 316,159 315,159 314,159 314,159 315,158 315,158 315,157 315,157 315,157 314,157 314,157 313,157 313,157 313,157 313,156 313,156 313,156 313,156 311,156 311,156 310,155 310,155 310,155 310,155 307,155 305,155 305,155 305,155 306,154 306,154 306,154 306,154 303,154 303,154 302,154 301,154 301,154 301,153 301,153 301,152 301,152 301,152 302,151 303,151 302,149 300,148 300,147 299,147 299,147 299,147 299,147 299,147 299,147 299,147 299,147 299,147 299,147 299,147 299,147 299,147 298,147 298,147 298,147 298,147 298,147 297,147 297,147 297,147 297,147 297,148 296,148 296,148 296,148 296,148 296,148 296,148 296,148 296,148 296,148 295,148 295,149 295,149 295,149 295,149 294,149 294,149 294,149 294,149 294,149 293,149 293,149 293,149 294,150 294,150 294,150 293,150 293,150 293,151 292,151 292,151 292,151 292,151 292,151 292,151 291,152 291,152 291,152 291,152 291,152 291,152 291,153 290,153 290,153 290,153 290,153 290,153 290,154 290,154 290,154 290,154 290,154 289,154 289,154 289,155 289,155 289,155 290,155 290,155 290,155 290,155 290,155 289,155 289,155 289,155 289,155 289,155 289,156 289,156 289,156 289,156 289,156 288,156 288,156 288,156 288,156 288,156 287,156 287,156 287,155 287,155 286,155 286,155 286,155 285,156 285,156 285,156 285,156 285,157 285,157 285,157 285,157 284,157 284,157 284,157 284,157 284,158 283,158 283,159 283,159 283,159 283,159 283,159 283,159 282,159 282,159 282,159 282,158 282,158 282,158 282,158 282,158 282,158 281,158 281,158 281,158 281,158 281,158 281,158 280,158 280,158 280,158 280,158 280,158 280,158 280,158 279,158 279,158 279,158 279,158 279,158 278,158 278,158 278,158 278,158 278,158 278,158 278,158 277,158 277,159 277,159 277,159 277,159 277,159 277,159 276,160 276,160 276,160 276,160 276,160 275,160 275,160 275,160 275,160 275,160 275,160 275,160 275,160 275,160 274,161 274,161 274,161 274,161 274,161 274,161 274,161 273,162 273,162 273,162 273,162 273,162 274,162 274,162 274,162 274,162 274,163 274,163 273,163 273,163 273,163 273,163 273,164 273,164 273,164 273,164 273,164 273,164 274,164 274,164 274,164 273,164 273,164 273,164 273,165 273,165 273,165 273,165 273,165 273,165 272,165 272,165 272,165 272,165 272,165 272,165 271,165 271,165 272,166 271,166 271,166 271,166 271,166 271,166 271,166 271,166 270,166 270,166 270,166 270,166 270,167 270,167 270,167 269,167 269,167 269,167 269,167 269,167 268,167 268,167 268,167 268,167 268,167 268,167 268,167 267,167 267,167 267,167 267,167 267,167 267,167 267,168 267,168 267,168 267,168 267,168 267,168 267,168 267,168 267,169 267,169 267,169 267,169 267,169 267,169 267,169 267,169 267,169 267,169 267,170 267,170 267,170 267,170 267,170 267,170 267,170 266,170 266,170 266,170 266,170 266,170 266,170 266,170 266,170 266,170 266,170 266,170 266,170 266,170 266,170 266,170 266,170 266,170 266,170 266,170 266,170 266,170 266,170 266,170 266,170 266,170 266,170 266,170 266,170 265,170 265,170 265,170 265,170 265,170 265,170 265,170 265,170 265,170 265,170 265,170 265,170 265,170 265,170 265,170 265,170 265,170 265,170 265,170 265,170 265,170 265,170 265,170 265,170 265,170 265,170 265,170 265,170 265,170 265,170 265,170 264,170 264,170 264,170 264,170 264,170 264,170 264,170 264,170 264,170 264,170 264,170 264,170 264,170 264,170 264,170 264,170 264,170 264,170 264,170 264,170 264,170 264,170 264,170 264,170 264,170 263,170 263,170 263,170 263,170 263,169 263,169 263,169 263,169 263,170 263,170 263,170 263,169 263,169 263,169 263,169 262,169 262,169 262,169 262,169 262,169 262,169 262,169 262,169 262,169 262,169 262,169 262,169 262,169 262,169 261,169 261,169 261,169 261,169 261,169 261,169 261,169 261,169 261,169 261,169 261,169 261,169 261,169 261,169 260,169 260,169 260,169 260,169 260,169 260,169 260,169 260,169 260,169 260,169 260,169 260,169 259,169 259,169 259,169 259,169 259,169 259,169 259,169 259,169 259,169 259,169 259,169 259,169 258,169 258,169 258,169 258,169 258,169 258,169 258,169 258,169 258,169 257,169 257,169 257,169 257,169 257,169 257,169 257,169 257,169 257,169 257,169 257,169 257,169 257,169 257,169 256,169 256,169 256,169 256,169 256,168 255,168 255,168 255,168 255,168 255,168 255,168 254,168 254,168 254,168 252,169 251,169 251,169 249,169 248,169 247,170 247,170 246,170 246,170 245,170 244,170 242,170 241,170 241,170 239,170 237,170 236,170 236,170 235,170 235,170 234,170 234,170 234,170 234,171 234,171 234,171 234,170 234,170 233,170 233,170 233,170 233,170 233,170 233,170 233,170 233,170 232,170 232,170 232,170 232,170 232,170 232,170 232,170 232,170 232,170 232,170 232,171 232,171 232,171 232,171 232,171 231,171 231,171 231,171 231,171 231,171 231,171 231,171 231,171 231,171 231,171 231,171 231,171 231,171 231,171 231,171 231,171 231,171 231,171 231,171 230,171 230,171 230,171 230,171 230,171 230,170 230,170 230,170 230,170 230,170 230,170 230,170 230,170 230,170 230,170 230,170 230,170 230,170 230,170 230,170 230,170 230,169 230,169 230,169 230,169 229,169 229,169 229,169 229,169 229,168 229,168 229,168 229,168 229,168 229,168 229,168 229,168 229,168 229,168 229,168 229,168 229,168 229,168 229,168 228,168 228,168 228,168 228,168 228,168 228,167 228,167 228,167 228,167 228,167 228,167 228,167 228,167 228,167 228,167 228,167 228,167 228,167 228,167 228,167 228,167 228,167 228,167 227,167 227,167 227,167 227,167 227,167 227,167 227,167 227,167 227,167 227,167 227,167 227,167 227,167 227,167 227,167 227,167 226,167 226,167 226,167 226,167 226,167 226,167 226,167 226,167 226,167 226,167 226,167 226,167 226,167 225,167 225,167 225,167 225,167 225,167 225,167 225,167 225,167 225,167 225,167 225,167 225,167 225,167 224,167 224,167 224,167 224,167 224,167 224,167 224,167 224,167 224,167 223,167 223,167 223,167 223,167 223,167 223,167 223,167 223,167 223,167 223,167 223,167 223,167 223,167 222,167 222,167 222,167 222,167 222,167 222,167 222,167 222,167 222,167 222,167 222,167 222,167 222,167 222,167 222,167 222,167 221,167 221,167 221,167 221,167 221,167 221,167 219,170 218,170 217,171 217,171 215,171 214,171 212,171 212,171 212,171 212,169 211,168 211,168 211,167 211,167 211,165 211,165 210,164 210,163 210,162 210,161 210,161 209,160 209,158 209,157 209,156 208,154 208,153 208,152 208,152 207,152 207,152 201,152 201,152 200,152 200,152 198,152 198,152 198,152 192,153 191,153 191,153 190,153 189,153 187,153 186,152 185,152 184,152 182,152 182,152 182,152 182,152 182,152 182,152 182,152 182,152 182,152 182,152 177,151 175,151 174,151 174,150 173,149 172,148 172,147 171,147 171,146 170,144 170,144 170,144 168,142 166,141 166,141 165,141 164,141 163,141 162,141 160,140 160,140 160,140 159,140 159,140 159,140 158,140 158,140 158,140 156,140 155,140 154,140 152,139 153,138 153,138 153,137 153,137 154,136 154,136 155,134 155,134 154,133 154,133 154,133 154,133 154,132 154,132 152,131 152,131 151,132 151,132 147,131 147,131 143,131 142,131 142,130 138,127 136,125 135,124 129,125 120,126 120,126 119,126 119,126 118,125 117,125 114,124 113,125 112,128 111,128 111,128 111,128 109,128 109,128 108,128 104,127 103,127 100,126 97,126 95,126 93,126 88,125 88,125 88,125 86,125 86,125 86,125 85,125 85,125 85,125 85,125 85,125 85,125 85,125 85,125 81,125 81,125 80,126 80,126 80,127 78,130 77,130 76,133 76,133 76,133 74,139 74,141 71,141 67,140 65,140 69,133 69,133 69,133 70,133 71,133 73,130 75,124 77,121 78,119 78,119 78,119 78,119 74,115 72,114 71,114 66,113 66,113 62,112 36,107 20,105 19,105 17,105 16,105 15,105 15,105 14,105 14,105 13,105 13,105 13,105 13,105 13,105 10,103 8,102 6,101 4,100 3,100 3,100 1,99 1,99 0,98 1,93 1,93 1,91 0,90 1,89 1,89 1,89 1,88 1,88 1,88 0,88 0,88 0,88 0,88 0,88 0,88 0,87 0,87 0,87 0,87 0,87 0,87 1,86 1,86 1,86 1,86 1,86 1,86 1,86 1,86 1,86 1,86 1,86 1,86 1,86 1,86 2,86 2,86 2,86 2,86 2,86 2,85 2,85 2,85 2,85 2,85 2,85 2,85 2,85 2,85 2,85 2,85 2,85 2,85 2,85 2,85 2,85 2,85 2,84 2,84 3,84 3,84 3,84 3,84 3,84 3,84 3,84 3,84 3,84 3,84 3,84 3,84 3,84 3,84 3,84 3,84 3,84 3,84 3,84 4,84 4,84 4,84 4,84 4,84 4,83 4,83 3,83 3,83 3,83 3,83 3,83 3,83 3,83 3,83 3,83 3,83 3,83 3,83 3,83 3,83 3,83 3,83 3,82 3,82 3,82 3,82 3,82 3,82 3,82 3,82 3,82 3,82 3,82 3,82 2,82 2,82 2,82 2,82 2,82 3,82 3,82 3,82 3,82 3,82 3,82 3,82 3,82 3,82 3,82 3,82 3,82 2,82 2,81 2,81 2,81 2,81 2,81 3,81 3,81 3,81 3,81 3,81 3,81 3,81 3,81 3,81 3,81 3,81 3,81 3,81 3,81 3,81 3,80 3,80 3,80 3,80 3,80 3,80 3,80 3,80 3,80 3,80 3,80 3,80 3,80 3,80 3,80 3,80 3,80 3,79 3,79 3,79 3,79 3,79 3,79 3,79 3,79 3,79 3,79 3,79 3,79 3,79 3,79 3,79 3,79 3,79 3,79 3,79 3,79 3,79 3,79 3,79 3,79 3,78 4,78 4,78 4,78 4,78 4,78 4,78 4,78 4,78 4,78 4,78 4,78 4,78 4,78 4,78 4,78 4,78 4,78 4,78 4,78 4,78 4,78 4,78 4,78 4,78 4,78 4,78 4,78 4,78 4,78 4,77 4,77 4,78 4,78 4,78 4,78 4,78 5,78 5,78 5,78 5,78 4,78 4,78 5,78 5,78 5,78 5,78 5,79 5,79 5,79 5,79 5,78 5,79 5,79 5,79 6,79 6,79 6,79 6,79 6,79 6,79 6,79 6,79 6,79 6,79 6,79 6,79 6,79 6,79 6,79 6,79 7,79 7,79 7,79 7,79 7,79 7,79 7,79 7,79 7,79 8,80 8,80 8,80 8,80 8,80 8,80 9,80 9,80 9,80 9,80 9,80 9,80 9,80 9,80 9,80 9,80 9,80 9,80 9,80 10,80 10,80 10,80 10,80 10,80 10,80 10,80 10,80 10,80 11,80 11,80 11,80 11,80 11,80 11,80 11,80 11,80 11,80 11,80 11,80 12,80 12,80 12,80 12,80 12,80 12,80 12,80 12,80 12,80 12,80 13,80 13,80 13,80 13,80 13,80 13,80 13,80 13,80 15,79 15,78 16,77 16,77 16,76 16,76 16,76 18,74 18,74 19,73 21,73 23,73 30,74" id="4008" class="canton" fill="steelblue" stroke-width="1" stroke="white" geotype="canton" geoname="Haute Lande Armagnac" code_insee="4008" code_departement="40" nom_departement="Landes" code_region="75" nom_region="Nouvelle-Aquitaine"/></svg>