<?xml version="1.0" encoding="utf-8"?>
<svg version="1.1" id="svgmap" xmlns="http://www.w3.org/2000/svg" xmlns:xlink="http://www.w3.org/1999/xlink" x="0px" y="0px" width="100%" height="100%" viewBox="0 0 500 317">
<polygon points="0,215 1,215 18,211 25,209 29,208 39,205 41,205 47,203 54,201 55,200 59,200 66,198 68,198 70,198 71,198 72,198 74,198 75,198 76,197 83,196 85,195 86,195 86,195 91,194 91,194 91,193 102,191 107,189 111,188 125,186 131,184 132,184 140,181 143,179 145,178 145,178 147,177 147,177 148,176 154,174 155,174 155,174 161,172 167,171 168,171 168,171 172,171 173,171 179,171 184,171 185,172 186,172 190,172 190,172 192,172 194,171 195,171 203,170 206,169 208,169 212,168 213,167 214,167 216,166 216,166 218,164 221,162 221,162 223,159 225,156 227,153 227,152 228,150 229,142 230,140 231,138 232,136 232,136 232,135 232,134 233,134 234,133 234,132 235,131 235,130 236,129 237,127 239,125 239,124 241,123 243,121 245,120 249,116 249,115 250,115 253,113 254,112 256,111 257,110 258,110 258,109 260,109 262,108 265,107 267,106 270,104 270,104 274,102 275,102 277,100 278,100 279,99 280,99 281,98 283,96 283,95 283,95 286,93 287,92 288,91 290,89 287,87 285,87 285,86 285,86 284,86 284,86 283,86 282,85 282,85 280,85 280,85 279,85 279,85 279,85 278,85 277,84 274,82 273,81 273,81 273,81 272,79 272,79 272,79 272,79 271,80 270,80 269,81 269,82 269,83 268,83 268,84 267,85 267,88 267,87 264,81 263,78 262,78 257,65 256,62 256,62 248,45 248,44 247,42 244,36 238,20 237,20 247,20 247,20 247,4 247,4 269,4 270,4 272,1 272,1 273,0 274,0 276,0 276,0 279,2 279,3 279,3 279,3 279,4 279,5 278,6 277,7 277,8 277,8 277,8 277,9 277,10 278,11 280,12 283,13 291,13 293,14 296,17 297,17 301,18 304,18 305,19 305,19 306,21 312,20 313,20 314,21 315,21 315,21 314,21 313,22 313,22 313,22 315,24 318,28 319,30 320,29 321,29 322,28 325,27 328,30 332,33 332,32 333,32 335,30 336,30 337,32 339,30 340,30 342,28 344,27 346,26 347,25 349,24 350,23 351,23 352,22 352,21 352,21 353,20 354,17 354,15 354,10 354,5 354,3 354,2 355,2 355,2 356,3 356,4 358,6 359,8 364,8 366,8 367,10 366,10 365,11 365,11 365,12 366,13 366,14 364,14 363,14 362,14 358,15 358,15 359,16 360,17 360,17 361,18 361,19 363,20 363,20 363,21 362,21 362,21 363,22 365,24 368,22 371,20 376,17 378,19 379,20 379,20 379,21 379,22 380,23 381,23 382,24 383,25 384,25 384,25 385,25 385,25 385,25 385,25 386,26 388,27 388,27 389,27 389,27 389,26 389,26 390,25 390,24 391,25 391,25 396,28 396,28 397,29 399,30 401,31 401,32 403,33 403,33 400,35 399,36 399,37 398,38 396,39 394,39 386,44 386,44 385,45 379,49 378,50 378,51 378,52 376,52 375,52 374,52 373,52 373,53 372,54 370,56 369,56 369,56 369,57 368,58 367,58 366,58 366,58 362,61 359,62 358,63 358,63 358,63 358,63 359,64 360,64 360,64 361,64 361,64 362,65 364,65 364,65 365,65 365,64 367,64 371,61 372,61 373,60 373,60 375,59 375,58 376,58 376,58 376,58 377,58 385,53 385,53 385,55 387,65 388,71 389,79 389,80 393,103 397,102 406,101 406,101 396,117 391,125 387,130 387,131 384,132 384,132 384,133 384,133 385,134 385,134 385,134 384,134 382,136 381,136 382,137 382,138 383,138 384,139 384,139 384,139 385,140 387,142 387,142 388,143 388,143 389,143 391,142 395,140 395,139 396,139 396,139 396,139 396,139 397,137 397,137 398,138 398,138 399,139 399,140 400,140 401,140 402,140 402,140 403,140 403,140 403,140 404,141 404,141 404,142 404,142 403,142 403,143 403,142 397,147 395,147 394,149 391,150 388,150 387,149 386,150 385,152 381,153 380,154 379,155 377,156 376,157 376,158 376,159 375,168 376,170 380,174 383,176 385,178 389,180 389,180 392,179 395,178 400,184 401,185 401,186 403,189 398,191 398,192 397,194 396,193 393,194 394,195 391,196 394,200 395,201 397,204 400,207 402,209 403,210 407,215 409,217 409,217 410,217 411,216 413,215 417,213 421,212 422,211 428,213 434,212 438,211 436,209 439,208 440,207 440,207 441,206 442,206 451,203 451,203 453,203 453,203 456,203 456,203 457,203 458,202 462,202 465,201 465,202 465,202 465,203 466,205 466,206 465,206 465,207 465,207 465,208 464,209 464,209 464,209 463,211 463,211 463,212 463,213 462,213 462,214 463,215 463,215 463,215 463,215 463,216 464,217 468,221 468,221 473,219 473,219 473,219 474,218 476,217 477,216 478,216 478,216 478,216 483,214 487,212 487,212 489,211 492,209 493,209 493,209 493,209 494,208 497,207 498,211 498,211 498,214 498,214 498,215 498,215 498,215 498,215 498,215 499,217 499,217 498,217 498,218 498,218 499,219 499,219 500,223 500,223 500,224 500,224 500,224 500,225 499,225 499,226 499,226 499,227 500,227 500,228 498,228 496,229 496,229 495,229 495,229 494,229 494,230 493,230 492,231 491,231 490,232 484,235 485,237 482,238 481,238 482,238 484,241 482,241 481,242 480,242 480,242 479,242 476,243 474,244 473,245 474,245 469,247 470,247 468,248 468,248 468,248 466,248 467,248 466,248 465,249 461,250 460,251 460,251 459,251 457,251 454,252 454,252 454,252 452,252 452,252 452,253 452,253 451,253 449,256 449,256 450,256 450,256 451,256 451,256 448,262 448,262 443,260 443,260 440,263 440,263 440,264 439,264 439,264 440,265 440,265 440,265 441,266 441,267 441,267 441,267 441,268 441,268 441,268 442,270 444,270 444,270 449,270 450,270 451,269 454,270 455,270 456,271 457,272 457,273 457,273 457,274 457,274 458,276 458,276 458,276 456,277 456,277 458,280 457,282 454,282 453,282 453,282 449,283 447,284 446,284 444,285 443,285 443,285 443,286 442,286 441,287 439,288 439,288 439,288 438,289 438,289 438,290 438,290 438,291 437,291 437,291 437,292 436,292 436,291 436,292 435,292 434,292 434,292 433,293 433,293 432,294 431,294 431,295 431,295 430,296 430,296 429,297 428,295 427,295 425,294 425,293 425,293 425,292 425,291 425,291 424,290 424,290 424,290 424,290 423,290 422,291 421,292 420,292 419,293 416,293 414,294 414,294 413,293 412,293 411,294 409,294 408,294 408,295 409,295 410,297 410,297 409,297 408,298 408,298 408,300 408,300 408,301 407,302 407,302 407,302 407,304 406,305 406,305 405,306 404,306 404,307 403,307 402,308 402,308 401,308 401,308 401,308 399,309 399,309 399,309 400,310 400,310 399,312 399,312 399,313 399,313 399,315 399,315 398,315 393,317 392,317 392,317 392,317 392,317 390,315 390,315 389,314 389,314 389,313 388,311 388,311 387,310 386,309 386,308 385,307 385,305 385,305 384,304 383,304 379,304 379,304 373,307 370,308 370,308 370,308 370,308 369,307 368,307 367,306 367,306 367,306 366,305 366,305 367,304 367,304 368,303 369,303 369,303 369,302 370,301 370,301 370,300 370,300 370,299 371,298 371,298 372,297 372,296 371,294 371,294 370,293 369,292 368,291 368,291 365,290 362,290 361,290 358,290 354,291 354,291 351,291 349,291 349,291 349,291 349,291 348,290 348,291 348,291 348,291 344,292 344,293 343,292 343,292 342,293 342,293 341,294 340,293 340,293 338,294 337,295 335,296 334,296 334,296 332,296 332,297 332,297 331,297 329,298 327,296 326,295 325,295 325,295 325,295 318,296 318,296 318,295 319,295 315,297 313,298 312,299 312,299 311,299 308,301 308,301 307,301 306,301 304,302 303,302 302,302 301,302 301,303 300,303 298,303 297,304 297,304 294,306 294,306 294,306 293,306 292,307 292,307 291,307 291,307 289,310 288,310 288,310 287,310 287,309 286,308 285,308 285,308 285,308 285,307 285,307 285,307 284,306 282,304 282,304 281,303 280,303 280,302 280,302 277,301 277,301 274,300 274,300 274,300 274,300 272,299 271,299 271,299 271,299 271,298 270,299 268,300 268,300 265,298 263,298 262,297 262,297 262,297 260,297 260,297 260,297 259,297 259,297 259,297 259,296 259,296 258,296 258,295 256,294 256,294 256,293 255,293 255,293 254,293 254,293 254,293 254,293 253,293 253,293 253,293 253,293 252,293 252,294 252,294 250,293 250,293 250,293 249,294 249,294 249,294 249,294 249,296 249,296 248,299 248,299 248,299 245,298 245,298 241,296 241,296 241,295 241,295 241,295 241,295 241,295 238,296 238,296 238,296 238,295 238,295 237,293 237,293 237,293 236,293 236,293 236,293 235,292 235,291 235,291 235,291 232,290 232,290 231,290 231,290 231,290 229,289 229,289 229,289 229,289 229,289 229,289 229,289 226,289 226,289 225,289 224,288 224,288 224,288 224,289 224,289 224,289 224,289 224,289 222,288 222,288 220,288 219,288 219,288 217,287 216,286 215,285 214,285 214,284 213,284 212,283 211,283 211,282 211,282 212,282 212,281 212,280 212,280 210,279 210,278 209,278 209,278 209,278 208,279 208,279 208,279 207,278 207,278 204,278 204,278 204,278 204,278 203,279 202,279 201,280 201,280 198,280 197,280 196,280 195,280 193,280 193,280 192,278 192,278 192,278 192,278 195,277 195,277 195,277 195,277 195,276 196,276 196,276 197,274 197,274 197,273 197,273 197,272 197,272 197,271 197,271 197,271 194,270 193,270 192,269 192,269 190,269 190,268 189,268 189,268 189,268 189,268 188,267 187,266 187,266 187,266 189,265 189,265 188,264 188,264 188,263 187,262 187,262 187,262 187,261 187,261 186,260 185,259 184,259 183,258 182,257 181,256 181,256 178,254 178,254 178,254 178,253 178,252 178,250 178,249 178,247 178,246 178,245 178,244 178,244 177,244 172,245 170,245 169,245 167,245 166,245 163,245 164,247 164,248 164,248 163,248 164,251 156,258 149,264 148,264 148,264 148,264 148,263 148,263 147,264 147,264 147,264 146,264 146,264 146,264 145,263 145,263 144,263 143,263 143,263 143,263 143,262 143,262 143,262 142,262 142,262 142,262 141,262 141,262 140,262 140,262 139,262 139,262 138,262 138,262 138,262 137,262 137,262 137,262 137,262 137,263 136,263 136,263 136,263 136,263 135,263 135,264 135,264 134,264 134,264 134,264 134,264 134,264 134,264 134,264 134,264 134,264 133,264 133,264 133,264 131,265 131,265 130,265 130,265 129,266 129,266 129,266 129,266 128,266 125,265 124,264 120,264 120,264 119,264 117,264 117,264 117,264 116,264 116,264 115,264 115,264 115,264 115,264 115,264 115,264 114,264 114,264 114,264 114,264 113,264 113,264 112,265 112,265 113,265 113,265 113,265 112,265 112,265 112,266 111,266 111,266 111,266 111,265 110,265 110,265 109,265 108,265 108,265 108,265 108,265 107,265 107,265 107,265 106,265 106,265 105,266 105,266 105,266 105,266 105,266 105,266 104,266 104,266 104,266 104,266 103,266 102,266 101,266 101,266 101,266 100,266 99,265 99,264 99,264 98,264 97,264 97,263 96,263 95,263 95,262 94,262 93,261 93,261 93,261 93,261 93,261 92,261 94,259 94,259 95,258 96,257 92,254 92,254 92,251 83,259 83,259 85,261 85,261 85,261 85,261 85,262 85,263 85,263 85,263 85,263 81,261 80,261 76,259 75,258 74,258 74,258 74,257 74,257 74,257 72,256 72,256 72,256 70,255 67,254 65,253 64,253 63,252 61,252 59,251 58,251 57,251 56,251 55,250 55,250 53,249 51,248 51,248 50,248 49,247 48,247 47,246 46,245 46,245 43,245 42,245 41,245 40,245 40,245 40,245 40,245 40,245 38,244 37,244 37,244 35,244 35,244 35,244 35,245 26,242 26,242 26,242 26,242 26,242 26,242 26,242 26,241 26,241 26,241 26,241 26,241 25,241 25,241 25,241 24,241 23,240 23,240 23,240 23,240 21,239 20,238 20,238 19,237 18,236 16,235 16,234 15,234 15,234 15,233 14,233 14,231 14,231 14,231 14,231 13,231 14,231 14,231 14,230 14,230 13,229 13,229 13,229 13,229 13,229 11,229 10,228 9,228 9,228 9,228 8,228 8,227 8,227 7,227 7,226 7,226 7,226 7,226 7,226 7,226 7,226 8,225 8,225 7,225 7,225 7,225 7,224 6,224 6,224 5,223 4,223 4,223 3,222 2,221 2,221 3,221 3,221 2,221 2,220 2,219 2,219 1,218 1,218 0,215" id="4104" class="canton" fill="steelblue" stroke-width="1" stroke="white" geotype="canton" geoname="Blois-3" code_insee="4104" code_departement="41" nom_departement="Loir-et-Cher" code_region="24" nom_region="Centre-Val de Loire"/></svg>