<?xml version="1.0" encoding="utf-8"?>
<svg version="1.1" id="svgmap" xmlns="http://www.w3.org/2000/svg" xmlns:xlink="http://www.w3.org/1999/xlink" x="0px" y="0px" width="100%" height="100%" viewBox="0 0 500 428">
<polygon points="26,89 35,84 50,77 69,69 69,69 70,68 71,68 73,66 73,66 76,65 79,63 81,62 84,61 85,60 88,58 89,58 96,54 99,52 102,49 105,47 106,46 106,45 107,44 107,43 107,43 108,42 110,40 110,39 111,38 112,36 113,34 114,33 115,31 115,30 116,29 117,28 118,27 119,26 122,23 123,22 126,21 127,20 127,20 128,20 128,20 128,20 129,20 129,20 130,19 132,18 132,18 133,17 133,17 135,16 139,13 146,10 151,7 156,4 157,3 160,1 162,0 162,0 162,0 166,3 167,3 168,4 168,4 171,2 178,7 178,7 184,12 184,12 182,13 182,13 189,19 192,17 198,22 199,21 199,21 200,22 203,24 204,24 207,26 207,26 206,28 206,28 206,28 209,30 210,31 210,31 210,31 211,32 212,32 215,35 215,36 213,35 212,35 212,35 213,36 213,36 213,36 214,37 214,37 217,40 217,40 217,40 218,41 219,41 219,41 220,43 220,43 219,43 219,44 221,46 219,47 219,47 219,47 218,47 219,47 219,48 219,48 220,48 220,48 224,52 225,52 235,47 241,53 241,53 235,54 231,55 230,55 229,55 223,55 219,55 218,55 215,55 213,55 212,55 211,55 209,55 208,55 205,55 205,57 205,65 205,66 204,68 204,68 204,70 204,73 204,75 204,78 204,78 204,80 204,81 204,81 203,83 203,83 204,84 204,87 205,88 205,89 206,90 206,91 207,93 207,93 207,98 207,98 207,98 203,99 203,100 205,101 205,101 205,102 205,103 205,104 204,104 204,105 204,105 204,105 203,105 203,105 203,106 202,107 202,107 201,107 201,109 202,110 202,110 203,110 203,110 204,110 205,115 208,116 217,117 217,117 217,117 216,120 216,120 213,119 212,119 212,121 211,122 211,122 210,123 209,123 205,124 204,125 202,125 205,140 206,144 207,150 209,162 210,163 210,165 211,168 209,168 201,169 193,170 173,172 167,173 159,173 196,197 201,200 211,207 214,208 215,209 218,210 222,212 223,212 223,212 226,214 233,217 233,216 234,216 234,216 234,216 235,216 235,216 241,218 242,218 243,218 243,217 244,217 245,216 246,216 248,216 248,216 250,216 251,216 255,216 257,216 259,216 260,216 262,216 262,217 263,217 264,216 264,216 264,216 264,215 265,215 265,215 266,215 266,214 266,214 266,214 267,214 267,213 267,213 268,213 268,215 268,216 268,216 269,215 270,215 270,215 272,215 274,215 275,214 276,214 277,213 278,212 279,211 280,211 281,211 281,211 281,211 282,211 283,211 284,211 284,211 285,211 287,211 287,211 287,211 288,210 289,210 289,210 290,209 290,209 291,209 291,209 292,208 294,208 295,208 297,207 298,207 299,207 300,207 301,207 302,207 303,207 304,207 304,207 305,207 305,207 306,207 306,207 307,206 308,206 309,206 309,205 310,205 310,205 311,205 311,204 312,204 312,204 313,204 314,203 315,203 316,204 318,204 319,204 320,204 320,204 322,203 323,203 323,203 324,204 325,204 325,204 327,203 328,203 328,203 329,202 329,202 329,201 330,201 330,200 331,199 332,199 332,199 334,199 336,198 338,200 338,200 338,201 339,202 339,202 341,208 340,208 340,209 340,209 343,210 343,210 345,215 345,215 345,215 345,215 351,214 352,216 352,217 353,218 354,221 356,224 356,225 355,225 355,225 354,226 354,226 353,226 352,226 352,226 350,227 350,228 350,229 350,231 350,232 350,234 350,235 350,236 350,236 351,236 352,235 355,235 358,235 359,235 362,234 363,234 364,234 366,233 367,233 367,234 370,234 370,234 371,235 372,235 376,238 376,238 377,238 378,238 378,238 380,237 381,236 381,236 390,236 390,236 391,235 391,235 393,234 397,233 398,234 398,234 399,234 399,234 399,234 404,234 410,234 410,234 411,233 412,234 414,235 415,235 417,236 420,236 420,237 420,236 423,236 425,238 425,238 425,239 425,239 425,239 425,240 425,240 425,242 425,242 425,243 426,243 426,243 426,243 424,246 424,246 425,248 425,249 435,249 441,250 441,250 444,251 451,251 455,252 456,252 457,252 458,252 458,252 459,252 460,251 462,250 463,250 466,249 467,250 467,250 470,249 473,249 474,249 475,249 475,248 476,248 476,249 477,249 478,249 479,249 479,251 479,251 479,252 493,257 494,258 494,259 497,262 496,262 494,262 494,262 494,262 494,263 495,267 495,267 494,267 494,267 494,268 493,269 496,283 496,286 497,287 500,295 500,296 497,301 493,309 492,309 487,314 483,317 483,317 482,318 482,319 482,319 481,320 481,320 479,322 472,331 469,336 465,341 455,350 455,351 455,351 452,354 452,354 452,355 451,356 451,356 451,357 448,358 447,359 446,359 446,360 446,360 445,363 445,364 445,364 445,364 444,365 443,367 442,367 442,367 442,368 439,371 439,372 439,373 439,373 439,373 440,374 440,374 437,376 437,376 437,376 436,377 436,377 436,377 435,379 435,380 434,383 434,384 433,385 433,386 432,388 432,388 418,398 418,398 417,397 416,397 413,398 411,399 410,399 409,400 409,400 408,401 405,402 405,402 404,403 398,409 395,413 391,418 390,418 389,418 389,418 386,420 386,420 384,420 382,420 379,419 378,419 365,418 359,415 359,415 344,420 341,421 335,423 335,423 333,424 333,424 331,424 330,425 330,425 328,425 326,425 325,425 321,426 316,427 316,427 315,428 312,426 312,426 310,425 308,425 307,424 304,423 302,422 301,422 299,421 299,421 299,421 292,419 291,419 290,419 289,418 288,418 287,417 287,416 286,417 285,418 284,419 283,420 283,420 281,422 281,422 280,422 280,422 280,422 280,422 277,422 276,422 276,422 276,422 276,422 276,422 275,422 275,422 274,422 273,422 273,422 272,421 272,421 272,421 271,421 271,421 270,422 269,422 269,421 268,421 268,421 267,421 267,421 263,422 262,422 262,422 262,422 260,419 259,418 259,418 259,418 259,418 259,418 258,417 258,417 256,417 255,417 255,417 255,417 255,417 255,414 255,414 255,414 257,412 257,412 257,412 257,411 257,411 257,410 257,410 257,409 257,409 257,409 257,409 257,409 253,408 248,407 248,407 245,407 245,407 245,405 245,403 245,401 245,401 244,396 244,395 244,395 244,395 244,395 244,395 244,394 244,394 244,392 244,391 243,381 241,381 241,381 237,383 237,383 236,384 235,385 235,385 235,385 235,386 234,387 233,388 231,390 230,391 230,392 229,392 228,393 225,394 225,394 223,394 222,394 222,394 219,395 215,397 215,397 215,397 214,397 213,397 210,398 208,398 208,398 208,398 208,397 208,396 208,396 208,395 208,393 208,393 208,393 208,392 208,392 208,391 207,386 206,385 206,384 206,384 206,383 206,382 206,382 206,380 206,380 206,380 206,380 206,379 205,378 205,378 205,374 205,374 204,368 199,370 198,370 198,370 198,370 197,371 192,374 190,375 189,375 184,378 176,381 176,381 176,381 175,382 173,382 171,384 169,385 169,385 169,385 162,388 161,388 155,382 155,381 154,380 154,380 154,380 154,380 152,378 153,377 154,376 154,375 154,374 154,373 156,371 156,371 156,370 156,369 157,368 157,368 158,366 158,366 158,365 157,362 157,361 157,361 156,359 153,360 147,361 145,361 144,361 143,362 140,362 139,362 137,362 137,362 123,366 122,366 121,367 120,367 119,370 115,370 117,374 112,375 102,377 94,374 92,375 86,376 81,379 78,381 76,382 75,382 75,382 72,379 66,372 64,370 62,368 58,364 55,358 54,357 48,352 53,351 51,349 56,348 57,349 59,346 59,344 66,342 63,338 63,335 62,334 55,325 49,326 46,328 45,328 40,325 37,323 32,320 27,314 25,310 27,298 27,296 26,295 29,293 31,291 33,290 34,289 40,287 41,285 43,283 45,284 49,284 52,282 55,280 57,280 66,273 67,274 66,273 67,273 67,272 67,272 67,270 67,270 66,270 66,269 65,269 65,269 64,270 62,269 61,269 60,268 59,267 59,267 58,266 58,266 56,268 56,268 56,268 56,268 55,269 54,269 49,273 46,275 45,273 45,273 43,272 42,272 40,270 38,268 38,268 38,268 36,267 36,266 35,265 35,264 35,264 39,261 39,261 39,261 39,260 39,260 38,259 38,258 38,258 42,256 43,255 48,247 55,235 71,213 71,213 57,214 52,215 46,182 46,181 44,168 43,160 40,145 40,142 40,142 28,149 27,149 27,149 27,149 26,150 25,151 23,152 22,153 20,154 19,154 13,158 11,159 10,159 9,159 9,159 7,159 5,159 5,158 4,158 3,158 2,157 1,157 0,157 0,157 0,157 2,156 6,153 12,150 13,149 13,149 14,149 16,148 17,147 17,146 18,146 21,144 22,142 23,141 24,140 26,140 27,140 29,140 30,139 30,137 31,136 40,130 41,129 42,128 53,121 56,121 59,120 60,119 61,117 62,116 66,113 66,112 64,111 63,110 61,109 57,107 57,106 56,106 49,101 48,100 47,100 47,101 46,102 46,103 45,103 45,104 44,104 44,104 42,103 40,102 40,102 40,101 39,101 39,101 38,101 37,101 36,100 33,98 32,97 31,96 31,96 31,94 31,94 29,92 26,89" id="4115" class="canton" fill="steelblue" stroke-width="1" stroke="white" geotype="canton" geoname="Vineuil" code_insee="4115" code_departement="41" nom_departement="Loir-et-Cher" code_region="24" nom_region="Centre-Val de Loire"/></svg>