<?xml version="1.0" encoding="utf-8"?>
<svg version="1.1" id="svgmap" xmlns="http://www.w3.org/2000/svg" xmlns:xlink="http://www.w3.org/1999/xlink" x="0px" y="0px" width="100%" height="100%" viewBox="0 0 500 280">
<polygon points="0,157 18,140 27,128 29,126 36,115 44,101 46,100 50,94 55,91 63,86 81,79 93,75 89,71 88,69 80,71 78,71 76,70 75,70 69,68 61,66 58,65 59,64 59,64 56,56 55,52 53,48 52,44 51,42 50,39 47,32 47,30 42,29 42,29 42,29 46,25 47,23 49,23 55,23 59,22 59,22 62,20 64,20 65,19 66,18 67,18 68,18 70,17 72,16 73,16 75,15 76,15 77,15 80,13 82,13 82,12 83,12 84,12 84,12 84,11 85,11 87,10 90,8 92,7 95,5 96,5 96,4 97,4 101,3 104,3 106,2 108,2 110,1 112,1 112,0 112,0 113,0 113,1 114,1 118,3 118,4 119,4 120,5 120,5 121,5 122,6 122,6 122,6 125,6 127,7 121,9 120,10 118,10 118,10 119,11 125,16 128,19 129,20 131,21 131,22 133,22 143,20 144,20 145,20 145,20 146,20 147,20 149,19 150,19 151,19 152,19 153,19 153,19 154,19 154,19 155,19 155,19 156,19 159,18 159,18 160,18 161,18 161,18 161,18 161,18 162,19 162,20 163,22 164,24 164,25 165,25 165,25 165,26 165,26 165,26 166,27 167,29 169,31 170,32 172,35 174,34 176,33 178,33 181,32 181,32 182,32 184,32 186,31 186,31 187,33 189,34 190,36 190,36 191,37 193,39 194,38 195,38 198,37 203,35 208,33 210,32 210,31 211,31 211,31 213,31 214,32 217,30 220,29 223,27 236,22 237,21 238,21 241,20 242,19 244,20 247,21 253,22 254,22 256,23 295,54 308,52 320,50 331,49 353,46 378,42 405,37 425,31 452,22 471,15 500,11 493,20 476,37 470,41 465,45 446,56 434,66 426,74 425,74 414,83 404,90 358,110 365,118 366,118 369,120 371,122 373,124 374,126 375,127 376,127 376,128 377,128 378,129 380,131 384,135 383,135 382,136 381,136 378,137 376,138 374,139 373,139 371,140 370,142 370,145 370,145 370,146 369,146 369,146 369,147 368,147 366,148 356,153 355,154 354,154 353,155 353,156 352,156 352,157 352,157 352,157 352,158 351,159 352,159 352,159 352,159 352,160 352,160 353,160 354,160 354,160 356,160 358,161 358,161 362,162 367,163 368,163 369,164 375,165 376,165 377,165 378,165 380,165 381,164 383,164 384,164 385,164 387,164 389,164 389,164 391,163 392,163 399,163 399,163 398,164 397,166 395,171 394,172 393,174 393,176 392,177 392,177 392,180 393,184 393,187 393,188 393,188 393,189 393,191 392,194 392,196 392,196 392,196 399,199 400,199 403,200 421,206 427,208 434,210 438,211 442,212 446,213 449,213 450,214 458,214 468,215 473,215 479,215 480,215 486,216 486,216 485,221 486,224 487,225 487,227 490,227 489,229 489,229 490,229 491,230 492,230 493,228 496,229 496,229 498,228 495,233 493,231 490,230 488,231 488,232 486,233 482,230 477,228 470,231 469,232 461,237 458,239 456,241 459,242 455,245 455,244 454,244 454,245 451,249 451,252 453,254 453,254 453,254 454,256 454,256 454,257 454,257 453,259 455,259 455,260 454,261 454,262 451,265 448,271 451,273 449,277 449,277 448,278 447,280 423,277 420,277 419,277 412,276 406,275 405,275 400,274 395,273 383,271 380,270 377,270 374,269 363,266 352,263 347,261 340,256 328,243 326,242 325,241 323,238 323,238 321,234 320,231 319,226 319,226 317,223 313,214 308,209 301,203 295,199 291,196 282,191 270,185 253,173 252,174 250,176 250,176 243,178 239,179 233,180 227,174 225,171 223,171 222,166 221,164 220,160 225,156 223,151 214,151 199,151 82,151 54,151 33,152 16,155 8,155 0,157" id="4413" class="canton" fill="steelblue" stroke-width="1" stroke="white" geotype="canton" geoname="Nantes-3" code_insee="4413" code_departement="44" nom_departement="Loire-Atlantique" code_region="52" nom_region="Pays de la Loire"/></svg>