<?xml version="1.0" encoding="utf-8"?>
<svg version="1.1" id="svgmap" xmlns="http://www.w3.org/2000/svg" xmlns:xlink="http://www.w3.org/1999/xlink" x="0px" y="0px" width="100%" height="100%" viewBox="0 0 500 288">
<polygon points="3,206 3,206 3,206 4,206 4,206 3,205 3,204 2,202 1,200 1,200 1,200 1,200 5,197 20,189 25,187 26,186 26,186 27,186 27,186 27,186 27,186 28,186 28,186 28,186 29,186 29,186 29,186 30,186 30,186 30,186 30,185 30,185 30,185 30,185 29,185 29,185 29,185 28,184 27,184 26,183 26,183 25,183 25,182 24,182 24,181 23,180 22,180 22,179 21,179 21,179 21,178 21,178 21,178 24,176 25,176 29,174 33,172 34,172 37,170 37,170 40,169 40,169 41,169 41,169 41,170 44,175 45,177 45,177 45,177 45,179 44,181 43,182 43,182 43,183 42,183 42,183 43,183 44,183 44,183 44,183 44,183 45,183 45,183 46,184 46,185 46,185 46,185 46,185 46,185 46,186 46,186 46,186 46,186 46,186 47,187 47,187 47,188 48,188 48,188 49,188 50,188 51,188 51,188 51,188 53,188 53,188 54,188 54,187 55,187 56,187 57,187 57,186 58,186 58,186 58,186 58,186 58,186 59,186 59,186 59,185 59,185 60,185 61,185 61,185 61,185 62,184 62,184 62,184 63,184 63,184 64,184 64,184 64,184 65,184 65,184 65,184 66,184 66,185 66,184 67,184 67,184 68,184 68,184 69,185 69,185 70,185 70,185 71,185 72,185 72,185 72,185 73,185 73,185 74,185 75,185 75,185 76,184 77,184 77,184 78,184 78,183 78,183 79,183 79,183 80,182 80,182 80,182 80,182 80,182 81,181 81,181 81,181 81,181 81,181 82,181 82,181 82,182 83,182 83,182 83,182 83,182 84,182 84,183 85,183 85,184 86,184 87,184 87,185 87,185 88,185 88,185 88,185 89,186 90,186 90,186 90,186 90,186 90,186 90,186 91,186 91,186 90,186 90,186 90,186 90,185 90,185 89,185 89,185 89,184 89,184 88,184 88,184 88,184 88,183 87,183 87,183 87,183 86,182 86,182 86,182 86,182 86,182 85,181 85,181 85,181 84,181 84,181 84,181 84,180 83,179 83,178 82,177 82,177 82,177 82,177 82,177 82,177 82,177 82,177 81,177 80,176 80,176 79,176 79,176 78,175 78,175 76,173 75,173 75,173 74,172 71,170 69,169 68,169 68,168 68,168 68,168 70,167 72,166 73,165 74,165 77,163 77,163 80,162 80,162 80,161 80,159 81,158 80,158 80,158 79,157 78,157 77,157 77,156 76,156 75,156 75,155 74,155 74,154 73,154 72,153 72,149 72,149 72,148 72,147 72,146 72,145 72,145 71,145 66,142 66,142 66,142 66,140 67,138 68,135 68,135 65,134 65,134 65,134 65,134 65,133 66,131 66,130 66,130 66,129 66,129 66,129 66,129 67,130 67,130 68,130 68,130 68,130 68,129 68,129 69,129 69,128 70,128 70,128 71,127 71,127 71,127 71,127 71,127 71,127 71,127 72,126 72,126 72,126 72,126 72,126 72,125 73,125 73,125 74,124 74,124 74,124 74,124 74,123 74,123 74,123 75,122 75,122 76,121 76,120 76,120 76,120 76,120 76,120 76,120 77,119 77,119 79,114 79,114 79,113 79,113 79,113 79,113 79,113 79,113 80,111 80,110 80,110 81,110 81,110 81,110 82,110 82,110 82,110 83,110 83,110 85,105 86,105 86,105 86,105 87,105 92,105 93,105 93,105 94,105 97,104 99,104 99,104 100,105 100,105 102,104 103,105 104,104 104,104 104,104 105,104 105,104 106,104 106,104 106,104 107,104 107,104 107,104 107,104 107,105 107,105 107,105 107,105 107,106 108,106 108,106 110,106 110,106 111,106 111,107 111,107 111,107 111,107 111,107 112,107 112,107 112,107 113,107 113,105 113,105 113,104 113,104 113,103 113,103 113,103 113,103 114,102 115,102 115,102 116,102 116,102 118,102 118,102 120,102 123,101 123,101 125,101 128,101 129,101 132,101 133,101 136,101 140,100 141,100 141,100 142,100 143,101 144,101 145,101 145,101 146,101 147,101 149,101 151,101 152,101 152,101 153,101 153,101 153,101 153,99 153,99 154,99 154,99 154,99 154,99 156,98 156,98 155,98 150,93 150,93 148,93 148,93 148,93 147,93 147,93 147,93 147,93 148,92 148,92 148,92 148,92 148,92 148,91 148,91 147,91 147,90 147,90 146,89 146,89 146,89 146,89 145,88 145,88 145,88 145,88 144,87 144,87 144,87 145,87 145,87 145,87 144,87 144,87 142,79 142,79 142,79 142,79 144,75 147,71 150,65 156,56 160,48 160,47 160,47 169,54 172,57 188,69 198,77 199,79 200,78 204,80 204,80 207,77 217,83 218,82 219,82 219,82 219,81 219,81 219,81 219,81 219,81 220,81 220,80 220,80 220,80 221,80 221,80 221,80 221,79 221,78 221,78 221,77 221,77 221,76 221,76 221,75 221,75 221,74 221,74 219,73 219,73 219,73 219,72 220,72 220,72 221,70 223,69 223,69 223,69 223,69 223,68 223,68 222,67 222,66 222,66 222,66 222,65 222,65 222,65 223,64 223,64 223,64 223,63 222,63 222,63 222,63 223,62 223,62 224,61 224,61 225,60 225,60 225,60 225,60 226,61 226,61 227,61 227,60 227,60 227,60 228,60 228,60 228,60 229,59 229,59 229,59 229,59 231,59 232,59 232,59 233,59 233,59 233,59 233,59 232,56 232,56 232,56 232,56 243,62 244,62 245,63 245,63 246,63 246,64 247,64 247,64 250,68 250,69 251,69 252,70 252,70 253,71 253,71 253,71 253,71 253,71 253,71 254,71 254,72 255,72 255,72 256,72 256,72 263,77 263,77 263,77 267,75 268,74 268,74 271,70 272,69 272,69 274,67 274,67 274,67 274,67 274,67 274,66 274,65 274,64 275,63 275,63 275,62 275,62 275,62 275,62 275,61 275,61 275,61 275,61 275,61 276,61 276,61 276,61 276,61 276,61 277,61 277,61 278,60 279,60 280,60 280,60 280,59 280,59 279,59 279,59 279,59 279,59 279,59 279,59 278,58 278,58 278,58 278,58 278,58 278,58 279,57 280,57 280,57 280,57 282,56 283,55 283,55 284,54 284,54 284,54 285,53 284,51 282,48 282,47 283,47 284,47 284,47 284,47 284,47 285,46 286,45 287,45 287,44 287,44 287,44 287,43 287,43 286,42 286,41 286,41 286,41 286,41 286,40 286,40 286,40 287,40 287,39 287,39 287,39 287,38 287,38 287,38 286,37 286,37 285,37 284,36 284,36 283,35 282,35 281,35 280,34 280,34 280,34 280,33 280,33 281,33 283,32 284,32 284,32 284,31 285,31 285,30 286,29 286,29 286,29 286,28 286,27 286,27 286,26 285,26 285,25 285,25 285,23 285,23 285,23 285,22 286,21 286,21 286,20 286,19 287,19 287,18 287,18 289,17 291,16 292,15 293,15 294,15 295,15 296,15 298,15 299,15 299,15 300,15 300,15 300,12 299,7 299,6 299,6 298,5 298,5 298,4 298,4 299,2 299,2 303,1 304,0 309,0 317,0 327,0 331,0 332,1 334,2 335,3 335,4 336,7 337,9 343,15 344,16 347,19 347,21 348,21 350,22 352,25 354,27 362,35 371,36 386,38 385,39 381,43 371,51 383,61 394,66 395,66 401,65 419,63 421,63 422,64 426,65 431,66 434,67 434,67 436,68 437,70 437,71 435,74 435,74 434,75 429,78 427,80 425,84 425,85 424,87 423,90 424,94 423,95 422,95 421,96 414,98 404,101 404,101 402,101 397,103 391,106 386,109 384,109 382,111 381,113 381,114 385,116 385,117 389,117 394,117 397,117 397,117 403,118 406,119 407,120 408,120 429,126 429,126 441,130 445,131 446,131 446,131 446,130 446,130 451,132 460,134 461,135 463,135 465,135 468,136 469,136 469,136 479,138 481,138 484,139 484,139 484,139 484,140 485,141 485,143 485,143 485,143 485,143 485,143 486,147 488,153 489,156 489,158 489,159 489,159 489,159 493,160 497,161 497,162 498,162 498,162 498,162 498,163 498,163 498,163 498,164 499,165 499,165 499,165 500,167 500,168 500,169 500,170 500,171 500,172 500,172 499,177 499,178 499,179 498,180 498,181 498,182 498,183 497,184 497,184 497,185 497,185 497,186 497,187 497,187 496,187 496,187 495,187 495,187 495,188 496,188 497,188 497,189 497,189 497,189 497,189 497,190 497,190 497,190 497,190 497,191 497,191 497,191 497,191 497,192 497,192 498,192 498,192 498,193 498,193 498,193 498,193 497,193 497,193 497,193 497,194 497,194 496,195 496,196 496,196 496,196 496,196 495,196 495,196 494,197 494,197 494,197 494,197 494,197 494,197 494,197 495,198 495,198 496,198 498,198 498,198 498,199 499,199 499,199 499,199 499,199 499,200 498,200 498,201 497,203 497,203 497,203 496,204 495,204 495,204 495,204 493,204 492,204 492,204 491,203 490,203 486,203 486,202 485,202 485,202 485,203 485,204 485,205 485,205 485,205 485,206 485,206 485,206 486,207 486,207 485,207 485,207 485,207 485,209 485,217 485,222 485,224 485,229 485,231 485,235 485,240 485,244 485,244 465,238 465,238 465,238 459,236 457,236 440,231 439,231 427,228 425,228 410,226 410,226 410,226 408,226 408,226 399,225 398,225 380,225 377,226 375,226 367,226 360,226 359,226 350,225 349,225 345,225 334,225 325,224 322,224 311,224 293,223 293,223 293,222 293,222 290,222 279,223 274,223 268,224 264,224 237,229 236,229 200,238 200,238 191,240 190,241 180,244 172,247 170,248 168,249 163,251 162,251 157,254 155,254 144,259 144,259 144,259 143,258 142,258 142,257 141,257 141,256 140,256 140,255 139,255 139,255 139,255 139,255 140,257 139,257 139,257 138,256 138,255 138,255 137,255 137,254 137,254 137,254 137,254 137,254 137,253 137,253 138,253 138,253 137,253 137,253 137,252 137,252 137,252 137,253 137,253 137,253 136,253 136,253 136,253 137,252 137,252 137,252 137,252 137,252 137,252 137,252 137,252 137,252 137,251 137,251 137,251 137,251 136,251 136,251 136,251 136,252 136,252 136,252 135,250 134,250 133,248 132,245 132,244 131,242 131,242 131,241 130,241 130,241 129,240 127,239 126,238 123,237 122,237 122,237 122,237 122,237 122,237 122,238 122,238 123,238 122,239 123,239 123,240 126,241 126,241 126,242 126,243 126,244 125,245 125,245 125,246 125,246 125,247 124,247 124,248 123,248 123,248 123,248 123,248 123,249 124,249 124,249 124,249 125,250 125,250 125,250 125,250 125,251 125,251 124,252 124,252 123,252 123,253 122,253 122,254 120,254 119,255 119,255 119,255 119,256 119,256 119,256 119,256 119,256 118,256 118,257 118,257 118,257 118,257 118,257 118,257 118,257 118,257 118,258 117,258 117,258 117,258 117,258 117,258 117,258 117,258 117,258 117,258 117,258 117,258 117,258 116,258 116,258 117,259 117,259 118,259 118,260 118,260 118,260 120,262 121,263 124,266 124,266 124,267 124,267 124,267 124,267 122,268 123,268 123,268 123,268 123,268 122,268 123,269 122,269 121,269 121,270 120,270 119,271 118,271 117,271 117,272 117,272 117,272 117,272 116,272 116,272 116,272 116,272 116,272 116,272 116,272 116,272 116,272 116,272 116,272 116,272 116,272 116,272 116,272 116,272 116,272 116,272 116,272 115,272 115,272 115,273 115,273 115,273 115,273 115,273 115,273 115,273 115,273 115,273 115,273 115,273 115,273 115,273 115,273 115,273 115,273 115,273 115,273 115,273 115,273 115,273 115,273 115,273 114,273 114,273 114,273 114,273 114,273 114,273 114,273 114,273 113,273 111,274 111,274 111,274 111,274 111,274 111,274 111,274 111,274 111,274 112,274 112,274 111,274 112,274 112,274 112,275 112,275 112,275 112,275 111,275 111,275 111,275 111,275 111,275 111,275 111,275 111,275 111,274 111,274 111,275 111,275 109,276 102,280 99,282 99,282 99,282 99,282 99,282 98,283 97,284 94,285 94,285 94,285 94,285 94,285 94,285 94,285 93,285 93,285 93,285 93,285 92,285 92,285 92,285 92,285 92,285 91,285 88,279 88,279 87,279 87,278 86,278 86,278 85,277 85,277 84,277 83,277 82,277 79,277 78,277 78,279 78,280 77,282 77,283 77,282 77,282 76,282 76,282 75,282 73,282 73,283 72,283 71,283 71,282 69,282 69,283 69,283 68,283 65,283 65,284 62,283 60,283 59,283 58,283 57,283 56,284 56,286 56,287 55,288 55,288 55,288 54,288 54,288 54,288 54,288 54,288 54,288 53,288 53,288 52,288 50,288 49,287 48,287 46,287 46,287 46,287 45,287 44,287 44,287 43,287 43,287 42,286 41,286 40,286 38,285 37,284 36,284 36,284 35,284 35,284 34,283 33,283 32,283 31,283 31,283 29,283 28,283 27,283 26,283 26,283 26,283 26,284 26,284 25,284 21,284 21,283 21,283 17,283 15,283 13,282 12,282 11,282 10,282 9,282 8,282 7,281 7,281 6,281 5,281 4,281 4,281 3,281 3,281 2,280 1,280 0,280 0,280 0,279 0,279 0,279 0,278 0,278 1,277 1,277 2,277 3,276 4,275 4,275 4,274 4,274 4,273 4,272 4,271 4,270 5,269 5,268 5,267 5,266 5,266 5,265 5,265 5,265 5,265 5,264 6,264 6,264 6,263 6,263 7,263 7,263 8,263 8,263 8,263 8,264 8,264 9,264 9,264 9,264 10,264 11,264 13,264 14,264 17,264 18,264 18,264 19,264 22,264 22,264 22,263 22,263 22,263 22,262 22,262 23,262 23,261 23,260 23,259 23,259 23,258 21,255 21,255 21,255 21,254 21,254 21,254 21,254 22,255 22,255 22,255 24,256 26,257 28,258 29,258 30,258 32,259 33,259 33,259 34,259 35,259 36,259 37,259 43,261 43,261 44,262 45,262 47,262 49,260 51,261 52,261 61,262 63,262 64,262 64,262 65,262 65,262 65,262 66,262 66,262 66,262 67,262 67,262 68,262 68,262 68,262 69,262 69,262 69,262 70,262 72,261 73,261 74,261 75,261 75,260 76,260 76,260 76,260 77,260 77,260 78,260 78,259 79,259 79,258 80,258 81,257 81,257 81,256 82,256 82,256 82,255 82,254 83,252 83,251 84,250 84,249 84,248 85,247 86,245 86,244 86,244 81,247 81,248 71,253 69,255 69,255 64,258 64,258 63,258 61,260 60,260 61,260 60,259 60,259 60,259 60,259 60,259 59,259 59,258 58,258 58,258 58,258 58,258 58,258 57,257 57,257 57,257 56,257 56,257 55,256 54,256 54,256 53,256 53,256 53,256 52,256 48,254 47,254 47,254 47,254 47,254 47,253 47,253 48,253 48,252 48,252 47,251 47,251 46,250 46,250 46,250 46,249 46,248 46,248 46,248 46,247 46,247 46,247 46,247 46,247 46,246 46,246 47,246 47,246 47,246 46,245 46,245 45,245 44,245 44,245 41,245 41,245 40,245 40,245 40,245 39,245 37,243 36,242 36,242 36,242 35,242 34,241 33,240 33,240 32,240 32,240 32,240 31,240 31,240 30,240 30,240 30,240 30,240 30,240 29,240 29,239 29,239 30,239 30,239 30,238 30,238 30,238 30,238 30,238 30,238 29,238 27,238 27,238 26,238 26,238 26,238 25,238 25,237 25,237 25,237 25,237 25,237 26,236 26,235 26,235 26,235 26,234 26,234 26,234 26,234 26,234 26,234 26,234 26,234 25,234 25,234 24,234 24,234 24,234 24,234 23,233 23,233 23,233 22,232 22,231 21,231 21,231 21,231 21,231 20,231 20,231 19,232 19,232 18,232 18,232 18,232 18,232 18,232 18,232 17,232 17,231 17,231 16,231 16,231 15,230 15,230 15,230 15,230 15,230 15,230 15,230 15,229 15,229 15,228 15,228 14,227 14,227 14,227 14,227 13,227 13,227 13,226 13,226 13,226 13,225 13,225 12,224 11,223 11,222 11,221 10,221 10,220 9,220 9,220 9,219 8,219 8,219 10,217 10,216 11,216 11,216 11,216 11,216 11,216 11,216 9,216 9,216 8,216 8,216 7,216 7,216 7,215 6,216 6,216 6,215 5,215 5,215 5,215 5,215 6,214 6,214 6,214 3,214 3,214 4,211 4,210 4,210 4,209 4,209 4,208 3,207 3,206" id="4427" class="canton" fill="steelblue" stroke-width="1" stroke="white" geotype="canton" geoname="Saint-Nazaire-2" code_insee="4427" code_departement="44" nom_departement="Loire-Atlantique" code_region="52" nom_region="Pays de la Loire"/></svg>