<?xml version="1.0" encoding="utf-8"?>
<svg version="1.1" id="svgmap" xmlns="http://www.w3.org/2000/svg" xmlns:xlink="http://www.w3.org/1999/xlink" x="0px" y="0px" width="100%" height="100%" viewBox="0 0 500 281">
<polygon points="223,11 223,11 223,11 224,11 224,11 224,11 229,10 230,10 230,10 231,10 232,10 232,10 234,10 234,10 234,10 234,10 235,10 235,10 236,10 236,10 236,11 237,11 238,11 238,11 240,11 240,12 240,12 241,12 243,11 243,10 244,10 244,10 245,10 245,10 245,10 246,10 246,9 249,9 250,9 250,9 252,9 252,9 253,8 253,8 254,8 256,8 256,8 256,8 257,8 257,8 257,8 257,8 257,8 257,8 259,7 259,7 260,7 262,6 262,6 262,8 262,9 262,10 262,10 263,10 263,11 263,11 263,11 263,12 263,12 263,12 263,12 263,12 263,12 264,13 264,14 264,14 263,15 263,16 263,16 263,17 263,17 263,17 263,17 263,17 263,17 263,19 263,19 263,20 263,20 263,20 263,21 263,21 263,22 263,22 264,24 266,25 266,25 266,25 266,25 266,25 267,24 267,24 267,24 267,24 267,24 267,24 268,24 268,24 268,24 268,24 268,24 268,24 269,24 269,24 269,24 269,23 269,23 270,23 270,24 270,24 270,24 271,24 271,24 271,24 272,25 272,25 272,25 272,25 273,26 273,26 273,26 273,26 273,25 273,25 273,25 273,25 274,24 274,24 274,23 274,23 275,23 276,23 276,23 276,23 277,23 277,24 277,24 277,24 277,24 277,25 276,25 276,26 276,26 277,26 277,27 278,27 278,27 278,27 279,27 279,28 280,28 280,28 280,28 280,28 281,28 281,28 282,28 282,28 282,28 282,28 283,28 283,28 283,28 283,28 283,27 283,27 283,27 282,27 282,27 283,27 283,27 283,25 283,25 284,24 284,24 284,24 284,23 284,21 284,21 284,21 284,20 284,20 284,20 284,20 284,20 285,20 285,19 285,19 285,19 285,19 286,19 287,18 288,17 288,17 288,18 288,18 288,18 288,18 288,19 289,19 289,19 290,20 290,20 291,20 291,20 291,20 291,21 291,21 291,21 291,21 292,21 292,22 292,22 292,22 292,22 292,22 293,22 293,22 293,22 294,22 294,22 295,22 295,23 297,23 297,23 298,23 298,23 299,23 300,23 300,23 301,24 303,24 304,24 305,24 305,24 305,24 306,24 306,24 307,24 307,24 308,24 308,24 309,24 309,24 309,24 311,24 311,24 312,24 312,24 313,24 315,24 316,24 317,24 318,24 318,24 318,24 318,24 319,24 319,23 319,23 319,23 320,23 320,22 320,22 320,22 320,22 321,21 321,21 321,21 321,21 321,21 321,21 321,21 321,21 321,21 321,21 322,20 322,20 322,19 323,19 324,17 325,15 326,15 326,15 326,15 326,15 326,14 326,14 326,14 326,14 326,14 327,13 327,13 326,13 326,12 326,11 326,11 327,10 327,10 327,10 328,10 328,10 328,9 328,9 327,9 327,8 327,8 327,7 327,7 326,7 327,7 326,7 326,7 326,7 327,6 327,6 327,6 328,5 328,5 328,5 329,4 329,4 329,4 329,4 329,4 329,3 329,3 329,3 329,3 329,3 330,3 330,3 330,3 330,3 330,3 331,3 332,3 332,3 332,3 332,3 332,3 332,2 333,2 333,2 333,2 333,2 333,2 334,1 334,1 335,0 335,0 335,0 335,0 336,0 336,0 336,0 336,0 336,0 336,0 336,1 336,1 336,1 336,1 337,1 337,1 338,1 338,1 338,1 338,1 338,1 338,1 338,1 338,2 338,2 339,2 339,2 339,2 339,2 339,2 340,2 340,2 340,2 340,3 341,3 341,3 341,3 341,3 342,3 342,3 342,3 342,3 342,3 342,3 342,3 343,4 343,4 344,4 344,4 344,4 343,4 343,4 344,4 344,4 344,4 344,5 344,5 344,5 344,5 344,5 344,5 344,5 345,5 345,5 345,5 345,6 345,6 345,6 345,6 345,6 345,7 345,7 345,7 345,7 345,7 345,7 345,7 345,7 345,8 345,8 345,8 346,8 346,8 346,8 346,8 346,9 346,9 346,9 345,9 345,9 345,9 346,9 346,9 346,10 347,10 347,10 347,10 347,10 347,10 348,11 348,11 348,11 348,11 348,11 348,12 348,12 349,12 349,12 349,12 349,12 349,12 349,12 349,13 349,13 349,13 349,13 349,14 349,14 350,14 350,15 350,15 351,16 351,16 351,16 352,17 352,17 353,18 353,18 353,18 354,18 354,18 354,18 355,18 355,19 355,19 355,19 356,20 356,20 356,20 356,20 356,20 356,20 357,21 357,22 357,22 357,23 357,23 358,23 358,23 359,24 359,24 359,24 360,24 360,24 360,24 360,24 361,24 361,25 361,25 361,25 361,25 361,25 361,25 361,25 361,25 361,25 362,26 362,26 362,26 362,26 362,27 362,27 362,27 362,27 363,27 363,27 363,27 363,27 363,27 364,27 364,27 364,27 364,27 365,27 365,27 365,27 366,28 366,28 366,28 366,28 366,28 367,28 367,28 367,28 367,28 367,28 368,29 368,29 368,29 368,29 368,29 368,29 368,29 368,29 369,29 369,29 369,29 369,29 369,29 369,29 369,29 370,29 370,29 370,29 370,29 370,29 370,29 370,30 370,30 371,30 371,30 371,30 371,30 371,30 371,30 371,30 372,30 372,30 373,31 373,31 374,31 374,31 374,31 374,31 374,31 375,31 375,31 375,31 375,31 375,31 375,32 375,32 375,32 375,32 375,32 375,33 375,33 375,33 375,34 375,34 374,34 374,34 374,34 374,34 374,34 374,35 374,35 374,35 374,35 374,35 373,35 373,36 373,36 373,36 373,36 372,37 372,38 372,38 372,38 371,38 371,38 371,38 371,39 371,39 371,39 371,39 371,40 371,40 370,40 370,40 370,41 370,41 370,42 370,42 370,43 370,43 370,43 370,43 370,44 370,44 370,45 370,45 370,45 370,46 370,46 370,46 370,46 370,47 370,47 370,47 368,48 368,48 368,48 368,48 368,49 368,49 368,49 369,49 370,50 370,50 371,51 371,51 371,51 372,51 373,52 373,52 373,53 373,53 373,53 373,53 374,54 374,54 374,54 375,54 375,54 375,54 375,55 375,55 375,55 377,55 378,55 378,55 379,55 380,55 380,55 381,56 382,56 383,56 383,56 384,56 384,56 384,56 385,56 385,56 385,56 385,57 386,57 386,57 386,57 387,57 387,58 387,58 387,58 387,58 388,58 388,58 389,59 389,59 390,59 391,60 391,60 391,60 391,60 391,60 391,60 391,60 391,60 392,59 392,59 392,59 392,59 392,58 392,58 392,58 392,58 392,57 392,57 393,57 393,56 393,56 393,55 393,55 393,55 393,55 394,54 394,54 394,53 394,53 394,53 394,53 395,52 395,52 396,51 396,51 396,50 396,49 396,49 396,49 396,49 396,49 396,49 396,49 397,48 397,48 397,49 397,49 397,49 398,50 398,50 398,50 398,51 398,51 399,51 399,51 399,51 399,51 399,51 399,51 400,52 400,52 400,52 400,53 400,53 400,53 401,53 401,53 402,54 402,54 402,54 402,54 402,54 402,54 402,55 403,55 403,55 403,56 403,56 403,56 404,56 404,56 404,56 404,56 405,56 405,56 406,56 407,56 407,56 408,56 409,56 410,56 410,56 411,57 412,57 412,57 412,58 412,58 411,58 411,58 411,59 410,59 410,59 410,59 410,59 410,59 410,59 408,60 408,60 408,60 408,60 407,61 407,61 406,61 404,62 404,62 405,64 405,64 406,64 406,64 406,64 406,64 407,64 407,64 407,64 407,64 407,63 408,63 408,63 408,63 409,62 409,62 409,62 409,62 412,62 412,62 413,62 413,63 413,62 413,62 413,62 414,62 414,61 414,61 415,60 415,60 415,60 416,61 419,63 422,64 422,65 423,65 423,65 423,65 423,65 423,66 424,66 424,67 424,67 426,68 426,68 427,68 428,68 429,68 429,69 430,69 430,69 430,69 430,69 430,69 431,69 431,69 431,70 431,70 431,70 434,71 434,71 435,71 435,71 436,71 436,71 438,71 438,71 438,71 438,70 439,70 439,70 439,70 439,70 440,69 440,69 440,69 440,71 441,71 441,71 441,72 442,72 442,72 442,72 442,72 443,72 443,72 443,73 443,73 443,73 443,73 443,73 443,73 443,73 444,73 444,73 444,73 445,73 445,72 446,72 446,72 446,72 447,71 447,71 447,71 448,71 448,71 449,71 449,71 449,71 449,71 449,71 449,71 449,71 449,71 450,71 452,70 452,70 453,70 453,70 453,70 454,70 456,70 456,69 456,69 456,69 457,69 458,69 458,69 459,68 459,68 459,68 460,67 461,67 461,67 461,67 462,67 462,66 462,66 462,66 462,66 463,65 463,65 463,65 464,65 464,65 465,65 465,64 465,64 466,64 466,64 467,63 468,63 468,63 468,63 469,63 469,63 469,62 469,62 470,62 470,62 471,62 471,62 471,62 472,62 472,61 473,62 473,61 473,61 474,61 474,61 475,61 475,61 475,61 476,61 476,62 477,62 477,62 477,62 477,62 478,62 478,62 478,62 479,62 481,62 481,62 481,62 482,62 482,62 483,61 483,61 484,61 484,61 484,61 484,61 484,61 485,61 486,60 486,59 487,59 487,58 487,58 488,58 488,58 488,58 489,57 489,57 489,57 489,57 489,57 490,57 490,57 491,57 491,57 491,57 491,57 491,57 492,57 492,57 492,58 492,58 492,60 492,60 493,61 493,62 493,63 493,63 493,63 492,64 492,64 492,65 491,66 491,66 491,66 491,66 491,67 491,67 492,68 492,68 492,68 492,69 492,69 493,70 493,70 493,70 493,70 493,71 493,71 493,72 492,72 492,73 492,73 492,74 492,74 492,74 492,74 492,74 492,74 493,75 493,76 493,77 494,78 494,79 495,80 495,81 495,81 497,85 497,85 498,86 498,86 498,86 499,87 499,87 500,87 500,87 499,88 499,88 498,88 498,88 498,89 497,90 497,91 497,91 496,92 496,92 495,93 495,93 495,93 495,93 494,93 494,93 494,93 493,92 493,92 493,92 493,92 493,92 492,92 492,92 492,92 492,92 492,92 491,93 490,93 490,93 490,93 490,93 490,93 489,93 489,94 489,94 489,94 489,94 488,94 488,94 488,94 487,94 487,94 487,94 487,94 487,94 486,94 486,94 486,94 485,95 485,95 485,95 485,95 484,95 484,95 483,96 483,96 483,96 483,96 482,96 481,96 481,96 481,96 480,97 480,97 480,97 479,97 479,97 479,97 479,97 479,97 477,97 477,98 477,98 477,98 476,98 475,99 475,99 474,99 474,99 474,99 472,99 472,99 472,99 471,99 470,99 470,99 470,100 469,100 468,100 468,100 468,100 467,100 466,101 465,101 465,101 465,101 465,101 465,101 465,101 464,101 464,101 464,101 463,101 463,101 462,101 462,101 462,101 461,102 461,102 461,102 461,102 461,102 461,102 461,102 460,102 460,102 460,102 459,102 459,102 459,103 457,103 457,103 457,103 457,103 455,104 455,104 455,104 454,105 454,105 453,106 453,106 453,106 452,106 452,107 452,107 452,107 451,108 451,108 451,109 451,109 451,110 451,110 450,111 450,112 450,112 450,112 450,112 450,112 446,110 446,110 446,110 444,109 442,108 441,108 441,108 441,108 441,108 441,108 440,108 440,108 440,108 440,108 440,108 441,109 441,109 441,109 440,109 440,109 440,109 440,110 440,110 439,110 439,110 438,111 438,111 438,111 438,111 438,111 438,111 438,111 437,111 436,111 436,111 434,112 434,112 432,113 432,113 432,113 432,113 432,114 432,114 432,114 432,114 432,114 432,115 432,115 432,115 431,115 431,115 431,115 431,116 430,116 430,117 430,117 430,117 430,117 430,118 430,118 430,119 430,119 429,119 429,119 429,120 428,120 428,120 428,121 428,121 428,122 428,122 428,122 428,122 428,122 428,122 428,122 428,122 428,122 428,122 428,122 428,122 428,123 428,123 428,123 428,123 428,123 428,124 427,124 427,124 426,124 426,124 426,124 426,124 426,124 426,124 426,124 426,124 426,124 425,125 424,126 424,126 424,126 424,126 423,127 423,127 423,127 423,128 423,128 423,128 423,128 423,128 423,128 423,128 423,128 423,129 423,129 423,129 423,129 423,130 422,130 422,131 422,131 422,131 422,131 422,132 422,132 422,132 422,132 422,132 422,132 422,132 422,132 421,133 421,133 421,133 421,134 421,134 421,134 421,134 419,136 419,136 419,136 419,136 419,136 418,136 418,136 418,136 418,136 418,136 418,136 418,136 418,136 418,136 418,136 418,136 418,136 418,137 418,137 418,137 418,137 418,137 418,137 417,137 417,137 417,138 417,138 417,138 417,138 416,140 416,141 416,141 415,141 415,141 415,141 415,141 415,142 415,142 415,142 415,142 415,142 415,142 415,142 415,142 415,142 415,142 415,142 415,143 415,143 415,143 415,143 414,143 414,143 414,143 414,143 413,143 413,143 412,143 412,143 412,143 412,143 412,143 411,143 411,143 410,143 409,143 409,142 408,142 408,142 408,142 408,142 408,142 407,142 406,140 405,140 405,140 405,140 405,140 404,140 404,140 404,140 404,140 404,140 403,140 403,140 403,140 403,140 403,141 403,141 403,141 403,141 403,141 403,141 403,142 403,142 401,141 400,140 400,140 400,140 399,141 399,141 399,141 399,141 399,142 399,142 399,142 398,143 398,143 398,143 398,143 398,143 397,142 396,142 395,142 395,142 394,142 394,142 394,141 394,141 394,141 393,141 393,141 393,141 393,141 393,140 393,140 392,140 392,140 392,140 392,141 392,141 392,141 392,141 391,142 391,142 390,143 390,143 389,143 388,143 387,143 387,143 385,143 384,143 383,143 383,143 382,143 382,143 382,144 382,144 382,143 381,143 379,143 379,142 379,142 378,142 378,142 378,142 377,142 377,142 377,142 377,142 376,142 375,143 375,143 375,143 374,143 374,143 374,143 374,144 374,144 373,144 373,144 373,144 373,144 372,144 372,145 372,145 371,146 371,146 371,146 370,146 370,146 370,147 369,148 369,148 369,148 369,148 369,148 369,148 369,148 369,148 369,148 369,148 368,149 368,149 367,150 367,150 367,150 366,151 366,151 366,151 365,151 365,151 365,151 364,151 364,151 364,151 363,151 363,151 363,152 363,153 363,153 363,153 363,153 362,153 361,153 360,153 360,153 357,153 357,153 357,153 357,154 356,155 356,155 358,156 358,156 358,157 358,157 359,157 359,157 360,157 361,157 361,157 361,157 361,157 361,157 362,158 362,158 362,158 362,160 363,161 363,161 362,161 362,161 362,161 362,161 362,162 362,162 362,162 362,162 362,162 362,162 362,163 362,163 362,163 362,163 361,164 361,164 361,164 362,164 362,164 362,164 362,164 361,165 361,165 361,165 360,165 358,165 358,165 358,165 358,165 357,165 355,165 354,165 354,165 354,165 354,165 354,165 353,165 352,165 352,165 351,165 350,166 349,166 349,166 349,166 349,166 349,166 347,167 346,167 346,167 346,167 346,167 345,167 345,167 344,166 344,166 343,165 343,164 342,163 342,163 342,163 341,164 340,164 340,164 340,164 340,164 339,163 339,163 339,163 339,163 339,163 339,162 339,162 337,162 337,162 337,161 338,160 338,160 338,160 338,160 337,160 337,160 336,160 334,159 334,159 334,159 333,159 333,159 332,160 332,160 332,160 331,159 331,159 331,159 330,159 330,158 330,158 329,158 329,158 329,157 329,157 328,157 328,156 328,156 327,156 327,156 327,155 327,155 327,155 327,155 326,155 326,155 326,155 326,155 326,156 326,156 326,156 326,157 325,157 325,158 325,158 325,159 325,159 325,160 324,160 324,160 323,161 323,161 322,161 321,161 320,161 319,161 319,162 319,162 318,162 318,162 317,162 316,163 316,163 316,163 316,163 316,163 315,163 314,162 314,162 314,162 313,163 313,163 313,163 313,163 312,162 312,162 311,162 311,162 311,162 311,162 311,162 311,162 310,162 310,162 310,162 309,163 309,163 309,164 309,164 309,164 309,164 309,164 309,164 309,164 309,164 309,165 309,165 306,165 306,165 306,165 306,166 306,166 306,166 306,166 305,167 305,167 305,167 304,167 304,166 304,166 303,166 303,165 303,165 303,165 303,165 303,164 302,164 302,164 302,164 302,164 302,163 302,163 302,163 302,162 301,162 301,162 301,161 301,161 301,162 301,162 301,162 300,162 300,162 299,163 299,163 298,163 298,163 297,163 297,164 297,164 297,164 297,164 296,165 296,165 296,166 296,166 295,166 295,167 294,167 294,168 293,169 293,169 293,169 293,169 292,170 292,170 292,170 291,170 290,169 290,169 289,169 289,170 290,170 289,170 289,170 289,170 289,170 289,170 289,170 287,171 287,171 286,171 286,171 286,171 285,171 284,171 284,171 284,171 283,169 283,169 283,168 283,167 283,167 284,166 285,165 285,165 285,165 285,165 286,164 286,164 286,164 286,164 286,164 286,164 286,163 286,163 286,163 286,163 286,163 286,162 287,162 287,161 287,161 287,161 287,161 287,161 287,160 288,160 288,159 288,159 288,159 289,158 289,158 290,158 290,157 290,157 290,157 289,157 289,157 289,157 289,157 289,157 289,157 289,156 289,156 289,156 289,156 289,156 288,156 288,156 288,156 287,156 287,156 287,156 287,156 286,156 285,157 285,157 284,157 283,157 283,157 283,157 283,157 283,157 283,157 282,157 282,157 282,157 283,157 283,157 283,156 282,156 282,156 282,156 282,155 282,155 282,155 282,154 282,154 282,154 281,154 279,154 279,153 278,153 278,153 278,153 277,153 277,153 276,152 275,152 274,152 274,151 273,151 273,151 273,151 273,151 272,151 271,152 271,152 271,152 271,151 271,151 271,151 271,151 270,152 270,152 270,152 270,152 269,152 268,152 268,152 268,152 267,152 267,152 267,152 266,152 266,151 266,151 265,151 265,150 264,150 264,150 264,150 264,149 263,149 263,149 263,149 263,149 263,149 262,149 261,149 261,149 261,148 261,148 262,148 262,148 262,147 261,147 261,147 261,147 261,146 261,146 261,146 261,146 261,146 261,145 261,145 261,145 261,145 261,144 261,144 261,144 261,144 261,143 261,143 261,143 261,143 261,142 261,142 259,142 259,142 259,142 259,142 259,143 259,143 259,143 259,143 259,143 259,144 259,144 259,144 259,144 259,145 259,145 259,145 259,145 259,145 259,146 259,146 259,146 259,146 259,147 259,147 260,147 260,147 260,147 260,148 260,148 260,148 260,148 260,148 260,149 260,149 260,149 260,149 261,150 261,150 261,150 261,151 261,151 262,152 262,152 263,153 263,153 263,153 263,153 263,154 264,154 264,154 264,155 264,155 264,155 264,155 264,155 265,155 265,156 265,156 266,156 266,156 266,156 266,156 266,156 266,156 266,157 266,157 266,157 267,157 267,157 267,157 267,157 267,158 268,158 268,158 268,158 268,158 268,158 267,158 267,158 267,158 267,159 267,159 267,159 266,160 266,160 266,160 266,160 266,160 266,161 267,161 267,161 267,161 268,161 268,161 268,161 268,161 269,161 269,161 270,161 270,162 271,162 271,162 271,162 272,162 272,162 272,163 272,163 273,163 273,163 273,164 274,165 274,165 274,165 274,165 274,165 274,166 274,166 275,167 276,168 276,168 276,169 276,169 276,169 277,169 277,169 277,169 277,169 277,170 277,170 278,171 278,171 279,172 279,172 280,173 280,173 280,173 280,173 281,173 281,174 282,175 282,175 282,175 282,176 282,176 282,176 282,176 282,177 282,177 282,177 282,177 282,177 282,178 282,178 282,178 282,178 282,178 282,179 282,179 282,179 282,179 282,179 282,179 282,179 281,179 281,179 281,179 281,179 281,179 281,179 281,179 281,179 280,180 280,180 280,180 280,180 279,180 279,180 279,180 279,180 279,180 279,181 278,181 278,181 278,181 277,181 277,181 277,181 276,182 276,182 276,182 276,182 276,182 276,182 275,183 275,183 275,183 275,183 275,183 274,184 274,184 274,184 275,184 275,184 274,185 274,185 274,185 274,186 274,186 274,186 273,186 273,186 273,186 273,186 273,186 273,186 272,186 272,186 272,187 272,187 272,187 272,187 272,188 272,188 272,188 272,188 272,188 272,189 272,189 272,189 272,189 272,189 271,189 271,190 270,190 270,191 270,191 270,191 270,191 270,191 269,191 269,191 269,192 269,192 269,192 269,192 269,192 268,192 268,192 268,192 268,192 268,193 268,193 268,193 268,193 268,193 267,193 267,193 267,193 267,193 267,194 267,194 267,194 267,194 267,194 267,194 267,194 267,195 267,195 267,195 267,196 267,196 267,196 267,196 267,196 267,196 267,196 267,197 267,197 267,197 267,197 267,197 266,197 266,198 266,198 266,198 266,198 266,199 266,199 266,199 267,199 268,200 268,200 269,201 269,201 269,201 270,202 271,203 271,203 271,204 271,204 271,204 272,204 272,204 272,204 272,204 272,204 272,204 273,205 273,205 273,206 273,206 274,206 274,206 274,206 275,206 275,206 275,207 275,207 275,207 275,207 275,208 276,208 276,208 276,208 276,208 276,209 276,209 275,209 275,209 275,210 275,210 275,210 275,211 275,211 274,211 274,211 274,211 274,211 274,212 274,212 274,213 274,213 274,213 274,213 274,213 274,213 274,214 274,214 274,214 274,214 274,214 275,215 275,215 275,215 275,216 275,216 275,216 275,216 275,216 275,216 275,216 275,216 275,217 275,217 275,217 274,217 274,217 274,217 274,217 274,217 274,217 274,217 273,218 273,218 273,218 273,218 273,218 273,218 273,218 273,218 273,218 273,219 273,219 272,219 272,219 272,219 272,219 272,220 272,220 272,220 272,220 272,220 272,220 272,221 272,221 271,221 271,221 270,221 270,221 270,221 270,221 269,222 269,222 269,222 269,222 269,222 269,222 268,223 267,223 267,223 265,224 265,225 263,235 263,235 264,236 264,236 264,236 265,236 265,237 265,237 266,238 266,238 267,239 267,239 266,240 266,241 265,242 265,242 265,242 266,243 266,243 266,244 266,244 266,244 266,246 266,246 266,247 266,248 266,248 266,249 266,249 266,249 265,251 265,251 265,251 265,251 264,251 264,251 263,251 262,252 262,252 261,252 261,252 260,252 260,253 260,253 259,253 259,253 259,254 258,254 258,254 258,254 258,254 258,254 257,254 257,254 256,252 256,252 253,252 253,252 253,252 253,252 252,252 252,252 252,252 252,253 251,253 251,253 251,253 251,254 251,254 247,253 247,253 247,253 247,253 247,253 242,253 242,253 242,253 242,253 242,253 241,253 241,253 241,253 239,252 239,252 239,252 239,252 239,252 239,252 239,252 239,252 238,248 238,247 238,247 238,246 238,246 237,247 237,247 236,247 236,248 235,248 234,248 232,248 232,248 232,248 232,248 232,248 232,248 232,248 231,247 231,247 231,247 231,247 231,247 231,246 230,245 230,245 230,245 230,245 230,245 230,245 230,245 230,245 229,245 229,245 229,244 229,244 229,244 229,244 229,244 228,244 228,243 227,242 227,242 227,241 226,241 226,241 226,241 225,240 225,240 225,240 225,240 225,240 224,239 224,238 224,238 224,238 223,238 223,238 222,238 222,238 222,238 222,237 222,237 222,237 221,237 221,237 221,237 221,237 221,237 220,237 220,238 219,238 219,238 219,238 218,238 217,238 215,238 214,238 214,238 213,238 213,238 211,238 211,238 211,238 208,239 207,239 206,239 206,239 206,239 206,240 206,240 206,240 206,240 206,240 206,241 206,241 206,241 206,241 206,242 206,242 206,242 205,241 205,241 203,242 203,242 203,243 202,243 201,243 201,243 199,242 199,242 198,242 197,243 196,243 196,243 196,244 196,244 196,244 196,244 196,244 196,244 196,245 196,245 196,246 196,246 196,246 195,246 195,246 195,246 195,246 195,246 194,246 194,246 194,246 194,247 194,247 194,247 193,248 193,248 194,248 194,249 194,249 194,250 195,250 195,250 195,251 195,251 195,251 195,251 195,251 194,251 193,251 193,251 193,251 192,251 192,251 191,252 191,252 190,252 190,252 190,252 190,252 190,252 190,252 189,252 188,253 188,253 188,253 188,253 187,253 187,253 186,253 185,253 183,254 182,254 182,254 181,254 181,255 181,255 181,258 181,258 181,258 181,260 181,263 181,264 182,266 182,266 182,268 182,268 184,271 184,272 184,272 184,274 184,274 184,274 184,277 184,277 184,277 184,277 183,277 181,276 181,276 180,276 179,276 178,276 177,276 177,276 177,276 176,276 176,276 176,275 176,275 175,275 175,275 175,275 174,274 173,274 172,273 172,273 172,273 172,273 171,273 171,273 170,273 170,273 170,274 170,274 169,275 169,275 169,276 165,280 165,281 164,281 163,281 162,281 162,281 162,281 162,280 162,280 161,279 161,278 161,278 161,278 161,278 160,277 160,277 159,276 159,276 159,276 160,276 160,275 161,275 161,275 161,275 161,275 161,275 161,275 160,274 160,274 160,274 159,274 159,274 159,274 159,273 158,273 158,273 158,272 158,272 158,272 157,272 157,272 157,271 157,271 156,271 156,271 156,271 156,271 156,270 156,270 156,270 156,270 156,270 156,270 157,270 157,270 158,269 158,269 159,269 159,269 159,269 158,268 158,268 158,268 158,268 158,267 157,267 157,267 157,267 157,267 157,267 157,266 156,266 156,265 156,265 156,265 156,265 157,265 157,265 156,265 156,264 156,264 156,264 156,264 156,264 155,261 155,261 155,260 155,260 154,260 154,260 154,260 154,260 154,260 154,260 154,260 154,260 154,259 154,259 154,259 154,259 154,258 153,258 153,258 153,258 153,257 152,257 152,257 152,257 152,257 152,256 151,255 151,255 150,255 150,255 150,255 149,255 149,254 148,254 148,253 148,253 147,253 147,253 147,253 146,253 145,252 144,252 144,252 144,252 144,252 143,252 143,252 143,252 143,252 143,252 144,251 144,251 144,251 144,251 144,251 143,251 143,251 142,251 142,251 142,251 142,251 142,251 142,251 142,251 142,251 142,251 142,251 143,250 144,250 145,250 145,250 146,249 147,249 147,249 148,248 149,248 149,247 150,247 150,247 151,246 151,246 152,246 154,246 154,246 154,246 154,246 154,246 154,246 155,245 155,245 155,245 155,244 155,244 156,244 156,244 157,244 157,244 156,243 156,243 156,243 156,243 156,243 156,243 156,243 154,243 154,242 154,242 153,242 153,242 152,242 151,242 151,242 150,241 150,241 149,241 149,241 148,242 148,242 147,242 146,242 146,242 145,242 145,243 145,243 143,244 143,244 142,244 142,244 142,244 142,244 142,244 141,244 141,244 141,244 140,243 139,243 139,243 139,243 138,243 138,243 138,243 138,243 137,243 137,243 137,243 136,243 136,244 136,244 136,244 135,244 135,244 135,244 135,244 134,244 134,244 133,245 132,245 132,245 132,245 131,245 130,245 130,245 130,245 129,245 129,245 129,245 129,245 129,245 129,245 128,244 128,244 128,244 128,244 128,244 128,244 128,244 127,244 127,244 127,243 127,243 127,243 127,242 126,242 126,242 126,242 126,242 125,241 125,241 125,240 124,240 124,240 124,240 124,240 123,240 123,240 122,240 122,240 121,240 121,239 121,239 121,239 120,239 120,239 120,238 120,238 119,238 119,238 119,238 119,237 118,237 118,237 118,237 117,236 117,236 117,236 117,236 117,236 117,237 116,237 116,237 115,237 115,236 115,236 115,236 113,236 113,236 113,236 113,236 113,236 112,235 112,235 111,235 111,235 111,234 111,234 111,234 111,234 111,234 110,234 110,234 110,234 109,233 109,233 109,233 109,233 108,233 108,232 108,232 108,232 107,232 107,232 107,232 107,231 107,231 107,231 107,231 107,231 106,231 106,230 106,230 106,230 106,230 105,230 105,229 105,229 105,229 105,229 105,229 105,229 105,229 105,229 105,229 105,229 104,229 104,229 104,229 104,230 104,230 104,230 103,230 103,230 103,230 101,230 101,230 101,230 101,230 101,231 101,231 101,231 101,231 97,229 97,230 97,230 97,230 97,230 97,230 97,230 97,230 96,230 96,229 96,229 96,229 95,229 95,229 95,229 95,229 94,228 94,228 94,228 94,228 94,228 94,228 94,228 93,228 93,228 93,228 92,229 92,229 92,229 92,229 91,229 91,229 91,229 91,229 90,229 90,229 90,229 90,229 90,229 89,229 89,229 89,229 88,229 88,229 88,229 88,229 88,229 88,229 88,229 88,229 88,229 88,229 87,229 87,229 87,229 86,229 86,229 86,229 85,229 85,229 85,229 85,229 85,229 85,230 84,230 84,230 84,230 84,230 84,230 84,230 83,229 82,228 81,228 81,228 80,227 80,226 80,226 79,226 79,225 79,225 79,225 79,225 78,226 78,226 76,226 75,226 75,226 75,225 75,225 75,225 74,225 74,224 74,224 73,224 73,224 73,224 73,223 73,223 73,223 72,223 72,223 72,222 72,222 72,222 72,222 72,222 72,221 72,221 72,221 72,221 72,221 72,221 72,221 72,221 71,221 71,221 71,221 70,222 70,222 70,222 70,222 70,222 70,222 69,222 69,222 69,222 68,222 68,222 68,222 68,222 68,222 66,221 66,221 66,221 66,221 65,221 65,221 65,221 65,221 64,221 63,221 63,221 63,221 63,221 63,221 62,221 60,221 60,221 60,221 59,221 59,221 59,221 58,221 58,221 58,221 58,221 57,221 57,221 57,221 56,221 56,221 56,221 56,221 56,221 56,221 56,221 55,222 55,222 55,222 55,221 55,221 55,221 54,221 54,221 54,221 54,220 54,220 54,220 53,220 53,219 53,219 53,219 53,219 53,219 52,218 52,218 52,218 52,217 52,217 51,217 50,216 50,216 50,216 50,216 49,216 49,216 49,216 49,216 48,216 46,216 46,216 46,216 46,215 46,215 46,215 47,215 47,214 47,214 47,214 47,214 47,214 47,214 47,214 47,214 47,214 47,214 48,214 48,214 49,214 49,214 49,213 49,213 49,213 49,212 49,212 48,212 48,212 47,212 47,212 46,213 46,213 45,213 45,213 45,212 45,212 45,212 44,212 43,211 43,211 42,211 39,210 38,210 37,210 37,210 37,210 37,211 37,211 36,211 36,211 36,212 37,213 37,213 37,213 37,213 37,213 37,214 37,214 37,214 37,214 37,214 37,214 37,214 38,214 38,214 38,215 38,215 38,215 38,215 38,215 38,215 38,216 38,216 39,216 39,216 39,216 39,217 39,217 39,217 39,217 39,217 39,217 39,217 39,217 38,217 38,217 38,217 38,217 37,217 36,217 36,217 35,217 35,216 35,216 34,216 34,216 34,216 33,216 33,216 32,216 32,216 31,216 31,216 31,216 30,216 30,215 29,215 29,215 29,215 28,214 28,214 28,214 27,214 27,214 26,214 26,214 25,214 25,214 25,214 25,214 25,214 25,214 24,214 24,214 24,214 23,215 22,216 22,216 22,216 22,216 21,217 20,217 20,217 20,217 19,218 19,218 18,218 18,218 18,218 18,218 18,218 18,218 18,218 17,219 17,219 17,219 17,220 18,220 18,220 18,220 18,220 19,220 19,220 20,221 20,221 20,221 21,222 21,222 21,222 21,222 21,222 21,223 21,223 21,223 21,224 21,224 21,224 21,224 21,224 21,224 21,224 21,225 22,225 22,225 22,225 22,225 22,225 23,225 23,225 24,225 25,226 25,226 25,226 25,226 26,226 26,226 26,226 27,227 27,227 27,227 27,227 27,227 27,228 26,228 25,228 25,228 25,228 25,228 24,228 24,228 24,228 24,228 23,228 23,228 23,228 22,228 22,228 21,228 21,228 20,228 20,228 20,228 20,228 16,228 16,228 16,228 15,228 15,228 15,228 14,228 14,228 13,228 13,228 12,228 12,228 11,228 11,228 11,228 11,228 10,229 10,229 10,230 10,231 10,231 11,232 11,232 11,232 11,232 11,233 11,234 11,234 11,234 11,235 11,235 11,234 11,235 11,235 11,235 11,235 11,235 11,236 12,236 12,236 12,237 13,237 13,237 13,237 14,238 14,238 14,238 14,238 14,238 14,238 14,238 14,238 14,238 15,238 15,238 15,239 15,239 15,239 14,239 13,240 12,240 12,240 12,239 12,239 12,239 12,239 12,239 12,238 12,238 11,238 10,236 10,236 10,236 10,236 9,235 9,234 8,232 8,230 8,230 8,230 8,229 8,229 8,229 8,229 8,229 8,228 7,228 7,228 7,228 7,228 7,227 6,227 6,227 6,227 6,227 6,227 6,227 6,227 6,226 6,226 6,225 7,225 7,225 7,224 8,224 8,224 8,224 8,224 8,223 8,223 8,223 8,222 8,222 9,222 9,222 9,221 9,221 9,221 9,220 9,219 9,219 10,219 10,218 10,218 10,218 9,217 9,217 9,217 9,216 9,217 9,217 9,217 9,217 8,217 8,217 8,216 8,216 8,216 8,216 8,216 7,216 7,216 8,216 8,215 9,215 8,215 8,214 7,214 7,214 7,214 7,213 7,213 7,212 7,211 7,211 7,211 7,211 7,210 6,210 6,210 6,210 6,210 6,210 5,209 5,209 5,209 5,209 5,208 5,208 5,208 5,208 5,208 5,208 5,208 5,208 5,208 4,207 4,207 4,207 4,207 4,207 3,207 3,206 3,206 3,206 3,206 3,205 3,205 3,205 3,205 3,205 3,205 3,205 2,205 2,205 2,205 3,204 3,204 3,204 3,204 4,204 4,204 4,204 4,203 3,203 2,203 1,203 1,203 0,203 1,203 1,203 1,202 0,202 0,202 0,202 0,202 0,202 0,202 0,202 1,202 1,202 1,202 1,202 1,202 1,202 1,201 2,201 2,201 3,201 3,201 3,201 4,200 4,200 4,200 4,200 4,200 4,200 4,200 4,200 5,200 5,199 5,199 5,198 5,198 5,198 5,198 5,198 4,197 4,197 4,197 4,197 4,197 4,197 4,196 4,196 5,196 5,196 5,195 5,195 4,195 4,195 4,195 4,194 4,194 4,194 4,194 4,194 4,194 3,194 3,194 3,194 4,193 4,193 4,191 4,190 3,189 3,189 3,189 2,189 2,189 2,189 2,189 2,189 2,189 2,189 2,189 2,189 2,189 2,189 2,188 1,188 1,187 1,187 1,186 1,186 1,186 1,185 1,185 1,184 1,184 1,183 0,179 0,179 0,179 1,179 2,180 2,180 2,180 3,180 3,180 3,180 3,180 4,180 4,180 5,180 5,180 5,180 5,180 7,179 7,179 8,179 8,179 8,179 8,179 9,179 9,179 10,179 10,179 11,179 12,179 12,179 14,178 16,178 16,178 17,177 18,177 18,177 19,177 19,177 19,176 20,176 21,175 21,175 22,175 22,175 22,175 22,174 22,174 22,174 23,173 23,173 23,173 23,172 23,172 23,172 23,172 24,171 24,171 26,170 26,170 26,170 27,169 27,169 27,169 28,169 28,168 28,168 28,168 28,168 29,168 29,168 29,168 30,168 31,168 31,168 31,168 31,168 32,168 32,168 32,168 33,168 33,168 34,167 35,167 36,167 36,167 36,167 36,166 36,166 37,166 37,166 37,166 37,166 37,166 37,166 37,165 37,165 37,165 37,165 37,165 37,165 37,165 38,166 38,166 38,166 38,165 40,165 40,165 40,165 40,165 41,165 41,165 42,165 42,165 42,164 43,164 44,164 44,164 44,164 45,164 45,164 45,164 46,164 47,165 47,165 47,165 48,165 48,164 49,164 49,164 50,164 50,164 51,164 52,164 53,165 53,165 53,165 53,165 54,165 54,165 55,166 55,166 56,165 56,165 56,165 57,165 57,165 58,165 58,165 59,165 59,165 60,165 60,165 60,165 61,165 61,164 61,164 61,164 61,164 61,164 61,163 62,163 62,163 63,163 63,163 64,163 65,163 65,163 65,164 64,164 64,164 64,164 64,164 63,165 63,165 63,165 63,165 63,165 64,166 64,166 64,167 65,167 65,167 66,166 67,166 67,166 68,166 69,165 69,165 69,165 70,164 70,164 70,164 70,164 70,164 70,164 70,164 70,164 71,164 71,164 72,164 72,164 72,164 72,164 73,164 73,164 74,164 74,164 74,164 75,164 76,164 76,164 77,164 78,164 79,164 80,164 80,164 81,164 82,164 82,164 84,164 85,164 85,164 86,164 86,164 87,164 87,164 88,165 88,165 88,165 88,165 89,165 89,164 89,164 89,164 90,164 91,164 91,164 91,164 91,164 92,164 92,164 93,164 93,164 94,163 94,163 94,163 95,163 96,163 96,163 97,162 97,162 98,163 98,162 98,162 98,161 98,161 98,161 98,161 98,161 98,161 98,161 98,161 99,160 99,160 99,160 99,160 99,159 99,159 99,158 99,158 99,157 99,157 99,157 99,157 99,157 100,157 100,157 101,156 101,156 101,156 102,156 102,156 102,156 102,156 102,156 102,156 103,155 103,155 103,155 103,155 103,155 103,155 104,154 104,154 104,154 104,154 104,153 104,153 106,154 106,154 107,154 107,154 108,154 108,154 108,154 109,154 109,154 110,153 110,153 111,153 111,153 111,153 112,153 112,153 112,153 112,153 112,153 112,153 113,153 113,153 113,153 114,153 114,153 115,153 115,153 115,153 115,153 116,153 116,153 116,153 116,152 116,152 116,152 116,152 116,152 116,152 116,152 117,152 117,152 117,152 117,152 117,152 118,152 118,152 118,152 118,152 118,152 118,152 119,152 119,152 119,151 119,151 119,151 118,151 118,150 118,150 119,150 120,150 120,150 120,149 120,149 121,149 122,149 122,149 122,148 122,148 122,148 122,147 122,147 122,146 122,146 122,146 123,146 123,146 123,146 123,145 122,143 122,143 122,140 121,139 121,138 121,138 121,138 122,138 122,138 122,137 122,137 123,137 123,137 124,136 124,136 125,135 125,135 125,135 126,134 126,134 127,134 127,134 128,133 128,133 128,133 129,133 129,133 130,133 130,133 130,133 131,133 131,133 131,132 131,132 132,132 132,132 132,132 132,132 132,132 134,132 135,131 135,131 135,131 135,131 135,131 136,131 136,131 136,131 136,131 136,131 136,131 136,131 136,131 136,131 136,131 137,131 139,132 139,132 139,132 139,132 140,132 141,132 141,132 141,132 140,132 140,131 140,131 140,131 140,131 141,131 141,131 141,131 142,131 142,131 142,130 142,130 144,130 144,130 145,130 146,130 146,130 146,130 146,130 146,130 146,130 147,129 147,129 147,129 147,129 147,129 147,128 147,128 148,128 148,128 148,128 148,128 148,127 148,127 148,127 148,127 148,126 149,126 150,125 150,125 150,125 150,125 150,125 150,125 150,124 150,124 151,124 151,123 152,123 152,123 152,123 152,122 152,122 152,122 152,121 152,121 152,120 152,120 152,120 152,119 152,119 153,118 153,118 154,118 154,117 154,117 154,117 154,117 154,117 154,117 154,117 154,116 154,116 154,116 154,116 154,116 154,115 155,115 155,115 155,115 155,115 155,115 156,115 156,115 157,115 157,115 158,115 158,115 158,115 159,115 159,115 160,116 161,116 161,116 161,116 161,116 161,117 161,117 161,117 161,117 161,117 161,117 161,118 160,118 160,118 160,118 160,118 160,119 160,119 160,119 160,119 160,120 160,120 161,120 161,120 161,120 162,120 163,121 163,121 164,122 164,122 165,122 165,122 165,122 165,122 166,123 166,123 166,123 166,123 167,123 167,123 167,124 168,124 168,124 169,124 169,124 169,124 169,124 170,124 170,124 170,124 170,124 171,125 171,125 172,125 173,125 173,125 174,124 175,124 175,125 175,125 175,125 176,125 176,125 176,125 176,125 176,125 177,125 177,125 177,125 177,124 176,124 176,124 176,124 176,124 176,124 177,123 177,123 177,122 177,122 177,122 178,122 178,122 178,122 178,122 178,121 177,120 177,120 177,120 177,120 178,120 178,120 178,120 178,119 178,119 179,119 179,119 179,119 179,118 179,118 179,118 178,117 178,117 178,117 179,117 179,117 180,117 180,117 180,117 180,116 180,116 181,116 181,116 181,115 181,115 182,115 182,115 182,115 182,115 182,115 183,115 183,115 183,115 184,115 184,115 184,115 184,114 186,113 186,113 187,112 187,112 187,112 187,112 187,112 188,112 188,111 189,111 189,111 189,111 189,111 189,111 189,111 190,111 190,111 190,111 190,110 190,110 190,110 190,110 190,109 190,109 190,109 190,109 190,109 190,109 190,108 190,108 190,108 190,107 190,107 190,107 191,105 191,105 191,104 191,104 191,104 191,104 191,103 191,103 192,102 192,102 192,101 192,101 192,101 190,100 190,100 190,100 189,100 189,100 188,99 188,99 188,99 188,99 188,99 187,99 187,99 187,99 187,99 187,99 186,98 186,98 186,98 186,98 187,97 187,97 187,97 187,97 187,97 187,97 187,97 187,97 188,97 188,97 188,96 188,96 188,96 188,96 188,96 188,95 189,93 189,93 189,93 189,93 189,93 189,92 189,92 189,92 189,91 190,91 190,91 190,91 190,91 191,90 191,90 191,90 192,90 192,90 192,90 192,90 192,89 193,89 192,89 192,88 192,88 192,88 192,88 193,88 195,88 195,88 195,88 196,88 196,88 198,89 198,89 200,89 203,90 203,90 204,91 205,91 206,91 207,91 207,91 207,91 207,91 207,91 207,91 207,91 208,92 208,92 208,92 209,92 209,92 209,92 209,92 211,93 211,93 211,93 212,93 212,93 212,92 212,91 212,91 212,91 212,90 212,90 213,89 213,88 213,88 213,88 213,88 213,88 214,88 214,87 213,87 213,86 213,86 213,86 213,86 213,85 213,85 213,85 213,85 213,85 213,84 213,84 213,83 213,82 213,82 213,83 213,83 213,82 213,82 213,82 213,82 213,82 213,81 213,81 213,80 213,80 213,80 214,79 214,79 214,79 214,79 214,78 215,77 215,77 216,76 216,76 216,76 216,76 216,75 216,75 216,75 216,75 216,74 216,74 217,74 217,74 217,73 217,73 217,72 217,71 217,71 217,71 217,71 217,71 217,70 217,70 217,70 217,69 217,69 218,69 218,68 218,68 218,68 218,67 218,67 218,67 218,67 218,66 218,66 218,66 219,66 219,66 219,65 219,65 219,65 219,65 219,65 219,64 219,64 220,64 219,64 220,62 220,62 219,62 219,62 219,62 217,62 217,62 216,62 215,62 215,62 215,62 214,62 213,62 212,62 211,62 210,62 210,62 209,62 209,62 209,62 209,62 208,62 208,62 208,62 209,61 209,61 209,61 209,61 208,60 208,60 207,59 206,58 206,58 206,57 205,56 205,56 204,56 204,56 202,55 202,55 202,55 201,55 201,54 200,54 200,54 198,53 197,53 196,53 196,53 196,53 196,53 194,52 194,52 193,52 192,51 192,51 191,51 191,51 190,51 190,51 190,51 190,51 190,50 190,50 189,50 189,49 189,49 189,49 188,48 188,48 188,48 187,47 187,47 187,47 187,47 187,47 187,47 187,47 187,47 187,47 187,46 187,46 187,46 187,46 187,46 188,46 188,46 188,45 188,45 188,45 188,45 188,45 188,45 188,45 188,45 188,45 188,44 188,44 188,44 189,44 189,44 189,44 189,44 189,44 189,44 189,43 189,43 189,43 189,43 189,43 189,43 189,43 189,43 189,43 189,43 190,43 190,43 190,42 190,42 190,42 191,41 191,41 191,41 192,40 192,40 192,40 192,40 193,40 193,40 193,40 193,40 194,40 194,40 194,40 194,40 194,40 194,40 194,40 194,40 194,40 195,40 195,40 195,40 195,40 195,39 195,39 195,39 195,39 195,39 195,39 196,39 196,39 196,39 196,39 196,39 196,39 196,39 196,39 196,39 196,39 197,39 197,38 197,38 198,38 198,38 198,37 198,37 198,37 197,37 197,37 197,37 197,37 197,36 197,36 197,36 197,36 197,36 197,36 197,36 197,36 197,36 197,36 197,36 197,36 197,35 196,35 196,35 196,35 196,35 196,35 196,35 196,35 196,34 197,34 197,34 197,34 197,34 197,34 197,34 197,34 197,34 197,34 197,34 197,34 197,34 197,34 197,34 197,34 197,34 197,33 197,33 197,33 197,33 197,33 197,33 197,33 197,33 197,33 197,33 197,33 197,32 198,32 198,32 198,32 198,32 198,32 198,32 198,32 198,32 198,32 197,32 196,32 196,32 195,32 195,32 194,32 193,32 193,32 193,32 190,32 189,32 189,32 188,32 187,32 187,32 186,32 186,32 185,31 184,31 184,31 184,31 184,31 184,31 185,29 186,29 187,28 187,27 187,27 188,27 188,26 188,26 189,26 189,25 189,25 190,25 190,25 190,24 190,24 190,24 190,24 190,23 190,23 190,23 192,22 192,22 192,22 193,22 193,21 193,21 194,21 194,21 194,21 194,21 195,21 195,21 196,20 196,20 197,20 197,20 198,20 198,20 198,20 198,20 198,20 198,19 198,19 199,19 199,19 200,19 201,19 206,16 206,16 206,16 207,16 208,16 210,15 210,15 211,15 212,15 213,15 214,15 215,15 215,15 216,15 217,14 217,14 223,11" id="4609" class="canton" fill="steelblue" stroke-width="1" stroke="white" geotype="canton" geoname="Gourdon" code_insee="4609" code_departement="46" nom_departement="Lot" code_region="76" nom_region="Occitanie"/></svg>