<?xml version="1.0" encoding="utf-8"?>
<svg version="1.1" id="svgmap" xmlns="http://www.w3.org/2000/svg" xmlns:xlink="http://www.w3.org/1999/xlink" x="0px" y="0px" width="100%" height="100%" viewBox="0 0 500 390">
<polygon points="47,143 47,143 48,143 49,142 52,141 52,141 52,141 52,141 53,140 53,140 53,140 54,140 55,139 56,139 59,137 61,136 62,136 63,135 65,135 66,134 67,134 70,133 72,132 72,132 72,132 72,132 72,132 72,132 73,131 73,131 74,131 74,129 75,129 75,129 76,129 80,128 81,127 82,127 83,127 84,126 84,126 84,126 86,126 87,126 88,126 89,126 90,126 91,126 92,126 93,126 96,126 96,126 97,126 98,126 98,126 98,126 99,125 100,125 100,125 100,125 101,126 104,128 104,128 104,128 105,129 105,128 106,128 107,128 107,128 107,128 107,128 107,129 107,129 107,129 107,130 107,130 107,130 107,130 107,131 107,131 107,131 107,131 108,131 108,131 108,131 108,131 109,130 110,130 111,129 111,129 111,129 111,128 111,127 112,127 112,126 112,126 114,125 114,125 114,125 115,124 116,122 116,123 116,122 116,121 117,121 117,121 117,121 117,120 118,120 118,120 119,120 120,119 121,119 121,119 122,119 123,118 124,118 124,118 124,118 124,118 124,118 124,118 124,118 124,118 126,118 127,118 133,116 134,116 135,116 136,115 137,114 138,114 138,114 140,114 140,113 141,113 141,113 143,112 143,112 143,112 143,112 145,111 145,111 144,111 144,111 144,110 143,110 143,109 143,109 143,109 142,109 142,109 142,109 142,108 142,108 142,108 141,107 141,107 141,107 140,101 140,100 140,100 140,98 139,97 139,96 137,95 135,94 134,93 134,92 132,91 132,90 122,86 122,85 120,84 120,83 119,83 119,83 118,80 117,79 115,78 114,78 113,77 111,76 110,74 109,74 108,73 106,72 102,69 101,68 100,68 98,67 98,67 94,66 92,66 92,66 88,64 87,64 84,62 85,62 88,59 93,57 93,57 93,57 93,56 93,56 96,54 96,54 96,54 96,53 96,53 95,49 95,49 95,48 95,47 95,47 95,46 98,44 99,43 99,43 101,40 105,36 105,36 108,34 109,34 110,34 110,33 110,33 110,33 110,33 114,30 114,30 115,29 115,29 113,28 113,27 113,27 112,25 112,24 112,22 113,22 113,21 114,20 114,20 115,19 116,18 117,18 118,17 122,16 122,16 123,15 124,15 127,12 127,11 128,10 128,10 128,9 128,8 128,8 128,5 127,3 127,3 127,1 127,1 131,3 131,3 131,4 131,4 131,4 132,4 132,5 133,6 133,7 133,7 136,7 137,8 138,9 141,12 142,12 142,13 145,17 145,17 146,17 146,18 147,18 147,18 146,19 146,19 153,23 153,23 161,28 163,29 166,31 166,31 166,31 167,31 167,32 168,32 169,31 172,31 178,30 178,31 178,32 179,32 179,33 180,34 180,34 180,34 180,34 180,35 178,38 178,39 176,41 176,41 176,42 175,46 175,46 185,46 186,46 186,46 186,47 193,48 193,48 193,48 193,48 194,49 199,51 199,51 202,48 206,50 209,51 213,53 213,53 216,54 216,54 217,54 217,54 218,54 221,53 221,53 221,53 221,52 223,48 223,47 224,46 225,44 225,42 227,39 227,38 227,38 227,38 226,37 226,37 226,36 226,36 226,35 226,34 226,34 226,34 227,33 227,33 228,32 229,31 229,30 230,28 230,28 231,26 232,24 232,24 231,23 231,23 231,23 233,23 233,23 233,22 233,19 233,19 233,19 234,19 234,19 234,18 234,18 235,18 235,18 238,16 238,16 240,15 240,14 241,13 242,12 242,12 241,12 242,11 242,10 242,9 242,9 242,8 242,6 242,5 242,4 243,4 244,3 245,2 245,2 245,2 245,1 246,1 249,1 249,1 252,0 253,0 255,1 256,1 258,2 258,3 259,3 260,3 261,3 264,3 264,3 265,4 265,4 266,4 267,4 267,5 267,5 268,5 268,5 268,5 268,5 269,5 269,5 269,6 269,6 269,6 269,6 269,7 269,7 270,7 270,7 270,7 270,7 270,8 270,8 270,8 271,8 271,9 271,9 272,9 272,9 272,9 273,9 273,9 274,9 274,10 275,10 275,10 275,9 276,9 277,9 277,9 277,9 278,7 278,7 278,7 278,7 278,7 277,6 277,6 277,6 277,6 278,5 278,5 278,5 278,5 278,5 278,5 278,5 278,5 278,5 278,5 279,4 279,4 279,4 279,4 279,4 280,4 280,4 280,3 280,3 280,3 281,3 281,3 282,3 282,3 283,4 283,4 284,4 284,4 282,8 282,9 282,9 282,9 281,10 281,10 281,10 281,11 281,11 281,11 281,11 281,11 281,13 281,13 280,13 280,14 280,16 280,18 280,19 280,19 279,22 279,23 279,23 281,22 284,20 286,19 286,19 287,19 287,19 287,18 287,18 288,16 289,16 293,13 294,12 296,11 299,9 299,8 299,8 299,8 299,8 299,8 299,8 299,8 299,7 299,7 299,7 300,7 300,7 301,7 301,7 301,7 302,7 302,7 302,7 303,7 303,7 303,7 303,8 303,8 303,8 303,8 303,8 304,8 304,8 305,8 305,7 305,7 306,7 306,7 307,7 307,7 307,7 307,7 308,7 309,8 309,8 310,9 310,9 312,9 312,10 313,10 313,11 314,11 315,11 316,12 316,12 316,11 316,9 316,9 315,8 315,8 315,8 316,8 317,9 319,9 320,10 321,10 321,10 323,10 325,10 325,10 326,10 327,11 327,11 328,11 328,11 329,12 329,12 329,12 334,11 336,11 337,11 337,11 338,11 338,11 338,11 339,11 341,11 343,10 343,10 343,10 343,10 348,12 350,13 350,13 350,13 350,13 350,12 350,11 350,11 350,11 350,11 351,11 351,11 351,11 351,11 351,11 351,12 351,11 351,11 351,11 351,10 351,10 352,10 352,9 353,9 354,9 354,8 355,8 356,7 358,7 358,7 359,7 360,7 361,7 362,7 362,7 363,7 364,7 365,8 365,8 366,8 366,8 366,7 367,7 367,7 367,8 368,8 369,7 369,7 369,7 369,7 369,8 370,8 370,8 370,8 372,8 372,8 373,8 373,8 374,8 374,8 374,8 375,9 375,9 376,10 376,10 376,11 376,11 376,11 377,12 377,12 377,12 377,12 378,12 378,13 378,13 378,13 378,13 378,13 378,15 379,15 379,15 379,15 379,16 379,16 379,16 378,16 378,16 378,16 378,17 378,17 377,17 377,17 377,17 377,17 377,17 377,18 377,18 377,18 377,18 378,18 379,18 379,19 379,19 379,19 380,19 380,20 381,20 381,21 382,21 383,22 383,22 383,22 383,22 383,22 384,22 384,23 384,23 384,24 385,25 385,25 385,26 386,26 386,27 386,27 387,27 386,27 386,28 386,28 386,28 386,29 386,29 387,29 387,29 387,29 387,30 387,30 387,30 387,31 388,31 388,31 388,32 388,32 388,32 388,32 388,33 388,33 389,34 389,34 389,34 389,35 389,35 389,35 389,35 388,36 387,38 387,38 387,39 388,39 388,40 388,40 389,41 390,42 390,42 390,42 390,43 390,43 390,43 389,43 389,43 388,43 388,43 387,44 386,45 385,45 385,46 383,46 382,46 381,47 381,47 381,47 381,47 381,47 382,48 383,48 383,49 383,49 383,49 382,51 382,52 382,52 382,53 381,53 379,53 379,53 379,53 379,53 378,53 378,53 378,53 378,54 378,54 378,54 378,54 378,54 378,54 378,55 378,55 378,56 378,58 378,58 378,58 378,58 378,58 378,58 378,58 378,58 379,58 379,58 379,58 379,58 380,58 380,58 381,58 381,58 381,58 381,58 382,60 382,60 382,60 383,60 383,60 383,60 384,60 385,60 385,60 385,60 386,61 386,61 386,62 386,62 386,63 386,63 387,63 387,63 387,64 387,64 387,64 388,64 388,64 388,64 388,64 388,65 388,66 388,66 388,67 388,67 388,68 387,69 387,69 387,69 387,70 388,70 388,70 388,70 388,71 388,71 387,71 387,72 387,72 387,72 387,72 388,73 388,73 388,73 388,73 388,74 388,74 388,74 388,74 388,74 388,75 388,75 388,75 388,75 389,76 388,76 388,76 388,76 388,77 388,77 388,77 388,78 389,80 390,80 391,82 393,83 393,83 393,84 393,85 394,87 394,87 395,87 395,87 395,86 395,86 395,86 395,86 395,86 395,86 396,85 396,85 396,85 396,85 396,85 397,85 397,85 397,85 397,84 398,84 399,84 399,84 399,83 400,83 400,83 400,83 400,83 401,83 401,83 401,83 402,83 402,83 402,83 403,83 404,83 405,83 406,83 406,83 406,83 407,83 407,83 407,83 407,83 407,83 407,83 407,83 407,83 408,83 408,84 408,84 408,84 409,85 409,85 409,85 410,86 410,86 410,86 410,86 410,86 410,86 410,86 410,87 410,87 409,87 407,87 407,87 407,87 407,87 406,87 406,88 406,88 406,88 406,88 406,88 405,88 405,88 405,88 406,89 406,89 406,89 406,89 406,89 406,89 406,90 407,91 407,91 407,91 408,91 408,91 409,91 409,91 410,91 411,91 412,91 412,91 413,91 413,91 413,91 414,91 414,91 414,91 414,91 415,91 416,91 417,91 419,91 419,91 421,91 421,91 421,91 422,90 422,90 422,90 423,90 423,90 424,90 424,90 425,90 425,90 426,90 426,90 427,90 427,90 428,90 429,90 431,91 432,91 433,91 433,92 435,93 436,94 438,94 438,95 441,96 441,96 442,97 443,98 444,99 447,101 447,101 449,103 450,103 451,103 456,105 456,105 456,105 455,107 455,107 453,110 453,111 452,112 448,116 448,116 448,117 447,117 447,118 447,120 446,121 445,125 445,125 445,126 444,127 443,130 443,131 442,132 442,134 441,138 441,140 441,141 441,148 440,149 440,150 440,152 439,153 439,153 439,154 438,157 438,158 437,159 436,161 436,161 436,161 436,162 436,162 436,162 436,162 436,163 436,163 436,163 436,163 436,164 436,164 436,165 436,165 436,165 436,166 436,166 436,166 436,167 436,168 435,169 435,169 435,170 434,171 434,172 434,173 433,174 433,174 433,175 432,175 432,175 432,176 432,176 432,176 432,177 432,177 432,180 432,181 432,182 432,182 431,183 429,184 427,185 425,187 423,188 420,190 419,191 418,191 421,192 424,193 425,193 426,194 426,194 427,195 428,195 428,196 431,197 431,197 437,199 437,199 438,200 439,200 439,201 437,204 437,204 437,205 436,204 436,204 434,204 434,204 434,205 435,211 435,211 435,211 435,213 434,213 435,214 435,215 435,216 435,216 435,217 434,218 434,218 434,220 435,220 435,220 436,219 436,219 436,219 436,219 437,219 437,219 439,219 439,219 439,219 438,220 438,220 438,220 437,221 437,221 438,221 437,221 437,221 437,221 437,221 437,221 436,222 436,222 435,222 435,223 435,223 435,223 435,223 435,224 435,224 434,224 434,225 434,225 434,225 434,225 434,225 433,225 433,225 433,225 433,225 433,225 433,225 433,225 433,226 433,226 433,226 433,226 433,227 433,227 433,227 433,227 432,227 432,227 432,227 432,227 432,228 432,228 432,229 431,229 431,230 430,231 430,232 430,232 429,232 429,232 429,232 429,232 429,232 429,233 429,233 429,233 428,233 428,233 428,234 428,234 428,234 428,235 428,235 427,237 427,237 427,237 428,238 429,238 429,239 429,240 430,240 430,240 430,240 432,241 432,240 432,238 433,238 434,236 435,233 436,231 437,230 438,228 438,227 439,226 439,225 440,225 440,224 442,223 443,223 444,222 444,222 446,222 446,222 447,222 448,222 449,222 449,222 453,223 454,223 455,224 457,225 458,225 458,226 462,228 462,229 463,229 463,230 465,232 465,233 466,234 471,240 472,241 474,243 475,244 480,248 484,252 485,253 490,256 491,257 494,258 495,259 497,260 500,261 500,261 500,264 500,264 500,265 500,265 500,266 500,267 499,267 499,268 498,268 498,269 498,270 498,273 498,274 498,274 496,276 496,277 496,277 496,278 496,279 496,281 496,283 496,285 496,285 496,287 496,288 496,288 496,288 495,290 494,290 494,291 494,292 494,292 492,293 492,293 493,294 493,295 494,298 495,299 495,300 496,302 497,303 497,303 498,304 498,304 498,305 498,306 498,306 498,307 498,307 498,308 497,309 497,309 496,310 496,310 496,310 495,311 494,312 494,312 493,313 492,313 491,314 491,314 490,315 490,315 489,315 489,316 489,317 489,317 489,319 488,319 485,321 485,321 485,322 486,322 486,322 486,323 487,326 488,327 488,327 488,328 488,330 488,330 486,330 486,330 484,332 483,333 483,334 482,335 481,335 480,336 479,337 478,338 477,338 476,339 476,339 475,339 475,339 474,340 473,340 473,340 473,341 473,341 472,341 472,341 472,342 472,342 472,342 472,342 465,347 465,347 464,349 464,349 462,350 462,351 460,352 460,352 458,354 458,357 458,357 456,357 453,357 452,357 448,357 447,357 446,357 444,357 443,357 442,357 439,358 439,358 437,359 437,359 436,360 435,360 433,361 433,361 433,361 432,361 428,360 427,360 426,360 424,359 422,359 422,359 420,359 419,360 418,360 417,360 417,360 417,360 417,360 417,361 417,361 416,362 416,362 416,362 415,361 414,360 409,356 409,356 407,355 407,355 406,355 405,354 404,354 404,354 403,354 402,353 402,353 402,353 401,352 401,352 401,351 401,351 401,351 401,350 401,349 401,347 401,347 400,346 399,346 398,345 397,345 396,345 396,345 395,344 391,343 390,343 389,342 389,342 388,341 388,340 388,340 388,340 388,339 390,339 390,338 391,338 391,338 391,337 391,337 391,337 391,336 391,336 391,336 390,336 389,336 387,336 386,336 385,336 384,337 381,339 380,339 379,340 379,341 378,341 378,341 377,341 377,341 376,340 375,340 374,340 373,339 372,339 370,338 369,337 368,337 368,337 368,337 368,337 367,338 367,338 367,338 367,338 364,340 364,340 364,341 364,341 364,341 364,341 363,341 363,341 363,341 362,341 361,341 361,341 359,339 358,339 357,338 354,337 353,337 348,334 348,334 348,334 351,331 351,331 351,331 352,330 352,330 352,330 351,329 351,329 351,328 347,328 346,327 345,327 345,327 344,328 344,328 342,327 341,326 341,326 339,325 339,324 339,324 338,324 338,324 338,323 338,323 337,323 337,323 336,322 336,321 335,320 335,320 334,319 333,319 332,319 332,319 332,319 332,319 331,319 330,319 325,317 324,317 323,316 323,316 322,317 320,317 318,316 318,316 317,317 316,317 313,317 312,318 310,318 310,318 309,318 306,317 305,317 304,317 303,317 300,318 298,318 297,318 296,318 296,318 295,318 295,318 293,319 292,319 289,320 286,322 283,323 283,324 282,324 282,324 281,325 281,325 280,327 279,327 279,327 279,328 278,328 278,328 276,328 273,328 273,328 272,328 271,330 270,331 270,332 269,332 269,333 270,335 270,335 270,336 270,336 270,336 269,336 270,336 269,336 269,336 269,337 267,340 265,343 264,343 264,344 264,344 264,345 264,345 264,346 265,348 265,350 265,350 265,350 265,351 265,351 264,351 264,352 263,352 263,352 262,353 262,353 262,353 262,354 261,355 261,358 261,358 261,359 261,359 261,360 261,362 261,362 261,365 261,365 261,366 261,366 261,366 261,367 260,368 260,368 261,370 262,373 262,373 261,377 260,380 260,380 260,380 260,380 260,381 260,381 260,381 258,381 255,382 251,382 246,383 246,383 243,385 240,388 238,390 237,390 237,390 237,390 233,388 232,387 231,386 230,385 230,385 230,384 229,384 229,384 228,384 227,384 224,382 224,382 223,381 220,379 220,378 220,378 220,377 220,376 220,376 220,376 219,374 218,373 218,373 217,372 217,372 217,371 217,371 218,369 219,367 219,367 219,365 219,365 219,364 219,363 219,362 219,361 219,361 219,360 219,359 219,358 220,356 220,355 220,354 220,354 219,352 219,352 219,351 219,350 219,349 219,348 219,348 219,346 220,344 220,343 221,342 222,341 222,341 222,340 222,339 222,339 222,339 222,339 221,339 221,339 221,339 221,338 221,337 221,337 221,337 221,337 221,336 221,335 222,334 222,335 222,335 222,335 222,335 222,335 222,335 222,335 221,335 218,335 218,335 218,336 217,336 217,336 215,336 215,336 214,335 214,335 214,335 213,335 211,335 211,334 210,334 207,332 207,331 206,331 206,331 203,330 203,329 202,328 202,328 201,328 201,327 200,327 200,327 198,327 198,327 197,327 197,326 196,326 193,326 190,324 189,324 189,324 188,322 188,322 189,322 190,321 191,321 196,321 196,321 196,321 196,320 197,321 197,320 197,319 197,319 196,317 196,317 196,316 195,315 195,315 198,315 201,314 201,314 201,314 203,313 203,313 203,313 203,313 204,310 206,307 206,307 206,306 205,305 205,305 205,304 205,303 205,302 205,301 205,301 203,300 198,297 197,297 196,295 196,294 196,294 194,294 193,293 193,293 192,292 191,292 190,290 190,290 190,290 190,290 186,290 180,290 178,289 176,288 173,287 172,285 170,285 168,284 165,283 160,281 155,279 151,276 151,276 149,275 148,275 147,274 146,271 145,270 144,269 143,269 142,268 141,267 140,267 139,267 130,267 124,267 118,267 114,267 112,267 111,267 110,267 106,266 95,263 90,262 84,261 81,260 79,259 77,259 76,260 76,260 75,261 74,262 71,264 71,265 70,266 69,267 67,269 63,271 63,272 59,275 57,277 56,277 55,278 54,279 54,279 53,280 51,282 49,284 49,284 48,284 48,285 46,287 45,288 44,289 43,289 43,289 41,290 41,290 40,290 39,290 38,291 37,292 37,293 37,294 37,294 37,296 37,301 37,307 37,312 35,312 35,312 34,312 34,312 31,313 30,313 29,313 28,313 26,313 26,313 21,314 20,314 21,316 22,317 23,318 24,319 24,320 24,320 23,320 23,321 22,321 22,321 21,321 21,321 20,321 19,321 19,321 18,321 18,321 18,321 18,320 17,321 16,321 14,321 13,321 12,322 12,322 8,323 8,321 8,320 7,319 6,316 6,316 6,316 6,315 5,314 5,314 5,313 5,312 4,310 4,309 4,308 3,307 3,306 3,305 2,304 2,304 2,303 2,302 2,301 1,301 1,300 1,299 0,297 0,297 0,296 0,296 0,295 3,295 3,294 3,294 4,294 4,294 4,293 4,292 4,291 4,289 4,287 4,283 4,281 5,277 5,276 5,274 5,272 6,270 6,270 8,270 11,264 12,263 15,262 43,251 61,246 70,242 67,237 65,234 66,234 69,233 70,233 70,232 71,232 72,232 73,232 69,227 69,227 69,227 69,225 69,223 69,221 69,221 69,219 68,216 68,216 68,215 67,212 66,210 64,208 64,207 64,207 63,207 63,206 62,206 61,206 59,206 58,205 57,205 57,205 57,205 57,205 57,205 57,204 57,203 57,202 57,202 57,201 57,200 56,199 56,199 55,198 55,198 54,197 53,197 52,196 52,196 51,194 50,194 50,193 50,193 51,190 51,188 51,187 51,186 51,185 51,184 51,184 50,183 49,180 46,175 46,174 44,172 43,171 43,171 42,170 41,170 41,169 41,169 41,168 40,167 40,166 40,166 40,165 41,165 41,164 41,164 43,161 44,159 46,156 47,155 47,154 48,154 48,154 48,153 48,152 48,152 47,149 47,148 47,146 47,145 46,144 46,144 46,144 47,143" id="4602" class="canton" fill="steelblue" stroke-width="1" stroke="white" geotype="canton" geoname="Cahors-2" code_insee="4602" code_departement="46" nom_departement="Lot" code_region="76" nom_region="Occitanie"/></svg>