<?xml version="1.0" encoding="utf-8"?>
<svg version="1.1" id="svgmap" xmlns="http://www.w3.org/2000/svg" xmlns:xlink="http://www.w3.org/1999/xlink" x="0px" y="0px" width="100%" height="100%" viewBox="0 0 500 352">
<polygon points="0,34 0,34 1,34 3,33 3,33 3,33 3,32 3,32 3,32 3,32 3,30 3,30 4,29 4,29 4,29 4,29 4,29 4,28 4,28 4,28 5,28 5,28 5,28 5,28 6,28 6,27 6,27 7,27 7,27 7,27 9,27 9,26 9,26 9,26 10,26 10,25 10,25 10,25 10,25 11,25 11,25 11,25 11,25 11,25 12,25 12,25 12,24 13,24 13,24 13,24 13,24 13,24 13,24 14,25 14,25 15,25 16,25 16,25 16,25 17,26 18,26 18,26 18,27 18,27 18,28 19,28 19,28 20,29 20,29 20,29 21,29 21,29 22,27 22,26 22,25 22,25 23,24 23,24 23,24 23,23 23,23 24,23 24,22 24,22 27,21 27,21 28,20 28,20 29,20 29,20 30,19 30,19 31,19 32,19 32,18 33,18 33,18 34,18 34,18 35,18 35,18 35,18 36,17 36,17 36,16 36,16 37,15 39,14 39,14 39,14 41,13 41,13 43,13 43,13 43,12 44,12 44,12 45,12 45,12 46,12 46,12 47,12 47,12 48,12 49,11 50,11 50,10 50,10 50,10 51,10 52,10 52,10 53,10 53,10 53,10 53,10 54,10 54,10 55,10 55,10 55,10 56,10 56,10 56,10 57,9 58,9 58,9 58,9 59,9 59,9 59,9 59,9 61,9 62,9 62,10 64,10 66,10 66,10 67,11 67,11 68,11 68,11 69,11 69,11 69,11 70,11 76,11 76,11 76,11 73,6 73,6 75,6 75,6 76,6 77,6 77,6 79,6 79,6 79,6 79,6 79,6 80,4 80,4 81,3 81,2 83,2 84,2 84,2 85,2 86,2 90,3 90,3 91,3 91,3 92,2 92,2 92,2 93,2 93,1 93,1 93,1 94,1 94,1 94,1 95,1 95,1 96,1 96,1 97,1 97,1 97,0 97,0 97,0 97,0 98,0 100,0 100,0 100,0 101,0 101,0 101,0 101,0 102,1 102,1 102,1 102,2 102,3 102,3 102,3 104,9 105,10 105,10 105,10 105,10 105,10 104,11 104,13 104,13 104,13 104,13 105,16 105,16 105,16 105,16 105,17 105,17 105,17 105,18 106,19 107,21 108,22 108,22 107,23 108,23 108,24 108,25 107,26 107,27 108,27 108,28 109,28 109,28 109,28 110,29 110,29 110,29 110,29 110,30 110,30 110,30 110,30 111,30 112,30 113,30 113,30 114,31 114,31 114,31 114,30 115,30 115,30 115,30 116,31 117,31 117,31 118,31 118,31 119,31 119,31 120,31 120,31 121,31 121,31 122,31 122,31 122,31 123,31 123,31 123,31 124,31 124,30 124,30 124,30 125,30 126,29 126,29 127,29 133,26 133,26 133,26 133,25 133,25 138,23 138,23 143,20 143,20 145,18 146,17 149,16 150,15 150,14 153,13 153,12 153,12 153,12 155,12 155,12 156,12 156,12 156,11 156,11 156,11 156,11 157,11 158,11 158,11 158,11 159,11 160,11 161,11 162,11 162,10 163,10 163,10 164,10 164,10 164,10 165,10 165,10 165,10 166,10 167,10 167,10 167,11 167,11 167,11 167,11 167,11 168,11 167,11 168,11 168,12 168,12 168,12 168,12 169,12 169,12 169,12 169,12 170,13 170,13 171,13 171,13 171,13 171,14 172,14 173,14 173,14 174,14 174,14 174,14 174,14 175,14 175,14 176,14 176,14 176,14 176,14 177,14 177,14 177,14 178,14 178,14 178,14 178,14 179,14 179,14 179,14 179,14 180,14 180,14 180,14 180,15 180,15 184,16 184,16 184,16 185,16 185,16 185,17 185,17 185,17 186,17 186,17 186,17 186,17 186,17 186,17 187,17 187,18 187,18 187,18 187,18 187,18 187,18 188,19 188,19 188,19 188,19 188,19 189,19 189,19 189,19 189,19 189,19 189,19 189,19 190,19 191,20 191,20 192,20 192,20 193,20 193,20 193,20 193,20 195,20 195,20 195,20 196,20 197,20 197,21 197,21 198,21 198,21 199,21 199,21 199,21 199,21 200,21 200,21 200,21 200,21 200,21 200,21 200,21 200,21 200,21 201,21 201,21 201,21 201,21 201,21 202,21 202,21 202,20 203,20 203,20 203,20 203,20 203,20 203,20 203,20 203,20 203,20 203,20 203,20 203,20 204,20 204,20 204,19 204,19 204,19 204,19 204,19 204,19 204,19 204,19 204,19 204,19 204,19 205,19 205,19 205,19 205,19 205,19 205,19 205,19 205,19 206,19 206,19 206,19 206,19 206,19 206,19 207,19 207,19 207,19 207,19 207,19 207,19 207,19 207,19 207,19 207,19 207,19 208,19 208,19 208,19 208,19 208,19 208,19 208,19 208,19 209,19 209,20 209,20 209,20 209,20 210,20 210,20 211,19 211,19 212,19 212,19 212,19 212,19 212,19 212,19 212,19 212,19 212,19 212,19 213,19 213,19 213,19 213,19 213,19 213,19 214,19 214,19 214,19 214,19 214,19 215,19 215,19 215,19 215,19 216,19 216,20 216,20 216,20 216,20 216,20 216,22 216,22 216,21 216,21 217,22 217,22 217,21 217,21 217,22 218,22 218,22 218,22 218,22 218,22 218,22 218,22 218,23 218,23 218,23 217,23 217,23 217,23 217,23 217,23 217,23 217,23 217,23 217,24 217,24 217,24 217,24 217,24 217,24 217,25 217,25 217,25 217,25 218,25 218,25 218,25 218,25 218,25 217,26 217,26 217,26 217,26 217,26 217,26 217,26 217,26 217,26 217,27 217,27 217,27 217,27 217,27 217,27 217,27 217,28 218,28 218,28 218,28 218,28 218,28 218,29 218,29 218,29 219,29 219,29 219,29 219,29 219,29 219,29 219,29 218,29 218,29 218,28 218,28 218,28 218,28 218,28 218,28 218,27 218,27 218,27 218,27 219,27 219,27 219,26 219,26 219,26 220,25 220,25 220,24 221,24 221,24 222,23 222,23 222,23 222,23 223,23 223,23 224,23 226,23 226,23 227,23 227,23 228,23 228,23 229,23 229,23 229,23 229,23 230,24 231,24 231,24 232,24 233,25 233,25 233,25 234,25 234,25 235,25 235,26 235,26 235,26 236,25 237,25 237,25 237,25 238,25 238,25 240,24 240,24 241,24 241,24 241,24 241,24 241,24 241,24 242,25 242,25 242,26 242,26 242,26 242,27 242,27 243,27 243,27 243,27 243,27 243,27 244,27 244,27 244,27 245,27 246,27 246,27 246,27 246,27 246,26 246,26 246,25 246,24 246,24 247,23 247,23 247,23 247,23 248,22 248,22 248,22 248,22 249,22 249,22 249,22 251,23 251,23 252,23 252,23 252,23 253,22 253,22 253,22 254,22 255,22 255,22 255,22 256,23 256,23 256,23 256,23 257,23 257,24 258,24 259,24 259,25 259,25 259,25 260,25 260,25 261,26 261,26 262,27 262,27 262,27 262,28 263,28 263,29 263,29 264,29 264,29 264,29 264,29 264,29 264,29 264,29 266,30 266,30 267,30 267,29 267,29 267,29 268,29 268,29 268,29 269,29 269,29 270,29 271,29 277,31 279,31 279,31 279,31 280,31 280,31 281,31 281,31 281,31 283,31 283,31 283,31 283,31 283,31 283,32 284,32 284,32 284,32 285,33 285,33 285,33 285,34 285,35 285,35 285,36 285,36 285,38 285,38 285,38 285,38 285,38 285,38 285,38 285,38 285,38 286,38 286,39 286,39 286,39 287,39 291,37 291,37 291,37 292,36 292,36 292,37 293,37 293,37 293,38 293,38 293,39 292,39 292,40 292,40 292,40 291,41 291,41 290,41 290,41 290,41 291,41 291,41 291,42 291,42 291,42 291,42 291,42 291,42 291,43 291,43 291,43 292,44 292,44 292,44 293,44 293,44 293,45 293,45 294,45 294,45 294,46 294,46 293,47 293,47 294,48 294,48 294,49 294,49 294,49 295,49 295,49 295,49 296,49 296,49 296,49 297,49 297,49 297,50 297,50 297,51 298,51 298,51 298,51 298,51 299,52 299,52 299,53 299,53 300,53 300,54 300,54 301,54 301,54 301,54 302,54 303,54 305,54 305,54 305,56 305,56 305,56 308,57 309,57 312,58 312,58 312,58 312,58 312,59 312,59 312,59 313,59 313,59 314,59 314,59 314,59 314,59 314,59 314,59 315,59 315,59 315,60 315,60 315,60 315,60 315,60 315,61 315,61 315,62 314,62 313,63 313,64 312,64 312,64 312,64 312,64 313,65 315,65 316,65 317,65 318,65 318,65 318,65 319,65 320,65 320,65 321,65 321,65 322,65 323,65 323,65 323,65 323,65 323,65 324,65 324,65 324,65 325,66 325,67 325,67 325,67 325,67 325,67 325,67 325,67 324,67 324,67 324,67 324,68 324,68 323,69 323,69 324,69 324,69 325,71 325,72 325,72 325,72 327,73 329,73 329,73 329,73 330,73 331,73 332,73 332,73 332,73 332,73 332,72 332,72 333,72 333,72 333,72 333,72 333,72 333,72 334,72 334,72 334,72 334,72 335,72 335,72 335,73 336,73 336,73 336,73 337,73 337,73 337,73 338,73 338,74 339,74 341,74 341,74 341,74 342,75 343,75 344,75 345,75 345,75 347,75 347,75 348,75 348,75 348,76 348,76 348,76 348,77 348,77 348,77 348,78 349,78 349,78 349,78 349,78 349,78 350,79 350,80 350,80 350,80 350,80 350,80 351,81 351,81 351,82 352,82 352,82 352,83 352,83 352,83 352,84 352,84 352,84 352,85 352,85 352,85 353,86 353,86 353,86 353,86 353,87 353,87 354,88 354,88 355,88 358,90 358,90 359,91 361,92 361,92 361,92 361,92 363,93 363,93 366,94 366,94 366,94 367,94 367,95 367,95 368,95 368,95 368,96 370,97 371,97 371,97 371,97 371,97 371,97 372,98 372,98 373,98 373,98 375,98 375,98 376,98 377,99 378,100 378,100 379,100 379,100 379,101 379,101 379,101 379,101 380,102 380,102 378,104 378,104 378,104 378,105 378,105 378,105 379,105 379,106 379,106 379,106 379,106 380,107 382,108 383,108 383,109 383,109 383,109 384,109 384,109 386,111 386,111 386,111 386,111 386,111 386,111 386,112 386,113 387,113 387,114 387,114 387,115 387,115 387,116 387,117 387,117 386,118 386,119 386,120 386,120 386,121 386,121 386,121 386,121 386,121 386,121 386,122 386,122 386,122 386,123 386,123 386,123 386,123 386,124 386,124 386,124 386,125 386,125 386,125 386,125 386,126 386,126 386,126 386,126 387,126 387,126 387,126 387,127 387,127 388,127 388,127 388,127 389,128 389,128 389,128 390,129 390,129 390,129 389,130 389,130 389,130 389,131 389,131 389,131 389,131 390,131 390,131 391,131 391,131 391,131 391,131 391,132 392,132 391,132 391,133 391,133 391,133 392,133 392,133 392,133 392,134 392,134 392,134 392,134 393,134 393,135 393,135 393,135 395,135 395,135 396,135 396,135 396,135 396,134 396,135 396,134 396,134 397,134 397,134 398,133 399,133 401,134 401,134 403,134 403,134 407,134 407,134 407,134 407,134 408,134 409,134 410,134 410,134 412,134 413,134 413,134 414,134 414,134 415,134 415,134 415,134 415,134 417,134 417,134 417,134 418,134 418,135 419,135 419,135 419,135 419,136 419,136 420,136 420,136 421,136 422,136 423,137 423,137 423,137 423,137 424,137 424,138 425,138 425,138 426,139 426,139 427,139 427,139 427,139 427,139 427,139 427,140 428,140 428,140 430,139 430,139 430,139 430,140 430,141 430,141 430,141 430,142 430,142 430,142 430,142 430,143 429,144 430,145 430,145 430,146 430,146 432,148 432,148 432,149 432,149 432,149 432,149 434,148 434,148 435,147 436,147 436,147 436,147 436,147 437,146 437,146 437,146 438,146 439,146 440,146 441,147 441,147 441,147 442,148 442,148 443,148 443,146 444,147 444,147 444,147 448,148 448,149 451,150 451,150 454,152 455,152 455,152 456,152 456,152 457,151 457,151 457,151 457,152 458,152 458,153 460,154 460,154 460,155 460,155 460,155 460,156 460,159 460,159 460,159 460,159 460,160 460,162 461,164 461,164 460,164 460,165 460,165 460,165 461,166 461,166 461,166 461,166 461,167 462,167 462,168 462,168 462,168 461,169 461,169 461,169 461,170 462,170 465,170 469,171 469,171 469,171 469,171 469,172 469,173 469,173 469,174 469,174 469,174 469,174 468,175 468,175 468,176 468,176 468,176 468,176 468,176 468,177 467,177 467,177 467,178 466,178 465,179 465,179 465,180 466,180 466,180 466,181 466,181 465,181 465,181 464,181 464,181 464,181 463,182 462,182 461,182 461,182 461,182 460,182 460,182 459,183 458,183 458,183 458,183 457,183 457,184 457,184 457,184 457,184 457,185 457,185 458,186 459,186 461,186 461,186 461,186 462,186 463,187 464,187 464,187 465,187 465,187 466,187 466,187 467,187 467,187 467,187 468,187 471,187 471,187 473,187 474,188 475,188 477,188 480,190 480,190 482,191 482,191 484,191 484,191 485,192 486,192 488,192 489,192 489,193 489,193 489,194 489,194 490,195 490,195 490,196 491,197 491,198 493,199 493,199 494,200 495,202 495,203 496,203 496,203 498,204 498,204 498,205 500,206 500,207 500,207 500,207 498,208 494,210 494,210 494,210 494,209 494,208 494,207 493,207 493,206 492,206 492,205 492,205 492,205 491,205 491,205 491,205 489,205 489,205 482,214 482,214 482,214 482,214 482,214 482,214 482,214 482,214 481,215 478,216 478,216 477,216 477,216 476,215 475,214 475,213 475,213 474,213 473,212 472,212 471,211 471,211 471,211 468,210 467,210 467,209 466,209 466,209 465,208 465,208 464,207 463,206 463,206 463,206 462,205 462,205 461,204 457,202 457,202 457,202 457,202 451,206 452,207 453,207 453,207 453,207 454,207 454,207 457,208 457,208 457,208 459,209 459,209 462,210 463,211 463,211 463,211 466,211 459,220 459,220 456,224 456,224 453,226 452,226 452,227 451,227 451,227 452,227 452,228 452,228 452,228 452,228 448,231 448,232 448,232 449,232 449,232 449,232 449,233 449,233 449,233 449,233 449,234 449,234 451,235 452,236 452,236 452,236 453,236 453,237 453,238 453,238 454,239 454,239 455,240 456,241 456,241 456,241 457,242 458,243 458,243 460,244 462,245 464,245 465,246 465,246 465,246 464,247 464,247 464,247 464,247 463,247 463,248 463,248 462,248 462,248 462,248 462,248 461,248 461,249 461,249 460,250 460,250 460,250 460,251 460,251 460,251 460,251 460,252 460,252 460,253 460,253 460,253 460,253 460,254 460,254 460,255 459,256 459,256 459,256 459,257 459,257 459,257 459,257 458,257 458,258 458,260 458,260 458,260 458,260 458,260 458,261 458,261 458,261 458,261 458,262 458,262 458,262 458,262 458,262 458,262 458,263 458,263 458,263 458,263 458,263 457,263 457,263 457,263 457,264 457,264 456,264 456,264 456,264 455,264 454,265 454,266 453,267 452,267 452,267 451,268 450,269 450,270 449,271 448,271 447,272 447,272 446,272 445,273 445,273 444,274 444,274 443,275 442,275 442,275 442,275 441,276 441,276 439,277 439,277 438,277 438,277 438,278 438,278 437,279 436,280 436,280 436,281 435,281 435,281 435,282 435,282 434,283 434,283 433,284 433,285 432,285 432,285 432,285 431,286 431,286 431,287 431,287 431,287 430,287 430,288 430,288 430,289 429,290 429,290 429,290 428,291 428,291 428,291 428,292 427,292 427,292 427,293 427,293 426,293 426,293 426,293 426,293 426,293 425,293 425,293 424,293 424,293 423,293 423,293 423,293 422,292 422,292 421,292 421,292 420,292 419,292 419,292 419,292 419,292 418,291 418,291 418,291 418,291 418,291 418,290 418,288 418,287 418,287 417,287 417,287 417,286 417,286 411,285 411,284 408,283 407,283 407,283 405,282 404,281 403,280 402,280 402,280 401,279 400,279 399,279 395,277 395,277 395,277 394,277 385,274 384,274 383,274 383,275 384,278 384,278 379,278 371,277 368,277 367,277 362,278 358,278 346,279 329,280 329,280 329,280 329,281 328,282 328,282 328,283 327,284 327,284 327,284 327,284 326,284 326,284 326,285 325,285 325,285 325,286 325,287 325,287 325,287 325,287 324,288 324,288 324,288 323,288 323,288 322,288 321,288 320,288 320,288 320,288 319,288 319,288 319,288 319,288 319,288 319,288 319,288 319,289 319,289 319,289 319,289 319,290 319,290 319,290 318,290 318,290 318,291 318,291 318,291 318,291 318,291 318,292 318,292 318,292 317,292 317,292 317,292 316,292 316,292 316,292 317,292 317,292 317,293 319,293 319,293 319,293 319,293 318,295 317,296 316,298 314,299 314,299 315,300 315,300 315,301 316,302 317,303 317,303 316,303 316,303 317,304 317,304 317,304 317,305 317,305 317,306 317,307 317,307 317,307 317,308 317,308 317,308 316,309 315,310 315,310 315,311 315,311 315,311 315,311 315,312 315,313 315,314 315,314 314,315 314,316 314,316 314,316 313,317 313,317 313,317 312,318 312,318 312,318 312,318 312,318 311,318 311,318 311,318 311,319 311,319 311,319 311,319 311,319 311,320 311,320 311,320 311,320 311,320 311,320 311,320 311,320 311,320 311,320 311,320 311,321 310,321 310,321 309,322 309,322 309,322 308,322 307,323 307,323 307,323 307,323 306,324 306,324 306,324 306,325 306,325 306,325 305,326 305,326 304,326 302,327 301,328 301,328 301,329 300,329 300,329 299,330 299,330 299,331 299,332 299,332 298,334 298,334 297,334 297,335 297,335 296,335 296,336 294,337 294,337 292,338 292,339 291,340 290,341 289,342 289,342 289,342 288,342 288,343 287,343 287,343 287,343 286,344 285,344 284,345 284,346 283,346 283,346 282,347 281,347 281,347 280,347 278,349 277,349 277,350 277,350 276,350 276,350 275,350 274,351 273,352 273,352 273,352 273,351 273,351 272,351 272,351 272,350 272,350 272,350 272,350 271,351 271,351 270,352 270,352 270,352 270,352 269,351 269,351 269,351 269,351 269,350 268,350 267,350 267,350 267,350 265,348 264,348 264,348 264,347 263,347 263,347 263,347 263,347 263,347 263,347 262,347 262,347 262,347 261,346 261,346 260,346 260,346 260,346 260,346 260,345 259,345 258,344 258,344 258,344 257,344 257,344 257,343 257,343 257,343 257,343 256,343 256,343 255,343 255,343 255,343 254,343 254,343 254,343 254,343 253,343 253,344 253,344 253,344 253,344 252,344 252,345 252,345 252,345 250,344 250,344 249,344 249,344 249,344 249,344 248,344 248,344 248,343 247,343 247,343 247,343 246,342 246,342 246,340 245,340 245,340 245,340 246,339 246,339 246,339 246,339 246,338 246,338 246,338 246,338 245,337 245,337 245,336 245,335 244,335 244,335 243,334 243,334 243,334 242,333 242,333 241,333 240,334 240,334 240,334 240,334 239,333 239,333 239,332 239,332 239,331 238,331 238,330 237,329 237,329 236,329 235,328 235,328 234,328 233,327 232,327 232,327 232,326 231,326 230,325 230,325 230,325 229,325 228,325 228,325 228,325 226,325 225,325 225,325 224,325 222,324 221,324 221,323 218,322 218,322 218,322 217,321 217,321 217,320 216,320 216,320 216,320 216,319 216,319 216,319 217,317 217,317 217,316 217,316 217,315 216,314 216,314 216,314 215,313 212,309 211,309 211,308 210,308 210,307 209,307 209,307 209,307 208,307 207,306 206,306 205,306 204,306 204,306 204,305 203,305 202,305 201,305 199,304 198,304 197,304 193,303 193,303 192,303 192,303 192,303 192,303 192,303 192,302 192,302 192,302 192,301 193,299 194,298 194,298 194,297 194,297 195,296 195,296 195,296 196,295 196,294 196,293 196,293 196,292 196,291 197,289 197,288 197,288 197,287 196,286 196,286 196,286 197,284 197,284 197,283 197,283 197,282 197,282 197,282 197,281 197,281 197,281 197,281 197,281 197,281 199,280 198,279 198,279 198,279 197,278 194,275 194,274 193,273 192,272 191,270 190,269 189,269 188,267 187,266 186,266 186,266 185,265 185,265 183,265 182,265 177,265 172,264 172,264 170,264 169,264 166,264 164,264 164,265 164,265 163,265 162,265 162,266 162,266 161,266 161,266 160,266 160,266 160,266 160,266 160,266 160,265 159,265 159,265 159,265 160,264 160,264 159,264 159,263 159,263 159,263 159,263 159,263 159,263 159,262 159,262 160,262 160,262 160,262 160,261 160,261 160,261 160,260 160,260 160,260 160,259 160,259 160,259 160,258 160,258 160,258 160,257 160,257 160,257 160,257 160,256 160,256 160,256 160,255 160,255 160,254 159,253 159,253 159,253 159,253 159,253 159,253 158,251 158,251 158,251 158,251 158,251 158,251 157,250 157,250 157,250 157,249 158,249 157,248 157,248 157,248 157,248 157,247 157,247 157,247 156,246 156,246 156,246 156,246 156,246 156,246 156,245 155,245 155,245 155,245 155,245 155,245 155,245 155,245 155,245 154,245 154,245 154,244 154,244 152,244 151,243 151,243 151,243 151,243 150,243 149,241 149,241 148,239 148,238 148,238 147,236 147,235 147,235 146,235 146,234 146,234 146,234 145,234 145,233 144,233 144,233 144,233 143,232 143,233 142,233 142,234 142,234 142,235 142,235 141,235 141,235 141,235 140,235 140,235 139,235 139,235 139,235 138,234 138,235 138,235 138,236 138,236 138,236 138,236 138,237 138,237 138,237 137,237 137,237 137,237 137,237 137,237 135,237 135,237 135,236 135,236 134,236 134,236 130,236 130,236 130,235 130,235 129,235 129,235 126,233 121,230 121,230 119,229 116,227 116,227 116,228 115,228 115,228 115,228 115,228 114,229 114,229 110,230 109,231 109,231 108,232 100,237 99,237 99,238 98,238 98,238 92,239 92,239 92,239 92,239 90,239 90,239 90,239 89,239 89,239 89,239 89,239 89,239 89,239 89,239 89,239 87,238 87,238 86,238 86,239 86,239 84,238 83,238 82,238 81,238 79,238 79,238 78,238 78,238 78,238 79,238 80,237 81,237 81,237 82,237 82,237 82,237 81,236 81,235 80,234 79,234 77,231 77,231 76,231 76,231 74,228 74,228 74,228 74,228 74,226 75,224 75,224 75,224 75,222 76,222 76,221 76,220 76,220 76,219 76,219 77,217 77,215 77,214 76,214 76,215 76,215 76,215 75,215 75,215 75,215 75,215 74,215 74,215 74,214 74,214 74,214 73,215 73,215 71,214 71,214 70,214 69,214 68,214 67,214 67,214 67,213 67,212 68,211 68,211 68,211 68,211 67,211 68,211 68,211 68,211 68,210 68,209 68,209 68,209 67,209 67,209 66,207 66,207 65,206 65,206 65,206 64,206 64,206 63,206 63,206 61,206 61,206 59,206 58,206 58,206 58,206 58,206 56,205 56,205 55,205 54,204 54,204 54,204 54,204 54,204 54,203 55,203 55,202 55,201 56,201 56,200 57,200 57,200 56,200 56,200 56,198 55,198 55,198 55,198 55,198 55,197 55,197 54,197 54,197 54,197 52,195 51,194 50,193 50,193 50,192 49,192 48,192 48,192 48,192 48,192 48,192 47,192 47,192 47,192 47,192 46,192 46,191 46,191 46,190 46,189 46,189 46,188 46,188 46,188 46,187 46,187 46,187 45,184 45,184 45,183 45,182 45,182 45,182 45,180 46,178 46,178 46,178 46,178 46,178 45,177 45,177 45,177 45,177 45,176 45,176 45,176 44,176 44,175 44,175 44,175 44,174 43,174 43,173 44,173 44,173 44,172 44,172 44,172 46,171 46,171 46,171 46,170 47,170 47,169 47,169 47,169 47,169 46,169 46,168 46,168 45,168 45,168 45,168 45,168 45,167 45,167 45,167 45,166 44,166 44,166 44,165 44,165 44,165 43,164 43,164 43,164 43,164 42,163 42,163 41,162 41,162 40,162 40,162 40,161 40,161 40,161 40,161 40,160 40,159 40,159 39,158 39,158 39,158 38,157 38,157 37,156 37,156 37,156 37,155 36,155 36,155 36,155 36,154 36,154 36,154 36,154 35,153 35,153 34,153 34,152 34,152 34,152 34,152 33,152 31,151 30,151 30,151 30,151 30,151 29,150 29,150 29,150 28,150 28,150 28,150 27,150 27,150 27,150 27,150 27,149 27,149 27,149 27,149 26,149 26,148 26,148 25,147 25,147 25,147 24,147 24,147 23,147 23,147 22,147 22,146 21,146 21,146 21,145 20,145 20,145 19,144 19,144 19,144 19,144 19,144 19,142 19,142 19,142 19,142 19,142 19,142 19,142 18,142 18,141 18,141 18,141 17,140 16,140 14,139 13,139 11,138 9,137 8,137 8,137 8,137 7,137 7,136 6,136 5,136 5,135 4,135 4,135 3,135 3,135 3,135 3,135 3,135 2,135 2,135 2,135 2,134 2,134 2,134 1,134 1,134 1,133 1,133 1,133 1,133 1,133 1,132 1,132 1,132 0,132 0,132 0,131 0,131 0,131 0,131 1,130 2,130 4,129 4,129 5,128 5,128 5,128 5,128 6,128 6,128 6,128 6,126 5,125 5,125 5,125 5,125 5,124 5,124 5,123 5,123 5,123 5,122 5,122 5,121 5,121 5,120 4,120 4,120 4,120 3,119 3,119 3,119 4,119 4,119 4,119 4,118 5,118 5,117 5,117 5,117 5,116 5,115 5,115 5,115 5,114 5,114 4,113 4,113 4,113 6,113 6,113 8,113 9,113 9,113 9,113 10,113 11,113 11,113 12,113 12,114 12,114 12,114 12,113 12,113 12,113 12,113 13,113 13,113 14,113 15,113 15,113 15,114 15,114 16,114 16,114 16,114 16,114 16,114 17,115 17,115 18,116 19,116 20,116 20,116 21,116 22,116 23,116 23,116 23,115 23,115 23,115 23,115 23,114 23,114 22,113 22,112 22,111 22,111 23,111 25,110 25,110 27,110 27,110 27,111 26,111 26,111 26,111 27,111 27,111 28,112 28,112 28,112 28,112 29,112 29,112 29,112 31,114 32,115 32,115 33,116 33,116 36,116 36,117 37,117 37,117 38,117 38,117 38,117 40,117 40,117 42,117 42,118 42,118 42,117 43,117 44,117 44,117 44,117 44,117 44,117 44,117 44,117 44,116 45,116 46,116 46,116 47,117 47,117 47,117 47,118 48,118 48,118 48,119 49,119 49,120 49,120 49,120 50,120 50,120 50,120 50,121 50,121 50,122 51,123 51,123 51,123 51,123 51,124 51,124 52,124 54,124 55,124 57,125 57,125 60,126 60,127 66,131 66,131 66,131 67,131 69,131 73,131 73,131 74,131 75,130 75,130 76,128 76,128 76,128 75,127 75,127 74,126 74,126 74,126 73,126 73,126 73,126 73,125 73,125 73,124 73,124 73,123 73,123 73,122 73,121 72,121 72,121 72,119 71,119 71,118 71,118 71,118 71,118 71,118 72,115 73,114 73,113 73,113 74,113 74,112 75,111 75,111 75,111 76,110 77,109 77,109 77,109 78,108 79,107 79,107 81,107 81,106 83,106 83,106 83,106 84,105 85,105 85,105 86,104 87,104 88,103 88,103 90,102 90,102 90,102 90,102 90,100 90,99 90,99 90,98 90,98 88,97 88,97 86,97 86,97 85,97 84,97 84,96 84,96 82,95 82,95 82,93 82,93 82,93 82,93 82,93 83,92 83,91 83,91 84,91 84,91 70,87 70,87 69,87 69,87 69,87 69,87 68,87 68,87 68,87 66,88 65,88 65,88 65,88 65,88 62,88 62,89 61,89 58,89 58,89 57,85 57,85 57,85 56,86 56,86 56,85 55,84 55,84 55,84 55,83 56,83 56,83 56,83 56,82 56,82 57,81 58,80 58,80 60,77 60,77 61,77 61,77 61,76 61,75 61,75 61,74 61,74 61,74 61,74 61,74 61,72 61,72 61,72 59,71 53,69 53,69 53,69 53,69 53,70 52,70 52,70 52,71 52,71 51,71 51,71 50,71 49,71 47,71 45,71 43,71 43,71 41,70 40,70 40,70 40,70 41,70 41,70 41,70 41,70 41,69 41,69 38,69 38,69 38,69 38,68 38,68 38,68 35,67 34,66 34,66 29,66 29,66 26,64 11,59 11,59 6,57 6,57 6,57 5,57 5,57 5,57 5,56 5,56 5,56 5,55 6,55 6,54 6,54 6,54 6,53 6,53 6,53 6,53 6,53 5,53 5,53 5,52 4,52 4,52 4,52 4,52 4,51 4,51 4,51 4,51 3,50 3,50 3,50 3,50 3,50 2,49 2,49 2,49 1,48 1,47 1,47 1,46 1,46 1,45 1,44 2,44 2,43 2,43 2,43 2,43 2,43 2,42 2,42 2,42 2,42 2,41 1,40 1,40 1,39 1,39 1,38 0,37 0,34 0,34 0,34 0,34" id="4614" class="canton" fill="steelblue" stroke-width="1" stroke="white" geotype="canton" geoname="Martel" code_insee="4614" code_departement="46" nom_departement="Lot" code_region="76" nom_region="Occitanie"/></svg>