<?xml version="1.0" encoding="utf-8"?>
<svg version="1.1" id="svgmap" xmlns="http://www.w3.org/2000/svg" xmlns:xlink="http://www.w3.org/1999/xlink" x="0px" y="0px" width="100%" height="100%" viewBox="0 0 500 433">
<polygon points="0,94 0,94 1,93 1,92 2,91 3,90 3,90 4,89 4,89 4,88 5,88 5,87 5,87 5,87 5,86 6,86 6,85 6,85 6,84 6,84 6,84 6,83 6,83 7,83 7,82 8,82 8,82 9,82 9,81 9,81 11,81 11,81 12,80 12,80 12,80 13,79 13,78 14,77 14,77 14,76 15,76 16,75 16,75 16,75 17,75 17,74 17,74 18,74 18,74 18,74 19,74 19,74 20,73 20,73 20,73 21,73 21,73 22,72 22,72 23,72 24,71 25,71 26,70 26,70 27,70 27,70 27,70 28,70 28,70 30,69 31,69 32,69 32,69 32,69 33,68 33,68 34,68 35,68 35,68 35,68 36,67 36,67 37,67 38,67 39,68 40,68 40,68 40,67 41,67 42,67 43,66 43,66 44,66 45,66 45,66 45,66 48,65 52,63 52,63 52,63 54,63 55,62 55,62 56,62 57,62 58,61 59,61 60,60 61,58 61,58 61,57 61,57 63,57 64,57 64,57 65,57 66,57 66,57 66,57 66,57 68,57 68,56 68,56 68,55 68,55 68,54 68,54 68,54 69,54 70,53 71,53 71,53 72,53 72,53 73,52 73,52 74,51 74,51 75,50 74,49 75,49 74,49 74,48 74,48 74,47 73,46 74,46 73,45 72,45 72,45 71,43 70,42 70,42 70,41 70,39 70,39 71,39 72,36 68,33 67,32 67,31 67,31 68,31 68,31 70,31 70,30 66,28 63,27 63,27 65,26 66,26 66,26 68,26 70,26 70,26 71,25 71,24 71,24 71,23 72,22 72,22 74,17 76,15 75,15 75,14 74,13 73,14 73,14 72,13 72,14 67,9 66,6 66,6 66,5 66,5 67,3 67,2 68,2 68,2 69,2 69,1 70,1 71,0 72,0 72,0 73,1 72,1 73,2 74,4 79,2 80,2 81,2 81,1 82,2 82,3 82,4 84,5 84,6 84,6 84,7 84,7 84,8 84,8 85,9 85,9 85,10 86,10 86,11 86,11 85,12 88,15 88,15 89,16 90,18 90,19 90,19 91,20 92,20 92,20 93,21 93,21 94,22 94,22 94,22 95,23 96,24 96,24 97,25 97,26 97,28 97,28 98,29 98,30 99,30 99,30 101,32 102,32 103,33 104,34 104,34 104,37 105,38 106,38 109,37 110,37 112,36 114,35 115,35 118,33 119,33 120,32 121,32 121,32 124,32 125,31 126,31 130,30 132,29 133,29 134,29 135,29 135,29 141,27 143,26 143,26 143,26 146,28 147,29 148,30 150,31 150,31 151,31 151,31 152,33 153,33 154,34 154,34 154,34 155,34 155,34 156,37 157,37 157,38 157,39 157,40 158,40 158,41 159,43 160,44 162,47 163,48 165,49 166,50 167,51 167,52 168,52 170,54 171,55 171,55 172,56 174,57 175,58 176,59 177,59 179,61 180,62 181,63 182,64 185,67 186,67 187,68 188,69 188,69 189,70 191,71 192,73 193,73 194,74 196,76 198,77 199,77 200,78 202,78 202,78 202,79 202,79 203,79 205,79 205,80 206,80 206,80 207,80 207,80 207,80 208,81 208,81 209,81 210,82 211,82 211,82 212,82 212,82 212,83 213,83 213,83 213,83 213,83 213,83 214,83 214,83 214,83 214,83 214,83 214,83 215,83 215,84 215,84 216,84 216,84 216,84 216,84 216,84 217,84 217,83 219,83 219,83 220,83 220,83 221,83 221,83 222,83 222,83 222,83 222,83 223,83 223,83 223,83 223,83 223,83 224,83 224,83 224,83 224,83 224,83 225,83 225,83 225,83 225,83 225,83 226,83 226,83 226,83 226,83 226,83 226,83 226,83 226,83 227,83 227,83 227,83 228,83 228,83 228,83 228,83 229,83 229,83 229,83 229,83 229,83 230,83 230,83 230,83 230,83 230,83 230,83 230,83 231,83 231,82 231,82 232,82 232,82 232,82 232,82 232,82 233,82 233,82 235,83 235,83 236,83 236,83 236,83 236,83 237,83 237,83 237,83 237,83 237,83 238,83 238,83 238,83 238,83 238,83 238,83 238,83 239,83 239,83 239,83 239,83 239,83 239,83 240,83 240,83 240,83 241,83 241,83 242,83 242,83 242,83 243,83 243,82 243,82 244,82 244,82 244,82 245,82 245,83 245,83 245,83 246,83 246,83 246,83 247,84 247,84 247,84 247,84 247,84 247,84 247,84 247,84 247,84 247,85 248,85 248,85 248,85 248,85 248,85 248,85 248,85 248,86 248,86 248,86 249,87 249,87 249,87 249,87 249,87 249,87 249,87 249,87 249,87 249,88 249,88 249,88 249,88 249,88 249,88 249,88 249,89 249,89 249,89 249,89 249,89 249,89 249,89 249,89 249,89 249,89 249,90 249,90 249,90 249,90 249,90 249,90 249,90 249,90 249,90 249,90 249,90 249,90 249,90 249,90 249,90 249,91 249,91 249,91 249,91 249,91 249,91 249,91 249,91 249,91 249,91 249,91 249,92 249,92 249,92 249,92 249,92 249,92 249,92 249,92 249,92 249,92 249,93 249,93 249,93 249,93 249,93 249,93 249,93 249,93 249,93 249,93 249,93 249,93 249,93 249,93 249,93 249,93 249,93 249,93 249,93 249,94 249,94 249,94 249,94 249,94 250,94 250,94 250,94 251,94 251,94 251,94 252,94 252,94 252,94 252,94 252,94 253,94 253,94 254,94 254,94 255,94 255,94 255,94 255,94 255,94 255,94 255,94 256,94 257,93 257,93 257,93 258,93 258,93 259,94 260,94 260,93 261,92 261,92 262,92 263,92 263,92 263,92 264,92 264,92 265,92 266,92 267,92 268,93 269,93 270,93 271,93 273,94 275,94 276,95 277,95 278,96 279,96 281,97 281,97 283,98 283,98 284,99 285,99 285,99 286,99 287,99 288,100 290,100 290,100 291,101 292,101 293,102 294,103 294,103 295,104 295,104 296,105 296,106 296,107 297,107 298,108 299,108 299,108 300,109 300,110 301,110 301,110 302,110 303,111 303,111 304,112 305,112 305,112 306,112 307,113 308,112 310,112 310,112 310,112 310,112 310,112 310,112 311,112 311,112 312,112 312,111 313,110 313,110 314,110 314,109 314,109 315,109 315,109 315,109 315,108 316,108 316,108 316,108 317,107 317,107 317,107 317,107 318,107 319,107 319,107 319,107 319,106 319,106 319,106 320,107 322,107 323,107 324,108 325,108 326,108 326,108 326,109 326,109 327,109 327,110 327,110 327,110 327,110 328,111 330,111 330,111 331,111 331,111 332,111 332,111 333,112 333,112 333,112 334,112 334,112 334,112 336,112 338,113 339,113 340,113 341,113 341,113 342,113 343,113 344,112 345,112 346,112 347,112 348,112 348,112 349,112 349,111 349,111 351,111 351,111 353,111 353,111 353,111 354,110 354,110 355,110 356,109 358,108 359,108 359,108 360,108 361,108 361,108 363,107 364,107 365,108 366,108 367,109 367,109 368,110 368,110 369,111 369,111 370,111 370,111 371,111 371,111 371,110 372,111 373,111 375,112 375,112 375,112 375,112 376,112 377,113 377,113 379,113 380,113 381,114 383,114 386,115 387,116 389,116 391,116 392,116 392,116 392,117 392,117 393,118 393,119 395,120 395,120 395,121 395,121 395,121 396,121 398,120 399,120 399,120 400,120 400,120 401,121 402,121 403,122 403,122 403,122 404,122 405,122 405,122 404,123 404,124 404,124 404,124 405,126 406,127 407,128 407,128 407,129 408,129 409,129 411,129 413,130 414,130 414,130 414,130 415,130 416,130 417,130 417,130 417,130 417,130 418,130 418,130 419,130 419,130 420,131 421,131 421,131 421,131 421,131 422,131 422,131 423,131 423,131 424,131 424,131 425,132 425,132 426,132 426,133 427,133 428,134 428,134 428,134 428,134 428,134 430,133 430,133 431,133 432,133 432,133 433,134 434,134 435,134 435,134 436,134 437,134 437,134 437,134 439,135 440,135 441,136 443,136 443,136 445,136 446,136 446,136 446,136 446,137 445,139 445,141 445,143 445,143 445,143 445,143 446,144 446,144 448,145 449,145 449,145 449,145 449,146 449,147 449,147 449,147 449,148 450,148 450,148 449,148 449,148 449,149 449,149 449,149 449,150 449,150 449,150 449,150 449,150 449,150 449,150 449,151 449,151 449,151 449,152 449,152 450,152 450,153 450,153 450,153 449,153 449,154 449,154 449,154 449,155 449,156 448,156 448,156 448,157 448,157 448,157 448,157 448,157 447,157 447,157 447,157 446,157 445,157 445,157 445,157 444,158 443,159 443,160 442,160 442,160 442,160 442,161 442,161 442,161 443,161 443,161 443,162 443,162 443,162 443,162 443,163 444,163 444,164 444,165 445,166 445,166 445,167 445,167 445,167 445,167 445,167 445,168 445,168 444,169 444,169 444,169 444,170 444,170 444,170 444,171 444,171 444,171 444,171 444,172 444,172 444,173 444,174 444,174 443,174 443,174 443,175 443,175 443,175 442,175 442,176 442,176 442,176 441,176 441,176 441,176 441,176 441,176 441,176 440,176 440,176 440,176 439,176 439,176 438,177 438,177 438,177 437,177 437,177 437,177 437,177 437,177 437,177 436,177 436,177 436,177 436,177 436,178 435,178 435,178 435,178 436,178 435,178 435,178 435,178 435,179 435,179 435,179 435,179 435,179 435,179 435,180 435,180 435,180 434,180 434,180 434,180 433,180 433,180 433,181 433,181 433,181 432,181 432,181 432,181 432,181 432,181 432,182 431,182 431,182 431,182 431,182 431,183 431,183 431,183 431,183 431,183 430,183 430,183 430,183 430,183 430,183 430,184 430,184 430,184 430,184 431,184 431,184 431,184 431,184 431,184 431,184 431,184 432,184 431,184 431,184 431,184 431,184 431,184 431,184 431,185 430,185 430,185 430,185 430,185 430,186 430,186 430,186 430,186 430,187 430,187 430,187 431,187 431,187 432,188 432,188 433,188 433,189 434,189 434,189 435,190 435,190 435,190 436,190 436,190 436,190 438,192 439,193 440,193 440,193 440,193 440,194 440,195 440,195 441,195 441,195 441,195 441,195 442,195 442,196 442,196 443,196 443,196 444,197 445,197 445,197 446,198 447,198 447,198 447,198 447,198 448,198 448,198 448,198 448,198 448,198 448,198 449,197 449,197 449,197 450,198 450,198 451,198 452,199 452,199 453,200 453,200 454,200 456,200 456,201 457,201 457,201 457,201 458,201 458,202 459,202 459,203 460,203 460,203 461,203 461,203 461,203 461,203 462,203 462,203 462,203 462,204 462,205 462,206 461,206 461,207 461,208 461,208 461,208 461,208 461,209 462,210 462,210 462,210 462,210 463,210 464,210 464,210 465,210 465,210 465,210 466,210 467,210 467,210 467,210 467,210 468,210 468,210 468,210 468,210 469,210 469,210 469,210 470,211 471,211 471,211 471,211 471,211 472,211 472,211 472,211 472,211 472,210 472,210 472,210 473,209 473,209 473,209 473,208 473,208 473,208 473,208 474,208 474,208 474,207 475,207 475,207 476,208 476,208 477,208 477,208 477,208 477,208 477,208 478,208 478,208 478,208 479,209 479,209 480,210 480,210 480,210 480,210 481,210 481,210 481,210 481,210 481,210 482,210 481,211 481,211 481,211 481,211 481,211 481,212 481,212 481,212 481,212 481,212 482,212 482,212 482,212 482,212 482,212 482,212 482,212 483,212 483,212 483,212 482,212 482,213 482,213 482,213 482,213 483,213 483,213 483,214 483,214 483,214 483,214 484,214 484,213 484,213 484,213 484,213 484,213 485,214 486,214 486,214 486,215 487,215 487,216 487,216 487,216 488,217 488,217 488,218 489,218 489,218 490,218 490,218 490,219 491,219 491,219 491,219 492,219 492,219 492,219 493,219 493,219 493,219 493,220 494,220 494,220 494,220 494,220 495,220 495,220 495,220 496,220 496,220 496,220 496,220 497,220 497,220 497,220 498,220 498,220 498,220 498,220 498,220 498,220 498,220 497,221 497,221 497,221 497,221 496,221 496,221 497,221 497,221 497,221 497,222 497,222 498,222 498,222 498,222 498,222 498,222 498,222 498,222 499,222 500,223 500,223 500,223 500,224 500,225 500,225 499,225 499,225 498,227 498,227 498,227 499,227 499,227 499,227 499,229 499,229 499,229 498,229 498,229 498,230 498,231 497,232 497,233 497,234 497,234 496,234 496,234 496,234 496,234 496,235 495,235 495,235 495,236 494,238 494,238 494,238 492,237 491,237 489,236 489,236 487,240 487,240 486,241 486,242 486,243 486,243 486,243 483,246 483,246 484,246 484,246 482,249 482,250 480,253 477,256 476,258 476,258 476,258 476,258 476,258 475,261 475,261 474,261 473,260 471,259 470,259 470,259 470,259 468,257 468,257 468,257 468,257 465,258 463,259 463,260 462,260 461,261 461,261 460,262 460,262 460,262 460,262 460,262 460,263 459,264 459,264 459,265 459,265 459,265 459,265 460,265 460,265 460,265 460,265 460,267 460,268 460,268 459,269 459,270 459,271 459,272 459,272 460,272 460,273 460,273 461,273 461,274 461,274 461,274 460,275 460,276 460,276 460,276 460,277 461,277 461,278 461,278 461,279 461,279 461,279 461,279 462,280 462,281 463,281 463,282 464,282 464,282 466,283 467,284 467,284 468,285 468,285 468,285 469,285 470,285 472,285 474,285 475,286 475,286 477,286 477,286 477,286 476,287 476,288 476,288 475,288 476,290 476,290 476,291 476,291 476,292 476,292 475,292 475,292 476,293 476,293 476,293 476,294 476,294 476,294 476,295 476,295 475,296 475,297 475,297 474,297 473,300 473,300 473,300 473,300 473,301 473,302 473,302 473,302 472,304 471,309 470,313 470,318 470,318 469,323 469,324 469,324 469,324 469,325 469,325 469,325 468,325 468,325 467,326 467,326 466,327 466,327 466,327 464,327 464,327 464,327 461,326 461,326 461,326 461,326 461,327 461,327 461,327 461,327 460,327 460,327 460,328 459,328 459,328 458,328 458,328 458,328 457,328 457,328 457,328 456,328 456,329 454,329 452,329 451,330 451,330 451,330 451,330 450,330 450,331 450,331 449,331 448,332 447,332 447,332 446,333 446,334 445,335 445,335 445,335 446,335 446,335 447,335 447,335 447,335 449,336 449,336 450,336 450,336 451,336 451,337 451,337 452,338 452,338 453,338 454,339 454,339 455,340 455,341 458,345 458,345 458,345 459,346 460,346 458,347 456,348 456,348 455,348 455,348 453,349 452,350 452,350 455,353 455,354 455,354 455,354 455,355 454,355 454,355 454,355 454,355 454,355 453,356 452,357 450,360 450,360 450,360 452,360 452,360 453,360 453,360 453,360 453,361 453,361 453,361 453,361 453,361 453,361 452,361 452,361 452,361 452,361 452,361 451,361 451,361 451,361 451,361 450,362 450,362 450,362 450,362 450,362 448,362 447,361 447,361 447,362 447,362 446,361 446,361 446,361 446,361 445,361 445,361 444,361 444,361 443,361 443,361 442,361 442,361 440,361 439,361 439,361 439,361 438,361 438,361 438,361 438,361 438,361 438,363 438,363 437,363 437,363 437,364 437,364 437,364 437,364 437,365 437,366 437,366 437,366 437,366 437,367 437,367 437,367 437,367 437,368 437,371 436,373 436,373 436,373 436,373 436,373 436,374 436,374 435,374 435,374 435,375 435,375 435,375 436,376 436,376 436,376 436,378 436,378 436,378 436,378 436,378 437,378 437,379 437,379 437,379 438,379 439,380 439,381 440,381 440,381 441,382 442,382 442,382 443,383 443,383 444,383 444,384 445,384 445,384 445,385 446,386 448,387 448,387 448,387 449,387 450,389 451,389 451,389 452,390 453,391 453,391 454,392 454,392 454,392 454,392 454,392 454,393 454,393 454,393 455,393 455,393 455,393 455,394 455,394 455,395 455,395 455,395 454,395 454,395 454,395 454,395 455,396 455,396 455,396 451,398 450,398 449,399 446,401 446,401 442,403 441,404 440,404 440,405 439,406 438,406 438,407 438,407 438,407 437,408 435,411 435,412 433,414 432,415 432,415 431,416 431,416 430,416 427,417 423,418 422,418 419,419 417,420 416,420 414,420 409,421 404,422 403,422 403,422 401,423 401,423 401,423 401,423 400,424 399,424 399,424 399,424 399,424 399,424 399,424 398,424 398,424 398,424 398,424 398,424 396,424 396,424 395,424 395,425 394,425 393,426 393,426 393,427 393,427 393,427 392,428 392,428 391,428 391,428 390,428 389,428 389,428 389,428 389,428 388,428 388,428 388,429 388,429 387,429 387,429 387,429 386,430 385,430 384,430 384,430 384,430 383,430 383,430 382,430 382,430 382,430 381,430 378,430 377,430 374,430 374,430 374,430 374,430 372,431 372,431 372,431 371,431 369,431 368,431 367,431 366,431 364,431 364,431 363,431 363,431 363,431 362,431 361,431 361,431 361,431 361,432 360,432 360,433 360,433 360,433 359,432 359,432 359,431 359,431 360,430 360,430 360,430 361,429 361,429 361,429 362,429 362,429 362,428 361,428 361,427 360,427 360,427 360,427 360,424 360,424 360,424 359,423 358,422 358,421 357,420 357,420 357,420 357,420 357,417 357,416 357,414 357,414 357,412 357,412 357,412 357,410 357,409 357,409 357,409 357,409 357,408 357,408 357,408 357,408 357,407 357,407 357,407 356,407 356,407 356,407 355,406 355,406 355,405 355,405 355,405 355,404 355,404 355,405 353,405 353,405 353,405 350,405 349,405 349,405 348,405 348,405 348,405 348,405 347,405 347,405 347,405 347,405 346,405 346,405 345,404 345,404 345,404 344,404 344,404 344,404 343,404 343,404 341,404 341,404 340,404 340,404 340,402 340,402 340,402 340,402 340,402 340,401 339,400 339,400 338,400 338,399 338,399 338,399 337,398 337,398 337,397 337,397 336,396 336,396 336,395 336,395 336,394 336,394 336,394 336,394 336,393 336,393 336,393 336,392 335,392 335,392 334,392 334,391 334,391 334,391 334,391 334,391 334,391 334,391 334,390 334,390 334,390 335,390 335,390 335,390 334,390 333,390 333,391 333,391 333,391 333,391 333,391 333,391 333,391 333,391 333,391 332,392 332,393 332,393 332,393 332,393 332,393 332,393 332,394 331,394 331,394 330,394 330,394 330,395 330,395 330,395 330,395 329,395 330,396 330,397 330,397 330,397 330,397 330,397 329,398 329,398 329,398 329,398 328,398 328,398 327,399 327,399 327,399 326,399 326,399 326,399 326,399 325,398 324,398 324,398 324,398 323,398 321,396 321,396 321,397 321,397 320,397 320,397 319,398 318,398 318,398 316,398 316,398 316,399 315,399 315,399 315,399 314,399 314,399 314,399 314,399 313,398 313,398 313,397 313,397 313,397 313,396 313,396 313,396 313,395 313,395 313,395 313,395 312,394 312,394 312,394 312,394 312,394 311,394 311,394 311,394 310,394 310,394 310,394 310,394 310,394 309,393 308,393 308,393 308,393 309,393 309,393 309,392 309,392 309,392 310,391 310,391 312,391 312,391 312,391 312,391 314,390 314,390 314,390 314,390 314,390 315,389 315,389 315,389 314,389 313,389 313,389 313,389 313,389 313,389 312,389 312,389 312,389 312,389 311,389 311,388 311,388 310,388 310,388 310,388 310,387 310,387 310,387 310,387 310,387 310,387 310,387 310,387 310,386 310,386 310,386 311,386 311,386 311,386 311,386 312,384 312,383 311,384 311,384 311,383 311,383 310,383 309,384 309,384 308,384 308,383 308,383 308,383 308,383 308,383 307,382 307,382 307,382 306,382 306,382 306,382 305,381 305,381 304,381 303,381 302,380 302,380 302,380 302,380 302,380 301,380 301,380 300,380 299,380 299,380 298,380 298,380 298,380 298,380 298,380 298,379 297,379 296,379 296,379 295,378 294,378 294,378 294,378 294,378 294,378 293,378 293,377 293,377 293,377 292,377 292,377 292,377 292,376 292,376 291,376 291,376 290,376 290,376 290,376 289,376 288,376 287,376 286,376 285,377 285,377 284,377 283,377 283,377 283,377 282,376 281,375 281,375 280,376 279,376 279,376 277,376 276,377 276,377 275,377 275,378 274,378 274,378 273,378 273,379 273,379 273,380 272,380 272,380 272,381 272,381 272,381 272,382 272,383 272,383 272,383 272,383 272,384 271,384 271,384 271,384 271,384 270,384 270,384 270,384 270,383 270,383 269,383 268,383 268,383 268,383 268,383 268,383 267,382 267,382 267,382 266,382 266,381 266,381 266,381 266,380 265,380 265,380 265,380 264,379 264,379 262,378 262,378 261,378 261,378 261,378 261,377 261,377 261,376 261,376 261,376 260,375 260,375 260,375 260,375 259,375 258,375 258,375 258,374 257,374 257,374 257,374 256,374 255,374 254,375 253,375 253,375 253,375 253,376 253,376 252,376 251,376 251,376 251,377 251,377 252,378 251,378 251,377 251,378 250,378 250,378 250,378 250,378 249,378 249,378 246,379 246,379 246,379 245,379 245,379 245,379 245,379 245,378 245,377 245,377 245,376 245,376 245,375 245,375 245,375 244,374 244,374 244,374 244,374 244,373 244,373 244,373 244,372 244,372 244,372 243,371 243,370 243,370 243,370 242,370 242,369 242,369 242,369 241,369 241,370 241,370 241,370 240,370 240,370 240,372 240,372 239,373 239,373 239,374 239,375 239,375 238,376 237,377 237,378 237,378 236,379 234,380 234,380 233,380 233,380 233,381 233,381 232,380 232,380 232,380 232,379 232,379 231,378 231,377 231,377 231,377 231,376 231,376 231,376 231,376 230,375 228,372 228,372 228,372 227,372 227,371 227,371 226,371 226,371 225,370 225,370 225,370 225,370 225,369 225,369 225,369 225,369 225,368 225,368 224,368 224,368 223,368 221,367 219,367 218,367 217,366 216,366 216,366 215,366 212,366 212,366 212,366 212,365 212,365 210,361 209,360 209,359 209,359 209,359 209,359 209,356 209,356 207,351 207,351 207,351 205,352 204,352 203,352 202,353 202,353 202,353 201,353 201,353 200,353 198,353 197,353 197,353 197,353 197,353 196,355 195,355 195,355 194,356 194,356 194,356 193,356 193,356 194,357 193,357 193,358 193,359 192,359 192,359 192,360 191,360 191,360 190,361 189,361 188,361 187,361 186,362 183,362 183,362 183,362 183,362 182,361 182,361 182,361 181,360 181,360 180,359 180,359 180,359 179,359 179,359 179,359 179,359 178,360 177,360 176,361 176,361 175,361 174,361 174,362 173,361 173,362 172,361 169,361 169,361 168,360 168,360 167,360 167,360 167,360 166,359 166,359 166,359 166,359 166,359 166,359 166,359 165,359 165,359 165,359 165,358 165,358 165,358 164,358 164,358 164,358 164,358 165,357 165,357 165,357 165,357 165,357 165,357 165,357 165,357 165,357 165,356 165,356 165,356 165,356 165,356 166,356 166,356 166,356 166,356 166,356 166,356 166,356 167,356 167,355 167,355 167,355 168,355 168,355 168,355 168,355 168,355 169,355 169,355 169,355 169,355 169,354 169,354 169,354 169,354 169,353 169,353 169,353 169,353 169,352 169,352 169,352 169,352 168,352 168,351 168,351 168,351 167,351 167,351 167,351 167,350 167,350 167,350 167,350 167,350 167,350 167,350 166,350 166,350 166,349 166,349 166,350 166,350 165,349 165,349 165,349 165,349 165,349 164,349 164,349 164,349 164,349 164,349 163,349 163,349 163,349 163,349 163,349 162,349 162,350 162,350 162,350 162,350 162,349 161,349 161,349 161,349 161,349 161,349 160,349 160,349 160,349 160,349 160,349 159,349 159,349 159,348 159,348 159,348 159,348 159,348 158,348 158,348 158,348 158,348 157,349 157,349 157,349 157,349 157,348 157,349 156,349 156,349 156,349 156,349 156,349 155,349 155,349 155,349 155,349 154,348 154,348 154,348 154,348 154,348 154,347 157,347 161,345 165,343 168,340 169,338 170,335 171,330 173,324 175,321 178,319 181,316 184,313 185,312 185,311 186,311 187,311 189,312 191,312 192,313 194,315 195,317 198,320 200,325 203,328 207,330 218,334 225,337 231,338 234,338 234,335 234,335 234,335 233,335 232,335 230,334 229,334 229,334 228,334 228,334 229,333 229,333 228,333 229,332 228,331 227,331 227,331 226,329 225,329 225,329 225,329 225,328 225,328 225,327 224,327 224,327 224,326 224,326 224,325 225,325 225,324 225,324 226,323 226,323 226,323 226,323 226,323 226,323 227,322 227,321 227,321 227,321 229,321 229,319 229,319 229,319 229,319 229,318 229,318 229,318 229,318 229,318 229,317 229,317 229,317 229,316 229,315 229,315 229,315 229,315 229,315 230,314 230,313 230,313 230,312 229,311 229,311 229,311 229,310 229,310 229,310 229,309 229,307 229,307 229,306 229,305 229,303 228,302 228,302 228,302 228,301 229,301 230,301 230,300 230,300 231,300 231,300 232,300 232,300 232,299 232,298 232,297 232,296 232,295 232,295 234,296 235,296 236,296 237,295 238,295 238,295 237,295 237,293 237,293 237,293 236,293 235,293 234,291 232,290 232,290 230,290 230,289 230,289 231,289 231,288 231,288 232,288 232,287 232,287 233,287 234,286 234,286 234,285 233,284 232,284 230,285 229,285 228,286 227,286 227,286 227,286 226,286 224,284 224,284 224,284 223,284 223,283 223,283 223,282 223,281 222,281 222,281 222,280 221,279 221,279 221,278 221,278 221,278 222,278 222,278 222,277 222,277 223,276 223,276 223,276 223,276 223,275 222,275 222,275 222,274 222,274 222,273 222,273 222,273 222,273 223,273 223,273 224,272 224,272 225,271 225,271 225,270 225,271 224,271 223,271 222,271 220,271 219,271 217,271 216,271 214,271 213,271 212,271 210,271 209,270 207,270 206,270 206,270 206,271 206,271 204,270 204,270 203,270 203,270 202,270 201,270 201,270 200,270 199,269 199,269 198,269 198,269 197,269 197,269 197,268 196,268 196,267 196,267 194,266 194,265 193,265 192,263 192,263 192,262 192,262 190,261 189,261 188,262 188,262 188,262 187,262 187,262 187,262 186,262 186,262 185,262 185,262 183,262 182,262 182,262 181,262 181,262 178,262 178,262 176,262 176,262 175,261 174,260 173,260 172,260 173,259 173,259 173,259 174,256 174,256 173,255 172,255 171,254 171,254 171,253 170,252 170,251 170,250 170,250 170,249 170,248 170,248 170,247 170,247 170,245 170,244 170,244 171,243 171,242 171,242 171,242 171,242 171,241 171,241 172,240 172,238 171,238 171,237 171,236 172,236 173,236 172,236 173,235 173,235 174,235 174,235 174,234 175,234 175,233 176,232 179,229 179,228 180,228 180,228 180,228 181,227 181,227 182,226 181,226 181,225 181,225 182,224 182,224 182,224 182,224 182,223 182,223 183,223 183,223 183,223 183,222 184,221 184,221 184,220 184,220 184,220 184,220 184,219 184,218 185,218 185,217 185,217 184,216 185,216 185,216 184,215 184,215 184,215 185,214 184,214 184,214 184,214 184,213 185,212 185,212 185,212 186,212 186,211 186,211 186,211 186,211 186,210 186,210 186,210 186,210 186,210 187,209 187,208 188,206 188,206 188,206 188,206 188,205 188,205 188,205 188,204 188,204 190,202 190,202 191,201 192,201 193,201 193,201 193,200 193,200 193,200 193,200 193,200 194,199 194,199 195,199 196,198 196,198 196,198 196,198 196,197 197,197 197,197 197,197 198,197 198,196 198,196 198,196 199,195 199,195 199,195 199,195 200,195 200,194 200,194 201,194 203,193 203,193 204,192 204,192 205,191 205,191 205,191 204,190 204,188 204,187 203,185 203,185 203,185 203,184 203,184 203,183 203,183 203,183 203,183 203,181 200,181 197,180 195,179 193,179 192,179 191,178 190,178 189,178 187,175 185,175 184,174 182,172 182,172 180,170 179,169 182,168 185,167 187,167 188,167 189,167 189,166 190,166 190,166 190,166 193,164 193,164 193,164 194,164 195,164 195,163 196,160 195,160 194,159 193,157 192,156 191,155 187,153 185,152 184,151 183,150 178,146 175,143 175,143 174,141 173,139 173,140 162,144 162,144 160,143 156,141 156,141 155,140 151,138 151,138 150,138 150,138 149,138 149,138 147,137 145,137 144,137 140,134 140,134 140,134 139,134 139,134 139,134 137,134 137,134 137,135 136,135 135,135 135,136 135,136 135,137 134,137 131,139 131,140 131,141 129,143 129,144 128,145 127,146 127,147 127,147 126,148 125,148 124,149 123,149 122,149 122,150 122,150 121,150 121,150 120,147 119,146 119,144 118,143 117,142 117,142 117,142 117,141 116,141 115,139 114,139 114,138 114,137 114,137 113,136 113,136 112,135 112,134 112,134 112,133 112,133 113,132 113,132 114,131 112,131 107,129 106,129 106,129 105,129 101,127 99,127 98,127 98,127 97,126 97,126 95,125 95,124 94,124 87,123 87,123 87,123 86,123 86,124 86,124 85,125 85,125 85,125 85,126 85,126 85,127 85,127 85,128 85,128 84,130 84,131 84,131 83,131 83,132 82,133 81,134 80,134 80,135 79,135 78,135 78,136 77,136 76,137 77,135 76,135 75,134 75,134 74,134 74,134 73,133 72,133 70,132 69,131 67,130 65,129 62,128 61,127 61,128 61,128 59,129 58,130 57,132 56,133 55,134 54,134 53,134 51,135 51,135 50,135 50,135 49,135 46,134 45,133 44,132 43,131 42,131 42,130 41,130 41,129 41,128 41,128 41,127 41,127 41,126 40,126 40,124 39,124 39,124 38,124 36,123 35,123 33,122 32,122 31,122 30,122 29,122 27,121 26,121 25,121 24,121 23,120 22,120 22,120 21,119 20,118 18,117 17,116 16,115 13,114 12,113 12,113 12,112 11,112 11,112 11,112 10,112 10,111 9,111 9,111 9,111 9,110 9,110 9,109 8,109 8,109 8,109 8,109 8,108 7,108 7,107 6,106 6,106 6,105 6,105 6,104 6,103 5,103 5,102 5,102 6,102 7,101 7,100 7,100 7,99 7,99 7,99 6,98 6,98 5,98 4,98 4,98 2,98 2,97 1,97 1,96 1,96 1,96 1,96 1,96 1,95 1,95 1,95 1,95 0,94 0,94 0,94" id="4712" class="canton" fill="steelblue" stroke-width="1" stroke="white" geotype="canton" geoname="Livradais" code_insee="4712" code_departement="47" nom_departement="Lot-et-Garonne" code_region="75" nom_region="Nouvelle-Aquitaine"/></svg>