<?xml version="1.0" encoding="utf-8"?>
<svg version="1.1" id="svgmap" xmlns="http://www.w3.org/2000/svg" xmlns:xlink="http://www.w3.org/1999/xlink" x="0px" y="0px" width="100%" height="100%" viewBox="0 0 500 303">
<polygon points="154,21 154,21 154,21 154,20 155,20 155,20 155,20 155,20 155,20 155,20 155,20 155,20 155,20 155,19 155,19 156,20 156,20 156,20 157,19 157,19 157,19 158,19 158,19 158,19 159,19 159,19 159,19 159,19 159,19 159,19 160,19 160,19 161,20 162,20 162,20 162,20 162,20 162,20 163,20 163,20 163,20 163,20 163,20 164,20 164,20 164,20 164,20 164,20 164,20 164,20 164,20 165,20 165,20 165,20 165,20 166,20 166,20 167,19 167,19 167,19 168,19 168,19 169,19 169,19 170,19 170,19 171,19 171,19 171,20 172,20 172,20 172,20 172,20 172,20 173,20 173,20 173,20 174,20 174,20 174,20 175,20 175,20 175,20 176,20 177,20 177,21 177,21 177,21 178,21 178,21 178,21 178,21 178,21 178,21 178,22 178,22 179,22 179,22 179,22 179,22 179,22 180,22 180,21 180,21 180,21 180,21 180,21 180,21 180,20 181,20 181,20 181,20 181,20 181,20 181,21 182,21 182,21 183,21 183,21 183,21 183,21 183,21 183,21 184,21 184,21 185,21 185,21 185,21 186,22 186,22 186,22 186,22 187,22 187,22 188,22 188,22 188,22 189,22 189,22 190,22 190,22 190,22 190,22 190,22 190,22 190,22 191,23 191,23 191,23 191,23 191,23 191,23 191,23 191,23 191,23 191,23 191,23 191,23 191,24 191,24 191,24 192,24 192,25 193,25 193,25 193,25 193,25 194,25 194,25 194,24 194,24 195,24 195,24 195,24 195,24 195,24 196,24 197,24 197,24 197,24 197,24 198,23 198,23 198,23 198,23 198,23 199,23 199,23 199,23 199,23 200,23 200,23 201,23 201,23 201,23 201,23 201,23 201,23 202,23 202,24 202,24 202,24 202,24 202,24 202,24 202,24 202,24 202,24 203,24 203,25 203,25 203,25 203,25 203,25 204,25 204,25 204,25 204,25 204,25 205,25 205,25 205,25 205,25 205,24 205,24 205,24 205,23 205,23 205,23 206,22 206,22 206,22 206,22 206,22 206,22 206,22 207,21 207,20 207,20 207,20 207,20 207,20 207,20 207,20 207,20 207,20 207,19 207,19 207,19 207,19 207,18 207,18 207,18 207,18 207,18 207,18 207,18 207,18 207,17 207,16 208,16 208,16 207,16 207,16 207,16 207,15 207,15 207,15 207,14 207,14 207,14 207,14 207,14 207,14 208,13 208,13 207,13 207,13 207,13 207,13 207,13 207,13 207,13 208,12 208,12 208,12 209,12 209,12 209,12 209,12 209,12 210,12 210,12 210,12 211,12 212,12 212,12 212,12 212,12 212,12 213,12 213,12 213,12 213,11 213,11 213,11 213,11 213,11 213,10 213,10 214,10 214,10 214,10 214,10 215,10 215,10 215,10 215,10 215,10 216,10 216,10 217,10 218,10 218,11 218,11 218,11 218,11 218,11 219,10 219,10 219,10 219,10 219,10 219,9 219,9 219,9 219,9 220,9 220,9 220,9 220,9 220,9 220,9 221,9 221,9 221,9 221,9 221,9 221,9 221,8 221,8 222,8 222,8 222,8 222,8 222,8 222,8 222,8 222,8 223,8 223,8 223,8 224,10 224,10 224,10 224,10 224,10 224,10 225,10 225,10 226,10 226,10 226,10 226,10 226,10 226,10 227,10 227,10 227,10 227,10 228,9 228,9 228,9 228,9 228,9 228,9 228,9 228,9 229,9 229,9 230,7 230,7 230,7 230,7 230,7 231,7 231,7 231,7 232,6 233,6 233,6 233,6 232,5 232,5 232,5 232,5 232,5 232,5 232,5 231,5 231,5 231,5 231,5 231,4 232,4 232,4 232,4 232,4 232,4 232,4 232,4 232,4 232,4 232,3 232,3 232,3 232,3 232,3 232,2 232,2 232,2 233,3 233,3 234,3 234,3 234,3 234,3 234,3 234,3 234,3 234,3 234,3 234,3 234,3 234,2 234,2 234,2 234,2 234,2 234,2 234,1 234,1 234,1 234,1 234,1 234,1 234,1 234,1 235,1 235,1 235,1 235,2 236,2 236,2 236,2 236,2 236,2 236,2 236,2 237,1 237,1 236,1 236,1 236,1 237,0 237,0 237,1 238,1 238,1 238,1 238,2 238,2 238,2 238,3 238,3 238,3 239,3 239,2 239,2 240,1 240,1 240,1 241,1 241,1 241,1 241,1 241,1 242,0 242,0 242,0 243,0 244,1 245,1 245,1 245,1 244,2 244,2 244,3 245,3 245,3 246,3 247,3 247,3 247,3 247,3 247,3 247,3 247,3 246,4 243,5 243,5 243,6 243,6 244,6 244,6 244,6 245,7 245,7 246,7 246,7 246,7 247,7 247,7 247,7 247,7 247,6 248,6 248,5 248,5 248,5 248,5 248,4 247,4 247,3 247,3 247,3 248,3 248,3 248,2 248,2 249,2 249,2 249,2 250,2 250,2 250,2 250,3 249,4 249,4 249,4 249,4 249,4 250,4 251,5 251,5 251,5 251,5 251,5 251,5 251,5 252,5 252,5 252,5 252,5 252,5 252,5 252,5 252,7 251,7 251,7 251,7 251,7 251,7 251,7 251,7 250,7 251,7 251,8 251,8 252,8 252,8 252,7 252,7 252,7 253,7 253,7 253,7 254,6 254,6 254,6 254,6 254,6 254,6 254,6 255,5 255,4 255,4 255,4 255,4 255,6 255,6 255,6 255,6 255,6 255,7 255,7 255,7 255,7 255,7 256,7 256,8 256,8 256,7 257,7 257,6 257,6 257,6 257,6 257,6 257,6 257,6 257,5 257,5 258,6 258,6 259,6 259,7 260,7 260,7 261,7 262,8 263,8 263,8 263,8 264,9 265,9 266,9 266,9 267,9 268,9 268,9 268,9 268,9 268,9 269,9 269,9 269,9 270,10 271,10 271,10 271,10 272,10 272,10 272,10 272,10 273,10 273,10 273,10 273,10 273,9 273,9 274,9 274,9 275,8 275,8 275,8 276,7 276,7 276,7 276,7 276,7 277,7 278,7 278,7 278,7 279,7 279,7 280,7 280,8 280,8 281,8 282,8 282,8 282,8 283,8 284,8 284,8 285,8 285,9 286,9 288,10 288,10 288,10 290,10 290,10 290,10 290,10 290,10 290,10 290,10 290,10 291,10 291,10 291,10 292,11 292,11 293,11 294,11 294,11 294,11 293,12 293,12 293,12 293,12 293,12 292,12 292,12 292,12 291,13 291,13 291,13 291,13 291,13 291,13 291,13 292,13 293,14 293,14 293,14 294,14 295,15 295,15 296,15 296,15 297,15 297,15 298,15 298,15 298,15 299,16 299,16 299,16 300,16 300,16 301,16 302,16 303,16 303,16 303,17 304,17 304,17 305,17 306,17 306,17 306,17 306,17 306,17 305,17 305,17 305,17 305,18 305,18 305,18 303,17 303,17 303,18 303,18 303,18 304,18 305,18 305,18 305,19 305,19 305,20 305,20 305,20 305,20 305,20 305,20 304,20 304,21 304,21 304,21 304,21 304,21 304,22 304,22 303,22 303,22 303,22 303,22 304,22 304,22 305,22 305,22 305,22 305,22 305,22 305,22 305,22 305,22 305,23 305,23 305,23 305,23 305,23 305,23 305,24 305,24 305,24 305,24 305,24 303,24 303,24 303,25 303,26 303,26 303,26 303,26 303,26 303,27 303,27 303,27 303,27 303,27 303,27 303,27 303,27 302,27 302,27 302,27 302,27 301,27 301,27 301,27 301,27 301,27 301,28 302,30 302,30 302,30 302,31 302,32 301,33 301,33 302,33 302,33 302,33 302,33 302,33 302,33 302,33 302,34 302,34 302,34 302,34 302,34 302,34 302,35 302,35 302,35 302,35 302,35 302,35 302,35 301,36 301,36 301,36 302,36 302,36 302,36 302,37 301,38 301,38 301,38 301,38 301,38 300,38 300,38 300,38 300,38 300,38 300,38 300,39 300,39 300,39 300,39 300,39 300,39 300,39 300,40 300,41 300,41 299,42 299,42 299,42 299,42 299,42 299,42 299,43 299,43 298,43 298,43 298,43 298,43 298,43 297,43 297,43 296,43 296,43 296,43 296,43 296,44 295,44 295,44 295,44 294,43 294,43 294,43 293,43 293,43 292,43 291,43 291,43 291,43 291,44 291,44 291,44 291,44 291,45 291,46 291,46 291,46 292,46 292,46 294,46 294,46 294,46 295,47 295,47 295,47 295,47 295,49 295,49 295,49 293,49 293,49 292,49 292,49 292,49 291,50 291,50 288,49 287,49 283,48 283,48 283,49 282,50 282,50 282,50 279,55 278,55 278,56 278,56 278,56 278,57 277,58 277,59 277,59 277,59 280,60 282,60 284,61 285,62 285,62 286,62 290,64 292,65 293,65 294,65 295,66 295,66 296,66 297,67 297,67 298,67 298,67 300,68 300,68 300,68 301,69 301,69 302,69 302,69 303,69 303,69 303,69 304,69 304,69 305,69 305,69 306,69 307,69 307,69 308,70 308,70 308,70 309,70 310,70 310,70 310,70 310,70 310,70 310,70 311,70 311,70 311,70 311,70 311,70 312,70 312,70 313,70 313,70 313,70 312,71 312,71 312,71 312,72 312,72 312,72 311,73 311,73 311,73 311,73 311,73 313,73 313,73 314,73 315,73 316,73 316,73 316,73 316,73 316,72 316,72 317,72 317,72 317,72 317,72 317,73 317,73 317,73 317,74 317,74 317,74 316,74 316,74 316,74 316,75 316,75 316,75 316,75 316,75 316,75 316,76 316,76 316,76 316,76 316,76 317,77 317,77 317,77 317,78 317,78 317,79 317,79 318,79 318,79 318,79 318,78 318,78 318,78 319,78 319,78 319,78 319,78 319,78 319,78 320,78 320,78 320,78 320,78 320,78 320,78 321,78 321,78 321,78 321,78 321,77 321,77 322,77 322,78 322,78 323,78 323,78 323,78 323,78 323,78 325,78 325,78 325,78 325,79 325,79 325,79 326,80 326,80 326,80 326,80 327,80 327,80 327,80 327,80 327,80 328,80 328,80 328,80 328,80 329,80 329,80 329,80 329,80 329,81 329,81 329,81 329,81 329,81 329,81 330,81 330,81 330,81 330,81 331,82 331,82 331,82 331,82 331,82 331,82 331,83 331,83 331,83 331,83 331,83 331,84 331,84 331,84 331,84 331,84 331,84 331,84 331,84 332,84 332,84 332,84 333,85 333,86 333,86 333,86 333,86 333,86 333,86 333,86 333,86 333,86 333,86 332,86 332,86 332,86 332,87 331,87 331,87 331,87 331,88 330,88 330,88 330,88 330,89 330,89 330,90 330,90 330,91 330,91 331,91 331,91 330,91 331,91 331,91 331,91 331,91 331,92 331,92 331,92 331,93 331,94 331,94 331,94 331,94 331,94 331,94 331,95 331,95 331,95 332,96 332,96 332,96 332,96 332,97 333,97 333,97 333,97 333,97 333,97 333,97 333,97 333,97 333,97 333,98 333,98 333,98 333,98 333,98 332,99 332,100 332,100 332,100 332,100 332,100 332,101 331,101 331,101 331,101 329,101 329,101 329,101 329,100 329,100 329,100 327,100 327,100 327,100 327,100 327,100 327,101 327,101 328,102 328,102 328,102 328,102 328,102 328,103 328,103 328,103 328,103 329,103 329,103 329,104 329,104 330,105 330,105 330,105 330,105 330,105 330,105 329,105 329,105 329,105 329,106 329,106 329,106 328,106 328,106 328,106 328,106 327,106 326,106 326,106 325,106 325,106 325,106 325,106 325,107 324,109 324,109 323,108 323,108 323,109 323,109 323,109 322,110 322,110 322,110 322,110 322,110 322,111 322,111 322,111 321,111 320,111 320,111 320,111 320,111 319,111 318,110 318,110 318,111 318,111 318,111 318,111 318,111 318,111 318,111 318,112 318,112 318,112 318,112 318,112 318,112 318,112 318,112 317,112 316,112 316,112 316,112 316,112 316,112 316,111 316,111 316,111 316,111 316,111 316,111 316,111 316,110 317,110 317,110 317,110 315,110 315,110 315,110 315,110 314,110 314,109 314,109 314,109 314,109 314,109 313,109 313,109 313,109 313,109 313,109 312,110 312,110 312,110 311,109 311,109 311,110 310,110 310,110 310,110 310,110 310,110 310,110 310,111 310,111 310,111 310,111 310,111 310,111 309,112 309,112 309,112 309,112 309,112 309,113 309,113 309,113 308,113 308,113 308,113 308,113 307,114 307,114 307,114 307,114 307,114 307,114 307,114 307,114 307,114 307,114 307,114 307,115 307,115 306,115 306,115 306,115 306,115 306,116 306,116 306,116 306,116 306,116 306,116 306,116 306,116 306,117 306,117 306,117 306,117 306,117 305,117 305,118 305,118 305,118 305,118 305,118 305,118 305,119 305,119 305,119 305,119 305,119 304,119 304,120 304,120 304,120 304,120 304,120 305,120 305,120 305,120 305,120 305,122 305,122 304,122 304,122 304,122 304,122 304,122 304,122 305,123 305,123 305,123 305,123 305,124 305,124 305,124 305,124 305,124 305,124 304,125 304,125 304,126 304,126 304,126 303,126 303,126 303,126 302,127 302,127 302,127 302,127 303,127 303,127 303,127 303,127 303,127 304,128 304,128 304,128 304,128 304,128 305,127 305,127 305,127 305,127 306,127 306,127 307,127 308,127 308,127 308,127 309,127 311,127 312,126 312,126 312,126 312,126 313,127 313,128 313,128 313,128 314,128 314,128 314,128 314,128 314,129 314,129 314,129 314,129 315,130 315,130 315,130 315,130 316,131 316,131 316,131 316,131 316,132 316,132 316,132 316,132 316,133 316,133 316,133 316,133 316,134 316,134 316,134 316,135 316,135 316,135 317,135 317,136 317,136 317,136 317,136 317,136 317,136 317,136 317,136 317,136 318,136 318,137 318,137 318,137 319,137 319,137 319,137 320,137 320,137 321,138 321,138 321,138 321,138 321,138 322,139 322,139 323,139 323,139 322,140 322,140 322,140 322,140 322,140 322,140 322,140 322,141 321,141 321,142 321,142 321,142 321,142 321,142 321,143 321,143 321,143 320,143 320,143 320,143 320,143 320,143 319,143 319,143 318,143 318,143 317,143 317,143 316,144 316,144 316,144 316,144 315,144 315,144 315,144 315,144 315,144 315,144 314,143 314,143 314,143 314,143 314,143 314,143 314,143 314,143 314,143 314,143 313,143 313,143 313,143 313,143 313,143 313,143 313,143 313,143 312,143 312,143 312,143 311,143 311,143 311,143 311,143 311,143 311,143 311,142 311,142 310,142 310,142 310,142 309,142 309,142 308,143 308,143 308,143 307,143 307,143 306,143 306,143 306,143 307,143 307,143 307,144 307,145 307,145 307,145 307,145 307,145 307,146 307,146 308,148 308,148 308,148 308,148 308,149 308,150 308,151 308,151 308,153 308,153 308,153 308,153 308,153 309,153 311,153 312,152 313,152 314,152 315,152 315,152 315,152 316,152 316,152 317,152 318,152 318,152 319,152 319,151 319,151 320,152 321,151 321,151 321,151 322,151 322,151 323,151 324,151 324,151 324,152 324,153 324,153 324,154 324,154 324,154 324,155 324,155 324,155 324,155 324,155 324,155 325,155 325,155 325,155 326,156 326,156 327,156 328,156 328,156 328,157 328,157 328,157 329,157 329,157 329,157 329,157 329,157 330,158 330,158 331,158 331,158 331,158 331,158 332,159 332,159 332,159 334,161 334,161 334,161 334,161 334,161 335,161 337,163 337,163 337,163 337,163 337,163 338,162 338,162 338,162 340,163 340,163 340,163 341,163 341,163 341,163 342,164 342,164 342,164 343,164 344,164 344,164 346,164 346,164 346,164 347,164 347,164 347,164 347,164 347,164 347,164 348,163 348,163 348,163 349,163 349,163 349,162 350,162 350,162 351,162 351,162 352,162 353,162 353,162 354,162 354,162 354,162 357,162 358,163 359,163 359,163 361,163 361,163 361,163 362,163 362,164 363,164 363,164 363,164 363,164 363,164 363,164 363,164 364,165 365,166 365,166 365,167 365,167 365,167 366,167 366,167 366,167 366,167 367,167 367,167 367,167 367,167 368,168 368,169 368,169 368,169 368,170 369,170 369,170 370,171 370,171 371,171 371,171 372,172 372,172 372,172 373,172 373,173 373,173 373,173 373,174 373,177 373,177 373,177 373,177 373,177 372,177 372,177 372,177 372,177 372,177 372,177 372,177 372,177 372,177 372,177 372,177 372,177 372,177 371,177 371,177 370,178 370,178 370,178 369,178 369,178 369,178 369,178 367,179 367,179 367,179 367,179 368,180 371,180 377,181 379,185 378,187 381,189 381,190 382,195 382,197 381,198 382,199 382,199 383,199 384,199 385,199 386,199 387,199 387,199 388,199 389,199 391,200 392,200 394,200 395,201 396,201 396,201 396,201 397,201 398,201 399,202 400,202 400,202 401,202 402,203 401,203 400,204 399,204 399,205 398,205 398,206 398,208 399,208 399,208 399,208 402,212 402,212 404,214 404,215 403,216 402,217 398,217 397,218 394,219 393,220 395,220 398,219 403,220 405,221 407,220 411,220 415,218 417,217 423,216 426,215 428,214 430,213 432,212 433,212 433,211 434,211 434,211 435,210 436,210 436,210 436,209 439,207 439,206 440,206 441,204 442,203 442,203 443,202 443,202 444,200 444,200 445,199 445,199 445,198 445,198 445,198 446,196 446,196 448,194 448,194 449,194 449,193 451,190 451,190 453,188 455,185 457,183 459,181 460,181 460,180 461,179 462,179 463,178 463,178 463,177 464,177 464,177 464,176 465,176 465,176 465,176 465,176 466,176 466,175 466,175 466,175 467,175 467,175 468,174 469,174 469,174 470,174 470,173 471,173 471,173 472,173 472,173 474,173 476,175 476,175 476,177 476,177 476,177 476,177 476,177 476,178 476,178 476,178 476,178 476,178 476,178 476,178 477,178 476,179 476,179 476,179 476,180 476,180 476,180 477,180 477,180 477,180 477,180 477,180 477,180 477,181 477,181 477,181 477,182 477,182 478,182 478,183 478,183 478,183 478,184 478,184 478,184 476,185 476,185 477,186 477,186 477,186 477,186 477,187 477,187 477,187 477,187 477,187 477,187 477,187 477,187 477,187 476,188 475,188 475,188 475,188 474,188 473,189 473,189 472,190 472,190 472,190 472,190 471,190 471,190 471,190 470,190 470,190 470,191 470,191 470,191 470,191 470,191 470,191 470,192 470,192 470,192 473,194 473,194 473,194 473,194 472,195 472,195 473,195 473,196 474,196 474,196 474,196 474,196 475,196 475,196 475,197 475,197 475,197 475,197 475,197 475,197 475,197 474,197 474,197 474,197 474,197 474,197 473,197 473,197 473,197 473,198 473,198 473,198 473,198 473,198 473,198 473,198 473,198 473,198 473,198 473,198 473,198 474,199 474,199 474,199 474,199 474,199 474,200 475,200 475,200 475,201 475,201 476,203 477,203 477,204 477,204 478,204 478,204 478,204 478,204 478,204 478,204 479,204 479,205 479,205 479,205 479,205 480,205 480,206 480,206 481,206 481,206 481,207 481,207 481,207 482,207 482,207 482,207 482,207 482,207 482,207 482,208 482,208 482,208 482,208 482,208 482,209 482,209 482,209 482,209 482,210 482,211 483,212 483,212 482,213 482,213 482,214 482,214 482,214 482,214 482,214 482,215 482,215 482,215 483,215 483,215 483,215 484,216 484,216 485,216 485,216 485,216 486,216 486,216 486,216 486,216 486,216 487,216 487,216 487,217 487,217 487,217 488,218 488,218 488,218 488,219 489,219 489,219 489,219 489,219 489,220 490,220 490,220 490,220 490,220 491,222 491,222 491,222 491,222 491,222 492,222 492,222 492,222 494,224 494,224 494,224 494,224 494,224 494,224 494,224 494,224 495,225 495,225 495,225 495,225 496,226 496,226 496,226 497,226 497,226 497,226 497,226 497,226 498,227 498,227 498,227 498,227 498,227 498,227 498,227 499,227 499,227 500,227 500,227 500,228 500,228 500,229 500,229 500,229 500,230 499,231 499,231 499,231 499,231 499,231 498,232 498,232 498,233 498,233 498,233 498,234 498,234 498,234 497,234 497,234 497,235 496,236 496,236 495,236 495,236 495,236 495,237 494,237 494,237 494,237 493,238 493,238 493,238 493,239 493,239 492,239 492,239 492,239 492,239 491,239 490,240 490,240 490,240 489,240 489,240 489,240 488,240 488,240 488,240 488,241 488,241 488,241 488,241 488,241 487,241 487,242 486,242 486,242 486,242 486,242 486,242 486,242 486,242 486,242 485,242 485,242 485,242 485,243 485,243 485,243 484,244 484,244 484,244 484,245 483,246 483,246 483,247 483,248 483,248 483,248 483,248 483,248 483,248 483,248 483,249 484,249 484,249 483,249 484,249 484,250 483,250 483,250 483,250 483,250 484,250 484,250 484,250 484,251 484,251 484,251 483,251 483,251 483,250 483,250 483,250 483,250 483,250 483,250 483,250 483,250 483,250 483,250 483,250 483,250 483,250 483,250 483,250 483,250 483,250 483,250 483,250 483,250 483,250 482,250 482,250 482,250 482,250 482,250 482,249 482,249 481,249 481,249 481,249 481,249 481,249 481,250 481,250 481,250 481,250 481,250 481,250 480,250 480,251 480,251 480,251 480,251 480,251 480,251 480,251 480,251 480,250 480,250 480,250 479,250 479,250 479,250 479,250 479,250 477,253 477,254 476,254 476,254 475,256 475,259 475,259 473,259 471,259 470,260 469,260 468,260 468,260 467,260 466,260 464,260 464,260 463,260 459,260 456,260 454,260 453,259 450,259 446,258 445,258 444,259 444,259 442,261 441,262 442,263 440,264 440,265 439,265 439,265 440,266 440,267 438,268 438,269 437,269 436,271 436,271 437,273 437,273 437,274 436,275 436,276 435,275 434,275 434,276 434,276 433,277 432,277 432,278 431,278 428,278 427,278 426,277 425,276 424,275 424,275 423,274 423,274 422,274 421,275 420,276 420,276 419,277 418,277 416,279 415,280 414,282 413,284 413,284 410,290 410,291 409,291 409,291 406,292 405,293 405,293 404,293 402,294 400,295 400,296 398,296 397,297 397,297 396,298 396,298 396,299 393,302 392,302 389,302 389,303 387,303 387,303 387,303 387,302 386,301 386,301 385,301 385,300 385,300 384,300 384,299 383,299 383,299 383,298 382,298 381,298 380,297 380,297 380,296 379,295 379,295 378,295 375,295 375,294 374,293 374,292 372,291 372,291 370,290 369,289 367,289 366,288 366,288 366,287 361,286 361,286 360,285 360,285 359,285 359,285 358,284 357,284 357,284 354,284 354,283 353,282 353,281 353,281 353,280 352,279 351,280 350,280 349,280 349,280 346,281 345,282 344,283 343,282 343,283 342,283 341,282 341,282 340,282 339,282 339,282 339,282 339,281 339,281 340,280 340,279 339,278 339,278 339,278 339,277 338,278 338,278 336,279 336,279 336,279 334,280 333,280 332,281 329,280 329,280 328,282 327,282 324,281 323,282 323,282 322,282 321,283 321,283 320,283 320,283 320,283 319,283 318,283 318,283 317,283 316,283 314,283 313,284 313,284 311,283 310,284 309,284 308,284 307,285 304,286 304,286 303,286 303,286 302,286 301,286 301,286 300,287 299,287 298,287 298,287 297,287 297,287 297,286 297,285 297,285 297,284 297,284 297,284 295,283 294,283 294,282 294,282 293,280 293,279 293,279 292,278 293,277 291,276 291,275 289,275 288,273 287,273 286,273 285,273 285,273 285,273 284,273 282,273 279,273 278,272 278,271 277,270 276,270 275,269 276,268 275,267 274,267 273,267 271,267 270,266 269,266 268,265 268,266 267,266 265,267 265,267 265,267 264,268 263,268 263,268 262,268 261,268 262,267 260,266 261,265 261,264 262,263 260,262 259,263 258,263 257,262 256,260 255,260 254,258 251,258 249,258 248,259 248,259 249,260 249,260 250,260 251,261 251,261 252,261 251,262 250,263 249,263 249,263 249,264 245,266 244,264 241,263 242,261 242,260 242,259 243,259 243,259 243,258 242,258 242,257 241,257 239,255 238,255 238,255 238,254 238,254 237,253 238,253 239,253 240,253 240,253 242,252 242,251 242,250 242,250 243,250 243,250 244,249 244,249 246,248 247,246 247,246 248,245 248,245 248,244 248,243 248,243 248,243 248,243 248,242 248,242 248,240 248,240 248,239 248,239 249,238 249,238 248,237 248,235 248,235 248,235 247,235 247,234 248,233 247,233 248,232 248,232 248,231 249,231 249,230 249,230 249,230 250,229 250,229 250,229 250,229 251,228 250,228 251,227 251,227 252,227 252,227 253,227 252,226 254,225 254,225 251,224 251,223 251,223 251,222 250,220 249,220 251,218 249,217 247,215 245,215 242,214 239,213 237,213 237,213 235,212 233,211 231,210 230,208 229,208 227,207 226,206 225,205 223,205 222,205 222,205 222,204 222,203 223,203 224,203 224,203 226,199 225,199 225,199 224,198 223,198 223,198 222,197 220,196 218,195 216,195 216,194 216,194 214,194 212,194 210,194 208,193 208,193 208,192 207,192 207,192 207,192 207,192 207,192 207,192 207,192 207,192 207,192 207,192 206,191 206,191 206,191 206,191 205,191 205,191 205,191 205,190 205,190 203,189 203,189 203,189 203,189 202,189 202,189 201,189 200,189 200,189 200,189 199,189 199,189 199,188 198,188 198,188 198,188 198,188 197,188 197,188 197,188 196,188 196,188 196,188 196,188 195,188 195,188 194,188 194,188 194,188 193,188 193,188 193,188 193,188 193,188 193,188 193,188 193,187 193,187 193,187 193,187 193,187 193,187 193,187 193,187 193,187 192,186 192,186 192,186 192,186 192,186 190,185 190,185 190,185 189,185 188,185 188,185 185,186 185,186 185,186 185,186 184,186 184,186 182,186 182,186 181,186 181,186 181,186 180,185 180,185 179,185 179,185 179,185 178,185 178,185 178,185 178,185 177,185 177,185 177,185 177,185 176,185 176,185 175,185 175,184 175,184 175,184 175,184 175,184 174,183 174,183 174,183 173,183 173,183 173,183 172,183 172,182 172,182 172,182 171,182 171,182 171,182 171,182 170,182 170,182 170,182 170,182 169,182 169,182 168,182 167,182 167,182 167,182 166,182 166,182 166,182 166,182 165,182 165,181 165,181 164,181 164,181 164,181 164,181 164,181 163,181 162,181 162,181 162,182 161,182 161,182 160,182 160,182 160,182 159,183 159,183 159,183 159,183 159,183 159,183 158,183 158,183 157,183 156,183 156,183 155,184 154,186 149,185 148,184 147,184 146,185 145,185 144,185 141,185 140,186 139,186 139,186 138,186 138,186 138,186 138,186 137,186 137,186 136,186 136,187 135,187 135,188 133,188 132,188 132,189 132,189 132,188 130,187 129,185 129,185 128,185 128,184 128,184 127,183 127,182 126,182 125,181 124,180 123,180 123,180 123,179 123,179 123,179 122,178 122,178 122,178 122,178 121,178 121,178 121,178 121,178 121,178 120,177 120,177 120,177 119,177 119,177 119,177 118,177 118,177 118,176 118,176 117,176 117,176 117,176 116,176 116,176 116,175 115,174 115,174 115,174 115,173 114,173 114,172 114,172 113,171 113,171 113,171 113,170 112,170 112,170 112,170 112,170 112,170 112,169 111,168 110,168 110,168 109,167 109,167 109,167 109,167 106,166 106,166 106,166 105,166 105,165 105,165 105,165 105,165 105,165 105,165 105,165 105,164 105,164 105,164 105,164 105,163 105,163 105,163 104,163 105,163 104,162 104,161 104,161 104,161 104,161 104,161 104,161 105,160 105,160 105,160 105,159 106,159 106,159 106,159 106,158 106,158 106,158 106,158 106,158 106,157 106,157 106,157 106,157 106,157 106,157 106,157 106,157 106,157 106,157 106,157 106,156 106,156 106,156 106,156 105,155 104,155 104,155 104,154 103,154 103,154 103,154 103,153 102,153 102,153 101,152 100,152 100,152 100,151 100,151 100,151 100,151 100,151 100,151 100,151 100,151 100,151 100,151 100,151 100,150 100,150 100,150 99,149 99,149 100,149 99,149 99,149 100,149 100,149 100,149 100,148 100,148 100,148 100,148 100,147 100,147 100,147 100,147 100,146 100,146 100,146 100,146 99,146 99,145 99,145 99,144 99,144 99,144 98,142 98,142 99,142 99,142 99,142 99,142 99,141 99,141 99,140 99,139 100,136 100,135 100,135 100,135 100,135 100,135 100,135 100,135 100,135 100,135 100,134 100,134 100,134 100,134 100,134 100,133 100,133 100,133 100,133 100,133 100,133 100,133 100,132 100,132 100,132 100,132 100,132 100,132 100,132 99,131 99,131 99,131 99,131 99,131 98,131 98,131 98,131 98,130 98,130 97,128 97,128 97,128 97,128 96,128 95,127 95,126 94,126 94,126 93,126 93,126 93,126 93,126 93,126 93,126 93,125 93,125 93,125 93,125 93,125 92,125 92,125 92,124 92,124 92,124 92,124 92,123 92,123 91,122 91,122 91,122 91,122 91,122 91,121 91,121 91,121 90,121 90,121 90,121 89,120 88,119 88,119 88,119 88,119 88,119 88,119 87,119 87,119 87,119 87,118 87,118 87,118 87,118 87,118 86,117 86,117 86,116 85,116 85,115 85,114 85,114 85,114 85,114 85,114 84,115 84,115 84,115 84,115 84,115 84,115 84,115 83,112 83,112 84,111 84,110 84,108 85,107 86,106 88,104 90,102 91,102 92,101 93,101 92,100 91,98 89,97 89,95 87,92 87,91 86,90 86,89 86,89 84,88 84,88 82,89 81,88 80,88 79,88 78,89 77,89 76,90 75,90 73,90 72,91 70,91 70,91 67,91 64,92 63,91 60,91 59,91 57,91 56,91 55,90 53,90 52,91 52,91 52,91 52,91 51,92 50,92 50,92 48,92 48,92 44,92 44,93 43,93 40,92 39,91 39,92 37,92 36,92 36,92 35,91 35,91 34,90 33,89 30,88 29,87 27,85 27,85 26,85 26,84 25,82 24,81 23,80 22,80 21,80 19,79 17,79 15,78 14,77 12,76 6,75 2,75 2,75 1,73 1,73 1,73 1,73 1,73 1,72 1,71 1,71 1,71 1,70 1,70 1,70 1,69 0,68 0,68 0,68 0,68 0,67 0,67 0,67 0,67 0,67 0,66 1,66 1,66 1,65 1,64 1,64 1,64 1,64 1,63 1,63 2,63 2,62 2,62 2,62 2,62 3,59 3,59 3,59 3,59 4,59 4,59 4,58 4,57 4,56 4,55 4,55 4,55 4,55 4,55 4,54 4,54 4,54 5,54 5,54 5,54 5,54 5,54 6,53 6,53 6,54 7,53 7,54 7,54 7,53 7,53 7,53 7,53 7,53 7,53 7,52 7,52 7,52 7,52 7,52 7,52 7,52 6,52 6,52 6,50 6,50 6,50 6,50 7,50 7,50 7,49 7,49 7,49 7,49 7,49 7,49 7,49 7,48 7,48 7,48 7,48 8,48 8,48 8,48 8,47 8,46 8,46 8,46 7,46 7,46 7,46 7,46 8,45 8,44 8,44 8,44 7,44 7,44 7,44 7,43 7,43 7,42 7,42 8,43 8,43 8,43 9,41 9,41 9,41 8,39 8,39 8,39 8,39 8,39 8,39 8,39 7,39 7,39 7,39 7,39 7,39 7,39 7,39 7,39 7,39 7,38 7,38 7,38 7,38 7,38 7,37 7,37 8,37 8,37 8,37 8,37 8,37 7,36 7,36 7,35 6,35 6,35 6,35 6,35 6,35 6,35 6,35 6,34 6,34 6,34 7,34 7,34 7,34 7,33 7,33 8,33 8,33 8,33 8,33 8,33 8,33 8,33 8,32 8,32 8,32 8,31 8,31 8,31 8,30 8,30 8,30 8,30 8,30 8,30 8,29 7,29 7,29 8,29 8,29 8,29 8,29 8,29 8,29 8,28 8,28 8,28 8,28 9,28 9,28 9,28 8,27 8,27 9,27 9,27 9,28 10,28 10,28 10,27 10,27 10,27 11,27 11,27 11,27 11,27 11,27 11,27 12,26 12,25 12,25 13,25 13,25 13,26 13,26 14,26 14,26 14,26 14,26 14,26 14,26 15,26 15,26 15,26 15,26 15,26 15,26 16,26 16,26 16,26 16,26 17,26 17,26 17,26 17,26 17,26 18,26 18,26 18,26 18,26 18,26 19,26 19,26 19,26 19,26 19,26 19,26 19,27 20,27 20,27 20,27 20,27 21,27 21,27 21,27 22,27 22,27 22,27 23,27 23,27 23,27 23,27 23,27 23,27 23,27 24,27 24,27 24,27 24,27 24,27 24,27 24,27 24,26 24,26 24,25 25,25 25,25 25,25 26,25 26,25 26,25 26,25 26,25 26,25 26,26 27,26 27,26 27,25 27,25 27,25 27,25 27,25 27,25 28,25 28,25 28,24 29,24 30,24 30,24 30,24 30,24 30,24 31,24 31,24 31,24 32,24 32,24 33,24 33,24 33,24 33,24 33,24 32,23 32,23 31,23 31,23 31,23 30,22 30,22 30,22 30,22 29,22 29,22 29,22 29,22 29,21 29,20 29,20 29,20 29,20 29,20 30,20 30,20 30,20 30,20 30,20 30,20 30,20 30,20 31,20 31,20 34,20 35,19 35,19 36,19 37,19 39,19 39,19 39,19 40,19 40,19 40,19 40,19 41,19 41,19 42,20 42,20 42,20 42,20 42,19 42,19 42,19 42,19 42,19 42,19 42,19 42,19 42,19 42,19 42,19 41,19 41,19 41,19 41,18 41,18 41,18 41,18 41,18 41,18 41,18 41,18 42,18 42,18 42,18 42,18 42,17 42,17 43,17 43,17 43,17 43,17 44,17 44,17 44,17 45,17 45,17 46,17 46,17 46,17 47,17 47,17 47,17 48,17 48,17 48,17 48,17 49,17 49,16 49,16 49,16 49,16 49,16 49,16 49,16 50,16 50,16 50,16 50,16 50,16 50,16 51,16 51,16 51,16 51,16 51,16 51,16 51,16 51,16 51,16 51,16 51,16 51,16 52,16 52,16 52,17 53,17 53,17 53,17 53,17 53,17 53,17 53,17 54,17 54,17 54,17 54,17 54,17 54,17 54,17 54,17 54,17 54,17 54,17 54,17 54,17 54,17 54,17 54,17 54,17 54,17 54,17 55,17 55,17 55,17 55,17 54,17 54,17 54,17 54,18 54,18 54,18 54,18 54,18 55,18 55,18 54,18 54,18 54,18 55,18 55,18 55,18 54,18 54,18 54,18 55,19 54,19 55,19 55,19 55,19 55,19 55,19 55,19 55,19 55,19 56,19 56,19 56,19 56,19 56,19 56,19 56,19 56,19 56,20 56,20 57,20 57,20 57,20 57,20 57,20 57,20 57,20 58,20 58,20 58,20 58,20 58,20 58,20 58,20 58,20 58,20 58,20 59,20 59,20 59,20 59,20 59,20 59,20 59,20 59,20 59,20 59,20 59,20 59,21 59,21 60,21 60,20 60,20 60,21 60,21 60,21 60,21 60,20 60,20 61,20 61,21 61,21 61,20 61,20 61,20 61,20 61,21 62,21 62,21 62,21 62,21 62,21 62,21 62,20 63,20 63,20 63,20 63,20 63,20 63,20 63,21 63,21 64,21 64,21 64,21 64,21 64,21 64,21 64,21 64,21 65,21 65,20 65,20 65,21 65,21 65,21 65,21 65,21 66,21 66,21 66,21 66,21 66,21 66,21 67,21 67,21 67,21 67,21 67,21 67,21 67,21 67,21 68,21 68,21 68,21 68,21 68,21 68,21 68,21 68,21 68,21 68,21 68,21 68,21 69,21 69,21 69,21 69,21 69,21 69,22 70,22 70,22 70,21 70,21 70,21 70,21 70,22 70,22 70,22 70,22 70,22 70,22 71,22 71,22 71,22 71,22 71,22 71,22 71,22 71,22 71,22 72,22 72,22 72,22 72,22 72,22 72,22 72,22 72,22 72,22 72,22 72,22 72,22 72,22 72,22 73,22 73,22 73,22 73,22 73,22 73,22 73,22 73,22 73,22 73,22 74,22 74,22 74,22 74,22 74,22 74,22 74,22 74,22 74,22 74,22 75,22 75,22 75,22 75,22 75,22 75,22 75,22 75,22 75,22 75,22 76,22 76,22 76,22 76,22 76,22 76,22 76,22 76,22 76,22 76,22 76,22 77,22 77,22 77,22 77,22 77,22 77,22 77,22 78,22 78,22 78,22 78,22 78,22 78,22 78,22 78,22 79,22 79,22 79,22 79,22 80,22 80,22 80,22 80,22 80,22 80,22 80,22 80,22 80,22 80,22 80,22 81,22 81,22 81,22 81,22 81,22 81,22 81,22 82,22 82,22 82,22 82,22 82,22 82,22 83,22 83,22 83,22 83,22 83,22 83,22 83,22 84,22 84,23 84,23 84,23 84,23 84,23 84,23 84,23 85,23 85,23 85,23 86,23 86,23 86,23 86,23 86,23 86,23 86,23 86,23 86,23 86,23 86,23 86,23 87,23 87,23 87,23 87,23 87,23 88,23 88,23 88,23 88,23 88,23 88,23 89,23 89,23 89,23 89,23 89,23 89,23 89,23 89,23 90,23 90,23 90,23 90,23 90,23 90,23 90,23 90,23 90,23 90,23 91,23 91,23 91,23 91,23 91,23 91,23 91,23 91,23 91,23 92,23 92,23 92,23 92,23 92,23 93,23 93,23 93,22 93,22 93,22 93,23 93,23 93,22 94,22 94,23 94,23 94,23 94,23 94,23 94,23 94,23 94,22 95,23 95,23 95,22 95,22 95,22 95,22 96,22 96,22 96,22 96,22 96,22 96,21 96,21 96,21 96,21 96,21 96,21 96,21 96,21 96,21 97,21 97,21 97,21 96,21 96,20 96,20 96,20 97,20 97,20 97,20 97,20 97,20 97,21 98,21 98,21 98,21 98,21 98,20 98,20 98,20 98,20 98,20 98,20 98,20 98,20 98,20 98,20 99,20 99,20 99,20 99,20 99,20 99,20 99,20 99,20 99,20 100,20 100,20 100,20 100,20 100,19 100,19 100,19 100,20 101,20 101,20 101,19 101,19 101,19 101,19 102,19 102,20 102,20 103,19 103,19 103,19 103,20 103,20 103,20 103,20 104,20 104,20 104,20 104,20 104,20 105,20 105,20 105,20 105,20 105,20 106,20 106,20 107,20 107,20 107,20 107,20 107,20 107,20 107,20 107,20 107,20 107,20 107,20 107,20 107,20 108,20 108,20 108,20 108,21 108,21 108,21 109,21 109,21 109,21 109,21 109,21 109,21 110,21 110,21 110,21 110,21 110,21 110,21 110,21 110,21 110,21 111,21 111,21 111,21 111,21 111,21 111,21 111,21 111,21 111,21 112,21 112,21 112,21 113,21 113,21 113,21 113,21 113,21 113,21 114,21 114,22 114,22 114,22 114,22 115,22 115,22 115,22 115,22 115,22 115,22 115,22 115,22 115,22 116,22 116,22 116,22 116,22 116,22 116,22 116,22 117,22 117,22 117,22 117,22 117,22 117,22 117,22 117,22 117,22 117,22 118,22 118,22 119,22 119,22 119,22 119,22 119,22 119,22 119,22 119,22 119,22 119,22 119,22 119,22 120,22 120,22 120,22 120,22 121,22 121,22 121,22 121,22 122,22 122,22 123,22 123,22 123,22 124,22 124,22 124,22 124,22 124,22 124,22 124,23 124,23 124,23 124,23 124,23 124,23 124,23 124,23 124,23 124,23 124,23 124,23 124,23 124,24 124,24 125,24 125,24 125,24 125,24 125,24 125,24 125,24 125,24 125,23 126,23 126,23 126,23 126,23 127,23 127,23 127,23 128,23 128,23 128,23 128,23 129,23 129,23 129,23 129,23 131,23 131,23 131,23 132,23 132,23 132,23 132,23 132,23 132,23 132,23 132,23 133,23 133,23 133,23 133,23 133,23 133,23 133,23 133,23 133,23 133,23 134,23 134,23 134,23 134,23 134,23 134,23 134,23 135,23 135,23 135,23 135,23 135,23 135,23 135,23 135,23 135,23 136,23 136,23 136,23 136,23 137,23 137,23 137,23 137,23 137,23 138,23 138,23 138,23 139,23 139,23 139,23 139,23 140,23 140,23 140,23 140,23 140,23 140,23 140,23 140,23 140,23 140,23 140,23 140,23 140,23 140,23 140,23 140,23 141,23 141,23 141,24 141,24 141,24 141,24 141,24 141,23 141,23 141,23 142,23 142,23 142,23 142,23 142,23 142,23 142,23 142,23 142,23 143,23 143,23 144,23 144,23 144,23 144,23 145,23 145,23 145,22 146,22 146,23 146,23 147,22 147,22 147,22 147,22 147,22 148,22 148,22 148,22 148,22 148,23 148,22 148,22 149,22 149,22 149,22 149,22 149,22 149,22 149,22 149,22 149,22 150,22 150,22 150,22 150,22 150,22 150,22 150,22 151,22 151,22 151,22 151,22 151,22 151,22 151,22 151,22 152,22 152,23 152,23 152,23 152,23 152,23 153,23 153,23 153,22 153,22 153,22 153,22 153,22 153,22 153,22 153,22 153,22 153,22 153,21 153,21 153,21 153,21 154,21 154,21 154,21 154,21" id="4910" class="canton" fill="steelblue" stroke-width="1" stroke="white" geotype="canton" geoname="Chalonnes-sur-Loire" code_insee="4910" code_departement="49" nom_departement="Maine-et-Loire" code_region="52" nom_region="Pays de la Loire"/></svg>