<?xml version="1.0" encoding="utf-8"?>
<svg version="1.1" id="svgmap" xmlns="http://www.w3.org/2000/svg" xmlns:xlink="http://www.w3.org/1999/xlink" x="0px" y="0px" width="100%" height="100%" viewBox="0 0 500 224">
<polygon points="271,1 273,0 277,3 282,5 300,16 300,16 314,25 314,25 314,25 314,25 315,25 315,25 315,25 315,25 315,25 315,25 315,25 315,25 315,25 315,25 315,25 315,25 315,25 315,25 315,25 315,25 315,25 315,25 315,25 315,25 315,25 316,25 316,25 316,25 316,25 316,25 316,25 316,25 316,25 316,25 316,25 316,25 316,25 316,26 316,26 316,26 316,26 316,26 317,26 317,26 317,26 317,26 317,26 317,26 317,26 317,26 317,26 317,26 317,26 317,26 317,26 317,26 317,26 317,26 317,26 317,26 318,26 318,26 318,26 318,26 318,26 318,26 318,26 318,26 318,26 318,26 318,26 318,26 318,26 318,26 318,26 318,26 318,26 318,26 318,26 318,26 318,26 318,26 319,26 319,26 319,26 319,26 319,26 319,26 319,26 319,26 319,26 319,27 319,27 319,27 319,27 319,27 319,27 319,27 319,27 320,27 320,27 320,27 320,27 320,27 320,27 320,27 320,27 320,27 320,27 320,27 320,27 320,27 320,27 320,27 320,27 320,27 321,27 321,27 322,27 323,27 323,27 324,28 325,28 326,28 326,28 327,28 328,28 328,28 329,28 330,28 330,28 331,28 332,28 332,28 333,28 333,28 334,28 334,27 335,27 336,27 336,27 337,27 337,27 338,27 339,27 339,26 340,26 340,26 341,26 341,26 342,26 342,26 343,26 343,26 344,26 344,26 345,26 345,26 346,26 346,26 347,26 348,26 348,26 349,26 349,26 350,26 350,26 351,26 351,26 352,26 352,26 353,26 354,26 354,26 355,26 355,26 356,26 357,26 364,26 365,26 365,26 366,26 369,25 369,26 370,25 371,25 372,25 373,25 373,25 374,26 375,26 376,26 377,26 378,26 379,26 380,26 380,26 381,26 382,26 382,26 383,26 384,26 385,26 385,26 386,26 386,26 387,26 387,26 387,27 388,27 389,27 389,27 390,27 391,27 391,27 392,27 393,27 393,27 394,28 395,28 395,28 396,28 397,28 398,28 398,28 399,28 400,28 401,28 401,28 402,28 403,28 403,28 403,28 403,28 403,28 403,28 404,28 404,28 404,28 404,28 404,28 404,28 405,28 405,28 405,28 405,28 406,28 406,28 406,28 407,28 407,28 408,28 408,28 410,28 410,28 410,28 411,28 411,28 411,28 411,27 411,27 412,27 412,27 413,27 413,27 414,27 414,27 414,27 415,27 415,27 415,27 416,27 416,27 417,27 417,27 417,27 418,28 418,27 418,27 420,27 420,28 420,28 420,28 420,28 421,28 421,28 421,28 421,28 421,28 421,28 421,28 421,28 421,29 421,29 422,29 422,29 423,30 423,30 424,30 424,30 424,30 424,30 424,31 424,31 425,31 425,31 425,32 427,32 427,32 427,32 428,32 428,32 429,33 429,33 430,33 431,33 431,34 432,34 433,34 434,34 434,34 434,35 435,35 436,35 436,35 436,35 437,35 438,36 438,36 438,36 438,36 439,36 440,36 441,36 442,36 442,36 444,36 445,36 459,34 461,34 461,34 463,35 469,40 472,40 476,47 474,49 475,54 481,59 484,58 489,65 486,67 487,72 494,76 497,75 500,78 497,79 495,80 493,89 493,90 489,92 488,94 491,94 493,95 496,96 497,96 496,97 495,100 495,100 489,104 485,106 486,107 489,115 475,117 472,120 472,121 468,126 464,129 461,133 460,134 459,135 457,135 455,136 453,136 452,137 452,137 451,140 449,142 448,144 444,147 439,153 434,156 433,157 432,159 429,160 424,163 423,163 422,163 421,163 418,165 413,168 409,171 407,173 404,176 400,180 396,180 395,180 395,180 393,180 385,180 379,180 378,181 376,184 375,187 372,187 365,191 359,193 356,194 354,195 353,195 353,196 353,197 352,198 352,200 352,201 352,202 351,202 351,203 351,204 350,206 350,208 350,210 350,212 347,213 346,214 343,214 340,215 335,216 333,216 330,216 329,215 328,214 327,214 326,213 318,211 317,211 316,211 316,212 315,212 305,209 303,209 295,208 291,209 289,210 289,209 285,205 283,201 282,200 281,200 278,200 277,199 276,198 275,197 273,197 271,197 269,198 267,199 265,199 263,200 261,201 257,203 255,204 253,205 250,206 249,207 246,208 245,208 243,209 239,209 237,209 236,209 234,210 233,210 234,209 235,208 234,207 234,206 233,207 231,206 230,205 229,204 225,199 221,196 224,194 221,191 218,189 216,187 213,184 210,183 205,181 205,180 206,179 205,178 206,175 206,173 207,171 208,169 210,168 203,166 203,166 202,167 201,169 198,170 195,168 193,167 188,166 181,163 174,167 171,165 159,158 161,157 159,155 158,155 157,155 157,156 156,156 155,157 154,157 154,158 153,159 152,159 151,160 151,160 150,161 150,161 150,162 149,162 148,163 148,163 147,163 146,164 145,164 144,164 143,165 142,165 142,166 141,166 140,166 139,166 139,167 138,167 137,168 135,169 134,169 133,170 133,170 133,171 132,171 131,171 130,171 130,171 129,171 127,171 126,172 123,172 123,172 122,172 122,172 122,171 121,171 120,172 120,172 119,173 119,173 119,174 118,174 118,174 117,175 117,175 116,175 115,176 115,176 114,176 112,177 111,177 109,178 106,180 105,180 104,181 102,181 101,182 101,183 100,183 98,184 97,185 95,186 94,187 92,187 91,187 91,188 90,188 89,189 87,191 86,191 85,192 82,193 81,194 79,195 78,196 76,197 73,198 71,199 70,200 68,201 66,202 63,203 64,204 64,204 63,204 62,205 60,205 59,206 58,206 56,207 52,209 49,211 46,213 44,214 42,215 39,216 38,216 37,216 37,218 36,220 34,220 30,220 28,219 23,218 19,221 15,223 12,224 12,222 10,221 6,218 0,214 4,210 7,207 4,207 8,203 11,204 16,197 21,199 23,195 24,194 26,190 27,188 28,187 29,186 30,184 30,181 30,180 31,179 31,178 30,177 30,174 29,173 31,170 32,170 35,168 38,167 39,165 41,164 42,163 43,162 45,160 52,157 52,157 53,157 58,155 64,157 65,157 67,156 69,156 71,156 69,153 75,153 75,154 81,153 81,155 83,155 86,155 87,154 89,153 92,152 93,151 95,150 96,150 98,149 100,148 102,148 104,147 106,146 107,145 109,145 109,144 111,143 113,143 116,142 117,142 117,141 117,140 117,140 118,139 119,139 120,137 121,137 122,136 123,136 125,134 126,133 127,131 128,130 128,130 128,129 128,128 127,128 128,127 127,127 126,127 126,126 124,125 123,125 122,124 121,124 121,123 120,122 121,120 120,119 121,119 121,118 121,117 121,116 121,116 122,115 122,113 123,112 123,112 124,111 124,110 125,110 126,109 126,108 127,107 127,106 128,106 129,105 130,104 131,104 132,103 132,102 132,101 133,100 133,99 133,98 134,97 134,96 134,95 134,94 134,94 134,94 134,93 133,91 133,90 133,89 134,88 133,86 134,85 134,84 134,83 135,82 136,81 137,80 138,80 138,79 138,79 137,79 137,79 137,78 136,78 136,76 134,75 133,74 133,74 133,73 132,72 132,71 132,71 132,70 133,70 133,69 133,68 133,68 133,67 133,66 133,64 133,62 134,61 135,60 136,59 138,58 140,56 141,54 142,53 143,52 145,51 146,50 147,49 148,48 150,46 151,45 151,44 151,43 154,39 157,39 157,39 158,39 158,39 159,39 159,39 159,39 159,39 160,39 160,39 160,39 160,39 160,39 161,39 161,39 161,39 163,39 163,39 163,39 163,39 163,39 163,39 163,39 163,39 164,39 164,39 164,39 164,39 165,39 165,39 165,39 165,39 165,39 165,39 165,39 165,39 166,39 166,39 167,39 168,38 169,38 170,38 171,38 171,37 172,37 172,37 173,36 174,36 175,36 175,36 175,36 175,36 175,36 175,36 175,36 176,36 176,35 176,35 176,35 176,35 176,35 176,35 176,35 176,35 177,35 177,35 177,35 177,34 177,34 177,34 178,34 178,34 178,34 178,33 179,33 179,33 179,33 179,33 179,33 179,33 179,33 180,32 181,32 181,32 181,32 181,32 181,31 181,31 182,31 182,31 182,31 182,30 182,30 182,30 182,29 182,29 182,29 182,29 182,28 182,28 182,28 182,27 182,27 182,26 182,26 182,26 182,26 182,26 182,26 182,25 182,25 182,25 182,24 182,24 182,24 183,24 183,24 183,24 184,24 184,24 184,24 183,24 183,23 183,23 183,23 183,23 184,23 184,23 184,23 184,23 184,23 184,22 184,22 184,22 184,22 184,22 184,22 185,22 185,22 186,22 186,22 187,22 187,21 187,21 187,21 188,21 188,21 188,21 188,21 188,22 188,22 188,22 188,22 189,22 189,21 189,21 189,21 189,21 189,21 189,21 190,21 190,21 190,21 190,21 190,22 190,22 190,22 190,22 190,22 191,22 191,22 191,22 191,22 191,22 191,22 191,22 192,22 192,22 192,22 192,22 192,22 192,22 192,22 193,22 194,22 194,22 194,21 194,21 194,21 194,21 194,21 194,21 195,21 195,21 195,21 195,21 195,21 196,21 196,21 196,21 196,21 197,20 197,20 197,20 197,20 197,19 197,19 197,19 197,19 197,19 197,19 198,19 198,19 198,19 199,18 199,18 199,18 200,18 200,18 200,17 201,17 201,17 202,16 203,16 203,16 204,15 205,15 206,15 208,14 209,13 210,13 210,12 211,12 211,12 212,12 212,12 213,12 213,12 213,12 213,11 214,11 214,11 213,11 213,10 213,10 213,10 212,9 212,9 212,8 212,8 212,8 213,8 213,9 214,9 214,9 215,8 215,8 215,8 216,8 216,8 217,8 217,8 217,8 218,7 219,7 219,8 220,7 220,7 220,7 221,7 221,7 222,7 223,6 224,6 225,6 225,6 226,6 226,6 226,6 226,6 226,5 227,5 227,5 227,5 227,5 227,5 227,5 228,4 229,4 229,4 229,4 229,4 229,4 229,4 229,4 229,4 230,3 230,3 230,3 231,3 231,3 231,3 231,3 233,3 233,3 233,3 233,3 233,3 233,3 233,3 235,2 235,2 236,2 237,2 237,2 238,2 238,2 238,2 238,3 238,3 238,3 238,3 238,3 238,3 238,3 238,3 238,3 238,3 238,3 238,3 238,3 239,4 239,4 239,4 239,4 239,4 240,4 240,4 240,4 240,4 241,4 241,4 241,4 241,4 241,4 241,4 242,4 243,5 243,5 243,5 243,5 243,5 243,5 243,5 243,5 243,5 243,5 244,5 244,5 244,5 244,4 244,4 244,4 244,4 244,4 244,4 244,4 244,4 244,4 244,4 244,4 244,4 244,4 244,4 244,4 244,4 244,4 244,4 244,4 244,4 244,4 244,4 244,4 244,4 245,4 245,4 245,5 245,5 245,5 245,5 245,5 245,5 245,5 245,5 245,5 245,5 246,5 246,5 246,5 246,5 246,5 246,5 246,4 246,4 246,4 246,4 247,4 247,4 247,4 247,4 247,4 247,4 247,4 247,4 247,4 248,4 248,4 248,4 248,4 250,5 250,5 251,5 252,5 252,5 253,5 253,5 253,5 253,5 253,5 254,5 254,5 255,5 255,5 256,5 256,5 256,6 256,6 257,6 257,6 257,6 257,6 257,6 257,6 257,6 257,6 257,6 257,5 257,5 257,5 257,5 257,5 257,5 257,5 257,5 257,5 257,5 257,5 257,5 257,5 257,5 257,5 257,5 257,5 257,5 257,5 257,5 257,5 257,5 257,5 258,5 258,4 258,4 258,4 258,4 258,4 258,4 258,4 258,4 258,4 258,4 258,4 258,4 258,4 258,4 258,4 258,4 258,4 258,4 258,4 258,4 258,4 259,4 259,4 259,5 259,5 259,5 260,5 260,5 261,5 262,5 263,5 263,4 264,4 264,4 265,3 266,3 267,3 268,3 268,3 268,3 268,3 268,3 268,3 268,3 268,3 268,3 268,3 268,3 269,3 269,3 269,3 269,2 269,2 269,2 269,2 269,2 269,2 269,2 269,2 269,2 269,2 269,2 269,2 269,2 269,2 269,2 269,2 270,2 271,1 271,1" id="5012" class="canton" fill="steelblue" stroke-width="1" stroke="white" geotype="canton" geoname="Équeurdreville-Hainneville" code_insee="5012" code_departement="50" nom_departement="Manche" code_region="28" nom_region="Normandie"/></svg>