<?xml version="1.0" encoding="utf-8"?>
<svg version="1.1" id="svgmap" xmlns="http://www.w3.org/2000/svg" xmlns:xlink="http://www.w3.org/1999/xlink" x="0px" y="0px" width="100%" height="100%" viewBox="0 0 500 350">
<polygon points="0,311 3,310 3,310 10,307 12,306 20,303 24,302 24,302 27,301 32,300 33,299 38,297 40,296 47,293 65,287 62,283 59,280 56,276 54,274 54,274 52,272 50,271 50,270 52,269 53,269 54,267 54,267 54,266 56,265 56,265 57,265 56,264 56,256 56,256 56,254 56,254 56,253 58,252 58,252 58,247 58,247 53,242 53,242 53,240 53,234 53,227 54,219 54,215 54,215 54,215 54,215 54,215 53,215 43,218 43,218 43,218 31,196 31,196 24,197 24,197 23,197 23,197 2,175 2,175 2,175 2,175 37,167 37,167 38,167 38,166 21,150 20,149 20,148 20,148 19,148 14,142 14,142 13,142 13,142 13,141 13,141 67,129 67,129 67,128 67,128 67,126 73,117 74,116 80,112 82,110 82,110 82,109 83,108 97,91 97,91 93,89 112,74 126,81 126,81 139,70 141,68 144,66 158,56 158,56 162,53 162,53 162,53 175,44 175,44 174,43 174,43 172,42 172,42 174,41 175,40 175,40 175,40 174,40 174,40 174,39 173,38 173,38 173,38 174,38 171,36 170,35 169,34 168,33 168,33 166,33 166,33 167,31 170,33 171,33 173,34 174,34 178,35 182,36 182,36 185,34 185,33 185,33 186,33 186,30 188,27 188,27 185,26 183,26 182,25 181,25 180,24 180,23 179,22 179,21 179,21 174,20 167,17 167,17 167,17 167,17 167,17 168,17 168,17 168,16 167,15 167,15 169,15 169,15 163,7 163,7 162,7 162,7 161,7 160,7 159,5 158,5 158,5 160,4 161,4 163,3 164,3 168,3 169,3 170,3 172,3 176,4 174,5 173,5 173,5 174,6 174,6 174,6 190,4 195,4 198,3 199,3 206,3 209,3 213,2 218,1 222,0 223,0 227,0 230,0 231,0 233,0 235,1 236,1 237,2 239,3 241,4 243,6 245,7 246,8 247,9 247,9 247,9 248,11 248,12 248,14 248,16 248,17 249,18 250,20 251,21 251,21 251,22 257,27 278,48 280,50 286,54 287,55 289,56 291,59 291,59 291,60 299,68 299,68 301,67 304,65 304,65 305,66 305,66 307,65 308,65 308,65 313,62 313,62 313,62 305,55 291,43 291,43 295,41 301,38 305,36 305,35 312,29 312,29 311,28 311,28 314,27 316,25 316,25 316,25 319,24 319,24 319,24 323,21 324,21 327,19 334,15 338,13 347,8 347,8 348,8 351,12 354,16 356,18 363,27 363,27 365,30 368,33 374,41 377,44 378,46 379,46 379,47 379,47 380,48 383,53 387,57 387,58 389,61 390,63 390,63 391,66 389,66 387,67 369,73 368,73 365,74 363,75 362,75 362,75 362,76 362,77 363,78 365,79 364,79 364,79 363,79 359,81 359,81 358,82 357,82 356,84 355,84 354,85 353,86 352,87 350,89 349,91 348,92 347,93 346,94 346,94 346,95 345,95 345,96 345,96 346,96 346,97 346,97 346,98 345,98 345,98 344,98 345,99 345,100 347,103 354,115 355,117 357,119 358,120 359,120 368,128 393,149 394,148 394,148 394,148 394,147 392,144 394,144 394,144 395,144 395,144 398,144 398,144 399,145 399,146 400,147 401,148 401,149 402,151 403,152 403,152 404,152 405,153 406,153 408,153 408,153 409,153 410,153 410,153 412,153 414,154 414,154 416,154 417,154 418,154 419,154 419,153 420,153 421,153 421,153 421,152 422,152 421,151 421,150 421,150 421,148 421,148 421,146 421,146 421,145 422,143 422,142 422,142 422,141 421,140 420,139 420,139 419,139 420,138 420,138 420,137 420,137 421,136 421,135 421,135 421,135 421,135 422,134 422,135 432,144 432,143 439,137 439,137 439,137 446,138 448,138 461,140 489,145 488,146 488,147 487,148 487,148 487,148 487,148 486,149 478,155 477,155 476,156 475,157 475,157 474,158 474,158 472,158 471,158 470,158 470,159 469,159 459,163 457,164 456,164 456,165 456,165 463,170 465,172 467,174 468,173 471,171 473,170 477,168 479,167 480,166 483,165 486,163 488,162 489,162 491,163 491,164 492,164 492,165 493,167 493,168 494,170 494,170 495,170 495,171 497,172 498,173 499,175 500,176 500,176 499,176 497,176 495,176 494,176 489,177 489,177 489,177 488,177 488,177 485,179 479,182 478,182 478,182 477,183 473,186 470,188 467,189 466,190 464,191 463,192 462,193 461,194 456,197 456,197 456,197 455,197 453,198 453,198 453,199 453,199 451,200 451,200 451,200 450,199 450,199 450,199 449,197 449,197 448,196 447,196 446,195 445,195 445,195 443,195 443,195 441,195 439,194 438,194 436,193 434,192 434,192 433,192 433,191 432,190 432,190 433,188 433,187 433,186 433,186 433,186 432,185 432,185 431,185 431,185 431,185 430,185 430,185 430,183 430,183 430,182 429,182 429,182 425,180 425,180 424,179 424,179 424,179 425,178 425,177 425,177 425,176 425,176 425,176 425,176 427,174 427,174 427,174 414,163 413,164 412,164 411,165 411,165 408,166 407,166 407,166 406,166 404,165 403,165 402,164 401,164 400,164 398,164 398,164 397,164 396,164 395,164 395,164 394,164 394,164 394,164 393,165 392,165 392,165 392,165 391,166 388,166 388,166 387,165 387,165 385,166 385,165 384,165 384,165 383,164 382,164 380,164 379,163 379,163 379,163 378,164 378,165 378,166 378,166 377,166 377,166 376,167 375,167 372,167 371,167 370,167 370,167 369,170 369,170 369,171 362,172 361,172 360,172 359,172 359,172 358,172 358,172 357,174 356,174 356,174 353,179 353,184 352,185 350,188 350,188 355,194 352,194 354,196 354,197 355,197 357,197 359,198 361,200 363,203 367,208 369,210 372,212 377,216 380,218 385,221 384,221 382,223 382,223 382,223 381,223 381,224 380,224 380,225 379,226 379,227 378,228 377,228 377,229 371,232 371,232 372,236 372,236 367,240 367,241 367,241 367,241 367,241 366,243 364,244 363,245 361,246 360,247 358,248 356,250 355,251 354,253 353,253 352,254 352,255 351,255 349,253 348,252 345,250 345,250 343,251 342,252 342,252 342,253 342,253 342,253 334,254 334,254 327,259 327,259 327,259 326,258 324,259 323,259 323,260 322,261 322,261 320,264 320,264 317,267 314,270 313,270 313,270 312,271 311,271 310,272 309,273 308,274 306,275 306,276 305,277 304,277 304,278 301,279 300,279 299,279 298,280 295,281 294,282 293,283 292,283 292,283 292,283 290,282 289,282 289,283 288,283 288,283 287,284 286,285 286,286 283,289 282,290 279,293 274,298 267,304 267,304 267,305 267,305 257,314 254,317 249,321 242,329 242,329 241,328 241,328 241,329 239,330 239,330 239,331 239,331 238,331 226,324 222,322 220,321 219,320 216,317 215,317 212,315 207,311 206,311 187,318 149,332 149,332 148,333 144,335 144,335 143,335 142,333 142,333 141,333 139,333 138,333 136,334 136,334 135,333 131,334 127,335 124,336 124,336 122,335 122,335 119,332 118,332 111,334 111,334 111,334 108,332 108,332 108,332 105,333 104,333 104,333 104,333 102,334 102,334 102,334 101,333 101,333 96,335 95,335 94,333 94,333 92,334 92,334 86,329 80,325 80,325 79,325 77,326 77,326 76,327 76,328 74,331 71,334 71,335 70,336 70,336 70,336 70,335 69,334 69,334 68,334 68,335 67,335 66,336 26,350 26,350 22,345 22,345 22,344 22,343 21,343 20,343 20,343 5,325 5,325 5,325 6,324 7,324 10,323 10,323 10,323 8,320 0,311" id="5103" class="canton" fill="steelblue" stroke-width="1" stroke="white" geotype="canton" geoname="Châlons-en-Champagne-1" code_insee="5103" code_departement="51" nom_departement="Marne" code_region="44" nom_region="Grand-Est"/></svg>