<?xml version="1.0" encoding="utf-8"?>
<svg version="1.1" id="svgmap" xmlns="http://www.w3.org/2000/svg" xmlns:xlink="http://www.w3.org/1999/xlink" x="0px" y="0px" width="100%" height="100%" viewBox="0 0 475 500">
<polygon points="17,250 23,248 33,246 36,245 37,246 39,246 40,245 46,243 43,239 41,239 39,239 39,238 39,238 43,237 43,237 43,237 41,234 45,233 42,231 44,230 43,230 43,230 38,226 31,219 27,216 35,213 34,213 36,212 36,212 36,212 37,211 37,211 38,210 38,210 38,210 39,209 40,209 41,208 43,207 44,206 45,206 46,205 48,204 49,204 49,204 51,203 52,202 52,202 54,201 56,200 57,200 58,200 59,199 59,199 60,198 61,198 63,197 64,197 61,194 58,191 57,190 55,188 54,187 53,188 53,187 53,187 51,186 50,185 47,182 47,182 48,182 50,181 51,180 53,179 54,179 53,179 55,178 57,178 58,177 56,176 56,176 55,175 55,174 53,172 54,172 55,171 57,171 57,171 58,170 58,170 58,170 60,169 62,168 63,168 65,167 67,167 67,167 68,166 71,164 73,163 73,162 77,160 78,159 78,160 80,161 81,161 81,161 79,163 80,163 81,163 82,163 83,162 84,162 86,162 87,162 88,162 88,162 89,161 90,161 91,160 92,160 93,160 93,159 94,159 94,159 94,159 95,162 95,164 98,163 99,164 101,163 102,162 103,161 103,161 104,160 105,160 105,159 106,159 107,158 108,158 109,157 111,156 113,156 115,155 116,154 116,154 120,153 121,153 123,152 123,152 124,152 127,151 130,150 131,150 131,149 132,150 132,150 132,150 132,151 132,151 132,151 132,151 133,152 133,152 133,152 133,152 132,152 132,152 132,152 132,153 132,153 132,153 132,153 132,154 132,154 132,155 132,155 132,155 132,155 132,156 132,156 132,156 132,157 132,157 131,157 131,157 130,158 130,158 130,158 130,158 130,158 130,158 130,159 130,159 130,159 130,159 130,159 129,159 129,160 129,160 128,160 128,160 128,160 128,160 128,160 128,160 128,161 129,160 130,160 132,160 133,160 134,160 136,160 137,160 138,160 140,159 140,159 141,158 145,158 147,157 147,157 150,156 151,156 154,156 155,155 162,154 162,154 163,153 164,153 165,153 165,153 166,153 166,152 167,152 167,152 168,152 168,152 169,151 170,151 170,151 171,150 172,150 172,150 173,150 173,149 174,149 174,149 175,149 176,149 176,149 177,148 178,148 178,148 179,147 180,147 181,147 182,146 184,146 185,145 186,145 187,144 188,144 189,144 189,143 190,143 191,143 191,143 191,143 190,142 189,140 187,138 186,137 185,136 185,136 186,136 186,136 182,131 182,131 182,131 182,131 182,131 182,131 181,130 181,129 179,127 179,127 178,126 178,126 177,124 176,124 176,123 175,123 175,122 174,120 174,120 173,119 173,119 172,118 169,119 164,120 160,121 158,121 157,121 156,120 155,118 154,117 153,116 153,115 152,114 151,114 153,114 155,113 157,112 159,111 161,110 165,108 167,107 168,106 170,106 171,106 174,105 175,104 177,104 179,103 184,102 185,102 187,102 190,102 190,102 191,101 193,101 195,100 195,100 195,100 195,100 195,100 198,101 198,101 199,101 201,101 202,101 204,101 207,102 208,102 208,102 215,100 218,100 222,99 225,98 227,97 230,96 234,95 237,94 242,93 244,92 246,91 252,90 258,88 262,87 262,87 264,87 264,87 264,86 264,86 264,86 265,86 265,86 265,86 265,86 265,86 265,86 266,86 267,86 268,85 269,85 270,85 270,84 271,84 271,84 271,84 271,84 275,82 274,82 274,82 273,81 273,81 273,81 273,80 274,80 274,80 275,80 275,80 275,80 275,80 275,80 276,79 276,79 275,78 274,77 273,77 273,76 272,76 272,76 272,75 272,75 272,75 272,75 272,75 272,75 272,74 272,74 272,74 272,74 272,74 272,73 271,72 271,72 271,72 271,72 271,71 271,71 271,71 271,71 271,70 271,69 271,69 271,69 271,69 271,69 272,68 272,68 272,68 272,68 272,68 271,66 272,66 271,66 271,65 271,65 270,64 270,64 270,65 269,64 269,64 269,64 269,63 269,63 268,63 268,63 268,62 268,62 268,62 268,62 269,62 268,62 269,61 269,61 269,61 269,61 269,61 270,60 270,59 270,58 269,57 269,57 268,57 268,57 268,57 268,57 268,57 268,57 267,56 267,56 267,56 267,55 267,54 267,54 267,54 266,54 266,54 266,54 266,54 266,54 266,53 266,53 266,53 266,53 266,53 266,53 263,54 260,52 261,52 261,51 261,50 261,50 261,50 261,49 261,49 262,49 263,49 264,49 265,49 265,48 267,48 269,47 269,47 268,46 268,46 269,45 270,44 271,44 271,44 271,44 272,43 272,43 270,42 269,40 269,40 269,40 269,40 269,40 268,39 268,39 273,37 273,37 273,38 276,37 277,36 277,36 278,36 278,36 280,35 284,34 288,33 292,31 296,30 298,29 299,29 301,28 301,27 302,27 303,26 303,26 305,24 310,21 313,18 313,18 314,18 314,18 316,16 319,14 319,14 321,12 321,12 321,12 321,12 328,7 328,7 328,7 328,7 331,10 333,11 337,13 337,13 337,13 344,10 345,10 353,6 356,5 356,5 356,5 356,5 355,4 355,4 368,0 369,1 369,2 371,4 371,4 371,5 373,9 373,10 373,10 383,6 384,7 384,7 384,7 387,10 388,12 389,12 389,13 389,13 388,13 389,13 390,13 392,14 393,14 393,15 393,15 393,15 393,15 396,16 396,16 397,17 398,17 398,17 399,18 399,18 403,19 405,20 407,21 408,21 408,21 408,22 408,22 408,22 408,23 409,23 409,24 409,24 409,26 409,27 410,28 409,28 408,28 408,29 406,30 404,31 403,32 402,32 401,32 401,33 400,33 397,34 395,35 395,35 395,35 395,35 397,37 396,37 397,39 397,39 401,42 397,45 394,47 394,47 394,48 394,48 395,49 396,49 397,50 397,50 398,50 398,50 399,50 400,50 401,50 402,50 402,51 402,51 403,51 404,51 404,51 406,53 406,53 407,54 408,54 408,54 407,55 407,55 407,55 407,55 407,55 407,55 407,55 407,55 407,55 407,56 407,56 407,56 407,56 407,56 406,57 406,57 406,57 406,57 406,57 406,57 405,57 405,57 405,57 405,57 405,57 405,57 405,57 404,57 404,57 404,57 404,57 404,57 404,57 404,58 403,58 403,58 403,58 403,58 402,58 402,59 402,59 402,59 402,59 402,58 402,58 402,58 402,58 402,58 401,58 401,58 401,58 401,58 401,58 401,58 400,58 400,58 400,58 400,59 400,59 400,59 400,59 399,59 399,59 399,59 399,59 399,59 399,58 399,58 398,58 398,58 398,58 398,58 398,58 398,58 397,58 397,58 397,58 397,58 396,58 396,58 396,58 396,58 396,59 396,59 396,59 395,59 395,59 395,59 395,59 395,59 395,59 395,59 395,59 395,59 394,60 394,60 394,60 394,60 394,60 394,60 393,60 393,61 393,61 393,61 393,61 392,61 392,61 392,61 392,61 392,61 392,61 392,61 391,61 391,61 391,62 391,62 391,62 390,62 390,62 390,62 390,62 390,62 390,62 390,63 390,63 390,63 390,63 390,63 389,63 389,63 389,63 389,64 389,64 389,64 389,64 389,64 389,65 389,65 389,65 389,65 389,65 389,65 389,66 389,66 389,66 388,66 388,66 388,66 388,66 388,67 388,67 388,67 388,67 388,67 388,67 388,67 387,67 387,68 387,68 388,68 388,68 388,69 388,69 388,69 388,69 388,69 388,70 387,70 387,70 387,70 387,70 387,70 386,70 386,70 386,70 386,71 386,71 386,71 386,71 386,71 386,71 386,71 386,71 386,71 386,71 386,71 386,72 386,72 385,72 385,72 385,72 385,72 385,72 385,72 385,72 385,72 385,72 385,72 385,72 385,72 385,72 385,72 385,72 385,72 385,73 384,73 384,73 384,73 384,73 384,73 384,73 384,73 384,74 384,74 383,74 383,74 383,74 383,74 383,74 383,74 383,74 383,75 383,75 383,75 383,75 383,75 383,75 384,75 384,75 384,75 384,75 384,75 384,75 384,76 384,76 383,76 382,76 382,77 379,79 379,79 379,80 376,82 375,82 375,83 373,83 373,83 372,84 371,84 370,85 369,85 369,86 368,87 367,88 366,88 366,89 365,89 364,90 363,90 362,90 362,90 359,92 366,96 373,100 377,103 377,103 377,103 378,104 378,105 380,109 381,111 381,111 381,111 388,110 388,110 388,110 387,113 386,113 385,115 385,115 385,115 385,115 383,116 383,116 384,118 384,118 384,118 388,117 388,118 389,119 390,119 391,119 391,120 392,120 393,121 393,122 393,122 393,122 394,123 394,124 394,124 394,124 394,124 394,124 394,124 395,124 395,124 396,125 397,125 397,125 397,126 398,126 398,127 398,127 399,127 399,127 400,128 400,128 401,129 401,129 402,130 402,130 402,130 402,130 402,130 402,130 403,131 407,133 407,133 408,133 409,134 409,134 410,135 412,136 412,136 414,137 415,138 416,138 417,139 417,139 418,140 419,140 420,141 421,141 422,142 422,142 423,142 423,143 423,143 423,144 423,144 423,145 424,145 425,145 426,146 425,146 424,147 423,147 421,147 421,147 419,148 416,149 413,150 412,151 410,152 409,152 408,153 406,153 405,154 404,154 402,155 402,155 401,155 401,156 400,156 401,157 401,157 401,157 402,158 403,158 404,159 404,159 405,159 405,159 406,159 406,160 407,160 407,160 403,161 398,162 398,162 398,163 399,164 399,164 399,165 399,166 396,166 393,167 394,167 389,169 386,169 384,170 384,170 383,170 382,170 380,171 379,171 379,171 379,171 377,171 377,171 376,170 376,170 376,170 373,170 373,170 371,171 372,171 372,171 373,172 373,172 373,173 374,173 375,174 376,175 376,175 376,175 377,175 377,176 376,176 377,176 377,177 378,177 378,177 378,178 377,178 377,178 377,178 378,179 378,179 379,179 379,180 379,180 380,180 381,180 381,180 383,180 384,180 384,180 385,180 385,180 386,180 386,180 386,180 387,180 390,180 390,180 390,180 390,180 390,181 390,181 390,181 390,181 390,181 390,181 389,182 389,182 389,182 389,182 389,182 389,183 389,183 389,183 389,183 389,183 390,183 390,183 391,184 391,184 391,184 391,184 391,184 391,184 391,184 393,184 393,184 393,184 393,184 393,184 393,185 393,185 393,186 393,186 394,186 394,186 394,186 394,186 394,187 395,187 395,188 395,188 395,188 395,188 395,188 396,188 396,189 396,189 396,189 396,189 397,188 397,188 397,188 398,188 398,188 398,188 398,188 399,189 399,189 399,189 399,189 400,190 400,190 400,190 401,190 401,190 402,188 402,187 402,187 403,185 403,185 403,185 403,185 403,186 403,186 403,186 403,187 403,187 404,187 404,187 404,188 407,188 407,188 408,189 413,190 415,190 419,192 420,192 420,192 421,192 424,193 424,193 426,193 426,193 426,193 426,194 427,196 427,196 427,196 427,196 435,197 436,197 436,197 437,197 437,197 437,198 437,198 437,199 437,199 437,199 437,199 437,199 436,200 436,200 435,200 435,200 434,200 433,201 433,201 433,201 433,201 433,203 433,204 434,204 435,204 435,204 436,204 436,204 436,204 438,203 439,203 440,203 442,203 442,202 444,202 447,202 447,202 447,202 447,202 447,202 448,202 449,203 450,203 451,203 452,203 452,203 453,203 454,204 454,204 454,204 454,204 455,204 456,204 456,204 456,205 457,205 457,205 457,205 457,205 458,205 458,205 459,206 460,207 461,207 461,207 462,208 462,208 463,209 465,210 465,210 465,210 465,210 465,209 466,209 468,209 468,209 468,210 468,210 469,211 469,211 469,211 470,212 470,212 471,212 471,212 471,213 471,213 471,213 470,213 470,213 470,213 470,213 470,213 470,213 471,213 474,213 474,213 474,214 474,215 474,217 474,217 473,217 472,217 467,217 467,217 467,217 466,217 466,217 466,218 466,218 465,218 465,218 465,218 465,218 466,218 467,219 468,220 468,220 468,220 468,221 468,221 468,221 468,221 468,221 467,222 467,222 467,222 467,222 468,223 468,223 468,223 469,224 469,224 470,225 470,225 469,225 469,226 467,226 467,226 466,227 466,227 465,227 465,228 465,228 465,228 465,228 464,229 464,229 464,229 464,229 464,229 464,229 464,229 462,230 462,230 462,230 462,229 461,229 461,229 461,228 461,228 460,227 460,227 460,227 460,227 460,227 457,226 456,226 456,226 456,226 455,226 455,226 455,226 455,226 455,226 455,226 455,226 455,227 454,227 453,227 452,227 452,227 452,227 452,227 452,227 452,227 452,227 452,227 452,228 452,228 452,228 450,229 448,229 447,229 447,229 447,229 447,229 448,231 448,231 448,231 445,231 445,231 445,231 446,233 446,233 446,233 444,234 444,234 444,234 444,234 445,236 445,236 444,236 444,236 444,236 444,238 444,238 443,238 443,238 443,238 443,239 442,240 441,241 441,241 441,241 441,241 441,242 440,244 439,247 437,250 436,252 435,253 435,253 435,253 435,253 435,253 435,253 435,254 435,254 435,254 436,254 436,254 436,254 435,255 435,256 435,257 435,258 435,259 435,259 435,259 433,259 431,258 431,258 430,261 430,261 430,261 430,261 430,262 430,262 430,262 430,263 430,264 430,265 430,265 430,264 430,264 430,264 430,264 430,264 430,264 431,264 431,264 431,264 431,264 431,264 431,264 431,264 432,264 432,264 432,264 432,264 432,264 432,264 432,264 432,264 432,264 433,264 433,264 434,264 434,264 434,264 434,264 434,264 434,264 434,264 434,264 435,264 435,264 435,264 435,264 435,264 435,264 435,264 435,264 435,264 435,264 435,264 435,264 435,264 435,264 436,264 436,264 436,264 436,264 436,264 436,264 437,264 437,264 437,264 438,264 438,264 438,264 438,264 438,264 438,264 438,264 438,264 438,264 439,264 439,264 439,264 439,264 439,264 439,264 439,264 439,263 439,263 440,263 440,263 440,263 440,263 441,263 441,263 441,263 441,263 441,263 442,263 442,263 442,263 442,263 443,266 443,266 443,266 444,266 444,266 444,266 444,266 447,266 449,266 450,266 450,266 453,266 453,266 453,266 451,267 449,269 449,269 449,269 448,269 449,270 451,270 452,271 452,271 452,271 454,271 454,271 454,271 453,272 453,272 453,272 452,272 451,274 450,274 449,275 449,275 447,276 447,276 447,276 447,276 445,278 445,278 445,278 445,278 443,280 443,280 443,280 443,280 441,281 441,281 441,281 440,281 440,281 440,281 440,281 440,282 440,282 440,282 440,282 439,281 439,281 439,281 438,281 438,281 438,280 438,280 438,280 438,280 437,279 437,279 436,279 436,279 436,280 435,280 435,280 435,280 436,280 436,280 436,281 437,281 438,281 438,281 439,282 439,282 439,282 438,283 438,283 438,283 438,283 438,283 437,283 437,283 437,283 436,283 436,283 436,283 436,283 436,283 436,283 436,283 435,283 435,283 434,284 434,284 433,284 433,283 433,283 430,285 430,285 430,285 431,285 430,285 430,285 429,284 429,284 427,285 427,285 427,285 426,285 426,286 426,286 426,286 426,286 426,286 425,286 424,286 424,287 423,287 423,287 423,287 423,287 423,287 423,287 424,287 424,287 424,287 424,288 424,288 423,288 421,289 422,289 422,289 422,289 421,290 421,290 421,290 421,290 421,290 423,292 423,292 423,292 421,293 421,293 422,294 421,295 422,296 422,296 423,297 423,297 422,297 421,298 421,298 421,298 421,298 421,298 421,298 421,298 421,299 421,299 421,299 421,299 421,299 421,299 421,299 421,300 421,300 421,300 421,300 421,301 421,301 422,301 422,302 422,302 422,302 422,302 422,302 422,302 422,302 423,302 423,302 423,301 424,301 424,301 426,303 426,303 427,303 427,303 427,304 427,304 427,304 428,304 428,304 429,305 430,305 430,305 430,305 430,305 431,306 432,306 432,306 432,307 432,307 434,306 435,306 435,306 435,306 436,305 436,305 437,305 437,305 437,305 438,305 439,304 439,304 441,303 441,303 442,304 443,305 444,305 446,307 446,308 447,308 448,309 449,309 449,310 450,310 450,310 451,311 455,313 456,313 456,313 453,316 453,316 452,316 452,317 453,317 453,317 453,317 453,317 453,318 452,318 452,318 452,318 453,319 454,319 454,319 454,319 454,320 454,320 454,320 454,320 455,320 455,320 455,320 455,320 455,320 455,320 455,320 455,321 455,321 455,321 455,321 455,321 455,321 455,322 455,322 455,322 456,322 456,322 456,323 456,323 456,323 456,323 456,323 456,323 456,323 456,323 456,323 456,323 456,324 456,324 457,323 457,324 457,324 457,324 458,324 458,324 458,324 458,324 458,324 459,324 459,324 459,324 459,324 459,324 459,324 460,325 460,325 460,325 460,325 460,325 460,325 460,325 460,325 460,326 460,326 461,326 461,326 461,326 461,326 461,326 461,327 461,327 461,327 462,327 462,327 462,327 462,328 462,328 462,328 462,328 463,328 463,328 463,328 463,328 463,328 464,328 464,328 465,328 465,328 465,327 465,327 465,327 466,327 466,327 467,327 467,327 467,327 467,327 468,328 469,328 469,328 469,329 469,329 470,329 470,329 470,329 471,329 471,329 471,330 472,330 472,330 473,330 473,331 474,331 474,331 474,331 475,332 475,332 474,333 474,333 473,333 472,333 472,333 470,334 468,335 468,335 467,335 466,336 466,336 466,336 465,336 465,336 465,336 464,337 463,337 463,338 463,338 462,338 462,338 462,338 462,338 461,338 460,338 460,338 459,337 457,337 457,337 456,336 456,336 455,336 454,335 454,335 453,335 453,334 452,334 452,333 451,332 451,332 451,332 449,332 446,332 444,332 443,332 439,332 439,332 438,332 438,333 439,334 439,335 440,336 439,336 439,336 438,336 437,336 434,336 433,336 433,337 432,337 432,337 432,337 432,338 431,338 428,337 426,336 425,336 425,336 424,336 424,336 423,337 423,337 424,338 426,339 425,339 425,339 424,340 423,341 422,341 422,341 422,342 419,344 419,344 417,346 416,347 415,348 413,349 414,349 414,350 415,350 415,350 416,350 416,350 416,350 416,350 417,350 417,350 417,350 417,350 418,350 418,350 418,350 419,350 419,351 419,351 419,351 420,351 420,351 420,351 420,351 420,351 420,352 420,352 420,352 420,353 421,353 421,353 421,353 421,353 421,354 421,354 421,354 421,355 422,355 422,355 422,355 422,355 422,355 421,355 421,355 421,356 421,356 421,356 421,356 421,356 421,357 421,357 421,357 420,357 420,357 420,357 420,357 420,357 420,357 419,357 419,357 419,358 419,358 419,358 418,358 418,358 418,358 417,358 417,358 417,358 416,359 416,359 416,359 416,359 416,359 416,359 415,359 415,359 415,359 415,359 414,360 414,360 413,360 413,360 413,360 413,360 412,360 412,360 412,360 412,360 412,359 412,358 412,358 411,358 411,357 411,357 411,356 411,356 410,355 409,355 409,354 408,354 408,354 406,353 403,352 402,351 401,351 401,351 400,351 399,350 399,349 398,349 398,348 397,347 396,346 396,345 396,344 396,344 395,344 395,345 394,345 394,345 393,345 392,345 391,345 390,345 389,345 389,345 387,345 387,345 386,345 385,345 385,345 384,345 383,345 382,345 381,346 380,346 379,346 378,347 378,347 377,347 376,348 376,348 376,348 376,348 375,348 375,348 375,348 375,349 374,349 373,349 372,350 371,350 370,350 370,351 369,351 368,351 367,352 366,352 365,352 365,352 364,353 364,353 364,353 363,354 363,354 362,354 362,355 362,355 361,355 361,355 361,355 361,355 361,355 360,356 360,356 359,356 359,356 359,356 359,356 359,356 358,357 357,357 357,357 356,357 356,357 353,357 353,358 350,358 348,358 348,359 345,359 345,359 344,359 343,360 341,360 341,361 340,361 338,362 338,362 338,362 338,363 338,363 338,364 339,364 339,364 339,365 339,365 338,365 337,366 337,366 336,367 336,367 336,367 335,368 335,368 333,370 333,370 333,370 332,370 332,370 332,370 328,369 328,369 327,368 325,368 325,368 325,368 324,368 324,367 323,367 322,367 320,367 320,367 319,367 319,367 318,367 318,367 317,367 316,366 316,366 315,366 313,366 313,366 312,366 312,366 312,367 311,367 309,367 309,368 308,368 306,369 303,370 300,371 299,372 297,373 302,378 309,376 309,375 311,378 318,376 320,380 321,380 322,380 324,380 324,380 326,381 329,381 329,381 330,382 331,382 332,383 333,383 334,383 335,383 336,383 337,383 338,384 339,384 340,384 341,383 341,383 342,383 343,383 344,383 345,383 345,383 345,384 343,387 341,390 341,390 340,391 340,393 339,395 338,395 338,396 337,397 336,397 334,399 333,400 331,402 330,402 330,403 330,403 330,403 329,405 329,407 328,410 327,413 326,415 326,416 326,417 325,417 325,418 326,418 326,418 327,419 328,420 329,420 328,420 328,420 329,421 329,421 330,421 330,421 330,422 329,422 329,422 330,423 330,424 330,424 330,424 329,424 328,425 326,424 322,423 322,424 321,425 320,427 320,427 319,428 319,429 328,430 329,430 329,430 333,429 335,427 337,427 337,427 337,427 337,429 339,430 341,429 342,429 342,429 343,429 343,430 344,431 343,431 344,432 347,431 347,432 347,435 355,433 355,432 359,430 360,433 360,436 359,442 359,442 363,442 366,442 370,441 373,442 375,443 376,444 378,444 380,445 381,444 387,445 388,445 389,445 391,445 392,445 394,446 398,448 399,448 400,448 402,448 402,448 403,448 404,448 406,449 408,450 409,451 410,452 411,452 413,453 414,453 414,453 415,453 415,454 418,455 419,456 420,455 421,455 422,455 424,455 425,455 426,455 427,455 427,455 429,455 432,454 432,454 433,454 434,454 435,454 436,454 436,454 439,455 442,455 445,455 446,455 447,454 448,454 450,454 451,454 451,454 452,454 453,454 454,454 455,454 456,454 457,455 458,455 460,455 460,456 462,456 464,457 465,457 473,457 473,458 471,458 468,458 468,458 467,458 466,458 464,458 463,458 463,458 462,458 461,458 460,457 459,457 459,457 457,457 457,457 456,457 455,457 454,457 453,457 452,457 452,457 451,458 451,458 450,458 450,458 449,459 448,459 447,459 447,460 446,460 445,461 445,461 443,461 443,461 442,461 442,461 440,460 439,460 439,460 438,459 437,459 437,459 436,459 434,459 434,458 433,459 433,459 431,459 430,459 430,459 429,459 428,459 428,459 427,459 427,459 426,459 425,459 425,460 424,460 424,460 423,460 422,460 422,460 421,460 421,460 421,460 420,460 419,460 419,460 418,460 417,460 416,460 415,460 415,460 415,460 414,460 413,460 412,460 411,460 410,461 408,461 407,461 406,461 405,461 405,461 405,461 404,461 404,460 403,460 403,460 401,459 401,459 401,460 401,460 401,460 402,460 402,461 402,461 403,461 403,461 403,461 403,462 403,462 402,463 402,463 401,464 400,464 401,465 401,466 400,467 399,466 398,466 398,466 396,466 395,465 395,465 394,465 394,465 393,465 393,466 393,466 393,466 393,466 393,466 393,467 392,467 392,467 391,467 390,467 390,467 389,467 389,467 389,467 388,467 387,467 387,467 386,467 386,467 385,466 384,467 383,467 382,467 381,466 381,466 379,464 378,464 377,464 376,464 376,464 375,465 373,465 372,465 372,465 371,466 370,466 369,466 367,467 367,467 367,468 368,469 367,470 367,470 367,469 366,470 366,470 364,470 364,470 360,471 357,472 356,472 352,475 351,475 349,476 347,478 348,478 345,481 346,481 346,482 346,482 346,482 345,482 345,483 345,483 345,483 345,483 345,484 344,484 344,484 344,484 343,484 343,484 342,483 342,483 341,483 341,483 340,483 339,483 337,485 337,485 337,487 337,487 336,487 338,490 335,490 335,493 335,493 336,493 337,493 337,495 337,496 336,497 335,498 335,499 334,500 333,500 331,499 329,499 323,497 322,497 321,495 320,494 319,495 318,495 316,496 315,495 314,495 314,494 311,495 310,495 306,496 306,496 306,496 305,496 305,495 305,494 305,493 305,490 304,490 304,489 305,489 305,489 305,487 308,488 308,485 308,484 308,482 309,482 309,481 309,479 308,478 308,478 308,478 308,478 307,479 307,479 307,479 306,479 306,479 305,479 304,479 304,479 304,479 303,479 303,479 303,479 303,479 302,479 302,479 301,479 301,479 301,479 301,479 300,479 299,479 300,478 300,477 300,477 300,477 300,476 300,475 300,473 300,472 301,471 299,471 298,471 297,471 295,472 295,472 293,472 292,472 291,472 290,472 290,472 290,472 290,472 289,472 289,472 289,471 289,471 287,470 287,469 286,469 286,468 285,467 284,467 281,470 279,471 279,471 278,472 276,473 275,474 274,474 273,474 272,475 272,475 271,476 270,476 269,477 269,477 268,477 267,478 265,479 263,480 262,480 262,480 262,481 261,481 261,481 260,481 260,481 260,480 260,480 260,480 259,480 259,480 255,478 254,478 254,479 248,476 247,476 245,475 244,475 241,473 240,473 240,473 239,473 237,471 234,472 233,471 230,472 228,470 225,468 223,468 221,468 220,468 220,468 219,468 218,468 217,468 216,467 216,467 215,467 214,467 213,467 213,467 206,467 205,467 205,467 204,466 202,465 201,465 200,465 200,465 199,465 197,465 194,465 193,465 192,465 191,465 191,465 190,465 186,465 185,465 184,464 182,464 181,464 180,464 179,463 178,463 177,463 175,462 170,461 167,460 164,459 158,458 156,458 155,458 154,457 153,457 150,456 148,455 146,454 146,453 145,453 145,453 143,453 141,452 141,452 139,452 136,451 135,450 132,449 129,448 128,447 125,446 123,445 122,444 120,444 121,443 120,443 119,442 116,441 115,440 113,439 112,438 111,438 110,437 106,435 104,433 104,433 103,432 104,431 102,430 100,431 99,431 101,430 101,429 98,427 98,426 96,426 93,424 92,424 91,423 89,422 87,421 84,419 82,418 80,417 77,415 73,412 69,409 68,408 65,407 64,406 62,404 58,402 58,402 57,401 55,400 54,400 53,399 51,398 49,398 50,396 51,395 52,395 50,395 49,395 48,395 46,394 45,394 43,394 42,394 42,394 40,393 36,393 30,392 30,392 29,391 26,390 25,390 23,389 23,388 22,387 21,386 19,384 17,382 13,379 11,377 7,374 5,372 5,372 3,370 1,369 0,368 0,368 1,367 3,368 3,368 5,366 8,364 9,362 8,362 13,358 15,357 17,355 18,354 20,352 24,349 27,347 28,345 28,345 29,345 27,344 26,344 25,343 24,343 23,342 22,341 20,340 21,339 21,339 19,337 17,335 16,333 14,331 14,331 14,331 14,330 13,328 11,325 10,324 8,323 8,322 8,322 6,320 5,319 4,317 4,317 4,316 5,316 12,313 15,312 16,311 17,311 19,310 20,310 19,308 18,307 17,305 17,304 17,304 17,304 15,302 14,301 12,299 15,297 17,296 21,293 26,289 26,289 26,288 27,287 27,287 28,285 28,282 28,282 28,281 27,280 28,279 26,277 25,276 24,276 24,275 23,275 23,274 23,273 14,276 14,274 11,270 15,269 13,269 13,268 13,267 13,266 13,266 15,264 15,264 15,262 15,261 14,261 14,260 12,261 10,261 10,260 12,260 15,259 16,259 18,257 19,257 20,256 19,255 19,255 19,255 20,253 19,253 20,252 20,252 18,251 18,251 17,250 17,250 17,250" id="5123" class="canton" fill="steelblue" stroke-width="1" stroke="white" geotype="canton" geoname="Vitry-le-François-Champagne et Der" code_insee="5123" code_departement="51" nom_departement="Marne" code_region="44" nom_region="Grand-Est"/></svg>