<?xml version="1.0" encoding="utf-8"?>
<svg version="1.1" id="svgmap" xmlns="http://www.w3.org/2000/svg" xmlns:xlink="http://www.w3.org/1999/xlink" x="0px" y="0px" width="100%" height="100%" viewBox="0 0 500 456">
<polygon points="32,57 37,55 40,54 41,54 42,53 42,53 42,53 42,53 42,53 42,53 42,53 43,53 43,53 43,53 43,53 43,53 43,53 44,53 44,52 45,52 45,52 45,52 46,52 46,52 46,53 46,53 46,52 47,52 48,52 48,52 49,53 49,52 50,52 50,51 50,51 51,50 51,50 52,49 52,49 53,49 53,48 54,47 54,47 54,46 54,46 54,46 54,46 53,45 53,45 53,45 53,45 52,44 52,44 52,44 52,44 52,44 52,44 52,43 52,43 51,43 51,43 51,42 51,42 51,42 50,42 50,42 50,42 50,42 49,41 49,41 49,41 49,41 48,41 48,40 47,40 47,40 47,40 46,40 46,40 46,40 46,40 46,39 46,39 46,38 46,38 46,38 45,37 45,37 45,36 44,35 44,35 44,35 44,35 44,34 44,34 44,34 44,33 44,32 44,32 44,32 44,32 45,30 45,30 45,29 45,29 45,29 46,28 46,28 46,27 46,27 46,26 46,27 46,26 46,26 42,26 42,26 42,25 42,25 41,24 41,24 41,23 40,22 40,21 39,21 39,20 39,20 39,20 39,19 38,20 37,20 37,20 37,20 36,20 36,20 36,20 36,20 37,19 37,19 37,19 36,19 36,20 35,20 35,20 35,19 36,19 36,18 37,18 38,17 38,17 38,17 39,17 39,17 39,16 40,15 40,15 41,14 41,13 41,13 42,13 42,11 42,11 37,8 36,8 36,7 35,6 35,5 35,4 38,1 38,1 38,1 38,1 39,0 39,0 40,0 41,1 41,1 42,1 42,2 43,3 43,3 45,4 45,4 45,4 47,4 47,5 48,5 49,5 49,5 49,6 49,6 49,6 50,6 50,6 51,6 52,6 52,6 53,6 53,6 54,6 54,6 55,6 55,6 55,6 55,6 55,6 56,6 57,7 58,7 58,7 58,7 59,7 59,7 59,7 60,8 61,8 62,8 62,8 62,8 63,9 63,9 65,9 65,9 67,9 67,10 67,10 67,10 67,10 67,10 67,10 68,10 69,10 69,10 69,10 69,10 69,10 70,10 70,10 71,10 72,11 72,11 72,11 72,11 73,11 73,11 73,11 73,11 74,11 74,11 74,12 74,12 74,12 74,12 74,12 75,13 75,13 75,13 76,13 76,14 77,14 77,14 78,14 78,14 78,15 79,15 79,16 79,16 79,16 80,16 80,16 82,16 82,16 82,16 84,16 85,17 86,17 86,17 86,17 87,17 87,17 88,17 89,16 89,16 89,16 89,16 90,16 91,15 91,15 91,15 92,15 92,15 92,15 92,15 93,15 93,15 93,15 93,15 93,15 93,15 93,15 94,15 94,15 94,15 94,15 95,15 95,16 95,16 95,16 95,16 95,16 95,17 95,17 95,17 95,17 95,18 95,18 95,18 95,18 96,19 96,19 96,19 96,19 96,19 97,20 97,20 99,20 99,21 100,21 100,21 101,21 101,21 103,22 103,21 103,21 103,21 103,21 104,21 104,21 104,20 104,20 105,20 105,19 106,19 106,19 107,19 107,18 108,18 108,18 109,17 109,17 109,17 109,17 109,17 109,17 109,16 109,16 110,16 110,16 110,16 110,16 110,16 110,16 111,15 111,15 111,15 111,15 113,16 113,16 114,16 115,17 116,18 116,18 117,19 118,19 119,20 120,21 121,22 122,22 123,22 124,21 125,21 126,21 128,21 129,21 129,21 130,21 131,21 132,21 132,21 132,21 132,21 132,21 131,23 133,23 132,24 131,25 133,26 132,26 133,26 132,26 132,27 133,27 133,27 133,27 134,27 134,27 134,28 135,28 135,29 135,29 136,29 136,29 136,30 137,30 137,30 137,31 137,31 138,32 138,31 139,32 139,32 139,32 140,33 140,33 140,33 140,33 140,33 140,33 141,33 142,35 141,35 142,35 142,35 142,35 142,35 143,35 143,35 143,35 144,35 144,35 144,35 144,36 145,36 145,37 145,37 146,37 146,37 147,38 147,38 147,38 147,38 147,39 148,39 148,39 148,39 148,40 148,40 149,40 148,40 148,41 148,42 149,43 149,43 149,43 150,44 149,44 150,45 151,45 152,46 152,46 152,46 153,46 154,47 154,47 155,48 155,48 156,48 159,50 159,50 160,50 161,50 161,50 162,50 162,50 162,50 163,50 163,50 164,51 165,50 166,51 167,51 167,51 168,50 169,51 169,51 169,51 169,51 169,51 170,51 170,51 170,51 171,52 172,52 172,53 174,54 174,54 174,54 175,54 176,55 177,55 177,55 178,55 179,55 179,55 179,55 179,55 180,56 180,56 181,56 181,56 185,54 186,54 186,54 186,54 186,54 187,53 187,54 188,53 189,53 189,53 190,54 191,53 191,53 192,54 192,54 193,54 193,54 193,54 195,54 195,54 196,53 197,54 198,55 199,57 199,57 199,57 199,57 199,57 200,58 201,58 201,59 202,60 203,60 203,61 203,61 202,62 201,62 202,63 201,63 202,64 202,64 203,65 203,65 201,66 202,66 202,67 202,67 201,67 201,67 201,68 201,68 201,69 201,70 201,70 201,70 201,70 201,71 201,71 201,72 201,72 203,73 203,74 203,74 204,75 204,76 204,76 205,77 204,77 204,77 204,78 205,78 205,78 205,78 205,78 205,78 205,79 206,79 206,79 206,80 207,80 207,80 208,80 209,81 209,81 209,81 211,82 212,83 212,83 212,83 212,83 213,83 213,83 213,83 213,83 214,83 214,83 215,84 215,84 215,84 216,84 216,84 216,84 216,84 216,84 217,84 217,84 217,85 218,85 218,85 219,86 219,87 220,87 221,88 222,88 222,89 223,89 224,90 224,90 225,90 225,90 226,90 227,91 227,91 227,91 227,91 227,91 227,91 228,91 228,91 229,91 229,91 230,91 230,91 230,90 231,90 231,90 231,90 231,89 231,89 231,88 231,88 231,88 231,88 231,88 232,88 232,88 233,88 233,88 234,89 235,90 235,90 235,91 235,91 236,91 236,91 236,91 236,91 236,92 236,92 236,92 236,93 237,93 237,93 237,94 238,94 238,95 238,95 238,95 238,95 238,95 238,95 238,96 238,96 238,97 238,97 239,97 239,97 239,98 240,98 241,98 241,98 242,99 243,99 243,99 244,100 244,100 245,100 246,100 246,100 247,100 247,100 248,100 248,100 248,100 249,100 249,100 249,100 249,100 250,100 250,100 251,100 252,100 252,100 252,99 252,99 253,99 253,99 253,99 253,99 254,98 254,98 254,98 255,98 255,98 255,98 255,98 256,98 256,98 257,97 257,97 260,99 260,99 260,100 260,101 262,101 259,102 259,102 257,103 255,104 254,105 253,105 253,105 252,106 252,106 252,106 252,106 252,106 251,106 251,106 250,106 249,106 249,106 249,106 248,106 248,106 248,106 248,107 247,107 247,107 247,107 246,107 246,107 245,107 245,107 245,107 245,107 245,107 245,107 245,107 244,107 244,106 244,106 243,106 243,106 242,106 241,106 241,107 240,107 240,107 240,107 239,107 239,107 239,108 238,108 238,108 238,109 237,109 237,110 237,110 237,110 237,110 237,110 237,110 237,111 236,111 236,111 236,111 236,112 235,112 235,112 235,112 235,112 235,112 234,113 234,113 234,113 233,113 233,113 232,113 232,113 232,113 231,113 231,113 231,113 231,113 230,113 230,113 230,113 229,114 229,114 229,114 229,114 229,115 228,115 228,115 228,115 228,115 228,115 227,115 227,116 227,116 226,117 226,117 225,118 225,118 224,119 224,119 224,119 223,119 223,119 222,119 222,120 221,120 221,120 220,120 220,120 219,121 219,121 219,121 218,121 218,121 217,122 217,123 218,123 218,123 218,123 218,123 218,123 218,123 217,125 216,125 216,125 216,125 216,125 216,125 215,125 215,125 214,124 214,124 214,124 214,124 214,124 213,124 213,124 212,124 212,124 212,124 212,124 212,124 211,125 211,125 211,125 211,125 211,125 211,125 211,126 211,126 210,126 208,127 208,127 208,127 206,127 204,128 204,128 203,128 202,127 200,127 200,127 199,127 199,127 199,127 198,127 197,127 196,127 196,127 195,127 194,128 193,128 193,128 192,128 192,128 192,128 195,131 196,131 197,132 198,133 199,133 199,133 200,134 203,135 203,136 203,136 204,136 204,136 204,136 206,136 206,136 207,136 210,136 210,136 215,136 216,136 223,137 224,137 225,137 225,137 226,137 227,137 227,137 228,137 228,137 229,138 229,138 230,138 231,138 235,139 236,139 236,139 236,139 236,139 236,139 236,139 236,139 237,140 237,140 237,140 237,140 236,140 235,140 234,141 234,141 234,141 234,141 234,141 232,141 232,141 232,141 232,142 231,142 231,142 231,142 231,143 231,143 231,143 231,143 231,143 231,143 231,143 231,144 230,144 230,144 230,144 230,144 229,145 229,145 229,145 229,145 228,145 227,146 227,146 227,146 227,146 227,146 226,147 226,147 226,147 226,147 227,147 227,147 227,147 228,147 228,147 227,147 227,148 227,148 227,148 226,148 226,148 226,148 226,148 225,149 225,149 225,149 226,149 226,149 226,149 225,149 225,149 225,149 225,149 225,149 225,150 224,150 224,150 223,151 223,151 222,151 222,151 222,151 222,151 222,151 221,151 221,151 220,151 219,151 219,151 219,151 219,152 219,152 218,153 218,154 218,154 218,154 217,154 217,154 217,155 216,155 216,155 216,155 216,155 216,155 215,156 215,156 215,156 214,156 214,156 215,156 214,157 214,157 215,157 215,157 215,158 215,158 214,158 214,158 214,158 214,159 214,159 214,159 213,160 213,160 214,160 214,160 214,160 215,161 215,161 215,162 215,163 215,163 216,163 216,164 217,164 217,164 218,165 218,165 218,165 218,165 218,165 218,165 218,166 218,166 218,166 218,166 217,167 216,167 216,167 216,168 216,168 216,168 215,168 215,168 215,168 214,168 214,169 214,169 214,169 214,169 214,169 214,169 214,169 214,169 214,169 214,169 214,169 214,169 214,169 214,170 214,170 214,170 213,170 213,171 213,171 213,172 213,173 213,174 214,174 214,174 214,175 214,175 214,176 214,176 215,176 215,176 216,177 216,177 217,177 217,177 217,177 218,178 219,179 219,179 219,179 219,180 220,180 220,181 221,182 221,182 221,183 221,183 221,184 222,183 223,183 223,182 224,182 225,182 225,182 227,182 228,182 228,182 229,181 231,181 232,180 232,180 233,180 234,180 237,179 238,178 239,178 240,177 241,176 242,175 242,175 243,174 244,174 244,173 245,172 246,171 246,171 246,170 247,170 248,169 248,169 249,169 250,169 251,168 251,168 252,168 252,168 253,167 253,166 254,165 254,164 254,164 254,165 255,165 255,165 256,165 257,166 257,166 258,166 258,166 258,166 258,166 258,166 260,167 260,167 261,167 261,167 261,167 261,167 261,167 261,167 261,167 261,167 263,165 263,165 265,165 265,164 265,164 266,163 266,163 266,162 266,162 268,161 269,161 270,161 270,161 270,161 271,160 271,160 271,160 272,161 274,161 274,161 274,161 274,161 274,161 275,160 275,160 275,160 275,160 275,161 275,161 275,161 275,161 275,161 276,161 276,161 277,161 278,161 278,162 278,162 279,161 279,161 280,162 280,162 280,162 281,162 282,162 283,162 283,162 283,162 285,162 285,162 285,162 285,162 287,161 287,162 287,162 287,162 287,162 288,162 289,163 289,163 289,163 290,163 290,164 291,164 293,165 294,166 294,166 295,166 295,166 296,166 296,166 296,166 298,166 298,166 299,166 300,166 304,167 304,167 306,167 307,167 308,167 310,167 310,167 313,169 313,169 312,171 311,172 311,172 310,173 310,174 310,174 309,175 309,175 309,175 310,176 312,177 312,177 312,178 312,178 312,178 312,179 312,179 312,179 312,179 312,180 311,181 311,181 311,181 311,181 311,181 312,181 312,182 312,182 313,182 313,183 313,183 314,183 314,183 315,184 316,184 316,184 317,185 317,185 317,186 317,186 318,187 318,187 318,187 318,187 319,188 319,189 320,189 320,190 320,190 321,190 321,191 321,191 321,191 321,192 321,192 321,192 321,193 321,193 321,193 322,193 323,194 323,194 323,194 323,195 323,195 323,195 323,195 324,196 324,196 325,196 326,197 326,197 326,197 326,197 326,197 326,197 326,197 326,197 328,197 328,197 328,198 328,198 328,198 328,198 329,198 329,198 329,198 329,198 329,198 329,198 329,198 330,199 330,199 330,199 330,199 330,199 330,199 330,199 330,200 331,200 333,202 333,203 333,203 334,203 334,203 334,204 337,207 337,207 337,207 337,206 337,207 338,208 339,208 339,208 339,208 339,208 340,209 340,209 341,209 342,209 343,209 343,209 343,210 344,210 344,210 345,211 346,212 346,213 347,213 347,214 348,214 349,215 350,215 350,216 351,216 351,216 352,217 352,217 353,218 353,218 353,218 354,218 354,218 354,218 354,218 354,218 354,218 354,219 354,219 354,219 355,219 355,220 355,220 355,220 356,220 356,220 356,220 356,220 356,221 357,221 359,223 359,223 359,223 359,223 359,223 359,223 359,224 360,224 360,224 360,224 361,225 362,225 362,225 362,225 362,225 362,226 363,227 364,228 366,229 366,229 367,230 368,230 368,231 368,231 368,231 368,231 369,231 369,231 369,231 369,232 369,232 369,232 370,232 370,232 370,232 370,233 370,233 369,233 369,233 370,233 370,234 370,234 370,234 370,234 370,234 370,235 370,235 370,235 370,235 370,236 370,236 370,236 370,236 370,236 370,236 370,236 371,235 371,235 372,235 372,234 372,234 374,232 374,232 374,231 374,231 375,231 376,230 377,229 378,229 378,229 378,228 379,227 379,227 379,227 383,225 383,225 384,224 384,224 385,223 389,222 389,222 389,222 390,221 390,220 391,220 391,220 391,220 391,220 391,220 391,220 393,220 393,221 394,222 395,222 398,224 399,225 399,225 400,225 401,226 404,227 405,228 405,228 406,228 406,228 406,229 407,229 407,229 409,230 410,230 411,231 412,231 413,232 415,233 415,233 417,233 417,233 420,235 420,235 420,235 420,235 421,236 421,236 421,236 422,237 422,237 423,238 423,238 425,239 426,239 426,239 426,239 426,239 426,240 426,240 427,240 427,240 427,240 427,240 427,240 428,240 428,240 428,240 428,240 428,240 428,240 428,240 428,240 428,240 428,240 429,240 429,241 429,241 429,241 430,241 430,241 429,242 429,242 429,244 429,244 429,244 429,244 429,245 429,245 429,245 429,245 429,246 428,246 428,246 428,246 428,247 428,247 428,248 428,248 428,249 428,249 428,250 428,251 428,251 427,251 427,252 427,252 426,253 426,253 426,253 426,253 425,254 424,255 424,255 423,256 422,256 421,257 421,258 421,258 421,259 420,259 420,259 420,260 420,261 419,262 419,262 419,263 419,263 418,264 418,264 418,264 418,265 418,265 418,265 419,265 418,265 418,265 419,266 420,266 420,266 422,267 423,267 423,267 423,267 423,267 424,267 424,267 424,267 424,267 424,267 424,267 425,268 425,268 425,268 425,268 425,268 425,268 425,268 425,268 426,268 426,268 427,268 427,268 428,268 428,268 429,269 429,269 429,269 429,269 430,269 430,269 430,269 430,269 430,269 430,269 431,269 431,269 431,269 431,269 431,269 431,269 432,269 432,269 433,270 433,270 434,270 434,270 434,270 434,270 435,270 435,270 435,271 435,271 435,271 438,271 438,271 438,272 438,272 442,273 444,274 449,276 450,277 450,277 450,277 451,277 451,277 452,277 454,276 454,276 454,276 454,276 454,276 455,275 455,275 455,275 455,275 456,274 456,274 456,274 456,273 456,273 458,273 461,272 461,272 461,272 464,274 464,274 465,275 465,275 466,275 466,275 468,277 468,278 468,278 470,279 471,279 473,280 473,280 474,281 476,283 477,283 480,285 481,285 482,286 482,286 483,287 483,287 484,287 485,288 485,288 486,288 486,288 487,289 487,290 487,290 487,290 489,290 489,290 489,291 489,291 489,292 490,293 490,293 490,293 490,293 490,294 490,294 490,294 490,294 490,294 490,294 490,294 491,295 491,295 491,296 491,296 491,296 491,296 491,297 491,297 492,298 492,298 492,298 494,300 494,301 494,301 494,301 494,301 495,302 495,302 495,302 496,303 496,303 496,303 496,303 496,303 496,303 496,303 496,303 496,303 496,303 496,303 497,303 497,304 497,304 498,304 498,305 498,305 499,305 499,305 499,305 499,305 499,306 499,306 500,306 500,307 500,307 500,308 500,308 500,308 500,308 499,308 499,308 499,308 499,308 499,308 499,309 499,309 500,309 500,309 500,309 500,309 500,309 500,309 500,309 500,310 500,310 500,311 500,311 499,311 499,311 500,312 500,312 500,313 500,313 500,313 498,313 497,313 497,313 496,313 495,312 493,312 493,312 492,312 491,313 491,313 491,313 489,313 489,313 487,313 487,313 487,313 487,313 487,313 486,313 486,313 486,313 486,313 485,313 485,313 484,313 484,313 484,313 483,313 483,313 483,313 482,312 482,312 482,313 482,313 482,313 482,313 482,313 482,313 482,313 482,313 482,313 481,313 481,313 480,313 479,313 478,313 478,313 476,313 476,313 475,312 474,312 474,312 473,312 472,313 472,313 472,313 472,313 471,313 471,313 471,313 470,313 469,313 468,314 468,314 468,314 468,314 468,314 468,314 468,314 467,314 467,315 467,315 467,315 467,315 467,315 467,315 466,316 466,316 464,318 464,318 463,318 463,318 464,319 464,319 464,319 463,319 463,319 462,320 462,320 460,322 460,322 458,322 457,322 457,322 455,322 455,322 455,322 454,322 453,323 453,323 453,323 454,323 454,324 455,324 455,325 455,325 455,326 456,326 456,326 456,326 456,326 456,326 456,327 456,327 457,328 457,328 456,328 456,328 456,329 456,329 456,329 456,330 456,330 456,331 456,331 456,331 456,331 456,331 457,332 457,332 458,333 459,333 459,333 459,334 459,336 459,336 459,337 459,337 459,337 459,337 459,338 459,338 458,339 458,340 458,340 458,341 458,341 457,341 457,342 457,342 457,342 457,342 457,342 457,343 457,343 457,343 457,344 457,344 458,344 458,344 458,345 458,345 458,345 458,346 458,346 457,347 456,347 455,348 454,349 454,349 454,349 457,349 458,349 458,351 458,352 458,352 458,353 458,353 458,354 450,354 450,354 450,355 450,356 450,356 450,357 449,357 449,357 449,358 449,359 449,359 449,360 450,360 450,360 450,360 450,360 450,361 450,361 450,361 450,361 450,361 450,361 450,361 450,362 450,362 449,363 449,363 448,363 447,364 446,365 445,365 444,365 443,365 443,365 443,365 442,364 442,364 442,365 442,365 443,365 442,366 441,366 441,366 441,367 441,367 441,367 440,368 439,368 439,368 438,368 437,368 437,369 437,369 437,369 437,370 437,370 437,371 437,371 436,371 436,371 436,372 436,372 436,373 436,373 436,373 436,373 437,373 436,374 435,374 435,375 434,375 434,375 435,375 434,376 434,375 434,375 434,375 433,375 433,375 432,375 433,375 433,375 432,376 432,376 432,376 432,376 432,376 433,377 433,377 433,377 433,377 433,378 433,377 434,379 435,378 435,379 436,379 436,379 436,379 436,379 436,379 437,380 436,381 436,381 436,381 437,381 437,381 437,381 437,381 438,381 438,380 439,380 439,380 440,380 440,380 441,380 441,380 441,380 442,380 442,380 443,381 443,381 443,381 443,382 443,382 442,383 443,383 443,383 443,383 444,384 445,384 445,384 445,384 444,385 444,385 444,385 445,386 446,386 446,386 446,386 446,387 446,387 446,387 445,388 445,388 444,388 444,388 443,388 443,388 443,389 442,389 442,389 442,389 442,389 442,389 441,388 441,388 441,388 440,388 440,388 441,388 441,388 440,389 440,389 440,389 440,389 440,389 440,389 440,389 439,389 439,389 438,389 438,389 438,389 438,389 438,389 438,389 437,389 437,389 437,389 437,389 436,389 436,389 436,389 436,389 436,389 436,389 436,389 436,389 435,389 434,389 434,389 433,389 433,389 432,390 432,390 432,390 431,389 431,389 431,389 431,389 431,389 431,389 431,389 431,389 430,389 430,389 430,389 429,389 429,389 429,389 429,389 429,390 428,390 428,390 428,390 427,390 427,390 427,390 426,390 425,390 425,390 424,391 424,391 423,391 423,391 423,391 424,392 424,392 424,392 422,393 421,393 421,393 421,393 420,394 419,394 419,394 419,394 420,395 420,395 420,395 419,395 419,395 419,395 419,395 419,395 418,395 418,395 418,395 418,396 416,397 416,397 416,397 416,397 416,397 416,397 415,397 415,397 415,397 415,397 415,397 415,397 415,397 415,397 414,398 414,398 414,398 415,398 415,398 415,398 415,398 414,399 414,399 414,399 414,399 414,399 414,399 415,399 415,399 416,399 416,400 416,400 416,400 416,400 416,400 415,401 415,401 415,402 415,402 415,402 415,402 415,402 415,403 414,403 415,403 415,403 415,403 415,403 415,403 415,403 415,403 415,404 416,404 416,404 416,405 416,405 416,405 416,405 416,405 416,405 416,405 415,406 415,406 414,406 414,406 414,406 414,406 414,404 414,404 414,404 411,404 411,404 411,404 411,404 411,404 411,404 411,404 411,405 411,405 411,405 411,405 412,405 412,405 412,405 412,406 412,406 411,407 411,407 411,407 410,407 409,408 408,408 408,408 409,408 409,408 408,409 407,409 407,409 407,409 407,409 408,410 408,410 408,410 409,410 409,410 410,410 410,410 410,411 411,411 411,411 411,412 411,412 411,412 411,412 411,412 411,412 411,412 412,413 412,413 412,413 412,412 412,412 412,412 412,412 413,412 413,411 414,411 414,411 414,411 414,411 415,412 415,412 415,412 415,412 415,412 415,412 415,412 415,412 415,412 415,412 415,412 416,412 416,412 416,413 416,413 416,413 416,413 416,413 416,413 416,413 416,413 417,413 417,413 417,413 417,413 418,413 418,413 418,413 418,413 418,414 418,414 418,414 419,414 419,414 419,414 419,414 421,414 421,414 421,414 421,414 422,415 422,415 422,415 422,416 422,416 422,416 422,416 422,416 423,417 423,417 423,417 423,417 423,417 423,417 423,417 423,417 423,417 423,417 423,417 423,417 423,417 423,418 422,418 422,418 422,418 422,418 422,418 422,418 422,418 422,418 422,418 422,419 422,419 423,420 423,420 423,420 424,420 424,421 424,421 426,421 427,421 429,423 431,423 431,423 432,423 432,423 432,423 434,423 434,423 434,423 434,423 434,422 434,422 434,422 435,421 435,421 436,421 436,421 436,421 436,420 436,420 435,419 435,418 435,418 434,418 434,418 434,418 434,418 433,417 433,417 433,417 433,417 433,417 432,416 432,416 432,416 432,416 432,416 432,416 431,416 431,416 431,416 431,416 431,416 431,416 431,416 431,416 431,416 431,415 430,415 430,415 430,415 430,415 430,415 430,415 430,415 430,415 430,415 430,415 430,414 430,413 430,413 429,413 429,413 429,413 429,413 429,413 429,412 429,411 429,410 429,410 429,409 429,409 429,409 430,409 430,409 430,409 431,409 433,408 433,408 433,408 433,408 433,408 434,409 434,409 435,409 435,409 435,409 437,409 437,409 437,409 437,409 437,409 438,410 438,410 438,410 439,410 440,410 440,410 440,410 441,410 441,410 442,410 442,410 442,410 442,411 443,412 443,412 443,412 443,412 443,412 444,412 444,412 444,412 445,413 445,413 446,414 446,414 447,414 447,414 447,414 447,414 447,414 447,414 449,414 449,414 449,414 449,414 449,414 449,414 449,414 449,414 449,413 449,413 449,412 449,412 449,411 449,411 452,412 452,412 453,412 453,412 454,412 454,412 454,413 454,413 454,413 455,413 455,413 455,413 455,413 455,413 455,413 455,413 455,413 455,413 455,413 456,414 456,414 457,414 457,414 458,415 458,415 459,415 460,416 460,416 460,417 460,417 460,417 461,417 461,417 462,417 462,417 462,418 463,418 464,418 464,418 464,418 464,418 464,418 464,417 465,417 465,417 465,417 465,417 465,417 465,417 465,417 465,417 465,417 465,417 465,417 465,417 465,417 466,416 466,416 466,416 466,416 466,416 466,416 466,416 466,416 466,416 466,416 467,416 467,416 467,416 467,416 467,416 467,416 467,416 467,416 467,416 467,416 468,416 468,416 468,416 468,415 468,415 468,415 468,415 468,415 468,415 468,415 468,415 468,415 469,415 469,416 469,416 469,416 469,417 469,417 469,418 469,418 469,418 469,419 469,419 469,419 469,419 469,420 469,420 469,420 469,421 469,420 469,421 469,421 469,421 469,421 470,422 470,422 470,422 470,422 470,422 470,422 470,422 470,422 471,423 470,423 471,423 470,423 471,423 470,424 471,424 471,424 471,424 471,424 471,425 471,425 471,425 471,425 470,425 471,425 471,425 472,426 479,427 480,427 480,427 481,428 482,429 483,430 483,430 485,431 486,430 487,431 486,432 486,433 487,433 487,434 487,434 487,435 487,436 488,436 490,437 491,438 491,439 490,439 490,439 490,438 490,438 490,438 490,438 490,438 490,438 490,438 490,438 490,437 489,437 489,437 489,437 489,437 488,437 488,437 488,437 488,436 487,436 487,436 487,436 487,436 486,436 486,436 486,436 486,436 486,436 485,436 485,436 485,436 485,436 484,436 484,436 484,436 484,436 483,436 483,436 483,436 482,436 482,436 482,436 482,436 482,436 482,436 482,436 482,436 481,436 481,436 481,436 481,436 481,436 481,436 480,436 480,436 480,436 480,436 479,436 479,437 479,437 479,437 479,437 479,437 478,437 478,437 478,437 478,437 478,437 478,437 477,437 477,437 477,437 477,437 477,437 477,437 476,437 476,437 476,437 476,437 476,437 476,437 476,437 476,437 476,437 476,437 475,437 475,437 475,437 475,437 475,437 475,437 475,437 475,437 475,437 475,437 474,437 474,437 474,436 474,436 474,436 474,436 474,436 474,436 474,436 474,436 474,436 474,436 474,436 474,436 474,436 473,436 473,436 473,436 473,436 473,436 473,436 472,436 472,436 472,436 472,436 472,436 472,436 472,435 472,435 472,435 471,435 471,435 471,435 471,435 471,435 471,435 470,435 470,435 470,435 470,435 470,435 470,435 470,435 470,435 470,435 469,435 469,435 469,435 469,435 469,435 469,435 469,434 469,434 469,435 468,434 468,434 468,434 468,434 468,434 468,434 468,434 468,434 468,434 468,434 468,434 468,434 468,434 468,434 467,434 467,434 467,433 467,433 467,433 467,434 467,433 467,433 467,433 466,433 466,433 466,433 466,433 466,433 466,433 466,433 466,433 465,433 465,433 465,433 465,433 465,433 465,433 464,433 464,433 464,433 464,433 464,432 464,432 464,432 464,432 464,431 463,431 463,431 462,431 461,431 461,431 461,430 460,430 460,430 460,430 459,430 459,430 459,429 458,429 458,429 458,429 458,429 457,429 456,429 456,430 456,430 455,430 455,430 455,431 455,431 455,431 455,431 454,431 454,431 454,432 454,432 454,432 453,432 453,433 453,433 452,433 452,433 452,433 451,433 451,433 451,432 451,432 451,432 451,432 452,432 451,431 450,432 450,431 449,431 448,430 450,429 450,429 450,428 451,427 451,427 451,426 451,424 451,423 451,422 451,421 450,421 450,421 449,421 449,421 449,421 449,421 448,422 448,422 448,422 448,422 447,422 447,422 446,422 446,422 446,422 446,422 445,422 445,422 445,422 444,422 444,422 444,422 443,422 442,422 442,423 442,423 443,423 443,423 443,423 444,423 444,423 444,424 445,424 445,424 445,424 445,424 446,424 446,424 447,424 447,424 449,424 449,424 449,425 449,425 449,426 450,426 450,427 449,427 449,427 449,427 448,427 448,427 448,428 448,428 448,428 448,428 447,428 447,428 447,428 446,429 446,429 446,429 446,429 446,430 446,430 446,430 446,430 446,431 445,431 445,431 445,432 444,432 444,432 444,432 444,432 444,432 444,432 444,432 444,432 444,432 443,432 443,431 443,431 443,431 442,431 442,431 442,431 442,431 441,431 441,431 441,430 440,430 440,430 440,430 440,430 439,430 439,430 439,430 439,429 439,429 439,429 438,429 438,429 438,428 438,428 437,428 437,428 436,427 435,427 435,427 434,426 434,426 434,426 434,426 434,426 434,426 434,426 433,426 433,426 433,426 433,426 433,426 433,426 433,426 433,426 432,426 432,426 431,426 431,426 431,425 431,425 431,426 431,426 431,426 431,426 431,426 431,426 431,426 431,426 431,426 431,427 431,427 432,427 432,427 432,427 432,427 433,428 432,428 432,428 432,428 431,429 431,429 431,429 430,429 427,428 426,428 425,429 424,429 423,430 422,430 421,431 421,431 421,431 420,432 419,433 419,433 419,433 418,433 418,434 418,434 418,434 418,434 418,434 418,434 418,434 418,434 417,434 417,434 417,434 417,434 417,434 417,434 417,434 417,435 417,435 417,435 417,434 417,434 417,434 416,434 416,434 416,434 416,434 416,434 416,434 416,434 416,434 416,434 416,434 416,434 416,434 416,434 416,434 416,434 416,434 415,434 415,434 416,434 416,434 415,434 415,435 415,435 415,435 415,435 415,435 415,435 415,435 415,435 415,435 415,435 415,435 415,435 414,436 414,436 414,436 414,436 414,436 414,436 414,436 413,436 413,436 413,436 413,437 413,437 413,437 413,437 413,437 412,437 412,437 412,437 412,437 412,437 412,437 411,437 411,437 411,437 411,438 411,438 411,438 411,438 410,438 410,439 410,439 410,439 410,439 410,440 410,440 409,440 409,440 408,440 408,440 408,440 408,440 407,440 407,441 407,441 407,441 407,441 407,441 407,441 406,441 406,441 406,441 406,441 406,441 406,441 406,441 406,441 406,441 406,441 405,441 405,441 405,441 405,441 405,441 405,442 405,442 404,442 404,442 404,442 404,442 404,442 404,442 404,442 404,442 404,442 404,442 404,443 404,443 404,443 404,443 404,443 404,443 404,443 404,443 404,443 404,443 404,443 404,443 404,443 404,443 403,443 403,443 403,443 403,443 403,443 403,443 402,442 402,442 401,443 400,443 400,443 398,442 398,443 398,443 397,444 396,444 395,444 395,444 394,444 394,445 393,445 393,445 393,445 393,445 392,445 391,445 390,445 390,445 390,445 390,445 390,445 390,445 390,445 390,445 389,446 389,446 389,447 385,447 383,446 381,446 380,446 379,446 379,447 378,447 378,447 378,448 378,448 376,448 376,448 374,449 374,449 374,449 373,449 373,449 373,449 373,448 372,448 372,448 372,448 372,448 372,449 372,449 371,450 371,450 371,450 371,451 371,451 370,452 369,452 369,452 370,453 369,454 367,455 365,456 364,456 364,456 364,456 364,456 364,456 364,456 364,456 363,456 363,456 364,455 364,455 363,455 363,455 362,454 362,454 362,454 361,454 361,454 362,453 362,453 362,452 362,452 362,452 362,452 362,452 362,452 362,451 362,451 362,451 362,451 362,451 362,451 363,451 363,451 362,450 363,450 362,450 362,450 362,449 362,449 362,449 361,449 361,449 362,449 362,449 362,449 362,449 362,448 361,448 361,448 361,447 360,447 360,446 360,446 360,446 360,446 360,446 360,446 360,445 359,444 358,444 358,444 358,443 359,443 359,443 359,443 357,442 358,441 358,441 359,442 359,441 359,441 358,441 358,440 358,440 358,440 358,439 358,439 358,439 358,439 358,439 358,439 358,439 359,439 359,438 359,438 359,438 359,438 359,438 359,438 358,437 358,437 358,436 358,436 359,436 359,436 359,436 359,436 359,436 360,435 359,435 359,435 359,435 359,435 358,435 358,435 358,435 358,434 358,434 359,433 360,433 361,432 361,431 361,431 362,431 362,431 362,430 364,429 364,429 365,428 365,428 366,428 366,428 366,428 367,427 368,427 368,427 368,427 368,427 369,426 369,426 370,426 371,425 371,425 372,424 372,424 373,423 374,423 375,422 376,421 377,421 377,420 377,420 377,420 377,419 377,419 377,419 377,419 377,419 377,418 377,418 378,418 378,417 378,417 375,416 373,415 371,414 370,414 369,414 369,414 369,415 368,415 368,415 368,415 368,415 368,416 368,416 368,417 368,417 368,418 368,418 366,418 366,418 366,418 365,418 365,417 364,417 364,417 364,417 363,417 363,416 362,416 362,416 361,416 361,416 361,416 361,416 360,416 360,416 360,416 359,416 359,416 359,417 358,417 358,417 358,417 358,417 357,417 357,417 356,417 356,417 356,418 356,418 356,418 355,418 355,418 355,419 354,419 355,419 354,420 354,421 354,421 355,422 355,422 355,422 355,423 355,423 355,425 355,426 354,426 353,426 352,426 352,426 352,426 352,427 351,427 351,427 351,427 351,427 351,427 350,427 350,427 350,427 350,427 350,427 350,427 350,427 349,428 349,428 349,428 349,428 348,428 348,428 348,428 347,428 346,428 346,428 346,428 346,429 346,429 346,429 346,430 346,430 346,430 346,430 345,430 345,429 345,429 345,429 345,430 344,430 344,430 343,429 342,429 342,429 342,429 342,429 342,429 341,429 342,429 341,430 341,430 341,430 340,430 340,430 340,430 340,430 340,430 340,430 340,430 340,430 340,431 340,431 340,431 340,431 339,430 339,430 338,430 337,429 336,429 336,430 335,431 335,431 334,431 334,431 333,432 333,432 332,432 331,432 330,431 329,430 326,430 323,430 323,430 323,430 322,430 322,431 321,430 321,430 320,430 320,430 317,429 315,430 315,430 315,430 312,429 312,429 312,429 313,428 314,427 315,426 315,426 318,423 319,422 319,422 319,422 319,422 319,422 319,422 320,421 321,421 318,419 318,419 317,418 315,418 314,418 314,417 313,417 312,417 312,417 312,417 311,417 310,417 310,416 310,417 310,416 310,416 310,416 310,416 310,416 310,416 310,415 309,415 309,414 309,414 308,413 307,413 306,413 306,413 306,412 306,412 306,412 306,412 306,412 306,411 305,411 305,411 305,411 305,410 305,409 305,409 305,409 305,408 305,408 305,408 304,408 304,408 304,408 304,408 304,408 303,407 303,407 303,407 302,407 302,406 302,406 303,406 302,406 302,406 302,405 302,405 302,404 302,404 303,404 303,404 304,404 304,404 305,404 306,405 306,405 307,404 307,404 307,404 307,404 308,405 308,405 309,405 309,405 309,405 309,405 309,405 309,405 311,405 311,406 313,405 313,405 313,405 313,404 313,404 313,404 313,404 313,404 313,404 314,404 314,404 314,404 314,405 314,404 315,404 315,403 315,403 315,403 316,402 317,402 317,403 317,403 318,403 318,403 319,403 319,402 319,402 320,402 320,402 321,402 321,402 321,402 320,402 320,401 320,401 320,401 320,401 320,401 321,400 321,399 321,399 321,399 322,399 322,398 322,397 325,397 326,398 327,397 328,397 329,397 330,396 332,396 332,396 332,396 336,397 336,397 340,397 340,396 340,396 340,395 340,393 340,392 340,392 340,391 343,390 346,389 346,388 347,388 347,388 347,388 347,388 348,388 348,388 348,388 348,388 348,388 348,388 349,388 349,388 349,388 349,388 349,387 349,387 349,387 349,387 349,387 349,387 349,387 349,387 349,387 348,387 348,387 348,386 348,386 348,386 348,386 348,386 348,386 348,386 348,386 348,386 348,386 348,385 347,385 346,386 345,386 344,386 344,386 343,386 341,385 341,386 341,386 341,386 341,387 341,387 341,387 341,388 340,388 340,388 340,388 339,388 339,388 338,389 338,389 338,389 337,389 336,389 335,389 335,388 335,388 334,390 334,390 335,390 335,390 335,390 335,390 335,391 335,391 334,391 334,391 334,391 334,391 334,392 333,393 333,393 333,393 332,393 332,394 332,394 331,393 331,394 331,393 330,393 330,393 330,393 329,393 329,393 329,393 328,393 328,393 327,393 327,393 327,392 327,392 327,392 326,392 326,392 326,392 325,392 324,392 324,392 323,393 323,394 322,394 322,394 322,394 322,394 321,394 321,395 321,395 321,395 320,395 320,395 319,395 318,395 318,395 318,395 317,395 317,395 316,395 316,395 315,395 315,395 314,395 314,395 313,395 313,395 313,395 312,395 312,395 312,395 312,396 312,396 312,396 311,396 311,396 310,396 308,396 308,395 308,395 307,395 307,395 307,395 306,395 305,395 305,394 304,394 304,394 303,393 303,393 302,393 302,393 302,393 302,393 302,393 301,393 301,393 300,393 300,393 300,393 300,393 299,393 299,393 299,393 299,393 299,393 298,393 298,393 298,394 297,394 297,393 297,393 297,392 297,392 297,392 296,392 296,392 296,392 295,392 295,392 295,391 295,391 295,391 295,391 296,391 295,390 295,390 295,390 294,390 294,390 294,390 294,390 294,390 294,390 294,390 294,390 294,390 294,389 294,389 293,389 293,389 293,389 293,389 293,389 293,388 293,388 293,388 293,387 293,387 293,387 293,387 293,386 293,386 293,386 293,386 293,386 293,386 293,386 294,386 294,385 294,385 294,385 294,385 295,385 294,385 294,384 294,384 294,384 294,384 294,384 294,384 294,384 294,384 294,384 295,383 295,383 296,383 296,382 297,382 297,382 297,382 297,381 297,381 297,381 296,381 296,381 296,381 296,381 297,380 297,380 297,380 297,380 297,380 298,381 298,380 298,380 298,380 297,380 297,380 297,379 297,379 296,379 296,379 296,379 296,379 295,379 295,379 294,378 294,378 294,378 294,378 295,378 295,378 295,377 295,377 295,377 296,377 296,377 296,377 296,377 296,377 297,376 297,376 297,376 297,376 297,376 297,376 297,375 298,375 298,375 298,374 298,374 298,374 298,374 298,373 298,373 298,373 298,372 298,372 298,372 299,371 299,370 299,370 300,370 300,370 300,370 299,369 299,369 299,369 297,368 296,368 296,367 296,367 296,367 295,367 295,366 294,366 294,366 294,366 294,366 294,366 294,365 294,365 293,365 293,365 293,365 293,365 293,365 292,365 292,365 292,365 292,364 292,364 291,364 291,363 290,363 290,363 289,363 289,363 289,362 289,362 289,362 288,362 288,362 288,362 287,361 287,361 286,361 286,361 286,361 284,361 282,361 282,361 281,361 280,361 280,361 279,362 278,362 277,362 277,362 275,362 273,362 273,362 272,363 271,362 270,362 269,362 268,362 268,361 267,361 267,361 266,361 265,361 265,361 264,361 264,361 263,362 263,362 263,362 262,362 262,362 261,361 261,361 260,361 260,361 259,360 258,360 256,359 256,359 255,358 254,358 253,358 251,357 250,357 250,357 249,359 249,361 248,363 248,363 248,364 249,364 249,364 249,364 249,365 249,365 250,366 250,367 249,367 248,369 247,370 247,370 247,371 246,371 246,372 246,373 246,373 246,373 246,374 246,374 247,375 247,375 247,375 247,376 246,376 246,376 245,378 244,379 244,379 243,380 243,381 242,381 241,382 241,382 242,384 242,384 242,385 242,385 243,386 243,386 244,387 243,387 243,387 242,387 241,387 241,386 240,386 240,386 240,386 240,386 240,386 239,386 239,386 238,386 238,385 237,385 237,385 237,385 236,385 236,385 236,385 236,386 236,386 236,386 235,386 235,386 235,386 234,386 234,386 234,386 233,386 233,386 232,386 232,386 231,386 231,386 231,386 230,386 230,386 229,386 229,386 229,386 229,387 228,387 228,387 228,387 227,387 227,387 227,388 227,388 227,388 227,388 227,389 227,389 227,389 227,390 227,390 227,390 227,390 227,390 227,391 226,391 226,391 226,391 226,391 226,391 225,392 225,392 225,392 225,392 225,392 224,392 224,392 224,392 224,392 223,392 223,392 222,392 222,392 222,392 221,392 221,392 221,392 221,393 220,393 218,394 217,394 217,394 217,395 217,395 216,395 216,396 216,396 215,396 215,397 215,397 215,397 216,397 216,397 216,397 216,398 215,399 215,399 214,399 213,398 213,398 213,398 213,398 212,398 212,398 212,398 211,398 211,398 211,398 211,397 210,397 210,397 210,398 210,398 210,398 209,398 209,399 209,399 209,399 208,400 208,401 208,401 207,401 207,402 207,402 208,402 208,402 208,402 209,402 209,402 210,402 210,402 210,402 211,402 211,403 211,403 212,403 212,403 212,403 212,403 213,404 213,404 214,404 214,405 215,405 216,406 216,406 216,406 216,407 217,407 217,407 217,407 217,407 218,407 216,409 216,409 215,409 215,409 215,408 214,408 214,408 214,408 214,407 213,407 213,407 212,407 212,407 212,407 211,407 211,407 210,408 210,408 209,408 209,408 209,408 209,408 209,409 209,409 209,409 207,410 207,410 207,410 207,409 206,409 206,409 206,409 205,409 205,410 205,410 204,410 204,410 204,410 204,410 204,410 204,410 205,410 204,411 204,411 205,411 205,411 205,411 205,411 205,411 205,411 205,412 205,412 205,412 205,412 206,413 206,413 206,413 206,413 206,414 206,414 206,414 206,414 206,414 206,414 206,414 206,414 206,414 206,414 205,413 205,413 205,413 205,413 204,413 204,413 204,413 203,412 203,412 203,412 202,412 202,412 202,412 202,412 202,411 202,411 202,411 202,411 202,411 201,411 201,411 201,411 201,411 201,411 200,411 200,411 200,411 200,411 199,410 199,410 199,410 198,410 198,411 198,410 198,410 198,410 197,410 197,409 197,409 194,408 193,408 193,408 193,408 192,407 192,407 192,407 194,405 194,405 194,404 194,403 194,402 194,402 194,402 195,401 195,400 196,399 196,399 196,399 198,399 198,399 198,399 198,397 197,396 195,395 193,394 193,394 193,394 194,394 194,394 194,393 194,393 194,393 195,393 194,392 194,392 194,391 193,392 193,392 192,391 191,391 191,391 190,391 191,390 191,390 191,389 191,389 191,389 191,389 191,389 192,389 192,388 192,388 192,387 192,387 192,387 192,387 192,387 192,387 192,387 191,386 191,386 191,386 191,386 191,386 193,386 193,385 194,385 195,385 195,384 196,384 198,382 198,382 197,380 197,379 197,378 197,378 197,378 197,377 197,376 197,375 197,375 197,375 197,374 197,374 196,373 196,373 196,372 196,372 196,371 195,371 195,371 194,369 193,368 192,367 192,367 192,366 192,366 192,366 192,365 192,365 192,365 192,365 192,365 191,365 191,365 191,365 191,364 191,364 191,364 191,364 192,363 191,363 192,363 192,363 192,363 192,362 191,362 191,362 191,362 191,361 191,361 190,359 190,359 190,357 189,357 190,354 190,353 191,353 191,352 191,351 192,349 192,349 193,349 193,349 194,349 194,349 194,349 195,350 195,350 195,351 196,351 196,351 197,351 198,351 198,352 200,351 200,351 202,351 202,351 202,351 203,351 203,351 204,351 204,351 205,351 205,351 206,351 206,352 207,352 208,352 208,352 209,352 209,352 209,352 209,352 209,352 209,352 210,352 210,352 210,351 211,351 212,350 214,349 215,349 215,349 216,349 217,349 217,349 217,349 217,349 219,348 220,348 220,348 221,348 221,348 221,347 221,347 222,347 222,347 222,346 222,346 222,346 222,346 222,346 222,346 223,346 223,345 223,345 223,345 223,345 223,345 224,345 224,345 224,345 224,345 225,345 225,345 225,345 225,345 225,345 225,345 225,344 225,344 225,344 225,344 225,344 225,344 225,343 225,343 224,343 224,343 224,343 224,343 224,343 224,343 224,343 224,343 224,342 224,342 223,342 223,342 223,341 223,341 223,341 223,341 223,341 223,341 223,341 223,341 223,341 223,341 223,341 223,340 223,340 223,340 223,340 223,340 223,339 223,339 223,339 223,339 223,339 223,339 223,339 223,338 224,338 224,337 225,337 225,337 225,337 226,336 227,336 227,336 227,336 228,336 228,336 229,336 229,335 230,335 231,335 231,335 232,335 233,335 234,334 235,334 236,334 236,334 237,333 237,333 237,332 237,331 236,331 236,330 236,330 235,330 234,329 233,329 233,329 233,329 233,329 232,328 232,328 232,328 232,328 232,328 232,328 231,328 231,328 231,328 230,328 230,328 230,327 230,327 230,327 229,327 229,327 229,327 229,327 228,327 228,327 228,327 227,327 227,327 227,326 227,326 227,326 227,326 226,326 226,325 226,325 225,325 225,325 225,325 225,325 225,325 225,324 225,324 225,324 224,324 224,324 224,324 224,324 223,323 223,323 222,323 222,323 221,323 221,323 221,322 221,322 220,322 219,322 219,322 218,322 218,322 217,322 217,322 217,322 217,322 216,322 216,322 216,322 216,322 216,322 216,322 216,322 216,322 216,322 216,322 215,322 215,322 215,322 215,322 215,322 215,322 215,322 214,322 214,322 214,322 214,322 214,322 214,322 214,321 214,321 214,321 214,321 214,321 214,321 214,321 214,321 214,321 214,321 214,321 215,321 215,321 214,321 214,321 215,320 215,320 214,320 214,320 214,320 214,320 214,320 214,320 214,320 214,320 214,320 214,320 214,320 214,320 214,320 214,320 214,320 214,320 214,320 214,320 214,320 214,320 214,320 213,320 213,320 213,320 213,320 213,320 213,320 213,320 213,320 213,320 213,320 212,320 212,320 212,320 212,320 212,320 212,321 212,321 212,321 212,321 212,321 212,320 212,320 211,320 211,321 211,321 211,321 211,321 211,320 211,320 211,320 210,320 210,320 210,320 210,320 210,320 210,320 210,320 210,320 210,320 210,320 210,320 210,320 210,320 210,320 209,320 209,320 209,320 209,320 209,320 209,320 209,320 209,320 209,320 209,320 209,320 209,319 209,319 208,319 208,319 208,319 208,319 208,319 208,319 208,319 208,319 208,319 208,319 208,319 208,319 208,319 208,319 208,319 208,319 208,318 208,318 208,318 208,318 208,318 208,318 208,318 208,318 208,318 208,318 208,317 208,317 208,317 208,317 208,317 208,317 208,317 208,317 208,317 208,317 207,317 207,317 207,317 208,317 207,317 207,317 207,317 208,317 208,317 208,317 208,317 207,317 207,316 207,316 207,316 207,316 207,316 207,316 207,316 208,316 208,316 208,316 208,316 208,316 208,315 209,315 209,315 209,315 210,315 210,315 210,315 210,315 211,315 211,315 211,315 211,315 211,315 212,315 212,315 212,315 213,315 213,315 213,315 213,315 214,315 214,315 214,315 215,315 215,315 216,315 216,315 216,315 217,315 217,315 217,315 217,315 218,315 218,315 218,315 218,314 219,314 218,314 218,314 219,314 219,313 219,313 219,313 220,313 220,313 220,312 220,311 219,311 219,310 219,310 219,309 219,309 220,308 220,308 220,307 220,307 221,307 221,306 222,306 224,305 224,305 224,303 225,302 226,301 226,301 225,301 225,301 225,301 225,301 225,301 225,300 225,300 225,300 225,300 225,300 224,300 224,299 224,299 224,299 224,299 223,298 223,298 223,298 222,298 222,298 222,297 221,297 221,297 221,297 221,297 221,296 221,296 221,296 221,296 221,295 222,295 222,294 222,294 221,294 222,293 222,293 223,293 223,292 223,292 224,292 224,292 225,292 225,292 225,291 225,291 227,291 229,291 230,291 230,290 230,290 230,290 230,289 230,289 230,288 230,288 229,287 229,287 229,287 229,287 228,287 227,287 227,287 226,287 225,287 224,287 224,287 223,288 223,288 222,289 222,289 222,289 221,289 221,288 220,288 220,288 220,287 220,286 219,285 219,285 219,284 218,284 218,284 218,284 217,284 217,284 217,284 216,284 216,284 216,283 217,283 217,282 217,282 218,281 218,281 218,280 218,280 217,280 217,279 217,279 216,279 216,280 216,280 215,281 215,281 215,281 213,281 213,281 212,281 212,280 212,280 212,279 212,279 212,279 212,278 212,278 212,278 211,278 211,277 210,277 210,277 210,277 210,277 210,277 209,277 209,277 209,277 209,278 209,278 208,278 208,278 208,278 207,278 207,278 207,278 207,277 207,277 206,277 206,277 206,277 206,277 205,277 205,277 205,278 205,278 205,278 205,278 204,278 204,278 203,277 203,277 202,277 202,276 201,276 201,277 200,277 200,277 199,277 199,277 199,277 199,277 199,277 198,278 198,278 198,278 198,278 197,277 197,277 196,277 196,277 196,277 194,277 194,276 194,275 194,275 193,275 193,275 193,275 192,275 192,275 192,275 191,275 191,275 191,275 190,275 190,275 190,275 190,273 189,273 189,273 189,272 189,272 189,272 188,272 188,272 188,272 187,272 187,272 187,272 186,272 186,272 186,272 186,272 185,272 185,272 185,271 184,271 185,271 186,270 185,267 184,266 183,265 183,264 183,264 182,263 182,262 182,262 180,261 180,260 180,259 179,259 179,259 179,259 178,258 178,258 177,257 176,257 176,257 175,256 175,256 175,256 175,256 174,256 174,256 174,255 173,255 173,254 172,254 172,254 171,253 170,252 170,251 169,251 169,251 169,250 168,250 167,249 167,248 167,248 166,248 165,247 166,246 165,245 165,245 165,245 164,245 164,244 164,244 164,244 164,244 164,244 164,244 164,243 164,243 164,243 162,241 162,241 161,241 161,241 161,241 161,241 160,241 159,241 159,241 158,241 157,241 157,241 156,241 156,241 155,241 155,241 154,241 153,241 153,241 153,241 152,240 151,240 151,240 151,239 150,239 150,239 150,238 149,238 149,237 149,237 148,236 148,236 147,235 147,235 147,235 147,235 147,235 147,235 147,235 147,235 147,234 149,234 149,234 149,234 149,232 149,232 149,230 149,230 149,229 150,228 151,228 153,227 154,227 154,226 155,226 155,226 155,225 155,225 155,224 155,223 156,222 157,222 157,221 158,221 159,221 159,221 159,220 159,220 159,220 159,219 159,219 159,219 159,219 159,218 159,218 159,217 159,217 159,217 160,216 162,215 165,214 166,214 167,214 167,213 168,213 169,212 169,212 170,211 171,211 172,211 172,210 173,210 173,208 174,207 174,206 174,206 175,205 175,205 176,204 176,203 177,202 178,202 178,201 178,200 178,200 178,197 178,197 178,197 178,197 176,197 175,197 175,197 175,197 174,196 173,197 173,197 172,196 172,196 172,196 172,195 172,195 171,195 170,195 170,195 170,195 169,195 169,195 169,194 168,194 168,194 167,194 167,194 167,194 166,193 166,193 166,193 166,193 165,193 164,192 164,192 163,192 163,192 163,192 163,192 163,192 162,192 162,192 162,192 161,192 161,192 160,193 160,193 160,193 159,193 159,193 158,193 158,193 158,193 158,193 157,193 156,193 156,193 156,193 156,193 155,193 156,194 155,194 155,194 155,195 155,196 154,196 154,197 154,197 154,197 154,197 152,198 151,198 151,199 151,200 151,200 150,202 150,201 149,201 149,201 148,201 147,199 147,199 148,197 150,194 149,195 145,195 140,195 135,195 134,195 133,194 133,194 132,194 131,194 131,194 130,194 129,194 129,194 128,194 128,193 127,193 127,192 126,192 125,192 125,192 125,192 124,191 124,191 124,191 123,191 123,191 123,191 120,190 120,190 119,190 119,190 119,190 121,190 122,190 122,189 123,189 122,189 122,188 121,188 120,187 120,186 120,186 120,184 120,184 120,184 121,183 122,183 123,182 124,182 125,182 127,181 128,180 128,180 129,179 129,179 130,178 130,178 130,177 130,177 130,175 131,174 131,174 131,174 131,173 131,173 130,173 129,173 129,173 128,173 127,172 127,172 126,172 125,172 123,173 123,173 122,173 122,173 122,173 121,174 121,174 119,175 118,175 118,175 117,175 117,176 116,176 116,176 116,176 116,177 115,177 115,177 114,177 114,177 113,177 112,178 110,179 110,179 109,179 109,179 109,180 108,181 108,181 108,182 108,182 107,183 107,183 107,183 107,184 106,185 106,185 106,185 106,186 106,186 106,187 106,187 107,188 107,188 106,189 106,190 106,190 106,190 106,191 106,191 106,192 104,192 104,192 102,192 102,193 102,192 101,192 101,191 101,191 100,191 100,190 100,190 100,190 99,190 99,189 98,189 98,189 98,189 98,188 96,187 95,187 95,186 94,185 94,185 92,183 91,182 91,182 90,181 89,181 88,180 88,180 89,179 89,178 89,178 89,178 89,177 88,177 88,177 88,176 88,176 88,176 87,175 87,175 87,175 87,174 87,174 87,174 87,173 86,173 84,172 84,171 84,171 84,170 85,170 85,170 84,170 84,170 83,170 82,169 82,169 82,169 81,168 81,168 80,167 80,166 79,166 79,165 79,164 79,164 78,163 78,163 78,163 78,162 78,162 79,161 79,161 79,161 79,161 80,161 80,161 81,160 82,160 83,160 83,160 84,161 84,161 85,161 86,160 88,160 89,160 89,160 89,160 90,160 91,160 91,159 92,159 93,159 93,159 93,159 93,159 95,159 96,159 96,159 97,158 97,158 97,158 97,158 98,158 98,158 98,158 100,158 101,158 101,158 102,158 102,158 102,158 103,158 103,158 103,158 103,158 104,158 104,158 105,158 105,157 105,157 105,157 106,156 106,156 106,156 106,156 106,155 106,155 106,155 106,154 106,154 106,154 106,154 106,154 106,154 107,153 107,153 107,153 107,153 107,153 107,152 108,152 108,152 108,152 108,152 108,152 109,152 106,150 105,149 104,149 104,149 104,149 104,149 103,149 100,148 99,148 97,148 97,148 97,148 97,148 96,148 96,148 94,146 95,144 95,144 94,144 94,144 94,144 94,143 93,142 93,142 92,142 92,142 92,142 92,141 92,141 92,141 92,141 92,141 91,141 90,141 89,142 88,142 88,142 88,142 88,142 81,144 80,144 80,144 79,144 78,144 77,144 75,144 75,144 74,144 73,144 73,144 73,144 73,144 68,143 68,143 67,143 65,142 63,142 63,142 64,141 64,141 64,140 64,140 64,140 64,140 63,140 63,140 63,140 64,139 63,139 63,139 63,139 63,139 63,139 63,139 62,138 62,138 61,137 61,137 61,137 61,136 61,136 61,136 61,136 61,135 62,135 62,135 62,134 63,134 63,134 63,134 63,134 63,134 62,133 62,133 63,131 63,130 63,130 63,130 63,130 63,130 63,129 64,129 64,129 64,129 64,128 64,128 64,128 65,128 65,127 65,127 65,127 65,126 65,125 65,125 66,125 66,124 66,124 67,124 67,124 67,123 67,123 67,123 67,123 66,123 66,123 66,123 64,123 64,123 63,123 62,122 62,122 62,122 61,122 61,122 61,121 61,121 60,121 60,121 60,120 59,120 59,120 58,120 58,120 58,120 58,120 58,120 58,120 58,120 55,119 55,119 55,119 54,119 53,119 53,119 53,119 54,120 54,120 54,120 54,120 53,120 52,121 51,121 51,121 50,121 50,121 50,121 49,122 49,121 49,121 47,122 48,122 47,123 47,123 47,124 47,125 46,124 46,124 45,124 45,123 45,123 45,124 44,124 44,124 44,124 43,124 43,124 43,125 43,125 43,125 42,125 42,125 42,126 42,126 42,126 42,126 41,126 41,126 40,126 40,126 38,127 37,127 37,127 37,127 36,126 36,125 36,125 36,125 35,125 35,125 34,124 33,124 32,124 32,123 31,123 30,123 30,123 30,122 30,121 30,121 29,120 29,120 29,120 29,120 28,119 28,119 28,119 27,118 28,118 28,117 28,117 28,116 29,116 28,116 28,115 28,115 28,115 28,115 27,115 27,114 27,114 27,113 27,113 26,113 26,113 26,113 25,113 25,113 25,112 25,112 25,112 24,112 23,112 23,111 22,111 22,111 21,111 20,110 19,110 18,109 18,109 18,109 16,109 15,108 15,108 14,108 13,108 12,107 12,107 12,107 12,107 11,107 11,107 11,106 10,106 10,106 10,106 10,106 9,106 8,106 8,106 8,106 8,106 8,105 7,105 7,104 7,104 7,104 7,104 7,104 7,104 7,104 7,102 7,101 6,100 5,100 5,100 5,100 2,97 1,96 1,96 1,96 2,95 1,93 1,93 1,93 1,92 0,92 0,92 0,92 0,91 0,91 0,91 1,91 1,90 1,90 2,90 2,89 2,89 2,89 3,89 3,88 3,88 3,88 4,88 4,87 4,87 4,87 4,87 4,87 4,87 5,87 5,87 5,86 6,86 7,85 7,85 8,84 8,84 9,84 9,84 10,83 10,83 10,82 11,82 12,81 12,81 12,81 13,80 14,80 15,79 16,79 16,79 17,79 18,79 18,79 18,79 18,79 19,78 20,78 20,78 21,78 22,77 22,77 23,77 23,76 24,75 25,75 25,75 25,75 25,75 26,75 26,75 26,75 26,74 26,74 26,74 25,74 25,74 25,74 24,73 23,72 23,72 23,72 23,72 24,71 24,71 24,71 25,71 25,71 25,71 25,71 26,71 26,71 26,71 26,71 26,70 26,70 26,70 26,70 26,70 26,69 26,69 26,69 26,69 26,69 26,68 29,68 29,68 30,67 30,67 30,67 30,67 30,67 31,67 31,67 31,66 31,65 31,64 31,64 31,64 32,64 32,64 32,64 33,63 33,63 33,63 34,63 34,62 34,62 34,62 34,62 34,62 34,62 33,61 33,59 33,59 32,58 32,57 32,57" id="5212" class="canton" fill="steelblue" stroke-width="1" stroke="white" geotype="canton" geoname="Poissons" code_insee="5212" code_departement="52" nom_departement="Haute-Marne" code_region="44" nom_region="Grand-Est"/></svg>