<?xml version="1.0" encoding="utf-8"?>
<svg version="1.1" id="svgmap" xmlns="http://www.w3.org/2000/svg" xmlns:xlink="http://www.w3.org/1999/xlink" x="0px" y="0px" width="100%" height="100%" viewBox="0 0 500 281">
<polygon points="1,239 1,238 2,238 5,238 6,238 6,236 7,236 7,236 8,235 8,235 7,234 8,233 8,232 8,232 8,232 8,230 8,229 7,228 7,228 6,226 6,225 5,224 5,224 4,223 4,223 4,222 3,221 3,220 2,220 2,219 2,219 3,218 3,218 3,217 3,217 3,216 3,216 3,216 4,215 5,215 5,214 6,214 7,213 8,212 8,212 8,212 9,212 9,211 10,211 11,210 13,209 14,209 16,208 16,206 16,206 16,205 17,205 18,205 18,204 17,204 17,204 18,203 19,203 19,202 21,202 21,201 20,201 20,201 21,200 21,200 22,200 22,200 23,199 24,199 24,198 26,198 26,198 28,198 29,198 29,197 29,196 29,196 29,194 29,193 29,193 31,192 36,190 38,188 39,188 42,187 45,186 49,185 54,184 54,185 54,187 54,188 53,189 54,189 56,189 57,188 58,189 60,189 60,188 62,188 63,189 63,189 63,191 63,191 66,192 66,193 67,194 69,196 67,196 68,197 69,197 70,196 70,197 71,199 73,200 72,201 72,201 70,201 72,204 74,206 76,206 78,206 78,207 79,207 80,209 81,209 82,210 83,210 84,210 86,210 87,210 89,209 92,208 95,206 97,206 98,206 101,205 104,204 105,204 106,204 107,203 108,203 110,202 109,202 109,201 110,200 110,199 110,197 109,196 109,194 109,194 110,193 111,192 111,191 111,190 111,189 112,188 113,187 114,187 115,187 115,187 115,187 118,186 122,186 125,185 128,185 131,184 132,184 131,183 130,182 129,181 129,180 131,179 132,181 132,181 133,181 133,179 135,179 135,180 136,179 138,178 139,178 139,178 139,178 139,178 139,178 140,177 140,177 140,177 140,177 140,177 140,176 141,176 143,177 143,177 144,177 144,176 143,175 143,175 143,174 145,174 147,173 148,173 148,171 148,170 148,170 145,170 145,171 144,170 143,170 143,170 144,169 143,168 142,168 140,169 140,169 139,169 139,169 138,169 138,169 138,168 135,166 135,166 133,167 132,166 131,166 130,166 128,166 127,165 127,165 128,163 129,161 129,158 127,156 127,156 126,156 125,156 125,156 123,156 122,155 121,154 118,153 118,152 117,152 117,151 116,151 115,151 114,151 113,150 111,149 110,149 109,148 108,148 108,146 107,146 106,145 104,145 102,145 101,145 100,145 99,145 98,145 98,145 98,144 97,144 96,143 96,143 95,143 94,143 93,143 91,143 90,144 89,144 88,144 85,146 84,145 83,146 81,146 80,146 78,146 77,146 76,147 75,147 73,147 73,147 72,146 71,146 69,146 68,145 66,144 65,144 63,144 63,144 61,143 60,143 59,143 58,143 57,143 57,143 55,141 55,141 55,141 55,141 55,141 55,141 54,141 54,141 54,141 54,141 54,141 54,140 54,140 53,139 53,138 53,138 53,138 52,137 52,137 51,136 51,136 51,136 50,135 50,135 50,134 50,134 50,134 50,134 50,134 49,134 49,134 49,133 49,132 48,131 48,130 47,130 47,130 46,129 45,128 45,128 45,127 44,127 44,127 43,126 41,124 40,124 40,124 40,123 39,123 39,123 39,122 38,122 38,122 38,122 38,122 38,122 39,121 39,121 40,118 41,118 43,119 43,119 44,119 44,119 45,119 45,119 45,119 45,119 47,119 47,119 47,118 47,118 48,118 49,117 49,117 49,117 50,117 50,117 50,117 50,117 50,117 50,116 49,116 49,116 49,116 49,116 49,116 50,115 50,115 49,114 49,114 50,114 50,114 50,114 50,114 50,114 50,114 50,114 51,114 51,113 51,113 51,113 52,113 52,112 52,112 52,112 52,112 53,111 53,111 53,111 53,111 53,111 53,111 53,110 53,110 53,110 53,109 53,109 53,109 52,109 52,108 51,108 51,108 51,108 51,108 51,108 50,107 50,107 50,107 50,107 49,107 50,107 50,107 49,107 49,107 49,106 49,106 49,106 49,106 50,106 50,106 50,106 50,106 50,106 50,106 50,106 50,106 50,106 50,105 50,105 50,105 50,105 51,105 51,105 52,105 52,105 53,105 53,105 53,105 53,104 54,104 54,104 54,104 54,104 54,104 54,103 54,103 54,103 55,103 53,101 52,100 49,97 47,95 43,92 43,92 44,91 44,92 44,92 44,92 44,92 45,92 45,92 46,92 46,92 46,92 47,92 48,92 49,92 49,91 49,91 49,91 50,91 50,91 50,91 51,91 52,91 52,91 52,91 52,91 52,90 52,90 52,90 52,90 52,89 52,89 52,88 52,88 52,88 53,88 53,88 53,88 53,88 54,88 54,88 55,88 55,88 56,87 57,87 57,87 57,87 56,87 56,87 57,87 57,87 57,87 57,86 57,86 57,86 57,86 58,86 58,86 58,86 58,86 59,86 59,86 59,86 60,85 60,85 60,85 60,84 60,84 60,84 60,84 60,84 60,84 60,84 60,83 60,83 60,83 60,82 60,82 60,82 62,82 62,82 62,82 62,82 62,81 62,80 62,80 63,80 63,80 63,80 63,80 64,81 64,81 64,80 64,80 64,79 64,79 64,79 64,79 64,79 64,79 64,79 64,79 63,78 63,78 63,78 63,78 63,78 63,78 64,78 64,77 64,77 64,77 64,77 64,77 64,77 64,77 64,76 64,76 64,76 64,76 64,75 64,75 64,75 64,75 64,75 64,74 64,74 64,74 64,74 64,74 64,74 64,74 64,74 64,73 64,73 64,73 64,73 64,73 64,72 64,72 63,72 63,72 63,72 63,72 63,71 63,71 63,71 63,71 63,71 63,71 63,71 62,70 62,70 62,69 61,69 61,69 60,68 60,68 60,68 61,67 61,67 62,67 63,66 63,66 63,66 64,66 64,66 64,65 64,65 65,65 65,65 65,64 65,64 66,64 66,64 67,63 67,63 67,63 68,63 68,62 68,62 68,62 68,62 68,61 68,61 68,61 68,61 68,61 68,60 68,60 68,60 68,60 67,59 67,59 67,59 67,59 68,59 68,59 68,59 69,59 69,59 69,59 69,59 69,59 69,60 69,60 69,60 69,60 69,60 69,60 69,60 69,60 69,60 69,60 70,60 69,60 70,60 70,60 70,60 70,60 70,61 70,61 71,61 71,61 71,61 71,61 71,61 71,61 71,61 72,61 72,61 72,61 72,61 72,61 73,61 73,61 73,61 73,61 73,61 73,61 73,61 73,61 74,61 74,61 74,61 74,61 75,61 75,61 75,61 75,61 75,61 75,61 75,61 75,61 75,61 75,61 75,61 75,61 76,61 76,61 76,61 76,61 76,61 76,60 76,61 76,61 76,61 76,60 76,60 76,60 77,60 77,60 77,60 77,60 77,60 77,60 77,60 77,60 77,60 78,60 78,60 78,60 78,60 78,60 78,60 78,60 78,60 79,60 79,60 79,60 79,60 79,60 79,60 79,60 79,60 79,61 79,61 79,61 79,61 79,61 80,61 80,61 80,61 80,61 80,61 80,61 80,61 81,61 81,61 82,61 82,61 82,61 82,60 82,60 83,60 84,60 84,60 84,60 84,60 84,60 84,60 84,60 84,59 84,59 84,59 84,59 85,59 85,59 84,58 84,58 84,58 84,58 84,58 84,58 83,58 82,58 82,58 82,58 82,58 82,58 82,58 81,57 81,57 81,57 81,57 80,57 80,56 80,56 79,55 78,54 78,54 78,54 77,53 76,52 75,52 75,52 75,51 75,51 75,51 75,50 75,50 75,50 75,49 74,49 74,49 74,48 73,46 73,45 73,45 73,45 72,44 72,44 72,43 72,43 71,42 71,41 71,41 71,40 71,40 71,40 70,40 70,40 70,40 70,39 70,39 70,39 70,39 70,39 70,39 70,39 70,38 70,38 70,38 70,38 70,36 69,35 69,35 69,35 69,34 69,34 68,34 68,33 68,33 68,33 68,33 68,33 68,32 68,32 69,32 69,31 69,31 69,31 69,31 69,30 69,30 69,30 69,29 68,29 68,28 68,27 68,27 68,27 68,26 68,26 68,26 67,26 67,26 67,26 67,26 66,25 66,25 65,25 64,24 63,24 63,24 63,24 63,24 63,24 63,23 63,23 64,23 65,22 65,22 65,22 65,22 66,22 66,22 66,22 66,22 67,22 67,22 68,21 69,21 69,21 70,21 70,21 71,21 72,21 72,21 73,21 73,21 74,21 74,21 74,21 74,21 75,20 76,20 76,20 77,20 77,20 78,20 78,20 79,20 79,20 80,20 80,20 80,20 80,20 81,19 82,19 82,18 82,18 82,18 82,18 82,18 82,18 82,18 83,18 83,18 83,17 83,17 83,17 83,17 83,17 84,17 84,16 84,16 84,16 84,16 84,16 84,16 84,16 84,16 84,16 84,16 84,16 84,16 84,16 84,15 85,15 85,15 85,15 85,15 85,15 85,15 86,13 87,13 87,13 87,12 88,12 88,12 88,11 88,11 89,10 89,10 89,9 88,8 88,8 87,7 87,7 87,7 88,6 88,6 88,6 88,6 88,6 88,6 88,6 88,6 88,6 88,6 88,6 88,6 88,6 88,6 89,5 89,5 89,5 89,5 90,5 90,5 91,5 91,5 92,5 92,5 92,5 93,5 93,5 93,5 94,4 95,4 95,4 95,4 95,4 95,3 95,3 95,3 95,3 95,3 96,3 96,3 96,3 96,2 96,2 96,2 96,2 96,2 97,2 97,2 97,1 97,1 97,1 97,1 97,1 98,1 98,0 98,0 98,0 99,0 99,0 99,2 100,3 101,4 102,5 103,6 102,8 103,9 104,10 105,11 108,12 109,12 109,13 109,13 108,14 105,16 101,17 100,18 98,20 98,23 98,24 100,25 101,26 101,27 103,27 105,28 107,28 108,29 109,29 109,29 110,30 110,31 109,34 109,36 109,38 109,38 109,39 109,39 109,39 110,40 110,40 110,40 110,40 110,41 110,41 110,41 111,41 111,41 112,41 112,41 113,41 113,41 114,41 114,41 115,41 116,41 116,42 117,42 117,42 117,42 118,42 118,43 118,43 118,43 118,43 118,43 118,43 119,43 119,43 119,44 119,44 119,45 119,45 119,46 119,46 120,46 120,46 120,47 121,47 121,48 121,48 122,49 122,49 122,50 122,50 122,51 122,51 122,53 122,53 122,53 122,53 123,54 123,54 124,54 124,55 124,55 124,55 125,55 125,56 125,57 126,58 126,58 125,58 125,58 124,59 123,59 123,59 122,60 122,60 122,60 122,60 121,60 121,60 121,60 121,60 120,59 118,58 117,57 117,57 117,57 116,56 115,56 115,56 116,56 115,56 115,56 115,56 114,56 114,56 113,56 112,56 111,56 109,56 108,56 107,56 106,56 106,56 106,56 105,56 105,56 105,56 104,56 104,57 104,58 104,59 103,59 103,59 103,60 102,60 101,61 101,62 101,62 100,62 100,62 100,63 98,64 98,65 97,65 96,65 96,66 96,66 96,66 95,67 95,67 95,67 95,68 96,69 96,69 96,70 96,70 96,70 97,70 97,70 97,71 98,71 98,71 98,72 99,73 100,75 100,75 101,76 102,76 102,77 102,77 103,77 103,77 104,78 104,78 105,79 106,79 106,79 106,79 106,79 107,80 107,80 108,80 108,80 109,80 109,80 110,80 110,80 111,80 112,81 113,81 114,81 114,81 116,81 116,81 117,81 118,81 118,81 119,82 119,82 120,82 121,82 122,82 123,83 123,83 124,83 124,83 124,84 125,84 125,84 126,84 126,85 128,85 128,86 129,86 129,86 130,87 130,87 130,87 130,87 131,88 132,88 133,89 134,89 134,89 134,89 136,90 136,90 136,91 137,92 137,92 138,92 138,93 140,95 140,95 140,95 140,95 141,96 142,96 142,96 142,96 142,96 142,96 142,96 143,96 143,96 143,96 143,96 143,95 143,95 143,95 143,95 143,95 143,95 143,95 144,95 144,95 144,95 144,95 145,95 145,95 145,95 146,95 147,95 147,95 148,94 148,94 148,94 148,94 149,94 149,94 149,94 149,94 149,94 149,94 149,94 149,94 150,94 150,94 150,94 150,94 150,94 151,94 151,94 151,94 151,94 151,94 151,94 151,94 151,94 151,94 152,94 152,94 152,94 152,94 152,94 152,94 152,94 152,94 152,94 152,94 152,94 153,94 153,95 153,94 153,95 153,95 153,95 153,95 153,95 153,95 154,95 154,95 154,95 154,95 154,95 154,95 154,95 154,95 154,95 154,95 154,95 154,95 155,95 155,95 155,95 155,95 155,95 155,95 155,95 155,95 155,95 155,95 156,95 156,95 156,96 156,96 156,96 156,96 156,96 157,96 157,96 157,96 157,96 157,96 157,96 157,96 157,96 158,96 158,96 158,96 158,96 158,96 158,96 158,96 158,96 159,96 159,96 159,96 159,97 159,97 159,97 160,97 160,97 160,97 160,97 160,97 160,97 160,97 160,97 160,97 160,97 161,97 161,97 161,98 161,98 161,98 161,99 161,99 162,99 162,99 161,99 161,99 161,99 161,100 161,100 161,100 161,100 161,100 161,100 162,100 161,100 162,100 162,101 162,101 162,101 162,101 162,101 162,101 162,101 162,101 162,101 163,101 163,102 163,102 163,102 163,102 163,102 163,102 163,102 163,102 163,102 163,103 163,103 163,103 163,103 163,103 163,104 163,104 163,104 163,104 163,104 163,105 163,105 163,105 164,106 164,106 164,107 164,106 165,106 165,106 165,106 165,106 166,106 166,106 167,106 168,106 168,106 169,106 169,106 169,106 169,106 169,106 170,106 171,106 171,106 172,106 172,106 172,106 172,106 172,106 173,106 173,106 173,106 173,106 173,106 173,106 173,106 174,106 174,106 174,106 175,106 175,106 175,105 176,105 176,105 176,105 176,105 177,105 177,105 177,105 177,105 177,105 177,105 177,105 177,105 178,105 178,105 178,105 179,105 179,105 179,105 179,105 179,105 179,105 181,105 181,105 181,105 182,106 182,106 182,106 183,106 183,106 183,106 183,106 183,106 183,106 183,106 183,106 183,106 183,106 183,106 183,106 183,106 183,106 184,106 184,106 183,106 184,106 184,106 184,106 184,106 184,106 184,106 184,105 184,105 184,105 184,105 184,105 184,105 184,105 184,105 184,105 184,104 184,104 184,104 183,104 183,104 183,104 183,104 183,104 183,104 183,104 183,103 183,103 183,103 182,103 182,103 182,103 182,103 182,103 182,103 182,103 182,103 182,103 182,103 182,102 183,102 183,102 183,102 183,102 184,102 184,102 184,102 184,102 184,102 184,102 185,102 185,102 185,102 185,102 185,102 185,102 185,102 185,102 185,102 185,102 186,102 186,102 187,102 187,102 187,102 187,102 187,102 187,102 188,102 188,102 188,101 188,101 188,101 188,101 188,101 189,101 189,101 189,101 189,101 189,101 189,100 189,100 189,100 190,100 190,100 190,100 190,100 190,100 190,100 190,100 190,100 190,100 190,100 190,100 190,100 190,100 190,100 190,100 190,100 191,100 191,100 191,100 191,100 191,100 191,100 191,100 191,100 191,100 191,100 191,100 191,100 191,100 191,100 191,100 192,100 192,100 192,100 192,100 192,100 192,99 192,99 192,99 192,99 192,99 192,99 192,99 192,99 192,99 193,99 193,99 193,99 193,99 193,99 193,99 194,99 195,101 195,101 196,101 196,101 196,101 197,101 197,101 197,101 197,101 197,101 197,101 197,101 198,101 198,102 199,102 199,102 199,102 199,103 199,103 199,103 199,104 199,104 199,104 199,104 199,104 199,104 199,104 199,105 199,105 199,105 198,105 198,105 198,106 198,106 198,106 198,106 198,106 198,107 197,108 197,108 197,108 200,108 200,109 200,109 201,108 201,108 201,108 202,108 202,109 203,109 203,109 203,109 204,109 204,109 205,109 205,109 205,109 206,109 206,109 206,109 207,109 207,109 208,109 209,109 209,109 210,109 211,109 211,109 211,109 212,109 212,109 212,109 212,109 212,109 212,110 212,110 213,111 213,111 213,111 213,112 213,112 213,112 213,113 213,114 213,114 213,115 213,115 213,115 213,115 213,116 214,116 214,117 214,117 215,118 215,118 215,118 216,119 216,120 216,120 216,120 216,120 216,120 216,120 217,120 217,120 217,119 218,119 218,119 218,119 218,119 218,119 218,119 219,118 219,118 218,118 218,118 218,118 218,118 218,118 219,118 219,118 219,118 219,118 219,117 220,117 220,117 220,117 220,117 220,117 220,117 220,117 220,117 220,117 220,117 220,117 221,117 221,116 221,116 221,116 221,117 221,117 222,116 222,116 222,116 222,116 223,116 223,116 223,116 223,116 223,116 223,115 224,115 224,115 224,115 224,115 224,115 224,115 224,115 224,115 224,115 224,115 224,115 224,115 224,114 225,114 225,114 225,114 225,115 225,115 225,115 225,115 225,114 225,114 225,114 225,114 225,114 225,114 225,114 225,114 225,114 226,114 226,114 226,114 226,114 226,114 226,114 226,114 227,114 227,114 227,114 227,114 227,114 228,114 228,114 228,114 228,114 228,114 228,114 229,113 229,113 229,113 229,113 229,113 229,113 229,113 229,113 229,113 229,113 229,113 229,113 229,112 229,112 229,112 229,112 230,112 230,112 230,112 230,112 230,111 231,111 231,111 231,111 231,111 232,110 232,110 232,110 232,110 233,109 233,109 234,109 234,109 234,108 234,108 234,108 234,108 235,108 235,108 235,108 235,108 235,108 235,108 235,107 235,107 235,107 235,107 235,107 236,107 236,107 236,107 236,107 237,107 237,107 237,107 237,106 237,106 237,106 237,106 237,106 237,106 237,106 238,106 238,106 238,106 239,105 239,105 239,105 239,105 239,105 241,105 241,105 241,105 241,105 242,105 242,105 242,105 242,105 243,105 243,105 243,105 244,105 244,105 244,105 244,105 246,105 246,105 246,105 246,104 246,104 246,103 246,103 246,103 246,103 246,103 246,103 246,103 246,102 246,102 246,102 246,102 246,102 246,102 245,102 245,102 245,102 244,102 244,102 244,101 245,101 245,101 245,101 245,100 246,100 246,100 246,100 248,100 248,100 248,100 249,100 249,100 249,100 249,100 249,100 249,99 249,99 250,99 250,99 251,99 251,99 252,99 252,98 252,98 253,98 253,98 253,97 253,97 252,96 252,96 252,96 252,96 252,96 252,96 252,95 252,95 252,95 252,95 252,95 251,95 251,95 251,95 252,94 253,94 253,94 253,93 253,93 253,93 254,93 254,93 254,93 255,92 255,92 255,92 255,92 255,92 257,91 257,91 257,91 257,91 257,91 257,91 257,91 258,91 259,91 259,91 259,91 260,91 260,92 260,91 261,92 262,92 263,92 263,92 263,92 265,92 265,92 266,92 267,92 267,92 267,92 267,91 267,91 267,90 267,90 268,90 268,89 268,89 269,88 269,88 269,88 269,88 270,87 270,87 270,87 270,88 271,88 271,88 271,88 273,88 273,88 273,88 273,89 274,89 274,90 274,90 276,91 277,91 279,92 280,92 281,93 281,92 281,92 282,93 283,93 283,94 284,94 285,95 285,95 286,95 285,96 284,97 284,97 285,98 286,98 287,99 288,99 289,99 290,100 291,100 291,101 292,102 292,103 292,103 293,104 293,104 293,105 293,106 293,106 292,107 292,107 291,108 291,108 291,108 292,109 292,109 292,109 292,110 293,111 293,112 293,112 293,113 294,113 294,114 294,114 295,115 294,116 295,116 295,117 295,118 295,118 295,118 294,119 293,119 292,120 292,120 291,120 291,120 290,119 290,119 289,119 287,119 286,119 285,119 283,118 282,118 281,118 280,118 280,118 280,119 280,119 279,120 279,120 278,120 277,120 276,120 275,120 275,120 274,121 274,121 274,122 274,123 274,123 273,122 273,122 273,122 272,121 271,121 270,121 270,122 269,123 270,123 270,124 270,124 270,124 271,125 271,125 272,125 272,125 272,125 273,125 274,125 275,125 276,126 276,125 277,126 278,125 279,125 280,125 281,125 281,125 282,124 283,124 283,124 284,124 286,125 286,126 286,127 287,127 287,127 287,128 288,128 288,129 289,129 289,130 288,131 287,132 287,133 288,133 292,134 293,134 293,136 293,136 289,137 289,137 290,138 290,138 290,138 290,139 291,139 291,139 292,141 292,141 292,139 293,139 293,140 293,141 294,141 294,141 295,141 295,142 295,142 295,143 294,143 294,143 296,143 297,143 296,144 297,144 298,145 298,146 299,146 300,145 301,146 301,146 302,146 302,147 302,148 302,149 302,151 302,151 304,153 303,153 303,154 302,154 302,154 301,154 301,155 301,155 302,155 302,156 302,156 302,157 302,157 302,158 302,159 303,160 303,160 303,160 304,160 304,161 305,161 305,162 305,163 304,164 305,164 306,164 306,165 306,165 305,166 305,166 306,166 306,167 308,167 309,167 309,167 309,167 310,168 310,168 311,168 310,169 310,169 311,169 311,169 314,170 314,170 315,170 315,169 316,169 317,169 319,169 320,170 321,170 322,170 323,170 325,170 327,170 327,170 327,170 327,170 328,170 328,170 329,169 329,169 330,171 331,171 332,171 333,171 335,171 338,171 339,171 341,171 341,171 342,171 343,171 344,170 344,170 345,170 345,171 346,171 347,172 348,171 349,171 349,171 351,172 351,173 351,174 352,174 352,175 353,176 355,177 355,178 355,179 355,179 356,179 357,180 358,180 359,180 361,179 363,179 365,180 365,181 366,181 367,181 367,181 367,182 368,182 367,183 368,184 368,185 368,186 369,187 369,188 372,187 372,187 374,186 375,186 377,185 378,185 380,186 380,186 382,186 382,185 384,186 384,186 386,186 387,185 388,185 390,186 390,187 391,187 393,186 392,185 392,185 395,185 397,185 400,186 401,186 402,186 404,186 406,187 410,186 411,187 411,187 413,187 414,187 415,188 415,189 416,189 417,190 420,190 421,191 422,191 423,191 424,193 426,193 428,193 429,193 430,194 430,194 430,195 430,195 432,195 433,195 434,195 434,196 434,196 434,196 435,196 435,196 435,197 435,197 435,197 435,197 435,197 436,197 436,197 436,197 437,197 437,197 437,197 437,197 437,197 437,198 439,199 439,199 440,198 440,198 440,199 440,199 440,199 441,199 441,199 441,199 441,199 441,199 441,199 442,199 442,199 442,199 442,199 442,199 442,199 442,199 443,199 443,199 443,200 443,200 443,200 444,200 444,200 444,200 444,200 444,200 444,200 444,200 444,200 445,200 445,200 445,200 445,200 445,200 445,200 445,200 445,200 446,200 446,200 446,200 446,200 446,200 446,200 446,200 446,200 447,200 447,200 447,200 447,200 447,200 447,200 447,200 447,200 447,201 447,200 447,200 447,201 447,201 447,200 447,201 447,201 448,201 448,201 448,201 448,201 448,201 448,201 448,201 448,201 448,201 448,201 448,201 448,201 449,201 449,201 449,201 449,201 449,201 449,201 449,201 449,201 449,201 449,202 449,202 450,202 450,202 450,202 450,202 450,202 450,202 451,202 451,202 451,202 451,202 451,202 451,202 451,202 451,202 451,202 451,202 451,202 451,202 451,202 451,202 452,202 452,202 452,202 452,202 452,202 452,202 452,203 452,203 452,203 452,203 452,203 452,203 453,203 453,203 453,203 453,203 453,203 453,203 453,203 453,203 454,203 454,203 454,203 454,203 454,203 455,203 455,203 455,203 455,203 455,203 456,203 456,203 456,203 456,202 456,202 457,202 457,202 457,202 458,202 458,202 458,202 458,202 458,202 458,202 460,202 460,202 460,202 460,202 460,202 461,202 461,202 461,202 461,202 461,202 461,202 461,202 462,202 462,202 462,202 462,202 463,202 463,202 463,202 463,202 464,202 464,202 464,201 464,201 464,201 464,201 464,201 464,201 464,201 464,201 464,201 464,201 464,201 464,201 464,201 465,201 465,201 465,201 465,201 465,201 465,201 465,201 465,200 466,200 466,200 466,200 467,200 467,200 467,200 468,200 468,200 468,200 468,200 468,200 468,200 468,200 469,200 469,200 469,200 469,200 469,200 470,200 470,200 470,200 471,200 474,199 474,199 474,199 474,199 474,199 475,199 476,199 476,199 476,199 476,200 476,200 476,200 476,200 477,199 477,199 477,199 477,199 477,199 477,200 478,200 478,200 478,200 478,200 478,200 478,200 479,200 479,200 479,200 479,200 479,200 480,200 480,200 480,200 480,200 480,200 481,200 481,200 481,200 481,200 481,200 481,200 482,200 482,201 482,201 482,201 483,200 483,200 483,200 483,200 484,200 484,200 484,200 484,200 485,200 486,200 486,200 486,200 486,200 486,200 487,201 487,201 487,201 487,201 488,203 488,203 488,203 489,205 489,205 490,206 490,206 490,206 490,207 490,207 490,207 490,207 490,208 491,208 491,209 491,209 492,210 492,210 492,211 493,212 493,213 493,213 493,214 494,216 494,217 494,217 494,217 494,218 494,218 494,219 494,220 493,220 493,221 493,222 493,223 493,223 494,224 494,224 494,225 495,226 495,226 495,227 496,227 496,230 496,230 497,231 497,232 497,233 498,233 498,234 498,235 498,235 499,236 499,238 499,238 499,239 499,240 500,241 500,241 500,242 500,243 500,243 500,243 500,244 499,245 499,245 499,246 499,246 498,247 498,247 496,248 496,248 495,249 495,249 494,250 493,250 492,251 492,250 492,250 492,250 492,250 492,250 492,249 492,249 492,249 492,249 492,249 492,249 492,249 492,249 492,249 492,249 492,249 492,249 493,248 493,248 494,248 494,248 494,248 493,247 493,247 493,247 493,247 493,247 493,246 493,246 493,246 493,246 493,245 493,245 493,245 492,245 492,245 492,245 491,244 491,244 491,244 491,244 491,244 491,244 491,244 491,243 491,243 491,243 491,243 491,243 490,242 490,242 490,242 490,242 490,242 489,242 489,242 489,242 489,242 489,241 489,241 489,241 489,241 489,241 489,241 489,241 489,241 489,241 489,241 488,241 488,241 488,240 487,240 487,240 487,240 487,240 486,240 486,240 486,240 486,240 485,240 485,240 484,240 484,240 484,240 484,240 484,240 483,240 483,240 483,240 483,240 483,240 482,240 482,240 482,240 482,240 481,240 481,240 481,240 481,240 480,241 480,241 480,241 480,241 480,241 480,240 480,240 479,240 479,240 479,240 479,240 478,240 478,240 477,239 476,239 476,239 476,239 476,239 475,238 475,238 475,238 475,238 474,237 474,237 474,237 474,237 474,237 474,237 474,237 473,237 473,237 473,237 473,237 472,236 472,236 472,236 472,236 471,236 471,236 471,236 471,236 471,236 471,236 470,235 470,235 469,234 469,234 469,234 469,234 469,234 468,234 468,234 468,234 468,234 468,234 468,234 467,234 467,234 467,234 467,234 467,234 467,234 467,234 467,233 467,233 466,233 466,233 465,233 465,233 465,233 464,233 464,233 464,232 464,232 464,232 464,232 464,232 464,232 463,231 463,231 463,231 462,231 462,231 462,230 461,230 461,230 460,229 460,229 460,229 460,230 460,230 459,230 459,230 459,229 459,229 458,229 458,229 458,229 457,229 457,229 457,229 457,229 457,229 457,229 457,229 456,229 456,229 456,229 456,228 456,228 456,228 456,228 456,228 455,228 455,228 455,228 455,228 455,228 455,228 455,228 455,228 455,228 454,228 454,228 454,228 454,228 454,229 454,229 454,229 455,231 455,231 455,232 455,232 455,232 455,232 455,233 455,233 455,233 455,233 455,233 457,236 457,236 457,236 457,236 457,236 458,237 458,238 458,238 458,238 458,238 458,238 458,238 458,238 458,240 458,240 458,240 458,241 459,241 459,241 459,241 459,241 459,241 460,241 460,241 460,241 460,242 461,243 461,243 461,244 461,244 461,245 460,245 459,245 458,245 457,245 457,245 454,245 454,245 451,246 450,246 450,246 449,245 448,245 448,245 447,245 447,245 447,245 447,245 446,245 445,245 445,245 445,244 445,244 445,244 444,244 444,243 444,243 444,243 443,243 443,243 441,243 441,243 440,242 440,242 440,242 439,243 439,243 439,243 439,243 439,243 438,243 438,243 438,243 438,243 438,243 438,243 438,243 438,243 438,243 437,243 437,244 437,244 437,244 437,244 437,244 437,244 437,244 437,244 437,244 437,244 437,244 437,244 437,244 437,244 437,244 437,244 437,244 437,244 437,244 437,245 437,245 437,245 437,245 437,245 437,245 437,245 437,245 437,245 437,245 437,245 436,244 436,244 436,244 436,245 436,245 436,245 436,245 436,245 436,245 436,245 436,245 435,245 435,244 435,244 435,244 435,245 435,245 434,245 434,245 434,245 434,245 434,245 434,245 434,245 433,245 432,246 432,246 432,246 432,246 431,247 430,247 430,247 430,247 430,247 430,247 430,247 429,247 429,247 429,247 429,247 429,247 429,247 428,247 428,247 428,247 427,247 427,247 427,247 426,246 426,246 427,246 426,246 426,246 426,246 425,247 422,249 419,251 417,253 417,253 416,254 416,254 415,255 415,255 413,255 413,255 412,254 412,254 412,255 412,255 411,255 411,255 411,255 411,255 411,255 411,255 411,255 411,256 411,256 411,256 410,255 410,255 410,255 411,255 411,255 411,255 411,255 411,254 409,253 409,253 409,252 409,252 408,252 408,251 408,251 407,250 407,250 407,249 407,249 407,249 406,249 406,249 406,249 404,246 404,246 404,246 404,246 404,246 404,246 404,246 404,246 402,245 402,245 402,245 402,245 402,244 402,244 400,243 400,243 400,243 400,243 400,242 399,242 399,242 399,242 399,242 399,241 399,241 399,242 399,242 399,242 398,242 398,242 398,242 398,242 398,242 398,242 398,242 398,242 398,242 398,242 398,242 397,242 397,242 397,242 397,242 395,242 395,242 395,242 394,241 394,241 393,241 393,241 393,241 393,241 393,241 392,240 392,240 392,240 391,240 391,240 390,239 390,239 389,239 389,238 387,237 387,237 386,236 386,236 386,236 386,236 386,236 385,236 385,235 385,235 384,235 384,235 384,235 384,235 384,235 384,235 384,235 384,235 384,235 384,235 384,234 383,234 383,234 383,234 383,233 382,233 382,233 382,233 382,233 382,233 382,233 382,232 381,232 381,232 381,232 380,231 379,230 379,230 379,230 379,230 379,230 378,229 378,229 378,229 377,229 377,229 377,229 377,229 377,229 376,229 375,230 374,230 374,230 374,231 372,231 372,231 372,231 372,231 372,231 372,231 372,231 372,231 371,231 371,231 371,231 371,231 371,231 371,231 371,231 371,231 370,231 369,231 369,231 368,230 368,230 368,230 368,230 368,230 368,230 367,229 367,229 367,229 367,229 367,228 367,228 366,228 366,228 365,227 365,227 365,228 365,228 365,228 365,228 365,228 365,228 365,228 365,227 364,227 364,227 364,227 364,227 364,227 364,227 364,227 364,227 364,227 363,227 363,227 363,227 363,227 362,227 362,227 362,227 362,227 362,227 362,227 362,227 361,227 361,227 361,227 361,227 361,227 361,226 361,226 361,226 361,226 360,226 360,226 360,226 360,226 359,226 359,226 358,226 358,226 358,226 358,225 357,225 357,225 357,225 357,225 357,225 357,224 357,224 357,224 357,224 356,224 356,224 355,224 355,224 355,224 354,224 354,224 354,224 354,224 354,224 353,223 353,223 353,223 352,223 352,223 352,223 352,223 352,223 352,223 351,223 351,223 351,223 351,223 351,223 351,223 350,222 350,222 350,222 349,222 349,222 349,222 349,222 348,222 348,221 348,221 348,221 348,221 348,221 348,221 348,221 348,221 347,222 347,222 347,222 347,222 347,222 347,222 347,222 347,222 347,222 347,222 347,222 347,222 346,222 346,222 346,222 346,222 346,222 345,222 345,222 344,222 344,222 344,222 344,222 343,222 342,222 342,222 342,222 341,222 341,222 341,223 341,223 341,223 341,223 341,223 338,222 338,222 338,221 338,221 338,221 338,221 338,220 337,220 337,220 337,220 336,221 336,221 334,224 333,225 333,226 334,228 335,231 336,231 335,232 335,232 335,232 335,233 335,233 335,233 335,233 335,233 335,234 335,234 335,234 335,234 335,234 335,234 335,234 336,234 336,234 336,234 336,234 336,234 335,234 335,234 335,234 335,234 335,235 335,235 335,235 337,235 337,235 337,235 336,236 336,236 336,236 336,236 336,236 336,236 336,237 337,237 337,237 337,237 337,237 337,237 337,238 337,238 337,238 338,238 338,238 338,238 338,238 338,239 339,239 339,239 339,240 339,240 339,241 339,241 338,242 338,243 338,243 338,243 337,247 336,247 335,248 333,251 332,252 332,252 330,255 330,255 327,258 326,258 324,259 324,260 323,260 324,260 323,260 323,260 323,260 321,262 321,262 321,262 321,262 321,262 320,262 320,262 320,262 320,262 318,262 318,262 318,262 318,262 318,262 318,261 318,261 318,261 317,261 316,261 315,261 315,261 315,261 315,261 314,260 314,260 314,260 311,260 311,260 311,260 306,259 306,259 306,259 306,259 306,259 306,259 305,258 305,258 305,258 305,258 305,258 304,258 304,258 304,258 304,258 304,258 304,258 303,258 303,258 303,258 303,258 303,258 302,258 302,258 302,258 302,258 302,258 302,258 301,258 301,258 301,258 301,258 300,259 300,259 300,259 300,258 300,258 299,258 299,257 298,257 297,257 297,256 297,256 296,256 295,256 295,256 294,256 294,256 294,255 294,255 294,255 292,255 292,255 292,255 292,255 292,255 290,254 290,254 290,254 288,254 287,254 287,254 287,254 287,255 286,255 286,255 286,255 285,255 285,255 285,255 285,255 285,256 285,256 284,256 284,256 284,255 283,255 283,255 283,256 283,256 282,256 282,256 282,256 281,256 281,256 280,256 280,256 280,256 280,256 279,256 279,256 279,256 279,256 278,256 278,256 278,256 278,257 278,257 278,257 278,257 278,257 277,258 277,258 276,259 276,259 276,259 276,259 276,259 276,259 275,259 274,259 274,259 273,259 273,259 272,259 271,258 271,258 271,258 271,258 271,258 271,258 270,258 270,258 270,258 269,258 269,257 269,257 269,257 269,257 269,257 269,256 269,256 269,256 268,256 268,256 268,256 268,256 267,255 267,255 267,255 267,255 265,255 265,255 265,255 264,255 264,254 264,254 264,254 263,254 263,253 263,253 263,253 263,253 262,253 262,253 262,253 262,253 262,253 262,254 261,255 261,255 261,255 260,255 259,255 259,256 259,256 258,256 258,256 258,256 258,256 257,257 257,257 257,257 257,257 256,257 256,257 256,258 256,258 256,258 256,258 256,258 255,258 255,259 255,259 255,259 255,259 255,259 255,259 255,259 255,259 255,259 255,259 255,259 255,260 255,260 254,260 254,260 254,260 254,260 254,261 254,261 254,261 254,261 254,261 254,261 254,261 254,262 254,262 254,262 254,262 254,262 254,262 254,262 254,263 253,263 253,263 253,263 253,263 253,263 253,263 253,263 252,264 252,264 252,264 252,264 251,264 251,264 251,264 251,265 251,265 251,265 251,265 251,265 250,265 250,265 250,265 250,265 250,265 250,265 250,265 250,266 250,266 250,266 250,266 249,266 249,267 249,267 249,267 249,267 249,267 249,267 249,267 249,267 249,267 249,267 248,267 248,268 248,268 247,269 246,269 246,270 246,270 246,270 246,270 245,270 245,270 245,270 243,270 243,270 243,270 242,271 242,271 242,271 242,271 242,271 241,270 241,271 240,271 240,272 239,272 239,272 239,273 239,273 239,273 238,273 238,274 238,274 238,274 238,274 238,274 238,274 237,274 237,275 237,275 237,275 237,275 237,275 237,276 237,276 236,276 236,276 236,276 237,276 237,276 236,276 236,276 236,277 236,277 236,277 235,277 235,277 235,277 234,277 234,277 234,277 234,277 234,277 234,278 234,278 234,278 233,278 233,278 233,279 233,279 233,279 233,279 233,279 233,279 232,279 232,279 231,279 231,279 230,279 229,279 224,278 224,278 222,278 222,278 222,278 222,278 222,278 222,278 221,277 219,276 219,276 219,276 216,276 215,276 215,276 213,276 213,276 213,275 213,275 213,275 213,275 213,276 213,276 213,276 213,276 213,276 213,276 213,276 213,276 213,276 213,276 213,276 213,276 213,276 213,276 212,277 212,277 212,277 212,277 212,277 212,277 212,277 212,277 212,277 212,277 212,277 212,277 212,277 212,277 212,277 211,277 211,277 211,277 210,277 210,277 210,277 210,277 209,278 209,278 209,278 209,277 209,277 209,277 209,277 208,277 208,277 208,277 208,277 208,277 208,277 208,277 208,277 207,277 207,277 207,277 207,277 207,277 207,277 207,277 207,277 207,277 207,277 206,277 206,278 206,278 206,278 206,278 206,278 206,278 206,278 206,278 206,278 206,279 206,279 206,279 206,279 206,279 206,279 206,279 206,279 206,279 205,279 205,279 205,279 205,279 205,279 205,279 204,279 204,279 204,279 204,279 204,279 204,279 204,279 204,279 203,279 203,279 203,279 203,279 203,279 202,279 202,279 202,279 202,279 202,279 202,279 201,279 201,279 200,279 200,278 199,278 199,278 199,278 199,278 199,278 198,277 198,277 198,277 198,277 198,277 198,277 198,277 198,278 198,278 198,278 198,278 197,278 197,278 197,279 197,279 197,279 197,279 196,279 196,279 196,279 196,279 196,279 196,279 196,279 196,279 196,279 195,279 195,279 195,278 194,278 194,278 194,278 194,278 194,278 194,278 193,277 193,277 193,277 193,277 192,278 192,278 191,279 191,280 190,280 190,280 190,280 190,280 189,280 188,280 188,280 187,280 187,281 186,281 186,281 186,281 186,280 186,280 185,281 185,281 184,281 184,281 184,281 184,281 184,281 184,281 184,281 184,281 184,281 184,280 184,280 184,280 184,280 184,280 184,280 184,280 184,280 184,280 184,280 184,280 184,279 184,279 184,279 184,279 183,279 183,279 183,279 183,279 183,279 183,279 183,279 182,279 182,279 182,279 182,279 182,279 182,279 182,279 182,279 182,279 182,279 182,279 182,279 181,279 181,278 180,278 180,278 180,278 180,278 180,278 180,278 180,278 180,278 180,278 180,278 180,278 179,278 179,278 179,278 179,278 179,278 179,278 178,278 178,278 178,278 178,278 178,278 178,278 178,278 178,278 178,278 178,279 178,279 178,279 178,279 178,279 178,279 178,279 178,279 178,279 178,279 178,278 178,278 177,279 177,279 177,279 177,279 177,279 177,279 177,279 177,279 177,279 177,279 177,279 177,279 177,279 176,279 176,279 176,279 176,279 176,279 176,279 175,279 175,279 175,279 175,279 175,279 175,279 175,279 175,279 175,279 175,279 175,279 174,279 174,279 174,279 174,279 174,279 174,279 174,279 174,279 174,279 174,279 174,279 174,278 174,278 174,279 174,279 174,279 174,278 174,278 173,278 173,278 173,278 173,278 173,278 173,278 173,278 173,278 173,278 173,278 173,277 173,277 172,277 172,277 171,277 171,277 170,276 170,276 170,276 170,276 170,276 170,276 170,276 170,275 170,275 170,275 170,275 170,275 170,275 170,275 170,275 170,275 170,275 170,275 170,275 170,274 170,274 170,274 170,274 169,274 169,274 169,274 169,274 169,274 169,274 169,274 169,274 169,274 169,273 169,273 169,274 169,274 169,273 169,273 169,273 169,273 169,273 169,273 169,273 169,273 169,273 169,273 169,273 168,273 168,273 168,273 168,273 168,273 168,273 168,273 168,273 168,273 168,273 168,273 168,272 167,272 167,272 167,272 167,272 167,272 167,272 167,272 167,272 167,272 167,273 166,273 166,273 166,273 166,273 166,273 166,273 166,273 166,273 166,273 166,273 166,273 166,273 165,273 165,273 165,273 165,273 165,273 165,273 165,273 165,273 165,273 164,273 164,273 164,272 164,273 164,273 164,273 164,273 163,273 163,273 163,273 163,273 162,273 161,273 160,273 160,273 160,273 160,273 160,273 160,273 159,273 159,273 159,273 159,273 159,273 159,273 158,273 158,273 158,273 158,273 158,273 158,273 158,273 157,273 157,273 157,273 157,273 157,273 157,273 157,273 157,273 157,273 157,273 157,273 157,273 156,273 156,273 156,273 156,273 156,273 156,273 156,273 155,273 155,273 155,273 155,273 155,273 155,273 155,273 155,273 155,273 155,273 154,274 154,274 154,274 154,274 154,274 154,274 154,274 154,274 153,274 153,274 153,274 153,274 153,274 153,274 153,274 153,274 153,274 153,274 152,274 152,274 152,274 152,274 152,274 152,274 152,274 151,274 151,274 151,274 151,274 151,275 151,275 150,275 150,275 150,275 150,275 150,275 150,275 150,275 150,276 150,276 149,276 149,276 149,276 149,276 149,276 149,275 148,275 148,275 148,275 148,275 148,275 147,275 147,275 147,275 147,275 147,275 147,275 147,275 146,275 146,275 145,275 145,275 145,275 145,274 144,274 144,274 144,274 143,274 143,274 143,274 143,274 143,274 142,274 142,274 142,274 142,274 141,274 141,274 140,273 139,273 139,273 138,273 137,273 137,273 136,273 136,273 136,273 135,273 135,273 135,273 135,273 135,273 135,273 135,273 134,273 134,273 134,273 134,273 134,273 134,273 134,273 134,272 133,272 133,272 133,272 132,271 132,271 132,271 132,271 132,271 132,271 131,271 131,271 131,271 130,271 130,271 130,271 129,271 129,271 129,271 129,271 128,271 128,271 127,271 127,271 127,271 126,271 126,271 127,270 127,270 126,270 125,270 125,270 125,270 125,269 125,269 125,269 125,269 124,269 124,269 123,269 123,269 122,269 122,269 121,269 121,269 121,269 120,269 120,269 120,269 120,269 120,269 120,269 119,269 119,269 119,269 119,269 119,269 119,269 119,269 119,270 119,270 119,270 118,270 118,270 118,270 118,270 117,270 117,270 116,270 116,270 116,270 116,270 116,271 116,271 116,271 116,271 116,271 115,271 115,271 115,272 115,271 115,272 114,272 114,272 114,273 114,273 114,273 112,273 112,273 112,273 111,273 111,273 111,272 111,272 111,272 111,272 111,272 111,272 110,272 110,272 110,272 110,272 110,273 109,273 109,273 109,272 109,272 109,272 109,272 109,271 109,271 109,271 107,271 106,271 106,271 106,271 105,271 105,271 105,271 105,272 105,272 104,272 104,272 103,272 103,272 103,271 103,271 103,271 103,271 102,271 101,270 100,270 100,270 100,270 100,271 100,271 99,271 99,271 99,271 97,271 97,271 97,272 96,272 96,272 96,272 96,272 96,272 95,273 95,273 94,273 94,273 93,272 93,272 93,272 92,272 93,273 93,273 93,274 92,274 92,276 92,276 92,276 92,276 92,276 92,277 92,277 91,277 91,277 91,277 91,277 90,276 90,275 90,275 90,274 90,274 90,274 90,274 90,274 90,274 91,273 91,273 91,273 91,273 91,273 90,273 90,273 89,274 89,274 89,274 88,274 88,274 88,276 87,276 87,276 87,276 87,276 84,276 84,275 86,274 86,274 86,274 86,274 86,273 86,272 86,272 86,272 86,272 86,271 84,272 83,272 84,274 85,274 86,274 86,274 86,274 86,274 84,275 84,275 83,275 83,275 83,275 82,275 82,274 82,274 82,273 82,273 82,272 80,271 80,272 80,272 80,272 80,273 80,273 80,274 80,275 80,275 79,275 79,275 78,275 78,275 78,275 78,275 78,275 78,275 77,275 77,274 77,274 76,274 76,274 76,273 76,273 76,273 75,272 75,272 75,272 74,272 74,272 74,272 74,272 74,271 73,271 73,270 73,270 73,270 73,270 73,270 72,270 72,270 71,270 71,270 71,270 71,270 70,270 70,270 70,270 69,270 69,270 69,270 69,270 68,270 68,269 66,269 66,269 65,269 65,269 65,268 66,268 66,268 66,268 67,268 68,269 69,269 69,269 69,269 69,269 69,269 70,268 70,267 70,267 70,267 70,267 69,267 68,267 68,267 68,267 66,267 66,267 67,266 67,266 67,266 67,266 68,266 69,265 69,264 69,264 69,264 68,263 68,263 68,263 68,263 68,263 67,263 67,263 67,263 67,262 67,262 67,262 66,262 66,262 66,262 66,261 67,261 67,261 67,261 67,261 67,261 67,260 67,260 67,260 66,260 66,260 66,259 66,259 66,259 65,259 65,259 65,259 65,258 64,258 64,258 63,258 63,258 63,258 62,258 62,258 62,258 62,258 62,258 62,259 62,259 61,259 61,259 61,258 61,258 61,259 61,259 61,259 60,259 60,259 59,259 59,259 58,259 58,259 58,258 58,258 58,258 58,258 57,257 57,257 57,257 56,258 55,258 55,258 55,258 55,258 55,258 55,259 55,259 55,259 55,259 55,259 55,260 55,260 55,260 55,260 54,260 54,260 54,260 54,259 53,259 53,259 53,259 53,259 53,259 52,259 51,259 51,259 51,259 51,259 51,259 50,259 49,259 49,259 48,260 46,260 46,260 46,261 45,261 45,261 44,261 44,261 43,261 43,261 43,261 43,261 42,261 42,261 42,261 41,261 41,261 41,260 40,261 40,261 40,261 40,261 39,261 39,261 40,261 40,262 39,262 38,262 38,262 37,263 37,263 37,262 36,262 36,262 36,262 35,260 35,260 35,260 35,260 34,260 34,260 34,260 34,260 34,260 34,260 34,259 34,259 34,259 33,259 33,259 33,259 33,259 33,259 33,259 33,259 33,259 32,259 32,258 31,258 31,258 31,258 31,257 31,257 30,257 30,257 30,257 30,257 30,257 30,257 30,257 30,257 30,257 30,256 30,256 31,256 31,256 31,256 31,256 31,255 31,255 31,255 31,255 31,255 32,254 32,254 32,254 32,254 32,254 32,253 32,253 32,253 32,253 32,253 32,253 32,253 32,253 31,253 30,252 30,252 30,251 30,251 30,251 29,251 29,251 30,251 30,251 30,250 29,250 29,250 29,250 29,250 29,250 29,250 28,250 28,250 28,250 28,250 28,250 27,250 27,250 27,249 27,249 26,249 26,249 26,249 26,249 25,249 25,249 25,249 24,249 24,249 23,249 23,248 23,248 23,248 23,248 23,248 22,248 22,248 22,247 22,247 22,247 21,247 20,247 20,248 20,248 18,248 17,248 17,247 17,247 17,247 17,247 17,247 17,247 17,247 17,246 17,246 17,245 17,245 16,245 15,245 13,245 13,245 13,245 11,244 11,244 11,245 9,245 9,246 8,246 8,246 7,246 6,247 6,247 4,245 4,245 4,245 4,245 4,245 3,244 2,243 2,243 1,242 1,241 0,241 0,241 0,241 0,240 1,239" id="5301" class="canton" fill="steelblue" stroke-width="1" stroke="white" geotype="canton" geoname="Azé" code_insee="5301" code_departement="53" nom_departement="Mayenne" code_region="52" nom_region="Pays de la Loire"/></svg>