<?xml version="1.0" encoding="utf-8"?>
<svg version="1.1" id="svgmap" xmlns="http://www.w3.org/2000/svg" xmlns:xlink="http://www.w3.org/1999/xlink" x="0px" y="0px" width="100%" height="100%" viewBox="0 0 500 419">
<polygon points="0,175 3,175 5,174 6,173 8,172 17,172 18,172 20,172 26,171 39,171 43,171 55,170 57,170 59,170 78,169 84,169 86,169 85,168 84,162 83,156 82,151 81,150 82,149 84,146 85,145 86,144 85,144 79,142 72,140 72,140 69,138 62,136 62,132 62,131 62,131 62,129 62,126 63,121 63,120 63,119 68,119 81,120 86,120 90,119 92,119 96,119 101,118 105,118 106,117 108,116 108,116 109,115 110,114 110,113 112,111 115,106 123,94 129,85 134,76 139,69 144,61 131,54 131,54 129,51 129,50 129,48 134,43 138,40 138,39 141,34 143,34 146,34 150,34 152,34 154,35 157,32 160,33 167,33 172,33 173,34 180,27 180,27 182,26 183,27 184,27 203,36 208,38 214,40 224,44 232,37 235,35 240,34 245,33 248,31 250,29 253,27 256,23 259,19 263,15 266,14 270,5 293,3 295,2 302,2 304,0 307,1 310,1 311,3 318,3 330,6 332,5 349,11 351,11 360,14 366,20 370,21 374,23 381,23 385,21 390,22 395,24 400,25 403,29 400,30 400,33 397,35 395,40 392,44 398,48 399,49 396,52 397,54 395,59 395,61 394,63 392,65 391,67 387,65 381,66 377,67 372,69 367,70 356,81 350,83 337,87 335,90 333,92 331,96 332,100 335,105 337,108 336,111 328,117 323,120 324,128 327,136 333,145 336,150 336,151 336,151 335,155 333,156 329,159 327,159 325,160 323,158 321,158 316,156 313,158 310,157 309,159 307,160 304,164 304,166 306,169 304,171 303,172 302,173 300,174 293,174 288,175 283,174 279,174 277,176 274,176 273,177 270,176 269,177 269,180 267,181 269,184 272,183 275,183 276,185 274,186 272,186 270,185 269,186 274,190 278,192 281,198 283,196 288,192 293,191 299,189 306,184 318,184 320,184 330,185 339,188 339,191 346,195 346,199 347,200 348,203 354,205 357,209 360,213 364,216 367,218 370,221 377,222 398,226 403,227 410,227 412,226 418,229 421,227 426,226 429,226 436,229 443,231 446,234 448,235 450,239 453,241 458,246 461,251 467,258 471,262 480,271 482,273 484,276 483,277 481,276 482,278 481,278 482,280 484,284 486,288 490,290 492,293 491,294 493,295 500,301 499,307 498,310 496,312 490,319 483,326 479,332 472,338 465,347 461,352 459,360 458,370 458,376 458,379 456,383 453,389 452,395 447,407 440,414 438,417 438,419 438,419 437,419 346,368 339,364 334,362 304,345 294,340 291,337 289,335 285,333 282,333 270,326 232,305 234,301 236,299 238,296 240,293 246,286 246,285 246,285 246,285 245,284 236,279 234,278 231,276 226,274 223,272 222,271 221,271 220,269 218,267 217,264 216,263 216,262 215,261 212,259 211,259 209,258 201,255 196,253 194,252 190,256 186,254 177,251 174,254 172,255 171,255 164,257 162,257 160,258 158,260 156,261 155,262 153,261 138,254 125,247 121,245 118,243 113,240 105,235 104,235 101,233 99,233 98,234 94,236 90,239 86,242 84,243 77,248 75,249 70,252 57,238 30,204 21,190 16,183 7,180 6,179 3,177 2,176 0,175" id="5312" class="canton" fill="steelblue" stroke-width="1" stroke="white" geotype="canton" geoname="Laval-3" code_insee="5312" code_departement="53" nom_departement="Mayenne" code_region="52" nom_region="Pays de la Loire"/></svg>