<?xml version="1.0" encoding="utf-8"?>
<svg version="1.1" id="svgmap" xmlns="http://www.w3.org/2000/svg" xmlns:xlink="http://www.w3.org/1999/xlink" x="0px" y="0px" width="100%" height="100%" viewBox="0 0 500 334">
<polygon points="0,44 11,42 18,41 180,35 178,29 178,26 180,24 185,26 191,27 196,27 207,25 209,24 220,22 223,20 231,21 244,17 253,13 255,14 263,8 269,9 303,6 311,4 317,3 320,2 328,1 335,1 338,1 345,0 346,2 347,3 348,5 349,6 349,7 350,9 350,11 351,14 351,17 352,20 352,22 352,23 353,27 353,30 354,32 354,34 354,40 355,47 333,48 336,62 338,62 341,61 349,57 350,57 355,55 357,55 357,56 358,58 358,59 358,59 357,66 361,67 361,66 363,66 365,66 369,66 370,67 373,67 373,68 374,68 376,68 376,68 378,69 386,70 389,70 389,70 393,70 394,70 396,70 398,70 399,69 399,68 402,67 403,67 406,66 405,64 409,62 409,62 413,61 413,61 414,60 416,60 420,60 421,58 422,56 422,55 430,52 435,53 436,58 438,60 440,60 444,64 445,64 445,65 447,67 447,67 448,66 449,66 450,66 450,67 451,68 451,68 452,69 452,69 452,70 452,70 452,70 453,70 453,71 454,71 454,72 454,72 455,73 455,73 458,73 467,88 471,95 471,95 474,99 476,98 476,98 479,97 483,101 490,113 486,116 485,117 483,119 484,120 484,121 487,124 487,126 489,128 490,131 489,131 490,133 491,135 493,141 500,152 482,159 476,162 477,164 472,166 473,167 473,168 477,172 483,175 486,176 487,179 487,180 486,181 482,184 478,187 477,190 477,192 477,193 474,197 470,199 469,199 467,200 464,202 461,206 460,208 456,216 453,224 449,230 445,228 435,222 432,224 431,225 428,229 427,229 421,237 419,237 416,239 405,250 403,250 402,249 401,249 401,249 399,248 394,247 378,245 376,245 373,245 371,245 369,245 368,245 362,245 361,245 357,255 357,255 295,243 288,252 288,260 286,266 279,271 275,277 286,291 288,297 287,302 277,308 269,312 263,317 259,321 257,325 255,329 254,334 253,333 247,331 244,331 240,329 236,327 230,324 227,320 227,318 228,316 228,315 227,313 221,308 204,308 195,307 188,296 188,293 187,288 177,277 175,275 175,274 172,273 168,267 160,259 159,258 154,255 146,251 133,242 129,237 127,234 128,221 121,217 115,216 112,215 110,212 105,209 100,205 96,202 95,200 94,190 93,186 91,183 81,183 35,184 26,152 11,95 0,44" id="5406" class="canton" fill="steelblue" stroke-width="1" stroke="white" geotype="canton" geoname="Laxou" code_insee="5406" code_departement="54" nom_departement="Meurthe-et-Moselle" code_region="44" nom_region="Grand-Est"/></svg>