<?xml version="1.0" encoding="utf-8"?>
<svg version="1.1" id="svgmap" xmlns="http://www.w3.org/2000/svg" xmlns:xlink="http://www.w3.org/1999/xlink" x="0px" y="0px" width="100%" height="100%" viewBox="0 0 500 425">
<polygon points="13,101 13,100 11,99 12,99 5,97 4,97 4,96 5,95 3,92 3,92 3,91 9,87 6,85 12,83 12,84 13,83 15,84 17,82 20,83 22,83 27,81 26,79 25,78 25,78 28,75 28,73 29,72 29,72 29,72 30,71 31,70 30,70 31,68 30,68 27,68 26,68 23,67 24,63 27,62 31,59 32,58 33,58 36,56 36,56 41,51 41,50 36,48 35,46 35,45 36,43 38,42 42,38 43,37 43,36 44,34 44,33 42,32 42,32 41,31 45,29 47,28 55,25 61,22 67,19 72,15 78,10 82,7 97,1 101,4 109,0 111,2 113,2 116,3 118,3 119,5 120,7 120,10 122,13 124,15 131,14 135,15 138,14 140,13 139,11 143,9 147,9 148,11 150,12 153,13 158,10 159,10 160,13 174,21 181,23 188,27 194,27 197,29 204,26 203,25 211,22 212,23 213,23 214,23 215,23 215,23 216,23 216,23 216,23 217,24 219,27 220,29 219,31 219,31 220,32 220,34 221,35 222,38 222,40 223,41 223,42 223,44 223,44 223,46 223,47 223,47 224,49 228,52 229,53 232,55 232,55 234,56 236,58 244,63 254,69 254,69 262,67 262,67 264,68 264,68 264,68 265,68 265,68 266,69 266,70 267,69 267,69 267,69 267,69 267,69 268,69 268,69 269,69 269,69 269,69 269,70 270,70 270,70 270,70 271,70 271,70 271,70 272,70 272,70 273,70 273,70 273,70 273,69 273,69 273,69 273,69 272,68 273,68 273,68 273,68 274,69 274,69 277,71 277,72 278,73 278,73 278,74 278,76 278,77 278,79 278,82 275,97 275,98 275,99 275,99 275,100 277,101 279,103 279,103 280,105 281,108 281,109 282,109 282,109 282,109 281,110 281,111 281,111 279,112 279,112 279,113 279,113 277,114 276,114 276,114 275,115 275,115 274,115 274,115 274,115 273,116 272,116 277,120 278,121 278,121 279,124 278,127 278,130 278,130 277,130 277,130 277,131 278,135 269,136 269,136 267,135 267,135 266,135 266,135 267,133 267,133 261,129 259,128 257,127 257,126 252,124 249,122 247,121 246,121 246,123 246,124 246,125 246,126 246,127 247,128 247,130 248,130 249,132 249,132 250,133 250,133 251,133 251,133 253,134 256,136 257,136 258,135 260,136 265,136 268,137 269,137 269,138 271,138 271,139 272,140 273,142 274,142 274,143 274,144 274,145 274,147 274,147 277,147 279,147 280,149 280,149 281,149 285,149 284,148 286,147 286,148 298,146 304,146 306,147 314,146 314,146 315,146 315,146 314,144 314,143 313,142 314,142 314,142 315,143 317,142 317,142 318,142 318,142 318,142 319,141 320,140 321,140 323,140 324,140 325,140 326,140 328,140 328,140 331,139 331,139 332,139 335,139 336,139 336,139 337,139 337,140 338,140 338,141 338,141 337,143 339,145 339,145 338,146 338,147 336,150 335,151 334,154 332,156 330,158 329,159 331,160 333,161 341,165 346,167 347,168 349,170 349,173 353,176 354,177 354,177 359,174 364,173 365,173 367,172 370,171 373,170 375,169 375,169 379,168 381,167 382,167 385,166 386,166 388,166 390,165 392,165 392,165 393,165 395,165 397,164 399,164 401,164 401,164 404,166 405,166 405,166 407,165 409,165 410,164 410,164 411,164 414,164 415,164 416,164 418,164 418,164 419,165 420,165 421,165 424,166 424,166 426,166 426,166 426,167 427,167 427,167 427,167 428,167 428,168 428,168 427,168 426,168 426,168 426,168 426,168 426,168 426,168 425,168 424,169 424,169 425,169 426,170 427,171 427,172 427,172 426,172 425,172 423,173 422,173 422,173 422,173 421,172 421,172 421,172 419,172 419,172 418,172 418,173 419,173 420,173 420,173 420,175 421,176 422,176 422,176 422,177 422,177 422,178 422,179 424,179 425,179 429,179 430,179 430,180 430,180 434,181 434,181 434,182 434,182 433,183 432,184 432,185 431,186 431,187 431,187 433,187 433,187 435,186 435,186 436,187 436,187 435,187 435,188 435,188 437,189 438,189 442,191 444,191 444,191 445,190 445,190 446,190 446,190 445,193 445,193 445,194 444,195 443,198 443,198 442,201 441,205 451,205 452,205 452,205 453,205 453,204 453,204 453,204 453,205 454,206 454,207 453,207 453,207 453,208 452,208 452,208 452,208 453,209 453,209 453,209 453,209 454,209 454,209 454,210 454,211 455,211 455,211 455,212 454,212 454,212 453,212 451,212 451,213 451,213 451,213 451,214 451,214 451,214 451,214 451,215 448,216 448,216 448,216 448,216 448,217 447,218 447,218 447,219 447,219 446,219 446,219 445,220 444,221 444,221 443,222 443,223 443,223 443,223 443,224 444,224 444,224 445,224 445,226 444,226 444,226 444,226 444,227 444,227 444,227 445,228 446,229 446,229 446,229 447,229 447,229 448,229 448,229 450,230 451,230 452,231 453,231 454,232 455,233 456,234 457,234 457,235 458,235 458,235 459,236 459,236 460,236 461,236 462,236 462,236 464,237 465,237 467,237 471,238 474,238 476,238 477,239 478,239 482,240 483,240 485,240 486,240 487,240 489,240 489,240 489,242 489,242 492,242 492,242 491,243 491,244 490,245 489,245 487,248 484,251 484,251 484,251 484,251 484,252 483,253 483,253 484,254 484,255 484,255 480,256 480,256 481,259 481,259 479,259 478,260 477,260 474,261 473,261 472,262 471,262 470,262 470,262 468,262 468,262 464,263 464,264 463,264 460,264 461,265 459,266 457,267 455,267 455,267 454,268 451,268 449,268 449,270 449,270 452,274 453,276 452,279 452,279 452,280 453,281 453,281 451,281 450,281 449,282 441,285 444,288 445,288 448,290 449,290 452,291 452,292 453,292 461,299 461,299 465,303 472,308 475,306 476,308 478,310 479,311 480,312 482,314 485,315 486,315 487,315 489,315 489,316 491,316 490,317 490,317 490,318 490,319 490,319 490,320 491,321 491,322 491,323 491,323 493,327 494,327 494,328 494,329 495,331 495,331 498,332 498,333 498,333 494,335 493,336 493,336 493,336 493,337 497,340 497,340 498,341 500,343 500,343 498,343 494,345 493,343 491,342 490,342 488,343 486,344 485,345 484,345 482,343 481,342 481,342 478,343 478,343 476,344 476,344 475,344 474,345 473,346 473,346 472,347 472,347 471,347 468,348 468,348 468,348 466,349 465,350 465,350 465,350 464,350 464,349 464,349 463,349 462,348 461,348 461,348 459,348 459,348 456,348 456,348 452,349 451,349 449,350 447,350 447,350 446,350 445,351 444,351 443,352 442,352 440,353 440,353 440,353 439,353 438,353 438,353 438,353 435,353 432,353 432,353 432,354 432,354 431,354 428,356 428,356 428,357 428,357 428,357 426,358 426,358 424,357 421,357 419,357 419,357 419,363 419,363 416,363 414,364 415,365 413,366 413,366 412,368 412,368 415,368 415,368 415,369 415,371 415,372 416,371 416,372 417,374 417,374 419,374 421,376 421,376 422,377 424,377 427,377 427,377 427,373 427,373 427,373 430,375 431,377 431,377 432,378 432,378 433,381 434,382 435,383 435,384 435,384 437,386 437,388 437,389 437,390 437,391 439,394 439,395 440,395 440,396 440,396 438,396 437,395 436,395 435,395 434,395 433,395 430,393 430,393 429,393 429,393 429,392 428,392 427,391 425,391 425,391 425,391 424,391 423,391 419,390 418,389 418,389 414,390 414,390 414,390 413,391 413,390 409,391 406,391 404,392 403,392 396,393 389,393 389,393 389,393 389,394 387,394 383,394 385,398 385,398 370,400 370,400 360,401 360,401 360,401 355,400 353,403 353,405 352,405 351,404 350,404 349,403 348,403 348,402 346,401 346,400 345,399 345,397 345,400 345,400 343,400 342,400 342,400 342,400 342,399 342,399 340,399 334,399 334,399 334,399 334,398 334,398 332,398 332,398 331,398 331,398 329,398 328,398 325,399 320,401 319,401 319,401 319,401 317,400 317,400 316,400 316,400 314,399 314,399 313,399 313,399 313,399 311,398 310,397 308,399 308,399 308,399 307,399 305,400 302,402 302,402 298,403 296,404 294,405 293,405 292,406 290,406 289,406 289,406 289,406 288,405 288,405 287,405 286,405 286,405 283,406 282,405 282,405 281,405 281,405 280,405 281,404 280,404 280,404 280,404 278,405 278,405 278,405 278,405 278,405 277,405 277,405 277,406 277,406 277,406 276,406 276,406 276,406 275,406 275,406 275,406 274,406 274,406 272,406 272,406 270,406 270,406 269,406 268,406 267,406 267,406 266,406 266,406 266,406 266,407 266,407 266,407 265,408 265,408 264,408 263,408 263,408 263,408 263,408 263,408 263,409 263,409 262,409 262,408 262,408 262,408 262,408 262,408 261,408 261,409 260,409 260,409 260,410 260,410 259,410 259,411 259,412 259,412 259,412 260,412 261,412 261,412 262,412 262,412 262,412 262,413 262,413 262,413 262,413 262,413 263,413 264,413 264,413 265,414 266,414 266,414 266,415 266,415 266,415 267,415 267,415 268,416 268,416 268,416 268,416 267,417 267,417 267,417 266,417 266,417 266,418 266,418 266,418 267,418 267,418 268,418 268,418 268,418 268,418 268,418 268,419 267,419 267,419 266,420 266,420 265,420 265,421 264,421 265,421 265,422 265,422 265,422 264,422 264,422 263,422 263,423 263,423 263,423 263,423 262,424 261,424 261,424 260,424 260,424 260,423 260,423 259,424 258,424 258,424 258,424 256,424 256,424 255,424 255,425 254,425 251,425 251,425 250,425 250,425 250,425 249,425 249,425 249,425 249,425 247,423 247,422 242,421 242,421 240,420 240,420 239,419 239,419 240,419 241,420 241,420 242,419 242,418 243,417 243,416 243,415 243,415 241,413 241,413 239,412 236,411 236,411 235,411 229,411 226,411 225,411 224,411 223,411 223,411 222,410 222,409 223,408 223,406 223,405 224,402 225,402 226,401 227,399 226,399 226,399 223,399 220,398 220,399 219,400 218,402 217,403 217,404 216,405 216,405 215,407 214,408 214,409 214,410 214,410 214,410 214,411 213,412 210,413 201,416 200,417 197,416 195,416 193,415 188,412 185,411 184,412 184,412 183,412 183,412 182,412 181,411 181,411 181,410 180,409 177,408 176,407 176,407 177,406 177,406 177,405 177,405 177,404 177,404 174,406 174,406 171,404 171,404 172,403 171,402 169,403 169,403 168,403 168,402 167,401 164,400 164,400 165,400 166,399 167,398 167,398 166,397 162,399 162,399 155,395 150,395 147,394 141,395 141,395 138,396 136,395 136,395 135,394 134,394 133,393 131,393 131,392 129,391 129,391 128,390 128,389 128,390 126,390 124,391 124,391 121,390 121,390 118,392 116,393 115,392 115,392 114,391 113,391 113,390 113,389 114,388 114,388 116,386 115,386 115,385 114,385 113,385 113,385 112,384 115,382 115,382 115,382 113,382 113,382 112,382 112,381 115,379 114,379 113,379 113,379 112,379 112,378 113,377 113,377 114,375 114,375 114,373 114,373 115,373 115,372 117,372 117,372 118,372 118,372 119,371 119,371 119,371 119,371 119,371 121,370 122,369 122,369 121,367 120,367 119,366 119,365 119,365 119,365 120,364 121,364 122,363 123,362 126,360 126,359 126,359 126,358 127,358 128,357 128,357 129,356 128,355 128,353 128,353 129,351 129,350 129,349 129,349 129,347 131,346 133,345 133,345 133,345 133,344 134,344 134,344 135,343 135,343 135,342 135,342 138,342 138,342 138,341 137,339 137,339 136,338 134,337 133,336 133,335 134,334 134,333 134,332 134,332 134,332 133,330 133,330 133,330 132,329 132,328 133,326 133,324 132,323 132,323 132,323 132,321 131,319 131,317 129,316 127,316 126,316 122,317 120,318 117,318 117,318 111,319 107,320 105,320 101,320 101,321 95,321 90,322 90,322 88,322 87,322 86,323 86,323 85,323 84,323 83,323 83,323 83,323 77,325 77,325 74,326 74,326 73,327 73,327 73,327 71,328 70,328 69,329 67,329 65,330 64,331 62,332 61,331 61,331 60,330 59,330 58,329 57,329 57,329 58,328 58,328 58,327 58,327 58,327 58,326 58,325 56,321 56,321 56,321 55,321 55,321 56,320 58,319 60,318 62,317 63,316 65,316 66,316 66,315 69,314 71,313 74,312 77,311 77,311 77,310 77,309 77,308 78,305 79,304 79,304 79,302 79,300 78,298 78,297 78,298 78,298 78,298 80,297 79,296 80,293 79,292 79,291 79,291 79,291 79,291 79,290 78,290 78,288 76,285 76,284 75,284 76,284 77,281 77,280 77,280 77,279 77,279 77,278 78,276 78,275 79,274 80,273 80,273 80,273 80,273 82,272 84,271 86,271 85,270 89,270 90,269 91,269 91,269 93,269 94,269 95,269 97,269 98,269 99,270 101,270 102,270 103,271 105,271 106,271 108,271 111,272 111,272 111,272 112,272 114,272 116,272 118,272 118,272 118,271 118,271 136,270 140,270 140,270 142,269 147,269 150,269 149,268 147,267 144,265 144,264 144,263 143,263 142,262 141,261 140,260 140,259 140,257 140,257 140,255 140,252 141,250 141,250 141,250 142,250 142,250 143,250 145,250 147,250 150,250 150,250 150,249 150,247 150,247 150,247 147,246 146,245 144,244 145,242 160,235 152,227 150,225 150,225 148,223 148,222 147,221 146,221 143,219 142,217 143,216 137,212 137,210 126,206 129,203 124,200 128,198 130,197 126,194 122,191 119,187 117,184 116,183 113,183 111,184 108,184 103,183 101,184 97,183 93,181 92,178 92,176 91,176 87,170 84,171 79,175 77,177 71,180 69,183 67,184 62,179 53,182 45,187 40,190 35,192 24,186 23,186 18,186 12,187 10,187 2,187 3,178 0,175 5,172 11,170 16,168 15,166 13,164 17,163 13,159 9,155 12,153 14,152 16,151 17,149 19,148 21,147 19,146 18,146 18,145 18,144 22,140 22,137 18,135 14,133 13,131 7,127 10,126 0,118 3,116 2,116 5,114 16,108 13,101" id="5418" class="canton" fill="steelblue" stroke-width="1" stroke="white" geotype="canton" geoname="Pont-à-Mousson" code_insee="5418" code_departement="54" nom_departement="Meurthe-et-Moselle" code_region="44" nom_region="Grand-Est"/></svg>