<?xml version="1.0" encoding="utf-8"?>
<svg version="1.1" id="svgmap" xmlns="http://www.w3.org/2000/svg" xmlns:xlink="http://www.w3.org/1999/xlink" x="0px" y="0px" width="100%" height="100%" viewBox="0 0 500 498">
<polygon points="27,40 28,40 30,39 31,38 32,38 33,38 34,39 35,39 38,40 38,41 41,41 41,41 42,40 43,40 43,40 44,40 45,39 46,38 47,37 49,37 49,36 51,37 52,38 53,38 54,42 54,42 54,43 53,43 53,44 51,44 49,45 49,45 49,45 48,46 47,48 47,48 46,50 44,53 43,53 43,54 44,56 44,56 44,57 44,57 46,59 47,58 49,58 51,57 53,57 54,56 56,56 58,56 63,54 63,54 64,54 65,53 67,52 68,52 68,52 67,51 67,51 68,50 69,49 71,48 72,47 76,47 78,47 81,46 84,46 88,45 90,43 93,42 93,42 98,41 100,41 100,41 100,48 100,48 100,49 103,49 109,48 112,47 119,46 122,46 128,46 130,45 135,45 138,46 139,46 141,45 143,46 144,46 148,45 149,45 157,43 163,42 164,42 168,41 171,40 179,39 180,39 182,40 183,38 183,37 184,36 184,35 184,34 185,33 185,33 185,32 186,31 188,30 189,29 189,28 190,27 190,27 189,26 190,26 190,25 191,24 192,24 192,23 192,22 192,22 192,22 192,22 193,21 193,21 193,21 192,21 192,21 194,19 194,18 194,18 195,17 195,17 195,16 196,14 196,14 196,13 197,12 197,12 199,11 199,10 200,10 200,10 201,9 201,8 202,7 204,5 205,5 209,5 212,5 215,5 215,3 226,1 227,1 226,0 232,0 231,4 230,8 231,8 234,9 237,10 239,11 240,11 241,10 245,8 245,8 245,8 247,7 253,10 253,10 255,12 254,12 252,13 250,14 248,15 246,17 244,18 243,18 243,19 242,20 243,20 242,20 242,20 242,20 240,21 239,21 238,22 237,22 235,23 233,25 232,25 232,25 229,25 229,25 228,26 226,27 224,28 220,30 220,31 218,32 215,35 211,39 209,42 208,44 208,44 207,45 206,48 206,51 205,53 205,54 205,56 206,58 206,59 207,61 208,63 209,65 213,70 214,72 217,75 219,77 220,79 221,80 222,80 223,81 224,82 226,83 230,86 231,86 237,88 241,90 250,93 255,95 255,95 256,95 257,95 258,95 260,95 260,95 265,95 267,95 270,94 271,93 273,93 277,92 278,92 278,93 278,94 272,99 272,100 273,101 274,102 275,102 276,102 278,102 280,103 288,106 297,110 306,117 307,119 335,120 335,117 331,111 332,108 333,104 336,104 340,104 342,111 344,117 345,121 345,123 342,128 341,129 340,133 339,139 338,141 338,144 340,149 341,162 341,165 341,168 340,171 339,172 338,172 336,174 330,178 324,183 322,186 320,188 313,193 313,193 313,194 316,197 322,200 324,201 326,201 327,201 333,199 335,200 340,203 344,205 351,206 354,207 357,208 359,208 361,209 365,209 368,209 370,210 375,215 375,215 372,218 370,219 370,222 368,227 369,230 372,236 376,241 382,246 386,251 388,255 389,262 390,266 389,276 389,278 391,279 393,279 397,279 405,275 419,275 423,276 428,276 429,276 432,275 436,273 442,271 446,270 446,271 448,271 449,272 449,273 450,275 450,276 453,276 463,276 470,276 476,277 482,278 487,279 498,279 499,280 499,282 499,282 499,285 499,287 498,288 498,289 491,293 489,294 484,298 479,303 471,308 466,313 464,316 462,320 461,322 462,325 464,329 468,332 471,333 474,334 478,337 483,345 484,349 484,352 478,361 477,365 478,369 480,375 481,376 481,379 481,380 480,383 478,386 475,389 474,391 473,398 473,402 473,403 476,408 477,410 480,413 493,421 494,423 497,427 500,432 497,433 494,430 492,429 492,429 481,437 481,437 480,437 469,439 470,440 469,440 469,441 466,442 463,442 462,443 461,443 460,443 459,443 456,444 454,446 453,447 446,448 445,448 437,449 436,446 432,445 422,446 422,447 420,448 417,447 415,445 413,445 410,444 406,444 403,443 400,443 397,442 390,442 382,441 370,440 365,445 357,447 343,453 343,453 341,453 339,454 339,454 335,455 330,455 329,456 326,458 319,465 318,465 312,466 310,465 304,466 298,467 296,467 292,468 286,470 260,471 255,471 250,476 248,475 241,478 232,480 225,480 223,482 214,483 213,484 205,485 201,485 196,484 193,483 191,485 191,487 193,491 70,496 65,497 56,498 56,496 107,419 107,418 88,401 81,395 72,388 72,388 66,383 63,380 63,380 64,380 98,367 101,365 103,364 112,360 123,354 125,354 129,352 137,349 141,348 143,345 143,343 145,338 149,331 150,328 91,289 81,281 80,279 78,278 82,274 82,274 85,272 96,268 97,266 100,264 102,262 105,262 108,260 111,257 117,252 125,248 133,245 143,242 149,240 165,236 168,236 167,233 165,230 163,227 163,225 168,224 180,221 200,218 220,216 228,215 227,214 227,211 207,212 198,215 188,216 183,204 181,203 177,203 172,203 168,204 159,206 152,208 147,210 141,212 137,211 137,212 130,212 129,212 129,209 126,206 125,204 123,202 123,200 125,198 126,196 106,184 96,178 95,177 90,180 81,184 78,185 77,187 75,187 74,185 74,182 74,177 74,177 73,176 71,178 70,178 61,174 60,175 60,174 54,171 53,170 52,169 51,169 50,167 46,164 43,161 42,160 41,159 40,158 36,155 35,155 33,154 30,151 28,150 29,149 30,148 32,147 38,145 35,141 29,134 27,134 27,129 27,125 24,126 25,124 22,124 23,123 20,122 20,121 12,117 11,109 7,107 7,107 10,105 4,101 6,98 6,97 4,92 2,85 2,84 0,70 0,68 2,63 3,59 4,56 5,55 5,55 8,54 11,51 12,50 13,50 16,48 16,48 18,47 19,46 20,46 21,44 22,44 23,43 26,40 27,40 27,40 27,40" id="5421" class="canton" fill="steelblue" stroke-width="1" stroke="white" geotype="canton" geoname="Val de Lorraine Sud" code_insee="5421" code_departement="54" nom_departement="Meurthe-et-Moselle" code_region="44" nom_region="Grand-Est"/></svg>