<?xml version="1.0" encoding="utf-8"?>
<svg version="1.1" id="svgmap" xmlns="http://www.w3.org/2000/svg" xmlns:xlink="http://www.w3.org/1999/xlink" x="0px" y="0px" width="100%" height="100%" viewBox="0 0 500 299">
<polygon points="52,154 52,153 53,152 53,152 53,152 53,152 53,152 55,150 57,147 60,143 61,142 62,140 62,140 62,140 60,139 58,139 52,137 52,137 52,137 52,137 55,137 55,137 57,137 57,137 58,138 59,138 60,138 63,138 63,138 65,137 65,137 69,135 69,135 69,135 69,135 70,134 70,134 74,132 75,131 75,131 76,130 79,129 81,127 82,127 84,125 85,124 86,124 88,123 88,123 90,122 92,120 92,120 95,117 96,116 96,116 96,115 96,114 96,114 96,113 96,112 96,112 96,111 97,110 97,110 97,109 97,106 96,106 96,105 97,104 97,103 98,102 98,101 98,101 99,99 100,99 100,99 102,97 103,97 103,97 103,97 103,96 106,97 106,97 107,97 107,97 108,97 109,97 110,97 112,98 113,98 117,99 117,99 117,98 117,96 117,96 113,95 113,95 114,90 114,90 114,90 129,91 129,91 130,91 138,88 138,88 139,89 139,89 141,86 142,85 144,83 144,83 149,85 149,85 149,85 149,84 149,84 145,82 153,77 153,77 153,77 153,77 153,76 157,74 158,74 159,74 161,75 161,75 162,76 165,76 167,77 168,77 174,69 174,69 174,68 173,68 174,68 174,68 178,66 179,66 178,64 177,61 173,56 172,54 171,50 170,47 169,46 170,45 170,44 169,44 167,43 165,42 164,41 164,40 157,30 156,29 156,29 157,29 158,29 158,28 158,28 158,27 158,27 157,26 157,26 157,26 158,25 158,25 159,24 160,24 161,24 164,23 166,23 168,22 170,22 171,22 176,21 182,20 183,21 185,20 187,20 190,19 192,18 194,18 196,17 196,17 197,16 197,17 197,17 198,18 201,20 201,20 201,21 201,22 201,22 196,27 192,31 191,33 188,34 186,34 184,36 182,37 182,39 185,38 188,37 191,36 191,35 193,36 193,36 195,35 196,35 197,34 199,33 200,31 201,31 202,30 203,30 206,29 208,29 210,28 212,27 214,26 216,25 217,23 218,22 218,21 217,21 217,20 217,20 218,21 222,20 222,20 223,21 224,21 226,21 228,19 228,19 229,19 232,17 233,16 234,16 235,16 235,15 235,15 236,14 237,14 238,13 239,11 242,12 244,12 245,13 247,14 250,11 253,8 256,6 260,5 263,4 267,4 269,4 272,4 272,4 274,4 275,5 279,5 281,5 285,6 286,9 277,11 277,12 273,11 274,20 281,21 282,23 285,27 287,27 288,27 291,26 293,26 294,25 296,24 298,23 299,23 300,22 302,23 303,23 310,23 315,23 323,23 329,23 334,22 339,22 339,22 341,21 343,21 343,21 343,19 343,19 344,17 345,13 346,12 346,11 346,11 344,10 342,10 338,9 335,9 333,9 333,8 333,7 334,5 335,0 336,0 337,1 339,2 342,3 346,3 356,2 359,3 365,4 368,5 372,5 377,4 380,4 382,10 383,11 388,10 390,10 393,11 395,13 396,16 397,17 403,18 406,17 410,17 412,17 420,17 423,17 426,17 427,18 428,19 430,21 431,21 432,21 435,23 437,23 437,24 437,25 438,26 445,32 448,35 453,41 455,42 458,43 460,43 460,43 461,43 462,43 463,42 467,40 469,38 471,35 474,30 478,31 483,33 490,35 494,36 492,40 492,41 493,44 495,47 495,52 497,55 498,58 500,61 500,63 489,68 487,69 486,70 485,71 479,73 473,75 465,77 465,77 464,78 462,78 461,78 457,80 456,80 454,81 449,83 444,85 443,85 442,85 440,86 436,87 430,88 429,88 428,88 428,88 428,88 427,88 427,88 425,88 425,88 423,88 422,88 419,89 418,89 415,89 412,88 412,88 406,90 405,90 397,92 396,93 397,93 397,93 397,93 395,95 393,96 393,96 393,96 392,96 392,97 388,101 388,101 375,105 366,108 366,108 367,113 368,113 368,113 376,120 376,120 384,119 384,119 384,119 400,133 400,133 415,129 415,129 415,129 417,131 417,131 416,131 404,140 404,140 404,140 382,137 382,137 381,137 381,137 375,154 375,154 366,155 366,155 363,157 352,162 340,167 340,168 340,168 340,168 346,174 346,175 344,176 343,176 341,177 341,177 335,179 332,180 332,180 317,178 308,177 307,177 301,176 300,176 300,176 297,175 297,175 293,175 292,175 290,175 289,175 284,174 283,174 283,174 283,174 282,174 277,174 277,174 272,174 271,174 268,174 268,174 268,174 268,175 268,175 267,175 267,175 267,175 267,174 267,174 267,174 267,174 266,174 265,173 263,173 263,173 262,174 262,174 262,174 261,174 258,174 258,174 258,172 258,172 258,171 258,170 257,170 253,169 252,169 249,167 247,166 246,166 245,166 244,167 242,169 243,170 243,171 245,174 248,177 248,178 250,179 252,181 256,183 256,184 257,184 257,185 258,186 257,188 257,191 257,192 258,193 257,194 256,195 255,195 254,196 253,196 252,196 251,197 250,199 250,200 249,201 249,203 249,204 250,205 251,206 253,209 255,209 256,210 254,210 253,210 252,210 251,210 251,211 252,212 251,213 252,214 252,215 251,215 249,217 245,218 243,219 239,220 240,223 238,224 239,227 233,229 234,230 233,231 232,231 231,231 225,234 219,237 215,233 213,231 211,230 204,233 204,233 204,232 201,234 198,236 198,236 197,236 197,237 188,237 187,237 186,237 185,237 181,238 177,239 174,240 173,240 165,243 163,242 161,242 158,242 156,243 153,245 149,247 145,248 143,245 142,244 136,245 129,248 123,249 123,247 123,246 118,249 116,248 97,242 95,244 95,245 86,249 83,251 78,252 68,251 62,252 54,255 56,259 58,264 59,264 58,266 57,266 58,270 58,271 58,272 57,273 56,274 55,276 55,277 54,278 53,279 51,280 46,282 44,284 43,284 42,285 38,286 36,287 35,287 34,288 32,288 31,289 29,289 25,289 24,289 23,289 22,289 21,290 19,290 18,290 16,290 15,292 13,293 10,298 5,298 3,299 2,299 1,299 0,299 2,297 3,296 3,295 3,294 4,293 4,292 5,290 7,289 11,287 11,287 12,286 12,286 12,285 13,283 14,282 15,281 16,281 16,281 16,277 16,277 16,275 17,273 18,271 18,270 18,269 19,267 19,266 19,266 19,265 22,262 23,261 25,259 29,258 30,257 32,256 36,254 37,253 38,253 39,252 41,251 46,250 47,249 48,249 49,249 50,248 51,247 53,245 62,243 70,241 81,238 74,235 72,234 73,233 74,232 74,230 75,227 75,226 75,225 75,224 72,223 73,223 73,223 74,222 76,221 77,220 77,220 77,219 77,218 76,218 76,217 77,216 78,216 80,215 80,214 79,214 78,212 80,211 83,211 83,210 82,209 82,209 81,208 83,208 85,206 86,205 87,204 85,203 86,203 85,202 87,202 89,200 93,199 93,197 97,197 98,197 100,197 101,197 101,195 104,195 104,193 105,193 106,190 107,190 108,185 105,185 105,185 111,185 112,184 111,184 111,184 111,184 110,184 110,184 110,184 109,184 109,184 109,184 109,184 108,184 108,184 108,184 107,184 107,184 107,184 106,184 106,184 106,184 105,184 105,183 105,183 106,183 106,183 106,182 106,182 106,183 106,182 108,183 109,178 109,176 110,175 110,175 111,174 112,173 112,172 112,170 112,168 111,165 113,165 113,162 113,161 112,159 112,156 115,155 113,154 114,153 112,152 113,152 112,151 111,151 113,150 111,147 115,146 115,145 119,145 124,144 128,145 130,145 134,144 143,142 142,140 145,138 150,135 153,131 155,128 154,128 153,127 153,126 152,125 151,124 150,122 149,121 148,120 147,119 148,119 148,118 150,117 150,116 151,114 152,112 145,110 144,111 143,113 141,114 140,116 137,117 136,118 133,119 131,120 129,120 127,121 124,122 122,122 119,123 116,123 113,123 110,123 107,122 104,123 102,123 99,125 94,128 87,131 87,130 87,131 80,134 77,136 75,137 71,139 70,138 68,139 67,141 65,142 64,144 63,145 63,146 61,147 60,149 58,150 55,152 54,153 54,155 53,155 52,154" id="5517" class="canton" fill="steelblue" stroke-width="1" stroke="white" geotype="canton" geoname="Verdun-2" code_insee="5517" code_departement="55" nom_departement="Meuse" code_region="44" nom_region="Grand-Est"/></svg>