<?xml version="1.0" encoding="utf-8"?>
<svg version="1.1" id="svgmap" xmlns="http://www.w3.org/2000/svg" xmlns:xlink="http://www.w3.org/1999/xlink" x="0px" y="0px" width="100%" height="100%" viewBox="0 0 500 348">
<polygon points="91,50 93,50 94,50 95,50 96,50 97,50 100,50 100,49 102,49 106,47 107,47 107,47 108,47 109,47 110,48 111,48 114,48 115,47 115,47 116,47 117,47 118,48 118,48 119,48 120,48 120,48 120,48 121,48 122,49 124,49 124,49 124,51 125,51 128,51 129,51 131,50 131,50 132,50 134,50 135,50 136,50 137,50 138,50 139,50 140,50 141,51 142,50 144,50 145,50 148,51 148,51 150,53 153,55 156,57 158,58 158,59 159,59 162,61 166,65 168,68 170,69 173,70 178,72 174,74 172,76 171,78 170,78 169,79 166,83 168,83 172,85 177,83 181,83 181,84 184,86 186,86 189,85 192,83 197,81 202,80 201,84 202,84 203,85 206,86 211,88 212,89 212,91 213,91 213,92 214,92 216,92 216,93 216,95 217,95 218,95 222,95 223,95 224,95 226,94 234,93 236,92 240,92 240,92 242,91 245,89 249,87 253,85 254,85 254,84 257,84 258,84 261,84 269,81 275,80 278,79 279,76 281,75 284,73 286,73 286,73 287,73 287,73 289,73 289,73 291,73 292,72 292,73 293,72 293,72 294,72 295,71 297,70 299,71 299,71 299,70 299,70 299,70 300,69 300,69 300,69 296,68 297,68 296,68 296,68 296,67 297,66 297,66 297,66 298,66 298,66 299,65 297,64 298,64 300,63 299,62 300,62 298,61 299,60 300,59 306,63 305,63 310,67 311,66 313,64 316,65 314,66 317,68 317,68 316,69 320,72 321,72 321,72 324,74 328,72 328,72 328,73 329,74 329,74 329,74 330,75 331,76 327,78 328,79 328,79 329,80 331,79 332,77 333,78 334,78 334,78 336,80 336,81 336,81 336,81 337,81 337,80 338,80 339,80 339,80 339,80 340,79 340,79 341,78 342,78 342,78 342,78 342,77 342,77 343,77 343,76 343,76 345,74 345,75 346,75 346,75 346,75 348,77 349,77 351,76 351,77 353,78 355,77 356,78 358,77 360,77 360,77 360,77 361,78 361,78 361,78 363,77 363,77 363,77 364,76 364,76 364,76 365,76 365,75 365,75 365,75 365,75 366,75 366,75 366,75 366,75 367,74 367,74 367,74 368,73 368,73 368,73 368,73 368,73 369,74 370,74 371,74 372,73 374,72 375,71 375,71 377,70 378,70 379,70 379,70 380,70 380,70 381,70 381,69 381,69 381,70 381,69 382,69 389,68 387,64 389,64 389,63 388,61 388,60 389,60 392,59 398,59 398,58 401,58 402,55 400,54 396,54 393,52 403,47 410,40 412,39 410,37 409,38 408,38 406,40 405,40 403,42 402,43 401,44 400,45 400,45 399,44 396,45 395,44 394,43 394,43 391,41 390,41 388,38 387,37 388,37 386,35 383,36 382,35 381,34 380,33 379,32 376,30 374,28 373,28 373,29 372,29 371,28 372,28 372,27 372,27 371,27 371,26 371,26 371,25 371,25 371,25 371,25 371,24 374,23 375,22 380,17 380,16 380,16 383,13 384,12 385,11 386,10 388,9 388,9 390,8 392,7 395,6 398,5 400,4 402,4 405,1 406,1 408,0 408,0 409,0 413,5 413,5 416,4 417,5 420,5 422,7 422,8 426,7 430,11 430,11 439,14 440,13 440,12 441,11 441,10 441,10 441,10 442,9 444,8 445,9 446,10 445,12 445,12 444,14 444,16 444,17 442,20 443,21 442,23 443,24 443,24 443,24 444,24 444,25 444,26 444,27 448,26 449,26 452,25 453,24 453,24 455,23 455,24 457,23 459,23 464,22 464,22 464,22 465,23 465,24 464,25 465,25 465,25 465,25 465,25 465,25 465,25 465,25 472,23 472,23 478,21 479,21 479,22 480,22 476,25 477,26 477,27 477,27 476,28 477,30 479,30 479,30 479,33 480,33 479,34 481,36 483,38 484,40 484,41 484,40 487,42 487,42 489,42 490,41 491,41 489,43 490,44 490,45 490,45 491,45 492,47 493,47 493,47 494,47 494,47 497,46 498,48 497,48 498,49 500,48 500,50 499,51 496,54 489,56 489,56 488,57 488,57 487,57 485,57 484,58 484,57 483,57 481,58 479,59 475,60 474,60 474,60 472,61 472,61 473,62 471,62 471,62 471,63 470,63 470,64 470,64 470,64 470,64 471,65 470,65 470,66 470,66 471,67 471,67 471,67 470,67 470,68 469,69 469,69 469,69 469,70 469,70 469,70 469,70 468,70 468,70 468,70 468,71 468,71 468,71 467,71 467,71 467,71 467,71 466,71 466,71 466,71 466,71 466,71 465,71 464,71 464,71 464,72 463,72 462,72 461,73 461,73 461,73 460,74 460,75 459,75 459,75 460,76 460,77 460,77 461,77 461,77 461,77 461,78 461,78 461,78 461,78 461,79 461,79 461,79 461,79 461,79 461,79 462,79 462,79 461,80 461,80 462,80 462,80 461,80 461,80 461,80 461,80 461,80 461,80 462,80 462,81 462,81 461,82 461,82 461,82 461,82 461,82 461,83 461,83 461,83 461,83 461,83 461,83 461,83 460,83 460,83 460,83 460,83 460,83 460,84 460,84 459,84 459,84 458,84 458,84 458,84 458,84 457,85 456,85 456,85 456,85 455,86 455,86 455,86 455,86 455,87 454,88 454,88 454,88 454,88 454,88 454,88 454,88 454,88 454,88 454,88 454,88 454,88 454,88 454,89 454,89 454,89 454,89 453,89 453,89 453,89 453,90 453,90 453,90 453,90 453,91 453,91 453,91 453,91 453,91 452,92 452,92 452,92 452,92 452,93 452,93 452,93 452,93 452,93 452,93 452,93 453,93 453,93 453,93 453,93 453,92 453,92 453,91 454,91 454,90 454,90 454,89 457,90 459,90 460,90 464,89 465,91 469,90 469,91 467,92 464,93 462,93 461,93 461,93 460,93 460,93 462,94 463,94 461,95 458,97 457,96 457,96 457,97 456,97 455,98 456,99 456,99 456,99 456,100 455,100 455,102 454,103 453,104 451,106 451,106 450,107 448,108 447,109 447,110 446,111 445,111 444,112 443,113 441,113 440,113 439,114 438,114 437,116 439,116 440,117 442,118 443,119 446,119 447,120 448,121 450,121 451,122 453,122 455,123 457,122 456,124 456,124 460,126 462,126 467,125 474,127 474,127 474,128 477,128 477,128 477,129 477,129 476,131 474,132 474,133 473,133 474,135 474,135 476,134 476,134 477,135 478,136 478,136 479,136 479,136 480,137 480,137 483,139 483,139 484,140 487,141 490,143 490,143 490,143 492,143 492,144 494,145 493,145 495,147 496,147 495,148 495,148 495,148 496,149 496,149 495,149 495,149 494,150 492,151 494,151 493,151 493,152 493,152 493,152 493,152 493,152 493,153 494,153 494,154 493,154 493,154 492,155 492,156 492,156 491,156 490,156 490,156 489,156 488,155 487,155 486,156 485,156 484,156 482,156 482,156 481,156 480,156 479,156 479,156 477,157 477,157 477,157 477,159 478,160 478,160 478,161 478,162 478,162 478,163 477,164 477,164 477,164 477,164 476,164 476,165 476,165 475,165 474,165 473,165 472,165 472,165 471,165 470,165 469,164 468,164 465,166 463,166 461,166 459,166 458,167 457,167 457,167 456,167 456,166 455,166 455,166 454,166 453,166 451,166 451,165 451,165 451,166 449,165 449,165 449,165 447,165 447,165 446,165 446,165 444,164 444,164 444,164 443,163 442,162 440,162 438,163 437,162 436,162 436,162 435,162 435,162 434,163 434,163 434,163 433,163 432,163 432,163 432,163 432,164 430,164 430,164 430,164 430,164 430,164 430,164 430,164 430,164 429,165 429,165 429,165 429,165 429,165 428,165 428,165 428,166 428,166 428,166 428,166 428,166 428,166 428,166 427,166 427,166 427,166 427,167 427,167 427,167 427,167 427,167 427,167 427,167 427,168 426,168 426,168 426,168 426,168 426,168 426,168 426,168 426,168 426,168 426,168 426,169 426,169 426,169 425,169 425,169 425,169 424,170 423,171 423,171 423,171 423,171 422,171 422,171 422,171 422,171 422,172 422,172 422,172 422,172 422,173 422,173 422,173 422,173 422,173 423,173 422,174 422,174 422,174 422,174 422,175 422,175 422,175 422,175 422,175 422,175 422,175 421,175 421,175 421,175 421,176 422,176 422,176 422,176 422,176 422,176 423,176 423,176 423,176 423,177 422,177 422,177 422,177 422,177 422,178 422,178 422,178 421,178 421,178 421,178 421,178 421,178 421,178 421,178 421,178 421,178 421,178 421,179 421,179 421,179 420,179 420,178 420,178 420,178 420,178 420,178 420,179 420,179 420,179 420,179 420,179 420,179 420,179 420,179 420,179 420,179 420,179 419,179 419,179 419,179 419,179 419,178 419,178 418,178 418,178 418,178 416,177 416,177 415,177 415,177 415,177 414,177 414,177 413,177 413,177 412,177 409,180 409,180 410,180 411,180 414,181 415,181 415,181 417,183 417,183 417,183 417,183 417,183 417,183 416,184 416,184 415,184 415,185 415,185 415,185 414,185 414,185 414,185 414,185 413,186 413,186 413,186 412,186 412,187 412,187 411,187 411,187 411,187 411,188 409,188 409,188 409,188 408,188 408,188 408,188 408,188 407,188 407,188 408,188 408,188 407,188 407,189 407,189 407,189 407,189 407,189 406,189 406,189 405,189 405,189 405,189 405,189 405,189 405,189 405,189 404,189 404,189 404,189 404,189 403,189 403,190 403,190 403,189 403,189 402,189 402,189 402,189 402,189 402,189 402,189 401,189 401,189 401,189 401,189 400,189 400,189 400,189 400,189 400,189 399,189 398,189 398,189 397,190 397,190 397,190 397,190 397,190 396,190 396,190 396,191 395,191 395,191 395,191 394,191 394,191 394,191 394,191 393,190 393,190 393,190 392,190 391,190 390,190 390,190 390,191 389,191 389,191 389,191 389,191 389,191 388,191 388,191 387,191 387,191 387,191 387,191 386,191 386,191 386,191 386,191 385,191 385,191 385,190 385,190 385,190 384,190 384,190 384,190 384,190 384,190 384,190 383,190 383,190 383,190 383,190 382,190 382,190 382,190 382,190 382,190 382,190 382,190 381,190 381,190 381,191 381,191 381,191 381,191 381,191 380,191 380,191 380,191 380,191 380,191 380,191 380,191 380,191 380,191 380,191 380,191 380,192 380,192 380,192 380,192 380,192 380,192 380,192 380,192 379,192 379,192 379,192 379,192 379,192 379,192 379,192 379,192 378,192 378,192 378,192 378,192 378,192 378,192 378,192 378,192 378,192 378,193 378,193 377,193 377,193 377,193 377,193 377,193 376,194 376,194 377,194 377,194 377,194 377,194 377,194 377,194 377,194 377,194 377,194 377,194 377,194 377,194 377,194 377,194 377,194 377,194 377,195 377,195 377,195 377,195 377,195 376,195 376,195 376,195 376,195 376,195 376,195 376,195 376,195 375,195 375,195 375,195 375,196 375,196 375,196 375,196 375,196 375,196 375,196 375,196 374,197 374,197 374,197 374,197 374,197 375,197 375,197 375,197 375,197 375,197 374,197 374,197 374,198 374,198 374,198 375,198 375,198 375,198 375,198 374,198 374,198 374,198 374,198 374,198 374,198 374,198 373,198 373,198 373,198 373,198 373,198 373,199 373,199 376,200 378,201 381,202 384,201 385,202 385,205 384,207 386,208 386,209 387,210 388,211 389,212 390,213 391,213 391,213 392,213 392,213 392,213 393,213 393,213 393,213 393,213 394,214 394,214 395,215 394,216 395,217 395,218 395,218 396,219 396,219 396,220 396,220 397,221 397,221 397,221 398,222 398,222 399,222 399,222 400,223 400,223 400,223 401,223 402,224 403,224 403,224 404,224 404,224 405,224 406,223 407,223 408,225 411,227 412,227 413,228 413,228 417,230 417,230 418,229 419,229 419,228 420,229 417,230 419,231 420,231 420,231 420,231 420,231 422,232 422,232 423,232 424,232 424,232 424,233 425,233 425,233 425,234 425,234 425,235 424,235 425,235 425,236 425,236 425,237 424,238 424,238 424,238 423,239 422,241 421,242 420,243 420,243 419,243 419,243 419,243 418,244 417,244 416,244 415,245 414,245 414,245 413,245 413,245 413,245 412,245 412,245 411,245 411,245 410,245 409,245 409,246 409,246 408,246 408,246 407,246 407,246 405,246 405,246 404,246 404,247 404,247 404,247 404,247 405,248 404,248 404,248 403,247 401,247 400,246 399,247 399,247 399,247 397,248 397,248 395,249 395,249 394,249 394,250 394,250 396,251 396,252 396,252 397,253 398,253 398,253 398,253 399,254 399,255 399,256 399,256 399,256 398,256 398,256 398,257 399,258 398,259 398,259 397,259 397,259 398,260 398,261 398,261 399,263 399,263 399,263 399,263 399,264 399,264 400,264 400,265 401,266 402,266 402,266 402,266 403,267 404,267 404,267 404,267 405,267 407,268 406,268 407,268 406,268 409,270 409,270 409,270 409,270 409,271 409,271 409,271 409,271 408,271 408,272 408,272 407,273 407,273 407,273 408,273 408,273 408,273 408,273 408,273 408,273 408,274 405,274 405,274 405,274 406,276 406,276 406,276 406,276 406,276 406,276 406,277 406,277 407,278 407,278 407,278 407,278 407,278 407,278 407,278 407,278 406,278 406,278 406,278 406,278 406,278 406,278 406,279 407,279 407,279 407,279 407,280 407,280 407,280 407,280 407,280 407,280 407,280 409,281 408,281 410,283 410,283 410,283 410,283 409,284 408,284 408,284 408,284 411,286 411,287 411,288 411,288 411,288 410,289 410,289 410,289 411,290 411,290 411,290 410,291 410,291 410,291 410,291 410,291 413,293 413,293 413,294 415,297 415,297 413,298 413,299 414,300 414,300 414,302 415,302 413,305 412,307 404,309 408,318 399,329 400,330 386,334 392,342 389,343 388,343 386,343 384,343 383,343 378,344 376,344 373,344 370,344 367,344 363,345 357,348 354,346 347,345 343,341 342,341 338,337 335,336 334,336 333,335 331,336 329,335 329,335 328,334 327,333 327,333 326,333 326,333 325,332 322,332 321,332 317,331 317,331 315,330 315,330 314,329 313,331 312,332 311,333 311,333 311,333 311,333 310,333 309,333 309,332 311,327 313,322 310,321 310,321 310,319 310,319 309,319 309,319 308,320 307,321 301,317 298,318 298,318 298,318 296,316 296,316 295,317 294,315 293,314 292,314 291,314 291,315 291,314 290,315 290,315 290,315 290,315 289,315 289,315 287,316 285,316 284,316 283,316 282,316 282,317 282,316 281,316 281,315 282,315 283,315 284,315 285,314 285,314 286,314 286,314 288,314 290,314 292,314 291,310 291,310 291,310 289,310 288,310 287,309 286,309 285,309 285,309 284,309 284,309 284,309 283,309 283,309 282,310 282,310 281,310 280,311 279,311 278,311 277,312 277,312 276,311 276,311 276,311 275,312 275,312 274,312 274,312 270,313 270,312 270,311 269,311 268,311 268,311 268,311 265,312 265,312 264,313 264,313 263,312 260,313 258,313 258,312 258,312 258,312 257,311 257,311 257,311 257,310 256,310 256,310 256,310 255,310 255,310 254,311 254,311 250,311 247,312 245,312 243,313 241,313 241,313 241,312 239,312 237,312 232,314 231,313 230,312 229,313 226,311 225,310 226,310 225,310 224,309 224,309 223,308 222,308 221,307 221,307 220,308 219,308 219,308 219,308 218,308 218,308 218,308 217,307 222,305 221,304 220,304 219,303 218,302 216,302 215,301 214,300 213,300 212,300 213,299 213,299 214,299 214,298 210,297 206,296 205,296 198,294 198,294 197,294 196,294 195,295 195,296 194,297 193,298 193,299 193,299 193,300 177,302 174,305 174,306 173,307 171,307 171,306 170,306 169,306 168,306 167,306 167,306 167,306 164,307 164,307 163,307 162,307 162,307 161,307 159,307 158,307 158,307 156,308 156,308 155,307 155,307 154,305 153,305 152,304 152,304 151,303 152,303 152,302 152,301 154,301 155,301 156,301 156,301 156,301 157,301 157,301 158,301 158,301 158,300 159,300 159,300 159,300 159,300 160,300 161,299 161,299 162,298 163,297 164,296 164,296 165,296 165,295 165,294 165,294 165,294 165,294 165,293 165,292 165,291 166,291 166,291 169,281 164,279 166,279 162,277 160,277 159,276 157,277 155,278 154,279 153,280 153,279 152,280 151,281 149,282 148,283 147,284 147,284 146,284 146,284 145,285 144,285 144,285 143,285 142,285 142,285 140,285 139,286 138,286 137,286 136,287 136,287 135,287 134,288 133,288 133,288 133,289 133,289 132,290 132,291 132,291 131,291 131,291 131,293 128,293 127,293 125,293 124,293 124,293 124,293 123,293 123,293 123,293 122,293 124,292 124,292 123,292 116,295 115,294 115,294 113,295 112,296 111,295 109,297 108,296 108,296 105,295 104,296 104,296 103,296 103,296 101,295 100,295 100,295 99,294 98,294 97,293 96,292 96,291 95,290 94,289 94,289 93,289 93,288 93,287 93,287 94,286 94,285 94,285 94,284 94,284 95,283 96,281 97,281 98,280 99,279 98,279 98,279 98,279 98,279 98,279 98,279 97,279 97,279 97,279 97,279 97,280 96,280 96,280 96,280 96,279 95,279 95,279 95,278 94,278 94,278 94,278 94,278 94,277 94,277 94,277 94,276 94,276 95,276 96,275 97,273 98,273 98,273 99,273 99,272 99,271 99,270 99,270 99,269 98,269 97,269 97,268 97,268 97,267 97,267 96,266 96,265 96,265 96,265 96,265 96,265 95,264 94,262 95,261 98,261 102,261 102,261 102,261 104,260 105,260 106,260 106,260 106,260 107,259 105,255 105,255 104,256 105,256 104,257 104,257 103,257 102,257 102,257 101,256 101,256 101,255 101,255 100,255 100,255 99,256 97,257 96,257 96,258 96,258 96,258 97,258 97,258 98,258 98,258 99,259 99,259 99,259 99,259 98,260 97,260 96,260 95,260 93,260 92,260 91,261 90,261 90,261 90,261 89,261 90,262 91,263 91,264 90,264 90,264 90,264 90,265 90,265 89,265 88,265 87,265 87,265 86,264 86,264 85,264 84,263 83,263 83,263 83,263 83,263 83,263 83,263 83,264 83,264 83,264 83,264 83,264 83,265 83,265 83,265 83,265 83,265 83,265 83,266 82,266 82,266 82,266 81,266 81,266 81,265 80,265 81,265 80,264 80,264 80,263 80,263 80,263 80,262 79,262 79,261 79,261 78,261 78,261 77,261 76,261 75,261 74,260 74,260 73,260 72,259 72,259 71,259 71,259 70,259 70,259 69,259 69,259 69,259 68,259 68,259 68,258 68,258 68,258 68,257 68,257 68,256 68,256 68,256 68,256 69,256 70,256 71,256 71,256 71,255 71,255 71,253 71,253 71,252 72,252 72,251 73,251 74,250 76,249 77,248 77,248 80,243 80,243 80,243 79,242 79,242 78,242 78,242 78,242 77,243 77,242 77,242 76,242 76,242 75,242 74,241 74,241 73,241 73,240 74,240 74,240 72,238 72,238 72,238 72,238 72,238 72,238 74,237 73,237 73,236 72,236 72,236 72,236 72,236 71,234 71,234 48,243 46,241 34,238 29,233 22,239 20,239 20,239 22,236 25,234 29,230 31,229 31,229 54,223 62,221 66,217 64,217 63,217 62,217 60,217 59,217 58,217 58,217 57,218 56,218 55,218 54,218 54,218 53,218 53,217 53,216 53,214 53,214 53,212 53,212 50,212 49,212 47,212 47,212 46,212 46,212 44,212 44,212 43,212 40,212 40,212 39,212 39,212 38,212 37,212 36,212 35,212 34,212 33,212 33,212 33,212 33,211 33,211 32,210 32,210 31,209 30,209 30,209 29,208 28,208 28,208 27,207 27,207 26,207 25,207 23,207 22,206 21,206 19,206 19,206 18,206 18,206 16,205 15,205 14,205 14,205 13,205 12,204 12,204 11,204 10,204 9,204 9,203 8,203 7,203 6,202 5,202 4,201 4,201 3,200 3,200 2,200 1,199 1,199 0,198 1,196 2,196 2,196 3,197 7,198 9,200 9,200 12,199 16,198 20,198 25,197 28,196 29,196 30,196 31,196 32,196 49,197 50,197 52,197 53,197 54,196 55,196 60,196 61,196 62,196 64,196 65,196 66,196 68,195 68,195 72,195 73,195 73,195 73,195 76,193 77,193 77,193 77,193 82,191 82,191 82,191 81,191 81,191 81,190 81,190 81,190 80,190 80,190 84,188 83,188 82,186 81,186 83,185 83,185 82,185 82,184 82,184 82,183 81,182 81,182 80,182 79,181 79,182 78,182 78,183 77,183 77,183 76,183 76,182 76,181 76,181 76,180 76,179 76,178 75,178 75,178 75,178 74,178 73,178 73,177 73,177 73,177 73,176 74,176 75,175 76,175 76,175 77,175 78,175 79,175 79,174 79,174 78,174 77,173 77,173 77,173 77,172 77,172 77,171 77,171 76,170 77,169 77,169 77,168 78,167 79,166 80,165 80,165 80,164 80,164 81,163 81,163 81,163 82,163 83,161 85,160 85,160 85,160 89,160 89,160 90,160 90,160 91,160 92,160 92,160 92,160 92,160 92,159 92,159 92,159 92,159 92,159 92,159 92,159 92,158 92,158 92,157 92,157 92,157 92,157 92,157 92,156 92,156 92,156 92,156 92,156 92,155 92,155 92,156 92,156 92,155 92,155 92,155 92,155 92,155 92,155 92,155 92,155 92,155 92,155 93,155 93,155 93,155 93,154 93,154 93,154 93,154 93,154 94,154 94,154 94,154 94,154 94,154 94,154 94,154 95,154 95,153 95,153 95,153 95,153 95,153 96,152 96,152 96,152 96,152 96,152 96,152 96,152 96,152 96,152 96,152 96,152 96,152 95,152 95,152 95,152 95,152 95,152 94,152 94,152 94,152 94,152 94,152 94,152 94,152 94,152 94,152 94,151 94,151 94,151 94,151 94,151 94,151 94,151 93,151 93,151 93,151 92,151 92,151 92,151 92,151 92,151 92,151 91,151 91,150 91,150 91,150 91,150 90,150 90,150 90,150 91,150 91,150 90,150 90,149 90,149 90,149 90,149 90,149 89,149 89,149 89,149 89,149 89,149 90,149 90,149 90,149 90,149 90,148 90,148 90,148 91,148 91,147 91,147 91,147 91,147 92,145 92,145 92,145 92,145 91,145 91,145 91,145 91,145 91,145 92,144 92,144 92,144 92,144 92,144 92,144 93,144 93,144 93,144 93,144 93,144 93,144 93,144 93,144 94,144 94,144 93,143 93,143 93,143 93,143 92,143 92,143 92,143 92,143 91,143 91,143 91,143 91,143 91,142 91,142 91,142 91,142 91,142 87,141 87,141 87,141 87,141 88,141 88,140 88,140 88,140 88,140 89,139 89,139 89,138 89,138 89,138 89,138 88,137 88,137 88,137 88,137 87,137 87,136 87,136 86,136 86,136 86,136 86,137 86,137 85,137 85,137 85,137 85,137 85,137 84,137 84,137 84,137 84,137 84,137 83,137 83,136 83,136 83,136 83,135 82,135 82,135 82,134 80,133 80,133 79,132 76,131 76,131 76,131 76,131 75,130 75,130 74,130 73,130 72,130 72,130 72,130 71,130 71,130 70,130 70,130 69,129 68,129 68,129 67,128 66,128 66,127 66,127 65,127 65,127 65,127 65,126 64,126 64,126 63,127 61,126 60,126 60,126 59,126 59,126 59,126 59,126 59,126 59,125 60,125 60,125 60,124 60,124 60,124 60,124 60,124 60,124 60,123 59,123 59,123 58,123 58,122 58,122 57,122 56,122 55,121 54,121 54,121 53,121 53,121 52,121 52,121 51,120 50,120 49,120 49,119 49,119 48,119 48,118 47,118 47,118 47,118 47,117 47,117 47,116 47,116 46,115 46,115 46,115 46,115 44,115 44,115 42,115 42,115 41,116 41,116 41,116 41,116 40,116 40,116 40,115 40,115 40,115 40,115 40,115 40,114 39,114 39,114 39,114 40,114 40,114 40,114 40,114 40,114 40,114 40,114 40,114 40,114 40,114 40,113 39,113 39,113 39,114 39,114 38,114 38,114 38,114 38,114 37,113 37,113 37,113 37,113 36,113 36,113 35,113 35,113 35,113 34,113 34,112 34,112 34,111 35,111 35,111 36,111 36,111 37,111 37,111 38,111 38,111 38,111 38,110 38,110 39,110 39,110 40,110 40,109 40,109 40,109 39,108 39,108 39,108 38,107 38,107 37,107 37,107 36,108 35,108 35,108 35,107 35,107 35,107 35,107 35,106 35,106 34,105 34,105 33,104 33,104 33,103 33,103 33,102 32,102 32,102 32,101 32,100 32,100 32,99 32,99 32,99 31,99 29,99 29,99 29,99 28,99 28,99 28,99 29,98 29,97 30,97 31,96 31,96 31,96 31,96 29,95 28,95 28,95 28,95 27,95 27,96 27,96 27,96 27,96 26,97 26,97 26,97 25,97 25,96 25,96 25,95 24,95 23,94 22,94 21,94 21,94 20,94 20,94 20,94 20,94 19,93 19,93 20,93 20,93 20,93 21,93 21,93 21,93 21,92 21,92 21,92 21,92 21,92 21,92 20,92 20,91 20,91 20,91 20,91 20,90 20,90 20,90 20,90 20,90 20,90 20,89 20,89 20,89 20,89 20,89 19,89 19,88 18,88 18,88 18,88 18,88 18,88 18,87 18,87 19,87 19,87 19,87 19,87 19,87 19,87 18,86 18,87 18,87 17,86 17,86 17,86 17,85 17,85 17,85 16,85 16,85 17,84 17,84 18,84 18,84 18,84 18,84 18,83 18,83 17,83 17,83 17,83 17,83 17,83 17,83 17,83 17,83 17,83 17,83 17,82 17,82 17,82 17,82 17,82 17,82 16,82 16,81 16,81 15,81 15,81 15,81 15,81 15,80 15,80 15,80 15,79 15,79 16,79 16,80 16,80 16,81 16,81 17,81 17,81 17,81 17,80 18,80 18,80 19,81 20,81 20,81 21,81 22,81 22,81 22,82 22,82 23,82 23,82 24,82 24,82 25,82 25,82 25,82 26,82 26,82 26,83 27,83 27,83 27,83 28,83 28,84 29,84 29,85 29,85 29,85 29,85 29,85 30,85 30,85 31,85 31,85 32,85 32,85 33,84 33,84 34,84 34,84 35,84 36,83 36,83 37,82 38,82 39,81 40,81 41,81 41,81 42,81 43,80 44,80 44,80 45,80 45,80 45,80 46,80 47,80 48,80 48,80 49,80 49,80 50,79 50,79 50,79 50,78 50,78 51,76 53,76 54,76 54,76 54,76 55,76 55,76 55,76 55,76 54,75 55,75 55,75 55,75 55,76 55,76 55,76 56,75 55,75 55,75 55,75 55,75 55,75 55,74 55,74 54,74 54,74 55,74 55,74 55,74 56,73 56,73 56,72 56,72 56,72 57,72 57,72 57,71 57,71 57,71 57,71 57,71 57,71 57,71 58,71 58,71 58,70 58,70 58,70 58,70 58,69 58,69 58,69 58,68 58,68 58,68 58,67 57,67 57,66 57,66 55,66 55,65 53,65 52,64 51,64 51,64 51,63 50,63 49,63 49,63 48,63 47,62 46,62 46,62 45,61 45,61 47,60 47,60 46,60 46,59 47,59 47,59 47,59 47,59 47,59 48,57 48,57 49,56 49,56 50,55 50,55 51,55 52,55 52,55 53,54 53,54 53,54 54,54 54,54 54,54 54,54 54,54 54,55 55,55 55,55 55,54 56,53 57,52 58,51 60,50 62,50 64,50 64,50 65,50 66,50 66,50 68,50 71,51 74,51 74,51 77,52 78,52 79,52 81,52 81,52 83,51 84,51 85,51 87,50 88,50 89,50 89,50 90,50 91,50 91,50" id="5513" class="canton" fill="steelblue" stroke-width="1" stroke="white" geotype="canton" geoname="Saint-Mihiel" code_insee="5513" code_departement="55" nom_departement="Meuse" code_region="44" nom_region="Grand-Est"/></svg>