<?xml version="1.0" encoding="utf-8"?>
<svg version="1.1" id="svgmap" xmlns="http://www.w3.org/2000/svg" xmlns:xlink="http://www.w3.org/1999/xlink" x="0px" y="0px" width="100%" height="100%" viewBox="0 0 500 202">
<polygon points="106,94 106,95 105,95 105,95 105,95 105,96 105,96 105,96 105,96 106,97 106,97 106,98 106,98 106,98 107,99 107,99 107,99 107,99 107,100 107,101 107,101 108,101 108,101 109,102 109,102 110,102 110,102 111,102 111,102 111,102 111,102 111,102 112,102 112,101 113,101 113,101 113,101 114,101 115,100 115,100 117,100 117,100 117,100 117,100 117,101 117,101 117,101 117,101 117,101 118,101 118,101 118,101 118,101 118,102 118,102 118,102 118,102 118,102 118,103 118,103 119,103 119,103 119,102 119,102 119,102 120,102 120,102 121,102 121,102 123,102 123,102 124,102 124,102 124,102 125,103 125,103 125,103 125,103 126,103 126,103 126,103 127,104 127,104 127,104 128,104 128,103 128,103 128,103 129,103 130,103 130,103 131,103 131,103 132,103 132,104 134,104 134,104 135,105 135,107 136,108 137,111 137,111 137,111 137,111 138,111 138,111 138,112 139,113 139,114 139,114 140,114 140,115 140,115 140,115 140,115 141,115 142,114 145,113 145,113 145,113 146,113 148,115 148,115 148,115 148,115 149,116 149,116 151,115 152,114 152,114 152,114 153,114 153,114 153,114 153,115 153,115 153,116 153,116 154,116 154,115 155,115 155,115 156,115 157,114 157,114 156,114 157,114 159,114 160,114 160,114 161,114 163,114 163,114 164,113 165,113 165,113 166,113 166,113 167,112 168,113 170,113 170,113 170,113 171,113 171,113 172,113 172,113 173,112 174,112 174,113 173,113 173,114 173,114 174,115 174,115 174,116 174,116 174,116 174,116 175,116 175,117 175,117 176,118 176,118 176,118 175,118 175,119 175,119 174,119 174,119 174,119 174,119 174,119 174,120 174,120 174,121 175,121 175,121 175,121 176,121 176,120 177,120 177,120 178,120 178,120 179,120 179,120 179,120 180,120 180,120 180,119 181,119 181,119 181,119 181,119 181,118 181,118 182,117 182,117 183,116 182,116 182,115 182,115 182,115 183,114 184,114 185,113 185,113 186,113 186,112 186,112 186,112 187,112 188,112 188,112 189,112 189,112 190,112 190,112 191,112 191,112 191,112 191,112 191,112 191,112 192,112 192,112 192,112 192,112 193,112 193,112 193,112 193,112 194,112 194,112 194,112 194,112 194,112 194,112 194,112 195,112 195,112 195,112 195,111 195,111 195,111 195,111 195,111 196,111 196,111 196,111 196,111 196,110 196,110 196,110 196,110 196,110 196,110 196,110 196,110 196,110 196,110 196,110 196,110 196,109 196,109 196,109 197,109 197,109 197,109 197,109 197,109 197,109 197,109 197,109 197,109 197,108 197,108 197,108 197,108 197,108 197,108 196,108 196,108 196,108 196,108 197,108 197,107 196,107 196,107 198,107 198,107 198,107 198,108 198,108 198,108 201,107 201,107 201,107 200,105 200,105 202,105 204,106 206,106 207,107 207,107 207,107 207,106 207,106 207,106 207,106 207,106 207,106 207,105 208,105 208,105 208,104 208,104 208,104 208,104 208,104 209,104 209,103 209,103 209,103 209,103 209,103 209,103 209,102 209,102 209,102 208,102 208,102 208,102 208,101 208,101 207,101 207,101 207,101 207,101 207,101 207,101 207,100 207,100 207,100 207,100 207,100 207,100 207,100 207,100 207,100 208,100 208,100 208,100 208,100 208,100 208,100 208,100 208,100 208,100 209,100 209,99 209,99 210,99 210,99 211,99 211,99 211,99 211,99 211,99 211,99 211,99 212,100 212,100 212,100 213,101 213,101 213,101 213,101 213,101 213,101 213,101 213,101 214,101 214,101 214,101 214,101 214,102 214,102 215,102 215,102 215,102 216,102 216,102 216,102 216,102 216,102 216,103 216,103 216,103 216,103 217,103 218,103 218,104 218,104 219,104 219,104 219,104 219,104 219,104 219,105 220,105 220,105 220,105 220,105 221,105 221,105 221,105 221,106 223,106 224,106 224,106 224,106 224,106 224,106 225,106 225,106 225,106 225,106 225,106 225,106 225,106 226,106 226,106 226,106 226,106 226,106 226,106 226,106 226,106 227,105 227,105 228,105 228,105 228,105 228,105 228,105 228,105 228,105 228,105 229,105 229,106 229,106 229,106 230,106 230,106 230,106 230,106 230,106 231,106 231,106 231,106 232,107 232,107 232,107 232,107 232,107 232,108 233,108 233,108 233,108 233,108 234,108 234,108 235,108 235,108 235,108 236,108 237,108 237,108 238,108 239,108 239,108 240,108 240,108 240,108 240,108 240,108 242,108 242,108 242,107 244,107 244,106 245,106 245,106 246,105 247,105 247,105 247,105 248,106 248,106 248,105 248,105 248,105 248,105 248,105 249,105 248,104 248,104 249,104 249,104 249,104 249,104 249,103 249,103 250,103 250,103 250,103 250,103 250,103 250,103 250,103 251,103 251,103 251,103 251,103 251,103 252,102 252,102 252,102 252,102 252,102 252,102 253,102 253,102 253,102 253,102 253,102 253,102 253,102 254,102 254,102 254,101 254,101 255,101 255,101 255,101 255,101 255,101 255,101 255,101 255,101 255,101 256,101 256,101 256,101 256,101 256,101 256,101 256,101 256,101 256,100 256,100 257,100 257,100 257,100 257,100 257,100 257,100 257,100 257,100 257,100 255,99 253,98 253,98 253,98 252,98 252,98 252,98 251,97 251,97 250,97 250,97 249,96 248,96 247,96 248,95 248,95 247,94 247,94 247,94 248,94 248,94 248,94 249,93 249,93 250,93 251,94 252,94 252,93 253,93 253,93 253,93 253,93 253,93 254,93 254,93 254,93 255,92 256,92 257,92 257,92 257,92 257,92 257,92 257,92 257,92 258,92 258,92 258,92 258,92 259,91 259,91 260,91 260,90 261,90 261,90 261,90 261,90 261,90 261,90 261,90 261,90 261,90 261,89 261,89 261,89 261,89 261,89 261,89 262,89 262,89 262,89 262,89 262,89 262,88 262,88 261,87 261,87 261,87 261,86 261,86 261,86 261,86 262,86 262,86 262,86 262,84 262,84 262,83 262,83 262,83 262,83 262,83 262,84 263,84 264,84 264,84 265,84 265,84 265,84 266,83 266,83 267,83 268,84 268,84 269,84 269,84 269,85 270,85 270,85 270,85 269,84 269,84 270,84 270,83 270,83 270,83 271,83 271,84 271,84 271,84 271,84 271,84 271,85 270,86 271,86 271,86 271,86 271,85 271,85 271,85 273,85 274,85 275,85 276,84 276,84 277,84 278,84 279,83 280,83 281,83 281,83 281,83 282,83 282,83 284,82 285,82 285,82 285,82 286,82 286,83 287,84 287,84 287,84 288,84 289,83 289,83 289,83 290,84 290,84 290,85 290,85 291,85 293,85 293,86 293,86 294,86 295,87 295,87 295,86 296,86 297,86 298,87 299,87 300,86 301,86 302,86 303,86 303,85 304,85 304,85 304,85 304,86 304,86 304,86 306,85 305,85 306,84 307,84 307,83 306,83 308,82 309,82 310,83 311,83 311,83 311,83 311,83 311,83 311,83 312,83 312,83 312,83 312,83 312,82 311,81 312,81 312,80 312,80 312,80 313,80 314,79 314,78 315,78 316,78 316,79 317,79 317,79 317,80 317,80 318,81 318,81 318,81 318,80 318,80 318,80 320,81 320,81 322,80 322,80 322,80 322,80 323,80 324,79 324,79 324,79 323,78 322,78 321,78 320,79 320,79 320,78 320,78 320,78 320,78 320,78 320,78 320,78 320,78 320,78 320,78 320,78 320,78 321,78 321,78 321,78 321,78 321,78 321,78 321,78 321,78 321,78 321,78 321,77 321,77 321,77 321,77 321,77 322,77 322,77 322,77 322,77 322,77 322,77 322,77 322,77 322,77 322,77 322,77 323,77 323,77 323,77 323,77 323,77 323,77 323,77 324,77 324,77 324,77 324,77 324,76 325,76 325,76 325,76 325,75 325,75 325,75 325,75 326,75 326,74 326,74 326,74 326,73 327,73 328,72 328,72 328,72 328,72 328,72 328,72 328,72 329,72 329,72 329,71 329,71 330,69 330,69 330,69 330,69 331,68 331,68 331,67 330,67 330,66 330,66 330,66 331,65 332,65 332,65 331,64 331,64 331,65 331,65 331,64 330,64 330,63 330,63 329,63 328,62 329,62 330,62 331,62 331,62 331,62 332,61 332,61 332,61 332,61 332,61 333,61 333,61 333,61 333,61 333,61 334,60 334,60 334,60 334,60 334,60 334,60 334,60 334,60 334,60 334,60 334,60 334,60 333,60 333,60 333,60 332,60 332,60 332,60 332,59 332,59 332,58 332,58 333,57 333,57 334,56 333,56 334,56 333,56 334,55 334,55 334,55 335,54 334,54 334,53 333,53 333,53 333,53 333,53 332,53 332,52 331,52 331,52 331,52 332,51 332,51 332,50 333,50 334,50 334,50 335,50 336,49 337,48 337,48 338,47 338,47 338,46 339,46 338,46 338,45 337,44 337,44 337,44 337,43 337,43 337,43 338,43 339,42 340,42 340,42 341,41 341,41 341,41 341,40 341,40 341,40 341,40 342,39 343,37 343,37 343,36 344,36 344,35 344,35 344,35 344,35 345,33 345,33 347,33 347,32 347,32 348,31 348,31 348,31 348,31 349,31 349,31 350,30 351,29 351,29 351,29 350,29 350,29 350,28 351,28 351,28 352,28 353,28 353,28 354,27 354,27 354,27 356,26 357,26 357,25 358,25 358,25 360,26 362,27 361,27 361,27 362,28 362,28 362,28 363,28 363,28 365,30 366,31 366,31 365,32 366,33 366,33 366,33 366,33 366,33 366,33 366,33 365,34 365,34 368,35 368,35 368,35 369,34 369,34 370,33 370,33 371,32 372,31 372,31 372,31 372,31 372,31 372,30 373,30 373,30 373,30 373,30 373,30 374,29 374,29 375,29 377,29 378,29 378,29 380,29 381,29 381,29 381,28 382,28 382,28 383,27 384,27 384,27 385,27 385,27 385,27 386,27 387,27 388,27 388,27 389,26 389,26 389,26 389,26 389,26 390,26 390,27 390,26 390,26 390,26 390,26 390,26 391,26 391,26 392,26 392,25 393,25 393,25 393,25 393,25 392,24 392,24 392,24 392,24 391,23 391,22 391,22 390,22 390,21 390,20 389,20 392,20 393,20 394,20 396,20 397,20 398,20 400,20 401,20 402,20 403,20 405,20 405,20 404,20 404,19 404,19 404,19 404,19 405,19 405,19 405,19 405,19 406,19 407,19 407,19 407,19 408,19 408,18 408,18 408,18 409,18 409,18 410,18 410,18 411,18 411,18 411,18 412,17 412,17 412,17 413,17 413,17 413,17 413,17 413,17 413,17 414,17 414,17 415,16 416,16 416,16 416,16 414,16 414,15 414,15 414,15 415,15 416,14 416,14 418,14 418,14 418,14 418,14 419,15 419,15 419,15 419,14 419,14 419,14 418,14 418,13 418,13 418,13 418,13 418,13 418,13 418,12 418,13 418,12 417,12 417,12 417,12 417,12 417,12 417,12 417,12 417,12 417,12 417,12 416,11 417,11 417,11 417,11 417,11 417,11 418,11 419,11 419,11 420,11 420,12 420,12 420,12 421,12 421,12 422,13 422,13 422,12 423,12 424,12 424,12 425,12 425,11 425,11 426,11 426,11 426,11 426,10 426,10 426,10 426,9 427,9 427,8 427,8 428,8 428,8 428,8 427,8 427,8 427,8 427,7 427,7 427,7 427,6 427,6 428,7 428,6 428,6 430,5 430,5 430,5 430,5 429,5 428,5 427,5 427,5 427,5 427,5 427,5 428,4 428,4 428,4 429,4 429,4 429,3 430,3 431,2 431,3 432,3 432,3 432,2 433,3 434,2 434,2 434,2 435,2 435,2 435,1 436,1 436,1 436,1 437,1 437,1 438,0 439,0 439,0 441,1 443,2 443,2 443,2 443,2 443,3 443,3 443,3 443,2 443,2 444,2 444,2 444,2 445,2 446,2 449,3 448,3 448,4 448,5 448,5 448,5 448,5 448,5 447,5 447,5 447,5 447,5 447,6 447,6 446,7 446,7 445,8 445,8 444,8 444,9 444,9 443,9 443,10 443,10 443,10 443,11 442,12 442,12 442,12 442,12 442,12 443,13 443,13 443,13 442,13 442,13 442,13 441,13 441,13 441,14 441,14 441,14 441,14 441,14 441,15 442,15 442,15 442,15 443,15 443,15 445,15 445,15 445,15 446,15 446,15 446,16 447,16 447,17 448,17 448,17 448,17 448,17 448,17 449,17 449,17 450,17 450,18 452,18 452,18 453,18 453,18 453,18 453,18 453,18 453,18 454,18 454,18 454,18 455,18 455,18 455,18 456,18 456,18 457,18 457,18 458,18 458,18 458,18 458,18 458,18 459,18 459,18 459,18 459,18 460,18 460,18 460,18 461,18 461,18 461,18 461,18 461,18 461,18 460,19 459,19 459,19 458,19 457,19 456,19 455,19 455,19 454,20 454,20 454,21 453,21 453,21 453,21 452,22 452,22 452,22 453,22 453,22 453,22 454,22 454,23 455,23 455,23 455,23 456,23 456,23 458,23 458,23 458,23 458,24 458,24 458,24 459,24 459,24 459,24 459,24 460,24 460,24 461,24 461,23 462,23 462,23 462,23 462,23 463,23 464,23 464,23 464,24 465,24 465,24 465,24 465,25 466,25 466,25 466,25 466,25 466,25 466,25 467,25 467,25 467,26 467,26 468,26 468,26 468,26 468,26 468,26 468,26 468,26 468,26 468,26 469,26 469,26 470,26 470,26 470,26 470,26 470,26 471,26 471,26 471,26 471,26 471,26 471,26 471,26 471,26 471,26 471,26 472,26 472,26 472,26 472,26 472,26 472,26 472,26 472,26 472,26 473,26 473,26 473,26 473,26 473,26 473,26 473,26 474,26 474,26 474,26 475,26 475,26 475,26 476,26 476,26 476,26 477,26 477,26 477,26 477,26 477,26 477,26 477,26 477,26 477,26 478,27 478,27 478,27 478,27 478,27 478,27 478,27 478,27 478,27 478,27 478,27 478,27 479,27 478,27 478,27 479,27 479,27 479,27 479,27 479,27 480,28 480,28 480,28 480,28 480,28 481,28 481,28 481,28 481,28 482,28 482,28 482,29 482,28 482,28 482,28 482,28 482,28 482,28 482,28 483,28 483,28 483,28 483,28 483,28 483,28 483,28 483,28 483,28 483,28 483,28 483,28 483,28 483,28 483,28 483,28 483,28 483,28 484,28 484,28 484,28 484,28 484,29 484,29 484,29 484,29 484,28 484,28 484,28 484,28 484,28 484,28 484,28 484,28 485,28 485,28 485,28 485,28 485,28 485,28 486,28 486,28 486,28 486,28 486,28 486,28 486,28 486,28 486,28 486,28 486,28 486,28 486,28 486,28 486,28 487,28 487,28 487,28 487,28 487,28 487,28 487,28 487,28 487,29 487,29 487,29 488,28 488,28 488,28 488,28 488,29 488,29 488,29 488,29 488,29 488,28 488,29 488,29 488,29 488,29 488,29 488,29 488,29 488,29 488,29 489,29 489,29 489,29 489,29 489,29 489,29 489,29 489,29 489,29 489,29 489,29 489,29 489,29 490,29 490,29 490,29 490,29 490,29 490,29 490,29 490,29 490,29 490,29 490,29 490,30 490,30 490,30 490,30 490,30 491,30 491,30 491,30 491,30 491,30 491,30 491,30 491,30 491,30 491,30 491,30 491,30 491,30 491,30 491,30 491,30 491,30 491,30 491,31 491,31 491,31 491,31 492,31 492,31 492,31 492,31 492,31 492,31 492,31 492,31 492,31 492,31 491,32 491,32 491,32 492,33 493,33 493,33 494,33 495,33 495,33 495,33 495,33 496,33 496,34 496,34 496,34 497,34 497,34 497,34 498,34 498,34 498,35 498,35 498,35 498,35 499,35 499,35 499,36 499,36 499,36 499,36 499,36 499,37 499,37 499,37 499,37 499,37 500,38 500,38 500,38 500,38 500,39 500,39 500,39 500,39 500,40 499,41 498,44 498,46 499,47 499,48 498,48 497,49 497,49 497,48 496,49 496,49 494,49 494,49 493,49 493,49 493,49 492,49 492,48 492,48 492,49 491,49 492,49 492,49 492,50 492,50 491,50 491,50 491,50 490,50 490,50 490,50 489,50 487,50 486,50 486,50 486,50 485,50 485,51 485,51 484,50 484,50 484,50 484,50 484,50 483,50 482,51 482,51 481,52 481,52 481,52 479,54 477,54 476,54 475,54 475,54 473,54 472,54 471,54 469,54 467,54 467,54 466,54 463,54 459,55 456,56 455,57 454,57 453,58 451,58 451,58 451,59 452,60 452,60 452,60 452,60 453,60 453,61 453,61 453,61 454,62 454,62 456,64 456,64 457,64 457,64 458,64 459,65 461,65 461,65 462,65 462,65 464,65 464,65 465,65 466,65 466,65 466,65 466,66 466,66 467,68 467,69 468,69 468,70 468,70 468,70 468,71 468,72 467,72 467,72 467,74 466,74 466,74 466,74 466,74 467,75 467,75 467,75 467,75 467,76 467,76 467,76 467,77 467,77 467,77 467,77 467,78 467,78 467,78 467,79 467,79 467,79 467,80 467,80 468,81 468,81 468,81 468,81 468,81 468,81 468,81 468,81 468,81 468,82 468,82 468,82 468,82 468,83 468,83 469,83 469,83 469,83 469,84 469,84 469,84 469,84 469,84 469,84 469,84 469,85 470,85 470,86 470,86 470,86 470,86 470,86 471,85 471,85 472,85 472,85 472,85 472,85 472,85 472,85 472,85 472,85 472,86 473,87 474,87 474,87 475,86 475,86 475,85 476,85 476,85 476,85 476,85 477,85 477,85 477,84 477,84 477,85 477,85 478,85 478,85 478,85 479,86 479,86 479,86 479,86 479,86 479,86 479,86 479,87 480,87 480,87 480,88 480,88 481,88 481,88 481,88 481,88 481,88 482,89 482,89 482,89 482,89 482,89 483,89 483,90 483,90 484,91 484,91 484,91 484,91 486,92 488,93 488,93 489,92 489,92 490,93 490,93 491,93 491,94 492,94 492,94 492,94 493,94 493,94 493,94 493,94 493,94 493,94 494,95 495,95 495,95 495,95 495,95 495,95 495,96 495,96 495,96 495,96 495,96 496,96 496,96 497,96 497,96 497,96 499,97 499,98 499,98 500,98 500,98 500,98 499,98 498,99 496,100 496,100 495,101 495,101 495,101 496,101 496,101 496,101 496,101 497,102 497,102 497,103 498,103 498,103 498,103 498,103 498,103 498,103 498,104 498,104 497,104 497,104 497,104 498,104 498,105 498,105 498,105 498,105 498,105 498,105 498,105 498,105 498,105 498,105 498,105 498,105 498,106 498,106 498,106 498,106 498,106 498,106 498,106 498,106 498,106 498,106 498,106 498,106 498,106 498,106 498,107 498,107 498,107 498,107 498,107 498,107 498,107 497,107 497,107 497,107 497,107 497,107 497,107 497,107 498,107 498,107 498,107 496,108 495,108 493,109 490,110 490,110 490,110 490,109 488,109 488,109 487,109 487,109 486,109 485,109 485,109 485,109 484,109 484,109 483,109 482,109 482,109 482,109 482,109 481,109 481,109 480,109 479,109 479,109 479,109 479,109 479,109 478,110 478,110 478,110 478,110 477,110 476,110 476,110 476,110 476,110 476,109 475,108 475,108 475,108 474,108 474,107 474,107 474,107 473,107 473,107 473,106 472,106 472,106 472,106 472,106 472,106 472,106 472,105 472,105 472,105 472,105 472,105 471,105 470,106 470,106 470,106 470,106 470,106 470,106 468,107 468,107 468,107 468,107 468,107 467,107 467,107 467,107 467,107 467,107 466,107 466,108 466,108 466,108 465,108 465,108 465,109 465,109 465,109 465,109 464,109 464,109 465,109 464,109 464,109 464,109 464,110 464,110 464,110 464,110 464,110 464,110 464,110 463,110 463,110 463,110 462,111 462,111 462,111 462,111 462,111 462,111 461,111 458,112 458,112 458,113 458,113 459,113 458,113 456,114 457,115 455,116 455,117 455,117 455,117 456,117 457,117 457,117 457,117 457,117 457,117 457,117 457,117 457,117 455,118 454,118 455,119 455,119 455,119 455,120 455,120 455,120 455,120 454,121 454,121 454,121 454,122 455,122 455,122 456,122 456,122 454,123 454,123 454,123 454,123 454,124 454,124 453,124 451,124 451,124 451,126 451,126 453,127 455,126 455,127 456,127 456,127 456,128 457,128 457,128 457,129 458,130 458,131 459,132 459,132 459,132 463,134 464,135 464,135 464,135 465,135 465,135 465,135 465,135 466,136 465,137 465,137 464,137 464,136 464,136 463,136 463,136 463,136 462,136 462,136 462,136 461,136 460,136 460,136 459,136 458,136 458,136 458,136 457,136 457,136 457,135 457,135 457,135 457,134 457,134 457,133 457,133 457,133 454,134 454,134 454,134 454,133 453,133 453,133 453,132 451,132 449,132 449,132 449,132 449,132 449,132 449,131 450,130 450,130 451,130 451,130 450,130 449,129 449,128 448,128 448,128 446,129 446,129 446,129 446,129 445,129 444,130 444,130 444,129 444,129 445,129 445,129 442,129 442,129 442,129 442,130 442,130 442,130 442,130 442,130 441,130 440,130 440,131 439,132 438,132 438,134 438,134 438,134 438,134 437,134 436,135 435,135 434,135 433,135 433,136 432,136 432,136 432,136 432,136 432,136 432,137 432,137 432,137 432,137 430,138 430,138 429,139 429,139 429,140 429,140 428,140 427,140 427,141 427,141 427,142 426,142 426,143 427,143 427,144 423,143 418,142 416,142 415,142 415,142 414,142 413,142 410,142 409,141 409,141 408,141 407,141 407,141 407,141 407,141 406,141 407,141 407,143 406,144 404,145 404,145 405,145 405,145 404,146 403,146 403,146 402,146 402,147 401,147 401,148 401,148 401,148 401,148 401,148 401,148 401,148 401,149 401,149 401,149 401,149 401,149 401,149 401,149 401,149 401,150 401,150 401,150 401,150 401,151 402,151 402,151 402,151 402,151 402,151 402,151 402,152 402,152 402,152 402,152 402,152 402,152 402,152 402,152 402,152 402,152 402,152 402,152 402,152 402,152 402,153 402,153 402,153 402,153 402,153 403,153 400,154 400,154 400,153 400,153 399,153 398,152 398,152 398,152 398,153 397,153 397,154 397,154 396,154 396,155 396,155 396,155 396,155 396,156 396,156 395,156 395,156 395,156 395,156 395,156 395,157 395,157 395,158 395,158 395,158 395,158 395,159 395,160 395,160 394,160 394,160 394,160 394,160 393,160 393,160 393,160 392,161 392,161 392,161 392,161 392,162 392,162 391,162 390,162 390,163 390,162 389,162 388,163 387,163 387,162 387,162 387,162 387,162 387,161 387,161 385,162 385,162 384,162 385,162 385,162 385,161 385,161 385,160 386,160 383,159 382,160 382,160 382,160 382,159 381,159 381,159 380,159 380,159 380,159 378,157 378,157 378,157 377,156 374,157 374,157 374,157 374,157 374,157 375,157 375,157 374,156 374,157 374,157 373,157 373,157 373,157 373,157 373,157 372,158 372,158 372,158 372,158 372,158 372,159 373,158 374,158 375,159 375,159 374,159 374,159 374,159 374,159 374,159 374,159 373,160 373,160 373,160 372,160 371,160 371,160 371,160 371,160 371,160 371,160 371,161 371,161 371,161 370,161 370,161 371,161 371,161 371,161 371,161 370,162 370,162 370,162 370,162 370,163 370,163 370,163 370,163 370,163 370,163 368,163 368,163 367,163 367,163 367,163 367,163 366,163 366,163 366,164 367,164 367,164 367,165 367,165 367,165 368,165 368,165 368,165 368,165 368,166 368,166 368,166 368,168 368,169 368,169 369,169 366,170 366,170 367,171 365,170 365,171 364,171 363,171 363,172 362,172 362,173 361,174 360,174 359,174 359,173 360,173 360,173 360,172 360,172 360,172 360,172 360,172 360,172 360,172 360,172 360,172 360,172 360,172 359,172 359,171 359,171 359,171 359,171 359,171 359,171 357,171 357,171 356,171 357,168 357,168 356,168 355,168 354,167 354,167 353,166 354,166 354,166 354,166 354,166 353,165 353,165 353,166 352,166 352,166 351,165 351,165 351,164 350,164 350,164 350,164 350,164 350,164 350,164 349,164 349,164 348,164 348,164 348,164 348,164 348,164 348,164 348,164 348,164 348,164 348,164 348,165 348,165 348,165 348,165 347,165 347,165 347,165 347,165 347,165 347,165 347,165 346,165 346,165 345,165 345,166 343,166 343,166 343,166 344,164 343,164 342,165 339,165 339,165 339,165 337,165 337,165 336,165 336,165 336,165 334,165 334,165 330,165 330,165 329,165 329,165 329,165 328,165 328,165 328,165 328,165 327,165 327,165 327,165 327,165 327,165 327,165 327,165 327,165 327,165 327,165 326,165 326,165 326,166 326,166 326,166 326,166 326,166 326,166 326,166 325,166 325,166 325,166 325,167 324,167 324,167 324,167 323,167 322,168 322,168 322,168 322,168 322,168 321,168 321,168 321,168 321,168 321,168 320,168 320,168 320,168 320,168 320,167 320,167 319,167 319,167 319,167 318,166 318,166 318,166 317,166 317,166 316,165 316,165 316,165 316,165 315,165 315,165 315,165 315,165 315,165 315,164 314,164 314,164 314,164 314,164 314,164 314,164 313,166 313,166 314,166 314,166 314,166 313,166 313,166 313,166 313,167 313,167 313,167 312,167 311,167 310,167 310,167 309,167 309,167 308,167 307,167 307,167 307,167 307,166 307,166 307,166 306,166 306,166 306,166 306,164 306,164 306,164 306,164 306,164 306,164 306,164 305,164 305,164 305,164 305,164 305,164 305,164 305,164 304,164 304,164 304,164 304,164 304,163 304,163 304,163 304,163 304,163 304,163 303,163 303,163 303,163 303,163 302,163 302,163 302,163 302,163 301,163 301,163 300,163 300,163 300,163 300,163 300,163 300,163 300,163 300,163 300,163 299,163 299,163 299,163 299,163 299,163 299,163 299,163 299,163 298,163 298,163 298,163 298,163 298,162 298,162 298,162 298,162 298,162 297,162 297,162 297,162 297,162 297,162 297,162 297,162 297,162 297,162 297,162 297,162 296,161 295,161 295,161 295,161 294,161 294,161 294,161 294,161 294,161 294,161 294,161 293,161 293,161 293,161 293,161 292,160 291,160 291,160 290,159 290,158 290,158 290,158 289,157 289,157 289,157 289,157 289,157 289,157 289,157 289,157 289,156 289,156 289,156 289,156 289,156 289,156 289,156 289,156 288,156 288,156 288,156 288,156 288,156 288,156 288,155 288,155 288,155 288,155 288,155 288,154 288,154 288,154 288,154 288,154 288,154 288,153 288,153 287,153 287,153 287,153 287,153 287,153 287,152 287,152 287,152 287,152 286,151 285,151 285,151 284,151 284,151 282,151 282,151 282,151 282,151 280,152 279,152 279,152 279,152 278,152 278,152 278,152 277,151 277,151 277,151 277,151 276,151 275,152 274,152 270,152 271,154 271,154 272,154 272,153 272,153 273,153 273,153 273,153 273,153 273,153 274,153 275,154 275,154 274,154 274,155 274,155 275,156 275,156 274,157 277,161 276,161 275,161 276,162 276,162 276,162 276,162 276,161 276,161 277,161 277,161 277,162 277,162 276,163 276,163 276,163 275,163 275,163 275,163 275,163 275,163 274,164 274,164 274,164 273,164 273,164 273,164 273,164 273,164 273,165 273,165 273,165 272,165 272,165 272,165 272,165 272,165 272,165 272,165 272,165 272,165 272,165 272,165 272,165 272,166 272,166 272,166 272,166 272,166 272,166 272,166 271,166 271,166 271,166 271,166 270,166 270,166 270,166 270,166 270,166 270,166 270,166 270,166 270,166 270,166 270,166 270,166 270,166 270,166 270,166 269,166 269,166 269,166 269,166 269,166 269,166 269,166 269,166 269,166 269,166 269,166 269,167 269,167 269,167 269,166 268,166 268,167 268,167 268,167 268,167 268,167 268,167 267,167 267,167 267,167 267,167 266,167 266,167 266,167 266,167 266,167 266,167 266,167 266,167 266,167 266,167 265,167 265,167 265,168 265,168 265,168 265,168 265,168 265,168 265,168 265,168 266,170 263,171 262,169 261,170 260,170 259,170 259,171 259,172 259,172 259,172 263,177 262,177 262,177 262,177 262,177 262,177 261,177 261,177 261,177 260,177 260,178 260,178 260,178 260,178 260,178 260,178 260,178 260,178 260,178 259,178 259,178 259,178 259,178 259,178 259,178 258,178 258,178 258,178 258,178 257,178 257,179 257,180 257,180 257,181 257,182 257,183 258,184 258,184 258,185 259,186 259,186 259,186 259,186 259,186 259,186 259,186 259,186 259,188 259,189 259,189 259,189 260,189 260,189 260,189 260,190 260,190 261,191 261,191 261,191 261,191 259,191 259,191 259,192 259,192 258,192 257,192 257,192 255,192 254,192 254,192 254,192 254,192 254,193 254,193 254,193 253,193 251,194 249,195 249,195 249,195 248,195 248,196 248,196 248,196 248,196 247,196 247,196 247,196 247,196 246,196 246,196 246,196 246,196 246,196 246,197 245,197 245,197 245,197 245,197 243,197 243,197 242,198 242,198 241,198 241,198 241,199 241,199 241,199 241,199 240,199 240,199 240,199 240,200 240,200 239,200 239,200 239,200 239,200 239,200 239,200 239,201 239,201 239,201 238,201 238,201 238,201 237,202 237,202 237,202 237,202 236,201 236,201 236,201 235,201 235,201 235,201 235,200 235,200 234,199 234,199 234,199 234,199 234,199 233,199 233,199 233,198 233,198 234,198 235,197 235,197 235,197 235,197 234,197 234,197 234,197 236,196 236,196 235,196 235,196 235,196 235,196 235,196 235,196 235,196 234,195 234,195 233,194 233,194 233,194 233,194 233,194 233,193 233,193 233,193 232,193 231,192 231,191 230,190 230,190 230,190 230,190 230,189 230,189 230,189 229,187 229,187 229,187 229,187 228,187 228,187 228,187 228,187 228,187 226,187 225,187 225,187 224,187 223,187 223,187 222,187 222,187 221,187 221,187 221,187 220,187 220,187 219,187 219,187 218,186 217,186 215,186 215,186 215,186 215,186 214,186 214,186 214,186 214,186 214,186 214,186 214,186 214,186 214,186 214,186 214,185 214,185 214,185 214,185 215,185 215,185 215,185 215,185 215,185 215,185 215,185 215,185 215,185 215,185 215,185 215,185 215,185 216,185 216,185 216,184 216,184 216,184 216,184 216,184 216,184 216,184 216,184 216,184 216,184 216,184 216,184 216,184 216,183 216,183 217,183 216,183 216,183 216,183 216,183 216,183 216,183 216,183 216,183 216,183 216,183 216,183 216,183 216,183 216,183 216,183 217,183 217,183 217,183 217,183 217,183 217,183 217,183 217,183 217,183 217,183 217,183 217,182 217,182 217,182 217,182 217,182 217,182 217,182 217,182 217,182 217,182 217,182 217,182 217,182 217,182 217,182 218,182 218,182 218,182 218,182 218,182 218,182 217,182 217,182 217,181 216,180 216,180 216,180 216,180 215,180 215,180 216,179 216,179 216,179 217,179 217,178 217,177 217,176 216,176 216,177 215,177 215,177 215,177 214,177 214,177 214,177 214,177 214,176 214,176 213,176 213,176 213,176 213,176 213,176 212,175 211,175 211,175 210,174 210,174 210,174 210,174 207,173 206,173 205,172 203,171 203,171 203,171 200,171 200,171 200,173 200,173 200,173 200,173 199,172 198,172 197,172 196,172 196,171 194,171 192,170 192,170 191,169 191,169 191,169 190,169 189,169 188,169 188,169 187,169 187,169 187,169 187,169 187,169 187,170 186,170 186,170 186,170 185,171 185,171 184,172 184,172 184,172 184,172 184,172 184,172 184,172 184,172 183,172 182,172 182,172 181,172 181,172 181,171 181,171 181,171 180,171 180,171 179,172 177,172 177,173 177,173 176,173 176,173 176,173 175,173 174,174 174,174 174,174 174,174 174,174 173,174 173,174 171,175 170,175 169,175 166,176 166,176 166,176 166,176 166,176 165,176 165,176 164,175 164,175 164,175 163,174 163,174 163,174 163,174 163,174 163,174 161,174 160,174 160,174 159,174 157,174 155,174 154,174 154,174 153,173 153,173 152,173 152,173 152,173 152,173 151,173 150,173 150,173 149,173 147,174 147,174 147,174 147,173 147,173 146,173 146,173 146,173 146,173 145,173 145,173 145,173 145,172 145,172 145,172 145,172 145,172 145,172 145,172 145,172 145,172 145,172 145,172 145,172 145,172 145,172 145,171 145,171 145,171 145,171 145,171 145,171 145,171 145,171 145,171 145,171 145,171 145,171 145,171 145,171 145,171 145,171 145,171 145,170 145,170 145,170 145,170 145,170 145,170 144,170 144,170 144,170 145,170 145,170 144,170 144,170 144,170 144,170 144,170 144,170 144,170 144,169 144,169 144,169 144,169 144,169 144,169 144,169 144,169 144,169 144,169 144,168 144,168 144,168 144,168 144,168 144,168 144,168 142,168 141,168 141,169 141,169 141,169 141,169 139,171 139,172 139,172 138,172 137,173 136,174 136,174 135,174 133,175 133,175 133,175 133,174 133,174 133,174 131,174 129,174 129,174 129,174 128,174 128,173 127,173 127,173 127,173 127,173 126,174 124,175 124,175 124,175 123,175 123,175 123,175 122,175 122,175 122,175 122,175 122,175 121,174 121,174 121,175 120,175 119,175 118,175 118,175 118,175 118,174 118,174 117,174 117,174 117,173 116,173 116,173 115,173 115,173 114,173 114,174 114,174 114,174 114,174 114,174 113,174 113,174 113,174 113,174 113,174 113,175 113,175 113,175 113,175 113,175 113,175 112,175 112,175 112,175 112,175 112,175 112,175 112,175 112,175 112,175 112,175 112,175 112,175 112,175 111,175 111,175 111,175 111,175 111,175 111,175 111,175 111,175 111,175 111,175 111,175 111,175 110,175 110,176 110,176 109,176 109,176 109,176 109,176 109,176 109,176 108,176 108,177 108,177 108,177 108,177 108,177 107,177 107,177 107,177 107,177 107,177 107,177 106,177 106,177 106,177 105,176 105,176 104,176 104,175 104,175 104,175 103,175 101,172 100,173 98,173 95,174 94,174 94,174 94,174 94,174 92,174 91,174 91,174 91,174 89,174 88,174 88,174 88,174 87,174 88,176 88,176 88,176 88,176 88,176 88,176 88,178 88,178 88,178 88,179 88,179 88,179 88,180 88,180 88,180 88,180 89,181 89,182 89,182 89,182 89,183 89,183 89,184 89,184 89,184 89,184 89,185 89,186 89,186 89,186 89,186 89,186 89,186 89,186 89,186 89,186 89,186 89,186 89,186 89,187 89,188 89,189 90,189 90,189 90,189 90,189 90,189 90,189 90,189 90,189 90,190 90,190 90,190 90,190 90,190 90,190 90,190 89,191 88,191 88,191 87,191 87,191 87,191 87,191 86,191 85,191 85,191 85,191 84,191 84,191 84,191 82,191 81,191 81,191 80,191 80,191 79,191 78,191 78,191 78,191 77,191 77,191 77,191 77,191 77,191 77,191 77,191 76,191 76,191 76,191 76,191 76,191 76,191 76,191 76,191 76,191 76,191 76,191 76,191 76,191 76,191 76,191 76,192 76,192 76,192 75,192 75,192 75,192 75,192 75,192 75,192 75,192 75,192 75,192 75,192 75,192 75,192 75,192 75,192 75,192 75,192 75,192 75,192 74,192 74,192 74,192 74,192 74,192 74,192 74,192 74,192 74,192 74,192 74,192 74,192 74,192 74,192 74,192 74,192 74,192 73,192 73,192 73,192 73,192 73,192 73,192 73,192 73,192 73,192 73,192 72,192 72,192 72,192 72,192 72,192 72,192 72,192 71,192 71,192 72,192 72,192 72,192 72,192 72,192 72,192 71,192 71,192 71,192 71,192 71,192 71,192 71,192 71,192 70,192 70,193 70,193 70,193 70,192 70,192 70,192 70,192 70,192 70,192 70,192 70,192 70,192 69,192 69,192 69,192 69,192 69,192 69,192 69,192 69,192 69,192 69,192 69,192 69,192 69,192 69,192 69,192 69,192 68,192 68,192 68,192 68,192 68,192 68,192 68,192 68,192 68,192 68,193 68,193 67,193 67,193 67,193 67,193 67,193 67,193 67,193 67,193 67,193 67,193 67,193 67,193 67,193 67,193 67,193 66,193 66,193 66,193 66,193 66,193 66,193 66,193 66,193 66,193 66,193 66,193 66,193 66,193 66,193 66,193 66,193 66,193 66,193 66,193 66,193 66,193 65,193 65,193 65,193 65,193 65,193 65,193 65,193 65,193 65,193 65,193 65,193 65,193 65,193 65,193 65,193 65,193 64,193 64,193 64,193 64,193 64,193 64,193 64,192 64,192 64,192 64,192 64,192 64,192 63,192 63,192 63,192 63,192 63,192 63,192 63,192 63,192 63,192 63,192 63,192 63,192 63,192 63,192 63,192 63,192 63,192 63,192 63,192 62,192 62,192 62,192 62,192 62,192 62,192 62,192 62,191 62,191 62,191 62,191 62,191 62,191 62,191 62,191 62,191 62,191 62,191 62,191 61,191 61,191 61,191 61,191 61,191 61,191 61,191 61,191 61,191 61,191 61,191 60,191 60,191 60,191 60,191 60,191 60,191 60,191 60,191 60,191 60,191 59,191 59,190 59,190 59,190 59,190 59,190 59,190 59,190 59,190 59,190 59,190 59,190 59,189 59,189 59,189 59,189 60,189 60,189 60,189 60,189 60,189 60,189 60,189 60,189 60,189 60,189 60,189 60,189 60,189 60,189 61,189 61,189 61,188 61,188 61,188 61,188 62,188 62,188 62,187 62,187 62,187 62,187 62,187 62,187 62,187 62,187 62,187 62,187 62,187 62,187 62,187 62,186 62,186 62,186 63,186 63,186 63,186 63,186 63,186 63,186 63,186 63,186 63,186 63,186 63,186 63,186 62,186 62,186 62,186 62,186 62,185 62,185 62,185 61,185 61,185 61,185 61,185 61,185 60,186 60,186 60,186 59,186 59,186 59,186 58,187 58,187 58,187 57,187 57,187 57,187 56,188 56,188 56,188 56,187 56,187 56,187 56,187 55,187 55,187 55,187 55,187 55,187 54,187 54,187 54,187 54,187 53,186 53,186 53,186 52,186 52,186 52,186 52,186 52,186 52,186 52,186 51,185 51,185 51,185 51,185 51,185 51,185 51,185 51,185 50,185 50,185 50,186 50,186 50,186 50,186 49,186 49,186 49,186 49,186 49,186 49,186 49,186 49,186 49,186 49,186 48,186 48,187 48,187 48,187 48,187 48,187 48,187 48,187 47,187 47,187 47,187 47,187 47,187 47,187 47,187 46,187 46,188 46,188 46,188 46,188 46,188 46,188 46,188 45,188 45,188 45,188 45,188 45,188 45,188 45,188 45,188 45,189 45,189 45,189 45,189 44,189 44,189 44,189 44,189 43,189 43,189 43,189 43,189 43,190 43,190 43,190 43,190 43,190 43,190 42,190 42,190 42,190 42,190 42,190 42,190 42,190 42,190 42,191 42,191 42,191 42,191 42,191 42,191 42,191 42,191 42,191 42,191 42,191 42,191 42,191 42,191 42,191 42,191 42,191 42,191 42,191 42,192 42,192 42,192 42,192 43,192 43,192 43,192 43,192 43,192 43,192 43,192 43,192 43,192 43,192 43,192 43,192 43,193 43,193 43,193 43,193 43,193 43,193 43,193 43,193 43,193 43,193 43,193 43,194 43,194 43,194 43,194 43,194 43,194 43,194 43,194 43,194 43,194 43,194 43,194 43,194 43,194 43,194 43,194 43,194 43,194 43,194 42,195 41,195 41,195 40,195 40,195 40,195 39,195 39,195 38,195 38,195 36,195 35,194 35,194 34,194 33,194 32,194 31,194 31,194 30,193 29,193 29,193 29,193 28,193 28,193 28,193 28,193 28,193 27,192 27,192 27,192 26,192 26,191 26,191 25,191 25,191 24,190 24,190 24,190 23,190 23,190 23,190 23,190 23,190 22,190 22,190 22,189 22,189 22,189 23,189 23,189 23,189 22,189 22,188 22,188 22,188 22,188 22,188 22,187 22,187 22,187 23,187 23,186 23,186 24,186 24,186 24,186 24,186 24,186 24,185 24,185 24,185 24,185 25,185 25,185 25,184 25,184 25,184 25,184 25,184 25,184 25,184 26,184 26,184 26,184 27,183 27,183 27,183 26,183 26,183 26,183 26,183 26,182 26,182 26,182 26,182 26,182 26,182 26,182 26,182 26,182 26,182 26,181 26,181 26,181 26,181 26,180 26,181 26,181 26,181 25,181 25,181 21,181 22,179 22,178 22,178 22,177 23,177 23,176 23,176 23,175 23,175 23,175 23,175 23,175 22,175 22,175 20,175 19,174 19,174 19,174 19,174 19,173 19,173 19,173 19,173 18,174 18,174 17,174 17,173 17,173 17,173 18,172 18,172 18,172 18,172 18,171 18,171 17,171 17,171 17,171 16,170 15,170 14,170 14,171 14,170 14,169 14,169 14,169 14,169 13,169 13,169 13,168 13,168 12,168 12,168 12,168 12,168 13,168 13,168 13,168 13,168 13,168 14,168 14,168 14,168 15,168 15,168 15,168 15,167 15,167 15,167 15,167 14,166 14,166 15,166 15,166 15,166 15,166 15,166 15,166 15,166 16,166 16,166 16,166 16,166 16,166 15,166 15,165 15,165 15,165 15,165 14,165 14,165 13,165 13,165 12,165 12,165 12,165 11,164 11,164 10,164 9,164 9,164 9,165 8,165 8,165 7,165 7,165 6,165 5,164 5,164 4,164 4,164 3,165 2,165 1,165 1,165 1,165 1,164 1,164 0,163 0,163 0,162 0,162 0,161 0,161 0,161 0,161 1,161 1,161 1,161 2,161 2,161 2,161 2,161 3,161 3,160 4,160 4,160 4,160 4,160 5,160 5,160 5,160 5,160 5,160 5,160 5,160 6,160 6,160 6,160 7,160 7,160 7,160 7,160 7,160 8,160 8,160 8,160 8,160 8,160 8,160 8,160 7,160 7,161 7,161 7,161 7,161 8,161 8,161 8,161 8,161 8,161 9,161 9,161 9,161 9,161 9,161 9,161 9,162 10,162 10,162 10,162 10,162 10,162 10,162 10,162 10,161 10,161 10,161 11,161 11,161 11,161 11,161 11,161 11,161 11,161 12,161 12,161 12,161 12,161 12,161 12,161 13,161 13,161 13,161 13,161 14,161 14,161 14,161 15,161 15,161 15,161 16,161 16,161 16,161 16,161 16,161 16,161 17,161 17,161 17,161 17,161 18,162 18,162 18,162 17,162 17,162 17,162 17,162 17,162 17,162 18,162 18,162 18,162 18,162 19,162 19,162 19,162 19,162 19,161 19,161 19,161 19,161 19,161 19,161 19,161 19,161 19,161 19,161 19,161 19,161 19,161 19,160 19,160 19,160 20,160 20,160 20,160 20,160 20,160 20,160 20,160 20,160 20,160 20,160 21,159 21,159 21,159 21,159 21,159 21,159 21,159 22,159 22,159 22,159 22,159 22,159 22,159 23,159 23,159 23,159 23,159 24,159 24,158 24,158 24,158 24,158 25,158 25,158 26,158 26,158 26,157 26,157 26,157 26,157 26,157 26,157 26,156 26,156 26,156 26,156 26,156 26,156 26,156 26,156 26,156 26,156 26,156 26,156 26,155 27,155 27,155 25,154 25,154 25,154 25,154 25,154 25,153 25,153 25,152 25,151 24,151 24,150 24,150 25,150 27,149 25,148 22,147 20,147 18,148 17,148 17,147 20,145 20,145 19,145 19,144 16,145 15,142 15,142 16,142 17,142 17,142 17,142 17,142 17,141 17,140 17,140 17,140 17,140 17,140 19,140 20,140 20,140 20,140 20,140 20,140 20,140 21,140 21,140 22,140 22,140 22,140 22,140 22,140 22,140 23,140 24,140 24,140 25,140 25,140 25,140 26,140 27,140 28,140 29,140 30,139 34,138 39,137 40,137 42,137 44,136 45,136 46,136 47,136 48,136 48,135 49,135 49,135 51,135 51,135 52,135 54,134 54,134 55,134 55,134 55,134 56,134 56,134 56,134 56,134 56,134 57,134 57,134 57,134 58,134 58,134 58,134 59,135 59,135 59,135 59,134 60,134 60,133 60,133 60,133 61,133 61,133 62,133 63,133 64,133 63,133 63,134 63,134 63,135 62,135 62,135 61,136 61,136 61,136 60,137 60,137 60,138 62,138 62,138 62,138 62,138 62,138 62,138 62,138 62,138 62,138 62,138 62,138 62,138 62,138 63,138 63,138 62,138 63,138 63,138 63,138 63,138 64,137 66,137 66,137 66,136 66,136 67,136 67,136 67,136 68,136 68,136 69,136 70,136 70,136 71,135 71,135 72,135 72,135 73,134 74,134 75,134 75,134 75,134 75,134 77,134 77,134 78,133 78,133 79,133 79,133 79,133 80,133 81,133 81,133 81,132 80,131 80,130 80,129 80,128 80,128 78,128 77,128 77,127 76,128 76,128 76,128 76,128 78,127 78,127 79,126 79,126 79,126 79,126 79,126 79,126 80,126 80,126 81,126 81,125 82,125 83,125 83,125 83,125 83,125 83,124 83,124 83,124 83,124 84,124 84,124 84,124 84,123 84,123 84,123 85,123 85,122 85,122 85,122 85,122 84,122 84,122 83,122 83,123 82,123 82,123 82,123 81,123 81,123 81,123 80,123 80,123 80,123 80,123 80,123 79,122 79,121 79,121 76,121 76,121 76,121 76,121 75,121 75,121 75,121 75,121 75,121 75,121 75,122 75,122 75,122 75,122 69,122 69,122 69,122 68,122 68,122 68,121 68,121 68,121 68,121 68,121 68,121 69,121 69,121 69,120 69,120 69,120 69,120 69,120 68,119 69,119 70,119 70,119 70,119 71,119 71,119 71,119 71,118 71,118 71,118 71,118 70,118 70,118 70,118 69,118 69,118 69,118 69,118 69,117 69,117 69,117 69,117 69,116 69,116 69,116 69,116 69,115 69,115 69,115 69,115 69,115 69,114 69,114 69,114 69,114 69,114 69,113 69,113 69,113 69,113 68,112 68,113 68,113 67,113 67,113 67,112 66,112 66,112 66,113 66,113 65,113 65,113 65,113 64,113 64,113 64,113 63,113 63,113 63,113 63,113 63,113 63,113 63,112 63,112 63,112 63,112 63,112 64,112 64,112 64,112 64,112 64,111 64,111 64,111 65,111 65,110 65,110 65,110 65,110 65,109 65,109 65,109 65,109 65,109 65,108 68,108 68,108 68,108 68,108 68,108 68,108 68,108 68,108 68,107 68,107 68,107 68,107 68,107 68,106 68,106 68,106 68,106 68,106 68,105 68,105 67,105 67,105 67,104 68,104 68,104 68,104 68,104 68,104 68,104 69,103 70,103 72,103 72,103 74,103 74,102 76,102 76,102 76,101 76,100 76,100 79,100 83,99 84,99 85,99 85,99 87,99 87,99 89,99 90,99 90,99 90,99 90,98 90,98 90,98 90,97 90,97 92,96 92,96 93,96 95,95 95,95 96,95 96,94 95,93 96,93 97,93 97,93 97,93 98,93 99,93 99,93 100,93 101,93 101,93 102,93 102,93 103,93 104,93 104,94 105,94 105,94 106,94" id="5707" class="canton" fill="steelblue" stroke-width="1" stroke="white" geotype="canton" geoname="Faulquemont" code_insee="5707" code_departement="57" nom_departement="Moselle" code_region="44" nom_region="Grand-Est"/></svg>