<?xml version="1.0" encoding="utf-8"?>
<svg version="1.1" id="svgmap" xmlns="http://www.w3.org/2000/svg" xmlns:xlink="http://www.w3.org/1999/xlink" x="0px" y="0px" width="100%" height="100%" viewBox="0 0 478 500">
<polygon points="61,46 83,48 99,49 124,48 152,47 162,48 174,51 269,0 302,2 317,4 381,26 421,99 461,183 478,232 461,236 432,250 373,311 337,333 317,352 306,365 268,411 253,421 238,430 205,456 199,459 187,464 154,476 117,500 87,468 63,444 63,440 66,438 64,436 62,436 49,437 45,436 46,434 47,432 60,422 46,410 49,408 59,399 62,395 51,388 51,386 61,379 57,375 55,371 55,370 67,360 83,349 86,342 87,336 89,327 52,292 50,265 41,255 36,254 33,249 30,245 29,234 26,229 17,219 13,211 9,198 2,185 0,174 2,163 11,160 10,156 18,158 70,157 70,140 72,133 72,121 71,118 64,110 65,104 59,97 51,86 54,76 57,71 52,63 57,59 57,57 65,56 61,46" id="5814" class="canton" fill="steelblue" stroke-width="1" stroke="white" geotype="canton" geoname="Nevers-4" code_insee="5814" code_departement="58" nom_departement="Nièvre" code_region="27" nom_region="Bourgogne-Franche-Comté"/></svg>