<?xml version="1.0" encoding="utf-8"?>
<svg version="1.1" id="svgmap" xmlns="http://www.w3.org/2000/svg" xmlns:xlink="http://www.w3.org/1999/xlink" x="0px" y="0px" width="100%" height="100%" viewBox="0 0 500 405">
<polygon points="137,20 137,20 138,20 138,20 139,19 139,20 141,20 143,20 143,20 146,20 150,20 152,20 152,20 154,22 155,22 156,23 157,22 157,23 160,24 161,24 162,25 167,26 169,27 171,28 172,28 172,29 173,29 173,29 175,30 181,32 186,34 187,33 186,33 186,32 186,32 187,32 188,32 191,31 191,31 193,31 194,30 193,30 193,30 194,29 195,29 195,29 195,28 195,28 195,28 195,28 198,26 201,24 202,24 203,24 205,24 207,23 208,23 213,23 213,23 217,22 224,20 226,19 228,18 229,17 229,16 230,16 231,13 235,11 238,9 239,9 239,9 241,9 242,8 242,8 243,8 244,7 244,6 244,6 245,6 245,5 245,5 245,4 246,4 246,3 247,3 247,3 249,2 249,3 249,3 249,3 250,2 252,2 253,2 255,1 255,1 260,1 265,0 265,0 268,0 268,0 268,0 269,0 270,2 271,1 271,1 272,1 272,2 273,2 275,3 276,3 276,3 279,5 280,5 281,6 281,6 283,7 285,8 286,8 287,9 287,9 288,10 288,10 288,10 289,10 291,12 292,13 291,15 291,15 290,16 290,17 289,17 287,18 285,19 284,20 284,21 284,24 284,26 284,29 285,30 284,30 284,30 285,31 286,34 286,35 286,35 287,36 287,36 287,37 287,38 287,38 287,40 288,40 288,42 288,43 288,43 288,43 288,44 290,45 290,46 290,47 290,48 290,49 290,49 290,50 291,51 291,51 291,51 291,51 291,51 291,51 292,51 292,51 292,52 292,52 293,51 295,51 296,51 296,51 296,50 296,50 297,49 298,49 298,49 298,49 299,48 301,48 303,48 303,49 303,50 303,50 303,51 305,51 305,51 306,51 307,52 308,52 309,53 309,54 309,54 308,55 309,55 309,56 312,57 314,57 315,57 316,57 317,58 317,58 316,58 316,59 317,60 319,61 319,63 322,63 322,63 323,64 324,64 326,64 326,64 326,66 327,65 328,66 329,66 331,66 332,67 333,68 333,69 334,70 334,71 334,72 335,73 335,74 336,74 338,74 340,74 340,73 340,73 343,73 344,71 344,71 345,71 346,71 346,71 348,72 349,72 349,72 350,72 350,72 351,72 351,72 352,73 352,73 353,71 354,70 354,70 355,69 355,68 355,67 356,66 356,66 357,66 357,66 358,66 359,67 359,67 360,68 360,68 360,68 361,69 361,69 361,69 361,70 361,70 362,71 362,71 362,71 364,71 365,70 366,69 368,69 368,69 369,69 371,70 373,69 374,68 375,68 376,68 376,68 376,68 377,69 378,70 379,70 379,70 379,70 380,72 380,74 380,74 380,74 381,75 381,75 383,76 383,76 383,77 383,78 383,79 384,80 385,79 387,79 387,79 388,79 388,80 389,81 393,85 394,86 395,86 398,88 398,88 400,90 400,92 401,93 401,93 401,94 402,95 403,97 405,97 405,98 406,99 406,100 407,100 407,102 408,103 406,103 406,103 405,103 404,103 404,103 403,102 402,102 401,102 400,102 399,102 398,101 398,101 397,102 397,103 397,106 395,106 393,106 393,106 393,107 389,107 388,107 389,111 389,114 391,115 398,118 397,119 396,120 395,121 395,121 396,122 396,122 397,123 396,123 396,123 394,124 393,124 392,124 391,124 388,124 387,124 384,125 384,125 384,125 383,124 383,124 383,124 382,124 381,124 380,124 378,124 375,124 375,125 376,126 377,126 376,127 375,127 375,128 374,128 374,129 373,129 372,130 373,131 373,131 373,132 373,132 372,132 371,133 372,133 373,134 375,135 375,135 376,136 376,136 377,137 376,137 376,137 382,141 383,140 386,138 386,138 386,139 387,139 387,139 387,140 386,140 386,140 385,141 385,141 386,141 386,142 387,143 386,144 385,145 384,147 385,147 388,148 390,148 388,150 387,151 388,152 388,153 389,154 389,155 390,155 387,157 388,160 393,158 396,157 396,157 397,158 400,161 401,161 403,162 404,162 404,161 406,162 407,162 407,162 408,161 408,161 409,161 411,160 411,160 411,160 411,159 412,159 414,156 414,156 417,157 420,157 421,157 422,157 423,157 423,157 424,157 426,157 426,157 427,158 427,158 427,158 428,159 429,159 430,160 431,159 433,160 432,160 429,164 429,166 428,169 428,170 428,170 427,170 426,171 426,172 426,173 426,173 426,173 428,173 430,174 431,175 434,177 437,178 443,180 443,179 443,179 444,180 445,181 448,182 449,183 453,184 456,185 457,186 459,187 461,188 461,186 461,186 461,182 461,180 462,180 463,180 465,180 467,180 468,181 468,181 469,182 470,184 470,184 470,184 469,185 470,187 470,189 470,189 469,190 470,191 471,191 472,191 472,192 472,193 472,193 474,193 475,193 475,193 480,194 480,194 481,194 482,194 483,194 483,194 484,194 484,194 486,194 488,194 488,195 490,195 491,196 491,196 492,196 492,196 492,197 492,197 492,198 491,200 488,199 487,205 486,205 484,205 483,207 482,207 481,207 480,208 480,208 480,209 480,210 478,210 478,210 474,209 474,209 474,209 473,208 473,208 470,207 470,207 469,207 469,207 469,207 468,207 467,206 467,206 464,206 464,206 464,206 465,204 465,204 464,204 462,203 462,203 460,204 457,205 454,206 454,206 452,206 451,206 450,207 450,207 449,207 449,207 448,207 448,208 448,208 448,208 448,209 447,210 447,212 446,212 445,213 445,213 443,212 443,212 443,212 442,212 442,212 441,212 441,212 441,212 441,213 441,213 441,213 441,213 439,213 437,213 436,213 433,213 433,213 433,214 433,214 433,213 432,213 432,213 432,213 431,214 430,213 430,214 429,214 429,214 429,214 428,215 428,216 428,217 427,218 426,218 427,218 430,219 431,220 432,221 432,221 431,221 431,222 430,223 428,224 428,226 427,227 427,228 427,229 427,230 426,230 426,230 425,231 422,233 423,233 423,234 423,236 423,236 423,237 430,239 429,239 431,239 432,239 433,240 434,240 435,241 437,241 440,241 440,241 443,242 443,242 443,242 443,243 443,243 444,244 444,244 444,244 444,245 444,246 444,247 444,247 444,247 444,248 444,248 444,249 444,250 444,251 445,251 445,251 446,251 446,251 448,251 448,251 449,251 451,251 451,252 451,252 451,252 452,254 452,254 454,255 454,254 454,255 454,255 455,255 455,255 456,255 458,255 458,255 458,255 458,256 460,257 462,258 462,258 461,259 460,260 460,260 461,260 465,257 466,259 469,258 469,258 470,258 472,260 472,260 473,260 474,261 474,261 474,261 474,261 475,261 476,263 477,263 478,265 479,266 481,267 480,268 480,268 480,269 479,270 479,270 478,270 479,271 480,272 481,273 481,273 481,274 481,276 480,276 481,276 481,276 482,276 482,276 482,277 483,278 483,278 483,279 484,279 485,279 487,279 491,281 492,281 494,281 496,281 497,281 499,282 500,282 498,284 498,284 498,284 498,285 497,284 496,285 496,285 495,285 495,286 495,286 495,286 495,287 495,287 495,287 495,287 494,287 491,288 490,288 489,288 488,288 488,288 487,288 486,287 484,287 484,287 483,287 483,287 483,287 482,288 481,288 481,288 478,290 477,291 477,291 476,292 476,292 476,292 474,292 473,292 473,293 473,294 474,295 477,298 477,299 478,301 477,301 476,303 475,304 475,305 475,306 475,306 474,307 474,308 472,310 472,311 470,313 469,314 469,315 468,315 464,319 463,320 463,321 462,321 462,321 461,322 461,323 462,325 462,328 461,330 461,330 461,331 461,332 461,332 460,332 460,332 459,333 459,333 459,334 458,333 456,334 456,334 455,333 455,333 455,334 454,335 454,336 454,336 454,337 453,337 453,337 453,338 453,338 453,339 452,340 452,340 452,340 451,341 451,341 450,342 450,342 449,342 449,342 449,342 449,342 448,342 448,343 447,343 447,343 446,343 445,344 445,346 445,346 445,346 446,347 446,348 447,349 447,349 446,351 446,352 445,352 444,353 444,353 444,354 444,354 443,354 443,354 442,353 442,353 442,352 441,352 441,352 439,351 439,351 438,348 437,348 437,348 437,347 436,347 435,347 432,346 431,346 430,345 429,345 429,345 429,345 428,345 427,344 427,344 426,343 426,343 424,342 423,342 422,342 420,342 420,341 419,341 418,342 416,342 415,342 414,342 414,342 414,342 413,342 411,342 410,342 409,342 409,342 409,342 409,342 408,342 408,342 406,342 406,341 406,341 405,340 405,340 404,340 404,340 403,340 403,339 401,339 400,339 399,339 399,339 399,339 398,339 398,339 397,339 397,338 396,338 396,338 396,338 396,338 396,338 396,339 394,339 393,340 392,340 392,340 391,340 390,340 390,340 390,340 388,341 388,341 386,342 386,342 385,342 385,342 384,342 384,342 384,342 383,342 383,342 381,341 381,341 380,341 379,341 377,341 376,341 376,341 375,341 374,341 374,340 375,340 376,340 376,339 377,339 377,338 378,338 378,337 379,337 380,336 380,336 380,336 380,335 380,335 379,335 380,335 381,334 381,334 381,333 381,333 381,333 382,331 382,331 382,331 382,331 379,330 378,330 378,330 378,330 377,330 377,330 376,330 376,330 376,330 376,331 375,330 374,330 374,330 372,329 371,330 369,330 368,329 368,329 366,329 364,329 363,330 363,330 363,330 363,330 363,331 363,331 363,331 363,332 363,332 361,334 361,334 361,335 361,335 360,336 360,335 358,334 357,334 357,334 356,334 355,336 355,337 354,337 354,337 353,339 352,339 350,341 349,341 346,341 345,341 344,341 343,341 342,341 342,341 342,340 342,340 341,339 340,338 340,338 341,338 341,337 340,337 339,337 338,336 338,336 338,336 337,336 336,336 335,336 335,336 334,336 332,336 331,336 331,336 330,337 330,336 329,337 328,337 327,337 327,337 326,337 324,337 324,337 324,336 323,335 323,335 322,335 321,335 320,335 320,333 320,332 320,331 320,330 320,330 321,330 320,328 320,328 320,326 319,324 319,324 318,325 318,325 317,325 317,325 316,325 316,325 315,325 315,325 314,325 313,325 312,325 311,325 310,325 309,325 308,326 307,326 307,327 307,327 306,327 305,327 304,327 303,327 301,328 301,328 300,328 299,330 298,330 298,331 298,331 297,332 298,333 298,334 298,335 297,335 297,337 298,337 298,338 299,339 302,344 302,344 302,344 302,344 303,345 303,345 303,346 303,346 303,347 303,347 304,348 305,349 304,349 303,350 302,350 302,351 301,351 301,352 300,352 300,352 300,353 300,354 301,354 300,355 300,355 300,355 300,355 300,355 300,355 298,355 298,355 298,355 298,355 298,355 297,355 296,356 296,356 295,355 294,355 294,355 294,354 293,354 293,354 292,353 291,353 290,353 290,353 290,353 289,353 288,352 287,352 287,352 286,351 286,351 285,351 285,351 284,351 284,351 283,351 282,351 282,351 279,351 278,350 278,350 278,350 277,350 277,350 277,350 278,349 277,349 277,349 276,349 276,349 275,349 274,348 274,348 274,348 273,347 273,347 272,347 272,347 271,347 270,347 269,347 269,347 269,346 269,346 268,346 268,346 268,346 267,346 267,345 267,345 266,345 265,345 265,345 264,345 263,345 263,345 261,347 258,343 257,343 256,343 254,343 253,343 252,343 251,343 251,343 251,343 251,343 250,344 250,345 249,346 247,348 243,350 242,351 240,352 239,353 239,352 235,351 235,352 234,351 232,352 232,352 232,354 231,355 232,356 232,356 231,356 229,355 228,355 228,355 224,352 224,352 223,352 222,352 221,352 218,352 218,352 217,352 216,353 215,353 215,354 214,354 213,354 212,355 211,355 211,355 209,355 209,355 208,355 208,355 208,356 208,356 207,357 206,357 204,357 204,357 204,357 204,357 204,357 204,357 204,357 204,357 204,357 204,357 204,358 204,358 204,358 203,359 203,359 203,359 203,359 203,359 203,359 203,360 203,361 204,362 204,362 205,362 205,362 206,362 207,362 207,363 207,363 207,363 208,364 208,364 208,365 207,366 207,367 206,368 206,369 206,370 206,372 206,373 206,374 206,375 206,377 206,377 206,379 206,380 206,380 206,380 205,381 205,382 205,384 205,385 205,386 205,386 204,387 204,387 203,387 202,388 202,388 202,389 201,390 201,390 202,390 202,391 203,392 203,392 201,392 201,392 203,395 197,398 196,398 195,398 194,399 193,399 192,399 191,399 190,399 189,399 189,399 188,399 187,399 187,398 187,398 187,398 186,399 186,399 186,399 185,400 184,400 184,399 183,399 183,400 181,400 181,401 180,402 179,402 179,402 178,401 177,401 176,401 175,402 174,402 174,403 174,403 160,405 158,400 158,400 158,399 157,399 156,398 155,398 154,397 154,396 153,395 151,393 150,393 144,384 146,384 144,381 143,381 142,378 140,375 139,371 139,368 140,366 141,363 142,361 142,357 142,356 142,355 142,354 142,353 144,349 142,344 141,342 140,341 137,337 136,336 136,335 135,335 134,334 133,333 131,332 128,331 122,327 118,325 118,325 117,323 116,323 116,323 115,323 115,322 113,321 111,320 109,319 108,319 107,318 106,318 106,317 104,317 102,317 101,317 99,315 99,315 97,314 96,312 95,311 93,310 89,306 87,304 82,300 80,299 77,297 75,295 72,293 72,292 68,290 65,289 63,289 61,288 58,288 57,288 57,288 43,285 42,284 41,283 36,280 34,278 31,273 30,271 30,269 29,267 30,266 31,265 31,265 30,263 29,263 29,262 26,261 26,258 29,252 33,248 36,246 37,245 37,244 38,243 44,238 46,235 48,232 49,232 51,233 51,233 53,233 54,233 54,234 52,236 52,236 51,237 50,238 49,238 49,239 47,241 47,242 46,243 46,244 45,246 45,247 41,252 41,253 40,254 40,255 40,257 39,258 39,258 41,259 42,257 43,257 45,256 46,256 47,256 50,256 51,256 52,256 52,256 52,257 53,257 55,257 60,258 64,258 65,258 71,258 72,258 74,258 75,258 76,259 76,259 79,260 82,260 83,260 84,259 86,259 87,258 89,256 90,256 91,255 96,253 98,252 100,252 97,248 96,248 95,246 94,244 100,239 106,238 106,238 109,237 118,236 118,236 118,236 121,235 121,235 121,235 121,235 125,235 127,234 128,233 130,232 131,231 129,230 129,229 128,229 127,228 127,227 126,226 126,224 125,223 125,222 126,222 128,222 130,222 130,221 130,221 130,221 129,219 129,219 129,218 129,218 129,218 129,218 131,218 131,218 132,218 132,218 133,217 134,217 134,218 135,218 135,217 136,217 139,217 139,217 140,217 141,217 144,217 148,216 149,215 150,215 152,218 154,219 155,221 155,221 154,221 155,222 154,222 155,223 155,223 157,224 157,226 156,228 156,228 158,228 162,227 164,227 168,227 171,226 171,226 174,226 175,225 176,224 177,225 176,226 176,226 177,226 177,226 179,226 183,223 184,221 186,218 186,218 194,220 202,222 202,221 203,221 207,222 207,222 208,222 208,222 218,222 223,222 223,222 224,222 225,222 226,223 226,223 227,223 226,222 225,221 224,220 223,220 222,219 222,219 223,218 225,217 220,215 220,215 219,215 221,213 218,212 219,210 221,208 221,208 220,208 221,207 221,207 222,206 222,206 222,206 222,206 222,206 222,206 221,205 221,205 219,204 218,203 217,202 217,202 217,202 217,201 217,201 216,201 216,200 216,199 215,199 215,199 214,198 214,197 215,196 215,194 213,190 214,190 213,189 212,189 212,189 212,188 212,188 211,187 210,187 209,186 209,185 208,185 208,185 207,184 207,184 207,183 207,183 206,181 205,179 205,179 206,178 209,178 211,177 213,177 214,176 215,176 216,176 220,176 221,176 225,176 226,175 230,175 234,176 236,176 237,176 240,176 245,176 247,176 249,175 251,175 252,175 254,175 254,175 256,175 257,174 257,174 258,174 259,174 260,173 261,173 262,173 263,173 264,172 265,172 266,172 267,172 268,172 268,171 269,171 269,171 270,171 271,171 272,170 272,170 272,171 272,171 273,171 274,171 275,171 276,171 277,171 278,171 280,172 280,172 281,173 282,173 284,174 284,175 285,174 285,173 286,173 286,173 287,171 287,170 288,170 288,169 284,168 284,167 281,168 278,168 280,166 280,165 282,164 279,162 279,159 279,159 280,158 280,157 280,157 280,157 280,156 281,156 281,156 281,156 285,155 288,155 287,152 287,152 286,151 286,150 287,149 287,148 287,148 286,147 287,147 287,146 287,146 287,146 287,146 287,145 288,145 288,145 288,145 289,144 290,143 290,143 291,142 291,142 290,141 291,141 291,140 291,140 291,139 291,139 291,137 291,137 291,137 291,136 292,136 293,136 292,135 293,134 292,134 291,134 290,134 289,133 286,132 286,132 286,132 284,132 284,132 283,131 282,131 281,131 279,130 279,130 277,129 277,129 274,128 273,128 272,127 271,127 271,127 270,127 270,127 269,127 269,126 269,126 269,126 269,125 268,125 267,124 266,123 265,122 264,121 264,121 263,121 262,120 262,120 261,120 261,120 260,119 259,119 259,119 259,119 258,119 257,119 257,119 256,120 256,120 255,120 255,121 255,121 254,119 254,119 252,119 251,120 251,120 251,121 251,122 250,122 250,122 248,123 248,123 248,124 248,125 249,126 249,127 248,128 246,129 245,130 244,131 244,131 242,130 241,130 239,129 239,129 238,129 237,129 236,129 236,129 235,129 233,128 229,128 227,129 226,129 223,125 223,125 222,125 222,124 222,124 218,124 216,125 213,125 213,125 212,126 212,128 211,128 209,130 208,131 208,131 207,132 207,132 206,133 206,135 205,135 205,135 205,135 204,135 204,135 204,135 204,135 203,135 202,135 202,135 201,135 201,135 201,135 201,135 200,135 200,135 200,135 200,135 200,135 199,135 199,135 199,135 198,135 198,135 198,135 198,135 198,135 198,135 198,135 196,135 196,135 196,135 195,135 195,135 195,135 195,135 195,135 195,135 195,134 195,134 194,134 194,134 193,134 193,134 193,134 193,134 193,134 192,134 192,134 192,134 192,134 191,133 191,133 190,133 190,133 190,133 190,133 189,132 188,132 188,131 188,131 188,131 188,131 188,130 188,130 188,130 188,130 188,129 188,129 188,129 188,129 188,129 188,129 188,128 188,128 188,128 188,128 188,128 188,128 188,128 188,127 188,127 188,127 188,127 188,127 187,127 187,127 187,126 187,125 186,125 186,124 185,124 185,123 184,123 183,123 182,122 180,121 180,120 180,120 180,119 180,119 180,119 180,119 180,118 180,118 180,118 180,118 180,118 180,118 180,117 180,117 180,117 180,117 180,116 180,116 180,116 180,116 180,115 180,115 180,115 180,115 179,115 179,114 179,114 179,114 178,114 178,114 178,114 178,113 177,113 177,113 177,113 177,113 177,113 177,112 177,112 176,112 176,111 175,111 175,111 175,111 175,111 175,111 175,111 175,111 175,110 175,110 175,110 175,110 175,110 175,110 175,110 174,110 174,110 174,110 174,109 174,109 174,109 174,109 161,109 160,109 159,110 157,110 153,111 150,112 149,112 148,112 149,112 149,111 150,111 150,110 151,109 152,109 152,109 151,108 148,107 145,106 145,106 146,105 149,102 150,102 146,99 145,100 143,98 144,97 144,97 142,96 139,95 139,94 138,94 135,94 135,94 135,94 134,95 134,94 130,95 129,93 130,92 130,91 129,91 130,90 128,87 128,86 126,87 122,90 122,90 118,93 115,94 114,95 112,96 110,97 111,97 111,98 111,98 111,98 111,98 111,98 111,98 111,98 111,98 110,98 110,98 110,98 110,98 110,98 109,98 109,98 109,98 109,99 109,99 108,99 108,99 108,99 108,99 108,99 107,99 107,99 107,99 107,99 107,99 106,99 106,99 106,99 106,99 105,99 105,99 105,99 105,99 105,99 105,99 105,99 104,99 104,99 104,99 104,99 104,99 104,98 104,98 104,98 104,98 103,98 103,98 103,98 103,98 103,98 103,98 103,98 102,98 102,98 102,98 102,98 102,98 102,98 102,98 101,97 101,97 101,97 101,97 101,97 101,97 101,97 101,97 101,97 101,97 101,97 101,97 101,97 101,97 101,97 100,97 100,97 100,97 100,96 100,96 100,97 100,97 100,96 100,96 100,96 100,96 100,96 100,96 100,96 100,96 100,96 100,96 100,95 99,95 99,95 99,95 99,95 99,95 99,95 99,94 99,94 98,94 98,94 98,94 98,94 98,94 98,94 98,94 98,94 98,94 98,94 98,94 98,93 98,93 98,93 97,93 97,93 97,93 97,93 97,93 97,93 97,92 97,92 97,92 97,92 97,92 97,92 97,92 97,92 97,92 97,92 97,92 97,91 97,91 97,91 97,91 96,91 96,91 96,91 97,91 97,91 96,91 96,91 96,91 96,91 96,91 96,91 96,91 96,91 96,91 96,90 96,90 96,90 96,90 96,90 96,90 96,90 95,90 95,90 95,90 95,90 95,90 95,90 95,90 95,90 94,90 94,90 94,90 94,90 94,90 94,90 94,90 94,90 94,90 94,90 94,90 94,89 93,89 93,89 93,89 93,89 93,89 93,89 93,89 92,89 92,89 92,89 92,89 92,89 92,89 92,89 92,89 92,89 91,89 91,89 91,88 92,88 91,88 91,88 91,88 91,88 91,88 91,88 91,88 91,88 91,88 91,88 91,88 91,87 91,87 91,87 91,87 91,87 90,87 90,87 91,87 90,87 90,87 90,87 90,87 90,86 90,86 90,86 90,86 90,86 89,86 89,86 90,86 90,86 89,86 89,85 89,85 89,85 88,85 88,85 88,85 88,85 88,85 87,85 87,85 81,88 78,88 77,89 75,89 71,88 70,88 70,88 69,87 69,88 67,87 66,86 66,85 65,85 65,84 64,84 62,83 60,85 61,86 61,86 51,93 50,93 50,93 50,91 49,87 49,87 49,86 48,85 47,84 43,82 40,79 38,77 37,77 34,74 34,74 34,74 34,74 32,73 31,72 29,69 24,68 23,67 22,67 21,65 20,64 20,64 19,63 17,62 15,60 15,60 13,59 12,58 12,58 9,57 8,57 6,56 6,55 4,53 3,53 3,52 2,51 2,49 1,48 0,46 0,45 2,45 6,43 7,43 8,42 8,41 9,40 8,39 9,40 9,40 9,40 9,40 9,39 9,39 10,39 10,39 10,39 11,39 12,39 12,38 12,38 13,37 13,37 15,36 16,36 16,36 18,39 17,39 19,42 17,43 17,43 19,44 19,44 21,44 24,44 25,44 30,45 30,45 30,44 31,44 31,44 31,43 32,41 32,41 31,40 30,41 31,37 31,37 32,37 32,37 33,37 33,37 33,37 33,37 33,37 34,37 34,37 35,37 35,37 36,37 36,37 37,37 37,37 36,37 36,37 37,37 37,37 37,37 37,37 37,37 37,37 37,37 37,37 38,37 38,37 38,37 39,37 41,37 41,37 42,37 42,37 43,37 43,37 44,37 44,37 44,37 45,37 45,37 46,37 46,37 46,37 47,37 47,37 47,37 47,37 48,37 48,37 48,37 48,37 49,37 49,37 50,37 50,37 50,37 50,37 50,37 50,36 50,36 50,36 51,36 51,36 52,36 52,36 52,36 52,35 54,35 54,35 55,35 56,35 56,35 57,35 57,35 58,35 58,35 58,35 58,34 58,34 59,34 59,34 59,34 59,34 60,34 60,34 60,34 60,34 61,34 61,34 61,33 61,33 62,33 62,33 62,33 62,33 63,34 63,33 63,33 64,33 64,32 64,32 64,32 64,32 64,32 64,32 64,32 64,32 64,32 64,32 64,32 65,32 65,31 65,31 65,31 65,31 66,31 66,31 66,31 67,31 67,31 67,31 67,31 68,31 68,30 68,30 68,30 68,30 68,29 68,29 68,29 68,29 68,29 68,29 68,29 68,29 68,29 68,29 68,29 68,29 68,29 68,28 68,28 68,28 68,28 68,28 68,28 68,28 68,28 68,27 68,27 68,27 68,27 69,27 69,27 69,27 69,27 69,27 69,27 69,27 69,27 70,27 70,27 70,27 70,26 70,26 70,26 70,26 70,27 70,27 70,27 70,27 70,27 71,26 71,26 71,26 72,26 72,26 72,25 72,25 72,25 72,25 72,25 72,25 72,25 72,25 72,25 72,25 72,25 73,24 73,24 73,24 73,24 73,24 73,24 73,24 73,23 73,23 74,23 74,23 76,24 76,24 77,24 78,24 79,25 81,25 82,25 82,25 84,25 84,26 85,26 86,26 86,26 91,26 91,26 92,26 92,26 93,26 94,27 95,27 97,27 97,27 99,28 100,28 100,28 100,28 100,28 100,28 100,28 101,28 104,29 108,30 110,30 113,31 116,31 118,32 118,32 118,32 118,32 118,32 119,32 119,32 121,30 124,26 124,25 129,23 130,23 131,22 132,22 133,21 136,20 137,20" id="5815" class="canton" fill="steelblue" stroke-width="1" stroke="white" geotype="canton" geoname="Pouilly-sur-Loire" code_insee="5815" code_departement="58" nom_departement="Nièvre" code_region="27" nom_region="Bourgogne-Franche-Comté"/></svg>