<?xml version="1.0" encoding="utf-8"?>
<svg version="1.1" id="svgmap" xmlns="http://www.w3.org/2000/svg" xmlns:xlink="http://www.w3.org/1999/xlink" x="0px" y="0px" width="100%" height="100%" viewBox="0 0 500 190">
<polygon points="1,105 2,104 7,100 7,99 8,99 8,99 8,99 14,101 22,95 22,95 25,97 29,100 28,100 29,100 29,100 29,101 38,101 40,101 40,101 38,99 47,94 47,94 49,95 60,89 60,89 59,89 60,89 60,89 65,86 65,86 65,86 65,85 65,85 65,85 65,86 64,86 64,85 64,85 64,85 64,85 64,85 64,84 64,84 64,84 64,84 66,83 66,83 68,82 68,81 68,81 69,80 69,80 69,79 70,79 70,79 70,79 71,79 71,79 71,79 72,80 72,79 72,80 72,79 73,79 75,80 75,80 76,80 75,81 76,81 77,81 77,81 78,81 78,81 78,82 79,82 79,81 80,82 80,82 80,82 81,82 81,82 82,82 82,82 82,83 82,83 82,83 83,84 84,84 84,84 85,84 86,84 86,85 87,85 87,85 88,85 88,85 88,85 89,86 89,86 90,87 90,87 90,88 90,88 90,88 90,88 92,88 92,88 94,87 94,86 98,87 98,86 97,85 96,85 95,83 96,82 97,82 98,82 98,83 100,83 101,83 101,83 101,83 103,82 103,82 103,82 103,81 104,82 105,81 105,81 106,81 107,81 107,81 108,81 109,81 109,81 110,81 110,81 110,80 111,80 112,79 116,84 118,84 118,83 119,81 120,81 121,80 121,80 122,79 123,79 124,79 125,79 126,78 127,78 127,78 128,77 128,77 132,78 133,77 135,78 133,79 135,80 138,80 141,81 141,82 164,83 173,92 214,80 234,72 251,66 251,66 258,43 258,43 258,42 258,42 259,42 261,42 262,42 263,43 264,43 267,44 269,42 270,42 271,42 272,41 272,41 273,40 273,40 274,40 274,40 275,40 276,39 276,39 276,37 278,37 278,38 278,38 279,38 280,38 281,39 282,39 281,41 282,41 282,41 282,42 283,42 283,42 284,43 286,44 286,44 287,45 288,45 288,45 288,46 288,47 289,47 290,48 292,49 293,48 294,49 294,48 295,49 294,50 295,51 296,52 296,52 297,52 298,53 298,53 300,53 300,53 300,53 301,53 302,53 302,53 302,54 303,55 304,52 305,52 306,50 306,50 307,50 309,50 320,45 323,47 324,47 325,48 327,49 330,49 333,49 335,47 336,46 336,45 332,40 332,39 331,39 330,39 326,39 325,38 325,38 325,38 330,35 334,33 334,33 336,31 340,29 346,35 352,34 353,34 354,34 354,33 354,32 356,32 356,31 360,31 361,29 363,27 365,25 365,25 367,25 368,25 370,24 371,23 372,23 375,22 377,20 376,20 375,19 376,19 378,18 379,18 382,17 383,17 384,17 384,15 384,13 386,12 385,9 384,9 383,10 383,9 383,8 383,8 386,6 387,6 389,6 390,7 391,7 391,6 392,6 394,3 395,4 396,4 396,3 397,3 398,3 398,3 401,2 402,1 403,0 406,2 409,3 411,4 411,5 411,6 411,8 411,8 410,11 410,11 411,11 411,11 411,11 411,11 411,12 412,13 413,13 413,13 414,14 414,14 414,14 415,15 415,15 415,15 415,16 416,16 416,16 416,16 416,16 416,16 416,16 416,16 416,17 416,17 416,17 416,17 416,17 416,17 416,17 416,17 416,17 416,17 416,18 416,18 416,18 417,19 417,19 417,19 417,19 417,19 417,19 417,19 418,20 418,20 416,20 416,20 417,21 417,21 417,21 418,21 418,21 419,21 419,21 419,21 419,21 421,22 421,22 421,22 421,22 422,22 423,23 423,23 424,23 425,23 426,23 426,24 426,24 426,24 427,24 428,25 428,25 429,25 429,25 429,26 429,26 429,26 430,27 431,27 431,28 431,28 432,28 433,29 433,30 433,30 433,30 433,30 434,30 434,31 434,31 435,31 435,31 436,31 436,31 436,32 436,32 436,32 436,32 436,32 436,32 436,32 436,32 436,32 436,32 436,33 436,33 436,33 436,33 436,33 436,33 436,34 436,34 437,34 437,34 437,34 440,35 441,35 442,35 444,36 444,36 444,36 443,38 443,38 443,38 443,38 442,39 442,39 444,40 444,40 444,40 444,42 444,42 445,42 445,42 445,42 443,44 443,44 443,44 444,44 444,44 444,44 445,44 445,44 445,44 445,44 445,44 446,45 446,45 446,45 446,45 445,46 445,46 445,46 445,46 444,47 444,47 445,47 445,47 446,48 446,48 446,48 446,48 447,49 447,49 447,49 447,49 446,49 446,49 447,49 447,49 447,49 446,50 446,50 446,50 446,50 446,51 446,51 446,51 446,52 446,52 446,52 446,52 446,52 446,52 447,53 447,53 447,53 447,53 447,53 447,53 446,54 446,54 445,54 445,54 445,54 445,54 444,54 444,54 444,54 443,54 443,55 443,55 442,55 442,55 441,55 441,55 440,55 440,55 439,55 438,55 438,55 437,55 437,55 434,55 434,55 432,56 432,56 432,56 432,55 432,55 432,55 432,55 431,55 431,55 431,55 431,55 430,56 430,56 429,56 429,56 429,56 429,56 429,56 429,56 429,56 429,56 428,56 428,57 429,57 429,57 428,57 428,57 428,57 428,57 427,58 427,58 427,58 427,58 427,58 427,58 427,58 427,58 427,59 427,59 426,58 426,58 425,59 425,59 425,59 425,59 425,59 424,60 424,60 424,60 424,60 424,60 424,60 425,60 425,60 425,61 425,61 425,61 425,61 425,61 425,61 423,62 423,62 423,62 424,64 424,66 425,66 425,66 425,66 425,66 425,68 425,68 426,68 427,69 428,69 428,69 428,69 428,69 430,70 432,70 432,70 432,70 432,70 433,70 433,70 433,70 434,70 434,71 436,71 436,71 436,71 438,72 438,72 438,72 438,72 439,72 439,72 440,72 440,72 441,73 441,73 442,73 443,74 443,74 444,74 444,74 444,74 446,75 447,75 447,75 447,75 447,75 447,75 448,75 448,75 450,75 450,76 450,76 451,76 452,76 452,76 452,76 452,76 453,76 454,76 454,76 454,77 454,77 455,77 455,77 456,77 456,77 456,77 458,78 458,78 458,78 459,78 460,78 460,78 460,78 460,78 460,78 461,79 461,79 462,79 463,79 463,79 463,79 464,80 465,80 465,80 466,80 466,80 466,80 468,81 469,81 469,81 470,81 471,82 471,82 473,83 473,83 473,83 474,83 474,83 474,84 474,84 475,84 475,84 476,84 478,84 478,85 480,85 481,85 481,85 481,85 481,85 482,85 484,86 485,86 485,86 486,86 486,86 487,86 487,86 489,87 489,87 489,87 489,87 489,87 489,88 491,88 492,89 492,89 492,89 493,89 493,89 493,89 493,89 493,89 493,90 493,90 493,90 493,90 493,90 493,90 494,91 494,91 494,91 494,91 494,91 495,91 495,91 495,91 495,91 495,91 496,92 496,92 498,93 498,93 498,94 498,94 498,94 498,94 498,94 498,94 498,94 498,94 498,94 499,94 499,94 499,94 499,94 500,95 500,95 500,95 500,95 500,95 500,95 500,95 500,95 500,95 500,95 499,95 499,95 499,96 499,96 499,96 499,96 499,96 499,96 498,95 498,95 498,95 498,96 498,96 498,96 498,95 498,96 498,96 498,96 498,96 498,96 498,96 498,96 498,96 497,96 497,96 497,96 497,96 497,96 497,96 497,96 497,96 497,96 497,96 497,96 497,96 497,96 497,96 496,97 496,97 496,97 496,97 496,97 496,97 496,97 496,97 496,97 496,97 496,97 496,97 496,97 495,97 495,97 495,97 495,97 495,97 495,98 495,98 495,99 495,99 495,99 495,99 494,99 494,100 494,100 494,100 494,100 494,100 494,101 495,101 494,101 494,101 494,101 494,101 494,101 494,102 495,102 494,102 494,102 495,102 495,103 496,104 496,104 496,103 496,103 497,103 498,103 498,103 499,102 499,102 499,102 499,102 499,102 499,102 499,103 499,103 499,103 499,103 499,103 499,103 497,104 495,105 495,105 494,105 493,105 493,105 493,105 493,105 492,105 492,105 491,106 489,106 489,106 489,106 489,106 489,106 489,107 487,107 486,107 486,108 486,107 486,108 485,108 484,108 484,108 484,108 484,108 484,108 484,108 484,108 483,108 482,109 482,109 482,109 482,109 482,109 482,109 482,109 481,109 481,109 481,109 480,109 480,109 479,109 479,109 478,109 478,109 478,109 477,109 477,109 476,110 474,111 474,111 474,111 474,111 474,112 474,112 473,112 473,112 473,112 472,111 472,111 472,111 469,112 469,112 469,112 469,112 469,112 467,112 466,112 466,112 466,112 465,112 465,113 465,113 465,113 465,113 465,113 464,113 464,113 464,113 464,113 464,114 464,114 464,114 464,114 464,114 463,114 463,114 463,114 463,114 463,114 463,114 462,114 462,114 462,114 462,114 462,114 462,114 462,114 461,114 461,114 461,114 461,114 460,114 460,114 460,114 459,115 459,115 458,115 458,115 457,115 457,115 456,115 456,115 456,115 456,115 456,115 455,115 455,115 454,115 453,115 453,115 453,115 453,115 452,115 452,115 451,115 451,115 450,115 450,115 450,115 450,115 450,115 449,115 449,115 449,115 448,115 448,115 448,115 448,115 448,115 448,115 448,115 447,115 447,115 447,115 447,115 447,115 447,116 447,116 447,116 446,116 445,116 445,115 445,115 444,115 444,115 444,115 444,115 443,115 443,115 443,115 443,115 443,115 442,115 442,115 442,115 442,115 442,115 442,115 442,115 442,115 442,115 441,114 441,114 441,114 441,114 441,114 441,114 441,114 441,114 440,114 440,113 440,113 440,113 440,113 439,113 439,112 439,112 439,112 439,112 439,112 438,111 438,111 438,111 438,111 437,111 437,111 437,111 437,110 436,111 436,110 436,110 436,110 436,110 435,110 435,110 434,110 434,110 434,110 434,110 434,110 434,110 433,110 433,110 433,110 432,110 432,110 432,110 432,110 431,110 431,110 431,110 431,109 431,109 431,109 430,108 430,108 430,108 430,108 430,107 430,107 430,107 430,107 430,107 429,107 428,106 428,106 428,106 428,106 427,106 427,106 427,106 427,106 428,106 427,106 426,106 423,106 417,105 417,105 417,105 417,106 417,106 417,106 417,106 413,108 413,108 411,110 411,111 409,112 409,112 408,113 408,113 407,114 407,114 408,124 408,124 408,126 409,129 409,130 411,134 411,135 412,139 413,140 413,141 413,142 413,143 413,144 413,144 413,145 413,145 413,145 413,146 413,146 413,146 413,146 412,147 412,147 412,147 412,148 412,149 412,149 411,150 411,150 411,152 411,152 411,152 411,155 411,157 410,158 410,158 407,157 406,157 405,157 404,157 404,158 405,158 405,158 405,158 405,158 405,158 405,159 406,159 406,159 406,159 406,159 406,159 405,159 405,159 405,160 405,160 404,160 404,161 404,161 404,161 405,162 405,162 404,163 404,163 404,163 404,164 404,164 404,165 404,165 404,165 405,165 405,166 405,166 405,166 405,167 405,167 405,168 404,168 404,168 404,168 404,168 404,169 404,169 404,169 405,170 405,170 405,171 406,171 406,171 406,172 407,172 407,172 408,173 408,174 408,174 408,174 408,174 408,175 408,175 408,177 409,177 409,178 409,178 409,178 409,178 409,179 409,179 409,179 409,180 409,180 409,180 410,180 410,180 410,181 410,181 410,182 410,182 410,182 410,182 410,182 410,182 410,182 410,183 410,183 410,183 410,184 410,184 410,184 410,185 409,185 409,186 408,185 408,186 408,186 408,186 407,186 407,186 407,186 407,186 407,187 406,187 406,187 405,187 404,187 403,184 403,184 403,184 402,184 402,184 401,184 400,184 400,184 399,184 397,185 397,185 395,186 394,186 394,187 392,188 392,188 391,188 391,188 391,188 391,188 390,187 390,187 388,188 388,188 387,187 387,187 386,187 383,188 382,188 382,188 382,188 382,188 382,188 382,188 382,188 382,187 382,187 381,187 381,187 380,186 380,186 380,186 380,186 380,186 380,186 379,186 376,186 376,186 375,186 374,185 374,185 374,185 374,185 374,185 374,185 374,185 374,185 374,185 374,185 373,185 373,185 373,185 372,185 372,185 372,186 372,186 371,186 368,186 367,187 366,187 365,187 365,187 363,187 363,187 363,187 362,187 361,187 361,188 361,187 361,188 361,188 361,188 361,189 361,189 361,189 361,189 361,190 361,190 361,190 361,190 361,190 361,190 361,190 361,190 347,190 347,190 347,190 346,190 346,189 346,189 346,189 346,189 345,188 345,188 344,188 344,188 344,188 344,188 344,188 344,188 344,188 343,188 343,187 343,187 343,187 343,187 343,185 344,184 344,183 344,183 344,183 345,180 344,180 344,180 344,180 343,180 343,180 343,180 342,179 342,179 342,179 342,179 342,178 342,178 342,177 342,177 342,176 342,176 342,176 342,176 342,176 342,176 342,176 342,176 344,176 344,176 345,174 345,174 346,174 347,174 347,174 347,174 348,174 348,174 348,173 348,173 349,173 349,173 350,173 350,173 350,173 350,173 351,173 351,173 351,173 351,172 351,172 350,172 350,172 350,172 350,172 350,172 350,172 350,172 350,172 350,171 350,171 350,171 349,171 349,171 349,171 349,171 349,171 348,171 348,170 348,170 347,170 347,170 347,170 347,170 347,170 347,170 347,170 347,170 346,170 346,170 346,171 346,171 346,171 346,171 346,171 345,171 345,171 345,171 345,170 345,170 345,170 345,170 345,170 345,169 345,169 345,169 345,169 345,169 345,169 345,169 345,169 345,169 345,169 344,169 344,169 344,169 344,168 344,168 343,169 343,169 343,169 343,169 343,169 343,169 343,169 342,169 342,169 342,169 341,169 341,169 341,169 341,168 340,168 340,168 339,168 339,167 339,167 339,167 338,166 338,166 338,166 338,166 338,166 338,166 338,166 338,166 339,166 339,166 338,166 338,165 338,165 338,165 337,165 337,165 337,165 337,165 337,165 336,165 336,165 336,165 336,165 336,165 336,165 335,165 335,165 335,165 335,165 334,164 334,164 334,164 334,164 333,165 333,165 332,166 332,166 332,166 332,166 332,167 332,167 332,168 332,168 332,168 332,169 331,169 331,169 331,169 330,169 330,169 330,169 330,169 330,169 330,169 329,169 328,170 328,170 328,170 328,170 327,170 327,170 326,168 326,168 325,168 325,168 325,169 325,168 325,168 324,168 323,168 322,167 322,167 322,167 321,167 321,167 321,167 321,166 321,166 320,166 320,166 320,166 320,165 320,165 320,165 320,165 320,165 320,165 320,165 318,164 317,164 315,164 315,163 314,163 313,163 312,163 312,163 312,163 312,163 311,162 311,162 311,162 310,162 310,161 310,161 310,161 310,161 311,160 311,160 310,158 310,158 309,158 307,159 307,159 305,159 305,159 305,159 304,153 304,153 303,153 303,153 303,153 303,153 304,153 304,153 304,153 303,153 303,153 303,153 303,153 304,152 304,152 304,152 304,152 304,152 304,148 304,148 304,147 304,146 304,146 303,146 302,146 302,146 302,146 300,146 299,146 299,146 299,146 298,146 298,146 298,146 296,147 296,147 295,147 295,147 294,147 293,147 292,147 292,147 291,147 291,146 290,147 290,147 290,147 290,147 290,147 290,148 290,148 290,148 289,148 289,148 289,148 289,150 289,150 289,150 289,150 288,151 288,152 287,154 286,154 286,155 285,155 284,156 283,157 283,158 283,158 282,158 281,159 280,160 280,161 280,161 279,161 277,162 276,163 276,163 275,163 274,164 273,164 273,164 273,165 273,165 272,165 271,165 271,165 270,165 269,165 269,166 268,166 268,167 267,167 267,167 266,167 265,168 264,168 264,168 264,168 263,169 263,169 262,169 260,170 260,171 260,172 260,174 260,174 260,175 260,176 260,176 260,176 260,176 260,176 259,177 259,177 258,177 256,178 256,178 256,178 255,178 255,178 254,178 250,179 238,174 222,170 221,170 220,169 220,169 218,168 217,168 214,166 207,158 206,157 206,157 207,157 209,154 211,151 214,150 215,149 216,149 217,149 217,149 218,149 219,149 219,149 219,149 219,149 219,147 219,147 217,146 215,146 214,146 213,146 211,145 210,145 208,144 206,143 206,143 205,143 204,142 204,142 202,141 200,140 198,140 198,141 191,139 191,139 191,139 191,139 191,139 190,139 190,139 190,140 189,140 189,140 189,140 189,141 188,141 188,141 188,142 188,142 188,142 188,142 188,142 187,144 187,144 188,145 188,150 188,150 181,151 180,152 179,153 178,153 177,154 173,158 173,158 162,163 162,163 152,166 143,167 142,168 142,168 142,168 142,167 139,166 136,164 132,161 129,159 127,158 127,158 127,158 127,158 127,158 126,158 126,158 126,158 122,157 120,157 116,156 110,154 106,154 103,153 97,151 93,150 90,150 89,150 88,150 86,149 83,148 83,148 83,148 83,148 82,148 82,148 82,148 82,148 82,148 81,148 80,148 78,147 77,147 77,147 76,147 76,147 76,147 75,147 75,147 75,147 74,147 74,147 74,147 72,147 71,146 71,146 71,146 70,146 69,146 68,146 68,146 67,146 67,146 66,145 65,145 63,145 63,145 62,145 62,145 62,145 61,144 59,144 59,144 59,144 56,142 54,141 54,140 54,140 53,140 53,140 51,139 51,138 51,138 51,138 50,138 50,138 49,137 49,137 52,135 51,135 51,134 50,134 50,133 49,133 49,133 50,133 49,132 49,131 49,130 48,131 48,131 47,131 47,130 47,130 47,130 47,130 46,130 46,129 46,129 44,129 43,129 43,129 43,128 43,128 43,128 43,128 43,128 43,127 43,127 43,127 43,127 43,127 43,127 41,126 41,125 42,125 42,125 42,125 39,124 39,124 36,123 36,123 36,123 35,123 34,124 27,118 24,115 23,114 19,116 0,107 1,105 1,105" id="6006" class="canton" fill="steelblue" stroke-width="1" stroke="white" geotype="canton" geoname="Compiègne-1" code_insee="6006" code_departement="60" nom_departement="Oise" code_region="32" nom_region="Hauts-de-France"/></svg>