<?xml version="1.0" encoding="utf-8"?>
<svg version="1.1" id="svgmap" xmlns="http://www.w3.org/2000/svg" xmlns:xlink="http://www.w3.org/1999/xlink" x="0px" y="0px" width="100%" height="100%" viewBox="0 0 500 270">
<polygon points="0,72 3,71 17,65 17,64 19,64 26,59 28,57 31,56 32,56 33,56 36,56 37,56 48,54 53,54 67,50 72,47 76,45 83,46 90,40 92,39 97,39 97,38 101,37 104,37 104,37 106,37 106,36 106,36 107,36 108,36 110,36 111,36 112,36 113,36 114,36 115,36 118,36 119,36 121,36 121,36 121,37 123,37 125,37 126,38 127,38 129,38 131,39 131,39 131,39 132,39 132,38 132,38 134,37 134,37 131,37 129,36 127,35 126,35 126,35 126,35 126,35 126,33 127,32 127,31 127,30 127,30 127,29 128,25 128,24 128,24 128,23 128,22 128,20 130,21 131,20 134,20 139,20 146,20 152,20 156,19 157,19 157,19 158,17 159,15 160,15 169,15 169,15 173,15 173,15 180,14 181,14 182,14 183,14 185,14 186,14 188,14 191,14 191,14 199,12 199,12 200,12 204,11 209,9 211,9 211,9 214,8 215,8 217,7 223,6 224,6 224,6 226,5 227,5 228,5 228,5 229,5 229,5 230,5 230,5 237,16 240,20 241,22 242,24 245,27 245,28 246,28 246,29 246,29 248,33 250,35 252,38 255,43 255,43 284,32 285,31 295,27 298,26 296,24 299,22 300,21 301,21 302,20 303,22 304,22 304,22 305,22 305,22 305,21 305,21 307,20 307,20 306,19 306,18 307,18 307,18 308,17 311,16 313,14 314,14 315,13 315,13 316,11 316,11 316,11 318,9 318,9 319,8 319,8 321,8 322,7 323,7 324,6 326,5 326,5 326,4 327,4 330,2 333,0 334,1 335,1 336,3 338,4 339,6 339,6 340,7 342,7 343,8 347,8 347,8 347,9 348,10 349,10 349,11 350,11 350,11 353,12 354,14 354,14 355,14 356,15 358,16 358,16 360,18 360,18 360,18 367,23 367,23 368,23 369,24 369,24 369,24 370,24 370,24 370,24 370,24 371,25 372,26 373,26 374,27 375,28 377,29 379,29 380,30 380,30 381,32 383,33 383,34 383,34 384,35 385,35 387,37 394,41 398,44 403,46 403,47 404,47 404,47 405,47 405,48 405,48 405,48 409,54 410,55 411,57 412,58 415,63 415,64 416,65 417,67 418,68 418,68 420,71 420,71 421,72 421,72 421,72 417,74 416,74 416,74 416,75 410,77 409,77 404,80 403,80 403,80 403,80 403,80 401,81 400,81 400,83 400,83 400,84 401,85 401,85 399,86 399,86 399,87 399,88 382,96 382,96 382,96 387,99 389,100 389,101 387,102 387,102 389,104 393,107 393,108 390,113 390,113 390,113 391,113 391,112 391,112 391,112 394,112 396,111 397,111 400,110 400,110 400,110 400,110 401,110 401,110 401,110 406,108 406,108 407,107 408,107 408,107 408,107 410,106 435,99 436,99 436,99 436,99 436,100 434,101 434,101 434,101 435,102 435,102 436,102 436,102 436,103 436,103 436,103 441,105 441,106 442,107 444,108 444,109 445,110 446,114 446,114 449,116 449,116 451,117 451,117 451,117 454,118 454,118 454,118 455,117 455,117 455,117 456,117 456,117 456,117 456,118 456,118 456,118 456,118 461,121 461,121 462,121 464,122 464,122 465,122 466,122 466,122 460,125 461,125 461,126 464,128 466,129 466,129 467,130 467,130 468,132 468,132 469,132 469,132 470,133 470,133 470,134 469,134 469,134 469,134 469,134 470,134 471,134 472,134 472,134 472,134 472,134 473,134 472,134 472,135 471,136 471,136 471,136 473,137 473,137 472,137 472,138 472,138 473,138 474,137 474,138 473,138 473,138 473,138 474,138 474,138 475,138 475,138 476,138 476,138 477,139 477,139 480,142 480,142 480,142 480,143 481,144 481,144 482,145 482,146 483,146 484,147 484,147 485,148 489,151 489,151 489,151 489,151 489,151 489,151 498,159 500,161 499,163 499,165 498,167 498,170 498,171 498,175 498,177 499,183 500,189 500,190 500,192 499,192 499,194 498,195 497,195 496,196 495,197 493,198 492,200 490,201 488,202 485,204 483,205 480,206 476,207 475,207 468,209 466,209 461,210 457,211 455,211 453,212 452,212 449,214 447,215 446,216 443,218 441,219 438,220 436,222 435,222 434,223 430,226 430,227 427,232 423,238 419,246 413,254 411,257 408,260 404,263 396,257 390,253 380,243 377,245 368,249 337,261 336,259 336,259 335,257 335,257 335,257 331,258 313,262 304,264 304,264 300,265 300,265 295,266 295,266 295,266 291,267 290,267 279,270 278,270 278,269 263,261 258,265 253,262 254,262 252,261 249,263 249,262 248,262 242,263 242,262 242,261 242,260 242,260 239,257 235,258 234,258 233,257 233,253 231,253 231,253 228,253 227,252 227,252 226,252 226,252 215,252 215,248 211,248 211,246 215,246 216,246 216,246 216,246 216,246 215,245 216,245 216,245 215,244 215,242 215,241 215,240 215,239 215,237 213,237 213,236 211,234 211,232 211,232 209,231 207,230 203,228 201,228 194,226 193,225 191,226 191,226 191,226 191,225 188,223 188,223 188,223 187,222 183,220 183,220 182,219 181,219 179,218 180,217 182,213 180,212 180,212 179,212 178,212 178,212 177,212 177,211 177,211 176,211 176,211 176,210 176,210 176,210 176,209 176,209 177,202 169,202 169,202 169,201 169,198 169,197 169,196 169,196 169,195 169,195 169,194 169,193 170,193 170,192 170,191 170,190 168,189 162,185 158,184 159,183 159,182 153,182 153,183 151,183 149,182 149,182 151,179 148,179 147,178 143,178 139,177 131,177 129,177 121,177 116,177 116,177 114,177 114,174 112,174 109,173 105,172 105,172 104,172 102,171 101,170 102,170 100,169 99,169 99,169 98,168 97,168 94,167 92,168 92,168 92,168 91,168 91,167 91,167 90,167 90,167 90,167 89,167 86,165 85,165 85,164 85,164 83,163 87,159 86,158 81,156 71,152 70,152 70,152 70,151 70,151 71,149 66,148 62,148 62,148 61,147 59,141 57,138 55,138 53,132 53,132 52,128 56,127 58,127 62,126 63,126 63,126 62,123 62,123 62,119 63,117 64,108 64,108 63,108 55,103 47,98 45,98 42,96 33,92 31,90 26,86 22,83 20,82 14,80 10,79 10,79 3,76 3,75 2,75 0,72" id="6016" class="canton" fill="steelblue" stroke-width="1" stroke="white" geotype="canton" geoname="Nogent-sur-Oise" code_insee="6016" code_departement="60" nom_departement="Oise" code_region="32" nom_region="Hauts-de-France"/></svg>