<?xml version="1.0" encoding="utf-8"?>
<svg version="1.1" id="svgmap" xmlns="http://www.w3.org/2000/svg" xmlns:xlink="http://www.w3.org/1999/xlink" x="0px" y="0px" width="100%" height="100%" viewBox="0 0 500 274">
<polygon points="104,8 104,8 105,8 106,9 107,9 107,9 108,10 109,11 110,11 111,13 117,11 117,10 117,10 117,10 117,10 117,10 118,8 118,9 118,9 118,9 118,10 118,10 118,10 118,10 118,10 120,10 120,10 120,10 120,10 126,9 126,9 126,9 131,8 131,7 131,7 132,7 132,7 132,7 132,7 132,7 132,7 132,7 133,7 133,7 133,7 133,7 134,7 134,7 134,7 134,7 134,7 134,7 135,7 136,7 138,7 143,7 144,8 146,8 146,8 147,8 151,11 151,11 151,11 151,12 152,13 152,13 154,13 154,13 155,13 155,13 155,13 155,12 155,12 155,12 155,12 155,11 155,11 155,11 156,11 156,11 156,11 156,11 156,11 157,11 157,11 158,10 158,10 159,10 159,10 160,12 160,13 161,13 164,15 164,15 164,15 170,13 170,13 170,13 171,14 171,14 171,14 171,14 172,13 173,13 173,13 173,13 174,12 174,12 174,12 175,12 177,9 177,9 177,9 180,10 181,11 184,10 184,10 184,10 187,9 187,9 187,9 187,9 187,9 189,8 192,7 192,7 192,7 193,8 193,8 193,8 194,7 194,7 196,8 196,8 197,7 197,7 198,7 198,7 199,7 199,7 199,7 199,7 199,6 199,6 200,6 202,6 202,5 202,5 202,5 202,5 202,5 204,5 205,4 205,4 205,4 205,4 207,4 207,4 207,4 207,5 208,4 208,4 208,4 208,4 208,4 208,4 208,3 208,3 211,3 211,3 211,3 211,3 211,3 211,3 212,3 212,3 212,3 213,2 216,2 216,2 216,3 216,3 217,4 217,4 217,4 217,4 217,4 217,5 216,6 216,6 216,7 216,7 217,7 217,7 218,8 218,8 218,8 218,8 218,8 218,8 219,8 219,7 219,7 220,7 220,7 221,7 221,7 221,7 221,7 222,7 222,7 222,7 222,8 222,8 222,10 222,11 221,11 221,11 221,11 221,12 221,12 221,12 222,12 222,13 222,13 223,13 223,13 223,13 223,13 224,13 224,13 225,11 225,11 225,11 225,11 226,11 227,11 227,11 228,12 228,12 228,12 228,12 228,12 229,13 229,13 230,14 231,14 231,14 231,15 232,15 232,16 232,16 233,16 233,16 233,16 234,16 234,16 234,16 234,16 236,16 237,17 237,17 238,17 239,17 239,17 239,17 240,17 240,17 241,18 241,18 242,18 242,18 242,18 242,18 243,19 243,20 244,20 244,21 244,21 244,21 245,22 245,22 245,23 245,23 246,24 247,24 247,25 247,25 247,25 247,25 247,25 248,26 248,26 248,26 249,26 249,27 249,27 249,27 249,28 249,28 249,28 249,29 249,29 249,29 249,29 250,30 250,30 250,30 250,30 250,30 250,30 250,31 250,31 251,32 252,33 252,34 252,34 252,34 252,34 253,34 255,34 255,34 256,34 256,34 256,34 256,34 257,34 257,34 257,35 257,35 257,35 256,35 255,36 254,37 254,37 254,38 254,38 254,38 254,38 254,38 254,38 254,38 256,38 256,38 256,38 258,38 258,38 258,38 258,39 258,39 258,39 258,39 258,40 259,40 259,40 259,40 259,41 259,41 260,41 260,41 260,41 260,41 261,41 262,40 263,40 263,40 264,40 264,40 265,40 265,40 265,40 265,40 265,40 266,41 266,41 266,42 267,42 267,43 267,43 268,43 268,43 269,43 269,43 270,42 270,42 269,42 269,42 269,41 269,41 269,41 270,41 270,41 270,41 271,41 271,41 272,42 273,42 273,43 273,43 273,43 273,43 273,43 273,44 272,44 272,44 272,45 272,45 273,45 273,45 274,45 275,45 275,45 275,45 275,46 275,46 276,47 276,47 276,48 276,48 276,49 276,49 276,49 276,49 277,50 277,50 277,50 277,50 277,50 277,51 277,51 277,51 277,51 277,51 278,51 278,51 278,51 278,51 278,51 278,51 279,51 279,51 279,51 279,51 279,51 279,51 280,52 280,52 281,52 281,52 281,52 283,53 284,53 284,53 285,53 287,52 288,53 288,53 288,53 288,54 289,54 290,54 290,55 290,55 289,55 289,55 289,55 289,56 289,57 289,57 289,57 292,57 293,57 293,57 294,56 295,56 296,55 296,55 297,55 297,55 297,55 298,54 298,54 298,54 298,54 299,54 302,53 302,53 302,53 302,53 304,53 304,52 304,52 304,52 304,52 304,52 304,52 304,52 304,51 304,51 306,51 306,51 306,51 306,50 306,50 306,50 306,50 306,50 306,50 306,49 306,49 306,49 307,49 307,49 307,49 306,48 306,48 306,47 306,47 306,47 307,47 307,47 307,47 307,46 307,46 307,46 307,47 308,47 308,47 308,47 308,47 309,47 309,47 309,46 309,46 309,47 310,46 312,45 312,46 315,44 315,44 315,44 316,45 316,45 317,44 318,42 318,42 318,42 321,44 321,44 322,43 322,42 322,42 321,42 321,41 321,41 321,41 321,39 321,39 321,38 321,37 321,36 320,35 320,34 320,34 320,34 320,32 320,32 321,27 321,27 318,25 318,25 318,25 320,23 320,23 320,23 318,22 318,22 319,21 319,21 319,21 319,20 319,20 319,19 319,17 319,17 319,16 319,14 319,14 319,13 319,12 320,11 320,10 321,10 321,10 321,10 322,9 322,9 322,9 323,9 332,7 333,6 339,4 340,4 340,4 341,6 342,6 346,4 346,4 347,6 347,6 348,6 351,5 351,5 351,5 349,2 349,2 359,0 360,1 360,1 360,1 361,2 361,3 361,3 365,4 365,5 367,5 370,6 371,6 373,8 375,10 376,11 381,13 383,14 383,14 387,16 392,19 392,19 392,19 391,24 391,25 391,26 391,27 391,28 391,28 391,28 389,29 388,29 386,29 386,31 387,31 388,34 389,34 389,36 391,39 391,39 391,39 393,39 396,40 395,41 395,41 395,41 395,41 395,41 401,43 403,44 404,45 402,47 403,47 403,47 403,48 403,48 405,48 405,49 405,49 405,49 406,49 406,49 406,49 406,49 406,49 406,49 407,49 409,49 409,49 410,49 410,50 410,50 411,50 410,50 411,51 412,51 413,51 413,51 414,52 416,52 417,52 417,53 418,53 418,54 421,54 425,54 426,54 430,53 432,54 434,54 434,54 436,55 435,56 435,56 436,56 437,57 437,56 440,56 440,57 439,57 441,58 444,60 445,60 445,61 445,61 445,62 445,62 445,62 445,62 445,63 445,63 445,63 445,64 445,64 445,66 445,66 445,66 449,66 448,70 448,70 448,70 448,70 448,70 448,70 448,71 449,71 449,71 449,71 449,71 449,71 450,71 450,71 450,71 451,72 450,74 450,74 451,75 451,75 452,75 452,75 454,76 454,77 454,77 454,77 456,78 456,78 456,78 456,78 457,78 458,78 461,79 462,79 464,80 465,81 466,81 466,81 466,82 467,83 467,84 468,84 468,85 468,85 468,86 468,86 468,87 468,88 468,88 468,88 468,88 468,88 468,88 468,88 468,88 466,88 466,89 468,89 468,91 473,91 473,91 474,91 474,91 474,92 476,92 476,92 477,92 477,94 477,94 478,94 480,94 481,95 481,96 481,96 481,96 482,97 484,97 485,96 485,97 486,96 487,96 487,97 489,98 492,96 500,100 500,100 500,100 500,100 500,100 499,101 498,102 498,102 497,102 497,103 497,103 497,103 496,103 496,104 494,104 494,104 494,104 492,105 492,106 492,106 492,106 493,106 493,106 493,107 497,109 497,109 495,111 495,111 491,113 490,114 488,114 484,117 484,117 484,117 487,119 488,119 487,120 487,120 487,120 487,120 490,122 490,122 490,122 495,124 494,125 493,126 492,127 492,127 491,128 489,131 487,134 487,134 487,136 486,137 486,138 486,140 486,140 485,141 485,142 485,142 485,143 484,144 484,144 484,146 483,147 483,148 483,148 482,149 481,150 479,152 477,153 476,154 476,154 475,155 475,155 474,156 473,158 472,158 471,161 470,162 469,163 467,165 467,165 466,166 465,167 465,168 464,169 464,170 463,171 463,171 463,172 462,173 463,173 463,173 463,173 462,173 462,174 462,174 462,174 462,174 462,174 461,174 459,176 459,176 458,177 456,178 454,179 452,180 451,181 448,181 445,183 444,183 443,183 441,185 438,186 438,187 437,188 436,188 435,190 435,190 435,191 434,193 433,195 432,197 432,198 431,200 430,201 428,202 426,203 426,204 424,206 423,207 422,207 419,210 418,211 417,211 417,212 417,212 417,212 416,213 416,213 416,214 416,215 416,217 415,219 415,219 414,220 414,220 413,222 412,223 411,224 410,224 409,225 409,225 408,226 407,226 406,227 404,228 403,228 403,229 397,231 396,231 396,231 395,231 394,232 393,232 390,232 386,232 382,233 380,233 378,233 377,233 376,233 374,234 373,234 372,234 372,234 371,234 370,234 369,234 368,234 367,234 367,234 364,233 364,233 363,231 363,231 363,231 363,231 360,231 360,231 360,231 359,231 358,231 358,231 357,231 357,231 355,231 354,231 353,231 349,232 348,232 348,232 348,233 348,233 348,233 348,234 347,236 347,236 345,239 345,239 345,239 344,240 343,241 343,241 339,246 338,246 338,247 338,247 338,247 337,248 337,248 337,248 335,248 335,248 335,248 335,249 335,251 335,251 335,252 335,252 335,252 334,252 330,254 328,254 328,255 327,255 327,255 324,257 324,257 324,257 324,257 324,257 321,259 321,259 320,259 320,260 320,260 319,261 319,261 318,261 318,261 317,263 317,264 317,265 317,265 317,265 315,268 315,268 315,268 315,268 314,270 314,271 313,272 313,272 313,273 312,274 312,274 307,274 307,274 303,274 302,274 302,274 301,272 298,269 295,266 295,266 294,265 294,265 294,264 293,263 293,263 292,263 291,263 291,263 288,263 288,263 285,263 285,263 285,262 285,261 285,261 285,260 285,260 285,259 285,259 279,258 275,258 273,258 268,257 268,257 267,257 266,257 265,257 264,256 263,256 258,256 256,256 253,256 252,256 250,255 250,255 248,258 248,258 248,258 242,256 242,256 242,256 243,255 243,255 244,255 244,254 243,254 243,254 241,253 241,253 241,253 241,253 241,253 241,253 239,252 239,252 236,251 236,251 229,246 228,246 228,246 228,246 225,248 224,248 224,248 224,248 221,246 220,245 218,243 216,241 216,241 216,241 216,240 218,239 219,238 220,237 220,237 221,236 221,236 221,236 222,235 222,235 222,235 222,235 222,235 222,234 222,234 222,233 223,232 223,228 223,228 223,228 223,228 223,228 222,228 222,228 221,228 221,228 220,228 220,224 220,224 220,223 220,223 221,219 221,218 221,218 221,218 221,217 219,201 212,192 211,191 211,191 211,191 211,191 211,191 210,190 208,189 208,189 208,189 208,189 208,189 208,188 210,188 210,188 210,188 209,187 204,183 204,183 204,183 198,179 198,179 198,179 196,178 195,178 195,177 195,177 195,177 193,177 192,176 191,176 191,176 189,174 189,174 189,174 188,174 188,173 186,172 186,172 184,171 184,170 184,170 186,167 188,164 188,164 187,164 186,163 183,162 183,161 183,161 182,161 181,161 181,160 181,160 181,160 177,158 177,158 177,158 175,157 174,157 173,157 172,156 172,156 172,156 172,156 172,156 170,155 170,155 170,155 169,155 169,154 169,154 169,154 169,154 169,154 170,153 170,153 171,152 171,152 171,151 171,150 171,150 171,149 170,148 170,148 170,148 169,147 169,146 168,145 168,145 168,145 168,145 168,145 167,144 167,144 167,144 167,144 166,144 166,144 166,144 167,144 167,144 167,144 167,144 167,144 167,144 168,144 168,144 168,143 168,143 170,142 170,142 171,141 171,141 172,141 173,140 173,140 173,140 174,140 174,140 174,140 175,139 175,139 175,139 173,137 172,136 171,136 162,127 162,127 162,127 164,126 164,126 162,125 162,125 162,125 162,125 162,124 161,124 160,125 160,125 160,125 159,125 159,125 159,125 157,123 157,123 155,122 155,122 155,122 155,122 154,121 154,121 153,122 153,122 153,122 153,122 152,123 152,123 152,122 152,122 151,123 151,123 150,122 149,122 149,122 148,121 148,121 148,121 150,119 150,119 150,119 147,117 147,117 147,117 147,116 147,116 147,116 147,116 147,115 147,115 146,116 146,116 145,116 144,117 143,117 143,117 141,119 140,119 139,119 139,119 139,119 139,119 138,119 138,119 138,120 137,120 137,120 136,120 136,120 135,120 135,120 135,120 134,120 134,120 133,120 132,120 131,120 129,120 127,121 127,121 125,121 124,121 123,121 123,122 123,122 123,121 122,121 119,122 117,122 117,122 107,121 105,121 105,121 104,121 102,120 101,120 94,119 93,119 88,118 88,118 87,118 87,118 87,118 87,118 85,119 85,119 85,118 85,118 83,120 82,120 82,121 82,121 76,126 76,126 76,126 76,126 75,125 75,125 75,125 69,130 68,129 66,128 64,127 64,127 61,125 59,124 59,124 59,124 59,124 59,124 55,124 49,125 48,125 44,124 44,124 39,123 38,123 36,123 35,122 35,122 35,122 35,122 34,122 34,122 33,122 33,122 30,123 30,123 29,123 29,123 28,123 28,123 26,123 25,123 25,123 23,123 22,123 22,123 20,121 20,121 19,121 18,121 16,122 15,122 15,123 14,123 13,124 11,126 11,126 11,126 10,126 10,126 10,126 10,126 9,125 9,125 9,125 8,124 8,124 8,124 6,123 6,123 6,123 6,122 5,122 5,122 5,121 5,121 5,121 5,121 5,120 6,119 6,119 6,119 6,118 5,118 4,116 4,116 4,115 4,114 4,113 3,112 3,112 3,112 3,111 3,111 2,111 2,111 1,110 1,110 1,110 1,110 0,110 0,110 0,109 0,109 0,107 0,106 0,105 1,104 1,104 1,104 1,103 1,103 1,103 1,103 1,103 2,102 2,102 2,102 2,102 2,101 3,99 4,99 4,98 5,97 5,96 6,95 6,95 6,94 6,93 6,93 6,93 6,93 6,93 6,93 7,93 8,93 10,94 11,94 12,94 14,94 15,95 16,95 16,95 19,96 19,96 21,97 21,97 21,97 25,93 25,93 26,93 26,93 26,93 26,93 27,94 29,94 30,95 31,95 34,96 34,96 35,96 35,95 36,94 37,93 38,93 38,92 38,92 39,92 40,91 40,91 42,90 44,89 44,89 46,88 47,87 47,87 48,87 49,86 49,86 50,86 50,86 50,85 51,85 52,85 52,85 53,85 55,84 55,84 55,84 56,84 56,83 41,76 37,75 36,74 36,74 35,73 32,72 30,71 26,69 26,69 26,69 26,69 27,68 29,67 30,66 31,65 33,64 34,64 34,63 35,62 36,62 38,61 39,60 39,60 41,59 42,58 45,57 45,57 49,54 50,53 51,53 52,52 53,52 54,51 55,51 57,50 58,49 59,49 61,48 61,47 65,46 65,46 66,46 67,45 67,45 69,44 70,43 71,43 72,42 73,42 74,41 75,41 75,41 76,41 78,41 78,41 78,41 76,39 76,39 77,38 79,36 80,36 81,35 82,35 83,34 83,34 83,33 83,33 84,33 84,32 84,32 85,33 85,33 85,32 86,32 86,32 86,32 88,30 88,30 88,29 88,29 88,29 87,28 85,25 84,22 83,22 83,22 83,21 83,20 83,20 84,20 85,18 85,18 90,15 93,13 95,12 96,11 98,11 104,8 104,8" id="6013" class="canton" fill="steelblue" stroke-width="1" stroke="white" geotype="canton" geoname="Montataire" code_insee="6013" code_departement="60" nom_departement="Oise" code_region="32" nom_region="Hauts-de-France"/></svg>