<?xml version="1.0" encoding="utf-8"?>
<svg version="1.1" id="svgmap" xmlns="http://www.w3.org/2000/svg" xmlns:xlink="http://www.w3.org/1999/xlink" x="0px" y="0px" width="100%" height="100%" viewBox="0 0 500 267">
<polygon points="0,82 0,82 1,82 2,82 2,82 3,82 3,82 4,82 5,82 5,82 6,82 6,82 7,82 7,82 8,82 9,82 10,82 10,82 11,82 12,81 13,81 14,81 14,81 16,81 16,82 16,81 18,82 19,82 20,82 20,82 20,82 21,82 21,82 22,82 22,82 24,81 25,81 25,82 26,82 26,82 27,82 28,82 28,82 29,82 29,82 29,82 29,82 30,82 30,82 30,82 31,82 31,82 31,82 32,82 33,82 33,82 33,82 35,82 35,82 35,82 36,82 36,82 36,82 36,82 36,82 37,82 39,82 41,82 43,82 44,82 45,82 46,82 47,82 48,82 50,82 51,82 53,83 54,83 57,83 58,83 58,83 60,84 61,85 62,85 64,85 67,86 68,86 68,86 68,86 70,84 71,85 72,85 74,85 74,85 75,86 75,85 76,85 76,85 77,85 78,84 78,83 78,83 78,83 78,83 77,82 77,82 78,82 78,82 78,82 78,82 79,82 79,82 80,82 80,82 80,82 81,82 81,82 81,82 82,83 82,83 83,83 83,83 83,83 83,82 84,82 84,82 84,82 84,82 84,82 85,82 85,82 85,82 85,82 85,82 86,81 86,81 87,81 87,80 87,80 87,80 87,80 87,80 87,79 87,79 87,79 87,78 87,78 88,78 88,78 88,78 88,78 88,77 89,77 89,77 90,77 90,77 89,77 90,77 91,77 91,77 91,77 91,76 91,76 92,76 92,76 92,76 92,76 92,76 93,75 93,75 94,75 95,74 95,74 96,74 96,74 97,74 97,74 97,73 97,73 96,72 96,72 97,72 97,72 99,72 100,71 101,71 102,71 102,71 102,71 102,71 105,70 107,70 108,70 108,70 109,70 109,70 109,70 109,70 110,70 111,70 111,70 111,70 112,70 113,70 114,70 114,70 114,70 114,70 114,70 114,70 115,70 115,70 116,70 116,70 116,70 117,70 117,70 117,70 118,70 118,70 118,70 118,70 119,70 119,70 119,70 119,70 120,71 120,71 120,71 121,71 121,71 122,71 122,71 123,71 124,71 125,71 125,71 126,71 126,71 127,71 127,71 127,70 127,70 127,70 128,69 128,69 128,69 128,69 128,68 128,68 129,68 129,67 129,67 129,67 130,66 130,66 130,66 130,65 130,65 130,65 130,64 130,64 130,64 131,63 131,63 131,63 131,63 131,63 131,63 131,63 131,63 131,63 132,63 132,63 132,63 132,62 132,62 132,62 132,62 133,62 133,62 133,62 133,62 133,62 134,62 134,62 134,62 134,62 134,62 134,62 134,62 135,62 135,62 136,62 136,61 137,61 137,61 137,61 137,61 137,61 138,61 139,61 139,61 139,62 140,62 140,62 140,63 140,63 141,63 141,64 141,64 142,64 142,64 142,65 143,65 143,65 143,65 143,66 143,66 144,66 144,66 144,66 145,67 145,67 146,67 146,67 146,67 146,67 147,68 147,68 147,68 148,68 148,68 148,68 149,68 149,68 149,69 150,68 151,68 151,68 151,68 152,68 152,68 152,68 152,68 152,68 152,68 152,69 152,69 152,69 152,69 152,69 151,69 151,70 151,70 151,70 151,70 150,70 151,70 150,70 150,70 151,70 151,70 151,70 151,71 151,71 151,71 151,71 151,71 151,71 151,72 151,72 151,72 151,72 151,72 152,72 152,72 152,72 152,72 152,72 152,72 153,72 153,72 153,72 153,72 153,73 153,73 154,72 154,72 154,72 154,72 154,72 155,72 155,72 155,73 155,73 155,73 155,73 155,73 156,73 156,73 156,74 156,74 156,74 156,74 156,74 156,74 157,74 157,74 157,74 157,74 157,74 158,75 158,75 158,75 158,75 158,75 158,75 158,75 158,75 159,75 159,75 159,75 160,75 160,76 161,76 161,76 161,76 160,76 161,77 161,77 161,77 162,77 162,77 162,77 162,76 163,76 163,77 163,77 163,77 164,77 164,77 165,77 165,77 165,77 166,77 166,77 168,76 169,76 169,76 169,76 169,76 170,76 171,76 171,76 172,76 172,76 172,76 173,76 173,77 173,77 174,77 174,77 174,77 174,78 174,78 174,78 174,79 174,79 174,79 174,79 174,79 174,79 174,79 174,80 174,80 173,80 173,80 173,80 173,80 174,80 174,80 174,80 174,81 174,81 174,81 174,81 173,81 173,81 173,81 173,81 173,81 172,82 172,82 172,82 171,82 171,82 171,83 171,83 171,83 172,83 172,83 172,83 171,84 171,84 171,84 171,84 171,84 171,84 171,84 171,84 171,84 171,84 171,84 171,84 171,84 171,85 170,85 170,85 170,85 170,85 170,85 171,86 171,86 171,86 171,86 171,86 171,86 171,86 171,86 171,86 171,86 172,87 172,87 172,87 173,87 173,87 173,87 173,87 173,87 173,87 173,88 173,88 174,88 174,88 174,88 174,88 174,88 174,88 174,88 174,88 174,88 174,88 174,88 174,89 174,89 174,89 174,89 174,89 174,89 174,89 174,89 175,89 175,89 175,89 175,89 174,89 174,90 174,90 174,90 175,90 175,90 175,90 175,90 175,90 175,90 175,90 175,91 175,91 175,91 174,91 174,91 174,91 175,91 175,91 175,91 175,91 175,92 174,92 174,92 174,92 174,92 174,93 174,93 174,93 174,93 174,93 175,93 175,93 175,93 175,93 175,93 175,93 175,93 175,93 175,94 175,94 174,94 174,94 174,94 174,94 174,94 174,94 174,94 174,94 174,95 173,95 173,95 173,95 172,95 172,95 172,95 172,96 172,96 173,96 173,96 173,97 174,97 175,97 179,97 185,97 188,97 193,97 198,97 204,97 208,97 208,97 219,86 219,86 219,85 218,85 218,85 218,84 218,84 218,84 218,84 218,84 219,83 219,83 219,83 219,82 218,82 218,82 218,82 218,81 218,81 218,80 219,80 219,80 219,80 219,80 219,79 218,79 218,79 218,79 217,79 215,78 214,78 214,78 214,78 214,78 213,77 212,77 212,77 211,77 209,77 209,77 207,77 205,77 203,77 201,77 201,77 200,77 199,77 198,77 199,77 199,77 199,76 199,76 199,76 198,76 198,75 198,75 198,75 198,75 198,75 198,74 198,74 198,74 199,74 199,73 199,73 199,73 199,73 199,73 199,73 199,73 199,72 199,72 199,72 199,72 199,71 199,71 198,71 198,71 199,70 199,70 199,70 199,70 199,69 199,69 199,69 199,69 199,69 199,68 199,68 199,68 199,68 199,68 199,68 199,67 199,67 199,67 199,67 199,67 199,67 199,66 199,66 208,59 219,51 219,50 220,51 224,53 229,56 230,55 230,55 244,52 247,52 259,49 262,48 265,47 273,46 277,45 278,44 282,42 287,37 289,36 290,35 290,35 290,35 292,32 294,30 295,29 296,27 298,24 300,22 302,20 308,12 315,3 316,2 316,2 316,2 318,1 320,1 320,1 321,1 323,1 327,0 328,0 329,0 329,0 334,0 335,0 335,1 336,1 336,0 338,0 339,1 341,2 342,3 342,3 343,4 343,4 343,4 344,5 344,5 344,6 345,9 346,10 346,10 346,10 347,12 348,13 349,14 350,16 350,17 351,17 354,20 355,21 355,21 355,21 355,21 355,21 355,22 355,22 355,22 355,22 355,23 355,24 354,24 354,24 354,25 354,26 354,27 354,27 354,28 354,28 354,28 355,28 355,29 355,29 355,29 355,29 356,30 356,30 358,32 358,32 359,33 360,35 362,37 362,37 362,38 362,38 362,38 362,39 362,39 362,39 361,40 361,40 361,40 361,41 361,41 361,41 362,43 362,43 362,44 362,45 362,46 362,46 362,46 362,46 359,48 356,51 356,51 356,51 356,51 355,50 355,50 355,50 354,50 354,50 355,51 355,52 355,52 355,53 356,53 356,53 356,54 356,54 356,54 357,54 357,54 357,54 357,54 357,55 357,56 357,57 357,57 354,57 354,57 354,57 354,58 354,59 354,59 354,59 354,59 354,59 354,60 354,60 354,60 354,61 354,61 354,62 354,62 354,63 354,64 354,64 354,64 354,64 354,64 354,65 354,65 354,65 354,65 354,65 355,65 355,65 355,65 355,67 355,70 354,72 354,75 354,77 354,78 354,78 356,78 357,83 357,85 357,85 357,85 359,87 359,88 359,88 360,88 361,89 363,90 363,90 364,90 364,91 365,91 365,91 366,90 367,89 367,89 368,91 368,92 368,93 369,93 369,93 370,94 375,95 375,96 375,96 376,96 376,96 379,96 380,96 381,96 381,96 382,96 383,97 387,98 387,98 388,98 388,98 390,99 391,99 391,99 392,99 392,99 392,99 393,99 393,99 393,100 395,100 396,100 396,100 397,100 397,100 398,100 399,100 399,101 401,100 402,100 404,99 404,99 405,99 407,98 407,98 408,98 408,98 408,98 409,98 410,98 410,98 410,98 410,98 411,98 411,98 411,98 412,98 412,98 413,98 413,98 413,98 413,98 414,98 414,98 414,98 415,98 415,98 415,98 415,98 416,97 416,97 416,97 416,98 417,97 417,98 417,97 417,97 418,97 418,97 418,97 419,97 419,97 419,97 420,97 420,97 420,97 420,97 421,98 421,98 421,98 421,98 421,98 422,98 422,98 422,98 422,98 422,98 423,98 423,98 423,99 423,99 424,99 424,99 425,99 425,99 425,99 426,98 427,96 428,96 429,93 429,93 432,89 433,88 433,86 438,87 445,90 445,90 445,91 445,91 445,92 445,92 445,93 446,96 447,97 448,98 448,99 448,101 453,102 455,102 460,104 460,105 462,107 463,107 463,108 463,109 463,110 462,112 462,113 464,115 464,115 467,117 468,118 470,118 470,119 471,122 471,123 471,125 473,128 472,130 472,130 473,131 474,132 475,132 476,132 478,134 479,136 480,138 480,138 480,138 481,138 481,138 481,138 482,138 482,139 482,139 483,140 483,141 483,142 483,142 484,142 484,143 484,143 485,143 486,143 486,143 486,143 487,142 487,142 487,142 488,142 488,142 488,143 488,143 488,144 488,144 487,145 487,146 487,146 487,146 487,147 488,148 489,148 489,148 490,149 490,149 491,149 492,150 492,150 493,151 494,151 495,151 496,151 496,151 497,151 497,151 497,151 498,152 498,153 498,153 500,154 499,155 499,155 499,155 498,156 498,156 496,155 496,155 495,155 492,155 490,156 489,156 488,155 487,155 486,154 486,154 485,154 484,153 483,153 482,152 481,152 480,152 480,151 478,151 477,149 476,148 474,148 473,149 472,148 472,148 470,146 469,146 469,146 469,147 469,148 465,146 465,146 463,145 462,144 461,144 461,143 459,141 459,141 458,140 457,140 457,140 456,140 456,139 454,140 454,139 453,139 452,138 451,137 450,138 448,139 448,138 447,139 447,139 444,141 444,142 443,142 442,143 442,143 441,145 440,145 438,147 437,148 435,149 435,149 432,148 431,148 430,147 430,147 430,147 429,148 429,149 427,149 426,149 423,150 424,150 421,151 422,152 419,153 419,153 419,153 418,154 418,154 418,154 418,155 416,155 415,154 414,154 412,153 410,152 410,152 410,152 408,150 407,150 404,149 402,148 401,147 401,147 400,147 399,146 398,146 395,144 395,144 394,144 390,147 390,148 391,150 389,150 389,150 387,151 387,151 386,152 385,153 384,154 382,153 381,154 381,154 378,157 378,157 377,158 376,159 375,160 375,160 375,161 374,162 374,162 374,162 374,162 373,162 371,164 370,164 369,164 368,163 368,164 366,164 360,163 356,162 355,163 352,164 352,164 352,165 351,166 351,166 350,167 352,168 353,168 353,170 353,170 352,173 353,173 352,177 351,177 350,180 350,181 350,181 350,182 351,183 352,184 353,184 353,185 353,186 352,186 351,186 351,187 350,187 347,187 347,187 346,186 343,185 341,185 338,184 336,183 335,183 335,184 334,184 333,184 331,184 329,184 327,184 326,184 325,184 324,184 324,184 324,184 323,184 323,184 322,184 320,183 319,183 319,183 319,183 318,182 317,182 317,182 316,182 313,181 312,181 311,182 311,182 310,182 310,182 309,182 309,182 308,181 307,181 305,180 304,180 303,179 303,179 302,180 301,180 300,180 300,180 299,181 299,182 298,184 298,185 298,186 298,188 298,189 298,190 298,191 298,191 298,192 299,193 298,195 298,195 298,196 299,196 300,196 301,196 301,196 302,196 303,199 303,199 302,201 302,201 303,202 303,202 303,202 302,204 303,205 305,207 306,207 307,207 309,207 311,206 311,206 312,207 313,207 314,209 315,209 315,209 316,210 316,210 317,212 317,212 319,214 319,214 320,213 321,213 322,213 323,213 324,213 324,213 325,213 325,214 327,214 326,213 328,212 328,212 329,212 329,212 331,212 333,212 334,212 335,213 336,213 336,213 337,213 339,213 341,212 342,212 343,212 344,212 344,212 345,212 345,212 346,211 348,212 349,213 349,213 350,213 350,213 350,214 351,214 352,214 352,214 352,214 352,214 353,215 353,215 353,215 354,215 354,215 356,216 359,217 359,217 356,219 356,219 355,220 354,221 353,222 353,222 353,223 352,224 352,225 351,226 348,231 346,233 346,233 346,233 346,233 344,234 343,235 342,235 342,236 340,238 340,238 340,238 338,239 338,240 338,240 338,240 337,240 337,240 338,241 338,241 338,242 338,242 339,242 339,242 339,243 339,243 339,243 340,243 340,243 340,243 341,243 341,243 341,243 341,243 341,243 342,244 342,244 342,244 343,244 344,244 344,244 345,246 345,246 346,247 346,248 346,248 346,249 348,250 348,250 348,251 348,251 349,252 350,253 351,254 351,254 351,254 350,254 350,255 350,255 350,255 350,256 350,256 350,256 350,256 350,257 350,257 350,257 350,257 350,257 350,257 350,257 351,257 351,258 350,258 350,258 350,258 350,258 349,258 349,258 349,258 349,258 349,258 349,259 349,259 349,259 348,259 348,259 348,259 348,259 347,260 347,260 347,260 346,260 346,260 346,260 345,260 345,260 345,260 345,260 344,260 343,260 343,260 343,260 342,260 342,260 342,260 341,260 341,260 341,260 340,260 340,260 340,260 337,259 337,259 337,259 336,259 336,259 335,259 335,259 335,259 334,259 334,259 334,259 334,259 333,260 333,260 332,259 332,259 332,259 331,259 331,258 331,258 331,258 330,258 329,258 328,258 327,258 326,257 325,257 325,257 324,257 324,257 324,257 323,258 323,258 323,258 322,257 322,257 322,258 321,258 321,258 320,258 319,258 319,258 319,258 319,258 319,258 319,258 318,258 318,258 318,258 318,258 317,258 317,258 316,258 316,258 315,258 315,258 314,258 314,258 314,259 313,259 304,258 303,258 302,259 302,259 301,259 301,259 300,259 299,258 299,258 298,258 297,258 297,258 297,258 297,258 296,258 296,258 295,258 295,258 294,257 294,257 291,258 290,258 290,258 290,258 287,258 286,259 285,259 285,259 284,259 283,259 283,259 283,258 283,258 283,258 282,258 282,257 281,257 281,257 281,257 281,257 280,256 280,256 280,256 279,257 279,257 279,257 278,257 277,257 277,257 276,257 275,256 275,256 275,256 275,256 275,256 274,256 274,256 274,256 274,255 274,255 274,255 274,255 274,254 274,253 274,253 274,253 274,253 273,252 273,252 273,251 271,252 271,252 270,251 269,251 269,250 269,250 269,250 269,249 269,249 268,248 268,248 268,248 268,247 268,247 268,246 268,246 268,246 268,246 268,246 268,245 268,245 268,245 268,245 268,244 268,244 268,244 267,244 267,244 267,244 266,244 266,244 266,243 265,242 265,242 264,242 264,242 264,242 263,243 263,243 263,243 262,244 261,246 261,246 261,246 260,245 259,245 258,245 256,245 255,243 255,243 256,243 256,242 256,242 256,241 256,241 256,239 256,239 256,238 256,238 255,238 255,237 255,236 255,235 255,235 255,234 256,234 256,233 256,233 254,233 253,232 251,232 251,232 249,231 248,231 247,231 247,231 247,231 246,231 246,231 246,232 245,232 245,232 244,232 244,233 244,233 243,233 242,233 241,234 241,234 240,235 240,235 240,235 239,235 239,235 238,236 238,236 237,236 237,235 236,235 236,235 236,234 235,234 235,234 235,233 235,233 234,233 234,233 234,233 234,233 233,233 233,234 233,234 233,235 233,235 233,235 233,236 233,236 233,236 233,236 233,236 233,237 232,237 232,237 231,237 231,237 230,237 228,237 227,237 226,237 225,237 223,237 223,237 222,237 221,236 221,236 221,236 220,236 220,236 220,236 219,236 219,236 219,236 218,236 218,237 217,238 217,238 216,238 215,239 215,239 215,239 215,239 214,240 214,240 214,241 214,242 214,242 214,242 215,242 215,243 215,243 215,243 215,244 215,245 215,245 215,247 215,247 215,247 215,248 216,248 217,249 217,249 217,249 217,249 217,250 217,250 216,250 216,250 216,250 215,250 215,250 215,250 214,250 213,250 213,250 212,250 211,250 209,251 209,251 209,251 208,251 208,250 207,250 206,249 206,249 205,249 205,249 204,249 201,249 201,249 198,249 197,249 196,249 194,249 194,249 194,249 194,249 194,249 193,250 193,251 193,251 193,251 193,252 193,252 193,253 194,253 194,254 193,255 193,256 193,256 193,257 193,257 192,258 192,258 191,258 190,258 190,258 188,258 188,258 188,257 187,257 186,257 186,257 185,257 185,257 184,257 184,258 184,258 184,258 183,259 183,259 183,260 183,260 182,260 181,260 181,260 180,260 179,260 177,260 176,260 175,260 174,260 173,260 173,260 172,259 171,259 171,259 171,259 170,259 169,259 169,259 168,259 168,259 167,260 167,260 167,261 167,261 167,261 167,261 167,262 167,262 168,262 169,264 170,265 170,265 170,265 170,266 170,266 170,266 170,267 170,267 170,267 169,267 168,267 167,266 166,265 165,265 164,264 163,263 162,262 162,262 162,261 162,260 162,259 163,258 163,258 164,256 164,256 163,256 163,256 163,256 162,256 162,255 162,255 161,254 161,254 160,253 159,253 158,252 158,251 158,251 158,250 158,250 157,249 157,248 157,246 157,246 158,246 158,246 159,245 159,245 159,245 160,245 160,245 160,245 161,245 161,245 161,245 162,245 162,245 162,244 163,244 163,244 163,244 164,244 164,244 164,243 164,243 165,242 165,242 165,240 165,240 166,239 166,239 166,239 166,238 165,238 165,238 164,238 164,237 163,237 163,237 162,236 162,235 160,234 160,234 159,232 159,231 159,228 161,225 161,224 162,220 161,220 161,218 162,217 162,216 161,215 161,215 160,215 158,214 157,214 158,213 159,212 160,212 161,211 163,210 163,210 163,209 163,209 163,208 164,208 166,206 167,205 166,205 166,205 165,204 164,201 164,201 163,200 163,199 162,199 161,197 160,197 158,194 157,194 158,193 160,192 161,192 161,192 162,191 164,190 165,189 165,189 166,188 165,187 165,187 164,185 163,184 163,184 161,183 161,182 160,182 158,181 158,180 158,180 158,180 158,180 158,179 158,179 158,179 158,179 159,179 159,179 159,179 159,179 159,179 159,179 159,178 158,178 158,178 158,177 159,177 159,177 159,177 159,177 159,177 159,177 160,177 160,177 160,177 160,177 160,178 160,178 160,178 160,178 161,177 161,177 161,177 161,178 161,178 162,178 162,178 162,178 162,177 162,177 162,177 162,177 162,177 162,177 162,176 162,176 162,176 162,176 162,176 162,176 162,175 162,175 162,175 162,175 162,175 162,175 163,174 163,174 163,174 163,174 163,174 163,173 163,173 163,173 164,173 164,173 164,172 164,172 164,172 164,171 164,171 164,171 164,171 164,170 164,170 164,170 164,170 164,170 164,170 165,169 165,169 164,169 164,169 165,169 165,169 165,169 165,168 165,168 165,168 165,168 165,168 165,167 165,167 165,167 165,167 165,167 165,167 166,167 166,167 166,167 166,166 166,166 166,166 166,166 166,166 166,166 166,166 166,165 166,165 166,165 166,165 166,165 166,164 166,164 166,164 166,164 166,164 166,164 166,164 166,163 166,163 166,163 167,163 167,163 167,163 167,163 167,163 167,163 167,162 167,162 167,162 167,162 167,162 167,162 167,161 167,161 167,161 167,161 167,161 167,161 167,161 167,161 167,160 167,160 167,160 166,160 166,160 166,160 166,160 166,160 166,159 166,159 166,159 166,159 166,159 166,159 166,159 166,158 166,158 167,158 167,158 167,158 167,158 167,158 168,158 168,158 168,158 168,157 168,157 168,157 169,157 169,157 169,157 169,157 169,157 169,157 169,157 169,157 169,156 169,156 169,156 170,156 170,156 170,156 170,156 170,155 170,155 170,155 170,155 170,155 170,155 170,155 169,155 169,155 169,155 169,155 169,155 169,155 169,155 169,155 169,155 169,155 169,155 169,154 168,154 168,154 168,154 168,154 168,154 168,154 169,153 169,153 169,153 169,154 170,154 170,154 170,154 170,154 170,154 169,153 169,153 169,153 170,153 170,153 170,153 170,153 170,153 170,152 170,152 170,152 170,152 169,152 169,152 169,152 169,152 169,152 170,152 170,152 170,152 170,152 170,152 170,151 170,151 170,151 170,151 170,151 170,151 170,151 170,150 170,150 171,150 171,150 171,150 171,150 171,150 170,150 170,150 170,150 170,150 170,150 170,150 170,150 171,149 171,149 171,149 171,149 171,149 171,149 171,149 171,148 171,148 171,148 171,148 171,148 171,148 171,148 171,148 171,148 171,148 171,147 171,147 171,147 171,147 171,147 171,147 171,147 171,147 171,147 171,147 171,147 171,147 170,147 170,147 170,147 170,147 170,147 170,147 169,147 169,147 169,147 169,147 169,147 170,147 170,146 170,146 170,146 170,146 170,146 169,146 169,146 169,146 169,146 169,146 169,146 169,146 168,146 168,146 168,146 168,146 168,146 168,146 168,146 168,146 168,145 168,145 168,145 168,145 168,145 168,145 168,144 168,144 168,144 168,144 168,144 168,144 168,144 168,144 168,144 168,143 168,143 168,143 168,143 168,143 168,143 168,143 168,143 167,143 167,143 167,143 167,143 167,143 167,143 167,143 167,143 167,143 167,143 167,143 166,143 166,143 166,143 166,143 166,143 166,142 166,142 166,142 167,142 167,142 167,142 167,142 167,142 167,142 167,142 167,141 167,141 167,141 167,141 167,141 167,141 167,141 166,141 166,141 166,141 166,141 166,141 166,141 166,141 166,141 166,141 166,141 166,140 166,140 166,140 165,141 165,141 165,141 165,141 165,141 165,140 165,140 165,140 165,140 165,140 165,140 165,140 165,141 165,141 164,140 164,140 164,140 164,140 164,140 164,140 164,140 164,140 164,140 164,140 164,140 163,140 163,140 163,140 163,140 163,140 163,139 163,139 163,139 162,139 162,139 162,139 162,140 161,140 161,140 161,140 161,140 161,140 161,140 161,139 161,139 160,139 160,139 160,139 160,139 160,139 160,139 159,139 159,139 159,139 159,139 159,139 159,139 159,139 159,139 158,139 158,138 158,138 157,138 157,138 157,138 156,138 156,138 156,138 156,138 156,138 156,138 156,138 156,138 156,138 156,138 156,138 155,137 155,137 155,137 155,137 155,137 155,137 155,137 155,137 155,137 154,137 154,137 154,137 154,137 154,137 154,137 154,137 153,137 153,137 153,137 153,137 153,137 153,137 153,137 153,137 152,137 152,137 151,137 151,137 151,136 151,136 150,136 150,136 150,136 150,136 149,136 143,134 142,134 142,134 142,134 141,134 140,134 140,134 139,134 139,134 139,133 139,134 139,134 138,134 138,134 138,134 138,134 138,134 138,133 138,133 137,133 137,133 137,134 136,135 136,135 136,135 136,135 135,134 135,134 135,134 134,135 134,135 133,135 133,135 133,135 133,136 133,137 133,137 133,139 133,139 133,139 134,140 134,141 134,141 134,141 134,141 134,142 134,142 134,142 134,143 134,143 133,143 133,144 133,145 133,145 133,145 133,145 133,145 132,146 132,146 132,146 131,146 130,146 130,146 129,146 129,146 129,146 129,146 128,146 128,146 128,146 127,146 126,147 126,147 126,147 126,147 125,147 124,147 124,147 123,147 122,147 122,147 122,147 121,147 121,147 121,147 121,147 120,146 120,146 119,146 119,146 118,146 118,146 118,146 117,146 117,146 117,146 117,146 116,146 116,147 116,147 116,147 115,147 115,147 115,147 115,147 114,147 114,146 113,146 113,146 112,146 112,146 112,146 111,146 110,146 108,146 108,146 107,146 107,146 106,146 106,147 105,147 105,147 104,147 104,147 104,147 103,147 103,147 102,148 102,148 101,148 101,148 101,149 100,149 100,149 98,149 98,149 97,149 96,149 96,149 95,149 94,149 94,149 94,149 93,149 93,149 92,149 92,149 90,149 90,149 90,149 89,149 89,149 89,149 89,149 89,149 88,149 88,149 87,149 87,149 86,149 86,149 85,149 84,149 84,149 84,150 83,150 82,150 81,150 81,150 80,151 80,151 80,151 80,151 80,150 80,150 80,150 79,150 78,150 78,150 78,150 77,150 77,150 77,150 77,150 77,150 77,150 77,150 76,150 76,150 76,150 76,150 75,150 75,149 75,149 74,149 73,149 73,149 72,149 72,149 72,149 72,149 72,149 71,149 71,149 71,149 70,149 69,149 68,149 67,149 66,149 64,148 64,148 63,149 62,148 62,148 61,149 61,149 61,149 61,149 60,149 60,149 60,149 59,149 59,149 58,149 58,149 57,149 57,149 57,149 56,149 56,148 56,148 55,148 54,148 54,148 53,148 52,148 51,148 50,148 49,148 49,148 49,147 49,147 48,147 48,147 46,147 45,146 45,146 43,146 41,145 41,145 41,145 40,145 40,145 40,145 39,145 38,145 38,144 38,144 37,144 37,144 36,144 36,144 36,144 35,144 34,143 34,143 33,143 33,143 32,143 32,143 31,143 31,142 30,142 29,142 29,142 28,142 28,142 27,141 27,141 27,141 26,141 26,140 26,140 25,140 25,140 24,140 23,140 23,140 22,140 21,140 20,139 19,139 18,138 17,137 16,137 15,137 15,137 14,136 13,135 13,135 13,135 13,135 12,134 12,134 12,134 12,134 12,134 11,133 11,133 11,133 11,132 10,131 10,130 10,130 10,129 10,129 10,129 10,129 9,128 9,127 9,126 9,125 9,125 9,124 9,124 9,124 9,124 8,123 8,123 8,122 8,122 8,122 8,122 8,122 8,122 9,121 9,121 9,121 9,120 9,118 9,118 9,117 10,117 10,117 10,117 10,116 10,116 10,116 10,116 10,116 10,116 10,116 10,115 10,115 10,115 10,115 10,114 9,114 9,114 9,114 9,114 9,114 9,113 9,113 10,113 10,113 10,113 10,113 10,113 10,113 11,113 11,112 11,112 11,112 11,112 11,112 12,111 12,111 12,111 13,110 13,110 13,110 13,110 13,109 13,109 13,109 13,109 13,109 13,109 13,109 13,109 13,109 13,109 13,109 13,109 13,109 13,109 13,109 13,109 13,108 13,108 12,108 12,108 13,108 12,108 12,108 12,108 12,108 12,108 11,108 11,108 11,108 10,108 10,108 10,108 10,108 10,107 10,107 10,107 10,107 10,107 10,107 10,107 9,107 9,107 9,107 9,107 9,107 9,107 10,107 10,107 10,107 9,107 9,107 9,107 9,107 9,107 9,107 9,107 9,107 9,107 9,107 9,107 9,106 9,106 9,106 8,106 8,106 8,106 8,106 8,106 8,106 8,106 8,106 8,106 8,106 8,106 8,106 8,106 8,106 7,106 7,106 7,106 7,106 7,106 7,106 7,105 7,105 7,105 7,105 7,105 6,105 6,105 6,105 6,105 6,105 6,105 6,105 6,105 6,104 6,104 6,104 6,104 6,104 6,104 5,104 5,104 5,104 5,104 5,104 5,104 5,104 5,104 6,103 7,103 9,102 9,102 9,102 9,102 9,101 9,101 9,100 9,100 9,100 9,100 9,100 9,99 9,99 9,99 9,99 10,99 10,99 10,98 10,98 10,98 11,98 11,97 11,97 11,97 11,97 11,97 11,97 10,97 10,97 10,97 10,97 10,97 10,97 9,97 9,97 9,97 9,96 8,96 8,96 8,96 8,95 8,95 8,95 8,95 8,94 8,94 8,94 7,94 7,93 7,93 6,92 6,92 6,91 5,91 5,91 5,91 4,91 4,91 4,90 3,90 3,90 2,89 2,89 3,89 3,89 2,89 2,89 2,89 2,89 2,89 1,88 1,88 0,87 0,87 0,87 0,86 0,86 1,85 1,85 0,85 0,85 0,85 0,84 0,84 0,83 0,83 0,82 0,82" id="6110" class="canton" fill="steelblue" stroke-width="1" stroke="white" geotype="canton" geoname="Damigny" code_insee="6110" code_departement="61" nom_departement="Orne" code_region="28" nom_region="Normandie"/></svg>