<?xml version="1.0" encoding="utf-8"?>
<svg version="1.1" id="svgmap" xmlns="http://www.w3.org/2000/svg" xmlns:xlink="http://www.w3.org/1999/xlink" x="0px" y="0px" width="100%" height="100%" viewBox="0 0 500 383">
<polygon points="294,8 297,7 300,5 303,4 303,2 312,1 317,0 319,0 321,0 322,0 324,0 334,1 338,1 340,1 342,1 345,2 348,2 350,2 351,2 353,1 355,1 356,0 357,2 358,2 359,3 361,4 364,5 370,7 374,8 375,8 380,9 382,10 384,12 386,15 388,16 389,17 391,18 391,18 393,18 395,19 397,21 398,22 398,23 399,23 399,24 399,28 400,30 401,32 401,34 402,34 402,36 402,36 403,37 404,40 407,44 410,49 421,47 427,46 433,44 434,44 435,44 435,44 437,46 440,49 442,48 446,47 446,47 446,47 449,46 451,46 452,48 459,62 460,63 465,73 475,94 483,112 484,113 485,115 487,118 492,118 492,119 492,121 492,125 491,127 490,128 488,132 490,140 489,140 489,142 489,146 491,148 492,151 495,153 491,156 497,160 500,162 495,164 494,164 479,168 477,170 472,174 471,175 471,176 467,181 466,182 462,184 462,184 458,187 453,190 451,190 449,192 448,194 447,194 449,196 447,196 446,198 445,201 445,201 445,202 445,202 444,202 444,203 443,203 440,204 437,205 434,206 432,207 426,210 425,211 423,212 419,215 416,218 412,219 409,221 403,224 402,225 400,226 399,227 397,228 396,228 396,229 395,229 394,230 393,232 392,232 392,232 391,233 391,233 391,233 391,233 391,233 390,233 387,234 386,234 385,235 383,235 382,236 378,238 376,238 375,239 375,239 375,239 375,239 375,239 375,239 375,240 375,240 378,245 381,250 383,253 383,254 384,256 385,256 385,257 385,257 385,257 385,257 385,257 385,257 384,257 384,258 383,258 383,258 382,258 380,258 378,258 375,259 371,259 369,260 367,260 366,260 365,260 364,260 364,260 363,260 363,260 362,260 362,260 362,259 361,259 361,259 360,258 359,257 352,251 352,250 352,250 352,250 351,251 351,251 351,253 351,253 351,253 351,254 351,254 350,255 350,256 349,256 349,256 349,257 349,257 348,258 347,259 347,259 346,260 345,261 345,261 345,262 344,262 343,263 342,263 342,263 341,264 339,264 338,264 338,264 337,265 334,266 333,267 328,269 326,270 325,271 324,271 324,271 323,272 321,273 321,274 321,274 321,274 321,274 321,274 321,275 321,275 321,275 321,276 320,276 320,277 318,279 317,280 315,281 315,282 315,282 315,282 315,282 314,282 313,282 313,282 312,282 312,282 311,282 311,282 311,282 310,282 309,283 309,283 309,283 309,283 308,284 306,287 306,288 305,289 305,290 304,291 304,291 304,291 304,291 304,292 305,292 305,293 305,294 305,295 305,295 305,295 305,296 304,298 304,299 303,300 301,304 300,305 300,306 299,307 299,308 299,309 299,309 299,309 298,313 298,313 298,314 298,315 298,316 297,317 297,317 296,319 295,320 294,322 293,324 293,325 293,325 292,326 292,326 292,326 291,326 290,327 289,327 288,328 287,329 286,330 285,330 284,331 283,331 281,332 280,332 279,333 278,333 276,333 275,334 274,334 274,334 272,334 271,334 269,335 267,335 265,335 264,335 263,335 262,336 261,336 261,336 261,336 260,336 260,336 260,336 258,337 257,338 255,338 253,339 252,340 250,341 249,341 249,342 247,343 246,344 245,344 243,345 242,346 239,347 238,348 237,348 237,348 236,348 235,349 235,350 234,350 233,351 233,351 232,352 231,352 231,353 229,356 228,357 228,357 227,359 226,360 225,362 223,364 222,365 221,366 220,367 218,369 217,370 217,370 217,370 215,371 215,372 214,372 214,372 213,372 213,372 211,373 209,373 208,373 208,373 207,374 206,374 205,374 205,374 205,375 204,375 203,376 202,377 202,377 201,377 201,378 199,378 198,378 198,378 196,378 194,378 187,379 183,380 182,381 178,382 175,382 168,382 167,383 162,383 159,383 156,383 150,383 147,383 141,382 141,382 130,381 124,381 121,381 119,381 116,382 116,382 116,382 106,381 95,380 87,379 84,379 81,377 80,377 79,375 78,373 78,372 77,372 76,372 76,371 75,371 73,371 71,371 70,372 66,373 64,373 58,373 56,373 55,373 53,372 51,372 50,371 46,369 45,368 41,363 40,361 39,360 39,357 37,348 37,347 26,341 13,333 0,327 2,325 2,325 2,324 2,324 2,323 2,323 2,323 2,323 2,322 2,321 2,321 1,320 1,320 1,319 1,316 1,316 1,315 2,313 2,312 2,312 2,312 2,311 2,311 3,311 3,311 3,310 3,310 3,309 2,308 2,307 2,306 2,306 2,305 2,305 1,304 1,304 1,303 0,302 0,302 0,301 0,300 0,299 0,298 0,298 0,297 0,297 0,297 0,297 1,296 1,296 4,293 5,293 5,292 5,292 5,292 6,292 6,292 6,292 6,292 6,292 7,291 7,291 7,291 7,291 8,291 8,291 8,291 9,291 9,291 9,291 9,291 9,291 9,289 9,289 9,288 10,286 10,286 10,285 10,284 10,284 10,283 10,283 10,283 10,282 9,282 9,281 9,280 8,279 7,279 7,278 7,278 6,278 6,277 3,276 3,276 3,275 3,275 3,275 3,275 3,274 3,273 3,272 4,272 4,272 4,272 4,272 4,272 5,271 5,271 6,271 6,271 6,271 7,271 7,271 8,271 8,270 8,270 8,270 9,270 10,270 10,269 11,269 11,269 12,269 14,268 14,267 14,267 15,267 15,267 15,266 15,265 15,265 15,265 15,265 15,265 16,264 16,264 17,264 17,264 18,264 18,264 19,264 20,264 22,263 23,263 23,263 23,263 23,263 23,263 24,263 25,263 26,262 28,261 28,261 29,260 30,260 30,260 30,260 30,259 31,259 31,259 31,259 31,259 32,259 33,258 33,258 33,258 34,258 34,258 34,257 35,257 35,257 35,256 35,256 35,256 36,255 36,254 36,253 37,252 37,252 37,252 37,252 38,251 38,251 39,251 40,250 41,250 41,250 42,250 42,250 42,250 43,251 43,251 43,251 44,251 44,251 44,251 44,251 44,251 44,250 44,250 44,248 43,248 43,247 43,247 43,247 43,246 43,246 43,246 43,245 43,245 43,245 43,243 43,243 43,242 43,241 43,241 43,240 42,240 42,239 42,238 42,238 43,237 43,236 43,235 43,234 43,234 43,234 44,234 46,233 46,232 47,232 47,232 47,232 47,232 47,232 47,232 48,232 48,231 48,231 49,230 49,228 50,227 50,227 50,226 50,226 50,225 50,225 50,225 50,224 50,224 50,224 50,224 49,224 49,224 49,224 48,224 47,223 47,223 47,223 47,223 46,223 46,222 46,222 45,221 45,221 44,219 44,219 44,218 43,218 43,218 43,217 43,216 43,215 43,215 43,215 43,214 42,214 42,214 42,214 42,213 42,213 42,212 42,212 43,212 43,210 43,210 44,209 44,209 44,208 44,208 44,205 44,205 44,205 44,204 45,203 46,200 47,199 47,197 48,197 48,196 48,196 48,195 48,194 48,194 48,193 48,192 48,192 48,191 48,191 48,191 47,191 47,191 47,191 46,191 44,190 43,190 43,190 42,190 42,189 40,189 40,189 39,188 39,188 38,188 38,188 38,188 37,188 37,188 37,188 37,188 37,188 36,188 36,188 36,189 36,189 35,189 35,189 35,189 35,190 35,190 35,190 34,190 34,190 34,190 34,190 33,190 33,190 32,190 31,190 31,189 30,189 29,189 28,189 28,189 28,189 27,189 25,188 23,188 21,187 20,187 19,186 19,186 19,186 19,186 19,186 19,186 22,183 23,182 23,182 23,182 23,182 23,181 23,181 24,180 24,180 24,180 24,179 26,180 26,180 26,180 26,180 26,179 25,179 25,179 24,178 24,178 24,178 24,178 24,177 24,177 24,177 24,177 24,176 25,176 25,175 25,175 25,175 27,174 27,174 27,174 27,174 27,174 27,173 26,173 26,172 26,172 26,172 26,172 26,172 27,171 27,171 27,171 28,170 29,170 29,170 29,169 30,169 30,169 30,168 30,168 30,168 30,168 30,168 30,168 26,165 24,163 23,162 22,162 22,161 22,161 22,161 22,161 22,161 22,161 23,161 23,161 24,160 24,160 25,160 25,160 25,159 25,159 26,158 26,157 27,156 27,156 27,155 27,155 27,155 27,155 27,155 27,155 28,154 28,154 28,154 28,154 29,154 30,154 36,154 37,154 37,154 38,154 38,154 38,154 39,154 39,154 39,154 39,154 40,155 40,155 40,155 40,155 41,155 42,156 43,156 43,156 44,156 44,156 44,156 45,156 46,156 46,156 47,156 48,156 48,156 50,156 50,156 50,156 50,156 51,157 53,158 54,159 54,159 54,159 54,159 55,160 55,160 56,161 57,161 57,162 58,162 59,162 59,162 59,163 60,163 60,163 61,163 61,163 62,163 62,163 63,163 64,163 67,162 67,162 68,162 68,162 69,162 69,162 70,162 71,163 73,163 74,164 75,164 76,164 77,164 77,164 78,164 78,164 79,164 79,164 80,163 80,163 81,163 82,163 83,162 83,162 85,161 86,160 87,160 87,159 88,159 89,158 90,158 90,158 91,158 92,157 93,157 93,157 93,157 94,157 94,157 94,158 95,158 95,158 96,158 96,159 96,159 97,159 99,163 99,164 100,165 101,166 102,166 102,167 102,167 103,167 103,167 103,167 104,168 105,168 106,168 106,168 107,169 108,169 108,169 108,168 109,168 112,168 113,168 114,168 115,168 117,167 118,167 118,167 119,167 120,167 121,167 123,167 124,166 125,166 125,166 126,166 127,166 128,166 128,166 129,166 130,166 130,166 131,166 133,167 136,167 136,168 137,168 137,168 138,168 138,168 138,167 139,167 139,167 140,167 141,166 143,165 144,164 144,164 144,164 145,163 145,163 147,161 147,161 147,161 148,161 148,160 148,159 149,158 150,157 150,157 150,156 151,156 151,154 152,154 152,153 152,153 152,153 152,153 153,153 153,153 154,153 154,153 155,153 155,153 155,153 156,153 156,153 158,154 159,155 160,155 162,156 163,157 164,157 165,158 165,158 166,158 166,158 166,158 166,158 167,158 168,157 168,157 168,157 169,157 170,156 170,156 170,156 171,156 172,155 173,155 173,155 174,155 174,155 174,155 175,155 175,155 175,156 176,156 177,156 177,157 178,158 179,159 180,159 180,159 181,159 181,159 182,159 182,159 183,160 183,159 184,159 185,159 185,160 186,160 187,160 187,160 188,160 188,160 189,161 189,161 191,161 191,161 192,161 193,161 193,161 193,161 194,161 194,160 195,160 195,159 195,159 195,158 195,157 195,157 196,157 196,156 196,156 197,156 197,156 198,156 198,156 199,156 199,156 199,156 200,156 200,156 202,156 204,157 205,157 206,157 206,157 207,158 207,158 208,159 208,159 210,161 210,161 211,162 211,162 212,162 212,162 212,162 212,163 214,163 215,164 215,165 216,165 216,165 217,166 220,167 221,167 221,168 222,168 222,169 222,169 223,169 224,169 225,170 226,170 226,170 227,170 228,170 231,170 233,170 235,170 236,170 237,170 237,170 238,170 239,170 241,171 243,171 244,171 244,171 245,171 246,171 246,171 247,171 247,171 247,171 248,170 248,170 249,170 251,168 252,167 253,167 253,166 255,165 255,165 256,165 256,165 258,165 260,164 261,164 261,164 263,164 264,164 265,164 265,164 267,163 267,163 267,163 267,163 267,163 267,163 267,163 267,163 267,163 267,162 267,162 267,162 267,162 267,161 267,161 267,161 268,160 268,160 268,159 268,158 269,157 269,157 269,157 269,156 269,156 269,156 269,155 268,155 268,154 268,154 268,154 268,154 267,153 267,153 267,152 266,151 265,151 265,151 265,151 265,150 265,150 264,150 263,149 262,149 262,149 262,149 261,149 261,148 260,147 260,147 260,147 260,147 259,147 259,146 259,146 259,146 259,146 260,146 260,145 260,145 260,145 261,144 261,144 261,143 261,143 262,143 262,142 268,138 269,138 269,137 270,137 270,137 270,136 271,136 271,136 271,135 271,135 272,133 272,132 273,132 273,131 273,131 273,131 273,130 273,130 273,130 273,129 273,129 273,129 273,129 272,128 272,128 272,127 272,127 271,127 271,126 271,126 271,125 271,125 271,125 271,124 271,124 271,123 271,123 271,122 271,122 271,121 271,120 271,119 271,118 271,118 271,118 271,117 271,117 270,117 270,117 269,117 269,117 268,117 268,117 268,117 268,117 268,116 268,115 267,114 267,114 267,113 267,113 267,113 266,113 266,113 266,113 266,113 266,113 266,113 266,113 266,113 266,113 266,113 265,113 264,112 262,112 262,112 261,112 261,112 262,111 262,111 262,111 263,111 263,110 265,109 265,109 266,108 266,108 267,108 267,107 268,107 268,107 268,107 268,107 268,107 268,106 267,106 268,106 268,106 268,106 268,105 268,105 269,104 269,104 270,103 271,103 271,102 271,102 272,102 272,102 272,101 272,101 272,101 271,100 271,100 271,100 271,100 271,100 271,100 272,99 273,99 273,98 273,98 274,98 274,97 274,96 275,96 275,96 275,96 275,96 275,96 275,95 275,95 276,95 275,95 275,95 275,95 275,94 275,94 274,93 274,93 274,93 274,93 273,92 273,92 273,92 273,92 272,92 272,91 271,91 271,91 270,90 269,90 269,90 269,90 269,89 269,89 269,89 269,89 268,88 268,88 268,88 268,88 268,87 268,87 268,87 267,87 267,87 266,87 266,87 266,87 266,86 265,86 265,85 264,85 264,85 263,84 263,84 262,83 262,83 262,83 261,82 261,81 261,80 260,80 260,79 259,79 259,78 259,78 259,78 259,78 259,78 259,78 259,77 259,77 259,77 259,77 258,77 258,77 258,76 258,76 257,76 256,76 256,76 255,75 255,75 254,75 254,74 253,74 253,74 253,73 253,73 253,73 253,73 253,72 253,72 253,71 253,71 252,71 252,71 252,71 252,70 251,70 251,70 251,69 251,69 251,69 250,68 250,68 250,68 250,68 249,68 248,68 248,68 248,67 248,67 248,67 247,67 247,67 247,67 246,67 246,67 246,67 246,67 245,67 245,67 245,67 245,67 243,66 243,66 243,65 241,65 241,65 240,65 240,64 240,64 240,64 240,64 240,63 240,63 240,63 240,62 240,62 240,62 240,62 240,62 240,61 240,61 240,61 240,61 240,61 240,61 240,60 241,60 241,59 242,59 242,59 241,59 240,58 238,57 237,57 235,56 231,55 227,53 226,53 225,53 225,52 224,52 224,52 223,51 222,50 222,50 222,50 221,50 221,50 221,50 220,50 219,50 219,50 218,50 218,50 218,50 218,49 218,49 218,49 218,49 218,49 218,48 218,48 218,48 219,48 219,48 220,48 221,48 222,47 222,47 224,47 226,47 227,47 228,47 228,47 229,47 229,47 229,47 230,47 231,47 231,48 231,48 231,48 232,48 232,48 232,48 233,48 234,47 235,47 235,47 236,47 236,47 236,47 237,47 237,47 237,48 238,48 239,48 239,48 239,48 240,48 240,48 241,48 242,48 243,48 245,49 245,49 246,49 246,49 247,49 247,49 247,49 248,49 249,49 250,49 252,49 254,49 255,49 256,49 257,49 258,49 258,49 259,49 259,49 260,49 260,49 260,48 261,48 261,48 261,48 261,48 262,47 262,47 262,47 262,46 262,46 262,46 262,45 263,45 263,45 263,45 264,44 265,44 265,44 266,44 266,43 266,43 267,43 268,43 268,43 268,43 269,43 269,43 270,43 270,43 270,44 271,44 271,44 272,44 272,44 272,44 272,44 273,44 273,45 273,45 274,44 275,44 276,44 276,44 276,44 277,44 277,44 277,44 277,44 277,44 277,44 277,44 277,43 277,43 277,43 277,42 277,42 276,41 276,40 276,40 276,40 276,39 276,39 276,38 276,36 276,36 275,34 275,33 275,33 275,33 275,33 276,32 276,32 277,32 277,32 277,32 277,31 277,31 277,31 277,30 276,30 276,28 276,27 276,27 276,26 276,26 276,26 276,25 276,25 276,24 277,24 277,22 277,22 277,21 277,21 277,21 277,21 277,21 277,21 278,20 279,20 279,20 280,19 280,19 280,19 280,18 281,17 281,17 281,17 281,17 282,17 282,16 282,16 283,16 284,16 284,16 285,16 286,15 287,15 287,15 288,15 288,15 288,14 288,14 289,14 289,13 290,12 290,11 291,10 291,10 291,9 291,9 292,8 292,8 292,8 292,8 292,8 293,8 294,8" id="6308" class="canton" fill="steelblue" stroke-width="1" stroke="white" geotype="canton" geoname="Chamalières" code_insee="6308" code_departement="63" nom_departement="Puy-de-Dôme" code_region="84" nom_region="Auvergne-Rhône-Alpes"/></svg>