<?xml version="1.0" encoding="utf-8"?>
<svg version="1.1" id="svgmap" xmlns="http://www.w3.org/2000/svg" xmlns:xlink="http://www.w3.org/1999/xlink" x="0px" y="0px" width="100%" height="100%" viewBox="0 0 500 298">
<polygon points="0,157 0,157 1,157 1,157 1,156 2,156 2,156 3,156 3,156 3,156 4,155 6,155 6,155 7,155 7,154 9,154 9,154 10,153 10,154 11,154 12,154 12,154 12,154 12,154 12,153 12,153 12,153 12,153 12,153 12,153 12,153 12,153 12,152 12,152 12,152 13,152 13,152 13,152 13,152 14,151 13,150 13,150 12,150 13,149 14,149 12,148 12,148 12,148 12,148 12,147 12,147 13,147 13,147 14,146 14,146 14,147 15,147 19,147 21,147 21,147 22,147 21,147 21,147 21,147 23,145 23,145 25,144 24,144 24,143 24,143 25,143 25,143 26,143 27,142 28,143 29,143 30,143 30,144 30,143 29,143 30,142 31,143 33,144 33,144 33,144 34,144 34,144 34,143 34,143 35,143 35,143 35,143 35,143 35,144 35,143 35,143 36,143 36,143 36,142 36,142 36,142 37,142 37,142 37,141 37,141 38,141 38,141 38,141 38,141 38,140 39,140 39,140 39,140 39,140 39,140 40,140 40,140 41,140 41,140 41,140 42,140 42,140 42,140 42,139 43,139 44,139 45,138 46,138 46,138 46,137 46,137 46,137 46,137 46,137 46,137 46,137 47,137 47,137 48,137 48,137 48,137 48,137 49,138 49,138 50,137 50,137 50,137 51,137 51,137 51,137 52,136 53,136 53,136 53,136 53,136 54,136 57,138 57,138 58,138 59,138 59,138 60,138 60,138 61,139 63,139 63,140 63,140 62,140 61,141 61,141 60,141 60,141 61,141 61,142 62,142 62,142 62,142 62,142 62,142 62,143 62,143 62,143 64,143 64,143 64,143 65,143 65,143 65,143 65,143 66,144 67,144 68,144 69,144 69,144 69,144 69,145 69,145 69,145 69,145 70,146 70,146 71,146 72,146 72,146 73,146 73,146 74,146 74,146 74,146 73,146 74,146 74,147 74,147 74,147 74,147 75,148 76,147 76,147 76,147 77,147 77,147 77,147 78,146 78,146 78,146 78,146 79,145 79,145 80,144 80,144 80,144 80,144 81,143 81,143 82,143 83,143 83,143 84,142 84,142 84,142 84,142 83,142 83,141 83,141 84,141 84,141 85,141 85,141 85,141 85,141 85,141 86,141 86,141 85,140 85,139 85,139 86,139 86,139 84,138 84,138 84,138 84,137 85,137 85,137 85,137 86,136 86,137 87,136 88,136 88,136 89,137 91,136 91,136 91,136 91,136 91,136 91,136 91,136 91,136 91,136 91,136 91,136 90,136 90,136 90,136 90,136 90,136 90,136 90,136 90,136 90,135 90,135 90,135 90,135 90,135 90,135 90,135 90,135 90,135 90,135 90,135 90,134 89,134 89,134 90,134 90,133 91,133 92,132 91,132 93,131 92,130 92,130 91,129 90,129 89,128 88,128 88,128 88,128 89,127 89,126 89,126 89,126 90,125 89,125 90,124 91,124 94,128 95,128 97,128 98,129 98,130 100,131 101,132 103,132 104,132 105,132 107,132 107,133 108,133 110,133 111,131 112,130 113,130 115,130 117,131 119,131 120,131 121,132 122,133 123,133 123,133 124,131 124,130 125,129 126,129 126,129 126,128 126,128 127,127 128,127 128,127 129,127 129,127 129,127 130,127 130,126 130,124 130,124 130,124 130,123 131,123 132,123 132,122 133,121 132,120 131,120 132,119 133,119 133,118 134,118 134,118 134,118 134,118 136,117 136,117 137,116 138,116 138,116 139,117 139,117 139,117 139,117 139,117 139,117 139,117 139,117 140,117 140,117 140,118 140,118 140,118 140,118 140,118 141,118 141,118 141,118 141,118 141,118 141,118 141,118 141,118 142,118 142,119 142,119 142,119 142,119 142,119 142,119 142,119 142,120 142,120 142,120 142,120 143,120 143,120 143,119 143,119 143,119 143,119 143,119 143,119 144,119 144,118 145,118 145,118 145,118 148,119 149,119 150,119 152,119 152,118 154,116 155,117 155,117 154,118 154,119 157,119 157,119 157,119 157,119 158,118 158,118 158,118 158,118 158,118 158,118 158,117 158,117 159,117 159,117 159,116 159,116 160,116 160,116 160,116 161,116 161,115 162,115 163,114 163,114 163,114 163,114 163,114 164,113 164,113 164,113 164,113 164,113 164,113 164,112 164,112 165,111 165,111 165,110 165,110 165,110 165,110 164,110 164,110 164,110 164,110 164,110 163,109 163,109 163,109 163,109 163,109 163,109 163,108 163,108 163,108 163,108 163,108 163,107 163,107 163,107 163,107 163,107 163,107 163,107 163,107 163,107 164,107 164,107 164,106 164,106 164,106 163,105 164,105 164,105 164,105 164,105 164,105 164,105 164,105 165,105 165,105 165,104 165,105 166,105 166,105 166,105 166,106 167,106 167,106 167,106 167,106 168,106 168,106 168,106 168,106 169,106 170,107 170,107 171,107 171,107 171,106 172,106 172,106 173,106 173,106 175,107 175,107 176,106 176,105 176,105 176,105 176,105 177,105 177,105 177,104 179,105 179,105 179,105 179,105 180,105 180,104 180,104 181,104 181,104 181,103 181,103 181,103 181,103 181,103 181,103 181,102 181,102 181,102 181,102 181,102 181,102 181,102 181,102 182,102 182,102 182,102 182,101 182,101 182,101 183,101 184,101 184,101 184,101 184,100 184,100 184,100 184,100 184,100 184,100 184,100 184,100 185,99 184,99 185,99 185,98 185,98 186,98 186,97 187,97 187,97 187,97 187,97 187,97 187,96 187,96 187,96 187,96 188,96 188,95 188,95 188,95 188,95 188,95 188,94 189,94 190,93 191,92 191,92 191,92 191,92 190,91 189,91 188,91 187,91 186,91 185,91 183,91 183,91 183,91 183,91 183,91 183,91 183,91 182,91 182,90 182,90 182,90 182,90 182,90 182,90 182,90 182,90 182,90 182,90 182,90 181,90 181,89 181,89 181,89 181,89 180,89 180,89 179,88 179,88 179,88 178,88 178,88 177,87 177,87 177,87 177,87 176,87 176,87 176,87 175,87 175,86 174,86 174,86 173,86 173,86 173,86 172,86 171,86 171,86 170,86 170,86 170,86 170,86 169,86 169,86 169,86 169,85 168,85 168,84 167,84 167,84 166,84 165,83 165,82 165,83 164,83 164,83 163,83 163,83 163,83 162,83 162,83 162,83 161,83 160,83 160,84 158,84 158,84 157,84 156,84 155,84 155,84 155,84 155,84 155,84 154,84 154,84 154,84 154,84 154,84 154,84 154,84 154,84 154,83 153,83 153,83 152,83 152,83 152,83 152,83 152,83 152,82 152,82 152,82 152,82 151,82 151,82 151,82 151,82 151,83 151,83 151,83 151,83 151,83 150,83 150,83 150,83 150,83 150,83 150,83 149,83 149,83 149,82 149,82 149,82 149,82 149,81 149,81 149,81 149,81 149,81 148,81 148,81 148,81 148,81 148,81 148,81 148,80 148,80 148,80 147,80 147,80 147,80 147,80 147,80 146,80 146,80 146,80 146,80 146,80 146,80 146,80 146,79 146,79 146,79 146,79 146,79 145,80 145,80 145,80 144,80 144,80 144,80 144,80 144,80 144,80 144,80 144,79 144,79 144,79 143,78 143,78 143,78 143,79 143,79 142,79 142,79 142,79 142,79 142,79 142,78 142,78 142,78 142,78 141,78 141,78 141,78 141,78 140,78 140,78 140,78 140,78 139,77 139,77 138,77 138,77 138,76 138,76 138,76 138,76 138,76 138,75 138,75 138,75 138,75 138,75 137,75 137,75 137,75 137,75 137,75 136,74 136,74 136,74 136,74 135,74 135,74 135,74 134,74 134,74 134,74 134,74 134,74 133,74 133,75 133,75 133,75 133,75 133,75 133,75 132,75 132,75 132,75 132,75 132,75 132,76 131,76 131,76 130,76 130,76 130,77 129,77 129,77 129,77 129,77 128,77 127,77 127,77 127,77 126,77 126,77 126,77 126,77 126,77 125,77 125,77 125,77 125,77 125,76 124,76 124,76 124,76 124,75 124,75 124,75 123,76 122,76 122,76 122,76 121,77 121,77 121,77 120,77 120,77 120,77 120,77 119,77 119,77 119,77 119,77 119,77 119,77 118,76 118,76 118,76 118,77 118,77 118,77 118,76 118,76 117,76 117,76 117,76 117,76 117,76 117,76 117,76 117,75 117,75 117,75 117,75 117,75 117,75 116,75 116,75 116,75 116,75 116,75 116,74 116,74 116,74 116,74 117,74 117,74 116,74 116,74 116,74 116,73 116,73 116,73 116,73 115,73 115,73 115,73 115,73 115,73 115,73 115,73 115,73 115,73 115,73 115,72 115,72 115,72 115,72 115,72 115,72 114,72 114,72 114,71 113,71 113,71 113,71 113,71 113,71 113,71 113,71 112,71 112,71 112,71 112,71 112,71 112,70 112,70 112,70 112,70 112,70 112,70 112,70 111,70 111,70 111,70 111,69 111,69 110,69 110,69 110,69 110,70 110,70 110,70 110,70 110,70 110,70 110,69 110,69 109,69 109,69 109,69 109,69 109,69 108,69 108,69 108,69 108,69 108,69 108,69 108,69 107,69 107,69 107,69 107,69 107,69 107,69 107,69 107,69 106,69 106,69 106,69 106,69 106,69 106,69 106,69 106,69 106,69 106,69 106,68 106,68 106,68 106,68 105,68 105,68 105,68 105,68 105,68 105,69 104,69 104,69 104,69 104,69 104,69 104,68 103,68 103,68 103,68 103,68 102,68 102,68 102,68 102,68 102,68 102,68 102,68 102,68 102,67 102,67 101,66 101,66 101,66 101,66 101,66 101,66 101,65 101,65 100,65 99,64 99,64 99,64 99,64 99,63 99,63 99,63 99,64 99,64 98,64 98,64 98,64 98,64 98,64 98,64 98,63 98,63 98,63 98,63 98,63 98,63 98,63 97,63 97,63 97,62 97,62 96,62 96,62 96,63 96,63 96,63 96,63 96,63 96,63 96,63 95,63 95,63 95,63 95,63 95,63 95,62 95,62 95,62 95,62 94,62 94,62 94,61 94,61 94,61 94,61 94,61 94,61 94,61 93,61 93,61 93,61 93,60 94,60 94,60 94,60 94,60 94,60 94,59 94,59 94,59 94,59 93,59 93,59 93,59 94,59 94,59 94,59 94,59 94,59 94,59 94,59 94,59 94,59 94,59 94,58 94,58 93,59 93,59 93,59 93,59 93,58 93,58 93,58 94,58 94,58 94,58 94,58 94,58 93,58 93,58 93,58 93,58 93,58 93,57 93,57 93,57 93,57 93,57 93,57 92,57 92,57 92,56 92,56 92,56 91,56 91,56 92,56 92,56 92,56 92,56 92,56 92,56 92,55 92,55 92,55 92,55 92,55 92,55 91,55 91,55 92,54 92,54 92,54 92,54 92,54 91,54 91,54 91,54 91,54 91,54 91,54 91,54 91,54 90,53 90,53 90,53 90,53 91,53 91,53 91,53 91,53 91,53 91,53 90,53 90,52 90,52 90,52 90,52 90,52 90,52 89,53 89,53 89,53 89,52 89,52 89,52 89,52 89,52 89,52 90,52 90,52 90,52 91,52 91,52 91,52 92,51 92,51 92,51 92,51 92,51 92,50 93,50 93,50 93,50 93,49 93,49 93,49 93,49 93,49 93,49 93,49 93,49 93,48 93,48 92,48 92,48 92,48 92,48 91,48 91,48 91,48 91,48 91,48 91,48 91,48 90,48 90,48 90,48 90,48 90,48 90,49 90,49 90,49 90,48 90,48 90,48 90,48 90,48 89,48 89,48 89,48 89,47 89,47 90,47 90,47 89,47 89,47 89,47 90,47 90,47 90,47 90,46 90,46 90,46 90,46 90,46 90,46 90,46 90,46 90,46 90,46 90,46 90,46 90,45 90,45 90,45 90,45 90,45 90,45 90,44 90,44 90,44 90,44 90,44 90,44 90,44 91,44 91,44 91,43 91,43 91,43 91,43 91,43 91,43 91,43 92,42 92,42 92,42 92,42 92,42 92,41 92,41 92,41 92,41 92,41 92,40 92,40 92,40 92,40 92,40 92,40 91,40 91,39 91,39 91,39 91,39 92,38 92,38 92,38 92,38 91,38 91,38 90,38 90,38 90,38 90,37 89,37 89,37 89,37 89,37 89,37 89,37 89,37 89,36 89,36 89,36 89,36 89,35 89,35 89,35 89,35 89,35 89,35 89,35 89,35 89,34 89,34 89,34 89,34 89,34 90,34 90,34 90,33 90,33 91,33 91,33 92,33 92,33 92,33 93,33 93,33 93,32 94,32 95,32 95,32 95,32 95,32 95,32 96,32 96,32 96,31 96,31 96,31 97,31 97,31 97,31 98,31 98,31 98,31 98,31 98,31 98,31 98,31 98,31 98,31 98,30 98,30 98,30 99,31 100,31 100,31 100,31 101,31 101,31 101,31 101,31 104,31 105,31 105,31 106,30 106,30 106,31 106,31 105,31 105,31 105,31 105,31 105,31 105,31 105,32 105,32 105,32 107,31 108,31 108,31 108,31 108,31 109,31 109,31 109,31 109,31 110,31 110,31 110,31 110,30 111,30 111,30 113,29 114,29 114,28 114,28 114,28 114,28 115,27 115,27 116,27 116,27 117,27 118,27 119,28 119,28 119,28 119,28 119,28 119,28 119,28 119,28 119,28 120,28 120,28 120,28 121,28 121,28 122,29 122,29 123,29 123,29 123,29 124,29 124,28 123,28 123,28 123,27 123,27 124,27 124,27 125,25 125,25 125,25 126,24 127,24 127,24 127,23 127,23 126,23 126,23 126,23 127,22 127,22 127,22 129,23 130,23 130,23 132,20 132,20 133,19 134,18 134,18 134,18 134,17 136,19 136,19 137,19 137,19 138,20 139,20 139,20 141,19 142,19 141,18 142,17 141,17 143,17 142,16 142,15 143,15 144,15 145,14 146,13 147,13 148,13 148,13 149,12 149,12 149,12 150,13 152,10 152,10 152,10 152,10 152,10 153,9 153,9 153,9 153,9 154,9 154,9 155,9 155,9 156,9 156,9 156,9 157,9 158,9 159,10 163,8 163,8 164,7 164,6 164,6 165,7 167,7 168,8 168,9 169,10 169,11 172,12 174,13 174,14 174,14 174,14 174,13 175,13 175,13 176,13 177,13 178,13 179,13 179,12 180,13 180,12 181,12 181,12 182,12 183,13 185,14 184,14 188,15 190,13 191,13 191,13 190,12 186,11 187,10 186,10 186,10 185,9 185,8 184,6 184,6 184,6 188,6 188,6 189,6 190,5 195,0 195,0 196,1 197,1 200,2 206,5 211,7 211,8 212,8 213,8 213,8 213,8 213,8 214,8 216,8 216,8 216,8 217,9 219,11 220,11 220,11 220,11 220,11 222,11 222,11 223,11 224,12 224,13 224,14 226,16 229,17 230,17 231,18 235,19 235,19 236,19 237,19 240,20 240,20 240,21 241,21 241,21 241,21 242,21 242,21 243,21 243,21 244,21 245,22 245,21 245,21 247,20 248,19 248,19 249,19 250,18 250,18 251,18 252,19 252,19 258,20 257,21 257,21 258,21 267,30 267,30 267,30 268,30 268,31 271,34 271,34 265,41 265,41 264,42 264,42 264,42 264,42 264,43 264,43 264,43 264,43 264,43 265,45 266,47 270,45 270,45 270,45 270,45 270,46 270,46 270,46 268,49 269,51 269,52 269,52 270,53 270,53 270,53 270,53 273,55 273,55 273,55 273,55 273,55 273,55 274,56 274,56 274,56 272,57 271,57 271,58 272,58 273,59 273,59 274,60 274,60 275,61 275,61 274,63 275,64 274,64 274,65 274,65 274,65 274,67 274,67 274,66 274,67 275,67 275,67 276,67 277,67 277,66 278,67 277,67 277,67 278,67 278,67 279,67 279,67 279,67 279,67 279,67 278,67 278,68 278,69 278,70 278,70 278,71 278,71 279,71 279,72 280,72 280,72 280,73 280,73 280,73 280,74 280,75 280,75 280,76 280,76 280,76 281,76 281,76 282,77 283,78 284,78 287,79 289,80 289,80 293,84 294,85 295,84 296,84 296,84 297,83 297,83 298,82 298,82 299,82 300,82 299,83 299,84 299,84 298,84 298,85 298,85 297,85 297,86 298,87 300,88 300,89 300,89 301,89 302,89 302,89 304,89 304,89 305,89 305,88 306,88 306,87 306,87 307,87 308,87 308,86 309,86 309,88 311,90 311,90 314,90 314,90 314,89 313,89 313,89 313,89 315,90 327,92 327,92 328,91 329,91 330,91 330,91 331,88 332,86 333,86 333,87 334,87 335,87 335,87 335,87 335,87 337,87 338,87 338,87 339,86 339,86 343,89 357,81 363,86 362,89 362,89 361,89 363,91 372,89 377,92 389,102 386,104 404,109 414,113 421,116 421,116 425,120 425,120 429,121 437,124 437,124 438,125 441,125 441,125 441,126 446,128 452,133 453,133 455,134 455,134 457,135 458,135 459,136 459,136 460,136 460,136 461,136 461,136 461,136 462,137 463,137 463,137 463,137 464,137 464,137 464,137 465,138 465,138 465,138 466,138 466,138 467,139 467,139 467,139 468,139 468,140 468,140 469,140 469,140 469,140 469,140 469,141 470,141 470,141 470,141 470,141 470,141 471,141 471,142 472,142 472,142 472,143 473,143 473,143 473,143 474,144 474,144 473,144 473,145 469,147 469,147 469,148 469,148 469,148 469,148 469,149 469,149 468,150 468,151 468,151 466,152 467,153 468,153 468,154 468,154 465,158 464,160 464,160 462,162 462,163 461,164 461,164 460,165 460,165 460,165 459,165 459,165 458,165 458,165 458,165 458,165 457,165 457,165 457,165 456,166 456,166 456,166 456,166 455,166 455,166 455,166 454,167 454,167 453,168 453,168 453,168 453,168 452,169 452,169 452,169 452,170 453,170 453,171 453,171 453,171 453,171 453,171 453,171 453,171 453,171 454,172 454,172 455,172 454,173 455,173 455,173 456,173 456,173 457,173 458,174 458,174 458,174 458,175 458,175 458,175 458,175 459,175 459,175 459,176 459,176 459,176 460,176 460,176 461,177 461,177 461,177 462,177 462,178 463,179 463,179 464,178 464,178 464,179 464,179 464,180 464,180 464,181 464,181 464,181 464,181 464,181 464,182 465,182 465,181 465,181 465,182 465,182 465,182 465,183 464,183 464,183 465,183 465,183 465,183 465,184 465,184 465,184 465,185 464,185 464,185 464,184 464,184 463,184 463,184 463,185 463,185 463,185 463,186 462,186 463,186 463,186 464,186 464,186 464,186 464,186 464,187 463,187 463,187 463,187 462,187 462,187 462,187 462,188 462,188 463,189 463,189 463,190 464,189 465,190 466,190 466,191 466,191 467,190 467,190 467,191 467,191 468,191 468,191 468,191 469,191 469,191 469,191 469,191 469,191 469,191 468,192 468,192 468,193 468,193 469,193 469,193 469,193 469,193 470,194 470,194 471,194 471,194 471,194 471,194 471,194 471,194 470,195 470,195 470,195 471,195 470,195 470,195 470,195 470,195 470,196 470,196 470,196 470,196 470,196 470,196 469,197 469,197 469,198 469,198 469,198 469,198 469,198 470,198 470,198 471,198 471,198 471,198 472,199 472,199 472,199 472,199 473,199 473,199 474,199 474,199 474,199 474,199 473,200 473,200 473,201 473,201 473,201 474,201 474,201 474,201 474,201 474,202 474,202 474,202 474,203 474,203 474,203 475,203 475,204 476,204 476,204 477,203 477,203 477,203 478,203 478,203 478,203 478,203 478,204 478,204 477,204 477,204 477,204 477,205 478,205 478,206 479,206 479,206 479,206 479,206 479,207 480,207 480,207 481,207 481,208 483,208 483,208 484,208 484,209 483,209 483,209 483,209 483,209 483,209 483,209 483,210 483,211 483,211 483,211 483,211 483,211 483,212 483,212 483,213 484,213 484,213 484,214 484,214 484,215 483,215 483,215 484,216 484,216 484,216 484,216 483,216 483,216 483,217 483,217 483,218 483,218 484,219 484,219 484,219 484,220 484,220 485,220 485,220 485,221 485,221 485,221 487,222 487,222 487,222 487,223 487,223 487,223 487,223 487,223 487,223 487,223 486,223 486,223 486,223 486,223 486,223 486,224 486,224 486,224 487,224 487,224 487,224 487,225 487,225 487,225 487,225 487,226 487,226 488,226 488,226 488,226 488,227 488,227 487,228 488,228 488,228 488,228 488,228 488,228 488,228 488,228 489,229 489,229 489,229 489,229 489,229 489,229 490,229 490,229 490,229 490,229 490,229 490,229 490,229 490,229 490,229 490,229 490,229 490,229 490,230 490,230 490,230 491,230 490,230 490,230 490,231 490,231 490,231 490,232 490,232 490,232 490,232 489,232 489,232 489,232 489,232 490,233 490,233 490,234 489,234 489,234 489,234 488,234 488,234 487,235 487,235 487,235 487,235 487,235 487,235 487,235 487,235 487,235 488,235 488,235 488,235 488,236 488,236 488,236 488,236 488,237 488,237 488,237 488,237 488,237 489,237 489,237 488,237 488,237 488,237 488,237 488,237 487,237 488,238 488,238 488,238 488,238 488,238 487,238 487,239 487,239 488,239 488,239 488,239 488,240 489,240 489,240 489,240 489,240 490,240 490,241 490,241 491,242 491,242 490,242 490,242 490,242 491,243 491,243 491,243 491,243 491,243 491,243 491,243 491,243 491,243 491,243 492,243 492,244 492,244 492,244 492,244 492,245 492,245 492,245 492,245 492,246 492,246 492,246 492,246 492,247 491,247 492,247 491,248 491,248 490,248 490,249 491,249 491,249 491,249 491,249 491,250 491,250 492,250 492,250 492,250 493,250 493,250 493,250 492,251 492,251 492,251 492,251 492,251 492,252 492,252 492,252 492,252 492,252 492,252 492,252 492,252 492,252 492,253 492,253 492,253 492,253 492,253 492,253 492,254 492,254 492,254 492,254 493,254 493,254 493,254 493,254 493,254 493,254 493,254 493,254 494,255 494,255 494,255 494,255 494,255 494,255 494,255 494,255 494,255 495,255 495,255 495,255 495,255 495,255 496,255 496,255 496,255 496,255 496,255 496,255 496,255 497,255 497,255 497,255 497,255 497,256 498,256 498,256 498,256 498,256 498,257 498,257 498,257 498,257 498,257 498,257 498,258 498,258 498,258 498,258 498,258 498,258 498,259 498,259 498,259 498,259 498,259 497,259 497,259 497,259 497,260 496,260 496,260 497,260 497,260 497,260 497,260 497,260 497,260 497,261 497,261 497,262 497,262 497,262 497,262 497,262 497,262 497,262 497,262 498,262 498,262 498,262 498,262 498,262 498,263 498,263 497,263 497,263 497,263 498,263 498,263 498,263 498,263 498,263 498,263 498,263 498,263 498,263 498,263 499,263 499,263 499,263 499,263 499,263 499,263 499,263 498,263 498,264 498,264 498,264 498,264 498,264 498,264 499,264 499,264 499,265 499,265 499,265 499,265 499,265 499,265 499,265 499,265 499,265 499,265 500,265 500,265 500,266 500,266 500,266 500,266 500,266 500,266 499,266 499,266 499,266 499,266 499,266 499,267 499,267 499,268 499,268 499,268 499,268 499,268 499,268 499,268 499,268 500,268 500,268 499,269 499,270 498,270 498,270 498,271 497,271 497,272 496,272 496,272 496,273 495,273 495,273 495,274 495,274 495,274 494,274 494,275 494,275 494,275 493,275 493,276 493,276 493,277 493,277 493,277 493,277 493,277 493,277 493,277 493,278 493,278 493,278 492,278 492,279 492,279 492,279 492,279 491,280 491,280 490,281 490,281 489,281 489,281 489,282 488,283 488,283 488,283 487,283 487,283 487,283 486,283 486,283 486,283 485,284 485,284 485,284 484,284 484,284 484,284 484,285 483,285 483,285 482,285 482,285 482,285 482,286 481,286 481,286 481,286 481,286 480,286 480,286 480,286 480,287 479,286 479,287 477,287 475,288 475,288 474,288 471,288 471,288 471,288 470,289 469,289 469,289 469,289 469,289 468,289 468,289 468,289 468,289 468,289 467,288 467,288 466,288 466,288 466,288 466,288 465,288 465,288 465,288 464,288 463,288 463,288 463,288 462,288 462,288 461,288 461,288 461,288 459,289 459,289 459,289 459,290 459,291 458,291 458,291 458,292 458,292 458,292 457,292 457,293 457,293 457,293 457,293 457,293 457,293 457,293 457,293 457,295 457,295 457,295 457,295 457,295 456,295 456,296 456,296 455,296 455,296 453,297 452,297 452,298 451,298 451,298 451,298 449,298 449,298 449,298 449,298 449,298 449,297 448,295 447,295 447,290 447,289 447,288 447,286 447,285 447,284 447,283 447,283 447,282 446,281 446,280 446,279 446,279 445,279 436,288 426,294 425,295 424,296 423,296 423,296 423,296 423,296 423,295 423,295 423,295 423,295 424,295 424,295 424,295 424,294 424,294 425,294 425,294 425,294 425,294 425,293 425,293 425,293 425,293 425,293 425,293 425,292 424,292 424,292 424,292 424,292 424,292 424,292 424,292 424,292 424,292 424,291 423,291 423,291 423,291 422,291 422,291 422,291 422,291 422,291 422,291 421,291 421,291 421,291 421,291 420,291 420,291 420,291 420,291 419,291 419,291 419,291 418,290 418,290 418,290 418,290 417,290 417,290 417,290 417,290 417,289 417,289 417,289 416,289 416,289 416,289 416,289 416,289 416,289 416,289 416,289 416,289 416,289 416,289 416,289 415,288 415,288 415,288 415,288 415,288 415,288 415,287 415,287 415,287 415,287 415,287 415,287 415,286 415,286 415,286 415,286 415,286 415,286 415,286 415,286 415,285 415,285 415,285 415,285 415,285 415,285 415,285 415,285 415,284 415,284 415,284 415,283 415,283 415,282 415,282 415,282 415,282 415,282 415,282 415,282 415,282 415,281 415,281 415,281 415,281 415,281 415,281 415,281 415,281 415,280 415,280 415,280 415,280 415,279 415,279 415,279 415,279 415,279 415,279 415,279 415,279 415,278 415,278 415,278 415,278 415,277 414,276 414,276 414,276 414,276 414,276 414,276 414,276 414,275 414,275 414,275 414,275 414,275 414,275 414,275 413,275 413,275 414,275 414,275 413,275 413,274 413,274 413,274 413,274 413,274 413,274 413,274 413,273 413,273 413,273 413,273 413,273 412,273 412,273 412,273 411,273 411,273 411,273 411,273 411,274 410,274 410,274 410,274 410,274 410,274 409,273 409,273 409,273 409,273 409,273 408,273 408,273 408,273 408,273 408,273 408,273 408,273 408,272 408,272 408,272 407,272 407,272 407,272 403,273 402,274 401,274 402,274 402,275 403,275 403,276 403,276 402,276 402,276 402,275 402,275 401,275 401,275 401,275 400,275 400,275 400,275 400,275 400,275 400,275 400,275 399,275 399,275 399,275 399,275 398,275 398,275 398,275 398,274 398,274 398,274 398,274 398,274 398,274 398,274 398,274 397,274 397,274 397,273 397,273 397,273 397,273 397,273 397,273 397,273 397,273 397,273 397,273 397,272 396,272 396,272 396,272 396,272 396,272 396,272 396,272 396,272 396,272 396,271 395,271 395,271 395,271 395,271 395,271 395,271 395,271 395,271 395,271 395,271 395,271 395,271 395,271 394,270 394,270 394,270 394,270 394,270 394,270 394,270 394,270 394,270 394,270 394,270 394,270 394,270 394,270 393,269 393,269 393,269 393,269 393,269 393,269 393,269 392,268 392,268 392,268 392,268 392,268 392,267 392,267 392,267 392,266 393,266 393,265 393,265 393,265 393,265 393,265 393,265 393,264 393,264 393,264 393,264 394,264 394,263 394,263 394,263 394,263 394,263 395,263 395,262 395,262 395,262 395,262 395,262 395,261 395,261 395,261 395,261 395,261 396,260 396,260 395,260 395,260 395,259 393,258 393,258 393,258 392,257 392,257 392,257 392,257 391,257 391,256 390,256 390,256 390,256 390,255 390,255 389,255 389,255 389,255 389,255 389,255 389,256 389,256 389,256 389,256 389,256 389,256 388,256 388,256 388,256 388,256 388,256 388,256 387,256 387,256 387,256 387,256 387,256 386,256 386,256 386,256 386,256 386,256 386,257 386,257 386,257 386,258 386,258 386,258 386,258 385,258 385,258 385,258 385,258 385,258 385,258 384,258 384,258 384,258 384,259 384,259 384,259 384,259 383,259 383,259 383,259 383,259 383,259 383,260 383,260 382,260 382,260 382,260 382,260 382,260 382,261 382,261 382,261 382,261 382,261 382,261 382,261 382,261 382,261 381,261 381,261 381,261 381,262 381,262 381,262 381,262 381,262 381,262 381,262 381,262 381,262 381,262 380,262 380,262 380,262 380,262 380,262 380,262 380,263 380,264 379,264 379,264 379,264 379,264 379,264 380,264 380,264 379,264 379,264 379,264 379,264 379,264 379,264 379,264 379,264 379,264 379,264 379,264 378,264 378,264 378,264 378,264 378,264 378,264 378,264 378,264 378,264 378,264 378,264 377,264 377,264 377,264 377,264 377,265 377,265 377,265 377,265 376,265 376,265 376,265 376,265 376,265 376,265 376,265 376,265 375,265 375,265 375,265 375,265 375,265 375,265 375,265 375,265 375,265 375,266 375,266 375,266 375,266 375,266 374,266 374,266 374,266 374,266 374,266 374,266 374,266 374,266 374,266 374,266 374,267 374,267 374,267 374,267 374,267 374,267 374,267 373,267 373,267 373,267 373,267 373,268 373,268 373,268 373,268 372,268 372,268 372,268 372,268 372,268 372,268 372,268 372,268 372,268 372,268 371,269 371,269 371,269 371,269 371,269 371,269 371,269 371,269 371,269 371,269 370,269 370,269 370,269 370,269 370,269 370,269 370,270 370,270 370,270 369,271 369,271 369,271 369,271 369,271 369,271 369,271 369,271 369,271 368,271 368,271 368,271 368,271 368,271 368,271 368,271 367,271 367,271 367,271 367,271 367,271 367,271 367,271 367,271 367,271 367,271 366,271 366,271 366,271 365,271 365,271 364,271 364,271 364,271 364,271 364,271 364,271 364,271 363,271 363,271 363,271 363,271 363,271 363,271 363,271 362,271 362,271 362,271 362,271 362,271 361,271 361,271 361,271 360,271 360,270 359,271 359,271 358,270 358,270 358,270 357,270 356,270 356,270 356,270 355,271 355,271 355,271 355,270 355,270 354,270 354,270 354,270 353,269 353,269 352,269 352,269 352,269 351,269 350,269 350,269 350,269 350,270 349,271 349,271 349,272 349,272 348,273 348,273 348,274 347,274 347,276 347,276 347,277 346,278 346,278 347,278 347,279 346,279 345,279 345,280 344,280 344,280 344,280 344,280 343,281 343,281 343,282 342,282 342,282 342,282 341,282 341,282 340,282 339,283 339,283 339,283 339,283 339,283 338,283 338,283 338,284 338,284 338,284 337,283 337,283 337,283 337,283 337,282 337,282 338,282 338,282 338,282 338,282 338,283 338,283 338,283 338,283 338,282 339,282 339,281 339,281 339,280 339,280 339,280 339,280 338,280 338,280 338,279 338,279 338,279 337,279 337,279 337,279 337,279 337,279 336,279 336,279 336,279 335,278 335,278 336,278 336,278 336,278 336,278 335,277 335,277 335,277 336,277 336,276 336,276 337,276 337,276 337,275 337,275 337,275 336,274 335,274 335,274 335,273 334,273 334,273 333,272 333,272 333,272 332,272 332,272 332,272 331,271 330,271 330,271 330,271 329,271 329,271 329,271 329,271 328,271 329,272 328,272 328,272 328,272 328,273 329,273 329,273 329,273 329,274 330,274 330,274 330,274 329,275 329,275 329,275 329,276 329,276 320,276 319,276 318,275 318,275 318,275 318,275 318,275 318,274 318,273 318,273 318,272 319,272 320,271 319,269 319,268 318,267 318,267 319,266 319,266 319,266 320,265 320,264 320,264 322,263 322,262 321,262 321,261 320,261 320,261 319,261 319,261 317,261 317,261 315,260 314,259 313,258 313,258 312,258 311,258 311,257 311,257 310,257 311,256 311,256 310,256 310,256 310,255 310,255 309,255 309,255 309,255 310,254 310,254 310,254 309,254 308,253 308,253 309,252 310,252 310,251 312,252 312,252 312,252 312,252 313,252 314,252 314,252 315,252 316,251 316,250 318,250 318,249 317,249 317,249 317,248 315,248 315,248 315,248 313,248 313,248 308,247 308,247 307,247 306,246 306,246 305,246 305,246 305,246 305,245 305,245 304,245 304,245 304,245 303,244 303,244 304,244 304,243 303,242 303,242 302,242 302,242 302,242 302,242 302,241 301,241 301,241 301,241 301,241 300,241 300,241 300,241 299,240 299,240 299,240 299,240 299,240 299,240 299,240 298,239 298,239 298,239 297,239 297,239 297,238 296,238 296,238 296,238 296,238 295,238 295,238 295,238 295,238 294,238 294,238 294,238 293,237 293,237 292,237 292,237 291,237 290,236 289,236 287,235 286,235 286,235 286,235 285,235 285,235 285,235 284,235 283,234 283,234 283,234 283,235 283,235 282,235 282,235 281,235 281,235 281,236 280,236 279,236 278,236 277,236 277,235 276,235 276,236 275,236 275,236 273,236 273,236 270,237 270,237 269,236 268,237 266,237 267,237 266,237 266,238 266,238 266,238 266,238 266,238 266,239 266,239 266,240 266,240 265,240 264,240 264,240 264,239 263,239 262,239 262,239 262,239 261,238 261,238 261,238 260,239 260,239 259,239 259,239 258,239 258,239 257,239 257,239 257,240 256,240 256,240 256,240 255,241 255,241 253,242 253,242 253,242 253,242 253,242 253,242 252,243 251,243 252,243 253,243 253,244 253,244 253,244 252,244 252,244 252,244 252,244 252,245 251,245 251,245 251,244 251,244 250,244 250,244 250,244 250,244 249,244 250,245 250,245 250,245 250,245 250,245 248,245 244,244 240,243 235,243 233,244 232,247 230,248 229,248 227,248 225,247 224,245 225,242 225,242 223,241 223,240 222,240 221,239 221,240 221,240 220,240 220,240 220,240 220,241 220,241 220,241 220,241 219,242 218,243 218,243 218,243 215,244 214,244 213,244 213,245 213,245 213,245 213,245 213,245 214,244 214,244 214,245 214,245 214,245 214,245 214,245 214,245 215,245 215,246 215,246 215,246 215,246 215,246 215,246 215,246 215,246 215,246 215,246 215,246 216,247 216,247 216,247 216,247 216,247 216,247 216,247 216,247 216,247 216,247 216,248 216,248 216,248 217,248 216,248 216,248 217,248 217,248 217,248 217,248 217,248 217,249 217,249 218,249 218,250 218,250 218,250 218,250 218,250 218,250 219,250 219,251 219,251 219,251 219,252 220,252 218,253 216,253 214,254 212,254 212,254 212,253 212,253 211,253 211,253 210,253 210,253 210,253 210,253 209,253 209,252 209,252 209,252 208,252 208,252 208,251 207,251 207,251 207,251 207,251 207,251 206,251 206,251 206,251 205,251 204,251 204,252 203,252 203,252 203,251 202,251 202,251 202,251 202,251 202,251 202,250 202,250 202,250 202,249 202,249 203,249 202,249 203,248 203,247 204,247 203,247 203,247 202,247 201,247 201,247 201,247 201,246 201,246 200,246 200,246 200,246 199,246 199,246 199,246 199,246 199,246 198,246 196,245 196,246 196,246 197,246 197,246 197,247 197,247 198,247 199,247 200,248 200,248 200,250 200,250 200,250 200,250 199,251 198,252 197,252 196,252 196,253 195,253 195,253 195,253 195,254 195,253 195,253 194,253 194,253 193,254 193,254 193,255 193,255 193,256 193,256 194,256 193,257 193,257 194,259 185,261 185,262 185,262 186,262 186,262 186,263 186,263 186,264 186,264 187,265 187,265 187,265 187,266 187,266 188,266 185,267 185,268 184,268 182,268 181,268 180,268 180,268 180,268 180,267 180,267 180,267 179,267 179,266 179,266 179,266 179,265 178,265 178,264 179,264 179,264 179,264 179,263 179,263 179,263 179,262 179,262 179,262 179,262 179,262 179,262 178,262 178,261 178,261 178,261 178,261 178,261 178,260 178,260 178,259 178,259 177,259 177,259 178,259 177,259 177,259 177,259 177,259 177,258 177,258 177,258 177,257 176,257 176,255 175,255 175,256 174,256 174,256 174,256 173,256 171,255 170,255 170,255 169,254 168,254 165,253 164,252 163,252 162,252 162,252 160,251 159,251 159,251 159,251 158,251 157,250 156,250 155,250 155,249 154,249 153,249 151,249 150,249 148,249 146,248 146,248 145,248 144,248 144,247 143,247 142,246 142,246 141,246 141,245 141,245 140,244 140,244 139,244 138,243 138,243 138,243 138,243 138,243 138,243 138,243 137,243 136,242 136,242 136,242 135,242 135,242 134,241 133,241 133,241 132,241 130,241 129,241 127,242 127,242 125,242 123,242 122,242 121,241 120,241 120,241 120,241 120,241 120,241 119,241 119,241 119,241 119,241 118,241 118,241 118,241 117,241 117,240 117,240 117,240 117,240 116,240 116,240 116,239 115,238 114,237 114,237 113,237 113,236 113,236 113,236 113,235 112,235 112,235 112,235 111,235 111,235 111,235 111,235 110,235 110,235 110,235 110,235 109,235 109,234 109,234 108,234 108,234 107,234 107,234 106,234 106,234 105,234 105,233 105,233 105,233 105,233 105,233 105,232 105,232 105,232 105,231 105,231 105,230 105,230 105,230 104,230 104,230 104,229 104,229 104,228 105,228 105,228 105,228 105,228 105,227 105,227 105,227 105,226 105,226 105,225 104,224 104,223 104,223 104,223 104,222 104,222 103,221 103,221 103,221 103,220 102,216 102,216 102,216 102,215 103,215 103,214 102,213 101,213 101,212 101,211 101,211 101,211 101,209 101,209 100,208 99,207 99,207 99,207 100,206 99,206 99,205 99,204 99,203 99,203 99,203 98,203 97,203 95,204 95,204 94,204 93,204 92,204 90,205 89,205 88,205 87,205 87,205 86,205 86,205 87,205 87,206 87,206 87,206 87,207 87,207 87,207 87,207 88,207 88,207 88,207 86,209 85,209 83,210 82,211 82,211 82,211 82,211 80,210 79,210 78,210 77,210 76,211 75,211 75,211 74,211 73,211 73,212 73,212 73,212 72,212 72,212 72,212 71,212 71,212 71,213 70,213 70,213 69,214 68,214 68,214 67,214 67,214 66,214 66,214 66,214 63,215 62,214 61,216 60,216 60,216 60,216 60,216 60,217 60,218 59,218 59,219 58,219 58,220 57,221 57,221 56,221 56,221 57,221 57,222 57,222 56,223 56,223 55,223 55,224 54,224 54,224 52,225 50,225 49,226 48,227 46,227 46,227 46,226 45,226 45,226 45,226 44,225 42,223 41,223 41,222 41,222 41,222 41,221 41,221 41,221 41,221 41,221 41,220 42,220 43,219 44,219 45,219 45,219 45,219 46,218 46,218 46,218 46,218 46,217 46,217 46,217 46,216 46,216 46,215 45,215 45,214 45,214 45,214 45,213 45,213 45,213 46,213 46,212 47,212 47,212 47,212 47,212 47,212 48,211 48,211 49,209 50,207 51,206 52,205 52,204 53,204 53,203 54,203 54,203 54,202 54,202 54,202 54,202 54,202 54,201 53,201 53,201 53,200 53,200 52,200 52,200 52,200 51,200 51,200 50,199 49,200 49,200 49,200 49,200 49,200 48,201 48,201 48,201 48,201 48,201 47,201 47,201 47,201 46,201 46,201 45,201 45,201 44,201 44,200 43,200 43,199 43,199 43,199 43,198 43,198 43,197 43,197 43,197 43,196 44,196 44,195 45,194 46,194 46,194 46,194 45,192 44,191 44,191 45,190 45,190 45,190 45,190 46,190 47,189 47,189 47,189 48,188 47,187 47,187 46,187 44,187 44,186 44,186 44,186 44,187 44,187 44,187 43,187 43,186 43,186 43,185 43,185 43,185 42,186 42,186 42,186 42,186 42,186 41,186 41,186 41,186 41,186 41,186 41,186 40,186 40,186 40,186 40,186 40,185 40,185 39,186 39,186 39,186 38,186 38,186 38,186 38,186 38,186 38,186 38,186 38,186 38,186 38,186 38,187 38,187 37,187 37,187 37,187 37,187 37,187 37,187 37,187 37,187 36,187 36,187 36,187 36,187 36,187 36,187 35,187 35,187 35,187 35,187 35,187 35,187 35,187 34,187 33,187 33,187 32,187 32,187 32,187 32,187 32,187 32,187 32,187 32,187 32,187 32,187 31,188 31,188 31,188 31,188 31,188 31,188 31,188 31,188 31,188 31,188 31,188 30,187 30,187 30,187 30,188 30,188 30,188 30,188 29,188 29,188 29,188 29,188 29,188 29,188 29,188 29,188 29,188 29,188 29,188 29,188 29,188 29,188 29,188 29,188 28,188 28,188 28,188 28,188 28,188 28,188 28,188 28,188 28,188 27,188 27,188 27,188 27,188 27,188 27,188 27,188 27,188 27,188 27,188 26,188 26,188 26,188 26,188 26,188 26,188 26,188 26,188 25,188 25,188 25,188 25,188 25,188 25,188 25,188 25,188 24,188 24,188 24,188 24,188 24,188 24,188 24,188 24,188 24,188 23,188 23,188 23,188 23,188 23,189 23,189 23,189 23,189 22,189 22,190 22,190 22,190 22,190 22,190 22,191 21,191 21,191 21,191 21,191 21,191 21,191 21,191 20,191 20,191 20,191 20,191 19,191 19,191 19,191 18,191 17,191 16,191 16,191 16,191 15,189 14,187 14,186 14,185 14,185 14,184 14,183 15,182 14,182 15,180 14,180 14,180 14,180 14,179 14,178 14,178 14,178 14,178 14,178 14,177 14,177 14,177 14,177 14,177 14,176 14,176 14,176 14,176 14,176 14,176 13,176 13,176 13,176 13,175 13,175 13,175 13,175 13,175 13,175 13,175 13,175 13,175 13,174 13,174 13,174 13,174 13,173 13,173 13,172 13,172 14,172 14,172 14,172 14,172 14,172 14,172 14,171 14,171 14,171 14,171 14,170 14,170 14,170 15,170 15,170 15,170 15,170 15,170 15,170 15,170 15,170 15,170 15,169 15,169 15,169 15,169 15,169 16,169 16,169 16,169 16,169 16,168 16,168 16,168 16,168 16,167 15,167 14,167 14,166 14,166 13,166 13,166 13,166 13,166 13,166 13,166 13,165 12,165 12,165 12,165 12,165 12,164 12,164 11,164 11,164 11,164 11,164 11,164 10,164 10,163 10,163 10,163 10,163 10,163 10,162 10,162 9,162 9,162 9,162 9,162 9,162 9,162 9,162 9,162 9,162 9,162 8,162 8,162 8,162 9,162 9,162 8,161 8,161 8,161 8,161 8,161 8,161 8,161 8,161 8,161 8,161 7,161 7,161 7,161 7,161 6,161 6,161 6,161 6,161 6,161 6,161 6,160 6,160 6,160 6,160 6,160 6,160 6,160 6,160 6,160 6,160 5,160 5,160 5,159 5,159 5,159 5,159 5,159 5,159 5,159 5,159 5,159 5,159 4,159 4,159 4,159 4,159 4,159 3,159 3,159 3,159 3,159 3,159 3,158 3,158 3,158 3,158 3,158 3,158 3,158 3,158 3,158 3,158 3,158 3,158 2,158 2,158 2,158 2,158 2,158 2,158 2,157 2,157 2,157 2,157 2,157 2,157 2,157 2,157 2,157 2,157 2,157 2,157 2,157 2,157 2,157 1,157 1,157 1,157 1,157 1,157 1,157 1,157 1,157 1,157 1,157 0,157 0,157 0,157 0,157 0,157" id="6409" class="canton" fill="steelblue" stroke-width="1" stroke="white" geotype="canton" geoname="Cœur de Béarn" code_insee="6409" code_departement="64" nom_departement="Pyrénées-Atlantiques" code_region="75" nom_region="Nouvelle-Aquitaine"/></svg>