<?xml version="1.0" encoding="utf-8"?>
<svg version="1.1" id="svgmap" xmlns="http://www.w3.org/2000/svg" xmlns:xlink="http://www.w3.org/1999/xlink" x="0px" y="0px" width="100%" height="100%" viewBox="0 0 500 333">
<polygon points="176,50 176,50 176,50 180,49 192,46 194,45 195,44 196,43 196,42 196,42 196,42 196,42 196,42 197,42 198,41 198,41 198,41 198,41 198,40 199,40 199,40 199,40 199,39 200,39 200,39 200,39 200,38 200,38 200,38 200,38 199,37 200,37 200,37 199,37 199,37 200,37 200,37 200,36 200,36 200,35 200,35 200,35 200,35 200,35 200,34 200,34 200,34 200,34 200,34 200,34 200,34 200,33 200,33 201,33 201,33 201,32 201,32 202,32 202,32 203,31 203,31 204,31 204,31 203,31 203,31 203,30 204,30 204,30 204,30 204,31 205,30 205,30 205,30 205,30 205,30 205,30 205,30 208,30 209,31 210,31 211,31 211,31 211,31 211,31 216,34 216,34 217,33 217,33 219,34 219,34 219,34 219,34 220,34 220,34 220,34 221,35 222,35 222,35 223,35 224,36 225,36 225,36 225,36 225,36 226,36 226,36 226,36 227,36 228,36 228,36 228,36 228,36 229,36 235,37 239,37 239,37 244,36 246,35 246,35 252,33 252,33 255,30 255,30 255,30 255,30 255,30 255,30 254,29 254,29 254,28 254,28 254,28 254,27 254,27 254,26 254,26 254,26 254,26 254,26 254,25 254,25 255,25 255,25 255,24 255,24 255,24 256,24 256,24 257,24 257,23 257,23 257,23 258,23 258,23 258,23 258,23 259,22 259,22 260,22 260,22 260,22 261,22 261,22 261,22 262,22 262,22 262,22 262,21 262,21 264,21 264,21 264,21 264,20 264,20 265,20 265,20 266,20 266,20 266,20 267,20 267,20 267,20 267,20 268,20 268,20 268,20 268,20 268,20 269,20 269,20 269,20 269,20 269,20 269,20 269,19 269,19 270,19 270,19 270,19 270,19 270,19 270,19 270,19 270,19 270,19 270,19 270,19 270,19 270,19 270,18 270,18 270,18 270,18 270,18 270,18 271,18 271,18 271,18 271,18 272,18 272,17 272,17 272,17 272,17 272,17 272,17 272,17 273,17 273,17 273,17 273,17 273,16 273,16 273,16 273,16 273,16 273,16 273,16 273,16 273,16 273,16 273,16 273,16 273,16 273,16 273,16 273,15 273,15 273,15 273,15 273,15 273,15 273,15 273,15 274,15 274,15 274,15 274,15 274,14 274,14 274,14 274,14 274,14 274,14 274,14 274,14 274,14 274,14 274,14 274,14 274,14 274,14 274,14 274,13 274,13 274,13 274,12 274,12 274,12 274,12 274,12 275,12 275,12 275,12 275,11 275,11 275,11 275,11 275,11 275,11 275,11 275,11 275,11 276,10 276,10 276,10 276,10 283,12 284,12 285,12 285,12 289,14 289,14 290,14 290,14 290,14 290,14 292,15 293,16 293,16 294,16 296,16 296,16 296,16 296,16 296,16 296,16 296,16 297,16 298,16 306,17 307,17 308,18 309,18 313,18 321,19 321,19 324,19 329,20 330,20 332,21 336,21 336,22 336,23 336,23 336,23 337,23 337,22 337,22 337,23 337,23 337,23 338,23 338,22 338,22 338,22 338,22 338,22 338,21 338,21 338,21 339,21 339,21 339,21 339,21 339,21 339,21 340,21 340,21 340,21 340,21 341,21 341,21 341,21 341,21 341,21 341,21 341,20 341,20 342,20 342,20 342,20 342,20 342,20 342,20 342,20 342,21 342,21 343,21 343,21 344,21 344,21 344,21 344,21 345,21 345,21 346,21 346,21 347,21 347,21 347,21 348,21 348,21 348,21 348,21 349,21 349,21 349,21 350,21 350,21 350,21 350,21 350,21 351,21 351,21 351,21 351,21 352,20 352,20 352,20 352,20 352,20 352,20 353,20 353,20 354,20 355,19 355,19 355,19 355,19 356,20 356,20 356,20 357,20 357,20 357,20 357,20 358,20 358,20 358,20 358,20 358,20 359,20 359,20 359,20 359,20 359,21 359,21 360,21 361,21 361,21 361,21 361,21 361,21 362,21 362,21 362,21 362,21 362,21 363,22 363,22 363,22 363,22 363,22 363,22 364,22 364,22 364,22 365,22 365,21 366,21 366,21 366,22 366,22 367,22 367,22 367,23 367,23 367,23 367,24 367,24 368,24 368,23 369,23 369,23 370,23 371,22 373,22 374,22 376,21 377,21 377,21 381,20 384,19 385,19 389,18 394,18 404,16 411,15 412,16 413,16 414,16 414,16 418,17 418,17 419,17 428,11 428,11 428,11 429,9 429,9 430,9 434,6 435,5 435,5 436,5 436,5 437,5 441,4 442,3 442,3 447,2 447,2 448,1 449,0 449,0 451,1 451,1 452,2 452,2 452,3 452,3 453,3 453,4 454,4 454,4 454,4 455,4 455,5 455,5 456,5 456,5 457,5 457,5 457,5 458,5 458,5 459,5 459,5 459,5 460,5 460,5 460,6 461,5 461,5 462,4 463,5 463,5 463,5 463,5 464,5 464,5 464,6 464,6 464,6 464,7 464,7 464,8 464,8 464,8 464,8 465,9 465,9 465,9 465,10 473,10 474,10 474,10 475,11 476,12 477,12 479,13 479,13 484,14 485,14 485,14 486,13 487,13 487,13 487,12 487,12 488,11 489,11 491,11 491,11 492,11 493,11 493,11 494,11 494,11 495,11 495,11 496,11 497,11 497,12 497,12 497,13 497,13 498,13 498,14 499,14 499,14 499,14 499,14 500,15 500,15 500,16 500,16 499,16 498,16 498,16 496,17 496,18 497,18 497,18 497,18 498,18 498,18 498,18 498,18 497,19 497,19 497,19 497,19 497,19 497,19 497,20 497,20 497,20 497,20 496,21 495,21 495,21 495,21 495,21 494,21 494,21 494,21 493,20 493,20 493,20 492,19 492,19 492,19 491,19 491,18 490,18 490,18 489,18 488,18 488,17 486,18 485,18 484,18 484,18 483,18 482,19 482,19 482,19 480,19 479,20 479,20 479,20 477,21 476,21 476,22 475,23 475,23 474,24 473,24 472,25 470,26 469,28 467,29 467,30 467,31 465,31 465,32 464,32 463,33 463,33 462,34 459,35 459,35 458,35 456,36 455,36 454,38 453,38 453,39 453,40 453,40 452,41 451,42 451,43 449,44 449,45 449,46 449,47 449,50 449,51 448,52 448,52 448,53 448,54 448,55 449,56 449,57 449,57 447,59 447,59 447,60 446,60 445,61 445,61 444,62 444,63 444,65 444,65 444,66 443,67 441,70 441,71 440,71 438,72 437,73 436,74 435,75 433,77 433,77 433,78 433,79 432,81 431,81 429,84 428,84 427,86 426,86 426,87 425,90 425,91 424,93 424,94 425,95 425,95 425,96 425,96 425,96 425,97 426,97 428,97 429,97 430,98 430,98 431,98 431,97 434,97 435,97 436,97 437,97 437,97 439,97 442,96 444,96 445,96 446,97 448,97 448,98 449,98 450,99 451,99 451,100 450,102 450,102 450,103 451,104 451,104 451,104 450,104 450,105 451,105 451,105 451,106 451,106 452,107 452,107 454,108 454,108 453,109 453,109 453,110 452,111 451,111 451,111 451,112 451,112 451,112 453,112 453,112 453,112 453,112 454,113 454,114 455,116 456,116 457,116 457,117 457,117 457,117 457,118 456,117 455,117 455,117 454,117 453,118 452,118 452,118 452,118 451,120 451,120 451,121 451,122 451,122 451,123 451,123 450,124 450,125 450,126 450,127 450,127 451,128 452,128 452,128 453,127 454,126 455,126 455,125 455,125 455,125 456,124 456,124 456,124 457,124 458,125 459,126 460,126 460,126 460,128 460,128 460,128 461,128 463,129 463,130 464,130 464,130 464,131 465,132 466,132 467,133 468,133 468,133 468,133 468,134 467,135 467,135 467,136 467,136 466,135 466,135 466,135 465,135 465,135 465,135 465,136 465,136 465,136 465,136 465,136 465,136 465,135 465,135 464,135 464,135 464,134 464,134 463,134 463,134 462,134 462,134 462,134 462,134 461,134 461,134 461,134 461,134 461,134 461,134 460,134 459,135 459,135 459,136 459,136 459,136 459,136 458,136 458,136 458,136 457,136 457,136 457,136 458,137 458,136 459,136 459,136 459,136 459,137 459,137 458,137 458,137 458,137 458,138 458,138 459,138 459,138 459,138 458,138 459,138 459,139 459,139 459,139 458,139 458,139 458,139 458,139 457,139 457,139 457,139 457,139 457,139 457,139 457,139 457,140 457,140 457,140 457,140 457,140 457,140 456,140 456,140 456,141 456,141 456,141 456,141 456,141 455,141 454,141 454,141 453,141 453,141 452,142 452,142 452,142 451,142 451,142 451,142 451,142 450,142 450,142 450,142 450,142 450,142 450,141 450,141 450,141 450,141 450,141 450,141 449,141 449,141 449,142 449,142 448,142 448,142 447,143 447,143 447,143 447,143 447,143 447,143 447,144 448,144 448,144 448,144 448,145 447,145 447,145 447,146 446,146 446,146 444,146 443,146 442,146 441,146 438,145 437,145 436,144 436,144 435,144 432,145 431,145 429,145 428,145 427,145 425,146 425,147 425,147 425,147 424,147 424,147 424,147 424,146 423,146 423,146 420,147 419,147 419,147 418,148 417,148 417,148 417,149 418,149 418,151 417,152 417,152 417,153 416,153 416,153 416,154 416,154 416,155 417,155 418,155 418,156 419,156 418,157 418,157 418,157 418,157 417,157 417,157 416,158 416,158 415,158 415,158 414,158 414,159 413,159 413,160 413,160 413,160 412,162 412,162 412,162 412,163 413,164 413,164 412,164 410,165 409,166 408,166 408,166 406,167 406,167 405,167 404,168 403,168 402,169 399,170 398,170 395,170 393,171 392,172 392,172 389,173 388,173 388,173 385,174 385,174 383,174 383,174 383,174 382,175 382,176 381,176 381,176 379,176 378,176 377,176 376,176 370,176 370,176 370,176 369,176 367,176 360,176 358,177 354,180 351,183 358,186 367,187 369,190 369,193 371,194 371,194 371,194 372,195 373,195 374,195 377,196 377,196 378,197 380,197 381,198 383,198 385,198 386,199 386,199 387,199 387,200 386,201 386,201 387,201 388,202 388,202 388,202 389,202 390,201 390,201 393,202 395,203 396,204 396,205 397,206 397,208 397,208 397,208 396,209 398,210 398,210 398,210 398,210 398,210 398,213 398,214 398,215 399,216 401,218 402,219 401,219 400,220 400,221 400,223 400,223 400,223 401,223 402,223 402,223 402,223 403,223 404,224 403,224 404,225 404,226 404,226 403,226 402,226 402,227 402,227 401,227 397,227 397,229 397,229 400,229 401,229 401,229 401,229 404,229 406,229 406,229 406,229 407,230 408,230 409,231 409,232 409,232 409,233 408,233 409,233 408,234 407,234 407,235 407,235 408,235 408,235 408,236 410,236 410,236 413,237 413,237 412,238 412,238 411,239 412,239 411,241 409,240 407,240 408,241 409,242 410,243 410,243 405,243 405,244 405,245 406,246 406,246 405,247 404,246 403,246 403,247 403,248 403,248 402,249 402,250 402,251 401,251 400,252 399,252 398,252 397,253 396,253 396,254 397,254 398,254 399,254 400,254 400,255 401,255 401,254 402,254 403,255 404,255 404,255 404,255 404,257 405,257 405,257 405,258 405,258 406,259 406,259 405,260 406,260 406,261 406,261 407,262 408,262 408,262 408,262 413,268 414,268 413,268 424,281 420,283 418,285 417,288 416,288 415,289 415,289 414,289 414,289 412,290 408,290 408,290 406,289 395,284 390,282 384,280 378,281 378,281 376,280 371,278 365,277 363,275 363,275 361,274 360,274 359,274 359,275 358,275 357,275 356,275 354,275 354,275 352,275 351,275 350,275 350,274 349,273 349,272 348,272 347,272 346,272 346,272 344,272 344,271 343,271 342,270 342,270 342,270 341,270 339,271 338,270 337,270 336,269 336,269 335,270 335,269 335,269 334,269 334,269 334,268 333,268 333,269 332,269 331,268 330,268 329,268 329,268 329,267 328,267 328,267 327,268 326,268 326,268 325,268 324,268 324,268 323,268 323,268 322,268 322,268 322,268 322,269 321,269 320,269 319,269 318,270 318,270 317,270 316,271 316,271 314,270 314,270 314,269 313,269 313,269 313,269 312,269 312,269 312,269 312,268 311,269 310,269 310,268 309,268 309,268 308,268 307,268 307,268 307,268 307,268 307,268 306,268 306,266 306,265 306,265 305,264 305,264 303,263 303,263 301,263 299,264 298,264 295,265 293,266 292,267 291,268 290,269 289,269 288,270 287,270 286,269 285,269 285,269 284,270 284,270 283,271 283,271 283,271 283,271 284,272 284,272 283,273 283,273 282,273 282,273 281,274 282,275 282,275 281,276 280,276 279,277 279,278 279,278 278,279 278,279 277,279 277,279 277,280 277,280 277,280 276,281 276,281 275,281 274,281 274,281 273,281 273,281 273,281 272,282 272,283 272,283 271,283 270,283 270,283 270,283 268,283 260,283 255,284 255,284 253,285 252,286 252,286 239,289 239,289 236,297 236,298 236,299 236,300 236,300 236,300 235,300 233,301 231,301 231,302 231,302 231,302 230,302 227,303 225,303 223,304 223,304 223,304 221,305 221,305 219,306 217,307 217,307 215,307 214,308 214,308 212,309 211,309 210,310 210,310 209,311 209,311 209,312 209,312 208,313 208,313 205,313 204,314 203,314 201,315 200,316 200,316 199,316 199,317 198,318 197,318 196,319 194,319 193,320 192,321 191,321 190,321 189,321 189,321 185,322 179,328 167,332 146,333 141,331 132,328 132,328 129,321 127,309 119,302 115,297 108,290 100,287 93,283 92,283 92,283 85,279 73,261 73,261 73,256 71,250 70,248 69,246 67,239 66,238 65,236 65,235 63,231 63,230 63,230 57,225 57,225 52,226 42,227 35,227 35,227 33,227 30,227 29,227 27,226 26,226 26,226 21,226 21,226 21,226 19,225 18,224 17,222 17,220 17,218 18,216 19,213 19,213 18,213 18,213 18,212 18,212 18,212 19,212 18,211 18,211 18,211 18,210 18,210 19,209 19,209 19,209 20,208 19,208 18,207 17,207 16,207 15,207 15,207 14,207 13,207 12,206 12,206 11,206 11,206 11,205 11,205 10,205 9,205 9,205 8,205 8,205 8,205 7,205 7,205 6,205 5,204 4,203 4,202 4,202 4,202 4,202 3,202 3,202 3,202 0,200 0,200 1,200 1,199 2,198 2,197 3,196 4,195 4,195 7,188 8,187 8,186 8,185 9,184 10,182 10,182 11,181 11,180 11,179 11,179 11,179 11,178 11,178 11,177 11,177 12,175 16,169 17,165 20,160 20,160 20,160 21,160 21,159 21,159 22,159 22,159 22,159 23,158 23,158 23,158 23,158 23,157 23,157 23,157 23,157 23,156 22,156 22,155 22,155 22,154 22,154 22,154 23,153 23,153 23,153 23,153 24,153 24,152 24,152 25,152 26,151 26,151 27,151 27,151 27,151 28,151 28,151 29,151 30,151 30,151 30,151 31,151 31,151 32,151 33,151 33,151 33,151 33,151 33,151 34,151 34,151 34,151 34,150 34,150 34,149 34,149 34,149 35,148 35,148 35,148 35,148 35,147 35,147 35,146 35,145 35,145 35,145 35,145 35,145 35,145 35,144 35,144 36,143 36,143 36,143 36,142 36,142 37,142 38,142 38,142 38,142 38,142 38,142 38,143 38,143 38,143 39,143 39,142 39,142 39,142 40,142 40,142 39,143 40,144 40,144 41,144 42,144 42,144 42,144 42,144 43,143 43,143 43,143 44,142 44,142 45,142 45,141 45,141 46,141 46,140 46,140 46,139 47,139 47,139 47,139 47,139 47,139 47,139 49,140 50,140 50,140 50,139 51,139 51,139 51,140 51,140 51,140 51,140 52,140 52,139 52,139 53,139 53,140 53,140 52,140 52,140 52,140 53,140 53,140 53,140 54,140 54,140 54,140 54,140 54,141 54,141 54,141 55,141 56,141 56,141 57,141 57,141 59,141 59,141 60,141 60,142 60,142 60,142 61,142 61,141 61,141 60,141 60,141 60,140 60,140 60,139 60,139 59,138 60,138 60,138 60,138 60,138 60,138 61,138 61,138 61,138 60,137 60,137 61,137 61,137 61,138 61,138 62,138 62,138 62,137 63,136 63,136 63,135 63,135 64,135 64,135 64,135 64,134 64,134 65,134 65,133 66,134 66,134 67,134 67,134 67,133 67,133 67,133 66,133 66,132 66,132 67,132 67,132 68,133 68,133 67,133 67,133 68,134 68,134 68,134 69,134 70,134 70,134 70,134 70,133 69,133 69,133 69,133 68,133 69,132 69,132 70,132 71,132 71,132 72,132 72,132 72,133 73,133 73,133 73,134 73,134 74,133 74,133 74,133 74,132 74,132 74,132 75,132 75,132 75,132 75,131 75,131 76,130 79,130 81,130 82,130 83,130 83,130 83,131 84,131 84,131 85,131 86,131 86,131 86,130 86,130 87,129 87,129 87,128 86,128 86,128 86,128 86,127 86,127 86,126 87,126 88,125 88,125 89,124 90,124 90,124 91,123 91,123 92,122 92,122 93,122 93,122 93,122 94,123 94,123 94,123 95,124 95,124 95,124 97,122 98,122 98,121 99,120 99,119 101,118 103,118 103,118 103,118 103,117 103,117 103,117 103,117 103,115 104,115 104,115 105,116 105,116 106,116 106,116 106,116 107,116 107,116 107,115 108,115 109,114 109,114 110,114 110,113 110,113 112,113 113,113 114,113 116,112 116,112 116,112 117,112 117,111 117,111 118,111 119,109 120,109 121,109 123,109 123,109 123,109 124,108 125,108 127,108 127,107 127,107 127,106 127,105 128,106 130,106 134,107 137,108 138,108 138,108 138,108 139,108 138,107 136,106 135,105 134,104 135,104 136,104 139,103 139,104 140,104 141,104 141,102 142,102 142,102 142,101 142,101 143,100 143,101 147,101 147,101 148,100 147,98 146,97 146,97 146,97 146,97 146,96 147,96 147,95 146,95 146,96 143,96 138,96 138,96 138,96 137,96 138,96 138,95 138,95 138,95 138,95 138,95 140,93 141,91 142,91 141,91 141,90 140,90 139,89 138,88 138,88 137,87 137,87 137,87 137,87 138,86 138,86 139,86 140,86 141,86 141,86 142,86 144,86 143,84 143,84 143,84 144,83 143,83 144,83 144,82 144,82 145,82 145,82 146,82 147,81 147,81 148,81 148,80 149,80 149,80 149,80 150,80 150,80 151,80 151,80 151,80 151,80 150,79 151,79 151,79 152,79 152,79 152,79 152,79 152,79 152,79 152,78 153,78 154,78 154,77 154,77 154,77 154,77 154,77 154,76 155,76 155,76 155,76 156,76 156,76 156,76 156,75 156,75 156,75 156,74 156,74 156,74 156,74 156,74 156,73 156,73 155,73 155,73 155,73 155,73 155,72 156,71 155,71 155,71 156,71 156,71 156,70 157,70 158,70 158,70 158,69 159,68 159,68 159,67 159,67 159,67 159,67 159,66 159,66 160,65 161,65 161,65 161,65 162,65 162,64 163,64 163,64 163,64 164,64 165,64 165,64 165,64 165,64 166,64 167,63 167,63 167,63 168,62 169,62 169,62 169,62 170,62 170,61 171,61 171,61 171,60 172,59 173,58 174,58 174,56 174,55 175,51 175,51 176,50 176,50" id="6403" class="canton" fill="steelblue" stroke-width="1" stroke="white" geotype="canton" geoname="Baïgura et Mondarrain" code_insee="6403" code_departement="64" nom_departement="Pyrénées-Atlantiques" code_region="75" nom_region="Nouvelle-Aquitaine"/></svg>