<?xml version="1.0" encoding="utf-8"?>
<svg version="1.1" id="svgmap" xmlns="http://www.w3.org/2000/svg" xmlns:xlink="http://www.w3.org/1999/xlink" x="0px" y="0px" width="100%" height="100%" viewBox="0 0 500 358">
<polygon points="11,226 14,226 18,224 21,223 22,222 23,222 24,222 27,221 28,221 31,220 32,221 32,221 32,221 33,221 33,221 49,218 49,218 49,218 49,218 36,221 36,221 36,222 36,222 35,224 34,224 36,225 36,225 36,225 35,225 35,225 35,225 35,225 32,225 32,225 32,226 32,226 31,227 28,228 28,229 28,229 28,229 27,229 30,233 31,233 32,233 31,234 31,234 31,234 28,237 29,238 29,238 29,238 29,238 30,238 30,238 32,238 33,238 34,238 34,238 33,238 31,238 31,238 31,240 32,241 33,242 36,244 38,245 40,246 43,247 46,247 47,247 50,248 55,247 57,248 63,248 64,248 64,247 68,246 67,246 68,247 69,246 71,248 72,248 72,249 72,249 73,249 73,249 74,248 73,248 73,248 73,248 73,248 73,248 73,248 74,248 74,248 75,248 76,248 76,248 78,250 79,250 77,248 78,247 78,247 78,248 79,249 80,249 83,249 84,248 86,247 90,244 95,242 98,240 101,237 103,235 105,234 105,231 105,230 105,229 102,229 100,230 100,230 102,229 103,229 106,229 106,228 106,226 106,223 106,221 105,220 105,220 105,219 105,219 104,218 103,217 102,216 101,214 100,213 98,213 97,213 94,214 92,213 92,213 92,211 91,211 90,211 85,212 85,211 92,211 92,211 93,209 95,209 97,208 99,206 101,205 103,203 104,201 103,200 103,199 103,199 104,198 105,198 107,198 108,199 111,200 113,199 114,197 116,196 118,196 119,195 120,194 120,193 120,192 121,192 122,193 122,195 123,195 125,194 125,193 124,192 125,191 126,192 127,192 128,191 129,190 134,189 135,189 137,189 138,189 141,190 143,191 144,192 146,192 150,193 152,193 154,193 155,193 159,191 160,190 162,189 164,188 164,188 166,187 166,186 169,185 171,185 172,184 174,183 176,182 177,182 179,183 178,181 180,180 181,179 182,178 183,177 183,176 183,175 183,174 183,172 182,171 183,170 184,169 185,168 187,168 188,167 189,167 190,167 191,167 191,166 193,166 193,167 195,167 195,167 196,167 196,166 197,166 196,167 198,168 201,167 202,168 205,167 207,166 209,166 210,165 211,164 212,163 214,161 214,160 214,159 214,157 212,156 212,155 212,153 211,153 211,152 212,151 212,150 213,150 213,151 214,151 215,151 216,151 216,152 216,152 218,152 219,151 220,151 224,147 227,145 227,143 228,142 231,138 233,137 234,137 235,138 236,138 239,137 241,136 243,133 245,130 246,129 247,128 251,127 254,126 254,125 255,126 257,125 262,124 263,122 263,121 265,122 270,122 270,121 271,121 272,121 273,121 273,121 273,121 272,121 271,121 271,122 273,122 276,121 278,120 279,119 279,118 282,116 284,115 285,114 288,113 291,111 291,110 291,109 292,109 294,108 294,107 296,107 298,105 302,103 303,101 304,99 306,99 307,98 309,95 316,89 325,77 326,76 326,75 330,70 332,66 333,65 333,63 333,62 334,61 335,60 336,59 337,58 339,56 340,55 341,53 343,52 344,50 345,49 347,48 348,46 349,46 352,42 353,41 354,39 356,38 357,36 357,35 360,32 364,26 366,23 367,22 365,22 363,22 364,21 364,20 366,19 367,19 368,20 369,19 370,17 370,16 372,13 373,12 375,11 376,10 377,9 378,8 379,5 380,4 381,3 381,2 380,2 382,1 383,0 386,2 392,4 408,8 408,9 411,10 414,10 414,10 415,10 415,11 413,12 414,13 414,14 419,18 420,20 420,21 421,22 422,24 423,24 425,24 425,24 427,27 429,30 430,31 430,32 431,33 434,39 440,42 442,43 446,45 454,48 454,48 461,49 469,50 478,51 500,50 498,54 495,58 492,62 491,65 487,71 486,73 485,73 465,74 443,67 442,66 440,67 439,66 439,66 438,68 438,69 438,69 438,73 438,74 438,74 439,76 440,77 440,80 443,85 446,89 446,89 448,90 447,91 446,91 444,91 443,92 442,94 440,95 434,97 430,98 427,99 425,99 423,100 421,100 422,100 423,101 424,101 425,102 426,102 427,102 428,102 428,104 428,104 429,103 430,103 430,103 430,104 431,105 432,105 433,105 434,104 433,105 431,106 430,107 428,110 428,111 426,111 419,110 418,111 418,112 417,112 415,114 413,116 411,116 408,116 406,117 402,117 400,117 399,118 398,119 393,127 392,128 392,129 391,131 391,132 386,136 380,139 375,144 372,149 367,154 361,156 343,149 338,151 338,152 335,152 333,154 331,155 325,157 322,158 319,159 313,160 313,161 309,161 308,168 306,174 306,174 307,177 313,206 316,207 317,207 317,208 308,218 307,219 307,219 304,223 301,226 297,229 291,234 267,250 261,253 260,254 246,259 245,259 245,259 247,267 248,269 253,293 254,308 250,320 249,320 249,320 249,320 248,321 247,321 246,322 244,322 244,323 243,323 243,323 243,324 243,323 243,323 243,323 243,323 242,324 242,324 242,323 241,324 241,324 241,324 241,324 241,324 241,324 241,324 241,324 241,324 241,325 241,325 241,325 241,325 241,325 241,325 240,325 240,325 240,325 240,325 240,325 240,325 239,325 239,325 239,325 239,325 239,325 239,325 238,325 237,325 236,325 236,325 236,325 235,325 234,325 233,324 231,324 230,323 229,323 229,323 228,323 228,323 228,323 228,323 227,322 224,322 222,321 220,321 220,321 219,320 219,320 217,320 215,319 215,319 213,319 212,319 212,319 211,319 211,318 211,318 211,318 210,318 209,318 208,319 208,319 207,319 205,318 205,318 205,318 205,318 205,318 204,319 204,319 204,318 203,319 203,319 202,319 202,319 202,319 201,318 202,318 202,318 202,318 201,318 201,318 201,318 201,318 200,318 200,318 200,318 199,318 199,318 199,318 199,318 198,318 198,318 198,318 198,318 198,318 198,318 197,319 197,319 197,319 196,319 196,319 196,319 196,319 195,319 195,319 195,319 195,319 194,319 194,319 194,319 193,319 193,319 193,319 193,320 193,320 192,320 192,320 192,320 191,320 191,320 191,321 191,321 191,321 191,321 191,321 190,321 190,321 190,321 190,321 189,321 189,321 189,321 189,321 188,321 188,321 185,322 185,322 182,322 182,322 181,322 180,320 180,320 179,320 179,320 178,320 177,319 176,319 176,318 175,318 175,318 175,319 174,319 174,319 174,319 173,319 173,318 173,318 173,318 173,318 172,318 171,318 171,318 172,320 173,323 174,324 174,326 174,326 174,328 174,331 174,332 174,334 174,337 174,337 174,337 174,338 174,338 174,338 174,338 174,339 173,339 173,339 173,339 173,339 173,339 173,339 173,339 173,340 172,342 172,342 172,343 172,343 171,344 171,344 170,344 170,344 169,344 169,344 168,344 167,344 166,344 166,344 165,344 164,344 162,345 162,345 161,345 160,345 160,345 158,345 158,345 157,345 156,345 155,345 155,345 154,345 154,345 154,346 151,350 151,350 151,350 151,350 151,350 151,350 150,353 149,354 149,354 146,357 146,357 145,357 143,357 138,357 135,357 132,356 132,356 128,357 127,358 126,358 124,357 124,357 124,357 124,356 124,355 124,355 124,355 125,355 125,355 124,354 125,354 116,349 108,343 102,344 101,343 102,342 104,339 105,338 107,337 108,335 105,333 105,332 105,326 104,325 101,323 100,321 99,321 97,321 96,320 92,318 91,316 90,315 88,313 88,313 87,311 85,307 84,306 83,305 80,302 80,301 80,300 81,299 81,298 82,295 82,294 84,291 85,291 84,290 83,289 81,287 78,286 78,286 77,285 76,285 76,284 75,283 74,282 73,282 72,282 72,281 71,281 70,281 70,280 69,280 67,282 66,282 65,282 64,282 63,282 61,280 60,281 60,281 60,281 59,281 58,279 57,277 56,277 50,281 48,279 48,279 46,280 44,280 38,281 36,284 31,284 29,283 29,283 25,282 24,282 23,282 22,281 21,280 21,280 20,279 18,279 16,279 15,278 14,278 14,277 13,277 11,276 11,276 10,276 10,275 10,275 9,274 8,272 7,272 6,271 3,270 0,269 0,269 0,268 1,267 3,265 4,263 6,262 11,260 13,258 14,257 16,255 22,253 22,252 23,252 22,248 22,247 22,245 24,243 23,243 23,243 23,243 23,242 22,242 22,242 21,242 21,241 21,241 21,240 21,240 21,239 21,239 21,237 20,237 20,236 20,236 20,235 20,235 19,235 18,234 18,234 17,233 17,233 16,231 16,231 16,230 15,230 14,229 14,229 13,229 12,228 11,226" id="6424" class="canton" fill="steelblue" stroke-width="1" stroke="white" geotype="canton" geoname="Saint-Jean-de-Luz" code_insee="6424" code_departement="64" nom_departement="Pyrénées-Atlantiques" code_region="75" nom_region="Nouvelle-Aquitaine"/></svg>