<?xml version="1.0" encoding="utf-8"?>
<svg version="1.1" id="svgmap" xmlns="http://www.w3.org/2000/svg" xmlns:xlink="http://www.w3.org/1999/xlink" x="0px" y="0px" width="100%" height="100%" viewBox="0 0 417 500">
<polygon points="80,270 80,269 81,268 82,269 83,269 84,269 85,270 87,272 88,274 89,274 90,275 92,275 92,275 93,276 93,276 94,276 95,277 96,277 97,277 97,277 98,277 98,277 99,277 100,276 101,276 101,277 102,278 102,278 104,278 104,278 105,279 106,280 107,280 107,281 107,281 107,282 109,283 109,283 109,283 109,283 109,283 109,284 109,284 109,285 109,286 110,286 110,287 110,287 110,288 113,288 116,288 119,288 119,289 120,289 120,288 121,287 122,287 122,287 123,286 123,286 123,285 123,285 124,285 125,285 125,285 126,285 126,284 127,284 128,284 129,285 129,285 131,285 131,285 132,285 132,285 133,285 134,284 134,284 135,284 135,284 136,284 138,283 142,284 146,282 149,280 154,280 158,278 161,277 163,276 164,274 147,271 146,260 146,258 145,257 148,252 148,249 150,247 151,246 154,246 157,245 158,243 159,241 159,240 159,239 159,237 160,236 159,235 158,233 158,232 156,232 154,230 154,229 154,228 154,227 154,225 156,222 157,221 160,219 161,216 162,216 162,214 162,213 162,213 162,212 163,211 164,211 165,210 166,209 168,209 170,209 173,210 175,209 177,209 179,208 179,208 180,207 181,206 182,205 182,205 183,205 184,205 185,203 185,203 185,203 185,202 185,202 186,202 187,203 187,203 188,203 189,203 190,203 191,203 192,203 192,203 193,204 196,204 197,205 199,206 200,206 200,206 201,207 202,207 202,207 203,207 203,207 204,208 204,208 205,208 206,208 206,209 206,209 209,210 210,211 210,211 210,211 210,211 211,211 211,211 211,211 211,211 211,211 211,211 211,211 212,211 212,211 212,211 212,211 212,211 212,212 212,212 212,212 213,212 213,212 213,212 213,212 214,212 214,212 214,212 214,212 214,212 214,213 214,213 214,213 214,213 214,213 214,213 214,213 214,214 214,214 214,214 214,215 213,215 214,215 214,216 214,216 214,216 214,216 214,217 214,217 214,217 214,217 215,217 215,217 215,218 215,218 215,218 215,218 215,218 216,218 216,218 217,219 217,219 217,219 217,219 217,219 218,219 218,218 218,219 218,219 219,218 219,218 219,218 219,219 220,219 220,219 220,219 220,219 220,218 220,219 221,219 222,219 222,219 222,219 223,219 223,219 224,219 224,219 224,219 224,219 224,219 224,220 225,220 225,220 225,221 225,221 225,221 225,221 226,221 226,221 226,222 226,219 227,215 229,210 217,205 217,197 216,192 216,186 215,185 203,187 206,180 213,170 209,168 206,168 206,168 205,168 204,169 199,169 199,166 197,164 195,164 198,160 196,148 185,146 184,141 183,140 182,139 182,138 182,137 182,137 182,135 182,135 182,135 183,135 183,135 183,134 182,134 182,132 182,131 182,131 182,130 182,130 181,129 181,129 182,129 182,128 183,128 183,128 183,127 184,126 184,126 184,125 184,125 184,124 184,124 184,124 184,124 184,123 183,123 182,123 182,122 182,122 182,122 182,122 182,121 182,121 181,122 181,122 181,121 181,121 180,121 180,121 180,120 180,120 179,120 179,120 179,120 179,121 179,121 179,121 178,121 178,121 178,121 178,121 178,120 177,119 177,119 177,118 177,118 177,117 177,117 177,116 177,116 176,116 176,116 176,116 176,115 177,115 177,115 177,115 177,115 177,115 177,115 177,115 176,115 176,114 176,114 176,114 177,113 178,113 178,113 178,112 177,112 177,111 177,111 177,111 177,111 178,111 178,111 179,110 179,110 179,110 179,110 180,109 180,109 180,109 180,109 180,109 181,109 181,110 181,110 182,110 182,109 182,109 183,109 183,109 184,109 184,109 184,108 184,108 184,108 184,108 185,108 185,108 186,108 186,108 187,108 187,108 187,109 186,109 186,110 188,110 187,111 187,110 187,111 186,111 186,111 185,112 186,112 186,113 187,113 188,114 188,114 189,113 189,112 193,111 194,111 195,112 196,112 196,112 196,112 197,112 198,111 199,109 200,110 200,110 199,110 199,111 198,111 199,112 199,112 200,112 202,113 203,114 205,113 205,113 205,112 206,112 206,112 206,112 206,112 206,112 205,112 205,112 205,112 205,111 205,111 205,111 205,111 205,111 205,111 205,111 205,111 205,111 205,111 205,111 205,111 205,110 205,110 205,110 205,110 205,110 205,110 205,110 205,110 205,110 205,110 205,110 205,110 205,110 204,109 204,109 204,109 204,109 204,109 204,109 204,109 204,109 204,108 204,108 204,108 204,108 204,108 204,108 204,108 204,108 204,108 204,108 204,107 204,107 204,107 204,107 204,107 204,107 204,107 204,107 204,107 204,107 204,107 204,106 204,106 204,106 204,106 204,106 204,106 204,106 204,106 204,106 204,105 204,105 203,105 203,105 203,105 203,105 203,105 204,105 203,105 203,105 203,105 203,105 203,104 203,104 203,104 203,104 203,104 203,104 203,104 203,104 203,103 203,103 203,103 203,103 203,103 202,103 202,102 202,102 202,102 202,102 202,102 202,102 203,102 203,101 203,101 202,101 202,101 203,101 203,101 203,100 203,100 203,100 203,100 203,100 203,100 203,100 203,99 203,99 203,98 203,98 203,98 203,97 203,97 204,97 204,96 204,96 205,96 205,96 206,97 206,97 208,97 209,98 210,98 210,98 210,98 211,98 211,99 212,99 212,99 212,99 213,99 215,99 216,99 220,99 220,99 221,99 229,99 231,95 232,95 235,90 233,88 232,86 231,85 230,84 229,84 230,84 230,83 229,82 229,81 230,80 230,78 231,77 231,77 232,76 232,76 232,75 232,75 231,75 231,75 231,73 231,72 230,72 230,72 230,71 229,71 228,70 228,70 227,69 227,68 227,68 226,67 226,67 226,67 226,67 226,66 226,66 225,66 225,66 225,66 225,66 224,66 224,66 224,66 224,65 224,65 223,65 223,65 223,65 223,65 223,65 223,65 223,65 222,65 222,65 222,65 222,65 221,65 221,65 221,65 221,65 221,65 221,65 221,65 220,65 219,65 219,65 219,65 219,65 219,65 219,65 218,65 218,65 218,65 217,66 217,66 217,66 217,66 216,65 216,66 216,66 216,66 216,66 215,66 215,66 215,66 214,66 213,66 213,66 213,66 212,66 212,67 212,67 212,67 211,67 211,67 211,67 210,66 210,66 210,66 210,66 209,66 209,66 210,65 209,65 209,64 209,63 209,63 209,62 209,62 209,61 209,61 210,61 210,61 210,61 211,61 211,61 211,61 211,61 212,61 212,61 212,61 212,61 213,61 213,61 213,61 213,61 214,61 214,60 215,60 215,60 215,60 216,61 217,61 218,61 219,61 219,61 219,61 219,61 220,62 220,62 220,62 220,62 220,62 221,62 221,62 221,62 221,62 220,61 220,61 220,60 220,60 219,60 220,59 220,59 220,58 220,58 220,56 221,56 221,56 221,56 221,56 222,56 222,56 222,55 222,55 223,55 223,55 223,55 223,55 224,55 224,55 224,55 224,55 224,55 224,54 225,55 225,55 225,54 226,54 226,54 226,54 226,54 226,54 226,54 227,54 227,54 228,53 228,53 228,53 228,53 228,53 229,53 229,53 230,53 231,53 231,52 231,52 231,52 232,52 232,52 232,52 232,52 233,52 233,52 233,52 234,52 234,51 234,51 234,51 235,51 235,51 235,51 235,51 235,51 236,52 236,52 236,52 236,51 237,52 237,51 237,51 237,51 237,51 237,51 238,51 238,51 238,51 238,51 239,51 239,51 239,51 239,51 240,51 240,51 240,51 241,51 241,51 241,51 242,51 242,51 242,51 243,51 243,51 243,51 243,51 244,51 244,51 244,51 244,51 244,51 244,51 244,51 244,51 245,51 245,52 245,52 247,52 247,52 247,52 247,52 247,53 248,53 248,53 248,53 248,53 248,52 249,52 250,52 250,53 251,53 251,53 252,53 253,53 253,54 254,54 254,54 255,54 255,54 255,55 256,55 256,55 256,56 256,56 256,56 256,56 256,56 256,56 256,56 257,56 257,56 257,56 257,56 257,56 258,56 258,56 258,56 258,56 258,55 258,55 259,55 259,55 260,55 261,54 261,54 261,54 262,53 263,53 263,53 264,54 265,54 266,54 266,54 268,55 269,55 270,55 277,54 274,53 272,52 272,52 272,52 263,48 258,46 258,46 257,46 257,46 253,45 252,44 252,44 249,42 248,42 248,42 248,42 248,42 248,42 248,42 247,42 246,41 246,41 246,41 246,41 246,41 246,41 245,41 245,41 245,41 245,41 245,41 245,41 244,41 244,41 244,41 244,41 244,41 244,41 244,41 244,41 244,41 244,41 244,41 244,41 244,41 244,41 243,41 243,41 244,41 244,42 243,42 243,42 243,42 243,42 243,42 243,42 243,42 243,42 243,42 243,42 243,42 243,42 242,42 242,42 242,42 242,42 242,42 242,42 242,42 242,42 242,42 241,42 241,42 241,42 241,42 241,42 241,42 241,42 241,42 240,42 240,42 240,42 240,42 240,42 240,42 240,42 240,42 240,42 239,42 239,42 239,42 239,42 239,42 239,42 239,42 239,42 239,42 239,42 238,42 238,42 238,42 238,42 237,43 237,43 237,43 237,43 237,43 237,43 237,43 237,43 236,43 236,43 236,43 236,43 236,43 236,43 236,42 236,42 236,42 236,42 236,42 236,41 236,41 236,41 236,41 236,41 236,40 236,40 236,40 236,40 236,40 236,39 236,39 236,39 236,38 236,38 236,38 236,38 236,38 236,38 236,38 235,38 235,37 235,37 234,37 233,37 233,37 233,36 233,36 232,36 232,36 232,36 232,36 232,36 232,36 231,36 231,36 231,36 231,36 231,36 231,36 231,36 230,36 230,36 229,36 229,36 229,36 229,36 228,36 228,36 228,36 228,36 228,36 227,36 227,36 227,36 227,35 227,35 226,35 226,35 226,35 226,35 226,35 226,35 226,35 226,35 226,35 225,35 225,35 225,35 225,35 225,35 225,35 224,35 224,35 224,35 223,35 223,35 223,35 223,35 223,35 223,35 223,34 223,34 223,34 222,34 222,34 222,34 222,34 222,34 221,34 221,34 221,34 221,34 221,34 220,34 220,34 220,34 220,34 220,34 220,34 220,34 220,34 219,34 219,34 219,34 219,33 219,33 219,33 219,33 219,34 219,34 219,34 218,33 218,33 218,33 218,33 218,33 218,33 218,33 218,33 218,33 217,33 217,33 217,33 217,33 217,33 217,33 217,33 217,33 217,33 217,33 216,33 216,33 216,33 216,33 216,33 216,33 216,33 216,33 216,33 216,33 216,33 216,33 216,33 215,33 215,33 215,33 215,33 215,33 215,33 215,33 215,33 215,33 215,33 215,33 215,33 215,33 215,33 215,33 215,33 214,33 214,33 214,32 214,32 214,32 214,32 214,32 214,32 214,32 213,32 213,32 213,32 213,32 213,31 212,31 212,31 212,30 212,30 213,30 213,30 212,30 212,30 212,30 213,30 213,30 212,30 212,30 212,29 212,29 212,29 212,28 211,28 211,28 211,28 211,28 211,28 210,28 210,27 210,27 210,27 210,27 210,27 210,27 210,27 210,27 210,27 209,27 209,27 209,27 209,27 209,27 209,27 209,26 208,26 208,26 208,26 208,26 208,26 209,26 209,26 209,26 209,26 209,26 209,26 209,26 210,26 210,26 210,26 210,26 211,26 211,26 211,26 211,26 211,26 212,26 212,26 212,26 212,26 212,26 213,26 213,26 214,26 214,26 214,26 214,26 214,26 214,25 215,25 215,25 215,25 215,25 216,25 217,25 217,25 217,25 219,24 219,24 215,21 215,21 215,21 215,20 214,19 214,18 214,18 215,17 215,17 216,17 216,17 216,17 216,17 216,17 216,17 215,16 215,16 215,16 215,16 215,16 215,16 215,16 215,16 215,16 215,15 215,15 214,15 214,14 214,14 214,14 214,14 214,14 214,14 214,13 214,13 214,13 214,13 214,13 214,12 214,12 214,12 214,12 214,12 214,12 214,12 214,12 214,12 213,12 213,11 213,11 213,11 213,11 213,11 213,11 213,11 213,11 213,11 213,11 212,11 212,11 212,11 212,11 212,11 212,11 212,10 211,10 211,10 211,10 211,10 211,10 211,10 211,10 211,10 210,10 210,10 210,10 210,10 210,10 210,10 210,10 209,9 209,9 209,9 209,9 209,9 209,9 209,9 209,9 209,9 209,9 209,9 209,9 208,9 208,9 208,9 208,9 208,9 208,9 208,9 208,9 208,9 208,9 207,9 207,9 207,9 207,9 207,9 207,9 207,9 206,9 206,9 206,9 206,8 206,8 206,8 205,8 205,8 205,8 204,8 203,8 203,8 203,7 203,7 203,7 203,7 203,7 203,7 203,7 203,7 202,7 202,7 202,7 202,7 202,7 201,6 201,6 201,6 201,6 201,6 201,6 201,6 201,6 201,6 201,6 201,6 201,6 201,6 200,6 200,6 200,6 200,5 200,5 200,5 199,4 199,4 199,4 199,4 199,4 199,4 199,4 199,4 199,4 199,4 198,4 198,3 198,3 198,3 198,3 198,2 198,2 198,2 198,2 198,2 198,2 198,2 198,2 198,2 198,2 198,2 199,2 199,2 199,2 199,2 199,2 200,1 200,1 200,1 200,1 200,1 201,1 201,1 201,1 202,1 202,1 202,1 202,0 202,0 202,0 203,0 203,0 203,0 203,0 203,0 203,0 203,0 203,0 203,0 203,0 203,0 203,0 204,0 204,0 204,0 205,0 205,0 205,0 205,0 205,0 205,0 205,0 205,0 205,0 206,0 206,0 206,0 206,0 206,0 206,0 206,0 206,0 206,0 206,1 206,1 206,1 207,1 207,0 207,0 207,0 207,1 208,1 208,1 208,1 208,1 208,1 208,1 208,1 208,1 208,1 208,1 208,1 208,1 208,1 209,1 209,1 209,1 210,1 210,1 210,1 210,1 210,1 211,1 211,1 212,1 212,1 213,1 213,1 213,1 214,1 215,1 215,1 215,1 215,1 215,1 215,1 215,1 215,2 215,2 216,2 216,2 216,2 216,2 216,2 216,2 216,2 216,2 217,2 217,2 217,2 217,2 217,2 217,2 217,2 217,2 217,3 217,3 217,3 217,3 217,3 218,3 218,3 218,3 218,3 218,3 218,3 218,3 218,3 219,3 219,3 219,3 219,3 219,3 219,3 219,3 219,3 219,3 219,3 219,4 220,4 220,4 220,4 220,4 220,4 220,4 220,4 220,4 220,4 220,4 220,4 221,4 221,4 221,4 222,4 223,4 223,4 223,4 223,4 224,4 224,4 224,4 225,4 225,4 225,4 225,4 225,4 225,4 225,4 225,4 226,4 226,4 226,4 227,3 227,3 227,3 228,3 228,2 228,2 228,2 229,2 229,2 229,2 231,1 231,1 233,1 233,1 233,1 233,1 235,0 235,0 235,0 235,0 235,0 235,0 235,0 235,0 235,0 235,1 235,1 235,1 235,1 235,1 235,1 235,1 235,1 235,1 235,1 235,1 234,2 235,2 235,2 235,2 235,2 235,2 235,2 235,3 235,3 235,3 235,3 235,3 235,3 236,3 236,3 236,3 237,3 237,3 237,3 237,3 237,3 237,3 238,3 238,3 238,3 238,3 238,3 238,3 238,3 239,2 239,2 239,2 240,2 240,2 240,2 240,2 241,2 241,2 241,2 241,2 241,2 242,2 242,3 242,3 242,2 242,2 242,2 242,3 242,3 243,3 243,3 243,3 243,3 243,3 244,3 244,3 245,3 245,3 245,3 245,3 245,3 246,3 246,3 246,3 246,3 247,4 247,4 247,4 247,4 247,4 247,5 247,5 247,5 247,5 247,6 247,6 247,7 247,8 247,8 247,8 247,8 247,8 247,8 250,8 250,9 250,9 252,8 253,9 253,9 254,8 254,8 254,8 253,8 253,7 253,7 253,7 253,7 253,7 254,7 254,6 254,6 254,6 254,6 254,6 254,5 254,5 254,5 254,5 254,5 253,4 253,4 253,4 253,4 253,4 253,4 253,3 254,3 254,3 254,3 254,3 254,3 255,3 255,3 255,2 255,2 256,2 256,3 256,2 256,2 257,2 257,2 257,2 258,2 259,2 259,2 259,2 259,2 259,2 259,3 259,3 259,3 259,3 259,3 258,3 258,3 258,4 258,5 258,5 258,5 258,5 258,5 259,5 259,5 259,5 259,6 259,6 259,6 259,6 259,6 259,7 259,7 259,7 260,8 260,8 260,8 260,8 260,8 260,9 260,9 260,9 260,9 261,9 261,9 261,9 261,8 261,8 261,8 261,8 261,8 261,8 261,8 262,8 262,8 262,8 262,8 262,8 262,8 262,8 262,8 262,8 263,8 263,8 263,8 263,8 263,8 263,8 263,8 263,8 264,8 264,8 264,8 264,8 264,8 264,8 264,8 264,8 264,8 264,8 265,8 265,8 265,8 265,8 265,8 265,8 265,8 265,9 266,8 266,8 266,8 266,9 266,9 266,9 266,9 267,9 267,9 267,9 267,9 267,9 267,9 267,9 268,9 268,9 268,9 268,9 268,9 268,9 268,9 268,9 268,9 269,9 269,9 269,9 269,9 269,9 269,9 269,9 269,9 270,9 270,9 270,9 270,9 270,11 270,11 270,12 270,12 274,13 276,14 276,14 279,15 279,15 280,17 280,17 282,18 282,18 283,18 283,18 293,14 297,13 298,12 298,12 298,12 298,12 298,13 298,13 298,13 298,13 298,13 298,13 298,13 298,13 298,14 298,14 298,14 298,14 298,14 298,14 298,14 298,14 298,14 298,14 298,14 298,14 298,14 298,14 298,14 298,14 297,14 297,14 297,15 297,15 297,15 298,15 298,15 297,15 297,16 297,16 297,16 297,16 297,16 297,16 297,16 297,16 297,16 297,16 297,16 296,16 296,16 296,16 296,16 296,17 296,17 296,17 296,17 296,18 296,18 296,18 296,18 296,18 296,18 296,19 296,19 296,19 296,19 296,19 296,19 296,19 296,19 296,19 295,19 295,19 295,19 296,19 296,19 296,19 296,19 296,19 296,20 296,20 296,20 296,20 295,20 295,20 295,20 295,20 296,20 296,20 296,20 296,20 296,20 296,20 296,20 296,21 296,21 296,21 296,21 296,21 296,22 296,22 296,22 296,22 296,22 296,22 296,22 296,22 297,22 296,22 296,23 296,23 296,23 296,23 296,23 296,23 296,23 296,24 296,24 296,24 296,24 296,24 296,24 296,24 296,24 295,24 295,24 295,24 295,25 295,25 295,25 295,25 295,25 295,25 295,25 295,25 295,25 295,25 295,25 295,25 295,25 295,26 295,26 295,26 295,26 295,26 295,26 295,26 295,26 295,26 295,26 295,27 295,27 295,27 295,27 295,27 295,27 295,27 295,27 295,27 295,27 295,27 295,27 295,27 295,27 295,27 295,27 295,28 295,28 295,28 295,28 295,28 295,28 295,28 295,29 295,29 294,29 295,29 295,29 295,29 295,29 295,30 295,30 295,30 295,30 295,30 295,30 295,30 295,30 295,30 294,31 294,31 294,31 294,31 294,31 294,31 294,31 294,31 294,31 293,31 293,31 293,31 293,32 293,32 293,32 293,32 293,32 293,32 293,32 292,32 292,32 292,32 292,32 292,32 292,32 292,32 292,32 292,32 292,32 292,32 292,32 292,32 291,32 291,33 291,33 291,33 291,33 291,33 291,34 291,34 291,34 291,34 291,34 290,34 290,34 290,34 290,34 290,34 290,34 290,35 290,35 290,35 290,35 290,35 290,35 290,35 290,35 290,35 290,35 290,35 290,35 289,36 289,36 289,36 289,36 289,36 289,36 289,36 289,36 289,36 289,36 289,37 289,37 289,37 289,37 289,37 289,37 289,37 289,37 289,37 289,37 289,37 289,37 289,37 289,37 289,37 289,37 289,38 289,38 289,38 288,38 288,38 288,38 288,38 288,38 289,38 289,38 289,38 289,38 289,39 289,39 289,39 289,39 289,39 289,40 289,40 289,40 289,40 289,40 289,40 289,40 289,40 291,41 292,42 296,43 298,44 298,45 298,45 299,45 299,46 299,46 299,45 300,45 302,45 302,44 303,44 305,44 309,43 311,43 315,42 315,41 316,41 316,41 316,41 316,41 317,41 317,41 318,41 319,40 320,40 325,38 325,38 325,38 326,38 326,38 327,37 327,37 328,37 328,37 330,36 331,36 331,36 332,35 333,35 335,34 337,34 338,34 339,33 339,33 340,33 342,33 342,32 343,32 344,32 346,31 347,31 348,31 348,31 348,30 348,33 347,35 347,35 347,36 347,36 347,36 347,36 347,36 347,36 347,36 348,37 348,40 348,41 349,42 349,43 349,43 349,45 349,45 349,45 349,46 349,46 350,52 350,52 350,52 351,53 351,54 351,55 351,57 352,57 352,57 352,57 353,57 353,57 355,58 356,58 356,58 356,58 358,61 358,61 358,61 358,61 358,61 359,62 359,62 359,62 359,62 359,62 359,62 359,62 359,63 360,64 360,64 360,64 360,64 360,64 360,64 360,64 359,66 359,66 360,66 360,66 360,66 361,66 362,67 362,67 362,67 362,67 362,67 360,68 360,68 360,68 359,69 358,69 358,69 357,69 357,70 356,70 356,70 356,70 355,72 355,72 355,72 355,73 355,73 355,73 355,73 354,73 354,73 353,74 353,74 353,74 353,75 354,75 354,75 355,75 356,75 357,75 357,75 358,76 359,76 359,76 359,76 359,76 361,77 361,77 362,77 362,78 364,78 364,78 363,78 363,79 363,79 363,79 363,79 363,79 363,79 363,79 363,79 363,79 363,79 363,79 363,79 363,79 363,79 363,80 363,80 363,80 363,80 363,80 363,80 363,80 362,80 362,80 362,80 362,80 362,80 362,80 362,80 362,81 362,81 362,81 362,81 362,81 362,81 361,81 361,81 361,81 361,81 361,81 361,81 361,81 361,82 361,82 361,82 361,82 361,82 360,82 360,82 360,82 360,82 360,82 360,82 360,82 359,82 359,82 359,82 359,82 359,82 360,82 360,82 360,82 360,82 360,82 360,82 360,82 360,82 359,82 359,82 359,82 359,82 359,82 359,82 359,82 358,82 358,82 358,82 358,82 358,83 358,83 358,83 358,83 358,83 358,83 357,83 357,83 357,83 357,83 357,83 357,83 357,83 357,83 357,83 357,84 357,84 357,84 358,84 358,84 358,84 358,84 358,84 358,84 358,84 358,84 358,84 358,85 358,85 358,85 359,85 359,85 359,85 359,85 359,85 359,86 359,86 359,86 360,86 360,86 360,86 360,86 360,86 360,87 360,87 360,87 360,87 360,87 360,87 360,87 360,87 360,87 359,87 359,87 359,88 359,88 360,88 360,88 360,88 360,88 360,88 360,88 360,88 361,88 361,89 361,89 361,89 361,89 361,89 361,89 361,90 361,90 361,90 361,90 361,90 361,90 361,90 361,90 362,90 362,90 362,90 362,90 362,90 362,90 361,90 361,90 361,90 361,91 360,91 360,91 360,91 360,91 359,91 359,91 359,91 359,91 359,91 359,91 358,91 358,91 358,91 358,92 358,92 358,92 357,92 357,92 356,92 356,92 355,93 355,93 355,93 354,93 353,93 353,94 352,94 353,95 354,96 354,97 354,97 354,97 354,97 354,97 354,96 354,96 354,96 355,96 355,96 355,96 355,96 355,96 356,96 356,96 356,96 356,96 356,96 357,96 357,95 357,95 357,95 357,95 357,95 357,95 357,95 357,95 357,95 358,95 358,95 358,95 358,95 358,95 358,95 358,95 358,95 358,95 358,95 359,95 359,95 359,95 359,95 359,95 359,95 359,95 359,95 359,95 359,95 360,95 360,95 360,95 360,95 360,94 360,94 361,95 361,95 361,95 361,95 361,94 361,94 362,94 362,94 363,95 363,95 364,95 364,95 364,95 364,95 365,95 365,95 365,95 366,95 366,95 370,96 370,96 371,95 373,95 373,97 373,97 372,99 372,100 373,101 373,103 373,103 373,103 369,103 369,103 369,104 368,105 366,107 365,108 365,108 365,108 366,110 366,111 367,118 366,120 368,121 368,121 369,122 371,122 371,122 372,124 372,124 372,124 372,124 372,124 372,124 372,126 371,126 371,129 371,129 371,130 371,130 371,131 371,131 371,132 372,133 372,135 372,135 372,135 371,135 371,135 371,136 370,137 370,137 370,137 369,137 368,137 368,137 368,137 366,137 366,137 364,138 364,138 359,138 359,137 359,137 359,137 353,140 352,141 348,142 348,143 348,143 348,143 347,143 347,143 347,143 350,146 350,147 350,147 355,148 356,148 356,148 353,152 353,152 352,155 352,155 352,157 352,157 356,160 356,160 357,163 360,170 360,170 361,171 366,174 378,179 379,180 389,185 389,185 390,185 390,185 393,187 397,189 407,194 409,195 409,195 409,195 413,194 413,195 413,195 413,198 412,199 412,200 411,201 410,201 410,203 406,203 404,204 402,204 401,204 400,204 399,205 398,206 398,206 398,208 399,208 397,209 396,209 395,210 393,210 393,211 393,211 391,211 390,211 387,211 386,212 386,212 385,213 383,213 382,214 381,213 380,213 379,213 379,213 378,213 377,213 372,218 370,220 373,222 374,222 376,223 377,224 378,224 379,227 380,227 380,228 380,229 380,229 382,230 385,231 388,232 390,232 390,234 391,234 391,235 392,236 393,236 391,240 390,240 390,241 390,242 390,243 392,244 392,245 391,245 390,246 391,248 392,249 392,250 396,253 395,253 395,254 395,255 396,256 397,257 398,259 400,259 401,260 408,260 409,261 411,266 411,269 413,272 412,275 412,275 411,275 411,276 411,278 410,279 409,280 409,281 408,282 407,283 406,284 406,285 406,286 406,290 406,291 406,292 406,292 406,293 406,293 406,293 406,295 406,296 406,296 405,297 405,297 403,298 402,299 401,299 400,299 399,300 399,300 397,302 397,303 396,303 393,304 393,306 394,306 395,308 396,308 398,309 399,310 401,310 402,311 400,313 400,313 400,314 400,315 399,316 397,317 397,318 397,319 397,320 396,322 394,324 394,325 394,327 391,328 391,331 392,332 392,333 392,335 391,335 391,336 391,338 390,339 390,340 389,341 389,343 391,344 390,345 389,346 389,347 389,348 389,349 389,350 389,351 390,351 390,352 390,353 391,353 391,354 391,354 391,355 393,356 394,356 395,359 395,361 394,362 394,362 394,363 394,365 396,367 397,372 395,373 393,376 392,377 391,378 390,379 390,380 390,381 389,381 389,382 389,383 388,384 388,385 389,388 388,389 388,391 387,392 386,394 387,394 388,396 390,398 391,399 391,401 392,402 395,404 395,405 397,407 393,415 393,418 395,422 396,423 395,424 395,424 395,425 395,426 395,427 395,427 395,428 395,429 393,430 393,431 392,431 391,431 390,431 390,431 388,432 388,432 388,432 387,431 387,432 386,431 386,431 385,433 385,433 385,433 385,433 384,434 383,435 383,435 383,436 383,436 383,437 383,437 384,437 384,437 384,438 384,438 385,439 386,440 386,440 387,440 387,440 388,440 389,441 389,441 390,441 390,441 391,441 391,441 391,442 391,442 392,443 392,443 393,443 393,443 393,443 394,444 394,444 395,445 395,445 395,446 396,446 396,447 396,447 397,447 397,447 398,447 398,447 399,447 399,446 399,446 401,446 401,446 402,447 402,447 402,447 403,448 403,448 405,449 405,449 405,449 405,449 405,450 406,450 406,450 406,451 406,451 406,451 406,451 405,452 405,453 405,454 405,454 405,454 405,454 405,454 405,454 405,454 407,454 407,454 408,455 408,455 408,455 409,455 411,456 411,456 411,456 413,458 413,458 413,458 414,458 414,459 414,459 414,460 414,460 414,461 414,461 415,462 415,463 415,463 415,463 416,464 416,464 417,464 417,465 417,465 417,465 417,465 417,465 417,466 416,466 415,467 415,467 415,467 414,468 413,468 411,469 410,470 410,470 408,470 408,470 405,472 402,475 400,476 396,477 395,478 392,478 389,478 388,478 384,477 382,479 380,480 375,480 374,480 371,481 367,482 364,480 362,480 358,481 356,480 351,481 351,479 348,477 344,476 333,475 332,475 329,474 327,473 324,472 321,472 323,469 322,468 321,466 321,465 320,464 319,461 320,459 319,456 318,456 314,457 311,458 308,456 304,455 300,455 297,454 296,453 296,452 295,450 294,449 287,446 283,445 283,448 281,449 277,450 277,450 269,456 268,459 261,459 257,461 252,463 248,465 245,465 245,468 245,470 246,474 243,476 243,478 241,480 243,485 240,490 238,490 235,488 232,488 231,490 229,491 226,492 222,494 218,496 217,498 212,500 204,494 202,493 200,492 199,490 195,488 187,482 185,481 177,479 182,473 183,470 183,468 180,466 178,464 174,458 174,453 173,453 172,453 171,453 169,452 168,452 165,451 163,450 161,450 161,451 160,451 160,451 156,451 152,451 149,451 148,452 147,451 146,451 145,450 143,450 142,450 141,450 140,450 140,450 140,450 139,450 139,450 138,451 138,451 137,451 137,452 137,452 137,452 136,451 135,451 134,451 133,450 133,450 132,450 130,449 129,448 128,448 126,447 125,446 124,446 123,444 122,444 122,443 120,441 118,441 115,440 114,439 114,439 113,438 111,438 109,437 108,437 106,437 104,436 103,436 102,435 100,436 98,436 97,435 95,434 95,434 94,434 93,434 92,433 91,433 90,432 89,432 87,432 86,431 85,431 84,431 81,430 81,431 80,432 80,433 79,434 77,434 76,434 76,435 76,435 75,435 74,436 73,437 72,437 71,438 70,438 69,438 68,439 67,439 67,439 67,440 66,441 66,442 66,442 67,443 66,444 66,445 66,446 64,446 63,445 61,444 59,444 58,444 57,444 55,444 53,444 52,445 49,445 48,445 48,446 47,446 45,446 44,446 44,447 43,447 42,447 41,447 38,446 38,445 37,443 37,441 36,440 36,439 36,438 36,437 35,435 35,435 35,434 34,432 34,431 33,430 33,429 33,428 33,426 33,423 34,422 35,422 37,421 42,419 41,418 39,417 39,415 36,414 34,413 32,412 31,410 27,407 24,405 22,404 21,403 19,401 18,399 13,397 12,396 11,395 11,394 11,393 10,391 10,390 12,386 13,386 14,385 12,382 13,381 14,379 18,377 19,376 19,374 18,373 19,372 20,369 18,368 15,368 12,366 8,365 7,365 4,364 0,363 1,362 1,361 3,354 3,354 4,353 5,351 5,351 6,349 6,348 6,346 6,345 7,344 7,344 7,343 8,342 9,340 9,340 9,339 10,338 11,337 11,337 11,337 11,337 11,337 11,336 11,336 11,336 11,336 12,335 12,335 12,335 12,335 12,333 12,333 12,333 12,333 12,333 12,333 12,333 12,332 12,332 11,332 11,331 11,331 11,331 12,331 12,330 12,330 12,330 12,329 13,329 14,328 14,328 14,326 14,325 14,325 14,323 13,323 13,322 14,322 14,321 17,320 20,319 20,319 20,318 19,317 18,316 16,315 16,315 16,314 15,311 15,309 26,306 26,304 27,302 29,301 30,300 33,298 35,297 36,297 38,297 50,299 51,298 52,298 52,298 55,297 59,296 60,295 69,288 70,287 71,286 73,284 74,283 78,281 78,280 80,278 81,277 81,275 81,274 80,270" id="6508" class="canton" fill="steelblue" stroke-width="1" stroke="white" geotype="canton" geoname="Neste, Aure et Louron" code_insee="6508" code_departement="65" nom_departement="Hautes-Pyrénées" code_region="76" nom_region="Occitanie"/></svg>