<?xml version="1.0" encoding="utf-8"?>
<svg version="1.1" id="svgmap" xmlns="http://www.w3.org/2000/svg" xmlns:xlink="http://www.w3.org/1999/xlink" x="0px" y="0px" width="100%" height="100%" viewBox="0 0 456 500">
<polygon points="163,7 165,8 167,8 167,7 170,7 171,7 172,7 172,7 173,7 175,7 176,7 176,7 176,7 177,8 178,8 178,8 179,8 180,8 181,8 182,8 184,9 184,9 184,9 184,9 185,9 185,8 186,8 186,8 186,8 187,8 188,8 188,8 189,8 190,8 191,8 191,7 191,8 191,8 191,8 191,8 191,8 192,8 192,8 193,8 194,8 194,8 195,8 195,8 195,8 195,7 195,7 195,7 196,7 196,7 196,7 197,7 197,7 198,7 198,7 199,6 199,6 200,6 200,6 200,6 200,7 200,7 200,7 200,7 199,7 199,7 199,8 198,8 198,8 198,8 198,8 199,8 199,8 199,9 199,9 199,9 199,9 199,9 199,9 198,9 198,9 198,9 197,10 197,10 197,10 197,10 197,10 197,10 197,10 197,11 197,11 198,11 198,11 198,11 198,11 198,11 198,12 198,12 197,12 197,12 197,13 198,13 197,13 197,13 197,13 197,14 197,14 197,14 197,14 197,14 197,14 196,14 196,14 196,14 196,14 196,14 195,15 195,15 195,15 195,16 196,16 196,16 196,16 196,17 195,16 195,16 194,16 194,17 195,17 195,17 194,18 194,18 193,18 193,18 193,19 193,19 194,19 194,19 194,19 194,19 193,20 194,20 194,20 194,20 194,20 194,20 193,21 193,21 193,21 193,21 193,21 194,21 194,21 194,21 194,21 194,22 194,22 194,22 195,22 195,23 195,23 195,23 195,23 195,23 196,23 196,23 196,24 196,24 197,24 196,24 196,25 196,25 196,25 196,25 196,25 196,26 195,26 195,28 195,28 195,28 195,28 196,28 196,28 197,29 197,29 198,30 199,30 199,30 200,30 200,30 201,30 203,31 204,30 204,31 206,31 210,32 212,29 213,28 216,25 217,24 217,24 220,22 220,22 223,19 224,19 224,17 224,13 223,10 223,9 223,7 223,4 224,4 224,3 228,3 228,3 229,3 229,3 229,3 229,3 229,3 230,2 230,2 230,2 231,2 231,1 232,1 233,1 234,1 234,0 234,0 235,0 235,0 236,0 241,2 246,3 247,3 248,2 249,1 250,1 250,1 250,1 250,2 250,3 252,3 254,4 255,4 255,5 256,5 256,6 256,6 257,6 258,6 259,7 260,7 261,7 263,7 263,7 264,7 264,7 265,7 265,7 265,7 266,8 267,8 267,8 267,8 269,8 271,8 272,7 273,7 273,6 274,6 274,6 274,5 275,5 274,5 275,5 275,4 275,4 276,3 276,3 276,3 277,3 278,2 279,2 279,1 279,1 280,2 280,2 280,2 280,3 279,4 279,4 279,4 277,4 277,5 277,5 277,6 277,6 277,6 276,7 276,7 276,7 277,8 277,8 276,8 276,9 276,9 275,9 275,9 275,9 275,9 274,10 274,10 274,10 274,10 274,10 274,11 274,12 274,12 274,12 274,12 274,12 273,12 273,12 272,12 272,13 272,13 271,13 271,13 270,13 269,13 269,13 269,14 269,14 269,14 269,14 269,14 268,14 268,14 266,15 266,15 266,15 265,16 264,16 263,16 263,17 262,17 261,18 261,18 260,18 260,19 259,19 259,19 259,19 259,20 259,20 259,20 259,20 259,21 259,21 259,22 258,22 258,23 258,23 258,24 259,24 259,24 259,24 259,24 258,24 258,25 258,25 256,25 255,25 255,26 254,26 254,26 254,26 253,27 253,27 253,27 253,27 252,27 252,27 252,27 251,27 251,27 251,28 252,28 252,28 252,28 251,28 250,29 250,29 250,29 249,30 249,30 248,31 247,31 247,31 246,31 246,31 246,31 246,32 246,32 246,32 246,32 246,33 245,33 245,33 245,33 245,33 245,33 244,33 245,33 245,34 244,34 244,34 244,34 244,34 244,34 244,35 244,35 244,35 244,35 244,35 244,36 243,36 244,36 244,37 243,37 243,37 243,38 242,37 242,37 242,37 242,38 242,38 242,38 241,38 241,38 241,38 241,39 241,39 241,39 240,39 240,39 240,39 240,39 239,39 239,39 239,39 238,39 238,39 238,40 238,40 238,40 237,41 237,41 236,41 236,41 236,41 235,41 235,42 234,42 233,42 233,43 232,43 231,43 231,43 231,44 230,44 230,44 230,44 230,44 230,44 229,44 229,45 229,45 229,45 229,45 229,45 228,46 228,46 228,46 228,46 228,45 227,45 227,46 227,46 227,46 227,47 226,47 226,47 226,47 226,48 227,48 227,48 227,48 226,48 226,48 226,48 226,48 226,48 225,49 225,49 225,50 225,50 224,51 223,51 223,52 222,52 222,52 222,52 222,52 221,52 221,52 221,52 221,52 220,52 219,53 218,53 218,54 218,54 218,54 217,54 217,54 217,54 216,54 216,54 216,54 216,54 215,54 215,54 215,54 215,55 215,55 215,55 214,55 214,55 214,55 214,55 213,55 213,55 213,55 213,55 212,55 211,55 211,55 210,56 210,56 209,56 208,56 207,56 207,57 206,57 205,57 204,58 204,58 203,59 203,59 203,60 202,60 201,61 200,61 199,62 198,63 197,63 197,64 196,65 193,67 184,74 182,75 181,76 180,77 178,80 177,81 177,81 177,81 177,82 177,82 176,82 176,83 175,83 175,84 174,84 174,85 173,85 171,87 170,89 166,92 165,93 163,94 163,94 155,102 162,103 165,104 166,104 168,105 170,105 170,106 172,106 172,107 173,108 175,109 178,110 179,112 179,112 179,113 180,112 181,113 182,113 183,113 184,113 184,114 185,114 188,120 189,121 173,129 172,129 172,131 173,131 176,131 179,131 180,131 180,131 180,131 180,131 184,131 187,131 188,131 188,131 189,131 189,131 189,131 196,130 200,130 200,130 200,130 200,131 200,131 203,130 209,130 209,129 212,129 212,129 212,129 213,128 213,128 214,128 214,128 214,128 218,127 220,126 221,126 225,125 226,127 226,129 227,131 228,134 228,134 239,135 239,135 239,135 239,135 240,135 240,135 240,135 240,135 240,135 240,135 240,135 240,135 241,135 241,135 241,135 241,135 241,135 241,135 242,136 242,136 242,136 242,136 242,136 242,136 242,136 242,136 242,137 243,137 243,137 244,137 244,137 244,137 244,137 245,138 245,139 245,139 245,139 245,140 245,140 243,141 243,141 243,141 241,142 240,142 241,142 241,142 240,142 238,143 238,143 238,143 241,146 241,146 241,146 242,149 242,149 242,150 242,150 242,152 242,152 242,152 242,153 242,153 242,153 242,153 242,153 243,153 243,153 244,153 245,154 245,154 245,154 245,154 245,154 247,154 248,155 249,155 249,155 249,155 249,155 251,155 251,156 252,156 252,156 253,156 253,156 253,156 254,156 254,156 255,157 255,157 256,157 256,157 256,157 256,157 256,156 256,156 256,156 256,156 256,156 257,157 257,157 258,157 258,157 258,157 258,157 260,157 260,158 260,158 260,158 261,158 262,158 263,158 263,158 265,158 265,158 266,157 266,157 267,157 267,157 267,157 268,158 268,158 269,158 269,158 269,158 269,158 269,158 269,158 269,158 269,158 269,158 269,158 270,158 271,158 271,158 271,158 271,158 271,158 271,158 271,158 273,158 273,158 273,158 274,158 274,158 274,158 274,158 274,158 274,158 274,158 274,158 275,158 275,158 275,158 275,158 275,158 275,158 275,157 275,157 275,157 275,157 275,157 275,157 276,157 276,157 276,157 276,157 276,157 276,157 276,157 277,157 277,157 277,157 278,157 278,157 278,157 278,157 278,157 279,157 279,157 279,158 280,157 280,157 280,157 280,157 280,157 280,157 281,157 282,157 282,157 283,157 283,157 283,157 283,157 283,157 284,157 284,157 284,157 284,158 284,158 285,157 286,157 286,157 286,157 286,157 286,157 286,157 287,157 287,157 287,157 287,157 287,157 288,157 289,156 289,156 289,156 289,157 288,157 288,157 286,160 286,160 286,160 286,161 286,161 286,163 286,163 286,164 286,164 286,167 286,168 286,168 286,168 287,169 287,169 287,172 287,172 297,173 297,174 300,174 305,174 308,175 308,175 309,175 310,175 311,175 311,175 313,176 313,176 314,176 314,176 314,176 314,176 315,176 315,176 315,176 316,176 316,177 316,177 317,177 317,177 317,177 318,177 318,177 318,177 318,177 319,177 320,178 321,178 321,178 321,178 321,178 321,178 322,179 322,179 322,179 323,179 323,179 323,180 323,180 324,180 324,180 323,180 323,181 322,181 322,181 322,182 321,182 321,183 320,183 320,183 320,183 320,184 320,184 320,185 319,185 319,185 319,185 319,185 319,185 319,185 322,185 324,185 325,185 326,185 327,185 328,185 331,185 335,185 336,185 335,185 335,185 334,186 333,186 333,187 332,187 332,188 331,189 330,190 330,190 330,191 330,191 329,192 329,193 328,195 328,195 327,196 327,196 326,196 325,197 324,197 324,197 323,197 322,197 322,197 320,197 320,197 320,197 319,197 319,197 319,197 319,197 319,198 319,198 319,198 319,198 319,199 319,199 320,200 321,201 321,201 321,201 322,201 322,201 323,201 324,201 325,201 326,201 327,202 327,202 327,203 329,204 330,205 331,206 331,206 332,207 332,207 332,207 331,208 331,208 330,209 329,210 328,211 328,211 328,212 328,212 329,212 330,213 330,213 331,214 331,215 332,216 332,217 333,217 333,218 333,219 333,219 332,219 332,220 332,220 331,220 331,221 330,223 330,223 330,224 329,224 329,224 329,224 330,225 330,226 331,226 332,228 333,228 335,229 335,229 335,229 335,229 335,230 335,231 335,231 335,231 337,234 338,235 338,235 338,235 338,236 337,236 337,237 336,237 336,238 337,239 337,239 337,239 338,239 340,239 339,240 338,242 338,242 338,242 338,242 338,242 338,242 338,242 337,242 337,243 336,243 336,243 336,242 336,242 335,242 335,242 335,242 335,242 334,242 334,242 334,242 333,242 333,242 333,242 333,242 333,242 332,241 332,241 332,240 332,240 332,240 331,240 331,240 331,240 330,239 330,239 330,239 330,239 329,239 329,239 329,238 329,238 329,238 329,238 328,238 327,238 326,238 326,238 326,238 325,237 325,237 324,237 324,237 324,237 323,236 323,236 322,236 322,236 322,236 321,236 321,236 321,236 321,235 321,235 321,235 321,234 320,234 320,234 320,234 320,234 320,234 319,234 319,234 319,234 319,234 318,234 318,234 318,234 318,234 317,233 317,233 316,233 316,232 315,232 315,231 315,231 315,231 314,231 314,231 314,231 314,231 314,231 313,231 313,231 313,231 312,230 312,230 312,230 311,230 311,230 311,229 311,229 311,229 310,229 310,229 310,229 310,229 310,229 310,229 304,231 298,234 292,240 294,241 296,242 295,244 293,246 295,249 294,252 293,252 293,253 292,255 291,259 292,263 294,268 292,269 292,270 290,274 289,275 288,276 288,276 287,277 287,277 287,277 287,277 286,277 286,277 286,277 286,278 286,278 286,278 285,278 285,278 285,278 284,279 284,279 284,279 284,279 284,279 279,281 279,283 281,285 286,284 286,284 286,284 287,283 288,283 288,283 288,285 287,287 287,287 287,288 287,288 287,289 287,289 287,289 287,289 287,289 287,289 287,290 287,290 287,290 288,290 288,290 289,290 289,290 289,290 289,290 290,290 290,290 290,290 290,291 303,293 303,293 302,292 302,292 302,292 302,292 302,291 303,291 303,291 303,291 303,291 304,291 305,290 305,290 306,289 306,289 306,289 307,289 308,289 309,289 310,287 310,287 310,287 310,287 310,287 309,286 309,286 309,286 309,286 309,286 309,286 309,286 309,286 309,286 308,286 309,286 308,285 308,285 309,285 309,285 310,285 311,285 311,285 312,285 313,284 313,284 314,284 315,284 316,284 316,283 316,283 316,283 317,282 317,282 317,282 317,282 317,281 317,281 317,281 317,281 317,281 317,281 317,280 317,280 317,280 317,279 317,279 317,278 320,277 320,277 320,276 320,276 320,275 320,275 320,275 321,275 321,275 321,275 321,274 321,274 321,274 321,274 322,274 322,274 322,274 322,274 322,274 322,274 323,273 323,273 324,273 325,273 326,273 326,273 326,273 327,273 327,273 328,273 328,272 329,272 329,272 330,272 331,271 331,271 331,271 332,270 333,270 333,269 334,269 334,269 334,269 335,268 335,268 335,267 336,266 336,266 337,265 338,265 338,265 338,265 338,265 338,264 338,264 339,264 339,264 339,264 342,264 342,264 342,264 343,264 344,264 344,264 344,263 345,263 345,263 345,264 345,264 346,264 346,264 346,263 347,263 347,263 347,263 347,263 348,263 348,263 348,263 349,263 349,263 349,263 349,263 349,263 349,263 349,263 349,263 350,262 350,262 350,262 350,262 350,262 350,262 350,262 350,262 351,262 351,262 352,262 352,262 352,263 353,263 353,263 353,263 354,264 354,264 354,264 355,264 355,264 355,265 355,265 356,265 356,265 357,265 358,265 358,265 358,266 359,266 359,266 359,266 360,266 360,267 360,267 360,267 361,266 362,266 362,266 364,266 366,266 367,265 366,264 366,263 366,263 366,263 366,262 366,262 367,262 367,261 367,261 367,260 367,260 367,260 367,260 367,260 369,260 370,260 370,260 371,261 372,261 372,261 373,261 374,261 375,261 376,262 376,260 376,260 377,259 377,259 377,259 377,258 377,257 377,257 377,257 377,257 377,256 377,256 377,256 377,256 377,256 376,255 376,255 376,255 376,255 376,254 376,254 376,254 376,254 376,254 376,254 376,254 376,253 377,253 377,253 378,252 378,252 379,252 379,251 380,251 380,251 380,251 380,251 380,251 381,251 381,251 381,251 381,250 381,250 381,250 381,249 380,249 380,249 380,247 380,247 380,247 379,246 379,246 379,246 379,246 379,245 379,245 379,245 378,244 378,244 378,244 378,243 378,243 378,243 378,243 378,243 378,243 378,242 379,242 380,243 381,243 381,243 382,244 382,244 383,244 383,243 385,243 385,243 386,243 386,243 387,243 388,244 389,244 390,244 391,245 392,244 393,244 395,244 397,244 398,244 400,244 400,245 400,245 400,246 400,248 400,250 401,251 402,252 404,253 404,255 404,256 406,258 408,259 410,261 411,262 411,263 411,263 412,264 412,264 411,269 409,274 410,275 410,276 410,276 411,277 410,279 411,280 412,279 412,278 413,279 414,279 415,279 415,280 415,280 415,280 416,280 416,282 416,283 416,284 416,284 416,285 416,285 416,286 416,286 417,287 418,287 418,287 421,288 423,289 423,289 424,291 425,292 426,292 427,293 428,294 428,294 428,294 428,296 429,296 429,297 429,298 429,298 428,299 428,299 428,302 427,302 425,303 425,304 424,304 424,304 423,305 424,306 423,306 424,308 424,308 423,309 422,308 421,308 418,307 415,308 414,308 414,308 414,308 414,308 413,308 413,309 413,309 413,309 413,309 413,309 412,309 412,310 411,310 411,310 410,311 409,311 408,311 407,311 406,311 405,311 404,312 405,312 409,313 411,317 411,320 409,321 408,321 413,330 413,330 414,332 416,335 416,335 416,335 416,335 416,335 417,335 416,335 416,335 417,335 418,335 418,335 418,335 418,335 418,335 418,335 418,335 419,335 419,335 420,335 420,335 420,335 421,336 422,336 423,336 423,336 423,336 424,337 426,338 426,338 427,338 429,338 433,339 440,340 440,340 442,342 443,342 443,342 445,344 445,345 446,345 449,346 451,348 453,349 454,350 455,351 455,351 456,352 456,353 456,353 456,354 455,354 455,355 454,356 453,357 452,359 451,361 450,363 450,364 450,364 446,363 443,364 441,365 437,371 431,376 427,381 418,382 416,382 416,382 414,383 413,384 412,385 413,386 412,387 410,388 405,390 402,390 397,391 397,391 395,392 395,394 394,395 394,396 394,397 390,399 388,400 388,400 386,406 383,410 383,411 384,413 384,414 384,422 383,422 383,425 379,426 377,427 376,428 376,429 376,430 374,430 372,433 370,435 370,436 368,438 367,440 367,444 365,449 364,452 364,456 362,457 361,458 360,460 359,461 357,463 356,464 356,464 355,465 355,466 352,469 352,470 351,471 351,472 352,473 352,475 352,476 352,476 351,477 352,478 351,478 350,478 349,481 350,483 352,484 350,486 349,486 346,489 345,489 344,489 344,489 344,490 344,491 343,491 342,491 342,492 341,492 341,493 341,493 340,493 339,493 339,494 339,494 338,495 337,495 336,495 335,495 334,496 330,498 320,500 318,498 316,496 315,495 315,494 313,493 297,494 296,497 292,498 290,495 286,494 285,494 283,493 279,489 271,488 264,487 260,487 255,485 253,485 251,487 247,488 246,487 244,480 243,480 242,480 239,479 237,478 236,477 235,477 232,479 231,479 231,479 227,477 226,476 226,475 220,473 218,474 216,474 213,474 211,474 210,474 209,474 207,473 208,473 208,472 209,469 207,465 206,461 204,455 202,453 193,452 191,452 190,451 188,449 187,448 186,446 186,444 186,444 187,443 181,439 181,438 180,436 179,435 180,433 181,432 181,432 179,430 179,429 179,427 179,426 180,426 183,420 182,420 180,419 179,418 179,417 178,416 176,415 172,413 168,413 165,411 165,411 165,410 165,409 164,408 163,405 161,404 159,403 157,402 155,401 151,399 154,396 162,390 163,390 163,390 164,390 166,390 166,390 169,390 169,390 172,389 174,389 174,388 174,388 179,387 181,387 182,387 183,387 183,386 185,386 187,385 188,384 191,383 189,382 189,381 190,380 190,379 192,378 193,378 194,378 198,377 201,376 205,376 206,374 207,373 208,373 209,371 209,369 209,366 209,365 209,365 204,366 204,366 204,366 202,365 188,358 182,355 178,353 178,353 177,352 177,352 164,345 162,345 147,337 140,334 138,333 138,333 135,323 133,319 133,319 128,315 128,314 128,312 128,312 129,308 130,308 133,303 133,303 131,302 125,301 125,301 125,300 121,296 121,296 121,296 122,296 122,296 122,295 122,295 127,292 129,292 137,288 137,288 137,288 137,288 144,289 144,289 146,288 146,288 149,288 149,288 149,288 151,288 151,288 151,288 151,288 153,286 153,285 153,285 154,285 154,285 154,285 154,283 154,281 154,280 154,279 153,278 153,278 153,277 153,277 154,273 154,273 154,271 154,270 154,270 154,270 154,270 154,270 153,268 153,268 151,267 149,267 149,267 146,265 148,263 146,253 146,252 145,248 145,248 145,248 146,247 149,244 150,243 150,243 151,243 155,242 156,242 156,242 155,240 154,238 155,237 156,235 156,234 156,231 153,232 152,232 152,232 147,232 146,232 145,231 145,231 145,231 144,231 144,231 144,231 143,231 143,231 142,231 141,231 141,230 140,231 140,231 140,231 140,231 139,231 139,231 139,230 138,230 138,231 138,231 138,231 138,231 138,231 137,231 137,231 137,231 137,231 137,231 137,231 137,231 136,231 136,232 136,232 136,232 136,232 136,232 136,231 136,231 135,231 135,231 135,231 135,231 135,231 135,231 135,231 135,231 135,232 135,232 135,232 134,232 134,232 134,232 134,232 133,232 133,232 133,232 133,232 132,233 132,233 131,233 131,233 131,233 131,233 131,233 131,233 130,234 130,234 130,234 130,234 130,234 130,233 129,232 128,230 129,229 129,229 130,229 131,229 132,228 132,228 133,228 133,228 134,227 135,227 135,227 135,227 135,227 135,227 135,226 136,226 136,226 137,226 137,226 137,226 137,226 137,226 138,226 138,226 139,226 139,226 139,225 140,225 140,225 140,225 141,225 141,224 141,224 141,224 141,224 140,224 140,224 140,224 140,224 140,224 140,224 140,224 140,224 140,224 139,224 139,224 139,223 139,223 139,223 139,223 139,223 139,222 139,222 139,222 138,222 138,222 138,222 138,222 138,221 137,221 138,221 138,221 138,221 138,221 138,221 138,221 138,220 138,220 139,220 139,220 138,220 138,220 138,220 138,219 138,219 138,219 137,219 137,219 137,219 137,218 137,218 137,218 137,218 136,218 136,218 136,217 136,217 136,217 136,217 136,217 135,217 135,217 135,217 135,217 135,217 135,217 135,216 135,216 135,216 135,216 135,216 135,216 135,216 135,216 135,215 135,215 135,215 135,215 135,215 135,215 135,215 135,215 135,215 136,215 136,215 136,214 136,214 136,214 136,214 137,214 137,214 137,215 137,215 137,214 138,214 138,214 138,214 138,214 138,214 138,214 138,214 138,214 138,214 137,214 137,214 137,214 137,213 138,213 138,213 138,213 138,213 138,213 139,213 139,213 139,213 139,213 139,213 140,213 140,213 140,213 140,213 139,213 139,213 139,213 139,213 140,213 140,212 140,212 141,212 141,212 141,212 141,212 141,212 141,212 141,212 141,212 141,212 141,212 141,211 142,211 142,211 142,211 142,211 142,211 142,211 142,211 142,211 142,210 142,210 142,210 142,210 142,210 142,210 142,210 142,210 142,210 142,210 142,210 142,209 142,209 142,209 143,209 143,209 143,209 141,208 141,208 140,208 139,207 137,206 137,206 137,206 136,206 135,206 134,205 134,205 133,205 132,205 131,205 130,204 129,204 129,203 129,203 129,203 130,202 130,202 131,202 132,202 132,202 132,202 132,201 132,200 132,200 133,198 133,198 133,198 134,197 135,197 136,196 136,196 136,196 138,195 138,195 139,195 140,194 140,194 140,194 141,193 141,193 139,193 139,193 139,193 138,192 138,192 138,192 138,190 138,190 138,190 138,190 138,190 138,190 138,190 137,188 137,187 137,187 137,187 137,187 137,187 137,187 137,187 136,186 136,186 136,186 136,186 136,186 134,182 133,182 133,182 131,181 128,180 128,180 128,180 128,180 127,180 127,180 126,178 126,176 126,176 126,174 125,174 125,173 124,166 124,166 124,164 124,164 124,164 123,162 123,161 123,160 123,160 122,158 122,153 122,152 121,152 121,152 121,152 121,152 121,152 121,152 121,151 121,151 122,149 123,145 122,145 122,145 120,145 120,145 116,146 115,147 115,147 114,147 112,148 111,148 110,149 108,149 108,149 105,150 102,151 101,151 100,152 99,152 98,152 96,153 95,153 94,154 94,154 93,154 93,155 92,155 91,155 91,155 85,158 83,158 82,159 81,159 80,159 80,159 80,159 79,159 79,159 78,159 78,160 72,161 69,162 65,163 62,163 61,164 60,164 58,165 57,165 57,165 57,165 56,165 56,164 56,164 54,163 53,162 48,160 46,159 44,158 43,158 43,158 43,158 43,157 43,157 43,157 43,157 43,156 43,156 43,156 43,156 43,156 43,155 43,155 43,155 42,155 42,155 42,155 42,155 42,155 42,155 42,155 42,154 43,154 43,154 43,154 43,154 43,154 43,154 43,154 43,153 43,153 43,153 43,153 43,153 43,153 43,153 43,153 43,153 43,153 43,153 43,153 43,153 44,152 44,152 43,152 43,152 43,152 44,152 44,152 44,151 44,151 44,151 44,151 44,151 44,151 44,151 44,151 44,150 44,150 44,150 44,150 44,150 45,150 45,150 45,150 45,149 45,149 45,149 45,149 45,149 45,149 46,149 46,149 46,148 46,148 46,148 46,148 46,147 47,147 47,147 47,147 47,147 47,147 47,146 47,146 47,146 47,146 47,146 47,146 47,146 48,146 48,146 48,146 48,146 48,146 48,146 48,146 48,146 49,146 49,146 49,146 49,146 49,146 50,146 50,145 50,145 50,145 50,145 50,145 50,145 50,145 51,144 51,144 51,144 51,144 51,144 51,144 51,144 51,144 51,143 51,143 51,143 50,143 50,143 50,142 51,142 51,142 51,142 51,142 51,141 51,141 51,141 51,141 51,141 51,140 51,140 51,140 51,140 51,140 51,140 51,140 51,140 51,140 51,140 51,140 51,140 51,140 51,140 51,139 51,139 51,139 51,139 51,139 51,139 51,139 51,139 51,138 51,138 51,138 51,138 51,138 51,138 51,138 51,138 51,137 51,137 51,137 51,137 51,137 51,137 51,137 51,137 51,137 52,136 52,136 52,136 52,136 52,136 52,136 52,136 52,136 52,136 52,135 53,135 53,135 53,135 53,135 53,135 53,135 53,135 53,134 53,134 53,134 53,134 53,134 53,133 53,133 53,133 53,133 53,133 53,132 53,132 53,132 53,132 53,132 53,131 53,131 52,131 52,131 52,131 52,131 52,131 52,131 52,131 52,130 52,130 52,130 52,130 52,130 52,130 52,130 52,130 52,130 52,130 52,130 52,129 52,129 52,129 52,129 52,129 52,129 52,129 52,129 53,129 53,129 53,129 53,129 53,128 52,128 53,128 52,128 52,128 53,127 53,127 53,127 53,126 53,126 53,126 53,126 53,126 53,126 54,126 54,126 54,126 54,126 54,126 54,125 54,125 54,125 54,125 54,125 54,125 54,125 54,125 54,124 54,124 54,124 54,124 54,123 54,123 54,123 55,123 55,123 55,123 55,123 55,123 55,123 55,123 55,123 55,122 55,122 55,122 55,122 55,122 55,122 55,122 55,122 55,122 56,122 56,122 56,121 56,121 56,121 56,121 55,121 55,120 55,120 55,120 53,121 48,123 34,128 34,128 34,128 34,128 31,126 31,126 30,125 30,124 26,123 26,122 23,122 18,120 18,120 17,118 17,118 17,116 17,116 17,116 17,116 17,116 17,116 17,116 16,116 16,116 16,116 16,116 16,116 15,116 15,116 15,116 15,116 15,116 15,116 15,116 14,116 14,116 14,116 14,116 14,116 14,116 14,116 13,116 13,116 13,115 13,115 12,115 12,115 12,115 12,115 11,115 11,115 11,115 11,115 11,115 11,115 10,115 10,115 10,115 10,115 10,115 10,115 10,115 9,115 9,115 9,115 9,115 9,115 9,115 9,115 8,115 8,115 8,115 8,115 8,115 8,115 8,115 7,115 7,115 7,115 7,115 7,115 7,115 6,115 6,115 6,115 6,115 6,115 6,115 6,115 6,115 5,115 5,115 5,115 5,115 5,115 5,115 4,115 4,115 4,115 4,115 4,115 4,115 4,115 4,114 3,113 3,113 3,113 2,112 2,112 2,112 2,111 2,111 3,111 3,111 3,111 2,111 2,111 1,111 1,110 1,110 1,109 2,108 2,108 2,108 3,108 3,108 3,108 3,107 3,107 3,107 3,107 2,106 2,106 2,106 2,106 2,106 3,106 3,106 2,105 1,105 1,105 1,105 1,105 1,104 1,104 1,103 1,103 1,103 0,103 0,102 0,102 0,102 1,102 1,102 1,102 1,102 1,101 1,101 1,101 1,101 1,100 1,100 0,100 0,100 0,100 1,100 1,100 1,100 1,99 1,99 1,99 1,98 1,98 1,98 1,98 2,98 2,98 1,98 1,97 1,97 1,97 1,97 1,96 1,96 2,96 2,96 2,95 2,95 2,95 2,95 2,95 2,94 2,94 2,94 2,94 2,94 2,94 2,94 2,94 2,93 2,93 3,93 3,93 3,93 3,93 3,93 3,93 3,93 3,92 3,92 3,92 3,92 3,92 3,92 3,92 4,92 4,92 3,92 3,92 3,92 3,91 3,91 3,91 3,91 3,91 3,91 3,91 3,91 3,90 3,90 3,90 3,90 3,90 3,90 3,89 4,89 4,89 4,89 4,89 4,89 4,89 4,89 4,89 4,88 4,88 4,87 4,87 4,87 4,87 5,87 6,87 7,87 7,86 8,86 8,86 8,87 9,87 11,87 16,88 20,88 27,90 35,92 35,92 35,92 35,92 35,91 35,91 35,91 35,91 35,91 35,91 35,91 35,91 36,91 36,91 36,91 36,91 37,91 37,91 36,90 36,90 36,90 37,90 37,90 37,90 37,89 37,89 37,89 37,89 37,88 38,88 38,88 38,88 38,88 38,88 38,88 39,87 39,87 39,87 39,87 39,87 40,87 40,87 40,86 40,86 40,86 40,86 40,85 40,85 40,85 40,84 40,84 40,84 40,84 40,84 41,84 40,83 40,83 41,83 41,83 41,83 41,83 40,83 40,82 40,82 40,82 41,82 41,82 41,81 41,81 41,81 41,80 41,79 42,79 42,78 41,78 41,78 41,78 41,78 41,78 41,78 41,78 42,77 42,77 42,77 42,77 42,77 43,77 43,77 43,77 43,76 43,75 43,75 43,74 43,73 43,73 43,73 43,73 43,73 43,73 43,73 43,72 43,72 43,71 43,71 43,71 43,71 43,71 43,70 43,70 43,70 43,70 44,70 44,70 44,69 44,69 44,69 45,69 45,69 44,68 45,68 45,68 45,68 46,68 46,68 47,68 47,67 47,67 47,67 47,67 47,66 47,66 47,66 47,66 47,66 47,66 47,66 47,65 47,65 47,65 47,65 47,65 47,65 48,64 48,64 49,64 49,64 49,63 49,63 49,63 49,63 49,62 49,62 49,61 49,61 49,61 49,60 49,60 48,60 48,60 48,60 48,60 49,60 49,60 49,60 49,60 49,59 49,59 54,60 54,54 54,53 54,53 56,51 56,50 57,49 58,46 60,46 61,45 61,45 61,45 61,44 62,43 62,42 62,42 63,42 64,42 64,41 65,42 65,42 65,42 67,42 69,42 73,42 73,41 75,38 78,38 81,39 83,44 83,44 83,46 83,47 83,48 84,48 83,49 82,51 83,51 83,52 83,52 83,52 83,52 84,53 84,53 84,53 85,53 85,54 85,54 88,52 89,51 89,50 89,50 90,50 91,50 92,50 92,50 92,50 92,49 92,49 93,49 94,49 94,49 94,49 95,50 95,49 95,49 95,49 95,49 95,49 95,49 95,48 95,48 96,48 96,48 96,48 96,47 96,47 96,47 96,47 96,47 96,46 96,46 96,46 97,45 96,45 96,45 96,45 96,45 96,45 96,45 95,45 95,45 95,45 95,45 95,45 95,45 95,45 95,44 95,44 95,44 95,44 95,44 96,43 96,43 96,43 96,43 96,43 96,42 97,42 97,42 97,42 97,42 97,41 97,41 97,41 98,41 98,41 99,41 99,41 99,40 99,40 98,40 98,40 97,39 97,39 97,39 97,38 97,38 96,38 96,38 97,38 97,37 98,37 98,37 98,37 98,37 97,37 97,37 97,36 97,36 97,36 97,36 98,36 99,36 99,36 99,36 100,36 100,35 100,35 99,35 99,35 99,35 99,35 99,35 99,35 98,35 98,35 98,34 99,34 99,34 99,34 99,34 99,34 99,34 99,34 100,34 100,34 101,34 101,34 101,33 101,33 101,33 101,33 101,33 101,33 101,32 101,31 102,31 103,32 103,32 104,32 104,32 105,32 105,32 105,32 109,33 110,33 110,33 114,31 121,29 125,28 130,28 130,28 130,29 130,29 130,30 129,30 129,30 129,30 129,30 129,30 129,31 129,31 129,31 129,31 129,31 129,31 130,31 130,32 130,32 130,32 130,32 130,32 130,33 130,33 130,33 129,33 129,33 129,33 129,33 129,33 128,34 128,34 128,34 128,34 128,34 128,34 128,34 128,34 128,35 128,35 128,36 128,36 129,36 129,36 129,37 129,37 129,37 129,37 129,37 129,38 129,38 129,38 129,38 128,38 128,38 128,38 128,38 128,38 128,38 128,38 128,39 128,39 128,39 128,40 128,40 128,40 129,41 129,41 129,41 129,41 128,41 128,41 129,42 129,42 129,42 129,42 129,43 128,43 128,44 128,44 128,44 128,44 128,44 128,45 128,45 128,45 127,45 127,45 127,45 127,46 127,46 127,46 127,47 128,48 128,48 128,48 128,49 128,49 127,49 127,49 127,49 127,49 127,49 127,50 127,51 127,51 127,51 127,52 127,52 127,53 127,53 127,54 127,55 127,55 127,55 128,56 128,56 128,56 129,56 129,56 129,56 129,57 129,57 129,57 130,57 130,57 133,56 140,55 141,52 142,52 143,50 143,50 145,48 145,47 146,47 146,46 147,46 149,45 149,45 149,43 149,43 149,41 150,40 150,39 150,37 150,37 151,35 151,34 151,34 152,33 151,33 152,32 152,32 152,32 152,30 153,30 154,30 154,29 155,29 155,28 156,27 157,27 157,26 157,26 157,26 157,26 157,25 157,25 157,25 157,25 157,25 157,25 157,25 157,25 157,25 157,24 157,24 157,23 157,23 157,23 157,23 157,23 157,23 158,23 158,23 159,23 159,23 159,22 159,22 159,22 160,22 160,22 160,21 160,21 160,21 160,21 160,21 161,20 161,20 161,20 162,20 162,19 162,19 162,19 162,18 162,18 162,18 162,18 162,18 162,17 162,17 162,17 163,17 163,17 163,17 163,16 163,16 163,16 162,16 163,16 163,15 163,15 163,15 163,14 163,14 163,14 163,13 163,13 162,11 163,11 163,11 163,11 163,11 162,11 163,10 163,10 163,10 163,10 163,10 163,9 163,9 163,8 162,8 162,8 162,8 163,8 163,8 163,7" id="6515" class="canton" fill="steelblue" stroke-width="1" stroke="white" geotype="canton" geoname="Vallée de la Barousse" code_insee="6515" code_departement="65" nom_departement="Hautes-Pyrénées" code_region="76" nom_region="Occitanie"/></svg>