<?xml version="1.0" encoding="utf-8"?>
<svg version="1.1" id="svgmap" xmlns="http://www.w3.org/2000/svg" xmlns:xlink="http://www.w3.org/1999/xlink" x="0px" y="0px" width="100%" height="100%" viewBox="0 0 499 500">
<polygon points="0,467 10,449 11,446 12,444 13,441 13,439 15,430 17,417 18,413 20,397 21,394 22,387 24,371 25,365 26,363 26,358 27,355 27,352 29,345 29,340 30,333 31,322 32,318 33,314 34,306 35,303 36,298 36,297 39,291 41,286 43,283 44,281 81,235 82,234 83,233 84,232 85,229 86,228 88,226 90,223 91,221 96,215 98,213 104,206 111,197 112,196 128,177 129,175 134,169 134,168 137,164 139,163 139,162 140,161 141,160 143,158 146,154 150,149 151,147 152,146 154,142 155,140 155,136 156,133 156,128 155,127 155,126 154,123 153,119 151,116 150,113 149,111 147,108 145,104 143,99 142,97 126,67 123,65 117,60 112,57 98,46 106,45 106,44 108,43 111,41 113,39 114,37 115,36 116,35 117,34 119,31 120,30 121,30 121,30 123,30 123,30 124,30 128,29 128,28 129,27 126,23 126,23 129,21 128,21 124,18 124,18 124,15 123,15 122,14 120,13 118,11 117,10 117,8 118,8 121,8 125,7 126,7 128,7 131,6 133,6 136,6 139,6 140,6 142,6 142,5 143,5 144,4 144,4 147,4 148,4 149,3 150,3 152,3 155,2 156,2 158,2 160,1 164,1 165,1 168,1 168,1 169,1 171,0 172,0 173,0 175,0 176,0 177,0 179,1 180,2 185,4 186,4 188,5 191,6 192,7 192,7 194,8 198,11 193,14 192,15 187,19 190,21 197,26 201,29 205,33 209,36 210,37 217,29 228,17 230,16 230,16 233,20 233,20 236,25 236,25 237,27 237,28 237,29 237,30 237,31 237,34 237,35 237,35 236,39 236,41 234,49 234,50 234,58 234,61 234,63 234,63 235,64 236,66 241,74 241,74 242,76 245,78 247,80 250,83 258,89 260,91 265,95 275,101 275,102 278,104 279,105 278,111 278,114 278,117 279,120 279,122 279,124 280,128 280,129 279,130 282,134 283,138 285,140 286,142 288,146 289,148 290,150 291,151 294,156 302,171 302,171 305,176 314,193 327,208 362,286 390,331 453,418 457,427 459,434 460,438 471,437 499,455 470,461 458,462 441,463 430,463 378,464 362,463 343,462 327,465 284,480 260,493 216,451 210,453 202,447 208,442 204,422 195,423 193,422 191,421 189,420 187,419 184,419 179,421 176,422 165,424 157,417 157,416 156,415 150,408 149,408 148,407 147,408 142,409 141,411 134,417 131,420 125,422 94,424 79,417 71,412 67,425 61,431 55,444 50,443 50,445 75,456 106,472 102,478 65,500 53,492 48,489 45,487 41,486 37,485 28,481 25,479 19,476 10,472 0,467" id="6609" class="canton" fill="steelblue" stroke-width="1" stroke="white" geotype="canton" geoname="Perpignan-4" code_insee="6609" code_departement="66" nom_departement="Pyrénées-Orientales" code_region="76" nom_region="Occitanie"/></svg>