<?xml version="1.0" encoding="utf-8"?>
<svg version="1.1" id="svgmap" xmlns="http://www.w3.org/2000/svg" xmlns:xlink="http://www.w3.org/1999/xlink" x="0px" y="0px" width="100%" height="100%" viewBox="0 0 500 229">
<polygon points="36,101 36,101 36,101 37,100 37,100 37,100 37,100 36,100 36,100 37,100 37,100 37,100 37,100 37,100 37,100 37,100 37,99 37,99 37,99 37,99 38,99 38,99 38,99 38,99 38,99 38,98 37,98 37,98 37,98 37,98 37,98 37,98 37,98 38,98 38,98 38,98 37,98 37,98 37,97 37,97 37,97 37,97 37,97 36,97 36,97 36,97 36,97 36,97 36,97 36,96 37,96 37,96 37,96 37,96 37,96 37,96 37,96 37,96 37,96 37,96 38,96 38,96 38,96 38,96 38,96 38,95 38,95 38,95 38,95 38,95 38,95 38,95 38,95 38,95 37,95 37,95 37,95 37,95 37,95 37,95 37,95 37,95 37,95 38,95 38,95 38,95 38,94 38,94 38,94 38,94 38,94 37,94 37,94 37,94 37,94 37,94 37,94 37,94 37,94 37,94 37,94 37,94 38,94 38,94 38,94 38,94 38,94 38,94 38,93 38,93 38,93 38,93 38,93 38,93 38,93 38,93 38,93 38,93 38,93 38,93 38,92 38,92 38,92 39,92 39,92 39,92 39,92 39,92 39,92 39,92 39,92 39,92 39,92 39,92 39,92 40,92 40,92 40,92 40,92 40,92 40,92 40,92 40,92 40,92 41,92 41,92 41,92 41,92 41,93 41,93 43,94 43,94 45,94 46,94 48,94 48,94 49,94 51,94 52,95 52,95 54,94 54,95 55,95 56,94 58,94 59,94 59,94 61,94 61,94 62,94 62,94 67,96 72,96 72,94 70,91 70,89 69,89 69,88 68,87 68,87 68,85 68,85 68,85 68,85 68,85 68,85 68,85 68,85 69,84 69,84 69,84 69,84 70,84 70,84 69,84 69,84 70,84 70,84 70,84 70,84 70,83 70,83 70,83 70,83 71,83 71,83 71,83 71,82 71,82 71,82 71,82 71,82 71,82 71,82 71,82 71,82 76,83 76,83 77,83 77,83 78,82 78,82 78,82 78,82 77,82 77,82 77,82 77,82 77,82 77,82 77,82 76,82 76,82 76,82 75,82 75,82 75,82 75,82 74,82 74,82 74,82 74,82 74,82 75,81 75,81 75,81 75,81 75,81 75,81 75,81 75,80 75,80 75,80 75,80 75,80 76,80 76,80 77,80 77,80 77,80 77,81 77,81 77,81 77,81 77,81 77,81 77,80 77,80 77,80 77,80 76,80 76,80 76,80 76,80 76,80 75,80 75,80 75,80 75,80 75,80 75,80 75,80 75,79 75,79 75,79 75,79 75,79 75,79 75,79 75,79 76,79 76,79 76,79 76,79 76,79 76,79 76,79 76,79 76,79 76,79 76,79 77,79 77,80 77,80 77,80 77,80 77,80 77,80 77,80 77,80 77,80 78,80 78,80 78,80 78,80 79,79 79,79 79,79 79,79 79,79 79,79 79,79 78,79 78,79 77,78 77,78 77,78 76,78 76,78 76,78 76,77 76,77 76,77 76,77 76,77 75,77 75,78 75,78 75,78 75,78 75,78 74,78 74,78 74,78 74,78 74,77 74,77 74,77 74,77 75,77 75,77 75,77 75,77 75,77 75,77 75,77 75,77 76,77 76,77 76,77 76,77 76,77 76,77 77,76 77,76 77,76 77,76 77,76 76,76 76,76 76,76 76,76 75,76 75,76 75,76 75,76 75,76 75,75 74,75 74,74 74,74 74,74 73,74 73,75 72,75 72,75 72,74 72,74 72,74 72,74 72,74 72,74 72,73 72,73 72,73 71,72 71,72 71,72 71,71 71,71 71,71 71,70 71,69 72,69 72,69 72,69 72,69 72,69 72,69 72,69 72,69 72,69 72,69 73,69 73,69 73,69 73,69 73,69 73,69 74,69 74,69 74,69 75,69 75,69 75,69 75,69 75,69 75,69 74,68 74,68 73,68 73,68 74,67 74,67 74,67 74,67 74,67 75,67 75,67 74,66 74,66 73,66 73,66 73,66 73,66 73,66 73,65 73,65 73,65 74,65 74,65 74,65 74,66 74,66 75,66 75,66 75,66 75,66 75,66 75,66 76,66 76,66 76,67 76,67 76,67 76,67 76,67 76,67 76,67 76,67 76,66 76,66 76,66 76,66 76,66 76,65 76,65 76,65 76,65 75,64 76,64 76,64 76,64 77,63 77,63 78,63 78,63 78,63 78,63 78,62 78,62 79,62 79,62 80,63 80,62 80,63 80,63 80,63 80,63 80,63 81,63 81,63 81,63 82,62 82,62 82,62 82,62 83,62 83,62 83,61 83,61 83,61 83,61 83,61 84,61 83,60 82,60 82,60 82,60 82,60 83,60 83,60 83,60 83,60 83,60 84,59 84,59 84,59 84,58 83,58 83,57 83,57 84,57 84,57 85,57 85,56 85,56 86,56 86,56 86,56 86,56 86,56 87,56 87,56 87,56 88,55 88,55 88,55 88,55 88,55 88,55 88,54 88,54 88,54 88,54 89,54 89,54 89,53 89,53 89,53 89,53 89,53 89,53 90,52 90,52 89,52 89,52 89,52 89,52 89,52 89,51 89,51 89,51 89,51 89,51 88,51 88,51 88,51 88,51 88,51 87,51 87,51 86,51 86,51 86,51 86,50 85,51 85,50 85,50 84,51 84,51 84,51 84,50 84,49 84,49 84,49 84,49 84,49 84,49 84,49 85,49 85,49 85,49 85,49 85,49 84,47 85,47 85,47 85,46 87,46 87,46 87,45 87,44 87,44 88,43 89,42 89,42 89,41 89,40 89,40 88,40 88,39 88,39 90,37 94,34 96,32 97,32 97,32 97,32 97,31 99,31 99,30 100,29 103,28 104,27 104,27 104,26 104,25 104,25 107,22 108,22 108,22 107,21 106,19 106,19 105,19 105,19 105,18 104,17 104,17 104,17 103,16 103,16 101,15 101,14 101,12 100,11 100,10 100,9 101,9 101,8 102,7 103,6 103,6 105,4 106,3 108,4 109,5 110,5 112,7 113,7 115,6 116,6 116,6 117,6 117,6 118,5 119,5 120,4 121,4 122,2 123,2 124,1 125,0 124,0 125,0 127,1 127,1 127,1 128,2 128,2 128,2 128,2 128,3 128,3 128,3 128,4 129,4 129,5 130,5 132,5 133,5 134,4 135,4 136,4 136,5 137,5 137,6 138,6 140,7 140,7 140,8 140,8 140,8 139,8 139,8 137,9 136,9 136,10 136,10 136,10 136,10 135,10 134,10 134,10 133,10 133,10 133,10 132,10 132,10 132,10 132,10 131,10 131,10 130,10 130,10 130,10 130,10 129,10 129,10 129,10 129,10 129,10 127,10 127,10 127,11 127,11 127,11 127,11 127,11 126,11 126,11 126,11 126,11 126,11 126,11 126,12 126,12 126,12 126,12 126,13 126,13 126,13 127,13 127,14 127,14 127,14 127,14 126,14 126,14 127,15 127,16 127,16 128,16 128,16 128,16 128,16 128,16 129,16 129,16 129,17 129,17 129,17 129,17 129,17 129,17 129,17 130,17 129,17 130,17 130,17 130,17 130,17 130,17 130,17 130,17 130,17 130,18 130,18 130,18 130,18 130,18 130,18 130,18 130,18 130,18 129,18 129,18 129,18 129,18 129,18 129,18 129,18 129,19 129,19 129,19 129,19 129,19 129,19 129,19 129,19 129,19 129,19 129,19 129,19 129,20 129,20 129,20 129,20 129,20 129,20 129,20 129,21 129,21 129,21 129,21 129,21 129,21 129,21 129,21 129,21 129,21 129,21 129,21 130,21 130,21 130,22 130,22 130,22 130,22 130,22 130,22 130,22 130,22 130,22 130,22 130,22 130,22 130,22 130,22 130,22 130,22 130,23 130,23 130,23 130,23 130,23 130,23 131,23 131,23 131,23 131,23 131,23 131,23 131,23 131,24 131,24 131,24 131,24 131,24 131,24 131,24 131,24 131,24 131,24 131,25 131,25 130,25 130,25 131,25 130,25 130,25 130,25 130,25 130,25 130,25 130,25 130,25 130,25 130,26 130,26 130,26 130,26 132,27 132,28 133,28 135,29 135,30 137,30 138,29 138,31 139,31 139,31 139,31 140,32 140,32 140,32 139,33 139,33 139,33 138,33 138,34 138,34 138,34 138,34 137,35 137,35 137,35 136,35 136,36 136,36 136,36 136,36 136,36 136,36 136,37 136,37 136,37 137,37 137,37 137,37 137,37 138,37 138,37 139,37 139,37 139,37 139,37 140,37 140,37 140,37 141,37 141,37 141,37 142,37 142,37 142,37 142,37 142,38 142,38 142,38 141,38 141,38 141,38 141,38 142,39 142,39 142,40 142,40 143,40 143,40 143,40 143,41 144,41 144,41 143,41 143,42 143,42 144,42 144,42 143,42 143,42 142,42 142,42 142,43 142,43 142,43 142,43 142,43 142,43 143,44 143,44 143,44 143,44 143,44 143,44 143,44 143,44 143,44 143,44 143,44 143,45 143,45 142,45 142,45 142,45 142,45 142,45 142,45 142,46 142,46 142,46 142,46 142,46 142,46 142,46 142,47 142,47 142,47 142,47 142,47 143,47 143,47 143,46 143,46 143,46 144,47 144,47 144,47 144,47 144,47 143,47 144,47 144,47 145,48 145,48 145,48 145,48 145,48 145,48 145,48 145,48 146,49 146,49 146,49 146,49 146,49 147,49 147,50 147,50 147,50 147,50 147,50 147,50 147,51 147,51 147,51 147,51 147,52 147,52 147,52 147,52 147,52 147,53 147,53 146,53 146,54 146,54 146,54 146,54 145,54 145,54 145,54 145,54 145,54 145,55 145,55 145,56 145,56 145,56 145,56 146,56 146,57 146,57 146,56 146,56 147,56 147,56 147,56 147,56 147,57 148,57 148,57 149,57 149,57 173,56 174,57 173,57 173,58 173,59 174,59 174,58 174,58 175,58 177,58 177,58 179,57 181,56 182,56 183,56 184,56 184,56 185,57 185,57 185,57 186,57 186,57 185,57 186,57 186,57 186,57 186,58 186,58 186,58 186,58 186,58 186,58 186,58 186,58 186,58 186,58 186,58 186,58 186,58 187,58 187,58 187,59 187,59 191,60 191,65 193,66 193,66 199,65 201,66 203,69 205,70 207,72 208,74 210,75 211,77 213,76 218,75 220,74 224,73 232,71 234,71 238,72 240,72 241,72 243,73 244,73 246,75 248,76 252,75 254,76 258,77 260,79 263,80 264,80 266,80 268,81 270,81 272,81 273,81 273,81 274,81 274,81 274,81 274,81 274,82 275,82 275,82 275,82 276,82 276,82 277,82 277,82 277,82 277,82 277,82 277,83 278,83 278,83 278,83 276,85 276,85 276,85 276,86 275,86 275,86 275,87 275,87 274,87 276,88 277,88 277,89 276,89 276,90 274,93 274,94 274,95 280,95 287,95 287,97 289,99 291,100 291,100 292,100 296,102 301,105 302,105 303,105 304,105 305,105 306,104 307,103 307,102 308,102 309,102 310,101 311,101 312,101 314,101 315,102 316,102 316,102 317,102 317,102 317,102 317,101 319,100 320,100 320,100 320,99 321,99 322,98 322,98 324,98 325,98 325,97 326,97 326,96 326,96 326,96 327,96 327,95 328,95 331,96 334,97 335,97 336,97 336,98 336,98 336,98 336,98 337,99 337,99 338,99 342,99 343,99 345,99 346,99 347,99 349,99 352,99 355,98 356,98 356,98 358,96 360,95 361,95 363,94 366,93 368,93 369,93 372,93 372,93 374,93 375,93 376,93 376,93 378,92 381,92 385,92 386,91 390,89 393,89 395,89 395,89 396,89 398,88 399,87 400,87 400,86 401,86 402,87 403,87 403,87 403,87 403,87 403,87 403,88 403,89 403,89 404,89 404,90 405,90 405,90 406,90 407,90 408,90 408,90 409,90 410,91 411,91 411,91 412,91 412,91 412,91 413,91 413,91 414,91 415,91 415,91 416,91 417,91 418,91 420,91 420,91 421,91 422,91 423,91 423,92 424,92 424,93 424,93 424,93 424,94 425,94 425,94 425,94 426,95 427,95 427,95 427,95 427,96 426,96 426,96 426,97 426,97 426,97 426,98 426,98 426,99 427,99 428,100 429,100 431,101 432,101 432,101 433,102 434,102 434,102 435,102 436,102 437,103 437,104 438,104 439,105 440,105 441,105 442,105 443,105 443,105 444,105 445,105 446,105 448,105 449,105 450,106 449,106 449,107 449,107 449,108 448,109 447,109 446,110 446,111 445,112 444,112 443,113 443,114 443,114 442,114 442,115 441,115 441,115 440,115 440,115 440,115 440,115 440,115 441,115 441,115 441,116 441,116 442,116 442,116 442,116 442,117 442,117 442,117 443,118 443,118 443,118 443,118 443,118 443,118 443,118 443,118 444,118 444,118 444,118 444,118 444,118 444,118 445,119 445,119 445,119 445,119 445,119 445,119 445,119 445,119 446,119 446,119 446,119 446,119 446,119 446,119 446,120 446,120 446,120 447,120 447,120 447,120 447,120 447,120 447,120 447,120 447,120 448,120 448,120 448,120 448,120 448,121 448,121 449,121 448,121 447,122 445,122 445,122 445,122 445,122 445,122 445,122 445,122 445,122 445,122 445,122 445,122 445,122 445,123 445,123 444,123 444,123 444,123 444,123 444,123 444,123 444,123 444,123 444,123 444,123 443,123 443,123 443,123 443,123 443,123 443,123 443,123 443,123 443,123 443,123 443,123 443,123 442,124 442,124 442,124 442,124 442,124 442,124 442,124 442,124 441,124 441,124 441,124 440,124 439,125 438,125 437,125 436,126 436,126 436,126 435,126 435,126 435,126 434,127 433,129 431,130 431,130 431,130 431,130 431,130 431,130 432,130 432,130 432,130 432,130 432,130 432,130 432,130 432,130 432,130 432,130 433,131 433,131 433,131 433,131 433,131 433,131 433,131 433,131 433,131 434,131 434,131 434,131 434,131 434,131 434,131 434,131 434,131 434,131 435,131 435,131 435,131 435,131 435,131 435,131 435,131 435,131 435,131 435,131 435,131 435,131 436,132 436,132 436,132 437,132 437,132 437,132 437,132 438,132 438,132 438,132 439,132 439,132 439,132 439,132 439,132 439,132 439,132 439,132 440,132 440,132 440,132 440,132 440,132 440,132 440,132 440,132 440,132 440,132 440,132 440,132 441,132 441,132 441,133 441,133 441,133 441,133 441,133 441,133 442,133 442,133 441,133 440,133 439,134 438,134 437,135 437,135 436,136 433,137 431,135 429,136 429,137 428,137 427,138 427,139 427,140 426,140 426,141 426,141 426,141 427,142 428,142 428,143 429,143 430,143 431,143 430,144 430,144 430,144 431,144 431,144 432,144 433,144 433,145 433,145 433,145 433,145 433,145 433,145 433,145 434,145 434,145 434,145 434,145 434,145 434,145 434,145 434,145 434,145 435,145 435,145 435,145 435,145 435,145 435,145 435,145 435,145 435,145 435,145 435,145 435,145 436,145 436,145 436,145 436,145 436,145 436,145 436,145 436,145 436,145 436,145 436,145 436,145 436,145 436,145 436,145 436,145 436,145 436,145 436,145 436,145 436,145 436,145 436,145 436,145 437,145 437,145 437,145 438,145 438,144 439,144 439,144 439,144 440,144 440,144 441,144 441,144 442,143 442,143 442,143 442,143 443,143 443,143 443,144 443,143 444,143 444,143 444,143 444,143 444,143 447,144 448,145 448,146 453,144 454,144 456,144 457,143 459,143 459,143 460,143 460,144 461,143 461,143 462,143 462,142 463,142 465,142 465,142 465,142 465,142 465,142 465,142 465,142 465,142 465,141 465,141 466,141 466,141 466,141 466,141 466,141 466,141 466,141 466,141 466,141 466,141 466,141 467,141 467,141 467,141 467,141 467,141 467,141 467,141 467,141 467,141 468,141 468,141 468,141 468,141 469,141 469,141 469,141 469,141 469,141 469,141 469,141 469,141 469,141 469,142 469,142 469,142 469,142 469,142 469,142 469,142 469,142 469,142 469,143 469,143 469,143 469,143 470,143 470,143 470,143 470,143 470,143 470,143 470,143 470,143 470,143 470,143 470,144 471,144 471,144 471,144 471,144 471,144 471,144 471,144 472,145 472,145 472,145 473,145 473,145 473,146 475,145 475,145 475,145 476,145 476,145 476,145 477,144 477,144 478,144 479,143 481,142 481,142 481,142 481,142 481,142 481,142 482,142 482,142 482,141 482,141 482,141 483,141 484,141 484,141 484,142 484,142 484,143 485,143 485,143 487,145 489,145 490,145 491,145 491,145 491,145 492,146 492,146 492,147 495,145 497,144 497,144 499,144 500,144 500,144 500,144 500,145 500,145 500,145 499,146 499,146 499,146 500,147 500,148 499,148 499,148 496,149 494,151 494,152 495,153 495,153 494,153 494,153 494,153 494,153 494,153 494,153 494,153 494,153 494,153 491,154 492,154 492,155 492,155 490,156 490,156 489,156 487,156 485,156 483,157 481,157 481,157 480,157 480,157 481,157 481,157 481,157 481,157 481,158 481,158 481,158 476,158 475,158 475,158 474,158 474,159 474,159 474,159 475,160 475,160 475,161 475,161 474,162 474,162 473,162 473,163 473,163 472,163 472,163 473,165 470,166 469,166 469,167 468,168 467,167 466,168 466,168 466,168 465,169 465,169 465,169 464,169 464,169 464,169 464,170 464,170 462,170 462,170 463,171 463,171 463,171 463,171 463,171 463,171 463,172 463,172 463,172 463,172 463,172 463,172 463,172 463,172 463,172 463,172 463,172 463,172 463,172 463,173 463,173 463,173 463,173 463,173 463,173 463,173 463,173 463,173 463,173 463,173 463,173 463,174 463,174 463,174 463,174 463,174 463,174 463,174 463,174 463,174 463,174 463,175 464,175 463,175 464,175 464,175 464,175 464,175 464,175 464,175 464,176 464,176 464,176 464,176 464,176 464,176 464,176 464,176 464,176 464,176 464,176 464,176 464,177 464,177 464,177 464,177 464,177 464,177 463,177 463,177 463,177 463,177 463,177 463,177 463,177 463,177 462,177 462,178 462,177 462,177 461,177 461,177 461,177 461,177 461,177 461,177 461,177 460,177 460,177 460,177 460,177 459,177 459,177 459,177 459,177 459,177 459,177 458,177 458,177 457,177 457,177 456,177 456,177 456,177 456,177 456,177 456,177 456,177 455,177 455,177 456,176 456,176 455,176 455,176 455,176 455,176 455,176 454,176 454,176 454,176 454,176 454,175 454,175 454,175 453,175 453,175 453,175 453,175 453,175 452,175 452,175 452,175 452,175 452,175 451,175 447,175 447,174 448,174 448,174 448,174 448,174 448,174 448,174 448,173 448,173 448,173 448,173 447,174 447,174 447,174 447,174 447,174 447,174 447,174 447,174 447,174 447,174 447,174 447,174 447,174 447,174 447,174 447,174 447,175 446,175 446,175 446,175 446,175 446,175 446,175 446,175 446,175 446,175 446,175 446,175 446,175 446,175 446,175 446,175 446,175 446,176 446,176 446,176 446,176 445,176 445,176 445,176 445,176 445,176 445,176 445,176 445,176 445,176 445,176 445,176 444,176 444,176 444,176 444,176 444,176 444,176 444,176 444,176 444,176 444,176 444,176 444,176 443,176 443,176 443,176 443,176 443,176 443,177 443,177 443,177 443,177 443,177 443,177 443,177 442,177 442,177 442,177 442,177 442,177 442,177 442,177 442,177 442,177 441,177 441,177 441,177 441,177 441,177 440,176 440,176 439,176 439,176 439,176 439,176 439,177 438,177 438,177 438,177 438,177 438,177 438,177 438,177 438,177 438,177 437,177 436,175 436,175 436,175 435,175 435,176 435,176 434,174 434,174 432,175 430,175 429,175 428,175 428,176 428,176 428,176 427,174 427,174 427,174 425,175 424,175 425,176 425,177 426,179 426,179 427,180 427,181 427,181 427,181 427,181 426,181 426,181 426,181 426,181 426,181 426,182 427,182 426,182 426,182 425,182 425,182 425,182 428,185 427,185 427,185 426,185 425,186 424,186 421,187 419,187 417,187 416,188 415,188 414,187 413,187 412,187 412,188 410,188 409,187 409,187 408,187 407,186 406,185 407,184 407,184 407,184 407,184 406,182 406,182 407,181 406,181 407,181 407,180 407,180 407,179 407,179 407,179 407,178 407,177 407,177 408,176 408,176 408,176 408,176 407,174 407,174 407,174 407,173 408,172 409,172 411,171 410,170 409,170 409,170 408,169 408,169 408,168 407,166 404,167 403,167 402,167 401,168 400,168 399,169 398,169 397,169 396,169 395,170 394,170 393,170 392,170 391,170 390,170 390,170 389,170 389,170 389,169 388,169 388,169 387,169 387,169 387,170 386,170 386,170 386,170 386,171 385,171 385,171 385,171 384,171 384,171 384,172 384,172 384,172 384,172 384,173 384,173 384,173 384,173 386,173 386,174 387,174 388,174 389,174 389,174 390,175 389,177 388,178 388,178 388,178 388,178 388,179 387,179 387,179 387,180 386,182 386,183 386,184 386,184 385,184 385,184 385,184 385,184 385,184 384,184 384,184 384,184 384,184 384,184 384,184 384,183 383,183 383,183 383,183 383,183 383,184 384,185 385,185 385,186 385,186 386,186 385,186 385,186 384,186 384,187 383,187 383,187 383,187 382,188 383,189 385,189 386,189 387,189 387,188 388,190 388,191 389,193 390,193 391,194 391,196 391,196 391,196 391,196 391,196 391,196 391,196 391,196 391,196 391,196 391,196 392,196 392,196 392,196 392,196 392,196 392,196 392,196 392,196 392,196 392,196 393,196 393,196 393,196 393,196 393,196 393,196 393,196 393,196 393,196 393,196 393,196 393,196 393,196 393,196 393,196 393,196 393,196 393,196 393,196 393,196 393,196 394,196 394,196 394,196 394,196 394,197 394,197 394,197 394,197 394,197 394,197 394,197 394,197 394,197 394,197 394,197 394,197 394,197 394,197 394,197 394,197 394,197 394,197 394,197 394,197 394,197 394,197 394,197 394,197 394,197 394,197 394,197 394,197 394,197 394,197 394,197 394,198 394,198 394,198 392,198 393,198 392,200 392,200 392,200 392,200 393,200 393,201 393,201 393,201 393,201 393,202 393,202 393,202 394,202 394,202 392,203 391,203 390,203 389,204 387,204 386,204 386,204 384,204 384,204 384,205 384,205 383,205 383,205 383,205 382,205 381,205 381,205 382,206 380,206 379,207 377,207 378,208 379,210 381,211 382,211 384,212 385,212 385,212 386,212 387,212 386,212 385,212 384,214 383,214 382,215 382,216 381,217 380,217 379,216 379,217 379,218 376,218 375,218 375,218 374,218 374,218 374,218 374,219 374,219 374,219 374,219 374,219 374,219 374,219 374,219 374,219 374,219 374,219 374,220 375,220 375,220 375,220 375,220 375,220 375,220 375,220 376,220 376,220 376,220 376,220 376,220 377,220 377,220 377,221 377,221 376,221 376,221 376,221 377,221 377,221 377,221 377,221 377,221 377,221 377,221 377,221 378,221 378,221 378,221 378,222 378,222 378,222 378,222 378,222 378,222 378,222 378,222 378,222 378,222 378,222 378,222 378,222 378,222 378,222 378,222 378,222 378,222 378,222 379,222 379,222 379,223 378,223 378,223 378,223 378,223 378,223 379,223 379,223 378,223 377,223 377,223 376,223 376,222 375,221 375,221 374,221 374,222 374,222 374,223 374,222 375,223 374,223 374,224 373,224 373,224 372,224 373,224 372,225 373,225 371,226 372,227 364,227 363,227 363,227 362,226 361,226 363,225 362,225 360,224 361,223 361,223 360,223 361,222 360,222 360,221 361,221 361,221 360,220 360,221 360,220 361,219 360,219 360,219 359,219 359,219 359,218 357,218 358,218 357,217 357,217 357,217 356,217 356,216 355,216 355,216 354,216 354,215 354,214 354,214 354,214 353,214 353,214 353,214 353,214 352,214 352,214 352,214 352,215 351,215 351,215 351,215 351,215 350,215 350,215 350,215 350,215 350,215 349,215 349,215 349,215 349,215 349,215 348,215 348,216 348,216 348,216 348,216 348,216 348,216 348,216 348,216 348,216 348,216 348,216 348,216 348,216 348,216 348,216 347,216 347,216 347,216 347,216 347,216 347,216 347,216 346,216 346,216 346,216 346,216 346,216 346,216 346,216 346,216 346,216 345,216 345,216 345,216 345,216 345,216 345,216 345,216 345,216 345,216 345,216 344,216 344,216 344,216 344,216 343,216 343,216 343,216 343,216 343,216 343,216 343,216 343,216 343,216 343,216 343,216 342,216 342,216 342,217 342,217 342,217 341,217 341,217 341,217 341,217 341,217 340,217 340,217 339,217 339,217 339,217 338,217 338,217 338,217 338,217 337,217 337,217 337,218 337,218 336,218 336,218 336,218 335,218 335,218 335,218 335,218 335,218 335,217 335,217 335,217 335,217 335,217 335,217 334,217 334,217 334,217 334,217 333,217 333,217 333,217 332,217 332,217 332,217 332,217 332,217 332,217 331,218 331,218 331,218 331,218 331,218 331,218 331,218 331,218 331,218 330,218 330,218 330,218 329,218 329,218 329,218 329,218 329,218 329,218 329,218 328,218 328,218 328,218 328,218 328,218 328,218 327,218 327,218 327,218 327,218 327,218 327,218 326,218 326,218 326,218 326,218 326,218 325,218 325,219 325,219 325,218 325,218 325,218 324,218 324,218 324,219 324,219 324,219 324,219 325,219 324,219 324,219 324,219 324,219 324,219 324,219 324,219 324,219 324,219 324,219 324,219 324,219 324,219 324,219 324,219 323,219 323,219 323,219 323,219 323,219 323,219 323,219 323,219 323,219 322,219 322,219 322,219 322,219 322,219 322,219 322,219 322,219 322,219 322,219 322,219 322,219 322,219 322,219 322,219 321,219 321,219 321,219 321,219 321,219 321,219 321,219 321,219 321,219 321,219 321,219 321,219 321,219 321,219 321,219 321,219 321,219 320,219 320,219 320,219 320,219 320,220 320,220 320,219 320,219 320,219 319,219 319,219 318,220 318,219 318,220 318,219 318,219 318,219 317,220 317,220 317,220 317,219 317,219 316,220 316,220 316,219 316,219 316,219 315,219 315,219 315,219 315,220 316,220 316,220 316,220 315,220 315,220 315,220 315,220 315,221 315,221 315,221 315,221 315,221 315,220 315,220 314,220 314,220 314,220 314,220 314,220 314,220 314,220 314,220 313,220 313,220 313,220 313,220 314,220 314,220 314,220 313,220 313,220 313,220 313,220 313,220 313,220 312,220 312,220 312,220 312,220 312,220 312,220 312,220 311,220 311,220 311,220 311,220 311,220 311,220 311,220 310,220 310,220 310,220 310,220 310,220 310,220 310,220 310,220 310,220 310,220 309,220 309,220 309,220 308,220 308,220 308,220 308,220 308,220 308,219 308,219 308,219 308,219 308,219 308,219 307,219 307,219 307,219 307,219 306,219 306,219 306,219 306,219 305,218 305,218 305,219 305,219 305,219 305,219 305,219 305,219 305,219 304,219 304,219 304,219 304,219 303,219 303,219 303,219 303,219 303,219 303,219 302,219 302,219 302,219 302,219 302,219 302,219 302,218 302,218 302,218 301,218 301,218 301,218 301,218 301,218 301,218 301,218 301,218 301,218 301,218 301,218 301,218 300,218 300,218 300,218 300,218 300,218 300,219 300,219 300,219 300,219 299,218 300,218 300,218 299,218 299,218 299,218 299,219 299,219 299,218 299,218 298,218 298,218 298,218 298,218 298,218 298,218 298,218 298,218 298,218 297,218 297,218 297,218 297,218 297,218 297,218 296,219 296,219 296,219 296,218 296,218 296,218 295,219 295,219 295,219 295,219 294,219 294,219 294,219 294,219 294,219 294,219 294,218 294,218 294,218 294,218 293,218 293,218 293,218 293,218 293,218 293,218 293,218 293,218 293,218 293,218 293,218 293,218 293,219 292,219 292,219 292,218 292,218 291,218 291,218 291,218 291,218 290,218 290,218 290,218 290,218 290,219 290,219 290,219 290,219 290,219 290,219 290,219 290,219 290,219 290,219 290,219 290,219 290,219 290,219 290,219 289,219 289,219 289,219 289,219 289,219 289,219 289,219 289,219 289,219 288,219 288,219 288,219 288,219 288,219 287,219 287,219 287,219 287,220 287,220 287,220 287,219 287,219 286,219 286,219 286,219 285,219 285,219 285,219 285,219 285,219 284,219 284,219 284,219 284,219 284,219 284,219 284,219 284,219 284,219 283,220 283,220 283,219 283,220 282,220 282,220 282,220 282,220 282,220 282,220 282,220 282,220 282,220 282,220 282,220 281,220 281,220 281,220 281,220 281,220 281,220 281,220 281,220 281,220 281,220 281,221 281,221 281,221 281,221 280,221 280,221 280,221 280,221 280,221 280,221 279,221 279,221 279,221 279,221 279,221 279,222 279,222 279,222 278,222 278,222 278,222 278,222 277,222 277,222 277,223 276,223 276,223 276,222 276,222 276,222 276,222 276,222 275,223 274,222 273,221 272,220 269,220 267,220 266,220 265,220 264,219 259,216 259,216 258,217 258,217 257,217 257,217 257,218 255,218 255,218 255,218 254,219 254,219 253,219 253,219 252,220 252,220 252,220 251,220 251,220 251,219 251,219 251,219 251,219 251,218 251,218 251,218 251,218 251,218 251,218 251,218 250,217 250,217 250,217 250,217 250,216 250,216 250,216 250,216 250,216 250,216 250,216 250,216 250,216 250,216 250,216 250,216 250,215 250,215 250,215 250,215 250,215 249,215 249,215 249,215 248,215 248,215 248,215 248,215 248,215 248,215 248,215 248,214 248,214 248,214 248,214 248,214 248,214 248,214 248,214 248,214 247,214 246,214 246,214 246,214 246,214 245,214 245,214 245,214 245,214 245,214 245,214 244,214 244,214 244,214 244,214 244,214 244,214 244,214 244,214 244,214 244,214 244,213 244,213 244,213 244,213 244,213 244,213 244,213 244,213 244,213 244,213 243,213 243,213 243,213 243,213 243,213 242,213 242,212 242,212 242,212 242,212 242,212 242,212 242,211 242,211 241,210 241,210 241,210 241,210 241,210 241,210 240,210 240,210 240,210 240,210 240,210 240,210 240,210 239,210 239,210 239,210 239,210 240,209 240,209 241,209 241,208 242,207 243,206 243,206 244,206 245,206 246,206 246,205 246,205 249,205 251,204 253,204 253,203 252,203 252,203 252,203 252,203 252,203 252,203 252,203 252,203 252,203 252,203 252,203 252,203 252,203 252,203 252,202 252,202 252,202 252,202 251,202 251,202 251,202 251,202 251,202 251,202 251,202 251,202 251,202 250,202 251,202 251,202 250,202 250,202 250,202 250,202 250,202 250,201 250,201 250,201 250,201 250,201 250,201 250,201 250,201 250,201 250,201 250,201 250,201 250,201 250,201 250,201 250,201 250,201 250,201 250,201 250,201 250,201 250,201 250,201 250,201 250,201 250,201 250,201 250,201 249,201 249,201 249,200 249,201 249,201 247,202 242,204 241,205 240,205 239,205 239,205 239,205 239,205 239,205 238,205 238,205 238,204 238,204 238,204 237,204 237,204 237,204 237,204 237,204 236,203 235,203 235,203 235,203 235,203 235,202 234,202 234,202 233,202 233,202 233,202 233,201 233,201 233,201 232,201 232,201 232,201 232,201 232,201 232,201 232,201 232,201 232,201 231,201 231,200 231,200 231,200 231,200 231,200 231,200 230,200 230,200 230,200 230,200 230,199 230,199 230,199 230,199 229,199 229,199 229,199 229,199 229,199 229,199 228,199 229,199 229,199 229,198 229,198 228,198 228,198 228,198 228,198 228,198 228,198 228,198 228,198 227,198 227,197 227,197 227,197 227,197 226,197 226,196 226,196 225,196 225,196 225,196 224,196 223,196 222,195 222,195 222,195 221,195 221,195 221,195 217,196 218,198 219,199 219,199 221,200 222,201 222,201 222,201 221,201 221,202 220,203 220,203 219,203 219,203 219,203 219,203 219,203 219,203 219,203 218,203 218,203 218,203 218,203 218,203 218,203 218,203 218,203 217,203 217,203 217,203 217,203 217,203 217,202 217,202 217,202 216,202 216,202 216,202 216,202 216,202 216,202 216,202 216,202 216,202 216,202 216,202 216,202 216,202 216,201 216,201 216,201 216,201 216,201 216,201 216,201 216,200 216,200 215,199 215,199 215,199 214,199 214,199 214,198 214,198 212,197 212,197 211,197 211,197 209,196 209,196 209,196 209,196 208,196 208,197 207,197 204,197 202,196 201,196 200,195 199,195 199,195 198,194 198,194 197,193 196,192 195,192 194,192 193,192 195,191 195,191 194,190 195,189 195,189 196,189 196,188 197,188 199,189 199,188 200,187 200,187 199,186 199,186 199,186 199,185 198,185 198,184 198,184 198,183 197,182 196,182 196,181 195,181 194,180 194,179 194,179 194,179 194,179 194,179 193,179 194,179 194,179 193,179 193,179 193,179 193,179 193,179 193,179 193,179 193,179 192,179 192,179 192,179 192,179 192,179 192,179 192,179 192,179 192,179 192,179 191,179 191,179 191,180 190,179 190,179 190,179 190,179 190,179 190,179 190,179 190,179 190,180 190,180 189,180 189,180 188,180 188,180 188,180 188,180 188,180 188,180 188,180 188,180 188,180 188,180 188,180 188,180 188,180 187,180 187,180 187,180 187,180 187,180 187,180 187,180 187,180 187,181 187,181 187,181 187,181 187,181 187,181 187,181 187,181 187,181 186,181 187,181 186,181 186,181 186,181 186,181 186,181 186,181 186,181 186,181 186,181 186,181 186,181 186,181 186,181 186,181 185,181 185,181 185,181 185,181 185,181 185,181 185,181 185,181 185,181 184,181 184,181 184,181 184,181 185,181 185,181 185,181 184,181 184,182 184,182 184,182 184,182 184,182 184,182 183,182 183,182 183,182 183,182 183,182 183,182 183,183 185,185 185,185 184,185 183,185 182,185 182,185 181,185 181,185 180,185 179,185 179,185 178,185 178,185 177,185 177,185 176,185 176,185 176,185 174,184 174,185 173,185 172,184 171,184 171,184 171,183 171,183 171,183 171,183 171,183 170,183 170,183 170,183 169,183 169,183 169,183 169,183 169,183 169,183 169,183 169,183 169,183 169,183 169,183 169,183 169,183 169,183 168,183 168,183 168,183 168,183 168,183 168,183 168,183 168,183 168,183 168,183 168,183 168,183 168,183 167,183 167,183 167,183 167,183 167,183 167,183 167,183 167,183 167,183 167,183 167,183 166,183 166,183 166,183 166,183 166,183 166,183 165,183 165,183 165,183 165,183 165,183 166,183 165,183 165,183 165,183 165,183 165,183 165,183 164,183 164,183 164,183 164,183 164,183 164,183 164,183 164,183 164,183 162,184 162,184 161,185 160,185 159,186 159,186 161,187 161,187 160,188 159,188 159,189 159,189 158,190 158,190 158,191 158,192 159,193 159,195 160,195 161,197 162,199 163,201 161,202 161,202 159,203 158,204 157,204 157,204 156,204 154,205 152,205 150,205 148,206 145,208 144,209 143,210 143,210 143,211 144,212 143,212 142,214 143,215 144,216 146,217 145,218 144,218 143,218 142,219 139,219 139,219 138,219 136,219 134,219 134,219 133,219 131,220 131,220 131,220 130,221 129,221 125,221 123,222 122,222 121,222 119,223 118,224 117,224 116,224 114,225 114,225 114,225 113,226 112,226 112,227 112,227 111,227 110,228 109,229 109,229 108,229 107,228 106,228 105,227 104,225 102,224 101,223 100,224 100,222 101,222 99,219 99,219 100,218 103,217 104,217 104,216 107,215 107,215 107,215 107,215 108,215 108,215 111,215 114,214 115,214 117,213 117,213 116,211 116,211 116,210 116,210 113,209 113,208 113,208 111,207 111,207 110,207 108,207 106,206 106,206 102,206 99,206 98,206 98,206 97,206 96,206 96,206 96,206 94,206 92,206 90,207 89,207 88,207 88,207 88,206 88,206 88,206 87,206 87,206 86,205 86,204 85,203 84,202 84,202 85,201 85,200 85,200 86,200 86,198 87,197 88,195 88,195 89,194 89,192 89,191 89,191 89,191 89,190 89,190 89,189 87,187 87,185 87,185 87,185 87,184 87,183 87,182 88,181 88,181 89,181 90,181 90,181 91,181 91,181 92,181 93,181 93,181 94,180 94,180 94,180 94,180 95,180 95,180 96,180 96,180 96,180 96,180 97,180 97,180 97,180 97,180 98,180 98,180 99,180 99,180 100,180 100,180 101,180 103,182 104,182 104,182 108,183 108,183 108,183 108,182 108,181 108,181 108,181 108,181 109,181 109,181 109,181 109,181 109,181 109,181 109,181 109,180 109,180 109,180 109,180 110,180 110,181 110,181 110,181 110,181 110,181 111,181 111,181 111,181 111,181 111,181 111,181 111,181 111,181 111,181 111,181 111,181 111,181 112,181 112,181 112,181 112,181 112,181 113,181 113,181 113,181 113,181 113,181 114,181 114,181 114,181 114,181 114,181 114,181 115,181 115,181 115,181 115,181 115,181 116,180 116,180 116,180 116,180 116,180 116,180 116,180 117,180 117,180 117,180 117,180 118,180 118,180 118,179 118,179 119,179 119,179 119,179 119,179 119,179 119,179 119,179 120,179 120,179 121,178 121,178 121,178 122,178 122,178 122,178 122,178 123,178 123,178 124,178 124,178 124,178 124,177 124,177 124,177 123,177 123,177 123,177 124,176 125,175 125,175 124,174 124,174 122,173 122,173 122,173 122,171 122,170 122,170 122,169 122,169 121,169 119,168 119,168 117,168 117,168 116,169 115,168 113,168 111,168 110,168 110,168 109,168 108,168 107,168 107,168 105,168 104,168 101,169 100,170 100,170 99,170 99,170 98,171 97,171 97,171 95,171 93,171 91,172 90,172 88,172 87,172 87,172 86,172 88,170 87,168 87,167 87,166 89,166 90,167 90,167 90,167 90,167 90,166 90,166 89,166 89,166 89,165 88,165 88,166 88,165 87,165 87,165 87,165 86,165 85,165 84,165 84,165 84,165 84,165 83,165 83,163 84,163 84,162 84,162 84,161 85,160 85,160 84,160 84,160 84,160 84,160 84,160 84,160 84,160 84,160 84,161 84,161 84,160 84,160 84,161 84,161 84,161 83,161 83,161 83,161 83,161 83,161 83,161 83,161 83,161 82,161 82,161 82,161 82,161 82,161 82,161 82,161 82,161 82,161 82,161 82,161 82,161 81,161 81,161 81,161 81,161 81,161 81,161 81,161 81,161 81,161 81,161 81,161 80,161 80,161 80,161 80,161 80,161 80,161 80,161 79,161 79,161 79,161 79,161 79,161 79,161 79,161 79,161 79,160 79,160 79,160 79,160 79,160 78,160 78,160 78,160 78,160 78,160 78,160 78,160 78,160 78,160 78,160 78,160 78,160 77,159 77,159 77,159 77,159 77,159 77,159 77,159 77,159 77,159 77,159 77,159 77,159 76,159 76,159 76,159 76,159 76,159 76,159 76,159 76,159 76,159 75,159 75,159 75,159 75,159 75,159 75,159 74,159 74,159 74,159 74,159 74,159 74,159 73,159 73,159 73,159 73,159 73,159 73,159 73,159 73,160 73,160 73,159 72,159 72,159 72,159 72,159 72,159 72,159 72,159 72,159 72,158 72,158 72,158 72,158 72,158 72,158 72,158 72,158 72,158 72,157 72,157 72,157 72,157 72,157 71,157 71,157 71,157 71,157 70,157 69,156 68,155 68,155 64,154 62,154 62,154 62,154 57,153 52,152 48,150 45,149 42,148 38,146 38,146 37,146 35,146 28,148 22,147 18,146 11,144 14,142 19,136 17,132 16,130 16,130 16,130 16,130 16,130 16,130 16,130 16,129 16,129 15,129 15,129 15,129 15,129 15,129 15,129 15,129 15,128 15,128 15,128 15,128 15,128 15,128 15,128 15,128 15,128 15,128 15,128 15,127 15,127 15,127 15,127 15,127 15,127 15,127 14,126 14,126 14,126 14,126 14,126 14,126 14,126 13,126 13,125 13,125 13,125 13,125 13,125 13,125 13,125 13,125 13,125 13,125 12,125 12,125 13,124 14,123 14,123 14,123 14,121 14,121 14,121 13,122 12,122 12,122 10,122 10,122 9,122 9,122 9,122 9,122 8,122 8,122 8,122 7,122 6,122 6,121 5,121 3,122 2,122 2,121 0,121 0,121 0,120 1,120 1,119 1,118 1,117 1,116 2,115 3,113 3,112 4,112 5,112 5,112 5,112 5,112 5,112 5,112 6,113 6,113 6,113 6,113 6,113 6,113 6,113 6,113 6,113 6,113 6,113 6,113 6,113 6,113 6,113 6,114 6,114 6,114 6,114 7,114 6,114 6,114 7,114 7,114 6,114 6,114 6,114 6,114 6,114 6,114 6,114 6,114 6,114 6,115 7,115 7,115 7,115 6,115 6,115 6,115 6,115 6,115 6,115 6,115 6,115 7,115 7,115 7,116 7,116 7,116 7,116 7,116 7,116 7,116 7,116 7,116 8,116 8,116 8,116 8,116 8,116 8,116 8,116 8,116 8,116 9,116 9,116 9,116 9,116 9,116 9,116 9,116 9,116 10,116 10,116 10,116 10,116 10,116 10,116 10,116 10,116 10,116 10,116 10,116 11,116 11,116 11,116 11,116 11,116 11,116 11,116 11,116 11,116 11,117 11,117 11,117 11,117 11,117 11,117 11,117 11,117 11,117 11,117 11,117 11,117 12,118 12,118 12,118 12,118 12,118 12,118 12,118 12,118 12,118 12,118 12,118 12,118 13,118 13,118 13,118 13,118 13,118 13,118 13,118 13,118 13,118 13,118 13,118 13,118 13,118 13,118 14,118 14,118 14,118 14,119 14,119 14,119 14,119 14,119 14,119 14,119 14,119 14,119 14,119 14,119 14,119 14,119 14,119 14,119 14,119 14,119 15,120 15,120 15,120 15,120 15,120 16,120 16,119 17,119 17,119 18,119 18,119 19,118 19,118 20,118 21,118 21,118 21,118 22,118 24,117 24,117 24,117 24,117 24,117 24,117 24,117 24,117 24,117 25,117 25,117 25,117 25,117 25,116 25,116 25,116 25,116 25,116 25,116 26,116 26,116 26,116 26,116 26,116 26,115 26,115 27,115 27,115 27,115 28,115 28,115 28,115 28,115 27,115 27,115 27,115 27,115 28,114 28,114 28,114 28,114 29,114 29,114 29,114 29,114 30,114 30,114 30,114 30,114 30,114 30,114 30,113 30,113 30,113 30,113 30,113 30,113 30,113 31,113 31,113 31,113 31,113 31,113 31,112 31,112 31,112 31,112 31,112 31,112 31,111 31,111 31,111 30,111 30,111 30,111 30,111 30,111 30,111 30,111 30,111 31,111 31,110 30,110 30,110 30,110 30,110 30,110 30,110 29,110 29,110 29,110 29,110 29,110 29,109 29,109 30,109 30,109 30,109 30,109 30,109 30,109 30,109 30,109 30,109 31,109 31,109 31,109 31,109 31,109 31,109 30,109 30,108 30,108 30,108 30,108 30,108 30,108 30,108 30,108 31,108 31,108 31,108 31,108 31,108 32,108 32,108 32,108 32,108 32,108 32,107 32,107 32,107 33,107 33,106 33,106 33,106 33,106 33,105 33,105 34,105 34,105 34,105 34,105 34,105 34,105 34,105 34,105 34,105 35,105 35,105 35,104 35,104 35,104 35,104 35,103 35,103 35,103 35,103 36,103 36,103 36,103 36,103 36,102 36,102 36,102 36,102 37,102 37,102 37,102 37,102 37,102 37,102 37,102 36,102 36,102 36,101 36,101 36,101 36,101 36,101 37,101 37,101 37,101 37,101 37,101 37,101 37,101 37,101 37,101 37,101 37,101 36,101 36,101 36,101 36,101 36,101" id="6708" class="canton" fill="steelblue" stroke-width="1" stroke="white" geotype="canton" geoname="Ingwiller" code_insee="6708" code_departement="67" nom_departement="Bas-Rhin" code_region="44" nom_region="Grand-Est"/></svg>