<?xml version="1.0" encoding="utf-8"?>
<svg version="1.1" id="svgmap" xmlns="http://www.w3.org/2000/svg" xmlns:xlink="http://www.w3.org/1999/xlink" x="0px" y="0px" width="100%" height="100%" viewBox="0 0 500 217">
<polygon points="0,54 3,52 5,51 7,49 8,49 9,48 12,47 13,47 15,47 17,47 18,48 19,50 19,51 20,51 21,52 21,52 22,53 23,53 25,53 26,54 27,54 29,55 31,55 32,55 33,55 35,55 37,55 39,55 42,55 44,52 45,52 46,52 48,51 50,51 52,51 54,51 56,51 58,51 66,50 69,49 70,49 70,49 71,49 73,47 80,46 82,46 87,42 85,39 88,37 90,33 90,33 93,29 93,28 96,27 107,24 110,21 117,18 126,14 126,13 128,14 130,11 132,9 136,8 140,7 142,7 145,7 149,5 153,5 161,1 165,0 166,0 166,1 167,2 168,3 168,4 170,4 170,5 172,6 174,7 177,7 178,7 179,7 179,7 184,7 187,8 188,8 189,8 191,7 192,7 193,7 196,8 197,8 200,9 202,10 203,11 205,12 206,14 207,15 209,18 212,24 213,26 216,27 217,27 219,27 220,28 220,28 221,29 221,31 227,33 228,34 229,35 230,36 231,37 231,37 232,37 233,37 233,37 234,38 235,38 238,37 239,37 239,38 239,38 240,38 240,38 241,38 241,38 242,38 242,39 243,39 243,39 244,39 245,40 247,40 250,40 251,41 252,41 260,43 264,45 269,45 272,45 280,49 281,49 284,52 287,54 289,57 290,58 292,59 294,61 294,61 295,60 297,58 298,57 297,56 297,55 297,54 297,53 297,52 299,51 298,50 297,50 299,48 300,48 304,48 306,49 309,50 314,49 316,50 317,51 318,51 319,51 326,53 333,54 334,54 335,54 335,55 335,55 337,55 337,55 340,56 341,56 342,56 343,57 346,58 346,58 346,58 346,58 350,60 351,61 351,61 352,61 352,61 354,62 355,62 358,63 358,63 358,64 361,65 363,65 365,66 367,68 371,75 375,82 383,85 386,84 387,84 387,84 388,84 388,84 388,83 390,83 390,83 390,84 391,84 391,84 391,83 393,84 393,84 396,86 396,86 397,87 397,87 397,87 397,87 397,87 397,87 397,87 399,89 400,89 398,92 398,92 398,92 397,92 396,93 397,93 397,93 396,95 397,95 397,95 399,94 400,98 400,98 400,98 401,102 399,102 400,105 414,103 415,105 421,103 421,104 428,102 428,102 428,102 431,101 433,101 433,100 433,100 433,100 433,100 437,100 437,100 437,100 442,99 446,99 446,99 448,99 449,99 449,99 452,99 451,99 451,99 454,98 454,98 454,99 455,99 455,98 457,98 457,98 461,98 461,97 461,97 467,97 467,97 467,97 467,97 468,97 468,97 472,97 472,97 477,96 477,96 477,96 477,96 477,96 477,96 479,96 479,96 480,96 481,96 482,96 482,96 483,96 484,96 486,96 487,96 487,96 488,97 489,97 489,97 490,97 491,97 491,97 492,97 493,97 494,97 494,97 495,97 496,98 497,98 497,98 497,98 497,98 497,98 497,98 497,98 497,98 497,99 497,99 497,99 497,99 498,99 497,99 497,99 497,99 497,99 498,100 498,100 499,100 499,100 500,100 500,100 500,100 500,100 500,101 500,101 499,101 499,102 499,102 499,102 499,102 499,102 499,103 499,103 499,103 499,103 499,103 499,104 498,104 498,104 498,104 498,105 498,105 498,105 498,105 498,106 498,106 498,106 498,107 498,107 498,107 498,108 498,108 497,108 497,108 497,109 497,109 497,111 496,112 496,113 496,113 496,113 496,113 496,113 496,113 496,113 496,113 496,114 496,114 496,114 496,114 496,115 496,115 496,115 492,115 491,116 488,117 485,117 484,117 485,119 480,120 480,120 481,122 481,122 481,122 482,123 482,123 482,123 481,124 481,124 482,126 482,126 483,127 483,127 482,127 482,127 482,127 481,127 480,128 479,128 479,129 479,129 479,130 478,130 478,130 478,131 477,131 476,131 476,132 476,132 476,132 475,132 475,132 475,132 475,132 474,133 474,133 473,133 473,133 472,134 472,134 471,134 470,135 470,135 469,135 470,135 470,135 469,136 469,136 468,137 468,137 467,137 466,137 466,137 465,137 465,138 464,138 463,138 463,138 463,138 462,139 462,139 461,139 461,139 461,139 461,139 461,139 461,139 460,139 460,140 460,140 460,140 459,140 459,140 459,140 458,140 458,140 458,140 457,141 457,141 457,141 457,141 456,141 456,141 456,141 455,141 455,141 455,141 455,141 455,141 454,142 454,142 454,142 454,142 454,142 454,142 454,142 453,142 453,142 453,142 453,142 452,142 452,142 452,142 452,142 451,142 451,142 451,142 451,142 450,142 450,142 450,142 450,142 449,142 448,142 448,142 448,142 447,142 445,142 446,145 445,147 445,148 445,150 445,152 444,152 443,152 442,152 442,155 441,156 442,156 441,157 442,159 442,159 443,162 443,162 442,162 442,162 442,163 442,164 442,164 442,164 440,165 440,165 439,165 438,165 438,166 438,166 437,167 436,168 435,168 435,168 435,170 434,171 433,174 433,173 429,170 426,171 426,171 424,172 419,175 418,175 415,173 412,172 409,170 407,170 406,171 404,173 401,178 401,178 400,180 397,180 396,180 397,177 395,177 393,177 392,177 391,177 390,180 390,180 389,179 389,179 388,178 388,178 388,178 388,178 387,178 387,178 386,178 385,177 385,177 384,177 383,177 383,177 382,176 381,176 380,176 379,176 378,175 378,175 377,175 376,175 376,175 371,174 371,174 371,174 371,174 369,179 363,177 362,177 362,177 362,178 362,178 362,179 361,178 361,179 361,179 361,179 361,179 360,180 360,180 359,182 359,183 357,187 357,189 356,191 356,193 355,196 354,200 353,200 353,201 349,200 349,202 347,202 347,202 346,202 346,202 346,202 345,202 345,202 345,202 344,202 344,203 344,203 343,202 343,202 343,203 343,203 343,203 342,203 342,203 342,203 342,203 342,203 342,203 342,203 342,203 342,203 342,203 342,203 341,203 342,203 341,203 341,203 341,203 341,203 341,203 341,203 340,203 340,203 340,203 340,203 340,203 340,203 340,203 340,203 340,203 340,204 339,204 339,204 339,204 338,204 337,204 336,205 336,205 334,205 332,205 330,205 330,205 329,205 328,205 327,204 326,205 326,205 324,206 323,206 323,206 323,205 322,205 320,204 319,204 318,204 316,204 315,204 314,203 313,203 313,203 312,203 310,203 310,203 307,203 306,204 306,204 306,204 305,204 304,204 303,205 302,205 301,205 300,205 299,206 299,206 298,207 295,206 295,206 295,206 292,206 292,206 288,207 282,209 277,210 270,212 266,217 264,216 263,215 262,215 260,215 257,215 254,214 251,214 250,213 249,213 248,213 247,213 245,213 244,213 243,213 242,213 240,213 238,212 238,212 238,211 237,211 238,209 237,208 237,207 237,205 238,204 239,203 239,202 238,202 235,202 231,203 227,202 226,201 223,200 221,200 221,200 221,199 220,199 219,198 218,198 215,199 214,198 213,198 211,199 211,198 209,198 206,199 204,200 203,201 202,201 201,202 200,202 199,202 195,203 193,203 192,203 191,203 190,203 189,203 188,203 186,204 185,204 185,204 184,203 184,204 184,204 183,204 181,204 179,203 174,204 173,204 172,204 171,204 170,204 169,204 166,201 164,198 163,197 162,196 162,196 162,195 162,194 161,193 161,191 160,190 159,190 157,188 157,187 157,187 158,185 158,184 160,183 160,182 161,181 162,181 163,181 164,180 164,179 163,177 163,177 163,176 163,175 163,174 163,174 163,173 163,172 163,170 163,169 163,169 163,168 164,168 165,167 165,167 166,166 166,166 166,165 167,163 168,162 168,161 168,160 169,159 169,158 169,158 169,157 169,157 168,156 167,156 164,156 163,155 160,156 158,155 157,155 156,154 155,155 153,155 150,154 149,153 147,152 145,151 144,151 143,151 141,150 139,150 137,150 136,150 134,150 133,150 131,145 130,144 130,144 130,143 129,142 128,142 127,141 127,140 125,139 123,138 123,138 121,137 120,136 118,135 116,134 115,132 117,130 113,130 110,129 108,128 104,126 104,126 104,126 99,125 97,125 95,125 95,124 93,124 92,125 91,125 88,126 87,127 83,128 83,127 79,127 76,126 72,125 67,125 66,124 64,119 60,114 57,114 52,115 49,115 48,115 47,115 43,116 39,116 36,116 34,114 29,110 27,107 27,106 26,105 23,103 22,101 20,99 19,97 15,96 16,93 19,87 20,83 20,82 21,81 22,78 23,75 22,74 21,73 20,72 20,72 20,72 20,72 21,71 21,71 21,71 21,71 21,70 21,70 21,70 20,70 20,69 20,69 20,69 20,69 20,68 19,68 19,67 19,67 18,67 18,67 18,67 18,67 18,67 18,67 18,67 17,66 17,66 17,66 16,65 16,65 16,65 15,65 15,65 15,65 14,65 14,65 14,65 13,65 12,65 12,65 11,65 10,65 10,65 10,65 10,65 9,65 9,65 9,65 8,65 8,65 8,65 8,65 8,65 8,65 8,65 7,65 7,65 7,64 5,60 4,59 2,57 1,56 1,55 0,54" id="6807" class="canton" fill="steelblue" stroke-width="1" stroke="white" geotype="canton" geoname="Guebwiller" code_insee="6807" code_departement="68" nom_departement="Haut-Rhin" code_region="44" nom_region="Grand-Est"/></svg>