<?xml version="1.0" encoding="utf-8"?>
<svg version="1.1" id="svgmap" xmlns="http://www.w3.org/2000/svg" xmlns:xlink="http://www.w3.org/1999/xlink" x="0px" y="0px" width="100%" height="100%" viewBox="0 0 437 500">
<polygon points="104,323 107,322 108,321 109,321 109,320 110,320 110,318 111,318 112,317 112,316 110,316 110,316 108,316 108,316 107,316 106,316 104,316 103,316 102,315 102,315 101,315 101,315 102,314 102,314 102,313 102,312 102,312 102,311 104,311 104,311 104,311 105,310 105,309 105,309 106,308 106,308 107,308 107,307 107,305 109,306 109,305 109,304 111,305 111,305 111,304 111,304 112,305 116,302 115,302 115,301 115,300 114,298 113,298 113,298 113,298 113,297 117,297 117,297 117,295 118,295 118,295 118,293 118,293 118,293 120,291 121,291 122,290 123,290 126,291 127,291 128,291 129,291 129,291 131,291 134,291 136,292 139,292 140,292 140,291 141,292 141,292 145,293 147,293 148,294 149,294 152,294 154,294 155,294 156,294 159,293 158,292 158,292 157,289 156,288 156,287 155,286 155,285 154,284 154,284 156,283 156,282 157,282 157,282 157,282 158,281 158,281 158,281 158,281 159,281 159,281 158,280 158,279 158,278 157,278 160,278 160,278 160,278 162,278 162,277 162,277 162,277 162,275 165,275 165,275 166,275 166,275 166,274 168,274 169,274 170,272 173,269 173,269 174,266 174,266 171,266 170,266 168,266 167,266 167,263 167,262 167,260 167,260 169,260 169,259 169,257 164,257 164,257 161,257 161,257 161,255 158,255 158,254 158,254 158,254 157,254 156,254 155,255 154,255 154,254 152,255 152,253 151,250 147,251 147,250 143,251 138,252 138,252 138,250 138,250 138,250 137,250 137,250 129,250 129,250 129,251 126,250 122,249 122,250 122,250 122,251 122,252 122,252 121,254 121,254 121,255 118,254 115,253 115,253 113,252 113,252 113,251 113,250 114,249 115,246 115,246 115,244 115,244 115,244 116,241 117,240 117,240 118,239 118,239 119,238 119,238 119,237 119,236 120,235 119,235 119,235 120,235 120,235 120,233 119,232 119,232 119,231 118,231 117,231 116,231 114,230 114,230 113,230 113,230 113,228 113,227 115,219 116,213 116,213 116,211 117,210 117,210 116,209 117,206 116,201 117,201 118,200 119,199 119,199 119,199 120,197 120,197 120,197 119,195 119,194 118,194 117,193 116,193 115,192 115,192 114,191 114,191 114,191 113,191 112,191 112,191 109,190 106,189 104,189 104,188 103,187 103,186 103,186 102,186 102,185 102,185 101,185 100,184 98,184 95,182 94,182 91,181 91,181 90,180 89,180 87,179 87,179 88,178 88,177 88,176 89,175 90,174 94,170 94,170 89,169 88,168 89,168 89,168 89,167 89,167 89,167 89,165 88,162 87,157 85,153 85,153 87,151 88,151 90,148 91,146 91,146 90,146 90,145 93,137 73,131 70,131 67,130 65,130 68,121 68,120 73,110 74,109 75,109 75,109 75,108 75,107 75,106 75,105 75,105 76,104 76,103 75,103 75,103 76,102 76,102 75,102 75,101 76,101 76,101 76,101 76,100 76,100 76,100 76,99 76,99 76,99 76,97 76,96 75,96 76,95 76,95 76,94 76,93 76,92 76,91 76,91 76,91 76,90 76,90 76,90 76,90 77,90 77,89 77,89 77,89 77,89 77,88 77,88 77,88 77,87 78,87 78,87 78,86 78,86 79,85 79,85 79,85 79,84 79,84 81,85 82,83 82,82 83,81 85,78 85,78 85,77 85,77 86,76 86,75 86,75 86,74 86,73 86,73 85,72 84,69 84,69 84,69 85,68 85,68 86,67 87,67 88,67 89,67 91,66 91,66 93,65 94,64 95,63 95,62 96,62 97,61 97,61 98,61 99,60 100,60 100,59 101,59 101,58 102,57 102,57 102,57 103,56 104,56 105,55 106,54 107,54 107,53 107,53 108,52 108,51 108,51 108,49 108,49 109,48 109,47 109,46 110,45 111,43 111,43 111,42 111,42 111,42 111,42 113,40 114,39 115,39 116,37 116,36 117,35 117,35 118,34 120,32 121,31 122,30 122,29 122,28 123,27 124,25 125,24 127,21 128,20 129,19 129,18 130,16 131,15 132,13 135,11 136,9 137,8 139,5 140,3 141,2 141,2 142,2 146,5 145,6 147,7 148,6 151,8 153,5 154,6 155,6 158,4 159,4 159,4 159,4 160,3 162,2 162,2 165,0 166,0 167,1 167,0 168,0 168,1 168,1 168,2 168,2 168,2 168,2 168,2 168,2 168,3 168,3 169,3 168,3 168,4 169,4 169,4 169,4 169,4 169,4 170,5 170,5 171,6 171,5 173,7 174,8 174,8 174,9 176,10 176,11 176,12 176,12 176,12 176,13 177,14 177,15 177,15 177,15 179,15 179,15 182,16 181,17 181,17 181,17 182,18 184,18 185,19 186,19 187,20 187,20 188,20 189,21 188,23 195,24 196,24 195,24 195,25 198,25 199,25 201,25 203,25 203,25 212,26 222,27 227,28 227,28 228,28 228,29 237,31 237,31 237,32 242,33 246,34 245,34 259,38 265,39 265,39 266,38 266,38 266,38 266,37 267,36 270,32 270,31 273,29 273,28 273,27 274,25 275,24 275,23 277,22 279,19 280,18 281,16 281,16 282,15 282,15 285,16 290,17 292,17 292,18 295,19 296,19 296,18 298,19 298,19 303,21 304,21 321,28 317,32 315,33 310,38 310,39 308,40 297,46 296,47 293,49 291,50 279,58 271,62 271,63 264,67 264,68 262,71 260,73 260,74 260,75 260,76 260,81 260,82 261,83 261,83 263,86 264,87 267,90 269,91 274,94 277,96 278,96 279,97 281,98 282,98 284,99 289,100 293,100 304,101 305,101 305,101 311,102 313,103 321,106 325,107 327,108 329,108 329,109 332,109 339,109 340,109 348,108 349,108 349,108 350,111 351,114 351,114 352,115 352,115 352,116 352,117 352,117 352,118 352,119 352,119 351,122 351,123 351,123 344,121 342,121 342,121 335,121 331,126 329,129 329,129 329,129 333,130 333,130 333,130 332,131 332,131 330,131 330,131 328,131 328,131 327,131 326,132 326,132 323,136 323,136 322,137 320,139 320,139 320,140 321,140 320,140 319,142 319,142 313,139 313,139 318,142 318,142 318,142 317,142 315,142 314,142 312,142 311,142 310,142 310,142 310,143 310,143 310,144 309,144 309,145 309,145 308,146 308,146 308,146 308,146 308,146 308,146 307,148 307,148 306,149 306,150 306,150 306,150 305,151 305,151 305,152 305,152 304,153 302,153 301,153 295,158 294,158 289,166 286,171 286,171 286,171 277,172 277,172 276,173 276,173 277,176 278,177 279,180 280,183 283,189 286,196 286,196 288,196 288,196 300,201 307,201 309,201 311,201 312,200 313,200 314,200 315,199 317,199 321,198 321,198 322,198 321,199 321,199 321,199 321,199 321,200 320,201 319,205 322,205 322,206 324,206 326,206 328,205 329,205 332,206 332,206 334,206 335,206 336,206 338,205 339,205 340,205 341,207 342,207 343,208 346,209 350,210 357,213 357,213 357,212 357,212 357,211 356,210 356,210 370,207 370,207 372,209 372,209 374,210 374,211 376,211 378,211 380,211 380,212 382,212 382,212 383,213 383,213 383,213 383,213 384,213 385,214 385,214 389,217 389,218 389,218 390,217 390,216 391,210 391,210 394,209 401,209 409,210 409,210 410,209 411,209 411,209 412,209 413,209 413,209 415,209 415,209 416,209 417,209 421,209 424,209 424,209 430,209 431,209 434,210 435,210 436,210 437,211 436,211 436,212 436,213 436,213 435,213 435,213 434,214 434,214 432,214 431,215 431,215 430,216 430,216 430,217 429,217 428,217 427,217 427,217 425,217 425,217 424,217 424,217 424,217 424,219 424,219 424,219 423,219 423,219 423,219 423,219 422,220 422,220 422,220 422,220 422,221 422,221 422,221 421,221 421,222 421,222 420,222 420,222 422,223 423,224 425,224 426,223 428,223 427,224 427,225 428,225 427,226 427,227 426,227 426,230 426,231 425,232 424,232 423,233 423,233 426,234 425,236 424,239 424,242 426,242 426,243 428,243 428,243 428,244 428,246 428,247 428,248 428,249 427,249 427,250 427,250 426,250 426,251 426,252 426,252 424,256 424,258 424,259 424,261 424,261 425,261 426,261 427,262 427,263 428,264 427,264 427,265 427,265 427,265 427,265 427,267 427,268 427,269 427,269 427,271 427,272 427,273 427,273 427,274 427,275 427,276 427,277 427,278 427,279 427,279 428,281 428,281 428,281 427,281 427,282 426,282 426,283 426,283 426,284 426,284 425,285 421,287 421,287 420,287 420,288 420,288 420,290 420,290 420,291 420,291 419,292 419,292 418,292 418,293 418,293 421,296 421,296 420,296 419,297 418,298 418,298 418,298 418,298 418,299 418,300 418,300 418,300 418,301 418,301 418,302 417,303 416,304 416,305 416,305 415,306 415,306 415,306 415,307 415,307 415,307 415,308 415,309 415,309 414,309 414,309 413,308 413,308 411,308 410,308 409,308 409,308 408,308 408,309 407,310 407,310 407,311 407,311 407,312 407,312 407,313 408,313 408,314 408,316 408,317 408,318 408,319 408,319 408,319 408,319 407,319 407,319 406,319 405,320 404,320 403,321 402,321 401,322 400,322 400,322 399,322 399,322 398,321 398,320 396,322 396,322 395,323 394,324 394,324 392,324 392,324 391,324 390,324 389,324 388,323 387,323 387,323 386,323 386,324 385,324 385,324 384,325 384,325 383,326 382,327 382,328 382,328 380,330 379,330 378,331 378,332 377,332 377,334 377,334 377,335 377,336 376,337 376,337 372,339 369,340 367,340 366,341 366,341 366,341 367,342 367,342 366,342 365,342 364,343 364,343 363,343 363,343 362,343 353,340 352,339 352,339 351,338 348,335 346,333 344,331 343,329 337,323 334,320 332,318 331,316 331,315 330,315 330,314 329,313 329,312 329,312 328,311 328,309 326,306 325,301 323,295 322,293 321,292 319,284 319,281 316,278 315,274 313,267 312,266 310,260 309,260 309,260 309,260 309,260 306,261 305,261 304,262 304,262 303,262 302,261 300,261 299,261 300,262 300,263 300,263 300,264 300,266 300,267 300,268 299,270 299,270 299,271 299,272 300,273 300,273 299,274 299,275 299,276 299,278 299,279 299,282 288,282 287,282 286,282 286,283 286,283 286,283 284,284 284,284 284,284 283,284 282,284 282,284 282,284 282,284 281,284 281,285 281,285 281,286 282,286 282,287 282,287 283,289 283,289 283,289 284,290 284,290 285,292 285,292 286,294 286,295 286,295 286,295 282,295 281,299 281,300 280,302 280,304 278,304 278,305 278,305 278,307 278,308 277,308 277,309 276,310 276,310 276,311 275,312 275,314 275,315 275,316 275,316 275,316 274,317 274,319 274,319 281,321 281,321 281,321 283,323 283,324 283,324 284,325 284,326 283,327 283,327 282,328 281,328 280,329 279,330 279,330 278,330 278,331 278,331 278,332 278,332 279,333 279,333 278,335 278,335 278,336 278,337 278,339 278,339 278,340 278,341 279,341 279,342 279,342 279,343 279,344 279,344 278,345 278,346 278,347 278,347 278,348 278,349 279,350 279,350 280,351 280,351 278,352 278,352 279,352 278,353 277,353 277,353 277,354 277,354 277,355 277,355 277,355 277,355 277,356 278,357 278,358 278,358 278,358 277,360 276,360 276,360 276,360 275,361 275,362 275,362 274,362 274,362 277,365 277,365 278,365 279,367 280,368 280,368 280,368 280,368 280,369 280,369 280,370 281,371 281,372 281,372 281,373 281,373 281,373 285,383 280,385 280,386 278,386 278,387 272,389 272,389 273,390 274,391 275,391 278,395 278,395 278,395 278,395 279,396 280,397 282,399 283,399 283,400 284,401 284,401 285,401 285,402 285,402 285,403 285,403 285,403 281,402 280,402 279,401 278,401 278,401 277,401 276,401 270,402 269,402 268,403 267,403 266,403 265,404 264,404 263,404 261,404 260,404 257,404 257,404 253,404 253,407 253,411 251,411 249,411 243,411 242,410 241,411 241,411 239,409 238,409 238,407 236,404 235,403 235,403 234,402 233,402 232,401 232,400 231,400 231,399 230,397 230,397 229,397 228,396 227,396 226,395 225,394 225,394 224,394 224,394 223,395 223,395 222,395 222,396 222,396 221,397 221,397 221,397 221,397 220,397 219,397 219,397 218,397 218,397 217,398 217,398 217,398 217,398 216,398 216,397 215,398 215,398 214,398 214,398 213,398 213,399 212,399 212,399 212,399 211,400 211,400 211,400 211,400 211,400 210,400 209,400 208,400 208,400 208,400 207,401 206,402 206,402 205,402 205,402 205,402 205,401 203,402 202,402 201,402 201,402 201,402 200,403 199,403 199,404 198,405 198,405 195,404 192,403 188,402 188,402 186,399 186,399 185,398 185,399 184,400 183,400 182,401 180,402 179,403 178,404 177,404 176,405 174,405 174,405 173,405 172,405 171,405 171,405 171,405 170,405 170,405 170,405 169,409 169,422 167,428 167,429 167,430 167,432 165,439 165,440 165,441 166,441 166,443 168,444 168,444 168,445 169,445 169,445 169,445 169,445 169,445 169,446 170,447 171,448 178,456 181,459 181,459 185,465 185,465 189,479 189,480 192,482 192,482 193,484 193,484 194,486 197,487 198,487 199,487 200,488 201,488 202,489 201,489 201,489 201,489 201,489 200,489 200,489 200,489 200,489 200,489 200,489 200,489 200,490 199,490 199,490 198,490 198,490 199,490 199,491 197,491 197,491 197,491 197,491 197,492 196,492 196,492 197,493 197,493 196,493 196,493 196,493 195,493 195,493 195,493 195,493 195,493 194,494 194,494 194,494 194,494 193,494 193,494 193,494 193,494 193,494 192,495 192,495 192,495 191,496 191,496 190,496 190,496 190,496 189,496 189,496 189,496 189,497 188,497 187,497 187,497 187,497 187,497 187,497 186,497 186,497 186,497 185,497 184,497 184,497 183,497 183,497 182,497 182,497 181,497 181,497 181,497 181,497 181,497 181,497 180,497 179,497 179,496 178,496 178,496 177,497 177,497 176,497 176,497 175,497 174,497 174,498 174,498 174,497 174,497 174,497 173,497 173,497 172,497 171,497 171,498 171,498 171,498 170,498 169,498 169,498 168,499 167,499 167,499 166,500 166,500 165,500 165,500 165,500 163,500 163,500 163,500 163,499 162,499 162,499 162,499 161,499 161,499 161,499 160,499 160,498 160,498 160,498 159,498 159,498 159,497 158,497 158,497 157,497 157,497 157,497 157,497 156,497 156,497 155,497 155,496 154,496 153,496 153,496 152,495 151,495 150,495 149,495 149,495 148,495 148,495 147,495 147,495 146,495 146,495 146,495 145,495 145,495 145,495 145,495 144,495 144,494 144,494 144,494 143,494 142,494 142,494 141,494 140,493 140,493 139,493 138,493 138,493 137,493 137,493 137,492 136,492 136,492 136,492 136,492 135,492 135,492 135,492 134,492 134,492 134,492 134,492 134,492 133,492 133,492 133,492 133,492 133,492 132,492 131,492 131,492 130,492 129,492 128,492 128,492 128,493 127,493 127,493 127,493 127,493 126,493 126,493 125,493 125,493 124,493 124,493 124,493 124,493 124,493 123,493 123,494 123,494 123,494 122,494 122,494 122,494 122,494 121,493 121,493 120,493 120,493 119,493 118,493 118,493 117,493 117,493 117,493 117,493 116,493 116,493 115,493 114,493 114,493 113,493 113,493 113,493 112,493 112,493 111,493 111,493 111,493 110,492 109,492 108,492 108,492 108,492 107,492 106,492 105,492 105,492 104,492 103,492 103,492 102,492 102,492 101,492 100,492 99,492 98,492 98,492 98,493 98,493 97,493 96,493 95,493 94,493 94,493 87,494 84,495 82,495 81,495 80,495 69,497 69,497 67,490 66,481 65,480 65,479 60,477 42,468 42,468 32,462 23,458 16,455 13,452 13,452 4,445 4,445 0,429 0,428 4,419 5,419 12,410 12,410 13,410 14,410 14,409 14,409 14,409 14,409 15,408 15,408 16,407 17,407 17,407 18,407 19,407 19,407 20,407 20,407 20,407 20,407 21,407 22,407 23,407 25,407 25,407 25,407 26,406 26,406 27,406 28,405 29,404 30,404 31,403 31,403 32,402 33,402 33,402 34,402 33,402 34,402 34,402 35,403 35,403 36,403 37,403 37,403 38,403 39,404 40,404 40,404 42,404 43,404 43,405 44,405 44,405 46,405 48,406 49,406 49,406 50,406 51,406 51,406 51,407 52,407 52,406 53,406 54,406 54,406 55,406 56,406 56,406 56,406 57,406 57,406 58,406 60,406 60,406 61,406 61,406 61,406 63,406 63,405 64,405 64,405 64,405 65,405 65,405 66,405 67,406 67,405 67,406 67,406 68,406 68,406 68,405 69,405 69,406 69,406 69,406 70,406 70,406 70,405 70,405 70,405 70,405 71,404 71,404 71,403 72,403 72,402 73,402 73,401 73,401 73,400 74,400 74,400 74,400 74,400 75,400 75,400 75,400 75,400 75,399 75,399 75,399 76,400 76,400 76,400 76,399 77,399 77,399 78,399 78,400 79,400 79,400 79,400 79,399 80,399 80,399 81,399 81,398 82,398 82,398 82,397 83,397 83,397 83,397 84,396 84,396 84,395 85,395 85,396 88,399 88,399 89,399 90,399 90,399 91,400 93,402 94,402 96,404 96,404 96,404 97,403 97,403 98,400 98,400 98,398 98,397 98,396 98,396 98,395 98,394 99,392 99,390 99,390 100,389 100,388 101,387 102,384 102,384 103,383 104,382 105,381 108,379 109,378 110,377 111,376 111,375 112,374 113,372 114,372 114,371 115,370 115,369 115,368 116,365 116,364 117,361 117,360 117,358 118,357 119,354 119,353 119,353 117,351 116,350 116,350 115,345 115,344 114,344 113,344 112,342 111,341 111,341 110,341 110,341 110,340 109,340 109,340 109,340 108,339 108,339 108,338 108,338 108,338 107,338 106,337 105,337 104,337 104,337 104,337 104,336 103,336 103,334 103,334 103,332 103,331 103,331 102,330 102,330 102,330 102,329 102,328 103,327 103,327 103,327 103,326 103,326 103,326 103,326 103,326 104,325 104,324 105,323 104,323" id="6901" class="canton" fill="steelblue" stroke-width="1" stroke="white" geotype="canton" geoname="Anse" code_insee="6901" code_departement="69" nom_departement="Rhône" code_region="84" nom_region="Auvergne-Rhône-Alpes"/></svg>