<?xml version="1.0" encoding="utf-8"?>
<svg version="1.1" id="svgmap" xmlns="http://www.w3.org/2000/svg" xmlns:xlink="http://www.w3.org/1999/xlink" x="0px" y="0px" width="100%" height="100%" viewBox="0 0 500 347">
<polygon points="6,185 6,185 6,185 6,185 5,184 5,184 5,184 5,184 5,183 5,183 6,183 6,183 6,183 8,183 8,183 8,183 9,184 9,183 9,183 9,183 11,183 12,183 12,183 12,183 13,183 13,183 13,183 13,183 13,183 13,183 13,183 13,183 13,183 14,183 14,182 14,182 14,182 14,182 14,182 15,182 15,182 15,182 15,182 16,182 16,182 16,182 16,182 16,182 17,182 17,182 17,182 17,182 18,182 18,181 18,181 18,182 18,182 19,181 19,181 19,181 19,181 19,181 19,181 20,181 20,181 20,181 20,181 21,181 21,181 21,181 21,181 21,181 23,180 23,180 23,180 23,180 24,180 24,180 24,179 25,179 25,179 25,179 26,179 26,179 26,179 27,178 28,178 28,178 29,178 30,178 30,178 31,177 32,177 32,177 33,177 33,177 34,177 34,177 35,177 35,177 36,176 38,175 41,174 42,173 43,173 43,173 43,173 44,173 44,173 44,173 45,173 46,173 46,172 46,172 46,172 47,172 47,172 47,172 48,172 48,172 48,171 48,171 49,171 49,171 49,171 50,171 50,171 50,171 51,171 51,171 51,171 51,171 51,171 52,171 52,171 52,171 52,171 53,170 53,170 54,170 54,170 55,170 55,170 55,170 55,170 56,170 56,169 58,169 58,169 58,169 58,169 59,169 59,169 61,169 61,169 61,167 61,167 59,166 59,166 58,165 58,164 60,159 62,156 62,156 62,155 62,154 62,153 62,153 63,152 64,152 65,151 65,151 67,150 67,150 69,149 70,149 70,149 71,149 70,148 70,148 70,148 70,148 70,147 70,147 69,147 69,146 68,146 68,146 68,146 68,146 67,145 67,145 66,144 66,144 66,144 65,143 65,143 65,143 65,143 65,143 65,142 65,142 65,142 65,142 65,142 65,142 65,142 63,140 62,139 62,139 62,139 60,138 60,138 58,137 57,136 56,136 56,136 55,136 55,136 54,135 53,134 53,134 53,134 53,134 53,134 53,133 52,133 52,133 52,133 52,133 53,133 53,133 53,132 53,132 52,132 52,132 51,131 51,131 51,130 50,130 50,130 50,130 50,129 50,129 51,129 51,129 51,128 53,127 53,127 54,127 54,127 54,127 54,126 55,126 55,126 55,126 55,126 55,125 55,125 55,125 56,125 56,124 56,124 57,124 58,124 59,123 59,123 60,123 60,123 60,123 61,123 62,123 62,122 62,122 63,122 64,122 64,122 64,121 64,121 65,121 65,121 65,121 66,121 66,121 66,121 67,121 68,121 69,121 70,121 70,120 71,120 71,120 71,120 72,120 72,120 72,121 72,121 73,121 73,121 73,121 74,121 75,121 75,121 76,121 76,121 77,121 77,120 77,120 78,120 78,120 78,120 79,120 80,120 80,121 80,121 80,121 81,121 82,121 82,121 83,120 83,120 84,120 85,120 85,120 86,119 86,119 86,119 87,119 87,119 88,118 88,118 88,118 89,118 89,118 89,118 90,118 90,117 90,117 91,117 91,117 91,117 92,117 92,117 92,117 93,116 94,116 94,116 94,116 94,116 94,116 94,115 93,115 93,115 92,115 92,115 90,109 90,109 86,107 85,106 84,106 83,105 83,105 82,104 80,101 79,99 78,98 77,97 75,95 75,95 75,93 74,91 74,91 72,89 71,89 68,88 68,88 68,88 68,86 69,86 69,86 69,85 69,85 69,85 70,85 70,85 70,84 70,84 70,84 70,84 69,84 69,84 69,84 69,83 69,80 69,80 69,80 70,81 72,81 72,81 75,81 76,81 76,81 78,81 79,80 79,80 81,81 85,82 86,82 88,83 88,83 90,83 92,83 94,83 97,83 100,84 101,84 101,84 105,83 105,83 107,82 109,82 109,81 112,80 114,78 115,77 115,77 116,75 117,71 118,71 118,69 118,68 119,67 120,62 120,62 121,61 122,58 123,57 125,54 125,54 126,54 127,53 128,53 129,53 133,51 133,51 134,50 134,50 134,50 135,49 135,49 138,48 141,47 141,47 141,46 142,44 144,41 144,41 144,41 147,39 147,39 147,39 148,37 147,37 146,35 146,35 147,35 148,32 151,30 151,30 151,27 151,27 150,24 150,23 150,21 151,21 152,19 153,17 153,17 154,17 155,17 158,18 158,18 158,18 161,16 162,15 164,15 166,15 166,15 167,17 168,18 168,18 170,18 170,18 174,16 180,13 180,13 182,13 185,12 186,12 190,13 190,13 189,15 188,15 188,17 188,17 186,19 185,21 184,22 184,22 185,24 185,23 186,23 189,21 191,20 192,20 194,18 194,18 197,15 197,15 199,12 199,12 197,10 196,10 194,8 199,8 203,7 203,7 205,7 209,6 211,6 211,6 212,6 212,6 217,5 220,5 222,5 222,5 222,5 222,5 222,5 223,5 225,5 227,5 228,5 234,4 236,4 238,4 239,4 239,4 240,4 241,3 242,3 242,3 243,3 243,3 245,2 246,2 246,2 252,1 255,1 256,1 256,1 257,1 257,1 257,1 257,1 257,1 257,1 258,1 259,1 260,1 260,1 261,1 261,1 262,1 263,0 263,0 264,0 264,0 265,0 266,0 267,0 267,0 268,1 268,1 270,1 270,1 270,0 270,0 270,0 270,0 271,0 272,0 273,0 273,0 273,0 273,1 273,1 273,1 274,0 274,0 274,0 276,1 277,1 277,1 277,1 277,2 275,2 275,2 275,2 275,2 275,5 274,5 268,10 268,10 265,12 265,12 264,12 261,13 261,13 260,14 260,14 260,14 261,15 263,16 263,16 264,17 267,19 267,19 269,20 271,21 276,23 276,23 279,23 279,23 284,25 284,25 284,25 284,26 284,26 284,26 284,26 284,26 285,26 285,26 285,27 286,27 286,27 287,27 287,27 287,27 287,28 287,28 288,28 288,28 288,28 288,29 288,29 288,29 288,30 289,30 288,30 289,31 289,31 290,32 290,32 290,33 289,33 289,33 289,33 289,34 289,34 289,34 289,34 289,41 289,41 294,43 294,43 296,44 299,45 299,45 299,45 301,43 301,43 302,43 302,43 302,44 302,44 302,44 303,45 303,45 303,45 303,45 303,45 303,45 303,46 303,46 304,46 304,46 305,47 305,47 305,47 304,47 304,47 304,48 304,48 304,48 304,48 304,48 305,49 305,49 305,50 306,50 307,51 307,51 308,51 308,51 308,52 308,52 308,52 308,52 308,52 309,52 309,52 310,52 310,52 311,52 312,53 313,53 313,53 314,53 314,53 315,53 316,53 316,53 316,53 317,53 317,53 318,53 317,54 317,54 317,54 317,54 317,55 317,55 317,55 318,55 318,55 318,55 318,55 318,55 319,55 319,55 319,54 319,54 320,54 320,55 319,55 319,55 319,55 319,55 318,56 318,56 319,56 319,57 319,57 319,57 319,57 319,57 320,57 319,57 319,57 319,58 319,58 318,58 318,59 318,59 318,59 318,59 319,59 319,59 319,59 320,59 320,59 321,59 321,59 321,59 321,60 321,60 321,60 320,61 320,61 320,61 320,61 320,61 321,61 321,61 321,62 321,62 321,62 320,63 320,63 320,63 320,63 320,63 320,64 320,64 320,64 320,64 320,64 320,64 320,64 319,64 319,64 319,65 318,65 317,65 317,65 317,65 317,65 316,66 316,66 316,66 316,67 316,67 316,67 317,67 317,67 317,68 317,68 317,68 317,68 317,68 316,68 316,68 316,68 315,68 315,68 315,68 315,68 315,68 314,68 314,69 314,69 314,69 314,69 315,69 315,69 315,70 316,69 316,69 316,69 316,69 316,70 317,70 317,70 317,71 316,71 316,71 316,72 315,72 315,72 316,72 316,73 316,73 316,73 316,73 316,73 315,73 315,73 315,73 314,73 314,73 314,74 313,74 313,75 313,75 313,75 315,76 316,76 316,76 316,76 314,77 314,78 314,79 314,80 314,81 314,82 314,82 314,83 313,83 313,83 312,83 311,84 310,84 309,84 306,83 304,83 303,83 301,85 300,85 299,86 298,87 298,87 296,90 298,93 296,95 293,98 292,98 291,99 290,100 291,101 291,101 292,102 289,103 289,103 288,104 287,105 286,105 286,106 285,106 285,107 285,108 283,108 283,109 283,109 282,110 282,110 282,110 281,110 281,110 280,111 279,111 279,111 278,111 277,111 275,111 275,111 273,111 273,111 272,111 271,110 269,110 268,110 265,110 264,110 263,110 262,110 262,110 261,110 259,111 259,111 258,111 258,111 258,111 257,110 257,110 257,110 256,110 256,110 256,110 255,109 255,109 254,109 254,109 254,109 253,109 253,108 253,108 253,108 253,107 252,107 252,107 252,107 250,106 250,106 250,106 247,107 247,108 247,109 247,109 247,110 247,110 247,111 247,114 247,114 246,115 245,117 245,117 246,119 246,119 246,120 246,120 246,121 246,121 246,121 244,121 241,122 241,122 241,122 240,122 238,122 238,122 236,123 235,123 235,123 234,124 234,125 231,125 230,126 228,126 227,126 226,126 225,126 224,125 223,125 221,125 221,125 220,124 219,124 217,124 216,124 216,124 215,124 214,124 214,123 213,123 212,124 212,124 209,124 207,125 206,125 205,125 205,125 202,125 201,127 201,127 200,128 200,129 200,130 199,131 199,132 198,133 198,133 199,133 199,134 200,135 200,136 201,136 201,137 201,137 200,138 196,142 196,142 196,142 201,147 201,148 201,148 204,147 211,147 212,146 213,146 220,146 222,146 222,146 222,146 222,146 222,147 223,147 223,148 223,149 223,149 225,150 225,151 225,151 226,151 228,153 229,153 230,154 232,155 232,156 236,157 238,157 238,157 240,159 240,160 240,160 240,163 240,163 239,164 238,166 238,166 238,168 238,168 238,168 239,168 239,168 239,168 240,169 240,169 240,169 241,169 241,169 242,169 242,169 242,169 243,168 244,168 245,167 245,167 246,167 247,167 247,166 247,166 249,166 252,165 253,164 255,164 256,164 257,163 258,163 259,163 260,163 260,163 263,163 264,163 266,163 267,163 268,163 269,164 269,164 269,164 269,164 270,164 272,166 273,167 274,167 274,168 275,168 276,168 276,168 277,169 277,169 278,170 278,170 278,170 279,171 279,171 280,171 280,171 280,171 280,171 281,172 282,172 285,173 285,173 286,174 286,174 287,176 287,176 287,177 287,177 287,177 291,177 291,176 292,176 292,176 293,176 295,174 296,173 297,172 299,170 303,172 303,172 304,173 307,177 308,177 309,177 309,177 309,176 309,176 310,179 310,179 310,180 311,180 311,180 311,180 311,180 311,181 311,181 312,181 312,182 312,182 312,182 312,182 318,186 318,186 320,186 320,186 320,186 320,186 322,188 323,188 323,188 323,189 324,190 326,193 327,193 327,194 328,195 328,195 329,198 329,199 330,201 330,201 331,201 333,201 333,201 333,203 333,203 333,203 335,204 335,204 335,204 336,204 336,204 336,204 336,204 336,204 337,204 337,204 338,204 339,204 339,204 339,204 340,204 340,205 341,205 341,205 341,205 342,205 342,205 343,205 343,205 342,206 343,206 343,206 343,206 343,206 343,207 343,207 343,207 343,207 344,207 344,207 344,207 345,207 346,207 346,207 346,207 346,207 346,207 347,207 349,207 350,208 352,208 353,208 353,208 354,209 354,209 354,209 354,209 355,209 355,209 355,208 355,208 355,208 355,208 355,207 356,207 357,205 357,205 358,204 359,204 359,204 359,203 359,203 363,203 363,203 364,203 364,204 365,205 365,206 366,206 370,210 371,211 372,211 372,211 374,212 374,212 375,212 378,213 383,214 384,215 385,215 385,216 386,216 386,216 387,217 387,217 387,217 388,218 389,219 390,219 391,220 391,220 392,221 393,222 393,222 393,222 394,223 395,224 395,224 395,224 394,225 394,226 394,226 394,226 395,227 396,227 397,228 397,228 397,228 398,229 398,229 399,229 399,230 399,230 399,230 400,230 400,229 400,229 401,229 402,228 403,227 403,227 404,227 405,226 405,226 405,226 406,225 407,224 408,223 409,222 410,221 410,221 410,220 411,220 411,220 412,219 412,219 412,219 412,219 412,218 412,218 412,216 412,216 412,215 412,215 412,213 411,212 412,211 412,211 412,211 412,210 412,210 412,210 412,209 413,209 412,207 412,207 412,206 417,203 416,201 425,198 450,195 450,195 451,195 451,196 451,196 451,196 451,196 451,196 453,197 453,197 453,197 453,197 453,197 454,198 454,198 454,198 454,198 453,198 452,198 450,198 450,199 451,201 452,202 452,202 452,203 452,204 451,204 451,205 451,205 451,205 451,205 452,205 452,205 451,206 451,206 452,206 452,206 452,207 451,207 448,207 448,207 448,207 448,207 448,208 450,208 450,208 450,208 450,209 450,209 450,209 456,208 457,208 457,210 457,210 457,210 456,210 455,210 455,210 454,210 454,210 453,211 453,211 452,211 451,211 451,211 452,212 453,214 454,216 454,217 454,217 454,217 451,221 450,222 450,222 450,222 450,222 449,222 449,223 449,223 449,223 447,225 446,226 446,227 446,227 446,227 447,227 447,227 447,227 447,227 447,227 446,228 446,228 444,231 444,231 444,231 444,231 444,233 444,233 444,233 443,234 443,234 443,235 443,235 442,236 442,237 442,237 442,237 442,237 442,237 442,237 442,237 442,237 443,237 443,237 443,237 443,237 443,237 443,238 443,238 443,238 443,238 443,238 443,239 443,239 443,240 443,240 445,241 445,242 447,243 448,243 448,244 449,244 450,245 450,245 450,244 452,244 456,242 456,242 457,242 457,242 460,244 460,244 464,245 464,245 465,245 468,245 468,244 472,244 472,244 474,244 475,244 476,245 477,245 480,248 481,249 482,249 482,249 484,250 484,250 486,250 488,250 488,250 487,253 486,255 486,256 486,257 486,257 486,259 487,260 487,260 487,260 490,260 491,260 493,261 495,261 496,261 500,263 500,263 500,264 500,264 499,269 497,274 497,280 496,285 493,292 491,297 487,298 483,300 479,303 478,304 470,309 461,311 458,318 452,320 454,325 451,327 450,328 449,327 449,328 446,326 441,325 438,327 435,328 433,329 431,331 429,332 428,332 429,329 430,328 431,327 430,326 429,325 425,325 423,325 421,325 421,325 418,325 414,324 413,323 411,322 407,320 405,319 396,316 394,316 393,316 392,315 388,314 384,313 384,313 383,312 382,312 381,311 380,310 379,310 378,310 374,305 374,304 373,301 372,301 371,300 370,298 370,297 369,297 365,296 364,295 363,295 362,293 361,293 360,291 359,291 356,288 356,288 355,287 354,285 354,284 352,280 351,279 351,279 350,278 348,277 347,277 344,277 344,277 343,277 336,275 335,275 326,273 325,272 322,271 317,268 317,268 314,269 305,271 305,271 301,275 301,275 301,276 300,277 299,278 298,280 297,281 296,282 296,283 295,283 295,284 295,284 295,284 297,287 297,288 293,288 289,287 285,287 270,279 269,277 270,275 264,275 260,277 254,275 249,274 239,272 233,270 227,270 220,267 214,263 212,261 213,260 213,256 213,255 214,254 214,253 216,251 217,248 217,248 219,246 221,245 221,244 217,243 216,242 213,242 210,241 208,242 208,242 207,241 206,241 204,240 202,240 199,240 195,240 192,240 189,240 187,241 186,240 184,238 181,237 180,237 177,237 176,238 173,239 169,240 168,240 164,240 163,239 160,240 159,239 157,238 155,239 150,242 149,242 147,242 147,241 147,241 146,241 146,241 145,241 145,240 145,240 146,239 146,239 146,238 147,238 147,237 147,237 148,237 148,236 148,236 149,236 149,235 150,234 150,234 151,234 151,234 151,234 152,234 152,234 152,234 153,234 153,234 153,234 154,233 154,233 155,232 155,232 155,231 156,231 155,230 156,230 156,230 159,228 159,228 158,227 155,225 150,221 146,224 145,224 144,224 144,224 144,225 144,225 143,225 143,225 143,225 142,226 141,226 140,226 138,227 137,228 136,229 136,230 136,230 135,230 134,231 134,233 133,234 133,234 132,235 131,236 130,236 130,237 130,238 130,238 130,239 130,239 130,240 130,240 130,240 130,240 131,241 131,241 131,241 132,241 133,241 133,241 133,242 134,242 134,242 135,242 136,242 137,243 137,243 137,244 139,245 139,245 139,245 140,245 140,245 140,245 140,246 141,246 141,246 141,246 141,246 142,246 142,247 142,247 143,247 143,247 143,248 144,248 144,248 144,249 145,248 145,249 146,249 146,249 146,249 146,250 150,251 152,252 153,253 153,253 153,253 154,254 153,254 154,255 154,255 154,255 154,255 154,255 154,256 154,256 154,256 154,256 154,256 154,256 154,257 154,257 154,257 154,257 154,258 155,258 155,258 155,258 155,259 156,259 156,259 156,259 156,260 158,261 159,262 159,262 159,262 162,265 163,266 165,265 169,269 172,272 173,273 176,275 172,280 164,286 163,286 161,286 162,287 161,287 160,288 158,289 153,295 150,298 147,303 147,305 133,317 132,318 131,319 129,320 127,321 126,322 124,325 122,329 121,330 120,330 119,330 118,330 118,331 118,331 117,330 118,331 117,331 114,333 114,333 112,334 110,335 109,336 107,337 107,337 105,337 104,338 101,337 100,337 99,337 99,337 91,336 90,335 89,336 88,336 87,338 86,338 86,338 84,339 83,339 81,339 79,340 78,341 76,341 75,341 74,342 72,343 72,343 70,344 67,346 65,347 64,347 63,347 63,347 62,347 61,347 60,347 59,346 58,346 57,346 51,342 44,341 39,342 39,342 35,342 32,342 31,342 28,343 26,343 26,343 25,342 25,342 24,341 24,341 23,339 23,339 23,338 20,337 19,337 19,336 17,336 16,335 16,335 14,334 13,333 18,328 16,327 16,327 19,325 20,324 20,324 19,324 18,323 16,322 15,321 14,320 14,320 14,320 14,320 19,315 20,315 22,313 25,311 25,311 25,311 24,310 24,310 23,309 23,308 22,308 22,308 21,307 19,307 19,307 19,306 17,306 17,306 16,305 14,304 14,304 12,304 10,303 10,303 11,303 11,302 11,302 11,302 11,302 12,302 13,302 13,302 13,302 18,301 19,300 19,300 19,300 19,297 18,295 18,295 15,295 15,295 15,294 15,294 14,294 14,294 14,294 13,293 13,293 13,293 13,293 13,293 13,293 12,293 12,292 12,291 12,291 11,291 11,291 11,290 11,290 11,290 11,290 10,290 10,290 10,289 11,288 11,287 11,286 10,286 9,286 9,286 9,285 7,284 6,284 6,284 6,284 6,283 6,283 6,283 5,283 5,283 5,283 5,282 5,281 5,281 5,281 5,280 6,280 6,280 6,279 6,279 6,279 6,278 6,278 5,277 4,275 4,275 4,275 3,275 2,273 2,273 1,273 1,272 0,272 4,271 5,270 6,270 8,269 8,269 9,269 10,269 12,269 12,269 12,269 13,270 13,270 14,270 16,268 17,268 17,268 19,267 19,267 19,267 20,267 21,266 22,266 22,266 22,266 22,266 22,266 22,266 21,263 21,262 21,261 21,261 21,261 21,261 22,260 22,260 22,260 23,259 23,259 23,259 23,259 24,259 24,259 24,259 24,259 24,259 25,259 25,259 25,259 24,257 24,257 24,257 24,256 25,256 26,256 26,255 26,255 26,255 26,255 26,255 26,255 26,254 27,253 27,253 26,253 26,252 26,252 26,252 25,252 25,252 25,251 25,251 25,251 24,251 21,251 21,251 21,251 20,251 20,251 20,251 20,250 20,249 20,249 20,249 19,249 19,249 17,249 14,249 14,249 14,249 14,248 14,248 13,246 13,246 13,245 12,244 11,242 11,242 10,242 10,242 10,242 9,241 9,241 9,241 8,241 7,242 7,242 6,242 6,242 5,242 5,241 4,241 6,240 7,240 8,240 8,240 6,238 6,238 7,237 7,237 7,237 6,236 6,235 6,235 6,235 6,234 6,234 6,234 6,233 5,233 5,233 4,233 4,233 4,233 4,232 3,232 2,230 2,230 3,230 4,230 4,230 6,230 6,230 6,229 6,229 6,229 7,228 7,228 8,227 9,227 9,227 9,227 9,227 9,226 9,226 9,226 9,226 10,226 11,225 11,225 11,225 12,225 12,225 12,225 12,225 14,224 16,224 16,224 14,217 13,213 10,204 9,200 6,190 5,188 5,188 6,186 6,186 6,185" id="7004" class="canton" fill="steelblue" stroke-width="1" stroke="white" geotype="canton" geoname="Héricourt-2" code_insee="7004" code_departement="70" nom_departement="Haute-Saône" code_region="27" nom_region="Bourgogne-Franche-Comté"/></svg>