<?xml version="1.0" encoding="utf-8"?>
<svg version="1.1" id="svgmap" xmlns="http://www.w3.org/2000/svg" xmlns:xlink="http://www.w3.org/1999/xlink" x="0px" y="0px" width="100%" height="100%" viewBox="0 0 299 500">
<polygon points="43,60 65,44 97,19 119,2 122,0 122,0 122,1 123,1 123,2 123,3 123,4 123,4 123,4 122,5 121,9 120,14 119,18 119,18 119,21 118,22 118,23 118,23 118,24 118,24 118,25 118,29 119,31 119,32 119,33 120,34 120,35 121,35 123,37 128,41 131,44 131,44 133,46 135,48 136,49 140,53 142,55 142,55 144,57 145,58 150,63 150,64 151,65 152,66 152,66 152,67 152,67 153,67 153,67 154,67 154,68 154,68 155,68 155,68 155,68 156,68 162,71 174,76 175,76 177,72 178,70 178,69 180,66 184,60 184,59 190,49 193,44 193,43 193,42 192,42 186,40 185,40 186,39 186,39 186,37 187,34 188,34 193,34 194,34 196,35 197,35 198,36 198,36 200,40 200,40 202,41 202,41 204,41 204,43 204,43 204,46 204,48 205,53 205,55 206,59 206,60 206,60 208,69 208,69 209,71 210,77 212,83 219,101 220,102 220,103 221,105 222,107 223,110 226,116 228,121 229,124 230,126 230,128 231,130 231,133 231,134 231,135 231,137 231,140 230,141 230,144 229,145 228,148 227,149 226,152 225,156 224,158 223,159 222,161 220,164 219,164 218,165 217,165 217,166 218,166 219,166 219,167 220,167 220,167 220,168 220,169 220,169 220,169 220,170 221,170 221,171 224,173 226,175 229,177 235,182 243,187 244,189 245,189 247,190 248,190 249,190 249,190 251,190 252,190 253,190 254,191 254,191 255,192 255,192 255,193 255,194 255,194 255,195 254,195 254,196 254,197 256,200 258,203 263,207 266,210 273,216 277,220 283,223 299,234 292,240 282,245 265,254 276,263 276,263 276,263 276,264 275,264 275,264 275,265 275,265 275,266 275,267 274,268 274,269 273,274 273,276 273,278 272,280 271,285 271,287 271,289 270,295 270,297 270,297 270,298 269,299 269,300 269,301 268,302 265,306 264,307 262,309 261,309 261,310 260,310 261,312 266,321 266,322 266,323 267,324 267,324 267,328 269,331 273,336 275,339 275,339 274,340 274,340 273,342 272,344 269,349 266,355 264,356 261,362 260,363 259,364 259,365 258,367 258,367 253,375 252,377 251,378 248,382 248,382 247,383 247,384 247,384 246,384 246,384 246,385 246,385 244,387 239,393 239,394 239,394 237,399 235,403 232,407 232,408 231,409 231,410 229,413 228,416 227,417 226,419 223,425 222,425 220,429 218,432 215,437 214,439 214,440 209,448 207,450 207,451 207,451 207,451 199,464 187,483 184,488 183,490 183,490 182,491 178,497 177,500 171,499 148,493 142,491 140,491 138,490 130,488 124,486 118,484 112,481 107,479 101,476 89,470 85,469 81,466 77,464 73,462 69,459 65,456 54,448 53,447 49,443 45,439 43,436 40,433 38,430 37,428 36,426 34,423 33,420 32,418 32,415 32,414 31,414 31,412 31,409 31,406 31,404 31,401 31,399 31,397 31,397 31,395 32,389 33,383 34,379 35,372 37,366 38,360 40,356 41,354 50,343 64,331 77,323 107,308 95,305 94,305 92,304 91,303 89,303 88,303 87,302 87,301 84,298 83,296 82,295 81,294 80,293 76,286 72,282 70,280 67,276 67,276 66,274 60,267 59,265 55,260 54,258 53,257 52,256 49,252 48,251 48,251 48,251 47,250 46,248 45,247 44,246 44,245 43,243 42,242 41,241 41,240 39,234 37,231 36,230 34,225 33,223 31,220 30,218 28,216 27,214 25,211 22,208 18,202 14,197 7,189 1,181 0,180 3,179 4,178 6,177 15,174 25,170 31,168 31,167 32,165 32,164 36,156 36,156 41,145 45,136 46,135 47,133 49,128 52,122 54,122 59,124 61,124 65,126 67,126 66,124 65,121 64,117 63,114 63,114 61,109 60,107 59,105 54,91 54,90 53,88 53,87 52,83 52,83 51,82 50,80 50,78 49,75 45,66 43,60" id="7106" class="canton" fill="steelblue" stroke-width="1" stroke="white" geotype="canton" geoname="Chalon-sur-Saône-2" code_insee="7106" code_departement="71" nom_departement="Saône-et-Loire" code_region="27" nom_region="Bourgogne-Franche-Comté"/></svg>