<?xml version="1.0" encoding="utf-8"?>
<svg version="1.1" id="svgmap" xmlns="http://www.w3.org/2000/svg" xmlns:xlink="http://www.w3.org/1999/xlink" x="0px" y="0px" width="100%" height="100%" viewBox="0 0 500 407">
<polygon points="112,25 112,26 116,28 118,30 122,32 126,35 130,38 134,40 135,41 142,45 145,48 149,50 156,55 158,56 162,59 164,60 165,60 167,61 169,62 170,63 171,63 171,63 171,63 171,64 171,64 173,64 175,65 176,66 176,66 177,66 177,66 179,67 180,68 181,68 181,68 182,68 183,69 186,69 187,70 188,70 188,70 189,70 189,70 190,71 191,71 192,72 193,72 193,72 194,72 196,73 197,73 199,74 201,75 201,75 202,76 203,77 204,77 204,77 204,77 206,77 207,78 207,78 207,78 209,79 211,79 213,80 216,81 218,81 221,82 225,83 226,83 230,85 233,85 235,86 234,80 234,79 236,81 236,81 238,82 238,82 239,83 239,83 240,84 239,84 239,84 240,85 242,87 243,88 243,88 244,88 244,89 245,89 246,89 247,89 247,89 248,89 248,90 250,90 251,90 252,91 253,91 254,91 255,92 256,92 257,92 258,93 260,93 261,93 263,94 264,94 266,95 268,95 270,96 271,96 272,96 272,96 272,97 273,97 273,97 274,97 276,97 277,97 280,97 280,98 281,98 282,98 283,98 283,98 284,98 284,97 285,98 288,98 289,99 291,99 293,99 295,99 296,99 296,99 297,99 299,100 303,101 304,101 304,101 305,101 305,101 307,101 308,102 309,102 309,102 309,102 310,102 312,103 312,103 312,103 313,103 315,103 319,104 322,105 322,105 323,105 325,106 325,106 327,106 329,107 329,107 331,107 334,108 335,108 335,108 336,108 337,108 337,108 339,109 340,109 340,109 342,110 344,110 346,110 349,111 352,112 353,112 353,112 354,113 356,113 357,113 357,113 357,113 357,114 356,114 355,115 355,115 354,115 353,115 353,116 353,116 352,116 352,117 351,117 351,118 350,118 350,119 350,119 349,120 349,120 349,121 349,121 349,121 348,122 349,122 349,122 349,122 349,122 349,123 349,123 350,123 351,123 352,123 353,124 353,124 353,124 354,124 354,124 354,124 354,124 354,124 354,124 355,124 355,124 355,124 355,124 355,124 355,124 355,124 355,124 355,124 355,123 355,123 355,123 355,123 355,122 355,122 355,122 356,122 356,122 356,122 356,122 356,121 356,121 357,121 357,120 356,120 357,120 357,120 357,120 357,120 357,120 358,120 358,120 358,120 358,120 358,120 359,120 359,120 360,120 360,120 360,120 360,120 361,121 362,121 362,121 363,121 363,122 363,122 364,122 365,122 365,123 366,123 366,123 366,123 367,123 367,123 368,123 369,124 369,124 371,123 371,122 373,121 374,120 375,120 377,120 377,120 377,121 378,121 378,121 378,121 381,122 384,118 385,118 385,118 385,118 386,115 386,115 386,115 387,114 388,113 389,111 389,109 390,107 393,107 395,106 396,105 397,103 399,103 400,102 400,102 402,102 404,101 406,101 409,101 410,101 412,101 415,102 417,103 420,104 422,105 424,107 425,108 425,109 425,110 426,113 427,116 427,117 427,118 428,119 428,119 429,120 429,120 430,122 432,123 433,124 434,124 437,125 439,127 440,128 441,129 442,131 443,132 443,133 443,135 443,137 441,139 440,140 439,142 437,144 459,127 459,127 460,130 463,136 463,138 464,139 464,140 465,141 465,141 465,144 466,144 466,146 466,146 470,155 470,157 471,158 472,161 472,161 472,163 473,165 474,167 475,169 473,168 471,168 469,167 466,166 465,166 463,170 462,173 461,174 461,175 458,181 455,187 455,188 452,193 452,194 452,194 451,195 447,197 441,199 436,201 434,202 433,202 432,203 432,204 436,209 441,214 443,217 446,221 447,223 449,225 450,226 451,227 451,229 453,231 453,232 455,235 455,236 456,238 458,241 458,242 459,243 459,243 460,245 460,245 460,246 461,246 462,248 462,248 462,249 463,249 463,249 465,251 465,252 466,253 467,254 469,258 470,259 474,263 474,264 475,265 477,267 478,268 480,271 483,275 484,276 484,277 484,277 486,279 487,280 488,281 488,281 489,282 490,282 490,282 492,283 492,283 500,285 481,294 473,299 464,307 458,314 457,315 448,312 448,311 447,311 447,311 447,311 447,311 446,311 445,310 445,310 445,309 443,308 443,307 442,306 442,306 441,303 440,302 440,300 439,301 439,302 438,302 438,303 438,303 438,303 437,304 437,304 437,304 437,305 436,305 436,305 436,305 436,306 436,306 435,306 435,306 435,307 434,307 433,308 433,308 432,309 432,309 431,310 430,310 429,310 428,311 428,310 428,310 427,310 427,311 426,311 425,312 424,312 423,312 423,313 423,313 422,313 422,313 422,313 421,313 421,313 419,313 418,313 418,314 417,314 416,314 415,314 412,314 411,314 410,314 409,313 408,313 407,313 406,313 404,313 403,312 403,312 402,312 401,312 400,311 399,311 399,311 397,310 395,309 393,307 392,307 392,307 392,307 391,306 391,306 391,306 390,306 389,306 389,305 389,305 389,304 388,304 387,304 387,304 385,303 384,303 383,302 381,301 381,300 380,300 380,300 376,300 374,300 373,300 370,300 369,300 368,300 364,299 364,299 361,298 360,298 359,298 358,298 357,298 355,297 354,297 354,297 350,296 347,296 346,296 345,295 344,295 343,295 343,295 342,294 342,294 341,294 341,294 341,294 341,295 341,295 341,295 340,295 340,295 340,295 340,295 340,295 339,295 339,295 337,294 335,294 333,294 333,294 332,294 332,294 328,293 324,292 324,292 323,292 322,292 321,292 320,292 319,291 317,291 313,290 311,290 309,289 307,289 303,288 298,288 296,287 295,287 294,287 292,287 290,286 288,286 286,286 282,285 282,285 281,285 281,285 280,285 280,285 280,285 280,285 280,285 280,285 280,285 280,285 279,285 279,285 275,284 273,284 273,284 272,284 272,284 271,284 271,284 270,284 270,284 270,298 270,304 270,307 266,308 261,308 261,308 260,308 258,308 258,308 257,308 257,308 257,308 254,307 252,306 249,306 247,305 247,305 244,306 242,307 242,307 241,307 240,307 240,307 239,308 238,308 238,308 237,308 237,308 236,309 235,309 235,309 234,309 234,309 234,309 233,310 233,310 232,310 232,310 232,311 230,311 230,311 230,312 229,312 229,312 227,313 227,313 227,313 225,314 225,314 222,315 222,316 219,316 218,317 215,318 215,318 214,319 211,321 211,322 210,322 210,323 208,324 207,324 205,326 202,328 201,329 201,329 199,330 197,331 195,333 194,334 192,335 192,335 192,335 191,335 191,334 190,333 190,333 189,333 189,333 187,334 186,335 184,337 180,339 179,340 180,341 180,341 181,341 183,342 180,344 179,345 177,346 174,348 172,350 170,351 171,352 173,353 174,353 175,354 175,355 175,355 177,356 178,358 179,358 179,358 180,359 180,359 180,359 181,361 181,361 183,362 182,362 176,365 171,367 171,367 171,367 172,368 172,368 172,369 172,369 173,370 173,371 173,371 173,371 173,371 171,372 171,372 170,372 168,371 167,369 166,369 166,368 166,368 166,368 166,368 165,367 165,366 164,366 164,366 164,365 163,365 162,364 161,364 161,364 161,363 159,363 159,363 158,363 157,363 157,363 155,362 154,361 153,361 152,360 151,360 151,360 149,359 147,359 146,358 146,358 145,358 143,357 143,357 142,357 141,357 140,356 139,356 138,356 138,355 137,355 136,354 135,354 134,353 132,352 132,352 133,352 136,350 134,348 133,348 132,347 132,347 130,346 129,345 129,345 128,345 126,346 126,346 125,346 121,345 121,344 120,344 119,343 119,343 118,341 117,341 116,340 113,338 113,338 109,340 109,339 107,340 107,341 104,343 103,344 103,345 102,346 102,346 102,346 101,347 101,347 101,347 101,347 94,350 90,351 86,352 85,352 84,352 84,352 83,352 82,352 81,352 80,353 79,353 78,353 77,353 77,353 76,353 75,353 74,354 73,354 72,355 73,355 74,357 76,359 77,360 78,362 78,362 79,363 79,363 78,364 78,364 78,364 78,364 78,364 78,365 79,365 80,366 79,366 80,366 80,366 80,367 81,367 82,367 83,367 84,368 85,368 86,368 87,369 88,370 88,370 89,370 88,370 88,370 87,371 87,372 86,372 83,373 83,374 81,375 80,375 80,375 81,376 81,376 82,377 83,377 84,378 85,378 83,384 81,388 78,391 74,395 72,397 68,399 64,401 62,403 61,404 57,406 51,407 46,406 41,405 32,400 32,397 32,390 31,388 30,385 28,381 27,379 25,376 24,375 20,373 19,372 18,372 18,371 16,370 15,369 15,368 14,368 14,367 14,367 13,367 12,366 12,365 12,364 11,363 11,362 11,361 10,360 10,360 8,357 6,355 10,353 13,353 12,349 12,348 12,347 12,345 11,344 10,343 7,341 5,339 4,338 2,336 0,333 0,332 0,332 0,331 1,331 3,329 3,329 4,328 5,327 6,326 8,325 9,324 9,324 10,323 11,322 12,322 12,321 13,320 14,319 17,315 20,311 25,313 27,311 33,306 36,304 36,304 37,304 38,305 38,305 39,305 39,305 40,305 40,305 41,306 43,306 44,306 46,307 48,308 51,309 51,309 52,309 53,309 53,309 54,310 54,309 55,310 57,310 58,311 59,311 60,309 62,304 64,302 60,301 61,300 62,296 61,296 59,295 59,295 59,295 59,294 62,288 61,288 63,287 66,285 68,284 72,282 72,281 72,281 72,281 72,281 71,281 71,281 71,281 70,281 70,281 70,281 70,281 70,280 70,280 70,280 70,279 70,279 69,279 69,279 69,279 68,279 68,279 68,279 68,279 68,279 68,278 68,278 68,278 68,278 68,277 67,277 67,277 67,277 67,277 67,276 67,276 68,276 68,275 68,275 69,275 69,275 70,275 71,274 70,273 69,273 68,272 68,272 67,272 67,271 66,271 66,271 66,270 66,270 66,270 66,269 66,269 65,269 65,269 65,269 64,269 64,269 64,269 64,269 64,268 64,268 63,268 63,268 62,268 62,268 61,269 61,269 61,269 60,269 60,268 60,268 59,268 58,268 58,268 58,268 57,268 57,268 57,268 56,268 56,269 56,269 55,269 55,269 54,269 54,269 53,270 53,270 53,270 53,270 53,269 52,269 52,269 51,269 51,269 50,269 50,269 49,268 48,268 48,268 47,268 47,268 46,268 45,268 44,268 44,267 43,267 42,266 40,266 39,265 39,265 38,265 38,264 35,263 35,263 33,261 33,260 35,255 37,252 37,251 34,250 34,250 34,249 34,249 34,248 34,248 34,248 34,248 33,247 33,246 33,246 33,246 33,246 33,245 33,245 33,244 32,243 32,243 32,242 31,241 30,240 29,239 29,238 28,237 28,236 28,236 27,235 26,233 26,233 34,228 45,220 57,211 69,203 94,185 103,178 104,177 105,177 109,172 111,170 112,168 114,164 116,161 117,160 120,155 121,154 123,152 123,152 124,149 127,146 129,144 131,142 131,142 131,142 132,142 132,142 132,142 133,142 133,141 133,141 133,141 134,140 132,140 130,140 128,139 118,137 108,135 107,135 107,134 107,134 108,133 106,132 102,131 98,130 96,130 94,129 94,129 94,129 93,129 93,129 91,129 90,128 86,128 86,127 84,127 82,127 78,126 75,125 75,125 70,124 67,123 67,123 67,121 67,118 67,116 67,115 67,114 71,105 74,94 76,84 78,79 78,78 78,73 81,64 82,60 83,56 84,53 83,51 83,50 82,47 81,46 80,45 79,42 76,38 74,34 73,30 73,28 73,26 73,23 75,15 75,13 73,10 73,8 73,6 77,0 78,0 82,3 87,6 94,11 106,21 108,23 112,25" id="7107" class="canton" fill="steelblue" stroke-width="1" stroke="white" geotype="canton" geoname="Chalon-sur-Saône-3" code_insee="7107" code_departement="71" nom_departement="Saône-et-Loire" code_region="27" nom_region="Bourgogne-Franche-Comté"/></svg>