<?xml version="1.0" encoding="utf-8"?>
<svg version="1.1" id="svgmap" xmlns="http://www.w3.org/2000/svg" xmlns:xlink="http://www.w3.org/1999/xlink" x="0px" y="0px" width="100%" height="100%" viewBox="0 0 500 334">
<polygon points="49,277 49,277 49,277 50,278 50,278 50,278 51,278 52,280 53,280 53,281 53,281 54,281 54,281 55,282 56,282 56,282 57,282 58,282 59,283 60,283 64,284 64,284 65,284 66,284 67,284 68,284 69,284 69,284 70,284 71,284 71,284 72,284 72,284 72,283 74,283 74,283 75,282 75,282 75,282 76,282 76,282 76,281 77,281 77,280 77,280 78,279 78,279 78,278 78,278 78,277 79,276 79,274 79,273 79,273 79,272 79,271 79,270 79,270 80,269 80,268 80,267 80,266 79,266 79,265 80,265 80,265 80,265 80,264 81,264 81,264 81,264 82,263 83,264 83,264 84,265 84,265 84,265 84,266 84,266 84,267 84,267 85,267 85,267 87,267 87,268 87,268 87,269 87,269 88,269 89,269 90,269 91,270 92,270 92,270 92,270 93,269 93,269 93,269 94,268 94,268 94,268 94,268 94,268 94,268 95,267 96,266 96,266 96,265 97,265 97,265 98,263 99,262 99,262 100,262 101,260 101,260 102,259 103,259 104,258 104,257 106,255 106,254 106,254 109,252 110,250 111,249 113,247 114,247 115,246 115,245 116,244 117,243 117,243 118,242 118,241 112,238 112,238 112,238 112,237 112,237 112,237 112,237 111,237 111,236 111,236 111,236 111,236 111,235 110,235 109,235 108,234 108,234 108,234 108,233 107,233 107,233 107,232 107,232 107,232 106,232 106,231 106,231 105,231 105,231 105,231 104,230 105,229 106,226 109,218 109,217 109,217 108,216 108,215 108,215 108,215 107,214 107,214 107,214 106,213 106,213 105,213 105,213 105,213 105,213 105,213 105,212 105,210 105,210 105,209 105,209 105,209 105,209 105,208 105,207 105,207 106,206 106,206 107,206 107,206 107,206 108,204 108,204 108,204 108,203 108,203 108,202 108,202 108,202 107,202 107,202 107,201 108,201 108,200 108,200 108,200 109,199 109,199 109,199 110,198 110,198 111,197 112,198 112,198 112,198 112,198 113,198 114,199 115,199 115,200 118,201 118,201 118,200 118,199 119,197 120,197 120,197 122,196 123,196 123,196 123,195 124,195 125,196 125,196 125,196 126,196 126,196 127,196 128,196 130,197 131,196 131,196 131,196 132,196 132,196 132,196 132,196 133,196 133,196 133,196 133,195 134,195 134,195 134,195 134,195 134,194 134,194 135,194 135,194 135,193 135,193 135,193 135,193 135,192 135,192 134,192 134,192 134,192 134,192 134,192 134,191 134,191 134,191 134,190 134,190 134,190 134,189 134,189 134,188 135,187 135,187 134,187 134,187 134,187 134,186 135,186 136,186 136,186 137,186 137,186 137,186 137,185 137,185 137,185 137,185 137,184 137,184 137,183 137,183 137,183 137,183 136,183 136,182 135,182 135,181 134,182 133,182 133,183 132,183 132,183 131,183 130,184 129,184 128,184 127,184 125,184 124,184 124,184 123,184 122,184 121,184 121,184 121,184 120,184 118,183 117,183 116,183 116,182 115,182 113,181 113,181 113,181 114,181 114,180 114,180 114,180 114,180 115,180 115,180 115,180 116,180 116,179 116,179 116,178 117,178 117,178 117,178 117,178 117,178 118,177 118,177 118,177 118,177 118,177 118,177 118,177 118,177 118,177 118,177 118,177 119,177 119,176 119,176 119,176 119,176 119,176 119,175 119,175 119,175 119,175 119,174 119,173 118,173 118,172 117,172 117,172 117,172 117,172 117,172 118,171 118,171 118,171 119,171 119,171 119,171 120,171 120,171 120,171 121,170 121,170 122,170 122,169 123,169 123,169 123,169 123,169 124,169 125,169 125,169 125,169 125,169 126,168 126,168 126,168 126,168 127,168 127,169 127,169 127,169 127,168 127,168 127,168 127,168 127,168 128,168 128,168 128,168 128,168 128,167 128,168 128,167 128,167 128,167 128,166 127,166 127,165 127,165 127,165 127,165 126,163 126,163 127,163 127,163 126,162 126,162 126,162 126,161 126,161 126,161 126,160 126,160 126,160 126,160 125,159 125,159 125,158 125,158 125,157 124,158 124,158 124,157 123,157 124,156 124,156 124,156 123,155 123,155 121,155 121,155 121,155 120,155 119,155 119,155 119,155 119,155 119,154 119,154 120,154 120,154 120,154 120,153 120,153 120,152 120,151 120,151 120,151 120,150 121,150 121,150 121,149 121,149 121,149 123,148 124,148 124,148 124,147 125,147 125,146 125,146 125,146 125,145 125,145 125,144 125,144 125,141 125,141 125,140 125,140 126,140 126,140 126,139 126,139 126,139 126,139 125,138 125,138 125,137 125,137 126,137 126,137 125,137 125,136 124,135 124,135 124,135 123,135 123,134 123,133 123,133 123,133 123,133 123,133 123,133 123,132 123,132 122,131 122,131 122,131 122,131 122,130 121,130 121,130 121,129 120,129 120,128 120,128 120,128 121,128 122,127 122,127 123,127 125,126 125,126 126,126 127,126 127,126 127,126 128,126 128,126 128,126 129,126 129,126 130,126 130,126 130,126 131,126 131,126 131,126 132,126 132,126 132,126 132,126 132,126 133,126 133,126 134,126 134,126 134,126 135,126 135,126 135,126 135,126 136,126 136,126 136,126 136,126 137,126 137,126 137,126 137,126 138,126 138,126 138,126 138,126 138,126 138,126 139,126 139,126 139,126 140,126 140,125 140,125 140,126 141,126 141,126 141,126 141,125 142,125 142,125 142,125 142,125 142,124 142,124 142,123 142,123 141,123 141,123 141,123 141,123 141,123 140,123 140,123 140,122 139,122 139,122 139,122 139,122 139,122 139,122 139,122 139,121 139,121 139,121 139,121 138,121 138,121 138,121 138,120 138,120 138,120 138,120 138,120 138,120 137,119 137,119 137,119 137,119 137,119 137,119 137,118 136,118 136,118 135,118 134,118 133,118 133,118 133,117 133,117 134,117 134,116 134,116 134,116 135,115 135,115 136,115 136,114 137,114 137,114 138,114 138,114 138,114 138,114 139,114 139,114 139,113 139,113 139,113 138,113 138,112 137,111 136,110 136,109 137,108 138,108 138,108 138,108 137,104 138,101 138,101 138,101 138,101 139,100 139,100 138,99 139,99 141,99 141,99 142,98 142,98 143,98 143,98 145,95 145,94 145,94 145,94 145,94 145,93 146,92 146,92 146,92 146,91 147,91 147,91 147,91 148,90 148,90 148,90 148,90 149,89 149,89 149,89 150,88 150,88 151,87 152,87 154,86 155,86 155,86 156,86 158,85 159,85 159,85 160,85 164,85 165,85 167,85 167,83 167,83 168,83 168,83 167,82 166,81 165,80 165,80 164,79 164,78 164,78 164,72 162,72 162,71 162,71 162,69 162,69 162,69 162,68 162,68 162,66 162,66 162,65 162,65 163,64 163,64 163,62 164,60 164,59 164,59 164,58 163,58 163,58 162,58 161,58 161,58 160,57 160,57 160,57 159,57 159,57 159,57 158,57 158,57 158,57 158,57 158,57 158,56 159,56 159,56 159,55 157,53 160,51 160,50 161,50 160,48 160,48 161,48 163,48 164,48 165,48 167,47 169,47 169,47 170,47 171,47 172,46 172,46 172,46 172,46 173,46 173,46 173,46 173,46 174,46 174,46 175,46 175,46 176,46 176,46 176,46 176,46 176,46 183,45 183,45 183,45 185,45 185,45 184,44 186,44 186,44 186,44 186,44 187,44 187,44 187,44 188,44 188,44 189,44 189,44 190,44 190,43 190,43 191,43 191,43 192,43 192,43 192,43 192,43 193,43 193,43 194,43 195,44 195,44 196,44 196,43 197,43 198,43 202,43 202,43 204,44 204,44 205,44 209,45 209,45 209,44 210,43 210,42 211,42 211,41 212,41 212,40 210,39 210,37 209,35 209,35 209,35 206,34 206,34 205,32 205,32 206,32 205,31 204,29 204,29 203,29 202,29 201,29 200,29 199,29 199,29 195,29 195,29 193,29 193,29 193,29 193,28 193,28 193,28 193,28 193,28 192,28 192,28 192,28 192,28 191,28 190,25 190,25 190,25 190,24 190,24 190,24 190,24 189,23 189,23 189,23 189,23 189,23 189,22 189,22 185,19 184,18 184,18 185,17 185,17 185,17 186,17 186,16 186,16 186,16 187,16 187,16 187,15 188,15 188,15 190,14 190,14 193,13 193,13 193,13 193,13 194,13 194,12 196,11 196,11 197,11 197,11 199,10 199,10 199,9 199,9 200,9 200,8 200,8 199,7 200,7 201,7 202,7 202,7 202,7 202,7 203,7 204,7 204,6 205,6 205,6 206,6 206,6 207,5 207,5 207,5 208,4 208,4 209,3 209,3 209,3 209,3 209,3 209,3 210,2 210,2 212,2 212,2 213,3 214,3 214,3 216,3 216,3 218,4 219,4 219,4 220,3 221,3 221,3 222,3 222,3 223,3 224,2 225,2 226,2 228,1 229,1 232,0 232,0 233,1 233,1 233,2 233,2 232,2 232,2 232,3 232,4 232,4 232,5 231,5 231,6 230,6 230,8 229,9 229,9 229,9 229,10 228,10 228,11 228,11 228,11 228,12 228,12 228,13 227,14 226,14 226,14 225,14 225,15 224,15 224,15 223,15 223,16 222,16 222,16 222,16 221,17 221,17 221,18 221,18 220,18 220,18 219,18 219,18 219,18 218,19 218,19 218,19 218,20 218,20 218,20 217,20 217,20 216,20 216,20 217,21 217,21 218,22 219,22 219,22 220,22 221,23 222,23 223,24 224,24 224,25 226,25 227,26 228,26 229,26 229,26 230,26 231,27 231,27 232,27 232,27 234,27 234,27 234,27 235,27 235,27 236,27 237,27 238,27 240,27 240,27 242,28 242,28 243,28 244,28 244,28 244,29 245,29 247,29 248,29 249,29 250,29 251,29 251,28 252,28 252,28 252,28 253,28 254,28 255,28 256,28 256,28 256,27 257,27 257,27 258,27 259,27 260,26 260,26 261,26 261,26 261,26 262,26 263,26 264,26 264,26 265,25 265,25 266,25 267,24 269,24 271,24 271,23 271,23 271,23 271,23 271,23 271,23 272,23 272,23 273,24 273,24 275,24 275,24 276,24 276,24 278,23 279,23 280,23 280,23 280,23 281,22 281,22 281,22 282,22 282,22 283,22 283,22 283,22 285,22 285,23 285,23 286,23 286,23 286,24 287,24 287,24 287,23 287,24 288,24 288,24 288,24 289,24 289,25 290,25 289,25 290,25 290,25 290,26 290,26 290,26 290,26 290,26 290,26 290,27 290,27 289,27 289,27 290,28 291,28 291,28 292,28 292,28 292,28 293,28 293,28 294,28 294,28 294,28 295,28 295,28 294,28 294,27 294,27 294,27 294,27 294,26 294,25 294,25 294,25 294,25 294,25 294,25 294,24 293,24 293,24 292,23 292,23 292,23 292,23 292,23 292,23 292,23 293,22 293,22 293,22 293,22 294,22 294,21 294,21 295,21 295,20 296,20 296,20 296,20 297,20 297,20 298,20 298,21 298,21 299,21 299,22 299,22 299,22 300,22 300,22 300,22 301,22 301,22 301,22 301,21 301,21 301,21 302,21 302,21 303,21 303,21 303,20 303,20 303,20 303,20 303,19 303,19 303,19 304,19 304,19 305,19 305,19 305,19 305,19 305,19 306,19 306,19 308,20 309,20 310,21 311,22 313,22 314,22 314,23 315,23 315,23 316,23 316,23 317,24 317,24 318,24 318,24 319,25 320,25 321,25 324,26 324,26 325,26 325,26 326,26 326,26 329,26 329,25 330,25 330,25 330,25 331,24 332,25 332,25 332,26 332,26 332,26 333,25 333,25 333,25 334,25 334,25 335,25 335,25 335,24 335,24 335,24 335,24 336,24 336,24 337,24 337,24 337,24 338,23 338,23 338,23 340,23 340,23 340,24 340,24 340,24 341,24 341,24 342,24 342,24 342,26 342,27 342,27 343,27 343,27 344,27 344,27 344,27 344,27 339,32 339,32 339,32 339,33 339,33 340,34 340,34 340,34 340,35 340,36 340,36 340,37 340,37 340,38 340,39 340,39 340,39 340,39 340,39 340,39 340,39 340,40 341,40 341,40 341,40 341,40 342,40 342,40 342,40 342,40 342,40 342,40 343,41 343,42 343,43 343,43 344,43 345,43 345,43 346,43 346,43 346,44 346,44 346,44 345,44 345,44 346,45 346,45 346,45 346,45 347,46 347,46 348,46 348,46 350,48 350,48 352,49 351,50 351,50 351,51 350,52 350,52 350,52 351,52 352,52 353,52 353,52 354,52 354,52 354,52 355,52 355,52 356,52 356,52 357,52 357,52 357,53 357,53 357,54 357,54 357,55 357,55 357,56 357,56 357,57 358,57 358,57 358,58 359,58 359,59 359,59 359,59 360,59 360,59 361,59 362,58 362,58 362,58 363,58 363,58 364,58 365,57 365,57 366,57 366,56 367,56 367,56 368,55 369,55 369,55 370,56 370,57 370,57 370,57 371,58 371,58 371,58 373,60 373,60 373,60 374,60 374,60 380,60 380,60 381,60 382,60 382,60 382,60 383,60 383,60 383,61 383,61 383,62 383,62 383,63 383,63 383,63 386,63 386,63 385,64 384,64 384,64 384,64 384,64 384,64 384,64 384,65 384,65 385,65 385,64 385,64 385,64 385,64 385,64 387,64 387,63 387,63 389,63 391,63 391,66 394,65 395,65 395,65 396,65 397,65 397,67 397,67 393,68 393,68 394,69 394,69 395,70 395,70 395,70 395,70 395,70 396,71 395,72 395,72 394,72 394,72 394,73 394,73 394,73 395,73 396,74 396,74 396,74 395,75 395,75 394,75 393,76 393,76 393,76 393,77 392,77 392,77 392,77 391,78 391,78 390,78 390,78 390,78 390,78 389,78 389,78 389,78 389,78 389,78 388,79 388,79 387,79 387,79 387,79 387,80 387,80 387,80 388,80 388,81 389,81 389,81 390,82 390,82 391,83 391,83 391,83 392,83 392,83 393,83 394,83 394,84 394,84 394,84 394,85 394,85 394,85 394,85 394,86 394,86 394,87 396,88 396,88 397,88 396,89 396,89 398,89 401,89 401,89 403,90 406,92 406,92 405,93 405,94 404,95 404,95 404,95 406,97 407,98 410,97 410,97 413,98 413,98 415,97 415,97 416,96 417,95 417,95 417,93 417,93 418,92 418,92 419,91 420,90 420,90 421,90 422,89 422,89 423,89 424,89 424,89 426,89 426,89 426,89 426,89 426,89 427,89 428,90 428,90 429,90 429,89 429,89 429,89 430,88 430,87 430,87 430,86 430,86 430,84 430,84 430,83 434,84 434,84 437,84 437,84 438,85 438,85 439,85 441,85 446,86 446,86 451,87 454,87 456,87 457,88 459,88 459,87 460,86 460,86 460,85 460,85 461,85 462,83 466,83 471,83 472,83 473,83 475,84 476,84 477,84 478,84 479,84 481,84 483,84 486,83 487,85 488,86 488,87 489,88 490,91 491,92 492,93 492,93 492,94 493,95 493,96 493,97 494,97 494,98 494,99 495,99 495,99 495,99 495,100 496,100 496,100 498,101 499,102 499,102 499,102 499,103 500,103 500,104 500,104 500,104 500,105 500,105 499,106 499,107 499,107 499,108 499,108 499,109 499,109 498,110 498,110 497,111 497,111 496,112 495,113 494,113 494,113 493,113 493,113 492,114 491,114 491,114 491,114 490,114 490,114 489,115 489,115 488,115 488,116 487,116 486,117 484,118 483,118 482,119 481,119 480,120 478,121 477,121 475,122 474,123 474,123 473,123 472,124 472,124 471,125 470,125 470,126 469,127 468,127 469,128 469,128 469,128 469,128 470,128 470,128 473,131 473,131 474,132 474,132 474,132 476,133 477,134 477,134 476,134 476,134 475,135 475,135 475,135 474,135 473,136 473,136 471,137 469,138 469,138 468,138 466,139 466,139 466,139 466,139 466,139 465,140 464,140 464,140 464,140 463,140 462,140 462,141 461,141 461,141 461,141 461,141 458,142 458,143 458,143 457,143 456,143 456,144 455,144 455,144 455,144 455,144 453,145 453,145 453,145 453,145 453,146 454,146 454,146 455,147 455,147 455,147 455,147 456,147 456,148 457,148 457,148 458,148 458,149 459,149 459,150 460,150 460,150 465,147 466,148 466,149 466,149 466,149 466,149 466,149 466,149 467,149 467,149 467,150 468,150 468,150 468,150 470,151 471,151 471,151 470,151 470,151 470,152 471,152 471,152 472,153 471,153 470,154 469,154 468,155 468,155 468,155 468,155 467,156 467,156 467,156 468,157 469,157 469,158 469,158 469,158 469,158 469,158 469,158 469,158 469,159 468,159 468,159 468,159 468,159 468,159 468,159 468,160 468,160 468,160 468,160 468,160 465,162 465,163 465,163 465,163 465,163 465,163 464,163 464,163 464,163 463,164 463,164 463,164 464,164 464,164 464,164 465,165 468,167 468,167 469,168 469,168 470,169 470,169 471,169 476,173 476,173 481,177 481,177 482,180 482,180 484,189 479,192 474,194 474,194 474,194 473,194 473,194 473,194 473,195 473,195 472,195 472,195 472,195 471,195 471,195 471,195 471,195 470,195 470,195 470,195 469,195 469,195 469,195 469,195 468,195 468,195 468,195 468,195 467,195 467,195 466,195 466,195 465,195 464,196 464,196 464,196 464,197 463,199 462,200 461,202 461,202 459,205 457,208 457,208 457,209 456,210 455,211 452,215 452,216 451,217 451,217 451,217 451,217 450,219 450,219 450,219 449,221 448,221 448,222 448,222 447,223 447,223 447,224 446,225 446,225 446,226 446,226 445,227 444,228 443,229 443,229 443,229 443,230 442,231 442,232 441,232 441,232 441,233 441,233 441,233 440,234 440,234 440,235 439,236 438,236 438,237 438,237 438,237 438,237 438,238 437,239 437,239 436,240 436,240 435,241 434,242 433,242 433,242 431,247 431,247 430,246 428,247 427,247 427,248 426,248 425,248 425,248 425,249 425,249 424,250 423,250 422,250 420,251 418,251 417,252 416,252 413,253 411,254 411,254 411,253 411,251 412,250 412,249 412,249 413,248 413,248 414,247 414,247 413,246 412,246 410,243 408,243 407,243 407,242 406,242 405,242 403,242 398,241 396,242 395,242 394,242 394,242 392,242 392,242 386,243 374,240 373,240 373,240 372,242 369,240 368,240 366,238 365,238 365,238 364,237 364,237 362,236 362,236 361,235 361,235 361,235 361,235 360,235 359,235 359,235 358,235 358,234 357,234 356,233 356,233 356,233 356,232 356,232 356,232 356,232 356,231 355,231 355,231 355,230 354,230 354,230 354,229 354,229 354,229 354,229 354,228 354,228 354,227 353,227 353,227 353,227 353,227 352,227 352,226 351,226 351,226 350,225 350,225 350,225 350,224 350,224 351,223 351,223 351,223 352,223 352,223 353,223 353,223 357,215 354,216 354,216 347,211 346,211 344,209 343,209 343,209 343,209 342,208 342,208 341,207 341,208 341,207 340,207 340,207 338,206 338,206 338,205 337,206 336,206 333,208 333,208 332,208 332,208 331,208 331,207 330,207 330,207 329,207 328,207 328,207 328,207 327,207 327,208 327,208 326,209 325,209 325,209 324,209 324,208 323,208 323,208 323,207 322,208 322,208 322,208 321,206 321,206 321,205 320,205 318,206 317,206 317,206 317,206 317,206 316,206 316,206 316,206 316,206 315,206 315,206 315,206 315,206 315,206 315,206 315,206 315,206 315,206 314,206 314,206 314,206 314,206 314,206 314,206 314,206 314,206 314,206 314,206 313,207 313,207 313,207 313,207 313,207 313,207 313,207 313,207 313,207 313,207 312,207 312,207 312,208 312,208 312,208 312,208 312,208 312,208 312,208 311,208 311,208 311,208 311,208 311,208 311,208 310,208 310,208 310,208 310,208 310,208 310,208 310,208 310,208 309,208 309,208 309,208 309,208 309,208 308,208 308,209 308,209 308,209 308,209 308,209 308,209 308,209 308,209 308,209 307,209 307,209 307,209 307,209 307,209 307,209 307,209 307,209 307,209 307,209 307,209 306,209 306,210 306,210 306,210 306,210 306,210 305,210 305,210 305,210 305,210 305,210 305,210 304,210 304,210 304,210 304,210 304,210 304,210 304,210 304,210 304,210 303,210 303,210 303,210 303,210 303,210 303,210 303,211 303,211 303,211 302,211 302,211 302,211 302,211 302,211 302,211 302,211 302,211 301,211 301,211 301,211 301,211 301,211 301,211 300,211 300,211 300,211 300,212 300,212 300,212 300,212 300,212 299,212 299,212 299,212 299,212 299,212 299,212 299,212 299,212 298,212 298,212 298,212 298,212 298,212 298,212 297,212 297,212 297,212 297,212 297,212 297,212 297,212 297,212 297,213 297,213 297,213 297,212 297,212 297,212 297,213 297,213 297,213 297,213 296,213 296,213 296,213 296,213 296,213 296,213 296,213 296,213 295,213 295,213 295,213 295,214 295,214 295,214 296,214 296,214 295,214 295,214 295,214 295,214 295,214 295,214 295,214 295,214 295,214 295,214 294,215 294,215 294,215 294,215 294,215 294,215 294,215 294,215 293,215 293,215 293,215 293,215 293,215 293,215 293,215 293,215 293,215 293,215 292,215 292,215 292,215 292,215 292,215 292,215 292,216 292,216 292,216 292,216 292,216 292,216 291,216 291,216 291,216 291,216 291,216 291,216 291,216 291,216 291,216 291,216 290,216 290,216 290,216 290,216 290,216 290,217 290,217 290,217 290,217 290,217 290,217 290,217 290,217 290,217 290,217 290,217 289,217 289,218 289,218 289,218 289,218 288,218 288,219 288,219 288,219 288,219 288,219 288,219 288,219 289,220 288,220 288,220 287,220 287,220 287,220 287,220 287,220 287,220 287,220 286,221 286,221 286,221 286,221 287,221 287,221 287,221 286,221 286,221 286,221 286,222 286,222 286,222 286,222 285,222 285,222 285,223 285,223 285,223 285,223 286,223 285,223 285,224 285,224 285,223 285,224 284,224 284,224 284,224 283,224 283,224 282,224 282,224 281,224 281,224 281,224 280,224 280,224 279,224 280,225 280,225 278,225 278,225 278,224 278,224 276,225 276,225 276,225 276,225 275,226 273,227 273,227 271,227 271,228 271,228 271,228 270,227 269,227 269,228 268,228 268,228 266,231 265,231 264,232 264,232 262,233 262,234 259,235 258,236 257,237 257,237 257,237 257,237 253,240 252,241 252,242 251,242 250,243 249,244 249,244 248,246 247,246 247,247 247,247 247,247 247,247 247,247 246,248 246,249 246,249 244,251 244,251 243,251 243,252 242,253 240,254 239,255 239,255 237,257 236,258 236,258 236,258 234,258 234,258 234,259 232,260 232,260 232,260 232,260 232,260 232,261 232,262 232,262 232,262 232,263 232,263 233,264 233,265 233,265 233,266 233,266 233,266 234,266 234,266 234,266 234,266 235,266 235,266 236,266 236,266 236,266 236,266 236,266 237,266 237,266 237,266 237,266 237,266 237,266 237,266 237,266 238,266 238,266 238,266 238,266 238,266 238,266 238,266 239,266 239,266 239,266 239,266 239,266 239,265 239,265 239,265 240,265 240,265 240,265 241,265 241,265 241,265 241,265 241,265 242,265 242,265 242,265 243,265 243,265 243,265 243,265 243,265 244,265 244,265 244,265 244,265 245,265 245,265 245,265 245,265 245,265 245,265 245,266 246,266 246,266 246,266 246,266 246,266 246,266 246,265 246,265 247,265 247,265 247,265 247,265 247,265 247,265 247,265 247,266 247,266 248,265 248,266 248,266 248,266 248,266 248,266 249,266 249,266 249,266 249,266 249,266 249,266 249,266 249,266 249,266 249,266 250,266 250,266 250,266 250,266 250,267 250,267 251,267 251,267 251,267 251,267 251,267 251,267 251,267 251,267 252,267 252,267 252,267 252,267 252,267 252,267 252,267 252,267 254,267 255,267 255,267 255,267 256,267 257,268 258,268 259,268 260,268 260,268 261,269 261,269 261,269 261,269 261,269 262,269 262,269 262,269 262,269 263,270 263,270 263,270 263,270 263,270 263,271 263,271 263,271 263,271 263,271 263,271 263,271 263,271 263,271 263,271 263,271 263,272 264,272 264,272 265,272 265,272 265,272 266,273 266,273 266,273 266,273 266,273 267,273 267,273 267,273 267,274 268,274 268,274 268,274 268,274 268,274 268,274 268,275 268,275 268,275 268,275 269,275 269,275 269,275 269,275 269,275 269,275 270,275 270,275 270,275 270,275 270,275 270,275 271,275 271,276 271,276 271,276 271,276 271,276 271,276 272,277 272,277 273,278 273,278 273,278 273,278 273,278 274,279 274,279 274,279 275,279 275,279 275,279 275,280 275,280 276,280 276,280 276,280 276,281 276,281 276,281 276,281 276,282 276,282 275,282 275,283 275,283 274,283 274,283 274,283 274,283 274,283 272,283 272,283 272,283 272,284 272,284 272,284 272,284 271,284 271,284 271,284 270,284 270,285 270,285 270,285 269,285 269,285 269,285 268,285 268,285 267,286 267,286 266,286 266,287 266,287 266,287 266,287 265,287 265,287 264,288 263,288 262,288 262,289 262,289 262,289 262,289 262,289 262,289 261,290 261,290 261,290 261,290 261,290 260,290 260,290 260,290 258,290 258,290 258,292 258,292 258,291 257,292 257,291 257,291 255,293 255,293 255,293 254,293 254,293 254,292 254,292 254,292 253,293 253,293 253,293 253,293 253,294 252,294 251,296 250,296 249,297 249,296 249,296 249,296 247,295 247,295 246,295 245,294 245,294 244,294 243,292 242,292 241,291 241,291 240,291 239,290 238,290 238,290 238,289 237,289 236,288 236,287 236,287 236,287 236,287 235,287 235,287 235,287 234,287 234,286 234,286 233,286 232,286 232,286 232,285 232,285 231,285 230,285 230,285 230,285 230,285 230,285 229,285 226,285 224,284 223,284 223,284 223,284 222,285 222,286 221,287 221,287 214,287 214,287 212,288 212,288 210,289 209,289 209,289 208,289 208,289 207,288 207,288 205,291 204,292 203,293 203,293 203,293 203,293 202,294 202,294 202,294 198,295 197,295 194,295 194,295 193,295 192,296 192,296 191,296 191,296 191,296 190,296 189,296 187,296 187,296 186,296 186,296 184,296 181,297 181,297 181,297 180,297 179,297 178,296 177,296 177,295 176,295 175,294 174,294 173,294 173,294 173,293 173,294 172,294 171,294 171,294 170,294 169,294 169,294 167,294 167,294 167,295 168,296 168,297 169,300 169,300 168,300 168,300 168,300 168,299 168,299 167,299 166,298 166,298 165,298 164,298 164,298 164,298 164,298 163,298 163,299 163,299 162,299 162,299 161,298 161,298 160,298 160,297 160,297 157,297 157,297 157,297 157,297 156,297 156,297 155,297 155,297 154,297 154,297 154,296 152,295 152,294 151,293 147,292 147,292 147,292 147,293 147,293 146,293 146,293 146,294 145,294 145,295 144,295 144,295 144,296 144,296 144,296 143,297 143,297 143,297 142,297 142,297 141,298 140,299 140,299 139,300 138,301 138,301 137,301 137,302 136,302 136,302 135,302 134,303 133,303 133,303 132,304 132,304 132,304 131,304 130,304 128,306 128,306 127,307 127,307 126,307 124,308 124,308 123,308 123,308 122,309 120,309 120,309 116,309 115,309 115,309 115,309 115,309 111,306 110,305 108,304 107,303 105,301 105,301 104,301 102,301 102,301 101,301 101,301 101,301 101,301 101,302 101,302 101,302 101,302 97,304 97,304 96,304 96,304 95,305 95,305 95,305 94,306 94,306 94,306 95,306 97,309 98,310 98,310 101,311 102,311 103,312 104,312 104,313 106,314 106,315 107,315 108,316 108,317 109,317 109,317 109,317 109,317 112,319 111,320 111,320 110,320 110,320 109,320 109,321 109,321 108,321 108,321 108,323 108,323 107,323 107,323 107,323 106,324 106,324 105,324 105,324 104,325 104,325 103,325 103,326 101,327 100,327 100,328 97,330 91,334 91,334 90,333 90,333 89,332 89,331 87,330 87,329 86,329 86,329 85,329 85,329 85,329 85,330 84,330 84,330 84,329 84,329 83,329 83,329 83,328 84,328 84,328 84,328 83,328 83,328 83,327 83,327 83,327 83,327 83,327 83,327 82,327 82,326 82,326 81,326 81,326 81,326 81,326 81,326 81,325 80,324 80,324 78,321 78,320 77,319 77,318 76,317 76,317 75,317 75,316 74,316 73,316 73,316 73,316 72,316 72,316 72,316 72,315 72,315 72,314 71,314 71,313 71,313 71,312 71,312 70,311 70,311 70,309 70,308 70,308 70,308 70,308 70,307 70,307 70,307 70,307 70,307 70,307 70,307 70,307 71,307 71,307 71,306 71,306 71,306 72,305 72,305 72,305 72,305 73,305 73,304 73,304 73,304 73,304 73,303 72,303 72,303 72,303 71,303 71,302 71,302 71,302 73,301 73,301 73,301 69,298 69,298 68,297 64,296 64,297 63,299 61,301 61,301 60,302 59,303 59,304 58,305 57,306 57,306 56,306 54,306 54,306 54,306 52,306 52,306 51,306 48,307 48,307 45,307 44,307 43,308 43,308 42,308 41,308 40,308 39,308 38,308 38,308 34,309 33,309 32,308 31,308 31,308 28,309 27,309 27,309 27,309 24,310 24,310 21,310 16,313 15,313 10,314 9,314 9,314 8,314 5,315 4,315 2,316 2,316 2,315 2,314 1,313 1,313 1,313 1,313 1,313 0,311 0,311 1,311 1,311 1,310 1,310 1,310 1,310 1,308 1,308 1,308 1,307 0,306 0,306 0,306 0,305 0,305 1,303 1,302 2,302 2,301 2,300 2,300 2,299 2,297 2,296 2,295 2,294 2,293 2,291 2,291 2,290 1,289 1,289 1,289 1,289 1,289 3,287 3,287 4,287 4,286 4,285 6,283 6,283 6,283 8,281 9,281 9,281 9,281 9,281 10,281 10,281 10,281 10,281 10,281 10,281 10,281 10,282 11,282 11,282 15,284 15,284 15,284 16,284 17,284 17,284 17,285 17,285 17,285 18,285 18,285 19,285 19,286 20,287 20,287 21,287 21,287 22,287 22,287 22,286 23,286 23,286 24,286 25,286 25,286 27,287 27,287 29,286 36,285 36,285 37,285 37,285 37,285 38,284 38,284 39,283 40,282 40,282 41,283 41,282 41,282 41,282 41,281 42,281 42,281 43,280 44,280 44,280 45,280 46,279 46,279 46,279 47,279 48,277 49,277" id="7221" class="canton" fill="steelblue" stroke-width="1" stroke="white" geotype="canton" geoname="Suze-sur-Sarthe" code_insee="7221" code_departement="72" nom_departement="Sarthe" code_region="52" nom_region="Pays de la Loire"/></svg>