<?xml version="1.0" encoding="utf-8"?>
<svg version="1.1" id="svgmap" xmlns="http://www.w3.org/2000/svg" xmlns:xlink="http://www.w3.org/1999/xlink" x="0px" y="0px" width="100%" height="100%" viewBox="0 0 448 500">
<polygon points="448,194 446,196 445,196 444,202 444,205 442,208 441,209 440,210 439,213 437,217 437,220 434,227 434,231 433,234 434,236 435,239 435,242 430,250 429,253 429,254 429,257 428,260 428,263 427,268 427,274 429,277 429,279 435,284 437,285 437,286 436,286 432,285 428,286 420,286 419,286 418,287 418,288 416,294 414,297 412,299 409,301 408,303 406,306 405,309 405,313 404,316 403,319 397,326 391,329 386,333 372,372 371,375 373,379 375,381 374,384 378,388 380,390 383,391 384,391 383,392 382,394 382,397 382,398 385,402 388,405 390,410 390,414 390,417 390,417 392,421 393,422 394,425 395,429 397,434 399,446 398,450 399,450 398,450 396,450 395,450 394,450 391,448 392,448 392,447 392,447 391,447 390,447 389,447 388,447 387,447 386,446 385,445 384,444 383,443 383,442 383,442 383,442 383,441 383,441 383,441 382,440 381,440 380,439 379,438 379,437 379,437 376,435 375,433 375,433 374,433 373,432 373,431 372,431 372,430 372,430 372,429 372,428 371,427 369,425 369,425 368,424 369,423 369,423 369,422 369,422 369,421 369,421 369,420 368,420 357,420 357,423 357,430 357,431 356,432 355,435 353,439 351,442 347,441 346,442 346,442 346,442 345,442 345,443 345,443 344,443 345,443 344,444 344,444 344,444 344,443 343,443 343,443 343,443 343,443 342,443 342,443 342,443 341,445 341,445 341,445 340,446 339,446 339,445 336,445 334,444 329,443 324,441 323,441 322,441 320,440 320,441 320,441 319,442 320,444 320,445 320,446 321,451 322,451 322,452 322,452 323,452 326,453 327,454 329,455 332,456 333,457 334,457 311,465 310,464 309,462 308,461 308,461 307,460 304,455 302,453 301,452 299,449 298,449 298,448 298,448 296,445 295,444 294,443 292,441 291,439 290,438 290,438 289,437 288,435 287,433 284,430 277,421 276,419 275,418 274,416 272,414 269,410 266,407 265,405 264,404 262,401 262,401 260,399 259,398 257,395 256,395 256,394 255,394 253,391 252,390 251,390 250,389 249,388 248,387 247,387 246,387 245,387 244,387 244,387 241,387 240,387 239,387 239,387 238,387 238,387 237,386 237,386 236,386 236,386 235,386 235,386 235,386 235,386 235,389 236,389 236,390 237,392 239,399 242,407 242,409 243,410 244,412 245,414 246,417 247,420 247,424 246,428 244,431 236,445 237,445 238,445 237,446 233,453 232,455 231,456 230,457 229,458 229,459 228,460 228,461 227,460 226,460 224,460 218,458 218,458 212,456 208,455 205,453 201,451 195,449 191,447 189,446 189,451 189,454 189,455 189,456 188,458 187,459 187,460 185,464 184,466 184,467 183,467 183,468 183,470 182,473 182,474 182,475 181,476 180,477 179,479 177,483 175,485 174,486 174,486 174,486 170,490 167,493 163,496 163,496 162,497 161,496 157,491 155,489 155,489 155,489 154,488 152,488 151,487 150,487 149,487 145,486 144,486 144,486 137,484 137,484 137,484 137,482 136,482 134,477 132,475 131,474 130,472 129,472 128,471 127,470 127,470 127,470 127,470 126,470 125,471 125,471 120,473 118,474 118,474 116,474 115,474 112,474 110,473 108,473 106,472 105,472 104,472 104,472 103,472 102,472 101,472 100,472 98,473 94,473 94,473 94,473 94,474 94,474 92,474 92,474 92,474 92,475 92,475 91,475 91,475 91,476 90,476 90,476 90,476 89,476 89,476 88,477 86,478 85,479 85,480 83,481 82,482 82,482 81,482 80,483 79,483 79,483 78,484 78,484 78,484 76,485 76,486 75,486 72,486 68,487 68,487 67,488 67,488 66,488 65,490 64,490 61,491 51,494 51,494 50,494 48,495 42,498 38,500 40,497 40,495 39,492 38,491 36,491 34,488 25,483 24,483 18,481 10,479 8,478 5,478 4,478 1,479 0,475 0,471 0,469 16,443 19,436 21,424 22,416 21,411 21,411 21,407 25,397 19,396 24,390 24,390 36,387 46,383 54,381 59,381 59,381 64,380 67,379 74,376 80,373 80,371 82,370 79,366 85,364 106,355 116,351 115,350 121,347 121,347 121,347 130,337 119,325 118,324 118,324 108,312 113,306 116,305 140,304 141,304 140,301 138,298 136,295 134,288 146,283 114,231 86,185 95,184 96,184 98,184 123,179 136,176 147,178 167,178 170,178 172,178 173,179 173,181 174,182 176,184 177,184 179,183 180,183 183,176 181,176 182,170 182,167 184,166 185,162 188,159 189,158 192,158 195,158 202,158 212,155 222,155 222,143 223,143 222,142 222,140 221,137 219,131 220,129 218,121 215,114 211,114 209,103 209,101 210,101 209,97 211,97 216,94 217,89 218,88 209,88 208,85 209,82 205,81 206,79 205,79 205,77 204,76 203,73 204,73 204,64 205,64 205,61 204,53 205,47 208,47 222,48 228,46 232,45 232,45 232,43 233,43 234,43 245,43 247,43 247,41 255,40 265,39 264,31 261,26 260,24 255,18 253,15 256,14 265,9 266,9 271,6 269,0 274,0 284,0 302,34 315,68 316,69 329,76 330,77 331,78 333,80 334,85 337,95 341,106 343,109 348,110 353,116 354,116 360,134 371,137 371,138 377,139 378,139 378,140 387,139 387,141 388,141 388,141 391,141 396,149 398,150 397,151 394,161 395,162 395,162 395,185 394,190 395,189 400,188 404,189 403,190 413,189 448,194" id="7307" class="canton" fill="steelblue" stroke-width="1" stroke="white" geotype="canton" geoname="Chambéry-1" code_insee="7307" code_departement="73" nom_departement="Savoie" code_region="84" nom_region="Auvergne-Rhône-Alpes"/></svg>