<?xml version="1.0" encoding="utf-8"?>
<svg version="1.1" id="svgmap" xmlns="http://www.w3.org/2000/svg" xmlns:xlink="http://www.w3.org/1999/xlink" x="0px" y="0px" width="100%" height="100%" viewBox="0 0 500 368">
<polygon points="7,143 7,143 7,142 7,142 8,142 8,142 8,142 8,141 9,141 9,141 9,140 10,140 10,139 10,139 10,139 10,138 10,138 11,138 11,138 11,138 11,138 11,138 12,137 12,137 12,137 13,137 13,137 13,137 13,137 13,137 14,136 14,136 14,136 14,136 15,135 15,135 15,135 17,133 17,133 17,133 17,133 17,133 17,133 17,132 17,132 18,132 18,132 18,131 18,131 18,131 18,130 18,130 20,127 21,127 25,124 25,124 26,124 26,124 26,124 26,124 27,124 27,124 27,124 27,124 27,125 27,125 27,125 28,125 28,125 28,125 28,126 28,126 28,126 28,126 28,126 28,127 28,127 28,127 28,127 28,127 28,127 28,127 28,128 28,128 28,128 29,128 29,129 30,129 30,129 30,129 30,129 30,129 30,130 31,130 31,130 31,130 31,130 31,130 31,130 31,130 32,131 32,131 32,131 32,131 32,131 33,131 33,132 33,132 34,132 34,132 34,132 34,132 34,132 34,132 34,132 34,132 34,132 35,132 35,133 35,133 35,133 35,133 35,134 35,134 35,134 36,134 36,134 36,134 36,134 36,135 36,135 36,135 36,135 36,135 36,135 36,135 36,135 36,135 36,135 36,136 36,136 36,136 36,136 36,136 36,136 36,136 36,136 36,136 36,136 37,137 37,137 37,137 37,137 37,137 37,137 37,137 36,137 36,137 36,137 36,137 36,138 36,138 36,138 37,138 37,138 37,138 37,138 37,138 37,138 37,138 37,138 38,138 38,138 38,139 38,139 38,139 38,139 38,139 38,140 38,140 38,140 38,140 38,140 39,140 39,140 39,140 39,140 39,140 39,140 39,141 39,141 39,141 39,141 39,141 39,141 39,141 39,141 39,141 39,141 39,141 39,142 39,142 39,142 39,142 39,142 39,142 39,142 39,142 41,143 41,143 42,143 43,143 45,142 45,142 48,140 49,139 49,139 49,139 49,137 49,137 49,137 49,137 49,137 49,137 49,135 49,135 49,135 48,135 48,134 48,134 48,133 48,133 49,132 49,132 49,132 50,131 50,131 50,131 51,130 51,129 51,129 55,130 55,130 56,131 58,131 59,131 59,131 59,131 59,132 59,132 59,132 59,132 60,132 60,133 60,133 61,133 61,133 61,133 62,133 62,133 63,133 63,134 63,134 64,134 64,134 65,134 66,134 66,134 67,134 67,134 67,134 67,134 69,133 69,133 70,133 70,133 70,133 71,133 71,133 72,133 72,133 72,133 73,133 73,133 74,133 74,133 75,134 75,134 76,134 81,133 81,133 81,133 81,133 82,132 82,132 83,131 83,131 83,130 83,130 84,128 84,128 84,128 86,127 87,127 87,126 87,126 86,125 87,124 88,124 88,123 88,123 89,123 90,122 90,122 90,122 91,121 91,121 91,120 93,118 93,118 95,116 97,114 97,113 97,112 98,110 98,110 98,110 99,109 99,109 99,109 100,108 100,108 100,107 100,106 100,106 100,105 100,105 100,104 101,103 101,103 101,103 101,103 101,103 101,103 101,103 101,102 102,102 102,102 103,102 103,101 103,101 104,101 105,101 105,101 105,101 106,100 106,100 108,100 110,99 111,98 111,98 111,98 112,97 112,97 112,97 112,97 112,97 112,97 113,97 113,97 113,96 114,96 114,96 114,96 114,96 114,96 114,95 114,95 114,95 115,94 115,94 115,93 115,93 116,93 116,93 116,93 116,93 116,93 116,93 116,93 116,93 116,92 117,92 117,92 117,92 118,92 120,92 121,92 121,92 121,92 121,92 121,91 121,91 121,91 122,91 122,90 123,89 123,89 123,89 123,89 123,89 123,89 124,89 124,89 124,88 124,88 124,88 124,87 125,87 125,87 126,87 126,87 125,86 125,86 125,86 126,85 126,84 127,84 127,84 127,83 127,83 128,83 128,83 127,81 127,81 127,81 126,80 125,79 125,79 125,79 125,78 125,78 124,77 124,77 122,77 122,77 122,77 123,75 123,75 123,75 122,75 122,74 121,72 121,72 121,72 121,72 122,72 122,72 122,72 122,72 122,72 122,72 122,72 122,72 121,71 121,71 121,71 121,71 122,71 122,71 122,70 122,70 122,70 122,70 122,70 122,70 122,69 122,69 122,69 122,69 122,68 122,68 122,68 122,68 123,68 123,67 123,67 123,67 123,67 122,66 122,66 122,66 122,66 122,65 122,65 122,65 122,65 122,65 123,65 123,65 123,65 123,65 123,65 123,64 123,64 124,64 124,64 124,64 124,64 127,63 127,63 127,63 127,63 128,63 129,63 129,63 130,63 130,63 132,62 133,62 134,62 134,62 135,61 135,61 136,61 136,61 137,61 137,60 137,60 138,60 138,60 138,59 138,59 139,59 139,59 139,59 136,57 136,57 137,57 139,56 139,55 139,54 139,54 140,54 140,54 140,54 140,53 140,53 140,53 140,53 140,53 141,52 141,52 140,51 141,51 141,50 142,50 143,49 144,48 146,48 146,48 147,47 149,46 149,46 149,46 150,44 151,43 150,42 152,40 152,40 153,39 154,38 156,38 157,37 158,37 159,36 159,36 160,35 160,35 162,34 163,32 164,32 165,31 166,31 166,29 167,29 168,28 168,27 168,26 168,26 167,25 167,24 168,24 169,23 170,22 171,22 173,20 174,19 175,19 175,18 176,17 177,16 179,14 179,13 180,12 180,11 184,10 187,9 188,9 191,8 192,9 194,9 195,9 195,9 196,9 202,9 202,9 203,8 204,8 206,8 209,7 210,5 212,4 216,2 218,0 218,0 219,0 220,0 222,1 222,3 222,3 222,3 222,4 222,5 222,5 222,6 222,6 222,6 222,7 222,7 223,7 223,7 223,8 223,8 223,8 225,9 225,9 225,9 225,10 225,10 225,10 225,10 224,10 224,11 224,11 224,11 224,11 224,11 224,11 224,12 224,13 224,13 224,13 224,13 224,14 224,14 225,14 225,14 225,14 224,15 224,15 224,15 224,15 224,15 224,16 224,16 224,16 224,16 224,17 224,17 224,17 224,18 224,18 224,18 224,18 224,19 224,19 224,19 224,19 224,19 224,19 224,19 224,19 224,20 224,20 224,21 225,23 225,24 225,25 225,25 225,25 225,25 226,25 226,25 226,25 226,25 225,26 225,26 225,26 226,26 226,26 226,26 226,26 226,26 226,26 225,26 225,26 225,27 225,27 225,27 225,27 224,28 224,28 224,28 224,29 224,29 224,29 224,29 225,29 225,29 225,29 226,29 226,30 226,30 226,30 226,30 226,30 226,30 226,31 227,31 227,31 227,31 227,31 227,32 228,32 228,32 228,32 229,32 229,32 229,32 230,32 230,32 230,33 230,33 231,33 231,33 231,33 231,33 231,33 231,33 232,33 232,34 232,34 234,35 234,35 234,35 234,36 234,36 234,36 234,36 234,36 234,36 234,36 234,36 233,37 233,37 234,37 234,37 234,37 234,37 234,37 233,38 233,38 233,38 233,39 233,39 233,40 232,40 232,40 232,41 232,41 232,41 232,41 232,41 232,41 231,42 231,42 231,42 231,42 231,42 230,43 230,43 230,43 229,44 229,44 229,44 229,44 229,44 229,44 229,44 229,44 229,44 228,45 228,45 228,45 227,45 227,46 227,46 227,46 227,46 227,46 226,47 226,47 226,47 227,47 227,47 227,47 227,48 226,48 227,48 227,48 227,48 227,48 227,48 227,48 227,49 227,49 227,49 227,49 228,49 228,49 228,49 228,49 228,49 229,50 229,50 229,50 229,50 230,50 230,50 230,50 230,51 230,51 230,51 231,51 231,51 231,51 231,51 231,51 232,52 232,52 232,52 232,52 232,52 232,52 233,52 233,53 234,53 235,53 235,53 235,54 235,54 236,54 236,54 236,54 236,55 236,55 236,55 237,56 237,56 237,56 237,56 237,56 237,56 237,56 237,57 237,57 237,57 237,57 237,57 237,57 237,58 237,58 237,59 237,59 237,59 238,59 238,59 238,59 238,59 238,59 238,60 238,60 238,60 238,60 238,60 239,60 239,60 239,61 239,61 239,61 239,61 239,61 239,61 239,61 240,62 240,62 241,63 241,63 242,64 243,65 243,65 243,65 243,65 243,66 243,66 243,67 243,67 243,67 243,67 243,67 243,67 243,67 243,67 243,68 243,68 244,68 244,68 244,68 244,68 245,68 245,69 245,69 246,69 246,69 246,69 246,69 246,69 246,69 246,69 247,69 247,69 247,69 247,69 248,69 248,69 249,69 249,69 250,69 250,69 250,69 250,69 250,69 250,69 250,69 251,69 251,69 251,69 252,70 252,70 252,70 253,70 253,70 253,70 253,70 253,70 253,70 254,70 254,70 254,70 254,70 255,70 255,70 255,71 255,71 255,71 255,71 255,71 255,71 255,71 255,70 256,70 256,71 256,71 256,71 256,71 256,71 256,71 256,71 256,72 256,72 257,72 257,72 257,72 257,72 257,72 257,72 257,73 257,73 257,73 257,73 257,73 258,73 258,73 258,73 258,73 258,73 257,73 257,73 257,73 257,73 257,73 257,73 258,74 258,74 258,74 258,74 258,74 258,74 258,74 258,74 258,75 259,75 259,75 259,75 259,75 259,75 259,76 259,76 259,76 259,76 260,76 260,76 260,76 260,76 260,76 260,77 260,77 260,77 260,77 261,77 261,77 261,77 261,77 261,78 260,78 260,78 260,78 261,78 261,78 261,78 261,79 261,79 261,79 261,79 261,79 261,79 261,79 261,79 260,80 260,80 261,80 261,80 261,80 262,81 262,81 263,81 263,81 263,81 264,81 264,81 265,81 265,81 265,82 266,82 266,82 267,82 267,82 267,83 267,83 268,83 268,83 269,83 269,84 269,84 270,84 270,84 270,84 270,84 271,84 271,84 271,84 272,85 273,85 273,85 274,85 274,85 275,85 275,85 276,85 276,85 276,85 276,85 277,85 277,85 277,85 278,85 279,85 279,86 279,86 279,86 280,87 280,88 282,89 288,90 289,90 290,90 290,90 290,90 291,90 291,90 291,90 292,90 292,90 292,90 292,90 293,89 293,89 293,89 293,88 293,88 294,88 294,89 294,89 295,89 295,89 297,90 297,90 298,90 298,90 299,91 299,91 300,91 300,91 301,92 301,92 302,93 302,93 302,93 302,93 303,93 303,92 303,92 304,92 305,91 305,91 306,91 306,91 306,91 306,90 307,90 307,90 307,89 307,89 307,89 308,89 308,88 308,88 309,88 309,88 309,88 309,88 310,88 310,88 311,88 311,88 311,89 312,89 312,89 312,90 312,90 312,90 312,90 313,91 313,91 313,91 314,91 314,91 314,92 314,92 314,93 314,93 314,94 314,94 314,94 314,95 313,95 313,96 313,96 313,96 314,97 314,97 314,98 315,98 314,98 314,99 314,99 313,100 313,100 312,101 312,101 312,102 312,102 311,102 311,103 310,103 311,104 311,104 312,104 313,104 313,104 314,105 314,105 315,105 316,105 316,105 317,105 318,105 318,105 319,105 320,105 321,106 322,106 322,106 323,107 323,107 323,108 323,109 323,110 323,111 323,111 323,111 323,112 323,112 323,113 323,113 322,113 322,114 322,114 322,114 323,115 323,115 324,115 324,115 325,115 326,115 326,115 326,115 327,115 327,115 327,115 327,115 327,116 328,116 328,116 328,116 328,116 328,116 329,116 329,116 330,116 331,117 331,117 331,117 331,118 332,118 332,118 332,118 332,118 333,118 334,118 334,118 335,118 335,118 335,118 335,119 335,119 335,119 335,119 335,119 336,120 336,120 336,120 337,119 338,119 338,119 338,119 338,119 339,119 339,118 339,118 339,118 340,118 340,118 340,118 341,118 341,118 341,118 341,118 341,118 342,117 342,117 342,117 343,117 343,117 344,118 344,118 344,118 344,118 344,117 344,117 345,117 345,117 345,117 345,117 345,117 345,117 345,117 346,117 346,117 347,117 347,117 347,117 347,116 347,116 347,116 348,116 350,116 351,116 351,116 351,116 351,115 351,115 351,115 351,115 352,115 352,115 352,115 352,115 352,115 353,115 353,115 354,115 355,114 355,114 355,114 356,114 356,114 356,114 356,114 356,114 356,114 357,114 357,114 357,114 357,114 357,114 357,114 357,114 357,114 358,114 358,113 360,113 360,113 361,113 362,112 362,112 362,112 363,112 363,112 363,112 363,112 363,112 364,112 364,112 364,111 364,111 365,111 365,112 365,112 365,112 366,112 366,112 366,112 366,112 366,112 366,112 366,112 367,112 367,112 367,112 368,112 368,112 368,112 370,112 371,112 371,112 371,112 371,112 371,112 371,113 371,113 371,113 371,114 372,114 372,114 372,114 372,115 372,115 372,115 372,115 373,115 373,115 372,115 372,116 372,116 372,116 372,116 372,116 373,117 373,117 373,117 373,117 373,117 374,117 374,118 374,118 374,118 374,119 375,119 375,119 376,119 376,119 376,119 377,120 377,120 377,120 378,120 378,120 379,120 379,120 379,120 380,120 380,120 380,120 381,120 381,120 381,120 381,120 382,120 382,120 382,120 382,120 382,120 383,120 383,120 383,120 383,120 383,120 383,120 384,120 384,121 384,121 385,121 385,121 385,121 385,121 386,121 386,121 387,121 387,121 387,121 388,121 388,121 388,121 388,121 389,122 389,122 389,122 389,123 389,123 389,123 389,124 389,124 389,124 390,124 390,124 390,125 391,125 391,125 391,125 391,125 392,125 392,125 393,125 393,125 394,125 395,124 395,124 397,125 397,125 398,125 398,125 399,125 399,125 399,125 399,125 399,125 399,126 399,126 399,126 398,126 398,126 398,126 398,127 398,127 399,127 399,128 399,128 399,128 399,128 399,129 399,129 399,129 398,129 398,129 398,130 398,130 398,130 397,130 397,130 397,130 397,130 396,131 396,131 396,131 396,132 396,132 396,132 396,132 396,132 396,133 395,133 395,134 395,134 394,134 394,134 394,134 394,135 393,135 393,135 392,135 392,135 392,135 392,135 391,135 390,136 390,136 390,136 389,137 389,137 389,137 388,138 388,138 387,138 387,138 386,139 386,139 386,139 386,139 386,139 386,139 386,140 386,140 386,140 386,140 385,141 385,141 385,141 385,141 385,141 385,141 385,141 385,141 385,141 385,141 385,141 385,141 385,141 385,141 384,142 384,142 384,142 384,143 384,143 383,144 383,145 383,145 383,146 383,147 383,147 383,147 383,147 383,147 384,148 384,148 384,148 385,148 385,148 385,149 385,149 385,149 385,150 384,154 384,154 383,155 383,155 383,155 383,155 383,155 383,156 383,156 383,156 383,156 383,156 382,156 382,157 382,157 382,157 382,157 382,158 382,158 382,159 381,159 381,159 381,159 381,159 381,159 381,160 381,160 381,160 381,161 381,161 380,162 379,163 379,163 380,163 380,164 380,164 380,164 380,164 380,164 380,164 380,164 380,165 380,165 380,165 380,166 380,166 380,166 380,166 380,167 379,168 378,168 378,169 378,169 378,169 378,170 378,171 378,171 378,172 378,172 379,173 379,173 379,173 379,174 380,174 380,174 380,175 380,175 380,175 381,175 381,176 381,176 382,176 382,176 383,176 383,176 383,176 384,177 385,177 385,177 386,177 386,178 386,178 386,178 387,178 387,178 387,179 387,179 387,179 388,179 388,179 388,179 389,179 389,179 389,179 390,179 390,180 390,180 391,180 391,180 391,181 391,181 392,181 392,181 392,181 392,182 392,182 393,182 393,182 393,182 393,182 393,182 393,182 393,182 393,182 393,183 393,183 393,184 393,184 393,185 393,185 392,185 392,185 392,185 392,186 392,186 392,186 392,186 393,186 393,186 393,186 393,186 393,186 393,187 393,187 393,187 393,187 393,187 394,187 394,187 394,187 395,188 395,188 395,188 395,188 395,188 395,188 394,188 394,189 394,189 394,189 394,189 394,190 394,190 393,190 393,190 393,190 393,190 393,190 393,190 392,191 392,191 392,191 392,191 391,191 391,191 391,192 391,192 391,192 390,192 390,192 390,192 390,192 390,192 390,192 389,192 389,192 389,193 389,193 389,193 389,194 389,194 389,194 389,194 389,195 389,195 389,196 389,196 389,197 389,197 389,197 389,198 389,198 389,199 389,199 389,199 389,199 389,200 390,200 390,200 390,200 390,200 390,200 390,200 390,201 389,201 389,201 389,201 390,202 390,202 390,202 390,203 390,203 390,203 390,203 390,203 390,203 390,204 390,204 390,204 390,204 391,204 391,204 391,205 391,205 391,205 391,205 391,206 391,206 391,206 391,206 391,207 391,207 391,207 392,207 392,207 392,207 393,208 393,208 394,209 394,209 394,209 394,209 394,209 394,209 394,210 394,210 394,210 394,210 394,210 394,210 394,211 394,211 394,211 394,211 394,211 394,211 393,211 393,211 393,211 394,212 394,212 394,212 393,212 393,212 393,212 393,212 394,212 394,212 394,212 394,213 393,213 393,213 393,213 393,213 393,213 393,213 393,213 393,213 393,213 393,214 392,214 392,214 392,214 392,215 392,215 392,215 391,215 391,215 391,216 391,216 391,216 391,216 391,217 391,217 390,220 390,221 389,222 389,222 389,222 389,222 389,222 391,223 392,224 393,225 394,225 394,225 395,226 397,227 397,227 398,229 398,229 398,229 399,229 399,229 399,230 399,230 399,230 399,230 399,230 399,230 400,231 400,231 401,231 401,231 401,231 401,232 401,232 401,232 401,232 402,233 402,233 402,233 402,233 402,234 402,234 402,235 402,235 401,236 401,236 400,237 400,238 400,238 400,238 399,239 399,239 399,239 399,241 398,244 398,244 398,245 400,247 400,247 402,247 402,247 405,249 405,249 405,249 406,249 406,249 406,249 406,249 406,249 406,249 406,250 406,250 406,250 406,250 408,250 408,250 409,250 409,251 409,251 410,251 410,251 411,251 411,251 412,251 413,251 414,252 414,252 415,252 416,252 416,252 416,252 416,253 418,253 418,253 419,253 419,253 419,253 420,253 420,253 420,253 420,253 421,253 422,253 422,253 422,253 422,253 423,253 423,253 423,253 424,253 424,253 424,253 424,253 424,253 425,253 425,253 425,253 425,253 427,253 427,253 427,253 427,253 428,253 428,253 429,253 429,252 429,252 429,252 429,252 430,253 430,253 430,253 432,253 432,253 432,253 434,253 435,253 436,253 436,253 437,252 437,252 437,252 437,252 437,252 438,252 438,252 438,252 438,252 439,252 439,252 439,252 440,253 440,253 440,253 441,253 441,253 442,253 442,253 443,253 443,253 443,253 443,253 445,253 445,253 446,254 447,256 448,256 448,257 448,257 449,258 449,258 449,258 449,258 448,259 448,259 447,261 447,261 446,261 446,261 445,261 445,261 445,262 445,262 445,262 445,262 445,262 445,262 445,262 444,262 444,262 444,262 444,262 444,262 444,262 443,262 443,262 443,262 443,262 443,262 442,262 442,262 442,262 441,263 440,263 440,263 440,263 440,264 440,265 439,267 438,268 438,268 439,268 439,268 439,268 439,268 439,268 439,269 438,269 438,269 438,269 439,269 440,270 440,270 440,270 440,270 440,270 440,270 440,271 440,271 440,272 440,272 440,272 440,272 440,272 440,273 440,273 440,273 440,273 440,273 440,273 441,274 441,274 442,274 442,274 442,274 442,274 443,275 444,275 444,274 445,274 445,274 445,274 446,275 448,275 451,276 452,276 452,276 452,275 452,275 452,275 452,275 452,275 452,275 453,275 453,275 453,275 453,275 453,275 453,274 453,274 454,274 454,274 454,273 454,273 454,273 455,273 455,273 455,273 456,273 457,273 458,273 459,273 459,273 464,274 464,274 464,274 464,274 465,273 465,273 465,273 465,273 466,273 466,273 466,273 466,273 467,273 467,273 467,273 468,274 468,274 468,274 468,274 469,274 469,274 470,274 470,274 471,274 471,274 471,274 471,275 472,274 473,274 475,274 475,274 475,274 475,274 475,274 476,275 476,275 476,275 477,275 477,276 477,276 478,276 478,276 478,276 479,276 479,276 480,276 480,276 480,276 481,276 481,276 481,276 481,276 482,276 482,276 483,277 483,277 483,277 484,277 484,277 485,277 485,277 487,277 487,277 487,277 487,277 487,277 488,277 488,277 488,278 489,278 490,278 490,278 491,278 491,279 491,279 491,279 491,279 490,279 490,279 490,279 490,279 490,279 490,280 490,280 489,280 489,280 489,280 489,280 489,280 488,280 488,281 488,281 488,281 488,281 488,281 487,281 487,281 487,281 487,281 487,282 487,282 487,282 487,283 487,283 487,283 486,283 486,283 486,284 486,284 486,284 486,284 486,284 486,284 485,284 485,284 485,284 485,285 485,285 486,285 486,285 486,286 486,286 486,286 486,286 486,287 486,287 486,287 486,287 487,288 486,289 487,289 487,289 487,290 487,290 487,290 487,290 487,290 487,290 487,290 487,290 488,291 488,291 488,291 488,291 488,291 488,291 488,291 488,291 489,291 489,291 489,291 489,292 490,292 490,292 490,292 490,292 490,292 490,293 491,293 491,293 491,293 491,293 492,294 492,294 492,294 492,294 492,295 493,295 493,296 494,296 494,296 494,296 494,296 494,296 495,296 495,296 495,296 495,297 495,297 496,297 496,297 496,297 496,297 496,297 497,297 497,298 497,298 497,298 497,299 497,299 497,299 497,299 497,299 497,299 497,300 497,300 497,300 497,300 498,301 499,301 499,301 499,301 499,301 499,302 499,302 499,302 500,302 500,302 500,302 500,302 500,302 500,302 500,303 500,304 500,304 500,305 500,305 500,305 500,306 500,306 500,306 500,306 500,307 500,307 500,307 499,307 499,307 499,308 499,308 499,308 498,308 497,308 497,309 497,309 497,309 497,309 497,309 495,309 495,310 495,309 495,309 494,309 494,309 493,309 493,310 491,310 491,310 490,310 489,311 489,311 489,311 487,310 486,309 486,309 485,309 485,309 485,309 483,309 481,310 481,310 481,310 480,310 480,310 480,310 480,310 480,310 479,310 479,310 479,310 478,310 478,310 478,309 478,309 477,309 476,309 476,309 476,309 476,309 476,309 476,309 475,309 473,310 473,310 473,310 472,310 472,310 472,310 472,310 472,310 472,310 471,311 471,311 471,311 470,311 470,311 470,311 470,311 470,311 469,311 469,311 469,311 469,311 469,311 468,311 468,311 468,311 468,311 468,311 467,311 467,311 467,311 467,312 467,312 465,312 465,313 464,313 464,313 464,313 464,313 464,313 464,313 463,314 463,314 463,314 463,314 462,315 462,315 462,315 462,315 461,315 461,315 461,315 461,315 460,315 459,315 459,314 458,314 458,314 458,314 458,313 457,313 456,313 455,313 455,313 454,313 454,313 454,313 454,313 454,312 454,312 454,312 453,312 453,312 453,312 453,312 453,312 453,312 452,312 452,312 452,312 451,312 451,312 451,312 450,312 450,312 450,312 450,312 450,312 449,312 449,312 449,312 448,312 448,312 448,312 447,312 447,312 447,312 446,312 446,312 445,312 445,312 445,312 445,312 444,312 442,312 442,312 442,312 441,312 441,312 442,312 442,312 441,311 441,311 441,311 441,311 441,311 441,311 441,311 441,311 441,310 441,310 441,310 441,310 441,310 440,310 440,310 440,310 440,310 440,310 440,310 440,310 440,310 440,310 439,310 439,309 439,309 439,309 438,309 438,309 438,309 438,309 438,310 438,310 437,310 437,310 436,310 436,310 435,310 435,310 435,310 435,310 434,310 434,310 434,310 434,311 434,311 434,311 433,311 433,311 433,311 432,311 432,312 432,312 432,312 431,312 431,313 431,313 431,313 431,313 431,313 431,314 431,314 431,314 431,314 431,314 431,315 431,315 430,316 430,316 430,316 430,316 430,316 429,316 429,317 429,317 429,318 428,318 428,319 428,319 428,320 428,320 427,320 427,320 426,321 426,321 426,321 426,321 426,321 426,322 425,322 425,322 426,323 426,323 426,323 426,323 426,323 426,323 424,324 424,324 423,325 423,325 423,325 422,325 422,325 421,325 421,325 420,325 420,325 419,326 419,326 419,326 418,326 418,326 417,327 417,327 417,327 416,327 416,327 416,327 416,328 415,328 415,328 415,328 414,329 413,329 413,329 413,329 412,330 412,330 411,331 411,331 412,331 412,331 412,331 412,332 412,332 412,332 412,332 412,333 412,333 412,333 412,334 412,334 412,334 411,335 411,335 411,335 411,335 410,335 410,335 410,335 410,335 409,336 409,336 408,336 408,336 408,336 408,337 408,337 408,337 408,337 408,337 408,337 408,337 407,338 407,339 406,339 406,339 406,339 406,339 406,339 406,339 405,339 405,340 405,340 405,340 405,340 405,340 405,341 405,342 405,342 405,342 405,342 405,343 405,343 405,343 405,343 405,343 405,344 404,344 404,344 404,344 404,345 404,345 404,345 403,345 403,345 403,345 403,346 403,346 403,346 403,346 403,346 403,347 403,347 403,347 403,347 403,347 402,348 402,348 402,348 402,348 402,348 402,348 402,348 403,348 403,348 403,349 403,349 403,349 403,349 403,349 404,349 404,349 404,349 404,349 404,350 404,350 405,350 405,350 405,350 405,351 405,351 405,351 405,352 405,352 405,352 405,352 405,352 405,352 405,352 405,352 405,353 405,353 405,353 405,353 405,354 405,354 404,356 404,356 404,356 404,356 403,356 403,357 403,357 403,357 403,357 403,357 403,358 403,358 403,358 403,358 402,358 402,359 402,359 402,360 402,360 402,361 402,361 402,362 402,362 401,362 401,362 401,363 401,363 401,364 401,364 401,364 401,364 401,364 400,365 400,365 399,365 398,366 398,366 397,366 397,366 397,366 397,367 396,367 396,368 396,368 396,368 396,368 396,368 395,368 395,368 394,368 394,368 393,368 390,368 389,368 388,368 388,368 388,368 387,368 387,368 386,368 386,368 385,368 385,368 384,367 384,367 383,366 383,366 383,366 382,365 382,365 381,365 381,365 381,364 381,364 380,364 380,364 379,364 379,364 379,364 379,362 378,361 378,361 375,361 375,361 375,360 375,360 374,360 374,360 373,360 373,360 373,360 373,359 372,359 372,359 372,359 371,358 371,358 371,358 371,358 371,358 371,358 371,358 371,358 371,358 371,358 370,358 370,358 370,358 370,358 370,357 369,357 369,357 368,358 368,358 367,357 366,357 366,358 365,358 365,357 365,357 365,357 365,357 364,357 363,357 363,357 363,357 362,357 361,357 361,357 361,357 360,357 360,357 360,357 359,357 358,357 358,357 357,357 357,357 357,357 356,357 356,357 356,357 355,357 354,357 354,357 354,357 353,357 353,357 353,357 353,357 353,357 352,357 351,357 351,357 350,357 350,357 350,357 350,357 349,357 349,356 348,356 348,356 348,356 348,356 347,356 346,356 346,356 346,356 346,356 346,356 346,355 346,355 346,355 346,355 346,355 345,355 345,355 345,355 345,355 344,354 344,354 344,354 344,354 344,354 344,354 344,354 343,353 343,353 343,353 341,353 341,353 341,353 341,353 341,353 340,352 340,352 340,353 340,353 339,353 339,353 339,353 339,353 339,353 338,353 338,353 337,353 337,353 337,353 336,353 336,353 336,353 336,353 336,353 336,353 336,353 335,354 333,354 333,354 333,354 332,354 332,354 331,354 330,354 330,354 330,354 328,353 327,353 327,352 326,352 326,352 325,352 325,352 325,352 325,352 324,351 323,348 323,347 323,347 323,346 322,345 322,345 322,345 322,344 322,344 323,344 323,344 323,343 324,343 325,343 325,343 325,343 325,343 325,342 324,342 324,342 324,341 324,341 324,341 324,341 324,339 324,339 324,339 324,339 324,339 324,339 324,338 324,338 324,338 324,337 324,337 324,337 324,337 324,336 323,336 323,336 323,336 323,334 323,334 323,334 324,333 324,333 324,333 324,333 324,332 324,332 324,332 324,332 324,332 324,331 324,330 324,330 324,330 324,330 323,330 323,329 323,329 323,329 323,329 323,329 323,329 324,329 324,328 324,328 324,328 324,328 324,327 324,327 324,327 323,327 323,327 323,327 324,326 324,326 324,326 324,326 324,325 324,325 324,325 324,325 324,325 324,325 324,325 324,324 324,324 324,324 324,324 324,324 319,320 311,316 311,316 309,316 308,316 304,316 302,317 300,318 299,319 299,319 299,317 298,316 298,315 297,315 297,314 297,314 296,313 296,313 294,312 294,311 293,311 293,311 293,311 292,311 292,311 290,311 290,311 289,311 289,311 289,311 289,311 289,311 288,311 288,310 288,310 288,310 288,310 288,310 288,310 288,309 289,309 289,309 290,308 289,308 289,308 288,308 287,308 286,307 286,307 285,307 284,307 283,307 282,306 282,306 282,306 282,306 282,306 281,306 281,306 281,306 281,305 281,305 280,305 280,305 279,305 279,305 279,305 279,305 278,305 277,305 277,305 276,305 276,305 276,305 276,305 275,304 275,304 275,304 275,304 275,304 275,304 275,304 275,304 275,304 274,304 274,303 274,303 274,303 274,303 273,303 273,303 273,303 272,302 272,302 272,301 272,301 272,301 272,301 272,301 272,300 272,300 273,300 273,299 273,299 274,299 274,298 274,298 274,298 274,298 274,298 274,298 274,298 275,298 275,298 275,298 275,297 275,297 276,297 276,297 276,297 276,297 276,297 277,297 277,297 277,297 278,296 278,296 278,296 278,296 278,295 278,295 278,295 278,295 277,295 277,294 277,294 277,293 276,293 276,293 276,293 276,293 276,292 276,292 275,292 275,292 275,292 275,292 275,291 275,291 275,291 275,291 274,291 274,291 272,291 271,290 271,290 269,291 269,291 268,290 268,290 268,290 268,290 268,289 268,289 267,289 266,289 265,289 265,289 265,289 265,289 265,289 264,289 264,289 264,289 264,289 263,289 263,289 262,290 262,290 262,290 261,290 261,291 261,291 261,291 260,291 260,291 260,291 260,291 259,291 259,291 259,291 259,291 258,292 258,292 257,292 257,292 257,292 257,292 257,292 257,292 256,292 256,292 256,292 256,292 256,292 256,292 256,291 256,291 256,291 256,291 255,291 255,291 255,291 255,291 255,291 255,291 255,291 255,291 255,291 255,291 255,291 255,290 255,290 254,290 254,290 249,289 249,289 249,289 248,289 248,289 248,289 248,289 247,288 247,288 246,288 246,288 246,288 245,289 245,289 245,289 245,289 245,289 245,289 244,289 244,288 244,288 244,288 243,288 243,287 243,287 243,287 243,287 242,287 242,287 242,287 242,287 241,287 241,286 241,286 241,286 240,286 240,286 240,286 240,286 240,286 240,286 240,285 238,284 238,284 238,284 238,284 237,282 237,282 238,280 237,279 237,279 237,278 237,277 236,277 236,277 236,276 235,275 235,275 234,275 234,274 234,274 234,274 233,274 233,274 232,274 231,273 231,273 230,273 230,273 230,273 230,273 230,273 230,273 229,273 229,272 229,272 229,272 229,271 229,270 229,270 229,270 229,269 229,269 228,269 228,269 228,269 228,269 228,269 227,269 227,268 227,268 227,268 227,267 227,267 227,267 227,267 227,266 227,266 227,266 227,265 226,264 226,264 226,263 225,263 225,263 225,263 225,263 224,262 224,262 223,262 223,262 223,262 223,262 223,261 223,261 223,261 223,261 222,261 222,260 222,260 220,259 220,259 219,258 218,257 218,257 218,257 216,256 216,256 215,256 215,256 215,256 215,256 214,257 213,257 213,257 213,257 212,257 210,257 209,257 209,257 208,257 207,256 207,256 205,256 205,256 204,256 204,256 203,256 203,256 203,256 202,256 202,256 202,256 202,256 201,255 201,255 201,255 201,255 201,255 200,255 200,255 199,254 198,253 198,253 198,253 196,252 196,252 195,252 195,252 195,252 195,252 195,252 195,252 195,252 194,251 194,251 194,251 194,251 193,251 193,251 193,251 192,250 190,252 190,252 190,252 190,252 190,252 190,252 189,252 189,253 189,253 188,253 188,253 188,253 187,253 187,253 187,254 187,254 187,254 186,253 186,253 186,253 186,253 186,253 185,253 184,253 184,253 184,253 183,253 183,253 182,254 182,254 181,254 181,255 181,255 181,255 179,254 178,254 178,254 178,254 178,255 178,255 178,255 178,255 178,255 178,255 178,255 177,255 177,255 176,256 176,256 173,257 173,257 173,257 173,257 173,257 173,257 173,257 172,257 172,257 172,257 172,257 172,257 172,257 172,257 172,257 172,257 172,257 172,257 171,257 171,257 171,257 171,257 171,257 171,257 171,257 170,257 170,257 170,257 169,257 169,257 169,257 169,257 169,257 168,257 168,257 168,257 167,257 167,257 167,257 167,257 166,257 166,257 166,257 166,258 166,258 165,258 165,258 165,258 165,257 165,257 164,257 164,256 164,256 164,256 163,256 163,256 163,256 162,256 162,255 162,255 162,255 161,255 161,255 161,255 160,256 160,256 161,256 161,256 160,257 160,257 160,257 160,258 160,258 159,258 159,258 159,258 159,258 159,258 159,259 159,259 159,259 158,260 158,260 157,260 157,260 157,260 156,260 156,261 156,261 156,261 156,261 156,261 156,261 155,261 155,261 155,261 154,261 154,261 154,262 154,262 154,262 153,262 153,262 153,262 153,262 152,262 151,262 149,261 149,261 149,261 149,261 149,261 149,261 149,261 148,261 148,261 148,261 148,261 147,261 147,261 147,261 147,261 143,260 143,260 142,260 142,261 142,261 141,261 141,261 141,261 141,261 141,261 140,260 140,260 140,260 140,260 139,260 139,260 139,260 139,259 139,259 139,259 139,259 139,259 139,259 139,259 139,259 139,259 138,259 138,259 138,259 138,259 137,259 137,259 137,259 137,259 136,259 136,259 136,259 136,259 136,259 136,259 135,259 135,259 135,259 135,259 135,259 135,259 135,259 135,260 135,260 135,260 134,260 134,260 134,260 134,261 134,261 134,261 134,261 134,261 134,261 133,261 133,261 133,261 133,261 133,261 132,261 132,261 132,261 132,261 132,261 131,261 131,261 131,261 131,261 131,261 130,261 131,261 131,261 130,261 130,261 130,261 130,261 129,261 129,262 128,262 128,262 128,262 128,262 127,263 127,263 127,263 126,263 125,262 125,262 123,262 123,262 123,262 122,262 122,262 120,262 118,264 116,264 114,265 113,267 113,267 112,267 112,267 109,266 109,266 108,267 108,266 108,266 107,265 107,265 107,265 107,265 107,265 107,265 107,264 107,264 106,264 106,264 106,263 106,263 106,262 106,261 106,260 106,260 105,259 105,259 104,259 104,259 104,259 104,259 103,259 102,258 100,257 100,257 100,257 100,257 99,257 99,257 99,257 98,257 98,257 97,256 97,256 96,256 96,256 96,257 95,257 95,257 95,257 94,257 94,257 93,257 93,257 93,257 93,257 92,257 92,257 92,257 92,257 92,257 91,258 91,258 91,258 91,258 90,257 90,257 90,258 90,258 89,257 89,257 89,257 88,257 88,257 88,257 87,257 87,257 87,257 87,257 87,257 86,257 86,257 86,257 86,257 86,257 86,257 85,257 85,257 85,257 85,257 85,257 84,257 84,257 84,257 84,257 84,257 84,257 83,257 83,256 83,256 83,256 83,256 81,256 80,255 80,255 79,255 79,255 79,255 79,255 79,255 78,255 78,255 78,255 78,254 78,254 78,254 78,254 77,251 77,251 75,249 74,247 74,247 74,247 74,247 74,247 74,247 72,245 71,243 70,242 70,242 70,241 70,241 70,241 70,240 70,240 70,240 70,239 69,239 69,239 69,239 69,239 69,239 69,239 69,238 69,238 69,238 69,238 68,238 68,237 68,237 68,237 67,237 67,237 67,237 67,237 67,237 66,236 66,236 66,236 66,236 66,236 66,236 65,235 65,235 65,235 65,235 65,235 65,235 64,235 64,235 64,235 64,235 63,234 63,234 63,234 63,234 63,234 63,234 63,234 63,234 63,234 63,234 63,234 62,234 62,233 62,233 62,233 62,233 62,233 62,232 62,232 62,232 62,232 62,231 62,231 61,231 61,231 61,231 61,231 60,231 60,231 60,230 60,230 59,230 59,230 59,230 59,230 59,230 59,230 59,230 59,230 58,230 58,230 58,230 58,230 58,230 58,230 57,229 57,229 56,228 56,228 56,228 56,228 56,228 56,228 56,227 55,227 55,227 55,227 55,227 55,226 55,226 55,226 55,226 54,225 54,225 53,225 53,225 53,225 52,225 52,225 52,225 52,224 52,224 51,224 51,225 51,225 50,225 50,226 50,226 50,226 50,226 50,226 50,226 50,226 50,226 50,226 49,227 49,227 49,227 49,227 49,227 49,227 49,227 48,228 48,228 47,228 47,229 47,229 47,228 46,228 46,228 45,226 44,225 41,227 41,227 34,230 28,232 27,232 23,234 18,232 18,232 18,232 17,232 17,232 17,232 17,233 16,233 15,233 15,233 15,233 15,231 16,230 16,230 14,229 14,229 12,230 12,230 12,231 11,231 11,231 11,231 11,231 11,231 11,231 11,231 11,231 7,231 7,231 5,231 5,231 4,231 4,230 4,230 4,229 4,229 4,229 1,229 1,229 1,228 0,226 0,226 2,225 2,225 2,225 2,225 2,224 2,224 1,223 1,223 0,223 0,223 1,222 2,220 2,220 2,220 2,218 3,216 4,213 4,213 3,212 3,212 3,212 3,211 2,211 2,211 2,211 1,210 1,210 0,209 0,208 1,208 1,207 1,207 1,207 1,206 1,206 1,206 1,205 1,205 1,205 2,205 2,204 3,204 3,204 3,203 4,202 4,202 5,201 5,201 6,201 6,201 6,201 6,200 6,200 10,197 10,197 7,193 7,193 7,193 7,193 7,190 7,190 7,190 8,190 8,190 8,189 8,189 8,189 8,188 8,188 8,188 8,188 8,187 8,187 8,187 8,187 8,186 8,186 8,186 8,186 8,186 8,185 8,185 8,185 8,184 8,184 8,183 8,183 8,183 8,183 8,183 9,182 9,182 11,181 11,181 11,181 11,181 11,181 11,181 12,181 13,180 13,180 13,180 14,180 14,180 14,180 14,180 15,180 15,180 15,180 15,180 15,180 15,180 15,180 15,179 16,179 16,179 16,179 17,178 17,178 17,177 17,177 17,176 17,176 17,176 17,176 17,176 17,176 16,175 16,175 16,175 16,175 16,175 16,175 16,174 16,174 15,174 15,174 15,174 15,174 15,174 16,173 16,173 16,172 16,172 16,172 17,170 17,170 17,170 18,170 18,170 18,170 19,169 19,169 19,169 20,169 20,168 21,167 21,167 21,167 21,167 21,167 21,166 21,166 21,166 21,166 22,165 22,165 21,164 21,164 21,164 21,163 21,163 20,163 20,163 20,163 19,162 18,162 18,162 18,162 16,160 16,160 15,160 15,160 15,160 15,160 14,160 14,159 11,158 11,158 11,158 12,157 13,157 12,156 12,153 11,149 11,149 7,143" id="7305" class="canton" fill="steelblue" stroke-width="1" stroke="white" geotype="canton" geoname="Bourg-Saint-Maurice" code_insee="7305" code_departement="73" nom_departement="Savoie" code_region="84" nom_region="Auvergne-Rhône-Alpes"/></svg>