<?xml version="1.0" encoding="utf-8"?>
<svg version="1.1" id="svgmap" xmlns="http://www.w3.org/2000/svg" xmlns:xlink="http://www.w3.org/1999/xlink" x="0px" y="0px" width="100%" height="100%" viewBox="0 0 482 500">
<polygon points="0,299 2,298 3,298 4,298 6,298 7,298 6,296 6,294 6,293 7,292 7,292 8,292 8,290 8,289 9,289 10,289 11,289 11,288 12,288 12,287 13,286 14,286 15,285 16,283 18,281 21,280 20,278 20,277 22,274 23,273 21,272 21,266 13,262 10,258 11,248 7,246 5,238 13,231 18,230 22,225 25,222 26,222 26,221 25,220 24,219 23,218 26,217 29,217 29,217 32,215 35,213 38,211 42,210 42,208 43,205 42,200 42,199 44,198 49,197 55,197 62,196 62,195 67,194 68,193 71,192 74,192 77,191 78,189 80,189 84,190 87,189 92,185 93,180 92,174 91,169 92,166 93,164 99,159 99,159 99,159 99,158 99,157 98,157 98,156 98,156 98,155 98,155 98,154 98,153 98,153 98,152 98,151 98,150 97,150 97,150 97,148 97,148 97,148 98,147 98,146 99,145 100,144 100,143 101,143 101,142 103,140 107,138 107,138 109,136 110,135 111,134 113,132 113,132 114,131 113,126 113,126 114,126 115,125 115,124 115,124 116,123 116,122 116,121 115,121 116,119 118,114 120,110 115,106 115,106 115,106 117,101 117,100 117,99 116,97 116,95 116,95 115,94 112,92 112,92 112,91 112,90 112,89 113,89 112,88 112,87 111,87 110,86 109,86 109,85 108,84 108,83 108,83 108,82 108,81 109,80 110,79 111,79 112,79 113,78 113,78 113,78 114,77 114,76 114,76 114,76 115,76 115,75 113,75 110,73 110,73 110,72 110,71 111,71 111,70 110,69 109,66 109,65 109,65 109,64 109,64 109,63 109,63 110,61 109,60 109,60 109,59 108,59 108,58 108,58 109,57 110,58 110,58 112,58 114,57 114,57 115,57 117,56 118,56 122,54 123,53 123,52 124,51 129,48 129,47 129,47 130,46 129,46 129,45 128,44 129,43 129,43 129,43 129,43 129,43 129,42 129,42 129,40 129,39 129,38 130,37 130,37 130,37 130,36 130,36 129,36 129,36 129,35 129,35 131,35 131,34 132,34 133,34 133,34 134,35 134,35 134,35 134,34 135,34 136,33 137,33 137,33 138,33 139,33 139,33 140,33 140,33 144,33 145,33 145,32 147,32 147,31 148,29 149,29 149,29 149,29 150,28 150,28 152,29 153,29 154,29 154,29 157,28 160,28 163,28 169,28 169,28 180,27 180,27 184,28 184,28 194,31 194,31 205,33 213,34 214,34 216,34 216,33 216,33 216,32 216,32 217,32 217,32 217,32 218,31 219,31 220,30 220,29 221,29 222,29 224,27 225,27 225,27 225,26 226,26 227,25 227,25 227,25 227,24 227,24 227,24 228,23 227,22 227,22 227,21 227,21 227,20 226,20 226,19 226,18 226,18 226,17 226,17 226,17 227,17 227,17 228,17 228,16 229,16 230,16 230,16 230,16 231,16 231,16 231,16 232,16 233,15 233,15 233,14 234,14 234,13 234,13 234,12 235,12 235,11 235,10 236,7 236,6 236,5 236,5 236,5 237,4 238,4 238,3 239,2 239,2 239,1 239,1 240,0 240,0 242,1 244,2 245,3 246,3 246,3 247,4 247,4 248,4 248,4 248,4 248,4 249,5 249,5 249,5 250,5 250,6 252,7 252,7 253,7 254,7 254,7 255,7 255,7 256,8 256,8 256,8 256,8 257,8 257,8 258,8 258,8 259,9 260,9 261,9 262,9 262,9 263,9 263,10 264,10 265,10 265,10 267,10 267,10 268,10 268,10 269,10 270,10 271,11 271,11 273,11 273,11 274,11 274,11 275,12 275,12 275,12 276,13 276,13 276,13 277,14 277,14 280,16 281,16 281,17 282,20 283,22 283,22 284,23 284,23 284,24 284,25 284,26 284,26 284,26 284,28 284,28 284,28 284,28 286,29 287,30 288,30 292,31 293,29 294,29 294,29 298,28 298,28 298,27 298,27 299,27 300,26 300,26 302,25 302,24 305,22 306,22 306,22 305,21 306,20 308,20 308,20 311,18 311,18 312,16 317,16 317,16 318,16 318,16 318,14 318,14 320,12 324,10 324,10 327,6 327,6 331,3 334,1 335,1 339,1 346,5 347,6 352,8 353,9 358,11 359,11 367,16 367,16 368,16 369,16 370,16 370,16 371,16 380,18 383,19 384,20 385,20 386,20 387,20 388,22 388,22 393,22 394,22 396,22 399,22 399,22 400,22 400,23 402,24 402,24 403,24 404,25 405,25 406,25 408,25 408,25 414,25 414,25 417,26 417,26 423,27 424,32 427,35 420,37 420,38 420,38 419,38 419,38 419,38 418,38 418,39 418,39 417,39 417,39 417,39 417,39 416,39 416,40 416,40 416,41 415,41 415,41 412,46 412,46 412,46 412,46 411,47 411,47 411,47 411,48 411,48 411,48 411,48 410,49 410,49 410,50 410,50 410,50 409,50 409,51 409,51 409,51 409,52 408,52 408,52 404,57 404,58 402,59 402,59 402,59 403,60 403,60 402,60 402,60 402,61 402,61 401,61 401,62 401,63 401,63 401,63 401,64 400,64 400,64 400,64 399,63 398,64 398,64 397,64 397,65 396,65 396,65 396,65 396,66 396,72 395,72 395,72 395,73 394,73 394,74 394,74 393,74 392,74 392,74 391,74 390,76 390,76 390,76 390,76 389,77 390,77 390,77 390,77 390,77 390,77 389,77 389,77 389,77 389,77 389,78 389,78 389,78 389,78 389,78 388,78 389,79 389,79 389,79 389,80 389,80 390,80 390,80 391,81 391,81 391,81 391,81 390,82 390,83 391,83 391,84 391,85 391,85 391,85 391,85 391,85 391,86 391,86 391,87 391,87 391,87 393,88 393,88 393,88 393,88 393,89 393,90 392,91 392,91 392,91 392,91 392,93 392,93 392,93 392,93 393,93 393,94 394,94 394,94 395,94 396,95 396,96 397,96 397,96 397,97 397,97 397,97 398,98 398,98 398,98 401,98 401,98 401,98 401,99 401,99 402,99 402,99 402,99 402,99 403,101 403,102 404,103 404,103 404,104 405,104 406,105 406,105 406,105 406,105 406,105 407,106 407,106 408,106 408,106 409,106 409,106 409,107 409,107 409,107 409,108 409,108 409,109 409,109 409,109 410,109 410,109 410,109 410,109 410,109 411,110 411,110 411,110 410,111 410,111 409,112 409,112 409,113 409,114 409,114 409,114 409,114 408,115 408,115 408,115 409,115 409,115 409,115 409,116 409,116 409,116 409,116 409,116 409,117 409,117 409,117 410,118 410,118 410,118 410,119 410,119 410,119 409,119 409,119 409,119 409,119 408,120 408,121 407,123 406,124 406,125 405,127 404,128 403,130 403,130 403,131 404,132 404,133 404,133 404,135 404,136 404,136 403,136 402,138 402,138 401,141 401,141 401,141 402,141 402,141 402,141 405,142 405,142 405,142 406,142 407,142 407,144 407,144 407,144 407,145 408,146 410,147 410,148 410,148 411,148 412,149 413,149 413,149 414,149 414,150 415,150 415,150 415,150 416,150 416,150 416,151 416,151 417,151 417,152 417,152 417,152 418,153 419,153 420,153 420,153 421,153 422,153 422,153 423,153 424,153 424,153 425,153 426,153 427,153 428,154 429,154 429,154 429,153 430,153 430,154 430,154 432,155 433,155 433,156 434,156 434,157 435,157 435,157 436,158 437,158 437,158 438,159 439,159 439,159 439,160 439,160 440,160 440,160 440,160 440,160 441,161 441,161 441,161 441,161 441,162 441,162 440,163 440,164 439,166 439,166 439,167 439,167 439,168 438,169 438,169 438,170 438,170 439,170 439,170 439,171 439,171 439,171 440,172 441,172 441,172 442,172 443,173 443,173 443,173 443,174 443,174 443,175 444,175 444,175 445,176 445,176 446,177 446,177 447,177 447,177 447,178 447,178 447,178 447,178 447,179 447,179 446,180 446,181 446,182 446,183 446,183 446,183 447,184 447,184 447,185 448,185 448,185 448,185 448,185 448,185 449,185 449,185 450,185 450,185 451,185 453,185 454,185 454,185 456,185 456,185 457,185 457,185 457,185 457,185 457,185 457,186 458,186 458,186 458,187 459,187 459,187 459,187 460,188 460,188 460,188 460,189 460,189 460,189 461,189 462,190 462,190 463,191 463,191 465,192 465,192 465,192 466,192 466,192 467,192 468,193 469,194 469,194 471,195 471,195 472,195 472,195 473,195 474,195 475,195 475,195 475,196 476,196 476,196 476,196 476,196 477,196 476,196 476,197 476,197 476,198 476,198 477,198 477,199 477,199 477,199 477,199 478,200 478,200 478,200 477,201 477,201 477,201 477,201 478,201 478,202 478,202 477,203 477,203 477,204 477,204 477,204 476,204 476,205 476,205 476,205 476,205 476,206 476,207 476,207 476,207 476,208 476,208 476,208 477,209 477,209 477,209 477,210 478,210 479,211 479,211 479,211 479,211 479,211 479,211 479,212 479,212 479,213 479,213 479,214 479,214 479,214 479,215 479,215 479,215 479,216 479,216 480,216 480,216 480,216 480,217 480,217 480,218 480,218 480,218 480,219 480,219 481,219 481,219 481,220 481,220 481,220 482,220 481,220 481,221 481,221 481,223 481,224 481,224 481,224 481,224 480,225 480,225 481,225 481,225 481,225 481,226 481,226 481,226 481,226 481,227 481,228 480,229 481,230 481,231 481,231 481,231 481,232 481,232 481,233 481,233 481,234 481,234 481,234 481,234 480,235 480,235 478,237 478,238 478,238 478,239 478,239 478,239 477,240 477,240 477,240 477,241 477,241 477,242 477,242 477,242 477,242 477,242 477,243 477,243 476,243 476,244 476,244 476,244 476,244 476,246 476,246 475,248 475,248 474,249 473,250 472,250 471,251 471,251 471,251 471,252 470,254 471,255 471,256 472,257 473,258 473,258 474,259 474,259 474,261 474,262 474,262 474,262 474,262 474,263 473,263 473,263 472,264 472,264 471,264 471,264 470,265 468,266 468,267 468,267 469,272 470,275 470,276 470,276 470,277 471,277 471,278 472,278 471,279 471,280 469,281 466,284 466,285 466,287 465,289 464,289 463,290 463,290 463,290 462,290 461,290 460,290 459,290 459,290 458,291 458,291 457,291 456,291 455,292 454,294 452,296 451,297 450,300 451,301 451,301 452,301 453,301 453,302 454,302 454,303 454,303 454,304 454,304 454,304 454,304 454,305 453,306 454,307 454,307 454,308 455,309 456,309 456,310 458,311 458,311 459,311 459,311 460,311 461,312 461,312 462,312 463,312 463,312 464,312 464,312 465,312 465,311 465,311 466,311 467,311 467,311 468,311 469,312 469,312 470,312 471,312 471,313 471,313 471,313 472,314 471,315 470,323 471,323 471,323 472,323 472,323 472,323 472,323 472,323 473,323 474,323 475,323 475,324 475,324 475,325 475,326 475,326 475,326 474,326 474,326 475,327 475,327 475,328 475,328 474,328 474,328 475,328 475,328 474,329 474,329 474,329 474,329 473,330 473,330 473,330 473,330 473,331 473,331 473,332 473,333 473,333 473,334 472,335 470,337 469,337 468,338 468,339 468,341 467,342 464,346 462,349 462,349 462,349 462,350 462,350 462,350 462,350 461,350 460,351 459,351 459,352 459,352 459,353 459,353 459,354 458,354 458,355 458,355 459,355 459,356 459,357 459,357 458,357 458,358 458,358 458,358 459,359 460,359 460,359 460,359 461,360 461,360 461,360 461,361 460,361 460,361 460,361 460,362 460,362 460,362 460,362 460,363 460,363 461,363 461,363 461,364 461,365 460,365 460,365 460,365 460,365 460,365 460,366 460,367 459,368 459,369 460,370 460,370 460,371 459,371 458,371 458,372 457,372 457,372 457,373 457,373 453,374 449,375 449,375 441,376 440,377 440,377 440,377 440,377 439,377 439,377 439,377 439,378 439,378 439,378 438,378 438,378 438,378 438,378 438,378 437,378 437,378 436,379 436,378 436,379 436,378 435,379 435,379 432,380 430,380 424,380 419,380 418,380 417,380 416,381 416,381 414,382 411,381 409,382 408,382 407,382 406,383 406,383 406,383 406,383 406,383 406,383 405,384 405,384 405,384 404,384 404,384 404,385 404,385 403,385 403,385 401,385 399,386 397,386 396,387 396,387 396,388 396,388 396,388 395,388 395,388 394,389 394,389 394,389 394,389 393,389 393,389 392,389 392,389 392,389 391,389 391,389 390,390 389,390 389,391 388,391 388,391 388,391 387,392 387,392 387,392 386,392 386,392 385,392 382,392 382,393 381,393 381,393 379,393 378,393 378,393 378,393 377,393 377,393 377,393 377,393 377,393 374,393 374,393 368,393 368,393 368,393 367,394 367,394 367,395 367,396 367,396 366,396 366,397 366,397 366,397 365,397 365,397 365,397 364,398 364,398 363,398 363,398 363,398 363,398 363,398 363,398 362,399 362,399 362,400 362,400 361,402 361,402 360,402 360,403 360,403 360,403 360,403 360,405 359,405 359,406 358,406 358,406 358,406 358,407 358,407 358,407 357,407 357,407 357,408 356,408 356,408 356,408 355,410 355,410 356,411 356,411 356,412 356,413 356,413 356,414 355,415 355,415 355,416 356,416 356,417 356,417 356,417 356,417 356,418 355,418 355,419 355,419 355,420 355,420 354,420 354,420 354,420 353,420 353,420 352,421 352,421 352,421 352,421 352,422 351,422 351,422 351,422 350,423 350,423 349,424 348,424 348,424 347,425 347,426 347,426 346,427 346,427 346,427 347,428 347,428 347,429 348,429 348,430 348,430 348,430 349,431 349,431 349,431 349,431 349,431 349,432 349,432 349,432 349,432 349,432 349,433 348,433 348,433 348,433 348,434 347,434 347,434 347,435 347,435 347,435 346,435 346,435 346,435 346,436 346,436 346,436 346,436 346,436 346,436 345,436 345,437 345,437 345,437 345,437 344,437 344,437 344,437 344,437 344,438 344,438 344,438 344,438 343,438 343,438 342,439 342,439 343,440 343,440 343,441 343,441 343,441 343,442 342,442 342,442 343,442 343,442 343,442 344,443 344,444 344,444 344,444 344,444 344,445 345,445 345,445 345,446 345,446 345,447 346,448 346,448 346,448 346,448 347,449 347,449 346,449 346,450 346,450 346,450 346,450 346,451 345,451 345,452 345,452 345,453 345,453 345,454 345,454 345,455 345,455 344,455 344,456 344,456 344,456 344,457 344,457 344,457 344,457 344,457 344,458 344,458 344,458 344,459 344,459 344,459 344,459 344,459 344,459 344,459 345,461 345,461 345,462 345,462 345,462 344,462 344,462 343,463 343,463 343,463 342,463 342,463 342,464 342,464 342,464 341,464 341,464 341,464 341,464 341,464 341,464 340,464 339,464 339,464 339,464 339,464 338,464 338,464 338,464 337,464 336,464 336,464 335,464 334,464 334,464 333,464 333,464 333,463 333,463 333,463 332,463 331,463 331,463 330,463 330,463 329,463 325,463 323,464 323,464 322,464 321,464 320,465 319,465 318,465 318,466 316,468 316,469 314,470 314,470 314,471 313,472 312,475 311,475 310,476 310,476 310,478 310,478 310,478 310,479 308,479 308,479 308,481 308,481 308,482 307,483 307,484 307,485 306,485 306,485 304,486 302,486 302,486 301,487 300,488 299,488 299,489 299,489 299,489 299,489 298,489 298,489 298,489 297,489 297,490 297,490 297,490 296,490 295,490 295,491 295,491 294,490 293,490 293,491 292,491 292,491 291,491 291,491 291,492 290,492 290,492 289,491 289,491 289,492 289,492 289,492 288,492 287,492 287,493 286,493 286,493 286,493 286,493 285,493 285,494 284,494 285,494 285,494 285,494 285,495 284,495 284,495 284,495 283,495 283,495 282,495 282,495 281,495 280,495 279,495 279,495 278,495 277,495 277,496 276,495 275,495 274,495 274,496 273,496 273,496 273,496 272,496 271,496 270,496 269,497 269,497 268,497 268,497 267,498 266,498 265,498 264,498 263,498 261,499 258,500 257,500 256,500 255,499 254,499 253,499 251,500 250,500 250,500 250,500 248,500 247,499 246,499 245,499 244,499 244,498 241,498 240,498 238,497 238,497 237,497 237,496 237,496 236,495 236,495 235,494 235,494 234,493 234,492 233,492 233,491 233,491 230,491 227,491 226,491 225,490 225,490 224,490 224,490 224,490 223,490 222,490 222,490 222,489 222,489 221,488 220,487 220,487 220,486 214,484 214,484 214,483 213,483 213,481 213,481 211,479 210,479 210,479 210,479 210,478 209,476 209,476 206,474 206,474 206,474 205,473 205,473 204,474 202,473 201,473 201,473 201,473 201,472 201,472 201,471 201,470 201,470 201,469 201,468 201,468 201,468 201,468 201,467 201,466 201,465 201,465 202,465 202,465 206,463 206,463 206,463 206,461 206,461 208,460 208,460 208,460 207,459 208,458 207,456 207,456 207,456 208,455 208,454 207,454 207,453 207,453 207,453 206,453 206,453 205,453 205,453 204,452 204,452 204,451 203,450 203,450 203,450 203,450 202,449 200,449 199,449 199,448 199,448 199,448 199,447 198,447 198,447 198,446 198,446 198,445 197,445 197,445 196,445 196,445 195,445 195,444 195,444 194,444 193,443 193,443 192,442 189,441 186,439 186,439 185,438 185,437 184,437 184,437 184,438 183,439 183,439 171,442 169,443 166,443 166,443 165,443 165,443 165,443 165,443 165,443 165,443 165,443 164,444 164,444 163,445 162,446 162,446 161,446 160,447 159,447 159,447 159,447 158,447 158,447 156,447 156,447 156,447 156,447 156,448 156,448 156,448 155,448 155,448 155,448 154,450 154,450 152,449 151,449 151,449 151,449 148,450 148,450 147,451 147,451 146,452 146,452 145,452 145,452 145,451 145,450 144,450 144,450 144,450 144,450 144,450 143,450 143,450 143,450 143,450 143,449 143,449 143,448 142,447 142,447 141,447 140,447 140,447 140,447 139,447 139,446 138,446 138,446 138,444 138,444 138,443 137,442 137,442 137,441 135,437 134,436 134,435 134,435 134,435 134,435 133,435 133,435 132,434 131,434 131,434 131,434 131,434 130,434 130,434 130,434 129,434 129,433 129,433 129,432 129,431 128,431 121,428 120,428 120,428 119,427 119,427 118,426 118,426 118,426 118,426 117,426 116,426 116,426 115,426 115,426 114,425 114,425 113,425 110,424 108,423 108,423 106,422 106,422 104,422 102,422 102,422 102,422 101,421 101,420 100,420 100,420 98,419 97,419 97,419 95,418 95,418 96,419 96,419 95,419 95,419 95,419 94,419 92,419 92,419 91,419 91,419 88,418 85,417 82,416 81,417 79,418 75,420 72,421 71,422 71,423 70,425 69,426 68,428 68,429 66,430 65,431 64,432 62,432 61,432 60,432 59,433 57,435 56,436 54,437 53,437 50,437 48,437 47,437 47,437 45,436 44,436 43,436 42,436 38,435 33,433 27,432 28,429 31,427 32,423 32,423 32,419 32,419 29,415 29,415 33,413 34,413 34,413 34,412 35,412 35,412 35,412 35,412 35,412 35,412 35,412 36,411 37,411 38,411 39,411 40,411 40,411 41,411 42,411 42,411 42,411 42,409 42,409 42,409 42,409 43,408 43,408 42,406 42,406 42,404 43,403 44,402 45,401 45,401 45,401 45,400 44,399 45,398 45,398 45,398 45,397 45,396 45,396 49,395 49,395 49,393 49,393 52,391 52,391 51,389 51,389 51,389 51,388 50,388 50,388 50,388 50,386 51,385 51,385 52,383 52,383 52,383 52,382 53,382 54,381 51,361 47,360 47,359 46,357 37,354 33,353 28,351 25,350 23,348 23,348 21,347 18,345 18,344 18,343 19,342 18,340 21,339 23,338 25,336 24,335 25,334 24,333 24,331 24,330 22,329 22,329 22,329 22,329 21,329 21,329 21,329 20,329 20,329 20,329 20,328 20,328 20,328 20,328 20,328 19,328 19,328 19,328 19,327 18,327 18,327 18,327 18,327 18,327 18,326 18,326 18,326 18,326 17,326 17,326 16,326 16,326 16,326 16,326 16,326 15,326 15,326 15,326 14,325 14,325 14,325 11,323 8,322 7,321 5,320 3,319 2,317 2,316 2,315 3,314 3,312 2,312 2,310 2,309 3,307 3,306 2,303 1,302 0,300 0,299" id="7317" class="canton" fill="steelblue" stroke-width="1" stroke="white" geotype="canton" geoname="Saint-Jean-de-Maurienne" code_insee="7317" code_departement="73" nom_departement="Savoie" code_region="84" nom_region="Auvergne-Rhône-Alpes"/></svg>