<?xml version="1.0" encoding="utf-8"?>
<svg version="1.1" id="svgmap" xmlns="http://www.w3.org/2000/svg" xmlns:xlink="http://www.w3.org/1999/xlink" x="0px" y="0px" width="100%" height="100%" viewBox="0 0 500 272">
<polygon points="0,149 1,149 2,149 3,148 4,144 6,144 7,144 9,143 13,142 15,141 17,138 17,135 17,134 18,130 20,129 20,129 21,127 22,126 23,125 24,124 24,122 25,121 27,120 29,121 31,120 31,118 31,116 33,115 37,117 40,117 46,116 47,115 50,114 53,114 55,114 57,115 59,114 58,110 56,109 54,107 54,106 54,105 55,104 56,103 56,102 56,102 59,102 63,100 67,99 69,98 72,98 74,98 74,97 75,95 77,94 78,94 81,93 83,91 85,91 88,93 89,93 97,89 98,89 100,90 100,89 97,87 97,84 97,83 103,83 106,83 109,83 112,83 113,82 115,81 112,78 113,76 115,75 116,75 116,76 118,76 119,76 122,73 124,72 125,71 129,67 131,65 132,65 136,65 138,63 140,62 144,62 147,63 151,62 153,62 155,62 159,62 160,63 159,64 165,65 166,66 167,67 169,68 175,71 183,71 184,71 187,70 189,71 189,72 188,73 191,74 193,73 194,74 195,74 195,74 196,74 197,73 200,72 201,72 202,73 202,73 200,74 203,75 204,74 205,73 214,73 218,72 215,60 215,59 216,59 224,62 225,64 225,66 233,70 236,70 240,71 240,71 240,71 243,71 248,72 249,70 249,70 248,70 248,69 246,67 246,66 250,63 257,60 259,59 260,58 263,56 280,42 280,42 283,43 284,43 289,39 289,39 291,37 292,37 292,37 299,35 303,35 316,31 322,28 329,25 331,24 337,23 342,20 342,19 344,19 347,19 353,18 359,15 364,12 367,12 372,11 374,12 375,12 378,13 381,13 385,12 392,9 393,8 395,8 403,6 411,4 412,4 414,4 416,4 417,4 419,3 423,3 434,0 436,5 436,10 431,19 427,25 427,25 428,24 436,33 436,33 441,40 447,38 450,36 454,35 455,35 457,37 459,39 463,38 466,37 467,36 468,37 470,35 471,36 473,36 475,35 476,35 478,36 477,38 479,41 480,44 482,46 486,48 494,54 500,59 495,65 487,73 484,75 479,79 477,80 474,83 474,83 470,86 468,87 469,88 471,90 468,92 459,95 444,103 441,107 438,111 435,113 432,115 432,116 428,122 430,123 432,124 434,121 450,127 448,128 447,130 443,134 424,128 424,126 422,125 406,125 401,133 388,146 386,147 386,147 384,147 373,149 367,151 348,151 341,155 332,157 318,159 310,161 306,161 290,164 286,165 284,167 258,167 259,169 260,171 256,176 255,179 256,183 256,190 258,196 260,199 261,201 262,206 252,205 250,205 249,208 238,212 238,212 237,218 234,221 234,221 232,222 227,226 226,227 206,228 206,237 192,253 190,254 190,256 185,262 183,262 180,263 166,272 160,270 156,267 155,264 153,260 150,256 149,254 147,252 145,248 144,246 141,241 139,239 126,226 122,224 117,222 88,213 83,212 79,212 74,212 70,213 68,214 69,210 71,206 67,205 61,203 59,202 57,201 55,199 53,197 51,196 43,193 39,192 26,190 23,190 21,190 20,190 19,190 17,191 15,191 15,190 15,187 14,186 13,185 24,176 31,172 33,170 35,168 37,165 40,164 36,154 27,156 19,160 15,157 10,155 8,154 8,154 8,151 7,150 6,150 4,150 1,150 0,149" id="7404" class="canton" fill="steelblue" stroke-width="1" stroke="white" geotype="canton" geoname="Annemasse" code_insee="7404" code_departement="74" nom_departement="Haute-Savoie" code_region="84" nom_region="Auvergne-Rhône-Alpes"/></svg>