<?xml version="1.0" encoding="utf-8"?>
<svg version="1.1" id="svgmap" xmlns="http://www.w3.org/2000/svg" xmlns:xlink="http://www.w3.org/1999/xlink" x="0px" y="0px" width="100%" height="100%" viewBox="0 0 500 401">
<polygon points="13,5 17,5 18,5 19,5 21,6 21,6 22,6 22,6 22,6 23,6 23,6 23,6 24,6 24,7 24,7 26,8 31,10 32,10 33,11 35,12 38,13 41,15 43,15 43,15 43,16 47,17 48,17 50,18 50,18 50,18 52,18 52,18 52,18 52,18 52,18 52,18 53,18 53,18 53,18 53,18 53,18 53,18 53,18 53,18 53,18 55,19 59,19 61,19 63,18 63,18 63,18 63,18 63,18 63,18 63,18 63,18 63,18 63,18 64,18 64,18 64,18 64,18 64,18 64,18 64,18 64,18 64,18 64,18 64,18 64,18 65,18 65,18 65,18 65,18 65,18 64,18 64,18 64,18 64,18 64,18 65,17 65,18 65,18 66,18 66,18 66,18 66,18 66,18 66,18 66,17 66,17 66,17 66,17 66,17 67,17 69,17 69,17 69,17 68,17 68,17 68,17 68,17 68,17 68,17 69,17 70,17 70,17 70,17 72,16 72,16 72,16 73,16 73,16 73,16 73,16 73,16 74,16 74,16 75,16 75,15 75,15 76,15 76,15 76,15 76,15 76,15 76,15 76,15 76,15 76,15 76,15 77,15 77,15 78,15 81,15 81,14 81,14 82,14 82,14 81,14 81,14 82,14 82,14 82,14 84,14 84,14 84,14 84,14 84,14 84,14 85,14 86,14 86,14 87,14 87,14 95,12 96,12 96,12 96,12 96,12 96,12 97,12 97,12 97,12 97,12 97,12 97,12 97,12 98,12 99,12 99,12 99,12 99,12 99,11 99,11 99,12 100,11 100,11 99,11 99,11 99,11 99,11 99,11 99,11 99,11 99,11 100,11 100,11 100,11 100,11 101,11 101,11 101,11 102,11 103,11 103,11 102,11 102,11 102,11 102,11 102,11 102,11 103,11 103,11 103,11 103,11 103,11 104,11 104,11 104,11 104,11 104,11 105,11 105,11 105,10 105,10 105,11 107,10 107,10 107,10 107,10 107,10 107,10 107,11 108,10 108,10 108,10 108,10 108,10 108,10 109,10 109,10 109,10 109,10 109,10 109,10 109,10 109,10 109,10 109,10 109,10 109,10 109,10 109,10 109,10 109,10 110,10 110,10 110,10 110,10 110,10 110,10 110,10 110,10 110,10 110,10 109,10 109,10 109,10 109,10 109,10 109,10 109,10 109,10 109,10 110,9 110,9 110,9 111,9 111,9 111,9 112,9 112,9 113,9 115,9 116,9 117,8 118,8 118,9 118,9 118,9 118,8 118,8 118,8 119,8 118,8 118,8 118,9 118,9 120,9 120,9 122,9 122,9 123,9 123,9 123,9 123,9 123,9 123,9 123,9 123,9 123,9 123,10 124,10 124,10 124,10 124,10 124,9 125,9 125,9 125,9 126,9 126,9 126,9 126,9 126,9 126,9 126,9 126,9 126,9 127,9 127,9 127,9 127,9 127,9 127,9 128,9 128,9 129,9 130,9 130,9 131,9 132,9 132,9 132,9 132,8 132,8 133,8 133,8 139,8 139,8 140,8 141,8 141,8 143,7 144,7 144,7 144,7 144,7 144,7 145,8 146,7 146,7 146,7 146,7 146,7 146,7 146,7 146,7 146,7 146,7 146,7 146,7 146,7 146,7 146,7 146,7 146,7 146,7 147,7 147,7 147,7 147,7 147,7 147,7 147,7 147,7 147,7 147,7 147,7 147,7 147,7 148,7 148,7 148,7 148,7 148,7 149,7 149,7 149,7 149,7 150,7 150,7 150,7 150,7 150,7 150,7 151,7 151,7 151,7 151,7 151,7 151,7 151,7 152,7 152,7 153,7 153,7 154,7 154,7 154,7 155,7 155,7 155,7 156,7 156,7 156,7 157,7 157,7 158,6 158,6 159,6 159,6 159,6 160,6 160,6 160,6 161,6 161,6 161,6 161,6 161,6 162,6 162,6 162,6 162,6 162,6 162,6 162,6 162,6 162,6 162,6 162,6 163,6 164,6 167,5 171,5 179,4 180,4 181,3 182,3 183,3 183,3 185,4 186,4 192,4 193,4 200,3 205,4 209,5 210,5 210,4 211,5 212,5 215,5 215,5 215,5 215,5 216,5 216,5 216,5 216,5 215,5 215,5 216,5 216,5 216,5 216,5 220,5 227,5 229,4 231,4 231,4 236,2 240,1 242,1 249,2 253,1 267,0 270,1 283,1 288,1 294,1 296,0 296,0 296,0 296,0 296,0 296,0 300,1 301,1 301,1 302,1 302,1 303,1 304,1 305,1 305,1 305,1 305,1 306,1 306,1 307,1 308,2 307,2 307,1 307,1 306,1 306,1 305,1 305,1 305,1 304,1 304,1 304,1 304,1 304,1 305,1 306,2 307,2 307,2 307,2 308,2 308,2 309,2 309,2 320,5 325,5 327,5 330,6 333,6 335,6 339,6 344,8 345,8 347,8 349,8 349,8 349,8 349,8 350,8 350,8 351,8 352,9 356,11 360,12 364,13 368,14 371,15 374,15 394,20 396,21 396,21 398,21 398,22 399,21 400,22 401,22 401,22 402,22 402,22 402,22 402,22 403,22 404,21 404,21 406,21 407,21 407,21 409,20 409,20 411,20 413,20 414,20 415,20 415,20 416,20 416,20 417,20 417,20 417,20 417,20 417,20 417,20 416,21 416,21 415,21 415,21 414,22 414,22 414,22 414,22 414,23 414,23 414,23 414,24 414,24 414,24 414,24 414,24 414,24 414,25 413,25 413,25 413,25 413,26 413,26 413,27 413,27 412,27 412,27 412,28 412,28 412,28 412,28 412,29 412,29 413,30 413,30 412,30 413,31 412,31 412,31 413,32 413,32 414,32 415,33 415,34 415,34 415,34 416,34 416,34 417,34 418,35 419,35 419,36 418,36 418,36 418,37 418,38 418,38 418,38 418,39 418,40 418,40 418,41 417,42 417,42 417,42 416,43 415,43 415,44 415,44 414,44 414,45 414,45 414,45 413,45 413,45 412,45 412,45 412,46 411,46 411,46 411,46 411,47 410,47 410,47 409,47 409,47 409,47 409,47 408,47 408,47 408,48 407,48 407,48 407,49 407,49 407,49 407,49 407,50 406,50 407,50 406,50 406,50 406,51 406,51 406,51 405,51 405,52 405,52 404,52 404,53 404,53 404,53 403,53 403,53 403,54 403,54 402,54 402,54 402,54 402,54 402,55 402,55 402,55 402,55 402,55 401,55 401,55 401,56 400,56 400,56 400,56 400,56 400,57 399,57 399,57 399,57 398,57 398,57 397,57 397,58 397,58 397,58 396,58 396,58 396,58 396,58 395,58 394,58 394,58 394,58 393,58 392,58 392,58 392,58 391,58 390,58 390,58 389,58 389,58 388,58 388,58 385,58 385,58 384,58 383,58 383,58 382,59 382,59 382,59 381,59 381,60 380,60 379,61 378,61 378,61 377,61 375,63 375,63 373,64 372,65 372,65 371,65 370,66 370,66 370,68 369,69 369,70 369,70 369,72 369,74 369,74 370,76 370,77 370,77 370,78 371,81 372,81 372,82 373,83 374,84 374,84 374,85 375,85 377,86 378,87 381,89 381,90 382,92 382,93 384,95 385,97 386,98 388,100 388,105 391,106 393,106 397,106 398,106 400,105 403,105 405,105 405,107 408,110 406,114 408,118 408,120 409,120 410,122 410,123 411,123 415,123 418,122 419,122 424,124 426,125 428,125 430,127 433,128 436,129 437,129 437,129 438,130 439,132 440,133 441,133 444,134 445,134 445,135 446,136 446,136 446,137 448,138 448,139 449,140 450,142 451,142 452,142 452,143 451,143 450,144 450,145 449,146 449,147 450,149 450,149 451,150 451,150 452,151 453,151 455,151 458,151 458,151 459,152 459,153 460,154 460,154 461,155 462,155 463,156 465,157 466,158 467,158 469,158 471,159 471,161 472,162 473,163 474,164 475,165 476,165 476,165 477,164 477,165 481,164 481,163 481,162 482,161 483,162 484,161 485,161 486,161 487,161 487,162 488,162 488,162 489,162 489,162 490,163 490,163 491,164 492,164 492,166 492,167 494,170 496,170 499,174 500,175 500,176 500,177 500,177 500,177 500,178 500,178 500,178 499,179 498,180 496,181 495,183 494,184 492,187 493,198 492,199 491,201 489,204 486,207 485,207 487,213 485,215 482,217 480,218 473,221 469,222 465,223 464,224 464,225 462,227 462,228 462,230 462,231 462,232 461,233 460,234 459,235 458,235 458,236 458,237 456,239 455,240 452,242 451,242 449,243 447,242 447,242 445,242 443,244 442,244 441,244 439,245 439,246 439,246 438,247 439,248 439,248 439,248 439,249 440,251 440,251 440,252 440,253 440,255 440,256 440,257 440,257 439,258 438,259 438,259 437,260 436,260 436,260 435,261 434,261 434,261 433,261 433,262 432,263 431,264 430,265 430,265 430,266 429,267 429,267 428,268 427,269 425,269 423,270 423,272 424,272 424,273 423,273 422,273 422,274 421,274 421,275 421,276 420,277 420,278 420,279 418,279 418,280 417,281 416,281 415,283 415,284 414,285 415,286 418,292 419,295 420,296 422,300 422,301 423,305 425,310 427,315 426,316 426,316 424,317 423,318 423,318 420,319 419,320 419,320 419,321 419,321 419,321 419,322 419,323 419,323 418,323 418,324 418,324 418,324 418,325 417,326 417,327 417,328 415,328 414,329 414,329 413,329 413,330 413,330 412,331 412,331 412,331 412,331 412,331 411,332 410,332 410,332 409,334 408,334 407,334 406,334 406,335 405,335 405,336 404,336 403,337 403,337 402,338 402,338 402,339 401,339 400,340 400,340 399,340 399,340 399,341 398,341 398,341 399,344 399,346 399,347 398,347 398,347 398,348 399,348 398,348 398,348 397,349 397,349 398,350 397,350 397,351 396,352 396,352 396,353 396,353 395,353 394,353 394,353 394,353 393,353 392,353 392,353 391,353 390,353 388,354 387,354 386,354 386,354 385,354 384,354 373,355 369,357 363,358 362,359 362,360 361,361 360,361 360,362 360,362 359,363 359,363 359,363 359,364 356,366 355,366 355,366 355,365 355,365 354,365 354,365 354,365 354,365 354,365 353,364 353,364 352,364 352,364 352,363 352,363 351,363 351,362 350,362 349,362 349,362 348,362 348,362 347,362 347,362 346,362 346,362 345,362 345,361 344,362 344,362 343,362 343,361 342,361 341,361 341,361 341,361 340,361 339,360 339,360 339,360 338,360 338,360 337,360 336,360 336,360 335,359 334,359 334,359 334,360 334,360 333,361 332,362 332,362 332,363 332,363 331,364 330,365 330,365 325,367 324,368 324,368 324,369 324,369 323,370 323,370 323,370 323,371 322,371 322,372 321,372 321,372 320,373 319,373 319,373 319,373 318,373 317,373 317,373 316,373 315,374 315,374 315,375 315,375 314,375 314,376 314,376 313,375 311,374 310,373 309,373 309,372 308,372 308,371 306,369 291,372 288,369 281,362 277,358 276,357 274,357 265,346 263,344 262,344 262,345 262,346 261,346 261,346 260,347 261,349 261,349 261,350 262,350 262,351 263,351 263,352 263,353 263,353 263,354 263,354 263,354 263,355 263,355 263,356 263,356 264,356 263,357 263,357 264,357 264,358 264,358 264,358 264,359 263,360 261,361 261,361 261,362 261,363 261,363 262,366 262,366 263,366 263,367 263,367 264,368 264,368 265,368 265,368 265,369 265,369 265,371 265,371 265,372 264,372 264,373 264,373 264,373 265,374 265,374 265,375 266,375 266,376 267,376 267,377 268,377 268,377 269,378 269,380 269,380 270,381 247,392 247,391 246,390 245,390 245,389 244,389 243,388 243,388 242,388 242,388 241,388 241,387 240,387 240,387 241,386 241,386 241,386 241,385 240,385 240,384 240,384 239,383 238,382 238,382 237,382 236,381 236,381 235,381 234,380 234,380 233,379 232,379 232,378 227,379 227,379 226,379 220,379 220,379 216,381 213,382 213,382 211,383 212,384 212,384 213,385 213,385 213,385 214,385 215,386 215,386 215,386 220,396 219,401 217,400 217,400 216,399 215,399 214,398 211,396 210,394 202,390 201,390 199,388 199,386 197,386 194,384 193,384 191,383 190,383 188,382 187,381 184,384 182,383 179,382 179,382 178,383 178,383 176,384 176,385 176,385 175,386 174,386 174,387 173,387 173,387 173,388 173,388 173,388 173,389 170,388 169,388 169,388 168,388 168,388 167,388 166,388 166,388 165,388 165,388 163,388 163,387 163,387 163,386 163,385 164,385 164,384 164,383 165,383 166,382 166,382 167,382 167,381 167,381 167,381 167,380 167,380 166,380 166,380 165,379 165,379 165,379 165,378 164,378 164,378 164,377 163,377 163,377 162,376 162,376 162,376 162,376 162,375 161,375 161,375 161,375 160,375 160,374 160,374 159,373 159,373 158,372 158,372 158,371 158,371 157,371 157,371 157,371 157,370 156,370 156,370 156,369 156,369 156,369 156,369 156,368 156,368 156,368 155,367 156,367 156,366 156,366 156,365 155,365 155,364 155,364 154,364 154,363 154,363 154,362 154,362 154,361 154,361 153,360 153,360 153,359 153,359 152,358 153,358 153,358 153,358 153,358 154,357 154,357 154,357 154,356 154,356 154,356 154,355 154,355 155,355 154,355 155,355 155,355 155,354 155,354 155,353 155,353 156,353 156,353 156,352 156,352 156,352 156,351 157,351 157,351 156,350 157,350 157,350 156,350 156,350 157,349 157,349 157,349 157,348 157,348 157,348 158,348 158,347 158,347 158,347 158,347 158,346 158,346 158,346 159,345 159,345 159,344 158,344 158,343 158,343 158,343 158,343 158,343 159,342 159,342 159,342 159,341 159,341 159,341 160,341 160,340 160,340 159,340 159,340 160,340 160,339 160,339 159,339 159,339 159,338 159,338 158,338 158,337 158,337 158,337 158,337 158,336 157,336 157,336 157,336 157,335 157,335 157,335 157,335 157,334 157,334 157,334 157,334 157,333 157,333 157,333 157,332 157,332 157,332 157,332 157,332 157,331 157,331 157,331 157,331 157,330 157,330 157,330 158,330 158,330 157,330 157,330 157,329 156,329 156,329 156,329 156,328 155,328 155,328 154,328 154,328 154,328 153,327 152,327 152,327 151,327 151,326 151,326 151,326 151,326 150,326 149,326 149,326 148,326 148,326 145,328 142,328 139,329 137,331 136,331 136,332 136,332 135,332 134,332 134,332 133,333 133,333 132,333 131,333 131,333 130,333 130,333 129,333 129,332 129,332 129,332 128,331 128,331 128,331 127,331 127,331 127,330 126,328 125,328 125,326 128,323 131,319 128,314 128,314 130,312 130,311 131,311 131,311 132,310 134,308 134,308 135,307 135,307 136,306 138,292 143,284 142,283 140,283 137,282 135,281 131,278 130,276 130,276 130,276 131,275 131,272 131,272 130,272 130,272 129,272 128,272 127,271 127,271 126,271 126,270 126,270 126,270 125,270 125,270 124,270 124,270 123,269 123,269 123,269 122,268 122,268 122,268 122,267 122,267 122,267 121,266 121,266 120,266 120,266 119,266 119,266 118,265 118,265 117,265 117,265 116,265 116,265 116,265 114,265 113,265 113,265 112,265 112,265 112,265 110,264 110,264 109,263 107,262 107,262 106,262 105,262 105,262 105,262 104,262 102,261 101,261 100,261 99,261 99,261 99,261 98,260 98,260 97,259 96,257 95,256 95,256 94,256 93,255 93,255 93,255 93,254 94,252 94,252 94,251 95,249 95,249 96,249 96,248 96,248 96,248 95,247 95,247 95,247 96,247 97,246 97,245 98,244 98,244 98,243 98,243 98,242 99,241 99,240 99,240 99,239 98,238 97,238 97,237 97,236 97,236 97,236 96,233 96,231 95,230 95,227 97,225 97,224 99,221 99,220 99,219 101,217 99,215 98,214 96,212 95,211 97,210 97,209 99,207 98,205 99,202 101,201 101,198 98,196 99,192 102,191 104,188 106,187 107,185 106,183 106,182 106,181 106,178 106,177 106,176 107,176 107,175 106,175 106,174 105,174 105,173 105,172 106,171 106,170 106,169 107,169 108,168 109,168 109,167 109,167 109,167 109,167 109,166 109,165 109,165 108,164 107,164 107,163 106,163 106,162 106,162 105,161 105,161 105,161 105,161 105,161 105,160 104,160 104,159 104,159 105,158 105,158 106,157 106,156 106,155 105,153 103,154 103,154 103,154 103,154 103,154 102,154 102,153 102,153 101,153 100,153 100,152 101,151 103,150 102,148 105,147 107,146 109,144 110,143 110,142 110,141 109,140 107,138 106,136 106,136 106,135 106,133 105,131 105,130 105,130 104,128 104,125 103,124 103,123 102,123 102,123 102,123 102,123 102,122 102,122 102,122 103,122 103,121 104,121 104,121 104,121 105,121 105,121 105,120 106,120 106,120 107,120 107,119 108,119 109,120 109,119 110,119 111,119 112,119 112,119 112,119 113,118 113,118 113,117 114,117 114,117 114,117 113,116 112,115 113,115 112,114 111,113 110,112 107,110 107,110 107,109 107,109 106,109 106,108 106,108 106,108 106,107 106,107 105,107 105,107 104,106 103,106 103,106 103,106 103,106 103,105 103,105 103,105 103,105 103,104 103,104 103,104 102,104 102,104 101,104 101,103 99,103 99,103 98,102 98,102 97,101 97,101 97,101 96,101 96,101 95,101 94,100 93,99 93,98 93,98 93,98 92,98 91,98 90,98 90,98 89,98 89,98 89,98 89,98 87,98 86,99 86,99 86,99 85,98 84,98 84,98 83,97 81,97 80,97 80,97 78,96 77,96 77,96 75,96 73,95 73,95 72,95 71,94 71,93 70,93 69,93 68,93 68,93 67,93 66,92 66,92 65,92 64,92 63,91 62,91 61,90 61,89 60,89 60,89 59,89 59,89 57,90 56,90 55,90 54,90 53,89 52,89 51,89 49,88 48,88 47,88 45,87 44,87 43,87 42,86 42,86 41,86 41,85 41,85 41,85 41,84 41,84 41,83 41,82 41,82 40,82 40,82 40,81 39,81 38,81 37,80 36,80 35,79 34,78 33,78 32,78 32,77 31,77 31,77 30,76 30,75 29,75 29,74 29,73 28,72 27,71 26,71 26,70 24,70 23,70 22,70 22,69 21,68 21,67 20,66 18,65 18,65 18,65 17,64 17,63 15,62 15,62 14,62 13,62 12,62 12,62 12,62 8,61 7,61 6,60 6,59 4,59 3,59 2,59 1,59 0,58 1,57 1,56 2,56 2,55 3,55 2,53 1,51 0,50 0,50 0,48 1,48 2,47 2,45 2,44 2,43 3,43 3,42 3,41 3,41 3,40 3,36 3,35 4,31 6,29 6,27 6,26 7,25 9,24 10,23 9,23 9,23 9,23 8,22 7,24 7,24 7,21 8,21 8,20 8,19 9,18 9,17 9,17 9,17 9,16 10,16 10,16 10,16 11,15 10,13 10,12 10,12 11,10 11,10 13,9 14,9 15,8 15,8 15,7 15,7 15,6 14,6 14,5 12,5 13,5" id="7407" class="canton" fill="steelblue" stroke-width="1" stroke="white" geotype="canton" geoname="Évian-les-Bains" code_insee="7407" code_departement="74" nom_departement="Haute-Savoie" code_region="84" nom_region="Auvergne-Rhône-Alpes"/></svg>