<?xml version="1.0" encoding="utf-8"?>
<svg version="1.1" id="svgmap" xmlns="http://www.w3.org/2000/svg" xmlns:xlink="http://www.w3.org/1999/xlink" x="0px" y="0px" width="100%" height="100%" viewBox="0 0 500 419">
<polygon points="169,29 169,30 172,30 172,30 174,30 175,30 177,31 179,31 180,31 182,32 183,32 183,31 183,31 185,31 186,30 187,29 188,29 188,29 189,29 190,28 192,28 192,28 193,27 196,27 196,27 197,27 200,30 201,31 202,32 204,31 205,31 205,31 207,31 208,30 209,30 212,28 213,28 214,28 215,27 216,27 215,26 211,17 217,10 221,10 221,10 223,10 225,9 225,8 226,9 228,8 229,8 229,6 237,0 245,2 249,5 253,5 259,4 265,5 267,8 270,10 275,14 276,14 278,14 278,15 281,17 287,20 301,26 303,26 305,27 306,25 307,26 307,26 309,27 309,27 310,28 310,29 311,29 311,29 313,30 313,30 314,30 316,30 316,33 314,32 314,34 313,34 313,36 312,36 312,40 314,41 316,40 317,39 318,39 318,39 319,38 321,37 323,35 324,34 325,35 328,33 329,33 330,33 331,31 333,31 335,31 336,31 335,32 335,33 336,34 336,35 336,37 335,37 335,38 336,39 336,40 336,40 336,41 336,41 336,42 335,42 335,42 333,43 332,44 330,44 328,45 326,45 325,46 323,49 324,49 324,50 323,50 323,51 323,52 324,52 325,52 326,53 326,54 327,55 330,57 330,59 331,60 332,64 332,66 333,66 333,67 334,68 334,69 335,69 335,69 336,70 336,70 338,71 340,72 341,74 345,73 348,74 350,75 355,78 360,70 366,64 364,63 364,62 364,61 363,61 364,61 362,60 361,58 361,57 361,57 360,57 361,56 361,54 360,52 361,51 360,49 360,48 360,47 360,46 361,44 362,44 370,40 371,40 373,40 386,41 391,38 391,37 391,36 392,34 394,34 396,35 396,35 397,36 397,37 398,37 398,38 398,39 398,40 399,40 399,40 401,41 402,42 403,42 403,43 405,44 404,44 404,45 403,46 403,47 403,48 403,48 403,50 403,50 403,51 403,51 403,53 402,55 402,55 403,56 403,56 403,57 403,57 402,59 402,60 402,61 401,64 400,65 400,65 399,66 398,66 398,67 395,67 395,67 393,68 395,68 396,68 401,70 402,71 403,72 404,74 404,77 404,79 405,80 405,81 405,82 405,82 405,85 403,86 403,87 404,89 403,90 402,91 401,91 400,93 401,94 402,95 403,95 404,95 404,95 405,95 406,95 407,96 407,95 408,96 385,99 382,100 357,121 360,121 361,121 363,122 365,123 366,123 367,123 368,124 369,125 370,125 372,126 372,126 372,126 375,127 376,128 378,129 381,130 379,131 377,132 375,133 374,133 373,134 374,134 370,135 367,135 366,136 365,137 363,138 361,139 359,139 359,139 354,142 353,143 352,143 351,144 349,144 348,145 347,145 348,146 348,147 348,148 348,149 347,150 346,153 346,153 346,154 346,154 345,154 343,154 341,156 339,156 337,157 337,158 336,160 337,161 336,161 335,162 335,162 335,163 334,164 334,165 331,167 331,168 330,169 330,170 330,171 330,172 331,173 330,173 329,174 329,174 329,175 327,175 326,175 324,177 319,182 319,182 316,185 314,186 312,186 311,186 308,189 305,192 304,193 304,194 304,194 306,195 301,204 301,204 300,204 300,205 300,207 300,208 301,208 300,210 300,212 300,213 300,217 300,218 342,227 348,229 357,234 356,235 354,237 353,240 289,259 342,277 342,277 342,278 343,280 344,280 344,281 345,281 345,282 343,283 342,284 343,285 342,286 341,286 339,287 337,288 336,289 333,290 332,291 332,292 334,293 334,294 334,296 334,297 334,298 334,300 341,309 351,314 358,316 367,320 367,319 367,319 368,319 368,318 369,318 369,318 370,317 370,317 371,317 372,317 373,317 373,317 373,316 372,315 372,314 376,310 377,309 378,309 379,308 379,307 380,307 379,306 378,305 376,304 378,303 378,303 378,303 379,302 379,301 380,300 382,300 383,299 386,297 386,297 390,294 390,295 393,293 394,293 399,290 399,288 398,287 414,297 414,297 419,300 420,298 426,302 426,302 427,302 431,304 438,308 439,309 440,310 447,313 460,319 449,321 459,329 460,329 461,328 463,327 465,323 466,322 469,323 472,323 473,324 474,324 476,324 477,323 480,320 480,320 481,319 482,319 482,318 485,313 486,312 489,309 489,308 490,308 493,308 493,291 493,290 494,289 495,291 498,295 499,296 500,299 500,299 500,300 499,300 498,301 498,303 498,303 498,304 497,305 497,306 498,314 499,361 499,369 499,370 500,371 499,371 499,371 499,371 498,371 498,371 492,372 492,372 487,372 486,372 484,373 484,373 484,373 484,373 484,373 484,374 484,374 485,376 486,378 486,379 486,379 486,379 486,379 486,379 486,379 488,383 487,384 487,384 486,384 486,385 486,385 485,385 483,385 483,385 482,385 481,386 479,386 479,386 478,386 477,386 474,387 472,387 471,387 469,387 469,388 469,387 468,387 468,387 468,387 468,387 467,386 466,386 464,387 463,387 461,386 461,386 460,386 460,387 459,387 458,386 457,386 456,386 455,386 453,385 452,385 451,385 449,383 451,383 451,382 450,380 449,379 458,370 459,370 460,369 461,368 466,362 468,360 469,359 459,351 459,351 459,348 456,345 454,344 455,343 456,341 440,336 439,337 437,339 435,340 434,342 431,344 429,345 422,348 419,347 418,348 414,345 413,346 410,351 407,355 406,356 408,356 409,357 405,359 404,360 403,362 401,364 399,365 395,365 392,365 391,365 389,364 387,364 386,363 382,362 380,362 377,361 375,362 374,362 371,363 370,363 368,363 366,363 364,363 362,365 361,367 360,368 362,369 365,368 366,368 368,367 369,368 369,368 369,369 369,370 370,371 371,372 371,372 372,374 372,376 372,378 370,380 369,381 362,382 357,384 357,384 352,386 347,386 344,385 341,383 336,378 334,378 334,378 331,380 328,383 327,383 325,383 322,383 318,383 316,382 314,382 313,381 312,381 310,378 309,376 307,374 305,368 303,365 301,364 300,364 299,364 296,364 295,365 292,368 287,371 285,372 284,374 284,375 283,377 283,377 284,380 285,383 284,385 283,387 281,389 278,391 276,392 271,393 270,393 271,393 273,397 272,397 270,398 269,399 267,400 265,401 266,401 262,405 260,406 255,407 248,409 236,409 231,408 231,409 228,408 225,408 224,407 223,407 222,407 219,407 218,408 218,409 218,409 218,410 217,410 215,412 214,411 209,412 209,411 209,411 208,411 208,414 207,415 206,415 203,416 195,419 194,418 194,417 192,415 192,414 192,413 191,413 186,413 182,414 181,414 180,414 179,414 178,413 177,412 179,410 179,409 180,409 180,407 180,405 179,403 177,402 176,402 176,402 172,403 167,404 164,405 163,405 161,404 159,404 156,405 152,406 151,406 151,405 150,404 150,403 150,401 149,400 148,398 147,398 146,397 144,396 143,395 143,394 142,394 140,392 135,391 134,391 133,390 132,388 132,387 133,384 134,382 134,381 133,380 131,379 128,378 126,377 126,376 126,376 127,375 128,375 130,374 132,372 135,371 136,371 136,370 135,370 137,368 137,364 138,361 139,360 137,357 136,355 135,354 134,354 134,353 134,352 133,351 133,351 133,349 133,349 132,348 132,348 132,346 131,344 130,343 130,343 128,342 127,341 126,341 126,340 126,340 126,339 126,338 126,338 126,337 124,337 123,336 123,336 124,335 124,335 124,334 123,333 122,332 121,331 121,331 120,329 121,329 120,328 120,327 120,327 119,327 119,326 120,326 120,325 121,325 120,324 121,324 120,324 121,323 121,322 122,322 121,322 122,321 122,321 122,320 122,319 123,319 122,318 122,318 122,317 122,316 122,316 122,315 122,315 121,315 121,314 121,314 121,313 122,312 121,311 122,310 122,309 122,307 124,305 124,305 124,305 124,304 125,304 127,302 128,301 130,301 131,301 132,300 132,297 132,297 134,297 135,297 136,296 140,295 138,293 142,291 139,288 141,286 141,284 139,282 139,281 139,281 139,281 138,280 137,278 137,277 136,276 135,275 135,273 135,272 134,271 134,270 134,269 133,268 133,268 132,267 129,263 127,262 128,257 127,255 125,256 122,251 122,252 116,251 113,251 112,250 112,250 108,249 108,249 106,250 104,248 104,246 104,245 99,246 96,245 91,244 90,241 91,241 91,238 91,233 90,231 88,230 86,230 83,230 81,230 78,230 77,229 77,229 77,228 78,227 79,226 79,226 81,225 82,224 83,224 81,224 81,224 80,224 80,224 80,223 73,221 73,221 71,220 68,221 66,220 64,221 61,222 63,220 64,219 65,218 65,217 65,217 65,216 66,215 63,214 60,212 62,209 65,208 63,205 57,201 53,198 51,197 50,196 49,197 48,195 44,196 42,196 39,196 39,196 38,195 37,195 37,194 37,193 37,192 38,191 37,190 35,188 35,188 35,188 35,186 35,186 35,185 37,183 36,183 37,182 37,182 38,181 39,181 39,181 40,181 41,180 42,180 42,180 40,179 38,178 39,177 39,176 39,176 39,175 39,175 41,173 42,170 38,169 36,165 34,162 35,158 36,157 48,142 49,142 50,142 50,142 51,141 50,140 50,140 46,138 44,137 39,134 39,133 40,133 40,132 43,130 44,130 45,130 45,129 45,129 46,128 46,128 46,128 46,127 46,127 46,127 37,124 38,123 38,122 39,122 39,122 39,122 39,122 39,121 40,121 41,120 41,120 42,120 42,120 42,119 42,118 42,118 42,118 42,118 42,117 43,117 43,115 43,115 43,114 43,114 43,113 43,112 43,111 43,111 42,110 42,107 42,106 43,104 43,103 43,103 43,103 43,102 43,102 42,102 42,101 42,101 42,101 42,101 41,101 40,100 40,100 40,100 40,99 39,99 39,99 39,98 39,98 39,98 38,98 38,97 37,97 37,97 37,97 37,96 37,96 38,96 37,96 37,95 36,95 36,95 36,95 36,94 36,94 36,93 35,93 35,93 35,92 34,92 34,92 34,91 33,91 33,90 32,90 32,89 32,89 31,88 31,88 31,88 31,87 30,87 29,86 29,86 29,86 29,86 28,86 28,85 28,85 28,85 28,85 27,84 27,84 27,84 26,83 25,83 25,83 25,82 24,82 24,81 24,81 24,81 23,80 24,80 23,79 23,79 23,79 23,78 22,78 22,78 21,77 21,77 21,76 21,76 21,75 21,75 21,74 19,74 19,74 19,73 18,73 18,73 18,73 17,72 16,72 16,72 16,71 16,71 15,70 15,69 15,69 15,69 15,69 14,69 13,68 13,68 12,67 12,66 11,66 10,66 10,65 10,65 10,64 9,63 8,63 8,63 7,62 7,62 7,61 7,61 6,61 6,61 5,60 5,60 5,59 5,58 4,57 4,57 5,57 5,56 5,55 5,55 5,55 5,55 5,54 5,54 5,53 5,53 5,52 5,52 6,51 6,50 5,50 5,50 5,49 5,49 5,48 5,48 6,48 6,47 7,47 7,46 7,46 8,45 9,45 9,44 9,44 9,43 9,43 9,42 9,41 9,41 9,40 9,40 9,40 9,39 9,38 8,38 8,37 8,37 7,36 8,36 7,35 7,35 7,35 7,34 6,33 6,33 7,32 6,32 5,32 5,31 4,30 4,29 3,29 2,28 2,28 2,27 1,26 1,26 0,24 0,23 7,22 16,21 16,20 25,19 23,17 25,16 29,16 31,15 33,14 35,14 36,13 37,13 39,14 41,13 43,13 43,12 44,11 45,10 46,9 47,10 46,11 47,11 49,12 52,12 54,13 55,13 54,15 55,15 57,16 57,16 58,17 58,17 59,19 59,20 60,22 60,22 60,23 61,23 61,24 62,24 65,23 69,22 74,21 76,21 78,21 78,22 80,23 81,24 83,26 85,28 89,28 89,28 90,28 91,28 93,27 94,27 94,26 95,26 97,25 98,25 100,25 101,25 102,25 104,25 105,26 105,25 106,26 107,25 107,26 108,26 109,27 111,27 112,28 115,28 116,28 117,28 118,29 121,29 124,29 124,29 126,28 128,28 129,29 131,28 131,28 133,29 134,29 138,30 139,30 140,30 141,30 143,30 144,30 144,31 145,31 146,31 147,31 147,31 149,31 149,30 150,30 151,30 152,30 153,30 154,29 156,30 157,30 158,31 159,30 160,30 161,29 162,29 164,29 166,29 166,29 167,29 169,29" id="7401" class="canton" fill="steelblue" stroke-width="1" stroke="white" geotype="canton" geoname="Annecy-1" code_insee="7401" code_departement="74" nom_departement="Haute-Savoie" code_region="84" nom_region="Auvergne-Rhône-Alpes"/></svg>