<?xml version="1.0" encoding="utf-8"?>
<svg version="1.1" id="svgmap" xmlns="http://www.w3.org/2000/svg" xmlns:xlink="http://www.w3.org/1999/xlink" x="0px" y="0px" width="100%" height="100%" viewBox="0 0 500 432">
<polygon points="7,52 7,52 7,53 8,53 8,53 11,53 14,52 15,52 17,53 18,53 20,52 24,52 26,51 27,51 28,51 29,51 30,53 30,54 30,56 29,56 29,57 28,58 28,59 29,60 30,59 30,60 31,60 34,59 38,59 38,59 39,60 39,60 40,62 41,63 41,63 47,61 50,61 50,60 51,60 51,57 52,57 52,58 52,58 55,57 57,58 58,56 58,56 58,56 58,55 58,55 59,54 61,54 62,54 63,54 64,55 66,55 68,56 68,55 72,56 82,56 87,54 91,53 92,53 95,50 94,49 96,49 97,48 98,47 100,47 100,47 99,44 99,44 99,44 102,43 104,42 106,41 108,39 109,38 109,36 109,34 108,32 108,31 108,30 109,29 110,28 111,27 115,24 117,22 118,22 120,21 121,21 122,21 123,23 125,24 126,29 128,31 129,32 130,34 131,35 132,35 133,36 135,36 138,36 140,36 141,36 142,36 145,34 147,32 147,32 149,33 152,36 155,38 157,38 161,38 164,37 164,37 168,35 173,34 174,34 176,32 176,31 176,29 175,28 175,27 174,27 174,26 174,25 174,25 173,24 173,24 171,24 170,25 168,25 167,25 167,24 168,22 170,21 171,21 173,21 174,20 175,20 177,20 178,20 180,20 182,20 184,20 187,21 188,21 189,22 191,22 191,22 193,22 196,22 198,21 199,20 200,19 201,18 204,16 203,15 202,15 203,14 205,11 207,8 208,7 211,9 212,8 214,9 219,7 221,6 223,5 224,4 225,2 227,1 228,0 240,4 239,5 238,6 240,7 242,9 242,12 242,12 250,17 249,19 247,20 243,24 243,26 242,26 241,26 235,33 235,34 236,35 236,36 235,36 236,38 237,40 238,41 239,42 240,42 240,43 239,44 239,45 240,45 245,46 245,46 247,47 248,48 248,49 248,50 248,50 247,51 247,51 248,51 248,51 249,52 249,52 249,52 251,52 251,52 252,52 252,52 253,53 251,53 250,54 250,55 252,55 251,55 251,56 251,56 251,57 251,59 251,60 250,59 250,59 248,58 247,58 246,57 245,56 245,56 244,55 244,55 242,55 242,55 244,59 244,59 249,62 251,60 252,60 253,66 253,67 254,69 254,70 253,71 247,70 247,70 247,71 247,71 244,74 246,78 240,85 240,86 242,87 240,89 238,89 238,90 238,90 237,91 236,91 235,91 234,92 234,92 231,96 231,96 232,96 232,97 229,99 229,99 229,99 227,100 227,101 225,104 224,106 223,107 223,108 223,108 221,111 219,113 216,118 216,119 216,119 219,121 219,122 218,123 219,124 220,124 219,127 219,127 218,128 229,131 210,163 213,169 220,169 221,169 225,170 225,172 226,173 226,173 226,174 225,175 224,175 224,176 224,177 224,178 225,178 226,179 226,180 226,181 226,182 227,183 227,185 225,187 224,188 223,190 222,191 221,191 219,192 219,193 219,194 217,196 217,196 217,197 218,199 218,199 216,200 215,200 214,200 214,200 219,207 220,209 230,214 236,218 255,215 270,214 285,214 288,214 290,214 301,209 312,204 312,204 312,204 313,204 313,203 313,203 315,203 317,203 318,203 319,203 321,203 321,203 322,203 323,203 323,202 324,202 325,200 327,200 327,200 331,198 332,197 334,196 335,196 338,195 339,194 341,192 342,192 343,191 343,191 345,190 346,189 346,189 346,188 356,180 356,180 357,179 380,170 390,167 418,188 441,205 485,204 500,242 496,243 480,246 476,247 473,247 466,246 464,252 463,255 462,257 464,262 461,266 457,277 453,284 453,289 452,291 451,294 450,300 448,310 447,323 444,333 443,345 440,346 438,350 438,352 438,353 438,354 437,355 436,357 440,358 440,359 440,360 441,362 442,362 442,364 441,364 440,366 440,367 440,368 440,368 440,368 439,369 439,370 440,371 439,372 436,375 435,375 435,380 428,386 423,384 413,410 411,421 406,432 393,431 390,430 375,426 375,424 374,419 373,419 374,418 374,415 375,413 375,412 375,411 377,407 351,405 349,404 342,400 342,400 339,400 335,399 333,399 332,399 331,398 331,398 329,398 327,398 326,398 325,398 325,398 323,398 322,396 318,394 317,394 303,394 303,395 304,398 304,398 303,401 303,402 303,402 303,402 303,402 303,403 303,404 302,406 301,406 301,406 300,407 301,408 300,408 299,408 299,409 298,409 298,409 297,409 297,409 296,410 296,410 296,411 296,411 295,412 295,411 294,412 294,412 293,412 292,412 291,412 291,412 290,412 290,412 290,412 288,413 286,414 285,415 284,415 283,416 282,416 281,417 280,417 279,418 279,418 279,418 279,418 279,419 278,419 277,419 277,419 277,420 276,420 275,421 274,421 273,423 272,424 270,422 262,421 262,420 263,420 263,420 263,420 264,419 265,418 263,417 262,417 261,416 257,411 255,409 254,409 253,410 252,411 252,411 253,411 253,412 252,413 252,413 251,413 249,411 249,412 243,409 243,409 244,408 244,406 245,406 245,405 243,405 241,404 233,402 230,401 228,400 223,400 218,398 216,397 214,393 213,388 216,385 216,382 216,379 216,374 215,368 213,364 196,358 195,356 200,350 192,343 190,340 193,331 195,330 199,326 203,324 205,322 212,313 222,303 226,299 230,295 234,291 238,286 238,283 230,278 227,273 218,274 210,273 209,272 205,270 204,270 204,266 204,264 205,263 204,262 204,262 203,261 203,260 203,260 203,259 203,258 203,257 201,255 200,254 200,254 201,251 201,250 201,249 202,249 202,248 201,247 201,246 200,246 179,242 176,241 173,241 171,241 169,240 159,238 154,233 150,232 148,231 147,229 147,229 146,228 145,227 146,226 146,226 146,224 145,223 145,222 146,221 145,220 144,219 143,220 143,220 143,220 141,220 140,219 139,218 139,218 137,219 137,219 135,219 134,220 134,220 132,220 132,220 131,220 131,221 128,221 128,221 128,221 127,221 127,221 127,220 126,221 125,221 125,221 124,221 123,222 123,222 122,222 122,222 121,222 121,223 120,223 120,224 119,224 119,224 118,224 118,224 117,225 117,225 117,225 116,224 115,224 114,224 114,223 113,223 112,223 110,223 109,223 108,223 107,223 107,223 106,222 105,222 105,222 104,221 103,221 103,221 103,221 102,221 102,221 101,220 101,220 100,220 100,220 99,220 99,220 98,220 97,219 96,219 95,219 95,219 94,218 92,218 91,217 91,217 90,217 90,217 89,217 88,217 87,217 87,218 87,218 86,218 84,217 84,217 83,217 83,218 82,218 81,218 80,217 80,217 79,216 79,216 78,216 77,215 76,216 76,216 76,216 76,215 76,215 77,215 77,214 78,214 78,214 79,214 79,214 80,214 81,214 82,214 83,213 84,213 85,212 85,211 86,211 86,211 87,211 87,211 88,211 88,210 90,210 90,210 90,209 92,207 92,207 92,207 92,206 94,205 95,205 96,205 97,204 98,203 98,203 98,203 99,202 98,201 99,201 99,201 99,200 100,200 100,199 100,198 100,197 99,196 100,196 98,195 98,195 97,195 97,195 96,195 96,195 96,194 94,191 93,191 92,191 91,190 91,190 90,190 90,189 90,189 89,189 89,188 89,188 89,188 88,187 87,188 87,187 87,187 86,186 86,185 86,185 85,185 85,185 84,184 84,183 85,183 86,182 86,181 86,181 85,181 84,180 84,179 85,179 85,178 85,178 85,177 86,177 85,176 84,174 81,172 80,171 80,171 80,171 79,170 77,168 76,168 75,167 73,167 71,167 70,167 69,166 67,166 67,165 67,165 68,162 68,162 66,161 63,160 63,159 63,159 62,159 60,158 59,159 59,159 58,159 58,159 57,159 57,159 56,159 55,159 55,159 54,159 54,159 53,159 51,160 50,160 49,161 47,160 45,160 44,161 42,161 41,161 40,162 39,162 36,161 38,159 39,159 40,158 40,158 39,157 37,155 35,154 34,153 33,153 27,149 25,148 25,148 25,146 24,145 25,143 23,142 23,142 24,141 24,137 24,137 23,136 22,135 21,135 20,135 22,133 22,132 22,132 24,128 25,126 24,125 23,125 23,124 20,123 19,122 18,122 19,120 19,119 19,119 15,116 13,115 12,115 13,114 11,112 11,112 11,112 13,111 13,111 14,110 14,110 14,110 15,109 14,108 14,108 14,108 14,107 14,107 14,106 14,105 14,105 14,102 14,101 14,101 14,100 14,99 15,98 15,98 15,97 15,96 14,96 15,95 14,95 14,94 14,94 13,93 12,93 13,92 12,92 12,92 12,92 12,91 11,91 11,91 11,91 11,92 10,92 10,93 10,93 9,93 9,93 4,90 4,89 3,88 2,86 2,86 1,84 0,82 0,74 4,67 4,67 5,66 6,64 2,56 7,52" id="7416" class="canton" fill="steelblue" stroke-width="1" stroke="white" geotype="canton" geoname="Seynod" code_insee="7416" code_departement="74" nom_departement="Haute-Savoie" code_region="84" nom_region="Auvergne-Rhône-Alpes"/></svg>