<?xml version="1.0" encoding="utf-8"?>
<svg version="1.1" id="svgmap" xmlns="http://www.w3.org/2000/svg" xmlns:xlink="http://www.w3.org/1999/xlink" x="0px" y="0px" width="100%" height="100%" viewBox="0 0 500 440">
<polygon points="93,203 94,203 97,202 99,201 102,200 103,199 103,199 105,198 107,197 108,196 108,195 110,195 110,195 111,195 113,195 118,193 119,193 119,192 120,191 121,191 123,190 123,190 123,190 123,190 125,189 125,190 125,189 125,189 127,189 128,189 129,188 129,188 129,188 129,188 130,188 130,187 131,187 131,187 131,187 133,186 133,186 134,185 135,185 137,183 138,183 139,182 140,182 140,182 140,181 141,181 141,180 141,180 142,180 142,179 143,179 143,179 145,178 146,178 147,179 147,179 148,179 149,179 150,179 150,179 152,179 153,179 153,178 154,178 154,178 155,177 157,177 157,177 158,176 158,176 158,174 156,171 155,170 155,167 154,167 153,167 153,167 154,166 154,164 154,164 154,164 154,163 149,163 142,158 143,157 142,156 143,154 142,154 141,153 140,153 140,153 138,153 136,152 134,152 133,151 133,151 132,150 129,149 128,148 124,147 122,147 120,146 118,149 114,147 109,147 107,147 106,147 106,147 106,147 106,146 106,144 107,143 107,142 107,141 108,141 108,140 108,140 108,140 109,139 109,138 109,138 110,138 110,137 110,136 110,136 111,136 111,136 112,135 112,134 112,134 113,133 113,133 113,133 114,132 114,132 114,132 115,132 115,131 115,131 115,131 116,131 116,130 116,130 116,130 116,130 116,129 117,129 117,129 117,129 117,128 117,128 117,128 117,128 117,128 117,128 117,128 117,128 117,127 117,127 117,127 117,127 117,127 117,127 117,127 117,126 117,126 117,126 117,125 117,125 117,125 117,125 117,125 117,125 117,125 117,125 117,125 116,125 116,125 116,125 116,125 115,125 115,125 115,125 114,125 114,125 114,125 113,125 113,125 113,125 112,125 112,125 111,125 111,125 110,124 110,124 110,124 110,124 110,124 109,123 109,123 109,123 109,122 109,122 108,122 108,122 108,122 108,121 107,121 107,121 106,121 106,121 105,120 105,120 105,120 105,120 104,120 104,120 104,120 103,120 103,119 103,119 103,119 103,119 104,119 104,118 105,118 106,117 106,117 106,117 107,117 107,117 107,117 107,117 108,117 109,117 109,117 109,117 109,117 110,117 110,117 110,117 110,117 111,116 111,116 111,116 111,116 112,116 112,115 113,115 113,115 113,114 113,114 113,113 113,113 113,113 113,113 113,112 113,112 113,111 113,111 113,111 113,111 114,111 114,110 116,109 116,109 116,109 116,109 116,109 117,109 117,109 117,109 117,109 120,108 121,107 121,107 121,107 120,105 120,105 119,104 119,103 117,101 117,101 115,98 115,98 115,98 115,98 114,97 114,97 113,96 112,95 112,95 112,95 112,95 112,95 112,95 112,94 112,94 113,94 114,94 114,94 114,94 116,94 116,94 118,93 119,93 121,92 121,92 121,92 121,92 120,92 119,91 119,91 119,91 118,91 118,91 118,91 118,91 117,90 117,89 117,89 117,89 115,87 115,87 116,87 117,87 117,87 116,87 116,87 115,87 115,87 115,87 115,87 115,87 115,87 115,86 114,85 114,85 113,85 113,85 113,85 112,85 111,86 111,86 110,86 109,86 108,86 108,86 108,86 108,86 108,86 108,84 108,82 108,82 107,82 107,82 107,81 107,80 107,80 107,80 108,80 108,79 108,78 109,77 109,77 109,77 109,76 110,76 110,73 110,73 111,73 111,73 111,73 111,73 111,72 111,72 111,72 111,71 111,71 111,71 110,71 110,71 110,71 110,71 109,71 109,71 110,71 117,64 117,64 117,64 118,64 118,64 118,63 119,62 119,62 119,62 119,62 119,62 119,62 120,61 121,61 120,61 118,60 118,60 124,58 127,57 132,56 132,56 132,57 132,58 132,58 132,59 132,60 133,60 135,62 135,62 145,58 145,58 144,56 144,55 144,54 144,54 144,54 144,51 144,51 145,49 152,51 152,51 152,51 152,51 152,50 152,50 152,49 152,49 152,49 152,49 152,48 152,48 152,48 153,49 154,49 156,51 156,51 156,51 156,51 158,53 158,53 169,57 169,57 175,60 175,60 176,59 176,59 176,58 177,57 177,57 177,57 175,56 171,54 171,54 175,46 180,48 181,48 181,48 181,48 181,48 181,48 181,47 181,47 184,45 184,45 190,45 190,45 189,44 185,43 184,43 184,43 184,43 184,43 186,41 186,41 186,40 193,43 193,43 193,43 195,41 195,41 197,42 206,42 206,42 211,39 211,38 211,38 215,39 216,39 216,39 216,39 218,40 218,40 218,40 219,42 222,46 222,46 221,46 221,46 221,46 222,48 222,48 221,49 220,49 220,49 219,49 219,50 219,50 219,50 222,51 223,51 224,51 224,52 225,52 225,52 225,52 226,53 226,53 228,54 228,55 228,55 229,57 230,58 230,59 230,60 231,62 232,64 232,64 240,65 240,65 241,65 241,65 240,65 240,66 243,66 243,66 243,66 243,66 243,66 244,65 245,65 246,63 246,63 251,63 251,63 253,62 253,62 253,61 253,61 254,61 259,60 260,60 260,60 260,60 261,60 261,60 261,60 263,60 263,60 263,60 265,61 268,62 268,62 270,62 271,61 271,61 273,60 273,60 276,60 276,60 280,59 280,59 281,59 283,59 287,59 287,59 293,57 294,57 296,57 296,57 296,58 296,58 297,58 297,58 297,58 297,58 297,58 298,57 298,57 298,57 298,57 299,56 300,55 300,55 301,51 301,48 301,48 301,47 301,47 302,46 302,45 303,44 303,44 303,44 303,43 303,43 303,43 303,42 303,42 303,42 311,43 313,44 315,44 315,44 315,45 315,45 315,45 316,45 316,45 316,45 316,45 316,45 317,46 317,46 317,46 317,47 317,47 317,47 318,47 318,47 318,48 319,48 319,48 319,48 319,48 320,47 321,47 321,47 321,47 322,46 322,46 322,46 322,45 322,45 322,45 322,45 323,45 323,45 323,45 323,45 324,45 324,45 324,45 325,45 325,45 329,44 329,44 332,44 332,44 332,44 332,45 333,45 333,45 333,45 334,45 334,45 333,45 334,45 334,45 335,45 335,45 335,45 335,45 336,45 336,45 337,44 338,44 337,44 339,42 339,42 340,43 341,43 342,45 343,45 344,46 344,46 345,46 345,45 346,45 346,45 346,44 346,44 348,43 349,42 350,42 351,41 351,41 352,41 352,40 352,40 353,39 354,39 354,39 354,39 355,39 358,39 359,39 361,38 363,38 364,38 365,37 367,37 369,36 371,36 371,36 372,36 373,35 374,33 376,33 377,33 377,32 379,30 380,30 380,30 381,30 384,30 384,30 385,30 385,30 390,31 391,31 394,31 399,31 399,31 400,31 400,30 401,30 402,29 402,29 403,29 404,28 405,28 405,27 406,27 407,26 408,26 410,24 411,24 412,24 412,24 413,23 414,23 415,23 415,23 415,23 418,22 419,21 419,21 419,21 419,21 419,20 420,20 420,19 420,18 420,18 420,18 419,17 417,15 417,14 417,14 416,14 416,13 415,13 415,13 411,9 410,8 410,8 410,8 410,8 410,8 409,6 409,5 409,4 408,3 408,2 408,2 408,2 408,2 408,1 408,0 415,0 425,2 425,2 428,4 431,7 434,11 434,12 435,12 435,13 437,15 439,16 443,21 444,20 446,17 447,16 447,15 453,16 454,15 457,15 457,15 458,15 459,15 461,15 462,15 462,15 463,16 463,16 463,17 463,18 463,19 464,20 466,20 467,19 470,19 471,22 472,23 472,23 472,23 471,24 471,24 470,24 469,24 467,24 465,24 463,24 463,24 461,25 460,25 458,26 457,26 456,26 456,26 455,27 454,27 454,27 452,28 450,29 449,30 447,31 447,31 447,33 447,34 447,35 448,35 448,35 448,36 448,37 449,38 449,39 450,40 451,40 451,41 452,41 452,42 452,43 452,43 452,43 453,44 456,46 458,46 460,47 461,48 463,48 464,48 467,49 469,48 470,49 470,49 471,50 472,51 472,51 473,51 475,52 475,52 475,52 475,52 475,53 475,53 476,54 476,55 476,55 477,56 478,59 478,59 478,60 478,60 479,61 480,62 480,62 482,64 484,66 486,68 488,69 488,69 489,69 490,70 491,70 493,71 495,72 497,72 498,73 500,73 500,73 498,73 497,73 495,76 494,78 494,78 493,79 491,78 490,77 489,77 488,76 488,77 488,77 488,77 487,77 486,77 484,78 484,78 484,78 484,78 486,79 486,79 486,79 484,79 484,78 483,78 483,78 481,79 482,79 483,80 484,80 484,81 485,81 485,81 487,82 487,82 487,82 488,83 488,83 488,84 488,85 488,85 488,86 488,86 489,87 490,87 490,88 491,88 491,88 492,89 493,89 493,89 492,89 492,90 491,89 490,89 490,89 489,89 489,89 489,90 485,89 485,88 484,88 484,88 484,88 484,88 484,88 483,88 483,88 483,88 483,88 483,89 482,90 483,90 483,91 483,91 483,91 483,91 484,91 485,92 485,92 486,92 486,92 487,93 487,93 488,92 489,92 488,93 487,93 486,93 485,94 485,94 485,94 485,94 486,94 486,95 486,95 487,95 487,96 487,96 487,96 486,96 485,96 485,96 484,96 484,97 484,97 483,97 483,97 481,97 481,98 481,98 481,98 481,98 480,99 480,99 479,99 479,100 478,103 478,103 478,103 478,103 478,104 478,105 479,107 479,109 480,111 480,113 470,115 471,115 474,116 471,119 472,120 472,122 472,123 473,125 474,127 475,128 475,129 476,131 477,132 477,133 478,135 479,136 480,138 480,139 481,141 482,143 483,145 484,146 478,146 478,146 477,146 476,147 476,147 476,147 475,147 474,147 474,147 472,148 471,148 470,148 470,148 469,148 468,148 467,149 466,150 465,150 462,150 460,150 459,150 457,150 457,150 457,150 456,150 454,151 454,151 453,151 453,151 453,152 452,152 452,152 451,152 450,152 447,153 445,153 443,153 441,154 439,154 440,155 440,157 440,158 440,159 440,160 440,162 440,164 440,165 441,167 443,168 443,169 445,170 442,171 439,174 438,175 435,177 434,178 433,178 433,178 433,178 434,179 434,180 434,180 433,181 432,182 431,182 431,183 430,183 430,184 430,184 429,184 428,184 427,185 427,185 427,185 425,186 423,188 421,190 421,191 420,191 419,193 418,194 419,193 419,193 419,194 419,194 419,194 420,194 420,194 420,194 420,194 421,194 421,194 422,194 422,195 421,195 421,196 421,196 420,196 420,196 421,197 421,197 421,197 422,198 422,198 422,199 420,199 420,199 420,199 420,199 420,199 420,200 419,202 417,201 417,200 417,200 417,199 417,199 417,199 417,199 417,198 416,197 416,197 416,197 416,197 414,196 410,196 410,196 409,197 409,198 408,198 406,198 406,198 405,199 405,200 405,200 404,199 404,199 404,199 404,198 404,198 404,198 404,198 404,199 404,199 404,199 404,199 404,200 404,201 404,201 404,202 404,203 404,203 404,203 403,203 403,204 403,204 402,205 396,206 395,205 393,204 393,203 393,203 393,203 392,202 392,202 392,202 391,200 392,199 392,199 393,199 392,198 387,199 388,200 384,200 383,203 382,205 383,205 383,205 383,206 380,208 379,210 380,211 380,212 380,212 380,212 381,212 381,213 382,213 382,213 382,213 383,213 383,213 384,213 384,213 385,213 385,213 385,214 386,213 386,213 387,212 387,213 388,213 388,214 388,216 389,216 389,217 389,217 389,217 389,217 390,218 390,218 390,218 391,218 391,220 392,220 392,220 392,221 392,221 392,221 393,221 393,222 394,223 394,223 393,223 393,223 393,224 393,224 393,224 393,225 393,226 393,226 393,226 393,226 393,226 395,227 394,227 394,228 394,229 395,229 395,230 396,231 396,231 396,232 396,232 396,232 396,233 396,233 397,234 397,234 398,234 398,234 399,234 400,234 400,234 401,234 402,235 401,235 401,235 400,236 401,236 401,236 402,236 402,236 403,236 404,237 405,237 405,237 405,237 406,237 406,237 406,238 406,238 407,238 407,237 408,237 408,237 408,237 409,237 409,237 409,238 409,239 410,240 410,240 410,240 410,240 411,241 411,241 411,241 412,241 413,242 413,242 413,242 414,242 414,242 415,242 416,243 416,244 416,243 418,244 418,244 422,245 422,246 421,246 424,248 425,247 427,247 427,247 427,247 428,247 428,247 429,247 430,247 430,247 430,247 430,247 430,247 430,247 430,247 430,248 430,248 430,248 431,248 431,248 431,248 435,247 435,248 435,248 435,248 435,248 435,248 435,248 434,249 434,248 434,248 434,248 434,249 433,249 433,249 433,249 433,249 433,249 433,249 432,250 432,250 432,250 432,250 432,250 431,250 431,250 430,250 430,249 430,249 430,249 430,249 430,250 429,250 429,250 429,250 429,250 428,250 428,250 428,250 428,251 428,251 428,251 428,251 428,251 429,251 429,252 429,252 429,252 429,252 429,252 429,253 429,253 429,253 429,253 428,252 428,252 428,252 428,252 428,253 428,253 428,253 428,253 428,253 428,253 427,253 427,253 427,253 427,253 427,253 427,253 427,253 426,253 426,253 426,253 426,254 426,254 426,254 426,254 426,254 426,254 426,254 425,254 424,254 425,255 425,255 425,255 424,256 423,256 423,256 422,257 422,257 421,258 420,258 420,258 419,258 419,258 419,258 418,259 418,259 417,259 417,259 417,260 417,260 417,260 416,260 415,261 415,261 415,261 415,261 415,262 414,262 414,262 413,262 413,262 413,262 413,262 413,262 413,262 412,262 412,262 412,262 411,262 411,262 410,262 409,262 409,262 408,262 408,263 408,263 408,263 407,263 407,263 406,262 406,262 406,262 406,262 406,262 405,262 405,261 404,262 404,262 404,261 403,261 402,261 399,260 399,260 399,261 399,261 399,262 398,263 397,265 396,266 395,267 394,268 394,268 394,268 394,268 394,268 391,268 391,268 390,268 388,269 387,270 385,272 384,272 383,273 383,273 382,273 382,273 381,274 383,275 383,276 379,276 376,277 376,277 376,277 376,277 377,277 377,278 376,278 376,278 377,278 377,279 376,279 375,279 374,278 374,278 374,278 372,280 372,280 369,281 366,282 364,282 361,284 357,284 355,284 355,284 354,284 353,283 353,283 352,283 352,283 350,282 350,283 347,283 347,283 345,283 345,283 344,283 343,284 343,285 342,284 340,284 339,285 339,284 336,284 335,285 332,287 333,287 333,288 332,289 332,289 332,289 332,290 330,291 330,293 330,293 331,293 331,293 331,293 333,294 334,294 336,294 338,295 338,295 339,295 340,296 340,296 340,296 340,297 340,297 341,297 341,298 342,298 342,298 342,299 343,299 343,299 343,299 343,299 344,299 344,299 344,299 345,300 345,299 346,300 345,301 344,302 344,302 343,303 343,303 343,303 342,303 342,303 342,303 341,303 341,304 340,304 340,304 340,304 340,304 338,304 338,304 337,303 336,303 336,302 335,301 335,301 334,301 334,300 334,300 334,300 333,300 333,300 333,299 333,299 332,299 332,299 331,299 331,299 331,298 331,298 330,298 330,298 329,298 329,298 329,298 329,298 328,298 328,298 328,298 328,298 327,298 327,298 327,298 326,298 326,298 326,298 325,298 325,298 325,298 325,298 325,298 324,298 324,298 323,298 322,299 322,301 322,301 322,302 322,302 322,303 322,303 322,303 322,304 321,304 321,305 321,305 321,305 321,306 321,306 321,306 321,306 321,307 321,308 321,308 322,308 322,309 321,310 321,310 321,310 321,310 321,311 322,311 322,311 323,311 323,311 324,311 324,311 324,311 324,311 325,311 325,311 326,311 327,312 327,312 327,312 327,312 327,312 326,313 325,313 325,313 325,313 325,313 325,313 324,314 323,315 323,315 323,315 323,315 323,315 323,315 322,315 322,315 322,315 322,315 322,314 322,314 322,314 322,314 322,314 321,314 321,314 321,314 321,314 321,314 321,314 321,314 321,314 321,314 321,314 320,314 320,314 320,314 320,314 320,314 320,314 320,314 320,314 320,314 320,314 320,314 319,314 319,314 319,314 319,313 319,313 319,313 319,313 318,313 318,313 318,313 318,313 318,313 318,313 318,313 318,313 318,313 318,313 317,313 317,313 317,313 317,313 317,313 317,313 317,313 317,313 317,313 317,313 317,312 317,312 317,312 317,312 317,312 317,312 317,312 317,313 317,313 317,313 317,313 317,313 316,313 316,313 316,313 316,312 316,312 316,312 316,312 316,312 316,312 316,312 316,312 316,311 316,311 316,311 316,311 315,311 315,311 315,311 315,311 315,311 315,311 315,311 315,311 314,311 314,310 315,310 315,310 315,310 314,310 314,310 314,310 313,310 313,310 312,310 312,310 311,310 311,310 310,311 310,310 310,310 309,310 309,310 309,310 308,309 308,309 307,309 305,310 304,310 302,310 302,310 301,310 300,311 300,311 300,311 300,311 299,311 299,312 299,312 298,312 298,312 297,312 295,312 294,313 294,313 293,313 293,313 293,313 292,312 292,312 292,312 292,312 292,312 292,312 292,312 292,312 292,312 292,312 292,312 291,312 291,312 291,312 291,312 291,312 291,312 291,312 291,312 291,312 290,312 290,312 290,312 290,312 290,312 290,312 290,312 290,312 289,312 289,312 289,312 289,312 288,312 288,312 286,312 286,312 286,313 286,313 288,313 288,313 289,313 289,313 288,313 285,313 285,314 285,313 284,314 283,314 283,314 281,313 280,316 280,316 280,316 281,316 283,317 284,318 287,322 285,322 287,325 287,325 287,326 288,328 288,328 288,330 288,332 289,334 289,334 289,334 289,335 290,337 291,340 291,340 291,341 291,341 291,344 291,344 291,346 290,345 290,344 290,342 290,341 289,341 289,338 289,338 288,335 287,336 285,338 283,341 284,343 286,347 285,347 285,346 283,347 283,349 283,349 283,350 284,350 284,352 283,352 283,354 280,354 280,355 279,355 279,359 279,363 279,363 279,365 275,366 272,366 272,366 270,367 268,367 263,366 261,365 257,365 256,369 256,373 254,375 251,375 250,375 249,375 247,375 244,376 245,376 246,377 248,379 248,380 245,382 244,384 246,387 248,389 250,391 250,391 250,393 251,395 251,395 250,395 248,396 248,396 247,396 246,397 245,397 245,400 245,400 245,401 246,402 246,405 246,407 246,407 247,409 247,409 246,410 245,411 244,412 244,412 244,413 244,413 244,413 244,414 246,415 241,414 240,417 239,423 224,423 224,428 224,430 224,440 184,438 184,438 167,437 141,436 141,435 141,434 139,434 137,434 135,434 135,434 135,434 132,434 130,434 128,434 129,430 114,432 113,430 113,429 114,427 115,426 115,426 116,425 117,422 117,422 117,421 117,420 117,418 119,415 119,415 116,414 115,414 114,413 114,413 112,412 112,410 112,410 111,409 110,408 110,408 108,409 107,408 107,407 106,406 105,406 104,406 103,406 97,407 97,407 95,406 94,405 94,405 93,405 92,403 91,403 90,403 89,404 87,404 86,403 85,404 85,404 81,405 79,405 77,406 74,406 74,407 73,409 72,409 71,409 69,408 69,409 66,408 65,405 69,404 68,403 64,404 61,400 60,400 62,399 59,395 64,393 63,392 67,392 66,391 67,390 68,390 68,389 72,389 72,387 70,387 70,386 71,386 71,385 72,385 73,382 73,382 75,380 76,380 77,379 78,379 78,376 79,376 79,372 83,372 83,371 84,372 85,369 85,369 86,367 86,367 88,365 89,365 88,364 86,364 83,364 82,364 82,365 81,365 80,365 79,365 78,365 78,365 77,366 75,367 73,366 73,366 72,366 72,366 72,366 72,366 72,366 71,366 70,366 69,367 69,367 68,367 67,367 67,367 66,367 65,367 64,367 61,368 61,368 60,368 60,368 59,369 59,369 57,368 57,368 53,364 51,365 49,363 48,363 48,362 50,361 52,361 52,361 56,359 55,359 52,357 53,357 49,355 48,355 47,356 45,354 44,352 42,353 39,355 37,353 32,354 32,355 31,355 32,356 32,356 33,358 33,358 32,358 33,359 33,359 33,359 33,359 34,359 35,361 35,361 35,361 35,361 34,362 33,362 33,362 30,362 28,362 28,361 27,361 26,362 26,362 25,362 24,361 24,361 24,361 24,361 24,360 23,360 23,360 22,360 22,360 21,358 21,358 22,358 22,357 23,357 23,357 23,356 24,355 25,353 25,354 26,354 26,353 25,353 25,352 25,352 26,352 26,351 26,351 28,350 28,350 28,350 27,350 26,350 25,351 25,351 25,351 24,350 24,351 24,350 23,350 23,350 14,352 13,351 14,350 14,350 15,349 16,349 15,348 14,348 15,348 14,348 12,347 12,347 12,347 10,346 10,346 9,346 9,347 8,347 8,347 2,348 3,347 3,347 2,345 2,344 2,343 2,342 1,343 0,341 0,341 0,341 1,341 2,341 4,340 4,339 4,339 5,339 5,339 4,337 3,337 2,336 3,336 2,334 3,334 2,333 4,333 4,333 4,332 6,332 7,332 7,333 7,333 8,333 9,333 8,332 9,332 9,332 9,332 13,332 15,331 16,330 16,330 16,330 16,330 15,329 15,329 14,328 14,328 14,328 13,327 13,327 13,327 12,326 12,326 12,326 11,325 11,325 10,324 10,324 10,323 9,323 8,323 8,322 9,322 11,321 11,321 12,320 13,320 13,320 14,320 15,319 16,318 16,318 17,318 18,317 19,318 19,318 19,318 19,318 20,318 20,318 20,318 34,315 35,316 36,316 41,319 40,319 42,320 39,323 39,323 39,324 42,324 44,324 47,326 47,325 49,324 52,324 52,324 54,324 55,324 57,324 58,324 59,325 60,325 62,325 62,326 62,327 62,328 62,329 61,330 60,331 60,332 59,333 58,334 57,335 57,335 61,336 62,335 67,337 70,338 70,338 73,339 73,339 74,339 75,337 76,337 77,335 80,331 97,336 104,337 105,338 107,338 124,339 120,342 141,356 142,357 155,349 156,340 156,337 156,336 156,335 157,335 158,334 158,334 159,333 162,331 163,330 166,326 166,326 166,326 167,326 167,325 166,325 166,324 165,323 165,322 167,320 168,320 168,320 169,319 169,319 169,319 170,319 170,319 170,318 171,318 170,318 171,317 171,317 171,316 170,316 171,315 171,314 171,314 172,314 172,314 170,313 169,311 170,311 170,311 170,310 170,311 171,310 171,310 171,310 171,309 172,309 172,309 172,308 172,307 172,307 172,305 172,305 172,305 172,305 172,305 173,304 173,304 173,304 173,303 173,303 173,303 173,303 173,303 173,302 173,301 172,301 173,300 173,300 173,300 173,299 174,299 174,298 174,298 174,298 174,297 175,297 176,297 176,297 177,296 176,296 176,295 176,295 176,295 175,294 176,293 177,293 178,293 179,293 180,292 180,292 180,292 180,292 180,291 179,291 179,291 179,291 179,290 178,289 178,289 177,287 177,287 177,287 177,287 177,287 177,287 177,287 177,286 178,286 178,285 178,285 180,285 179,284 179,284 179,284 179,283 180,283 180,283 179,283 179,282 179,281 178,282 178,281 178,281 177,281 177,281 176,281 176,281 174,281 174,281 174,281 173,281 173,281 172,280 172,280 171,280 171,280 170,279 170,279 169,278 167,278 166,277 166,276 166,276 165,276 165,275 165,274 165,273 165,272 166,272 166,271 166,271 162,269 160,267 160,267 159,266 159,266 158,265 157,265 157,264 156,263 155,263 154,263 153,263 152,259 148,260 148,259 145,259 145,256 146,256 146,254 146,253 144,253 142,253 135,253 135,253 126,252 126,250 124,251 124,249 121,249 121,249 120,248 119,247 119,246 118,246 117,245 115,244 114,243 112,243 112,243 111,243 110,241 109,240 103,241 102,240 102,240 98,239 95,239 95,239 93,240 92,240 92,239 91,239 90,239 89,240 84,234 84,234 84,234 83,234 83,233 83,233 84,233 84,233 85,232 86,232 87,231 88,231 88,231 88,230 88,230 87,230 86,228 86,228 85,227 85,226 84,226 84,225 84,225 83,224 83,224 83,223 83,223 82,222 82,221 82,220 81,219 78,220 74,217 74,217 75,216 75,215 76,215 76,215 77,215 77,215 78,215 79,215 79,215 80,214 80,214 81,214 81,214 81,214 81,214 81,214 81,213 82,213 82,213 82,213 83,212 83,212 84,212 84,211 85,211 85,211 86,211 86,211 86,211 86,211 87,210 87,210 87,210 89,210 89,210 89,210 89,210 89,210 90,210 90,210 91,210 91,210 91,210 92,210 93,209 94,209 94,208 94,208 94,206 94,206 93,205 93,205 94,204 94,204 93,203" id="7621" class="canton" fill="steelblue" stroke-width="1" stroke="white" geotype="canton" geoname="Mesnil-Esnard" code_insee="7621" code_departement="76" nom_departement="Seine-Maritime" code_region="28" nom_region="Normandie"/></svg>