<?xml version="1.0" encoding="utf-8"?>
<svg version="1.1" id="svgmap" xmlns="http://www.w3.org/2000/svg" xmlns:xlink="http://www.w3.org/1999/xlink" x="0px" y="0px" width="100%" height="100%" viewBox="0 0 500 288">
<polygon points="57,8 61,8 62,8 64,8 65,8 66,8 72,6 73,6 74,6 76,5 79,5 81,4 82,4 83,4 84,4 85,3 88,3 90,2 92,2 93,2 95,2 95,2 96,2 98,1 99,1 102,1 102,0 104,0 109,1 110,1 115,3 123,5 127,6 130,7 133,8 136,8 137,9 140,10 142,11 145,12 148,14 150,15 152,15 156,20 160,23 164,25 165,26 167,27 173,30 175,31 177,32 180,32 185,33 190,34 198,35 202,35 211,36 218,37 223,38 227,39 228,40 229,41 230,41 233,41 240,41 240,42 239,43 239,45 238,47 238,49 238,52 238,53 238,54 238,54 238,55 238,56 238,57 238,58 239,59 238,59 239,59 239,59 239,61 240,61 240,62 241,64 241,65 242,65 249,67 252,69 250,72 253,76 255,79 257,80 260,81 264,83 270,86 276,93 277,94 278,95 280,98 283,102 285,102 309,104 310,105 317,106 320,107 322,108 322,109 324,117 324,117 324,120 324,120 324,122 326,121 329,121 329,124 334,124 335,124 338,126 339,128 340,128 340,128 341,129 342,128 342,128 343,128 343,129 344,129 345,129 346,130 349,132 349,132 350,132 350,132 351,133 351,133 352,133 353,134 352,135 353,135 353,136 353,136 354,137 356,139 358,142 361,145 362,146 364,148 364,149 371,149 377,149 382,149 397,149 403,157 414,171 420,172 424,171 426,171 429,172 436,171 460,241 461,242 463,244 464,244 480,264 486,271 494,281 500,287 499,288 498,288 482,287 477,287 467,287 462,286 461,286 442,285 418,283 414,283 412,282 396,281 395,281 383,280 371,280 369,279 350,278 351,263 353,252 354,247 348,248 334,251 331,251 325,252 318,261 312,263 294,264 278,256 277,257 276,257 276,257 274,257 273,257 273,257 270,258 270,258 265,260 263,261 263,261 262,262 261,262 259,263 258,263 257,262 253,264 252,267 252,270 251,270 249,270 248,270 243,270 239,270 235,270 234,270 234,269 237,266 238,264 239,262 241,260 241,258 242,257 242,256 243,254 243,252 243,249 242,246 241,243 241,241 240,239 238,237 235,233 233,231 229,228 225,226 222,224 224,224 225,223 237,215 236,214 234,212 233,210 231,205 229,204 227,203 212,198 190,192 182,190 178,189 178,188 178,187 178,185 179,184 180,183 181,180 183,177 180,177 176,177 173,178 171,178 170,178 168,178 164,177 161,177 161,176 159,176 157,173 157,173 158,170 159,168 160,165 160,165 160,164 159,161 159,160 159,158 143,156 137,155 127,153 116,151 105,149 87,146 74,143 70,143 61,141 56,141 56,140 57,136 54,135 53,135 52,135 52,134 51,134 51,132 48,124 44,124 40,124 39,125 38,122 40,121 33,105 32,101 28,102 28,101 27,101 26,100 24,95 24,92 23,88 21,85 19,80 17,78 16,76 15,75 13,74 12,74 10,70 7,70 6,66 4,63 3,61 1,61 0,58 7,55 14,53 15,52 18,51 19,51 22,51 27,51 28,50 30,50 33,50 35,50 36,50 37,49 37,49 37,48 38,48 37,45 37,45 37,44 33,37 32,34 37,36 39,37 43,35 43,35 50,32 51,31 53,30 54,29 55,29 58,18 59,16 59,15 60,11 57,8" id="7701" class="canton" fill="steelblue" stroke-width="1" stroke="white" geotype="canton" geoname="Champs-sur-Marne" code_insee="7701" code_departement="77" nom_departement="Seine-et-Marne" code_region="11" nom_region="Île-de-France"/></svg>