<?xml version="1.0" encoding="utf-8"?>
<svg version="1.1" id="svgmap" xmlns="http://www.w3.org/2000/svg" xmlns:xlink="http://www.w3.org/1999/xlink" x="0px" y="0px" width="100%" height="100%" viewBox="0 0 500 338">
<polygon points="79,74 79,74 80,74 80,73 80,73 80,73 80,73 80,72 80,72 80,71 80,71 81,71 81,69 80,69 80,68 80,67 80,67 80,67 80,67 80,66 79,65 77,63 76,63 76,63 75,62 75,62 75,62 74,62 74,61 74,61 73,61 73,61 72,60 71,59 71,59 71,58 71,58 71,57 71,57 70,57 70,57 70,56 70,56 70,55 70,55 70,55 70,55 70,55 70,54 70,54 70,54 70,53 70,52 70,51 70,50 70,49 70,49 70,49 70,48 70,48 70,48 69,48 69,48 69,48 68,47 68,47 68,47 68,47 67,46 67,46 67,45 67,45 67,44 68,41 70,40 71,40 75,38 78,37 79,37 79,37 79,36 80,36 80,36 82,35 83,35 83,35 84,35 84,35 84,34 84,34 86,34 87,35 87,35 87,35 87,36 88,37 89,37 89,37 91,36 92,36 92,36 93,35 97,34 97,34 98,34 99,33 101,32 102,32 103,31 104,31 105,30 105,30 105,30 105,30 105,30 108,29 111,29 112,29 112,28 112,28 112,28 115,27 115,27 116,26 116,26 118,26 117,23 117,22 119,20 119,19 122,16 122,16 123,16 123,16 124,16 124,16 125,16 125,16 126,15 126,14 127,14 128,13 129,12 130,13 131,13 132,13 132,13 133,12 133,12 134,12 134,12 134,11 137,11 137,11 139,10 139,9 139,9 141,2 147,0 171,9 174,10 189,16 208,24 208,23 209,22 210,21 212,21 213,18 226,21 234,27 244,25 244,24 247,24 250,29 253,34 253,34 252,36 250,38 250,39 249,40 249,41 251,41 252,41 252,42 253,42 253,43 249,46 249,47 248,50 245,53 244,54 244,55 244,55 244,55 243,56 242,57 241,57 239,59 238,59 238,60 237,61 237,61 237,61 237,62 236,64 236,65 237,66 237,66 236,66 233,63 232,63 230,64 230,64 226,67 224,66 220,70 219,70 216,73 217,74 216,76 211,74 211,77 211,79 211,80 211,83 211,86 211,90 211,90 212,91 213,92 214,95 212,95 211,96 209,96 201,99 205,100 206,101 209,103 209,104 212,105 211,106 211,107 210,107 210,108 209,109 216,109 216,109 217,108 219,109 220,107 220,107 220,108 221,108 222,109 223,109 224,110 225,111 226,112 225,115 226,118 226,118 227,120 227,121 226,122 225,124 225,125 225,127 224,129 224,130 224,131 223,133 223,133 227,134 232,135 236,135 264,137 264,137 269,137 269,137 273,137 276,136 276,136 276,136 276,138 276,140 272,151 272,152 270,156 269,160 269,160 242,165 242,165 221,169 207,172 209,176 209,176 209,181 206,187 208,187 202,196 209,197 215,199 219,200 226,202 233,204 234,204 237,205 239,205 240,206 244,207 248,209 255,213 262,216 264,218 265,219 267,220 269,222 270,223 276,230 284,240 287,242 288,244 288,244 294,248 300,252 303,254 306,255 309,256 315,257 322,258 328,258 333,259 335,258 338,258 342,257 348,256 356,254 361,252 368,248 375,246 382,241 397,233 403,231 406,230 414,227 422,224 427,221 430,220 438,216 443,213 444,213 449,209 455,204 460,202 465,199 467,201 467,202 468,207 473,211 483,220 483,221 489,226 492,228 493,228 493,229 493,230 494,234 500,252 500,252 487,252 489,261 488,261 486,261 481,289 473,305 472,307 466,314 465,316 457,324 457,325 456,325 433,318 433,318 409,309 365,293 364,292 361,292 354,292 350,292 346,293 348,292 348,290 345,289 344,288 342,286 342,285 341,284 340,284 339,283 325,278 315,275 298,268 281,262 267,257 259,266 261,266 249,273 248,273 254,278 252,279 251,279 253,282 254,286 258,289 247,291 246,292 276,328 274,329 265,332 262,334 256,331 249,334 240,337 235,335 233,335 229,335 217,337 216,337 208,337 208,338 196,338 196,336 197,334 197,333 198,331 202,322 202,321 203,319 203,314 203,313 203,311 203,310 203,308 203,308 202,306 201,305 201,304 201,303 201,302 202,300 202,298 191,296 182,294 180,294 176,294 177,291 178,289 179,288 181,284 181,283 173,281 170,280 170,280 168,279 165,277 163,277 161,276 159,275 158,275 157,274 157,274 156,274 156,274 156,275 152,280 152,281 143,292 143,292 143,293 141,292 142,291 142,290 143,289 140,288 139,289 138,288 136,288 134,287 132,286 125,284 124,284 123,277 101,279 100,277 99,274 97,270 96,266 96,264 96,263 98,261 98,261 91,260 91,266 90,271 84,272 82,272 79,273 77,273 75,273 75,272 75,272 75,272 74,272 74,272 71,271 69,271 68,271 66,271 64,271 62,271 56,270 52,271 52,274 51,276 52,277 52,279 37,282 35,280 40,279 34,269 34,269 32,265 36,264 35,262 37,261 37,260 37,260 37,258 38,257 37,256 35,255 34,255 32,254 30,253 26,255 26,255 23,257 23,257 17,256 16,255 14,255 12,255 10,255 6,255 4,255 2,254 2,249 3,249 0,243 4,242 3,239 5,239 5,237 7,232 7,232 8,229 1,228 3,221 9,222 12,222 13,220 15,216 13,215 15,213 14,212 18,209 22,210 27,205 20,202 17,200 24,196 26,195 29,198 32,195 30,194 35,189 33,188 36,185 39,183 41,177 44,172 42,172 40,172 38,172 37,172 26,172 23,172 20,172 18,173 15,173 10,173 8,173 8,171 9,169 8,169 8,167 7,165 8,161 11,162 12,163 17,163 19,163 19,162 20,160 21,159 21,158 22,158 23,158 24,157 25,156 25,156 26,155 26,154 27,153 29,146 29,146 49,129 57,119 58,116 60,116 60,116 72,110 73,107 73,107 73,105 74,105 75,101 75,101 76,99 75,97 74,95 74,94 73,92 72,90 72,90 71,88 70,86 82,85 86,84 88,83 91,82 95,82 101,83 103,83 106,83 107,82 109,75 94,76 87,75 86,75 84,75 80,76 79,74" id="7719" class="canton" fill="steelblue" stroke-width="1" stroke="white" geotype="canton" geoname="Saint-Fargeau-Ponthierry" code_insee="7719" code_departement="77" nom_departement="Seine-et-Marne" code_region="11" nom_region="Île-de-France"/></svg>