<?xml version="1.0" encoding="utf-8"?>
<svg version="1.1" id="svgmap" xmlns="http://www.w3.org/2000/svg" xmlns:xlink="http://www.w3.org/1999/xlink" x="0px" y="0px" width="100%" height="100%" viewBox="0 0 500 209">
<polygon points="10,92 10,92 10,92 10,92 11,92 11,92 11,92 12,92 12,92 12,92 12,92 12,92 12,92 13,92 13,92 13,92 13,92 13,92 13,92 13,92 13,92 12,92 12,92 12,92 12,92 12,92 12,92 12,92 12,93 13,93 13,92 14,92 14,92 14,92 14,92 14,92 15,92 15,92 15,92 15,92 15,92 15,92 15,92 16,92 16,92 16,92 16,92 16,92 16,91 16,91 16,91 16,91 16,91 16,91 16,91 16,91 17,91 17,91 17,91 17,91 17,91 17,92 18,92 18,92 18,92 18,92 18,92 18,91 18,91 18,91 18,91 18,91 18,91 18,91 18,91 18,91 18,91 18,91 18,91 19,91 19,91 19,91 19,91 19,91 19,91 19,91 20,91 19,91 19,92 19,92 19,92 19,92 19,92 20,92 20,92 20,92 20,92 20,92 20,92 20,92 20,93 20,93 20,93 20,93 20,93 20,93 21,93 21,93 21,93 21,93 21,93 21,93 21,93 21,93 21,93 22,93 22,93 22,93 22,93 22,93 22,93 22,94 22,94 22,94 22,94 23,94 23,94 23,94 23,94 23,94 23,93 23,93 23,93 23,93 23,94 23,94 24,94 24,94 24,94 24,94 24,94 24,94 25,94 25,94 25,94 25,94 25,94 25,94 26,94 26,94 26,94 26,94 26,94 26,94 26,94 26,94 26,94 26,94 27,94 27,94 27,94 27,94 27,94 27,94 27,95 27,95 27,95 27,95 28,95 28,95 28,95 28,95 28,95 28,95 28,95 28,95 28,95 28,95 29,95 29,96 29,96 29,96 29,95 29,95 29,95 29,95 30,95 30,95 30,95 30,95 30,95 30,95 30,95 30,95 30,95 31,95 31,95 31,95 31,95 31,95 31,95 31,95 31,95 32,95 32,95 32,95 32,95 32,95 33,95 33,95 33,95 33,95 33,95 33,95 33,95 33,95 33,95 33,95 34,95 34,95 34,95 34,95 34,95 34,95 34,95 34,95 34,95 35,95 35,95 35,95 35,95 35,96 35,96 35,96 35,96 35,96 35,96 35,96 35,96 35,96 35,96 35,96 35,97 35,97 35,97 35,97 35,97 35,97 35,97 35,97 36,97 36,97 36,97 36,97 36,97 36,97 36,97 37,97 36,97 36,97 36,97 36,98 36,98 36,98 36,98 36,98 36,98 36,98 36,98 36,98 36,98 36,98 37,98 37,98 37,98 37,98 38,98 38,98 39,98 39,98 39,98 39,98 39,98 39,98 40,97 40,97 40,97 40,97 40,97 40,97 40,97 41,97 41,97 41,97 41,97 41,97 41,97 41,97 42,97 42,96 42,96 42,96 42,96 42,97 43,97 43,97 43,97 43,97 44,96 44,96 44,96 45,96 45,96 45,96 45,96 45,95 45,95 45,95 45,95 46,95 46,95 46,94 46,94 47,94 46,94 46,94 46,94 46,93 45,94 45,93 44,93 44,93 44,93 44,93 43,92 43,92 42,92 41,91 41,91 41,91 40,91 40,91 40,90 40,90 40,90 40,90 40,90 40,90 41,90 41,90 41,90 41,89 41,89 42,89 42,89 42,89 42,89 42,89 42,89 43,89 43,89 43,88 43,88 44,88 44,88 44,88 45,88 45,88 45,88 46,87 47,87 47,87 48,86 48,86 48,85 48,84 48,83 48,83 49,83 49,83 49,82 50,81 51,81 51,81 51,81 51,81 51,81 51,80 52,80 52,80 52,80 52,81 52,81 52,81 52,81 52,81 53,82 53,82 53,82 54,83 54,83 54,83 54,84 55,84 55,84 55,84 55,84 55,84 56,84 56,84 57,84 57,84 57,84 57,84 58,84 58,83 58,83 59,83 59,83 59,82 59,82 59,82 60,82 61,82 61,82 61,82 61,82 62,81 62,81 62,81 62,81 62,80 62,80 62,80 62,80 63,80 63,80 63,80 63,80 63,79 63,79 64,79 64,79 64,79 65,79 65,78 65,78 66,78 66,78 66,78 66,78 66,78 67,78 67,78 67,78 68,78 68,78 68,78 68,78 69,77 69,77 70,77 70,77 70,77 71,77 71,77 72,77 72,77 72,77 72,77 72,77 72,77 73,77 73,77 73,77 73,77 73,77 73,77 73,78 74,78 74,78 74,78 74,77 74,77 75,77 75,77 75,77 75,77 75,77 75,77 76,77 76,77 76,77 76,77 77,77 77,77 77,77 77,77 77,77 78,77 78,77 78,76 78,76 78,76 78,76 78,76 79,77 79,77 78,77 78,77 78,77 79,77 79,77 79,77 79,77 79,78 79,78 79,78 79,78 79,78 79,78 79,79 79,79 79,79 79,79 79,79 79,79 78,79 78,79 78,79 78,79 77,79 77,79 77,80 77,80 76,80 76,80 76,80 75,80 75,80 75,80 76,80 76,80 76,80 76,80 77,80 77,80 77,80 77,80 78,80 78,80 78,80 78,80 78,80 78,80 78,81 78,81 78,81 78,81 78,81 78,81 78,81 78,81 78,81 79,81 79,81 79,81 79,81 79,81 79,81 79,81 79,81 79,81 79,81 80,82 80,82 80,81 80,81 80,81 80,81 80,81 80,82 80,82 80,82 80,82 81,82 81,82 81,82 81,83 81,83 81,83 81,83 81,83 82,83 81,83 81,83 81,82 81,82 81,82 81,82 82,82 82,82 82,81 83,81 83,81 84,81 83,80 83,80 82,79 81,79 81,79 81,79 81,79 81,80 79,79 79,79 79,79 80,78 80,78 80,78 81,78 81,78 81,78 82,77 82,77 82,76 83,77 83,77 83,77 84,77 84,77 84,77 85,77 85,77 85,77 85,77 86,77 86,77 86,77 87,76 87,76 88,77 88,76 88,76 89,76 90,76 90,76 91,75 91,75 91,75 92,75 92,75 92,75 92,75 92,74 92,74 93,74 93,74 94,73 94,73 94,73 95,73 95,72 95,72 96,72 96,72 96,72 96,72 96,71 96,71 96,71 97,71 97,70 97,70 97,70 97,70 97,70 97,69 97,69 97,69 98,68 98,68 98,68 99,68 99,68 99,67 99,67 99,67 100,67 100,67 100,67 100,67 100,67 100,67 100,67 101,68 101,68 101,68 101,68 101,68 101,68 102,68 102,68 102,68 102,68 102,69 102,69 102,69 102,69 102,69 102,69 102,69 102,69 102,69 102,69 102,69 102,70 102,70 103,70 103,70 103,70 103,70 103,70 103,70 104,70 104,70 104,70 104,70 104,70 104,69 104,69 104,69 105,69 105,69 105,69 105,69 105,69 105,69 106,69 106,69 106,69 106,68 106,68 106,68 106,68 106,68 107,68 107,68 107,68 107,68 107,68 107,68 107,68 107,68 107,68 107,68 108,68 108,69 108,69 108,69 108,69 108,69 108,69 108,69 108,69 108,69 108,69 108,69 108,69 108,69 109,69 109,69 109,69 109,69 109,69 109,69 109,69 110,69 110,69 110,69 110,69 110,68 110,68 110,68 110,68 110,68 111,68 111,68 111,68 111,68 111,68 111,68 111,68 111,68 111,68 111,68 111,68 111,68 111,68 111,68 111,68 112,68 112,68 112,68 112,68 112,68 112,68 112,68 112,68 112,68 112,68 112,68 112,68 112,68 112,68 112,68 113,68 113,68 113,69 113,69 113,69 113,69 113,69 113,69 113,69 114,69 114,69 114,69 114,69 114,69 115,69 115,69 115,70 115,70 115,70 115,70 115,70 115,70 115,70 115,70 115,70 115,70 115,71 115,71 115,71 115,71 116,72 116,72 116,72 116,73 116,73 116,73 116,73 115,73 115,73 115,73 115,73 115,73 115,74 115,74 115,74 115,74 115,74 115,74 115,75 115,75 115,75 115,75 115,75 115,75 115,75 115,75 115,76 115,76 115,76 115,76 115,76 116,76 116,76 116,76 116,76 116,75 116,75 118,76 118,76 118,77 118,77 119,78 120,78 121,78 121,78 123,78 123,78 125,78 125,78 125,79 126,78 126,78 126,78 126,78 127,78 127,78 127,78 127,78 127,78 127,78 128,78 128,78 128,78 128,78 128,78 128,78 130,78 130,78 131,78 131,78 131,78 132,78 132,79 132,79 133,79 133,79 133,79 134,79 134,79 135,79 136,79 136,79 137,78 137,78 137,77 137,77 137,77 137,76 137,73 137,72 137,71 140,73 141,73 141,73 143,73 143,73 144,73 144,73 145,73 146,74 146,74 146,74 146,74 147,74 147,74 148,75 148,75 149,75 149,75 149,75 150,76 150,76 151,77 151,77 151,77 151,77 151,77 151,77 152,78 153,78 153,78 154,78 156,80 156,81 158,82 159,83 159,83 159,84 160,84 160,85 160,85 160,85 160,85 160,85 161,85 161,85 161,85 161,85 161,85 161,85 161,85 161,85 161,85 162,84 162,84 162,84 163,84 163,83 163,83 164,83 164,83 164,83 164,83 164,83 165,83 165,82 165,82 165,82 165,82 165,82 166,82 166,82 166,82 166,82 166,82 167,82 167,82 167,81 167,81 168,81 168,81 168,81 168,81 168,81 169,81 169,81 170,80 170,80 170,80 170,80 171,79 171,79 171,79 171,79 171,79 170,78 170,78 170,78 170,78 170,78 171,78 171,78 171,78 171,78 171,78 172,78 172,78 172,78 172,78 173,78 173,78 173,78 173,78 173,78 173,78 173,78 173,78 174,78 174,78 174,78 174,78 174,78 174,78 174,77 174,77 174,77 175,77 175,77 175,77 175,76 175,76 175,76 176,76 176,76 176,76 177,76 177,76 177,76 177,76 177,76 177,76 177,76 177,76 177,76 178,76 178,77 178,77 179,77 179,77 179,78 179,78 180,78 180,78 180,78 180,78 180,78 180,78 180,78 181,78 181,78 181,78 181,78 181,78 181,78 182,78 182,78 182,78 182,78 182,78 182,78 183,78 183,78 183,78 183,78 183,78 183,78 183,79 183,79 183,79 183,79 183,79 183,79 183,79 183,79 183,79 183,80 183,80 183,80 183,80 183,80 183,80 183,80 183,80 184,81 184,81 184,81 184,81 184,81 185,81 185,81 185,82 185,82 185,82 185,82 185,82 185,82 186,82 186,82 186,82 186,82 186,82 186,82 186,82 187,82 187,82 187,82 187,82 187,82 187,82 187,82 187,82 187,82 188,82 188,82 188,82 188,82 188,82 188,82 188,82 189,82 189,82 189,82 189,82 189,82 189,82 190,82 190,82 190,82 190,82 190,82 190,82 190,82 190,82 191,82 191,82 191,82 192,82 192,81 193,81 193,81 193,81 192,80 193,80 193,80 193,80 193,80 193,80 192,79 192,78 192,78 192,78 192,78 191,78 191,78 191,78 190,78 190,78 191,78 191,77 192,77 192,76 193,76 194,75 194,75 194,75 194,75 194,75 194,75 194,75 194,75 195,74 195,74 194,74 194,74 194,74 194,74 194,74 194,74 194,74 195,73 195,73 195,73 195,73 195,73 195,73 195,72 195,72 195,72 195,72 195,72 195,72 195,72 195,72 195,72 195,72 194,72 194,72 194,72 194,72 194,71 194,71 194,71 194,71 194,71 194,71 194,70 194,70 194,70 194,70 195,70 195,70 195,70 195,70 195,70 195,70 196,70 196,70 196,70 196,69 196,69 197,69 197,69 197,69 197,69 197,69 198,69 198,69 198,69 198,69 198,69 199,69 199,69 199,69 199,69 199,69 199,69 199,69 200,69 200,69 200,70 200,70 200,70 200,70 200,70 200,70 199,71 199,71 199,71 199,71 199,71 199,71 201,71 201,72 201,72 201,72 202,72 202,72 202,72 202,72 203,72 203,72 203,72 205,73 205,73 207,74 207,74 207,74 207,73 207,73 207,73 207,73 207,73 207,73 208,73 208,73 208,73 208,73 208,73 209,73 209,73 209,72 209,73 210,73 210,73 210,73 210,73 210,73 210,72 210,72 210,72 211,72 211,72 211,72 211,73 211,73 211,73 211,73 211,73 212,73 212,73 212,73 212,73 212,73 212,73 212,73 213,73 213,73 213,73 213,73 213,74 214,74 214,74 214,74 214,73 215,73 215,73 215,73 215,73 215,73 215,73 215,73 215,73 215,73 215,73 216,73 216,73 216,73 216,73 216,74 216,74 216,73 216,73 217,73 217,74 217,74 217,74 217,74 217,74 217,74 218,74 218,74 218,74 218,74 218,74 218,75 218,75 218,75 218,75 218,75 218,75 217,76 217,76 217,76 217,76 217,76 218,76 218,76 219,77 219,77 219,77 219,77 219,77 219,77 220,77 220,77 220,77 220,77 220,77 219,78 219,78 219,78 219,78 219,78 219,78 220,78 220,78 221,78 221,78 221,78 221,78 221,78 221,78 221,78 221,78 222,77 222,77 222,77 223,76 223,76 223,76 224,76 224,76 224,76 224,76 224,76 224,76 224,76 225,75 225,75 225,75 225,75 225,75 225,75 225,75 225,75 225,75 225,75 225,75 225,75 225,75 226,75 226,75 226,75 226,75 226,75 226,75 226,75 227,75 227,75 227,75 227,75 227,75 227,75 228,75 228,75 228,75 229,75 229,75 229,75 229,75 229,75 229,75 229,75 230,75 230,74 230,74 231,74 231,74 231,74 231,74 231,74 232,74 232,74 232,74 232,74 232,74 232,74 232,74 232,74 232,74 232,74 232,74 233,74 233,74 233,74 233,74 233,74 233,74 233,74 234,74 234,74 234,74 234,74 234,74 234,74 235,74 236,74 236,74 236,74 236,74 236,75 236,75 236,75 236,75 236,75 236,75 236,75 236,75 236,75 235,76 235,76 235,76 235,76 236,76 236,76 236,76 236,76 236,76 237,76 237,77 237,76 237,76 237,76 237,76 237,76 237,76 238,76 238,76 238,76 238,76 238,77 238,77 238,77 238,77 238,77 238,77 238,77 238,77 238,78 238,78 238,78 238,78 238,78 238,78 238,78 239,78 240,77 241,77 241,77 241,77 241,77 241,77 241,77 242,77 242,77 242,77 242,77 242,77 242,77 242,77 242,77 243,78 243,78 243,78 243,78 244,78 244,78 244,78 244,78 245,78 245,78 245,78 245,78 246,78 246,78 246,78 246,78 246,78 247,77 247,77 247,77 247,77 248,77 248,77 248,77 248,77 248,77 248,77 248,77 249,77 249,77 249,77 250,77 250,77 250,77 250,76 250,76 251,76 251,76 251,76 251,76 251,76 251,76 251,76 251,76 252,76 252,76 252,76 252,76 252,75 252,75 253,75 253,75 254,75 254,75 254,75 254,74 254,74 255,74 255,74 255,74 255,74 257,74 257,74 258,74 258,74 258,74 258,74 259,74 259,74 261,74 262,74 262,74 262,74 263,74 263,74 263,73 264,73 265,73 265,73 264,72 263,72 263,72 263,72 263,72 263,72 262,71 262,71 262,71 262,71 262,71 263,70 264,70 264,70 264,70 264,69 264,69 264,69 264,69 264,69 264,69 264,69 264,69 265,69 265,69 265,69 265,69 265,69 265,69 265,69 265,69 265,69 265,69 265,69 265,69 266,69 266,69 266,68 266,68 266,68 266,68 266,68 266,68 267,68 267,68 268,68 268,68 268,68 268,68 268,68 269,68 269,68 269,68 269,67 269,67 269,67 269,67 269,67 269,67 270,67 270,67 270,67 270,67 270,67 270,67 270,66 270,66 270,66 270,66 271,66 271,66 271,66 270,66 270,66 270,66 270,65 270,65 270,65 270,65 270,65 270,65 270,65 270,64 270,64 270,64 270,64 270,64 270,64 270,64 270,64 271,64 271,64 271,64 271,64 271,64 271,64 271,63 271,63 271,63 271,63 271,63 272,63 272,63 272,63 272,62 272,62 272,62 272,62 272,62 273,62 273,62 273,62 273,61 273,61 274,61 274,61 274,61 274,61 274,61 275,61 275,61 275,60 275,60 275,60 276,60 276,60 276,60 276,60 276,59 276,59 276,59 276,59 276,59 276,59 276,59 276,59 276,59 276,59 276,59 277,59 277,59 277,59 277,58 278,58 278,58 278,58 278,58 278,58 278,58 279,58 279,58 279,58 279,58 279,58 279,57 279,57 279,57 279,57 279,57 279,58 279,57 279,57 279,57 279,57 279,57 279,57 280,57 280,57 280,57 280,57 281,57 281,57 281,57 281,57 281,57 281,57 281,57 281,57 281,56 281,56 281,56 282,56 282,56 282,56 282,56 282,56 282,56 282,56 282,56 282,56 283,56 283,56 283,56 283,56 283,56 283,56 283,56 283,56 283,56 283,56 283,56 284,56 284,56 284,56 284,56 284,56 284,56 285,56 285,56 285,56 285,56 285,56 286,56 286,56 286,56 286,56 286,56 286,56 287,56 287,56 287,56 287,56 287,56 287,56 287,56 287,56 287,56 287,56 287,56 287,55 287,55 287,55 287,55 287,55 287,55 288,55 288,55 288,55 288,55 288,55 288,55 288,55 288,55 288,55 288,55 289,55 289,55 289,55 289,55 289,55 289,55 289,55 289,55 289,55 289,55 289,55 289,55 289,55 289,55 289,55 289,54 290,54 290,54 290,54 290,54 290,54 290,54 290,54 290,54 290,54 290,54 290,54 290,54 290,54 290,54 290,54 290,53 290,53 290,54 289,54 289,53 289,53 290,53 290,53 290,53 290,52 289,52 289,52 290,52 290,52 290,52 290,52 290,52 290,52 290,52 290,52 290,52 290,52 290,51 290,51 290,51 290,51 290,51 290,51 290,51 290,51 290,51 290,51 290,50 290,50 290,50 290,50 290,50 290,50 290,50 290,50 290,49 291,48 291,48 291,47 291,47 291,47 291,47 291,47 291,47 291,47 291,47 291,47 291,47 291,47 291,47 291,47 291,47 291,47 291,46 291,46 291,46 291,46 292,46 292,46 292,46 292,46 292,46 292,46 292,46 292,46 292,46 292,46 292,46 292,45 293,45 293,45 293,45 293,45 293,46 293,46 293,46 294,46 294,46 294,46 294,46 294,46 294,46 295,46 296,45 296,45 296,45 296,45 297,45 297,45 297,45 297,45 298,45 298,45 298,46 298,46 299,46 299,46 299,46 299,46 299,46 300,46 300,47 300,47 301,47 301,47 301,47 301,47 302,47 302,47 302,47 303,46 304,46 304,46 304,46 305,46 305,46 305,46 305,46 305,47 305,47 305,47 305,47 305,47 306,47 306,47 306,47 306,46 306,46 306,46 306,46 306,46 306,46 306,46 306,46 306,46 306,46 306,45 306,45 307,45 307,45 307,45 307,45 307,45 307,45 307,45 307,45 307,45 307,45 307,45 307,44 308,45 308,45 308,44 308,44 308,44 308,44 308,44 309,44 309,44 309,44 309,44 309,43 309,43 308,43 308,43 308,43 308,43 308,43 308,43 308,43 308,43 308,43 308,43 308,43 308,43 309,42 309,42 309,42 309,42 309,42 309,42 309,42 308,41 308,41 308,41 308,41 308,41 308,41 308,41 308,41 308,41 308,41 308,41 308,41 307,40 308,40 307,40 307,40 307,40 307,40 306,39 306,39 306,39 306,39 306,39 306,39 305,39 305,39 305,39 305,39 305,39 305,39 304,39 304,39 304,38 304,38 304,38 304,38 304,38 304,38 303,37 303,37 303,37 303,37 303,36 303,36 302,36 302,36 302,36 301,36 301,36 301,36 301,36 301,36 301,36 300,36 299,36 299,36 299,36 299,36 299,36 299,36 299,36 298,36 298,36 298,36 298,36 298,36 298,35 297,35 297,35 297,35 297,35 297,35 297,35 297,33 296,28 295,28 295,28 295,28 295,28 295,27 295,27 295,27 295,26 295,26 295,26 295,25 295,25 295,25 295,25 295,25 295,24 295,24 296,24 296,24 296,24 296,24 296,24 298,23 299,23 299,23 299,22 298,22 298,22 299,22 299,22 298,22 298,22 298,22 298,22 298,22 298,22 298,22 298,21 298,21 298,21 298,21 298,21 298,21 297,21 297,21 298,21 297,21 297,21 297,21 297,21 297,21 297,21 297,21 297,21 297,20 297,20 297,20 297,20 297,20 297,20 297,20 296,20 296,19 296,19 295,19 295,19 295,19 295,19 294,19 294,19 295,18 295,18 296,17 296,17 296,17 296,17 297,17 298,17 298,16 299,16 300,16 300,16 302,16 302,16 302,16 302,16 304,16 304,16 304,15 305,15 306,15 306,15 306,15 306,14 306,14 306,14 307,14 307,13 308,13 309,13 309,13 310,12 312,12 312,12 313,11 313,11 314,10 315,10 315,10 316,10 317,9 317,9 318,9 318,9 319,9 319,9 320,9 321,9 321,9 322,9 323,9 323,9 324,8 326,8 326,7 327,7 327,7 328,7 328,7 328,7 328,7 328,7 329,7 329,7 329,6 329,6 330,6 330,6 330,6 330,6 330,6 331,6 331,6 332,5 332,5 332,5 332,5 332,5 332,5 333,5 333,5 333,5 333,5 333,6 333,6 334,5 334,6 334,5 335,5 336,5 336,5 337,5 337,5 337,5 337,5 337,5 338,5 338,4 338,4 338,4 338,4 338,4 338,4 338,4 339,4 339,4 339,4 339,4 339,4 339,4 339,4 339,4 340,4 340,4 340,4 340,4 341,4 341,4 341,4 341,4 341,4 341,4 341,4 342,4 342,4 342,4 342,4 343,3 343,3 343,3 343,3 343,3 344,3 344,3 344,3 344,3 344,3 345,3 345,3 345,2 345,2 345,3 345,3 346,3 346,2 346,2 346,2 346,2 346,2 347,2 347,2 347,2 347,2 348,2 348,2 348,2 348,2 348,2 348,2 349,1 349,1 349,1 349,1 350,1 350,1 350,1 350,1 350,1 350,1 351,1 351,0 351,0 351,0 351,0 351,0 352,0 352,1 352,1 352,1 352,1 353,1 353,1 353,1 353,1 353,1 353,1 353,1 353,1 353,1 353,1 353,1 354,2 354,2 354,2 354,2 354,2 355,2 355,2 355,2 355,2 355,2 355,2 355,2 355,3 355,3 355,3 356,2 356,2 356,2 356,2 356,2 356,2 357,2 357,2 357,2 357,2 357,2 357,2 357,2 357,2 357,2 357,2 358,2 358,2 358,2 358,2 359,2 359,2 359,2 359,2 359,2 360,2 360,2 360,2 360,2 360,2 360,2 361,2 361,2 361,2 361,2 361,2 361,2 362,2 362,2 362,2 362,1 362,1 362,2 362,2 362,2 363,2 363,2 363,2 363,2 363,2 363,2 364,2 364,1 364,1 364,1 364,1 364,1 364,1 364,1 364,1 364,1 364,1 365,1 365,1 365,1 365,1 365,1 365,1 365,1 365,1 365,1 366,1 366,1 366,1 366,1 366,1 366,1 366,1 366,1 366,1 366,1 367,1 367,1 367,2 367,2 367,2 367,2 367,2 367,2 367,2 368,2 368,2 368,2 368,2 368,2 369,2 369,1 369,1 369,1 369,1 369,1 369,1 369,1 370,1 370,1 370,1 370,1 370,1 370,1 371,0 371,0 371,0 371,0 371,0 371,0 372,0 372,0 372,0 372,0 372,0 372,0 372,0 372,0 373,0 373,0 373,1 373,1 373,1 373,1 373,1 374,1 374,1 374,1 374,1 374,1 375,1 375,2 375,2 376,2 376,2 376,2 376,2 376,2 376,2 376,2 376,2 376,2 377,2 377,2 377,2 377,1 377,1 377,1 377,2 377,2 377,1 377,1 377,1 378,1 378,1 378,1 378,1 378,1 378,2 378,2 378,2 378,2 379,2 379,2 379,2 379,2 379,2 379,2 379,2 379,2 379,2 379,2 379,2 379,2 380,3 380,3 380,3 380,3 380,3 380,3 380,3 380,3 380,4 379,4 379,4 379,4 379,4 379,4 379,4 379,4 378,5 378,5 378,5 378,5 377,5 377,5 377,6 377,6 377,6 376,6 376,6 376,6 375,7 375,7 376,7 376,7 376,8 376,8 376,8 376,8 376,8 375,8 374,9 374,9 373,9 373,9 373,9 372,9 372,9 372,9 372,9 372,9 372,9 371,9 371,9 371,9 370,9 370,9 370,9 369,9 368,10 368,10 368,10 367,10 367,10 366,10 366,10 366,10 364,10 364,10 364,10 364,11 364,11 363,11 363,11 362,12 361,12 361,12 361,12 360,13 360,13 360,13 360,14 359,14 359,15 358,15 357,16 357,16 357,16 357,16 357,16 357,17 357,17 357,17 357,18 358,18 358,18 358,19 358,19 358,19 359,20 359,20 359,20 359,20 359,21 359,21 359,22 360,22 360,22 360,23 360,23 360,23 360,23 360,23 360,23 360,23 360,24 361,24 361,24 361,24 361,24 361,24 361,24 361,24 361,24 361,24 361,25 361,25 361,25 361,25 361,25 362,25 362,25 362,25 362,26 362,26 362,26 362,26 363,26 363,26 363,26 363,26 364,26 364,26 364,26 364,26 365,26 365,25 365,25 365,25 366,25 366,24 367,24 367,24 367,24 367,24 368,22 369,23 369,23 369,22 369,22 369,22 369,22 369,22 370,21 370,21 370,21 370,20 370,20 370,20 370,20 371,18 371,18 372,18 372,18 372,17 373,17 374,15 374,15 374,15 374,15 375,15 375,14 375,14 375,14 376,14 376,14 377,14 377,13 378,13 378,13 378,13 378,13 378,13 378,13 378,13 378,13 378,13 379,13 379,13 380,13 380,13 381,13 381,13 381,13 382,14 382,14 382,14 383,14 383,14 383,14 384,14 384,14 384,14 385,14 385,14 385,14 385,14 386,14 387,14 387,14 389,14 390,14 390,14 391,14 391,14 391,14 391,14 391,14 392,14 393,14 394,14 394,14 395,14 395,14 395,14 395,14 395,14 396,13 396,13 396,13 396,13 397,13 397,13 397,12 397,12 397,12 397,12 398,12 398,12 398,12 398,12 399,12 399,12 399,12 400,11 400,12 400,12 401,11 401,11 401,11 402,11 402,11 403,11 406,10 406,10 407,9 407,9 408,10 408,10 408,10 408,10 408,10 409,11 409,11 410,11 410,12 410,12 411,12 411,12 413,11 413,11 414,11 414,11 414,11 414,11 414,11 414,11 414,10 414,11 414,11 414,11 414,11 415,11 415,10 415,10 415,10 415,10 415,10 415,10 415,11 415,11 415,11 416,12 418,13 418,13 419,13 421,14 422,14 422,14 422,14 422,14 423,15 423,15 423,15 423,15 424,15 424,15 424,15 424,15 424,15 425,14 426,14 427,14 427,13 427,13 427,13 427,13 428,13 428,13 428,13 429,12 429,12 429,11 430,12 430,12 430,12 430,12 430,12 430,13 430,13 429,13 430,13 430,14 430,14 430,14 431,14 430,14 430,14 431,14 432,15 432,15 432,15 432,16 432,16 432,16 431,16 430,17 430,17 429,17 428,18 428,18 428,18 427,18 427,19 427,19 427,20 427,20 427,20 427,20 427,21 427,21 427,22 427,22 427,22 427,22 428,23 428,23 428,23 427,23 427,23 428,23 428,24 429,25 429,25 429,25 429,25 427,26 427,26 427,26 427,26 428,27 428,27 428,27 428,27 428,27 428,27 428,27 429,27 429,28 429,28 429,28 430,28 430,28 430,28 430,28 430,28 430,28 430,29 430,29 430,29 430,29 430,29 430,29 431,29 431,29 432,29 432,29 431,30 430,30 430,30 430,30 430,30 430,30 429,31 429,31 429,31 429,31 429,32 429,32 429,32 429,32 429,32 428,33 428,33 428,33 428,33 428,33 427,34 426,35 426,35 426,35 426,36 426,36 426,36 426,36 426,36 426,36 426,36 426,36 426,36 425,36 425,37 425,37 424,38 424,38 424,38 424,38 424,38 423,38 423,38 423,38 423,38 423,38 423,39 423,39 422,39 422,39 422,39 422,39 422,39 422,39 421,40 421,40 421,40 421,40 420,41 420,41 420,41 419,41 419,41 419,42 419,42 420,42 420,42 420,42 420,42 420,42 421,43 421,43 422,43 422,43 422,43 423,44 423,44 423,44 423,44 423,44 424,44 424,44 425,43 425,43 425,42 425,42 426,42 426,42 427,42 427,42 428,42 428,42 428,42 429,42 430,41 430,41 430,41 430,41 432,41 432,41 433,41 433,41 435,41 435,41 435,41 436,41 436,41 437,41 437,41 437,41 437,41 438,42 438,42 438,42 438,42 439,42 439,42 439,43 440,43 441,43 442,44 443,44 444,44 445,45 445,45 445,45 445,45 445,45 446,45 446,45 447,45 447,45 448,46 448,46 445,47 445,47 444,48 444,48 445,48 445,48 445,48 445,48 446,48 446,49 446,49 446,49 447,50 447,50 447,50 447,50 447,50 447,50 447,50 448,52 448,52 448,52 449,53 450,53 450,53 450,54 450,54 451,54 451,54 451,55 451,55 452,55 454,56 454,56 454,56 453,57 452,57 452,57 451,57 450,57 450,57 450,57 449,57 449,57 449,57 448,57 447,58 447,58 447,58 446,59 446,59 445,59 445,59 444,60 444,61 444,61 444,61 444,61 443,62 443,62 443,62 442,62 442,62 442,62 441,62 440,62 439,61 439,61 439,61 439,61 438,61 438,61 437,61 437,61 436,60 436,60 434,60 433,59 433,59 431,58 430,58 430,58 430,58 429,58 429,58 428,59 427,59 427,59 426,60 425,60 425,61 424,62 424,62 424,63 424,63 423,63 423,63 423,63 423,64 422,64 422,65 423,65 423,66 423,66 422,66 423,66 423,66 423,66 424,67 424,67 425,67 425,68 426,68 426,68 426,69 427,69 427,69 428,70 428,70 428,70 429,71 430,71 430,71 430,71 430,71 431,71 431,71 431,71 432,72 433,72 433,73 433,73 434,73 434,74 434,74 434,74 434,74 435,74 436,74 436,74 436,74 436,75 437,75 437,75 437,76 437,76 437,76 437,76 438,76 439,77 439,77 439,77 439,77 439,77 439,77 439,77 440,77 440,77 440,77 440,77 440,77 441,78 441,78 441,78 442,78 442,78 443,78 443,78 443,78 443,78 444,78 444,78 444,78 445,78 445,78 445,78 445,78 446,78 446,78 446,78 446,78 447,78 447,78 447,78 447,78 447,78 448,78 448,78 450,78 450,78 451,78 451,78 452,77 453,77 454,77 454,77 455,77 455,77 456,77 456,77 456,77 456,77 456,77 456,77 456,77 456,77 456,77 456,77 456,77 456,78 455,78 455,78 456,78 456,79 456,79 455,79 455,79 455,79 455,79 455,79 455,80 455,80 455,80 454,81 454,81 454,81 454,81 454,81 455,81 455,81 455,81 455,81 455,82 455,82 455,82 455,82 455,82 456,82 456,82 457,83 457,83 457,83 457,83 459,83 459,84 460,84 460,84 461,85 461,85 461,85 461,85 461,85 462,85 462,85 462,85 462,85 462,85 462,85 462,85 462,86 461,86 461,86 461,86 461,86 461,86 461,86 462,87 462,87 463,87 464,87 464,87 465,88 465,88 465,88 465,88 466,88 466,88 466,88 466,88 466,88 467,89 467,89 467,89 466,90 465,90 464,91 464,91 465,91 465,92 466,92 466,92 466,92 466,92 466,92 467,92 467,93 467,93 467,93 469,92 469,92 469,92 469,92 469,92 470,93 470,92 471,92 471,92 471,91 472,91 472,91 470,90 470,90 470,90 471,90 471,90 471,90 471,90 472,90 472,90 473,90 473,89 473,89 473,89 473,89 473,89 473,90 473,90 473,90 473,90 474,90 474,90 474,90 474,90 474,90 474,90 474,90 475,90 475,89 476,89 476,89 476,89 476,89 476,89 476,89 477,89 477,89 478,89 478,89 478,89 478,89 478,89 480,89 480,89 481,89 481,89 481,89 482,89 482,89 482,89 482,89 482,89 482,89 483,90 484,90 484,90 485,90 485,90 485,90 486,90 486,91 486,91 486,91 487,91 487,91 487,91 487,91 487,91 487,91 488,91 488,92 488,92 488,92 489,92 489,92 489,92 489,92 489,92 489,92 489,93 488,93 488,93 487,94 487,94 486,95 486,95 487,95 487,95 488,96 488,96 488,97 489,100 489,100 490,100 490,99 490,99 490,99 490,99 490,99 490,99 490,99 490,99 491,99 491,99 491,99 491,99 491,99 491,98 491,98 491,98 492,98 492,97 493,97 493,97 496,97 496,97 496,97 498,97 498,97 498,98 498,98 498,98 498,98 498,98 498,98 498,98 498,99 498,99 499,100 500,100 500,101 500,102 500,102 500,102 499,103 500,104 500,104 499,104 499,105 499,105 499,105 499,105 499,105 499,105 498,105 498,105 498,106 498,106 498,106 498,106 498,106 497,107 496,107 496,107 496,107 495,107 495,108 494,108 494,108 494,108 493,108 493,108 493,109 493,109 492,109 492,109 492,110 492,111 492,111 492,111 492,111 492,111 492,111 492,112 492,112 493,112 493,113 492,113 492,113 491,113 491,113 491,113 491,113 491,113 491,113 491,114 491,114 490,114 490,114 490,114 490,114 490,114 490,114 490,114 489,114 489,114 489,115 489,115 489,115 489,115 489,115 489,115 489,116 489,116 489,116 488,116 488,116 489,116 489,116 488,117 488,117 488,117 488,117 487,118 487,118 487,118 487,118 487,118 487,118 487,118 487,118 486,118 486,118 486,119 486,119 486,120 486,121 486,121 487,122 487,122 487,122 486,123 486,123 486,123 487,123 487,123 487,124 487,124 486,124 486,124 486,124 486,124 486,124 486,124 485,124 484,124 484,125 484,124 483,125 483,125 483,125 483,125 483,125 483,125 483,125 482,125 482,125 482,125 481,125 481,125 481,125 481,125 481,126 481,125 480,125 480,125 480,125 480,125 479,125 479,125 479,125 478,126 478,126 478,126 478,126 478,126 478,126 478,126 478,126 478,126 478,126 478,126 478,126 477,126 477,126 477,126 477,127 477,127 477,127 477,127 476,127 476,127 476,127 475,126 475,126 475,126 474,126 474,126 473,126 473,126 473,126 472,126 472,126 472,126 471,126 471,126 471,127 470,127 470,127 470,127 470,127 469,127 469,127 468,127 468,126 468,126 467,126 467,126 467,126 467,126 467,126 467,126 467,125 467,125 467,125 466,124 466,124 466,124 466,124 466,124 466,124 465,124 465,124 463,123 463,123 462,123 462,123 462,123 462,123 461,124 461,124 461,124 460,124 459,125 459,125 458,124 458,124 458,124 458,124 458,124 458,124 458,124 458,124 457,124 457,124 457,124 457,124 456,124 456,124 455,124 455,124 455,124 454,123 454,123 453,124 453,124 452,124 452,123 451,123 451,123 450,124 450,124 450,124 450,124 450,124 450,124 450,124 449,124 448,124 448,124 448,124 448,124 448,124 447,124 447,124 447,125 446,125 446,125 445,125 445,125 445,125 445,125 445,125 445,124 444,123 444,123 444,123 444,123 444,123 443,124 443,124 443,124 443,124 443,124 442,124 442,124 442,123 441,123 441,123 441,123 440,123 440,123 439,123 439,123 439,123 439,123 439,123 439,123 437,123 437,123 437,123 437,123 437,123 436,123 436,123 436,123 436,123 436,123 436,123 436,123 435,123 435,122 434,122 434,122 434,122 434,122 434,122 433,122 433,122 433,122 433,122 432,122 432,122 432,122 432,122 432,122 431,122 431,122 430,122 430,122 430,122 430,122 429,123 429,123 429,123 429,123 428,123 428,123 428,123 427,123 427,123 427,122 427,122 427,122 427,122 426,122 426,122 426,122 426,122 426,122 426,122 425,122 425,122 425,122 424,122 424,122 424,122 424,122 424,122 424,122 424,122 423,122 423,122 423,122 423,122 423,122 423,122 423,122 423,122 423,122 422,122 422,122 422,122 422,122 422,122 422,122 422,122 422,122 422,122 422,121 422,121 422,121 422,121 421,121 421,121 421,121 421,121 421,121 421,121 421,121 421,120 421,120 420,121 420,120 419,121 419,121 419,121 419,121 419,121 419,121 419,121 419,121 419,121 418,121 418,121 418,121 418,121 418,121 417,121 416,120 416,120 415,120 414,120 414,120 414,120 414,120 414,119 413,119 413,119 413,119 413,119 413,119 413,118 413,118 413,118 414,118 414,117 414,117 413,117 413,117 413,117 413,117 413,117 414,117 414,117 414,117 414,117 414,117 414,117 413,116 413,116 413,116 413,116 413,116 413,116 413,116 413,116 413,115 413,115 413,115 413,115 413,115 413,115 413,115 413,115 412,115 412,114 412,114 412,114 411,114 411,114 411,114 411,114 411,114 411,114 411,114 411,114 411,114 411,114 410,114 410,114 410,114 410,114 410,114 410,114 410,114 410,114 410,113 410,113 409,113 409,113 409,113 409,113 409,113 409,113 409,113 409,113 409,113 409,113 409,113 409,113 409,113 409,113 409,113 409,113 409,113 409,113 408,113 408,113 408,113 408,113 408,113 408,113 408,113 408,113 408,113 408,113 408,113 408,114 408,114 407,114 407,114 407,114 407,114 407,114 407,114 407,114 407,114 407,114 407,114 406,114 406,114 406,114 406,114 406,114 406,114 406,114 406,114 406,114 406,114 406,113 406,113 405,113 405,113 405,113 405,113 405,113 405,113 405,113 405,113 405,113 405,113 405,113 404,114 404,114 404,114 404,114 404,114 404,114 404,114 404,114 404,114 404,114 404,114 403,114 403,114 403,114 403,114 403,114 403,114 403,114 403,114 403,114 403,114 403,114 402,115 402,115 402,115 402,115 402,115 402,115 401,115 401,115 401,115 401,115 400,116 400,116 400,116 400,116 400,116 399,117 399,117 399,117 399,117 399,118 399,118 398,118 398,119 398,119 398,119 398,119 398,119 398,119 397,119 397,119 397,119 397,119 397,119 397,120 397,120 397,120 397,120 397,120 397,120 397,121 397,120 396,121 397,121 397,122 397,122 397,122 397,122 397,122 397,122 397,123 397,123 397,123 397,123 397,123 397,124 397,124 398,124 398,125 398,125 398,125 398,125 397,126 397,126 397,126 397,126 397,127 396,127 396,127 396,127 396,127 396,127 396,127 396,128 396,128 396,129 396,129 396,129 397,129 397,129 397,130 397,130 397,130 397,131 397,131 397,131 397,132 397,132 396,132 396,132 396,132 391,134 391,134 391,134 391,135 391,135 391,136 391,136 390,136 390,136 390,136 390,136 390,136 390,136 389,136 389,136 389,136 389,137 389,137 388,137 388,137 388,137 388,137 388,137 388,138 387,138 387,138 387,138 386,139 386,139 386,139 386,139 385,140 385,140 385,140 385,141 384,141 384,141 384,142 383,142 383,142 383,142 383,142 383,143 384,143 384,143 384,143 384,144 384,145 384,145 384,145 384,145 384,146 384,146 384,146 384,146 384,147 384,147 384,147 384,147 383,147 384,147 384,148 384,148 383,148 383,148 383,148 383,148 383,149 383,149 382,149 382,150 382,150 383,150 383,150 383,150 383,150 383,150 383,150 383,150 382,150 377,151 374,151 374,151 373,151 373,151 372,151 372,152 372,152 372,152 371,152 371,152 371,152 371,152 370,152 370,152 370,152 369,153 369,153 369,153 368,153 368,153 368,153 368,153 367,153 367,153 366,154 366,154 366,154 366,154 365,154 365,154 364,154 364,154 364,154 364,154 364,154 363,154 363,154 362,154 362,154 362,154 362,154 362,154 361,154 361,154 361,154 361,154 361,155 360,155 360,155 360,155 360,155 360,155 360,155 360,155 359,155 359,155 359,155 359,155 359,155 358,155 358,155 358,155 358,155 357,155 357,155 357,155 357,155 357,155 356,155 356,155 356,155 356,156 356,156 356,156 356,156 353,156 353,156 353,156 353,156 353,156 353,156 353,156 353,156 352,156 352,156 352,156 352,156 352,156 351,157 351,157 351,157 351,157 351,157 351,157 351,157 350,157 350,157 350,157 350,158 350,158 350,158 350,158 350,158 350,158 350,158 350,158 350,158 350,158 350,158 350,158 350,158 349,158 349,158 349,158 349,158 349,158 349,158 348,158 348,158 348,158 348,158 348,158 347,158 347,158 347,158 347,158 347,158 346,158 346,158 346,158 346,158 346,158 346,158 346,158 346,158 346,158 345,158 345,158 345,158 345,158 345,158 344,158 344,158 344,158 344,158 344,158 344,158 344,158 343,158 343,158 343,158 343,158 343,158 343,158 343,158 342,158 342,158 342,158 342,158 342,158 341,158 341,158 341,158 340,158 340,158 340,158 340,159 340,159 340,159 340,159 340,159 340,159 340,159 340,159 340,159 340,159 340,159 339,159 339,159 339,159 339,159 339,159 339,159 339,159 339,159 339,159 339,159 339,159 338,159 338,159 338,159 338,159 338,159 338,159 338,159 338,159 338,159 338,159 337,159 337,159 337,159 337,159 337,159 337,159 337,159 337,159 337,160 337,160 336,160 336,160 336,160 336,160 336,160 336,160 336,160 336,160 336,160 335,160 335,160 335,160 335,160 335,160 335,160 335,160 334,160 334,160 334,160 334,160 334,160 334,160 334,160 334,160 334,160 334,160 334,160 333,160 333,160 333,160 333,160 333,160 333,160 333,160 332,160 332,160 332,160 332,160 331,160 331,160 330,160 330,160 330,160 329,160 329,160 329,160 328,160 328,160 327,160 327,160 327,160 327,160 327,160 327,161 327,161 326,161 326,161 326,161 325,161 325,161 325,161 325,161 325,162 324,162 324,162 324,162 324,162 323,162 323,162 323,163 323,163 322,163 322,163 322,163 322,163 322,163 322,163 321,163 321,163 321,163 321,163 320,163 320,163 320,163 320,163 320,163 320,163 320,163 319,164 319,164 319,164 319,164 319,164 319,164 318,164 318,164 318,164 318,164 318,164 318,164 318,164 318,165 317,165 317,165 317,165 317,165 317,165 317,165 317,165 316,166 316,166 316,166 316,166 315,166 315,166 315,166 315,166 315,167 315,167 315,167 314,167 314,167 314,167 314,167 314,167 314,167 314,167 314,167 313,166 313,166 313,166 310,166 310,166 310,166 309,166 308,165 308,165 308,165 307,165 307,165 306,165 305,164 303,165 303,165 303,165 302,165 302,165 302,165 302,165 302,165 302,165 302,165 301,165 301,165 301,165 301,165 301,165 301,164 301,164 301,164 301,163 301,163 301,163 301,163 301,163 301,163 301,163 301,162 301,162 301,162 301,162 301,162 300,162 300,162 300,162 300,162 299,162 299,162 298,162 298,162 298,162 298,162 298,162 298,161 298,161 297,161 297,161 297,161 297,161 297,161 297,161 297,161 297,162 297,162 297,162 297,162 297,163 297,163 297,163 297,163 297,163 297,164 297,164 297,164 296,164 296,164 296,164 296,165 296,165 296,165 296,166 296,166 295,166 294,166 293,166 293,166 293,166 293,166 293,166 293,167 293,167 292,168 292,168 292,168 292,169 292,169 292,170 292,170 292,170 292,170 290,170 290,170 289,170 289,170 289,170 289,170 288,170 288,170 288,171 288,171 287,171 287,171 287,171 287,171 287,171 287,171 287,171 287,171 287,171 286,171 286,172 286,172 286,172 285,172 285,172 285,172 285,172 285,172 285,172 285,172 284,172 284,172 285,171 284,172 284,171 284,171 284,171 283,172 283,172 283,172 283,172 283,172 282,172 281,173 281,173 280,174 280,174 279,175 279,175 278,175 278,175 277,176 277,176 276,176 276,175 275,175 275,175 275,175 276,175 277,174 277,174 278,174 278,173 278,173 278,173 278,173 278,173 278,173 278,172 277,172 277,172 277,171 277,171 277,171 277,171 278,170 278,170 279,170 279,170 279,170 279,169 280,169 279,169 279,169 279,169 279,169 278,169 278,168 277,168 277,168 277,168 276,168 276,168 276,168 275,168 275,168 274,167 273,167 273,167 273,167 273,167 273,167 272,166 272,166 272,166 272,166 271,166 271,165 270,165 270,165 270,165 270,165 270,165 270,165 270,165 270,165 270,165 270,164 270,164 270,164 270,164 270,164 270,164 270,164 270,164 270,164 270,164 270,164 270,164 270,164 269,164 269,165 269,165 269,165 269,165 269,165 269,165 268,166 268,166 268,166 268,166 268,166 268,166 268,166 267,166 267,166 267,166 267,167 266,167 266,167 266,167 266,167 266,167 266,167 266,167 266,167 266,167 265,167 265,167 265,167 264,167 264,167 264,167 263,167 263,167 263,167 263,167 263,167 263,167 264,168 264,168 264,168 264,168 265,168 265,168 265,168 265,168 265,168 265,168 265,168 265,168 266,168 265,168 265,168 265,168 265,168 265,168 265,169 265,169 265,169 265,169 265,169 265,169 265,169 265,169 265,169 265,169 265,169 265,169 265,169 264,169 264,169 264,170 264,170 264,170 264,170 264,169 264,169 263,169 263,169 263,169 263,169 263,169 262,169 262,169 262,169 261,168 261,168 261,168 261,169 261,169 262,169 262,169 262,170 262,170 262,170 262,170 262,171 262,171 261,171 261,171 260,171 260,171 260,172 260,172 260,172 260,172 260,172 260,172 260,172 259,172 259,173 259,173 259,173 259,173 259,173 259,173 258,173 258,173 258,173 258,173 258,172 258,172 258,172 257,172 257,172 257,172 257,172 257,172 257,172 257,172 257,171 257,171 257,171 257,171 257,171 257,171 256,171 256,171 256,171 256,171 256,171 255,170 255,170 255,170 255,170 255,170 255,170 255,170 255,170 255,170 254,170 254,170 254,170 254,170 254,170 254,170 254,170 254,170 253,170 253,170 253,170 252,170 252,170 252,169 252,169 251,169 251,169 251,169 251,169 250,169 250,168 250,168 250,168 249,168 249,167 249,167 249,167 248,167 248,167 248,167 247,167 247,167 247,167 246,167 245,168 245,168 245,168 245,168 245,168 244,168 244,168 244,168 244,168 244,168 243,168 243,168 243,168 242,168 242,168 242,169 242,169 241,169 241,169 241,169 241,169 241,169 240,169 240,169 240,169 240,169 240,169 240,169 240,169 240,170 239,170 239,170 239,170 239,170 239,170 239,170 239,171 238,171 238,171 238,171 238,171 238,172 237,172 237,172 237,172 236,173 236,173 236,173 236,173 236,173 236,173 236,173 235,173 235,173 235,173 235,173 235,173 235,173 235,173 235,173 235,173 235,173 235,173 234,173 234,172 234,172 234,172 234,172 234,172 234,172 234,172 234,171 234,171 234,171 234,171 233,171 233,171 234,171 234,171 234,171 234,171 234,170 234,170 234,170 234,170 234,170 234,170 234,170 235,170 235,170 235,169 235,169 235,169 235,169 235,169 235,169 235,169 235,169 235,169 235,169 235,169 235,169 234,169 234,169 234,169 235,169 234,169 234,169 234,169 234,169 234,169 234,169 234,169 234,169 234,169 234,169 234,169 234,168 234,168 234,168 234,168 234,168 234,168 234,168 234,168 234,168 234,168 234,168 234,168 234,168 233,168 233,168 233,168 233,168 233,168 233,168 233,168 233,168 233,168 233,168 233,168 232,168 232,168 232,168 232,168 232,168 232,168 232,168 232,168 232,168 232,168 232,167 232,167 232,167 232,167 232,167 232,167 232,167 232,167 232,167 232,167 232,167 232,167 232,167 231,167 231,166 232,166 232,166 231,166 231,166 231,166 231,166 231,166 231,166 231,166 231,166 231,166 231,166 231,166 231,166 231,166 231,166 231,166 231,166 231,166 231,166 231,165 230,165 230,165 230,165 230,165 230,165 230,165 230,165 230,165 230,165 229,165 229,165 229,165 229,165 229,165 229,165 229,165 229,165 229,165 229,165 229,165 229,165 229,165 229,165 229,165 229,165 229,165 229,164 229,164 229,164 229,164 229,164 229,164 228,164 228,164 228,164 228,164 228,164 228,164 228,164 228,164 228,164 228,164 228,164 228,164 228,164 228,164 228,164 228,164 227,164 227,164 227,164 227,164 227,164 227,163 227,163 227,163 227,163 227,163 227,163 227,163 227,163 227,163 227,163 227,163 227,163 227,163 227,163 227,163 226,163 226,163 226,163 226,162 226,162 226,162 226,162 226,162 226,162 226,162 226,162 226,162 226,162 226,162 226,162 226,162 226,162 226,161 226,161 226,161 226,161 226,161 226,161 226,161 226,161 226,161 226,161 226,161 225,161 225,161 226,161 226,161 226,161 226,161 226,161 225,161 225,161 225,161 225,161 225,161 225,161 225,161 225,161 225,161 225,161 225,161 225,160 224,160 224,160 224,160 224,160 224,160 224,160 224,160 224,160 224,160 224,160 224,160 224,160 224,160 224,160 224,160 224,160 224,160 224,160 224,160 224,160 223,159 223,159 223,159 223,159 223,159 223,159 223,159 223,158 223,158 222,158 222,158 222,158 222,158 222,158 222,158 222,158 222,158 222,158 222,158 222,158 222,158 222,158 222,158 221,158 221,158 221,158 222,157 222,157 222,157 222,156 222,156 222,156 222,156 222,156 222,156 222,156 222,156 222,156 222,156 222,156 221,156 221,156 221,156 221,156 221,156 220,156 220,155 220,155 220,155 220,155 219,155 219,155 219,155 219,155 219,155 219,155 219,155 218,155 218,156 218,156 218,156 217,156 216,156 216,156 216,156 216,156 216,156 215,156 215,155 215,155 215,155 214,155 214,155 214,156 214,156 214,156 214,156 213,155 213,155 213,155 213,155 213,155 213,155 213,155 213,155 212,155 213,155 213,155 212,155 212,155 212,155 212,155 212,155 212,155 212,155 212,155 211,155 211,155 211,155 211,155 211,155 211,155 211,154 211,154 210,154 210,154 210,154 210,154 211,154 211,154 211,154 210,154 210,154 210,154 210,154 210,154 210,154 209,154 209,154 209,154 209,153 210,153 210,153 210,153 210,153 210,153 210,153 210,152 210,152 210,152 210,152 211,152 211,152 211,151 212,151 212,151 212,151 212,151 212,151 212,151 212,151 212,151 212,151 213,151 213,151 213,151 213,150 213,150 213,150 213,150 213,150 213,149 213,149 213,149 213,149 213,149 213,149 213,149 213,149 213,148 212,148 212,148 212,148 212,148 213,148 213,147 213,147 213,147 213,147 213,147 213,147 213,147 213,147 213,147 213,146 213,146 213,146 213,146 213,146 213,146 213,146 213,146 213,146 213,146 213,145 213,145 213,145 214,145 214,145 214,145 214,145 214,145 214,145 214,145 213,145 213,145 213,145 214,144 214,144 214,144 214,144 214,144 214,144 213,144 213,144 213,144 213,144 213,144 213,144 213,144 213,145 213,145 212,145 212,145 213,145 212,145 212,145 212,145 212,145 212,145 212,145 212,145 212,146 211,146 211,146 211,146 211,146 211,146 211,146 211,146 211,146 211,146 211,146 211,146 211,146 210,147 210,147 210,147 210,146 209,146 209,146 209,147 209,147 209,146 209,146 209,147 208,147 208,147 208,146 208,146 208,147 208,147 208,147 207,147 207,147 207,147 207,147 207,147 207,147 207,147 207,147 207,147 207,147 207,147 206,147 206,147 206,147 206,147 206,147 206,147 205,147 205,148 205,148 205,148 205,148 205,148 204,148 204,148 204,148 204,148 204,148 204,148 203,148 203,148 203,148 203,148 203,148 203,148 203,148 203,148 203,148 203,148 203,148 203,148 202,148 202,148 202,149 202,149 202,149 202,149 202,149 202,149 202,149 202,149 202,149 202,149 202,149 202,149 201,149 201,149 201,149 201,149 201,150 201,150 201,150 201,150 200,150 200,150 200,150 200,150 200,150 200,150 200,150 200,150 199,150 199,150 199,150 199,150 199,150 198,150 198,150 198,150 198,150 198,150 198,150 198,150 198,150 198,150 197,150 197,150 197,150 197,149 196,149 196,149 196,149 196,149 196,149 196,149 196,149 196,149 196,149 196,149 196,149 195,149 195,149 195,149 195,149 195,149 195,149 195,149 195,149 195,149 196,150 196,150 196,150 196,150 196,151 196,151 196,152 196,153 196,153 196,153 195,153 194,152 194,152 194,152 193,152 193,152 192,152 191,151 191,151 191,151 190,151 190,151 190,151 190,151 190,150 190,150 189,150 189,150 189,150 189,150 189,150 189,150 189,150 189,150 189,150 189,150 188,151 188,151 188,151 188,151 188,151 188,151 189,151 189,151 189,151 189,151 189,151 189,151 189,151 189,152 189,152 189,152 189,152 189,152 189,152 189,152 189,152 189,152 189,152 189,152 189,153 189,153 189,153 189,153 189,153 189,153 189,153 190,153 190,153 190,153 190,154 190,154 190,154 190,154 190,154 190,154 191,154 191,154 191,155 191,155 191,155 191,155 190,155 191,155 191,155 191,155 190,155 190,155 190,155 190,155 190,155 190,155 190,155 190,155 190,155 190,156 190,156 190,156 189,156 189,156 189,156 189,156 189,156 189,156 189,156 189,156 189,156 188,156 188,156 188,156 188,156 188,156 188,156 188,157 188,157 188,157 188,157 188,157 188,157 188,157 188,157 188,157 188,157 188,157 188,157 188,157 188,157 188,157 188,157 188,157 188,157 188,157 188,157 188,157 188,157 188,157 188,157 187,157 187,157 187,157 187,157 187,157 187,157 187,157 187,158 187,158 187,158 187,158 187,158 187,158 187,158 187,158 187,158 187,158 187,158 187,158 187,158 187,158 187,158 187,158 187,158 186,158 186,158 186,158 186,158 186,158 186,158 186,158 186,158 186,158 186,158 186,158 186,158 186,158 186,158 186,158 186,158 186,158 186,158 186,158 186,158 186,158 186,158 185,158 185,158 185,159 185,159 185,159 185,159 185,159 185,159 185,159 185,159 185,159 185,159 185,159 185,159 185,159 185,159 185,159 185,159 185,159 185,159 185,159 185,159 185,159 185,159 185,159 184,159 184,160 184,160 184,160 184,160 184,160 184,160 184,160 184,160 184,160 184,160 184,160 184,160 184,160 184,160 183,161 183,161 183,161 183,161 183,161 183,161 183,161 183,161 183,161 183,161 182,161 182,161 182,161 182,161 182,161 182,161 183,161 183,162 183,162 182,162 182,162 182,162 182,162 182,162 182,161 182,161 181,162 181,162 181,162 181,162 181,162 181,162 181,162 181,162 181,162 181,162 181,162 181,163 181,163 181,163 181,163 181,162 181,162 181,163 180,162 180,162 179,162 179,162 179,162 179,163 179,163 178,163 178,163 178,163 178,163 178,164 178,164 178,164 178,164 178,164 178,164 177,165 177,165 177,165 177,165 177,166 177,166 177,166 177,166 177,166 177,166 177,166 177,166 177,166 177,166 176,167 176,167 176,167 176,167 176,167 176,167 175,167 175,167 175,167 175,168 175,168 175,168 175,168 175,168 174,168 174,168 174,168 173,168 173,168 173,169 173,169 173,169 173,169 173,169 172,169 172,169 172,169 172,168 172,168 171,168 171,168 171,168 171,168 171,168 171,168 170,168 170,168 170,168 169,168 169,168 169,168 168,168 168,168 167,168 167,168 167,168 167,168 166,168 166,168 167,169 167,169 167,169 168,170 168,171 168,171 168,171 168,171 168,171 168,171 168,171 167,171 167,171 167,171 167,171 166,171 166,172 165,172 164,172 164,172 164,172 164,172 164,172 164,172 163,172 163,172 163,171 163,171 163,171 163,171 163,171 163,171 163,171 162,170 162,170 162,170 161,169 161,169 161,169 161,169 161,169 160,169 160,169 160,169 159,168 159,168 159,168 159,168 159,168 158,168 158,168 158,168 158,168 158,168 157,168 157,168 157,168 157,168 157,168 157,168 156,168 156,168 157,169 157,169 157,169 157,169 157,169 158,170 158,170 158,170 159,170 159,170 159,170 160,170 160,170 160,170 161,170 161,170 161,171 161,171 161,171 161,171 162,172 162,172 162,172 162,172 161,172 161,172 161,172 161,172 160,172 160,172 160,172 160,172 160,172 160,172 160,172 159,172 159,172 159,172 159,172 158,172 158,172 158,172 158,172 158,172 158,172 157,172 157,171 157,171 157,171 156,171 156,171 156,171 156,171 156,171 156,171 156,171 156,171 155,171 155,171 155,172 155,172 154,172 154,172 154,172 154,172 154,172 154,172 154,172 154,172 153,172 153,172 153,172 153,172 153,172 153,172 152,173 152,173 152,173 151,173 151,173 151,173 151,173 151,173 151,173 151,173 151,173 151,173 151,173 151,173 151,173 151,173 151,173 151,173 151,173 151,173 151,174 151,174 151,174 151,174 151,174 151,174 151,174 151,174 151,174 151,174 151,175 152,175 152,175 152,175 152,175 152,175 152,175 153,175 153,175 153,175 153,175 153,175 153,175 153,176 153,176 153,176 153,176 153,176 153,176 153,176 153,176 153,176 153,176 153,176 153,176 153,176 153,177 153,177 153,177 153,177 153,177 153,177 153,177 153,177 153,177 153,177 155,177 155,177 155,177 155,177 155,177 156,177 156,177 157,177 158,177 158,177 158,177 158,177 157,179 157,179 157,179 157,179 156,180 156,180 156,180 156,180 156,180 156,180 156,180 156,180 156,180 156,180 156,180 156,180 157,180 157,180 157,180 157,180 157,180 157,180 157,180 157,180 158,180 158,180 158,180 158,180 158,180 158,181 158,181 158,181 158,181 159,181 159,181 159,181 159,181 160,182 160,182 160,182 160,182 160,182 161,183 161,183 162,183 162,183 162,183 163,183 163,183 163,184 163,184 163,184 163,184 163,184 163,184 162,184 162,184 162,184 162,185 162,185 162,186 162,186 162,186 162,186 162,186 162,186 163,186 163,186 163,186 163,187 163,187 163,187 163,187 163,187 163,187 163,187 163,187 162,187 162,188 162,188 162,188 162,188 162,188 162,188 162,188 162,188 162,188 162,189 162,189 162,189 162,189 162,189 162,189 162,189 162,189 163,189 163,189 163,189 163,190 163,190 163,190 163,190 163,190 163,190 164,190 164,190 164,190 165,190 165,190 165,190 165,190 165,190 166,190 166,190 166,191 166,191 166,191 167,191 167,191 167,191 167,192 167,192 167,192 166,192 166,192 163,192 162,192 160,192 159,192 158,192 156,193 156,193 156,193 156,193 155,193 155,193 153,194 153,194 153,194 153,194 153,194 152,194 152,194 151,194 150,194 149,194 148,194 148,195 148,195 147,195 146,195 146,195 145,196 144,196 144,196 144,196 144,196 143,197 143,197 142,197 142,197 142,197 142,197 142,196 142,196 143,196 143,196 144,196 146,195 146,195 146,195 145,195 145,195 145,194 144,194 144,194 143,193 142,193 142,193 141,193 141,193 140,193 139,193 139,193 138,194 138,194 138,194 137,194 137,193 137,193 137,193 137,193 136,193 136,194 136,194 136,194 136,194 136,194 136,194 136,194 136,194 136,194 135,194 135,195 135,195 135,195 134,196 134,196 134,196 134,196 134,196 134,196 134,196 134,196 134,196 134,196 134,196 134,196 134,196 134,196 134,196 134,196 135,196 135,196 135,196 135,196 135,196 135,196 136,196 136,196 135,197 136,197 136,197 136,197 136,197 136,197 136,197 136,197 136,197 136,197 136,197 136,197 136,197 135,197 135,198 134,198 134,198 134,198 134,198 133,198 132,198 132,198 132,198 132,198 132,198 132,199 132,199 131,199 130,199 130,200 130,200 129,200 129,200 127,201 127,201 127,200 127,200 127,200 126,200 126,200 125,200 125,200 124,200 124,200 124,200 124,200 123,199 123,199 123,198 122,198 120,199 119,199 119,199 119,199 120,200 120,200 120,200 121,200 121,201 121,201 121,201 121,201 121,202 122,202 122,202 122,202 122,202 122,203 122,203 122,203 122,203 121,204 121,204 121,204 120,204 120,204 120,205 120,205 119,205 119,205 119,205 118,205 118,206 118,206 118,206 117,206 117,206 117,206 117,206 117,206 116,206 116,206 116,206 116,206 116,206 116,206 115,207 115,207 115,207 115,207 115,207 114,207 114,207 113,208 113,208 111,208 111,208 111,208 111,208 111,208 111,208 111,208 110,208 110,208 110,208 110,208 110,208 110,208 110,208 110,208 110,208 110,208 110,208 110,208 110,209 110,209 110,209 109,209 109,209 109,209 109,208 109,208 109,208 109,208 109,208 108,208 108,208 108,208 108,207 108,207 108,207 107,207 107,207 107,207 106,207 106,207 106,207 106,207 106,207 105,207 105,206 105,206 105,206 104,206 104,206 104,206 104,206 104,206 103,206 103,206 103,205 103,205 102,205 102,205 102,205 102,204 103,204 103,204 103,204 103,204 103,204 103,204 103,204 103,204 103,204 103,204 103,204 103,204 103,204 102,203 102,203 102,203 102,203 102,203 102,203 102,202 102,202 102,202 102,202 102,202 102,202 102,202 102,202 102,202 102,202 102,201 102,201 102,201 102,201 102,201 102,201 102,202 102,202 102,202 103,202 103,202 103,202 103,202 103,202 103,202 103,202 103,202 103,201 103,201 103,201 103,201 103,201 103,201 103,201 103,201 103,201 103,201 103,200 103,200 103,200 103,200 102,200 102,200 102,200 101,200 101,200 101,200 101,200 101,199 101,199 101,199 101,199 101,199 101,199 101,199 101,199 101,199 100,199 100,199 100,199 100,199 100,199 100,198 100,198 100,198 100,198 100,198 99,198 99,198 99,197 99,197 99,197 99,197 99,197 99,197 99,197 99,197 99,197 99,197 99,197 99,197 100,197 100,197 100,197 100,197 100,197 100,197 100,197 100,197 99,197 99,197 99,197 100,197 100,197 100,196 99,196 99,196 99,196 99,196 99,196 99,196 99,196 98,196 98,196 98,196 99,196 98,196 98,196 98,196 98,196 98,196 98,196 98,196 98,196 98,196 98,195 98,195 98,195 98,195 98,195 98,195 98,195 98,195 98,195 98,195 97,195 97,195 97,195 97,195 97,195 97,195 97,195 97,195 97,195 97,195 97,195 97,195 97,195 96,194 96,194 96,194 96,194 96,194 96,194 96,194 96,194 96,193 96,193 96,193 95,193 95,193 95,193 95,193 95,193 95,193 95,193 95,193 94,193 94,193 94,193 94,193 94,193 93,193 93,193 93,193 93,193 93,193 93,193 93,193 94,193 94,193 94,193 94,193 94,193 94,193 93,193 93,193 93,193 93,192 93,192 93,192 93,192 93,192 93,192 93,191 93,191 93,191 93,191 93,191 93,191 93,191 93,191 93,191 93,191 93,191 93,191 93,190 93,190 93,190 92,190 91,190 91,190 91,190 91,190 91,190 91,190 90,190 90,190 90,190 90,190 90,190 90,189 90,189 90,189 90,189 90,189 90,189 90,189 90,189 89,189 89,189 90,190 89,190 89,190 89,190 89,190 89,190 89,190 89,189 89,189 89,189 89,189 89,189 89,189 88,189 88,189 88,189 88,189 88,189 88,189 88,189 88,189 88,189 88,189 88,189 88,189 88,189 88,189 88,189 88,189 88,189 88,189 88,188 88,188 88,188 88,188 88,188 88,188 88,188 88,188 88,188 88,188 88,187 88,187 88,187 88,187 88,187 88,187 88,187 88,187 87,186 86,186 86,186 85,185 85,185 85,185 84,185 84,185 84,185 83,185 83,185 83,185 83,185 83,185 82,184 82,184 82,184 81,184 81,184 81,184 81,184 81,184 81,183 81,183 82,183 82,183 82,183 82,183 82,183 82,183 82,182 81,182 81,182 81,183 81,183 81,183 81,183 81,182 80,182 80,182 80,182 80,182 80,182 80,181 80,181 80,181 80,181 80,181 80,181 80,181 79,181 79,181 79,181 79,181 79,181 79,181 79,181 78,181 78,181 78,181 78,180 78,180 78,180 78,180 78,180 78,180 78,180 78,180 78,180 78,180 79,180 79,179 79,179 79,179 79,179 78,179 78,178 78,178 78,178 77,178 77,178 77,177 77,177 76,177 76,177 76,177 76,176 75,175 75,175 75,174 74,174 74,173 74,173 74,173 73,173 73,173 73,173 72,173 72,173 72,173 71,173 71,173 71,173 70,173 70,173 70,172 70,172 70,172 70,172 70,172 70,172 70,172 70,172 70,172 70,171 69,171 69,172 69,172 69,172 69,172 69,172 69,172 69,172 68,172 68,171 68,171 68,171 68,171 67,171 67,171 67,171 67,171 67,171 66,171 67,171 67,171 67,171 66,171 66,171 66,171 66,171 66,171 66,171 66,172 66,172 66,172 66,172 66,172 65,172 65,172 65,172 65,172 65,172 64,172 64,172 63,171 63,171 63,171 63,171 63,170 63,170 62,170 62,170 62,171 62,171 62,171 61,171 61,171 61,171 61,170 61,170 60,170 60,170 60,170 60,170 61,170 61,170 61,170 61,170 61,170 62,170 62,170 62,170 62,170 62,169 62,169 62,169 61,169 62,169 62,169 62,168 62,168 62,168 63,168 63,168 64,168 64,168 64,168 64,168 64,168 65,167 65,167 65,167 65,167 65,167 65,167 65,167 65,167 65,166 65,166 65,166 65,166 65,166 65,166 65,166 65,166 65,166 66,166 66,166 66,166 66,166 66,166 66,166 66,165 66,165 66,165 66,165 66,165 66,165 66,165 66,165 66,165 66,165 66,165 66,165 66,164 66,164 66,164 66,164 66,164 66,164 66,164 66,164 66,163 66,163 66,163 66,163 67,163 67,163 67,163 67,162 67,162 67,162 67,162 67,162 67,162 67,162 67,162 67,162 67,162 67,161 67,161 67,161 67,161 68,161 68,161 68,161 68,161 68,160 68,160 68,160 68,160 68,160 69,160 69,160 69,160 69,160 69,160 70,159 70,159 70,159 70,159 70,159 70,159 70,159 70,159 70,159 70,159 70,159 70,159 70,158 71,158 71,158 71,158 71,158 71,158 71,158 71,157 71,157 71,157 72,157 72,157 72,157 72,156 72,156 72,156 72,156 72,156 72,156 72,156 72,155 73,155 73,155 73,155 72,155 72,155 72,155 73,155 73,155 73,155 73,155 73,154 74,154 74,154 74,154 74,153 73,153 73,153 73,153 73,152 73,152 73,152 73,152 73,152 73,152 73,152 73,151 73,150 72,150 72,150 72,150 72,150 72,150 72,150 72,149 71,149 71,149 70,149 70,149 70,149 70,149 70,149 70,149 70,149 70,149 70,149 70,149 70,149 70,148 70,148 70,148 70,148 70,148 70,148 71,148 71,148 71,147 72,147 72,147 73,147 73,147 73,147 74,146 75,146 75,146 75,146 75,146 75,146 75,146 75,146 75,146 77,145 77,145 77,145 77,145 77,145 78,144 78,144 80,143 80,143 80,143 80,142 81,142 81,142 81,142 81,141 81,141 81,141 82,141 82,141 82,141 82,140 82,140 82,140 82,140 82,140 82,140 82,140 81,140 81,140 81,140 81,140 80,140 78,140 78,140 78,140 76,140 75,140 72,141 72,141 70,141 70,141 70,141 70,141 69,141 69,141 69,140 69,140 69,140 69,140 68,140 68,140 67,138 67,138 67,138 66,138 66,137 66,137 65,136 65,136 65,136 65,136 66,136 66,136 65,135 65,135 65,135 65,135 65,135 64,134 64,134 64,134 64,134 65,134 65,134 65,134 65,133 65,133 65,133 65,133 64,133 63,132 63,132 63,132 63,132 63,132 64,132 64,132 64,132 64,132 64,132 64,132 64,132 64,131 64,131 64,131 64,131 64,131 65,131 65,131 65,131 65,131 65,131 65,130 65,130 64,130 64,130 64,130 64,130 64,130 64,130 64,130 63,130 63,130 64,130 63,129 63,129 63,129 63,129 63,129 63,129 63,129 63,129 63,128 63,128 63,128 62,128 61,128 61,128 61,128 61,128 61,128 61,128 61,128 60,128 60,128 59,129 59,129 56,130 56,130 56,130 56,130 56,130 53,132 53,132 53,132 52,132 52,132 52,132 52,132 52,132 52,131 52,131 52,131 51,131 51,131 51,131 51,131 51,131 51,131 51,131 51,131 51,131 51,131 51,131 51,131 51,131 50,131 50,131 50,131 50,130 49,130 49,130 49,130 49,130 49,130 49,130 49,130 49,130 49,130 49,130 49,130 49,130 49,130 50,130 50,130 50,130 50,130 50,130 51,130 51,130 51,130 51,130 51,130 51,130 51,130 52,129 52,129 52,129 52,129 52,129 52,129 52,129 52,129 53,129 53,129 53,129 53,129 54,129 54,129 54,129 54,129 54,129 54,128 54,128 54,128 54,128 54,128 54,127 54,127 54,127 54,127 54,127 54,126 54,126 54,126 54,126 53,126 53,126 53,126 53,126 53,126 51,124 50,124 50,124 49,123 49,123 48,123 48,123 48,123 48,123 48,123 48,122 48,122 47,122 47,122 47,122 47,122 47,122 47,122 47,122 47,122 47,122 47,123 47,123 47,123 46,123 46,123 46,123 46,123 46,123 46,123 46,123 46,123 46,123 45,123 45,123 45,124 45,124 45,124 45,124 44,124 44,124 44,124 44,124 44,124 44,124 44,124 44,125 44,125 44,125 44,125 43,125 43,125 43,125 43,125 43,125 43,125 43,126 42,126 42,126 41,126 40,127 40,127 40,127 40,127 40,127 40,127 39,127 39,127 39,127 39,127 39,128 39,128 39,128 39,128 39,128 38,128 38,127 38,127 38,127 38,127 38,127 38,127 38,127 37,127 37,127 37,127 37,127 37,126 37,126 37,126 37,126 37,126 37,126 37,126 37,126 37,126 37,126 37,126 37,126 37,126 37,126 37,126 37,126 38,126 38,125 38,125 38,125 39,125 39,125 39,125 39,125 39,125 39,125 40,125 40,125 40,125 40,125 40,125 41,125 41,125 41,125 41,125 41,125 41,125 42,125 42,125 42,125 42,125 43,125 43,125 43,125 43,125 43,125 43,125 43,124 43,124 43,124 43,124 43,124 43,124 43,124 43,123 43,123 43,123 43,123 43,123 43,123 43,123 43,123 43,123 43,122 43,122 43,122 43,122 43,122 43,122 43,122 44,122 44,122 44,122 44,122 44,122 44,122 44,122 44,122 44,121 44,121 44,121 44,121 44,121 44,121 45,122 45,122 45,122 45,122 45,122 45,122 45,121 46,121 46,121 46,121 46,121 46,121 46,120 46,120 47,120 47,120 47,120 47,120 47,120 47,120 47,120 47,120 47,120 48,119 48,119 48,119 48,119 48,119 48,119 48,119 46,118 46,117 46,117 46,117 45,118 45,117 45,117 45,117 45,117 45,117 45,117 43,117 42,117 42,117 42,117 42,117 42,117 42,117 42,117 42,117 42,117 42,117 42,117 41,117 41,117 41,117 41,117 41,118 41,118 41,118 41,118 41,118 41,118 41,118 41,118 41,118 41,118 41,118 41,118 40,118 40,118 40,118 40,118 40,118 40,118 40,118 39,117 39,117 39,117 39,117 39,117 39,117 39,117 39,117 39,117 39,117 38,117 38,117 38,117 37,116 37,116 37,116 37,117 37,117 37,117 37,117 37,117 37,117 36,118 36,118 36,118 36,118 36,118 36,118 35,118 35,118 33,118 32,118 32,118 32,118 31,118 31,118 31,118 30,118 29,118 29,118 29,118 29,118 29,118 28,118 28,118 28,118 28,118 27,118 27,118 27,118 27,118 27,118 27,119 27,119 27,119 27,119 26,119 26,119 26,119 26,119 26,119 26,119 26,119 26,119 26,119 25,120 25,120 25,120 25,120 25,120 25,120 25,120 25,119 25,119 24,119 24,119 24,119 24,119 24,119 24,119 23,118 23,118 23,118 23,118 23,118 23,118 23,118 23,118 23,118 23,118 22,118 22,118 22,118 22,118 22,118 22,118 22,118 22,118 22,118 22,118 22,118 21,118 21,118 21,118 21,119 21,119 21,118 21,118 21,118 21,118 21,118 20,118 20,118 20,118 20,118 20,118 20,118 20,118 20,118 20,118 20,117 20,117 20,117 20,117 20,117 19,117 19,117 19,117 19,117 19,117 19,117 19,117 19,117 19,117 19,116 19,116 19,116 19,116 19,116 19,116 18,115 18,115 18,115 18,115 18,115 18,115 18,115 18,114 17,114 17,114 17,114 17,114 17,114 17,114 17,114 17,113 17,113 17,113 17,113 17,113 17,113 17,113 18,113 18,113 18,113 19,113 19,113 19,113 19,113 19,113 19,113 19,113 19,113 20,113 20,113 20,113 20,113 20,113 20,113 20,113 20,112 20,112 20,112 21,112 21,112 21,112 21,112 21,112 21,112 21,112 21,112 21,112 21,112 22,112 22,112 22,112 22,112 22,112 22,112 22,112 22,112 23,112 23,112 23,111 23,111 24,111 24,111 24,111 24,111 24,111 24,111 24,111 24,111 24,110 24,110 24,110 24,110 24,110 24,110 24,110 24,110 26,112 26,112 26,112 27,112 27,112 27,112 28,112 28,112 29,112 29,112 28,112 28,113 28,113 29,113 29,113 29,113 30,113 30,113 30,113 31,113 31,113 31,113 31,113 31,113 31,114 31,114 31,114 31,114 31,114 31,114 31,115 31,115 31,115 31,115 31,115 31,115 31,115 31,115 31,116 31,116 31,116 31,116 31,116 31,116 31,116 31,116 32,116 32,116 32,116 32,116 32,116 32,116 33,116 33,116 33,115 33,115 33,115 34,115 34,115 34,115 34,115 34,115 34,115 34,115 34,115 35,115 35,115 35,115 35,115 35,115 37,115 37,115 37,115 37,115 37,115 37,115 37,115 37,115 37,114 36,114 36,114 36,114 35,114 35,114 35,114 35,114 35,114 35,114 33,113 33,113 33,113 33,113 33,113 33,113 32,113 32,113 32,113 32,112 32,112 32,112 32,112 32,112 32,112 32,112 32,112 32,112 32,112 33,112 33,112 33,112 33,112 33,112 34,112 34,112 34,112 34,112 34,112 34,112 34,112 34,112 33,112 33,111 33,111 33,111 33,110 33,110 33,110 33,110 33,110 33,110 33,110 33,110 33,110 34,110 34,110 34,110 34,110 34,110 35,109 34,109 34,109 32,108 32,108 32,109 31,109 31,109 31,109 31,109 29,109 29,109 29,109 30,108 30,108 30,107 30,107 30,107 31,107 31,107 32,108 32,108 32,107 32,107 32,107 32,107 32,107 32,106 32,106 32,106 32,105 32,105 33,105 33,105 33,105 33,105 33,105 33,105 33,104 34,104 34,104 34,104 34,104 34,104 34,104 34,104 34,104 33,103 33,103 33,103 33,103 33,103 33,103 33,103 33,103 32,103 32,103 32,104 31,104 31,104 31,103 31,103 31,103 30,104 30,104 30,104 29,105 29,105 29,105 28,106 28,106 27,106 27,106 27,106 27,107 27,107 27,107 27,107 27,107 27,107 27,107 27,107 27,107 27,107 27,107 27,107 27,108 27,108 27,108 27,108 27,108 26,108 26,108 26,108 26,108 26,108 26,108 26,108 26,108 26,108 26,108 25,108 25,108 25,108 25,108 25,108 25,108 25,108 25,108 25,108 24,109 24,109 24,109 24,109 24,109 24,109 24,109 24,109 23,109 23,110 23,110 23,110 23,109 23,109 22,109 22,109 22,109 22,109 22,109 22,109 22,109 22,109 21,109 21,109 21,109 21,109 21,108 20,108 20,108 20,108 20,108 20,108 20,108 20,108 20,108 19,107 19,107 19,107 19,107 19,107 19,107 19,107 18,106 18,106 18,106 17,106 17,106 17,106 17,106 17,106 18,106 18,106 17,106 17,106 17,106 17,106 17,106 17,106 18,106 18,105 18,105 18,105 18,105 18,105 18,105 18,105 18,105 17,104 17,104 17,104 17,104 17,104 17,104 17,104 17,104 17,104 17,103 17,103 18,103 18,103 18,103 18,103 18,103 18,103 18,103 18,102 18,102 18,102 18,102 18,102 18,102 18,102 18,102 19,102 19,102 19,102 19,102 19,102 19,102 19,102 19,102 19,102 20,101 20,101 20,101 20,101 20,101 20,101 20,101 20,101 20,101 21,101 21,101 21,100 21,100 21,100 21,101 21,101 21,101 21,101 21,101 21,101 21,101 21,101 22,101 22,101 22,101 22,101 22,101 22,101 22,101 22,101 22,101 22,101 22,101 23,101 23,101 23,101 23,101 23,101 23,101 23,101 23,101 23,101 23,100 23,100 23,100 23,100 23,100 23,100 23,100 23,100 22,100 22,100 22,100 22,100 22,100 22,100 22,100 21,100 21,100 21,100 21,100 21,100 21,99 22,99 22,99 22,99 22,99 22,99 22,99 23,99 23,99 23,99 23,99 23,98 23,98 23,98 23,98 22,98 22,98 22,98 22,98 21,98 21,98 21,98 21,98 21,98 20,98 20,97 20,97 20,97 20,97 20,97 20,97 20,97 20,97 20,97 19,98 19,98 19,98 19,98 19,98 19,98 18,97 18,97 18,97 18,97 18,97 17,97 17,97 17,97 17,98 17,98 17,98 17,98 17,98 17,98 17,98 17,98 16,98 16,98 16,98 16,97 16,97 16,97 16,97 16,97 16,97 15,97 15,97 15,97 15,97 15,97 14,97 14,97 14,97 14,97 14,97 14,97 14,97 13,97 13,97 13,97 13,97 13,97 13,97 13,97 13,97 13,96 13,96 13,96 13,96 13,96 13,96 13,96 13,96 13,96 13,95 13,95 13,95 13,95 13,95 12,95 12,95 12,96 12,96 12,96 12,96 12,96 12,96 12,96 12,97 12,97 12,97 12,97 12,97 12,97 12,97 12,97 12,97 12,96 12,96 12,96 11,96 11,96 11,97 10,97 10,97 10,97 10,97 9,97 9,98 9,98 9,98 9,98 9,98 9,98 10,98 10,99 11,99 11,99 11,99 12,99 12,99 12,100 12,100 12,100 12,100 12,100 11,100 11,100 11,100 10,101 10,101 10,101 10,101 10,101 10,101 10,101 10,101 10,101 10,101 10,101 9,101 9,101 9,101 9,101 9,100 9,100 9,100 9,100 9,99 9,99 8,99 8,99 8,99 8,98 8,98 8,98 8,98 8,98 8,98 8,98 7,99 7,99 7,99 7,99 7,99 7,99 5,100 5,100 5,100 5,100 4,101 4,101 4,100 3,100 3,100 3,100 3,100 3,100 3,100 3,100 3,100 3,99 3,99 3,99 3,99 3,99 3,99 2,99 2,99 2,99 2,100 2,100 2,100 2,100 2,100 1,100 1,100 1,99 1,99 1,99 1,99 1,99 1,99 1,99 1,99 1,98 1,98 2,98 2,98 2,99 2,99 2,99 2,98 2,98 2,98 2,98 2,98 2,98 2,98 2,98 2,98 2,98 2,97 2,97 2,97 2,97 2,97 2,97 1,97 1,97 1,97 1,97 1,97 1,97 1,97 1,97 1,97 1,97 1,96 1,96 0,96 0,96 0,96 0,96 1,96 1,96 1,96 1,96 1,96 1,96 1,96 1,96 1,96 1,96 1,96 2,96 2,96 2,96 2,96 2,96 3,96 3,96 3,96 3,96 3,96 4,96 4,96 4,96 4,96 4,96 4,97 4,97 4,97 5,97 5,97 5,97 5,96 5,96 5,96 5,96 5,96 5,96 6,96 6,96 5,96 5,95 5,95 5,95 5,95 5,95 5,95 5,95 5,95 5,95 5,95 5,95 5,95 5,95 5,95 5,95 5,95 5,94 5,94 5,94 5,94 5,94 5,94 5,94 6,94 6,94 6,94 6,94 6,94 6,94 6,94 6,94 6,94 6,94 6,94 6,94 6,94 6,94 6,94 6,93 6,93 6,93 6,93 6,93 6,93 6,93 7,93 7,93 7,93 7,93 7,93 7,93 7,93 7,93 7,93 6,93 6,93 6,93 6,93 6,93 7,92 7,92 7,92 7,92 7,92 7,92 8,92 8,92 8,92 8,92 8,92 8,92 8,92 8,92 8,92 8,92 8,92 8,92 9,92 9,92 9,92 9,92 9,92 9,92 9,92 9,92 9,92 9,92 9,92 9,92 9,92 9,92 9,92 10,92 10,92" id="7907" class="canton" fill="steelblue" stroke-width="1" stroke="white" geotype="canton" geoname="Maulon" code_insee="7907" code_departement="79" nom_departement="Deux-Svres" code_region="75" nom_region="Nouvelle-Aquitaine"/></svg>