<?xml version="1.0" encoding="utf-8"?>
<svg version="1.1" id="svgmap" xmlns="http://www.w3.org/2000/svg" xmlns:xlink="http://www.w3.org/1999/xlink" x="0px" y="0px" width="100%" height="100%" viewBox="0 0 500 149">
<polygon points="14,54 14,53 15,53 18,53 18,52 18,52 19,52 19,52 20,51 21,50 22,50 22,51 22,50 22,50 23,50 23,50 23,50 24,50 25,50 25,50 26,50 27,50 28,51 29,51 30,50 31,50 32,50 32,49 33,49 33,49 34,49 37,49 36,49 35,49 37,51 37,51 39,52 40,51 42,50 43,49 44,48 45,48 46,47 46,46 47,45 48,45 48,45 48,44 50,44 50,45 51,46 54,53 55,54 55,54 55,55 55,55 56,54 57,54 57,54 58,54 58,54 60,53 62,53 62,53 75,49 93,44 93,41 92,41 92,39 90,39 90,38 94,38 94,37 92,37 92,37 95,26 97,26 98,25 91,23 95,19 93,18 94,17 89,14 89,14 89,13 94,10 99,6 107,2 110,0 112,1 115,3 117,4 120,5 125,6 131,7 136,8 147,10 147,2 160,1 165,2 169,2 173,2 175,1 186,7 193,10 201,14 202,14 204,15 205,15 209,16 217,19 220,17 225,18 225,18 228,18 231,18 233,17 232,14 256,14 258,14 264,12 276,9 278,9 283,14 285,13 288,12 292,9 293,9 299,7 301,7 305,6 305,6 308,6 312,6 312,6 320,6 324,7 323,8 323,8 327,9 326,11 326,12 326,12 326,14 329,14 338,16 347,17 347,17 349,17 363,17 363,14 363,11 363,11 386,10 386,10 388,10 405,12 405,14 404,15 411,17 411,17 421,20 421,19 421,19 420,21 421,21 421,28 420,29 417,30 414,31 412,32 410,34 408,36 407,36 407,37 407,38 411,38 412,38 412,39 412,40 412,40 412,40 410,41 409,41 409,41 410,42 410,43 410,43 411,44 414,48 414,49 415,49 415,50 416,50 417,50 421,49 421,49 422,49 423,49 424,49 425,49 426,50 428,50 429,50 431,50 433,50 436,51 437,51 437,51 438,52 440,53 441,54 443,54 444,54 445,54 447,55 450,55 452,55 456,55 458,55 459,55 459,55 462,57 463,57 463,57 465,57 465,57 466,57 467,57 468,58 468,58 469,59 470,59 471,60 473,63 479,68 480,68 481,68 481,68 482,68 483,69 485,69 487,69 495,69 497,70 497,71 494,73 493,73 495,76 496,78 500,82 500,83 500,83 489,89 490,90 488,91 484,92 488,96 487,97 486,98 483,101 483,104 483,104 482,106 482,107 482,108 482,109 482,110 483,116 483,116 484,119 485,124 486,125 486,126 488,130 489,133 491,136 491,136 494,141 492,144 491,144 488,144 483,142 478,141 476,141 476,141 476,141 471,141 467,141 467,138 465,140 463,141 462,143 460,145 460,148 420,149 415,149 412,149 403,149 402,142 401,143 400,141 399,138 398,132 397,131 397,130 396,128 396,125 395,124 395,123 394,123 393,122 389,117 389,117 389,117 389,117 390,116 391,115 392,114 394,113 394,113 395,113 395,112 396,111 396,111 397,111 397,110 398,109 399,109 399,109 394,106 391,108 389,111 386,113 384,115 383,115 382,115 381,115 380,115 379,115 377,115 377,115 376,115 374,115 374,115 373,115 372,115 371,114 369,115 368,115 367,116 366,116 365,116 364,115 363,115 360,114 357,114 355,114 353,113 351,113 350,114 350,114 349,113 348,112 348,112 348,112 348,112 347,112 347,112 347,112 346,112 346,112 346,112 346,111 346,111 345,110 345,110 345,110 344,110 343,110 343,110 342,111 341,111 341,112 340,112 339,113 339,113 339,113 338,113 338,113 337,112 336,112 336,112 335,112 334,111 333,111 333,111 330,111 328,111 327,111 323,110 319,111 318,111 316,111 315,111 314,111 313,111 312,110 312,110 309,110 308,109 308,109 307,109 306,109 306,109 305,109 299,110 298,110 298,110 297,109 296,109 295,109 294,109 293,109 293,109 292,109 290,109 290,109 289,110 288,110 284,110 283,110 281,110 280,109 279,109 276,110 276,110 275,110 275,110 275,110 274,111 274,111 272,112 270,112 267,114 265,113 264,112 262,112 261,111 252,112 248,112 247,112 245,113 243,114 240,114 238,114 236,113 235,113 233,112 230,112 229,111 226,112 224,112 222,112 221,111 219,110 217,110 216,110 214,112 211,111 208,110 207,110 204,110 203,110 202,110 199,111 199,112 198,112 197,113 197,113 196,114 195,114 194,114 191,113 190,112 188,112 187,112 186,113 185,112 183,112 183,112 181,112 179,112 179,112 178,112 175,112 171,112 170,111 170,112 169,112 168,112 167,114 167,114 167,115 166,116 164,116 164,117 164,118 163,118 158,119 156,119 155,120 154,121 152,121 151,121 149,122 148,123 145,123 144,124 141,126 140,127 138,127 137,127 137,126 136,125 134,125 131,125 128,125 128,125 127,125 127,125 122,123 120,123 118,122 118,122 116,122 114,122 113,121 111,121 110,121 110,121 109,121 108,120 109,120 110,119 111,119 114,118 113,116 112,116 111,115 110,114 109,113 109,113 109,113 108,112 105,110 105,110 104,109 103,107 101,105 101,105 100,104 99,104 99,104 99,105 98,105 98,105 95,103 94,103 93,103 92,103 92,103 92,104 91,105 91,106 90,107 88,108 86,109 86,109 79,105 75,103 64,100 57,99 31,96 28,95 26,94 28,91 32,86 32,86 32,86 31,86 28,86 26,85 24,85 24,85 24,85 23,86 23,86 22,87 21,88 20,89 20,89 18,88 17,88 17,88 17,88 16,88 16,88 16,88 16,88 14,87 13,87 13,86 12,86 12,86 10,85 10,85 8,85 7,85 7,85 7,84 8,83 7,83 6,82 6,82 5,82 3,82 3,81 3,81 3,80 3,79 3,79 3,78 4,77 3,76 3,76 3,75 3,75 3,75 3,75 0,75 0,75 1,75 3,73 3,73 3,73 4,72 4,72 6,70 8,68 8,68 8,68 9,68 9,67 9,67 9,67 9,67 9,66 9,66 9,66 10,65 11,62 12,61 12,60 12,59 12,59 13,56 14,55 14,54 14,54 14,54 14,54" id="8008" class="canton" fill="steelblue" stroke-width="1" stroke="white" geotype="canton" geoname="Amiens-3" code_insee="8008" code_departement="80" nom_departement="Somme" code_region="32" nom_region="Hauts-de-France"/></svg>