<?xml version="1.0" encoding="utf-8"?>
<svg version="1.1" id="svgmap" xmlns="http://www.w3.org/2000/svg" xmlns:xlink="http://www.w3.org/1999/xlink" x="0px" y="0px" width="100%" height="100%" viewBox="0 0 500 328">
<polygon points="203,12 205,13 205,13 209,15 209,15 211,15 212,15 216,18 225,25 226,25 258,26 260,26 273,26 273,26 283,32 284,31 291,26 295,30 296,29 296,30 307,37 309,38 311,39 312,41 314,42 322,37 326,37 326,32 327,29 327,28 328,25 328,24 330,23 331,22 332,20 332,20 334,19 337,20 337,19 338,19 340,18 341,18 341,17 341,16 344,15 347,13 349,12 357,8 359,7 360,7 369,7 373,7 376,6 378,7 380,7 382,7 383,7 383,6 384,6 384,6 385,6 386,7 387,5 388,4 388,4 389,3 389,3 389,3 389,3 390,1 391,1 392,0 395,1 396,1 396,1 397,1 397,1 398,1 416,4 429,6 435,7 435,8 436,8 437,11 438,11 438,11 442,10 445,9 446,9 447,10 451,11 451,11 451,11 451,11 452,12 452,12 452,12 452,12 452,12 452,12 452,12 452,12 453,12 453,12 453,12 453,12 454,12 454,12 454,12 454,12 454,12 454,12 455,12 455,12 455,12 455,12 455,12 455,12 455,12 455,12 455,12 455,12 455,12 455,12 455,13 455,13 456,13 465,6 466,7 466,7 466,7 469,7 470,8 470,8 472,8 473,9 476,9 479,10 479,10 481,10 484,11 484,11 486,11 486,11 486,11 486,11 486,11 486,11 487,11 487,11 487,10 487,10 487,10 487,10 488,10 488,10 487,11 487,11 488,11 490,12 490,12 490,12 490,12 490,12 491,12 491,11 491,11 491,11 491,11 492,11 492,11 492,12 492,12 493,12 493,12 492,13 493,13 494,13 495,13 495,13 496,13 497,13 497,13 497,13 497,13 497,13 497,13 497,13 498,13 498,13 498,13 498,13 498,14 499,14 499,14 499,14 500,14 500,15 500,17 499,19 499,21 498,21 498,21 498,21 496,21 496,21 496,21 497,21 498,21 498,21 498,21 498,21 497,23 497,24 498,24 498,24 498,24 498,24 498,25 497,25 497,25 497,26 497,26 496,26 496,27 496,27 495,27 495,27 495,27 494,27 493,26 492,26 492,26 492,26 492,26 491,26 491,26 491,25 490,25 490,25 490,25 490,26 489,26 489,26 489,26 488,25 488,25 488,25 488,25 487,25 487,25 486,26 486,26 485,26 485,26 485,26 485,26 485,27 484,27 484,28 484,28 484,28 483,28 483,28 483,27 482,28 481,27 481,27 481,27 480,27 480,28 480,28 479,28 480,29 480,29 479,30 480,30 480,30 479,30 479,31 478,30 478,31 477,32 477,32 477,32 477,32 476,32 476,32 478,33 478,34 476,36 479,37 479,36 481,37 482,37 482,37 483,37 484,38 484,38 484,38 484,38 485,38 485,38 486,38 487,38 487,38 487,38 486,39 486,39 486,39 487,39 487,40 487,40 487,40 488,40 489,40 489,40 489,40 489,40 489,40 489,40 489,40 489,40 489,40 489,40 489,40 489,41 488,41 488,41 488,42 488,43 488,43 487,43 486,44 485,45 485,46 483,45 483,46 483,46 483,46 483,46 483,46 483,46 482,46 482,46 482,46 482,46 482,45 482,45 481,45 481,45 480,46 480,46 480,46 479,46 478,47 478,47 478,47 478,47 478,47 478,48 477,48 477,48 477,48 477,48 476,48 476,47 477,47 477,46 477,46 478,46 478,46 478,45 478,45 479,44 479,44 479,44 479,44 478,44 478,44 478,44 478,44 477,45 477,44 476,44 476,44 476,45 476,45 474,44 473,44 472,46 471,46 471,46 471,47 470,48 470,48 470,48 469,47 469,47 470,47 470,47 472,45 473,44 472,43 469,43 469,42 470,42 470,42 470,42 470,42 470,41 470,41 470,41 470,41 470,41 470,41 470,41 471,40 469,40 469,40 468,40 467,40 467,40 467,40 466,40 466,40 466,40 466,41 466,41 465,41 465,42 465,42 464,42 462,41 462,41 462,41 462,42 462,41 461,41 461,42 461,42 460,42 460,42 459,43 459,42 458,44 458,44 459,45 459,45 458,45 458,45 458,45 457,45 457,46 457,45 456,45 456,45 456,45 456,45 455,45 454,45 454,45 454,45 454,45 454,45 453,45 453,45 453,45 453,45 453,45 452,46 452,46 454,46 455,47 455,47 456,47 456,47 456,47 456,47 455,47 455,47 455,48 455,48 455,48 455,48 455,48 455,48 455,48 454,49 454,49 454,49 453,50 452,51 452,51 452,51 451,51 451,51 451,51 451,52 451,52 452,52 452,52 452,52 452,52 452,52 452,52 452,52 452,52 452,52 453,52 453,52 453,52 453,52 453,52 453,52 453,52 453,52 453,52 453,52 453,52 454,53 454,53 454,53 453,53 453,53 453,53 453,53 453,53 453,53 452,53 452,53 452,53 452,53 452,53 452,53 452,53 452,53 452,53 452,53 452,53 451,53 451,53 452,53 452,53 452,54 452,54 452,54 451,54 451,54 451,54 451,54 451,54 451,54 450,54 450,54 450,54 450,54 450,54 450,54 449,54 449,54 449,54 449,54 449,54 449,54 449,54 449,54 449,54 449,54 449,54 449,54 448,54 448,54 448,54 448,54 448,54 448,54 448,54 447,54 447,54 447,54 446,53 445,53 445,54 445,54 444,54 444,54 443,55 443,55 444,55 446,56 446,56 446,56 446,56 443,55 442,55 442,56 442,56 442,56 442,56 444,57 444,57 444,57 442,56 441,57 441,57 442,58 442,58 443,58 442,58 442,58 442,58 441,58 441,58 441,58 440,58 440,58 440,58 440,58 439,59 439,59 439,59 439,59 440,60 440,60 440,60 440,60 440,60 440,60 440,60 440,60 440,60 440,60 440,60 440,60 440,60 440,60 440,61 439,61 439,61 439,61 439,61 439,61 438,61 438,61 438,61 438,61 437,61 437,61 437,60 437,60 437,60 437,60 437,60 437,60 436,60 436,60 436,60 435,59 435,59 435,59 435,59 435,59 434,59 434,59 434,59 434,59 434,60 433,61 433,61 433,62 434,62 434,62 434,62 434,63 434,63 434,63 434,63 434,63 434,63 434,63 434,63 434,63 434,63 434,64 434,64 433,65 433,66 433,66 433,66 433,66 433,66 433,66 433,66 433,66 433,66 433,66 433,66 433,66 433,67 433,67 433,67 433,67 433,67 432,67 432,67 433,68 433,68 432,68 432,68 433,68 433,68 433,68 433,69 433,69 432,69 432,70 432,70 431,71 431,71 430,71 430,72 430,72 429,72 428,72 428,72 428,72 428,72 428,72 425,71 425,71 427,72 428,73 427,73 426,74 426,74 425,73 424,73 424,73 424,73 423,73 422,73 422,73 422,73 422,73 422,73 422,73 421,73 421,73 421,73 421,72 420,73 420,73 419,74 420,74 420,74 420,74 420,74 420,74 420,74 421,75 420,75 418,77 418,77 421,78 421,78 417,77 417,77 417,78 417,78 416,78 415,79 413,80 413,80 409,80 409,80 410,81 410,81 411,81 411,81 412,81 412,81 413,82 411,83 409,84 408,84 408,84 408,83 408,83 407,83 407,83 407,83 406,83 406,83 406,83 406,83 406,83 406,83 405,82 405,82 405,82 405,82 405,82 404,82 404,82 404,83 403,83 403,83 403,83 403,83 403,84 403,84 403,84 403,84 404,84 404,84 404,84 404,84 404,84 404,84 404,84 405,84 405,84 405,84 405,84 405,84 405,85 406,85 406,85 406,85 406,85 406,85 406,85 407,85 407,85 407,85 407,85 407,85 407,86 404,84 402,85 402,85 401,85 400,85 400,85 400,84 399,85 399,85 399,85 402,88 402,88 401,88 401,89 399,87 397,88 395,87 395,87 394,88 395,89 396,89 396,89 395,89 396,90 387,95 385,95 386,96 385,96 386,97 386,98 386,98 386,98 384,99 382,97 380,99 375,101 373,103 373,103 368,103 368,105 368,105 369,105 370,105 371,105 371,105 387,104 389,104 380,114 371,123 366,128 361,136 350,147 346,155 340,155 338,168 332,174 327,181 327,181 320,180 319,181 308,203 308,203 306,206 301,212 310,214 307,226 308,226 319,238 314,240 317,242 311,246 313,247 311,250 329,251 329,250 337,254 338,253 346,256 347,257 338,265 337,266 336,269 336,272 336,274 336,275 340,276 341,277 342,277 343,278 348,278 354,278 355,278 355,278 354,279 353,280 351,280 350,280 346,281 344,281 341,283 336,284 329,285 316,290 318,295 303,294 299,301 300,302 292,309 286,307 265,323 261,327 259,326 258,328 256,326 254,325 250,323 240,321 236,319 227,315 218,313 215,312 222,302 212,299 218,289 214,288 214,287 208,286 205,285 204,287 203,287 201,288 199,288 195,288 195,288 194,288 194,290 193,290 192,289 191,289 191,288 192,286 192,285 194,284 194,283 195,283 193,282 192,281 180,278 170,276 164,275 154,272 136,268 124,264 95,255 94,254 90,253 83,253 71,255 71,255 54,258 37,262 37,261 10,265 7,260 4,248 2,248 2,246 7,236 26,219 28,220 28,220 52,208 54,208 35,194 68,184 64,180 67,178 67,178 61,176 57,176 55,175 53,174 50,174 50,174 49,174 45,172 43,173 41,173 41,173 40,173 39,173 38,172 37,172 32,171 32,171 31,171 30,171 29,170 29,170 27,170 27,169 26,169 23,168 17,164 16,164 15,163 8,160 0,156 0,156 12,145 12,144 15,143 17,142 20,141 14,137 25,132 37,126 37,123 43,120 38,118 32,114 18,103 18,102 21,95 24,89 29,89 51,91 54,82 62,81 69,58 69,52 72,49 71,48 80,47 107,47 119,47 120,46 122,46 124,47 129,48 128,47 129,45 130,44 134,42 144,38 153,33 160,28 169,23 169,23 170,23 183,16 188,13 191,11 193,11 198,11 201,12 203,12" id="8012" class="canton" fill="steelblue" stroke-width="1" stroke="white" geotype="canton" geoname="Amiens-7" code_insee="8012" code_departement="80" nom_departement="Somme" code_region="32" nom_region="Hauts-de-France"/></svg>