<?xml version="1.0" encoding="utf-8"?>
<svg version="1.1" id="svgmap" xmlns="http://www.w3.org/2000/svg" xmlns:xlink="http://www.w3.org/1999/xlink" x="0px" y="0px" width="100%" height="100%" viewBox="0 0 500 317">
<polygon points="81,6 80,7 80,9 80,9 80,9 80,9 80,9 80,9 80,9 80,9 80,9 81,10 81,10 81,10 81,10 82,10 83,9 83,9 83,9 83,10 83,10 83,10 84,10 84,10 84,10 84,10 84,11 85,12 85,13 86,13 86,13 87,13 89,14 90,15 90,15 92,16 93,16 93,16 93,16 95,18 95,18 96,18 96,19 97,20 97,20 97,20 97,20 97,20 97,21 97,21 97,21 97,21 97,21 96,21 96,21 96,21 96,22 95,22 94,22 94,22 94,22 94,22 94,22 93,22 93,22 93,22 93,23 93,23 93,23 94,23 94,23 94,23 94,24 94,24 94,24 94,23 95,23 95,23 95,23 96,23 96,23 97,23 97,24 97,24 97,24 97,24 98,24 97,25 97,25 97,25 97,25 97,25 97,25 96,25 96,26 95,26 95,26 95,26 95,26 95,26 95,27 95,28 95,28 96,28 96,28 96,28 96,28 96,28 97,28 97,28 97,28 98,28 98,28 98,28 98,28 99,28 99,28 99,28 99,28 100,28 100,28 100,28 100,28 100,28 100,28 100,28 100,28 100,27 100,27 101,27 101,27 101,27 101,27 101,27 102,27 102,27 102,27 102,28 102,28 103,28 103,28 103,28 103,28 104,28 104,28 104,28 104,28 105,28 105,28 105,28 105,29 105,29 104,29 104,29 104,29 104,29 104,30 104,30 104,30 104,30 104,31 105,31 105,31 105,31 105,31 105,31 106,31 106,31 106,31 106,31 106,30 106,30 107,30 107,30 107,30 108,29 108,29 109,29 109,29 110,29 110,29 110,29 110,29 111,29 111,29 111,29 111,29 112,29 112,29 112,30 112,30 112,30 112,30 112,30 112,31 112,31 112,31 112,31 112,31 112,31 113,32 113,32 114,32 114,32 114,32 114,33 114,33 114,33 113,33 113,33 113,33 113,34 113,34 112,34 112,35 112,35 111,35 111,35 111,35 112,35 112,35 112,35 112,35 113,36 113,36 114,36 114,36 114,36 114,36 114,36 115,36 115,36 115,36 115,36 115,36 115,36 115,36 115,35 115,35 115,35 115,35 115,35 115,35 116,35 117,35 118,35 119,35 119,35 119,35 119,35 119,35 119,35 119,35 119,35 120,34 120,34 120,34 121,33 121,33 122,33 122,33 122,33 122,33 122,33 122,33 122,33 122,33 122,33 123,34 123,34 123,34 124,34 124,34 124,34 124,34 124,34 124,34 124,34 124,34 124,34 124,33 124,33 124,33 124,33 124,33 124,33 124,33 125,32 125,32 126,32 126,32 126,32 126,32 127,32 128,32 128,32 128,32 129,31 129,31 130,31 130,31 130,30 130,30 130,30 131,30 132,30 133,29 133,29 134,29 134,29 134,29 135,29 135,29 135,29 135,29 136,29 136,29 136,29 136,29 137,29 137,29 137,29 137,29 137,29 138,28 138,28 138,29 138,29 138,29 138,29 139,29 139,29 139,29 139,29 139,29 139,29 140,29 140,29 140,29 139,29 139,29 139,28 139,28 139,28 139,28 139,28 139,28 139,28 138,28 138,28 138,27 138,27 137,27 137,27 136,28 136,28 136,28 136,27 136,27 136,27 136,27 136,27 136,27 136,26 136,26 136,26 136,26 136,26 136,26 136,26 136,26 136,25 136,25 136,25 136,25 136,25 136,24 136,24 136,24 136,24 136,24 136,24 136,24 136,24 136,24 136,24 136,24 136,24 137,24 137,24 138,24 138,24 138,24 138,24 138,24 138,24 139,24 139,25 139,25 139,25 139,25 140,27 140,28 140,28 140,28 141,28 141,28 141,28 142,28 142,28 142,28 142,27 142,27 143,27 145,26 145,26 146,26 149,24 149,24 150,24 150,24 157,23 159,23 163,23 165,23 165,22 165,22 165,22 167,22 167,22 171,22 171,22 171,22 173,20 173,20 174,19 174,19 176,18 176,19 177,19 177,18 178,18 178,18 179,18 179,18 179,18 180,18 180,18 181,18 181,18 181,17 181,17 182,17 182,17 182,17 182,17 182,17 182,17 182,17 178,15 192,11 192,13 199,11 199,11 202,8 202,8 203,8 208,8 209,8 209,8 209,8 209,8 212,8 212,8 213,8 213,8 213,8 217,7 217,7 217,8 217,8 220,8 220,8 220,8 221,8 223,8 223,8 224,9 224,10 224,10 224,10 225,10 225,10 225,10 225,10 226,10 226,10 226,10 226,10 227,9 227,9 227,9 227,9 227,9 228,10 229,10 230,10 230,10 230,10 231,9 232,9 232,9 232,9 233,9 234,10 234,10 235,10 235,10 235,10 236,10 236,10 236,10 236,10 237,9 237,9 238,9 239,9 239,9 239,9 240,9 240,9 240,10 241,9 241,9 241,10 241,10 241,10 241,10 241,10 242,10 242,10 242,10 243,11 244,11 245,11 246,11 246,11 246,11 247,12 247,12 247,12 248,12 248,13 248,13 248,13 249,14 249,14 250,14 250,14 250,15 250,15 251,15 251,15 251,15 251,15 252,15 252,15 253,16 253,16 253,16 254,17 254,17 255,17 256,18 256,18 257,18 258,19 259,19 259,20 260,20 261,20 261,20 261,20 261,20 262,20 262,20 263,21 263,21 264,22 264,22 264,22 265,22 265,22 265,23 265,23 265,23 266,23 266,23 267,23 267,23 267,23 268,23 269,23 269,23 269,22 270,22 271,23 271,23 271,23 271,22 272,22 272,22 273,22 273,21 273,21 273,21 274,22 274,22 274,22 275,22 276,23 276,23 276,23 277,24 277,24 277,24 277,24 279,24 280,24 280,24 280,24 280,24 281,24 281,24 282,24 282,24 283,24 283,25 284,25 284,25 284,25 285,25 285,25 285,25 284,26 284,26 284,26 284,26 284,26 284,26 284,27 284,27 284,28 284,28 285,28 285,28 285,28 286,28 286,28 286,28 286,28 286,28 287,28 287,28 287,28 287,28 287,28 287,29 287,29 288,29 288,29 288,29 289,28 289,28 289,28 289,28 289,28 289,28 289,30 289,30 290,31 290,31 290,31 290,32 290,32 290,32 290,32 290,32 290,32 291,32 291,32 291,31 291,31 291,31 291,31 291,31 291,31 291,31 291,30 291,30 291,30 291,30 292,30 292,30 293,30 293,30 294,30 294,30 295,30 295,30 295,30 295,30 295,30 296,30 296,30 296,30 296,31 296,31 297,31 297,31 297,32 298,32 298,32 298,32 298,32 298,33 299,33 299,33 299,33 300,32 300,32 301,32 301,32 302,32 302,32 302,32 302,32 302,33 302,33 302,33 302,33 302,33 302,34 302,34 302,34 302,34 302,34 302,35 302,35 302,35 302,35 303,35 303,35 303,35 303,36 303,36 304,36 304,37 304,37 304,37 304,37 304,37 304,38 304,38 304,38 304,38 304,38 305,38 305,39 305,39 305,39 305,39 305,39 305,39 305,39 305,39 304,39 304,39 304,39 304,39 303,39 303,39 303,39 303,39 303,39 302,40 302,40 302,40 302,40 302,41 302,41 302,41 302,41 302,41 302,41 302,41 302,42 302,42 302,42 303,42 304,42 305,42 305,42 305,42 305,42 305,42 305,42 305,42 305,42 305,42 305,43 305,43 305,43 305,43 305,43 305,43 305,43 305,43 305,44 305,44 305,44 306,44 306,44 306,44 306,44 306,44 306,44 307,44 308,45 308,45 308,45 308,45 308,45 308,45 308,45 308,45 308,45 308,45 309,45 309,46 309,46 309,46 309,46 309,47 310,47 310,47 310,47 310,47 310,47 310,47 311,47 311,47 312,47 312,47 312,47 313,47 314,47 318,47 318,47 318,47 319,47 319,47 320,47 320,47 320,47 321,47 321,47 321,47 321,47 322,47 322,47 323,47 323,47 323,47 324,47 324,47 324,47 324,47 325,47 325,47 325,47 325,47 325,47 325,47 325,47 325,47 325,47 326,47 326,47 326,47 326,47 326,49 326,49 326,49 326,50 326,50 326,50 325,50 325,51 325,51 326,51 326,51 326,51 327,51 328,51 328,51 328,51 328,51 328,52 328,52 329,52 330,52 331,51 331,51 332,51 333,51 333,52 333,52 334,52 334,52 334,52 334,53 334,53 334,53 336,53 336,53 338,53 338,53 338,53 338,53 339,53 339,53 339,53 339,53 339,53 340,53 340,52 340,52 340,52 342,53 344,53 344,52 345,51 345,51 345,51 345,51 345,51 345,51 346,50 346,50 346,50 346,50 347,50 347,50 347,50 347,49 348,49 348,49 348,49 348,49 348,49 348,48 348,48 348,48 348,48 348,47 348,47 347,47 347,47 348,46 348,46 348,46 348,45 348,45 348,45 348,45 348,45 349,45 349,45 349,45 350,44 350,44 351,44 351,44 352,44 352,44 353,43 353,43 354,42 355,42 355,42 356,41 357,41 358,41 358,40 358,40 358,40 358,40 357,39 358,39 358,38 359,38 360,37 360,37 361,37 361,37 361,37 361,36 362,36 362,36 363,36 364,35 365,35 366,35 366,35 367,35 368,35 368,35 369,35 369,35 369,35 369,35 370,35 370,35 370,35 371,36 372,36 373,36 373,36 373,36 373,36 373,36 373,36 373,36 373,36 373,36 373,36 374,36 374,36 374,36 374,36 374,37 375,37 375,37 375,37 375,37 375,37 376,37 376,37 376,37 376,37 376,37 376,37 377,37 377,38 377,38 377,38 377,38 377,38 377,39 377,39 377,39 378,39 378,39 378,39 378,39 378,39 378,40 379,40 379,40 379,40 379,41 379,41 380,40 380,40 381,40 381,40 381,40 381,40 381,41 381,41 381,41 381,41 381,42 382,42 382,42 382,43 381,43 381,43 382,43 382,43 382,43 382,43 382,43 383,43 383,43 383,43 383,43 383,43 384,43 384,43 384,43 384,43 385,43 385,43 385,44 385,44 385,44 385,44 385,44 385,44 385,45 385,45 385,45 385,45 385,45 385,45 385,45 385,45 385,45 385,45 385,45 385,46 384,46 384,46 384,46 384,46 384,46 384,46 384,46 384,46 384,47 385,47 385,47 385,47 385,47 385,47 384,47 384,47 384,48 384,48 384,48 385,48 385,48 385,48 385,48 384,48 384,48 384,48 384,48 384,48 384,49 383,49 383,49 382,50 382,50 382,50 382,50 382,50 382,51 383,51 384,52 384,53 384,53 384,53 384,53 384,53 383,53 383,53 381,53 379,52 379,52 378,53 376,54 376,54 376,55 375,55 374,55 373,55 373,56 373,56 373,56 372,56 371,56 371,56 371,56 371,56 370,57 370,57 369,57 369,57 369,58 368,59 367,59 367,59 367,59 366,59 366,59 365,60 365,60 365,60 365,60 364,60 364,60 363,60 362,61 362,61 361,61 361,61 361,61 361,61 361,61 361,61 360,62 360,62 360,62 360,62 360,62 359,62 359,62 358,62 358,62 358,62 357,63 356,64 356,64 356,64 356,64 356,64 356,65 356,65 357,65 357,65 357,65 357,65 357,65 357,65 357,65 358,65 358,65 358,65 358,65 358,65 358,65 358,65 358,65 359,65 359,65 359,65 359,65 359,66 360,66 360,66 360,66 360,66 360,66 360,66 360,66 360,66 360,66 360,66 360,66 360,66 360,66 360,66 360,66 360,66 360,66 360,67 360,67 360,67 360,67 361,67 361,67 361,67 361,67 361,67 362,67 362,67 362,67 362,67 362,67 362,67 363,67 363,67 363,67 363,67 363,68 364,68 364,68 364,68 364,68 364,68 364,68 364,68 364,69 364,69 365,69 365,69 365,69 365,69 365,69 365,69 365,69 365,69 365,70 366,70 366,70 366,70 366,70 366,69 366,69 366,69 366,70 366,70 367,70 367,70 366,70 366,70 366,71 366,71 367,72 368,74 368,74 368,74 369,74 369,75 369,75 369,75 369,75 369,75 370,75 370,75 370,75 370,75 372,76 372,76 373,76 373,76 373,76 373,76 374,76 374,76 374,76 374,76 376,75 376,75 378,74 376,73 376,73 376,73 376,73 376,73 377,73 378,72 379,72 379,72 379,72 379,72 380,72 380,72 380,72 381,72 381,72 381,72 381,72 381,72 382,72 382,72 382,72 382,72 382,72 382,72 382,72 382,72 383,72 383,73 383,73 383,73 383,73 384,73 384,73 384,73 384,73 384,73 384,73 384,73 384,73 385,73 385,73 385,74 385,74 385,74 385,74 386,74 386,74 386,74 386,75 386,75 386,75 386,75 386,75 386,75 386,75 386,75 386,75 386,75 386,75 386,75 386,75 386,76 386,76 386,76 386,76 386,76 386,75 386,75 386,75 386,75 387,75 387,75 387,75 387,75 387,75 387,75 387,75 387,75 387,76 387,76 387,76 387,76 387,76 387,76 386,76 386,76 386,76 386,76 386,76 386,77 386,77 386,77 386,77 386,77 386,77 386,77 386,77 386,77 385,77 385,77 385,77 385,77 385,77 386,78 386,78 386,78 386,78 386,78 387,78 387,78 387,78 387,78 387,78 387,78 387,79 387,79 387,79 387,79 387,79 388,79 388,79 388,79 388,79 388,79 388,79 388,79 388,79 388,79 388,79 388,79 389,79 389,79 389,79 389,79 389,79 389,79 389,79 389,80 389,80 389,80 389,80 390,80 390,80 390,80 390,80 390,80 390,80 390,80 390,80 391,80 391,80 391,80 391,80 391,80 391,80 392,80 392,80 392,80 392,80 392,80 392,80 392,80 392,79 392,79 392,79 392,79 392,79 393,79 393,79 393,79 393,79 393,79 394,79 394,79 394,79 394,79 394,79 394,79 395,79 395,79 395,79 395,79 395,79 395,79 395,80 395,80 395,80 395,80 396,80 396,80 396,80 396,80 397,80 397,80 397,80 398,80 398,80 398,80 398,80 399,80 399,80 399,80 399,80 399,81 400,81 400,81 400,81 400,81 400,81 400,81 400,81 400,81 400,81 400,82 400,82 400,82 400,82 401,82 401,82 401,82 401,82 401,82 401,82 402,82 402,83 402,83 402,83 403,83 403,83 403,83 404,83 404,83 404,83 404,83 404,83 405,84 405,84 405,84 405,84 405,84 406,84 406,84 406,84 406,84 407,84 407,84 407,84 407,84 407,84 407,84 407,84 407,84 408,84 408,84 408,85 408,85 408,85 408,85 408,85 408,85 408,85 408,85 408,85 408,86 408,86 409,86 409,86 409,86 409,86 409,86 410,86 410,86 410,86 410,86 410,86 410,86 410,86 410,86 411,86 411,86 411,85 411,85 411,85 412,85 412,85 412,85 412,85 413,85 413,86 413,86 414,86 414,87 415,87 415,87 416,87 417,87 417,87 417,87 418,88 418,88 419,88 419,89 419,89 419,89 419,89 419,89 419,89 419,89 419,89 419,89 420,89 421,90 421,90 421,90 421,90 421,90 421,90 421,90 421,90 421,90 421,90 421,90 421,90 421,90 422,90 422,90 422,90 423,90 423,90 423,89 423,89 424,90 424,90 424,90 425,90 425,90 425,90 426,91 426,91 426,91 426,91 427,92 427,92 427,92 427,92 426,92 426,92 426,92 426,92 426,92 426,92 426,92 426,92 426,92 427,92 427,92 428,92 428,93 428,93 428,93 428,93 428,93 430,93 430,93 431,93 431,93 431,93 431,93 431,93 431,93 431,93 432,92 432,92 434,92 434,92 435,92 435,92 436,92 437,92 437,92 438,91 438,91 438,91 438,91 439,92 439,92 439,92 441,91 441,91 441,91 441,91 442,91 442,91 442,91 442,91 442,92 442,92 442,92 443,92 443,92 444,92 444,92 445,92 445,92 445,93 445,93 446,93 446,93 446,94 446,94 446,94 446,94 446,95 447,95 447,95 447,95 448,95 448,94 448,94 449,94 449,94 449,94 449,94 450,94 450,94 451,94 451,94 451,94 451,94 452,94 452,94 452,95 452,95 452,96 452,96 452,96 452,97 453,97 454,97 454,97 455,97 455,97 456,97 456,97 457,97 457,97 457,97 457,98 457,98 457,98 457,99 457,99 458,99 458,99 459,99 459,99 458,100 458,100 458,100 459,100 459,100 459,100 459,100 459,100 459,100 459,100 459,100 460,100 460,100 460,101 460,101 460,101 461,101 461,101 461,101 460,101 461,102 461,102 461,102 461,102 460,102 460,102 461,102 461,103 461,103 462,103 462,103 462,103 463,103 464,103 464,103 466,103 467,104 468,104 468,104 468,104 467,105 467,105 467,105 468,105 468,105 468,104 468,104 468,105 469,105 469,105 469,105 469,104 470,104 470,104 470,104 470,104 471,103 471,103 471,103 471,103 472,103 472,104 472,104 472,104 472,104 472,104 472,104 473,104 473,104 474,104 474,104 474,104 475,104 475,104 475,104 476,104 476,104 476,104 476,104 476,104 476,104 476,104 476,104 476,104 476,104 477,104 477,103 477,103 477,103 477,103 477,104 477,104 477,104 477,104 477,104 477,104 477,104 478,105 478,105 478,105 478,105 479,105 479,105 479,105 479,105 479,106 479,106 480,106 480,106 480,106 480,106 480,106 480,106 480,106 480,106 480,106 480,106 480,107 480,107 480,107 480,107 480,107 480,107 480,107 480,107 481,107 481,107 481,107 481,108 481,108 481,108 481,108 481,108 482,108 482,108 482,108 483,108 483,108 483,108 484,107 485,107 485,107 485,107 486,107 486,107 486,107 486,107 487,107 487,107 487,107 487,107 487,107 487,107 487,107 487,108 487,108 487,108 487,108 487,108 487,108 487,108 487,108 487,108 488,109 488,109 488,109 488,109 488,109 488,109 488,109 488,110 488,110 488,110 488,110 489,110 489,110 488,110 488,110 488,110 488,110 487,110 487,111 487,111 486,111 486,111 486,111 485,115 484,114 484,114 484,114 483,116 483,115 480,116 478,116 477,117 476,118 476,118 476,119 476,119 475,123 477,123 479,123 479,124 480,124 480,124 480,125 479,126 479,126 482,127 482,127 482,127 481,127 481,127 481,127 479,127 479,127 479,128 479,128 479,128 479,128 479,128 479,128 479,128 479,129 479,129 479,129 480,130 481,130 482,130 482,130 482,130 482,130 485,130 487,132 487,132 486,132 486,132 486,133 486,133 486,133 486,134 486,134 483,134 483,134 483,134 483,134 483,134 486,135 486,135 486,135 486,135 486,135 485,135 485,136 485,136 485,136 485,136 485,136 484,136 484,136 484,136 485,137 485,137 485,137 486,137 486,137 486,137 486,137 486,137 486,137 487,136 487,136 489,136 489,136 489,136 489,135 489,135 489,135 489,135 490,135 490,135 492,137 493,138 493,138 493,138 493,138 493,138 493,138 493,139 493,139 493,139 493,139 493,139 493,139 492,139 492,139 492,139 492,139 492,139 492,140 492,140 492,140 491,140 491,140 491,140 490,140 490,140 489,141 488,141 487,141 487,141 486,141 486,141 485,141 485,141 483,142 483,142 481,142 481,142 480,142 480,142 479,143 479,143 479,143 479,143 479,143 477,144 478,144 477,145 477,145 476,147 476,147 476,148 476,148 476,148 476,148 476,149 476,149 475,150 475,151 475,151 475,151 475,151 474,151 473,151 473,151 472,151 471,151 470,151 470,151 469,150 469,151 469,152 469,152 469,152 469,152 470,153 471,153 472,153 473,153 473,153 472,154 469,155 469,155 469,155 470,156 470,156 470,156 469,157 469,157 468,158 468,158 468,158 468,158 467,159 467,159 467,159 466,160 466,160 466,160 466,160 466,161 466,161 465,161 465,161 465,161 465,161 465,162 465,162 465,162 465,162 466,162 466,162 466,162 464,163 462,164 462,164 461,164 461,164 461,164 460,164 460,163 460,163 460,163 459,163 459,163 459,163 458,162 457,162 457,162 457,163 456,163 456,163 455,164 455,164 454,164 454,164 454,164 454,164 453,165 453,165 453,165 453,165 453,165 453,165 453,166 453,166 453,166 453,166 453,166 453,167 453,167 453,167 453,167 453,167 454,168 454,168 455,168 455,168 455,168 457,168 456,169 458,170 460,171 460,171 461,171 461,171 461,172 461,172 461,173 461,173 461,174 461,174 461,174 461,174 461,176 462,178 462,178 462,179 462,180 463,181 463,182 463,182 463,182 464,182 465,182 465,182 465,182 465,182 466,182 466,182 468,181 469,181 469,182 469,182 469,182 469,182 474,181 474,181 474,182 475,182 475,182 477,183 477,183 477,183 476,184 476,184 476,184 477,184 478,184 478,184 478,184 478,184 478,184 479,185 479,185 480,185 480,186 481,186 481,187 481,187 481,188 481,188 481,188 481,188 481,188 481,188 482,189 482,189 482,189 483,190 483,190 484,191 484,191 484,191 484,191 484,191 484,192 485,193 486,193 486,193 487,194 487,194 487,195 486,195 485,195 485,195 484,195 484,196 484,196 483,196 483,196 483,196 484,197 484,198 485,198 484,199 484,199 483,200 483,200 483,201 484,201 484,201 484,202 483,202 483,202 483,203 483,203 483,203 481,204 480,204 480,204 479,204 479,204 479,205 479,205 479,205 478,205 478,205 477,206 477,206 476,207 475,207 476,208 476,208 476,208 476,208 476,208 476,209 476,209 476,209 476,209 477,209 479,209 480,209 481,209 482,208 483,208 483,208 483,207 483,207 485,206 486,206 486,206 487,206 487,207 488,207 488,207 488,208 488,208 489,208 489,208 489,208 489,209 489,209 489,209 489,209 489,209 490,210 490,210 490,211 490,211 490,212 490,212 490,213 490,213 490,213 490,213 490,213 491,214 491,214 491,214 490,214 490,215 489,216 489,216 489,216 488,216 488,217 487,217 487,217 487,218 486,218 486,218 486,218 486,219 486,219 486,219 487,219 487,219 487,219 487,220 488,220 488,221 489,222 489,223 489,223 487,223 485,224 484,224 485,224 483,224 483,225 484,225 484,225 484,226 485,227 485,228 485,229 485,230 485,231 485,231 485,233 484,236 484,237 483,238 483,238 484,239 485,240 485,240 485,242 483,243 481,244 484,246 486,247 486,247 486,247 484,248 484,248 486,251 487,251 488,253 490,254 490,254 490,255 490,256 489,258 490,258 491,259 487,260 487,260 483,262 484,264 484,264 484,264 483,264 483,265 482,265 481,265 480,265 480,266 480,266 480,266 480,266 479,264 479,264 478,264 478,264 478,264 479,265 479,266 480,267 480,267 480,267 480,267 480,267 480,267 481,267 481,268 481,268 481,268 481,268 481,268 480,269 481,269 481,269 481,269 481,269 481,270 481,270 481,270 481,270 480,270 480,270 480,270 480,270 480,271 480,271 480,271 480,271 480,271 481,271 481,271 481,271 481,271 481,271 481,272 481,272 481,272 480,272 479,272 479,272 479,273 479,273 479,273 479,273 479,273 479,273 479,273 479,273 480,274 478,275 478,275 478,275 478,275 479,275 479,275 480,275 480,275 480,275 480,275 480,275 481,276 481,276 481,276 482,276 484,275 484,276 486,277 486,277 487,277 487,278 488,278 489,278 488,278 488,278 486,279 486,279 489,281 490,281 494,280 494,280 495,280 495,280 496,280 497,281 499,280 499,280 499,280 500,280 500,281 500,281 500,281 500,281 500,281 499,281 497,282 497,282 497,282 497,282 497,282 497,282 497,282 497,282 497,283 496,283 495,283 495,284 495,284 495,284 494,284 493,283 491,282 493,282 488,282 488,282 487,282 487,282 487,282 486,282 485,282 485,282 484,283 483,283 483,283 483,282 482,282 482,282 480,280 479,280 479,280 479,280 478,279 477,278 477,278 477,278 476,279 476,279 475,279 475,279 475,279 474,279 474,279 473,279 471,279 471,279 471,279 471,279 470,279 470,279 469,279 467,279 467,279 467,279 467,279 467,279 467,279 467,278 467,278 467,278 466,278 466,278 466,277 466,278 465,278 464,278 464,278 463,278 462,279 462,279 462,279 462,279 461,278 461,278 460,278 460,278 458,278 458,278 457,278 456,278 456,278 456,278 454,278 454,277 454,277 453,277 453,276 453,276 451,276 451,276 451,276 451,276 451,276 450,277 449,278 449,279 448,280 448,280 450,282 453,286 454,286 456,285 456,285 457,285 459,287 459,287 460,287 460,287 460,287 460,287 460,287 460,287 462,288 463,288 463,288 464,288 464,288 465,289 466,289 466,289 467,289 467,289 468,290 468,290 468,290 468,290 468,290 468,291 468,291 471,291 472,291 474,291 474,291 474,291 474,292 475,292 477,292 477,292 478,292 478,292 479,292 479,292 479,292 480,292 480,292 482,292 482,293 481,294 482,295 482,295 483,296 484,296 485,297 484,298 483,298 484,299 484,300 487,301 488,300 489,300 491,300 491,302 492,302 492,302 492,302 492,302 492,303 491,303 491,303 490,303 490,303 489,303 488,305 488,305 487,304 486,304 486,305 486,305 485,305 485,305 483,305 481,306 481,306 480,306 477,306 477,306 477,306 477,306 476,305 475,305 475,305 475,304 478,303 475,299 473,299 473,299 473,299 472,299 472,299 471,300 470,300 470,300 469,300 467,300 467,301 466,301 466,301 464,301 463,301 462,301 462,301 461,300 461,300 461,299 461,299 461,298 460,297 459,297 458,295 457,295 456,294 455,294 454,293 452,292 451,292 451,291 451,291 451,291 450,291 449,290 449,289 448,289 447,289 447,289 447,289 446,289 446,290 445,290 445,290 444,290 443,291 442,291 441,291 441,291 441,291 440,291 440,291 439,291 439,292 439,291 437,291 437,291 437,291 436,291 434,291 434,291 434,291 433,291 433,291 432,290 430,289 430,290 431,290 431,291 430,291 429,293 429,293 428,294 426,298 426,299 426,298 426,300 427,302 425,302 424,302 423,304 423,304 423,304 423,304 421,305 420,306 420,307 420,308 419,308 418,309 418,310 417,310 416,310 416,310 415,309 415,309 415,309 415,309 414,308 414,308 414,308 414,308 404,312 404,312 404,312 402,310 402,309 402,309 402,310 402,310 400,312 400,312 400,312 399,312 398,313 398,314 398,314 398,314 399,314 399,315 399,315 399,314 400,314 400,314 400,315 400,314 401,315 401,315 401,315 401,315 401,315 401,315 401,315 401,316 401,316 400,317 400,316 399,316 398,316 396,316 396,316 395,316 395,316 395,316 395,316 394,315 394,315 394,315 394,315 394,315 393,314 393,314 392,313 391,313 392,313 389,311 388,310 387,310 387,309 387,309 385,308 385,307 385,307 384,307 383,306 383,306 380,305 380,305 381,305 380,305 380,304 379,304 379,304 385,302 386,302 386,302 387,301 388,301 388,300 387,300 387,300 387,300 386,300 386,300 385,299 384,299 384,299 384,299 383,298 383,298 382,298 382,298 381,299 380,299 380,299 379,299 379,299 379,298 378,298 378,298 378,298 378,298 377,298 377,298 376,298 375,298 373,298 372,298 371,298 371,298 370,298 370,298 370,298 368,298 367,298 366,298 366,298 365,298 365,298 365,298 365,297 364,297 364,297 364,297 364,296 364,296 363,295 363,295 361,295 359,295 359,295 359,295 359,295 359,295 358,294 358,294 357,294 357,294 357,293 356,293 356,293 355,293 355,293 354,293 354,293 353,293 352,292 352,292 351,292 350,292 350,292 349,291 349,291 348,291 348,291 348,290 347,290 347,290 347,290 346,290 345,290 344,290 343,290 342,290 341,290 341,290 341,290 342,290 342,291 342,291 342,291 342,291 342,291 342,291 342,291 342,291 342,291 342,291 342,291 342,291 342,291 342,292 342,292 342,292 342,292 342,292 342,292 342,292 342,292 342,292 342,292 342,292 342,292 342,292 342,292 343,292 343,292 343,293 343,293 343,293 343,293 343,293 343,293 343,293 343,293 343,293 343,293 343,294 343,294 343,294 343,294 343,294 343,294 343,294 343,294 343,294 343,295 343,295 343,295 343,295 343,295 343,295 344,295 344,295 344,295 344,295 344,296 344,296 344,296 344,296 344,296 344,296 344,296 344,296 344,296 344,296 344,296 344,296 344,296 344,296 344,297 344,297 344,297 344,297 344,297 344,297 344,297 344,298 344,298 344,298 344,298 344,299 344,299 344,299 336,297 331,296 329,296 328,296 327,296 327,296 326,296 326,296 325,296 325,295 324,295 324,295 323,295 323,295 323,295 323,295 323,294 323,294 322,294 322,294 322,293 321,293 321,293 321,293 321,293 321,292 320,292 321,291 323,288 323,288 323,287 324,286 323,286 323,286 322,286 322,286 321,286 321,286 320,286 320,285 320,285 320,284 321,284 322,284 322,284 321,284 322,283 322,283 324,281 324,281 323,281 325,280 326,278 326,277 327,276 326,276 328,274 329,275 329,274 329,274 329,273 328,272 328,272 328,272 328,272 328,271 328,271 328,269 328,269 329,269 329,268 330,265 330,264 330,264 330,263 330,263 330,263 331,262 331,261 331,261 332,261 332,261 332,260 332,260 333,259 333,259 333,258 344,259 344,259 346,260 346,260 350,261 354,262 354,262 354,262 354,262 354,262 355,262 355,262 356,260 357,259 357,259 353,259 354,257 355,257 355,256 356,255 356,254 357,253 357,253 355,253 355,252 355,252 355,252 355,251 355,251 356,249 356,248 356,248 356,247 356,247 356,247 356,247 356,247 356,247 355,246 355,246 354,246 353,246 353,246 352,246 351,245 351,245 350,245 348,245 348,245 348,244 348,243 348,243 348,242 348,242 346,241 346,241 346,241 346,241 347,241 347,240 347,239 347,239 347,239 346,239 344,238 344,238 344,238 343,238 342,238 342,238 341,238 339,238 339,238 339,238 339,238 338,238 338,238 338,238 338,238 338,238 337,238 336,237 335,226 335,226 335,226 336,225 339,225 343,224 343,224 346,224 346,223 346,222 346,221 346,221 346,220 346,220 346,220 346,220 346,219 346,218 346,218 346,218 345,218 345,217 345,217 346,217 346,217 346,217 346,217 346,217 346,217 347,217 347,217 347,217 348,217 348,217 349,217 349,217 349,217 349,216 349,216 349,216 351,216 351,216 352,216 352,216 352,215 353,216 353,215 352,215 352,215 352,215 352,214 351,214 351,214 351,214 351,214 351,213 351,213 351,213 352,213 352,213 353,213 354,212 355,211 355,210 355,210 355,209 355,209 355,208 355,208 355,207 355,207 354,207 354,207 354,207 355,207 355,206 355,205 355,205 355,205 356,205 356,205 357,204 357,204 356,203 356,203 355,203 355,203 355,202 355,202 355,202 355,202 355,202 356,202 357,201 357,200 358,199 358,199 357,199 357,198 357,198 358,198 359,197 361,197 362,197 362,197 362,197 362,196 362,196 362,196 362,195 362,195 363,194 363,194 364,194 365,194 366,193 366,193 367,192 368,194 369,194 369,194 369,194 369,194 369,193 369,192 369,192 369,191 370,190 370,189 372,189 373,188 374,188 376,188 376,188 377,188 377,188 378,188 380,187 384,187 384,187 385,187 385,189 385,189 388,188 388,187 389,187 389,186 390,186 389,183 390,183 389,182 389,182 389,181 388,181 388,180 389,180 389,180 390,180 391,179 391,179 390,179 389,178 390,178 390,178 390,177 389,177 389,177 390,177 391,177 391,177 392,176 393,176 392,175 392,175 392,174 392,173 392,173 392,173 391,172 391,172 392,171 393,171 393,171 392,171 392,171 392,171 393,171 394,171 393,170 393,170 393,169 393,169 392,168 391,168 391,168 391,167 393,167 395,166 395,166 395,166 395,165 396,164 396,163 396,163 396,163 396,163 396,162 396,162 396,162 396,161 397,160 397,160 397,160 397,160 397,160 396,160 394,160 393,160 392,160 391,160 390,159 390,159 390,159 390,159 390,158 390,157 389,157 389,156 388,156 388,156 388,156 388,156 386,156 386,156 384,156 384,156 383,156 382,156 382,156 381,156 381,156 380,154 380,155 379,155 379,155 378,154 378,154 378,154 379,153 381,153 381,153 381,153 380,153 380,153 379,153 378,153 377,153 376,153 377,153 377,152 377,152 377,152 377,152 376,152 375,152 373,153 371,154 370,153 370,153 369,154 369,154 369,154 367,154 367,155 367,155 367,155 366,155 366,155 365,154 364,153 364,153 364,153 364,153 363,152 364,152 364,151 364,151 364,151 363,151 363,151 363,151 363,151 362,151 362,151 362,151 362,151 362,151 362,151 361,151 363,151 362,149 362,149 362,148 362,148 362,148 361,149 360,149 360,149 359,149 357,149 356,150 355,150 354,150 356,149 356,149 355,148 354,148 353,147 352,146 353,146 353,146 353,145 352,145 351,145 351,145 350,144 350,144 351,144 352,143 352,143 353,143 353,143 354,143 354,142 354,142 354,142 354,141 354,141 354,141 355,141 355,141 356,141 356,141 356,142 356,142 357,142 357,141 358,141 358,141 359,141 359,141 359,141 359,141 360,141 361,141 363,140 363,140 362,140 361,139 361,139 361,139 361,139 360,139 360,138 359,138 358,138 358,138 358,139 358,139 357,139 357,139 357,139 356,139 356,139 355,138 355,139 355,139 354,139 354,139 354,139 354,139 353,139 353,138 353,138 353,138 353,138 352,138 352,139 351,139 351,139 351,139 350,139 350,138 350,138 350,138 350,138 350,138 350,138 349,139 349,139 349,139 349,139 349,139 349,138 348,138 348,138 348,138 348,138 348,138 347,138 347,138 347,138 347,138 347,138 347,138 346,138 346,138 346,138 346,138 346,138 345,138 345,138 345,138 345,138 344,138 344,138 344,137 344,137 344,137 344,137 344,137 344,137 344,137 343,137 343,137 343,137 343,138 343,138 343,138 342,138 342,138 342,138 342,138 342,138 342,138 341,138 341,138 341,138 340,138 340,138 339,139 339,139 340,139 338,140 337,140 336,140 329,143 329,143 329,142 326,140 326,140 326,140 326,140 326,140 326,139 325,139 325,139 325,139 324,138 324,138 324,138 324,137 324,137 324,137 323,137 323,137 323,137 323,137 323,136 323,136 323,136 323,136 323,136 318,138 313,140 310,143 307,146 304,148 301,151 300,152 298,153 297,153 297,153 296,153 295,152 294,152 294,152 293,153 290,153 290,153 285,150 281,154 280,153 279,152 279,152 278,151 277,150 276,149 276,149 276,149 275,148 274,148 273,148 273,148 273,148 272,148 271,148 271,148 271,147 273,146 272,145 271,145 270,144 271,142 268,142 264,143 261,143 256,143 255,143 254,143 253,144 249,145 248,144 245,144 244,144 242,144 241,145 237,145 236,145 236,144 237,144 237,144 237,144 236,143 236,143 235,143 235,143 234,143 234,143 233,142 233,142 232,142 231,142 231,142 230,142 230,141 230,141 228,141 227,140 228,140 232,140 233,140 238,140 239,140 240,140 243,139 244,139 244,139 247,139 247,139 248,135 249,133 244,133 244,131 244,131 242,131 241,130 233,130 224,129 224,127 224,127 223,127 223,126 224,125 224,125 225,122 225,122 225,121 224,121 223,121 221,122 220,122 220,122 219,122 215,122 213,122 213,122 211,122 210,122 209,121 208,121 208,121 207,121 207,121 207,119 206,118 206,117 207,116 207,116 212,117 213,114 211,114 211,112 209,112 208,112 208,113 206,112 206,112 206,111 208,110 207,108 205,108 204,109 202,109 200,109 198,110 197,109 194,108 192,108 191,107 191,107 191,106 192,105 192,105 187,104 187,104 185,105 184,105 183,106 182,106 181,107 180,107 179,108 179,108 178,108 177,109 177,108 176,108 176,102 170,101 168,102 168,102 168,103 168,104 162,103 162,103 160,102 160,102 158,102 157,101 155,101 154,101 154,101 153,100 153,100 152,100 152,100 152,100 152,100 152,100 151,101 151,101 151,101 150,101 150,101 150,101 149,102 149,101 148,102 148,103 148,103 148,103 146,106 147,108 143,107 145,113 142,119 142,119 142,119 142,119 141,122 140,122 140,122 140,122 140,123 139,123 139,123 139,123 138,123 138,124 138,125 138,125 138,125 137,125 136,125 136,125 136,126 136,126 136,126 135,127 135,127 135,127 134,128 133,128 133,128 132,128 131,129 131,129 130,129 130,130 131,130 131,131 131,134 132,135 132,136 132,136 132,136 131,136 131,136 130,136 130,136 130,136 130,137 130,137 130,137 130,137 130,138 130,138 130,138 129,139 129,139 129,139 129,139 127,139 127,139 126,138 125,138 125,139 124,138 124,138 123,138 123,138 123,137 123,137 123,137 122,137 122,136 122,136 122,136 122,136 121,136 121,136 120,137 120,137 119,137 118,138 118,138 116,139 116,139 114,139 114,140 114,141 116,147 113,147 113,147 113,147 113,147 112,147 112,146 112,146 112,146 112,146 111,146 110,146 109,146 109,146 109,145 109,145 108,145 108,145 107,145 107,145 107,145 105,145 105,145 104,145 104,144 104,144 103,144 103,144 103,145 103,145 103,145 102,145 102,145 101,145 101,145 100,145 100,145 99,145 99,145 99,145 99,146 100,146 100,146 99,146 97,146 97,146 95,147 94,146 93,146 93,146 93,146 93,146 93,145 93,145 94,145 94,145 94,145 95,145 95,145 96,145 97,145 97,144 97,144 97,143 97,143 97,144 97,144 96,144 95,144 95,144 95,143 95,143 96,143 96,143 96,142 95,142 95,142 94,142 93,143 91,143 90,143 89,142 88,142 88,142 87,142 87,141 86,141 86,141 86,141 87,141 87,142 88,142 88,142 89,142 90,142 91,142 93,142 94,142 94,142 95,142 96,142 97,141 97,141 98,141 99,141 99,140 100,140 100,140 100,139 100,139 100,139 98,138 97,138 97,138 96,138 95,138 94,138 94,138 94,138 94,138 94,138 93,138 91,139 91,139 91,139 90,139 90,139 89,139 88,139 86,139 86,138 85,138 85,138 85,138 85,138 85,138 85,138 85,139 85,139 86,139 86,140 86,140 86,140 86,141 86,140 86,140 85,140 85,140 85,139 85,139 85,139 85,139 85,138 85,138 84,138 84,138 84,138 84,138 83,139 83,139 82,139 82,139 81,140 82,140 82,140 82,141 82,141 81,141 80,142 79,142 78,142 77,142 76,141 76,141 75,141 75,141 75,141 75,141 74,140 74,140 73,140 73,139 73,139 73,139 72,139 72,139 72,139 72,138 71,138 71,138 71,138 71,138 70,137 70,137 70,136 69,136 69,135 68,135 68,134 68,134 67,133 67,133 67,133 67,133 66,132 66,132 66,132 66,132 65,131 65,131 65,130 64,130 64,129 64,129 64,129 64,128 63,128 63,128 63,127 62,127 62,126 62,125 61,125 61,125 61,125 61,124 60,124 60,123 60,123 60,123 59,123 59,122 59,122 58,122 58,121 58,121 58,121 58,121 57,121 57,121 57,120 57,120 57,120 56,120 56,120 56,120 56,119 55,119 55,119 55,119 55,119 55,119 55,119 54,119 54,119 54,118 54,118 53,118 53,118 53,118 53,117 53,117 52,117 52,116 52,116 51,116 51,115 51,115 50,115 50,114 50,114 49,113 49,112 48,110 48,109 48,109 48,109 47,109 47,108 47,108 47,108 46,108 46,108 46,107 45,107 45,106 45,106 44,105 44,105 44,105 43,105 43,105 42,105 39,104 37,104 37,104 36,104 34,103 33,103 31,103 31,103 31,103 30,103 29,103 29,103 28,103 27,103 26,103 26,103 26,103 23,103 21,103 20,103 18,103 17,103 17,103 17,103 16,103 16,102 16,102 15,102 15,102 15,102 14,102 13,102 11,102 10,102 9,102 9,101 8,101 8,101 8,101 8,101 8,100 7,100 7,100 7,100 6,99 6,99 6,98 5,97 5,97 5,94 4,92 4,92 4,91 4,91 4,91 3,90 3,90 4,90 4,89 3,89 3,88 2,88 2,88 2,88 2,88 2,88 1,88 1,87 1,85 0,82 0,77 0,76 1,75 1,74 1,73 1,73 1,72 1,72 1,72 1,72 1,72 0,69 1,68 1,66 1,65 1,64 1,63 2,61 2,59 2,59 2,58 3,57 3,57 3,56 3,55 3,54 3,54 3,53 4,52 4,51 4,51 4,50 4,49 5,47 5,46 5,45 5,45 5,44 5,43 5,42 6,42 6,41 6,40 6,39 7,38 7,38 7,37 7,37 7,36 7,35 8,34 8,34 8,33 8,32 8,32 8,31 8,30 9,28 9,26 9,24 9,24 10,23 10,21 10,18 10,16 10,15 10,14 11,13 11,12 11,11 12,10 12,10 12,10 12,9 13,9 13,8 13,8 14,8 14,7 14,7 15,7 15,7 15,6 16,6 17,6 17,6 18,5 18,5 19,5 19,5 20,4 20,4 23,4 23,5 24,5 24,5 25,5 26,5 26,5 26,5 27,6 27,6 26,6 26,6 27,6 28,7 28,7 30,7 30,7 31,6 32,6 35,6 35,7 36,7 36,7 37,7 37,6 37,7 37,7 38,7 38,7 39,7 39,8 39,8 39,7 39,7 40,7 40,7 40,7 40,7 42,7 41,7 41,8 42,8 42,8 42,7 42,7 44,7 45,7 45,7 47,7 49,6 49,6 50,6 51,6 52,6 52,6 53,5 54,5 54,6 54,6 54,6 54,6 55,6 55,6 55,6 55,6 55,5 56,5 56,5 57,5 57,5 58,4 58,4 58,4 59,3 59,3 59,3 61,3 62,3 62,4 62,3 63,3 63,3 63,4 63,4 63,5 63,5 63,5 63,4 64,4 64,4 64,5 64,5 64,5 64,5 65,5 65,4 65,5 66,5 66,5 66,4 66,4 66,4 67,4 67,4 68,3 68,3 69,3 69,2 68,2 69,2 69,2 69,3 69,3 69,2 69,2 69,2 69,1 69,1 69,1 70,1 71,1 72,0 73,0 73,1 73,2 73,2 73,0 73,0 73,0 73,0 74,0 74,0 76,0 76,0 77,0 79,0 80,0 80,0 81,1 81,1 81,1 81,2 81,2 81,2 81,2 81,3 81,4 81,4 80,5 80,5 80,5 80,5 79,5 80,5 80,5 81,6 81,6" id="8023" class="canton" fill="steelblue" stroke-width="1" stroke="white" geotype="canton" geoname="Rue" code_insee="8023" code_departement="80" nom_departement="Somme" code_region="32" nom_region="Hauts-de-France"/><polygon points="101,145 102,145 102,145 102,145 102,146 102,146 102,146 102,146 102,146 101,146 101,145" id="8023" class="canton" fill="steelblue" stroke-width="1" stroke="white" geotype="canton" geoname="Rue" code_insee="8023" code_departement="80" nom_departement="Somme" code_region="32" nom_region="Hauts-de-France"/></svg>