<?xml version="1.0" encoding="utf-8"?>
<svg version="1.1" id="svgmap" xmlns="http://www.w3.org/2000/svg" xmlns:xlink="http://www.w3.org/1999/xlink" x="0px" y="0px" width="100%" height="100%" viewBox="0 0 500 190">
<polygon points="6,69 6,69 6,69 7,70 7,71 8,71 8,72 9,72 10,71 10,71 10,71 11,71 16,70 16,70 17,70 18,70 18,70 20,70 22,70 22,70 22,70 22,70 25,71 27,71 27,71 27,71 29,72 30,72 30,72 31,73 32,73 32,73 32,73 32,74 32,74 33,74 33,74 34,74 35,74 36,74 36,74 36,74 37,74 37,74 38,73 38,73 38,73 39,73 39,73 39,73 39,73 40,72 41,71 42,71 43,71 43,71 45,70 45,70 45,70 46,70 46,70 47,70 48,70 48,69 49,69 51,69 51,69 51,69 51,69 52,69 52,69 52,69 53,69 55,70 56,70 56,70 56,70 57,70 57,71 58,71 59,71 59,71 60,71 60,71 61,71 62,71 62,71 62,71 63,71 63,71 64,71 64,71 65,71 65,71 66,71 66,71 67,71 67,72 68,72 68,72 68,72 68,72 69,72 70,73 70,73 70,73 70,73 69,72 69,72 68,71 68,71 68,71 68,71 67,71 67,71 67,71 66,71 66,70 66,70 66,70 66,69 66,69 66,69 66,68 66,68 66,68 66,68 66,68 67,68 74,71 74,71 75,75 75,75 75,75 75,75 75,75 76,73 76,73 76,73 76,73 82,71 82,71 83,71 83,71 83,71 83,71 84,70 84,70 84,70 84,70 84,70 84,70 84,70 84,70 85,70 86,70 86,70 86,70 86,70 88,69 88,69 88,69 89,69 89,69 89,69 89,69 89,69 89,69 90,70 90,71 91,72 91,72 91,72 91,72 91,73 91,73 91,73 91,74 91,74 91,74 92,76 93,76 93,76 93,76 93,76 93,76 93,76 93,76 93,76 93,76 94,76 94,76 94,77 95,77 100,77 104,77 105,78 105,78 105,78 106,78 106,78 106,79 107,79 108,81 108,81 109,81 109,82 109,82 110,82 110,82 110,82 110,83 110,83 110,83 110,83 110,83 110,84 110,84 109,85 109,85 109,85 110,85 110,86 110,86 110,86 110,87 111,87 111,87 111,87 111,87 112,87 112,87 112,87 112,87 112,88 113,88 113,88 113,88 113,88 113,88 113,88 113,88 113,88 114,88 114,88 115,88 115,88 115,88 115,88 115,88 115,88 115,88 115,88 115,88 116,88 116,88 116,88 116,88 117,88 117,88 117,88 117,88 118,88 118,88 118,88 118,88 118,88 118,88 119,88 119,88 119,88 119,88 119,88 119,88 120,88 120,88 120,88 121,87 121,87 121,87 122,87 122,87 122,87 122,87 122,87 122,87 122,87 122,87 122,87 122,87 122,87 123,87 123,87 123,87 123,87 123,87 123,87 124,86 124,86 124,86 124,86 124,86 124,86 125,86 125,86 125,86 125,86 125,87 125,87 125,87 126,87 126,87 126,87 127,87 127,87 127,87 127,87 128,87 128,87 128,87 128,87 128,87 128,87 129,87 129,87 129,87 129,87 129,87 129,87 129,87 129,87 129,87 129,87 129,86 130,86 130,86 130,86 130,86 131,86 131,85 132,85 132,85 132,85 133,85 133,85 133,85 133,85 133,85 133,85 133,85 133,84 133,84 134,84 134,83 134,83 134,83 133,83 132,83 132,83 132,83 131,83 130,82 128,82 128,82 128,81 128,81 128,81 128,81 128,81 128,80 128,80 128,80 128,80 129,80 129,80 129,80 129,79 128,79 128,79 128,79 128,79 128,79 128,79 128,78 128,78 128,78 128,77 128,77 128,77 128,77 128,77 128,77 128,77 128,77 128,77 127,76 127,76 127,76 127,76 127,76 127,76 127,75 127,75 128,75 128,75 128,74 128,74 129,74 129,74 129,74 129,74 129,74 129,74 129,73 130,73 130,73 130,73 130,73 130,73 130,73 131,73 131,73 131,72 131,72 131,72 131,72 132,72 132,72 132,72 132,72 132,72 132,73 132,73 132,73 133,72 133,72 133,72 133,72 133,72 133,72 133,72 133,72 133,72 133,72 134,72 134,72 135,71 135,71 135,71 135,71 136,71 136,71 136,70 136,70 136,70 137,70 137,69 137,69 137,69 137,69 138,69 138,69 138,69 138,69 138,69 138,69 138,69 139,70 140,70 140,70 140,70 140,69 140,69 140,69 140,69 140,69 140,69 140,68 140,68 140,68 140,68 140,68 140,68 140,68 140,67 140,67 140,67 140,67 140,67 140,66 140,66 140,66 140,66 140,66 140,65 140,65 140,65 140,65 141,64 141,64 141,64 141,64 141,63 141,63 141,64 143,64 143,64 143,64 143,64 143,64 143,63 143,63 144,63 144,63 144,63 143,63 143,63 144,63 144,63 144,62 144,62 144,62 144,62 145,62 144,61 144,61 145,61 145,61 145,61 145,61 145,61 145,61 145,61 145,61 145,61 145,61 145,60 145,60 145,60 145,60 145,60 145,60 145,60 145,60 145,60 145,60 145,60 146,61 146,61 146,61 146,61 148,62 148,62 148,62 148,63 148,63 148,63 148,63 148,63 148,63 148,63 148,63 148,63 148,64 149,64 149,64 149,64 149,65 149,65 149,65 149,65 149,66 150,66 150,66 150,66 150,66 150,66 150,66 151,66 151,66 151,66 151,67 151,67 151,67 152,67 152,67 152,67 152,67 152,67 153,68 153,68 153,68 153,68 153,68 154,68 154,68 154,69 154,69 155,69 156,70 157,71 157,71 157,71 157,71 157,71 158,71 158,72 158,72 159,72 159,72 159,72 160,73 160,73 160,73 161,73 161,73 161,73 161,73 161,73 161,73 161,73 161,74 161,74 162,74 162,74 162,75 162,75 162,75 163,75 163,76 163,76 163,76 163,76 163,76 163,76 163,77 163,77 163,77 163,77 163,78 164,78 164,78 164,78 165,78 165,78 167,79 167,79 168,79 168,79 168,79 169,78 169,78 169,78 170,79 170,79 170,79 170,79 171,79 171,79 171,80 171,80 171,80 171,80 172,80 172,80 172,80 172,80 173,80 173,80 173,80 173,81 173,81 173,81 174,81 174,82 174,82 174,82 175,82 175,82 175,82 175,82 175,82 175,82 175,82 174,82 174,81 174,81 174,81 174,81 174,81 174,80 174,80 174,80 174,80 174,80 174,80 174,80 174,80 174,80 174,79 174,79 174,79 174,79 174,79 174,79 174,79 174,79 174,79 174,79 174,78 174,78 174,78 174,78 174,78 174,78 174,78 174,78 175,77 175,77 175,77 175,77 175,77 175,77 175,77 175,77 175,77 175,77 175,77 175,76 175,76 175,76 175,76 175,76 175,76 175,75 176,75 176,75 176,74 176,74 176,74 176,74 176,74 176,74 176,73 177,73 177,72 177,72 177,72 177,72 177,72 177,72 177,72 177,71 177,70 176,70 176,69 176,69 175,68 175,68 175,68 175,68 175,68 175,68 175,68 174,67 174,67 174,67 174,67 174,67 173,65 173,65 172,65 172,65 172,64 172,64 172,64 172,64 172,64 171,63 171,63 171,63 171,63 171,63 171,63 171,62 171,62 171,62 170,62 170,62 170,62 170,61 170,61 170,61 170,61 170,60 170,60 170,60 170,60 169,60 169,59 169,59 169,59 169,59 169,59 169,59 169,58 169,58 169,58 169,58 169,57 169,57 168,57 168,56 168,56 168,56 168,56 168,56 168,56 168,55 168,55 168,55 168,54 168,54 167,54 167,54 167,54 167,54 167,54 167,54 167,53 168,53 168,53 169,52 171,50 171,50 172,49 172,49 172,48 172,48 173,48 173,48 173,47 172,46 172,45 172,45 172,45 172,45 173,45 174,44 174,44 174,44 174,43 175,43 175,43 176,43 176,43 176,43 176,43 177,43 177,43 177,43 178,43 178,43 178,43 178,43 179,43 179,44 179,44 179,44 179,44 180,45 180,46 180,46 181,47 181,48 181,49 181,50 182,50 182,50 182,51 182,51 182,51 183,51 183,52 184,52 184,52 184,52 185,52 185,52 185,52 186,52 186,52 186,52 186,52 187,52 187,52 187,52 188,52 188,52 189,51 190,51 190,51 190,50 191,50 192,50 192,50 192,50 192,50 193,49 193,49 193,49 194,49 194,48 194,48 195,47 195,46 195,46 195,45 196,45 196,45 196,45 196,45 196,44 197,44 197,44 198,44 199,44 199,44 200,44 200,44 201,44 202,44 202,44 202,44 203,44 203,44 204,45 204,45 204,45 205,45 205,45 205,46 206,46 206,46 206,47 207,47 207,47 207,47 208,47 208,47 210,48 211,48 212,48 212,48 213,48 213,48 213,48 214,49 215,49 215,49 216,49 216,49 217,50 217,50 218,50 219,50 219,50 219,50 219,50 220,50 220,50 220,50 220,50 220,50 221,50 221,49 221,49 221,49 221,49 222,48 222,47 222,47 223,47 223,46 223,46 223,46 223,46 224,45 224,45 224,45 224,45 225,45 225,45 225,45 225,44 226,44 226,44 226,44 226,44 226,44 226,44 227,44 227,44 227,44 227,45 227,45 228,45 228,45 229,46 229,46 229,47 229,47 229,47 230,49 230,50 230,50 230,51 230,52 231,53 232,54 232,54 232,54 232,54 232,54 232,54 233,54 233,55 233,55 234,55 235,55 236,55 236,55 237,56 237,56 237,56 237,56 237,56 238,57 238,57 238,57 238,57 238,57 239,57 239,57 239,57 239,57 240,57 240,57 240,57 241,56 242,56 243,55 244,54 245,54 245,54 245,53 246,53 246,53 246,53 246,53 246,52 246,52 246,52 246,51 246,51 247,51 247,51 247,51 247,51 247,51 248,51 248,51 248,50 249,50 249,50 250,49 250,49 250,48 250,48 250,48 250,48 250,48 251,47 251,47 251,47 252,46 252,46 252,46 252,46 252,46 252,46 252,46 251,46 251,46 251,46 251,45 250,45 249,45 249,45 249,45 248,45 247,46 247,46 246,46 246,46 246,45 246,45 246,45 246,45 245,45 245,45 245,44 245,44 245,44 245,43 245,43 245,43 245,43 245,43 244,42 244,42 243,41 243,40 242,40 242,40 241,39 241,38 240,38 239,37 238,37 238,36 238,36 237,36 235,35 235,35 233,35 232,34 232,34 231,34 231,34 231,34 230,34 230,35 230,35 229,35 228,35 228,35 228,35 228,35 228,35 228,35 228,35 228,35 228,35 228,35 228,35 228,34 228,34 228,34 228,33 228,33 228,33 228,33 229,32 229,32 229,32 230,31 230,31 230,31 230,31 230,30 230,30 231,30 231,30 231,29 231,29 232,29 232,29 233,29 233,28 234,28 235,28 236,28 237,27 240,26 241,25 242,25 242,25 243,25 244,25 244,25 245,25 246,25 246,25 249,25 249,25 250,25 252,26 252,26 252,25 252,26 252,26 253,26 253,26 254,27 254,27 256,28 256,28 256,29 256,29 256,29 256,29 256,29 256,30 257,30 257,30 258,30 258,30 259,31 259,31 259,31 260,31 262,31 262,31 262,31 263,32 263,32 263,32 264,32 264,33 265,33 265,33 266,33 267,34 267,34 268,34 268,34 268,35 269,35 269,35 269,36 269,36 269,36 269,36 269,38 269,38 269,38 269,38 269,39 269,39 269,39 270,39 270,40 271,40 271,40 271,40 271,40 272,40 274,41 274,41 274,41 275,41 276,41 276,41 276,41 277,41 277,41 277,41 278,41 279,41 279,41 279,40 279,40 279,40 281,38 282,37 282,37 282,37 282,37 282,37 283,37 283,37 283,37 284,37 284,37 284,37 284,37 284,37 284,38 284,38 284,38 284,38 284,38 284,38 285,38 285,38 286,39 288,39 290,40 290,40 292,41 292,41 292,41 292,41 293,42 294,42 294,42 294,42 294,42 295,42 295,42 295,42 295,43 295,43 296,43 296,43 296,43 296,43 297,43 297,43 297,43 297,44 297,44 298,44 299,45 299,45 299,45 300,45 300,45 300,45 300,45 301,45 301,45 302,44 302,44 303,44 305,43 305,43 306,42 306,42 308,41 308,41 309,41 309,41 309,40 309,40 309,40 309,39 309,39 309,39 309,38 310,38 310,38 309,38 309,37 309,37 309,37 309,37 309,36 309,36 309,36 309,36 309,36 309,36 309,35 309,35 309,35 309,34 309,34 310,34 310,34 310,34 310,33 310,33 310,33 311,33 311,32 311,32 311,32 312,32 312,32 312,31 312,31 313,31 313,31 313,31 313,32 314,32 314,32 314,32 314,32 314,32 314,32 314,32 314,33 315,33 315,33 315,34 315,34 315,34 315,34 315,35 314,35 314,35 313,36 313,36 313,37 313,37 313,37 313,37 313,38 313,38 313,38 313,38 313,38 314,39 314,39 314,39 314,39 315,39 316,39 316,39 318,39 319,38 319,38 319,38 320,38 320,38 321,38 322,37 323,37 324,37 325,37 325,37 327,37 329,37 329,37 331,37 332,37 332,37 334,36 335,35 338,34 339,34 341,34 341,34 342,33 342,33 343,34 343,33 343,33 344,33 345,33 346,33 347,34 349,33 351,33 353,32 355,32 356,31 357,31 357,29 357,28 357,27 357,27 356,26 355,25 354,25 353,25 353,24 353,22 354,21 354,21 356,20 356,20 357,20 359,20 360,20 361,20 362,21 364,21 365,21 366,21 367,20 369,19 370,19 371,18 372,18 373,18 374,18 374,18 375,18 376,18 377,18 378,18 378,18 379,17 380,17 381,17 382,17 382,17 383,17 383,17 383,17 383,17 384,17 384,17 385,17 385,16 385,16 385,15 384,14 384,14 384,13 383,12 383,11 381,10 380,9 379,8 379,7 378,7 378,7 377,6 377,6 377,5 377,5 376,4 376,4 376,3 376,3 376,3 376,2 376,2 377,1 378,1 380,1 380,1 381,0 382,0 384,0 385,1 385,1 386,1 387,1 387,1 388,1 389,1 390,0 390,0 391,0 392,0 392,0 392,0 393,1 393,1 394,1 394,2 393,2 393,3 393,3 393,4 393,5 394,6 394,6 396,6 396,7 398,7 398,7 399,8 399,8 400,8 401,9 401,9 402,10 403,10 404,10 404,10 405,9 405,9 406,9 406,8 406,8 406,7 406,7 407,6 408,6 408,5 408,5 410,4 411,4 412,4 413,4 414,3 414,3 414,3 415,2 415,2 415,2 415,2 415,1 416,1 416,1 417,1 418,1 418,1 419,1 419,2 419,2 419,3 418,3 418,4 417,4 417,4 416,5 416,5 416,5 417,6 417,6 418,6 418,6 419,7 420,7 421,7 421,8 421,8 420,9 420,9 420,10 419,11 418,12 418,13 417,13 416,14 416,14 417,15 417,15 418,15 419,15 419,15 419,14 419,14 420,14 420,13 420,13 420,13 420,12 420,12 421,12 422,11 423,11 424,11 424,11 425,10 426,10 426,10 427,9 428,9 429,9 429,8 430,8 430,7 430,7 430,7 430,7 430,7 431,7 431,7 431,7 431,7 431,7 431,7 432,7 432,7 432,6 433,6 433,6 433,6 434,6 434,5 434,5 435,5 435,5 435,5 435,5 435,5 436,5 436,5 436,5 436,5 437,5 437,5 437,5 438,5 438,5 438,5 439,5 440,6 441,6 441,7 442,7 442,7 443,7 444,7 444,7 444,7 445,7 445,7 447,8 447,8 446,8 446,8 445,9 445,9 445,9 444,10 444,10 443,11 443,11 443,12 442,12 442,12 442,12 442,13 443,14 443,15 443,17 442,18 441,20 440,21 441,24 441,24 442,25 442,25 442,25 443,25 443,25 443,25 443,25 443,25 443,25 443,26 443,26 443,26 443,26 443,26 442,26 442,26 442,26 442,26 442,26 442,26 442,26 442,27 442,27 442,27 442,27 442,27 443,27 443,27 443,28 443,28 443,28 443,28 443,29 443,29 443,29 443,29 443,29 443,29 443,30 443,30 444,30 444,30 444,30 444,30 444,31 445,31 445,31 445,31 446,31 447,32 447,32 447,32 447,32 450,32 451,31 452,32 452,32 452,32 452,33 452,33 451,34 449,36 449,36 449,36 448,36 448,38 449,38 450,39 450,39 451,41 451,41 451,41 451,42 451,42 450,43 450,43 450,43 450,43 450,43 449,43 449,44 449,44 449,44 449,44 448,44 448,44 448,44 448,45 448,45 448,45 447,45 447,46 447,46 446,46 446,47 446,47 446,47 446,47 446,47 446,47 445,48 445,48 445,48 446,48 446,48 446,48 445,48 445,48 445,48 445,49 445,49 445,49 445,49 445,49 445,49 444,49 444,49 444,50 444,50 444,50 444,50 443,50 443,50 443,50 443,50 443,51 443,51 443,52 443,52 443,52 442,52 442,52 442,53 442,53 442,53 442,53 442,54 442,54 442,54 442,54 442,54 442,54 442,54 442,54 442,54 442,54 442,55 442,55 442,55 442,55 442,55 442,55 442,55 442,55 442,55 443,55 443,56 443,56 443,56 443,56 443,56 443,56 444,56 444,57 444,57 444,57 444,57 444,58 444,58 443,60 444,61 444,61 444,61 445,61 445,61 446,61 447,61 447,62 449,62 449,62 451,63 452,63 452,63 453,63 454,63 456,63 459,63 459,63 460,63 461,63 461,63 463,62 463,62 464,62 464,62 464,64 465,65 465,66 467,66 467,66 467,66 467,66 467,67 467,67 467,67 468,67 468,67 468,67 468,67 468,67 468,67 468,67 468,67 468,67 468,68 468,68 468,68 468,68 468,68 468,68 468,68 468,68 468,68 468,68 468,68 468,69 468,69 468,69 468,69 469,69 469,69 469,69 469,70 470,70 471,70 471,70 471,70 471,70 471,70 471,70 471,71 471,71 470,71 470,72 470,72 470,72 470,72 470,72 470,72 470,72 470,72 470,72 470,72 470,72 470,73 470,73 470,73 470,73 470,73 470,74 470,74 470,74 470,74 470,74 470,74 470,74 470,74 470,74 470,74 470,74 470,75 469,75 469,75 469,75 469,75 469,75 469,75 469,75 469,75 469,75 469,75 469,75 469,75 469,75 469,76 469,76 469,76 469,76 469,76 469,76 469,76 469,77 469,77 469,77 469,77 469,77 469,77 469,77 468,77 468,77 468,78 468,78 468,78 468,78 468,78 468,78 468,78 468,78 468,78 467,78 467,78 467,78 467,78 467,78 467,78 467,78 467,78 467,78 467,78 467,78 467,78 467,78 466,78 466,78 466,78 466,78 466,78 466,78 466,78 466,78 466,78 466,78 466,78 466,78 466,78 466,78 466,78 466,78 466,78 466,78 466,78 466,78 466,78 465,78 465,78 465,78 465,78 464,78 464,78 464,78 464,78 463,78 463,78 463,78 463,78 462,78 462,78 462,77 461,77 461,77 461,77 461,77 461,77 461,77 461,77 461,77 461,77 461,77 461,77 461,77 461,77 460,77 460,77 460,77 460,77 459,76 459,76 459,76 458,76 458,76 458,76 458,76 458,76 458,76 458,75 457,75 457,75 457,75 457,75 457,75 457,76 457,76 457,75 457,75 457,75 456,75 456,75 456,74 456,74 456,74 456,74 456,74 456,74 456,74 455,74 455,74 455,74 455,73 456,73 456,72 457,72 457,71 456,71 455,71 454,71 453,70 452,70 452,70 452,70 452,71 452,71 452,71 452,71 452,71 452,71 452,71 452,71 451,71 451,71 451,71 451,71 451,71 451,71 451,72 451,72 451,72 451,72 451,72 451,72 451,72 451,72 451,72 451,72 451,72 451,73 451,73 450,73 450,73 450,73 450,74 451,74 451,74 451,74 451,74 451,74 451,74 451,74 451,74 451,74 451,74 451,74 451,75 451,75 451,75 451,75 451,75 451,75 451,75 451,75 451,75 451,75 451,75 451,75 451,75 451,75 451,75 451,75 451,75 451,75 451,76 451,76 451,76 451,76 451,76 451,76 451,76 451,76 452,76 452,76 452,76 452,76 452,76 453,76 453,76 453,76 453,76 453,76 453,76 454,76 454,75 454,75 454,75 454,75 454,75 454,75 454,75 455,75 455,75 455,76 455,76 455,76 455,76 455,76 455,76 455,76 455,76 455,76 455,77 456,77 456,77 456,77 456,77 456,77 456,77 457,76 457,76 457,76 457,76 457,77 455,79 455,79 454,80 452,80 452,80 452,81 452,81 453,81 452,81 453,81 453,81 453,81 453,81 453,81 453,81 452,82 452,82 452,82 452,82 452,82 452,82 452,82 452,82 452,83 452,83 452,83 452,83 452,83 452,83 452,83 452,83 452,83 452,84 452,84 453,84 453,84 453,84 453,84 453,84 453,84 454,84 454,84 454,84 454,84 454,84 454,85 454,85 454,85 454,85 454,85 454,85 454,85 454,85 454,85 454,85 453,85 453,85 453,85 453,85 453,85 452,85 452,85 452,85 452,85 452,85 452,85 452,85 451,85 451,85 451,86 451,86 451,86 451,86 451,86 451,86 451,86 451,86 451,86 452,86 452,86 452,86 452,86 452,86 452,86 452,86 452,87 452,87 452,87 452,87 452,87 453,87 453,87 453,87 453,87 454,87 454,87 454,87 455,87 455,87 455,87 455,87 455,87 456,87 456,87 456,87 456,87 457,87 457,87 458,87 458,87 458,87 458,87 459,87 459,87 460,87 460,87 460,87 460,87 460,87 460,87 460,87 461,87 461,88 461,88 461,88 462,88 462,88 463,89 463,89 464,89 462,89 463,90 463,91 463,91 462,92 461,92 460,94 460,94 460,94 460,95 460,95 459,95 459,95 459,95 459,96 459,96 459,96 459,97 459,97 459,97 459,97 459,97 459,97 459,98 459,98 459,98 459,98 459,98 459,98 459,99 459,99 459,99 459,99 459,99 459,99 459,99 459,99 459,99 459,99 459,99 459,99 459,99 459,100 459,100 459,100 459,100 459,100 459,100 459,100 459,100 459,100 459,100 459,100 458,100 458,100 458,100 457,100 457,100 457,100 457,100 457,100 457,100 457,101 457,101 457,101 457,101 457,101 457,101 458,101 458,101 458,101 458,101 458,101 458,101 458,101 458,101 458,101 458,101 459,101 459,101 459,102 459,102 459,102 459,102 459,102 459,102 460,102 460,102 460,102 460,102 460,102 460,102 461,102 461,102 461,102 462,102 462,102 463,102 463,102 463,102 463,102 463,102 463,102 463,102 464,102 464,102 464,102 464,102 464,102 464,102 464,102 464,102 464,102 464,102 464,102 464,102 465,102 465,102 465,102 465,102 465,102 465,102 466,102 466,102 465,102 465,102 465,102 465,102 465,102 465,102 465,102 466,102 466,102 466,102 466,102 466,103 467,103 467,103 467,103 467,103 468,103 468,103 468,103 468,103 468,103 468,103 468,103 468,103 468,103 469,103 469,103 469,103 469,103 469,103 469,103 469,103 469,103 469,103 469,103 469,103 469,103 469,103 469,103 469,103 470,103 470,103 470,103 470,103 470,103 470,103 470,103 470,103 470,103 471,103 471,103 471,103 472,103 472,103 472,103 472,103 472,103 472,102 472,102 472,102 472,102 472,103 473,103 473,103 473,103 473,103 473,103 473,103 473,103 473,103 473,103 473,103 474,103 474,104 474,104 474,104 474,104 474,104 475,104 475,104 475,104 475,104 475,103 475,103 475,103 475,103 475,103 475,103 475,103 475,103 475,103 475,103 475,103 475,103 476,103 476,103 476,103 476,103 476,103 476,103 476,103 476,103 476,103 476,103 477,103 477,103 478,103 478,103 478,103 478,103 478,103 478,103 478,103 478,103 478,103 478,103 479,103 481,107 481,107 480,107 480,107 480,108 480,108 480,108 480,108 480,109 480,109 480,109 480,109 480,109 478,109 477,108 477,108 477,108 476,108 475,108 474,108 472,108 471,108 470,108 469,108 469,108 467,108 467,110 467,110 467,110 467,110 467,111 467,110 466,111 466,111 466,111 465,111 464,111 464,111 464,111 464,111 464,111 464,111 464,111 463,112 463,112 463,112 462,112 462,112 462,112 462,112 462,113 462,113 462,113 462,113 462,113 462,113 461,113 461,113 461,114 461,114 461,114 461,114 461,114 461,114 461,114 461,114 461,114 461,114 461,114 461,114 461,115 461,115 461,115 461,115 461,115 461,115 462,115 462,115 462,116 463,116 463,116 464,117 465,117 467,118 468,119 468,119 468,119 467,119 467,120 467,120 466,120 466,120 466,120 465,121 465,121 466,121 466,121 466,121 465,122 465,122 464,122 464,122 464,122 464,122 464,122 464,122 464,123 464,123 463,123 463,123 463,123 463,123 463,123 463,123 463,123 463,123 463,123 463,124 463,124 463,124 463,124 463,124 463,124 463,124 463,124 463,124 462,124 462,125 462,125 464,125 463,125 463,126 463,126 463,127 463,127 462,127 462,128 462,128 461,128 461,129 461,129 461,129 461,130 461,130 461,130 461,131 461,131 461,132 461,132 462,132 462,132 463,132 464,132 465,132 466,132 466,132 466,132 467,132 469,132 469,132 469,132 469,133 471,134 474,137 474,138 475,138 475,138 475,139 476,139 476,139 476,139 476,140 476,140 476,140 476,140 476,139 476,139 477,139 477,139 477,138 477,138 477,137 477,137 477,137 477,136 477,136 477,136 477,136 477,136 477,135 477,135 477,135 477,134 477,134 477,133 477,133 477,132 477,131 477,131 477,130 477,130 477,130 477,130 478,129 479,129 479,129 479,129 479,129 480,130 481,130 482,131 482,131 482,131 483,131 485,132 487,133 487,132 488,132 488,132 490,132 490,133 491,133 491,133 492,134 492,134 492,134 493,134 493,135 493,135 494,135 495,136 495,136 495,136 495,136 495,137 495,137 495,137 495,137 495,137 495,138 496,138 496,139 496,139 496,139 496,140 496,140 496,140 496,140 496,140 496,140 496,141 497,141 497,141 497,141 497,141 497,141 497,141 497,141 497,142 498,142 498,143 499,143 499,143 499,144 499,144 499,144 499,145 500,145 500,145 500,145 500,145 500,146 500,146 500,146 500,146 500,147 500,147 500,147 500,147 500,148 500,148 499,148 498,148 498,148 498,148 497,149 497,149 497,149 497,150 497,151 497,151 497,151 497,151 497,151 496,151 495,151 495,151 495,151 495,151 494,151 494,151 494,151 494,151 494,151 493,151 493,151 493,151 493,151 493,151 493,151 492,151 492,151 492,151 492,151 491,151 490,151 490,151 489,151 488,152 487,152 487,151 487,151 486,151 486,152 486,152 486,152 486,152 486,152 486,152 485,152 485,152 485,152 484,152 484,152 484,152 484,152 484,152 484,152 483,152 483,152 483,152 483,152 483,152 483,153 483,153 483,153 484,153 484,154 483,154 483,155 483,155 483,156 483,156 482,156 482,156 481,157 481,157 481,157 480,157 480,157 480,157 480,158 480,158 480,158 480,159 479,159 477,161 476,160 476,160 475,160 475,159 475,159 474,159 474,159 474,159 474,159 473,159 473,159 473,159 472,159 472,159 472,159 472,159 472,159 472,159 472,159 472,159 471,159 471,159 471,159 471,159 471,159 471,159 470,159 469,160 468,160 468,160 468,160 468,160 467,161 467,161 466,161 465,161 465,161 464,161 463,161 463,161 462,161 462,161 461,162 461,162 460,163 460,163 460,163 460,163 458,164 458,164 457,164 457,165 456,164 455,164 455,164 453,164 452,164 452,164 451,164 451,164 451,164 451,164 451,164 451,164 452,165 452,165 452,165 452,165 452,165 453,166 453,166 454,166 454,166 454,166 455,167 455,167 456,167 456,167 456,168 456,168 457,168 458,168 459,169 460,169 460,169 461,169 462,170 462,170 460,170 460,171 458,171 458,171 458,172 458,172 458,173 458,173 457,173 457,174 457,174 457,174 457,175 457,175 457,176 456,176 456,176 455,176 455,176 454,176 454,177 453,177 453,177 452,177 451,177 449,178 448,178 448,178 447,178 447,178 447,178 447,178 447,178 446,179 446,179 445,179 444,179 444,179 444,179 444,179 443,179 442,180 441,180 440,180 440,180 439,180 439,180 439,180 438,179 437,179 437,179 436,178 436,178 435,178 435,177 434,177 434,177 434,176 433,176 432,175 431,175 431,174 430,174 430,175 430,175 428,175 427,174 427,174 426,174 425,173 425,173 425,173 424,172 425,171 424,170 423,169 423,169 422,169 421,168 421,168 420,167 420,167 420,167 420,166 419,165 419,165 419,165 419,165 418,164 417,163 417,163 417,163 417,163 416,162 415,162 414,161 414,161 413,160 413,160 413,160 412,160 411,160 410,160 409,160 408,160 408,160 408,160 408,160 407,159 407,159 406,159 406,158 405,158 403,157 403,156 403,156 402,156 402,156 402,156 400,156 400,156 400,157 400,158 400,159 400,160 400,160 399,161 399,161 399,162 399,162 399,162 398,163 397,164 396,164 396,164 396,164 395,163 395,162 393,161 393,160 393,160 392,159 392,159 392,159 392,158 392,158 392,158 392,158 392,158 392,158 392,158 391,158 391,158 391,158 391,158 390,158 390,158 390,158 389,158 389,158 388,158 388,158 388,158 387,158 387,158 387,158 386,158 384,158 384,158 384,158 383,158 383,158 383,159 383,159 383,159 382,159 382,159 382,159 382,159 381,159 380,159 379,158 379,158 379,158 379,158 379,157 379,157 378,156 378,156 378,156 378,155 377,156 376,155 374,155 374,155 374,155 374,155 373,155 373,154 373,154 372,154 372,154 372,154 372,154 371,154 372,154 371,153 371,153 371,153 370,153 370,153 370,152 370,152 370,152 370,152 370,152 370,152 370,152 369,152 369,152 369,152 369,152 369,152 369,152 369,152 369,152 369,152 369,152 369,152 369,152 369,152 368,151 368,151 368,151 368,151 368,151 368,151 368,151 368,151 368,151 368,151 368,150 367,150 367,150 367,150 367,150 367,150 367,150 367,150 367,150 367,150 367,150 367,150 367,150 367,150 367,150 367,150 367,149 366,149 366,149 366,149 366,149 366,148 366,148 365,148 365,148 365,148 364,148 364,148 364,148 364,147 364,147 364,147 364,147 364,147 364,147 363,146 363,146 363,146 363,146 362,146 362,146 362,146 362,146 362,145 362,145 362,145 362,145 361,144 361,144 361,144 361,144 360,144 360,143 359,143 359,143 358,142 358,142 357,141 357,141 356,141 356,140 356,140 356,140 356,140 356,140 355,139 355,139 355,139 355,139 355,138 355,138 355,138 354,138 354,137 353,136 352,136 351,136 351,136 350,137 350,137 350,137 349,138 348,139 348,139 348,139 348,139 347,139 347,140 347,140 347,140 346,140 345,140 345,140 345,140 344,140 344,140 343,141 342,141 342,141 342,141 342,141 341,141 341,141 340,142 340,142 340,142 339,143 337,144 337,144 337,144 336,145 336,145 336,145 336,145 336,145 336,145 336,146 336,146 336,146 336,146 336,147 336,148 336,148 336,148 336,149 336,149 336,149 335,150 335,151 334,152 334,152 334,152 334,153 334,153 334,154 335,155 335,156 335,156 335,157 335,157 336,158 336,158 336,159 337,160 337,160 337,161 338,161 339,162 339,163 339,163 339,163 339,163 337,163 337,163 337,163 337,163 336,163 336,165 335,164 335,166 335,166 334,166 333,167 333,168 332,168 332,169 331,169 331,169 331,169 331,170 331,170 331,170 330,171 330,171 330,171 330,171 330,171 330,172 330,172 330,172 330,173 331,174 330,174 331,174 330,175 332,176 332,176 334,178 333,179 335,179 336,180 336,180 336,180 337,181 337,181 337,182 337,182 337,183 337,183 337,184 337,184 337,184 337,185 337,185 337,185 337,185 337,186 337,186 337,187 337,188 337,188 337,188 337,189 336,189 336,190 336,190 336,190 336,189 335,189 335,189 335,188 334,188 334,188 334,188 334,187 334,187 334,186 333,186 333,186 333,185 332,185 331,186 331,186 330,186 330,186 330,186 330,186 330,186 329,186 329,186 329,186 326,187 325,187 325,187 324,187 323,187 322,187 322,187 321,187 320,186 320,186 320,186 320,185 320,185 319,185 319,185 318,185 318,185 316,185 316,185 315,186 315,186 314,186 311,186 311,186 306,185 306,185 305,184 306,184 306,184 306,184 306,183 306,183 306,182 306,182 306,182 307,181 307,180 305,180 304,179 304,179 304,179 304,178 304,178 304,178 303,178 303,178 303,177 303,177 303,177 302,177 302,177 302,177 302,177 301,176 301,175 300,175 300,175 300,175 299,175 299,174 299,174 300,174 300,174 299,174 298,173 297,172 297,172 297,172 298,172 298,171 297,171 297,171 298,171 298,171 298,171 298,171 298,171 298,170 298,170 298,169 298,169 297,169 297,169 296,168 296,169 296,169 295,168 294,168 294,168 293,168 293,167 293,167 293,167 293,168 293,168 293,169 293,169 291,169 291,169 290,170 290,170 290,169 289,169 287,168 287,168 286,169 285,170 285,170 284,171 284,171 284,172 284,172 284,172 284,172 284,173 284,174 283,174 284,174 283,174 283,174 283,175 283,175 284,175 284,176 284,177 284,177 284,177 284,177 283,177 283,177 282,177 282,177 282,177 282,177 281,177 281,177 281,177 280,177 280,177 279,177 279,177 279,177 279,177 278,177 278,177 278,177 277,177 277,177 276,177 276,177 276,177 275,176 275,176 275,176 275,177 275,177 275,177 275,177 275,177 274,177 274,177 274,177 274,177 273,177 273,178 273,178 273,178 272,178 272,179 272,179 272,179 272,179 272,179 272,179 271,179 270,179 270,179 270,179 270,179 270,179 270,179 269,179 269,178 269,178 268,178 268,178 267,178 267,178 266,178 266,178 266,178 266,178 266,178 265,178 265,178 265,178 265,178 265,178 265,178 264,178 264,177 264,177 264,177 264,177 264,177 264,177 264,177 264,177 264,176 263,176 263,176 264,176 264,176 264,176 264,176 264,176 264,175 264,175 264,175 264,175 264,175 264,174 264,174 264,174 264,174 264,174 263,173 263,173 263,173 263,173 263,173 263,172 263,172 263,172 262,172 262,172 262,172 261,171 261,171 261,171 261,171 262,169 262,169 262,168 262,168 262,168 261,167 261,166 261,166 261,166 261,166 261,165 262,165 262,165 260,164 259,164 259,164 258,164 258,164 257,163 255,162 255,162 251,161 251,161 248,160 247,160 246,159 245,159 244,158 244,158 243,158 242,158 242,158 242,158 241,157 244,155 243,154 241,153 242,153 241,151 241,151 239,152 238,151 238,151 237,152 237,152 237,152 236,152 236,152 235,153 234,153 233,153 232,154 231,155 231,155 230,155 230,156 230,156 229,156 229,156 228,155 228,155 227,155 226,154 224,154 223,153 223,153 222,153 222,152 222,152 222,152 221,152 220,152 220,152 220,152 220,152 219,152 219,152 219,152 219,152 219,152 219,151 219,151 219,151 219,151 219,151 218,150 217,150 217,150 217,150 217,150 217,149 215,149 215,149 215,149 215,148 215,148 215,148 214,148 214,147 214,147 214,147 214,147 214,146 213,146 213,146 211,146 211,146 211,146 211,146 208,145 208,145 208,145 208,145 208,145 207,145 207,145 207,146 206,146 206,146 206,146 206,146 206,147 206,147 206,147 206,147 205,147 205,148 205,148 204,148 204,148 204,149 204,149 203,149 203,149 203,149 203,150 202,150 202,150 202,150 202,150 202,150 202,150 201,149 200,149 200,149 200,149 199,148 199,148 199,148 199,148 198,148 198,148 198,148 198,148 198,148 197,148 197,148 196,147 196,147 196,148 196,148 196,148 196,148 196,148 195,148 195,148 195,148 195,148 195,148 195,148 195,148 194,149 194,149 194,149 194,149 194,149 194,149 194,148 194,148 194,148 194,148 194,148 194,148 194,148 193,148 193,148 193,148 192,148 192,148 192,147 192,147 192,147 192,147 192,147 191,147 191,147 191,147 191,147 191,147 191,147 191,147 191,146 191,146 191,146 191,146 191,146 190,146 190,146 190,146 190,146 190,146 190,146 189,145 189,145 189,145 188,145 188,145 188,145 188,145 188,144 188,144 188,144 188,144 188,144 187,143 187,143 186,143 186,143 186,143 186,143 186,143 186,143 186,143 185,142 185,142 185,142 184,141 184,141 184,141 184,141 183,141 183,141 183,141 183,141 183,141 183,140 182,140 182,140 182,140 182,140 182,140 182,140 182,140 181,140 181,140 182,140 181,140 181,140 181,140 181,139 181,139 181,139 181,139 180,139 180,139 180,139 180,139 180,138 180,138 180,138 180,138 180,138 180,138 180,137 180,137 179,137 179,137 179,137 178,137 178,137 178,137 177,137 177,137 177,137 176,137 176,137 176,137 176,137 176,137 176,137 174,137 174,137 174,137 174,137 174,137 174,137 173,137 173,137 173,137 173,137 173,137 172,137 172,137 172,137 172,137 172,138 171,138 171,138 170,138 170,138 170,137 169,137 169,137 169,137 168,137 166,137 166,137 166,137 165,137 165,136 165,136 165,136 165,136 165,136 164,135 164,135 163,135 163,135 161,135 158,135 155,135 155,136 155,136 155,136 155,136 155,136 155,137 155,137 155,137 155,137 155,137 155,137 155,137 155,137 155,138 155,138 155,138 155,138 155,138 155,138 155,138 154,137 154,137 154,138 154,138 154,138 154,138 154,138 154,138 154,138 154,138 154,138 154,138 153,138 153,138 153,138 153,138 153,138 153,138 153,138 153,138 152,138 152,138 152,138 152,138 152,138 152,138 152,138 152,138 152,138 152,138 152,138 152,138 151,138 151,138 151,138 151,138 151,137 151,137 150,137 150,138 150,138 150,137 149,137 149,137 149,137 149,137 149,137 149,137 149,137 149,137 149,137 149,137 149,137 149,137 149,137 149,137 148,137 148,137 148,137 148,137 148,137 148,137 148,137 147,137 147,137 147,136 147,136 147,136 147,136 146,136 146,136 146,136 146,136 146,136 146,136 146,136 146,136 146,136 146,136 146,136 146,136 145,136 145,136 145,136 145,136 145,136 145,136 145,136 145,136 145,136 145,136 145,135 145,135 145,135 145,135 145,135 145,135 145,135 145,135 144,135 144,135 144,135 144,135 144,135 144,135 144,135 144,135 144,135 144,135 144,134 144,134 143,134 143,134 143,134 143,134 143,134 143,134 143,134 143,134 143,134 143,134 143,134 143,134 142,134 142,134 142,134 142,134 142,134 142,134 142,134 142,134 142,134 141,134 141,134 141,134 141,134 141,134 141,134 141,134 141,134 141,134 141,134 140,134 140,134 140,134 140,134 140,134 140,134 140,134 140,134 140,134 140,134 140,134 140,134 139,134 139,134 139,134 139,134 139,134 139,134 139,134 139,134 139,134 139,134 138,134 138,134 138,134 138,134 138,134 138,134 138,134 138,134 138,134 138,134 138,134 138,134 138,134 138,134 138,134 137,134 137,134 137,134 137,134 137,134 137,134 137,134 137,134 137,134 137,134 137,134 137,134 137,134 136,134 136,134 136,134 136,134 136,134 136,134 136,134 136,134 136,134 136,134 136,134 136,134 136,134 136,134 136,134 136,134 135,134 135,134 135,134 135,134 135,134 135,134 135,134 135,134 135,134 135,134 135,134 135,134 135,134 134,134 134,134 134,134 134,134 134,134 134,134 134,134 134,134 134,134 133,134 133,134 133,134 133,134 132,134 132,134 132,134 132,134 132,134 132,134 132,134 132,134 132,134 132,134 131,134 131,134 131,134 131,134 131,134 131,134 131,134 131,134 131,134 131,134 130,134 130,134 130,134 130,134 130,133 130,133 130,134 130,134 130,134 130,133 130,133 130,133 129,133 129,133 129,133 129,133 129,133 129,133 129,133 129,133 129,133 129,133 129,133 128,133 128,133 128,133 128,134 128,133 128,134 128,134 127,134 127,134 127,134 127,134 127,134 127,134 127,134 127,134 127,134 127,134 126,134 126,134 126,134 126,134 126,134 126,134 126,134 125,135 125,134 126,134 125,134 125,133 125,133 125,133 125,133 124,132 124,132 124,132 124,132 123,131 123,131 122,131 122,131 122,131 122,131 121,131 121,131 121,130 121,129 121,129 120,129 120,129 119,129 119,129 118,129 118,129 118,129 117,128 117,128 117,128 116,128 115,127 115,127 113,127 112,127 112,127 110,127 110,127 110,127 110,127 109,128 109,128 109,128 109,128 108,129 107,129 107,129 106,129 105,128 105,128 104,128 103,128 103,128 102,128 102,128 101,128 101,128 101,128 100,128 100,128 100,128 99,128 99,128 98,129 98,129 98,130 97,130 97,130 97,130 96,130 95,130 94,130 94,130 94,130 93,130 92,130 92,130 91,130 91,130 90,130 90,130 89,130 89,130 88,129 87,129 86,128 86,128 85,128 84,128 84,128 84,128 83,128 83,128 82,128 82,129 81,129 81,129 80,129 79,129 79,130 78,130 78,130 77,130 77,130 76,131 75,131 75,132 74,132 74,132 74,132 74,133 73,133 73,133 73,134 72,134 72,134 72,135 72,135 71,135 71,136 70,137 70,137 70,138 69,138 69,138 69,139 68,139 68,139 67,140 66,140 66,140 66,140 66,140 66,140 66,140 66,141 65,141 65,141 65,142 64,141 64,141 64,140 63,140 63,140 63,140 61,139 60,138 60,138 59,138 59,138 59,138 59,137 59,137 58,137 58,137 58,137 58,137 58,136 55,136 54,136 52,136 52,136 50,137 49,137 48,138 48,136 47,136 47,135 45,133 45,133 44,131 44,131 43,130 43,130 43,130 43,129 42,127 42,127 42,127 42,127 42,127 42,126 42,126 41,126 41,126 41,125 41,124 41,124 41,124 41,124 41,124 41,124 41,124 41,123 40,123 40,123 39,122 39,122 39,122 38,122 38,121 38,121 38,121 38,121 38,121 37,121 37,121 37,120 37,120 37,120 36,120 36,120 36,120 35,121 35,121 34,121 34,121 33,121 32,121 32,121 32,121 31,121 31,120 31,120 30,120 30,120 29,120 29,119 28,119 28,119 28,119 27,119 27,118 26,118 26,118 25,118 24,117 24,117 24,117 23,117 23,117 22,117 22,117 22,117 22,117 21,117 21,117 21,117 21,117 20,117 20,117 20,117 20,117 20,118 20,118 20,119 19,119 19,120 19,120 19,120 19,120 19,121 19,121 19,122 19,123 19,123 19,123 19,123 19,123 19,123 18,123 18,123 18,123 18,123 18,123 18,123 17,123 17,123 17,123 17,123 17,123 16,123 16,123 17,122 17,122 17,122 17,122 17,122 17,122 17,121 16,121 16,121 16,121 16,121 16,120 16,120 16,120 15,120 15,120 15,120 14,119 13,119 13,119 13,118 12,118 12,118 12,118 12,118 12,118 12,117 11,117 11,117 11,117 11,117 11,116 11,116 10,116 10,116 10,116 10,116 11,115 11,115 11,115 11,114 11,114 11,114 11,114 12,113 12,113 12,113 12,113 12,113 10,113 10,113 8,112 8,112 8,112 8,112 8,112 8,112 8,112 8,112 8,112 8,112 9,112 9,111 9,111 9,111 9,111 9,111 9,111 9,111 9,110 9,110 9,110 9,110 9,110 9,110 9,110 10,110 10,110 10,109 10,109 10,109 10,109 10,109 11,109 11,109 11,109 11,109 11,109 11,109 11,109 12,109 12,108 12,108 13,108 13,107 13,107 13,107 13,107 13,107 13,107 13,107 13,107 13,107 13,107 13,107 13,107 13,106 13,106 12,106 12,106 12,106 12,106 12,106 12,106 12,106 12,106 12,105 12,105 12,105 12,105 12,105 12,105 12,105 12,105 12,105 12,105 12,105 12,105 12,105 13,105 13,105 13,105 13,104 14,104 14,104 14,104 14,104 14,104 14,104 14,103 14,103 14,103 14,103 14,103 14,102 14,102 14,102 14,102 14,102 14,102 14,102 14,102 15,102 15,102 15,102 15,102 15,102 15,102 15,102 16,102 16,102 16,101 16,101 16,101 16,101 15,101 15,101 15,101 15,100 15,100 15,100 15,100 15,100 15,99 15,99 16,99 16,99 16,99 16,99 16,99 16,98 16,98 16,98 16,98 16,98 16,98 16,98 16,97 16,97 16,97 16,97 16,97 16,97 16,97 16,97 16,96 16,96 16,96 16,96 16,96 16,96 16,96 16,95 16,95 16,95 16,95 16,95 16,95 16,95 16,95 16,95 16,95 16,95 15,95 15,95 15,95 15,95 15,95 15,95 15,95 15,95 15,95 14,95 14,95 14,95 14,95 14,95 14,95 14,95 13,95 12,94 12,94 12,94 11,94 9,94 9,93 9,93 8,93 7,93 7,92 6,92 5,91 5,91 4,91 3,90 3,90 3,90 2,90 1,89 0,89 1,88 1,88 1,88 1,87 1,87 1,87 1,87 2,85 2,85 2,84 2,84 2,84 2,84 2,83 2,83 2,83 2,83 1,82 1,82 1,82 1,81 0,81 0,80 0,79 0,79 0,78 0,78 0,78 0,77 1,76 1,76 2,74 2,74 2,74 2,73 3,73 4,71 4,71 4,71 4,71 4,70 4,70 6,69" id="8106" class="canton" fill="steelblue" stroke-width="1" stroke="white" geotype="canton" geoname="Carmaux-2 Vallée du Cérou" code_insee="8106" code_departement="81" nom_departement="Tarn" code_region="76" nom_region="Occitanie"/></svg>