<?xml version="1.0" encoding="utf-8"?>
<svg version="1.1" id="svgmap" xmlns="http://www.w3.org/2000/svg" xmlns:xlink="http://www.w3.org/1999/xlink" x="0px" y="0px" width="100%" height="100%" viewBox="0 0 500 284">
<polygon points="63,178 64,180 65,180 65,180 66,180 66,180 66,180 66,180 67,179 67,179 67,179 67,179 68,179 68,179 68,179 68,179 68,179 69,179 69,179 69,178 70,178 70,178 70,178 70,178 70,178 71,178 71,178 71,177 71,177 71,177 71,177 72,177 72,176 72,176 72,176 72,175 73,175 73,174 73,173 73,173 73,173 73,173 73,172 73,172 73,171 73,170 73,170 73,170 73,169 73,169 72,169 71,168 71,168 71,167 71,167 70,166 69,166 69,166 69,165 69,165 69,165 75,164 75,164 75,164 75,165 75,165 77,164 79,164 79,164 80,165 80,165 82,165 82,166 83,166 83,166 83,166 83,166 83,166 83,167 83,167 83,167 83,167 82,168 81,168 81,168 80,168 80,168 80,168 80,168 80,169 80,169 80,169 80,170 80,170 81,170 81,171 81,171 81,171 81,171 81,171 81,171 81,171 82,171 82,171 82,171 82,171 82,171 82,171 83,171 83,171 84,171 84,171 84,171 84,171 85,172 85,172 85,172 86,172 86,172 87,172 87,172 87,172 87,172 87,172 88,172 88,172 88,172 88,172 89,172 89,172 89,172 90,172 90,172 90,172 90,172 91,172 91,172 91,172 92,173 92,173 92,173 93,173 93,174 94,174 94,174 94,174 95,174 95,174 95,174 95,174 95,174 96,174 96,174 96,175 96,175 97,175 97,175 98,175 98,175 98,175 99,175 100,175 100,175 100,175 101,176 101,176 101,176 102,176 102,176 102,176 103,176 103,176 103,176 103,177 104,177 104,177 104,177 104,177 104,177 104,177 105,177 106,178 106,178 106,178 106,178 107,178 107,178 107,178 109,178 110,178 110,179 110,179 110,179 111,179 111,179 111,179 111,179 112,179 112,179 112,179 113,179 113,180 114,180 115,181 115,181 115,181 115,181 115,181 115,181 115,181 116,181 116,181 117,181 118,181 119,181 119,181 119,181 119,181 119,181 119,181 120,181 121,180 121,180 121,179 122,179 122,179 122,179 122,179 122,178 122,178 123,178 123,178 124,177 124,177 125,176 125,176 125,176 125,176 125,175 127,175 127,175 127,175 127,175 127,175 128,175 128,174 129,174 129,174 129,174 128,174 128,174 128,173 128,173 128,173 129,173 129,173 129,173 129,173 129,172 129,172 129,172 129,172 129,172 129,172 130,171 130,171 130,171 130,170 130,170 131,169 131,169 131,169 131,168 131,168 131,168 131,168 132,167 132,167 132,167 132,167 133,166 133,166 133,166 133,166 134,165 134,165 134,165 134,165 135,165 135,165 135,164 135,164 136,164 136,164 136,164 136,163 136,163 137,163 137,163 137,163 137,163 138,163 138,162 140,161 140,161 140,161 141,160 141,160 141,160 141,159 142,159 142,159 142,159 142,159 143,159 143,159 143,159 144,159 145,159 145,159 145,159 145,159 145,159 145,159 145,159 145,159 146,159 146,159 146,159 146,159 146,159 147,158 147,158 147,158 147,158 147,158 147,158 147,158 146,157 146,157 146,157 146,157 146,157 146,156 146,156 146,156 146,156 146,156 147,156 147,156 147,155 147,155 148,155 148,155 148,155 148,155 148,154 148,154 147,153 147,153 147,153 146,153 145,152 145,152 145,152 144,151 144,151 144,151 144,151 143,151 143,151 144,151 144,151 144,151 144,151 144,151 145,150 146,150 146,150 146,150 146,149 146,148 146,148 146,148 146,148 147,148 147,148 147,148 147,148 147,147 147,147 147,147 148,147 148,147 148,147 149,146 149,146 149,146 149,146 149,146 149,146 150,145 150,145 150,145 150,145 151,145 152,144 153,144 153,144 153,144 154,144 154,144 155,144 155,144 156,144 156,144 156,144 156,144 156,144 157,144 157,144 157,143 157,143 158,143 158,143 159,143 159,143 159,143 159,143 159,143 159,143 160,143 160,143 160,143 161,143 161,143 161,143 162,143 162,143 162,143 163,143 165,143 165,143 165,143 166,143 167,144 168,144 168,144 168,144 168,143 168,142 168,142 168,142 168,142 169,142 169,142 169,143 170,143 170,143 170,143 170,143 171,143 171,143 171,143 171,143 172,143 172,143 173,142 173,142 173,142 173,142 171,141 170,141 169,141 169,141 169,141 169,140 169,140 169,140 168,140 168,139 168,138 168,138 168,138 167,137 167,137 166,136 166,135 166,135 165,135 165,134 165,134 164,134 164,134 164,134 164,134 164,133 164,133 164,133 164,133 164,132 164,132 164,132 164,132 164,132 164,132 165,131 165,131 165,130 165,130 165,130 166,129 166,129 167,128 168,127 168,127 168,127 168,127 168,126 168,126 168,126 169,126 169,126 169,126 169,126 170,126 170,126 171,126 171,126 172,127 172,127 172,127 173,127 173,127 173,127 173,127 173,127 173,127 173,127 173,127 173,127 173,126 172,126 172,126 172,125 172,125 172,125 171,125 171,124 171,124 171,124 170,124 170,124 170,124 170,124 170,124 170,124 170,124 170,124 170,124 170,124 170,123 170,123 169,123 169,123 169,123 169,123 169,123 169,122 168,122 168,122 168,122 168,122 168,122 168,122 168,122 168,122 168,122 168,121 168,121 168,121 168,120 168,120 168,120 168,120 168,120 168,119 168,119 168,119 168,119 168,119 168,119 167,119 167,119 167,119 167,119 167,119 167,118 167,118 167,118 167,117 167,117 167,117 167,117 166,117 166,117 166,116 166,116 166,116 166,116 166,116 166,116 166,116 166,116 165,116 165,116 165,115 165,115 165,115 165,115 165,115 164,115 164,115 164,114 164,114 163,114 163,114 163,114 163,114 163,114 163,114 163,113 163,113 163,113 163,113 162,112 162,112 162,112 162,112 162,112 162,112 162,112 162,112 162,112 162,112 162,111 162,111 163,111 163,110 163,110 163,110 164,109 164,109 164,109 164,109 164,108 164,108 164,108 164,108 164,108 164,108 164,108 164,108 164,108 164,108 164,107 164,107 164,107 164,107 164,107 163,107 163,107 163,106 163,106 163,106 163,105 163,105 163,105 163,105 163,105 163,104 163,104 163,103 163,103 163,103 163,103 163,102 163,102 162,102 162,102 162,101 162,101 162,101 163,101 163,101 163,101 162,100 162,100 162,100 162,100 162,100 162,100 162,100 162,100 162,99 162,99 162,99 162,99 162,99 161,99 161,99 161,99 161,99 162,99 162,98 162,98 162,98 162,98 162,98 162,97 162,97 162,97 162,96 162,96 162,96 162,96 162,95 162,95 162,95 162,94 162,94 162,94 162,94 162,94 162,94 162,93 162,93 162,93 162,93 162,93 162,92 162,92 162,92 162,92 162,92 162,92 162,92 162,92 162,91 161,91 161,91 161,91 160,90 160,90 160,90 159,90 159,90 159,90 159,90 159,90 159,89 159,89 159,89 159,89 158,89 158,88 157,88 157,87 157,87 157,87 156,86 156,86 156,86 156,85 156,84 156,83 156,83 156,83 156,83 156,82 156,82 156,82 156,82 156,81 156,81 156,81 156,81 155,80 155,80 155,80 155,80 155,80 155,80 154,80 153,79 153,78 152,78 152,78 154,78 155,78 156,77 156,77 157,77 157,77 157,78 157,79 158,79 159,80 159,80 159,80 160,80 160,80 160,80 161,80 162,81 162,81 163,81 163,81 163,81 163,81 163,81 163,81 164,81 166,82 166,82 167,82 167,82 168,82 168,82 168,83 169,83 169,84 169,84 169,84 169,84 170,84 170,84 170,84 170,84 171,84 172,84 173,84 173,84 173,84 173,84 173,84 173,84 173,84 173,84 174,84 175,85 175,85 175,85 175,85 175,85 176,85 176,86 176,86 177,86 177,87 178,87 178,87 178,87 178,88 178,87 178,87 179,87 179,87 179,87 180,87 180,87 181,86 181,86 183,85 183,85 183,85 183,85 183,85 184,85 184,85 185,85 186,85 187,85 187,85 188,85 189,85 189,85 189,85 191,86 191,86 191,86 192,86 192,86 192,86 193,86 193,86 193,87 193,87 195,87 195,87 195,87 195,87 196,87 196,88 197,88 197,88 198,88 199,88 199,88 200,88 201,88 204,88 205,88 206,88 207,88 207,88 207,88 208,88 209,89 211,90 211,90 211,91 211,91 211,91 212,91 212,91 212,91 212,91 213,91 213,91 213,91 214,91 214,91 214,91 215,91 215,91 215,91 215,91 216,91 216,91 216,91 217,91 218,92 218,92 218,92 218,92 218,92 218,92 220,92 220,92 220,92 220,92 221,92 221,92 221,93 222,93 223,93 223,93 223,93 223,93 223,93 225,93 225,93 225,93 227,92 227,92 228,92 228,92 228,92 228,92 228,92 228,92 229,92 229,92 229,93 229,93 229,93 229,93 229,93 229,93 229,93 229,93 229,93 230,93 230,94 230,94 230,94 231,94 231,94 231,95 231,95 232,95 232,95 233,96 233,96 233,96 233,96 233,96 234,97 234,97 234,97 234,97 234,97 234,97 234,97 234,98 234,98 234,98 235,98 235,98 235,98 235,98 235,99 235,99 236,99 236,99 236,99 236,99 236,99 236,99 237,100 237,100 237,100 237,100 237,100 238,100 238,100 238,100 238,100 238,100 238,100 238,100 238,100 238,100 239,100 239,101 239,101 239,101 239,101 239,101 239,101 239,101 240,101 240,101 240,101 241,101 241,101 241,101 241,102 241,102 242,102 242,102 242,102 242,102 242,102 242,102 243,102 243,103 243,103 244,103 244,103 245,103 245,103 245,103 245,103 245,104 245,104 246,104 246,104 246,105 246,105 246,105 246,105 246,105 247,105 247,105 248,105 249,105 250,105 250,105 250,105 252,106 253,106 253,106 254,106 255,106 255,106 255,106 256,106 256,107 257,107 259,108 259,108 260,108 260,108 260,108 261,108 261,108 261,108 261,108 262,108 262,108 262,108 263,108 263,108 263,108 263,109 263,109 263,109 263,110 263,110 264,110 264,111 264,111 264,111 265,111 265,111 265,111 265,111 267,111 267,112 267,112 267,112 268,112 268,112 269,112 269,112 269,112 269,112 270,112 270,112 271,112 271,112 271,112 271,112 271,112 272,113 272,113 272,113 272,113 272,113 272,113 272,114 272,114 272,114 271,114 271,114 271,114 271,114 271,114 271,114 271,114 271,115 271,115 271,115 271,115 271,115 271,116 271,116 271,116 271,116 271,116 271,117 271,117 271,117 271,117 271,117 271,117 271,118 271,118 271,118 272,118 272,118 272,119 272,119 272,119 272,119 272,119 272,120 272,120 272,120 272,120 272,120 272,120 272,120 272,121 273,121 273,122 273,122 273,122 273,122 273,123 273,123 273,123 273,123 273,123 273,124 273,124 274,125 274,125 274,125 274,125 274,126 274,126 274,126 275,126 275,126 275,126 275,126 275,127 275,127 275,127 275,127 276,127 276,128 276,128 276,128 276,128 276,128 276,129 276,129 276,129 277,129 277,129 278,130 278,130 280,129 280,129 280,129 281,128 281,128 281,128 281,128 282,127 282,127 283,127 283,127 284,126 284,126 284,126 284,126 284,125 283,124 282,124 282,124 282,124 282,123 282,123 282,122 282,121 282,121 282,120 282,120 282,120 282,119 282,118 282,118 283,117 283,117 283,116 283,115 283,115 283,115 284,115 283,115 283,115 283,114 283,114 283,113 283,113 283,113 283,113 283,112 283,112 284,112 284,112 284,112 284,112 284,112 285,112 285,112 287,113 287,113 287,113 288,113 288,112 289,112 289,112 289,113 290,113 290,113 290,113 291,113 292,113 292,113 293,113 293,113 294,113 295,112 295,112 296,112 296,112 296,112 296,112 296,112 297,112 297,112 297,112 298,112 298,112 298,112 298,113 298,113 298,113 298,114 297,114 297,114 297,115 297,115 297,115 297,115 297,116 297,116 297,117 297,117 297,117 298,117 298,117 298,118 302,120 302,121 304,122 304,122 306,121 306,121 306,121 306,121 306,121 306,121 306,121 307,121 307,120 307,120 307,120 308,121 310,121 310,121 311,121 311,121 311,121 311,121 311,121 311,120 311,120 311,120 311,119 311,119 310,119 310,118 310,118 309,117 309,117 309,117 309,116 309,116 308,115 308,115 309,115 309,114 310,114 310,114 310,114 310,113 310,113 310,113 310,113 310,113 309,112 309,112 309,112 309,112 309,112 309,112 309,112 309,111 309,110 309,110 309,109 309,108 309,108 309,108 310,108 310,108 309,107 309,107 309,107 310,106 310,106 311,106 311,105 311,105 311,105 312,105 312,105 312,105 312,105 312,105 313,104 313,104 313,104 313,104 314,102 315,102 315,102 315,102 315,102 315,102 315,102 315,101 315,101 315,101 315,101 316,101 316,101 317,101 317,101 318,101 318,101 318,101 319,101 320,101 321,101 321,102 322,101 322,101 322,102 323,102 324,102 324,102 324,102 324,102 325,102 325,102 326,102 326,102 327,103 327,103 327,103 327,103 327,103 327,103 327,103 327,103 327,103 327,102 327,102 327,102 328,103 329,103 329,103 329,103 330,104 330,104 331,104 332,104 332,104 333,104 333,104 335,104 335,104 336,104 337,104 338,104 338,103 339,103 339,103 339,103 340,102 340,102 340,102 340,102 340,102 340,101 340,101 340,101 340,100 340,100 340,100 340,99 340,98 340,98 341,97 341,97 341,97 342,97 343,96 343,96 343,96 343,95 344,94 345,92 346,92 346,92 346,91 346,91 346,91 347,91 347,91 347,91 347,91 347,92 347,92 348,92 348,92 348,93 348,93 348,93 349,93 349,93 349,93 349,93 349,93 350,93 350,93 350,94 350,94 351,94 351,94 351,94 351,94 351,94 351,95 351,95 351,95 352,95 352,96 352,96 352,96 352,96 352,96 352,96 352,96 353,97 353,97 353,97 353,97 353,97 353,97 354,97 354,97 354,98 354,98 354,98 354,99 354,99 354,99 354,100 354,100 355,100 355,100 355,100 355,100 355,100 355,100 355,101 356,101 356,101 357,101 358,102 359,102 359,102 359,102 360,103 360,103 360,103 360,103 360,103 360,103 360,103 361,104 361,104 361,104 362,105 362,105 364,105 364,106 366,106 366,106 367,107 367,107 367,107 367,108 367,108 368,108 368,108 369,108 369,108 369,108 370,108 370,108 371,109 372,109 372,109 372,109 372,108 372,108 373,108 373,107 373,107 374,107 374,107 374,107 374,107 376,107 377,108 379,108 379,108 379,108 379,108 377,107 377,106 377,106 376,106 376,105 376,105 376,105 377,105 378,105 378,105 379,105 379,105 379,105 379,105 380,105 380,105 380,105 381,105 382,105 383,105 383,105 383,105 384,105 385,105 385,105 385,105 386,105 387,105 387,105 387,105 387,105 388,105 388,104 388,104 389,104 389,104 389,104 389,104 389,104 389,103 389,102 389,102 390,102 390,102 390,102 390,102 390,102 390,101 390,101 390,101 390,101 390,100 390,100 390,100 390,100 390,99 390,99 390,99 390,99 390,98 390,98 390,98 390,98 391,98 391,98 391,98 391,97 391,97 391,97 391,97 392,97 392,97 392,97 392,96 392,96 392,96 392,96 392,96 392,96 392,96 393,96 393,95 393,95 393,95 393,95 393,95 393,95 393,95 393,95 393,95 393,95 393,95 393,95 394,94 394,94 394,94 394,94 394,94 394,94 394,94 394,94 394,94 394,94 395,94 395,93 395,93 396,93 396,93 396,93 397,93 397,93 397,93 398,92 398,92 398,92 398,92 398,92 399,92 399,92 399,92 399,92 400,92 400,92 400,92 400,92 400,92 401,92 401,91 401,91 402,91 402,91 402,91 402,91 402,92 402,92 402,92 402,91 403,91 403,91 403,92 403,92 403,91 403,91 404,92 404,91 405,91 405,91 406,91 406,91 406,91 406,91 406,91 407,91 407,91 407,91 407,90 407,90 408,90 408,90 408,90 408,90 408,89 409,89 409,89 409,89 409,89 409,89 409,89 409,89 408,89 408,89 408,89 408,88 408,88 408,88 408,88 408,87 408,87 408,86 408,86 408,86 408,86 408,86 408,86 408,86 408,85 408,85 408,85 408,85 407,85 407,85 407,85 407,85 407,84 406,84 406,84 406,84 406,84 406,84 406,84 406,84 405,84 405,84 405,84 405,84 404,83 404,83 404,83 403,82 403,82 403,82 402,81 401,81 401,80 400,79 400,79 399,79 399,78 399,78 398,78 398,78 398,77 398,77 398,77 398,76 398,76 397,76 397,76 397,76 396,75 396,74 395,74 395,74 395,73 395,73 395,73 395,73 395,73 395,73 394,72 394,72 394,71 393,71 393,71 393,71 393,71 392,71 392,71 392,71 392,71 392,71 392,71 391,71 391,70 391,70 391,69 391,69 390,69 390,69 390,69 390,69 390,69 390,69 389,69 389,69 389,69 389,69 389,69 388,69 388,69 388,69 388,69 388,69 387,68 386,68 386,68 386,68 386,68 386,68 385,68 385,68 385,68 385,68 384,67 384,67 384,67 384,67 384,67 383,67 383,67 383,67 383,67 383,67 383,67 383,67 383,66 382,66 382,66 382,66 382,66 382,66 382,66 382,66 381,66 381,65 381,65 381,65 380,65 380,65 380,65 380,65 380,65 380,65 380,65 380,65 380,65 380,64 380,64 380,64 380,64 380,64 379,64 379,63 379,63 379,63 379,63 379,62 379,62 379,62 379,62 379,62 379,61 379,61 378,61 378,61 378,61 378,61 378,61 378,61 378,61 377,61 377,61 377,61 377,61 376,60 376,60 376,60 376,60 376,60 376,60 376,59 376,59 376,59 375,59 375,59 375,59 375,59 375,59 375,58 375,58 375,58 375,58 375,57 374,57 374,57 374,57 375,56 375,56 375,56 375,56 375,56 375,55 375,55 375,54 375,54 375,53 375,53 376,53 376,53 376,52 376,52 376,51 376,51 376,51 376,50 376,50 376,50 376,49 376,49 376,49 376,48 377,48 377,48 376,47 376,47 376,46 376,46 376,46 376,46 376,46 376,46 376,45 376,45 376,45 376,44 377,44 377,44 377,44 377,44 377,43 377,43 377,43 377,43 377,42 377,42 377,42 377,42 377,42 377,41 377,41 377,41 377,41 378,40 378,40 378,40 378,39 378,39 378,39 378,39 378,38 378,38 379,38 379,38 379,38 379,38 379,38 379,37 379,37 379,37 380,37 380,36 380,36 380,36 380,35 381,35 381,35 381,35 381,35 381,34 381,34 381,34 381,34 381,34 380,33 380,33 380,33 380,33 380,33 380,33 380,32 380,32 381,32 381,32 381,31 381,31 381,31 381,30 381,30 381,30 381,30 381,30 382,29 382,29 382,29 382,29 382,29 382,29 382,29 382,29 382,28 382,28 382,28 382,28 382,27 382,27 382,27 382,27 382,27 382,27 382,27 383,27 385,27 385,28 387,28 388,28 391,29 392,29 392,29 393,29 394,29 395,29 395,29 396,29 397,29 398,29 398,29 400,29 401,29 401,29 401,29 402,29 403,29 405,29 406,29 407,29 408,28 409,28 409,28 411,28 411,28 413,28 415,27 416,27 417,27 419,27 420,27 420,27 420,27 420,27 420,26 420,26 420,26 420,26 420,25 420,25 420,25 420,25 420,24 420,24 420,24 420,24 421,23 421,23 421,23 421,23 421,22 422,22 422,21 421,21 421,21 421,21 421,21 421,21 420,21 420,21 420,21 420,20 419,20 419,20 420,20 420,20 420,20 420,20 421,20 421,20 421,20 421,20 421,19 421,19 421,19 421,19 422,19 422,19 422,18 423,18 423,18 423,18 423,18 424,18 424,18 424,18 424,18 424,18 424,17 424,17 424,17 425,17 425,17 425,17 425,16 425,16 425,16 425,16 425,15 425,15 425,15 425,14 425,14 425,14 425,14 425,14 425,14 425,13 425,13 425,13 425,13 425,13 425,13 425,13 425,13 425,13 425,13 425,13 425,12 425,12 425,12 425,12 425,12 425,11 425,11 425,11 425,10 425,10 424,10 424,9 424,9 425,9 425,8 425,8 425,7 425,7 425,7 425,7 425,7 425,7 425,7 425,7 425,7 425,7 425,6 425,6 426,6 426,6 426,6 427,6 427,6 428,5 429,5 429,5 430,5 430,5 431,4 431,4 431,4 431,3 432,3 432,3 433,2 434,1 435,1 436,0 436,0 436,0 437,1 439,2 439,2 439,2 440,2 441,3 442,3 443,4 443,4 445,5 445,5 446,6 447,6 447,7 447,7 450,7 451,8 451,8 452,8 453,8 454,8 454,8 455,8 455,8 455,8 455,8 455,8 455,8 455,8 455,8 456,8 456,8 456,8 456,9 456,9 456,9 456,9 456,9 457,9 457,9 457,9 457,9 457,9 457,9 457,9 457,9 457,9 457,9 457,10 457,10 457,10 458,10 458,10 457,10 457,11 457,11 457,11 457,11 457,11 457,11 457,11 457,11 457,12 457,12 457,12 457,12 457,13 457,13 457,13 457,14 456,14 457,14 456,14 456,14 456,14 456,14 456,15 456,15 456,16 456,16 456,16 456,16 456,16 456,16 456,17 456,17 456,17 456,17 456,17 456,17 456,18 456,18 456,18 456,18 456,18 456,18 455,18 455,18 455,18 455,18 455,18 455,18 455,18 455,18 455,18 455,19 455,19 455,19 455,19 454,20 454,20 454,20 454,20 454,21 454,21 454,21 453,21 453,21 453,21 452,21 452,21 452,22 452,22 452,22 452,22 452,22 452,22 452,22 452,22 452,22 452,22 451,22 451,22 451,23 452,23 452,23 452,23 452,23 452,23 452,23 452,23 452,24 452,24 452,24 452,24 452,24 453,24 453,24 453,24 453,25 453,25 453,25 453,25 453,25 453,25 452,25 452,25 451,26 451,26 451,27 451,27 451,27 450,27 450,27 450,27 450,27 450,27 450,27 449,27 449,27 449,28 449,28 448,28 448,28 448,28 448,28 448,29 448,29 448,29 448,29 448,29 448,29 448,29 448,30 448,30 448,30 447,30 447,30 447,31 447,31 447,31 447,31 447,31 446,31 446,31 446,31 446,31 446,31 449,32 449,32 451,32 451,32 451,32 451,33 451,33 451,33 451,33 451,34 451,34 450,35 450,35 450,35 450,36 450,36 450,36 450,36 450,37 450,37 450,37 450,37 451,38 451,38 451,38 452,38 452,38 452,39 452,39 452,39 453,39 453,40 453,40 454,40 455,42 455,42 455,42 457,42 457,42 457,42 457,43 457,43 457,43 458,43 458,44 458,44 458,44 458,44 458,44 458,44 458,45 458,45 458,45 458,45 458,45 458,45 458,46 459,46 459,46 459,46 459,46 459,46 460,46 460,46 460,46 461,46 461,46 461,46 461,46 461,45 462,44 462,43 461,42 461,42 461,42 461,41 461,41 461,41 462,40 462,39 462,38 462,38 462,38 463,37 463,37 463,37 463,37 464,37 464,37 464,37 465,37 465,37 465,37 466,37 466,37 467,38 468,38 468,38 469,38 470,39 471,39 471,39 472,40 472,40 473,40 473,40 474,41 474,41 476,42 476,42 477,42 477,42 477,42 478,42 478,43 479,43 480,43 481,43 481,43 482,43 483,42 483,42 483,42 484,42 485,42 485,42 485,42 485,42 485,42 486,43 486,43 486,43 486,43 486,44 487,44 487,44 488,45 488,45 489,46 489,46 490,46 490,47 490,47 490,47 490,47 490,47 490,47 490,47 490,48 491,49 491,50 491,50 491,50 491,50 491,50 491,50 491,51 491,51 493,54 493,54 493,54 493,54 494,56 494,56 496,58 496,59 498,62 499,63 499,63 500,65 500,65 500,65 497,68 496,68 495,69 495,69 495,69 493,71 493,71 493,71 492,72 491,74 490,76 489,76 489,76 489,76 489,78 490,80 490,80 490,80 489,81 487,82 487,83 487,83 487,83 486,83 486,84 486,85 486,85 486,85 485,88 485,88 485,88 484,90 484,90 484,90 484,91 484,92 484,92 485,92 485,92 483,92 483,92 483,92 482,93 479,93 479,93 479,93 479,93 478,94 478,94 477,94 477,94 476,94 476,94 475,94 474,94 473,94 473,94 472,94 472,94 472,94 471,94 471,94 471,94 471,94 470,94 469,94 469,94 468,93 468,93 468,93 467,93 467,93 467,93 466,93 466,94 466,94 465,94 465,94 465,95 465,95 464,95 464,95 464,95 463,95 463,96 463,96 463,97 463,97 463,97 463,97 463,97 464,97 464,98 464,98 464,98 465,98 465,98 465,98 465,98 465,98 465,98 465,98 465,98 465,98 465,99 465,99 465,99 465,99 465,100 465,100 465,100 464,100 464,100 464,100 464,100 463,101 462,101 462,101 461,101 461,101 461,101 460,101 460,101 460,100 460,100 459,100 459,99 459,99 459,99 459,99 459,99 458,99 458,98 458,98 458,98 458,98 457,98 457,98 457,98 457,98 456,98 456,98 456,99 456,99 456,99 455,100 456,100 456,100 456,100 456,100 456,100 456,100 456,100 457,100 457,101 457,101 458,102 458,102 459,102 459,102 459,102 460,102 460,103 460,103 460,103 460,104 460,104 460,104 460,104 460,104 460,104 459,105 459,105 459,108 459,108 458,108 456,107 454,107 452,106 451,106 451,106 447,105 446,105 446,105 440,104 440,104 438,106 438,106 437,106 437,106 437,105 437,105 437,105 436,105 436,105 436,105 436,105 436,105 436,105 435,105 435,105 435,105 435,106 434,106 434,106 434,106 434,106 433,106 433,106 431,106 431,106 431,106 431,106 432,106 432,106 432,106 432,107 432,107 432,107 432,107 432,108 433,108 433,108 433,109 433,109 433,109 433,109 434,109 434,109 434,109 434,110 435,110 435,110 435,110 435,110 435,111 435,111 436,111 436,111 436,111 436,111 436,112 435,112 435,112 435,112 435,112 435,112 435,112 435,113 435,113 435,113 435,113 435,113 435,114 435,114 435,114 435,114 434,114 435,114 435,115 435,115 435,115 435,115 435,115 435,115 435,115 435,116 435,116 435,116 435,116 436,117 436,117 436,117 436,117 436,117 436,117 436,117 436,117 436,117 437,117 437,118 437,118 437,118 437,118 438,118 438,118 439,118 439,118 439,118 439,118 440,118 440,118 440,118 440,118 440,119 440,119 441,119 441,119 441,120 441,120 441,120 441,120 441,120 441,120 442,121 442,121 442,121 442,122 442,122 442,122 442,122 442,122 442,122 442,122 443,123 443,124 443,124 443,124 443,124 443,124 443,124 443,125 443,125 443,126 443,126 443,126 443,126 442,127 442,127 442,127 442,127 442,127 441,127 441,128 441,128 440,128 440,128 440,128 440,129 440,129 439,129 439,129 439,129 439,129 439,129 439,129 439,129 439,129 438,129 438,129 438,129 438,129 437,129 437,129 436,129 436,129 436,129 435,129 435,129 434,130 433,130 433,130 433,130 432,130 431,130 430,131 430,131 429,131 429,131 422,130 421,130 421,130 421,130 420,129 420,129 419,129 417,127 416,127 416,127 413,133 413,133 413,132 412,132 412,132 411,132 411,132 411,132 410,132 409,132 409,132 409,132 408,132 408,132 408,132 408,133 407,134 407,134 407,134 407,134 407,134 407,135 407,135 407,135 407,135 406,136 406,136 406,136 406,137 406,137 405,138 405,138 405,138 406,138 406,138 406,139 406,139 406,139 406,140 406,140 406,140 406,140 405,140 405,140 405,141 405,141 405,141 404,141 404,141 403,141 403,141 403,141 403,141 402,142 402,142 402,142 402,142 402,142 402,142 402,142 402,142 402,142 401,142 401,142 401,142 401,142 401,143 401,143 401,143 401,143 401,143 400,143 400,143 400,143 400,143 400,143 400,143 399,143 399,144 399,144 398,144 398,144 398,144 398,145 397,145 397,145 397,145 397,145 396,146 396,146 396,146 396,146 396,147 396,147 396,147 396,147 395,148 395,148 395,148 395,148 395,148 395,148 395,148 395,149 395,149 395,149 395,149 395,150 395,150 395,150 395,150 394,150 395,151 395,151 394,151 394,151 394,152 394,152 394,152 393,153 393,153 393,153 393,153 393,153 393,154 393,154 393,154 393,154 393,154 393,154 393,155 393,155 393,155 393,155 394,156 394,156 394,156 393,156 393,157 393,157 393,157 393,157 393,157 393,158 394,158 394,159 394,159 394,160 394,160 394,161 394,161 394,161 394,161 394,161 394,161 394,161 394,162 394,162 394,162 394,162 394,162 394,163 394,163 394,163 394,163 394,163 394,163 394,164 395,164 395,164 395,164 395,164 395,164 396,165 397,165 397,165 398,166 398,166 398,166 399,166 399,166 399,166 399,167 399,167 399,167 399,167 399,167 399,167 399,168 399,168 399,168 398,168 399,168 399,169 399,169 399,169 399,169 399,169 399,169 399,169 398,170 398,170 398,170 398,170 397,170 397,170 397,170 397,170 397,170 396,170 396,171 395,171 395,171 394,171 394,171 393,171 393,171 393,171 392,171 392,171 391,171 390,171 390,171 388,171 387,172 387,172 385,172 384,172 384,172 382,172 382,172 382,172 381,171 380,171 380,171 379,171 378,171 378,170 378,170 377,170 377,170 377,170 377,170 377,170 376,170 376,171 376,171 375,171 373,170 373,170 372,170 371,170 367,170 366,170 365,170 364,170 363,170 363,170 362,170 361,170 361,170 361,170 360,170 360,170 360,170 358,170 358,170 358,170 357,170 356,170 353,169 353,169 352,169 352,169 351,169 351,169 351,169 349,168 349,168 348,168 347,168 347,168 347,167 347,167 346,167 346,167 346,167 346,167 345,166 345,166 344,166 344,166 344,166 343,166 343,166 342,166 342,166 342,166 342,165 341,165 340,165 340,165 340,165 339,165 338,165 338,165 337,165 337,165 337,165 336,165 336,165 335,165 335,165 334,165 334,165 334,165 333,165 333,165 333,165 333,165 332,165 332,165 332,165 331,165 331,165 331,165 330,164 329,164 329,164 329,164 328,164 328,164 328,164 327,164 327,164 327,164 326,164 326,164 325,164 325,164 325,164 324,164 324,164 322,165 322,165 321,165 321,165 321,165 320,165 320,165 318,166 318,166 317,166 317,166 317,166 316,166 316,167 315,167 314,166 314,166 313,166 313,167 313,167 313,167 312,167 311,167 310,167 310,167 311,167 311,167 311,167 310,168 310,168 310,168 310,168 310,168 310,168 309,168 309,168 309,168 309,168 308,168 308,167 307,167 307,167 308,168 308,168 308,168 308,169 308,169 309,171 309,171 308,174 308,174 308,174 307,174 307,174 306,174 306,175 306,175 306,175 307,177 307,177 307,177 306,176 306,176 306,176 305,176 305,176 305,176 305,176 304,176 304,176 304,176 304,176 304,176 304,177 303,176 303,176 303,176 302,175 302,175 301,175 301,175 300,175 300,175 300,175 300,175 300,175 300,175 300,174 299,174 299,174 299,174 299,174 298,174 298,174 298,174 298,174 297,174 297,174 297,174 297,174 297,174 296,174 296,173 296,173 295,173 295,173 295,173 295,173 295,172 294,172 294,172 294,172 294,172 294,172 294,172 294,171 294,171 293,170 293,170 293,170 293,170 293,170 292,170 292,170 292,170 292,170 292,170 291,170 291,170 291,170 291,171 290,171 290,171 289,171 289,171 289,171 289,172 289,172 289,172 289,172 289,173 290,173 290,173 290,174 290,174 290,174 290,174 290,174 291,175 292,176 292,176 293,177 293,177 294,177 294,177 296,178 296,179 296,179 296,179 296,179 296,179 297,179 297,179 297,179 297,179 296,179 295,180 295,180 294,181 294,181 294,181 294,183 294,183 294,183 294,183 294,183 294,183 294,183 294,183 294,183 294,183 294,183 294,183 294,183 293,183 293,183 293,183 293,183 292,183 292,183 292,183 292,184 292,185 292,185 292,185 292,185 293,186 293,186 293,186 293,186 293,186 293,187 294,188 294,188 295,189 296,189 296,189 296,189 296,189 296,188 296,188 296,188 296,188 297,189 297,189 297,188 297,188 297,188 297,188 298,188 298,188 298,188 298,188 298,188 298,188 299,188 299,188 299,187 299,187 299,188 299,188 300,187 300,187 300,187 300,187 300,188 301,187 301,187 301,188 301,188 301,187 301,187 301,187 301,187 301,187 302,187 302,187 303,187 304,187 304,187 304,187 304,187 304,187 304,187 304,187 305,187 305,187 305,187 305,187 306,187 306,188 306,188 306,188 306,188 306,188 307,188 307,188 307,188 307,188 307,188 307,188 307,188 307,188 308,188 308,188 308,189 309,189 310,189 310,189 310,189 311,189 311,189 312,189 312,189 313,190 313,190 313,190 313,190 313,190 313,190 314,190 314,189 315,189 315,189 316,189 317,189 317,189 317,189 318,189 318,189 318,189 319,189 319,189 321,190 322,190 322,190 323,190 323,190 324,190 324,190 324,190 325,190 325,190 325,190 326,190 327,190 327,190 328,190 328,190 328,190 329,191 329,191 329,191 330,190 330,191 330,191 330,191 331,191 331,191 332,193 332,193 332,193 332,194 332,194 333,194 333,194 333,194 334,195 334,195 334,195 335,195 335,195 336,195 337,196 337,196 339,196 339,196 341,197 342,197 342,197 341,197 341,198 341,198 340,198 340,198 339,199 339,199 339,199 338,199 337,199 337,199 336,200 336,200 336,200 336,200 336,201 336,201 336,202 337,203 337,205 337,205 337,205 337,206 337,206 337,206 337,206 336,207 336,207 336,207 336,207 335,208 335,208 335,209 334,209 334,209 335,209 336,211 336,211 337,212 337,212 337,212 337,212 337,212 337,213 337,213 338,214 338,214 338,214 338,215 338,215 338,215 337,216 337,217 337,217 337,217 337,218 337,218 337,219 338,219 338,220 338,220 338,221 338,221 338,222 338,223 338,223 337,225 336,225 336,224 336,224 336,224 336,224 336,224 336,224 335,224 335,223 335,223 335,223 335,223 335,223 335,223 335,223 335,223 335,223 335,223 335,223 335,223 335,223 334,223 334,223 334,222 334,222 334,222 333,222 333,222 333,222 333,222 333,223 333,223 332,223 332,222 332,222 332,222 332,222 332,222 332,222 331,222 331,222 331,222 331,223 331,223 331,223 331,223 331,223 331,223 330,223 330,223 330,223 330,223 330,223 330,223 330,223 330,223 330,223 330,224 330,224 330,224 329,224 329,224 329,224 329,224 329,224 329,224 328,224 328,224 328,224 328,224 327,224 326,224 326,224 325,224 325,224 324,224 323,224 323,224 323,224 323,224 322,224 322,223 322,223 321,223 321,223 321,223 321,223 321,223 320,223 320,223 320,223 320,223 319,223 319,223 319,223 318,223 318,223 317,223 316,223 316,223 316,223 315,222 314,222 314,222 313,222 313,222 312,222 311,223 310,223 310,223 309,223 309,223 308,223 308,224 308,224 307,224 306,224 306,224 305,224 304,224 303,223 300,221 300,220 298,220 298,220 297,220 297,220 297,220 296,220 294,220 293,220 293,220 292,220 291,219 291,219 290,219 290,219 290,219 290,219 289,219 289,219 288,219 288,219 287,219 286,218 286,219 286,219 285,220 285,220 285,220 285,220 285,221 285,221 285,221 285,221 285,221 285,222 285,222 285,222 285,222 285,223 285,223 285,224 285,224 285,224 285,224 285,225 286,225 286,226 286,227 286,229 286,230 284,231 283,232 282,232 280,233 280,233 280,233 278,234 277,236 277,237 276,238 276,239 276,239 276,239 275,240 275,240 274,241 274,241 273,240 271,239 269,239 269,239 268,239 267,239 266,238 264,238 265,239 265,239 265,239 265,239 265,240 265,240 265,240 265,240 265,241 265,241 266,242 266,242 266,242 266,242 266,242 266,244 266,244 266,244 266,244 266,244 265,245 264,245 264,246 263,246 263,246 262,246 259,247 258,247 258,247 258,247 257,248 257,248 256,248 255,248 255,249 254,249 254,250 253,250 253,251 253,251 253,251 252,251 252,252 252,252 252,253 251,254 251,254 251,254 251,254 251,254 251,255 251,255 251,255 250,255 250,255 250,255 249,255 249,255 249,255 249,255 249,255 247,255 247,255 247,255 247,255 247,255 246,255 246,255 245,254 244,254 244,254 244,254 244,254 244,255 243,255 243,255 243,255 243,255 243,255 243,255 243,255 243,256 243,256 243,256 244,256 244,256 244,256 244,256 244,257 244,257 244,257 244,257 244,257 244,257 244,258 244,258 244,258 244,258 244,258 244,259 244,259 244,259 244,259 244,259 244,259 244,260 244,260 244,260 243,260 243,260 243,260 243,260 243,260 243,260 243,260 243,260 243,260 243,260 242,260 242,260 242,260 242,260 242,260 241,260 241,260 240,260 240,260 240,260 240,260 240,260 240,260 239,260 239,260 239,260 239,260 238,261 238,261 237,261 237,261 237,261 236,261 236,261 236,261 236,261 236,261 235,261 235,261 235,262 235,262 235,262 235,262 235,261 235,261 235,261 235,261 235,261 235,261 235,261 234,261 234,261 234,260 234,260 234,260 234,260 234,260 234,260 234,260 233,259 233,259 233,259 233,259 233,259 233,258 232,258 232,258 232,258 232,258 232,257 231,257 231,257 231,257 231,256 231,256 231,256 231,256 231,256 230,256 230,256 230,255 230,255 230,255 231,255 231,255 231,255 231,255 231,255 231,255 230,255 230,255 230,255 230,254 230,254 230,254 230,253 230,253 230,253 230,253 230,253 230,253 229,252 229,252 229,252 229,252 229,252 229,252 230,252 230,252 230,252 230,251 231,251 231,251 231,251 232,250 232,250 232,250 232,250 232,250 232,250 232,249 232,249 232,249 232,249 232,249 232,249 232,249 232,248 232,248 232,248 232,248 232,248 232,247 232,247 232,247 232,247 232,247 232,247 232,246 231,246 231,246 231,245 231,245 231,245 231,245 231,244 230,244 230,244 230,243 230,243 230,243 230,243 230,243 230,243 230,243 228,241 228,241 227,241 227,241 226,240 225,240 225,240 223,240 222,240 222,240 222,240 222,240 222,240 222,239 221,239 220,239 220,239 220,239 220,239 220,239 220,238 219,238 219,238 219,237 218,237 218,237 218,237 218,236 217,236 217,236 217,235 216,235 216,235 215,236 215,237 214,237 214,237 214,237 214,238 214,238 214,238 214,238 214,239 213,239 213,239 213,239 214,240 214,240 214,240 214,240 214,241 214,242 213,243 213,243 212,244 212,244 211,245 211,246 210,246 208,248 208,249 208,249 208,249 208,249 207,249 207,249 207,249 207,249 207,249 207,249 207,250 206,250 206,250 205,251 204,252 203,253 202,254 201,255 199,257 199,257 198,258 196,261 196,261 196,261 195,260 194,260 194,260 194,260 194,259 194,259 193,260 192,261 192,262 192,262 192,262 192,262 191,262 191,262 191,262 192,263 193,263 193,263 193,263 192,266 192,267 192,268 191,269 191,270 190,271 190,271 188,273 188,274 187,275 187,276 186,277 185,278 184,280 183,281 181,283 181,283 181,283 181,282 181,281 181,281 181,281 180,281 180,280 180,280 180,280 180,280 180,279 180,279 180,279 180,278 179,278 179,278 179,278 179,278 175,280 175,280 175,279 175,279 171,279 171,279 171,279 170,279 170,279 170,279 170,279 169,279 169,279 168,279 168,279 168,280 168,280 167,280 167,280 167,279 166,279 166,279 166,279 166,280 165,280 164,280 164,280 164,280 164,281 164,281 164,281 164,281 164,281 164,281 163,282 162,282 162,282 162,282 162,282 161,282 161,283 160,283 160,283 160,283 160,283 160,283 160,284 159,284 159,284 159,284 159,284 159,284 159,284 159,284 159,284 158,284 158,284 158,284 157,284 156,283 155,283 155,283 155,283 155,283 155,283 155,283 155,282 153,281 153,281 153,281 152,280 152,280 152,280 152,280 151,281 151,281 151,281 150,280 150,280 150,280 149,280 149,280 148,280 148,280 147,281 147,281 147,281 147,281 145,281 145,281 145,281 145,281 145,281 144,281 144,281 144,281 143,281 143,282 143,282 143,282 140,280 140,280 140,279 140,279 139,279 139,279 139,278 138,278 138,278 137,278 137,278 137,277 137,277 138,277 138,276 137,276 137,276 137,276 137,276 137,276 137,276 137,275 137,275 138,275 138,274 138,273 138,273 138,272 138,272 138,272 137,272 136,272 136,272 135,272 135,272 135,272 135,271 135,271 135,271 133,270 133,270 133,271 133,271 133,271 133,271 131,270 131,270 130,270 130,269 130,269 130,269 131,267 128,266 128,266 127,265 127,265 127,265 126,264 125,264 125,264 125,264 125,264 125,264 125,264 124,264 124,264 124,264 124,264 122,263 122,263 121,265 121,265 121,265 120,265 120,265 118,265 118,265 118,265 118,265 118,266 118,266 118,266 118,266 118,266 116,266 116,266 116,266 115,266 115,266 115,266 115,266 114,267 114,267 113,267 113,268 112,269 112,269 112,269 112,269 111,270 111,270 110,269 110,269 110,269 110,269 110,269 110,269 108,268 107,268 108,268 107,268 106,267 106,267 105,267 104,267 103,266 103,266 103,266 103,267 102,267 102,267 102,267 100,267 100,266 100,266 100,266 100,266 100,266 100,266 100,266 100,266 99,266 96,265 96,265 96,266 96,266 96,266 95,266 94,266 94,266 92,265 92,265 91,265 90,266 90,266 90,266 90,265 90,265 90,265 90,265 88,265 88,265 88,265 88,265 87,265 87,265 87,264 87,264 81,262 81,262 80,261 79,261 79,260 79,260 78,259 78,259 78,259 76,258 76,258 76,258 76,258 75,258 75,258 75,258 75,257 75,257 75,257 75,257 75,257 75,256 75,256 74,256 74,256 74,256 74,255 73,255 73,255 73,254 73,254 73,254 72,254 72,254 72,254 72,254 72,254 72,254 72,253 72,253 72,253 72,253 72,252 72,252 72,252 72,252 71,251 70,251 70,251 70,251 70,250 70,250 70,250 70,250 70,250 70,249 70,249 70,249 70,249 70,249 70,249 69,248 69,248 69,248 68,248 68,248 67,248 67,248 67,248 66,248 66,248 66,247 66,247 65,247 65,248 65,248 65,248 64,248 63,249 63,249 63,249 63,249 61,249 61,249 61,248 61,249 59,249 59,249 58,249 58,249 58,249 57,249 57,249 56,249 56,249 55,249 55,249 55,249 53,249 52,249 52,249 52,249 51,249 51,249 49,248 49,248 48,247 47,247 47,247 47,246 46,246 46,245 45,245 45,245 44,245 44,245 43,245 43,244 42,244 42,244 42,244 42,244 42,244 41,243 40,243 38,242 36,242 34,241 33,240 33,240 32,240 32,240 32,240 32,240 33,239 33,238 34,237 34,237 34,237 32,236 31,235 31,235 30,235 30,235 29,235 29,235 29,235 29,235 28,236 27,236 27,236 27,237 27,237 26,237 26,237 26,238 26,238 26,238 26,238 26,238 26,238 26,239 26,239 26,239 25,239 24,239 24,239 23,239 23,239 23,239 22,239 22,239 22,238 22,238 21,239 21,239 21,239 20,239 20,239 20,239 20,239 20,239 20,239 20,239 20,239 20,239 19,239 19,239 19,239 19,239 18,240 18,240 18,240 18,240 17,240 17,240 17,240 17,240 17,240 16,241 16,241 16,241 16,241 17,241 17,241 17,241 17,241 17,241 17,241 16,241 16,241 16,242 16,242 16,242 16,242 17,242 17,242 17,242 17,242 16,242 16,242 16,242 16,242 16,242 16,243 16,243 16,243 16,243 13,244 13,244 12,244 12,244 12,244 11,242 11,242 11,242 13,242 13,242 12,241 12,240 11,238 11,238 11,238 11,238 11,238 11,238 11,238 11,238 11,238 11,238 11,238 10,236 9,236 9,235 9,235 9,235 9,234 8,234 8,234 7,234 7,233 7,233 7,233 7,233 7,233 7,233 7,233 6,233 6,233 6,233 6,233 6,232 5,230 5,230 5,230 5,230 5,229 4,229 4,228 2,227 2,227 1,226 1,226 1,226 0,225 0,225 0,225 3,224 3,224 3,224 3,224 4,222 4,222 5,222 5,222 6,222 6,222 8,221 8,221 10,220 10,220 11,220 11,220 13,220 13,220 13,220 14,220 14,220 15,220 15,220 15,220 16,219 16,219 16,219 16,219 18,219 19,219 19,219 21,219 21,219 21,218 20,217 20,216 19,215 19,215 19,215 21,214 21,214 21,214 22,213 22,213 22,213 22,213 22,213 22,212 22,212 22,212 22,212 22,212 22,212 22,212 22,212 22,212 22,212 23,212 23,212 23,211 23,211 23,211 23,211 23,210 24,210 24,210 24,210 24,209 24,209 24,208 24,208 24,208 24,208 25,207 25,207 25,207 25,207 25,207 25,207 25,207 25,206 26,205 26,205 26,205 26,204 26,204 26,204 26,204 26,204 27,203 27,203 27,203 27,203 27,203 28,203 28,202 28,202 29,202 29,202 29,202 29,202 30,202 30,202 30,202 30,202 30,203 31,203 31,203 31,203 31,203 31,203 31,203 32,203 32,203 32,203 32,203 32,203 32,203 32,203 32,203 32,203 32,204 32,204 32,204 33,204 33,204 33,204 34,204 34,204 34,204 35,204 35,204 35,204 35,204 36,204 36,204 36,204 36,203 36,202 36,202 36,202 36,202 36,202 36,201 36,201 36,201 37,201 37,201 37,201 37,201 37,201 37,201 38,201 38,201 38,201 37,201 37,201 37,201 37,201 37,201 37,201 36,201 36,200 36,200 36,200 36,200 36,200 35,200 35,200 35,200 35,200 35,200 34,200 34,200 34,200 34,200 34,200 33,200 33,200 33,200 33,200 33,199 33,199 33,199 33,199 33,199 33,199 33,199 33,198 33,198 33,197 33,197 33,197 33,197 33,197 33,196 32,196 32,196 32,196 32,196 32,196 32,196 33,196 34,195 34,195 34,195 34,195 34,195 35,195 35,195 35,195 35,195 36,195 36,195 37,195 37,195 37,195 38,194 40,194 41,194 42,194 43,194 46,194 48,193 49,193 49,194 49,194 50,194 50,194 50,194 50,194 50,194 51,193 51,193 51,193 52,193 52,193 52,193 52,191 52,191 52,191 52,191 52,191 52,191 52,191 52,191 53,191 53,191 53,190 54,189 54,188 54,188 54,188 55,187 55,187 55,187 55,186 55,186 55,186 55,186 56,185 56,185 56,185 56,185 56,184 57,184 56,184 56,184 56,183 56,183 56,183 56,183 56,182 55,181 55,181 55,181 55,181 56,181 58,180 58,180 63,178" id="8213" class="canton" fill="steelblue" stroke-width="1" stroke="white" geotype="canton" geoname="Tarn-Tescou-Quercy vert" code_insee="8213" code_departement="82" nom_departement="Tarn-et-Garonne" code_region="76" nom_region="Occitanie"/></svg>