<?xml version="1.0" encoding="utf-8"?>
<svg version="1.1" id="svgmap" xmlns="http://www.w3.org/2000/svg" xmlns:xlink="http://www.w3.org/1999/xlink" x="0px" y="0px" width="100%" height="100%" viewBox="0 0 500 371">
<polygon points="29,137 29,137 29,137 29,137 29,137 29,137 29,136 30,136 30,136 31,135 32,135 32,135 32,135 33,134 33,134 33,134 33,134 34,133 34,133 34,133 34,133 34,133 34,133 34,133 34,133 34,133 34,133 34,133 35,132 35,132 35,132 36,132 36,132 36,131 36,131 36,131 36,131 36,131 36,131 36,131 36,131 36,131 36,130 36,130 36,129 35,129 35,128 35,128 35,128 35,128 35,128 35,127 35,127 35,127 35,127 35,127 35,127 35,127 35,127 35,126 35,126 35,126 36,126 36,125 36,125 36,125 36,125 36,124 36,124 37,124 37,124 37,123 37,123 37,123 37,123 36,123 36,123 36,122 36,122 37,122 37,122 37,122 37,122 38,122 38,122 38,122 39,122 39,122 39,121 39,121 39,121 39,121 38,121 38,120 38,120 38,120 38,120 38,120 38,120 38,120 38,119 38,119 38,119 38,119 38,119 38,119 38,119 38,119 38,118 39,118 39,118 40,118 40,118 40,118 40,118 41,118 41,118 42,118 42,117 42,117 42,117 43,117 43,117 43,117 43,117 43,117 43,117 43,116 43,116 44,116 44,117 44,117 45,117 45,117 45,116 45,116 45,116 45,116 45,116 45,116 45,116 45,116 44,115 44,115 44,115 44,115 44,115 44,115 44,115 44,115 45,115 45,115 44,114 44,114 44,114 43,114 42,114 42,114 42,114 42,114 42,113 41,109 40,108 40,108 40,107 39,105 39,105 39,105 39,104 39,104 39,104 39,103 39,102 39,101 40,101 40,100 40,100 40,100 42,100 42,99 43,99 43,99 44,99 46,99 47,99 47,99 48,99 48,98 48,98 49,98 50,98 50,98 50,98 51,98 51,98 51,98 51,98 51,98 51,97 52,97 52,96 52,96 52,93 52,92 52,91 53,90 53,89 53,89 53,88 54,86 56,83 56,82 58,81 59,80 61,79 61,78 61,77 61,77 61,76 61,76 60,74 60,74 60,74 61,74 61,73 63,72 64,70 64,70 71,65 71,65 72,65 72,65 72,65 72,65 73,65 73,65 73,65 73,65 74,65 74,65 74,65 74,65 75,65 75,65 75,65 75,64 75,64 76,64 76,64 76,64 76,64 77,64 77,64 77,64 77,64 78,65 78,65 78,65 79,64 79,64 79,64 79,64 80,64 80,64 80,64 80,64 80,64 80,64 80,63 80,63 80,63 80,63 80,63 80,63 80,62 79,61 79,61 79,61 79,61 79,61 80,61 80,61 80,60 80,60 80,60 80,60 80,60 80,60 80,60 80,59 79,58 79,58 78,58 78,58 78,57 78,57 78,57 78,57 78,57 78,57 78,56 78,56 78,56 79,56 79,56 80,55 80,55 80,55 80,55 81,55 81,55 81,55 81,55 82,55 82,55 82,55 82,55 83,55 83,55 83,55 83,55 83,55 83,55 83,55 83,55 83,55 83,55 84,56 84,56 84,56 85,56 85,56 85,56 86,56 86,56 86,56 88,56 88,56 89,56 89,55 90,55 90,55 91,54 91,54 92,54 92,54 93,54 93,54 94,54 94,54 94,53 94,53 94,53 94,53 94,52 94,52 95,52 95,52 95,51 95,51 95,51 95,50 95,50 100,51 100,51 100,51 108,50 108,50 109,50 110,50 110,50 110,49 112,49 114,49 116,48 117,48 117,48 119,48 120,48 121,48 121,48 121,48 122,48 123,46 124,44 124,44 125,44 125,44 126,44 126,44 126,42 126,42 126,42 125,42 124,42 124,42 122,42 121,41 119,38 119,38 119,38 118,38 118,38 114,35 114,34 114,34 113,34 112,34 112,34 111,34 111,33 111,33 111,33 111,33 110,33 110,33 110,33 107,33 107,33 107,33 107,32 107,32 107,32 107,32 107,32 106,32 106,32 106,32 105,32 104,32 104,32 103,32 103,31 102,31 101,31 100,31 99,31 99,31 99,31 97,30 96,29 96,29 94,28 94,28 94,28 94,27 94,27 94,27 95,27 96,27 96,27 96,27 97,27 97,27 98,27 98,26 97,25 97,25 98,25 98,25 98,24 98,24 98,24 98,24 99,23 99,23 99,23 99,23 100,22 100,22 100,22 100,22 100,22 100,22 99,21 99,21 99,21 98,19 98,17 98,17 98,16 98,16 98,16 99,15 98,15 98,15 99,14 101,13 100,13 99,12 99,12 99,12 98,11 97,11 96,10 95,10 95,10 94,9 94,9 94,9 94,9 94,9 95,8 95,7 96,6 96,6 96,6 96,5 96,5 97,5 97,5 97,4 97,4 97,4 98,3 98,3 98,3 98,3 98,3 99,2 99,2 99,2 99,2 99,1 100,1 100,1 100,0 100,0 100,0 100,0 102,1 103,1 103,1 103,1 103,2 104,3 105,3 105,4 105,4 106,4 106,4 106,5 106,5 108,5 108,5 108,6 108,6 108,6 109,6 111,6 112,7 113,7 113,7 113,7 113,8 114,8 114,8 115,8 115,8 116,8 117,8 117,8 119,9 119,9 119,9 121,9 122,9 122,9 124,9 124,9 125,9 125,9 126,8 126,8 127,8 128,7 130,6 130,6 130,6 131,7 131,7 131,8 131,8 130,8 130,8 130,8 131,9 131,9 131,9 131,10 131,10 131,10 131,10 131,11 132,11 132,11 132,12 132,12 132,12 131,12 131,13 131,13 130,12 130,12 130,12 130,12 130,12 129,12 129,12 129,12 128,12 128,11 128,11 127,11 127,12 127,12 127,12 127,12 127,13 127,13 127,13 127,13 126,13 126,14 126,14 125,13 125,13 124,13 124,14 124,14 124,14 124,14 124,14 124,14 123,14 123,15 123,15 124,15 124,15 124,15 124,15 124,16 125,16 125,16 125,17 125,17 125,17 125,17 126,17 126,17 126,17 127,17 128,17 128,18 129,18 130,19 130,19 131,19 132,19 132,19 132,19 133,19 133,19 134,19 135,20 135,20 135,20 136,20 137,21 137,21 138,21 139,21 139,21 140,21 141,21 142,21 142,21 142,21 142,21 143,21 143,21 143,21 144,21 145,21 145,21 145,21 146,21 146,21 146,21 146,20 146,20 146,20 145,19 145,18 144,18 144,17 143,16 143,16 143,15 143,14 143,14 143,14 143,14 144,14 144,13 144,13 144,13 145,13 146,13 146,13 148,12 148,12 148,12 149,12 149,13 149,13 150,13 150,13 150,14 150,14 150,14 150,15 150,15 150,15 151,16 151,17 151,17 151,17 151,17 152,17 152,17 152,17 153,16 153,16 153,16 154,16 155,16 156,16 156,16 157,16 157,16 158,16 158,16 159,16 159,16 159,16 159,16 160,16 160,17 160,17 161,18 161,18 161,18 161,19 161,19 161,19 161,20 161,20 162,20 162,20 162,20 163,20 163,20 165,20 165,20 165,20 166,20 166,20 166,20 167,20 167,20 168,20 169,20 169,20 169,19 170,19 170,19 170,19 171,19 171,19 172,20 172,20 172,21 172,21 172,22 173,22 173,22 173,22 174,22 174,22 174,22 175,22 177,21 177,21 177,21 177,21 177,20 177,20 177,20 178,20 178,20 178,20 180,20 181,20 181,20 182,20 182,20 183,20 184,20 184,20 186,20 187,20 187,20 188,20 189,21 190,22 191,22 191,22 191,22 191,22 192,22 192,21 192,21 193,20 193,20 193,20 193,20 194,19 194,19 194,19 194,19 194,18 193,18 193,18 192,18 192,18 192,17 192,17 192,17 193,17 193,17 193,17 193,17 193,16 193,16 194,16 194,17 195,17 196,17 197,17 197,17 197,18 198,18 198,19 198,19 199,19 199,19 199,19 199,19 200,19 200,19 200,19 200,20 200,20 200,20 200,20 200,20 200,21 201,21 201,21 202,21 202,21 202,21 202,21 202,21 202,22 203,22 203,22 203,22 203,22 203,22 204,22 204,22 204,22 204,22 204,22 205,21 205,21 205,21 205,21 206,21 207,21 207,21 208,21 208,21 208,21 209,22 209,22 209,22 210,23 210,23 210,23 210,24 210,24 210,24 210,24 210,25 210,25 210,25 209,25 209,26 208,26 208,26 208,26 207,27 207,27 207,27 206,27 206,28 206,28 206,28 206,29 206,29 206,29 206,29 206,29 206,30 206,30 206,30 207,31 207,31 207,31 207,31 208,30 209,30 209,30 209,30 209,30 210,30 211,30 211,31 212,31 212,31 213,31 213,31 213,31 213,31 214,31 214,31 214,31 215,31 215,31 215,31 215,31 216,31 216,31 216,31 217,32 217,32 218,32 218,33 218,33 218,33 219,33 220,33 220,33 220,33 221,33 221,33 221,33 221,33 222,34 222,34 222,34 222,34 222,34 222,35 223,35 223,35 223,35 223,35 223,35 223,36 223,36 223,36 223,36 223,36 222,37 221,38 220,38 219,39 219,39 218,39 218,39 218,40 218,40 218,40 218,41 218,42 219,42 219,42 220,42 220,43 221,43 221,44 222,44 223,44 223,45 224,45 224,45 224,45 224,45 224,45 225,44 225,44 225,44 225,44 225,44 225,44 225,44 224,44 224,43 224,43 224,43 223,43 223,43 223,43 223,42 224,42 224,42 224,42 224,42 225,42 225,42 225,41 226,41 226,41 226,41 226,40 227,40 227,40 227,40 228,40 228,40 228,40 229,41 229,41 230,41 230,41 230,41 230,41 231,40 232,40 232,39 232,39 233,39 233,39 233,38 233,37 233,37 233,37 233,37 233,37 233,37 234,37 234,37 235,37 235,37 235,37 235,38 235,39 235,39 235,39 236,39 236,39 236,39 236,39 237,40 237,40 237,40 238,39 238,39 239,39 239,39 240,38 240,38 241,37 241,37 241,36 241,36 242,35 242,35 242,35 242,35 242,35 243,35 243,35 244,35 244,35 244,35 244,35 245,35 245,35 245,35 245,35 245,35 245,36 245,36 245,36 245,36 245,37 245,37 245,37 245,37 246,37 246,37 246,37 246,37 247,37 247,37 247,38 248,38 248,38 248,38 248,39 248,39 248,40 249,40 249,40 249,41 249,41 249,42 249,42 248,42 247,43 247,43 247,43 246,43 246,44 244,44 244,44 243,44 243,44 242,44 242,44 241,45 241,45 241,45 241,45 240,46 240,46 240,46 240,46 240,46 240,47 240,47 241,48 241,48 241,48 242,48 242,48 242,48 244,49 244,49 245,49 245,49 246,49 246,49 247,50 248,50 249,50 249,50 249,50 249,50 249,51 249,51 249,52 249,52 249,52 250,52 250,52 250,52 250,52 251,52 251,52 251,52 251,52 251,52 251,51 251,51 252,50 252,50 252,50 252,50 253,50 253,50 253,50 254,50 255,50 255,51 256,51 257,52 257,52 258,53 258,53 258,53 259,53 259,54 259,54 260,53 260,53 260,53 261,53 261,54 262,54 262,54 263,54 264,54 264,54 266,55 267,55 268,56 269,56 269,57 270,57 270,57 270,58 271,58 271,59 271,59 271,59 271,60 271,60 273,60 273,60 273,60 274,61 274,61 274,61 275,62 275,62 276,62 277,63 277,63 279,64 279,64 280,64 281,64 282,64 283,65 283,65 284,65 284,66 285,66 285,66 285,66 286,67 287,67 288,67 288,67 289,67 290,67 290,67 291,67 292,66 292,66 294,66 295,65 295,65 296,65 297,65 297,65 297,65 298,65 298,65 298,65 298,65 298,65 298,66 298,66 298,66 298,66 298,67 298,67 298,67 298,68 298,69 298,70 298,70 297,70 297,70 297,70 296,71 295,71 295,71 294,71 293,73 293,73 292,73 292,73 291,74 290,74 290,74 289,76 288,77 288,77 288,79 287,80 287,81 288,81 289,82 290,82 292,82 294,81 296,81 298,81 300,81 301,81 302,81 304,82 306,83 308,83 310,84 310,85 310,86 310,88 311,88 311,89 311,90 312,90 313,91 314,91 315,91 315,91 315,91 315,91 315,91 315,91 315,91 315,91 314,92 314,92 314,92 315,92 315,92 315,92 315,92 315,92 315,92 315,92 315,92 315,92 315,92 315,92 315,92 315,92 315,93 315,93 315,93 315,93 314,93 314,93 314,93 313,93 313,93 313,93 313,92 313,92 312,92 312,92 312,92 312,92 312,92 312,92 312,92 312,92 311,92 311,92 311,93 310,93 310,93 310,93 309,93 309,93 309,93 309,93 309,93 309,93 309,93 309,93 309,94 309,94 309,95 309,95 309,95 309,95 309,95 309,95 309,95 309,95 309,96 308,96 308,96 308,96 308,96 308,96 308,96 308,96 308,96 308,96 308,97 308,97 308,97 308,97 308,97 308,97 308,97 308,98 308,98 308,98 308,98 308,98 307,98 307,98 307,98 307,99 307,99 307,99 307,99 307,99 307,100 307,100 306,100 306,100 306,100 306,100 305,101 305,101 305,101 306,101 306,102 306,102 306,102 306,103 307,103 307,103 307,103 307,103 307,103 308,104 308,104 308,104 309,104 309,105 309,105 309,105 309,105 309,105 309,106 309,106 309,106 309,106 309,106 309,107 309,107 309,107 310,107 310,107 310,107 310,108 310,108 310,108 310,108 310,108 310,108 310,109 310,109 310,109 310,109 311,110 311,110 311,111 312,112 312,113 312,113 312,113 313,115 313,115 313,115 313,116 314,116 314,117 314,117 315,118 315,119 315,119 316,120 316,120 318,122 318,122 319,122 319,122 321,124 321,124 322,125 323,125 323,125 324,126 324,127 325,127 325,127 325,127 325,127 326,128 326,128 326,128 327,129 328,129 328,129 328,130 328,130 329,130 329,130 330,131 330,131 330,131 331,131 331,132 331,132 331,132 331,132 332,133 333,134 335,135 336,136 337,137 337,137 339,138 340,139 340,139 341,140 343,142 345,143 345,144 345,144 345,144 346,145 346,145 346,147 348,149 351,152 352,154 353,156 353,159 352,159 352,160 351,161 350,161 350,161 350,161 349,162 348,162 348,162 348,162 348,162 348,163 348,164 348,165 348,166 348,167 349,167 349,167 349,167 350,167 350,168 351,168 352,168 352,168 353,169 353,169 354,170 354,170 355,170 356,171 356,171 357,171 357,170 357,171 357,171 358,171 358,171 358,172 359,172 359,173 360,173 360,173 360,173 360,174 360,174 360,175 361,175 361,175 361,175 362,175 362,175 363,175 363,175 363,176 363,176 363,176 363,176 363,176 364,175 365,175 365,175 366,175 366,175 366,175 367,175 367,175 367,175 368,175 368,175 368,175 368,175 368,175 368,175 368,176 368,176 368,176 368,176 368,176 369,176 369,176 371,175 375,174 380,172 386,170 389,169 390,169 390,168 392,167 393,167 393,167 396,166 396,166 396,165 397,165 397,165 400,163 401,162 402,162 402,162 403,161 405,160 406,159 408,159 409,158 410,157 412,156 413,155 414,155 415,154 416,154 417,153 419,152 420,151 421,150 422,149 423,149 423,149 424,149 424,148 425,147 426,147 427,147 428,147 428,147 428,146 428,146 428,146 429,146 430,146 431,146 432,146 433,146 434,146 436,146 438,146 439,146 440,146 442,146 444,146 444,146 445,146 446,146 448,146 449,145 450,145 451,145 452,145 453,145 455,144 455,144 456,144 456,144 457,144 457,144 458,144 458,144 459,144 459,144 459,144 460,143 460,143 460,143 460,143 460,143 461,143 461,143 461,143 461,143 462,143 462,143 462,143 463,143 464,144 464,144 464,144 464,144 464,144 465,144 465,144 465,144 465,144 466,144 466,144 466,144 467,144 467,144 467,144 467,144 468,144 468,144 468,144 468,144 468,144 468,145 469,145 469,145 470,145 470,145 470,145 470,145 470,146 470,146 471,146 472,147 472,147 472,147 473,147 473,147 474,148 474,148 475,148 475,148 475,148 475,148 476,148 476,149 477,149 478,149 479,149 480,149 481,149 481,150 481,150 481,150 482,150 482,151 483,151 483,151 483,151 483,151 483,151 483,151 484,152 484,152 484,152 484,152 484,152 484,152 484,152 484,153 484,153 484,153 483,153 483,153 483,153 483,154 482,154 482,154 482,154 482,154 482,154 481,154 481,154 481,154 480,154 479,155 478,155 478,156 478,156 477,156 477,156 476,156 484,161 484,162 485,163 485,163 485,164 486,168 486,168 486,171 486,171 485,171 485,171 484,173 484,173 483,174 483,174 483,175 484,176 485,179 485,179 485,181 485,181 486,183 486,183 483,185 482,186 482,186 482,187 480,188 479,189 479,189 477,189 477,189 471,191 467,192 467,192 461,195 461,195 459,197 458,198 458,199 458,201 458,201 458,201 460,202 460,202 461,203 461,204 462,205 462,205 463,207 463,207 463,208 463,208 465,210 465,210 466,210 470,210 473,210 473,211 475,213 475,213 475,213 475,213 475,213 475,213 476,213 476,213 484,213 484,213 484,213 489,219 489,219 489,220 489,221 489,223 489,223 492,226 492,226 494,227 494,228 496,229 498,230 499,230 500,231 500,231 499,231 499,231 499,231 497,233 497,233 496,234 496,234 496,234 496,234 496,234 495,235 495,235 495,235 495,235 493,235 493,235 493,236 493,236 493,236 493,236 492,236 491,236 491,236 490,236 490,236 490,237 489,237 489,237 488,237 488,237 488,237 487,237 487,237 487,238 486,238 486,238 485,238 485,238 485,239 485,239 484,240 483,240 483,240 482,241 482,241 481,241 481,241 481,241 480,242 478,242 477,242 476,243 474,244 474,244 474,244 474,244 474,245 474,245 473,245 472,246 472,246 471,246 471,246 470,246 470,246 470,246 469,247 468,249 468,249 464,252 460,254 460,254 458,255 458,256 456,256 454,257 453,257 451,257 451,257 451,257 449,257 449,257 446,257 443,258 442,259 442,259 439,260 439,260 432,262 426,263 416,266 405,270 404,270 404,270 403,270 402,270 402,270 400,270 399,270 399,270 396,271 393,271 393,271 390,271 388,271 388,271 386,272 384,272 384,272 382,272 382,272 381,272 381,272 374,271 373,271 371,271 371,271 369,272 369,272 366,271 365,271 365,271 364,271 363,272 361,272 359,272 357,272 357,272 355,274 355,274 353,274 353,274 348,274 348,274 347,274 347,274 341,274 340,274 340,274 340,275 338,276 338,276 332,280 332,281 332,281 331,281 332,281 333,283 333,283 335,286 336,286 337,287 338,288 338,288 338,288 338,287 339,287 339,287 339,286 339,286 338,286 338,286 338,286 338,286 338,285 338,285 337,285 337,285 337,285 337,285 337,285 337,285 337,285 337,285 337,285 337,285 337,285 338,284 338,284 338,284 338,284 338,284 339,284 339,284 339,284 340,285 340,285 341,285 341,285 342,285 342,286 342,286 342,286 343,286 343,286 343,286 343,285 344,285 344,285 344,285 344,285 344,285 344,285 344,285 344,284 344,284 344,284 344,284 344,284 344,284 345,284 345,283 345,283 345,283 345,283 345,282 345,282 345,282 346,282 346,282 347,281 347,281 347,281 347,281 348,281 348,281 348,281 348,281 349,281 349,281 350,280 350,280 350,280 350,280 351,280 351,280 351,280 351,280 351,281 351,281 351,281 351,282 352,282 352,282 352,282 352,282 352,282 352,282 353,282 353,281 353,281 354,281 354,281 354,281 354,281 354,281 355,281 355,281 355,281 355,281 355,281 356,281 356,281 356,281 356,281 356,280 357,280 357,280 357,280 357,280 357,280 357,280 357,280 357,280 357,280 357,280 358,280 358,280 358,281 358,281 358,281 359,281 359,281 359,280 359,280 360,280 360,279 360,279 360,279 360,279 361,279 361,279 362,280 362,280 362,280 362,280 362,280 361,281 361,281 361,281 361,281 361,281 361,281 362,281 362,281 362,281 363,281 363,281 363,281 363,281 363,281 363,281 363,281 363,281 363,282 363,282 363,282 362,282 362,282 362,283 362,283 362,283 362,283 362,283 363,284 363,284 363,284 363,284 363,283 364,283 364,283 364,283 364,283 366,284 366,284 366,284 366,284 366,284 367,284 367,283 367,283 367,283 367,283 367,283 367,283 367,282 367,282 367,282 367,282 367,282 367,282 367,282 367,281 367,281 368,281 368,281 368,281 368,281 369,281 369,280 369,280 369,280 369,280 369,280 369,279 369,279 369,279 369,279 369,279 369,279 369,279 369,279 370,279 370,279 370,279 371,279 371,279 371,279 371,279 371,280 372,280 372,280 372,280 372,280 372,280 372,280 373,280 373,280 373,280 375,280 376,280 377,280 377,280 377,280 379,280 379,280 379,279 379,279 379,279 379,279 379,279 379,279 379,279 379,279 379,278 379,278 379,278 379,278 379,278 379,278 379,278 379,278 379,278 379,278 379,278 380,278 380,278 380,278 380,278 380,278 380,278 380,278 380,279 380,279 380,279 381,279 381,279 381,279 381,279 381,279 382,279 383,279 383,279 383,279 384,279 384,279 384,279 385,279 385,279 385,279 385,279 385,279 386,279 386,280 386,280 386,280 386,280 387,280 388,280 388,280 388,280 388,280 389,281 389,281 390,281 390,281 390,281 390,281 390,281 390,281 390,281 390,282 390,285 390,288 390,290 390,291 390,292 390,293 390,293 390,294 390,294 392,299 393,300 393,300 393,300 393,300 393,301 396,307 396,307 396,307 394,310 393,312 386,322 386,323 386,323 386,323 386,323 386,327 386,328 386,329 386,334 386,334 386,334 386,334 386,334 388,343 388,343 388,343 388,343 378,344 378,344 378,344 378,344 377,344 377,344 376,344 374,344 374,343 373,343 371,343 370,343 369,342 369,342 369,342 369,341 369,341 368,340 367,340 367,340 365,340 362,340 361,340 361,340 359,340 359,340 358,340 356,340 356,340 355,340 354,340 354,340 354,340 352,340 352,340 351,340 350,340 349,340 349,340 347,340 347,339 346,339 345,339 344,339 342,338 341,337 341,337 331,334 331,334 331,334 331,334 329,335 329,335 328,335 328,335 327,336 326,337 326,338 325,338 325,339 324,340 324,341 323,342 323,342 317,345 317,345 316,345 315,345 314,345 310,346 309,346 308,346 308,346 308,346 307,346 306,347 306,347 306,347 305,347 305,348 305,348 304,348 303,348 302,348 302,348 301,348 300,348 299,348 299,348 299,348 294,344 294,344 294,344 294,344 293,344 293,345 292,345 291,346 289,347 286,349 281,353 280,353 280,354 279,355 277,356 274,359 274,359 273,359 272,360 272,360 270,360 269,360 269,360 265,365 265,365 265,365 264,365 263,364 263,364 262,364 262,364 261,364 261,363 260,363 259,363 259,363 258,363 257,363 257,363 257,363 256,364 256,364 255,364 255,364 255,364 254,365 254,365 253,365 253,366 251,366 251,366 251,366 251,367 250,367 250,367 250,368 249,368 249,368 248,368 248,368 248,369 248,369 247,369 246,369 246,369 245,370 244,370 243,370 242,370 242,370 240,371 240,371 239,371 239,371 239,370 238,369 238,369 238,369 238,369 237,369 237,369 237,369 237,369 235,369 235,369 235,369 234,368 233,368 233,368 233,368 233,367 230,367 230,367 229,367 229,367 228,367 228,367 228,367 228,367 226,367 226,367 226,367 226,367 225,366 225,366 225,365 225,365 224,365 224,365 224,364 224,364 220,363 220,363 219,363 219,363 218,363 217,364 216,364 216,364 216,364 216,364 214,364 214,364 213,364 213,364 212,364 210,364 210,364 210,364 208,364 208,365 208,365 207,365 206,365 206,365 205,364 205,364 203,366 203,366 202,366 202,366 201,366 200,366 200,366 198,367 197,367 197,367 196,368 196,368 196,368 196,368 193,369 192,369 192,369 192,369 192,369 190,369 190,369 190,369 190,369 189,368 188,368 187,367 187,367 186,366 186,366 186,366 186,367 184,367 183,368 183,368 183,368 183,368 183,368 182,368 182,369 182,369 181,369 179,368 179,368 179,368 177,368 176,368 176,368 176,368 175,367 173,367 173,366 172,366 172,366 171,365 169,365 169,365 169,365 169,365 168,365 168,365 168,365 167,365 166,364 166,364 166,364 165,364 165,364 165,364 163,363 163,363 163,363 162,364 162,364 161,364 161,364 161,364 159,363 157,362 157,362 157,362 157,362 155,362 155,362 154,362 154,362 153,362 153,362 152,362 152,362 152,362 150,364 149,364 149,365 149,365 148,365 147,365 147,365 147,365 146,365 146,364 145,364 145,364 144,363 144,362 143,362 142,361 142,361 140,359 140,359 139,358 139,358 139,358 139,357 137,355 137,355 136,354 136,354 136,354 136,354 136,354 135,354 135,353 134,353 134,352 134,352 134,351 133,350 134,350 134,349 134,349 135,348 135,348 135,348 134,347 134,347 134,347 133,346 133,346 133,346 132,346 132,346 132,345 132,345 132,345 132,344 132,344 132,343 132,343 132,342 132,342 133,341 133,340 133,340 133,340 132,338 133,334 133,334 132,332 132,330 132,330 132,329 132,329 132,324 132,324 133,324 133,324 133,324 133,324 133,324 133,318 133,318 135,317 135,317 136,317 137,316 138,315 138,315 139,314 139,314 140,313 140,313 141,313 142,312 142,312 142,312 142,312 142,312 142,311 142,311 142,311 142,311 142,311 142,310 142,310 142,310 142,309 142,309 142,308 142,308 143,307 143,307 143,307 143,306 143,306 143,304 143,304 144,304 144,304 144,304 144,304 144,303 144,303 144,303 144,302 144,302 144,302 144,302 143,302 143,302 143,301 143,301 143,301 143,301 143,301 143,301 143,301 143,300 143,300 143,300 143,300 143,300 143,300 143,300 143,299 143,299 142,299 142,299 142,298 142,298 142,298 142,298 142,298 142,297 142,297 142,297 142,297 142,297 142,297 141,297 141,297 141,297 141,297 141,296 141,296 141,296 141,296 141,296 141,296 141,296 141,295 141,295 141,295 141,295 141,295 141,294 141,294 141,293 141,293 141,293 141,293 141,293 141,293 141,293 141,293 141,292 141,292 141,292 141,292 141,292 141,291 141,291 141,291 141,291 141,291 141,291 141,291 141,290 141,290 141,290 142,290 142,290 142,290 142,290 142,289 142,288 142,288 141,283 140,281 139,278 139,278 139,277 139,277 139,276 139,276 138,276 138,275 138,275 138,275 137,275 137,275 137,274 136,274 136,274 136,274 136,273 136,273 136,272 136,272 136,272 135,271 135,271 135,271 134,270 134,270 134,270 134,270 134,270 134,270 134,269 134,269 133,269 132,269 132,268 131,268 131,268 131,268 131,267 129,267 129,267 129,267 129,267 129,267 129,267 128,267 128,267 128,267 128,267 128,267 128,267 127,267 127,267 127,267 127,267 126,267 126,267 125,267 125,267 125,267 125,267 125,267 125,267 124,267 124,267 124,267 124,267 124,266 124,266 123,266 123,266 123,265 123,265 123,265 122,264 122,264 122,264 122,264 121,264 121,263 121,263 120,263 120,263 117,261 117,261 117,261 117,261 117,261 117,261 117,261 117,260 116,259 116,258 116,258 115,258 115,257 113,255 112,254 112,254 109,248 109,248 109,248 109,248 108,248 108,248 108,248 108,247 108,247 108,247 108,247 107,247 107,246 107,246 107,246 107,246 107,246 107,246 107,246 107,245 106,245 106,245 106,245 107,245 107,245 107,244 107,243 107,242 107,242 107,242 106,241 106,241 106,240 106,239 106,239 105,239 104,237 104,237 104,237 104,236 104,236 104,235 104,235 104,234 104,234 104,234 103,234 103,234 103,234 103,234 103,234 102,234 102,234 102,233 102,233 102,233 102,233 102,233 101,233 101,233 101,233 100,233 100,233 100,233 100,233 100,233 99,233 99,233 99,233 99,233 98,233 98,233 98,234 97,234 97,234 98,234 98,234 98,234 97,234 96,234 96,234 96,234 96,235 96,235 95,235 95,234 95,234 95,234 94,234 94,233 94,233 94,233 94,233 94,233 94,232 94,232 94,232 94,232 94,231 94,231 94,231 94,231 94,231 95,231 95,231 95,230 95,230 95,230 96,230 96,230 96,230 96,230 96,229 96,229 96,229 96,229 96,229 96,229 97,229 97,228 98,228 98,228 98,228 98,228 98,228 98,228 98,228 98,228 99,228 99,228 99,228 99,228 99,227 99,227 99,227 99,227 99,227 99,227 100,227 101,228 101,228 101,227 100,227 100,226 100,226 100,226 98,225 98,225 98,225 98,225 98,224 98,223 98,221 98,221 97,218 97,218 95,218 94,217 93,217 92,217 91,217 91,217 90,217 89,217 88,217 88,217 88,217 88,217 88,217 87,217 87,217 87,217 86,217 86,217 86,217 85,217 84,217 84,217 83,217 83,218 82,218 82,218 82,218 82,217 81,217 80,217 77,218 70,219 69,219 67,219 67,219 66,219 66,219 58,221 57,221 57,221 56,221 56,221 55,221 50,221 48,222 47,222 47,222 46,222 40,221 40,221 40,221 40,221 37,222 37,222 36,222 36,223 36,223 35,223 35,223 35,224 35,224 35,225 35,226 37,227 37,227 38,228 38,228 38,228 38,228 38,228 38,228 38,228 38,228 38,228 38,228 38,229 38,229 37,229 37,229 37,229 36,229 34,228 34,228 34,228 34,228 33,229 33,229 33,230 33,230 32,231 32,232 32,232 32,232 32,232 31,232 31,232 31,232 31,233 30,233 30,233 30,233 30,233 29,233 29,233 29,233 29,234 29,234 29,234 28,234 28,234 28,234 28,234 28,234 28,234 27,234 27,234 27,234 27,234 27,234 26,234 26,234 26,235 26,235 25,235 25,235 25,235 25,235 25,235 23,235 23,236 22,236 21,235 20,235 20,236 20,236 18,236 18,236 18,236 18,236 17,236 17,236 17,236 17,235 17,235 17,235 17,235 16,235 15,235 15,235 15,235 14,235 14,235 14,235 14,235 13,235 13,235 13,235 12,235 12,235 12,235 12,235 11,235 11,235 11,235 11,235 11,235 10,235 10,235 10,235 10,235 10,235 10,235 10,235 9,235 9,235 9,235 9,235 8,235 7,234 7,234 7,234 6,234 6,234 6,234 6,234 6,234 6,234 6,234 6,234 6,234 6,234 6,234 5,234 5,234 5,234 5,234 5,233 5,233 5,230 5,229 5,229 5,229 7,224 7,224 7,223 7,223 7,221 7,221 6,220 6,219 5,218 5,216 5,216 5,216 5,216 5,215 4,215 4,214 4,214 4,214 4,214 4,214 4,213 3,213 3,213 3,213 3,213 3,212 3,212 3,212 3,211 3,211 3,210 3,210 3,210 3,209 3,209 3,209 3,209 3,208 3,208 3,208 2,207 2,207 2,207 1,206 1,206 1,206 1,205 1,204 1,203 1,203 1,203 1,202 1,201 2,200 2,200 2,200 2,200 2,200 2,200 2,200 2,200 2,200 2,200 1,199 1,199 1,199 1,198 1,198 1,198 1,198 1,198 0,197 0,197 0,197 0,197 0,197 0,197 1,196 1,196 2,195 2,194 3,194 3,194 3,194 4,193 4,193 4,193 4,193 4,193 4,192 4,192 4,192 4,192 4,191 4,191 4,191 4,191 4,191 4,190 4,190 4,190 4,190 4,190 4,189 4,189 4,189 4,189 4,189 4,189 4,189 4,188 5,187 5,187 5,187 5,187 5,187 5,187 5,187 4,187 4,187 4,187 4,186 5,186 5,186 5,186 5,186 5,185 5,185 5,185 5,184 5,184 5,184 5,184 6,184 6,184 6,183 7,183 7,183 7,183 7,183 7,183 7,183 7,182 7,182 7,182 7,182 7,182 7,182 7,181 7,181 7,180 7,180 7,180 7,180 7,180 7,179 7,178 7,178 7,178 8,178 8,177 8,177 8,177 8,177 8,177 8,177 8,176 9,175 9,174 9,174 9,174 9,174 8,174 7,172 7,172 7,172 7,172 7,172 6,170 6,170 6,170 7,169 8,169 8,169 8,169 9,169 9,169 9,169 9,169 10,169 10,169 10,169 11,168 11,168 12,169 12,169 13,168 15,168 15,168 16,168 16,168 17,168 17,168 17,168 18,168 19,168 19,167 19,167 20,167 20,167 21,165 23,162 24,162 24,162 24,162 25,163 25,163 26,161 26,161 26,159 26,159 27,159 31,158 32,158 32,158 32,158 34,158 34,158 35,158 38,156 40,155 40,155 40,155 40,155 41,155 41,155 44,154 44,154 46,154 47,154 48,155 48,155 49,155 49,155 50,155 50,155 51,155 51,155 55,154 55,153 57,146 59,145 58,145 52,143 46,141 45,140 42,139 42,139 39,139 37,138 37,138 36,138 35,137 34,137 34,137 34,137 30,137 29,137" id="8309" class="canton" fill="steelblue" stroke-width="1" stroke="white" geotype="canton" geoname="Luc" code_insee="8309" code_departement="83" nom_departement="Var" code_region="93" nom_region="Provence-Alpes-Côte d'Azur"/></svg>