<?xml version="1.0" encoding="utf-8"?>
<svg version="1.1" id="svgmap" xmlns="http://www.w3.org/2000/svg" xmlns:xlink="http://www.w3.org/1999/xlink" x="0px" y="0px" width="100%" height="100%" viewBox="0 0 500 154">
<polygon points="0,86 1,86 2,86 3,86 3,86 4,86 4,86 4,85 4,85 6,85 7,85 10,85 11,85 11,85 11,85 11,85 11,85 12,85 12,85 12,85 12,85 12,85 12,85 12,85 12,85 13,85 14,85 14,85 16,85 16,85 16,85 16,85 16,85 16,85 16,85 17,84 17,84 19,84 19,84 20,84 21,83 22,83 22,83 23,83 23,83 23,83 24,82 24,82 25,81 26,80 28,79 28,79 33,75 33,75 33,75 33,75 33,75 33,75 34,76 34,76 34,76 35,75 35,75 36,74 39,72 41,71 42,70 42,70 44,68 46,65 46,65 46,65 46,65 46,64 46,64 47,64 47,63 47,63 47,63 47,63 47,62 47,62 47,62 47,62 47,62 47,62 47,61 48,61 48,61 48,61 48,61 48,61 48,61 48,61 48,61 48,60 48,60 48,60 48,60 48,60 48,60 48,60 48,60 48,60 48,60 48,60 49,60 49,60 49,60 49,60 49,60 49,60 49,60 49,60 49,59 49,59 49,59 49,59 49,59 50,59 50,59 50,59 50,59 50,59 50,59 50,59 50,59 50,59 50,59 50,59 50,59 50,59 50,59 50,59 50,59 51,59 51,59 51,59 51,59 51,58 51,58 51,58 51,58 51,58 51,58 51,58 51,58 51,58 51,58 51,58 51,58 51,58 52,58 52,58 52,58 52,57 52,57 53,56 53,55 54,54 54,54 54,54 54,54 54,53 54,53 54,53 54,53 54,53 54,53 54,53 54,52 54,52 54,52 54,52 53,52 53,52 53,52 54,52 54,51 54,51 54,50 54,50 55,50 55,50 55,50 56,49 56,49 56,49 56,49 57,48 57,48 57,48 57,47 57,47 57,47 57,47 57,47 57,47 57,46 57,46 57,46 57,46 57,46 57,45 57,45 57,45 57,45 58,45 58,44 58,43 59,43 59,42 59,42 59,42 59,42 58,42 58,41 58,41 58,41 57,41 57,40 57,40 57,40 56,39 56,39 55,39 55,39 55,39 55,39 55,38 55,38 55,38 55,38 55,37 55,37 54,37 54,37 54,37 54,36 55,36 55,35 55,35 55,35 55,35 56,35 56,35 56,35 56,35 56,34 56,34 56,34 56,33 56,33 56,33 55,33 55,32 55,32 55,32 55,32 58,29 58,29 58,29 58,29 59,28 59,28 59,28 59,28 59,28 59,28 59,28 59,28 59,28 59,28 59,28 59,28 60,28 60,28 60,28 60,28 60,28 60,28 60,28 60,28 61,27 61,27 61,27 61,27 61,27 61,27 62,27 62,27 62,27 62,27 62,27 62,27 63,27 63,27 63,27 63,27 63,27 63,27 63,27 63,27 63,27 63,27 64,26 64,26 64,26 64,26 64,26 64,26 64,26 64,26 65,26 65,26 65,26 65,26 65,26 66,26 66,26 66,26 66,26 67,26 67,26 67,25 67,25 67,25 67,25 67,25 68,25 68,24 68,24 68,24 68,24 68,24 68,24 68,23 68,23 68,23 68,23 68,23 68,22 68,22 68,22 68,22 68,20 68,20 68,20 68,20 69,20 69,20 69,19 68,19 68,19 68,19 68,19 68,19 68,19 67,19 67,18 67,18 67,18 67,18 67,18 67,18 66,17 66,17 66,17 67,16 67,16 67,16 67,16 67,16 67,16 67,16 68,15 68,16 68,15 69,15 69,15 69,15 69,15 69,15 69,15 69,15 69,15 69,15 68,15 68,15 68,15 68,15 68,14 68,14 68,14 68,14 68,14 68,14 68,14 68,14 68,13 68,13 68,13 68,13 68,12 68,12 67,11 67,11 67,11 67,11 66,12 67,11 67,11 67,11 67,11 67,11 67,11 67,11 67,11 67,11 67,10 68,10 68,10 68,10 68,10 68,10 68,10 68,10 68,10 68,10 68,10 68,9 68,9 68,9 67,9 67,9 68,9 68,9 68,9 68,9 68,9 68,9 68,9 68,8 68,8 68,8 68,8 68,8 68,8 68,8 68,8 69,8 69,8 69,8 69,8 69,8 69,8 69,8 70,7 70,7 70,7 70,7 70,7 71,6 73,6 73,5 74,5 74,4 74,4 75,4 75,3 76,3 76,3 76,3 76,3 76,3 76,3 77,2 77,2 77,0 77,0 78,0 78,0 78,0 78,0 79,0 79,0 79,0 79,0 79,0 80,0 80,0 80,0 81,0 81,1 81,1 81,1 82,1 83,1 83,1 83,1 83,1 83,1 84,1 84,1 84,1 85,1 85,1 85,1 85,1 85,1 85,1 85,1 85,2 86,2 86,2 86,2 86,2 86,2 86,2 87,2 87,2 87,2 87,2 87,2 87,2 87,2 87,3 87,3 88,3 88,3 88,3 88,3 88,3 88,3 89,4 89,4 89,4 89,4 89,4 90,4 90,3 90,3 90,4 91,4 92,4 93,4 93,4 94,4 94,5 94,5 95,5 95,5 95,5 95,5 96,5 96,6 96,6 97,6 97,6 97,6 98,6 98,6 98,6 98,6 99,7 99,7 99,7 99,8 101,9 101,9 101,9 102,9 102,9 103,9 103,10 103,10 103,10 103,10 103,11 104,11 104,12 105,13 106,13 106,14 106,14 106,14 107,15 107,15 107,15 107,16 107,17 107,17 107,18 107,18 107,18 107,19 106,19 106,20 106,20 106,20 106,20 106,20 105,20 105,21 105,21 104,21 104,21 103,21 102,22 102,22 101,22 100,23 100,23 102,23 102,23 102,23 102,23 109,25 109,25 111,26 111,27 111,27 111,27 112,27 112,27 112,26 112,26 112,26 113,26 114,26 114,26 114,25 114,25 115,25 115,26 115,26 115,26 115,26 115,25 115,25 115,25 115,25 115,25 115,25 115,25 115,25 115,25 116,25 116,25 116,25 116,25 116,25 116,25 116,25 116,25 117,25 117,25 117,25 117,24 118,24 118,24 118,24 119,24 119,25 120,25 120,25 120,25 120,25 120,25 120,25 121,25 121,25 121,25 121,25 121,25 122,25 122,26 122,26 122,26 122,26 123,26 123,26 123,26 123,26 124,26 124,26 124,26 124,26 124,26 124,26 124,26 125,26 125,26 125,26 125,26 126,26 126,26 127,26 127,26 128,26 128,26 128,26 128,26 128,26 128,26 128,26 128,26 128,26 129,27 129,27 129,27 129,27 129,27 129,27 130,27 130,27 130,27 130,27 130,27 131,27 131,27 131,27 131,27 131,27 131,27 132,27 132,27 132,27 132,27 132,27 133,27 133,27 133,27 133,27 134,26 134,26 134,26 134,26 134,26 134,27 134,27 134,27 134,27 134,27 135,26 135,26 135,27 135,26 135,26 135,26 135,26 135,27 135,27 136,27 136,27 136,27 137,27 137,27 137,27 137,27 137,27 137,27 137,27 137,27 137,27 138,27 138,27 138,27 138,27 138,27 138,27 139,27 139,27 139,27 139,27 139,27 139,27 139,27 140,27 140,27 140,27 140,27 140,27 140,27 141,27 141,27 141,27 141,27 141,28 141,28 142,28 142,28 142,28 142,28 142,28 142,28 142,28 148,28 149,28 149,28 154,27 155,27 159,26 159,26 160,26 161,26 161,26 162,26 162,25 163,25 164,25 165,25 165,25 165,25 167,25 167,25 168,25 168,25 169,25 170,25 170,24 170,24 170,24 171,24 171,25 172,25 172,25 172,25 173,25 173,25 173,25 174,25 175,25 175,25 177,25 179,25 180,25 181,24 182,24 182,24 183,24 183,24 188,23 188,23 189,23 190,23 191,22 191,22 192,22 192,22 192,22 193,22 193,22 194,21 194,21 195,21 196,21 197,21 197,21 198,21 198,20 198,20 199,20 199,20 199,20 199,20 200,20 200,20 200,20 201,20 202,20 204,19 205,19 209,18 209,18 209,18 211,16 211,16 213,14 213,14 213,14 213,14 213,14 213,14 214,14 214,14 215,14 215,14 215,14 216,15 216,16 216,16 216,17 216,17 216,17 217,17 217,17 217,17 218,18 218,18 219,19 219,19 220,20 220,21 220,21 220,21 221,22 221,22 223,24 223,24 224,24 224,25 224,25 225,26 226,26 226,27 227,27 227,27 227,27 227,27 228,27 228,27 229,27 229,27 229,26 231,25 232,25 232,25 232,25 232,25 233,25 234,25 234,25 234,25 236,24 236,24 236,24 236,25 238,26 239,26 239,26 239,26 240,26 240,26 241,26 241,26 241,26 243,26 243,26 243,26 243,26 244,26 244,26 245,27 245,27 245,27 246,27 246,27 247,27 247,27 247,27 248,28 249,28 249,28 250,28 250,28 251,29 252,30 253,30 253,30 254,30 255,30 255,30 255,30 257,30 257,30 257,30 258,30 258,30 259,30 259,30 259,29 259,29 259,29 261,28 261,28 261,28 261,28 262,29 262,29 263,30 264,30 264,31 265,31 265,31 265,31 266,31 266,31 266,31 267,31 267,31 270,30 270,30 270,30 270,30 271,29 271,29 271,29 273,28 274,28 275,28 275,28 276,28 276,28 276,28 278,27 278,27 279,27 279,27 280,27 280,27 280,27 281,27 282,26 282,26 282,26 284,26 285,26 285,26 285,26 286,26 287,26 287,26 288,26 288,26 288,26 289,26 290,25 290,25 290,25 290,25 294,27 294,27 294,27 295,27 295,27 295,28 295,28 295,28 296,29 296,29 296,29 296,29 298,29 298,29 298,29 298,29 299,29 299,29 300,29 300,29 302,29 302,29 302,29 303,29 303,30 304,30 304,30 304,30 306,30 306,30 306,30 306,30 306,31 307,31 307,31 307,31 307,31 308,32 308,32 308,32 309,32 310,32 310,32 311,32 312,31 312,31 314,31 314,30 315,30 315,30 315,30 315,30 316,30 316,30 317,29 317,29 317,29 317,29 317,28 318,28 318,28 318,28 320,28 320,27 320,27 321,27 321,26 321,26 322,26 322,26 322,26 323,26 323,26 323,26 324,26 325,26 325,26 326,26 326,26 327,26 327,26 327,26 328,26 328,27 329,27 330,28 330,28 330,27 334,23 334,23 334,23 336,22 337,22 337,22 338,22 338,22 340,20 342,18 343,17 344,17 344,16 348,14 351,12 353,10 354,10 354,9 355,9 355,9 355,9 355,9 355,9 360,12 360,12 360,12 361,12 361,12 362,12 363,12 364,12 364,12 365,12 365,12 365,12 366,12 366,12 366,11 367,11 368,11 368,11 368,11 369,10 369,10 373,10 374,10 375,10 376,10 376,10 381,8 381,7 381,6 382,5 382,5 383,4 383,3 384,3 384,2 385,1 385,1 386,1 386,1 388,0 388,0 388,0 388,0 396,3 397,3 398,3 399,4 400,4 401,5 401,5 402,5 403,5 403,5 404,5 405,5 406,5 406,5 408,5 408,5 408,5 408,5 409,5 410,5 411,5 412,5 412,5 414,6 414,6 415,6 417,6 419,6 419,6 420,6 421,6 421,6 421,7 421,8 421,8 421,8 422,8 424,8 425,8 426,8 427,9 427,9 428,9 428,9 429,9 429,9 429,9 437,8 437,8 438,8 438,8 438,8 438,9 438,9 440,12 440,12 446,22 446,22 446,22 446,22 446,22 446,22 446,25 446,26 446,26 446,26 446,26 445,27 445,27 447,29 448,29 448,29 447,31 447,31 447,31 449,35 449,35 449,36 448,37 448,37 447,37 446,38 445,38 445,38 444,38 444,38 444,40 444,40 444,40 444,40 443,41 443,41 443,41 443,41 443,41 443,42 443,42 443,42 443,42 443,42 442,43 442,43 442,43 442,43 441,43 441,43 441,43 441,44 440,45 440,45 440,45 439,46 439,47 438,47 438,48 438,48 438,48 438,48 438,51 438,51 438,51 438,51 438,52 438,52 438,52 439,52 439,52 439,52 439,53 439,54 440,54 441,55 441,55 442,55 443,56 443,56 443,56 443,57 443,57 444,57 446,59 447,61 447,61 447,61 449,60 452,60 452,60 452,60 453,61 453,61 455,61 458,63 461,63 461,63 461,63 462,62 462,62 462,63 463,63 464,63 464,63 464,63 465,63 465,63 466,63 466,63 467,63 468,63 468,63 468,63 469,63 469,63 469,63 469,63 470,63 470,63 470,63 470,64 470,64 470,64 470,64 471,64 471,64 472,64 475,64 476,65 476,65 475,63 475,62 475,62 476,59 476,59 478,59 479,58 481,58 487,57 492,56 492,56 499,51 499,50 500,51 500,51 499,52 497,54 497,54 497,54 497,54 496,55 496,55 495,55 495,56 495,56 495,56 495,56 495,56 495,57 495,57 495,58 495,58 495,58 495,58 495,58 495,58 496,59 496,60 496,60 496,60 496,60 496,61 496,61 496,61 496,62 496,62 496,63 495,64 495,65 495,65 495,65 495,65 494,65 494,65 494,65 494,65 494,66 494,66 494,66 494,66 494,66 494,66 494,66 494,67 494,67 494,67 494,67 493,67 493,67 493,68 492,69 492,69 492,72 492,73 492,73 491,74 490,74 490,75 490,76 490,77 489,78 489,79 489,81 488,82 488,82 488,82 487,82 487,82 487,82 486,82 486,82 486,82 485,82 485,82 485,82 485,83 485,83 485,83 485,84 484,84 484,84 484,84 484,84 484,84 484,83 484,83 484,83 483,83 483,83 483,83 483,83 483,83 483,83 482,83 482,83 482,82 482,82 481,82 481,82 481,82 481,82 480,81 480,81 480,81 479,82 479,82 479,82 479,81 479,81 479,81 479,81 479,80 479,80 478,80 478,80 477,80 477,80 476,80 476,79 476,79 475,78 475,78 474,78 474,78 473,78 472,78 471,79 470,79 470,79 470,79 470,80 469,80 469,80 469,80 468,81 468,80 467,80 467,80 467,80 466,80 466,80 466,80 465,80 465,80 465,80 464,80 464,80 463,79 463,79 464,79 464,78 464,78 463,78 463,78 463,77 462,77 461,77 461,77 461,77 460,77 458,77 456,77 456,78 456,78 455,78 454,78 454,79 453,79 452,79 451,79 451,80 451,80 450,80 450,79 449,79 449,79 449,79 449,79 448,79 448,79 447,80 447,80 446,80 446,80 445,81 443,81 442,82 442,83 441,83 441,83 441,84 442,84 442,85 442,85 442,85 443,86 443,86 442,86 441,87 440,88 440,88 440,88 439,88 439,89 439,89 439,90 438,90 438,90 438,90 438,90 438,90 437,90 437,91 436,92 435,92 435,92 435,92 434,92 434,92 434,92 433,92 433,93 432,93 432,93 432,93 432,93 432,93 432,93 432,93 432,92 432,92 432,92 433,91 433,90 433,90 433,90 433,88 432,87 431,87 431,86 430,86 428,85 426,84 425,84 424,83 423,83 423,83 421,83 420,83 418,84 417,84 415,84 414,85 413,86 413,86 413,86 412,86 412,87 412,87 412,87 412,88 413,88 413,88 413,88 413,88 413,88 412,88 412,88 412,88 411,88 411,88 411,88 411,88 410,88 410,88 410,88 410,88 410,88 409,88 410,88 410,88 410,87 409,87 409,87 408,86 408,86 407,86 407,86 406,86 406,86 405,86 405,86 404,85 404,85 404,85 403,85 402,86 402,86 401,86 401,87 400,87 400,87 399,87 399,86 398,86 398,86 398,87 398,87 397,87 397,87 397,86 397,86 396,86 395,86 395,85 394,85 394,86 393,86 391,86 391,87 391,87 391,87 391,87 390,87 390,88 390,88 390,88 390,88 390,88 388,88 388,89 388,89 388,89 388,90 388,90 388,90 388,90 387,91 388,91 387,91 387,91 386,92 386,92 385,92 385,92 385,91 385,91 385,91 385,90 385,90 384,90 383,90 383,90 383,90 382,90 382,90 381,91 381,91 380,91 379,91 378,91 378,92 377,91 377,91 376,91 376,91 375,91 375,91 375,91 374,91 374,91 373,91 373,91 373,91 372,92 372,92 371,92 371,93 371,93 370,94 370,94 369,95 369,95 369,96 369,96 370,96 370,97 370,97 370,97 369,97 369,97 369,97 368,97 368,97 368,98 367,98 367,98 366,98 366,98 365,98 366,99 365,99 365,100 365,100 364,100 363,100 362,101 362,101 361,101 360,101 360,101 359,101 359,101 359,101 360,101 360,101 360,101 360,101 360,101 360,101 361,101 361,101 361,101 361,101 362,101 362,101 363,100 364,100 364,100 365,99 365,99 364,99 364,99 364,99 364,99 363,99 363,99 363,99 363,99 363,99 363,99 362,99 362,99 362,99 362,99 361,99 361,99 361,99 361,99 361,99 360,99 360,100 361,100 361,100 361,100 360,100 360,100 360,100 360,100 360,100 360,100 360,100 360,100 358,100 358,100 358,100 358,100 357,101 357,101 357,101 357,100 358,100 360,99 360,100 360,99 360,99 361,99 361,99 361,99 360,98 360,98 360,98 360,98 359,98 359,98 359,98 359,98 359,98 359,98 359,99 358,99 358,99 358,99 359,99 359,99 358,100 357,100 357,100 358,100 358,99 357,100 357,100 358,99 358,99 357,99 357,99 357,99 358,99 358,99 357,99 357,99 357,99 356,99 356,99 356,99 356,99 356,99 356,100 356,100 356,99 356,99 355,100 355,100 355,100 354,100 354,101 354,101 353,101 353,102 353,102 353,102 353,103 353,103 353,103 353,103 353,103 353,103 353,103 353,103 353,103 352,103 352,103 352,104 351,105 351,106 351,106 351,106 351,107 351,108 350,110 351,111 352,111 352,111 351,111 351,111 351,111 350,110 350,110 350,110 350,110 350,111 350,111 350,111 350,111 350,112 350,112 350,112 350,112 351,113 351,113 351,113 350,114 350,114 350,114 349,113 348,113 348,113 348,113 348,114 348,114 348,114 348,114 349,114 349,114 349,114 349,115 349,115 349,115 349,115 349,115 350,115 349,115 349,115 349,116 350,116 350,116 350,115 349,115 350,115 350,115 350,115 350,115 350,115 351,115 351,115 351,115 350,115 350,116 350,116 350,116 350,116 350,116 351,117 351,116 351,116 351,116 351,116 351,116 351,116 352,116 352,116 352,116 352,116 352,116 352,115 353,115 353,114 353,114 353,114 353,114 353,114 353,113 353,113 353,113 353,113 353,113 353,112 353,112 353,112 353,112 353,112 353,112 353,112 353,112 353,112 353,112 354,112 354,113 354,113 353,114 353,115 352,117 352,117 352,117 351,118 351,118 350,118 350,118 350,118 350,118 350,118 350,118 350,117 350,117 350,117 350,117 350,117 350,117 349,117 349,117 349,116 349,116 349,116 349,116 349,116 349,116 349,116 349,116 348,116 348,116 349,115 349,115 348,115 348,115 348,116 348,116 347,116 347,117 346,117 346,117 346,117 346,118 346,118 346,118 347,118 347,118 347,119 347,119 347,119 347,119 347,119 346,119 346,119 346,119 345,121 345,122 345,123 345,123 346,123 346,123 346,124 346,124 346,124 346,124 346,124 346,125 347,125 347,125 347,126 348,126 348,126 349,126 349,126 350,127 350,127 350,127 350,127 350,127 350,127 350,128 350,128 349,128 348,128 348,128 347,128 347,128 346,128 346,128 346,129 345,129 345,129 345,130 345,130 344,131 344,131 344,131 344,131 344,132 344,132 345,132 345,133 345,133 345,133 345,133 345,133 345,133 345,134 346,134 346,134 346,135 347,135 348,135 348,135 349,135 349,135 349,135 350,135 350,135 351,135 351,135 351,135 352,136 352,136 353,136 353,136 353,136 353,136 354,136 355,136 355,136 356,136 356,137 356,137 355,137 355,137 355,137 355,137 354,137 354,137 353,138 354,138 354,138 353,138 354,139 354,139 354,140 354,140 354,140 354,140 354,141 355,141 355,141 354,141 354,141 353,141 353,142 353,142 353,142 353,142 353,142 353,143 353,143 353,143 353,143 353,143 353,143 353,144 353,144 353,144 352,144 352,144 352,144 352,144 351,144 351,144 351,144 351,144 351,144 351,144 351,145 351,145 351,145 351,145 351,145 351,145 352,146 352,145 352,145 352,146 352,146 352,146 351,146 351,146 351,146 351,146 351,146 351,146 350,146 350,146 350,147 351,147 351,147 352,147 352,147 352,148 352,148 352,148 353,148 353,148 353,148 353,148 353,148 353,148 353,148 353,148 353,148 353,148 353,148 353,148 353,148 353,148 353,148 353,148 353,148 354,148 354,148 354,148 354,148 354,148 354,148 354,148 354,147 354,147 354,147 354,147 355,147 355,148 355,148 355,148 355,148 355,148 355,148 356,148 356,148 356,148 356,148 356,148 356,148 356,148 356,148 356,148 356,148 356,148 356,148 356,149 356,149 356,148 357,148 357,149 357,149 357,149 357,149 358,149 357,149 357,149 357,149 357,149 357,149 356,149 356,149 356,150 355,150 355,150 355,150 355,150 355,150 356,150 355,151 356,151 356,151 355,151 355,151 355,151 354,151 354,150 354,150 353,150 353,150 353,150 352,150 352,150 352,150 351,150 351,150 351,151 351,151 350,151 350,151 351,152 351,152 351,152 351,153 351,153 351,153 351,154 351,154 351,154 351,154 351,154 351,154 351,154 351,154 351,154 351,154 351,154 351,154 350,154 350,154 349,154 349,154 349,153 348,153 348,153 348,153 347,153 347,153 347,152 347,152 346,152 346,152 346,152 345,151 345,151 345,151 345,151 344,151 344,151 343,151 343,152 343,152 342,151 342,151 342,151 342,151 341,151 341,151 341,151 341,151 340,151 340,151 340,151 339,151 339,152 339,152 338,152 338,152 337,152 337,152 336,151 336,152 336,152 335,152 335,152 335,152 335,152 335,152 334,152 334,152 334,152 334,152 334,152 334,152 333,152 333,152 333,152 333,152 333,151 332,151 332,151 332,151 332,151 332,151 331,151 331,151 331,151 331,150 331,150 330,150 330,149 330,149 330,149 329,150 329,150 329,150 329,150 329,150 328,149 328,150 328,150 328,150 328,150 328,150 328,150 327,150 327,150 326,151 326,151 326,151 326,152 325,152 325,151 325,151 325,151 324,151 324,151 324,150 323,150 322,150 322,150 321,151 321,151 320,150 319,150 319,149 318,149 318,149 318,150 318,150 318,150 317,150 317,150 316,150 316,150 316,151 315,151 315,151 314,150 315,150 315,150 315,150 315,150 315,150 316,150 315,150 315,150 315,150 316,150 316,149 315,149 315,148 315,148 315,148 314,148 314,148 314,148 313,148 313,148 313,147 313,147 313,147 312,147 312,147 311,147 311,147 310,148 309,147 309,147 308,147 308,147 308,147 307,147 307,147 307,147 307,146 306,146 306,146 306,147 306,147 306,147 306,147 306,148 306,148 306,148 306,148 305,148 305,148 305,148 305,148 305,148 305,148 305,148 304,148 304,148 304,149 304,149 304,149 304,149 304,149 304,148 303,148 303,148 303,148 303,148 304,147 304,147 304,147 304,147 304,147 304,147 304,147 304,147 304,147 304,147 304,147 304,147 305,146 305,146 305,146 306,146 307,146 307,146 308,145 308,145 308,145 308,144 308,143 308,143 308,143 308,143 307,142 307,142 307,142 307,142 308,142 308,141 308,141 307,140 307,140 307,139 306,139 306,139 305,139 305,139 303,139 303,139 303,139 303,138 302,138 302,138 302,137 302,137 301,137 301,137 301,137 301,137 301,136 302,136 302,136 302,136 302,135 302,135 301,135 301,135 300,134 299,134 299,134 299,133 299,133 299,133 299,133 298,132 298,132 297,132 296,132 296,132 295,132 295,132 295,131 295,131 294,131 292,131 290,130 289,130 288,131 286,131 285,131 284,131 284,131 283,131 283,131 283,131 282,132 282,132 282,132 282,132 281,132 281,133 280,133 280,133 280,133 279,133 279,133 279,132 279,133 278,133 278,132 278,132 278,132 278,132 279,132 279,132 279,131 279,131 280,130 279,130 279,129 278,129 278,128 277,128 276,128 275,128 275,129 275,129 275,130 275,130 275,130 274,130 274,130 274,131 273,131 273,131 273,130 273,130 273,130 272,130 272,130 271,130 271,130 271,130 271,130 271,131 271,131 270,131 270,132 269,132 270,132 269,132 269,132 269,132 269,131 268,131 268,129 266,129 266,128 266,128 266,127 266,127 267,127 267,127 268,126 268,126 268,125 268,125 268,124 268,124 267,123 266,123 265,122 265,122 264,122 264,122 264,123 263,123 263,123 262,123 262,123 262,122 262,122 261,122 261,121 261,121 261,121 261,121 260,121 259,121 259,121 259,122 259,122 259,122 258,122 258,122 258,122 257,121 257,121 257,121 257,121 257,120 257,120 257,120 257,120 257,120 256,120 256,120 256,119 256,119 256,119 256,118 256,118 255,117 255,117 254,117 253,117 253,117 252,116 250,116 249,116 248,116 246,117 245,117 245,117 245,117 244,117 243,117 243,116 242,116 241,116 241,117 241,117 241,116 240,116 240,116 239,116 238,116 237,117 235,117 235,118 234,118 233,119 233,119 232,119 231,119 230,119 230,119 229,119 229,119 229,120 229,120 229,120 227,120 227,120 227,120 226,120 226,121 225,121 225,123 225,123 225,123 224,121 224,121 225,120 225,120 225,120 225,120 225,120 225,119 225,119 225,119 224,119 224,119 224,118 224,118 224,120 224,120 224,120 224,120 223,118 223,118 223,118 223,118 223,118 224,120 224,121 224,122 225,122 224,123 224,123 223,123 223,123 223,124 223,124 222,124 222,124 222,124 222,124 222,124 222,124 222,124 222,124 223,124 223,124 223,123 223,123 223,123 223,123 223,123 224,123 224,122 224,122 224,122 224,122 224,122 223,122 223,122 223,122 223,122 223,122 223,122 222,122 222,122 222,122 222,122 222,122 221,123 221,122 221,122 221,123 221,123 220,123 220,123 221,124 221,124 222,124 222,124 222,124 221,124 220,124 220,123 220,123 220,123 220,123 220,123 219,123 219,123 219,123 219,123 219,123 219,123 219,123 219,123 219,123 219,124 219,124 219,124 219,123 219,123 219,123 218,123 217,124 216,124 216,124 215,124 215,125 215,125 215,125 215,125 215,125 215,125 215,125 215,125 215,125 215,125 214,125 213,125 212,125 211,125 211,125 211,125 211,125 210,125 210,125 210,125 210,125 210,125 209,125 209,125 209,125 209,125 208,125 210,124 208,118 205,118 201,116 199,114 190,112 181,112 166,112 166,111 166,111 165,111 165,111 165,111 163,111 163,110 162,110 162,110 161,110 160,110 160,110 157,109 156,109 155,109 154,108 153,108 152,108 150,108 149,108 149,107 148,107 147,107 147,107 146,109 146,110 146,110 146,110 146,111 146,111 146,111 146,112 146,112 145,112 145,112 145,112 145,112 143,113 140,113 140,113 139,113 139,113 139,113 139,112 140,111 140,111 140,111 139,111 139,110 138,110 137,109 137,109 136,109 135,108 135,108 134,107 134,106 134,106 134,106 133,106 133,106 133,106 134,106 134,106 134,106 133,106 133,106 133,105 133,105 132,105 132,105 131,104 131,104 130,104 130,103 129,103 129,103 129,103 129,103 128,103 128,102 128,102 127,102 127,102 127,102 126,102 126,102 126,102 126,102 125,102 125,101 125,101 125,101 125,101 125,101 125,100 124,100 124,100 124,98 124,98 124,97 122,98 122,98 121,97 121,97 121,97 121,96 120,96 119,95 119,94 118,94 118,93 119,92 119,91 118,91 118,91 118,91 117,90 117,90 117,90 116,89 116,89 116,89 116,88 116,88 115,87 115,87 114,86 114,86 114,85 113,85 112,85 111,85 110,85 110,85 109,86 108,87 107,89 107,89 107,90 106,90 106,90 106,90 106,90 106,90 107,90 108,90 108,90 108,91 109,91 109,92 109,92 109,93 110,93 110,94 110,94 112,95 112,95 113,95 114,96 114,96 114,96 115,96 115,96 115,96 116,96 116,96 116,96 116,96 117,97 117,97 118,97 118,98 118,98 118,98 118,98 118,98 118,99 119,100 119,100 119,100 119,101 119,101 119,101 120,101 120,101 120,102 120,102 120,102 120,102 120,103 121,103 121,103 121,104 121,104 121,104 122,105 122,105 122,106 122,106 122,106 122,107 122,107 122,108 122,108 122,108 121,108 121,109 120,109 120,109 120,109 120,109 120,110 120,110 118,111 118,111 118,111 118,111 117,111 117,111 117,111 116,111 116,111 116,111 116,111 114,110 114,110 114,110 114,110 114,110 113,110 113,110 113,110 113,111 113,111 113,111 113,111 113,112 113,112 113,112 113,112 113,112 112,112 112,112 112,112 112,111 112,111 112,111 112,111 112,111 112,111 112,111 111,111 111,111 110,111 109,111 109,111 109,111 109,111 110,112 110,112 110,112 110,111 110,112 110,112 110,112 110,112 110,112 110,112 110,112 111,112 111,112 111,112 111,112 111,112 111,112 111,113 111,113 111,113 111,113 112,113 113,113 114,113 113,114 112,114 112,114 110,115 109,115 109,115 107,115 107,116 106,116 106,116 105,116 104,116 103,116 103,116 103,116 103,116 101,117 101,116 99,116 98,116 97,116 97,116 98,116 98,116 98,116 98,116 99,116 99,116 99,115 99,115 99,115 100,115 100,115 100,115 100,115 100,115 101,115 101,115 101,115 101,114 101,114 101,114 101,114 101,113 101,113 101,113 101,113 102,113 102,113 103,114 103,114 104,113 104,113 104,113 104,113 104,113 103,113 103,112 103,112 103,112 103,112 102,112 101,113 101,113 101,113 100,113 100,113 100,113 100,113 100,113 99,113 99,113 98,113 98,113 98,113 98,113 98,113 98,113 98,113 98,113 97,113 97,112 97,112 97,112 96,112 96,112 96,112 96,112 96,111 96,111 96,111 96,111 96,111 96,111 96,111 95,111 95,111 95,111 95,111 94,111 94,111 94,111 94,111 94,111 94,111 94,111 94,111 95,112 95,112 95,112 95,113 95,113 94,112 94,112 94,112 94,112 94,113 94,113 94,113 94,113 94,113 94,113 94,113 93,112 93,112 93,112 93,112 93,112 93,112 93,113 93,113 93,113 93,113 93,113 93,114 93,114 93,114 93,114 93,114 93,113 93,113 93,113 93,113 93,113 93,113 92,113 92,113 92,113 92,113 92,113 93,113 93,113 93,113 93,113 93,113 93,113 93,114 93,114 93,114 93,114 93,114 93,114 93,114 93,114 93,114 93,114 93,114 94,114 93,115 93,115 93,115 93,115 93,115 93,115 92,115 92,115 92,115 92,115 92,114 92,114 92,115 92,115 92,115 92,114 92,114 92,114 92,114 92,114 92,114 91,114 91,114 91,114 91,114 91,114 91,114 91,114 91,114 91,114 91,114 91,114 91,114 91,114 91,114 91,114 91,114 90,114 90,114 90,114 91,114 91,114 91,113 91,113 91,113 91,113 91,113 91,113 91,113 91,113 90,113 90,112 90,112 90,112 90,112 90,111 89,111 89,111 89,111 89,111 89,111 89,111 89,111 88,111 88,111 88,111 88,112 88,112 87,112 87,112 87,112 87,112 87,112 86,113 86,113 86,113 86,113 86,113 86,113 86,114 86,114 86,114 85,114 85,114 85,114 85,114 85,114 85,113 85,113 85,113 85,113 85,112 85,112 84,112 84,112 84,112 83,112 83,111 82,112 82,112 82,112 82,112 81,112 80,112 80,113 79,113 78,114 78,113 77,113 77,112 76,112 76,112 76,112 75,112 75,112 74,112 74,111 74,111 73,111 73,111 72,111 72,111 71,111 71,111 69,111 69,111 67,111 66,111 65,111 63,111 62,111 62,111 61,111 60,111 59,111 58,111 55,111 55,111 54,111 54,111 53,111 53,112 54,112 55,113 57,113 57,114 58,114 59,115 60,116 61,117 62,117 63,118 65,118 69,120 72,121 75,122 76,122 75,123 75,123 75,123 75,123 74,123 74,124 73,124 73,124 72,124 72,124 72,124 72,124 72,125 72,125 71,125 71,125 70,125 70,125 69,125 69,125 68,125 68,125 68,125 67,125 66,125 65,125 65,125 64,125 64,125 63,125 62,125 62,125 62,125 61,125 61,125 61,125 61,125 60,125 60,125 60,125 60,126 59,126 59,126 59,126 59,126 59,126 58,127 58,127 58,127 57,127 57,127 57,127 57,127 56,127 56,128 56,128 55,128 55,128 55,128 54,128 54,128 54,128 53,128 53,129 52,129 52,129 52,129 52,129 51,129 51,129 50,130 50,130 50,130 49,130 49,130 49,130 49,130 49,130 48,130 48,130 48,130 48,130 48,130 48,130 48,130 48,130 48,130 48,130 48,130 48,130 48,130 48,130 48,130 48,130 48,130 49,130 49,131 49,131 49,131 49,131 49,131 49,131 48,131 48,131 48,131 47,130 47,130 47,130 47,131 46,131 45,130 45,130 45,129 44,129 44,129 40,124 40,124 40,124 40,124 39,125 39,125 39,125 38,125 37,124 37,124 36,124 36,124 36,124 37,124 37,124 37,124 37,123 37,123 37,123 37,123 36,123 36,123 36,123 36,124 36,124 36,124 36,124 36,124 36,124 36,124 35,124 35,124 35,125 35,125 35,125 35,124 35,124 35,124 35,124 35,124 35,124 35,124 34,123 34,123 34,123 32,123 31,123 31,123 30,123 30,123 30,122 29,122 29,122 28,122 28,122 27,123 26,123 26,122 25,121 25,121 25,121 25,121 25,121 24,121 24,121 24,121 24,121 24,121 24,121 23,121 23,121 23,121 22,122 22,122 22,122 22,122 21,122 21,123 21,123 21,123 21,123 21,123 21,123 20,123 20,123 20,124 20,124 20,124 20,124 19,124 19,124 19,124 19,124 19,124 19,124 18,124 18,124 18,124 18,124 17,124 17,124 17,124 17,124 17,124 16,124 16,124 16,124 16,124 15,123 14,123 14,123 13,123 12,123 11,122 10,122 9,122 9,122 9,121 9,121 7,120 5,119 5,119 5,118 2,117 2,111 2,107 2,106 2,103 2,100 1,97 0,86" id="8302" class="canton" fill="steelblue" stroke-width="1" stroke="white" geotype="canton" geoname="Crau" code_insee="8302" code_departement="83" nom_departement="Var" code_region="93" nom_region="Provence-Alpes-Côte d'Azur"/></svg>