<?xml version="1.0" encoding="utf-8"?>
<svg version="1.1" id="svgmap" xmlns="http://www.w3.org/2000/svg" xmlns:xlink="http://www.w3.org/1999/xlink" x="0px" y="0px" width="100%" height="100%" viewBox="0 0 500 204">
<polygon points="32,107 32,107 32,107 32,107 32,107 32,107 33,107 33,107 33,107 33,107 33,107 33,107 33,107 33,107 33,107 33,107 34,107 34,107 34,107 34,107 34,107 35,107 35,107 35,107 35,107 35,107 35,107 35,107 35,108 36,108 36,108 36,108 36,108 36,108 36,108 36,108 36,108 36,108 37,108 37,108 37,108 37,108 37,108 38,108 37,108 38,108 38,108 38,108 38,108 38,108 38,108 39,108 39,108 39,108 39,108 39,108 39,107 39,107 39,107 39,107 39,107 39,106 39,106 39,106 39,106 40,106 40,106 40,106 40,106 41,106 41,106 41,106 41,106 41,106 41,106 42,106 42,106 41,106 41,106 41,106 41,107 42,107 42,107 43,107 43,107 43,107 43,107 44,107 44,107 44,107 44,107 44,107 44,107 44,106 44,106 44,106 45,106 45,106 45,106 45,106 46,107 46,107 46,107 47,107 47,107 47,107 47,107 47,107 47,107 47,107 47,107 47,107 47,107 48,107 48,107 48,108 48,108 49,108 49,108 49,108 49,108 49,108 49,108 49,108 49,108 49,108 49,109 50,109 49,109 49,109 49,109 49,109 49,109 49,110 49,110 49,110 48,110 49,110 49,111 49,111 49,111 49,111 49,111 49,111 50,111 50,111 50,111 50,111 50,111 50,111 50,112 51,112 51,112 51,112 51,112 51,112 52,112 52,112 52,112 51,112 52,112 53,113 53,113 53,113 54,113 54,114 53,114 53,113 53,113 53,113 53,113 51,112 51,112 50,112 50,112 49,113 48,113 48,113 47,113 45,112 44,114 44,114 44,114 44,114 44,114 44,114 44,113 44,113 42,114 42,115 43,114 43,115 42,116 43,117 44,117 45,118 45,118 46,118 46,118 46,118 47,118 48,117 48,116 48,116 48,116 48,116 48,115 48,116 48,115 48,115 49,115 49,115 51,116 51,115 51,115 51,115 51,115 51,115 52,116 54,115 54,115 54,115 54,115 54,115 54,115 54,116 54,116 54,116 54,116 54,116 53,116 53,116 52,116 52,116 52,117 52,118 51,118 51,119 51,119 51,119 51,119 51,119 53,120 54,119 54,119 54,119 54,120 55,120 55,121 56,121 56,121 57,121 57,121 58,121 59,120 59,120 59,120 58,120 58,119 58,119 58,119 58,119 57,119 57,118 57,118 57,118 57,118 57,118 57,118 57,118 57,118 58,118 58,118 58,118 58,118 57,117 57,117 57,117 57,117 56,116 55,116 55,116 55,116 55,116 55,116 55,116 55,115 55,115 55,115 55,115 55,115 55,115 55,115 56,115 57,115 58,115 59,116 60,116 61,115 60,115 60,114 62,114 63,114 63,113 64,113 65,113 65,112 66,113 67,113 66,114 66,114 68,115 69,114 69,115 69,116 69,117 71,118 71,118 72,119 71,120 70,121 70,123 69,125 68,126 67,127 66,127 64,127 61,128 60,128 59,128 59,128 59,128 58,128 58,128 58,128 58,128 59,129 59,129 59,129 58,129 58,129 58,129 58,129 58,129 58,129 58,130 58,130 58,130 58,130 58,130 58,130 58,130 58,130 58,130 58,130 57,131 57,131 57,131 57,131 57,131 57,131 57,131 57,131 57,131 57,131 56,131 56,131 56,131 56,132 56,132 56,132 56,132 56,132 56,132 56,132 56,132 56,132 55,132 55,132 55,132 54,132 54,132 54,132 54,133 54,133 54,133 54,133 54,133 54,133 54,133 54,133 54,133 54,133 54,133 54,134 54,134 54,134 54,134 54,134 54,134 54,134 54,134 54,134 54,134 54,134 54,134 54,134 54,134 54,134 54,134 54,134 54,134 53,134 53,135 53,135 53,135 53,135 53,134 53,135 53,135 53,135 53,135 52,134 52,134 52,134 52,134 52,134 52,134 52,134 52,134 52,134 52,134 52,134 52,134 52,134 52,133 52,133 52,133 52,134 52,133 52,133 52,133 52,133 51,133 52,133 52,133 52,133 52,133 51,133 51,132 51,132 51,132 50,132 50,133 50,133 50,133 50,133 50,133 50,133 50,133 49,133 49,133 49,133 49,133 49,133 49,133 49,133 49,133 49,133 50,133 50,134 50,134 50,134 50,134 50,134 50,134 50,134 49,134 49,134 49,134 49,134 49,134 49,134 49,134 49,134 48,134 48,134 48,134 48,135 48,135 48,135 48,135 48,135 49,135 49,135 49,135 49,135 49,135 49,136 49,136 49,136 49,136 49,136 49,136 49,136 49,136 49,136 49,136 49,136 49,136 48,136 48,136 48,136 48,136 48,136 48,136 48,136 48,136 48,136 48,136 48,137 48,137 48,137 47,136 47,136 47,136 47,136 47,136 47,136 47,136 47,137 47,137 47,137 47,137 47,137 47,137 47,137 46,137 46,137 46,136 46,136 46,136 46,136 46,136 46,136 46,136 45,137 45,137 45,137 45,137 45,137 44,137 44,137 44,137 44,138 44,138 44,138 44,138 44,138 44,138 43,138 43,138 43,138 43,138 43,138 43,138 43,139 42,139 42,139 42,139 42,139 42,139 42,139 42,139 42,139 42,139 42,139 41,139 41,139 41,139 41,139 41,139 41,139 41,139 41,139 40,139 40,139 40,139 40,139 40,139 40,139 40,139 39,139 39,139 39,138 39,138 39,138 39,138 39,138 39,138 39,138 39,138 39,138 39,138 38,138 38,138 38,138 38,138 38,138 37,139 37,139 37,139 37,139 37,139 37,139 36,139 36,139 36,139 36,139 36,139 36,138 35,138 35,138 35,138 36,138 36,138 35,138 36,138 36,138 36,137 36,137 36,137 36,137 36,137 36,136 36,136 36,136 36,136 36,136 36,136 36,136 36,135 36,135 36,135 36,135 37,135 37,135 36,135 36,135 36,134 36,134 36,134 36,134 36,134 37,134 36,133 37,133 37,133 37,133 37,133 37,133 37,133 38,133 38,133 37,133 37,132 37,132 37,132 37,132 37,132 37,132 37,132 37,132 38,132 38,132 38,132 38,131 38,131 38,131 38,131 38,131 38,131 38,131 38,131 38,131 39,131 39,131 39,130 39,130 39,130 39,130 39,129 39,129 38,129 38,129 38,129 38,129 37,129 37,129 37,129 36,129 36,129 36,129 36,129 35,129 35,129 35,129 34,129 34,129 34,129 34,129 34,129 33,129 33,129 33,129 32,129 33,129 33,129 33,129 33,129 33,128 33,128 33,128 33,128 33,128 33,128 33,128 33,128 33,128 33,128 33,128 34,128 34,128 34,128 34,128 34,128 34,127 33,127 33,127 33,127 33,127 33,127 33,127 32,127 32,127 32,127 32,126 33,126 33,126 33,126 32,126 33,126 33,126 33,126 33,126 33,126 33,125 33,125 34,125 33,125 33,125 34,125 34,125 34,125 33,125 34,124 34,124 34,124 34,124 34,124 34,124 34,124 34,124 35,124 35,124 35,123 35,123 35,123 35,123 35,123 35,123 35,123 34,123 34,123 34,123 34,123 34,123 34,123 34,123 34,123 34,123 34,123 34,123 34,123 34,122 34,122 34,122 34,122 34,122 34,122 34,122 34,122 34,122 34,122 34,121 34,121 34,121 34,121 35,121 35,121 35,121 35,121 35,121 35,121 35,121 35,121 35,121 35,121 35,121 35,121 35,121 35,120 35,120 35,120 35,120 35,120 35,120 35,119 34,119 34,119 34,119 34,119 34,119 34,119 34,118 34,118 34,118 34,118 34,118 34,118 34,118 34,117 34,117 33,117 33,117 33,117 34,117 33,117 34,117 33,116 33,116 33,116 33,116 33,116 33,116 33,116 33,116 32,116 33,115 33,115 33,115 33,115 33,115 34,115 33,115 33,115 33,115 33,114 33,114 33,114 33,114 33,114 33,114 33,113 34,113 34,113 34,113 34,113 34,113 34,113 34,113 34,113 34,113 34,113 35,113 35,113 35,113 35,113 35,113 35,113 35,113 35,113 35,113 36,113 36,113 36,113 36,113 36,113 36,113 36,112 36,112 36,112 36,112 36,112 36,112 36,112 36,112 37,112 37,112 37,112 37,112 37,112 37,112 37,112 38,112 38,112 38,111 38,111 38,111 38,111 38,111 37,111 37,110 37,110 37,110 37,110 37,110 37,110 36,110 36,110 36,110 36,110 36,110 36,110 36,110 35,110 35,110 35,110 35,109 35,109 35,109 35,109 35,109 35,109 35,109 34,109 34,109 34,109 34,109 34,109 34,109 34,109 34,109 33,108 33,108 33,108 33,108 33,108 33,108 33,108 33,108 33,108 32,108 32,108 32,107" id="8317" class="canton" fill="steelblue" stroke-width="1" stroke="white" geotype="canton" geoname="Seyne-sur-Mer-2" code_insee="8317" code_departement="83" nom_departement="Var" code_region="93" nom_region="Provence-Alpes-Côte d'Azur"/><polygon points="112,16 112,13 113,12 113,12 113,11 113,11 114,11 114,11 115,11 117,10 119,10 120,9 121,9 121,8 122,8 123,8 123,8 124,8 126,8 126,8 127,8 127,8 128,8 129,8 129,8 129,8 129,7 128,7 128,6 128,6 128,6 129,5 129,5 131,4 131,4 132,4 134,3 135,3 136,3 138,4 140,4 141,5 141,5 142,5 142,5 143,5 143,5 144,5 145,5 145,5 146,5 146,4 147,5 148,5 150,6 151,6 151,7 152,7 153,6 153,6 154,6 154,6 154,4 162,1 169,0 170,0 173,1 177,1 196,0 215,0 220,0 224,0 225,0 224,30 227,41 227,42 228,44 228,44 229,48 229,49 229,49 230,52 236,64 240,71 240,72 240,75 239,83 234,98 233,99 233,99 233,99 233,99 233,99 233,99 233,100 233,99 231,102 231,102 231,102 231,102 231,104 232,104 232,104 233,104 233,104 235,104 236,104 237,104 239,104 240,104 243,104 244,104 245,104 245,104 246,105 246,105 246,106 247,106 247,106 249,107 249,108 250,108 250,109 251,109 251,110 251,110 251,111 251,111 251,112 251,112 252,111 253,111 255,111 256,111 257,113 257,113 259,112 260,111 262,111 264,111 265,111 267,111 268,111 269,111 269,110 269,110 270,111 270,111 270,111 271,112 271,112 271,113 272,114 272,115 273,116 274,117 275,118 277,119 278,119 279,120 279,121 280,122 281,125 282,125 283,127 283,127 283,127 286,126 286,126 287,126 289,126 290,126 290,126 292,126 293,126 294,127 295,126 296,126 297,126 297,126 297,125 297,125 297,124 296,123 296,122 296,122 294,121 292,119 293,118 292,118 293,117 293,116 294,116 295,116 295,116 295,115 297,115 298,115 299,115 299,115 300,113 300,112 300,112 297,112 298,110 299,110 299,110 299,108 299,108 299,107 296,106 297,105 295,105 295,102 297,102 298,103 299,104 299,104 300,104 300,105 301,105 303,105 304,106 305,105 306,105 306,105 307,105 309,105 310,106 311,106 312,106 312,106 313,106 314,106 316,107 318,108 320,108 321,108 322,109 324,109 324,108 324,108 329,105 331,104 331,104 331,104 332,104 333,103 333,103 334,103 335,104 336,104 338,105 339,101 339,100 339,100 338,99 338,94 337,94 337,92 337,91 337,90 336,89 335,89 334,89 333,88 333,88 333,85 334,85 334,84 334,82 334,81 334,80 334,80 335,80 336,80 337,79 338,79 341,80 342,80 343,81 343,81 344,81 346,81 350,81 350,80 352,80 353,80 354,80 355,79 358,79 361,79 365,79 367,79 367,79 367,80 365,80 364,81 364,82 365,82 365,83 365,83 364,83 364,82 363,82 363,82 361,85 361,86 359,88 358,91 357,93 355,95 352,100 352,100 350,103 347,107 348,108 350,109 355,111 357,109 359,110 362,106 361,106 361,105 362,105 362,106 362,105 363,105 363,106 363,106 365,107 367,108 367,109 368,109 368,111 368,111 368,111 368,110 367,109 367,110 366,111 366,111 364,110 365,109 366,108 364,107 364,107 363,107 363,107 362,107 361,108 361,109 362,109 362,109 363,109 363,110 362,110 362,110 362,110 362,111 364,112 364,112 363,112 363,113 361,114 361,114 362,114 362,114 364,114 364,113 364,113 365,112 366,112 367,112 367,112 367,112 367,112 366,112 365,112 364,114 365,114 365,114 368,114 368,114 369,114 369,114 370,114 372,114 372,115 373,115 375,111 377,111 378,112 376,115 376,115 377,116 378,116 379,114 379,114 379,114 380,115 380,115 380,116 380,116 381,116 382,116 382,117 383,117 383,117 383,117 385,112 388,113 388,112 388,112 388,112 388,112 388,112 388,111 388,111 388,111 389,111 389,111 389,111 389,111 390,110 390,110 390,110 390,109 390,109 391,109 391,109 391,109 391,109 391,109 391,109 391,108 392,108 392,108 392,108 392,108 392,107 393,107 393,107 393,107 393,107 393,106 393,106 393,106 393,106 393,106 393,106 393,106 393,106 393,106 393,106 393,106 393,105 393,105 393,105 393,105 393,105 393,105 393,105 395,104 394,104 396,103 396,103 396,103 397,103 398,103 399,102 399,102 399,102 399,102 400,102 399,102 402,100 402,100 402,100 402,100 403,100 403,99 403,99 403,99 403,99 403,99 403,99 403,99 403,98 403,98 403,98 403,98 404,98 404,98 404,98 404,98 404,97 405,97 405,97 405,97 406,97 406,97 407,97 407,97 407,97 407,97 407,97 408,97 408,97 408,97 408,97 409,97 409,97 410,97 410,97 410,97 411,98 411,98 411,98 411,98 412,98 412,98 412,99 412,99 413,99 413,99 413,99 413,99 414,99 414,99 415,99 415,100 415,100 416,100 416,100 416,100 416,100 416,100 418,100 418,100 420,99 420,98 420,98 420,99 420,99 420,99 420,99 420,99 419,100 419,100 419,100 419,100 419,101 419,102 419,102 419,102 419,102 419,102 419,102 419,103 419,103 419,103 419,104 419,104 420,104 420,105 421,104 421,104 421,104 421,105 421,106 419,106 420,108 421,108 421,109 421,109 422,110 421,110 422,110 422,111 423,111 423,111 423,111 423,111 423,111 423,111 424,111 424,111 424,111 425,111 425,111 425,111 427,111 427,111 428,111 428,111 428,111 428,111 426,111 426,111 423,112 424,113 424,114 425,115 426,116 427,117 430,118 431,118 433,118 433,118 434,119 435,119 436,119 438,118 438,117 438,117 436,116 436,115 435,115 435,115 434,114 434,114 433,113 432,112 432,112 432,112 432,111 431,111 431,111 431,111 431,111 431,111 431,111 431,111 432,110 432,110 433,109 434,108 437,108 438,106 437,106 438,105 440,105 440,104 442,103 442,104 441,104 440,105 442,106 442,106 442,107 442,108 444,107 443,106 443,106 443,106 444,104 445,104 453,103 454,102 455,102 453,97 453,95 453,95 454,95 454,95 454,95 454,95 455,102 456,102 460,101 460,100 460,100 460,101 464,100 465,101 470,102 476,106 480,107 481,109 485,111 487,113 494,115 496,119 497,120 498,121 499,122 497,123 497,124 498,124 498,124 499,123 499,123 499,124 498,125 498,126 499,129 500,129 500,132 496,135 493,139 489,142 487,146 480,148 473,143 472,142 470,141 468,138 462,138 461,136 461,136 461,136 461,136 461,135 461,135 461,135 461,135 460,135 460,134 460,134 459,134 459,134 458,134 458,134 458,134 458,134 457,134 456,134 455,134 454,135 453,135 452,135 452,135 451,135 451,135 450,135 450,135 449,135 449,135 449,135 448,135 448,135 447,135 447,135 447,135 446,135 446,135 445,135 445,135 444,134 444,134 444,134 444,134 443,134 442,134 441,134 438,134 436,135 433,138 432,138 431,139 430,139 429,139 429,140 426,141 424,141 422,141 421,142 420,142 420,142 420,142 419,142 419,142 419,142 419,143 419,143 419,143 419,143 419,143 419,143 418,143 418,143 418,143 418,143 418,143 418,143 418,143 418,143 418,143 418,143 418,143 417,143 417,143 417,143 417,143 417,143 417,143 417,143 417,143 417,143 417,143 417,143 416,143 416,143 416,143 416,143 416,143 416,143 416,143 416,143 415,143 408,144 405,146 396,149 392,150 391,150 391,149 391,149 391,149 391,148 391,148 391,148 390,147 389,146 389,146 388,145 387,145 386,144 385,143 385,143 385,143 385,143 384,142 383,141 383,141 382,140 381,139 380,138 380,137 380,136 380,135 380,133 379,131 370,130 368,130 366,130 364,130 363,130 361,129 361,129 361,129 361,129 360,129 360,129 360,129 359,129 356,128 356,128 356,128 356,128 356,128 357,128 358,128 358,128 359,128 359,128 359,128 359,127 359,127 359,127 358,127 358,127 358,127 357,127 358,127 358,127 357,127 357,127 357,127 357,126 357,125 358,125 358,123 358,123 358,123 358,125 358,125 359,125 359,125 360,125 360,125 359,124 359,124 360,124 360,124 360,124 360,124 360,124 360,124 360,124 361,123 361,123 360,122 360,122 359,122 359,123 359,123 359,122 359,122 359,122 360,122 360,121 359,120 358,119 356,118 354,118 352,117 350,117 347,116 345,116 341,116 337,117 330,118 327,119 325,120 325,121 324,122 324,123 323,124 323,124 322,126 322,126 322,126 321,126 321,127 319,128 319,128 318,128 318,129 318,129 317,130 317,131 317,132 316,132 316,132 315,132 315,133 314,132 312,132 311,131 310,132 309,132 308,132 308,132 307,133 307,133 307,134 307,134 307,134 307,135 307,135 306,135 305,135 305,135 305,136 305,136 305,136 304,136 303,137 303,137 303,137 302,138 301,138 301,139 300,139 300,140 299,140 299,140 299,141 298,141 297,141 297,141 296,141 296,141 296,142 296,142 295,143 295,143 295,142 294,142 293,142 292,142 292,141 291,141 290,140 289,140 289,140 288,140 287,140 286,141 286,141 286,142 285,142 285,143 285,143 285,143 285,144 285,144 286,144 286,145 286,145 286,145 287,145 287,145 286,146 286,146 286,146 286,146 286,147 286,148 286,148 286,148 286,150 286,150 286,150 286,151 286,151 286,151 286,151 286,151 285,151 285,152 285,151 284,151 284,151 283,151 283,151 282,152 282,152 281,152 281,152 281,153 281,153 280,154 280,154 280,154 279,154 278,155 277,156 277,157 277,158 276,159 276,159 276,160 276,160 275,161 275,161 273,162 271,163 268,166 269,167 268,168 268,168 267,168 266,169 266,169 265,170 265,171 265,171 264,171 263,172 262,173 262,174 262,175 261,176 261,176 260,177 260,178 260,179 260,179 260,180 260,180 260,181 260,181 260,182 260,183 260,183 260,184 260,184 260,184 260,184 260,184 260,184 260,185 261,185 261,186 261,186 261,186 261,186 261,187 261,187 261,187 261,187 261,188 261,188 261,188 261,188 261,189 260,189 260,189 260,189 259,190 259,191 258,192 258,192 256,194 256,194 256,194 256,195 255,195 255,196 255,196 256,197 256,197 256,197 255,197 255,197 255,197 255,197 255,197 255,197 255,197 255,197 255,197 255,197 255,197 255,197 255,197 255,197 254,197 254,197 255,198 255,198 254,198 254,198 254,197 254,197 254,197 254,197 253,197 254,198 254,198 254,198 254,198 254,198 254,198 253,198 253,198 253,198 253,198 253,198 252,198 252,198 252,198 252,198 251,198 251,198 251,199 251,199 251,199 251,199 251,199 251,199 251,200 251,200 251,200 251,200 251,200 251,200 251,200 251,200 251,200 251,201 251,201 251,201 252,201 251,201 251,201 251,201 251,202 252,202 252,202 252,202 252,202 253,202 253,203 253,203 253,203 253,203 253,203 253,203 253,204 253,204 252,204 252,204 252,204 252,204 252,203 251,203 251,203 251,203 251,203 251,203 251,203 251,203 251,203 250,202 250,203 250,203 250,203 250,202 250,202 249,202 249,202 249,202 249,202 249,202 249,202 249,202 249,202 249,202 249,203 249,202 248,202 248,202 248,202 248,202 248,202 248,202 248,202 248,202 248,201 248,201 248,201 248,201 248,201 247,200 247,200 247,200 247,200 247,200 247,200 246,199 246,199 246,199 246,199 246,199 246,199 246,198 246,198 245,198 244,198 243,198 242,198 242,198 241,198 241,198 241,198 240,198 240,198 240,198 240,198 239,198 240,198 240,198 239,198 239,198 239,198 239,198 239,198 238,198 238,198 238,198 237,197 238,197 238,197 237,197 237,197 237,197 237,197 237,197 237,197 237,197 237,197 237,197 237,197 237,198 237,198 236,198 236,198 236,198 236,198 236,198 236,198 236,197 236,197 236,197 236,197 236,197 236,196 235,196 235,196 235,196 235,196 235,196 235,196 235,196 235,196 235,196 233,196 232,196 230,196 228,195 227,194 227,194 227,194 227,194 227,194 227,194 226,194 226,194 226,194 227,194 227,194 227,194 226,194 226,193 226,193 226,193 226,193 225,193 224,193 223,193 221,193 221,194 219,194 218,196 217,196 216,196 216,196 215,196 215,197 215,197 214,197 214,197 214,198 214,198 213,198 213,199 213,199 213,199 213,200 213,200 212,200 212,200 212,201 212,201 212,202 212,202 211,202 211,202 211,202 211,201 211,201 211,201 211,200 211,200 211,200 211,200 211,199 211,199 211,199 211,199 211,199 212,199 212,198 211,198 211,198 212,198 211,198 211,198 211,198 211,198 211,198 210,198 210,198 209,198 209,198 209,198 209,198 208,198 208,198 208,198 208,198 207,198 207,198 207,198 207,198 207,199 206,199 206,199 206,199 206,199 206,199 205,199 205,199 205,199 206,199 206,198 205,198 205,198 205,198 204,198 204,198 204,198 203,198 202,198 202,198 202,198 202,198 201,198 201,198 201,198 200,198 200,198 200,198 199,198 199,198 199,198 199,198 199,198 199,198 199,197 199,197 198,197 198,197 198,197 197,197 198,196 197,196 197,196 198,196 197,196 197,196 197,196 196,196 196,196 196,196 196,195 196,195 196,195 196,195 196,195 196,195 194,194 194,195 194,195 194,195 194,195 193,195 193,196 193,196 193,195 193,195 193,195 193,195 193,195 193,195 193,195 193,195 193,195 193,194 193,194 193,194 193,194 193,194 193,194 193,194 193,194 193,194 192,194 192,194 192,193 192,194 192,194 192,194 191,194 191,194 190,194 190,194 190,194 190,194 190,194 190,194 190,194 191,194 191,194 190,193 189,194 188,194 188,193 188,193 188,193 188,193 188,193 187,193 187,193 186,193 185,193 185,193 185,193 185,193 185,193 184,193 183,193 183,193 183,194 182,194 181,194 181,194 181,194 181,194 180,194 179,194 179,194 179,194 178,194 178,194 178,194 177,194 177,194 177,194 177,194 177,195 176,195 176,195 175,195 175,195 175,195 175,195 175,195 174,195 174,195 173,195 173,195 173,194 173,195 173,194 172,194 172,194 172,194 172,194 171,194 171,194 170,194 170,193 170,193 169,193 169,192 170,192 169,192 169,192 169,192 168,192 168,192 168,192 167,192 167,192 167,191 167,191 168,191 168,191 167,190 167,190 166,190 166,190 166,190 166,189 166,189 167,188 166,188 166,187 166,187 165,186 165,186 164,186 163,186 163,185 161,185 161,185 161,185 160,185 160,185 160,185 160,185 160,184 159,184 158,184 157,184 157,184 157,183 157,183 157,184 156,183 156,184 156,183 156,183 156,183 155,184 155,183 155,183 154,183 154,183 154,183 154,183 153,183 153,183 153,182 153,183 152,182 152,183 151,182 151,182 151,182 151,182 151,182 151,181 151,181 151,181 151,181 151,181 152,181 151,180 151,180 151,181 151,181 151,181 151,180 151,180 150,180 150,180 150,180 150,180 149,180 149,180 149,180 149,180 148,179 148,178 148,177 148,177 148,177 148,177 148,177 148,177 148,177 148,176 148,176 148,176 148,176 148,176 148,175 148,175 148,175 148,175 147,175 147,174 148,174 148,174 147,173 147,173 146,172 145,172 144,172 144,172 143,172 143,172 143,172 143,171 144,171 144,170 145,169 147,168 147,168 147,167 146,167 145,166 145,166 145,166 144,166 144,166 144,166 144,166 144,166 144,166 144,166 144,166 144,166 143,166 143,166 143,166 143,166 143,165 143,165 143,165 143,165 143,165 142,165 142,165 142,165 142,165 142,165 142,165 142,165 142,165 142,165 142,165 142,165 142,165 142,165 142,165 142,165 141,165 141,165 141,165 142,165 142,165 141,165 141,165 141,165 141,164 141,164 141,164 141,164 140,164 140,164 140,164 140,164 140,164 140,164 140,164 140,164 139,164 139,164 138,163 138,162 138,161 138,161 138,160 138,160 138,160 138,159 139,159 138,158 138,158 137,157 136,157 136,157 135,157 135,156 134,156 134,155 133,155 132,156 131,156 130,155 129,155 129,155 128,155 127,155 127,155 127,155 126,155 126,155 126,155 126,155 126,155 126,155 126,155 126,155 126,155 126,155 126,155 126,155 125,155 125,155 125,155 125,155 125,155 125,155 125,155 124,155 125,155 124,155 124,155 125,155 124,155 124,155 124,155 124,155 124,154 124,154 124,154 122,153 122,154 122,154 122,154 122,153 121,153 120,153 120,153 120,152 120,152 120,152 120,152 120,152 120,152 120,152 120,152 120,151 120,151 120,151 120,151 120,151 119,151 119,151 119,151 119,151 119,150 118,151 118,150 116,150 114,151 113,152 112,152 113,151 113,151 112,151 112,151 113,151 112,150 112,150 113,150 113,150 113,149 113,149 113,149 114,149 114,148 113,148 113,148 113,148 112,147 112,147 112,147 111,146 111,146 111,146 110,146 110,146 110,146 110,146 110,146 109,145 109,146 108,145 108,145 108,146 107,146 107,145 107,146 107,146 107,146 106,146 106,146 106,146 106,146 105,146 105,146 105,146 104,146 104,146 104,146 103,147 103,147 103,147 103,147 102,147 102,147 102,147 101,147 102,147 102,147 102,147 102,147 102,147 102,147 102,147 102,147 103,147 103,146 103,146 103,146 102,145 102,145 102,145 101,145 101,145 101,144 101,144 101,144 100,144 100,145 99,145 99,145 99,145 98,145 98,144 99,144 99,144 99,144 99,144 98,144 98,143 98,143 98,143 98,143 97,143 97,143 96,143 96,143 96,143 95,144 95,144 95,144 95,143 95,143 95,143 94,143 94,143 93,144 93,144 93,143 92,143 92,144 92,144 92,143 91,143 91,143 91,143 91,143 91,143 91,143 91,143 91,143 91,143 91,143 91,143 90,143 90,143 89,143 89,143 89,143 89,143 89,143 89,142 88,142 88,142 88,142 87,142 86,142 86,142 87,142 86,142 86,142 86,142 86,142 86,141 86,141 85,141 85,141 85,141 85,141 85,141 85,141 85,141 84,141 84,141 83,141 83,141 83,141 83,141 83,141 83,141 82,141 82,141 82,142 82,142 82,142 82,142 82,142 82,142 82,142 82,142 82,141 82,141 82,141 82,141 82,141 82,141 82,141 82,141 82,141 82,141 82,141 82,141 82,141 82,141 82,141 82,141 82,140 81,140 81,140 81,140 81,140 81,140 81,140 80,140 80,140 80,140 80,140 80,140 80,140 80,140 79,140 79,140 79,140 78,140 78,140 78,140 78,140 78,140 78,141 78,141 78,141 76,140 76,140 75,140 75,139 75,139 75,139 75,139 76,138 77,138 77,137 77,137 78,136 78,136 78,135 79,135 79,134 79,133 79,133 79,132 79,132 79,131 80,130 80,130 82,128 81,128 81,128 82,128 82,128 82,127 83,127 85,127 85,127 86,127 86,126 86,126 86,126 86,125 86,125 86,125 87,126 88,126 90,127 90,127 90,127 91,127 92,127 93,127 96,125 98,124 101,122 101,122 101,122 103,121 104,120 103,120 103,120 102,119 102,119 102,119 102,119 102,119 102,119 102,119 102,119 102,119 102,119 102,119 102,119 102,119 102,119 102,118 102,118 102,118 102,118 102,118 102,118 102,118 101,118 102,118 102,118 102,117 102,117 102,117 102,116 101,115 101,114 101,114 102,115 103,115 104,115 104,115 105,114 105,113 105,113 105,113 105,113 106,113 106,113 106,113 107,113 107,113 108,113 108,112 109,112 109,111 109,111 110,109 110,109 110,108 110,107 110,107 110,106 110,106 109,106 109,105 108,105 108,105 107,105 106,105 105,105 105,105 105,105 107,104 107,104 107,103 108,103 108,102 108,101 108,101 108,100 108,100 107,100 108,100 108,100 107,99 107,99 107,99 107,99 107,98 107,98 107,98 107,98 107,98 107,98 107,97 107,97 107,97 107,97 108,97 108,97 109,96 109,96 109,96 109,96 110,96 110,96 111,97 111,96 111,96 112,96 112,96 113,96 113,94 114,94 115,93 115,93 115,92 115,91 115,90 115,89 115,89 115,88 115,87 114,87 114,87 112,87 111,86 110,86 111,85 112,86 113,86 113,86 114,85 114,85 113,85 113,84 113,84 114,84 114,84 115,84 115,84 116,84 116,83 116,83 116,83 116,83 117,83 117,83 117,82 117,82 116,81 116,81 116,81 115,80 114,79 114,79 115,79 116,79 117,79 117,78 117,78 117,78 118,78 118,79 119,80 119,80 120,80 120,80 120,80 121,80 122,79 123,79 124,78 124,77 124,77 123,77 123,77 124,77 124,77 124,77 124,77 124,77 125,77 125,76 125,76 124,76 124,76 124,76 124,75 124,75 124,76 125,76 125,76 125,75 125,75 125,75 125,74 125,75 124,75 125,74 125,74 125,74 126,74 126,74 126,74 126,73 126,73 127,73 126,73 126,72 126,71 125,71 124,71 124,71 124,71 124,71 124,71 124,71 126,71 127,71 127,71 127,71 126,68 125,67 125,66 123,67 122,67 122,67 122,67 122,68 122,69 122,71 122,71 122,71 122,71 122,72 122,72 121,72 121,72 121,71 121,71 121,71 121,71 121,70 121,69 121,69 121,69 121,67 121,67 122,67 122,67 123,66 123,65 123,65 122,65 123,65 123,65 123,64 122,64 122,63 121,63 121,63 120,62 120,63 120,63 120,62 119,62 117,62 116,62 116,62 115,62 114,61 113,61 113,60 113,60 112,60 112,60 111,59 110,60 109,60 109,59 108,59 108,59 107,58 106,59 105,58 104,58 103,57 103,57 104,57 105,57 105,57 106,57 106,57 106,57 107,57 106,57 107,57 107,57 108,56 108,56 109,56 109,55 110,55 110,55 110,56 111,56 111,55 113,55 113,55 114,56 114,56 114,55 114,55 115,55 115,55 115,55 116,55 117,55 117,54 117,54 118,55 119,55 120,54 120,54 120,54 120,53 120,53 121,52 121,52 121,52 121,51 121,51 122,51 122,50 122,50 122,50 123,49 123,49 123,50 124,49 124,49 124,48 125,48 124,48 125,48 125,47 125,47 125,47 125,46 126,45 125,45 126,45 127,43 127,44 127,45 128,45 128,44 127,44 127,44 129,44 129,44 129,43 129,43 129,43 128,42 128,42 128,42 128,42 128,43 128,43 127,43 128,42 128,42 128,42 128,42 129,41 129,41 128,39 128,39 127,39 127,39 129,39 129,38 129,37 129,37 128,36 127,35 126,33 122,34 122,33 125,33 125,31 125,31 124,30 123,28 123,26 122,25 120,26 120,26 121,25 120,24 119,22 118,21 117,20 117,20 116,20 115,21 115,21 115,21 115,22 115,22 115,22 115,22 115,20 115,20 115,20 115,19 115,19 114,19 112,19 112,19 112,19 112,18 112,17 112,17 113,16 112,16" id="8317" class="canton" fill="steelblue" stroke-width="1" stroke="white" geotype="canton" geoname="Seyne-sur-Mer-2" code_insee="8317" code_departement="83" nom_departement="Var" code_region="93" nom_region="Provence-Alpes-Côte d'Azur"/><polygon points="275,198 275,197 276,197 276,197 276,197 277,197 277,197 277,197 277,197 277,197 277,197 277,197 277,198 277,198 277,198 277,198 277,198 277,198 277,198 276,198 276,198 276,198 276,198 276,198 275,198" id="8317" class="canton" fill="steelblue" stroke-width="1" stroke="white" geotype="canton" geoname="Seyne-sur-Mer-2" code_insee="8317" code_departement="83" nom_departement="Var" code_region="93" nom_region="Provence-Alpes-Côte d'Azur"/><polygon points="72,143 72,143 72,143 72,143 72,143 72,143 72,143 72,143 72,143 73,143 73,143 73,143 73,143 72,143 73,142 72,142 72,142 73,142 73,142 73,142 73,142 73,142 73,142 73,142 73,142 73,142 73,142 73,142 73,142 73,141 73,141 73,141 73,141 73,141 73,141 73,141 73,141 74,141 74,140 74,140 75,140 75,140 75,140 75,140 75,140 75,140 76,140 76,141 76,141 76,141 76,141 76,141 76,141 76,142 76,142 76,142 76,142 76,142 76,143 76,143 76,143 76,143 76,143 76,143 76,143 76,143 76,143 76,144 76,144 76,144 75,144 76,144 76,144 76,144 76,144 76,144 75,144 75,144 75,144 75,144 75,144 75,144 75,144 75,144 75,144 76,145 75,145 75,145 75,145 75,145 75,145 75,145 75,145 75,144 75,144 75,144 75,144 74,144 74,144 74,144 74,144 74,144 74,144 74,143 74,143 74,143 74,143 74,143 74,143 74,143 74,143 73,143 74,143 74,143 74,143 74,143 73,143 73,143 73,143 73,143 73,143 73,143 73,143 73,143 73,143 72,143 72,143 72,143 72,143 72,143 72,143 72,143 72,143 72,143" id="8317" class="canton" fill="steelblue" stroke-width="1" stroke="white" geotype="canton" geoname="Seyne-sur-Mer-2" code_insee="8317" code_departement="83" nom_departement="Var" code_region="93" nom_region="Provence-Alpes-Côte d'Azur"/><polygon points="0,112 0,112 0,112 0,112 0,112 0,112 1,112 1,112 1,112 1,112 1,112 1,112 1,112 1,111 1,111 1,111 1,111 1,111 1,111 1,111 1,111 1,111 1,111 1,111 1,111 1,111 1,111 1,111 1,111 1,111 1,111 1,111 1,111 1,112 1,112 2,112 2,112 2,112 2,112 2,112 2,112 2,112 2,112 2,111 2,111 2,111 2,111 2,111 2,111 2,111 2,111 2,111 2,111 2,111 2,111 2,111 2,111 2,111 2,111 2,111 2,111 2,111 2,110 2,110 2,110 3,110 3,110 3,110 3,110 3,110 3,110 3,110 3,110 4,110 4,110 4,110 4,110 4,110 4,110 4,110 3,110 3,110 3,110 3,109 3,109 3,109 3,109 3,109 3,109 3,109 2,109 2,109 2,109 2,109 2,109 2,109 2,109 2,109 2,109 2,109 2,109 2,109 2,109 2,109 2,109 3,109 3,108 3,108 3,108 3,108 3,108 4,108 4,108 4,108 4,108 4,108 4,108 4,108 4,108 4,108 4,108 4,108 5,108 5,108 5,108 5,108 5,108 5,108 5,108 5,108 5,108 5,108 5,108 5,108 5,108 5,108 5,108 5,108 5,108 5,107 5,107 5,107 5,107 5,107 5,107 6,107 5,107 6,107 6,107 6,107 6,107 6,107 6,107 6,107 6,107 6,107 7,107 7,108 6,108 7,108 7,108 7,108 7,108 7,108 7,108 7,108 7,108 7,108 7,108 7,108 7,109 7,109 7,109 7,109 7,109 7,109 7,109 8,109 8,109 8,109 8,109 8,109 8,109 9,109 9,109 9,109 9,110 9,110 9,110 9,110 9,110 9,110 9,110 9,110 9,109 9,109 10,109 10,109 10,109 10,110 10,110 9,110 10,110 10,110 10,110 10,110 10,110 10,110 9,110 9,110 9,110 10,111 10,110 10,111 10,111 10,111 10,111 10,111 10,111 11,111 11,111 11,111 11,111 11,111 11,111 11,111 11,111 11,111 11,111 11,111 11,111 11,112 11,112 10,112 10,112 10,112 10,112 10,112 10,112 10,112 10,112 10,112 10,112 10,112 10,112 10,112 10,112 10,112 10,113 10,113 10,113 10,113 10,113 10,113 10,113 9,113 9,113 9,113 9,113 9,113 9,113 9,113 9,113 8,113 8,113 8,113 8,114 8,114 8,114 8,114 8,114 7,114 7,114 7,114 7,114 6,114 6,114 6,114 6,114 6,115 6,115 6,115 5,115 5,115 5,115 4,115 4,114 4,114 4,114 4,114 3,114 3,114 3,114 3,114 2,114 3,114 2,114 2,114 2,114 2,113 2,113 2,113 2,113 2,113 1,113 1,113 1,113 1,113 0,112 0,112 0,112 0,112 0,112" id="8317" class="canton" fill="steelblue" stroke-width="1" stroke="white" geotype="canton" geoname="Seyne-sur-Mer-2" code_insee="8317" code_departement="83" nom_departement="Var" code_region="93" nom_region="Provence-Alpes-Côte d'Azur"/><polygon points="275,196 276,195 276,195 276,195 277,195 277,195 277,196 277,196 277,196 277,196 276,196 276,196 276,196 276,196 276,197 275,197 275,196 275,196 275,196 275,196" id="8317" class="canton" fill="steelblue" stroke-width="1" stroke="white" geotype="canton" geoname="Seyne-sur-Mer-2" code_insee="8317" code_departement="83" nom_departement="Var" code_region="93" nom_region="Provence-Alpes-Côte d'Azur"/><polygon points="58,134 58,134 58,134 58,134 58,134 59,134 59,133 59,133 59,133 60,133 60,133 60,133 61,132 62,132 62,132 62,132 62,132 63,132 64,132 64,132 64,132 65,132 66,132 67,132 67,132 66,133 67,135 68,135 68,136 68,136 69,136 68,137 69,137 69,137 70,137 70,137 71,137 71,138 71,138 72,139 72,139 72,140 72,140 72,140 72,141 73,141 72,141 73,141 72,141 72,142 72,142 72,141 72,141 72,142 71,142 71,142 71,142 70,143 70,142 70,142 70,142 70,143 69,143 69,143 68,143 68,142 67,142 67,142 67,142 67,142 66,142 66,142 66,142 66,143 66,142 66,142 66,142 66,142 65,141 65,141 65,141 64,141 64,141 64,140 65,140 64,140 64,140 64,140 63,140 63,141 63,141 62,141 62,141 62,141 62,141 62,141 63,141 63,140 63,140 62,140 63,140 63,139 63,139 63,139 64,139 64,139 64,138 64,138 64,138 64,138 64,138 63,138 64,137 64,137 64,137 64,137 64,137 64,136 63,137 62,137 62,137 62,137 61,136 61,137 61,136 61,136 61,135 61,135 62,135 62,135 62,135 61,135 61,135 61,135 60,135 60,135 60,135 60,135 60,134 60,134 60,134 60,135 59,135 59,135 59,135 58,135 58,135 58,135 58,135 58,135 58,135 58,135 58,134" id="8317" class="canton" fill="steelblue" stroke-width="1" stroke="white" geotype="canton" geoname="Seyne-sur-Mer-2" code_insee="8317" code_departement="83" nom_departement="Var" code_region="93" nom_region="Provence-Alpes-Côte d'Azur"/></svg>