<?xml version="1.0" encoding="utf-8"?>
<svg version="1.1" id="svgmap" xmlns="http://www.w3.org/2000/svg" xmlns:xlink="http://www.w3.org/1999/xlink" x="0px" y="0px" width="100%" height="100%" viewBox="0 0 500 255">
<polygon points="50,218 50,218 50,218 50,218 50,217 50,217 50,217 50,218 50,218 51,217 51,217 51,217 53,218 54,218 54,218 54,218 54,218 55,218 55,218 55,217 56,217 56,217 56,218 57,218 58,218 58,218 59,218 60,218 60,217 60,217 61,217 61,217 60,217 61,217 61,217 60,217 60,217 59,218 59,218 59,218 59,219 60,219 60,219 60,219 60,218 60,218 60,218 60,218 60,218 61,218 61,218 61,218 61,218 61,218 61,218 61,218 61,218 61,218 62,218 61,218 61,218 61,218 61,218 61,218 61,218 62,217 62,217 61,217 61,217 62,217 62,217 63,217 63,218 63,218 63,218 63,218 63,218 63,218 63,218 64,218 64,218 64,218 64,219 63,219 63,219 63,219 63,219 63,219 63,219 63,219 63,219 63,219 63,219 62,219 62,219 62,219 62,219 62,220 62,220 62,220 62,220 62,220 62,220 62,220 62,220 62,220 62,220 62,220 62,220 62,220 62,220 62,220 62,220 61,220 61,219 61,219 61,220 61,220 61,220 61,220 61,220 61,220 61,220 61,220 61,220 61,220 61,220 61,220 61,220 61,220 61,220 61,220 61,220 61,220 61,220 61,220 61,220 61,220 60,220 60,220 60,220 60,220 60,220 60,220 60,220 60,220 60,220 60,220 60,220 60,220 60,220 60,220 60,220 60,220 60,221 60,221 60,221 59,221 59,221 59,221 59,221 59,221 59,221 59,221 59,221 59,221 59,221 59,221 58,221 58,221 58,221 58,221 58,221 58,221 58,221 58,221 58,221 58,221 58,221 58,221 58,221 58,221 58,222 57,221 57,221 57,221 57,221 57,222 57,222 57,222 57,222 57,222 57,222 57,222 57,222 57,222 57,222 57,222 57,222 57,222 56,222 56,222 56,222 57,222 56,222 56,222 56,222 56,221 56,222 56,222 56,221 56,221 56,221 56,221 56,221 56,221 56,221 56,221 56,221 56,221 56,221 56,221 56,221 56,221 56,221 56,221 56,221 56,221 56,221 55,221 55,221 55,221 55,221 55,221 55,221 55,221 55,221 55,221 55,221 55,221 54,221 54,221 55,221 55,221 55,221 54,221 54,221 54,221 54,221 54,221 54,221 54,221 54,221 54,221 54,221 54,221 54,221 54,221 54,221 54,221 54,221 54,221 54,221 54,221 54,221 53,220 53,220 53,220 53,220 53,220 53,220 53,220 53,220 53,220 52,220 52,220 52,220 52,220 52,220 51,219 51,219 51,219 51,219 51,219 51,219 51,218 51,218 50,218 50,218 50,218 50,218 50,218 50,218 50,218" id="8310" class="canton" fill="steelblue" stroke-width="1" stroke="white" geotype="canton" geoname="Ollioules" code_insee="8310" code_departement="83" nom_departement="Var" code_region="93" nom_region="Provence-Alpes-C么te d'Azur"/><polygon points="3,207 3,207 4,207 4,207 4,207 4,207 4,207 4,206 4,206 4,207 4,207 4,206 4,206 4,206 4,206 4,206 4,206 4,206 4,206 4,206 4,206 4,206 4,206 4,206 4,206 4,206 4,206 5,206 5,206 5,206 5,206 5,206 5,206 5,206 5,206 5,206 5,206 5,206 5,206 5,206 5,206 6,206 6,206 6,206 6,206 6,206 6,206 6,206 6,206 6,206 6,205 6,206 6,206 6,206 6,206 7,206 7,206 6,205 6,205 6,205 6,205 6,205 6,205 6,205 6,205 6,205 6,205 6,205 6,205 6,205 6,205 6,205 6,205 6,205 6,205 6,205 6,205 6,205 6,205 7,205 7,205 7,205 7,205 7,205 7,205 7,205 7,205 7,205 7,205 7,205 7,206 7,206 7,206 7,206 7,206 7,206 7,206 7,206 7,206 7,206 7,206 7,206 7,206 7,206 7,206 7,206 7,206 7,206 7,207 7,207 7,207 7,207 7,207 7,207 7,207 6,207 6,207 6,207 6,207 6,207 6,207 6,207 6,207 6,207 6,207 6,207 6,207 5,207 5,207 5,207 5,207 5,208 5,208 5,208 4,208 4,207 4,207 4,207 4,207 4,207 4,207 4,207 4,207 4,207 3,207 3,207 3,207" id="8310" class="canton" fill="steelblue" stroke-width="1" stroke="white" geotype="canton" geoname="Ollioules" code_insee="8310" code_departement="83" nom_departement="Var" code_region="93" nom_region="Provence-Alpes-C么te d'Azur"/><polygon points="500,13 494,25 486,41 486,43 484,44 484,44 484,45 483,46 481,47 469,58 467,59 466,60 466,60 461,65 459,67 451,73 450,73 450,73 450,73 450,73 450,73 449,73 449,73 449,73 448,73 448,73 447,72 447,72 447,72 447,72 447,72 446,72 446,72 446,72 445,71 445,71 437,77 428,85 427,85 426,85 426,85 425,86 424,86 424,87 423,87 424,86 423,86 422,86 422,87 420,87 419,88 418,88 417,88 416,89 415,89 414,89 414,89 413,89 410,89 410,89 410,89 410,90 410,90 409,90 409,89 409,89 407,90 407,91 407,93 407,94 408,95 410,98 410,98 410,99 412,100 412,101 412,102 413,102 413,102 413,104 413,104 413,105 412,106 413,106 412,107 412,108 412,108 412,109 413,110 413,111 413,111 413,112 413,112 413,113 413,113 413,114 412,114 412,114 412,114 412,115 412,115 412,116 413,116 412,117 408,120 405,121 404,121 403,122 397,128 396,130 396,130 395,131 395,132 393,134 393,134 393,135 393,135 393,136 393,136 391,138 389,139 387,140 386,140 385,141 384,141 384,141 384,141 386,136 386,136 385,136 379,139 379,139 378,139 378,139 377,138 377,136 377,136 377,136 376,136 373,137 370,139 370,139 370,141 370,142 370,142 367,143 366,143 366,145 366,146 368,165 370,175 370,182 372,196 372,196 372,198 372,198 372,199 373,202 373,204 370,204 370,204 369,204 367,204 367,202 367,202 367,201 367,199 367,199 367,196 367,194 369,193 369,192 368,191 366,191 366,191 366,195 366,195 366,196 362,196 362,197 361,197 361,198 361,198 363,199 363,199 364,200 364,201 365,201 366,201 365,201 365,202 365,202 365,202 365,202 365,202 365,202 364,202 364,202 360,203 360,204 360,204 359,204 359,204 359,204 360,204 360,204 361,203 362,204 362,205 361,205 360,206 360,207 361,208 362,208 363,208 363,208 363,208 363,210 364,210 364,212 364,213 364,213 364,215 363,218 363,218 365,218 366,215 371,215 374,214 374,217 374,218 374,220 374,221 375,222 375,222 375,222 375,224 375,226 376,236 376,237 376,238 376,238 376,239 377,240 377,246 374,246 373,245 374,243 373,243 372,241 370,241 371,241 370,240 366,240 346,238 335,238 313,234 288,234 288,234 284,233 280,233 263,233 246,234 243,234 241,234 239,233 234,234 226,236 226,238 226,238 226,239 225,239 225,239 224,239 224,239 223,238 222,238 220,237 220,237 219,237 219,237 218,237 218,237 217,237 217,238 216,238 216,238 215,237 215,237 215,237 213,237 211,236 210,236 209,236 207,236 207,236 206,237 205,238 204,238 204,238 204,238 204,239 204,239 205,239 205,240 205,240 204,240 204,240 203,240 203,240 202,240 202,240 201,240 199,240 199,240 199,240 198,240 198,241 197,241 196,242 194,242 193,243 192,243 191,243 191,243 191,243 191,243 191,243 190,245 190,247 190,247 189,248 189,249 189,250 188,250 188,250 189,250 189,250 188,250 188,250 189,250 190,251 190,251 190,251 190,251 189,251 189,251 189,251 188,251 185,250 184,250 184,250 184,250 184,250 184,250 184,250 184,249 184,249 184,249 184,249 184,249 182,248 181,249 181,249 181,248 181,248 181,248 181,247 182,247 182,247 181,247 181,247 180,247 179,247 178,247 178,247 177,247 176,248 176,248 176,248 176,248 176,248 176,248 176,248 176,248 176,248 177,247 177,247 178,246 178,246 179,246 179,246 180,245 180,245 181,245 181,244 179,244 179,243 178,243 177,243 175,243 175,243 175,243 175,243 175,243 175,243 174,244 174,244 174,244 175,244 175,244 174,245 174,245 174,245 174,245 173,245 172,246 172,246 172,246 172,246 172,246 172,247 172,248 172,248 172,248 172,248 174,249 174,249 174,249 174,249 175,249 174,249 175,250 175,250 175,250 174,250 174,250 172,249 172,249 171,249 170,249 170,249 170,249 170,249 169,250 168,250 163,252 163,252 163,252 163,252 162,252 161,252 161,252 161,252 160,252 160,252 160,253 159,253 157,253 157,253 157,253 156,254 156,254 156,254 156,254 156,254 156,254 156,254 156,255 156,255 156,255 156,255 156,255 156,255 155,255 155,255 155,255 155,255 155,255 155,255 155,255 155,255 154,255 154,255 154,255 154,255 153,255 153,255 153,255 152,255 152,255 152,255 152,255 152,255 152,255 152,255 152,254 151,254 152,254 152,254 152,254 152,254 152,254 152,254 152,254 151,254 151,254 151,254 151,254 151,254 151,254 151,254 151,253 152,253 151,253 151,253 151,253 151,253 151,253 151,253 151,253 151,253 150,253 150,253 149,253 149,253 148,253 148,253 148,254 147,254 146,254 146,254 146,254 146,254 146,254 145,254 145,254 145,254 145,254 145,254 145,254 145,254 145,254 145,253 145,253 145,253 146,253 146,253 146,253 146,253 147,253 147,253 147,253 147,253 147,253 147,253 147,253 147,253 147,253 147,253 147,253 147,253 147,253 147,252 147,252 147,252 147,252 147,252 147,252 148,252 148,252 148,252 147,252 147,252 147,252 147,252 147,252 147,252 148,251 148,251 148,251 148,251 148,251 148,251 148,251 148,251 148,251 148,251 148,251 149,251 149,250 149,250 149,250 149,250 148,250 148,250 148,250 148,250 148,250 148,250 148,250 148,250 148,250 149,250 149,250 149,250 150,250 150,250 151,250 151,249 151,249 151,249 150,249 150,248 150,248 150,247 150,247 149,247 149,247 149,246 148,246 148,246 148,246 147,246 147,246 147,246 147,246 146,246 146,246 146,246 145,245 145,246 144,246 144,246 144,246 143,246 143,246 143,246 143,246 142,247 142,246 142,247 141,247 141,247 141,247 141,247 141,247 140,247 140,247 140,247 140,246 139,246 139,246 139,246 138,246 138,246 138,246 138,246 137,246 137,246 137,246 137,246 137,246 136,246 136,246 136,246 136,246 136,246 136,246 136,246 136,246 135,246 135,246 135,246 135,246 135,246 135,246 134,245 134,245 133,245 133,245 132,245 132,245 131,245 131,245 130,245 130,245 129,245 129,245 129,246 129,246 129,246 129,246 129,246 129,246 128,246 128,246 128,246 128,246 128,246 128,246 128,246 128,246 128,246 127,246 127,246 127,246 127,246 127,246 127,246 127,246 126,246 126,246 126,246 126,246 126,246 126,246 126,246 126,246 125,245 125,245 125,245 125,245 125,245 125,245 125,245 125,245 125,245 125,245 125,245 125,245 125,245 125,245 125,245 125,245 124,245 124,245 124,245 124,245 124,245 124,245 124,245 124,245 124,245 124,245 124,245 124,245 124,245 123,245 123,245 123,245 123,245 123,245 123,246 123,246 123,246 123,246 123,246 123,246 123,246 123,246 123,246 123,246 122,246 123,246 122,246 122,246 122,246 122,246 122,245 122,245 122,245 121,246 121,246 121,246 121,246 121,246 121,245 120,245 119,244 119,244 118,244 118,244 117,244 116,244 116,244 115,244 115,244 115,244 114,245 114,245 114,245 114,245 113,245 113,245 113,245 112,245 112,245 111,245 111,245 110,245 110,245 109,245 109,245 109,245 109,245 109,245 109,245 109,245 109,245 109,245 109,245 108,245 108,245 108,245 108,245 107,245 107,245 107,245 107,245 107,245 107,245 107,245 107,245 107,245 106,245 106,245 106,245 106,245 106,245 106,245 106,245 106,245 106,245 105,245 105,245 105,245 105,246 105,246 105,246 105,246 104,246 104,246 104,246 104,246 104,246 104,246 104,246 104,246 104,246 103,246 103,246 103,246 103,246 103,246 103,246 103,246 103,246 103,246 103,246 103,246 103,246 103,246 103,246 103,246 103,246 103,246 103,246 103,246 103,246 103,246 103,246 103,246 103,247 103,247 103,247 103,247 103,247 103,247 103,247 103,247 102,247 102,247 102,247 102,247 102,247 102,247 102,247 102,247 102,247 102,247 102,247 102,247 102,247 102,247 102,247 102,247 102,247 102,247 102,247 102,247 102,247 101,247 101,247 101,247 101,247 102,247 102,246 102,246 102,246 102,246 102,246 102,246 102,246 102,246 102,246 101,246 101,246 101,246 101,246 101,246 101,246 101,246 101,246 101,246 100,246 100,246 100,246 99,247 99,247 99,247 99,247 99,247 98,247 98,247 98,247 98,247 98,248 97,248 97,248 97,248 97,248 96,248 96,248 96,248 96,248 96,248 95,248 95,248 95,249 95,249 94,249 94,249 94,249 94,249 94,249 94,249 94,249 94,248 94,248 94,248 94,248 94,248 95,248 95,248 95,248 95,248 95,248 95,247 95,247 95,247 95,247 95,247 95,247 95,247 94,247 94,247 95,247 95,247 95,247 95,247 95,247 95,247 95,247 95,247 95,247 95,247 95,247 96,247 96,247 96,247 96,247 96,247 96,247 96,247 96,247 96,247 96,246 96,246 96,246 96,246 96,246 96,246 97,246 97,246 97,246 97,246 97,246 97,246 97,246 97,246 97,246 98,246 98,246 98,246 98,246 98,246 98,246 98,246 98,245 98,245 98,245 98,245 98,245 98,245 99,244 99,244 100,244 100,244 99,244 100,244 100,244 100,244 100,244 101,244 101,244 101,244 101,244 101,244 101,244 102,244 102,244 102,244 102,244 102,244 102,244 102,244 102,244 102,244 102,244 102,244 102,244 102,244 102,244 102,244 102,244 102,244 102,244 102,244 102,244 102,244 102,244 103,244 103,244 103,243 103,243 103,243 103,243 103,243 103,243 103,243 103,243 103,243 103,243 104,243 104,243 104,243 104,243 104,243 104,243 104,243 104,243 104,242 106,241 111,239 113,237 113,237 114,236 116,237 117,236 118,234 118,234 118,233 119,233 120,232 120,232 120,231 120,231 119,231 118,230 118,230 118,230 118,230 117,230 116,230 116,230 116,230 116,230 116,230 115,230 115,230 114,230 114,230 114,230 114,230 114,229 114,229 113,229 113,229 113,229 113,229 112,229 112,229 111,229 111,229 111,229 111,229 112,228 112,228 112,227 112,227 113,225 112,224 112,224 112,224 111,223 111,223 112,223 112,223 112,223 112,223 112,223 112,223 112,223 112,222 112,222 112,222 112,222 112,222 113,223 113,222 113,223 113,222 113,222 113,222 113,222 113,222 113,222 113,222 114,222 113,222 114,222 114,221 114,221 114,221 114,221 115,221 114,221 115,221 115,221 116,221 116,221 117,220 117,220 118,220 118,219 118,219 118,219 119,219 120,218 121,218 121,218 121,218 121,218 121,218 122,218 121,218 122,218 122,218 122,217 122,217 122,218 122,218 122,218 122,218 122,218 122,218 122,218 123,218 122,218 122,218 123,218 123,218 123,218 124,217 126,217 127,216 127,216 127,217 127,217 128,217 128,216 128,216 127,216 128,216 128,216 129,215 129,214 129,213 129,212 129,212 128,212 128,212 128,211 128,211 128,211 127,209 126,207 125,205 124,204 122,202 122,201 121,201 120,200 116,198 112,195 110,195 110,194 106,193 104,193 104,193 104,193 104,193 104,193 104,193 103,193 103,193 103,194 102,194 102,194 102,194 101,194 101,194 102,194 102,194 101,193 101,193 100,193 99,193 99,193 99,193 99,193 99,193 98,193 97,192 96,193 96,193 95,193 94,193 93,194 92,194 91,194 91,195 91,195 91,195 91,195 91,195 90,195 90,195 90,195 89,195 88,196 87,196 85,196 84,197 84,197 84,198 84,198 85,198 84,200 83,200 83,200 82,201 81,200 80,199 80,199 80,199 79,199 79,199 78,200 77,200 77,201 77,201 77,202 77,202 77,202 77,202 78,202 79,202 78,203 78,203 77,203 75,204 74,204 73,205 73,205 73,206 73,206 73,206 73,206 73,206 73,206 73,205 73,205 74,203 75,203 75,203 74,203 74,203 74,203 74,202 74,202 74,201 74,201 74,201 73,200 71,200 70,201 69,201 68,201 66,202 66,202 65,203 65,203 65,203 64,203 64,204 64,204 63,204 63,205 62,206 62,207 61,208 62,209 62,210 62,210 64,210 65,211 66,211 66,211 66,211 66,211 66,211 67,211 68,210 71,209 72,208 72,208 72,208 73,208 73,208 73,207 73,207 73,207 74,207 74,207 74,207 74,207 73,208 73,208 68,211 66,212 65,212 64,213 63,213 63,213 63,214 63,214 63,214 63,214 63,214 63,214 63,214 63,214 62,214 62,214 62,214 60,215 59,215 59,215 59,215 59,214 60,214 60,214 60,214 60,214 60,214 60,213 59,213 59,213 59,213 58,213 58,213 58,213 57,213 57,212 57,212 56,212 56,212 56,212 55,212 55,211 55,211 55,210 55,210 55,210 54,210 54,210 54,210 54,210 54,210 54,210 54,210 54,210 54,209 54,209 54,209 54,209 54,209 54,209 54,209 54,209 54,209 54,209 54,209 54,209 54,209 53,209 53,209 53,209 53,209 53,209 53,209 53,208 53,208 53,208 53,208 53,208 53,208 53,207 53,207 53,207 53,207 53,207 53,206 53,206 53,206 53,206 53,206 53,206 53,206 53,206 53,205 53,205 53,205 53,205 53,205 53,206 53,206 53,206 53,206 54,206 54,207 54,207 54,207 54,207 54,207 54,207 54,207 54,207 54,207 54,207 54,207 54,207 55,207 55,207 55,207 55,207 56,207 56,207 56,207 57,207 57,207 57,207 57,206 58,206 58,206 58,206 58,205 58,205 58,205 58,205 58,205 58,205 58,205 58,205 58,204 58,204 58,203 58,203 58,203 58,203 58,202 57,202 57,202 57,202 57,201 56,201 56,201 56,201 56,201 55,201 55,201 55,201 55,201 54,201 54,201 54,201 54,201 54,201 54,201 54,201 54,201 54,201 54,201 54,201 54,201 53,201 53,201 53,201 53,202 53,202 53,202 52,201 52,201 51,202 51,202 51,203 51,203 50,203 51,204 51,204 51,204 51,204 50,204 50,204 50,204 49,204 48,204 47,204 46,204 45,203 45,204 44,203 44,203 44,203 44,203 43,203 43,203 43,203 43,202 43,202 43,202 43,202 42,202 42,202 42,202 42,202 41,202 41,202 40,203 40,203 39,203 39,203 39,202 39,202 38,202 38,203 38,203 38,203 38,203 38,204 38,204 37,204 37,204 37,204 37,204 37,204 36,205 36,205 36,205 36,205 35,205 35,205 35,205 35,205 35,205 35,205 35,205 35,205 35,205 35,205 35,205 35,205 35,205 35,205 35,205 35,205 35,205 35,205 35,205 35,205 35,205 35,205 34,205 34,206 34,206 34,206 34,206 34,206 34,206 34,206 34,206 34,206 34,206 34,206 34,206 34,206 34,206 34,206 34,206 34,206 34,206 34,206 34,206 34,206 34,206 34,206 34,206 34,206 34,206 34,206 34,206 34,206 34,206 34,206 34,206 34,206 34,206 34,206 34,206 34,206 34,206 34,206 34,206 34,206 34,206 34,206 34,206 34,206 34,206 34,206 34,206 34,206 34,206 34,206 34,206 34,206 34,206 34,206 34,206 34,206 34,206 34,206 34,206 34,206 34,206 34,206 34,206 34,206 34,206 34,206 34,206 34,206 34,206 34,206 34,206 34,206 34,206 34,206 34,206 34,206 34,206 34,206 34,206 34,206 34,206 34,206 34,206 34,206 34,206 34,206 34,206 34,206 34,206 34,206 34,206 34,206 34,206 34,206 34,206 34,206 34,206 34,206 34,206 34,206 34,206 34,206 34,206 34,206 34,206 34,206 34,206 34,206 34,206 34,206 34,206 34,206 34,206 34,206 34,206 34,206 34,206 34,206 34,206 34,206 34,206 34,206 34,206 34,206 34,206 34,206 34,206 34,206 34,206 34,206 34,206 34,206 34,206 34,206 34,206 34,206 34,206 34,206 34,206 34,206 34,206 34,206 34,206 34,206 34,206 34,206 33,206 33,206 34,206 34,206 34,206 34,206 34,206 34,206 34,206 34,206 34,206 34,206 34,205 34,205 34,205 34,205 34,205 34,205 34,205 34,205 34,205 34,205 34,205 34,205 34,205 34,205 34,205 34,205 34,205 34,205 34,205 34,205 34,205 34,205 34,205 34,205 34,205 34,205 34,205 34,205 34,205 34,205 34,205 34,205 34,205 34,205 34,205 34,205 34,205 34,205 34,205 34,205 34,205 34,205 34,205 34,205 34,205 34,205 34,205 34,205 34,205 34,205 34,205 34,205 34,205 34,205 34,205 34,205 34,205 34,205 34,205 34,205 34,205 34,205 34,205 34,205 34,205 34,205 34,205 34,205 34,205 34,205 34,205 34,205 34,205 34,205 34,205 34,205 34,205 34,205 34,205 34,205 34,205 34,205 34,205 34,205 34,205 34,205 34,205 34,205 34,205 34,205 34,205 34,205 34,205 34,205 34,205 34,205 34,205 34,205 34,205 34,205 34,205 34,205 34,205 34,205 34,204 34,204 34,204 34,204 34,204 34,204 34,204 34,204 34,204 34,204 34,204 34,204 34,204 34,204 34,204 34,204 34,204 34,204 34,204 34,204 34,204 34,204 34,204 34,204 34,204 34,204 34,204 34,204 34,204 34,204 34,204 34,204 34,204 34,204 34,204 34,204 33,204 33,204 33,204 33,204 33,204 33,204 33,204 33,204 33,204 33,204 33,204 33,204 33,204 33,204 33,204 33,204 33,204 33,204 33,204 33,204 33,204 33,204 33,204 33,204 33,204 33,204 33,204 33,204 33,204 33,204 33,204 33,204 33,204 33,204 33,204 32,204 32,204 32,204 32,204 32,204 32,204 32,204 32,204 32,204 32,204 32,204 32,204 32,204 32,204 32,204 32,204 32,204 32,204 32,204 32,204 32,204 32,204 32,204 32,204 32,204 32,204 32,204 32,204 32,204 32,204 32,204 32,204 32,204 32,204 32,204 32,204 32,204 32,204 32,204 32,204 32,204 32,204 32,204 32,204 32,204 32,204 31,204 31,204 31,204 31,204 31,204 31,204 31,204 31,204 31,204 31,204 31,204 31,204 31,204 31,204 31,204 31,204 31,204 31,204 31,204 31,204 31,204 31,204 31,204 31,204 31,204 31,204 31,204 31,204 31,204 31,204 31,204 31,204 31,204 31,204 31,204 31,204 31,204 31,204 31,204 31,204 31,204 31,204 31,204 31,204 31,204 31,204 31,204 31,204 31,204 31,204 31,204 31,204 31,204 30,204 30,204 30,204 30,204 30,204 30,204 30,204 30,204 30,204 30,204 30,204 30,204 30,204 30,204 30,204 30,204 30,204 30,204 30,204 30,204 30,204 30,204 30,204 30,204 30,204 30,204 30,204 30,204 30,204 30,204 30,204 30,204 30,204 30,204 30,204 30,204 30,204 30,204 30,204 30,204 30,204 30,203 30,203 30,203 30,203 30,203 30,203 30,203 30,203 30,203 30,203 30,203 30,203 30,203 30,203 30,203 30,203 30,203 30,203 30,203 30,203 30,203 30,203 30,203 30,203 30,203 30,203 30,203 30,203 30,203 30,203 30,203 30,203 30,203 30,203 30,203 30,203 30,203 30,203 30,203 30,203 30,203 30,203 30,203 30,203 30,203 30,203 30,203 30,203 30,203 30,203 30,203 30,203 30,203 30,203 30,203 30,203 30,203 30,203 30,203 30,203 30,203 30,202 30,202 30,202 30,202 30,202 30,202 30,202 30,202 30,202 30,202 30,202 30,202 30,202 30,202 30,202 30,202 30,202 30,202 30,202 30,202 30,202 30,202 30,202 30,202 30,202 30,202 30,202 30,202 30,202 30,202 30,201 30,201 30,201 30,201 30,201 30,201 29,201 29,201 29,201 29,201 29,201 29,201 28,201 28,201 28,201 28,202 28,202 28,202 28,202 28,202 28,202 28,202 28,202 28,202 28,202 28,202 28,202 28,202 28,202 28,202 28,202 28,202 28,202 28,202 28,202 28,203 28,203 27,203 27,203 27,203 27,203 27,203 27,203 27,203 27,203 27,203 27,203 27,203 27,203 27,203 27,203 27,203 27,203 27,203 26,203 26,203 26,203 26,203 27,203 27,203 27,203 27,203 27,203 27,203 27,203 27,203 27,203 27,202 27,202 27,202 27,202 27,202 27,202 27,202 27,202 27,202 27,202 27,202 27,202 27,202 27,202 27,202 27,202 27,202 27,202 28,202 28,201 28,201 28,201 28,201 28,201 28,201 28,201 28,201 28,201 28,201 28,201 28,200 28,200 28,200 28,200 27,200 27,200 27,200 27,200 27,200 27,200 27,200 26,200 26,200 26,200 26,200 26,200 26,200 26,200 25,200 25,200 25,200 25,200 25,200 25,200 24,200 24,200 24,200 24,200 24,200 24,200 24,200 24,200 23,200 23,200 23,200 23,200 23,200 22,200 22,200 22,200 21,200 21,200 21,200 21,200 21,200 21,199 20,199 20,199 20,199 20,199 20,199 19,199 19,199 19,199 19,199 18,199 18,199 18,199 18,199 18,199 17,199 17,199 17,199 17,200 17,200 17,200 17,200 17,200 17,200 17,201 17,201 17,201 17,201 17,201 17,201 17,201 16,201 16,201 16,201 16,201 16,201 16,201 16,201 16,201 16,201 15,202 15,202 15,202 15,202 15,202 15,201 14,201 14,201 15,201 15,201 15,201 14,201 14,201 14,201 14,201 13,201 13,200 13,200 13,200 11,200 11,201 12,201 13,201 13,201 13,201 13,201 13,201 13,201 13,202 13,202 13,202 13,202 12,202 11,202 10,202 9,202 9,202 8,202 8,202 8,202 8,202 7,202 6,202 6,202 6,202 6,202 6,202 6,202 5,201 4,201 4,201 4,201 3,201 3,200 3,200 3,200 3,199 3,199 3,199 2,199 2,199 2,199 2,198 2,198 2,198 1,198 0,198 1,198 1,197 1,197 0,196 0,195 0,195 0,195 1,194 0,194 1,194 1,194 2,194 2,193 2,193 2,193 2,192 2,192 2,192 3,191 3,191 3,191 3,191 3,190 2,190 2,190 2,190 1,190 1,189 1,189 1,189 1,188 2,188 2,188 2,187 4,187 4,187 4,187 5,187 5,187 6,186 6,186 7,186 7,186 7,186 7,185 7,185 7,185 7,184 7,184 8,184 9,183 9,183 8,182 8,182 8,181 9,180 9,180 9,179 9,179 9,179 8,178 8,178 7,178 7,177 7,176 7,176 7,175 7,175 6,174 6,173 6,173 6,173 7,173 7,173 7,172 6,171 6,171 6,170 6,170 7,169 7,169 7,168 7,168 6,167 6,167 6,166 6,166 6,165 6,165 6,163 6,161 6,160 6,158 6,158 6,158 6,157 4,156 4,156 4,156 5,154 5,153 5,153 5,151 6,152 7,152 7,152 7,152 8,152 17,153 18,153 18,153 19,153 19,153 25,154 31,154 31,154 30,149 30,148 30,148 29,148 29,148 29,148 29,148 29,143 29,143 29,143 28,142 26,141 26,141 26,141 26,140 27,140 29,138 31,136 31,136 34,136 34,136 35,136 35,136 35,133 35,133 34,133 33,133 33,133 33,133 33,133 33,133 33,133 33,132 32,132 32,132 33,131 33,131 33,131 33,131 33,131 33,131 33,131 33,130 33,130 34,129 35,127 35,126 35,127 37,129 38,130 39,132 39,132 39,132 39,132 40,132 40,131 40,131 41,131 42,131 42,131 42,131 42,131 42,132 41,132 41,132 41,132 42,132 42,133 42,134 42,134 42,134 42,134 43,134 43,134 44,134 44,134 44,134 44,134 44,134 45,134 45,134 45,135 46,136 46,136 46,136 46,136 47,136 47,137 47,137 47,137 48,137 48,137 52,136 53,136 54,135 54,135 54,134 54,134 54,134 53,134 53,134 52,133 52,133 53,133 53,132 54,132 54,133 54,133 55,133 55,134 56,134 56,135 58,137 58,137 59,138 59,138 59,138 64,136 65,135 70,132 70,132 73,134 74,134 74,134 74,134 74,134 73,135 73,136 73,136 72,139 71,139 71,139 71,139 71,140 70,141 70,141 70,141 71,142 73,142 74,143 74,143 74,145 74,145 74,146 74,146 75,146 75,145 77,145 77,145 79,145 79,145 79,145 79,145 79,145 80,145 80,145 80,145 81,144 82,144 82,144 83,144 85,145 88,145 89,145 90,145 90,145 91,146 91,146 91,146 92,146 92,146 93,146 94,146 95,146 98,146 99,146 102,146 103,146 104,146 105,146 106,146 108,145 116,144 119,144 119,143 119,140 120,140 121,139 122,139 123,139 123,139 126,139 127,140 127,140 127,140 128,140 129,140 130,140 131,140 133,139 134,139 134,139 135,139 135,139 138,138 138,138 139,139 139,139 140,139 141,138 142,138 143,138 143,138 143,139 143,139 143,139 145,139 145,139 146,139 146,139 146,139 147,139 148,139 149,139 150,139 150,139 151,139 151,139 153,140 153,140 154,140 156,140 157,140 158,140 158,140 159,140 159,141 160,141 160,141 161,141 161,141 162,142 163,142 163,142 165,142 165,142 166,142 168,142 169,142 169,142 170,143 170,143 171,144 171,144 171,144 173,145 173,145 175,145 175,146 176,146 176,146 175,146 175,147 183,132 184,130 184,129 185,129 185,128 185,128 185,128 185,128 185,128 186,127 186,127 186,127 186,126 187,126 187,126 187,125 187,125 187,124 187,124 188,123 188,122 188,121 188,121 188,120 188,120 188,119 189,119 189,118 190,118 190,118 191,117 193,118 193,118 194,118 194,118 195,118 195,118 195,118 196,119 196,119 197,119 198,120 199,120 199,120 201,121 201,121 201,121 202,121 202,121 202,121 203,121 204,121 205,121 205,121 206,121 206,122 206,121 206,121 207,121 207,121 207,121 208,121 208,121 208,120 209,120 209,120 209,120 209,120 209,120 210,120 210,120 210,120 210,120 210,120 210,119 211,119 211,119 211,119 211,119 211,119 212,118 212,118 212,117 213,117 214,116 214,116 214,116 215,116 215,116 216,116 216,116 217,116 217,116 218,117 218,117 218,117 218,117 220,116 220,116 220,115 220,115 220,115 220,114 219,114 219,114 219,113 219,113 219,113 219,112 219,111 219,111 235,104 239,103 241,102 243,101 245,100 245,100 249,99 253,99 253,99 253,99 254,98 254,98 254,98 254,98 254,97 254,96 254,96 254,95 254,95 254,95 254,95 255,95 256,94 257,94 257,94 257,94 257,93 258,92 258,92 258,91 259,91 260,90 259,90 259,89 259,89 260,88 260,88 261,87 263,85 263,85 264,84 264,84 264,83 264,83 265,83 265,83 265,83 266,83 266,83 267,82 268,82 269,82 269,82 270,81 271,81 271,80 272,79 272,79 272,79 273,78 274,78 275,77 275,77 276,76 275,75 275,75 275,75 275,74 275,74 275,74 275,73 275,73 275,73 275,72 275,72 275,71 275,71 276,71 276,71 276,70 277,70 277,69 277,69 278,69 278,68 278,68 279,67 279,67 279,66 279,66 279,66 280,65 280,65 280,65 280,65 281,65 282,65 282,65 282,65 283,65 286,65 286,65 288,64 290,64 290,64 291,64 291,63 292,63 292,63 293,62 293,62 294,61 295,60 296,58 296,58 297,57 297,57 299,55 300,55 300,55 302,54 302,53 304,53 304,53 305,53 305,53 305,53 304,52 303,52 302,51 301,51 301,51 301,51 301,50 301,50 301,50 301,49 300,47 300,47 299,46 298,45 297,45 296,44 296,43 296,43 296,42 296,41 296,41 296,40 297,40 297,40 297,40 298,40 300,39 300,39 300,39 300,38 299,37 299,35 299,35 298,35 297,33 296,32 296,32 296,30 295,30 294,28 293,27 292,26 292,26 291,25 290,24 289,23 288,21 288,21 288,19 288,19 289,18 289,17 289,17 288,16 288,16 288,14 288,9 296,6 299,4 299,4 302,3 303,2 304,2 312,0 314,3 317,6 318,7 319,8 326,15 326,16 327,19 327,19 329,19 329,19 330,19 331,19 342,20 347,20 349,20 375,20 376,20 385,21 385,21 399,18 399,18 400,18 410,14 411,14 436,11 445,10 446,10 463,10 464,10 482,11 499,13 500,13" id="8310" class="canton" fill="steelblue" stroke-width="1" stroke="white" geotype="canton" geoname="Ollioules" code_insee="8310" code_departement="83" nom_departement="Var" code_region="93" nom_region="Provence-Alpes-C么te d'Azur"/><polygon points="47,217 47,217 47,217 47,217 47,217 47,217 47,217 47,217 47,217 47,217 47,217 47,217 48,217 48,217 48,217 48,217 48,217 48,217 48,217 48,217 48,217 48,217 48,217 48,217 48,217 49,217 49,217 49,217 49,217 49,217 49,217 49,217 49,217 49,217 49,217 49,217 49,217 49,217 49,217 49,217 49,217 49,217 49,217 49,217 49,217 49,217 50,217 50,217 50,217 50,217 49,217 49,218 49,218 49,218 49,218 50,218 50,218 50,218 50,218 50,218 49,218 49,218 49,218 49,218 49,218 49,218 49,218 49,218 49,218 49,218 49,218 49,218 49,218 49,218 49,218 49,218 49,218 49,218 49,218 49,218 49,218 49,218 49,218 49,218 49,218 49,218 49,218 49,218 49,218 49,218 49,218 49,218 49,218 49,218 49,218 49,218 49,218 49,218 49,218 49,218 49,218 49,218 49,218 49,218 49,218 49,218 49,218 49,218 48,218 48,218 48,218 48,218 48,218 48,218 48,218 48,218 48,218 48,218 48,218 48,218 48,218 48,218 48,218 48,218 48,218 48,218 48,218 48,218 48,218 48,218 48,218 48,218 48,218 48,218 48,218 48,218 48,218 48,218 48,218 48,218 47,218 47,218 47,218 47,217 47,217 47,217 47,217 47,217 47,217 47,217 47,217 47,217 47,217 47,217 47,217 47,217 47,217 47,217 47,217 47,217 47,217 47,217 47,217 47,217 47,217 47,217 47,217 47,217 47,217 47,217 47,217 47,217 47,217 47,217 47,217 47,217 47,217 47,217 47,217 47,217 47,217 47,217 47,217" id="8310" class="canton" fill="steelblue" stroke-width="1" stroke="white" geotype="canton" geoname="Ollioules" code_insee="8310" code_departement="83" nom_departement="Var" code_region="93" nom_region="Provence-Alpes-C么te d'Azur"/></svg>