<?xml version="1.0" encoding="utf-8"?>
<svg version="1.1" id="svgmap" xmlns="http://www.w3.org/2000/svg" xmlns:xlink="http://www.w3.org/1999/xlink" x="0px" y="0px" width="100%" height="100%" viewBox="0 0 500 292">
<polygon points="2,103 2,102 2,101 2,101 3,100 3,99 3,98 3,98 4,97 4,96 4,95 4,95 5,94 5,93 5,92 5,91 5,91 5,90 5,89 4,87 4,85 4,84 4,82 4,81 4,80 4,79 4,78 5,77 5,76 5,75 5,74 5,74 5,73 6,72 6,71 6,69 7,69 7,68 7,66 8,62 8,60 8,58 9,54 9,52 9,51 9,48 8,45 7,43 7,41 6,39 3,35 3,33 2,31 2,29 2,28 2,26 2,24 2,23 3,21 4,19 4,15 4,14 5,13 5,13 5,12 5,12 5,11 5,11 5,11 5,10 5,9 5,8 5,8 5,7 5,6 5,5 5,4 5,3 5,3 4,2 4,1 4,1 4,0 13,2 21,5 37,11 37,11 39,10 40,10 40,8 40,8 41,8 43,9 47,9 47,10 49,11 50,11 53,15 53,15 59,15 60,15 63,15 67,15 71,15 73,15 76,15 78,15 78,15 80,15 81,14 83,14 84,14 85,14 86,14 86,14 87,15 87,15 87,15 88,15 88,15 89,15 90,15 90,15 91,15 91,15 92,15 94,15 97,15 98,15 100,15 100,15 102,15 104,15 109,15 113,15 113,14 113,13 113,12 112,12 112,11 112,11 112,11 112,10 112,10 112,9 112,9 113,8 113,8 114,7 114,6 121,6 123,6 122,5 122,4 121,4 123,4 125,4 128,4 129,4 133,5 136,5 144,5 145,6 149,6 150,6 153,6 158,6 163,7 164,7 164,7 166,6 170,6 171,7 175,7 175,7 177,7 179,7 185,7 187,7 196,7 196,7 198,6 200,7 201,7 202,8 204,11 206,12 207,12 210,14 210,15 210,16 211,17 215,20 215,21 216,21 218,21 220,21 223,20 224,19 224,19 225,19 227,19 227,19 230,19 231,19 233,22 234,23 235,24 237,25 239,26 241,27 244,27 245,27 246,27 246,28 246,28 246,30 245,30 245,31 246,31 246,32 246,32 246,33 247,35 247,38 249,38 250,38 252,38 252,39 253,39 254,39 255,40 256,40 257,41 260,43 263,44 264,45 265,45 265,45 267,45 274,44 272,51 272,51 272,51 272,52 272,54 271,55 271,57 272,58 272,59 273,61 274,63 274,63 274,64 274,65 274,69 274,71 274,73 273,73 272,75 271,76 271,81 271,84 271,86 272,89 273,90 277,97 277,98 276,100 273,105 274,105 275,106 276,108 279,111 283,115 288,125 288,126 287,127 287,129 288,130 289,133 289,134 287,137 289,141 290,144 289,147 288,149 287,153 288,156 289,161 291,170 293,171 293,171 296,175 303,176 311,176 313,177 313,176 313,175 314,173 317,173 321,171 322,171 324,169 324,169 330,164 331,162 332,163 336,165 337,165 337,164 338,160 338,158 338,157 342,153 343,153 344,154 348,155 348,155 349,154 349,154 351,153 354,152 354,152 357,150 362,148 364,147 364,146 365,146 366,146 366,146 366,145 366,144 366,144 365,143 365,143 365,143 365,143 366,143 366,143 367,142 368,142 368,141 369,141 369,141 369,141 369,141 370,141 370,141 370,141 371,141 372,141 373,141 373,140 374,140 374,140 374,140 375,140 375,140 375,140 376,140 376,140 376,140 376,140 377,140 377,140 377,140 377,140 377,140 377,140 377,140 378,140 378,140 378,140 378,140 378,140 378,140 378,140 378,140 379,140 381,140 381,140 381,140 382,138 382,137 382,134 382,133 382,132 383,132 383,130 384,129 385,128 386,128 387,128 387,128 388,128 390,127 391,126 391,126 392,126 393,124 393,124 394,124 394,123 395,123 395,122 396,122 396,122 398,121 399,121 403,119 403,119 403,119 406,118 406,119 408,118 410,118 413,118 413,118 414,119 414,119 415,119 416,118 418,118 420,118 420,118 422,117 423,117 425,117 425,116 426,116 427,116 428,116 430,115 435,114 435,114 436,114 436,114 437,114 442,114 443,114 444,114 442,116 440,118 439,119 436,121 436,122 435,123 433,126 434,126 434,126 435,126 438,126 439,127 441,127 441,127 441,126 441,125 442,123 443,122 444,121 446,121 447,121 448,121 449,121 450,121 451,121 452,121 453,121 454,121 455,121 457,121 457,120 459,120 460,120 461,120 464,120 465,120 466,121 467,121 468,121 469,121 469,121 471,121 473,121 474,121 477,121 480,122 480,121 481,121 481,120 482,119 483,119 484,119 487,118 489,117 491,117 491,117 494,117 499,117 500,117 496,120 495,122 494,123 493,124 492,125 490,126 488,128 488,129 486,132 486,134 484,133 484,134 484,134 480,131 479,131 478,132 477,132 475,133 473,134 472,135 472,135 471,135 470,137 469,137 469,138 467,140 467,141 467,141 463,145 463,145 463,145 463,145 462,145 461,145 460,144 460,144 459,144 458,145 457,145 456,145 456,145 455,145 455,146 454,146 453,146 451,147 448,148 447,148 447,148 445,149 444,150 444,150 441,151 440,152 439,152 439,152 439,152 439,152 437,152 437,156 437,157 437,159 437,162 437,163 438,163 438,164 438,165 438,166 439,169 439,170 440,171 440,172 440,173 441,176 442,176 442,177 442,178 443,178 443,179 443,179 443,180 443,181 443,182 443,183 443,183 443,184 443,185 443,185 443,186 446,192 446,193 446,193 447,194 447,195 447,197 448,197 448,197 448,198 449,198 450,198 451,198 452,199 453,199 454,200 455,201 456,201 456,201 456,202 457,202 458,202 459,203 467,207 468,207 468,208 468,210 469,211 453,215 453,215 446,217 445,217 443,217 443,217 441,217 439,217 436,217 433,218 428,218 426,218 422,218 419,219 413,219 412,219 413,223 413,224 413,227 413,227 413,228 413,229 413,229 411,230 410,230 409,230 409,231 408,231 407,232 406,233 405,233 404,234 404,235 403,236 402,241 402,241 402,241 402,241 401,243 401,244 401,244 401,245 401,245 402,247 402,248 401,249 401,250 400,251 400,252 400,253 400,253 400,254 400,256 400,257 400,258 401,260 401,261 401,261 402,262 401,263 400,263 399,264 398,265 396,266 395,267 394,268 393,268 393,269 390,270 389,270 388,271 387,271 386,271 382,270 380,270 378,269 376,269 375,269 373,269 372,269 369,270 366,270 365,270 365,270 364,270 362,271 361,270 360,271 359,270 358,270 357,270 356,269 354,268 352,267 349,266 347,266 344,266 341,267 339,268 336,269 333,270 332,270 329,271 326,272 323,274 322,276 320,278 319,279 318,279 317,282 317,282 308,289 304,287 302,286 302,286 303,284 303,283 303,283 303,282 303,282 302,280 302,278 302,277 302,275 302,274 302,274 302,273 302,272 302,270 303,269 303,268 303,266 303,266 303,266 303,265 303,264 303,264 303,263 303,263 303,263 303,262 303,262 304,262 304,261 304,261 304,260 304,259 304,258 304,258 304,257 305,257 305,256 305,256 304,256 303,256 303,256 302,251 302,248 299,248 295,248 293,248 293,248 293,249 293,249 292,251 291,254 291,254 291,254 291,255 290,255 290,256 290,256 290,257 289,257 289,258 288,257 288,257 288,257 287,258 286,258 285,258 284,259 284,260 284,260 282,261 281,261 280,262 277,263 275,264 270,266 268,267 268,267 268,264 268,261 268,256 268,254 268,253 268,253 268,253 268,251 267,242 267,241 267,238 267,234 267,234 266,234 264,235 264,235 263,235 263,235 263,235 263,235 262,235 262,235 261,235 260,235 258,235 258,235 257,235 255,237 254,237 254,237 253,237 253,238 252,238 252,238 251,239 251,239 250,239 250,240 250,240 250,240 250,240 249,240 249,240 249,240 249,239 249,238 249,237 249,236 249,236 249,235 249,235 249,235 249,235 249,234 249,234 249,233 249,232 249,232 248,231 248,231 248,230 248,229 248,229 248,229 248,229 249,228 249,227 249,227 249,227 249,227 249,227 248,226 248,226 248,226 248,225 248,225 248,225 247,224 247,224 247,224 247,223 247,223 247,222 247,222 247,222 247,222 247,221 247,221 246,221 246,221 246,220 246,220 245,219 245,219 245,219 245,219 244,218 244,217 244,217 244,217 244,216 243,215 243,215 243,214 243,214 242,213 242,212 242,212 242,211 242,211 240,209 239,209 239,208 238,208 238,208 237,208 237,208 236,207 236,207 236,207 234,207 234,207 233,207 231,207 230,207 230,207 229,207 229,207 228,208 228,208 227,208 218,208 211,208 211,208 210,212 206,226 205,228 205,228 205,229 205,229 205,229 204,229 204,228 203,228 202,228 202,229 200,229 200,229 199,229 199,229 198,229 198,229 197,228 196,228 196,228 195,228 194,228 192,228 191,228 190,228 190,228 190,228 189,228 189,228 188,228 187,228 187,228 187,228 186,228 186,228 186,228 185,228 185,228 185,228 183,228 182,228 181,228 179,228 177,229 176,229 176,229 176,229 176,229 176,230 176,231 176,231 176,231 176,231 175,233 175,233 174,233 174,233 173,234 173,235 173,235 173,235 174,236 175,236 175,236 175,236 175,237 175,237 175,237 174,237 174,238 173,238 172,239 172,239 171,239 171,239 171,240 171,241 171,241 171,241 171,243 171,244 171,244 171,244 170,245 170,245 173,247 171,247 171,250 171,250 171,250 170,250 168,251 168,251 168,251 167,251 167,252 166,253 166,253 166,253 166,254 166,254 166,254 165,255 165,256 165,256 165,256 165,257 165,258 165,258 165,259 165,259 165,259 166,260 166,260 169,263 169,263 170,263 170,264 172,266 172,266 172,267 171,267 171,267 171,267 171,268 172,268 173,268 174,268 174,268 175,269 175,269 175,269 176,269 176,269 176,269 176,269 176,269 176,269 177,269 177,269 177,270 177,270 176,270 175,273 175,274 174,275 174,275 173,276 171,276 171,276 171,277 171,277 171,277 171,277 171,277 170,277 168,278 168,278 167,278 166,279 165,280 165,281 164,282 164,283 164,284 164,284 165,285 165,286 165,286 163,286 162,286 159,287 156,287 156,287 155,287 155,287 155,287 155,287 155,287 153,287 153,287 151,288 150,288 149,288 147,288 142,290 140,291 136,292 136,292 135,291 134,291 134,291 133,291 132,291 131,291 131,290 130,290 130,290 130,289 130,289 130,288 129,288 129,287 128,286 128,286 127,285 127,285 126,286 126,286 126,286 125,285 124,285 121,285 120,285 120,283 120,281 120,279 121,278 120,276 120,274 120,273 120,271 120,270 119,269 119,267 119,267 120,267 122,267 123,267 125,267 125,267 125,267 125,266 125,266 125,266 125,266 125,265 125,265 125,265 125,265 125,263 125,262 125,261 126,261 126,260 127,258 127,257 128,256 129,255 129,255 129,254 129,254 129,253 129,250 129,249 129,249 129,248 129,248 127,247 125,245 125,245 124,245 124,245 123,245 123,244 121,244 120,243 118,243 118,242 117,242 115,242 115,241 113,241 111,241 110,241 108,241 107,241 106,241 106,241 100,239 100,239 99,236 98,234 98,233 98,231 98,230 98,227 98,227 98,226 99,225 99,224 100,223 102,221 104,219 105,218 106,215 107,213 107,211 107,209 107,209 106,205 104,204 103,203 103,203 100,201 99,200 99,200 98,200 97,200 96,200 94,199 93,199 93,199 92,199 90,199 86,199 83,199 80,199 75,201 74,201 70,202 67,203 59,205 58,205 55,205 55,205 54,205 52,205 50,204 47,203 45,201 43,199 43,196 43,194 43,192 44,192 44,191 48,183 50,179 50,178 51,176 52,173 52,173 52,171 52,169 52,169 52,168 52,167 51,167 51,166 51,165 49,163 47,160 46,160 46,159 44,157 43,157 41,155 40,155 38,153 34,151 30,148 28,147 26,146 23,143 21,142 20,141 18,139 15,136 13,134 12,133 10,131 10,131 9,130 9,130 8,129 8,128 7,127 7,126 6,126 5,124 4,123 4,122 2,119 0,117 0,115 0,112 0,109 0,108 1,106 2,103" id="8405" class="canton" fill="steelblue" stroke-width="1" stroke="white" geotype="canton" geoname="Bollène" code_insee="8405" code_departement="84" nom_departement="Vaucluse" code_region="93" nom_region="Provence-Alpes-Côte d'Azur"/></svg>