<?xml version="1.0" encoding="utf-8"?>
<svg version="1.1" id="svgmap" xmlns="http://www.w3.org/2000/svg" xmlns:xlink="http://www.w3.org/1999/xlink" x="0px" y="0px" width="100%" height="100%" viewBox="0 0 500 404">
<polygon points="0,361 4,359 5,358 6,357 9,355 10,353 12,352 14,350 17,348 20,346 24,344 30,338 33,336 37,332 49,320 51,318 56,312 62,303 66,295 71,285 72,284 73,282 74,280 78,275 81,273 83,271 90,267 102,259 105,257 108,255 111,254 114,253 119,251 123,251 125,251 128,251 146,246 151,245 161,243 167,241 170,240 183,235 188,233 194,230 196,229 201,226 204,224 209,220 216,213 220,207 222,203 222,201 222,197 220,187 220,184 218,177 216,173 215,170 212,165 208,160 203,152 201,149 198,144 194,137 193,136 191,132 189,129 189,127 188,123 188,120 187,113 187,109 187,104 188,99 188,96 189,91 191,85 192,81 193,75 194,73 196,69 200,62 207,56 213,53 222,51 224,51 227,51 238,52 241,52 251,54 258,56 262,57 266,58 269,59 273,60 277,60 279,61 281,62 283,63 285,63 289,64 291,64 295,66 306,69 319,71 325,73 330,74 337,74 347,75 349,75 355,75 362,73 365,72 374,71 384,69 388,68 396,64 397,62 398,61 399,61 401,59 405,52 406,49 408,47 408,46 409,44 409,42 410,39 410,35 411,27 411,23 411,17 412,13 413,10 413,10 413,10 413,9 413,8 415,0 426,16 436,27 443,35 449,43 453,48 455,50 458,53 462,59 467,68 469,72 471,79 472,86 473,93 473,99 473,107 472,113 471,118 468,127 466,131 465,134 465,141 466,149 467,158 467,165 468,171 467,176 466,179 465,183 463,187 459,194 456,199 453,203 449,207 445,211 440,216 433,222 428,226 423,230 417,234 409,236 403,237 394,238 387,239 375,239 374,244 373,246 372,249 372,250 372,251 371,252 371,253 371,253 371,254 371,254 371,255 371,255 371,256 371,258 371,261 371,263 371,264 370,265 369,266 368,266 368,266 368,266 368,268 368,269 368,269 368,270 367,273 367,277 367,280 367,282 368,283 369,284 374,284 381,284 385,284 386,284 389,284 395,284 399,284 405,285 409,285 410,286 414,287 420,289 420,289 423,290 426,291 430,291 437,292 448,293 449,293 452,293 456,293 459,293 461,293 467,294 475,295 480,296 484,296 490,295 494,295 497,295 498,295 500,295 486,308 486,309 484,313 483,315 480,321 479,324 475,330 474,331 461,331 455,332 436,331 428,330 417,328 413,327 408,326 402,326 398,325 394,326 391,325 391,327 391,332 391,332 387,332 383,332 378,333 377,331 368,332 367,332 365,332 364,332 364,333 354,326 351,325 349,325 348,325 347,325 344,325 339,324 335,323 334,323 330,323 326,323 325,322 324,322 322,322 322,322 319,322 318,322 313,321 309,321 308,320 308,320 306,319 302,318 298,317 295,317 287,315 282,315 275,314 272,314 270,313 268,313 266,313 263,312 259,312 257,311 246,327 239,336 236,339 232,341 227,345 221,348 216,349 207,352 201,353 193,353 191,353 182,354 182,354 183,357 184,358 185,360 185,362 186,363 186,363 186,364 186,364 186,366 186,367 186,368 187,369 187,370 187,372 187,372 187,373 188,376 188,376 188,377 189,379 189,379 189,380 189,382 189,383 189,383 189,386 189,386 189,389 186,388 184,386 181,386 178,387 175,387 174,387 170,387 165,387 165,386 159,386 153,386 152,389 150,394 149,397 148,399 147,401 147,401 146,403 146,403 146,404 145,404 145,404 142,403 141,403 140,403 137,404 135,404 134,404 132,404 132,404 130,403 125,401 122,400 117,398 116,398 115,397 115,396 113,394 113,393 111,391 110,390 109,389 107,388 106,388 105,387 103,386 101,386 100,385 100,383 101,380 102,378 104,375 104,374 105,373 96,376 88,385 64,388 48,389 39,390 32,388 25,385 19,381 0,361" id="8403" class="canton" fill="steelblue" stroke-width="1" stroke="white" geotype="canton" geoname="Avignon-2" code_insee="8403" code_departement="84" nom_departement="Vaucluse" code_region="93" nom_region="Provence-Alpes-Côte d'Azur"/></svg>