<?xml version="1.0" encoding="utf-8"?>
<svg version="1.1" id="svgmap" xmlns="http://www.w3.org/2000/svg" xmlns:xlink="http://www.w3.org/1999/xlink" x="0px" y="0px" width="100%" height="100%" viewBox="0 0 500 425">
<polygon points="32,203 33,202 35,200 35,199 38,195 40,190 41,184 39,174 39,173 38,170 35,163 32,151 30,141 30,136 30,132 31,130 33,130 39,130 39,130 40,130 41,130 41,130 43,130 44,130 44,131 45,131 46,133 47,134 47,134 47,135 47,136 48,137 48,138 49,138 50,139 52,140 52,140 54,140 55,140 55,140 58,141 58,141 65,139 68,138 76,135 80,134 81,134 82,134 86,133 86,133 88,133 89,133 89,133 89,133 89,133 90,133 91,133 96,132 101,131 102,132 106,131 106,131 105,129 104,128 104,127 104,126 105,124 105,122 106,121 107,120 108,119 110,118 111,117 114,117 115,116 116,116 116,116 116,116 116,116 116,115 116,115 120,114 120,113 121,113 121,111 123,109 125,105 125,105 125,104 125,103 125,103 125,103 124,104 124,104 124,104 123,104 123,103 123,103 122,103 122,103 121,102 120,102 119,101 117,101 116,101 115,100 115,100 116,99 117,99 117,98 116,98 113,94 113,94 113,93 113,93 108,88 107,87 106,87 106,87 106,86 106,86 105,85 105,84 105,82 106,81 106,81 106,80 107,78 107,78 108,78 108,77 108,76 108,76 109,75 109,74 110,73 110,73 110,73 114,72 115,72 115,72 115,72 115,67 118,67 114,63 114,63 115,62 115,62 115,61 115,60 115,57 116,56 116,56 116,55 116,54 116,54 117,54 118,53 119,52 120,51 121,51 121,50 122,50 122,49 122,49 122,49 122,49 120,48 119,47 119,47 119,47 120,45 121,44 121,44 122,44 122,44 124,41 124,41 124,40 124,40 124,39 124,37 124,37 124,36 124,36 126,36 128,36 131,36 134,36 136,36 138,36 138,36 139,35 140,35 140,35 141,35 141,35 141,35 142,35 144,35 145,35 146,35 146,35 147,35 147,35 149,35 151,35 153,35 154,35 156,35 157,36 158,36 159,37 160,37 162,37 163,38 163,38 163,37 166,36 167,36 169,36 170,36 170,36 171,36 172,37 172,36 172,35 172,35 173,32 180,9 182,2 182,1 192,1 208,1 210,1 210,1 211,1 212,1 213,1 213,1 215,1 218,0 219,0 220,0 222,1 223,1 223,1 224,2 225,2 226,3 227,3 227,3 228,3 229,5 233,7 233,7 233,8 233,9 234,10 234,12 234,13 234,13 235,14 236,15 236,17 236,17 237,18 237,19 237,20 238,20 238,21 238,21 239,22 239,22 240,23 240,24 240,24 241,24 241,25 241,25 241,26 241,26 241,26 241,27 241,28 241,28 242,29 242,30 242,31 242,31 242,31 243,32 243,32 244,33 245,33 245,34 245,34 245,34 244,35 243,36 243,36 242,37 242,37 243,39 243,40 243,41 244,41 244,42 244,44 244,45 245,46 245,46 245,46 244,47 244,47 244,48 244,49 244,50 244,52 244,53 244,55 244,55 245,55 245,55 245,55 246,55 246,55 246,54 247,53 248,53 249,52 249,52 251,51 252,51 252,51 253,50 254,50 258,48 258,47 259,47 262,47 264,47 266,47 266,47 267,47 267,47 268,46 268,46 268,46 269,46 272,46 274,46 275,46 275,52 275,56 275,59 275,72 275,76 275,76 275,77 275,78 275,82 276,90 276,95 276,100 276,100 280,99 288,95 291,94 296,91 297,90 298,90 301,87 302,87 302,87 304,85 306,85 307,84 308,84 308,84 309,84 310,84 311,83 312,82 312,82 312,81 313,80 313,80 314,79 314,79 315,78 316,74 316,70 316,69 317,69 317,69 320,68 326,68 331,68 332,73 334,81 334,81 336,81 336,81 336,82 336,82 335,84 335,85 335,85 335,87 335,89 335,90 335,90 334,91 334,92 333,92 334,93 334,93 334,94 334,94 334,95 334,97 334,98 334,98 333,99 333,102 333,103 333,105 332,108 332,109 332,111 332,112 332,112 332,116 332,117 332,122 333,124 333,125 333,126 333,127 333,128 332,131 333,132 335,133 342,137 357,124 357,124 359,120 360,119 361,118 365,114 367,112 372,108 376,107 381,105 384,104 387,102 392,101 396,99 401,98 406,98 410,98 414,100 417,102 422,104 421,104 421,104 421,105 420,105 420,106 419,106 419,107 418,107 418,108 417,109 416,109 415,111 415,112 414,113 414,113 413,115 413,117 412,118 412,118 412,118 412,119 412,120 412,122 412,123 411,125 411,126 411,126 411,127 411,130 410,133 410,135 410,136 410,137 410,137 409,138 409,139 408,141 408,141 408,142 408,142 408,143 408,144 407,145 406,146 406,147 406,147 406,149 406,150 406,150 406,151 407,151 407,151 407,152 407,152 407,154 407,155 407,155 408,156 409,161 409,165 409,165 410,168 410,168 410,168 410,169 411,169 412,170 413,170 415,172 417,174 421,177 421,177 422,177 423,177 425,177 425,177 425,177 436,179 437,179 449,180 449,180 453,184 457,185 457,185 458,185 464,192 469,197 469,197 469,197 469,197 473,201 478,207 479,210 479,210 484,222 484,222 485,222 488,223 494,223 496,223 497,224 500,224 499,227 498,228 497,229 496,231 496,232 494,235 494,235 493,239 493,242 493,243 492,245 492,246 492,247 492,249 493,252 493,253 493,253 493,254 493,255 493,256 494,258 494,258 494,259 494,260 494,262 494,263 494,264 494,265 494,266 494,268 494,270 494,271 494,272 495,273 495,273 494,273 493,273 493,273 493,273 492,273 491,273 491,273 489,273 488,272 485,272 481,270 479,270 477,270 476,271 472,276 468,280 467,280 467,281 466,281 466,282 465,282 463,282 463,282 453,283 452,283 451,284 450,284 449,285 448,285 445,286 444,286 443,286 441,288 439,290 437,290 435,291 435,291 434,291 433,292 432,293 430,294 429,295 427,296 425,297 424,298 424,298 423,298 422,299 422,299 422,299 421,300 421,300 420,301 415,305 414,305 411,307 410,307 409,308 406,309 404,310 404,311 404,311 403,311 402,312 402,313 402,315 402,316 402,318 402,320 401,325 401,325 399,325 398,325 395,326 393,326 391,326 387,327 387,327 387,327 387,327 387,328 387,328 387,329 387,329 387,330 387,330 387,331 387,332 386,333 386,334 386,334 386,335 386,336 386,338 386,341 386,346 387,346 386,348 386,349 386,350 386,353 386,354 386,354 387,356 387,357 387,357 388,359 387,359 388,359 388,359 388,360 389,360 389,361 389,362 389,364 390,366 390,368 390,370 390,372 390,372 390,374 390,375 391,378 391,379 391,380 391,380 389,380 388,380 387,380 386,380 385,380 384,380 383,380 382,379 381,379 377,378 374,377 371,376 369,375 368,375 367,374 365,373 364,373 364,373 363,373 363,374 363,371 362,371 360,370 358,370 354,367 352,366 349,365 345,363 343,363 342,363 339,363 338,363 338,363 338,363 337,364 336,364 335,364 334,364 334,364 333,364 333,365 332,365 331,364 330,364 329,364 328,364 328,363 327,363 321,362 319,362 318,361 317,362 317,362 316,362 315,362 314,361 314,362 313,362 313,361 312,360 311,359 309,358 309,358 308,358 308,358 308,358 307,358 306,359 306,360 305,360 304,361 304,361 303,361 302,362 301,366 301,367 301,367 291,367 290,367 289,365 287,363 286,363 283,364 282,364 282,364 274,366 274,366 274,367 274,368 275,369 275,369 275,371 275,371 276,374 276,374 277,375 277,376 277,376 277,376 267,385 264,387 256,395 250,401 250,401 250,401 250,402 250,404 250,404 251,406 251,406 251,407 252,409 252,409 251,410 251,411 251,411 251,412 251,414 250,414 250,415 250,416 248,417 244,419 244,419 243,420 242,420 236,425 235,423 233,421 218,413 194,408 194,408 188,407 181,405 181,405 180,404 180,404 180,404 179,404 178,403 173,402 172,401 171,401 163,395 159,391 158,390 155,388 154,386 153,385 154,385 156,385 156,380 156,371 157,363 157,363 157,362 155,360 155,360 149,358 142,356 139,356 136,357 132,357 125,360 120,361 116,363 115,363 112,364 111,365 103,366 91,370 85,373 83,374 71,382 70,382 64,384 58,385 57,384 49,382 49,382 43,377 40,371 39,364 40,358 40,356 40,353 40,351 39,348 38,345 35,340 32,336 28,332 24,328 22,325 18,324 13,322 8,317 6,315 5,314 2,307 1,307 1,305 0,301 0,300 0,294 0,293 1,288 1,288 3,283 4,281 7,277 12,272 14,267 14,266 14,263 14,260 14,256 15,251 16,244 15,228 15,227 16,222 19,218 25,211 28,207 32,203" id="8411" class="canton" fill="steelblue" stroke-width="1" stroke="white" geotype="canton" geoname="Orange" code_insee="8411" code_departement="84" nom_departement="Vaucluse" code_region="93" nom_region="Provence-Alpes-Côte d'Azur"/></svg>