<?xml version="1.0" encoding="utf-8"?>
<svg version="1.1" id="svgmap" xmlns="http://www.w3.org/2000/svg" xmlns:xlink="http://www.w3.org/1999/xlink" x="0px" y="0px" width="100%" height="100%" viewBox="0 0 500 295">
<polygon points="14,146 14,146 14,146 14,146 14,146 14,146 14,146 14,146 14,146 14,146 14,146 14,146 15,146 15,145 15,145 15,145 16,145 16,145 16,145 16,145 16,144 17,144 17,144 17,144 18,143 18,143 18,143 18,143 18,143 18,143 18,143 18,143 18,143 18,142 19,142 19,142 19,142 21,142 21,142 21,142 21,142 20,142 20,142 20,142 20,141 20,141 20,141 20,141 21,141 21,141 22,141 22,141 22,141 23,141 23,141 23,140 23,140 23,140 24,140 24,140 26,139 26,139 26,139 27,139 27,139 27,138 27,138 28,138 28,138 28,137 29,137 30,137 30,137 30,137 30,137 29,137 29,136 29,136 28,136 28,135 28,135 28,135 28,133 29,132 29,131 29,130 29,129 29,127 29,127 29,127 30,126 30,126 31,125 31,124 31,124 31,124 31,124 31,124 31,124 31,123 31,123 32,122 33,120 33,120 33,120 33,120 33,119 33,119 34,119 36,117 39,114 39,114 39,113 41,111 42,109 42,109 42,109 43,109 43,109 43,108 44,108 44,108 44,107 44,107 44,107 44,107 44,107 44,107 44,106 45,106 45,106 46,106 47,106 49,105 49,105 50,104 50,104 49,104 49,103 49,103 49,103 49,103 49,103 48,103 48,103 48,102 48,102 48,102 48,102 48,102 48,102 48,102 48,102 48,101 48,101 48,101 47,101 47,101 46,101 46,101 46,101 46,101 46,101 46,100 46,100 46,100 46,100 46,100 45,100 45,100 43,99 43,98 43,98 43,98 42,97 42,96 41,96 41,96 42,96 42,96 41,95 41,95 41,95 41,95 41,95 42,94 42,94 42,94 41,94 41,94 41,94 41,94 41,94 41,94 40,93 40,93 39,93 39,93 39,93 39,93 38,93 38,93 38,93 38,93 38,93 37,93 37,92 37,92 37,92 37,92 36,92 36,92 36,92 36,92 36,92 36,92 36,92 36,92 36,92 36,92 36,92 36,92 36,91 36,91 36,91 36,91 35,91 35,91 35,91 35,91 36,91 36,91 36,91 35,91 35,91 35,90 35,90 35,90 35,90 35,90 35,90 35,90 35,90 35,90 34,90 34,90 34,90 34,90 33,89 33,89 33,89 33,89 33,89 32,87 32,87 32,86 32,86 32,86 32,86 32,86 32,86 32,86 32,86 32,86 32,86 32,85 32,85 32,85 32,85 32,85 32,85 32,85 32,85 32,85 32,84 32,84 32,84 32,84 32,84 32,84 32,84 32,84 32,84 32,84 32,84 32,84 32,84 32,84 32,84 33,84 33,84 33,83 33,83 33,83 33,83 33,83 33,83 34,83 34,83 34,83 34,83 34,82 34,82 34,82 34,82 34,82 34,82 34,82 34,82 34,82 34,82 34,82 34,82 34,82 34,82 34,82 34,82 33,82 33,81 33,81 33,81 33,81 33,81 33,81 33,81 33,81 33,81 33,81 32,81 32,81 32,81 32,81 32,81 32,81 32,81 32,80 32,80 32,80 32,80 32,80 32,80 32,80 32,80 32,80 32,80 31,80 31,80 31,80 31,80 31,79 31,79 31,79 31,79 31,79 31,79 31,79 31,79 31,79 32,79 32,79 32,79 32,79 32,79 32,79 32,79 32,78 32,78 32,78 31,78 31,78 31,78 31,78 31,78 31,77 31,77 31,77 31,77 31,77 31,77 31,77 31,77 31,77 31,77 32,77 32,76 32,76 32,76 32,76 32,76 32,76 31,76 31,76 31,76 31,76 31,76 31,76 31,76 31,76 31,75 31,75 31,75 31,75 31,75 31,75 31,75 30,75 30,75 30,75 30,75 30,75 30,75 30,75 30,75 30,75 30,75 29,75 29,75 29,75 29,75 29,75 29,75 29,75 29,75 29,74 29,74 29,74 29,74 29,74 29,74 29,74 29,74 29,74 29,74 29,73 29,73 29,73 29,73 28,73 28,73 28,73 28,73 28,73 28,73 28,73 28,73 28,73 28,73 28,73 28,72 28,72 28,72 28,72 28,72 28,72 28,72 28,72 28,72 28,72 28,71 28,71 28,71 29,71 29,71 29,71 29,71 29,71 29,71 29,71 29,71 29,71 29,71 29,71 29,70 29,70 29,70 29,70 29,70 29,70 29,70 28,70 28,69 28,69 28,69 28,70 28,70 28,70 28,70 28,70 28,70 28,70 28,70 28,70 28,70 28,70 27,70 27,70 27,70 27,70 27,70 27,70 27,70 27,70 27,69 27,69 27,69 27,69 27,69 27,69 26,69 26,70 26,70 26,70 26,70 26,70 26,70 26,70 25,70 25,70 25,70 25,70 25,70 25,70 25,70 25,70 25,70 25,70 24,70 24,70 24,70 24,70 24,70 24,70 24,70 24,71 24,71 23,71 23,71 23,71 23,71 23,71 23,71 23,71 23,71 23,71 23,71 23,71 23,71 23,71 23,71 23,71 22,71 22,71 22,71 22,71 22,71 22,71 22,71 22,71 22,71 22,71 22,71 22,71 21,71 21,71 21,71 21,71 21,71 21,71 21,70 21,70 21,70 21,70 20,70 20,70 20,70 20,70 20,70 20,70 20,70 20,70 20,70 20,69 20,69 20,69 20,69 20,69 20,69 20,69 20,69 20,69 19,69 19,69 19,69 19,68 19,68 19,68 19,68 19,68 19,68 19,68 19,68 20,68 20,68 20,68 20,68 20,68 20,68 20,68 20,68 20,68 20,68 20,68 20,68 19,67 19,67 19,67 19,67 19,67 19,67 19,67 19,67 19,67 19,67 19,67 19,67 18,67 18,67 18,67 18,67 18,67 18,67 18,67 18,67 18,67 18,66 18,66 18,66 18,66 18,66 18,67 18,67 18,67 18,67 18,67 17,67 17,67 17,66 17,66 18,66 18,66 18,66 18,66 18,66 18,66 18,66 18,66 18,66 18,66 18,66 17,66 17,66 17,66 17,66 17,66 17,66 17,66 17,66 16,66 16,66 16,65 16,65 16,66 16,66 16,66 16,66 16,66 16,66 16,66 16,66 16,66 16,66 16,65 16,65 16,65 16,65 16,65 16,65 16,65 16,65 16,65 16,65 16,65 16,65 16,65 16,65 16,65 16,65 15,65 15,65 15,65 15,65 15,65 15,65 15,65 15,65 15,65 15,64 15,64 16,64 16,64 15,64 15,64 15,64 15,64 15,64 15,64 15,64 15,63 14,63 14,63 14,63 14,64 14,64 14,64 14,64 14,64 14,63 14,63 14,63 14,63 13,63 13,63 13,63 13,63 13,63 13,63 13,63 13,63 13,63 13,63 13,63 13,63 13,63 12,63 12,63 12,62 12,62 12,63 12,62 11,62 11,63 11,63 11,62 11,62 11,63 11,63 10,63 10,62 10,62 10,62 10,62 10,62 10,62 10,62 10,62 10,62 10,62 10,62 10,62 9,62 9,62 10,62 9,62 9,62 9,61 9,61 9,61 9,62 9,62 9,62 9,61 9,61 8,61 8,61 8,61 8,61 8,61 8,61 8,61 8,61 8,61 8,61 8,61 8,60 8,60 8,60 8,60 8,60 8,60 8,60 8,60 8,60 8,60 8,60 8,60 8,60 7,60 7,60 7,60 7,60 7,60 7,59 7,59 7,59 7,59 7,59 7,59 7,59 7,59 7,59 7,59 7,59 6,59 6,59 6,59 6,59 6,59 6,58 6,58 6,58 6,58 6,58 6,58 6,58 6,58 7,58 7,58 7,58 7,57 7,57 7,57 7,57 7,57 7,57 7,57 7,57 7,57 8,57 8,57 8,57 8,57 8,57 8,57 8,56 8,56 8,56 8,56 8,56 8,55 8,55 8,55 8,55 8,55 8,55 8,55 8,55 8,55 8,55 8,55 8,55 8,55 8,55 8,55 8,55 8,55 8,55 8,55 7,55 7,55 7,54 8,54 8,54 8,54 8,54 8,54 8,54 8,54 8,54 8,54 8,54 8,54 7,54 7,54 7,54 7,53 7,53 8,53 8,53 8,53 8,53 8,53 8,53 8,53 8,53 8,53 8,53 8,52 7,52 7,52 7,52 7,52 7,52 7,52 8,52 8,52 8,52 8,52 8,52 8,52 7,52 7,52 7,52 7,52 7,52 7,52 7,52 7,52 7,52 7,52 7,52 7,52 6,52 6,52 6,52 6,52 6,52 5,52 5,52 5,52 5,52 4,52 4,52 4,52 4,52 4,52 4,52 4,52 4,51 4,51 4,51 4,52 3,52 3,52 3,52 3,52 3,52 3,52 3,51 3,51 2,51 2,51 2,51 2,51 2,51 2,51 2,50 2,50 2,50 2,50 2,50 2,50 2,50 3,50 3,49 3,49 3,49 3,49 3,49 4,49 4,49 4,49 4,49 4,49 4,49 4,49 4,49 4,49 4,49 4,49 4,49 4,49 4,48 4,48 4,48 4,48 4,48 4,48 4,47 4,47 4,47 4,47 4,47 4,47 4,47 4,47 4,47 4,47 4,47 4,47 4,47 4,47 4,47 5,47 5,47 5,47 5,47 5,47 6,47 6,47 6,47 6,47 6,47 6,47 6,47 6,47 6,47 7,47 7,47 7,47 7,47 7,47 7,47 8,47 8,47 8,47 8,47 8,47 8,47 8,47 8,47 8,47 8,47 9,47 9,47 9,47 9,47 9,47 9,47 9,47 9,47 9,47 9,47 9,47 9,47 10,47 10,47 10,47 10,47 10,47 10,47 10,47 10,47 10,47 10,46 10,46 10,47 10,47 10,47 10,47 10,47 10,47 10,47 11,47 11,47 11,47 11,47 11,47 11,47 11,47 11,47 12,47 12,47 12,47 12,47 12,47 12,47 12,47 12,47 12,47 12,47 12,47 12,47 12,47 12,47 12,46 12,46 13,46 13,46 13,46 13,47 13,47 13,47 13,47 13,47 13,47 13,47 13,47 13,47 13,46 13,46 13,46 13,46 14,46 14,46 14,46 14,46 14,46 14,46 14,47 14,47 14,47 14,47 14,47 14,47 14,47 14,46 14,46 14,46 14,47 14,47 14,47 14,47 14,47 14,47 14,47 15,47 15,47 15,47 15,47 15,47 15,47 15,47 15,47 15,47 15,47 16,47 15,47 16,47 16,47 16,47 16,47 16,47 16,47 17,47 17,47 17,47 17,47 17,47 17,47 17,47 17,47 17,47 17,47 17,47 17,47 17,47 17,47 18,47 18,47 18,47 18,47 18,47 18,47 19,47 19,46 19,46 19,46 19,46 19,46 20,46 20,46 20,46 20,46 20,45 20,45 20,45 20,45 20,45 20,45 20,45 20,45 21,45 21,45 21,45 21,45 21,45 21,45 21,45 21,45 21,45 21,45 22,45 22,45 22,45 22,45 22,45 22,45 22,44 22,44 22,44 22,44 22,44 22,44 22,44 23,44 23,44 23,44 23,44 23,44 23,44 23,44 23,44 23,44 23,44 24,44 24,44 24,44 24,44 24,44 24,44 24,44 24,44 24,44 25,44 25,44 25,44 25,44 25,44 25,44 25,44 25,44 25,44 25,44 25,44 26,43 26,44 26,43 26,43 26,43 27,43 27,43 27,43 27,43 27,43 27,43 27,43 27,43 27,43 28,42 28,42 28,42 28,42 28,42 28,42 28,42 28,42 28,42 28,42 28,42 28,42 28,42 28,42 28,42 29,41 29,41 29,42 29,42 29,42 29,42 29,42 29,42 29,42 29,42 29,42 30,42 30,42 30,42 30,42 30,41 30,41 30,41 30,41 30,41 30,41 30,41 30,41 30,41 30,41 30,41 30,41 30,41 30,41 30,41 30,41 30,41 30,41 30,41 30,41 30,41 30,41 30,41 30,41 30,41 30,41 30,41 31,41 31,40 31,40 31,40 32,40 32,40 32,40 33,40 33,40 33,40 33,40 33,40 33,40 33,40 34,40 34,40 34,40 35,40 35,40 35,40 35,40 35,40 35,40 35,40 35,40 35,40 35,40 35,40 35,40 35,40 35,40 36,40 36,40 36,40 36,40 36,40 36,40 36,39 36,39 36,40 36,40 37,40 37,40 37,40 37,40 37,40 37,40 37,40 37,39 37,39 37,39 37,39 38,39 38,39 38,39 38,39 39,40 39,40 39,40 39,40 39,40 39,40 39,40 39,40 39,40 40,40 40,40 40,40 40,40 40,40 40,40 40,40 40,40 40,40 40,40 41,40 41,40 41,40 41,40 41,40 41,40 41,40 41,40 41,40 42,40 42,40 42,40 42,40 42,40 42,40 42,40 42,40 42,40 42,40 42,40 42,40 42,40 42,40 42,40 43,40 43,40 43,40 43,39 43,39 43,39 43,39 43,39 43,39 43,39 43,39 44,39 44,39 44,39 44,39 44,39 45,39 45,39 45,39 45,39 45,39 45,39 45,39 45,39 45,39 45,39 45,39 46,39 46,39 46,39 46,38 46,38 46,38 46,38 46,38 47,38 47,38 47,38 47,38 47,38 48,37 48,37 48,37 49,37 49,37 49,37 49,37 49,37 49,37 49,37 49,37 49,37 49,37 49,36 49,36 49,36 49,36 49,36 49,36 49,36 49,36 50,36 50,36 50,36 50,36 50,36 50,36 50,35 50,35 50,35 50,35 50,35 50,35 50,35 50,35 50,35 51,35 51,35 51,35 51,35 51,35 51,35 51,35 51,35 51,35 51,35 51,35 51,35 51,35 51,34 52,34 52,34 52,34 52,34 52,34 53,34 53,34 53,34 53,34 53,34 53,34 54,34 54,34 54,34 54,34 54,34 54,34 54,34 54,34 54,34 54,34 54,34 54,34 54,34 54,34 54,34 54,33 54,33 54,33 54,33 54,33 55,33 55,33 55,33 55,32 55,32 55,32 55,32 55,32 55,32 55,32 55,32 56,32 56,32 56,32 56,32 56,32 56,32 56,32 56,32 56,32 57,32 57,32 57,32 57,32 57,32 57,32 57,31 57,31 58,31 58,31 58,31 58,31 58,31 58,31 58,31 58,31 58,31 58,31 58,31 58,31 58,31 58,31 58,31 58,31 58,30 58,30 58,30 58,30 58,30 58,30 58,30 58,30 58,30 59,30 59,30 58,30 58,29 58,29 59,29 59,29 59,29 59,29 59,29 59,29 59,29 59,29 59,29 59,29 59,29 59,29 59,29 59,29 59,29 60,29 60,29 60,28 60,28 60,28 60,28 59,28 59,27 60,27 60,27 60,27 60,27 60,27 60,27 60,27 60,26 60,26 60,26 60,26 60,26 60,26 60,26 60,26 60,26 60,25 60,25 60,25 60,25 60,25 61,25 61,25 61,25 60,24 60,24 60,24 60,24 60,24 60,24 60,24 61,24 61,24 61,24 61,24 61,24 61,23 61,23 62,23 62,23 62,23 62,23 62,23 62,22 62,22 62,22 61,22 61,22 61,22 61,22 61,22 61,21 61,21 61,21 61,21 61,21 61,21 61,21 61,21 61,21 61,20 62,20 62,20 62,20 62,20 62,20 62,20 62,19 62,19 62,20 62,20 62,20 63,19 63,19 63,20 63,20 63,20 63,20 64,20 64,20 65,20 65,20 65,20 65,20 65,20 66,20 66,20 66,20 66,20 66,20 67,19 67,19 67,19 67,19 67,19 67,19 68,19 68,19 68,19 68,19 68,19 68,19 68,19 68,19 68,19 68,19 68,19 68,19 68,18 68,18 68,18 69,18 69,18 69,18 69,18 69,18 70,18 70,18 70,18 70,18 70,18 70,18 70,18 71,18 71,18 71,18 71,18 71,17 71,17 71,17 71,17 71,17 72,17 72,17 72,17 72,17 72,17 72,17 72,18 72,18 72,18 73,18 73,18 73,18 74,18 74,18 74,18 74,18 74,18 74,18 74,18 74,17 74,17 75,17 75,17 75,17 75,17 76,16 76,16 76,16 76,16 76,16 76,16 76,16 76,16 75,16 75,16 75,16 75,15 75,15 75,15 75,15 75,15 75,15 75,15 75,15 75,15 75,15 76,15 76,15 76,15 76,15 76,15 76,15 76,15 76,15 76,15 76,15 76,15 76,15 76,14 76,14 76,14 76,14 76,14 76,14 76,14 76,14 76,14 76,14 76,14 76,14 76,14 76,14 76,13 77,13 77,13 77,13 77,13 77,13 77,13 77,13 77,13 77,13 77,13 77,13 77,13 78,13 78,13 78,13 78,13 78,13 78,13 78,13 79,13 79,13 79,12 79,12 79,12 80,12 80,12 80,12 80,12 80,12 80,12 80,12 80,12 81,12 81,12 81,12 81,12 81,12 82,12 82,12 82,12 82,12 83,12 83,12 83,12 83,12 83,12 83,12 83,12 83,12 83,12 84,13 84,13 84,13 84,13 84,13 84,13 84,13 85,13 85,12 85,12 85,13 85,13 85,13 85,12 85,12 86,12 86,12 87,12 87,12 87,12 87,12 87,12 87,12 87,12 87,12 87,12 87,11 87,11 87,11 87,11 88,11 88,11 88,11 88,11 88,11 88,10 88,10 88,10 88,10 88,10 88,10 89,10 89,10 89,10 89,10 89,10 89,10 89,10 90,10 90,10 90,10 90,10 90,10 90,11 90,11 90,11 90,11 90,10 90,10 91,10 91,10 91,10 91,10 91,11 91,11 91,11 92,10 93,10 93,10 93,10 93,10 93,10 93,10 93,10 93,10 93,10 94,10 94,10 94,10 94,10 94,10 94,10 95,10 95,10 95,11 95,11 95,11 95,11 95,11 95,11 96,11 96,11 96,11 96,11 96,11 96,11 96,11 96,11 96,11 96,10 96,10 96,10 96,10 97,10 97,10 97,10 97,10 98,10 98,10 98,10 98,10 98,10 99,10 99,10 99,10 99,10 99,10 99,10 99,10 100,10 100,10 100,10 100,10 100,10 100,10 100,10 101,10 101,10 101,10 102,10 102,10 102,10 102,10 102,10 102,10 102,10 102,9 102,9 103,9 103,9 103,9 103,9 103,9 103,9 103,9 103,9 103,9 103,9 103,9 103,9 103,9 103,9 103,9 104,9 104,9 104,9 104,8 104,8 104,9 104,9 105,9 105,9 105,9 105,9 105,9 105,9 105,9 105,9 106,9 106,8 106,8 106,8 106,8 106,8 106,8 106,8 106,8 106,8 107,8 107,8 107,8 107,8 107,8 108,8 108,8 108,8 108,8 108,8 108,8 108,8 108,8 109,8 109,8 109,8 109,8 109,8 109,8 109,8 110,8 110,7 110,7 110,7 110,7 110,7 110,7 111,7 111,7 111,7 111,6 111,6 111,6 111,6 111,6 111,6 111,6 111,6 111,6 111,6 111,6 111,6 111,6 111,5 111,5 111,5 111,5 111,5 111,5 111,5 111,5 111,5 111,5 111,5 111,5 111,5 112,5 112,4 112,4 112,4 112,4 112,4 113,4 113,4 113,4 113,4 113,4 113,4 113,4 113,4 113,4 113,4 113,4 113,4 113,4 113,4 113,4 113,4 113,4 113,4 114,4 114,3 114,3 114,3 114,3 114,3 114,3 114,3 114,3 115,3 115,3 115,3 116,3 116,3 116,3 116,3 116,3 116,3 116,3 117,3 117,3 117,3 117,3 117,3 117,3 117,3 117,3 117,3 117,3 117,3 118,3 118,4 118,4 118,4 118,4 118,4 118,4 119,4 119,4 119,4 119,4 119,4 119,4 119,4 119,4 119,4 120,4 120,4 120,4 120,4 120,4 120,4 120,4 121,4 121,4 121,4 121,4 121,5 122,6 122,6 122,7 122,7 122,7 122,7 122,8 122,8 123,8 123,9 124,9 124,9 125,10 125,10 125,10 125,10 126,10 126,10 127,10 127,10 127,10 128,11 129,11 129,12 131,12 131,13 132,13 133,13 133,13 134,14 134,14 134,14 134,14 134,14 134,14 134,15 134,15 134,15 135,16 135,16 136,18 136,18 136,19 136,19 136,19 136,19 137,20 137,20 138,20 138,20 138,20 139,20 139,20 140,20 141,20 141,20 142,20 143,20 143,20 144,20 145,20 145,20 145,20 146,20 146,20 146,20 147,20 147,20 148,21 148,21 149,21 149,22 149,22 150,22 150,22 150,22 150,23 150,23 150,23 150,23 151,23 151,23 151,23 151,24 152,24 152,24 152,24 153,25 153,25 154,25 154,26 154,26 155,26 155,26 156,27 157,28 157,28 158,28 158,28 158,28 160,29 161,29 161,29 161,29 162,29 163,30 163,30 164,30 165,31 165,31 166,31 167,32 167,32 167,32 167,32 168,33 168,33 168,33 168,33 169,32 169,32 170,32 170,32 170,31 171,31 171,30 171,30 171,30 171,30 171,30 172,29 172,29 172,29 172,29 172,29 172,28 172,28 172,28 172,27 172,27 172,27 173,26 173,26 173,26 173,26 173,26 173,26 174,26 174,26 174,25 174,25 174,25 175,25 175,25 175,25 176,24 176,24 176,24 176,24 176,24 177,24 177,23 177,23 177,23 177,23 177,23 177,23 177,23 177,23 178,23 178,22 178,22 178,22 178,22 178,22 178,22 179,22 179,22 179,22 179,22 179,22 179,22 179,22 180,22 180,22 180,22 180,22 180,22 181,22 181,22 182,23 182,24 182,24 183,25 183,25 183,25 182,25 182,25 182,25 182,26 183,26 183,26 183,26 183,26 184,26 184,26 184,26 184,26 184,26 185,26 186,25 186,25 186,25 186,25 186,25 187,25 187,25 187,24 188,24 188,24 188,24 189,24 189,24 189,23 189,23 189,23 189,22 189,22 189,22 189,22 189,22 189,22 190,22 190,21 190,21 190,21 191,22 191,22 191,22 191,22 191,21 191,21 191,21 191,20 191,20 191,20 191,19 191,19 191,19 191,19 192,19 192,19 192,18 192,18 192,18 192,18 192,18 192,18 192,18 192,18 192,18 192,18 192,17 192,17 192,17 192,17 192,17 192,17 192,17 192,17 192,17 192,17 192,17 192,17 192,17 192,16 192,16 192,16 192,16 194,16 194,16 195,16 195,16 195,15 195,15 195,15 196,15 196,15 196,15 196,14 196,14 196,14 196,14 196,14 196,14 196,14 196,14 196,14 196,13 196,13 197,13 197,13 197,13 196,13 196,13 196,13 196,12 196,12 196,12 196,12 196,12 196,12 196,12 196,12 196,12 196,12 196,11 196,11 196,11 196,11 196,11 196,11 196,11 196,11 196,11 196,11 196,11 196,11 196,11 196,11 196,10 197,10 197,10 197,10 197,10 197,10 197,10 197,10 198,10 198,10 198,10 198,10 198,10 198,10 198,10 198,10 198,10 198,10 199,10 199,10 199,9 199,9 199,9 199,9 199,9 199,9 199,9 200,9 200,9 200,9 200,9 200,9 200,9 200,9 200,9 200,8 200,8 200,8 200,8 200,8 200,8 200,8 201,8 201,8 201,8 201,8 201,8 201,8 201,8 201,8 201,8 201,7 202,7 202,7 202,7 202,7 202,7 202,7 203,6 203,6 203,6 203,6 203,6 203,6 203,6 204,6 204,6 204,6 205,6 205,5 205,5 205,5 206,5 206,5 206,5 206,5 206,5 206,5 206,5 206,5 206,6 207,6 207,6 207,7 207,7 208,7 208,7 208,7 208,7 209,8 209,8 209,9 209,9 209,9 209,9 209,9 210,9 210,9 210,9 211,9 211,9 211,9 211,9 212,10 212,10 212,10 212,10 213,10 213,10 213,10 213,10 213,10 213,10 214,10 214,10 214,10 214,11 214,11 214,11 214,11 215,11 216,11 216,11 216,11 217,12 217,12 217,12 217,12 218,12 218,12 219,12 219,12 219,12 219,12 219,13 220,13 220,13 220,13 220,13 220,13 220,14 220,14 220,14 221,14 221,15 221,15 222,15 222,15 222,15 223,15 223,15 223,15 223,15 223,15 223,15 223,15 223,15 224,16 224,16 224,16 224,16 224,16 224,17 225,17 225,17 225,17 225,17 225,17 225,17 225,18 225,18 225,18 225,18 225,18 226,18 226,18 226,18 226,18 226,18 226,18 226,18 226,18 227,18 227,18 227,18 227,18 227,18 228,18 228,19 228,19 229,19 229,19 229,19 230,19 230,19 231,19 231,19 231,19 231,19 232,19 232,19 232,19 233,19 233,18 233,18 233,18 233,18 234,18 234,19 235,19 235,19 235,19 235,19 236,19 237,19 237,19 237,18 237,18 237,18 237,18 238,18 238,18 238,18 238,18 238,18 239,18 239,18 239,18 239,18 239,18 239,18 240,18 240,18 240,17 240,17 240,17 240,17 240,17 241,17 241,17 241,17 241,17 241,17 242,17 242,17 242,17 242,17 242,16 242,16 243,16 243,16 243,16 243,16 243,16 243,16 243,15 243,15 243,15 243,14 243,14 244,14 244,13 244,13 244,13 244,13 244,13 244,13 244,13 244,13 244,13 244,12 245,12 245,12 245,12 245,12 245,12 245,11 245,11 246,11 246,11 246,11 246,11 246,11 246,11 246,11 246,11 247,11 247,10 247,10 247,11 248,11 248,11 248,11 248,11 248,11 249,11 249,11 249,11 250,11 250,11 250,11 250,11 251,10 251,10 252,10 252,10 252,10 253,10 253,10 253,10 253,10 253,10 253,9 253,9 254,9 254,9 254,9 254,9 254,9 254,9 255,9 255,9 255,9 255,9 255,9 255,9 256,9 256,9 256,9 257,8 257,8 258,8 258,8 258,8 259,8 259,8 259,8 259,8 259,8 259,8 259,8 259,8 260,8 260,8 260,8 260,8 260,8 260,8 261,8 261,8 261,8 261,8 261,8 261,8 261,7 261,7 261,7 261,7 261,7 261,7 261,7 261,7 261,7 261,7 261,7 261,7 262,7 262,7 262,7 262,6 262,6 262,6 262,6 262,6 262,6 262,6 262,6 262,5 262,5 262,5 262,5 262,5 262,5 262,5 262,5 262,5 262,5 262,4 262,4 262,4 262,4 263,4 263,4 263,4 263,4 263,4 263,4 263,4 263,4 263,4 264,4 264,4 264,4 264,4 264,4 264,4 265,4 266,4 266,3 266,3 266,3 266,3 266,3 266,3 266,3 266,3 266,3 266,3 266,3 266,3 267,3 267,3 267,3 267,3 267,2 267,2 267,2 267,2 268,2 268,2 268,2 268,2 268,2 268,2 268,2 268,2 269,2 269,2 269,2 269,2 269,2 269,3 269,3 269,3 269,3 269,2 269,2 269,2 270,2 270,2 270,2 270,2 270,2 270,3 270,3 270,3 270,3 270,3 270,3 270,3 271,3 271,3 271,3 271,2 271,2 271,2 271,2 271,2 272,2 272,2 272,2 272,2 272,2 272,2 272,2 272,2 272,2 272,2 273,2 273,2 273,2 273,2 273,2 273,2 273,2 273,2 273,1 274,1 274,1 274,1 274,1 275,1 275,1 276,1 276,1 276,1 276,1 276,1 277,1 277,1 277,1 277,0 278,0 278,0 278,0 278,0 278,0 279,0 279,0 279,0 280,0 280,0 280,0 280,0 280,1 281,1 281,1 281,1 281,1 281,1 282,1 282,1 282,1 282,1 283,1 283,1 283,1 283,1 283,1 283,1 283,1 283,1 283,1 283,1 284,1 284,1 284,1 284,1 284,1 284,1 284,1 284,1 285,1 285,1 285,1 285,1 285,1 286,1 286,1 286,0 286,0 286,0 286,0 287,0 287,0 287,0 287,0 287,0 287,0 288,0 288,1 288,1 288,1 288,1 288,1 288,2 288,2 288,3 288,3 288,3 288,4 288,4 289,4 289,5 289,5 289,5 290,6 290,6 291,6 291,6 292,7 292,7 292,7 293,7 293,7 293,7 293,8 293,8 294,8 294,8 294,8 294,9 294,9 295,9 295,9 295,9 295,9 295,9 295,9 295,9 295,9 295,9 295,9 295,10 295,10 295,10 295,10 294,10 294,10 294,10 294,10 294,10 294,10 294,10 295,11 295,11 295,11 295,11 296,11 296,11 296,11 296,11 296,11 297,11 297,11 297,11 298,11 298,11 298,11 298,11 298,11 298,11 299,11 299,12 299,12 299,12 299,12 299,12 299,12 299,12 299,12 299,12 299,13 299,13 299,13 299,14 299,14 300,15 300,15 300,15 300,15 300,15 300,16 300,16 300,16 300,16 301,16 301,17 301,17 300,17 300,18 300,18 301,18 301,18 301,18 301,19 301,19 301,19 301,19 301,19 302,19 302,19 302,19 302,19 303,20 303,20 304,20 304,21 304,21 304,21 304,21 305,21 305,21 305,21 305,21 305,22 306,22 306,22 306,22 306,23 306,23 306,23 306,23 306,24 306,24 307,25 307,25 307,25 307,25 307,25 307,26 307,26 306,26 306,26 306,26 306,27 306,28 306,28 306,28 306,28 306,28 306,28 306,28 306,28 306,28 307,28 307,28 307,28 307,28 308,28 308,28 309,28 309,28 309,28 309,27 308,27 308,27 309,27 309,27 309,27 309,27 309,27 310,27 310,27 310,27 311,27 311,28 311,28 311,28 312,28 312,28 313,29 313,29 313,29 313,29 313,29 313,29 313,29 314,29 314,29 313,29 313,29 313,30 313,30 313,30 313,30 313,30 313,30 314,30 314,30 314,30 314,30 314,30 314,30 315,30 315,30 315,29 316,29 316,29 316,30 316,30 316,30 316,30 316,30 317,30 317,30 317,30 317,30 317,30 317,30 317,30 318,30 318,30 318,30 318,30 318,30 318,31 319,31 319,31 319,31 319,31 319,31 319,31 319,31 319,31 319,31 319,31 319,31 319,32 318,32 318,32 318,32 318,32 318,33 318,33 318,33 318,33 318,33 318,33 318,33 318,34 319,34 319,34 319,34 319,34 320,34 320,34 320,35 320,35 321,35 321,35 321,35 321,35 321,36 321,36 321,36 321,36 321,36 322,36 322,36 322,36 323,36 323,36 323,36 324,36 324,36 324,36 324,36 324,36 325,36 325,36 325,36 325,36 325,36 325,36 325,36 325,36 325,36 325,36 325,37 325,37 326,37 326,36 326,36 326,36 326,36 326,36 326,35 326,35 326,35 326,35 326,35 326,35 326,35 326,35 326,35 327,35 327,35 327,35 327,35 327,35 327,35 327,36 327,36 328,36 328,36 328,36 329,36 329,36 329,36 329,36 329,36 329,36 329,37 329,37 329,37 329,37 329,37 329,37 329,37 328,37 328,37 328,37 328,37 328,37 328,37 328,37 328,37 328,37 328,37 328,37 328,37 329,37 329,37 329,37 329,37 329,37 329,37 329,38 329,38 329,38 329,38 328,38 328,38 328,38 328,38 328,38 328,38 328,38 328,38 328,39 328,39 328,39 328,39 329,39 329,40 329,40 329,40 330,40 330,40 330,40 330,40 330,40 330,40 330,40 330,40 330,39 330,39 330,39 330,39 330,39 330,39 331,39 331,40 331,40 331,40 331,40 332,40 332,40 332,40 332,40 332,40 333,40 333,40 333,40 333,40 334,40 334,40 334,40 334,40 334,40 334,40 334,40 334,40 333,40 333,40 333,40 333,40 333,40 333,40 333,40 333,40 333,41 333,41 333,41 334,41 334,41 334,41 335,42 335,42 335,42 336,42 336,42 336,42 337,42 337,42 338,42 338,42 338,42 338,42 339,43 339,43 339,43 340,43 340,43 340,43 340,43 341,43 341,43 341,43 342,43 342,43 342,43 342,44 342,44 343,44 344,45 344,45 345,45 345,45 345,45 345,45 346,45 346,45 346,45 346,45 346,45 346,45 346,45 346,44 346,44 346,44 347,44 347,44 347,44 347,44 347,44 347,44 347,44 347,44 347,44 347,44 348,44 348,44 349,44 349,44 349,44 350,45 350,45 350,45 351,45 351,45 351,45 351,45 351,45 351,45 352,45 352,45 352,45 352,45 352,45 352,45 352,45 352,46 352,46 352,46 352,46 352,46 353,46 354,47 354,47 354,47 354,47 355,47 356,47 356,47 357,47 357,47 357,47 358,47 358,48 359,48 359,49 360,50 360,51 360,52 361,52 361,52 361,53 361,53 362,53 362,53 363,53 363,54 363,54 364,55 364,55 364,55 364,55 364,56 364,56 364,56 364,56 364,56 363,56 363,56 363,56 363,57 363,57 363,57 363,57 364,58 364,58 364,58 364,58 364,58 364,58 364,58 364,58 365,58 365,58 366,58 366,58 366,58 366,58 366,58 367,58 367,59 367,59 367,59 367,59 366,59 367,60 367,60 367,60 367,60 367,60 368,60 368,60 368,60 368,60 368,60 369,60 369,61 369,61 368,61 368,61 368,61 368,61 368,62 368,62 368,62 368,62 368,62 368,62 369,63 369,63 370,63 370,63 370,63 371,64 371,64 371,64 372,64 372,64 373,64 373,64 373,64 374,65 375,65 376,65 377,66 377,66 377,66 378,67 378,67 377,67 377,67 377,67 377,67 377,67 378,68 378,68 378,68 377,68 377,68 377,68 377,68 377,68 377,69 377,69 377,69 377,69 377,69 378,69 378,69 378,69 377,69 377,70 377,70 377,70 378,70 378,70 378,70 378,70 378,70 378,70 378,69 378,69 378,69 379,70 379,70 379,70 379,70 379,70 379,70 379,70 379,70 379,70 379,70 379,70 379,70 379,70 380,70 380,70 380,70 380,70 380,70 380,70 380,70 381,70 381,70 381,70 381,70 381,70 381,70 381,70 381,70 382,70 382,70 382,70 383,71 384,71 384,71 384,71 384,71 385,71 385,72 385,72 384,72 384,72 384,72 384,72 384,72 384,72 385,72 384,73 384,73 384,73 384,73 384,73 385,74 385,74 385,74 385,74 385,74 385,74 385,75 385,75 385,75 385,75 385,75 385,75 385,75 385,75 385,75 385,75 385,75 385,75 385,75 386,75 386,75 386,75 386,75 386,75 387,75 387,75 387,75 387,75 387,75 387,75 388,75 388,75 388,75 388,75 388,76 388,76 388,76 388,76 389,76 389,77 389,77 389,77 389,77 389,77 389,78 390,78 390,78 390,78 390,78 390,78 390,78 390,78 390,78 391,78 391,78 391,78 391,77 391,78 391,78 391,78 391,78 391,78 391,78 391,78 391,78 391,78 391,78 391,78 391,79 391,79 392,79 392,79 392,79 392,79 392,79 392,79 392,79 392,79 392,80 392,80 393,80 393,79 393,79 393,79 393,80 394,80 394,80 394,80 393,80 393,80 393,80 394,80 394,81 394,81 394,81 394,81 394,81 394,81 394,81 393,81 393,81 393,81 393,81 393,80 392,80 392,81 392,81 392,81 392,81 392,81 393,81 393,81 393,81 394,82 394,82 394,82 394,82 394,82 394,83 394,83 394,83 395,83 395,83 395,83 395,83 395,83 395,83 395,83 396,83 396,84 396,84 396,84 396,84 396,84 396,85 396,85 396,85 397,85 397,85 398,85 398,85 398,85 398,85 398,85 399,86 399,86 399,86 399,86 399,86 399,86 398,87 398,87 398,87 398,87 398,87 398,87 398,87 398,87 398,87 398,87 398,87 398,87 397,87 397,87 397,87 397,87 397,87 397,87 397,87 397,87 397,87 397,87 397,87 397,87 397,87 397,87 397,87 397,88 397,88 397,88 397,88 397,88 397,89 397,89 397,89 397,89 398,90 398,90 399,90 399,90 399,90 399,90 399,90 399,90 399,91 398,91 398,91 398,91 398,91 398,91 398,91 398,91 398,91 398,92 399,92 399,92 399,93 399,93 399,93 400,93 400,93 400,93 401,93 401,93 401,94 402,94 402,94 403,94 403,94 403,94 403,95 404,95 404,95 405,95 405,95 405,95 406,95 406,95 406,95 406,96 406,96 406,96 406,96 406,96 407,96 407,97 407,97 407,97 408,97 408,97 408,97 408,97 408,97 408,96 408,96 408,96 408,96 408,96 408,96 408,96 408,96 408,96 409,96 409,96 409,96 410,96 410,96 410,96 410,96 410,96 410,96 410,96 410,96 410,96 411,96 411,96 411,97 411,97 411,97 411,98 411,98 411,98 411,98 411,98 412,98 412,98 412,98 412,98 412,98 412,98 412,99 412,99 413,99 413,99 414,100 414,101 415,101 415,101 415,101 416,102 416,102 416,102 417,102 417,102 417,103 418,103 418,103 418,103 418,103 418,103 418,104 419,103 419,103 419,103 419,103 419,103 419,103 420,103 420,103 420,103 420,103 420,103 421,103 421,103 421,103 422,103 422,103 422,103 423,103 424,103 424,104 425,104 425,104 426,104 426,105 426,105 426,105 427,105 426,105 426,105 426,105 426,105 426,106 426,106 427,106 427,106 427,106 427,105 427,105 427,105 427,105 427,105 428,105 428,106 428,106 428,106 428,106 428,106 428,107 428,107 428,107 428,107 428,107 429,107 429,107 429,106 429,106 429,106 429,106 430,106 430,106 430,106 430,106 430,107 430,107 430,107 431,107 431,107 431,107 432,107 433,107 433,107 433,107 433,107 434,107 434,107 434,107 435,107 435,107 435,107 436,107 436,107 437,107 437,107 437,107 437,107 437,107 437,107 437,108 437,108 436,108 436,108 436,108 436,108 436,108 437,109 437,109 437,109 438,108 438,108 438,108 438,108 438,108 439,108 439,108 440,108 441,107 442,107 442,107 442,107 443,107 443,108 444,108 444,108 445,108 445,108 446,108 446,108 446,108 446,109 446,109 446,109 447,109 447,109 447,109 447,109 447,109 448,109 448,109 448,109 449,110 450,110 450,110 451,110 451,110 451,109 452,109 452,110 452,110 454,111 454,112 454,112 454,112 454,112 454,112 454,112 454,112 454,112 454,113 454,113 454,113 453,113 453,114 453,114 453,114 454,115 454,115 454,115 454,115 455,115 455,115 456,116 456,116 456,116 456,116 456,116 456,117 456,117 456,117 457,117 457,117 457,118 458,118 458,118 459,119 460,119 460,119 460,119 461,119 461,118 461,118 461,118 461,118 462,118 462,118 463,118 463,118 464,118 464,118 464,118 464,118 464,118 465,118 465,118 465,118 465,118 466,118 466,118 467,118 467,119 467,119 467,119 467,119 468,119 468,119 468,119 468,119 468,118 468,118 468,118 468,117 468,117 468,117 468,117 468,117 469,117 469,117 469,117 469,117 469,117 469,117 469,117 469,117 469,117 469,117 469,117 469,117 470,117 470,117 470,117 470,117 470,117 471,117 471,117 471,117 471,117 472,117 472,118 473,118 475,118 476,118 476,118 476,118 477,118 477,118 477,118 477,118 477,118 477,119 477,119 478,119 478,119 478,119 478,119 479,119 479,119 479,118 479,119 479,119 479,119 479,119 479,119 480,119 480,119 480,119 480,119 480,119 481,119 481,119 481,119 481,119 481,119 482,119 482,119 482,118 482,118 482,118 482,118 483,118 483,118 483,119 482,119 482,119 482,119 482,119 483,120 483,120 483,120 484,120 484,120 484,120 484,120 484,120 484,119 484,119 484,119 484,119 484,119 484,119 485,119 485,119 485,119 485,119 485,119 486,119 486,119 486,119 486,119 486,119 486,119 487,119 487,119 487,119 487,119 487,119 487,119 488,119 488,119 488,120 487,120 487,120 488,121 488,121 488,121 488,121 488,121 489,121 489,121 489,121 489,121 490,122 490,122 490,122 490,122 490,122 490,122 490,122 490,122 490,122 490,123 490,123 490,123 490,123 489,123 489,123 489,124 489,124 489,124 489,125 489,125 489,126 489,126 490,126 490,126 490,126 490,126 491,126 491,126 491,126 491,126 491,126 491,126 492,126 492,126 492,126 492,126 492,126 492,126 492,126 492,126 492,127 492,127 492,127 492,127 493,127 493,128 494,128 494,128 494,128 495,128 495,129 496,129 496,129 496,130 497,130 497,130 497,131 498,131 498,131 498,132 499,131 499,131 499,132 500,132 500,132 500,132 500,132 500,132 500,133 499,134 499,134 499,134 499,134 499,134 499,134 499,134 498,134 498,134 498,134 498,134 498,134 498,134 498,134 498,134 498,134 498,134 498,134 498,134 498,134 498,134 497,134 497,134 497,134 497,134 497,134 497,134 497,134 497,134 497,134 497,134 497,134 497,134 497,134 497,134 497,134 497,134 497,134 497,134 496,134 496,134 497,134 497,134 497,134 496,135 496,135 496,135 496,135 496,135 496,135 496,135 496,135 496,135 496,135 495,135 495,135 495,135 495,135 494,135 494,136 493,136 493,136 493,136 493,136 493,136 492,136 492,136 492,136 492,136 492,136 491,137 491,137 491,137 491,137 490,137 490,137 490,137 490,137 490,137 490,137 490,137 490,137 490,138 490,138 489,137 489,137 489,137 489,137 489,138 489,138 489,138 489,138 488,138 488,138 488,138 488,138 488,138 488,138 488,138 488,138 488,138 487,138 487,138 487,138 487,138 487,138 487,138 486,138 486,138 486,138 486,138 486,138 486,138 486,138 486,138 485,138 485,138 485,138 484,138 484,138 484,138 483,138 483,138 483,138 483,138 483,138 483,138 482,138 482,139 483,139 483,139 483,139 482,139 482,139 482,139 482,140 482,140 482,140 482,140 482,140 482,140 482,140 482,140 482,140 482,140 482,140 482,140 482,141 482,141 482,141 482,141 482,141 482,141 482,141 482,141 482,141 481,141 481,141 481,142 481,142 481,142 480,142 480,142 480,142 480,142 480,142 480,142 480,142 480,142 480,142 480,142 480,143 480,143 480,143 480,143 480,143 480,143 480,143 479,143 479,143 479,143 478,144 478,144 478,144 478,144 477,144 477,144 477,144 476,144 476,145 476,145 476,145 476,145 476,145 477,145 477,145 476,146 476,146 476,147 476,147 476,147 476,147 476,147 475,147 475,147 475,148 475,148 476,148 476,148 475,148 475,148 475,148 476,148 476,149 475,149 475,149 475,149 476,149 476,149 475,149 475,150 475,150 476,150 476,150 476,150 476,150 476,150 476,150 476,151 476,151 476,151 476,151 476,151 476,151 476,151 477,152 477,152 477,152 477,152 477,152 477,152 477,152 477,152 477,152 477,152 477,152 477,153 477,153 477,153 477,153 477,153 477,153 477,153 477,153 477,153 478,153 478,153 478,153 478,154 477,154 477,154 477,154 477,154 477,154 477,154 477,155 477,155 477,155 476,155 476,155 476,155 476,155 475,156 475,156 475,156 475,156 474,156 474,157 474,157 474,157 474,157 474,157 474,157 474,157 474,157 474,158 474,158 474,158 473,158 473,158 473,158 473,158 473,158 473,158 473,158 473,158 473,158 473,159 473,159 473,159 473,159 473,159 473,159 473,159 473,159 473,159 473,159 473,159 473,159 473,159 473,159 473,159 473,159 473,159 473,159 473,159 473,159 473,159 473,159 473,159 473,160 473,160 473,160 473,160 473,160 473,160 473,160 473,160 473,160 473,160 473,160 473,160 473,160 473,160 473,160 473,160 473,160 473,160 473,161 473,160 472,161 472,161 472,161 472,161 472,161 472,161 472,161 472,161 472,161 472,161 472,161 472,161 472,161 472,161 472,161 472,161 472,162 472,162 472,162 471,162 471,162 471,162 471,162 471,162 471,162 471,162 471,162 471,162 471,162 471,162 470,162 470,162 471,162 471,162 471,162 470,162 470,163 470,163 470,163 470,163 470,163 470,163 470,163 470,163 470,163 470,163 470,164 469,164 469,164 469,164 469,164 468,164 468,164 468,164 468,164 468,164 468,164 468,164 467,164 467,164 467,164 467,164 467,164 467,165 466,165 466,165 466,165 466,165 466,165 466,165 466,165 466,165 465,166 465,166 465,166 465,166 465,166 465,166 466,166 466,166 466,166 466,167 467,167 467,167 467,168 467,168 467,168 467,168 466,168 466,168 466,168 466,168 467,169 467,169 467,169 467,169 467,169 467,169 468,170 468,170 468,170 468,170 468,170 468,170 468,170 468,170 468,170 468,170 468,171 468,171 469,171 469,171 468,171 468,171 468,171 468,171 468,171 469,171 468,171 468,172 468,172 468,172 468,172 468,172 468,172 468,172 468,172 469,172 468,172 468,172 469,172 469,172 468,172 468,172 469,172 469,173 469,173 469,173 468,173 468,173 468,173 468,173 468,173 468,173 468,173 468,173 468,173 467,174 468,174 467,174 467,174 467,174 467,174 467,174 467,175 467,175 467,175 467,175 467,175 467,175 467,175 466,175 466,175 466,175 466,176 466,176 466,176 466,176 466,176 466,176 466,176 466,176 466,176 466,176 466,176 466,176 466,177 466,176 466,176 466,177 466,177 466,177 466,177 466,177 466,177 466,177 466,177 466,177 466,177 466,177 466,178 466,178 466,178 466,178 466,178 466,178 466,178 466,178 466,178 466,178 466,178 466,178 466,178 467,179 467,179 466,179 466,179 466,179 466,179 466,179 466,179 466,179 466,179 466,180 466,180 466,180 466,180 466,180 466,180 466,180 466,180 466,180 466,181 466,181 466,181 466,181 466,181 466,181 466,181 466,182 466,182 466,182 466,182 465,182 465,182 465,183 465,183 465,183 465,183 465,183 465,183 465,184 465,184 465,184 465,184 466,184 466,184 466,184 466,185 466,185 466,186 466,186 466,186 467,187 467,187 467,187 467,187 467,187 468,187 468,187 469,187 469,187 470,187 471,187 471,187 471,187 472,187 472,187 472,187 472,187 472,187 472,187 473,187 473,188 473,188 474,188 474,190 474,190 473,189 473,189 473,190 473,190 473,191 474,191 474,192 474,192 474,193 474,193 474,193 474,193 475,194 475,194 475,194 475,194 475,194 475,195 475,195 475,195 475,195 475,195 475,195 475,195 475,196 475,196 475,196 475,196 475,197 475,197 475,197 475,197 475,197 475,197 475,198 474,198 474,198 474,197 473,197 473,197 472,197 472,197 472,197 472,197 472,197 471,198 471,198 471,198 471,198 471,198 470,198 470,198 470,198 470,198 469,198 469,198 469,198 469,198 468,199 468,199 468,199 468,199 468,199 468,199 468,199 467,199 467,199 467,199 467,199 467,200 467,200 467,200 467,200 467,200 467,200 466,200 466,200 466,201 466,201 465,201 465,201 464,201 464,201 464,201 464,202 464,202 463,202 463,202 463,202 463,202 462,202 462,202 462,202 462,202 462,202 461,202 461,202 461,202 461,202 460,202 460,202 460,202 460,202 460,203 459,203 459,203 459,203 459,203 459,203 459,203 459,203 459,204 458,204 458,204 458,204 458,204 458,204 457,205 457,205 457,205 457,206 456,206 456,206 456,206 456,206 456,206 456,206 456,206 456,206 456,207 455,207 455,207 455,207 455,207 455,208 455,208 455,208 454,209 454,209 454,210 455,210 455,210 455,210 455,210 455,211 455,211 455,211 455,211 455,211 456,212 457,212 458,213 458,213 458,213 458,213 458,213 457,213 456,214 456,214 455,215 455,215 455,215 454,214 454,214 454,215 454,215 454,215 454,215 453,215 453,215 453,215 452,215 452,215 452,215 452,215 452,215 451,215 451,215 451,215 451,215 451,215 451,215 451,215 450,215 450,215 450,215 450,215 450,215 450,216 450,216 450,216 449,216 449,216 449,216 449,216 449,216 449,217 449,217 449,217 449,217 448,217 448,217 448,217 448,217 448,217 448,217 448,217 448,217 447,217 447,217 447,217 447,217 447,217 447,217 447,217 447,217 446,217 446,217 446,217 446,217 445,217 445,217 445,217 445,217 445,217 445,217 445,217 444,217 444,217 444,217 444,217 444,217 444,216 444,216 443,216 443,216 443,216 443,216 443,216 443,216 443,216 443,216 443,216 443,216 443,216 442,216 442,216 442,216 442,216 442,216 442,216 442,216 442,216 441,216 441,216 441,216 441,216 441,216 441,216 441,216 441,216 441,216 441,216 440,216 440,216 440,216 440,216 440,216 440,216 440,216 440,216 440,216 440,216 440,216 440,216 440,216 439,216 439,216 439,216 439,216 439,216 439,216 438,216 438,216 438,216 438,216 438,215 438,215 437,215 437,215 437,215 437,215 436,215 436,215 436,215 436,215 436,215 436,215 435,215 435,215 435,215 435,215 435,215 434,215 434,215 434,215 434,215 434,215 434,215 434,215 434,215 434,215 434,215 433,215 433,215 433,215 433,215 433,215 433,215 433,215 433,215 433,215 432,215 432,215 432,215 432,215 432,215 432,215 432,215 432,215 432,215 432,215 432,215 432,215 432,215 432,215 431,215 431,215 431,215 431,215 431,215 431,215 431,215 431,215 431,215 431,215 431,215 431,215 431,215 430,215 430,215 430,215 430,215 430,215 430,215 430,215 430,215 430,215 430,215 430,215 430,215 429,215 429,215 429,215 429,215 429,215 429,215 429,215 429,215 429,215 429,215 429,215 429,215 429,215 429,215 429,215 428,215 428,215 428,215 428,215 428,215 428,215 428,215 428,215 428,215 428,215 428,215 427,215 427,215 427,215 427,215 427,215 427,215 427,215 427,215 427,215 427,215 427,215 427,215 427,215 427,215 427,215 426,215 426,215 426,215 426,215 426,216 426,216 426,216 426,216 426,216 425,216 425,216 425,216 425,216 425,216 425,216 425,217 424,218 424,218 424,218 424,219 424,219 424,219 424,219 424,219 423,219 423,219 423,219 423,219 423,219 423,219 423,219 423,219 422,220 422,220 422,220 422,220 421,220 421,221 421,221 421,221 421,221 421,221 421,221 421,221 421,221 421,221 421,221 421,222 421,222 421,222 421,222 421,222 421,222 421,222 421,222 421,222 421,222 421,222 421,222 421,222 421,222 421,223 421,223 421,223 421,223 421,223 421,223 421,223 421,224 421,224 421,224 421,224 421,225 421,225 421,225 421,225 420,225 420,225 420,225 420,225 420,225 420,225 419,226 419,226 419,226 419,226 419,226 419,226 419,226 419,226 419,226 419,226 419,226 418,226 418,226 418,227 418,227 418,227 418,227 418,227 418,227 418,227 418,227 418,227 418,228 418,228 418,228 418,228 417,228 417,228 417,228 417,228 417,228 417,228 417,228 417,228 417,228 417,228 417,228 417,229 417,229 417,229 417,229 417,229 417,229 417,229 417,229 416,229 416,229 416,229 416,230 416,230 416,230 416,230 416,230 416,230 416,230 416,230 416,230 416,230 416,231 416,231 416,231 416,231 416,231 416,231 416,231 416,231 416,231 416,231 416,231 416,231 416,231 416,231 416,231 416,231 416,231 416,231 416,232 416,232 415,232 415,232 415,232 415,232 415,232 415,232 415,232 416,232 416,232 415,232 415,233 415,233 415,233 415,233 415,233 415,233 415,233 415,233 415,232 415,232 415,232 415,233 414,233 414,233 414,233 414,233 414,233 414,233 414,233 414,233 414,233 414,233 414,233 413,233 413,233 413,234 413,234 413,234 413,234 413,234 413,234 413,234 412,234 412,234 412,234 412,234 412,234 412,234 412,234 412,234 412,234 411,234 411,234 411,235 411,235 411,235 411,235 411,235 411,236 411,236 410,236 410,236 410,236 410,236 410,236 409,237 409,237 409,237 409,237 409,237 409,237 408,238 408,238 408,238 408,238 408,238 408,238 407,238 407,238 407,238 407,238 406,239 406,239 406,239 406,239 406,239 406,239 406,239 406,239 406,240 406,240 406,240 406,240 405,240 405,240 405,240 405,240 405,240 405,240 405,240 405,240 405,240 405,240 405,240 405,240 405,240 405,240 405,240 405,240 405,240 405,240 405,240 405,240 405,240 404,240 404,240 404,240 404,241 404,241 405,241 405,241 405,241 405,241 405,241 405,241 405,241 405,241 405,241 404,241 405,241 405,241 405,241 405,241 405,241 405,241 405,241 405,241 405,241 405,241 405,241 405,241 405,241 406,241 406,242 406,242 407,242 407,242 407,242 407,242 408,242 408,242 408,242 408,242 408,242 408,242 409,242 409,242 409,242 409,242 409,243 409,243 409,243 409,243 409,243 410,243 410,244 411,244 411,244 411,244 411,244 411,244 411,244 411,244 412,244 412,244 412,244 412,244 412,244 412,244 412,244 412,244 413,244 413,244 413,245 413,245 413,245 413,245 413,245 413,245 413,245 413,245 413,245 414,245 414,245 414,245 414,245 414,245 414,245 414,245 414,245 415,245 415,245 415,245 415,245 415,245 415,245 415,245 415,245 415,245 415,245 415,245 415,245 416,245 416,245 416,245 416,245 416,245 416,245 416,245 416,245 416,245 416,245 416,245 416,245 417,245 417,245 417,245 417,245 417,245 418,246 418,246 418,246 418,246 418,246 418,245 419,245 419,245 419,245 419,245 419,246 419,246 419,246 419,246 419,246 419,246 419,246 419,246 419,246 420,246 420,246 420,246 420,246 420,246 420,246 421,246 421,246 421,246 421,246 421,247 421,247 421,247 421,247 421,247 422,247 422,247 422,247 422,247 422,247 422,247 422,247 422,247 422,247 422,247 422,247 422,247 423,247 423,247 423,247 423,247 423,247 423,247 423,247 423,247 424,247 424,247 424,248 424,248 424,248 424,248 424,248 424,248 424,248 424,248 424,248 424,248 424,248 424,248 424,248 424,248 424,248 424,248 424,249 424,249 424,249 424,249 424,249 424,249 424,249 424,249 424,249 424,249 424,249 424,249 424,250 424,250 424,250 424,250 424,250 424,250 424,250 424,250 424,250 424,250 424,250 424,250 424,250 424,251 424,251 424,251 424,251 425,251 425,251 425,251 425,251 425,251 425,251 425,251 425,251 425,251 425,251 425,251 425,251 425,251 425,251 425,251 425,251 426,251 426,251 426,252 426,252 426,252 426,252 426,252 426,252 426,252 426,252 426,252 426,252 426,253 427,253 427,253 428,254 428,254 428,254 428,254 428,254 428,254 428,255 428,255 428,255 429,255 429,255 428,255 428,255 429,255 429,255 429,256 428,256 428,256 428,256 428,256 428,256 428,256 428,256 428,256 428,256 428,256 428,256 428,256 428,256 428,256 428,256 428,257 428,257 428,257 427,257 426,258 426,258 426,258 426,259 425,259 425,259 424,259 423,259 423,260 423,260 423,260 423,260 422,260 421,260 421,260 421,260 421,260 421,260 420,260 420,260 419,260 419,260 419,261 418,261 418,261 418,261 417,261 417,261 417,261 416,262 416,262 416,262 416,262 415,262 415,262 415,262 415,262 415,262 415,262 415,262 414,262 414,263 414,263 414,263 414,263 414,263 413,262 413,262 413,262 413,262 413,262 413,262 413,262 412,262 412,262 411,263 410,263 409,263 409,263 409,263 409,263 409,263 408,263 408,263 408,263 408,263 408,263 407,264 407,264 406,264 405,264 405,264 404,264 404,264 403,264 403,264 403,264 403,264 402,264 402,265 402,265 401,265 401,265 400,265 400,265 400,265 400,265 400,265 399,265 399,265 399,265 398,265 398,266 397,266 397,266 396,266 396,265 396,265 395,265 395,265 395,265 395,265 395,265 395,265 395,265 396,265 396,265 396,265 396,265 396,264 396,264 395,264 395,264 395,264 395,264 395,264 395,264 394,265 394,265 394,264 394,264 394,264 394,264 394,264 393,264 393,265 393,265 392,264 392,264 392,264 391,265 391,265 391,265 390,265 390,266 390,266 390,266 390,266 389,267 389,267 389,267 388,268 388,268 387,269 386,270 386,270 386,270 386,271 386,271 386,271 386,271 385,271 385,271 384,271 384,271 384,271 384,271 384,271 383,271 383,272 383,272 383,272 383,272 383,272 383,272 383,272 383,272 383,272 383,272 383,272 382,272 382,272 382,273 382,273 382,273 382,273 382,273 382,273 381,273 381,273 381,273 381,273 381,273 381,273 381,273 381,273 381,273 380,273 380,273 380,273 380,273 380,273 379,274 379,274 379,274 379,274 379,274 378,275 377,275 377,275 377,275 376,274 376,274 376,274 374,275 374,275 374,275 373,275 372,276 372,276 372,276 372,276 372,276 372,277 372,277 372,278 371,278 371,278 371,279 371,279 371,279 371,279 371,280 371,280 371,280 369,278 369,278 369,278 368,278 368,277 368,277 368,277 367,277 367,276 367,276 367,276 367,276 367,275 367,275 367,275 367,275 367,275 367,275 367,274 367,274 365,274 364,274 364,274 364,274 364,274 363,274 363,274 363,274 362,273 362,273 362,273 361,273 361,273 361,273 361,273 361,273 360,273 360,272 360,272 360,272 360,272 360,272 360,272 360,272 360,272 360,272 359,272 359,272 359,271 359,271 359,271 359,271 358,271 358,271 358,271 358,271 358,271 358,271 358,270 358,270 358,270 357,270 357,270 357,270 357,270 357,270 356,270 356,270 356,270 356,270 356,270 355,269 355,269 355,269 355,269 355,269 355,269 355,269 355,269 354,269 354,269 354,269 354,269 353,269 353,269 353,269 353,268 353,268 353,268 353,268 353,268 353,267 353,267 353,267 353,267 352,267 352,267 352,267 352,267 352,267 352,266 352,266 352,266 352,266 352,266 352,265 352,265 352,265 351,265 351,264 351,264 351,264 351,264 351,264 351,264 351,264 351,264 351,264 351,264 350,264 348,265 348,265 348,265 348,265 347,265 347,266 347,266 347,266 347,266 347,266 347,266 345,266 345,266 344,266 344,266 344,266 344,266 344,266 344,266 343,266 343,265 343,265 343,265 343,265 343,265 343,265 343,265 342,264 342,264 341,264 340,264 340,264 340,264 339,264 339,264 339,264 339,264 339,264 338,264 338,264 338,264 337,263 337,263 337,263 336,263 336,263 335,263 335,263 334,263 334,263 333,263 333,263 333,262 332,262 332,262 332,262 332,262 331,262 331,262 331,262 331,262 331,262 331,263 330,263 330,263 330,263 330,263 329,263 329,263 329,263 325,262 325,262 325,262 324,263 324,263 324,263 323,263 323,263 323,263 323,263 323,263 323,263 323,263 323,262 323,262 324,262 324,262 324,262 324,262 325,261 325,261 325,261 322,261 322,260 322,261 322,261 322,261 321,261 321,261 321,262 321,262 321,262 321,263 321,263 321,263 320,263 319,263 319,263 319,263 319,263 319,263 319,263 319,263 319,263 319,263 318,262 318,262 318,264 318,264 318,265 318,265 318,265 318,266 318,266 318,266 318,267 318,267 318,267 318,267 318,267 318,267 318,268 319,268 319,268 319,268 318,269 318,269 318,269 318,269 318,269 318,269 318,270 318,270 318,270 318,270 315,273 315,273 315,273 314,273 314,273 314,273 313,273 313,273 313,273 313,273 313,273 313,273 312,274 312,274 312,274 312,274 312,274 311,275 309,278 308,278 309,278 309,279 309,279 309,279 309,279 311,280 311,280 311,281 311,281 311,281 311,281 312,282 312,282 312,282 312,282 312,282 312,282 312,282 312,283 312,283 313,283 313,283 313,283 313,284 314,284 314,284 314,284 314,285 314,285 314,285 314,285 314,285 313,285 312,285 311,285 311,285 311,285 311,285 311,285 311,286 310,286 309,286 309,286 309,286 308,286 308,286 307,286 307,286 307,286 307,286 307,286 306,286 306,286 305,286 305,286 305,286 303,287 303,287 303,287 302,287 302,287 301,288 301,288 301,288 301,288 301,288 301,288 301,288 301,288 301,289 301,289 301,289 300,289 300,289 300,289 300,289 300,289 296,289 296,289 296,289 296,289 295,288 294,288 293,288 293,288 293,288 292,288 292,288 291,288 291,288 291,288 291,288 290,288 289,288 289,288 289,288 289,288 289,288 289,288 289,288 287,288 287,288 287,287 287,287 287,288 287,288 287,288 287,288 287,288 287,288 286,288 284,288 284,288 284,288 284,288 283,288 283,288 283,288 283,288 283,289 283,289 282,289 282,289 282,289 282,289 282,289 281,290 281,290 280,291 280,291 280,291 280,291 280,291 280,291 280,291 279,291 279,291 279,291 279,291 279,291 279,291 279,291 279,291 277,292 277,292 277,292 277,291 277,292 276,292 276,292 277,293 278,293 278,293 278,293 277,293 277,293 277,293 277,294 277,294 277,294 277,293 276,293 276,293 276,293 276,294 276,294 276,294 276,294 276,294 275,294 275,294 275,294 275,294 275,294 275,295 275,295 274,295 274,295 274,295 274,295 274,295 274,294 274,294 274,294 274,294 274,294 274,294 274,293 274,293 274,293 274,293 274,293 274,293 274,293 274,293 274,293 274,293 273,293 273,293 271,292 270,292 269,291 269,291 268,291 268,291 267,291 265,290 265,290 264,289 264,289 262,289 261,289 260,289 260,290 259,290 259,290 258,290 258,290 258,290 257,290 257,291 257,291 256,291 256,291 256,291 256,291 255,291 254,292 254,292 253,292 253,293 253,292 253,292 253,292 253,292 253,291 253,290 253,290 253,289 253,289 253,289 252,289 251,288 251,288 251,288 251,288 251,288 251,288 251,288 251,288 251,288 251,287 250,287 250,287 250,287 250,287 249,287 249,287 248,287 248,287 246,287 246,287 246,287 245,286 245,287 245,287 244,287 244,286 243,286 241,287 240,287 238,287 238,287 238,287 237,287 237,287 237,287 237,287 236,287 236,287 236,287 236,287 235,287 235,287 234,287 233,287 233,287 233,287 233,287 231,287 231,287 230,287 230,287 230,287 230,287 230,286 230,286 229,286 229,286 229,286 229,286 229,286 229,286 229,286 229,286 229,285 228,285 228,285 227,285 227,285 227,285 226,285 226,285 225,285 225,285 225,285 225,285 224,284 224,284 224,284 224,284 224,284 223,284 222,284 221,283 220,283 220,283 219,283 219,283 219,283 219,283 218,283 218,283 218,283 220,281 220,281 220,280 220,280 220,280 220,280 220,280 220,280 223,277 223,277 221,277 221,277 220,277 220,277 220,277 219,277 218,277 217,277 216,277 215,277 214,277 213,277 213,277 212,277 212,277 212,277 211,278 211,278 211,277 211,277 211,277 211,277 210,277 210,277 210,277 210,277 210,277 210,277 208,278 208,278 207,278 207,278 207,278 206,278 206,277 205,277 204,277 203,276 202,276 201,276 199,275 199,275 199,275 198,275 198,275 198,275 197,275 195,273 195,273 194,273 194,273 194,273 194,273 194,273 194,272 194,272 193,271 193,271 193,271 192,270 192,270 192,270 192,270 191,270 191,270 191,270 191,270 190,270 190,270 190,270 190,270 190,270 190,270 190,270 190,270 190,270 190,270 190,270 190,269 190,269 190,269 189,269 189,269 188,269 188,269 188,269 188,268 188,268 188,268 188,268 188,268 188,268 187,268 187,268 187,268 187,268 187,267 186,267 186,267 185,267 184,267 184,266 184,266 184,266 184,266 184,266 184,266 184,266 184,265 184,265 184,265 184,265 185,265 185,265 185,264 185,264 185,264 185,264 185,264 185,264 185,264 185,264 186,264 186,264 186,264 187,263 187,263 187,263 187,263 187,263 187,263 188,263 188,263 188,262 188,262 189,262 189,262 189,262 189,262 189,262 189,261 189,261 189,261 188,261 188,261 188,261 187,261 187,261 187,261 187,261 187,261 188,261 188,261 188,261 188,260 188,260 188,260 188,260 188,260 188,260 188,260 188,260 187,260 187,260 187,260 187,260 187,260 187,260 187,259 187,259 187,259 187,259 187,259 186,258 186,258 186,258 186,258 186,258 186,258 186,258 186,258 186,259 186,259 186,259 186,259 186,259 185,259 185,259 185,259 185,259 184,258 184,258 184,258 184,258 184,258 184,258 184,258 184,258 183,257 183,257 183,257 183,257 183,257 184,257 184,257 184,257 184,257 184,257 185,257 185,256 185,256 184,256 184,256 184,256 184,256 184,256 184,256 184,256 184,256 184,256 185,256 185,256 185,256 185,255 185,255 185,255 185,255 185,255 185,255 185,255 185,255 185,255 185,255 185,255 185,255 186,255 186,255 186,255 186,255 186,255 187,255 187,255 187,255 187,255 188,255 188,255 188,254 188,254 188,254 188,254 188,254 188,254 189,254 189,254 189,254 189,254 189,254 190,254 190,254 190,253 190,253 190,253 191,253 191,253 191,253 191,253 191,253 191,253 191,253 191,253 191,253 191,253 192,253 192,253 192,253 192,253 193,252 193,252 193,252 193,252 193,252 193,252 193,252 193,252 193,252 193,252 193,252 193,252 193,252 194,252 194,251 193,251 193,251 193,251 193,251 193,251 193,251 193,251 193,250 193,250 193,250 193,250 193,250 193,250 193,250 193,250 193,250 193,250 193,250 193,250 192,250 192,250 192,250 192,250 192,250 192,249 192,249 191,249 191,249 191,249 191,250 191,250 190,250 190,250 190,250 190,250 190,250 189,250 189,250 188,250 188,250 188,250 187,250 187,250 187,250 187,250 187,250 187,249 187,249 187,249 187,249 186,249 186,248 186,248 186,248 186,248 187,248 187,248 187,248 188,247 188,247 188,247 188,247 189,247 189,247 190,247 190,247 190,247 191,246 191,246 192,245 192,245 192,245 192,245 192,245 191,244 191,244 191,244 191,244 191,244 191,244 191,243 191,243 191,243 191,243 191,243 191,243 191,243 190,243 190,242 189,242 189,242 189,242 189,241 189,241 189,241 188,241 188,241 188,241 188,241 188,241 188,241 188,241 188,241 188,241 187,241 187,240 187,240 187,240 187,240 186,240 186,240 186,240 185,240 185,240 185,240 185,239 185,239 185,239 185,239 185,239 185,239 185,239 185,239 185,239 184,239 184,239 184,238 184,238 184,238 184,238 184,238 183,238 183,238 183,238 183,238 183,237 183,237 183,237 183,237 183,237 183,237 182,237 182,236 182,236 182,236 182,236 182,236 182,236 182,236 182,236 182,236 182,236 182,236 182,236 182,235 182,235 182,235 182,235 182,235 182,235 182,235 183,235 183,234 183,234 183,234 183,234 183,234 183,234 184,234 184,234 184,234 184,234 184,234 185,234 185,233 185,233 185,233 186,233 186,233 186,233 186,233 186,233 187,233 187,233 187,233 187,233 187,233 187,233 187,233 188,233 188,233 188,233 188,233 188,233 189,233 189,233 189,233 189,233 189,233 189,232 189,232 190,232 190,232 190,232 190,232 190,232 190,232 190,231 191,231 191,231 191,231 191,231 191,231 191,231 191,231 191,231 190,230 190,230 190,230 189,230 189,230 189,230 189,230 188,230 188,230 188,229 187,229 187,229 187,229 188,229 188,229 188,229 187,229 187,229 187,229 187,229 187,229 187,229 187,229 187,229 187,229 186,229 186,229 185,229 185,229 185,228 185,228 185,228 184,228 184,228 184,228 184,228 183,228 183,228 183,228 183,228 183,228 183,227 183,227 183,227 183,227 183,227 182,227 182,227 183,227 183,227 183,226 183,226 183,226 183,226 183,226 183,226 183,225 183,225 183,225 183,225 183,225 183,225 183,225 183,224 183,224 183,224 183,224 184,224 184,224 185,224 185,224 185,224 185,224 186,224 186,224 187,223 187,223 187,223 187,223 187,223 187,223 187,223 187,223 186,222 186,222 186,222 187,222 187,222 187,222 187,222 187,222 187,222 187,222 187,222 188,222 188,222 188,222 188,222 188,222 188,222 189,222 189,222 189,222 189,222 189,222 189,222 189,221 189,221 189,221 188,221 188,221 188,220 188,220 188,220 188,220 188,220 188,220 188,219 188,219 188,219 187,219 187,219 187,219 187,219 187,219 186,219 186,219 186,219 186,218 186,218 186,218 186,218 186,218 186,218 186,218 186,217 185,217 185,217 185,217 185,217 185,217 186,217 186,217 186,216 186,216 186,216 186,216 186,216 186,216 186,216 186,216 186,216 186,216 187,215 187,215 187,215 188,215 188,215 188,215 189,215 189,215 189,215 190,215 190,215 190,214 190,214 190,214 190,214 190,214 190,214 190,214 190,214 190,214 190,214 190,214 190,213 190,213 190,213 189,213 189,213 189,213 189,213 188,213 188,213 188,213 188,213 188,213 188,213 187,213 188,213 188,213 188,213 187,213 187,212 187,212 188,212 188,212 188,212 188,212 188,211 188,212 188,211 189,211 189,211 189,211 189,211 189,211 189,211 189,211 189,211 189,211 189,211 189,210 189,210 189,210 190,210 190,210 190,210 190,210 190,211 190,211 190,211 190,211 190,211 190,210 191,210 191,210 191,210 192,209 192,209 192,209 192,209 192,209 193,208 193,208 193,208 193,208 193,208 193,207 193,207 193,207 193,207 194,207 194,207 194,207 194,207 194,207 194,206 194,206 194,206 194,206 194,206 195,205 195,205 195,205 195,205 195,205 196,204 196,204 196,204 196,204 196,204 196,204 196,204 196,204 196,204 196,204 196,204 197,203 197,203 197,203 197,203 197,203 197,203 197,203 197,203 197,203 197,203 197,203 198,203 198,202 198,202 199,202 199,202 199,202 200,201 200,201 201,202 201,202 201,202 202,202 202,202 202,202 203,201 203,201 203,201 203,201 203,201 203,200 203,200 204,200 204,200 204,200 204,199 204,199 204,199 204,199 204,199 204,199 204,198 204,198 204,198 205,198 205,198 205,198 206,198 206,197 206,197 206,197 206,197 206,198 206,198 206,198 207,198 207,197 207,197 207,197 207,197 207,197 207,197 207,197 207,197 207,197 208,197 208,197 208,197 208,197 208,197 209,196 209,196 209,196 209,196 208,196 208,196 208,195 208,195 208,195 208,195 208,195 208,195 208,194 208,194 207,194 207,194 207,194 207,194 207,194 207,193 207,193 207,193 207,192 207,192 206,192 206,192 206,192 206,192 206,192 206,192 206,192 206,192 206,192 206,192 206,192 206,191 206,191 206,191 206,191 206,191 207,191 207,191 207,191 207,190 207,190 207,190 208,190 208,190 208,190 208,190 208,190 209,190 209,190 209,190 209,190 209,189 209,189 209,189 209,189 209,189 209,189 209,188 209,188 208,188 208,188 208,188 208,188 208,188 208,187 207,187 207,187 207,187 207,187 207,187 207,187 207,187 207,187 207,187 207,187 207,187 208,187 208,187 208,187 208,187 208,187 207,187 207,187 207,187 207,187 207,187 207,187 207,187 207,187 207,186 207,186 207,186 207,186 207,186 207,186 207,186 207,186 207,186 207,186 206,186 206,186 206,186 206,186 206,185 206,185 206,185 207,185 207,185 207,185 207,185 207,185 207,185 207,185 207,184 207,184 207,184 207,184 207,184 208,184 208,184 208,184 208,184 209,184 209,184 209,184 209,184 209,184 209,184 210,184 210,184 210,184 210,184 211,184 211,184 211,184 211,184 211,184 211,184 211,184 211,184 211,184 211,184 211,184 211,184 212,184 212,184 212,184 212,184 212,184 212,184 212,184 212,184 213,184 213,184 213,184 213,184 213,184 214,184 214,184 214,184 214,184 214,184 214,184 214,184 215,184 215,184 215,184 215,185 215,185 216,185 216,185 216,185 216,185 216,185 216,184 216,184 216,184 216,184 216,184 216,184 216,184 217,184 217,184 217,184 217,184 217,184 218,184 218,184 218,184 218,184 218,184 218,184 218,184 218,184 218,184 218,184 219,183 219,183 219,183 220,184 220,184 220,184 220,184 220,184 220,184 221,184 221,184 221,183 221,183 221,183 221,183 221,183 222,183 222,183 222,183 222,183 222,183 222,183 222,183 222,183 222,183 222,183 222,183 223,183 223,183 223,183 223,183 224,183 224,183 224,183 224,183 225,183 225,183 225,182 226,182 226,182 226,182 226,182 226,182 226,182 226,182 226,182 226,182 225,182 225,182 226,182 226,181 226,181 226,181 226,181 226,181 226,181 226,182 226,182 227,182 227,182 227,182 227,182 227,182 227,182 227,182 227,182 228,182 228,182 228,182 228,182 228,182 228,182 228,182 228,182 228,182 228,182 228,182 228,182 228,182 229,182 229,182 229,182 229,182 229,182 229,182 229,182 230,182 230,182 230,183 231,183 231,183 231,183 232,183 232,183 232,183 232,183 232,183 232,183 232,183 232,183 232,183 232,183 233,183 233,183 233,183 233,183 233,183 233,183 233,183 233,183 233,183 233,183 233,183 233,183 233,183 233,182 233,182 233,182 233,182 233,182 233,182 233,182 233,182 233,182 234,182 234,182 234,182 234,182 234,182 234,182 234,182 235,182 235,182 235,182 236,182 236,182 236,182 236,182 236,182 237,182 237,182 237,182 237,182 237,182 238,182 238,182 238,182 238,182 238,182 238,182 238,182 238,182 238,182 239,182 239,182 239,182 239,183 239,183 239,183 239,183 239,183 239,183 239,183 239,183 239,183 239,184 239,184 239,184 239,184 239,184 239,184 239,184 239,184 239,184 239,184 239,185 239,185 239,185 239,185 239,185 239,185 239,185 239,185 239,185 239,185 239,185 239,185 239,185 239,185 239,185 239,185 239,186 239,186 239,186 239,186 239,186 239,187 239,187 239,187 239,187 239,187 239,187 239,187 239,187 239,187 239,187 239,187 240,187 240,188 239,188 239,188 239,188 239,188 239,188 239,188 239,189 239,189 240,189 240,189 240,189 241,189 241,189 242,189 242,189 242,189 242,189 242,188 242,188 242,188 242,188 242,188 242,188 242,188 243,188 243,188 243,188 243,188 243,188 243,188 244,188 244,188 244,188 244,188 244,187 244,187 244,187 244,187 244,187 244,187 244,187 245,187 245,187 245,187 245,187 245,187 246,187 246,187 246,187 246,187 246,187 246,187 246,187 246,187 246,187 246,187 246,188 246,188 246,188 246,188 246,188 246,188 246,188 246,188 246,188 246,189 246,189 246,189 246,189 246,189 246,189 246,190 246,190 246,190 246,190 246,190 245,190 245,190 245,190 245,190 244,190 244,190 243,191 243,191 243,191 243,191 244,191 244,191 244,191 244,191 244,191 244,191 244,191 244,191 245,191 245,192 245,192 245,192 245,192 245,192 245,192 245,192 245,193 245,193 245,193 246,193 246,194 246,194 246,194 246,194 246,194 246,194 246,194 246,194 246,194 246,194 246,194 246,194 246,195 246,195 246,195 247,195 247,195 247,195 247,195 247,195 247,195 247,195 248,195 248,195 248,196 248,196 248,196 249,196 249,196 249,196 250,196 250,196 251,196 251,196 251,197 251,197 252,197 252,197 252,197 252,197 252,198 252,198 253,198 253,198 253,198 254,199 254,199 254,199 254,199 254,199 254,199 255,199 255,199 255,199 255,199 255,200 255,200 255,200 255,200 255,200 256,200 256,200 256,200 256,200 257,201 257,201 257,201 257,201 258,201 258,201 258,200 259,200 259,200 260,200 260,200 260,200 260,199 260,199 260,199 260,199 261,199 261,199 261,199 261,199 261,199 261,199 261,199 261,199 261,199 261,199 261,200 261,200 261,200 261,200 261,200 261,201 261,201 261,201 261,201 262,201 262,201 263,201 264,201 264,201 264,201 264,201 264,201 265,201 265,201 265,201 265,201 265,200 265,200 265,200 265,200 266,200 266,200 266,200 266,199 266,199 266,199 266,199 266,199 266,199 267,198 267,198 268,198 268,198 268,199 268,199 268,199 268,199 268,199 269,199 269,199 269,199 269,199 269,199 269,199 269,199 269,199 269,199 269,199 269,199 269,199 269,200 269,200 269,200 270,200 270,200 270,200 270,200 270,201 270,201 270,201 270,201 270,201 270,201 271,201 271,201 271,201 271,201 271,202 271,202 271,202 272,202 272,202 272,202 272,202 273,201 273,201 273,201 273,201 273,201 273,201 274,202 274,202 275,202 275,202 275,202 275,202 276,202 276,202 276,202 276,202 276,202 276,203 276,203 277,202 277,202 277,202 277,202 277,202 277,202 277,202 277,202 277,202 277,202 278,202 278,202 278,202 278,202 278,202 278,202 278,201 278,201 278,201 279,201 279,201 279,201 279,201 279,201 279,201 279,201 279,201 279,201 279,201 279,201 279,201 279,201 279,201 279,201 280,200 280,200 280,200 280,200 280,200 280,200 280,200 281,200 281,200 281,200 281,200 281,200 281,200 281,200 281,200 281,200 281,200 281,200 281,200 281,200 281,200 281,200 281,200 281,200 281,200 281,200 281,199 281,199 281,199 281,199 281,199 281,199 281,199 281,199 281,199 281,199 281,199 281,199 281,199 281,199 281,199 281,199 281,198 281,198 281,198 281,198 281,198 281,198 281,198 281,198 281,198 281,198 281,198 281,197 281,197 281,197 281,197 281,197 281,197 282,196 282,196 282,196 282,196 282,196 282,196 282,196 282,196 282,196 282,195 282,195 282,195 282,195 283,195 283,195 283,195 283,195 283,195 283,195 283,195 284,194 284,194 284,194 284,193 284,193 284,193 284,193 284,193 284,193 284,193 284,193 284,193 284,193 285,193 284,193 284,193 284,193 284,193 284,192 284,192 285,193 285,193 285,193 285,192 285,192 285,192 285,192 285,192 285,192 285,191 285,191 285,191 285,191 285,191 285,190 285,190 286,190 286,191 286,190 286,190 286,190 286,190 286,190 286,190 286,190 286,190 287,190 287,190 287,190 287,190 287,190 287,190 287,190 287,189 288,189 288,189 288,189 288,189 288,189 288,189 289,189 289,189 289,189 289,189 289,189 289,189 289,189 289,189 289,188 289,188 289,188 289,188 289,188 290,188 290,188 290,188 290,188 290,188 290,188 290,188 290,188 290,188 290,187 290,187 290,187 290,187 290,187 291,187 291,187 291,187 291,187 291,187 291,187 291,186 292,185 292,185 292,185 292,185 293,185 293,184 293,184 294,183 294,182 294,182 295,182 295,181 295,181 295,181 295,180 295,180 295,180 295,180 295,180 295,180 295,180 295,180 295,180 295,180 295,180 296,180 296,180 296,179 296,179 297,179 297,179 297,179 297,179 297,179 297,179 297,178 297,178 297,178 298,178 297,178 298,177 298,177 298,177 298,177 298,177 297,176 297,176 297,176 297,176 296,176 296,175 296,175 296,175 295,175 295,175 294,174 294,174 294,174 294,174 294,174 293,174 293,174 292,174 292,173 292,173 291,173 291,173 291,173 291,173 291,172 291,172 291,172 291,172 291,172 291,172 291,171 291,170 291,170 291,170 291,170 291,169 292,169 292,169 291,169 292,169 292,169 292,168 292,168 292,168 292,168 293,167 293,167 293,167 293,167 293,167 293,167 293,167 293,167 293,167 293,166 293,166 293,166 294,166 294,166 294,166 294,166 294,166 294,166 294,166 294,166 294,166 294,166 294,166 294,166 294,165 295,165 295,165 295,165 295,165 295,165 295,165 295,165 295,165 295,165 296,164 296,164 295,164 295,164 295,164 295,164 295,163 295,163 295,163 295,163 295,163 295,163 295,163 295,163 295,163 295,163 295,163 295,163 295,162 295,162 294,162 292,162 292,162 292,162 291,162 291,162 289,161 288,160 287,160 287,160 287,159 287,159 286,159 286,159 286,159 286,159 284,158 284,158 282,158 281,157 281,157 280,156 280,156 280,156 280,156 279,156 279,157 278,157 278,157 278,157 277,157 277,157 277,157 276,158 276,158 276,158 276,158 276,158 276,158 276,158 275,158 275,158 275,158 275,158 275,158 275,158 275,158 275,158 274,157 273,156 273,156 273,155 273,155 273,155 273,155 272,155 272,155 272,155 272,155 272,155 272,155 272,155 272,155 271,155 271,155 271,155 271,155 270,155 270,155 270,155 270,155 270,154 269,154 269,154 269,154 269,154 269,154 268,155 268,155 268,155 267,155 267,155 267,155 266,155 266,155 266,155 266,155 265,155 265,155 265,155 265,155 265,154 265,154 265,154 265,154 264,154 264,154 264,154 264,154 264,153 264,153 264,153 264,153 264,153 264,153 264,153 264,153 264,152 264,152 264,152 264,152 264,152 263,152 263,151 263,151 263,151 263,151 263,151 263,151 262,151 262,151 262,151 261,151 261,151 261,151 261,151 260,151 260,151 260,151 259,151 259,151 259,151 259,151 259,151 258,151 258,151 258,151 258,151 258,151 257,151 257,151 257,151 257,151 257,150 257,150 257,150 257,150 257,150 257,150 258,150 258,150 258,150 258,150 258,150 258,149 258,149 258,149 258,149 258,149 259,149 258,149 258,149 259,149 259,149 259,149 259,148 259,148 259,148 259,148 259,148 259,148 259,148 259,148 259,148 259,147 259,147 259,147 259,147 259,147 259,147 259,147 259,147 259,147 259,147 259,147 259,146 259,146 259,146 259,146 259,146 259,146 259,146 259,146 259,146 259,146 259,146 259,146 259,146 258,146 258,146 258,146 258,145 258,145 258,145 258,145 258,145 258,145 257,145 257,145 257,145 257,145 257,145 257,145 257,145 257,145 257,145 257,145 256,145 256,145 256,145 256,145 256,145 256,145 256,145 256,145 256,145 256,145 256,145 256,145 256,145 256,145 256,145 256,145 256,145 256,144 256,144 256,144 256,144 256,144 256,144 256,144 256,144 256,144 256,144 256,144 256,144 256,144 256,144 255,144 255,144 255,144 256,144 256,144 256,144 256,143 256,143 256,143 256,143 256,143 256,143 256,143 256,143 256,143 256,142 256,142 256,142 256,142 256,142 256,142 256,142 256,142 256,142 256,142 256,142 256,142 256,142 256,142 256,142 256,141 256,141 256,141 256,141 256,141 256,141 256,141 256,141 256,141 256,141 256,141 257,141 257,141 257,140 257,140 257,140 257,140 257,140 257,140 257,140 257,140 257,140 257,140 257,139 257,139 258,139 257,139 257,139 257,139 257,139 257,139 257,139 257,139 257,138 257,138 257,138 257,138 256,138 255,137 255,137 254,137 253,136 253,136 251,136 251,135 251,135 251,135 251,135 251,134 251,134 250,134 250,134 250,133 250,133 249,132 249,132 248,132 248,132 248,132 248,131 247,131 247,130 247,130 247,130 247,130 247,130 246,130 246,130 246,130 246,130 246,130 246,130 246,130 245,131 244,131 244,131 244,132 243,132 243,132 243,132 242,132 242,133 241,133 241,133 241,133 241,134 241,134 240,134 240,133 240,133 239,133 239,133 239,133 239,133 239,133 239,133 239,133 238,133 238,132 238,132 238,131 238,131 238,131 238,131 238,131 237,130 237,130 237,130 237,130 237,130 236,130 236,130 236,130 236,130 235,130 235,130 235,130 235,130 234,130 234,130 234,130 234,130 234,130 234,130 234,130 234,130 234,130 234,130 234,130 234,130 234,130 234,130 234,130 233,130 233,130 233,130 233,130 233,130 233,130 233,130 233,131 233,131 233,131 233,131 233,131 233,131 233,131 233,131 233,131 232,131 232,131 232,131 232,131 232,131 232,131 232,131 231,131 231,131 231,131 231,131 231,131 230,131 230,131 230,131 230,131 230,131 230,131 230,131 229,131 229,131 229,131 229,131 229,131 229,131 229,131 229,131 228,131 228,131 228,131 228,131 228,131 228,131 228,130 228,130 228,130 227,130 227,130 227,130 227,130 227,130 227,130 227,131 226,131 226,131 226,131 226,131 226,131 226,131 226,131 226,131 225,131 225,130 225,130 225,130 223,129 223,129 223,129 223,128 223,128 222,128 222,128 222,128 222,128 222,128 222,128 222,128 221,128 221,128 221,128 221,128 221,128 221,128 220,128 220,127 220,127 219,127 219,126 217,126 216,125 216,125 215,125 215,125 215,124 215,124 214,124 214,124 214,124 213,125 212,125 212,125 212,125 211,125 211,124 211,124 210,124 210,123 210,123 210,123 209,122 209,121 209,121 208,121 207,120 207,120 207,120 207,119 206,119 206,119 206,119 206,119 206,119 206,119 205,119 205,119 205,119 205,119 205,119 205,120 205,119 205,119 204,119 204,119 204,119 204,119 204,119 204,119 204,119 204,120 203,120 203,120 203,119 202,119 202,120 202,120 202,120 202,120 202,120 201,120 201,119 200,119 200,119 200,119 200,119 200,120 200,119 199,119 199,119 199,119 199,119 199,120 197,120 197,120 197,120 197,120 197,120 197,120 197,120 197,120 196,120 196,120 195,120 195,120 195,120 195,120 194,120 194,120 194,120 193,120 193,120 193,120 193,120 193,120 193,120 192,120 192,120 192,120 192,120 192,120 192,120 192,120 192,120 191,120 191,120 191,120 191,120 191,120 191,120 191,120 191,120 190,120 190,120 190,120 190,120 190,120 189,120 189,120 189,120 189,120 188,120 188,120 188,120 188,120 187,120 187,120 187,120 187,120 187,120 187,120 186,120 186,120 186,120 186,120 186,120 186,120 185,120 185,120 185,120 185,120 185,120 185,120 184,120 183,121 183,121 183,121 183,121 183,121 183,121 182,121 182,121 181,121 181,121 181,121 180,121 180,121 180,121 180,121 180,121 180,121 179,121 179,121 179,121 178,121 178,121 178,121 178,121 178,121 178,121 178,121 177,121 177,122 177,122 177,122 176,122 176,122 176,122 176,122 176,122 176,122 176,122 176,122 176,122 175,122 175,122 175,122 175,122 175,122 175,122 175,122 175,122 175,122 174,122 174,122 174,123 174,123 174,123 174,123 174,123 174,123 174,123 173,123 173,123 173,123 173,123 173,123 173,123 173,123 172,123 172,123 172,123 172,123 172,124 172,124 172,124 172,124 171,124 171,124 170,124 170,124 170,124 170,124 170,124 169,124 169,124 169,124 169,124 169,124 169,124 169,124 169,124 169,125 169,125 168,125 168,125 168,125 168,125 168,125 168,125 168,125 168,125 168,125 167,125 167,126 167,126 167,126 167,126 166,126 166,126 166,126 166,126 166,126 166,126 166,126 166,126 165,126 165,126 165,126 165,127 165,127 165,127 165,127 165,127 164,127 164,127 164,127 164,126 163,126 163,126 163,126 163,126 163,126 163,126 163,126 163,126 163,126 163,126 162,126 162,126 162,126 162,126 162,127 162,126 162,126 162,126 162,126 162,126 162,126 162,126 162,127 162,127 162,127 162,126 162,126 162,126 162,127 162,127 162,127 162,127 162,127 162,127 162,127 161,127 161,127 161,127 161,127 161,127 161,127 161,127 161,127 161,127 161,127 161,127 161,127 161,127 161,127 160,127 160,127 160,127 160,127 160,127 160,127 160,127 160,127 160,127 160,127 160,127 160,127 160,127 159,127 159,127 159,127 159,128 159,128 159,127 159,127 159,127 159,127 159,128 159,128 159,128 159,128 159,128 159,128 159,128 159,128 159,128 158,128 158,128 158,128 158,128 158,128 158,128 158,128 158,128 157,128 157,129 157,129 157,129 157,129 157,129 157,129 157,129 157,129 157,129 157,129 157,129 157,129 157,130 157,130 157,130 157,130 157,130 156,130 156,130 156,130 156,130 156,130 155,130 155,130 155,130 155,130 155,130 155,130 155,130 154,130 154,130 154,130 153,130 153,130 152,130 152,130 152,130 151,131 151,131 150,131 150,131 150,131 149,131 149,131 148,131 148,131 148,131 148,131 147,131 147,131 147,131 147,131 147,131 146,131 146,131 146,131 146,131 146,131 146,131 146,131 145,131 145,131 145,131 145,132 144,132 144,132 144,132 143,132 143,132 143,132 143,132 143,132 143,132 143,132 143,132 143,132 142,132 142,132 142,132 142,132 141,132 141,132 141,132 141,132 141,132 141,133 141,133 141,133 141,133 140,133 140,133 140,133 140,133 140,133 140,133 140,133 140,133 140,133 140,134 140,134 140,134 139,134 139,134 139,134 139,134 140,134 139,134 139,134 139,134 139,135 139,135 138,135 138,135 137,135 137,135 137,135 136,136 136,136 136,136 136,136 136,136 136,136 136,136 136,136 136,136 136,136 136,136 135,136 136,136 136,137 136,137 136,137 136,137 136,137 136,137 137,137 137,137 137,137 137,137 137,137 137,137 137,137 138,138 138,138 138,138 138,138 138,138 138,138 138,138 138,138 139,138 139,138 139,138 139,138 139,138 139,138 139,138 139,139 139,139 139,139 139,139 139,139 139,139 139,139 138,139 138,139 138,139 138,139 138,140 138,140 138,140 138,140 138,140 138,140 138,140 138,140 137,140 137,140 137,140 137,140 137,140 136,140 136,140 136,141 136,141 135,141 135,141 135,141 135,142 135,142 135,142 135,142 135,142 135,142 135,141 135,141 135,141 135,141 134,141 134,142 134,142 134,142 134,142 134,142 134,142 135,142 135,142 135,142 135,142 135,142 135,143 134,143 134,143 134,143 134,143 134,143 133,143 133,143 133,143 133,143 133,143 133,144 133,144 134,144 134,144 134,144 133,144 133,144 133,144 133,144 133,144 133,144 133,145 133,145 133,145 133,145 133,145 132,145 132,145 132,145 132,145 132,145 132,145 132,145 132,145 131,145 131,146 131,146 131,146 131,146 130,146 130,146 130,147 130,147 129,147 129,147 129,147 129,147 129,147 129,147 129,147 129,147 128,148 128,148 128,148 127,148 127,148 127,149 126,149 126,149 126,149 126,149 125,149 125,149 125,149 125,149 125,149 125,149 125,149 124,149 123,149 123,149 123,149 122,150 122,150 121,150 121,150 121,150 121,150 121,150 121,150 121,150 121,151 121,151 121,151 121,151 121,151 121,151 121,151 121,151 120,151 120,151 120,151 120,151 120,151 120,151 120,151 120,152 119,152 119,152 118,152 118,152 118,152 118,152 118,152 118,152 118,152 118,153 118,153 118,153 119,153 119,153 119,153 119,154 119,154 119,154 119,154 119,154 119,155 119,155 119,155 118,156 118,156 118,156 118,156 118,156 118,156 118,156 118,156 118,156 118,156 118,156 117,156 117,156 117,156 117,156 117,156 117,156 117,156 116,156 116,156 116,156 116,156 117,156 117,156 117,156 116,155 116,155 116,155 116,155 115,155 115,155 115,155 115,155 115,155 114,155 114,155 114,155 114,155 114,155 113,155 113,155 113,155 113,155 113,155 113,155 113,155 113,155 113,155 113,155 113,155 112,155 112,155 112,155 111,155 111,155 111,155 111,155 110,155 110,154 110,154 109,154 109,154 109,155 109,155 109,155 109,155 109,155 109,155 109,155 108,156 108,156 108,156 108,156 108,156 108,156 109,156 110,157 110,157 110,157 111,158 111,158 111,158 111,158 111,158 111,159 111,159 111,159 111,159 111,159 111,159 111,159 110,159 110,159 110,160 110,160 110,160 110,160 110,160 109,161 109,161 110,161 110,161 110,161 110,162 110,162 110,162 110,162 110,162 110,162 109,162 109,162 108,162 108,162 108,162 107,162 107,162 106,162 106,162 105,162 105,162 105,162 105,162 105,163 105,163 105,163 105,164 105,164 105,164 106,164 106,164 106,164 106,164 106,164 106,164 106,164 106,165 106,165 106,165 105,165 105,165 105,165 105,165 106,165 106,165 106,165 106,165 106,166 106,166 106,166 106,166 106,166 106,166 106,166 106,166 106,166 106,166 106,167 106,167 105,167 105,167 105,167 104,167 104,167 104,167 103,167 103,167 103,167 102,167 102,167 102,166 101,166 101,166 101,166 100,166 100,166 100,166 98,166 97,166 97,166 97,166 97,166 97,166 97,166 97,166 97,166 97,166 97,166 97,166 96,166 96,166 96,166 96,166 96,166 96,166 96,166 96,166 95,166 95,166 95,166 95,166 94,166 94,166 94,166 94,166 93,165 93,165 93,165 92,165 92,165 92,166 92,166 92,166 92,166 92,166 91,166 91,166 91,166 91,166 91,166 90,166 90,166 90,166 90,166 90,166 90,166 90,166 90,166 90,166 90,166 90,166 90,166 90,166 89,166 89,166 89,167 89,167 89,167 89,167 89,167 89,167 89,167 89,167 89,167 89,167 89,167 89,167 89,167 89,167 89,167 89,167 89,167 90,167 90,167 90,167 91,167 91,167 91,167 91,168 91,168 92,168 92,168 92,168 93,168 93,168 93,169 93,169 93,169 93,169 93,169 93,169 93,170 93,170 93,170 93,170 94,170 94,170 94,170 94,170 94,170 96,171 96,171 96,171 97,171 97,171 97,171 97,171 97,171 97,171 97,171 98,171 98,171 98,172 99,172 99,172 100,172 100,172 100,172 100,172 100,172 100,172 100,172 101,172 101,172 102,173 102,172 102,172 102,173 102,173 102,173 102,173 102,172 102,172 103,172 103,172 103,172 103,172 103,172 103,172 103,172 103,172 104,172 104,172 104,172 104,172 105,171 105,171 105,171 105,171 105,171 105,171 105,171 106,171 106,171 106,171 106,171 107,170 107,170 107,170 107,170 107,170 107,170 107,169 107,169 107,169 107,169 107,169 108,169 108,169 108,169 108,169 108,169 108,169 108,169 108,169 108,169 108,169 108,169 108,169 108,169 108,169 108,169 109,169 109,169 109,170 109,170 109,170 110,170 110,170 110,170 110,170 110,170 110,170 111,170 111,170 112,171 113,171 113,171 114,171 115,171 116,171 116,171 116,172 116,172 117,172 117,172 118,172 118,173 119,173 119,173 119,173 119,173 121,175 122,175 123,175 123,175 123,175 125,175 125,175 125,175 125,175 125,176 125,176 127,175 127,175 128,175 128,175 129,175 130,176 130,176 131,176 133,177 133,177 136,177 136,177 139,177 140,177 142,178 142,178 142,178 142,177 142,177 142,177 143,177 143,177 144,177 144,177 145,178 145,178 147,178 148,178 149,178 150,178 152,179 153,179 153,179 153,179 153,179 153,179 152,179 152,179 152,180 152,180 152,180 152,180 152,181 151,182 151,182 151,182 151,183 150,183 150,183 150,183 150,183 150,183 149,183 149,183 149,184 149,184 148,184 148,184 148,184 148,184 148,184 148,184 148,185 148,185 148,185 147,185 147,186 147,186 146,186 146,186 146,186 146,187 146,188 146,188 146,188 146,188 146,188 146,189 146,189 146,190 146,190 146,190 146,190 145,191 145,191 145,192 145,192 145,192 145,192 145,192 145,193 145,193 145,193 145,193 144,193 144,194 144,195 144,195 144,195 144,195 144,195 144,196 143,196 143,196 143,197 143,197 143,197 143,197 142,198 142,198 142,199 142,199 142,199 142,199 142,199 141,199 141,199 141,199 141,199 141,200 140,200 140,200 140,200 139,201 139,201 139,201 139,201 138,201 138,201 137,202 137,202 137,202 136,202 136,202 136,202 136,202 136,203 136,203 135,203 135,203 135,203 135,203 136,204 136,204 136,204 135,205 135,205 134,204 133,204 133,204 133,204 132,204 132,204 132,204 131,204 130,203 129,202 128,202 128,202 127,202 127,202 125,202 124,202 124,202 124,202 123,203 122,203 122,203 121,203 121,203 120,203 120,203 119,203 117,202 117,202 117,202 117,202 117,202 116,202 115,202 115,202 114,202 112,202 111,202 111,202 111,202 111,202 111,202 111,202 107,201 107,201 108,200 108,200 105,200 105,200 105,200 105,200 105,200 103,200 103,200 102,200 100,200 100,200 99,199 99,199 99,199 99,199 96,199 96,199 96,199 96,199 96,199 96,198 95,198 95,197 95,197 95,197 95,197 95,197 95,197 94,198 94,198 93,198 93,198 93,198 93,198 93,198 93,198 93,198 92,198 92,198 92,198 92,198 91,198 91,198 91,198 91,198 91,198 91,198 91,197 91,197 91,197 91,197 91,197 91,197 91,197 90,197 90,197 90,197 90,197 90,197 89,197 89,197 89,197 89,197 88,198 88,198 88,198 88,198 87,198 87,198 87,198 87,197 86,197 86,197 85,197 85,197 85,197 84,197 84,197 84,197 83,197 83,197 83,197 83,197 83,198 83,198 82,199 82,199 79,198 79,198 78,198 77,198 75,197 74,197 71,195 71,195 71,194 70,194 70,194 70,194 70,194 70,193 69,193 69,192 68,192 68,192 68,192 62,191 62,191 61,191 59,190 59,190 57,191 57,191 56,191 56,191 56,191 56,191 55,191 55,191 55,191 55,191 55,191 56,191 56,191 56,192 56,192 56,192 56,192 56,192 56,192 56,192 56,192 55,192 55,192 55,192 55,192 55,192 55,192 55,192 54,192 54,192 54,192 54,192 54,192 54,192 54,192 53,192 53,192 53,192 53,192 53,192 53,192 53,192 53,192 53,192 53,192 53,192 52,192 52,192 52,192 52,192 52,192 52,192 52,192 51,192 51,192 51,192 51,192 51,192 51,192 50,192 50,192 49,192 49,192 49,192 49,192 49,192 49,192 48,193 48,193 48,193 48,193 48,193 48,193 48,193 48,193 48,193 47,193 47,193 47,193 47,194 47,194 47,194 47,194 47,194 47,194 47,194 47,194 47,194 47,194 47,195 47,195 47,195 47,195 47,195 47,195 46,195 46,196 46,196 46,196 46,196 46,196 46,196 46,196 46,196 46,196 46,196 46,197 46,197 46,197 46,197 46,197 46,197 45,197 45,197 45,197 45,197 45,197 44,197 44,197 44,197 44,197 44,197 43,197 43,197 44,198 44,198 44,198 44,198 43,198 43,198 43,198 43,198 43,198 43,198 43,198 42,198 42,198 42,198 42,198 42,198 42,198 42,198 42,198 42,198 41,198 41,198 41,198 41,198 41,198 41,198 41,198 41,198 41,198 41,199 41,199 40,199 40,199 40,199 40,199 40,199 40,199 40,199 39,199 39,199 39,199 39,199 38,199 38,199 38,199 38,199 38,199 38,199 38,199 38,199 38,199 38,199 38,199 38,200 38,200 38,200 37,200 37,200 37,200 37,200 37,200 36,200 36,200 36,200 36,200 36,200 36,200 36,200 36,200 36,200 36,200 36,200 35,200 35,200 35,200 35,200 35,200 34,200 34,200 34,200 34,200 34,200 33,200 33,200 33,201 33,201 33,201 33,201 33,201 33,201 33,201 32,201 32,201 32,201 32,201 32,201 32,201 32,201 32,201 32,201 32,201 32,201 32,201 32,201 32,202 32,202 32,202 32,202 31,202 31,202 31,202 31,202 31,202 31,202 31,202 31,202 31,202 31,203 31,203 31,203 31,203 31,203 31,203 31,203 30,203 30,203 30,203 30,203 30,203 30,203 30,203 30,203 29,204 29,204 29,204 28,204 28,204 28,204 28,204 28,204 28,204 28,204 28,204 28,204 27,204 27,204 27,204 26,204 26,204 26,204 26,204 26,204 25,204 25,204 25,204 25,204 24,204 24,204 24,204 24,204 24,204 23,204 23,204 23,204 23,204 23,204 22,204 22,204 22,204 22,204 22,205 21,205 21,205 21,205 21,205 21,205 21,205 21,205 21,206 21,206 21,206 21,206 21,206 21,206 21,206 20,206 20,206 20,206 20,206 20,207 20,207 20,207 20,207 20,207 20,207 20,207 20,207 20,207 20,207 20,207 20,207 20,207 20,207 20,207 20,207 19,207 19,208 19,208 19,208 19,208 19,208 19,208 19,208 19,208 19,209 19,209 19,209 19,209 19,209 18,209 18,209 18,209 18,209 18,209 18,209 18,209 18,209 18,209 18,209 18,209 18,209 18,210 18,210 18,210 18,210 18,210 18,210 18,210 17,209 17,209 17,209 17,209 17,210 17,210 17,210 17,210 17,210 17,210 17,210 17,210 17,210 16,210 16,209 16,209 16,209 16,209 16,209 16,209 16,209 16,209 16,209 16,209 16,209 16,209 16,209 16,208 16,208 15,208 15,208 14,208 14,208 14,208 14,209 14,208 14,208 14,208 14,208 14,208 14,208 14,208 14,208 14,208 14,207 14,207 14,207 14,207 13,207 13,207 12,207 12,207 12,207 12,207 12,207 11,207 11,207 11,207 11,207 11,207 11,206 11,206 11,206 11,206 11,206 11,206 10,207 10,207 10,207 10,207 10,207 10,207 10,207 9,207 9,207 9,207 9,207 9,207 8,207 8,207 8,207 8,207 8,207 8,207 8,208 8,208 8,208 8,208 8,208 7,208 7,208 7,208 7,208 7,209 7,209 7,209 7,209 6,209 6,209 6,209 5,209 5,209 5,209 5,209 4,209 4,209 4,209 4,209 4,209 4,209 4,209 4,209 4,209 4,209 4,209 4,209 4,209 4,209 4,209 3,209 3,209 3,209 3,209 2,210 2,210 2,210 1,210 1,210 1,210 1,209 0,209 0,208 0,206 0,206 0,206 0,206 1,206 1,205 1,205 2,205 2,205 2,205 2,204 3,203 3,203 3,203 4,202 4,202 5,202 5,202 5,202 7,202 7,202 7,202 9,201 9,201 9,201 9,201 10,201 10,201 11,201 11,201 12,201 12,200 13,200 13,200 13,200 14,199 14,199 15,198 16,198 16,197 16,197 16,197 17,197 17,197 17,197 18,197 18,196 18,196 18,196 18,196 18,196 18,196 18,195 18,195 18,195 17,195 17,194 17,194 17,194 17,194 17,194 16,194 16,194 16,193 16,193 16,193 16,193 15,192 15,192 15,192 15,192 15,191 15,191 14,191 14,191 14,190 13,190 13,190 13,190 13,189 13,189 13,189 14,189 14,189 14,189 13,189 13,188 14,188 14,188 14,188 14,187 14,187 13,186 13,186 13,186 13,185 13,185 13,185 13,184 13,184 13,184 13,184 13,183 13,180 14,179 14,179 14,179 13,177 13,177 13,176 12,176 11,175 11,175 11,175 11,175 11,175 9,175 9,175 9,175 9,175 9,175 9,175 9,175 9,175 9,175 8,174 7,174 7,174 7,174 7,174 6,174 6,174 6,173 6,173 6,173 6,173 6,173 6,173 6,173 6,173 5,173 5,173 6,172 6,171 6,171 6,171 6,170 7,170 7,170 7,170 7,170 7,170 8,169 8,169 8,169 8,169 8,169 8,169 8,169 9,169 9,169 9,169 9,169 9,169 9,168 9,168 9,168 9,168 9,168 9,168 9,168 9,168 9,168 10,168 10,168 10,168 9,168 9,168 9,168 10,167 10,167 10,167 10,167 10,167 10,167 10,167 10,167 10,167 10,167 10,167 10,167 10,167 10,167 10,167 10,166 10,166 11,166 11,166 11,166 11,166 11,166 11,166 11,166 12,166 12,166 12,166 12,166 12,166 12,166 12,166 12,166 12,166 12,166 12,165 12,165 12,165 12,165 12,165 12,165 12,165 12,165 12,165 12,165 12,165 12,165 13,164 13,164 12,164 12,164 13,164 13,164 13,164 13,164 13,164 13,164 13,164 13,164 13,164 13,163 13,163 13,163 13,163 13,163 13,163 13,163 13,163 13,163 13,163 13,163 13,163 13,163 13,163 13,163 13,163 13,162 13,162 13,162 13,162 13,162 14,162 14,162 14,162 13,162 13,162 13,162 13,162 13,162 13,161 13,161 13,161 13,161 13,161 13,161 13,161 13,161 13,161 13,161 13,161 13,161 13,161 13,161 13,161 13,161 13,161 13,161 14,160 14,160 13,160 13,160 13,160 13,160 13,160 13,160 13,160 13,160 13,159 13,159 13,159 13,159 13,159 13,159 13,159 13,159 13,159 13,159 13,159 13,158 13,158 13,158 12,158 12,158 12,158 12,158 13,158 12,158 12,158 12,158 12,158 12,158 12,158 12,158 12,158 12,158 12,158 12,158 12,158 12,157 12,157 12,157 12,157 12,157 12,157 12,157 12,157 12,157 12,157 12,156 12,156 12,156 12,156 12,156 12,156 12,156 11,156 11,156 11,156 11,156 11,156 11,156 11,156 11,156 11,156 10,156 10,156 10,155 10,155 10,155 10,155 10,155 10,155 10,155 10,155 11,155 11,154 11,154 11,154 11,154 11,154 11,154 11,154 11,154 11,154 11,154 11,154 11,154 11,154 11,154 11,153 11,153 11,153 11,153 11,153 11,153 11,153 11,153 11,153 11,153 11,153 11,153 11,153 11,153 11,153 11,153 11,153 11,152 11,152 11,152 11,152 11,152 11,152 11,152 11,152 11,152 11,152 11,152 11,152 12,152 12,152 12,152 12,152 12,152 12,152 12,152 12,152 12,152 12,152 12,152 12,152 12,151 12,151 12,151 12,151 12,151 12,151 12,151 12,151 12,151 12,151 12,151 12,151 12,150 12,150 12,150 13,150 13,150 13,150 14,150 14,149 14,149 14,149 14,149 14,149 14,149 14,148 14,148 14,148 14,148 14,148 14,146" id="8506" class="canton" fill="steelblue" stroke-width="1" stroke="white" geotype="canton" geoname="Herbiers" code_insee="8506" code_departement="85" nom_departement="Vende" code_region="52" nom_region="Pays de la Loire"/></svg>