<?xml version="1.0" encoding="utf-8"?>
<svg version="1.1" id="svgmap" xmlns="http://www.w3.org/2000/svg" xmlns:xlink="http://www.w3.org/1999/xlink" x="0px" y="0px" width="100%" height="100%" viewBox="0 0 500 299">
<polygon points="0,42 4,41 4,41 7,40 7,40 10,39 11,39 12,39 12,39 12,39 13,39 15,38 15,38 16,38 18,37 18,37 18,37 21,35 21,35 21,35 21,35 22,35 22,35 23,35 23,35 23,35 23,35 24,35 24,35 24,35 24,35 25,35 25,35 25,35 26,35 26,35 26,35 27,35 27,35 27,35 27,35 27,35 28,35 28,36 28,36 29,36 29,36 29,36 29,36 29,36 30,37 30,37 30,37 30,37 30,37 31,38 31,38 31,39 32,39 32,39 32,39 32,40 32,40 32,40 32,40 32,40 32,40 33,41 33,42 33,43 34,43 34,43 34,43 34,44 34,44 35,44 35,44 35,44 36,45 36,45 38,46 38,46 40,47 40,47 40,47 41,48 41,48 41,48 42,49 43,49 45,49 46,50 46,50 46,50 47,50 47,50 47,50 47,51 48,52 49,52 49,52 51,53 52,53 52,53 53,54 53,54 53,54 53,54 53,55 53,55 53,55 53,55 54,55 54,56 55,56 55,56 55,56 55,57 56,58 56,58 56,59 56,59 57,60 57,60 58,61 58,62 58,62 58,62 58,63 59,63 59,63 59,63 58,64 58,64 58,65 58,65 57,65 57,65 56,66 56,66 56,66 55,67 55,67 55,67 55,67 55,68 55,68 55,68 55,68 55,68 55,69 55,69 55,69 56,69 56,69 56,69 57,69 57,69 57,69 57,69 58,69 58,69 58,69 58,69 58,69 58,69 58,69 59,69 59,69 59,69 59,69 59,69 60,71 60,71 60,71 61,70 61,70 61,70 61,70 61,70 61,70 62,71 62,71 62,71 62,71 62,71 63,72 63,72 64,72 64,73 65,74 65,74 66,74 66,74 66,74 67,74 67,74 68,74 68,75 68,75 69,75 69,75 69,75 69,76 69,76 69,77 70,77 70,77 70,77 70,77 70,77 71,78 71,78 72,78 72,78 73,78 73,78 73,78 73,78 73,78 74,78 75,78 75,78 75,78 75,78 76,78 76,77 77,77 79,75 79,74 79,74 80,74 80,74 80,72 80,72 80,72 80,71 80,71 80,71 80,71 80,70 80,70 81,70 81,70 81,70 82,70 83,70 84,69 84,69 84,69 85,69 85,70 87,70 87,70 87,70 87,70 88,70 88,71 89,71 89,71 89,71 89,71 89,71 90,71 90,71 92,71 92,71 92,71 93,71 93,70 93,70 93,70 93,70 93,70 93,70 93,69 93,69 93,69 93,69 93,69 93,69 93,69 94,69 95,69 95,69 95,69 96,69 96,69 97,69 97,69 98,69 98,69 98,69 98,69 99,69 99,69 99,69 99,69 99,69 100,69 101,70 101,71 101,71 101,71 102,72 102,73 102,73 103,73 103,73 104,73 104,74 104,74 105,74 105,74 105,74 105,74 105,74 105,74 105,74 105,75 105,76 105,76 105,76 106,76 106,76 106,76 106,76 106,76 106,76 107,76 107,76 107,76 107,76 108,76 108,76 108,76 108,77 108,77 108,77 108,77 108,76 109,76 109,76 109,76 110,76 110,75 110,75 110,75 110,75 111,75 111,75 111,75 111,75 112,75 112,76 113,76 113,76 114,76 114,77 114,77 115,77 115,77 115,77 115,77 116,77 116,77 116,78 116,78 116,78 116,78 116,78 116,79 117,79 117,79 117,79 118,79 118,79 119,79 119,79 120,79 120,79 120,79 120,79 120,78 121,78 121,77 121,77 121,77 121,77 121,77 123,77 123,77 124,77 124,77 124,76 124,76 124,76 124,76 124,76 124,75 124,75 124,74 124,74 124,74 124,74 124,73 123,73 123,73 123,73 122,73 121,73 121,72 121,72 121,72 121,72 121,72 121,72 121,72 122,72 122,71 123,71 123,71 123,71 124,71 124,70 124,70 125,70 125,70 125,70 126,70 127,70 127,70 127,70 127,70 128,70 128,69 128,69 128,69 129,69 129,69 129,69 129,69 129,69 130,69 130,69 131,69 131,69 132,69 132,69 132,69 132,69 132,69 132,69 132,68 132,68 132,68 132,67 132,67 132,67 132,67 132,67 132,66 132,66 132,66 132,66 132,66 132,66 133,65 133,65 133,65 133,65 133,65 133,64 133,64 133,63 132,63 132,63 132,63 131,62 130,62 130,62 130,62 130,62 130,61 130,61 130,60 130,60 130,60 130,60 130,60 131,59 131,59 131,59 131,59 131,58 131,58 131,58 131,58 131,58 130,57 130,57 130,57 130,57 130,56 130,56 130,56 130,56 130,56 130,56 130,56 130,55 130,55 130,55 129,54 129,54 128,54 128,53 127,53 127,53 127,53 127,53 127,53 126,52 126,51 126,51 125,51 125,51 125,51 125,51 125,51 125,51 124,51 123,51 123,51 122,51 122,51 122,51 122,51 122,51 122,51 122,51 121,50 120,50 120,49 119,48 119,48 119,48 119,48 119,48 119,48 119,47 120,46 120,46 119,46 119,46 119,46 119,46 118,46 118,46 117,46 117,45 117,45 116,45 116,45 115,45 115,45 115,45 115,45 115,45 114,45 113,45 113,45 113,45 112,45 112,45 112,45 112,45 112,45 111,45 111,45 111,44 111,44 111,44 110,44 110,44 110,43 109,43 109,43 109,43 109,43 110,43 110,42 110,42 110,42 109,42 109,42 108,42 108,41 108,41 108,41 108,40 108,40 107,40 107,40 107,39 107,39 107,39 107,39 107,38 107,38 107,38 107,38 106,37 106,37 106,37 106,37 106,36 106,36 106,35 106,35 106,35 106,35 106,35 106,35 106,35 106,35 106,34 106,34 106,34 106,34 106,33 106,33 108,33 108,33 108,33 108,33 108,32 107,32 107,32 107,32 107,32 106,32 106,31 105,31 105,31 105,31 105,31 105,30 105,30 105,29 105,29 105,29 105,29 106,28 106,28 106,28 106,28 105,28 105,28 104,28 104,28 104,28 103,28 103,28 102,28 102,27 102,27 101,27 101,27 101,27 101,27 101,27 100,27 100,27 100,27 100,27 99,27 99,27 99,27 99,26 98,25 98,25 98,24 98,24 98,24 98,23 98,23 98,23 98,23 99,22 99,22 99,22 100,22 100,22 100,21 100,21 100,21 101,20 101,20 101,20 101,20 101,20 102,20 102,19 103,19 103,19 103,19 103,19 104,19 104,19 104,19 104,19 104,20 105,20 105,20 105,20 106,21 107,21 107,21 107,21 107,21 108,21 108,21 108,21 109,21 110,20 111,19 112,19 112,19 112,19 112,18 111,18 111,18 111,18 111,17 111,17 111,17 111,17 111,17 111,17 112,16 112,16 112,16 112,16 112,16 113,17 113,17 113,17 114,17 114,17 114,17 115,17 115,17 115,17 116,17 116,17 116,17 116,17 117,18 117,18 117,18 117,19 117,19 118,19 118,19 118,19 118,18 119,18 119,18 120,18 120,17 121,17 121,17 121,16 121,16 121,16 122,16 122,16 122,16 121,16 121,15 121,15 120,15 120,14 120,14 121,14 121,14 121,14 121,14 121,14 122,14 122,14 122,14 123,14 124,14 124,14 125,14 125,14 125,14 125,14 126,14 126,13 126,13 126,12 126,12 126,12 126,12 126,12 126,12 126,11 126,11 126,11 125,11 125,11 125,11 125,11 125,11 125,10 125,10 125,10 125,10 125,10 125,10 126,9 126,9 126,9 127,9 128,9 128,9 128,9 128,9 129,9 129,9 129,9 129,9 129,9 130,9 131,10 131,10 131,10 131,10 131,11 132,12 132,12 132,12 132,12 132,13 133,13 133,13 133,13 134,13 134,13 134,13 135,13 135,13 135,13 135,13 135,13 135,13 136,14 136,14 136,14 136,14 136,14 137,14 137,14 137,14 137,14 136,15 136,15 136,15 136,15 136,17 136,17 136,17 136,17 136,18 136,18 136,19 136,19 135,19 134,20 133,20 132,21 132,21 132,21 131,22 131,22 131,22 131,22 131,23 131,23 131,23 131,24 131,25 131,25 131,26 131,26 131,27 131,27 132,27 132,28 132,28 132,28 132,28 132,28 133,29 133,29 133,29 134,29 135,29 135,29 135,29 135,30 136,30 136,30 136,30 136,29 137,29 137,29 137,29 137,29 138,29 138,28 138,28 138,28 139,28 139,28 139,28 139,28 140,28 140,28 140,28 141,28 141,28 141,28 141,28 142,28 142,28 142,28 142,28 142,28 142,28 143,27 143,27 144,27 144,26 144,26 144,26 144,26 144,26 145,26 145,26 145,25 146,25 147,26 148,26 149,26 149,26 150,26 151,26 151,27 151,27 152,27 152,27 152,28 153,28 153,28 153,28 153,28 153,28 154,28 155,28 155,28 156,28 156,28 156,28 157,28 157,28 157,28 157,29 158,29 158,29 158,29 158,29 158,29 158,29 158,29 158,30 158,30 158,30 158,31 158,31 157,32 157,32 157,33 157,33 157,33 157,33 158,33 158,33 158,33 159,34 159,34 159,34 160,35 160,35 160,35 161,36 162,36 162,36 162,36 162,36 162,37 162,37 162,38 162,38 162,39 163,40 163,40 163,41 163,41 163,41 163,41 163,41 167,44 167,44 167,44 167,44 167,44 167,45 167,45 168,46 169,49 170,50 170,51 170,51 170,51 171,52 171,52 171,53 172,54 172,54 171,54 171,54 171,54 171,55 171,55 171,55 171,56 171,56 171,56 172,57 172,57 173,57 174,57 174,58 174,58 175,58 176,59 176,59 176,59 177,59 178,59 178,60 178,60 179,60 179,60 180,60 180,61 181,61 181,61 181,61 182,61 182,61 181,61 181,61 181,61 182,62 182,62 182,62 182,62 183,62 183,62 183,62 184,62 184,62 184,62 184,62 184,62 184,62 186,63 186,63 187,63 187,63 187,63 187,64 187,64 187,64 188,64 188,64 188,64 189,64 190,64 191,64 192,64 192,64 192,64 193,64 193,65 193,65 194,66 194,66 194,66 195,67 196,68 196,69 196,69 197,69 197,69 197,70 197,70 197,70 197,71 197,71 197,71 197,72 197,72 197,72 197,73 197,73 197,73 197,73 197,73 197,73 197,73 197,73 199,76 199,76 199,76 198,76 198,76 197,76 197,76 197,76 197,76 196,76 196,76 196,76 196,76 195,76 195,76 195,77 195,77 195,77 195,77 195,77 194,77 193,77 193,78 192,78 192,78 192,78 192,78 191,80 191,80 190,80 190,80 190,80 190,81 190,81 190,81 190,81 190,81 190,81 190,81 190,82 190,82 190,82 190,82 190,83 190,83 190,83 190,83 190,83 189,83 189,83 189,84 189,84 189,86 189,86 189,86 189,86 189,86 189,86 189,86 189,87 190,87 190,87 190,87 190,87 190,87 190,87 190,87 191,88 191,88 191,88 191,88 192,88 192,89 192,89 192,88 193,88 193,88 193,88 193,88 194,89 194,89 196,90 196,90 196,90 196,90 197,90 197,90 198,90 198,91 198,91 198,91 198,91 199,91 199,90 199,90 199,90 199,91 199,91 199,91 199,91 199,91 199,91 198,91 198,92 198,92 198,92 198,92 199,92 200,92 201,92 201,92 201,92 202,92 202,92 202,92 203,92 203,92 203,92 203,92 203,92 204,92 204,92 205,92 205,92 205,92 206,92 207,92 207,92 208,92 208,92 208,92 208,92 207,93 207,93 207,93 207,93 207,93 207,93 207,93 208,94 208,95 208,95 208,95 208,95 209,95 210,95 210,95 210,95 210,94 210,94 210,94 210,94 210,94 210,94 211,94 211,94 211,94 211,94 211,93 211,93 211,94 212,94 212,94 212,94 212,94 212,94 212,94 212,94 212,94 213,94 212,94 212,94 212,93 211,92 211,92 211,92 211,92 211,92 211,92 211,92 212,92 212,93 212,93 212,93 212,93 213,93 213,93 213,93 213,93 213,93 214,94 214,94 214,94 214,94 215,94 215,94 215,94 215,94 215,94 216,95 216,95 216,95 216,95 216,95 216,95 216,95 216,95 216,95 216,95 215,95 215,95 215,95 215,95 215,95 216,95 216,95 216,96 216,95 216,95 216,95 216,95 216,95 216,96 216,96 217,96 217,96 217,96 217,96 217,96 217,96 217,96 217,97 217,97 217,97 217,97 217,97 217,97 218,97 218,97 218,97 218,97 218,97 218,97 218,97 218,97 218,97 218,97 218,98 218,98 218,98 218,98 217,97 217,97 217,98 217,98 217,98 217,98 216,99 215,99 215,100 214,101 214,101 214,101 215,102 215,103 216,103 216,103 216,104 216,105 216,105 217,105 217,105 217,105 217,105 217,105 217,105 217,105 218,105 218,105 218,104 218,104 218,104 219,103 219,102 219,101 219,101 220,101 220,101 220,101 220,101 220,100 221,100 221,100 222,100 222,100 222,100 223,100 223,100 223,100 223,100 223,99 223,99 223,99 223,99 223,99 223,98 223,98 223,98 223,98 223,98 222,98 221,98 220,98 219,98 219,98 219,98 219,98 219,97 219,97 219,97 220,96 220,96 221,96 221,95 221,95 221,94 221,94 221,94 221,93 221,93 221,93 221,93 221,93 221,93 222,93 222,93 222,93 222,93 222,94 223,95 223,95 223,95 223,95 224,95 224,95 224,96 225,96 225,96 225,96 226,96 226,96 226,96 226,97 226,97 226,97 226,97 226,97 227,97 228,97 228,97 229,97 229,97 229,97 230,97 230,96 230,96 231,96 231,96 232,96 232,96 233,96 233,96 233,96 234,96 234,96 234,96 234,96 234,96 234,96 235,96 235,96 235,96 235,96 236,96 236,95 236,95 236,95 236,95 236,95 237,94 237,94 237,94 237,94 237,93 237,93 237,93 237,93 238,93 238,93 238,94 239,95 240,95 240,95 240,95 240,95 240,95 240,96 240,96 240,96 240,96 240,96 240,96 239,97 239,97 239,97 239,97 240,97 241,97 241,97 241,97 241,98 242,98 243,98 243,98 244,98 244,98 245,98 245,98 245,98 245,98 246,98 247,98 247,98 247,98 247,98 247,98 248,97 249,97 249,96 249,96 250,96 250,95 250,95 251,95 251,95 251,95 251,95 251,95 252,95 253,96 253,96 253,96 254,96 254,96 254,96 254,96 255,96 255,96 255,96 256,96 255,96 255,95 255,95 255,94 255,94 257,94 258,94 258,94 258,92 258,89 258,88 258,88 259,84 259,81 260,81 261,78 261,78 261,77 261,77 261,77 261,76 261,75 260,73 260,73 260,73 260,73 260,73 259,71 259,68 258,66 257,63 256,61 256,61 256,61 256,60 256,60 256,59 255,55 255,54 255,52 254,48 254,47 254,46 254,46 254,45 253,44 253,43 252,41 252,41 252,39 252,39 252,39 251,39 252,39 251,39 251,39 251,39 251,39 251,39 251,39 251,39 251,39 251,38 251,38 251,38 251,37 252,36 253,36 253,36 253,36 253,36 254,36 254,36 255,36 255,36 255,36 256,36 256,36 257,36 258,36 259,36 259,36 259,36 259,36 260,36 260,36 261,36 261,34 261,33 261,32 261,32 261,32 261,31 261,31 261,31 262,31 262,30 262,30 262,30 263,30 263,30 263,30 264,29 264,29 266,25 266,25 266,24 266,24 266,24 266,24 266,24 265,23 265,23 265,22 265,22 265,22 265,22 265,22 265,22 265,21 265,21 265,20 265,20 265,20 265,20 264,20 264,20 265,20 265,20 265,19 265,19 265,19 265,19 265,19 265,19 265,19 265,19 266,19 266,19 266,19 266,19 266,19 267,19 267,19 267,19 267,19 267,19 267,19 267,19 268,19 268,19 268,19 268,18 268,18 268,18 268,18 268,18 269,18 269,18 269,18 269,18 269,18 269,18 269,18 269,18 269,18 269,18 270,18 270,18 270,18 270,18 270,18 270,18 270,18 270,18 270,18 270,18 270,18 271,18 271,18 271,18 271,18 271,18 271,18 271,18 271,18 271,18 271,18 271,18 272,18 272,18 272,18 272,18 272,18 272,18 273,18 273,18 273,18 273,18 274,18 274,18 275,19 275,19 275,19 275,19 275,19 275,19 276,19 276,19 276,19 276,19 276,19 276,19 276,19 276,19 276,19 276,19 276,18 277,18 277,18 277,19 278,19 278,19 278,19 278,19 278,19 278,19 278,19 278,19 278,19 278,19 278,19 279,19 279,19 279,19 279,19 279,19 279,20 280,20 280,20 280,20 280,20 280,20 280,20 281,20 281,20 281,20 281,20 281,20 281,20 281,20 281,20 281,20 281,21 281,21 281,21 281,21 282,21 282,21 282,21 282,21 282,21 282,21 282,21 282,21 283,21 283,21 283,21 283,21 283,21 283,21 283,21 284,21 284,21 284,21 284,21 284,21 285,21 285,21 285,21 285,21 285,21 285,21 286,21 286,20 286,21 286,21 286,20 287,20 287,20 287,20 287,20 287,20 287,20 287,20 286,20 286,20 286,20 286,20 286,20 287,20 287,20 287,20 287,20 287,20 287,20 287,19 287,19 287,19 287,19 287,19 287,19 287,19 287,18 287,18 287,18 287,18 287,18 288,18 288,18 288,18 288,18 289,18 289,18 289,18 289,18 290,18 290,17 290,17 290,17 290,17 290,17 290,17 290,17 290,17 290,17 290,17 290,17 290,17 290,17 290,16 290,16 290,16 290,16 290,16 290,16 290,16 290,16 291,16 291,16 291,15 291,15 291,15 291,15 291,15 291,15 291,15 292,15 292,15 292,15 292,15 292,15 292,15 292,15 292,15 292,15 292,15 293,15 293,15 293,15 293,15 293,15 293,15 293,15 293,15 293,15 294,15 294,15 294,15 294,15 294,15 294,15 294,15 294,15 294,15 295,15 295,15 295,15 295,15 295,15 295,15 295,15 295,15 295,15 295,15 295,15 295,15 295,15 295,15 295,15 295,15 295,15 296,16 296,16 296,16 297,16 297,16 297,16 297,16 297,16 298,16 298,16 298,17 298,17 298,17 298,17 298,17 298,17 298,17 299,17 299,17 299,17 299,17 299,17 299,17 299,17 300,17 300,17 300,17 300,17 300,17 300,17 300,17 300,17 300,17 300,18 300,18 300,18 300,18 300,18 300,18 300,18 300,18 300,18 300,18 300,18 301,18 301,18 301,18 301,18 301,18 301,18 301,18 302,18 302,18 302,18 302,18 302,18 302,18 303,18 303,18 303,18 303,18 303,18 303,18 303,18 303,18 303,18 303,18 303,18 303,18 303,19 303,19 303,19 303,19 303,19 303,19 303,19 303,19 303,19 303,19 303,19 303,19 303,19 303,19 303,19 303,19 304,19 304,19 304,19 304,19 304,19 304,19 304,19 305,19 305,19 305,19 305,19 305,19 305,19 305,19 305,19 305,19 305,19 305,19 305,19 305,19 305,19 305,19 305,19 306,19 306,19 306,19 306,19 306,19 306,19 306,19 306,19 306,19 306,19 306,19 306,19 307,19 307,19 307,19 307,19 307,19 307,19 307,19 307,19 308,19 308,19 308,19 308,19 308,19 308,19 308,19 309,19 309,19 309,19 309,19 309,19 309,19 309,19 309,19 309,19 310,19 310,19 311,19 311,19 311,19 311,19 311,19 311,19 311,19 311,19 311,19 312,19 312,19 312,19 313,20 313,20 313,20 313,20 314,20 314,20 314,20 314,20 314,20 314,20 315,20 315,20 315,20 315,21 315,21 315,20 316,20 316,20 316,20 316,20 316,20 317,20 317,20 317,19 317,19 317,19 317,19 317,19 317,19 318,19 318,19 318,18 318,18 318,18 318,18 319,18 319,18 319,18 320,18 320,18 320,18 321,18 321,18 321,18 321,18 321,18 321,18 321,18 321,18 321,18 321,18 322,18 322,18 322,18 322,18 323,18 323,18 323,18 323,18 323,17 323,17 324,17 324,17 324,18 324,18 324,18 324,18 324,18 324,17 324,17 324,17 324,17 325,18 325,18 325,18 326,18 326,18 326,18 326,18 326,17 326,17 326,17 327,17 327,17 327,17 327,18 327,18 327,18 327,18 327,17 328,18 328,17 328,17 328,17 328,17 329,17 329,17 329,18 329,18 329,18 329,18 329,18 329,18 330,18 330,18 330,17 330,17 331,17 331,17 331,17 331,17 331,17 331,16 331,16 331,16 331,16 331,15 331,15 330,15 330,15 330,15 330,15 330,15 330,15 330,15 330,14 330,14 330,14 330,14 330,14 330,14 330,14 330,14 331,14 331,13 331,13 331,14 332,14 332,14 332,14 333,14 333,14 333,14 334,14 335,14 335,15 335,14 336,14 336,15 336,15 336,15 337,15 337,14 337,14 337,14 337,14 337,14 337,14 337,13 337,13 337,12 337,12 337,12 337,12 337,12 337,12 337,12 337,11 338,11 338,11 338,11 339,11 339,11 339,11 339,11 339,11 339,11 340,11 340,11 340,11 341,11 341,11 341,11 341,11 341,10 341,10 341,10 341,10 341,9 341,9 341,9 341,9 341,9 341,9 341,9 341,9 341,8 341,8 341,8 341,8 341,8 341,8 342,8 342,8 342,8 342,8 342,8 342,7 342,7 342,7 342,7 342,7 343,7 343,7 343,7 343,7 343,7 344,7 344,7 344,7 344,7 344,7 345,8 345,8 346,8 347,8 347,8 347,8 347,8 348,8 348,8 348,8 348,8 348,8 348,8 349,8 349,8 349,8 349,7 350,7 350,7 350,7 350,6 350,6 350,6 350,6 350,6 350,6 350,6 350,6 350,6 350,6 350,5 350,5 351,5 351,5 352,5 352,5 352,5 352,5 352,5 352,5 352,5 352,5 353,5 353,5 353,5 353,5 353,5 354,5 354,5 354,5 355,5 355,5 355,5 355,4 355,4 355,4 355,4 355,4 355,4 355,4 355,4 355,3 355,3 355,3 355,3 355,3 355,3 355,3 355,3 355,3 355,3 355,3 355,3 355,3 355,3 355,3 355,2 354,2 354,2 354,2 354,2 355,2 355,2 355,2 355,2 355,2 355,2 355,1 355,1 355,1 356,1 356,1 356,1 356,1 356,1 356,1 356,1 356,1 356,1 357,1 357,1 357,1 357,1 357,1 357,1 357,1 357,1 357,1 357,1 357,1 357,1 357,1 357,1 357,1 357,1 357,1 358,1 358,1 358,1 359,1 359,1 359,1 359,1 359,1 360,1 360,1 360,1 360,1 360,1 361,1 361,1 361,1 361,1 361,1 361,1 361,0 362,0 362,0 362,0 362,0 362,0 362,0 362,0 362,0 363,1 363,2 363,2 363,3 364,3 364,3 364,3 364,3 364,3 364,3 364,3 364,4 364,4 364,4 364,4 365,5 365,5 365,5 365,6 365,6 365,6 366,7 366,7 367,7 367,7 367,8 368,8 368,8 368,8 368,8 368,8 368,9 368,9 368,9 368,9 368,9 369,9 369,10 369,10 367,11 367,11 367,11 367,11 368,11 368,12 368,12 368,12 369,13 369,13 369,13 369,14 370,14 370,14 370,14 370,14 370,14 370,15 369,15 369,15 369,15 370,15 370,16 370,16 371,16 371,16 371,16 371,16 370,17 370,18 370,18 370,18 370,18 372,19 373,19 373,19 373,19 373,20 373,20 373,21 373,21 373,22 373,22 373,23 374,24 374,24 374,24 376,25 377,25 377,25 377,25 377,26 377,26 377,26 377,26 377,27 377,27 377,27 378,27 378,27 378,27 379,27 379,27 379,27 380,28 381,28 381,28 380,31 380,32 379,32 379,33 379,33 379,33 379,33 380,33 380,34 380,36 380,36 380,36 380,37 380,37 380,37 380,38 380,39 380,39 380,39 380,39 380,40 381,41 381,41 381,41 381,42 381,42 381,42 382,43 382,43 382,43 383,43 385,44 385,44 385,44 386,45 386,45 387,45 387,45 387,45 388,45 388,45 390,46 390,46 390,46 390,46 390,46 390,46 390,46 391,47 392,47 393,47 393,47 394,47 394,47 395,48 395,48 396,48 397,48 397,48 396,49 396,49 396,49 396,49 396,50 396,50 396,50 396,50 396,50 396,50 396,50 396,50 395,51 395,51 394,52 393,52 393,52 393,52 392,52 392,53 391,53 391,54 391,54 391,54 391,54 390,54 390,54 390,54 390,55 390,55 390,55 389,56 389,56 389,57 389,57 389,57 389,57 389,57 389,58 389,58 389,58 389,58 389,58 389,58 389,58 389,59 389,59 389,60 389,60 389,60 389,60 389,61 389,61 389,61 389,61 389,62 390,62 390,63 390,63 390,64 390,64 390,64 390,64 390,64 390,64 390,64 390,65 391,66 391,66 391,67 391,67 391,67 391,67 391,67 391,68 391,69 391,69 391,70 391,70 391,70 391,70 391,70 391,71 390,71 390,72 389,72 389,72 389,73 389,73 388,74 388,76 388,76 388,76 388,76 389,76 389,76 390,76 391,76 391,76 392,76 392,76 394,76 394,76 394,76 394,76 394,77 394,77 394,77 394,77 393,77 393,77 393,77 393,77 393,77 392,77 392,78 392,78 392,78 392,78 391,78 391,78 391,78 391,79 391,79 391,79 391,79 391,79 391,79 391,80 391,80 391,80 391,80 392,81 392,81 391,81 391,82 391,82 391,82 391,82 391,83 391,83 391,84 391,84 391,84 391,84 390,85 390,85 390,85 390,84 389,84 389,84 389,84 389,83 389,83 388,83 388,83 387,83 387,83 386,83 386,83 386,83 386,83 385,83 384,83 384,82 383,82 383,82 383,82 382,82 381,82 381,83 381,83 380,83 380,83 380,83 380,83 380,83 379,83 379,83 378,82 378,82 378,82 377,82 377,82 376,83 376,83 376,83 376,83 375,83 375,83 374,83 373,82 373,82 372,81 372,81 371,81 371,80 371,80 370,79 370,79 370,79 370,79 370,79 370,79 370,79 369,79 369,79 369,79 369,79 369,79 369,80 369,80 369,80 369,80 369,80 369,80 369,80 369,80 369,80 369,80 369,80 369,80 369,80 369,80 369,80 369,81 369,81 369,81 369,81 369,81 369,81 369,81 369,81 369,81 369,81 369,81 369,81 369,81 369,81 369,81 369,81 369,81 369,81 369,81 369,81 369,82 369,82 369,82 369,82 369,82 369,82 369,82 369,82 369,82 369,82 369,82 369,82 369,82 369,83 369,83 369,83 369,83 370,83 370,83 370,83 369,83 369,83 369,83 370,83 370,84 370,84 370,84 370,84 370,84 370,84 370,84 370,84 370,84 371,84 371,84 371,84 371,84 371,84 371,84 371,84 371,84 371,84 371,84 371,84 371,84 372,84 372,84 372,84 372,85 372,85 372,85 372,85 372,85 372,85 372,85 372,85 372,85 372,85 372,85 372,85 372,85 372,85 372,85 372,86 372,86 372,86 372,86 372,86 372,86 372,86 372,86 372,86 372,86 372,86 372,86 372,86 372,86 372,87 372,87 372,87 372,87 372,87 372,87 372,87 372,87 372,87 372,87 372,88 372,88 372,88 372,88 372,88 372,88 372,88 372,88 372,88 372,88 373,88 373,88 373,89 372,89 372,89 373,89 373,89 373,89 373,89 373,89 373,89 374,89 374,89 374,90 374,90 374,90 374,90 374,90 374,90 374,90 375,90 375,90 376,90 376,90 376,90 376,91 376,91 376,91 376,91 376,91 377,91 377,91 377,91 377,91 377,91 377,91 377,91 377,91 377,91 377,91 377,91 377,91 377,91 377,92 377,92 377,92 377,92 377,92 377,92 377,92 377,92 377,93 377,93 377,93 377,94 377,94 377,94 377,94 378,94 378,94 378,94 378,94 378,95 378,95 378,95 378,95 378,95 378,95 378,95 378,95 378,95 378,95 378,95 378,95 379,95 379,95 379,96 379,96 379,96 379,96 379,96 379,96 379,96 379,96 379,96 379,97 380,97 380,97 380,97 380,97 380,98 380,98 380,98 381,97 381,97 382,97 382,97 382,97 382,96 383,96 383,96 383,96 384,96 384,96 385,97 386,97 386,97 387,97 387,97 389,98 389,98 391,98 392,99 392,99 392,99 393,99 394,99 395,99 395,99 395,99 396,99 396,99 397,99 397,100 398,100 399,100 400,101 400,101 400,102 400,102 401,103 401,103 401,103 401,103 401,102 402,102 402,102 402,102 403,101 403,101 404,101 404,101 405,100 405,100 405,100 405,102 406,103 406,103 406,103 406,103 406,103 407,103 407,103 407,103 407,104 407,105 407,105 408,105 408,106 408,106 408,106 409,106 409,106 410,106 410,106 411,106 413,106 413,106 413,106 414,107 414,107 414,107 414,107 414,107 415,107 415,107 415,107 416,107 416,107 417,107 417,107 418,107 418,107 418,107 419,108 419,108 420,108 420,108 420,108 420,108 420,108 420,108 421,108 422,108 422,108 423,108 423,108 423,108 424,109 424,109 424,109 425,109 425,109 425,109 426,109 426,109 426,109 426,109 427,109 428,109 428,109 428,109 428,109 429,109 429,110 430,110 430,110 431,110 432,110 432,110 433,110 435,110 436,110 436,110 436,110 437,109 438,109 438,109 439,109 439,109 440,109 441,108 442,108 442,108 443,108 444,107 445,107 445,107 445,107 446,107 447,108 448,108 449,108 449,108 449,108 451,108 451,108 451,108 452,108 452,107 452,107 452,107 453,106 453,106 453,106 454,106 454,105 454,105 454,105 454,105 454,105 454,105 454,105 454,105 454,105 455,105 456,104 456,104 456,104 456,104 456,104 458,104 459,103 460,103 460,103 461,102 461,102 461,102 461,102 461,102 462,102 463,103 463,103 463,103 463,102 463,102 464,102 464,101 465,101 465,101 465,101 466,101 467,101 469,100 470,100 470,100 471,100 471,100 471,100 472,100 473,100 473,100 474,100 475,100 477,100 477,100 477,100 478,100 479,101 479,101 480,101 481,102 481,102 481,102 481,102 481,103 481,103 481,103 481,103 481,103 481,103 482,104 482,104 482,104 482,104 483,105 484,105 485,106 485,106 485,106 487,107 487,107 489,108 491,109 493,111 494,111 494,111 494,112 495,112 495,113 496,113 497,114 497,115 498,115 498,115 498,116 498,116 499,118 499,118 500,118 500,119 500,120 500,120 500,122 500,123 500,124 500,124 500,124 500,124 500,125 500,125 500,125 500,126 500,127 500,127 500,127 500,128 499,129 499,130 499,132 499,132 499,132 499,132 498,133 498,133 498,133 498,133 498,133 497,133 497,133 496,133 494,133 493,133 493,133 493,133 493,133 493,133 493,134 494,134 494,134 494,134 494,134 494,135 494,135 493,137 493,137 492,137 491,136 491,136 490,136 489,135 489,135 489,135 489,135 489,135 488,135 487,135 486,136 486,136 485,136 484,137 484,137 485,137 486,137 487,137 487,137 486,139 486,139 483,138 483,139 483,140 483,140 483,140 481,140 481,140 481,140 480,140 480,141 479,141 478,141 476,142 476,142 476,142 476,142 476,142 475,142 475,141 474,141 474,141 474,141 473,141 473,141 472,141 472,141 471,141 471,141 470,141 470,141 469,140 468,140 467,140 465,140 465,140 460,142 459,142 459,142 459,142 459,142 459,142 459,142 458,142 458,142 459,144 459,144 459,144 459,144 459,145 459,145 458,145 458,145 458,146 458,146 458,146 458,148 458,148 458,148 458,149 458,149 458,149 458,149 458,149 459,151 459,151 458,151 458,151 458,151 458,151 457,151 456,151 456,151 456,152 456,153 456,154 456,155 456,155 456,155 456,156 456,156 456,156 456,156 456,156 456,156 455,156 455,156 454,157 453,157 452,157 452,157 452,158 451,158 451,158 450,158 450,158 449,158 449,158 449,158 447,158 447,158 447,158 446,159 446,159 445,159 445,159 445,159 446,159 447,159 447,160 447,160 447,160 447,160 447,161 447,161 447,161 447,161 447,161 447,162 447,162 447,162 447,162 447,162 446,162 446,163 446,163 446,163 446,164 446,164 446,164 446,165 446,165 444,165 443,164 442,164 442,164 440,164 439,164 439,164 439,164 438,164 438,164 436,164 435,163 435,163 435,163 435,164 435,164 435,164 436,165 437,165 437,166 437,167 437,167 437,167 437,167 437,167 438,169 438,169 436,169 435,169 434,170 434,170 433,170 431,169 431,169 430,169 430,169 430,168 429,168 429,168 429,168 428,168 426,169 426,169 426,169 425,169 424,169 424,169 423,169 423,169 423,169 422,169 421,169 420,169 419,169 419,169 419,169 419,169 417,169 416,170 415,170 415,170 414,170 414,170 414,170 413,170 413,170 412,170 412,170 412,170 411,170 409,169 409,169 409,169 408,169 406,169 406,168 406,168 406,168 406,168 406,170 406,170 406,171 406,171 406,171 406,171 407,171 407,172 407,172 407,173 407,173 408,173 408,173 408,174 409,174 409,174 409,174 407,174 407,174 406,175 406,175 405,175 405,175 405,175 405,175 405,175 405,175 404,176 404,176 404,176 404,176 404,177 404,177 404,177 404,177 403,178 403,178 403,179 402,180 402,180 402,180 402,180 401,180 401,180 401,180 401,180 401,180 400,180 400,180 400,180 400,180 400,180 400,180 400,180 400,180 400,180 398,179 398,179 398,179 398,179 398,179 398,179 397,178 397,178 397,178 396,178 396,178 396,178 396,178 396,178 395,179 395,179 394,179 393,179 393,179 393,179 393,179 393,179 393,180 393,180 393,180 391,180 390,180 390,181 390,181 389,181 389,181 388,181 388,181 388,181 388,181 388,182 388,182 388,182 388,182 388,182 388,182 388,182 388,182 387,182 387,182 386,182 385,182 385,182 385,182 385,182 385,182 385,182 385,182 385,182 385,183 385,185 385,185 385,185 385,185 387,184 387,184 387,186 387,186 387,186 387,186 387,186 387,186 385,186 385,187 385,187 385,188 385,189 385,189 385,191 385,191 385,191 385,191 386,192 386,192 386,193 386,193 387,193 387,193 387,192 387,192 387,192 388,192 388,192 388,192 388,192 389,192 389,192 388,193 388,193 387,193 388,194 388,195 389,196 390,196 390,196 390,196 390,196 391,196 391,195 391,195 392,195 392,195 392,195 392,195 392,195 393,195 393,195 393,196 393,196 393,196 393,196 393,196 393,196 393,196 393,196 393,196 393,196 393,196 393,196 394,196 394,196 394,196 394,196 394,196 395,196 395,196 395,197 395,197 396,197 396,197 396,197 396,197 396,197 396,197 396,197 397,197 397,197 397,197 397,197 397,197 398,197 398,197 398,197 399,197 399,197 399,197 400,197 400,197 400,197 400,197 400,197 401,197 401,197 401,197 402,197 402,197 402,197 403,197 403,197 404,197 404,197 404,197 405,197 405,197 405,197 405,197 405,197 405,197 405,197 405,197 406,197 406,197 406,197 406,196 406,196 406,196 406,196 406,196 406,196 406,196 406,196 405,196 405,196 405,196 405,195 405,195 405,195 405,195 405,195 405,195 405,194 405,194 405,194 406,194 406,194 406,194 406,193 406,193 407,193 407,193 407,193 407,192 407,192 407,192 407,192 407,192 408,191 408,191 408,192 408,192 408,192 408,192 409,191 409,191 409,191 409,191 409,191 410,191 410,191 410,191 410,191 410,191 410,191 410,191 410,191 411,191 411,191 411,191 411,191 412,191 412,191 412,191 412,191 412,191 412,191 413,191 413,191 413,191 413,191 413,191 413,191 413,191 413,191 413,191 413,191 413,192 413,192 413,192 413,192 413,192 413,192 413,192 414,192 414,192 414,192 414,192 415,192 415,193 414,193 414,193 414,193 414,193 415,194 415,194 415,194 415,194 415,194 415,194 415,195 415,195 415,195 415,195 415,195 415,195 415,195 415,195 415,195 415,195 416,195 416,195 416,195 416,195 416,196 415,196 415,196 416,196 416,196 416,196 416,196 416,196 415,196 415,196 415,196 415,196 415,196 416,196 416,196 416,197 416,197 416,197 416,197 416,197 416,197 416,197 416,197 416,197 416,197 416,197 416,197 416,198 416,198 416,198 416,198 416,198 416,199 415,199 415,199 414,199 414,199 414,199 414,199 414,199 414,200 414,200 414,200 414,201 414,201 415,201 415,201 415,201 415,201 415,202 415,202 415,202 415,202 415,203 415,203 415,203 414,203 414,203 414,203 414,203 414,204 414,204 414,204 414,204 414,204 414,204 414,204 414,204 414,204 414,205 414,205 414,205 414,205 413,205 413,205 413,205 413,206 412,206 412,207 412,207 412,207 411,208 411,208 411,208 411,209 412,209 412,209 411,209 411,210 411,210 411,210 411,210 411,210 411,210 411,210 411,211 411,211 411,211 411,211 411,211 411,211 411,211 411,211 411,211 411,211 411,212 412,212 412,212 412,212 412,212 412,212 413,211 413,211 413,212 413,212 413,212 413,212 413,212 413,212 414,213 414,213 415,213 415,213 415,213 416,213 416,213 417,213 417,213 417,213 418,213 418,213 418,213 419,213 419,213 419,213 420,213 420,213 420,213 421,213 421,213 421,213 421,214 421,214 421,214 421,214 421,214 421,214 421,215 421,215 421,215 421,215 421,215 421,215 421,216 421,216 421,216 422,217 422,217 422,217 421,217 421,218 419,219 419,219 418,219 418,219 418,219 418,219 417,220 417,220 417,220 417,220 415,221 414,221 413,222 413,222 413,222 413,222 413,222 412,222 412,222 411,222 410,221 410,221 409,221 409,222 408,223 408,223 407,224 407,224 407,224 407,224 407,224 407,224 406,225 406,226 405,226 405,226 405,227 405,227 404,227 404,228 404,229 403,230 402,231 402,232 402,232 402,232 402,232 402,232 401,233 400,233 400,234 400,234 400,235 400,235 400,235 400,235 400,235 400,235 400,235 400,236 399,237 399,237 399,237 399,237 398,237 398,237 398,237 398,237 398,237 397,237 397,237 397,237 397,237 397,237 397,237 397,237 396,237 396,237 396,237 396,237 396,237 396,237 396,237 396,237 395,237 395,237 395,237 395,237 395,237 395,237 395,237 395,237 395,237 395,238 395,238 395,238 394,238 394,238 394,238 394,238 394,238 393,238 393,238 393,238 393,238 393,238 393,238 393,238 393,238 393,238 393,238 394,238 394,238 393,239 393,239 393,239 394,239 394,240 394,240 394,240 394,240 394,240 394,241 394,241 394,241 394,241 394,241 394,241 394,241 394,241 394,242 394,242 394,242 394,242 393,242 393,243 393,243 393,243 393,243 393,243 393,243 393,243 393,244 392,244 392,244 392,244 392,244 392,244 392,244 391,245 391,245 391,245 390,246 390,246 390,247 390,248 390,248 390,248 390,248 390,248 390,248 390,248 390,249 391,250 391,250 391,250 391,250 391,250 392,251 392,251 393,252 393,252 394,252 394,252 394,252 394,252 394,252 393,252 393,253 393,253 392,254 392,254 391,254 391,254 391,254 391,254 389,254 389,254 389,254 388,254 386,255 385,255 385,255 384,255 383,255 383,255 383,255 383,256 382,257 382,257 383,258 383,258 384,259 384,260 384,261 384,261 384,261 384,262 384,262 384,262 384,262 383,262 383,262 383,263 383,263 383,263 383,263 383,263 382,263 382,263 381,263 380,263 380,263 380,263 379,263 379,263 379,263 379,264 379,264 378,264 378,264 378,264 378,264 378,264 378,264 378,264 377,264 377,264 377,264 377,264 376,264 376,264 376,264 376,264 375,265 375,265 375,265 375,265 374,265 374,265 374,265 374,265 374,265 373,265 373,266 373,266 373,266 373,266 373,267 373,267 373,267 373,267 373,267 373,267 373,267 373,268 373,268 373,268 373,268 373,268 373,268 373,269 373,269 373,270 373,270 373,270 373,270 373,270 373,270 373,270 373,271 373,271 373,271 373,271 373,271 373,271 372,272 372,272 372,272 372,272 372,272 371,272 371,272 371,272 371,272 371,272 371,272 371,272 370,272 370,272 370,272 370,272 369,272 369,272 368,271 368,271 368,271 367,271 367,271 367,271 367,271 367,271 366,271 366,271 365,272 365,272 365,272 364,272 364,272 363,272 363,272 362,272 362,272 362,272 362,272 361,272 360,272 360,272 360,272 360,272 359,272 359,272 359,272 359,272 359,272 359,272 358,272 358,272 358,272 358,272 358,272 358,272 358,273 357,273 357,273 356,273 356,273 356,273 356,273 355,273 355,273 355,273 355,273 355,273 355,273 355,273 355,273 355,273 354,274 354,274 354,274 354,274 354,274 354,274 354,274 354,274 354,274 354,274 354,274 354,275 354,275 354,275 354,275 354,275 354,275 354,275 353,275 353,275 353,275 353,275 353,275 353,275 353,275 353,276 353,276 353,276 353,276 352,276 352,276 352,276 351,276 351,276 351,277 352,277 352,277 351,277 351,277 351,277 351,277 351,278 351,278 351,278 350,278 350,278 350,278 350,279 350,279 350,279 349,279 349,279 349,279 349,279 349,279 349,279 349,279 349,279 349,279 349,279 348,280 348,280 348,280 348,280 348,280 349,280 349,280 349,280 348,281 348,281 348,281 348,281 348,282 347,282 347,282 347,283 347,283 346,283 346,284 345,284 345,284 345,285 345,285 345,285 344,285 344,285 344,285 344,285 344,285 344,285 344,286 344,286 344,286 344,286 344,286 344,286 344,286 344,286 344,287 344,287 344,287 344,287 344,287 344,287 344,287 344,288 345,289 345,289 345,289 345,289 345,289 344,289 344,290 344,290 344,290 344,290 343,290 343,290 343,290 342,290 342,290 342,290 341,290 341,290 341,290 341,290 341,290 341,291 342,291 342,291 342,291 342,291 342,292 342,292 342,292 342,292 341,292 341,292 341,293 341,293 341,293 340,293 340,292 340,292 339,292 339,292 339,292 338,292 338,292 338,292 338,292 338,292 338,293 338,293 338,293 338,294 338,294 338,294 338,295 338,295 338,295 337,295 337,296 336,296 336,296 336,297 336,297 335,297 335,297 335,297 334,297 334,297 334,297 334,297 334,296 334,295 334,295 334,295 334,294 334,294 334,294 334,294 334,294 333,294 333,294 333,294 333,294 332,294 331,294 331,295 330,295 330,295 329,295 329,295 329,295 328,295 328,295 328,295 328,295 328,295 327,295 327,294 327,293 326,292 326,292 326,291 326,291 327,290 327,290 327,290 327,290 327,290 326,290 326,289 326,289 326,289 326,289 325,289 321,288 319,287 318,287 318,287 318,287 318,287 318,287 318,287 316,286 316,286 316,286 315,286 315,286 314,286 313,286 313,286 313,286 313,286 313,286 313,286 312,286 311,286 311,286 311,286 310,286 310,285 309,285 309,285 308,285 308,285 309,285 309,285 308,285 308,285 308,285 308,285 308,285 308,285 308,285 308,285 307,285 307,285 306,285 306,286 306,286 306,286 306,286 306,286 304,286 304,286 304,286 304,286 304,286 304,286 304,286 303,287 303,288 303,288 302,289 302,289 302,289 301,290 301,290 300,291 300,291 300,291 300,291 299,291 298,291 298,291 298,291 297,291 296,292 296,292 296,293 295,293 295,293 295,294 295,294 295,294 294,294 294,293 294,293 293,294 292,294 292,294 292,294 291,293 291,293 291,293 291,294 291,294 291,294 291,294 291,294 291,294 291,294 291,295 292,295 292,296 292,296 292,296 293,297 293,297 293,297 292,297 292,298 291,298 291,299 291,299 291,299 291,299 291,299 290,299 289,299 288,299 289,299 289,298 289,297 289,296 289,295 289,295 288,294 288,294 288,292 288,291 287,290 287,290 287,290 287,290 287,289 286,287 286,287 286,286 286,285 285,285 285,283 284,281 284,280 283,279 283,278 282,276 282,275 282,275 282,275 281,274 281,273 281,273 281,273 281,272 280,271 280,270 279,269 279,269 279,269 279,268 278,267 278,266 278,266 277,266 277,266 277,264 276,264 275,264 275,263 275,263 274,263 274,263 273,262 273,262 273,262 272,261 272,261 270,260 270,260 270,260 270,259 270,259 270,259 269,259 269,258 269,258 269,258 268,257 267,257 266,257 266,257 265,257 265,257 264,257 264,257 263,257 263,257 263,257 262,257 260,256 260,256 260,256 260,256 259,255 259,255 259,255 258,254 258,253 257,253 257,252 256,252 256,252 256,252 256,251 256,249 256,249 256,248 255,248 254,246 254,246 254,246 254,246 254,245 253,244 253,243 252,242 252,242 252,241 252,241 252,240 251,240 251,240 251,239 250,239 250,239 249,239 249,238 248,238 248,238 247,238 247,237 245,237 244,237 244,237 242,236 241,236 241,236 239,236 239,235 239,235 238,234 237,234 237,234 237,233 236,233 236,232 234,232 232,232 232,231 232,230 231,230 231,230 231,230 231,230 230,230 229,229 229,228 229,228 228,228 228,227 228,227 228,226 227,226 226,226 226,226 225,226 224,225 224,224 224,224 223,225 222,224 222,223 221,223 221,223 221,223 221,222 220,221 220,220 220,220 219,220 219,220 219,220 219,220 218,219 218,219 218,219 217,218 217,217 217,216 216,216 216,216 216,215 216,215 215,215 215,215 215,215 215,214 214,214 214,213 213,212 213,212 213,212 212,212 212,212 212,211 212,211 211,210 211,210 210,210 210,210 210,209 209,209 209,209 208,209 208,209 208,209 208,208 208,208 208,207 208,207 208,206 208,206 208,205 208,204 208,204 208,203 207,202 207,202 205,199 205,199 204,198 204,197 203,196 202,195 202,195 201,194 201,194 201,193 200,193 199,193 199,193 199,192 198,192 198,192 198,191 198,191 197,191 197,190 197,190 197,190 196,189 196,189 196,189 195,188 195,188 195,188 195,187 194,187 194,186 193,186 193,186 193,186 192,185 192,185 192,185 192,185 191,185 191,184 190,183 190,183 189,183 189,182 189,182 188,182 188,181 188,181 188,181 187,181 187,181 187,180 187,179 186,179 186,179 185,179 184,178 184,177 184,177 183,177 183,176 182,175 182,175 182,175 182,175 181,175 181,174 181,174 181,174 181,173 181,173 180,173 180,172 180,172 179,172 179,172 179,172 179,172 178,171 178,171 177,170 177,170 177,170 177,169 177,169 177,169 176,169 176,168 176,168 176,168 176,168 175,168 175,167 175,167 175,167 175,167 175,166 174,166 174,165 173,165 173,165 173,165 171,165 171,164 171,163 171,163 171,163 171,163 171,162 171,162 170,162 170,162 169,161 169,160 168,160 168,160 167,160 167,159 167,159 166,159 166,158 166,158 165,157 165,157 165,157 165,157 164,156 163,155 163,155 163,155 163,155 162,154 161,154 160,154 160,153 160,153 160,153 159,153 158,153 157,152 157,152 156,151 155,151 152,151 152,151 152,151 151,151 151,151 151,152 150,152 149,153 149,153 149,153 149,153 148,153 148,153 148,154 147,154 147,155 147,155 146,155 146,155 146,154 147,154 147,153 148,153 148,153 149,152 149,152 150,152 150,151 151,151 151,150 152,150 152,150 153,149 153,149 154,149 154,148 155,148 154,147 154,147 154,147 154,147 154,147 154,147 153,147 153,147 152,147 152,147 152,147 152,147 152,147 152,147 152,147 152,147 151,147 151,147 151,147 151,147 151,147 151,147 151,147 150,148 150,148 149,148 149,148 149,148 149,148 149,148 149,148 149,148 149,148 149,148 149,148 149,148 149,148 149,148 149,148 149,149 149,149 149,149 148,149 149,149 148,149 148,149 148,149 148,149 148,149 148,149 147,149 146,149 145,149 145,149 144,149 144,149 144,149 144,149 144,149 144,149 144,149 144,149 144,149 144,149 144,149 144,149 144,149 144,149 144,149 144,150 144,150 144,150 144,150 144,150 143,150 143,150 143,150 143,150 143,150 143,150 143,150 142,150 141,150 140,151 138,151 138,151 139,151 138,152 138,153 138,154 136,155 133,155 130,154 128,154 126,153 124,151 122,150 120,148 119,147 119,147 118,145 116,144 114,142 114,142 113,140 111,139 108,135 109,134 109,133 109,132 108,131 107,129 107,127 108,126 109,125 109,125 110,124 110,123 110,123 110,123 110,122 110,122 110,122 110,121 110,120 110,120 108,119 108,118 108,118 106,116 104,114 103,113 101,112 96,109 91,104 87,102 83,99 80,97 75,93 74,92 72,91 71,90 68,89 65,87 63,86 62,85 60,84 60,83 59,82 56,79 55,78 54,77 53,77 51,76 51,76 49,75 46,73 41,70 39,69 38,68 37,68 36,67 35,67 34,66 32,65 30,64 24,60 16,54 12,51 9,49 7,47 4,45 0,42" id="8515" class="canton" fill="steelblue" stroke-width="1" stroke="white" geotype="canton" geoname="Saint-Hilaire-de-Riez" code_insee="8515" code_departement="85" nom_departement="Vendée" code_region="52" nom_region="Pays de la Loire"/></svg>