<?xml version="1.0" encoding="utf-8"?>
<svg version="1.1" id="svgmap" xmlns="http://www.w3.org/2000/svg" xmlns:xlink="http://www.w3.org/1999/xlink" x="0px" y="0px" width="100%" height="100%" viewBox="0 0 500 300">
<polygon points="358,13 359,13 363,13 363,13 363,13 365,14 365,14 366,14 366,14 366,14 366,14 366,14 367,14 368,14 368,14 368,14 369,14 369,14 369,14 369,14 369,14 369,14 369,14 369,14 370,14 370,14 370,14 370,14 371,14 372,14 373,14 373,15 374,15 374,15 375,16 376,17 376,18 377,19 377,19 378,20 378,20 379,21 379,22 379,22 380,23 380,24 381,24 381,25 381,26 382,27 382,27 382,27 383,28 383,28 383,29 383,29 384,30 384,30 384,31 385,32 386,33 386,33 387,34 388,35 389,36 390,37 390,39 391,39 391,40 392,41 392,41 393,42 395,43 395,43 396,44 396,45 397,45 398,46 399,47 399,47 400,47 401,47 401,47 401,47 402,47 402,48 402,48 402,48 402,48 402,49 402,49 402,50 402,50 402,51 402,51 402,51 402,52 402,52 402,52 402,52 401,53 401,53 401,53 401,53 401,53 400,54 400,54 400,54 400,54 400,55 400,55 400,55 400,55 399,55 399,56 399,56 397,58 397,58 396,58 396,58 396,58 396,59 396,59 396,59 394,60 394,60 393,60 393,61 393,61 393,61 393,61 392,61 392,61 391,61 391,62 390,62 390,62 389,62 388,62 388,62 388,62 387,62 387,62 387,62 387,63 387,63 386,63 385,63 385,63 385,63 384,63 384,63 384,63 385,63 385,64 385,64 385,64 385,64 385,64 384,64 384,64 384,64 384,65 384,65 384,65 383,65 383,65 383,65 383,65 383,65 383,65 383,65 383,65 383,65 383,65 382,65 382,65 382,65 382,65 382,65 382,65 382,65 382,65 382,65 382,66 382,66 383,66 383,66 383,66 383,66 383,67 383,67 383,67 383,67 383,67 382,67 382,67 382,68 382,68 382,68 382,68 382,68 382,68 382,68 382,69 383,69 383,69 383,69 383,69 383,69 383,69 383,69 383,69 383,70 383,70 383,70 383,70 383,69 384,69 384,69 384,69 384,69 384,70 385,70 385,70 385,70 385,70 385,70 385,70 385,70 385,71 385,71 385,71 386,71 386,72 386,72 386,72 387,72 387,72 387,73 387,73 387,73 387,73 387,73 387,73 388,73 388,73 388,73 388,73 388,73 388,73 389,73 389,73 389,73 389,72 390,72 390,72 390,72 390,72 390,72 390,72 391,72 391,72 391,72 392,72 392,72 392,73 392,73 392,73 392,73 392,73 393,73 393,73 393,73 393,73 393,74 393,74 393,74 393,74 393,74 392,75 392,75 392,75 392,75 393,75 393,75 393,75 393,75 394,76 394,76 394,76 394,76 394,76 394,76 394,77 394,77 394,77 394,77 394,77 394,77 394,77 393,77 393,77 393,77 393,78 393,78 393,78 393,78 393,78 392,78 392,78 392,78 392,78 392,78 392,78 392,78 392,77 392,77 392,77 392,77 392,77 392,77 391,77 391,77 390,77 390,77 390,77 390,77 390,77 390,77 390,77 390,77 390,77 391,77 391,77 391,77 391,77 391,78 391,78 391,78 391,78 391,79 391,79 391,79 391,79 391,79 390,79 390,79 390,80 390,80 390,80 389,80 389,81 389,81 389,81 388,82 388,82 388,82 388,82 388,82 388,82 388,82 388,82 388,82 389,82 389,83 389,83 389,83 390,83 390,83 390,83 390,83 390,83 390,83 390,83 391,83 391,83 391,83 391,83 392,83 392,83 392,83 392,83 393,83 393,83 393,83 393,83 393,83 393,83 393,83 393,83 393,83 393,83 393,83 393,83 393,83 393,83 393,83 393,83 393,83 393,84 393,84 393,84 393,84 393,84 393,84 393,84 393,84 393,84 393,85 393,85 393,85 393,85 394,85 394,85 394,85 394,85 394,85 394,86 394,86 394,86 394,86 394,86 394,86 394,87 394,87 394,87 394,87 394,87 394,88 394,88 394,88 394,88 394,88 394,88 394,88 394,88 395,88 395,88 395,88 395,88 395,88 395,88 395,88 395,88 395,89 395,89 394,89 394,89 394,89 394,89 394,89 394,89 395,90 395,90 396,91 396,91 396,91 396,91 397,91 397,92 397,92 397,92 397,92 397,92 397,92 397,93 397,93 397,93 397,93 397,93 396,94 396,94 396,94 396,94 396,94 396,94 396,95 395,95 395,95 395,95 395,95 395,95 395,95 394,95 394,95 394,95 393,95 393,95 393,95 393,95 393,96 393,96 393,96 393,96 393,96 393,96 393,96 393,97 393,97 393,97 393,97 393,97 393,97 393,98 393,98 393,98 393,98 393,98 391,99 390,99 390,100 389,100 389,100 389,100 389,100 389,100 389,100 389,100 389,100 388,100 388,100 388,101 388,101 388,102 387,102 387,104 387,104 387,104 387,104 387,105 387,105 386,105 386,105 386,105 386,105 386,105 386,105 386,105 385,105 385,105 385,105 385,105 385,106 385,106 385,106 385,106 385,107 385,107 385,107 385,107 386,107 386,107 387,107 387,107 387,107 388,107 389,107 390,107 391,107 391,107 391,107 391,108 391,108 391,108 391,108 391,109 391,109 391,109 391,109 391,109 390,109 390,109 390,110 389,110 389,110 389,111 389,111 389,111 388,111 388,111 388,111 388,111 388,111 388,111 388,111 388,112 388,112 387,113 387,113 387,113 387,113 387,113 387,113 387,113 387,114 387,114 387,114 387,114 387,114 387,114 387,114 387,114 387,115 388,115 388,116 388,116 388,116 388,116 388,117 388,117 388,117 388,117 388,118 388,118 388,118 388,119 388,119 388,119 388,119 388,119 388,120 389,120 389,120 389,120 389,120 389,120 390,120 390,120 391,120 391,120 391,120 391,120 391,120 391,120 392,120 392,120 392,120 392,120 392,120 393,120 394,120 394,120 394,121 394,121 394,121 394,120 395,120 395,120 395,121 395,121 395,122 395,122 395,122 395,122 395,122 395,122 395,122 395,122 394,123 394,123 394,123 394,123 394,123 395,123 395,124 395,125 396,125 396,126 396,126 396,126 396,126 397,126 397,126 397,126 397,127 397,127 398,127 398,127 398,127 398,127 398,127 398,127 398,127 398,128 398,128 398,128 398,128 398,128 398,129 398,129 398,129 398,129 398,130 397,130 397,130 397,130 397,130 397,130 397,130 397,130 398,131 398,131 398,131 399,131 399,131 399,131 399,131 400,131 400,131 400,132 400,132 400,132 400,132 400,132 400,132 400,133 400,133 399,133 399,133 399,133 399,133 399,133 399,133 398,134 398,134 398,134 397,135 397,135 398,135 398,135 398,135 398,135 399,136 399,136 400,136 400,136 400,136 400,136 400,136 400,136 400,136 400,136 400,136 400,136 400,137 401,137 401,137 403,137 403,137 403,137 404,138 404,138 404,138 404,138 404,139 403,139 403,139 403,139 403,139 402,140 402,140 401,141 401,141 401,141 402,141 402,141 401,142 401,142 401,142 401,142 400,142 400,142 400,142 400,142 399,142 399,142 399,142 398,142 397,142 397,142 396,142 395,143 394,143 394,143 394,143 394,143 394,143 394,143 393,143 393,143 393,143 394,143 395,144 395,144 395,144 395,144 395,145 395,145 395,145 395,145 396,145 396,145 396,145 396,145 395,145 395,145 395,145 395,145 395,145 395,145 394,145 394,145 393,145 393,145 391,145 391,145 391,145 391,145 391,145 391,145 390,145 390,145 390,145 390,145 390,145 390,146 390,146 390,146 390,146 390,146 389,146 389,146 389,146 389,146 389,146 388,146 388,146 388,146 388,146 388,146 388,146 388,146 388,147 388,147 387,147 387,147 387,147 387,147 386,147 386,147 386,146 386,146 386,146 386,146 386,147 385,147 385,147 385,147 385,147 385,147 385,146 385,146 385,146 384,146 384,146 384,146 384,146 384,146 384,146 383,146 383,146 383,147 383,147 383,147 383,147 382,147 382,147 382,147 382,147 382,147 381,147 381,147 381,147 381,147 381,147 380,147 380,147 380,147 380,147 380,147 380,147 380,148 380,148 379,148 379,148 379,148 379,148 379,148 379,148 379,148 379,148 379,148 378,148 378,148 378,148 378,148 377,148 376,148 376,148 376,148 375,148 375,148 375,148 374,148 373,148 372,148 371,148 371,148 371,148 370,148 369,148 369,148 369,149 369,149 369,149 369,149 369,149 369,149 369,149 369,149 369,149 369,150 368,150 368,151 367,152 367,152 366,152 366,153 366,153 366,153 366,153 365,153 365,153 365,153 364,153 364,153 364,153 363,153 362,153 362,153 361,153 361,153 360,154 359,154 358,154 358,154 357,155 356,155 356,155 356,155 356,155 356,155 356,155 355,155 355,155 355,155 355,155 355,156 355,156 355,156 355,156 355,156 354,156 353,156 353,156 353,156 353,157 353,157 353,157 353,157 352,157 351,158 350,158 350,158 349,159 349,159 348,159 348,159 348,159 348,159 348,159 347,159 347,159 346,160 346,160 346,160 346,160 345,161 345,161 345,161 345,162 345,162 344,162 344,162 344,162 344,162 344,162 344,162 344,162 344,163 344,163 343,163 343,163 343,163 343,163 343,163 343,163 343,163 342,163 342,163 342,163 341,163 341,163 341,163 341,163 341,163 340,163 340,163 340,163 340,163 340,163 340,163 340,163 339,163 339,163 339,163 338,163 338,163 338,163 338,163 338,163 338,163 337,163 337,163 337,163 337,164 337,164 337,164 336,164 336,164 336,164 336,165 336,165 336,165 336,165 336,165 336,165 336,165 335,166 335,166 335,166 335,166 335,166 335,166 335,166 335,167 335,167 335,167 335,167 335,167 334,167 334,167 334,167 334,167 333,168 333,168 333,168 333,168 332,168 332,168 332,167 332,167 332,167 332,166 332,166 332,166 331,166 331,166 331,166 331,166 331,166 330,166 330,166 329,167 329,167 328,167 328,167 328,167 328,167 328,167 327,167 327,167 327,167 327,167 327,167 327,167 327,167 327,166 327,166 326,166 326,166 326,166 326,165 326,165 326,165 326,165 325,165 325,165 325,165 325,165 325,165 325,165 325,165 324,166 324,166 324,166 324,166 323,166 323,166 323,166 322,166 321,166 321,166 321,166 321,166 321,166 321,166 320,166 320,167 320,167 319,167 319,167 319,167 319,167 319,167 319,167 319,167 319,167 319,167 319,167 319,167 319,167 319,167 319,167 318,167 318,167 318,167 318,168 318,168 318,168 318,168 319,168 319,168 319,169 319,169 319,169 319,169 319,169 319,169 319,169 319,170 319,170 319,170 319,170 318,170 318,170 318,170 318,170 318,171 317,171 317,171 317,171 317,171 317,171 317,172 317,172 317,172 317,172 317,172 317,173 317,173 317,173 316,173 316,173 315,173 315,173 315,173 315,174 315,174 315,174 315,174 315,174 315,174 315,174 315,174 315,174 315,175 315,175 315,175 315,175 315,175 315,175 315,175 315,175 316,175 316,175 316,176 316,176 317,176 317,176 317,176 317,177 317,177 317,177 317,177 317,177 317,177 318,177 318,177 318,177 318,177 317,177 317,178 317,178 317,178 316,178 316,178 316,178 316,178 316,178 315,177 315,177 315,177 315,177 315,178 315,178 314,178 313,179 313,179 313,179 313,179 313,179 314,179 314,179 314,180 314,180 314,180 314,180 314,180 315,180 315,180 315,180 315,180 315,180 315,180 316,181 316,181 316,181 316,181 316,181 316,181 316,182 316,183 316,183 317,183 317,183 317,183 317,183 317,183 317,183 318,184 318,184 318,184 318,184 318,184 319,184 319,184 319,185 318,185 318,185 318,185 318,185 317,186 317,186 317,186 317,186 316,186 316,186 315,186 315,186 315,186 315,186 315,186 315,187 315,187 315,187 315,187 315,187 315,187 315,187 315,187 316,188 316,188 317,188 317,188 317,188 317,188 318,188 318,188 318,188 318,188 318,188 319,188 319,189 319,189 319,189 320,189 320,189 320,189 320,189 320,189 320,189 320,189 320,189 320,189 320,189 320,189 319,189 319,189 319,190 319,190 319,190 320,190 320,191 320,191 320,191 320,191 320,192 321,192 321,192 321,192 321,192 322,192 322,192 322,192 323,193 323,193 323,193 323,193 323,193 323,193 324,194 324,194 324,194 325,194 325,194 325,194 325,195 326,195 326,195 326,195 326,195 326,195 327,195 327,195 327,195 327,195 327,195 327,195 328,195 328,195 328,195 328,195 328,194 329,194 329,194 329,194 329,194 329,194 329,194 329,194 329,194 329,194 329,194 329,194 330,194 330,194 330,194 330,193 330,193 331,192 331,192 331,192 331,192 332,192 332,192 332,191 332,191 333,191 333,191 333,191 333,191 333,191 334,190 334,190 334,190 335,189 335,189 335,189 336,189 336,188 336,188 336,188 336,188 336,188 336,188 336,188 336,187 337,187 337,187 337,187 337,187 338,187 338,186 338,186 338,186 338,186 338,186 338,185 339,185 339,185 339,185 339,185 339,185 340,185 340,185 340,185 340,185 340,185 341,186 341,186 342,186 342,186 343,186 343,186 343,186 343,186 344,185 344,185 344,185 344,185 345,185 345,185 345,185 346,186 346,186 346,186 346,186 345,186 345,186 345,187 345,187 345,187 346,187 346,188 346,188 346,188 347,188 347,188 347,188 348,189 348,189 348,189 348,189 348,189 348,189 349,189 349,189 349,189 350,189 350,189 350,189 350,189 350,189 351,189 351,189 351,189 351,189 351,189 351,189 351,189 351,189 352,188 351,188 351,188 351,188 351,188 351,188 351,188 351,187 351,187 351,187 351,187 351,187 351,187 351,187 351,187 352,187 352,187 352,187 353,187 353,188 353,188 353,188 354,188 354,188 354,188 354,188 354,188 354,187 355,187 355,187 355,187 355,187 356,187 356,187 357,187 357,187 357,187 357,187 358,187 358,187 358,187 358,187 359,187 359,187 359,187 360,187 360,187 360,187 360,187 361,187 361,186 361,186 361,186 361,186 362,186 362,186 362,186 362,186 362,186 362,186 363,186 363,186 364,186 364,186 364,186 365,186 366,186 366,186 366,186 366,186 366,186 367,186 367,186 367,186 367,186 368,186 368,186 368,187 368,187 368,187 369,187 369,187 369,187 369,187 369,187 369,187 369,187 369,187 369,187 369,187 369,188 369,188 369,188 369,188 370,188 370,188 370,188 370,188 370,188 370,188 370,188 370,188 370,188 370,188 370,188 370,188 371,188 371,188 371,188 371,189 371,189 371,189 371,189 371,189 371,190 371,190 371,190 371,190 372,191 372,191 372,191 372,191 373,191 373,191 374,192 374,192 374,192 374,192 374,192 375,192 375,192 375,192 375,192 375,192 375,192 375,193 376,193 376,193 376,193 376,193 376,194 376,194 376,194 376,194 376,194 376,194 376,194 377,194 378,194 378,194 378,194 378,194 378,194 379,194 379,194 379,194 381,194 381,194 382,194 382,194 382,194 382,194 383,194 384,193 384,193 384,193 384,193 384,194 384,194 384,194 384,194 386,194 386,194 386,194 387,194 388,194 388,194 388,194 388,194 388,194 389,194 389,194 389,194 389,194 389,194 390,194 390,194 391,194 391,194 391,194 391,194 392,194 392,194 392,194 393,195 393,195 394,195 395,195 396,195 397,195 397,195 397,195 399,196 399,196 399,196 399,196 400,196 400,196 400,196 400,196 400,196 400,196 400,196 400,196 400,196 400,196 400,196 400,196 400,196 401,196 401,196 402,196 402,196 402,196 402,196 402,196 402,196 402,196 402,196 402,196 402,196 402,195 402,195 402,195 402,195 402,195 402,195 403,195 403,195 403,194 404,194 404,194 404,194 405,194 405,194 405,194 405,194 406,193 406,193 406,193 406,193 406,193 406,193 406,193 406,193 407,193 407,194 408,194 409,194 409,194 409,194 409,194 409,194 409,194 409,194 409,194 410,193 410,193 410,193 410,193 410,193 411,193 411,194 411,194 411,194 412,194 412,194 412,194 412,194 412,194 412,194 412,194 413,194 413,194 413,194 413,194 414,194 414,194 414,193 414,193 414,193 414,193 414,193 416,194 416,194 419,196 419,196 419,196 420,196 420,196 420,196 419,196 419,196 420,196 420,196 420,196 421,197 421,197 421,197 421,197 422,198 422,198 422,198 421,198 421,199 421,199 421,199 420,199 420,199 420,199 420,199 420,199 420,199 420,199 420,199 420,199 419,199 419,199 419,199 419,199 419,199 419,200 419,200 419,200 419,200 419,200 420,200 420,200 420,200 420,200 420,200 420,200 420,200 420,200 421,200 421,201 421,201 421,201 421,201 421,201 421,201 421,201 421,201 422,201 422,201 422,201 422,201 422,201 423,202 423,202 423,202 423,202 424,202 424,201 424,201 424,201 424,201 424,201 424,201 424,201 424,201 424,201 424,201 424,201 425,202 425,202 425,202 425,202 425,202 425,202 425,202 425,202 425,202 425,202 425,202 425,202 425,202 425,202 425,203 425,203 425,203 425,203 425,203 425,203 425,203 425,203 425,203 425,203 425,203 424,203 424,203 424,203 424,203 424,203 424,203 424,203 424,203 424,203 423,203 423,204 423,204 423,204 423,204 423,204 423,203 422,203 422,203 422,203 422,204 421,204 421,204 421,204 420,204 420,204 420,204 419,204 419,204 419,204 419,204 419,204 419,204 419,204 419,204 419,205 419,205 419,205 419,205 419,205 420,205 420,206 420,206 421,206 421,206 421,206 421,206 421,206 421,206 421,206 421,207 422,207 422,207 422,207 422,207 422,207 422,207 423,207 423,207 423,207 423,206 424,206 424,206 424,206 425,206 425,206 425,206 425,206 425,206 425,206 425,206 425,205 425,205 425,205 426,205 426,205 426,205 426,205 426,205 426,204 426,204 426,204 426,204 426,204 426,204 426,204 426,204 426,204 426,204 426,204 426,204 427,204 428,204 428,204 428,204 428,204 428,204 428,203 428,203 428,203 429,204 429,204 429,204 429,204 428,205 428,206 428,206 428,206 428,206 428,206 430,206 430,206 430,206 430,206 430,206 430,206 430,206 430,206 430,206 430,206 430,206 430,206 430,206 431,206 431,206 431,207 432,207 432,207 432,207 432,207 433,207 433,207 433,208 433,208 433,208 433,208 433,208 433,208 433,208 433,208 433,208 434,208 434,208 434,208 433,208 433,209 433,209 433,209 433,209 433,209 433,210 433,210 433,210 434,210 434,210 435,211 435,211 436,211 436,211 440,210 440,209 440,209 440,209 440,209 440,209 441,209 441,209 441,209 441,209 441,209 441,209 441,209 441,209 441,209 441,209 441,209 441,209 441,209 441,209 441,209 442,209 442,209 442,209 442,209 442,209 442,209 442,209 442,209 442,209 442,209 442,210 442,210 442,210 442,210 443,210 443,210 443,210 443,210 443,210 443,210 443,210 443,210 443,211 443,211 443,211 443,211 444,211 444,211 444,211 444,211 444,211 444,212 444,212 444,212 444,212 444,212 444,212 444,212 444,212 444,213 445,213 445,213 445,213 445,213 445,213 445,213 445,213 445,213 445,213 445,213 445,213 445,213 445,214 446,214 446,214 446,214 446,214 447,214 448,214 448,214 448,214 448,214 448,214 449,215 449,215 449,215 449,215 449,215 449,215 449,215 449,215 449,215 449,215 449,215 450,216 450,216 450,216 450,216 450,216 450,216 450,216 452,217 453,217 453,218 453,218 453,218 453,218 454,218 454,218 454,218 454,218 454,218 455,218 455,218 455,218 455,218 455,218 455,219 455,219 455,219 456,219 456,219 456,219 456,219 456,219 456,220 458,220 458,220 458,220 458,220 458,221 458,221 458,221 458,221 458,221 458,221 458,221 458,222 458,222 459,222 459,222 459,222 459,223 459,223 459,223 459,223 459,224 460,224 460,224 460,224 460,224 460,224 460,224 461,225 461,225 461,225 462,225 462,226 462,226 462,226 462,226 462,226 463,226 463,226 463,226 463,226 463,226 463,226 464,226 464,226 464,226 464,226 464,226 464,227 464,227 464,227 464,227 465,227 466,226 467,226 469,226 472,224 474,224 475,224 475,224 475,224 475,224 475,225 475,226 475,226 475,226 475,226 476,226 476,226 476,226 476,226 476,226 476,226 476,226 476,226 476,226 477,226 478,226 479,226 479,226 479,226 479,225 479,225 479,225 480,225 480,225 480,225 480,225 481,226 481,226 481,226 481,226 482,226 482,226 482,226 482,226 482,226 483,226 483,227 483,227 484,227 484,227 484,227 484,227 484,227 484,227 485,227 485,228 485,228 485,228 486,228 486,228 486,228 486,228 486,228 486,228 486,228 486,228 486,228 486,228 486,228 487,228 487,228 487,228 487,228 488,228 488,228 489,228 489,228 490,229 490,229 490,229 490,229 490,229 490,229 490,229 490,229 490,229 490,229 491,229 491,229 491,229 491,229 491,229 492,229 492,229 492,229 492,229 493,229 493,229 493,229 493,229 493,229 493,229 494,228 494,228 494,228 494,228 494,229 494,229 495,229 495,229 495,229 495,229 496,229 496,230 497,230 497,230 497,230 497,230 497,230 497,230 498,230 498,231 498,231 498,231 498,231 498,231 498,231 498,231 498,231 499,233 499,235 500,237 500,237 500,237 500,238 499,238 499,238 499,238 498,238 498,239 498,239 498,239 497,239 497,240 497,240 497,240 497,240 497,240 497,240 497,239 497,239 497,239 497,239 497,239 497,239 497,239 497,239 497,239 497,239 497,239 497,239 497,239 496,239 496,239 496,239 496,239 496,239 496,239 496,239 496,239 496,239 495,239 495,239 495,239 495,239 495,239 495,239 495,239 495,239 495,239 495,239 495,239 495,239 495,239 495,239 495,239 495,239 495,239 495,239 495,239 495,239 495,239 495,238 495,238 495,238 495,238 494,238 494,238 494,238 494,238 494,238 494,238 494,238 494,238 494,238 494,238 494,238 494,238 494,238 493,238 493,238 493,238 493,238 493,238 493,238 492,238 492,237 492,237 492,237 492,237 491,237 491,237 491,237 492,237 492,237 492,237 492,237 492,237 491,237 491,237 491,237 491,237 491,237 491,237 491,237 491,237 491,237 491,237 491,237 491,237 491,237 491,237 491,237 490,237 490,237 490,237 490,237 490,237 490,237 490,237 490,237 490,237 490,237 490,237 489,237 489,237 489,237 489,237 489,237 489,237 489,237 489,237 489,237 489,237 489,237 489,237 489,237 488,237 488,237 488,237 488,238 488,238 488,238 488,238 488,238 488,238 488,238 488,238 488,238 488,238 488,238 488,238 488,238 488,238 488,238 488,238 488,238 488,238 488,239 488,239 488,239 488,239 488,239 488,239 487,239 487,239 487,239 487,239 487,239 487,239 486,239 486,239 486,239 486,239 486,239 486,239 486,240 486,240 486,240 486,240 486,240 486,240 486,240 486,240 486,240 486,240 486,240 486,240 486,240 486,240 486,240 486,240 486,241 486,241 486,241 486,241 486,241 486,241 486,241 486,241 486,241 486,241 485,241 485,241 485,241 485,241 485,241 485,241 485,241 485,241 484,241 484,241 484,241 484,241 484,241 484,241 484,241 483,241 483,241 483,241 483,241 483,241 483,241 483,241 483,241 483,241 483,241 483,241 482,241 482,241 482,241 482,241 482,241 482,241 482,241 482,241 482,241 482,241 482,241 482,241 482,241 482,241 482,241 482,241 481,241 481,241 481,241 481,241 481,241 481,240 481,240 481,240 480,240 480,240 480,240 480,240 480,240 480,240 480,240 480,240 480,240 480,240 480,240 480,240 480,240 480,240 479,240 479,240 479,240 479,239 479,239 478,240 478,240 478,240 478,240 478,240 478,240 478,240 478,240 478,240 478,240 478,240 478,240 478,240 478,240 478,240 478,240 478,240 477,239 477,239 476,239 476,239 476,239 476,239 476,239 476,239 475,239 475,239 475,239 475,239 475,239 475,239 475,239 475,239 475,239 475,239 475,239 475,239 475,239 475,240 474,240 474,239 474,239 474,239 474,239 474,239 474,239 474,239 474,239 474,239 474,239 474,239 474,239 474,239 473,239 473,239 473,239 473,239 473,239 473,239 473,239 473,239 473,239 473,239 472,239 472,239 472,239 472,240 472,240 472,240 472,240 472,240 472,240 472,240 472,240 472,240 472,240 471,240 471,240 471,240 471,240 471,240 471,240 471,240 471,240 471,240 471,240 471,240 471,240 471,240 471,240 470,240 470,241 470,241 470,241 470,241 471,241 471,241 471,241 470,241 470,242 470,242 470,242 470,242 471,242 471,242 471,242 471,242 471,243 471,243 471,244 471,244 471,244 471,244 471,244 470,247 470,247 469,247 469,248 469,248 469,248 468,248 468,248 468,248 468,248 468,248 468,249 468,249 468,249 468,249 468,250 468,251 467,252 467,251 467,252 467,252 466,252 466,252 466,252 466,252 465,252 464,252 464,252 464,252 464,252 463,252 463,252 463,252 462,252 462,252 462,252 462,252 462,252 460,252 461,253 461,253 461,253 461,254 461,254 461,254 461,254 461,254 461,254 461,254 461,254 461,254 461,254 461,254 461,254 461,254 461,255 461,255 462,257 462,258 463,258 463,259 463,259 463,260 463,261 463,263 463,264 464,265 464,268 464,268 464,268 464,269 464,269 465,269 465,271 465,273 466,274 467,277 467,277 467,278 467,278 467,278 467,278 468,279 468,280 468,280 468,280 468,281 468,281 467,281 467,283 467,283 466,285 466,288 466,288 466,289 465,291 465,292 465,292 465,292 464,293 464,293 464,293 464,293 464,294 464,294 464,294 464,294 463,294 463,294 463,294 463,294 463,294 462,294 462,294 462,294 462,293 461,293 461,293 461,293 460,293 460,293 460,293 460,293 460,294 460,294 459,294 459,294 459,295 458,295 458,295 458,295 458,295 458,295 457,295 457,295 457,295 457,295 456,295 456,295 455,295 455,295 455,295 454,295 454,295 454,295 453,295 453,295 453,295 452,294 452,294 452,294 452,294 453,294 453,294 453,294 453,294 453,294 453,294 453,293 453,293 453,293 453,293 453,293 452,293 452,292 451,292 451,292 451,292 451,292 451,292 451,292 451,292 451,292 451,292 451,293 450,293 450,293 450,293 450,293 450,294 450,294 450,294 449,294 449,294 449,294 449,294 449,294 449,294 449,294 449,294 448,294 448,294 448,294 448,294 447,294 447,294 447,294 446,294 446,294 446,294 446,294 446,294 445,295 445,295 444,295 444,295 444,295 443,295 443,295 443,295 443,295 443,295 443,294 443,294 443,294 443,294 442,294 442,294 442,294 442,293 441,293 441,293 441,293 441,293 441,293 441,292 440,292 440,292 440,292 440,292 440,292 440,292 440,292 440,292 440,292 440,292 440,292 440,292 440,293 440,293 439,293 439,294 439,294 439,294 439,295 438,295 438,295 438,295 438,295 438,295 439,295 439,295 439,295 440,295 441,295 441,295 441,295 441,296 441,296 441,296 441,296 441,296 441,296 441,296 441,296 441,296 441,297 441,297 441,297 440,297 440,297 440,297 439,297 439,297 439,297 439,297 439,297 439,297 439,297 438,298 438,298 438,299 438,299 437,300 437,300 437,300 437,300 437,300 437,300 437,300 437,300 437,300 437,300 437,300 436,300 436,300 436,299 436,299 436,299 436,299 435,298 435,298 435,298 435,297 435,296 435,296 436,296 437,295 437,295 437,295 437,295 437,295 437,295 437,295 437,295 438,295 438,295 438,295 438,295 438,295 438,295 438,294 437,294 437,294 437,294 437,294 437,295 437,295 437,295 437,295 437,294 437,294 437,294 437,294 437,294 437,294 437,294 437,294 437,294 437,294 436,294 436,294 436,293 436,293 436,293 436,293 436,294 436,294 436,294 436,293 436,293 436,293 436,293 436,293 436,293 436,293 436,293 436,293 436,293 436,293 436,293 436,293 436,293 436,293 436,293 436,293 435,292 435,292 435,292 435,292 435,292 435,292 435,292 435,292 434,291 434,291 434,291 434,291 434,292 433,292 433,292 433,292 433,291 433,291 433,291 433,291 433,291 433,291 433,291 433,291 433,291 433,292 434,292 434,292 434,292 434,292 433,292 433,293 433,293 433,292 433,292 433,292 433,292 433,292 433,292 433,292 433,292 432,292 432,292 432,292 432,292 432,292 432,292 432,292 432,292 432,293 432,293 432,293 432,293 431,293 431,293 430,293 430,293 430,293 430,293 430,292 430,292 430,292 430,292 430,292 430,291 430,291 430,291 430,291 430,291 430,291 430,291 430,291 429,291 429,291 428,291 428,291 428,291 428,291 427,291 427,291 427,291 427,291 427,291 427,291 427,291 426,291 426,291 426,291 426,291 425,291 424,291 424,291 424,291 424,291 423,291 423,291 424,290 424,290 424,290 424,290 424,290 425,290 424,290 424,290 424,290 424,290 424,290 424,290 423,290 423,290 423,290 423,290 423,290 422,290 422,290 422,290 422,289 421,289 421,289 420,289 420,288 420,288 420,288 419,289 419,289 419,289 419,288 419,288 419,288 418,288 418,288 418,288 418,288 418,288 418,288 418,288 418,287 418,287 417,287 417,287 417,287 417,287 417,287 417,287 417,287 417,287 417,286 417,286 417,285 417,285 418,285 418,285 418,285 418,285 418,284 418,284 418,284 418,284 418,284 418,284 418,284 418,283 418,283 418,283 418,283 418,283 418,283 418,283 418,283 418,282 418,282 419,282 419,281 419,281 420,281 420,281 420,281 421,280 421,280 421,280 421,280 421,280 421,280 422,280 422,280 422,280 422,280 422,280 422,280 423,280 423,280 423,280 423,280 424,280 424,280 424,280 424,280 424,280 423,278 423,278 423,278 423,278 423,278 423,278 423,278 423,278 423,277 423,277 423,277 423,277 423,276 423,276 423,276 423,276 423,276 423,275 422,275 422,275 422,275 422,275 421,273 421,273 421,273 421,273 420,272 420,272 420,272 420,272 420,272 419,272 418,271 418,271 417,271 417,271 416,271 416,271 416,271 416,271 416,271 416,271 416,271 416,271 415,271 415,271 414,270 414,270 414,270 414,270 414,270 413,270 413,270 413,270 413,270 412,270 412,270 412,270 412,270 412,269 412,269 412,269 412,269 412,269 412,269 412,269 411,269 411,269 411,269 410,269 410,269 410,268 409,268 409,268 409,268 408,268 408,268 408,268 407,267 407,267 407,267 406,267 406,266 405,266 405,266 405,266 405,266 405,266 405,265 405,265 405,265 405,265 405,265 405,265 405,265 405,265 405,264 404,263 404,263 404,262 404,262 404,262 404,261 403,261 403,259 402,258 402,258 402,257 402,257 402,257 402,257 402,257 399,255 399,255 399,255 399,255 399,255 399,255 399,255 398,254 398,253 398,253 398,252 398,252 398,252 398,252 398,252 398,252 397,252 397,251 397,251 397,251 396,250 396,250 396,250 395,250 395,250 395,250 395,250 395,250 395,249 395,249 395,249 395,249 395,248 395,248 395,248 395,248 395,248 395,247 395,247 395,247 395,247 395,247 395,247 395,247 395,247 395,246 395,246 394,246 394,246 394,246 394,246 393,246 393,246 393,246 392,246 392,246 392,246 392,246 392,246 392,246 391,246 391,246 391,245 390,245 390,245 390,245 389,245 389,245 389,245 388,245 387,244 387,244 387,244 386,244 386,245 386,245 386,245 386,245 385,245 385,245 385,245 385,246 384,246 384,246 384,246 384,246 384,246 384,246 384,246 384,246 383,246 383,246 383,246 383,246 383,246 382,246 382,246 382,246 382,246 382,246 381,246 381,246 381,247 381,247 381,247 381,247 380,247 380,247 380,247 380,247 380,247 380,247 379,247 379,247 379,247 379,247 378,247 378,247 378,247 377,246 377,246 377,246 377,246 377,246 377,246 377,245 377,245 377,245 376,245 376,244 376,244 376,243 376,243 376,243 376,243 376,242 376,242 377,242 377,242 377,242 377,241 377,241 378,241 379,240 379,240 380,240 380,240 380,239 380,239 380,239 380,239 380,238 380,238 380,237 380,237 380,237 380,237 380,236 380,236 380,236 380,236 380,236 380,236 380,236 380,236 380,236 380,236 380,236 380,235 379,235 379,235 379,235 379,235 379,235 379,235 378,235 378,235 378,235 377,235 377,235 377,235 377,235 377,235 377,234 377,234 377,234 376,234 376,233 376,233 375,233 375,233 375,233 375,233 375,233 375,233 374,233 374,233 374,233 374,233 373,233 373,233 373,233 372,233 372,233 372,233 372,234 372,234 372,234 372,234 372,234 372,234 372,234 372,234 373,234 373,235 373,235 373,235 373,235 373,235 373,235 373,235 373,235 373,236 373,236 373,236 373,236 372,236 372,236 372,236 372,236 372,236 371,236 370,236 370,236 370,236 370,236 370,236 369,236 369,237 369,237 369,237 369,237 369,237 369,237 370,237 370,237 370,238 370,238 370,238 370,238 370,238 370,238 369,238 369,238 369,238 369,239 368,239 368,239 368,239 367,240 367,240 367,240 367,240 367,240 367,239 367,239 367,239 366,239 366,239 366,238 366,238 366,238 365,238 365,238 365,238 365,238 365,238 364,238 364,238 364,238 363,238 363,238 363,238 363,238 363,238 363,238 362,238 362,238 362,238 362,238 362,239 363,239 363,239 363,239 363,239 363,240 363,240 363,240 363,240 362,241 361,241 361,241 360,241 360,241 360,241 360,241 360,241 360,241 359,241 358,241 358,241 358,241 358,240 358,240 358,240 357,240 357,240 357,240 357,240 357,240 357,240 356,240 356,240 356,240 356,240 355,241 355,241 355,241 355,241 355,241 355,242 355,242 355,242 354,242 354,242 354,242 353,242 353,243 353,243 353,243 353,243 353,243 353,243 354,244 354,244 354,245 354,245 354,245 354,245 354,245 354,245 355,246 355,245 355,245 355,245 355,245 356,245 356,246 356,246 356,246 356,246 357,246 357,246 357,246 358,246 358,246 358,246 359,246 359,246 359,246 359,246 359,246 358,247 358,247 358,247 358,247 358,248 358,248 358,248 358,248 358,248 358,248 359,249 359,249 359,249 360,249 360,249 360,249 360,249 360,249 360,250 360,250 360,250 359,250 359,250 359,250 359,250 359,251 359,251 359,251 359,251 359,251 359,251 359,251 359,251 359,251 359,251 359,252 359,252 359,252 359,252 359,253 359,253 359,253 360,253 360,253 360,253 360,254 359,254 359,254 359,254 360,254 360,254 360,255 360,255 360,255 360,256 360,256 361,256 361,256 361,256 361,256 362,256 362,256 362,256 361,257 361,257 361,257 361,257 361,257 362,257 362,257 362,257 362,258 362,258 363,258 363,258 363,258 363,258 363,258 363,258 363,258 364,258 364,258 364,258 365,258 365,258 365,258 365,258 365,258 365,258 366,258 366,258 366,258 367,258 367,258 367,259 367,259 368,259 368,259 368,259 368,259 368,259 368,259 368,259 368,260 368,260 368,260 368,260 368,260 368,260 369,261 369,261 369,262 370,262 370,262 370,262 370,262 370,262 370,262 370,262 371,262 371,262 372,262 372,262 372,262 372,262 372,262 372,262 373,262 373,262 373,262 373,263 373,264 373,264 373,264 374,264 374,264 374,264 375,264 375,264 375,265 375,265 376,265 376,265 376,266 376,266 376,266 376,266 376,266 376,266 376,266 376,266 376,266 376,266 376,267 377,267 377,267 377,267 377,267 377,267 377,268 377,268 377,268 376,268 376,269 376,269 376,269 376,269 376,269 376,269 376,270 376,270 376,270 376,270 376,270 376,270 377,271 377,271 377,271 378,271 378,271 378,272 378,272 378,272 378,272 378,272 378,272 377,273 377,273 377,273 377,273 377,273 377,273 377,273 377,273 377,274 377,274 377,274 377,274 377,274 377,274 377,275 377,275 377,275 377,275 377,275 377,275 376,275 376,275 376,275 376,275 375,275 375,275 375,275 375,275 375,275 375,275 375,275 374,275 374,275 374,275 374,276 374,276 373,276 373,276 373,276 372,276 372,276 372,276 372,276 371,276 371,276 371,276 371,277 370,277 370,277 370,277 370,277 370,277 370,277 370,277 370,277 370,277 370,277 370,278 371,278 371,278 371,278 371,278 372,278 372,278 372,278 372,279 372,279 372,279 372,280 372,280 372,280 372,280 372,280 371,280 371,280 371,280 371,280 370,281 370,281 370,281 369,281 369,281 369,281 369,281 369,282 369,282 369,282 369,282 368,282 368,282 368,282 367,282 367,282 367,282 366,282 366,282 366,282 366,282 366,281 366,281 366,281 366,281 366,281 366,281 366,280 366,280 365,280 365,280 365,280 364,280 364,280 364,280 363,280 363,279 363,279 362,279 362,279 362,279 362,279 362,279 362,279 362,279 362,280 361,280 361,280 361,280 361,280 360,280 360,280 360,280 360,280 360,280 360,280 360,280 360,280 360,280 360,280 359,280 359,280 359,280 359,280 359,280 359,280 359,280 359,280 359,280 359,280 359,279 359,279 359,279 359,278 359,278 358,278 358,278 358,278 358,278 358,278 357,278 357,278 357,278 356,278 356,277 356,277 356,277 355,276 355,276 355,276 355,275 354,275 354,275 354,275 354,275 354,275 353,275 353,275 353,275 353,275 353,275 352,275 352,275 352,275 352,275 351,275 351,275 351,275 350,275 350,275 350,275 350,275 350,275 350,275 350,275 350,275 350,276 350,276 350,276 350,276 350,276 350,276 349,276 349,276 349,276 348,277 347,277 347,277 347,277 347,277 347,277 347,277 347,277 346,276 346,276 346,276 346,276 346,276 344,275 344,275 344,275 344,275 343,275 343,275 342,275 342,276 341,276 341,276 341,276 341,276 341,276 341,276 341,276 341,276 341,277 341,277 341,277 341,278 340,279 340,279 340,279 340,279 338,281 338,281 338,281 338,281 337,281 337,281 337,281 337,281 336,282 336,282 336,282 336,282 336,281 335,281 335,281 335,281 334,281 334,281 334,281 334,281 333,281 333,280 333,280 333,280 333,280 333,279 333,279 333,279 332,279 332,279 332,279 332,279 332,279 331,278 331,278 331,278 331,278 330,278 330,278 330,277 329,277 329,277 328,277 328,277 328,276 328,276 328,276 328,276 328,276 328,276 328,276 327,276 327,276 327,276 327,276 327,276 326,275 326,275 326,275 326,275 326,275 325,275 325,275 325,275 325,275 325,275 325,275 325,275 325,275 325,275 325,275 324,275 324,275 324,275 324,275 323,275 323,275 323,275 323,275 324,274 324,274 324,274 323,274 323,274 323,273 323,273 323,273 324,273 324,273 324,273 325,272 325,272 325,272 325,272 325,272 326,271 326,271 326,271 326,271 326,271 326,270 325,270 325,270 325,269 324,269 324,268 324,268 324,268 324,267 324,267 323,266 323,266 323,266 323,266 323,265 323,265 322,265 322,265 322,265 322,265 322,265 322,265 322,265 322,264 321,264 321,264 320,264 319,263 319,263 319,263 318,262 318,262 317,262 317,262 317,262 317,262 317,262 316,261 315,261 314,261 314,260 314,260 313,260 313,260 313,260 313,259 311,259 311,259 310,258 310,258 309,258 309,258 309,257 309,257 309,257 308,257 308,257 308,257 308,257 308,256 307,255 307,255 307,254 307,254 307,254 307,254 307,254 307,254 307,254 307,254 307,254 306,253 306,253 306,253 306,253 305,252 305,252 305,252 305,252 305,252 305,252 305,252 305,252 304,252 304,252 304,251 304,251 304,251 303,251 303,251 303,251 303,251 303,251 303,251 302,251 302,251 302,251 302,251 302,251 301,251 301,251 301,251 301,251 301,251 300,251 300,251 300,251 300,251 300,251 299,251 299,251 297,252 297,252 297,253 296,253 295,253 295,253 293,254 293,254 293,254 293,254 292,254 292,254 290,255 289,255 288,255 288,255 285,256 281,254 277,252 275,251 273,250 271,249 268,248 267,248 265,247 262,246 260,245 258,244 257,244 255,243 253,242 252,241 251,240 250,240 249,239 248,239 247,238 247,238 246,237 244,237 242,236 241,235 240,235 240,235 238,234 237,234 237,233 236,233 235,232 233,231 232,231 232,230 230,230 229,229 228,229 226,228 225,227 223,226 222,225 220,224 212,219 211,218 209,218 208,217 208,217 208,217 207,217 207,217 206,217 205,218 204,218 202,219 202,219 202,219 202,218 201,218 201,217 201,217 201,217 202,217 203,217 203,217 204,217 205,216 206,216 206,216 206,216 206,216 206,215 205,215 204,214 204,213 204,212 204,211 204,210 204,209 203,208 203,206 203,204 202,202 202,200 202,198 202,196 201,194 201,193 202,191 201,189 201,187 201,185 201,182 201,180 201,178 200,177 200,176 200,174 200,172 199,170 199,169 199,167 199,166 199,165 198,164 198,163 197,162 197,161 197,159 196,158 196,158 196,156 195,155 195,154 195,153 195,152 194,151 194,150 194,150 194,149 194,149 194,148 194,148 194,148 194,147 194,147 194,147 195,146 195,146 196,146 196,145 196,145 197,145 197,145 198,145 198,145 199,146 200,146 200,146 201,146 202,146 203,146 204,146 205,146 205,146 206,145 206,145 207,145 207,145 207,145 208,144 208,144 209,144 210,144 210,143 211,143 211,143 211,143 211,143 211,143 211,143 212,143 212,143 212,143 212,143 211,143 211,143 211,143 211,143 211,143 211,142 211,142 211,142 211,142 212,142 213,143 214,143 214,144 215,144 215,144 215,144 215,144 223,143 223,143 223,143 223,143 223,143 224,141 227,137 227,137 228,136 228,136 228,136 228,136 228,136 228,136 228,136 228,136 228,135 228,135 228,135 228,134 228,134 228,134 228,133 228,133 229,133 229,132 229,132 229,132 229,132 230,132 230,130 230,129 230,129 230,129 230,128 231,128 231,128 232,127 232,127 233,126 233,126 234,125 234,125 235,125 235,125 235,124 235,124 235,124 235,124 236,124 236,124 237,124 237,123 237,123 237,123 237,122 238,122 238,122 238,122 238,121 239,121 239,121 239,121 239,120 240,120 240,119 242,117 242,117 243,117 243,117 243,117 243,117 243,117 244,116 244,116 244,116 244,116 244,116 245,116 245,116 245,115 245,115 246,115 246,115 247,114 247,114 248,113 248,113 249,113 249,113 250,112 250,112 250,112 251,112 251,112 251,112 252,113 252,113 253,113 253,111 253,111 253,111 253,111 253,111 253,110 253,110 254,110 254,110 255,109 255,109 255,109 255,108 256,108 256,108 256,107 256,107 257,107 257,107 257,107 258,107 258,106 259,106 259,106 260,105 261,105 263,104 263,104 263,100 264,100 264,100 267,99 269,99 269,99 270,99 270,99 270,99 271,98 272,98 272,98 272,98 272,98 272,98 272,98 272,98 273,97 275,96 277,95 280,93 282,92 288,88 288,88 291,84 295,78 297,76 300,72 301,72 301,71 301,71 301,71 301,71 301,71 301,71 301,71 299,71 299,71 299,69 298,66 298,65 298,63 298,62 298,62 298,62 298,62 299,61 300,59 301,56 303,54 305,50 307,49 307,49 307,48 307,48 307,48 308,48 308,48 308,48 309,48 310,48 310,48 310,48 310,48 309,48 308,46 308,46 308,46 308,46 307,46 307,46 307,46 307,46 306,45 306,45 306,45 306,44 306,44 306,43 306,43 306,43 306,43 306,43 306,43 306,43 307,43 307,43 307,43 308,42 310,42 310,42 311,43 311,43 311,43 311,43 314,43 315,43 318,44 318,44 318,43 315,43 314,43 312,42 312,42 312,42 312,42 311,42 311,42 313,42 313,42 313,42 313,42 313,42 313,41 313,41 313,41 313,40 313,40 313,39 314,39 314,39 314,39 314,38 314,38 314,38 314,38 314,37 314,37 314,37 314,36 314,36 315,36 315,35 315,34 316,34 316,33 316,33 316,33 315,33 315,33 315,32 315,32 315,32 316,32 316,32 316,32 317,32 317,32 317,32 317,32 317,32 317,32 317,32 318,32 318,32 319,32 319,32 319,32 320,32 321,31 322,31 323,31 323,31 324,30 324,30 324,30 324,30 324,30 324,30 325,30 325,30 325,30 326,30 326,30 326,30 326,29 326,29 326,29 327,29 327,29 327,29 327,29 327,29 328,29 328,29 329,29 329,28 329,28 329,28 329,28 330,28 330,28 330,28 330,28 331,27 331,27 331,27 331,27 331,27 331,27 332,26 332,26 332,26 332,26 332,26 333,26 333,26 333,26 333,26 333,25 333,25 334,25 334,25 334,25 334,25 336,25 343,24 345,24 346,23 346,23 348,22 349,22 350,21 355,19 358,17 358,17 359,16 359,16 360,16 360,16 361,15 361,15 361,15 360,14 359,14 359,14 359,14 358,14 358,14 358,13 358,13 358,13 359,13 359,13 360,13 360,13 360,13 360,13 359,13 358,13 358,13 358,13" id="8516" class="canton" fill="steelblue" stroke-width="1" stroke="white" geotype="canton" geoname="Saint-Jean-de-Monts" code_insee="8516" code_departement="85" nom_departement="Vendée" code_region="52" nom_region="Pays de la Loire"/><polygon points="50,18 50,17 51,17 51,17 52,17 53,17 53,17 54,16 54,16 56,16 57,16 58,15 58,15 59,15 59,15 60,15 60,15 60,15 60,15 60,15 60,15 60,15 59,15 59,15 59,15 58,15 58,15 58,16 58,16 58,16 58,16 58,17 58,17 57,17 58,17 58,18 58,18 59,17 59,17 59,17 59,17 59,17 59,17 59,18 59,18 59,18 59,18 60,18 60,18 60,18 61,18 61,18 61,18 61,18 61,18 61,18 61,18 61,17 61,17 61,17 61,17 61,17 61,16 60,16 60,16 60,16 60,16 60,16 60,16 60,16 60,16 60,16 60,16 60,16 61,15 61,15 61,15 61,15 61,15 61,16 61,16 61,16 62,17 62,18 62,18 62,18 63,17 65,17 66,17 68,17 69,17 71,17 72,17 73,16 73,16 73,16 74,16 74,15 75,15 75,15 75,15 76,15 77,15 77,14 78,14 78,14 78,14 79,14 80,13 80,14 80,14 81,14 81,14 82,14 83,14 83,14 84,14 84,14 84,14 85,14 85,14 85,14 85,14 85,15 87,15 88,15 90,15 91,15 93,14 94,14 94,14 95,14 96,14 97,14 98,15 99,15 100,15 102,14 103,15 104,15 104,15 105,16 105,16 105,16 105,16 107,19 108,19 108,19 108,19 108,20 108,20 108,20 108,21 109,21 109,21 109,21 109,21 109,21 109,21 110,22 110,22 110,22 110,22 110,22 111,22 111,23 112,23 113,23 113,23 114,23 113,23 113,24 114,24 114,24 115,24 116,24 116,24 117,24 118,25 118,25 118,25 119,25 119,25 120,25 121,25 121,25 121,25 121,25 122,25 123,25 124,25 124,25 124,25 125,25 125,25 125,25 126,25 126,25 126,25 127,25 127,25 127,25 128,25 128,25 128,25 128,25 128,25 129,25 129,25 129,25 129,25 129,25 129,25 129,26 129,26 129,26 130,26 130,26 130,27 131,27 131,27 131,27 132,27 132,27 132,27 132,27 132,27 132,27 132,27 132,27 132,27 132,28 132,28 132,28 132,28 132,28 132,28 132,28 132,28 132,28 133,28 133,28 133,28 133,28 133,28 133,28 133,28 133,28 133,28 133,29 133,29 133,29 133,29 133,29 133,29 133,29 133,29 134,29 134,29 134,29 134,29 134,30 135,30 135,30 135,30 134,31 134,31 134,31 134,31 134,31 134,32 134,32 135,32 135,32 135,32 135,33 136,33 136,33 136,33 136,33 137,33 137,33 137,33 137,33 137,33 137,33 137,34 137,34 136,34 136,34 136,34 136,34 135,34 135,35 135,35 135,35 134,36 134,37 134,37 134,37 134,38 134,38 134,38 134,39 134,40 134,41 134,41 135,41 135,42 135,42 135,43 135,43 135,44 136,45 135,45 136,46 136,46 136,46 136,46 135,47 136,47 136,48 135,49 135,49 135,50 135,50 135,51 134,51 134,51 134,51 134,51 134,51 133,51 133,51 133,51 133,50 133,51 132,51 132,51 132,51 132,51 132,51 132,51 132,51 132,50 131,50 131,50 131,49 130,49 129,49 129,48 129,48 128,48 127,48 127,48 126,47 125,47 125,47 124,46 124,46 123,46 123,46 123,46 122,46 122,46 121,45 120,45 119,44 119,44 118,44 117,44 117,44 116,43 114,42 114,43 114,43 114,43 114,43 114,43 114,43 114,43 114,43 114,43 114,43 114,43 114,43 114,43 114,43 114,43 114,43 115,44 115,44 115,44 115,44 115,45 115,45 115,45 115,45 115,45 115,45 114,45 114,45 114,45 114,45 114,45 113,46 113,46 113,46 115,45 116,45 117,45 117,45 118,45 118,45 118,45 118,45 118,45 118,45 119,45 119,45 119,45 119,46 120,46 120,47 120,48 121,48 121,49 121,49 121,49 121,49 121,49 121,50 121,50 121,50 121,50 121,50 120,50 119,50 119,50 119,51 119,51 119,51 120,51 120,51 120,51 120,51 121,51 121,51 121,51 121,51 121,51 121,51 122,51 122,51 122,51 122,51 122,51 122,51 122,51 123,51 123,51 123,51 123,51 123,51 123,51 123,51 123,51 123,52 122,52 122,52 122,52 122,52 122,52 122,52 122,52 122,52 122,52 122,52 122,52 122,52 122,52 122,53 121,53 121,53 121,53 121,53 121,53 121,53 121,53 121,53 121,53 121,53 121,53 121,53 121,53 121,53 121,53 121,53 121,53 121,53 120,53 120,53 120,53 120,53 120,53 120,53 120,54 120,54 120,54 120,54 119,54 119,54 119,54 119,54 119,54 119,54 119,54 119,54 119,54 119,54 119,54 119,55 118,55 118,55 118,55 118,55 118,55 118,55 118,55 118,55 118,56 118,56 118,56 118,56 118,56 118,56 118,56 118,56 118,56 118,56 119,56 119,57 120,58 120,58 120,58 119,58 119,58 119,58 118,58 118,58 117,58 117,58 117,58 117,58 117,58 117,58 117,58 117,58 117,58 117,59 117,59 117,59 117,59 117,59 117,59 117,59 117,59 117,59 117,59 117,59 117,59 118,59 118,60 118,60 118,60 118,60 118,60 118,60 118,60 118,60 118,61 118,61 119,61 119,61 119,61 119,61 119,61 119,61 119,61 119,61 119,61 120,61 120,61 120,62 120,62 120,62 120,62 120,62 120,62 120,62 120,62 120,62 121,62 121,62 121,62 121,63 121,63 121,63 122,63 122,63 122,63 122,63 122,63 122,63 122,63 122,63 122,63 122,63 122,64 122,64 122,64 122,64 122,64 122,64 122,64 122,64 122,64 122,64 122,64 122,64 122,64 122,64 122,65 122,65 122,65 122,65 122,65 122,65 122,65 122,65 122,65 122,65 122,65 122,65 122,65 122,65 122,65 122,65 122,65 122,65 122,66 123,66 123,66 123,66 123,66 123,66 123,66 123,66 123,66 124,66 124,66 124,67 124,67 124,67 124,67 124,67 124,67 124,66 124,66 125,66 125,66 125,66 125,66 125,66 125,66 125,66 125,66 125,66 126,65 128,64 128,64 129,64 132,65 132,65 133,66 134,66 134,66 135,66 135,67 136,67 136,67 137,67 138,68 139,68 139,68 141,69 142,69 142,70 143,70 143,70 144,70 146,71 147,71 147,71 148,72 149,72 149,72 150,72 150,73 151,73 154,74 155,74 155,74 156,75 158,75 158,75 159,76 160,76 161,76 161,77 162,77 163,77 163,77 164,78 165,78 166,78 166,78 167,79 168,79 168,79 169,79 169,79 169,79 169,79 169,79 169,79 169,79 171,80 172,80 173,80 174,80 175,80 176,81 177,81 178,82 178,82 179,82 179,82 179,82 179,82 179,82 179,82 180,82 181,83 181,83 182,83 183,83 184,84 185,84 186,85 186,85 187,85 187,85 188,86 188,86 188,86 189,86 189,86 190,87 191,87 192,87 192,88 193,88 193,88 194,88 194,88 194,89 194,89 195,89 195,90 195,91 196,91 196,91 196,91 196,92 196,92 197,93 197,93 197,94 198,95 198,95 198,96 199,96 199,97 199,97 199,98 200,98 200,99 200,98 200,98 200,98 200,98 201,98 201,98 201,98 201,98 201,98 201,98 201,98 201,98 202,99 202,99 202,99 202,99 202,99 202,99 202,99 202,99 202,99 202,99 202,99 202,99 202,99 202,99 202,100 202,100 202,100 202,100 202,100 202,100 202,100 202,100 202,100 201,100 201,100 201,100 201,100 201,100 201,101 202,101 202,102 202,102 202,102 203,103 203,103 203,104 203,104 203,104 203,104 203,104 203,104 203,104 203,104 203,104 203,104 203,104 203,105 202,105 200,105 200,105 200,106 200,106 199,106 199,106 199,106 199,107 199,107 199,107 199,107 199,108 199,108 199,108 199,108 199,108 199,108 199,108 199,108 199,108 199,109 199,109 199,109 199,109 199,109 199,109 199,109 199,109 199,109 199,109 199,109 199,109 199,110 199,110 199,110 199,110 199,110 199,110 199,110 199,109 199,110 200,110 200,110 200,110 200,110 200,110 200,110 200,110 200,110 200,110 200,110 202,111 202,111 202,111 202,111 202,111 202,111 202,111 202,111 202,111 203,111 203,111 203,111 203,111 203,111 203,111 203,111 203,111 203,111 203,111 203,111 204,111 204,111 204,111 204,111 204,111 204,111 204,112 204,113 204,113 204,113 204,113 204,113 204,113 203,113 203,113 203,113 203,113 203,113 203,113 203,113 203,113 203,113 204,114 203,114 202,115 202,115 202,115 202,115 202,115 202,116 202,117 201,117 201,117 201,117 201,119 201,122 201,122 201,122 201,122 202,122 202,124 202,124 202,124 201,125 201,125 201,125 201,125 201,127 201,127 200,127 200,128 200,128 200,128 200,128 200,128 199,128 199,129 199,129 198,130 198,130 198,130 198,131 199,131 199,131 199,131 199,133 200,134 200,135 200,135 201,136 201,136 201,137 202,137 202,138 202,138 202,139 202,139 202,139 203,140 203,140 203,140 202,141 202,141 202,142 202,142 202,142 201,143 201,143 201,142 199,142 198,141 197,141 196,141 195,141 194,140 193,140 193,140 193,139 193,139 192,139 192,139 192,138 192,138 191,138 191,138 190,137 190,137 190,137 189,137 189,136 189,136 188,136 188,136 188,135 188,135 187,135 187,134 187,134 187,134 186,133 185,132 185,132 185,131 184,130 184,130 184,129 184,128 183,127 183,126 183,126 182,125 182,124 182,123 182,123 181,123 181,122 181,121 180,120 180,119 179,117 179,117 179,116 179,115 178,115 178,114 177,113 177,113 177,112 176,111 176,110 176,109 175,109 175,108 175,108 174,108 174,107 174,106 173,106 173,105 173,104 172,104 172,103 172,103 171,102 171,102 171,102 171,101 170,101 170,101 170,101 170,101 170,101 169,101 169,101 169,100 169,100 169,100 168,100 168,100 168,99 168,99 168,99 167,99 167,99 167,98 167,98 167,98 166,98 166,97 166,97 165,97 165,96 165,96 165,96 165,96 164,95 164,95 164,95 164,95 164,95 163,95 163,94 163,94 163,94 163,94 162,94 162,94 162,93 162,93 162,93 161,93 161,93 161,93 161,93 161,93 161,92 160,92 160,92 160,92 160,92 159,91 159,91 159,91 159,91 159,91 159,91 158,91 158,91 158,90 157,90 157,90 157,89 156,89 156,89 156,89 156,89 156,89 156,88 155,88 155,88 155,88 154,88 154,87 154,87 153,87 153,87 153,87 153,87 152,86 152,86 152,86 152,86 152,86 152,86 151,86 151,85 151,85 151,85 150,85 150,85 150,85 150,85 150,84 150,84 149,84 149,84 149,84 148,83 148,83 148,83 148,83 148,83 147,83 147,83 147,83 147,82 147,82 147,82 146,82 146,82 146,82 145,82 145,81 145,81 145,81 145,81 144,81 144,81 144,81 143,80 143,80 143,80 143,80 143,80 142,79 142,79 142,79 142,79 141,79 141,79 141,79 140,78 140,78 140,78 139,78 139,77 138,77 138,77 137,77 137,77 136,76 136,76 135,76 135,76 135,76 134,76 134,76 134,75 133,75 133,75 132,75 132,75 131,74 125,74 125,74 124,74 124,74 122,74 122,74 121,75 119,75 119,75 119,75 118,75 118,75 113,75 112,75 111,75 111,75 110,75 110,76 110,76 110,76 109,76 109,76 108,76 108,76 107,77 107,77 107,77 107,77 106,78 106,78 106,78 105,79 105,79 105,79 105,79 104,79 104,80 103,80 103,80 103,80 102,80 102,80 100,81 100,81 99,81 98,81 97,81 97,81 96,81 96,80 95,80 94,80 94,80 93,80 93,79 93,79 92,79 92,79 92,79 92,79 92,79 92,78 92,78 91,78 91,77 91,77 90,77 90,77 90,76 89,76 89,76 89,76 89,76 89,76 89,76 88,76 88,75 88,75 87,74 87,74 87,73 87,73 87,73 86,73 86,72 86,72 86,72 86,72 86,72 86,72 85,72 85,71 85,71 85,70 84,70 84,70 84,70 84,69 83,69 83,69 83,69 83,69 83,69 83,68 82,68 82,68 82,68 82,67 82,67 81,67 81,67 81,67 81,67 81,66 81,66 80,66 80,66 80,66 80,66 80,66 80,65 79,65 79,65 79,65 79,64 78,64 78,64 78,64 78,64 78,63 77,63 77,63 77,62 77,62 77,62 76,62 76,61 76,61 76,61 76,61 76,61 76,61 76,61 75,61 75,60 75,60 75,60 75,60 74,59 74,59 74,59 73,59 73,59 73,58 73,58 73,58 73,58 72,58 72,58 72,58 72,58 71,57 71,57 71,57 71,57 70,57 70,57 70,57 70,57 68,56 68,56 67,56 67,56 67,56 67,55 66,55 66,56 66,56 66,55 65,55 65,55 64,56 64,56 64,56 64,56 64,56 64,56 64,56 64,56 63,55 63,55 63,55 63,55 62,55 62,54 62,54 61,54 61,54 61,54 61,54 60,53 59,53 59,53 59,53 59,53 59,53 59,53 57,52 57,52 57,52 57,52 57,52 56,52 56,51 56,51 56,51 56,51 55,50 55,50 55,49 55,49 55,48 55,48 55,47 55,47 56,46 56,45 56,44 56,43 57,42 58,41 58,41 58,41 59,41 59,41 59,40 59,40 60,39 60,39 61,38 61,38 61,38 63,35 63,35 64,34 64,33 64,32 65,31 65,31 65,30 65,29 64,29 64,29 63,29 62,29 62,28 62,28 62,27 62,27 62,27 62,26 62,26 62,26 61,25 61,25 61,25 61,25 61,25 59,25 59,24 59,24 59,24 58,24 57,24 57,24 57,24 56,24 56,23 56,23 56,22 56,22 56,22 55,22 55,22 55,21 55,20 55,20 55,19 54,19 54,19 54,19 53,19 53,19 53,19 52,18 52,18 51,18 50,18 50,18" id="8516" class="canton" fill="steelblue" stroke-width="1" stroke="white" geotype="canton" geoname="Saint-Jean-de-Monts" code_insee="8516" code_departement="85" nom_departement="Vendée" code_region="52" nom_region="Pays de la Loire"/><polygon points="0,0 0,0 0,0 0,0 0,0 1,0 1,0 1,0 1,0 1,0 1,0 1,0 1,0 1,0 1,0 1,1 1,1 1,1 1,1 1,1 2,1 2,1 2,1 2,1 2,1 2,1 2,1 2,1 2,1 2,1 2,1 2,1 2,1 2,1 2,1 2,1 3,1 3,1 3,1 3,1 3,1 3,1 3,1 3,1 3,1 3,2 3,2 3,2 3,2 3,2 3,2 3,2 3,2 3,2 3,2 4,2 4,2 4,2 4,2 4,2 4,3 4,3 4,3 4,2 4,2 4,2 4,2 4,2 4,2 4,2 4,2 4,3 4,3 4,3 4,3 4,3 4,3 5,3 5,3 5,3 5,3 5,4 5,4 5,4 5,4 5,4 5,4 6,4 6,4 6,4 6,4 6,4 6,4 6,4 6,4 6,4 6,4 6,4 6,4 6,4 6,4 6,4 5,4 5,4 5,4 5,4 5,4 5,4 5,4 5,4 5,4 5,4 5,4 5,3 5,4 5,4 4,4 4,4 4,4 4,3 5,3 4,3 4,3 4,3 4,3 4,3 4,3 3,3 3,3 3,3 3,3 3,3 3,3 3,3 3,3 3,3 3,3 3,3 3,3 3,3 3,3 3,2 2,2 2,2 2,2 2,2 2,2 2,2 2,2 2,2 2,2 2,2 1,2 1,2 1,2 1,2 1,2 1,1 1,1 1,1 1,1 1,1 1,1 1,1 1,1 0,1 0,1 0,1 0,0 0,0 0,0 0,0 0,0 0,0 0,0" id="8516" class="canton" fill="steelblue" stroke-width="1" stroke="white" geotype="canton" geoname="Saint-Jean-de-Monts" code_insee="8516" code_departement="85" nom_departement="Vendée" code_region="52" nom_region="Pays de la Loire"/></svg>