<?xml version="1.0" encoding="utf-8"?>
<svg version="1.1" id="svgmap" xmlns="http://www.w3.org/2000/svg" xmlns:xlink="http://www.w3.org/1999/xlink" x="0px" y="0px" width="100%" height="100%" viewBox="0 0 500 229">
<polygon points="1,113 2,113 4,111 6,108 8,106 11,104 13,103 14,102 15,101 17,100 17,99 17,98 19,97 20,97 22,96 25,94 28,93 29,92 30,92 33,92 35,92 36,93 37,93 38,93 41,94 43,95 43,96 44,96 45,97 45,97 45,98 46,98 46,99 45,99 46,100 48,102 48,102 46,103 45,103 49,106 48,107 52,110 51,111 51,112 53,112 53,113 55,113 56,114 56,114 57,114 59,112 66,115 68,115 68,116 71,116 74,116 78,116 81,116 83,116 84,116 86,116 90,115 91,115 93,115 93,115 92,114 92,113 92,113 90,113 91,110 92,109 92,109 92,109 91,108 92,107 92,107 91,106 93,106 94,104 93,104 93,104 93,104 94,103 95,103 95,104 99,95 101,88 100,88 100,85 100,85 100,83 99,82 102,80 99,79 100,77 98,77 98,76 95,75 92,72 91,72 90,71 89,71 87,70 87,70 90,66 90,66 90,66 90,66 91,65 91,65 91,64 92,64 92,63 92,63 92,63 92,62 92,62 92,61 92,61 92,61 92,61 92,61 93,60 93,59 93,58 93,58 93,58 93,57 93,56 94,55 94,54 94,52 94,52 94,51 95,48 95,48 96,46 96,46 96,46 96,45 97,44 97,44 97,43 98,43 98,43 98,43 98,43 98,43 98,43 98,43 98,43 100,44 100,44 100,44 100,44 102,45 103,45 103,45 103,45 104,45 104,45 105,46 105,46 105,46 106,47 106,47 107,47 108,48 108,48 109,49 110,50 110,50 110,50 110,50 112,51 112,51 112,51 112,51 112,52 112,52 112,52 112,52 112,53 112,53 112,53 112,53 113,53 113,53 114,53 116,53 116,53 116,53 117,53 117,53 117,53 117,53 119,54 119,54 119,54 120,54 120,54 120,54 121,52 121,52 122,53 125,55 125,55 126,55 127,55 127,56 127,56 128,55 129,54 129,54 129,53 130,52 130,52 130,52 130,52 130,52 130,52 130,52 130,52 131,52 131,52 131,52 131,52 131,52 132,51 132,51 132,51 132,51 132,50 132,50 132,50 133,50 133,50 133,50 133,50 133,50 133,50 133,50 134,50 135,50 135,50 135,50 135,50 135,50 136,50 136,50 136,50 136,50 137,50 137,50 137,50 137,50 137,50 137,50 137,49 137,49 137,49 137,49 137,49 137,49 137,49 137,48 137,48 137,48 137,48 137,48 137,48 138,48 138,47 138,47 139,46 139,46 139,46 139,46 139,46 139,46 140,46 144,44 144,44 144,44 144,44 144,43 144,43 144,43 143,42 143,42 144,42 144,42 144,41 144,41 145,40 145,40 145,39 146,39 146,38 146,38 146,38 146,37 146,37 146,37 147,36 147,35 147,34 147,34 147,34 148,33 148,33 148,33 148,33 148,33 148,33 148,32 149,32 149,31 152,36 153,38 153,38 153,38 153,39 153,39 153,40 153,41 153,41 153,41 153,42 153,42 154,42 155,44 155,45 156,45 156,45 156,45 156,46 156,46 156,46 156,46 156,46 156,46 157,47 158,48 158,48 158,48 158,48 158,48 158,49 159,49 159,49 159,49 159,49 159,49 159,49 159,49 160,49 160,50 164,51 164,51 164,51 166,52 166,52 166,53 169,54 169,54 170,54 173,56 174,56 175,56 175,56 175,57 175,57 175,57 175,57 176,57 176,57 177,57 177,57 177,57 177,57 178,57 178,57 178,57 179,57 179,57 179,57 180,57 180,57 181,56 182,56 184,56 184,56 184,56 184,56 185,56 185,56 186,55 187,54 187,54 187,55 189,55 189,56 189,56 190,56 190,56 190,56 192,57 192,57 192,57 193,57 194,58 195,58 195,58 196,59 199,61 200,61 200,61 200,61 200,61 201,61 205,63 205,63 206,64 207,64 209,65 210,65 209,65 209,65 209,65 209,66 210,66 210,66 210,66 211,66 211,66 211,66 213,67 213,67 213,67 213,67 215,67 215,67 215,67 216,67 216,67 217,67 217,67 219,67 220,67 220,67 221,67 221,67 223,67 223,67 223,67 223,66 223,66 223,66 222,66 221,66 220,65 219,65 218,64 217,64 216,64 216,64 216,64 215,63 214,63 213,62 213,62 213,62 212,61 212,61 212,61 212,60 212,60 212,60 212,60 212,60 212,59 213,59 213,59 214,57 215,57 215,56 215,56 215,56 215,56 215,56 215,56 214,56 212,55 211,54 211,54 211,54 211,54 210,53 210,52 210,52 209,52 209,52 209,52 209,52 209,52 209,51 209,51 209,51 208,51 206,50 206,50 207,49 208,48 208,48 209,47 209,46 210,46 215,40 215,40 215,40 215,39 215,39 216,39 216,38 217,37 217,37 218,36 218,36 218,35 218,35 218,35 219,34 219,34 219,33 220,32 220,32 220,31 221,31 221,30 221,30 220,30 220,30 220,30 220,29 220,29 220,29 220,29 220,29 221,28 221,28 221,28 221,27 221,27 221,27 221,26 221,25 221,25 221,25 221,24 221,24 221,24 221,24 221,23 221,23 220,23 220,23 220,23 220,23 221,22 221,22 221,22 221,22 221,22 221,22 221,22 222,22 222,22 222,22 223,22 223,22 223,22 223,22 223,22 223,22 223,22 223,22 223,22 223,22 223,22 223,22 223,22 223,22 223,22 223,22 223,21 223,21 223,21 224,21 224,21 225,21 225,21 225,21 225,21 226,20 226,20 225,20 225,20 225,20 225,20 225,20 225,19 225,19 225,19 225,19 225,19 225,19 226,19 226,19 226,19 226,18 226,18 226,18 226,18 225,17 225,17 225,17 225,17 225,17 225,17 226,16 226,16 226,16 226,16 226,16 226,16 226,15 226,15 226,15 226,14 226,14 226,14 226,14 226,13 226,13 226,12 226,12 226,12 226,12 226,11 226,10 226,10 226,10 226,10 227,10 227,10 227,10 227,10 227,10 228,11 228,11 228,11 230,11 230,11 230,11 230,10 230,10 230,10 233,11 233,11 234,10 234,10 234,10 235,10 235,10 235,10 238,12 238,13 239,13 246,15 247,15 247,15 252,17 254,18 254,18 254,18 254,18 255,18 256,18 257,19 257,19 255,21 254,21 254,21 254,22 254,22 253,23 253,23 253,24 253,24 249,27 249,27 247,28 247,28 248,29 248,29 248,29 248,29 249,29 249,29 249,29 249,29 249,29 250,29 250,30 251,30 251,31 251,31 251,31 253,32 253,32 254,32 255,32 255,33 255,33 263,44 263,44 263,44 264,45 265,47 265,47 266,47 266,47 266,47 267,47 268,47 268,48 269,48 270,49 271,49 272,49 272,50 272,50 273,50 274,51 274,51 275,52 276,52 276,52 277,52 277,52 278,53 278,53 279,53 279,53 279,53 279,53 280,53 285,52 304,47 304,47 304,47 295,35 295,35 294,31 294,31 294,31 294,30 294,30 291,29 291,29 291,29 291,29 291,29 289,28 289,28 289,28 289,28 289,28 289,28 289,28 288,28 288,28 288,28 287,27 287,27 287,27 287,27 287,27 286,27 285,27 285,27 279,25 279,24 278,24 278,24 278,24 278,24 276,23 276,22 275,19 273,11 273,10 273,9 273,9 274,8 274,8 275,8 275,7 276,7 276,7 277,7 277,7 278,6 280,5 280,5 280,5 280,5 281,4 282,4 282,4 282,4 282,4 283,3 283,3 293,1 293,1 295,1 295,1 306,2 306,2 306,2 306,2 310,0 310,0 310,0 310,0 310,1 310,2 310,2 310,2 312,3 314,3 314,3 314,3 315,3 315,4 315,4 316,4 320,5 320,5 320,5 321,7 321,7 320,7 320,7 320,7 320,8 320,9 321,9 321,10 321,10 321,10 320,11 320,12 320,14 320,14 319,15 319,17 318,17 318,17 317,18 317,19 317,19 316,19 316,20 316,20 316,20 316,20 316,21 314,23 314,24 313,24 313,25 313,25 313,26 313,26 313,27 313,30 313,30 313,30 314,31 314,31 314,33 314,33 314,34 314,34 314,35 314,35 314,35 315,36 315,36 315,37 316,37 316,37 316,38 317,44 318,46 318,46 318,46 318,47 318,47 318,48 318,48 319,48 319,48 319,48 319,48 320,48 320,48 320,48 320,48 321,48 322,48 322,48 322,48 323,48 324,48 324,49 325,49 325,49 326,49 326,49 326,49 327,49 328,49 328,49 328,50 329,50 330,50 331,50 331,50 331,50 331,50 331,50 332,50 332,50 332,50 333,50 334,51 334,51 335,50 336,50 336,50 336,50 336,50 338,49 338,49 340,49 341,48 343,48 343,48 343,48 344,47 345,47 345,47 345,47 346,47 347,47 347,47 348,47 348,48 348,48 349,48 349,48 350,48 350,48 351,48 351,48 352,48 352,48 353,48 354,47 354,47 354,47 355,48 355,48 360,47 360,47 361,47 361,47 362,47 362,47 362,47 363,47 363,47 363,47 363,47 363,47 364,47 364,47 364,47 364,47 364,47 364,48 364,48 364,48 364,48 364,48 364,48 365,51 365,51 359,52 359,52 358,52 358,52 359,53 361,55 361,56 362,56 367,60 369,62 378,69 382,72 385,75 388,77 391,80 391,80 391,80 391,80 390,80 386,81 386,81 385,81 385,81 385,81 384,81 384,81 383,81 382,80 380,82 379,82 377,82 377,82 377,82 378,83 378,83 378,83 378,83 379,83 378,83 378,84 376,87 376,87 376,88 375,89 375,89 375,90 375,90 374,90 374,89 374,89 373,89 373,89 373,88 373,88 372,88 372,88 371,88 370,88 370,88 369,88 369,88 368,87 367,87 366,87 366,87 365,86 365,86 365,86 363,85 363,85 363,87 363,87 363,89 363,90 363,90 362,92 362,92 362,93 361,93 361,94 360,97 360,97 360,98 360,98 361,99 361,99 361,100 362,100 362,100 363,101 363,101 363,101 363,101 365,102 367,103 367,103 368,103 369,103 369,104 369,104 369,104 370,104 370,104 370,104 370,105 370,105 370,105 372,106 372,107 371,107 371,107 371,107 372,107 371,107 371,107 371,107 371,108 371,108 370,108 370,108 369,108 369,108 369,108 369,108 369,108 368,109 368,109 367,109 367,109 366,109 366,109 366,109 366,109 365,109 365,110 365,110 365,110 364,110 363,111 363,111 362,111 362,111 361,111 361,111 361,111 360,111 360,112 360,112 360,112 359,112 359,113 359,113 358,113 358,113 358,113 358,113 357,113 356,114 357,114 358,115 358,115 359,117 360,118 362,119 362,120 363,120 363,121 363,121 363,122 363,122 363,123 362,125 368,123 369,123 369,123 369,124 370,124 370,124 371,125 371,126 371,126 372,126 372,127 372,127 372,127 373,127 373,127 374,129 375,129 375,130 376,131 377,131 378,132 379,133 380,134 380,135 380,135 381,135 383,136 384,137 385,137 385,138 386,138 387,139 387,139 388,140 388,140 388,140 389,141 390,141 390,141 390,141 390,141 391,141 391,141 392,141 392,141 392,142 392,142 393,142 393,142 393,143 394,143 395,144 396,144 396,144 397,145 398,146 398,146 400,149 402,150 402,150 402,151 403,148 404,142 405,140 406,136 406,135 406,135 406,135 406,134 406,134 406,134 406,134 406,133 406,133 407,133 407,133 407,133 407,133 408,132 409,132 410,132 409,132 409,132 409,131 409,131 409,131 410,130 410,130 410,130 411,130 411,130 411,130 411,130 412,130 412,130 412,131 412,131 413,131 414,131 415,131 415,131 415,131 415,131 415,132 415,132 416,133 416,133 416,134 416,134 416,134 416,134 416,135 419,133 420,133 421,133 421,132 420,131 416,125 417,120 418,118 419,115 419,115 420,114 422,114 428,115 428,115 429,115 429,115 429,115 430,115 430,115 430,115 430,115 431,115 431,115 432,115 432,115 432,115 432,115 432,115 432,115 434,117 435,117 435,117 435,117 435,119 435,120 435,120 437,120 437,119 439,119 439,119 439,119 440,120 441,120 441,120 442,121 443,121 442,122 445,122 446,122 446,122 446,122 447,124 448,125 450,132 457,133 459,131 459,131 460,131 460,131 461,132 461,131 463,131 463,132 463,133 463,133 463,133 463,133 464,133 464,133 465,133 466,133 466,133 467,133 468,133 468,133 468,133 469,133 470,133 470,133 470,133 471,133 471,133 471,133 472,133 472,133 473,133 474,133 474,133 475,133 477,133 479,133 481,132 481,132 482,132 484,132 484,132 484,132 484,133 484,133 484,133 484,133 485,134 486,134 487,134 488,135 489,135 489,135 490,137 491,138 491,138 492,138 492,139 493,140 493,140 494,140 496,141 497,141 497,141 497,141 498,141 498,142 499,141 499,141 500,142 500,142 500,142 499,143 499,143 498,143 497,144 496,144 495,145 495,145 495,145 495,145 494,146 494,146 493,146 492,154 492,154 492,154 492,155 491,156 491,156 482,160 482,160 480,162 480,162 480,162 480,162 479,162 479,163 478,163 477,165 477,165 476,165 475,165 476,166 476,166 476,166 477,166 477,167 477,167 477,167 478,167 478,167 478,167 478,166 478,166 478,166 479,167 479,167 479,167 479,167 480,167 480,167 480,167 480,167 480,167 480,167 480,168 481,168 481,168 481,168 481,168 480,168 480,168 480,168 480,168 480,169 481,169 481,169 481,169 481,169 481,169 481,169 481,169 481,169 481,169 482,169 482,169 482,169 482,169 483,169 483,169 484,169 484,169 485,169 485,169 485,169 485,169 485,169 485,169 485,169 485,169 485,169 485,170 486,170 486,170 486,170 486,170 487,170 487,170 487,170 487,170 487,170 487,170 487,170 487,170 487,171 487,171 487,171 487,171 487,171 487,171 487,171 487,172 487,172 487,172 486,173 486,173 476,169 476,169 476,169 476,169 475,169 475,169 472,168 470,168 470,167 469,167 468,167 467,166 464,164 464,164 462,164 458,162 456,162 456,162 453,163 453,163 451,163 450,164 448,164 447,164 444,165 442,166 440,166 440,166 439,167 438,167 437,167 435,168 435,167 433,164 433,163 433,163 433,161 433,161 433,161 433,158 428,158 426,158 426,158 426,159 426,159 426,159 425,160 425,160 424,160 423,161 422,162 422,162 421,162 420,163 419,164 419,164 419,164 418,164 418,164 417,164 416,164 416,165 414,165 413,165 413,165 412,165 411,165 410,165 410,165 409,165 407,166 407,166 406,166 406,166 405,166 405,167 404,167 404,167 404,167 405,167 405,167 405,167 405,167 406,167 406,167 406,167 406,167 407,167 407,168 407,168 407,168 407,168 407,168 408,168 409,168 409,168 409,168 410,169 410,169 410,169 410,170 410,171 411,171 411,171 411,172 411,172 411,172 411,172 411,172 412,173 412,173 412,173 412,173 412,173 413,174 414,174 414,174 414,174 413,175 412,175 411,176 411,176 410,176 410,177 410,177 409,177 409,177 408,177 408,178 406,178 404,178 402,179 402,179 402,179 402,179 401,180 400,180 399,181 399,181 398,182 398,182 398,182 397,182 397,183 396,183 395,184 395,184 393,184 392,185 392,185 390,186 387,187 387,187 387,187 386,188 384,188 384,189 384,189 384,189 384,189 384,189 384,190 384,190 383,192 382,193 382,193 382,193 382,193 382,194 381,195 379,197 378,198 378,198 377,199 377,199 377,199 376,200 375,202 375,202 375,202 374,202 373,203 373,203 373,204 372,204 372,205 369,209 369,209 369,209 372,211 373,213 374,214 376,216 377,217 377,217 377,217 379,219 380,220 381,220 381,220 381,221 382,221 382,221 382,221 382,222 382,222 382,222 381,223 380,224 380,224 380,224 380,224 380,224 379,225 379,225 379,226 379,226 378,226 378,226 378,226 378,226 377,226 377,226 377,226 377,225 377,225 377,225 376,225 376,225 375,224 375,224 375,224 375,224 375,224 375,225 375,225 374,225 374,225 373,226 373,226 372,226 372,226 372,227 372,227 372,228 372,228 372,228 372,228 371,228 371,227 371,227 370,227 370,227 370,227 370,227 369,228 369,228 369,228 368,228 367,229 367,229 367,229 367,229 365,228 365,227 365,227 365,227 363,226 362,225 362,225 362,224 362,224 362,224 360,223 359,222 359,222 358,221 357,221 357,221 357,221 358,220 358,220 357,220 357,219 357,219 357,219 357,219 356,218 355,217 355,217 355,217 356,217 356,217 355,216 355,216 355,216 355,216 355,216 354,215 354,215 351,213 350,213 350,213 350,213 350,214 350,214 350,214 349,214 349,214 349,214 348,214 348,215 347,215 347,215 346,215 346,215 345,215 345,215 342,217 342,217 340,218 340,218 339,219 339,219 338,220 338,220 338,220 338,220 339,221 339,221 339,221 339,221 339,221 338,222 338,222 338,222 338,222 335,221 333,220 333,220 332,219 332,219 333,219 333,219 332,219 332,218 332,218 332,218 331,217 330,217 330,217 330,216 330,216 329,216 329,216 329,215 329,215 328,215 327,213 327,213 326,213 328,211 328,211 329,210 328,210 327,210 327,209 327,209 326,209 326,209 326,209 326,209 326,209 324,209 324,209 323,209 323,209 323,209 323,209 323,209 321,209 320,209 320,209 319,209 319,208 318,208 317,208 317,208 317,208 316,208 315,208 315,208 314,208 313,208 313,207 312,207 312,207 312,207 311,207 310,206 310,206 310,205 309,205 309,205 309,205 308,205 307,204 307,204 307,204 306,204 304,203 303,202 303,202 300,200 300,200 299,200 298,199 297,199 297,198 298,198 298,198 300,197 300,197 300,196 300,196 300,196 302,195 303,194 304,194 304,194 305,194 305,194 305,193 306,193 306,193 307,192 306,192 306,192 306,192 305,192 305,192 305,191 303,191 303,190 303,190 302,189 302,189 302,188 302,188 302,187 302,186 302,186 302,185 302,185 302,185 301,183 300,182 300,182 300,182 300,182 299,182 299,182 298,182 298,182 297,181 297,181 297,181 296,181 296,181 296,181 296,181 295,181 295,181 295,181 295,181 294,181 294,181 293,182 293,182 293,182 293,182 293,181 293,181 292,181 292,181 291,181 290,181 289,181 289,181 288,181 286,182 285,182 284,182 284,182 284,182 283,182 282,182 282,182 282,181 281,181 281,181 281,181 281,181 280,181 280,181 280,181 280,181 280,180 280,180 280,180 279,180 278,180 278,180 278,180 277,180 277,180 277,179 277,179 276,179 276,179 276,179 275,178 275,178 275,178 275,178 275,178 275,178 274,178 273,178 272,178 272,178 271,178 270,178 269,178 266,180 265,180 263,181 263,182 260,183 259,183 258,184 256,185 254,186 254,186 254,186 253,186 250,186 250,186 249,186 248,186 247,187 246,187 245,187 244,187 243,187 241,188 240,188 240,188 239,188 239,188 237,188 237,188 236,188 236,188 234,189 234,189 233,190 232,190 232,190 231,191 231,192 230,192 230,193 230,193 230,194 230,194 228,194 228,194 227,195 227,195 227,195 227,195 228,195 228,195 228,196 228,196 228,196 228,196 228,196 228,197 228,198 228,198 228,200 228,200 228,200 228,201 228,201 228,201 225,200 224,200 222,200 222,200 220,201 217,201 214,201 211,202 210,202 208,202 208,202 207,202 207,201 207,201 207,201 209,197 209,197 209,197 208,197 208,197 207,197 207,197 207,197 207,197 206,196 205,193 205,193 204,192 203,191 203,191 202,191 202,191 201,190 200,189 200,189 199,188 199,188 199,188 199,188 198,188 197,187 197,187 196,187 196,187 196,186 196,186 195,186 194,186 194,186 192,184 192,183 192,183 191,183 191,183 190,183 190,183 190,183 190,182 190,182 190,181 189,181 190,180 190,180 190,180 191,179 192,179 192,179 192,178 192,177 193,175 194,175 194,174 195,174 195,174 196,174 198,173 199,172 199,172 199,172 199,171 199,170 199,170 199,170 199,169 199,169 199,168 200,167 201,167 201,167 202,166 202,166 202,165 202,165 203,164 203,164 204,162 204,160 204,160 207,158 207,158 207,156 207,156 207,156 207,156 206,156 206,157 206,157 206,157 206,157 206,156 206,156 206,156 205,156 205,155 205,155 205,155 204,155 204,155 203,155 203,155 203,155 203,155 203,155 203,155 202,155 202,155 202,155 202,155 201,155 201,155 201,155 200,154 200,155 200,155 200,155 199,154 199,155 199,154 199,155 199,155 198,155 198,154 197,154 197,154 197,154 196,154 196,154 195,154 195,155 194,155 194,155 193,155 193,155 192,155 192,155 191,155 190,155 190,155 190,156 190,156 190,156 190,157 190,157 190,158 190,158 190,158 190,159 190,159 190,159 190,159 190,160 190,160 190,160 189,161 189,161 189,162 189,163 190,164 190,164 189,166 188,169 188,169 188,170 189,171 189,172 189,172 189,172 189,172 189,172 185,176 185,176 183,176 182,175 180,175 179,175 179,175 179,176 178,176 177,176 177,176 176,176 176,179 176,179 176,179 176,180 176,180 176,182 176,185 176,185 175,186 175,187 175,188 175,188 174,191 174,191 170,192 170,192 171,194 171,194 168,195 168,195 165,195 163,195 160,194 160,194 158,194 157,194 155,194 155,194 153,194 153,194 153,194 152,194 152,194 151,194 150,194 149,195 149,195 149,195 148,196 147,196 147,197 147,197 146,197 145,198 144,199 144,199 144,199 143,199 143,198 142,198 142,198 142,198 141,197 141,196 141,195 141,195 141,195 141,195 141,195 141,195 141,194 140,194 139,194 138,194 137,193 136,192 135,192 134,192 133,192 132,191 131,191 131,190 130,190 129,189 128,189 127,188 127,188 127,187 127,187 128,186 128,186 128,186 128,186 128,186 128,185 128,185 128,185 128,185 128,185 128,185 128,185 128,185 127,185 127,185 127,185 127,185 127,185 127,184 127,184 127,184 127,184 127,184 126,184 126,184 126,184 126,183 125,183 125,183 124,183 124,182 123,182 123,182 123,182 123,182 123,182 123,182 123,182 122,182 122,182 122,181 121,181 121,180 120,180 120,180 120,180 119,180 119,180 119,180 119,180 118,179 118,179 118,179 117,179 117,178 116,178 116,178 116,178 116,178 116,178 115,178 115,177 115,177 115,177 115,177 115,177 115,177 115,177 115,177 114,177 114,177 114,177 114,177 114,177 114,177 114,177 114,176 113,176 113,176 113,176 113,176 113,176 113,176 113,176 113,176 113,176 113,176 113,176 112,176 112,175 112,175 112,175 112,175 112,175 112,174 112,174 112,174 111,174 111,174 111,174 111,174 111,173 111,173 111,173 112,172 112,172 112,172 112,172 112,172 112,172 112,172 112,172 112,171 113,171 113,171 111,170 111,170 111,170 112,169 112,169 112,169 113,169 113,169 113,169 113,169 113,169 114,169 114,169 114,169 114,169 114,168 114,168 115,168 115,168 115,168 116,168 116,167 117,167 117,167 118,167 118,167 119,167 119,167 120,167 120,166 121,166 122,166 123,165 123,165 124,164 125,164 126,163 127,162 127,162 126,162 126,162 126,162 126,162 126,162 125,161 124,161 124,161 123,160 122,160 122,160 121,159 121,159 121,159 121,159 120,158 120,158 120,158 119,158 119,158 118,158 118,158 118,158 116,157 116,157 116,157 116,157 116,157 115,156 115,156 115,156 118,153 118,153 118,153 118,153 118,152 118,152 118,152 117,152 117,152 117,152 117,152 117,152 116,152 116,152 115,152 115,152 115,152 114,152 114,152 114,152 114,152 111,153 111,153 111,153 110,153 109,154 109,154 108,154 108,154 108,154 107,154 107,153 107,153 106,153 104,153 102,153 102,153 101,153 101,153 101,152 100,152 100,152 100,152 99,151 99,151 99,150 99,150 99,150 99,149 98,149 98,149 97,149 96,148 96,148 96,148 96,148 95,148 95,148 95,148 95,148 95,148 95,148 95,148 94,148 93,148 93,148 92,149 92,149 91,149 91,149 90,149 90,149 89,150 89,150 88,150 88,150 88,150 87,150 87,150 86,150 85,150 84,151 84,151 84,151 84,151 83,151 83,151 83,151 82,151 82,151 82,152 82,152 82,152 81,152 81,152 81,152 81,152 81,152 81,152 80,153 80,153 80,153 80,153 80,153 79,152 79,152 79,152 78,152 78,152 78,152 76,152 76,152 76,151 76,151 76,151 76,151 76,151 75,150 75,150 75,150 75,150 75,150 75,150 75,149 74,148 74,148 74,148 74,148 74,148 73,148 70,149 68,149 68,149 68,149 68,149 68,148 64,149 64,148 64,148 64,148 64,148 64,148 64,148 64,148 64,148 62,147 62,147 62,147 62,147 61,147 61,147 61,147 61,147 61,146 61,146 59,146 59,146 59,146 55,146 55,146 54,146 54,146 54,147 54,147 54,147 52,147 52,147 52,147 52,148 52,148 52,148 51,148 50,148 50,148 49,147 49,147 49,147 48,146 48,146 40,141 40,141 40,141 40,141 40,141 39,141 39,141 39,140 38,140 38,140 38,140 37,140 37,140 36,141 36,141 35,141 35,141 35,141 35,141 35,141 34,141 34,141 34,141 33,142 33,142 33,142 33,142 31,141 31,141 31,141 30,141 30,141 30,141 29,141 28,142 28,142 28,142 26,143 26,143 25,142 25,142 21,142 20,142 20,142 20,142 20,142 19,142 19,142 17,141 16,142 16,142 16,142 15,140 14,140 14,140 13,140 13,140 13,140 12,140 10,140 10,140 9,139 8,139 7,138 6,138 6,138 7,137 7,137 7,137 7,137 7,137 7,136 7,136 7,135 8,135 8,135 8,134 8,134 8,134 8,134 10,133 10,133 10,132 10,132 10,132 11,132 11,132 11,131 11,131 11,131 11,131 11,131 11,131 11,131 11,131 11,131 11,131 11,131 11,130 11,130 11,130 11,130 11,130 11,130 11,130 10,129 10,129 10,128 10,128 10,128 9,127 9,127 9,127 9,127 9,127 9,127 9,127 9,126 9,126 9,126 9,126 9,126 8,126 8,126 8,126 8,126 8,126 8,126 8,126 8,125 8,125 7,125 7,125 7,125 6,125 6,125 6,125 5,124 5,124 4,123 4,123 4,123 3,123 2,122 2,122 3,121 3,121 3,121 3,121 5,120 5,120 5,120 5,120 6,119 6,119 4,118 4,118 4,118 4,118 2,116 1,115 0,114 0,114 0,114 1,114 1,114 1,114 0,114 0,114 0,113 0,113 1,113" id="8602" class="canton" fill="steelblue" stroke-width="1" stroke="white" geotype="canton" geoname="Châtellerault-1" code_insee="8602" code_departement="86" nom_departement="Vienne" code_region="75" nom_region="Nouvelle-Aquitaine"/></svg>