<?xml version="1.0" encoding="utf-8"?>
<svg version="1.1" id="svgmap" xmlns="http://www.w3.org/2000/svg" xmlns:xlink="http://www.w3.org/1999/xlink" x="0px" y="0px" width="100%" height="100%" viewBox="0 0 500 454">
<polygon points="50,3 52,4 54,5 54,5 55,6 55,6 55,6 55,6 55,6 56,7 56,7 56,7 58,8 58,8 58,8 58,8 57,9 57,9 58,10 59,10 60,11 60,11 61,10 62,11 63,11 63,11 64,9 66,10 66,9 66,9 66,9 67,9 68,9 69,9 69,9 70,9 70,9 70,9 72,8 72,8 73,8 74,7 75,6 75,6 76,6 76,6 76,6 76,7 76,7 75,7 75,7 76,7 77,8 77,8 79,8 79,8 80,8 80,9 80,9 83,9 83,9 83,9 84,9 87,10 87,10 87,10 88,12 88,12 87,14 87,14 86,14 86,14 86,15 85,15 84,15 84,15 84,15 84,15 84,16 84,16 84,16 84,16 84,17 84,17 84,17 84,18 84,18 85,18 85,18 85,18 85,19 85,19 85,19 85,19 85,19 85,19 85,19 85,19 88,21 98,21 98,21 98,21 98,21 99,21 100,21 100,21 101,21 101,21 101,21 101,21 101,21 102,22 103,22 103,22 103,22 104,23 104,23 104,23 105,22 105,22 106,21 107,21 108,21 108,21 108,21 108,21 108,21 109,21 111,20 111,20 111,20 111,19 112,19 112,19 112,19 112,19 114,18 114,18 114,18 114,18 115,17 115,17 115,17 116,15 117,14 124,17 128,18 128,18 130,18 130,18 133,21 134,21 135,22 137,24 137,24 138,24 138,24 138,24 138,24 139,26 139,26 139,26 141,27 141,27 141,29 141,29 141,29 141,30 141,30 142,31 143,32 144,34 145,36 145,37 145,37 146,37 146,38 146,38 146,40 145,40 145,40 145,41 145,41 145,41 145,42 145,43 145,43 146,44 146,44 146,45 146,45 146,45 147,45 148,45 148,45 149,45 150,45 150,45 150,45 150,45 151,45 152,45 152,45 154,44 154,44 155,43 156,43 156,43 158,43 159,42 160,42 161,42 161,41 162,41 163,40 163,40 163,40 165,39 167,38 167,38 168,39 168,39 168,38 169,37 170,36 170,35 170,35 170,35 170,35 170,32 169,30 169,30 168,28 168,28 168,28 168,27 168,27 168,25 168,25 169,24 169,24 169,23 170,22 170,22 171,21 171,21 174,16 174,16 174,16 174,16 174,16 174,15 179,8 179,8 179,8 179,9 179,10 179,11 179,11 179,12 180,13 180,13 180,14 182,15 182,15 183,16 184,16 184,17 185,17 185,17 186,18 187,19 187,19 187,19 188,21 188,21 188,22 188,23 188,23 188,24 188,24 188,25 189,26 189,26 189,27 190,27 190,28 190,28 190,28 191,28 192,29 194,29 195,30 195,30 196,30 197,30 197,30 197,30 198,32 198,32 198,32 198,35 198,35 198,38 198,38 198,38 198,38 198,39 198,39 198,39 198,39 198,39 198,41 198,41 199,42 200,43 200,43 200,46 200,46 200,46 200,46 200,47 200,47 201,48 201,49 202,49 202,50 205,49 205,49 205,49 206,49 207,49 208,49 208,49 209,49 209,48 210,47 211,47 211,47 212,47 213,46 213,46 215,45 215,45 215,45 215,44 216,43 216,43 216,42 217,42 217,41 217,41 217,41 218,40 219,40 219,39 220,38 221,37 221,37 221,36 221,36 221,36 221,35 221,34 221,34 221,34 221,32 220,32 220,32 220,31 220,31 220,31 220,29 220,28 220,28 223,28 229,25 229,25 228,21 227,19 228,19 230,19 231,19 232,19 232,19 233,19 237,19 238,19 241,18 243,19 244,19 244,19 246,19 246,19 247,20 250,20 250,20 251,21 254,21 255,21 257,21 257,21 261,19 261,19 264,17 267,16 268,15 270,14 276,10 277,10 277,10 276,9 276,9 277,9 277,9 277,10 279,11 279,12 280,12 281,11 282,11 282,12 284,11 284,11 287,12 292,11 292,11 295,11 296,11 297,11 298,11 300,11 300,12 303,11 305,11 306,11 307,11 308,11 308,11 308,11 309,11 309,11 309,11 310,11 311,12 311,12 312,13 314,13 314,13 314,15 314,15 315,16 315,16 315,16 315,16 316,17 316,17 316,17 316,17 317,17 317,17 317,17 317,17 317,17 318,18 318,18 319,18 319,18 319,18 319,18 319,18 320,18 320,18 320,18 320,18 320,18 320,18 320,19 322,19 322,19 322,20 323,20 323,21 323,21 324,21 324,22 324,23 324,23 324,23 322,24 322,24 322,25 322,25 322,25 322,25 322,25 323,26 323,26 323,26 323,26 324,26 324,27 325,27 325,27 327,27 327,27 328,27 328,27 328,27 329,27 329,27 330,27 330,27 330,27 330,28 330,28 330,28 331,28 331,30 332,31 332,31 331,31 331,31 331,31 332,31 332,31 331,31 331,32 331,32 330,32 330,33 330,33 330,33 330,33 330,33 330,34 330,34 331,34 331,34 331,34 331,34 332,34 332,35 332,35 332,35 332,35 331,35 331,36 331,37 331,37 331,37 331,38 331,39 331,39 331,40 331,40 331,41 331,41 331,41 331,41 331,41 331,42 331,42 332,42 332,42 331,42 331,43 331,43 331,43 330,43 330,44 329,44 329,44 328,44 328,44 327,44 325,45 325,45 324,45 323,45 322,46 322,46 322,46 321,46 321,46 321,46 321,46 321,46 321,46 320,46 320,46 319,46 317,46 315,47 312,47 311,48 310,48 309,48 309,48 309,48 306,48 306,48 306,48 305,48 304,49 301,49 298,49 297,49 297,49 294,49 293,49 292,49 291,49 291,49 291,49 290,49 290,49 290,49 291,50 291,50 292,51 292,51 292,51 291,52 291,52 291,52 288,53 289,54 289,54 289,54 289,54 289,54 289,55 289,55 289,55 289,55 288,55 288,55 289,55 289,55 289,56 289,57 289,57 289,57 290,58 290,58 290,58 290,58 290,58 291,58 291,58 290,58 290,59 290,59 290,59 289,59 289,59 289,60 289,60 289,60 288,60 288,60 288,60 288,60 287,60 287,60 286,60 285,61 285,60 285,60 282,62 281,62 281,62 280,63 280,63 279,65 279,68 278,71 279,71 279,72 281,74 283,76 282,77 282,77 281,77 281,79 281,79 280,79 280,80 280,80 280,81 280,81 279,82 279,83 279,83 279,83 279,83 279,84 280,84 280,85 280,85 281,85 281,85 281,85 281,85 282,85 282,85 283,85 283,85 284,86 285,86 286,86 286,86 286,87 287,87 287,87 289,89 289,89 289,89 289,89 290,89 291,89 291,90 291,90 292,90 292,90 293,91 293,92 293,92 294,92 294,92 295,92 296,93 299,94 301,95 301,95 301,95 302,95 302,97 303,97 303,97 303,97 301,99 301,99 300,100 300,100 300,100 300,100 300,100 299,101 299,101 298,101 298,102 297,102 297,102 297,103 297,103 297,103 297,103 296,103 296,104 296,105 296,105 296,105 295,105 295,105 295,106 295,106 295,106 295,106 295,106 295,106 295,106 296,106 296,106 296,106 297,106 298,106 298,107 298,107 299,107 299,107 299,107 300,107 300,108 300,108 301,108 302,108 303,109 303,109 303,109 303,110 303,110 303,110 303,110 303,110 303,111 303,111 303,111 304,111 304,111 304,112 304,112 304,112 304,112 304,113 304,113 304,113 304,113 305,114 305,114 305,115 305,115 305,116 305,116 304,116 305,117 305,117 305,117 306,117 306,118 306,118 305,119 305,120 304,120 304,121 304,122 304,122 304,122 304,123 304,123 304,124 302,124 302,125 301,125 301,125 301,125 301,125 299,125 299,125 299,126 299,126 299,126 299,127 299,127 299,128 299,128 299,128 299,128 299,129 299,129 299,130 299,131 298,131 298,131 298,132 298,133 297,133 297,134 297,134 297,134 296,135 296,135 296,136 295,136 295,136 295,136 295,136 295,136 295,136 295,137 295,137 295,137 297,138 297,138 298,139 298,139 298,139 298,139 298,139 299,140 300,141 301,141 301,141 301,141 302,142 303,143 303,143 303,144 303,144 303,144 303,145 303,145 303,145 303,146 303,146 304,147 304,147 304,147 305,148 305,148 305,148 306,148 306,148 306,148 306,147 306,147 306,147 306,147 307,147 307,147 307,147 307,147 308,147 308,147 308,147 309,147 309,147 309,147 309,147 310,147 310,147 310,147 311,148 311,148 311,148 311,148 312,148 312,148 312,148 312,148 313,148 313,148 313,148 313,148 313,148 313,148 313,148 313,148 313,148 314,148 314,148 314,147 314,147 314,147 315,147 315,147 315,147 314,147 315,146 315,146 315,146 315,146 315,146 316,146 316,146 316,146 316,146 316,146 316,145 316,145 317,145 317,145 317,145 317,145 317,145 317,145 318,144 318,144 318,144 318,144 318,144 318,144 318,144 318,144 319,144 319,144 320,143 320,144 321,143 321,143 321,143 322,143 322,143 322,143 322,143 322,143 322,143 323,144 323,144 324,145 324,145 324,145 324,145 324,145 325,145 325,145 325,145 325,145 325,145 325,145 325,145 326,146 326,146 326,146 326,146 326,146 326,146 326,146 327,147 327,147 328,147 328,147 329,147 329,148 329,148 330,148 331,150 331,150 332,150 331,151 330,152 330,153 329,154 329,154 329,154 329,155 328,155 328,155 328,156 327,156 327,156 326,157 325,159 325,160 325,160 324,161 324,161 324,161 324,162 324,162 324,162 323,163 322,164 322,165 322,165 321,166 321,166 320,167 320,168 320,168 319,168 319,169 319,169 319,169 318,170 318,170 318,171 317,171 317,171 317,172 317,172 316,173 316,173 314,176 313,177 313,177 312,177 312,178 311,179 311,179 306,175 306,175 304,176 304,176 303,177 302,177 302,177 301,178 301,178 301,178 301,178 300,179 300,179 300,179 301,180 300,180 300,180 300,180 300,181 300,181 300,181 299,182 299,182 299,182 299,182 299,182 298,182 297,182 297,182 297,182 297,182 299,184 299,184 299,184 299,184 299,184 298,186 298,186 298,186 301,187 301,187 301,187 302,185 303,185 305,186 305,186 306,185 307,184 307,184 308,183 308,183 308,183 308,183 308,183 309,184 309,184 309,184 309,184 310,184 311,185 312,185 312,185 312,185 313,185 313,185 313,185 313,185 313,185 314,185 314,186 314,186 314,186 314,186 314,186 314,186 315,186 315,186 315,186 315,186 319,188 319,188 323,190 324,190 325,191 326,192 326,192 326,192 326,192 326,192 327,192 329,191 329,191 330,191 330,191 331,191 331,191 332,191 332,191 332,191 332,191 332,191 332,191 332,191 332,191 333,190 333,190 334,189 334,189 334,188 335,188 335,188 337,187 337,187 338,186 338,186 338,186 338,186 339,185 340,184 342,183 342,182 342,182 343,182 343,182 343,182 344,182 344,182 344,181 347,181 348,180 348,180 348,180 349,180 349,180 349,180 349,180 350,179 352,178 352,177 353,177 353,177 353,177 355,177 355,177 355,177 355,177 358,178 358,178 359,178 359,178 359,178 359,179 359,179 359,179 359,179 359,180 359,180 359,180 359,180 360,180 360,180 360,180 360,180 361,181 361,181 361,181 362,181 363,181 363,181 364,181 364,181 365,181 365,182 365,182 368,182 368,182 369,183 369,183 370,183 370,183 370,183 370,183 371,183 371,183 371,183 372,183 372,183 372,184 372,184 373,184 373,184 373,184 374,184 374,184 374,184 374,184 374,184 374,184 374,185 374,185 375,185 375,185 375,185 375,185 375,185 375,185 375,185 375,185 376,185 376,185 376,185 376,185 376,186 376,186 376,186 376,186 376,186 376,186 376,186 377,186 377,186 377,186 378,185 379,184 380,184 380,184 381,184 382,184 382,184 382,184 381,184 381,185 381,185 381,185 381,186 381,186 381,186 381,186 381,186 384,186 385,186 389,185 389,185 389,185 390,186 391,186 391,187 392,187 392,187 395,186 395,188 395,188 395,188 395,189 395,189 395,190 395,190 395,190 395,190 395,190 398,190 399,190 399,190 399,190 400,191 400,191 401,191 402,191 403,191 405,191 405,191 406,191 408,191 409,191 410,191 410,191 411,191 414,192 414,192 414,193 414,193 414,193 415,193 415,193 415,194 415,194 415,194 416,195 416,195 416,195 417,196 417,196 417,197 417,197 417,197 417,198 417,198 417,199 417,199 417,200 418,200 418,200 418,200 419,200 419,200 419,200 420,201 420,201 420,201 421,202 421,203 421,203 421,203 421,203 421,203 422,204 422,204 422,205 422,205 422,205 422,205 423,206 423,206 423,206 423,207 424,207 424,207 424,208 424,209 423,209 423,209 423,209 423,209 423,210 423,211 423,211 423,211 423,212 423,213 427,212 427,212 428,211 428,213 428,213 431,217 431,217 431,217 430,218 429,218 429,218 428,219 428,219 427,220 426,222 426,222 425,223 425,223 425,223 424,223 424,223 422,223 422,223 422,224 422,224 420,224 420,224 419,224 418,224 417,223 416,223 416,223 414,222 414,222 413,223 413,223 413,223 412,223 412,223 411,224 411,224 411,224 410,225 410,225 409,226 408,226 408,226 407,226 405,226 405,226 405,226 405,226 405,227 405,227 403,228 403,228 403,228 403,228 403,228 402,228 402,228 402,228 402,228 402,228 402,228 402,228 401,228 401,228 401,228 401,228 401,228 401,228 400,228 400,228 400,228 400,228 400,228 399,228 399,228 399,229 399,229 399,229 398,229 398,229 398,229 398,229 398,229 398,229 397,229 397,229 397,229 397,229 397,229 396,229 396,229 396,229 396,229 395,229 395,229 395,229 395,230 395,230 395,230 395,230 395,231 395,232 395,232 394,233 394,234 394,234 395,234 397,234 398,234 399,234 399,234 401,234 401,234 403,234 403,234 404,234 404,234 404,235 405,235 405,236 406,236 406,236 406,236 410,237 410,236 410,236 410,237 410,237 411,237 411,238 410,238 410,238 410,239 410,239 410,239 410,239 410,239 410,240 410,240 410,240 410,240 409,240 410,241 410,241 410,242 409,243 408,244 408,244 408,243 407,242 407,242 407,242 406,241 406,241 406,241 406,241 406,241 405,241 405,241 405,241 404,240 404,240 403,240 403,240 402,239 402,239 398,240 398,240 398,241 397,241 396,241 396,242 396,242 395,242 395,242 395,242 395,242 395,242 395,242 394,242 394,242 393,242 393,242 393,242 392,242 390,241 389,241 389,241 388,241 388,242 388,242 388,242 389,243 389,243 389,243 389,244 389,244 389,245 389,245 389,246 389,246 389,246 389,246 390,247 390,247 390,248 390,248 390,248 390,248 390,248 390,248 390,248 390,248 390,248 390,249 389,249 388,249 388,248 387,249 387,249 387,249 386,249 386,249 386,248 385,248 385,248 384,249 384,249 384,249 384,249 384,249 383,249 383,249 383,249 383,250 383,250 383,250 383,250 383,251 383,251 383,251 383,251 383,252 383,252 383,253 383,253 383,254 382,254 382,254 382,254 382,256 382,256 382,256 382,257 383,257 383,257 383,257 383,257 384,258 384,258 384,258 385,259 385,259 386,259 386,260 386,261 387,261 387,262 388,263 388,265 388,265 388,265 389,266 389,267 389,267 389,267 389,267 389,268 388,268 388,268 388,268 388,269 388,269 388,269 387,270 387,270 386,271 386,272 387,272 387,272 387,272 388,273 389,273 390,274 390,274 390,274 390,274 389,275 389,275 389,275 389,275 389,275 389,276 389,276 389,277 387,280 387,280 388,280 389,280 389,280 390,280 391,280 392,280 393,280 395,280 396,280 396,280 397,279 398,279 399,279 399,279 399,279 400,279 401,279 401,279 401,279 402,280 402,280 402,280 402,280 402,280 402,281 402,281 403,282 403,283 404,284 405,285 405,285 406,286 406,286 408,285 408,285 410,285 411,285 412,285 412,285 412,285 413,284 414,284 414,283 415,283 415,283 415,283 415,279 415,279 415,279 416,279 417,278 418,278 418,278 420,277 420,277 420,276 421,276 421,276 421,276 421,276 422,277 422,276 422,277 422,277 422,278 422,278 422,278 422,278 422,278 422,279 422,279 423,279 423,279 423,279 423,280 423,280 423,281 423,281 424,282 424,282 424,282 425,283 425,283 426,283 426,283 427,284 427,284 428,284 428,284 428,284 429,284 429,284 430,284 430,284 430,283 430,283 431,283 431,283 431,282 432,282 432,282 432,282 432,281 432,281 433,281 433,280 433,280 433,280 433,280 433,279 433,279 434,279 434,278 435,278 435,278 435,278 436,278 436,278 436,278 437,278 437,278 438,278 438,278 438,278 438,278 438,278 439,279 439,279 439,279 439,279 439,280 439,280 439,280 440,281 440,281 440,282 439,282 439,282 439,282 439,282 439,283 439,283 438,283 438,283 438,284 438,284 438,284 437,284 437,284 437,285 437,285 437,285 437,286 437,286 437,287 437,287 437,288 437,288 439,290 440,292 441,292 441,293 442,293 442,294 442,294 444,294 444,294 445,295 446,295 447,295 448,295 448,295 448,295 448,295 449,295 449,295 450,295 450,295 451,296 451,296 451,296 451,297 453,297 453,297 455,297 455,297 457,297 457,297 460,297 460,297 460,297 461,298 461,298 462,297 462,298 462,298 462,298 462,298 461,298 461,298 461,298 461,298 461,298 461,298 461,299 460,299 459,299 459,300 459,300 459,300 459,301 459,301 459,301 459,301 458,301 458,302 458,302 458,302 458,302 458,303 459,304 459,304 459,304 459,304 459,305 459,306 459,307 459,308 459,309 459,309 459,309 460,309 461,309 461,309 462,309 462,309 465,309 465,309 465,309 467,309 467,309 468,309 469,309 470,308 470,308 470,308 470,308 470,308 470,308 471,308 471,308 471,308 471,308 471,308 471,308 471,308 471,308 471,308 472,308 472,308 472,309 473,310 473,311 473,311 473,311 473,311 473,312 474,313 474,314 474,314 474,314 474,314 474,314 474,315 474,315 474,315 474,315 475,315 475,316 475,316 476,317 476,317 477,318 477,318 477,319 477,319 477,319 478,320 478,320 478,320 478,322 478,322 478,322 478,322 478,322 479,322 479,322 479,322 479,322 479,322 480,322 480,322 482,323 483,323 483,323 483,323 484,323 484,323 484,323 485,323 486,323 486,324 486,324 486,324 486,324 486,324 486,324 486,324 486,324 486,325 486,325 486,325 486,325 486,325 486,325 486,325 487,325 487,325 487,325 487,325 487,325 487,325 488,325 488,326 488,326 488,326 489,326 489,326 489,326 489,326 489,326 489,326 490,327 490,327 490,327 491,328 491,328 491,328 491,328 491,328 491,329 491,329 491,330 491,330 491,331 491,331 492,331 492,331 492,331 492,332 492,332 493,332 494,332 494,332 494,332 494,332 494,332 495,332 495,332 495,332 495,332 496,332 496,332 497,332 497,332 497,332 497,333 497,333 497,334 497,334 497,334 496,334 496,334 496,335 496,336 496,337 497,338 497,338 497,338 498,338 498,338 499,338 499,338 499,338 499,338 499,338 499,338 499,339 500,340 500,340 500,340 500,340 500,341 500,342 499,342 500,342 500,342 499,343 499,343 499,343 499,343 499,343 500,343 500,343 500,343 500,344 500,344 500,344 500,344 499,344 499,344 499,345 498,346 498,346 498,346 498,346 498,346 494,351 493,353 492,353 492,355 491,355 491,355 492,355 492,355 492,355 489,357 489,358 488,358 487,359 487,359 487,359 489,360 489,360 489,360 489,360 489,360 489,360 488,361 488,361 488,361 487,361 486,362 485,361 484,361 484,360 483,360 481,359 481,359 481,359 480,359 480,359 480,359 480,359 479,358 479,358 479,358 479,358 479,358 472,356 471,356 471,356 468,356 468,356 467,356 467,356 466,356 464,355 464,356 464,356 463,357 463,357 462,357 461,356 461,355 460,355 457,358 455,355 453,357 453,356 452,357 452,357 451,357 451,357 451,357 449,355 449,355 449,355 449,355 449,355 449,355 448,355 447,355 447,355 446,356 445,356 445,356 445,356 444,356 443,355 443,355 442,355 441,354 441,354 440,354 439,354 438,354 437,353 437,353 437,353 436,353 435,352 435,352 434,352 433,354 432,354 432,356 431,356 431,357 432,357 432,357 432,358 433,358 434,359 434,359 436,360 436,360 436,360 436,360 435,361 434,361 431,361 428,362 427,362 426,362 426,362 425,362 425,362 425,362 425,362 423,362 422,362 421,363 420,363 419,363 418,364 418,364 416,364 416,364 415,364 415,364 415,365 415,366 415,366 415,367 415,367 415,367 415,368 415,369 415,369 414,369 411,368 410,368 405,365 403,365 402,364 398,363 399,363 399,362 400,361 400,360 400,360 401,358 401,358 400,358 400,358 398,357 397,357 397,357 396,357 396,357 395,357 394,357 394,357 394,357 393,357 393,358 392,358 390,359 390,359 389,359 389,360 388,361 388,361 388,361 388,361 387,361 386,361 385,361 385,361 385,361 384,361 384,360 383,360 383,360 382,360 382,360 382,360 382,360 376,359 376,359 376,359 376,357 376,357 376,356 376,355 376,355 376,355 376,355 376,354 375,354 373,353 372,352 372,352 368,351 368,351 367,351 365,350 365,350 365,349 364,349 364,349 363,349 362,348 363,348 363,348 362,347 362,347 362,347 360,345 359,344 359,343 359,343 359,343 359,343 359,343 359,343 358,342 358,342 358,342 358,342 357,342 357,341 356,342 356,342 356,343 356,344 356,344 356,344 356,344 356,345 356,345 356,346 356,347 356,347 356,347 356,347 355,348 355,348 354,348 354,348 354,348 353,349 352,350 352,350 352,350 352,351 352,351 351,352 351,352 350,351 350,352 349,352 349,353 349,354 349,354 348,355 348,355 348,356 348,356 348,356 348,357 347,357 347,357 345,358 344,359 343,359 343,360 343,361 343,361 343,361 343,362 343,362 343,362 342,362 342,362 342,362 342,362 342,362 342,362 340,363 334,363 334,364 334,364 334,364 334,364 334,364 334,365 334,365 334,365 334,365 334,366 334,366 335,366 335,366 335,367 335,367 333,367 333,367 334,370 334,370 334,372 334,372 334,372 334,372 333,372 333,372 333,372 333,372 332,372 331,373 332,373 332,373 333,374 333,374 333,375 333,375 334,375 334,376 334,376 335,376 335,376 335,377 336,377 335,377 335,377 335,377 335,377 335,377 334,377 334,377 330,377 330,377 330,378 329,378 329,379 329,380 329,381 328,382 328,382 328,382 327,383 326,384 325,384 325,385 325,385 325,386 325,386 324,387 324,387 324,387 323,387 323,388 322,388 322,389 322,389 322,390 322,390 322,391 321,391 321,391 321,392 321,392 320,393 320,393 320,393 320,393 320,394 319,394 319,395 319,395 319,395 318,395 317,394 317,394 317,393 316,393 316,393 315,393 313,393 312,393 312,393 311,393 310,393 310,392 310,392 309,393 308,393 308,393 308,394 308,394 308,394 308,394 308,395 308,395 308,395 308,395 309,396 310,396 310,396 310,396 310,397 308,397 308,397 308,397 307,397 306,396 306,396 304,396 304,396 304,396 304,396 303,397 302,397 301,398 301,398 301,398 301,398 301,398 300,399 299,399 298,398 297,398 297,398 297,398 297,398 296,398 295,398 294,398 292,398 289,398 288,398 288,398 287,397 287,398 286,399 286,399 285,399 285,399 284,399 284,400 283,400 283,400 283,400 282,400 282,400 282,400 282,401 282,401 282,401 282,401 281,401 280,401 277,400 277,400 277,400 277,401 277,402 277,402 276,403 276,404 275,404 275,406 274,407 274,407 274,407 273,407 273,407 272,407 271,406 270,406 269,406 267,407 267,408 268,408 268,409 268,409 268,409 267,410 267,410 269,411 270,412 270,412 270,413 270,413 270,414 270,414 270,414 270,414 270,415 270,415 271,417 272,419 272,420 272,420 272,420 272,420 272,420 272,420 272,420 270,420 270,420 269,420 267,419 267,419 267,419 265,419 263,419 262,419 262,419 261,419 261,419 261,419 259,420 259,420 258,421 258,422 257,422 256,422 256,423 257,424 258,426 258,428 258,428 258,428 258,429 259,431 259,431 260,433 260,433 261,435 261,435 261,436 262,437 262,438 263,439 263,439 263,439 263,440 263,441 264,443 264,443 264,444 265,445 265,446 266,449 266,449 266,449 266,449 266,449 266,450 267,450 267,451 268,454 268,454 267,454 267,454 265,454 264,453 263,453 262,453 261,453 260,453 260,453 257,453 257,452 255,452 255,452 252,452 252,452 252,452 250,452 250,452 249,452 247,452 247,452 247,451 247,451 246,450 246,450 246,449 246,449 246,449 246,449 246,448 245,447 245,446 245,446 245,446 246,444 246,443 246,443 246,443 246,443 245,443 245,443 244,442 243,442 242,442 242,442 241,441 239,441 238,441 238,440 238,440 238,440 238,440 239,439 240,438 240,438 240,438 240,437 240,437 240,436 240,435 241,434 241,434 241,434 240,433 240,433 240,432 239,432 239,432 239,432 239,433 238,433 238,433 238,433 237,433 236,433 236,433 235,433 233,433 232,432 231,432 231,432 232,431 232,431 231,431 231,431 232,429 232,429 232,429 232,429 233,428 231,428 230,428 230,427 231,426 232,426 230,425 228,424 227,423 226,423 225,423 225,423 225,423 224,422 223,422 222,421 222,421 221,421 220,421 219,420 218,420 218,419 217,419 217,420 217,420 217,421 217,421 216,421 216,421 215,421 214,421 213,421 212,421 212,421 210,420 209,420 208,420 208,420 208,420 208,420 207,420 206,420 206,420 206,420 206,420 205,419 205,420 205,419 204,420 204,420 204,420 204,420 203,419 202,418 201,418 201,417 200,417 197,417 197,417 197,417 197,417 189,417 189,417 192,412 195,407 195,407 196,406 196,406 196,406 196,405 196,404 196,404 196,404 195,403 195,403 195,402 195,397 195,397 195,397 193,394 193,394 193,394 194,391 194,391 194,390 194,390 195,388 195,388 195,388 196,387 196,387 196,387 196,387 196,385 196,385 197,385 197,385 198,385 199,385 200,385 200,385 201,385 201,385 202,385 202,385 202,385 202,384 202,383 202,383 202,383 202,382 203,382 203,381 203,381 203,380 204,379 204,378 205,378 205,377 205,377 206,376 207,376 207,376 207,376 208,375 208,375 208,375 208,375 209,375 209,375 210,374 210,374 211,374 212,374 212,374 212,374 213,373 213,372 213,372 214,371 214,371 215,370 215,368 216,368 216,367 217,366 217,366 218,366 219,367 219,367 220,367 221,367 222,368 223,368 223,369 224,369 225,369 226,369 226,369 226,369 226,369 226,368 226,367 226,367 227,366 228,365 228,365 228,365 228,365 229,364 230,364 230,364 232,364 232,364 234,364 234,364 233,363 233,362 233,362 233,362 233,361 232,360 231,358 231,358 231,357 231,356 230,356 230,355 230,355 229,353 229,352 228,351 228,351 228,351 228,350 228,349 228,349 228,349 227,348 227,347 227,346 226,346 226,345 226,345 226,345 226,344 226,344 225,343 225,342 225,341 224,340 224,340 224,340 224,339 224,339 224,339 224,339 224,339 224,339 224,339 224,338 224,338 224,338 224,338 224,338 223,337 223,337 223,337 223,337 223,336 223,336 223,336 223,335 223,335 223,335 223,335 223,334 223,334 223,334 223,334 222,333 222,333 222,333 221,332 221,332 221,331 220,330 220,329 220,329 220,329 220,329 220,328 220,328 220,328 220,328 220,328 220,328 219,326 219,325 219,325 219,325 218,324 218,324 218,324 218,324 218,324 218,324 218,323 218,323 218,322 217,322 217,322 217,322 217,321 217,321 217,321 217,321 217,321 217,321 217,321 217,321 217,320 215,317 215,317 215,317 216,317 216,317 217,317 217,317 217,317 218,317 220,317 220,318 221,318 222,318 223,318 223,318 223,318 224,318 225,318 226,318 227,318 227,318 228,319 229,319 230,319 231,319 231,319 232,319 232,319 232,318 231,317 231,317 235,316 235,316 236,316 241,317 243,317 243,318 243,318 243,318 244,318 245,318 245,318 245,318 246,318 247,318 247,317 248,317 248,317 248,317 249,317 249,317 250,317 250,317 250,317 250,318 250,318 251,318 251,318 251,318 252,318 252,318 252,318 252,318 252,318 252,318 252,318 252,318 252,318 252,318 252,318 252,318 253,318 253,318 253,318 253,318 253,318 253,318 253,318 254,318 253,318 255,318 256,317 256,317 258,316 258,317 259,316 259,316 259,316 259,316 260,315 260,315 260,315 260,315 261,314 261,314 261,314 261,314 261,313 261,313 262,313 262,313 263,314 263,313 263,312 263,312 263,311 263,311 263,311 263,310 263,309 264,309 264,309 264,309 266,307 266,307 267,306 267,306 268,305 268,305 268,304 268,304 268,304 268,304 268,303 268,303 268,303 267,303 267,302 266,302 266,301 264,300 264,300 264,300 264,299 266,297 267,297 267,297 267,297 267,296 266,296 266,296 266,296 266,295 265,295 265,295 265,295 264,294 264,294 264,294 264,294 263,293 263,293 263,293 263,293 262,293 261,292 261,292 261,292 261,292 261,292 260,292 259,291 259,291 258,291 258,291 258,290 258,290 257,290 257,289 257,289 257,289 257,289 257,289 257,287 257,287 257,287 257,287 257,287 256,287 256,287 256,287 256,287 256,287 256,287 256,287 256,287 256,287 255,287 255,286 255,286 255,286 255,286 254,285 254,285 254,284 253,284 253,284 253,284 253,284 253,284 252,283 252,283 252,283 252,283 251,282 251,282 250,281 249,281 249,281 249,281 248,281 248,280 248,280 248,280 248,280 248,279 249,279 249,278 249,276 249,276 249,275 249,275 249,275 249,274 249,274 248,274 248,274 248,274 248,274 248,274 248,274 248,274 247,274 247,274 247,274 246,274 246,274 246,274 245,274 244,274 244,274 244,273 244,273 244,273 244,273 245,272 245,272 246,271 246,270 247,270 247,270 247,269 247,269 247,269 247,269 248,269 249,268 249,268 250,268 250,268 250,268 250,268 250,268 250,268 251,268 251,268 251,268 251,268 252,268 253,269 253,269 254,270 254,270 255,270 256,270 256,270 256,270 256,271 256,271 257,271 257,271 257,272 259,271 259,271 261,270 261,270 261,270 262,270 262,270 262,269 263,269 263,270 264,270 264,270 264,270 264,270 264,270 265,270 265,270 265,271 265,271 265,270 265,270 265,270 265,269 265,269 265,269 265,268 265,268 265,267 265,267 265,266 265,264 265,264 265,264 265,264 265,264 265,263 265,263 265,263 264,262 262,260 262,259 261,258 261,257 260,256 259,256 259,256 260,255 260,255 261,254 261,254 262,254 262,254 262,254 263,253 264,253 265,253 266,251 266,251 267,250 267,250 268,250 268,250 268,249 268,249 268,249 268,249 268,249 268,249 269,249 269,248 270,248 270,248 270,247 270,247 270,247 271,246 271,246 271,246 271,246 272,246 272,245 273,244 273,244 274,243 274,243 274,243 274,242 274,242 274,241 274,241 274,241 274,240 274,240 274,240 274,240 272,239 271,239 271,239 270,239 270,239 270,239 270,239 270,239 269,239 269,239 269,239 269,239 269,239 270,238 270,238 271,237 271,237 271,237 270,236 270,236 270,236 270,236 269,236 268,236 267,236 266,236 266,236 265,235 265,235 265,235 264,234 264,234 264,234 263,234 263,234 263,234 263,233 263,233 262,233 262,233 262,233 262,233 261,232 261,232 261,232 261,232 261,232 261,232 261,232 260,232 260,232 259,232 257,231 257,231 257,231 256,231 255,229 254,229 254,229 254,229 254,229 254,229 254,229 254,229 254,229 254,229 254,229 253,229 253,228 252,228 252,228 252,228 252,228 252,227 252,227 251,227 251,227 250,225 249,225 249,224 248,224 247,223 247,223 247,223 247,223 234,219 232,219 232,218 229,218 226,217 226,217 226,217 226,217 226,217 226,217 225,217 224,217 224,217 223,217 223,217 222,217 222,217 222,217 222,217 221,217 221,217 219,218 219,218 219,218 219,218 219,218 218,218 217,218 217,218 216,218 216,218 214,218 213,218 212,218 212,218 212,218 212,218 212,218 212,218 212,218 210,218 210,218 210,219 209,219 209,220 209,220 207,222 207,222 206,222 206,222 206,223 206,224 206,224 206,224 206,225 206,225 206,225 205,226 205,226 205,226 205,226 205,226 205,226 204,226 203,226 203,226 202,227 202,227 201,227 200,228 200,228 200,228 200,228 200,229 200,229 199,229 199,229 198,230 198,230 198,230 197,230 197,231 197,231 196,231 196,231 196,231 195,231 195,231 195,231 195,231 194,231 194,231 194,231 193,232 193,232 192,232 191,232 191,232 190,233 189,233 189,233 188,233 188,234 187,234 187,234 186,234 185,234 185,234 185,235 184,235 184,235 183,235 183,236 183,236 182,236 182,236 182,237 182,237 182,237 181,237 181,237 181,237 181,238 181,238 181,238 180,238 179,239 179,239 179,239 178,239 178,239 178,239 177,240 177,240 177,240 177,241 176,241 176,241 176,241 176,241 176,241 176,241 176,242 176,242 176,242 175,242 175,242 175,243 175,243 175,244 175,244 174,244 174,244 174,244 174,245 174,245 174,245 173,246 173,246 173,246 173,246 173,246 173,246 172,247 172,247 172,247 172,247 172,247 172,247 172,247 174,248 174,248 174,248 174,248 174,248 175,248 176,249 176,249 176,249 177,249 177,249 177,249 177,249 177,249 178,249 178,249 178,249 178,249 178,249 177,249 178,249 178,250 178,250 177,250 177,250 177,250 177,250 177,251 177,251 177,251 177,251 178,251 178,251 178,251 178,251 178,251 178,251 178,251 177,252 177,252 176,253 175,253 175,253 175,254 175,254 174,254 172,256 172,256 171,256 171,256 169,257 169,257 169,258 168,258 166,259 166,259 166,259 166,259 164,259 163,259 163,259 163,259 163,259 162,260 162,260 162,260 162,260 162,260 162,260 162,260 161,260 161,260 161,261 161,261 161,261 161,261 161,262 160,262 160,263 160,263 160,263 160,263 160,264 160,264 160,264 160,264 160,264 161,264 161,264 161,265 161,265 161,265 161,265 161,265 161,265 161,265 161,265 161,265 161,265 161,265 161,265 161,266 161,266 161,266 161,266 161,266 162,266 162,266 162,266 162,266 162,266 161,266 161,266 161,267 160,268 159,268 159,269 159,268 159,269 158,269 158,269 156,270 156,270 155,270 154,271 154,271 153,271 153,271 153,271 152,270 151,270 151,269 150,269 148,268 148,267 147,267 145,266 145,266 144,266 144,266 144,266 144,265 144,265 144,265 143,265 143,265 143,265 143,265 143,265 143,264 143,265 142,264 142,264 142,264 142,264 142,264 142,264 142,264 142,264 141,264 141,264 141,264 141,264 141,264 141,264 141,264 141,264 140,264 140,264 140,264 140,264 140,265 140,265 139,265 139,265 138,264 137,264 137,264 135,262 134,262 133,262 133,262 133,262 133,262 132,261 132,261 132,261 131,261 131,261 131,261 131,260 131,260 131,260 131,260 130,260 130,260 130,260 130,260 129,259 129,259 127,259 126,258 125,258 124,257 124,257 123,257 123,257 123,257 123,257 123,256 123,256 123,256 123,255 122,255 122,254 121,254 121,254 121,253 121,252 121,251 121,251 121,251 121,251 119,251 118,251 118,250 118,250 117,250 117,250 117,250 116,250 115,250 115,250 115,250 114,250 113,249 113,249 112,249 111,248 111,248 110,248 110,248 110,248 110,249 110,249 109,249 109,249 109,249 108,248 107,248 107,248 107,248 106,248 106,248 106,248 106,248 105,248 105,248 104,248 104,248 103,248 103,247 102,247 102,247 101,247 101,247 101,247 100,246 99,245 99,245 98,244 98,243 97,243 97,243 97,243 97,242 97,242 96,241 96,241 95,242 95,242 94,242 93,242 93,242 92,243 92,242 92,242 91,243 91,243 91,243 91,243 91,243 90,242 90,242 89,243 89,243 89,242 89,242 88,242 88,243 87,243 87,243 87,243 86,243 86,243 86,243 86,243 86,243 86,243 85,244 85,244 85,244 85,245 85,244 84,244 84,245 84,246 84,246 84,246 83,246 81,245 80,245 79,246 79,245 78,245 77,245 76,245 76,245 76,245 76,245 76,245 77,243 77,243 78,242 78,242 78,242 78,242 78,242 78,242 78,242 79,242 79,242 79,242 79,241 80,241 80,241 79,241 79,241 79,241 80,240 80,239 81,238 83,236 83,235 83,235 83,235 83,235 83,235 84,235 84,235 84,235 84,234 84,234 83,234 83,233 82,232 82,232 82,232 82,231 82,231 82,231 82,231 82,231 82,231 82,230 82,229 82,229 82,229 83,229 83,229 83,228 83,227 83,227 83,227 83,227 83,226 83,226 86,224 87,223 87,223 87,223 86,222 86,222 86,222 86,222 86,222 87,222 87,222 88,222 90,222 92,222 93,222 93,222 94,222 94,222 95,222 96,222 97,222 99,222 100,222 100,222 101,222 102,222 102,222 103,222 103,222 103,222 103,222 103,222 103,222 103,222 103,222 102,221 102,221 101,221 99,220 98,219 96,218 96,218 96,218 95,218 95,218 95,218 95,218 94,217 94,217 94,217 94,217 93,217 93,217 93,217 93,217 92,217 91,217 91,217 90,216 89,216 89,216 89,216 88,216 88,216 88,216 85,215 84,215 82,214 82,214 82,214 82,214 81,214 81,214 81,214 80,214 80,214 79,214 79,214 79,214 79,214 77,213 77,213 75,213 75,213 75,213 75,211 76,210 76,210 76,210 76,210 76,210 76,209 77,209 77,209 77,208 77,208 77,208 77,208 75,208 75,207 76,206 77,206 77,206 78,205 80,203 82,201 83,201 85,199 86,199 87,198 87,198 88,197 89,196 89,197 91,195 91,195 91,195 92,194 93,193 94,192 95,190 97,188 98,188 99,187 98,187 98,187 96,186 96,186 96,186 94,185 93,185 92,184 92,184 90,183 88,182 87,183 87,183 86,183 85,183 86,183 86,183 87,181 87,180 86,180 87,179 87,179 87,178 87,178 86,177 84,175 82,173 83,173 82,172 81,171 81,171 81,171 82,170 83,170 82,169 80,168 77,166 77,166 77,166 77,165 75,165 75,165 73,165 73,165 73,166 72,166 71,165 71,165 70,165 70,165 70,165 69,165 69,165 69,165 68,166 67,165 66,166 65,167 65,167 64,166 64,166 63,166 62,165 61,165 59,164 58,164 58,165 54,166 52,167 51,167 51,167 49,168 50,168 49,168 49,168 47,168 47,168 47,167 47,167 46,166 46,166 47,165 47,165 48,165 48,165 49,163 50,162 51,161 51,161 51,161 51,160 51,160 51,160 51,160 50,160 47,160 46,160 46,160 45,160 45,161 45,161 45,161 45,161 44,161 43,161 43,161 43,161 43,160 44,160 44,158 44,158 43,158 43,158 43,158 43,157 43,157 43,157 43,157 43,156 43,154 44,154 44,154 44,153 46,153 46,153 46,153 46,153 47,152 47,151 47,151 47,151 47,151 47,151 46,151 46,150 45,150 45,150 45,150 44,150 43,150 42,150 42,149 42,149 42,149 41,149 40,150 39,150 39,150 38,150 37,150 37,150 37,151 36,152 36,152 36,153 36,153 36,153 35,154 35,154 35,154 34,154 33,154 33,154 32,154 32,155 32,154 31,154 30,154 30,154 29,154 29,154 29,153 29,152 30,150 30,150 30,150 31,149 31,149 31,149 31,148 31,148 32,148 32,147 32,147 33,146 34,145 35,144 35,144 35,143 36,143 37,142 37,141 37,141 37,141 37,140 38,140 38,139 37,139 37,138 37,138 37,137 37,137 37,136 37,136 36,136 36,136 36,135 36,135 36,135 35,135 35,135 35,135 34,134 34,134 33,133 34,133 34,133 34,131 35,131 35,131 36,132 36,131 36,130 37,129 37,130 37,130 38,129 38,128 38,128 38,128 38,128 39,127 39,126 40,125 41,126 41,126 43,126 44,127 44,127 44,127 44,126 44,125 44,124 44,123 44,123 44,123 43,122 43,122 43,122 43,122 43,122 44,121 44,120 44,120 43,119 42,118 41,118 41,118 41,117 41,117 41,117 41,116 41,115 41,115 41,114 41,113 40,112 40,112 40,111 39,111 39,111 39,111 40,110 40,110 40,110 41,109 41,109 41,109 41,108 42,107 42,106 42,105 42,105 42,105 43,104 43,103 43,103 43,103 44,102 44,102 43,100 43,100 43,99 44,99 44,99 44,98 44,98 44,98 44,97 44,97 44,96 44,96 45,95 45,95 46,94 46,94 46,94 42,92 41,92 41,92 41,92 39,91 39,91 38,90 37,90 36,90 34,89 34,89 35,89 35,88 35,87 36,86 36,86 36,85 36,85 36,85 36,84 36,84 36,83 37,83 37,82 37,82 37,82 37,82 38,80 38,80 40,79 40,79 40,78 41,78 41,78 41,78 41,77 41,77 41,77 41,77 42,77 42,76 42,76 42,76 42,75 42,75 43,74 43,74 43,74 43,74 44,73 44,73 46,72 46,72 46,72 44,71 43,70 43,69 43,69 43,69 43,69 43,69 42,68 42,68 42,68 42,67 42,66 42,66 42,66 42,65 42,65 41,65 41,65 41,65 41,64 41,64 41,64 41,64 41,64 41,64 40,64 39,64 39,63 39,63 39,63 39,63 39,62 39,62 39,62 38,62 38,62 38,62 38,63 38,63 38,63 38,63 38,63 38,63 38,63 38,63 37,63 37,63 36,63 36,63 35,63 35,63 35,63 35,63 35,63 35,63 35,64 34,64 34,64 34,63 34,63 34,63 34,63 34,64 34,64 34,64 34,64 34,64 34,64 33,64 33,64 33,64 33,64 33,63 33,64 33,64 32,64 32,64 32,64 32,64 32,64 32,64 32,64 32,64 31,64 31,64 31,64 30,64 30,64 30,64 30,64 30,64 30,64 30,64 29,64 29,64 29,64 29,64 29,64 29,64 29,64 29,64 29,64 28,64 28,64 28,64 28,64 28,65 28,65 28,64 28,64 27,64 27,64 27,64 27,64 27,64 27,65 27,65 27,65 27,65 27,65 27,65 27,65 27,65 26,65 26,65 26,65 26,65 26,65 26,65 26,65 26,65 26,65 26,65 25,65 25,65 25,65 25,65 25,65 25,65 25,65 24,65 24,65 24,65 24,65 24,65 24,65 24,65 24,65 24,65 24,65 23,65 23,65 23,65 23,65 23,65 23,65 23,65 23,65 23,66 22,66 22,66 22,66 22,66 22,66 22,66 22,66 21,66 21,66 21,66 21,66 21,66 20,66 20,66 20,66 20,66 20,66 20,66 20,66 20,66 20,66 19,66 19,66 19,66 19,66 19,66 19,66 19,66 19,66 19,66 19,66 19,66 19,67 19,67 18,67 18,67 18,67 18,67 18,67 18,67 18,67 18,67 18,67 18,67 18,67 18,67 18,67 18,67 18,67 18,67 17,67 17,67 17,67 17,67 17,67 17,67 17,67 17,67 17,67 17,67 17,67 17,67 17,68 17,68 17,68 17,68 17,68 17,68 17,68 16,68 16,68 16,68 16,68 16,68 15,68 15,68 15,68 15,68 15,69 15,69 15,69 15,69 15,69 15,69 14,69 14,69 14,69 14,69 14,69 14,69 14,69 13,69 13,69 13,69 13,69 13,69 13,69 13,69 13,69 13,70 13,70 13,70 12,70 12,70 12,70 12,70 12,70 12,70 11,70 11,70 11,70 11,70 11,70 11,70 11,70 11,70 10,70 10,70 10,70 10,70 10,70 10,70 10,70 10,70 10,70 10,70 10,70 10,70 10,70 10,70 10,70 10,70 10,70 9,70 9,70 9,70 9,70 9,70 9,70 9,70 9,70 9,70 9,70 9,70 8,70 8,70 8,70 8,69 8,69 7,70 7,70 7,70 7,70 7,70 6,70 5,69 5,69 5,69 5,69 5,69 4,69 4,69 5,68 5,68 5,68 6,67 6,67 6,67 6,67 4,67 4,67 4,67 4,67 4,67 5,66 5,65 5,65 5,65 5,65 5,64 5,64 5,63 5,63 5,63 5,63 5,62 5,62 5,61 5,61 5,60 5,60 5,60 5,59 5,58 5,57 5,57 5,57 6,56 7,56 7,56 9,56 10,56 11,55 11,55 11,55 10,55 9,55 8,55 8,55 8,55 7,55 7,55 7,55 6,55 5,55 5,55 4,55 3,55 3,55 3,55 1,54 1,54 0,54 0,54 0,54 0,54 0,54 0,53 1,53 1,53 2,53 2,53 3,53 4,53 4,53 5,52 5,52 6,52 7,52 7,52 8,51 8,51 8,51 9,51 9,51 9,50 9,50 10,50 11,50 13,48 14,48 14,48 14,48 14,48 14,48 15,49 15,49 15,50 15,50 15,50 16,50 16,50 16,50 16,50 17,50 19,50 19,50 20,50 20,50 21,50 22,50 22,50 22,50 22,50 22,50 21,49 21,49 21,49 21,48 21,48 20,46 20,46 20,46 19,45 19,45 19,45 18,45 17,45 17,45 17,45 16,45 16,45 16,45 16,45 15,45 15,44 14,44 13,44 12,44 12,44 12,44 12,44 12,44 12,44 11,43 11,43 11,43 10,43 10,43 10,43 10,43 9,42 9,42 9,42 9,42 9,42 8,42 9,42 9,42 9,42 9,41 8,41 8,41 7,41 7,41 7,41 7,40 8,40 8,40 8,40 8,40 8,40 8,40 8,39 9,39 9,39 9,39 9,39 9,39 9,39 9,38 9,38 9,38 9,37 9,37 10,37 10,37 10,37 10,37 10,37 10,37 10,37 11,36 11,36 11,36 11,36 11,36 12,35 12,35 12,35 12,35 12,35 12,35 11,35 11,35 11,34 11,34 11,34 11,34 10,34 10,33 10,33 10,33 10,33 10,33 11,33 11,33 11,32 11,32 11,32 11,32 12,32 12,31 12,31 12,31 12,31 12,31 13,31 13,31 14,32 14,32 14,32 14,32 14,32 14,31 14,31 14,31 14,30 14,30 14,30 15,29 16,28 16,28 17,27 17,26 18,26 18,25 19,25 19,24 20,24 20,24 20,23 20,23 20,22 20,22 20,22 21,21 21,21 21,21 21,20 21,20 21,20 21,19 21,19 21,19 20,18 20,18 20,18 19,17 19,17 18,17 18,16 18,16 18,16 17,16 16,14 17,13 17,13 17,13 17,14 18,14 18,14 18,14 18,14 18,14 19,14 19,14 19,14 19,14 19,14 19,14 19,14 19,13 19,13 20,13 20,13 20,13 20,13 20,12 20,12 20,12 20,12 20,12 20,12 20,12 20,12 20,11 20,11 21,11 22,11 22,11 22,11 21,11 21,11 21,10 21,10 21,10 21,10 22,10 22,10 22,10 22,9 21,9 21,9 21,9 21,8 21,8 21,7 20,7 20,5 19,5 19,5 19,4 19,4 19,3 19,3 19,3 19,2 19,2 20,2 20,2 21,2 21,2 21,2 22,2 22,2 22,2 23,2 23,2 23,2 23,2 23,2 23,2 23,2 24,2 24,2 24,2 24,2 25,2 25,2 25,2 25,2 25,2 25,2 25,2 25,2 26,2 26,2 27,3 27,3 27,4 27,4 27,4 27,4 27,5 27,5 27,5 27,5 27,5 27,5 27,5 28,5 28,5 28,5 28,5 29,5 30,4 30,4 30,3 30,3 30,3 30,3 30,3 29,3 29,3 30,3 30,2 30,2 30,2 30,2 30,2 31,2 31,2 31,2 31,2 31,2 31,2 32,2 32,2 32,2 32,2 32,2 32,2 32,2 32,2 33,2 33,2 33,2 33,2 33,2 33,2 34,2 34,2 35,2 35,3 35,2 35,2 35,2 35,2 35,2 35,2 36,2 36,2 36,2 36,2 36,2 36,1 36,1 36,1 36,1 36,1 36,0 36,0 36,0 36,0 36,0 36,1 36,1 36,1 37,0 37,0 37,0 38,0 38,0 39,0 39,0 39,0 39,0 39,1 39,1 40,2 41,2 42,3 42,3 43,3 43,3 43,3 43,3 43,3 44,3 44,3 44,4 44,4 45,4 45,4 45,4 46,4 46,4 47,4 47,4 47,4 47,4 48,4 48,4 49,4 49,5 49,4 49,4 50,4 50,4 50,3" id="8609" class="canton" fill="steelblue" stroke-width="1" stroke="white" geotype="canton" geoname="Lusignan" code_insee="8609" code_departement="86" nom_departement="Vienne" code_region="75" nom_region="Nouvelle-Aquitaine"/></svg>