<?xml version="1.0" encoding="utf-8"?>
<svg version="1.1" id="svgmap" xmlns="http://www.w3.org/2000/svg" xmlns:xlink="http://www.w3.org/1999/xlink" x="0px" y="0px" width="100%" height="100%" viewBox="0 0 500 297">
<polygon points="0,12 2,12 4,11 5,11 6,10 7,10 10,10 11,10 13,10 14,10 15,9 16,9 18,9 18,9 19,9 19,9 19,9 20,8 21,8 22,7 22,7 22,7 23,7 23,7 23,6 24,6 24,6 25,6 25,6 25,6 26,5 27,5 28,5 29,4 33,4 34,3 35,3 38,3 41,2 42,2 42,2 44,1 44,1 46,0 46,0 46,0 46,0 46,0 47,0 47,0 48,1 50,1 50,1 52,2 52,2 52,2 52,2 52,2 52,2 53,2 53,2 53,3 53,3 53,5 53,5 53,5 53,5 52,6 52,6 52,6 52,6 52,6 52,6 52,6 51,6 51,6 51,7 50,7 50,7 50,7 50,7 49,7 49,7 48,8 47,8 46,9 44,10 44,10 44,10 46,11 47,12 47,12 48,12 48,12 48,12 48,12 48,12 48,12 48,12 48,12 51,13 52,13 54,14 56,15 57,15 57,14 58,15 59,14 59,14 59,14 59,14 60,13 63,15 63,15 64,13 64,13 64,13 65,14 66,14 68,14 68,14 68,14 68,14 68,14 69,14 69,14 70,14 70,15 70,15 71,16 72,16 72,16 76,17 76,17 76,17 76,17 77,16 77,15 77,14 78,14 78,14 78,14 78,14 79,13 79,12 80,11 80,11 80,10 81,10 81,10 83,11 83,11 83,11 83,11 83,11 83,11 84,11 84,11 86,11 86,10 86,10 87,11 87,11 88,11 88,11 89,11 90,12 90,12 91,12 91,12 91,14 92,14 92,14 92,14 92,14 93,14 93,14 93,14 94,14 94,14 95,14 95,14 95,14 95,14 96,14 96,14 96,15 96,15 96,17 96,17 96,18 97,19 97,19 97,20 97,21 97,21 96,22 96,22 96,22 96,22 97,23 98,25 98,25 98,25 98,26 98,26 98,26 98,27 98,28 97,28 97,28 97,29 97,29 97,29 97,30 97,30 97,30 96,30 96,30 96,30 96,31 95,31 95,32 95,32 94,33 94,34 94,34 93,35 92,35 92,36 92,36 92,37 92,38 92,38 91,38 91,39 90,40 90,40 90,40 89,41 88,41 86,42 85,43 86,44 87,44 88,44 89,44 89,45 90,45 90,45 91,45 91,46 91,46 92,46 92,46 92,46 93,46 94,46 95,47 95,47 95,47 95,47 95,47 95,47 96,48 96,48 95,48 95,49 95,49 96,49 96,49 95,49 96,50 96,50 96,50 96,50 96,50 96,50 96,50 95,50 95,50 95,51 95,51 95,51 95,51 95,51 95,51 95,52 95,52 95,52 95,53 95,53 95,53 96,53 96,54 95,54 96,54 96,54 96,54 97,54 98,54 98,54 99,54 99,54 101,54 101,54 101,54 102,54 102,54 102,54 103,54 103,55 103,55 104,56 104,56 104,56 105,57 106,57 106,57 109,58 110,59 110,59 112,59 113,60 115,60 115,60 116,60 116,60 116,61 117,61 117,61 117,61 117,61 118,60 118,60 118,59 118,58 119,58 120,56 120,56 120,54 121,51 122,47 123,46 123,46 123,46 126,47 127,47 128,47 129,47 129,47 130,48 132,48 134,48 136,48 138,49 139,49 140,49 140,49 144,49 145,49 145,49 145,49 147,49 147,49 147,49 147,50 147,50 148,50 148,50 149,50 149,50 150,50 151,50 152,49 153,49 153,49 153,49 153,49 153,49 154,48 154,48 154,47 154,47 154,47 157,48 157,48 158,48 160,49 160,49 160,49 160,49 160,49 163,50 163,51 165,52 165,52 168,53 173,56 178,59 178,59 179,59 179,59 179,59 181,60 182,60 182,60 184,60 185,60 185,59 186,59 186,59 187,59 188,59 189,58 190,58 190,58 191,57 192,57 193,57 194,56 194,56 194,56 195,56 196,56 196,56 196,56 197,55 198,55 198,55 198,55 199,55 199,55 200,55 202,55 203,55 204,55 206,56 206,56 207,56 207,56 207,56 208,56 208,56 208,55 209,54 209,54 209,54 209,54 210,54 210,54 211,53 211,53 211,53 212,53 212,53 212,52 213,52 213,51 214,51 215,51 215,51 215,51 216,51 216,51 216,50 217,50 217,50 217,50 217,50 217,50 217,50 218,49 219,49 220,49 221,48 221,48 222,48 223,48 224,48 225,48 225,48 226,48 227,48 228,48 228,48 229,48 230,48 231,48 231,48 233,48 233,48 234,48 235,48 235,48 236,48 237,47 238,47 238,47 239,47 243,47 245,47 246,47 247,47 247,47 248,46 248,46 249,46 252,47 253,46 253,46 253,46 253,46 255,46 257,45 257,45 260,46 260,46 260,46 261,46 261,46 261,46 262,46 264,45 264,45 265,45 266,45 266,44 266,44 266,44 268,43 269,43 269,42 270,42 271,42 272,41 272,41 272,41 272,41 273,40 274,40 275,40 275,39 276,39 276,39 276,39 277,39 277,39 278,39 278,39 279,39 280,39 280,39 280,38 281,38 281,38 282,38 282,38 283,38 284,38 285,38 287,39 288,39 289,39 289,39 290,39 290,38 291,38 291,38 291,38 291,36 291,36 292,36 293,34 294,33 295,33 295,33 296,33 297,32 297,32 299,32 300,32 300,32 301,32 301,32 301,32 302,32 303,31 303,31 304,31 304,31 304,31 306,30 307,30 307,30 308,31 308,31 308,31 309,31 310,31 310,31 311,31 312,31 312,30 314,30 315,30 317,29 317,29 319,29 319,29 320,29 322,29 323,30 324,30 325,30 326,30 327,31 328,31 331,31 333,31 336,31 337,31 338,31 339,31 340,30 341,30 342,30 344,30 344,30 345,31 345,31 347,32 348,34 349,34 350,32 350,32 353,30 354,29 355,28 356,27 356,27 357,26 357,26 358,26 359,25 360,24 361,24 362,24 363,23 364,23 365,23 367,22 367,22 370,22 371,21 372,21 373,21 374,20 374,20 376,20 376,20 377,20 378,21 378,21 379,21 379,21 379,21 380,21 380,21 379,22 379,22 380,22 380,23 380,23 379,24 379,24 379,25 379,25 379,26 379,27 379,28 379,28 379,28 379,28 379,28 379,29 379,30 379,31 380,32 381,33 382,33 382,33 382,33 383,34 383,34 384,34 384,35 385,36 385,36 385,37 386,37 387,37 388,36 388,36 389,36 389,36 389,37 389,37 389,37 390,37 390,37 391,36 393,35 394,36 394,37 394,37 394,38 395,38 395,39 395,39 395,39 395,39 395,40 396,41 396,41 396,42 397,43 397,43 397,44 398,46 399,48 399,48 399,50 400,52 400,53 401,54 401,56 402,58 402,59 402,59 403,61 404,61 404,63 405,64 405,65 406,67 409,66 409,66 413,65 414,65 414,64 414,64 415,64 415,64 417,64 417,64 417,64 418,64 419,64 419,64 419,64 419,64 421,64 421,64 421,64 422,64 423,64 425,64 426,63 430,62 430,61 433,60 434,60 434,60 434,60 434,60 437,60 437,60 438,60 438,60 441,63 441,63 444,64 444,65 446,66 447,66 447,66 449,65 449,65 451,64 452,63 452,63 452,63 452,63 452,63 455,62 455,62 456,62 457,62 457,63 459,61 460,61 460,61 460,61 461,61 462,60 462,60 462,60 464,63 469,62 469,62 469,63 470,63 471,63 471,63 471,63 474,62 475,62 477,65 478,65 480,64 481,65 481,65 481,65 483,65 483,65 484,65 485,64 486,64 487,64 488,64 488,65 488,65 488,65 488,66 488,67 489,68 490,69 490,70 490,71 490,71 490,72 490,72 490,72 491,74 491,74 491,75 492,75 492,77 492,77 492,78 492,78 493,81 493,83 493,83 496,89 497,89 497,90 499,92 500,94 500,94 500,94 500,94 500,95 499,95 499,96 498,96 498,96 497,97 496,97 495,97 494,97 494,97 493,98 492,99 492,99 491,100 490,101 489,101 489,102 488,102 488,103 488,104 488,104 487,105 487,106 487,106 486,107 486,107 486,107 485,108 485,108 484,108 483,108 482,109 482,109 482,109 482,110 482,110 482,110 481,111 480,112 480,112 480,113 480,114 479,115 479,116 479,116 479,117 478,117 478,117 478,117 478,117 478,118 477,118 477,118 476,119 475,119 474,120 473,120 472,120 472,121 472,121 471,121 470,121 469,122 469,122 469,122 468,122 468,122 468,123 467,123 466,124 466,124 465,125 465,125 465,125 465,125 465,126 464,126 464,126 464,127 464,127 463,127 463,128 462,129 462,129 462,130 462,130 461,131 461,131 461,131 460,132 460,132 460,132 460,133 460,133 460,133 460,133 457,134 458,135 458,135 458,135 456,136 456,136 456,136 456,137 457,138 457,139 457,139 457,139 457,140 458,140 460,143 460,143 460,143 460,144 461,144 461,145 460,144 458,145 458,146 457,146 457,145 457,145 457,145 455,143 453,143 451,145 451,145 451,145 448,146 448,146 447,146 447,146 449,148 451,150 450,150 449,150 449,150 449,150 449,150 448,150 448,149 446,148 446,148 445,147 444,147 444,147 443,147 442,148 441,147 441,147 440,147 439,147 439,147 439,147 440,148 438,149 438,149 438,149 438,150 439,150 440,151 440,151 440,151 441,152 442,152 442,152 442,152 443,152 443,153 444,153 444,154 444,154 445,155 445,155 444,155 443,155 443,155 443,155 442,156 442,156 442,156 442,156 441,156 441,156 440,156 439,157 439,157 438,157 438,157 437,158 437,158 436,158 435,159 435,159 435,160 434,160 434,161 433,162 433,162 433,163 432,163 432,164 431,165 431,165 431,166 431,167 431,167 431,167 431,167 432,167 432,167 432,168 432,168 433,168 434,170 435,170 435,170 436,170 437,170 437,170 438,171 438,171 439,172 439,172 439,172 438,173 439,173 439,174 440,173 440,173 441,173 442,172 443,171 443,171 445,170 445,170 446,169 446,169 448,169 448,168 449,168 449,168 450,168 450,168 450,168 451,168 452,168 453,168 454,168 454,168 454,168 455,168 455,168 455,167 456,167 456,167 457,166 457,166 459,166 459,165 460,165 461,165 461,165 461,165 461,165 461,165 462,165 463,165 463,165 463,165 464,165 464,165 464,166 464,166 464,166 464,166 465,166 465,166 465,166 465,166 466,167 466,167 466,167 466,167 466,168 466,168 466,169 466,171 466,171 467,171 467,172 468,172 468,172 468,172 469,173 468,173 468,173 468,173 468,173 468,173 467,174 465,174 465,174 465,174 463,176 457,180 455,181 455,181 454,181 454,181 454,181 454,182 454,182 453,182 453,182 453,183 453,183 453,183 451,186 451,186 449,186 448,186 448,186 448,186 447,186 447,186 446,186 446,187 445,187 445,188 445,188 446,188 446,189 446,189 446,189 446,190 446,190 446,190 446,191 446,191 446,193 446,193 446,193 445,194 445,194 445,194 444,195 444,195 444,195 444,197 444,197 444,197 443,197 442,198 442,198 442,198 441,199 441,199 439,200 437,201 437,201 437,202 436,202 436,202 435,203 433,203 433,204 431,204 429,204 429,204 429,205 429,205 430,205 430,206 430,206 430,207 430,209 431,210 431,211 431,212 432,213 432,214 432,215 432,216 433,217 433,217 435,218 435,218 436,218 437,218 438,218 438,218 439,218 439,218 440,219 441,219 441,219 442,220 442,220 442,220 441,220 441,221 440,221 440,221 440,221 439,222 439,223 439,223 438,224 437,225 435,226 435,226 434,226 434,226 432,227 431,230 431,230 430,231 429,233 429,233 429,233 429,233 427,233 427,233 426,233 424,234 424,234 424,234 424,234 423,234 423,234 423,234 423,234 424,234 424,234 425,235 425,235 426,235 426,236 427,236 427,236 428,236 428,236 428,236 428,236 428,237 429,237 430,237 431,238 432,239 432,239 432,239 432,239 432,239 433,240 433,240 433,240 433,240 433,240 433,240 431,244 431,244 431,244 431,244 432,243 433,243 434,243 434,243 435,244 435,244 435,243 435,243 436,243 436,243 436,243 436,244 436,244 436,244 436,244 437,245 437,245 437,245 437,245 437,245 436,247 436,247 435,248 435,248 436,249 436,249 436,250 436,250 436,250 436,251 436,251 436,251 435,251 435,251 432,256 432,256 436,257 436,258 434,259 434,259 433,259 433,259 433,259 433,259 433,259 431,261 430,263 430,264 429,264 428,269 428,269 428,269 422,269 421,269 421,269 421,269 419,271 419,271 419,271 417,268 417,268 416,268 415,268 415,268 414,268 413,268 413,268 413,267 412,267 411,267 411,267 410,266 409,266 409,266 408,266 408,266 408,266 408,266 408,266 408,266 405,267 404,267 404,267 398,268 398,268 398,268 397,268 394,271 394,271 393,271 393,271 393,271 393,271 393,272 393,272 393,272 393,272 393,272 393,274 392,274 392,275 392,275 392,275 392,275 392,275 387,273 387,273 387,273 386,275 386,275 384,277 384,277 383,277 380,277 379,276 377,276 376,276 372,276 371,275 370,275 369,275 369,275 368,275 367,275 367,275 367,275 367,276 367,276 367,276 367,276 367,276 367,276 367,277 367,277 367,277 367,277 367,278 367,278 367,278 367,278 367,279 367,279 367,280 367,280 367,280 366,281 366,281 365,281 364,283 364,283 365,283 365,283 365,284 365,284 365,284 365,284 366,285 366,285 366,285 366,286 367,286 367,287 367,287 368,287 368,287 368,287 369,288 369,288 369,288 370,288 370,289 371,289 371,289 371,290 372,290 372,290 373,290 374,290 375,291 375,291 376,291 376,291 377,291 377,291 377,291 376,292 375,294 375,295 375,295 375,295 374,295 374,297 374,297 374,297 374,297 373,297 371,297 371,297 371,297 370,297 369,296 368,296 368,296 366,296 365,296 365,296 363,296 362,295 362,295 361,295 359,294 359,294 359,294 358,294 356,294 356,294 353,294 352,294 351,294 349,294 348,294 347,293 345,292 343,292 342,291 340,291 339,291 338,291 335,290 334,290 333,290 333,290 333,290 333,289 333,288 333,288 333,286 333,286 333,286 325,279 324,279 324,279 324,275 322,276 322,276 315,277 315,277 315,277 312,277 312,277 306,273 306,273 305,273 304,272 305,272 294,266 294,265 292,264 290,262 289,261 288,259 288,258 288,258 287,257 286,257 286,257 286,255 286,255 286,255 284,261 284,261 284,262 284,263 283,264 283,265 283,265 283,265 284,266 284,267 284,267 283,269 283,270 282,270 282,271 282,271 282,271 281,271 280,273 279,274 279,274 278,275 277,276 277,276 277,276 276,277 276,277 276,278 275,278 274,280 274,280 274,281 273,281 272,280 272,280 272,280 272,280 271,279 271,279 271,279 270,279 269,279 269,279 268,280 268,280 266,279 266,279 266,280 266,280 266,280 265,280 264,280 264,280 264,280 265,279 265,279 263,278 263,278 260,277 260,277 260,277 257,277 257,277 256,277 256,277 256,277 255,277 255,277 254,277 254,277 254,277 252,276 252,276 252,275 251,275 251,275 253,273 253,273 252,273 252,273 251,272 248,272 248,271 248,271 247,271 247,271 247,270 246,271 246,271 246,272 246,272 245,272 241,271 241,271 242,268 242,268 242,268 242,268 241,268 241,267 240,267 239,266 238,266 238,265 236,265 236,264 235,264 234,264 234,264 234,264 234,264 233,263 232,263 231,262 231,262 230,262 229,261 229,261 229,261 228,261 227,260 226,259 226,259 226,259 225,259 224,258 223,258 222,258 221,257 219,257 219,256 218,256 218,256 216,255 217,254 217,254 217,254 217,254 214,253 212,252 210,251 210,251 210,250 211,250 211,250 212,249 213,249 214,248 214,248 210,247 207,246 207,246 207,246 204,245 194,242 194,242 194,242 199,241 197,239 196,239 195,238 193,237 193,237 193,237 195,235 195,235 194,235 190,233 190,233 180,229 180,229 179,229 180,225 179,224 179,224 180,223 180,221 180,220 180,220 180,219 180,219 180,218 180,217 180,217 180,216 180,214 180,212 180,212 179,212 178,212 173,210 173,210 173,209 173,209 173,209 174,209 174,209 175,208 175,208 175,208 177,206 179,204 179,204 181,203 182,202 184,201 184,201 186,200 186,199 187,199 189,196 191,194 192,194 192,194 192,193 193,193 193,193 193,193 194,193 194,193 196,193 196,193 197,193 198,192 199,192 200,191 201,191 200,191 199,190 198,190 198,190 198,190 197,190 196,190 195,189 195,189 194,189 192,189 191,189 189,189 187,188 186,188 185,188 182,186 179,186 179,185 178,185 178,185 177,185 176,185 170,184 169,184 168,184 167,183 165,183 161,182 161,182 161,183 161,183 161,182 161,182 161,182 161,182 161,182 161,182 161,181 162,181 162,180 163,178 164,176 165,174 165,174 165,173 165,173 165,173 165,173 162,171 161,171 161,171 161,169 161,168 161,167 161,167 159,167 159,167 159,167 159,167 158,167 157,167 156,167 156,167 155,167 155,167 155,167 155,164 155,163 155,163 155,163 154,163 152,162 151,163 151,163 150,162 150,162 150,162 150,162 149,162 149,162 149,162 147,161 147,161 146,161 146,160 145,160 144,160 144,160 143,159 143,159 143,159 144,158 144,157 144,157 144,157 143,157 143,157 143,157 142,157 142,155 142,155 142,154 142,152 142,151 142,151 142,151 142,150 142,150 142,150 143,148 144,149 144,149 144,149 145,149 145,149 147,148 149,147 150,147 151,147 155,146 157,145 161,144 162,144 162,144 165,143 166,143 167,143 168,143 170,143 171,143 171,143 172,143 173,143 174,143 175,142 177,142 178,142 178,142 179,142 181,141 182,141 182,141 184,141 185,141 191,139 191,139 192,139 193,139 193,139 194,139 194,138 194,138 194,138 195,138 195,138 194,138 194,138 194,137 195,137 195,136 195,136 195,135 196,134 196,133 197,133 197,133 197,133 197,132 197,132 197,132 197,132 196,132 195,132 194,133 194,133 192,134 191,134 190,134 189,134 189,134 189,134 188,133 188,133 188,133 187,132 186,132 186,132 184,132 183,132 183,132 183,132 182,132 181,132 180,131 180,131 180,130 179,129 178,127 178,127 178,125 176,126 176,126 176,126 174,126 174,126 174,126 174,126 173,126 172,126 170,126 170,126 170,126 169,126 169,126 168,125 168,124 168,123 168,123 168,123 168,123 167,123 167,122 166,122 166,122 165,123 163,124 163,123 163,123 163,122 163,122 162,122 161,120 160,121 159,122 158,122 158,122 158,122 158,123 157,122 156,122 156,122 155,122 155,122 154,123 152,123 151,123 151,123 151,123 150,123 150,122 149,122 148,122 148,122 148,122 146,122 145,122 145,122 144,122 144,122 143,122 142,122 142,122 141,123 141,123 141,123 141,123 141,123 139,123 139,122 139,122 139,122 133,119 133,119 133,119 133,119 132,118 132,117 132,117 131,117 128,119 127,119 126,120 126,120 125,119 125,118 125,118 125,117 125,116 125,116 125,116 125,115 125,115 125,115 125,115 125,114 125,114 125,114 125,114 125,114 125,113 126,113 126,112 126,112 126,112 126,113 125,113 124,113 124,113 124,114 123,114 122,115 121,116 120,117 120,117 119,117 118,118 117,118 117,119 117,119 116,119 116,119 114,120 114,120 112,118 111,117 110,116 109,116 108,116 108,115 107,115 106,115 106,115 106,114 106,113 106,112 106,111 106,111 106,111 106,110 105,110 104,109 103,109 103,108 100,107 100,106 100,106 99,105 99,104 99,104 98,104 98,103 98,103 98,103 97,102 97,102 96,102 96,102 96,102 96,101 97,101 97,101 97,101 100,100 100,99 101,99 103,98 103,98 103,98 103,97 103,96 103,95 103,94 99,93 98,93 98,93 97,92 95,92 95,91 94,91 92,91 91,90 90,90 88,90 87,89 86,89 85,89 85,89 84,89 84,89 81,88 80,87 80,88 79,89 78,90 78,91 77,91 77,92 76,92 75,93 75,94 75,94 75,95 75,95 75,95 75,95 75,95 75,95 74,94 74,94 74,94 74,94 71,93 71,93 71,93 71,93 71,94 71,94 71,95 71,95 71,95 71,96 72,96 72,97 72,97 72,97 71,98 71,98 70,98 69,99 68,99 66,99 65,99 65,99 64,99 64,99 64,99 63,98 61,96 61,96 61,96 57,93 57,93 57,93 57,93 57,92 57,92 57,92 57,92 56,92 56,92 56,91 55,91 55,91 54,91 54,91 54,91 54,79 54,79 52,77 52,77 50,75 50,75 36,56 33,55 32,55 32,55 35,52 35,52 34,51 34,51 33,51 33,50 32,49 31,48 30,48 30,48 29,47 26,45 26,44 21,41 18,40 18,40 19,39 19,39 22,37 22,37 21,36 21,36 18,34 20,32 19,32 19,32 19,32 19,31 23,27 22,26 21,25 20,25 18,23 17,22 17,22 15,21 12,19 12,19 10,18 8,17 8,17 7,16 3,14 2,14 0,13 0,12" id="8601" class="canton" fill="steelblue" stroke-width="1" stroke="white" geotype="canton" geoname="Chasseneuil-du-Poitou" code_insee="8601" code_departement="86" nom_departement="Vienne" code_region="75" nom_region="Nouvelle-Aquitaine"/></svg>