<?xml version="1.0" encoding="utf-8"?>
<svg version="1.1" id="svgmap" xmlns="http://www.w3.org/2000/svg" xmlns:xlink="http://www.w3.org/1999/xlink" x="0px" y="0px" width="100%" height="100%" viewBox="0 0 500 254">
<polygon points="1,134 6,130 7,129 9,127 11,126 13,126 16,125 19,124 20,124 20,123 22,122 29,118 37,111 41,107 42,106 45,104 45,104 49,101 52,98 59,94 61,93 62,92 63,91 74,87 79,85 88,81 88,81 71,61 70,59 70,59 71,59 76,58 84,58 91,57 101,55 130,48 142,46 148,45 154,44 159,43 169,42 175,42 188,41 188,41 188,39 187,29 186,22 185,20 183,18 178,12 177,11 175,7 174,5 184,0 185,0 186,0 186,0 195,3 204,7 207,7 209,8 220,10 223,11 225,12 226,12 227,13 229,15 231,17 231,17 234,18 235,19 237,20 237,20 234,24 226,33 226,34 239,37 239,37 241,38 246,39 251,40 259,41 259,42 259,42 262,43 269,44 273,45 278,45 288,47 288,47 295,49 300,50 300,50 300,48 302,41 302,39 303,37 303,35 305,36 307,38 307,40 308,40 309,41 310,41 309,41 309,41 311,42 311,42 311,43 312,43 325,54 325,55 326,55 333,62 336,64 337,65 338,65 341,66 342,67 343,67 350,66 357,65 361,63 363,62 364,62 366,60 367,57 366,57 366,57 365,55 364,53 363,52 363,51 364,49 364,47 363,44 363,43 363,43 363,43 375,46 375,46 376,48 375,49 377,50 378,50 378,51 378,51 378,50 378,50 378,47 378,46 378,44 382,40 384,38 385,37 388,35 389,33 392,30 395,26 398,23 400,23 412,27 412,27 414,28 415,28 420,29 423,29 427,31 435,33 438,34 440,35 448,37 452,38 453,39 459,40 463,42 465,43 468,44 484,47 482,52 482,54 482,59 482,61 482,61 481,62 476,65 472,68 471,68 459,74 459,74 458,74 458,74 456,76 455,76 455,76 459,78 460,79 463,80 464,82 464,83 465,85 466,86 466,86 466,87 471,92 473,94 473,94 481,100 484,102 487,104 491,107 493,108 493,109 494,111 494,113 494,115 494,117 495,121 495,125 495,125 495,125 494,125 489,129 487,130 487,130 487,131 487,132 490,133 491,133 500,135 499,138 498,141 498,142 498,142 495,145 491,147 489,148 488,148 486,148 484,148 483,148 481,148 480,148 477,146 476,146 475,147 474,151 474,151 474,154 473,156 473,157 473,157 467,165 465,172 465,173 465,175 466,178 466,180 466,180 461,182 459,183 458,183 458,183 456,183 452,184 451,185 447,185 443,186 442,186 440,187 438,187 437,187 436,187 434,187 432,188 431,188 430,188 426,189 425,189 425,189 420,190 417,191 415,192 412,192 410,193 410,193 409,193 402,196 401,196 399,198 397,199 395,201 392,203 390,205 389,206 389,206 388,206 387,207 385,207 384,207 384,208 383,208 381,209 381,209 380,209 379,210 378,211 376,213 375,213 373,214 370,217 367,219 366,219 366,219 365,220 360,223 360,223 356,226 354,227 353,227 348,232 348,232 346,233 345,234 342,237 341,237 341,237 340,237 340,237 339,235 339,234 339,234 338,234 337,232 334,230 334,231 330,233 329,233 327,234 324,236 323,236 322,236 322,236 321,237 320,237 318,237 316,237 314,237 313,237 310,237 308,237 306,237 306,237 305,236 304,236 303,236 302,235 301,235 301,234 300,234 299,233 298,232 297,230 296,227 297,226 297,226 296,226 295,225 292,225 292,225 291,224 289,223 287,223 286,222 286,222 284,222 283,222 283,222 282,222 282,223 281,223 281,223 280,223 278,222 277,222 277,224 277,226 276,226 276,228 276,229 277,229 277,231 277,232 276,232 275,232 275,232 274,232 274,232 274,232 274,232 274,232 273,232 273,231 272,230 272,229 271,228 270,228 270,227 270,227 270,227 270,227 270,227 269,226 269,226 269,226 269,226 269,226 269,226 268,226 268,226 268,225 268,225 265,223 264,223 263,222 263,222 262,222 262,221 261,221 261,221 261,221 252,216 252,215 251,215 250,214 246,211 245,211 245,211 244,211 244,210 243,210 243,210 242,210 242,210 242,209 241,209 240,209 239,209 239,209 239,208 238,208 237,208 235,207 235,206 234,206 233,206 233,206 232,206 232,206 232,205 232,205 231,205 230,205 230,205 229,205 229,205 228,205 228,205 227,205 227,204 227,204 227,204 226,204 225,204 225,204 224,205 224,205 223,205 222,205 222,205 222,205 222,205 221,205 221,205 221,205 220,204 220,204 220,204 219,204 219,204 217,204 215,204 215,204 214,204 214,204 214,203 214,203 214,203 214,202 214,200 214,200 213,200 209,199 207,199 206,199 205,199 200,198 198,198 198,198 197,198 197,198 196,198 196,198 195,198 192,199 189,199 188,206 186,210 183,214 183,215 182,216 181,218 181,218 180,220 178,222 176,223 174,225 173,227 170,228 167,230 166,231 165,231 164,232 162,233 160,234 159,234 157,235 148,240 147,241 146,241 143,244 143,245 142,246 142,246 140,250 140,251 139,251 139,252 138,253 138,254 137,254 137,254 136,254 135,254 135,254 135,254 134,254 134,254 133,254 133,254 132,253 132,253 132,252 133,249 134,243 134,242 134,242 134,242 129,241 125,239 125,239 121,238 116,237 113,237 111,236 111,236 110,236 110,236 110,235 110,235 110,234 110,234 110,234 110,234 110,234 110,234 110,233 110,232 111,230 111,229 111,228 111,227 111,225 111,225 111,224 111,224 111,224 111,224 111,224 111,224 111,223 112,223 112,223 112,222 114,220 114,220 114,220 114,219 114,219 114,219 115,219 115,219 115,218 115,218 115,218 115,218 115,218 115,218 115,217 115,216 115,216 115,215 115,215 114,214 113,213 111,210 110,209 110,208 110,207 110,206 110,205 110,204 109,203 107,202 104,200 102,198 102,198 99,195 98,195 98,194 93,191 91,189 90,189 89,189 87,189 85,190 84,190 84,190 81,191 79,192 78,192 73,191 73,191 73,191 73,191 72,191 72,191 71,191 70,191 68,191 67,192 57,191 42,210 41,210 4,207 3,207 4,206 13,198 16,195 21,192 22,191 25,188 27,186 28,185 28,182 28,182 28,182 29,181 32,177 32,177 34,175 36,171 38,169 38,169 28,163 26,161 25,160 25,159 19,155 18,155 14,157 13,153 12,151 11,149 11,148 11,147 10,147 9,145 8,144 5,141 2,138 0,136 0,135 0,135 1,134" id="8614" class="canton" fill="steelblue" stroke-width="1" stroke="white" geotype="canton" geoname="Poitiers-2" code_insee="8614" code_departement="86" nom_departement="Vienne" code_region="75" nom_region="Nouvelle-Aquitaine"/></svg>