<?xml version="1.0" encoding="utf-8"?>
<svg version="1.1" id="svgmap" xmlns="http://www.w3.org/2000/svg" xmlns:xlink="http://www.w3.org/1999/xlink" x="0px" y="0px" width="100%" height="100%" viewBox="0 0 500 369">
<polygon points="102,27 102,26 102,26 103,26 104,26 104,25 104,25 105,25 112,22 112,22 113,22 112,22 112,22 112,22 115,20 116,20 116,20 116,20 116,20 116,20 116,20 116,20 116,20 117,20 118,20 118,20 118,20 118,19 118,19 118,19 120,18 120,18 121,18 122,18 122,18 122,18 123,17 123,17 123,17 124,17 124,16 124,16 124,16 123,15 122,15 122,15 122,15 122,14 122,14 122,13 122,13 123,13 124,13 124,13 126,13 127,13 127,13 127,13 127,13 127,13 127,13 129,14 129,13 130,13 130,13 127,11 128,11 129,10 130,10 130,9 132,8 132,9 133,10 133,10 133,10 133,10 134,9 135,9 135,9 137,10 138,10 138,10 138,10 140,9 140,9 139,8 139,8 139,6 139,6 140,6 142,7 143,7 144,7 146,8 147,8 147,8 147,8 147,8 147,8 147,8 148,6 148,6 149,4 149,3 149,2 149,2 149,2 149,0 149,0 150,0 150,0 150,0 151,1 151,1 153,2 153,2 154,2 155,2 156,2 160,3 160,3 160,3 160,3 160,3 162,3 165,3 165,3 165,2 165,2 165,2 165,2 174,3 186,5 187,5 188,5 188,5 188,6 193,8 195,9 196,10 196,10 196,10 196,10 196,10 198,12 199,12 199,12 199,12 200,12 200,12 200,15 200,16 201,17 201,18 200,18 200,19 200,20 200,20 201,20 204,19 204,19 205,19 207,19 208,19 211,19 211,19 211,20 211,20 211,20 211,20 212,21 212,21 212,21 215,20 215,20 215,20 215,20 215,20 216,20 216,21 216,21 215,22 215,23 215,23 215,23 216,24 216,24 217,24 217,24 217,24 217,24 217,24 217,24 217,25 217,25 217,26 217,26 217,26 218,25 218,25 220,26 220,26 220,26 219,27 219,27 219,27 219,27 219,27 219,27 219,27 220,27 220,27 220,27 220,27 220,27 220,27 221,28 221,28 222,29 222,29 223,29 225,29 225,29 225,29 225,29 226,30 226,30 228,29 230,29 230,29 231,29 231,29 234,31 234,31 236,32 236,32 236,32 237,30 238,29 238,29 238,29 238,28 238,28 238,28 238,27 238,27 239,27 239,27 239,27 239,26 239,26 241,25 242,25 242,25 242,25 242,24 242,24 243,23 242,23 242,23 242,22 242,21 242,21 242,20 242,20 243,20 243,20 243,19 243,19 243,19 243,19 244,19 244,18 244,18 246,18 246,18 246,18 246,18 247,18 247,18 247,18 250,16 250,16 253,16 254,16 254,16 254,16 255,16 254,16 254,16 254,15 256,12 256,12 256,12 256,12 258,12 258,13 261,13 261,13 260,15 260,15 260,15 260,16 260,16 260,16 261,16 261,16 261,17 261,17 261,18 261,18 261,18 261,18 261,18 262,17 262,17 261,17 261,17 261,17 262,15 262,15 263,16 264,16 265,16 264,15 264,15 266,15 266,15 266,16 266,16 266,16 267,17 267,17 267,18 267,18 267,18 271,18 272,18 272,18 272,17 271,15 272,14 271,14 271,13 271,13 271,13 270,13 270,12 270,12 270,12 270,12 270,10 270,10 271,10 272,10 272,10 272,10 272,10 272,10 272,9 272,9 272,9 272,8 272,7 273,7 273,7 273,7 273,7 278,5 278,5 279,5 279,5 280,5 280,5 280,5 281,3 282,2 282,2 282,2 283,2 284,2 284,2 285,2 286,3 286,3 287,3 287,3 287,3 288,3 288,3 288,4 289,5 289,5 290,5 290,5 290,5 291,6 292,6 294,6 296,6 296,7 297,7 296,8 296,8 298,9 298,9 298,7 300,7 302,8 301,9 301,9 302,9 303,10 303,10 303,10 305,7 305,7 306,8 307,8 308,8 310,8 312,9 312,9 312,9 312,11 312,12 312,13 312,13 311,14 308,16 307,16 307,16 307,16 306,16 306,16 306,17 306,17 305,17 305,18 304,18 304,18 304,18 303,19 303,20 302,20 302,21 301,22 300,22 300,23 300,23 299,25 300,26 300,26 299,27 299,28 298,29 298,29 298,30 297,30 297,31 296,32 296,33 296,33 296,34 296,34 298,35 298,35 298,35 299,36 299,36 300,37 300,37 300,38 301,39 301,39 301,39 306,40 307,40 309,40 310,40 311,40 312,40 316,40 318,40 319,40 319,41 319,41 318,42 318,42 318,43 316,46 316,46 316,46 316,46 316,46 317,47 316,48 316,48 317,48 317,49 318,49 318,49 318,50 318,50 319,50 319,50 320,49 321,50 320,52 320,54 320,54 320,54 320,54 320,56 320,57 320,59 320,60 320,60 320,61 320,61 320,61 321,61 322,61 323,61 325,62 325,62 328,62 328,62 329,63 330,63 333,64 334,64 334,64 335,64 336,65 338,65 339,65 339,65 340,66 341,66 341,66 341,66 341,67 342,67 343,68 344,69 344,69 344,70 345,71 346,71 346,71 346,71 346,73 346,73 346,74 346,74 346,74 345,75 345,75 345,75 347,76 347,76 349,77 349,78 349,78 349,78 349,78 349,79 349,79 350,79 350,79 350,79 351,79 351,80 352,80 353,80 353,81 354,81 354,81 355,82 357,82 358,83 358,83 358,83 359,84 359,85 359,85 359,85 358,87 358,88 358,89 357,92 357,93 357,93 356,96 355,96 355,96 354,97 354,97 354,98 354,98 354,98 353,100 353,101 353,102 353,103 353,104 352,105 352,107 352,107 352,107 351,107 351,108 351,109 350,109 350,110 350,110 350,110 350,110 349,110 349,111 348,113 347,113 346,114 345,115 345,115 345,116 344,117 344,117 342,119 341,119 341,120 340,120 339,121 338,121 338,121 337,122 336,122 334,123 334,124 333,124 333,124 333,124 333,124 332,125 331,126 329,128 328,128 327,129 326,129 326,130 325,130 324,130 324,130 323,130 323,130 322,131 321,131 319,131 319,132 318,132 316,132 316,132 315,132 313,133 313,134 312,136 312,136 311,136 311,136 311,136 311,138 310,138 310,138 310,138 310,139 310,140 310,140 309,141 309,141 309,141 311,141 311,141 310,143 310,143 310,143 309,143 309,143 309,143 310,143 310,144 309,145 308,145 307,145 307,145 307,146 306,146 306,147 306,147 306,147 306,147 307,147 307,148 308,147 308,147 308,147 309,148 309,148 309,148 309,148 311,149 310,150 310,150 310,150 311,150 314,149 314,149 316,149 316,149 316,149 316,149 315,150 315,150 314,151 314,151 314,152 313,152 312,153 312,153 311,153 311,153 312,154 312,154 312,154 312,154 312,155 313,155 313,155 312,155 312,155 312,155 313,155 313,156 313,156 313,156 313,156 313,156 313,157 313,157 312,157 313,158 313,158 313,158 313,158 313,158 314,158 314,158 314,158 315,159 315,160 315,162 315,162 316,163 316,163 315,163 315,163 315,163 314,163 313,163 313,163 313,163 312,164 312,164 312,164 311,164 311,164 309,164 309,164 309,164 309,165 309,165 309,165 309,165 309,165 310,166 311,166 311,166 311,166 312,166 312,167 313,167 314,168 315,168 316,169 317,169 317,170 317,170 318,171 318,172 321,173 321,174 322,174 322,174 322,175 322,175 322,175 320,175 320,175 320,175 321,176 321,176 320,177 320,177 317,177 317,177 317,178 317,178 317,178 318,179 318,179 319,179 318,180 318,181 318,181 316,180 316,180 316,181 316,181 316,181 316,182 316,183 316,183 317,183 317,183 317,183 317,184 317,184 317,184 317,186 318,186 317,188 317,188 318,188 318,188 318,188 318,188 318,189 319,189 319,189 319,189 319,189 319,189 319,189 319,189 319,190 319,190 320,190 320,190 320,191 321,191 322,190 323,190 324,191 325,191 326,191 327,191 327,190 328,191 329,190 329,190 331,190 331,190 333,190 334,190 334,190 334,190 335,190 336,190 337,190 337,190 338,190 338,190 340,190 340,191 341,191 342,191 343,192 345,193 345,193 346,193 347,193 347,193 348,194 349,194 349,194 350,195 351,195 351,195 352,195 353,196 355,197 356,197 356,197 357,197 357,197 357,197 358,197 359,197 360,197 362,197 362,197 363,197 364,197 364,197 365,198 366,198 367,198 367,198 368,198 369,199 370,199 370,200 372,200 372,201 372,201 373,202 373,202 374,202 374,202 374,203 374,204 375,204 375,204 375,204 375,204 376,205 377,205 377,205 379,205 380,205 381,205 381,206 382,206 382,205 383,205 383,206 386,206 386,205 387,206 388,205 390,205 391,205 391,205 393,205 394,205 394,205 395,205 395,205 396,204 397,204 399,204 399,204 400,204 400,204 402,204 402,205 402,205 402,205 403,206 404,206 404,206 405,207 405,208 406,208 407,209 407,210 407,210 408,211 408,211 409,212 409,212 410,213 410,214 410,214 410,214 411,215 411,215 411,215 412,215 412,215 413,215 414,215 414,215 415,215 416,215 417,214 417,214 418,214 418,214 419,214 420,214 421,214 421,215 421,215 422,215 423,216 424,216 424,216 425,217 425,217 426,218 426,218 426,218 426,218 427,220 428,220 428,220 428,220 429,220 429,220 430,221 431,221 431,221 431,221 432,221 432,221 432,222 432,222 433,223 433,223 433,224 433,224 434,224 435,224 436,225 436,226 437,226 437,226 438,227 439,227 439,228 439,228 439,228 439,229 439,229 440,229 440,229 441,230 441,230 442,230 442,230 442,230 443,231 443,231 444,232 444,232 445,232 445,233 445,233 446,233 447,233 448,233 448,233 449,233 449,233 449,234 450,234 450,234 450,234 451,235 451,235 454,235 454,235 455,235 455,235 456,235 456,235 456,235 457,235 458,236 458,236 458,236 459,236 459,236 460,236 460,237 461,237 461,237 461,237 462,237 463,239 464,239 465,240 466,241 467,241 467,241 467,241 470,241 470,241 471,241 471,242 472,242 472,242 472,242 473,242 474,244 474,244 474,244 474,245 474,245 474,245 474,246 474,246 473,247 473,248 473,249 473,249 473,249 473,251 473,251 472,252 472,253 472,253 472,253 472,253 473,254 473,254 474,254 475,255 475,255 476,256 477,257 478,257 478,257 479,257 480,258 480,258 481,258 481,258 482,258 482,258 483,258 483,258 483,258 484,258 485,257 485,257 487,257 487,256 489,256 489,255 489,255 489,255 489,254 489,254 489,254 489,253 489,253 488,252 487,251 487,251 487,250 486,250 486,250 486,249 485,249 485,249 485,249 484,249 484,248 484,248 484,248 484,248 484,248 485,247 485,247 485,247 486,247 487,247 487,247 488,247 490,247 493,248 493,248 494,248 494,248 495,248 495,248 497,248 498,248 498,248 499,248 499,248 499,248 500,248 500,248 499,249 499,249 500,249 499,250 500,251 500,251 498,252 498,253 498,253 498,253 497,253 496,253 496,254 495,254 494,257 494,257 494,258 494,258 494,258 493,258 492,258 491,261 491,261 492,261 492,261 492,262 491,263 491,263 488,262 487,263 486,264 486,264 486,264 485,264 485,265 485,265 487,264 488,264 488,264 489,264 489,263 490,264 489,265 489,265 488,265 486,266 482,266 482,266 482,266 482,266 480,266 480,266 480,266 479,266 478,266 478,266 478,267 477,267 477,267 475,267 475,267 473,265 471,262 471,262 469,262 466,261 465,260 465,260 464,260 464,261 463,261 463,261 463,261 462,261 462,261 462,261 462,261 462,261 462,261 462,261 462,261 462,261 462,261 462,261 462,261 461,262 461,262 461,262 460,263 460,263 460,263 459,263 459,264 458,264 458,264 458,265 457,265 457,265 457,266 457,266 457,266 456,266 455,266 455,266 455,266 455,266 455,266 455,267 455,267 454,267 453,267 453,268 454,268 454,268 453,268 453,269 452,269 452,270 452,270 452,270 452,270 451,270 451,271 450,271 450,272 449,273 449,273 448,273 448,274 448,274 447,275 447,275 446,275 445,276 445,276 445,277 444,278 444,279 443,279 443,280 443,280 442,281 442,281 441,282 441,283 441,283 440,283 440,284 439,285 439,285 439,285 439,286 438,286 438,286 438,287 438,287 437,288 437,288 437,288 438,288 438,289 438,289 438,289 438,290 438,290 438,290 438,291 437,292 437,292 437,292 436,292 436,292 436,293 435,294 435,295 435,295 435,295 435,296 435,296 435,297 435,298 435,298 437,299 437,300 437,301 437,301 437,302 437,303 437,304 438,305 438,307 438,307 438,307 439,308 439,308 441,309 442,309 442,309 445,310 445,310 445,310 446,310 446,310 446,310 447,310 447,311 448,312 448,312 449,312 449,313 450,313 451,313 452,313 455,314 456,314 457,314 456,314 450,317 450,318 449,318 450,318 450,318 452,319 453,319 453,319 453,319 450,322 450,322 450,323 450,324 450,324 450,325 450,328 450,328 453,330 452,330 452,330 455,333 455,333 455,333 454,334 454,334 458,337 458,337 460,336 461,336 461,336 461,336 462,336 463,336 465,336 468,336 473,336 473,338 471,338 471,338 470,340 472,340 472,341 471,341 470,341 459,341 459,342 456,345 456,345 456,346 452,349 451,350 451,350 450,350 449,350 448,351 448,351 448,351 448,352 448,352 447,353 447,353 447,353 446,354 446,354 445,354 441,354 441,354 432,355 432,355 432,356 433,356 433,356 433,357 433,358 433,358 433,358 432,359 431,360 429,361 426,360 426,361 424,364 422,363 421,364 422,364 422,365 420,366 416,368 415,369 415,369 415,369 414,368 414,368 414,368 414,367 414,367 414,367 414,367 413,366 413,366 414,366 414,365 414,365 414,365 414,365 414,365 413,365 413,365 413,365 413,364 413,364 413,364 412,364 412,364 412,364 412,364 412,363 412,363 412,363 412,363 412,363 411,363 410,362 410,362 408,362 407,362 407,361 407,361 406,361 406,360 406,360 406,359 406,359 404,359 404,358 403,358 403,358 404,357 404,357 404,357 403,356 403,355 401,356 399,356 398,356 398,357 398,357 397,358 397,358 396,358 395,358 394,358 393,356 392,352 391,352 391,352 389,353 389,353 389,353 387,354 387,354 384,352 383,351 383,351 382,351 379,349 379,349 378,349 376,348 376,348 373,348 373,347 373,346 373,345 373,344 373,343 372,340 371,339 371,338 371,338 370,337 370,337 370,335 370,335 369,334 369,333 369,333 369,333 368,332 368,332 367,332 367,332 367,331 367,331 368,330 369,328 369,328 369,326 372,325 372,325 371,325 371,325 371,325 371,324 372,323 371,323 372,322 372,322 372,321 372,321 372,320 372,320 373,319 373,319 374,319 374,319 374,318 374,318 374,318 374,317 373,317 373,317 373,317 373,316 372,316 372,316 372,315 372,315 371,315 371,315 370,315 365,315 363,316 362,316 362,315 361,313 361,312 361,312 361,310 361,310 356,310 356,310 356,309 355,309 355,309 355,309 354,308 354,308 353,309 353,309 354,310 353,311 351,313 351,313 350,313 349,314 349,314 348,313 348,313 348,313 348,312 348,312 348,311 349,309 349,309 349,309 349,309 351,308 351,308 351,308 351,308 351,307 351,307 351,307 351,307 351,307 351,307 351,306 351,306 353,307 353,307 361,305 361,305 361,304 361,304 361,304 360,304 359,304 358,302 355,303 355,304 355,304 355,304 355,304 356,304 356,304 356,304 355,305 353,303 353,303 353,303 352,302 352,302 352,301 349,301 348,301 348,301 347,301 345,303 345,303 345,304 344,304 344,304 343,304 343,304 341,302 341,302 342,301 340,299 340,299 339,299 339,299 337,299 334,299 333,299 333,299 332,300 332,301 332,302 332,302 331,302 330,301 329,304 328,305 328,305 328,305 325,305 324,305 324,305 323,305 323,306 322,306 320,306 320,306 320,306 319,306 318,306 317,305 317,305 317,304 317,303 317,303 317,303 316,303 315,302 313,302 313,302 312,303 312,303 311,303 311,303 311,303 311,303 311,304 312,305 311,306 311,307 311,307 312,307 313,308 313,308 314,308 315,308 315,308 313,310 313,310 313,310 313,310 316,312 316,312 316,311 316,312 318,313 319,315 319,315 320,315 320,316 321,316 321,317 322,317 323,317 324,318 322,320 322,320 322,321 322,321 323,322 323,322 323,323 323,323 321,323 321,323 319,324 318,325 318,325 317,326 317,326 317,326 317,326 317,326 317,327 317,327 318,328 318,328 318,328 318,328 319,329 319,329 320,329 320,329 321,329 319,330 319,330 318,331 318,331 317,331 317,331 316,333 315,332 314,334 314,334 313,334 312,334 310,334 305,334 304,334 304,333 304,333 304,333 304,332 303,332 302,332 302,332 295,331 295,331 295,332 295,332 294,332 294,332 294,332 294,333 294,333 294,333 294,333 291,335 289,336 289,336 286,336 286,336 284,336 282,336 281,337 281,337 283,338 284,338 283,338 282,338 282,338 282,338 282,338 281,338 280,338 279,337 278,337 277,337 276,337 276,336 274,336 274,336 274,335 273,335 273,334 273,333 272,333 272,333 271,333 271,333 270,333 270,333 269,333 270,333 270,332 270,332 270,331 271,331 272,329 272,329 273,327 273,326 274,325 274,325 275,324 274,324 273,325 273,324 271,324 270,324 269,324 270,323 270,322 270,322 270,322 271,322 271,321 271,321 272,320 272,320 273,319 273,319 272,319 272,319 274,315 274,315 274,315 273,314 274,313 274,313 274,313 274,312 274,312 273,312 273,312 272,311 273,310 272,310 271,310 269,310 267,310 267,310 265,310 265,310 259,308 256,308 255,308 254,308 251,310 251,310 249,309 247,309 246,309 245,310 243,310 243,310 239,310 239,310 237,309 236,310 235,310 234,309 233,309 233,309 232,308 230,307 229,307 229,307 229,308 229,308 228,309 228,309 227,309 227,310 227,310 226,311 226,311 226,311 226,312 226,312 226,313 226,313 226,313 226,314 226,314 226,314 226,314 226,314 226,315 226,315 226,315 226,315 226,315 225,316 225,316 225,316 225,316 226,316 226,316 226,316 226,316 227,316 227,317 227,318 227,318 227,318 227,318 227,319 227,319 227,319 228,320 228,320 229,320 229,320 229,320 230,321 230,321 230,321 230,322 231,322 230,322 231,322 231,322 231,322 231,322 232,322 232,323 232,323 228,323 228,323 227,323 227,323 224,323 224,323 224,322 222,321 222,321 221,321 221,320 220,320 219,320 218,319 216,319 214,319 212,319 212,319 211,319 210,319 209,319 207,320 205,320 204,320 201,321 200,321 194,323 195,320 196,319 196,319 192,318 191,318 189,318 186,317 186,317 186,316 186,316 186,315 186,315 185,315 185,315 184,316 184,316 183,314 183,314 182,313 181,313 181,313 179,313 179,314 179,314 179,314 178,315 178,316 178,316 178,316 177,316 177,317 174,317 174,317 174,317 172,316 172,316 175,313 174,313 174,313 171,313 170,313 170,313 170,312 168,312 167,312 167,312 169,309 169,309 169,308 170,306 170,306 170,305 171,304 171,303 171,302 171,301 172,301 172,300 173,299 175,298 175,298 170,295 171,294 171,293 171,293 171,292 171,292 171,292 171,292 172,292 172,292 172,291 170,290 167,288 167,287 167,287 168,287 168,286 168,286 166,286 166,286 164,285 163,285 162,285 162,285 161,283 159,284 155,285 155,285 154,285 153,286 151,286 150,287 149,287 149,287 147,288 146,288 145,288 144,288 143,289 143,289 143,288 144,287 143,287 142,287 141,287 140,287 139,287 138,287 136,287 133,286 132,286 132,286 132,285 132,285 132,285 127,284 127,284 127,284 127,284 127,284 126,283 126,283 126,283 126,283 123,283 122,283 122,284 122,284 120,285 120,285 120,285 119,286 119,286 119,286 118,286 117,288 117,288 116,289 116,290 115,290 115,291 115,292 115,292 115,292 115,293 114,293 113,294 113,294 111,296 111,296 110,297 110,297 109,297 108,298 107,298 106,298 105,299 104,299 103,300 101,301 100,302 100,302 99,302 99,302 99,302 99,302 94,301 94,301 88,306 85,308 85,308 85,308 85,307 83,308 81,309 79,310 79,310 79,310 77,311 77,311 75,310 74,310 74,310 73,311 73,311 73,311 71,310 71,310 71,310 70,311 70,311 69,311 69,311 69,311 69,311 69,311 69,312 69,312 69,312 69,312 68,312 68,312 68,312 68,312 67,313 67,313 65,312 65,312 65,312 65,312 66,311 66,310 67,309 67,308 67,308 67,308 67,308 67,308 67,308 66,310 66,310 65,310 64,310 64,310 64,310 65,308 65,308 65,308 64,308 64,308 63,310 62,310 62,309 62,309 61,310 61,309 60,309 60,309 60,309 60,308 60,308 60,307 60,307 59,306 59,306 58,307 58,307 58,307 58,307 58,307 58,307 58,307 58,307 58,307 57,307 57,307 57,306 58,306 58,306 59,306 59,306 60,305 60,305 58,304 58,304 58,304 56,305 56,305 55,305 55,305 56,307 56,307 57,308 57,309 57,310 57,310 57,310 57,310 56,311 55,312 55,312 55,312 56,312 56,312 55,312 55,313 59,315 59,315 58,316 58,316 57,316 57,316 56,317 55,318 55,318 54,318 54,318 54,317 54,316 54,316 54,315 54,314 54,314 54,314 53,314 53,314 53,315 53,315 53,315 52,315 52,315 52,315 49,309 49,309 47,311 45,313 44,314 41,312 40,313 38,314 38,314 35,316 34,316 31,317 31,317 31,317 31,319 31,320 31,320 31,320 30,319 30,319 29,319 28,319 28,319 26,321 26,321 27,321 27,322 27,322 26,322 26,323 26,323 27,323 27,323 27,323 26,324 26,324 26,324 26,324 26,324 28,324 29,324 29,324 29,326 29,326 29,326 28,326 28,326 28,327 28,328 28,328 26,329 25,329 25,329 26,329 26,330 26,330 25,330 25,330 25,330 25,330 25,330 25,330 26,332 26,332 26,333 26,334 26,334 25,334 25,334 25,333 25,333 23,333 22,333 18,334 18,334 18,334 18,335 18,335 17,336 16,336 16,336 15,336 15,337 15,337 15,337 13,337 13,337 13,336 13,336 13,335 13,334 13,333 12,333 12,333 12,332 11,331 11,331 11,329 11,328 11,328 11,327 10,326 10,326 9,325 9,325 8,323 8,323 8,322 8,322 8,322 6,321 6,321 6,320 6,320 6,319 6,319 6,318 6,318 7,318 7,318 7,318 7,318 9,317 9,317 9,317 10,317 10,317 10,317 10,317 10,317 10,317 11,317 11,317 11,317 11,317 12,317 12,317 12,317 12,317 12,317 13,317 13,317 13,317 13,317 13,317 14,316 14,316 13,316 12,316 11,316 11,316 10,316 9,316 8,316 8,316 7,316 7,316 7,316 7,316 8,315 9,315 9,315 11,314 11,314 12,314 13,313 13,313 14,313 15,313 16,314 16,314 16,314 17,314 17,313 17,313 17,313 17,312 17,312 17,312 18,312 19,311 19,311 20,311 20,311 20,312 20,313 20,313 20,313 21,313 21,313 21,313 22,313 22,313 22,313 22,313 23,312 23,312 23,311 23,311 23,310 25,311 25,311 25,310 27,311 28,311 28,311 28,310 28,310 28,310 26,309 26,309 26,309 27,308 27,308 28,308 28,307 28,307 28,307 28,305 28,305 28,305 28,304 28,304 28,304 28,304 27,304 27,304 27,304 27,304 27,303 26,303 26,303 28,303 28,303 28,303 28,301 29,301 30,301 30,302 30,302 30,302 30,302 30,302 30,302 32,302 32,302 32,302 32,302 33,303 33,301 33,301 34,302 34,302 35,302 35,302 36,301 37,301 37,301 37,300 38,299 38,299 38,299 39,299 40,299 41,298 41,298 41,298 41,298 40,297 40,297 41,297 41,296 40,296 40,296 41,294 41,294 41,294 40,294 40,294 40,293 40,293 40,292 39,291 39,291 39,291 41,291 41,290 41,290 41,290 41,290 43,289 43,289 43,289 43,288 43,288 43,287 43,287 44,287 44,287 44,287 45,288 46,288 46,288 46,288 46,287 46,285 46,285 46,284 48,284 48,284 48,284 48,283 50,283 50,283 50,282 50,282 49,282 47,278 46,277 45,274 45,274 45,274 45,274 45,274 44,275 44,275 43,275 43,275 43,275 42,275 42,275 42,275 42,275 41,275 41,274 40,273 40,273 39,272 38,272 37,272 37,272 38,271 37,271 36,271 36,271 35,271 34,271 32,271 32,271 32,271 32,271 31,275 31,275 31,275 30,275 30,275 30,273 30,272 30,272 30,272 29,272 28,273 28,273 25,273 25,273 25,272 24,271 24,271 24,271 22,272 20,272 18,273 17,273 16,273 16,273 16,274 15,274 14,274 13,274 6,275 6,275 6,275 3,273 2,273 0,269 0,269 4,265 4,265 4,265 4,264 3,261 3,261 3,261 5,261 5,261 6,261 7,260 7,260 7,260 8,260 9,259 9,259 8,259 6,258 6,258 6,258 8,257 8,257 10,257 11,257 11,257 11,257 7,256 7,256 7,255 7,254 7,253 8,253 7,253 7,253 7,252 7,252 8,252 10,252 10,252 9,252 9,251 8,250 8,250 7,248 7,247 6,246 8,245 9,245 9,245 9,245 9,245 10,244 10,244 10,244 11,244 11,244 11,244 13,241 15,240 17,238 18,238 19,236 19,236 19,236 18,236 18,236 18,235 18,235 20,235 20,235 21,235 21,235 22,236 23,236 24,236 24,236 24,236 24,236 25,235 25,235 25,233 25,233 25,233 25,233 25,233 25,232 25,232 25,232 25,232 26,230 26,230 26,230 26,229 26,229 26,229 26,229 26,229 26,228 26,228 26,228 28,226 28,226 27,225 26,224 26,224 26,224 29,223 29,223 29,223 30,223 30,223 31,223 31,223 32,222 32,222 33,222 33,222 34,222 34,222 34,222 35,220 35,219 36,218 37,216 38,215 38,215 38,215 39,216 40,216 40,216 41,214 41,212 41,211 42,210 43,208 43,208 43,207 43,205 44,205 44,205 45,205 45,205 45,205 46,204 46,204 46,204 46,203 46,202 46,201 46,201 45,200 43,194 42,193 42,191 41,190 40,188 40,187 40,187 39,186 39,186 39,186 39,186 39,186 39,186 39,186 39,185 39,185 39,185 40,184 40,184 41,184 42,184 43,184 44,184 45,184 46,184 46,184 47,184 47,184 48,183 48,183 48,183 48,183 50,182 50,182 50,183 50,183 50,183 50,183 50,184 52,183 53,183 53,183 53,183 53,183 54,183 54,183 54,183 55,183 55,182 56,182 56,182 57,182 57,182 57,182 57,182 60,183 60,183 60,182 60,181 60,181 63,181 63,181 62,178 62,177 62,177 61,176 61,176 61,176 60,176 59,175 59,175 63,171 63,171 64,169 64,169 64,169 66,169 67,169 68,169 69,169 73,169 77,169 78,169 78,168 80,168 80,168 81,168 82,167 84,167 85,167 85,167 86,167 87,167 90,167 90,167 91,167 91,167 93,166 93,166 94,166 95,165 95,165 95,165 96,165 96,165 97,165 97,165 97,165 98,165 100,165 102,165 102,165 102,165 103,165 104,165 104,166 105,166 105,166 108,167 109,167 109,167 111,168 111,168 111,167 111,167 111,167 110,166 108,165 108,166 104,163 104,163 100,164 100,164 99,163 99,160 99,160 99,160 99,160 100,158 100,158 100,157 99,155 98,153 98,153 97,153 97,153 96,153 96,152 96,153 96,153 91,152 90,152 90,152 89,152 88,152 87,151 85,151 85,151 84,150 84,150 84,150 84,149 84,149 84,149 84,149 84,148 86,148 86,148 87,145 87,144 87,144 86,143 86,143 86,143 86,143 87,143 87,143 87,142 87,142 87,141 87,140 87,140 87,139 86,137 86,136 86,134 86,134 87,134 88,134 91,134 92,133 92,133 92,133 92,133 93,132 94,131 92,131 90,129 89,129 89,129 89,129 85,127 85,126 85,126 82,120 80,114 80,114 80,114 80,114 80,114 80,114 80,113 80,113 77,112 76,111 76,111 76,110 76,110 76,110 77,109 78,106 79,106 79,106 79,104 79,104 79,104 79,104 80,103 81,102 81,101 81,101 81,101 81,101 81,101 81,101 80,99 80,98 80,98 80,96 79,91 77,91 76,91 74,91 74,91 73,91 73,91 72,91 72,91 71,91 71,88 72,88 72,88 73,89 74,89 74,89 74,89 76,89 76,89 77,87 77,87 75,87 74,88 74,88 74,88 74,88 72,87 72,87 75,84 75,84 74,84 74,84 73,84 73,84 73,83 74,83 74,83 75,83 75,83 75,83 75,82 75,82 75,82 73,81 70,81 70,81 70,81 71,81 72,81 72,82 73,82 73,82 71,83 71,83 70,83 69,83 69,82 69,82 69,82 67,81 67,81 67,81 68,80 66,79 65,78 64,79 65,80 66,80 65,81 65,81 65,81 65,82 64,82 64,82 63,82 61,81 60,81 60,80 59,80 59,80 56,81 56,81 56,80 56,80 55,79 55,79 54,79 54,79 54,79 53,79 53,79 52,78 52,78 53,78 53,78 53,78 53,78 54,77 54,77 55,76 55,76 55,76 55,76 56,75 56,75 56,75 56,75 58,74 58,74 58,74 56,73 56,73 56,72 55,72 55,72 55,70 55,70 55,69 55,69 55,68 55,68 58,68 59,68 58,67 59,67 59,67 59,66 59,66 58,65 58,65 59,65 60,62 61,63 61,62 61,62 61,61 61,61 62,61 62,61 62,60 62,60 63,60 64,60 64,59 64,59 64,59 65,59 65,59 66,59 66,59 66,60 66,60 66,60 67,60 67,59 67,58 67,58 67,57 67,57 67,56 67,56 67,56 66,56 66,56 66,56 67,55 68,54 68,54 69,53 68,52 67,52 65,53 65,53 65,52 65,52 67,52 68,52 69,51 69,51 69,51 70,51 71,51 71,51 71,50 72,50 72,50 73,50 73,50 73,49 74,49 75,50 75,50 75,50 75,50 76,50 77,50 78,49 78,49 79,48 79,48 79,48 79,46 79,46 79,46 79,46 80,45 80,45 81,44 81,43 82,43 82,43 83,42 83,42 84,41 84,41 84,41 84,41 85,40 85,40 86,40 86,40 86,40 87,40 87,40 88,40 89,39 89,39 90,39 91,39 91,38 91,38 92,38 92,38 93,38 93,38 94,38 94,37 94,37 95,37 95,37 95,37 95,37 95,36 95,36 95,36 95,36 95,36 96,36 96,35 96,35 97,35 97,35 97,35 98,35 98,35 98,35 98,33 98,33 98,33 99,33 99,32 100,32 100,32 100,31 100,31 100,30 101,30 101,30 101,29 102,29 103,28 103,28 104,28 103,28 103,27 102,27 102,27 102,27" id="8701" class="canton" fill="steelblue" stroke-width="1" stroke="white" geotype="canton" geoname="Aixe-sur-Vienne" code_insee="8701" code_departement="87" nom_departement="Haute-Vienne" code_region="75" nom_region="Nouvelle-Aquitaine"/></svg>