<?xml version="1.0" encoding="utf-8"?>
<svg version="1.1" id="svgmap" xmlns="http://www.w3.org/2000/svg" xmlns:xlink="http://www.w3.org/1999/xlink" x="0px" y="0px" width="100%" height="100%" viewBox="0 0 500 192">
<polygon points="0,71 1,70 1,70 2,70 2,69 3,69 5,67 6,67 7,66 8,65 9,64 9,64 9,63 9,63 8,62 7,63 7,63 6,62 6,62 8,61 9,60 9,60 10,60 11,59 11,58 11,58 11,58 11,58 12,58 12,58 12,58 15,56 15,57 15,57 15,56 15,56 16,55 16,55 16,55 17,54 17,54 17,54 17,53 18,53 18,53 19,53 20,53 20,53 20,52 19,52 19,52 19,51 18,51 18,51 17,51 17,51 17,51 18,50 19,49 19,48 19,48 19,48 21,47 21,47 20,46 20,46 20,46 19,45 19,45 20,45 20,45 19,44 18,44 18,43 17,43 16,43 17,42 17,42 17,42 17,42 17,42 17,41 17,41 16,40 16,40 15,40 15,40 15,40 15,40 15,40 15,40 15,40 15,40 16,39 16,39 16,39 16,39 19,38 19,38 18,37 18,37 18,37 18,35 18,35 17,35 17,35 17,34 18,31 18,31 17,31 17,31 17,30 14,30 14,29 14,28 14,28 14,28 16,28 16,28 16,27 16,27 16,27 16,27 17,27 17,26 17,26 17,26 17,25 19,25 19,25 21,26 21,26 21,26 22,26 23,27 23,27 23,27 23,27 24,27 25,28 26,28 27,28 28,29 28,29 28,29 31,29 33,29 34,29 35,28 35,28 37,28 37,28 37,29 37,29 40,29 41,29 41,29 41,28 41,28 44,28 45,28 45,27 45,27 45,27 45,26 45,26 44,26 44,26 44,26 45,25 45,25 45,25 45,25 45,25 45,24 45,24 45,25 45,25 45,24 46,24 46,24 46,24 46,24 47,24 47,23 48,23 48,23 49,22 49,22 49,23 49,23 49,23 49,24 48,24 48,24 48,24 48,24 49,25 50,25 50,25 50,25 51,25 51,25 52,26 52,26 51,26 50,27 49,28 48,28 48,29 48,29 47,30 48,31 48,31 47,32 46,32 46,33 46,34 45,34 45,34 45,36 46,37 46,37 46,37 53,36 55,36 55,36 56,37 56,37 56,37 56,37 57,38 57,38 57,38 57,38 57,38 58,38 58,39 58,39 61,37 62,37 62,37 62,37 62,37 62,37 63,38 65,35 66,36 66,36 67,36 67,36 69,35 70,34 70,34 72,35 72,35 72,35 72,35 74,36 74,36 73,36 74,37 74,37 77,35 77,35 77,35 77,35 79,34 79,34 82,33 84,33 84,33 84,33 84,33 85,33 85,34 85,34 86,34 87,34 87,34 88,35 88,35 88,35 89,35 90,34 90,34 91,33 91,34 92,34 92,35 94,35 95,34 95,34 95,34 96,34 98,34 98,35 99,35 99,36 99,37 100,37 100,37 101,36 101,36 101,35 102,35 103,34 103,34 104,34 104,34 104,34 105,33 105,33 105,33 105,33 105,33 106,32 107,32 108,31 108,31 108,31 110,30 110,30 110,30 110,30 110,29 110,29 110,29 111,29 112,29 112,29 113,28 114,29 115,29 116,28 116,28 116,28 116,29 117,28 117,28 119,27 119,27 119,27 119,27 120,28 120,28 120,28 121,28 122,28 127,28 127,28 129,22 134,13 136,8 140,10 140,10 141,10 141,10 141,10 141,11 141,12 142,12 142,12 142,12 142,11 142,11 144,11 144,11 145,11 145,10 146,11 146,11 146,11 146,11 146,11 147,11 147,11 147,11 147,11 147,11 147,11 147,11 147,11 147,11 147,10 147,10 148,10 148,10 148,10 148,10 149,9 149,9 149,9 149,9 149,9 149,9 149,8 149,8 149,8 148,8 148,8 148,8 148,8 148,8 148,8 148,8 147,7 147,7 148,7 148,7 148,7 148,7 149,7 149,7 149,7 149,7 149,7 149,7 149,6 149,6 150,6 150,6 149,6 149,6 149,5 149,5 149,5 149,4 149,4 149,4 150,4 150,4 151,4 153,4 153,4 154,5 154,5 154,5 155,5 155,5 155,5 155,5 155,6 156,6 156,6 157,7 157,6 157,6 158,5 158,5 158,5 159,5 159,4 160,3 160,3 161,2 161,2 162,2 162,1 162,1 162,1 162,1 161,1 161,1 161,0 161,0 162,0 162,0 162,0 162,0 162,0 162,0 163,1 163,1 164,0 164,0 164,0 166,1 166,2 166,2 166,3 166,3 166,3 166,3 167,4 168,5 168,5 169,6 169,7 169,7 169,7 170,8 170,8 170,9 169,9 168,10 168,10 168,10 167,10 167,10 168,11 168,11 168,10 168,10 168,11 169,11 169,11 169,12 169,13 169,13 169,14 169,14 169,14 170,15 170,15 171,16 172,16 173,17 173,18 172,18 172,18 170,19 170,19 171,20 171,21 171,21 172,21 172,21 172,21 172,21 172,22 172,22 173,22 173,23 173,23 173,23 174,23 175,23 175,23 176,23 176,24 177,24 177,24 178,24 179,24 180,25 180,25 182,25 182,25 183,25 183,25 184,25 185,25 186,25 186,25 187,25 187,25 187,25 187,25 187,25 187,25 187,25 188,26 189,26 190,27 191,27 193,28 194,29 195,29 196,29 198,30 198,30 200,30 202,30 202,30 205,29 205,29 205,29 205,29 205,29 206,29 207,29 208,29 210,29 210,29 212,30 214,29 216,29 218,30 220,30 220,30 221,30 223,30 224,29 225,29 225,29 226,28 226,28 226,28 227,27 228,27 228,27 229,26 229,26 229,26 229,28 229,28 229,28 230,28 232,27 232,27 234,26 239,24 239,24 240,23 241,22 247,19 247,20 247,20 248,19 248,19 248,19 248,19 248,19 247,21 247,21 247,21 246,21 245,21 244,22 244,22 244,22 244,22 244,22 244,22 245,22 245,22 245,22 246,22 246,22 246,22 246,23 246,23 246,23 246,23 245,24 245,24 245,24 244,24 244,25 244,25 244,25 244,25 244,25 244,25 245,24 246,24 246,24 246,23 247,23 247,23 247,24 248,24 248,24 248,24 248,24 248,24 248,24 249,24 249,24 249,24 249,25 249,25 248,25 248,25 248,25 249,26 249,26 249,26 249,27 249,27 249,27 248,27 248,27 248,27 248,27 247,28 247,28 247,28 247,28 248,28 248,28 249,28 249,27 249,27 250,27 250,27 250,27 251,27 251,27 251,27 251,27 251,26 251,26 252,26 252,26 253,25 253,25 254,25 254,26 255,26 255,26 256,25 256,25 257,25 257,25 257,25 257,26 258,26 258,26 258,26 258,27 257,27 257,27 256,28 256,28 256,28 256,28 256,28 254,29 255,29 255,29 256,29 256,29 256,29 257,29 256,30 256,30 256,30 255,31 255,31 255,31 253,31 253,31 253,32 253,32 251,33 249,34 249,34 249,34 249,34 249,35 249,35 249,35 249,35 249,35 248,35 248,36 248,36 248,36 248,36 249,36 249,35 249,35 250,35 249,34 250,34 250,34 250,34 251,34 251,34 251,34 251,33 251,33 251,34 251,33 251,33 251,33 252,33 252,33 252,33 252,33 253,33 253,33 253,33 254,33 255,33 254,33 254,33 254,34 254,34 254,34 254,34 254,35 254,35 253,35 253,35 253,35 253,35 253,35 253,35 253,35 252,36 252,37 251,37 251,37 251,37 251,37 252,37 251,37 251,37 251,37 251,37 251,37 251,38 251,38 251,38 251,38 251,38 251,38 251,38 251,38 251,38 251,38 251,38 251,38 251,38 251,38 251,38 251,38 251,38 251,38 251,39 251,39 250,39 250,39 250,39 250,39 250,39 250,39 250,39 250,39 250,39 250,39 250,39 249,39 249,40 250,40 251,41 254,43 254,43 256,42 258,41 258,41 258,42 258,42 259,41 260,41 260,41 259,41 259,41 262,39 262,39 264,38 264,38 264,38 264,39 265,38 266,39 267,41 269,43 269,43 269,43 269,43 270,43 271,43 272,43 273,42 274,42 274,42 274,42 274,42 274,42 275,42 275,42 275,42 275,41 275,41 276,42 276,42 276,42 276,42 276,42 276,42 276,42 276,42 277,42 277,41 278,41 279,41 279,41 278,40 278,40 278,40 278,40 279,39 279,39 280,39 280,39 280,38 280,38 280,37 280,37 280,37 280,36 281,36 281,36 281,35 281,35 282,34 282,34 282,34 282,34 283,34 284,34 284,34 284,33 284,33 284,33 285,33 285,33 285,33 285,33 285,33 285,32 286,32 286,32 286,31 286,30 286,29 286,28 286,28 287,28 287,28 287,28 287,28 287,27 288,27 288,27 288,27 288,27 289,26 289,26 289,26 290,26 295,24 295,24 296,24 296,23 297,23 299,22 300,22 301,22 301,22 301,22 302,21 303,21 303,21 303,21 303,21 303,21 303,21 304,21 305,21 305,21 305,21 305,21 305,21 305,21 305,21 306,21 306,21 306,21 306,21 306,21 306,21 306,21 307,21 307,21 307,21 307,21 307,21 307,21 307,21 307,21 307,21 307,22 307,22 307,22 307,21 308,21 308,21 308,21 308,21 308,21 310,21 311,20 313,20 313,20 315,19 316,19 317,19 319,18 319,18 319,18 319,18 319,17 320,17 321,17 321,17 321,17 321,17 323,18 322,19 322,19 324,20 324,20 324,20 324,21 324,21 325,21 325,21 326,21 327,22 328,22 330,23 331,23 331,24 332,24 333,24 334,24 334,25 335,25 336,25 336,25 336,25 336,25 336,25 336,24 336,24 336,24 336,24 336,24 336,24 336,24 336,24 337,24 337,24 337,23 337,23 337,23 337,23 337,23 337,23 337,23 338,23 338,23 338,23 338,23 338,23 338,23 338,23 338,23 338,23 339,23 339,23 339,23 339,23 339,23 339,23 339,23 339,23 339,23 339,23 339,23 340,23 340,23 340,23 340,22 340,22 342,22 342,22 343,21 343,21 343,21 343,21 343,21 343,21 344,21 344,21 344,21 344,21 344,21 344,21 344,21 344,21 344,21 344,21 344,21 345,21 345,21 345,20 345,20 345,20 345,20 345,20 345,20 346,20 346,20 346,20 346,20 346,20 346,20 346,20 347,19 347,19 347,19 347,19 347,19 347,19 347,19 348,19 348,19 348,19 348,19 348,19 348,19 348,19 349,19 349,19 349,19 349,19 349,19 349,19 349,19 349,19 350,19 350,19 350,19 350,19 350,19 350,18 351,18 351,18 351,18 351,18 351,18 351,18 351,18 352,18 352,18 352,18 355,18 355,18 355,18 355,18 356,17 357,18 358,18 358,19 358,19 359,19 360,20 361,20 362,20 363,20 364,20 365,20 366,20 368,19 369,18 369,18 370,18 370,18 372,16 372,15 372,15 372,15 373,15 373,15 373,15 373,15 373,15 373,15 373,14 374,14 374,14 374,14 374,14 374,14 374,14 374,14 374,14 375,14 375,14 375,14 375,14 375,14 375,14 376,14 376,13 376,13 376,13 376,13 376,13 376,13 377,13 377,13 377,13 377,13 377,13 377,13 377,13 377,13 377,13 377,13 377,13 377,13 377,13 377,13 377,13 377,13 377,13 378,13 378,13 378,13 378,13 378,13 378,13 378,13 378,13 378,13 378,13 378,13 378,13 378,12 378,12 378,12 378,12 378,12 378,12 378,12 378,12 378,12 379,12 379,12 379,12 379,12 379,12 379,12 379,12 379,12 379,12 379,12 380,12 380,12 380,12 380,12 380,12 380,12 380,12 380,12 380,12 380,12 380,12 380,12 380,12 381,12 381,11 381,11 381,11 381,11 381,11 381,11 381,11 381,11 381,11 381,11 381,11 381,11 381,11 381,11 382,11 382,11 382,11 382,11 382,11 382,11 382,11 382,11 382,11 382,11 382,11 382,11 382,11 382,11 383,11 383,11 383,10 383,10 383,10 383,10 383,10 383,10 384,10 384,10 384,10 384,10 384,10 384,10 384,10 385,10 385,10 385,10 385,10 385,10 385,10 385,10 385,10 385,9 385,9 385,9 386,9 386,9 386,9 386,9 386,9 386,9 386,9 386,9 386,9 386,9 386,9 386,9 386,9 386,9 386,9 386,9 386,9 386,9 386,8 386,8 385,8 385,8 385,8 385,8 385,8 385,8 385,8 385,8 385,8 385,8 385,8 385,7 386,7 387,7 387,7 390,6 391,6 391,6 392,6 392,6 392,5 392,5 393,5 393,5 393,5 393,5 394,5 394,5 394,5 394,5 394,5 394,5 395,4 395,4 395,4 395,4 395,4 396,4 396,4 396,4 396,4 396,4 396,4 397,3 397,3 397,3 397,3 397,3 397,3 397,3 397,3 398,3 398,3 398,3 398,3 398,3 398,3 399,3 399,3 399,3 400,3 400,4 400,4 400,4 400,4 401,5 403,6 404,6 404,6 404,6 404,7 405,7 405,7 408,7 408,7 409,7 409,7 410,7 411,8 411,8 412,8 412,8 412,9 413,9 413,9 413,9 413,9 413,9 413,9 413,9 417,10 417,10 417,11 417,11 417,11 417,11 417,11 417,11 418,11 418,11 418,11 418,11 418,11 418,11 418,11 418,11 418,11 418,11 418,11 418,11 418,11 418,11 419,11 419,11 419,11 419,12 419,12 420,12 420,12 420,12 420,11 420,11 420,11 420,12 420,11 421,12 421,12 421,12 421,12 421,12 421,12 422,12 422,12 422,12 422,12 422,12 422,12 422,12 422,12 422,12 422,12 422,12 423,12 423,12 423,12 423,12 423,12 423,12 423,12 423,12 423,12 423,12 423,12 424,12 424,12 424,12 424,12 424,12 424,12 424,12 424,12 424,12 424,12 425,12 425,12 425,12 425,12 425,12 425,13 425,13 425,13 426,12 426,12 426,13 426,13 426,13 427,13 427,13 427,13 427,13 427,13 428,14 428,14 428,14 428,14 428,14 429,14 429,14 429,14 429,13 429,13 429,13 428,13 429,13 429,13 429,13 429,13 430,13 430,13 430,13 430,13 430,13 430,13 430,13 430,14 430,14 430,15 430,15 431,16 431,16 432,17 432,17 432,17 432,17 432,17 433,17 433,17 433,17 433,18 433,18 434,18 434,18 434,18 434,19 435,19 435,19 435,19 435,18 435,18 435,18 435,18 435,18 435,18 435,18 435,18 434,18 434,18 434,18 434,17 434,17 434,16 434,16 434,16 434,16 434,16 434,16 435,16 435,16 435,16 435,16 435,16 435,16 436,17 436,17 437,18 437,18 437,19 437,19 437,19 437,19 437,19 437,19 437,19 437,20 437,20 438,20 438,20 438,20 438,20 438,20 439,20 439,20 439,20 439,20 439,20 439,20 440,20 440,20 439,20 439,19 439,19 440,19 440,19 440,18 440,18 441,18 441,18 441,18 441,18 441,18 441,18 441,18 441,18 441,17 441,17 441,17 441,17 442,18 442,18 442,18 442,18 442,19 442,19 442,19 442,19 442,19 442,19 441,19 441,19 441,19 441,20 442,21 442,21 441,21 441,21 441,21 441,21 441,21 441,22 441,22 441,22 441,22 442,22 442,22 442,22 443,22 443,21 443,21 443,21 444,22 444,22 444,22 445,23 445,23 445,23 445,23 445,23 445,23 444,23 444,23 444,24 444,24 443,24 443,24 443,24 443,24 443,24 443,24 443,25 443,25 444,25 444,25 444,25 445,26 445,26 446,26 446,26 446,25 446,25 446,25 446,25 447,25 447,25 447,25 448,25 448,25 448,25 448,26 449,26 449,27 449,28 449,29 449,29 449,29 450,29 450,29 450,30 450,30 450,30 451,30 451,30 451,30 452,32 451,32 451,33 451,34 451,34 451,34 451,35 450,35 450,36 450,36 450,36 449,36 448,37 448,37 448,37 448,37 448,37 449,37 449,37 450,38 450,38 450,38 450,38 449,38 449,39 449,39 449,39 450,39 450,40 451,40 451,40 451,41 452,41 452,41 452,41 452,41 453,41 454,42 454,42 454,42 454,42 454,42 454,42 453,43 453,44 454,44 454,44 454,44 454,45 453,45 453,45 453,45 453,45 453,45 453,45 453,46 453,46 453,46 453,46 454,46 454,46 454,46 454,46 455,46 455,46 455,46 455,46 455,46 455,46 456,46 456,46 455,46 455,46 455,46 455,46 455,47 455,47 456,47 456,47 456,47 456,47 456,47 456,47 456,47 456,48 456,48 456,48 456,48 456,48 457,48 457,48 457,48 457,48 457,48 457,48 457,48 456,49 456,49 456,49 456,49 456,49 456,49 456,49 456,49 456,49 457,49 457,49 457,49 457,49 457,50 457,50 457,50 457,50 456,50 456,49 456,49 456,49 456,50 456,50 456,50 456,50 456,50 456,50 456,50 457,50 457,50 457,50 457,50 457,50 457,50 457,50 457,50 457,50 458,50 458,50 458,50 457,50 457,50 457,50 457,50 457,51 457,51 456,51 456,51 456,51 456,51 456,51 456,51 456,51 456,51 456,51 456,51 456,51 456,51 457,51 457,51 457,52 457,52 457,52 457,51 457,51 457,51 457,51 458,51 458,51 458,52 458,52 458,52 458,52 458,52 458,52 458,52 458,51 458,51 458,51 459,51 459,51 459,52 459,52 459,52 458,52 458,52 458,52 459,52 459,52 459,52 458,53 458,53 458,53 459,53 459,53 459,53 460,53 460,53 460,53 460,53 460,53 460,53 460,53 460,53 461,54 462,54 462,54 462,54 462,55 463,55 463,55 463,55 463,55 463,55 463,55 463,55 463,55 464,55 463,56 463,56 463,56 463,56 464,56 464,56 464,56 464,56 464,56 464,57 464,57 464,57 464,57 464,57 464,58 464,58 464,58 465,58 465,58 465,58 465,59 465,59 465,59 465,59 465,59 465,59 465,59 465,59 465,59 465,59 465,59 465,59 465,60 465,60 465,60 465,60 466,60 466,60 466,60 466,60 466,60 466,60 466,61 466,61 466,61 467,61 467,61 467,61 467,61 467,61 467,61 467,61 467,61 467,61 468,65 468,65 469,66 470,66 472,69 472,69 472,69 472,70 473,70 473,70 473,70 473,70 473,71 473,71 473,71 472,71 472,71 472,71 473,72 473,72 473,72 474,72 474,73 475,73 475,74 475,74 475,74 475,74 475,74 475,74 475,74 475,75 474,75 474,75 474,75 474,75 474,75 474,75 474,75 474,76 473,76 473,76 473,76 472,77 472,77 473,77 473,77 472,77 472,77 471,79 471,79 471,79 470,80 470,80 470,80 470,80 470,81 470,81 470,81 471,82 471,83 471,83 471,83 471,83 471,83 471,84 471,84 470,84 470,85 470,85 470,85 469,85 468,86 468,86 468,86 467,87 467,87 467,87 467,87 466,88 465,89 465,89 464,90 462,91 462,91 460,93 460,93 460,93 460,93 458,95 456,96 454,97 453,98 453,99 453,100 453,101 453,102 453,103 453,103 453,103 454,103 454,103 454,103 454,104 455,104 456,104 456,104 457,104 457,104 458,104 458,104 458,104 459,104 459,104 459,104 460,104 460,104 461,105 461,105 461,106 462,106 462,106 462,106 462,106 463,106 463,106 463,106 463,106 464,106 465,107 465,107 465,107 465,107 465,107 465,107 466,108 467,108 468,108 468,108 468,108 468,108 468,108 470,108 470,108 470,108 470,108 471,109 472,109 472,109 472,109 472,109 473,110 473,110 473,111 473,111 473,111 472,111 472,111 473,111 473,111 473,111 473,111 473,111 473,111 473,111 473,111 473,112 473,112 473,112 473,112 474,112 474,112 474,112 474,112 474,113 474,112 474,112 475,112 475,113 475,113 475,113 475,113 475,113 475,113 475,113 475,113 475,113 475,113 475,113 475,113 475,113 476,113 476,113 478,114 479,114 480,115 480,115 480,115 480,115 480,115 480,115 480,115 480,115 480,115 480,115 480,115 480,115 480,115 481,115 481,115 481,115 481,115 481,115 481,115 481,115 481,115 482,115 482,115 482,115 482,115 482,115 482,115 482,115 482,115 482,115 482,115 483,115 483,115 483,115 483,115 483,115 483,115 483,116 483,116 483,116 483,116 483,116 484,116 484,116 484,116 484,116 484,116 484,116 484,116 484,116 484,116 484,116 484,116 485,116 485,115 485,115 485,115 485,116 485,116 485,116 486,116 486,116 486,116 486,116 486,116 486,116 487,116 488,115 488,115 489,114 489,114 490,113 491,113 491,112 491,112 491,111 490,111 490,110 490,110 490,110 490,110 490,109 491,109 491,108 491,108 491,108 493,108 493,108 494,109 494,109 494,109 494,109 495,110 495,110 495,110 495,110 496,110 495,110 495,110 496,111 496,111 496,111 498,111 498,111 498,111 498,111 498,111 498,111 498,112 498,112 498,112 497,112 497,112 498,113 498,113 498,113 498,113 498,113 498,113 498,113 498,113 498,113 498,113 498,113 498,113 499,113 499,113 499,113 498,114 498,115 498,115 498,115 498,115 498,115 498,115 498,115 498,115 498,116 498,116 498,116 498,116 499,116 499,116 499,117 499,117 499,117 499,118 499,118 499,119 498,119 498,119 498,119 498,120 498,120 498,120 498,120 498,121 498,121 498,121 499,121 499,121 498,122 499,122 499,122 498,123 498,123 499,123 499,123 499,123 500,124 500,126 499,126 498,125 498,125 498,126 498,126 498,126 498,126 497,127 497,127 497,127 497,127 497,127 497,128 497,128 496,128 496,128 494,129 494,129 494,129 494,129 493,130 493,130 493,130 492,130 492,131 492,131 492,132 492,132 492,132 492,132 492,132 492,132 492,133 491,133 491,133 491,133 491,133 491,135 491,136 491,137 490,138 490,138 490,138 489,139 489,139 489,140 489,139 489,140 490,140 489,141 488,141 488,142 488,142 487,144 487,144 487,144 487,145 487,145 487,147 487,147 486,148 486,148 486,148 486,148 485,148 485,148 484,148 484,148 483,149 482,150 482,150 482,150 482,150 481,150 480,151 480,151 480,151 480,151 480,151 480,151 480,151 479,152 479,152 479,152 479,152 477,153 477,153 477,153 477,153 477,153 476,153 476,153 475,152 474,153 473,154 473,154 473,154 473,154 473,154 472,154 472,154 472,154 471,155 470,155 470,155 469,155 468,154 468,154 467,154 467,154 467,154 467,154 467,154 467,154 467,154 466,154 466,154 466,154 466,155 465,155 465,155 465,155 465,155 465,155 465,155 465,154 465,154 465,154 465,154 465,154 464,154 464,154 464,154 464,154 464,154 463,154 462,153 462,154 462,153 462,153 462,153 461,153 461,152 461,152 460,152 460,152 459,152 459,152 459,151 458,151 458,151 459,151 459,150 459,150 459,150 459,150 459,150 459,149 459,149 459,149 459,149 459,149 459,149 459,148 459,148 460,148 459,148 459,148 457,147 457,147 458,147 458,146 458,146 457,145 456,145 456,145 456,145 456,145 455,145 455,145 456,145 455,145 456,145 456,145 456,145 456,145 456,145 456,144 456,144 456,144 456,144 456,144 456,144 456,144 457,143 457,143 457,143 457,143 457,143 457,143 457,143 457,143 456,143 455,142 455,142 455,142 455,142 454,142 454,142 454,142 454,142 453,141 453,141 454,140 454,140 454,140 454,140 454,139 454,139 454,139 455,138 455,138 456,137 456,137 455,137 454,136 454,136 454,136 454,136 453,136 453,135 453,135 453,135 453,135 453,135 453,135 453,135 453,135 453,135 453,135 452,135 452,135 451,134 451,134 451,134 450,134 450,134 450,134 450,134 448,134 448,134 448,133 448,133 447,133 447,133 447,133 447,133 446,133 446,132 446,132 445,132 445,132 445,132 445,132 445,132 445,132 444,132 444,132 444,132 444,132 444,132 444,132 444,132 442,133 442,133 442,133 442,133 442,133 441,133 441,133 441,133 441,133 441,133 440,133 440,133 440,133 440,133 439,133 439,133 438,133 438,133 438,133 438,133 438,133 437,133 437,133 436,132 436,132 435,131 435,131 434,129 434,129 433,129 433,128 432,127 431,126 431,126 431,126 431,126 431,126 431,126 430,126 430,126 430,126 430,126 430,126 430,126 430,126 429,126 429,126 429,126 429,126 429,126 429,126 429,126 429,127 428,127 428,127 428,127 428,127 428,127 428,127 427,127 427,127 427,127 427,127 427,127 427,127 427,127 427,127 427,128 426,128 426,128 426,128 426,128 426,128 426,128 424,127 423,127 423,127 423,127 423,127 423,127 423,126 423,126 423,126 423,126 423,126 423,126 423,126 423,126 423,126 423,126 424,126 424,126 423,126 424,126 424,126 424,126 424,126 424,126 424,126 424,126 424,126 424,126 424,126 424,126 424,125 424,125 424,125 424,125 424,125 424,125 424,125 424,125 424,125 424,125 424,125 424,125 424,125 424,125 424,125 424,124 424,124 424,124 424,124 424,124 424,124 424,124 424,124 424,124 424,124 424,124 424,124 424,124 424,124 424,124 424,124 424,124 424,124 424,124 424,124 424,124 424,124 424,124 424,123 424,123 424,123 425,123 425,123 425,123 425,123 425,123 425,123 425,123 425,123 425,123 425,123 425,123 425,123 425,123 425,123 425,123 425,123 425,123 425,123 425,122 425,122 425,122 425,122 425,122 425,122 425,122 425,122 425,122 426,122 425,122 425,122 425,122 426,122 426,122 426,122 426,122 426,122 426,122 426,122 426,122 426,122 426,122 426,122 426,122 426,122 426,121 426,121 426,121 426,121 426,121 426,121 426,121 426,121 426,121 426,121 426,121 426,121 426,121 426,121 426,121 426,121 426,121 426,120 425,120 424,119 423,118 422,118 420,118 419,119 419,119 418,118 418,119 417,119 417,118 417,118 417,118 417,117 417,117 417,117 417,116 417,116 417,116 417,116 417,116 417,116 417,116 416,115 416,115 416,115 415,114 415,114 415,114 415,113 414,113 414,113 414,113 413,113 413,113 412,113 412,113 412,113 412,113 412,113 411,113 410,114 410,114 409,114 408,115 408,115 408,115 407,115 407,116 406,116 406,115 405,114 402,113 401,113 400,112 399,111 398,111 396,109 396,109 395,109 393,108 391,107 389,106 389,105 389,104 389,104 391,103 392,101 392,101 392,101 392,101 391,100 391,100 390,99 390,99 389,99 387,98 386,98 385,98 384,99 383,100 383,100 382,100 381,100 381,100 380,101 379,102 378,102 377,103 377,103 377,103 377,103 377,104 377,105 377,105 377,106 376,106 376,106 376,106 377,106 377,107 377,107 377,107 377,108 377,108 377,108 377,108 377,108 377,108 377,109 377,109 377,109 377,109 378,109 378,109 378,109 378,110 378,110 378,110 378,110 377,110 377,110 377,110 376,111 375,112 375,112 375,112 373,113 373,114 373,114 372,114 372,115 372,115 372,116 372,116 371,117 371,118 371,118 370,119 370,120 370,120 370,120 369,120 369,120 369,121 369,121 369,121 369,121 369,121 369,121 369,121 369,121 369,121 369,122 369,122 369,122 369,122 369,122 369,122 369,122 369,122 369,122 369,122 369,122 369,122 369,122 369,122 369,122 369,123 369,123 369,123 369,123 369,123 369,123 369,123 369,123 369,123 369,123 369,123 369,123 369,123 369,124 370,124 370,124 370,124 370,124 370,124 370,124 370,124 370,124 370,124 370,125 370,125 370,125 370,125 370,125 371,125 371,125 371,125 371,126 371,126 371,126 370,126 370,126 370,126 370,126 370,126 370,126 370,126 370,126 369,126 369,127 369,127 369,127 369,127 369,127 369,127 369,127 369,127 369,127 369,127 369,127 369,127 369,127 369,127 369,127 369,128 369,128 369,128 369,128 369,128 369,128 369,128 369,128 369,128 369,128 369,128 369,128 369,128 369,128 369,128 369,128 369,128 369,128 369,128 369,128 368,128 368,128 368,129 368,129 368,129 368,129 368,129 368,129 367,129 367,129 367,129 367,129 367,129 367,129 367,129 367,129 367,129 367,129 367,129 367,129 366,129 366,129 366,129 365,129 365,129 365,129 365,129 365,129 365,129 365,129 365,129 364,129 364,129 364,129 364,129 364,130 364,129 364,129 364,129 363,129 363,129 363,130 363,130 363,130 363,130 363,130 363,130 363,130 363,130 363,130 363,130 363,130 363,130 363,130 363,130 363,131 362,131 362,131 362,131 362,131 362,131 362,131 362,130 362,130 362,130 362,130 361,130 361,131 361,131 361,131 361,131 361,131 361,131 361,131 361,131 361,131 361,131 361,131 361,131 361,131 361,131 361,131 361,131 360,131 360,131 360,132 360,132 360,132 360,132 360,132 360,131 359,131 360,131 360,131 360,131 360,131 360,131 360,131 360,131 359,131 359,131 359,131 359,131 359,131 359,131 359,130 359,130 359,130 359,130 359,130 359,130 360,130 360,130 359,130 359,130 359,129 359,129 359,129 359,129 359,129 358,129 358,129 358,129 358,129 358,129 358,129 358,129 358,129 358,129 358,129 358,129 358,129 358,129 358,128 358,128 358,128 358,128 358,128 358,128 357,128 357,128 357,128 357,128 357,128 357,128 357,128 357,128 357,128 357,128 357,128 356,128 356,128 356,128 356,128 356,128 356,128 356,128 356,128 356,128 355,128 355,128 355,127 355,127 355,128 355,128 355,128 355,128 354,127 354,127 355,127 354,127 354,127 354,127 354,127 354,127 354,127 354,127 354,127 354,127 354,127 354,127 354,127 354,127 354,127 353,127 353,127 353,127 353,127 353,126 353,126 353,126 353,126 353,126 353,126 353,126 353,126 353,126 352,126 352,126 352,126 352,126 352,126 352,126 352,125 352,125 352,125 352,125 352,125 351,125 352,125 352,125 352,125 351,125 351,125 351,125 351,125 351,125 351,125 351,125 351,125 351,125 351,125 351,125 351,125 351,125 351,125 350,125 350,125 350,125 349,125 349,125 348,125 348,125 348,125 348,125 348,125 347,125 347,125 347,125 347,125 347,125 346,125 346,125 346,125 346,125 345,124 345,124 344,124 343,124 343,124 342,124 342,124 342,124 342,124 342,124 342,124 341,124 341,124 337,124 334,123 333,123 330,124 329,124 329,124 329,123 328,123 328,123 327,123 326,123 326,123 325,123 325,122 325,122 324,122 322,122 320,122 319,122 318,122 318,122 316,122 316,122 316,121 315,121 315,121 314,120 313,119 313,119 313,119 313,119 312,119 312,119 312,119 312,119 312,118 311,118 310,116 308,115 308,115 308,116 308,115 307,115 306,114 305,114 305,114 305,114 304,114 304,113 303,113 302,112 302,112 302,112 302,112 301,112 301,112 300,113 299,113 299,113 297,113 297,113 297,113 297,113 294,114 294,114 294,114 293,114 293,115 293,115 293,115 293,115 293,115 293,116 292,117 292,117 293,117 292,117 292,117 292,117 291,119 291,119 291,119 291,119 291,120 291,120 290,122 290,122 290,122 290,122 290,123 289,124 289,124 289,124 288,124 288,124 288,125 288,125 288,125 287,125 287,125 287,125 287,125 286,125 286,125 286,125 285,125 285,125 285,125 285,125 285,125 282,127 282,127 282,127 281,127 281,126 280,126 280,126 280,126 279,127 279,127 278,127 278,127 278,127 278,127 278,127 277,127 277,127 277,127 277,127 276,127 276,127 276,127 276,127 276,127 276,127 275,128 274,128 273,129 272,130 272,129 272,130 271,130 271,130 272,130 272,130 271,131 271,131 271,131 271,131 270,131 270,131 270,131 270,131 268,134 266,135 265,136 265,137 264,137 264,137 264,137 264,137 264,138 264,138 264,139 262,140 262,140 260,140 260,140 259,141 259,141 258,141 257,142 257,142 257,142 257,143 257,144 256,144 256,144 255,145 253,143 253,143 252,142 250,141 249,141 249,141 247,140 247,140 246,140 246,139 245,140 244,140 243,140 243,139 243,139 243,139 243,139 243,139 242,138 242,138 242,138 242,138 241,137 240,137 240,136 240,136 240,136 239,137 239,137 239,137 239,136 239,136 239,136 239,136 238,136 238,135 237,135 236,135 236,135 236,135 236,135 235,135 234,134 234,134 233,135 233,135 232,134 232,134 232,134 232,134 232,134 231,134 231,134 231,134 231,134 230,134 230,134 227,134 227,134 227,134 227,134 227,134 225,133 225,133 225,133 225,133 225,133 225,133 225,133 225,133 225,133 224,133 224,133 224,134 223,134 223,134 223,133 222,132 222,132 222,131 222,131 222,130 221,129 218,129 215,129 215,129 214,129 214,129 213,128 212,128 212,128 212,128 212,128 210,128 210,128 210,127 209,127 208,125 208,125 208,125 207,125 206,126 206,126 206,126 206,126 206,126 205,126 205,126 205,126 205,126 205,126 205,126 205,126 204,127 204,127 203,128 203,128 202,128 202,128 201,129 201,129 201,130 203,130 203,131 202,132 202,133 202,133 202,133 202,133 201,134 201,134 200,135 200,135 199,136 199,136 198,137 198,137 198,137 198,137 199,138 200,139 200,139 194,141 194,141 192,142 191,143 191,143 192,143 191,143 191,143 191,144 191,144 192,144 193,144 193,144 193,145 193,145 195,147 195,147 196,147 196,148 197,148 197,149 197,149 197,149 197,149 196,149 196,150 197,151 198,152 199,154 199,154 200,155 200,155 201,155 201,155 201,155 201,155 201,155 201,155 201,155 202,156 202,156 202,156 202,156 203,155 203,155 203,155 204,156 204,156 204,156 205,156 205,156 207,157 207,158 207,158 206,160 206,160 206,161 205,161 205,161 205,162 204,163 204,163 204,163 205,163 205,163 205,164 206,164 207,164 207,164 207,164 208,164 209,163 210,163 211,163 212,162 213,162 213,162 214,163 214,164 214,166 214,167 213,169 213,171 212,173 211,176 211,176 211,177 211,178 211,178 209,179 208,179 208,178 207,178 207,178 206,178 205,178 205,178 205,178 205,178 204,178 204,178 204,178 203,178 203,178 202,178 202,178 202,178 202,178 202,178 202,178 201,178 201,178 201,178 201,178 201,178 198,179 196,180 194,181 191,182 190,182 190,182 189,182 189,182 189,183 189,183 188,183 188,183 188,183 188,183 188,183 187,184 186,184 186,184 186,184 186,184 185,184 185,184 185,184 185,184 185,185 184,185 182,185 182,185 182,185 182,185 180,186 179,186 178,186 177,186 177,186 177,186 175,187 175,187 175,185 173,185 173,185 173,186 173,186 172,187 172,187 170,187 170,187 170,187 170,187 170,187 170,187 170,188 170,188 170,188 171,188 171,188 171,190 170,190 170,190 170,190 171,191 171,191 170,191 170,191 171,192 170,192 169,192 168,192 168,191 169,191 169,191 169,191 169,191 169,191 168,190 168,189 168,189 168,189 168,189 168,188 168,188 168,187 168,187 168,187 168,186 168,186 168,185 168,185 168,184 168,184 168,184 168,184 168,184 168,183 168,183 170,181 169,181 169,181 168,179 167,179 166,178 166,177 165,176 165,176 165,176 165,176 165,176 164,175 164,175 164,174 164,174 164,174 164,174 164,174 164,173 164,173 163,172 163,172 163,172 163,172 163,172 163,172 163,172 163,172 163,172 163,172 163,172 162,172 162,172 162,172 162,172 161,172 161,172 161,172 161,172 161,172 160,172 160,171 159,171 159,171 158,171 158,171 158,171 158,171 158,172 158,172 156,172 155,172 154,172 154,172 154,171 154,171 154,171 154,171 153,171 153,171 153,171 152,171 152,171 152,171 152,171 152,171 152,171 152,171 152,171 151,171 151,171 151,171 151,171 151,171 151,171 151,171 151,171 151,171 150,171 150,171 150,171 150,171 150,171 150,171 150,171 150,171 149,171 149,171 149,171 149,171 149,171 148,171 148,171 148,171 147,171 147,171 147,171 147,172 146,172 146,172 146,172 145,172 144,172 144,172 144,172 144,173 145,173 145,173 145,173 145,173 145,173 145,173 145,173 142,174 142,174 143,175 143,175 143,175 142,175 141,175 141,175 140,175 140,175 140,175 138,175 138,175 138,175 139,176 139,176 137,176 137,176 138,177 138,177 138,177 137,177 137,177 137,177 136,178 136,178 136,178 135,179 134,179 133,179 133,180 133,180 133,181 133,181 133,181 133,182 133,182 133,182 133,182 133,183 133,183 133,183 133,183 133,183 133,183 132,184 132,184 132,184 131,184 131,184 131,184 131,184 131,184 131,184 132,184 131,185 130,185 129,185 129,185 129,185 129,182 129,181 129,181 128,181 128,181 128,180 128,180 127,178 126,177 125,176 123,176 123,175 123,175 122,174 122,174 121,174 120,173 120,173 120,173 120,173 120,173 120,173 120,173 120,172 120,172 120,172 120,171 121,171 121,171 121,170 121,170 121,170 121,169 121,168 121,168 121,168 121,167 122,166 123,166 123,165 123,165 123,165 123,165 123,165 124,165 124,165 124,164 125,164 124,164 124,164 124,164 123,163 122,163 122,163 123,162 123,162 122,162 122,162 119,161 118,161 117,162 117,162 117,162 117,162 117,163 117,163 116,163 116,164 116,164 116,164 116,164 116,164 115,164 115,164 115,164 115,164 115,164 115,164 115,164 115,164 115,163 115,163 115,163 115,163 115,163 115,163 115,163 115,163 115,162 115,162 115,162 115,162 115,162 115,162 115,162 115,162 115,162 115,162 115,162 115,162 115,161 115,161 115,161 115,161 115,161 115,161 116,161 116,161 116,161 116,161 116,159 116,159 116,159 116,159 116,159 116,159 116,159 116,159 116,159 116,159 116,159 117,159 117,159 117,159 117,159 117,159 117,159 117,158 118,158 118,158 118,158 118,158 118,158 118,158 118,158 119,158 119,158 119,158 119,158 119,157 120,157 120,157 120,158 120,158 120,158 120,158 121,158 121,158 121,158 121,157 120,157 120,157 121,156 121,156 121,156 122,156 122,156 123,156 123,156 124,156 125,156 125,156 126,156 126,156 126,156 126,156 127,156 127,155 127,155 127,155 127,155 127,155 128,155 128,155 129,155 130,154 130,154 130,154 131,154 131,154 131,154 132,153 132,153 132,152 133,152 132,152 132,152 132,152 132,152 132,152 132,152 132,152 132,152 132,152 132,151 132,151 132,151 132,151 132,151 132,151 132,151 132,151 132,151 132,151 132,151 132,151 132,151 132,151 132,151 132,151 131,151 131,151 131,151 131,151 131,151 131,151 131,151 131,151 131,151 131,151 131,151 131,151 131,151 131,151 131,151 131,151 131,150 130,150 130,150 130,150 130,150 130,150 130,150 130,150 130,150 130,150 130,150 130,150 129,150 129,150 129,150 129,150 129,150 129,150 129,150 129,150 129,150 129,150 128,150 128,150 128,150 128,150 128,150 128,150 127,150 127,150 126,150 126,151 126,151 125,151 123,152 123,152 122,151 120,151 120,151 120,150 121,149 121,149 122,147 122,147 122,147 121,145 120,145 120,144 119,143 118,143 117,142 117,142 115,141 115,140 115,140 114,140 114,140 113,140 112,140 112,140 112,140 112,139 111,139 110,139 110,139 110,139 110,139 109,139 109,139 109,139 108,139 107,139 106,139 106,139 106,140 106,140 106,140 105,139 104,139 103,140 103,140 101,140 100,140 99,140 99,139 98,139 97,139 96,139 94,138 94,138 94,138 94,138 92,137 92,137 91,137 90,137 89,137 89,137 88,137 87,137 87,138 87,138 87,138 85,138 84,138 84,138 83,138 82,137 82,136 82,136 82,136 82,136 79,136 77,137 76,137 75,137 75,137 74,138 71,137 69,137 69,137 68,137 68,137 66,137 65,136 65,136 65,136 65,135 65,135 65,134 64,133 64,132 64,132 65,131 65,131 64,130 64,129 65,128 65,128 65,126 65,125 65,124 65,123 65,123 63,123 63,123 63,123 62,123 61,124 61,124 61,123 60,123 60,123 60,123 60,123 59,124 58,124 58,124 58,124 58,124 58,124 58,124 59,123 59,123 59,123 59,123 59,122 58,121 58,121 58,121 57,120 56,120 55,119 54,119 54,119 54,118 55,117 55,117 55,117 55,117 55,117 55,117 54,116 54,115 54,115 54,115 54,115 54,114 54,114 54,114 54,114 53,114 52,114 51,114 50,114 50,114 49,113 49,113 48,113 48,113 49,113 49,113 49,112 50,112 50,112 50,112 51,112 51,112 51,112 51,111 51,111 51,111 49,110 47,109 47,109 46,109 44,110 44,110 44,110 43,109 42,109 42,108 41,108 39,108 39,108 39,108 39,107 38,107 38,107 38,107 38,107 38,106 38,106 38,106 37,105 37,105 38,104 38,103 38,102 38,102 38,101 37,101 36,102 36,102 36,101 36,101 36,101 36,101 36,101 36,101 36,101 36,101 35,101 35,101 35,101 35,100 35,100 35,100 35,100 35,100 35,100 35,100 35,100 35,100 35,100 35,99 35,99 35,99 35,99 35,99 35,99 35,99 35,99 35,99 34,99 34,99 34,98 34,98 33,98 33,98 33,98 33,98 33,99 32,99 31,100 30,100 30,100 30,100 29,99 29,98 29,98 28,98 28,98 28,98 26,97 26,98 26,98 26,98 24,97 21,96 20,96 20,96 19,96 19,96 18,96 18,96 17,96 17,96 17,96 17,96 18,95 18,95 18,94 19,93 19,93 20,93 21,92 21,91 22,90 22,90 23,90 23,90 23,90 23,89 23,89 23,89 24,89 24,89 24,89 25,88 25,88 25,88 25,88 25,87 25,87 25,87 25,87 25,87 25,87 24,87 24,87 24,87 24,86 24,86 24,86 24,84 24,84 24,84 25,84 25,84 25,84 26,84 26,84 26,84 26,84 26,84 26,84 27,84 27,84 27,84 27,84 27,84 27,83 28,83 28,83 28,83 28,83 27,82 27,82 27,82 27,82 27,82 27,82 27,81 27,81 27,81 27,81 28,82 28,82 28,82 28,82 29,81 29,81 30,81 30,81 30,81 30,81 30,81 31,81 31,81 31,80 31,80 30,80 30,79 31,79 31,79 31,79 31,78 31,78 31,78 31,78 31,78 31,78 31,77 30,77 30,77 30,77 30,77 30,77 30,76 29,75 29,75 29,75 29,75 29,75 29,74 29,74 29,74 28,74 28,74 28,74 27,73 27,73 26,73 26,72 26,72 25,72 25,72 25,72 25,72 25,72 25,72 24,73 24,73 24,73 24,73 24,73 24,73 23,73 23,73 23,72 23,72 23,72 22,71 22,71 22,71 22,71 22,71 21,71 20,71 19,71 19,71 19,71 18,71 17,71 16,71 16,71 16,71 15,72 15,72 15,72 15,72 15,72 15,72 15,72 16,72 16,73 17,73 17,74 17,74 18,74 18,74 17,75 16,75 16,75 16,75 15,75 15,75 14,75 13,76 13,76 13,76 12,76 11,76 11,76 9,75 8,75 7,75 7,75 7,76 7,76 7,75 6,75 5,74 4,72 4,72 3,72 3,72 2,71 1,71 0,71 0,71" id="8803" class="canton" fill="steelblue" stroke-width="1" stroke="white" geotype="canton" geoname="Charmes" code_insee="8803" code_departement="88" nom_departement="Vosges" code_region="44" nom_region="Grand-Est"/></svg>