<?xml version="1.0" encoding="utf-8"?>
<svg version="1.1" id="svgmap" xmlns="http://www.w3.org/2000/svg" xmlns:xlink="http://www.w3.org/1999/xlink" x="0px" y="0px" width="100%" height="100%" viewBox="0 0 500 396">
<polygon points="308,54 309,54 310,53 310,53 310,53 310,53 310,53 311,52 311,52 311,52 312,52 312,52 313,52 313,52 313,52 314,52 314,52 315,52 315,52 315,52 316,52 316,52 317,52 318,51 320,50 323,49 323,49 324,49 324,49 325,49 326,49 327,49 327,49 327,49 327,49 328,49 329,49 329,49 329,49 330,49 330,49 330,49 330,49 330,50 330,50 330,50 330,50 331,50 331,51 330,51 330,52 330,52 330,53 330,54 330,54 330,54 330,54 330,54 329,54 330,54 330,55 329,55 329,55 329,55 329,55 329,55 329,56 328,56 328,56 328,56 327,57 326,57 325,58 325,58 325,58 325,58 325,58 325,58 325,58 325,58 325,58 325,58 325,58 325,58 325,59 324,59 324,59 324,59 324,59 324,59 324,59 324,59 324,59 324,59 324,59 324,59 324,59 324,59 324,59 324,59 324,59 323,59 323,60 323,60 322,60 322,61 321,61 321,61 320,61 320,61 320,62 320,62 319,62 319,62 319,62 318,62 318,62 318,63 318,63 318,63 318,63 317,63 317,64 316,65 318,65 318,65 319,66 319,66 319,66 320,66 320,66 321,66 321,66 321,66 322,67 322,67 323,67 325,67 326,68 328,69 328,69 328,69 329,70 330,71 329,71 328,72 327,72 326,73 323,74 323,74 322,75 322,75 322,75 322,75 322,75 321,76 321,76 319,78 319,79 318,79 318,80 317,81 317,81 315,81 315,81 315,82 314,82 314,82 314,83 313,84 313,84 313,84 312,84 310,86 310,86 310,86 310,87 309,88 309,89 308,89 308,89 308,90 308,90 308,90 307,90 306,91 306,91 305,92 305,92 306,92 305,93 305,93 305,93 305,93 305,93 305,94 305,94 305,95 305,95 305,95 305,95 305,95 305,96 305,96 305,96 304,96 303,97 303,97 303,97 303,98 303,98 302,98 302,99 302,99 302,99 302,99 302,100 302,100 302,100 302,100 302,100 302,100 302,100 302,100 302,100 303,101 303,101 303,101 303,101 303,101 303,101 304,101 304,101 304,102 304,102 304,102 304,102 303,102 303,102 303,102 303,103 303,103 303,103 303,103 303,103 303,104 303,104 303,104 303,104 305,105 305,105 306,106 308,107 308,107 308,107 310,108 311,108 311,108 311,108 311,108 311,108 312,109 312,109 313,109 314,109 315,109 315,109 316,109 316,109 316,109 316,112 316,112 316,115 316,115 316,115 318,115 319,114 319,114 320,114 320,114 321,114 321,114 322,114 323,114 324,114 324,114 324,114 324,114 324,114 324,116 324,116 324,116 325,116 328,117 328,117 328,117 328,117 328,117 328,117 329,117 329,117 329,117 330,118 331,118 332,119 332,119 332,120 333,120 333,120 333,120 333,120 333,121 333,121 334,121 334,122 334,122 334,122 336,121 336,121 337,121 337,121 337,121 337,122 338,122 338,123 338,123 338,123 338,123 339,124 338,124 338,124 338,124 338,124 338,124 338,124 338,125 338,125 338,125 338,125 339,126 339,126 339,126 342,126 342,126 342,126 342,126 342,126 342,126 343,127 343,127 343,127 343,127 343,127 343,127 343,127 343,127 343,127 343,127 343,127 343,128 344,129 344,129 344,130 345,130 345,131 345,131 346,131 346,131 346,131 346,131 346,131 346,132 347,133 347,133 347,134 347,134 347,134 347,134 347,134 347,134 347,134 347,134 346,135 346,135 346,136 346,136 344,136 344,136 344,136 343,136 343,136 342,136 342,136 342,136 342,136 342,136 342,136 342,136 341,136 341,136 341,135 341,135 340,135 339,135 339,135 338,136 338,138 337,139 337,139 337,139 339,140 339,140 339,140 339,140 339,141 338,141 338,142 338,144 338,144 339,146 339,146 339,146 338,147 338,147 339,149 340,149 340,149 344,151 344,151 344,151 344,151 344,151 345,151 345,151 345,151 346,151 346,151 347,152 347,152 347,152 347,153 347,153 347,153 347,153 349,153 350,153 351,153 351,153 351,154 352,154 352,154 352,155 354,156 354,156 355,156 355,156 355,157 356,157 356,157 356,157 357,158 357,158 357,159 357,159 359,159 362,161 364,162 364,162 368,165 370,167 371,168 371,168 373,170 373,170 373,170 373,170 373,170 379,173 381,174 381,174 381,174 382,175 383,175 384,176 387,177 392,180 392,180 398,182 398,182 399,183 399,183 399,183 399,183 401,184 401,184 401,184 402,184 403,183 403,183 404,182 405,181 405,180 406,180 406,180 407,180 407,180 406,179 406,179 407,179 407,179 409,178 409,177 410,178 412,176 413,176 415,175 416,175 416,175 416,175 417,175 417,175 417,175 418,175 418,175 419,174 419,174 420,174 420,174 421,174 421,173 421,173 421,173 421,174 421,174 421,175 421,175 422,176 422,176 422,176 422,176 422,177 422,177 423,178 423,178 423,178 423,178 423,178 424,178 424,179 424,179 424,179 425,179 425,179 425,179 426,179 426,177 426,177 426,177 427,177 427,177 427,177 427,178 428,178 428,178 428,178 428,178 428,177 428,177 429,177 429,177 429,177 429,176 429,176 430,176 432,175 432,175 432,175 432,175 432,174 432,174 432,174 432,174 433,173 433,173 434,174 434,174 434,173 435,173 435,173 436,174 436,174 436,174 437,174 437,174 437,174 437,174 439,177 439,177 439,177 439,177 440,178 440,178 440,178 440,178 442,179 443,179 443,179 443,180 444,180 445,180 445,180 445,180 445,180 446,180 446,180 446,181 446,181 446,181 446,181 446,182 446,182 446,183 446,183 446,183 446,183 446,183 447,183 447,183 447,184 447,184 447,185 447,185 447,185 447,185 447,185 448,184 448,184 448,184 448,184 449,184 449,184 450,184 450,185 451,185 451,185 451,185 451,185 451,185 452,184 452,184 452,184 453,184 453,184 453,184 453,184 453,184 453,184 454,184 454,185 454,185 455,184 455,184 455,184 456,184 456,184 456,184 456,184 456,184 456,184 457,184 457,185 458,185 458,185 458,185 458,186 458,186 458,186 459,186 459,186 460,186 460,185 460,185 460,185 461,185 461,185 461,185 462,184 462,184 462,184 462,184 462,184 463,183 463,183 463,183 463,183 463,183 463,183 463,183 464,182 464,182 464,182 464,181 464,181 464,181 464,181 464,181 465,180 465,180 465,180 465,180 465,180 465,180 465,180 465,179 465,179 465,179 466,178 466,178 466,178 466,177 466,177 466,176 466,176 466,176 466,175 466,175 466,175 466,175 466,175 466,174 466,174 466,174 466,174 467,174 467,174 467,173 467,173 467,173 468,172 468,172 468,172 468,172 468,172 468,172 468,172 468,172 469,172 469,172 469,172 470,172 470,172 470,172 470,172 470,172 470,171 470,171 469,171 470,171 470,171 470,171 470,171 470,170 470,170 470,170 470,170 470,170 470,170 470,170 470,170 470,170 470,169 470,169 470,169 470,169 470,169 470,169 471,169 471,169 471,168 471,168 471,168 471,168 471,168 471,168 471,168 471,168 471,168 471,167 471,167 472,167 472,167 472,167 472,167 472,167 472,167 472,167 472,167 472,167 472,167 472,166 472,166 472,166 473,166 473,166 473,166 473,166 473,166 473,166 474,166 474,166 474,165 474,165 474,165 474,165 475,165 475,165 475,165 475,165 476,165 476,165 476,165 476,165 477,164 477,164 477,164 477,164 478,164 478,164 478,164 478,164 478,164 479,164 479,164 480,163 480,163 480,163 480,163 481,163 481,163 481,163 481,163 481,163 482,163 482,163 483,163 483,163 485,162 485,162 486,161 486,161 486,161 486,161 487,161 489,161 490,161 491,161 492,161 493,161 493,161 493,161 493,162 494,163 494,163 494,164 493,165 493,165 493,166 494,166 495,167 495,166 496,166 498,165 499,165 499,165 500,165 500,167 500,167 499,168 500,168 500,169 500,170 500,170 499,171 499,171 498,172 497,173 497,173 497,174 494,175 494,175 494,175 494,176 495,177 495,177 496,177 497,177 497,178 497,178 497,180 497,181 498,181 498,181 499,181 499,182 499,182 498,183 498,183 497,184 496,185 496,185 496,186 495,186 495,187 493,187 492,188 492,189 491,190 491,191 490,191 491,192 489,194 489,195 489,195 489,196 489,197 489,198 489,198 490,200 490,200 490,201 489,201 488,202 488,203 488,203 486,204 485,205 484,205 484,205 484,206 482,207 482,207 483,208 484,209 482,210 481,211 479,212 479,211 478,211 476,212 475,212 475,212 474,212 474,211 474,210 475,209 475,209 473,208 472,207 470,206 468,205 468,204 467,204 466,205 466,206 464,207 463,208 461,208 459,208 459,209 459,209 459,210 459,210 460,211 460,211 461,212 463,212 463,212 464,213 464,213 465,213 465,214 465,214 465,215 465,216 466,216 466,216 468,217 469,218 456,227 456,228 455,228 453,226 438,213 437,214 436,214 435,214 435,214 434,214 432,214 430,213 430,213 430,213 429,213 429,213 428,213 427,215 426,215 426,216 426,217 428,218 429,219 430,220 431,221 433,222 434,223 434,223 434,223 434,223 434,224 434,225 434,226 435,226 436,227 436,227 436,227 437,228 437,228 436,229 435,229 435,229 435,230 435,230 435,230 435,231 434,231 435,232 435,232 434,232 433,233 432,233 432,234 432,234 432,235 433,236 434,238 432,238 432,238 433,238 433,239 433,239 433,239 434,240 434,240 434,241 435,241 435,241 435,241 434,242 434,242 434,242 435,242 434,242 434,243 433,242 433,242 433,243 432,242 432,243 431,243 431,243 431,243 430,243 430,244 430,245 430,245 430,245 430,245 427,248 426,248 425,248 425,248 424,248 421,249 420,249 420,249 419,250 419,250 419,250 419,250 419,250 419,250 418,251 418,251 418,252 418,252 418,252 417,253 417,253 418,253 418,254 418,254 418,254 418,255 419,255 419,255 418,256 418,256 418,256 418,256 417,257 417,257 418,257 417,260 411,260 408,260 408,261 408,261 408,263 411,267 411,269 411,269 410,270 411,271 410,271 410,272 410,272 410,272 410,273 411,273 412,272 412,272 412,272 412,272 413,271 413,271 414,271 414,270 421,270 423,270 423,271 424,271 424,271 428,273 429,273 428,273 429,274 430,278 430,278 432,278 432,278 433,278 433,278 434,278 435,277 435,277 437,277 439,276 440,275 441,275 441,275 442,277 443,278 443,280 443,281 443,281 443,282 440,282 438,282 437,282 436,283 436,284 435,286 435,286 435,286 435,286 433,286 431,286 431,287 429,288 427,290 426,292 424,294 425,297 425,297 426,300 428,303 428,303 429,304 431,305 432,306 433,306 434,306 435,307 436,307 437,308 440,309 441,309 443,308 444,308 446,308 447,308 447,308 448,307 448,306 447,306 447,305 447,304 448,303 448,302 448,302 448,302 448,301 449,301 449,301 449,302 450,303 451,304 451,305 452,308 453,309 453,310 454,310 454,311 455,311 455,311 456,311 457,311 458,310 459,309 459,309 459,309 459,308 460,308 460,308 460,308 460,307 460,307 460,307 459,306 462,305 463,305 464,305 465,304 465,304 466,304 466,304 466,305 466,306 466,306 467,307 468,308 468,308 467,309 467,309 468,310 467,311 466,312 465,312 466,314 465,316 465,317 465,317 464,319 464,320 464,320 464,320 464,321 465,322 465,323 463,324 462,324 462,324 460,325 457,324 456,324 454,324 454,325 454,325 454,325 455,325 454,326 454,326 454,326 454,327 454,327 454,327 454,328 454,328 454,329 454,329 454,329 454,329 454,329 454,330 454,330 454,330 454,331 454,331 455,331 454,332 455,332 455,332 454,332 455,332 454,333 454,333 455,334 455,334 455,334 456,334 456,334 456,335 457,335 457,335 457,334 458,335 458,335 459,336 459,336 459,336 460,336 461,336 463,336 464,336 465,336 466,336 466,337 466,337 466,337 466,337 466,337 467,338 466,338 467,339 467,340 466,340 467,341 467,341 467,341 467,341 467,341 467,342 467,342 467,342 467,342 467,343 468,343 468,343 468,343 468,343 468,343 468,344 468,344 468,344 468,345 468,345 468,345 468,345 468,345 469,345 469,346 469,346 469,346 469,346 469,346 469,346 469,347 469,347 469,347 468,347 468,347 468,348 468,348 468,348 468,349 468,349 468,350 469,350 469,350 468,350 468,351 469,352 469,352 469,353 469,354 469,354 468,354 467,355 466,356 466,355 463,355 463,355 462,355 462,356 462,356 462,356 461,356 461,357 460,357 459,358 458,358 457,358 456,359 453,359 450,359 450,359 449,359 447,358 445,358 445,357 444,357 444,357 443,357 443,357 442,356 440,356 440,356 439,356 438,355 436,354 436,354 435,354 432,352 432,352 430,353 428,353 426,354 425,354 425,353 424,353 424,352 424,353 423,353 423,353 423,353 422,353 421,354 421,355 420,355 420,355 420,355 419,356 418,356 417,356 416,356 416,357 416,357 416,357 416,357 415,358 415,358 414,358 414,358 412,357 412,357 411,358 408,359 408,359 408,358 408,358 409,358 410,358 410,357 409,357 409,357 410,356 410,355 408,355 405,354 401,353 400,353 400,353 400,353 398,353 397,354 395,354 394,355 391,356 391,356 390,356 390,356 389,356 388,356 386,355 385,355 384,355 384,355 383,355 383,355 382,355 381,355 380,354 380,354 379,354 379,354 378,355 378,355 378,356 378,356 378,357 378,358 378,359 378,359 378,359 378,359 378,360 379,361 379,362 378,362 378,362 377,362 377,362 377,363 378,364 377,365 377,365 376,366 375,366 375,367 375,367 375,368 375,368 375,368 375,368 375,368 374,369 375,369 376,370 375,370 374,370 374,371 373,372 372,373 371,372 371,372 371,372 371,372 371,371 370,370 367,370 367,370 366,370 367,371 366,371 365,372 365,372 365,373 364,373 363,372 363,372 363,372 361,372 360,373 360,373 360,374 359,374 359,374 358,375 358,375 357,375 356,376 357,376 357,377 358,378 357,378 356,379 356,379 356,380 356,380 357,381 356,382 356,382 355,383 354,383 354,384 355,385 355,386 356,387 356,387 356,387 355,387 356,388 356,388 356,389 356,389 356,390 356,391 355,391 355,392 355,392 354,393 354,393 353,392 353,392 352,393 351,393 350,394 348,394 347,395 346,395 345,395 342,394 340,394 339,393 338,393 337,392 336,391 335,391 333,390 332,390 331,390 328,390 328,390 326,392 325,393 325,393 325,394 325,395 325,395 323,396 323,396 322,396 322,396 321,396 320,396 320,396 319,396 319,395 319,395 318,395 318,395 317,394 317,394 316,394 316,393 316,393 315,392 313,391 312,390 310,389 309,388 308,388 307,387 305,387 305,387 304,387 303,387 303,386 303,386 303,386 304,385 305,384 305,383 305,383 304,382 304,382 303,382 302,382 301,382 301,382 301,381 299,380 299,380 299,380 299,378 299,378 299,378 297,378 297,378 297,378 296,379 296,379 295,379 294,380 293,380 293,379 289,377 288,377 288,376 289,376 289,375 289,374 289,374 289,373 288,372 287,370 286,369 284,368 283,367 281,367 280,367 279,367 279,366 279,365 278,364 278,363 278,362 278,361 277,360 276,359 276,358 277,357 277,356 277,355 277,354 277,354 276,353 274,352 274,352 273,351 273,350 274,350 273,348 272,348 271,347 270,346 270,344 271,343 272,343 272,342 272,341 272,340 272,340 273,340 273,338 273,337 272,335 272,335 273,335 270,329 269,327 269,327 269,326 270,325 270,325 271,324 271,323 271,323 271,322 271,322 271,322 270,321 269,320 268,320 268,320 267,320 264,319 263,319 263,318 263,317 263,316 262,316 263,315 263,315 263,314 264,314 264,314 265,314 268,313 270,312 273,311 277,310 278,310 278,309 279,309 278,308 279,307 276,306 278,305 277,304 276,303 276,302 276,302 275,302 276,301 275,301 273,301 273,300 272,300 272,300 270,300 269,300 268,300 267,300 267,299 263,298 263,297 263,297 261,296 262,295 261,295 260,293 260,292 261,291 261,290 260,289 260,289 260,288 260,288 260,288 260,288 260,288 260,288 260,288 259,287 259,287 259,287 259,287 259,287 259,286 259,286 258,286 258,286 258,286 258,286 258,286 258,286 258,286 258,285 257,285 256,285 255,285 255,284 254,284 254,284 253,283 253,283 253,283 253,283 253,283 253,283 252,283 251,282 250,281 249,281 249,281 249,281 249,281 247,280 246,279 246,279 245,278 245,278 245,278 245,278 244,278 244,278 244,278 244,278 244,278 243,280 243,280 243,281 241,283 241,283 240,284 240,285 239,286 239,286 239,287 239,287 239,287 240,287 240,287 240,287 240,288 240,288 240,289 240,289 240,289 240,289 240,290 240,290 240,290 239,290 239,290 238,290 238,290 238,291 238,291 237,291 237,291 237,291 237,291 237,292 237,292 239,292 239,292 239,292 238,293 238,294 238,295 238,295 238,295 238,295 239,296 239,297 239,297 238,298 238,298 238,298 238,298 238,298 238,298 238,298 237,298 237,298 236,298 236,298 236,298 235,298 235,298 234,298 234,298 234,298 233,298 233,298 231,299 231,299 231,299 230,300 230,300 230,300 229,300 229,300 229,299 229,299 228,299 228,299 228,299 227,299 227,299 227,299 227,299 226,299 226,299 226,299 226,299 225,299 225,299 225,299 224,299 223,300 223,300 223,300 223,300 223,300 223,300 222,300 222,300 221,300 220,299 220,299 220,299 220,299 220,298 220,298 220,298 220,298 220,298 220,298 219,298 216,297 215,297 215,297 215,296 214,296 214,296 214,296 214,296 213,296 212,296 211,296 211,296 210,296 210,296 210,296 209,296 209,297 209,297 208,297 208,298 208,298 208,298 207,298 207,298 207,298 207,298 207,298 206,298 206,298 206,298 204,297 204,297 204,297 203,297 203,297 203,297 202,297 202,297 202,297 202,297 201,297 201,297 201,296 201,296 200,296 199,296 199,296 198,295 198,295 198,295 197,295 197,295 196,295 196,295 195,295 195,296 194,296 194,296 193,296 193,296 193,296 192,296 192,296 192,296 192,296 191,296 191,296 191,296 191,296 191,296 190,296 189,296 189,296 189,296 188,296 182,302 173,305 173,304 173,304 173,303 173,303 172,304 171,305 172,305 162,313 162,313 161,314 161,314 161,314 160,314 160,314 156,318 158,318 157,320 154,320 149,321 149,320 149,319 149,319 149,319 148,319 148,319 145,319 143,319 142,319 142,319 141,319 141,319 139,320 138,319 138,319 137,319 137,319 136,318 135,316 134,315 133,313 133,313 133,312 133,312 131,311 132,310 132,310 132,309 132,309 132,308 132,308 132,307 133,305 134,302 134,301 134,301 134,301 134,301 134,300 134,297 132,296 130,294 128,294 127,294 126,294 126,294 125,293 124,292 123,292 122,291 122,291 122,290 121,290 119,288 119,288 119,287 119,286 120,285 120,284 121,283 121,283 120,282 120,282 119,282 119,282 119,281 119,280 119,279 120,279 121,279 122,279 123,278 125,276 126,274 127,273 128,273 129,273 129,273 130,274 129,274 129,275 129,276 133,275 135,275 135,274 135,273 135,272 137,271 138,271 141,273 142,274 143,274 143,274 143,274 144,274 144,274 144,273 144,273 145,273 145,273 146,273 146,272 146,272 147,272 147,272 147,272 148,271 148,271 148,270 148,270 148,270 148,270 149,269 149,269 149,269 149,269 150,268 150,268 151,268 151,268 151,268 151,267 152,267 154,267 154,267 154,266 154,266 155,266 155,266 155,266 155,265 155,264 155,264 155,264 155,263 156,263 156,263 156,263 156,263 156,262 156,262 156,262 156,262 156,262 156,262 156,261 157,261 157,261 157,261 157,261 157,260 157,260 158,260 158,259 158,259 158,259 159,259 160,259 161,258 162,257 163,257 163,257 165,256 165,256 165,256 166,256 166,255 166,254 166,254 166,253 166,253 166,252 167,252 167,252 167,251 167,250 167,250 167,250 167,250 166,250 166,250 165,250 165,250 165,251 165,251 165,251 164,250 164,248 164,246 163,245 163,245 163,245 163,245 164,244 164,244 164,244 165,243 165,243 162,242 162,242 159,241 159,241 159,241 159,241 159,241 159,241 156,240 155,239 155,239 155,239 155,239 153,239 152,239 152,238 150,238 149,238 149,238 149,238 149,236 148,233 148,232 148,232 148,232 147,232 147,232 147,231 147,231 148,230 148,230 148,229 148,229 148,229 148,229 148,229 147,228 147,228 145,229 144,229 143,230 140,230 139,229 138,229 138,229 137,228 137,227 137,227 136,226 133,226 133,226 132,226 132,225 132,225 131,224 131,224 131,224 131,223 130,223 130,223 130,222 130,222 130,222 129,222 127,222 126,222 125,222 123,223 121,223 119,223 116,223 115,223 115,223 114,223 114,223 113,223 113,223 112,223 112,223 111,223 111,222 110,222 110,221 109,221 108,221 108,220 107,220 107,221 107,221 107,221 107,221 107,221 107,222 107,222 107,222 107,222 107,223 107,223 107,223 107,223 107,223 107,224 107,224 107,224 107,224 107,224 106,224 106,224 106,224 106,225 106,225 106,225 106,225 106,226 106,226 106,226 107,227 107,227 107,227 107,227 107,227 107,228 107,229 107,229 107,230 107,231 107,232 106,232 105,232 104,232 101,233 100,233 99,233 98,232 97,231 95,230 93,228 90,226 90,226 89,225 89,224 88,224 87,223 87,223 87,223 87,223 87,222 87,222 86,222 86,222 86,222 86,222 85,221 84,221 84,221 84,221 84,221 81,220 80,220 79,219 77,219 77,219 74,218 74,218 74,218 74,218 74,218 72,218 72,218 71,218 68,218 68,218 68,218 66,218 60,216 59,216 59,216 59,216 59,216 59,216 59,216 59,216 59,216 59,216 59,216 58,216 58,216 58,216 58,217 58,217 58,217 58,217 58,217 58,217 58,217 58,217 58,217 57,217 57,217 57,217 57,218 57,218 57,218 57,218 57,218 56,218 55,217 54,215 52,211 54,211 55,211 55,210 54,209 54,209 53,208 54,208 53,207 52,207 52,207 52,207 52,207 51,207 51,207 50,207 50,207 49,207 49,207 49,207 49,206 49,206 49,206 49,206 49,206 49,205 48,205 48,205 48,204 48,204 47,204 47,204 46,203 46,203 46,203 45,203 44,202 44,203 43,203 42,203 42,202 41,202 40,203 41,202 41,202 41,201 41,201 42,201 42,200 43,200 43,200 44,200 45,200 45,200 46,199 46,199 46,199 47,199 47,198 48,198 48,197 49,196 49,196 50,196 50,196 50,196 50,195 51,195 51,195 51,195 51,194 51,194 51,194 51,194 51,194 52,193 52,193 52,193 52,193 53,193 53,193 53,193 54,193 54,193 54,193 54,193 54,193 55,194 55,194 56,194 56,194 56,194 57,194 57,194 57,195 58,195 58,195 58,195 58,195 59,195 59,195 59,195 60,195 60,195 61,195 61,195 61,195 62,195 63,195 64,195 65,195 65,195 66,195 66,195 66,195 66,195 67,195 67,195 67,195 67,195 68,195 68,195 68,195 69,195 70,195 70,195 71,195 71,195 72,194 72,194 72,194 73,194 73,194 73,194 73,194 73,194 73,194 73,194 73,194 73,193 73,193 73,193 73,193 73,193 73,193 73,193 73,193 73,192 73,192 74,192 74,192 74,191 74,191 75,191 75,191 76,190 76,190 76,190 76,190 76,190 76,189 76,189 77,189 77,189 77,189 78,189 78,189 78,189 79,189 79,189 79,189 79,189 79,189 80,189 80,189 80,189 80,189 82,188 82,188 82,188 82,188 82,188 83,188 83,188 83,188 83,187 83,187 83,187 84,187 84,186 84,186 84,186 84,186 84,185 85,185 85,185 84,185 83,185 83,185 83,185 82,184 82,184 82,184 82,184 81,184 81,184 80,184 80,183 78,183 78,183 78,183 77,183 77,183 76,182 76,182 76,182 76,182 75,182 75,182 75,182 74,182 74,182 74,182 74,182 74,183 74,183 74,183 74,183 74,183 74,183 73,183 73,183 73,182 73,183 73,183 72,183 72,183 72,183 72,183 72,184 72,184 72,184 71,184 71,184 71,184 71,185 71,185 70,185 70,185 70,185 70,185 69,186 69,186 69,186 69,186 69,186 68,186 68,186 67,186 67,186 67,186 66,186 66,187 66,187 65,187 65,187 65,187 65,187 65,187 65,188 64,188 64,188 64,188 64,189 64,189 64,189 63,189 63,189 62,189 62,189 62,189 62,189 60,189 59,190 59,190 59,190 59,189 59,189 60,189 60,189 60,188 60,188 60,188 60,188 61,187 61,187 61,186 61,186 61,186 61,186 61,185 61,185 61,185 62,185 62,185 62,184 62,184 62,184 62,184 63,184 63,183 63,183 63,183 63,183 62,183 61,183 60,182 59,182 58,182 59,181 60,180 60,180 59,179 59,179 59,179 59,178 59,178 59,178 59,178 59,177 59,177 60,177 60,177 60,177 60,176 60,176 60,176 60,176 60,176 60,176 60,176 60,176 60,175 60,175 60,175 59,175 59,175 59,174 59,174 59,174 58,174 58,174 58,173 58,173 58,172 58,172 58,172 58,172 58,171 58,171 58,171 58,170 59,170 60,170 60,170 60,170 60,170 60,170 60,169 60,169 60,169 60,168 60,168 60,168 60,168 60,168 60,168 60,168 59,168 59,167 59,166 59,166 60,166 60,166 60,166 60,166 60,166 60,166 60,166 60,165 61,165 61,165 61,165 61,165 60,165 59,165 58,165 58,165 57,165 55,165 53,165 52,165 51,165 51,165 51,165 51,165 51,165 50,164 50,164 50,164 50,164 50,164 49,163 49,162 49,162 49,162 49,162 49,162 48,162 48,161 48,161 48,161 45,160 45,160 44,160 43,159 42,159 42,159 40,158 38,157 38,157 38,156 38,156 36,155 36,155 35,155 34,155 34,155 33,155 33,154 33,154 33,154 32,154 32,154 32,154 32,154 32,154 32,154 32,154 32,154 32,154 32,154 32,154 32,153 32,153 32,152 31,152 31,151 31,151 31,150 31,150 30,149 30,148 29,148 29,147 28,146 27,146 27,146 26,145 25,145 24,144 23,143 23,143 22,144 22,144 21,144 21,144 21,144 20,144 20,144 20,144 20,144 20,144 20,144 20,144 20,143 20,143 20,143 20,143 20,143 21,142 21,142 21,142 21,141 21,141 21,141 21,141 21,141 21,140 21,140 21,140 21,140 21,139 21,139 21,139 22,139 21,139 21,139 21,138 22,138 22,137 23,137 24,138 24,138 24,138 24,138 25,138 25,137 26,136 26,136 26,135 26,135 26,135 26,134 26,134 27,134 27,133 27,133 27,133 27,133 27,133 27,132 27,132 27,132 27,132 28,131 27,131 28,131 28,131 28,130 28,130 29,130 29,130 29,130 29,129 30,129 30,129 30,129 31,129 32,129 33,128 33,128 34,128 34,128 35,128 35,127 36,127 36,126 37,126 37,125 38,125 38,125 39,125 40,124 40,124 40,123 41,123 42,123 42,123 42,122 42,122 43,122 44,122 45,122 45,123 46,122 47,122 47,121 47,121 47,121 48,120 48,119 49,119 50,118 50,118 51,117 52,117 52,116 53,115 53,114 54,114 54,113 54,113 54,112 54,112 54,112 54,112 54,111 55,110 56,108 57,108 55,107 55,106 56,106 56,106 56,106 56,106 56,106 56,106 56,106 56,106 56,106 56,106 56,105 57,105 57,105 57,105 57,105 57,105 57,104 57,104 58,104 58,104 58,104 58,104 58,104 58,103 58,103 58,103 59,103 59,103 59,103 59,103 59,103 59,102 59,102 60,102 60,102 60,102 60,102 60,102 61,101 61,101 62,101 62,100 63,100 63,99 64,99 64,99 64,98 64,98 64,98 63,98 63,98 62,98 62,98 62,98 62,98 61,98 61,98 61,98 61,98 60,97 59,96 60,96 58,95 58,95 58,95 57,95 57,94 57,94 57,94 57,94 58,93 57,93 57,92 56,92 56,92 55,92 55,92 54,92 54,92 54,92 54,93 52,92 52,92 51,92 50,92 50,91 49,91 49,91 48,90 48,90 47,90 46,90 46,89 45,89 44,91 44,91 42,91 41,93 38,92 33,92 34,90 30,90 30,90 29,90 30,89 25,89 25,88 22,88 19,88 19,88 16,88 16,88 15,87 15,87 15,86 15,86 15,85 14,84 14,83 14,83 14,83 15,82 15,82 13,81 10,80 8,79 8,79 4,76 2,76 0,75 0,74 0,74 0,74 1,73 1,73 1,73 1,72 0,72 1,72 1,72 1,72 1,72 2,71 2,71 2,71 3,71 3,71 3,71 3,71 3,71 3,70 4,70 4,70 4,70 4,70 5,70 5,70 5,69 6,69 7,69 7,69 7,69 8,69 8,69 12,66 14,64 15,63 15,63 15,63 16,61 16,61 17,60 17,60 17,60 17,59 17,59 17,59 17,59 17,59 18,59 18,59 18,58 18,58 19,57 19,57 20,56 21,55 21,55 21,54 22,54 24,54 25,54 27,55 29,55 29,55 30,56 31,56 32,56 32,56 33,56 33,56 33,55 33,55 33,55 33,54 34,55 34,55 36,55 36,55 36,55 36,54 36,54 37,55 37,55 38,55 39,55 40,55 40,55 40,55 41,55 42,55 42,55 43,55 44,55 45,55 46,55 47,55 49,54 52,54 53,54 54,54 56,53 57,53 58,53 59,53 59,53 60,53 60,53 60,53 61,53 62,53 63,52 64,51 64,51 63,49 63,49 63,48 63,48 62,47 62,47 62,46 61,46 61,46 60,44 60,43 59,43 59,43 59,42 58,40 58,39 58,38 58,37 59,36 58,35 58,33 58,33 58,33 58,32 57,32 57,31 57,31 56,31 55,30 54,30 53,27 53,27 54,27 55,27 56,27 57,27 57,27 58,27 58,27 59,27 59,27 61,27 61,27 62,27 62,27 63,27 63,27 64,26 65,26 65,26 65,26 66,26 67,25 67,25 68,24 69,24 69,23 70,23 71,23 71,23 71,22 71,22 72,22 72,22 73,22 73,22 73,22 74,22 74,22 75,21 75,21 75,21 76,20 76,20 76,20 77,20 77,20 77,20 77,19 78,19 78,19 78,18 78,18 79,18 79,18 79,17 79,17 80,17 80,17 81,16 82,16 82,16 82,16 83,16 84,16 84,16 84,16 84,16 85,17 85,17 86,17 86,17 87,17 88,17 93,17 93,17 93,17 93,17 93,17 94,17 94,16 95,16 96,16 98,16 100,16 100,17 101,17 101,16 102,15 102,15 104,14 104,14 105,14 105,14 106,14 107,13 107,13 108,13 109,12 110,12 110,12 110,12 110,12 110,12 111,12 112,12 112,12 112,12 113,12 113,13 114,13 114,14 115,14 115,15 116,15 117,16 117,16 118,17 118,17 119,17 119,18 120,18 120,19 121,19 121,18 121,17 121,16 123,16 126,15 129,14 130,13 132,13 134,12 136,12 137,11 140,11 151,7 152,7 152,8 152,8 152,9 152,9 152,9 152,9 152,9 152,10 152,10 152,10 152,10 152,11 152,11 152,11 152,11 152,11 152,11 152,11 153,12 153,12 154,13 155,13 155,13 155,13 156,13 156,14 156,14 156,14 156,14 156,13 158,14 159,14 160,14 160,15 161,15 161,15 162,15 164,14 164,14 165,14 165,14 166,14 167,15 168,15 169,15 170,15 171,16 172,16 173,16 174,16 175,16 176,16 177,16 177,15 177,15 176,14 176,13 176,13 176,12 176,11 176,11 175,10 175,10 175,8 175,8 174,7 174,6 174,6 174,5 174,5 174,5 174,5 174,4 174,4 174,4 174,3 174,2 174,2 174,1 174,1 174,1 174,0 175,0 176,0 178,1 178,1 179,1 180,1 180,1 181,1 182,2 183,2 183,2 185,3 185,3 185,3 186,4 186,4 187,5 188,6 188,6 189,6 191,5 191,4 191,4 191,4 192,3 192,3 193,3 193,2 194,2 194,2 194,2 195,2 196,1 196,1 197,1 198,3 199,4 200,4 201,4 201,4 201,4 202,4 202,5 202,5 203,6 203,6 203,6 203,6 203,7 204,7 205,8 205,8 205,8 205,8 205,8 206,9 206,10 206,10 206,10 206,10 206,11 206,11 206,12 206,13 206,13 207,13 207,13 207,14 209,15 210,16 209,16 210,17 210,18 210,18 211,18 211,19 212,19 212,19 213,20 214,21 214,21 215,22 216,22 216,22 217,22 217,22 218,23 219,23 219,23 220,23 220,24 221,24 221,24 221,25 221,25 221,25 222,26 222,26 222,27 222,27 224,28 224,29 225,29 225,29 225,30 225,30 225,31 226,31 226,31 226,32 227,32 227,32 227,33 227,33 227,33 227,34 227,35 227,35 227,36 228,36 228,36 228,36 228,37 228,37 229,37 229,38 229,38 229,38 229,39 229,39 230,39 230,40 230,40 230,40 231,41 231,41 232,41 233,43 235,44 235,44 235,44 235,45 236,45 236,45 238,46 239,46 239,46 240,48 240,48 240,48 241,48 241,48 242,49 246,51 247,51 247,51 253,54 253,54 255,55 255,55 257,55 260,55 260,55 260,55 261,55 261,55 263,55 264,55 264,55 266,57 268,59 268,59 268,59 268,59 269,59 269,59 269,59 270,59 271,60 272,60 273,60 274,60 275,61 275,61 279,61 280,61 285,61 285,61 286,62 286,62 286,62 293,64 294,64 294,64 294,64 294,63 294,63 295,62 296,61 297,61 298,60 299,60 300,59 301,59 302,58 302,58 303,57 304,57 304,57 305,57 306,56 306,56 306,55 309,54 308,54" id="8905" class="canton" fill="steelblue" stroke-width="1" stroke="white" geotype="canton" geoname="Avallon" code_insee="8905" code_departement="89" nom_departement="Yonne" code_region="27" nom_region="Bourgogne-Franche-Comté"/></svg>