<?xml version="1.0" encoding="utf-8"?>
<svg version="1.1" id="svgmap" xmlns="http://www.w3.org/2000/svg" xmlns:xlink="http://www.w3.org/1999/xlink" x="0px" y="0px" width="100%" height="100%" viewBox="0 0 500 271">
<polygon points="3,222 3,221 2,220 2,220 2,219 2,217 2,217 2,216 2,215 3,215 3,214 3,214 3,213 2,213 3,212 2,212 2,211 4,211 7,211 9,212 11,212 20,215 21,213 26,215 27,215 27,215 28,215 29,215 30,215 31,216 32,216 33,216 34,213 34,212 34,211 34,211 34,210 34,209 34,208 34,208 34,207 34,206 34,206 34,205 34,204 35,204 35,202 36,201 38,197 40,193 40,193 40,192 41,190 41,189 42,188 42,187 43,186 43,183 43,181 43,180 43,176 43,176 43,175 50,175 50,174 51,174 54,174 58,174 59,174 61,171 61,171 60,170 60,170 59,170 59,169 60,169 62,165 64,164 65,163 65,163 65,161 67,161 68,161 71,161 74,161 77,162 78,162 79,162 79,162 79,162 80,162 80,162 81,162 82,162 82,163 82,163 88,163 87,163 90,163 91,163 92,162 93,162 93,162 93,162 93,162 93,162 93,161 94,161 94,161 94,161 94,161 94,161 94,161 95,161 95,161 96,162 96,162 96,162 97,162 98,162 98,162 98,162 98,162 99,163 99,163 99,163 99,163 103,162 102,161 102,161 101,160 99,159 99,158 99,158 99,158 100,158 102,158 104,159 107,156 108,157 108,157 113,159 114,160 116,160 117,160 117,160 118,160 118,161 121,161 122,161 122,161 123,163 124,164 126,165 127,166 128,164 130,165 135,158 142,151 141,151 140,151 141,149 140,149 138,149 138,148 138,147 139,146 139,146 139,145 139,145 139,145 142,144 142,143 143,142 147,140 147,144 153,145 153,148 157,148 159,149 158,143 158,142 159,142 160,139 159,139 156,138 157,135 157,135 158,133 161,134 162,134 163,134 165,133 166,131 166,131 167,130 167,129 168,128 168,128 168,128 180,114 180,114 180,114 180,114 180,114 180,114 183,111 181,110 181,109 177,106 177,106 177,106 176,105 175,104 175,104 174,103 175,103 176,102 176,102 178,101 179,101 181,99 182,99 182,99 185,97 185,97 185,97 186,97 186,97 185,96 185,96 184,95 183,94 182,93 182,92 182,92 181,92 181,91 181,91 180,90 179,88 179,88 177,87 176,86 172,85 171,84 170,83 168,83 168,83 168,82 167,82 167,82 168,80 170,79 169,79 168,79 161,77 160,76 160,75 161,74 168,70 168,70 168,70 169,70 169,70 169,70 172,69 180,67 180,67 183,66 183,66 186,66 188,67 189,66 193,66 193,64 194,63 196,63 197,62 197,60 198,60 200,62 201,62 204,63 204,64 206,64 209,65 209,65 210,66 211,70 213,70 226,70 227,71 229,68 232,65 232,64 233,64 234,62 236,62 234,60 234,60 234,60 230,55 230,55 230,55 231,54 232,55 233,54 234,55 238,55 239,55 239,54 238,53 238,53 239,51 240,51 241,49 244,48 245,47 248,45 248,46 251,45 255,42 255,42 255,41 255,41 255,41 256,41 256,40 256,40 257,39 259,39 260,41 261,42 267,43 266,44 275,47 277,45 282,39 285,37 285,37 285,37 285,37 285,36 287,35 295,35 296,33 298,34 299,34 303,33 303,33 310,31 316,37 317,38 317,38 317,38 317,38 320,40 323,40 326,40 326,40 326,39 328,38 328,38 327,35 327,35 328,34 329,33 330,33 330,33 331,30 332,29 333,29 332,28 331,29 331,29 328,28 329,27 330,27 330,25 332,23 330,23 330,22 332,21 330,18 330,14 327,9 325,8 321,7 320,6 323,5 325,4 326,3 327,3 328,2 331,2 335,1 339,1 342,1 347,1 346,7 351,9 352,10 355,12 356,11 363,13 367,8 373,8 374,8 376,8 378,9 382,9 383,9 386,9 388,10 389,11 392,11 398,10 397,9 396,8 395,7 395,4 393,1 393,0 394,0 394,0 395,1 396,1 396,1 396,2 397,3 397,3 397,3 400,4 400,4 401,5 401,5 401,5 400,7 400,7 400,8 400,8 401,9 401,9 402,9 403,9 404,10 404,11 405,12 405,13 404,15 404,16 405,18 404,18 405,18 405,18 406,18 414,18 415,18 419,23 426,24 427,25 427,25 428,25 430,28 430,28 430,28 431,28 433,27 434,26 434,26 436,27 436,27 438,28 438,28 439,28 439,28 439,28 439,28 439,28 442,27 442,27 442,27 444,27 444,27 445,27 445,27 446,27 447,27 450,27 453,28 453,28 455,28 458,30 458,29 459,29 459,29 460,28 460,28 460,28 461,28 462,27 462,27 462,27 463,27 463,27 464,26 464,26 465,26 466,25 467,25 467,25 467,25 470,26 470,26 470,26 470,27 470,27 470,27 470,28 470,28 470,28 470,28 471,28 473,28 474,28 473,30 473,31 472,32 471,33 471,34 473,33 473,33 474,33 474,33 475,33 477,34 482,35 483,35 483,35 482,37 481,38 481,38 481,38 481,38 481,38 482,38 482,38 482,38 482,38 482,38 482,38 482,38 482,38 482,39 482,39 482,39 482,39 482,39 482,39 482,39 482,39 482,39 482,39 482,39 482,39 482,39 482,39 482,39 482,39 483,39 483,39 483,39 483,39 483,39 483,39 483,39 483,39 483,39 483,39 483,39 483,39 483,39 483,39 483,39 483,39 483,39 483,39 483,39 483,39 483,39 483,39 483,39 484,40 484,40 484,40 484,40 484,40 484,40 484,40 484,40 484,40 484,40 484,40 484,40 484,40 484,40 484,40 484,40 484,40 484,40 484,40 484,40 484,40 484,40 484,40 484,40 484,40 484,40 485,40 485,40 485,40 485,40 485,40 485,40 485,40 485,40 485,40 485,40 485,40 485,40 485,40 485,40 485,40 485,40 485,40 485,40 485,40 485,40 485,40 485,40 485,40 485,40 485,40 485,40 485,40 485,40 485,40 485,40 485,40 485,40 485,40 485,40 485,40 485,40 485,40 485,40 485,40 485,40 485,40 485,40 485,40 485,40 485,40 485,40 485,41 485,41 485,41 485,41 485,41 486,41 486,41 486,41 486,41 486,41 486,41 486,41 486,41 486,41 486,41 486,41 486,41 486,41 486,41 486,41 486,41 486,41 486,41 487,41 487,41 487,41 487,41 487,41 487,41 487,41 487,41 487,41 487,41 487,41 487,41 487,41 487,41 487,41 487,41 487,41 487,41 488,41 488,41 488,41 488,41 488,41 488,41 488,41 488,41 488,41 488,41 488,41 488,41 488,41 488,41 488,41 488,41 488,41 488,41 488,41 488,41 489,41 489,41 489,41 489,42 489,42 489,42 489,42 489,42 489,42 489,42 489,42 489,42 489,42 489,42 489,42 489,42 489,42 489,42 489,42 490,42 490,42 490,42 490,42 490,42 490,42 490,42 490,42 490,42 490,42 490,42 490,42 490,42 491,43 491,43 491,43 491,43 491,43 491,43 491,43 491,43 491,43 491,43 491,43 491,43 491,43 491,43 491,43 491,43 491,43 491,44 491,44 491,44 491,44 492,44 492,44 492,44 492,44 492,44 492,44 492,44 492,44 492,44 492,44 492,45 492,45 492,45 492,45 492,45 492,45 493,45 493,45 493,45 493,45 493,45 493,45 493,45 493,46 493,46 493,46 493,46 493,46 493,46 493,46 494,46 494,46 494,46 494,46 494,46 494,46 494,46 494,46 494,46 494,46 494,46 494,46 494,46 494,46 494,46 494,46 494,46 494,46 494,47 494,47 494,47 494,47 494,47 494,47 494,47 494,47 494,47 494,47 494,47 494,47 494,47 495,47 495,47 495,48 495,48 495,48 495,48 495,48 495,48 495,48 495,48 495,48 495,48 495,48 495,48 495,48 495,48 495,48 495,48 495,48 495,48 495,48 495,48 495,48 495,48 496,48 496,48 496,48 496,49 496,49 496,49 496,49 496,49 496,49 496,49 496,49 496,49 496,49 496,49 496,49 497,49 497,49 497,49 497,49 497,49 497,49 497,49 497,49 497,49 497,49 497,49 497,49 497,49 497,49 497,50 497,50 497,50 497,50 497,50 497,50 497,50 497,50 497,50 498,50 498,50 498,50 498,50 498,50 498,50 498,51 498,51 498,51 498,51 499,51 499,51 499,51 499,51 499,51 499,51 499,51 499,51 499,51 499,51 499,51 499,51 499,51 499,51 499,51 499,51 499,51 499,51 499,51 499,51 499,51 499,52 500,52 500,52 500,52 500,52 500,52 500,52 500,52 500,52 500,52 500,52 499,52 499,53 499,53 499,53 499,53 499,53 499,53 499,53 498,54 498,54 498,54 498,54 498,54 498,54 498,54 498,54 498,55 498,55 499,55 499,55 499,55 499,56 499,56 498,56 498,56 498,56 498,56 498,56 498,56 497,56 497,56 497,56 497,56 497,56 497,56 497,56 497,56 497,56 497,57 497,57 497,57 497,57 497,57 496,57 496,57 496,57 496,57 496,57 496,57 496,57 496,57 496,57 496,57 496,57 496,57 496,57 495,57 495,57 495,57 495,57 495,57 495,57 495,57 495,57 495,57 495,57 495,57 495,57 494,57 494,57 494,57 494,57 494,58 494,58 494,58 494,58 494,58 494,58 494,58 494,58 494,58 494,58 494,58 494,58 493,58 493,58 493,58 493,58 493,58 493,58 493,58 493,58 493,58 493,58 493,59 493,59 493,59 493,59 493,59 493,59 493,59 493,59 492,59 492,59 492,59 492,59 492,59 492,59 492,59 492,59 492,59 492,59 492,59 492,59 492,59 492,59 492,59 492,59 492,59 492,59 492,59 492,59 491,59 491,59 491,59 491,59 491,59 491,59 491,59 491,59 491,59 491,59 491,59 491,59 491,59 491,59 491,59 490,60 490,60 490,60 490,60 490,60 490,60 490,60 490,60 490,60 490,60 490,60 490,60 490,60 490,60 490,60 490,60 490,60 490,60 490,60 490,60 490,60 489,60 489,60 489,60 489,60 489,60 489,60 489,60 489,60 489,60 489,60 489,60 489,60 489,61 489,61 489,61 489,61 489,61 489,61 489,61 489,61 489,61 489,61 489,61 489,61 489,61 489,61 489,61 489,61 488,61 488,61 488,61 488,61 488,61 488,61 488,61 488,61 488,61 488,61 488,61 488,61 488,61 488,61 488,61 488,61 488,61 488,61 488,61 487,61 487,61 487,61 487,61 487,61 487,61 487,61 487,61 487,62 487,62 487,62 487,62 486,62 486,62 486,62 486,62 486,62 486,62 486,62 486,62 486,62 486,62 486,62 486,62 485,62 485,62 485,62 485,62 485,62 485,62 485,62 485,62 485,62 485,63 485,63 485,63 485,63 484,63 484,63 484,63 484,63 484,63 484,64 484,64 484,64 484,64 484,64 484,64 483,64 483,64 483,64 483,64 483,64 483,64 483,64 483,64 483,64 483,64 483,64 483,64 482,64 482,64 482,64 481,64 481,64 481,64 481,64 480,64 480,64 480,64 480,64 480,64 480,65 480,65 480,65 480,65 480,65 480,65 480,65 480,65 480,65 480,65 480,65 480,65 480,65 480,65 479,65 479,65 479,65 479,65 479,65 479,65 479,65 479,65 479,65 479,65 479,66 479,66 479,66 479,66 479,66 479,66 479,66 479,66 478,66 478,66 478,66 478,66 478,66 478,66 478,66 478,66 478,66 478,66 478,66 478,66 478,66 477,66 477,66 477,66 477,66 477,66 477,66 477,66 477,66 477,67 477,67 477,67 477,67 477,67 477,67 477,67 476,67 476,67 476,67 476,67 476,67 476,67 476,67 476,67 476,67 476,67 476,67 476,67 476,67 475,67 475,67 475,67 475,67 475,67 475,67 475,67 475,68 475,68 474,68 474,68 473,68 473,68 473,68 473,68 473,68 473,68 473,68 473,68 473,68 473,68 473,68 473,68 473,68 473,68 472,68 472,69 472,69 472,69 472,69 472,69 472,69 472,69 471,69 471,69 471,69 471,69 471,69 471,69 471,69 471,70 471,70 471,70 471,70 471,70 470,70 470,70 470,70 470,70 470,70 470,70 470,70 470,70 470,70 469,70 469,70 469,70 469,70 469,70 469,70 469,70 469,70 469,70 468,70 468,70 468,70 468,70 468,69 467,69 467,68 467,68 467,68 466,68 466,68 466,68 466,68 465,69 465,69 465,69 464,69 464,69 464,69 464,69 464,69 463,69 463,69 463,69 463,69 463,69 462,69 462,69 462,69 462,69 461,69 461,69 461,69 461,69 461,69 461,69 460,69 460,69 460,69 460,69 460,69 459,69 459,69 459,69 459,69 459,69 458,69 458,69 458,69 458,69 458,69 458,69 457,69 457,69 457,69 457,69 457,69 457,69 457,69 457,69 457,69 456,69 456,69 456,69 456,69 456,69 456,69 456,69 456,69 456,69 456,70 456,70 455,70 455,70 455,70 454,70 454,70 454,70 454,70 454,70 454,70 454,70 454,70 454,70 454,70 454,70 454,70 454,70 453,70 453,70 453,70 453,70 453,70 453,70 453,70 453,70 453,70 452,70 452,70 452,70 452,70 452,70 452,70 452,70 451,70 451,70 451,70 451,70 451,70 451,70 451,70 451,70 451,70 451,70 451,70 451,70 451,70 451,70 451,70 451,70 451,70 451,70 451,70 451,70 451,70 451,70 451,70 451,70 450,70 450,70 450,70 450,70 450,70 449,70 449,70 449,70 449,70 449,70 449,70 449,70 449,70 449,70 449,70 449,70 449,70 449,70 449,70 449,70 448,70 448,70 448,69 448,69 448,69 448,69 448,69 448,69 448,69 448,69 448,69 448,69 448,69 447,69 447,69 447,69 447,69 447,69 447,69 447,69 447,69 447,69 447,69 447,69 446,70 446,70 446,70 446,70 446,70 446,70 446,70 446,70 446,70 446,69 446,69 446,69 446,69 446,69 446,69 446,69 446,69 446,69 446,69 446,69 446,69 446,69 446,69 446,69 446,69 446,69 446,69 445,69 445,69 445,69 445,69 445,68 445,68 445,68 445,68 445,68 445,68 444,68 444,68 444,68 443,68 443,68 443,68 443,68 443,68 442,68 442,68 442,68 442,68 442,68 442,68 442,68 441,68 441,68 441,68 441,68 441,68 441,68 440,68 440,68 440,68 439,69 439,69 439,69 439,69 438,69 438,69 437,69 437,69 437,70 436,70 436,70 435,70 435,70 435,70 434,71 434,71 434,71 433,71 433,71 433,71 432,71 432,71 432,71 432,71 432,71 431,71 431,71 431,71 431,71 431,71 431,71 430,71 430,71 430,71 430,71 430,70 429,70 429,70 429,70 429,70 429,70 429,70 428,70 428,70 428,70 428,69 427,69 426,69 426,69 426,69 426,69 426,70 426,70 425,70 425,70 425,70 425,70 425,70 425,70 425,71 425,71 425,71 425,71 425,71 425,71 424,71 424,71 424,70 424,71 423,71 423,71 422,71 422,71 422,71 421,71 421,71 421,72 419,72 419,73 418,73 418,73 418,73 417,73 416,73 415,73 415,73 415,73 413,72 413,72 413,72 413,72 414,71 414,70 414,70 414,70 414,70 414,70 414,70 413,70 413,70 413,70 413,70 413,70 413,70 413,70 413,70 413,70 413,70 413,70 413,69 413,69 413,69 413,69 413,69 413,69 413,69 413,69 412,69 412,69 412,69 412,69 412,69 412,69 412,69 412,68 411,68 411,68 411,68 411,68 411,68 412,68 411,68 411,68 411,67 411,67 411,66 411,66 411,66 411,65 410,65 410,65 410,65 410,65 410,65 410,65 411,64 411,64 411,64 411,64 411,63 411,63 411,63 410,63 410,63 410,63 409,63 409,63 409,63 409,63 409,63 409,63 408,63 408,63 408,62 408,62 408,62 407,62 407,62 407,62 407,63 407,63 406,63 406,62 406,63 405,63 405,62 405,62 405,63 405,63 404,63 404,62 404,63 404,63 403,63 403,63 403,63 402,63 402,62 402,62 402,62 402,62 402,62 402,62 401,62 401,62 401,62 401,62 401,62 401,62 401,61 401,61 401,61 401,61 401,61 401,61 401,61 400,60 400,59 400,59 400,58 400,58 400,58 400,58 399,57 399,57 399,56 399,56 398,56 398,56 398,56 398,55 397,55 397,55 399,55 399,54 400,54 400,54 400,54 400,54 400,54 400,53 400,53 400,53 399,52 399,52 398,52 398,52 398,52 398,52 398,52 397,52 397,51 397,51 397,51 397,51 397,51 396,51 396,51 396,51 396,51 396,51 396,51 396,51 396,51 396,51 395,50 395,50 395,50 395,50 395,50 396,50 396,49 397,49 397,49 397,49 397,48 396,48 396,48 396,48 394,48 394,48 394,48 393,48 393,48 393,48 393,47 393,47 386,50 383,53 381,54 381,54 379,55 378,55 364,60 366,61 366,62 365,63 364,64 364,64 362,65 357,69 355,70 352,70 352,71 354,71 355,71 357,71 359,71 359,71 360,71 363,71 364,70 365,70 365,70 367,70 368,69 370,68 372,68 372,69 372,69 376,69 376,70 375,70 375,70 377,72 376,73 377,74 375,74 375,74 374,75 374,75 374,75 374,75 374,75 374,75 373,75 373,75 373,75 373,75 373,75 373,75 373,76 373,76 373,76 372,76 372,76 372,77 373,77 373,79 373,80 370,82 370,82 369,82 369,83 369,83 369,83 370,84 370,84 369,85 369,85 368,86 368,86 368,86 367,86 367,87 366,87 365,87 364,88 364,88 363,88 363,88 362,88 362,89 360,91 359,92 358,92 356,94 355,94 355,94 355,94 355,94 355,95 355,95 355,96 354,96 354,97 354,97 354,97 354,97 353,98 353,98 353,98 352,99 352,100 352,100 352,100 352,100 352,100 352,100 352,100 351,102 346,103 343,104 341,104 341,105 337,105 336,105 334,105 333,105 332,104 330,104 329,104 326,104 322,105 322,105 321,105 319,105 319,105 317,105 314,105 314,105 303,109 298,110 295,111 295,111 295,113 294,117 294,122 293,123 293,123 292,126 291,129 290,132 290,132 290,134 290,136 293,136 295,136 296,136 297,136 298,137 299,137 300,138 300,138 301,138 301,145 301,145 302,145 302,145 302,146 301,146 302,147 300,147 296,147 296,148 297,148 297,148 298,148 298,149 299,149 299,150 300,151 300,151 300,152 300,152 300,152 300,152 300,153 300,153 299,154 299,154 298,155 298,155 298,156 297,155 296,152 297,152 298,152 299,152 299,151 297,151 296,151 293,151 291,151 289,150 287,150 287,151 286,151 283,149 283,148 284,148 286,147 285,147 280,148 281,149 281,149 283,151 283,151 283,151 283,151 283,151 283,151 283,151 284,152 284,152 284,152 284,152 283,152 283,152 283,152 283,152 283,152 283,152 282,152 282,152 282,152 282,152 282,153 282,153 282,153 280,154 277,156 274,158 275,158 274,159 275,160 276,160 277,161 280,161 278,166 277,168 277,168 277,168 277,168 276,168 275,168 275,174 275,174 275,174 276,174 276,175 276,175 276,175 276,175 276,175 277,175 277,176 276,176 277,176 277,178 279,181 279,181 275,182 270,182 267,181 268,181 265,182 264,182 264,182 263,181 262,181 261,181 261,179 261,178 261,178 260,177 259,176 259,176 257,175 256,174 256,172 256,172 256,172 256,172 256,170 256,169 257,169 256,169 255,169 255,168 255,167 256,166 255,165 254,165 254,164 255,164 254,163 254,163 253,163 252,164 252,164 251,164 250,164 250,164 250,164 249,164 249,164 249,164 249,164 248,164 248,165 248,165 248,165 248,165 247,165 247,166 246,167 245,167 245,166 245,166 245,165 244,165 242,164 241,164 241,164 240,163 240,163 240,163 239,163 239,164 237,164 237,164 236,164 236,164 235,164 235,164 234,164 234,164 233,164 233,164 233,164 232,164 232,164 231,164 231,164 231,164 230,164 229,164 228,164 228,164 226,164 225,163 224,163 223,163 220,163 219,164 218,164 217,164 217,164 216,164 216,164 215,164 215,164 214,164 214,164 213,164 212,168 212,168 211,169 211,169 211,169 210,168 207,167 204,166 203,166 201,170 200,170 199,171 203,172 203,174 204,175 208,175 208,175 209,175 209,176 209,177 209,177 209,178 208,179 208,180 209,181 209,182 209,183 209,184 209,185 209,185 209,185 210,185 210,185 211,185 211,185 213,186 213,186 214,186 217,188 221,189 222,190 223,190 223,190 224,191 225,191 226,192 227,192 231,193 231,194 232,194 231,197 231,198 232,198 236,199 236,199 233,202 230,201 229,200 226,200 225,200 226,201 226,203 226,204 226,205 226,205 227,206 227,207 228,207 228,208 229,209 230,210 231,210 227,213 225,215 223,219 222,219 222,219 221,220 220,220 218,220 217,221 216,221 215,221 213,221 212,222 211,222 210,222 209,222 208,222 208,222 208,222 207,222 206,223 206,223 204,224 203,224 202,224 201,225 200,225 199,225 186,220 186,220 185,220 186,220 186,220 185,220 185,219 176,214 177,213 176,212 175,212 174,212 173,212 168,212 167,211 166,211 161,211 155,211 155,208 162,206 165,202 158,199 157,202 149,201 149,205 149,205 150,208 150,208 145,209 145,209 146,208 144,207 144,206 143,206 141,209 139,208 136,207 133,207 132,206 128,205 126,211 126,211 125,211 124,210 123,209 116,208 115,210 104,208 104,210 102,210 102,208 100,207 100,207 97,207 94,206 93,206 93,206 91,206 91,207 90,207 89,207 87,208 86,208 86,208 86,208 84,209 83,210 81,211 81,211 80,212 79,213 78,215 71,225 69,228 71,228 75,228 76,228 77,229 78,229 79,230 79,230 79,230 79,230 79,230 80,230 80,230 80,230 81,230 83,230 85,231 85,231 86,231 86,231 87,231 88,231 88,231 88,231 89,231 89,231 89,231 90,231 90,231 90,231 91,231 91,231 91,231 91,231 92,231 92,232 93,232 93,232 93,232 94,232 94,232 94,232 94,232 95,232 95,232 95,232 93,235 92,235 92,236 93,236 93,237 93,236 93,236 92,236 92,236 92,237 91,240 91,240 91,240 89,242 88,244 87,244 86,245 83,246 83,246 80,248 79,248 78,248 78,249 77,249 72,250 70,251 70,251 70,251 70,251 70,252 70,252 70,252 70,253 69,253 69,254 68,254 68,254 68,255 68,255 68,256 68,256 68,256 68,256 68,256 69,257 69,257 69,257 69,257 69,257 69,257 69,258 69,258 68,259 68,259 68,259 68,260 68,260 65,263 61,265 61,266 61,267 60,268 60,269 60,269 59,270 59,270 59,270 59,271 58,271 58,271 57,271 56,271 56,270 55,270 55,270 55,269 55,269 55,268 55,268 55,264 51,264 49,263 49,262 48,262 48,262 47,262 47,262 47,262 48,263 48,264 47,264 46,263 45,262 45,262 44,262 45,261 46,261 48,261 48,261 49,260 48,259 47,257 46,255 45,255 45,254 46,252 47,249 50,246 51,246 51,245 51,245 49,244 49,244 49,244 48,244 48,244 47,244 45,244 44,243 44,243 44,243 44,244 44,244 44,244 43,244 42,244 41,243 41,243 41,243 40,243 40,243 40,243 40,242 39,242 38,242 38,242 37,242 36,242 35,243 35,243 34,243 33,243 33,243 33,243 32,243 27,243 20,243 19,243 18,243 18,243 14,245 12,245 11,245 17,238 15,237 14,237 12,236 12,236 12,235 12,235 11,235 11,234 10,234 9,234 8,233 6,233 6,233 4,233 0,232 2,229 3,227 3,227 3,226 3,225 3,222" id="9110" class="canton" fill="steelblue" stroke-width="1" stroke="white" geotype="canton" geoname="Gif-sur-Yvette" code_insee="9110" code_departement="91" nom_departement="Essonne" code_region="11" nom_region="Île-de-France"/></svg>