<?xml version="1.0" encoding="utf-8"?>
<svg version="1.1" id="svgmap" xmlns="http://www.w3.org/2000/svg" xmlns:xlink="http://www.w3.org/1999/xlink" x="0px" y="0px" width="100%" height="100%" viewBox="0 0 500 164">
<polygon points="0,130 3,127 10,120 14,116 18,112 19,112 21,112 22,113 25,114 27,114 34,114 37,113 38,113 43,111 43,111 44,111 46,110 49,109 51,107 59,103 73,96 73,96 77,94 84,91 87,90 90,89 91,89 94,89 96,89 100,89 106,88 115,87 121,86 119,82 118,80 118,77 118,77 123,77 124,77 124,75 127,75 129,75 132,75 133,64 124,64 117,64 117,64 122,47 122,46 124,41 131,41 169,47 193,54 204,54 206,54 211,54 235,55 238,58 237,59 239,62 243,60 256,58 256,57 251,49 251,49 254,47 255,46 256,45 256,45 257,45 257,45 258,44 258,44 268,42 269,42 269,41 263,36 261,32 259,25 259,13 259,10 258,8 262,8 270,9 279,9 282,12 294,10 310,8 312,15 315,22 326,21 327,23 329,28 318,30 324,38 374,22 386,18 398,15 420,8 423,7 427,6 443,1 445,0 445,0 446,2 447,2 448,3 448,4 449,5 455,11 461,12 465,13 466,13 468,13 480,14 490,16 493,16 500,17 495,23 489,28 486,31 485,32 477,37 469,41 464,44 462,46 442,60 438,63 435,65 430,67 427,69 422,71 393,79 390,80 385,81 378,83 376,83 374,84 366,87 363,88 361,89 359,89 355,90 354,90 349,90 347,90 344,90 341,90 339,90 331,87 328,86 325,85 322,83 318,86 316,85 316,85 315,87 313,87 313,88 313,88 312,88 310,90 309,89 309,89 305,90 305,89 304,88 303,87 300,85 299,84 297,83 297,83 297,82 296,82 290,78 287,79 282,76 279,77 275,79 278,81 276,82 278,83 272,87 268,89 268,89 267,91 263,93 261,94 258,96 258,96 257,97 257,97 257,98 254,98 254,100 252,100 252,102 249,102 249,104 247,104 247,104 243,106 242,106 241,107 240,107 238,109 237,108 235,110 234,109 232,111 231,111 229,113 233,115 235,115 243,120 246,121 247,125 250,128 248,129 247,130 244,132 241,133 236,136 231,138 222,142 215,144 207,146 196,149 192,150 187,152 180,155 177,156 174,157 165,162 160,164 159,162 151,156 109,129 108,128 111,125 122,120 125,117 123,116 121,116 119,112 118,112 117,111 129,105 125,101 125,101 115,94 114,94 113,95 111,98 111,98 110,98 110,99 107,100 106,100 105,101 104,101 104,102 102,103 102,103 101,104 101,104 100,105 99,105 98,106 96,108 95,108 94,109 94,109 93,109 92,109 91,110 90,110 87,112 84,114 83,114 80,116 77,117 73,117 69,119 65,119 66,119 67,120 66,122 67,124 54,125 54,125 44,125 36,126 35,126 27,126 26,126 25,127 23,128 22,129 21,129 20,130 18,130 16,131 15,131 9,130 0,130" id="9205" class="canton" fill="steelblue" stroke-width="1" stroke="white" geotype="canton" geoname="Boulogne-Billancourt-2" code_insee="9205" code_departement="92" nom_departement="Hauts-de-Seine" code_region="11" nom_region="Île-de-France"/></svg>