<?xml version="1.0" encoding="utf-8"?>
<svg version="1.1" id="svgmap" xmlns="http://www.w3.org/2000/svg" xmlns:xlink="http://www.w3.org/1999/xlink" x="0px" y="0px" width="100%" height="100%" viewBox="0 0 500 410">
<polygon points="75,226 76,226 80,230 87,230 88,231 107,232 107,226 107,224 124,225 146,225 163,226 152,203 149,195 143,182 143,181 142,181 142,181 142,180 140,178 139,176 130,164 124,153 123,151 119,143 116,136 112,129 109,122 108,122 123,121 139,121 141,109 180,110 179,104 180,93 180,92 181,89 182,87 182,73 182,72 182,71 182,69 182,68 182,66 182,64 183,61 185,42 185,40 203,0 264,8 264,8 268,8 269,9 270,9 271,9 272,9 274,9 278,10 279,10 280,10 280,10 283,10 284,11 284,13 284,13 284,14 284,16 285,17 285,17 285,18 285,18 285,18 286,19 287,19 288,21 289,22 290,22 290,22 290,22 292,24 292,24 293,25 294,25 295,27 295,27 296,28 296,28 297,28 297,29 298,29 299,30 299,30 300,31 301,32 301,32 302,33 302,33 303,34 304,34 304,35 305,35 305,36 306,36 307,37 308,38 308,38 309,39 310,39 310,40 310,40 310,40 311,40 311,41 312,41 313,42 313,42 314,43 314,43 315,44 316,45 317,45 318,46 321,48 322,49 323,49 324,50 325,51 325,51 325,51 326,52 327,53 329,54 329,54 329,55 331,56 332,56 333,57 334,58 334,58 334,58 335,59 336,59 337,60 336,60 337,60 340,63 340,63 343,65 343,65 345,64 345,64 347,65 351,68 351,68 355,69 356,70 357,71 360,73 361,74 364,77 363,77 366,79 369,81 371,82 372,84 374,85 376,86 374,87 377,89 382,93 392,99 394,100 395,101 395,101 398,103 404,106 412,111 416,114 418,115 429,120 444,127 450,130 451,130 454,129 456,129 461,131 465,132 466,133 469,134 472,136 474,137 477,138 482,141 488,144 492,146 494,147 493,148 493,152 491,155 489,160 489,160 491,162 492,163 494,163 498,163 499,164 498,165 497,167 498,168 498,173 499,174 500,174 499,175 497,176 495,178 494,179 491,181 491,181 490,181 489,181 488,181 487,181 487,181 485,182 478,183 476,183 474,183 470,184 466,184 460,184 458,184 457,184 456,185 455,186 453,186 456,186 459,185 459,186 461,187 464,189 462,190 461,191 460,192 458,193 457,193 456,194 455,195 452,197 448,200 446,201 446,201 446,201 445,201 444,200 443,201 442,202 441,202 441,203 440,203 439,202 437,203 434,205 432,205 432,205 431,206 430,206 429,207 429,207 427,208 427,208 426,209 425,209 424,210 423,210 423,211 423,211 424,212 422,213 421,213 421,213 421,213 421,213 421,214 420,214 420,214 420,215 420,216 419,216 417,214 409,220 408,223 405,226 405,227 405,227 403,227 403,227 403,227 404,228 403,229 400,232 400,233 400,234 399,235 396,236 397,237 397,238 393,239 393,240 392,241 390,243 389,244 388,245 386,247 385,248 384,248 383,248 382,248 382,249 381,250 380,249 379,250 376,251 375,252 373,253 371,254 369,256 369,256 368,256 368,256 367,257 366,258 365,258 361,259 358,260 357,261 348,264 346,265 345,265 341,266 338,268 336,268 332,270 330,270 318,272 313,272 311,273 309,273 311,283 296,287 290,290 282,322 273,360 276,362 277,362 278,363 277,365 277,365 265,380 259,377 255,376 250,374 247,374 240,373 220,370 220,371 219,372 212,384 207,391 203,398 202,399 197,408 194,407 193,407 178,403 168,400 153,395 150,394 141,391 138,390 128,386 125,385 123,385 111,386 110,386 110,386 106,381 107,381 108,380 110,380 112,379 115,378 116,378 121,370 119,369 118,368 123,361 123,360 122,359 121,359 121,358 121,358 121,357 120,357 117,359 114,362 109,365 104,369 98,373 97,373 95,375 86,381 82,383 79,385 77,387 75,389 74,389 75,390 76,392 74,393 66,394 57,396 54,397 52,398 50,399 48,399 45,401 42,402 39,404 37,406 35,408 34,409 29,409 24,410 14,408 5,406 0,404 0,403 2,401 5,399 7,397 9,396 15,392 16,391 18,390 20,388 21,387 24,386 26,385 26,381 25,379 23,374 18,364 17,361 17,360 17,358 19,352 20,351 20,346 21,339 22,330 25,307 27,288 29,271 31,257 32,256 33,256 46,254 53,253 59,251 63,250 64,250 68,249 64,248 63,247 53,241 55,240 67,232 74,227 75,226 75,226" id="9317" class="canton" fill="steelblue" stroke-width="1" stroke="white" geotype="canton" geoname="Saint-Denis-2" code_insee="9317" code_departement="93" nom_departement="Seine-Saint-Denis" code_region="11" nom_region="Île-de-France"/></svg>