<?xml version="1.0" encoding="utf-8"?>
<svg version="1.1" id="svgmap" xmlns="http://www.w3.org/2000/svg" xmlns:xlink="http://www.w3.org/1999/xlink" x="0px" y="0px" width="100%" height="100%" viewBox="0 0 500 220">
<polygon points="0,8 14,5 38,2 46,2 58,0 66,0 71,0 88,3 97,4 104,4 113,4 119,3 123,3 132,4 139,5 140,5 141,5 154,4 168,6 174,6 176,6 179,6 192,8 202,10 208,11 232,15 235,15 243,17 251,18 258,21 255,23 255,24 261,26 269,29 272,29 275,30 278,30 279,31 280,31 280,31 285,30 295,29 299,28 300,28 309,26 312,25 319,24 319,24 321,24 336,18 336,18 337,18 338,18 338,18 340,20 341,20 344,21 344,22 345,22 346,22 357,15 358,15 358,15 359,15 360,15 363,18 365,20 366,20 368,21 370,22 371,23 375,24 378,26 384,28 386,29 388,30 395,35 388,36 387,51 389,51 389,54 400,54 401,58 402,59 403,61 403,64 402,69 402,69 400,73 395,81 401,83 400,84 406,84 407,84 410,84 410,84 410,84 412,83 414,83 416,83 417,83 423,83 425,83 426,83 426,83 426,83 426,84 426,84 430,83 432,83 433,84 434,85 436,86 438,87 439,87 440,87 449,90 450,91 451,92 453,93 455,95 455,95 456,96 458,98 459,99 460,100 461,102 462,103 462,104 462,105 463,106 472,106 474,116 477,116 480,115 483,114 491,113 491,113 488,133 500,134 499,135 498,138 490,151 488,155 468,152 462,151 451,151 441,153 441,154 439,192 461,205 446,205 445,205 437,205 437,204 427,204 426,211 413,212 412,208 412,207 411,205 410,203 407,200 404,198 402,196 396,198 398,200 398,200 400,203 402,205 404,208 404,209 404,212 404,212 404,213 405,215 399,215 395,216 395,216 394,215 388,217 380,219 375,220 372,216 369,213 363,206 361,202 359,198 357,197 350,192 345,188 338,185 331,183 324,182 314,179 309,178 305,178 298,177 293,177 290,176 287,176 284,176 282,176 280,175 276,175 274,174 271,173 264,171 262,171 260,171 257,171 254,171 247,170 238,170 227,169 217,169 210,169 198,169 185,171 177,170 169,169 159,168 150,166 137,164 127,162 123,161 116,160 109,158 96,155 88,153 85,153 81,153 74,152 69,151 65,151 55,149 51,148 47,148 41,146 37,145 36,145 36,145 38,141 39,141 44,134 44,134 45,133 49,127 50,126 50,125 51,124 51,123 52,114 52,112 52,111 53,108 53,105 54,101 54,100 54,100 54,98 54,97 55,94 55,94 55,93 55,93 49,93 48,92 25,65 27,53 22,53 19,35 13,36 13,33 5,17 2,11 1,10 0,8" id="9403" class="canton" fill="steelblue" stroke-width="1" stroke="white" geotype="canton" geoname="Champigny-sur-Marne-1" code_insee="9403" code_departement="94" nom_departement="Val-de-Marne" code_region="11" nom_region="Île-de-France"/></svg>