<?xml version="1.0" encoding="utf-8"?>
<svg version="1.1" id="svgmap" xmlns="http://www.w3.org/2000/svg" xmlns:xlink="http://www.w3.org/1999/xlink" x="0px" y="0px" width="100%" height="100%" viewBox="0 0 500 223">
<polygon points="0,61 4,56 11,48 12,47 22,34 33,21 34,19 36,20 37,20 38,20 39,20 60,23 75,23 78,24 89,24 98,25 114,25 123,26 134,27 143,27 161,28 179,32 187,34 190,35 197,38 196,31 222,33 224,34 228,34 232,32 234,31 239,29 242,28 244,26 247,25 248,24 249,24 298,0 343,33 352,33 398,32 439,32 450,28 457,38 454,39 454,42 455,43 453,43 460,55 457,55 475,85 456,90 451,94 467,120 496,123 500,128 487,134 476,137 464,140 439,146 436,146 436,145 435,145 431,146 422,149 417,145 413,143 413,142 412,142 381,155 371,160 371,160 375,168 379,185 391,198 353,193 349,198 337,196 319,206 306,196 304,196 297,199 297,200 287,204 279,207 278,208 281,212 280,213 279,213 270,216 259,220 256,221 248,223 239,217 236,216 237,215 218,210 221,207 191,196 188,196 192,183 196,176 203,168 172,152 173,151 175,147 181,135 183,131 165,126 166,123 168,119 170,113 164,112 150,108 148,107 127,99 131,94 135,89 139,83 143,78 118,68 119,67 106,63 103,67 97,65 97,64 97,64 77,65 76,64 71,63 68,70 67,71 67,71 65,75 64,75 47,71 48,67 48,67 39,66 39,66 38,68 0,61" id="9412" class="canton" fill="steelblue" stroke-width="1" stroke="white" geotype="canton" geoname="Kremlin-Bicêtre" code_insee="9412" code_departement="94" nom_departement="Val-de-Marne" code_region="11" nom_region="Île-de-France"/></svg>