<?xml version="1.0" encoding="utf-8"?>
<svg version="1.1" id="svgmap" xmlns="http://www.w3.org/2000/svg" xmlns:xlink="http://www.w3.org/1999/xlink" x="0px" y="0px" width="100%" height="100%" viewBox="0 0 500 371">
<polygon points="96,173 101,168 102,163 108,155 112,148 117,140 121,135 122,133 128,124 133,126 140,118 145,120 153,105 136,103 136,102 137,101 139,95 138,95 138,95 146,78 146,78 151,84 154,77 162,77 163,70 167,60 168,57 176,57 176,56 197,57 219,57 219,58 226,60 225,61 231,62 231,63 230,63 228,66 234,67 248,71 249,70 255,72 257,66 262,58 275,61 277,57 284,42 286,34 293,23 297,0 303,3 307,5 310,7 314,9 316,10 320,13 318,15 313,27 308,40 309,40 307,48 334,52 332,60 337,61 335,64 330,76 333,76 347,79 349,79 357,86 375,86 382,90 378,92 393,104 393,105 419,101 421,106 431,103 431,103 437,101 445,100 480,91 494,88 499,87 500,99 497,100 496,101 477,107 457,115 449,117 438,121 430,124 426,126 423,127 415,130 408,133 403,135 402,136 399,137 396,138 393,140 392,141 391,142 389,145 388,146 386,148 384,150 383,152 383,153 383,153 382,153 378,151 368,146 363,152 355,165 353,168 353,169 351,171 351,170 350,170 310,164 291,161 296,150 260,143 257,142 251,145 249,151 246,151 244,150 243,152 233,150 232,150 223,162 219,167 214,174 221,176 221,174 232,178 228,185 216,208 215,212 214,214 213,215 212,217 211,218 211,218 210,220 208,222 207,223 207,224 204,225 208,226 211,228 213,225 219,227 220,228 221,228 252,239 243,246 241,248 239,249 236,251 233,252 232,253 230,254 227,255 231,258 241,264 247,266 249,268 268,274 271,271 273,272 274,272 282,275 291,278 282,288 301,297 292,305 291,306 290,307 290,308 289,308 287,311 278,320 278,321 274,324 268,331 264,334 259,343 257,346 258,347 258,347 258,347 258,347 258,348 257,348 257,348 257,347 252,355 244,365 242,365 233,371 229,369 228,369 217,363 214,364 208,361 209,360 200,355 197,356 192,360 186,365 186,365 182,362 174,354 171,350 168,348 165,346 160,343 158,342 157,342 155,340 150,338 149,338 149,338 142,336 130,332 128,331 128,331 128,332 131,336 133,338 135,343 136,344 138,346 131,352 132,353 129,355 130,355 128,358 125,360 124,360 123,362 119,366 103,361 97,359 93,356 91,354 87,353 84,352 82,352 79,350 78,349 72,349 71,349 71,350 47,339 31,339 12,331 23,326 25,325 19,318 24,313 0,304 14,290 14,290 16,288 18,286 20,284 24,280 24,280 25,279 28,276 29,275 30,274 33,271 35,269 40,264 39,257 38,251 42,246 48,248 53,232 53,230 56,225 56,224 57,219 55,218 55,217 55,216 56,213 57,213 60,207 62,208 65,205 66,203 69,201 73,194 77,192 78,191 82,188 85,184 88,182 90,180 93,176 96,173" id="9410" class="canton" fill="steelblue" stroke-width="1" stroke="white" geotype="canton" geoname="Haÿ-les-Roses" code_insee="9410" code_departement="94" nom_departement="Val-de-Marne" code_region="11" nom_region="Île-de-France"/></svg>