<?xml version="1.0" encoding="utf-8"?>
<svg version="1.1" id="svgmap" xmlns="http://www.w3.org/2000/svg" xmlns:xlink="http://www.w3.org/1999/xlink" x="0px" y="0px" width="100%" height="100%" viewBox="0 0 500 274">
<polygon points="14,46 60,26 97,72 119,61 119,60 126,55 131,53 133,52 134,51 140,49 146,48 155,45 161,43 171,79 174,83 185,83 191,82 194,84 197,86 201,85 206,85 206,86 208,87 211,88 214,88 223,93 234,82 237,82 240,80 242,80 243,80 247,84 252,88 254,88 254,86 263,80 270,73 277,64 281,61 291,70 296,60 302,49 303,46 304,43 304,43 304,43 312,40 314,46 330,46 331,43 351,41 358,43 361,40 350,4 398,0 398,11 399,20 403,29 408,37 419,47 430,57 456,80 473,94 500,114 493,118 493,118 493,119 492,118 489,120 487,121 478,125 462,126 437,128 415,130 400,131 385,132 376,133 364,135 350,138 349,137 358,135 358,134 353,124 309,133 308,130 300,132 288,127 266,154 277,182 259,185 277,215 253,222 225,228 223,229 211,215 203,205 189,210 181,201 180,201 177,203 173,206 168,200 154,206 155,207 154,210 152,215 155,221 155,224 156,231 153,236 149,245 159,257 155,262 160,270 148,274 131,257 108,233 103,227 98,220 87,224 77,230 72,223 68,218 46,188 49,188 38,176 43,174 42,173 32,163 27,157 25,154 24,151 23,148 20,144 18,141 14,135 11,130 5,122 22,117 5,100 0,95 11,89 1,79 33,61 17,49 14,46" id="9424" class="canton" fill="steelblue" stroke-width="1" stroke="white" geotype="canton" geoname="Vitry-sur-Seine-1" code_insee="9424" code_departement="94" nom_departement="Val-de-Marne" code_region="11" nom_region="Île-de-France"/></svg>