<?xml version="1.0" encoding="utf-8"?>
<svg version="1.1" id="svgmap" xmlns="http://www.w3.org/2000/svg" xmlns:xlink="http://www.w3.org/1999/xlink" x="0px" y="0px" width="100%" height="100%" viewBox="0 0 500 246">
<polygon points="0,161 31,151 32,150 19,135 39,125 65,106 86,96 90,102 99,98 109,94 113,100 118,105 138,127 153,141 163,138 160,131 163,127 154,116 158,108 160,103 160,97 159,95 157,89 159,85 159,82 159,81 171,76 176,81 178,79 182,77 182,77 189,85 202,80 209,89 219,102 222,101 246,95 267,90 252,63 267,60 257,36 277,12 288,16 294,14 295,17 335,9 339,17 339,18 331,21 332,22 344,19 355,17 363,16 376,15 389,14 408,12 430,11 445,10 453,7 455,5 457,4 458,4 458,4 458,4 464,0 477,9 481,14 486,21 492,31 497,41 499,48 499,53 500,55 500,59 500,61 498,71 491,88 485,99 481,105 473,118 465,130 427,181 424,183 418,189 412,194 409,197 407,200 405,202 404,204 402,208 380,209 346,212 346,214 320,219 319,218 312,220 312,219 305,210 297,201 291,202 291,202 283,203 281,204 280,204 278,204 277,204 225,216 227,225 191,229 187,217 131,231 124,229 122,228 115,224 111,222 106,219 106,219 95,227 93,226 83,233 85,234 86,234 80,239 62,230 46,238 47,239 35,245 34,245 33,246 33,246 33,246 9,227 4,229 4,228 3,215 3,212 0,161" id="9425" class="canton" fill="steelblue" stroke-width="1" stroke="white" geotype="canton" geoname="Vitry-sur-Seine-2" code_insee="9425" code_departement="94" nom_departement="Val-de-Marne" code_region="11" nom_region="Île-de-France"/></svg>