<?xml version="1.0" encoding="utf-8"?>
<svg version="1.1" id="svgmap" xmlns="http://www.w3.org/2000/svg" xmlns:xlink="http://www.w3.org/1999/xlink" x="0px" y="0px" width="100%" height="100%" viewBox="0 0 500 241">
<polygon points="12,111 32,92 32,92 55,101 55,102 61,104 62,104 69,104 78,101 79,101 82,102 82,102 83,101 83,101 87,102 87,102 92,95 92,95 93,95 93,95 96,90 96,90 101,84 103,82 103,82 100,81 99,81 99,80 99,79 98,73 98,72 99,65 100,62 98,62 98,62 103,54 104,53 107,49 108,47 110,43 113,44 114,44 115,45 116,46 117,46 117,47 117,47 118,47 119,47 120,47 120,48 120,48 121,48 122,48 123,49 124,49 125,50 127,52 128,52 128,53 130,53 137,56 139,56 140,57 143,58 144,58 150,60 151,60 155,61 158,61 161,61 162,61 166,61 166,62 165,62 165,63 164,63 160,63 160,64 158,65 158,66 158,66 161,66 164,66 165,66 164,67 164,67 167,68 166,70 166,70 166,70 165,71 165,71 164,77 164,79 164,81 164,82 163,82 162,85 160,86 158,88 155,90 144,95 144,96 144,96 144,96 144,96 144,96 144,96 169,104 170,105 170,105 172,109 173,110 173,110 174,111 175,111 176,110 176,110 176,109 178,107 180,105 181,104 182,102 184,100 188,96 189,93 192,93 204,100 201,105 200,106 197,110 194,112 194,112 201,114 201,114 204,115 204,115 206,111 207,107 210,102 211,98 212,97 212,96 213,95 213,94 213,93 213,93 213,92 214,91 215,91 216,90 216,90 216,89 215,88 215,87 216,86 217,84 218,83 219,81 219,81 221,78 223,75 224,75 230,69 230,68 230,68 229,67 236,60 236,60 236,59 235,58 234,56 242,47 243,47 243,47 243,46 248,37 248,35 250,32 252,27 253,22 254,19 252,19 252,18 259,17 285,10 299,8 303,7 306,6 309,6 314,5 317,4 321,4 321,4 323,3 329,2 335,1 335,1 340,0 341,0 343,0 343,0 357,10 359,11 364,15 365,17 379,29 386,35 389,38 389,37 412,11 416,7 417,7 424,9 427,9 438,11 439,11 439,11 443,11 444,11 444,12 445,14 445,14 451,21 451,21 453,20 455,23 456,24 456,24 456,25 455,28 455,29 455,30 454,32 453,36 453,40 454,40 457,43 458,44 459,45 459,46 458,48 458,49 458,50 459,53 459,54 458,56 458,57 458,57 458,58 460,62 461,63 461,63 464,62 465,62 470,65 471,65 473,67 477,69 478,70 481,72 483,73 485,74 489,75 491,75 493,76 497,77 498,78 498,78 500,80 492,87 490,88 480,97 477,99 471,105 467,109 467,110 465,111 459,117 457,120 455,121 450,126 449,126 448,127 445,128 443,130 442,132 438,136 437,138 436,140 435,140 435,141 436,142 435,143 433,144 433,145 432,145 431,146 430,146 429,147 428,148 424,149 423,149 421,149 420,150 418,150 418,150 417,151 415,153 414,153 413,153 411,153 408,152 408,152 408,152 407,153 408,153 408,155 407,156 407,158 407,158 406,158 406,159 406,159 406,160 406,161 408,162 408,162 410,163 410,163 414,164 415,165 416,166 416,167 415,167 409,173 409,174 409,174 407,175 405,179 404,180 404,180 404,180 404,181 404,181 405,181 402,184 402,184 398,189 398,189 391,186 390,187 389,188 388,189 386,190 387,191 402,202 403,203 391,208 390,208 387,209 385,210 384,209 382,211 383,212 382,212 381,211 379,212 376,213 375,213 375,213 375,213 372,214 370,214 372,215 370,217 372,223 372,224 373,225 373,226 372,227 369,228 368,229 367,230 366,232 366,234 366,237 366,238 364,239 362,239 362,239 362,239 362,240 356,241 354,241 353,241 351,240 351,240 351,240 350,239 350,238 348,234 347,233 347,232 347,231 347,231 347,230 342,221 342,221 340,217 340,217 340,216 339,215 339,215 338,214 338,214 338,214 337,213 336,212 334,212 334,211 332,211 331,211 328,210 324,209 320,208 316,207 311,206 305,204 304,204 302,204 299,203 296,202 293,202 291,201 288,201 286,201 284,201 281,200 279,200 276,200 274,200 272,201 270,201 267,201 265,201 263,201 262,200 262,200 261,200 261,201 260,201 260,201 258,202 257,202 255,203 252,204 249,205 248,206 246,206 246,207 244,207 241,208 239,209 238,210 238,210 237,210 234,211 234,212 233,212 229,214 223,217 219,220 214,223 207,229 207,230 205,232 205,232 202,235 201,237 199,238 197,238 196,239 196,239 194,239 194,239 193,240 193,240 192,240 192,240 187,240 187,240 185,241 185,241 184,240 182,239 179,239 178,239 177,239 173,239 172,239 171,239 169,238 168,238 167,237 167,237 166,236 166,235 163,232 163,232 163,231 162,230 160,231 160,231 160,231 160,233 156,233 155,233 155,233 154,233 154,233 153,234 152,234 150,234 148,234 147,234 144,234 142,234 142,234 142,233 142,233 141,231 132,232 131,232 124,230 114,227 113,227 114,226 114,224 102,217 101,216 100,216 87,207 87,206 73,203 73,203 70,203 70,203 71,201 73,199 74,197 76,196 78,194 80,192 79,192 74,190 74,190 75,189 76,188 76,187 77,185 69,183 69,183 70,181 70,181 58,178 58,177 59,175 57,175 53,174 51,173 41,170 36,168 52,158 58,156 60,155 66,154 67,153 73,152 81,151 84,150 85,150 88,147 88,147 74,143 68,141 68,141 67,141 64,140 57,138 52,137 40,134 24,129 9,125 0,122 0,122 12,111" id="9504" class="canton" fill="steelblue" stroke-width="1" stroke="white" geotype="canton" geoname="Cergy-1" code_insee="9504" code_departement="95" nom_departement="Val-d'Oise" code_region="11" nom_region="Île-de-France"/></svg>