<?xml version="1.0" encoding="utf-8"?>
<svg version="1.1" id="svgmap" xmlns="http://www.w3.org/2000/svg" xmlns:xlink="http://www.w3.org/1999/xlink" x="0px" y="0px" width="100%" height="100%" viewBox="0 0 470 500">
<polygon points="13,310 13,309 13,308 12,305 13,304 14,303 14,303 14,302 14,301 14,300 14,299 13,298 13,298 13,298 14,298 15,298 15,298 15,298 14,295 15,295 15,295 17,295 17,294 16,292 15,290 16,289 17,286 19,284 20,283 20,282 20,281 20,280 19,280 19,279 19,279 25,278 29,277 33,275 38,273 45,271 46,271 55,271 60,271 61,271 61,271 63,271 64,271 64,271 67,271 67,271 68,270 68,268 69,264 69,262 70,260 71,258 71,256 71,255 73,255 85,255 86,255 86,254 97,254 101,253 102,253 103,253 103,253 106,253 116,252 116,251 117,251 117,250 117,250 117,249 117,249 117,248 117,248 118,247 118,247 118,247 119,246 119,245 119,245 120,245 120,245 121,245 122,244 122,244 122,244 123,244 123,243 123,243 124,242 124,241 124,241 124,240 125,239 125,239 125,239 126,238 126,238 127,238 127,238 127,238 128,237 128,236 128,236 128,236 128,235 128,235 127,235 127,235 127,235 127,234 127,234 127,234 127,233 127,233 127,233 128,233 128,232 127,232 127,232 127,232 126,232 126,231 126,231 127,231 127,230 126,229 126,229 126,228 127,228 127,227 126,226 126,226 126,226 127,226 128,226 128,225 127,225 127,225 128,225 128,225 129,224 129,224 129,224 129,222 128,222 128,221 128,221 129,221 129,222 129,222 130,222 130,221 130,221 130,221 130,220 129,220 130,219 130,218 130,218 131,218 131,218 131,219 131,219 131,219 131,219 131,219 132,219 132,218 132,217 133,217 133,216 133,216 133,215 133,215 134,215 135,215 135,215 136,214 137,214 137,213 138,212 138,212 139,212 139,211 140,212 140,212 140,211 140,211 140,210 140,210 141,210 141,210 141,210 142,210 141,211 141,211 141,211 142,212 142,211 143,211 143,211 143,210 142,209 142,209 142,207 142,207 143,207 143,207 143,207 143,208 143,208 144,208 144,208 144,208 145,207 145,207 144,206 144,206 144,206 144,206 144,206 145,206 146,206 146,206 147,205 147,205 147,204 148,204 148,204 149,204 149,204 149,204 150,204 150,203 150,203 150,203 149,202 149,202 149,201 149,201 149,201 150,202 150,202 151,201 151,201 152,200 152,200 152,199 152,198 153,197 153,197 154,196 154,196 154,197 154,197 155,196 157,195 158,194 159,194 159,193 159,192 159,192 160,192 160,192 161,192 161,192 161,191 161,191 161,191 161,190 160,190 161,189 161,189 161,189 162,189 162,189 162,189 163,189 163,189 164,188 164,188 164,188 165,188 165,188 165,189 165,190 165,190 165,191 166,191 166,191 167,191 167,191 168,191 168,190 169,190 169,189 169,189 168,189 168,189 167,189 167,188 167,188 167,188 168,188 169,187 169,187 169,186 169,186 169,186 168,185 168,185 169,183 169,183 169,183 169,182 169,181 169,181 169,181 169,180 169,180 170,179 170,179 170,179 170,179 171,178 171,178 171,177 170,177 170,177 170,178 169,178 169,178 169,178 168,178 168,177 168,177 169,177 169,177 169,176 170,176 170,176 169,175 168,173 168,172 168,172 168,171 168,171 168,171 164,168 159,164 154,161 151,159 154,156 156,153 158,151 159,149 161,147 159,146 159,145 159,145 159,144 159,144 159,142 159,141 160,140 159,140 159,139 159,139 159,139 159,139 160,138 161,136 161,135 161,134 161,134 163,131 164,130 165,128 166,127 165,127 165,126 165,125 165,125 166,124 166,124 166,124 167,124 168,123 168,122 168,121 168,121 169,121 172,120 172,119 172,119 173,118 173,118 173,118 173,117 173,117 174,118 175,119 176,119 176,119 176,119 177,119 177,118 178,117 178,116 179,116 178,116 178,114 178,113 179,112 180,112 181,112 181,112 182,112 182,111 182,110 182,110 183,110 184,110 184,110 184,109 185,109 186,109 187,108 189,107 189,106 191,105 191,104 191,104 192,103 193,103 194,103 194,103 194,102 194,102 195,101 195,101 196,100 196,99 197,99 197,99 197,99 197,98 197,97 197,97 198,97 198,96 199,96 200,96 200,96 199,95 200,95 200,95 201,95 201,95 202,95 202,94 201,93 201,92 201,92 201,91 201,91 202,90 202,90 202,89 202,89 203,88 203,88 203,87 202,87 203,86 203,86 202,84 202,84 202,84 201,83 201,83 202,82 202,81 202,81 202,81 205,83 207,84 209,83 210,84 211,86 212,89 213,92 213,93 213,94 214,97 215,100 215,100 215,101 216,103 216,104 216,104 217,106 218,109 220,112 222,115 224,116 226,118 228,119 230,121 233,123 234,124 235,123 236,123 237,123 238,122 239,121 242,119 243,118 244,118 244,117 247,117 250,116 251,116 254,115 256,113 262,109 263,108 264,107 269,104 270,103 273,100 271,97 270,95 270,94 270,92 270,91 267,86 263,74 263,73 264,71 266,68 266,64 266,64 267,59 268,58 268,56 272,51 276,44 280,38 282,35 282,35 285,29 297,7 298,5 300,1 302,1 306,0 319,1 323,1 336,2 342,3 343,3 345,3 351,4 351,4 352,4 353,5 354,5 355,6 361,9 382,23 389,28 392,30 397,33 400,35 402,36 406,38 411,39 420,42 423,43 428,44 431,45 436,48 436,49 436,51 436,52 436,54 437,56 438,59 441,62 442,64 443,65 443,67 443,68 443,69 443,72 443,74 443,76 442,85 441,90 441,97 440,103 440,109 440,113 439,116 439,119 439,122 438,124 437,127 437,127 437,127 438,128 440,128 440,128 440,127 441,127 441,127 442,126 442,125 443,125 443,125 444,125 446,126 448,127 449,128 449,128 451,129 452,129 453,129 455,129 457,129 458,130 459,130 459,130 460,130 461,130 461,130 462,130 463,130 464,131 465,131 467,132 467,132 465,135 463,137 462,140 462,140 462,142 462,142 462,143 462,144 462,145 463,146 462,148 461,150 461,151 459,157 459,158 458,160 457,163 458,164 456,167 456,171 455,172 454,174 454,175 454,176 453,179 453,179 452,181 451,183 451,184 450,185 449,187 449,189 448,192 446,195 445,197 445,199 445,201 444,202 444,203 443,206 442,210 441,213 441,214 441,217 441,219 441,219 442,220 443,222 447,226 450,229 452,231 454,234 456,236 457,238 458,239 459,240 460,240 460,241 460,241 459,241 459,245 459,247 459,248 458,248 458,249 457,249 456,249 454,248 453,248 452,248 450,249 449,250 448,251 447,253 447,254 446,256 446,258 446,260 446,262 446,264 447,265 448,266 448,267 450,268 451,269 452,270 452,270 451,272 451,273 451,274 452,275 453,275 454,276 457,278 460,281 463,284 468,288 469,289 470,290 470,291 470,292 470,293 469,295 468,295 468,296 466,297 466,298 465,299 464,301 463,302 462,303 461,304 461,306 459,308 459,309 458,309 455,311 452,308 452,307 452,307 451,306 451,305 450,305 448,305 448,306 447,306 445,307 444,307 443,308 443,308 441,308 440,308 440,305 439,304 439,304 438,305 437,305 436,305 435,305 433,305 432,305 432,305 431,306 431,307 431,307 431,308 431,310 430,314 430,315 430,315 430,315 428,315 424,315 419,315 417,315 415,314 415,321 410,321 407,321 400,320 401,322 401,324 400,325 399,325 395,326 396,327 398,327 399,327 400,328 400,328 399,328 396,327 395,327 394,327 393,327 390,327 389,327 388,327 384,328 382,328 381,328 376,329 373,329 372,329 371,328 370,328 369,327 367,326 367,326 366,325 365,325 364,325 361,325 357,325 356,326 354,325 353,325 351,325 349,323 347,321 347,319 345,319 343,320 340,319 335,318 331,317 330,317 329,316 329,316 328,316 328,315 328,315 328,314 329,313 330,313 330,312 330,312 330,311 329,310 329,309 330,307 330,306 330,305 331,304 331,304 330,303 328,302 328,302 324,302 321,301 319,301 318,302 317,302 317,303 317,304 317,304 318,305 319,306 319,307 319,308 319,308 319,309 318,309 317,310 315,310 314,310 313,309 310,309 309,310 307,311 306,311 304,311 303,311 303,312 302,313 301,313 300,314 300,314 299,314 298,314 294,312 289,311 289,311 288,311 288,311 287,312 287,313 287,313 288,314 289,315 292,316 294,316 295,317 295,318 295,318 293,318 292,319 291,318 290,318 288,318 286,319 285,319 283,320 283,320 282,319 281,318 280,318 279,319 278,320 276,321 274,324 273,325 272,325 271,325 270,325 269,324 268,323 265,322 264,321 264,321 263,321 263,321 263,322 263,323 264,327 264,328 264,328 263,329 263,329 262,329 262,329 261,329 259,327 256,325 256,324 254,324 253,323 251,323 250,323 250,323 249,323 248,323 248,324 247,324 247,325 247,326 247,326 247,327 248,327 251,329 253,330 253,331 254,332 254,332 255,333 254,334 254,334 253,334 251,334 250,334 249,335 249,335 249,336 249,336 250,337 251,338 252,338 252,339 252,340 252,342 252,343 251,345 249,347 248,348 247,349 245,350 243,350 242,350 241,349 241,349 240,347 240,346 240,345 241,345 241,344 242,343 243,342 243,341 242,340 241,339 240,339 239,339 238,339 238,340 237,340 237,342 236,343 236,343 235,344 233,344 228,344 227,345 226,346 226,347 226,349 226,350 224,351 224,352 224,353 225,355 225,357 225,357 221,357 218,355 217,356 216,356 216,358 217,360 217,361 217,362 216,363 215,363 214,363 213,363 212,363 210,361 207,359 206,357 205,356 204,356 202,357 194,363 194,364 192,366 192,368 192,370 193,373 195,379 196,382 195,385 194,386 193,386 192,386 189,382 188,380 187,379 185,377 183,377 183,378 182,379 183,383 181,387 178,390 176,391 175,391 174,389 173,386 173,384 173,383 172,383 171,383 170,383 170,384 169,387 169,388 168,389 167,389 166,390 163,389 162,389 159,391 152,396 151,398 150,399 150,400 151,401 152,401 152,402 151,403 151,404 151,406 153,408 155,411 155,412 153,413 151,413 148,412 147,412 146,411 143,405 141,402 140,401 139,401 137,402 135,404 133,405 131,404 130,405 130,406 131,407 132,408 135,411 136,412 136,413 135,414 134,414 132,414 130,413 127,413 126,413 125,414 124,415 124,416 124,417 125,418 127,421 127,422 127,423 123,424 120,424 119,424 118,425 117,426 117,427 117,430 117,431 118,432 119,433 121,436 122,436 121,437 121,437 120,438 119,438 117,437 116,437 114,437 113,438 112,438 110,438 109,439 107,439 106,439 103,437 102,436 101,435 101,433 100,433 99,433 97,433 95,434 92,435 91,435 90,435 90,435 89,434 89,434 88,433 88,433 87,433 87,433 85,434 85,435 84,435 81,436 81,436 80,437 80,439 79,440 79,442 79,444 80,446 80,446 81,445 83,445 85,446 87,447 88,448 89,451 89,452 89,453 88,453 87,453 86,453 85,453 84,452 83,453 82,454 81,456 80,460 79,461 78,461 77,461 76,459 75,457 74,455 74,454 73,452 71,452 70,452 69,452 69,453 70,454 70,456 70,458 70,460 67,462 66,463 66,464 68,471 69,472 69,473 71,473 72,472 73,471 74,470 75,471 76,472 77,474 76,476 76,478 75,478 74,478 73,478 72,478 71,477 69,476 68,475 67,475 66,476 65,477 62,482 61,484 60,485 59,486 59,487 59,489 58,489 57,490 56,490 55,488 54,488 53,488 52,488 52,489 51,489 51,490 51,491 52,493 53,494 52,495 51,496 50,496 49,497 48,497 48,498 48,499 47,500 39,496 0,477 1,476 4,474 4,473 5,473 6,471 7,469 8,468 10,465 11,464 15,457 17,455 17,454 17,452 16,451 16,450 16,449 17,447 18,446 19,445 20,444 21,443 23,443 25,443 26,443 27,444 28,445 28,446 28,447 29,448 29,449 30,450 31,451 33,451 35,450 36,450 37,449 37,449 38,449 38,446 39,440 39,438 39,436 39,435 40,434 41,433 43,433 45,432 48,431 49,431 50,430 50,429 50,428 50,427 50,427 51,426 51,425 52,425 46,419 44,416 42,413 35,402 33,400 32,399 31,397 29,396 28,395 26,392 23,388 19,383 14,378 19,371 20,370 22,367 25,364 30,357 32,354 31,353 31,349 30,343 30,341 28,338 25,334 23,331 22,327 21,323 22,322 21,321 19,317 13,310" id="97105" class="canton" fill="steelblue" stroke-width="1" stroke="white" geotype="canton" geoname="Baie-Mahault-2" code_insee="97105" code_departement="971" nom_departement="Guadeloupe" code_region="1" nom_region="Guadeloupe"/></svg>