<?xml version="1.0" encoding="utf-8"?>
<svg version="1.1" id="svgmap" xmlns="http://www.w3.org/2000/svg" xmlns:xlink="http://www.w3.org/1999/xlink" x="0px" y="0px" width="100%" height="100%" viewBox="0 0 500 281">
<polygon points="24,42 24,42 24,42 24,42 25,41 25,42 26,42 26,42 26,42 26,42 26,42 26,42 26,42 26,42 26,42 26,42 26,42 26,42 26,42 26,42 27,43 27,43 27,43 27,43 27,43 27,43 27,43 27,43 27,43 27,43 26,43 26,43 26,43 26,43 25,43 25,43 24,43 24,43 24,43 24,42 24,42" id="97112" class="canton" fill="steelblue" stroke-width="1" stroke="white" geotype="canton" geoname="Morne-à-l'Eau" code_insee="97112" code_departement="971" nom_departement="Guadeloupe" code_region="1" nom_region="Guadeloupe"/><polygon points="79,31 79,31 80,31 80,30 81,30 82,30 82,31 83,31 84,30 85,30 85,30 86,30 87,30 88,31 89,31 89,32 90,32 90,32 90,33 91,33 92,33 92,34 92,34 92,35 92,36 91,37 91,38 91,38 90,39 89,39 88,40 87,39 87,38 87,38 87,38 87,38 86,37 85,37 85,37 85,37 84,37 84,36 84,36 83,36 83,36 82,35 81,34 80,34 79,33 79,32 79,31" id="97112" class="canton" fill="steelblue" stroke-width="1" stroke="white" geotype="canton" geoname="Morne-à-l'Eau" code_insee="97112" code_departement="971" nom_departement="Guadeloupe" code_region="1" nom_region="Guadeloupe"/><polygon points="2,30 2,29 3,29 3,29 3,28 3,28 4,28 4,27 5,28 6,28 6,28 7,28 7,28 8,28 8,28 9,28 9,28 10,28 11,28 11,28 12,28 12,28 13,28 13,28 13,29 13,29 14,30 14,29 14,29 15,29 15,29 15,29 16,29 16,30 16,30 17,29 17,29 17,29 18,29 17,28 18,28 18,28 18,28 19,28 19,27 19,27 19,27 18,26 18,26 19,26 19,26 19,26 20,26 20,27 20,27 21,27 21,27 21,28 21,28 20,28 20,29 19,30 19,30 20,30 20,30 21,31 20,31 20,31 21,31 21,31 21,31 21,32 21,32 21,33 21,33 22,33 22,34 22,34 22,34 22,34 21,35 21,35 22,35 22,34 23,34 23,34 23,35 23,35 22,35 23,36 24,36 24,37 23,37 23,37 22,37 21,37 19,37 19,37 20,36 20,36 20,35 20,35 20,35 19,35 19,35 18,36 18,36 17,36 17,36 17,35 17,35 16,35 16,35 16,36 15,36 15,35 15,35 15,35 15,35 16,35 16,34 16,34 15,34 15,34 14,34 14,34 13,34 13,34 13,34 13,34 12,33 12,33 11,33 10,33 10,33 9,33 8,32 8,32 7,32 6,32 5,32 5,31 4,31 3,31 3,31 2,30 2,30" id="97112" class="canton" fill="steelblue" stroke-width="1" stroke="white" geotype="canton" geoname="Morne-à-l'Eau" code_insee="97112" code_departement="971" nom_departement="Guadeloupe" code_region="1" nom_region="Guadeloupe"/><polygon points="64,5 64,5 64,5 64,5 64,5 64,5 64,5 64,5" id="97112" class="canton" fill="steelblue" stroke-width="1" stroke="white" geotype="canton" geoname="Morne-à-l'Eau" code_insee="97112" code_departement="971" nom_departement="Guadeloupe" code_region="1" nom_region="Guadeloupe"/><polygon points="174,17 181,17 184,20 188,22 200,24 200,24 249,9 251,8 254,7 256,6 260,4 262,3 264,1 265,1 266,0 266,2 267,2 268,3 269,4 272,4 275,5 278,6 281,5 287,5 287,4 288,4 292,4 301,3 310,2 316,1 316,1 316,0 316,0 318,0 318,0 320,0 322,0 323,0 324,9 326,32 338,30 338,30 343,29 344,29 345,29 346,31 346,32 346,35 347,38 347,41 348,46 349,49 350,52 351,55 353,59 355,63 355,66 356,68 357,70 358,73 359,74 360,75 362,74 370,71 371,71 373,70 378,69 383,68 381,60 380,58 388,58 388,58 389,58 390,62 392,62 395,66 398,67 400,73 407,71 408,75 414,92 415,97 417,103 418,103 418,104 421,104 423,105 425,105 425,105 426,110 439,110 439,110 440,110 440,110 440,110 441,110 441,110 441,111 442,110 442,110 443,108 444,107 446,106 446,106 447,106 447,106 449,105 450,105 450,105 450,105 452,105 453,105 454,105 456,105 458,105 458,105 459,104 460,104 460,103 461,103 461,102 464,101 473,99 474,99 474,100 476,103 477,105 478,108 478,109 480,109 481,109 482,108 485,107 487,106 488,106 488,106 487,108 487,109 486,110 486,111 486,112 486,114 485,115 484,116 484,117 484,117 484,118 484,119 485,119 486,120 487,120 480,122 486,147 487,147 488,149 494,149 495,155 496,157 497,159 497,159 497,175 499,177 499,177 499,177 499,178 499,180 499,182 499,183 499,184 500,186 500,186 500,186 492,189 492,189 491,189 488,190 486,191 485,191 482,192 478,193 478,194 477,194 475,194 471,196 467,197 466,197 461,199 459,200 452,202 445,204 438,206 432,208 424,211 419,212 418,213 416,208 417,208 417,205 416,205 415,206 413,204 411,201 407,202 409,205 403,206 402,203 403,203 404,196 401,190 400,191 399,185 397,184 396,183 396,183 395,182 394,181 394,181 393,183 391,182 389,184 387,184 388,187 384,197 379,199 380,201 379,204 373,210 376,213 371,214 373,221 371,223 370,221 367,224 364,225 362,226 364,229 366,234 363,236 355,238 356,243 352,244 351,242 347,244 348,246 348,246 349,249 351,250 351,251 352,251 352,252 353,252 353,252 351,253 350,253 348,254 347,254 346,254 344,255 342,253 341,255 341,267 343,267 342,269 340,269 338,272 337,273 336,273 336,273 337,277 326,281 326,281 324,281 324,281 324,281 324,280 324,279 324,279 324,278 324,278 324,276 324,276 324,275 324,275 324,275 323,274 323,274 323,274 320,276 318,271 318,272 317,272 317,271 316,271 315,270 314,270 313,269 312,269 311,270 311,270 310,270 309,270 308,270 308,270 307,270 305,269 304,268 304,268 302,268 301,268 300,267 300,266 299,265 299,265 299,264 297,262 296,262 295,262 295,262 294,262 293,262 293,262 292,262 291,262 290,261 289,261 288,261 287,261 287,260 286,259 285,257 284,256 283,256 283,255 282,255 282,254 282,253 282,251 282,251 282,250 282,249 282,249 283,248 284,247 284,246 284,246 284,245 282,243 282,242 281,241 281,241 281,241 280,241 278,241 277,240 274,239 272,238 272,237 271,236 270,236 269,235 270,231 270,231 267,226 267,225 267,225 267,225 265,221 259,223 258,221 257,219 256,219 254,220 252,221 251,221 251,221 250,217 250,216 249,213 248,213 246,215 240,220 227,221 218,216 215,212 211,215 210,217 209,221 209,221 209,221 208,220 208,220 207,220 207,220 207,220 206,218 205,217 204,215 204,215 204,214 204,213 203,213 203,213 203,212 204,211 206,211 208,211 209,207 208,206 207,204 205,203 204,202 203,202 203,202 202,202 200,203 199,203 198,203 197,204 196,204 195,205 194,205 192,206 188,207 185,208 183,209 181,210 181,211 181,211 181,213 181,214 181,214 181,214 180,214 179,214 177,215 175,216 172,217 169,217 166,218 164,218 164,219 163,219 163,220 163,220 163,221 160,222 160,214 160,214 158,210 157,209 155,206 152,206 152,206 152,207 150,207 149,207 144,207 142,206 137,206 132,206 126,202 125,201 123,200 123,200 122,199 122,199 121,199 120,199 117,199 115,199 112,199 110,199 108,199 107,199 107,199 107,200 106,201 106,202 106,203 106,204 105,207 105,210 105,212 103,211 102,219 102,220 100,220 97,220 94,219 94,219 93,219 91,220 89,219 88,219 87,219 82,219 77,219 75,219 73,207 72,207 70,207 68,207 63,207 60,207 54,207 53,208 52,208 52,208 52,208 52,207 51,206 50,204 50,203 50,203 49,202 48,202 47,202 46,202 44,201 41,199 38,198 34,196 32,194 29,194 28,193 26,192 24,190 23,189 22,188 22,187 23,185 24,184 25,183 25,183 26,182 27,182 28,182 28,182 28,181 28,181 28,180 28,180 29,179 30,179 31,178 31,178 32,178 32,179 32,180 33,181 33,181 33,182 33,183 32,183 31,184 30,184 30,184 29,183 29,183 28,183 28,183 29,183 29,184 29,185 30,186 30,187 31,187 31,188 31,188 32,188 32,187 32,186 33,184 34,183 34,181 34,180 34,179 34,178 33,177 32,176 32,174 31,173 31,172 31,171 31,171 31,171 30,172 30,172 29,172 28,172 27,172 26,171 26,171 25,170 24,170 23,169 22,168 21,168 21,167 20,167 20,167 19,167 18,166 18,166 17,165 17,165 17,164 17,164 16,163 16,163 16,163 16,163 15,162 15,162 15,162 15,161 15,161 15,161 16,160 17,160 17,159 18,159 18,159 19,159 19,159 19,158 19,157 18,156 18,156 17,155 16,155 16,155 16,154 15,153 15,152 14,152 14,151 13,151 13,150 13,149 13,148 12,148 12,148 12,148 10,147 9,146 9,146 8,145 8,144 7,144 6,143 6,143 6,142 6,142 5,142 5,142 5,143 4,143 4,142 4,142 4,142 4,141 3,140 3,140 3,140 3,140 2,140 2,139 1,139 1,139 1,138 1,138 1,137 1,136 1,135 1,135 1,133 1,132 1,132 2,132 2,132 3,132 3,131 3,131 3,131 2,131 2,131 1,131 1,130 1,130 0,128 0,128 0,126 0,124 1,122 1,121 1,120 2,119 2,118 3,118 3,117 4,116 4,115 4,115 5,115 5,115 6,114 7,113 7,113 8,113 8,113 9,112 9,112 10,111 10,112 10,112 10,112 11,113 11,113 11,113 11,114 11,115 11,115 11,115 11,116 11,116 11,117 10,117 10,118 11,118 11,119 11,119 11,119 12,120 13,120 13,120 14,121 14,121 14,122 14,124 15,126 15,126 16,126 16,126 17,126 17,125 17,125 17,125 18,125 18,125 19,125 19,125 20,125 21,125 21,125 22,125 22,124 22,124 22,124 22,124 21,123 21,122 21,121 21,121 20,121 19,121 19,121 18,121 18,121 17,121 17,121 16,120 16,120 16,119 17,118 17,118 17,117 17,117 17,116 16,115 18,114 18,114 18,114 19,114 19,114 20,114 20,114 20,114 21,114 21,114 22,114 22,115 23,115 23,115 25,116 26,116 26,116 27,116 27,116 28,116 28,117 29,117 30,117 30,117 31,117 31,117 32,117 32,117 32,117 32,116 32,116 31,115 31,115 30,114 30,114 29,114 28,113 27,113 27,112 26,112 26,111 27,110 27,110 27,110 28,110 28,110 29,110 30,110 30,109 30,109 31,109 31,108 31,107 31,107 31,106 32,105 33,105 34,105 35,105 36,105 36,105 37,105 37,106 38,106 39,107 40,107 40,107 41,107 42,106 42,106 43,105 44,104 44,103 44,102 44,102 43,101 43,100 43,100 43,100 43,100 42,100 41,100 40,100 40,100 39,99 39,99 38,98 38,97 39,95 39,94 38,94 38,94 37,94 37,94 36,94 35,95 34,95 33,96 33,96 32,96 32,96 31,95 31,95 31,94 31,93 31,92 31,90 30,89 30,87 31,86 31,85 31,84 31,83 33,83 33,82 34,81 35,79 36,78 37,78 37,77 37,76 37,76 38,75 38,75 39,74 38,73 38,73 37,73 37,72 37,72 37,71 37,70 37,69 36,68 35,68 34,67 34,67 33,68 33,68 32,67 32,67 32,67 31,67 31,68 31,68 32,69 33,71 34,71 35,72 35,72 36,72 36,72 36,72 37,72 37,73 37,73 36,75 36,76 35,76 35,76 35,77 35,77 34,77 33,77 32,79 31,80 30,80 30,81 29,81 29,82 29,82 29,83 30,84 30,84 30,85 29,85 29,86 29,86 28,86 28,86 27,86 24,85 24,85 23,85 23,84 23,84 23,83 24,82 24,82 24,81 23,81 23,80 22,80 22,80 21,80 20,80 19,80 18,80 17,80 17,79 17,79 16,77 15,76 15,76 16,76 16,76 17,76 17,76 18,77 18,77 19,77 19,77 20,76 20,76 20,76 20,75 20,75 20,75 21,75 21,75 22,75 22,75 23,76 23,76 23,77 23,77 24,77 24,77 24,77 24,77 25,76 25,76 24,75 24,75 23,74 23,74 23,74 23,73 23,73 23,73 23,73 23,73 22,74 22,73 21,72 21,72 22,72 22,72 23,71 23,71 23,71 24,70 24,69 24,68 23,67 23,67 22,66 22,66 20,67 19,67 19,67 19,67 19,67 19,68 19,68 20,68 20,69 21,69 22,69 22,69 22,70 22,70 22,71 22,71 21,71 21,71 21,71 20,71 19,71 17,72 17,73 17,73 16,73 16,73 16,73 16,73 16,73 16,73 15,73 15,73 15,73 14,72 14,72 14,72 14,72 14,71 14,71 15,71 15,70 16,70 16,70 16,69 16,68 15,68 15,68 15,67 15,67 14,68 14,68 14,68 14,69 14,69 14,70 14,70 14,71 13,71 13,71 12,71 11,70 10,70 10,70 9,70 8,70 8,70 8,70 7,70 6,71 6,71 5,71 5,71 5,72 5,72 6,73 6,73 6,72 6,72 6,72 7,72 7,73 7,73 7,73 7,74 7,74 6,74 6,73 5,72 5,72 4,71 4,71 4,71 3,70 3,70 3,70 4,70 4,70 5,70 5,70 6,70 7,70 8,70 8,70 9,69 9,69 10,68 11,68 11,68 12,68 13,67 13,66 14,66 14,66 14,66 15,67 15,67 15,67 16,67 17,66 17,66 17,65 17,65 17,65 18,65 18,64 19,63 19,63 20,62 21,62 23,61 23,61 23,60 24,60 26,60 27,60 28,60 28,60 29,60 29,60 30,61 30,61 30,62 30,62 30,63 31,63 31,63 31,62 31,62 31,61 32,59 32,59 32,59 33,59 33,58 34,58 36,58 36,58 38,59 39,57 37,56 37,55 37,55 37,55 36,54 36,53 35,53 35,53 35,53 34,54 34,54 33,54 33,53 33,53 33,53 34,52 34,52 34,52 34,51 34,51 34,51 34,51 36,53 37,54 38,54 39,55 39,55 40,55 40,56 41,56 41,56 42,56 42,56 42,57 42,57 42,58 42,58 42,58 41,59 42,59 42,59 42,60 42,60 43,60 43,60 44,61 44,61 44,62 44,62 45,62 45,63 45,63 45,63 45,64 45,64 46,63 46,63 46,62 46,62 46,61 47,58 47,58 48,57 49,57 49,57 50,57 51,57 52,57 52,57 53,56 54,56 54,56 55,56 56,57 57,57 57,58 58,58 58,58 59,57 59,57 59,57 60,57 60,57 60,57 60,57 60,57 60,57 60,57 60,57 61,58 61,58 61,58 61,57 61,57 62,57 62,57 62,57 62,57 62,57 62,57 62,57 62,57 62,57 62,57 62,57 63,57 63,57 63,57 63,57 63,57 63,57 64,57 64,57 64,57 64,57 64,57 64,57 65,57 65,57 65,57 65,57 65,57 66,57 66,57 67,57 67,56 67,56 67,56 67,56 67,56 67,57 68,56 68,56 68,56 69,56 69,56 69,56 70,57 70,57 71,57 71,57 71,57 71,57 72,57 72,57 72,57 72,57 73,57 73,57 73,57 73,57 73,57 73,57 74,57 74,57 74,57 74,57 74,57 74,57 74,57 74,57 75,57 75,58 75,58 76,58 76,58 77,58 77,57 77,58 77,58 78,58 78,58 79,58 80,58 80,58 82,59 82,59 83,59 84,60 84,60 84,60 84,61 84,63 86,68 87,67 87,67 88,66 88,66 89,66 90,65 90,65 91,65 91,64 92,64 92,64 93,64 94,64 95,64 95,64 96,64 96,64 96,64 97,64 97,64 98,64 99,64 100,64 100,64 101,63 101,63 102,63 102,62 102,62 103,62 104,62 104,62 104,61 104,61 104,60 104,60 104,59 105,59 105,58 105,57 105,57 105,56 105,56 105,56 105,56 106,56 107,56 107,56 107,56 107,56 108,56 108,57 108,57 108,57 108,57 108,57 109,56 110,56 110,56 110,55 110,55 111,55 112,55 112,55 113,56 114,57 115,57 116,58 116,58 117,58 117,58 118,58 119,58 120,58 121,58 122,59 123,59 124,59 124,59 125,58 125,58 126,58 126,58 128,58 128,58 129,58 130,58 131,58 131,58 131,57 132,57 132,57 132,57 132,56 132,56 132,56 133,56 132,56 132,55 131,55 130,54 130,54 130,54 129,54 129,54 128,53 126,53 126,53 125,53 124,53 123,53 122,52 122,52 121,51 120,50 120,50 120,49 120,49 120,49 120,49 120,49 119,47 119,47 119,46 118,46 118,45 118,44 119,43 119,42 119,42 119,41 119,41 120,41 121,40 122,40 122,39 123,39 123,39 124,40 125,40 125,40 127,41 127,41 127,41 127,41 128,41 128,41 128,42 128,42 128,42 128,43 129,43 130,44 132,45 132,45 133,45 135,45 136,45 136,45 136,46 137,46 137,46 138,45 139,45 139,45 139,46 139,46 139,46 139,46 139,47 139,47 139,47 137,47 136,47 135,47 135,47 134,47 134,48 134,48 135,48 136,49 136,49 137,49 138,49 139,49 139,48 139,48 139,47 140,47 140,47 141,47 141,46 141,46 140,46 140,46 140,46 141,45 142,45 142,45 143,44 143,44 142,43 142,43 142,43 142,43 143,43 143,43 143,42 143,42 143,42 143,41 143,40 143,40 143,39 143,39 143,38 142,37 142,37 142,36 142,36 143,36 143,35 143,35 144,36 144,36 145,35 145,35 145,35 145,34 145,34 145,34 145,33 146,32 147,32 148,32 148,31 149,31 149,31 149,31 150,31 150,31 150,31 151,31 151,31 151,31 152,31 152,30 153,30 153,30 153,30 154,30 154,30 155,30 156,30 156,31 157,31 157,32 158,32 159,33 160,33 160,33 160,33 161,35 161,35 161,36 161,36 160,37 160,37 160,38 160,38 160,38 161,38 161,39 161,39 162,39 162,38 162,38 162,38 163,38 164,37 164,37 164,37 164,37 165,37 165,37 165,37 165,38 165,38 166,38 166,38 167,38 167,38 168,37 168,37 168,37 169,37 169,38 170,38 170,38 170,38 171,39 172,39 172,39 173,39 173,40 174,40 174,40 174,40 175,40 175,41 176,41 176,41 176,42 176,42 176,42 176,43 176,43 177,44 177,44 177,44 178,43 178,43 179,43 179,43 180,43 180,43 180,43 181,44 181,45 182,45 183,46 183,47 183,47 184,47 184,47 184,47 185,47 185,47 185,48 185,48 185,48 186,48 186,48 186,48 187,48 187,49 187,49 187,49 187,50 187,50 187,51 188,51 189,51 189,51 190,51 190,51 191,51 191,51 192,51 192,51 192,52 193,52 193,52 194,51 194,51 194,51 194,51 194,51 195,52 195,52 195,52 196,52 196,52 196,52 196,52 196,52 197,52 197,53 198,53 199,53 199,54 199,54 200,54 201,55 201,55 202,55 202,56 203,57 204,57 204,58 205,58 205,58 206,57 206,57 207,56 207,56 207,55 207,55 207,55 209,56 211,56 212,56 212,55 212,54 211,54 211,53 211,53 210,53 210,52 210,52 211,52 211,51 211,50 210,49 210,49 210,48 213,48 215,49 217,49 218,49 218,48 218,47 216,47 215,46 214,45 213,45 212,45 212,45 211,44 211,43 211,42 211,41 210,41 210,41 209,41 208,40 208,41 207,40 207,40 206,40 204,40 203,40 202,40 201,40 200,40 199,39 197,38 196,38 194,38 194,38 193,37 191,37 190,37 188,37 186,36 184,36 184,37 184,38 183,39 182,39 181,39 180,38 179,38 179,37 178,37 178,36 178,35 178,34 177,33 176,32 175,32 174,32 173,32 169,32 169,31 168,30 168,29 167,29 166,29 165,30 164,29 164,29 164,28 165,28 166,27 165,25 164,24 164,23 164,22 165,22 165,20 165,20 165,20 166,19 168,19 169,18 171,18 172,18 174,17" id="97112" class="canton" fill="steelblue" stroke-width="1" stroke="white" geotype="canton" geoname="Morne-à-l'Eau" code_insee="97112" code_departement="971" nom_departement="Guadeloupe" code_region="1" nom_region="Guadeloupe"/><polygon points="22,32 22,31 23,31 23,32 24,32 24,32 24,32 24,33 24,33 25,33 25,33 25,33 25,33 25,33 25,34 25,34 24,34 24,34 23,33 24,33 24,33 23,32 23,32 23,32 22,32 22,32" id="97112" class="canton" fill="steelblue" stroke-width="1" stroke="white" geotype="canton" geoname="Morne-à-l'Eau" code_insee="97112" code_departement="971" nom_departement="Guadeloupe" code_region="1" nom_region="Guadeloupe"/><polygon points="25,34 26,34 26,34 27,34 28,35 27,35 28,35 28,36 27,36 27,36 26,36 26,35 26,35 26,35 26,35 25,34" id="97112" class="canton" fill="steelblue" stroke-width="1" stroke="white" geotype="canton" geoname="Morne-à-l'Eau" code_insee="97112" code_departement="971" nom_departement="Guadeloupe" code_region="1" nom_region="Guadeloupe"/></svg>