<?xml version="1.0" encoding="utf-8"?>
<svg version="1.1" id="svgmap" xmlns="http://www.w3.org/2000/svg" xmlns:xlink="http://www.w3.org/1999/xlink" x="0px" y="0px" width="100%" height="100%" viewBox="0 0 406 500">
<polygon points="0,365 0,364 1,363 1,361 0,360 1,359 2,358 1,357 2,356 2,354 2,354 3,353 4,352 5,353 6,353 7,354 8,355 8,356 8,357 9,358 9,360 9,361 9,361 8,362 8,363 8,363 9,363 9,364 9,365 9,365 9,366 9,366 10,366 10,366 10,366 9,373 6,372 5,371 3,370 2,368 1,368 0,366 0,365" id="97115" class="canton" fill="steelblue" stroke-width="1" stroke="white" geotype="canton" geoname="Pointe-à-Pitre" code_insee="97115" code_departement="971" nom_departement="Guadeloupe" code_region="1" nom_region="Guadeloupe"/><polygon points="39,358 39,357 39,356 40,356 41,356 42,356 43,357 44,357 45,358 46,358 46,359 46,359 46,360 46,360 46,360 46,361 47,362 48,363 48,366 48,367 50,369 50,369 51,370 51,370 52,369 52,369 53,368 54,368 54,369 55,369 55,370 56,370 57,372 58,373 60,374 60,375 62,377 62,377 63,377 63,377 64,378 65,378 65,378 66,379 65,379 66,379 66,378 67,378 67,379 67,379 68,379 69,379 70,379 71,379 72,380 72,380 73,380 73,379 74,380 74,380 74,381 74,381 75,381 76,381 76,381 77,382 77,382 79,382 79,383 81,383 84,384 85,386 85,388 80,388 79,388 77,388 76,388 73,388 73,387 72,387 72,387 72,387 71,388 71,388 71,387 70,387 70,387 70,387 69,388 69,388 68,388 68,388 67,388 67,387 67,387 66,386 64,385 64,384 60,383 60,382 58,381 57,381 56,381 55,380 54,380 54,380 54,379 53,379 52,378 51,377 50,376 49,376 49,375 48,375 47,374 46,374 45,373 44,373 43,372 42,371 42,370 42,370 42,369 42,367 41,366 41,366 40,365 39,363 40,362 40,361 39,360 39,359 39,358" id="97115" class="canton" fill="steelblue" stroke-width="1" stroke="white" geotype="canton" geoname="Pointe-à-Pitre" code_insee="97115" code_departement="971" nom_departement="Guadeloupe" code_region="1" nom_region="Guadeloupe"/><polygon points="378,436 378,438 371,438 371,440 367,440 360,440 353,440 353,440 354,439 353,439 351,439 351,439 350,440 344,441 343,436 342,435 342,433 340,431 339,429 337,426 328,415 318,402 313,399 314,394 314,392 315,392 317,390 321,386 322,385 324,383 325,382 326,382 328,382 329,383 330,384 330,385 330,387 329,390 327,392 326,393 325,393 324,394 323,394 322,395 323,396 323,397 323,398 324,399 325,399 326,399 328,399 329,400 330,403 333,406 334,408 338,411 339,411 339,413 339,414 339,415 341,417 343,420 346,425 350,430 355,436 357,436 378,436" id="97115" class="canton" fill="steelblue" stroke-width="1" stroke="white" geotype="canton" geoname="Pointe-à-Pitre" code_insee="97115" code_departement="971" nom_departement="Guadeloupe" code_region="1" nom_region="Guadeloupe"/><polygon points="116,0 119,1 122,2 133,7 143,11 188,30 195,33 202,36 214,41 222,44 227,46 234,50 246,54 250,56 254,57 260,60 269,64 278,67 286,71 296,74 296,74 305,77 306,80 317,99 318,102 320,106 327,118 328,120 334,130 336,135 339,129 340,129 337,136 347,155 348,156 348,156 361,180 361,181 362,183 351,223 349,230 354,229 354,230 349,230 344,249 342,258 339,266 337,275 335,281 334,284 334,286 335,288 334,291 334,292 334,293 334,294 333,296 333,301 332,304 331,307 331,310 331,313 333,315 333,316 335,317 337,318 339,317 341,317 342,317 344,318 346,319 350,321 356,325 359,327 365,330 369,332 371,333 378,337 380,339 381,341 383,344 385,350 387,354 389,359 392,363 396,367 397,367 401,370 405,372 406,373 404,375 400,380 397,384 393,387 393,389 392,393 391,398 393,401 394,402 394,405 394,407 392,409 390,410 390,411 389,413 388,416 387,420 385,423 384,425 384,430 377,430 372,428 372,424 377,424 378,418 372,415 369,421 367,420 361,417 357,414 354,413 352,413 352,409 351,409 351,403 355,404 364,404 369,404 372,404 372,401 373,401 376,401 379,401 383,401 384,397 386,377 380,377 373,377 370,377 368,378 367,382 366,383 364,383 363,383 363,383 362,383 361,383 360,381 360,380 357,379 356,379 354,379 352,378 350,378 350,378 348,375 346,371 345,367 343,364 343,364 341,363 340,363 339,363 338,363 337,363 336,362 335,361 335,359 334,359 330,359 330,359 329,359 327,354 322,354 322,353 321,353 320,354 319,354 319,354 318,354 317,354 315,354 315,354 314,353 314,352 314,349 314,348 314,347 314,346 315,346 315,345 316,345 316,344 314,343 314,343 314,342 314,342 314,340 314,340 315,339 315,338 315,336 315,335 315,334 316,334 316,334 317,334 317,334 318,334 318,335 320,334 320,334 324,334 325,334 327,334 327,334 328,334 329,334 329,335 329,335 330,335 330,335 331,335 332,335 333,335 333,335 334,335 336,336 337,336 338,336 339,335 339,335 341,334 342,334 343,334 344,336 345,336 346,335 347,334 349,333 351,330 352,329 351,328 351,327 352,327 352,327 353,328 353,327 353,327 352,327 352,326 351,326 352,326 352,325 351,326 351,325 352,325 350,324 350,324 349,323 349,323 348,323 348,323 347,322 347,322 346,321 347,320 347,320 346,321 345,321 345,321 345,321 345,321 344,321 344,320 344,320 344,320 343,320 343,321 343,320 343,320 343,320 342,320 342,320 342,321 341,321 341,321 339,322 338,323 338,323 337,323 336,323 336,323 335,322 335,323 334,322 334,321 334,321 334,321 333,320 332,320 332,319 332,320 332,319 332,319 332,319 331,318 329,317 329,316 329,316 328,315 329,315 328,315 329,315 328,313 327,313 327,312 327,312 328,311 328,308 328,306 328,306 327,306 327,306 327,305 327,304 327,304 328,304 328,303 329,303 330,299 329,298 328,299 328,299 327,300 332,294 332,294 326,300 325,301 318,300 313,300 312,300 312,299 312,299 312,299 311,299 311,299 311,299 309,299 306,300 306,300 305,299 303,298 303,298 302,297 302,296 302,295 303,295 302,294 302,293 301,290 299,285 298,282 297,282 294,277 295,276 293,270 293,270 291,266 292,264 291,262 290,260 290,258 290,256 292,255 295,254 300,252 301,252 302,253 304,251 307,251 310,250 310,249 310,246 310,246 310,245 308,245 308,243 309,243 309,242 308,242 308,241 309,241 309,239 308,237 308,236 309,234 309,234 309,234 308,236 307,237 307,237 307,238 307,238 306,237 306,237 306,236 306,236 306,235 306,235 306,235 307,235 307,235 308,234 308,234 307,234 306,234 306,234 306,234 305,234 305,234 305,234 304,235 304,235 304,235 303,235 303,236 302,235 302,235 301,235 301,235 301,235 301,236 300,236 299,235 300,234 298,233 298,234 296,233 296,232 295,231 295,229 295,228 295,227 295,226 295,225 296,224 296,223 296,220 296,219 296,218 297,218 297,217 298,215 298,213 288,208 286,213 287,214 286,216 285,216 284,217 285,218 284,218 284,218 284,218 284,218 283,220 283,221 282,221 281,222 281,223 269,236 252,224 231,200 239,164 204,156 203,156 203,155 204,155 204,154 204,152 205,151 205,148 206,144 206,140 206,138 207,135 208,126 207,120 205,118 204,116 202,113 201,111 201,110 201,110 202,109 202,108 202,108 202,108 201,108 201,107 199,107 198,105 177,86 177,87 174,86 174,84 167,78 149,60 146,58 143,55 139,52 134,48 132,45 128,43 129,42 126,40 124,39 123,38 123,37 124,37 124,37 125,38 126,38 126,37 132,26 121,21 119,26 118,26 118,27 118,28 120,29 122,31 124,32 124,33 124,33 123,33 123,33 120,31 118,29 117,28 116,27 115,26 114,25 113,25 112,24 111,23 110,22 109,21 107,20 106,19 106,18 105,18 104,18 103,18 101,17 101,16 102,15 104,12 113,16 115,16 115,16 115,16 115,15 112,14 110,14 108,12 107,12 105,11 105,11 108,9 111,4 114,2 116,0" id="97115" class="canton" fill="steelblue" stroke-width="1" stroke="white" geotype="canton" geoname="Pointe-à-Pitre" code_insee="97115" code_departement="971" nom_departement="Guadeloupe" code_region="1" nom_region="Guadeloupe"/><polygon points="84,384 85,383 86,383 87,382 87,382 87,381 86,380 87,379 87,378 88,378 89,378 90,378 90,375 91,375 92,375 93,375 95,375 96,376 98,378 98,379 98,379 98,380 97,382 95,385 95,385 88,387 88,388 88,388 86,388 85,388 85,388 85,385 84,384" id="97115" class="canton" fill="steelblue" stroke-width="1" stroke="white" geotype="canton" geoname="Pointe-à-Pitre" code_insee="97115" code_departement="971" nom_departement="Guadeloupe" code_region="1" nom_region="Guadeloupe"/><polygon points="103,377 104,377 104,378 105,378 105,379 106,378 106,378 107,379 108,380 109,380 110,381 110,381 111,382 116,384 118,385 120,386 121,386 122,387 123,387 124,387 125,387 125,388 126,388 126,389 127,389 127,390 127,390 128,390 128,391 128,391 129,392 130,393 130,394 131,395 132,396 132,397 133,398 135,399 135,400 134,400 134,401 133,400 133,399 132,399 128,396 126,395 124,393 122,392 117,390 109,388 108,387 106,385 105,383 104,381 104,379 103,379 103,378 103,377" id="97115" class="canton" fill="steelblue" stroke-width="1" stroke="white" geotype="canton" geoname="Pointe-à-Pitre" code_insee="97115" code_departement="971" nom_departement="Guadeloupe" code_region="1" nom_region="Guadeloupe"/><polygon points="177,464 177,461 180,456 182,452 183,447 185,443 186,439 186,436 185,432 188,428 193,432 194,432 195,432 195,432 196,432 198,433 198,435 201,438 202,440 204,443 206,447 206,447 206,447 207,447 207,448 207,448 207,449 208,453 208,456 208,458 208,459 209,461 210,462 211,463 212,464 213,467 216,470 218,471 219,472 220,473 222,474 226,474 229,474 231,474 234,474 237,474 239,472 241,470 243,471 245,470 246,469 248,470 253,471 255,468 257,469 258,471 260,472 263,474 263,474 264,474 268,472 270,474 274,478 277,482 278,484 277,486 279,487 280,487 281,488 282,489 283,492 283,493 282,493 281,493 280,493 279,493 279,493 280,494 280,495 282,495 283,495 284,495 286,495 287,495 290,496 291,496 293,497 291,498 286,498 279,499 273,500 262,500 251,500 247,500 244,499 240,500 236,500 234,499 230,500 228,499 223,498 220,498 218,497 215,497 211,497 208,496 204,495 201,495 199,494 191,492 188,491 186,489 184,488 183,485 181,483 181,480 181,473 180,470 178,468 177,464" id="97115" class="canton" fill="steelblue" stroke-width="1" stroke="white" geotype="canton" geoname="Pointe-à-Pitre" code_insee="97115" code_departement="971" nom_departement="Guadeloupe" code_region="1" nom_region="Guadeloupe"/><polygon points="16,297 16,296 17,295 19,294 20,294 20,291 21,289 22,289 22,289 23,289 26,295 28,298 28,298 29,300 31,301 32,301 32,306 32,307 31,307 29,307 28,307 25,306 24,306 22,306 21,306 21,305 20,303 19,301 18,300 17,300 16,298 16,297" id="97115" class="canton" fill="steelblue" stroke-width="1" stroke="white" geotype="canton" geoname="Pointe-à-Pitre" code_insee="97115" code_departement="971" nom_departement="Guadeloupe" code_region="1" nom_region="Guadeloupe"/></svg>