<?xml version="1.0" encoding="utf-8"?>
<svg version="1.1" id="svgmap" xmlns="http://www.w3.org/2000/svg" xmlns:xlink="http://www.w3.org/1999/xlink" x="0px" y="0px" width="100%" height="100%" viewBox="0 0 280 500">
<polygon points="213,6 211,11 211,13 212,13 214,12 215,17 216,18 216,18 217,21 219,21 219,25 220,24 223,23 225,23 226,23 227,24 230,24 233,24 235,24 236,24 237,23 238,23 239,22 239,21 240,20 241,21 244,22 244,22 245,23 247,25 249,26 251,27 253,29 266,36 266,36 267,37 268,37 272,40 274,41 277,44 279,46 279,56 280,65 279,67 279,69 276,74 271,80 267,85 265,89 265,92 266,98 264,106 264,108 263,110 261,112 261,112 262,114 264,116 265,117 265,119 264,121 265,124 264,126 263,128 263,129 264,132 264,135 264,137 263,140 263,141 264,142 266,145 266,148 266,150 265,152 264,152 261,153 259,154 259,156 260,157 264,159 265,161 265,163 263,164 261,164 259,165 259,166 260,168 260,170 259,172 258,174 259,175 261,178 262,180 261,182 258,183 254,184 252,186 252,188 252,192 251,193 250,194 248,194 246,194 245,194 243,196 241,197 241,198 241,200 242,202 242,205 242,206 241,206 238,207 236,208 235,210 234,213 233,214 232,214 229,214 228,213 227,212 224,212 222,215 222,217 222,218 220,220 218,221 217,224 217,226 217,227 216,228 216,229 214,230 213,231 214,232 215,235 217,236 217,237 217,238 215,240 214,241 212,243 212,243 211,245 209,246 207,247 205,248 202,250 200,250 199,252 198,252 197,252 196,253 195,254 193,255 192,255 191,254 190,254 189,255 189,255 188,257 188,257 186,256 185,256 184,257 183,258 183,260 182,262 183,264 182,265 182,266 183,268 182,269 181,270 180,272 179,275 179,280 179,282 176,285 176,289 163,310 167,330 158,356 167,370 170,384 178,396 184,403 184,406 148,500 139,493 134,489 128,482 122,475 117,473 116,472 114,471 110,471 106,473 99,475 99,474 93,428 93,425 93,419 92,413 88,408 85,404 84,402 80,390 80,388 73,379 72,374 67,370 67,368 64,365 63,362 64,356 61,346 61,342 55,337 54,335 53,330 51,326 51,324 49,322 47,319 48,315 48,310 48,308 43,303 41,301 39,294 38,292 32,293 28,291 25,291 23,291 20,285 17,282 14,280 12,276 12,273 14,269 13,258 11,257 7,256 7,255 6,254 5,252 5,251 3,249 1,248 0,246 0,245 1,243 2,242 3,240 4,239 5,237 6,235 7,234 6,232 5,230 5,229 6,228 8,228 9,227 10,226 9,225 8,224 6,224 5,223 6,222 6,221 8,219 13,214 15,212 16,209 17,207 18,202 17,199 13,195 12,194 12,192 12,191 13,188 15,186 17,185 17,184 18,182 17,180 18,179 19,178 21,176 23,175 26,174 28,173 29,171 29,169 27,166 27,165 28,164 30,162 31,162 32,161 35,159 36,158 36,157 35,154 34,153 35,151 35,150 36,150 37,149 38,148 38,148 41,147 41,146 42,142 42,141 43,140 45,140 47,138 51,135 54,133 57,131 62,130 65,128 67,127 67,127 68,126 69,124 69,122 70,121 71,121 75,118 77,117 78,116 78,113 78,111 79,109 84,106 89,103 90,103 93,101 94,101 95,100 97,101 98,101 99,101 101,100 102,100 102,99 101,97 100,96 99,93 99,92 100,92 102,92 103,93 105,92 106,91 106,90 107,89 108,86 109,84 108,83 107,81 107,79 107,77 110,75 111,75 113,73 115,71 117,70 118,69 120,67 121,66 130,66 130,50 139,24 144,18 148,9 156,1 158,1 158,0 161,0 163,0 170,1 178,1 179,0 179,0 179,0 180,0 182,0 185,0 192,0 193,0 193,0 193,2 193,2 193,5 193,5 192,6 192,7 192,8 191,10 198,9 207,6 210,6 213,6" id="97411" class="canton" fill="steelblue" stroke-width="1" stroke="white" geotype="canton" geoname="Saint-Denis-3" code_insee="97411" code_departement="974" nom_departement="La Réunion" code_region="4" nom_region="La Réunion"/></svg>