<?xml version="1.0" encoding="utf-8"?>
<svg version="1.1" id="svgmap" xmlns="http://www.w3.org/2000/svg" xmlns:xlink="http://www.w3.org/1999/xlink" x="0px" y="0px" width="100%" height="100%" viewBox="0 0 500 460">
<polygon points="0,460 26,112 34,63 56,4 68,0 74,1 75,7 88,13 94,6 95,5 96,6 96,9 96,14 95,18 96,22 100,25 103,27 106,28 108,26 109,23 112,22 113,23 114,25 114,28 113,31 112,35 110,40 110,46 110,53 110,56 113,58 117,59 124,61 142,62 152,57 155,67 173,71 173,64 183,60 183,47 190,47 190,30 213,27 203,77 176,84 186,124 231,156 268,151 275,174 296,181 296,188 347,184 347,177 347,174 360,174 371,198 364,198 364,201 388,218 395,238 388,238 388,245 408,255 408,265 425,271 432,285 456,290 470,280 486,284 487,287 487,291 492,296 497,298 500,305 500,313 250,386 0,460" id="97605" class="canton" fill="steelblue" stroke-width="1" stroke="white" geotype="canton" geoname="Koungou" code_insee="97605" code_departement="976" nom_departement="Mayotte" code_region="6" nom_region="Mayotte"/></svg>