<?xml version="1.0" encoding="utf-8"?>
<svg version="1.1" id="svgmap" xmlns="http://www.w3.org/2000/svg" xmlns:xlink="http://www.w3.org/1999/xlink" x="0px" y="0px" width="100%" height="100%" viewBox="0 0 446 500">
<polygon points="348,0 348,0 351,2 353,2 353,2 354,2 354,1 355,1 355,1 356,1 357,1 357,2 358,3 358,3 358,3 359,4 360,5 360,5 360,7 360,7 360,7 361,7 361,9 361,9 362,10 363,9 363,9 365,8 366,8 366,8 366,8 368,8 368,8 370,6 372,5 378,4 378,4 379,4 382,4 382,4 382,4 384,4 385,7 386,7 386,7 386,7 388,10 388,10 389,10 390,15 394,15 394,17 396,17 396,16 396,15 396,15 400,15 402,15 403,14 403,14 404,14 405,14 406,14 406,14 406,15 407,15 407,14 410,13 411,13 412,13 412,12 412,12 414,12 414,12 415,12 415,12 416,11 418,11 418,11 418,11 418,11 419,11 419,11 419,11 420,10 422,9 422,9 424,8 425,7 425,6 426,6 426,6 427,5 427,5 428,5 429,4 429,4 430,4 429,3 429,3 429,3 430,3 430,3 431,3 431,2 433,2 435,2 435,2 437,2 437,2 437,2 437,3 437,3 437,3 437,4 437,4 437,5 437,5 437,5 438,6 439,7 439,7 439,8 439,8 439,8 439,8 438,9 438,9 438,9 437,9 437,9 437,10 437,10 436,10 436,11 435,11 435,12 435,12 435,13 435,13 434,14 434,14 434,14 434,14 435,15 435,15 435,15 435,16 436,16 436,16 436,16 436,16 437,17 437,17 437,17 437,18 437,18 437,18 437,18 437,19 437,19 437,19 437,19 437,19 437,20 437,20 437,20 437,20 437,20 437,20 437,20 437,21 438,21 438,21 438,21 438,22 439,22 439,22 440,23 440,25 440,26 440,26 440,26 441,26 441,26 441,26 441,26 441,26 441,27 441,27 441,27 441,27 441,27 441,27 441,28 441,28 441,28 441,28 441,28 441,28 441,28 441,28 441,29 441,29 442,29 442,29 442,29 443,30 443,30 443,30 443,30 445,30 445,30 445,30 446,31 446,31 446,32 446,32 446,32 445,31 445,32 445,32 444,32 444,32 444,33 443,34 443,35 443,35 443,35 442,36 442,37 441,38 441,38 440,38 440,39 440,39 439,40 439,40 439,40 439,41 438,41 438,41 438,41 438,41 438,42 438,42 437,42 437,42 437,43 437,43 436,43 436,43 437,44 436,44 436,44 436,45 436,45 435,45 435,45 436,46 436,46 436,47 436,47 435,47 435,48 435,48 435,48 434,48 433,48 433,48 433,48 433,49 433,49 433,50 432,50 432,50 432,50 432,51 432,51 432,51 432,51 432,51 432,51 432,51 432,51 432,51 432,52 432,52 432,52 432,52 432,53 431,53 431,53 431,53 431,53 430,53 430,53 430,53 430,53 430,54 430,54 431,54 431,54 431,54 430,55 430,55 430,55 430,56 430,56 430,56 430,56 430,56 430,56 430,56 430,57 429,57 429,57 429,58 429,58 429,58 429,58 429,59 428,59 428,59 428,59 428,59 428,60 428,60 428,60 428,60 428,60 428,61 428,61 428,61 428,61 428,61 428,61 428,62 428,62 427,62 427,62 427,62 427,63 427,63 427,63 427,63 427,63 427,63 427,64 427,64 428,64 427,64 427,64 427,64 427,65 427,65 428,65 428,65 428,65 428,65 428,65 427,66 427,66 427,66 427,66 428,66 428,66 428,66 427,66 427,67 426,67 426,68 426,68 426,68 425,69 424,69 424,69 423,70 423,71 423,71 423,71 423,71 423,71 422,71 422,71 420,71 420,71 420,72 420,72 420,72 419,72 419,72 419,73 419,73 419,74 419,74 419,74 419,75 421,75 421,75 421,76 421,76 422,76 422,77 422,77 422,77 422,78 422,78 422,78 422,78 422,79 422,79 423,80 423,80 423,80 423,80 422,81 422,81 422,81 422,81 422,81 421,82 421,82 420,82 419,83 419,83 417,83 417,83 417,83 417,83 415,84 414,85 414,86 413,87 413,87 413,87 412,87 411,88 410,88 409,89 409,89 408,89 408,90 408,90 409,91 410,91 410,91 410,92 411,93 412,93 412,93 412,94 412,94 412,94 412,94 410,94 409,94 407,94 407,94 407,94 407,95 407,96 407,96 407,96 407,97 407,98 407,99 407,99 407,99 407,100 407,100 407,101 406,101 406,101 406,102 406,104 406,104 406,105 406,105 406,106 407,107 407,107 407,107 407,108 407,108 406,108 406,109 405,109 404,110 401,111 398,111 397,111 397,112 396,112 396,112 397,113 397,114 397,114 397,114 398,114 399,114 400,114 401,114 401,114 401,114 401,115 402,115 403,115 403,115 403,116 403,116 404,116 405,117 405,117 405,117 405,118 405,118 405,118 406,118 406,118 406,119 406,119 405,120 405,120 405,120 402,121 402,121 402,121 402,121 402,121 402,121 402,121 403,121 403,121 404,121 405,121 405,121 406,122 406,122 406,122 405,123 407,123 409,123 409,123 409,123 408,123 408,123 407,124 407,124 408,124 409,125 409,125 409,125 409,125 409,127 409,127 409,128 409,128 409,129 410,132 411,134 411,135 411,136 411,136 412,136 413,137 413,137 413,137 412,137 412,138 411,138 411,137 410,137 410,138 410,138 411,138 411,139 411,139 411,139 411,139 411,139 411,140 411,140 411,140 411,141 411,141 411,141 411,143 411,143 411,143 411,143 410,144 410,144 409,146 408,146 408,147 408,150 408,150 408,150 407,150 407,150 407,151 407,151 407,151 406,151 406,152 406,152 406,152 405,152 405,153 405,153 405,153 405,153 404,153 404,153 404,154 404,154 406,155 406,155 406,155 406,155 405,157 405,158 405,158 406,158 406,158 406,159 406,159 407,160 407,160 406,161 406,162 406,163 405,164 405,164 405,164 405,164 406,165 406,165 407,165 407,165 406,165 405,165 405,165 404,166 404,166 403,168 402,168 401,168 401,169 401,169 401,170 401,170 401,170 400,171 400,171 400,172 400,172 400,172 400,172 400,172 400,174 401,174 401,174 401,174 401,174 402,175 402,175 402,175 402,176 402,176 402,176 402,177 402,177 402,177 403,177 403,177 404,177 404,177 404,178 405,178 405,178 406,178 406,178 406,178 406,178 406,179 406,179 407,179 408,179 411,179 411,180 411,180 411,180 413,180 414,181 415,181 416,181 416,181 416,181 417,181 418,181 418,181 419,181 419,181 420,181 420,181 421,181 422,182 422,182 423,182 427,183 427,183 427,183 426,184 426,184 425,185 424,188 423,189 422,191 422,191 421,191 421,191 420,191 420,190 420,190 420,190 419,190 419,190 419,190 419,190 419,190 418,190 418,190 418,192 418,192 416,193 416,193 415,193 415,193 415,193 414,192 414,192 413,192 413,193 412,193 412,193 412,193 412,193 412,193 412,193 412,193 412,193 412,193 412,193 412,193 412,193 412,193 413,193 413,194 413,194 413,194 413,194 413,194 413,194 413,194 413,194 413,194 412,195 412,195 412,195 412,195 412,195 412,195 412,195 412,195 412,196 412,196 411,196 411,196 411,196 411,197 411,197 411,197 411,198 411,198 410,198 410,198 410,198 410,198 410,198 410,198 410,198 410,198 410,199 410,199 410,199 410,199 410,199 410,199 410,199 410,199 410,199 410,199 410,199 410,199 410,199 410,199 410,200 410,200 410,200 409,200 409,200 409,200 409,200 409,200 409,200 409,200 409,200 409,200 409,200 409,200 410,200 410,200 409,200 409,200 409,200 409,200 409,200 409,200 409,200 409,200 409,200 409,200 409,201 409,201 409,201 409,201 409,201 409,201 409,201 409,201 409,201 408,201 408,201 408,201 408,202 408,202 408,202 408,202 408,202 408,202 408,202 408,202 408,202 408,202 408,202 408,202 408,202 408,203 408,203 408,203 408,203 408,203 408,203 408,203 408,203 408,203 408,203 408,203 408,203 408,204 408,204 408,205 408,205 408,205 408,205 408,205 408,205 408,205 408,205 408,205 408,206 408,206 408,206 408,207 408,207 408,207 408,207 408,207 408,207 408,207 408,207 408,207 408,207 408,208 408,208 407,208 407,208 407,209 407,209 407,209 407,209 407,210 407,210 407,210 407,210 406,210 406,210 406,210 406,210 406,210 406,210 406,210 406,210 406,210 406,210 406,210 406,210 406,210 406,210 405,210 405,210 405,211 405,211 405,211 404,211 404,211 404,212 404,212 404,212 404,212 404,213 404,213 404,213 404,214 404,214 404,214 404,215 404,215 404,215 404,215 404,215 404,215 404,216 404,216 404,216 404,216 403,216 403,216 403,216 403,216 403,216 403,216 403,217 404,217 404,217 404,218 404,218 404,218 404,218 404,218 404,218 404,218 404,219 404,219 404,219 404,220 404,220 404,220 404,220 404,220 404,221 404,221 404,221 404,221 404,221 404,222 404,222 404,222 404,222 404,222 404,222 404,222 404,222 404,222 404,222 404,222 404,222 405,222 405,223 405,223 405,223 405,223 405,223 405,223 404,223 404,223 404,223 404,223 405,224 405,224 405,224 405,224 405,224 405,224 405,225 405,225 405,225 405,225 405,225 405,226 405,226 405,226 405,226 405,226 405,226 405,227 405,227 405,227 405,227 405,227 405,227 405,227 405,227 405,227 405,227 405,227 405,227 405,227 405,227 405,227 405,227 405,228 405,228 405,228 405,228 405,228 405,228 405,228 405,228 405,228 405,228 405,228 405,229 405,229 405,229 405,229 405,229 405,229 405,229 405,229 405,229 405,229 405,229 405,229 405,229 405,229 405,229 405,229 405,229 405,229 405,230 405,230 405,230 406,230 406,230 406,230 406,230 406,230 406,231 406,231 406,231 406,231 407,232 407,232 407,232 407,233 407,233 407,233 407,233 407,233 407,233 407,233 407,233 407,233 407,233 407,234 407,234 407,234 407,234 407,234 407,234 407,234 407,234 407,234 407,234 407,234 407,235 407,235 407,236 407,236 407,236 407,236 407,237 407,239 406,240 406,240 406,240 406,241 405,242 405,242 405,242 405,242 405,242 405,242 405,243 405,243 405,243 405,243 404,244 404,244 403,245 403,246 403,246 404,248 404,249 404,249 405,251 406,251 406,251 405,251 405,252 403,252 403,252 402,252 402,251 402,251 400,250 399,250 399,250 398,249 398,249 398,249 397,249 396,249 396,249 395,249 395,249 394,249 393,249 393,249 392,249 392,249 391,250 391,250 390,250 390,250 389,250 388,250 387,250 387,250 386,250 385,250 385,250 384,250 384,250 383,250 382,251 381,251 380,251 380,251 380,251 378,251 377,251 376,251 376,251 375,251 375,251 374,251 373,251 373,251 373,252 373,252 373,252 373,253 373,253 373,253 374,254 374,254 374,254 374,254 374,254 375,255 375,255 375,255 375,255 375,256 375,256 375,256 375,257 375,257 375,257 375,258 375,259 375,259 375,259 375,260 375,260 376,261 376,262 376,262 376,262 376,263 376,263 374,263 372,264 372,264 372,264 372,264 372,264 372,264 371,264 371,264 371,264 371,264 371,264 371,264 371,264 371,264 371,264 371,264 371,264 370,264 370,264 370,264 370,264 370,264 370,264 370,265 370,265 369,265 369,265 369,265 369,265 369,265 369,265 369,265 369,265 369,266 368,266 368,266 368,266 368,266 368,266 368,267 367,267 367,267 367,267 367,267 366,267 366,267 366,267 366,267 366,267 366,267 365,267 365,267 365,267 365,267 365,267 365,267 365,268 364,268 364,268 364,268 364,268 364,268 364,268 363,268 363,268 363,268 363,268 363,268 363,268 363,268 363,268 363,269 362,269 362,269 362,269 362,269 362,269 362,269 362,270 362,270 361,270 361,271 361,271 361,272 360,272 360,272 359,273 360,273 360,273 359,274 359,274 358,274 358,274 357,274 357,274 357,274 357,273 356,272 354,270 354,270 353,270 353,270 353,270 353,270 353,270 353,270 353,270 352,271 352,271 352,271 352,271 352,271 351,271 351,271 351,271 350,271 350,271 350,272 349,272 349,272 349,272 348,272 348,272 348,273 348,273 348,273 349,273 349,273 349,273 349,273 350,273 350,274 350,274 350,274 350,274 351,274 351,274 351,274 351,274 351,274 351,274 351,274 351,275 351,275 351,275 351,275 351,275 351,275 351,275 351,275 351,275 351,275 351,275 351,275 351,275 351,275 351,275 352,276 352,276 352,276 352,276 352,276 352,276 352,277 352,277 351,277 351,277 351,277 351,278 351,277 351,277 350,278 350,278 350,278 349,278 349,278 349,279 348,279 348,279 348,279 348,279 347,279 348,280 348,280 347,281 347,281 347,281 348,282 349,283 349,284 349,284 348,284 348,284 347,284 347,284 347,283 347,283 345,284 344,284 344,284 343,284 344,285 344,285 344,286 344,286 344,286 343,286 344,286 344,287 344,287 344,287 343,287 343,287 343,287 339,288 339,288 340,289 340,289 340,290 340,290 340,289 339,289 339,289 339,290 337,291 338,291 336,291 335,290 335,290 335,291 335,291 333,290 333,290 333,291 332,293 332,293 332,294 332,294 332,294 332,294 332,294 332,294 332,294 332,294 331,294 331,294 331,294 331,294 330,295 330,295 330,295 330,295 330,295 329,295 329,295 328,295 327,295 326,295 326,295 325,295 326,295 327,297 329,300 328,300 326,300 319,300 318,300 317,301 317,301 317,301 316,301 316,302 315,302 315,302 315,302 315,302 315,302 315,303 315,303 315,303 314,303 314,303 314,303 313,303 313,303 313,303 313,303 313,303 312,304 312,304 312,304 311,304 311,304 311,304 310,304 309,304 310,305 308,305 308,305 307,305 307,306 307,306 307,306 305,306 305,307 302,307 301,307 301,308 301,308 302,309 302,309 302,309 304,311 303,311 304,312 306,313 306,313 307,313 307,313 309,312 309,312 309,313 309,313 309,313 309,313 309,313 309,314 309,314 309,315 309,315 310,315 310,316 311,316 311,316 312,316 312,316 313,316 313,316 313,316 313,316 313,316 313,316 313,316 313,317 313,317 314,318 314,318 314,318 313,318 313,319 313,319 313,320 314,320 314,320 315,321 315,321 315,321 315,321 315,322 315,323 315,323 315,323 315,324 315,324 315,325 316,326 315,326 315,327 317,327 317,328 316,329 316,329 316,329 316,330 317,330 317,330 318,330 318,330 318,330 319,330 320,330 321,330 322,330 324,330 324,330 326,330 325,330 325,331 325,332 325,332 325,332 325,333 325,333 325,333 327,334 327,334 327,334 327,335 327,335 327,335 327,335 328,335 328,335 329,336 329,336 329,336 330,336 330,337 330,337 330,337 331,337 331,336 331,337 331,338 332,338 332,339 332,339 332,339 332,339 331,342 331,342 330,345 330,345 332,345 332,345 333,346 333,347 334,347 333,348 333,348 333,349 332,350 332,351 332,351 334,351 334,351 334,351 334,351 334,352 334,352 334,352 333,353 333,354 334,355 333,355 332,355 332,355 331,355 331,355 331,355 330,354 328,354 328,354 327,354 327,354 326,354 326,354 323,354 323,356 323,356 322,356 321,356 321,356 320,356 319,356 319,356 319,356 318,356 318,357 317,357 317,357 316,357 316,357 316,357 316,358 316,358 315,359 315,359 315,359 315,359 315,359 315,359 314,359 314,359 314,359 313,359 312,359 310,360 310,360 310,360 309,359 309,359 307,360 307,360 307,360 307,360 306,361 304,361 302,360 302,360 302,361 300,362 300,362 299,362 299,362 298,362 297,363 296,363 296,363 295,362 292,362 292,362 291,362 291,362 291,362 289,362 289,361 288,361 288,361 288,361 288,361 288,361 284,362 283,362 282,362 282,363 282,363 282,363 282,363 282,363 282,363 282,363 282,363 282,363 281,364 281,364 281,364 281,364 282,364 282,364 282,364 282,365 282,365 282,365 283,366 283,366 283,366 284,366 285,367 285,367 287,368 288,369 289,370 291,370 291,371 291,371 291,371 291,373 291,373 291,374 291,374 290,374 290,374 290,374 290,375 290,375 290,376 290,377 289,378 289,378 289,378 289,378 289,379 291,381 292,381 292,381 297,381 297,381 297,381 297,384 297,385 297,386 297,386 297,387 297,387 297,387 297,387 297,387 297,388 297,388 297,388 297,388 297,389 297,389 298,388 298,388 298,388 298,389 298,389 298,390 299,390 299,390 299,390 299,391 298,391 298,391 298,391 298,391 298,391 299,391 299,391 299,391 299,392 300,392 300,392 300,392 300,392 301,392 301,392 300,393 300,394 300,394 299,395 299,395 299,395 299,395 299,395 298,395 298,395 298,395 298,395 299,395 299,396 299,396 300,396 300,396 300,397 301,397 301,397 301,397 301,397 300,397 300,397 300,397 300,397 300,397 300,398 300,398 300,398 300,398 300,398 300,398 300,398 300,398 300,398 301,399 301,399 301,399 301,399 301,399 302,399 303,399 303,399 303,399 303,399 305,400 305,400 305,400 305,400 305,399 305,399 305,399 305,399 306,399 306,399 306,399 307,400 307,400 306,400 306,400 307,400 307,400 307,400 306,400 306,400 306,401 306,401 306,401 307,401 307,401 307,401 307,401 307,401 307,401 307,401 307,401 307,400 307,400 308,400 308,400 309,400 309,400 309,400 309,400 310,400 310,400 310,400 309,400 309,401 309,401 309,401 309,401 309,401 309,401 310,401 310,401 310,401 310,401 310,401 310,402 310,402 310,402 310,402 310,402 310,402 310,402 310,403 311,403 311,404 311,404 311,404 311,404 311,403 311,403 311,403 311,403 312,403 312,403 312,403 312,404 313,404 313,404 313,404 314,404 315,404 315,404 315,404 316,405 316,405 316,405 317,405 317,405 317,405 317,405 318,405 318,405 318,405 318,406 318,406 318,406 318,406 318,406 318,406 318,406 318,407 318,407 318,407 318,407 318,408 317,408 317,409 318,409 318,409 318,409 317,410 312,411 312,411 310,411 310,411 310,411 307,413 307,413 306,414 305,414 303,415 303,415 303,415 303,415 303,415 302,415 301,416 301,416 300,416 300,416 300,417 300,418 300,418 298,418 298,421 298,421 298,422 298,422 298,422 298,423 298,424 298,424 298,424 298,424 298,425 297,425 298,425 299,426 299,426 298,426 298,426 298,426 293,427 293,427 293,428 293,429 294,432 293,433 293,435 293,435 292,435 291,435 290,435 289,435 289,435 289,435 289,436 289,436 288,437 288,438 288,439 287,439 287,439 286,440 286,440 286,440 288,440 289,440 292,440 291,442 290,442 289,443 288,443 288,443 288,443 288,444 288,444 288,444 287,444 287,444 287,444 284,446 283,446 282,447 282,447 281,447 279,449 277,449 276,450 275,450 273,450 273,451 273,451 272,451 272,451 271,451 270,451 268,451 268,451 267,451 266,451 266,451 265,451 265,451 264,451 264,451 263,452 262,452 262,452 261,452 259,452 257,452 256,452 255,452 254,452 250,453 250,453 249,453 246,454 246,454 244,454 243,454 242,455 242,455 242,455 241,456 241,457 241,457 240,458 239,458 237,460 236,463 236,463 236,464 235,464 234,464 233,465 233,465 233,465 232,466 232,466 232,467 232,467 231,468 231,468 231,469 230,469 230,469 230,469 229,470 229,470 230,470 229,471 229,471 229,471 229,472 229,472 229,472 229,473 228,473 228,473 228,473 228,473 228,474 228,474 228,474 227,475 227,475 227,475 227,476 227,476 226,476 226,476 226,476 227,476 227,476 227,476 227,476 226,476 226,476 226,477 226,477 226,478 226,478 226,479 226,480 223,480 223,481 223,481 223,481 223,481 222,481 222,482 222,482 222,482 222,482 221,482 220,483 220,483 219,484 219,484 219,485 219,485 220,485 220,485 221,485 221,486 221,487 221,487 221,488 221,488 220,489 220,489 220,489 220,489 220,489 219,489 219,492 219,492 219,492 220,494 218,494 218,494 218,494 218,494 218,495 218,495 218,495 218,495 217,495 217,495 217,495 217,495 217,495 217,495 217,496 217,497 217,497 217,497 217,498 217,498 217,498 216,499 215,500 215,500 214,500 214,500 213,499 213,499 212,499 212,499 212,499 212,498 211,497 211,496 211,496 210,496 210,496 210,495 209,495 209,495 208,495 208,495 207,496 207,497 207,497 207,498 205,498 206,498 205,498 205,497 205,496 204,495 204,495 204,490 204,490 204,490 204,490 204,489 204,486 203,487 201,487 200,487 200,486 200,486 199,485 199,484 199,484 200,484 200,484 200,483 200,483 200,482 200,482 200,481 200,481 200,481 200,480 199,479 198,477 198,477 198,477 197,477 197,477 193,477 193,477 193,475 194,473 194,473 194,472 194,471 194,470 194,468 194,467 193,466 193,466 192,465 192,465 192,465 192,465 192,465 192,466 192,466 191,466 191,466 193,466 192,469 192,469 192,469 187,468 184,468 184,468 183,467 183,467 181,467 181,467 180,467 180,467 179,467 179,467 178,468 178,468 176,469 176,470 175,469 175,469 175,469 175,468 175,467 175,466 176,466 175,465 174,465 174,465 174,463 174,463 172,462 172,461 170,461 170,461 171,459 171,459 171,458 171,458 168,458 168,458 167,458 165,457 164,457 163,457 161,457 161,456 161,456 161,455 161,453 161,453 161,453 161,453 161,453 162,451 162,451 162,451 162,451 162,448 162,445 162,445 162,444 162,443 162,443 159,442 159,442 159,441 159,440 159,440 159,440 159,439 163,438 163,438 163,435 164,432 164,430 164,430 165,427 164,427 162,427 162,427 162,427 162,426 161,425 161,425 160,424 160,424 160,424 159,425 159,425 159,424 159,424 158,424 157,423 157,423 156,423 156,423 155,424 155,424 154,424 153,424 153,425 152,425 152,424 151,423 151,423 150,422 150,421 150,421 149,419 149,419 148,419 147,417 146,417 146,417 146,416 145,415 144,414 144,414 144,414 144,414 142,414 142,414 142,414 141,413 141,413 140,413 139,413 139,413 139,413 138,412 138,412 137,411 137,411 137,411 137,410 137,410 137,410 137,408 137,408 136,409 136,409 133,408 134,406 131,405 131,405 131,405 131,405 131,405 131,405 130,404 130,404 129,404 129,404 128,403 128,403 128,403 128,403 128,403 127,403 127,403 126,403 126,403 126,403 125,401 125,401 125,400 123,401 123,400 121,400 121,400 118,399 118,398 118,398 115,396 115,396 115,396 114,396 114,396 113,396 113,396 112,394 112,394 112,394 112,394 111,392 111,392 110,389 110,389 110,389 106,389 106,389 106,388 106,388 105,387 105,387 105,386 105,386 105,384 104,384 104,384 103,383 103,383 102,382 102,382 102,381 101,381 101,381 101,380 100,378 100,378 100,377 100,377 99,376 98,375 98,375 97,373 97,373 97,373 97,373 100,372 99,372 99,372 99,372 98,371 97,371 97,371 97,370 97,370 95,368 95,368 95,368 95,368 96,368 96,368 97,367 98,366 99,366 99,366 99,365 99,365 99,365 99,365 99,364 100,364 100,364 101,364 103,363 104,363 104,363 105,363 106,363 107,363 108,363 109,363 109,363 109,363 109,363 108,361 108,361 108,361 108,360 108,360 107,359 107,358 107,358 106,357 105,356 105,356 104,356 104,356 104,356 104,355 104,354 104,353 104,352 104,351 104,351 104,351 104,351 104,351 104,351 104,351 105,351 105,351 105,351 105,351 105,351 106,351 106,351 106,351 106,351 107,351 107,351 107,351 107,351 108,351 108,351 108,351 108,351 108,351 108,351 109,351 109,351 109,351 110,351 110,351 110,351 110,352 111,352 111,352 111,352 111,352 111,352 111,352 111,352 111,352 112,353 112,353 112,353 112,353 112,353 112,354 112,354 113,354 113,354 113,354 114,354 114,355 114,355 114,356 115,356 117,356 118,356 119,356 119,357 119,357 119,357 120,357 120,357 120,357 121,357 121,357 121,357 122,357 122,357 122,358 122,358 122,358 124,357 124,357 124,358 124,358 124,358 124,358 124,358 124,358 124,358 125,358 126,358 126,359 126,359 126,359 126,359 126,358 126,358 127,358 127,357 127,357 127,357 128,357 128,357 128,357 128,357 128,358 128,358 128,358 129,358 129,358 129,358 129,358 130,358 130,358 131,358 131,358 131,358 131,357 131,357 131,357 131,357 131,357 132,357 132,357 133,357 133,357 133,357 133,358 133,358 133,357 134,357 134,357 134,357 134,357 134,357 135,357 135,357 136,357 136,357 136,357 137,357 137,357 137,357 137,357 137,357 137,357 137,357 138,356 138,356 140,356 142,356 144,356 144,356 145,355 145,355 145,355 145,355 146,355 146,355 146,355 146,355 147,355 147,356 148,355 149,355 150,355 150,355 151,355 151,354 152,354 152,354 152,354 152,354 153,353 153,353 153,353 154,353 156,353 156,353 156,353 156,353 157,353 158,353 159,353 159,353 159,353 160,353 161,353 161,353 161,354 161,354 161,354 162,354 163,354 163,354 164,354 164,354 164,353 164,353 164,353 164,353 165,353 165,353 166,353 166,353 166,353 167,353 169,353 170,353 170,353 170,352 171,352 171,351 171,351 171,350 171,350 171,349 171,349 170,348 171,348 171,347 171,347 171,347 172,346 172,344 172,344 172,343 172,343 172,343 171,343 170,342 170,342 168,343 167,344 166,344 166,344 165,345 164,343 164,343 164,343 164,342 164,342 165,342 165,342 165,342 165,342 165,342 165,342 165,342 166,341 167,340 167,340 168,338 168,338 169,338 169,338 169,337 169,337 169,336 168,334 168,334 167,334 166,334 165,334 165,335 165,335 164,333 164,333 165,333 165,333 165,332 165,331 165,331 164,330 164,330 166,329 167,329 167,329 167,329 167,328 167,328 167,327 167,327 168,327 168,327 168,326 168,325 168,325 168,323 168,323 167,322 166,321 166,320 166,320 166,319 165,318 164,317 164,317 163,317 163,317 162,317 161,317 161,316 160,316 160,316 159,316 159,316 159,315 155,314 155,314 155,315 152,314 151,314 151,314 150,314 150,314 149,314 149,314 146,314 146,314 145,314 145,314 144,314 144,314 144,314 143,314 143,314 142,317 142,317 142,317 141,317 141,317 140,317 140,317 138,317 138,317 138,317 134,316 134,316 134,313 134,313 129,312 128,314 126,313 124,312 123,314 121,313 119,313 120,311 119,311 118,310 117,310 117,311 117,311 116,311 116,311 116,311 116,311 114,311 113,312 113,311 112,311 111,311 111,313 111,313 107,313 107,313 106,313 106,315 105,315 102,314 102,314 101,313 100,313 100,313 96,313 96,313 97,316 96,316 95,318 95,318 96,318 97,319 97,319 97,319 97,319 96,319 95,319 94,319 94,319 93,319 93,319 92,319 91,319 89,318 89,318 88,318 87,318 87,318 87,318 83,318 83,318 82,318 82,318 81,318 80,317 80,317 80,317 79,317 79,317 78,317 76,317 75,316 75,316 74,316 74,316 73,316 73,316 71,317 71,316 71,316 71,315 71,315 71,314 71,314 71,314 71,312 71,312 70,312 69,312 69,312 68,311 68,311 66,311 66,311 66,311 65,310 65,310 65,310 65,310 65,310 65,310 65,309 65,309 64,309 63,309 60,308 60,308 60,308 60,308 60,308 60,308 60,308 57,308 57,308 57,308 54,307 54,308 53,307 52,307 52,307 51,307 51,306 47,305 47,304 47,302 45,302 45,300 46,300 46,300 47,298 47,298 43,297 43,297 44,296 44,296 44,294 44,294 44,293 42,293 42,292 42,292 41,292 41,292 40,292 40,291 40,290 39,290 39,290 38,290 40,287 40,287 37,286 28,283 28,283 28,283 28,282 28,282 27,282 27,282 28,282 28,281 29,281 29,281 30,278 31,277 32,275 32,274 33,272 33,271 34,270 34,269 34,269 34,268 34,268 34,268 34,267 34,267 34,266 34,265 34,265 35,264 35,264 35,263 37,261 37,259 40,260 47,261 47,261 47,261 47,261 47,261 50,261 51,261 52,261 54,261 54,261 54,261 54,261 54,261 55,261 55,261 55,261 54,260 53,260 52,258 51,258 50,257 50,257 51,256 51,256 50,255 50,255 53,254 53,254 51,251 51,251 54,249 54,250 55,250 56,250 57,248 57,248 57,248 57,247 57,247 57,247 58,247 59,246 60,246 60,246 59,245 59,244 59,243 59,243 60,242 60,242 60,242 60,240 60,240 58,240 56,239 56,239 56,239 56,239 57,238 57,238 57,238 57,238 56,237 56,237 57,237 57,237 57,236 58,236 58,236 59,236 60,235 60,235 60,236 60,236 62,235 62,235 62,234 62,234 62,234 62,234 62,233 63,233 64,232 64,232 64,232 64,231 64,231 64,230 63,230 63,230 63,230 63,230 63,229 62,228 62,228 62,228 60,228 60,227 59,227 59,227 59,227 58,227 58,227 58,226 56,226 56,225 54,225 54,226 54,226 54,226 52,225 52,225 51,225 50,225 48,226 47,226 47,225 47,225 47,225 47,225 46,225 46,225 46,224 45,224 45,224 45,223 45,223 45,223 45,222 45,222 45,221 46,221 46,221 47,220 47,220 47,220 47,220 47,220 48,220 48,219 47,219 45,219 44,219 41,219 40,219 38,219 37,219 37,219 37,219 37,219 36,219 35,219 35,219 35,219 34,219 32,219 31,219 30,219 29,219 29,219 27,219 27,219 26,219 26,219 26,219 26,220 26,220 26,216 26,216 23,216 21,216 21,217 20,216 20,218 19,218 18,218 17,218 16,217 16,217 16,217 16,217 17,216 16,216 16,216 13,214 11,214 9,213 9,213 9,212 9,212 9,212 9,212 8,212 8,212 6,211 6,211 6,211 6,211 7,210 7,209 5,209 4,209 3,209 3,207 4,207 4,205 4,205 4,205 3,205 3,205 3,204 3,204 2,204 3,203 3,203 3,203 4,202 4,201 4,201 2,201 2,201 1,201 1,201 1,201 1,201 1,200 1,200 0,200 0,200 0,199 1,199 1,199 1,198 1,197 1,197 2,195 2,195 2,195 2,195 3,194 3,194 3,194 3,193 3,193 4,193 4,192 4,192 5,192 5,192 6,192 8,192 8,191 8,191 9,191 8,189 9,189 10,189 13,190 14,190 14,190 14,189 14,188 15,188 15,188 16,186 16,186 16,186 16,185 16,185 16,185 16,185 17,185 17,185 19,186 20,186 20,186 20,185 23,186 23,186 23,187 23,187 23,187 26,187 27,187 27,188 28,188 30,188 31,188 31,188 32,188 32,188 32,188 31,187 32,186 32,186 33,183 34,184 34,184 35,184 36,184 37,185 37,185 38,184 40,182 43,181 43,181 42,180 42,180 44,178 45,178 45,178 45,176 45,176 46,175 45,175 45,175 45,174 45,174 44,174 43,173 43,173 44,173 44,173 45,173 45,172 45,172 45,172 46,171 46,171 46,171 45,170 45,169 45,169 45,169 46,168 46,168 46,168 47,167 47,167 48,167 48,167 49,166 50,166 50,165 51,165 51,165 52,164 52,164 52,163 55,161 55,161 54,160 54,160 54,160 54,159 52,158 52,158 51,158 51,158 51,158 51,158 51,158 50,156 50,156 49,156 49,157 49,157 48,157 48,157 48,156 48,156 48,156 48,156 48,155 48,155 48,154 48,154 47,155 47,155 47,154 47,154 47,154 46,154 46,153 45,151 45,151 45,150 45,150 44,149 44,149 44,149 42,147 41,146 41,146 40,145 39,145 38,145 31,142 31,141 31,141 31,141 31,140 31,140 30,141 30,141 30,141 29,140 28,140 28,139 27,139 27,139 26,138 25,138 25,138 24,137 23,137 23,137 23,136 23,136 23,136 22,135 22,134 22,134 22,134 22,134 22,133 22,133 22,133 22,133 22,132 22,132 22,132 22,132 22,131 22,131 21,131 21,131 21,131 21,130 21,130 22,130 22,130 23,130 23,130 23,128 23,128 23,128 23,128 23,128 23,128 23,127 23,127 23,127 23,127 23,126 23,126 27,125 26,124 26,123 25,123 25,123 24,122 24,122 24,121 24,121 24,121 24,120 24,120 24,120 24,119 24,119 24,119 23,117 23,117 23,117 22,117 22,117 23,117 23,116 23,116 22,116 22,116 22,116 22,116 22,115 22,115 21,115 21,115 21,115 21,115 21,115 19,114 19,114 19,114 19,113 18,113 18,113 17,113 16,113 16,113 16,112 16,112 16,111 16,111 16,110 16,110 16,110 16,109 14,109 14,108 13,107 13,106 13,106 14,105 14,104 14,99 14,99 14,99 14,97 14,97 14,97 14,97 13,97 13,96 14,94 13,94 14,94 14,92 14,91 14,91 14,91 13,90 14,89 14,89 14,88 15,87 15,86 15,85 16,85 16,84 16,84 16,84 16,83 17,82 17,82 17,81 17,81 17,81 16,80 16,80 16,79 16,78 16,77 16,77 16,77 17,77 17,77 17,76 17,76 18,76 19,76 20,76 20,76 20,76 21,76 20,76 21,75 20,75 20,74 21,74 22,74 22,73 22,73 23,73 24,73 24,73 24,72 25,72 25,71 25,71 25,70 25,70 27,69 27,68 27,68 27,67 27,67 27,66 27,66 27,66 29,65 29,64 29,64 29,64 30,64 31,63 34,63 35,63 36,62 36,62 36,62 37,62 37,63 38,63 38,63 38,63 40,63 43,64 43,64 44,64 46,64 46,64 47,63 47,63 48,63 48,63 48,63 48,63 48,63 48,63 47,62 47,62 47,62 48,61 48,61 48,60 49,60 50,59 50,59 52,60 52,60 52,60 52,59 52,59 52,59 53,58 53,58 53,57 53,56 53,56 53,55 53,55 53,55 53,55 53,55 52,54 52,54 53,54 53,54 54,54 54,54 54,54 54,54 55,54 55,54 55,55 55,55 55,55 56,55 57,55 57,55 57,56 58,56 58,56 58,56 58,56 59,57 60,57 60,57 61,57 61,57 62,58 62,59 62,59 62,59 62,60 62,60 63,60 63,61 63,61 63,61 63,62 63,62 63,62 64,62 64,62 64,63 64,64 65,64 66,63 66,63 66,63 66,63 66,61 66,61 68,61 68,60 68,60 68,59 68,59 69,59 70,59 70,59 70,59 71,60 71,60 71,60 72,60 73,61 73,61 74,61 74,61 74,62 74,62 75,62 75,62 74,63 74,63 74,63 76,63 76,63 79,64 79,64 80,64 80,63 80,63 80,63 81,63 82,64 83,64 83,64 83,64 85,63 85,63 85,63 86,63 86,63 86,64 86,64 87,64 87,65 86,65 85,65 87,66 88,66 90,67 91,66 91,66 91,66 92,66 93,67 93,66 93,66 95,65 95,65 96,65 98,66 98,67 98,67 98,67 98,67 98,67 99,67 99,67 99,67 99,68 98,68 98,68 98,69 98,69 98,70 97,72 97,72 97,73 97,73 97,73 98,73 98,74 98,74 98,75 98,76 98,76 98,77 98,78 100,77 101,77 103,77 103,77 104,77 105,77 105,78 105,78 105,79 105,79 105,79 106,79 106,79 107,79 107,79 107,79 107,80 107,82 107,82 107,83 107,83 107,85 107,85 108,86 108,87 108,88 108,89 108,89 108,89 108,90 108,90 108,90 107,90 105,90 105,90 104,92 109,93 110,93 111,93 114,92 114,92 114,93 115,93 115,93 116,94 116,95 116,95 117,96 117,96 117,97 118,97 118,97 118,97 120,98 121,98 121,98 121,98 122,99 122,99 122,100 122,101 123,101 123,102 123,102 124,102 125,103 126,104 127,105 127,105 128,105 128,105 129,104 129,104 130,104 131,104 131,104 131,103 131,103 132,103 133,102 133,102 133,102 133,103 133,103 133,104 133,104 133,105 133,105 133,106 133,106 134,107 134,107 135,108 135,108 135,108 135,109 136,109 136,109 137,109 137,109 138,110 139,111 139,111 139,112 139,112 141,112 141,112 142,113 142,113 142,114 141,114 141,114 143,115 145,115 146,115 149,116 149,116 150,114 150,114 149,113 149,113 150,112 150,112 151,113 151,113 151,112 152,112 152,112 152,112 152,112 152,112 153,111 153,111 154,111 154,111 155,108 155,108 156,108 156,108 157,107 158,107 158,106 158,106 157,106 157,106 157,105 157,105 157,105 158,105 159,105 159,105 159,102 159,100 159,100 159,100 158,100 158,100 158,100 157,100 157,99 158,98 158,98 157,98 157,98 157,98 158,97 158,97 159,96 159,96 159,96 160,95 160,95 161,94 161,94 161,94 161,94 162,93 162,93 163,93 163,93 163,93 164,91 164,90 163,90 163,90 163,89 163,89 163,89 162,89 162,89 162,89 162,89 162,89 161,89 161,87 161,86 161,86 160,86 160,86 160,85 160,84 160,84 160,84 161,82 160,82 160,81 160,81 160,81 160,81 160,80 160,79 160,78 160,78 161,76 162,76 162,76 162,75 163,74 163,73 163,73 164,73 164,73 164,72 164,71 165,70 165,70 165,69 165,69 165,68 165,68 166,67 166,67 166,66 166,66 167,66 167,65 170,66 171,67 172,69 173,69 173,69 173,69 174,69 175,69 175,69 176,69 177,69 177,69 177,69 178,69 178,68 179,68 180,68 180,68 181,68 182,68 182,68 183,68 183,68 185,68 188,67 189,67 189,66 190,66 194,66 194,66 194,64 194,64 194,64 195,64 196,63 196,63 196,63 196,63 196,62 196,62 196,62 196,62 196,62 196,61 196,61 196,61 197,61 197,61 197,61 197,61 197,61 197,61 197,61 197,60 197,60 197,60 197,60 196,59 196,59 196,58 196,58 196,58 196,58 195,58 195,58 194,58 194,58 195,57 195,57 195,57 194,57 194,57 194,57 194,57 193,57 193,57 193,57 193,57 193,57 192,57 192,57 192,57 192,57 192,57 191,58 191,58 191,58 190,58 190,58 190,58 190,58 190,58 189,57 189,57 189,57 188,57 188,57 188,57 187,57 187,56 188,56 188,56 189,56 189,56 190,56 190,55 190,55 190,54 190,53 189,53 189,53 189,53 189,52 189,52 189,52 189,52 189,52 189,52 189,52 189,52 189,52 189,52 190,52 190,52 190,52 190,52 191,52 191,52 191,52 191,53 191,53 191,53 191,53 192,53 192,53 192,52 193,52 193,52 193,52 194,51 194,51 194,51 194,51 194,52 195,52 195,52 195,52 196,52 196,51 196,51 196,51 196,51 197,51 197,51 197,51 197,51 197,51 197,51 197,51 197,51 197,51 197,52 197,52 198,51 198,51 198,51 198,51 198,51 199,50 199,50 199,51 199,51 199,51 199,51 200,51 200,51 200,51 200,51 201,51 201,51 201,51 202,50 202,50 202,50 203,50 203,50 204,49 204,49 204,49 204,49 204,49 203,49 202,49 203,48 203,48 204,48 204,48 204,48 205,47 205,47 205,47 205,47 205,47 205,47 205,47 205,46 206,46 206,46 206,45 206,44 206,44 206,44 205,44 205,44 205,44 205,44 205,44 204,42 203,42 203,41 202,39 202,38 201,37 201,37 203,37 203,37 203,37 203,34 203,34 203,33 204,33 204,33 204,33 205,34 206,34 206,34 206,34 207,34 207,34 207,34 209,34 210,34 211,34 211,34 211,35 211,35 211,36 210,37 210,37 211,39 216,40 216,40 223,41 223,41 229,42 230,42 230,42 230,42 230,43 229,45 229,46 229,46 228,50 228,50 228,50 227,50 227,50 227,50 227,50 227,50 227,50 226,51 226,51 226,52 225,52 226,54 226,54 226,54 226,54 226,55 226,55 226,55 227,55 227,55 229,56 229,56 230,57 230,57 231,57 231,56 232,56 231,56 231,56 236,53 236,53 237,53 237,54 237,54 239,56 240,57 241,59 242,60 242,60 242,60 242,61 242,61 242,61 242,62 242,62 242,63 242,63 242,63 243,63 243,63 243,64 243,64 243,65 243,65 243,65 243,65 243,65 243,65 244,65 244,65 244,65 245,64 245,64 246,64 247,64 248,64 249,64 251,63 252,63 253,62 253,62 253,62 253,61 253,60 257,59 257,59 257,58 256,56 256,56 256,57 255,57 254,55 254,55 254,55 254,55 254,55 254,55 254,54 255,54 256,54 257,54 260,53 261,53 265,52 266,52 266,53 266,53 267,53 273,52 273,52 273,51 272,51 272,50 272,50 272,49 271,49 271,48 271,47 271,46 271,45 272,44 273,43 273,43 274,44 275,44 276,45 277,45 277,45 278,46 278,46 278,46 279,46 279,46 279,45 281,45 281,44 283,44 283,43 285,43 285,43 285,42 285,42 286,42 286,41 286,41 290,41 290,41 291,41 291,40 294,39 295,39 295,39 295,39 296,39 296,39 297,39 298,39 299,39 302,39 302,39 302,39 302,39 305,39 305,39 305,38 306,37 306,37 306,37 307,38 307,38 309,38 309,38 310,38 311,38 313,37 314,37 315,37 316,37 318,37 318,37 319,37 319,38 320,38 322,39 322,39 323,39 323,39 324,38 325,38 325,38 325,37 325,37 325,37 326,37 326,37 325,34 325,34 325,34 325,33 323,34 323,34 323,33 322,32 322,31 322,31 322,31 323,31 323,31 324,31 324,31 324,31 323,30 323,30 323,29 323,29 322,28 322,28 323,27 323,27 324,26 324,26 324,26 326,25 327,25 327,25 327,25 327,24 327,24 328,23 328,22 328,22 328,21 328,21 327,21 327,21 329,18 330,16 330,16 330,16 331,15 333,13 333,13 334,12 334,11 335,10 336,8 337,7 337,7 336,6 336,6 336,6 337,5 337,5 338,5 338,5 338,5 338,4 339,3 340,2 340,2 340,2 341,1 341,1 341,1 341,1 342,2 342,2 342,2 342,1 343,1 343,1 343,1 345,0 345,0 346,1 346,1 347,1 348,0" id="102" class="canton" fill="steelblue" stroke-width="1" stroke="white" geotype="canton" geoname="Attignat" code_insee="102" code_departement="1" nom_departement="Ain" code_region="84" nom_region="Auvergne-Rhône-Alpes"/></svg>