<?xml version="1.0" encoding="utf-8"?>
<svg version="1.1" id="svgmap" xmlns="http://www.w3.org/2000/svg" xmlns:xlink="http://www.w3.org/1999/xlink" x="0px" y="0px" width="100%" height="100%" viewBox="0 0 500 358">
<polygon points="3,163 5,163 5,162 6,162 6,162 7,162 8,162 10,162 10,162 12,162 12,162 13,163 14,163 14,163 15,163 15,164 15,164 15,165 14,165 14,166 13,166 13,166 13,167 13,167 13,168 13,168 13,169 13,169 14,169 14,169 15,169 15,169 15,169 16,169 16,168 17,168 18,167 20,167 22,166 24,165 25,164 26,164 26,165 27,165 28,165 29,165 30,164 30,164 30,163 30,163 31,162 31,162 32,161 32,161 36,158 38,157 39,156 39,156 40,156 40,155 40,155 42,155 42,155 44,154 47,153 47,153 48,153 48,153 48,153 48,152 48,152 48,151 48,150 49,147 50,146 50,146 50,145 50,145 50,144 51,144 51,143 53,142 54,142 54,142 56,141 59,141 60,140 61,140 62,140 64,139 66,139 67,138 69,138 70,137 70,136 71,136 71,135 72,134 72,134 74,132 76,129 75,128 75,127 75,125 75,125 75,125 75,125 76,125 76,125 76,125 77,125 78,125 78,126 78,126 78,127 79,127 79,128 80,129 80,129 80,129 82,130 83,130 83,130 85,130 85,130 86,130 87,130 89,129 89,129 90,129 90,129 92,129 93,129 93,129 94,129 94,128 94,127 94,127 94,126 94,125 94,124 94,123 94,123 94,121 94,121 93,120 92,119 92,119 92,118 91,117 91,117 91,117 91,115 91,115 91,114 91,114 91,114 91,113 91,113 92,112 93,111 93,111 94,111 94,111 95,111 96,111 96,111 97,111 97,111 98,111 99,111 100,111 100,111 101,110 101,110 102,110 103,110 103,109 104,109 104,108 104,108 104,108 104,107 104,107 104,107 104,107 103,107 103,107 102,106 101,106 101,106 101,106 101,106 101,105 101,105 103,105 103,104 105,104 105,104 106,103 106,103 106,103 106,104 106,104 106,104 107,104 107,104 108,103 108,103 109,102 110,102 110,101 110,101 110,100 110,100 111,100 111,99 111,99 112,98 112,98 112,97 113,97 112,97 112,96 112,96 112,96 111,95 111,95 111,95 111,94 111,94 112,94 112,94 112,94 113,94 114,94 115,94 116,94 117,94 118,94 119,93 119,93 120,93 120,93 120,93 120,92 120,91 120,90 121,89 121,88 121,88 122,88 123,88 124,87 124,86 124,86 125,86 125,86 126,87 126,87 126,87 126,87 127,86 128,86 129,85 130,84 130,83 130,83 131,83 131,81 131,81 133,79 133,78 133,78 134,76 134,76 136,74 137,73 138,72 139,71 139,71 140,71 144,71 146,70 147,70 148,70 148,70 148,70 148,70 148,70 149,70 149,70 149,70 149,70 149,70 149,70 149,70 149,69 149,69 149,69 149,69 150,69 150,69 150,68 150,68 151,68 151,68 152,67 152,67 153,67 153,67 153,67 153,67 153,67 162,62 162,62 162,62 162,62 162,62 162,62 162,62 171,62 171,62 171,62 172,62 174,61 174,61 174,61 175,61 175,60 185,56 185,56 187,55 187,55 199,55 199,55 199,55 199,55 199,54 199,54 199,54 198,53 198,53 198,53 198,53 198,52 198,52 198,52 199,51 199,51 199,51 199,51 199,51 199,51 198,51 198,51 198,50 198,50 198,50 198,50 197,50 197,50 197,50 197,50 197,50 197,49 197,49 197,49 196,49 196,49 196,49 196,49 196,49 196,49 196,49 196,48 196,48 196,48 196,48 196,48 196,47 196,47 196,47 195,47 195,47 195,46 195,46 194,46 194,46 194,46 194,46 194,46 194,45 194,45 194,45 194,45 194,45 194,45 194,45 193,45 193,45 193,45 193,45 193,45 193,44 193,44 193,44 193,44 193,44 193,44 193,44 193,44 193,43 193,43 193,43 193,43 193,43 193,43 193,43 193,43 193,43 193,43 193,42 193,42 193,42 192,42 192,42 192,42 191,41 191,41 190,41 190,41 190,41 189,41 189,41 189,41 189,41 188,41 188,41 188,40 188,40 188,40 188,40 187,40 187,40 187,40 187,40 187,39 187,39 187,39 187,38 187,38 187,38 187,38 187,38 187,38 187,38 187,38 186,38 186,38 186,38 185,37 185,37 185,37 185,37 185,37 185,37 184,37 184,37 183,37 183,37 183,37 183,37 183,37 183,37 183,36 182,36 182,36 182,36 182,36 182,36 182,35 182,35 181,35 180,36 179,36 178,36 176,36 175,36 169,36 159,37 158,37 158,37 150,37 149,37 148,37 148,37 146,36 145,35 144,34 143,34 141,33 139,32 138,32 137,31 137,31 137,30 137,28 136,29 136,29 136,29 135,30 135,30 135,30 135,30 134,31 134,31 134,31 134,31 133,31 133,32 133,32 131,33 131,33 131,33 131,33 130,33 130,33 130,33 130,33 130,33 130,32 129,32 129,32 129,32 129,32 129,32 128,32 128,32 128,32 128,32 128,32 127,32 127,32 127,32 127,32 126,32 126,32 126,32 125,32 125,32 124,32 124,32 124,32 123,32 123,32 123,32 123,33 123,33 122,33 122,33 122,33 121,33 121,33 120,33 120,33 120,33 120,33 119,33 119,34 119,34 119,34 119,34 119,34 118,34 118,34 117,34 117,35 117,35 117,35 117,35 116,35 116,35 115,35 115,35 114,35 113,35 113,35 113,34 113,34 113,34 112,35 112,35 111,35 111,35 111,36 111,36 110,36 110,36 110,36 109,37 109,37 109,37 109,37 109,37 109,37 109,37 109,37 109,37 109,37 108,37 108,37 108,37 108,37 108,37 108,38 108,38 108,38 108,38 108,38 107,38 107,38 107,38 106,38 106,38 106,38 106,38 106,38 106,38 106,38 106,39 105,39 105,39 105,39 105,39 105,39 104,39 104,39 104,39 104,39 104,40 103,40 103,40 103,40 103,40 103,40 103,40 103,40 103,40 102,40 102,40 102,40 102,40 102,40 101,41 100,41 100,42 100,42 99,42 99,42 99,42 99,42 98,42 98,42 98,42 98,42 98,43 98,43 97,43 97,43 97,43 96,43 96,43 96,43 96,43 96,43 96,43 96,44 96,44 96,43 96,43 96,43 97,42 97,42 97,42 97,42 97,42 96,41 97,41 98,40 99,40 99,40 104,36 108,32 109,31 109,31 109,31 109,30 109,30 110,30 111,29 111,29 112,28 113,28 113,27 114,27 114,27 115,26 116,25 116,25 117,25 117,24 117,24 118,24 120,23 121,23 121,22 121,22 122,22 122,22 123,21 123,21 124,21 124,21 125,21 126,20 126,20 127,20 127,20 127,20 127,19 127,19 127,19 127,18 127,18 127,18 127,18 127,18 126,18 126,18 126,18 126,18 126,18 126,18 126,18 126,18 126,19 126,19 126,18 126,18 126,18 125,18 125,18 125,17 125,17 124,17 124,17 124,17 124,17 124,17 124,15 124,15 124,15 124,15 124,14 124,14 124,14 124,14 124,13 124,13 124,13 123,12 124,12 124,12 125,11 126,11 127,11 128,11 127,8 126,6 125,4 125,3 126,1 127,0 128,1 128,1 128,1 129,2 130,2 132,3 133,4 134,3 135,3 135,3 135,3 135,3 135,3 138,3 138,2 141,1 142,1 142,1 142,1 142,2 142,2 143,2 143,2 143,2 143,2 143,3 144,3 144,3 144,3 145,3 145,3 146,3 146,4 146,4 147,4 147,4 147,4 147,5 147,5 147,5 147,5 149,6 149,6 150,7 154,7 154,7 154,6 154,6 154,6 154,6 154,6 155,6 155,6 155,7 156,7 156,8 156,8 163,5 164,5 165,5 166,5 167,5 168,5 173,5 173,5 182,5 183,5 184,5 185,6 186,6 187,7 190,8 191,8 192,9 193,9 194,9 195,9 196,9 196,9 199,8 200,7 201,7 201,7 203,7 204,8 204,8 205,8 205,8 205,8 206,8 206,9 206,9 206,9 206,9 207,9 207,9 207,10 207,10 207,10 208,10 208,10 209,10 209,10 210,10 210,10 210,10 211,10 211,10 211,10 211,10 211,10 211,10 211,10 212,10 212,9 212,9 212,9 212,9 214,9 214,10 214,10 215,9 215,10 215,10 215,10 215,9 215,9 215,9 216,10 216,10 216,10 216,10 216,10 216,10 217,10 217,10 217,10 218,10 218,10 218,10 218,10 219,10 219,10 219,10 219,10 219,10 219,9 220,9 220,9 220,9 220,9 221,9 221,9 221,9 221,9 222,9 223,9 223,10 223,9 223,9 223,9 223,9 224,10 224,10 224,10 224,10 224,10 225,10 225,10 225,10 225,10 225,11 224,11 224,11 224,12 224,12 225,12 225,12 225,12 225,12 226,12 226,12 226,13 226,13 226,12 227,12 227,12 227,12 227,12 227,12 227,12 228,12 228,12 228,12 228,13 228,13 229,13 229,13 229,13 229,13 229,14 229,14 229,14 230,14 230,14 231,14 231,15 231,15 233,14 234,14 235,14 235,14 235,14 235,14 235,14 235,14 235,14 237,15 237,15 238,15 238,15 238,16 238,16 239,17 239,17 239,17 240,17 240,17 240,17 240,17 241,17 241,17 241,17 241,16 241,16 241,16 242,17 242,17 242,17 242,17 242,17 243,17 243,17 243,17 244,17 244,17 244,17 244,17 244,17 245,17 245,17 245,17 245,17 245,17 246,17 246,17 246,17 246,18 246,18 246,18 245,18 245,18 245,18 245,18 245,18 245,18 245,19 245,19 245,19 245,19 245,19 245,20 245,20 245,20 246,20 246,20 246,20 246,20 246,20 246,20 246,20 247,20 247,20 247,20 247,20 248,20 248,20 248,20 248,21 248,21 248,21 248,21 248,21 249,21 249,21 249,21 249,21 249,21 249,21 250,21 250,21 250,21 250,21 250,21 250,21 251,21 251,21 251,21 251,21 252,21 252,21 252,21 252,21 252,21 253,21 253,21 253,21 253,21 253,21 253,21 253,21 253,22 254,22 254,22 254,22 254,22 254,22 254,22 254,22 254,23 254,23 254,23 254,23 255,23 255,24 255,24 255,24 256,24 256,24 256,24 257,24 257,25 257,25 257,25 257,25 257,25 257,25 257,25 257,25 257,25 258,25 258,25 258,26 258,26 258,26 258,26 258,26 259,27 259,27 259,27 259,27 259,27 259,27 259,27 259,27 259,27 260,28 260,28 260,28 260,28 260,28 261,28 261,28 261,28 261,28 261,28 262,28 262,28 262,28 262,28 262,28 262,28 262,28 262,28 262,28 263,28 263,29 263,29 263,29 263,29 263,29 263,29 263,29 263,30 263,30 264,30 264,30 264,30 264,30 265,30 265,31 265,31 265,31 266,31 266,31 266,31 266,31 267,32 267,32 267,32 268,32 268,32 268,33 267,33 267,33 268,33 268,33 268,34 268,34 268,34 269,34 269,35 269,35 270,35 270,35 270,35 270,35 270,35 271,36 271,36 271,36 272,36 272,36 272,36 273,36 273,36 273,36 273,36 274,35 274,35 274,35 274,35 274,35 275,35 275,35 275,35 275,35 276,36 276,36 276,36 276,36 276,36 276,37 276,37 277,37 277,37 276,37 276,37 276,38 276,38 276,38 276,38 276,39 276,39 277,39 277,39 277,39 277,39 277,39 278,39 278,39 278,39 279,40 280,40 280,40 280,40 280,40 281,40 281,40 281,40 282,40 282,41 283,41 283,41 283,41 284,41 284,41 284,41 284,41 284,41 284,41 284,42 284,42 284,42 284,42 284,42 284,42 285,42 285,42 285,42 285,41 286,42 286,41 287,41 287,41 287,41 287,41 287,41 288,41 288,41 288,41 288,41 288,41 288,41 289,41 289,41 289,41 289,41 289,41 289,41 290,41 290,41 290,41 290,41 290,41 291,42 291,42 291,42 290,42 291,43 291,43 290,43 291,43 291,43 291,43 291,43 292,43 292,43 293,43 293,43 293,44 293,44 293,44 293,44 293,44 293,44 294,44 294,44 294,44 294,44 294,44 295,44 295,44 295,44 295,44 295,44 295,44 295,44 296,44 296,44 296,44 296,44 296,44 296,44 296,44 297,44 297,44 297,44 297,44 297,44 297,44 297,44 298,44 298,44 298,44 298,44 299,44 299,44 299,44 299,44 299,44 300,44 300,44 301,44 301,44 301,44 301,44 302,44 303,44 303,44 303,44 303,44 304,44 304,44 304,44 304,44 305,44 305,44 306,44 306,43 306,43 306,43 306,43 307,43 307,43 307,44 307,44 307,44 307,44 308,44 308,44 308,44 308,44 308,44 309,44 309,44 309,44 309,44 310,44 310,44 310,44 310,44 310,44 310,44 310,44 310,44 311,44 311,44 311,44 311,44 311,44 311,44 311,44 311,44 311,44 311,45 311,45 312,45 312,45 312,45 312,45 312,45 312,44 312,44 312,44 312,44 313,44 313,44 312,44 312,44 313,44 313,44 313,44 313,44 313,45 313,45 313,45 313,45 313,45 313,45 313,45 313,45 313,45 313,45 313,45 313,45 313,45 313,45 313,45 314,45 314,45 314,45 314,45 314,45 314,45 314,45 314,45 314,45 314,45 314,44 314,44 314,44 314,45 314,45 314,45 314,45 314,45 314,44 314,44 314,44 314,44 314,44 314,44 315,44 315,44 315,44 315,44 315,44 315,44 315,44 315,44 315,44 315,44 315,44 315,44 315,45 315,45 316,45 316,45 316,45 316,45 315,45 315,45 315,45 315,45 315,45 315,45 315,45 316,45 316,45 316,45 316,45 316,45 316,45 316,45 316,45 316,45 316,45 317,45 317,45 317,45 317,45 317,45 317,45 317,45 317,45 317,45 317,45 317,45 318,45 318,45 318,45 318,45 318,45 318,45 318,45 319,45 319,45 319,45 319,45 319,46 319,46 319,46 319,46 319,46 319,46 320,46 320,46 319,46 319,46 319,46 319,46 320,46 320,46 320,46 320,46 320,46 320,46 320,46 320,46 320,46 320,46 320,46 321,47 321,47 321,47 321,47 321,47 321,47 321,47 321,47 321,47 321,47 321,47 321,47 321,47 321,47 321,47 322,47 322,47 322,48 322,48 322,48 322,48 322,48 322,48 322,48 322,48 322,48 323,48 323,48 323,48 322,49 322,49 322,49 322,49 322,49 322,49 322,49 322,49 322,49 322,49 322,49 322,49 322,50 322,50 322,50 322,50 322,50 322,50 322,50 323,50 323,50 323,50 323,50 323,50 323,50 323,50 323,50 323,50 323,50 323,50 323,50 323,50 323,51 323,51 323,51 323,51 323,51 323,51 323,51 323,51 323,51 323,51 323,51 323,51 323,51 324,51 324,51 324,52 324,52 324,52 324,52 324,52 324,52 325,52 325,52 325,52 325,52 325,52 325,52 325,53 325,53 325,53 325,53 325,54 326,54 326,54 326,55 326,55 326,55 326,55 326,55 326,55 326,56 326,56 327,56 327,56 327,56 327,56 327,56 328,57 328,57 328,57 328,57 329,57 329,57 329,57 330,57 330,56 331,55 331,55 331,55 331,54 332,54 332,54 332,54 332,54 333,54 333,54 333,54 334,54 334,54 334,55 334,55 334,55 334,55 334,55 335,55 335,55 335,55 335,55 335,55 335,55 336,55 336,55 337,55 337,55 337,55 337,55 337,55 337,55 339,54 339,53 339,53 340,53 345,55 347,56 348,57 348,57 348,57 349,57 350,58 350,58 350,58 351,59 351,59 351,59 351,60 352,60 352,61 352,61 352,61 352,61 352,61 352,62 352,62 352,62 352,63 352,63 352,63 353,64 353,65 353,65 351,66 350,66 349,65 343,65 343,65 342,66 341,66 336,70 336,70 335,70 335,70 335,70 334,70 334,70 332,72 332,72 332,72 332,72 332,72 332,72 332,72 332,73 332,73 332,73 332,73 332,73 332,73 332,73 332,73 332,73 332,73 332,74 332,74 332,74 332,74 332,74 332,74 332,74 332,74 332,74 332,74 332,75 332,75 332,75 332,75 332,75 332,75 332,75 332,76 332,76 332,76 332,76 332,76 332,76 332,76 332,77 331,77 331,77 331,77 331,77 331,77 331,77 331,77 331,77 331,77 331,77 331,77 331,77 331,78 331,78 331,78 331,78 332,78 332,78 332,78 332,78 332,78 331,78 331,78 331,78 331,78 331,78 331,78 331,78 331,79 331,79 331,79 330,79 330,79 330,79 330,79 330,79 330,79 330,79 330,79 330,79 330,79 330,79 330,79 330,79 330,79 330,79 329,79 329,79 329,79 330,80 329,80 329,80 329,80 329,80 329,80 329,80 329,80 329,80 329,80 328,80 328,80 328,80 328,80 328,80 328,80 328,81 328,81 328,81 328,81 328,81 328,81 327,81 327,81 327,81 327,81 327,81 327,81 327,81 327,81 327,81 327,82 327,82 327,82 327,82 327,82 327,82 327,82 327,82 327,82 327,83 326,83 326,83 326,83 326,83 326,83 326,83 326,84 327,84 327,84 327,84 327,84 327,84 327,85 328,85 328,86 328,87 328,87 328,87 329,87 329,87 329,88 329,88 329,88 329,89 329,89 329,89 329,89 329,90 330,90 330,90 330,90 330,90 331,90 331,90 331,90 331,90 331,90 332,90 332,90 332,90 332,90 332,90 332,90 332,90 332,90 333,90 333,90 333,90 333,90 333,90 333,90 333,90 334,90 334,90 334,90 334,90 334,90 334,90 334,91 334,91 334,91 334,91 334,91 334,91 334,91 334,91 334,91 334,91 334,91 334,91 334,91 334,91 334,91 334,92 333,92 333,92 333,92 333,92 333,92 333,92 333,92 333,92 333,92 333,92 333,92 333,92 333,92 333,92 333,92 333,92 333,92 333,92 333,93 333,93 333,93 333,93 333,93 333,93 332,94 332,94 332,94 332,94 332,94 332,94 332,94 332,94 332,94 333,94 333,94 333,94 333,95 332,95 332,95 332,96 332,96 332,96 332,96 332,96 332,96 332,96 331,97 331,97 331,97 331,97 331,97 331,97 331,97 331,97 331,97 330,97 330,98 330,98 330,98 330,98 330,98 330,98 330,98 329,98 329,98 329,99 328,99 327,99 327,100 327,100 326,100 326,100 326,100 326,100 326,100 326,100 326,100 326,100 326,100 325,100 325,101 324,101 324,102 324,102 324,102 324,102 323,103 323,103 323,103 323,103 323,103 323,103 322,104 322,104 323,104 323,104 324,104 327,103 327,103 327,103 328,103 333,104 334,104 335,105 336,105 337,105 339,106 340,107 340,108 341,110 342,111 342,112 343,113 344,115 343,116 344,117 345,118 345,118 347,119 348,119 348,119 349,119 349,120 349,121 349,122 349,122 350,123 350,123 350,124 350,124 351,126 350,127 352,128 352,128 353,128 353,128 353,128 353,128 353,130 352,131 353,132 353,133 354,134 354,135 354,135 355,135 356,136 357,137 357,138 358,138 358,139 358,141 358,141 358,142 358,142 358,142 358,143 358,144 359,144 360,144 360,145 360,145 362,147 364,147 364,148 364,149 365,149 366,151 367,152 367,152 366,153 366,153 367,153 369,152 369,152 371,151 372,151 371,150 372,149 372,149 372,148 373,148 373,148 373,148 374,148 375,148 375,148 375,148 376,147 376,147 377,147 378,146 377,145 378,145 377,144 378,144 377,144 378,144 378,143 377,143 376,142 376,142 376,140 377,140 377,139 377,139 378,139 379,139 379,139 380,139 381,139 381,139 382,139 383,138 384,138 384,138 384,137 384,137 385,137 385,137 385,136 386,136 387,135 387,135 389,134 389,134 388,133 388,132 389,131 390,131 391,131 391,131 393,131 394,131 394,131 396,132 397,134 397,134 398,134 399,135 401,134 403,133 404,133 407,131 408,131 410,131 410,131 410,132 410,132 410,134 411,134 411,135 411,136 411,137 411,137 411,138 411,138 412,138 414,138 414,138 414,138 415,138 415,138 417,138 417,139 422,142 431,142 432,141 435,141 435,140 436,139 436,138 441,141 442,142 443,143 443,145 445,146 445,147 447,147 447,151 446,152 447,153 449,153 450,154 451,155 455,155 455,156 457,156 458,155 459,156 459,157 460,157 462,158 462,159 465,162 466,163 468,161 470,160 472,159 475,158 478,158 481,157 484,157 486,156 488,154 488,154 488,154 489,154 491,155 492,155 492,155 492,155 492,156 492,157 493,157 493,157 492,158 492,158 492,158 493,158 493,158 493,159 492,159 493,160 493,160 493,160 492,160 492,160 492,160 492,161 492,161 492,162 492,162 493,164 493,164 492,164 493,164 494,167 494,169 492,173 492,173 492,174 492,174 491,174 491,175 491,175 491,175 491,175 491,175 491,176 491,176 491,176 491,176 491,176 492,177 492,177 492,177 492,177 492,177 492,178 492,178 492,178 495,181 499,183 499,184 498,185 499,186 499,187 499,187 499,188 499,188 499,188 499,189 499,189 499,189 499,190 499,190 500,191 499,191 500,191 500,192 500,192 500,193 499,194 499,194 498,195 496,195 495,195 495,195 494,195 494,196 493,196 493,196 492,196 492,196 492,196 491,196 491,197 491,198 490,198 489,198 491,201 492,202 492,203 492,204 492,204 492,205 491,206 491,206 490,207 490,207 491,208 491,209 490,209 489,210 489,210 489,211 489,211 489,212 489,212 489,213 489,214 489,214 490,214 490,215 490,215 489,215 489,215 489,216 490,217 490,217 490,218 490,219 490,221 489,222 486,225 483,228 482,229 481,230 479,233 478,234 477,234 476,235 476,235 475,234 473,232 471,231 471,231 471,231 470,231 470,231 468,231 467,231 465,231 465,231 464,231 462,231 461,231 460,231 460,231 459,231 457,230 456,230 456,230 456,230 455,230 455,230 454,230 454,230 454,230 453,229 452,229 451,229 450,229 450,229 450,229 449,229 449,229 449,228 448,228 447,228 447,228 447,228 445,228 445,228 444,228 443,228 442,228 442,228 442,228 442,228 441,229 441,229 441,229 441,228 441,228 440,228 440,228 440,228 440,227 440,227 440,227 440,227 440,227 439,227 439,227 439,227 439,226 439,226 439,226 439,226 438,226 438,226 438,226 438,226 438,226 438,225 438,225 438,225 437,225 437,225 437,225 437,225 437,225 437,225 437,225 436,225 436,225 436,224 436,224 436,224 436,224 435,224 435,224 435,224 435,224 435,223 434,223 434,222 434,222 434,222 434,222 434,222 434,222 434,222 434,221 434,221 434,221 434,221 433,221 433,221 433,221 433,221 433,220 433,220 432,220 432,220 431,219 431,219 431,219 431,219 431,219 431,219 430,219 430,219 430,219 430,219 430,219 430,219 429,218 429,218 429,218 429,218 428,218 428,218 428,217 428,217 428,217 428,217 428,217 427,217 427,217 427,217 427,217 427,216 427,216 427,216 427,216 426,216 426,216 426,216 426,216 425,216 425,215 425,215 425,215 425,215 424,215 424,215 424,215 423,215 423,215 423,215 423,215 423,215 422,215 422,215 422,214 422,214 421,214 420,214 420,214 420,213 420,213 420,213 420,213 420,213 420,213 420,213 420,213 420,212 419,212 419,212 419,212 419,212 419,212 418,211 418,211 418,211 418,211 418,211 418,211 418,211 418,211 417,211 417,211 417,210 417,210 417,210 417,210 416,210 416,210 416,210 416,210 416,210 416,210 416,210 416,210 415,210 415,210 415,209 415,209 415,209 414,209 414,209 414,208 414,208 414,208 413,208 413,208 413,208 413,208 413,208 413,208 413,208 413,208 413,208 413,207 413,207 413,207 413,207 413,207 413,207 413,207 413,207 412,207 411,208 411,208 411,208 411,208 411,208 411,208 410,208 410,208 410,208 409,208 409,208 408,209 408,209 407,209 407,209 407,209 407,209 407,209 407,209 407,209 407,209 406,209 406,209 405,209 404,209 404,209 404,209 404,209 404,209 404,209 404,210 403,210 403,210 402,210 402,210 402,210 402,210 402,210 402,210 402,210 402,210 401,210 401,210 401,210 401,210 401,210 401,211 401,211 401,211 401,211 400,212 400,212 400,212 400,212 400,212 399,212 398,212 398,212 398,212 398,212 398,212 398,212 398,211 397,211 397,211 397,211 397,211 397,211 397,210 397,210 397,210 397,210 397,210 397,210 397,210 397,210 397,210 395,210 394,210 394,210 394,210 394,210 394,210 394,210 394,209 394,209 393,209 393,209 393,208 393,208 393,208 393,208 393,208 393,208 393,208 393,207 393,207 393,207 393,207 393,207 393,207 393,207 393,207 393,207 393,207 392,207 392,207 392,207 392,207 392,207 392,207 392,207 392,206 392,206 391,206 391,206 390,205 390,205 389,205 389,205 389,205 389,205 389,205 389,205 389,205 389,205 389,205 389,205 388,204 388,204 388,204 388,204 388,204 387,204 387,204 387,204 387,204 387,204 387,203 386,203 386,203 386,203 386,203 386,203 386,203 385,203 385,203 385,202 385,202 385,202 385,202 385,202 385,202 385,202 384,202 384,201 384,201 384,201 384,201 384,200 384,200 384,200 384,200 384,200 384,200 384,200 384,200 384,199 383,199 383,199 383,199 383,199 383,199 383,198 383,198 383,198 382,198 382,198 382,198 382,197 382,197 382,197 381,197 381,197 381,197 381,197 381,197 381,197 381,196 381,196 381,196 380,196 380,195 380,195 380,195 380,195 380,195 379,195 379,195 379,195 379,195 379,195 379,195 379,195 379,195 378,194 377,194 377,194 377,194 377,194 377,194 377,194 376,194 375,194 375,194 375,194 375,194 375,194 375,194 375,194 375,194 375,194 374,194 374,194 374,193 374,193 374,193 374,193 373,193 373,193 373,193 373,193 373,193 373,193 373,193 373,193 372,193 372,193 371,193 371,193 369,193 368,193 368,193 368,193 368,193 368,193 368,193 367,193 367,192 367,192 367,192 366,192 366,192 366,192 366,192 365,192 365,192 364,192 364,192 363,192 363,191 362,191 360,191 360,191 360,191 360,191 360,191 360,191 359,191 359,191 359,191 359,191 359,191 359,191 358,191 358,190 358,190 357,190 356,190 354,189 353,189 353,188 353,188 353,189 353,189 353,189 352,190 352,190 352,190 352,191 352,191 352,191 352,191 352,191 352,191 352,191 352,191 352,191 352,191 352,191 352,191 352,192 352,192 350,193 349,193 349,193 349,193 349,193 349,194 349,194 349,194 348,194 348,195 348,195 348,195 348,195 348,195 347,196 347,196 347,196 347,196 347,196 347,196 347,196 347,196 347,196 347,196 347,197 347,197 346,197 346,197 346,197 346,197 346,197 346,197 346,198 346,198 346,198 346,198 346,198 346,198 346,199 346,199 346,199 346,199 346,199 346,199 346,199 346,199 346,199 346,199 346,199 346,199 346,199 346,199 346,199 346,199 346,199 346,199 346,199 346,200 346,200 345,200 345,200 345,200 345,200 345,201 345,201 345,201 345,201 345,201 345,201 345,201 345,201 345,201 345,201 345,201 345,201 344,202 344,202 344,202 344,202 344,202 344,202 344,202 344,202 344,202 344,202 343,202 343,202 343,202 342,202 342,202 342,202 342,202 342,202 342,202 342,202 342,202 342,202 341,202 341,202 341,202 341,202 341,203 341,203 341,203 341,203 341,203 341,203 341,203 341,203 340,203 340,203 340,203 340,203 340,203 340,203 340,203 340,203 340,203 340,203 339,203 339,203 339,203 339,203 339,203 339,203 339,203 339,203 338,203 338,203 338,203 338,203 338,204 338,204 338,204 338,204 338,204 338,204 338,204 338,204 337,204 337,205 337,205 337,205 337,205 337,205 337,205 337,205 337,205 337,205 337,205 337,206 337,206 337,206 337,206 337,206 337,206 337,206 337,206 337,206 337,206 336,206 336,206 336,206 336,206 336,206 336,206 335,206 335,207 335,207 335,207 335,207 335,207 335,207 335,207 334,207 334,207 334,207 334,207 334,207 334,207 334,207 334,208 334,208 334,208 334,208 334,208 334,208 334,208 335,208 335,208 335,208 334,209 334,209 334,209 334,209 335,210 335,211 335,211 335,211 335,211 335,211 335,211 335,211 335,211 335,212 336,213 336,213 336,213 336,213 336,214 336,214 336,214 336,214 336,214 336,215 336,215 336,216 336,216 336,218 336,218 336,218 336,218 336,218 336,218 336,218 336,218 337,218 338,218 338,218 338,218 339,218 339,218 339,218 339,218 339,219 339,219 340,219 340,219 340,219 340,219 340,219 340,219 340,219 341,219 341,219 341,219 342,219 342,219 342,219 342,219 342,219 342,219 342,220 342,220 342,220 342,221 343,222 343,223 343,223 343,223 343,224 343,224 343,224 343,226 343,227 343,227 343,227 343,227 343,227 343,227 343,227 343,227 343,227 343,227 343,227 344,227 344,227 344,228 344,228 344,228 344,228 344,228 345,228 345,228 345,228 345,228 345,228 345,229 345,229 345,229 345,229 345,229 345,229 346,229 346,229 346,229 346,229 346,229 346,229 346,230 346,230 346,230 346,230 347,230 347,230 347,230 347,230 347,230 347,231 347,231 347,231 347,231 347,231 347,231 348,231 348,231 348,231 348,231 348,231 348,231 348,231 348,231 348,231 348,232 348,232 348,232 349,232 349,232 349,232 349,232 349,232 349,232 349,232 349,232 349,232 349,232 349,232 349,232 349,232 349,232 349,232 349,232 349,232 349,232 350,232 350,233 350,233 350,233 350,233 350,233 350,233 350,233 350,233 350,233 350,233 351,233 351,233 351,233 351,233 351,233 351,233 351,233 351,233 351,233 351,234 351,234 351,234 352,234 352,234 352,234 352,234 352,234 352,234 352,234 352,234 352,234 352,234 352,234 352,234 352,234 352,234 352,234 352,234 352,234 352,234 352,234 352,234 352,234 352,234 352,234 352,235 352,235 352,235 352,235 352,235 352,235 352,235 352,235 352,235 352,235 352,235 352,235 352,235 352,235 352,235 352,235 352,235 352,236 352,236 351,236 351,236 351,236 351,236 351,236 351,236 351,236 351,236 351,236 351,236 350,236 350,237 350,237 350,237 350,237 350,237 350,237 350,237 349,237 349,237 349,237 349,237 349,237 349,237 349,237 349,237 349,237 349,237 349,238 349,238 349,238 349,238 349,238 348,238 348,238 348,238 348,238 348,238 347,238 347,238 347,238 347,238 347,238 347,238 347,238 347,238 347,238 347,238 347,239 347,239 347,239 347,239 346,239 346,239 346,239 345,239 345,239 345,240 345,240 345,240 345,240 345,240 345,240 345,240 345,240 345,240 344,240 344,240 340,242 340,242 340,242 340,242 340,242 340,242 339,243 338,244 338,244 338,245 338,245 338,245 338,245 338,245 338,245 338,245 338,246 337,246 337,246 337,246 337,246 337,246 337,246 337,246 336,246 336,246 336,246 336,246 336,246 336,247 337,247 337,247 337,247 336,247 336,247 336,248 336,248 336,248 336,248 336,248 335,248 335,248 335,248 335,248 335,248 335,248 335,248 335,248 335,248 334,248 334,248 335,249 335,249 335,249 335,250 335,250 335,250 335,250 335,250 335,250 335,251 335,251 335,251 335,251 335,251 335,251 335,252 336,252 336,253 336,253 336,253 336,253 336,253 336,253 336,253 336,253 336,254 336,254 336,254 336,254 336,254 337,255 337,256 337,256 337,256 338,256 338,256 338,256 338,256 338,256 337,256 334,258 332,259 331,259 327,259 321,260 321,260 315,258 313,258 312,258 311,258 307,257 307,257 307,257 307,257 307,258 307,257 305,258 305,258 305,258 305,258 304,258 304,258 303,258 303,258 303,258 302,259 302,259 302,259 302,259 301,259 301,259 301,259 301,260 300,260 299,261 299,261 299,261 298,261 298,261 298,261 298,261 298,261 298,261 297,262 294,263 293,263 292,264 291,264 291,264 291,264 291,264 291,265 289,265 288,266 288,266 288,266 287,266 286,266 286,267 286,267 284,266 283,266 282,266 281,266 280,266 280,266 280,266 280,266 280,266 279,266 278,266 277,266 276,266 275,266 275,266 275,266 275,266 275,266 275,266 274,266 273,266 273,266 273,266 272,266 272,266 272,267 271,268 270,268 270,268 270,268 268,269 268,269 268,269 267,269 264,270 263,271 261,271 261,271 261,271 261,271 260,271 260,271 260,271 260,271 260,273 260,273 260,274 260,276 260,276 260,276 260,276 260,276 260,276 260,276 260,276 260,276 260,276 260,277 260,277 260,277 260,277 261,277 260,277 261,277 261,277 261,278 261,278 260,278 260,278 260,278 260,278 260,278 261,279 261,279 261,279 261,279 261,279 261,279 261,279 261,279 261,279 261,279 261,279 261,279 261,279 261,279 261,280 261,280 261,280 261,280 261,280 261,280 261,280 261,280 261,281 261,281 261,281 261,281 261,281 261,281 261,282 260,282 260,282 260,283 260,283 260,283 259,283 259,284 259,284 259,284 259,284 259,284 259,284 259,285 259,285 259,285 259,285 259,285 259,285 259,285 259,285 260,286 260,286 260,286 260,286 260,286 260,286 260,286 260,286 260,287 260,287 260,287 260,287 260,287 260,287 261,287 261,288 261,288 261,288 261,288 261,289 261,289 261,289 260,289 260,289 260,289 260,289 260,289 260,289 260,289 260,289 260,289 260,289 260,290 260,290 260,290 260,290 260,290 260,290 260,290 260,290 260,290 261,290 261,291 261,291 261,291 261,291 261,291 261,291 261,291 261,291 261,292 261,292 261,292 261,292 262,292 262,292 262,292 262,292 262,292 262,292 262,292 262,292 262,293 262,293 262,293 262,293 262,293 262,293 262,294 262,294 262,294 262,294 262,294 262,294 262,294 262,295 262,295 263,295 263,295 263,295 263,295 263,295 263,295 263,295 262,296 262,296 262,296 262,296 262,296 262,296 262,296 262,296 262,296 262,296 262,297 262,297 261,297 261,298 261,298 261,297 261,297 261,297 261,297 260,297 260,297 260,298 259,298 259,297 258,298 258,298 258,298 258,298 258,298 258,298 258,298 258,298 258,298 257,298 257,298 257,298 257,298 256,298 256,298 256,298 256,298 256,299 256,299 255,299 255,299 255,299 255,299 254,299 254,299 254,299 254,299 254,299 254,299 253,299 253,299 253,299 252,299 252,299 252,299 251,299 251,299 251,298 251,298 250,298 250,298 250,298 250,298 250,298 250,298 249,298 249,297 249,297 249,298 249,299 249,300 249,300 248,301 248,302 248,302 248,303 248,303 248,303 248,303 248,303 248,304 248,304 248,304 249,304 249,304 249,305 249,305 249,305 249,305 250,306 250,306 250,306 250,306 250,307 250,307 250,307 250,307 250,308 250,308 251,308 251,308 251,308 251,308 251,308 251,309 251,309 251,309 251,310 251,310 251,310 251,310 251,310 252,311 252,311 252,311 252,311 252,311 252,311 251,312 251,312 250,313 250,313 250,313 249,313 249,313 249,313 249,314 249,314 249,314 250,315 250,315 250,316 250,316 250,316 250,317 249,317 249,317 249,317 249,317 249,317 249,317 248,317 248,317 248,317 247,317 247,317 247,317 247,317 246,317 246,317 246,317 245,317 245,317 243,317 242,317 242,318 241,318 241,318 239,319 238,319 238,319 238,319 240,320 240,321 242,322 242,322 243,323 243,323 241,326 240,328 237,329 237,330 238,331 235,333 234,333 231,333 230,334 230,337 229,338 230,339 230,342 229,346 229,348 225,349 222,350 220,352 217,354 212,356 208,357 206,358 204,357 202,357 200,356 198,357 196,356 193,358 191,356 190,355 190,354 188,353 186,352 185,351 184,349 181,350 180,350 178,352 178,352 175,352 174,349 173,348 172,348 170,350 169,350 168,349 168,348 168,347 168,346 164,346 162,344 162,343 159,342 156,340 154,340 150,339 149,340 148,339 145,340 144,339 143,339 141,339 138,340 134,343 133,342 130,342 127,343 126,344 125,344 125,344 125,344 125,344 124,344 124,344 124,344 124,344 124,344 124,344 124,344 123,343 123,343 122,343 122,343 122,343 122,343 122,342 122,342 122,342 122,342 122,342 122,342 121,342 121,342 121,341 121,341 120,341 120,341 119,341 119,341 119,341 119,341 119,341 118,341 118,341 118,341 118,341 118,341 118,341 118,340 118,340 117,340 117,340 117,340 117,340 118,339 118,339 118,339 118,339 118,339 118,339 117,338 117,338 117,338 117,337 117,337 117,337 117,336 116,336 116,336 116,336 115,335 115,335 115,335 116,335 116,335 116,335 115,334 115,334 115,334 114,334 114,334 114,334 114,334 113,334 113,334 113,334 113,334 112,334 112,334 112,334 112,334 112,333 112,333 112,333 112,333 112,333 112,333 112,333 112,333 112,333 112,332 111,332 111,332 111,332 111,332 111,332 111,332 110,332 110,332 110,332 110,332 110,332 109,331 109,331 109,331 109,331 109,331 108,331 108,331 108,331 107,330 107,330 107,330 107,330 107,330 106,330 106,330 106,330 106,330 106,329 105,329 105,329 105,329 105,329 105,329 105,329 105,329 105,329 105,329 104,328 104,328 104,328 104,328 103,328 103,328 103,328 103,328 103,328 103,328 102,328 102,328 102,328 102,328 102,328 101,328 101,328 101,328 101,328 101,328 101,328 101,328 101,328 101,328 101,328 101,327 101,327 101,327 101,327 101,327 101,326 101,326 101,326 101,326 101,326 101,326 100,327 100,327 100,327 99,327 99,327 99,327 99,327 99,327 99,327 99,326 99,326 99,326 99,326 99,326 100,326 100,326 100,325 100,325 100,325 101,325 101,325 101,325 101,325 101,325 101,324 101,324 100,324 100,324 100,324 100,324 100,324 100,324 99,324 99,324 99,324 99,324 99,324 99,325 98,325 98,325 98,325 98,325 98,325 98,325 98,325 98,325 98,325 97,325 97,325 97,325 97,324 96,324 96,323 96,323 96,323 95,322 95,322 95,322 95,322 95,321 95,321 95,321 95,321 95,321 95,320 95,320 95,320 95,320 94,320 94,320 93,320 93,320 92,320 92,320 91,320 91,320 90,320 90,320 89,320 89,320 89,320 89,320 88,319 88,319 87,319 86,319 85,318 85,318 85,318 85,318 85,318 85,318 85,318 85,317 86,317 85,317 85,317 85,316 82,315 82,315 82,315 82,315 82,314 82,312 82,311 82,311 81,310 81,310 80,308 79,308 79,308 79,308 79,307 82,304 82,303 84,300 84,300 84,300 84,299 84,299 83,298 83,298 82,298 82,297 82,297 81,297 80,297 80,297 80,297 79,297 79,297 78,298 78,298 78,298 77,298 77,299 77,299 77,299 78,300 78,300 78,300 78,301 78,301 78,301 78,301 77,301 76,301 76,301 76,301 76,300 75,300 75,299 76,299 76,297 77,296 77,295 77,294 77,294 77,294 77,294 77,293 77,293 76,292 75,292 74,292 74,292 74,292 74,291 74,291 76,288 76,288 76,287 76,287 77,285 77,285 77,284 77,284 77,284 76,284 75,284 75,283 75,283 75,283 75,283 75,283 75,281 76,279 76,279 75,278 75,277 75,276 74,273 74,272 74,271 74,270 74,270 74,269 74,269 74,269 73,268 72,267 72,267 71,267 71,266 70,266 70,266 70,266 69,266 69,266 69,267 68,267 68,267 67,268 67,268 66,268 66,268 65,268 65,268 65,268 64,268 64,268 64,268 64,267 64,267 65,266 65,266 65,266 65,266 64,265 64,265 64,265 63,264 63,264 63,264 62,264 62,264 62,263 62,263 61,263 60,263 60,263 59,263 57,264 55,264 54,265 50,265 50,265 48,266 48,266 48,266 47,266 47,266 45,265 45,265 44,265 42,264 41,263 41,262 40,262 40,262 40,261 39,260 39,260 38,260 38,260 37,260 36,259 35,259 32,258 31,258 31,257 31,257 30,257 30,256 30,256 30,255 28,254 26,253 24,251 24,251 24,251 24,250 23,250 23,250 23,249 23,249 23,249 23,248 23,248 22,248 22,247 21,247 21,247 20,247 19,246 19,246 19,246 19,246 19,246 19,246 20,245 20,245 21,244 21,244 21,243 23,241 23,241 23,241 24,239 24,238 24,238 24,237 24,237 23,236 23,236 23,235 23,234 23,233 22,233 22,233 22,233 21,233 21,233 21,232 21,232 20,231 20,230 19,228 18,227 18,227 18,226 18,225 18,224 17,224 17,224 17,224 17,224 16,224 16,224 15,225 15,225 15,224 14,224 14,223 13,223 13,222 13,222 13,222 12,222 12,221 13,220 13,220 13,220 13,219 13,218 13,218 13,217 13,217 13,217 13,217 14,217 15,217 16,217 17,217 18,216 18,216 19,216 19,216 19,215 20,215 20,215 20,215 19,214 19,213 19,213 19,213 19,213 19,213 18,212 17,212 15,212 14,212 14,212 13,213 11,213 10,213 9,213 9,213 9,213 8,212 8,212 8,212 8,212 8,212 8,211 8,211 9,211 9,211 10,211 11,211 12,210 12,210 13,210 14,210 14,209 15,209 15,208 16,208 16,208 16,208 16,207 16,207 16,207 15,206 15,206 14,205 13,205 13,205 13,205 13,205 13,205 12,205 11,205 11,205 11,205 10,205 10,204 10,204 10,204 9,204 9,203 9,203 10,202 11,201 11,200 11,199 11,198 10,198 10,197 10,197 9,196 9,196 8,195 8,195 6,194 6,194 6,193 5,193 4,192 4,191 4,191 4,190 4,190 4,189 4,189 4,188 4,188 4,187 4,187 4,187 4,187 3,186 3,186 1,186 0,186 0,186 0,186 0,186 0,186 0,185 0,185 1,185 2,184 2,184 2,183 2,183 2,182 3,181 3,181 3,180 3,180 4,180 4,180 4,179 4,179 5,177 5,177 4,177 4,177 4,177 4,177 3,177 3,177 3,176 3,176 3,176 4,175 4,175 4,175 4,175 4,174 3,174 3,173 3,173 2,173 1,173 1,172 1,172 1,172 2,170 2,170 3,170 3,169 3,168 3,168 3,168 3,166 2,164 3,164 3,163" id="311" class="canton" fill="steelblue" stroke-width="1" stroke="white" geotype="canton" geoname="Montluçon-3" code_insee="311" code_departement="3" nom_departement="Allier" code_region="84" nom_region="Auvergne-Rhône-Alpes"/></svg>