<?xml version="1.0" encoding="utf-8"?>
<svg version="1.1" id="svgmap" xmlns="http://www.w3.org/2000/svg" xmlns:xlink="http://www.w3.org/1999/xlink" x="0px" y="0px" width="100%" height="100%" viewBox="0 0 500 387">
<polygon points="7,151 9,150 10,149 13,149 18,148 19,148 21,147 24,147 24,147 25,146 26,146 27,146 28,146 30,146 31,145 35,143 34,140 34,136 34,134 33,133 33,129 32,126 30,125 29,122 28,120 28,117 27,113 27,111 27,108 28,107 28,107 29,106 30,105 31,103 32,103 34,101 35,100 36,99 36,99 36,96 38,93 40,90 40,89 40,88 40,88 40,87 40,87 39,87 38,86 37,85 34,84 36,82 36,81 37,80 37,78 38,76 38,75 38,74 38,70 38,69 37,68 37,66 37,65 39,61 40,60 40,58 40,56 39,53 38,50 37,49 37,47 36,47 32,44 33,43 35,41 36,41 37,39 37,38 37,37 38,35 38,33 39,32 39,31 39,27 38,25 38,22 38,21 37,19 38,19 42,19 45,19 47,18 50,17 58,14 61,12 62,12 66,9 71,6 71,5 75,3 76,3 77,3 81,1 84,0 84,0 88,0 90,1 93,1 95,2 98,4 101,5 103,5 104,6 112,5 118,5 122,4 126,4 132,3 136,3 139,2 140,2 140,2 142,2 146,4 149,5 150,6 151,6 154,8 158,11 160,12 163,14 165,14 169,14 174,15 178,15 179,15 182,16 187,17 188,18 189,18 194,21 194,22 195,22 199,23 204,24 205,24 210,26 212,27 213,27 217,29 220,29 223,30 226,31 229,31 231,30 232,30 234,31 236,31 237,31 240,31 242,32 242,32 246,31 247,30 250,29 254,26 255,31 255,33 255,35 255,36 256,37 256,38 257,39 258,41 258,42 258,43 259,44 260,45 260,45 262,48 262,48 262,48 262,48 261,50 262,51 262,52 262,52 262,53 264,55 266,58 267,58 268,59 269,60 272,62 275,65 275,65 275,66 277,67 278,68 278,68 282,70 282,70 281,71 281,73 280,74 280,75 280,76 279,77 278,78 278,78 276,80 275,81 273,82 272,82 271,83 270,83 269,84 269,85 268,86 268,88 267,89 266,90 268,91 271,93 273,94 274,95 275,95 276,96 276,97 277,97 277,96 278,95 279,95 279,95 281,95 282,95 283,95 285,94 286,94 287,93 288,93 288,93 288,93 288,94 289,94 289,94 291,93 292,93 297,93 298,93 300,92 301,92 303,92 304,92 306,92 308,92 310,92 311,93 312,93 313,93 316,92 317,92 318,93 318,94 318,95 319,96 319,96 320,96 320,96 320,97 321,97 321,98 321,98 321,99 322,100 323,100 323,100 324,100 325,101 326,102 327,103 328,103 329,103 329,103 330,103 331,103 332,103 334,103 335,103 337,104 337,104 338,104 339,104 340,105 341,106 343,106 344,108 347,109 347,109 348,110 349,110 350,110 350,110 350,111 351,112 352,112 353,113 356,113 356,113 357,114 357,114 357,114 358,114 358,114 358,115 359,115 359,115 360,116 362,117 362,117 363,118 364,118 364,119 364,119 365,119 366,119 367,119 367,120 368,120 368,121 368,122 369,122 369,123 370,123 370,123 371,123 372,124 372,124 372,125 373,124 373,125 375,125 375,126 376,126 377,127 378,127 380,129 381,130 382,130 382,130 383,131 383,131 384,132 384,132 384,132 383,133 394,142 402,153 403,154 404,155 405,155 408,157 409,157 409,157 410,157 410,157 410,158 410,158 410,159 411,160 411,160 412,163 413,163 413,164 413,164 413,165 414,165 414,165 414,166 414,166 414,166 414,166 414,167 415,167 414,168 414,169 414,169 414,170 413,170 413,171 413,172 413,173 414,174 414,174 415,175 417,176 419,177 419,177 421,178 425,181 425,181 425,182 424,184 425,185 424,186 424,188 424,189 425,189 426,190 426,190 427,190 427,190 426,192 427,193 426,193 426,194 426,194 426,194 425,195 425,196 425,197 424,198 424,198 424,199 424,199 424,199 425,200 425,201 425,201 426,202 426,202 427,203 427,204 428,204 428,204 428,204 429,204 429,205 429,206 429,206 429,208 429,208 429,209 429,209 431,210 431,210 433,211 434,212 435,212 437,214 441,215 442,215 442,216 443,218 444,219 444,221 445,224 445,224 445,226 445,227 445,227 447,228 453,229 456,230 457,231 458,231 459,231 459,231 464,231 464,230 465,230 465,229 467,228 470,227 473,227 474,226 478,236 478,239 482,243 482,244 484,244 485,244 495,249 497,250 500,252 500,255 498,261 494,262 490,263 486,266 483,268 479,271 477,271 475,272 472,273 467,272 464,272 462,272 460,272 456,274 454,276 453,276 451,277 450,277 449,277 448,277 448,278 448,278 447,278 447,278 446,278 445,279 443,280 442,281 441,282 441,283 441,283 441,284 436,285 434,285 432,285 431,285 429,287 427,289 425,290 424,290 421,291 420,291 417,292 416,292 414,293 411,295 406,299 403,301 400,305 398,308 397,310 396,313 395,314 394,315 394,318 393,321 393,322 393,327 390,328 390,328 390,328 389,328 389,328 388,328 387,328 387,328 387,329 387,330 386,330 381,331 378,333 378,333 378,333 378,334 376,335 376,336 374,336 373,336 373,336 372,336 372,337 372,337 372,338 371,338 371,338 372,339 372,339 372,339 373,340 373,340 373,340 371,341 368,339 368,339 364,337 361,338 360,341 360,344 360,344 360,344 360,345 360,345 360,347 360,347 360,348 360,348 360,348 359,350 359,350 359,350 359,350 358,350 358,350 358,351 357,351 356,351 355,351 355,351 355,351 354,351 354,351 354,351 354,351 354,351 354,351 354,351 353,351 353,351 352,351 352,351 352,351 352,351 352,351 352,351 352,351 352,351 352,351 352,351 351,351 351,351 351,351 351,351 351,351 351,352 351,352 351,352 351,352 350,352 350,352 350,352 350,352 350,352 350,352 350,353 349,354 349,355 348,358 345,359 343,359 341,360 340,361 338,362 336,364 336,365 335,366 333,366 332,364 332,364 331,364 327,364 326,363 318,362 316,362 314,361 313,361 312,361 312,362 311,362 309,363 308,363 306,364 302,364 300,364 299,364 296,365 292,365 270,364 270,365 268,364 267,364 266,364 266,364 265,364 265,363 264,363 264,363 263,363 261,363 258,362 257,362 256,362 255,362 254,361 253,362 252,362 251,362 251,362 249,361 247,361 246,361 245,361 244,361 244,361 243,361 242,361 242,361 241,362 240,362 239,362 237,362 221,362 220,362 216,362 214,363 213,363 212,363 210,363 209,364 207,364 206,364 201,366 198,367 197,367 196,367 195,368 194,368 191,370 189,371 188,372 187,373 186,373 185,374 184,375 183,376 182,378 181,379 181,380 180,381 180,383 180,383 179,384 178,385 177,385 177,385 174,386 173,387 170,386 168,386 162,386 161,386 159,386 159,385 157,384 153,382 152,381 151,380 149,380 146,379 134,375 131,376 129,376 125,376 120,376 118,374 116,373 115,373 113,372 113,371 112,370 110,370 110,369 108,369 106,368 105,367 104,367 102,365 102,364 102,364 101,363 102,363 103,361 104,360 105,359 105,358 106,358 107,356 107,356 107,355 107,354 107,353 107,352 107,351 107,351 106,350 105,349 105,348 104,347 104,347 102,346 102,345 99,344 99,344 98,342 98,342 98,341 98,339 98,339 98,338 100,337 101,337 101,336 101,336 101,333 101,333 101,332 100,331 100,330 99,329 99,329 98,329 97,329 96,329 95,329 94,329 91,329 89,329 88,329 86,327 84,326 83,325 82,325 81,324 78,323 77,322 77,322 76,320 75,319 74,317 74,316 73,316 72,315 71,315 68,314 64,314 64,314 62,315 61,315 60,315 57,315 55,315 54,315 52,315 50,315 48,315 47,315 46,315 44,315 42,316 39,316 37,317 37,317 36,316 36,315 36,313 35,311 35,311 34,310 32,308 31,308 30,307 30,307 29,307 29,307 28,306 27,305 27,304 26,304 24,303 24,302 23,302 23,301 22,300 23,300 24,299 24,298 30,296 30,296 32,295 37,292 40,288 40,287 41,285 42,283 42,282 42,281 41,281 40,281 39,281 40,279 39,278 39,276 39,276 38,275 37,273 37,272 36,269 36,269 35,267 35,266 34,264 33,262 33,260 34,259 34,259 36,258 34,256 33,254 31,252 30,251 30,250 29,249 29,248 28,247 28,247 28,245 28,245 27,244 27,243 26,240 26,240 25,239 24,236 24,235 22,234 22,233 22,233 21,231 21,231 21,230 20,228 20,227 19,226 19,225 16,224 14,223 17,219 17,219 17,218 18,218 18,218 18,217 18,216 17,216 18,215 18,214 18,213 19,213 19,212 19,211 20,210 21,207 24,204 24,203 25,202 27,198 28,197 28,196 29,195 29,194 28,192 23,189 21,188 21,188 20,187 19,186 18,186 15,183 12,182 10,181 10,180 10,179 9,177 8,173 6,173 3,171 5,170 5,169 5,168 3,167 1,167 1,164 0,164 0,163 1,163 1,162 1,161 1,161 1,160 1,160 1,159 1,159 3,158 3,158 3,157 3,156 4,156 5,155 5,154 5,154 5,153 6,152 7,151 7,151" id="501" class="canton" fill="steelblue" stroke-width="1" stroke="white" geotype="canton" geoname="Argentière-la-Bessée" code_insee="501" code_departement="5" nom_departement="Hautes-Alpes" code_region="93" nom_region="Provence-Alpes-Côte d'Azur"/></svg>