<?xml version="1.0" encoding="utf-8"?>
<svg version="1.1" id="svgmap" xmlns="http://www.w3.org/2000/svg" xmlns:xlink="http://www.w3.org/1999/xlink" x="0px" y="0px" width="100%" height="100%" viewBox="0 0 500 430">
<polygon points="44,189 44,189 44,189 44,189 44,189 44,188 44,188 44,188 44,188 44,188 44,187 44,187 44,186 43,186 43,186 43,185 43,185 43,185 43,184 43,183 43,183 43,183 42,182 42,181 42,181 42,181 42,181 42,181 42,181 43,180 43,179 43,179 43,179 43,179 43,178 43,178 43,178 43,178 43,178 43,177 43,177 43,177 44,177 44,177 45,177 46,177 46,177 46,177 46,177 47,177 47,177 47,177 47,177 47,177 47,177 48,176 48,176 48,176 48,176 48,176 49,176 49,176 50,176 50,177 50,176 51,176 51,176 51,177 52,177 52,177 52,177 55,177 56,177 56,177 57,177 57,177 57,177 57,177 57,177 57,178 57,178 57,178 58,178 58,178 58,178 58,178 58,178 58,178 58,178 58,178 58,178 58,178 58,178 58,178 58,179 58,179 58,179 58,179 58,179 59,179 59,179 59,179 60,179 60,179 61,178 61,178 61,178 61,178 61,179 61,179 61,179 61,180 61,180 61,181 61,181 61,181 61,181 61,182 61,182 61,183 61,183 61,183 62,183 62,183 62,183 62,183 62,184 62,184 62,184 63,184 63,184 63,184 63,184 63,184 64,185 64,185 64,185 65,185 65,185 65,186 65,186 66,186 66,186 66,186 66,186 66,186 66,186 66,186 66,186 67,186 67,186 68,186 68,186 68,187 68,187 68,187 69,186 69,186 69,186 69,186 70,187 70,187 70,186 71,187 71,186 72,186 72,186 72,186 73,186 73,186 74,186 74,186 75,186 75,186 76,186 78,186 79,186 79,186 79,186 80,186 80,186 80,186 81,186 81,186 81,186 81,186 81,186 82,187 82,187 83,186 83,186 83,186 83,186 84,186 84,186 84,186 84,186 84,186 86,186 86,186 87,186 87,186 88,186 88,186 88,186 89,186 89,186 89,186 89,186 89,186 90,186 90,186 91,186 91,186 91,186 91,186 92,186 92,186 94,186 94,186 96,186 96,186 97,186 97,186 99,186 100,186 100,186 101,186 101,186 101,186 101,186 101,186 102,186 102,186 102,186 103,186 103,186 103,186 104,186 104,186 104,186 104,186 104,186 104,186 105,186 105,186 105,186 105,186 105,186 105,186 105,186 106,186 107,187 107,187 107,187 107,187 107,187 108,187 108,187 109,187 109,187 109,187 109,187 110,187 110,187 110,187 111,187 111,188 112,189 112,189 112,189 112,189 112,189 113,189 113,189 113,189 114,190 114,190 115,190 115,190 117,189 117,189 117,190 117,190 117,190 117,190 117,190 118,190 118,190 118,190 118,190 119,190 119,191 120,191 120,191 120,191 120,191 121,192 122,192 122,192 122,192 122,192 122,192 122,192 122,192 123,192 123,192 123,192 123,193 124,193 124,193 124,193 124,193 125,193 125,193 126,193 126,193 126,193 127,193 127,193 127,193 128,193 128,194 129,194 129,194 129,194 130,194 130,194 130,194 130,194 131,194 132,195 132,195 133,195 133,195 133,195 133,195 134,195 134,195 134,195 134,195 134,195 134,195 134,196 135,196 135,196 135,196 135,196 136,196 136,196 136,196 137,196 137,196 137,196 137,196 137,196 138,196 138,196 138,196 138,196 138,196 139,196 139,197 140,197 140,197 140,197 140,197 141,198 141,198 141,198 141,198 141,198 142,198 142,198 142,199 142,199 142,199 142,199 143,199 143,199 143,199 143,199 144,199 144,199 144,200 145,200 145,200 147,201 147,201 148,201 148,201 148,201 148,202 149,202 150,203 150,203 150,203 151,203 151,203 151,203 151,204 152,205 153,206 153,206 153,206 154,205 154,205 155,205 155,205 156,205 156,204 157,204 157,204 157,204 158,204 158,204 158,204 159,204 159,204 159,204 159,204 159,204 159,204 159,204 159,204 165,202 165,202 166,203 167,203 167,203 167,204 167,204 167,204 168,204 168,204 168,204 169,204 169,205 170,205 170,205 170,205 170,205 170,205 170,205 170,205 171,206 171,206 171,206 171,206 172,206 172,206 172,206 172,206 173,207 173,207 173,207 173,207 174,207 174,207 174,207 174,207 174,208 175,208 175,208 175,208 175,208 175,208 176,208 176,208 176,208 177,208 178,209 178,209 178,209 179,209 179,209 180,209 180,209 181,210 182,210 182,210 182,210 182,210 183,210 183,210 183,210 183,210 183,210 184,210 184,210 184,210 184,210 184,211 184,211 185,211 185,211 185,211 186,211 186,211 186,211 187,211 187,211 187,211 187,211 187,212 187,212 188,212 188,212 188,212 188,212 189,212 189,212 190,213 190,213 191,213 193,213 193,213 194,213 194,213 194,213 195,214 195,214 195,214 196,214 196,214 196,214 197,214 197,214 198,214 199,214 200,214 200,214 200,214 201,215 201,215 201,214 201,214 202,214 203,214 203,213 204,213 204,212 205,212 207,211 208,211 210,210 210,210 210,209 212,209 212,208 214,208 215,207 216,205 217,204 218,203 218,201 218,200 219,198 220,196 221,196 222,195 223,195 224,194 224,194 224,193 224,192 224,191 224,191 224,191 223,189 223,188 223,187 223,186 223,186 224,186 224,185 224,183 225,182 225,181 226,179 226,179 226,179 227,178 227,178 227,178 228,177 228,176 230,176 231,175 232,175 234,174 235,174 236,175 238,175 238,175 239,175 239,175 241,175 241,175 242,175 243,174 244,175 246,175 246,175 247,176 249,177 250,177 250,177 251,178 252,178 253,178 253,178 253,178 254,178 254,178 255,177 255,177 255,177 255,176 256,176 256,176 257,176 259,174 260,174 261,174 261,174 262,174 262,175 263,174 263,175 263,175 264,175 265,175 265,175 265,175 266,175 266,175 267,175 268,175 266,172 266,172 266,171 265,170 264,170 264,170 262,168 262,168 261,166 260,165 259,165 257,163 256,162 255,161 255,161 252,159 251,158 250,157 249,156 249,156 248,156 248,155 247,155 246,154 245,154 244,153 244,153 243,152 243,152 243,152 243,152 242,152 242,151 242,151 242,151 241,151 241,151 240,150 240,150 240,150 238,149 238,149 238,148 237,148 237,148 237,148 237,148 236,147 236,147 236,147 236,147 235,147 235,146 235,146 235,146 234,145 234,145 233,145 233,144 233,144 232,144 232,144 232,144 231,143 231,143 231,143 231,143 231,143 231,143 231,143 230,142 229,141 229,141 228,140 228,140 228,140 227,140 227,139 227,139 227,139 226,139 226,139 226,139 226,139 225,139 224,138 224,138 223,139 223,139 222,139 222,139 222,139 222,139 222,139 221,139 221,139 221,139 221,140 220,140 220,140 220,140 219,140 219,140 219,140 219,140 219,140 219,140 218,140 218,140 218,140 217,140 217,140 217,140 216,141 216,141 216,141 216,141 216,141 216,141 215,141 215,141 215,141 215,141 215,141 215,141 215,141 215,141 214,141 213,141 213,141 213,141 213,141 213,141 213,141 213,140 212,140 212,140 212,140 212,139 212,139 211,139 211,139 211,139 211,139 211,138 210,138 210,138 209,138 209,137 209,137 209,137 209,137 208,137 208,137 208,137 208,137 207,137 207,136 206,136 206,136 206,136 205,136 205,135 205,135 205,135 204,135 204,134 204,134 204,134 203,134 203,134 203,134 203,134 203,134 202,134 202,134 202,133 202,133 202,133 201,133 201,133 201,133 201,133 201,132 201,132 200,132 200,132 200,132 199,132 199,132 199,132 198,132 198,131 198,131 197,131 197,131 197,131 197,131 196,131 196,131 196,131 195,131 195,131 195,130 194,130 195,128 195,128 195,128 195,127 195,127 195,127 195,127 195,126 195,126 195,126 195,126 195,125 196,125 196,125 196,125 196,125 196,124 196,124 195,124 195,124 195,123 195,123 195,123 195,123 195,123 196,123 196,123 196,123 196,122 196,122 196,122 196,121 196,120 196,120 196,120 197,120 197,120 197,119 197,118 197,118 197,118 197,118 197,117 197,117 197,117 198,116 198,116 198,116 199,116 199,116 199,116 199,116 199,115 199,115 199,115 199,114 200,114 200,114 200,114 200,114 200,113 199,113 199,113 200,113 200,113 200,113 200,112 200,112 200,112 200,112 200,112 200,112 200,111 200,111 200,111 201,111 201,110 201,110 201,110 201,109 201,109 201,109 201,109 201,109 202,108 202,108 202,108 202,107 203,107 203,107 203,107 203,107 203,107 203,106 204,106 204,106 204,106 204,106 204,105 203,105 204,104 204,104 204,104 204,103 204,103 204,103 204,103 204,103 205,103 205,103 205,103 205,103 205,103 205,103 205,102 206,102 206,102 206,102 207,101 207,100 209,100 210,100 210,100 210,100 210,100 210,100 211,100 211,100 211,100 211,99 211,99 213,97 213,97 214,97 214,96 214,96 214,96 214,96 214,96 214,96 214,96 214,95 214,95 214,95 214,95 214,95 213,94 213,94 213,94 213,94 213,94 214,94 214,94 214,93 214,93 214,92 214,91 214,91 214,91 214,91 214,91 214,90 214,90 215,89 215,89 215,89 215,89 215,89 215,89 216,88 216,88 216,88 216,88 216,87 216,87 216,86 216,86 216,86 216,86 216,86 217,86 218,86 218,86 219,85 220,85 220,84 220,84 220,84 221,84 221,84 221,84 223,84 224,84 224,84 225,83 225,83 225,83 225,83 225,83 226,83 226,82 226,81 226,80 225,80 225,80 225,79 227,79 227,78 227,78 227,77 227,75 227,74 229,73 229,73 230,73 231,72 231,71 231,70 232,69 232,69 233,68 235,67 235,67 236,65 236,64 237,63 237,62 236,61 235,59 235,59 236,58 238,58 238,58 239,58 242,58 243,58 243,57 244,58 245,58 247,58 248,58 248,57 249,56 249,55 249,54 249,52 250,51 250,51 251,49 251,49 251,49 251,47 248,46 247,45 246,45 245,45 244,44 244,42 244,40 244,39 243,39 242,38 242,38 242,37 242,35 242,34 242,34 242,33 241,32 240,30 240,30 241,28 242,27 242,26 242,24 242,24 242,23 242,22 241,20 241,16 242,14 242,14 243,13 243,13 245,12 246,12 249,12 250,11 252,10 252,9 253,9 253,8 256,8 256,8 258,9 258,10 258,11 257,12 259,13 260,13 262,13 263,13 264,13 264,13 265,14 265,14 267,14 268,14 269,15 270,15 272,16 273,15 275,14 278,14 280,13 281,12 281,12 282,12 282,12 282,12 283,12 284,12 284,12 285,12 286,12 286,13 288,13 290,14 291,16 293,16 294,17 295,17 296,17 296,17 297,18 298,18 301,19 307,19 310,20 311,20 312,21 313,23 317,22 318,21 319,21 320,21 321,21 321,21 322,21 322,22 323,22 324,23 324,23 326,24 328,25 329,25 331,25 331,25 333,25 334,26 336,26 336,26 338,26 338,25 339,25 340,25 342,25 343,25 344,24 345,24 348,24 348,24 347,24 347,23 345,22 344,19 344,18 344,18 344,17 344,17 345,16 345,15 345,15 345,15 345,14 345,14 346,14 347,15 347,15 349,15 349,15 350,15 352,15 352,15 352,16 353,17 353,17 354,17 356,16 357,16 359,16 360,16 360,16 361,16 361,16 362,16 364,16 364,15 364,14 363,14 362,13 362,13 361,13 360,12 359,11 359,10 357,9 357,9 358,9 359,8 360,7 360,7 360,6 361,6 361,6 360,5 360,4 360,4 360,4 360,3 360,2 360,2 361,2 362,2 362,2 363,3 363,3 364,3 364,3 364,1 364,0 365,0 366,0 366,0 367,1 368,2 370,3 370,4 372,5 373,6 374,7 375,8 375,8 377,8 378,8 380,9 380,9 381,9 382,9 383,10 385,10 385,10 387,10 389,10 393,11 394,11 394,11 395,11 399,11 401,11 402,11 403,11 404,11 404,11 405,11 405,12 406,13 407,13 408,14 409,14 409,15 409,15 412,16 414,17 415,17 415,18 415,18 418,18 418,19 418,23 418,24 417,24 417,24 416,25 416,26 416,26 416,27 416,28 416,29 416,29 416,29 415,30 415,31 415,33 415,34 415,34 414,34 415,34 416,35 417,35 418,35 418,35 418,35 418,35 419,36 419,36 420,36 421,37 421,37 422,37 422,38 423,38 423,38 423,38 425,39 425,39 425,40 425,40 426,40 426,40 426,40 427,40 427,40 428,40 428,40 429,41 429,41 430,41 430,41 429,41 429,42 429,42 429,43 429,43 429,43 429,43 429,44 429,44 429,45 430,45 430,45 430,46 430,46 430,46 430,47 430,47 430,47 430,47 430,47 429,48 429,49 429,49 429,49 428,50 428,50 427,50 427,50 426,51 426,51 426,51 426,51 426,51 426,52 425,52 425,52 425,53 425,53 425,53 425,53 425,54 425,54 425,54 425,55 424,55 424,55 424,55 423,56 423,56 423,56 423,57 423,57 423,57 423,57 423,58 422,58 422,59 421,59 421,59 421,59 421,60 421,60 421,61 421,61 421,61 421,61 420,61 420,61 419,62 419,62 419,63 419,63 419,63 419,64 419,64 419,65 419,65 420,65 421,67 421,67 421,68 421,68 422,68 422,68 424,69 424,69 424,69 425,69 425,70 425,71 425,71 425,72 425,73 425,74 425,75 425,76 425,76 425,77 425,78 424,79 424,79 424,80 424,80 424,81 424,81 424,82 424,83 424,83 424,83 418,85 418,85 417,86 417,86 417,86 416,88 416,88 416,88 416,88 416,89 415,89 416,89 415,89 415,89 415,89 415,89 415,89 415,90 415,90 415,90 415,90 415,90 414,91 414,91 414,92 413,93 413,93 413,94 413,94 413,94 412,94 412,94 410,94 410,94 409,95 409,96 409,98 409,98 407,103 407,103 407,103 407,103 406,103 406,103 406,103 406,104 406,104 407,104 407,104 407,104 407,105 407,105 407,105 407,106 407,106 407,106 407,106 407,107 407,107 407,107 407,107 407,108 407,108 407,108 408,108 408,108 408,108 408,109 408,109 408,109 408,109 408,109 408,110 407,111 407,111 407,112 407,112 407,112 407,113 407,113 408,114 408,115 408,115 408,119 408,119 407,119 407,119 406,120 406,120 405,120 405,121 404,121 403,122 403,122 402,122 401,123 401,123 400,124 400,125 400,127 400,127 400,129 399,133 399,134 399,137 399,137 399,137 399,137 399,137 399,137 399,138 399,138 399,139 399,140 399,140 397,142 397,142 397,144 397,145 398,146 398,146 398,146 397,147 397,148 397,148 396,148 395,149 395,149 394,149 394,150 394,150 394,150 394,150 394,150 395,156 395,156 396,156 396,156 397,156 397,156 397,155 397,155 398,155 398,155 398,155 399,155 400,155 400,155 400,155 400,155 400,155 401,154 401,154 402,154 402,154 402,154 403,154 403,154 403,154 403,154 404,154 404,154 404,155 404,155 405,155 405,155 405,155 405,155 405,156 406,156 406,156 406,156 406,156 406,156 406,157 407,158 408,159 408,159 408,159 409,159 409,159 410,159 411,159 412,159 413,159 415,158 415,158 416,157 416,157 417,157 417,157 418,157 419,157 422,156 422,156 424,154 425,154 426,154 428,153 432,151 432,151 432,151 432,152 432,152 433,152 433,152 433,152 433,152 433,152 433,152 433,152 434,152 434,153 434,153 434,153 434,153 434,153 437,156 437,156 438,156 438,156 438,156 439,157 439,157 440,158 445,160 449,163 450,164 450,164 451,164 451,163 451,163 452,163 454,163 455,163 455,163 456,163 456,163 456,163 457,163 457,163 458,162 458,162 459,162 461,162 461,161 461,161 461,161 461,161 462,160 462,160 462,160 462,160 462,161 462,161 462,161 462,161 462,162 463,162 463,163 463,163 463,164 464,164 464,164 464,164 464,164 464,164 464,164 465,164 465,164 466,164 466,164 466,164 466,164 466,164 466,165 467,165 467,165 467,165 467,165 467,165 467,165 468,166 468,166 468,166 468,166 468,166 468,166 469,166 469,166 469,166 470,166 470,166 470,166 470,167 470,167 470,167 470,168 470,168 470,168 470,168 470,168 470,169 470,169 470,169 470,169 470,169 470,169 471,169 471,170 471,170 471,170 471,170 471,170 472,170 472,170 472,170 472,170 472,171 472,171 473,171 473,171 473,171 474,171 474,172 474,172 474,172 474,172 474,172 474,172 474,172 474,172 474,172 474,173 474,173 474,173 475,173 475,173 475,174 475,174 476,174 476,175 476,175 476,175 477,175 477,175 477,176 478,177 478,177 478,177 478,177 478,178 478,178 478,179 478,180 478,180 478,180 479,180 479,180 479,180 480,180 480,180 480,181 480,181 480,181 480,181 480,181 480,181 481,181 481,182 481,182 481,182 481,182 481,183 481,183 481,183 482,183 482,183 482,183 482,184 483,184 483,184 483,184 484,185 484,185 484,185 485,185 485,185 486,185 487,184 487,184 487,184 491,184 491,184 491,184 491,184 491,184 492,184 492,184 492,184 491,185 491,185 491,186 491,186 491,187 490,187 490,187 490,187 490,188 490,188 489,188 488,189 488,189 487,190 487,190 487,190 487,190 486,192 487,192 486,192 486,192 486,192 486,193 486,193 486,193 486,193 486,193 486,194 486,194 486,194 486,195 486,195 486,195 487,195 487,196 487,196 487,196 487,196 487,197 486,197 486,197 486,197 486,197 486,197 486,197 485,198 485,198 485,198 486,199 486,199 487,199 487,200 487,200 487,200 487,200 487,200 487,200 488,200 488,201 488,201 488,201 488,201 488,201 488,201 488,201 488,201 488,202 489,202 489,202 489,202 489,202 489,203 490,203 490,203 490,203 490,203 490,203 490,203 491,204 491,204 491,204 491,204 491,204 492,204 492,204 493,203 493,203 493,204 493,204 494,204 494,204 494,204 495,204 495,204 496,204 496,204 496,204 496,204 497,205 497,205 497,205 497,206 497,206 497,206 497,207 497,207 497,207 498,207 498,208 498,208 498,208 498,208 498,208 498,209 498,209 498,209 497,210 497,210 496,216 496,218 496,219 495,219 495,220 495,220 495,220 495,220 495,220 494,220 494,220 494,221 494,221 494,221 494,222 494,222 494,223 494,223 495,223 495,224 495,224 495,224 494,224 495,224 495,225 495,225 495,226 495,226 495,226 495,226 495,227 495,227 496,227 496,227 496,227 496,228 496,228 496,228 496,228 496,228 496,228 497,229 497,229 497,229 499,229 499,229 499,229 499,229 499,229 499,229 499,229 499,230 499,230 500,230 500,230 500,230 500,230 500,230 500,230 500,230 500,231 500,231 500,231 500,231 500,231 500,231 500,232 500,232 500,232 499,232 499,232 499,233 498,233 498,233 497,233 496,234 496,234 496,234 495,234 495,234 494,234 493,234 493,234 493,234 492,234 492,234 491,234 491,234 491,235 491,235 491,235 491,235 491,235 490,235 489,235 489,235 489,235 489,235 488,235 488,235 488,235 488,235 487,235 487,235 487,235 487,235 487,235 487,235 486,235 486,235 485,235 485,235 484,235 484,235 484,235 483,235 483,235 482,235 482,236 482,236 482,236 482,236 481,236 481,237 481,237 481,237 481,237 480,237 480,237 480,237 480,237 480,237 480,237 479,238 479,238 479,238 479,238 479,239 479,239 479,239 479,240 479,240 478,240 478,240 478,240 478,240 477,240 477,240 476,241 476,241 476,241 475,241 475,241 475,242 474,242 474,242 474,242 473,243 473,244 473,244 472,244 472,244 472,244 472,244 471,244 471,244 471,244 470,244 470,244 470,244 469,244 468,244 467,244 467,244 467,244 466,244 466,244 465,244 465,244 465,244 465,244 465,245 464,245 464,246 464,246 464,246 464,246 464,247 464,247 463,248 463,248 463,249 463,249 463,249 464,249 464,250 464,250 464,250 464,251 464,251 464,251 464,251 463,252 463,252 463,252 463,253 463,253 463,253 463,253 463,253 463,253 463,253 463,253 463,254 463,254 463,255 463,255 463,255 463,255 464,256 464,256 464,257 464,257 464,257 464,257 464,257 464,257 464,257 464,257 463,257 463,257 463,257 463,258 463,258 462,258 462,258 462,258 462,258 462,258 461,258 461,259 461,259 461,259 461,260 461,260 460,260 460,260 460,260 460,260 460,260 460,260 460,260 460,261 459,261 459,261 459,261 459,261 459,261 459,262 459,262 459,262 458,262 458,262 458,262 458,263 458,263 458,263 458,263 458,263 458,263 458,263 458,263 458,263 458,263 458,264 458,264 458,264 458,264 458,264 458,265 458,265 458,265 458,265 458,265 457,265 457,265 457,266 457,266 457,266 457,266 457,266 457,266 457,266 457,266 457,266 457,266 457,267 457,267 457,267 458,267 458,267 458,267 458,267 458,268 458,268 458,268 458,268 458,268 458,268 457,268 457,268 457,269 457,269 457,269 457,269 456,270 456,270 456,270 456,270 457,270 457,270 457,270 457,270 458,271 458,271 458,271 458,271 458,271 458,272 458,272 459,272 459,272 458,272 458,273 458,274 458,274 458,274 458,274 458,275 458,275 458,275 458,275 458,275 458,275 458,275 458,275 457,276 457,276 457,276 457,276 457,276 457,276 457,276 456,276 456,276 456,277 456,277 456,277 456,277 456,277 456,277 456,277 456,277 456,277 455,277 455,277 455,277 455,277 455,277 455,277 455,277 455,277 455,278 455,278 455,278 456,278 456,278 456,279 457,279 457,279 457,279 457,279 457,279 457,280 457,280 457,280 457,280 458,280 458,280 458,280 458,280 458,281 458,281 458,281 458,281 458,281 458,281 457,281 457,281 457,281 457,282 458,282 458,283 458,283 458,283 458,283 458,284 458,285 458,285 458,285 458,285 458,286 458,286 457,286 457,286 457,286 457,287 457,287 457,288 457,288 457,289 457,289 457,289 457,290 457,290 457,290 457,290 457,290 456,290 456,291 456,291 454,294 454,294 454,294 455,294 456,294 456,295 457,295 458,295 458,295 460,296 461,296 462,296 463,296 464,296 464,296 464,296 464,297 465,297 465,297 466,298 466,298 467,298 468,298 469,298 469,299 470,299 470,299 472,299 472,299 472,300 472,300 473,301 473,301 473,301 474,302 474,302 474,302 474,302 475,303 475,304 475,304 476,305 476,305 476,306 477,307 477,307 477,308 476,308 476,308 475,308 474,309 472,309 471,309 471,309 470,309 469,309 469,309 468,309 467,309 467,309 467,309 467,309 467,308 467,308 467,308 467,308 467,308 467,308 466,308 466,309 466,309 465,309 465,310 465,310 465,310 464,311 464,311 464,311 463,312 463,312 463,312 463,312 463,313 462,313 462,313 462,313 461,313 461,313 460,313 460,313 459,313 459,314 458,314 458,314 457,314 457,314 456,314 455,314 455,314 454,314 453,314 453,314 452,314 452,314 452,314 451,314 451,314 450,315 450,315 450,315 450,315 449,315 449,315 448,315 447,315 446,314 445,314 444,314 444,314 443,314 443,314 442,314 442,314 442,314 424,312 422,311 417,311 416,313 416,314 415,315 415,315 414,317 413,318 413,318 412,320 412,321 413,322 413,324 414,326 414,326 414,328 415,330 414,332 413,333 412,335 412,335 412,336 411,336 411,336 411,337 411,337 409,341 408,342 408,343 405,346 404,346 404,347 403,347 403,347 402,349 402,349 401,350 402,351 402,351 401,351 401,352 401,352 401,353 401,353 401,353 401,354 401,354 401,355 401,355 402,356 400,357 399,357 399,358 399,358 399,358 399,358 398,359 399,360 399,360 399,361 400,361 400,362 400,363 400,364 400,365 400,366 399,367 399,367 399,368 399,369 400,371 400,372 401,372 401,373 403,374 405,374 406,375 407,375 408,375 410,375 414,377 415,378 415,379 416,379 417,379 419,380 419,380 419,380 419,381 419,381 419,381 418,381 418,382 418,382 418,382 418,382 418,382 418,382 418,382 418,382 418,382 418,383 418,383 418,383 418,383 418,384 417,384 417,384 417,384 417,384 416,387 416,388 416,388 415,388 415,388 415,388 415,388 415,388 414,388 414,388 414,388 413,388 413,388 413,388 413,388 412,388 412,388 412,388 411,388 411,388 411,388 410,388 410,388 410,388 409,388 409,388 409,388 409,388 408,388 408,388 408,388 407,388 407,388 406,388 406,388 406,388 406,388 406,388 405,388 405,388 404,388 404,388 403,388 402,388 402,387 401,387 401,387 401,387 400,388 400,388 400,388 399,388 399,388 399,388 398,388 398,388 397,388 397,388 396,388 395,388 395,388 394,388 394,388 394,388 394,388 393,388 393,388 393,388 392,388 392,388 392,389 392,389 391,389 391,389 390,389 390,389 390,389 390,390 389,390 389,390 388,390 388,391 388,391 387,391 387,391 387,391 386,391 386,391 386,392 386,392 386,392 384,392 384,393 383,393 383,393 383,393 383,393 382,393 381,394 381,394 381,394 381,394 381,394 380,394 380,394 380,394 379,394 379,394 379,395 379,395 378,395 378,395 378,395 378,395 378,395 377,395 377,395 377,395 377,395 376,396 376,396 376,396 376,396 376,396 376,396 375,396 375,396 375,396 375,396 375,396 375,396 374,396 374,396 374,396 374,397 373,397 373,397 373,397 373,397 373,397 373,397 372,397 372,397 372,397 372,397 371,397 371,397 371,398 370,398 370,398 370,398 370,398 370,398 369,398 369,398 369,398 368,398 368,398 368,398 368,398 368,398 368,399 367,399 367,399 367,399 367,399 366,399 366,399 366,399 366,399 365,399 365,399 365,399 365,399 365,399 364,399 364,399 364,399 364,399 363,399 362,399 362,400 361,400 361,400 360,400 360,400 359,400 359,400 359,400 358,400 358,400 358,400 358,400 357,400 356,400 356,400 355,400 355,400 355,400 354,401 354,401 354,401 354,401 353,401 353,401 352,401 352,401 352,401 351,401 350,401 350,401 349,402 347,402 347,402 347,402 347,402 347,402 347,402 346,403 346,403 345,403 345,403 344,403 344,403 343,403 342,404 342,404 342,404 342,404 340,404 340,404 340,404 339,405 338,404 338,404 337,405 337,405 336,405 336,405 336,405 335,406 334,406 334,406 334,406 333,406 333,406 332,406 332,406 330,407 330,407 330,407 329,407 329,407 329,407 329,407 329,407 329,407 328,407 328,407 328,407 328,408 328,408 327,408 327,408 327,408 326,408 326,408 326,408 326,408 326,408 326,408 325,408 325,408 325,408 325,409 324,409 324,409 323,409 323,409 323,409 323,409 322,409 322,409 322,409 321,409 321,409 320,410 320,410 320,410 320,410 319,410 319,410 319,410 318,410 318,410 318,410 316,410 316,410 316,410 315,410 312,411 312,411 311,411 310,411 310,412 310,412 310,412 310,412 310,412 310,412 310,412 310,412 310,412 309,413 309,413 309,413 308,413 307,413 307,413 306,413 306,413 305,414 304,414 303,414 302,415 300,415 299,415 299,415 298,415 298,415 298,415 297,415 297,415 296,416 296,416 295,416 294,416 294,416 292,417 291,417 291,417 290,417 289,417 288,417 288,417 286,418 286,418 286,418 284,418 284,418 284,418 284,418 284,418 284,418 284,418 284,418 283,418 283,418 283,418 283,418 282,419 281,419 281,419 281,419 281,419 281,419 280,419 280,419 280,419 280,419 280,419 280,419 280,419 280,419 280,419 280,420 280,420 280,420 279,420 279,420 279,420 278,421 277,421 276,422 271,423 270,423 266,424 265,424 263,424 262,425 260,424 259,425 259,425 258,426 257,426 256,426 256,427 253,428 252,429 251,429 250,429 249,430 247,430 246,428 247,427 249,424 247,423 247,422 247,422 246,422 242,420 240,419 240,419 239,418 238,418 238,418 237,417 237,417 236,416 235,415 234,414 233,414 233,413 233,413 233,412 232,412 232,411 232,410 232,409 232,408 232,408 232,408 232,408 232,407 232,406 232,406 232,406 233,404 233,404 234,404 235,404 235,404 235,403 236,403 237,402 238,402 238,402 239,402 240,401 240,401 242,401 243,401 243,401 243,400 243,400 243,400 243,400 241,399 241,399 240,399 240,398 240,397 239,396 239,396 238,394 237,394 237,393 236,393 234,393 233,393 232,393 231,393 230,393 230,393 230,393 228,393 228,393 227,393 226,393 226,393 226,393 226,393 226,392 225,392 225,392 225,391 224,391 224,391 224,391 224,390 224,390 224,390 224,390 224,390 223,390 223,390 223,390 222,390 222,390 222,389 222,389 222,389 222,389 222,389 222,389 222,389 221,389 221,388 220,387 220,387 220,387 219,387 219,386 219,386 219,386 219,386 218,385 218,385 218,385 218,385 217,384 217,384 216,384 216,384 216,384 215,384 215,384 215,384 215,384 215,384 214,384 214,384 213,384 213,384 213,384 213,384 213,384 212,384 212,385 212,385 212,385 212,385 211,385 211,385 211,385 211,385 211,385 211,385 211,386 210,386 210,386 210,386 209,386 209,386 209,386 209,386 209,387 209,387 209,387 209,387 209,387 208,387 207,387 207,387 207,388 206,388 206,387 206,386 206,386 206,386 206,386 206,386 206,386 206,386 206,386 206,386 206,386 206,386 206,386 206,386 206,385 206,385 206,385 206,385 206,385 206,385 206,384 206,384 207,384 207,384 206,384 207,384 207,384 207,384 207,384 207,384 207,384 208,384 208,383 208,383 208,383 208,383 208,383 208,383 208,383 209,383 209,383 209,383 209,382 209,382 209,382 209,382 209,382 209,382 209,382 209,382 209,381 209,381 209,381 209,381 209,381 209,381 209,381 209,381 209,381 209,380 209,380 209,380 209,380 208,380 208,380 208,380 208,379 208,379 208,379 209,379 209,379 209,379 209,379 209,379 209,379 209,379 209,378 209,378 209,378 209,378 209,378 209,378 209,378 209,377 209,377 209,377 209,377 209,377 209,376 210,376 210,376 210,376 210,376 210,376 210,376 211,376 211,376 211,377 211,377 212,376 212,376 213,376 213,376 213,376 214,376 214,376 214,376 215,376 215,376 215,375 216,375 216,375 217,374 217,374 217,374 217,373 217,373 217,373 217,373 218,373 218,372 218,372 219,372 219,372 219,372 219,371 219,371 219,371 220,371 220,371 220,371 221,370 221,370 221,370 222,369 224,368 224,368 225,366 226,366 226,366 226,366 227,365 228,365 228,365 228,364 228,364 228,364 228,364 229,364 229,364 230,364 230,363 230,363 231,363 231,363 231,363 231,363 231,363 232,363 232,363 233,363 233,363 232,363 232,363 232,363 232,363 232,363 232,363 232,362 232,362 232,362 232,362 232,362 232,362 232,362 232,362 232,362 232,362 231,361 231,361 231,361 231,361 231,361 231,361 231,361 231,361 231,361 231,361 231,360 231,360 231,360 231,360 231,360 231,360 231,359 231,359 231,359 231,359 231,359 231,359 231,359 231,358 230,358 230,358 230,358 230,358 230,358 230,358 230,358 230,358 230,358 229,358 229,358 228,357 228,357 228,357 228,357 227,357 227,357 227,357 227,357 227,357 227,357 227,357 227,357 227,356 226,356 226,356 226,356 226,356 226,356 225,356 225,356 225,356 225,356 224,356 224,356 223,356 223,356 223,356 223,356 223,358 222,358 219,359 217,359 216,359 214,359 211,359 210,359 209,359 209,359 209,359 207,359 205,359 204,359 203,358 202,358 202,357 201,357 200,358 199,358 198,358 195,359 194,359 191,360 190,359 189,359 188,359 188,358 187,358 185,359 184,359 184,359 183,359 183,359 179,359 177,359 169,359 169,359 169,357 168,357 166,358 163,359 163,359 162,359 161,358 160,358 159,357 156,356 155,356 155,356 154,356 152,357 151,358 151,358 150,358 150,358 149,359 149,359 149,360 148,360 148,360 147,360 146,360 145,361 145,361 145,361 144,361 144,361 144,361 142,361 142,361 141,361 141,362 140,362 140,361 139,361 138,361 138,360 137,360 136,360 135,360 135,360 134,360 134,360 133,360 132,360 131,360 130,359 130,359 129,358 129,357 130,355 131,351 132,348 132,348 130,348 129,348 127,348 126,347 125,347 124,347 122,348 122,348 120,347 120,347 119,346 118,346 118,345 116,344 115,344 113,342 113,341 112,341 112,340 112,339 112,339 112,339 111,339 108,340 105,342 104,342 103,343 101,343 100,344 98,344 96,345 95,345 94,346 94,346 92,346 91,346 90,347 89,348 88,348 87,349 87,350 86,351 85,351 84,352 83,352 82,353 81,354 81,354 81,354 81,353 80,353 79,353 79,353 79,352 79,351 78,351 77,351 77,351 76,350 77,350 76,349 75,349 75,348 74,348 73,347 73,347 71,345 70,343 70,343 69,343 69,342 69,342 69,341 69,341 70,340 70,340 69,340 68,340 68,339 67,339 67,339 65,338 65,338 62,338 61,338 60,339 58,339 57,339 57,339 56,339 56,339 55,339 55,338 55,338 54,338 54,337 54,336 53,336 53,335 53,335 53,334 53,333 53,332 53,331 53,331 53,330 53,330 53,329 53,328 53,328 53,327 52,326 52,325 52,325 51,324 51,323 51,323 50,322 49,322 48,321 47,321 47,320 46,320 45,320 44,320 43,320 42,320 42,320 41,320 40,320 40,320 39,321 38,321 37,321 36,321 36,321 35,321 35,320 34,320 34,319 33,319 33,319 32,319 31,319 30,320 29,320 28,320 28,320 28,321 27,321 26,320 25,320 24,320 23,320 23,320 22,320 22,320 21,321 21,321 21,320 20,320 19,319 18,319 18,318 17,318 17,318 16,318 15,317 15,317 15,317 15,317 15,316 15,316 15,315 14,314 14,314 14,313 13,313 12,312 12,311 13,311 13,311 15,311 16,311 17,311 17,311 18,310 18,310 20,310 21,310 21,310 22,310 22,310 23,310 24,310 24,309 24,309 24,310 25,310 25,310 25,309 27,309 27,308 28,308 28,308 27,307 25,304 24,303 24,302 24,300 24,299 24,299 24,299 26,297 26,297 26,296 27,296 27,295 25,293 20,284 20,283 19,282 19,281 19,280 19,280 19,280 18,280 18,279 18,279 18,279 18,278 17,277 17,275 17,275 16,274 16,273 15,271 14,270 13,269 12,269 11,269 10,269 9,269 6,269 5,268 4,265 3,263 2,262 1,261 0,259 0,259 0,258 0,258 1,258 3,256 4,256 5,255 8,254 9,254 9,254 10,253 10,253 11,252 12,252 13,251 15,250 16,250 16,250 17,249 17,249 19,249 20,249 22,249 25,249 27,250 28,250 29,250 31,251 33,251 34,252 35,252 36,252 38,253 39,254 40,255 42,255 44,256 45,257 48,257 49,257 50,258 53,259 55,260 57,261 57,261 57,262 58,262 60,263 60,264 61,264 63,264 64,264 65,262 68,260 69,260 70,260 70,260 70,259 71,258 70,257 71,256 71,256 72,255 72,255 73,254 73,254 73,254 74,254 74,254 75,254 75,254 76,254 77,254 77,254 78,254 78,254 78,254 78,254 79,254 79,254 80,254 80,254 81,254 81,254 81,254 82,255 82,255 82,255 84,252 84,252 84,252 84,252 84,251 84,251 85,250 84,250 85,250 85,249 85,249 85,249 85,249 85,249 85,248 85,248 85,248 85,248 86,246 86,246 86,246 86,246 86,246 86,246 87,246 87,245 87,245 87,245 87,245 87,245 87,245 86,245 86,244 86,244 86,244 85,244 85,244 85,244 85,244 85,244 84,243 84,243 84,243 81,243 80,243 80,243 79,243 78,242 78,242 77,242 77,242 77,242 76,242 76,242 76,242 76,242 75,242 75,242 75,242 75,241 74,241 74,241 74,241 73,241 73,241 71,240 71,241 70,241 70,241 70,241 69,240 69,240 68,240 68,240 66,239 66,239 65,239 65,239 62,238 61,238 61,238 61,238 61,238 60,237 60,237 60,237 60,237 60,237 60,237 59,236 58,236 58,236 58,236 58,236 58,236 57,236 57,236 57,236 56,236 56,236 55,235 55,235 55,235 55,235 54,235 53,235 53,235 52,234 51,234 51,234 51,234 51,234 50,233 50,233 50,233 50,233 50,233 50,233 50,233 50,233 50,233 50,232 50,232 50,231 50,231 50,231 50,231 50,231 50,231 50,230 50,230 50,230 50,230 50,230 50,229 50,229 50,229 50,228 50,228 50,227 50,226 50,226 50,226 50,225 50,225 50,224 50,224 50,224 49,222 49,222 49,222 48,221 47,221 46,220 46,220 46,220 46,220 46,220 46,220 46,220 46,219 46,219 46,218 46,218 46,218 46,217 46,217 46,217 46,217 45,215 45,215 45,215 45,215 45,215 45,215 45,215 45,215 44,215 44,215 44,215 44,214 44,214 44,214 44,214 45,213 45,212 45,212 45,212 45,211 45,211 45,211 45,211 45,211 45,210 45,210 46,210 46,210 46,210 47,209 47,209 47,209 47,209 48,209 48,209 48,209 49,208 50,208 50,208 50,208 51,208 53,207 53,207 54,207 54,207 54,206 54,205 54,205 53,205 53,205 53,205 53,205 53,205 53,204 53,204 53,204 52,203 52,203 52,203 52,203 52,203 52,203 52,202 52,202 52,201 52,201 52,201 52,201 52,200 52,200 51,200 51,200 51,200 51,199 51,199 51,199 50,198 49,198 49,198 49,198 48,198 47,196 47,195 46,195 46,195 46,194 46,194 46,194 46,193 46,193 46,193 46,192 46,192 46,192 46,192 46,191 46,191 46,191 46,190 46,190 45,190 45,190 45,190 45,190 44,190 44,190 44,190 44,190 44,189" id="513" class="canton" fill="steelblue" stroke-width="1" stroke="white" geotype="canton" geoname="Serres" code_insee="513" code_departement="5" nom_departement="Hautes-Alpes" code_region="93" nom_region="Provence-Alpes-Côte d'Azur"/></svg>