<?xml version="1.0" encoding="utf-8"?>
<svg version="1.1" id="svgmap" xmlns="http://www.w3.org/2000/svg" xmlns:xlink="http://www.w3.org/1999/xlink" x="0px" y="0px" width="100%" height="100%" viewBox="0 0 493 500">
<polygon points="195,75 194,73 194,71 193,67 193,67 191,63 183,60 182,60 179,57 179,56 178,55 177,53 172,48 168,45 170,42 170,40 169,38 165,36 160,34 158,32 158,30 165,29 169,29 171,29 172,28 171,25 170,24 169,23 167,21 169,20 163,18 166,13 171,13 171,12 175,9 176,6 180,4 180,0 183,4 186,6 190,7 194,7 199,7 201,7 202,7 204,9 208,12 210,14 211,16 211,18 209,21 205,24 204,25 203,27 202,28 203,30 204,33 205,36 206,39 206,40 205,43 203,46 199,53 198,56 199,57 200,59 202,62 204,66 204,72 205,73 207,75 209,76 214,79 215,81 215,82 214,83 212,86 209,90 209,92 210,94 212,100 211,101 207,102 206,104 209,106 207,111 209,113 209,116 208,120 201,123 200,129 197,135 200,142 203,145 214,146 221,150 223,157 220,160 221,163 219,165 211,168 211,169 217,171 224,173 230,177 230,179 226,183 222,184 222,188 225,188 230,187 231,186 233,188 234,191 236,192 238,199 237,204 232,208 238,212 242,214 244,217 241,219 230,223 225,224 225,236 229,240 230,242 228,250 229,250 230,250 239,248 240,248 244,248 245,248 247,248 248,248 250,251 252,253 255,252 258,252 264,252 268,252 270,252 271,253 271,254 270,256 269,260 269,264 268,265 267,267 269,267 270,266 270,264 270,263 270,262 270,259 271,256 273,254 276,252 279,251 280,249 280,248 278,247 276,247 274,246 273,245 273,243 272,239 272,235 271,232 271,230 272,230 274,228 275,227 273,226 271,225 269,225 268,225 268,223 268,221 268,220 267,216 267,213 265,211 264,209 266,197 266,196 267,195 268,194 280,195 282,195 289,196 292,196 295,196 308,192 310,194 312,196 314,197 316,199 317,200 320,200 323,201 325,202 326,203 327,205 328,206 327,208 327,209 327,210 328,212 331,215 334,219 335,220 338,222 341,223 342,225 343,227 343,227 343,228 343,230 343,231 345,233 345,234 346,234 347,235 349,236 351,238 353,238 355,240 357,242 361,244 362,245 364,247 365,249 365,250 365,250 365,250 365,251 365,251 366,252 367,253 367,254 368,254 369,255 370,256 373,258 376,260 380,263 381,264 382,265 384,268 384,268 385,269 386,270 388,271 390,272 392,273 393,274 394,274 395,275 396,277 400,283 401,285 403,285 408,288 408,288 414,291 418,294 421,297 423,299 424,299 425,300 428,302 432,304 435,307 435,308 436,312 438,315 438,315 441,319 443,322 447,322 451,321 457,321 464,321 469,321 475,322 479,323 483,324 486,325 489,326 493,327 490,328 485,331 484,336 483,337 484,339 484,340 490,375 490,376 489,377 481,377 473,379 471,380 471,381 471,383 470,384 469,384 469,384 469,382 466,381 459,380 456,380 457,382 456,382 455,382 456,381 454,380 451,379 446,379 444,380 443,380 444,381 443,381 442,381 442,380 442,379 442,378 441,379 441,379 440,379 440,379 440,378 438,378 433,379 431,379 431,381 430,382 429,381 430,380 430,377 428,376 427,375 428,375 429,376 430,376 431,376 432,376 436,377 437,377 438,376 440,374 434,370 433,371 434,372 433,374 432,374 431,374 432,373 432,372 431,371 429,370 427,369 425,369 419,368 415,368 410,368 406,368 406,369 405,369 405,368 402,367 396,369 391,371 392,372 392,372 392,372 391,372 391,372 390,371 387,371 381,374 366,380 364,381 364,382 365,382 364,383 363,382 364,381 363,381 360,381 354,383 352,384 351,385 351,386 352,387 351,387 350,386 349,385 347,385 344,386 341,388 339,389 340,390 341,391 340,392 339,391 338,389 335,389 332,391 328,392 326,394 327,396 327,397 327,397 326,397 326,396 325,395 322,395 317,398 313,400 314,402 314,403 313,402 312,401 310,401 308,402 302,406 301,408 304,414 304,415 303,416 302,417 301,416 299,415 297,416 293,415 278,424 279,425 279,425 278,425 277,425 274,426 271,428 268,430 267,432 268,433 267,434 267,434 266,433 260,436 256,440 258,442 257,443 255,441 250,444 247,447 246,449 248,451 247,452 244,450 240,453 237,456 236,459 237,459 239,460 238,460 235,459 233,460 229,465 228,466 227,468 230,469 229,470 227,469 224,471 216,480 212,484 210,488 213,491 217,496 218,498 217,500 216,500 216,500 213,500 213,500 213,497 212,495 210,494 203,490 198,488 194,486 188,483 186,482 182,478 178,471 175,467 171,462 171,461 168,458 160,454 151,450 143,446 140,444 137,441 136,438 135,436 133,434 131,434 127,434 123,434 108,436 106,435 106,433 110,431 114,429 117,427 117,426 116,425 108,423 97,420 87,417 85,416 84,415 81,411 78,407 78,405 79,403 83,394 92,392 92,391 92,391 96,390 97,389 99,388 99,387 101,384 104,378 106,376 108,372 108,373 109,372 109,370 110,369 111,369 115,368 116,368 118,367 119,366 107,362 106,361 105,361 101,361 97,361 95,360 94,360 91,359 86,356 80,351 76,348 74,347 72,346 69,345 67,342 65,340 60,336 57,333 49,327 46,324 46,323 40,319 38,317 36,315 34,313 30,309 29,308 26,305 25,303 24,301 23,296 22,292 21,290 18,288 16,286 14,283 13,281 13,279 13,277 12,274 12,274 10,272 7,269 5,266 5,264 1,255 0,252 0,249 0,245 0,244 1,241 1,239 8,239 18,238 25,238 26,236 27,233 29,228 32,230 34,230 35,229 36,229 37,228 38,229 40,230 42,232 42,233 43,233 44,232 52,232 56,231 64,229 93,224 104,219 104,218 103,216 103,214 102,211 100,209 99,208 98,206 97,204 97,202 98,199 99,196 98,194 98,192 98,190 96,187 96,184 96,183 96,182 94,179 111,172 110,171 123,166 119,165 101,156 106,148 108,144 110,141 109,140 114,135 114,134 120,132 127,131 127,130 130,125 129,124 134,122 142,118 139,116 144,113 149,106 151,105 163,100 170,94 157,87 158,86 162,85 170,82 182,80 184,80 187,80 192,77 195,75" id="605" class="canton" fill="steelblue" stroke-width="1" stroke="white" geotype="canton" geoname="Cagnes-sur-Mer-1" code_insee="605" code_departement="6" nom_departement="Alpes-Maritimes" code_region="93" nom_region="Provence-Alpes-Côte d'Azur"/></svg>