<?xml version="1.0" encoding="utf-8"?>
<svg version="1.1" id="svgmap" xmlns="http://www.w3.org/2000/svg" xmlns:xlink="http://www.w3.org/1999/xlink" x="0px" y="0px" width="100%" height="100%" viewBox="0 0 500 482">
<polygon points="78,0 78,1 78,1 78,1 78,1 79,1 79,1 79,1 79,1 79,1 80,1 80,1 80,2 81,2 81,2 81,2 82,2 82,2 82,2 82,2 83,2 83,2 84,2 84,3 85,3 86,3 86,3 87,3 87,3 87,3 87,4 88,4 88,4 88,4 89,3 89,3 90,3 90,3 90,3 91,3 91,3 92,3 92,3 93,3 93,4 93,4 94,4 94,4 94,4 95,4 95,5 95,5 95,5 96,6 96,6 96,7 97,7 97,7 98,7 99,7 99,7 100,7 100,7 101,7 101,7 102,7 102,7 102,7 103,8 103,8 104,8 104,8 105,8 105,9 105,9 105,9 105,9 105,9 105,9 105,10 105,10 105,10 105,10 105,10 105,11 105,11 105,11 105,11 105,12 105,12 105,12 105,13 104,13 104,13 104,13 104,13 104,14 104,15 104,15 105,16 105,16 106,16 106,17 106,17 106,17 106,18 107,18 108,19 108,19 108,19 108,19 108,20 108,20 108,20 108,20 108,21 108,21 108,21 108,22 108,22 108,22 108,23 109,23 109,23 110,23 110,24 111,24 112,24 112,24 113,25 113,25 113,25 114,25 114,25 115,25 115,25 116,26 116,27 116,27 116,27 117,27 117,28 117,29 117,29 118,29 119,29 120,29 120,30 121,30 121,30 122,31 122,31 122,32 123,32 124,32 124,32 125,33 125,33 125,33 125,33 126,33 126,33 126,33 127,33 127,33 128,33 128,33 129,33 129,34 129,34 129,34 129,34 129,35 129,35 129,35 129,35 129,36 130,36 130,37 130,37 131,37 131,37 131,38 132,38 133,38 133,38 133,39 134,39 134,39 134,40 135,40 135,40 135,41 135,41 135,42 135,42 134,42 134,43 134,43 134,43 134,43 134,43 133,43 133,43 133,44 133,44 132,44 133,45 133,46 133,46 133,46 133,47 133,47 133,48 132,48 132,49 132,49 132,49 132,50 132,50 131,50 131,50 131,50 131,51 131,51 132,51 132,52 132,52 133,52 133,52 134,53 134,53 135,53 135,53 136,53 136,53 137,53 137,53 137,53 137,53 138,53 138,53 139,52 139,52 139,52 140,52 140,52 141,52 141,52 142,52 142,53 143,54 143,54 143,54 143,54 143,55 142,55 142,56 143,56 142,56 142,56 142,57 142,57 141,57 142,58 142,58 141,58 141,59 141,59 142,59 142,60 142,60 143,60 143,61 143,61 144,61 144,61 145,61 145,60 145,60 145,60 146,60 146,60 146,60 147,60 148,59 148,59 148,59 148,59 148,59 148,59 149,59 149,58 149,58 150,58 150,58 151,58 151,58 151,59 152,60 152,60 152,60 153,60 153,60 155,61 156,61 157,61 157,61 157,61 159,62 159,62 159,62 159,63 160,63 161,63 162,64 162,64 162,64 162,64 162,64 161,64 161,64 161,65 161,65 161,65 161,65 161,66 161,66 161,66 161,66 162,67 162,68 163,69 163,69 163,69 163,71 162,71 162,71 162,71 162,72 162,72 162,74 162,74 162,75 162,75 161,75 161,75 162,76 163,76 163,78 163,78 163,78 163,79 164,80 164,80 164,81 163,82 163,82 163,82 163,83 163,83 163,83 163,84 163,85 163,85 162,85 163,86 163,86 163,86 163,86 163,87 164,87 164,88 164,88 165,89 165,89 166,89 166,89 166,90 166,90 165,91 166,92 166,92 167,93 168,93 168,93 168,93 169,94 169,95 170,96 170,96 171,97 171,97 172,98 172,98 173,98 174,98 175,99 176,99 176,100 177,100 178,101 180,101 180,101 180,101 181,100 182,99 182,99 182,99 183,99 183,99 184,100 184,101 185,101 186,102 186,102 188,101 189,101 189,102 189,103 189,103 189,104 189,104 190,106 190,106 191,106 191,106 193,107 193,107 194,107 195,107 195,107 196,107 196,107 198,106 199,106 199,106 200,105 201,105 202,105 203,105 204,104 205,104 205,104 207,103 208,103 208,103 208,103 209,103 210,103 210,104 211,104 212,105 212,105 213,105 213,105 215,104 215,104 216,104 215,103 215,103 215,103 216,102 217,102 217,101 218,101 218,100 219,100 220,100 221,100 222,101 223,101 224,101 224,101 224,101 225,101 226,101 227,101 227,102 228,102 229,103 230,103 231,103 232,103 232,104 233,104 234,105 234,105 234,105 234,106 235,106 235,107 235,107 235,108 235,109 237,110 237,110 238,109 239,109 239,109 239,110 240,110 241,110 242,110 242,109 243,109 243,109 244,110 244,110 244,110 244,110 245,110 245,110 245,110 246,111 247,111 248,112 248,112 249,112 250,112 251,112 251,112 251,112 251,112 252,112 252,112 252,112 253,112 253,112 254,113 255,113 255,113 256,114 256,114 257,114 257,114 257,114 257,115 258,115 259,116 259,116 260,116 261,116 261,116 261,117 262,117 262,117 263,117 263,117 263,117 263,118 264,118 264,118 265,119 266,120 267,121 268,121 269,122 270,122 271,122 272,123 272,124 273,124 274,125 275,125 276,125 276,126 277,125 280,126 280,126 280,125 280,125 280,124 281,124 282,123 283,123 284,123 284,123 285,123 285,123 286,123 286,122 287,122 287,122 288,121 289,121 291,120 291,119 292,119 292,120 293,120 293,121 294,122 294,122 294,123 294,123 295,124 296,124 297,124 297,124 297,124 298,124 299,125 300,125 301,126 302,127 302,128 303,128 304,127 304,127 305,127 305,127 306,127 307,126 307,126 308,125 308,125 309,125 309,125 309,125 310,125 311,125 311,125 311,126 311,128 311,129 311,129 312,129 312,130 312,130 312,130 312,130 312,130 312,130 312,130 312,131 313,131 313,131 313,131 313,131 313,131 313,132 313,132 313,132 313,132 313,132 314,132 314,132 314,132 314,133 314,133 314,133 315,133 315,133 315,134 315,134 315,135 315,135 315,136 316,136 316,136 317,136 318,136 318,136 319,136 320,136 320,136 320,136 321,137 323,138 323,139 323,140 323,140 323,141 323,142 325,142 326,143 326,143 327,144 328,144 328,144 328,144 328,144 329,144 329,144 330,145 330,145 330,145 331,145 331,145 331,145 331,146 331,146 331,146 331,147 332,147 332,148 332,148 332,148 333,149 334,149 334,149 334,149 334,150 334,150 335,150 335,150 336,150 337,150 339,150 339,150 340,150 341,150 341,150 342,150 343,149 343,149 344,148 345,148 345,148 345,147 346,146 346,146 347,145 347,145 347,145 347,145 347,145 348,145 349,146 350,146 351,146 352,147 352,147 353,148 353,148 353,148 353,148 354,149 353,149 353,149 353,150 353,150 353,150 353,150 354,151 354,151 354,151 354,151 354,152 354,152 354,152 355,153 355,153 355,154 355,154 355,154 356,154 356,155 357,155 357,156 357,157 358,158 358,159 359,159 360,159 360,160 361,160 361,160 362,160 363,160 364,160 364,160 364,161 365,161 366,162 366,163 367,164 367,165 368,165 368,166 370,166 372,166 372,166 373,166 374,166 374,166 375,166 375,166 376,166 376,166 376,167 377,168 377,168 378,168 379,169 380,169 380,169 380,170 380,170 381,170 381,171 382,171 382,171 382,171 383,171 384,171 385,171 386,170 386,170 387,170 387,169 387,169 387,169 387,169 388,168 388,168 389,168 390,168 390,168 391,168 392,168 392,168 392,168 393,168 393,169 394,169 394,169 395,169 395,169 396,169 396,168 397,168 398,168 398,168 399,168 399,168 400,167 400,168 401,168 402,168 403,169 404,169 404,168 405,168 405,166 405,166 406,167 407,167 407,167 407,168 408,168 409,168 409,168 410,169 410,169 410,170 411,170 412,170 414,170 414,170 415,170 415,170 415,169 416,169 416,169 416,169 417,169 418,169 418,169 419,168 419,168 420,169 420,169 420,169 421,169 422,169 423,169 423,169 424,168 424,168 425,168 426,168 427,168 428,168 428,168 429,168 429,168 429,167 430,167 430,167 430,168 431,168 431,168 432,168 432,168 432,168 432,169 432,169 433,169 432,170 432,170 432,170 433,170 433,171 433,171 433,171 433,171 433,172 433,172 433,173 433,173 433,173 433,174 433,174 433,174 432,175 433,175 434,175 434,176 434,176 434,177 435,177 435,178 435,178 435,178 436,179 436,179 436,179 436,180 437,180 437,180 437,181 437,181 437,181 437,182 437,183 438,183 438,183 439,183 439,183 439,184 439,184 440,184 440,185 440,186 440,186 440,187 441,187 441,188 441,189 441,190 441,190 442,191 442,191 443,191 444,190 445,190 445,190 446,190 446,190 447,190 447,190 448,190 449,190 449,190 449,190 450,190 451,190 452,189 452,189 453,189 453,189 454,189 455,188 455,188 456,188 456,188 456,187 457,187 458,187 459,186 460,186 461,186 461,186 461,185 462,185 462,186 462,185 463,185 463,185 464,184 465,185 465,184 466,184 466,184 467,184 468,184 468,184 468,184 469,184 469,184 470,184 470,184 470,184 471,185 472,185 473,186 473,186 474,186 475,187 476,188 477,188 477,188 478,189 478,189 479,189 480,189 480,189 481,188 483,188 483,188 484,188 485,188 485,188 487,189 487,189 487,190 487,190 487,190 487,191 488,191 489,191 490,192 491,192 491,193 492,193 493,193 494,194 494,194 495,194 495,193 495,194 495,195 495,196 496,196 497,196 497,199 498,200 499,201 498,202 499,203 499,204 497,205 496,205 496,206 495,206 494,206 494,207 495,207 495,208 495,209 495,209 496,210 498,212 498,213 499,213 498,215 497,217 497,217 497,217 495,218 495,218 495,220 495,220 495,222 495,223 495,225 496,226 495,227 495,227 495,229 494,230 494,231 494,231 496,233 496,234 494,235 495,237 495,237 496,239 496,240 494,241 492,242 492,243 490,245 489,246 489,246 489,246 490,247 490,247 491,248 491,249 492,250 492,251 492,251 492,251 492,252 492,252 492,254 492,256 491,257 491,257 491,258 490,258 490,258 489,259 488,259 487,260 487,260 487,260 486,260 485,261 485,262 484,262 484,262 484,263 484,264 484,264 484,264 484,264 484,264 485,264 485,264 485,265 486,265 487,265 488,266 488,266 489,266 489,266 490,267 490,267 491,267 492,268 493,269 494,270 494,270 494,270 494,271 494,271 495,272 495,272 495,272 495,273 495,273 496,273 496,273 496,273 496,273 497,274 497,274 497,274 498,275 498,276 499,276 499,276 499,277 499,277 499,277 499,278 500,280 499,280 499,280 498,280 497,280 497,280 496,281 495,281 495,281 494,281 494,281 494,282 493,282 493,282 494,282 494,282 494,282 494,283 494,283 493,283 493,283 492,283 492,283 491,283 491,283 491,283 491,283 490,283 490,283 490,283 489,283 489,283 488,283 488,283 488,283 487,283 487,283 487,283 486,283 486,283 485,283 485,284 484,284 484,284 484,284 483,284 482,285 482,285 482,285 482,285 482,285 481,286 481,286 481,286 481,286 481,287 481,287 480,287 480,288 480,288 480,288 480,288 480,288 479,288 479,289 479,289 478,289 478,289 478,289 478,289 477,289 475,289 475,289 475,289 475,289 474,290 473,290 473,290 473,291 472,291 472,291 472,291 472,292 472,292 472,292 472,292 471,293 471,293 471,293 471,293 471,293 470,293 470,294 470,294 470,294 469,294 469,294 469,294 469,295 468,295 468,295 468,295 468,295 468,296 468,297 468,297 468,297 468,298 468,298 468,298 468,298 468,298 468,299 468,299 468,299 468,299 468,300 468,300 468,300 468,300 468,300 468,300 468,301 468,301 467,301 467,301 467,301 467,301 467,301 466,302 466,302 466,302 465,302 465,303 465,303 464,303 464,303 463,303 463,303 463,303 462,303 462,303 462,303 462,303 462,303 462,304 462,304 462,304 461,304 461,305 460,305 460,305 460,305 460,305 460,305 460,305 459,306 459,306 459,307 459,307 459,307 458,308 458,309 458,309 458,309 458,310 458,310 458,311 457,311 457,312 457,313 457,313 456,313 456,314 456,314 456,316 455,316 455,317 455,317 453,318 453,319 452,319 452,320 451,320 451,321 450,322 450,323 451,323 450,323 450,323 450,324 450,324 451,326 451,326 451,327 451,327 448,327 448,326 448,326 447,325 447,325 447,325 447,324 447,324 447,324 446,324 446,324 446,324 446,324 446,324 445,325 445,325 444,325 444,325 444,325 444,325 443,325 443,324 443,324 442,324 441,324 441,324 441,324 440,324 440,324 440,324 440,324 439,324 438,324 437,323 437,323 437,323 436,323 436,323 434,323 434,322 432,322 431,322 430,322 429,321 428,320 427,320 426,320 423,320 423,320 423,320 423,320 422,320 422,321 421,321 420,321 420,321 420,321 420,321 420,321 419,321 419,321 418,320 418,320 418,320 417,320 417,320 416,320 416,320 416,320 415,320 415,320 414,320 415,321 415,321 414,322 414,322 414,323 414,323 414,323 413,324 413,324 412,325 412,325 412,325 411,325 411,325 411,326 411,326 411,326 411,326 411,326 410,326 410,327 409,327 409,326 408,326 408,327 407,327 407,326 406,326 406,326 405,324 405,324 405,324 404,324 404,324 404,324 403,324 403,324 402,324 401,324 401,324 401,324 401,324 400,324 400,324 399,326 398,326 398,326 399,327 399,327 399,327 399,327 398,327 397,327 397,327 397,327 397,327 397,327 396,327 396,327 396,326 395,326 395,326 395,326 395,326 394,326 394,326 393,326 393,326 393,326 393,325 393,325 392,325 392,325 392,326 392,326 391,326 391,325 391,325 391,326 391,326 390,327 390,327 390,327 390,327 390,327 390,328 390,328 391,328 391,329 391,329 391,329 392,330 392,330 392,330 392,331 392,331 392,331 392,331 392,331 393,331 393,332 393,332 393,332 393,332 394,333 394,333 394,333 394,333 395,333 395,333 395,333 395,334 395,334 396,335 396,335 396,335 396,335 396,336 396,336 396,336 396,336 396,336 397,337 397,337 397,337 397,337 397,337 397,337 397,337 397,337 397,337 397,337 398,337 398,337 398,337 398,338 398,338 399,338 399,339 400,339 400,339 400,339 400,339 400,340 400,340 400,340 400,340 400,341 400,341 400,341 400,341 400,341 400,341 400,342 401,342 401,342 401,342 401,343 401,343 402,343 402,343 402,343 402,343 402,343 402,343 402,343 403,343 403,343 404,343 405,344 405,344 405,344 406,344 406,345 406,345 407,345 408,345 407,347 407,347 405,346 405,346 405,346 405,346 404,346 404,346 404,346 404,346 404,346 404,346 404,346 404,347 403,347 403,348 403,348 403,348 403,348 403,348 403,348 403,348 403,348 403,348 403,349 403,349 403,349 403,349 403,349 403,350 403,350 403,350 403,350 403,351 402,351 403,351 403,351 402,352 402,352 402,353 402,353 403,354 403,354 403,354 403,354 403,354 403,354 403,354 403,354 403,355 403,355 403,355 403,355 403,355 403,355 403,355 403,355 403,355 403,356 403,356 403,356 403,357 403,357 405,358 408,360 408,360 408,360 408,360 407,360 407,361 407,361 406,361 406,360 406,360 405,361 405,361 405,361 405,361 405,361 405,361 405,361 404,361 404,361 404,361 404,361 404,361 404,361 404,362 404,362 404,362 404,362 404,362 404,362 404,362 403,362 404,362 404,362 403,362 403,362 403,362 403,363 403,363 403,363 403,363 403,363 403,363 403,363 403,364 403,364 403,364 403,364 403,364 403,364 403,364 403,364 403,364 403,364 404,364 404,364 404,364 404,364 404,364 404,365 404,365 404,365 404,365 404,365 404,365 404,365 404,365 404,366 404,366 404,366 404,366 404,366 404,366 404,366 404,366 404,366 404,366 404,366 404,366 403,366 403,366 404,366 404,366 404,367 404,367 404,367 404,367 404,367 404,367 404,367 404,367 404,367 404,367 404,368 403,368 403,368 403,368 403,368 403,368 403,368 403,368 403,368 403,368 402,368 402,368 402,368 402,368 402,368 402,368 402,368 402,368 402,368 402,368 402,368 402,368 402,368 401,368 401,368 401,368 401,368 401,368 401,368 401,368 401,368 401,368 401,368 401,368 401,368 401,368 401,368 400,368 400,368 400,368 400,368 400,368 400,368 400,368 400,368 399,368 399,368 398,368 397,368 396,368 394,368 393,368 392,368 391,368 391,368 389,369 388,369 387,369 387,369 387,370 387,370 386,370 386,371 386,371 386,371 386,371 386,371 386,371 386,372 386,372 386,372 386,373 386,374 385,374 385,374 385,374 385,374 384,375 384,375 383,375 383,375 383,376 383,376 383,376 382,376 382,376 382,376 382,377 382,377 382,377 381,377 381,377 381,377 381,377 381,378 380,378 380,378 380,378 380,378 380,378 379,378 379,378 376,380 376,380 376,381 376,381 376,382 376,382 376,383 376,385 376,386 376,386 376,386 376,387 376,387 376,388 376,388 376,388 376,389 376,389 376,389 376,390 376,390 376,392 376,393 376,394 376,396 376,396 376,396 376,398 376,398 376,399 376,399 376,400 376,400 376,401 376,402 376,403 377,403 377,404 377,406 377,406 377,408 377,409 377,409 377,410 377,411 378,411 378,411 378,413 378,414 378,414 378,415 379,415 379,416 378,416 377,416 373,417 372,418 372,418 372,418 373,418 374,418 374,418 374,418 373,419 373,419 374,420 374,421 374,421 375,421 375,421 375,421 375,422 375,422 375,422 376,422 376,422 376,423 376,423 376,423 376,424 376,424 377,424 377,425 378,425 378,425 378,425 378,425 378,425 378,426 378,427 379,427 379,428 379,428 380,429 380,429 381,429 381,430 382,430 382,432 383,433 382,434 383,436 382,437 383,437 384,437 384,438 384,438 384,438 384,439 384,440 383,440 383,441 383,441 383,442 383,442 384,442 388,446 388,446 388,446 388,446 389,447 390,447 390,447 390,447 389,448 389,449 390,449 390,449 390,449 390,450 390,450 390,450 391,451 391,451 391,451 391,452 391,452 391,452 392,453 392,453 392,453 393,453 394,454 394,454 394,454 394,454 394,454 394,454 394,455 395,455 397,456 397,456 397,456 396,457 395,458 394,459 394,460 393,462 393,462 394,465 394,466 393,466 394,466 394,467 394,467 394,467 394,467 394,467 394,467 394,468 394,468 394,468 394,468 394,468 394,469 394,470 394,470 393,470 393,470 392,469 392,469 392,469 392,469 392,469 391,469 391,469 390,469 390,469 390,469 389,468 389,468 389,469 389,469 389,469 388,469 387,469 387,470 387,470 387,470 387,470 387,470 387,470 387,470 387,471 386,470 386,470 386,470 386,470 385,470 385,470 385,470 385,470 384,470 382,470 382,470 382,470 381,470 381,470 380,470 380,470 380,471 380,471 380,471 379,471 379,471 379,471 379,471 379,472 379,472 379,472 379,472 380,472 380,472 380,472 380,472 380,472 381,472 381,472 382,472 382,472 382,473 382,473 382,473 383,473 383,473 383,473 383,473 384,474 384,474 384,475 384,475 384,475 384,476 384,477 385,477 385,477 384,477 384,477 384,477 384,477 383,477 383,477 383,477 383,477 382,477 382,477 382,477 382,477 382,477 381,477 381,477 382,477 382,477 381,477 381,477 381,477 381,477 381,477 381,478 380,478 381,478 381,478 381,478 381,478 381,478 381,478 381,479 381,479 381,479 381,479 381,479 381,479 381,479 381,479 380,479 380,480 380,480 379,479 379,479 379,479 379,479 379,479 379,479 378,479 378,479 378,479 378,479 377,478 377,478 377,478 377,477 377,477 376,477 376,477 376,478 376,478 375,478 375,479 375,479 375,479 374,478 374,478 374,478 374,478 374,478 373,478 372,478 372,478 372,478 372,478 372,478 371,478 370,478 370,479 369,479 369,478 369,478 369,478 369,478 368,478 368,477 368,477 368,477 368,477 368,477 368,477 368,477 368,477 367,477 367,477 367,477 367,477 367,478 367,478 367,478 367,478 367,478 367,478 367,478 367,478 367,478 367,478 366,478 366,478 366,478 366,478 366,479 366,479 366,479 365,479 365,479 365,479 365,479 365,479 365,479 365,480 364,480 364,480 364,480 364,480 364,480 364,480 364,480 363,480 363,480 363,480 363,480 362,480 362,480 362,480 362,480 362,480 361,481 361,481 361,481 361,481 360,481 360,482 360,482 360,481 360,481 359,482 359,481 359,481 359,481 359,481 359,480 359,480 359,480 359,480 359,479 359,479 359,479 359,479 359,479 360,478 360,478 360,478 360,478 360,478 359,478 358,478 358,478 358,477 359,477 359,477 359,477 360,477 360,477 360,477 360,477 360,477 360,477 360,477 360,477 360,477 360,476 360,476 360,476 360,476 360,476 359,476 359,476 359,476 358,476 358,476 358,476 357,475 357,475 357,475 357,475 357,475 357,474 357,473 357,473 357,473 357,472 357,473 357,472 357,472 357,473 357,473 356,473 356,472 356,472 356,473 356,472 356,472 356,472 355,473 355,473 355,473 355,473 355,473 355,473 355,473 355,473 355,473 355,473 354,473 354,473 354,473 354,473 354,473 353,473 353,472 353,472 353,472 353,473 353,473 353,473 352,473 352,473 352,473 352,474 352,474 352,473 352,473 352,473 352,473 351,473 351,473 351,473 350,473 350,473 348,474 348,474 348,475 347,475 347,475 346,477 345,477 344,477 344,477 343,477 342,477 342,477 341,478 340,478 339,478 339,478 339,479 338,479 338,479 338,480 338,480 337,480 337,480 337,480 337,480 337,480 337,480 337,480 336,480 335,480 335,480 335,480 335,480 335,479 335,479 335,479 335,478 335,478 335,478 335,478 335,478 335,477 335,477 335,477 335,477 335,477 335,477 335,476 335,476 335,476 335,475 335,475 335,475 335,475 335,475 336,475 335,475 335,475 335,475 336,475 335,474 335,474 335,474 335,474 335,474 335,474 335,474 335,474 335,474 335,473 335,473 335,473 335,473 335,473 335,473 335,473 335,473 335,472 335,472 335,472 334,472 334,472 334,472 334,472 334,472 334,473 333,473 333,473 333,473 333,473 333,473 333,473 332,472 332,472 332,472 332,472 332,472 332,471 332,471 332,471 332,471 332,470 332,470 332,470 332,470 332,470 332,470 332,470 332,470 331,470 331,469 331,469 331,469 331,469 331,469 331,469 331,469 331,469 331,469 330,469 330,469 330,469 330,469 328,468 328,468 328,468 328,468 328,468 328,468 328,468 328,468 327,468 327,468 327,468 327,468 327,468 327,468 326,468 326,468 326,468 325,468 325,468 325,467 324,467 324,467 324,467 324,467 323,467 323,467 323,467 323,467 322,467 322,467 322,467 322,467 322,467 321,467 321,466 321,466 321,466 319,465 321,464 322,463 322,463 322,463 322,463 322,462 323,462 323,461 324,461 324,461 324,460 324,460 324,460 325,460 325,460 328,457 329,456 329,456 330,456 330,455 330,455 331,454 331,454 331,453 332,453 332,452 332,452 332,451 332,451 332,450 332,449 332,449 332,448 332,448 332,448 332,447 332,447 332,447 331,446 331,446 331,445 331,445 330,444 330,443 330,443 330,443 328,442 325,439 324,438 320,435 316,431 316,431 316,431 316,431 314,432 313,430 312,430 312,430 312,430 312,429 311,428 310,428 310,428 310,427 309,427 309,427 309,427 309,426 308,425 308,424 308,424 307,422 307,421 307,421 307,420 307,420 307,420 307,419 307,419 307,419 307,419 308,419 311,419 311,418 311,418 310,418 310,416 310,416 313,409 314,407 314,406 314,406 314,406 315,404 315,402 316,401 316,400 316,399 316,399 316,399 316,398 316,398 316,398 316,397 317,397 317,397 318,394 318,393 317,392 317,392 316,392 316,391 317,388 318,388 318,388 318,387 318,386 318,385 318,385 318,385 318,384 318,384 318,383 318,382 318,382 318,382 317,381 317,381 317,380 317,380 316,380 315,379 314,379 314,378 314,378 314,378 314,378 314,378 314,378 314,378 314,377 314,377 314,377 314,376 314,376 314,376 314,376 313,376 313,375 313,375 312,375 312,374 312,374 312,374 312,374 311,374 311,374 311,373 311,373 311,373 311,373 311,372 312,372 312,371 312,371 312,371 312,371 312,370 312,370 312,369 312,369 312,369 311,368 311,368 311,368 311,368 311,368 310,367 310,367 310,367 310,366 310,366 310,366 311,365 311,365 311,365 311,365 311,364 311,363 311,363 310,363 310,362 310,362 311,362 311,362 311,362 311,362 311,362 312,362 312,361 312,361 312,361 313,361 313,361 313,360 313,360 313,360 312,360 312,360 312,359 312,359 311,359 311,359 311,358 311,358 311,358 311,357 310,357 310,357 310,357 311,357 311,357 311,357 311,357 311,357 311,356 311,356 311,356 311,356 312,357 312,357 312,357 312,356 312,356 313,356 313,356 313,356 313,355 313,355 313,355 313,355 313,355 314,355 314,355 315,355 315,355 316,355 316,355 316,355 317,355 317,354 317,354 317,354 317,354 316,354 316,354 316,353 316,353 316,352 316,352 316,352 316,351 316,351 315,351 315,351 315,351 315,350 314,350 314,350 314,350 314,350 314,350 314,350 314,350 313,351 313,351 313,351 312,351 312,352 312,352 311,352 311,352 311,352 311,352 311,351 310,351 310,351 310,351 310,351 310,351 310,350 310,350 310,350 310,350 309,349 309,349 308,349 308,348 309,348 309,348 309,348 309,348 310,348 310,347 310,347 310,347 310,347 310,347 310,347 310,346 310,346 310,346 310,346 310,346 310,346 310,346 311,345 311,345 311,345 312,345 312,345 312,345 312,344 312,344 312,344 312,344 312,343 312,343 312,343 312,343 311,343 311,343 311,343 311,343 311,342 311,342 311,341 310,341 310,341 310,341 310,341 310,341 310,340 310,340 310,340 310,340 310,339 310,339 310,339 310,339 310,338 310,338 311,338 312,338 312,338 313,338 313,338 313,338 313,338 313,338 313,337 313,337 313,337 313,337 313,337 313,337 313,337 313,337 313,337 314,336 314,336 314,337 315,337 315,337 316,337 316,337 316,337 316,337 316,337 316,337 317,337 317,337 317,337 318,337 318,337 318,337 318,337 319,337 319,337 319,337 319,337 319,337 319,336 319,336 319,336 320,336 320,336 320,337 320,336 320,336 320,336 320,337 320,337 320,337 320,337 321,336 321,336 321,336 321,336 321,336 321,336 321,336 321,336 321,336 321,336 321,336 321,335 321,335 322,335 322,336 322,336 322,335 323,335 323,335 323,335 323,335 323,335 324,335 324,335 324,335 324,335 325,335 325,335 325,335 325,335 325,335 325,335 325,336 325,336 325,336 325,336 325,335 325,335 325,335 325,335 325,335 325,335 325,335 325,335 325,335 325,334 325,334 325,334 325,334 325,334 325,334 325,334 325,334 326,334 326,334 326,334 326,334 326,334 326,334 326,334 326,334 326,334 326,334 326,334 327,334 327,334 327,334 327,334 328,334 328,334 328,334 328,334 329,334 329,334 330,333 330,333 330,333 330,333 331,333 331,333 331,333 331,333 331,333 331,334 331,334 331,334 332,334 332,334 332,333 332,334 332,334 333,334 333,334 333,333 333,333 333,333 333,333 332,333 332,333 332,332 332,332 332,332 332,332 332,332 331,332 331,332 331,331 331,331 331,331 331,331 330,331 330,331 330,331 330,331 331,331 331,331 331,331 331,331 331,330 331,330 331,330 331,330 331,330 331,330 331,330 331,330 332,330 332,329 332,329 332,329 332,329 332,329 332,329 332,329 333,328 335,327 335,326 335,326 335,326 335,326 335,326 335,326 335,326 336,326 336,326 336,326 336,326 337,326 337,326 337,326 337,326 338,325 338,325 338,325 339,325 339,325 339,325 340,325 340,325 340,325 340,325 341,325 341,325 341,325 341,325 341,325 341,324 341,324 341,324 341,324 341,324 340,324 340,323 340,323 340,323 339,322 339,322 338,322 338,322 337,321 336,321 336,321 335,321 335,321 334,321 334,320 334,320 334,320 333,320 333,320 333,320 333,319 333,319 333,319 333,320 333,320 333,320 334,320 334,320 334,320 334,320 334,320 334,320 334,320 334,320 334,320 335,320 335,320 335,320 335,320 335,320 335,320 335,320 335,320 336,320 336,320 336,320 336,320 336,320 336,320 336,320 336,320 336,320 336,320 336,320 337,320 337,320 337,320 337,320 337,320 338,320 338,320 338,320 338,320 338,320 338,319 338,319 338,319 338,319 338,320 338,320 338,320 339,320 339,320 339,319 339,319 339,319 339,319 339,319 340,319 340,319 340,319 340,319 340,319 341,319 341,319 341,319 341,319 341,319 341,319 341,319 341,319 341,319 342,319 342,318 342,318 342,318 342,318 342,318 342,318 342,318 342,318 342,317 343,317 343,317 343,317 343,317 343,317 343,317 344,317 344,318 344,318 344,318 344,318 345,317 346,317 346,317 347,317 347,317 347,317 347,317 348,317 349,317 349,317 349,317 349,317 350,316 350,316 350,316 351,316 351,316 351,316 351,316 351,316 351,316 351,316 351,315 351,315 351,315 351,314 351,314 351,314 351,313 351,313 350,313 350,313 350,313 350,313 350,313 350,312 350,312 349,311 349,311 349,311 349,311 349,310 349,310 349,310 349,310 349,310 349,309 349,309 349,309 349,308 349,308 349,307 349,307 349,307 349,306 349,306 348,306 348,305 348,305 347,304 347,304 347,304 347,303 347,303 347,303 347,303 347,303 347,303 347,302 347,302 347,302 347,302 347,301 347,301 347,301 347,301 347,300 347,300 347,300 347,300 347,299 347,299 347,299 346,299 346,298 346,298 346,298 346,298 346,297 346,297 346,297 346,297 346,296 346,296 346,296 346,296 346,296 347,295 347,295 347,295 347,294 347,294 347,294 346,294 346,294 346,294 346,294 346,294 346,294 346,293 346,293 346,293 346,293 346,293 346,293 345,292 345,292 345,291 345,291 345,291 344,290 344,290 345,289 345,289 345,289 345,288 345,288 345,288 344,287 344,287 344,287 344,287 343,286 343,286 343,286 343,286 343,286 343,286 343,285 343,285 343,284 344,284 344,284 343,283 343,283 343,283 343,283 343,282 343,282 342,281 342,281 342,281 342,281 342,281 342,281 341,281 341,281 341,280 341,280 341,280 340,280 340,280 340,280 340,280 340,279 340,278 340,278 340,277 340,277 340,277 339,277 340,277 339,277 339,277 337,277 337,277 333,279 332,279 332,279 331,279 331,279 330,279 330,278 328,278 327,278 326,278 325,279 324,279 323,279 323,279 322,279 322,280 321,281 320,284 318,286 318,286 318,288 317,289 317,289 317,289 316,290 315,290 314,290 314,290 312,290 310,290 309,291 307,291 306,293 306,295 306,296 305,297 305,297 305,298 304,298 304,299 303,300 303,301 303,301 302,301 302,302 302,302 301,303 301,303 301,303 300,303 300,304 300,304 300,304 300,304 299,305 299,306 299,306 298,306 298,306 298,306 297,306 297,306 296,307 295,307 295,307 294,307 293,307 293,307 292,307 292,307 292,307 292,307 291,307 291,306 291,306 290,307 290,307 290,307 290,307 289,306 289,306 289,306 288,306 288,306 288,306 287,307 287,307 287,307 287,307 287,307 287,307 286,307 286,307 286,307 285,307 285,307 285,307 285,307 285,307 284,308 284,308 284,308 284,308 283,308 283,308 283,308 283,308 282,308 282,308 282,308 282,307 281,307 281,306 281,305 281,305 281,305 280,305 280,305 280,305 279,305 279,304 279,304 279,303 279,303 278,303 278,302 277,302 277,302 277,302 276,302 275,302 274,302 274,302 274,301 273,301 273,301 273,300 273,300 273,299 272,299 271,298 271,298 272,298 272,298 272,297 273,297 272,296 272,296 272,296 272,295 273,295 273,295 273,295 272,294 272,294 271,294 271,294 271,293 271,293 271,292 270,292 270,292 269,292 270,292 270,291 270,291 270,290 270,290 270,289 270,288 270,288 270,288 270,287 270,286 270,286 270,286 270,285 270,285 271,285 271,285 271,284 271,284 271,284 271,283 270,282 270,281 270,281 270,281 270,280 271,280 271,279 271,279 271,279 271,277 271,276 271,276 270,275 270,275 270,275 269,275 269,274 269,274 269,274 269,273 269,273 269,273 268,273 268,273 267,273 267,272 267,272 267,272 267,271 267,271 267,270 267,270 267,270 266,270 266,270 266,270 264,270 263,270 263,270 262,271 262,270 261,270 261,271 261,271 260,271 260,272 259,272 259,272 259,272 259,272 259,272 258,272 258,272 257,272 257,272 256,272 256,272 255,272 255,272 254,272 254,272 253,272 253,272 253,272 253,272 253,273 253,273 252,273 252,273 251,274 250,274 249,274 248,274 248,275 247,275 246,275 246,275 245,275 245,275 245,276 244,276 244,276 244,276 243,276 243,276 243,276 242,276 242,277 242,277 242,277 241,278 241,278 241,278 241,278 241,279 240,279 240,279 239,280 239,280 239,280 239,280 239,281 238,281 238,281 238,281 238,281 238,282 238,282 237,283 237,283 237,285 237,285 237,285 237,285 237,286 237,286 237,287 236,286 236,286 235,286 234,286 232,286 229,286 229,284 228,284 227,283 227,283 226,283 226,283 225,283 225,283 224,284 224,283 224,283 224,283 224,283 224,282 223,282 223,281 223,281 223,280 223,279 222,279 222,278 221,278 221,277 220,277 220,277 221,277 221,276 221,276 221,275 220,275 220,275 219,275 219,275 219,274 218,274 218,273 217,273 217,273 217,273 216,272 215,272 215,271 215,271 215,271 215,271 215,271 214,271 214,270 214,270 213,269 213,269 213,269 213,269 212,268 212,268 212,267 212,267 212,267 211,266 210,265 207,263 208,260 210,259 211,259 212,258 211,258 211,257 211,257 211,257 211,256 210,255 210,255 211,255 211,254 211,254 211,254 211,254 211,253 211,253 211,253 212,253 212,252 212,252 212,252 212,251 212,250 212,250 212,250 212,249 212,249 211,249 210,248 210,248 210,248 209,247 209,247 209,247 208,247 207,247 207,247 207,246 207,246 206,246 205,245 205,244 205,243 206,242 206,242 207,241 207,241 207,241 208,241 208,240 208,240 208,240 208,238 208,238 207,238 207,237 206,237 205,236 204,236 203,235 203,235 202,235 202,234 202,234 201,233 201,233 201,233 198,233 197,233 195,232 193,231 193,231 190,230 188,230 187,229 186,228 184,224 183,223 183,222 182,222 181,221 182,218 183,215 183,215 182,212 182,210 181,209 182,207 182,206 182,204 183,203 183,203 183,203 183,202 183,201 184,200 185,200 185,200 185,200 185,199 185,199 186,198 186,197 186,197 185,197 184,197 182,195 182,195 180,194 180,193 178,193 178,192 177,192 176,192 176,192 175,192 173,191 173,190 172,190 170,190 170,190 170,190 170,189 170,189 170,188 169,186 169,186 169,185 169,184 169,184 170,183 169,183 169,183 169,182 169,182 168,182 168,182 167,182 167,182 166,181 165,181 163,180 162,179 162,179 161,179 161,178 160,175 160,175 161,173 161,173 160,172 161,170 161,169 161,167 160,167 161,166 160,166 159,165 159,165 158,164 157,163 157,162 156,162 156,161 155,160 154,160 153,159 153,158 150,156 148,157 147,157 146,157 146,157 145,157 144,157 143,157 142,157 141,157 141,157 140,157 138,156 137,156 137,156 137,156 136,156 136,155 135,155 135,155 136,154 136,153 136,152 136,152 136,152 136,152 136,151 136,150 137,149 137,149 136,149 136,148 137,146 136,145 136,144 136,143 135,142 134,142 133,140 133,139 133,139 133,138 132,137 132,136 132,136 130,132 129,132 129,131 129,131 127,130 127,129 127,129 127,129 127,128 126,129 125,129 125,129 124,129 124,129 123,129 123,130 123,130 122,130 122,131 121,131 121,131 121,131 120,131 120,131 119,132 118,132 118,132 117,133 117,133 115,133 115,133 114,133 114,133 113,134 113,134 111,135 111,135 110,135 110,135 110,135 109,135 109,135 109,135 109,135 108,135 108,135 107,135 107,135 107,135 107,135 107,135 106,135 106,135 106,135 105,135 104,135 104,135 104,135 103,135 103,135 102,135 102,135 102,134 101,134 101,134 100,134 100,134 99,134 99,134 99,134 98,134 98,134 97,134 97,134 96,134 96,133 96,133 96,133 95,134 95,134 94,134 94,134 93,133 93,133 92,133 91,133 91,133 90,133 90,134 90,134 89,134 88,134 88,134 87,134 86,134 85,135 85,135 84,135 84,136 84,136 83,136 82,137 81,137 81,137 81,138 80,138 80,139 80,139 80,140 80,140 79,140 79,140 79,140 78,140 78,140 77,140 77,140 77,140 77,141 77,141 76,141 76,141 75,142 74,143 73,145 73,146 72,147 71,148 71,147 71,146 70,146 70,145 69,145 69,145 69,144 69,144 69,144 68,144 68,144 68,143 68,143 68,143 68,143 68,142 68,142 68,142 68,141 68,141 67,140 67,140 67,140 68,139 68,139 67,139 67,139 67,138 67,138 67,138 67,137 67,137 66,137 65,137 65,137 64,137 64,137 64,136 63,136 63,136 62,136 61,135 60,135 60,135 59,134 58,134 58,134 57,134 56,134 55,134 55,134 55,134 55,134 54,134 54,133 54,133 53,132 52,132 52,131 52,131 51,132 50,132 50,132 49,132 49,131 48,131 48,131 48,131 46,129 44,129 43,129 42,129 41,129 41,129 41,129 40,129 40,128 39,128 39,128 39,127 39,127 39,127 39,127 38,126 38,126 37,126 37,126 37,125 35,123 34,122 34,122 32,121 32,120 32,120 31,119 31,119 31,119 30,118 30,117 29,117 28,115 28,114 28,114 28,114 27,114 26,113 25,113 25,113 24,113 23,113 22,113 22,113 22,112 21,112 20,111 19,110 19,110 18,110 18,108 18,107 18,106 18,105 17,105 17,104 16,103 16,103 16,103 15,102 15,101 15,101 15,100 14,100 14,99 14,98 14,98 14,98 15,97 15,97 15,96 15,96 16,95 16,94 17,94 17,93 17,93 17,93 17,92 16,92 16,92 15,91 14,91 13,90 13,90 13,90 13,89 12,88 12,87 12,86 12,85 12,85 12,84 13,84 12,84 12,83 12,82 12,82 12,81 11,81 10,80 9,79 8,79 7,78 7,78 7,78 7,78 7,77 6,76 6,76 6,76 6,75 6,75 6,74 6,73 6,73 5,72 5,72 5,71 4,70 3,70 3,70 3,69 3,69 3,68 2,68 2,67 2,66 1,65 2,64 2,64 1,63 1,61 1,61 1,61 1,59 1,59 0,58 0,57 0,56 0,56 0,55 1,55 2,54 3,52 3,52 3,52 4,52 5,51 5,51 6,50 7,50 8,49 7,49 7,48 7,48 7,47 7,47 7,46 7,45 7,44 7,44 6,44 6,43 6,43 6,42 6,41 6,41 6,41 6,41 6,40 7,40 6,40 6,40 6,40 6,39 6,39 6,39 6,38 6,38 6,38 7,37 7,37 8,37 8,36 9,36 10,34 11,34 12,33 13,33 14,32 15,32 16,32 16,31 15,30 15,28 17,27 17,26 17,26 18,24 19,24 19,24 20,23 22,23 23,23 23,23 24,23 24,23 25,23 26,23 26,23 27,23 28,23 28,23 28,23 29,22 30,21 31,21 32,19 32,19 33,19 33,19 35,17 35,17 35,17 36,17 38,15 38,15 39,14 39,14 42,12 42,12 43,12 43,12 44,12 46,13 47,13 48,13 49,13 49,13 50,13 50,13 51,13 53,14 53,14 53,14 54,15 54,15 55,15 55,15 55,15 56,14 57,14 57,13 59,13 59,12 59,12 59,12 60,12 60,11 61,11 61,11 61,11 61,11 62,10 63,10 64,10 64,9 64,9 64,9 64,9 65,9 65,8 65,8 65,8 66,7 66,7 67,7 67,7 67,7 68,7 69,6 70,6 71,6 71,5 71,5 71,5 72,5 73,5 73,4 74,4 74,3 74,3 75,3 75,2 76,2 76,1 77,1 78,0 78,0 78,0" id="624" class="canton" fill="steelblue" stroke-width="1" stroke="white" geotype="canton" geoname="Tourrette-Levens" code_insee="624" code_departement="6" nom_departement="Alpes-Maritimes" code_region="93" nom_region="Provence-Alpes-Côte d'Azur"/></svg>