<?xml version="1.0" encoding="utf-8"?>
<svg version="1.1" id="svgmap" xmlns="http://www.w3.org/2000/svg" xmlns:xlink="http://www.w3.org/1999/xlink" x="0px" y="0px" width="100%" height="100%" viewBox="0 0 500 431">
<polygon points="1,237 0,236 0,236 1,236 1,235 2,235 3,234 3,233 4,233 5,233 5,232 6,232 7,231 8,231 10,231 11,231 11,231 13,231 13,231 16,231 18,230 18,230 20,230 20,230 24,229 24,229 26,229 29,229 30,229 30,229 31,229 31,229 31,229 32,229 35,231 35,230 35,230 36,230 36,230 36,230 37,229 37,229 38,228 39,228 40,228 41,228 42,228 43,228 44,228 44,228 45,228 45,228 45,228 46,228 46,227 46,227 47,227 47,227 47,227 48,227 49,227 51,227 51,227 52,227 53,226 55,225 56,224 56,224 57,223 58,222 59,222 60,222 60,221 61,221 61,221 62,220 62,220 63,220 63,219 64,219 67,217 68,216 71,216 75,216 81,216 82,217 84,218 86,219 88,220 89,220 91,220 92,219 94,218 95,219 96,219 98,219 98,218 99,218 100,218 102,217 103,216 103,214 104,214 105,214 108,214 110,213 110,213 111,213 111,213 112,213 112,212 112,212 113,212 114,212 116,211 118,211 120,210 120,211 121,211 122,211 122,212 123,212 124,212 124,212 125,212 125,213 126,212 127,212 127,212 129,211 130,211 132,210 132,210 134,211 135,210 136,210 136,210 136,210 136,210 136,210 136,210 137,209 138,209 139,207 139,207 139,207 139,207 139,207 140,206 141,206 142,205 142,204 144,203 144,203 146,202 146,202 148,202 149,201 150,200 151,200 150,199 150,198 150,197 148,197 148,196 148,195 148,194 148,193 148,193 148,192 148,191 148,190 149,190 149,190 149,189 149,189 150,189 149,188 149,188 149,187 149,187 150,186 150,186 150,186 151,185 151,185 151,185 151,185 152,184 152,183 152,183 152,183 152,182 153,182 153,181 153,181 154,180 154,180 155,179 156,178 156,178 156,178 157,178 157,177 157,177 157,176 157,176 157,176 157,176 157,175 157,175 157,175 158,174 158,174 158,173 158,173 159,173 159,173 160,172 161,172 162,172 162,171 162,171 162,171 163,171 163,171 163,170 164,169 164,169 164,169 164,168 165,168 165,168 165,170 165,170 166,170 166,171 166,171 166,171 166,172 166,172 166,172 166,172 166,173 166,173 165,174 165,174 165,174 165,176 165,176 165,176 164,177 164,177 164,177 163,177 163,178 163,179 163,180 163,180 164,180 164,181 165,181 165,181 165,182 165,182 165,183 165,184 165,184 165,184 165,184 165,185 165,185 165,185 165,186 166,186 166,186 166,187 166,187 166,187 166,188 166,188 166,189 166,189 166,189 166,190 166,191 166,191 165,192 165,192 166,192 166,192 167,192 168,192 168,192 168,192 169,191 169,192 170,192 170,191 170,191 170,191 171,189 172,189 173,189 174,189 174,188 175,188 175,188 176,187 177,186 177,186 177,185 177,185 177,185 177,184 178,184 178,184 179,184 179,184 179,184 180,183 180,183 180,183 181,183 181,183 181,183 181,182 182,181 182,181 182,181 182,180 183,180 183,179 184,179 184,179 184,179 185,178 185,178 186,177 188,177 188,177 189,177 189,176 189,176 189,176 190,176 190,175 190,175 191,175 192,175 194,174 194,173 195,173 196,172 197,172 198,172 198,171 199,171 200,171 200,171 201,171 201,171 202,171 202,171 203,171 203,171 203,171 204,170 204,170 204,170 205,170 205,170 205,170 206,170 206,170 207,170 207,170 208,170 209,171 209,171 209,170 209,171 209,170 210,171 210,171 211,171 212,171 212,171 212,171 213,171 213,171 214,172 214,172 214,173 214,173 214,173 216,173 217,173 217,173 218,173 219,172 220,172 222,173 222,173 222,173 223,173 223,173 223,173 223,173 223,174 223,174 223,174 224,174 223,174 223,174 222,175 222,175 223,175 223,175 223,175 223,175 224,175 224,175 224,175 225,175 226,175 226,175 226,175 227,175 227,175 228,175 228,175 228,175 229,175 229,175 230,175 231,176 232,177 232,177 232,177 232,178 232,178 232,178 232,178 233,179 233,179 232,180 232,180 232,181 232,182 232,183 231,184 233,185 233,185 233,185 233,186 233,186 234,187 235,187 236,188 236,188 236,188 237,188 237,188 237,189 237,189 237,190 237,190 237,190 237,191 237,191 237,192 236,192 236,192 236,194 235,194 235,194 235,194 234,195 234,195 234,195 234,195 233,195 233,195 233,195 232,195 232,195 232,196 231,196 231,196 231,196 228,196 228,196 227,196 226,197 226,197 226,198 225,199 225,199 224,200 224,200 224,200 224,200 223,200 223,201 223,202 222,203 222,203 222,203 221,203 221,204 220,205 220,205 219,206 218,207 217,208 217,208 217,208 217,208 216,209 216,209 216,209 217,210 216,211 216,211 217,211 216,212 216,213 216,213 216,213 217,213 217,214 217,215 218,215 218,215 218,215 218,216 218,216 218,216 217,217 217,217 217,218 215,218 215,219 214,219 214,219 214,219 213,219 213,219 214,220 214,221 215,221 215,221 215,221 216,222 217,222 217,222 217,222 218,223 218,223 219,224 219,224 219,224 219,225 219,225 221,225 222,226 222,226 223,226 224,226 224,226 225,226 225,226 226,226 227,227 227,227 228,227 228,227 228,227 229,227 229,227 229,227 230,228 230,228 230,228 231,228 231,228 231,228 232,228 232,228 233,228 235,229 235,229 237,230 237,230 238,230 238,231 239,231 239,231 239,231 239,231 239,231 240,231 241,231 241,231 241,231 241,231 244,232 244,232 245,232 245,232 245,232 245,232 245,233 245,233 245,233 245,234 248,233 249,233 250,233 250,233 253,232 254,232 255,232 255,232 258,232 264,233 264,233 264,232 264,232 264,233 265,233 265,233 265,233 267,234 268,234 268,234 269,234 269,234 269,233 269,231 269,231 269,229 269,229 269,229 269,229 269,229 269,228 268,228 267,227 266,227 265,226 265,226 265,225 264,225 264,225 264,224 264,224 264,224 264,224 264,224 264,224 264,224 263,224 263,223 263,223 263,223 263,223 263,223 263,222 263,222 264,222 264,222 264,222 264,221 264,221 264,221 264,221 264,221 264,220 264,220 265,220 265,220 265,220 265,219 266,219 266,218 266,218 266,218 267,218 267,218 267,219 267,219 268,218 268,218 268,218 268,218 268,218 268,218 268,218 268,218 268,218 269,218 269,218 269,218 269,218 269,218 269,218 269,218 269,218 269,219 269,219 269,219 269,219 269,219 269,219 269,219 270,219 270,219 270,219 270,219 270,218 270,218 270,218 271,218 271,218 271,218 271,218 271,218 271,218 271,218 271,219 271,219 271,219 271,219 271,219 271,219 271,219 271,220 271,220 272,220 272,220 273,220 273,220 273,220 273,220 274,220 274,220 274,220 274,221 275,220 275,220 275,220 275,220 276,221 276,221 276,221 276,221 277,221 278,221 278,221 278,221 278,221 278,221 278,221 279,222 279,222 279,223 280,223 280,223 280,222 280,222 280,221 279,220 280,220 280,219 280,219 280,218 281,218 281,218 281,218 281,217 281,217 281,217 281,217 281,217 281,216 281,216 282,216 282,215 282,215 282,215 282,215 282,214 282,214 282,214 282,214 282,213 282,213 281,212 281,212 281,212 280,211 279,211 279,211 279,211 279,211 278,211 278,211 278,211 278,211 276,211 274,211 274,211 273,211 272,211 271,211 271,211 271,211 270,210 269,210 269,210 269,210 268,210 264,207 263,207 263,207 263,207 263,207 262,207 262,207 260,207 260,207 260,207 259,207 259,207 259,207 259,206 259,206 259,205 259,205 259,205 257,204 257,204 257,204 257,203 257,203 257,203 257,202 257,202 257,202 257,202 257,201 257,201 257,201 257,200 257,200 256,200 256,199 256,199 256,199 255,198 255,198 255,197 255,197 259,195 259,195 260,195 261,194 261,194 261,194 261,194 261,193 262,192 262,192 262,192 263,191 263,191 263,191 264,190 264,190 264,190 264,190 264,191 265,191 265,191 265,191 265,191 265,191 266,191 266,191 266,191 266,191 266,191 267,191 268,191 269,191 269,191 269,191 270,191 270,190 270,190 270,189 270,189 271,189 271,189 272,189 273,190 276,190 276,191 277,191 277,193 278,195 279,197 279,198 280,198 280,199 281,199 284,201 284,202 286,202 287,203 289,204 290,206 291,206 292,207 292,207 293,207 294,207 294,207 297,207 298,207 298,207 299,206 299,206 300,206 300,206 301,206 301,206 302,205 302,205 303,205 303,205 303,204 302,204 302,204 302,203 302,203 302,203 302,202 302,201 302,201 302,200 302,200 302,199 302,199 300,197 299,195 299,195 298,195 298,194 299,193 299,193 299,192 300,192 300,192 301,191 301,191 301,191 301,191 299,189 299,189 299,189 299,189 299,189 300,188 300,188 300,188 300,188 300,187 299,186 299,186 299,185 299,185 299,184 299,184 299,183 300,183 300,183 300,182 300,182 299,182 299,181 298,181 298,181 298,181 298,181 298,180 299,180 299,180 299,179 299,179 299,179 299,179 300,178 301,178 305,178 305,178 306,178 306,177 306,177 306,177 307,176 307,176 307,176 307,176 307,176 307,175 307,175 307,175 308,173 309,172 309,172 309,172 309,172 310,172 311,172 312,171 312,171 312,170 313,170 313,169 313,169 313,169 313,169 313,168 314,168 314,168 318,170 319,170 321,171 321,171 321,171 323,171 324,172 324,172 324,172 325,172 325,172 327,172 327,172 327,172 327,172 328,171 329,170 329,170 330,170 330,169 331,169 332,168 332,168 333,168 334,167 335,166 335,166 335,166 335,165 335,165 335,164 334,163 333,162 332,161 332,160 331,159 331,159 330,158 330,158 331,155 331,155 331,154 331,153 331,153 332,152 332,152 333,151 334,150 334,150 334,150 336,149 338,148 339,148 340,147 340,147 341,147 342,146 342,146 342,145 342,145 342,145 342,144 342,144 342,143 342,143 342,143 341,142 341,142 341,142 339,141 339,141 338,141 338,141 336,141 332,141 331,141 328,141 328,141 328,140 327,140 327,140 327,139 328,137 328,137 328,136 328,134 328,132 328,131 329,130 329,130 329,130 329,130 329,129 330,129 330,129 331,129 331,128 331,128 331,128 331,127 331,127 331,127 331,126 330,125 330,125 330,125 330,125 330,124 330,124 331,124 332,124 332,124 334,125 335,125 336,125 337,125 337,125 340,124 341,123 341,123 342,123 342,122 342,122 342,122 340,119 339,118 339,118 339,117 340,117 340,116 341,116 341,115 342,115 342,115 343,114 343,114 344,114 346,115 346,115 347,115 348,115 349,115 349,116 350,116 350,116 350,115 350,115 351,114 351,113 351,113 350,111 350,111 348,109 347,108 347,107 346,107 344,106 344,105 344,105 344,105 344,104 344,104 344,104 344,104 344,103 344,103 344,103 344,103 344,102 345,102 345,102 345,102 345,101 346,101 346,100 346,100 347,100 347,99 348,99 348,99 348,99 348,98 348,98 348,98 348,96 348,96 349,95 349,95 349,95 349,94 350,94 351,94 351,94 352,94 352,93 353,93 353,93 353,93 353,93 354,93 355,92 355,92 356,91 356,91 356,91 356,91 356,90 356,90 356,90 356,90 355,89 355,89 355,89 355,88 355,88 354,88 355,88 355,87 355,87 356,87 356,87 357,87 358,86 358,86 359,86 360,86 360,86 360,86 361,86 361,86 361,86 362,85 362,85 362,85 362,84 362,84 362,83 361,83 361,82 360,82 359,82 359,82 358,82 358,81 358,81 358,81 358,80 358,79 359,78 359,77 358,76 359,76 358,75 358,75 357,75 356,75 355,74 354,74 353,74 353,73 353,73 353,73 353,73 353,73 353,72 352,72 352,72 351,73 351,73 351,72 351,72 351,71 351,70 351,70 350,70 350,69 350,69 350,69 349,69 349,69 348,70 348,69 347,69 346,70 346,70 345,71 344,71 344,71 343,71 342,71 339,70 339,70 338,70 337,69 336,69 335,70 335,70 335,70 332,70 330,69 329,69 328,69 327,69 326,69 325,68 325,68 323,67 323,67 322,67 321,67 320,67 319,66 318,66 319,66 318,66 318,65 318,65 318,65 318,65 318,64 318,63 318,60 321,57 322,56 324,51 327,49 327,48 327,48 328,47 328,46 326,45 326,44 327,43 329,43 330,41 330,41 330,39 332,39 335,38 336,37 338,36 339,35 339,35 340,34 341,34 341,33 339,31 338,29 336,28 335,28 333,26 334,25 335,25 336,25 335,24 336,23 337,22 338,20 340,19 340,17 339,16 340,15 341,14 343,14 344,14 346,14 347,15 348,15 349,15 350,14 350,14 350,14 351,12 353,11 354,12 355,13 355,14 354,15 354,16 354,17 354,17 355,18 355,18 356,19 358,20 359,21 359,21 360,20 362,20 363,21 363,22 363,23 363,24 363,24 363,25 365,25 365,24 366,24 367,24 367,24 367,23 367,22 368,22 369,22 370,23 370,23 370,23 371,24 372,24 373,25 373,25 373,26 373,26 374,26 374,26 375,26 376,25 377,25 378,24 378,24 379,23 380,23 380,22 382,23 383,23 383,22 383,20 384,19 388,20 388,20 390,22 390,21 393,21 393,22 404,22 405,23 405,23 406,23 407,22 408,21 408,20 408,20 409,20 410,19 411,18 413,16 414,16 415,15 416,13 420,12 423,13 425,11 425,11 427,10 429,8 428,8 429,7 430,6 430,6 430,4 431,4 431,4 432,4 435,4 436,5 438,4 440,3 441,3 441,2 442,2 442,1 442,1 444,0 444,0 444,0 445,2 445,3 445,3 446,4 446,4 447,4 447,4 448,5 448,5 448,6 449,6 449,6 450,7 450,8 450,8 451,8 451,8 451,7 451,7 452,6 453,6 454,6 454,5 454,5 453,5 454,4 454,4 455,4 454,3 455,3 455,3 456,2 457,2 457,2 458,2 458,1 459,1 460,1 460,1 461,1 461,1 462,1 462,1 463,1 463,1 464,1 464,1 465,1 466,1 467,1 468,0 468,1 468,1 468,2 468,3 468,3 468,4 469,4 471,6 471,6 471,6 471,6 472,7 472,7 473,8 475,8 475,8 476,8 477,9 478,9 478,9 478,9 478,9 480,10 480,10 481,10 482,10 482,10 482,10 483,10 483,10 483,10 484,10 484,10 485,10 486,10 486,10 486,10 487,10 487,10 487,10 488,11 490,14 492,16 492,19 493,21 493,22 494,23 495,25 495,26 495,27 495,27 495,27 495,27 495,27 495,28 495,29 495,30 495,30 495,31 495,32 495,32 495,32 495,32 496,33 497,34 497,35 498,36 498,37 498,38 498,38 498,39 498,39 497,40 497,40 497,41 497,41 496,42 496,44 497,45 497,46 497,47 497,47 497,47 497,48 497,48 497,49 496,49 496,49 496,49 497,50 497,50 497,51 497,51 497,51 497,51 497,51 497,52 498,52 498,53 498,53 498,53 498,54 498,54 499,55 498,55 498,56 498,56 498,57 498,58 498,58 498,59 498,60 498,60 498,61 498,62 498,64 498,64 499,65 498,66 499,67 499,67 499,68 499,69 499,70 499,70 499,70 500,72 500,72 500,73 500,74 500,75 500,77 500,77 500,77 500,78 499,79 497,79 496,79 495,80 492,80 491,81 490,81 488,81 489,82 489,83 490,83 489,84 490,84 489,84 487,85 480,87 479,87 479,86 474,86 472,83 472,82 471,80 469,78 467,75 466,75 464,75 463,75 462,75 461,76 460,76 460,76 458,76 454,76 454,77 454,77 452,78 451,78 450,79 450,79 444,81 443,81 442,81 442,82 442,82 441,82 441,82 441,82 441,83 440,83 440,84 440,85 439,86 440,87 440,87 440,88 440,88 440,89 440,90 440,91 440,91 440,92 440,92 440,93 440,93 440,93 440,94 441,94 441,94 441,94 441,94 441,95 441,95 441,95 441,95 441,96 441,97 441,97 441,98 441,98 441,98 441,98 441,99 441,99 441,100 441,100 441,101 441,101 441,102 441,102 441,103 441,104 441,105 441,105 441,105 441,106 441,106 441,107 441,107 441,107 441,107 441,108 440,108 440,109 440,109 439,111 439,112 439,112 438,112 438,112 438,113 438,114 438,114 438,114 438,115 437,116 437,116 437,116 436,116 436,116 436,116 436,116 436,117 436,117 435,117 434,118 434,118 434,119 433,119 433,120 433,120 432,120 432,120 432,121 432,121 431,122 431,122 430,123 430,123 430,124 430,124 429,124 429,124 429,125 429,125 429,125 429,125 429,125 429,125 429,126 430,126 430,127 430,127 430,128 430,128 430,128 430,129 430,129 431,129 431,129 431,129 431,130 430,130 430,130 430,131 430,131 430,131 430,131 430,131 429,132 429,132 428,133 428,133 428,133 428,134 428,134 427,135 427,136 427,136 427,137 427,137 427,137 427,137 427,137 427,138 426,138 426,138 426,139 426,140 425,140 425,140 425,140 425,141 425,141 425,142 426,143 426,143 426,143 426,143 426,144 426,144 427,145 427,145 427,145 427,145 427,145 427,146 427,146 426,146 426,147 426,147 426,147 426,147 426,147 426,147 425,147 425,147 425,148 425,148 425,148 425,148 425,149 424,149 424,150 423,151 423,152 423,152 423,153 422,153 421,154 421,154 420,154 420,155 419,156 418,156 418,157 418,157 417,158 416,159 415,159 412,159 411,159 411,159 411,159 411,160 411,160 412,161 412,161 412,161 412,161 412,161 413,161 413,161 413,161 413,161 414,162 414,162 415,163 415,163 416,163 416,163 417,164 418,164 418,164 418,164 419,164 419,164 419,165 421,165 421,165 421,165 422,165 423,165 423,165 423,165 424,165 424,165 425,166 425,166 425,166 425,167 425,167 425,167 425,168 425,168 425,168 425,168 426,168 426,168 427,168 427,168 427,169 427,169 427,169 427,169 427,170 427,170 427,170 426,170 426,170 426,171 426,171 426,171 426,171 426,172 426,172 426,172 426,172 427,172 427,173 427,173 428,173 428,173 428,174 429,174 429,174 429,174 429,174 429,174 429,175 429,175 429,175 429,175 429,175 428,176 428,176 428,176 428,176 427,176 426,177 426,177 426,177 425,178 425,178 425,178 425,177 424,177 423,177 423,177 423,177 422,176 422,176 411,177 411,177 408,183 408,183 407,185 406,186 406,186 404,186 402,187 402,187 401,187 401,188 400,188 400,189 399,191 398,192 398,194 398,195 398,195 398,195 398,196 398,196 398,197 398,198 399,198 400,199 400,199 401,200 402,201 403,201 404,202 405,202 405,202 405,202 405,202 404,202 404,203 403,203 403,204 402,204 402,204 402,204 402,204 402,204 402,203 402,203 402,203 402,203 401,203 401,203 401,204 401,204 400,205 400,206 400,206 400,206 399,206 399,206 399,206 398,206 398,207 398,207 398,207 398,207 398,207 399,208 399,208 399,208 400,209 400,209 400,209 400,210 399,210 399,210 398,210 398,210 398,211 398,211 398,211 397,211 396,211 396,211 397,210 397,209 396,208 396,208 396,208 395,208 395,208 395,208 394,208 394,208 393,209 393,209 393,210 393,210 392,211 392,211 391,211 391,211 391,211 390,211 389,211 388,211 388,212 388,212 389,213 389,213 389,213 389,213 388,213 387,213 387,213 385,213 385,213 385,213 384,213 384,213 384,214 384,214 384,214 384,214 385,215 385,215 385,216 385,216 385,216 384,216 384,217 383,217 382,217 381,216 381,215 381,215 381,214 380,214 380,214 380,214 379,214 379,214 379,214 378,214 377,214 377,215 376,215 376,215 375,215 375,215 374,215 373,215 372,215 370,215 370,215 370,215 369,215 369,216 369,217 369,217 368,218 368,218 368,218 362,222 361,223 361,223 361,223 361,223 361,224 361,224 361,224 361,224 360,224 361,225 361,225 360,225 360,225 360,225 360,226 359,227 359,228 359,228 358,229 358,230 358,231 358,231 358,232 358,232 358,232 358,233 357,234 357,234 357,235 357,236 356,236 357,237 357,237 356,237 356,238 356,239 356,239 355,241 354,242 354,243 353,244 352,245 352,245 351,245 350,247 349,247 349,247 348,248 348,248 347,249 347,250 346,250 346,251 346,251 345,252 345,252 345,252 345,253 345,253 344,254 347,255 347,255 347,260 347,260 349,264 349,264 349,267 346,272 345,274 345,274 344,276 341,279 341,279 340,281 340,282 339,286 339,286 338,289 337,289 336,290 334,290 334,290 330,296 330,296 328,295 319,293 318,293 317,293 317,293 316,292 315,292 314,292 309,291 309,292 308,294 308,294 308,296 308,296 308,297 307,297 306,297 305,298 305,298 303,299 300,301 300,301 300,301 299,303 298,303 298,304 297,304 297,304 297,304 297,306 297,306 297,306 297,307 296,307 296,307 295,307 292,307 292,307 292,307 292,307 292,307 291,306 291,305 291,305 289,306 289,306 289,306 288,307 287,307 285,307 283,309 282,309 282,309 282,310 282,311 282,311 282,311 283,313 283,313 283,315 283,315 284,317 284,317 284,318 284,318 284,319 284,319 284,320 285,321 285,322 285,322 285,322 286,323 286,324 286,325 286,325 286,326 286,326 288,328 289,330 289,330 289,331 289,331 288,332 288,332 288,332 286,332 286,332 286,332 285,333 285,333 286,334 286,334 285,334 285,335 285,335 286,335 285,336 285,336 285,337 286,338 286,338 286,338 285,339 285,339 285,339 284,339 284,339 284,339 283,339 283,340 280,341 280,341 280,341 279,341 279,341 279,342 278,342 277,342 276,342 276,342 275,342 275,342 273,342 273,342 272,342 271,342 270,342 270,342 270,342 268,341 266,340 266,340 265,340 265,340 264,340 263,340 262,340 262,340 261,339 261,339 260,338 259,337 259,336 258,336 254,335 254,335 254,337 254,338 254,340 255,344 255,350 255,351 256,355 268,356 275,356 275,356 276,356 284,356 284,356 289,358 289,358 306,363 305,364 305,364 305,364 306,365 306,365 306,366 306,366 306,367 306,368 307,369 307,370 307,371 308,372 308,372 307,374 307,377 307,378 308,379 308,380 308,380 308,380 309,380 310,381 311,381 310,383 309,384 309,384 308,385 307,386 306,387 306,387 306,388 305,390 305,390 305,391 305,391 299,398 299,398 298,401 298,401 298,401 295,404 294,405 289,409 289,409 287,411 287,411 287,411 286,412 281,419 281,419 274,424 272,425 271,425 268,426 265,427 265,428 264,429 263,430 262,431 262,431 261,430 260,429 260,428 259,428 258,427 258,427 258,427 257,427 257,427 257,426 257,426 255,426 255,426 253,424 253,424 253,423 253,423 253,422 253,422 252,422 251,421 248,421 248,421 245,420 244,420 244,420 244,420 242,419 240,419 239,419 239,418 240,411 240,411 243,406 243,406 240,405 237,404 234,402 234,403 225,397 207,386 207,386 199,381 197,383 196,386 195,388 193,391 192,393 189,398 188,401 186,403 185,405 183,408 182,410 181,413 179,415 173,414 171,414 169,414 167,414 165,414 163,414 163,414 163,413 162,413 162,412 161,412 161,411 160,410 160,409 160,409 161,408 160,408 159,409 159,409 158,409 158,409 157,408 157,409 154,409 154,409 153,409 153,410 153,410 152,410 151,410 150,411 150,411 149,410 149,410 148,409 148,408 147,408 147,408 147,407 147,406 147,406 147,406 147,406 147,405 147,405 148,405 148,404 147,404 146,404 145,404 145,404 145,405 145,405 144,405 143,406 143,405 143,405 143,405 142,405 141,406 140,406 139,407 139,407 139,408 136,407 134,407 134,406 133,406 133,405 133,404 134,404 134,403 135,402 135,402 136,401 136,401 136,400 137,399 137,399 136,399 136,399 134,399 133,399 132,398 132,398 130,397 130,396 130,396 130,396 130,396 130,395 132,394 132,393 132,393 133,392 133,391 134,390 134,390 134,389 133,389 133,389 133,389 132,389 130,389 130,390 129,390 127,389 126,389 125,389 125,389 124,390 124,390 123,390 123,390 122,389 122,389 121,388 120,387 120,387 120,386 120,386 119,386 119,386 118,386 116,386 115,387 113,387 111,387 111,387 110,387 109,386 108,386 108,386 108,385 107,385 107,384 107,383 107,382 107,379 107,378 107,376 107,375 106,374 106,374 107,373 107,373 107,373 108,373 109,373 111,373 111,373 111,373 111,373 112,373 113,374 114,374 114,374 115,374 115,374 117,375 118,375 118,376 119,376 120,376 120,376 121,376 121,376 122,376 122,376 122,376 122,376 122,375 123,375 123,375 123,374 123,374 123,373 123,373 122,373 122,372 121,371 121,370 120,369 120,369 120,369 119,368 119,367 119,367 119,367 119,367 120,367 120,367 120,367 121,367 122,367 123,367 123,367 123,366 123,366 124,366 124,365 125,364 126,363 126,363 127,363 127,363 127,363 128,361 129,361 130,359 130,359 131,358 132,357 133,356 133,356 133,356 133,355 133,355 133,354 133,354 132,353 132,353 132,353 132,353 131,352 131,352 130,352 130,352 129,352 129,352 126,352 126,352 125,352 123,352 123,352 122,352 122,352 121,352 121,352 121,352 121,352 120,352 120,351 120,351 120,351 120,350 120,350 120,349 120,349 120,348 119,348 120,347 120,347 120,346 121,345 122,343 123,342 123,342 124,341 125,340 125,340 126,339 127,338 127,336 127,336 127,336 127,335 127,335 127,334 126,333 126,333 126,332 126,332 126,331 127,330 127,330 126,327 126,327 125,325 125,325 124,324 123,323 122,322 122,321 122,321 121,320 121,319 121,318 120,318 120,317 120,316 121,316 121,316 121,315 122,315 122,314 122,314 122,314 123,314 124,313 124,313 125,312 125,312 125,312 125,311 125,310 125,310 125,310 125,309 126,308 127,308 127,308 127,308 128,308 128,307 128,307 128,307 128,307 128,306 129,305 129,305 128,305 128,304 128,303 128,303 127,302 127,302 126,301 126,301 126,300 127,299 127,299 128,298 129,297 129,297 130,296 130,295 130,295 131,293 131,293 131,292 131,291 132,291 132,291 133,291 133,290 133,290 132,290 132,289 132,289 131,288 131,288 131,288 131,287 130,287 128,287 127,286 126,285 125,285 124,284 124,284 123,283 123,282 122,282 122,281 122,281 122,281 122,281 123,280 123,280 124,279 125,278 125,278 125,278 125,277 125,277 125,277 125,275 125,275 125,275 125,274 125,274 125,273 124,272 124,271 124,270 123,269 123,269 122,269 122,269 121,269 121,269 121,269 120,269 120,269 119,269 119,269 119,268 119,267 119,267 119,267 119,266 119,266 119,265 118,265 118,265 117,264 117,264 117,264 117,264 117,263 118,263 118,263 119,263 119,262 119,262 119,261 118,260 118,260 118,259 118,259 118,259 118,258 118,258 118,258 118,257 117,257 116,257 116,257 115,257 114,257 114,257 113,257 112,257 112,257 112,257 112,257 112,257 111,256 111,255 111,255 111,255 110,255 110,255 109,255 109,255 109,255 108,255 108,254 108,254 107,253 107,253 107,253 107,253 106,253 106,252 105,252 105,252 104,252 103,252 103,252 103,251 102,251 102,251 101,252 101,252 100,252 100,252 100,252 99,252 99,252 99,252 98,251 98,251 98,251 98,251 98,251 97,250 97,249 98,249 98,248 98,248 98,247 98,247 97,246 97,246 96,246 96,246 95,247 94,247 92,248 91,248 91,248 90,248 89,248 88,248 87,248 87,248 86,248 86,247 85,246 85,246 85,245 84,245 83,245 83,245 83,245 82,245 82,246 81,246 80,245 79,245 78,245 77,245 76,245 75,245 73,245 73,245 72,245 72,245 72,245 71,245 70,244 69,244 69,244 69,244 68,244 67,245 40,258 40,258 35,261 35,260 34,261 33,260 33,260 33,260 31,260 31,260 30,259 29,259 29,258 28,258 27,257 26,256 25,256 25,255 24,254 23,254 22,254 21,253 20,253 19,254 17,253 15,253 14,252 13,252 12,251 11,250 9,249 9,250 8,250 8,250 7,250 7,250 6,249 6,249 5,249 5,248 4,248 4,246 3,245 3,244 4,244 4,242 3,240 3,240 2,239 1,239 0,238 0,237 1,237" id="704" class="canton" fill="steelblue" stroke-width="1" stroke="white" geotype="canton" geoname="Aubenas-2" code_insee="704" code_departement="7" nom_departement="Ardèche" code_region="84" nom_region="Auvergne-Rhône-Alpes"/></svg>