<?xml version="1.0" encoding="utf-8"?>
<svg version="1.1" id="svgmap" xmlns="http://www.w3.org/2000/svg" xmlns:xlink="http://www.w3.org/1999/xlink" x="0px" y="0px" width="100%" height="100%" viewBox="0 0 500 268">
<polygon points="40,41 41,40 41,39 43,38 44,37 45,36 44,35 43,34 44,34 44,33 44,33 44,33 45,33 46,32 47,32 47,32 47,32 48,31 49,31 51,31 53,31 53,31 53,30 53,30 55,30 56,29 57,29 57,29 58,29 58,29 59,29 60,28 61,29 61,29 62,28 62,28 64,28 65,28 65,28 65,28 67,28 68,28 69,27 69,27 69,27 69,26 71,26 72,26 72,26 74,26 74,26 75,27 76,27 76,27 77,27 77,27 78,27 80,26 81,25 82,25 83,24 83,24 84,24 85,24 87,24 87,24 87,24 87,25 88,25 88,25 88,25 88,25 88,25 89,25 89,25 89,25 89,25 89,25 89,25 89,25 90,25 90,25 90,25 90,25 90,25 90,25 90,25 90,24 90,24 90,24 90,24 90,24 91,24 91,24 91,24 91,24 91,24 91,24 91,25 91,25 91,25 91,25 91,25 91,25 91,25 91,25 91,25 91,25 92,25 92,25 92,25 92,25 92,25 92,25 93,25 93,25 93,25 93,25 93,25 93,25 94,25 94,25 94,25 94,25 94,25 94,25 95,25 95,25 95,25 95,25 95,25 96,25 96,25 96,25 96,25 96,25 96,25 97,25 100,25 100,25 101,25 101,24 101,24 101,24 101,23 101,23 101,23 101,22 101,22 101,22 101,22 102,22 102,21 102,21 102,21 102,21 102,21 102,21 102,21 103,21 103,21 103,21 103,21 103,20 103,20 103,20 104,20 104,20 105,19 105,19 106,19 106,19 107,19 108,19 108,19 109,19 110,19 110,19 110,20 111,20 111,20 112,19 112,19 112,19 113,18 113,18 113,17 113,17 114,17 114,17 114,17 115,17 115,17 116,17 116,17 117,17 117,17 117,17 118,17 118,17 118,17 118,17 118,18 118,18 119,18 120,18 120,18 120,18 121,18 121,18 122,19 123,19 123,19 123,19 123,19 124,18 124,18 125,18 126,18 127,18 129,17 129,17 130,17 132,18 134,18 135,18 136,18 136,18 137,19 137,19 138,20 138,20 139,20 145,21 146,21 148,21 148,21 149,22 150,21 151,21 151,21 152,22 153,24 153,24 155,23 156,22 160,21 160,20 160,20 160,19 159,18 160,18 160,18 160,18 160,18 161,18 162,18 162,18 162,17 163,17 163,16 164,16 164,16 164,16 165,15 165,14 166,13 166,13 166,11 168,10 171,9 172,9 173,9 173,9 173,9 175,9 175,8 176,8 176,7 177,7 177,7 178,6 178,6 179,5 180,5 180,5 181,4 181,4 182,4 183,4 184,3 184,3 184,2 185,2 186,1 186,1 188,0 188,0 189,0 189,0 189,0 189,1 189,1 189,1 189,2 189,2 189,2 189,3 189,3 189,3 188,4 188,4 188,4 191,6 191,6 192,7 193,8 193,8 193,8 192,9 192,9 192,9 192,10 192,10 192,10 192,10 193,11 193,11 192,11 193,12 193,12 194,12 194,12 195,12 195,12 196,13 196,13 197,13 197,13 197,14 196,15 196,15 196,16 197,16 197,16 197,16 198,17 199,17 199,17 199,18 200,18 200,18 200,18 200,19 200,19 200,19 201,20 201,20 201,20 201,20 202,21 202,21 202,21 202,21 203,21 203,21 203,21 203,22 204,22 205,21 205,21 206,21 206,20 206,20 207,20 207,20 207,20 208,20 208,20 208,19 208,19 209,19 209,19 209,19 210,19 210,19 210,19 210,20 211,19 211,19 212,19 212,19 212,19 212,19 212,19 213,19 213,19 213,19 213,19 213,19 213,19 213,19 213,19 214,19 214,19 214,19 214,19 215,19 215,19 215,19 215,19 215,18 215,18 215,18 215,18 216,18 216,18 216,18 216,18 217,18 217,18 217,18 217,18 218,18 218,18 218,18 219,17 219,17 219,17 219,17 219,17 219,17 219,17 219,17 219,17 219,17 219,17 219,16 220,16 220,16 220,16 220,17 220,17 220,17 220,17 220,17 220,18 220,18 220,18 220,17 220,17 220,18 220,18 220,18 220,18 220,18 220,18 220,18 220,19 220,19 220,19 220,19 221,19 221,19 221,19 221,19 221,19 221,19 221,20 221,20 221,20 222,20 222,21 222,21 222,21 222,21 222,21 222,21 222,21 223,21 223,21 223,22 223,22 223,22 223,22 223,22 223,22 223,22 224,22 224,22 224,22 224,22 225,22 225,22 225,22 225,22 225,22 225,22 225,22 225,22 225,22 225,22 225,22 226,23 226,23 226,23 226,23 226,23 227,24 227,24 227,24 227,24 227,24 228,23 228,23 228,23 228,23 228,23 228,22 228,22 228,22 228,22 229,22 229,22 229,22 230,22 231,21 231,21 231,21 232,20 233,20 234,19 234,19 235,19 235,19 235,19 235,19 235,19 236,19 236,19 236,19 237,18 237,18 237,18 237,18 237,18 237,17 237,17 237,17 237,17 237,16 237,16 238,15 238,15 238,15 238,13 241,11 241,11 242,11 242,11 243,10 243,10 243,10 244,10 245,10 245,10 245,10 247,9 247,9 247,9 247,9 248,9 248,9 248,9 248,9 249,9 249,9 249,9 250,9 250,10 250,10 250,10 251,10 251,10 251,11 251,11 252,12 252,12 252,12 251,12 251,12 251,13 252,13 252,13 252,14 252,14 252,14 253,14 253,14 253,15 253,15 253,15 253,16 253,16 253,16 253,16 253,16 254,17 254,17 254,16 254,16 255,16 255,17 255,17 255,17 255,17 255,18 255,18 255,18 255,18 255,18 255,18 256,18 256,18 256,18 257,18 258,18 258,18 258,18 259,18 259,18 259,18 259,18 259,18 259,18 259,18 259,18 259,18 259,18 260,18 260,18 260,18 261,18 261,18 262,18 262,18 262,18 263,18 262,20 262,21 262,21 262,21 262,22 262,22 262,22 261,23 261,23 261,23 261,24 262,24 262,24 262,24 262,24 263,24 263,24 263,24 263,24 263,24 263,24 264,24 264,24 264,24 264,24 264,24 265,24 265,24 265,24 266,24 266,24 266,24 266,24 267,23 267,24 267,24 267,24 268,24 268,24 268,24 268,24 268,24 269,24 269,24 269,24 269,24 269,24 270,24 270,24 270,24 270,24 270,24 270,24 270,24 271,24 273,24 273,24 274,25 274,25 274,26 275,26 275,26 275,26 275,26 275,26 275,27 275,27 276,26 276,26 276,26 277,26 277,26 277,26 277,26 277,26 278,26 278,26 278,26 278,26 278,26 279,26 279,26 279,26 279,26 280,26 280,26 280,26 280,26 280,26 281,27 281,27 282,28 282,28 282,28 282,29 282,29 282,29 283,29 283,29 283,29 283,30 283,30 283,30 283,30 283,30 283,30 283,30 283,30 283,31 283,31 284,31 284,31 284,31 285,31 285,31 285,31 285,31 285,31 286,31 286,31 286,32 285,32 285,32 285,33 284,33 284,33 284,33 284,34 283,34 283,34 283,35 283,35 283,35 283,35 283,35 283,36 283,36 284,36 284,36 284,36 284,36 284,36 284,36 284,37 284,37 285,37 286,37 286,38 287,40 287,40 288,40 288,41 288,42 288,43 289,43 290,44 290,45 290,45 290,46 290,47 290,48 291,49 292,49 292,50 292,50 293,50 293,50 293,52 294,52 294,51 294,51 294,51 295,53 296,52 300,54 301,55 302,56 303,56 304,56 304,55 305,55 305,55 305,55 306,56 306,56 306,56 306,56 306,56 306,57 307,57 307,57 307,58 307,58 307,58 307,59 307,59 307,59 309,60 309,60 309,60 310,59 310,59 310,59 311,59 311,58 311,58 311,58 312,58 312,57 312,57 313,56 313,56 313,55 313,55 314,54 314,53 314,53 314,53 314,53 314,53 314,53 315,53 315,53 317,53 318,53 318,53 318,53 319,53 319,52 319,51 320,50 320,50 320,50 320,50 320,49 320,49 321,49 321,49 321,49 321,49 321,48 321,48 321,48 322,48 322,48 323,48 324,49 325,49 326,49 327,49 329,49 331,49 332,49 333,49 335,49 337,49 338,49 339,50 340,50 340,49 341,49 341,49 342,50 342,50 343,50 344,50 345,51 347,51 347,51 347,51 347,51 349,52 350,52 350,52 350,52 351,53 351,53 351,53 351,54 351,54 351,54 353,52 354,52 354,51 355,51 355,50 355,50 356,49 357,47 358,46 358,46 358,46 359,46 359,46 360,46 360,46 360,46 360,46 360,46 360,47 360,47 360,47 360,47 361,47 361,47 362,47 362,47 362,47 363,48 363,48 363,48 364,49 364,49 364,49 364,49 364,49 364,49 365,50 366,50 366,50 366,50 366,49 367,49 367,49 367,49 367,49 368,49 368,49 368,49 369,49 370,49 370,49 371,49 372,49 372,49 373,49 373,49 373,50 373,50 373,51 373,51 373,51 373,51 374,51 374,51 375,51 375,51 375,52 375,53 374,53 374,55 374,55 373,55 373,56 373,56 373,56 373,57 373,57 373,57 373,57 373,57 373,57 374,57 374,56 375,56 375,56 377,55 379,55 383,55 383,55 384,55 385,55 387,55 387,55 388,55 389,55 392,54 392,54 396,54 397,54 398,53 400,53 401,52 402,52 404,51 405,50 407,49 407,49 408,49 409,49 409,49 411,49 412,49 413,49 413,49 414,49 416,49 416,49 416,49 416,49 417,50 417,50 417,50 417,50 418,50 419,49 420,49 420,49 420,49 420,49 421,49 422,49 422,49 422,48 423,48 423,47 424,47 424,47 425,47 425,47 425,47 426,47 426,48 426,48 426,48 426,48 426,48 427,47 427,47 427,47 428,47 428,47 428,47 428,46 429,46 429,46 430,46 430,46 431,46 432,46 432,46 433,46 433,47 435,47 435,47 435,47 435,47 435,47 436,48 436,48 437,48 437,48 437,48 437,48 438,48 438,48 438,48 438,48 438,48 439,48 439,49 440,49 440,49 440,49 441,50 441,50 441,50 441,50 442,50 442,51 443,51 443,50 443,50 443,50 443,50 443,50 444,50 444,50 444,50 445,51 445,51 445,51 445,51 446,51 446,51 446,51 446,51 446,51 447,52 447,52 447,52 447,52 448,52 448,52 448,52 448,52 448,52 449,52 449,52 449,52 450,53 451,53 451,53 451,53 452,53 452,53 452,53 453,54 453,54 453,54 453,54 454,54 454,54 454,54 454,54 454,54 454,54 454,54 455,54 455,55 455,55 456,55 456,55 456,55 456,55 457,55 457,55 457,55 458,55 459,55 459,55 459,55 460,56 461,57 462,57 463,56 463,56 463,56 464,56 464,56 464,55 465,55 465,55 465,55 473,57 473,57 473,57 474,57 474,57 474,57 475,58 475,58 476,58 476,58 476,58 476,58 477,58 478,58 478,58 479,58 479,58 480,58 481,58 482,59 482,59 483,59 484,59 484,59 484,59 484,59 484,58 484,58 484,57 484,57 484,56 483,55 483,55 483,54 483,53 484,52 493,53 493,53 492,55 492,55 500,59 500,59 499,63 498,65 498,66 498,66 498,67 497,67 495,70 495,70 495,70 492,72 492,72 490,74 487,75 487,75 484,76 479,77 478,77 478,78 478,78 477,78 477,79 476,79 476,80 476,81 475,82 475,82 475,84 475,86 475,86 475,87 475,88 475,90 476,92 476,92 476,94 476,94 476,94 476,95 477,95 478,96 480,99 483,103 483,103 483,104 483,104 483,104 485,107 486,108 486,108 486,113 486,114 486,114 486,115 478,123 474,128 472,129 468,133 468,133 468,133 467,135 466,136 464,138 464,139 464,140 463,142 460,146 460,146 462,147 462,147 463,149 463,150 463,151 463,152 463,154 463,156 462,158 462,158 462,160 461,160 461,161 460,161 458,162 457,163 456,164 454,164 453,164 453,164 453,164 448,165 445,165 438,166 437,166 434,166 434,167 433,167 432,167 430,168 430,168 430,168 429,168 429,169 429,169 429,169 428,170 428,171 428,173 428,173 428,174 428,176 428,177 429,181 429,181 429,185 431,193 431,196 431,200 429,200 427,200 426,201 423,201 416,202 416,201 414,201 413,202 413,202 410,203 409,203 409,204 408,204 408,204 408,204 407,205 407,205 407,205 406,206 405,206 405,206 405,206 404,206 404,206 404,206 404,206 402,204 402,205 401,205 400,205 400,205 399,205 399,205 399,205 398,206 398,206 398,207 397,207 397,208 398,208 398,209 398,210 399,210 399,212 400,213 400,213 400,213 400,215 400,215 397,216 394,217 394,218 394,218 394,219 394,219 394,219 394,219 393,220 393,220 393,220 393,220 394,221 394,221 394,221 395,222 395,222 395,223 395,223 395,223 395,224 395,225 395,225 395,226 395,226 394,228 394,228 394,229 394,230 394,230 394,231 393,231 393,232 393,232 393,232 393,232 393,232 393,233 392,233 392,234 390,234 390,235 389,236 388,236 388,236 387,236 387,236 386,236 386,237 385,237 385,237 385,237 384,237 384,237 384,237 384,237 384,237 383,237 383,237 382,238 382,238 381,239 381,239 381,239 381,239 381,239 381,240 381,240 380,241 380,242 380,242 379,243 378,245 377,245 377,246 376,247 375,248 374,248 374,248 374,248 373,248 372,248 372,248 371,248 371,248 370,248 370,248 369,248 369,248 368,248 367,248 367,248 366,248 365,249 363,249 363,249 362,250 360,251 357,252 357,252 356,253 356,253 351,249 351,249 351,249 351,248 351,248 351,248 351,248 351,248 352,248 352,247 352,246 352,246 352,245 352,245 352,244 348,241 348,241 347,239 347,239 348,239 348,237 348,237 345,235 345,234 345,232 346,232 346,231 346,231 346,230 346,230 345,228 345,228 345,228 345,227 345,227 346,227 346,227 346,227 346,227 346,226 346,226 346,226 346,226 346,226 346,226 346,225 347,225 347,225 347,225 347,225 347,225 347,224 347,224 347,224 346,224 346,224 345,224 345,224 345,224 344,224 344,223 344,223 343,223 343,223 340,222 340,222 340,222 340,222 340,221 339,220 339,220 339,219 339,219 339,218 340,216 340,216 339,215 339,215 338,215 338,214 338,214 337,214 337,214 337,214 336,214 336,214 336,214 335,214 335,214 335,214 335,214 334,214 333,214 333,214 333,214 333,215 332,215 332,215 332,215 331,215 331,215 330,215 329,215 329,215 329,215 328,215 328,215 327,215 326,215 326,215 326,215 325,215 324,215 324,215 324,215 324,215 323,215 323,215 323,215 323,216 323,216 323,216 322,217 322,217 322,217 322,218 322,218 322,218 321,218 321,218 321,218 320,218 320,218 320,219 320,219 319,219 319,219 318,218 317,218 317,218 316,218 316,218 316,219 315,219 315,219 315,219 314,219 314,219 313,219 313,219 313,219 313,219 313,219 313,219 312,219 312,219 312,219 311,219 311,219 311,219 310,219 310,219 310,219 309,219 309,219 309,219 309,220 309,220 309,220 309,220 309,220 309,220 309,220 309,220 309,220 309,220 309,220 309,220 309,220 309,220 309,220 308,220 308,220 308,220 308,220 308,220 308,220 308,220 307,220 307,220 307,220 307,221 307,221 306,221 306,221 306,221 306,221 305,221 305,221 305,221 305,221 304,221 304,221 303,221 303,221 303,221 296,223 294,223 294,223 293,224 291,224 287,225 285,225 278,226 273,227 273,227 272,227 272,227 271,229 271,230 270,231 269,232 267,234 265,236 263,239 262,239 262,240 261,241 260,242 259,243 258,244 257,245 256,246 256,246 256,246 255,247 254,248 253,249 251,250 250,251 249,252 248,253 245,255 243,257 240,258 239,259 239,260 239,260 235,264 233,268 233,268 233,268 233,268 233,268 232,268 231,266 231,266 231,266 230,265 230,265 229,265 229,264 228,264 227,264 227,264 226,264 226,264 226,263 225,263 224,263 223,262 223,262 223,262 223,262 223,262 223,261 223,261 223,261 222,261 222,261 221,261 220,261 220,261 220,260 220,260 219,260 218,260 218,260 217,259 217,259 217,259 217,259 217,259 217,258 217,258 216,258 216,258 216,258 215,257 215,257 215,257 215,257 215,258 215,258 214,258 214,259 214,259 213,259 213,259 213,259 213,259 213,259 212,259 212,259 211,260 211,260 211,260 211,260 211,260 210,260 210,260 210,260 209,260 209,260 209,260 208,260 208,260 208,260 207,260 207,260 207,260 208,260 208,261 207,261 207,261 207,261 206,261 206,261 206,261 205,261 205,261 204,261 204,261 204,261 203,261 203,261 203,261 202,261 202,261 202,261 201,261 200,260 200,260 199,260 199,260 198,260 196,261 196,261 195,261 195,261 194,260 194,260 193,260 193,260 193,260 192,260 191,260 191,260 191,260 191,260 191,260 190,260 190,260 190,260 189,260 189,260 188,261 188,260 188,260 188,260 188,260 187,260 187,260 186,260 186,260 185,260 185,260 185,260 184,260 184,260 183,260 183,259 182,259 182,259 181,259 180,259 180,258 180,258 180,258 180,258 179,258 179,258 179,257 179,256 178,256 178,256 178,256 178,256 178,255 178,255 178,255 178,254 179,254 180,253 181,252 184,250 186,250 188,249 190,248 190,248 190,248 190,248 191,248 193,248 196,248 197,247 199,246 199,246 201,244 202,243 203,243 203,243 201,241 201,241 201,241 199,240 198,239 197,237 195,235 194,234 194,234 194,234 194,234 194,234 194,234 194,233 193,233 193,233 193,233 193,233 192,232 192,232 192,232 192,232 192,231 192,231 192,230 192,230 193,227 193,226 193,226 193,226 193,226 193,226 193,226 193,223 194,222 194,221 194,221 194,221 194,220 194,220 194,220 193,220 193,219 193,219 193,219 193,219 193,218 193,218 193,218 193,218 193,217 193,217 193,217 195,217 195,217 196,217 196,216 196,216 196,216 196,216 196,216 196,215 196,215 196,215 195,215 195,215 195,215 194,215 194,215 193,214 193,214 193,214 193,214 192,214 192,214 191,214 191,214 191,214 190,213 189,212 189,210 189,209 189,209 187,207 187,206 186,205 186,204 185,204 185,203 185,203 185,203 185,203 184,202 184,202 184,202 184,202 183,201 183,201 183,200 183,200 182,200 182,200 182,200 182,199 182,199 183,198 183,198 185,198 189,197 194,197 195,196 195,196 196,196 196,196 197,196 198,196 202,196 202,195 204,194 205,194 206,194 206,193 206,193 207,193 207,193 207,192 207,192 207,191 208,191 208,190 209,190 209,189 210,189 211,188 212,187 212,187 213,187 213,187 214,186 214,186 214,186 214,186 213,186 213,186 213,185 213,185 213,185 213,185 213,185 213,185 212,185 212,185 212,185 212,185 212,185 212,184 211,184 211,184 211,184 211,184 210,184 210,184 210,184 210,183 209,183 209,183 209,183 209,183 209,183 209,183 209,182 209,182 209,182 209,182 209,182 209,181 208,181 208,181 208,181 208,181 208,181 207,180 207,180 207,180 207,179 207,179 206,179 206,178 207,178 207,178 207,178 206,178 206,177 206,177 206,177 206,177 206,177 206,176 207,176 206,174 206,174 206,174 207,174 207,174 207,174 206,173 206,173 206,173 206,173 206,172 206,172 206,172 206,172 206,171 206,170 206,170 206,169 206,169 207,169 207,169 207,169 207,169 207,169 207,168 207,168 207,168 207,168 207,167 207,167 207,167 207,167 207,166 207,166 207,166 207,166 207,166 207,166 207,166 207,165 207,165 207,165 207,164 207,164 207,163 207,163 207,163 207,163 207,162 207,162 207,161 207,161 207,161 207,160 206,159 207,158 207,157 207,157 207,156 208,156 207,156 207,156 207,155 208,155 208,155 208,154 208,154 208,154 207,154 207,154 207,153 208,153 208,153 208,153 208,153 208,153 208,153 208,153 208,152 208,151 207,151 207,151 207,151 207,151 207,150 207,150 206,150 206,150 205,150 205,150 204,150 204,150 204,150 203,150 203,150 203,150 202,150 202,150 201,150 201,150 201,150 201,150 200,150 200,150 200,150 200,150 200,150 200,150 199,150 199,150 198,150 198,150 197,150 197,150 197,150 196,149 196,149 196,149 195,149 195,149 195,149 195,149 195,149 195,149 194,149 194,149 194,149 194,149 193,149 193,149 193,149 192,149 192,149 192,149 192,149 191,149 191,149 191,148 191,149 190,149 190,149 190,149 190,149 189,149 189,150 189,150 189,150 189,150 190,150 190,150 190,151 190,151 190,151 189,152 189,152 188,153 187,153 187,153 186,153 185,153 185,153 183,152 182,153 181,154 180,155 179,155 178,155 178,155 176,155 176,155 176,155 175,155 175,156 175,157 175,157 175,157 175,157 174,157 172,157 171,157 171,157 171,157 171,157 171,156 171,156 171,156 171,155 171,155 170,155 170,155 170,155 170,155 169,155 169,155 169,155 168,155 168,154 168,154 168,154 168,154 167,153 167,153 167,153 167,152 167,152 167,152 167,152 166,152 166,152 166,152 166,152 165,152 165,152 165,152 164,151 163,151 163,151 162,151 162,151 161,150 161,150 161,150 161,150 161,150 160,150 160,150 160,149 160,149 160,149 160,149 159,149 159,149 159,149 159,149 159,149 159,148 159,148 159,148 159,148 159,147 159,147 159,147 159,147 159,147 159,146 158,146 158,146 158,146 158,145 158,145 158,145 158,145 158,145 158,145 158,145 158,145 157,144 157,144 157,144 157,144 157,144 157,144 156,144 156,144 156,144 156,144 156,144 156,144 156,144 156,144 155,145 155,145 155,145 155,145 155,145 155,145 155,145 155,145 155,146 154,146 154,146 154,146 154,146 154,147 154,147 154,147 154,147 154,147 153,147 153,148 153,148 153,148 153,148 153,148 153,148 153,148 152,149 152,149 152,149 152,149 151,149 151,149 151,149 151,150 151,150 151,150 151,150 151,150 151,150 151,150 150,151 150,151 150,151 150,151 150,151 150,151 150,151 149,152 149,152 148,152 148,152 147,152 147,152 144,150 144,150 143,149 143,149 143,149 142,149 142,148 140,148 140,147 140,147 139,147 139,147 138,146 138,146 135,147 134,147 134,147 134,147 134,147 134,147 134,147 134,147 134,147 134,148 134,148 133,148 133,148 133,148 133,148 133,148 133,148 133,148 133,148 133,149 133,149 133,149 133,149 133,149 133,149 132,149 132,149 132,150 132,150 132,150 132,150 132,150 132,150 132,150 131,150 131,151 131,151 131,151 131,151 131,151 131,151 131,152 131,152 131,152 131,152 131,152 130,152 130,153 130,153 129,153 129,153 129,153 129,154 129,154 129,154 128,154 128,154 128,154 128,154 128,154 127,154 126,153 126,153 126,153 125,153 124,153 124,153 124,153 124,153 124,153 124,152 124,152 125,152 125,152 124,151 124,151 124,151 123,150 123,150 123,150 122,150 122,149 122,149 122,148 122,148 122,148 122,148 122,148 122,147 122,147 122,147 122,147 121,146 120,146 120,146 120,146 120,146 119,146 119,145 119,145 118,145 118,145 118,145 117,145 117,145 117,145 116,145 115,145 115,145 115,144 115,144 115,144 114,144 114,144 113,144 113,143 113,143 112,143 112,143 112,143 111,143 111,142 110,142 110,142 110,142 110,142 109,142 109,141 109,141 109,141 109,141 109,141 109,141 109,141 109,141 108,140 108,140 108,140 108,140 107,140 107,140 107,139 106,139 106,139 106,138 106,138 106,138 105,137 105,137 105,137 105,137 105,136 105,136 105,136 105,136 105,136 105,135 105,135 105,135 105,135 105,135 105,135 105,135 105,135 105,134 105,134 105,134 105,134 105,134 105,134 105,134 105,134 105,134 105,134 104,133 104,133 104,133 104,133 104,133 104,133 104,133 104,133 104,132 104,132 104,132 104,132 104,132 104,132 104,132 104,132 104,132 104,131 104,131 104,131 104,131 104,131 104,131 104,130 104,130 104,130 104,130 104,130 104,130 104,129 104,129 104,129 104,128 104,128 104,128 104,128 104,128 104,127 104,127 104,127 105,127 105,127 105,127 105,127 105,127 105,127 105,127 105,127 105,127 105,126 105,126 105,126 105,126 105,126 104,125 104,125 104,125 104,125 104,125 104,125 104,125 104,124 104,124 104,123 104,123 103,123 101,122 99,122 98,122 98,122 98,122 98,122 97,122 96,122 96,122 95,122 95,122 94,121 94,121 94,121 94,121 93,121 93,121 93,121 92,121 92,121 92,121 91,121 91,121 90,121 90,121 90,121 90,121 89,121 89,121 88,121 88,121 88,121 87,121 87,121 86,121 86,121 85,120 85,120 84,119 84,119 83,119 83,118 83,118 84,118 84,118 85,117 85,117 85,117 85,117 85,117 85,117 85,117 85,117 85,116 85,116 86,116 86,116 86,116 86,116 87,116 87,115 87,115 87,115 88,115 88,115 88,115 88,114 88,114 88,114 88,114 88,114 87,114 87,114 87,114 87,114 87,114 87,114 87,114 87,113 87,112 87,112 87,112 87,112 87,112 87,112 88,111 88,111 89,111 89,111 89,111 89,110 90,110 90,110 90,110 90,110 90,109 91,109 91,109 91,109 92,108 92,108 92,108 93,108 93,108 92,107 92,107 92,107 92,107 92,107 92,107 92,106 92,106 92,106 92,105 92,105 92,105 92,105 92,105 92,105 92,104 93,104 93,104 93,104 93,104 93,104 92,104 92,104 92,104 92,104 92,103 91,103 91,103 91,103 91,103 90,103 90,103 90,103 90,103 89,103 89,103 89,103 89,103 88,103 88,103 88,103 88,103 87,103 87,103 86,103 86,103 86,103 86,102 86,102 86,102 86,102 86,102 86,101 86,101 85,101 85,101 85,101 85,101 84,101 84,101 84,101 84,101 83,102 83,102 82,102 82,102 82,102 82,102 82,102 82,102 82,102 81,102 81,102 80,102 80,101 80,101 79,101 79,101 79,101 78,101 78,101 78,101 78,101 78,101 77,101 77,101 77,101 77,101 76,101 76,101 76,101 76,101 76,101 75,101 75,101 75,101 75,101 75,101 75,101 75,101 75,100 75,100 75,100 74,100 74,100 74,100 74,101 74,101 74,101 74,101 74,101 73,100 73,100 73,100 73,100 72,100 72,100 72,100 71,100 71,100 71,100 71,100 70,100 70,100 69,100 69,100 69,100 68,99 68,99 68,100 68,100 68,99 67,99 67,99 67,99 66,99 66,99 66,99 65,99 65,99 65,99 65,99 64,99 64,99 63,98 63,98 63,98 61,98 61,98 61,98 60,98 60,97 59,97 59,96 58,96 58,95 58,95 58,95 57,94 57,94 57,94 57,94 57,94 56,94 56,93 56,93 55,93 54,92 54,92 54,92 53,92 52,91 52,91 51,91 50,91 49,91 49,91 49,91 48,91 48,91 48,91 48,91 49,91 49,90 49,90 49,90 48,89 48,89 47,89 47,89 47,89 46,88 46,88 46,88 45,88 44,87 43,87 43,87 42,87 42,86 42,86 41,86 40,86 39,85 39,85 37,85 35,85 34,84 33,84 33,84 32,84 32,85 31,85 27,86 26,86 26,86 25,88 25,88 25,88 25,88 24,89 24,90 24,90 24,90 23,91 23,92 22,92 22,93 21,94 20,96 19,98 18,99 17,100 17,101 17,101 17,101 16,102 15,101 15,101 14,100 14,100 13,99 13,99 12,99 12,98 10,97 10,97 9,97 9,96 10,96 12,96 12,95 12,95 12,95 11,94 10,94 9,94 10,93 10,93 11,93 11,92 11,91 9,91 9,91 8,91 8,91 8,91 7,91 7,91 7,91 7,91 6,91 6,91 6,91 5,91 5,91 3,91 3,90 3,90 3,90 3,90 3,89 3,89 3,88 3,88 3,88 3,88 3,87 3,87 3,87 2,86 2,86 2,86 2,85 1,85 1,85 1,85 1,84 0,84 0,84 0,83 0,83 0,82 0,82 0,82 0,81 0,81 1,81 1,81 2,81 3,80 3,80 3,80 4,79 4,79 4,79 5,79 5,79 5,79 5,79 5,78 5,78 6,78 6,77 7,77 8,77 8,77 8,77 9,76 9,76 9,76 10,75 10,75 10,75 10,75 11,75 11,75 12,75 12,74 13,74 13,74 13,74 14,73 14,73 15,73 15,73 15,73 16,72 16,72 16,72 16,72 16,72 16,71 16,71 16,71 17,71 17,71 17,70 17,70 17,70 18,69 18,69 18,69 18,69 19,68 19,68 19,68 19,68 20,68 20,68 21,68 21,68 21,67 21,67 22,67 22,67 22,67 23,67 23,66 23,66 24,66 24,66 24,66 24,66 24,66 24,66 25,65 25,65 25,65 25,65 25,65 25,64 25,64 26,64 26,64 26,63 26,63 26,63 26,63 27,63 27,63 27,63 28,63 28,63 28,63 28,63 28,62 28,62 29,62 29,62 31,62 32,63 34,63 36,64 37,64 38,64 38,64 38,64 38,64 38,64 38,63 38,63 38,63 38,63 38,63 38,63 38,62 38,62 38,61 39,61 39,61 39,60 39,59 39,59 40,58 40,58 40,58 40,57 40,56 39,56 39,56 40,55 40,55 40,55 40,55 40,54 41,54 41,54 41,54 41,54 41,53 41,53 41,53 41,53 41,52 41,52 40,52 40,51 40,51 40,51 40,50 40,50 40,50 40,50 40,50 40,50 40,49 40,49 40,49 40,49 39,48 39,48 39,48 39,48 39,48 39,47 39,47 39,47 40,47 40,47 40,46 40,46 40,46 40,46 40,46 40,46 40,46 40,46 40,44 40,44 40,42 40,41" id="717" class="canton" fill="steelblue" stroke-width="1" stroke="white" geotype="canton" geoname="Voulte-sur-Rhône" code_insee="717" code_departement="7" nom_departement="Ardèche" code_region="84" nom_region="Auvergne-Rhône-Alpes"/></svg>