<?xml version="1.0" encoding="utf-8"?>
<svg version="1.1" id="svgmap" xmlns="http://www.w3.org/2000/svg" xmlns:xlink="http://www.w3.org/1999/xlink" x="0px" y="0px" width="100%" height="100%" viewBox="0 0 467 500">
<polygon points="2,97 3,97 3,97 3,97 4,97 4,97 5,96 5,96 5,96 5,96 5,96 6,96 6,96 6,96 6,96 7,96 7,96 8,96 8,96 9,96 9,97 11,97 11,97 11,97 11,97 12,97 12,98 12,98 12,98 13,98 13,98 13,98 14,98 14,98 15,98 15,98 16,98 16,98 16,98 16,98 17,98 17,98 17,98 18,98 19,98 19,98 20,98 20,98 20,98 20,98 20,98 20,98 20,98 20,98 20,97 20,97 21,97 21,98 21,98 22,98 22,97 22,97 22,97 23,97 23,96 24,96 24,96 25,95 25,95 26,95 26,95 26,95 26,94 26,94 27,94 27,94 27,93 27,93 27,93 26,93 26,93 26,92 25,92 25,92 25,91 25,91 25,91 25,91 25,90 25,90 25,90 25,90 25,90 25,90 25,89 25,89 25,89 26,89 26,89 26,89 26,89 27,88 27,88 28,88 28,88 28,88 28,88 28,87 28,87 29,87 29,87 29,87 29,86 29,86 29,86 29,86 30,85 30,85 30,85 30,85 30,84 30,84 30,83 30,82 30,82 30,81 30,81 30,81 30,80 30,80 31,80 31,80 31,80 31,80 31,80 31,79 31,79 31,79 31,78 31,78 31,78 30,78 30,78 30,78 29,78 29,78 29,78 29,78 28,78 28,77 28,77 28,77 28,77 28,77 28,77 28,76 29,76 29,75 29,75 29,75 29,75 29,75 30,75 30,75 30,75 30,75 30,75 31,74 31,74 31,74 31,74 31,74 31,74 32,74 32,74 32,74 32,73 32,73 32,73 33,73 33,73 33,73 33,73 33,73 33,73 34,73 34,73 34,73 34,73 34,74 35,74 35,74 35,74 36,74 36,74 36,74 37,74 37,74 37,74 38,74 39,74 39,74 39,74 39,74 39,74 39,75 39,75 40,75 40,75 40,75 41,75 41,75 41,75 42,75 42,75 42,75 43,75 43,75 43,75 43,75 44,75 44,75 45,75 45,75 46,75 47,75 47,75 47,75 48,74 48,74 48,74 49,74 49,74 49,74 49,74 49,74 48,73 48,73 48,73 48,73 48,73 48,73 48,73 49,72 49,72 49,72 49,72 49,71 49,71 49,71 48,71 48,70 48,70 48,70 48,69 48,69 48,69 49,67 49,67 50,66 50,66 50,66 51,66 51,65 51,65 51,65 51,65 51,64 51,64 51,64 51,64 51,64 52,63 52,63 52,63 52,63 52,62 53,62 53,62 53,61 53,61 53,61 53,61 53,61 53,60 53,60 53,60 54,60 54,60 54,59 54,60 54,60 55,60 55,59 55,59 55,59 56,59 56,59 56,59 56,59 56,59 57,59 57,59 57,58 57,58 58,58 58,58 58,58 58,58 58,58 58,57 58,57 58,57 58,57 58,57 58,57 58,57 58,57 58,56 57,56 57,56 57,55 56,55 56,54 56,54 56,54 56,54 57,54 56,53 56,53 56,53 56,53 57,51 57,51 58,51 59,51 61,53 61,53 62,53 63,53 64,53 64,53 64,53 64,54 64,54 65,55 65,55 65,56 65,56 66,57 66,57 67,58 68,58 68,58 68,58 69,59 70,59 70,60 70,60 71,60 71,60 71,60 72,61 73,61 73,61 73,61 74,61 74,61 74,61 74,61 75,61 75,61 75,61 76,61 76,62 77,62 77,63 78,63 78,64 79,64 79,64 80,65 81,66 81,66 82,66 83,66 83,66 83,66 83,67 83,67 84,67 84,67 86,69 86,69 86,69 87,70 87,70 88,70 88,70 88,71 89,71 90,71 90,71 91,72 91,72 91,72 91,72 93,72 93,72 93,72 93,72 99,73 102,74 97,72 91,70 91,70 89,69 90,69 90,69 91,69 91,69 92,68 94,68 94,68 94,68 94,68 94,68 94,67 95,67 94,66 94,66 94,65 94,65 94,64 94,64 94,63 94,63 94,63 94,63 94,63 94,62 94,62 94,62 94,61 94,61 94,61 94,61 95,61 95,61 94,60 93,60 92,60 92,60 92,59 91,59 91,59 91,58 91,58 90,57 90,57 90,57 90,57 91,56 91,57 91,57 92,57 93,57 93,57 93,57 94,57 94,57 94,56 94,56 94,56 94,55 94,55 94,55 93,55 93,55 93,54 93,54 93,54 93,54 94,54 95,54 95,53 96,53 96,53 96,53 96,52 96,52 96,52 96,51 97,51 97,51 97,51 97,51 98,50 98,50 98,49 99,49 99,49 99,48 99,48 100,48 100,48 100,47 100,47 100,47 100,47 100,47 100,46 100,46 101,46 101,46 101,46 101,45 101,45 101,45 101,45 101,45 101,45 101,44 102,44 102,44 102,43 103,43 103,43 103,43 103,43 103,42 103,42 102,42 102,42 102,42 102,42 102,42 102,42 102,41 102,41 102,41 101,41 101,41 101,41 101,40 101,40 100,40 100,40 100,40 100,40 99,40 99,40 99,39 99,39 99,39 99,39 100,39 100,39 100,38 100,38 100,38 101,38 101,38 101,38 101,38 101,38 102,38 102,38 102,38 102,37 102,37 102,37 102,37 102,37 102,37 102,37 102,37 103,37 103,37 103,36 103,36 103,36 104,36 104,36 104,36 105,36 105,36 105,36 105,36 106,36 106,36 106,36 106,36 106,36 106,37 107,37 107,36 107,36 107,36 107,36 107,36 108,36 108,36 108,36 108,36 108,35 108,35 108,35 108,35 108,34 108,34 108,34 108,34 109,34 109,34 110,34 110,34 110,34 111,34 111,34 112,34 112,34 112,34 112,34 112,34 112,34 111,34 111,34 111,34 111,34 111,34 112,34 112,34 112,33 112,33 112,33 112,33 112,33 112,33 112,33 112,33 112,33 112,33 112,32 112,32 112,32 112,32 112,32 112,32 112,32 112,31 112,31 112,31 112,31 112,31 112,31 112,31 112,31 112,31 112,30 112,30 112,30 112,30 112,30 112,30 113,30 113,30 113,30 113,30 113,30 113,30 113,30 113,29 113,29 113,29 112,29 112,29 112,29 112,29 112,29 112,29 112,29 113,29 113,29 113,29 113,29 113,29 113,28 113,28 113,28 113,28 113,28 113,28 113,28 113,28 114,28 114,28 114,28 114,28 114,28 114,28 114,28 114,27 114,27 115,27 115,27 115,27 115,26 115,26 115,26 115,26 115,26 115,26 115,25 115,25 115,25 116,25 116,25 116,25 116,25 116,24 116,24 116,24 116,24 117,24 117,23 117,23 117,23 117,23 117,23 117,23 117,23 117,23 117,22 117,22 117,22 117,22 118,21 118,21 118,21 118,21 118,21 118,20 119,20 119,20 119,20 119,20 120,20 120,20 120,20 121,20 122,20 122,20 123,20 124,20 125,20 125,20 126,21 127,21 127,21 127,21 128,22 128,22 129,22 129,22 129,22 130,22 130,22 130,22 130,22 131,21 131,21 132,21 132,21 132,21 133,21 134,20 134,20 135,20 136,20 137,20 137,20 138,20 138,20 138,20 138,20 139,20 139,20 139,20 139,20 139,20 140,21 141,21 141,21 141,21 142,21 142,21 143,21 143,22 144,22 144,22 144,22 145,22 146,23 146,23 147,23 147,23 147,23 148,23 149,23 151,23 151,23 154,23 156,23 156,23 159,22 159,22 160,22 162,20 163,19 163,14 164,13 167,12 167,11 168,8 168,8 171,7 172,6 175,5 175,5 180,4 184,3 185,3 194,0 200,1 204,2 204,2 207,3 208,3 210,4 211,5 211,5 212,5 213,6 214,7 214,7 216,8 218,8 221,9 225,11 225,12 228,15 229,15 233,15 233,15 238,15 244,16 246,16 249,14 254,13 257,13 257,13 259,13 261,12 261,12 262,11 263,11 269,11 269,11 269,11 269,11 270,12 270,12 270,13 271,14 271,14 272,15 274,17 275,16 276,16 276,16 277,16 277,16 280,15 281,15 282,16 284,16 284,16 285,16 285,16 286,16 287,16 287,16 289,15 291,15 293,15 294,15 294,15 295,15 296,15 297,15 297,15 297,16 297,15 298,16 299,16 299,16 300,16 301,15 302,15 305,15 306,15 306,15 307,15 307,15 308,15 308,15 308,15 308,15 310,15 310,15 311,15 311,15 311,15 312,15 315,15 315,15 317,18 317,18 317,20 317,21 318,21 318,21 318,21 318,22 318,22 319,23 320,23 320,24 320,24 321,25 322,25 322,25 323,26 323,26 326,27 328,27 329,28 330,28 332,28 332,29 333,29 333,29 334,29 334,29 337,30 340,32 341,32 341,32 341,32 342,32 347,32 348,32 348,32 349,33 349,33 350,33 350,33 350,33 351,33 352,33 353,34 354,34 354,34 354,34 355,35 355,35 356,35 356,35 356,35 357,36 357,36 357,36 357,36 358,36 359,37 359,37 359,38 359,38 359,38 359,38 359,38 359,38 359,39 359,39 359,39 359,40 359,40 359,41 360,41 360,41 360,42 360,42 359,42 359,43 359,44 359,44 359,44 361,45 361,46 361,46 362,47 362,48 362,48 362,48 362,48 362,48 362,49 362,49 363,49 363,49 364,50 365,50 365,50 365,51 366,56 366,56 366,56 367,57 367,57 368,60 370,61 370,62 371,62 371,63 371,63 371,63 371,64 372,64 372,64 372,65 372,65 372,65 373,65 373,66 373,66 373,66 373,66 373,66 373,66 373,67 373,67 373,67 373,68 373,68 373,68 373,68 374,68 374,68 374,69 374,69 374,69 374,69 374,70 374,70 374,70 374,70 374,70 374,71 374,71 375,71 375,72 375,72 375,72 375,72 375,72 376,72 376,72 376,73 376,73 377,73 377,73 377,73 377,73 377,73 377,74 377,74 377,75 377,76 377,76 377,76 377,76 377,77 376,77 377,77 377,77 376,77 376,78 376,78 376,78 375,78 375,78 375,78 375,78 375,78 375,79 376,79 376,79 376,79 376,80 375,80 375,80 375,80 376,80 376,81 376,81 377,81 378,81 378,81 378,81 378,81 378,81 378,82 378,82 379,82 380,83 380,83 381,83 381,83 382,83 382,84 382,84 382,84 383,84 382,84 382,85 382,85 383,86 384,86 384,86 385,86 385,86 387,87 387,87 387,87 387,87 387,88 387,88 387,88 387,88 387,88 387,89 388,89 389,90 389,90 390,91 390,91 391,92 391,92 391,93 392,93 392,93 392,94 393,94 394,96 394,96 394,96 394,96 394,96 395,97 396,97 396,97 396,97 396,97 395,98 395,98 395,99 396,99 396,99 395,99 395,99 394,98 394,98 394,98 393,98 393,98 393,98 393,98 393,98 393,98 393,98 392,98 392,98 391,98 391,99 391,99 390,99 390,99 389,99 388,99 387,99 386,98 386,98 385,98 385,98 384,98 384,98 383,98 383,98 383,98 382,98 382,98 382,98 381,98 381,98 380,98 380,98 379,97 379,97 378,97 378,97 378,97 378,97 377,97 377,97 377,97 377,97 376,97 375,96 375,96 375,97 374,97 374,97 374,97 373,97 373,97 373,98 372,98 372,98 371,98 370,98 370,98 370,98 370,98 369,98 368,99 368,99 368,99 367,99 367,99 367,99 366,99 366,99 366,99 366,99 366,100 365,101 365,101 365,102 365,102 365,102 365,103 366,104 366,104 366,105 366,105 366,106 366,107 366,107 366,107 365,107 364,108 364,108 363,108 363,108 362,107 361,108 361,108 360,108 360,108 359,108 359,108 359,108 358,108 358,109 358,109 356,108 356,108 356,109 355,109 354,109 354,109 353,109 353,109 352,109 352,109 351,109 350,109 349,109 349,109 349,109 348,109 347,109 347,109 346,109 346,109 346,109 345,109 345,109 345,109 344,109 344,109 342,109 340,109 340,109 338,109 337,109 336,109 335,109 333,110 333,110 333,110 332,110 332,110 331,110 330,111 330,111 329,111 329,111 328,111 328,111 328,112 327,112 326,112 326,112 325,112 325,112 325,112 324,112 323,113 323,113 323,113 322,113 322,113 322,113 322,113 322,114 322,114 322,115 324,117 324,117 325,118 325,118 325,119 326,119 326,119 327,119 329,119 329,119 330,120 330,120 331,120 331,120 331,121 331,121 331,121 330,121 329,121 328,122 328,122 327,122 327,122 327,122 326,123 326,124 326,124 326,124 326,124 327,124 327,124 327,125 328,125 328,125 328,126 328,126 328,126 328,126 328,126 328,127 328,127 327,127 327,127 326,127 325,127 325,127 325,127 324,127 324,127 324,127 324,127 324,127 325,128 325,128 326,129 327,129 327,129 328,130 328,130 328,130 328,130 328,131 328,131 329,132 330,132 330,133 330,134 331,134 331,134 331,135 331,135 331,135 331,135 331,135 330,136 329,136 329,136 329,136 329,136 329,137 330,137 330,138 330,138 330,138 331,138 331,138 332,138 332,138 333,138 333,139 333,139 333,139 334,139 334,140 334,140 334,141 335,141 335,141 335,141 336,142 336,142 336,142 336,143 337,143 337,144 337,144 337,145 337,146 336,146 336,147 336,147 336,147 335,147 333,148 333,148 333,148 332,149 332,149 331,151 331,151 331,152 332,153 335,154 337,155 337,156 338,156 338,156 339,156 339,156 340,156 340,156 341,155 342,154 343,154 343,153 345,152 347,150 347,150 347,150 347,150 348,149 348,149 348,149 349,149 349,149 350,149 351,149 351,149 352,149 352,149 352,149 353,150 353,150 353,150 353,151 353,151 353,152 353,152 354,153 354,153 354,153 354,153 355,154 355,154 355,154 355,154 355,155 355,155 354,155 354,155 351,156 351,157 351,157 351,157 351,157 351,158 351,158 352,158 352,158 353,158 354,159 354,159 354,159 354,159 355,160 355,160 355,160 355,160 355,161 355,161 356,161 356,161 356,161 356,160 357,160 357,160 357,160 357,160 357,160 357,159 357,159 357,159 357,159 357,159 358,159 359,158 359,158 359,158 359,158 359,158 359,158 360,157 360,157 360,157 361,157 361,157 361,157 361,156 362,156 362,156 362,156 362,156 363,155 363,155 363,155 364,154 365,153 365,153 365,152 365,152 365,152 365,151 365,150 365,150 365,149 366,149 366,149 367,149 367,149 367,149 367,149 368,149 369,149 370,149 371,149 371,149 371,148 371,147 372,147 372,147 372,147 372,147 373,147 374,146 374,146 374,146 379,145 379,145 380,145 380,145 381,146 381,146 381,146 382,146 382,146 382,147 383,147 383,147 384,147 384,147 384,146 385,146 385,146 386,146 386,147 387,147 387,147 389,146 389,146 390,146 391,146 391,146 391,146 393,147 395,148 396,148 396,149 397,149 397,149 397,149 398,149 399,149 399,149 399,149 400,149 400,149 401,148 401,148 402,149 402,149 402,149 403,149 404,149 405,149 405,149 405,149 405,149 405,148 405,148 405,148 405,148 405,148 405,147 405,147 406,147 406,147 406,147 407,147 407,147 407,147 408,147 408,147 409,147 409,147 409,146 409,146 409,146 409,145 410,145 410,145 410,145 410,144 411,144 412,144 412,144 412,144 413,143 413,143 414,143 414,143 414,142 414,142 414,142 414,141 415,141 415,141 415,141 415,141 416,142 416,143 417,143 418,144 418,145 419,145 421,145 421,145 422,145 422,145 422,145 423,144 423,144 423,144 424,144 424,144 424,144 425,145 425,145 425,145 426,145 426,145 427,145 427,146 427,146 427,146 426,147 426,147 426,147 426,148 425,148 424,148 423,148 423,148 423,149 423,149 423,149 423,149 423,150 423,150 423,150 424,150 424,150 426,150 426,150 427,150 427,150 427,151 428,151 428,151 428,152 428,152 428,152 428,152 428,153 429,153 429,153 430,154 430,155 430,155 430,156 430,156 430,157 430,157 430,157 431,158 431,158 431,158 431,158 431,159 431,159 431,159 430,159 429,159 429,159 429,159 429,160 429,160 429,160 429,160 429,160 429,160 430,161 431,161 431,162 431,162 432,162 432,162 432,162 432,162 433,162 433,161 433,161 433,161 434,161 434,161 435,161 436,161 437,161 437,162 438,162 438,162 439,162 439,162 439,163 439,163 439,164 439,164 439,164 440,165 440,166 440,166 440,166 440,166 440,167 440,167 440,167 439,167 439,167 439,168 438,168 438,168 438,168 438,168 438,169 437,169 437,169 438,170 438,170 438,170 439,171 439,171 440,172 441,173 441,173 442,173 442,173 443,174 443,174 443,174 443,175 444,175 444,176 444,176 444,176 444,176 444,176 444,176 445,176 445,176 445,176 445,176 446,176 446,177 447,177 447,177 448,176 451,178 451,178 452,178 452,178 452,179 452,181 453,181 453,181 453,181 452,182 452,182 452,182 452,182 453,184 454,184 454,185 454,186 455,186 455,187 455,187 456,188 456,188 456,189 457,190 457,190 457,190 457,190 458,191 459,191 459,191 465,197 466,198 462,203 462,203 455,205 453,206 446,211 441,216 441,216 440,217 440,218 440,218 440,219 441,220 441,220 441,220 442,222 443,224 443,225 444,226 444,226 444,227 445,227 445,227 446,227 446,227 447,228 448,229 450,229 450,229 451,229 451,229 452,230 452,230 452,230 452,230 453,229 453,229 453,229 453,229 454,230 455,230 455,231 455,231 455,232 455,233 455,234 455,234 454,236 453,236 453,236 452,237 451,237 451,238 450,238 450,239 449,239 449,240 449,240 449,240 449,240 449,240 449,241 449,241 445,241 445,241 445,241 445,241 444,241 444,241 444,241 444,241 443,241 443,241 442,241 442,241 442,241 442,241 442,241 442,241 442,242 442,242 442,243 441,243 441,243 441,243 441,244 441,244 441,244 441,245 441,245 441,245 441,244 440,244 440,244 440,245 440,245 439,245 439,245 438,245 438,245 437,245 437,245 437,245 437,245 436,245 435,245 435,245 435,245 435,245 435,245 434,246 434,246 434,246 434,246 434,246 430,252 429,252 420,258 418,261 418,262 418,262 417,268 416,268 416,268 416,269 416,270 416,271 415,271 415,271 415,271 415,271 416,271 416,271 417,271 417,271 417,271 417,271 418,270 418,270 418,270 419,270 419,270 419,270 419,270 418,270 418,269 418,269 418,269 418,269 418,269 418,269 419,269 420,269 421,269 421,269 421,269 421,270 422,270 422,270 422,271 422,271 423,271 423,271 423,271 423,271 424,271 424,271 424,271 424,271 425,271 425,271 425,271 425,272 425,272 425,273 425,273 425,273 425,273 425,273 426,273 427,272 427,272 427,272 428,272 429,272 429,272 429,272 429,272 429,273 429,273 429,273 430,273 430,273 430,273 429,274 429,274 430,274 430,274 430,275 430,276 430,276 430,276 429,276 429,276 430,276 430,277 430,277 430,277 429,278 428,278 428,278 427,278 427,278 426,278 426,278 425,278 425,277 425,277 425,277 424,277 424,276 423,276 423,276 423,276 422,276 422,277 422,277 421,277 421,278 420,279 420,280 420,280 419,280 419,280 419,281 418,281 418,281 417,282 415,284 415,284 414,285 414,285 413,286 413,286 413,288 413,288 413,288 413,288 413,290 413,291 413,291 412,292 412,293 412,293 412,293 412,293 413,294 413,294 414,294 414,294 414,295 414,295 415,296 416,296 416,296 416,297 416,297 416,297 416,297 415,298 415,298 415,298 415,299 415,300 415,300 416,300 416,300 417,300 417,300 418,300 419,301 419,301 419,301 419,301 420,301 420,301 420,301 421,301 421,301 422,302 423,302 423,302 424,302 424,302 425,302 426,302 426,302 426,302 426,302 426,303 426,304 426,305 425,305 425,306 424,307 423,307 422,308 421,308 421,308 421,308 420,309 419,310 416,314 412,318 412,318 411,318 408,319 406,320 405,320 405,320 402,322 402,322 402,322 402,323 402,323 402,324 402,324 402,324 402,324 402,325 402,325 402,325 401,325 401,326 401,326 401,326 401,326 402,326 402,327 402,327 402,327 402,327 402,328 403,328 403,329 403,329 403,329 404,329 404,330 404,330 404,330 404,330 404,330 405,330 405,330 408,333 408,333 408,333 408,334 408,334 408,334 408,334 407,335 407,335 407,335 407,335 407,335 407,335 407,336 407,336 407,336 407,336 407,336 407,336 407,337 407,337 407,338 407,338 407,338 407,338 408,338 408,338 408,338 408,339 408,339 408,339 409,339 409,339 409,340 409,340 409,340 409,340 410,340 410,340 410,340 410,341 410,341 410,341 410,341 410,341 410,341 411,341 411,342 411,342 411,342 411,343 412,343 412,343 412,343 412,343 412,343 412,345 412,345 413,346 414,347 415,347 416,348 416,348 416,349 417,349 417,349 418,349 418,349 418,349 420,350 420,350 420,350 421,351 421,351 422,352 422,352 423,352 424,352 424,352 424,352 425,352 425,353 425,353 426,353 426,354 428,355 429,355 429,355 429,355 429,355 430,355 430,355 431,355 431,355 432,354 432,354 432,354 432,354 432,354 433,354 433,354 433,354 433,354 433,354 433,354 433,354 433,354 433,354 434,354 434,354 435,354 435,354 435,354 435,355 435,355 435,355 435,355 435,355 436,355 436,355 436,355 437,355 437,355 437,355 437,354 437,354 437,354 438,354 438,354 439,353 440,352 440,352 440,352 440,352 440,352 440,352 440,351 441,351 441,351 441,351 441,351 442,351 442,351 443,351 444,351 444,351 444,351 445,351 445,351 445,352 446,352 446,352 446,353 446,353 446,353 446,353 446,353 447,354 447,354 448,354 448,354 448,355 449,355 449,356 449,356 449,356 449,356 450,356 450,356 450,356 450,356 451,357 451,357 451,357 451,357 451,357 451,357 452,358 452,358 452,358 452,358 452,359 452,359 452,359 452,360 452,360 453,360 454,360 455,360 456,361 457,361 457,361 460,361 460,361 460,362 461,362 461,362 462,362 463,362 463,362 464,362 464,362 465,362 466,361 466,361 466,361 467,360 467,360 467,361 467,361 466,362 466,362 465,363 464,365 463,366 462,367 462,367 462,367 461,367 461,367 459,367 459,367 459,367 458,368 458,368 458,368 458,368 457,368 456,369 456,369 456,369 455,370 453,370 453,370 452,371 450,372 450,372 450,372 449,373 449,373 449,373 449,374 449,374 449,375 449,375 450,376 450,377 450,378 450,378 449,378 449,378 448,379 448,379 448,379 447,379 447,379 447,379 446,379 446,379 445,379 445,379 445,379 444,379 444,379 444,379 444,379 444,379 443,380 443,380 443,381 443,381 444,382 444,382 445,382 446,383 446,383 447,384 447,384 447,384 448,384 448,385 448,385 448,385 448,385 447,387 446,388 446,388 446,389 446,389 446,389 446,390 446,390 446,390 446,390 446,390 446,390 446,390 446,390 446,391 446,391 446,391 447,391 447,391 447,391 447,391 447,391 447,392 447,392 447,392 447,392 447,392 447,392 447,392 447,392 447,393 447,393 447,393 447,393 447,393 447,394 448,394 448,394 448,394 448,394 448,394 448,394 448,395 448,395 448,395 448,395 448,395 448,395 448,395 447,395 447,395 447,395 446,395 445,395 445,395 445,395 445,396 444,396 444,396 443,396 443,396 443,396 443,396 443,396 443,396 443,396 442,398 442,398 442,398 442,398 441,397 440,397 440,397 439,396 439,396 439,396 437,401 437,401 434,405 434,405 434,405 435,405 435,405 435,405 435,405 434,405 434,405 434,405 434,406 434,406 434,406 434,406 435,407 435,407 435,407 434,408 434,408 434,408 434,408 434,408 434,408 434,408 434,408 432,409 432,409 431,409 431,409 431,409 430,411 430,414 429,414 429,416 429,416 429,416 430,416 430,416 430,416 430,416 430,417 430,417 430,417 430,417 431,417 431,417 431,417 431,417 432,417 432,417 432,417 432,418 432,418 432,418 433,418 433,418 434,418 434,418 434,418 434,418 434,418 434,418 434,418 435,418 435,418 435,418 435,418 435,418 435,418 435,418 436,418 436,418 436,418 437,419 437,419 437,419 438,419 438,419 439,419 439,419 440,419 440,419 440,419 440,419 440,419 440,419 440,419 441,420 441,420 441,420 441,420 442,420 442,420 442,420 442,420 442,420 442,420 442,421 442,421 442,421 442,421 443,421 443,421 444,422 444,422 444,422 444,422 445,423 445,423 445,423 445,423 446,424 446,424 448,425 448,425 448,425 448,426 448,426 448,426 448,426 448,426 448,426 449,426 449,426 449,426 449,426 449,427 449,428 449,428 449,428 451,429 451,429 451,429 451,429 451,429 451,429 451,429 452,428 452,428 452,428 453,428 453,428 453,428 453,428 453,428 453,428 453,428 453,428 454,428 454,428 454,428 455,428 455,428 455,429 455,429 456,429 456,429 456,429 456,428 456,428 456,428 457,429 457,429 457,429 457,429 457,429 457,429 458,429 458,430 458,429 459,430 459,430 459,430 458,430 458,430 458,430 458,431 458,431 458,431 458,431 458,431 458,431 458,431 459,432 459,432 459,432 459,433 459,433 459,433 459,433 459,434 459,434 459,434 460,433 460,433 460,434 460,434 460,434 460,434 460,434 460,435 460,435 461,435 461,435 461,435 461,435 461,435 460,435 460,436 460,436 460,436 460,436 460,437 460,437 461,437 461,437 461,437 462,438 461,438 461,440 461,443 461,443 461,445 461,446 461,449 461,450 461,456 461,456 461,456 460,458 460,461 460,461 459,462 453,468 453,468 453,468 453,469 452,469 452,471 452,471 452,471 451,471 450,472 450,472 449,472 449,473 449,473 449,473 448,472 448,473 448,473 448,474 448,474 447,474 447,474 447,476 447,476 447,478 447,478 447,479 447,479 446,480 446,480 446,480 446,481 445,481 445,482 445,482 445,482 445,482 445,482 445,482 445,482 445,482 445,482 445,483 445,483 444,483 444,483 444,484 444,484 444,485 443,485 443,485 443,485 443,485 442,486 442,486 442,486 442,486 442,486 441,486 441,487 440,487 439,488 439,488 439,488 439,488 439,488 438,488 438,488 438,489 439,489 436,490 436,491 436,491 435,491 435,491 435,491 434,491 434,491 434,491 434,491 434,491 434,491 433,491 433,491 433,491 433,491 433,492 432,492 432,492 432,492 431,492 430,492 429,492 429,492 429,492 428,492 427,492 427,493 426,493 426,493 425,493 425,493 425,493 424,494 423,494 423,494 423,494 423,494 423,494 422,496 421,496 421,496 420,497 420,497 421,497 420,497 418,498 417,498 417,498 417,498 417,499 417,499 417,499 417,500 417,500 417,500 416,500 415,499 415,499 414,499 414,499 414,499 414,499 413,500 413,500 413,500 413,500 413,499 412,500 411,500 411,500 411,500 411,499 411,499 411,499 410,499 410,498 410,498 409,498 409,498 409,498 409,498 408,498 406,498 406,498 405,498 405,498 404,498 404,498 404,498 404,498 404,498 403,497 403,497 403,497 403,497 403,497 402,497 402,497 402,496 402,496 402,496 401,497 401,497 401,497 401,497 401,496 400,496 400,496 400,496 399,495 399,495 399,495 398,495 398,495 398,495 398,495 398,495 398,494 397,494 397,494 397,494 397,494 397,494 397,494 396,494 396,494 395,493 395,493 395,493 395,493 394,493 394,493 393,492 393,492 393,492 392,491 392,491 391,491 391,491 391,491 391,491 391,490 390,490 390,490 390,490 391,490 391,490 391,490 390,489 390,489 389,489 389,489 389,489 388,489 388,488 388,488 388,488 388,488 388,488 388,488 387,488 387,488 387,488 387,488 386,487 386,487 386,487 386,487 386,487 386,487 386,487 386,487 386,487 385,487 385,487 385,487 385,487 385,487 385,487 384,487 384,487 383,486 383,486 383,486 383,485 383,485 383,485 383,485 382,485 382,485 382,485 382,485 382,485 382,484 381,484 381,484 381,484 380,484 380,484 380,484 380,484 380,483 379,483 379,483 379,483 378,482 378,482 378,482 378,482 378,482 377,482 377,482 377,481 377,481 377,481 377,481 377,481 377,481 376,480 376,480 376,480 376,480 376,480 376,480 376,479 376,479 376,479 376,479 376,479 376,479 376,478 375,478 375,478 375,478 375,478 375,478 374,478 374,478 374,478 374,478 373,478 373,478 373,478 372,478 372,477 372,477 372,477 371,477 371,477 371,477 371,477 371,476 370,476 370,476 370,476 370,476 371,476 371,476 370,476 370,476 370,475 371,475 371,475 371,475 371,475 371,474 371,474 371,474 370,474 369,473 369,473 369,473 368,472 368,472 368,472 368,472 367,472 367,472 367,471 367,471 367,471 367,471 366,471 365,470 364,470 364,470 363,469 363,469 362,468 362,468 358,466 358,466 356,463 356,463 353,462 352,462 348,460 347,460 346,460 345,460 341,458 341,458 341,458 334,456 334,456 334,456 334,456 332,455 330,455 330,455 329,455 329,455 329,454 328,454 328,454 328,454 327,454 327,454 326,454 325,454 324,453 323,453 321,453 321,453 320,452 320,452 319,452 319,452 318,451 317,451 317,451 315,449 314,448 314,448 314,448 313,448 313,447 313,447 312,446 312,446 312,445 311,445 311,444 311,443 311,443 311,442 311,442 310,441 310,441 310,441 309,440 309,440 308,439 307,437 307,437 307,437 307,434 307,434 307,434 307,434 307,434 307,434 307,434 307,434 307,434 307,434 307,434 306,433 306,433 306,433 306,433 305,433 305,433 305,433 305,433 305,432 305,432 305,432 305,432 305,431 305,431 305,431 305,430 305,430 305,430 306,430 306,430 306,430 306,430 306,429 306,429 305,429 305,429 305,429 305,429 305,429 305,428 305,428 305,428 305,427 305,426 305,426 304,426 304,426 303,425 303,426 303,426 302,425 301,425 300,425 300,425 299,425 299,425 299,425 299,425 298,426 298,426 297,426 296,427 296,427 296,427 295,427 295,427 295,427 295,427 295,427 295,428 295,428 294,428 294,428 294,428 293,428 293,428 293,428 293,429 293,429 293,429 293,430 293,430 293,430 293,430 292,431 291,431 291,432 290,432 290,432 288,432 286,433 286,433 286,433 285,433 285,433 285,433 284,433 284,433 284,433 284,433 283,433 282,433 281,433 281,433 281,433 280,433 279,433 278,433 277,433 276,433 274,433 273,433 272,432 271,432 270,432 270,432 269,432 268,432 267,432 267,432 266,432 264,431 263,432 263,433 263,433 263,433 262,433 262,433 262,433 262,432 261,432 261,432 260,432 259,432 259,432 258,432 257,432 257,432 256,432 256,432 256,432 255,432 255,431 255,431 255,430 254,429 254,427 253,426 253,426 253,426 253,425 253,424 253,424 253,424 253,424 254,423 254,422 254,422 254,422 255,421 255,421 255,421 254,421 254,420 254,420 254,420 255,420 255,420 255,420 255,419 255,419 255,418 255,418 255,418 255,418 255,417 255,417 254,416 254,416 253,415 253,415 253,415 253,415 253,414 253,414 253,414 253,414 254,413 254,413 254,413 254,413 254,412 252,411 250,411 249,411 248,411 248,411 247,411 246,411 246,411 245,411 245,410 246,409 246,408 245,407 244,406 243,406 242,406 242,406 242,405 241,401 241,400 240,400 238,399 236,399 236,399 236,399 235,399 235,399 235,399 234,398 233,398 233,398 232,398 232,398 231,399 231,399 231,399 231,399 230,399 230,400 229,400 229,400 229,400 229,400 229,400 229,400 229,400 229,400 229,400 228,401 227,402 224,404 222,406 222,406 222,406 222,407 221,407 221,408 220,408 220,408 220,409 219,409 220,410 220,410 220,410 220,410 220,410 220,410 220,411 220,411 220,411 220,411 220,411 220,411 220,411 220,412 220,412 219,412 219,413 218,413 217,412 215,410 214,409 213,409 213,408 212,408 211,408 211,408 209,407 209,407 208,407 206,406 205,405 204,404 203,404 202,403 201,403 200,404 199,404 199,404 198,404 198,404 196,404 195,403 194,403 194,403 194,403 193,403 193,402 193,402 192,402 192,402 191,402 188,402 188,402 187,402 187,402 187,403 187,403 187,404 187,404 187,404 187,404 187,405 187,405 187,406 187,406 187,406 187,407 187,407 187,408 187,408 186,408 185,408 184,408 183,408 182,408 180,407 179,407 178,408 178,408 177,408 177,408 177,409 177,409 176,409 176,410 176,410 176,411 175,411 175,411 175,410 174,410 173,410 173,410 172,410 171,410 171,410 169,411 169,411 169,411 169,410 169,410 168,410 168,410 167,410 167,410 166,410 166,411 166,410 166,410 165,410 164,410 164,410 163,409 163,409 162,409 162,409 161,409 161,409 160,410 160,410 158,411 158,412 157,413 156,414 154,415 152,415 151,416 149,417 148,417 148,417 146,417 146,417 145,419 145,419 145,419 144,419 143,419 143,419 143,419 142,420 141,421 141,422 141,422 141,422 140,422 140,422 140,422 139,422 138,422 136,423 136,424 135,424 134,424 133,424 132,424 131,425 130,425 130,426 130,426 130,427 128,426 127,426 126,425 126,424 124,424 122,424 122,424 122,423 122,423 122,423 122,423 122,423 122,422 122,422 123,422 124,422 125,422 125,421 126,421 126,421 126,421 126,420 126,420 126,420 126,420 126,420 125,420 124,420 123,420 123,420 122,420 122,420 122,420 122,420 122,420 122,419 122,419 122,419 123,418 123,417 123,417 123,417 123,417 123,416 123,416 122,416 122,416 120,416 118,416 118,416 117,416 117,416 117,416 116,415 116,414 116,414 114,414 114,414 113,413 113,413 112,412 112,411 112,411 111,411 111,411 110,411 109,411 108,411 108,410 108,410 108,409 107,409 107,409 107,409 107,409 107,409 107,409 107,408 107,408 107,408 107,408 108,408 108,408 108,408 108,408 108,407 108,407 109,407 109,408 109,408 109,408 110,408 110,408 110,408 110,408 110,408 110,408 110,407 111,407 111,407 111,407 111,407 111,407 111,407 111,407 111,407 112,407 112,407 112,407 112,407 112,407 112,407 112,407 112,407 112,407 113,407 113,406 113,406 114,406 114,406 114,406 114,406 115,405 115,405 115,405 115,405 116,405 116,405 116,405 116,405 116,405 117,405 117,405 117,405 117,405 119,405 119,405 119,405 119,405 119,405 119,405 119,405 119,405 120,405 120,405 120,405 120,405 120,405 120,405 120,405 120,405 120,405 120,404 120,404 120,404 120,404 120,404 120,404 121,404 121,404 121,404 121,404 121,404 121,404 121,404 121,403 122,403 122,403 122,403 123,403 123,403 123,403 123,403 123,403 123,403 123,403 123,403 124,403 124,402 124,402 125,402 125,402 125,402 125,402 125,401 125,401 125,401 125,401 125,401 125,401 125,401 125,401 126,401 126,401 126,400 126,400 126,400 126,400 126,400 126,399 126,399 126,399 127,399 127,399 127,399 127,399 127,399 127,398 127,398 127,398 127,399 127,399 127,399 128,399 128,399 128,399 128,398 128,398 128,398 128,398 129,398 129,398 129,398 129,398 129,398 129,398 129,398 130,397 130,397 131,398 131,398 131,398 132,398 132,398 133,398 133,398 133,397 132,397 132,397 132,397 132,396 132,396 131,395 131,395 131,395 131,395 131,392 130,391 130,391 130,391 130,390 130,390 129,390 129,389 128,389 128,388 128,388 128,388 128,387 128,387 128,387 127,386 127,386 127,386 127,385 127,385 127,385 128,385 128,384 128,384 128,384 128,384 128,384 129,383 129,383 129,383 129,383 129,383 130,382 130,382 130,382 132,381 133,380 133,380 133,380 133,380 133,379 133,379 133,378 133,378 133,376 133,376 132,374 132,373 132,373 132,372 131,371 132,371 132,370 132,369 132,368 131,368 131,368 131,368 131,367 131,367 131,367 131,367 131,366 132,366 132,366 132,367 132,367 133,368 134,368 134,368 135,367 135,367 135,367 135,367 135,367 135,366 134,366 134,366 134,366 134,366 134,366 134,366 134,366 134,365 134,365 134,365 134,365 135,365 135,365 135,365 135,365 135,365 135,365 135,365 135,365 136,365 136,365 136,364 136,364 136,364 136,364 136,364 136,364 136,363 136,363 136,363 136,362 136,362 136,362 136,362 136,362 137,362 137,362 137,362 137,362 137,362 137,362 137,361 136,361 136,361 136,361 136,361 136,361 136,361 136,360 135,360 135,360 135,360 135,360 135,360 135,360 135,360 134,360 134,360 134,360 133,359 133,359 132,359 132,359 132,359 132,359 132,359 132,358 132,358 132,358 132,358 132,358 131,358 131,358 131,358 131,358 131,358 131,358 131,358 130,358 130,358 130,357 130,357 130,357 130,357 130,357 130,357 130,356 129,356 130,356 130,356 130,356 130,355 130,355 130,354 130,354 130,354 130,354 130,354 130,354 130,353 130,353 130,353 130,353 130,352 130,352 130,352 130,351 130,351 129,351 129,350 129,350 129,350 129,350 129,349 129,349 128,349 128,349 128,348 128,348 127,348 127,347 127,347 127,347 127,347 127,347 127,347 127,346 127,346 128,346 128,345 128,345 129,345 129,345 129,344 129,344 128,343 128,342 128,342 129,341 129,340 130,340 129,340 129,340 128,339 128,339 127,339 127,339 125,338 124,338 124,338 124,338 123,338 123,337 121,335 121,335 120,333 119,333 119,333 119,333 119,333 118,333 118,333 117,331 116,330 116,330 116,330 116,329 115,329 115,329 115,329 115,328 115,328 115,328 115,328 114,328 114,327 114,327 114,327 114,327 114,327 114,326 113,326 113,325 113,325 113,325 113,324 112,323 112,323 112,322 112,322 112,322 112,321 113,321 113,321 113,320 113,320 113,320 114,319 115,318 115,318 115,318 115,318 115,318 116,318 116,318 116,318 117,318 117,319 117,319 118,318 118,318 118,318 118,318 118,318 118,318 119,318 119,318 119,317 119,317 119,317 119,316 119,316 119,316 119,316 120,316 121,316 121,316 121,316 121,316 121,316 121,315 121,315 122,314 122,314 122,314 123,315 123,315 123,315 123,316 124,316 124,317 124,317 124,317 124,317 125,317 125,317 125,316 126,316 126,316 127,316 127,316 127,317 127,317 127,317 128,317 129,317 130,317 130,318 130,318 130,318 130,318 130,319 130,319 130,319 130,320 130,320 130,320 131,320 131,320 131,320 131,320 132,320 133,320 134,321 134,321 135,321 135,321 135,321 136,321 136,321 136,320 136,320 136,319 136,319 136,319 136,319 137,319 137,319 137,319 138,319 139,319 140,319 142,319 142,319 143,319 143,319 143,319 143,319 143,318 144,318 144,318 144,318 144,318 145,318 145,318 145,318 146,319 146,319 147,319 147,319 147,319 147,318 146,318 146,318 146,318 146,317 146,317 145,316 145,316 145,316 145,316 145,315 145,315 144,315 144,314 144,314 143,314 143,314 143,314 144,313 144,313 144,313 144,313 144,313 144,313 144,313 145,312 146,312 146,312 146,312 146,312 146,312 147,312 147,311 147,311 147,311 147,311 148,311 148,311 148,310 149,310 149,310 149,309 149,309 150,309 150,309 151,308 152,308 153,307 153,307 154,306 154,305 154,305 154,305 154,305 154,305 154,305 154,305 153,305 153,305 153,304 153,304 152,304 152,304 152,304 152,304 152,304 151,304 151,304 151,304 151,303 151,303 151,303 151,303 150,303 150,303 150,303 150,303 150,303 150,303 150,303 150,303 150,303 149,303 149,303 149,303 149,303 149,302 149,302 149,302 149,302 149,302 149,302 149,302 149,302 148,302 148,302 148,302 148,302 148,302 148,302 148,302 148,302 148,302 148,302 148,302 148,302 148,302 148,301 148,301 148,301 148,301 148,301 148,301 148,301 148,301 148,301 147,301 147,301 147,301 147,301 147,300 147,300 147,300 147,300 147,300 147,300 147,300 147,300 147,300 146,300 146,300 146,300 146,300 146,300 146,299 145,299 145,299 145,299 145,299 144,299 144,299 144,299 144,299 144,299 144,299 144,299 144,299 144,299 143,299 143,298 143,298 143,298 143,298 142,298 142,298 142,298 142,298 142,298 142,298 142,298 142,298 142,298 142,298 141,297 141,297 140,296 139,295 139,294 139,294 139,294 139,294 139,294 139,294 139,294 139,294 139,294 139,294 139,294 139,294 139,294 139,294 139,294 138,294 138,294 138,294 138,293 137,292 137,292 137,292 136,292 136,292 135,291 135,291 135,291 134,291 133,291 133,290 132,290 132,290 131,290 131,290 131,290 130,289 130,289 130,289 130,289 129,289 129,289 129,288 128,288 128,288 128,288 127,288 126,288 126,287 125,287 125,287 125,287 124,286 124,286 123,286 123,286 123,286 122,286 122,285 122,285 121,285 121,285 121,285 121,285 119,285 117,285 117,285 115,286 114,286 112,286 111,286 110,285 107,284 107,284 106,283 106,283 107,283 107,282 108,282 108,281 109,281 109,280 109,280 110,280 110,280 110,279 111,279 111,278 111,278 111,278 112,277 112,277 113,277 113,277 113,276 113,276 113,276 114,275 115,275 115,275 115,275 115,275 115,275 115,275 116,274 116,274 116,274 116,274 116,274 116,274 116,274 116,274 116,274 116,273 116,273 116,273 116,273 115,273 115,273 115,273 115,272 115,272 115,272 115,272 115,272 116,272 116,272 116,271 117,271 117,271 118,270 119,270 119,270 120,270 120,270 120,270 120,270 120,270 120,269 120,269 120,269 120,269 120,269 120,268 120,268 120,268 121,268 121,267 121,267 121,267 121,266 121,266 121,266 121,266 121,266 121,265 121,265 121,264 120,264 120,263 120,263 120,263 120,263 120,263 120,262 120,262 120,262 120,262 120,262 120,262 120,262 120,262 120,262 119,262 119,262 119,262 118,262 118,261 118,261 118,261 118,261 117,261 117,260 116,260 116,260 116,260 116,260 116,259 116,259 116,259 116,259 116,258 116,258 116,257 116,257 116,257 116,257 115,256 115,256 115,256 115,256 115,256 115,256 115,256 115,255 115,255 115,255 115,255 115,254 115,254 115,254 114,253 114,253 114,253 114,253 113,252 112,252 112,252 112,252 112,251 112,251 112,251 112,251 112,251 112,251 112,251 112,250 111,250 111,250 111,250 111,250 111,250 111,250 110,250 110,249 110,249 110,249 110,249 110,249 110,249 110,249 110,249 110,248 110,248 110,248 110,248 110,248 110,248 110,248 110,248 109,248 109,248 109,248 109,248 109,247 109,247 109,247 109,247 109,247 109,247 109,247 109,247 108,247 108,247 108,247 108,247 107,248 107,248 107,248 106,248 106,248 106,249 106,249 106,249 106,249 106,250 105,250 105,250 105,250 105,250 105,250 104,250 104,250 104,250 104,250 104,250 104,250 103,249 103,248 103,248 103,248 103,248 103,248 103,248 102,247 102,247 102,247 102,247 102,247 101,246 100,246 99,246 99,246 99,246 98,246 98,246 97,246 97,246 97,246 97,247 97,247 97,247 97,247 97,247 97,248 97,248 97,248 96,248 96,249 96,249 96,249 96,249 95,249 95,249 95,249 95,248 94,248 94,248 94,248 94,247 94,247 94,247 93,247 92,247 92,247 92,247 91,247 91,247 90,247 90,247 89,247 89,247 89,247 89,247 89,247 88,247 88,247 87,246 87,246 87,246 87,246 87,245 86,245 86,245 86,245 86,245 87,244 87,244 87,244 87,244 87,244 87,243 87,243 87,243 87,243 87,242 88,242 88,241 87,241 87,241 87,241 87,241 87,241 86,241 86,241 86,241 86,241 86,241 85,241 85,241 85,241 84,242 84,242 84,242 84,242 84,242 84,242 84,242 83,242 83,241 83,241 83,241 83,241 82,241 82,241 82,241 82,241 82,241 82,241 81,240 81,240 81,240 81,240 81,240 81,240 81,240 81,240 80,240 80,240 79,240 79,240 79,240 79,240 78,240 78,240 78,240 78,240 78,240 78,240 77,240 77,240 77,240 77,239 77,239 77,239 77,239 77,238 77,238 78,237 78,237 78,237 78,237 78,236 78,236 78,236 78,236 78,236 78,235 78,235 78,235 78,235 78,235 78,235 77,235 76,235 76,235 76,235 75,235 75,235 74,235 73,235 73,235 72,235 72,235 72,235 72,234 72,234 72,234 71,234 71,234 71,234 71,234 71,233 71,233 71,233 71,233 71,233 71,233 71,233 71,233 71,233 71,233 71,232 70,232 70,232 70,232 69,232 69,232 69,232 69,232 69,232 68,232 68,232 67,233 67,233 66,233 66,233 65,233 65,233 65,233 65,233 64,233 64,233 64,233 64,233 64,233 63,232 63,232 63,232 63,232 62,232 62,232 62,232 62,231 62,231 62,231 62,231 62,230 61,230 61,230 61,230 61,230 61,229 60,229 60,229 60,229 59,229 59,228 58,228 58,228 57,229 56,228 56,228 55,228 55,228 54,228 54,228 54,227 54,227 53,226 53,226 53,225 53,225 53,225 53,224 53,224 53,224 53,224 53,223 53,222 53,222 53,222 53,221 53,221 53,220 53,220 53,220 53,219 52,219 52,219 52,218 51,218 51,218 50,218 50,218 50,218 49,218 49,218 48,218 48,218 47,218 47,217 46,217 46,217 46,217 46,217 46,216 46,216 46,216 46,215 46,215 46,214 46,213 46,213 46,213 46,213 45,212 45,212 45,212 45,212 44,212 43,212 43,212 43,211 42,211 42,211 42,211 42,211 42,211 41,211 41,211 41,211 40,210 40,210 39,208 39,207 38,206 38,205 38,205 38,204 37,202 37,202 37,202 37,201 38,201 38,201 39,201 40,201 40,200 39,200 39,200 39,199 39,198 39,197 39,197 39,197 39,196 39,196 38,196 36,195 36,195 35,195 35,194 35,194 35,194 35,193 36,193 37,192 38,191 39,191 39,191 39,190 39,190 39,190 38,189 38,189 37,188 36,187 36,187 36,187 36,187 36,186 36,186 37,185 39,184 39,184 39,183 38,183 38,183 37,182 36,182 35,182 35,182 35,182 35,181 35,181 35,181 35,180 36,179 36,179 37,179 38,179 38,179 38,179 39,179 39,179 39,179 39,178 38,177 38,176 38,176 37,176 37,175 37,175 38,175 39,174 39,174 40,174 41,173 41,173 41,173 41,173 41,172 40,172 40,172 39,171 38,171 38,171 37,169 37,169 37,169 37,169 37,168 37,168 37,168 38,168 40,167 41,167 41,167 41,167 41,166 41,166 41,166 41,166 40,165 39,165 37,163 36,162 36,162 36,161 35,161 35,161 34,160 34,160 34,160 34,160 34,159 34,158 34,158 34,158 34,157 34,157 35,157 35,156 35,156 34,156 34,156 34,155 33,154 32,152 31,151 31,150 31,150 30,149 30,149 29,149 26,149 26,149 26,149 24,149 24,148 24,148 24,148 24,148 24,148 24,148 24,148 25,147 25,147 27,147 27,147 27,147 27,146 28,146 28,145 28,145 28,145 28,144 28,143 28,143 28,142 27,142 27,142 27,141 28,141 28,140 28,140 28,140 27,140 27,140 27,139 26,139 25,139 23,139 23,139 23,139 22,138 22,138 21,137 21,137 19,136 19,135 18,135 17,135 17,135 17,135 16,134 16,134 16,134 17,134 17,134 17,133 18,133 18,133 18,133 18,133 18,133 18,133 18,133 18,132 18,132 17,132 17,132 16,132 16,132 15,131 15,131 15,131 15,131 15,131 15,130 15,130 15,130 17,130 17,130 17,129 17,129 16,129 16,128 15,127 15,126 15,125 14,125 14,124 14,124 12,123 11,123 10,122 10,122 9,121 9,120 9,120 9,119 9,119 9,119 8,119 7,118 7,118 6,118 6,118 6,118 6,118 6,118 7,118 8,118 9,118 10,118 10,118 10,118 10,118 9,118 9,118 9,117 9,116 10,116 10,116 10,116 10,115 10,115 9,115 9,114 8,114 8,113 8,113 8,112 8,112 7,112 6,111 6,111 6,111 5,110 5,110 5,109 5,109 5,108 5,107 5,107 5,107 4,106 4,106 3,105 3,105 3,105 3,104 3,104 4,103 4,103 4,103 3,103 3,103 2,102 2,102 1,101 0,101 0,100 0,100 0,100 0,100 1,98 1,98 1,98 2,97 2,97 2,97" id="716" class="canton" fill="steelblue" stroke-width="1" stroke="white" geotype="canton" geoname="Vans" code_insee="716" code_departement="7" nom_departement="Ardèche" code_region="84" nom_region="Auvergne-Rhône-Alpes"/></svg>