<?xml version="1.0" encoding="utf-8"?>
<svg version="1.1" id="svgmap" xmlns="http://www.w3.org/2000/svg" xmlns:xlink="http://www.w3.org/1999/xlink" x="0px" y="0px" width="100%" height="100%" viewBox="0 0 500 383">
<polygon points="5,361 8,362 8,361 9,360 10,359 10,360 14,360 16,359 17,358 21,356 23,356 23,355 24,354 25,353 27,352 28,351 34,349 37,350 39,349 39,347 40,346 40,346 41,345 45,344 46,343 47,343 50,340 52,339 53,339 55,338 59,337 62,336 64,335 67,335 68,334 71,334 73,333 75,332 76,331 76,331 78,331 79,330 80,330 84,329 86,328 87,327 88,326 90,325 91,325 93,324 96,322 97,322 99,320 99,320 101,319 102,318 103,317 104,316 105,316 106,316 106,316 106,316 106,316 111,315 111,315 114,314 119,314 119,314 124,313 128,312 128,312 132,309 135,308 137,307 139,305 140,305 142,304 142,302 141,301 141,300 139,299 137,297 138,297 136,296 135,295 135,294 134,292 132,291 131,291 130,290 128,289 127,288 126,288 123,287 121,286 121,286 120,285 119,284 119,284 120,282 120,281 120,280 120,279 120,278 120,276 121,276 121,275 122,273 122,272 123,270 124,268 125,267 126,266 126,266 128,264 128,264 129,264 130,264 131,263 134,262 137,261 139,260 143,259 145,259 149,259 153,259 157,258 160,258 163,257 168,254 171,252 173,250 174,250 180,245 182,244 182,244 184,242 187,241 188,240 189,238 188,237 189,237 187,234 185,232 187,231 188,231 189,231 194,230 196,229 198,229 199,229 200,226 199,225 199,224 199,223 198,219 203,217 203,215 202,215 197,212 196,211 189,207 189,205 189,204 189,204 189,203 189,203 190,203 190,203 189,203 189,202 190,202 191,203 191,203 189,200 190,200 186,197 186,196 187,195 187,194 188,194 187,191 184,188 179,183 180,183 181,183 183,182 184,181 186,180 187,179 187,179 186,178 183,178 180,176 178,176 179,175 178,175 178,174 177,174 176,174 174,173 173,173 173,173 169,170 170,169 169,169 167,168 166,168 166,165 164,165 163,165 162,166 161,164 157,165 157,164 157,163 157,162 155,163 154,163 154,163 153,164 152,164 151,164 148,161 143,163 141,163 144,165 140,168 137,166 134,167 133,167 129,167 124,167 122,167 123,166 123,165 123,164 123,164 123,163 122,163 122,162 122,162 121,161 120,160 118,158 117,158 112,153 108,148 108,148 108,147 104,143 106,142 103,138 103,137 103,137 102,136 103,135 103,134 102,134 101,133 100,133 99,132 98,130 96,130 95,131 92,131 91,131 86,131 85,128 84,127 84,128 83,128 83,128 82,128 85,126 86,125 89,122 93,119 97,116 97,116 99,113 100,111 103,109 103,108 103,109 103,109 104,109 104,109 105,108 105,108 105,108 106,109 106,109 105,109 106,110 106,110 106,110 107,110 107,110 108,110 108,110 108,110 108,110 108,110 108,110 108,111 108,111 109,111 109,111 110,110 111,110 111,110 110,109 109,109 109,109 108,109 109,109 109,108 111,108 111,108 111,107 118,100 116,100 116,100 113,99 114,98 110,97 111,95 107,94 105,94 102,93 101,94 100,92 100,92 99,92 99,92 98,92 98,92 98,91 98,91 98,91 97,91 97,91 97,90 97,90 96,90 96,90 96,89 96,89 95,89 95,89 94,89 94,89 94,90 94,90 92,90 92,90 92,90 91,90 91,90 90,91 90,90 90,90 90,90 90,90 89,90 89,89 89,89 89,89 89,89 89,88 89,87 89,87 90,87 90,86 91,86 91,85 91,85 90,85 90,85 90,85 91,85 91,85 91,85 92,85 92,84 92,84 92,84 92,84 93,83 92,83 93,82 93,82 92,82 92,82 92,82 93,82 93,81 93,81 92,81 92,81 92,81 92,81 93,81 92,81 92,80 92,80 92,80 93,80 93,79 93,79 92,79 92,78 92,78 92,78 92,77 92,77 92,77 93,77 93,77 93,77 93,77 93,76 92,76 92,76 92,76 92,76 92,76 91,76 91,75 91,75 91,75 90,75 90,75 90,74 90,74 89,74 89,74 89,74 89,73 88,73 88,73 88,73 88,73 88,73 87,73 87,73 88,72 91,70 92,66 95,63 96,62 96,61 93,58 97,55 93,52 92,53 90,52 93,49 90,46 86,45 87,44 87,44 88,43 89,42 93,43 97,40 94,39 99,35 98,34 97,34 100,34 99,32 98,31 91,30 90,29 90,28 91,28 91,25 91,24 91,20 89,20 87,19 89,15 90,15 92,14 93,14 94,13 95,12 95,10 96,9 96,9 96,9 97,8 98,7 99,6 100,5 100,4 101,4 101,3 101,2 101,1 102,0 103,0 103,1 106,2 108,3 110,4 112,5 111,6 110,7 109,6 108,8 107,9 107,9 108,10 109,11 110,11 111,12 112,11 113,10 114,12 115,11 116,10 117,10 118,9 118,9 118,9 118,9 119,8 120,7 121,7 122,6 122,5 123,3 125,4 125,4 126,5 126,5 127,5 128,5 129,4 129,4 130,3 131,3 134,4 134,3 136,1 137,0 139,1 136,5 131,9 135,10 134,12 137,13 135,17 143,19 143,19 153,23 155,23 154,24 158,25 155,28 163,30 164,32 164,34 165,34 169,30 171,29 173,32 173,32 178,31 178,31 179,31 179,31 179,32 179,32 179,32 181,33 180,33 183,34 183,35 183,35 183,36 183,36 184,35 184,35 184,35 185,35 185,35 185,34 186,34 186,34 187,33 188,33 188,33 190,32 191,31 192,31 194,30 194,30 195,30 196,30 195,31 196,31 196,31 196,31 197,31 197,31 198,31 198,31 198,31 198,31 198,31 199,31 199,31 199,31 200,32 200,31 201,31 201,31 201,31 202,31 202,31 203,31 203,31 203,32 204,32 204,31 204,31 204,31 205,31 205,31 206,31 206,31 206,31 206,30 206,30 206,30 206,30 207,30 206,29 207,29 207,29 206,28 206,28 207,28 207,28 207,28 207,28 207,28 207,27 207,27 207,27 207,27 208,26 208,26 208,26 208,26 208,25 208,25 208,25 208,25 209,24 209,24 209,24 209,23 209,23 209,23 210,23 210,22 211,22 211,22 211,21 211,21 211,20 212,20 212,19 212,19 212,19 212,19 212,19 212,18 213,18 213,17 212,17 212,16 213,16 213,16 213,15 213,15 214,15 213,15 213,14 214,14 214,14 214,14 214,14 215,14 215,14 215,13 215,13 216,13 216,13 216,13 216,13 216,12 216,12 216,12 217,12 217,12 217,12 218,12 218,11 219,10 219,10 219,9 220,9 221,10 221,11 223,12 224,12 224,13 224,13 225,14 226,16 227,15 236,22 229,25 232,26 234,27 237,29 237,29 237,29 237,29 237,29 237,29 239,30 239,31 239,31 242,32 242,32 241,33 241,33 242,33 247,34 247,34 250,31 250,30 251,31 251,31 255,32 256,33 257,33 258,33 260,33 260,33 260,33 260,33 260,33 261,32 263,31 263,31 263,31 264,33 264,34 263,35 264,35 264,35 266,36 266,36 266,36 266,37 266,38 266,39 266,40 266,40 266,40 266,41 266,42 266,42 266,42 267,43 267,44 267,45 268,45 270,47 270,47 270,47 271,47 270,51 270,51 270,51 271,51 271,51 271,51 271,52 271,52 271,52 271,52 271,53 270,55 269,55 269,55 269,55 266,59 266,59 266,59 265,60 265,60 265,61 264,61 264,61 264,61 264,61 264,62 264,62 264,62 264,62 264,62 264,62 264,63 264,63 263,64 263,64 263,64 264,64 264,65 264,65 265,65 265,65 265,66 265,66 265,66 265,67 265,67 265,68 265,68 265,69 265,69 265,69 265,69 266,69 266,70 266,70 266,70 267,70 267,71 267,71 267,71 268,71 268,71 268,72 268,72 268,72 269,72 269,72 269,73 269,73 269,74 269,76 270,77 270,77 270,78 272,79 274,81 274,81 275,82 275,82 275,82 276,82 276,82 276,83 276,83 276,83 276,83 276,83 276,84 276,84 276,85 276,85 276,86 276,86 276,86 276,86 275,86 275,87 275,87 274,87 274,88 274,89 273,89 273,90 273,90 273,90 273,90 273,90 273,90 272,90 272,91 272,91 271,92 271,92 271,92 271,92 271,92 271,92 271,92 271,93 271,93 271,93 271,93 271,94 271,94 271,94 270,94 270,95 269,95 269,94 268,94 268,94 268,94 268,94 268,95 268,95 268,95 267,96 267,96 267,96 266,96 266,96 266,96 266,97 266,97 267,97 267,97 267,97 270,97 270,98 270,98 271,101 276,118 276,118 277,119 277,119 277,119 277,119 277,119 277,120 277,120 277,120 278,120 278,120 278,121 278,121 278,121 279,121 278,122 278,123 278,123 278,124 278,124 278,125 278,125 277,126 277,126 276,127 275,129 275,129 272,131 272,131 268,129 267,129 260,126 260,126 259,127 258,129 258,129 258,129 258,129 256,131 256,131 256,131 256,131 256,132 252,140 252,140 253,140 253,140 253,140 253,141 253,141 253,142 252,142 251,143 251,143 251,143 250,144 250,144 251,145 251,145 252,146 252,146 253,146 253,146 253,146 253,146 254,146 254,147 254,147 254,147 254,147 254,147 254,147 254,146 254,146 254,145 254,144 255,144 255,144 255,144 256,144 256,144 256,145 257,145 257,146 258,146 258,147 259,147 260,147 260,147 261,147 262,147 264,147 265,147 268,147 269,147 270,147 270,147 270,147 271,147 271,146 273,145 273,144 273,144 274,143 274,143 276,143 277,143 278,143 279,143 280,143 281,143 282,143 283,144 284,144 285,144 285,144 286,143 288,142 288,142 290,141 291,138 293,136 293,136 300,130 306,125 306,125 304,125 304,125 305,124 305,124 312,123 323,119 323,119 324,120 324,120 324,120 324,120 325,121 326,121 329,119 329,119 329,120 331,119 331,119 332,117 332,117 332,116 332,116 332,116 336,114 337,114 342,114 342,115 342,115 342,115 344,116 345,116 346,116 349,116 349,116 349,118 349,118 349,119 349,119 349,119 349,120 350,120 350,121 351,121 354,123 355,123 356,124 359,125 359,125 362,127 363,128 364,128 366,129 366,129 367,130 368,130 368,130 369,130 369,131 370,131 371,132 372,132 373,133 375,134 377,134 377,135 377,135 377,135 378,135 379,135 381,135 381,135 381,135 381,135 382,136 382,136 382,139 382,139 382,139 385,140 389,142 390,143 394,146 395,146 396,146 396,146 395,147 395,147 396,147 397,148 398,148 398,148 399,148 399,149 405,151 406,152 407,153 408,154 409,154 409,155 408,155 408,156 408,156 406,158 406,158 404,160 403,160 403,160 403,161 401,162 403,164 409,168 413,171 415,174 416,177 416,181 418,184 426,186 439,190 444,191 453,190 456,187 456,186 456,185 456,185 455,184 454,182 454,182 455,181 455,181 456,182 457,183 458,183 460,184 461,185 462,186 463,186 464,187 465,187 467,187 469,188 471,188 473,188 474,188 474,188 475,188 475,188 476,188 476,188 477,188 478,188 479,188 479,188 480,188 480,189 481,189 482,189 482,189 482,189 483,189 484,190 484,190 485,190 485,190 486,191 486,191 487,191 487,191 487,192 488,192 488,192 488,192 488,193 489,193 489,193 489,194 489,194 490,194 490,195 490,195 491,196 491,197 492,200 493,201 494,202 496,206 498,210 498,210 499,212 499,213 499,213 500,214 500,214 500,214 500,215 500,215 500,217 494,216 488,216 488,217 487,217 485,217 484,218 484,218 483,219 482,221 481,224 480,224 478,224 477,224 476,223 473,223 467,222 465,222 464,221 464,221 463,222 461,222 459,222 455,223 453,223 452,223 450,223 449,223 449,223 447,223 445,222 443,222 441,222 436,221 435,221 434,221 432,221 431,221 431,221 428,221 427,221 426,221 426,221 425,221 425,221 423,222 423,221 423,221 422,222 422,222 421,222 421,222 420,222 419,222 418,222 417,222 417,222 416,222 415,222 414,222 414,222 414,222 414,222 414,222 413,223 413,223 413,223 412,223 412,224 412,224 415,227 415,228 416,229 416,229 416,229 416,230 416,230 415,232 414,233 414,234 413,234 413,235 413,236 413,237 413,237 414,238 414,238 414,238 412,238 412,238 413,239 413,239 413,239 413,240 412,240 412,241 412,241 411,241 411,242 411,242 411,242 412,243 412,244 412,244 411,247 410,249 410,249 410,250 410,250 413,254 413,255 413,255 413,259 412,262 412,262 413,264 413,264 412,265 407,275 406,276 406,276 404,278 402,280 399,282 399,283 395,287 394,289 394,289 394,289 394,289 393,290 392,290 392,290 390,289 389,288 389,288 388,288 387,287 386,287 386,286 385,286 385,286 384,286 383,286 379,284 379,284 379,284 378,283 377,283 377,282 376,282 376,281 375,281 375,281 375,280 375,280 375,279 374,279 373,278 373,278 373,278 373,278 373,278 373,278 373,277 373,277 373,277 373,277 373,277 373,277 373,277 373,277 373,277 374,277 373,276 373,276 373,276 373,276 373,276 373,276 373,276 373,276 373,276 373,276 373,276 373,275 374,275 374,275 374,275 373,275 373,275 373,275 373,274 373,274 373,274 374,273 374,273 374,272 372,270 372,270 371,269 371,269 371,268 370,268 370,268 369,268 368,269 368,269 368,269 367,269 367,269 366,269 366,269 366,269 366,269 366,270 365,270 365,270 365,270 365,269 364,269 364,269 364,269 364,269 364,269 364,269 363,269 363,269 363,269 362,269 362,269 361,269 361,269 360,269 360,269 360,269 359,269 358,268 358,268 355,266 355,266 354,266 354,266 354,266 354,266 353,265 353,265 353,266 353,266 353,266 351,265 351,265 350,265 345,264 345,264 344,264 343,264 340,263 340,263 340,263 340,263 338,262 338,262 336,262 336,261 335,261 330,261 330,261 330,261 329,261 329,262 329,262 327,264 327,264 327,264 327,264 326,264 321,261 317,258 316,256 314,255 313,255 311,252 311,252 309,250 308,250 295,238 295,238 294,238 294,238 293,238 293,238 292,239 292,239 291,239 291,239 290,239 290,240 290,240 289,240 289,240 290,240 290,240 289,241 289,241 289,241 289,241 288,241 288,241 288,242 287,242 286,242 286,242 285,243 285,243 285,243 284,243 284,243 284,243 284,243 284,243 284,244 283,243 283,244 282,245 282,245 282,245 282,245 282,245 281,245 281,245 280,245 280,245 279,246 279,246 278,247 278,247 278,247 278,247 279,247 279,247 279,247 279,247 279,248 279,248 279,248 279,248 279,248 279,249 279,249 279,249 278,248 278,248 278,249 278,249 278,249 278,249 278,249 278,249 278,250 278,250 278,250 278,250 278,250 277,250 277,250 277,251 277,252 277,252 276,251 276,251 276,252 276,252 276,252 276,252 276,252 276,252 276,252 276,253 276,253 275,253 275,253 275,253 275,253 275,252 275,252 274,252 274,252 274,252 274,252 274,252 274,252 274,252 274,252 274,252 273,253 273,253 272,252 272,253 272,253 272,253 271,253 271,253 271,253 271,253 271,253 271,254 270,254 270,254 270,254 270,254 271,254 271,254 271,254 271,254 270,254 270,254 270,255 270,255 270,255 270,255 269,255 269,255 269,255 269,255 269,256 267,257 267,257 267,257 268,257 267,257 267,258 267,258 267,258 266,259 266,259 266,259 267,260 266,260 266,260 266,260 266,260 266,260 266,260 265,260 265,260 264,260 264,260 264,260 263,260 263,260 263,260 263,260 263,260 263,260 262,261 262,261 262,260 262,260 262,260 262,260 261,260 261,260 261,260 261,260 260,261 260,261 260,261 260,261 260,261 260,260 260,260 259,261 259,261 259,261 259,261 260,261 260,261 260,261 260,261 259,261 259,261 259,261 259,262 259,262 258,262 257,262 257,262 257,262 257,262 256,262 256,262 256,262 255,262 255,262 255,262 255,262 254,262 252,263 252,263 251,264 250,264 250,264 249,264 248,264 247,264 246,264 245,264 245,264 245,264 244,264 244,264 244,264 244,265 244,265 244,265 244,265 240,279 240,279 238,283 235,288 234,288 230,293 229,294 229,294 225,297 225,297 217,305 217,304 217,303 217,302 217,301 215,302 213,303 212,304 211,305 210,305 209,306 209,306 209,307 209,307 209,307 207,307 206,307 203,307 199,306 198,306 197,306 196,307 196,308 196,309 194,310 195,311 194,311 192,313 189,314 188,315 186,316 186,317 185,317 185,319 184,320 183,320 183,321 175,317 174,317 174,317 173,317 172,318 169,319 168,320 163,322 161,322 160,323 158,323 157,324 156,325 156,325 154,325 153,325 152,325 152,325 149,324 147,324 146,324 142,323 139,322 135,322 134,321 133,321 129,321 123,323 119,324 115,325 112,326 110,327 109,328 107,329 106,330 104,331 102,334 100,336 96,338 91,342 88,344 85,346 84,347 83,348 82,349 82,353 82,354 78,360 77,361 77,362 75,364 73,367 73,368 71,369 70,370 68,372 66,372 65,373 63,373 63,373 62,373 58,373 53,373 47,374 42,375 38,376 34,378 18,383 4,376 0,376 0,371 5,361" id="804" class="canton" fill="steelblue" stroke-width="1" stroke="white" geotype="canton" geoname="Charleville-Mézières-1" code_insee="804" code_departement="8" nom_departement="Ardennes" code_region="44" nom_region="Grand-Est"/></svg>