<?xml version="1.0" encoding="utf-8"?>
<svg version="1.1" id="svgmap" xmlns="http://www.w3.org/2000/svg" xmlns:xlink="http://www.w3.org/1999/xlink" x="0px" y="0px" width="100%" height="100%" viewBox="0 0 500 260">
<polygon points="38,65 39,65 39,65 40,65 40,65 40,65 40,65 40,65 40,66 40,65 40,65 40,65 41,65 41,65 41,65 41,65 41,65 42,65 42,65 42,65 42,65 42,65 42,65 43,65 43,65 43,65 43,64 43,64 43,64 43,64 43,64 43,64 43,64 43,64 44,64 44,64 44,64 44,64 44,63 44,63 44,63 45,63 45,63 45,63 45,63 45,63 45,63 45,63 45,62 45,62 45,62 45,62 45,62 45,62 45,62 45,62 45,62 45,62 45,62 45,62 45,62 45,62 45,61 45,61 45,61 45,60 45,60 46,60 46,60 46,59 46,59 46,59 46,59 45,59 45,59 45,58 45,58 45,58 45,58 44,57 44,57 44,56 44,56 44,56 45,55 47,55 48,53 48,53 49,51 49,51 49,50 49,50 49,50 49,50 48,50 48,49 48,48 47,47 47,47 47,45 48,44 49,44 49,44 49,44 50,44 50,44 50,44 51,44 51,44 51,44 51,44 51,44 51,44 52,44 52,43 52,43 53,43 54,42 54,42 55,41 55,41 55,41 56,41 56,41 56,41 57,41 57,41 57,41 57,41 57,41 57,41 57,41 58,41 58,41 59,41 62,40 62,39 64,39 64,39 64,39 64,40 64,40 64,40 65,40 66,40 67,41 70,41 72,41 73,41 74,41 74,41 74,40 74,40 74,40 74,39 74,39 73,39 73,39 73,38 73,38 73,38 73,37 73,37 73,37 73,36 74,36 74,36 74,36 74,36 74,35 74,35 73,35 73,35 73,35 73,34 73,34 73,34 74,34 74,34 75,33 75,33 75,33 72,32 72,32 71,32 70,32 71,32 71,31 72,30 72,30 72,30 73,30 73,30 74,30 74,30 74,29 74,28 74,28 74,28 75,28 75,28 75,28 75,28 75,28 76,28 77,27 77,27 78,27 78,27 79,27 79,27 80,27 80,27 82,27 82,27 82,27 82,27 82,27 84,29 84,30 84,30 84,30 85,30 86,31 87,31 88,31 88,32 88,32 88,32 89,32 89,32 89,33 89,33 90,33 90,33 90,33 90,33 90,33 91,33 91,33 91,33 91,33 91,33 91,34 91,34 91,34 91,34 92,35 92,35 92,35 93,35 93,36 93,36 93,36 93,36 93,36 93,38 93,38 93,38 94,38 95,37 96,37 96,37 96,37 96,37 97,37 97,37 97,36 97,36 99,36 99,36 100,36 100,36 100,36 100,36 101,36 102,35 102,35 103,37 103,37 103,37 110,35 110,35 110,35 110,35 110,35 110,35 111,35 110,36 110,36 110,36 110,36 110,36 109,36 109,36 109,36 108,37 108,37 108,37 108,38 108,38 107,38 107,38 107,38 107,39 107,39 107,39 107,39 107,40 107,40 107,41 108,41 108,42 108,42 108,42 108,42 108,42 109,42 109,43 109,43 109,43 109,43 108,43 108,43 108,43 109,43 109,43 109,43 110,44 110,44 110,44 109,44 109,44 109,44 110,45 110,45 110,45 110,45 110,45 110,46 110,46 110,46 110,46 109,48 109,49 109,49 109,50 109,50 109,50 109,50 109,50 108,50 108,50 109,51 109,52 109,52 109,52 109,53 109,53 109,53 109,53 110,53 110,54 111,53 111,53 112,53 113,53 113,53 114,53 115,52 119,52 119,52 120,52 121,52 121,52 122,52 123,52 123,52 123,52 123,52 124,52 125,52 125,52 125,52 126,52 126,52 126,52 127,52 127,52 127,52 127,53 127,53 127,53 127,54 127,54 126,54 126,55 126,55 126,55 126,55 126,55 126,56 126,56 126,56 127,56 127,56 127,57 128,57 128,57 129,57 130,58 130,58 130,58 130,58 131,58 131,58 131,59 131,59 132,59 132,59 132,59 133,59 133,59 133,59 134,59 135,59 136,59 136,59 136,59 136,59 136,59 136,59 136,59 136,59 136,59 137,59 137,59 137,59 138,59 138,59 138,59 138,60 138,60 138,60 138,60 138,61 138,61 138,61 138,61 138,61 139,61 140,62 140,62 141,62 141,62 142,62 142,62 143,62 144,62 144,63 145,63 145,63 146,63 146,63 146,63 147,63 147,63 147,63 148,64 149,64 150,64 152,65 152,65 152,65 152,65 153,65 153,65 153,65 153,65 153,65 153,65 153,65 152,64 152,64 152,64 152,64 152,64 152,64 152,64 152,63 153,63 153,63 153,63 153,63 153,63 153,63 154,63 154,63 154,63 154,63 154,63 154,63 154,64 154,64 155,65 155,65 155,65 155,65 156,65 156,66 157,66 157,66 158,66 158,66 158,66 158,67 159,66 159,66 160,66 160,66 161,66 162,66 162,66 162,66 163,66 163,67 163,67 163,68 164,68 164,68 165,68 165,68 165,68 165,68 165,68 165,68 165,67 165,67 165,67 165,66 166,66 166,66 166,65 167,65 167,65 167,65 168,65 168,65 168,65 169,64 169,64 169,63 170,64 170,64 170,64 172,61 172,61 172,61 172,61 173,60 174,59 175,58 175,58 176,56 177,56 176,56 176,56 176,56 176,56 175,56 173,56 173,56 172,56 172,56 172,56 172,56 171,56 171,56 170,56 169,56 168,56 168,56 168,56 167,55 167,55 165,55 165,55 163,55 163,54 161,54 160,54 160,54 160,54 161,53 162,52 162,52 162,52 162,52 163,50 165,49 166,48 166,48 166,47 166,47 166,47 167,46 167,46 165,45 163,44 163,44 163,44 164,44 166,42 167,41 167,41 167,41 167,41 167,41 166,41 166,41 165,41 165,41 164,41 163,41 161,41 161,41 162,40 163,40 164,38 164,38 164,38 163,36 163,36 163,36 163,36 163,35 164,35 164,35 164,35 164,34 164,34 164,34 164,34 164,34 164,34 163,33 163,33 162,33 162,33 162,32 162,32 162,31 162,31 162,31 162,31 162,30 162,30 162,30 162,30 162,30 162,30 163,29 163,29 163,27 163,27 163,27 163,27 163,27 163,27 163,27 163,26 162,26 162,26 162,26 162,26 162,26 163,25 163,25 163,24 163,24 164,23 164,22 164,22 165,22 166,21 166,21 166,21 165,21 165,21 166,20 166,20 167,19 167,19 167,19 167,19 167,19 167,18 168,17 169,17 169,16 169,16 169,16 170,15 170,15 171,15 171,15 171,15 171,15 171,15 171,15 171,14 171,14 172,14 172,13 172,13 173,13 173,13 173,13 173,12 173,12 173,11 174,10 174,9 174,9 175,7 175,7 176,7 176,6 177,6 178,4 178,4 178,4 179,4 179,4 179,3 180,2 180,2 181,2 181,2 181,2 181,2 181,2 183,2 183,2 184,2 185,3 185,4 185,5 185,5 185,6 185,6 185,7 185,7 186,7 186,7 187,6 188,6 188,6 190,6 190,6 191,6 192,6 192,6 193,6 193,6 194,6 194,7 195,7 195,7 196,6 197,6 197,6 197,6 198,6 198,6 198,6 198,6 199,6 199,6 199,6 199,6 200,6 200,6 201,6 201,6 201,6 202,6 202,6 202,6 202,6 203,6 203,6 203,6 203,6 203,6 203,6 203,7 203,7 203,7 203,7 203,7 203,7 203,7 203,7 203,7 203,8 203,8 203,8 204,8 204,8 204,8 204,8 204,8 204,8 204,8 204,8 204,8 204,9 204,9 204,9 204,9 204,9 204,9 204,9 204,9 204,9 204,9 204,9 204,9 204,9 204,9 205,10 205,10 205,10 205,10 205,10 205,10 205,10 205,10 205,10 205,10 205,10 205,10 205,10 205,11 205,11 205,11 205,11 205,11 205,11 206,11 206,11 206,11 206,11 206,11 206,11 206,10 207,10 207,10 207,10 209,9 210,8 211,7 212,6 213,5 213,5 213,5 214,4 214,4 214,3 214,2 214,2 215,1 215,1 215,1 217,0 218,0 220,1 221,1 223,2 224,2 224,3 226,4 227,4 227,5 228,5 228,6 229,6 229,7 229,7 230,7 232,8 232,8 232,8 232,9 232,10 232,10 232,12 232,12 232,13 232,13 232,13 232,13 232,14 232,14 232,15 231,16 231,16 231,17 230,18 230,19 230,20 229,21 229,21 229,22 229,22 230,23 230,24 230,24 230,24 230,25 230,26 231,27 231,27 230,29 230,30 232,30 233,30 237,30 241,30 244,29 247,29 249,28 257,29 262,28 265,28 265,29 268,29 267,31 271,31 273,31 273,30 274,30 274,30 275,29 275,28 277,27 278,27 279,26 281,27 282,27 282,28 285,30 286,31 287,32 287,32 288,33 289,34 291,35 293,36 294,36 295,36 295,36 296,36 297,35 298,35 299,34 300,34 302,33 303,33 305,32 309,32 310,32 311,32 312,33 313,33 313,33 314,34 316,34 318,34 320,34 323,34 323,35 322,37 322,38 322,39 324,38 327,38 328,37 329,37 330,36 330,36 331,35 332,35 332,35 332,35 332,34 333,33 334,33 334,32 335,31 336,30 337,30 337,29 338,29 339,29 341,28 343,28 345,28 347,28 348,27 349,26 350,26 352,26 354,27 354,27 355,28 356,29 358,29 359,30 361,31 362,32 363,32 364,33 365,33 367,35 368,37 367,38 367,38 368,39 370,39 371,41 372,42 373,42 374,43 375,43 376,43 376,43 378,44 378,45 378,45 379,46 380,46 380,46 380,46 381,47 381,47 382,48 382,49 382,49 382,49 382,49 382,49 382,49 382,49 382,49 382,49 383,49 383,49 383,49 383,49 384,49 384,49 384,49 384,49 384,50 384,50 385,50 385,50 385,50 385,50 385,50 385,50 385,50 385,50 385,50 385,50 385,50 385,50 386,50 386,50 386,50 386,50 386,50 386,50 386,50 386,50 386,50 387,50 387,50 387,50 387,50 387,50 387,50 387,50 387,50 387,50 387,50 387,50 387,50 388,50 388,50 388,50 388,50 388,50 388,50 388,50 388,51 388,51 388,51 388,51 388,51 388,51 388,51 389,51 389,51 389,51 389,51 389,51 389,51 389,51 389,51 389,51 389,51 389,51 389,51 390,51 390,51 390,51 390,51 390,51 390,51 390,51 390,51 390,51 390,51 390,51 391,51 391,51 391,51 391,52 391,51 391,51 391,52 391,52 391,52 392,52 392,52 392,52 392,52 392,52 392,52 392,52 392,52 392,52 392,52 393,52 393,53 393,53 393,53 393,53 393,53 393,53 393,53 393,53 393,53 393,53 393,53 394,53 394,53 394,53 394,53 394,53 394,53 394,53 394,53 395,53 395,53 395,53 395,53 395,53 395,53 395,53 395,53 395,53 395,53 395,53 395,53 395,53 396,53 396,53 396,53 396,53 396,53 396,53 396,53 396,53 396,53 396,53 396,53 396,54 396,54 396,54 396,54 396,54 396,54 396,54 396,54 396,54 396,54 397,54 397,54 397,54 397,54 397,54 397,54 397,54 397,54 397,54 397,54 397,54 397,54 397,54 397,54 397,54 398,54 398,54 398,54 398,54 398,54 398,54 398,54 398,54 398,54 398,54 398,54 398,54 398,54 398,54 398,54 398,54 399,54 399,54 399,54 399,54 399,55 399,55 399,55 399,55 400,55 400,55 400,55 400,55 400,55 400,55 400,55 400,55 400,55 400,55 400,55 400,56 400,56 400,56 401,56 401,56 401,56 401,56 401,56 401,57 402,57 402,57 402,57 402,57 402,57 402,57 402,58 403,58 403,58 403,58 403,58 403,58 403,58 404,58 404,58 404,59 404,59 404,59 405,59 405,59 405,59 405,59 405,59 405,59 405,59 405,59 405,59 405,59 405,59 405,59 405,59 405,59 405,59 406,59 406,59 406,59 406,59 406,59 406,60 406,60 406,60 406,60 407,60 407,60 407,60 407,60 407,61 407,61 407,61 407,61 407,61 407,61 407,61 407,61 407,61 407,61 407,61 407,61 408,61 408,61 408,61 408,61 408,61 408,61 408,61 408,61 408,61 408,61 408,61 408,61 408,61 408,61 408,61 408,61 408,62 409,62 409,62 409,62 409,62 409,62 409,62 409,62 409,62 409,62 409,62 409,62 409,62 409,63 409,63 409,63 409,63 409,63 409,63 409,63 410,63 410,63 410,63 410,63 410,63 410,63 410,63 410,63 410,63 410,63 411,63 411,63 411,63 411,63 411,63 411,63 411,63 411,63 411,63 411,63 411,63 411,63 411,63 411,63 411,63 411,63 411,64 411,64 412,64 412,64 412,64 412,63 412,63 412,64 412,64 412,64 412,64 412,64 412,64 412,64 412,64 412,64 412,64 412,64 412,64 412,64 412,64 412,64 412,64 412,64 412,64 412,64 412,64 412,64 412,64 412,64 412,64 412,64 412,64 412,64 413,64 413,64 413,64 413,64 413,64 413,64 413,64 413,64 413,64 413,64 413,65 413,65 413,65 413,65 413,65 413,65 414,65 414,65 414,65 414,65 414,65 414,65 414,66 415,66 415,66 415,66 416,66 416,66 416,67 416,67 416,67 416,67 416,67 416,67 417,67 417,67 417,67 417,67 417,67 417,67 417,68 417,68 417,68 417,68 418,68 418,68 418,68 418,68 418,68 418,69 418,69 418,69 419,69 419,69 419,69 419,69 419,69 419,69 419,69 419,69 419,69 419,69 419,69 419,69 419,70 419,70 419,70 420,70 420,70 420,70 420,70 420,70 420,70 420,70 420,70 420,70 420,70 421,70 421,70 421,70 421,70 421,70 421,70 421,70 422,70 422,70 422,70 422,70 422,70 422,70 422,70 422,70 422,71 423,71 423,71 423,71 423,71 423,71 423,71 423,71 423,71 424,72 424,72 424,72 424,72 424,72 424,72 424,73 425,73 425,73 425,73 425,73 425,73 425,73 425,73 425,73 425,73 425,74 425,74 425,74 425,74 425,74 425,74 425,74 425,74 426,74 426,75 426,75 426,75 426,75 426,75 426,75 427,75 427,75 427,75 427,75 427,75 427,75 427,75 427,75 427,75 427,75 427,76 427,76 427,76 427,76 427,76 427,76 427,76 427,76 427,77 427,77 428,77 428,77 428,77 427,78 427,78 426,78 426,79 425,79 425,79 424,79 424,79 423,80 422,80 421,81 420,81 419,81 417,82 417,82 416,82 416,83 415,83 414,84 414,84 413,84 412,85 411,85 411,85 411,85 411,86 411,87 412,87 411,87 410,87 410,88 410,88 409,89 408,90 408,90 407,91 406,91 406,92 404,94 400,96 400,96 400,97 400,98 399,100 398,100 398,101 397,101 397,102 397,102 396,103 396,103 395,104 395,104 395,104 395,105 395,105 395,105 395,106 395,107 395,107 396,109 396,109 396,109 396,109 396,110 395,110 395,111 396,111 396,111 396,111 396,112 397,112 397,112 397,112 397,112 397,113 398,113 398,114 398,114 398,115 398,115 400,116 400,116 400,116 401,117 401,117 401,117 402,117 402,117 402,118 402,118 402,118 403,119 403,119 403,120 403,120 403,120 403,121 402,121 403,122 403,122 403,122 403,123 403,123 403,123 403,124 403,124 403,124 403,125 404,125 404,126 405,127 407,126 407,126 407,126 407,126 408,126 408,126 407,126 407,125 407,125 408,125 408,125 408,125 408,125 409,125 408,125 408,124 409,124 409,124 409,124 410,124 410,124 410,124 410,123 410,123 411,123 411,123 411,123 411,123 411,122 411,122 411,122 412,122 412,122 412,122 412,122 412,122 412,122 413,122 413,122 413,122 413,122 413,122 415,123 416,122 416,122 416,122 416,122 417,121 419,121 420,120 420,120 421,120 422,120 423,120 425,120 425,120 426,120 426,120 427,120 428,121 430,121 432,121 433,121 433,121 434,121 436,120 437,120 434,118 434,118 435,118 435,118 436,118 436,118 436,118 437,118 437,117 437,117 438,117 438,116 438,116 438,116 439,116 439,115 439,115 440,115 440,115 440,115 440,114 440,114 440,114 441,114 440,113 440,113 440,113 440,112 440,112 441,112 441,112 440,112 440,112 440,112 440,112 440,111 440,111 440,111 440,111 440,111 441,111 441,110 441,110 441,110 441,110 440,109 440,109 440,109 441,109 441,109 441,109 441,109 441,108 441,108 441,108 441,108 441,108 441,108 441,108 442,108 442,107 441,107 442,107 442,107 442,107 442,107 442,107 442,106 442,106 442,106 442,106 442,106 443,105 443,105 443,105 443,105 443,105 444,105 444,105 444,104 444,104 444,104 445,104 444,104 444,104 444,104 444,103 444,103 445,103 445,103 445,103 446,103 448,103 448,103 448,103 449,103 449,103 450,103 451,103 451,103 451,103 452,104 453,105 454,106 456,107 460,108 460,109 461,109 461,108 462,109 462,109 463,110 464,110 464,111 464,112 464,112 466,112 467,112 467,112 468,112 469,112 469,112 470,112 471,113 471,113 472,112 472,113 473,113 474,112 474,112 476,112 477,112 477,112 478,112 478,112 479,113 480,114 482,114 483,115 483,115 484,115 484,116 485,116 485,116 486,116 486,116 486,116 486,117 487,116 487,116 487,116 488,116 488,117 489,117 489,117 490,117 490,117 491,117 491,118 492,117 492,117 493,117 493,118 493,118 493,118 494,118 494,118 495,118 495,118 496,118 496,118 499,119 499,119 499,119 500,119 500,120 500,120 499,120 498,120 497,120 496,120 496,121 496,121 496,121 495,121 495,121 495,121 495,121 495,121 495,122 495,122 495,122 495,122 495,122 495,122 494,122 494,122 494,122 494,122 494,122 494,122 494,122 494,122 493,123 493,123 493,123 494,123 493,124 494,125 494,125 494,125 493,125 494,125 494,126 494,126 494,126 494,127 493,127 493,128 493,128 493,128 492,128 492,128 492,129 492,129 491,129 491,129 490,129 490,129 490,130 490,130 489,130 489,130 489,130 489,130 489,130 489,130 489,131 489,131 489,131 489,131 489,131 488,131 488,131 488,131 488,131 487,131 487,132 487,132 487,132 487,132 487,132 487,132 486,132 486,132 486,132 486,132 486,132 486,132 486,132 486,132 486,132 486,132 486,133 486,133 486,133 485,133 485,133 485,133 485,133 485,133 485,133 485,133 485,133 485,133 485,134 485,134 485,134 485,134 485,134 485,134 485,134 485,134 485,134 485,134 485,134 485,134 485,134 485,135 485,135 485,135 485,135 485,136 485,136 485,136 485,136 485,136 485,136 485,136 485,136 485,136 485,136 485,136 485,136 485,137 485,137 485,137 485,137 485,137 485,137 485,137 485,137 486,138 483,144 483,146 483,147 483,147 481,148 480,148 480,148 480,148 480,148 480,148 480,148 480,149 480,149 480,149 479,149 479,149 479,149 479,149 479,149 478,149 478,149 478,149 478,149 478,149 478,149 477,149 477,149 477,149 476,149 476,149 476,149 476,149 475,149 475,149 475,149 475,149 474,149 474,149 474,149 474,149 474,149 473,149 473,149 473,149 473,149 472,149 472,149 472,149 471,149 471,149 471,149 470,149 470,149 470,149 470,149 470,149 469,148 469,148 469,148 469,148 469,148 468,148 468,148 468,148 468,149 468,149 467,149 467,149 467,149 466,148 466,148 466,148 466,148 462,149 462,149 461,149 458,151 457,152 456,152 453,153 453,153 452,153 450,153 449,153 448,152 444,151 443,150 443,150 443,150 442,150 442,150 441,149 441,149 441,148 441,147 441,146 440,146 440,146 440,146 440,146 440,146 440,146 439,146 438,145 437,145 437,146 436,150 434,151 433,152 433,152 432,153 431,153 429,155 429,156 429,156 427,157 427,158 427,158 426,160 424,163 423,163 423,163 422,164 421,164 416,167 416,167 415,168 413,169 413,169 411,170 411,170 411,170 411,170 410,176 410,177 409,177 409,177 408,179 407,179 405,180 399,183 400,184 402,186 404,187 401,189 399,189 398,189 397,190 396,190 396,190 395,190 393,191 392,191 390,191 386,192 379,193 377,193 374,194 372,195 371,195 369,196 368,198 367,199 367,201 366,203 365,203 365,204 364,205 363,205 362,206 362,206 362,207 361,207 360,207 360,208 361,207 361,206 361,206 361,206 361,206 361,206 362,205 362,205 362,205 362,205 361,205 361,205 360,205 359,205 356,204 353,204 352,204 352,204 352,205 352,205 350,205 350,205 350,205 350,205 350,206 350,206 350,206 350,206 350,206 350,206 350,206 350,206 350,207 350,207 350,207 348,206 348,206 348,206 349,206 349,206 348,205 348,206 348,206 348,206 348,206 348,206 348,206 347,206 347,206 347,206 347,206 347,206 347,206 347,206 347,206 347,206 347,206 347,206 347,207 347,207 347,207 347,207 347,207 347,207 347,207 347,207 347,207 347,207 347,207 347,207 347,207 347,207 347,207 347,207 347,207 347,207 347,208 347,208 346,208 346,208 346,208 346,208 346,208 345,208 345,207 343,207 343,206 343,206 342,206 341,205 341,205 341,204 341,204 341,204 341,203 341,203 342,202 342,201 341,201 341,201 341,201 341,200 341,200 341,199 340,199 339,198 339,198 339,198 338,197 338,197 338,197 337,196 337,195 336,195 336,194 336,193 336,193 336,193 336,192 334,191 334,191 333,190 333,190 332,190 332,190 331,190 330,190 330,190 329,190 329,190 329,190 328,190 328,190 328,189 329,189 328,189 327,189 326,189 325,189 325,188 323,188 322,188 322,188 320,188 320,188 319,187 319,187 318,187 318,186 318,186 317,185 317,185 317,184 316,184 314,185 314,185 314,184 313,184 313,184 313,184 313,184 313,184 313,183 313,182 313,182 313,182 313,182 313,181 313,181 313,180 313,180 313,179 314,179 314,179 314,178 314,178 314,177 314,176 314,176 314,176 314,176 314,176 314,176 314,176 314,176 310,175 310,175 310,175 309,175 305,175 305,175 305,175 305,175 305,175 304,175 304,175 304,175 304,175 303,175 303,175 303,175 303,175 302,174 302,174 302,173 302,173 301,173 300,173 299,173 298,173 298,173 298,173 298,173 297,173 297,173 297,173 297,172 297,172 296,173 295,173 295,173 295,173 295,172 295,172 293,173 293,173 293,173 293,172 293,172 293,172 292,171 292,171 292,171 292,171 292,171 292,171 292,171 292,172 292,172 291,172 291,172 291,172 291,172 291,171 290,171 290,171 290,171 290,171 290,171 290,171 289,171 289,171 289,171 289,171 289,171 289,171 289,171 288,171 285,170 284,170 284,170 283,170 283,170 282,170 282,170 282,170 282,169 282,169 282,169 281,169 281,169 281,170 280,170 279,171 279,171 278,172 277,173 277,173 275,174 275,175 275,175 275,175 275,175 275,175 274,176 272,177 272,177 269,178 269,178 269,178 268,178 268,177 267,177 264,176 264,176 264,175 263,175 261,175 261,175 260,175 260,175 257,175 256,175 255,175 253,175 253,175 251,176 249,177 248,177 248,177 246,178 246,178 245,179 244,179 243,179 242,180 242,180 241,180 240,180 240,181 239,181 238,181 238,181 237,182 237,182 236,182 236,182 235,183 235,183 234,183 234,183 233,183 232,182 232,182 231,183 231,183 230,183 229,184 228,184 228,184 228,184 228,184 228,184 228,183 228,183 228,183 228,183 228,181 228,181 228,181 228,181 228,181 227,180 227,180 227,180 226,180 226,180 225,179 225,179 225,179 225,179 225,179 225,179 225,179 226,178 227,178 227,178 227,178 227,177 226,175 225,173 224,173 223,172 222,172 222,172 221,172 221,171 220,171 219,170 219,170 218,168 218,168 218,168 218,168 218,168 218,168 217,167 217,167 217,167 216,167 216,166 216,166 216,166 216,165 216,165 216,164 216,164 216,164 216,164 217,164 217,164 217,163 217,163 217,162 217,162 217,162 217,162 216,161 216,161 216,160 216,160 216,160 216,160 216,159 215,159 215,158 215,158 215,158 215,157 215,157 214,157 214,156 214,156 214,156 213,155 213,155 213,155 212,155 211,154 211,154 211,154 210,154 210,154 209,153 209,153 208,153 208,153 208,153 208,153 208,153 207,152 207,152 206,152 206,152 206,150 206,150 206,150 206,150 205,150 203,150 201,150 200,150 198,150 198,150 196,150 195,150 195,150 194,150 191,150 190,150 188,150 188,150 186,149 185,149 185,149 185,149 185,149 184,149 184,148 183,149 182,149 182,149 181,149 181,149 180,149 180,149 178,148 176,147 176,147 176,147 173,151 172,150 172,150 172,150 171,149 171,149 171,149 171,149 171,149 170,149 170,149 170,148 170,149 170,149 170,149 169,150 169,150 169,150 169,150 169,151 169,151 169,152 169,152 168,153 168,153 168,153 168,153 167,154 167,154 167,155 167,155 167,155 166,155 166,155 166,156 165,156 165,156 165,156 165,157 165,157 165,157 165,157 165,157 164,158 164,158 163,159 163,159 163,159 163,159 163,160 162,161 162,161 162,161 162,161 162,161 162,162 162,162 162,162 161,164 161,164 161,164 161,165 161,165 161,165 160,166 160,166 160,167 160,167 160,167 160,168 160,168 160,168 160,168 161,168 161,168 161,168 161,168 162,169 163,169 163,169 164,169 164,169 164,169 164,170 164,170 164,170 165,170 166,170 166,170 166,170 166,170 167,171 167,171 167,173 167,173 167,173 167,174 167,174 166,174 166,174 166,174 166,175 166,175 166,175 166,175 166,175 166,175 167,175 167,175 167,175 167,175 167,175 169,176 169,176 168,178 168,179 167,181 166,182 166,182 166,183 165,183 165,184 164,185 164,185 164,185 164,185 164,185 164,185 165,185 165,185 166,184 166,184 167,183 167,183 169,184 169,184 169,184 169,184 170,184 170,184 170,184 170,184 170,184 169,185 169,185 169,185 170,186 170,186 170,186 169,187 168,188 168,188 168,188 168,188 167,189 167,189 167,189 167,189 166,189 165,190 165,190 164,192 163,192 162,192 162,191 162,191 162,191 161,191 161,191 160,191 160,191 160,191 159,191 159,191 159,191 159,191 159,191 159,191 159,191 157,191 157,191 157,191 157,191 156,190 155,190 155,190 155,190 155,190 155,190 155,190 155,189 155,189 155,189 155,189 155,189 155,189 155,189 155,189 155,189 155,189 154,189 154,189 154,189 154,189 154,189 154,189 154,189 154,189 153,189 153,189 153,189 153,189 153,189 153,189 153,189 153,189 153,189 153,189 153,189 153,189 153,189 153,189 153,189 153,189 152,189 152,189 152,189 152,189 152,189 152,189 152,189 152,189 152,189 152,189 151,189 151,189 151,189 151,189 151,189 150,190 150,190 150,190 150,190 150,191 150,192 150,194 149,194 149,194 148,198 148,198 147,199 147,199 147,200 147,200 147,200 146,199 146,199 145,199 145,199 144,199 144,199 144,199 143,199 143,199 143,200 143,200 143,200 143,200 143,200 144,200 144,200 144,201 144,201 144,201 144,201 144,201 144,201 144,201 144,202 142,203 142,203 142,203 141,204 141,204 141,204 141,204 141,205 141,205 141,205 142,206 142,206 142,206 142,206 142,206 143,207 143,208 144,209 144,209 144,209 143,210 143,210 143,210 143,210 143,210 142,211 142,211 141,211 141,211 141,212 141,212 140,212 140,213 140,213 140,213 140,213 141,214 141,214 141,215 142,215 142,215 142,216 142,216 143,216 143,216 143,216 143,216 144,216 144,216 144,216 144,216 145,216 145,216 145,216 146,215 147,215 147,215 147,215 148,214 149,214 151,214 151,214 153,214 154,213 154,213 154,213 154,214 154,214 154,214 154,214 154,214 155,214 155,214 155,214 155,214 155,214 155,214 155,214 155,214 155,214 155,214 155,214 155,214 155,214 155,214 155,214 155,214 154,214 154,214 154,214 154,214 154,214 154,214 154,214 154,214 155,215 155,215 155,215 155,215 155,215 155,215 155,215 155,215 155,215 155,215 154,215 154,215 154,215 154,215 154,215 154,215 154,215 154,215 154,215 154,215 153,215 153,215 153,215 153,215 153,215 153,215 153,215 152,215 152,215 152,215 152,215 152,215 152,216 153,216 153,216 153,216 153,216 153,216 153,216 153,216 153,216 153,216 153,216 152,216 152,216 152,216 152,216 152,217 152,217 152,217 152,217 152,217 152,217 152,217 152,217 152,217 152,217 151,217 151,217 151,217 151,217 151,217 151,217 151,217 151,217 151,217 151,217 151,218 151,218 151,218 151,218 151,218 151,218 151,218 151,218 151,218 151,218 151,218 151,218 151,219 151,219 151,219 151,219 151,219 152,219 152,219 152,219 152,219 152,219 152,219 152,219 152,219 153,219 153,219 153,219 153,219 153,219 153,219 153,219 153,219 153,219 153,219 153,219 153,219 152,219 152,219 152,219 152,219 152,219 152,220 152,220 152,220 152,220 152,220 152,220 153,220 153,219 153,219 153,219 153,219 153,219 153,219 153,220 153,220 153,220 153,220 153,220 153,220 153,220 153,220 153,220 153,220 153,220 153,220 153,220 153,220 153,220 153,220 153,221 153,221 153,221 153,221 153,221 153,220 152,220 152,221 152,221 152,221 152,221 152,221 152,221 152,221 152,221 152,221 152,221 152,221 152,221 152,221 151,221 151,221 151,221 151,221 151,221 151,221 151,221 151,221 151,221 151,221 150,221 150,221 150,221 150,221 150,221 150,222 150,222 150,222 150,222 150,222 150,222 149,222 149,222 149,223 149,223 149,223 149,223 149,223 149,223 149,223 149,223 149,223 149,223 149,223 149,223 149,223 150,223 150,223 150,223 150,223 150,223 150,224 150,224 150,224 150,224 150,224 150,224 150,224 149,225 149,225 149,225 149,225 149,225 149,226 148,226 148,226 148,226 147,226 147,226 147,226 147,226 146,226 146,226 146,226 146,225 146,225 145,226 145,226 145,226 145,226 145,226 145,226 145,226 145,226 145,226 144,226 144,226 144,226 144,227 144,227 144,227 144,227 144,227 144,227 144,227 144,227 143,227 143,227 143,227 143,227 143,228 143,228 144,228 144,228 144,228 144,228 144,228 144,228 144,229 144,229 144,229 143,229 143,229 143,229 143,229 143,229 143,229 143,229 143,229 143,229 143,230 143,230 143,230 143,230 143,230 143,230 143,230 143,230 143,230 143,230 143,230 143,230 143,231 143,231 143,231 143,231 142,231 142,231 142,232 143,232 142,232 142,232 142,232 141,232 141,232 141,232 141,232 141,233 141,233 140,232 140,232 140,232 140,232 139,232 139,232 139,232 139,232 139,233 139,233 139,233 138,233 138,233 138,233 138,233 138,233 138,233 138,234 138,234 138,234 138,234 138,235 138,235 138,235 138,235 138,235 138,235 138,235 138,235 138,236 138,236 138,236 138,236 137,236 137,236 137,236 136,236 136,236 136,237 136,237 136,237 136,237 136,237 137,237 137,237 137,237 137,237 137,238 137,238 137,238 137,238 137,238 136,238 136,238 136,238 136,238 136,238 136,238 136,238 136,239 135,239 135,239 135,239 135,239 135,239 135,239 134,240 134,240 134,241 134,241 134,241 134,241 134,241 134,241 133,241 133,241 133,241 132,241 132,241 132,241 132,241 133,241 133,241 133,241 132,241 132,242 132,242 132,242 132,242 132,242 132,242 132,242 132,242 131,242 131,242 131,242 131,242 131,242 131,243 131,243 131,243 131,243 131,243 131,243 131,244 131,244 131,244 131,244 131,245 131,245 131,245 130,245 130,245 130,245 130,245 130,245 130,245 129,245 129,245 129,245 129,246 129,246 129,246 129,246 129,246 129,247 129,247 128,246 128,246 127,246 127,246 127,247 127,247 127,247 127,247 127,247 127,247 127,247 127,247 127,247 127,247 127,247 127,247 126,247 126,247 126,247 126,247 126,247 126,247 126,247 126,247 126,247 126,247 125,247 125,247 125,247 125,247 125,247 125,247 125,247 125,247 125,247 125,247 125,247 125,247 124,247 124,247 124,247 124,247 123,247 123,247 123,247 123,247 123,247 123,247 123,247 123,247 123,248 123,248 123,248 123,248 122,248 122,248 122,248 122,247 122,247 122,247 122,247 121,247 121,247 121,247 121,248 120,248 120,248 120,247 119,247 119,247 119,247 118,247 118,247 118,247 118,247 118,247 118,247 118,247 118,248 117,248 117,248 117,248 117,248 117,248 117,248 117,248 116,247 116,247 116,247 116,247 117,247 117,247 117,247 117,247 117,247 116,247 116,247 116,247 116,247 116,247 116,247 116,247 116,247 116,247 116,247 116,247 116,248 116,248 116,248 116,248 116,248 115,248 115,248 115,248 115,247 115,247 115,247 115,247 114,247 114,248 114,248 114,247 114,247 114,247 114,247 114,247 114,247 114,247 114,247 113,247 113,247 113,247 113,247 113,247 113,247 113,247 113,247 113,247 112,247 112,247 112,247 112,247 112,247 112,247 112,247 112,247 112,247 112,247 111,247 111,248 111,248 111,248 110,248 110,248 111,248 111,248 111,248 111,248 110,248 110,248 110,248 110,248 110,248 110,248 110,248 110,248 109,248 109,248 109,248 109,248 110,248 110,248 109,249 109,249 109,249 110,249 110,249 110,249 109,249 109,249 109,249 109,249 109,249 109,249 108,249 108,249 108,249 108,249 108,249 108,250 108,250 108,250 109,250 109,250 109,250 109,250 108,250 108,250 108,250 108,250 108,250 108,250 108,250 107,250 107,250 107,250 107,250 107,250 106,250 106,250 106,250 106,250 106,250 106,250 107,250 107,250 107,250 107,250 107,250 107,250 107,251 107,251 107,251 107,251 107,251 107,251 107,251 106,251 106,251 106,251 106,251 106,251 106,251 106,252 106,252 106,252 105,251 105,251 105,251 105,251 105,251 105,252 105,252 105,252 105,252 105,252 104,252 104,252 104,252 104,252 104,252 103,252 103,252 103,252 102,252 102,252 103,252 103,252 103,253 103,253 103,253 102,253 102,253 102,253 102,252 102,252 101,253 101,253 102,253 102,253 102,253 102,253 101,253 101,253 101,253 101,253 101,253 101,253 100,253 100,253 100,253 100,253 100,253 100,253 100,253 99,253 99,253 99,253 99,253 99,253 98,253 98,253 99,253 99,253 99,253 99,253 98,253 98,253 98,253 98,253 98,253 98,253 98,253 98,253 97,253 97,253 97,253 97,253 97,253 97,253 97,253 97,253 97,254 97,254 97,254 96,254 96,254 96,254 96,254 96,254 96,254 95,254 95,254 95,254 95,254 95,253 94,254 94,254 94,254 94,254 94,254 94,254 94,254 94,254 94,254 94,254 94,254 94,254 93,255 93,255 93,255 93,255 93,255 93,254 93,254 93,254 93,254 92,254 92,254 92,255 92,255 92,255 92,255 92,255 92,255 92,255 92,255 91,255 91,255 91,255 91,255 91,255 91,255 91,255 91,255 91,256 90,256 90,256 90,256 90,256 90,256 90,256 89,256 89,256 89,256 89,256 89,256 88,256 88,256 88,256 89,256 89,256 88,256 88,256 88,256 88,256 88,256 88,256 88,256 87,256 87,256 87,256 87,256 87,256 86,256 86,256 86,256 86,256 86,256 86,256 86,256 86,256 86,256 85,256 85,256 85,256 85,256 85,256 85,256 85,256 85,256 85,256 84,256 84,256 84,256 84,256 84,256 84,256 84,256 84,256 83,256 83,256 83,256 83,256 83,255 83,255 83,255 83,255 83,255 82,255 82,255 82,255 82,255 82,255 82,255 81,255 81,255 81,255 81,255 82,256 82,256 82,256 82,256 82,256 81,256 81,256 81,256 81,256 81,256 81,256 81,256 81,257 81,257 80,257 80,257 80,257 80,256 80,256 80,256 80,257 79,257 79,257 79,257 79,257 79,257 79,257 79,257 79,257 79,257 78,257 78,257 78,257 78,257 78,257 78,257 78,257 78,257 77,258 77,258 77,258 77,258 77,258 76,258 76,258 76,258 76,258 76,258 75,258 75,258 75,258 75,259 75,259 75,259 75,259 74,259 74,259 74,259 74,259 74,259 74,259 73,259 73,259 73,259 73,259 73,259 72,259 72,260 71,260 71,260 71,260 71,260 71,260 70,260 69,260 69,259 69,259 69,259 69,259 66,257 66,257 64,256 62,256 60,257 58,258 58,258 58,258 57,258 57,258 55,259 55,258 54,258 54,258 54,258 54,258 54,259 54,259 54,259 54,259 54,259 54,259 54,259 54,259 54,259 54,259 54,259 54,259 54,259 53,259 53,259 53,259 53,259 53,259 53,259 53,259 52,259 52,259 51,257 50,257 50,256 49,256 48,255 47,254 46,253 46,253 46,252 46,252 46,252 47,252 49,251 53,251 54,250 56,250 57,250 58,249 58,249 58,249 59,248 59,248 59,247 57,245 54,244 53,243 53,243 53,243 53,243 53,243 53,243 52,243 52,243 52,243 52,243 52,243 51,243 51,243 50,242 48,241 46,240 44,238 41,237 38,235 35,233 32,231 31,231 29,230 28,229 27,229 26,229 25,229 22,228 22,228 22,228 21,228 21,228 21,228 21,228 21,228 21,228 20,228 20,228 20,228 20,228 20,228 19,228 19,228 19,228 19,228 18,227 18,226 18,225 17,224 16,223 14,223 13,223 12,224 11,224 11,224 10,224 10,224 10,224 10,223 10,223 11,223 11,223 11,222 11,222 11,222 11,221 12,221 12,221 12,221 12,220 11,219 11,219 10,218 10,218 9,218 9,217 9,217 8,217 7,217 7,217 7,217 6,217 6,217 6,217 5,217 4,217 4,217 4,217 3,217 3,216 3,216 2,216 2,216 1,215 1,214 0,214 0,214 0,213 1,213 2,212 2,212 2,212 2,212 3,212 3,212 3,212 3,211 3,211 4,211 4,211 4,211 5,211 6,210 6,210 6,210 7,210 7,210 8,210 8,210 9,210 9,210 9,210 10,211 12,211 13,211 14,211 14,210 15,210 17,209 18,209 19,209 19,209 20,209 23,208 23,208 24,208 24,207 25,207 26,207 26,207 27,207 28,206 29,206 30,206 30,206 31,206 31,206 33,206 34,206 35,206 35,206 35,206 37,206 38,206 39,206 40,205 41,206 42,206 42,205 42,205 43,205 43,205 43,204 44,204 44,204 44,204 44,203 44,202 44,201 44,201 44,201 44,199 44,199 43,198 43,198 42,197 41,197 41,197 40,197 39,196 39,196 39,195 37,195 37,195 37,195 38,195 38,195 37,193 37,192 36,192 35,191 35,190 35,191 34,190 32,189 32,189 32,189 31,188 30,188 29,187 29,186 29,186 29,186 30,186 28,185 28,185 28,184 28,184 28,183 28,182 28,182 27,182 28,182 28,182 29,181 29,179 28,178 30,176 30,176 29,175 27,174 27,174 27,174 27,173 26,172 27,172 26,172 25,172 25,171 23,171 23,171 22,170 22,170 21,169 19,169 20,168 20,168 20,168 20,168 20,167 21,167 22,166 23,164 24,163 25,163 26,162 26,162 27,161 28,161 28,161 29,160 30,160 31,159 32,159 32,159 34,158 34,158 35,158 35,158 36,157 37,157 38,156 38,156 38,156 38,156 39,156 39,155 40,155 40,154 40,154 41,154 41,153 41,152 42,151 42,151 42,150 43,149 43,148 43,148 42,147 41,147 41,147 41,146 40,146 39,145 38,145 37,145 35,145 34,146 34,145 34,145 33,145 33,145 32,144 31,143 31,143 30,143 30,142 30,142 30,141 29,141 29,140 28,140 28,139 28,139 27,139 27,139 27,139 26,138 26,138 25,138 25,138 24,137 24,137 23,137 23,137 23,137 23,137 22,136 22,136 23,135 23,135 23,135 23,134 23,134 24,133 24,133 24,132 24,132 23,131 23,131 23,131 22,130 22,130 22,130 21,129 21,129 21,129 21,128 21,128 21,127 21,127 21,127 21,126 20,126 20,125 19,124 20,124 22,123 22,122 22,122 23,121 23,121 23,120 25,119 28,116 30,115 30,114 30,114 33,111 35,110 36,110 36,110 36,109 37,109 37,108 38,108 39,107 40,107 43,105 43,104 44,104 44,104 46,104 47,104 47,104 49,104 49,103 50,103 52,103 52,102 53,102 52,102 54,101 56,101 57,100 57,100 56,99 57,99 56,98 57,98 57,98 58,98 59,98 59,98 58,97 59,97 59,97 59,97 60,97 60,96 60,96 60,96 60,95 60,95 61,94 62,93 63,93 64,93 65,93 65,94 66,95 66,95 66,94 65,93 66,92 66,92 68,91 69,91 69,91 68,90 68,89 68,88 68,87 68,86 69,85 70,85 70,84 70,84 70,83 70,83 69,82 68,82 67,82 66,81 66,81 65,81 65,82 61,79 60,78 60,78 57,77 57,77 58,74 59,74 57,73 56,71 56,71 56,70 55,70 55,70 52,70 52,70 51,70 51,69 51,68 51,67 51,67 51,67 51,66 50,66 50,66 50,66 50,66 49,66 49,67 49,67 49,67 49,67 48,67 48,67 48,67 48,67 47,67 47,67 47,67 47,67 46,66 46,66 46,66 45,66 45,66 44,66 44,66 44,66 43,66 43,67 42,67 42,67 41,67 41,67 40,67 40,67 40,67 39,67 40,66 40,66 40,66 39,66 39,66 38,65" id="803" class="canton" fill="steelblue" stroke-width="1" stroke="white" geotype="canton" geoname="Carignan" code_insee="803" code_departement="8" nom_departement="Ardennes" code_region="44" nom_region="Grand-Est"/></svg>