<?xml version="1.0" encoding="utf-8"?>
<svg version="1.1" id="svgmap" xmlns="http://www.w3.org/2000/svg" xmlns:xlink="http://www.w3.org/1999/xlink" x="0px" y="0px" width="100%" height="100%" viewBox="0 0 500 293">
<polygon points="13,188 23,188 24,188 26,187 29,187 30,187 32,187 33,186 33,186 33,185 33,185 33,184 33,183 36,182 36,182 37,182 38,181 38,181 39,181 41,183 42,183 42,183 44,182 45,182 45,182 48,185 48,183 48,183 56,182 56,182 57,181 57,181 59,180 60,179 60,179 60,178 59,178 60,177 61,176 61,176 62,175 62,175 63,175 63,175 63,174 63,174 63,174 63,173 63,172 63,172 63,172 63,171 63,170 63,169 64,169 64,168 65,167 66,166 66,165 67,165 67,164 68,163 69,162 71,162 72,161 73,160 73,159 74,157 74,157 74,156 74,155 74,155 74,153 74,151 75,148 75,142 77,136 82,129 83,126 84,124 85,119 86,117 86,117 86,117 86,117 87,117 87,117 88,117 90,116 91,116 91,116 92,115 92,115 92,115 93,116 94,116 94,116 94,118 95,118 95,118 98,117 98,117 98,118 98,118 98,118 99,120 99,120 99,120 99,121 99,122 100,123 101,125 101,126 102,127 102,127 102,128 102,128 102,128 102,128 102,128 101,128 101,128 101,128 100,128 100,128 100,128 100,128 100,129 100,129 100,129 100,130 101,130 101,130 102,131 102,132 103,133 103,133 103,135 103,135 103,136 103,138 102,143 101,144 101,144 101,145 101,146 100,147 101,147 101,148 101,148 102,148 107,151 109,152 109,153 109,153 109,153 110,156 110,159 110,161 111,164 111,164 111,164 111,167 111,167 111,167 111,167 110,168 108,169 108,169 107,169 107,169 105,170 104,170 103,171 101,171 100,171 96,172 95,172 92,173 92,173 92,173 90,173 90,173 87,175 87,175 88,177 89,177 89,177 89,178 90,178 91,178 92,178 94,178 94,178 95,178 95,178 100,176 100,175 105,174 105,174 106,174 110,173 120,171 121,171 122,171 123,171 124,171 130,171 130,171 132,172 132,172 132,172 133,172 137,174 137,174 139,174 139,175 140,175 140,175 140,175 140,175 140,175 140,176 141,176 143,176 143,176 143,176 144,176 143,175 143,174 143,173 143,172 143,172 143,171 144,171 144,170 144,170 145,167 146,166 146,166 146,165 146,165 146,164 147,164 147,163 146,161 146,161 147,161 147,160 147,160 146,160 146,160 147,159 148,159 148,159 148,159 148,159 153,157 154,157 181,151 186,150 187,150 190,149 192,148 193,148 198,146 198,146 199,145 199,145 201,135 201,134 203,131 205,126 207,122 207,122 209,122 209,122 209,122 208,119 208,119 209,118 209,118 209,118 209,117 209,117 208,115 208,115 208,113 208,113 205,113 205,113 204,108 204,107 204,107 206,107 207,107 208,106 209,106 212,105 212,105 212,105 215,104 216,104 217,104 218,103 218,103 218,103 218,101 218,100 217,99 218,99 219,97 219,97 220,96 220,96 221,96 223,94 223,94 226,93 227,93 227,93 228,93 228,93 228,93 229,93 229,93 229,93 228,94 228,94 228,94 227,94 227,94 227,94 227,95 227,98 227,98 226,98 226,98 226,99 226,99 226,99 226,99 226,100 227,100 227,101 228,101 228,101 229,101 229,101 230,101 230,101 231,101 232,101 233,100 234,100 234,100 237,101 238,101 239,101 240,102 241,102 243,103 243,103 244,103 248,105 248,105 248,105 249,104 251,102 251,102 251,100 252,99 253,98 253,96 253,96 253,96 253,96 253,96 253,96 252,96 252,96 252,95 252,95 252,95 252,95 252,95 252,95 252,95 252,95 252,95 252,94 252,94 252,94 252,94 252,94 252,93 252,93 252,93 252,93 252,93 252,92 253,92 253,92 252,92 252,92 253,91 253,91 253,91 253,91 253,91 253,90 253,90 253,90 253,90 253,90 253,90 253,90 253,90 253,90 253,90 253,90 253,89 253,89 253,89 253,88 253,88 253,88 253,88 253,88 253,88 253,88 252,88 252,88 252,87 252,87 252,87 251,87 250,86 250,86 249,85 249,85 248,84 248,84 248,84 248,84 248,84 248,83 248,83 247,82 247,83 247,82 247,82 247,82 247,82 247,82 247,82 247,82 247,81 247,81 247,81 246,81 246,80 246,80 245,80 245,80 245,80 245,80 245,79 244,79 244,79 244,79 244,79 244,79 244,79 243,79 243,79 243,79 243,79 243,79 242,79 242,79 242,78 242,78 241,78 241,77 241,77 241,77 241,77 241,77 241,77 241,76 240,76 240,76 240,76 239,75 239,74 239,74 239,74 239,74 239,74 239,73 239,73 239,73 239,73 239,73 239,72 238,72 239,72 239,71 239,71 239,70 239,70 239,70 239,70 239,70 238,69 237,68 237,68 236,68 236,67 236,67 236,67 235,67 235,67 235,67 235,67 235,67 234,67 234,66 234,66 233,66 233,66 232,65 232,65 232,65 232,64 232,64 232,64 231,64 231,64 231,64 231,63 232,63 232,63 235,61 235,60 236,59 236,59 236,59 235,59 235,59 234,58 234,58 234,58 233,58 233,57 233,57 234,56 234,55 234,55 236,53 238,50 238,50 240,49 240,48 244,47 245,46 247,46 251,44 254,44 257,42 259,42 259,42 261,41 262,41 264,40 264,40 265,40 266,40 269,39 269,38 270,38 271,36 272,36 274,33 275,32 275,31 277,30 278,29 280,27 281,26 282,26 283,24 284,24 284,24 284,24 285,24 285,24 286,24 286,24 289,24 289,24 289,24 290,24 290,24 290,24 290,24 290,24 290,24 291,24 291,24 291,24 292,24 292,24 292,23 292,23 293,22 294,22 294,22 294,22 294,22 295,22 295,22 295,22 295,22 295,22 296,22 296,22 296,21 296,21 297,21 297,21 297,21 298,21 298,21 298,20 299,20 299,20 299,20 299,20 299,20 299,20 299,20 299,20 300,19 300,19 300,19 300,19 300,19 299,18 299,18 299,17 300,17 300,17 300,16 300,16 300,16 300,16 300,16 299,15 299,15 299,15 300,14 299,14 299,13 299,13 299,13 299,13 299,12 299,12 298,12 298,11 298,11 297,11 297,10 297,10 297,9 297,9 297,9 297,8 297,8 297,8 297,8 297,8 297,7 297,7 297,7 297,7 297,7 297,7 297,7 297,7 297,6 297,6 297,5 297,5 296,5 296,5 297,4 297,3 297,3 297,3 297,3 297,2 297,2 298,2 298,2 298,2 298,1 298,0 299,0 299,0 301,1 301,1 303,2 307,3 307,3 311,5 311,5 312,5 321,8 323,8 326,8 328,9 328,9 329,9 332,9 334,8 334,9 334,9 335,10 336,12 336,12 337,13 337,13 337,15 337,16 337,16 337,17 337,18 338,21 338,21 339,21 339,21 339,21 340,22 346,22 347,22 349,22 352,22 354,23 355,23 356,23 358,23 360,25 360,25 360,25 361,25 369,22 373,22 373,22 375,21 377,21 378,20 380,20 381,20 382,20 383,20 385,21 386,21 387,20 389,20 390,20 393,19 395,19 395,19 395,19 395,19 395,19 396,19 396,19 403,11 403,11 404,11 406,12 406,12 406,12 407,12 407,12 407,12 408,13 408,13 408,13 408,13 408,14 409,14 410,14 410,15 411,15 411,15 413,16 414,16 414,16 416,17 416,17 418,17 420,18 420,18 420,18 420,19 420,19 420,19 421,20 421,20 421,20 421,21 421,21 421,21 421,22 421,22 421,22 421,22 422,22 423,23 423,23 423,23 423,24 423,24 423,25 423,25 424,25 424,26 424,26 424,26 424,26 424,26 425,26 425,26 426,27 426,27 426,27 428,29 430,31 431,31 432,32 433,34 435,35 437,37 438,38 440,39 440,40 442,41 443,43 444,44 445,46 445,46 447,47 448,48 448,48 449,48 451,50 451,50 454,52 455,53 455,53 457,55 459,56 459,57 459,57 461,59 463,61 463,61 463,61 467,66 468,68 468,68 474,73 475,73 475,74 476,77 477,78 478,78 480,80 483,83 484,83 484,83 484,83 484,84 484,85 484,86 484,86 484,87 484,88 484,89 484,90 484,90 484,91 484,91 484,91 485,92 486,93 486,93 486,93 486,95 487,95 487,96 488,97 490,99 491,100 491,100 492,102 492,103 492,104 493,106 493,107 494,107 495,109 495,110 496,111 499,112 499,113 499,113 500,113 500,114 500,114 498,119 497,123 497,124 496,126 496,127 495,128 495,129 495,130 495,131 495,132 495,132 494,135 494,135 494,136 494,139 494,140 493,140 491,141 491,141 490,142 489,143 489,143 488,145 488,145 487,145 484,148 483,149 482,150 481,151 481,152 478,155 478,156 477,157 476,161 476,161 476,162 476,164 476,164 475,164 475,165 474,165 473,166 473,166 473,167 472,168 472,168 472,168 472,169 471,169 471,169 470,169 469,170 468,171 468,171 467,172 467,173 466,174 463,176 463,177 462,177 463,178 462,178 462,179 461,179 460,180 459,181 459,181 460,182 460,183 460,183 458,184 457,185 456,185 455,187 455,188 454,188 453,191 453,192 452,193 452,193 452,193 452,193 453,194 453,194 453,195 453,195 453,195 454,195 454,195 454,196 454,196 453,200 453,200 451,202 451,202 451,203 451,203 451,203 451,203 451,205 451,205 452,205 452,205 452,206 452,207 452,208 452,208 453,209 454,209 455,210 456,211 456,211 456,211 456,211 456,212 455,213 455,214 455,214 455,214 453,215 453,215 453,215 453,216 456,221 456,221 456,221 453,223 452,224 450,226 450,226 455,227 455,228 458,227 459,227 460,227 461,226 462,226 462,226 463,227 463,227 462,227 461,228 456,233 455,234 455,234 455,234 458,236 463,238 463,238 460,240 460,241 461,241 461,241 460,242 458,244 455,247 452,251 452,251 452,251 452,251 450,253 448,255 448,255 448,255 450,256 454,257 455,257 457,257 459,258 463,259 464,259 464,259 464,259 465,259 467,260 470,260 472,260 472,260 474,260 474,260 475,260 475,260 475,260 476,260 481,261 482,261 483,261 484,261 484,261 484,261 484,261 481,264 481,264 478,267 477,268 474,271 474,271 473,271 473,271 469,277 469,277 469,277 468,277 468,277 467,278 465,280 465,281 464,280 463,280 462,280 462,280 461,281 461,281 460,282 459,283 458,284 458,285 458,285 458,286 459,286 459,287 458,287 458,287 457,287 456,287 455,286 454,286 454,285 453,284 453,283 453,282 452,282 451,282 449,282 448,283 447,283 445,283 445,283 444,283 443,283 443,283 442,283 442,283 440,282 439,281 439,281 437,280 436,280 435,279 435,279 435,279 435,278 434,277 434,276 434,276 434,275 433,275 433,275 433,275 432,275 432,275 432,275 432,275 431,276 430,277 430,277 430,278 429,278 429,278 430,279 430,279 430,279 431,279 431,280 431,280 431,280 431,280 431,280 431,280 430,280 430,280 429,280 429,280 425,279 422,278 421,277 418,276 418,276 417,275 417,275 416,275 415,275 414,275 413,275 412,275 411,274 409,274 408,274 407,274 405,273 404,273 404,273 403,273 399,272 399,271 399,271 399,271 399,271 398,270 398,270 399,269 399,269 399,269 398,268 398,267 397,267 397,267 396,266 395,266 395,266 394,266 394,266 394,266 393,266 393,266 393,266 393,266 393,266 391,266 389,266 387,266 387,266 386,266 385,266 385,266 384,266 383,266 382,266 382,265 382,265 381,265 381,264 380,264 379,264 378,263 376,262 375,262 374,261 373,261 373,260 372,260 372,260 372,259 371,259 371,258 371,258 372,257 372,257 373,256 373,255 373,255 373,254 373,253 373,253 373,252 373,252 373,252 373,252 372,252 372,252 370,251 369,251 369,251 367,251 366,251 365,251 365,251 364,251 364,251 362,251 359,251 358,251 357,251 355,251 347,252 345,252 343,253 342,253 341,253 339,254 338,254 336,255 335,254 335,253 334,253 334,252 334,252 333,251 333,251 333,251 333,250 332,247 332,247 334,246 334,246 334,246 334,246 334,246 334,245 334,244 334,243 336,238 336,238 336,237 336,237 336,236 336,236 336,236 335,235 335,235 334,234 334,234 334,234 335,233 335,233 335,233 334,232 334,232 333,232 332,232 332,232 332,232 333,231 333,231 334,230 334,230 333,229 333,230 332,230 332,230 332,229 331,228 331,227 330,226 330,225 330,224 329,223 329,222 329,222 329,222 329,221 330,220 330,219 330,219 331,219 331,218 331,218 332,217 333,217 333,216 334,216 335,215 336,215 336,215 335,215 336,215 337,214 336,214 336,214 336,214 335,213 335,213 335,213 321,217 320,217 320,217 318,214 317,214 316,215 314,215 314,215 314,215 313,216 311,216 310,216 308,216 308,216 306,217 306,217 305,217 304,217 304,217 304,217 303,218 301,219 298,220 298,220 298,220 299,216 299,216 299,215 299,215 299,215 299,214 297,213 297,212 297,212 295,211 295,211 295,211 295,210 294,209 294,209 293,209 293,209 293,209 292,208 292,208 291,208 291,208 291,208 290,208 290,208 290,207 288,207 288,207 287,206 287,206 286,205 286,205 283,204 280,203 278,202 278,202 278,202 277,201 273,196 273,196 273,196 273,196 273,196 269,195 269,195 267,195 267,195 266,195 264,196 263,196 262,196 259,197 259,197 258,197 258,198 257,197 257,198 256,198 256,198 256,198 256,199 256,202 256,202 254,202 253,202 252,203 251,203 252,203 249,205 248,206 248,206 248,206 252,207 253,207 258,208 258,208 258,208 256,211 256,211 254,211 254,211 254,211 254,213 254,213 254,213 256,214 256,214 256,215 255,217 255,217 255,217 254,216 253,218 253,218 253,219 253,219 253,220 254,221 254,221 255,221 256,222 257,223 257,223 257,224 257,225 256,228 256,228 253,228 252,227 248,227 241,226 237,225 235,225 234,225 234,225 234,225 233,223 233,223 233,223 230,223 228,224 222,226 220,226 220,226 219,226 218,226 218,227 218,227 218,227 218,227 217,227 217,226 216,227 215,227 215,227 214,227 214,227 212,229 211,229 210,230 207,232 207,232 206,232 206,233 206,233 205,233 205,233 205,233 204,233 203,233 202,233 201,233 200,233 199,233 199,233 197,233 197,235 196,239 196,240 197,243 198,245 198,246 201,246 201,247 201,247 201,248 200,248 200,248 197,253 198,253 196,258 192,257 189,260 189,260 189,261 189,262 190,263 191,264 191,265 192,265 192,265 192,266 192,266 192,266 193,267 193,267 193,268 193,268 192,269 192,269 192,270 192,270 192,270 192,271 192,272 192,272 192,272 192,273 192,273 192,273 192,273 192,273 192,273 192,273 192,274 192,274 192,274 192,274 192,275 191,275 191,275 191,275 191,275 191,276 190,276 190,276 190,276 189,277 189,277 189,277 188,277 188,278 188,278 188,278 188,278 188,278 187,278 187,278 187,279 187,279 186,279 186,280 186,280 185,280 185,279 185,279 184,279 184,279 184,280 183,280 183,280 183,280 182,280 181,280 181,280 181,281 181,281 181,281 181,281 180,281 180,281 180,281 179,281 179,280 178,280 177,280 176,280 175,280 174,279 174,278 174,278 173,278 173,278 172,278 172,278 172,278 171,278 171,279 171,279 171,279 171,280 171,280 171,280 171,281 172,283 172,283 172,284 172,285 172,285 171,286 170,287 169,287 168,288 167,289 167,289 166,289 165,289 164,289 163,289 162,289 161,289 160,290 160,290 159,291 159,291 160,292 160,293 159,293 158,293 157,293 155,293 154,293 153,293 152,292 151,292 149,291 148,291 147,290 146,289 145,288 144,288 142,287 141,286 140,285 138,285 137,284 135,283 134,283 133,282 132,282 131,280 130,279 130,278 130,277 130,276 131,274 131,273 131,272 131,272 130,271 128,271 126,271 125,271 120,271 117,271 115,271 113,272 110,273 108,273 107,273 106,273 101,272 99,271 97,271 95,269 92,267 90,265 90,263 90,262 90,261 91,260 91,259 90,258 89,257 88,257 86,257 85,257 84,258 83,258 82,260 81,261 81,262 81,263 80,265 80,266 79,267 78,267 77,268 76,268 74,268 71,266 68,265 65,265 65,265 65,265 65,264 65,264 63,263 62,263 62,262 60,261 60,260 59,259 58,258 57,258 55,257 55,256 55,256 54,256 53,256 52,256 51,255 46,254 46,254 43,254 41,253 40,253 40,253 39,253 38,252 38,252 37,252 37,251 36,250 36,249 36,249 35,248 35,247 35,247 35,246 35,245 34,239 34,238 34,238 34,237 33,236 33,236 31,234 31,233 31,232 30,231 30,230 29,227 28,225 28,225 29,222 29,221 29,220 29,219 28,218 28,218 27,217 26,216 26,216 25,215 24,213 24,212 23,211 23,211 22,210 22,210 21,210 18,208 17,208 17,208 16,207 14,206 13,205 11,203 10,203 10,202 9,202 5,200 5,200 4,199 2,197 0,194 1,192 2,192 12,189 13,188" id="816" class="canton" fill="steelblue" stroke-width="1" stroke="white" geotype="canton" geoname="Sedan-3" code_insee="816" code_departement="8" nom_departement="Ardennes" code_region="44" nom_region="Grand-Est"/></svg>