<?xml version="1.0" encoding="utf-8"?>
<svg version="1.1" id="svgmap" xmlns="http://www.w3.org/2000/svg" xmlns:xlink="http://www.w3.org/1999/xlink" x="0px" y="0px" width="100%" height="100%" viewBox="0 0 500 310">
<polygon points="96,140 97,140 97,140 97,140 96,138 97,138 97,137 97,137 97,137 97,135 97,135 97,135 97,135 97,134 97,134 97,133 97,133 98,133 98,133 98,133 99,133 99,132 99,132 99,132 99,132 100,132 100,132 100,132 100,133 100,133 100,133 101,133 101,133 102,133 102,133 102,133 102,133 103,133 103,133 103,133 104,133 105,133 105,133 105,133 105,133 105,133 106,133 106,133 106,133 107,134 107,133 107,133 107,133 107,133 107,133 107,133 107,132 108,132 108,132 109,131 109,131 109,131 110,131 110,131 110,131 111,130 111,130 112,130 112,130 112,130 113,129 113,129 114,129 115,128 116,128 116,127 117,127 117,127 117,127 117,127 118,127 119,127 119,127 119,127 119,127 120,127 120,127 121,127 121,127 122,127 122,127 122,127 122,127 123,126 123,126 123,126 123,126 124,126 125,126 125,126 126,126 126,126 126,126 126,126 126,126 126,126 127,126 127,126 127,126 127,126 127,125 126,125 126,125 126,124 126,124 126,124 125,123 125,123 125,123 124,122 124,122 124,122 124,121 124,121 124,121 124,121 124,121 123,121 123,121 123,121 123,121 123,121 122,121 122,120 122,120 122,120 122,120 122,120 122,119 122,119 122,119 122,119 122,119 122,119 122,119 125,118 125,118 125,118 125,118 127,118 127,118 128,119 130,118 131,118 132,117 132,117 131,117 131,117 132,116 133,115 133,115 134,116 134,115 134,115 134,115 134,114 134,114 136,114 136,114 137,114 138,115 143,117 144,117 144,117 144,117 144,117 145,117 146,116 146,116 146,116 146,116 146,115 145,114 144,113 144,113 144,113 144,113 144,113 144,113 144,113 144,113 144,112 144,112 144,112 144,112 144,111 144,111 144,111 146,111 146,111 146,111 146,111 146,111 147,111 147,111 148,109 148,109 148,109 148,109 148,108 148,108 150,108 150,108 150,107 150,107 151,106 151,106 152,105 152,105 152,105 153,106 153,106 153,106 154,106 154,106 154,106 155,106 155,106 156,106 156,106 156,106 156,106 156,106 157,106 157,106 157,106 157,106 157,106 157,105 158,105 158,105 158,105 158,105 159,105 159,105 160,105 160,105 160,105 160,105 160,105 160,105 160,105 161,106 161,106 162,106 162,106 162,105 162,105 162,105 163,105 163,105 164,106 164,106 164,106 164,106 164,106 165,106 165,106 165,106 166,106 166,105 166,105 166,105 166,105 167,105 167,105 167,105 167,105 168,105 168,105 168,105 168,105 168,105 169,105 169,105 169,105 169,105 169,105 169,105 170,105 170,105 170,105 171,105 171,105 171,105 171,104 171,104 172,104 172,104 172,104 172,103 172,103 172,103 173,103 173,102 174,102 174,102 175,101 175,101 175,101 175,101 175,101 175,101 175,101 176,101 176,101 176,101 177,101 177,101 177,101 177,101 178,101 178,101 178,101 179,101 179,101 181,101 181,101 182,101 183,102 183,102 184,102 185,101 185,101 185,101 185,101 186,102 187,101 188,101 188,101 188,101 188,101 189,101 191,99 191,99 191,99 190,99 189,98 186,98 185,97 184,97 184,97 183,96 183,96 184,94 184,94 185,93 185,93 185,92 185,92 185,92 185,91 185,91 185,91 185,91 187,91 187,91 187,91 187,91 188,91 188,91 188,91 188,90 188,90 188,90 189,90 189,90 189,90 189,90 189,90 188,89 187,89 187,89 186,88 186,88 186,88 186,88 186,88 185,88 185,88 185,87 185,87 185,87 185,87 184,87 184,87 184,87 184,87 182,85 182,85 182,85 180,84 179,84 179,84 179,84 179,83 179,83 179,83 179,83 179,82 179,82 179,82 179,82 179,82 179,82 179,81 179,81 179,81 180,81 180,81 180,80 180,80 180,80 180,80 180,80 180,80 180,79 180,79 180,79 180,79 180,78 180,78 180,78 180,77 180,77 180,77 180,77 180,77 179,77 179,77 179,76 179,76 179,76 179,76 179,76 179,75 179,75 179,75 179,75 179,75 179,75 179,75 181,73 181,73 181,72 181,72 181,71 181,71 181,71 181,71 182,70 182,70 186,73 186,73 186,73 186,73 188,73 188,73 189,73 189,72 189,72 189,72 190,72 190,72 191,71 191,71 192,71 192,71 194,72 194,72 195,72 195,72 196,72 196,72 196,72 196,72 196,72 196,72 199,73 199,73 199,73 201,74 201,74 203,74 204,74 204,74 205,74 205,74 206,74 207,74 207,73 207,73 207,73 208,73 208,73 209,73 209,73 210,73 210,73 210,72 212,72 215,71 215,71 215,70 216,70 216,70 216,70 216,70 217,69 217,69 218,69 218,69 218,69 219,69 219,69 220,68 220,68 220,68 220,66 219,62 219,61 219,61 219,61 219,60 218,60 219,60 219,60 219,59 219,59 219,59 219,59 219,59 219,59 219,58 219,58 219,58 219,58 219,57 220,56 220,56 220,56 221,55 221,55 221,55 222,52 222,52 222,52 222,51 222,51 221,48 220,44 220,44 219,44 219,44 219,43 219,43 219,43 219,43 220,43 220,43 220,43 221,43 221,43 222,43 222,43 222,44 223,44 224,45 224,45 224,45 224,45 224,45 224,45 225,45 226,44 226,44 227,44 227,43 228,43 231,40 231,40 231,40 231,40 231,40 231,39 230,39 230,39 230,39 230,39 230,39 229,39 229,38 229,38 229,38 230,38 230,38 230,38 231,38 231,38 232,38 233,37 233,37 233,37 235,37 236,37 236,37 237,37 238,37 238,36 239,36 239,36 239,36 240,36 240,36 241,36 242,37 242,37 243,37 243,37 244,38 244,38 244,38 244,38 245,38 245,38 246,37 247,36 248,36 249,36 250,35 251,35 252,35 252,35 252,35 253,35 253,35 253,35 253,35 254,35 254,35 254,35 253,37 253,37 253,38 253,39 253,39 254,40 254,40 254,40 254,40 256,41 256,41 257,41 257,42 257,42 257,42 257,42 258,42 258,42 258,42 258,42 259,42 259,41 260,40 260,40 260,40 261,39 261,38 261,38 261,38 261,38 263,37 263,37 264,37 264,37 264,37 265,37 265,37 265,37 265,37 265,38 266,38 266,38 266,38 266,38 266,38 267,38 267,38 268,38 268,38 269,38 269,37 270,37 270,37 271,36 271,36 271,36 272,35 272,35 273,34 273,33 273,33 273,33 273,32 273,32 273,32 273,32 273,31 272,31 272,31 272,31 272,31 271,30 271,30 272,30 272,30 272,30 272,29 272,29 272,29 274,29 274,29 276,29 276,29 277,29 277,29 277,29 278,29 278,29 279,29 280,29 281,29 282,28 283,28 283,28 284,28 284,28 284,28 285,28 285,28 286,28 286,28 286,28 287,28 288,28 288,28 288,28 289,28 290,29 292,30 293,30 293,30 294,30 294,31 294,31 295,31 295,31 296,31 296,31 296,31 296,31 297,31 297,31 297,32 297,33 297,34 297,34 298,34 298,35 298,35 298,35 298,36 297,37 297,37 297,37 297,37 297,38 297,38 298,38 298,38 299,38 299,38 299,38 299,38 301,37 301,37 302,36 302,36 302,36 303,36 303,36 303,36 303,36 304,36 304,36 304,36 305,37 305,37 305,37 305,37 306,37 306,37 307,38 307,38 307,38 308,38 308,38 308,38 308,39 309,39 309,39 309,40 309,40 310,40 310,40 311,40 312,40 312,40 312,40 312,40 313,39 313,39 314,38 314,38 314,38 314,38 314,37 314,37 313,37 313,37 313,36 313,36 311,35 310,35 310,35 310,35 310,34 310,34 310,34 310,33 310,33 310,32 311,32 311,31 312,31 312,31 312,31 315,30 315,30 316,30 316,30 316,29 316,29 316,28 316,28 316,28 316,28 316,28 316,28 317,27 317,27 317,27 318,27 318,27 318,27 319,27 319,27 320,27 320,27 320,27 320,27 320,27 321,27 321,27 321,27 321,27 324,27 325,26 325,26 325,26 325,26 326,26 326,26 326,27 326,27 327,27 327,27 328,27 328,27 328,27 328,27 329,27 329,28 329,28 328,28 328,28 328,29 328,29 328,29 329,29 329,30 329,30 329,30 329,30 329,31 330,31 331,30 331,30 331,30 332,30 332,29 333,29 333,28 333,28 333,28 333,28 334,28 334,28 334,28 335,28 335,28 335,29 335,29 337,30 337,30 337,31 337,31 337,31 337,32 337,34 337,34 336,35 336,35 336,36 336,36 336,36 336,37 336,37 336,37 337,38 338,39 338,39 338,39 339,40 339,40 339,40 341,40 342,40 343,41 344,41 344,41 344,41 344,41 344,42 344,42 344,42 344,42 343,43 343,43 343,44 343,44 344,44 344,44 345,44 345,45 345,45 345,45 346,45 347,45 347,45 348,45 348,45 348,44 349,44 349,44 349,43 349,43 349,43 349,43 350,43 350,43 350,43 351,43 351,43 351,43 351,44 352,44 352,44 352,44 352,44 352,44 352,44 353,44 353,44 353,44 353,45 353,45 354,45 355,45 355,45 355,45 355,46 355,46 356,46 356,46 356,46 356,46 356,46 357,46 357,47 357,47 358,47 358,48 359,48 359,48 359,48 360,49 361,51 361,51 362,52 362,52 362,52 362,52 362,52 363,52 363,53 363,53 364,53 365,53 365,53 365,53 366,53 366,53 368,53 368,54 368,54 368,54 368,54 368,54 368,54 369,54 369,54 369,54 369,54 370,54 370,54 371,54 371,54 372,55 373,55 373,55 374,53 374,53 374,52 373,51 372,51 371,51 369,49 369,49 369,49 371,47 371,47 373,44 373,44 372,44 372,44 372,43 372,43 371,43 370,43 369,44 368,44 367,44 367,43 366,43 366,43 366,42 366,41 366,40 366,40 366,40 366,39 366,39 366,38 367,38 367,38 367,38 367,37 367,37 368,37 368,37 369,37 369,37 369,37 370,37 370,37 370,37 371,37 371,37 372,38 372,38 372,38 372,39 372,39 372,39 373,39 374,40 375,39 375,38 375,38 376,37 376,37 377,37 377,37 377,37 380,38 380,38 380,37 380,37 380,37 380,37 380,36 380,36 380,36 380,35 380,35 380,34 380,34 380,34 380,33 380,33 380,32 380,32 380,32 380,32 380,31 380,31 381,31 381,31 381,31 381,30 381,30 381,30 381,30 381,30 382,29 382,29 382,29 382,29 382,29 382,29 382,29 382,28 382,28 382,28 382,28 382,28 382,27 382,27 382,27 382,27 382,27 382,26 382,26 382,26 382,26 382,25 382,25 382,25 382,25 383,25 383,25 383,25 383,25 384,25 384,25 384,25 384,24 384,24 383,23 383,23 383,23 382,23 382,22 382,22 382,22 382,22 382,22 382,22 382,22 382,22 382,21 382,21 382,21 382,21 382,21 383,20 383,20 383,20 384,20 384,19 384,19 385,19 385,19 385,19 385,19 385,19 386,19 386,19 386,19 386,19 386,19 386,18 386,18 386,18 386,18 386,18 386,17 386,17 386,16 386,16 385,16 385,15 385,15 385,15 385,15 385,15 385,15 384,14 383,14 383,14 383,13 383,13 383,13 383,13 383,13 382,12 382,12 381,12 381,12 380,11 379,11 379,11 378,10 377,10 376,10 376,10 374,9 374,9 373,9 373,6 373,6 370,4 369,4 369,4 369,4 369,4 370,3 371,3 371,3 373,3 374,2 376,2 377,2 378,2 379,1 379,1 379,1 379,1 381,1 382,1 382,1 382,1 382,1 382,1 384,0 384,0 387,0 387,0 388,0 389,0 389,0 389,0 390,0 391,0 391,0 392,0 392,1 393,1 396,2 396,2 396,3 396,3 397,3 397,3 397,3 398,4 404,6 405,6 406,6 410,7 411,7 412,7 413,7 414,8 415,8 416,8 417,8 418,8 418,9 420,10 420,11 421,11 421,11 421,12 421,12 421,12 421,12 421,13 420,13 420,13 420,13 420,13 418,14 417,15 416,16 416,16 415,16 415,16 414,16 413,16 413,16 414,17 414,17 414,17 414,17 413,17 413,18 413,18 414,18 414,19 416,19 417,19 417,19 418,19 418,19 418,18 419,19 421,19 423,19 423,19 423,19 424,19 425,20 425,20 426,19 426,19 426,19 427,19 427,18 427,18 427,18 427,18 427,18 427,17 428,17 428,17 428,17 428,17 429,17 429,17 429,17 429,17 429,17 429,17 430,17 430,17 430,17 431,17 431,17 431,17 432,17 432,17 432,17 432,17 432,18 433,18 434,17 434,17 435,18 435,18 437,19 436,20 436,20 435,20 435,20 435,21 435,21 435,21 434,22 434,22 434,22 434,22 433,22 433,23 432,23 432,23 432,23 432,23 432,23 432,24 433,24 433,24 434,25 434,25 434,25 435,25 437,26 439,26 439,26 440,26 440,26 440,26 440,26 442,25 442,25 443,24 443,24 444,24 444,24 445,24 445,24 445,24 445,25 445,25 445,25 445,25 445,25 445,26 444,26 444,27 444,27 444,27 444,28 444,28 444,28 444,28 444,28 444,28 444,29 445,28 445,29 445,29 445,29 446,30 446,30 446,30 446,30 447,30 447,30 447,30 447,30 448,29 448,29 448,29 448,29 448,30 448,30 449,30 449,30 449,30 449,30 450,30 450,31 450,31 451,31 451,31 451,31 451,31 451,31 451,31 453,31 453,31 453,30 453,30 453,30 453,30 453,30 455,30 456,31 457,31 458,31 459,31 459,32 460,32 460,32 461,32 461,32 463,33 463,33 463,33 463,32 463,32 464,32 464,31 464,31 465,31 465,31 466,31 466,31 468,31 469,31 470,31 470,31 470,31 470,31 470,31 470,31 471,31 471,31 472,31 472,31 472,31 472,31 472,31 472,31 472,31 474,32 475,32 475,32 475,32 476,31 476,32 476,32 475,32 475,32 475,32 475,33 475,33 475,33 475,34 475,34 475,34 475,35 475,35 475,35 475,35 475,35 475,36 475,36 475,36 475,37 475,37 475,37 475,38 475,38 475,38 475,39 475,39 475,40 475,40 474,40 474,40 474,41 473,41 472,42 472,42 472,42 472,41 471,41 471,41 471,41 471,42 471,42 470,42 470,42 470,42 470,43 471,43 471,43 471,43 471,43 471,43 471,43 470,44 470,44 470,44 471,44 471,44 471,44 471,44 471,44 471,44 472,45 472,45 472,45 472,45 472,46 472,46 472,46 472,46 471,46 471,47 471,47 470,47 470,48 470,48 470,48 470,49 470,49 470,49 471,49 471,49 471,49 471,50 471,50 471,50 471,50 470,51 470,51 470,51 470,51 469,51 469,51 469,51 469,51 469,51 469,51 469,52 469,52 471,51 471,51 471,52 472,52 472,52 472,52 473,52 473,52 473,52 473,53 473,53 473,53 473,53 472,53 472,54 473,54 473,54 473,55 473,55 473,55 473,55 473,56 473,56 473,56 473,56 473,56 473,57 473,57 473,57 472,57 471,57 471,57 470,57 470,57 470,57 470,57 470,57 470,57 470,58 470,58 470,58 470,59 469,59 469,59 469,59 469,59 469,60 470,60 470,60 470,60 470,60 470,61 470,61 469,61 469,61 469,61 469,62 468,62 468,62 468,62 468,62 468,62 468,63 468,63 468,63 468,63 469,63 469,63 469,63 469,63 469,63 470,64 470,64 470,64 470,64 470,64 470,64 470,64 469,64 469,65 468,65 468,65 468,66 467,66 467,66 467,66 467,67 466,67 466,67 466,68 466,68 466,68 465,68 465,68 465,68 465,68 465,68 464,69 464,69 464,69 464,69 463,70 463,70 463,70 463,70 463,70 462,70 462,70 462,71 462,71 462,71 462,71 462,71 462,71 462,71 461,72 461,72 461,72 461,72 461,72 460,72 460,72 460,72 459,72 459,72 459,72 459,73 459,73 459,73 458,73 458,73 458,73 458,74 458,74 458,74 458,74 458,74 458,75 458,75 458,75 458,75 458,75 459,75 459,76 459,76 460,76 460,76 460,76 460,77 459,77 459,77 459,77 459,77 459,78 459,78 458,78 458,78 458,79 458,79 458,79 458,79 458,79 457,79 457,80 457,80 457,81 457,81 457,81 457,81 458,82 458,82 458,82 458,83 458,83 458,83 458,83 458,84 458,84 458,84 457,84 457,84 457,85 456,85 455,85 455,85 454,85 454,85 454,85 454,85 454,85 454,85 453,86 453,86 453,86 453,86 453,86 453,86 453,86 452,86 452,86 452,86 452,86 452,86 452,86 451,86 451,86 451,86 450,86 450,86 450,86 450,86 449,86 449,86 449,86 449,86 449,86 447,86 447,87 447,87 447,87 447,87 447,88 447,88 447,88 447,88 447,88 447,88 447,88 447,89 447,89 447,89 447,89 447,90 447,90 447,91 447,91 447,91 447,91 446,91 446,91 446,91 446,91 447,92 447,92 447,92 447,92 447,93 447,93 448,93 448,93 448,93 448,94 448,94 448,94 448,94 448,94 448,94 448,95 448,95 448,95 447,95 447,96 447,96 447,96 447,96 447,96 447,96 446,97 446,97 446,97 446,97 446,97 446,97 446,97 446,97 446,97 445,98 444,98 444,98 444,98 444,98 444,98 444,98 444,99 444,99 444,100 444,100 444,100 444,101 444,101 444,101 443,101 443,101 443,101 443,101 443,102 443,102 443,102 443,103 443,103 443,103 443,103 443,103 443,103 443,103 443,104 443,104 443,104 443,104 444,104 445,104 445,105 446,105 446,106 446,106 446,106 447,107 447,107 447,108 447,108 446,110 446,110 446,110 446,111 445,111 445,112 444,113 444,113 444,113 443,113 443,113 443,113 443,113 442,114 442,114 442,114 442,114 441,114 441,114 441,115 441,115 441,115 441,115 440,115 440,115 440,115 440,115 439,116 439,116 439,116 438,116 438,116 438,116 438,116 438,116 438,116 437,116 437,117 437,117 437,117 437,117 437,117 437,117 437,117 437,118 437,118 437,118 437,118 436,119 436,119 436,119 436,119 437,119 437,119 437,119 437,120 437,120 436,120 436,120 436,120 436,120 436,120 435,120 435,121 435,121 435,121 435,121 435,121 435,122 435,122 435,122 435,122 435,122 435,123 435,123 435,123 435,123 436,123 436,123 436,123 436,124 436,124 436,124 436,124 436,124 436,125 436,125 436,125 435,126 435,126 435,126 435,126 436,126 436,126 436,127 436,127 436,127 436,127 436,127 436,127 436,127 436,127 436,127 435,127 435,127 435,127 435,128 435,128 435,128 435,128 435,128 435,128 435,128 435,129 435,129 435,129 435,129 434,129 434,129 433,129 433,129 433,130 433,130 433,130 433,130 433,131 433,131 433,131 433,131 433,132 433,132 433,132 433,132 433,132 433,133 433,133 434,133 434,133 434,133 434,134 434,134 433,134 433,134 433,134 433,134 433,134 433,135 433,135 434,135 433,135 433,136 433,136 433,136 433,136 433,137 433,137 433,137 433,137 432,138 432,138 432,139 432,139 432,140 432,140 432,140 432,140 432,141 432,141 432,141 432,141 432,141 431,141 431,142 431,141 431,141 430,141 430,141 430,141 430,141 430,141 430,141 430,142 430,142 430,142 430,142 430,142 430,142 430,142 430,142 430,143 430,143 430,143 430,143 429,143 429,143 429,143 429,144 429,144 429,144 429,144 429,144 429,145 429,145 429,145 429,145 428,145 428,145 428,145 428,145 428,145 428,146 428,146 428,146 429,146 429,146 429,147 429,147 429,147 428,147 428,147 428,147 428,148 428,148 428,148 428,148 428,148 428,148 428,148 428,148 428,148 428,148 428,149 428,149 428,149 427,149 427,149 427,149 427,149 427,149 427,150 427,150 427,150 427,150 426,150 426,151 426,151 426,151 426,151 426,151 425,150 425,150 425,150 425,150 424,150 424,150 424,150 424,150 424,151 424,151 424,151 424,151 424,151 424,151 424,152 424,152 424,152 424,152 424,152 424,153 424,153 425,153 425,153 425,153 425,153 425,153 426,153 426,153 426,153 426,153 426,153 426,154 426,154 426,154 426,154 426,154 426,154 426,154 426,155 426,155 427,155 427,156 427,156 427,156 427,157 427,157 428,157 428,157 428,157 428,158 428,158 428,158 428,159 428,159 428,159 428,159 429,159 429,159 429,159 429,159 429,159 429,159 429,160 430,160 430,160 430,160 430,160 430,160 430,161 430,161 430,161 430,161 430,161 430,161 430,161 429,161 429,162 429,162 429,162 429,162 429,163 429,164 429,164 429,164 429,164 429,165 429,165 429,165 429,165 428,165 428,166 428,166 428,166 428,166 428,166 428,166 428,166 427,166 427,167 427,167 427,167 427,167 427,168 427,168 427,168 427,168 427,168 427,168 427,168 427,168 427,168 427,168 427,168 427,169 427,169 427,169 427,169 427,169 427,169 427,169 427,169 427,169 427,169 427,170 427,170 427,170 427,170 427,170 427,170 427,171 427,171 427,171 427,171 427,172 427,172 427,172 427,172 427,172 427,172 427,173 427,173 427,173 427,173 427,173 426,173 426,173 426,173 426,174 426,174 426,174 426,174 426,174 426,174 426,175 426,175 426,175 426,175 426,175 426,175 426,176 426,176 425,176 425,176 425,176 425,177 425,177 425,176 425,176 426,177 426,177 426,177 426,177 425,177 425,177 425,178 426,178 426,178 426,178 426,178 426,178 426,178 426,179 426,179 426,179 426,179 426,179 426,179 426,179 426,179 426,179 426,180 426,180 425,180 425,180 425,180 425,180 426,180 426,180 426,180 426,181 426,181 426,181 426,181 426,181 426,182 426,182 426,182 426,182 426,183 426,183 426,183 426,184 426,184 426,184 426,184 426,184 426,184 427,185 427,185 427,185 427,185 427,185 427,185 426,186 426,186 426,186 426,186 426,186 426,186 426,187 426,187 426,187 426,187 426,187 426,187 426,187 426,188 426,188 426,188 426,188 426,188 426,188 426,189 426,189 426,189 427,189 427,189 427,189 427,189 427,190 426,190 426,190 426,190 426,190 426,190 426,190 426,190 426,191 426,191 426,191 426,191 427,191 427,191 427,191 427,191 427,191 426,191 426,191 426,191 426,191 426,191 426,191 427,192 427,192 427,192 427,192 427,192 427,192 427,193 427,193 427,193 427,193 427,193 427,193 426,193 426,194 426,195 426,195 426,195 426,195 425,195 425,195 424,195 424,195 424,195 423,195 423,195 423,195 422,195 422,195 422,194 422,194 421,194 421,195 420,195 420,195 419,195 419,195 419,195 419,195 419,195 419,195 419,196 419,196 419,196 419,197 419,197 419,197 419,197 419,197 419,198 419,198 419,198 420,199 420,199 420,199 420,199 420,199 420,199 420,199 420,200 420,199 420,199 421,199 421,199 421,200 421,200 421,200 421,200 421,200 422,200 422,200 422,200 423,200 423,200 423,200 424,200 424,200 424,200 424,200 424,200 424,200 425,200 425,200 425,200 425,199 425,199 425,199 425,199 426,199 426,199 426,199 426,199 425,199 425,199 425,199 425,199 426,199 426,198 426,198 426,198 426,198 426,198 426,198 427,198 427,198 427,198 427,197 427,197 427,197 427,197 427,197 427,197 428,197 428,197 428,197 428,197 428,197 428,197 429,197 429,197 429,197 429,197 429,197 429,197 430,197 430,197 430,197 430,197 431,197 432,196 432,196 432,196 432,197 433,197 433,196 433,196 433,196 433,196 434,196 434,196 434,196 435,196 435,196 435,196 436,195 436,195 436,196 436,196 438,197 439,198 439,198 439,198 437,199 436,200 436,200 436,201 436,201 437,202 437,202 437,202 437,202 437,202 437,202 437,203 437,204 437,206 437,206 437,207 437,207 437,207 437,208 437,208 438,208 438,208 439,209 439,209 440,209 439,210 439,210 441,211 442,211 442,211 442,212 443,212 443,212 443,212 443,213 444,213 445,214 445,214 445,214 446,217 446,217 446,217 446,217 447,217 447,219 447,219 447,219 447,219 448,219 449,220 449,220 449,220 449,220 449,220 449,220 449,220 450,220 450,220 451,220 452,221 453,222 455,223 455,223 455,223 455,223 455,223 455,223 456,224 456,224 456,224 456,224 456,224 456,225 456,225 457,226 458,226 458,226 458,226 458,226 458,227 458,227 458,227 458,227 459,227 460,227 460,226 460,226 461,226 461,227 461,227 461,227 461,227 461,227 461,227 460,227 460,227 460,227 460,227 459,227 459,227 459,227 459,228 459,228 459,228 459,228 459,228 460,229 460,229 461,229 461,230 462,230 462,230 462,230 462,230 461,230 461,230 460,230 460,230 458,230 458,230 458,230 458,230 458,230 458,230 458,230 459,232 459,232 459,232 458,233 458,233 458,233 458,233 458,233 457,233 457,233 456,232 456,232 456,232 456,233 455,233 455,233 455,233 455,234 455,234 455,234 455,234 454,234 454,234 454,234 454,234 454,233 454,233 454,233 454,233 453,232 453,232 453,232 453,232 453,232 452,232 452,232 452,232 452,233 452,233 452,233 452,233 451,234 451,235 451,236 450,236 450,236 450,236 450,236 450,237 451,238 451,238 451,238 451,238 451,239 451,239 451,239 451,239 451,240 451,241 451,241 451,241 451,241 451,241 451,241 450,242 449,242 449,242 449,242 449,243 449,244 450,245 451,247 452,248 450,249 448,249 447,249 447,249 450,251 450,251 449,251 449,252 448,252 447,253 446,253 446,254 445,254 443,254 443,255 441,255 441,255 442,256 442,256 442,256 442,257 441,258 442,258 442,258 443,258 443,257 443,257 443,258 444,258 445,258 446,258 446,258 447,258 448,258 449,258 449,258 449,258 450,258 450,258 451,258 451,258 451,258 451,258 451,258 452,258 453,258 453,258 453,259 454,259 454,259 454,259 454,259 454,259 454,259 454,259 454,259 454,259 454,260 454,260 454,260 454,260 454,260 455,260 455,260 456,260 456,260 456,260 456,259 456,259 457,259 457,259 457,260 457,260 457,260 457,260 457,260 458,260 458,260 458,260 458,260 458,260 459,260 459,260 459,260 459,260 459,260 460,260 460,261 460,261 460,261 461,261 461,262 461,262 462,262 463,261 463,261 463,261 463,261 464,261 464,261 464,261 464,261 464,261 465,261 465,261 465,261 465,261 465,261 465,262 465,262 465,262 465,262 466,262 466,262 466,261 467,261 467,261 467,261 467,261 467,261 467,261 467,261 467,261 467,261 467,261 468,261 468,260 468,260 468,260 468,261 468,261 468,261 468,261 468,261 468,261 469,261 469,260 469,260 469,260 469,260 469,260 469,260 469,260 468,260 468,260 468,260 468,259 468,259 468,259 468,259 469,259 469,259 469,259 468,259 468,259 469,259 469,259 469,259 469,259 469,259 469,258 469,258 469,258 469,258 469,258 469,258 470,258 470,258 470,258 470,258 470,258 470,258 470,258 470,258 471,258 471,258 471,258 471,258 472,258 472,258 472,258 472,258 472,258 472,258 472,259 473,259 473,259 474,259 474,259 474,258 475,258 475,258 475,258 475,258 475,258 475,258 475,258 475,258 476,258 476,259 477,259 477,259 477,259 478,259 478,259 478,259 479,259 479,259 479,259 479,259 480,259 480,259 480,259 480,259 480,260 480,260 480,260 480,260 481,260 481,260 481,261 482,261 482,261 482,261 483,261 483,261 483,260 483,260 483,260 483,260 483,261 484,261 484,261 484,261 484,261 484,261 485,261 485,261 485,261 485,261 485,261 485,261 485,261 485,261 485,261 486,261 486,261 486,261 487,261 487,261 487,261 487,261 487,261 488,261 488,261 488,261 488,261 489,261 489,260 489,260 489,260 489,260 489,260 489,260 490,260 490,260 490,260 490,260 490,260 490,260 490,260 490,260 490,260 490,260 490,260 490,260 491,260 491,260 491,260 491,260 492,260 492,260 492,260 492,261 493,262 493,262 493,262 494,262 495,262 496,262 497,263 497,263 498,263 498,263 500,264 500,264 500,264 500,264 498,264 496,265 496,265 495,266 495,267 496,268 497,269 498,269 498,270 498,270 499,271 499,271 499,271 499,271 499,271 499,271 499,271 499,272 499,272 499,272 499,272 499,272 498,273 498,273 498,273 497,273 497,273 497,273 497,273 497,273 497,273 497,273 497,274 497,274 497,274 497,274 497,274 497,275 497,275 497,275 497,276 496,276 497,276 497,276 497,276 497,277 497,277 497,277 497,277 497,277 497,277 497,277 497,277 497,277 496,277 496,277 496,277 496,277 496,277 496,277 496,277 495,277 495,277 495,277 495,277 495,277 495,277 494,278 494,277 494,277 493,277 493,277 493,277 493,277 492,277 492,278 492,278 492,278 492,278 492,278 492,278 492,278 492,278 493,278 493,278 493,278 493,278 493,278 493,278 493,279 493,279 493,279 493,279 493,279 493,279 493,279 493,279 492,279 491,279 491,279 491,279 491,279 491,279 491,279 491,278 491,278 491,278 491,278 491,278 491,278 491,278 491,278 490,277 490,277 489,277 489,277 489,277 489,277 489,277 489,277 489,277 489,278 489,278 489,278 489,278 488,279 488,279 488,279 489,279 489,279 489,279 490,280 490,280 490,280 490,280 490,280 490,280 489,280 489,280 489,280 489,280 488,280 488,280 488,280 488,280 488,280 487,281 487,281 487,281 487,281 487,281 487,281 488,281 488,281 488,281 488,281 489,282 489,282 489,282 489,282 489,282 489,282 488,282 488,282 487,282 487,282 487,282 487,282 485,281 485,281 485,281 485,282 485,282 485,282 485,282 485,282 485,282 485,283 485,283 485,283 485,283 485,283 485,283 485,284 485,284 487,283 487,283 487,283 488,283 488,283 488,283 488,284 488,284 488,284 488,284 488,284 488,284 487,284 487,284 487,284 487,284 487,284 486,284 485,284 485,284 485,284 485,285 485,285 485,285 485,285 485,285 485,286 484,286 484,286 484,286 484,286 483,285 483,285 482,285 482,285 482,285 482,285 482,285 482,285 482,285 482,285 482,286 483,286 483,286 483,286 483,286 483,286 483,286 483,286 483,286 482,287 482,287 482,287 482,287 481,287 481,287 481,287 481,287 481,287 481,286 481,285 481,285 481,285 480,285 480,285 480,285 480,285 480,285 479,285 479,285 479,285 478,285 478,285 478,285 478,285 478,285 478,285 478,285 478,286 478,286 478,286 478,286 478,286 478,286 478,286 478,287 479,287 479,287 479,287 479,287 480,287 480,287 480,287 480,287 480,287 480,288 481,288 481,288 481,288 482,288 482,288 482,288 483,288 483,289 483,289 483,289 482,289 482,289 482,289 482,289 482,289 481,289 481,289 481,289 481,289 481,289 480,289 480,289 480,290 479,290 479,290 479,290 479,290 479,290 479,290 479,290 479,290 480,291 480,291 480,291 480,291 480,291 480,291 481,292 481,292 481,292 481,292 481,292 481,292 480,292 480,292 480,292 480,293 480,293 479,293 479,293 479,293 479,293 479,293 479,293 479,293 479,294 479,294 478,294 478,294 478,295 478,295 478,295 478,295 477,295 477,295 477,295 476,295 476,295 476,295 476,295 476,295 476,294 476,294 476,294 476,294 476,294 476,293 476,293 476,293 476,293 476,293 476,292 475,292 475,292 475,292 475,292 474,292 474,292 474,292 474,292 474,292 474,293 474,293 474,293 474,293 475,293 475,293 475,293 475,293 475,294 475,294 475,294 475,295 475,295 475,295 475,295 474,295 474,295 474,295 473,295 473,295 473,295 473,295 473,295 472,295 472,296 471,296 471,296 471,296 471,296 471,296 471,297 470,297 470,297 470,297 470,297 469,297 469,297 469,297 469,297 469,297 469,297 469,297 468,296 468,296 467,296 467,296 467,296 467,296 466,297 466,297 466,297 465,296 465,296 465,296 465,296 464,296 464,296 463,296 463,296 463,297 463,297 463,297 463,297 462,297 462,297 462,297 462,297 461,297 461,296 461,296 461,296 461,296 461,296 461,295 461,295 461,295 461,295 461,295 461,295 461,295 461,295 461,295 460,295 460,295 459,295 459,295 459,295 459,295 459,295 458,294 458,294 458,294 458,294 457,294 457,294 456,294 456,294 455,293 455,293 455,293 455,293 454,294 454,294 454,294 454,294 454,294 454,294 454,295 454,295 453,296 453,296 453,296 453,296 452,296 452,296 452,296 452,297 451,297 451,297 451,297 451,297 451,297 451,298 451,298 450,298 450,298 450,298 450,298 450,298 450,298 450,298 449,298 449,298 449,298 449,298 449,297 449,297 449,297 449,297 449,297 449,297 449,297 448,297 448,297 448,297 448,297 447,297 447,297 447,297 447,297 447,297 446,297 446,297 446,297 445,297 445,297 445,297 445,297 445,297 444,296 444,296 443,296 443,296 443,296 443,296 443,296 442,296 442,296 442,296 442,296 442,296 442,297 442,297 442,297 442,297 443,297 443,297 443,297 443,298 443,298 443,298 443,298 443,298 443,298 442,299 442,299 442,299 441,299 441,299 441,299 441,299 441,299 442,298 441,298 441,298 441,298 441,298 441,298 441,298 440,298 440,298 440,298 440,299 440,299 439,299 438,299 438,299 437,300 437,300 437,300 437,300 436,300 436,300 436,300 436,300 436,299 435,299 435,299 435,299 435,299 435,299 435,299 435,300 435,300 435,300 436,301 436,301 435,301 435,302 435,302 434,302 434,302 434,302 434,302 434,302 434,302 434,302 434,303 433,303 433,303 433,303 433,303 433,303 432,303 432,303 432,303 432,303 432,303 432,304 431,304 431,304 431,304 430,305 430,305 429,305 429,305 429,304 429,304 429,304 429,304 428,304 428,304 428,305 428,305 428,305 427,305 426,305 426,305 426,305 426,305 426,305 426,305 425,306 425,306 426,306 426,306 426,306 425,306 425,307 425,307 424,307 424,307 424,307 424,307 424,307 424,307 424,308 424,308 424,308 424,308 424,308 423,308 423,308 422,309 422,309 422,309 422,308 422,308 422,308 422,308 421,308 421,308 421,308 420,308 420,308 419,308 419,308 419,308 419,308 419,309 418,309 417,309 417,309 417,309 417,309 416,309 416,310 415,310 415,310 414,310 414,310 413,310 413,310 412,310 411,310 411,310 410,310 409,310 409,310 409,310 409,310 408,309 408,308 408,308 408,308 408,308 408,308 408,307 408,307 408,307 408,307 408,307 408,307 408,306 407,306 407,306 407,306 407,306 406,306 406,306 405,306 405,306 405,306 405,306 405,305 404,306 404,306 403,305 402,305 401,305 401,305 400,304 400,304 399,304 399,304 399,304 397,304 397,304 397,304 396,304 395,304 395,304 394,304 393,304 393,304 392,304 391,304 391,304 390,304 390,304 389,304 389,304 388,304 388,305 387,305 387,305 387,305 386,305 386,305 386,305 385,305 385,305 384,305 383,305 382,305 382,305 381,305 381,305 381,305 381,306 380,305 380,306 380,305 380,306 379,306 379,305 378,306 378,305 378,305 378,305 377,305 377,305 377,305 377,305 376,305 375,305 375,305 375,305 374,305 374,305 374,304 373,304 372,304 371,304 370,304 369,304 369,304 368,304 368,304 368,304 368,304 367,303 367,303 366,303 366,303 365,302 363,302 362,302 361,302 360,302 360,302 360,303 360,303 359,303 359,304 359,304 359,304 359,305 359,305 358,305 358,305 358,305 357,305 357,305 356,306 356,306 356,306 355,306 355,306 354,306 353,306 351,306 350,305 349,305 349,305 348,304 347,304 347,303 347,302 347,301 347,301 348,301 348,300 349,300 350,300 351,300 352,300 352,300 353,300 354,299 355,299 356,298 356,298 357,298 357,297 358,296 358,296 358,295 358,295 358,294 359,293 360,292 361,292 361,292 362,292 363,292 364,293 365,293 367,294 368,295 368,295 368,296 368,296 368,296 367,297 366,297 366,297 366,298 367,298 367,298 368,299 368,299 369,299 371,298 374,297 376,296 377,296 378,295 379,295 380,295 381,295 382,296 382,296 384,296 385,296 385,296 386,296 386,295 386,295 387,295 387,294 387,294 387,293 387,292 388,292 387,292 387,291 386,291 386,291 384,290 384,290 385,290 385,289 385,289 386,289 387,289 387,289 388,289 388,289 389,290 389,290 390,290 390,290 391,290 391,290 392,290 392,290 392,290 393,289 393,289 393,289 394,289 394,289 395,289 395,289 396,288 396,288 397,289 397,289 397,289 397,288 397,288 398,288 399,288 399,288 399,288 399,288 400,287 400,287 401,287 401,287 402,287 402,287 401,286 401,286 401,286 402,286 402,286 402,286 403,286 403,286 404,286 405,285 405,285 405,285 405,285 405,285 405,285 405,285 406,285 406,285 406,285 407,286 407,286 407,286 407,285 407,285 408,285 408,286 409,286 409,286 409,285 409,285 409,285 409,285 409,285 409,285 410,285 410,284 410,284 410,284 410,284 410,284 411,283 411,283 411,283 411,283 411,282 412,282 412,282 412,282 413,282 413,282 413,282 414,282 414,282 414,282 414,282 414,281 414,281 414,281 414,280 414,280 414,280 414,280 414,279 413,279 413,279 413,278 413,277 413,276 412,275 412,274 409,276 408,276 408,276 407,277 406,277 405,277 405,276 404,276 402,274 401,273 400,272 400,271 400,271 400,270 400,269 400,269 399,269 399,269 399,269 398,269 398,269 398,269 397,269 397,269 396,269 396,269 396,269 396,269 396,270 396,270 396,270 395,269 394,269 393,269 393,269 393,270 392,270 392,269 391,269 391,269 391,269 390,269 390,269 389,269 389,269 388,269 388,269 388,269 387,268 385,267 385,267 384,267 382,267 381,266 381,266 380,266 379,266 379,266 378,265 377,265 377,265 376,266 376,266 376,266 377,267 377,267 377,267 377,267 377,267 376,267 376,267 375,268 375,268 375,268 374,268 374,268 373,268 373,268 372,268 372,268 372,268 372,269 372,269 372,269 372,270 373,271 373,271 373,271 372,271 372,272 372,272 372,272 372,272 371,272 371,272 370,272 369,272 369,272 369,273 369,273 369,273 368,273 368,274 368,274 368,274 367,274 367,274 366,274 366,274 366,274 366,275 366,275 366,275 366,275 366,275 366,276 366,276 366,276 366,276 365,276 363,276 362,276 362,276 361,276 361,276 360,277 360,277 360,277 359,277 359,276 359,276 359,276 358,275 357,274 356,273 356,273 356,273 355,272 354,272 354,271 354,271 354,271 353,269 352,269 352,268 352,268 351,267 351,267 351,267 350,267 349,267 349,267 348,267 347,266 347,266 347,266 346,266 346,265 346,265 347,265 347,264 347,264 347,264 348,263 348,263 349,262 349,262 349,261 349,261 349,260 349,259 349,258 349,258 349,257 349,257 349,257 348,257 348,257 347,257 347,256 346,256 344,256 344,256 343,256 343,255 342,255 341,254 341,254 341,254 341,254 341,254 340,254 339,254 338,254 336,255 336,255 335,255 334,255 333,255 333,255 330,257 329,257 328,257 328,257 327,257 326,257 325,257 324,257 322,257 322,257 321,256 320,256 319,256 318,255 317,255 316,255 316,255 316,254 315,254 315,253 315,253 315,253 315,253 315,252 315,252 315,252 316,251 318,249 319,249 319,248 319,248 320,248 320,248 321,248 321,247 321,247 322,247 323,247 324,247 324,247 324,247 324,247 324,247 324,246 324,246 324,246 324,246 324,245 323,245 322,244 322,244 321,244 320,244 319,243 318,243 318,243 317,243 317,243 316,244 315,243 315,243 314,243 313,243 312,243 312,242 312,242 312,242 311,242 311,241 311,241 311,241 312,240 312,239 312,239 313,238 313,238 313,237 314,237 314,236 314,236 314,235 314,235 314,235 314,235 314,234 314,234 313,234 313,234 313,234 312,233 312,233 311,233 311,233 311,233 311,232 310,232 310,231 310,231 309,231 309,230 308,230 308,230 308,230 307,230 307,230 306,230 305,231 305,231 305,231 304,231 304,231 304,231 304,231 303,230 303,230 302,230 302,230 302,230 301,230 301,230 300,230 300,230 300,230 299,230 298,231 297,231 297,231 296,232 296,232 296,232 295,232 295,231 295,231 295,231 294,231 294,231 294,230 294,230 293,230 293,230 293,230 292,230 292,230 291,230 291,230 290,230 290,230 290,230 290,231 289,231 289,232 289,232 288,233 288,233 288,234 287,235 287,235 286,236 286,236 285,236 285,236 285,236 284,236 283,236 281,236 280,236 278,236 277,236 275,236 274,236 272,236 268,236 268,236 267,236 267,236 266,237 265,237 264,237 260,238 258,238 257,238 256,239 255,239 255,240 254,241 254,241 254,241 255,242 255,243 256,243 257,244 257,244 258,245 258,246 258,246 258,247 258,248 258,249 258,249 259,250 259,250 260,251 260,251 260,252 260,252 260,252 260,253 259,254 259,254 257,255 256,255 255,256 255,256 254,256 253,257 252,257 251,257 250,258 249,258 248,258 248,259 248,259 248,260 248,260 247,260 247,261 247,261 246,262 246,262 245,262 244,262 243,261 243,261 243,260 244,260 245,259 245,258 246,257 247,256 247,255 248,255 248,253 248,253 248,252 248,252 246,252 245,251 245,251 244,251 243,250 243,250 243,249 243,249 244,248 244,248 245,248 245,247 246,247 246,246 246,245 246,245 245,245 245,245 244,245 243,245 242,245 242,245 241,245 241,245 241,246 241,246 240,247 240,247 239,247 239,248 237,248 236,248 235,248 233,249 233,250 232,250 231,251 230,252 230,252 230,253 230,253 230,254 229,254 228,255 228,255 227,255 226,255 225,255 224,255 223,255 222,254 221,253 221,253 220,252 219,252 218,252 217,251 215,251 214,250 214,249 213,248 213,247 213,247 214,246 214,245 214,245 214,244 213,244 212,243 212,243 212,243 211,243 210,243 209,243 208,244 207,244 206,244 205,244 204,244 204,244 203,244 201,243 200,243 199,243 197,244 197,244 194,244 193,245 192,245 192,246 192,247 192,247 192,247 192,248 192,248 193,249 193,249 193,250 193,251 194,252 194,252 195,252 196,253 197,255 198,255 200,257 201,258 202,259 202,260 202,261 203,262 203,263 203,263 203,264 202,264 202,265 201,264 201,264 201,264 200,264 200,264 199,264 199,264 198,265 196,265 195,265 194,266 193,266 192,266 191,265 190,265 189,265 188,266 187,266 186,266 185,267 183,267 180,268 180,269 178,269 177,269 175,269 173,269 172,269 171,269 168,269 167,269 166,268 164,269 164,270 163,271 163,273 163,274 165,275 166,275 167,276 168,277 168,278 168,278 168,280 168,282 167,282 166,283 163,284 160,285 158,285 156,285 154,285 153,285 151,285 150,285 150,285 150,285 149,285 149,285 147,285 147,286 146,286 144,287 141,288 139,289 136,290 136,290 135,290 133,290 132,290 129,290 128,290 127,290 126,290 125,290 124,290 123,291 122,291 121,291 120,291 119,292 119,292 119,291 119,291 119,290 119,290 119,290 119,290 119,289 121,286 122,286 122,286 123,285 125,285 125,285 125,285 126,285 127,284 128,283 128,283 128,283 128,283 128,282 128,282 129,281 129,281 129,281 130,281 131,281 132,280 132,280 132,280 131,280 130,280 129,280 128,279 127,279 125,279 124,279 124,279 122,279 120,279 119,279 119,279 119,279 118,280 116,280 116,280 116,280 115,276 115,276 115,276 115,276 114,276 114,276 114,277 114,277 114,277 114,277 114,277 114,277 114,277 114,277 113,278 113,278 113,278 113,277 112,277 112,277 112,277 111,277 111,277 111,277 111,277 111,277 111,277 111,277 111,277 111,277 110,277 110,278 110,278 110,278 110,278 110,278 110,278 110,278 110,278 109,278 109,278 109,278 109,278 108,278 108,278 108,278 108,278 107,278 107,278 107,278 107,278 107,278 106,278 106,278 106,278 106,278 105,278 105,278 105,278 105,277 105,277 104,277 104,277 104,277 104,277 104,277 104,277 104,277 103,277 103,277 103,277 103,277 104,276 104,276 104,276 104,276 104,275 104,275 104,275 104,275 104,275 104,274 103,274 103,274 102,273 100,271 100,271 99,270 99,270 99,270 99,270 99,270 99,269 99,268 99,268 99,267 99,267 99,266 99,265 99,265 99,265 99,265 100,265 100,264 100,264 101,264 102,264 102,263 103,263 103,263 103,263 104,263 105,262 105,262 106,262 106,261 106,261 107,260 107,260 107,260 108,259 108,259 108,259 108,259 108,259 108,259 108,259 107,259 107,259 106,258 106,258 106,258 106,257 106,257 106,257 105,257 105,257 105,256 105,256 105,256 105,256 104,256 104,256 104,255 104,255 104,255 103,255 103,255 102,255 102,255 101,254 101,254 101,254 101,254 101,254 101,253 101,253 101,253 100,253 100,253 100,253 100,253 100,253 100,253 99,253 99,254 99,254 99,254 99,254 98,254 98,254 97,254 97,254 97,254 97,254 97,254 97,254 96,254 96,254 96,254 96,254 95,254 95,254 95,254 95,254 95,254 95,254 94,253 94,253 94,253 94,253 94,252 94,252 93,252 93,252 93,252 92,252 92,252 92,252 91,252 91,252 91,252 90,252 90,251 89,251 89,251 87,251 87,252 87,251 85,251 85,251 86,250 86,250 86,250 85,250 84,250 82,250 82,250 80,250 79,250 78,249 77,249 77,249 77,249 77,250 77,250 76,251 76,251 75,251 75,251 75,251 75,252 75,252 75,252 74,251 73,251 72,251 71,251 71,251 71,251 71,251 71,251 69,252 69,252 68,252 68,252 67,252 66,252 66,252 66,252 66,252 65,252 65,252 65,253 65,254 65,254 65,254 66,256 66,257 65,257 65,258 65,258 64,259 63,260 62,261 62,261 62,262 62,262 62,263 61,263 61,264 61,264 61,264 61,265 61,266 61,266 61,266 61,266 61,266 61,267 61,267 61,267 61,267 61,267 61,267 60,268 60,267 59,267 59,267 59,267 57,265 57,265 57,265 57,265 57,265 56,264 56,264 56,264 56,264 55,263 55,263 55,263 55,263 56,262 55,262 55,262 55,262 55,262 55,262 54,261 54,261 53,261 53,261 52,261 52,261 52,261 52,261 52,261 52,261 51,260 51,260 50,259 50,259 50,259 50,259 50,258 50,258 48,257 48,257 48,257 49,257 49,256 50,256 52,256 52,256 53,254 53,254 54,254 54,253 54,253 54,253 54,253 54,253 53,251 52,251 52,251 52,250 52,250 52,250 51,250 51,249 51,249 52,249 52,248 52,247 52,247 52,246 52,246 52,246 52,246 51,245 51,245 49,245 49,245 48,245 48,245 48,245 48,245 47,245 47,245 46,244 46,244 46,243 45,243 45,243 45,243 45,243 45,243 45,243 44,242 44,242 44,242 44,242 44,242 44,242 43,242 43,242 43,242 43,242 43,242 43,242 43,242 43,242 43,242 43,242 43,242 42,242 42,242 42,242 42,242 41,242 39,242 39,242 39,242 39,242 39,242 38,242 38,242 37,242 37,242 37,243 38,243 39,244 39,244 40,244 40,245 41,246 41,246 41,246 40,246 39,247 38,247 38,247 37,247 37,247 37,247 35,248 32,248 32,248 32,248 31,249 30,249 30,249 29,249 28,249 28,249 28,249 27,249 26,249 25,248 25,248 25,248 26,247 26,247 26,247 27,247 27,246 27,246 27,246 27,246 28,244 28,244 27,244 27,244 27,244 27,244 27,244 27,245 27,245 27,244 27,244 26,243 26,243 26,243 25,243 24,243 24,242 23,242 22,241 21,241 21,241 20,241 20,241 16,240 16,240 15,240 15,240 15,240 15,239 16,239 16,239 16,239 16,238 17,238 17,238 17,237 17,237 17,237 17,237 17,237 17,237 17,237 17,236 18,235 18,235 18,235 18,235 18,235 18,235 18,235 18,235 19,234 19,234 19,233 19,232 20,232 20,231 20,231 20,231 20,231 21,231 20,231 17,228 17,228 17,227 15,226 15,226 14,226 12,226 12,226 12,225 10,225 9,225 9,225 9,225 9,225 8,225 8,225 8,225 8,225 6,224 6,224 6,224 6,224 6,224 4,224 4,224 3,223 3,223 2,223 2,223 1,223 0,222 0,222 0,222 0,222 0,221 0,221 0,220 0,219 0,218 0,218 0,218 0,217 0,217 0,217 0,217 0,217 0,217 0,216 0,216 1,216 1,216 1,216 1,215 1,215 1,215 2,216 2,216 2,216 2,216 2,216 2,215 2,215 2,215 2,215 3,215 3,215 3,215 3,216 3,216 3,216 4,216 4,215 4,215 4,216 4,216 4,216 5,216 5,216 5,216 5,216 5,216 5,216 6,216 6,216 7,216 7,216 7,216 7,216 7,216 7,216 7,217 7,217 7,217 7,217 8,217 8,217 8,217 9,217 9,217 9,217 9,217 9,217 9,217 9,217 9,217 10,217 10,217 10,217 10,218 10,218 10,218 11,218 11,218 11,218 11,218 11,218 12,218 12,218 12,218 12,218 13,218 13,218 13,218 14,219 14,219 14,219 14,219 14,219 14,219 14,219 14,219 15,219 15,219 15,219 15,219 15,219 16,219 16,220 17,220 17,220 17,220 17,220 17,220 17,219 17,219 17,219 18,219 18,219 18,219 18,219 18,219 18,218 19,218 19,218 19,218 19,218 19,218 19,217 19,217 19,217 20,217 20,217 20,217 20,217 21,217 21,217 21,217 22,217 22,217 22,217 22,216 22,216 22,216 22,216 22,216 22,216 22,216 22,215 22,215 23,215 23,215 23,215 23,215 23,215 24,215 24,215 24,215 24,215 25,215 25,215 25,214 26,214 26,214 26,214 26,214 26,214 26,213 26,213 26,213 26,213 26,213 26,213 26,213 26,212 26,212 26,212 26,211 26,211 26,211 26,211 26,211 26,211 26,211 27,210 27,210 28,209 28,209 29,208 29,208 29,208 29,208 29,208 29,208 29,208 30,208 30,207 30,207 31,208 31,208 31,208 31,208 33,208 33,208 33,208 34,207 34,207 34,207 34,207 33,206 33,206 33,206 33,206 33,206 33,206 33,205 33,205 33,205 33,205 32,205 32,205 33,205 33,205 33,205 33,205 33,204 33,204 33,204 33,204 34,204 34,204 34,204 34,204 34,204 34,204 34,204 34,203 34,203 34,203 34,203 34,202 34,202 34,202 34,201 34,201 35,201 35,201 35,201 35,201 35,201 35,201 35,201 36,200 36,200 36,200 36,200 36,200 36,200 36,199 37,199 37,199 37,199 37,199 37,199 37,199 38,199 38,199 38,199 38,199 38,199 39,199 39,199 39,198 39,198 39,198 39,198 39,198 40,198 40,197 40,197 40,196 40,196 40,196 41,196 41,196 41,196 41,196 41,195 41,195 41,195 41,195 41,194 41,194 41,194 41,194 41,194 42,194 42,194 42,193 42,193 42,193 42,193 42,193 43,192 43,192 43,192 43,192 43,192 43,192 43,191 43,190 43,190 43,190 44,190 44,190 44,190 44,190 44,189 44,189 44,189 45,189 45,189 45,189 45,189 45,188 45,188 45,188 45,188 45,188 45,188 46,188 46,188 46,188 46,188 46,188 47,187 47,187 47,187 47,187 47,187 48,187 48,187 48,187 48,187 48,187 48,186 48,186 48,186 49,186 49,186 49,186 49,186 49,186 49,185 49,185 49,185 49,185 49,185 49,184 49,184 49,184 49,184 49,184 49,184 49,184 49,184 49,184 49,184 49,184 49,184 50,183 50,183 50,183 50,183 50,183 51,183 51,183 50,182 50,182 50,182 50,181 50,181 50,181 50,181 50,180 50,180 50,180 50,180 50,179 50,179 50,179 51,178 51,178 51,178 52,177 52,177 52,176 52,176 53,176 53,176 54,177 54,177 54,177 54,177 56,177 56,177 58,177 58,177 58,177 58,178 58,178 59,178 59,178 59,178 59,178 59,178 60,178 60,178 61,178 61,178 61,178 62,177 62,177 62,176 63,176 63,176 63,176 63,175 63,175 64,175 64,175 65,175 65,175 66,175 66,175 67,176 67,176 67,176 67,177 67,177 68,177 68,177 69,177 70,178 70,178 70,178 70,179 70,179 71,179 71,179 71,179 70,180 70,180 72,180 73,180 76,180 77,180 77,180 78,180 78,180 78,180 79,180 79,180 79,180 79,180 80,180 80,180 80,181 81,181 81,181 82,181 82,182 82,182 83,182 83,182 83,182 83,182 83,182 83,182 84,182 85,181 86,181 86,181 85,180 85,179 85,179 85,179 85,178 85,178 86,177 85,176 85,176 85,176 85,176 85,176 85,175 85,175 85,175 85,175 85,175 85,174 85,174 85,174 84,174 84,174 84,173 84,173 84,173 84,173 84,173 84,173 84,173 84,173 84,172 84,172 84,172 84,172 84,171 84,171 85,171 85,171 85,171 85,171 85,171 85,171 85,170 85,170 85,170 85,170 85,170 85,170 85,169 85,169 85,169 85,169 85,169 86,169 86,169 86,169 85,169 85,169 85,168 85,168 85,168 85,168 85,168 85,168 85,168 85,168 86,168 86,168 86,168 86,167 86,167 86,167 86,167 86,167 86,167 87,167 87,167 87,167 87,166 87,166 87,166 88,166 88,166 88,166 88,166 88,166 88,166 89,166 89,166 89,165 89,165 89,165 89,165 89,165 89,165 89,165 89,164 89,164 89,164 89,164 89,164 88,163 88,163 88,163 89,163 89,163 89,163 89,162 89,162 89,162 89,162 89,162 89,162 89,162 89,162 89,162 89,162 89,162 89,161 89,161 89,161 89,161 89,161 89,160 89,160 89,160 89,160 89,160 89,160 89,160 89,159 89,159 89,159 89,159 89,159 89,159 89,158 89,158 89,158 89,158 89,157 89,157 88,157 89,156 89,156 88,156 88,156 88,155 88,155 88,155 88,155 88,154 88,154 88,154 88,153 88,153 88,153 88,153 89,152 89,152 89,152 89,152 89,152 89,152 90,151 90,151 90,151 90,151 90,151 90,151 90,151 90,151 90,150 90,150 90,150 90,150 90,149 91,149 91,148 91,148 91,148 92,148 92,147 92,147 92,147 92,147 92,147 92,147 93,147 93,147 93,147 93,147 93,146 93,146 93,146 94,146 94,146 94,146 94,145 95,145 95,145 95,145 96,144 96,144 96,144 96,144 96,144 96,144 96,143 96,143 95,143 96,143 96,143 96,143 96,143 96,143 96,143 96,142 96,142 96,142 96,141 96,141 96,141 96,141 96,141 96,141 96,140 96,140 96,140 96,140 96,140 96,140 96,140" id="1202" class="canton" fill="steelblue" stroke-width="1" stroke="white" geotype="canton" geoname="Aveyron et Tarn" code_insee="1202" code_departement="12" nom_departement="Aveyron" code_region="76" nom_region="Occitanie"/></svg>