<?xml version="1.0" encoding="utf-8"?>
<svg version="1.1" id="svgmap" xmlns="http://www.w3.org/2000/svg" xmlns:xlink="http://www.w3.org/1999/xlink" x="0px" y="0px" width="100%" height="100%" viewBox="0 0 500 467">
<polygon points="129,267 140,259 153,255 164,252 172,249 175,248 208,237 238,233 233,230 227,226 222,223 217,220 211,216 206,212 200,208 195,206 190,202 184,199 178,195 172,191 166,187 160,184 154,180 152,179 145,174 137,170 136,169 141,165 150,158 156,147 158,132 158,132 158,132 156,128 154,124 148,111 145,103 143,99 143,97 143,96 142,95 143,90 145,85 146,78 147,73 148,72 152,66 152,65 153,64 154,63 155,62 158,61 158,61 159,60 161,58 164,56 165,55 165,55 166,54 169,51 172,49 172,48 173,48 173,47 173,47 176,44 178,44 178,44 179,43 180,42 180,42 181,41 181,40 184,39 185,38 186,38 191,35 194,33 198,30 201,28 203,26 206,24 208,22 208,22 209,21 209,21 215,17 217,16 220,14 229,12 229,12 238,10 241,9 252,7 261,5 271,0 276,6 280,13 284,20 285,22 295,21 302,20 312,18 329,16 341,14 343,17 344,19 345,25 345,31 345,37 344,41 333,43 321,44 319,45 317,46 371,90 368,96 401,123 399,125 398,126 398,126 399,127 398,128 396,129 396,131 395,131 393,134 393,135 392,136 391,138 390,139 388,143 391,151 393,150 394,150 395,150 396,150 397,149 399,149 400,149 400,149 402,148 403,147 403,147 404,146 404,145 404,144 405,143 405,142 405,141 405,140 405,140 405,139 405,139 406,137 409,138 411,139 412,139 413,139 413,140 413,141 412,142 412,142 412,143 412,143 412,143 412,144 411,144 411,144 411,145 411,145 411,146 410,147 410,147 410,148 410,148 410,149 410,150 410,150 410,151 410,152 410,152 410,153 410,153 411,153 411,153 411,154 412,154 412,154 412,155 412,155 412,155 412,155 412,156 412,156 411,156 411,156 411,156 411,157 411,157 410,157 410,158 410,158 410,158 411,158 411,158 412,158 412,158 412,158 412,159 411,159 412,159 412,160 412,160 411,159 411,159 410,160 410,160 410,160 410,161 410,161 411,161 410,161 411,162 411,164 411,166 412,168 413,169 413,172 414,173 414,174 415,175 414,175 414,176 414,176 414,177 414,177 414,178 414,179 414,180 414,180 414,180 414,180 414,180 414,180 414,181 414,181 414,181 414,182 414,182 413,186 413,187 413,188 414,189 414,189 414,190 415,190 415,191 416,192 417,193 418,195 418,197 417,198 417,199 416,199 416,200 416,200 415,201 415,202 415,202 416,202 415,203 415,204 415,205 415,205 414,206 413,206 412,205 412,205 411,205 411,205 410,206 405,209 403,211 403,211 402,212 402,212 402,213 401,213 402,213 401,215 401,215 400,216 400,216 398,218 397,219 396,222 394,224 392,226 390,229 389,229 390,230 389,230 389,230 389,231 388,231 388,231 388,231 388,232 388,232 388,233 389,233 388,233 387,234 385,236 385,236 385,237 385,237 384,237 384,238 384,238 384,238 384,239 384,239 384,239 384,240 385,240 385,240 385,241 385,242 385,243 385,243 385,243 385,243 385,244 385,244 384,244 384,245 384,245 384,245 384,246 384,246 384,246 384,246 384,247 383,247 383,247 383,247 382,248 382,249 382,250 382,250 382,251 382,251 382,252 382,252 381,252 381,252 381,253 381,253 381,254 381,254 381,255 382,255 382,255 381,255 381,256 381,256 381,256 381,256 381,256 382,256 382,256 382,257 382,257 382,257 382,257 381,257 381,257 381,258 382,258 382,258 383,258 384,257 384,257 384,257 384,258 385,259 386,260 386,260 386,260 386,261 386,261 386,261 386,260 386,260 384,258 384,258 384,258 383,258 383,258 383,258 383,258 382,259 384,260 384,260 385,260 385,260 385,260 384,260 384,260 384,260 384,260 384,261 382,259 382,259 382,259 382,259 382,260 382,260 383,260 383,260 383,261 383,261 384,261 384,261 384,261 384,261 384,262 384,262 385,262 385,262 385,262 385,263 385,264 385,264 385,264 385,265 385,265 385,265 385,266 385,266 385,266 386,267 385,267 386,268 385,269 386,269 386,269 386,270 386,270 386,270 386,270 386,271 387,272 387,272 386,272 386,272 387,273 387,274 387,274 387,274 387,275 387,275 387,275 388,275 388,276 388,276 388,276 388,277 388,277 388,277 388,277 388,277 389,277 389,277 389,278 389,278 389,278 389,278 388,278 388,278 389,279 389,279 389,279 389,280 389,280 390,280 390,280 390,281 390,281 390,281 391,281 391,282 391,282 391,282 392,283 392,283 392,283 392,284 392,284 392,284 392,284 392,285 392,285 392,285 392,286 392,286 392,286 392,286 392,287 392,287 392,288 392,288 392,288 392,289 392,289 392,289 392,290 392,291 392,292 392,292 392,293 391,294 391,294 391,295 391,295 391,296 391,296 391,296 391,297 391,297 390,297 390,297 390,298 390,298 389,298 389,298 388,298 388,298 387,298 387,299 387,299 387,299 387,300 386,300 386,300 386,301 386,302 386,302 386,303 386,303 386,304 386,304 386,304 386,304 386,304 386,305 387,305 387,305 387,305 387,305 387,306 387,306 387,306 387,306 386,306 386,306 386,306 386,307 386,307 386,308 387,308 387,309 387,308 387,309 388,309 388,309 388,309 388,309 388,309 388,309 388,309 388,310 388,310 388,310 388,310 389,311 389,311 390,311 390,312 390,312 390,312 391,312 391,312 390,312 390,312 390,313 391,313 391,314 391,314 391,315 393,315 393,315 393,315 393,315 393,315 393,315 393,315 393,316 394,316 394,316 394,316 394,316 398,317 398,317 402,318 405,317 405,317 406,317 406,317 407,317 408,317 409,317 410,316 410,316 410,316 411,316 412,317 412,317 413,317 416,317 417,317 418,317 418,317 418,317 419,317 419,316 420,316 421,317 421,317 421,317 421,317 421,318 421,318 421,318 421,318 422,319 422,319 423,319 424,318 424,318 425,319 425,319 426,320 427,320 428,320 429,320 430,320 430,320 431,318 431,318 431,318 431,318 431,317 431,317 431,317 432,317 432,317 433,317 433,316 435,316 436,316 436,316 437,316 437,317 438,317 439,318 439,318 440,318 441,317 441,317 442,317 442,317 442,316 443,316 443,316 443,317 443,317 443,317 443,317 443,318 443,318 444,318 444,318 444,318 445,318 445,317 446,317 447,317 448,317 449,317 450,317 451,317 452,317 454,317 454,317 455,317 455,317 456,317 456,317 456,317 457,316 457,316 458,316 458,316 459,316 459,316 460,316 461,316 461,316 463,316 465,316 468,316 469,317 470,317 471,317 472,318 474,319 476,319 477,320 479,321 480,321 481,322 482,322 483,323 484,323 485,324 487,325 487,325 488,326 490,327 490,327 491,328 492,329 492,329 493,330 493,330 494,331 494,332 494,333 494,333 495,334 495,334 495,334 495,335 495,335 495,336 496,336 496,337 497,338 497,339 497,340 497,340 497,341 497,342 497,342 497,343 497,343 497,344 497,345 497,345 497,345 497,345 497,346 498,346 498,346 498,347 498,347 498,347 498,348 498,349 499,349 499,350 499,351 499,352 499,352 499,353 500,355 500,355 500,356 500,357 500,358 500,359 500,361 500,362 500,364 499,364 500,365 500,365 500,365 500,365 499,369 498,372 498,373 496,373 496,373 494,372 493,373 493,373 493,372 492,373 492,373 490,373 489,373 489,373 487,373 486,373 485,373 476,375 474,375 474,376 473,377 473,377 473,377 472,378 472,378 471,377 469,378 470,379 471,381 469,381 469,381 468,383 468,384 468,384 467,385 467,385 467,386 466,386 461,388 458,388 457,388 456,388 448,389 440,390 430,394 430,394 429,394 428,393 428,392 428,392 428,391 428,389 426,388 425,384 425,382 423,381 422,380 422,380 422,381 422,381 421,381 420,381 418,382 417,383 416,383 416,384 415,385 413,385 411,384 411,384 410,384 410,383 394,378 391,377 350,368 346,368 347,369 346,370 346,370 345,370 344,370 343,370 341,370 341,371 340,372 340,372 340,374 340,375 340,376 340,377 340,378 340,382 341,384 342,386 344,390 344,390 344,390 345,391 345,392 346,393 347,395 348,395 347,396 347,396 346,397 345,398 344,398 343,399 340,401 339,401 337,401 333,402 332,402 332,402 332,403 331,404 330,404 330,406 332,408 334,413 334,414 333,414 333,414 333,416 332,416 332,416 328,417 326,414 324,411 323,411 322,410 320,409 315,407 280,401 269,402 269,402 269,402 268,407 264,408 263,408 260,408 260,408 259,408 259,408 259,408 259,408 259,408 260,407 259,407 258,405 258,405 260,404 260,404 261,404 261,404 261,404 261,403 261,403 261,403 260,403 260,403 258,403 258,403 258,403 259,403 260,403 260,403 260,403 260,402 260,402 260,402 260,402 260,402 261,402 261,402 262,401 262,401 261,400 261,399 261,398 260,398 258,397 258,397 258,397 258,397 258,397 258,396 257,396 256,396 256,396 256,396 256,396 256,396 255,396 254,395 254,395 254,396 254,396 254,396 254,395 253,395 252,395 252,395 251,395 251,395 251,395 251,395 250,395 249,394 249,395 249,395 249,395 249,394 248,394 247,394 246,394 246,394 246,394 246,394 244,394 244,394 244,394 243,394 243,394 243,394 241,394 241,394 241,394 241,394 241,394 239,394 237,395 234,396 220,397 206,402 201,404 199,405 199,406 198,407 197,408 197,409 196,410 196,411 195,412 195,412 194,413 194,413 195,414 195,415 195,415 194,416 193,417 191,418 191,420 192,420 194,421 194,421 193,421 192,421 191,421 182,425 180,426 177,428 176,429 177,431 179,434 182,438 181,439 181,439 181,438 178,434 177,434 176,434 177,434 176,435 176,435 175,432 175,432 175,432 175,432 176,432 177,432 175,430 174,427 173,427 170,427 168,428 165,429 160,432 157,434 155,436 153,437 153,438 158,444 159,443 160,444 159,444 160,446 163,450 165,453 164,453 164,453 163,453 163,453 164,452 161,449 160,449 160,450 160,450 159,450 157,447 157,447 158,447 158,447 159,447 157,444 157,444 157,444 157,444 157,444 157,444 156,442 155,442 155,443 154,443 154,443 154,443 154,443 152,440 152,440 152,440 152,440 152,440 153,440 154,440 152,438 152,438 151,438 151,438 151,438 151,437 151,437 150,436 150,435 149,435 149,436 149,436 149,436 148,436 147,434 147,434 147,434 147,434 151,432 152,432 150,431 150,431 150,431 151,429 151,429 151,430 153,430 153,430 153,429 153,429 154,429 154,429 155,428 155,427 155,427 154,426 154,426 154,426 153,426 153,426 154,425 155,425 155,425 155,425 156,425 156,425 156,425 157,424 158,423 158,423 157,422 156,421 156,420 156,420 157,419 157,419 157,419 158,418 159,418 159,418 159,417 159,417 160,416 161,416 161,415 162,414 163,414 163,413 164,413 164,413 164,413 165,413 166,412 167,411 167,411 169,411 170,410 170,410 171,409 171,409 171,409 172,408 172,409 172,409 176,407 178,407 179,406 179,406 180,406 181,406 183,405 184,405 184,405 185,404 185,404 186,404 190,402 190,401 190,401 190,401 190,400 189,400 189,399 188,399 187,399 186,400 186,400 186,401 183,400 183,400 182,400 181,400 180,401 180,401 180,401 179,401 179,401 179,402 178,402 177,402 176,403 176,403 175,403 174,403 174,403 173,404 172,404 171,404 170,404 170,404 169,404 167,404 166,403 166,403 165,402 164,402 164,403 164,403 163,403 163,404 163,404 153,407 153,406 152,407 151,407 151,407 151,407 152,409 152,409 152,410 151,410 151,410 151,411 150,411 150,412 149,412 149,413 149,414 148,414 148,415 147,416 147,417 146,417 146,418 146,418 145,418 144,419 144,419 145,420 145,421 145,422 144,422 144,422 142,422 142,422 141,422 141,421 140,421 140,421 139,420 139,420 139,419 139,419 139,418 139,418 138,418 138,417 137,417 137,416 137,416 137,415 137,415 136,415 135,414 134,413 132,409 131,408 131,408 130,409 130,409 130,409 130,409 129,409 122,398 123,398 123,398 124,398 124,398 124,398 125,398 125,398 125,397 124,397 124,397 124,397 123,396 123,396 123,396 122,396 122,396 121,395 121,395 121,394 118,394 117,395 115,395 113,396 112,396 111,395 111,395 110,395 110,394 110,394 110,393 110,392 110,392 109,391 108,391 108,390 109,390 109,389 109,388 109,388 109,386 109,385 109,384 109,384 109,383 109,383 109,383 109,383 109,382 109,382 108,382 108,381 107,381 107,381 108,381 108,380 108,380 108,380 107,379 107,379 107,379 107,378 108,378 107,378 107,377 107,377 108,377 108,376 108,376 108,375 108,375 107,374 107,374 107,374 107,374 107,373 107,372 106,372 106,371 105,371 105,371 105,371 105,371 104,370 104,370 104,370 104,368 102,367 102,366 100,365 100,365 100,365 100,364 100,363 100,363 99,362 99,362 98,361 97,360 97,359 97,359 96,358 95,357 95,357 96,356 96,356 96,356 97,355 97,355 98,355 98,356 99,356 99,355 99,355 98,353 97,350 96,350 95,350 94,351 93,351 93,351 92,351 91,352 90,352 89,352 89,352 89,353 89,353 89,353 89,353 88,353 88,353 88,353 87,353 86,353 85,354 85,354 85,354 85,355 85,355 85,355 84,355 84,354 83,354 83,354 81,355 82,355 81,356 81,356 82,356 82,356 82,356 82,356 82,356 82,357 82,357 82,357 82,357 82,357 82,357 83,358 83,358 83,358 83,358 83,358 83,358 83,358 83,358 83,358 83,358 83,358 84,359 83,359 83,359 81,356 81,356 80,355 78,356 78,356 78,356 78,356 77,356 77,356 77,356 75,357 74,357 77,361 78,362 78,363 79,365 80,366 80,366 80,366 80,367 84,369 85,370 85,370 86,370 86,370 86,371 86,371 86,371 87,371 87,371 87,371 87,372 88,372 88,372 89,373 90,374 90,374 90,374 91,374 91,375 91,375 91,375 91,375 92,376 92,376 92,376 93,377 93,378 93,378 93,378 93,378 93,379 93,379 94,379 94,380 94,380 94,380 94,380 95,381 95,381 95,381 95,382 96,383 96,383 96,383 96,384 97,384 97,384 97,384 97,384 97,385 97,385 97,385 98,386 98,386 98,386 98,386 98,387 98,387 98,387 98,387 98,387 98,387 98,387 98,387 98,387 98,388 98,388 98,388 98,388 99,388 99,388 99,388 99,388 99,388 99,388 99,388 99,388 99,388 99,388 99,388 99,389 99,389 99,389 99,389 99,389 99,389 100,390 100,390 100,390 100,390 100,390 100,390 100,390 100,390 99,390 100,391 100,391 100,391 100,391 100,391 100,391 100,390 101,391 101,391 101,391 101,391 101,391 101,391 102,393 102,393 102,393 102,393 102,393 102,394 102,394 103,394 103,395 103,395 104,396 104,396 104,396 104,396 104,396 104,396 104,396 104,397 104,397 104,397 104,397 105,397 105,397 105,398 105,398 105,398 105,398 105,398 105,399 106,399 106,400 106,400 106,401 107,401 107,402 108,402 108,403 108,403 108,403 108,403 108,404 109,404 109,404 109,404 109,405 109,405 110,406 110,406 110,406 110,407 110,407 110,407 110,407 111,407 111,407 111,408 111,408 111,409 111,409 112,409 112,409 112,410 112,410 112,410 112,410 112,410 113,411 113,411 113,411 113,412 114,413 114,413 114,413 114,413 114,413 113,413 114,413 114,413 114,413 114,414 114,414 114,414 114,414 115,414 115,414 115,415 115,415 116,415 116,415 116,416 116,416 116,416 116,416 116,417 116,417 117,418 117,418 117,418 117,418 117,418 117,418 118,418 118,418 118,418 118,418 125,431 125,431 128,436 128,436 128,436 128,436 128,437 128,437 128,437 128,437 128,437 128,438 129,438 129,438 129,439 129,439 129,439 129,439 129,439 130,440 130,440 130,440 129,441 129,441 129,441 128,441 128,441 128,441 127,441 126,442 125,442 125,442 124,442 123,443 121,443 120,444 119,444 119,444 117,445 117,445 117,446 115,447 108,453 108,453 108,453 107,452 107,452 107,452 108,451 108,451 108,451 108,451 108,451 108,451 108,451 108,451 107,451 107,451 107,450 107,450 107,450 107,450 106,451 106,451 106,451 106,451 106,451 105,451 105,450 104,450 104,450 104,450 104,450 103,449 103,449 103,449 103,449 103,449 102,449 102,448 102,448 101,448 100,447 99,447 99,447 99,446 99,446 98,446 98,446 97,445 95,444 95,444 93,443 93,443 93,443 93,442 92,442 92,442 91,442 91,442 91,441 91,441 90,441 90,441 89,440 88,440 88,440 88,439 87,439 86,438 86,438 85,438 85,438 85,437 84,437 84,437 84,437 83,437 83,436 83,436 82,436 82,435 81,435 81,435 81,435 80,434 80,433 80,432 79,431 79,430 78,430 77,429 76,427 74,427 72,426 70,425 68,425 66,425 65,425 65,425 64,424 64,424 63,424 63,423 63,423 62,423 62,423 61,422 61,422 61,422 60,422 60,422 56,419 56,419 56,419 55,419 55,419 55,419 55,419 55,418 55,418 54,418 54,418 54,418 54,418 54,418 53,417 53,417 53,417 53,417 53,417 52,418 52,418 52,418 52,418 52,418 52,418 52,418 52,418 52,418 52,418 52,418 52,418 52,418 52,418 52,418 52,418 52,418 52,418 52,418 51,418 51,418 51,418 51,417 51,417 51,417 51,417 51,417 51,417 51,417 51,417 51,417 51,417 51,417 51,417 51,417 51,417 52,417 52,417 52,417 52,417 52,417 52,416 51,416 51,416 51,416 51,416 51,416 50,416 50,416 50,415 49,415 49,415 49,415 49,414 48,414 48,414 47,414 46,413 45,412 45,412 44,411 43,411 43,411 43,411 43,410 42,410 42,410 41,409 40,409 40,409 40,409 40,409 40,409 40,409 39,409 39,409 39,409 39,409 39,409 39,409 39,410 39,410 39,410 39,410 39,410 39,410 39,410 39,410 39,410 39,410 39,410 39,409 39,409 39,409 39,409 38,409 38,409 38,409 38,409 38,409 37,409 37,409 37,408 37,408 37,408 37,408 38,408 38,408 38,409 38,409 38,409 38,409 38,409 39,408 38,408 38,408 38,408 38,407 37,407 37,407 37,407 37,407 37,407 36,407 36,406 36,406 36,406 35,406 35,406 35,406 34,405 34,405 33,405 33,405 33,404 33,404 33,404 33,404 33,404 33,404 33,403 33,403 33,403 33,403 33,403 32,403 32,400 29,401 29,401 29,401 29,402 29,402 29,402 29,403 29,403 30,403 30,404 30,404 30,404 30,405 30,405 29,405 29,405 29,405 29,405 28,405 28,406 28,406 27,406 26,406 26,407 25,407 24,408 24,408 24,408 24,408 22,409 22,410 22,410 22,410 21,410 21,410 21,411 20,412 20,412 20,412 21,412 21,412 21,412 21,412 21,412 21,412 22,412 22,412 22,413 22,413 22,413 23,413 23,413 23,413 24,414 24,414 24,414 24,414 24,414 24,415 24,415 25,415 25,415 25,415 25,415 25,415 25,415 25,415 26,415 26,415 26,415 28,416 28,416 28,417 29,417 29,417 29,417 29,418 29,418 29,418 30,418 30,418 30,418 31,418 31,418 31,419 31,419 31,419 31,420 35,422 35,422 35,422 36,421 53,432 52,432 52,432 51,432 55,435 56,436 56,435 56,435 57,435 57,435 65,440 75,446 88,454 88,455 88,455 88,455 89,456 89,456 89,456 91,457 91,457 91,457 92,457 92,458 93,458 94,459 94,459 95,459 95,459 95,460 95,460 95,460 96,460 96,460 95,460 95,460 95,460 95,460 95,460 95,460 95,460 95,460 95,460 94,460 94,460 94,460 94,460 94,459 93,460 93,460 93,460 93,460 92,460 92,460 92,460 92,461 92,461 91,461 91,461 90,461 90,461 90,461 90,461 89,461 89,462 90,462 90,462 90,462 90,462 90,462 90,462 90,462 90,462 90,462 89,462 89,462 89,462 88,462 88,462 88,461 88,461 88,462 87,462 87,462 86,463 86,463 86,463 86,464 86,464 86,464 87,464 87,464 87,464 87,464 87,465 87,465 88,465 88,465 87,465 87,465 87,465 87,465 87,465 87,465 87,465 87,465 86,465 86,465 86,465 86,465 86,465 85,465 85,465 85,464 85,464 85,464 85,464 85,464 85,464 85,464 84,464 84,464 84,464 84,465 84,465 84,465 83,465 83,465 83,465 82,465 82,466 82,466 82,466 82,466 81,466 80,466 80,466 79,466 78,466 76,467 75,467 75,467 75,467 74,466 74,466 74,466 74,466 74,466 74,465 74,465 62,457 61,456 61,456 61,456 60,456 60,456 60,456 60,456 59,456 59,455 58,455 58,455 57,454 57,454 57,454 57,454 57,454 56,455 56,455 48,452 46,451 45,450 44,450 40,449 40,449 40,448 37,445 27,439 23,438 21,436 21,436 20,435 21,435 21,434 21,435 21,433 20,431 18,426 17,426 16,425 16,425 16,425 13,424 12,424 11,424 9,424 8,425 5,426 4,426 4,426 3,426 0,425 1,423 2,423 5,417 9,409 13,407 23,399 24,398 25,397 26,395 25,394 25,394 27,393 29,390 32,389 32,388 34,388 37,386 38,385 45,377 50,371 51,371 51,370 55,365 55,363 57,362 62,356 54,355 38,349 32,346 31,337 48,333 83,326 96,312 113,292 124,270 129,267" id="1310" class="canton" fill="steelblue" stroke-width="1" stroke="white" geotype="canton" geoname="Istres" code_insee="1310" code_departement="13" nom_departement="Bouches-du-Rhône" code_region="93" nom_region="Provence-Alpes-Côte d'Azur"/></svg>