<?xml version="1.0" encoding="utf-8"?>
<svg version="1.1" id="svgmap" xmlns="http://www.w3.org/2000/svg" xmlns:xlink="http://www.w3.org/1999/xlink" x="0px" y="0px" width="100%" height="100%" viewBox="0 0 500 318">
<polygon points="0,284 1,284 3,283 7,282 7,282 8,282 8,281 13,280 17,279 20,278 23,278 27,277 31,276 34,275 37,274 39,273 40,272 40,272 41,271 41,270 41,269 40,267 40,267 39,264 39,264 38,261 47,258 44,247 43,243 42,242 40,240 36,235 27,223 22,217 17,212 16,210 15,208 13,206 10,203 12,200 23,201 45,196 49,186 49,187 51,183 52,178 53,175 52,175 50,171 50,171 51,171 53,174 54,170 69,168 73,168 73,163 87,156 112,145 140,135 142,134 142,134 164,122 165,121 175,115 181,112 177,108 168,100 157,89 152,84 149,82 138,71 134,67 146,61 152,69 155,64 156,62 157,61 162,57 165,54 168,51 177,41 179,39 182,35 189,45 190,47 194,47 196,47 202,47 201,47 195,40 213,36 210,30 217,29 216,25 215,18 214,12 214,6 216,6 226,4 240,0 248,16 258,37 264,33 274,27 282,23 283,22 287,23 303,27 307,28 313,28 333,30 346,31 346,34 351,33 352,33 353,33 354,34 355,36 355,37 355,40 355,41 355,43 355,45 355,47 355,50 356,52 356,55 357,58 358,60 358,62 358,67 359,73 359,74 359,75 361,74 376,79 390,84 404,88 413,91 421,94 422,94 421,95 419,97 419,98 418,99 421,99 432,103 434,101 435,101 438,103 441,106 445,109 446,110 455,109 461,123 466,134 470,144 467,144 469,153 469,159 471,171 472,178 473,183 475,191 477,199 478,203 478,205 479,208 483,215 487,219 489,219 495,222 500,229 499,229 498,229 496,227 491,226 487,228 486,229 486,229 487,231 490,234 491,235 492,236 493,238 493,241 493,242 494,246 464,247 411,251 410,239 416,228 411,227 401,227 390,228 384,228 376,229 374,229 375,235 375,239 375,241 376,245 376,246 376,250 376,251 376,251 377,252 357,253 356,253 356,252 348,247 338,240 331,236 323,230 315,230 287,232 275,233 259,234 248,234 235,235 226,236 222,243 221,245 220,247 217,247 215,248 209,261 207,264 203,272 199,270 189,266 188,265 187,264 181,261 177,260 175,258 167,254 161,252 160,252 159,252 158,251 157,251 151,249 149,247 147,247 145,245 147,250 148,252 150,260 153,267 159,283 159,284 156,285 155,285 152,286 128,291 124,292 109,295 88,301 78,303 59,308 52,309 46,311 31,314 20,317 18,317 15,318 11,308 8,301 8,301 6,297 1,285 0,284" id="1312" class="canton" fill="steelblue" stroke-width="1" stroke="white" geotype="canton" geoname="Marseille-1" code_insee="1312" code_departement="13" nom_departement="Bouches-du-Rhône" code_region="93" nom_region="Provence-Alpes-Côte d'Azur"/></svg>