<?xml version="1.0" encoding="utf-8"?>
<svg version="1.1" id="svgmap" xmlns="http://www.w3.org/2000/svg" xmlns:xlink="http://www.w3.org/1999/xlink" x="0px" y="0px" width="100%" height="100%" viewBox="0 0 500 206">
<polygon points="0,54 16,50 26,48 30,47 47,43 49,43 50,43 52,42 52,42 48,30 46,24 44,19 44,17 42,13 44,15 45,15 47,16 51,18 52,18 52,18 53,19 54,19 58,20 64,23 66,24 68,25 73,28 74,28 74,29 82,32 85,33 87,27 89,25 93,16 95,15 97,15 98,13 99,12 102,6 108,6 118,6 126,5 138,4 146,4 167,3 173,3 179,6 184,10 191,15 197,19 197,19 198,20 212,19 212,18 212,18 212,17 212,14 212,14 211,11 211,9 211,6 210,2 211,1 217,1 222,1 230,0 238,0 241,1 237,9 237,17 276,15 299,14 304,21 306,21 306,21 308,21 307,20 315,16 315,16 324,19 324,20 325,21 326,21 326,21 329,21 339,24 339,24 353,29 359,30 369,34 371,34 372,34 372,35 376,36 377,36 388,40 395,42 395,50 394,51 388,51 388,60 392,60 404,62 424,70 431,72 434,72 456,72 464,71 473,70 487,72 493,74 500,76 500,88 498,91 495,94 493,96 494,120 490,119 476,121 454,130 444,135 432,139 423,143 415,144 402,144 391,144 382,145 376,145 367,146 356,148 347,149 346,149 344,148 338,148 333,150 325,151 320,145 313,137 311,134 306,135 304,139 300,145 292,155 291,156 287,156 287,160 283,165 283,165 282,164 279,167 282,173 274,177 273,174 268,165 264,158 266,157 266,157 262,154 257,152 254,150 251,148 250,147 248,147 246,146 243,144 242,143 240,142 240,142 238,142 234,143 231,143 225,143 221,144 221,145 221,147 223,153 229,168 228,171 228,177 227,186 227,188 227,189 226,196 225,206 206,196 184,184 181,182 150,165 147,163 136,156 131,154 130,154 119,148 99,147 86,138 84,138 76,139 72,132 71,132 60,135 49,137 36,140 35,137 34,135 29,122 25,113 24,111 22,107 20,101 19,100 19,98 16,92 13,86 11,80 9,76 9,74 8,73 8,72 4,64 3,62 0,54" id="1322" class="canton" fill="steelblue" stroke-width="1" stroke="white" geotype="canton" geoname="Marseille-11" code_insee="1322" code_departement="13" nom_departement="Bouches-du-Rhône" code_region="93" nom_region="Provence-Alpes-Côte d'Azur"/></svg>