<?xml version="1.0" encoding="utf-8"?>
<svg version="1.1" id="svgmap" xmlns="http://www.w3.org/2000/svg" xmlns:xlink="http://www.w3.org/1999/xlink" x="0px" y="0px" width="100%" height="100%" viewBox="0 0 500 376">
<polygon points="13,0 38,10 41,11 76,25 98,34 99,34 121,40 131,37 144,33 161,27 170,25 180,22 191,19 203,18 205,18 222,17 236,19 244,21 247,22 251,23 256,25 266,28 269,28 278,29 287,30 295,31 300,33 303,34 307,34 320,35 324,35 332,37 338,38 353,50 354,50 360,54 366,58 376,65 383,68 392,71 393,72 408,76 416,79 418,80 420,80 429,83 435,85 440,88 444,90 448,92 449,93 452,94 455,94 457,95 463,96 465,97 476,102 480,103 480,103 487,105 491,107 500,110 499,112 497,116 492,124 491,128 491,128 491,128 490,128 490,129 489,131 489,131 488,132 488,132 488,132 487,134 486,134 486,135 486,135 486,135 485,135 484,135 484,135 480,137 477,138 472,139 472,141 472,141 472,142 471,144 471,146 469,148 470,149 470,149 470,150 470,150 469,151 472,156 475,159 473,161 473,162 476,165 472,172 465,183 467,186 470,189 472,192 475,194 475,195 473,196 473,198 474,199 476,199 482,203 485,204 487,205 487,209 489,211 488,212 488,213 488,220 488,220 489,221 489,222 497,229 496,229 488,230 484,231 477,231 473,229 468,228 460,225 452,224 446,225 443,224 440,223 434,224 428,224 420,225 423,234 414,249 405,263 396,267 390,265 387,267 380,270 378,271 368,279 375,281 380,281 381,281 387,285 390,285 397,284 400,285 406,285 408,286 411,290 416,294 422,294 423,294 423,295 421,295 415,298 415,300 413,302 416,303 418,305 420,305 422,307 430,309 428,312 430,313 433,313 437,314 437,316 440,318 440,322 452,329 450,331 447,334 445,335 443,335 442,337 442,340 442,342 439,342 439,345 432,345 434,346 434,347 436,348 437,349 438,351 439,353 441,356 441,360 440,361 438,360 436,362 434,364 432,366 431,369 430,371 430,372 427,372 426,370 424,368 422,367 417,368 407,368 408,375 405,376 392,376 392,374 390,373 389,372 385,371 385,368 385,368 385,367 384,365 383,364 383,360 385,352 385,349 385,348 385,348 381,348 377,349 375,346 370,347 369,345 364,347 358,347 353,346 353,339 337,336 330,335 318,324 314,322 306,320 302,320 294,317 285,313 273,309 263,308 250,311 241,304 236,299 235,296 234,295 233,293 232,292 230,291 228,290 228,289 228,289 228,288 228,288 232,283 232,281 233,280 217,278 206,276 198,274 196,275 188,274 182,273 178,273 165,272 152,270 146,269 135,265 125,262 117,259 109,257 104,255 96,253 81,249 77,249 72,248 69,248 58,247 47,246 44,246 43,246 39,244 38,244 39,242 40,240 41,235 35,231 29,229 24,230 23,227 21,228 19,226 22,224 24,223 26,223 27,223 29,223 30,223 29,219 28,220 27,219 27,218 27,217 26,215 25,215 25,212 25,210 23,209 22,208 23,207 23,206 22,205 22,204 21,203 20,201 20,200 20,199 20,198 21,197 23,197 21,195 22,194 20,192 22,192 24,191 24,191 24,191 26,190 28,188 31,186 33,182 36,180 37,179 38,177 40,175 41,175 42,174 43,173 44,172 44,171 46,169 47,168 47,163 45,160 43,157 34,155 31,154 26,151 24,149 24,148 23,147 22,147 22,147 21,145 20,144 19,143 19,143 18,143 17,142 17,142 17,141 16,141 16,141 16,141 15,140 15,139 14,138 14,139 13,139 11,139 11,139 11,138 11,138 11,138 11,137 11,138 10,136 8,133 7,132 6,131 6,131 5,130 5,130 5,129 4,129 3,127 3,126 0,124 5,119 15,116 17,115 13,114 10,113 10,112 10,111 10,109 10,109 10,106 10,105 10,102 11,102 13,100 10,94 10,93 10,92 10,92 9,91 9,91 8,90 7,89 1,85 2,85 5,83 9,83 9,82 12,81 12,81 11,79 11,76 10,74 10,72 10,71 11,71 13,70 13,65 15,65 18,59 20,56 20,55 20,53 20,53 19,53 16,49 16,41 15,31 15,30 14,21 14,20 14,9 13,0" id="1325" class="canton" fill="steelblue" stroke-width="1" stroke="white" geotype="canton" geoname="Pélissanne" code_insee="1325" code_departement="13" nom_departement="Bouches-du-Rhône" code_region="93" nom_region="Provence-Alpes-Côte d'Azur"/></svg>