<?xml version="1.0" encoding="utf-8"?>
<svg version="1.1" id="svgmap" xmlns="http://www.w3.org/2000/svg" xmlns:xlink="http://www.w3.org/1999/xlink" x="0px" y="0px" width="100%" height="100%" viewBox="0 0 500 452">
<polygon points="3,88 10,86 11,86 12,85 12,83 13,83 14,82 15,80 10,71 8,68 8,64 8,63 11,63 10,61 11,61 13,61 21,60 23,59 25,60 30,56 33,54 34,54 37,51 38,50 38,49 39,49 38,47 37,45 35,42 34,42 33,39 33,39 33,39 29,32 27,28 26,25 26,18 26,16 26,15 26,12 26,10 26,7 26,6 26,5 28,4 30,3 32,3 35,3 36,3 37,2 37,2 36,0 44,0 117,16 122,17 151,26 152,29 153,29 154,29 157,30 161,29 162,29 163,27 164,26 166,24 170,24 171,24 172,23 173,22 173,22 174,22 175,22 178,25 179,28 181,35 183,38 183,41 184,43 184,43 185,45 186,46 187,46 187,47 206,40 220,38 234,35 235,36 238,36 243,36 253,32 253,32 254,31 255,30 256,29 257,27 257,26 258,23 259,23 261,23 259,20 259,17 262,16 262,17 264,17 264,16 266,16 266,15 267,15 266,12 270,12 287,9 289,8 290,9 293,9 294,8 295,8 299,8 300,8 300,7 301,8 302,8 303,7 306,9 307,9 310,9 310,10 309,11 310,13 310,14 310,14 310,15 310,16 310,18 311,19 311,19 311,20 311,20 312,20 313,23 315,26 316,28 316,30 316,32 317,35 318,37 319,39 320,42 321,43 321,43 321,45 321,47 322,50 323,52 324,55 324,56 324,58 325,59 325,60 325,62 326,63 328,65 329,66 329,67 330,69 331,70 332,70 332,71 331,72 330,75 330,77 332,80 333,82 334,84 336,86 337,86 336,86 335,88 335,88 334,89 335,90 334,91 335,94 335,94 335,96 334,96 435,173 439,172 443,172 447,171 452,171 452,170 454,171 456,170 456,170 458,170 458,170 459,170 460,169 461,169 468,168 468,169 468,169 468,169 471,170 481,182 489,201 496,215 490,217 489,219 487,222 485,226 484,227 483,228 482,231 482,231 481,231 479,230 478,230 478,230 477,230 477,232 476,232 475,232 476,235 476,235 474,235 473,236 473,237 473,238 473,238 474,239 478,242 480,244 484,251 484,251 485,252 485,254 486,254 490,255 494,257 494,259 494,260 494,261 495,261 495,261 495,263 495,264 494,265 493,265 492,265 491,266 491,266 492,266 493,267 494,268 494,269 493,269 493,269 493,269 490,269 490,269 489,269 488,271 487,272 485,275 481,279 480,280 479,283 481,287 481,287 481,288 481,290 483,292 486,295 488,297 489,299 489,301 491,304 491,306 491,309 491,309 492,310 492,312 493,318 494,325 495,326 497,327 498,328 499,328 500,330 500,334 500,334 497,337 496,338 496,338 496,338 495,339 495,340 495,342 495,345 495,346 494,350 493,350 488,352 486,353 485,355 485,356 484,358 486,360 486,361 491,362 493,363 493,363 492,365 491,367 491,368 493,370 493,371 491,373 490,374 488,373 486,372 485,372 481,375 479,376 478,378 475,380 474,384 468,385 467,386 466,386 464,387 463,388 462,389 461,392 460,393 459,394 457,394 455,394 453,394 451,394 450,394 449,395 450,398 452,399 453,400 452,401 449,402 446,407 445,410 440,413 438,414 438,416 437,417 438,419 437,420 435,421 435,422 435,422 435,424 435,424 435,425 434,425 435,426 434,426 433,426 430,428 430,427 430,426 429,426 428,426 429,427 429,428 429,428 428,428 427,428 425,429 425,429 424,430 425,430 425,430 424,431 422,431 422,432 422,432 423,433 423,433 423,433 423,433 420,433 420,434 419,434 419,434 419,435 419,435 419,435 420,435 420,435 421,435 421,435 421,435 421,435 421,436 420,436 420,436 419,436 418,436 418,436 417,437 417,437 417,437 417,437 416,437 415,438 414,437 413,438 412,438 412,441 411,441 411,442 410,442 410,443 409,443 409,444 409,444 408,444 408,444 408,443 408,443 408,437 407,436 406,435 406,434 405,434 406,432 406,432 407,432 406,431 406,430 405,430 403,430 402,430 401,430 401,431 400,431 400,431 400,432 400,432 400,433 400,433 400,433 401,435 401,435 402,435 402,435 402,435 403,435 402,435 402,435 402,435 402,435 401,435 401,435 400,435 399,435 399,435 399,436 398,436 397,437 396,437 394,436 392,437 390,438 383,437 379,437 378,437 378,436 377,436 376,435 374,436 373,435 372,435 371,435 371,435 371,435 371,435 371,435 371,434 372,434 372,432 372,432 371,432 371,432 371,432 372,431 372,431 372,431 373,430 374,430 374,427 371,425 370,425 369,424 369,424 368,424 367,424 367,424 366,424 365,425 365,425 365,425 364,425 364,425 364,425 363,425 363,425 363,425 361,425 359,425 359,425 354,425 354,424 353,424 353,424 353,425 353,425 353,425 353,425 353,426 352,426 351,426 349,428 348,429 348,429 348,429 346,428 345,427 346,427 346,427 346,427 345,427 345,427 344,427 343,427 342,426 341,426 339,427 338,428 334,428 333,429 332,429 333,430 335,432 335,433 335,436 334,436 334,439 333,440 332,442 332,442 331,443 332,443 332,443 333,443 332,444 332,444 331,444 331,444 331,444 330,445 329,445 329,444 329,444 330,444 331,444 331,443 330,443 330,440 330,439 329,439 328,438 328,438 327,438 327,439 325,440 324,441 324,441 323,441 322,441 321,441 320,440 319,439 317,438 314,437 313,437 312,438 312,439 312,440 313,441 314,441 315,442 316,443 316,444 316,445 316,446 316,446 316,446 315,447 315,447 314,447 313,448 312,448 311,448 311,448 311,447 311,447 311,446 311,446 310,446 309,447 309,447 310,448 311,448 310,451 309,452 308,452 306,452 305,452 303,452 302,452 302,451 297,450 296,450 295,449 295,449 295,448 295,448 294,447 293,447 293,446 293,446 293,446 292,446 292,446 291,445 290,445 290,445 289,444 289,444 289,444 288,443 291,441 292,440 292,440 292,439 293,438 296,436 296,435 296,435 296,435 297,431 298,430 298,429 299,429 301,427 299,426 296,424 293,423 290,423 289,424 287,427 287,427 287,427 286,427 287,427 286,428 286,428 286,428 285,428 285,429 285,429 284,429 285,430 284,430 284,431 284,431 284,432 284,432 283,433 282,435 282,435 282,435 281,435 280,435 280,435 280,435 280,436 280,436 279,436 279,436 279,435 278,435 278,436 277,436 277,436 277,437 276,437 276,437 275,437 276,437 276,436 275,436 274,436 274,436 274,435 273,435 273,435 273,434 273,434 273,434 273,434 273,434 273,434 273,433 272,432 272,431 271,431 271,431 271,431 271,431 270,429 271,429 271,427 270,426 270,426 268,425 268,425 267,426 267,426 266,427 266,427 266,428 266,428 265,429 264,430 265,430 264,431 264,430 264,430 263,430 263,430 263,430 262,430 261,430 261,430 261,430 261,429 261,429 260,429 260,429 259,429 258,428 257,428 256,428 256,427 256,427 255,428 254,428 254,429 254,430 254,430 255,431 256,431 256,431 259,432 258,432 260,433 261,432 261,432 260,433 261,433 262,432 262,432 261,434 261,434 263,434 263,433 264,432 265,433 266,433 266,432 267,432 267,433 267,433 266,433 265,433 264,434 264,434 263,435 263,435 263,436 263,437 264,437 264,437 264,437 264,438 264,439 264,440 264,441 262,441 262,441 256,437 254,436 254,436 253,436 252,435 252,435 251,435 250,434 248,434 246,433 244,432 243,432 241,431 235,424 229,421 227,420 225,419 224,418 224,418 224,418 224,418 223,418 223,418 222,418 221,418 221,417 222,414 222,414 221,413 221,413 221,412 221,411 221,411 221,411 222,411 222,410 222,410 222,410 223,409 223,409 222,409 221,409 220,408 220,408 220,409 221,410 221,410 220,410 219,411 218,411 218,411 217,411 214,406 215,405 213,406 212,405 211,404 211,404 211,403 210,403 210,402 209,401 207,401 206,401 206,400 204,401 203,400 202,400 202,401 200,400 196,398 193,397 193,396 192,394 191,394 189,392 189,392 185,387 179,383 178,386 177,385 177,384 178,382 177,381 177,379 178,378 180,379 180,378 180,377 180,377 179,376 179,375 179,375 178,374 176,373 174,370 174,369 174,368 174,367 175,367 176,367 175,367 175,368 176,368 177,368 177,367 177,366 178,366 179,366 179,366 179,366 179,367 180,367 181,368 182,368 182,368 183,368 183,369 184,369 186,369 188,369 189,369 190,370 191,371 192,372 192,372 194,373 195,374 196,374 196,373 196,373 196,373 197,373 196,373 197,372 197,372 197,373 199,373 200,372 200,371 200,371 199,370 199,369 200,369 200,369 200,369 200,369 200,368 200,368 201,368 201,368 202,367 201,366 201,366 200,366 200,366 199,366 198,366 196,365 194,365 194,365 192,364 191,364 190,363 190,362 190,361 188,360 187,359 187,357 188,356 189,356 190,356 189,356 189,355 189,354 189,353 190,352 191,351 192,351 192,350 191,350 191,349 193,348 193,348 193,347 193,345 194,344 195,344 195,344 196,345 196,346 196,347 196,348 197,348 198,348 199,348 200,348 201,348 204,346 204,346 203,345 203,345 203,344 202,343 201,342 201,342 201,341 202,339 204,338 203,336 203,335 202,335 201,335 200,335 199,335 198,335 198,335 194,336 193,336 192,336 192,337 191,336 191,336 191,336 192,335 192,336 194,334 195,332 196,332 196,331 195,330 195,330 194,329 194,329 193,329 193,330 190,332 188,333 187,332 185,333 184,333 184,332 184,332 182,331 180,331 181,331 181,330 179,330 174,328 173,328 169,329 168,329 167,332 167,332 168,333 170,337 171,337 171,337 171,337 171,337 170,337 170,337 166,332 164,330 164,328 164,328 165,328 165,328 166,328 168,328 172,327 171,326 171,324 171,322 172,320 171,320 171,320 168,319 166,317 166,317 165,316 165,316 164,316 163,315 161,314 161,313 161,313 160,312 160,312 161,313 165,312 166,312 168,312 169,312 171,311 172,311 172,310 171,309 170,309 168,309 168,309 163,310 162,310 162,311 162,310 160,310 160,311 158,310 157,310 155,310 154,308 154,308 155,307 156,306 157,306 158,305 158,304 156,302 156,302 150,301 148,300 146,300 145,300 143,300 142,299 143,299 145,299 148,298 151,296 152,296 153,295 153,294 152,294 152,294 151,293 151,292 151,292 150,292 148,292 145,292 145,292 145,292 145,291 149,290 149,289 151,288 152,288 153,288 159,288 163,288 162,286 159,282 157,283 156,283 157,283 156,284 157,286 157,286 157,287 157,287 156,284 156,283 154,283 152,283 152,283 153,284 153,284 152,284 152,283 152,283 151,284 151,285 150,285 150,285 150,285 150,285 148,284 147,283 145,283 144,283 143,283 142,283 142,284 142,284 141,284 141,284 140,284 140,284 140,285 140,284 140,284 139,284 139,285 139,285 138,285 138,285 139,284 139,284 139,283 138,283 137,282 137,282 137,281 137,281 136,281 135,280 134,279 134,279 134,279 134,278 135,277 135,277 135,276 134,275 133,274 133,273 132,272 132,271 130,269 129,269 128,269 126,269 125,269 125,268 125,267 124,267 124,267 123,267 123,267 123,266 122,266 122,266 122,266 121,266 119,265 119,265 118,265 118,264 117,265 117,265 117,265 117,264 114,264 114,263 114,263 114,262 112,262 110,261 110,261 109,261 109,260 108,259 109,259 108,258 108,259 108,256 107,255 107,254 108,254 107,251 108,250 109,250 110,249 111,249 110,248 110,248 109,247 109,248 109,248 109,248 109,247 109,247 109,246 109,246 103,246 99,243 99,242 99,242 98,241 97,240 97,240 97,240 97,240 98,240 98,240 98,240 97,239 97,239 97,238 96,238 97,237 97,237 97,237 96,237 97,236 96,236 96,235 96,235 96,235 94,234 94,234 94,234 94,234 94,233 94,233 96,233 96,233 96,232 95,232 93,230 93,230 90,228 89,227 88,227 87,226 87,227 87,227 86,226 85,226 85,226 84,226 83,226 82,225 82,224 82,223 83,223 84,222 83,221 83,220 82,220 81,220 81,220 80,220 78,221 76,223 75,223 74,223 73,222 71,221 71,221 71,220 71,219 71,218 70,217 70,216 70,216 72,215 73,215 73,215 74,215 77,216 78,215 82,214 84,214 84,213 84,212 80,211 79,211 79,211 78,211 77,211 76,211 75,211 75,212 74,212 74,211 73,211 72,211 71,210 70,209 70,208 69,207 68,207 68,207 68,207 68,207 67,207 67,207 66,207 65,206 64,205 64,204 64,204 64,203 63,202 61,200 61,199 60,200 57,198 56,197 56,197 56,195 54,195 52,193 52,193 52,192 52,192 53,192 55,192 57,192 58,193 58,193 59,193 60,193 61,193 61,193 61,192 61,192 59,189 59,189 59,189 60,188 60,188 61,187 63,186 63,187 63,187 63,187 62,187 62,187 62,187 63,188 62,188 62,188 61,188 61,188 60,189 60,189 60,189 60,189 62,192 64,194 64,193 64,194 64,194 66,195 66,195 66,195 66,195 67,196 68,196 71,195 69,193 69,193 68,192 68,192 67,192 67,191 67,191 67,191 67,191 68,191 68,191 68,192 68,192 70,193 70,193 71,194 72,194 71,192 70,191 71,191 71,190 72,190 70,188 70,188 69,187 69,187 69,187 69,187 69,187 69,186 69,187 69,187 69,187 70,187 70,187 71,188 71,188 72,189 75,188 74,184 71,182 71,182 71,182 73,181 77,185 77,185 77,185 79,187 79,187 80,187 81,186 87,191 91,189 91,188 91,188 90,187 89,187 89,187 89,186 87,185 87,185 84,183 85,183 84,182 83,182 83,181 83,181 82,180 81,180 81,180 81,180 82,180 82,180 82,180 83,181 84,181 84,181 84,181 85,182 85,182 88,184 88,185 89,186 90,186 90,186 90,187 91,188 92,188 93,188 97,185 97,185 96,184 95,183 95,184 94,183 94,183 93,182 92,182 90,180 90,179 89,178 89,178 88,178 88,178 87,177 87,177 86,177 87,176 87,176 87,176 87,177 89,178 89,178 89,178 89,178 90,179 91,179 93,181 93,181 95,183 95,183 95,183 95,183 96,184 97,185 98,185 102,182 102,181 102,181 102,180 101,180 101,180 101,180 100,179 100,179 96,176 97,175 96,175 95,175 95,175 95,174 93,173 93,173 93,173 93,173 93,172 93,172 93,172 94,172 94,173 94,173 95,174 96,174 96,174 96,175 97,175 97,175 101,178 101,179 102,179 102,179 102,180 102,180 103,180 103,180 104,181 112,176 108,172 107,172 106,171 106,171 106,172 106,172 106,172 106,172 106,173 107,172 107,173 107,173 106,173 106,173 106,173 106,172 106,172 105,172 105,171 104,171 104,171 104,171 104,171 104,171 105,171 105,171 105,171 105,171 106,171 106,171 105,170 99,165 98,165 99,166 98,166 97,165 98,165 98,165 99,165 96,162 96,162 96,162 96,162 96,162 96,161 96,161 96,161 97,161 99,161 99,161 124,162 124,157 122,157 120,157 119,156 119,156 118,157 118,156 116,156 115,156 115,156 114,156 114,157 113,156 113,156 112,156 111,156 110,156 109,156 108,156 108,156 108,156 107,156 108,156 98,155 98,156 97,156 96,156 90,156 90,156 87,155 86,156 85,155 85,156 76,156 76,155 76,155 76,155 85,155 85,152 78,151 78,151 77,151 76,151 75,151 75,151 74,151 74,151 73,151 73,151 67,151 66,151 66,152 65,152 65,161 64,161 63,161 62,161 62,161 61,161 60,161 60,161 60,161 59,160 59,160 58,158 57,157 56,158 56,158 54,161 53,162 49,162 49,162 49,161 49,161 49,161 50,161 53,162 53,161 54,161 55,159 55,159 56,158 56,157 54,157 53,157 51,157 50,155 49,155 49,153 47,153 47,155 47,155 42,156 43,160 43,160 42,161 46,161 46,161 47,161 47,161 46,162 42,161 42,168 41,168 41,169 41,171 41,174 42,174 44,176 44,176 43,177 42,177 41,178 41,180 41,181 42,182 42,182 43,182 48,183 49,182 50,182 51,183 51,183 51,184 50,184 48,184 43,184 40,183 39,182 38,180 36,179 34,178 33,177 31,176 30,174 29,174 27,172 27,172 25,170 24,168 23,168 22,168 22,168 19,167 19,167 18,167 16,166 13,165 12,165 11,164 11,164 10,163 9,162 9,162 9,161 9,161 9,160 9,159 10,159 11,158 11,158 12,157 13,157 13,156 14,156 14,156 15,155 15,155 14,155 15,155 15,154 16,154 16,154 17,154 18,154 19,154 19,154 19,154 20,154 20,153 21,153 21,152 21,152 22,151 22,151 21,150 21,150 21,149 21,149 21,148 22,148 22,148 23,147 22,146 23,146 22,146 22,146 22,146 23,146 23,145 22,145 22,144 22,143 23,143 23,143 22,141 22,141 21,140 21,140 21,140 20,140 19,139 19,139 19,139 19,137 19,136 19,136 18,135 18,134 18,134 18,133 17,133 17,132 17,132 16,130 15,128 14,127 13,125 13,125 12,125 13,125 12,124 10,123 9,124 9,124 8,124 8,123 9,123 8,123 8,122 7,122 6,122 6,121 6,121 5,120 4,121 3,120 2,120 1,118 1,118 1,117 1,115 0,115 1,114 0,113 0,113 0,113 0,111 0,110 1,109 3,108 4,108 7,107 7,107 8,106 9,105 9,104 9,103 9,103 8,102 8,101 8,100 8,99 8,97 8,96 8,95 7,95 7,94 7,94 8,94 8,93 7,92 6,91 5,90 3,88" id="1324" class="canton" fill="steelblue" stroke-width="1" stroke="white" geotype="canton" geoname="Martigues" code_insee="1324" code_departement="13" nom_departement="Bouches-du-Rhône" code_region="93" nom_region="Provence-Alpes-Côte d'Azur"/></svg>