<?xml version="1.0" encoding="utf-8"?>
<svg version="1.1" id="svgmap" xmlns="http://www.w3.org/2000/svg" xmlns:xlink="http://www.w3.org/1999/xlink" x="0px" y="0px" width="100%" height="100%" viewBox="0 0 500 205">
<polygon points="29,103 32,102 40,100 40,100 40,100 44,100 45,100 45,100 45,99 45,99 45,99 47,99 47,99 49,98 49,98 51,99 51,99 52,99 54,98 56,98 56,99 59,99 62,99 63,99 64,99 64,98 64,98 65,97 69,90 71,87 71,86 71,86 72,86 73,85 73,85 75,83 75,83 75,82 75,82 75,82 76,82 77,82 77,81 77,81 78,81 78,80 80,79 83,78 83,77 83,77 82,77 56,72 59,65 57,64 56,64 55,64 55,62 55,61 55,60 54,59 53,57 52,57 52,57 52,57 52,56 52,56 52,56 50,55 49,55 48,55 47,55 48,54 49,52 50,50 51,50 53,47 54,46 54,46 56,44 57,42 59,40 59,40 60,39 60,39 61,39 61,39 61,38 61,38 61,38 61,37 62,36 62,36 62,35 62,34 62,32 62,30 62,29 62,28 62,28 62,26 62,26 62,25 63,24 63,23 63,21 63,20 63,17 63,15 63,14 63,13 67,13 71,12 72,12 75,12 78,12 79,12 80,12 80,12 80,12 82,10 82,10 82,11 82,11 82,11 83,11 83,11 83,12 83,12 83,12 84,12 84,12 84,12 86,12 86,12 86,12 87,12 87,12 88,12 89,12 89,12 89,13 90,13 90,13 90,13 91,13 91,13 91,13 92,13 92,14 93,14 93,14 93,14 94,15 95,15 96,15 96,15 98,15 98,15 99,14 99,14 100,13 100,13 100,13 100,13 100,13 100,13 101,13 101,13 101,13 101,13 102,13 102,13 101,14 101,14 101,14 102,14 103,14 103,14 105,18 106,20 107,22 107,23 108,24 108,24 108,24 109,24 109,24 109,25 110,26 111,27 111,27 111,28 112,28 112,28 112,28 113,28 113,28 115,32 116,31 117,31 118,31 118,30 119,29 120,29 121,28 122,27 122,27 123,27 124,27 125,27 126,27 128,26 129,26 129,26 129,26 130,26 130,26 130,26 131,25 132,24 133,24 133,24 134,24 134,24 134,23 135,23 135,23 136,23 136,23 136,23 137,23 138,23 138,23 139,22 139,22 140,22 140,22 140,22 141,22 141,22 142,22 144,22 146,23 146,23 146,23 147,23 147,23 147,22 148,22 149,22 149,22 149,22 149,22 150,21 150,21 150,21 151,21 151,21 151,21 151,20 152,20 152,20 153,20 153,20 153,20 154,20 154,20 154,20 154,20 154,19 155,19 155,19 156,19 157,18 157,18 158,17 159,17 159,17 159,17 160,17 160,16 160,16 162,15 162,15 163,14 163,14 164,14 164,13 164,13 164,13 165,12 165,12 165,12 165,12 165,11 166,11 166,10 166,10 166,10 166,10 166,9 166,9 166,9 166,9 167,8 167,7 167,7 168,5 168,4 172,5 171,6 172,6 172,6 174,7 175,7 174,7 174,8 174,8 175,8 177,8 177,8 178,8 178,8 179,7 180,6 180,6 180,6 182,6 183,5 183,5 185,5 187,5 189,5 189,5 189,5 189,5 189,6 191,5 191,5 191,5 193,6 193,6 193,7 194,7 195,7 197,7 199,7 201,6 202,6 204,5 206,5 207,5 209,5 219,4 219,4 219,3 220,2 220,2 220,2 221,0 221,0 226,5 229,7 231,8 233,9 233,9 234,9 235,9 237,9 239,10 240,10 240,10 241,10 241,10 242,10 243,10 246,11 252,11 252,11 252,11 255,11 260,12 260,12 261,18 261,18 262,23 262,23 262,27 262,27 263,27 265,27 266,27 266,27 266,27 268,27 268,27 268,27 268,27 268,27 269,27 269,28 269,28 269,28 269,28 269,28 269,28 269,28 269,28 269,28 269,28 270,28 270,28 270,28 270,28 270,28 270,28 270,28 270,28 270,28 270,28 270,28 270,29 271,29 271,29 271,29 271,29 271,29 271,29 271,29 271,29 271,29 271,29 271,29 272,29 272,30 272,30 272,30 272,30 272,30 272,30 272,30 273,30 273,30 273,30 273,30 273,30 273,30 273,30 274,30 274,30 274,30 275,30 275,30 275,30 275,30 275,30 275,30 275,30 275,30 275,30 276,31 276,31 277,31 277,31 277,31 277,31 277,31 277,31 278,31 278,31 278,31 278,32 278,32 278,32 278,32 279,33 279,33 279,33 280,33 280,33 280,34 280,34 280,34 280,34 280,33 281,33 281,33 281,33 282,33 282,33 282,33 282,33 283,33 283,33 283,34 284,34 284,34 285,34 286,35 288,35 290,39 291,39 293,39 293,39 293,39 294,39 295,39 295,39 296,39 298,39 298,39 298,40 298,40 298,40 298,41 298,41 298,41 298,41 298,41 298,42 298,42 298,42 299,43 299,43 299,43 299,43 299,43 299,44 300,44 302,43 303,43 303,43 304,43 306,43 306,43 306,43 307,43 307,43 310,42 310,42 311,42 312,42 313,42 316,41 316,41 317,40 318,40 319,39 319,39 320,38 320,38 322,40 322,40 338,36 338,36 338,36 339,35 340,35 342,35 344,34 344,34 345,34 351,32 356,30 357,30 357,30 357,30 358,30 358,30 359,30 360,30 360,30 360,30 360,30 360,30 360,29 360,29 360,29 360,29 360,29 360,29 360,29 360,28 361,27 361,27 361,27 361,27 362,27 362,27 362,27 362,27 362,27 362,27 362,27 362,27 362,26 362,26 362,26 363,26 363,26 363,26 363,26 363,26 364,26 364,26 364,26 364,27 364,27 364,27 364,27 364,27 364,27 365,27 365,27 365,27 365,27 365,27 365,27 365,27 365,27 366,27 366,27 366,27 366,27 366,27 366,28 366,28 366,28 366,28 367,28 367,28 367,28 367,28 367,28 367,28 367,28 367,28 367,28 367,28 368,28 368,28 368,28 368,27 368,27 368,27 369,26 369,26 369,26 370,26 370,26 370,26 370,26 370,27 370,27 370,27 371,26 371,26 371,26 371,26 371,26 371,26 371,26 371,25 371,25 371,25 371,25 372,25 372,24 373,24 373,24 373,23 373,23 374,23 374,23 374,23 374,23 374,23 374,23 374,23 374,23 375,23 375,23 375,23 375,23 376,23 376,22 376,22 376,22 376,22 376,22 377,22 377,22 377,21 378,20 378,20 378,20 378,20 378,20 378,20 378,20 378,20 378,20 379,20 379,20 379,20 379,20 379,20 379,20 379,20 379,20 379,20 380,20 380,20 380,20 380,20 380,20 380,20 380,20 380,20 380,20 380,19 380,19 380,19 381,19 381,19 381,19 381,19 381,19 381,19 381,18 381,18 381,18 381,18 381,18 382,18 382,18 382,17 382,17 382,17 382,17 382,17 382,17 382,17 382,17 382,17 382,16 382,16 382,16 382,16 382,16 382,16 382,16 383,16 383,15 384,15 384,15 384,14 384,14 385,14 385,14 385,13 385,13 386,13 387,12 388,12 388,12 388,11 389,11 390,10 396,19 397,24 398,28 397,31 397,32 397,33 398,35 399,37 400,38 400,39 401,39 403,41 404,41 405,42 406,42 410,44 411,44 414,45 414,46 415,46 415,46 419,48 426,51 446,59 480,72 480,78 480,84 480,85 481,90 481,91 481,97 481,102 484,104 484,104 484,104 484,106 484,106 483,108 481,111 479,111 480,115 478,115 478,115 478,116 478,117 478,118 479,120 479,121 479,121 477,122 477,122 475,122 473,123 473,123 476,126 477,127 477,127 477,127 478,128 478,128 478,129 478,129 480,133 478,134 478,134 478,136 478,136 478,138 478,138 478,139 478,140 478,141 479,141 482,141 481,142 475,144 472,147 473,148 474,149 474,150 475,150 475,151 475,151 475,151 476,151 476,152 476,153 478,155 478,155 478,155 478,155 479,155 479,156 479,156 479,156 479,156 480,156 480,156 481,156 481,157 481,157 482,157 482,158 482,158 482,158 482,158 483,158 483,158 484,159 484,159 484,160 485,161 485,161 486,161 486,162 486,162 488,163 491,165 492,166 498,167 499,169 500,171 500,173 499,174 498,175 498,176 498,177 497,177 496,178 496,178 495,179 494,180 494,181 492,182 491,185 489,186 487,187 487,187 486,188 486,188 485,188 484,188 485,189 485,190 486,191 485,191 484,192 484,192 484,193 484,194 484,195 485,195 485,196 486,197 486,197 485,198 486,198 487,199 487,200 487,202 488,202 488,203 488,204 488,204 487,204 487,204 486,204 484,204 483,204 482,205 482,205 481,205 480,204 480,204 479,204 479,204 478,204 477,204 477,204 477,204 476,204 476,204 476,204 475,205 473,205 473,205 472,205 472,205 471,205 471,205 470,205 470,205 469,205 469,205 469,205 469,205 468,205 468,205 468,205 468,205 468,205 467,205 466,205 465,205 464,205 464,205 463,205 462,205 462,205 462,205 462,205 461,205 461,205 461,205 461,205 460,205 460,205 460,205 459,205 459,204 459,204 458,204 458,204 458,204 458,203 458,203 459,203 459,203 459,203 459,203 459,203 459,203 460,203 459,202 459,202 458,202 458,202 458,202 458,202 457,202 457,202 457,201 457,201 456,200 456,199 456,199 456,199 456,199 456,198 456,198 456,197 455,197 455,197 455,196 455,195 455,195 455,195 455,195 455,194 455,194 455,194 455,193 455,193 455,192 455,192 454,192 455,191 455,191 455,191 455,191 455,191 455,191 455,191 454,190 453,189 453,189 453,189 452,189 451,188 452,188 452,188 451,188 451,188 450,188 450,188 450,188 450,188 449,187 449,187 449,187 449,186 449,186 449,186 449,186 449,186 449,185 449,185 449,185 448,185 448,185 448,185 448,185 447,183 447,183 447,183 447,183 446,182 446,182 444,182 443,182 443,183 442,183 442,183 442,184 441,184 441,183 441,183 441,183 441,183 441,183 441,182 441,182 441,182 440,182 440,182 439,182 439,182 439,182 439,182 439,182 439,182 439,182 439,182 438,181 438,180 438,180 438,180 439,180 439,180 439,180 440,180 440,180 440,180 440,180 440,180 440,180 440,180 440,179 440,179 440,179 440,179 440,179 441,179 441,179 441,179 441,178 442,178 442,178 442,178 442,178 443,178 442,178 444,178 445,178 445,178 445,178 445,178 445,178 445,178 445,178 445,178 445,178 445,179 445,179 446,179 446,179 447,179 446,178 447,178 448,178 448,178 448,178 448,178 449,178 449,178 449,178 449,178 449,178 449,178 450,178 450,178 450,178 450,178 450,178 450,178 451,178 451,178 451,177 452,178 453,177 453,177 453,177 453,176 453,176 453,176 453,175 453,175 453,174 453,174 452,173 452,173 452,172 452,172 452,171 451,170 451,169 451,169 451,168 450,167 450,167 450,166 451,165 451,164 451,164 450,164 450,163 449,162 448,161 448,160 448,160 448,159 448,159 448,159 448,159 448,159 448,159 448,158 448,158 448,158 448,157 448,156 449,154 449,152 449,151 450,150 450,150 449,149 449,147 447,147 441,147 436,147 431,148 429,148 428,148 428,148 426,150 423,152 420,154 416,157 402,163 395,167 385,172 377,176 375,176 352,185 322,174 322,174 322,174 324,172 324,171 325,171 328,166 330,165 330,165 330,164 330,164 330,164 330,164 330,164 330,163 330,163 331,163 331,163 331,163 331,162 331,162 332,160 333,159 334,157 335,156 335,156 335,155 335,154 336,153 336,153 336,152 336,151 336,149 336,149 336,148 336,146 336,146 336,145 336,145 334,136 333,125 336,114 333,114 333,114 332,114 332,114 331,114 330,114 330,114 329,114 329,114 327,113 325,113 323,112 322,112 321,112 320,111 318,111 318,112 318,121 316,122 316,124 317,125 318,126 318,147 318,148 318,148 318,151 318,155 318,160 319,163 319,163 319,164 319,164 319,164 319,165 319,165 319,165 319,165 319,165 319,166 319,166 319,166 319,167 319,167 319,168 319,168 319,168 319,169 319,169 319,169 320,169 320,170 320,170 320,171 320,172 320,173 320,173 312,171 311,171 311,170 310,170 310,170 310,170 310,170 309,170 308,169 307,169 307,169 307,169 305,169 305,168 305,168 305,168 305,168 304,168 304,168 301,167 301,167 300,167 300,167 298,166 297,166 297,166 297,166 297,166 296,166 296,165 296,165 295,165 295,165 294,165 294,165 294,165 294,165 294,165 293,164 293,164 292,164 292,164 291,164 290,163 289,163 287,162 287,162 286,160 286,160 287,160 285,154 285,154 285,154 285,154 285,154 284,150 283,145 283,144 283,145 279,145 279,145 285,160 286,162 283,161 283,161 282,161 282,161 279,161 268,162 261,162 252,161 251,161 245,159 245,159 244,159 244,158 243,158 242,158 242,158 242,158 241,157 241,157 238,156 237,156 236,156 236,156 236,156 235,155 235,155 233,155 233,155 232,155 232,155 232,154 231,154 231,154 230,154 230,154 229,154 229,153 226,153 225,153 225,153 225,153 224,153 224,154 224,154 224,154 223,154 223,154 223,154 222,154 222,154 221,154 220,154 220,154 220,154 218,154 217,154 216,154 214,154 214,154 214,154 213,154 212,154 212,154 211,154 210,154 210,154 209,153 209,153 209,153 209,153 209,153 209,153 209,153 209,153 208,153 208,153 208,153 208,153 207,153 207,153 207,153 207,153 207,153 206,153 206,153 205,153 204,153 204,153 204,153 204,153 204,153 204,153 203,153 203,153 203,153 203,153 203,153 202,153 202,153 202,153 202,153 202,153 202,153 202,153 201,153 201,153 201,153 201,153 200,153 200,153 200,153 199,152 199,152 199,152 199,152 198,152 198,152 198,152 198,152 198,152 198,152 197,152 197,152 197,152 197,152 197,152 197,152 197,152 197,152 197,152 196,152 196,152 196,152 196,152 196,152 196,152 195,152 195,152 195,152 195,152 195,152 195,152 195,152 195,152 194,152 194,152 194,152 194,152 194,152 194,152 194,152 194,152 194,152 194,152 194,152 194,151 194,151 193,151 193,151 193,151 193,151 193,151 193,151 192,151 191,151 191,151 191,151 190,151 190,151 189,151 188,151 188,151 187,151 187,151 187,151 186,151 186,151 186,151 185,152 184,152 184,152 184,152 184,152 184,152 183,153 176,152 174,152 173,153 170,153 169,153 169,153 169,153 169,153 169,153 169,153 169,153 169,153 169,153 169,153 169,153 168,153 168,153 168,153 168,153 168,153 168,152 168,152 167,152 167,152 167,152 167,152 167,153 167,153 167,153 166,153 166,153 166,153 166,153 166,153 166,153 165,153 165,153 164,153 164,153 164,153 163,152 162,152 162,152 161,152 161,152 161,152 161,152 160,152 160,152 160,152 159,152 159,152 159,152 158,152 157,152 156,152 156,152 156,152 156,152 155,152 155,152 155,152 154,152 154,153 153,153 153,154 153,154 152,154 151,154 151,154 150,154 150,154 150,153 150,153 149,153 149,153 149,153 149,153 148,153 148,153 148,153 147,153 147,153 147,153 146,153 146,152 145,152 144,152 144,151 143,151 143,151 142,151 142,150 141,150 141,150 141,150 140,150 140,150 140,150 140,150 140,150 140,150 140,150 139,150 138,150 138,150 138,150 137,150 137,150 137,149 137,149 137,149 137,149 136,149 136,149 136,149 136,149 136,149 136,149 135,148 135,148 135,148 134,148 134,148 132,149 132,149 132,149 131,149 131,149 130,149 129,148 128,148 128,148 127,148 126,148 125,147 125,147 124,147 124,146 123,146 122,146 121,146 121,145 121,145 120,145 120,144 119,144 118,144 117,144 117,143 117,143 117,141 117,141 117,140 117,140 117,140 116,140 109,140 109,136 107,136 107,137 106,137 106,138 74,135 64,134 63,134 63,134 61,133 59,132 58,132 49,130 46,130 41,131 40,132 39,135 38,135 34,137 33,137 18,136 18,135 18,135 17,135 16,135 16,133 16,132 17,131 17,131 18,130 18,129 18,128 18,127 18,127 18,126 18,125 18,125 18,124 15,124 15,123 14,123 11,124 10,124 9,124 7,123 1,120 1,120 0,120 3,118 8,114 10,112 15,109 22,105 25,104 29,103" id="1326" class="canton" fill="steelblue" stroke-width="1" stroke="white" geotype="canton" geoname="Salon-de-Provence-1" code_insee="1326" code_departement="13" nom_departement="Bouches-du-Rhône" code_region="93" nom_region="Provence-Alpes-Côte d'Azur"/></svg>