<?xml version="1.0" encoding="utf-8"?>
<svg version="1.1" id="svgmap" xmlns="http://www.w3.org/2000/svg" xmlns:xlink="http://www.w3.org/1999/xlink" x="0px" y="0px" width="100%" height="100%" viewBox="0 0 500 179">
<polygon points="12,9 14,9 14,9 15,9 15,9 17,9 17,9 18,9 18,9 18,9 19,9 20,9 20,9 20,9 20,9 21,9 21,9 22,9 22,9 22,9 22,9 22,9 22,9 22,9 22,9 23,10 24,10 24,10 24,10 25,10 25,10 24,10 25,10 25,10 25,10 25,10 25,10 25,10 25,10 25,10 25,10 26,10 26,10 26,10 26,10 26,10 26,10 26,10 26,10 26,10 26,10 26,10 26,10 26,10 26,10 26,10 26,10 26,10 27,10 27,10 27,10 27,10 27,10 27,10 27,10 27,10 27,10 27,10 27,10 27,10 27,10 27,10 28,10 28,10 28,10 28,10 28,10 28,10 28,10 28,10 28,10 28,10 28,10 28,10 28,10 28,10 28,10 28,10 28,10 28,10 28,10 29,10 29,10 29,10 29,10 29,10 29,10 29,10 29,10 29,10 29,10 29,10 29,10 29,10 29,10 30,10 30,10 30,10 30,10 30,10 30,10 30,10 30,10 30,10 30,10 30,10 30,10 30,10 30,10 31,10 31,10 31,10 31,10 31,10 31,10 31,10 31,10 31,10 31,10 31,10 31,10 31,10 31,10 31,10 32,10 32,10 32,10 32,10 32,10 32,10 32,10 32,10 32,10 32,10 32,10 32,10 32,10 33,10 33,10 33,10 33,10 33,10 33,10 33,10 33,10 33,10 34,10 34,10 34,10 34,10 34,10 34,10 34,10 34,10 34,10 34,10 34,10 34,10 34,10 34,10 34,10 34,10 35,10 35,10 35,10 35,10 35,10 35,10 35,10 35,10 35,10 35,10 35,10 35,10 35,10 35,10 36,10 36,10 36,10 36,10 36,10 36,10 36,10 36,10 36,10 36,10 36,10 36,10 36,10 36,10 37,10 37,10 37,10 39,10 40,10 40,10 40,10 42,10 42,10 43,10 43,10 43,10 44,11 44,11 44,11 45,11 45,11 46,11 47,11 48,11 49,11 50,11 50,11 50,11 51,11 51,11 51,11 51,11 52,11 52,10 53,10 53,11 54,10 56,10 58,10 62,9 64,9 66,9 71,8 74,8 75,7 76,7 79,7 79,7 80,7 81,7 81,7 81,7 81,7 81,7 81,7 82,7 85,7 86,7 86,6 87,6 87,6 88,6 89,6 93,6 94,5 96,5 97,5 99,5 100,4 100,4 100,4 101,4 101,4 102,4 102,5 102,5 103,4 106,4 107,3 109,3 110,3 112,2 114,2 115,2 116,2 118,1 119,1 120,1 122,1 126,0 127,0 130,0 132,0 132,0 133,0 134,0 134,0 135,0 135,0 136,0 137,0 138,0 140,0 142,0 144,0 145,0 147,0 148,1 148,1 149,1 149,1 150,1 151,1 152,1 152,1 153,1 155,1 156,1 157,1 158,1 160,1 161,1 162,1 163,1 164,1 165,1 166,1 166,1 166,1 167,1 167,1 167,1 168,1 168,1 169,1 169,1 170,1 170,1 170,1 170,1 171,1 173,1 174,1 174,1 174,1 174,1 174,1 174,1 176,1 177,1 178,1 180,1 181,1 183,1 185,1 187,1 188,1 189,1 189,1 189,1 190,1 191,1 191,1 191,1 192,2 194,2 195,2 196,2 196,2 196,2 196,2 196,2 196,2 196,2 196,2 197,2 198,2 199,2 200,2 200,2 200,2 202,2 202,2 204,3 206,3 206,3 209,3 209,3 210,3 210,3 211,3 211,4 213,4 215,5 220,5 221,5 224,6 225,6 228,6 229,6 231,7 231,7 233,7 234,7 235,7 238,8 244,9 245,9 245,9 246,9 246,9 247,9 247,9 249,10 249,10 250,10 251,10 253,11 255,11 256,11 257,12 258,12 259,12 260,12 263,13 268,13 270,13 271,14 272,14 272,14 272,14 273,14 274,14 275,14 278,14 279,14 280,14 282,14 282,14 284,14 285,14 286,14 288,14 289,14 290,14 291,14 291,14 292,14 292,14 292,14 292,15 291,16 291,16 292,16 292,16 292,16 292,16 293,17 294,17 295,17 296,17 298,17 299,17 299,17 300,17 300,17 301,17 306,17 310,17 311,17 311,17 311,17 311,17 312,17 312,17 312,17 313,17 314,18 315,18 317,18 318,18 318,18 319,18 321,19 323,19 328,18 328,18 329,18 330,19 331,18 332,18 333,18 334,18 335,18 337,18 337,18 338,18 340,18 340,18 340,18 340,18 340,18 341,18 342,18 343,18 344,18 346,18 347,18 348,18 348,18 349,17 349,17 349,17 349,18 350,17 352,17 353,17 354,17 354,17 354,17 354,17 354,17 354,17 354,17 358,17 358,17 358,17 360,17 362,17 363,17 364,17 365,17 365,17 365,17 367,17 367,17 369,17 369,17 369,18 369,18 370,18 371,18 372,18 373,18 373,18 373,18 376,19 376,19 376,19 376,19 376,19 377,19 379,19 379,20 381,20 382,20 382,20 382,20 384,20 387,21 388,21 389,21 390,21 390,21 391,21 391,21 391,21 391,21 392,21 392,21 392,21 392,22 392,22 392,22 393,21 393,22 393,22 393,22 394,22 394,22 394,22 394,22 394,22 395,22 395,22 395,22 395,22 395,22 396,23 396,23 397,23 397,23 397,23 397,23 398,23 399,23 401,24 402,24 404,25 405,25 406,25 408,26 408,26 410,26 410,26 412,26 412,27 414,27 414,27 415,27 418,28 421,29 421,29 421,29 421,29 422,29 424,30 426,30 427,31 427,31 427,31 428,31 432,32 433,32 440,34 440,34 441,34 441,35 441,35 441,35 444,36 445,36 445,36 445,36 445,36 445,36 445,36 446,37 448,37 450,38 451,38 454,39 454,40 455,40 455,40 456,40 456,40 456,40 457,40 458,41 459,41 459,41 460,41 460,41 460,42 466,44 467,45 472,46 472,47 473,47 473,47 473,47 474,47 474,47 474,47 474,47 474,47 474,47 474,47 474,47 475,48 477,48 477,48 477,48 477,48 478,49 479,49 479,49 479,49 479,49 480,49 480,49 481,49 481,49 481,49 481,50 481,50 481,50 481,50 481,50 481,50 482,50 482,51 483,51 483,51 483,51 483,51 483,51 483,51 483,51 483,51 484,52 483,52 484,52 484,52 483,52 483,53 483,53 484,53 484,53 484,53 484,53 484,53 485,54 485,54 487,54 487,54 487,55 486,55 486,55 485,56 484,57 483,58 482,59 478,62 477,63 475,64 475,65 473,67 472,67 470,69 470,69 469,69 469,69 468,70 467,71 466,72 464,73 464,73 464,73 463,74 463,74 462,75 461,76 460,77 459,78 460,78 463,79 463,79 463,79 463,79 467,80 468,80 471,81 471,82 472,82 475,84 475,84 475,83 475,83 475,83 475,83 475,84 475,84 475,84 484,88 486,89 491,91 494,92 494,92 494,93 494,93 495,93 495,93 495,93 495,93 495,93 495,93 500,95 496,97 496,97 492,100 492,100 492,100 490,102 487,101 485,102 484,104 478,108 476,108 471,112 467,114 467,114 465,115 464,115 463,115 463,115 460,118 459,118 458,120 458,121 458,121 457,122 450,121 446,122 444,121 437,117 435,119 433,117 429,116 427,116 425,115 424,117 424,118 424,119 425,119 423,123 424,126 424,126 423,127 424,130 424,132 424,132 423,134 423,134 420,136 420,136 420,136 417,138 415,140 414,141 412,141 412,141 412,141 411,142 410,143 409,144 416,149 411,152 414,155 415,157 412,158 411,159 408,161 413,163 409,175 405,173 405,173 405,173 400,172 395,179 395,179 394,178 393,178 393,178 393,178 393,178 393,178 393,178 392,178 392,178 392,178 392,178 391,177 390,177 390,177 390,177 389,175 388,173 388,173 388,173 388,173 388,173 388,173 388,173 388,173 388,173 388,173 388,173 388,173 388,173 388,173 388,173 388,172 388,172 388,172 388,172 388,172 388,171 384,170 384,171 383,171 383,171 383,171 379,170 378,170 378,170 378,170 378,170 378,170 378,170 378,170 378,170 378,170 377,170 377,170 377,170 377,170 377,171 377,171 376,171 376,171 373,170 373,170 373,170 374,169 374,169 374,169 374,169 373,168 373,168 373,168 373,168 373,168 372,168 371,168 371,168 371,167 370,167 370,167 370,167 369,167 369,167 368,167 368,167 368,167 367,167 366,166 365,166 365,166 364,166 363,166 353,168 351,168 351,168 350,166 350,166 350,164 350,164 350,164 354,160 359,156 362,151 362,151 361,151 356,150 356,150 355,150 354,150 354,149 351,147 351,147 348,146 347,146 346,146 345,146 342,144 341,144 338,143 337,143 337,142 333,140 333,140 333,140 331,140 330,140 330,140 329,140 329,140 329,140 328,140 327,140 327,140 326,139 325,139 324,139 324,139 324,139 324,139 324,139 324,139 321,138 320,138 318,138 318,138 318,138 317,138 317,138 317,138 317,138 317,138 317,138 317,138 317,137 317,137 317,137 318,137 318,137 318,137 318,136 318,136 318,136 318,136 318,136 318,136 318,135 318,135 318,135 318,134 318,134 318,134 318,134 318,134 317,133 317,133 317,133 317,133 316,133 316,132 315,132 315,132 315,132 314,132 313,132 313,132 313,132 312,132 312,132 312,132 311,132 311,132 311,132 310,133 309,133 309,133 308,134 308,134 307,134 307,134 307,134 306,134 306,134 306,134 306,134 305,134 305,134 305,134 305,134 305,134 305,134 304,134 304,134 304,134 304,134 304,134 304,134 304,134 304,134 304,133 304,133 304,133 304,133 304,133 304,133 304,133 304,133 304,132 304,132 304,132 304,132 304,131 305,131 305,131 305,131 305,131 310,130 310,130 310,130 310,130 311,130 311,130 312,129 312,129 312,129 313,129 313,128 313,128 314,127 314,127 314,126 314,126 315,125 315,125 315,124 315,124 315,124 315,123 316,123 316,123 316,124 317,124 318,124 318,124 319,124 319,124 319,124 320,123 320,123 320,123 320,123 321,123 321,122 321,122 322,122 323,121 323,121 324,120 324,120 324,120 325,119 325,118 325,118 325,118 326,118 326,118 326,118 327,115 329,112 329,112 332,109 333,108 333,108 334,107 335,107 335,107 336,107 336,107 337,104 337,104 338,104 338,104 338,104 338,104 339,104 339,104 340,105 341,105 342,101 342,101 342,100 343,98 343,98 343,98 347,98 347,99 348,99 348,99 348,99 349,96 349,96 350,96 350,96 350,96 350,96 352,96 355,95 355,95 356,94 356,94 357,94 357,94 358,93 360,92 360,92 360,92 361,92 361,92 362,92 362,92 362,92 363,92 363,92 363,92 364,92 367,92 368,92 368,92 368,92 368,91 368,90 368,89 367,88 367,87 367,86 367,86 367,86 367,86 367,86 367,85 367,85 367,85 366,85 366,85 366,85 366,85 366,85 366,85 367,84 367,84 367,83 367,83 367,83 365,82 364,82 363,82 363,82 363,82 362,81 362,81 362,81 362,81 362,81 360,81 360,81 360,81 360,81 360,81 359,81 358,81 358,81 356,82 356,82 356,82 356,82 355,80 355,79 355,79 354,79 354,79 354,79 354,79 354,78 354,77 353,77 352,77 352,77 350,77 349,77 348,77 348,77 348,77 347,77 347,77 347,77 347,76 347,76 347,75 347,74 347,74 346,73 346,73 346,72 345,72 345,71 345,71 345,71 345,70 345,70 345,70 345,70 345,70 345,70 345,70 345,70 345,70 345,70 345,70 344,70 343,70 343,70 343,70 342,70 341,70 341,70 341,70 341,70 341,70 341,70 338,70 333,71 329,71 328,71 328,71 327,71 326,71 325,71 324,71 322,71 322,71 322,71 321,71 318,71 318,71 317,72 317,72 317,72 317,72 316,72 316,72 316,72 316,72 309,73 309,73 308,69 308,69 307,69 307,69 307,69 307,68 307,67 307,67 307,67 304,67 304,67 304,67 304,67 304,67 304,67 303,67 298,68 298,67 297,59 297,58 297,58 297,58 296,59 294,60 293,60 293,60 292,60 292,60 292,58 292,58 284,58 283,58 283,58 284,57 284,57 284,56 284,56 284,56 283,55 282,55 281,55 280,55 280,55 280,55 280,55 279,54 279,54 279,53 279,53 278,53 278,53 278,53 277,53 276,54 275,54 275,54 275,54 274,54 274,54 273,54 273,54 273,54 273,54 274,54 275,55 275,55 275,55 275,55 275,55 275,55 275,55 275,55 274,55 274,55 274,55 273,56 273,56 273,56 273,56 273,56 273,56 272,57 272,57 272,58 272,58 272,58 272,58 272,59 273,59 273,59 273,59 273,60 272,62 272,62 272,62 272,62 272,62 272,62 273,63 273,63 273,63 273,63 273,63 273,63 273,63 273,64 273,64 273,65 272,65 273,65 273,65 273,65 273,66 274,66 274,67 274,67 275,67 275,67 275,68 275,68 275,68 275,68 275,68 274,69 274,69 274,69 274,69 274,69 274,70 273,70 273,70 273,71 273,71 273,71 273,71 272,71 272,71 272,71 271,71 271,70 271,70 270,69 270,69 270,68 270,68 268,68 268,68 267,67 267,67 267,67 266,67 266,67 266,67 266,67 266,67 265,67 265,67 264,67 264,67 264,67 263,68 263,68 263,68 262,68 262,68 262,68 262,68 262,69 262,69 262,69 262,69 262,69 262,70 262,70 261,71 261,71 261,71 262,72 262,72 262,72 262,72 262,72 261,72 261,73 261,73 261,73 261,73 260,73 260,73 260,74 260,74 259,74 259,74 259,74 259,74 259,74 259,74 259,75 258,75 258,75 258,75 257,75 257,75 257,75 257,76 256,76 256,76 256,77 256,77 256,77 256,77 256,77 255,77 254,77 254,77 254,78 253,78 253,78 253,78 253,79 253,79 253,79 253,79 253,79 252,79 252,80 252,80 251,81 251,81 251,82 251,82 250,82 250,82 250,82 250,82 249,81 249,81 248,81 248,81 248,81 247,81 247,80 246,80 246,80 245,80 244,79 243,79 243,79 242,78 242,78 242,78 241,76 240,75 240,75 240,75 237,76 237,76 237,76 237,74 236,74 235,74 230,73 230,73 230,73 227,72 227,72 227,72 226,72 227,71 227,70 221,69 217,68 217,68 217,68 217,68 217,68 216,68 216,68 216,68 216,68 216,67 215,67 214,67 214,67 212,66 211,66 209,65 209,65 206,64 205,64 203,63 202,63 202,62 201,62 201,62 198,61 198,61 198,61 197,62 197,62 197,62 196,62 194,61 194,61 192,62 192,62 192,62 191,61 191,61 191,61 191,63 190,63 188,63 188,63 188,63 188,61 188,61 187,60 187,60 187,60 184,60 183,61 183,61 183,61 182,61 182,61 182,61 182,61 181,62 181,62 181,62 181,62 181,62 180,62 180,62 178,62 176,62 176,62 174,63 174,63 174,63 174,63 172,63 169,64 165,65 165,65 165,65 160,65 159,65 155,66 152,66 152,66 150,66 149,66 148,66 148,66 148,66 148,66 147,66 147,66 147,66 147,66 147,66 146,66 146,66 146,65 146,65 145,65 144,65 134,65 133,65 131,65 129,64 128,64 127,64 123,64 123,64 122,64 121,64 120,63 120,63 119,63 119,63 119,63 117,64 117,64 116,64 115,64 115,64 112,64 112,64 110,64 110,64 109,64 108,64 108,64 107,64 107,64 108,66 108,66 108,66 106,67 106,67 106,67 107,67 107,67 107,67 106,68 106,68 106,69 107,70 107,70 105,71 105,71 105,71 105,71 105,73 105,73 103,75 103,75 104,76 104,76 105,82 105,82 105,82 103,82 103,82 102,82 102,82 102,82 102,83 102,83 102,84 102,84 102,84 102,86 102,86 102,86 101,86 101,86 101,86 102,91 102,91 101,91 101,91 101,91 101,93 101,93 101,93 101,93 99,93 99,93 99,90 99,90 98,90 98,90 98,90 98,89 98,89 98,89 98,89 97,89 97,89 95,89 92,89 91,89 91,89 91,88 91,88 84,89 84,89 84,89 84,90 84,90 83,90 83,90 83,90 83,90 80,90 79,90 77,91 77,91 77,91 77,89 77,89 76,89 73,89 72,89 72,89 72,89 72,89 72,89 71,89 70,89 69,89 69,89 69,91 69,91 69,91 67,91 67,92 67,92 64,92 64,92 64,90 64,90 64,90 62,90 61,90 59,90 56,89 56,89 56,89 56,88 57,86 57,86 57,86 51,86 51,86 49,85 49,85 49,85 50,83 50,83 51,81 51,81 52,82 52,82 52,81 52,80 52,78 52,78 52,78 50,78 50,78 49,78 49,78 48,75 48,75 48,75 49,75 49,75 49,74 49,74 49,74 49,73 49,73 49,73 49,73 49,72 49,71 49,70 49,70 49,70 51,69 51,69 51,69 50,68 50,68 49,68 49,68 49,67 48,67 47,67 47,66 45,65 45,65 45,65 45,65 45,65 45,65 46,63 46,62 46,62 46,59 47,59 47,58 47,58 47,58 47,58 47,57 47,57 47,57 46,56 46,56 45,55 46,55 46,55 46,55 44,53 44,52 43,51 43,50 43,50 41,48 41,48 43,47 43,47 41,46 39,45 39,45 39,45 37,44 37,44 37,44 37,44 37,43 37,43 38,41 38,41 37,41 37,41 36,41 36,41 35,38 35,38 35,38 33,36 33,36 32,36 32,36 32,36 30,35 30,34 30,34 31,34 32,34 32,33 33,33 33,33 33,33 33,33 32,32 32,32 32,32 33,30 33,30 32,30 31,30 29,29 29,29 29,29 29,29 29,29 31,29 31,29 31,29 31,27 31,27 31,27 30,27 30,27 29,27 26,26 25,26 25,26 25,26 25,26 25,26 24,26 24,27 24,27 24,27 21,26 20,26 19,26 19,26 17,25 16,25 15,25 14,25 11,24 6,22 6,22 5,22 1,21 1,21 0,21 0,21 0,21 0,21 1,19 1,19 1,19 2,18 2,17 3,17 3,17 3,17 4,17 6,15 5,15 5,15 5,15 7,13 7,12 7,12 9,13 9,13 9,13 10,13 10,12 10,12 11,11 11,11 11,11 11,11 11,11 12,10 12,10 12,9 12,9 12,9 12,9" id="1411" class="canton" fill="steelblue" stroke-width="1" stroke="white" geotype="canton" geoname="Courseulles-sur-Mer" code_insee="1411" code_departement="14" nom_departement="Calvados" code_region="28" nom_region="Normandie"/></svg>