<?xml version="1.0" encoding="utf-8"?>
<svg version="1.1" id="svgmap" xmlns="http://www.w3.org/2000/svg" xmlns:xlink="http://www.w3.org/1999/xlink" x="0px" y="0px" width="100%" height="100%" viewBox="0 0 500 279">
<polygon points="0,152 1,152 1,151 2,151 2,151 2,149 2,149 2,149 2,149 2,149 3,149 3,149 4,149 4,150 5,150 5,150 5,151 7,151 7,151 9,151 9,151 9,151 9,151 10,150 9,150 9,150 9,150 10,149 11,150 11,149 12,149 13,149 15,150 15,150 16,150 17,151 17,150 18,150 19,150 19,150 19,149 20,149 20,149 20,149 21,149 22,149 23,149 24,149 24,149 24,149 24,148 24,146 24,145 24,145 25,145 27,145 27,144 27,144 28,144 28,144 29,142 30,142 31,142 33,140 33,140 33,140 33,139 32,138 31,137 29,136 29,135 28,132 27,129 28,129 34,128 34,128 36,127 37,127 37,126 35,124 35,124 37,122 37,122 40,122 40,122 39,122 39,121 38,121 38,120 38,120 38,120 39,119 39,119 42,119 42,119 43,119 44,118 46,117 47,116 49,115 50,115 50,115 52,115 52,114 52,114 53,114 53,113 52,113 52,113 51,112 51,111 51,111 52,111 53,110 52,110 51,109 50,108 50,108 51,108 53,107 55,107 56,106 56,106 56,106 56,106 57,105 58,105 58,105 58,104 58,103 58,103 59,102 59,101 59,100 59,100 59,99 59,99 59,99 59,99 59,99 59,98 60,99 60,98 61,97 61,97 60,97 60,97 60,96 60,96 59,95 59,93 59,93 59,92 59,92 59,91 58,91 58,91 58,91 58,90 57,90 56,90 56,89 55,89 55,88 54,88 54,86 54,85 54,85 54,85 54,84 53,84 50,82 50,81 50,81 51,81 53,81 54,81 60,79 61,79 63,79 63,79 63,79 63,79 66,80 68,81 68,81 69,81 70,81 72,80 73,80 77,79 79,78 83,76 83,76 84,76 91,74 92,74 94,73 97,71 97,71 99,71 101,70 102,70 104,70 106,69 110,68 111,67 113,67 113,67 113,67 116,67 117,67 118,66 119,66 119,66 122,64 129,67 130,67 130,67 130,66 129,66 130,65 130,65 130,65 130,65 131,65 131,64 131,64 130,64 130,63 130,63 130,62 131,61 131,61 131,61 131,60 132,59 132,58 131,57 132,55 132,55 132,54 132,53 132,53 133,52 133,52 133,51 134,50 134,50 134,50 134,49 134,47 135,47 135,47 136,47 136,46 137,46 138,45 138,45 139,43 139,43 139,43 141,44 141,44 142,43 142,43 142,42 143,41 143,41 144,41 144,41 144,41 144,40 145,40 146,39 147,39 147,39 148,39 151,40 151,40 152,40 154,42 155,42 156,42 158,41 158,42 159,43 160,43 161,44 162,45 167,42 168,41 169,40 170,38 170,38 170,37 171,37 172,36 172,35 172,35 173,35 173,36 174,36 175,36 175,36 175,37 175,37 176,37 176,38 176,37 177,37 177,37 177,35 177,35 178,35 178,35 179,36 180,37 180,37 181,37 183,38 184,39 186,40 186,40 186,40 187,40 188,39 188,38 190,38 194,38 196,38 197,39 197,39 197,41 197,41 199,41 200,41 201,41 201,42 201,43 201,44 201,46 201,46 201,47 203,46 204,46 205,46 205,46 204,45 204,45 204,44 204,44 204,44 204,44 204,44 203,43 203,43 203,43 204,43 204,43 204,43 204,42 204,42 204,42 204,42 203,42 202,42 202,42 202,42 202,41 202,41 202,41 202,41 201,41 201,41 201,41 200,41 201,40 201,40 201,40 201,40 200,40 200,40 200,40 200,39 200,39 200,39 200,39 200,38 200,38 199,38 199,38 199,38 199,38 201,37 201,37 202,36 202,36 202,36 203,37 204,37 205,37 206,37 206,37 207,37 208,36 208,36 208,36 208,33 208,32 208,32 209,32 209,31 208,30 208,29 208,28 208,28 208,27 208,26 209,26 209,25 210,25 210,24 210,24 211,24 212,23 212,23 213,23 213,23 213,22 214,22 215,24 216,24 217,24 217,24 217,24 217,25 217,25 216,25 215,25 214,26 214,27 213,27 213,28 213,29 214,29 215,30 215,30 216,31 217,31 218,31 219,32 220,32 220,32 222,32 223,32 224,32 224,32 224,32 225,31 225,32 225,33 226,34 227,34 229,34 229,34 231,34 233,35 234,35 235,35 236,36 236,37 235,37 235,38 234,39 234,39 234,39 233,40 234,42 234,44 234,44 234,44 235,44 235,44 236,43 236,43 236,44 236,44 237,44 237,44 237,44 238,44 238,44 238,44 238,44 239,45 239,45 240,46 241,46 242,47 243,47 244,48 244,48 245,47 245,47 246,47 246,46 246,45 247,45 247,44 248,44 249,44 249,44 249,44 250,43 251,41 252,40 253,39 254,39 254,39 255,38 256,38 258,40 258,40 259,40 260,39 262,39 262,39 262,39 264,38 266,38 265,34 265,34 265,34 268,35 268,35 267,36 267,37 267,37 267,38 268,39 268,39 268,40 269,39 270,39 270,39 270,38 270,38 270,38 270,35 271,35 271,35 273,35 274,36 275,36 277,36 277,36 277,36 277,36 277,35 280,34 280,33 280,33 276,30 276,30 276,30 276,29 275,28 274,28 271,24 271,24 269,25 268,25 268,24 268,24 271,23 270,21 267,19 266,19 266,19 267,17 267,15 267,14 268,14 270,15 271,16 274,17 275,17 275,17 276,16 278,15 278,14 276,13 274,11 273,11 271,10 270,10 270,10 269,10 269,10 269,9 270,8 270,7 273,9 274,9 275,10 276,11 277,11 281,12 281,13 281,13 280,14 281,14 282,15 282,15 282,15 283,15 284,12 285,12 285,10 285,9 285,9 285,8 285,8 283,6 280,4 280,4 282,3 283,4 283,4 284,4 287,3 288,5 297,1 300,1 300,1 300,1 301,0 301,0 301,0 301,0 302,1 302,1 303,2 303,2 304,3 304,4 305,4 307,5 308,6 308,7 309,8 310,9 310,9 309,9 309,9 308,8 308,8 307,8 307,8 307,8 308,9 308,10 308,10 307,10 306,11 309,15 310,15 309,16 308,17 308,18 307,19 307,19 307,19 307,20 307,20 308,21 309,22 309,22 309,23 309,23 311,23 311,23 312,24 312,24 313,24 313,24 314,23 314,23 315,23 315,23 315,23 316,23 316,27 316,28 316,28 316,29 315,29 314,30 313,31 312,31 312,31 312,31 312,32 311,34 311,34 311,35 312,36 312,36 311,37 311,39 312,39 312,39 313,39 315,40 316,40 318,39 319,39 319,40 319,41 319,41 320,41 321,41 321,41 321,41 322,41 324,41 324,41 324,41 325,40 325,40 325,40 325,39 326,39 327,39 327,38 328,37 328,37 329,37 329,37 330,37 331,37 332,37 332,38 333,39 333,39 334,38 337,40 337,40 334,41 334,42 334,42 330,43 330,43 330,43 331,44 331,44 331,44 334,42 334,43 334,43 333,44 333,44 332,45 332,45 333,46 333,47 334,48 334,48 335,46 336,46 336,46 337,45 337,44 337,44 338,44 346,45 346,44 347,42 348,41 347,41 345,41 345,41 345,39 346,39 348,39 348,39 349,38 349,37 349,36 349,35 349,35 349,34 348,32 348,32 347,31 347,30 347,30 347,29 349,27 349,26 349,26 349,26 351,27 353,27 353,29 356,30 357,30 357,27 357,27 357,27 358,27 359,27 359,27 359,28 359,28 359,29 360,31 360,31 356,31 356,32 355,32 355,32 354,32 356,32 355,33 355,33 352,32 352,34 351,35 351,36 351,37 352,37 354,37 355,38 355,38 354,39 354,40 354,40 354,41 354,42 355,42 355,42 356,42 356,43 357,43 359,43 359,43 360,43 360,43 360,43 360,44 360,44 360,45 360,45 359,45 359,45 359,45 359,45 359,45 359,46 358,46 358,47 358,47 358,47 359,47 359,47 360,48 361,48 363,50 364,51 366,52 367,53 367,54 370,54 370,55 370,55 371,54 371,54 371,54 372,54 373,54 374,54 378,54 380,54 383,54 384,54 388,54 389,54 391,54 397,54 398,54 401,54 402,54 405,54 409,54 410,55 411,55 411,54 414,53 414,53 414,53 414,53 416,53 416,54 416,54 416,54 417,55 418,55 418,57 418,57 417,57 418,59 417,59 417,59 417,59 417,59 416,60 412,61 411,62 411,62 411,62 411,64 411,64 411,65 411,65 411,65 411,65 411,65 408,65 408,65 407,65 406,65 405,65 403,65 402,65 401,65 399,65 397,64 397,65 395,64 394,64 393,64 392,64 391,63 390,63 389,63 389,63 388,63 386,63 386,64 386,64 386,65 387,66 387,66 385,66 382,66 384,72 384,72 385,73 385,74 385,74 384,75 383,76 383,76 381,77 380,78 379,78 378,78 378,79 376,79 376,81 376,82 376,85 375,85 375,86 375,86 375,87 375,89 374,90 374,92 374,93 374,93 373,93 373,93 373,93 374,93 374,93 375,94 376,94 377,94 378,94 379,95 380,95 380,95 381,95 381,96 382,97 382,97 382,98 382,98 382,98 382,98 382,99 381,99 380,99 378,99 372,100 371,100 370,100 370,100 370,100 369,101 367,102 366,103 365,103 364,103 364,103 362,104 361,104 359,105 359,105 358,105 356,105 355,105 354,105 354,105 354,105 354,105 354,105 356,106 357,107 358,107 358,107 359,108 360,109 360,109 361,110 362,110 362,110 364,112 364,112 365,112 365,113 365,113 367,114 367,115 368,116 369,117 369,117 370,118 370,118 372,119 373,120 373,120 374,121 375,122 376,122 376,122 376,123 376,123 377,123 377,123 378,122 379,121 379,121 379,121 379,121 379,121 380,121 380,121 380,121 381,121 382,121 383,122 383,122 384,122 384,123 384,123 385,124 385,124 385,124 385,124 385,124 386,124 387,124 387,123 387,124 388,124 388,125 388,125 388,127 388,127 390,128 386,131 385,131 384,131 383,130 382,130 382,130 381,129 380,129 380,128 379,127 379,127 378,127 377,127 377,126 377,126 377,126 374,126 374,126 374,126 375,128 375,129 375,129 375,130 375,130 375,130 375,131 376,131 375,131 374,131 372,132 372,131 372,131 372,130 371,130 370,130 368,131 369,131 370,131 370,131 370,131 371,132 371,132 371,133 370,133 371,134 371,134 371,135 371,136 373,135 373,135 374,134 376,135 376,135 377,136 377,136 377,137 378,137 378,137 379,136 380,136 381,136 381,136 381,136 383,137 384,137 385,137 386,137 386,136 388,136 388,136 387,134 391,130 392,130 394,129 394,129 395,128 395,128 395,127 397,126 399,124 401,123 402,122 403,121 405,120 412,117 413,117 416,116 417,116 419,117 420,117 424,117 425,116 426,117 433,118 435,119 439,120 442,120 445,120 446,120 447,120 449,120 450,119 451,119 452,119 454,121 455,121 456,121 461,121 463,121 464,121 467,123 475,116 477,118 477,119 480,124 482,126 482,126 485,127 486,128 487,128 490,130 493,131 495,132 495,132 496,132 497,134 499,138 500,139 496,140 492,141 489,141 487,141 483,141 481,141 478,140 476,140 475,142 473,147 473,147 474,148 474,148 474,150 475,150 476,153 477,154 477,155 479,156 479,157 479,160 483,163 484,162 486,161 487,161 488,161 493,161 493,166 496,166 498,166 499,167 499,168 499,168 498,169 498,169 497,169 496,169 496,169 496,170 496,174 496,174 498,176 498,177 497,178 494,178 493,177 492,179 492,180 491,180 492,183 492,187 493,189 495,192 496,193 496,194 495,195 495,197 497,201 497,203 497,203 497,203 497,204 497,204 496,205 496,206 496,206 495,206 495,205 494,204 493,204 492,203 494,202 494,202 495,202 495,202 495,201 494,201 492,200 490,200 490,200 489,200 489,200 489,200 489,200 488,200 488,200 487,200 487,200 487,199 487,199 487,199 487,198 487,198 487,197 486,196 486,196 486,196 486,195 486,195 486,194 486,193 486,192 485,192 482,191 479,191 478,191 478,191 478,191 478,192 478,192 476,192 476,192 476,192 475,192 474,192 473,192 472,192 472,192 472,192 471,192 471,192 471,192 471,192 470,191 469,191 469,191 468,190 468,190 467,189 467,188 467,188 466,188 466,188 466,187 465,187 465,187 464,186 464,186 464,186 464,185 463,184 463,184 463,184 463,183 463,183 463,182 463,182 463,181 463,181 462,181 461,181 457,181 457,181 457,181 455,181 454,181 453,181 453,181 453,182 453,182 454,182 454,182 453,183 452,183 452,183 452,184 452,184 452,184 452,185 451,185 451,186 451,186 451,187 451,187 451,187 452,188 452,188 452,188 452,188 452,189 453,189 453,189 455,190 455,191 455,191 456,191 456,191 457,191 457,191 457,191 458,191 459,192 460,192 460,192 460,193 460,193 461,194 461,195 458,195 457,195 456,195 456,195 454,194 453,194 453,194 453,194 453,194 453,194 453,194 453,193 452,193 451,193 451,193 450,192 450,192 450,194 450,194 449,194 449,194 447,195 446,195 445,195 444,196 442,196 438,197 438,197 438,198 438,198 438,199 438,200 438,200 438,201 438,201 438,203 438,204 438,205 438,205 438,206 438,207 438,210 438,211 438,211 431,210 430,211 429,212 428,213 428,214 427,214 427,214 427,214 427,214 427,214 426,214 423,215 422,216 421,216 421,216 420,217 419,217 419,217 419,218 418,218 417,218 414,217 414,217 414,216 415,215 416,213 416,212 416,212 416,212 416,210 416,209 417,207 417,207 418,207 422,204 422,204 422,204 422,204 422,204 422,204 421,203 422,203 422,203 421,203 421,203 418,203 416,203 416,203 415,203 412,203 412,203 411,201 411,200 410,198 410,197 409,196 409,196 409,190 409,190 410,189 410,189 410,188 410,188 410,188 410,188 410,188 409,188 408,188 408,188 403,189 403,189 401,189 399,190 399,189 396,190 389,192 386,193 383,194 381,195 381,195 381,195 382,197 383,198 383,198 383,199 383,200 383,201 384,202 386,205 387,207 388,210 388,210 389,213 389,214 389,214 389,214 389,216 389,216 389,216 390,217 389,218 389,218 389,220 389,222 388,223 388,223 388,224 388,224 388,224 387,224 387,224 387,225 387,226 386,227 386,227 385,228 385,228 384,228 384,230 383,233 384,233 384,233 384,234 383,235 383,235 383,235 383,236 383,236 383,236 383,237 383,237 383,237 383,237 382,238 382,238 381,238 381,239 381,239 382,239 383,240 383,240 383,241 384,241 384,241 385,241 385,241 385,242 386,242 386,243 386,244 386,246 386,246 386,247 385,247 383,247 382,247 382,247 382,247 382,247 382,248 383,248 384,249 385,250 385,250 386,250 386,251 387,251 387,251 387,252 387,252 388,252 388,253 388,253 389,253 389,254 389,255 389,255 388,255 388,256 388,257 388,257 388,258 387,259 387,259 385,259 385,259 384,259 384,259 384,261 383,262 381,262 380,262 379,262 379,262 378,263 377,262 376,262 376,262 371,262 369,262 366,262 361,262 359,263 357,263 356,263 354,263 350,263 349,264 345,264 342,266 340,266 340,267 339,267 339,267 338,268 338,269 338,269 337,270 336,270 334,270 333,271 332,271 331,272 329,273 328,274 328,274 326,274 325,274 323,273 320,273 316,273 316,273 315,272 313,271 310,269 308,267 307,267 306,267 305,266 304,266 304,266 303,268 302,269 301,270 301,271 301,271 301,272 301,273 302,274 302,274 303,276 303,276 303,277 303,277 303,277 301,278 300,278 299,279 297,279 294,279 293,279 292,279 292,279 291,278 291,278 290,277 290,276 290,275 290,275 291,274 293,271 294,270 296,269 297,269 297,268 298,268 297,267 297,266 296,265 296,264 295,264 294,262 291,260 291,259 290,259 290,259 288,258 285,258 283,258 283,257 281,256 280,256 279,255 277,255 276,254 274,254 274,254 274,251 273,251 273,251 271,251 269,251 268,250 268,250 270,249 270,249 269,248 269,248 269,248 273,246 279,241 280,240 283,236 283,236 284,235 284,235 285,233 284,233 284,232 285,231 285,231 284,230 283,228 282,227 282,227 282,226 282,225 281,224 281,223 281,223 281,222 281,222 281,222 280,221 280,220 279,219 279,219 279,218 279,218 279,218 279,216 270,214 269,214 268,213 262,212 261,212 261,211 262,210 262,208 262,207 261,202 261,202 260,202 255,201 251,202 250,199 250,199 244,201 244,201 242,197 242,196 243,195 247,194 247,193 246,190 246,190 242,191 242,191 241,188 240,188 237,189 235,189 235,189 234,189 234,188 233,187 233,187 232,187 231,186 230,185 228,185 228,184 227,184 227,184 227,185 226,187 226,188 223,188 222,189 221,189 220,188 220,188 219,189 219,189 217,188 217,187 217,187 216,187 216,187 215,187 215,187 214,187 213,187 213,186 212,186 212,186 212,186 211,186 211,186 211,186 210,186 210,187 209,187 209,186 208,186 207,186 203,186 203,186 201,186 196,185 196,185 195,184 195,184 194,184 193,183 192,182 191,182 191,182 191,181 190,180 190,180 189,179 188,178 187,177 187,177 186,175 187,175 186,174 187,174 186,173 186,172 186,172 188,170 190,167 192,164 192,164 192,164 186,162 172,156 171,155 169,155 168,154 166,154 166,154 165,153 164,153 164,153 164,153 165,153 165,152 165,152 165,152 166,152 166,152 165,151 165,151 165,150 165,150 165,150 165,150 164,149 164,149 164,149 164,148 163,148 163,148 163,147 162,147 162,147 162,147 161,147 161,147 161,147 160,147 160,146 160,146 160,146 159,146 159,146 158,146 158,145 158,145 158,144 157,144 157,144 157,144 156,144 156,144 155,144 155,144 154,144 153,144 152,143 151,143 151,143 150,142 150,142 150,142 149,142 149,142 149,142 148,141 148,141 147,141 147,141 145,140 145,140 145,140 145,140 144,140 145,140 145,140 144,141 144,141 145,141 145,141 146,141 146,141 147,142 147,143 147,144 147,144 148,144 148,144 148,144 147,145 147,145 146,145 146,145 144,146 142,146 141,146 139,147 131,150 130,150 128,151 126,152 122,153 110,158 110,158 110,158 109,159 108,160 106,162 105,162 104,163 88,165 88,165 85,165 84,165 80,165 78,165 77,164 70,163 69,163 68,163 67,163 67,163 67,163 67,165 68,166 68,166 67,169 67,170 68,170 68,171 68,171 68,172 68,172 68,172 68,173 67,174 66,173 66,173 65,173 65,173 65,173 64,173 64,174 65,175 65,176 65,176 65,177 65,177 65,177 66,179 66,180 66,180 66,180 67,180 68,180 68,181 68,181 68,181 67,181 67,182 67,183 65,184 65,184 64,185 63,185 62,186 62,186 62,185 60,185 58,184 57,184 55,184 53,184 52,184 51,184 50,183 48,182 47,182 46,181 46,181 46,180 46,180 45,179 44,179 43,179 42,178 41,179 38,179 36,179 33,179 33,179 31,178 30,177 29,176 28,175 27,175 25,173 24,173 21,172 18,171 18,171 16,170 12,168 10,168 8,166 7,166 7,166 7,165 6,163 5,161 5,161 3,158 2,157 1,156 1,155 0,152 0,152" id="1502" class="canton" fill="steelblue" stroke-width="1" stroke="white" geotype="canton" geoname="Aurillac-1" code_insee="1502" code_departement="15" nom_departement="Cantal" code_region="84" nom_region="Auvergne-Rhône-Alpes"/></svg>