<?xml version="1.0" encoding="utf-8"?>
<svg version="1.1" id="svgmap" xmlns="http://www.w3.org/2000/svg" xmlns:xlink="http://www.w3.org/1999/xlink" x="0px" y="0px" width="100%" height="100%" viewBox="0 0 500 494">
<polygon points="5,272 6,272 6,273 7,273 7,273 8,273 9,273 11,273 12,273 12,273 13,273 13,274 14,274 16,274 16,274 17,274 17,274 17,274 18,274 18,274 20,275 20,276 21,276 22,276 22,276 23,276 23,276 24,276 24,277 25,277 25,277 26,278 26,278 26,278 27,278 27,279 27,279 27,279 28,279 28,279 29,278 29,278 30,277 31,277 31,277 31,276 32,276 32,276 33,277 33,277 34,277 35,277 35,277 36,277 36,278 37,277 37,277 38,277 38,277 39,277 40,276 40,276 40,276 40,275 41,275 42,274 42,274 43,274 43,273 44,273 44,273 44,273 45,273 45,273 45,273 45,273 45,273 46,272 46,272 46,272 46,271 47,271 47,271 47,271 47,271 47,270 47,270 48,270 48,270 49,269 49,269 49,269 50,269 50,269 51,269 51,269 52,268 52,268 52,268 53,268 53,268 53,268 54,267 54,267 54,267 54,267 55,266 55,266 55,266 55,266 55,265 56,265 56,264 56,264 56,263 56,263 57,263 57,262 57,262 57,262 58,261 58,261 58,261 59,261 59,261 59,261 60,261 60,261 61,261 61,261 61,261 61,261 61,261 62,261 62,260 62,259 62,259 62,259 62,259 62,259 62,258 63,258 63,258 63,257 63,257 63,257 64,257 65,257 65,257 66,256 66,256 66,256 66,256 66,255 67,255 67,255 67,254 67,254 67,254 67,254 67,253 68,253 68,253 68,253 69,253 69,253 69,254 70,254 70,254 70,255 70,255 70,256 70,257 70,258 70,258 70,258 70,259 71,259 71,259 71,259 72,259 73,259 73,259 74,259 74,259 75,259 76,259 76,259 76,259 76,259 77,259 78,258 79,258 80,257 81,257 81,257 82,257 82,256 83,256 84,256 84,256 84,256 85,255 85,255 86,255 86,255 86,255 86,255 86,255 86,255 86,255 87,255 87,255 88,254 89,254 89,254 89,254 90,254 90,253 90,253 90,253 90,253 91,252 91,252 91,252 91,251 91,251 91,251 91,251 92,251 92,251 92,251 92,251 92,250 93,250 93,250 93,249 93,249 93,249 93,249 93,249 93,249 93,248 93,248 93,248 93,248 93,248 92,248 92,248 92,248 92,248 92,248 92,248 92,247 92,247 92,247 93,247 93,246 93,246 93,246 93,246 93,246 93,245 93,245 93,244 93,244 93,243 93,243 93,243 93,243 93,243 93,242 93,242 93,242 92,242 92,242 93,242 93,242 93,242 93,241 93,241 93,241 93,241 93,241 94,240 94,240 94,240 94,240 94,240 94,240 94,240 94,239 93,239 93,239 93,238 93,238 92,238 92,238 91,238 91,237 91,237 91,237 91,237 91,237 91,237 91,237 91,237 91,236 91,236 91,236 91,236 91,236 90,236 90,235 90,235 90,235 90,235 90,235 90,234 90,234 91,234 91,234 91,234 91,233 92,233 92,233 92,233 92,233 92,233 92,233 91,233 91,232 91,232 91,232 91,232 91,232 91,232 91,232 91,232 91,231 91,231 91,231 90,230 90,230 90,230 90,230 90,230 90,230 90,230 90,230 90,229 90,229 90,229 90,228 89,228 89,227 89,227 89,226 88,226 88,226 88,225 88,225 88,225 89,225 89,225 89,225 89,225 89,225 89,224 89,224 89,224 89,224 89,224 90,223 90,223 90,223 90,223 90,223 90,223 90,223 91,223 91,223 91,223 91,223 91,223 91,223 91,222 92,222 92,222 92,222 92,222 92,222 92,222 92,222 93,221 93,221 93,221 93,221 93,221 93,220 93,220 93,220 93,220 93,220 93,219 94,219 94,219 94,219 94,219 94,219 94,218 94,218 94,218 94,218 94,218 94,218 94,217 94,217 94,217 94,217 94,217 94,216 94,216 93,216 93,216 93,216 93,216 93,216 93,216 93,216 93,216 93,216 93,216 92,216 92,216 92,216 92,216 92,215 92,215 92,215 92,215 92,215 91,215 91,215 91,215 90,215 90,215 90,215 90,215 90,215 90,215 90,215 90,215 89,215 89,215 89,214 90,214 90,214 90,214 90,214 90,214 91,214 91,214 91,214 91,213 91,213 91,213 91,213 91,213 92,213 92,212 92,212 93,212 93,212 93,212 93,212 93,211 93,211 93,211 93,211 93,211 93,211 93,210 93,210 93,210 93,210 92,210 92,210 92,210 92,210 93,209 93,209 93,209 93,209 93,209 94,209 93,208 93,208 93,208 93,208 93,208 93,208 93,208 92,207 92,207 93,207 93,206 93,206 93,206 93,206 93,206 93,206 92,206 92,206 92,205 92,205 92,205 91,206 91,206 91,206 91,206 90,205 90,205 90,205 90,205 89,205 89,205 89,205 89,205 89,205 89,204 89,204 89,204 89,204 89,204 89,204 89,204 88,203 88,203 88,203 88,203 88,203 88,203 87,203 87,203 87,202 87,202 86,202 86,202 86,202 86,202 86,202 86,202 86,202 85,202 85,202 85,202 85,201 84,201 84,201 84,201 84,201 84,201 84,201 84,201 84,201 84,200 84,200 84,200 84,200 84,200 84,200 83,200 83,200 83,200 83,200 83,200 83,200 83,200 83,200 82,200 82,200 82,200 82,200 82,200 81,200 81,200 81,200 81,199 81,199 81,199 81,199 81,199 81,199 81,199 81,199 81,199 81,199 81,199 81,199 81,199 81,198 81,198 81,198 81,198 81,198 81,198 81,198 81,198 80,197 80,197 80,197 80,197 80,197 80,197 80,197 80,197 80,197 80,197 80,197 79,197 79,197 79,196 79,196 79,196 79,196 78,196 78,196 78,196 78,196 78,196 78,195 78,195 78,195 78,195 78,195 78,195 78,195 78,195 78,195 78,194 78,194 78,194 78,194 78,194 78,194 78,194 79,194 79,194 79,194 79,194 78,194 78,194 79,193 79,193 79,193 79,193 79,193 79,193 79,193 79,193 79,193 79,192 79,192 79,192 79,192 79,192 79,192 79,192 79,193 79,193 79,193 79,193 80,193 80,193 80,193 80,193 80,193 80,193 80,193 80,193 81,193 81,193 81,193 81,193 81,192 81,192 82,192 81,192 81,192 81,192 81,191 81,191 81,191 80,191 80,191 80,191 81,191 80,191 81,191 81,190 81,190 81,190 82,190 82,190 82,190 82,190 82,190 82,190 82,190 83,190 83,190 83,190 83,189 83,189 83,189 83,189 83,189 83,189 83,189 83,189 83,189 84,189 84,189 84,189 84,189 84,189 84,189 83,188 83,188 83,188 83,188 83,188 83,188 84,189 85,188 84,188 84,188 83,188 83,188 83,188 83,188 83,188 83,188 84,188 84,188 84,188 84,188 84,188 84,187 84,187 84,187 84,187 85,188 85,188 85,188 85,187 85,187 85,187 86,187 86,187 86,187 86,187 86,187 86,187 87,187 87,186 87,186 87,186 87,186 87,186 86,186 86,186 86,186 86,185 86,185 86,185 86,185 87,185 87,185 87,185 87,185 87,184 88,184 87,184 87,184 87,184 87,183 87,183 88,183 88,183 88,183 88,183 88,183 88,184 88,184 88,184 88,184 88,184 89,184 90,184 90,184 90,184 90,184 90,184 90,183 90,183 90,183 90,183 90,183 90,183 90,183 90,183 90,183 90,183 90,183 90,182 90,182 90,182 90,182 90,182 90,182 90,182 90,182 90,182 90,182 91,182 91,182 91,182 91,181 91,181 92,181 92,181 92,181 92,182 92,182 92,182 92,182 92,182 92,182 92,183 92,183 92,183 92,183 93,183 93,183 93,183 93,183 93,183 93,183 93,183 94,183 94,183 94,182 94,182 94,182 94,182 94,182 94,182 94,182 94,182 94,183 94,183 94,182 94,182 95,182 95,182 95,182 95,182 95,182 95,182 95,181 94,181 94,181 93,181 93,181 92,181 92,181 93,181 93,181 93,181 94,180 94,180 94,180 94,180 94,180 94,180 94,180 94,180 94,180 94,179 94,179 94,179 94,178 94,178 93,178 93,178 93,178 93,178 93,178 93,178 93,178 93,178 93,177 94,177 93,177 93,177 93,177 93,177 93,177 93,177 93,177 93,178 93,178 93,178 93,178 93,178 93,178 93,178 93,178 93,178 93,179 93,179 93,179 93,179 93,179 93,179 93,180 93,180 93,180 92,180 92,180 92,180 92,180 92,180 92,180 92,180 92,179 92,179 91,179 91,179 91,179 91,179 91,179 92,179 92,179 92,178 92,178 92,178 92,178 92,177 92,177 93,177 93,177 92,177 92,177 92,176 92,176 92,176 92,176 92,176 93,176 93,176 93,176 93,175 92,175 93,175 93,175 94,175 95,175 95,175 95,175 95,174 95,174 95,174 95,174 95,174 95,174 95,174 95,174 95,174 96,174 96,173 96,173 96,173 96,173 96,173 96,173 96,173 96,173 96,173 96,173 96,173 96,172 96,172 96,173 97,173 97,173 97,173 97,172 97,171 97,171 96,171 96,171 96,171 96,171 96,171 96,171 95,171 95,170 95,170 95,170 95,170 95,170 95,170 95,170 95,170 95,170 94,170 94,170 95,169 95,169 95,169 95,169 95,169 96,169 96,169 96,169 96,168 96,168 96,168 97,168 97,168 98,168 98,168 98,168 98,168 98,168 99,167 99,167 99,167 99,167 99,167 99,167 99,167 99,167 99,166 99,166 99,166 99,165 99,165 99,165 99,165 101,165 102,165 103,165 104,166 105,166 105,166 105,166 104,166 104,167 104,167 104,167 104,167 104,167 105,167 105,167 105,167 106,166 106,166 106,166 106,166 106,166 106,166 106,166 106,166 105,165 106,165 106,165 106,166 107,166 107,166 107,166 108,166 108,166 108,166 109,166 109,166 109,166 109,166 109,166 109,166 109,166 110,166 110,166 109,166 109,166 110,166 110,166 110,166 110,166 110,165 111,165 111,166 110,166 111,166 111,166 111,166 111,166 111,166 112,166 112,166 113,166 113,165 113,165 114,165 114,165 115,164 115,164 115,164 115,164 115,163 115,163 115,162 116,163 116,164 116,164 116,164 115,165 116,165 116,165 117,165 117,165 119,166 120,166 121,167 121,167 121,168 121,169 121,169 121,169 121,170 121,170 121,171 121,172 121,172 121,172 121,173 121,173 121,173 122,173 122,173 122,173 123,173 123,173 123,173 123,173 123,173 124,173 124,173 124,173 124,173 124,173 124,173 124,174 123,174 123,174 123,174 122,174 122,174 121,173 121,173 121,174 121,174 120,174 120,174 120,174 120,175 122,176 122,177 120,176 120,176 120,176 120,176 122,177 122,177 121,177 121,177 119,176 118,176 118,176 118,176 118,176 119,177 119,177 120,178 120,178 121,179 122,179 121,179 121,179 121,179 121,179 122,180 122,179 122,179 124,179 125,179 125,178 125,178 126,178 126,177 126,177 126,177 127,177 127,178 128,178 128,178 128,178 128,178 127,179 127,179 127,179 127,179 128,179 129,178 130,178 131,178 131,177 131,178 132,178 132,177 132,177 133,177 133,176 134,176 135,175 136,175 136,174 137,174 138,173 138,173 138,173 139,173 139,174 139,174 139,174 140,174 140,174 140,175 140,175 140,175 140,175 140,175 140,175 141,175 141,175 141,175 141,175 141,175 141,175 141,175 141,175 141,175 141,176 141,176 141,176 141,176 142,176 142,176 142,176 142,176 142,176 142,176 143,177 143,177 143,177 143,177 144,177 144,178 144,178 145,178 145,178 145,179 145,179 146,179 146,179 146,179 146,180 146,180 146,180 147,180 147,180 147,180 147,180 147,180 147,180 147,181 148,181 148,181 148,181 148,181 148,181 149,181 149,181 149,182 149,182 149,182 149,182 149,182 149,182 149,182 149,183 149,183 149,183 149,183 149,183 150,183 150,183 150,184 150,184 150,184 150,184 150,184 150,184 150,184 150,185 150,185 150,185 150,185 150,185 150,185 151,185 151,186 151,186 151,186 151,186 152,186 152,186 153,186 153,186 153,186 154,186 154,186 154,187 154,187 155,187 155,187 155,186 155,186 155,186 156,185 156,185 156,186 157,187 157,186 158,186 158,186 159,186 159,186 160,186 161,186 161,186 160,184 160,184 161,184 161,184 160,184 160,184 160,184 161,183 161,183 161,183 161,184 162,183 163,183 163,183 163,183 164,183 164,183 164,183 165,183 165,183 165,183 166,183 166,183 166,183 166,183 166,183 166,183 167,183 167,184 167,184 168,184 168,184 168,185 168,185 168,185 169,185 169,185 170,185 171,185 171,185 171,186 172,186 172,186 173,186 173,187 174,187 174,187 175,187 175,188 175,188 175,188 175,188 176,188 176,188 176,188 176,188 176,188 176,188 176,189 176,189 177,189 177,189 177,189 176,189 176,189 176,190 176,190 176,190 176,190 177,190 177,190 177,190 177,190 177,190 177,190 177,190 178,191 178,191 178,191 178,191 178,191 178,192 179,192 179,192 179,192 179,192 179,192 179,192 178,192 178,192 178,193 178,193 178,193 179,193 179,193 179,193 179,193 179,193 179,193 180,193 180,194 180,194 180,194 180,194 180,194 180,194 180,194 180,195 181,195 181,195 181,195 181,195 181,196 182,196 182,196 182,196 182,196 183,196 183,196 183,196 184,196 184,196 184,196 184,196 184,197 184,197 184,197 184,197 185,197 186,197 186,197 187,197 187,197 187,197 188,197 188,197 189,197 189,197 189,196 189,196 189,196 189,196 189,196 189,196 188,195 188,195 188,195 189,195 189,194 190,194 190,193 190,193 191,193 191,193 192,193 192,193 192,193 192,193 192,192 192,192 192,192 192,192 193,192 193,192 193,192 193,192 194,192 194,192 194,192 195,192 195,192 195,192 196,192 197,192 197,191 198,191 198,192 199,192 199,192 199,192 200,192 200,192 200,192 200,192 201,192 201,192 201,193 201,193 201,192 202,192 202,192 202,192 202,192 202,192 202,192 202,192 203,192 203,191 203,191 204,191 204,191 204,191 204,191 204,191 204,191 204,190 205,190 205,190 205,190 205,190 206,190 206,190 206,190 206,190 207,190 207,190 207,190 207,190 207,190 207,190 208,189 208,189 208,189 208,189 208,189 209,189 209,189 209,189 210,189 210,189 210,189 210,188 210,188 210,188 210,188 211,188 211,188 211,188 211,188 211,188 211,188 211,188 210,188 210,188 210,187 210,187 210,187 210,187 210,188 209,188 209,188 209,188 209,188 209,188 208,188 208,188 208,188 208,188 208,188 207,188 207,188 207,188 207,188 207,188 207,188 207,188 207,188 207,188 207,188 207,187 207,187 207,187 207,187 207,187 207,187 207,187 207,187 207,187 207,187 207,187 207,186 207,186 207,186 207,186 207,185 206,185 206,185 206,185 206,185 206,185 206,185 206,185 206,184 206,184 206,184 206,184 207,184 207,183 206,183 206,183 207,183 207,183 207,183 208,183 208,183 208,183 208,183 208,183 208,183 208,183 208,183 208,183 208,183 208,182 208,182 208,182 208,182 207,182 207,182 207,182 207,182 207,182 207,182 208,182 208,182 208,182 208,182 208,182 208,182 208,181 208,181 208,181 208,181 208,181 208,181 208,180 208,180 208,180 208,180 208,180 208,180 208,180 208,180 208,180 208,180 208,179 208,179 209,179 209,179 209,179 209,179 209,179 209,179 209,179 209,179 209,178 209,178 209,178 209,178 209,178 209,178 209,178 209,178 209,178 209,178 209,177 209,177 210,177 210,177 210,177 210,177 210,177 210,177 210,177 210,177 210,176 210,176 210,176 210,176 210,176 210,176 210,176 210,176 211,176 211,176 211,176 211,176 211,176 211,176 211,176 212,176 212,176 213,176 213,176 213,175 213,175 213,175 214,175 214,175 214,175 214,175 214,175 214,175 214,175 215,176 215,176 215,176 215,176 216,176 216,176 216,176 216,176 216,176 217,176 218,176 218,175 218,175 219,175 219,175 219,175 219,174 219,174 219,174 219,174 219,174 219,173 219,173 219,173 219,173 220,173 220,173 220,173 220,173 221,172 221,172 221,172 222,173 222,173 222,173 223,173 223,173 223,173 223,173 223,172 223,172 223,172 223,172 224,172 224,172 224,172 224,173 224,173 224,173 225,172 225,172 225,171 225,171 225,171 225,171 225,171 225,171 224,171 224,171 224,170 224,170 224,170 224,170 224,170 224,170 224,170 223,170 223,169 223,169 223,169 223,169 223,169 223,169 222,169 222,169 222,168 222,168 222,168 223,168 223,168 223,168 223,168 223,168 224,168 224,168 224,168 224,168 224,168 224,168 224,167 224,167 223,167 223,167 223,167 224,167 224,166 224,166 224,166 224,166 224,166 224,166 224,166 224,166 224,166 224,166 224,166 225,166 225,166 225,166 225,166 225,166 225,166 225,166 226,166 226,166 226,166 226,166 226,165 227,165 227,165 227,164 228,164 228,164 228,164 228,164 228,164 228,164 228,164 228,164 228,163 228,163 228,163 228,163 228,163 229,163 229,163 229,163 230,163 230,163 230,163 230,163 230,164 230,164 230,164 231,164 231,164 231,164 232,163 232,163 232,163 232,163 233,163 233,162 233,162 233,162 234,162 235,162 237,162 237,162 238,162 238,162 239,163 239,163 239,163 238,164 239,164 239,164 239,164 239,164 239,164 239,164 240,164 240,164 241,164 241,164 241,164 241,164 241,164 241,163 241,163 241,163 241,163 241,163 241,163 241,163 241,163 241,163 240,162 240,162 240,162 240,162 239,161 239,161 239,161 239,159 239,159 239,159 239,159 239,158 239,158 239,158 239,158 239,158 239,158 239,157 239,157 239,157 239,157 238,157 238,156 238,155 238,155 238,155 238,155 238,155 238,155 238,155 238,155 238,155 238,155 238,155 238,154 238,154 238,154 237,154 237,153 237,153 237,153 237,153 237,152 237,152 237,152 237,152 237,152 236,152 236,151 236,151 236,151 236,151 236,151 236,150 236,150 235,150 235,150 235,150 236,149 236,149 236,149 235,148 236,148 235,148 234,148 233,147 234,147 234,147 234,146 234,145 235,143 235,143 236,142 234,142 234,142 235,141 235,141 235,142 235,142 235,142 235,141 235,141 235,141 235,141 235,140 234,140 234,140 235,140 236,139 236,139 236,139 236,139 237,139 237,138 237,138 238,137 238,137 238,136 238,136 238,135 238,134 239,135 240,135 240,135 240,135 241,135 241,135 242,135 242,135 242,135 242,135 243,135 243,135 243,135 244,135 244,135 245,136 245,136 245,136 245,136 245,136 245,136 246,136 246,136 247,137 247,137 247,137 248,137 248,137 249,137 249,138 249,138 250,137 250,137 250,137 250,137 250,137 250,137 250,137 250,137 250,136 249,136 249,136 250,136 250,136 250,136 250,136 249,135 249,135 249,135 249,135 250,134 250,134 250,134 250,134 251,133 251,133 251,133 251,133 251,133 251,133 251,133 251,133 251,133 251,133 251,133 251,133 251,133 251,133 251,133 252,133 252,133 252,132 252,132 252,132 253,132 253,132 253,132 253,131 253,131 253,131 252,131 252,131 252,130 252,130 252,130 251,128 251,128 251,128 251,128 251,128 251,128 251,128 252,128 252,127 252,127 252,127 252,127 252,127 252,127 251,127 251,127 251,126 250,126 250,125 250,125 250,125 250,124 250,124 250,124 250,124 250,124 250,124 250,124 251,124 251,123 251,123 252,123 253,122 253,122 253,121 253,121 253,121 253,121 253,121 252,121 252,121 252,121 252,121 251,121 251,121 251,121 251,122 251,122 251,122 251,122 251,122 251,122 250,122 250,122 250,122 250,122 249,122 249,122 249,122 249,121 248,121 248,121 248,121 247,121 247,121 247,121 247,121 246,121 246,121 246,120 246,120 246,121 246,121 245,121 245,121 245,121 245,120 245,120 245,120 245,120 245,120 245,120 245,120 245,120 244,120 244,120 244,119 244,119 245,119 246,119 246,119 246,119 246,119 247,118 247,118 247,118 247,118 247,118 248,118 248,118 248,118 248,118 247,118 247,117 247,117 247,117 247,117 247,117 247,117 247,116 247,116 246,116 246,116 246,116 246,116 246,116 245,115 245,115 245,115 245,115 245,114 246,114 246,114 246,114 247,114 247,114 247,114 248,114 248,113 248,113 248,113 249,113 249,113 249,112 249,112 249,112 248,112 248,112 249,111 249,111 249,111 249,110 249,110 249,110 248,110 247,110 247,110 247,109 247,109 247,109 247,109 246,109 246,109 246,109 246,109 247,109 247,108 247,108 247,108 247,108 247,107 248,107 248,106 248,106 248,106 248,106 248,106 248,106 249,105 249,105 249,105 249,105 250,104 250,104 251,104 251,103 252,103 252,103 251,103 251,102 251,102 250,101 250,101 250,101 251,101 251,101 251,101 251,100 251,100 251,100 251,100 251,100 251,100 252,100 252,100 252,100 251,99 251,99 251,98 251,98 251,98 251,98 251,98 251,98 251,98 251,98 251,98 252,97 252,97 252,97 252,97 252,97 252,98 252,98 252,98 252,98 252,98 252,98 253,98 253,98 253,98 253,98 253,98 253,97 253,97 252,97 252,97 253,97 253,97 253,96 254,96 252,96 251,95 251,95 251,95 251,95 251,95 251,95 251,95 251,95 251,95 251,94 252,94 252,94 252,94 252,94 253,94 253,94 253,94 253,93 254,93 254,93 254,92 254,92 255,92 255,92 255,92 255,92 256,92 256,92 256,91 256,91 257,91 257,91 257,91 258,91 258,90 259,90 259,90 259,90 259,90 259,90 259,90 259,90 260,90 260,90 260,90 260,90 261,90 261,90 260,90 261,90 261,91 261,91 261,91 261,91 261,91 261,91 262,92 262,92 262,92 263,93 263,93 263,93 263,93 264,93 264,93 264,93 264,93 264,94 264,94 264,94 264,94 264,95 264,95 264,95 264,95 264,96 264,96 264,96 264,96 264,97 264,97 264,97 264,97 264,97 265,97 265,98 265,98 265,98 265,98 265,98 265,98 266,98 266,98 266,98 266,98 266,98 266,98 266,98 266,99 266,99 266,99 267,99 267,99 267,99 267,99 267,100 267,100 267,100 267,101 267,101 267,101 267,101 268,102 268,102 268,102 270,103 270,103 270,104 270,104 270,104 271,103 271,103 271,103 272,104 273,104 273,104 273,104 274,104 274,104 274,104 274,104 275,104 275,104 275,104 275,104 276,103 276,103 276,103 276,103 276,103 276,103 277,102 277,102 277,102 278,102 278,102 278,102 278,102 279,102 279,102 279,102 280,102 281,101 281,101 281,101 282,101 282,101 283,101 283,101 283,101 283,101 283,101 283,101 283,101 284,101 285,101 285,101 286,102 286,102 286,102 287,103 287,103 287,103 287,103 288,103 288,103 288,103 288,103 289,103 289,103 289,103 289,103 289,103 289,103 289,103 289,103 289,103 289,103 289,103 289,103 289,103 290,103 290,103 289,104 289,104 289,104 289,104 289,104 288,104 288,104 288,104 288,104 288,104 288,105 288,105 288,105 289,105 289,105 289,105 289,105 290,105 290,105 290,105 290,105 290,105 290,105 291,105 291,106 291,106 291,106 291,106 291,106 290,106 290,106 291,106 291,106 291,106 292,106 293,107 293,107 293,107 294,107 294,107 294,107 295,106 295,106 295,106 296,106 296,106 296,106 295,106 295,106 295,107 295,107 295,107 296,109 297,109 299,108 300,108 300,107 301,107 302,106 302,106 302,106 303,105 303,105 304,104 304,104 304,104 305,103 305,103 305,102 305,102 305,101 306,101 306,100 307,100 307,100 307,99 307,99 308,99 308,99 308,98 307,98 307,98 306,98 306,97 306,97 306,97 307,97 307,97 308,97 308,97 308,98 309,97 309,97 309,97 309,97 309,97 308,96 308,96 308,95 308,95 308,95 308,95 308,94 308,94 306,95 306,95 306,95 306,94 306,94 307,94 307,94 307,94 307,93 308,93 308,93 308,93 309,93 309,93 309,93 310,93 310,93 310,93 310,93 311,93 311,93 311,94 311,94 312,93 312,93 312,93 312,93 313,93 317,92 317,94 317,94 317,94 317,94 318,94 318,95 318,95 318,95 318,94 319,94 319,93 320,93 320,93 320,93 322,93 323,93 323,93 325,93 326,93 326,93 327,93 327,93 327,93 329,93 329,93 330,93 330,93 331,93 331,93 331,93 332,93 333,93 334,94 334,94 334,94 335,94 335,94 336,94 336,94 336,94 337,95 337,95 338,95 338,95 342,97 343,98 343,98 347,99 347,99 348,100 351,100 351,100 351,100 351,100 351,100 352,101 353,101 353,101 354,101 354,101 354,101 355,102 355,102 355,102 355,102 355,102 355,102 355,103 355,103 355,103 355,104 355,104 355,104 355,105 355,105 355,105 356,105 356,105 357,104 357,104 357,104 357,104 358,104 358,104 359,104 359,104 359,104 360,104 360,104 361,104 362,104 362,104 363,103 364,103 364,103 364,103 364,103 365,103 365,103 365,103 366,103 366,103 366,103 367,102 367,102 366,101 366,101 366,101 366,101 366,101 366,100 366,100 366,100 366,100 366,100 366,99 366,99 366,99 366,99 366,99 367,99 367,99 367,98 367,98 367,98 367,98 367,98 367,98 367,98 367,98 367,98 367,98 367,98 367,97 367,97 367,97 367,97 368,96 368,96 369,96 369,95 369,95 369,95 369,95 369,95 369,95 369,94 369,94 371,93 371,93 371,93 371,93 371,93 372,93 372,93 372,93 372,93 374,92 374,91 374,91 377,91 378,91 379,92 379,92 380,92 380,92 381,92 381,92 381,92 381,92 381,92 381,92 381,92 381,92 381,92 381,91 381,91 382,91 382,90 382,90 382,90 383,90 383,90 383,90 383,90 383,90 383,90 383,90 383,90 383,90 383,90 383,89 383,89 383,89 383,89 384,89 384,89 384,89 384,89 384,89 384,89 384,89 384,89 384,89 384,89 385,88 385,88 385,88 385,88 385,88 385,88 385,88 385,88 386,88 386,88 386,88 386,88 386,88 386,88 386,88 386,88 386,87 386,87 386,87 386,87 386,87 386,87 386,87 386,87 386,87 386,87 386,87 386,87 386,87 386,87 386,87 386,87 386,87 386,87 386,87 386,87 386,87 386,87 386,86 386,86 385,86 385,86 385,86 386,86 386,86 386,86 386,86 386,85 386,85 386,85 386,85 385,85 385,85 385,85 385,85 385,85 385,84 385,84 385,84 385,84 384,84 384,84 384,84 384,84 384,84 384,84 384,84 384,84 384,84 384,83 384,83 384,83 384,83 384,83 384,83 384,83 384,83 384,83 384,83 384,83 384,82 385,81 385,81 385,81 383,81 383,81 383,81 383,81 383,81 383,81 383,81 382,81 382,82 382,82 382,82 382,82 381,82 381,82 381,82 381,82 381,81 381,81 381,81 381,81 381,81 380,81 380,81 380,81 380,81 380,81 379,81 379,81 379,81 379,81 379,81 379,81 378,81 378,81 378,81 378,81 378,81 378,81 376,80 376,80 376,80 376,80 376,80 376,79 376,79 376,78 376,78 376,78 376,77 376,76 376,76 376,76 376,76 376,75 377,75 377,75 377,75 376,74 376,74 376,74 375,75 375,75 375,75 374,75 374,75 373,75 373,75 372,75 371,75 371,75 370,75 368,75 368,75 365,75 365,75 365,75 365,75 365,75 365,75 365,75 364,76 364,76 364,76 364,76 364,75 364,75 364,75 364,75 364,75 364,75 364,75 364,75 364,75 364,75 364,75 364,75 364,75 364,75 364,75 365,75 365,75 365,75 364,75 364,75 364,75 364,75 364,75 364,74 364,74 364,74 364,74 364,74 364,74 364,74 364,74 364,74 364,74 364,74 364,74 364,74 364,74 364,74 364,74 364,74 364,74 364,74 364,74 364,74 364,74 364,73 364,73 364,73 364,73 364,73 364,73 364,73 364,73 364,73 364,73 364,73 364,73 364,73 364,73 364,73 364,73 364,73 364,73 364,73 364,73 364,73 364,73 364,73 364,72 364,72 364,72 364,72 364,72 364,72 363,72 363,72 363,72 363,72 363,72 363,72 363,72 363,72 363,72 364,72 364,72 364,72 363,72 363,72 363,72 363,72 363,71 363,71 363,71 363,71 363,71 363,71 362,71 362,71 362,71 362,71 362,71 362,71 361,71 361,71 361,71 361,71 361,70 361,70 361,70 361,70 361,70 361,70 361,70 361,70 361,70 361,70 361,70 361,70 361,70 361,70 361,69 361,69 362,69 363,69 363,69 363,68 363,69 363,69 362,69 362,69 362,69 362,68 362,68 362,68 363,68 363,68 363,68 363,68 363,68 363,68 363,68 363,66 363,66 363,66 363,66 363,65 364,65 364,65 364,65 364,65 365,64 365,64 365,64 365,64 365,64 365,64 365,64 364,64 364,64 364,64 364,64 364,64 364,64 364,64 363,64 363,64 363,64 363,64 363,64 362,63 362,62 363,61 364,61 365,61 365,61 365,60 365,61 365,61 365,61 365,61 366,61 366,61 366,62 367,62 367,62 367,61 368,62 368,62 368,61 368,61 369,60 368,60 368,60 368,60 368,60 368,59 368,59 367,59 367,59 367,58 367,58 367,58 368,58 367,57 365,56 365,55 365,55 364,54 364,54 364,52 364,52 363,54 363,54 363,53 363,53 363,53 362,52 362,52 362,52 362,52 362,51 362,51 362,50 362,50 363,50 363,50 362,49 362,49 362,49 362,48 362,48 362,48 362,48 363,48 363,47 363,47 363,47 363,46 363,45 363,45 364,45 364,44 364,44 364,44 364,44 364,44 364,44 364,44 364,44 364,44 364,44 364,44 365,44 365,43 365,43 365,43 365,42 365,42 365,42 365,42 365,42 366,41 365,41 365,41 365,40 365,40 365,40 365,40 366,39 366,39 367,39 367,39 367,39 367,39 367,38 368,38 368,38 368,38 369,38 369,38 369,39 370,39 370,39 370,39 370,39 371,39 371,39 371,39 372,39 372,39 372,39 373,39 373,38 373,38 373,38 372,38 373,37 374,37 373,38 373,38 373,38 373,38 373,38 374,38 374,38 375,38 374,38 375,37 375,38 376,38 376,38 376,38 377,37 377,37 376,36 375,36 375,36 375,36 375,36 375,36 375,35 375,35 374,36 374,36 374,36 374,35 374,35 374,35 373,36 373,36 373,35 374,35 375,35 375,35 375,35 375,35 376,36 376,36 376,36 377,36 377,36 378,36 378,35 378,36 378,36 379,35 379,35 379,35 378,35 379,35 379,35 379,35 380,35 380,35 380,35 381,35 381,35 381,35 381,35 381,35 381,34 381,34 380,34 380,34 381,34 381,34 381,34 381,34 381,34 381,34 382,34 382,34 382,34 382,34 383,34 382,34 382,34 382,33 382,33 382,33 382,33 382,33 381,33 381,33 381,33 381,33 380,33 380,33 380,33 380,33 379,33 379,33 379,33 379,33 378,33 378,33 378,33 378,33 378,33 378,33 379,33 379,33 379,33 379,33 379,33 379,32 379,32 379,32 379,32 378,32 378,32 378,32 377,31 377,31 376,31 377,31 377,31 377,31 376,31 376,31 376,31 377,31 377,31 377,30 377,30 377,30 377,30 377,30 377,30 376,30 376,30 375,31 375,31 374,31 374,30 375,30 375,30 375,30 375,30 376,30 375,30 375,30 374,30 374,29 374,29 374,29 375,29 375,29 376,30 376,30 376,29 376,29 375,28 376,28 375,28 375,28 375,28 375,28 375,27 374,27 374,27 374,26 374,26 374,25 374,25 373,25 373,25 374,24 374,24 374,24 373,24 372,24 372,23 372,23 371,23 371,23 371,23 370,23 369,23 369,23 369,23 369,23 368,23 368,23 367,23 367,23 367,23 367,23 367,23 367,23 367,23 368,23 368,23 368,23 369,23 369,23 369,23 369,23 370,23 370,22 370,22 370,22 370,22 369,22 369,22 369,22 369,22 369,22 369,22 369,22 368,22 368,22 368,22 368,22 368,21 368,21 367,21 367,21 367,22 367,22 367,22 367,21 367,21 366,21 366,21 366,21 366,21 366,21 366,21 366,21 366,21 366,21 366,20 366,20 366,20 367,21 367,21 367,20 367,20 367,20 367,20 367,20 367,20 367,20 367,20 366,19 366,19 366,19 366,19 366,19 366,19 366,19 365,18 365,18 365,18 365,18 365,18 365,18 365,18 365,18 365,18 365,17 365,17 365,17 365,17 365,17 365,17 365,17 366,17 366,17 366,16 366,16 366,16 366,16 366,16 366,16 366,16 366,16 366,16 366,16 366,16 366,16 365,16 365,16 365,16 365,16 365,15 365,15 365,15 365,15 365,15 365,15 365,14 365,14 365,14 365,14 365,14 365,14 365,14 365,14 365,13 365,13 365,13 365,13 365,13 366,13 366,13 366,12 366,12 366,12 366,12 366,12 366,12 366,11 366,11 366,11 366,11 366,11 366,10 365,10 365,10 365,10 365,10 365,10 365,10 365,10 365,9 365,9 366,9 366,9 366,9 366,9 366,9 366,9 366,9 366,9 366,9 366,9 366,9 367,9 367,9 367,9 367,9 366,9 366,9 366,9 366,9 366,8 365,8 365,8 365,8 365,8 365,8 365,8 365,8 365,8 365,8 366,7 366,7 366,7 366,7 366,7 366,7 366,7 366,7 365,7 365,6 365,6 365,6 364,5 364,4 364,4 364,4 365,5 365,5 365,5 365,5 366,5 366,5 366,5 367,5 367,5 367,5 367,5 367,5 367,5 368,5 368,5 368,5 368,5 368,5 368,5 368,5 369,5 369,5 369,5 369,5 369,6 370,6 370,6 370,6 370,6 370,6 370,6 370,5 370,5 371,5 371,5 371,5 372,5 372,5 374,5 374,5 374,5 374,5 374,5 374,5 374,5 375,5 375,5 375,5 375,5 376,5 376,5 376,5 377,5 377,5 377,5 377,5 378,5 378,5 378,4 377,4 377,4 378,4 378,4 378,4 378,4 378,4 379,5 379,5 378,5 378,5 378,5 378,5 378,5 379,5 379,5 379,5 379,5 379,6 379,6 380,6 380,6 380,6 380,6 380,6 380,6 380,6 380,6 380,6 381,5 381,5 381,5 381,5 381,5 381,5 381,5 381,5 382,5 382,5 382,6 382,6 382,6 382,6 382,5 382,5 382,5 382,5 382,6 382,6 382,6 382,6 383,6 383,6 384,6 384,6 384,6 384,6 384,6 384,7 384,7 384,6 384,6 384,6 384,6 384,6 385,6 385,6 385,6 386,6 386,6 387,6 387,6 388,7 388,7 388,7 388,7 388,7 389,7 389,7 389,7 389,7 389,7 389,7 389,7 389,7 389,7 390,7 390,7 390,7 390,7 390,8 391,8 391,8 392,7 392,7 392,7 392,7 391,7 391,7 391,7 390,7 390,7 391,7 391,7 391,7 391,7 391,7 391,7 391,7 391,7 391,6 391,6 392,6 392,6 392,6 392,6 392,6 392,6 392,6 392,6 392,6 392,6 392,6 392,6 392,6 392,6 392,7 392,7 392,7 392,7 392,7 392,7 393,7 393,7 393,7 393,7 393,6 393,6 393,6 393,6 393,6 393,6 393,6 393,6 394,6 394,6 394,6 395,6 395,5 395,5 396,5 397,5 397,4 397,4 397,4 398,4 398,4 398,4 399,4 399,4 399,4 399,4 399,4 398,4 399,4 399,5 399,4 400,4 400,4 400,4 400,4 400,3 400,3 399,3 399,3 400,3 400,3 400,3 400,2 400,2 400,2 400,2 400,2 400,2 400,2 400,2 400,1 400,1 401,1 401,2 401,2 402,2 402,2 402,2 402,2 403,2 403,2 403,2 403,2 403,2 403,2 403,2 403,2 404,2 404,2 404,2 404,2 404,2 404,2 405,3 405,3 405,3 406,3 406,3 406,3 406,3 406,3 406,3 406,3 407,3 407,3 407,3 408,3 408,3 409,2 409,2 409,2 409,2 409,2 409,2 409,2 409,2 409,1 410,1 410,1 410,1 410,1 410,1 410,1 410,0 411,0 411,0 411,0 411,0 411,0 411,0 411,0 411,0 411,0 411,0 411,0 411,0 411,0 411,0 411,0 411,0 411,0 411,0 411,0 411,1 411,1 411,1 411,1 411,1 411,1 411,1 411,1 411,1 411,1 411,2 411,2 411,2 411,2 412,2 412,2 412,2 412,2 412,3 412,3 412,3 412,3 412,3 413,3 413,3 413,3 413,4 413,4 414,4 414,4 413,4 413,4 413,4 413,5 413,5 413,5 413,5 413,5 413,5 413,5 413,5 413,6 413,6 413,6 413,6 413,6 412,6 413,7 413,7 412,7 412,7 412,8 412,8 412,8 412,8 412,8 411,8 411,8 411,8 411,8 411,8 411,8 411,8 411,8 411,9 411,9 411,9 411,9 410,9 409,9 409,9 409,9 409,9 409,9 410,8 410,8 410,8 409,8 409,8 409,8 408,8 408,8 407,8 407,8 406,8 406,8 406,9 407,9 407,9 406,9 406,9 406,9 406,9 406,9 406,10 406,10 406,10 406,10 406,10 406,10 407,9 408,9 408,9 408,10 408,10 408,10 407,10 407,10 406,11 407,11 407,12 408,12 408,12 408,13 409,13 410,13 410,14 410,14 409,14 409,14 410,14 410,14 410,14 410,15 410,15 410,15 410,15 410,15 410,15 410,16 410,16 410,16 410,16 410,16 410,17 411,17 411,17 411,17 411,17 411,17 411,18 411,18 411,18 411,18 411,18 411,18 411,18 411,18 411,18 411,18 411,18 411,18 411,19 411,19 411,19 410,19 410,19 410,19 410,19 410,20 410,20 410,20 410,20 410,20 410,20 410,20 411,21 411,21 411,21 411,21 411,21 411,21 411,21 411,21 412,21 412,21 412,21 412,21 412,21 412,21 412,21 412,21 412,21 412,21 413,21 413,22 413,22 413,22 413,22 413,22 413,22 413,22 414,22 413,22 413,23 413,23 413,23 413,23 413,23 414,24 414,24 414,24 415,24 415,24 415,24 416,25 416,26 416,27 416,28 417,29 417,29 417,29 417,30 418,30 418,30 418,30 418,31 419,31 419,32 419,32 419,33 419,33 419,33 419,33 419,34 420,34 421,33 424,32 424,32 426,32 426,31 427,31 428,30 431,29 432,30 435,32 436,32 436,32 436,32 437,32 437,32 438,32 438,32 438,32 438,32 438,32 438,33 438,33 438,33 438,33 438,33 438,33 438,33 438,33 438,33 438,33 440,34 441,34 442,35 443,36 443,36 443,36 443,36 443,36 443,36 443,36 443,36 444,36 444,36 444,36 445,36 445,36 445,36 446,36 446,36 447,36 447,37 447,37 447,36 447,37 448,37 448,37 448,37 448,37 449,37 449,37 449,37 449,37 449,37 450,37 450,38 450,38 450,38 451,38 451,38 451,38 451,38 452,38 452,38 452,39 453,39 453,38 453,38 453,38 454,38 453,39 454,39 454,39 455,38 455,38 455,39 456,39 456,39 456,39 456,39 456,40 457,40 457,40 457,40 458,39 458,39 458,39 458,39 458,39 459,40 459,40 459,40 459,40 459,41 459,41 459,41 459,41 459,41 458,41 458,41 458,41 458,41 458,41 457,42 457,42 457,42 457,42 457,42 457,42 458,42 458,42 458,42 459,42 459,42 459,42 460,43 460,43 460,43 460,43 460,43 460,43 460,44 461,44 461,44 461,44 461,44 461,44 462,44 462,44 461,44 461,44 462,44 462,43 462,43 462,43 462,43 462,43 462,43 462,43 463,43 463,43 464,43 464,43 465,43 465,43 465,43 466,43 466,43 466,42 466,42 466,42 467,42 467,42 467,42 468,42 468,42 468,43 468,43 469,43 469,43 469,43 469,43 469,43 470,43 470,43 470,43 470,43 470,43 470,43 470,42 471,42 471,42 471,42 472,42 472,42 472,42 472,42 473,42 473,42 473,42 473,42 473,42 473,42 473,42 473,42 474,42 474,42 474,42 475,42 475,42 475,42 476,42 476,42 476,42 476,42 477,42 477,42 477,42 477,42 477,42 477,42 477,41 477,41 477,41 478,41 478,42 478,42 478,42 478,42 478,42 478,42 478,42 478,42 479,42 479,42 479,42 479,42 479,42 480,42 480,42 480,42 480,42 480,42 480,42 481,42 481,42 481,42 481,42 481,42 481,42 481,43 481,43 481,43 481,43 481,43 481,43 481,44 481,44 480,44 480,44 480,44 480,44 480,44 480,45 480,45 480,45 480,45 480,45 480,45 480,46 480,46 480,46 480,46 480,46 480,47 481,46 481,46 481,46 482,46 481,47 482,47 481,47 481,47 481,47 481,47 481,47 481,47 480,47 480,47 480,48 480,50 480,50 481,49 481,49 482,49 482,49 482,49 482,49 483,49 483,49 483,49 483,49 482,50 483,50 483,50 483,50 483,50 484,50 484,50 484,49 485,49 485,49 485,49 485,49 486,49 487,49 487,49 487,49 487,49 487,49 488,50 488,50 489,49 489,49 489,49 489,49 490,49 490,49 490,49 490,50 490,50 490,50 490,50 490,51 490,51 489,51 489,51 489,51 488,52 487,52 486,52 485,52 485,52 484,52 483,53 483,53 483,53 482,53 482,52 482,52 482,52 481,52 481,53 480,53 480,52 479,52 479,52 479,53 478,53 478,53 477,53 477,53 476,53 476,53 476,53 475,53 475,53 475,53 475,53 475,52 475,52 475,51 475,51 475,51 475,51 475,51 474,51 474,51 474,51 474,52 474,52 474,52 474,53 474,53 473,53 473,53 473,53 474,53 473,54 473,54 473,54 472,54 472,53 472,54 472,54 472,53 471,53 470,54 470,53 470,53 469,53 468,54 468,54 469,54 469,54 469,54 469,54 469,54 469,55 469,55 468,55 468,55 468,55 467,55 467,55 467,56 466,55 466,55 465,56 465,56 466,56 465,56 465,56 464,56 464,56 464,56 463,56 463,56 463,56 461,56 460,57 460,57 460,57 461,57 461,57 461,57 461,57 461,57 459,58 459,58 459,58 458,58 458,58 458,58 458,58 457,58 457,58 457,58 456,58 456,58 456,58 456,58 455,58 455,58 454,58 454,57 454,57 453,57 453,57 453,57 453,57 452,56 452,56 452,56 452,56 452,56 451,55 450,55 450,55 450,55 449,55 448,55 447,55 446,55 446,55 446,55 445,55 445,55 444,55 444,55 444,55 443,55 443,55 442,55 442,54 442,54 442,54 441,54 441,54 441,54 441,54 441,54 441,54 440,54 440,54 440,53 439,53 439,53 439,53 439,53 439,53 438,53 438,53 437,53 437,53 437,52 437,52 438,52 438,52 438,52 438,52 438,52 438,52 438,52 438,52 438,52 437,52 437,51 437,51 437,51 437,51 437,51 437,51 437,51 436,52 436,51 436,51 435,51 435,52 435,51 435,51 435,51 435,51 435,51 435,51 435,50 435,50 435,50 435,50 435,50 435,50 435,49 435,49 435,49 435,49 435,49 435,49 435,48 435,48 435,48 435,48 436,47 435,47 435,47 435,47 434,47 434,47 434,47 433,47 433,47 433,47 433,47 433,47 433,47 433,46 433,47 432,47 432,47 432,47 432,47 432,47 432,47 431,47 431,47 431,47 431,47 431,47 431,47 430,47 430,47 430,47 430,47 430,47 430,47 429,47 429,47 429,47 429,47 429,47 429,47 429,47 429,47 429,47 428,47 428,46 428,46 428,47 427,47 427,47 427,47 427,47 427,47 428,48 427,48 427,48 427,48 427,48 426,48 426,48 426,48 426,48 426,48 426,48 425,48 425,48 424,48 424,48 423,48 423,48 424,48 424,48 424,48 425,48 425,48 425,48 425,48 425,49 425,49 425,49 425,49 424,49 424,49 424,49 423,49 423,50 424,50 424,50 424,50 424,50 424,50 424,50 423,50 423,50 423,50 422,50 422,49 422,49 422,48 421,49 421,49 421,49 421,49 420,49 420,49 420,49 420,50 421,50 421,50 421,50 421,50 422,50 423,50 423,50 423,50 423,51 422,51 421,51 421,51 421,51 421,51 421,51 420,51 420,51 420,50 420,50 420,50 421,50 420,50 420,50 420,50 420,50 420,50 420,50 419,50 419,50 419,51 419,51 419,50 419,50 419,50 419,50 419,50 419,50 419,50 418,50 418,50 418,50 418,51 417,50 417,50 417,50 416,50 416,50 416,50 416,49 415,50 415,50 416,50 416,50 415,50 414,51 414,51 415,51 415,51 415,52 415,52 415,52 415,53 415,53 415,53 415,53 415,53 415,53 415,53 415,53 416,54 416,54 416,54 417,54 417,54 417,54 417,55 417,55 417,55 417,55 417,55 417,55 417,55 417,55 417,56 417,56 418,56 418,56 418,56 418,56 418,56 418,56 418,56 419,56 419,56 419,56 419,56 419,57 419,57 419,57 419,56 418,56 418,56 417,56 417,56 417,56 417,56 416,56 416,56 416,56 416,56 416,56 416,56 416,56 417,56 417,56 417,57 417,57 417,57 417,57 417,57 417,58 417,58 418,58 417,61 417,61 417,61 418,61 418,61 418,61 419,61 419,61 419,61 420,61 421,61 421,61 421,62 421,62 421,62 420,62 420,62 420,63 418,62 419,63 419,64 419,64 419,64 419,64 419,64 419,64 419,65 420,64 420,65 420,65 420,65 420,65 420,65 420,65 420,65 421,65 421,65 421,66 421,66 421,66 421,66 421,66 422,66 422,66 422,65 422,65 422,65 422,65 422,65 422,65 422,65 422,64 423,64 423,64 423,64 423,64 423,63 423,63 424,63 424,63 424,63 425,63 425,63 425,63 425,63 425,63 425,63 425,63 426,63 426,63 426,63 426,62 426,62 427,62 427,62 427,62 427,62 427,63 427,63 428,63 428,63 428,63 428,63 428,63 429,63 429,63 429,63 429,63 429,63 429,63 429,63 429,63 430,63 430,63 431,63 431,64 431,64 431,64 432,64 432,64 433,64 433,65 433,65 434,65 434,65 434,65 434,65 434,65 435,65 435,65 435,65 435,66 435,66 436,66 436,66 436,66 436,66 436,66 437,66 437,66 437,67 438,67 438,67 438,67 438,67 438,67 439,67 439,67 439,67 440,67 440,67 440,67 441,67 441,67 442,67 442,67 443,67 443,67 443,67 443,68 443,68 443,68 443,68 444,68 444,68 444,68 445,68 445,68 445,68 445,68 445,69 445,69 445,69 445,69 444,69 444,69 444,69 443,69 443,69 442,70 442,70 442,70 442,70 442,70 443,71 443,71 443,71 443,71 443,71 444,72 444,72 443,72 443,72 443,72 443,72 443,72 443,72 443,72 442,73 442,73 442,73 442,73 442,73 442,73 442,73 442,73 443,73 443,74 443,74 443,74 443,74 443,75 444,75 444,75 443,75 443,75 443,75 443,76 442,76 442,76 442,76 442,76 442,77 442,77 442,77 442,77 442,77 442,77 442,77 442,77 442,78 442,78 442,78 442,78 442,78 441,78 441,78 441,78 441,78 441,79 441,79 441,79 441,79 441,79 441,79 441,79 441,79 441,80 441,80 441,80 441,80 440,80 440,80 440,80 441,80 440,80 440,80 440,80 440,81 440,81 440,81 440,81 439,81 439,81 439,81 439,80 438,80 438,80 438,81 438,81 438,81 438,81 439,82 438,82 438,82 438,82 439,82 439,82 439,82 439,82 439,82 439,82 439,82 439,83 439,83 439,83 439,83 439,83 439,84 440,84 440,84 440,84 439,85 439,85 439,85 439,85 439,85 439,85 439,85 439,85 439,86 438,86 438,86 438,86 438,86 438,86 437,86 437,86 437,86 437,86 437,86 437,86 437,85 437,85 436,85 436,85 436,86 437,86 437,86 437,86 436,86 436,86 436,86 435,86 435,86 435,87 435,87 435,87 435,87 435,87 435,87 435,87 435,87 434,87 435,87 434,87 435,87 435,88 435,88 435,88 434,88 434,87 434,87 434,88 434,88 434,88 433,88 433,89 434,89 434,89 434,89 434,89 435,89 435,89 438,89 437,90 437,90 437,90 437,90 437,91 436,91 436,91 436,91 436,91 436,91 436,91 436,91 435,91 435,91 435,91 435,91 434,91 434,91 434,91 433,90 433,91 433,91 433,91 432,91 432,91 432,91 432,91 431,91 431,91 431,91 431,91 431,91 431,91 431,91 431,92 431,92 431,93 432,93 432,93 431,93 431,94 430,94 430,94 430,94 430,95 431,95 431,95 431,95 431,96 431,96 431,96 431,96 431,96 431,96 431,96 432,96 432,96 432,96 432,97 432,97 432,97 432,97 432,97 432,97 432,97 432,98 433,98 433,98 432,98 432,98 432,98 432,98 432,98 431,98 432,98 432,98 431,98 431,98 432,98 432,99 432,99 431,99 431,99 431,99 431,99 432,99 432,99 432,99 432,100 432,100 432,100 432,100 432,100 432,100 431,100 431,100 431,100 431,100 430,100 430,100 430,101 430,101 431,101 431,101 430,101 431,102 432,101 432,101 432,101 432,101 433,101 433,102 433,102 433,102 433,102 432,102 432,102 432,102 432,102 432,103 433,102 433,102 433,102 433,102 433,102 434,102 434,102 434,102 433,103 433,103 434,103 434,103 434,103 434,104 435,104 435,104 435,105 436,105 436,106 435,107 436,107 435,107 435,108 435,108 434,108 434,108 434,109 434,109 433,109 433,109 433,109 432,109 432,109 432,110 431,110 432,110 433,110 432,110 432,111 432,111 432,111 431,111 431,111 430,111 430,111 430,111 430,112 430,112 429,112 429,112 428,113 428,113 428,114 428,114 428,114 428,115 429,115 428,115 429,116 430,116 430,116 430,117 430,117 430,117 430,117 430,118 431,119 431,119 431,119 431,119 431,120 432,120 433,121 434,122 435,123 435,123 435,123 435,123 436,124 437,124 438,125 438,125 438,125 438,126 439,126 438,126 438,126 439,127 438,126 438,126 438,127 438,127 438,127 439,127 439,128 440,129 440,129 441,130 441,130 441,131 442,131 442,130 443,130 443,130 443,130 444,130 444,129 444,129 443,129 443,129 443,129 444,128 444,128 444,128 444,128 445,128 445,128 446,127 446,128 447,127 447,128 447,127 447,127 447,127 448,127 448,127 449,127 450,126 450,127 450,127 451,126 452,126 452,127 452,127 452,127 452,127 452,127 453,127 453,127 453,127 453,127 454,128 454,128 454,128 454,129 455,129 455,129 455,129 455,128 455,128 454,128 454,128 454,128 454,127 454,127 454,127 453,127 453,127 453,127 453,126 453,126 452,126 452,126 452,125 452,125 453,124 454,124 455,123 455,122 456,121 457,121 458,121 458,121 459,121 460,121 461,122 461,122 461,123 461,123 461,123 460,124 460,124 460,124 460,124 459,125 460,125 459,125 459,125 459,125 459,125 459,125 459,125 459,126 459,126 459,126 460,127 460,127 460,127 460,127 460,126 460,126 460,126 460,125 460,125 460,125 461,124 461,124 462,124 462,123 462,123 462,123 462,122 468,124 466,127 464,129 462,132 459,135 457,138 455,141 460,143 461,142 462,141 462,141 463,140 463,140 463,140 465,140 466,140 468,140 468,140 470,139 471,138 472,138 475,137 476,137 477,136 477,136 477,137 479,138 479,138 479,138 479,138 480,138 480,138 480,139 480,140 480,141 481,142 479,148 481,148 483,147 484,148 484,148 488,148 490,148 491,148 493,147 494,147 494,147 496,146 498,146 498,146 498,146 498,145 499,145 499,145 500,146 500,148 500,149 499,150 497,151 497,152 497,152 498,152 498,152 498,153 498,153 498,153 498,153 498,153 497,153 497,154 496,155 496,155 496,155 497,155 497,155 497,156 497,156 496,157 495,157 495,158 494,158 494,158 494,159 494,159 493,160 493,160 492,160 491,160 491,160 490,161 490,160 490,160 489,160 489,160 488,161 487,161 486,160 486,160 485,160 485,160 484,160 484,161 484,161 484,161 483,161 482,161 482,161 481,161 481,161 480,161 480,162 479,162 478,162 478,162 478,162 478,162 478,162 477,162 477,162 477,162 476,162 477,162 476,163 476,163 476,163 475,163 475,163 475,164 475,164 475,164 475,164 475,164 476,165 476,165 476,165 476,165 476,165 476,166 476,166 476,166 476,166 477,166 477,167 477,167 477,167 477,167 477,167 477,167 477,167 477,168 477,168 477,168 477,168 477,168 476,169 476,169 477,169 477,170 477,170 478,170 478,170 478,171 478,172 478,172 479,172 479,173 479,173 478,173 478,174 478,174 478,175 478,175 478,176 481,176 482,177 482,177 491,178 490,179 490,180 486,186 486,187 486,187 485,188 485,188 485,189 485,189 485,189 485,189 484,190 484,190 484,191 483,192 483,192 483,192 483,193 483,193 483,193 483,193 484,194 483,194 483,194 481,194 480,194 480,194 479,193 478,193 478,193 476,193 475,193 474,193 473,193 471,193 471,193 467,193 467,193 467,193 466,194 465,194 465,195 464,195 464,195 464,195 464,195 463,196 461,196 461,196 460,196 458,198 457,199 457,199 453,200 453,201 452,201 446,204 446,204 446,204 446,205 446,205 446,205 446,205 446,205 446,206 446,206 446,206 446,206 446,206 446,206 446,207 446,207 446,207 447,207 447,208 447,208 447,208 447,208 447,208 447,208 447,208 447,208 447,208 447,208 446,208 446,208 446,208 446,209 446,209 445,209 445,209 444,209 444,209 444,209 444,209 443,210 443,210 442,211 442,211 441,211 441,210 440,210 440,210 439,209 439,209 439,209 439,209 439,209 439,209 439,209 439,209 439,209 439,208 439,208 439,208 439,208 439,208 439,208 439,208 438,208 438,207 438,207 438,207 438,207 436,207 436,207 436,207 436,207 436,207 436,208 436,208 436,208 436,208 435,208 435,208 435,208 435,208 435,208 434,208 434,208 434,208 434,208 434,208 434,208 434,208 433,208 433,208 432,209 432,209 432,209 431,209 431,209 431,209 431,209 431,209 431,209 431,209 430,209 430,209 430,211 430,211 430,211 430,212 430,212 430,212 430,212 430,212 429,212 429,212 429,212 429,212 428,213 428,213 428,213 427,214 427,214 426,215 424,217 424,217 424,217 422,217 422,218 422,218 421,218 421,218 421,219 421,219 420,219 420,219 420,220 419,220 419,220 419,221 419,221 418,221 418,222 417,222 417,222 415,222 414,222 413,222 413,222 411,222 410,222 410,221 409,221 408,221 407,221 407,221 407,221 406,221 405,221 405,221 404,221 404,220 403,220 403,220 402,220 402,220 401,219 401,219 401,219 400,219 399,218 399,218 398,218 397,217 397,217 396,217 396,217 396,217 396,216 396,216 395,216 395,216 395,216 394,216 394,216 394,216 394,216 394,216 394,216 394,215 394,215 394,214 394,213 394,212 395,212 395,212 395,212 395,212 395,211 396,211 396,211 397,210 398,210 398,210 398,209 398,208 399,208 399,208 399,208 399,208 399,208 400,207 400,207 400,207 400,207 400,206 400,206 400,206 400,206 400,206 400,206 399,206 398,206 398,206 398,206 397,206 397,206 396,206 396,206 396,206 395,206 395,206 395,206 395,206 395,206 395,206 394,206 394,206 394,206 394,206 394,206 393,206 393,206 392,206 392,206 391,206 391,206 391,206 390,206 390,206 390,206 390,206 389,206 389,206 389,206 389,206 389,207 389,207 389,207 388,207 388,207 388,207 388,207 387,207 387,207 387,207 387,207 387,207 387,207 386,207 386,207 385,207 385,207 385,207 385,207 384,207 384,207 384,208 384,208 384,208 384,208 384,208 384,208 383,208 383,208 383,208 383,208 383,208 382,209 382,209 382,209 382,209 382,209 382,209 382,209 382,209 382,210 383,210 383,211 384,211 384,211 384,212 384,212 384,212 383,213 383,213 383,213 382,214 382,214 381,214 381,214 380,214 380,214 379,214 379,214 379,214 379,214 378,214 378,213 378,213 377,213 377,213 376,212 376,212 376,212 376,212 375,212 375,213 375,213 374,213 374,213 374,213 375,214 375,214 375,214 375,215 376,215 376,216 376,216 377,216 378,217 378,217 379,217 379,218 380,218 380,218 381,218 381,218 381,218 381,219 381,219 381,219 381,219 381,219 381,220 381,220 380,220 379,220 379,220 379,220 378,220 378,220 378,220 378,220 378,220 377,221 377,221 377,221 377,221 377,222 378,222 378,222 378,223 379,223 379,223 379,224 381,226 381,226 381,226 381,226 381,228 381,228 382,230 382,230 382,231 383,231 381,232 380,232 380,231 379,232 379,232 379,232 379,232 379,232 378,232 378,232 378,232 377,231 376,232 376,232 375,232 375,233 375,233 375,233 374,233 373,233 373,233 373,233 372,233 372,234 371,234 370,234 370,235 369,235 368,235 368,235 367,236 366,236 365,236 364,236 364,236 363,236 363,236 362,237 362,237 361,237 361,237 361,237 360,237 360,238 361,239 362,241 362,241 362,241 362,241 362,242 362,243 362,243 362,244 362,245 362,245 360,248 360,248 360,249 360,249 361,250 361,250 361,251 361,251 361,251 362,251 362,251 362,252 362,252 363,253 365,254 365,255 367,256 368,257 368,257 368,257 369,257 369,257 369,257 369,257 369,258 369,258 369,258 370,259 370,259 370,259 370,259 370,259 371,259 371,260 371,260 370,260 369,260 369,260 369,260 369,260 368,260 367,260 367,260 366,261 366,260 365,260 365,261 365,261 365,261 365,261 365,261 365,261 363,260 363,260 362,260 362,260 362,260 362,260 361,261 361,261 362,261 362,261 362,261 361,261 361,261 361,262 360,262 360,262 361,263 360,263 360,263 359,263 359,263 359,263 358,263 358,263 358,263 358,263 358,263 358,263 358,263 358,264 359,264 359,264 359,264 359,264 359,264 359,264 359,265 358,265 358,265 358,265 358,265 358,265 358,265 358,265 358,265 358,265 357,265 357,265 357,265 357,265 356,265 356,265 356,265 356,266 356,266 356,266 356,266 356,266 356,266 356,267 356,267 356,267 356,267 356,267 355,267 355,267 355,267 355,267 355,267 355,267 355,267 355,267 355,267 355,267 355,267 355,267 355,267 355,267 355,267 354,267 354,267 354,267 354,267 354,268 354,268 354,268 354,268 354,268 354,268 354,268 354,268 353,268 353,268 353,268 353,268 353,268 353,268 353,268 353,268 353,268 352,268 352,268 352,268 352,269 352,269 352,269 352,269 351,269 351,269 351,269 351,269 351,269 351,269 351,269 351,269 351,269 351,269 351,269 351,269 351,270 351,270 351,270 351,270 351,270 351,270 351,270 351,270 351,270 350,270 350,270 350,271 350,271 350,271 350,271 350,271 350,271 350,271 350,271 350,271 350,271 350,271 350,271 350,272 350,272 350,272 349,272 349,272 349,272 349,272 349,272 349,272 349,272 349,272 349,272 348,272 348,272 348,271 348,271 348,271 348,271 348,271 348,271 348,271 348,271 348,271 347,271 347,271 347,272 347,272 347,272 347,272 347,272 346,272 346,272 346,272 346,272 345,272 345,272 345,272 345,272 345,272 345,272 345,272 345,272 345,273 345,273 345,273 345,273 345,273 345,273 345,273 345,273 344,273 344,273 343,272 342,272 342,273 342,273 342,273 341,273 341,272 341,272 341,272 340,272 340,272 340,272 340,272 339,272 339,272 338,272 338,272 337,271 337,271 337,271 337,271 336,271 336,271 336,271 336,271 336,271 336,271 334,271 334,271 334,271 333,272 333,272 332,272 332,272 331,273 331,273 331,273 331,274 330,274 330,274 329,274 329,275 328,275 328,276 328,276 328,276 327,276 327,276 327,276 327,276 327,277 327,277 327,277 327,278 327,278 327,279 328,279 328,280 328,280 328,280 327,281 327,281 326,282 326,282 326,282 327,283 327,283 326,283 326,283 326,283 326,283 326,283 326,283 326,283 325,283 325,283 325,283 325,283 325,284 325,284 325,284 324,284 324,284 324,284 324,284 323,284 323,284 323,284 323,284 323,284 323,284 323,284 322,284 322,284 322,284 322,284 322,284 322,284 322,284 322,284 322,284 322,284 322,284 322,284 322,284 322,284 322,284 322,284 321,284 321,284 321,284 321,284 321,284 321,284 321,284 321,284 321,284 321,284 321,284 321,284 321,284 320,284 320,284 320,284 320,284 320,284 320,284 320,284 320,284 320,284 320,284 320,284 320,284 320,284 320,283 320,283 320,283 320,283 320,283 320,283 320,283 319,283 319,283 319,283 319,283 318,283 318,283 318,283 318,283 318,283 318,282 318,282 318,282 318,282 318,282 318,282 317,282 317,282 317,282 317,282 317,282 317,282 317,282 317,282 317,282 317,281 317,281 316,281 316,281 316,281 316,281 316,281 316,281 316,281 316,281 316,281 316,281 316,280 316,280 316,280 316,280 315,280 315,280 315,280 315,280 315,280 315,279 315,279 315,279 315,279 315,279 315,279 315,279 315,279 315,278 315,278 315,278 315,278 315,278 315,278 314,278 314,278 314,278 313,277 313,277 313,277 313,277 312,276 312,276 312,276 312,276 311,276 311,276 311,276 311,276 311,275 311,275 311,275 311,275 310,275 310,275 310,275 310,275 309,275 309,275 310,274 310,274 310,274 309,274 309,274 309,274 309,274 309,274 309,274 309,274 309,273 309,273 308,273 308,273 308,273 308,273 308,273 307,273 307,273 307,273 307,273 307,273 307,273 307,273 307,273 306,273 306,273 306,273 306,273 306,273 306,273 306,273 306,273 306,273 306,273 306,273 306,273 306,273 306,273 306,273 305,273 305,273 305,273 305,273 305,273 305,273 305,273 305,272 305,272 304,272 304,272 304,272 304,272 304,272 304,272 304,272 303,271 303,271 303,271 303,271 303,271 303,271 302,271 302,271 302,271 302,272 302,272 302,272 301,272 301,272 301,272 301,272 301,272 301,272 300,272 300,272 300,272 299,272 299,272 299,272 299,272 299,272 299,271 299,271 299,271 299,271 299,271 299,271 299,271 299,271 299,270 299,270 299,270 299,270 299,270 299,270 299,270 299,270 300,270 300,270 300,270 300,270 300,270 300,270 300,270 300,270 300,269 300,269 300,269 300,269 300,269 300,269 300,269 300,269 300,269 300,269 301,268 300,268 301,268 301,268 301,268 300,268 300,268 300,268 300,268 300,268 300,268 300,268 300,267 300,267 300,267 300,267 300,267 300,267 299,267 299,267 299,266 299,266 299,266 299,266 298,266 298,266 298,266 298,266 298,266 298,266 298,265 297,265 297,265 297,265 297,265 297,265 297,265 297,265 297,265 297,265 297,264 297,264 297,264 297,264 297,264 297,263 297,263 297,263 297,263 297,263 296,263 296,263 296,262 296,262 296,262 296,262 296,262 296,262 295,261 295,261 295,261 295,261 295,261 294,260 294,260 294,260 294,260 293,260 293,260 293,260 293,259 293,259 292,259 292,259 292,259 292,259 292,258 291,258 291,258 291,258 291,258 290,258 290,258 290,258 290,258 290,258 290,257 289,257 289,257 289,257 289,257 289,256 289,256 289,255 289,255 289,255 289,255 289,254 289,254 289,254 289,254 288,253 288,253 288,253 288,253 287,253 287,253 287,253 287,253 286,253 286,253 286,253 286,253 286,252 285,252 285,252 285,252 285,252 285,251 285,251 285,251 284,251 284,251 284,251 284,251 284,250 283,250 283,250 283,250 283,250 283,249 282,249 282,249 282,249 282,249 282,249 281,248 281,248 281,248 281,247 280,247 280,246 280,246 281,246 281,246 281,246 281,245 280,245 280,245 280,245 280,245 279,245 279,245 279,245 279,245 279,244 279,244 278,244 278,244 278,244 278,244 277,244 277,244 277,244 276,244 276,244 276,244 276,244 275,244 275,244 275,244 275,244 274,244 274,244 273,244 272,244 272,244 272,244 271,244 271,244 271,244 271,244 270,244 270,244 270,244 269,244 269,244 269,244 269,243 269,243 269,243 269,243 268,243 268,243 268,243 268,243 267,243 267,243 267,243 267,243 267,243 267,243 267,243 266,244 266,244 266,244 266,244 266,244 266,244 265,244 265,244 265,244 265,244 264,244 263,246 262,247 262,247 261,247 261,248 261,248 262,248 262,248 262,249 262,249 262,249 262,249 262,250 262,250 262,250 261,250 260,250 259,251 259,251 259,251 258,251 258,251 258,252 258,252 258,252 258,252 258,253 258,253 259,253 259,253 259,254 260,254 261,255 261,255 261,255 262,256 262,256 262,256 262,256 262,257 262,257 262,257 261,257 261,257 261,257 260,257 259,257 258,257 258,256 258,256 258,256 258,256 257,257 257,257 255,257 255,257 255,257 255,257 255,257 255,257 254,257 254,256 254,256 254,256 254,256 254,255 254,254 254,253 254,253 254,253 254,253 254,253 254,252 254,252 254,252 253,252 253,252 253,252 253,252 253,252 253,252 252,253 252,253 252,254 252,254 252,255 252,256 251,256 251,256 251,257 250,258 249,259 249,259 249,259 248,259 248,259 248,259 245,259 245,259 244,259 243,259 243,259 242,259 241,259 240,260 240,260 240,260 240,260 240,260 240,261 240,261 240,261 241,262 241,262 241,262 242,263 242,263 242,265 242,265 242,265 242,265 243,266 244,266 244,267 245,267 245,268 245,268 245,269 245,269 245,269 245,269 244,270 243,270 243,270 242,270 241,270 241,270 241,270 241,270 241,271 241,271 240,271 240,272 240,274 240,274 240,275 240,275 240,275 241,275 241,276 241,276 242,276 242,277 242,277 243,278 244,278 245,278 245,279 245,279 246,279 247,279 247,279 247,279 248,279 248,279 248,280 248,280 247,280 247,280 247,280 247,280 246,279 246,279 245,279 243,279 243,279 243,280 243,279 242,280 241,281 241,281 241,281 241,281 241,282 241,282 241,283 240,284 239,285 239,285 239,285 238,285 236,286 236,286 236,286 236,286 234,287 234,287 233,288 233,289 232,290 232,290 231,291 231,291 231,291 231,291 231,292 231,292 231,292 232,292 232,292 233,293 233,294 233,294 233,294 233,294 233,294 233,294 233,294 233,295 233,295 233,295 233,295 234,295 234,295 235,295 235,295 236,295 236,295 237,295 237,296 237,296 237,296 237,296 236,297 235,297 235,298 235,298 235,298 235,298 234,298 234,299 235,299 235,299 236,299 237,300 237,300 237,300 238,301 238,301 238,301 238,302 238,302 235,302 235,302 235,303 235,304 236,304 237,305 237,305 237,305 237,306 237,308 237,309 237,310 237,311 237,311 237,311 237,311 237,312 237,312 237,312 237,312 236,312 236,312 235,312 233,311 232,311 232,311 232,311 232,311 232,312 231,311 231,311 231,311 231,312 230,312 230,311 230,311 230,311 230,311 230,311 230,311 229,312 229,312 229,312 229,312 229,312 229,312 229,312 229,312 229,312 229,312 228,312 228,312 228,312 228,312 228,312 227,312 227,312 227,312 227,312 227,312 227,312 227,312 227,312 226,312 226,312 226,311 226,311 225,311 225,311 225,311 225,311 224,311 224,311 224,312 224,312 224,312 224,312 223,311 223,311 223,311 223,311 223,311 222,311 222,311 222,311 222,311 221,311 221,311 221,311 220,310 220,310 220,310 220,310 219,310 219,310 220,310 220,310 219,310 219,310 219,310 218,310 215,309 211,307 211,308 210,308 210,309 210,309 210,309 210,309 210,310 210,311 210,311 211,314 212,315 212,317 212,317 212,318 212,318 212,319 213,319 213,319 213,319 213,318 214,319 214,319 215,320 215,320 216,320 215,321 213,321 212,322 209,322 209,322 208,322 207,322 207,322 206,322 205,323 203,324 203,324 202,325 200,327 200,328 201,328 201,328 201,329 199,331 199,331 198,331 197,331 197,331 197,331 197,333 196,334 195,334 195,334 194,335 193,337 192,338 191,338 191,338 188,339 187,340 187,340 187,340 187,341 186,341 186,342 185,343 185,344 185,345 185,346 185,346 185,346 188,348 188,348 188,349 189,350 189,350 188,351 188,351 187,352 188,353 187,354 188,355 188,355 188,355 188,356 189,356 190,357 191,357 191,358 191,358 191,358 191,358 189,358 189,360 189,361 189,361 189,361 190,362 190,362 189,364 189,364 189,364 186,366 185,366 185,367 185,367 184,368 184,368 184,369 183,369 183,370 183,370 182,370 182,370 182,371 182,371 182,371 183,372 184,373 184,373 185,374 185,375 185,375 185,375 186,376 187,377 187,377 188,378 188,379 188,379 188,380 188,380 186,381 183,381 183,381 183,381 183,381 182,383 182,383 181,383 181,383 181,383 180,383 179,383 178,383 178,384 178,384 177,385 177,385 176,386 176,386 175,387 175,388 175,388 175,388 175,388 175,389 175,390 175,390 175,390 175,391 174,391 174,391 173,392 172,392 172,392 171,392 171,393 171,393 171,393 171,393 171,394 171,394 171,394 171,395 170,395 170,396 170,396 170,396 170,397 171,398 171,399 172,399 171,399 171,400 171,400 171,400 171,401 170,401 171,402 171,403 171,403 170,403 170,403 170,404 170,405 170,405 171,405 170,406 170,407 170,407 170,408 170,408 169,408 169,408 169,408 169,409 169,409 169,409 168,409 168,409 168,409 168,410 168,410 168,411 168,411 168,411 168,411 168,411 167,411 167,411 167,412 167,412 167,412 167,412 166,412 166,413 167,413 167,413 167,413 167,413 168,413 168,413 168,413 168,413 169,413 170,413 171,413 171,413 171,413 171,413 171,413 171,412 171,412 171,412 172,412 172,412 172,412 173,412 174,412 174,412 174,413 175,413 175,414 175,414 175,415 175,415 175,416 175,416 175,416 175,416 176,417 176,417 176,417 176,417 176,417 176,417 178,420 178,420 178,422 178,423 179,423 179,424 179,426 179,426 178,426 178,426 178,426 178,426 177,426 177,426 177,426 177,426 175,425 175,425 174,425 174,425 174,425 172,425 171,425 171,425 171,425 171,425 170,425 170,424 169,424 169,424 168,424 168,424 168,424 167,424 167,424 166,424 166,424 165,425 165,425 165,425 165,425 165,425 165,426 165,426 165,426 165,426 165,427 165,427 165,427 164,427 163,427 163,427 163,427 162,427 162,427 162,427 162,427 162,427 162,427 161,427 161,427 161,427 161,427 161,427 160,427 160,427 160,426 160,426 160,427 160,427 160,427 160,427 160,427 160,427 160,427 160,427 159,427 159,427 159,427 159,427 158,427 158,427 158,427 158,427 157,427 157,427 157,427 157,427 157,427 157,427 157,427 157,427 157,427 157,427 157,427 156,427 156,427 156,427 156,428 156,428 156,428 156,428 156,428 156,428 155,428 155,428 156,429 156,429 156,429 155,429 155,429 155,429 155,430 155,430 155,430 155,430 155,430 155,430 155,430 155,430 154,430 154,430 154,431 154,431 154,431 154,431 154,431 154,431 154,431 154,431 154,431 154,431 154,431 153,431 153,431 153,431 153,431 153,431 153,431 153,431 153,431 153,431 153,432 153,432 153,432 153,432 153,432 153,432 154,432 154,432 154,432 154,432 154,433 154,433 154,433 154,433 154,433 154,433 154,433 154,433 154,433 154,433 154,434 154,434 154,434 154,434 154,434 154,434 154,434 154,434 154,434 154,434 154,434 154,434 154,434 154,434 154,434 154,434 154,434 154,434 154,434 154,434 154,434 154,434 154,434 154,434 154,434 154,435 154,435 154,435 154,435 154,435 154,435 154,435 154,435 154,435 154,435 154,435 154,435 154,435 154,435 154,436 154,436 154,436 154,436 154,436 154,436 154,436 154,436 154,436 154,436 154,437 154,437 154,437 154,437 154,437 153,437 153,437 153,437 153,438 153,438 153,438 152,438 152,438 152,438 152,438 152,438 152,438 152,438 152,438 152,439 152,439 152,439 152,439 152,439 152,439 152,439 152,439 152,439 152,439 152,439 152,439 151,439 151,439 151,439 151,439 151,439 151,439 151,439 151,439 151,439 151,439 151,439 151,439 151,439 151,440 151,440 151,440 151,440 151,440 151,440 151,440 151,440 151,440 151,440 150,440 150,440 150,440 150,440 150,440 150,440 150,440 150,441 150,441 149,441 149,441 150,441 150,441 150,441 150,441 149,441 149,441 149,441 149,441 149,441 149,441 149,441 149,441 149,441 149,442 149,442 149,442 149,442 149,442 149,442 149,442 149,442 149,442 149,442 149,442 149,442 149,443 149,443 149,443 149,443 149,443 149,443 149,443 149,443 149,443 149,444 149,444 149,444 149,444 148,444 148,445 148,445 148,445 148,445 148,445 149,446 149,446 149,446 149,447 149,447 148,447 148,447 148,447 148,447 147,448 147,448 147,448 147,448 147,448 147,448 147,449 146,449 146,449 146,449 146,449 146,449 145,449 145,449 145,449 145,450 145,450 144,451 144,451 144,451 143,451 143,451 143,451 143,451 143,451 142,451 142,451 142,451 142,450 142,450 142,450 142,451 142,451 142,451 142,451 142,451 142,451 142,451 142,452 142,452 142,452 142,452 142,452 142,452 142,452 142,452 142,452 142,452 143,453 143,453 143,453 143,453 143,454 143,454 143,454 143,454 143,454 143,455 143,455 143,455 142,455 142,455 142,455 141,455 141,456 141,456 142,456 142,456 142,456 142,456 141,457 142,457 142,457 142,457 142,457 142,457 142,457 142,457 142,458 142,458 142,459 142,459 142,459 142,460 142,460 142,460 142,460 141,461 141,461 141,461 141,461 141,462 141,462 141,463 141,463 141,463 140,464 140,464 140,464 140,464 140,465 140,465 140,465 139,466 139,466 139,466 139,467 139,467 139,467 139,467 138,467 138,467 137,467 137,467 137,468 137,468 137,468 138,468 138,468 137,468 137,468 137,468 137,469 137,469 134,471 133,472 133,472 133,473 132,474 132,474 131,475 131,476 130,477 129,477 129,477 128,478 128,478 129,479 128,480 128,480 128,480 127,481 127,482 126,482 126,482 126,483 126,483 126,483 126,483 126,483 126,484 126,484 126,485 126,485 126,485 126,485 125,486 125,486 125,487 124,487 124,487 124,488 124,488 124,489 124,489 126,489 126,489 127,489 127,489 127,489 125,491 125,492 125,493 124,493 123,493 123,494 122,494 122,494 122,494 122,494 121,494 120,494 120,494 117,494 117,494 117,494 116,493 115,493 115,492 114,492 114,492 114,492 114,491 114,491 114,491 112,490 112,490 112,490 111,490 111,489 111,489 110,488 110,488 108,487 108,486 108,486 107,485 106,485 106,485 106,485 106,484 105,484 105,484 105,484 106,481 106,481 105,481 105,481 105,481 104,481 104,480 104,481 104,480 104,480 103,480 103,480 103,480 103,480 103,480 103,480 102,480 102,480 102,480 102,480 102,480 102,480 102,480 102,480 102,480 102,480 101,480 101,480 101,480 101,480 101,480 101,480 101,480 101,480 101,480 101,480 100,480 100,480 100,480 100,480 100,480 100,480 100,480 100,480 100,480 99,480 99,480 99,480 99,480 99,480 99,480 99,480 99,480 98,479 98,479 98,479 98,479 98,479 98,479 98,479 98,479 98,479 98,479 98,479 98,479 98,479 98,479 98,479 98,479 98,479 98,479 98,478 98,478 98,478 98,478 98,478 98,478 98,478 98,478 98,478 98,478 98,478 98,478 98,478 98,477 98,478 98,477 98,477 98,477 98,477 98,477 98,477 98,477 98,477 98,477 98,477 98,476 98,476 98,476 98,476 98,476 98,476 98,476 98,476 98,476 98,475 98,475 98,475 98,475 98,475 98,475 98,475 98,475 98,475 98,475 98,475 98,474 98,474 98,474 98,474 98,474 98,473 98,473 98,473 98,473 98,473 98,473 98,473 98,473 98,472 98,472 98,472 98,472 97,472 97,472 97,472 97,471 97,471 97,471 96,471 96,471 96,471 96,471 95,471 95,471 95,471 95,471 95,470 95,470 95,470 94,470 94,470 94,470 94,470 93,470 93,470 93,469 93,469 93,469 93,469 93,469 93,469 93,469 93,469 93,468 93,468 93,468 93,468 93,468 93,468 92,468 92,468 92,468 92,468 92,468 92,468 92,467 92,467 92,467 92,467 92,467 92,467 92,467 91,467 91,467 91,467 91,466 91,466 92,466 92,466 92,466 91,466 91,466 91,466 91,465 91,465 91,465 91,465 91,465 91,465 91,465 90,464 90,464 90,464 90,464 90,464 89,464 89,464 89,464 89,464 89,464 89,464 89,464 89,464 89,464 89,464 89,463 89,463 89,463 89,463 89,463 88,463 88,463 88,463 88,463 88,463 88,463 88,463 87,463 87,463 87,463 86,463 86,463 86,463 86,463 85,463 85,463 85,463 85,463 85,463 85,463 84,463 84,463 84,463 84,463 84,462 83,462 83,462 83,462 82,462 82,462 82,462 82,462 82,462 82,462 82,461 82,461 82,461 81,461 81,461 81,461 81,460 81,460 81,459 81,459 81,459 81,459 81,459 81,459 81,459 81,459 81,459 81,459 81,459 82,459 82,459 82,459 82,458 82,458 82,458 81,458 81,458 81,457 81,457 82,457 82,457 82,457 82,457 82,457 82,457 83,457 83,457 83,457 83,457 82,457 82,457 82,457 83,457 83,457 83,457 83,457 83,456 83,456 83,456 83,456 84,456 84,456 84,456 84,456 84,456 84,456 84,456 84,456 84,456 84,456 85,456 85,456 85,456 85,456 85,456 85,456 86,456 86,456 86,456 86,456 86,456 86,456 87,456 87,456 87,456 87,456 87,456 87,456 87,456 87,456 87,456 87,456 87,456 87,455 87,455 87,455 87,455 87,455 87,455 87,455 86,455 86,455 86,455 86,454 86,454 85,454 85,454 85,454 85,454 85,454 85,454 84,453 84,453 84,453 84,453 84,453 84,452 84,452 84,452 84,452 84,452 84,452 83,452 83,452 83,452 83,451 83,451 83,451 83,451 83,451 83,451 83,451 83,451 83,451 82,451 82,451 82,451 82,451 82,450 82,450 82,450 82,450 82,450 82,450 82,450 82,450 82,450 82,449 82,449 82,449 82,449 82,449 82,449 82,449 82,449 82,449 82,449 82,449 82,449 82,449 82,448 82,448 82,448 82,448 82,448 82,448 82,448 82,448 82,448 82,448 82,447 81,447 81,447 81,447 81,447 81,447 81,447 81,447 81,447 80,447 80,446 80,446 80,446 79,446 79,446 79,446 79,446 79,446 79,446 79,446 78,446 78,447 78,446 78,446 78,446 78,446 78,446 78,446 78,446 78,446 78,446 78,445 78,445 78,445 78,445 78,445 78,445 78,445 78,445 77,445 77,445 76,444 76,444 76,444 76,444 76,443 77,443 77,441 77,440 77,439 77,439 78,437 78,436 78,435 77,433 77,433 77,433 77,433 77,433 76,433 76,433 75,429 74,428 74,428 74,427 73,426 73,426 72,425 72,424 71,421 71,421 70,417 69,415 69,415 69,415 69,414 69,414 69,414 69,414 69,414 68,414 68,414 68,414 68,414 68,414 68,414 68,414 68,414 68,414 67,414 67,414 67,414 67,414 67,414 67,414 67,413 67,413 67,413 67,413 67,413 67,413 67,413 67,413 67,413 67,412 68,412 69,411 71,409 71,409 74,405 75,404 75,404 77,400 78,397 78,397 78,397 78,397 78,397 77,397 77,396 77,396 77,396 77,396 77,396 77,396 77,396 77,396 76,396 76,396 76,396 76,396 76,396 76,395 76,395 76,395 76,395 77,395 76,395 76,395 76,395 77,395 76,394 76,394 77,394 77,394 77,394 77,394 77,394 77,394 77,394 77,394 77,394 77,394 77,393 77,393 77,393 77,393 77,393 77,393 77,393 77,393 77,393 77,392 77,392 77,392 77,392 77,392 76,392 76,392 76,392 76,392 76,392 76,392 76,392 76,392 76,392 76,392 75,392 75,391 75,391 75,391 75,391 75,391 75,391 75,391 75,391 75,391 75,391 75,390 75,390 75,390 75,390 75,390 75,390 75,390 75,390 75,390 75,390 74,389 74,389 74,389 74,389 74,389 74,389 74,389 74,389 73,389 73,389 73,389 73,389 73,388 73,388 73,388 72,388 72,388 72,388 72,388 72,388 72,388 72,388 72,387 72,387 72,387 72,387 72,387 72,387 71,387 71,386 71,386 71,386 71,386 71,385 71,385 71,385 71,385 71,385 71,385 71,385 70,385 70,385 70,385 70,385 69,385 69,385 69,385 69,385 68,385 68,386 67,386 67,386 67,386 67,386 67,386 67,386 67,387 67,387 66,387 66,387 66,388 65,388 65,388 65,388 65,388 64,388 64,388 64,388 64,388 64,388 64,388 64,388 64,387 64,387 63,387 62,387 62,387 61,386 61,386 61,386 61,386 60,386 60,386 60,386 60,386 60,386 60,385 60,385 60,385 60,385 60,385 59,385 59,385 59,385 59,384 59,384 59,384 58,383 57,383 57,383 57,383 57,382 57,382 57,382 56,382 56,382 56,382 56,382 56,382 56,382 56,382 56,381 56,381 56,381 56,381 56,381 56,381 56,381 56,381 56,381 56,380 57,380 57,380 57,380 57,380 57,380 57,380 57,379 57,379 57,379 57,379 56,379 56,379 56,379 56,379 56,379 56,379 56,379 56,379 56,379 56,378 56,378 57,378 57,378 56,378 56,378 56,378 57,378 57,378 57,378 57,378 57,378 57,378 57,378 57,378 58,378 58,378 58,377 58,377 58,377 58,377 58,377 58,377 59,377 59,377 59,377 59,377 59,377 59,377 59,377 59,377 59,377 60,377 60,377 60,377 60,377 60,377 60,377 60,377 60,377 60,377 60,376 60,376 60,376 60,376 60,376 60,376 60,376 60,376 60,376 60,376 60,376 60,376 60,376 60,376 60,376 59,376 59,376 59,376 59,376 59,376 59,376 59,376 59,376 59,375 59,375 59,375 59,375 59,375 59,375 59,375 60,375 60,375 60,375 60,375 60,375 60,375 60,375 60,375 60,375 60,375 60,375 60,375 60,375 60,375 60,375 60,375 61,375 61,376 61,376 61,376 61,376 61,376 61,376 62,376 62,376 62,376 62,376 62,376 62,376 62,376 62,376 62,376 62,376 63,377 63,377 63,377 63,377 63,377 63,377 63,377 63,377 63,377 63,377 64,377 64,377 64,377 64,377 64,377 64,377 64,377 64,377 65,377 65,377 65,377 65,377 65,377 65,377 65,377 65,377 65,377 65,377 65,377 66,377 66,377 66,377 66,377 66,377 66,377 66,377 66,377 66,377 66,377 66,377 66,377 66,377 66,377 67,377 67,377 67,378 67,378 67,378 67,378 67,378 67,378 67,378 67,378 68,378 68,378 68,379 68,379 68,379 68,379 68,379 68,379 68,379 68,379 68,379 69,379 69,379 69,379 69,379 69,379 70,379 70,379 71,379 71,379 71,380 71,380 71,380 72,380 72,380 73,380 73,381 73,381 74,381 74,381 74,381 74,381 75,380 75,380 75,379 76,378 76,377 76,377 77,376 78,376 78,376 79,375 79,375 79,375 79,374 78,373 78,372 77,372 78,371 78,371 78,371 78,370 78,370 78,370 78,370 78,370 78,370 79,369 79,369 79,369 80,369 81,368 81,368 81,368 80,367 80,367 80,367 78,364 77,363 77,362 77,362 77,362 76,362 76,361 76,361 76,360 75,360 75,359 74,359 74,359 74,358 74,358 74,358 73,357 72,357 72,357 72,357 71,357 71,357 71,356 71,356 70,356 70,356 69,355 69,355 69,355 69,354 69,354 69,354 69,353 64,349 59,352 57,352 57,352 55,353 55,354 55,354 55,354 55,354 55,354 55,355 55,355 54,355 54,355 54,355 54,355 54,355 54,355 54,355 53,356 53,356 53,356 52,357 51,358 51,358 51,358 51,358 50,359 50,359 50,359 49,359 49,359 49,359 49,359 49,359 49,359 48,360 48,360 48,360 48,359 48,359 48,359 48,359 48,359 48,359 48,359 48,359 48,359 48,359 48,359 48,359 48,359 48,359 48,359 48,359 48,359 48,359 48,359 48,359 47,359 47,359 47,359 47,359 47,359 47,359 47,359 47,359 47,359 47,359 47,359 47,359 47,359 47,359 47,359 47,359 47,359 47,359 47,359 47,359 47,359 47,359 46,359 46,359 46,359 46,359 46,359 46,359 46,359 46,359 46,359 45,359 45,359 45,359 44,359 44,358 44,359 44,359 44,359 44,359 44,359 44,359 44,359 44,359 44,359 43,359 43,359 43,359 43,359 43,359 43,359 43,359 43,359 43,359 43,359 43,359 43,359 43,359 43,358 43,358 42,358 42,358 42,358 42,358 42,358 42,358 42,358 42,358 42,358 42,358 41,358 41,358 41,358 41,358 41,358 41,358 41,358 41,358 41,358 41,358 41,358 41,358 41,358 41,358 41,358 41,358 41,358 41,358 41,358 41,358 41,358 40,358 40,358 40,358 40,358 40,357 40,357 40,357 39,357 39,357 39,357 39,357 39,357 39,357 39,357 39,357 39,357 39,357 38,357 38,357 38,357 38,357 38,357 38,357 38,357 37,357 37,357 37,357 37,357 37,357 37,357 37,357 37,357 37,357 37,357 37,357 37,357 37,357 37,357 37,357 37,356 37,356 36,357 36,356 36,356 36,356 36,356 37,356 37,356 37,356 36,356 36,356 36,356 36,356 36,356 36,356 36,356 36,356 36,356 36,356 36,356 36,356 36,356 36,356 36,356 36,356 36,356 36,356 35,356 35,356 35,356 35,356 35,356 35,356 35,356 35,356 35,356 35,356 35,356 35,355 35,356 35,356 35,356 35,356 35,356 34,355 34,355 34,355 34,355 34,355 34,355 34,355 34,355 34,355 34,355 34,355 34,355 33,355 33,355 33,354 33,354 33,354 32,354 32,354 32,354 32,354 32,354 32,354 32,354 32,354 32,354 32,354 32,354 32,354 32,354 33,354 32,354 32,353 32,353 32,353 33,353 33,353 34,353 34,353 34,353 34,353 34,353 34,352 34,352 34,352 34,352 34,352 34,352 34,352 33,351 33,351 33,351 33,351 33,351 33,350 32,350 32,350 31,350 31,349 31,349 31,349 30,348 30,348 30,348 29,348 29,348 29,347 28,347 24,340 24,340 24,340 24,340 24,340 24,340 23,339 23,339 23,338 23,338 23,337 22,337 22,337 22,337 22,335 22,335 22,335 22,335 22,335 22,334 22,334 22,334 22,334 22,333 22,332 22,331 22,331 21,330 21,330 21,330 21,330 21,329 21,329 21,329 20,328 20,328 20,328 20,328 20,328 20,328 19,327 18,327 18,327 18,326 17,326 17,326 17,326 17,325 17,325 17,324 17,324 17,324 17,324 17,324 17,324 16,323 16,322 16,322 16,322 16,322 16,321 16,321 16,321 16,320 16,319 16,319 16,319 16,319 16,318 16,318 16,317 16,317 16,317 16,316 16,315 15,315 15,315 15,315 15,314 15,314 15,314 14,313 15,313 14,313 14,311 14,311 13,311 13,311 13,312 13,312 13,312 12,312 12,312 12,311 12,311 12,311 12,311 12,311 12,311 12,310 12,310 11,310 11,310 11,310 11,310 10,310 10,310 10,310 10,310 10,310 9,310 9,310 9,310 9,310 9,310 9,310 8,310 8,309 8,309 8,309 7,309 7,309 7,309 7,308 7,307 7,307 7,307 6,307 6,306 6,306 6,306 6,306 6,306 5,306 5,306 5,306 5,305 5,305 5,305 5,305 6,305 5,305 5,305 5,304 5,304 5,304 5,304 5,303 5,303 5,303 5,303 6,303 6,302 7,303 7,303 7,303 7,303 7,302 7,302 7,302 8,302 8,302 8,302 8,302 8,302 8,303 8,303 8,303 8,303 8,303 9,303 9,303 9,303 9,302 10,302 10,302 10,302 10,302 10,302 11,302 11,302 11,302 11,302 11,302 11,302 11,301 11,301 11,300 11,300 11,300 11,300 11,300 10,300 10,300 10,299 11,299 11,299 11,299 11,299 11,299 11,299 11,299 11,298 11,298 11,298 10,298 10,298 10,298 10,298 9,298 9,298 8,298 8,298 8,298 8,298 8,298 7,297 7,297 8,297 8,297 8,296 7,296 7,296 7,295 7,295 7,295 7,295 7,295 7,295 6,295 6,295 6,295 6,295 6,295 6,295 6,295 5,295 5,295 5,295 5,296 5,296 5,296 5,296 5,296 5,296 5,296 4,297 4,297 4,296 4,296 4,296 4,296 3,296 3,296 3,296 3,296 3,297 3,297 3,297 3,296 2,296 2,296 2,296 1,296 1,296 1,296 1,295 0,295 0,295 0,295 0,294 1,294 1,294 1,294 1,294 1,294 1,294 2,293 2,293 2,293 2,293 1,293 1,292 1,292 1,292 0,292 0,292 0,292 0,292 0,292 0,291 0,291 1,291 1,291 1,291 1,291 1,291 1,291 1,291 1,290 1,290 1,290 1,290 1,290 1,290 1,289 1,289 1,289 1,289 1,289 1,288 1,288 1,288 2,288 2,288 1,287 1,287 1,287 2,287 2,286 2,286 2,286 2,286 2,286 2,285 1,285 1,285 2,284 2,284 2,284 2,284 3,284 3,283 2,283 2,283 2,283 2,283 2,282 2,282 2,282 2,281 2,281 2,281 2,281 2,281 2,281 2,281 2,280 2,280 2,280 3,280 3,280 4,280 5,280 5,279 6,279 7,279 7,278 7,278 7,278 7,278 7,278 7,277 7,277 7,277 6,277 6,277 6,277 6,277 5,277 5,277 5,277 5,276 5,276 5,276 5,276 5,276 5,275 5,275 5,275 5,275 5,274 5,274 5,274 5,274 5,273 5,273 5,272 5,272 5,272" id="1509" class="canton" fill="steelblue" stroke-width="1" stroke="white" geotype="canton" geoname="Neuvglise" code_insee="1509" code_departement="15" nom_departement="Cantal" code_region="84" nom_region="Auvergne-Rhne-Alpes"/></svg>