<?xml version="1.0" encoding="utf-8"?>
<svg version="1.1" id="svgmap" xmlns="http://www.w3.org/2000/svg" xmlns:xlink="http://www.w3.org/1999/xlink" x="0px" y="0px" width="100%" height="100%" viewBox="0 0 500 265">
<polygon points="292,18 292,18 292,18 292,18 292,17 292,17 293,17 293,17 294,17 294,17 294,17 294,17 295,17 296,16 296,16 296,16 297,16 298,16 298,16 298,16 298,16 298,16 298,15 298,15 298,15 298,15 298,15 298,15 298,15 298,15 298,15 298,15 298,14 298,14 298,14 298,14 298,13 298,13 298,13 298,13 299,13 299,13 300,13 300,13 300,13 300,12 301,12 301,12 301,12 302,11 302,11 302,11 303,11 303,11 303,11 303,10 303,10 303,10 303,10 304,10 304,10 304,10 304,10 305,10 305,10 305,10 305,10 305,10 305,10 305,10 305,10 305,10 305,10 305,10 306,10 306,10 306,10 306,10 306,10 306,10 306,10 306,10 306,10 307,10 307,10 307,10 307,10 307,9 307,9 308,10 308,10 308,10 308,10 308,10 308,10 309,10 309,10 309,10 309,10 309,10 309,10 309,10 309,10 309,10 309,10 309,10 309,10 309,10 309,10 309,10 309,10 309,10 309,10 310,10 310,9 310,9 310,9 311,9 311,9 311,9 311,9 311,9 311,9 311,9 312,9 312,9 312,9 313,9 313,9 313,8 313,8 314,8 314,8 314,8 314,8 314,8 314,8 315,8 315,8 316,8 316,7 316,7 316,7 316,7 317,7 317,7 317,8 318,8 318,8 318,8 318,8 318,8 318,8 318,8 319,8 319,8 319,8 320,8 320,8 320,8 320,8 320,8 321,9 321,9 321,9 321,9 322,9 322,9 323,9 323,9 323,9 323,9 323,9 323,9 324,9 324,9 324,9 324,9 324,9 324,10 324,10 324,10 324,10 324,10 324,10 325,10 325,10 325,10 325,11 325,11 326,11 326,11 326,11 326,11 326,11 326,11 326,11 326,11 326,11 327,11 327,11 327,11 327,11 327,11 327,11 327,11 328,11 328,11 328,11 328,11 328,11 328,12 328,12 328,12 328,12 328,12 328,12 329,12 329,12 329,12 329,12 329,12 330,12 330,12 330,12 330,12 330,12 331,12 331,12 331,12 332,12 332,12 332,12 332,12 332,13 332,13 332,13 333,13 333,13 333,13 333,13 333,13 333,13 333,13 334,13 333,14 333,14 334,14 335,14 336,14 336,14 336,14 336,14 336,14 336,14 336,14 337,14 337,14 337,14 337,14 338,14 338,14 338,14 339,14 339,14 340,13 340,13 340,13 340,13 341,13 341,13 341,13 341,13 341,13 342,13 342,13 342,13 342,13 342,13 342,13 342,13 343,13 343,13 343,13 343,13 343,13 344,13 344,13 345,13 345,13 346,13 347,13 347,13 347,13 348,13 348,13 349,14 350,14 351,14 352,14 353,15 355,15 356,13 355,11 358,10 359,10 360,9 361,9 361,9 362,9 362,8 363,8 364,8 364,8 364,7 365,7 365,7 365,7 365,7 365,7 366,7 366,7 366,7 366,8 367,8 367,8 368,8 368,8 368,8 368,8 369,8 369,8 370,8 371,8 371,7 371,7 371,7 371,7 371,7 371,7 371,7 371,7 371,7 371,6 372,6 372,6 372,5 372,5 372,5 372,5 372,5 375,3 375,3 376,2 376,2 376,2 376,2 377,2 377,1 378,1 379,1 379,0 380,0 380,0 380,0 381,0 381,0 381,1 381,1 381,1 382,1 382,1 382,1 382,1 383,1 383,1 383,1 383,1 383,1 384,1 384,1 384,1 384,1 385,1 385,1 385,1 385,1 385,1 385,1 385,1 386,1 386,1 387,1 387,1 387,2 387,2 388,2 388,3 388,4 388,4 388,4 388,4 388,4 389,5 389,5 389,5 390,5 390,5 390,5 390,5 390,5 390,5 390,5 390,5 389,5 389,6 389,6 389,6 389,6 389,6 389,6 389,6 389,7 389,7 389,7 390,7 390,7 389,7 389,8 389,8 388,8 388,9 388,9 389,9 389,8 390,8 390,8 390,8 390,8 390,9 391,9 391,9 391,9 391,9 392,9 392,9 392,9 392,9 392,9 392,9 392,9 392,9 393,9 393,9 393,10 393,10 394,10 393,10 393,10 393,10 393,10 394,11 394,11 394,11 394,10 395,10 395,10 395,10 395,11 395,11 395,11 395,11 395,11 395,11 396,10 396,10 396,10 396,10 396,10 397,10 397,10 398,10 398,10 398,10 399,10 399,10 399,9 399,9 400,9 400,9 400,9 400,9 400,9 400,9 400,9 400,9 401,9 401,9 402,8 402,8 403,9 403,9 403,9 403,8 403,8 403,8 404,8 404,8 404,8 405,8 405,8 405,8 406,8 406,8 407,8 407,8 407,8 407,8 407,8 407,8 408,8 408,8 408,8 408,8 408,9 408,9 409,9 409,9 409,8 409,8 410,8 410,8 410,8 410,8 410,8 410,9 411,9 411,9 411,8 411,8 412,8 412,8 413,8 413,8 413,8 413,8 413,8 413,8 414,8 414,8 414,8 414,8 415,9 413,10 413,11 417,11 420,14 417,14 418,17 427,22 433,23 433,23 433,23 434,23 433,23 433,23 434,23 434,23 434,22 434,22 434,22 434,22 434,22 434,22 435,22 435,22 434,22 434,21 434,21 434,21 434,21 433,21 433,20 434,20 434,20 434,20 434,20 434,19 434,19 434,19 434,19 434,19 434,19 434,19 434,18 434,18 437,17 439,17 441,16 444,17 449,20 451,20 453,22 456,22 457,22 457,28 461,29 469,32 470,32 475,31 477,30 477,31 475,32 475,35 475,38 477,40 477,42 478,45 479,46 479,47 479,49 480,53 480,53 483,59 487,66 486,67 486,67 487,67 487,67 487,67 487,67 487,67 487,67 487,67 488,67 490,68 493,72 498,77 500,82 500,82 499,82 499,82 496,81 494,80 494,80 494,80 494,80 494,80 494,80 493,80 493,80 493,80 493,80 492,80 492,80 492,80 491,80 491,80 491,79 490,79 490,79 490,79 490,79 489,79 489,79 489,79 489,79 488,79 488,79 488,79 488,79 488,79 487,79 487,79 487,79 486,79 486,79 486,79 486,79 485,79 485,79 485,79 485,79 485,80 485,80 485,80 485,80 484,80 484,80 484,80 484,80 484,80 484,81 484,81 484,81 483,81 483,81 483,81 482,81 482,81 482,82 482,82 482,82 480,81 477,80 474,80 474,79 472,78 471,77 471,75 471,75 471,75 470,76 470,76 469,77 469,77 468,78 468,78 468,78 468,79 467,80 467,81 466,81 466,82 465,82 465,82 465,82 465,83 464,83 464,83 464,83 464,83 463,83 463,83 461,84 461,84 459,85 458,85 457,86 457,86 457,86 456,86 453,87 452,88 452,88 451,88 449,88 447,87 447,87 444,86 442,86 441,86 440,86 439,86 437,86 436,86 435,86 434,86 432,86 431,86 430,86 430,86 429,85 429,86 429,86 428,86 428,86 428,86 427,86 427,86 427,87 427,87 427,87 427,87 426,87 426,87 426,88 425,89 425,89 425,89 425,89 425,90 425,90 426,90 426,90 426,90 427,90 427,91 427,91 427,91 428,91 427,91 427,91 427,91 427,91 427,91 427,91 427,91 427,91 427,91 427,91 427,91 427,91 426,92 426,92 426,92 426,92 426,92 426,92 425,92 425,92 425,92 425,92 425,92 425,92 425,92 425,92 425,92 425,92 425,92 425,92 424,92 424,92 424,92 424,92 423,93 423,93 422,93 421,93 421,93 421,94 421,94 421,94 421,94 421,94 421,94 421,95 422,95 422,95 422,95 422,95 422,95 422,95 422,95 422,95 422,95 422,95 422,95 422,95 422,95 422,95 422,95 422,95 421,96 421,96 421,96 421,96 421,97 421,97 421,97 421,97 421,97 420,97 420,97 420,97 420,97 420,98 420,98 420,99 420,99 420,99 420,99 420,99 420,99 419,99 419,99 419,99 418,99 418,99 418,99 418,99 418,99 417,99 417,99 417,100 417,100 417,100 416,100 416,100 416,100 415,100 415,100 416,100 417,101 417,101 418,101 418,101 419,101 419,101 420,102 420,102 420,102 421,102 421,102 421,102 421,102 421,102 421,103 422,103 422,103 421,103 421,104 419,104 419,104 417,105 417,106 416,106 416,106 416,106 416,106 415,107 415,107 415,107 415,107 414,108 411,109 411,111 414,116 414,117 410,118 409,118 407,119 406,119 406,120 404,122 404,122 403,121 402,121 402,120 402,120 401,120 401,120 400,120 400,119 399,119 399,119 399,119 398,118 398,118 397,117 397,117 397,118 396,118 396,118 396,118 396,118 396,118 396,118 396,118 396,119 396,119 396,119 395,119 395,119 395,120 395,120 395,120 394,120 394,120 394,120 394,120 394,120 393,120 393,120 393,120 393,120 392,120 392,120 392,120 392,120 391,120 391,120 391,120 390,120 390,120 390,120 390,120 390,120 390,120 390,119 390,119 389,119 389,119 389,119 389,119 389,119 389,119 389,119 389,119 389,119 389,119 389,119 389,118 389,118 389,118 389,118 389,118 389,118 389,118 388,118 388,118 388,117 388,117 388,117 388,117 388,117 388,117 388,117 387,117 387,117 387,117 387,116 387,116 386,116 386,116 386,116 386,116 386,116 386,116 386,116 386,116 385,116 385,116 385,116 385,116 385,116 385,116 384,116 384,116 384,115 384,115 384,115 384,115 383,115 383,115 383,115 383,115 383,115 383,115 382,115 382,115 382,115 382,115 382,115 382,114 382,114 382,114 382,114 382,114 381,114 381,114 381,114 381,113 381,113 381,113 380,113 380,113 380,113 380,113 380,113 379,113 379,113 379,113 379,113 379,113 379,113 379,113 378,113 378,113 378,113 378,113 377,113 377,113 377,113 377,113 377,113 376,113 376,113 376,113 376,113 376,113 376,113 376,113 376,112 375,112 375,112 375,112 375,112 375,112 375,112 375,113 375,113 375,113 375,113 375,113 375,113 375,113 375,113 375,113 375,113 375,113 375,113 375,113 375,113 375,113 374,113 374,113 374,113 374,113 374,113 374,113 374,113 374,113 374,113 374,113 373,113 373,113 372,113 372,113 372,113 372,113 371,113 371,113 371,113 371,113 371,113 370,113 370,113 369,113 369,113 368,113 368,113 368,113 368,113 368,113 368,113 368,113 367,114 368,114 368,114 368,114 368,114 368,114 368,114 368,114 368,115 368,115 368,115 368,115 368,115 368,115 368,115 368,115 368,115 368,115 368,115 368,115 368,115 367,115 367,115 367,115 366,115 366,115 366,115 366,115 366,115 365,115 365,115 365,115 365,115 365,115 365,115 365,115 365,115 365,115 365,115 365,115 365,115 364,115 364,115 364,115 364,115 364,115 364,115 364,115 364,115 364,115 364,115 363,115 363,115 363,115 363,116 363,116 363,116 363,115 363,115 363,115 363,115 363,115 363,115 363,115 362,115 362,115 362,114 362,114 362,114 362,114 361,115 361,114 361,114 361,115 361,115 361,116 362,116 362,116 362,116 362,116 361,116 361,116 361,116 360,116 360,116 360,116 360,116 359,116 359,115 359,115 359,116 359,116 359,116 359,116 359,116 359,117 359,117 359,117 359,117 360,117 360,117 360,117 360,117 360,118 360,118 361,118 361,118 361,118 361,118 361,118 361,119 360,119 360,119 360,119 360,119 359,119 359,119 359,119 359,119 359,119 359,119 358,118 358,119 358,119 357,119 357,119 357,119 357,119 357,119 358,119 358,119 358,120 358,120 358,120 358,120 358,120 359,120 359,120 359,120 359,121 359,121 359,121 359,121 359,121 359,121 359,121 358,121 358,121 358,121 358,121 358,121 358,121 358,121 358,121 358,121 358,121 358,121 358,121 358,121 358,122 358,122 358,122 358,122 358,122 358,122 358,122 358,122 358,122 357,122 357,122 357,122 357,122 357,122 357,123 357,123 357,123 357,123 357,123 357,123 357,123 357,123 357,123 357,123 356,124 356,124 356,124 356,124 356,124 356,124 355,125 355,125 355,125 355,125 355,125 356,126 356,126 356,126 356,126 356,126 356,126 356,126 356,127 356,127 356,127 356,127 356,128 355,128 355,128 355,128 355,128 355,128 355,127 355,127 355,127 355,127 354,127 354,127 352,126 352,126 352,126 352,127 352,127 352,127 352,127 352,127 352,127 352,127 352,127 352,127 352,127 352,127 352,127 352,127 351,127 351,127 351,127 351,127 351,127 351,128 351,128 351,128 351,128 351,128 351,128 351,128 350,128 350,128 350,128 350,128 350,128 350,128 350,128 350,128 350,128 349,129 349,129 349,129 349,129 349,129 349,129 349,129 349,129 349,129 349,129 349,129 348,129 348,130 348,130 348,130 348,130 348,130 348,130 347,130 346,129 346,128 345,128 345,128 345,128 345,128 344,128 344,127 344,127 344,127 343,126 342,126 341,129 341,129 342,130 343,131 344,132 344,133 345,133 345,133 345,133 345,133 345,133 346,134 346,134 346,134 346,134 346,134 347,134 347,134 347,134 346,134 346,134 346,134 346,134 346,134 346,134 346,134 346,134 346,135 345,135 345,135 345,135 345,135 345,135 345,135 345,135 345,136 345,136 345,136 345,136 345,136 345,137 344,137 344,137 344,138 344,138 344,138 344,139 343,139 343,139 343,139 343,139 343,139 343,139 343,139 343,139 342,140 342,140 342,140 342,140 341,140 341,140 341,141 341,141 340,141 340,142 340,142 340,142 340,142 339,143 339,144 339,144 338,143 337,142 336,141 336,141 335,140 335,140 335,139 334,140 333,140 333,140 333,140 333,140 333,140 333,141 333,141 333,141 333,141 333,141 333,142 333,142 333,142 333,142 333,142 333,142 332,142 332,142 332,142 332,142 332,141 332,141 331,141 331,142 331,141 330,141 329,141 330,141 330,142 330,142 331,142 331,142 331,142 331,142 331,142 331,143 331,143 331,143 331,143 331,143 332,143 332,143 333,143 333,144 333,144 332,144 332,144 332,145 332,145 333,146 332,146 331,146 331,147 331,147 331,147 331,147 331,148 331,148 331,148 331,148 330,148 330,148 330,148 330,147 330,147 330,147 330,147 330,147 330,147 330,147 330,147 330,147 330,147 330,147 330,147 330,147 330,146 330,146 330,146 330,146 330,146 330,146 330,146 330,145 330,145 330,145 330,145 330,145 329,145 329,145 329,145 329,145 328,145 328,144 328,144 328,144 328,144 327,144 327,144 327,144 327,144 327,144 327,144 327,144 327,144 327,145 326,145 326,145 325,145 324,145 324,145 324,144 324,144 324,144 323,144 323,144 323,144 323,143 323,143 323,143 323,143 323,143 323,143 322,143 322,143 322,143 322,142 321,142 321,142 321,142 321,141 321,141 321,141 321,141 321,141 321,140 321,140 321,140 321,139 321,139 321,139 321,139 321,139 322,139 322,139 322,139 323,139 323,139 323,139 323,139 323,139 323,138 322,138 323,138 323,138 323,138 323,137 323,137 323,137 323,137 323,137 323,137 323,136 323,136 323,136 323,136 323,136 323,136 323,136 323,136 323,136 323,136 322,136 322,135 322,135 322,135 322,135 322,135 321,136 321,136 321,135 321,135 321,135 320,135 320,134 320,134 320,134 320,134 319,133 319,133 319,133 319,133 319,133 319,132 319,132 318,132 318,133 318,133 318,133 318,133 318,133 318,133 317,133 317,133 317,133 317,133 317,133 317,133 317,133 316,133 316,133 316,133 316,133 316,133 315,133 315,133 315,133 315,133 315,133 315,133 315,133 315,132 315,132 315,132 314,132 314,132 312,133 312,133 312,133 312,133 312,132 312,132 311,132 311,133 311,133 311,133 311,133 311,133 310,133 310,133 310,133 310,133 309,133 309,133 309,133 309,133 309,133 308,133 308,133 308,133 308,133 308,133 307,133 307,133 307,133 306,133 306,133 306,133 306,133 306,133 305,133 305,133 305,133 305,133 305,133 305,133 305,134 305,134 305,134 306,134 306,134 306,134 305,134 305,134 304,135 304,135 304,135 304,135 304,135 304,135 305,135 305,135 304,136 305,136 304,136 303,137 304,137 304,137 304,137 305,137 305,138 306,138 306,138 307,138 307,138 307,138 307,138 308,139 308,138 309,138 309,138 310,138 310,138 310,138 310,138 310,139 310,139 310,139 309,139 309,140 309,140 309,140 308,140 308,140 308,141 307,140 307,140 307,140 306,140 306,140 306,140 306,140 307,141 306,141 306,141 306,141 306,141 306,141 306,141 306,141 306,141 306,141 305,142 304,142 305,143 305,143 305,143 305,143 305,144 305,144 305,144 305,145 305,145 305,145 305,145 305,145 305,145 305,145 306,145 306,145 306,145 306,145 306,145 306,145 306,145 306,145 306,145 306,145 307,145 307,145 307,145 307,145 307,146 306,146 306,146 306,146 306,146 307,147 307,147 307,147 307,147 307,147 307,147 307,147 307,147 307,147 307,148 307,148 307,149 307,149 307,149 307,149 307,149 308,149 308,150 308,150 309,150 309,150 309,150 309,149 310,149 310,149 311,149 311,150 312,150 312,150 312,150 313,150 313,150 313,150 313,149 313,149 313,149 313,149 313,149 313,149 313,150 313,150 314,150 315,149 315,150 315,150 315,150 315,151 315,151 315,151 315,151 315,151 315,151 315,151 315,151 316,151 316,151 316,151 316,151 316,151 316,151 316,152 316,152 317,152 317,152 317,152 319,154 320,155 320,156 320,157 320,158 319,158 319,158 318,158 318,158 318,159 318,159 318,160 318,160 317,160 316,160 315,161 315,160 315,160 315,160 315,160 315,160 314,160 314,160 314,160 314,160 313,160 313,159 312,159 312,159 312,159 311,159 311,159 310,159 310,159 310,159 309,159 309,159 309,159 309,159 308,159 308,159 308,159 308,159 308,158 308,158 307,158 307,158 306,158 306,158 305,158 305,158 305,158 305,158 305,158 305,159 304,159 304,159 304,160 304,160 304,161 304,162 304,162 304,163 304,163 304,163 304,164 304,164 304,165 304,165 304,166 304,166 304,166 304,166 303,166 303,166 303,166 303,166 302,166 302,165 302,165 302,165 302,165 302,165 302,165 302,165 302,165 302,165 302,164 302,164 301,164 301,164 301,164 301,164 301,163 301,163 301,163 301,163 301,163 300,163 300,163 300,163 300,163 299,163 299,163 299,163 299,163 299,164 299,164 299,164 299,164 299,164 299,164 299,164 299,164 299,164 299,164 298,164 298,164 298,164 298,164 298,164 298,164 298,163 298,163 298,163 298,163 298,163 298,163 298,163 297,163 297,163 297,163 297,163 296,163 296,163 296,162 296,162 296,162 296,162 296,162 296,162 296,162 296,162 296,162 294,162 294,162 294,162 294,162 294,162 294,162 294,162 293,162 293,162 293,162 293,162 293,162 293,162 293,162 293,162 293,162 292,162 292,162 292,162 292,162 292,162 292,162 292,162 292,162 292,162 292,162 292,162 292,163 292,163 292,163 291,163 291,163 291,163 291,163 291,163 291,163 291,163 291,163 291,163 290,163 290,163 290,163 290,163 290,164 289,164 289,164 288,164 288,164 288,164 288,164 288,164 287,164 287,164 287,164 287,164 287,164 287,164 286,164 286,163 286,163 285,163 285,163 285,163 285,163 285,163 285,164 285,164 285,164 285,164 285,164 285,164 285,164 285,164 285,164 284,164 285,165 285,165 285,165 285,166 285,166 285,166 284,166 284,166 284,166 284,166 285,166 285,166 285,166 285,166 285,167 285,167 285,167 285,167 285,167 285,167 286,167 286,167 286,168 286,168 286,168 286,168 286,168 286,168 286,168 286,168 286,168 285,168 285,168 285,168 285,168 285,168 285,167 285,168 284,168 284,168 284,168 284,167 284,167 284,167 283,167 283,167 283,167 283,167 283,167 283,167 283,167 283,167 283,167 283,167 283,168 283,168 283,168 283,168 283,168 283,168 283,167 283,168 283,168 283,168 283,168 283,168 283,168 283,168 283,168 283,168 284,168 284,168 284,168 284,168 284,168 284,168 284,168 284,168 284,169 284,169 284,169 284,169 284,169 284,169 284,169 284,169 284,169 284,169 284,169 284,169 284,169 285,169 285,169 285,169 285,169 285,170 285,170 285,170 285,170 285,170 285,170 285,170 285,170 286,170 286,170 286,170 286,170 286,170 286,170 285,170 285,171 285,171 285,170 284,170 284,170 284,171 284,171 284,171 284,171 284,171 284,171 284,172 284,172 284,172 284,172 283,171 283,171 283,171 283,171 283,171 283,172 282,172 283,172 283,172 283,172 283,172 283,172 283,173 283,173 283,173 284,173 284,173 284,173 284,173 284,173 284,173 284,173 284,173 285,173 285,173 285,173 285,173 285,173 285,173 285,174 285,174 285,174 285,174 285,174 285,174 285,174 285,174 285,174 285,174 285,174 285,174 285,174 285,174 285,175 285,175 285,175 285,175 285,175 285,175 285,175 285,175 286,176 286,176 286,176 286,176 286,176 286,176 286,176 286,176 286,176 286,176 286,176 286,176 286,176 286,176 287,176 287,176 287,176 287,176 287,176 288,176 288,177 288,177 288,177 288,177 289,178 289,178 288,178 288,179 288,179 287,179 287,179 287,179 287,179 287,180 287,180 287,180 287,180 287,180 287,181 287,181 287,182 287,182 287,182 286,182 285,182 285,182 285,182 285,182 285,182 284,182 284,182 284,182 284,181 283,181 283,181 283,181 283,182 283,182 282,182 282,182 282,182 282,182 282,182 282,182 282,182 281,182 281,182 281,182 280,182 280,182 280,182 280,182 280,182 280,182 280,182 280,182 280,182 280,182 279,182 279,182 279,182 279,182 279,182 279,182 279,182 279,182 279,182 279,182 279,182 279,182 279,181 279,181 279,181 279,181 279,181 279,180 279,180 279,180 279,180 279,180 279,180 279,180 278,180 278,180 278,180 278,180 278,180 278,180 278,179 277,179 277,179 277,179 277,179 277,179 277,179 276,179 275,178 275,179 275,179 275,179 275,179 274,179 274,179 274,179 273,179 273,178 273,178 273,178 273,178 272,178 272,178 272,178 272,178 272,178 271,178 271,179 270,179 270,179 270,179 269,179 268,178 268,178 267,178 265,177 261,177 262,179 262,180 262,183 262,185 261,187 260,189 259,190 259,191 258,192 257,194 254,195 253,195 251,198 249,201 246,204 241,204 237,204 237,206 237,206 238,207 238,207 238,208 239,208 239,209 239,209 239,210 239,210 240,210 240,210 240,211 240,211 241,211 241,211 241,211 241,211 241,211 241,211 242,212 242,212 242,212 242,212 243,213 243,213 243,213 243,213 246,221 246,221 250,224 250,224 250,224 250,224 250,225 250,225 250,225 250,225 250,226 250,226 250,226 250,227 250,229 250,231 250,231 251,233 252,233 252,233 252,233 253,233 253,234 253,234 253,234 253,234 253,234 254,234 254,234 254,234 255,235 255,235 254,236 254,236 255,237 255,237 255,238 255,238 255,238 254,238 254,239 255,240 255,242 255,243 255,244 255,246 255,246 255,246 255,247 255,248 255,248 254,248 254,249 254,249 254,249 254,249 253,249 253,249 253,249 253,249 253,250 253,250 253,250 252,251 252,251 252,252 252,252 252,252 252,253 252,253 252,253 253,254 253,255 253,255 253,255 253,255 253,255 254,256 254,256 254,256 254,256 254,257 254,257 254,257 255,257 255,257 255,257 255,258 255,258 256,258 256,258 256,259 256,259 256,259 257,260 257,260 257,260 257,260 258,260 256,261 253,263 252,264 252,264 252,264 251,264 250,264 250,264 250,264 249,264 249,264 249,265 248,265 247,265 247,265 246,265 245,265 244,264 244,264 240,265 240,265 239,265 239,265 238,265 238,265 238,265 237,265 237,265 237,265 236,265 236,264 236,264 236,264 235,264 235,263 235,263 234,263 234,263 234,263 233,262 232,262 232,262 231,261 231,261 230,261 230,261 230,261 230,260 229,260 228,259 227,259 227,258 227,258 227,257 228,256 226,254 226,254 225,253 225,253 225,252 225,252 225,252 225,252 225,251 225,251 224,251 224,251 224,251 223,251 223,251 223,250 223,250 223,250 222,250 219,248 219,248 218,248 218,248 218,248 217,246 217,246 217,246 217,245 216,244 216,243 216,243 216,242 216,242 216,242 215,241 215,241 215,241 215,241 215,241 215,240 215,240 215,240 215,240 214,239 214,239 214,238 214,238 214,237 214,236 214,236 213,236 213,235 212,235 212,235 212,235 211,234 210,233 210,233 210,233 210,233 209,233 206,231 205,231 205,231 204,230 199,228 198,228 197,227 196,227 195,226 192,225 186,223 186,223 186,223 185,222 184,221 184,220 184,220 184,220 184,220 184,220 184,220 183,220 183,220 183,220 183,220 183,220 183,220 183,219 183,219 183,219 180,217 179,217 179,217 179,217 178,216 178,216 177,215 177,215 177,215 177,215 177,215 176,214 176,214 176,214 176,214 175,214 175,214 175,214 175,213 175,213 175,213 174,212 174,212 174,212 174,212 174,212 174,212 174,212 174,212 174,211 174,211 174,211 174,211 173,211 173,210 173,210 172,210 172,210 172,209 171,209 170,209 170,209 169,208 169,208 169,208 169,208 168,208 168,208 167,207 167,207 166,206 166,206 166,206 165,205 165,205 164,205 162,204 162,204 161,204 159,204 159,204 157,203 157,203 157,203 157,203 156,203 156,203 155,203 154,202 154,202 154,201 154,201 153,201 153,201 153,201 152,201 152,201 151,200 149,199 148,198 148,198 148,199 147,199 146,199 146,199 144,198 143,197 142,196 141,196 140,196 138,195 138,195 137,196 137,196 137,195 139,193 136,192 136,192 136,191 135,191 135,190 135,190 135,190 134,190 134,190 134,190 134,189 134,189 134,189 134,189 133,189 132,188 132,188 131,187 131,187 131,187 131,187 130,186 130,186 130,186 129,186 129,186 129,186 128,185 128,185 128,185 128,185 128,185 128,185 127,185 126,184 126,184 125,184 125,184 124,184 124,184 124,184 124,183 123,183 123,183 123,183 123,183 122,182 121,182 121,182 121,182 120,182 120,182 120,182 119,181 119,181 119,181 119,181 118,181 118,181 117,181 117,181 117,181 117,181 116,181 116,180 116,180 116,180 115,180 115,180 115,180 115,180 115,180 115,179 114,180 114,180 114,180 114,179 114,179 114,179 113,179 113,179 113,179 112,179 112,179 112,179 111,179 111,179 111,179 111,179 111,179 111,179 111,179 111,179 111,179 111,179 110,179 110,179 110,178 110,178 109,178 109,178 109,178 110,177 107,176 107,175 107,175 107,175 107,175 106,176 106,176 106,176 106,176 106,176 106,176 106,176 106,176 105,176 105,176 105,176 105,176 105,176 104,176 104,176 104,176 104,176 104,176 104,176 104,176 104,176 104,176 104,176 104,176 104,176 103,176 103,176 103,176 103,176 103,176 102,176 102,176 102,176 102,176 101,176 101,176 101,176 101,176 100,176 100,176 100,176 100,175 100,175 100,175 100,175 100,175 99,175 99,175 99,175 98,175 98,175 98,175 98,174 98,174 98,174 97,174 97,174 97,174 97,174 97,174 96,174 96,174 96,174 97,174 97,174 97,174 96,174 96,175 96,175 96,175 96,175 96,175 96,174 96,174 96,174 95,174 95,174 95,174 95,174 95,174 95,174 95,174 95,174 94,173 94,173 93,173 93,173 93,174 93,174 93,174 92,174 93,174 93,173 94,172 94,171 94,171 94,171 94,171 94,171 93,171 93,171 93,171 92,171 92,171 92,171 92,171 92,171 92,172 92,172 91,172 91,172 91,172 91,171 91,171 91,171 91,171 91,171 91,170 91,170 91,170 91,170 91,170 91,170 91,170 91,170 91,170 91,170 91,170 91,170 91,170 90,170 90,169 90,169 90,169 90,168 90,168 90,168 90,168 90,168 90,168 90,167 90,167 90,167 90,167 90,166 89,166 89,166 89,166 89,166 89,166 89,166 89,166 89,166 89,166 89,166 90,166 90,166 90,166 90,166 90,166 91,166 92,165 92,166 92,165 92,165 92,165 92,165 92,165 92,165 91,164 91,164 90,164 90,164 90,164 89,164 89,164 89,164 89,164 88,163 88,163 88,163 88,163 88,163 88,163 88,163 88,163 88,163 88,163 88,163 88,162 89,162 89,162 89,162 89,162 88,162 88,162 87,162 87,162 87,162 87,162 87,162 87,162 87,162 86,162 86,162 86,162 86,162 86,162 86,162 86,163 85,163 85,163 85,163 84,163 84,163 84,163 84,163 84,163 84,163 84,163 84,163 84,164 84,164 83,164 83,164 83,164 82,164 82,164 82,164 82,164 82,164 82,164 82,164 81,164 81,164 81,164 81,164 80,164 80,163 80,163 80,163 80,163 80,163 80,164 80,164 80,164 80,164 81,164 81,164 80,165 80,165 80,164 80,164 80,164 80,164 80,164 80,164 80,164 79,164 79,164 79,164 78,164 78,164 78,164 78,163 78,163 77,163 77,163 77,163 77,163 76,163 76,163 76,163 75,163 75,163 75,163 75,163 75,164 75,164 75,164 75,164 75,164 75,165 75,165 74,165 74,165 74,165 74,165 74,165 74,165 74,165 74,164 74,164 74,164 74,164 74,164 73,164 73,164 73,164 73,164 73,164 73,165 73,165 73,165 72,165 72,165 72,165 72,165 72,165 72,165 72,165 72,165 71,165 71,165 71,165 70,164 70,164 70,164 70,164 70,164 70,164 70,164 70,164 70,163 70,164 69,163 69,163 69,163 69,163 69,163 68,163 68,163 68,163 68,163 68,162 68,162 68,162 67,162 67,162 67,162 67,162 66,163 66,163 66,163 66,163 66,163 66,163 65,163 65,162 65,162 64,162 64,162 64,162 64,162 64,163 64,163 64,163 64,163 64,163 64,162 63,162 63,162 63,162 63,162 63,162 63,162 63,162 62,162 62,162 62,162 62,162 62,162 62,162 61,162 61,163 61,163 61,162 60,162 60,162 60,162 59,162 59,162 59,162 59,162 58,162 58,161 58,161 58,161 58,162 57,162 57,162 57,162 57,162 57,162 57,163 57,163 57,163 56,163 56,163 56,163 56,163 56,163 55,164 55,164 55,164 55,164 55,164 55,164 55,164 55,164 54,164 54,163 53,163 53,163 53,163 53,164 53,164 52,163 52,163 51,162 50,162 50,162 50,162 49,161 49,161 49,161 48,161 48,161 48,161 48,160 48,160 48,160 48,160 48,160 48,160 48,160 49,160 49,160 49,160 49,160 49,160 50,160 50,160 50,160 50,160 50,160 51,160 51,160 51,160 51,160 51,160 52,160 52,160 52,160 52,160 52,159 52,159 52,159 52,159 51,159 51,159 51,159 51,159 51,159 51,159 51,158 51,158 51,158 52,158 52,158 52,158 52,158 52,158 52,158 52,158 52,158 52,157 53,157 52,157 52,157 52,157 52,157 52,157 52,157 52,157 52,157 52,156 52,156 52,156 52,156 52,156 52,156 52,156 52,156 52,156 51,156 51,156 51,156 51,156 51,156 51,157 51,157 50,156 50,156 50,156 50,156 50,156 50,156 49,156 49,156 49,156 49,155 48,155 48,155 48,155 48,155 48,155 48,155 48,155 48,155 48,155 48,154 48,154 49,154 49,154 49,154 49,154 49,154 49,154 49,154 48,154 48,154 48,154 48,154 48,154 48,154 48,154 48,153 47,153 47,153 47,153 47,153 47,153 47,153 47,152 47,152 46,152 46,152 46,152 46,152 46,152 46,152 46,152 46,152 46,152 46,152 46,152 46,152 46,152 46,152 46,151 46,151 46,151 46,151 46,151 46,151 46,151 46,151 46,151 46,151 46,151 45,151 45,151 45,151 45,151 45,151 45,151 45,151 45,151 44,151 44,150 44,150 44,150 44,150 44,150 43,150 43,150 43,150 43,150 43,150 43,150 43,150 43,150 43,150 43,150 43,150 42,150 42,150 42,150 43,150 43,150 43,150 43,149 44,149 44,150 44,150 44,150 44,150 44,150 44,150 44,149 44,149 44,149 44,149 44,149 44,149 44,149 43,149 43,149 43,149 43,149 43,148 43,148 44,148 44,148 43,148 43,148 43,148 43,148 43,148 42,148 42,148 42,148 42,148 42,148 42,148 42,148 42,148 41,148 41,148 41,148 41,148 41,149 41,149 41,149 41,149 41,149 41,149 41,149 40,149 40,149 40,149 40,149 40,149 39,149 39,149 39,149 39,149 39,149 39,149 39,149 39,149 39,149 38,149 38,149 38,149 38,150 38,150 39,150 39,150 38,150 38,150 39,150 39,150 39,150 39,150 40,151 40,151 40,151 40,151 40,151 39,151 39,152 39,152 39,152 38,152 38,152 38,151 38,151 38,151 38,151 38,151 38,151 38,151 38,151 38,151 38,151 38,151 38,150 38,150 38,150 38,150 37,150 37,151 36,151 36,151 36,151 36,151 36,151 36,152 36,152 36,152 35,152 35,152 35,151 34,151 34,151 34,151 34,151 34,151 34,151 33,151 33,151 32,151 32,151 32,151 32,151 31,151 31,151 31,151 30,151 30,151 30,151 29,151 29,151 29,151 29,151 29,151 28,151 28,151 28,151 27,152 27,152 27,152 27,152 27,152 27,152 27,152 27,152 27,152 27,152 27,152 27,152 27,153 27,153 27,152 27,152 26,153 27,153 27,153 27,153 27,153 27,153 27,153 27,153 27,153 28,153 28,154 28,154 28,154 28,153 28,153 28,154 28,154 28,154 28,154 28,154 28,154 28,154 28,155 28,155 28,155 28,155 28,155 28,155 28,155 28,155 28,155 28,155 28,156 27,156 27,156 27,155 27,155 27,155 27,155 27,155 27,155 27,155 27,154 27,154 26,154 26,154 26,154 26,154 26,154 26,154 26,153 26,153 26,153 26,153 26,153 26,153 26,153 26,153 26,153 26,153 25,153 25,153 25,153 25,153 25,153 25,153 25,153 25,153 24,153 24,153 24,153 24,153 24,152 24,152 23,152 23,152 23,152 23,152 23,152 22,152 22,152 22,152 22,152 22,152 22,152 21,152 21,152 21,151 21,151 21,151 21,151 21,151 21,151 21,151 21,151 21,150 21,150 21,150 21,150 20,150 20,151 20,150 20,150 20,150 20,150 19,150 19,150 20,149 20,149 20,149 20,149 20,149 20,149 20,149 20,149 20,149 20,148 20,148 20,148 20,148 20,148 20,148 20,148 20,148 20,148 20,148 20,148 20,148 20,148 20,147 20,147 19,147 19,147 19,147 19,147 19,147 19,147 19,147 19,147 18,146 18,145 18,145 18,145 17,145 17,145 17,145 17,144 17,144 17,144 17,144 17,144 17,143 16,143 16,143 16,143 16,143 15,143 15,143 15,143 15,143 15,143 15,143 15,143 15,142 15,142 15,142 15,142 15,141 15,141 15,141 14,141 14,141 14,141 14,141 13,141 13,142 13,142 13,142 12,142 12,142 12,142 11,142 11,142 11,142 11,142 11,142 11,141 11,141 11,141 11,141 11,141 11,141 10,141 10,141 10,141 9,141 9,141 9,141 9,141 9,141 9,141 9,141 8,141 8,141 8,141 8,141 8,141 8,141 8,140 8,140 8,140 8,140 8,140 8,139 8,139 7,139 7,139 7,139 7,139 8,139 7,139 7,139 7,139 7,139 7,139 7,139 7,139 6,139 6,139 6,139 6,139 6,139 5,138 5,138 5,138 5,138 5,138 5,138 5,138 5,138 5,138 5,138 5,137 5,137 5,137 5,137 5,137 5,137 5,137 5,137 5,137 5,136 6,136 6,136 6,136 6,136 6,136 6,136 5,136 5,136 5,136 5,136 5,136 5,136 5,136 5,136 4,136 4,137 4,137 4,137 4,137 4,137 4,137 4,137 4,137 4,137 3,136 3,136 3,136 3,136 3,136 4,136 3,136 3,136 3,136 3,136 3,135 2,135 2,135 2,135 2,135 2,135 2,135 2,135 2,135 2,135 2,134 2,134 2,134 2,134 2,134 3,134 3,134 3,134 3,134 3,134 3,134 3,134 3,134 4,134 4,134 4,134 4,134 5,134 5,133 5,133 5,133 5,133 5,133 5,132 5,132 5,132 5,132 6,133 6,133 6,132 6,132 6,132 7,132 7,132 7,132 7,132 7,132 8,131 8,131 8,131 8,131 8,131 9,131 9,131 9,131 9,131 9,130 9,130 9,130 9,129 9,129 9,129 8,128 8,128 8,128 8,128 8,128 8,128 8,128 7,128 7,128 7,128 7,129 7,129 6,128 6,128 6,128 5,128 6,127 6,127 6,127 6,127 6,126 5,126 5,126 4,125 4,125 5,125 4,125 5,125 5,124 5,124 6,124 6,124 6,124 6,124 6,123 5,123 5,123 5,122 5,122 5,122 6,122 6,122 6,122 6,122 6,121 6,121 6,121 6,120 7,120 6,120 6,120 6,119 6,119 5,119 5,119 5,119 4,118 4,118 4,117 5,117 5,117 5,116 5,116 5,116 5,115 5,115 5,115 4,115 4,115 3,114 3,114 4,114 4,114 4,114 4,113 4,113 3,113 3,113 3,112 2,112 2,113 2,112 2,112 2,112 1,112 1,112 0,111 0,111 0,111 0,110 0,110 0,109 0,109 1,109 1,109 1,109 1,108 1,108 1,108 1,108 2,107 2,107 2,107 3,107 3,107 3,107 4,107 4,106 4,106 4,106 4,106 4,105 5,105 5,105 5,104 5,104 6,104 6,103 6,103 6,102 6,102 7,100 6,100 6,100 6,99 6,99 5,99 5,98 5,97 5,97 5,97 5,96 4,96 4,96 3,96 2,95 2,95 1,95 1,94 1,94 1,94 1,93 1,93 1,93 2,93 2,93 2,93 3,93 3,93 4,93 4,93 5,93 5,93 6,93 7,94 7,94 7,94 7,95 8,95 9,95 9,95 9,94 9,94 9,94 9,93 10,93 10,92 10,92 10,92 11,92 11,93 12,93 12,93 12,93 13,93 13,93 14,93 15,93 15,93 15,93 16,93 16,94 16,94 17,94 17,94 17,94 18,94 19,94 19,94 20,94 20,94 20,94 20,95 20,95 20,95 20,95 20,95 20,96 20,96 21,96 21,96 22,96 22,96 22,96 22,96 23,96 23,96 23,97 24,97 24,97 24,97 25,97 25,97 25,97 25,97 25,98 25,98 25,98 25,98 26,98 26,98 26,98 27,99 27,99 27,99 27,99 27,99 28,99 28,99 28,99 28,98 28,98 28,98 28,98 28,98 28,98 28,97 28,97 29,97 29,97 29,97 30,97 30,97 30,97 31,97 31,97 31,97 31,97 31,97 31,98 31,98 31,98 32,98 32,98 32,98 32,98 32,98 32,98 33,98 33,98 33,98 33,97 33,97 34,97 34,97 34,97 34,97 35,97 35,97 35,97 35,97 35,97 36,97 36,98 36,98 36,98 36,98 36,98 36,98 36,98 37,98 37,98 38,98 39,98 40,98 40,98 40,98 40,98 40,98 40,98 41,98 42,98 42,98 42,99 42,99 42,99 42,99 42,99 42,99 42,99 42,99 42,100 43,100 44,100 43,100 43,100 43,101 43,101 43,101 43,101 43,101 44,102 44,102 44,102 44,102 44,102 44,102 44,103 45,103 45,103 45,103 45,103 45,102 45,102 46,102 46,102 46,102 46,102 46,102 46,102 46,102 46,102 46,101 46,101 47,101 47,101 47,101 47,101 47,101 48,101 48,101 48,101 48,101 48,102 48,102 48,102 49,102 49,102 49,102 49,102 49,102 49,102 50,102 50,102 50,102 50,102 50,102 51,101 51,101 51,101 51,101 51,101 52,101 52,101 52,101 52,101 52,101 53,101 52,100 52,100 52,99 52,99 52,99 52,99 52,99 52,99 52,99 52,100 52,100 52,100 51,100 51,100 51,100 51,100 50,100 50,100 50,100 50,100 49,101 49,100 49,100 49,100 50,99 50,99 50,99 50,99 50,99 51,99 51,99 51,99 51,99 51,99 51,99 51,99 51,99 52,99 52,99 52,99 52,98 52,98 52,98 52,98 52,98 51,97 51,97 50,96 50,96 50,96 50,96 50,96 50,96 51,96 51,96 51,96 51,96 51,96 51,95 51,95 51,95 51,95 51,95 51,95 51,95 51,95 51,95 51,95 51,95 52,95 52,95 52,95 52,94 52,94 52,94 52,94 52,94 52,94 52,94 52,94 52,94 51,94 52,94 52,94 52,94 52,94 52,94 52,94 52,94 52,93 52,93 53,93 53,93 53,94 53,94 53,94 53,94 53,94 53,94 53,94 53,94 53,94 53,94 54,95 54,95 55,95 55,95 55,95 56,95 56,95 56,95 56,95 56,95 57,95 57,95 57,95 58,95 58,95 58,95 58,95 58,95 58,94 58,94 58,94 58,94 58,94 58,94 58,94 58,94 58,94 58,94 58,94 58,94 59,94 59,94 59,94 59,94 59,95 59,95 60,94 60,94 60,94 60,94 60,94 60,94 60,94 60,94 60,94 61,94 61,94 61,94 61,94 61,94 61,94 62,94 62,94 62,94 62,94 62,94 62,94 62,94 62,94 63,94 63,94 63,94 63,94 63,94 63,94 63,94 64,94 64,95 64,95 64,95 64,95 64,95 64,95 64,95 64,95 64,94 64,94 64,94 65,95 65,95 65,95 65,95 65,95 65,95 65,95 65,95 66,95 66,95 66,95 66,95 66,95 67,95 67,95 67,95 67,95 68,95 70,95 70,95 70,94 70,94 70,94 70,94 70,94 71,94 72,94 72,95 72,95 73,95 73,95 73,95 74,95 74,96 75,96 75,96 75,96 75,96 76,96 76,96 76,96 76,97 77,96 77,96 77,96 77,96 78,96 78,96 78,96 78,96 78,96 78,96 79,96 79,96 79,96 79,97 79,97 80,97 80,97 80,97 80,97 80,97 80,97 80,97 80,97 81,97 81,97 81,97 81,97 81,97 81,97 81,97 81,97 82,97 82,97 82,97 82,97 83,97 83,97 83,97 83,97 83,98 83,98 83,98 83,98 84,98 84,98 84,98 84,98 84,98 84,98 84,98 84,98 84,98 84,99 84,99 84,99 84,99 84,99 84,99 84,99 84,99 84,99 85,99 85,99 85,100 85,100 85,100 85,100 85,100 85,100 85,100 85,100 85,100 86,100 86,101 86,101 87,101 87,101 87,102 88,102 88,102 88,102 88,103 88,103 88,103 89,103 89,103 89,103 90,103 90,103 90,103 90,103 90,103 90,103 91,104 91,104 91,104 91,104 92,104 93,104 93,104 93,104 93,104 93,104 94,104 95,104 95,104 95,104 96,104 96,104 96,104 97,104 97,105 97,105 97,105 97,105 97,105 98,105 98,105 98,105 98,105 99,105 99,106 99,106 99,106 99,107 99,107 99,107 99,108 99,108 100,108 99,108 99,108 99,108 98,108 98,108 99,108 99,109 99,109 99,109 99,109 99,109 99,109 99,109 99,108 99,108 100,108 100,108 101,108 101,108 101,108 101,108 101,108 101,108 101,108 101,108 101,108 101,107 101,107 101,107 101,108 101,108 102,108 102,108 102,108 102,108 102,108 102,108 102,108 102,108 102,108 103,108 103,108 103,109 103,109 103,109 103,109 104,108 104,109 104,109 104,109 104,109 104,110 105,110 105,110 106,110 106,110 106,110 107,110 107,110 107,110 107,111 107,111 107,111 107,111 107,111 108,111 108,111 108,111 108,111 108,111 109,111 109,111 109,110 109,110 109,110 109,110 109,110 110,110 110,110 110,110 110,110 110,110 110,110 111,110 111,110 111,110 111,110 112,110 112,110 112,110 112,110 112,110 112,110 111,110 112,111 112,111 112,111 112,111 112,111 112,112 112,113 112,114 111,114 111,114 112,115 112,115 112,115 113,115 113,115 113,116 114,116 114,116 115,116 115,116 115,116 116,116 116,116 116,116 117,115 117,115 117,115 117,115 117,115 117,115 117,115 118,114 118,114 118,114 118,114 118,114 118,114 119,114 119,114 120,114 120,114 119,113 119,113 119,112 118,112 119,112 119,112 119,112 119,111 119,111 119,111 118,110 118,110 118,110 118,110 117,110 117,110 117,109 116,109 117,109 117,109 117,109 117,109 117,108 117,108 118,108 119,109 119,109 119,109 120,109 119,108 119,108 119,108 120,108 120,108 120,109 120,109 120,109 120,109 121,109 121,109 121,109 121,110 122,109 124,109 124,109 125,109 125,110 125,110 125,110 125,110 125,110 126,110 126,109 126,110 126,110 125,110 125,110 125,110 125,110 126,111 126,111 126,111 126,110 126,110 126,110 127,111 127,111 127,111 127,111 127,111 128,112 128,112 128,112 128,112 128,112 129,112 129,112 129,112 129,112 129,112 130,112 130,112 131,112 131,112 131,112 131,113 132,113 132,113 132,113 132,113 132,113 132,114 132,114 133,114 133,114 133,114 133,114 133,114 133,114 134,114 134,115 134,115 134,115 135,115 135,116 135,116 135,116 136,116 136,116 136,116 136,116 136,116 136,116 136,116 137,116 137,116 137,116 137,116 137,116 137,116 138,116 138,117 138,117 138,117 138,117 138,117 139,117 139,117 139,117 140,117 140,117 140,117 140,117 140,117 140,117 141,117 141,117 141,117 141,117 141,117 141,117 141,117 141,117 141,117 141,117 140,117 140,117 140,117 140,117 140,117 140,117 140,117 140,117 140,117 140,117 140,116 140,116 140,116 140,115 140,115 144,113 146,112 148,112 147,111 147,111 147,110 147,110 147,109 147,109 147,109 148,108 148,108 148,108 148,107 148,107 148,107 148,107 147,107 147,107 146,106 146,106 145,106 144,106 143,106 143,106 143,105 145,104 144,104 144,104 143,104 143,104 142,104 141,104 140,104 140,104 140,104 139,104 139,103 139,103 139,103 140,103 139,103 139,102 138,102 138,102 138,102 138,102 138,102 138,102 137,102 137,102 137,102 137,101 136,102 136,102 136,102 135,102 135,102 135,101 135,101 134,101 134,101 134,101 134,101 133,101 133,101 134,101 134,101 134,100 134,100 134,100 134,100 134,100 134,100 134,100 134,100 133,99 133,99 133,99 133,99 132,99 132,99 132,99 132,98 132,98 132,98 132,98 132,97 132,97 133,97 133,96 132,97 132,97 132,97 131,97 131,97 131,97 131,97 131,97 131,97 130,97 130,97 130,98 130,98 129,98 129,97 129,97 129,97 129,97 130,97 130,97 130,97 129,96 129,96 129,96 129,96 129,96 129,96 129,95 130,95 130,95 130,95 131,95 131,95 131,95 131,95 131,95 131,95 130,95 130,95 129,94 129,94 129,94 129,94 129,94 129,94 129,94 130,93 130,93 130,93 131,93 131,93 131,92 131,92 131,92 131,92 131,92 131,92 131,91 131,91 130,91 131,91 130,91 130,91 130,91 130,91 129,90 129,90 129,90 130,89 131,89 131,88 131,88 131,88 131,88 131,88 131,88 132,87 132,87 133,87 133,87 133,87 133,87 133,87 133,87 134,87 134,87 134,87 134,87 134,87 134,87 135,86 135,86 135,86 135,86 135,85 135,85 135,85 135,85 136,85 135,86 135,86 136,86 136,86 136,86 137,85 137,85 138,86 138,86 138,85 138,85 138,85 138,85 138,84 138,84 138,84 140,83 140,84 141,84 141,84 141,84 141,84 142,83 143,83 143,83 143,83 144,82 145,82 145,82 146,82 146,82 146,82 146,81 146,81 145,81 145,80 145,80 145,80 144,79 145,79 146,79 146,79 146,79 146,79 146,79 147,79 147,79 148,79 149,80 149,79 149,79 150,80 150,80 150,80 150,79 150,79 151,79 151,78 151,78 151,78 152,78 152,78 152,78 152,78 153,78 153,79 154,79 154,79 155,79 154,78 154,78 155,78 155,78 155,78 156,78 156,78 156,78 156,78 156,78 155,77 155,77 155,77 156,77 155,76 155,76 155,76 155,75 154,75 154,75 155,75 155,75 156,75 156,75 156,75 157,75 157,75 158,75 158,75 159,75 159,75 159,74 160,75 161,75 161,75 161,75 162,75 162,75 162,75 162,74 162,74 162,74 162,74 162,74 162,74 162,74 162,73 162,73 162,73 163,73 163,73 163,73 163,73 163,73 164,73 164,72 165,72 165,73 165,73 165,73 166,73 166,73 166,72 166,73 167,73 167,73 167,73 168,74 168,74 168,74 168,74 168,74 169,74 169,74 169,74 170,74 170,74 170,74 170,74 170,74 170,74 170,74 170,74 170,74 170,73 170,73 170,73 170,73 170,72 170,72 170,72 170,72 171,72 171,72 171,72 171,71 171,71 170,71 170,71 171,70 171,70 171,70 171,70 171,70 171,70 171,69 171,69 172,69 172,69 172,69 172,68 171,68 171,68 171,68 171,68 171,68 171,68 171,67 171,67 172,67 174,67 174,67 175,67 175,66 175,66 175,65 175,64 175,64 176,63 175,63 175,63 175,63 175,62 174,62 174,61 173,62 173,62 173,62 172,62 172,62 172,62 171,62 171,62 171,62 170,62 170,62 170,62 170,62 170,62 170,61 170,61 170,61 171,61 171,61 171,61 172,61 172,61 172,61 171,60 171,60 171,60 171,60 170,60 170,60 170,60 170,60 170,60 170,60 169,60 169,60 169,60 170,60 170,60 169,59 169,59 169,59 169,59 169,58 169,58 169,58 169,58 169,58 169,58 169,58 169,57 169,57 169,57 170,57 170,57 170,57 170,56 170,56 170,56 170,56 170,55 170,55 170,55 170,55 170,55 170,55 170,55 170,55 170,55 171,55 171,55 171,54 171,54 171,54 171,54 171,54 171,54 171,54 172,53 173,53 173,52 174,52 174,52 174,52 174,52 175,52 175,52 176,52 176,52 177,52 178,51 179,50 179,50 179,50 179,49 178,49 178,49 178,49 178,49 177,49 177,48 177,48 177,48 177,48 177,47 177,47 177,47 177,47 177,47 176,47 176,46 176,46 176,46 176,46 176,46 175,46 174,45 175,44 175,44 176,44 176,44 178,45 179,45 180,44 179,44 179,43 178,43 176,43 175,44 175,44 175,43 175,43 175,42 175,42 175,42 175,42 175,41 176,41 176,41 176,41 176,41 177,40 177,40 178,40 178,40 178,40 178,40 179,39 179,39 180,39 180,39 181,39 182,39 182,39 182,39 182,39 183,38 184,37 185,35 186,34 186,34 187,33 188,32 188,33 189,33 189,33 189,33 190,33 190,33 191,33 191,33 192,33 192,32 193,32 193,32 194,32 194,32 194,32 195,31 195,31 195,30 195,30 195,30 195,30 195,30 196,30 196,30 197,30 198,30 198,30 199,30 200,29 201,29 201,29 201,29 202,30 203,30 203,31 203,31 204,31 204,31 205,31 205,31 206,31 206,31 207,31 207,31 208,31 208,31 208,31 208,32 208,32 208,33 208,33 208,33 208,33 208,33 209,33 209,33 210,32 211,31 212,30 212,30 213,29 213,29 214,28 214,28 215,28 215,28 216,28 217,27 217,26 218,26 218,26 219,26 219,26 219,26 220,26 220,26 221,26 221,26 222,26 222,27 223,27 223,27 224,27 225,28 225,29 226,30 226,30 226,31 227,31 227,31 228,32 228,32 229,32 229,32 230,32 230,32 230,32 230,33 231,33 231,33 231,34 231,34 232,34 233,34 233,34 234,33 234,33 235,33 236,34 239,36 239,36 239,36 239,37 239,37 239,38 239,38 241,38 241,38 242,39 242,39 242,40 243,40 243,41 243,41 243,41 243,42 244,42 244,43 245,43 245,43 246,44 246,44 247,43 248,43 249,42 250,42 251,41 251,41 252,41 252,41 253,40 253,39 253,38 253,38 253,38 254,38 254,38 255,38 255,39 256,39 257,39 258,38 258,38 259,38 260,39 260,39 262,39 263,40 264,40 264,40 264,40 265,39 265,39 267,40 268,39 269,39 270,39 270,38 270,38 271,37 271,37 272,37 272,37 273,36 274,36 274,36 274,35 275,35 275,36 277,35 277,35 278,35 279,34 279,33 280,32 281,31 281,27 281,26 283,24 284,23 286,23 286,22 286,21 286,20 287,19 287,19 288,19 290,18 292,18" id="1510" class="canton" fill="steelblue" stroke-width="1" stroke="white" geotype="canton" geoname="Riom-ès-Montagnes" code_insee="1510" code_departement="15" nom_departement="Cantal" code_region="84" nom_region="Auvergne-Rhône-Alpes"/></svg>