<?xml version="1.0" encoding="utf-8"?>
<svg version="1.1" id="svgmap" xmlns="http://www.w3.org/2000/svg" xmlns:xlink="http://www.w3.org/1999/xlink" x="0px" y="0px" width="100%" height="100%" viewBox="0 0 500 335">
<polygon points="33,97 35,96 36,95 40,93 41,93 41,90 43,88 43,88 43,87 45,86 47,82 48,82 49,81 49,80 50,79 51,77 52,75 54,71 55,68 56,66 57,64 58,63 58,62 58,61 60,58 60,58 57,55 57,54 57,54 56,54 56,53 55,51 55,51 54,50 54,50 54,50 54,48 55,46 55,46 54,45 53,45 51,44 49,43 48,43 47,42 47,41 46,39 46,39 46,37 46,37 45,37 42,34 42,33 42,33 41,31 41,31 40,30 40,30 40,30 40,29 40,28 39,28 39,27 39,27 39,26 41,27 41,26 41,25 41,25 41,24 41,24 41,23 42,22 42,22 38,21 38,21 36,16 36,15 38,15 39,15 41,15 41,14 42,14 43,14 44,14 45,14 46,14 47,14 51,14 53,14 56,14 58,14 59,14 60,14 63,15 63,15 64,15 65,15 66,17 68,19 69,20 70,21 71,21 71,22 72,20 72,19 74,18 75,16 75,16 77,14 79,11 81,12 83,13 84,13 84,13 85,13 86,13 87,13 88,14 90,14 91,15 91,15 92,15 94,16 95,16 99,17 99,17 100,17 101,17 102,17 107,18 107,19 108,19 109,19 109,19 109,20 109,20 109,22 109,23 109,23 109,23 110,23 110,24 111,24 111,24 112,25 113,25 114,26 114,26 115,26 115,26 117,25 118,25 118,24 118,24 118,24 119,24 119,24 121,23 122,23 122,23 123,22 123,22 124,22 125,22 126,21 126,20 127,20 127,20 128,20 129,20 129,20 130,20 131,19 134,18 135,17 136,16 136,16 136,16 137,16 137,15 138,15 138,16 139,16 141,17 142,18 144,19 144,20 154,20 154,20 154,20 155,21 157,21 159,20 160,20 162,20 163,20 166,20 167,20 168,19 169,19 172,18 173,17 175,16 175,16 177,16 177,16 179,15 181,15 185,15 188,15 191,15 193,15 193,15 192,14 192,14 204,8 204,8 203,7 202,4 201,4 201,3 200,2 199,1 199,1 202,0 203,0 204,0 205,0 208,0 210,0 211,0 213,0 215,0 216,0 216,0 218,1 218,1 220,1 220,1 222,1 222,1 224,1 227,2 229,3 230,3 231,3 233,3 234,4 234,4 234,4 236,5 238,6 239,6 240,7 241,7 242,8 244,9 248,11 249,11 249,11 249,12 250,13 251,14 252,15 252,15 257,14 259,14 260,13 262,12 263,12 264,11 265,11 269,9 270,9 271,9 272,8 272,8 274,8 274,8 275,8 276,8 278,9 279,11 279,11 280,11 280,11 281,11 281,11 281,11 284,11 284,12 284,13 284,15 285,16 285,17 286,17 286,18 287,19 288,19 289,21 290,22 290,22 291,22 292,23 292,24 292,24 293,26 292,26 292,28 292,28 290,28 289,28 288,28 287,29 286,30 285,31 284,31 283,32 282,32 281,32 281,33 280,33 280,33 279,33 279,34 278,35 277,35 276,36 275,36 274,37 273,37 272,37 271,38 270,38 270,39 266,41 265,42 264,44 263,45 261,46 261,47 260,48 261,48 262,49 271,52 271,53 272,53 273,54 279,59 282,61 283,61 284,62 287,65 288,66 289,67 291,68 291,68 292,69 292,69 298,74 300,75 303,74 303,74 305,74 306,74 308,75 308,75 309,76 311,77 310,77 309,78 306,79 306,79 306,80 306,80 308,80 308,80 309,81 311,81 311,81 317,83 319,84 320,82 321,80 322,79 324,77 326,75 329,72 332,68 335,66 338,68 339,68 340,69 341,69 342,69 342,70 343,69 343,69 343,70 344,71 345,71 346,72 346,72 347,72 347,73 348,73 350,73 353,73 353,73 354,74 354,74 357,75 358,76 359,76 360,76 360,76 361,75 362,75 362,75 363,74 364,73 367,72 367,71 368,71 368,70 368,70 369,70 370,69 370,69 370,69 371,68 371,68 373,67 373,66 374,66 375,65 375,65 375,65 378,66 379,66 380,66 382,67 382,67 384,67 384,67 386,68 386,68 387,68 389,68 389,68 389,69 390,69 392,69 393,70 393,70 394,70 394,70 395,70 396,70 396,70 397,71 398,71 398,71 399,71 400,71 400,71 402,72 404,72 404,72 405,73 405,73 406,73 409,73 409,73 409,73 410,73 411,73 412,73 414,73 415,73 417,74 418,74 418,74 420,74 421,75 422,75 422,75 423,76 424,76 425,76 425,76 427,76 427,76 428,76 429,76 430,77 430,77 432,77 434,77 434,77 434,77 435,76 436,74 433,73 432,72 430,71 428,70 427,69 422,68 422,68 422,67 422,67 425,66 426,65 427,64 431,61 432,61 432,61 436,57 436,57 436,57 437,57 437,57 438,56 441,53 442,54 442,55 442,55 443,55 447,53 447,53 448,52 452,55 453,56 454,57 455,58 457,60 460,64 460,65 465,70 466,71 468,73 474,77 475,77 481,80 488,83 493,85 496,86 497,87 499,87 500,88 500,88 500,89 499,89 498,90 498,90 497,90 497,90 496,91 496,91 496,91 496,92 497,92 497,93 497,93 499,94 499,95 499,95 499,95 498,96 498,96 498,96 497,96 495,98 495,98 494,98 493,98 491,97 490,97 489,97 489,97 488,97 486,99 485,100 485,101 484,102 484,103 484,104 483,105 482,108 481,109 481,109 481,110 480,110 481,111 481,112 481,112 481,113 480,113 479,113 478,114 478,114 478,115 478,116 477,117 477,119 477,120 477,121 477,122 477,124 476,124 473,125 472,125 471,126 471,126 473,127 477,129 477,129 476,130 476,132 476,134 476,136 476,137 476,138 476,140 476,141 477,143 477,145 476,146 476,147 476,148 474,149 473,152 470,156 470,157 466,162 465,163 464,164 463,166 462,167 462,167 462,167 462,167 461,170 461,171 460,173 460,176 459,176 459,177 459,178 461,180 461,180 461,180 458,182 458,182 453,185 449,191 448,194 447,195 446,201 445,205 443,208 441,214 436,213 433,212 430,212 429,212 425,211 422,211 421,211 414,209 414,209 404,207 399,207 391,205 391,205 389,205 381,203 381,203 377,203 376,202 368,201 367,201 367,201 366,201 366,201 360,200 354,199 345,198 345,198 345,198 345,199 344,199 344,199 341,198 340,198 336,198 335,198 329,198 328,198 326,198 325,198 313,197 311,197 307,196 305,196 302,196 299,196 298,195 294,195 294,195 294,195 293,195 293,195 293,195 293,196 293,198 293,199 293,201 293,202 293,202 292,207 292,207 292,210 293,215 293,215 293,215 293,215 295,222 295,222 294,224 294,225 295,227 295,229 295,230 295,231 293,233 291,235 290,237 289,237 286,240 284,241 282,242 279,244 276,245 271,248 269,249 268,250 262,254 262,254 262,255 262,255 262,257 262,257 263,257 263,258 264,258 265,260 265,260 265,260 268,263 269,264 270,265 271,267 271,268 272,269 272,270 272,272 273,273 273,274 274,274 276,276 276,276 278,277 279,278 279,279 279,279 279,279 279,279 280,280 279,280 276,279 263,275 260,274 257,274 257,273 257,274 256,276 251,281 249,284 249,284 249,285 247,288 247,288 246,288 245,288 245,288 244,288 243,288 242,288 241,287 239,287 239,287 235,285 230,283 223,281 222,280 221,279 220,278 220,278 220,277 219,278 219,278 219,279 219,280 220,284 223,288 224,290 224,290 215,290 213,295 212,297 212,298 210,300 209,302 207,304 206,305 205,306 205,307 202,309 201,310 200,311 197,312 196,313 194,313 193,314 192,315 192,315 191,316 191,316 190,317 190,317 189,318 188,318 187,319 177,324 177,324 177,324 176,324 176,324 175,323 175,322 175,322 176,321 176,321 176,321 176,321 176,320 176,320 176,320 177,320 177,319 177,319 178,317 178,317 178,315 178,315 178,314 176,315 176,315 175,314 175,313 175,313 174,313 174,313 174,312 174,312 174,312 173,312 173,312 173,311 172,311 171,311 170,310 170,309 169,308 169,308 168,307 168,307 168,307 167,308 167,308 165,307 164,307 164,307 164,307 164,306 164,305 164,305 164,305 164,305 164,305 158,305 157,305 157,306 156,305 156,305 157,304 156,304 156,303 155,300 155,300 155,299 154,299 153,300 153,300 152,300 152,300 150,300 149,301 149,301 148,301 148,301 147,301 147,301 146,301 146,302 146,302 145,303 145,304 145,305 144,306 143,307 143,307 143,307 143,308 143,308 142,308 141,309 141,309 141,310 140,310 139,310 139,310 139,310 138,310 138,311 138,311 138,311 137,311 136,311 136,312 136,312 135,312 135,312 135,313 134,313 134,313 133,313 133,313 133,313 132,314 131,314 129,314 129,314 127,314 127,314 127,315 124,315 124,315 124,316 123,316 123,316 123,316 122,316 122,316 122,316 121,316 121,317 121,317 121,317 121,317 121,318 120,318 119,319 119,319 118,319 117,319 116,320 115,320 115,320 114,320 114,321 114,321 113,320 112,321 112,321 111,321 110,321 110,321 110,321 110,320 110,320 110,320 109,320 109,321 109,321 108,321 108,321 108,321 107,321 106,321 105,321 105,322 105,322 104,322 104,322 103,322 102,322 101,321 101,321 101,322 100,322 100,322 100,322 100,322 100,322 99,322 99,322 99,323 99,323 99,323 98,323 98,323 97,323 97,323 97,323 96,324 95,324 94,324 94,324 94,324 94,325 94,325 94,325 94,325 94,325 93,324 93,324 93,324 92,324 92,324 92,324 92,324 92,324 92,324 92,324 92,324 91,324 90,324 90,324 90,324 90,325 90,325 89,325 89,325 88,325 86,326 85,326 85,326 85,326 84,326 84,326 84,327 82,327 82,327 82,327 81,326 81,326 79,326 78,326 78,326 78,326 79,327 78,327 78,327 77,327 77,327 77,327 76,327 75,327 75,327 75,328 75,328 74,328 75,329 75,329 74,329 74,329 72,330 72,330 72,329 72,329 72,329 72,329 71,330 71,330 71,330 70,330 70,330 70,330 70,331 71,331 71,331 72,331 72,331 71,331 70,331 70,331 70,331 71,332 70,332 70,333 70,333 69,332 69,332 69,332 68,332 68,332 68,332 68,332 69,333 69,333 68,333 68,333 67,333 67,333 66,333 66,333 66,334 66,334 66,334 66,334 65,334 65,334 64,334 64,334 64,335 64,335 63,334 62,334 62,334 60,334 56,331 56,332 55,332 55,332 55,332 52,330 45,326 45,326 42,325 39,323 38,323 38,323 35,321 33,320 30,319 29,319 26,318 20,316 19,315 16,314 14,312 10,311 6,309 5,308 5,308 5,308 5,308 2,306 0,305 5,301 8,298 10,295 11,293 12,292 12,292 13,292 13,292 13,292 15,290 15,290 15,290 17,290 17,290 18,289 21,288 24,286 26,284 28,282 31,279 32,277 34,274 34,274 37,271 38,269 39,268 40,266 41,264 42,263 43,260 44,259 47,256 48,255 48,254 50,251 50,250 50,250 49,241 49,241 49,240 50,239 50,237 53,230 54,229 55,226 56,226 60,226 61,226 63,226 63,226 63,226 66,223 66,222 68,219 68,219 68,219 70,214 72,211 75,206 75,206 75,206 79,201 81,198 82,199 84,200 85,200 88,202 90,203 95,205 101,206 102,206 105,207 108,208 109,208 111,209 113,210 118,211 121,211 122,211 123,211 123,211 125,210 126,210 126,210 128,209 131,207 133,207 133,207 133,206 140,204 142,204 144,204 148,203 151,202 153,202 159,201 159,201 161,200 162,200 163,200 164,200 167,200 171,200 172,194 173,193 173,190 173,189 173,188 172,187 171,186 171,186 168,184 166,181 150,169 146,166 128,151 127,150 118,143 115,141 113,139 110,137 110,137 108,136 95,123 94,123 75,106 75,105 75,105 74,106 73,106 72,107 71,107 68,108 68,108 66,108 62,107 60,107 57,107 53,107 51,107 50,107 48,107 45,106 44,106 43,105 41,104 39,102 37,101 34,98 33,97" id="1612" class="canton" fill="steelblue" stroke-width="1" stroke="white" geotype="canton" geoname="Cognac-2" code_insee="1612" code_departement="16" nom_departement="Charente" code_region="75" nom_region="Nouvelle-Aquitaine"/></svg>