<?xml version="1.0" encoding="utf-8"?>
<svg version="1.1" id="svgmap" xmlns="http://www.w3.org/2000/svg" xmlns:xlink="http://www.w3.org/1999/xlink" x="0px" y="0px" width="100%" height="100%" viewBox="0 0 500 308">
<polygon points="121,1 122,1 125,2 128,0 132,0 133,4 133,4 134,5 136,4 136,5 136,7 137,8 136,9 136,11 136,11 137,12 137,13 139,15 140,16 141,17 142,17 143,17 143,18 143,19 143,20 144,20 145,21 146,22 146,23 147,25 148,26 149,26 151,27 150,27 150,29 152,30 154,31 155,32 155,33 155,34 156,35 156,35 157,35 158,35 158,36 158,36 158,36 161,36 161,36 161,36 162,37 163,37 164,37 164,37 165,37 166,37 167,37 168,38 168,38 167,39 167,39 167,40 168,40 168,40 169,40 169,40 170,40 170,40 170,40 170,40 171,40 171,41 172,41 172,41 172,41 174,41 174,41 175,42 175,42 177,42 177,42 177,42 177,42 178,43 179,43 179,43 180,43 180,43 181,43 182,43 182,43 182,43 183,43 184,43 186,43 186,44 186,44 184,45 184,45 189,46 189,46 188,49 188,49 188,49 189,48 190,49 192,49 192,50 192,50 192,50 193,50 194,51 194,51 194,51 195,52 195,52 197,49 199,50 199,50 199,50 199,50 202,51 202,52 202,52 202,52 202,53 201,53 201,53 201,54 201,54 201,54 200,55 200,56 199,56 199,57 199,57 199,58 199,59 199,59 199,59 199,59 206,62 203,66 203,66 209,68 209,68 209,68 210,70 210,71 210,71 212,71 218,71 221,70 223,70 227,70 229,70 237,69 242,69 244,69 247,69 249,68 250,68 256,68 259,68 260,68 262,67 270,67 273,67 275,67 277,66 278,66 279,66 280,66 281,66 284,66 288,66 289,65 293,65 294,65 295,65 298,65 298,65 300,65 300,64 304,64 304,64 305,64 307,64 308,64 311,64 311,64 311,65 311,65 311,65 311,66 311,66 311,67 311,68 311,68 311,69 311,70 312,70 312,70 312,70 312,70 312,70 313,70 313,71 314,71 314,71 314,71 314,72 314,72 314,72 314,73 314,73 314,73 314,73 314,73 314,73 314,74 315,74 315,74 315,75 316,75 316,75 316,75 316,76 316,76 316,77 316,77 316,78 316,78 316,79 316,79 316,79 316,79 316,80 315,80 315,80 315,81 315,81 316,84 316,84 316,85 316,86 316,86 316,87 316,87 315,87 315,87 315,88 315,88 315,89 315,90 315,90 316,91 316,92 316,92 316,92 317,92 317,93 317,93 319,94 319,94 319,95 320,96 321,96 321,96 321,97 321,97 321,97 322,98 322,98 322,98 322,98 323,98 323,99 324,100 324,100 323,100 323,101 323,101 323,101 323,101 324,102 324,103 324,103 324,103 327,104 327,104 332,106 334,106 337,107 337,107 338,107 338,107 340,107 341,107 342,107 343,107 343,107 343,107 343,107 344,108 345,109 347,109 349,109 349,109 353,109 354,109 357,109 358,109 358,110 358,111 358,112 359,113 359,113 359,114 359,114 358,115 358,116 358,116 358,116 358,117 358,117 357,117 357,118 356,118 355,120 355,120 355,120 355,120 356,120 356,120 357,120 357,120 358,121 358,121 358,121 359,122 359,122 359,122 359,122 361,122 362,122 363,122 366,122 367,122 367,122 369,122 370,122 371,123 371,123 372,124 373,124 374,125 376,125 376,125 379,126 379,126 382,126 384,126 387,126 388,126 390,126 391,126 391,125 392,125 398,125 399,125 400,125 401,125 402,125 403,125 403,125 403,125 403,125 403,125 405,125 405,125 405,126 406,127 406,127 406,128 406,128 406,128 407,128 407,129 408,129 409,129 409,129 409,129 410,129 410,129 410,129 411,130 411,130 412,131 412,131 412,131 413,131 413,132 413,132 415,132 416,133 417,133 418,133 418,133 419,133 420,134 420,134 421,135 419,136 419,137 419,137 419,137 418,138 418,138 418,138 418,138 418,138 418,138 420,138 420,139 421,139 421,139 421,139 422,139 422,139 423,139 423,139 423,139 423,139 424,139 425,139 425,139 425,139 426,139 426,139 427,140 428,141 428,141 429,141 432,140 432,139 433,139 434,139 434,139 435,139 436,139 437,140 437,140 438,140 438,140 439,141 439,141 439,141 440,141 441,141 441,141 442,141 442,141 442,141 444,141 444,142 444,142 445,142 446,142 447,142 447,142 448,142 450,143 453,144 454,144 455,145 456,145 456,145 457,145 457,146 457,146 459,147 459,147 460,147 460,147 461,147 463,148 463,149 463,149 463,150 463,150 462,151 462,151 461,152 461,152 461,153 460,154 460,154 462,154 462,155 464,155 464,155 465,155 466,155 467,155 468,156 470,156 471,156 471,156 471,156 472,156 472,156 473,156 474,156 475,156 476,156 478,156 478,156 479,156 479,157 479,160 479,163 479,165 479,165 478,167 477,167 477,167 477,168 476,169 476,169 476,170 476,170 475,171 475,171 475,171 475,172 476,173 476,173 476,173 475,174 475,175 474,176 473,176 473,176 473,176 473,177 472,178 472,179 472,179 473,179 473,179 474,179 475,179 475,179 475,180 474,180 474,180 474,180 474,180 473,181 473,181 473,181 474,181 475,182 475,182 477,182 479,182 480,182 482,182 486,182 487,182 488,182 489,182 491,182 492,182 493,182 494,182 494,182 496,182 496,182 498,182 499,182 500,182 500,183 499,184 499,184 499,185 499,185 498,185 498,186 498,186 498,186 497,186 496,187 494,188 494,189 494,189 493,189 493,190 494,190 494,190 493,190 493,190 492,190 489,189 488,189 488,189 487,189 487,190 485,190 481,190 480,190 478,190 475,189 473,189 472,189 470,189 470,190 470,190 468,193 466,197 465,196 465,196 464,196 464,195 462,195 461,194 461,194 459,194 459,193 458,193 457,193 453,192 452,191 450,191 449,191 449,190 449,191 449,191 448,191 448,192 447,192 446,193 446,193 446,193 446,194 446,194 446,195 446,195 446,196 447,196 447,196 446,199 446,200 443,200 442,200 442,202 442,202 442,204 442,205 442,205 443,205 443,208 442,209 441,211 439,212 439,212 438,212 437,212 437,211 436,211 435,211 434,211 434,211 433,210 433,210 432,208 432,208 431,208 431,208 430,208 428,208 427,207 425,207 424,206 422,206 421,205 421,205 419,205 416,204 416,204 415,206 415,206 415,207 415,208 415,208 415,208 415,209 415,211 415,212 415,213 415,213 414,215 414,216 414,217 414,217 411,216 410,216 406,215 405,215 405,215 404,215 404,216 403,216 403,217 403,217 403,217 403,217 402,218 402,218 402,218 402,218 402,218 402,218 402,218 402,218 402,218 402,219 401,219 401,219 401,219 401,219 401,219 401,219 401,219 400,220 400,220 400,221 400,221 400,221 399,222 399,222 399,222 399,222 399,222 399,222 398,223 398,223 398,223 398,224 399,224 399,224 400,224 401,225 401,226 401,226 402,227 402,227 402,227 402,228 402,228 402,228 402,229 403,229 403,229 403,229 402,230 402,230 402,231 401,231 401,231 401,232 401,233 401,233 400,233 400,233 400,234 400,234 400,234 399,234 399,235 399,235 399,236 399,236 398,236 399,237 399,237 398,237 398,237 398,237 398,238 398,238 398,238 398,238 398,238 398,238 397,239 397,239 397,239 397,239 397,239 397,239 396,239 396,239 395,239 395,239 395,239 395,239 395,240 395,240 394,239 394,240 393,240 393,240 392,240 392,240 392,240 392,240 392,240 391,241 391,241 391,241 391,241 390,241 390,241 390,242 390,242 390,242 390,242 390,243 390,244 389,244 389,244 389,245 389,245 389,246 389,246 389,246 389,246 389,246 389,246 389,246 389,246 389,247 388,247 388,248 387,248 387,249 386,249 386,249 385,249 385,249 384,249 384,249 383,249 383,249 383,249 383,249 383,249 383,248 383,248 383,248 383,248 383,248 382,248 382,248 381,248 381,248 380,248 380,248 380,248 380,248 380,249 380,249 381,249 381,249 381,250 382,250 382,251 382,251 382,251 383,251 384,252 384,252 383,252 383,252 382,252 381,252 380,252 380,252 379,252 379,251 378,251 377,251 376,251 375,251 374,252 373,252 372,253 371,254 371,254 370,254 369,255 369,255 368,255 367,255 367,255 366,254 366,254 365,253 365,252 364,252 363,252 363,252 362,252 362,252 361,253 360,253 359,253 358,252 358,252 357,252 356,252 356,252 355,251 355,251 355,251 355,250 355,250 354,249 354,249 354,248 354,248 354,247 354,246 353,246 353,246 353,245 352,245 351,245 350,244 349,243 349,243 348,243 348,243 347,243 346,243 346,243 345,243 344,243 344,243 343,243 341,243 341,243 340,243 339,242 337,242 337,242 335,242 334,242 334,242 334,242 333,243 332,243 332,243 333,244 333,244 333,244 332,244 332,244 332,244 332,244 330,246 330,246 329,247 329,248 329,248 329,248 330,248 331,249 334,250 334,250 334,250 334,250 335,250 335,250 337,251 338,252 337,252 336,254 336,255 334,257 333,258 331,260 331,260 330,260 331,262 331,262 330,262 330,262 329,264 329,264 329,264 329,264 329,264 329,264 329,265 329,265 329,266 330,266 330,266 330,266 330,267 329,268 329,268 329,268 329,269 329,269 328,270 327,270 327,270 328,271 328,271 328,271 327,271 326,272 326,273 326,274 325,276 325,276 326,276 328,276 328,276 328,276 328,276 331,276 335,277 335,277 336,277 337,277 338,278 338,278 337,278 337,278 337,279 337,279 337,280 337,282 337,283 337,283 337,284 337,285 336,285 336,286 334,286 334,286 334,286 333,285 333,285 332,285 332,286 332,286 332,286 332,286 333,286 333,286 333,286 333,286 333,286 332,287 332,287 332,287 332,287 332,287 332,287 331,287 331,287 331,287 331,286 331,286 332,286 331,286 329,285 329,285 329,286 329,287 328,287 325,286 325,286 325,286 326,285 326,284 323,284 323,284 323,284 323,284 323,284 322,285 322,285 321,285 320,287 319,288 318,289 318,289 317,290 316,291 315,292 315,292 314,293 313,294 313,294 313,294 313,294 313,294 313,294 313,294 312,295 311,295 311,296 310,296 309,297 309,297 308,298 307,299 307,299 306,299 306,299 306,299 306,299 305,298 305,298 303,297 303,297 301,299 301,300 301,300 300,300 300,300 299,300 299,301 299,301 297,302 297,302 297,302 297,302 297,302 297,302 296,303 296,303 296,303 296,303 296,303 295,303 295,303 293,303 293,303 291,302 291,302 291,302 291,302 291,303 290,303 290,303 290,303 290,303 290,303 290,303 290,304 290,305 290,305 289,305 289,306 288,307 288,307 287,308 287,308 287,308 279,307 279,307 279,307 277,306 277,306 277,306 276,306 275,306 265,304 265,304 264,304 264,303 262,303 262,303 259,302 259,302 259,302 260,301 260,301 261,300 261,299 261,299 261,298 261,298 261,297 261,296 261,296 261,295 262,295 262,292 261,292 261,292 261,292 261,290 261,290 261,289 261,289 261,288 261,288 261,288 261,287 261,286 261,286 261,286 261,286 261,285 261,285 261,284 261,282 261,282 261,282 260,282 259,282 258,282 257,282 256,282 255,282 255,282 250,281 247,280 247,280 246,280 246,280 245,280 243,279 238,278 234,277 232,276 230,276 228,275 226,274 224,273 222,273 220,272 218,272 216,271 213,270 212,270 212,270 211,270 208,269 208,269 204,268 204,268 203,268 201,267 198,267 197,266 192,265 191,265 191,265 190,265 189,265 188,265 188,264 186,264 185,264 185,264 181,263 180,263 178,262 175,262 174,262 174,262 174,262 173,262 170,261 169,261 166,261 164,261 164,261 164,261 163,260 162,260 160,260 154,260 151,260 150,260 150,260 149,260 148,260 148,259 149,258 150,257 150,256 151,256 152,254 152,254 151,254 151,254 150,254 149,254 147,253 147,253 146,253 146,253 146,253 146,253 145,252 145,252 142,251 142,251 141,250 140,250 140,250 139,249 138,248 137,248 137,247 135,247 135,247 134,246 132,246 132,245 131,245 131,245 130,245 130,244 129,244 128,243 127,243 126,242 126,242 126,241 125,241 125,241 124,240 123,238 123,238 123,238 121,237 120,236 119,236 119,236 118,235 118,235 117,235 117,234 117,234 117,234 116,233 115,232 114,232 113,231 113,231 113,231 112,230 112,230 111,229 111,229 111,228 110,227 108,226 108,226 108,225 108,225 107,224 106,224 106,223 104,223 104,222 102,221 101,220 101,220 100,219 100,219 99,219 97,218 96,218 94,217 94,217 93,217 94,216 94,216 94,215 94,215 94,214 93,214 93,214 93,213 92,213 92,213 92,213 91,213 91,213 91,213 91,212 91,211 90,211 90,211 90,210 90,210 90,210 90,210 90,210 91,209 92,208 92,208 91,208 90,208 90,208 91,207 91,206 92,206 92,205 92,204 93,203 93,203 94,203 94,202 94,202 94,202 95,202 95,203 96,204 98,206 100,207 101,208 102,209 103,209 104,210 104,210 104,210 104,211 105,211 106,211 110,214 112,214 113,215 115,216 116,216 118,216 120,217 121,217 121,217 121,217 121,217 121,215 122,214 122,214 122,214 125,207 125,207 124,207 127,203 128,200 128,200 129,199 128,199 127,199 127,199 129,196 128,196 128,196 126,195 125,194 124,194 123,194 123,194 122,194 119,193 118,193 117,192 117,192 117,192 116,191 115,190 115,189 114,189 112,188 110,186 109,185 107,184 107,184 106,184 106,184 105,184 105,183 104,183 104,183 103,183 102,183 102,183 101,183 101,183 101,183 102,182 102,182 103,181 104,181 106,179 106,179 107,178 107,178 107,177 107,177 107,177 108,177 110,176 111,176 114,174 115,174 115,174 115,174 119,174 120,174 120,174 120,174 120,174 121,174 120,174 122,172 122,172 122,172 120,171 119,170 118,170 117,169 116,168 115,168 114,167 112,167 112,167 111,166 111,166 109,165 109,165 108,164 107,163 107,163 107,163 107,163 106,163 105,162 103,162 102,162 101,162 100,162 100,161 99,161 99,161 99,161 98,161 96,162 96,161 96,162 95,162 95,162 95,162 94,163 93,163 92,163 91,163 91,163 91,163 90,163 90,163 89,163 89,163 89,163 88,163 87,163 87,163 87,163 87,163 87,163 86,163 86,163 85,163 85,163 84,163 83,163 83,163 84,161 84,161 84,161 83,161 81,160 82,159 83,159 85,157 86,156 86,156 85,156 85,156 85,156 84,156 84,156 84,156 84,156 83,156 83,156 83,156 83,156 83,156 83,155 83,155 84,155 84,155 83,154 83,154 83,154 82,154 82,154 82,154 82,154 82,154 82,155 82,155 82,155 82,155 82,155 80,155 80,155 80,156 80,156 79,156 79,156 78,157 78,157 77,157 77,158 77,158 77,158 77,159 76,159 76,159 76,159 76,159 76,159 76,159 75,158 75,158 75,158 74,157 74,157 73,158 72,160 72,160 71,159 70,159 70,159 70,159 70,159 70,158 70,158 70,157 70,157 70,157 67,158 67,158 67,158 67,157 67,157 67,157 67,156 67,156 67,156 68,156 68,156 68,156 68,156 68,156 68,155 68,155 68,155 68,155 68,155 68,155 68,155 67,155 67,155 67,155 66,154 66,154 66,154 66,154 66,154 66,154 67,154 67,153 67,153 67,153 67,153 67,153 68,152 68,152 68,152 68,152 68,152 68,151 68,151 68,151 67,151 67,151 67,151 66,151 65,151 65,151 64,150 64,150 64,150 63,151 63,151 63,151 62,150 61,150 61,150 60,150 60,150 60,150 60,150 59,150 56,148 55,148 55,148 55,148 55,148 53,148 51,146 51,146 51,146 51,146 51,145 51,145 50,145 48,144 48,144 47,144 46,143 44,143 43,142 41,141 39,140 39,140 38,139 38,139 37,139 32,137 32,137 32,137 32,137 31,137 30,136 30,136 27,135 27,135 27,135 26,134 25,134 24,133 23,133 23,133 23,133 22,131 22,131 22,131 22,131 21,131 21,131 21,131 21,130 21,130 21,129 21,128 21,128 21,128 21,127 20,127 21,127 26,124 26,124 26,124 24,122 23,122 21,121 20,120 20,120 19,120 18,120 18,120 17,119 13,118 13,118 13,118 13,118 12,118 12,118 12,118 7,113 7,113 7,113 8,113 8,113 8,113 8,113 6,111 5,110 4,110 3,111 3,111 3,111 3,111 2,111 2,111 0,110 0,110 0,110 0,110 6,102 7,98 7,98 7,96 7,93 7,93 8,92 8,92 9,91 9,91 10,91 10,91 10,91 11,91 11,91 12,91 12,90 13,90 13,90 13,89 13,88 13,87 14,85 14,84 14,84 14,83 13,82 13,82 14,81 14,81 16,81 17,81 25,81 29,80 29,80 30,80 30,80 30,80 30,79 29,76 29,76 29,72 29,70 31,67 32,66 35,63 36,61 36,61 36,61 36,61 37,60 37,60 38,59 39,59 40,59 41,58 42,58 42,58 43,57 44,57 45,57 45,57 45,56 46,56 46,56 46,56 47,55 47,55 48,53 48,52 48,52 49,51 50,49 50,49 50,49 51,48 51,47 51,47 52,47 53,46 52,46 53,46 54,45 55,45 56,44 58,43 59,43 60,42 61,41 62,40 63,39 64,38 65,37 65,37 66,37 66,37 66,37 66,37 67,37 67,37 67,37 68,37 69,37 69,37 69,37 71,35 72,35 74,35 76,35 76,35 76,35 76,35 77,34 77,33 77,33 77,32 78,32 78,32 79,31 81,31 82,30 84,28 85,28 86,27 88,26 88,26 89,26 89,26 90,24 91,23 91,23 94,24 94,24 93,25 95,25 95,25 95,24 95,24 95,24 96,24 97,24 98,25 98,25 99,25 100,26 100,26 101,25 103,26 103,26 104,26 104,26 104,26 104,25 104,25 105,24 105,24 105,24 105,24 107,23 107,23 107,23 108,22 109,21 109,20 110,20 110,19 111,18 111,18 111,18 112,17 112,17 112,17 114,16 114,16 115,16 116,16 116,16 117,15 117,15 117,15 117,15 117,14 118,13 119,12 119,12 120,11 121,11 123,10 123,10 126,8 128,7 128,7 128,7 129,6 128,6 128,6 127,6 127,6 126,6 124,4 123,4 119,2 121,1 121,1" id="1615" class="canton" fill="steelblue" stroke-width="1" stroke="white" geotype="canton" geoname="Jarnac" code_insee="1615" code_departement="16" nom_departement="Charente" code_region="75" nom_region="Nouvelle-Aquitaine"/></svg>