<?xml version="1.0" encoding="utf-8"?>
<svg version="1.1" id="svgmap" xmlns="http://www.w3.org/2000/svg" xmlns:xlink="http://www.w3.org/1999/xlink" x="0px" y="0px" width="100%" height="100%" viewBox="0 0 500 244">
<polygon points="222,0 224,0 225,1 227,1 228,2 232,4 234,5 238,7 244,9 248,10 250,11 253,12 254,12 255,13 258,14 258,14 259,14 261,16 261,16 262,17 264,18 266,19 267,19 265,20 263,22 263,22 263,23 263,24 264,25 266,26 266,27 267,28 268,29 269,29 272,31 274,32 275,32 275,34 276,35 276,35 276,36 276,36 276,37 276,37 277,38 278,38 280,39 289,41 290,41 291,42 294,43 302,46 311,48 319,51 327,54 328,54 329,54 330,54 331,54 332,53 333,52 335,50 336,50 337,49 338,49 345,47 347,47 352,47 354,47 358,47 359,47 364,47 370,48 373,48 374,49 375,49 378,49 377,50 375,56 372,61 371,64 372,65 373,66 374,69 375,70 376,73 376,74 378,78 378,79 378,80 379,82 378,84 377,85 373,84 369,83 368,83 367,83 364,84 364,84 364,84 364,86 364,89 364,90 365,92 365,93 366,93 367,97 368,98 368,99 368,100 369,101 369,103 370,105 370,106 370,108 371,109 371,109 372,109 373,109 374,108 376,108 378,107 378,107 379,107 379,107 380,108 383,109 384,110 385,110 387,110 388,110 388,111 389,111 390,113 391,115 392,116 392,115 394,115 399,113 405,111 408,110 410,109 411,109 418,105 420,104 421,104 421,104 423,103 425,102 430,101 436,98 437,98 439,97 441,96 446,95 450,94 453,92 456,91 458,91 459,91 459,91 459,91 462,90 463,90 464,89 467,87 469,86 471,85 472,84 474,83 475,82 475,82 478,81 480,79 481,79 488,76 488,75 490,74 491,73 491,74 492,74 492,75 494,77 495,79 496,83 498,86 498,88 498,95 498,95 498,96 498,107 497,109 497,110 493,114 493,115 493,115 493,116 494,116 495,117 496,118 500,119 499,119 499,119 499,119 499,119 499,120 499,120 500,120 500,120 500,120 500,121 500,122 500,122 499,125 498,125 496,126 493,127 492,127 490,127 488,127 485,127 481,126 478,126 474,126 472,126 472,126 471,126 468,127 466,127 465,128 463,128 461,129 459,130 456,131 450,134 448,135 447,135 444,137 441,138 439,138 436,139 433,139 430,139 427,139 423,139 417,139 415,139 412,139 409,139 406,140 402,141 400,142 397,143 395,144 393,145 392,146 388,148 387,149 385,150 383,151 380,153 378,154 375,155 372,156 369,156 365,157 363,157 358,157 357,158 357,158 357,159 357,160 357,160 357,160 356,160 356,160 354,160 352,160 351,160 350,160 348,159 347,160 346,159 344,160 344,160 344,160 343,160 343,160 343,160 343,160 343,160 342,160 341,163 340,165 339,167 339,168 339,169 339,169 338,171 338,172 338,173 338,176 338,178 337,179 337,180 336,182 336,183 335,184 335,185 334,186 333,188 332,189 332,191 332,191 332,191 332,192 332,194 332,195 332,197 332,199 333,200 333,200 333,200 333,201 333,201 333,201 334,201 334,202 335,202 336,203 337,203 337,203 338,203 339,203 340,203 342,203 344,203 349,203 351,203 352,203 353,202 353,202 355,202 359,202 362,201 366,200 366,201 367,203 367,205 368,206 368,206 367,207 365,207 364,207 358,205 354,204 353,203 351,204 348,204 345,204 336,204 335,204 327,203 324,202 320,202 315,203 313,203 312,203 311,208 311,209 311,208 312,204 312,204 310,203 303,202 301,202 299,203 299,203 296,204 294,205 293,207 293,208 294,209 295,210 295,210 297,211 296,212 297,213 302,215 305,216 308,217 308,217 308,219 307,219 307,219 307,219 307,218 298,214 297,214 295,215 293,216 293,216 280,219 280,220 279,220 276,220 274,221 272,221 272,222 270,222 269,223 268,223 267,223 261,226 260,226 259,227 258,227 257,227 255,227 254,228 253,228 253,228 253,228 252,228 251,229 250,229 250,229 249,229 247,230 246,230 246,230 245,231 244,231 243,231 242,232 241,232 240,233 239,233 238,234 238,234 237,235 236,235 234,236 233,236 231,237 230,237 228,237 227,237 227,237 226,237 226,237 225,237 223,237 221,237 219,237 216,238 215,238 214,238 214,238 214,239 212,240 211,240 211,240 211,240 210,240 210,240 209,241 209,241 209,241 208,241 208,241 207,241 206,241 206,241 204,242 203,242 203,242 201,243 201,243 200,243 200,243 197,243 197,243 194,243 193,244 193,244 192,244 191,244 189,243 189,243 188,243 188,243 185,243 184,243 183,242 182,242 180,241 179,240 178,239 177,239 176,240 176,240 177,239 171,234 169,233 168,232 167,233 159,236 156,237 155,238 154,238 153,238 150,237 142,234 142,234 141,235 134,236 132,236 129,236 116,237 114,237 84,236 83,235 83,235 82,235 79,233 79,232 79,232 70,223 70,222 68,221 62,218 60,217 58,215 55,212 53,210 51,208 50,207 49,205 47,203 47,202 45,198 45,197 45,197 1,190 0,190 0,190 1,190 1,188 1,186 1,186 1,185 0,183 0,183 0,183 0,183 0,183 0,183 1,182 0,182 0,181 0,181 0,181 1,181 1,181 1,181 1,181 0,181 0,181 1,180 1,180 1,180 1,179 1,179 1,179 1,178 1,178 1,178 1,178 1,180 2,180 4,170 3,170 3,170 3,169 3,168 3,167 4,159 5,156 6,151 19,145 19,143 21,141 23,139 25,138 27,137 30,136 33,136 60,137 61,136 61,134 62,134 63,133 65,132 65,132 66,132 66,132 66,132 67,131 69,131 72,129 88,121 88,120 90,119 89,118 93,115 94,114 97,111 98,109 99,107 100,107 104,99 105,98 106,97 120,93 120,87 120,86 120,86 120,86 119,85 117,85 112,84 107,85 106,85 105,85 104,85 104,83 104,82 105,81 106,81 108,82 115,80 120,80 121,79 123,79 123,79 123,79 123,76 124,75 124,75 124,73 125,73 125,73 125,72 125,71 125,71 125,70 125,70 126,70 126,69 126,68 126,67 126,66 127,65 127,65 127,64 127,64 128,64 128,63 128,62 128,62 129,61 129,60 129,60 130,59 131,58 132,57 133,56 134,56 134,56 134,55 134,55 135,55 136,54 136,54 137,53 138,51 139,51 139,50 139,50 140,49 140,48 140,48 141,47 142,46 142,46 142,46 143,46 143,46 144,45 145,45 147,44 148,43 150,42 150,42 151,41 152,41 153,41 154,41 158,40 159,40 161,39 161,39 165,39 165,39 166,39 169,39 170,39 171,39 172,38 175,38 178,37 180,37 181,38 184,38 185,38 186,37 187,37 188,37 189,36 190,36 191,36 191,35 192,35 193,34 194,33 195,32 196,32 196,31 197,31 198,30 200,28 200,28 201,27 202,26 203,26 203,26 203,24 205,22 207,20 210,17 211,15 215,9 216,9 216,9 219,6 221,2 222,0" id="1714" class="canton" fill="steelblue" stroke-width="1" stroke="white" geotype="canton" geoname="Rochelle-1" code_insee="1714" code_departement="17" nom_departement="Charente-Maritime" code_region="75" nom_region="Nouvelle-Aquitaine"/></svg>