<?xml version="1.0" encoding="utf-8"?>
<svg version="1.1" id="svgmap" xmlns="http://www.w3.org/2000/svg" xmlns:xlink="http://www.w3.org/1999/xlink" x="0px" y="0px" width="100%" height="100%" viewBox="0 0 500 224">
<polygon points="12,167 12,168 13,168 14,168 14,168 15,168 17,168 18,169 18,169 19,169 19,169 19,169 21,169 21,169 22,169 23,169 23,169 24,169 24,169 25,169 25,169 26,170 26,170 28,168 29,168 29,168 29,168 29,168 29,168 31,167 31,167 32,166 32,167 33,167 34,166 34,167 34,167 35,167 35,167 35,166 36,167 36,166 37,166 37,166 37,166 37,165 37,165 37,165 38,164 38,164 37,164 37,164 37,164 37,163 37,163 36,163 36,163 36,162 34,162 34,162 33,161 33,161 31,160 31,160 32,159 32,159 33,158 33,158 33,158 33,158 32,157 30,157 29,156 27,155 26,155 25,155 25,155 24,155 22,154 22,154 22,154 22,153 22,153 22,153 22,153 22,153 22,152 22,152 23,151 23,151 23,150 23,150 23,150 23,150 24,149 24,149 25,148 26,148 26,148 27,147 28,146 28,146 28,146 28,145 29,145 29,145 29,145 31,144 31,143 32,143 32,143 33,142 33,142 34,142 34,142 35,142 35,141 36,141 37,141 38,140 38,140 38,140 39,139 39,139 39,139 39,139 40,138 40,138 40,138 41,138 41,138 41,137 41,137 42,137 42,137 43,137 43,136 43,136 44,136 43,136 43,136 43,136 42,136 41,136 40,136 40,136 38,135 38,135 37,135 35,135 35,135 35,134 35,134 35,134 34,134 34,134 34,133 34,133 33,132 33,132 33,132 33,132 32,131 31,130 31,130 31,129 31,129 30,128 30,128 30,128 29,128 29,128 29,127 28,126 28,126 28,125 27,125 27,124 26,123 26,123 26,123 25,122 25,122 25,122 24,121 24,120 23,120 23,119 23,119 23,119 23,119 23,119 23,118 23,118 22,118 22,117 22,117 22,117 22,117 21,116 21,115 21,115 20,115 20,114 20,114 20,114 21,113 21,112 21,112 21,112 22,112 22,112 23,112 24,112 24,112 26,113 27,113 27,112 27,111 27,110 27,110 27,110 27,110 27,109 27,109 27,109 27,108 27,108 27,107 27,107 27,107 27,106 27,106 28,106 28,106 28,105 28,105 28,104 28,104 28,104 26,103 26,103 25,103 25,104 24,103 24,103 23,103 23,103 22,103 22,103 22,104 22,104 21,104 20,104 20,104 20,104 19,104 18,104 18,104 17,104 17,104 16,104 16,104 16,104 15,104 15,104 14,104 14,104 13,104 13,104 12,104 12,104 12,103 11,103 12,103 12,103 13,102 13,102 13,102 14,102 14,102 15,101 15,101 15,101 16,100 16,100 16,100 17,100 17,100 17,99 18,99 18,99 18,99 19,98 21,97 22,96 23,96 23,96 23,95 24,95 25,94 26,93 26,93 26,93 26,93 27,92 28,92 28,91 29,91 29,91 29,90 30,90 30,90 30,90 31,90 32,89 32,89 35,89 35,89 36,88 36,88 37,88 38,88 39,88 40,87 40,87 41,87 42,87 43,86 44,86 45,85 45,85 46,85 46,85 47,84 48,84 49,84 49,84 49,84 51,83 51,83 52,83 52,83 52,83 53,82 54,82 54,82 55,82 56,82 57,82 59,83 59,83 60,83 60,83 60,83 61,83 62,83 62,83 62,83 62,83 63,84 64,84 64,84 64,84 64,84 64,84 65,84 66,84 66,84 66,84 68,84 68,84 69,84 69,84 69,83 69,83 69,82 69,81 69,81 69,81 69,79 69,79 68,78 68,76 68,76 68,75 70,76 71,76 71,76 72,76 73,76 74,75 75,75 75,75 75,75 77,75 78,75 79,75 79,75 80,75 81,75 82,75 82,75 82,76 82,77 82,77 82,78 82,79 82,79 82,80 82,81 83,80 83,80 84,80 85,80 85,80 85,80 86,80 86,80 87,80 87,80 87,80 88,80 88,80 89,80 90,80 90,79 90,80 90,80 90,80 90,80 91,80 91,80 91,80 92,80 92,80 93,80 93,80 94,79 94,79 96,79 96,79 97,79 97,78 98,78 98,78 99,78 99,78 99,78 100,78 100,78 100,78 101,78 101,78 102,78 102,78 102,77 103,77 103,76 103,76 103,76 104,75 104,75 104,75 104,74 104,74 105,74 105,74 105,74 105,73 106,73 106,73 106,72 106,72 107,72 107,71 108,71 108,71 108,71 109,71 110,71 110,71 111,71 111,71 111,71 111,71 112,71 112,71 112,71 112,71 112,71 112,71 112,71 112,72 112,72 112,72 113,71 113,71 113,71 113,71 113,71 112,70 112,70 112,70 111,70 111,70 111,70 111,69 111,69 111,69 110,69 110,69 110,68 109,68 109,67 109,67 109,67 109,67 108,66 108,66 107,66 107,65 106,65 106,65 105,65 105,64 105,64 104,64 104,64 104,63 103,63 103,63 103,63 103,62 103,62 103,62 103,62 103,62 103,61 104,61 104,61 104,60 104,60 103,59 103,59 103,59 103,59 104,59 104,59 104,59 105,59 105,59 105,59 106,59 106,59 105,58 105,57 106,55 106,55 107,55 107,55 107,55 107,54 107,54 107,54 107,52 107,52 106,51 106,51 106,50 106,49 106,49 106,48 105,48 105,47 105,47 105,47 105,47 105,47 106,47 107,47 107,47 107,47 109,48 110,48 110,48 110,48 110,48 111,48 111,48 111,48 111,48 111,48 112,48 116,49 117,49 118,50 118,50 120,50 120,51 121,51 122,51 123,51 123,51 123,51 124,51 126,51 127,51 127,52 127,52 127,52 127,53 127,54 127,56 127,56 127,57 127,57 127,57 127,58 126,59 125,60 125,60 125,61 125,61 125,61 125,61 125,61 125,61 126,61 126,61 126,62 126,62 126,62 127,62 127,62 127,63 128,64 128,64 129,64 129,65 129,65 130,66 130,67 131,67 131,67 132,67 132,67 135,66 137,66 137,66 138,66 138,66 138,66 139,66 140,66 141,66 142,67 142,67 142,67 143,66 143,66 143,65 144,65 145,65 145,65 145,66 145,66 145,66 146,66 146,66 146,66 146,66 146,66 147,66 147,66 148,66 148,66 148,66 149,66 149,67 149,67 151,67 152,67 153,67 153,67 153,67 154,68 156,68 158,68 159,68 159,68 160,68 160,68 161,67 162,67 163,67 164,67 168,67 168,67 171,66 172,66 172,66 174,66 174,66 174,65 175,65 175,64 176,63 176,62 176,62 176,62 175,62 175,62 175,62 175,62 176,60 176,59 177,58 177,58 178,55 178,55 181,56 181,55 181,54 182,50 182,50 182,50 182,51 183,51 183,51 183,51 184,52 184,52 184,52 184,51 184,51 185,50 184,50 184,50 184,50 183,50 182,49 182,49 182,49 181,49 180,48 180,48 179,48 179,48 179,48 179,47 179,47 179,47 180,47 180,47 180,46 180,46 180,46 180,46 181,46 181,45 182,44 182,44 181,44 181,44 181,44 181,44 181,44 181,44 182,43 182,44 182,44 183,44 183,44 183,44 183,44 183,44 183,44 183,44 183,44 184,44 184,44 184,44 184,44 185,44 185,44 185,44 185,44 185,44 185,44 185,44 185,44 185,44 186,44 186,44 186,44 186,44 187,44 187,44 187,44 187,44 187,44 188,44 188,44 188,44 188,44 188,44 188,44 189,44 189,44 190,44 190,44 190,44 190,44 191,44 191,44 192,44 192,44 193,44 194,43 195,43 195,43 194,42 194,42 194,42 194,42 194,42 194,41 194,41 194,40 194,40 195,41 195,41 195,41 195,41 195,41 196,41 196,41 196,41 197,41 197,41 198,41 198,41 199,41 199,41 199,41 199,41 200,42 201,42 201,42 201,42 202,42 202,42 202,42 203,42 203,42 203,42 203,42 204,42 204,42 204,42 204,42 204,43 204,43 204,43 204,43 205,43 205,43 205,43 205,43 205,43 205,43 205,43 205,43 205,43 205,43 205,43 205,43 206,43 206,43 206,43 206,43 206,43 206,43 207,43 207,43 207,43 207,43 208,43 208,43 208,43 208,42 209,42 209,42 209,42 209,42 210,42 212,42 212,42 212,42 213,41 213,41 214,41 214,41 214,41 214,41 215,40 215,39 215,39 215,39 215,38 217,36 217,36 218,37 218,36 219,37 220,37 220,35 221,35 223,36 223,36 224,36 224,36 224,36 225,37 226,37 228,37 230,37 230,37 231,37 231,37 231,38 232,38 232,38 233,38 233,38 233,38 233,38 233,38 233,39 232,39 232,39 232,39 232,39 232,39 233,40 233,40 234,40 234,40 235,40 235,40 234,41 234,41 235,41 235,41 235,41 236,41 236,41 237,41 238,41 238,41 239,41 240,41 242,42 243,42 243,42 243,42 244,42 245,42 248,41 248,41 248,41 249,41 249,41 250,41 250,41 251,41 252,41 252,41 253,41 254,40 254,41 255,41 255,41 255,41 255,41 255,41 256,41 256,41 256,42 256,42 257,42 258,42 258,42 259,42 259,42 260,42 260,42 260,42 261,42 261,42 261,42 262,43 262,43 263,43 263,42 263,42 263,42 264,41 264,41 265,41 265,40 265,40 265,40 266,40 266,40 267,40 267,39 267,39 267,39 267,39 267,38 268,37 269,37 269,37 270,35 270,35 270,35 269,34 268,34 268,34 268,34 268,34 268,33 267,32 267,32 266,31 266,31 266,31 265,30 265,30 266,30 266,30 266,30 267,29 267,29 267,29 267,29 267,29 269,27 269,27 271,25 271,25 271,25 271,24 271,24 271,24 269,23 267,22 268,22 268,22 270,20 272,20 273,19 273,19 274,18 275,18 275,17 275,17 275,17 275,17 275,17 276,17 276,18 276,18 276,18 276,18 277,19 278,19 279,20 279,20 279,20 280,20 280,20 281,21 281,21 281,21 281,21 280,22 280,22 278,23 278,24 280,24 282,24 284,24 285,24 285,24 286,25 286,24 286,24 286,23 286,23 286,22 288,21 290,19 290,19 290,19 291,20 291,20 292,20 292,21 293,21 293,21 293,21 294,21 294,21 294,21 294,22 294,22 294,22 295,22 295,22 296,23 296,23 296,24 296,24 297,24 297,24 297,24 298,24 299,25 300,25 300,25 301,25 301,25 302,25 302,26 303,26 303,27 304,27 304,27 305,28 305,28 305,28 306,29 307,29 308,30 309,30 309,30 303,35 303,35 303,36 304,36 304,36 304,37 303,37 303,37 304,37 304,38 304,38 304,38 307,39 307,39 307,39 307,39 307,38 307,38 308,37 308,37 309,37 309,36 310,36 310,36 311,34 311,34 312,33 312,33 313,32 313,32 313,32 317,25 318,23 318,22 318,22 318,22 318,22 318,21 318,21 318,21 318,21 318,21 318,20 317,20 317,20 317,20 316,20 316,19 316,19 315,20 315,21 314,21 314,21 314,21 314,21 312,20 311,19 310,19 310,19 309,19 307,18 307,18 306,18 306,18 305,18 305,18 304,17 304,17 304,17 303,17 302,16 301,16 301,16 300,15 300,15 300,15 300,14 301,14 301,13 301,13 303,11 303,10 303,10 304,10 304,9 304,9 304,9 305,8 305,8 306,7 306,7 306,6 306,6 307,6 307,5 307,5 307,5 314,7 314,7 314,7 314,7 314,6 314,6 315,5 315,5 315,5 315,5 319,6 319,6 319,6 319,5 319,5 322,6 322,6 322,6 322,5 324,4 325,3 327,2 327,2 328,1 329,1 329,1 331,0 331,0 337,2 341,3 341,3 341,3 345,4 346,5 346,5 349,5 350,6 353,7 353,7 352,8 352,8 351,9 350,10 349,11 349,11 350,11 350,11 350,11 352,11 353,11 354,11 355,11 356,11 356,11 357,11 358,11 358,11 361,12 362,13 362,13 362,13 364,13 364,13 364,13 363,13 362,14 362,14 361,14 361,13 360,13 360,13 359,14 359,14 358,14 358,14 357,15 357,15 357,15 357,15 356,15 356,15 355,16 355,16 354,16 354,16 353,17 352,18 352,18 352,18 353,19 354,20 354,20 355,21 355,21 356,21 356,21 356,21 356,21 356,21 357,22 358,22 359,23 359,23 358,24 358,24 357,25 358,25 358,25 358,25 358,25 358,26 359,26 360,27 360,27 360,27 361,27 362,26 364,24 365,24 366,22 366,22 367,22 367,21 369,21 369,21 370,20 370,20 370,21 369,21 369,21 369,21 369,21 369,22 369,22 369,22 369,22 369,22 371,22 371,22 371,22 373,22 373,21 373,21 373,21 374,21 375,21 375,21 376,21 376,21 377,21 377,21 377,21 378,21 378,21 378,21 378,21 379,20 379,20 379,20 379,20 380,20 380,20 380,20 381,19 381,19 381,19 381,19 381,19 382,19 382,19 382,19 383,19 383,20 384,20 384,20 384,20 384,20 384,19 385,20 385,20 385,20 385,20 385,20 385,20 385,20 385,20 385,20 386,21 386,21 386,21 386,21 386,21 386,21 387,22 387,22 387,22 388,22 388,22 388,22 389,23 389,24 390,24 390,24 390,24 390,24 390,24 391,24 391,25 391,25 391,25 391,25 392,26 392,26 391,26 391,26 391,27 393,29 393,29 393,29 394,29 396,31 396,31 395,31 395,32 395,32 395,32 395,32 396,33 396,33 396,33 396,33 396,33 397,33 397,33 397,33 397,34 398,34 398,34 398,34 398,35 398,35 397,35 397,36 397,36 398,36 398,36 398,36 398,37 398,37 399,37 399,37 399,37 399,37 399,37 400,37 400,37 400,37 401,38 401,38 401,38 402,38 403,38 404,39 404,39 405,39 405,39 405,39 405,39 406,39 406,39 406,39 406,39 406,40 406,40 407,40 407,41 407,41 407,41 409,41 410,42 411,42 411,42 411,42 411,42 412,42 412,42 412,42 413,42 413,42 413,42 413,42 414,42 415,43 415,43 415,43 415,43 415,43 416,43 417,43 417,42 418,42 419,42 420,42 421,41 422,41 422,41 423,41 423,41 423,41 423,41 424,41 424,41 424,41 424,41 424,41 425,42 425,42 425,42 425,42 426,42 426,42 426,42 426,42 427,42 427,42 427,42 427,42 428,42 428,42 428,42 428,42 429,42 430,43 430,43 430,43 430,43 430,44 430,44 428,47 429,47 430,47 431,47 432,47 434,47 434,47 435,47 435,47 439,47 442,46 444,46 446,46 447,46 447,46 447,46 447,46 447,46 448,46 449,46 450,46 450,47 450,47 451,47 452,47 454,48 456,49 456,49 456,49 457,49 457,49 457,49 457,50 457,50 458,50 458,51 460,52 460,52 458,53 453,56 453,56 453,56 452,56 450,56 450,56 449,56 448,55 447,55 445,55 444,55 444,55 441,55 439,55 439,55 439,55 437,55 436,55 435,55 435,55 434,55 432,56 432,56 431,56 430,57 430,57 430,57 430,57 428,57 426,58 426,58 426,58 425,58 425,58 424,58 424,58 424,58 424,58 424,58 423,59 423,59 423,59 423,60 423,61 423,61 423,61 423,61 423,62 424,62 424,62 424,62 424,61 425,62 427,62 430,63 430,63 430,65 429,66 429,66 429,67 429,67 429,67 430,67 430,67 430,67 429,67 429,67 429,67 431,69 431,69 432,69 432,69 435,71 435,71 435,71 435,71 437,71 437,71 437,71 438,72 438,72 438,72 438,72 438,73 438,73 439,73 439,73 439,73 440,74 440,74 441,74 441,74 441,74 441,74 441,74 442,75 443,74 443,74 443,74 443,74 443,74 444,73 444,73 444,72 445,71 445,71 446,70 447,70 447,69 447,69 448,69 449,69 453,69 453,69 453,69 453,69 454,69 454,69 454,69 454,69 455,69 455,69 455,69 456,69 457,69 457,68 457,68 457,68 458,67 458,67 458,67 459,67 459,67 460,67 460,67 460,67 460,67 461,67 462,67 462,67 462,67 463,67 463,67 463,67 463,67 464,67 465,68 465,68 465,68 465,68 466,68 466,68 467,68 467,68 470,69 470,69 470,69 471,69 471,69 472,69 472,69 472,69 473,69 473,69 474,69 474,70 474,70 475,70 475,70 475,71 476,71 477,71 477,71 477,71 478,72 478,72 479,71 479,71 481,71 481,71 480,73 480,73 480,74 480,76 480,76 480,76 480,77 480,77 480,79 480,80 480,81 481,83 481,83 481,83 481,84 481,84 481,85 481,85 481,85 481,85 481,86 481,86 481,86 481,87 481,88 481,89 481,90 481,91 481,91 481,92 482,92 482,92 482,93 482,93 483,93 483,93 483,93 484,93 484,93 484,93 484,93 484,94 484,94 485,94 485,94 485,95 486,95 487,95 488,96 488,96 489,96 490,96 490,96 491,97 491,97 492,97 493,97 493,98 494,98 494,98 495,98 496,99 497,99 497,99 498,99 498,100 499,100 500,100 500,100 500,101 499,102 498,102 498,102 498,103 498,103 498,104 497,104 497,104 497,105 497,106 497,106 497,106 497,106 496,106 496,107 495,108 495,108 495,108 494,108 494,109 494,109 493,109 493,109 493,109 492,109 492,110 490,111 490,111 490,111 489,112 489,111 488,111 488,111 488,111 488,111 488,111 488,111 487,111 487,110 486,110 486,110 486,110 485,110 484,110 483,110 482,110 481,110 480,110 479,110 478,110 478,110 477,110 477,109 477,109 478,108 478,108 478,107 478,107 476,107 475,107 475,107 474,107 474,107 474,106 473,106 473,106 473,105 473,105 472,105 472,105 472,104 471,104 471,104 470,103 470,103 470,103 469,103 469,103 469,102 469,102 468,102 468,102 467,103 466,103 466,103 465,103 465,103 464,103 464,103 463,103 463,104 462,104 461,104 460,104 459,104 458,104 457,105 456,105 456,105 455,105 454,105 453,106 452,106 452,106 451,106 450,106 449,106 449,106 448,106 447,106 447,106 446,107 446,107 446,107 445,107 445,107 444,107 444,107 443,107 443,107 443,107 442,107 442,108 442,108 442,108 441,108 441,108 441,108 440,108 439,108 439,108 438,108 437,108 437,108 437,108 436,108 434,109 434,109 434,109 432,109 432,109 430,110 429,110 429,110 429,110 428,110 428,110 427,110 427,110 427,110 426,110 426,112 426,114 426,114 426,116 424,116 423,116 423,116 422,117 422,117 421,117 420,117 420,117 419,117 416,116 416,116 416,116 416,116 416,116 415,116 415,116 415,116 413,116 412,116 412,116 412,116 411,116 410,117 409,117 409,117 409,117 409,117 409,119 408,118 405,118 402,117 401,117 400,117 400,117 396,117 396,117 395,117 393,117 393,117 391,119 391,119 391,119 392,119 393,119 394,119 394,119 394,119 395,120 396,120 396,120 396,120 396,122 397,122 397,122 397,122 398,123 399,124 399,124 400,125 400,125 400,125 401,125 402,126 403,126 403,127 404,128 404,128 404,128 404,131 404,131 404,131 403,131 403,131 401,131 400,130 399,130 399,130 398,131 397,132 396,133 396,133 395,133 395,133 394,132 394,132 393,132 393,132 392,132 392,132 391,132 391,132 391,132 390,132 390,133 389,133 389,133 388,133 388,133 388,133 388,134 388,134 388,134 388,134 387,134 387,134 387,134 386,134 386,134 386,134 386,134 386,134 385,135 385,135 385,135 385,136 385,137 385,137 386,137 386,137 386,138 385,139 385,139 384,140 383,140 384,141 384,141 384,141 383,142 383,142 383,142 383,142 383,142 383,143 382,144 383,144 382,145 383,145 383,145 384,146 384,146 384,146 385,146 386,147 386,147 386,147 387,147 387,147 387,147 388,148 388,148 388,148 389,148 389,148 390,149 391,149 391,149 392,150 392,150 392,150 392,150 392,151 392,151 392,151 392,151 392,151 393,151 393,151 394,152 394,152 395,152 395,153 395,153 396,153 396,153 396,153 399,153 399,154 400,154 401,154 402,154 403,155 403,155 403,155 403,155 403,155 403,155 404,155 405,155 406,156 406,156 407,156 407,156 406,159 406,159 402,159 401,159 401,159 401,159 401,159 400,159 399,159 399,159 398,160 397,159 397,159 397,160 396,160 395,160 395,160 394,160 394,160 393,160 392,160 392,160 391,160 390,159 389,159 388,160 388,160 388,161 388,161 387,162 387,162 387,162 387,162 386,162 386,162 386,162 386,163 386,163 386,164 385,165 385,165 384,165 384,166 384,166 384,166 385,166 386,167 387,167 387,167 388,168 388,168 388,168 388,169 388,170 388,170 388,170 389,172 389,173 389,173 389,173 389,173 389,173 389,173 388,174 388,174 387,174 387,174 387,175 386,175 385,175 385,175 384,176 384,176 384,176 383,176 383,176 383,176 382,177 381,177 380,177 380,177 380,178 380,178 380,178 380,178 380,178 380,178 380,178 379,178 379,178 379,178 378,178 378,178 377,178 377,178 376,178 376,178 375,178 375,178 375,178 375,178 374,178 374,178 374,178 373,178 371,177 370,177 369,177 367,177 366,177 363,176 358,176 358,176 357,176 356,176 355,176 355,176 355,176 355,176 354,175 354,175 354,175 354,175 354,175 353,175 353,175 352,175 350,175 349,175 349,175 348,175 348,173 348,173 347,173 347,174 347,174 347,174 347,174 347,174 347,173 346,173 346,173 346,173 345,173 345,173 345,173 345,173 345,172 345,172 343,172 343,172 343,171 343,171 342,171 341,171 340,171 340,171 339,171 339,171 337,171 337,170 337,170 337,170 336,170 336,170 336,170 335,170 334,170 334,170 333,170 332,170 331,170 331,170 331,170 331,170 331,170 330,170 329,170 328,170 328,170 328,170 328,170 327,170 327,170 324,170 324,170 324,170 323,170 320,170 320,170 320,170 320,171 320,171 319,171 319,172 319,172 319,172 319,172 319,172 319,173 319,173 319,174 319,174 319,174 319,175 318,175 318,175 318,175 318,176 318,176 317,177 317,177 317,178 317,178 317,179 317,179 317,180 317,180 317,180 317,181 317,181 316,182 316,182 314,182 314,182 313,182 313,182 312,183 312,184 312,184 311,184 311,186 310,186 310,186 310,186 310,186 310,187 309,187 309,187 309,188 308,189 308,189 308,189 308,189 307,190 307,191 307,191 307,191 307,191 307,191 308,192 308,192 308,192 308,192 308,192 308,193 308,193 308,193 308,193 307,193 307,193 306,193 306,193 305,193 305,193 305,193 304,193 303,192 303,192 303,192 303,192 303,192 303,192 302,192 301,191 301,191 301,191 300,191 300,190 299,190 299,190 299,190 299,190 298,190 298,190 298,190 298,190 298,190 298,190 298,190 297,190 297,190 297,190 296,189 296,189 296,189 295,189 295,189 295,189 295,189 295,188 294,188 294,188 294,188 294,188 294,188 293,188 292,188 292,188 291,188 291,188 291,188 290,188 290,188 289,188 289,188 289,188 288,188 288,188 288,188 288,188 287,188 287,189 287,189 287,189 286,189 286,189 285,189 285,189 285,189 285,189 285,189 285,189 284,189 284,189 284,189 283,188 282,189 282,189 282,189 282,189 282,189 281,189 281,189 281,189 281,189 280,189 280,189 280,189 279,189 279,189 278,189 278,189 278,189 277,189 277,189 277,189 276,189 276,189 275,189 274,189 273,189 273,188 273,188 273,188 272,188 271,188 271,187 271,187 270,187 270,187 269,186 269,186 266,185 266,185 266,185 265,185 265,185 264,185 264,185 264,185 264,185 263,185 263,185 263,184 262,184 262,184 262,184 262,184 262,184 262,184 262,183 262,183 262,183 262,183 262,183 262,183 262,183 261,183 261,182 261,182 261,182 260,182 260,182 259,182 258,181 258,180 258,180 258,180 257,179 256,179 255,178 255,178 255,178 254,177 254,177 254,177 254,177 253,176 253,176 253,176 253,176 253,175 253,175 253,175 252,174 252,173 251,173 251,173 250,172 250,172 250,172 250,172 249,172 249,172 249,172 249,172 248,172 247,171 246,171 246,171 246,170 245,170 245,170 245,170 245,169 244,169 243,168 243,168 243,168 243,168 243,167 243,167 242,165 242,165 241,164 241,164 241,164 241,164 240,164 240,164 240,164 240,165 239,165 239,165 238,166 237,166 235,168 235,168 235,169 234,169 234,169 234,170 233,170 233,170 232,171 232,171 232,171 232,171 231,172 230,172 230,173 229,173 229,174 228,174 228,174 227,174 227,175 226,175 226,175 225,175 225,176 225,177 223,179 223,179 223,179 223,180 222,181 222,182 222,182 221,183 221,184 221,184 221,184 220,184 220,184 220,185 219,185 219,185 219,185 218,185 216,186 215,186 214,187 214,187 212,187 212,187 212,188 211,188 211,188 211,188 211,188 211,188 210,188 210,187 209,187 209,186 208,185 208,185 208,185 208,184 207,184 207,184 205,183 205,183 205,182 205,182 204,181 204,181 202,180 201,179 200,178 199,178 199,178 199,177 199,177 199,177 198,175 198,175 197,175 197,174 197,173 196,173 196,172 196,172 196,172 195,172 193,171 193,170 192,170 192,170 191,169 191,169 191,168 190,168 190,168 190,168 184,171 183,172 177,176 177,176 177,176 176,176 176,176 175,176 165,177 164,177 156,178 156,178 156,178 156,178 155,179 155,179 153,182 153,182 152,182 152,182 152,183 151,183 151,183 151,183 150,184 150,185 149,185 149,185 148,185 148,186 148,186 148,186 148,186 147,188 146,189 146,190 146,190 146,191 146,191 145,191 145,191 145,192 145,192 145,192 145,193 145,193 144,194 144,195 144,195 144,197 144,197 144,197 144,198 145,198 145,198 144,199 144,199 144,199 143,200 143,200 143,200 143,200 144,201 144,201 144,201 144,201 144,201 143,202 143,202 143,202 143,202 143,202 142,201 141,201 141,201 140,201 140,201 139,201 139,202 138,202 138,202 138,202 138,202 138,203 138,203 138,203 137,204 136,204 135,205 133,206 132,207 132,207 128,213 128,213 128,214 127,214 124,217 121,219 120,220 120,220 118,220 117,220 116,220 115,220 113,220 113,220 112,219 112,219 112,219 111,221 110,222 110,223 110,223 109,224 107,223 106,223 106,223 105,223 100,220 94,218 94,218 85,214 84,214 72,208 72,208 71,208 69,207 69,207 69,207 69,207 68,208 67,208 67,208 65,207 64,207 62,206 61,206 61,206 60,205 59,205 59,205 58,205 56,204 55,204 54,203 54,204 54,204 54,204 53,204 53,204 52,204 52,204 52,204 51,204 50,204 50,204 49,204 49,203 48,203 48,203 47,202 46,202 46,202 46,202 45,202 45,202 45,202 45,202 45,202 43,202 43,202 42,202 42,202 41,202 41,202 41,202 41,202 41,201 41,201 41,200 40,200 40,200 40,199 40,199 40,200 40,200 40,200 39,200 39,200 38,200 38,200 36,200 35,199 35,199 35,199 34,199 34,199 34,198 34,198 33,198 33,198 33,197 32,197 32,197 31,197 31,197 31,197 30,197 29,197 29,196 29,196 29,196 29,196 29,196 27,196 25,197 25,197 25,197 22,198 22,198 22,198 21,198 19,199 19,199 18,199 18,199 18,199 17,200 15,201 15,201 15,201 13,201 12,201 12,202 11,202 10,202 6,202 5,201 5,201 5,189 3,188 3,188 3,188 4,188 2,187 2,187 1,187 1,187 1,187 0,187 0,186 0,186 0,186 0,186 0,186 0,186 0,186 0,186 1,186 2,186 2,186 2,186 3,186 4,186 4,186 4,186 5,185 5,185 5,185 4,185 4,184 4,184 3,184 3,184 3,183 3,183 3,183 4,183 4,183 4,183 5,182 6,182 6,182 6,182 6,181 7,181 7,181 7,181 8,181 9,180 9,180 9,180 10,180 11,181 11,181 12,178 12,178 10,178 10,178 11,175 11,175 11,175 11,174 12,170 12,170 12,169 12,168 12,168 12,167" id="1723" class="canton" fill="steelblue" stroke-width="1" stroke="white" geotype="canton" geoname="Surgères" code_insee="1723" code_departement="17" nom_departement="Charente-Maritime" code_region="75" nom_region="Nouvelle-Aquitaine"/></svg>