<?xml version="1.0" encoding="utf-8"?>
<svg version="1.1" id="svgmap" xmlns="http://www.w3.org/2000/svg" xmlns:xlink="http://www.w3.org/1999/xlink" x="0px" y="0px" width="100%" height="100%" viewBox="0 0 500 328">
<polygon points="500,206 500,206 499,206 498,207 497,207 497,207 497,207 496,207 496,207 495,207 494,207 493,207 493,207 493,207 492,207 492,207 492,207 491,207 491,207 491,207 491,207 491,207 490,207 490,207 490,207 490,208 490,208 490,208 490,208 490,208 490,208 489,208 488,208 488,208 488,208 487,208 487,208 487,208 486,208 486,208 486,208 485,209 484,209 483,209 483,209 482,209 481,209 481,209 480,209 480,209 479,209 479,209 478,209 478,209 475,207 475,207 475,207 475,206 475,206 475,206 474,206 474,206 474,206 473,207 473,208 473,208 472,209 472,209 472,210 472,210 471,211 471,211 471,211 471,211 471,212 470,212 470,212 470,212 470,213 470,213 470,213 470,213 470,213 469,213 469,213 469,213 469,213 469,213 467,211 462,207 461,207 460,206 459,205 459,205 458,205 457,205 457,205 456,206 456,206 456,206 455,206 455,207 454,207 454,207 454,208 454,208 454,209 454,210 453,211 453,212 453,212 452,213 452,213 452,214 451,214 451,215 450,215 448,218 447,218 444,220 444,219 444,219 441,221 440,222 440,222 440,223 440,224 440,224 436,228 434,230 433,231 431,233 423,242 423,242 422,242 421,244 421,244 420,246 419,246 419,246 416,245 414,245 413,244 413,244 413,246 413,246 413,246 413,247 413,247 413,248 412,250 412,250 411,250 411,250 410,250 410,250 409,250 409,250 408,251 403,255 403,255 400,258 399,258 398,259 398,259 397,258 396,259 395,259 394,260 394,260 394,260 393,260 393,261 391,262 391,262 390,263 389,263 389,263 388,263 388,264 387,265 387,265 386,266 386,267 386,267 385,267 385,268 384,268 383,268 383,268 382,269 382,270 382,270 382,270 382,271 381,271 381,271 381,272 380,272 380,272 379,272 379,272 378,272 376,272 375,272 375,272 375,272 375,272 374,273 370,274 370,274 369,274 369,274 368,274 367,274 366,274 365,274 362,274 361,274 361,274 360,276 360,277 359,277 359,277 358,277 358,277 358,278 358,279 358,279 358,280 358,280 359,281 359,281 359,281 359,282 360,282 361,283 361,283 360,284 360,284 360,284 359,286 358,287 358,287 357,289 357,289 356,291 355,292 355,293 355,294 355,294 355,295 354,296 354,297 354,297 353,298 352,297 352,297 351,296 351,295 350,295 350,295 350,295 350,295 350,295 349,295 349,296 347,298 347,298 347,298 346,298 345,300 345,300 346,300 345,301 345,301 344,302 344,302 344,302 343,304 343,304 343,304 342,305 342,305 341,306 341,306 342,306 343,307 343,307 342,308 342,308 341,309 341,310 341,310 340,310 340,311 339,312 338,312 338,312 337,312 336,312 336,313 336,313 336,313 334,313 334,314 334,314 333,314 333,315 332,315 331,316 331,317 330,317 330,317 329,317 328,317 328,317 327,318 327,318 326,319 326,319 325,320 325,320 325,321 324,321 324,321 324,322 324,322 324,323 324,323 324,323 324,323 324,323 323,323 322,323 321,323 321,324 321,324 321,324 321,324 321,325 321,326 321,326 321,326 320,326 320,327 319,327 319,327 318,328 318,328 317,328 316,328 315,327 313,327 313,326 311,326 310,326 310,325 309,325 308,325 307,324 305,324 305,323 305,323 304,323 305,322 305,321 306,320 306,320 307,320 307,320 307,320 307,320 308,320 308,319 308,319 307,319 307,318 306,318 306,318 305,317 305,317 304,317 304,317 304,317 303,317 302,317 302,317 302,318 302,318 302,318 302,318 302,318 302,318 302,318 301,319 301,319 301,319 300,320 300,320 300,320 299,320 300,321 300,321 299,322 298,321 298,321 297,321 297,321 296,321 296,321 296,321 295,321 295,321 294,321 294,321 294,321 293,321 293,321 293,321 293,321 293,321 293,321 292,321 292,321 292,321 292,321 292,321 292,321 292,321 292,321 292,321 292,321 292,321 292,321 292,321 292,321 292,321 291,321 291,321 291,321 291,321 291,321 290,321 290,321 290,321 290,321 290,320 289,320 289,320 289,320 289,320 289,320 288,320 288,320 288,320 288,320 288,320 288,320 288,320 287,320 287,319 287,319 287,319 286,319 286,319 286,319 286,319 286,319 286,319 286,319 286,319 286,319 286,319 286,318 286,318 286,318 286,318 286,318 286,318 286,317 285,317 285,317 285,316 285,316 285,316 285,316 284,316 284,315 284,315 284,315 283,315 283,314 282,313 281,312 280,312 280,312 280,311 280,311 279,311 278,310 276,310 276,310 276,310 276,310 276,310 276,310 276,310 276,310 276,310 276,310 276,310 275,310 275,310 275,310 275,310 275,310 274,310 274,310 274,310 274,310 274,310 274,310 274,310 274,310 273,310 273,310 273,310 273,310 274,310 274,310 274,310 274,310 275,311 275,311 275,311 275,311 275,311 275,311 275,311 275,311 275,311 275,311 275,311 275,311 274,311 274,311 274,311 274,311 273,311 273,311 273,311 273,312 272,312 272,312 272,312 272,312 272,312 272,312 272,312 272,312 272,312 271,312 271,312 271,312 271,312 271,312 270,312 270,312 269,312 269,312 269,312 268,312 268,312 268,312 268,312 268,312 267,312 267,312 267,311 267,311 267,311 266,311 266,311 265,311 264,311 264,311 264,310 264,310 264,310 263,310 263,310 263,310 263,310 262,310 262,309 262,309 261,309 260,308 260,308 261,307 261,307 261,307 260,307 260,307 260,307 259,307 259,307 258,308 257,308 257,308 256,308 256,308 255,308 255,308 254,308 254,308 253,308 253,308 252,308 252,308 251,308 251,308 250,308 250,307 250,307 249,307 250,307 250,306 249,306 249,306 249,306 249,305 248,305 248,304 248,305 246,304 246,303 245,303 244,302 243,302 243,302 242,302 241,301 240,301 238,300 237,299 236,299 235,299 234,298 234,298 233,298 233,298 232,297 232,297 232,297 232,297 232,297 233,297 233,296 232,296 233,296 233,296 233,296 233,295 233,295 233,295 233,295 232,295 232,295 232,295 232,295 232,295 232,295 232,294 232,294 232,294 232,293 231,293 231,293 230,293 229,292 229,292 228,291 227,291 226,290 224,289 222,288 221,287 220,287 219,286 218,285 217,285 217,285 215,284 214,283 213,283 212,282 211,281 210,281 209,281 209,280 207,280 206,279 205,278 204,277 204,277 203,276 203,276 202,276 200,275 199,274 199,274 199,274 198,273 196,272 195,271 192,269 190,268 189,267 188,267 188,267 187,266 184,264 182,263 180,262 177,259 175,259 173,257 169,255 167,254 167,254 165,253 161,250 159,250 159,250 157,250 156,251 154,251 152,252 152,252 152,252 151,252 151,252 150,251 149,251 148,250 145,249 144,249 143,248 143,248 142,248 142,248 142,248 142,248 142,247 142,247 139,246 139,246 138,246 138,246 138,246 138,246 138,246 137,245 137,245 136,246 136,246 137,245 136,245 135,244 134,244 132,243 132,243 131,243 130,242 130,242 130,242 129,243 129,243 130,242 130,242 130,242 130,242 130,242 129,242 128,241 128,241 128,241 128,241 127,242 127,242 127,242 127,242 127,242 127,242 127,242 127,242 127,242 128,241 128,241 128,241 128,241 128,241 127,240 126,239 125,239 124,238 123,238 123,238 123,238 123,238 123,238 122,238 122,238 122,238 122,238 122,238 122,238 122,238 122,238 122,238 122,238 123,239 123,239 123,239 123,239 124,239 124,239 124,239 124,240 124,240 125,240 125,240 125,241 125,241 125,241 124,241 124,241 124,241 124,240 124,240 124,240 124,240 124,240 123,239 123,239 123,239 123,239 123,239 122,239 122,238 122,238 122,238 122,238 122,238 122,238 122,238 122,238 122,237 122,237 122,237 121,237 121,237 121,237 121,237 121,237 121,237 121,237 120,237 120,237 120,237 120,237 119,236 119,236 119,236 119,236 119,236 118,236 118,235 117,235 116,235 116,234 115,234 115,234 115,234 115,234 115,234 115,234 115,234 115,234 115,234 115,234 115,234 115,234 116,234 116,234 116,234 117,234 117,235 118,235 118,235 118,235 118,235 118,235 118,235 118,235 118,235 119,235 119,235 119,235 119,235 119,235 119,235 119,235 119,235 119,235 119,234 119,234 119,234 119,234 119,234 119,234 119,234 118,234 118,233 118,233 118,233 118,233 118,233 118,233 118,233 117,233 117,232 117,232 116,232 116,232 116,232 116,232 116,232 116,232 115,232 115,232 115,232 115,232 114,231 114,231 114,231 114,231 113,231 113,231 113,231 113,231 112,231 112,231 112,232 111,232 111,232 111,232 111,232 111,232 111,232 111,232 112,232 112,233 112,233 113,233 113,233 113,233 113,233 114,233 114,233 114,233 114,233 114,233 114,233 114,234 114,234 114,234 114,234 114,234 114,234 113,234 113,234 113,233 113,233 113,233 112,233 112,233 111,233 111,233 111,232 110,232 110,232 109,232 109,232 109,232 109,232 109,232 109,232 109,232 109,232 109,231 109,231 109,231 109,231 109,231 109,231 109,231 109,231 109,231 109,231 109,231 108,231 108,230 108,230 108,230 108,230 108,230 107,230 107,230 107,229 106,229 106,229 106,229 105,229 105,228 105,228 104,228 104,228 104,228 103,228 103,227 103,227 102,227 102,227 102,227 101,226 101,226 100,225 100,225 100,225 101,225 101,225 101,225 101,225 101,225 101,225 102,225 102,225 102,225 102,225 102,224 102,224 102,225 102,225 101,225 101,225 101,225 101,225 101,224 100,224 100,224 100,224 100,224 99,224 99,224 98,224 97,224 97,224 97,224 97,224 97,224 97,224 96,224 96,224 96,224 96,224 96,223 96,223 96,223 96,223 97,223 97,223 97,223 97,223 97,223 97,223 97,223 97,223 97,223 97,223 97,223 97,223 96,223 96,222 95,222 94,221 94,221 93,221 92,220 92,220 91,219 91,219 90,219 89,219 89,218 88,218 88,218 87,218 86,218 86,218 85,218 85,218 85,218 84,218 84,218 82,218 81,217 81,217 80,217 80,217 80,217 80,216 80,216 80,216 80,216 80,215 79,215 79,215 78,215 78,215 78,215 77,215 76,214 74,214 74,214 73,214 72,214 72,213 72,213 72,213 72,213 72,213 73,213 73,213 73,213 74,213 75,213 75,213 75,213 75,213 75,213 74,213 74,213 74,213 73,212 73,212 73,212 72,212 72,212 72,212 72,212 72,212 72,212 72,212 73,212 73,212 73,212 73,212 74,212 74,212 74,212 74,212 75,212 75,212 75,212 75,212 76,213 76,213 76,213 77,213 77,213 77,213 78,213 78,213 78,213 79,213 79,213 80,213 80,213 80,213 81,213 81,213 82,213 83,214 84,214 84,213 84,213 84,213 83,213 83,213 83,213 82,212 82,212 81,212 80,212 80,211 79,211 78,211 77,211 77,210 76,210 76,211 76,210 75,210 75,210 74,210 74,210 73,210 72,210 72,210 71,210 71,209 70,209 70,209 69,209 69,209 68,209 68,209 68,209 67,209 67,209 67,209 66,209 66,209 66,209 65,209 64,209 64,208 63,208 62,208 62,208 61,208 60,208 60,208 59,208 57,208 56,208 56,208 55,208 54,208 52,208 51,209 50,209 49,209 48,209 47,209 46,210 46,210 45,210 44,210 42,211 40,211 39,211 37,212 36,212 35,212 34,212 34,212 33,213 32,213 30,213 29,214 28,214 28,214 27,214 27,214 27,214 26,214 26,215 26,215 26,215 26,215 26,215 26,215 27,215 27,216 27,216 27,217 27,217 27,218 26,219 26,219 24,220 24,221 23,221 23,221 22,221 22,222 23,222 24,223 24,224 24,225 25,225 25,225 25,226 25,226 26,226 26,226 26,227 26,227 26,227 26,227 26,228 27,228 27,228 26,229 27,229 27,230 27,230 28,231 29,232 29,232 30,233 31,234 31,235 31,235 31,235 31,236 31,236 31,236 31,236 31,236 31,236 31,236 32,236 32,237 32,238 32,238 32,238 32,238 32,238 33,238 33,238 33,239 33,239 33,239 33,239 33,239 33,239 33,239 33,239 33,240 33,240 33,240 33,240 33,240 33,240 33,240 33,240 33,240 33,240 33,240 33,240 33,240 33,240 34,240 34,240 34,240 34,240 34,240 34,241 34,241 34,241 35,241 35,242 35,242 35,242 36,242 36,243 37,243 37,244 37,244 37,244 37,244 38,244 38,244 38,244 38,244 38,245 38,245 38,245 39,245 39,245 39,246 40,246 40,246 40,246 40,247 40,247 40,246 40,246 40,246 40,247 40,246 41,246 41,247 41,247 40,247 40,247 41,247 41,247 42,247 43,247 43,247 44,247 45,247 45,247 46,247 46,247 47,247 47,247 47,247 48,246 48,246 49,246 49,246 50,247 51,247 52,247 52,248 52,248 51,248 51,249 51,250 50,250 50,250 49,251 48,251 48,252 49,252 49,253 50,253 50,253 50,253 50,254 51,254 51,254 52,254 52,254 53,254 54,254 55,254 55,254 56,254 56,253 56,253 57,253 57,253 57,254 58,254 58,254 58,254 58,255 58,255 57,255 57,256 57,256 58,256 58,256 59,256 60,256 60,256 60,256 60,256 61,256 61,256 62,256 62,255 63,255 64,255 66,255 68,255 68,255 69,255 70,255 71,255 73,255 73,255 75,254 77,254 78,254 79,254 79,254 80,254 80,254 80,255 80,254 80,254 80,254 79,254 79,254 79,254 80,254 80,253 82,252 85,252 85,252 86,252 87,252 87,252 88,252 90,252 92,251 93,249 94,248 95,248 95,248 96,248 96,248 97,248 97,247 98,247 98,247 98,246 98,246 98,246 98,246 99,246 101,246 102,246 102,246 103,246 104,247 105,247 107,247 108,248 110,248 111,248 112,249 113,248 112,250 111,250 109,250 108,249 104,250 101,250 99,250 97,251 94,252 92,253 89,254 87,254 85,255 82,256 78,257 75,257 72,258 68,258 62,259 58,260 54,260 50,260 46,259 39,257 36,256 32,254 29,253 27,252 26,250 24,248 24,246 23,246 22,243 21,241 20,238 18,235 18,233 17,229 16,225 16,224 16,223 16,222 16,220 15,218 15,217 14,215 12,212 12,208 12,207 12,202 11,198 10,194 10,194 10,191 11,187 9,183 8,180 8,176 8,173 8,169 7,166 6,162 6,158 6,155 6,154 6,152 6,150 6,148 5,144 5,143 5,141 5,140 5,137 5,134 5,130 4,127 4,123 4,120 4,116 3,113 3,109 2,105 2,102 2,98 1,95 1,91 0,88 0,77 0,70 1,66 2,59 4,53 4,52 4,52 5,47 5,45 7,38 8,32 10,32 13,30 17,28 18,28 19,27 21,26 21,26 23,26 24,26 26,26 29,25 35,24 39,24 42,23 44,23 46,22 47,21 49,21 51,20 53,20 55,20 57,19 58,19 60,19 63,21 64,20 65,20 66,19 66,19 68,18 68,18 70,17 72,17 73,17 77,18 79,18 79,18 80,18 80,18 80,18 80,18 81,19 84,19 84,19 86,20 85,24 90,25 92,26 95,26 98,26 100,26 105,26 110,24 112,24 115,22 120,20 123,19 124,19 125,18 128,18 128,18 129,18 129,18 129,18 129,18 130,18 130,18 130,18 131,18 131,18 131,18 131,18 132,18 132,18 134,17 136,17 136,17 137,16 137,16 138,16 138,15 139,15 139,15 139,15 140,14 140,14 140,14 140,14 140,14 142,13 142,13 142,12 143,12 143,12 144,11 144,11 144,11 144,11 144,11 144,11 144,11 145,10 146,9 147,9 148,8 148,8 148,8 149,8 149,7 150,7 150,7 150,7 150,7 151,7 151,7 153,6 153,6 153,5 154,5 154,5 154,5 154,5 154,5 154,5 154,5 155,5 155,5 156,4 156,5 156,5 156,5 157,5 157,5 157,4 158,4 159,4 160,3 160,3 160,3 160,3 161,3 162,3 162,2 163,2 163,2 164,2 164,2 166,1 168,1 168,0 171,0 171,0 171,1 171,1 171,1 171,1 171,1 171,2 172,2 172,2 172,2 172,3 173,3 173,3 175,4 176,5 176,5 176,5 177,6 178,6 182,7 182,7 182,7 182,8 183,8 183,9 183,9 183,9 183,9 183,9 183,9 183,9 183,10 183,10 183,10 184,10 184,10 185,10 186,10 186,10 187,10 187,11 188,11 188,11 189,11 190,11 190,11 191,11 191,11 193,11 195,11 195,11 196,11 197,11 197,11 198,11 198,11 198,11 198,11 198,11 198,11 199,11 199,12 200,12 200,12 200,12 200,12 200,12 200,12 200,12 200,12 200,13 200,13 200,13 200,13 201,13 201,13 201,13 201,13 201,14 202,14 202,14 202,14 202,14 202,14 202,14 202,14 202,14 202,15 202,15 202,15 202,15 202,15 203,15 203,16 203,16 203,17 203,17 203,18 203,18 204,18 204,18 204,18 204,18 204,18 204,18 206,18 208,20 210,22 212,23 213,24 217,25 216,26 218,29 218,29 218,29 220,31 221,31 221,31 222,32 223,32 224,33 226,34 226,34 227,35 227,35 227,35 227,36 229,37 230,38 231,39 232,39 233,40 233,40 233,40 236,39 239,41 241,43 242,44 248,48 251,50 253,51 256,54 264,60 268,64 267,65 270,66 275,69 279,72 284,74 291,78 293,78 302,82 306,83 320,87 320,89 320,89 328,93 331,95 339,98 343,100 346,102 346,102 356,109 363,114 371,120 375,122 382,128 384,130 384,130 385,130 385,130 386,130 386,131 387,131 388,132 389,132 390,133 391,133 392,135 392,135 392,135 392,135 393,135 393,136 394,136 394,136 394,137 395,137 395,137 396,137 396,137 396,138 396,138 397,138 397,138 397,139 398,139 398,139 398,140 398,140 399,140 399,140 399,140 399,141 400,141 401,142 401,142 402,142 401,142 402,143 402,143 402,143 402,143 402,143 403,144 403,144 403,144 404,145 404,145 405,145 405,146 405,146 405,146 406,147 406,147 406,147 407,148 407,148 408,149 409,150 411,151 411,152 412,152 413,152 412,153 412,153 412,153 412,154 412,154 412,154 413,154 413,154 413,154 413,154 413,154 413,154 413,154 413,154 413,154 413,154 413,154 414,154 414,154 414,154 414,155 414,155 414,155 414,155 414,155 415,155 415,155 415,155 416,156 418,156 419,157 421,157 422,158 423,159 423,160 424,159 424,159 425,159 426,160 427,160 428,160 431,162 432,162 433,162 432,163 432,164 434,163 435,163 437,164 438,165 439,165 441,166 441,166 442,166 444,167 445,168 447,170 447,170 448,170 448,169 449,170 451,170 453,171 454,171 456,172 458,172 458,173 460,173 460,173 460,173 462,174 462,175 463,175 464,175 465,176 465,176 465,176 465,176 465,176 465,176 465,176 465,176 465,176 466,177 467,179 468,180 468,180 469,182 470,182 471,183 471,183 473,184 474,185 476,186 478,186 479,187 480,187 481,188 481,189 482,190 483,191 484,192 484,192 484,192 484,192 484,192 485,193 485,193 485,193 486,194 486,194 487,194 487,194 487,195 488,195 488,195 488,195 488,195 488,195 488,195 488,195 488,195 489,195 489,196 489,196 489,196 489,196 489,196 489,196 490,196 490,196 490,197 490,197 490,197 490,197 490,197 490,197 490,197 490,197 490,197 490,197 490,197 490,197 490,197 490,198 491,198 490,199 490,199 490,199 490,200 490,200 490,200 490,200 490,200 490,201 490,201 490,201 490,201 490,201 490,201 490,201 490,201 490,201 490,201 490,201 490,201 490,201 490,201 490,201 490,201 490,202 490,202 490,202 491,202 491,202 491,202 491,202 491,202 491,202 491,202 491,202 491,202 491,202 490,202 490,202 490,202 490,202 490,203 490,203 490,203 490,203 490,203 490,203 490,203 490,203 490,203 490,203 490,203 490,203 490,203 490,203 490,203 490,202 490,202 491,202 491,202 491,202 491,202 491,202 491,202 491,202 491,203 491,203 491,203 491,203 491,203 491,203 491,203 491,203 491,203 491,203 491,203 492,203 492,203 492,204 492,204 492,204 493,204 493,204 493,204 493,204 493,204 494,204 494,204 494,205 494,205 494,205 494,205 494,205 495,205 495,205 495,205 495,205 495,205 495,205 495,205 496,205 496,205 496,205 497,205 497,205 497,205 497,205 498,205 498,205 498,205 498,205 498,205 498,205 499,205 499,205 499,205 499,205 499,205 499,205 499,205 499,205 499,205 500,206 500,206 500,206 500,206 500,206 500,206 500,206" id="1726" class="canton" fill="steelblue" stroke-width="1" stroke="white" geotype="canton" geoname="Tremblade" code_insee="1726" code_departement="17" nom_departement="Charente-Maritime" code_region="75" nom_region="Nouvelle-Aquitaine"/><polygon points="284,319 284,319 285,319 285,319 285,319 285,319 285,319 285,319 285,319 285,319 285,319 285,319 285,319 285,319 285,319 285,319 285,319 285,319 285,319 285,319 285,319 285,319 285,319 285,319 286,319 286,319 286,319 286,319 286,319 286,319 286,320 286,320 286,320 286,320 286,320 286,320 286,320 286,320 286,320 286,320 286,320 286,320 286,320 286,320 286,320 286,320 286,320 286,320 286,320 286,320 286,320 286,320 286,320 286,320 286,320 286,320 286,320 286,320 286,320 286,320 286,320 286,320 285,320 285,320 285,320 285,320 285,320 285,320 285,320 285,320 285,320 285,320 285,320 285,320 285,320 285,320 285,320 285,320 285,320 284,320 284,320 284,320 284,320 284,319 284,319 284,319" id="1726" class="canton" fill="steelblue" stroke-width="1" stroke="white" geotype="canton" geoname="Tremblade" code_insee="1726" code_departement="17" nom_departement="Charente-Maritime" code_region="75" nom_region="Nouvelle-Aquitaine"/><polygon points="285,320 285,320 285,320 285,320 285,320 285,320 285,320 285,320 285,320 285,320 285,320 285,320 285,320 285,320 285,320 285,320" id="1726" class="canton" fill="steelblue" stroke-width="1" stroke="white" geotype="canton" geoname="Tremblade" code_insee="1726" code_departement="17" nom_departement="Charente-Maritime" code_region="75" nom_region="Nouvelle-Aquitaine"/><polygon points="283,320 283,320 283,320 283,320 283,320 283,320 283,320 283,320 283,320 283,320 283,320 283,320 283,320 283,320 283,319 283,319 283,320 284,319 284,319 284,319 284,319 284,319 284,319 284,319 284,319 284,319 284,319 284,319 284,319 284,319 284,319 284,319 284,319 284,319 284,319 284,319 284,319 284,319 284,320 284,320 284,320 284,320 284,320 284,320 284,320 284,320 284,320 284,320 284,320 284,320 284,320 284,320 284,320 284,320 284,320 284,320 284,320 284,320 284,320 284,320 284,320 284,320 284,320 284,320 284,320 284,320 284,320 284,320 284,320 284,320 284,320 283,320 283,320 283,320 283,320 283,320 283,320 283,320" id="1726" class="canton" fill="steelblue" stroke-width="1" stroke="white" geotype="canton" geoname="Tremblade" code_insee="1726" code_departement="17" nom_departement="Charente-Maritime" code_region="75" nom_region="Nouvelle-Aquitaine"/><polygon points="287,320 287,320 287,320 287,320 287,320 287,320 287,320 287,320 287,320 288,320 288,320 288,320 287,320 287,320 287,320 287,320 287,320 287,320 287,320 287,320 287,320 287,320" id="1726" class="canton" fill="steelblue" stroke-width="1" stroke="white" geotype="canton" geoname="Tremblade" code_insee="1726" code_departement="17" nom_departement="Charente-Maritime" code_region="75" nom_region="Nouvelle-Aquitaine"/><polygon points="283,320 283,320 283,320 283,320 283,320 283,320 283,320 283,320 283,320 283,320 283,320 283,320" id="1726" class="canton" fill="steelblue" stroke-width="1" stroke="white" geotype="canton" geoname="Tremblade" code_insee="1726" code_departement="17" nom_departement="Charente-Maritime" code_region="75" nom_region="Nouvelle-Aquitaine"/></svg>