<?xml version="1.0" encoding="utf-8"?>
<svg version="1.1" id="svgmap" xmlns="http://www.w3.org/2000/svg" xmlns:xlink="http://www.w3.org/1999/xlink" x="0px" y="0px" width="100%" height="100%" viewBox="0 0 500 341">
<polygon points="0,157 4,155 4,155 4,155 5,155 5,155 5,155 8,155 9,155 9,155 10,155 10,155 11,154 11,154 11,154 12,153 12,153 12,153 12,152 12,152 13,151 13,151 14,151 15,150 15,150 16,150 16,149 16,149 17,148 17,147 18,146 19,146 19,146 19,146 20,146 21,145 21,144 23,143 23,143 24,143 24,143 25,142 26,142 26,142 27,141 28,142 28,142 30,141 30,140 34,138 33,138 38,133 39,133 39,133 40,132 41,132 41,133 42,132 42,132 42,132 43,130 43,130 44,129 44,129 44,128 43,128 43,127 44,127 45,127 46,128 49,128 50,129 51,129 52,127 52,126 53,125 53,124 53,124 62,115 64,113 65,112 67,110 71,106 71,106 71,105 71,104 71,104 72,103 75,101 75,101 76,102 78,100 79,99 82,97 82,97 82,96 83,95 83,95 83,95 84,94 84,93 85,93 85,92 85,91 85,90 85,89 85,89 85,89 86,88 87,88 87,88 87,88 87,88 88,87 88,87 89,87 90,87 90,87 92,88 93,88 93,89 98,93 100,94 100,94 101,94 101,95 101,95 101,95 101,95 101,94 101,95 102,94 101,94 102,94 102,94 102,94 103,93 103,93 103,93 103,93 103,92 103,92 104,91 104,91 104,90 104,89 105,89 105,88 105,88 106,88 106,88 106,88 106,88 106,89 107,89 107,89 109,90 110,91 110,91 111,91 111,91 112,91 112,91 113,91 114,91 114,91 115,91 116,91 117,90 118,90 118,90 118,90 118,90 119,90 119,90 120,90 120,90 120,90 121,90 122,90 122,90 122,90 122,89 122,89 122,89 122,89 122,89 122,89 123,89 123,89 123,89 123,89 123,89 123,89 124,89 124,89 125,89 125,89 125,89 126,89 127,89 128,89 128,89 129,89 129,89 129,89 130,89 131,88 132,88 132,88 132,88 132,88 132,88 132,88 132,88 132,88 132,89 133,89 133,89 133,89 133,90 134,90 134,90 134,90 135,90 135,90 135,90 135,90 135,90 134,89 134,89 133,88 133,88 133,87 133,87 132,87 132,86 131,86 131,85 130,85 128,85 127,85 126,85 126,85 125,85 125,84 125,84 124,84 124,83 124,83 124,82 124,81 124,80 124,80 124,79 125,79 125,79 125,79 126,79 126,79 126,79 126,79 126,79 125,79 125,79 125,79 125,79 125,78 125,78 125,78 125,78 124,78 124,78 123,78 123,77 121,76 121,75 120,75 120,75 119,74 119,74 119,74 118,74 118,73 117,73 117,72 116,71 116,71 115,70 115,70 115,70 115,70 114,68 113,68 113,68 113,67 111,67 111,66 110,66 109,66 107,65 106,64 105,63 104,63 104,62 103,62 102,60 102,60 101,59 102,58 102,58 104,58 106,58 109,58 110,58 115,58 126,59 132,58 135,58 137,57 139,57 141,58 142,58 144,58 148,59 148,60 148,60 148,60 148,60 148,60 148,60 148,60 149,59 153,60 155,60 156,60 156,60 157,61 157,61 157,61 158,62 158,62 158,62 158,62 158,63 158,63 157,63 156,65 156,66 156,66 156,66 157,64 158,63 158,63 159,63 159,63 159,63 160,64 161,65 162,65 163,66 164,66 163,67 163,67 163,67 164,67 164,67 164,67 164,66 165,66 169,67 171,67 172,68 174,69 176,70 177,71 178,72 179,73 180,73 180,74 183,74 184,75 185,75 185,77 185,77 184,78 183,78 183,79 183,79 182,79 182,80 182,80 181,80 181,80 181,81 181,81 181,82 182,82 183,84 184,85 184,85 185,86 186,87 187,88 187,88 188,90 188,91 189,91 189,91 190,92 191,93 192,93 192,93 192,93 193,92 193,91 194,91 194,90 194,90 194,90 195,90 195,89 196,89 197,89 197,89 197,89 199,90 200,90 201,90 201,90 202,91 202,91 202,92 202,92 203,93 203,93 203,93 203,94 203,94 203,95 203,95 203,95 204,96 204,96 205,96 205,96 206,96 206,97 206,97 215,92 215,91 215,91 215,91 215,89 215,88 214,88 214,87 214,87 215,87 215,87 216,86 216,86 216,86 217,86 218,86 218,86 218,86 219,86 219,87 221,88 221,88 221,89 221,89 221,89 221,89 221,90 221,90 222,89 222,89 222,89 223,90 225,91 225,91 226,91 226,91 226,92 226,92 227,92 228,93 228,93 228,94 229,94 229,94 229,94 229,94 229,94 229,95 229,95 229,95 229,95 229,95 230,95 230,95 230,95 231,95 232,95 233,95 233,95 234,95 234,95 234,95 236,96 236,96 237,97 237,97 237,97 237,96 238,96 238,95 239,94 240,94 241,93 242,92 242,92 243,92 244,91 245,91 245,91 245,91 246,91 246,92 246,92 246,92 247,93 247,93 247,94 248,94 248,95 248,95 248,96 248,96 249,97 249,97 249,98 250,98 250,98 250,98 251,98 251,98 252,97 252,97 252,97 253,97 253,96 254,96 254,96 255,95 255,95 256,95 256,95 257,95 257,94 258,93 258,93 264,87 264,87 264,86 264,86 264,84 263,82 263,80 263,80 263,79 262,79 261,77 261,76 261,75 260,72 259,68 258,67 258,65 257,64 255,58 255,57 254,57 253,56 252,56 252,56 251,55 251,55 250,54 249,54 248,53 246,52 245,52 244,51 243,50 242,50 240,49 240,48 239,48 238,48 238,47 237,46 237,46 237,45 237,45 237,45 238,44 238,44 238,44 239,44 239,43 240,43 241,42 243,40 244,38 244,37 245,36 245,36 244,35 244,34 244,34 245,35 246,35 247,36 247,36 248,37 247,37 248,37 248,37 249,38 249,38 249,38 249,38 250,39 250,39 250,39 251,39 251,39 251,39 251,39 252,39 252,39 252,39 252,40 252,40 252,40 253,40 254,41 254,41 254,41 254,41 255,41 255,41 255,41 255,41 255,42 256,42 256,42 256,42 257,42 258,42 258,43 259,43 260,43 260,43 260,42 260,42 261,42 261,42 261,42 262,42 262,41 262,41 263,41 263,40 263,40 263,40 263,39 264,39 264,39 264,38 265,38 265,38 265,38 266,38 267,38 268,38 270,37 270,37 271,37 271,37 272,36 273,36 273,36 273,35 274,35 274,35 275,34 275,34 275,34 276,33 276,33 276,33 277,32 277,32 278,31 278,31 279,31 279,30 279,29 279,29 280,29 280,28 280,28 281,28 282,27 282,27 283,26 283,26 283,26 283,26 284,26 285,26 285,26 286,26 286,26 287,26 288,26 289,26 290,25 292,25 292,25 292,25 293,25 294,25 294,25 294,25 295,25 297,25 297,25 297,25 297,24 297,24 298,23 299,23 300,23 301,23 301,23 302,23 303,23 303,22 303,22 304,22 305,22 305,21 305,21 306,20 306,20 307,19 307,19 308,18 309,18 309,18 309,18 309,17 310,17 310,17 311,17 312,17 312,16 313,16 313,16 313,16 314,16 314,16 315,16 315,17 316,17 317,17 317,17 318,17 318,17 319,17 319,17 320,17 321,17 322,17 322,17 323,16 323,16 324,16 324,16 326,16 326,16 327,16 327,16 328,15 328,15 328,14 328,14 328,13 328,13 328,13 328,13 328,13 329,13 329,12 329,12 329,12 330,12 330,11 331,11 331,11 331,11 332,10 332,10 332,10 332,10 333,10 333,10 333,10 333,10 334,10 334,10 334,10 335,10 336,9 337,9 337,9 338,9 339,9 339,9 340,8 340,8 341,7 341,7 341,7 341,7 341,6 341,6 341,6 341,6 341,5 341,5 341,5 341,5 341,4 341,4 341,4 342,4 342,3 342,3 342,3 342,3 342,2 342,2 342,2 342,1 343,1 343,1 343,0 343,0 343,0 343,0 344,0 344,0 344,1 345,1 346,1 346,1 347,2 348,2 348,2 348,2 349,2 349,2 350,2 349,1 349,0 350,0 352,0 353,1 355,1 356,1 359,2 361,2 362,2 362,2 364,3 364,3 365,3 365,3 367,3 369,3 369,4 369,4 370,4 371,4 371,4 372,4 375,4 375,4 377,4 378,4 378,4 379,4 380,5 381,5 383,6 384,6 384,7 387,8 387,9 388,9 388,9 389,10 389,10 390,11 391,12 391,12 392,12 394,13 394,14 394,14 396,15 398,17 401,18 402,19 402,19 404,20 404,20 404,20 405,21 406,22 406,22 407,23 407,23 408,25 408,25 410,27 411,27 411,27 415,25 417,25 417,24 417,24 419,24 419,24 421,24 424,23 425,23 427,22 427,23 427,23 427,23 427,24 427,25 426,26 426,26 426,27 426,27 426,28 426,28 426,29 426,29 427,29 429,31 429,31 430,32 431,32 434,35 434,35 437,33 438,33 439,33 439,32 440,32 441,32 442,32 442,32 442,32 446,33 446,33 449,33 449,33 450,34 450,34 451,34 452,35 452,35 456,37 456,37 456,37 453,39 452,39 452,39 450,40 450,40 448,41 448,41 448,41 442,44 441,44 441,44 441,44 441,45 440,47 440,47 440,47 439,48 439,50 438,51 438,51 438,52 438,52 442,53 442,53 444,54 444,54 448,55 448,55 448,56 448,58 448,58 451,58 451,58 451,58 452,58 452,58 452,59 452,59 453,61 453,62 453,65 453,65 453,66 453,66 453,66 454,67 454,67 454,67 454,67 454,68 454,68 455,68 455,70 455,70 456,70 456,70 458,71 461,71 464,72 465,72 469,73 470,74 470,74 471,74 472,74 472,74 476,75 479,76 482,77 483,77 484,77 488,78 487,79 487,80 486,81 486,81 486,82 485,85 485,86 485,86 485,87 484,89 484,89 483,89 484,89 484,90 484,90 486,91 486,91 487,91 487,91 490,92 490,93 490,94 490,95 490,95 490,95 490,96 491,97 492,99 492,99 492,100 492,100 493,100 493,101 493,101 494,102 496,102 496,103 498,103 500,103 499,106 498,106 497,107 497,108 497,108 497,108 497,108 497,108 497,109 497,109 496,110 496,111 495,112 495,112 495,113 494,114 493,115 492,116 492,116 492,118 492,124 494,124 493,125 493,126 492,126 492,127 492,128 492,128 492,128 492,128 492,129 492,129 492,129 492,129 492,129 491,129 491,129 488,130 487,131 486,131 485,132 480,132 479,132 479,132 479,133 479,133 479,133 479,134 479,134 479,136 479,138 479,138 475,137 475,137 474,137 473,136 471,137 470,136 469,136 464,136 463,136 462,136 458,136 458,136 458,136 460,134 460,134 458,133 458,133 457,133 454,131 454,131 453,132 453,132 452,131 449,131 449,130 449,130 450,129 448,129 448,128 445,127 443,127 442,127 442,127 441,126 441,127 441,127 440,128 440,128 440,128 441,130 441,130 440,130 439,130 438,131 436,131 436,131 434,132 434,132 434,132 431,132 430,132 429,132 428,132 427,133 427,133 426,132 426,132 426,133 426,133 425,133 425,133 422,135 420,135 420,135 419,135 418,137 417,138 417,140 414,139 413,139 413,139 412,138 410,138 410,138 410,138 408,139 408,139 408,140 408,140 408,140 407,141 406,141 406,141 405,141 404,141 404,142 403,142 402,142 402,142 401,141 401,141 400,141 399,140 399,140 399,140 398,141 397,141 397,141 396,141 395,142 393,143 393,143 393,143 392,142 392,142 391,142 391,142 391,142 390,142 390,142 389,142 388,144 387,144 385,145 385,145 383,145 381,146 381,146 381,147 381,147 381,147 381,147 381,147 381,150 381,150 380,151 380,151 381,152 382,152 382,152 380,154 379,155 378,156 378,156 375,156 375,156 373,156 370,156 369,157 369,157 369,157 370,157 370,157 368,160 368,160 370,161 366,164 365,164 366,164 366,164 366,164 362,169 363,169 362,170 362,170 361,171 361,171 361,172 360,172 360,172 360,172 360,172 360,172 361,173 361,173 362,173 363,174 365,174 365,174 366,174 367,174 368,175 369,175 370,175 374,175 374,175 379,176 380,176 384,176 388,176 388,176 392,178 394,178 394,178 396,180 397,181 398,181 399,183 399,183 399,184 400,185 400,185 400,186 400,188 400,188 400,189 401,189 401,190 401,190 402,191 402,191 403,192 403,192 404,192 404,192 405,192 405,192 406,192 406,193 407,193 407,193 408,193 409,193 409,193 410,194 410,195 411,196 412,197 413,197 413,198 414,199 414,200 414,200 416,201 416,201 416,201 416,203 416,203 416,204 417,204 417,204 417,205 417,205 417,205 417,205 418,205 418,205 418,205 418,205 418,205 418,205 418,205 419,205 421,205 422,206 424,206 425,206 426,206 427,206 428,206 430,206 431,206 432,206 433,206 435,206 436,206 436,206 436,206 437,206 437,206 437,207 438,207 438,207 439,207 440,207 440,207 441,208 443,208 443,208 443,209 443,209 443,209 443,209 443,209 443,210 443,210 443,210 443,211 442,211 442,211 442,213 441,213 441,213 441,214 439,215 439,215 439,215 442,217 442,217 443,217 444,218 444,218 445,218 446,219 446,219 449,219 449,219 450,219 450,218 450,219 454,220 458,222 460,223 458,223 458,224 457,224 456,224 455,224 454,224 458,226 459,227 460,227 461,228 461,228 461,229 462,230 462,232 462,232 461,234 461,235 461,236 460,238 460,238 460,240 459,241 458,242 458,242 458,243 457,243 457,243 456,243 456,243 455,242 455,242 455,241 454,241 453,240 453,240 451,239 451,239 450,238 450,238 449,238 448,237 448,237 447,236 446,236 445,236 444,235 443,236 442,237 441,238 441,238 440,239 440,240 440,240 439,241 439,241 438,242 438,242 438,243 438,243 438,243 437,243 437,243 437,243 436,244 436,245 436,245 435,246 435,247 435,247 435,248 435,248 434,249 434,250 432,252 432,252 432,253 432,254 432,255 431,256 430,257 430,258 430,258 430,258 427,258 425,257 425,257 424,257 421,256 421,256 420,256 417,255 415,255 413,254 412,254 412,254 411,254 409,253 408,253 407,253 406,253 406,253 404,252 402,252 402,252 402,252 400,250 399,249 398,249 398,250 398,250 397,253 397,253 396,258 396,258 393,257 393,257 390,257 388,256 386,255 383,254 382,254 381,254 381,254 379,253 379,253 379,253 378,253 377,254 377,254 375,256 374,257 373,258 373,258 373,258 372,259 372,259 370,260 369,260 369,261 369,262 368,263 367,264 367,265 366,266 366,266 366,267 364,269 364,269 364,269 364,269 364,269 364,269 364,270 364,270 364,270 362,273 361,274 361,274 358,277 358,277 357,278 357,278 356,279 355,280 354,282 353,283 352,284 351,285 351,285 349,287 349,288 349,288 349,288 348,289 348,289 347,290 347,290 347,292 346,292 345,294 345,294 345,295 344,295 344,295 348,296 342,304 342,304 343,305 343,305 345,306 346,306 347,306 347,306 348,307 348,307 351,309 352,309 353,310 353,310 355,308 356,308 358,309 360,310 363,311 362,311 362,311 362,311 360,315 360,315 358,316 357,316 358,316 358,317 360,318 361,319 361,319 362,320 364,322 363,322 363,322 362,322 361,322 358,322 358,322 357,323 356,323 356,323 355,323 354,323 353,323 352,324 352,323 351,323 347,325 346,325 345,326 344,326 344,326 343,327 343,327 342,327 341,328 340,328 339,330 339,330 338,330 338,330 336,331 335,331 334,332 333,332 332,332 332,333 332,333 331,333 331,333 331,333 331,333 331,333 331,333 331,333 330,333 330,333 330,333 330,333 329,333 329,333 329,333 328,333 328,333 327,333 325,334 325,334 325,334 325,334 325,335 325,335 324,335 323,335 322,336 322,336 322,335 322,335 317,336 317,336 317,336 317,336 317,336 317,336 317,336 317,337 317,337 317,337 316,337 316,337 315,337 315,337 314,337 314,337 314,337 313,337 313,337 311,337 311,337 310,337 309,337 309,337 309,337 310,336 310,336 310,336 309,336 308,336 308,336 307,336 307,336 306,336 305,336 305,336 305,336 303,336 303,336 302,336 302,336 301,336 299,336 299,336 298,337 298,337 297,337 295,337 295,337 294,337 294,338 294,338 294,338 292,340 292,341 292,341 292,341 291,341 290,341 289,340 289,340 287,339 287,339 286,338 286,338 285,338 285,338 284,337 282,336 281,335 280,334 280,334 279,333 278,333 278,333 277,332 276,332 276,331 275,331 275,331 275,331 275,330 275,330 275,329 275,329 274,329 274,328 273,328 272,327 272,327 272,327 271,326 271,326 270,326 270,326 270,325 269,325 269,325 267,324 266,324 265,323 265,323 263,322 262,322 262,321 262,321 261,320 260,320 260,320 261,318 261,318 261,318 259,317 259,317 255,315 252,313 252,313 252,313 248,310 247,310 246,310 245,309 245,309 244,309 244,309 244,309 243,309 242,308 242,308 240,308 240,308 238,309 238,309 238,309 237,310 232,307 231,308 231,308 226,306 223,305 222,306 221,308 221,308 215,305 215,305 212,304 210,303 210,303 208,302 206,301 206,301 205,301 205,302 203,303 203,303 202,303 202,304 202,304 197,302 197,302 196,302 196,302 195,302 195,302 195,302 189,300 189,300 189,289 189,289 190,282 190,280 190,278 191,277 191,276 190,275 191,273 191,273 192,273 192,273 192,273 195,273 195,273 195,272 196,272 197,272 197,271 197,271 198,271 198,270 198,269 198,269 199,269 199,268 199,268 199,268 199,268 200,268 200,267 203,267 203,267 203,266 203,266 204,266 206,263 206,262 206,262 206,262 207,261 207,261 208,260 208,260 210,258 210,258 210,257 211,257 212,256 214,254 215,253 202,245 201,244 203,242 203,242 194,238 194,237 193,237 192,237 192,237 191,237 191,238 190,238 190,238 189,238 188,238 187,238 186,239 185,239 184,239 184,239 183,240 183,239 182,239 181,239 180,239 179,240 178,240 178,240 178,240 177,240 177,241 177,241 177,241 177,242 176,242 176,243 176,243 174,243 173,242 170,242 170,242 170,242 170,242 167,242 166,242 166,242 166,239 166,238 166,238 168,233 168,233 167,233 166,233 164,233 164,233 162,233 162,233 161,233 159,232 157,232 153,232 152,232 151,232 149,232 148,232 148,232 143,230 143,230 142,230 140,230 140,230 139,230 137,230 135,230 134,229 133,229 131,229 131,229 132,228 133,227 133,227 133,226 133,226 134,225 134,224 136,223 139,221 140,220 141,220 141,220 142,220 142,220 142,220 143,219 150,218 150,218 150,217 150,217 150,217 149,216 149,216 148,216 144,215 144,215 144,215 143,215 142,215 142,214 141,214 140,213 140,213 140,212 139,212 138,211 138,211 137,212 135,210 135,209 131,209 131,209 130,210 129,210 127,211 126,211 126,211 126,211 125,211 125,211 124,211 124,211 123,211 122,210 122,210 121,210 121,210 121,209 119,209 118,209 117,209 118,208 118,208 117,208 117,208 115,206 110,205 110,205 111,203 112,201 113,200 114,199 113,198 113,198 114,198 114,197 115,197 115,196 116,196 116,195 117,195 117,195 117,194 117,194 117,194 117,194 117,193 118,193 118,193 118,193 118,192 118,192 119,193 119,193 119,192 119,192 120,192 120,191 120,191 121,190 121,189 122,187 122,187 123,186 123,186 124,186 124,185 124,185 125,185 125,185 126,184 126,184 126,184 125,183 119,182 119,182 119,181 117,181 116,181 114,181 113,181 112,181 111,181 111,181 110,180 103,179 101,179 100,179 99,179 97,178 94,178 89,177 88,176 88,176 87,176 86,176 85,175 84,175 82,174 82,174 80,174 77,173 74,172 74,172 74,172 73,171 72,171 72,171 71,171 71,171 71,172 71,173 70,175 70,175 70,176 70,176 70,176 66,176 65,175 64,175 64,175 64,174 64,174 63,174 63,174 62,174 62,175 62,175 59,174 59,174 59,174 59,174 58,174 55,174 54,174 54,174 53,174 51,173 46,173 45,173 45,172 43,173 41,173 41,173 40,173 40,172 38,172 38,172 37,172 36,171 36,171 34,171 34,171 34,171 35,172 33,172 33,172 33,172 30,172 30,172 28,173 28,173 28,173 28,173 28,173 28,173 27,173 27,173 27,173 27,173 26,173 25,172 24,172 23,172 21,171 21,171 21,171 19,171 19,171 17,170 17,170 16,170 14,169 13,169 12,169 12,168 10,167 8,166 7,166 6,164 6,164 6,163 6,163 5,162 5,162 4,161 4,160 4,160 4,160 3,159 3,159 3,159 3,159 2,158 2,158 2,158 0,157" id="1722" class="canton" fill="steelblue" stroke-width="1" stroke="white" geotype="canton" geoname="Saujon" code_insee="1722" code_departement="17" nom_departement="Charente-Maritime" code_region="75" nom_region="Nouvelle-Aquitaine"/></svg>