<?xml version="1.0" encoding="utf-8"?>
<svg version="1.1" id="svgmap" xmlns="http://www.w3.org/2000/svg" xmlns:xlink="http://www.w3.org/1999/xlink" x="0px" y="0px" width="100%" height="100%" viewBox="0 0 500 249">
<polygon points="117,29 119,31 119,32 121,33 121,33 124,36 125,36 127,39 136,36 142,35 145,33 151,32 152,34 152,34 153,37 155,38 155,39 155,39 155,39 156,39 156,39 156,39 157,39 159,37 162,35 162,34 163,32 165,31 165,31 165,30 166,29 166,29 166,29 170,24 171,23 174,24 180,25 184,26 186,27 188,26 189,25 190,25 193,24 194,23 194,23 195,22 196,21 197,20 200,18 198,17 197,17 197,15 199,13 201,11 201,9 204,7 209,4 210,3 210,1 214,0 215,0 217,0 217,0 217,0 218,1 218,1 219,1 219,1 219,1 219,1 218,2 219,2 219,2 220,1 220,1 220,1 221,1 221,1 222,1 222,1 223,1 223,1 225,1 233,3 231,5 232,9 235,9 235,9 234,9 234,9 234,9 234,9 233,10 232,11 231,11 230,12 228,13 227,13 227,14 227,14 227,14 227,14 227,14 226,14 226,15 226,15 225,15 225,16 225,16 225,16 225,16 225,16 225,16 225,16 222,18 224,21 225,21 226,23 226,23 227,24 227,24 227,25 227,25 227,25 227,26 227,26 227,26 227,26 227,26 227,26 228,27 228,28 226,28 225,28 224,28 222,27 218,26 216,25 215,25 215,25 215,25 212,28 210,31 211,31 212,32 212,32 214,33 215,33 216,33 216,34 218,34 219,35 218,36 218,36 218,37 218,38 218,38 218,39 218,39 218,39 218,40 218,40 218,41 218,41 218,42 218,42 218,43 218,44 218,45 217,46 218,47 217,47 218,47 218,48 218,48 218,48 218,49 218,49 219,52 220,52 219,53 222,53 222,54 223,53 224,54 224,55 222,56 220,55 219,55 218,55 217,54 217,54 216,55 216,55 216,55 216,55 216,55 216,55 215,56 214,56 213,57 213,57 213,57 213,57 213,57 213,57 214,57 214,57 214,57 214,57 214,57 214,57 214,57 214,57 214,57 215,57 215,57 215,57 215,57 215,57 216,57 216,57 216,58 216,58 216,59 216,59 217,60 216,61 215,61 215,62 215,62 216,62 215,63 213,62 213,66 211,66 210,68 210,68 209,69 209,69 208,70 207,70 207,69 206,69 205,69 205,69 206,70 206,71 205,71 205,71 204,71 204,71 204,71 204,71 204,71 204,72 204,72 204,72 205,72 206,73 204,73 202,74 203,75 203,75 205,74 205,74 206,74 206,74 206,74 207,74 207,74 207,74 208,74 208,74 208,74 209,73 209,73 209,73 210,73 210,73 212,73 211,74 213,76 213,76 214,76 211,77 211,76 211,77 211,77 211,77 211,78 211,78 211,78 211,78 211,79 212,78 212,79 212,79 212,79 212,79 212,79 213,79 213,79 213,79 213,79 213,79 213,79 213,79 213,79 214,81 216,80 216,80 216,80 217,80 217,81 218,82 219,81 221,83 221,83 223,85 224,85 229,87 229,87 229,87 229,87 229,87 229,87 230,88 230,87 230,86 230,86 235,83 235,82 236,83 236,83 236,83 237,83 237,83 237,83 237,83 237,84 237,84 237,84 238,84 238,85 238,85 238,85 238,85 238,85 238,85 238,85 239,85 239,85 239,86 240,86 240,86 240,86 241,87 242,87 242,87 243,88 243,88 243,88 243,88 244,89 244,89 244,89 244,90 244,90 244,90 244,90 244,91 244,91 245,92 245,92 245,92 246,93 247,96 248,97 248,97 248,97 248,98 249,99 249,99 249,100 249,100 249,100 249,100 249,100 250,100 250,100 250,101 250,101 250,101 250,101 250,101 250,102 251,102 251,102 251,102 251,102 251,102 251,102 251,102 251,102 251,102 252,101 253,101 254,101 254,101 254,101 256,102 257,102 258,101 260,101 261,102 262,102 263,102 263,103 263,103 263,103 263,103 263,103 264,103 264,103 265,104 265,104 265,104 265,104 266,104 266,105 267,106 267,106 268,106 268,106 268,106 268,106 269,106 270,105 271,105 271,105 271,106 271,106 271,106 271,106 272,106 272,106 273,105 273,105 273,105 273,104 274,104 274,104 274,104 274,105 275,105 275,105 275,105 275,105 275,105 276,105 276,105 277,106 277,106 277,106 277,106 277,105 278,105 278,105 278,105 278,105 278,105 278,105 277,105 277,105 277,104 277,104 277,104 277,104 277,103 277,103 277,103 277,103 277,102 278,102 278,102 279,102 279,102 279,102 280,103 280,103 280,103 281,103 282,102 282,102 282,102 282,102 282,102 283,101 283,101 283,101 283,101 283,101 282,101 282,100 282,100 282,100 282,100 283,100 282,100 282,100 283,100 285,99 284,99 283,98 283,98 282,96 282,96 282,96 282,96 283,96 283,96 284,95 284,95 285,95 285,95 285,95 286,95 286,95 286,95 287,95 287,95 287,94 287,94 287,94 287,94 286,92 286,92 286,92 285,92 285,91 284,91 284,91 284,91 284,91 284,91 284,90 285,90 286,89 286,89 287,89 287,89 287,89 287,89 287,89 287,89 287,89 287,89 287,89 287,89 287,88 287,88 287,88 287,88 288,87 288,87 288,87 288,87 289,86 289,86 289,86 290,86 291,87 291,87 291,88 292,88 292,88 293,88 293,88 294,88 294,89 295,89 296,89 297,89 297,89 298,89 298,89 298,89 298,88 299,88 299,88 299,88 300,86 301,86 301,85 302,85 302,85 302,85 303,85 303,85 303,84 303,84 303,84 303,84 303,84 304,84 304,84 304,84 304,84 304,84 305,84 305,84 305,84 306,84 306,83 307,83 308,82 309,82 310,81 311,81 311,81 310,81 310,81 311,80 311,80 311,80 311,80 312,80 312,80 312,80 312,80 312,80 312,80 312,80 313,80 313,80 313,80 313,80 313,80 314,80 314,80 314,80 315,80 315,80 315,80 316,80 317,81 317,81 317,80 318,80 319,80 319,80 319,80 320,80 320,80 321,80 323,79 325,78 327,78 329,77 329,77 329,77 329,77 329,77 329,78 330,78 330,78 331,77 331,77 332,77 332,77 332,76 333,76 333,76 333,76 334,75 334,75 335,75 335,74 337,74 338,74 338,74 341,72 342,72 340,71 337,69 338,69 338,69 338,69 338,69 338,68 338,68 337,68 337,68 337,68 337,67 337,67 337,67 337,67 337,67 337,67 338,67 338,67 339,67 339,67 340,67 340,67 340,67 340,67 341,67 341,67 341,67 341,67 342,67 342,67 342,67 342,67 342,67 342,67 343,67 343,67 343,67 344,67 345,67 345,67 345,67 348,66 351,65 355,67 357,68 358,68 359,69 361,70 361,70 362,70 365,70 366,70 366,70 365,70 365,70 366,70 366,70 366,70 366,69 367,69 368,69 368,69 368,69 369,69 369,69 370,69 370,69 371,69 372,69 372,71 372,71 373,71 373,71 373,71 374,71 375,71 375,71 376,71 376,71 377,71 378,70 378,70 378,71 379,72 379,72 379,72 379,73 379,73 379,73 379,73 379,74 379,74 379,74 379,74 380,75 380,75 380,75 380,75 380,75 380,75 380,74 380,74 380,74 380,74 380,74 380,74 381,74 381,74 381,74 381,73 382,73 382,73 382,73 382,73 382,73 383,73 383,73 383,73 383,73 383,73 383,73 383,73 383,73 383,73 383,73 384,73 384,73 384,73 384,73 384,73 384,73 384,73 384,73 384,73 384,73 384,73 384,73 384,73 384,73 384,73 384,73 385,73 385,73 385,73 385,73 385,73 385,73 385,73 385,73 385,73 385,73 385,73 385,73 385,73 385,73 385,73 386,73 386,73 386,73 386,73 386,73 386,73 386,73 386,73 386,73 386,72 386,72 386,73 386,73 386,73 387,73 387,73 387,73 387,73 388,72 388,72 388,73 389,73 389,73 389,73 389,73 389,73 389,73 390,73 390,73 390,73 390,73 390,73 390,72 390,73 390,73 391,73 391,73 391,73 391,73 391,73 391,73 392,73 392,73 394,72 394,72 394,72 395,72 395,71 395,71 395,71 396,71 396,71 396,71 397,70 398,70 398,71 398,71 399,71 399,71 399,71 399,71 400,70 400,70 400,70 400,70 400,71 400,71 400,71 400,71 400,71 400,71 400,71 400,71 400,72 400,72 401,72 401,72 401,72 402,72 402,72 402,72 402,72 403,72 403,73 403,73 403,73 403,73 403,73 403,74 402,76 402,76 403,76 403,76 403,76 403,76 403,77 403,77 403,77 403,77 403,77 403,77 403,77 404,77 404,77 404,77 405,77 405,77 406,77 406,77 407,77 408,78 409,78 410,79 410,79 410,80 410,80 410,81 411,81 411,82 412,82 412,82 413,83 413,83 414,83 414,83 416,82 418,81 418,81 420,81 421,82 421,82 422,83 422,83 422,84 422,84 422,84 422,84 422,84 422,84 422,84 422,84 422,84 422,84 421,84 421,85 421,85 421,85 420,85 421,85 421,86 421,86 421,86 420,86 420,86 420,87 420,87 420,87 420,87 432,91 432,91 433,89 433,89 433,89 433,89 433,89 433,89 437,87 437,87 438,87 438,87 438,87 438,87 438,87 438,86 438,86 438,86 438,85 436,83 436,83 436,83 437,83 439,82 437,77 439,77 439,77 440,77 440,77 441,77 441,77 442,77 442,76 443,76 443,76 443,77 443,77 443,78 443,78 442,78 443,78 444,78 444,78 444,78 445,78 445,78 445,78 445,78 445,78 445,79 445,79 445,79 444,79 444,79 444,80 444,80 444,80 444,80 445,80 445,80 445,80 445,80 446,80 446,81 446,80 447,81 448,81 449,81 449,82 449,82 450,82 450,82 450,82 452,80 452,80 453,79 453,79 454,78 454,78 454,78 455,77 455,77 456,77 456,77 456,77 456,77 456,77 456,76 457,76 457,76 457,76 457,76 458,76 458,75 459,75 459,75 460,75 460,75 460,75 460,75 461,75 461,75 462,75 462,75 462,75 463,75 463,75 464,75 464,75 464,75 465,75 465,75 466,75 466,75 466,75 467,75 467,75 468,75 468,75 468,75 468,75 469,75 469,75 470,75 470,75 471,75 471,76 472,76 472,76 472,76 472,76 473,76 473,76 474,76 475,76 475,76 476,75 475,75 476,75 476,75 476,75 476,75 476,75 476,75 476,75 477,74 477,74 477,74 478,74 478,74 480,74 483,74 483,73 484,73 484,73 484,73 484,72 484,72 484,72 484,72 484,72 485,72 485,72 485,72 485,71 485,71 485,71 485,71 486,71 486,71 486,71 486,71 486,71 486,71 486,71 486,71 486,71 487,72 487,72 487,72 487,72 488,72 488,72 488,72 488,72 488,72 488,72 488,72 489,72 489,72 489,72 489,71 489,71 493,69 494,70 494,71 495,72 495,72 496,74 495,74 495,74 496,75 496,77 497,79 498,79 498,83 499,83 499,83 499,83 499,84 499,84 499,85 498,90 497,92 497,92 497,93 497,94 497,95 497,95 498,97 498,98 499,100 499,100 499,100 499,100 499,101 500,103 500,103 500,104 499,105 498,106 496,107 496,107 496,108 495,108 495,108 494,108 493,108 492,109 491,110 490,110 490,111 490,111 489,112 489,113 489,113 489,114 489,115 489,115 490,115 490,116 491,117 492,118 492,118 492,119 492,120 492,121 492,122 492,122 491,123 490,124 489,125 488,125 488,125 487,126 485,127 482,129 482,129 481,130 481,130 481,131 480,131 480,132 478,135 477,137 475,138 473,140 472,145 472,145 471,145 471,145 471,145 471,146 470,146 470,146 469,146 469,146 469,146 469,146 468,146 468,146 468,146 468,146 468,146 468,146 467,146 467,146 467,145 466,145 466,144 465,143 465,143 464,143 464,143 464,143 463,142 462,142 461,142 460,141 459,142 458,142 457,142 457,142 456,142 455,142 455,142 453,142 452,142 452,142 452,143 452,143 451,143 451,143 451,143 451,143 450,143 450,143 450,143 450,143 450,143 449,143 449,143 449,143 449,143 448,143 445,144 444,144 443,144 443,144 442,144 442,143 441,142 440,142 440,141 440,141 439,141 439,141 439,140 438,140 437,140 436,140 436,139 433,139 431,139 424,138 418,139 418,138 417,141 417,141 417,142 417,142 417,142 417,142 415,143 413,144 413,145 413,145 413,146 413,146 413,146 413,146 412,148 412,148 412,148 412,148 412,148 411,148 411,148 411,148 411,148 410,148 410,148 409,148 408,148 408,148 407,147 407,147 406,147 406,147 406,147 406,146 405,146 405,146 404,146 404,145 404,145 403,146 403,146 403,146 403,146 403,146 403,146 402,146 401,145 401,145 401,145 400,145 400,145 400,145 399,145 399,145 399,145 399,145 398,145 398,145 397,145 397,145 396,145 396,145 395,145 395,145 395,145 395,145 394,145 392,146 392,146 392,146 392,146 392,145 392,145 392,145 392,145 392,145 392,145 391,146 391,146 391,146 390,146 390,146 390,146 390,146 390,146 389,146 389,146 389,146 389,146 389,146 389,147 388,147 388,147 387,147 387,147 386,147 386,147 386,147 385,147 385,148 384,148 383,148 383,148 383,149 382,149 382,149 382,149 381,150 381,150 380,150 380,150 379,151 379,151 379,152 379,152 379,152 379,152 380,152 380,153 380,153 380,153 380,153 380,153 380,154 380,154 380,154 380,154 380,154 381,155 381,155 381,155 381,155 382,155 382,156 382,156 382,156 382,156 382,156 381,156 381,157 381,157 380,157 380,157 379,157 379,157 379,157 378,157 378,158 377,158 377,158 377,158 377,158 377,158 376,158 376,159 376,159 376,159 376,159 375,159 375,159 374,159 374,159 373,160 373,160 372,160 372,160 370,160 369,160 369,161 369,161 369,161 369,161 368,161 368,162 368,162 366,162 365,162 364,162 362,163 359,164 359,164 359,164 358,164 358,164 358,164 358,164 358,164 357,164 357,164 357,164 356,165 356,165 356,165 356,165 356,165 355,165 355,165 355,165 355,165 355,165 355,166 355,166 355,166 355,167 356,167 355,167 356,170 356,170 356,170 355,171 355,171 353,172 353,172 352,173 352,173 351,173 351,173 351,173 351,173 350,174 347,175 346,175 346,175 345,175 345,175 344,175 332,184 331,184 331,187 332,189 331,189 331,190 331,191 332,191 332,191 332,191 332,191 332,191 333,193 333,193 333,193 333,193 333,194 333,194 333,194 333,195 333,195 333,196 333,196 333,196 332,196 332,196 332,196 332,196 332,196 331,196 330,196 330,196 329,196 329,196 329,196 329,196 329,196 329,195 328,195 328,195 328,195 327,195 327,195 327,195 326,195 326,195 325,195 325,195 325,195 324,195 324,195 324,195 324,195 323,195 323,194 323,194 323,193 322,193 321,192 320,191 319,191 319,190 319,190 319,190 315,190 315,190 315,190 312,190 312,190 312,190 311,190 310,190 310,190 310,190 309,190 309,190 308,190 307,191 306,191 305,191 304,191 304,191 302,191 302,191 300,191 298,191 295,190 293,190 293,190 293,190 293,190 293,191 292,191 292,191 292,191 292,191 292,191 292,192 291,193 290,193 290,194 289,194 287,196 287,196 287,197 287,197 287,198 287,198 288,199 287,199 286,199 283,200 283,200 282,200 281,200 280,201 280,202 279,202 279,202 279,202 278,203 277,201 277,200 277,199 277,199 277,199 276,199 274,200 274,200 273,201 273,201 272,201 271,201 270,202 269,202 268,203 268,203 267,203 267,203 267,203 265,202 265,202 264,202 264,202 265,201 265,200 266,198 266,198 261,197 260,197 260,197 260,196 259,196 259,196 259,196 258,195 258,195 257,195 257,195 256,195 256,195 256,195 256,194 257,194 257,194 257,194 257,194 256,194 256,194 256,194 256,194 255,190 255,190 253,189 251,188 251,188 251,188 253,185 253,185 252,184 249,182 249,182 249,182 249,182 249,182 249,182 249,181 249,181 249,181 248,180 247,180 245,180 245,180 244,180 244,181 244,181 243,182 243,182 243,182 243,182 243,182 242,183 242,183 242,183 242,183 242,183 241,183 241,183 241,183 240,183 240,183 240,183 240,184 240,184 239,184 239,184 239,184 239,184 239,184 238,184 238,185 238,185 237,185 237,185 237,185 237,185 237,184 237,184 236,183 236,183 236,183 236,183 236,183 235,183 235,182 235,182 235,183 235,183 235,183 234,183 235,183 234,183 232,184 232,184 232,184 231,185 231,185 231,185 231,185 230,185 230,186 229,186 229,186 229,186 229,186 228,187 228,187 227,187 227,187 227,187 227,187 227,187 227,187 227,187 227,188 227,188 227,187 227,188 228,188 228,188 228,188 228,188 228,188 228,189 228,189 228,189 227,189 227,189 227,190 227,190 227,191 227,191 228,191 228,191 228,192 228,192 227,192 227,192 227,192 227,192 226,192 226,192 226,192 226,192 226,192 226,193 226,193 226,193 225,193 225,193 225,194 225,194 225,194 225,194 225,194 224,195 224,195 224,195 224,195 224,195 225,195 225,195 225,195 225,195 225,195 225,195 226,196 226,196 226,196 227,196 227,196 227,196 227,196 227,196 227,196 227,196 227,196 228,197 228,197 228,197 228,197 227,198 227,198 227,198 227,198 226,199 226,199 226,199 226,199 226,199 226,199 225,200 225,200 225,200 226,200 226,201 227,201 227,201 227,201 227,201 227,201 226,202 225,203 225,203 225,202 224,202 224,202 224,202 224,202 224,202 224,202 223,202 223,202 223,202 223,202 223,201 224,201 224,201 224,200 224,200 224,200 223,200 223,200 223,200 223,200 223,200 222,200 221,199 221,200 221,200 220,199 220,199 220,199 220,199 220,199 221,199 221,199 221,199 221,199 220,199 220,199 220,199 220,199 220,199 220,199 220,199 220,199 219,199 219,199 219,199 219,199 219,199 219,199 219,199 219,199 218,199 218,199 218,199 218,199 217,200 217,200 217,200 217,200 217,201 217,201 217,201 217,201 217,201 217,201 217,201 217,201 216,201 216,201 216,201 215,201 215,201 215,200 214,200 214,200 214,200 214,199 214,199 214,199 214,199 213,199 213,199 213,199 213,200 213,200 213,200 212,200 212,200 212,201 212,201 212,202 212,202 212,202 212,202 212,202 213,203 213,203 213,203 212,204 213,205 213,205 212,205 212,205 213,205 213,205 213,206 212,206 212,206 211,206 211,206 210,206 210,206 209,206 208,207 208,207 207,207 207,207 207,207 207,207 206,208 206,208 206,208 206,208 205,208 205,208 205,208 205,209 205,209 204,209 204,209 204,209 204,209 203,209 203,209 203,210 203,210 202,210 203,210 203,210 204,211 205,211 206,211 206,211 206,212 207,212 207,213 207,213 205,213 205,213 204,214 204,215 204,215 204,215 203,215 202,215 201,215 201,215 200,215 197,216 197,216 195,217 194,217 194,217 192,217 192,218 191,218 190,218 190,218 190,219 189,219 189,219 189,219 189,220 189,221 188,221 188,222 186,223 185,224 185,224 185,224 184,225 183,226 183,226 182,226 182,224 182,223 179,224 179,224 179,223 178,223 178,222 177,223 176,222 175,222 175,222 174,223 173,223 173,223 170,223 169,224 168,224 168,224 168,224 167,224 166,224 166,225 166,225 165,226 164,228 164,228 165,229 164,231 163,231 165,232 165,232 164,232 165,233 166,233 166,234 166,234 166,234 166,234 167,234 167,234 167,236 168,236 170,235 171,235 172,235 173,235 174,235 174,235 174,235 174,236 174,236 174,236 174,236 173,237 173,237 173,238 173,238 172,239 172,240 172,241 172,241 172,242 172,242 171,242 171,243 170,243 170,243 170,244 170,244 170,244 170,245 170,247 170,247 170,247 168,247 167,248 167,248 166,249 166,249 166,249 164,248 163,247 163,246 162,246 162,245 161,246 161,246 159,246 158,245 156,246 154,246 154,246 154,245 154,245 154,244 154,243 154,241 154,241 154,240 154,239 154,239 153,238 152,238 152,238 151,239 151,239 149,241 149,241 148,242 148,242 147,242 147,243 147,242 146,242 146,242 145,242 145,241 145,241 145,241 144,241 144,241 143,241 143,242 143,242 142,242 141,242 141,242 141,242 140,242 139,243 139,243 138,243 138,243 138,243 137,243 137,243 136,244 136,244 136,244 135,244 135,244 135,244 135,245 135,245 134,245 134,245 134,245 133,245 133,245 132,245 132,245 131,245 131,245 130,245 130,245 130,245 129,245 129,245 129,246 129,246 128,246 128,246 128,247 127,247 127,247 127,247 126,246 125,244 124,243 124,242 124,242 124,242 125,240 126,239 127,238 128,238 128,237 128,237 127,237 127,236 126,236 123,235 121,234 120,234 120,234 120,234 120,234 120,233 120,232 120,232 120,232 120,231 119,230 119,230 119,230 117,230 117,230 117,230 117,229 117,229 117,229 117,228 117,228 118,228 119,227 120,227 121,227 122,227 122,227 122,227 123,227 123,226 123,226 123,226 123,226 125,227 126,225 125,225 123,224 124,223 123,222 123,222 123,222 123,222 123,221 123,220 124,219 124,219 124,219 125,217 127,219 128,218 129,219 130,219 132,219 133,219 134,219 134,219 134,219 135,219 135,219 135,219 135,219 135,218 134,218 134,218 133,218 133,217 133,217 133,217 133,217 133,217 133,216 134,216 134,216 135,217 135,217 135,218 136,218 136,218 137,218 137,218 137,218 137,217 138,217 138,217 137,217 137,217 138,217 138,216 138,216 138,216 138,216 138,215 138,214 138,214 138,214 138,213 137,213 137,213 137,213 137,212 136,212 135,212 135,212 135,212 135,212 135,211 134,211 133,210 131,210 131,210 130,210 130,210 130,209 130,209 130,209 129,209 129,209 128,208 128,208 128,208 128,208 128,208 128,208 125,205 125,205 122,202 121,202 121,202 121,202 121,201 121,201 121,201 121,201 121,202 121,202 120,202 120,202 120,202 120,202 120,202 120,201 120,201 120,201 120,201 120,201 120,201 120,201 119,202 119,202 119,202 119,202 119,202 119,202 119,202 119,202 119,202 119,202 118,202 118,202 118,202 118,202 118,202 118,202 118,202 118,202 118,202 118,202 118,202 118,202 118,202 118,202 118,202 117,202 117,202 117,202 117,202 117,202 117,202 117,202 116,202 116,202 116,202 116,202 116,202 116,202 116,202 116,202 116,202 116,201 116,201 116,201 116,201 116,200 116,200 116,199 116,199 116,198 115,198 115,198 115,198 116,197 118,197 120,196 121,196 121,195 120,195 120,194 120,194 120,193 120,192 120,192 120,191 120,191 120,191 120,191 120,191 120,191 120,191 120,191 120,191 119,190 118,190 118,190 117,189 117,189 117,189 116,189 116,189 115,187 116,187 115,187 115,187 116,187 116,186 117,186 117,186 118,186 118,186 117,186 117,185 116,185 116,184 116,184 116,184 116,183 116,183 116,183 116,183 116,183 115,183 114,183 114,184 114,184 114,184 113,184 113,185 113,185 112,186 112,186 112,186 111,186 110,185 109,185 109,185 109,185 109,185 108,185 108,185 108,185 108,185 108,185 104,184 104,184 103,184 103,185 103,184 103,184 103,184 103,184 103,184 103,183 103,182 103,182 104,181 104,181 105,181 105,180 105,180 105,180 105,180 105,180 105,179 106,179 106,179 106,179 107,178 107,178 108,177 108,176 106,168 106,168 106,168 106,168 106,167 106,167 105,165 105,165 105,162 105,162 105,162 105,162 105,162 105,162 104,161 104,161 104,161 104,160 104,160 103,159 103,159 103,159 103,159 102,158 102,158 102,158 102,158 102,158 102,158 102,157 102,157 102,157 101,157 101,157 101,156 101,156 101,156 101,156 101,155 101,155 101,155 101,155 101,154 101,154 101,154 101,154 100,153 100,153 100,153 99,152 99,152 98,151 98,151 98,151 98,151 98,151 98,151 98,150 98,150 98,150 97,150 97,150 97,150 97,150 97,150 97,149 97,149 97,149 96,149 96,149 96,149 96,149 95,149 95,148 94,148 94,148 94,148 93,148 93,148 93,147 93,147 93,147 93,147 93,147 93,147 92,147 92,147 92,147 92,147 92,147 91,146 91,146 91,146 91,146 91,146 91,146 91,146 91,146 91,145 91,145 91,144 90,143 90,143 90,142 90,142 90,142 90,142 90,141 89,141 89,141 89,141 89,141 89,141 88,140 88,140 88,140 89,140 89,140 89,139 89,139 89,139 89,139 90,139 90,138 90,138 90,138 90,138 91,138 91,138 91,137 91,137 92,137 91,137 91,137 91,137 91,136 90,136 90,135 90,135 90,135 90,135 90,135 90,135 90,135 90,134 90,134 90,134 90,133 89,133 89,133 89,133 89,132 89,132 89,132 89,132 88,132 88,132 88,132 88,132 88,131 88,131 88,130 88,130 88,130 88,130 89,130 89,129 90,129 90,129 90,129 90,129 89,128 90,128 90,128 90,127 91,127 91,127 91,127 92,127 92,126 92,126 92,126 92,126 92,126 93,126 93,126 93,125 93,125 93,125 94,125 94,125 94,124 94,124 94,124 94,124 95,124 95,124 95,123 95,123 95,123 96,123 96,123 96,122 96,122 96,122 96,122 96,122 97,122 97,121 97,121 97,121 97,121 98,120 99,120 99,119 99,119 100,119 100,119 100,119 100,119 100,119 101,120 101,120 101,120 101,120 101,120 102,120 102,121 102,121 102,121 102,122 103,122 103,123 103,123 103,124 104,124 104,124 104,124 105,117 105,117 105,115 105,115 104,115 104,115 104,115 103,115 102,114 102,113 101,114 99,113 99,113 98,112 97,112 97,112 95,112 95,112 94,112 94,112 94,112 93,113 93,113 92,114 92,114 92,115 91,115 90,114 89,114 88,114 87,114 85,113 85,113 84,112 83,112 82,111 82,111 81,110 80,110 78,110 77,110 77,111 74,114 75,114 74,114 73,115 64,110 63,107 62,105 60,105 56,104 54,104 52,105 50,106 50,107 49,109 47,108 47,107 46,106 45,106 45,106 46,106 44,104 45,104 45,104 46,103 46,102 46,101 46,100 45,100 44,99 42,99 41,99 41,99 38,101 38,102 37,102 37,102 36,103 35,103 35,103 35,104 34,104 34,104 33,104 32,104 32,104 31,104 31,104 31,104 30,104 30,104 30,104 29,104 29,104 28,104 28,104 27,104 26,100 25,100 21,99 20,99 17,97 16,97 15,96 16,95 16,94 18,93 18,94 22,94 22,90 23,90 23,89 29,87 29,85 29,85 29,84 29,84 29,84 29,84 29,84 30,84 30,83 30,83 30,83 30,83 30,83 30,82 29,82 29,81 29,81 29,81 28,81 28,81 28,81 28,81 28,81 27,81 27,80 27,80 28,79 28,79 27,79 27,78 27,78 27,78 27,78 27,78 27,77 25,78 24,76 25,76 25,76 24,75 23,74 23,74 23,73 23,72 19,73 19,72 15,73 12,74 12,73 11,73 11,73 10,73 10,73 10,73 9,73 9,73 8,73 8,73 8,73 7,73 7,73 7,73 7,72 6,72 5,72 4,72 4,72 4,72 3,72 3,71 3,71 2,70 2,70 2,70 1,69 1,69 1,69 1,69 1,69 0,69 0,69 0,69 0,69 0,69 0,68 1,68 1,68 1,68 2,68 3,68 3,67 4,67 4,67 4,67 3,66 4,66 4,66 5,66 5,66 5,66 5,65 5,65 5,65 5,65 6,65 6,64 6,64 6,63 6,63 6,63 6,63 7,63 7,63 7,63 8,63 8,63 9,63 10,63 11,63 11,62 11,61 13,59 14,59 15,58 15,58 14,57 14,57 14,57 14,56 14,56 14,56 14,56 13,56 13,56 14,56 14,56 14,56 14,55 14,55 14,55 15,55 15,56 15,56 15,56 15,56 15,56 16,56 16,56 16,56 17,56 17,56 17,56 19,55 20,55 20,55 21,55 22,55 21,55 21,54 22,54 23,51 29,53 30,52 30,51 32,50 35,50 38,50 35,54 34,56 36,56 36,57 36,57 39,57 44,56 46,58 50,56 53,57 53,57 53,57 54,57 54,56 54,56 55,56 55,56 56,56 56,56 56,56 56,55 56,55 57,55 57,56 57,55 57,55 57,54 57,54 57,54 57,54 57,54 57,54 57,54 57,53 57,53 57,53 57,53 58,52 58,52 58,52 58,52 59,51 58,49 62,47 62,47 62,48 62,48 62,48 62,48 64,49 72,45 72,44 73,43 76,42 81,41 79,36 78,36 76,32 76,31 75,31 74,31 74,30 72,30 72,30 71,29 71,29 67,26 66,24 65,24 64,24 65,24 64,22 64,21 63,21 63,20 64,20 64,20 64,20 64,20 65,20 65,19 65,19 67,19 68,19 68,19 68,18 68,18 69,18 69,18 69,18 70,18 70,18 71,17 71,17 71,17 71,17 76,15 78,15 79,16 79,15 79,15 80,14 81,14 81,14 81,13 82,13 82,13 82,13 82,12 82,12 83,11 83,11 84,11 85,10 86,9 86,9 86,9 87,9 87,9 87,9 87,9 88,9 88,8 89,8 89,8 89,8 90,8 90,8 91,8 91,8 91,9 92,9 92,9 92,9 92,9 92,9 91,10 91,10 91,10 91,10 91,10 91,10 91,11 91,11 91,11 90,11 90,11 90,11 90,12 89,12 89,13 89,13 89,13 89,13 88,13 88,14 88,14 89,14 89,14 89,15 89,15 89,15 90,15 91,16 91,16 91,16 93,17 93,17 93,17 93,17 94,18 94,18 95,17 96,17 97,18 97,18 98,18 98,18 98,18 97,19 97,19 97,19 97,19 97,20 97,20 97,20 97,20 97,20 97,21 96,21 96,22 96,22 95,22 95,22 95,23 95,23 95,23 95,23 95,23 95,23 95,23 96,24 96,24 96,24 96,24 96,24 96,24 97,24 97,25 97,25 98,25 98,26 99,26 99,27 99,27 99,27 100,27 100,27 100,27 100,27 100,28 100,28 98,29 98,29 98,29 97,30 97,30 97,31 97,31 97,31 97,31 97,31 97,32 102,34 106,33 107,33 107,33 111,32 111,32 112,31 111,29 113,29 113,29 114,29 115,29 116,29 116,29 117,29" id="1809" class="canton" fill="steelblue" stroke-width="1" stroke="white" geotype="canton" geoname="Dun-sur-Auron" code_insee="1809" code_departement="18" nom_departement="Cher" code_region="24" nom_region="Centre-Val de Loire"/></svg>