<?xml version="1.0" encoding="utf-8"?>
<svg version="1.1" id="svgmap" xmlns="http://www.w3.org/2000/svg" xmlns:xlink="http://www.w3.org/1999/xlink" x="0px" y="0px" width="100%" height="100%" viewBox="0 0 500 218">
<polygon points="5,129 5,129 10,132 14,133 19,132 24,131 26,130 28,130 29,129 29,129 30,129 31,128 32,128 32,128 33,128 35,127 36,126 37,126 37,126 37,126 38,125 38,125 39,125 40,125 41,124 42,124 44,125 45,126 46,127 47,127 47,127 48,126 49,126 49,126 51,126 52,127 53,126 53,126 54,126 54,126 55,126 55,126 55,126 56,126 57,125 58,125 59,125 59,125 60,125 61,125 61,125 63,125 64,124 65,124 66,124 69,122 70,122 70,121 69,121 69,120 69,120 69,120 70,119 70,119 71,119 72,119 72,119 73,119 74,119 74,119 74,118 74,118 75,117 75,117 74,116 73,116 73,116 74,115 73,115 72,115 71,115 71,115 70,115 70,115 70,115 70,114 70,114 71,114 72,113 72,113 72,112 72,112 72,111 71,111 71,111 70,111 70,111 69,110 68,110 68,110 66,110 65,110 65,109 65,109 62,109 61,108 61,108 60,109 60,109 59,109 58,110 58,110 57,109 57,109 56,108 56,108 55,108 55,108 54,108 54,108 54,107 53,107 53,107 53,106 53,106 53,106 53,105 53,105 53,105 53,104 53,104 53,103 53,103 53,103 53,103 53,102 52,102 52,102 52,102 52,101 51,101 51,100 51,100 52,99 52,98 52,97 54,95 54,95 55,94 54,94 54,94 54,94 54,94 54,94 54,93 54,93 54,93 54,93 54,92 54,91 54,91 55,90 55,90 55,89 54,89 54,89 54,89 53,88 53,88 53,88 52,87 52,87 53,86 56,85 57,86 63,84 63,84 64,84 64,84 65,84 65,84 66,84 69,83 75,82 76,82 76,81 77,81 78,82 78,81 79,82 79,81 79,81 81,81 81,81 82,81 82,81 82,81 83,81 84,81 85,82 85,82 85,82 86,83 89,83 91,83 93,83 95,83 96,83 97,83 99,83 99,83 99,82 100,82 100,82 104,80 104,80 105,81 106,81 106,81 106,81 108,81 109,81 110,82 110,82 110,82 110,83 110,83 110,83 110,83 110,84 110,84 109,84 108,85 108,85 108,86 108,86 108,86 107,86 108,86 107,86 107,88 106,88 104,91 104,91 103,92 103,92 103,92 102,93 102,95 102,95 102,95 102,95 102,96 101,96 101,96 101,97 101,97 101,97 102,98 102,99 104,100 104,100 104,100 104,100 104,101 104,101 104,101 103,100 103,100 102,99 101,100 102,100 102,100 105,102 105,103 106,103 107,103 107,103 109,103 110,103 111,103 112,103 112,103 112,103 113,103 113,103 113,103 115,103 115,103 116,103 118,102 121,102 123,102 125,102 125,102 126,101 128,99 128,99 129,98 129,98 130,97 131,97 132,96 133,95 133,95 133,94 134,93 134,92 134,92 135,91 135,90 136,90 136,89 137,88 138,87 139,86 140,86 140,85 140,85 139,85 139,85 137,85 136,85 135,85 134,84 134,84 134,82 133,81 133,81 133,81 133,80 132,80 132,79 132,78 132,78 132,77 132,77 131,76 129,75 129,75 129,74 129,74 128,72 128,72 128,72 128,71 129,71 129,70 128,70 128,70 130,69 130,68 130,68 130,68 129,68 129,68 129,68 129,67 129,67 129,66 128,66 128,66 128,66 128,65 129,64 127,63 127,63 125,61 125,60 125,60 125,60 125,60 125,60 124,59 124,59 124,59 124,59 124,59 124,59 124,58 124,58 124,58 125,57 125,57 125,57 125,57 125,57 126,57 126,56 126,56 126,56 125,55 126,55 126,55 126,55 126,55 126,55 127,54 127,54 127,54 128,53 129,53 129,53 130,53 130,52 130,51 130,51 131,51 132,51 134,51 134,52 135,51 135,51 136,51 136,50 136,50 136,50 137,50 137,51 138,51 138,51 139,50 140,50 141,50 141,50 142,50 142,51 142,51 142,52 142,52 142,53 143,54 143,54 143,54 143,55 143,56 143,57 143,57 143,58 142,59 142,59 142,59 143,59 143,60 144,60 145,60 145,60 146,62 147,62 147,62 148,63 148,63 148,63 152,64 156,65 157,64 156,63 156,62 155,62 154,61 154,60 153,59 153,59 153,58 153,57 154,57 154,56 154,56 153,55 153,55 152,54 152,54 152,53 151,53 151,53 151,53 151,53 153,51 153,51 152,51 152,51 152,51 151,50 151,49 151,49 151,48 150,47 150,47 150,46 150,46 149,46 149,46 149,45 148,45 147,45 147,45 147,45 147,45 147,45 147,44 147,44 147,44 147,44 148,43 148,43 148,42 149,42 149,42 150,42 151,42 151,42 151,41 151,41 152,41 153,40 154,41 154,41 156,42 156,42 156,42 158,43 158,43 158,42 160,42 160,42 161,41 162,41 163,41 163,41 163,42 163,42 163,42 163,43 163,43 163,43 162,43 162,43 163,43 163,43 164,43 165,43 165,43 165,44 165,44 165,45 165,45 166,45 166,45 166,45 166,45 166,45 167,46 167,46 167,45 167,45 167,45 167,45 167,45 167,44 167,42 166,42 166,42 165,42 165,41 165,40 165,40 165,40 165,39 165,39 165,38 166,38 166,38 166,37 165,37 165,37 165,36 164,35 165,35 165,34 165,34 165,34 165,34 165,33 165,33 166,33 167,33 167,33 167,33 168,34 170,34 172,34 172,34 172,34 173,34 173,34 174,34 175,34 175,34 175,34 176,34 177,34 177,35 178,35 178,34 178,34 178,34 178,34 178,34 178,34 178,34 178,34 178,34 178,34 179,34 179,34 179,34 179,34 179,34 179,33 179,33 179,33 179,33 179,32 180,32 180,31 182,30 182,30 181,30 181,30 182,30 183,31 183,31 185,31 186,31 188,31 189,31 190,30 191,30 191,29 192,29 192,28 193,28 193,27 193,26 193,26 194,25 194,25 194,24 194,23 194,23 195,23 195,22 195,22 195,22 195,22 196,22 196,21 197,21 197,21 198,21 198,21 200,21 200,21 201,20 202,20 203,20 203,20 205,19 206,19 206,18 206,18 206,18 207,17 207,17 208,17 208,17 209,17 209,18 210,18 210,18 211,18 212,17 212,17 213,17 214,17 215,17 215,17 215,18 216,18 216,17 216,18 216,18 217,18 217,17 218,17 218,17 219,16 219,16 219,16 221,16 222,16 223,16 226,16 227,16 227,16 229,15 231,14 231,13 231,13 232,13 232,13 232,13 233,12 233,12 234,12 234,12 235,12 235,12 235,12 235,11 235,11 235,11 234,10 234,10 234,9 234,9 235,8 235,7 235,7 236,7 236,7 236,7 236,7 237,7 238,7 238,7 238,7 238,7 238,7 238,6 239,6 239,6 240,6 240,6 240,6 240,6 240,7 241,7 241,5 241,5 241,5 242,5 242,5 242,5 242,5 242,5 243,5 242,4 242,3 243,3 243,3 244,3 244,3 244,3 244,2 244,2 245,3 245,3 245,3 245,4 245,4 245,4 246,4 246,4 246,4 246,4 246,4 247,3 247,3 248,3 248,3 248,3 249,3 249,3 249,2 249,2 249,2 249,1 249,1 250,1 250,1 251,1 251,0 251,0 252,0 253,0 253,0 254,0 254,0 255,0 255,1 255,1 256,1 256,1 256,1 256,1 256,1 257,1 257,2 257,2 257,2 256,3 256,4 257,5 258,6 257,7 255,8 254,9 254,10 254,11 254,12 254,12 256,12 257,13 257,13 259,13 259,13 260,13 261,13 261,13 262,13 262,13 262,13 262,13 263,12 264,12 265,12 267,12 268,12 268,12 269,12 270,12 271,12 272,12 272,12 272,11 273,11 273,11 273,10 273,10 273,10 274,9 274,10 276,10 276,10 276,10 277,11 277,11 277,11 277,11 277,12 277,12 277,12 277,12 277,12 277,13 277,13 276,14 276,14 276,14 276,14 276,14 275,14 275,15 275,15 274,15 274,15 274,15 274,15 273,15 272,16 272,16 271,16 272,17 272,17 272,17 272,17 272,17 272,17 272,18 272,18 272,18 271,18 271,18 271,19 271,19 271,20 270,20 270,21 270,22 269,23 269,23 267,23 267,24 265,24 265,25 265,25 265,25 266,25 266,26 267,26 268,26 269,27 269,27 269,27 270,28 271,28 271,29 271,29 272,30 272,30 272,30 272,30 272,31 273,31 274,31 275,31 276,31 276,31 276,31 277,31 278,31 278,32 279,32 279,32 279,32 280,32 280,32 280,32 281,32 281,31 281,31 281,31 281,31 281,31 281,31 281,31 282,31 282,31 282,31 282,32 282,32 282,33 283,33 283,34 283,34 283,34 283,34 283,34 284,33 283,32 283,32 283,32 283,32 283,32 283,31 284,31 285,32 285,32 285,33 285,33 285,34 286,34 287,34 288,34 288,34 289,33 289,33 289,33 289,33 290,32 291,32 291,31 291,31 291,32 290,32 291,32 290,33 290,33 290,34 289,34 290,34 290,34 290,34 289,35 290,35 290,34 290,34 290,35 290,35 290,35 291,35 291,35 292,36 291,36 291,36 291,37 291,37 291,37 291,37 291,37 292,37 293,37 293,36 294,36 294,36 294,36 294,37 294,37 294,37 295,37 295,38 294,38 295,39 295,39 296,39 296,39 296,38 296,38 296,38 297,38 297,38 296,39 297,39 297,39 297,39 296,39 296,39 297,39 297,39 297,39 298,39 298,39 298,39 298,39 298,39 298,39 299,39 299,39 299,39 299,39 300,39 300,39 300,39 303,39 303,39 302,38 303,38 303,38 303,38 303,39 303,39 303,39 304,39 305,38 305,38 305,38 305,38 306,38 307,38 307,38 307,38 307,38 308,37 308,38 308,38 309,38 309,38 310,38 309,39 309,39 309,39 309,39 309,40 309,40 309,40 309,41 309,41 309,41 309,41 311,42 312,42 312,42 311,42 310,41 309,41 309,41 309,41 309,41 308,41 308,41 313,45 314,45 314,45 315,45 319,43 319,45 320,45 320,45 320,44 320,44 320,44 320,44 321,44 321,44 321,44 321,44 321,44 321,44 322,44 321,44 321,45 321,45 322,44 322,45 322,45 322,45 323,45 323,45 323,45 322,46 322,46 323,46 323,46 323,46 323,46 323,46 323,46 323,47 323,47 324,47 325,47 326,47 326,47 326,47 327,47 327,46 327,46 327,46 328,46 328,46 328,46 328,46 328,46 328,46 328,46 328,46 328,46 328,46 327,45 327,45 327,45 327,45 328,45 328,45 328,45 328,45 327,45 328,45 328,45 328,45 329,45 329,45 330,45 330,44 330,44 330,44 330,44 331,44 331,44 331,44 332,44 332,43 333,43 333,43 333,43 333,43 333,44 332,44 333,44 333,44 333,44 334,44 335,44 335,44 335,44 335,44 336,44 336,43 334,42 334,42 334,42 334,42 335,41 335,41 336,41 336,41 336,40 336,40 337,40 337,40 337,40 338,40 338,40 339,40 339,40 339,40 340,39 340,39 340,38 340,38 340,37 340,37 340,37 340,37 340,37 341,37 341,37 341,37 341,37 341,37 341,37 341,37 341,37 341,37 342,37 341,37 341,37 341,37 342,37 342,37 342,37 342,37 342,37 342,37 342,36 342,36 342,36 342,36 342,36 342,36 342,36 342,36 342,36 342,36 342,36 342,36 343,36 343,36 343,35 343,35 343,35 343,35 343,35 343,34 344,34 344,34 344,34 344,34 344,34 344,34 344,34 344,34 344,34 345,34 345,34 345,34 345,33 345,33 345,34 345,33 345,33 345,33 345,33 345,33 346,33 346,33 346,33 346,33 346,33 346,33 346,33 346,33 346,33 346,33 346,33 346,33 346,33 346,32 346,32 347,32 347,32 347,32 347,32 347,32 347,32 347,32 347,32 347,32 347,32 347,32 347,32 347,32 347,32 348,32 348,32 348,32 348,32 348,31 348,31 348,31 348,31 349,31 349,31 349,31 348,31 348,31 349,31 349,30 349,30 349,30 349,30 349,30 349,30 349,30 349,30 349,30 349,30 349,30 349,30 349,30 349,30 349,29 349,29 349,29 349,29 349,29 349,29 349,29 349,29 349,29 350,29 350,28 350,28 350,28 350,28 350,28 350,28 350,28 351,28 351,28 351,27 351,27 351,27 351,27 351,27 351,27 351,27 351,27 351,27 352,26 352,26 352,26 352,26 352,26 352,26 352,26 352,26 352,25 352,25 352,25 352,25 351,25 351,25 351,24 351,24 351,24 351,24 351,24 351,24 351,24 351,24 351,24 351,24 352,24 352,24 352,23 352,23 352,23 352,23 352,23 352,23 352,23 352,23 353,22 353,22 353,22 355,22 356,22 357,22 359,22 361,22 361,22 364,22 365,22 365,22 365,23 365,23 364,24 363,26 362,27 362,29 362,29 362,31 362,32 362,33 362,35 362,38 362,38 362,39 362,40 362,40 362,40 361,42 361,42 361,42 362,43 363,43 363,44 365,44 366,45 366,45 367,45 368,45 369,45 370,45 370,45 372,45 372,45 372,45 373,46 374,46 375,46 375,47 378,47 379,49 379,49 380,49 381,49 382,49 382,49 383,49 383,49 386,50 387,50 388,50 389,50 391,52 392,53 392,53 392,54 393,54 393,55 393,55 394,55 394,55 395,56 396,57 396,57 397,58 398,58 399,58 399,58 400,59 400,59 402,59 403,59 403,60 403,60 403,60 403,62 404,63 404,63 405,64 406,64 406,64 407,64 407,65 408,65 409,66 409,68 408,69 409,69 409,69 410,70 412,68 413,67 414,67 416,66 418,65 422,65 422,65 422,65 422,65 425,65 422,68 422,69 420,70 415,77 414,79 409,84 410,84 412,85 412,86 413,86 414,87 415,89 416,89 417,90 417,91 417,91 417,92 418,93 419,94 419,94 419,94 419,95 419,95 419,96 420,96 420,97 420,97 420,98 420,99 420,99 421,99 422,99 423,99 423,99 424,99 424,98 425,98 426,98 426,98 428,97 430,96 430,96 431,96 432,95 433,96 434,96 435,96 437,96 437,96 438,96 438,95 439,95 439,95 439,95 439,94 439,91 439,91 439,91 439,90 439,90 439,90 439,89 439,89 440,88 441,87 441,87 442,87 442,87 442,87 443,87 444,86 444,86 444,85 446,85 447,85 447,85 448,84 449,84 449,84 450,83 451,83 450,83 451,83 451,82 452,81 454,80 455,80 454,79 456,78 457,77 458,77 458,77 460,76 460,76 461,76 462,77 462,77 462,78 463,77 462,77 463,77 464,77 465,77 465,77 465,77 465,77 466,77 466,77 466,77 467,76 468,76 468,76 468,75 469,75 470,75 469,74 469,74 469,74 470,74 471,73 472,72 475,73 475,73 476,73 477,73 478,74 480,73 480,74 480,74 481,74 483,74 483,75 484,74 485,74 484,75 485,76 485,76 485,76 485,76 484,76 486,78 486,78 487,78 487,78 488,78 488,78 489,78 488,79 488,79 487,81 487,81 487,81 487,82 487,82 486,83 486,84 485,84 486,85 486,85 486,86 486,86 486,86 486,86 487,85 488,85 489,85 490,86 491,86 491,86 491,86 492,86 492,86 493,87 495,87 495,88 495,88 495,88 496,88 496,88 496,88 497,88 497,88 497,89 497,89 496,90 496,90 496,91 497,91 497,91 497,91 496,91 496,92 497,92 497,92 497,92 497,92 497,94 497,95 497,95 497,95 497,95 497,95 497,96 498,96 497,96 498,96 499,96 500,97 500,97 499,97 498,98 498,99 496,98 496,97 496,97 496,96 495,96 494,95 493,95 493,95 493,94 493,94 490,93 489,93 489,93 489,93 488,93 487,94 487,94 486,94 486,94 486,95 487,95 487,95 486,97 487,97 487,97 487,97 487,98 487,98 487,99 487,99 488,101 488,102 489,103 489,103 489,104 489,104 489,105 489,105 489,105 489,105 489,106 489,106 490,107 490,107 490,108 490,108 491,108 492,108 492,108 492,109 492,109 491,109 489,110 488,110 486,111 485,111 485,112 484,113 482,114 481,114 480,114 480,115 479,115 479,115 479,115 477,116 474,118 474,118 473,117 473,117 472,117 472,118 472,119 472,119 471,119 471,120 470,120 468,120 468,120 466,113 465,110 465,108 464,108 464,108 464,108 464,108 464,108 464,108 463,108 463,108 462,108 462,108 462,109 462,109 462,110 463,110 463,111 463,111 463,111 463,112 463,112 463,112 463,113 463,114 463,115 463,115 464,115 464,116 464,117 463,118 463,118 463,118 464,118 464,118 464,118 464,119 464,119 464,119 463,119 463,119 462,120 461,120 461,121 461,122 461,122 461,122 461,122 462,123 462,123 463,123 463,123 464,123 464,123 464,123 465,123 465,123 465,123 465,123 466,123 466,124 466,124 466,125 466,125 467,125 467,125 467,125 468,125 469,125 469,125 470,125 472,131 472,131 472,131 472,131 471,131 471,131 471,131 471,130 471,130 471,130 471,130 470,129 469,130 469,130 469,130 469,129 469,129 469,128 468,128 467,129 468,129 468,130 468,130 469,130 469,131 468,131 468,131 467,131 466,131 466,131 466,131 466,131 465,131 466,132 466,132 465,132 464,131 464,132 464,132 464,132 464,132 464,132 464,133 463,133 463,133 462,132 462,132 462,132 462,132 462,132 462,131 461,131 461,131 460,131 460,131 460,131 460,131 460,132 460,132 460,132 460,132 460,132 459,132 457,132 457,132 457,132 458,131 458,131 458,132 458,132 458,132 458,131 458,131 459,131 459,131 459,131 459,130 458,129 458,129 458,128 458,128 458,128 458,127 456,127 455,127 454,127 454,127 454,127 453,127 453,127 451,128 450,129 449,129 449,130 448,130 446,130 446,130 445,131 444,130 444,131 443,130 442,130 442,130 442,130 441,129 440,129 440,129 439,129 439,129 438,129 438,129 438,129 438,128 438,128 438,128 437,128 438,128 437,128 437,128 437,128 436,128 436,128 435,128 435,128 435,128 434,128 434,128 434,130 434,130 434,131 434,131 434,132 434,132 433,133 432,133 432,134 431,134 431,134 430,135 429,135 429,135 428,136 428,136 428,136 428,137 428,137 427,138 427,139 427,139 426,139 426,139 426,140 425,141 425,142 425,142 424,144 424,145 423,146 422,147 421,147 421,147 419,148 418,148 418,148 417,148 417,149 417,149 416,149 416,149 415,149 413,150 413,150 414,150 414,151 414,151 414,151 415,152 415,153 415,153 416,153 416,154 417,155 417,155 417,156 417,156 418,156 418,157 418,157 419,159 419,159 419,159 419,160 420,160 420,161 421,161 421,161 421,162 422,163 422,164 421,164 421,164 420,165 419,166 419,166 418,166 418,167 417,167 416,167 414,168 413,168 413,168 412,169 412,169 411,170 411,170 411,170 410,171 410,172 410,173 410,173 409,174 409,175 409,176 409,177 409,178 409,179 408,179 408,180 408,180 407,180 405,180 402,181 402,181 401,182 400,184 399,185 399,185 397,186 396,186 395,187 395,187 395,188 395,188 394,189 394,190 392,192 392,193 391,194 391,195 390,195 390,196 390,196 389,197 389,198 389,198 389,198 389,199 389,200 389,200 389,200 389,200 387,200 387,201 386,201 386,203 386,203 385,203 385,203 384,203 384,203 384,203 382,204 382,204 380,204 379,205 379,205 378,205 377,205 376,206 376,206 373,206 373,207 373,206 372,207 372,207 370,208 369,208 369,208 367,209 366,208 366,209 365,209 364,209 363,211 363,211 362,211 361,212 354,211 352,211 352,211 351,211 351,210 351,210 351,210 351,209 351,209 352,208 352,208 352,207 352,207 352,207 352,206 351,206 352,206 350,205 350,205 350,205 349,204 347,204 347,204 346,203 344,203 343,202 343,202 342,202 342,202 341,202 341,203 340,203 340,203 339,204 339,204 339,203 338,204 338,202 338,202 339,200 339,200 339,199 339,199 339,199 339,198 339,198 338,197 336,196 335,195 335,195 334,195 332,195 332,195 330,195 330,195 329,195 327,195 327,195 328,194 326,194 326,194 325,194 324,195 324,195 324,195 322,197 321,198 321,198 321,198 314,207 314,207 310,212 306,218 303,217 300,216 298,215 297,215 295,214 293,214 288,212 286,212 285,212 286,212 285,212 286,211 286,210 286,210 285,209 285,209 285,209 285,208 286,208 285,207 285,207 285,207 285,206 285,206 285,206 285,205 285,205 284,204 283,204 283,204 283,204 283,204 280,201 279,201 279,201 279,201 276,202 276,202 276,202 274,202 273,202 273,202 272,201 272,201 270,201 268,199 268,199 268,198 267,198 268,198 267,198 267,198 266,197 265,196 264,195 264,195 263,195 263,195 261,196 259,196 259,196 258,196 258,196 257,196 257,196 255,197 254,197 253,197 252,197 251,197 250,197 249,197 248,196 248,195 247,194 246,194 245,194 244,193 243,193 243,193 242,192 240,191 239,191 239,191 239,191 239,191 238,190 238,190 238,189 238,189 238,189 237,189 237,188 237,188 237,188 237,187 236,187 236,187 236,186 235,186 235,186 235,185 235,185 236,185 236,185 236,184 237,183 236,183 236,182 235,181 234,180 234,180 233,180 233,179 233,179 232,179 232,179 230,178 230,177 229,177 229,177 228,177 227,176 227,176 227,176 227,175 226,175 225,174 224,174 224,173 224,172 223,172 222,172 220,172 220,172 219,172 218,172 217,173 217,173 217,173 217,174 216,174 216,174 215,175 215,175 215,174 214,174 212,174 211,174 211,174 210,175 209,176 209,176 209,177 209,177 208,178 208,178 208,178 208,178 208,178 208,179 208,179 207,179 207,178 207,178 206,178 206,178 206,178 206,178 206,177 205,177 205,177 205,177 205,176 205,176 204,177 203,177 203,178 203,178 202,179 202,179 202,179 202,179 202,179 202,179 202,179 201,179 201,179 200,178 200,178 199,178 199,178 198,178 198,178 197,179 197,179 197,177 197,177 197,176 196,176 196,176 196,175 196,175 196,174 196,174 196,174 196,173 196,173 196,172 195,172 195,172 194,171 194,171 194,171 193,170 193,170 193,170 193,170 195,169 195,169 195,169 195,169 195,168 194,167 194,166 193,166 193,165 192,166 191,166 190,167 187,168 186,168 185,169 184,170 184,170 182,170 182,170 182,171 181,171 181,172 180,172 178,173 177,173 177,173 177,173 177,174 177,174 177,175 177,175 175,176 174,177 174,178 173,179 171,180 171,181 171,181 171,182 170,183 170,185 169,185 169,186 167,187 167,187 165,187 165,187 164,188 164,188 163,188 163,189 161,189 159,190 159,190 158,190 157,190 156,190 156,190 155,191 155,191 154,191 154,192 155,193 155,193 155,194 155,194 155,195 156,195 156,195 156,195 156,195 156,195 156,196 156,196 156,196 156,197 156,197 156,198 156,198 156,198 155,199 154,200 153,201 153,201 152,202 152,202 151,202 150,203 149,204 149,204 148,205 148,205 148,205 147,206 147,207 147,207 147,207 147,208 146,208 146,208 146,208 144,210 143,211 142,212 141,212 141,213 141,213 140,213 140,213 140,214 140,214 140,215 139,215 139,215 138,215 137,215 137,215 137,215 137,215 136,215 136,215 137,215 137,215 136,215 135,215 135,215 135,215 134,216 133,215 133,215 131,214 131,213 131,213 129,212 128,212 123,212 122,212 122,212 123,211 123,210 124,210 124,210 125,210 126,211 127,211 127,211 127,210 128,210 128,209 128,209 128,209 128,208 128,208 128,208 128,207 127,207 127,207 127,206 126,205 126,205 126,204 126,204 127,203 127,202 127,202 127,201 127,201 127,201 127,200 128,200 129,200 131,200 131,199 131,199 131,199 131,199 130,199 130,199 130,199 129,199 129,199 129,199 128,200 128,200 128,200 127,200 127,200 127,200 126,199 127,199 127,199 126,199 126,199 126,199 126,199 126,199 125,199 125,199 125,198 125,198 124,198 124,198 124,198 124,198 122,198 122,198 122,198 119,197 119,198 119,198 119,198 119,198 119,199 119,199 118,199 116,200 116,200 116,200 116,200 115,201 115,202 115,202 115,202 115,202 114,202 114,202 114,202 114,202 114,202 114,203 114,203 113,203 113,203 113,203 114,203 114,203 113,204 113,203 113,204 112,204 112,204 112,204 112,204 113,204 112,205 112,205 112,205 112,205 112,205 112,206 112,206 113,206 113,205 113,205 113,205 114,206 114,207 114,207 114,207 106,204 105,203 104,202 102,200 102,198 101,197 100,197 97,197 96,198 96,198 96,198 95,198 95,198 94,198 94,198 93,198 93,198 92,198 91,198 90,198 90,198 88,197 88,197 85,197 85,196 85,196 84,196 76,193 74,192 73,192 73,192 73,191 73,189 73,189 73,189 73,188 73,188 73,188 73,188 73,188 73,187 73,187 72,187 72,187 72,187 72,187 72,187 71,186 71,186 71,186 71,185 71,185 71,184 71,184 71,184 70,183 70,183 70,183 71,182 71,182 70,181 70,181 69,181 69,180 70,180 69,178 69,178 69,178 69,178 69,178 69,178 69,177 69,177 68,176 68,176 69,176 69,176 69,175 69,175 68,175 67,174 67,174 66,174 66,174 64,175 63,175 62,175 61,175 57,175 54,175 45,176 43,173 43,172 43,172 42,171 42,171 42,171 41,171 41,171 41,171 41,171 40,171 40,171 39,171 38,172 38,172 37,172 36,173 35,173 34,173 34,173 34,173 33,173 32,173 32,173 31,173 31,173 31,173 29,172 29,172 28,172 26,172 26,171 26,171 25,171 25,170 24,170 24,170 24,169 23,169 23,169 23,168 22,167 22,167 22,166 22,166 22,166 22,166 22,166 21,165 21,165 21,164 20,163 20,163 20,163 20,162 20,162 20,161 20,161 20,161 20,161 19,161 18,160 18,160 19,159 19,159 19,159 20,159 21,159 22,159 25,157 26,157 27,157 27,157 28,157 28,158 28,158 28,157 27,157 27,157 26,156 26,156 24,155 23,154 23,154 23,153 23,153 23,153 22,153 22,153 21,153 21,153 19,153 19,153 19,153 19,152 19,152 18,152 18,151 18,150 18,150 17,149 17,150 16,150 16,149 17,149 17,149 17,149 17,148 17,146 16,146 16,146 16,146 16,146 16,145 15,145 15,145 15,144 12,146 12,146 11,146 11,146 11,146 11,146 10,146 10,146 9,146 9,146 8,146 7,146 6,146 4,146 4,146 4,146 4,146 3,146 3,146 3,145 2,145 2,145 3,144 3,144 3,144 3,143 4,143 3,143 3,142 3,142 3,141 3,141 3,141 3,141 3,140 4,140 4,140 5,140 5,139 6,139 6,139 5,137 4,137 3,136 2,136 2,136 2,136 1,136 1,136 1,136 0,136 3,132 4,130 4,129 5,129" id="2116" class="canton" fill="steelblue" stroke-width="1" stroke="white" geotype="canton" geoname="Is-sur-Tille" code_insee="2116" code_departement="21" nom_departement="Côte-d'Or" code_region="27" nom_region="Bourgogne-Franche-Comté"/></svg>