<?xml version="1.0" encoding="utf-8"?>
<svg version="1.1" id="svgmap" xmlns="http://www.w3.org/2000/svg" xmlns:xlink="http://www.w3.org/1999/xlink" x="0px" y="0px" width="100%" height="100%" viewBox="0 0 500 235">
<polygon points="163,15 164,15 164,15 164,15 165,14 166,15 166,14 166,14 167,14 168,14 169,14 169,14 170,14 170,14 171,14 172,14 174,13 174,13 175,13 175,13 175,13 177,13 177,14 178,14 178,14 178,14 178,14 178,14 178,15 178,15 178,15 178,15 177,15 178,16 178,16 178,17 178,17 178,16 178,16 178,16 178,17 178,17 180,16 182,16 182,16 182,16 184,16 184,16 186,16 186,17 187,17 187,17 188,17 190,18 191,18 193,20 196,21 200,22 200,22 203,24 204,24 208,24 212,25 214,26 221,28 222,29 222,29 224,29 224,29 224,29 227,30 226,30 228,30 229,30 231,30 231,30 231,30 232,30 232,31 232,31 232,31 232,31 232,32 232,32 232,34 232,35 232,35 232,35 232,36 232,38 231,38 232,38 233,38 233,39 233,39 233,39 235,40 235,40 236,40 236,40 237,40 237,40 238,40 238,40 239,40 239,40 240,41 242,41 242,41 243,41 243,41 244,42 245,42 245,43 246,43 247,43 248,44 248,44 250,45 251,45 251,44 252,44 252,45 253,45 253,45 254,45 254,45 254,45 255,45 255,45 255,46 255,46 256,47 256,47 256,47 256,48 256,49 271,50 272,44 272,43 272,42 273,40 273,39 275,37 275,37 276,34 277,33 278,32 278,31 280,31 280,30 281,29 282,29 283,29 284,28 285,28 286,28 287,28 287,28 288,28 290,27 291,27 292,26 293,26 294,26 294,26 295,27 295,27 297,27 297,26 296,26 295,26 294,25 294,24 293,23 292,23 292,23 292,23 292,22 293,22 293,21 293,21 294,21 294,21 294,20 294,20 294,20 294,20 294,19 294,19 293,19 294,19 293,18 294,18 294,18 293,18 294,17 294,17 294,17 294,17 294,17 295,16 295,16 295,16 296,15 295,15 296,15 296,15 296,15 296,14 297,14 297,14 297,14 297,13 297,13 297,12 297,12 297,12 298,12 298,12 298,11 299,11 299,11 299,10 300,10 300,10 300,10 301,10 301,9 301,9 301,9 302,9 302,9 302,9 302,8 302,8 303,8 303,8 303,8 304,8 304,7 305,7 305,7 305,7 305,7 305,7 306,6 306,6 306,5 307,5 307,4 307,4 307,4 307,4 307,4 308,4 307,4 307,4 308,4 308,4 308,3 309,4 309,3 309,3 310,3 309,3 310,3 310,3 310,3 311,3 311,3 311,3 312,3 313,3 314,3 314,3 315,3 315,2 315,2 316,2 315,2 316,2 317,2 317,2 318,2 318,1 318,1 319,2 319,2 320,1 320,1 321,1 321,1 322,1 322,1 323,1 323,0 324,0 324,0 324,0 324,0 325,0 325,0 325,0 326,0 326,0 326,0 326,0 327,0 328,0 328,1 328,1 328,1 329,1 329,1 329,1 329,1 329,1 330,1 330,1 330,1 330,2 331,2 331,2 331,2 331,2 332,2 332,2 332,2 332,2 332,2 333,2 333,2 334,3 334,3 334,3 334,3 334,4 335,4 336,5 336,5 337,5 338,5 341,4 343,5 343,5 343,5 344,4 344,4 345,3 345,3 346,3 347,3 347,3 347,3 348,3 348,4 349,4 350,5 350,5 351,6 351,6 352,6 353,6 353,7 353,8 352,9 352,9 352,10 352,10 352,11 352,11 351,12 351,13 351,13 351,14 350,14 349,14 349,14 348,14 348,14 348,15 348,15 349,15 349,15 349,16 349,16 349,17 349,18 347,19 346,20 346,21 346,22 345,23 345,23 345,24 345,24 344,24 344,26 343,35 345,38 345,39 347,46 349,46 350,47 351,47 351,48 351,49 354,50 355,51 355,52 357,52 358,53 359,53 359,53 359,54 359,54 360,55 360,56 360,56 361,56 362,57 363,57 364,58 366,58 366,58 368,58 369,58 370,58 371,57 372,57 374,56 375,56 375,56 376,55 377,56 377,56 378,56 378,57 379,57 379,58 380,58 380,58 381,59 381,59 382,59 382,60 384,60 385,61 385,61 387,61 388,61 389,61 390,61 391,62 393,62 393,62 394,62 396,62 397,62 398,61 399,61 399,61 400,60 400,61 400,60 401,60 401,60 403,60 404,60 404,59 405,59 405,59 405,58 406,58 406,58 407,57 407,56 407,55 407,55 408,55 409,55 410,54 411,54 411,53 412,53 413,53 414,54 414,54 415,55 416,55 416,55 416,55 418,54 419,54 428,55 430,56 432,56 432,56 432,56 433,56 433,56 434,57 435,57 435,57 436,58 438,58 440,59 441,59 442,60 443,61 443,62 444,63 444,63 445,63 446,63 447,63 449,64 449,64 451,64 451,63 453,64 454,62 455,61 455,61 455,61 455,61 455,60 456,59 456,59 456,59 456,59 457,58 457,58 457,58 457,58 457,58 459,57 460,56 460,55 462,58 462,58 463,58 464,59 467,60 470,62 471,62 473,64 476,65 476,66 478,67 478,67 479,68 481,69 481,69 481,69 482,69 482,69 482,70 483,70 483,70 483,70 483,70 484,70 485,68 485,68 487,67 489,66 490,66 492,67 493,67 493,67 494,68 494,68 494,68 494,69 495,69 495,69 495,69 496,70 496,71 497,71 498,72 498,72 498,72 498,72 499,72 499,72 499,72 499,73 500,73 500,73 500,74 500,74 499,75 499,76 499,77 498,78 498,78 498,78 498,78 498,78 498,79 499,79 497,81 497,82 496,84 496,84 496,85 496,86 496,86 495,87 495,87 495,88 495,88 495,88 495,88 495,89 495,89 495,89 495,90 495,90 495,90 495,90 495,90 495,90 495,90 494,90 494,91 494,91 494,92 493,92 492,92 492,91 491,91 490,90 490,89 490,89 490,89 489,88 488,87 488,87 485,86 484,85 483,84 481,84 479,84 477,84 476,83 474,83 474,83 474,83 474,83 473,83 472,83 471,84 471,85 471,85 471,85 470,85 470,85 469,85 469,86 469,86 469,86 469,86 468,86 466,86 465,87 456,85 455,84 453,84 451,85 451,84 450,85 449,85 448,85 448,85 448,85 448,85 447,85 447,86 447,85 446,85 446,86 445,86 445,87 444,86 443,87 444,87 443,87 441,88 440,89 440,89 439,88 439,89 439,89 440,89 439,92 440,91 440,92 440,92 440,93 441,93 441,93 442,94 443,94 444,93 447,93 447,94 447,94 447,94 447,94 447,94 447,94 448,95 449,95 451,94 449,96 445,99 442,98 442,98 441,98 440,97 438,96 434,96 434,96 427,95 427,95 425,95 425,95 424,95 424,95 422,94 422,94 421,94 421,93 420,92 419,92 419,91 419,90 418,90 418,89 418,88 418,87 417,87 417,87 417,87 417,86 416,85 416,85 416,85 415,86 414,86 414,86 411,88 409,89 408,88 408,88 407,89 406,91 405,93 403,95 403,95 402,96 402,96 399,96 399,97 400,98 400,98 399,100 398,100 397,101 397,101 396,102 396,103 396,103 394,104 394,104 392,104 392,104 392,103 391,103 390,103 389,103 389,103 388,102 387,102 387,102 386,102 386,102 386,102 386,103 386,103 385,105 384,105 384,105 384,105 383,105 383,105 383,106 383,107 383,107 383,107 383,107 383,109 382,110 383,110 383,110 383,110 384,110 384,110 384,110 385,110 385,110 385,111 385,111 386,112 386,113 386,114 386,114 386,115 386,116 385,119 385,120 384,120 384,121 384,122 383,122 383,123 383,125 382,127 382,128 382,129 382,129 381,130 380,131 380,131 379,133 378,133 378,134 378,135 377,136 376,137 375,138 375,138 375,140 374,140 374,141 374,142 375,143 375,143 374,143 374,143 372,144 371,144 371,144 370,144 368,145 367,145 366,144 366,144 366,144 366,144 366,144 365,144 365,145 365,145 364,145 364,145 361,143 361,143 361,144 360,144 360,144 360,144 359,144 359,144 357,145 356,145 354,144 354,144 354,145 354,146 354,146 353,146 352,146 352,147 352,147 352,148 352,148 351,149 350,149 350,149 350,149 347,151 346,151 344,152 344,152 343,152 342,153 340,152 339,152 338,152 338,151 338,151 337,150 337,150 338,149 338,148 337,147 337,146 336,145 335,144 335,144 335,144 333,145 332,146 331,147 330,148 330,148 329,148 328,149 328,150 328,150 328,150 327,149 327,149 326,149 325,149 324,149 323,149 323,149 322,148 321,147 321,147 320,146 319,145 319,144 319,144 319,143 320,142 320,141 320,140 320,140 320,140 320,139 320,138 319,138 318,139 317,139 317,139 317,139 316,139 316,139 315,139 314,140 313,140 313,140 312,140 312,140 311,140 311,140 307,140 304,140 300,140 299,140 299,140 298,141 297,141 296,141 296,141 295,142 295,142 294,142 294,143 293,143 293,144 292,145 292,147 290,149 290,150 290,151 289,151 288,153 287,154 285,154 285,155 284,156 283,158 283,158 283,159 283,159 283,159 283,159 283,160 283,160 282,160 282,161 282,161 282,161 281,161 280,162 279,162 279,163 279,163 277,163 277,163 277,163 277,163 276,163 276,163 276,163 276,163 276,163 276,162 276,162 276,162 275,162 275,162 274,161 274,161 273,161 273,161 273,161 272,161 270,160 268,162 267,162 264,166 263,168 262,168 262,169 262,170 262,171 262,171 261,172 261,173 260,173 260,175 260,176 260,177 259,177 259,178 258,179 258,179 258,181 257,182 257,184 256,184 256,185 256,186 255,187 254,190 253,191 253,192 253,193 252,194 251,196 250,198 250,198 250,199 250,199 250,199 251,200 251,201 252,201 252,202 253,203 253,203 253,204 252,208 252,209 252,209 252,210 252,211 252,211 251,212 251,213 251,214 250,215 249,215 249,216 248,216 248,218 247,218 246,219 246,220 245,220 244,222 244,222 243,222 242,223 241,224 241,224 240,224 240,225 240,225 238,227 237,227 237,228 237,229 236,230 236,231 235,231 235,231 235,232 235,233 234,234 233,234 233,234 233,235 233,235 231,235 230,235 229,234 228,234 227,234 226,234 225,234 224,234 224,234 224,234 223,234 223,234 223,234 222,234 220,234 220,234 218,233 218,233 218,233 218,233 214,233 213,233 211,234 210,234 208,234 206,233 204,233 203,233 202,233 200,233 200,233 200,233 200,233 198,232 196,232 196,231 195,232 195,231 194,231 193,231 193,231 192,232 192,232 191,231 191,231 191,230 191,230 192,229 192,227 192,226 192,226 192,225 192,225 192,224 192,223 192,222 192,222 194,220 194,220 193,219 192,219 191,218 190,217 190,217 189,216 189,216 189,216 188,215 187,215 186,215 186,215 184,214 184,214 184,214 184,213 184,212 184,212 185,212 183,212 183,212 182,212 182,212 182,212 181,212 181,211 181,211 180,211 180,211 178,210 177,210 177,210 177,209 178,209 178,209 178,208 177,208 176,208 176,208 176,207 175,208 175,207 175,207 175,207 175,206 174,206 169,204 168,203 167,203 165,200 164,200 163,199 163,198 163,198 163,198 162,198 162,197 162,197 161,197 161,197 160,195 160,195 159,194 159,193 158,192 158,192 158,191 158,189 158,189 158,189 157,189 157,188 157,188 157,187 157,187 156,186 156,186 156,185 155,184 155,183 155,181 154,180 154,180 154,179 154,179 154,178 153,178 153,177 152,176 152,176 151,175 151,174 151,173 151,172 150,172 149,170 149,169 149,168 148,167 148,167 147,166 147,165 146,165 146,163 146,163 145,163 145,163 145,162 145,162 144,162 144,162 144,162 143,161 143,161 143,160 142,160 142,159 142,159 142,159 142,159 140,159 139,159 137,159 135,160 134,160 134,160 133,161 133,161 133,161 132,161 132,161 132,162 131,162 131,162 130,162 129,162 129,162 128,162 128,163 128,163 128,164 128,164 127,165 126,165 125,165 125,164 124,165 123,165 122,166 120,167 119,167 118,167 117,167 116,167 116,167 116,166 115,166 115,166 114,166 113,166 112,166 112,166 111,166 111,166 111,166 111,166 110,166 110,166 109,166 109,165 108,165 106,165 107,164 107,164 106,163 106,163 104,163 104,163 103,163 103,163 103,163 102,163 102,163 100,162 101,162 99,162 93,160 90,159 88,158 88,158 88,158 87,157 87,157 87,157 86,156 85,155 84,153 84,152 83,152 83,151 83,150 83,150 81,148 81,147 81,147 81,147 80,147 80,146 80,146 79,145 79,145 79,144 79,144 79,144 78,142 78,142 78,141 77,141 77,140 77,139 76,140 76,139 77,138 75,138 74,138 74,138 74,138 75,137 76,137 75,137 75,136 75,136 74,136 74,136 73,136 72,135 72,135 70,135 70,135 69,135 66,134 63,134 63,133 62,133 62,132 62,131 62,130 62,130 63,129 63,129 64,129 65,129 66,129 66,129 66,128 65,127 65,127 65,126 64,126 64,125 65,125 65,125 66,125 66,125 66,125 67,126 68,126 69,126 70,126 70,126 70,125 70,125 70,124 69,124 69,124 68,123 68,122 67,121 67,121 66,121 65,120 62,119 61,119 61,119 60,119 59,118 58,117 57,117 57,116 57,116 57,115 57,115 53,115 46,115 46,114 44,115 43,115 42,115 41,115 40,115 40,115 37,116 37,116 37,116 37,116 36,116 36,116 36,116 35,114 34,114 35,114 34,113 33,113 33,114 32,114 31,113 30,114 28,114 26,115 24,115 24,115 22,115 18,115 18,115 18,115 17,114 16,114 15,113 15,113 15,113 14,112 14,112 14,112 14,112 14,112 14,111 14,111 14,111 14,110 13,110 13,109 12,108 12,107 11,106 11,106 10,105 10,104 9,103 9,103 9,102 10,102 10,102 10,102 10,101 10,101 10,101 11,101 10,100 6,99 7,98 7,97 7,97 7,97 7,96 6,96 5,96 4,95 3,95 1,94 1,94 0,93 2,91 1,91 0,90 1,90 3,90 3,89 3,88 3,87 3,86 3,85 3,85 3,85 3,84 5,83 6,81 8,79 12,77 13,76 13,76 13,76 13,76 14,76 16,76 22,75 25,75 25,75 27,75 27,75 29,75 29,75 31,75 32,75 33,75 34,75 36,75 36,75 37,75 37,75 37,75 36,75 36,76 37,75 37,75 39,75 39,75 41,75 42,75 46,76 47,77 48,77 48,78 50,79 51,79 51,80 51,80 52,80 53,80 54,81 55,82 56,84 57,85 57,85 58,86 59,86 60,85 60,85 60,85 61,85 63,84 63,84 64,84 64,84 66,84 67,84 67,85 67,85 68,85 69,85 69,85 69,85 70,85 70,85 73,85 73,85 73,84 73,83 73,83 73,83 73,82 73,82 74,81 75,81 76,81 78,82 79,82 80,83 82,83 82,83 83,84 83,84 83,84 83,84 84,84 84,84 88,85 92,86 97,87 102,88 103,88 104,88 109,87 110,87 111,87 111,87 112,86 113,85 113,86 113,86 114,85 116,84 121,83 129,83 129,83 130,83 130,83 132,83 132,83 132,84 133,84 137,83 136,83 135,82 131,76 131,75 129,72 129,72 129,71 129,70 129,69 128,68 126,55 126,55 125,51 125,51 124,49 124,48 124,48 124,48 124,47 123,45 123,43 123,43 122,42 121,41 120,40 120,40 119,38 119,38 118,34 118,34 117,33 116,31 117,31 118,30 118,30 118,30 121,30 121,30 122,30 123,30 124,31 124,31 124,30 125,30 125,30 125,30 126,29 127,28 128,28 129,28 129,28 130,28 130,28 130,28 130,27 131,27 131,27 131,26 132,26 132,26 132,26 132,25 132,26 132,26 132,26 133,26 133,26 133,25 134,25 134,25 134,25 135,24 136,23 136,23 137,23 137,22 137,22 138,21 138,21 139,21 140,21 141,21 142,21 143,21 144,21 145,21 149,21 150,20 152,20 152,19 153,19 153,19 155,18 162,17 163,16 163,16 163,15" id="2123" class="canton" fill="steelblue" stroke-width="1" stroke="white" geotype="canton" geoname="Talant" code_insee="2123" code_departement="21" nom_departement="Côte-d'Or" code_region="27" nom_region="Bourgogne-Franche-Comté"/></svg>