<?xml version="1.0" encoding="utf-8"?>
<svg version="1.1" id="svgmap" xmlns="http://www.w3.org/2000/svg" xmlns:xlink="http://www.w3.org/1999/xlink" x="0px" y="0px" width="100%" height="100%" viewBox="0 0 500 300">
<polygon points="316,15 316,15 316,15 319,17 319,17 319,17 319,17 320,17 320,17 320,17 320,17 320,16 321,16 321,16 321,16 321,16 321,16 321,16 321,16 321,16 322,16 322,16 322,16 322,16 322,16 323,16 323,16 323,16 323,15 323,15 323,15 324,15 324,15 324,15 324,15 324,15 325,15 325,15 325,15 325,15 325,15 325,15 326,15 326,15 326,15 326,15 326,15 326,15 326,15 327,15 327,15 327,15 327,15 327,15 327,15 327,15 327,15 328,15 328,15 328,15 328,15 328,15 328,15 329,15 329,14 329,14 329,14 329,14 329,14 330,14 330,15 330,15 331,15 331,15 331,14 331,14 331,14 332,14 332,14 332,14 332,14 331,13 331,13 331,13 331,13 331,13 331,13 332,13 332,13 332,13 332,13 332,13 332,13 332,12 332,12 332,12 332,12 333,12 333,12 333,12 333,11 333,11 334,11 334,11 334,11 334,10 335,10 335,10 335,10 335,10 336,10 336,10 336,10 336,10 336,10 337,10 337,10 337,10 338,10 339,10 339,10 339,10 339,10 340,10 340,10 340,10 340,10 340,10 341,10 341,10 341,9 341,9 342,10 342,10 344,12 344,13 344,13 344,13 344,13 343,14 343,14 343,15 343,15 344,16 345,16 346,17 347,18 348,18 350,19 350,19 351,19 351,19 354,19 356,18 359,18 359,18 367,15 368,14 369,13 373,11 375,10 382,5 384,4 385,3 386,3 387,2 388,2 390,1 391,0 392,0 392,0 392,0 393,0 394,0 395,0 397,1 399,1 400,1 401,1 403,1 403,2 403,2 404,2 406,3 406,3 407,3 408,4 412,6 413,6 413,6 415,7 415,8 416,8 417,9 418,9 419,10 420,11 421,11 422,11 422,11 422,11 421,12 421,12 424,14 424,14 424,14 424,14 424,14 425,14 426,16 427,16 428,17 428,17 428,17 428,18 428,18 428,18 429,18 429,19 430,19 430,19 429,19 429,19 429,20 429,20 429,21 430,21 430,21 429,22 429,22 430,23 431,23 431,24 431,24 431,24 431,25 431,25 431,25 431,25 431,26 431,26 431,26 431,26 431,26 431,26 431,26 431,26 431,26 432,27 432,27 431,28 431,29 429,29 429,30 429,30 429,30 429,30 429,30 429,30 429,30 430,31 430,31 430,31 430,31 430,32 431,32 431,33 431,33 431,33 431,33 431,33 431,33 436,38 436,38 436,37 436,37 436,38 437,38 437,38 437,39 437,39 437,39 438,41 438,41 438,41 438,41 438,41 438,41 438,41 439,42 439,42 439,42 439,42 439,42 439,42 439,42 439,42 439,43 439,43 439,43 439,43 439,44 440,44 440,44 439,44 440,44 440,44 439,44 439,44 439,44 439,44 439,44 439,44 439,45 439,45 439,45 440,45 440,45 441,46 441,46 441,46 441,46 441,46 441,46 441,46 441,46 441,46 441,46 441,46 441,46 442,46 442,46 442,46 442,47 442,47 442,47 442,47 442,47 442,47 442,47 442,47 442,47 442,47 442,48 442,48 443,48 443,48 442,48 442,48 443,48 443,49 443,49 443,49 443,49 443,49 443,49 443,49 443,50 443,50 443,50 443,50 443,50 443,50 444,50 444,50 444,50 444,50 444,50 444,50 444,50 445,50 444,50 444,51 444,51 445,51 445,51 445,51 444,51 444,51 444,51 444,51 444,51 444,51 444,52 444,52 444,52 444,52 444,52 444,52 444,52 443,52 443,52 443,52 443,53 443,53 443,53 443,53 443,53 443,53 443,53 443,53 443,53 443,53 443,53 442,54 443,54 443,54 443,54 443,54 443,54 443,54 443,54 443,54 443,55 443,55 443,55 443,55 443,55 443,55 443,55 443,55 443,55 444,56 444,56 444,56 444,56 444,56 444,56 444,56 445,56 445,57 445,57 445,57 445,57 445,57 445,57 445,57 444,57 444,57 444,58 444,58 445,58 445,58 445,58 445,58 445,58 445,58 445,58 446,58 446,58 446,58 446,58 446,58 446,58 446,58 446,58 447,59 447,59 447,59 447,59 447,59 447,59 448,59 448,59 448,59 448,59 447,59 447,60 447,60 447,60 448,60 448,60 448,60 448,60 448,60 448,60 448,60 447,60 448,60 448,61 448,61 449,61 449,61 449,62 449,62 450,62 450,62 450,62 450,63 450,63 450,63 450,63 450,63 450,63 450,64 450,64 450,64 451,64 451,64 451,64 451,64 451,64 451,64 452,64 452,64 452,65 452,65 451,65 451,65 451,65 451,65 452,65 452,65 452,65 453,65 453,66 453,66 453,66 453,66 453,66 453,66 453,66 452,66 452,66 452,66 452,66 452,67 452,67 453,68 453,68 453,68 453,68 453,68 454,68 454,68 454,68 453,68 453,68 454,68 454,68 454,68 454,68 454,68 454,68 454,68 454,68 454,68 454,68 454,68 454,68 454,68 454,67 455,68 455,68 455,68 455,68 454,68 454,69 454,69 455,69 455,69 455,69 455,69 455,69 455,70 455,70 455,70 456,70 455,70 456,70 455,70 456,71 456,71 456,71 456,71 456,71 456,71 456,71 457,71 457,72 457,72 457,71 457,71 457,71 457,72 457,72 457,72 457,72 457,72 458,72 458,72 458,73 458,73 458,73 458,73 458,73 458,73 458,73 458,73 458,73 458,74 458,74 458,74 458,74 458,74 457,74 457,74 457,74 457,74 457,74 457,74 457,75 457,75 457,75 457,75 457,75 457,75 457,76 457,76 457,76 457,76 457,76 458,76 458,76 458,77 458,77 458,77 458,77 458,77 458,78 458,78 458,78 458,78 458,78 459,78 459,79 459,79 459,79 460,79 460,79 460,78 460,78 460,78 460,78 460,78 460,78 460,78 461,79 460,79 461,79 461,79 461,79 461,79 461,79 461,80 461,80 461,80 461,80 461,81 461,81 462,81 462,81 462,81 462,81 462,81 462,81 462,81 462,81 462,81 463,82 463,82 463,82 463,82 463,82 462,82 462,82 462,82 462,82 462,83 462,83 463,83 463,83 462,83 462,83 462,83 462,83 461,84 461,84 462,84 462,84 462,84 462,84 462,84 462,84 462,84 462,84 462,84 462,84 462,84 462,85 462,85 462,85 462,85 462,85 463,85 463,85 463,86 463,86 463,86 462,86 462,86 462,87 462,87 462,87 462,87 462,87 461,87 461,87 461,88 460,88 460,88 460,88 461,88 461,88 460,88 460,89 460,89 460,89 460,89 460,90 459,90 459,90 459,90 459,90 459,90 458,91 458,91 458,91 459,91 459,91 459,92 459,92 459,92 459,92 459,92 459,92 459,93 459,93 459,93 460,92 460,92 460,92 460,92 460,92 460,93 459,93 459,94 459,94 459,94 459,94 459,94 459,94 460,95 459,95 459,95 460,95 460,95 461,95 461,95 461,95 461,95 461,95 461,95 461,96 461,96 461,96 461,97 461,97 460,97 460,98 460,98 461,99 461,99 462,99 462,99 463,99 464,100 464,100 464,100 464,100 465,100 465,100 465,100 465,101 465,101 465,101 465,101 465,101 465,101 465,101 465,101 465,102 465,102 465,102 465,102 465,102 465,102 465,102 466,102 466,102 466,102 465,102 465,102 465,103 465,103 465,103 465,103 465,103 466,103 466,103 466,103 465,103 465,103 465,103 465,104 465,104 465,104 466,104 465,105 466,105 466,105 466,105 466,105 466,104 466,104 466,104 467,104 467,104 467,105 467,105 467,105 467,105 467,105 467,105 467,105 467,105 468,105 468,105 468,105 468,105 468,106 468,106 468,106 468,106 468,106 468,106 468,107 468,107 468,107 468,107 468,107 468,107 468,107 469,108 469,108 469,108 468,108 468,108 468,108 468,108 468,108 468,108 468,108 467,108 467,108 467,108 468,109 468,109 468,109 468,109 468,109 467,109 467,109 468,109 468,109 468,109 468,109 468,109 468,109 468,110 468,110 468,110 468,110 468,110 468,110 468,110 468,110 468,110 468,110 468,110 468,110 468,110 468,110 469,110 469,110 469,110 469,110 469,110 469,110 469,110 469,110 469,111 469,111 469,111 469,111 469,111 469,111 469,111 469,111 469,111 469,111 469,111 470,111 470,111 470,112 470,112 470,112 470,112 470,112 470,112 469,112 469,112 469,112 469,112 469,112 470,112 470,112 470,112 470,112 470,112 470,112 470,112 471,112 471,112 471,113 471,113 471,113 471,113 471,113 471,113 471,113 471,113 471,113 472,113 472,113 472,113 472,113 472,113 472,113 472,113 472,113 472,113 472,113 472,113 472,113 472,113 472,114 472,114 472,113 472,113 472,113 472,114 472,114 472,114 472,114 472,114 473,114 473,114 473,114 472,114 472,114 472,114 472,114 472,114 472,114 472,114 472,115 473,115 473,115 473,115 473,115 473,115 473,115 473,115 473,115 473,115 473,115 473,115 473,115 473,115 473,115 473,115 473,116 473,116 473,116 473,116 473,116 473,116 473,116 473,116 473,116 473,116 472,116 472,116 472,117 472,117 473,117 473,117 473,117 473,117 473,117 473,117 473,117 473,117 473,117 472,117 472,117 473,118 473,118 473,118 473,118 473,118 473,118 474,118 474,118 474,118 474,118 474,118 474,118 474,118 474,118 474,118 474,118 474,118 474,118 474,118 474,118 474,118 474,118 474,118 474,118 474,118 474,119 474,119 474,119 474,119 474,119 474,119 474,119 475,119 475,119 475,119 475,119 475,119 475,119 475,119 476,119 476,119 476,119 476,119 476,119 476,119 476,119 476,119 476,119 476,119 477,119 477,119 477,119 477,119 477,119 476,119 476,119 476,119 476,119 476,119 476,119 477,120 477,120 477,120 477,120 477,120 477,120 477,120 477,120 477,120 477,120 477,120 477,120 477,121 477,121 477,121 478,121 478,121 478,121 478,121 478,121 478,121 478,121 478,121 479,121 479,121 479,121 479,121 478,121 478,122 478,122 478,122 478,122 478,122 479,122 479,122 478,122 479,123 479,123 479,123 479,123 479,123 479,123 479,123 480,123 480,123 480,123 480,123 480,123 480,123 480,124 480,124 481,124 481,124 481,124 481,124 481,124 482,124 482,124 482,124 482,124 482,124 482,124 483,124 483,124 483,124 483,125 483,125 483,125 483,125 483,125 483,125 483,125 484,125 484,125 483,125 483,125 483,125 484,125 484,125 484,125 484,125 484,125 484,125 484,125 485,125 485,125 485,125 485,125 485,125 485,125 485,126 485,126 486,126 486,126 486,126 485,126 485,126 485,126 486,127 486,127 486,127 486,127 486,127 485,127 485,127 485,127 485,127 485,127 485,127 486,127 486,127 486,127 486,127 486,128 485,128 485,128 485,128 486,128 486,128 486,128 486,128 486,128 487,128 487,128 487,128 488,128 488,128 488,128 489,128 489,128 490,128 490,128 490,128 490,128 490,128 490,128 490,128 491,128 491,128 491,128 491,128 491,128 492,128 492,129 492,129 492,129 492,129 492,129 492,129 493,129 493,129 493,129 493,129 493,129 493,129 493,129 493,129 493,129 493,129 493,129 493,129 493,129 493,130 493,130 493,130 493,130 493,130 493,130 494,130 494,130 495,131 495,131 495,131 496,131 496,131 496,131 496,131 496,131 496,131 495,131 495,131 495,131 495,131 495,132 495,132 495,132 495,132 495,132 495,132 494,132 494,132 494,132 494,132 494,133 494,133 494,133 494,133 494,133 495,133 494,133 495,133 495,134 495,134 495,134 495,134 495,134 495,134 495,134 495,134 495,134 495,134 495,134 495,135 495,135 495,135 495,135 496,135 496,135 496,135 496,135 496,135 496,135 496,136 496,136 496,136 496,136 496,136 496,136 496,136 497,136 497,136 497,136 497,136 497,136 497,136 497,136 497,137 497,137 497,137 497,137 497,137 497,137 498,137 498,137 498,137 498,137 499,137 499,137 498,138 498,138 498,138 498,138 498,138 498,138 498,138 498,138 498,138 498,138 499,138 499,139 499,139 499,139 499,139 499,139 498,139 498,139 498,139 498,139 499,139 499,140 499,140 499,140 499,140 499,140 498,140 498,140 498,141 498,141 498,141 498,141 498,141 498,141 498,142 498,142 498,142 498,142 498,142 498,142 499,142 499,142 499,142 499,142 499,142 499,142 499,143 499,143 499,143 499,143 499,143 499,143 499,143 499,143 500,143 500,143 500,144 500,144 500,144 500,144 500,144 500,144 500,144 500,144 500,144 500,144 500,144 500,144 500,144 499,144 499,145 500,145 500,145 500,145 500,145 499,145 499,145 499,145 499,145 499,145 499,145 500,145 500,145 500,145 500,146 500,146 499,146 499,146 499,146 499,146 498,146 498,146 498,146 498,146 498,146 498,146 498,146 498,146 498,146 497,146 497,146 497,146 497,146 497,146 497,147 497,147 497,147 497,147 497,147 497,147 497,147 496,147 496,147 496,147 496,147 496,147 496,147 496,148 496,148 496,148 496,149 496,149 496,149 496,149 496,149 497,149 497,149 497,149 497,149 498,149 498,149 498,150 497,150 497,150 497,150 497,150 497,150 497,151 497,151 497,151 496,151 496,151 496,151 496,151 496,151 496,151 496,151 496,152 496,152 496,152 496,152 496,152 496,152 496,152 497,153 497,153 497,153 496,153 496,153 497,153 497,153 497,153 497,153 496,153 496,154 496,154 496,154 496,154 495,154 495,154 495,154 495,154 495,154 495,154 495,154 495,154 495,154 495,155 495,155 495,155 495,155 495,155 495,155 495,155 494,155 494,155 494,156 494,156 493,156 493,156 494,156 494,156 494,156 494,156 494,156 494,156 494,157 494,157 493,157 493,157 493,157 493,157 491,157 491,157 491,157 491,157 491,157 491,157 491,157 491,157 491,157 490,157 490,157 490,157 490,157 489,157 489,157 489,157 489,157 489,157 489,157 489,157 489,157 489,157 489,157 489,157 488,157 488,157 488,158 488,158 488,158 488,158 489,158 489,159 489,159 489,159 489,159 489,159 489,160 488,160 488,160 489,160 489,160 489,160 489,160 489,161 489,161 489,161 489,161 489,162 488,162 488,162 488,162 488,162 488,162 488,162 488,162 488,162 488,162 487,162 487,162 487,162 487,162 487,163 487,163 487,163 487,163 486,163 486,163 486,163 486,162 486,162 486,162 485,163 485,163 485,163 485,163 485,163 485,163 485,163 485,164 485,164 485,164 485,164 485,164 485,164 485,164 485,164 485,164 484,164 484,164 484,164 484,165 484,165 484,165 484,165 484,165 484,165 484,164 483,164 483,164 483,164 483,164 483,164 483,164 483,164 483,164 483,165 483,165 483,165 483,165 482,165 482,165 482,165 482,165 481,166 481,166 481,168 481,168 481,169 480,171 479,173 479,174 479,174 478,175 477,175 477,175 476,176 476,177 475,177 475,177 475,177 475,177 475,177 474,177 474,177 474,177 473,178 472,178 472,178 472,179 472,179 472,180 472,181 472,181 472,181 472,181 472,181 472,182 471,182 471,182 471,182 471,182 471,182 470,181 470,181 470,181 470,181 470,181 469,181 469,181 469,181 469,181 469,181 468,181 468,181 468,181 468,181 468,181 467,181 467,181 468,181 467,181 467,181 467,181 467,181 467,181 467,182 467,182 467,182 467,182 467,182 466,182 466,182 466,182 466,182 466,182 466,182 466,182 466,182 466,182 467,182 467,182 466,183 466,183 466,183 466,183 466,183 466,183 467,183 467,183 467,183 467,183 467,183 467,183 467,184 467,184 467,184 467,184 467,184 468,184 468,184 468,184 468,184 468,184 468,184 468,184 469,184 469,184 468,185 468,185 468,185 468,185 468,185 468,185 468,185 468,185 467,185 467,185 467,185 467,185 467,185 467,185 467,185 467,185 467,185 466,185 466,185 466,185 466,185 466,185 466,185 466,185 466,186 465,185 465,186 465,186 465,186 464,186 464,186 464,186 465,186 465,186 465,186 464,186 464,187 464,187 464,187 464,187 463,187 463,187 463,187 463,187 463,187 463,187 463,187 463,187 463,188 463,188 463,188 463,188 463,188 463,188 463,188 463,188 463,188 464,188 464,188 463,188 463,188 463,188 463,188 463,188 463,188 463,189 463,189 463,189 463,189 463,189 463,189 464,188 464,188 464,189 464,189 464,189 464,189 463,189 463,189 463,189 463,189 463,189 462,189 461,189 461,189 461,189 461,189 461,189 461,189 461,189 461,189 461,189 461,189 461,189 461,189 461,190 461,190 460,190 460,190 460,190 460,190 460,190 460,190 460,191 460,191 460,191 460,191 460,191 460,191 460,191 459,191 459,191 459,191 459,191 459,191 459,191 459,191 459,191 459,191 459,190 459,190 459,190 459,190 459,190 459,190 459,190 458,190 458,191 458,191 458,191 458,191 458,191 458,190 458,190 458,190 457,190 457,190 457,190 457,191 457,191 456,191 456,191 456,191 456,191 456,191 456,191 456,191 455,191 455,191 455,191 455,191 455,191 454,191 454,191 454,191 454,191 454,191 454,191 454,191 454,191 454,191 453,191 453,191 453,191 453,191 453,192 453,192 453,192 453,192 453,192 453,192 453,192 453,192 453,193 453,193 453,193 452,193 452,193 452,193 452,193 452,193 451,193 451,193 451,193 451,193 451,193 451,193 450,193 450,193 449,193 449,193 449,193 449,193 449,194 449,194 449,194 449,194 450,194 450,194 450,194 449,195 449,195 449,195 449,195 449,195 449,195 449,195 448,195 448,195 448,195 448,195 447,196 447,196 447,196 447,197 446,197 445,197 445,197 445,197 445,197 444,197 443,198 443,198 443,198 443,198 443,198 443,198 443,198 443,199 443,199 442,199 442,199 442,198 442,198 442,198 442,198 442,198 441,198 441,198 441,198 441,198 441,198 441,198 441,198 440,197 440,197 440,197 440,197 440,197 439,198 439,198 439,198 438,197 438,197 438,197 437,197 437,197 437,197 437,197 437,197 437,197 437,198 437,198 437,198 437,198 438,198 438,198 438,199 438,199 438,199 438,199 438,200 438,200 439,201 439,201 439,201 439,202 439,202 439,202 439,202 438,203 438,203 438,203 438,203 438,203 444,203 445,203 446,203 446,203 446,203 446,203 446,204 446,204 447,204 447,204 447,204 447,205 447,205 447,205 447,205 447,205 447,205 447,205 447,205 447,205 446,206 446,206 446,206 446,206 446,206 446,206 447,206 447,206 447,206 447,206 447,206 447,206 447,206 447,206 447,206 446,206 446,206 446,206 446,206 446,207 446,207 446,207 446,207 446,207 446,207 446,207 445,207 445,207 445,207 445,207 445,206 445,206 445,206 445,206 444,206 444,206 444,206 444,207 444,207 444,207 443,207 443,207 443,208 443,208 442,208 442,208 442,208 442,208 442,208 442,208 441,208 441,208 441,209 441,209 442,209 442,209 442,209 442,210 442,210 442,210 442,210 442,210 443,210 443,210 443,210 443,210 443,210 443,210 443,210 444,210 444,210 444,210 444,210 444,211 444,211 444,211 444,212 445,212 445,212 445,212 445,212 445,212 445,213 445,213 445,213 445,213 446,213 446,213 446,213 446,213 446,213 446,213 446,213 446,213 446,213 446,214 446,214 446,214 445,214 445,214 445,214 445,214 445,214 445,214 446,216 446,216 446,216 446,217 445,218 445,219 445,219 445,219 445,219 445,219 444,219 444,219 444,219 444,219 444,219 444,220 444,220 445,220 445,220 445,221 445,221 445,221 445,221 446,221 446,221 445,221 445,221 445,221 445,221 445,222 445,222 445,222 445,222 445,222 445,222 445,223 444,223 444,223 444,223 443,223 443,223 443,223 443,223 443,223 442,223 442,223 442,223 442,223 442,223 442,223 442,224 441,224 441,224 441,224 441,224 441,224 441,224 441,224 441,224 441,224 441,224 441,224 441,225 441,225 441,225 441,225 441,225 441,225 441,225 442,225 442,225 442,225 442,226 442,226 442,226 442,226 442,227 442,227 442,227 443,227 445,229 445,229 446,229 446,229 446,229 446,229 447,229 447,229 447,229 447,229 447,229 447,229 447,230 448,230 448,230 448,230 448,230 448,230 448,230 447,230 447,230 447,230 448,230 448,230 448,231 448,231 448,231 448,231 448,231 448,231 448,231 448,231 448,231 448,231 448,231 448,231 448,231 448,231 448,232 448,232 448,232 448,232 448,232 447,232 447,232 447,232 447,232 447,232 445,232 445,232 444,233 441,233 441,233 441,233 441,232 441,232 441,232 439,233 438,233 438,233 437,234 436,233 435,234 433,234 433,234 433,234 433,234 433,234 432,234 431,234 431,234 431,234 431,234 429,235 428,235 428,235 428,235 427,235 427,235 427,235 426,235 426,235 426,235 426,235 426,235 426,235 426,237 425,238 425,238 424,238 424,238 423,239 423,239 423,239 423,240 423,241 423,241 424,242 424,242 423,242 423,243 423,243 426,243 426,243 426,243 426,244 426,244 426,244 426,244 425,245 425,245 425,245 425,245 425,245 422,246 422,246 422,246 422,246 419,245 418,245 417,245 416,245 416,245 414,245 414,245 414,244 414,244 414,244 413,244 413,244 413,244 413,244 413,244 412,243 411,243 411,243 411,243 411,243 410,243 410,243 410,243 409,243 409,243 409,243 409,243 409,243 408,243 408,242 408,242 408,242 407,242 407,241 406,241 406,241 406,241 406,241 406,241 406,240 405,240 405,240 404,240 403,240 403,240 403,240 402,240 402,240 402,241 402,241 402,240 402,240 401,240 401,240 401,239 401,239 401,239 401,239 400,240 400,240 400,240 400,240 400,240 401,240 400,240 400,240 400,241 400,241 400,241 400,241 400,241 400,242 400,242 400,242 400,242 399,242 399,242 399,243 398,243 398,243 398,243 398,243 398,243 397,244 397,244 397,244 397,244 397,244 397,244 397,245 397,245 397,245 397,245 397,245 397,246 397,246 396,247 396,249 396,249 396,249 395,251 395,251 395,251 395,251 394,251 394,252 394,252 394,252 394,252 394,252 394,252 394,252 394,252 393,252 393,253 393,253 393,253 393,253 393,253 393,253 393,253 393,253 393,253 393,253 392,254 391,254 391,254 391,254 391,254 391,255 390,255 390,255 390,256 389,256 389,257 389,257 389,257 389,257 389,257 389,257 388,258 387,258 387,258 386,259 386,259 386,259 386,259 386,259 386,259 386,260 385,260 385,261 385,261 385,261 385,261 384,261 384,261 384,261 384,261 384,261 384,261 384,261 383,262 383,262 383,262 383,262 383,262 383,262 383,262 383,262 383,262 383,262 382,263 382,263 382,263 382,263 382,263 382,263 382,263 382,263 382,263 382,263 382,263 382,263 382,263 382,264 381,264 381,264 381,264 381,264 381,264 381,264 381,264 381,264 380,264 380,264 380,264 380,264 380,264 380,264 380,264 380,264 380,264 379,264 379,264 379,264 379,265 379,265 378,265 378,265 378,265 378,265 378,265 377,265 377,265 377,265 377,265 377,265 377,265 377,266 377,266 377,266 377,266 377,266 376,266 376,266 376,266 376,266 376,266 376,266 376,266 376,267 376,267 376,267 375,267 375,267 375,267 375,267 375,267 375,267 375,267 375,267 374,267 374,267 374,267 374,267 375,268 375,268 375,268 375,268 374,268 374,268 373,269 373,269 373,269 373,269 373,269 373,269 373,269 372,269 372,270 372,270 372,270 372,270 371,270 371,270 371,270 371,270 371,270 370,270 370,271 369,271 369,271 369,271 369,271 369,271 368,271 368,271 368,271 368,271 368,271 368,272 368,272 367,272 367,272 367,272 367,272 367,272 367,272 367,272 366,272 366,272 366,272 366,272 366,272 365,272 365,272 365,272 365,272 365,272 365,272 365,272 364,273 364,273 364,273 364,273 364,273 364,273 364,273 363,273 363,273 363,273 363,273 363,273 363,273 363,273 363,273 363,273 363,273 363,274 363,274 363,274 362,274 362,274 362,274 362,274 362,274 362,274 362,274 361,274 361,274 361,274 361,274 361,274 360,274 360,274 360,274 360,274 360,274 360,274 360,274 360,275 360,275 360,275 360,274 360,274 360,274 360,274 360,274 360,275 359,275 359,275 359,275 359,275 359,275 359,275 359,275 359,275 358,275 358,275 358,275 358,276 358,276 358,276 358,276 357,276 357,276 357,276 357,276 356,277 356,277 356,277 356,277 356,277 355,277 355,277 355,277 354,277 354,277 354,277 354,277 354,277 354,277 353,277 352,278 352,278 352,278 352,278 351,278 351,278 351,278 351,279 351,279 350,279 350,279 350,279 350,279 350,279 350,279 350,280 350,280 350,280 350,280 349,280 349,280 349,280 349,281 349,281 349,281 348,281 348,281 348,281 347,281 347,281 347,281 347,281 347,281 347,281 347,282 347,282 347,282 347,282 347,282 347,282 347,282 347,282 346,282 346,282 346,282 346,282 346,282 346,282 345,282 345,282 345,282 345,283 345,283 345,283 345,283 344,283 344,283 344,283 344,283 343,283 343,283 343,283 343,283 343,283 343,283 343,284 343,284 342,284 342,284 342,284 342,284 342,284 342,284 342,284 342,284 341,285 341,285 341,285 341,285 341,285 340,285 340,285 340,285 340,286 339,286 339,286 339,286 339,286 339,286 339,286 338,286 338,286 338,286 338,286 338,286 338,286 338,287 337,287 337,287 338,287 338,287 338,287 338,287 338,287 337,287 337,288 337,288 337,288 337,288 337,288 336,288 336,288 336,288 335,288 335,289 335,289 335,289 335,289 335,289 335,289 336,289 336,289 336,289 336,290 335,290 335,290 335,290 335,290 335,290 335,290 335,291 334,291 334,291 334,291 334,291 333,291 333,291 333,291 333,291 332,291 332,291 332,291 332,291 332,291 332,292 332,292 332,292 332,292 332,292 332,292 332,292 331,293 331,293 331,293 331,293 331,293 331,293 330,293 330,293 330,294 329,294 329,294 329,294 329,294 329,294 329,294 329,294 329,294 329,294 329,294 328,294 328,294 328,294 328,294 328,294 328,294 328,294 328,294 328,294 327,295 327,295 327,295 327,295 327,295 327,295 327,295 327,296 327,296 327,296 327,296 327,296 327,296 327,296 327,296 326,296 326,296 326,296 326,296 326,296 326,296 325,296 324,297 324,297 324,297 324,297 324,297 324,297 323,297 323,298 323,298 323,298 323,298 323,298 323,298 323,298 322,297 321,297 321,297 321,297 321,297 320,297 320,296 319,296 319,296 319,296 319,296 319,296 318,295 318,295 318,295 318,295 318,295 318,294 318,294 318,293 318,293 317,293 317,293 317,292 317,292 317,292 316,292 316,292 314,292 314,292 313,292 312,292 312,292 310,292 310,292 308,292 308,292 308,292 305,294 305,294 305,294 304,295 304,295 304,295 304,295 304,296 304,297 304,297 303,296 302,296 301,296 301,296 297,295 297,295 297,295 297,295 297,294 298,292 298,292 298,292 298,292 298,291 298,291 298,291 299,290 299,289 299,288 299,287 299,285 299,285 299,285 299,285 299,285 298,285 297,285 297,285 297,285 297,285 297,285 297,285 297,287 297,287 297,287 295,287 295,287 295,287 294,288 293,289 292,289 292,289 292,290 292,290 292,290 291,291 292,291 292,292 292,292 291,292 291,292 291,292 291,292 290,292 288,292 288,292 287,292 287,292 286,292 286,291 286,291 284,292 283,292 283,292 283,292 284,292 284,292 284,293 284,293 284,293 284,293 283,294 283,295 282,295 281,296 280,296 280,296 280,296 280,296 280,296 280,296 280,296 280,296 280,297 280,297 281,297 281,297 281,298 281,298 281,299 281,299 282,299 282,300 282,300 282,300 282,300 281,300 281,300 281,300 281,300 281,300 281,300 281,300 281,300 281,299 280,299 280,299 280,299 280,299 279,299 279,299 278,299 278,299 277,298 277,298 276,297 275,297 275,296 275,296 274,294 274,294 273,293 273,293 273,292 273,292 272,291 272,290 272,290 272,290 272,290 272,290 272,290 273,289 273,289 275,289 275,288 276,288 277,288 277,288 277,288 277,287 278,287 278,287 278,287 278,286 278,286 278,286 279,286 279,285 278,285 278,285 278,284 277,283 277,283 277,283 277,282 276,282 276,281 276,281 276,281 276,281 275,280 275,280 275,280 274,281 273,281 273,281 272,282 272,282 272,282 271,282 271,282 271,282 270,282 270,282 270,282 269,282 269,282 268,282 268,282 268,282 268,282 267,281 267,281 267,281 267,281 266,281 266,281 266,281 265,281 265,281 265,281 264,280 264,280 263,280 263,280 263,280 263,280 262,279 262,279 262,279 261,279 261,279 261,279 260,279 260,279 260,279 260,279 260,279 260,279 260,278 260,278 260,278 260,278 260,277 260,277 260,277 260,277 259,276 259,276 259,276 259,275 259,275 258,274 258,273 258,273 258,273 258,272 258,272 258,271 258,271 258,271 259,271 259,271 259,271 259,271 259,271 259,271 259,271 260,271 260,272 260,272 261,272 261,272 261,272 262,272 262,271 263,271 263,270 264,270 264,270 264,268 265,268 265,268 265,267 265,267 265,266 265,264 265,264 265,264 266,264 266,264 266,263 266,263 266,263 266,263 265,262 265,262 265,262 265,262 264,262 264,262 264,261 264,261 264,261 264,261 264,261 263,261 263,260 263,260 263,260 262,260 262,260 261,259 261,259 260,259 258,258 258,258 258,257 257,257 256,256 256,256 256,256 256,256 256,256 257,256 257,255 257,255 257,255 257,255 257,255 257,255 257,255 256,255 256,255 256,255 256,255 256,254 254,253 254,253 254,253 254,253 254,252 254,252 254,251 254,251 254,251 254,250 254,250 254,250 255,250 255,250 255,250 255,250 255,250 256,250 256,250 256,250 256,250 257,250 257,250 256,250 256,250 256,249 256,249 256,249 257,249 257,249 257,249 257,249 257,249 257,249 258,249 258,250 258,250 258,250 258,250 258,250 258,250 258,250 258,250 259,250 259,250 259,250 259,250 259,250 259,250 259,249 259,249 259,249 259,249 259,249 259,249 259,249 260,249 260,249 260,249 260,249 260,249 260,249 261,249 261,248 262,248 262,248 262,248 263,248 263,248 263,248 263,248 263,248 263,248 263,247 264,247 264,247 264,247 264,247 263,247 263,246 263,245 263,245 263,244 263,244 263,244 264,244 264,244 264,244 264,244 264,244 265,244 265,244 265,244 265,244 265,244 265,244 265,244 266,243 266,243 266,243 267,243 267,243 267,243 267,243 267,243 267,243 267,243 267,243 267,243 267,242 266,241 266,240 266,240 266,240 265,239 265,239 265,239 265,239 265,239 266,239 266,238 266,238 267,238 267,238 267,238 267,238 267,238 267,238 267,237 267,237 267,237 268,236 269,236 269,236 269,236 269,235 269,235 269,234 270,234 270,234 270,234 270,233 269,233 269,232 269,232 269,231 270,231 270,231 270,230 270,230 270,229 270,228 270,228 270,228 270,228 270,227 271,227 271,226 271,226 271,225 271,224 271,224 271,223 272,223 272,223 272,223 272,223 273,222 273,222 273,222 274,222 275,222 275,222 276,222 277,222 277,221 278,221 279,221 279,221 279,221 279,221 279,220 280,220 280,220 281,220 281,220 281,220 281,220 281,220 281,218 281,218 282,218 282,217 282,217 282,216 282,216 283,216 283,216 283,216 283,216 283,216 283,215 284,215 284,215 284,215 284,214 284,214 284,214 283,213 283,213 283,211 283,211 282,210 282,210 282,210 282,210 281,209 280,208 280,208 280,207 280,207 280,206 280,206 280,206 280,206 280,206 281,205 281,205 282,205 282,205 282,204 282,204 282,204 283,203 283,203 284,203 284,203 284,202 286,202 287,202 287,202 288,202 288,202 288,201 289,201 289,200 289,200 290,200 290,200 290,199 290,199 290,198 290,198 290,197 290,197 289,197 289,196 289,196 288,196 288,196 287,196 287,196 287,196 286,196 286,195 286,195 286,195 286,195 285,195 285,194 285,194 285,194 285,194 284,193 284,193 283,192 283,192 282,191 281,191 281,190 280,190 280,190 280,190 280,189 280,189 280,189 280,189 280,188 280,188 280,188 280,187 280,186 280,186 279,186 279,186 279,185 279,185 279,185 279,185 280,185 280,185 280,185 280,184 281,185 281,185 281,185 281,185 281,185 281,185 281,185 281,185 281,185 282,185 282,185 282,184 282,184 283,184 283,184 284,185 284,185 285,185 286,185 286,184 286,184 287,184 287,184 288,184 288,184 288,183 288,183 288,183 287,183 287,183 287,182 287,182 287,182 287,182 287,181 287,181 288,181 287,180 287,180 287,180 287,179 287,179 288,178 288,177 288,176 288,176 288,176 288,176 288,175 288,175 287,175 287,175 286,174 285,174 284,174 284,174 284,174 283,174 283,174 283,174 283,174 282,173 282,173 282,173 281,173 281,173 280,173 280,173 279,172 279,172 279,172 279,172 279,172 279,172 279,172 279,171 279,171 279,171 279,171 279,171 279,171 279,170 280,170 281,170 282,170 282,170 282,170 284,169 284,169 284,169 284,168 284,168 284,168 285,167 286,167 287,166 287,166 287,166 287,166 286,165 286,165 286,165 286,165 286,165 286,165 285,165 285,165 284,165 284,164 283,164 283,164 283,164 283,164 283,164 282,164 281,164 281,164 281,164 281,163 280,163 280,163 280,163 280,163 279,162 279,162 279,162 279,162 279,162 278,161 278,161 278,161 278,161 278,161 278,160 278,160 278,160 278,159 278,159 278,158 277,158 277,158 277,158 277,158 277,158 276,158 276,157 276,157 276,157 276,157 276,157 276,157 275,156 275,156 274,156 274,156 273,155 273,155 272,154 272,154 271,154 271,154 271,153 271,152 271,152 271,152 271,152 272,151 272,151 272,151 272,151 273,150 273,150 273,150 273,149 273,148 273,148 273,148 273,148 273,148 272,148 272,148 272,148 271,148 271,148 271,147 271,147 271,147 271,147 270,147 270,147 270,147 269,147 269,147 269,147 269,147 268,147 268,147 268,147 268,146 268,146 267,146 267,146 266,146 266,146 266,146 264,145 264,145 264,145 263,145 263,145 263,145 263,145 262,145 262,145 262,145 261,145 261,145 260,145 259,145 259,145 258,145 257,145 257,145 257,145 257,145 257,145 257,145 257,145 257,145 256,145 254,145 253,146 252,146 251,146 251,146 250,146 250,147 249,147 249,147 249,147 249,147 248,147 248,148 247,148 246,148 246,149 245,149 245,149 244,150 244,151 243,151 243,151 242,152 242,152 241,152 239,153 238,153 230,156 229,156 228,157 228,157 227,157 227,158 226,158 226,158 223,162 220,164 220,164 220,164 220,164 220,164 220,164 219,163 218,163 217,163 218,163 218,162 218,162 218,162 217,162 217,162 217,163 217,163 216,163 216,163 216,163 215,163 215,163 215,163 215,163 215,163 215,163 215,163 214,164 214,164 214,164 214,164 213,164 213,165 212,165 212,165 212,165 212,165 212,165 212,165 211,165 211,165 211,165 211,165 211,165 211,166 211,166 211,166 210,166 210,166 209,167 209,167 209,167 209,167 209,167 209,167 209,167 208,168 208,168 208,168 208,169 207,170 207,170 208,171 208,171 207,172 207,172 208,172 208,172 208,172 208,172 208,173 207,175 207,175 207,175 207,176 207,176 207,176 207,176 207,176 207,176 206,176 205,176 204,176 204,176 203,176 203,176 203,176 203,176 202,175 202,175 202,175 202,176 202,176 201,176 201,176 201,176 201,176 201,176 200,176 200,175 200,175 200,175 199,175 199,175 199,175 198,176 198,176 198,176 197,176 197,176 197,176 197,176 197,176 197,176 196,176 196,176 194,176 194,176 193,176 193,176 193,176 192,175 192,175 192,175 191,175 191,175 191,175 190,175 190,175 190,174 189,174 189,174 189,174 189,174 189,174 188,174 188,174 188,174 187,174 187,174 187,174 186,174 186,174 185,174 185,174 185,174 185,174 185,174 184,174 184,174 184,174 183,174 183,174 183,174 183,174 183,174 182,174 182,174 181,174 179,174 178,174 178,174 178,174 178,174 178,174 177,174 176,174 176,174 175,174 174,174 174,174 174,171 175,169 175,169 174,169 172,169 172,169 172,169 172,170 172,170 171,170 171,170 167,170 166,170 165,170 164,170 164,170 162,170 162,171 161,171 160,171 159,171 159,171 157,171 157,171 157,172 157,172 156,172 155,172 155,172 155,172 155,172 154,172 154,172 154,172 153,172 153,173 153,173 152,173 152,173 152,173 152,173 151,173 151,173 151,173 151,173 150,173 150,173 150,173 150,173 150,174 149,174 149,174 149,174 149,174 149,174 149,174 149,174 148,174 148,174 148,174 148,174 148,174 148,174 148,174 147,174 147,174 147,174 147,174 147,174 146,174 146,174 146,174 146,174 146,174 145,174 145,174 145,174 145,174 145,174 144,175 144,175 144,175 144,175 144,175 143,175 143,175 142,175 142,175 142,175 141,175 141,174 141,174 141,174 141,174 141,174 141,174 140,174 140,174 140,174 140,174 140,174 140,174 140,174 140,174 140,174 139,174 139,174 139,174 139,174 139,174 138,174 138,174 138,174 138,174 138,174 138,174 137,173 137,173 136,173 135,173 135,173 135,173 135,173 134,173 134,173 134,173 134,173 133,172 133,172 133,172 133,172 133,172 133,172 133,172 133,172 132,172 132,172 133,171 133,171 134,170 134,170 133,170 133,170 133,170 133,170 133,170 133,170 133,170 133,170 132,170 132,170 132,170 132,170 132,170 132,170 132,170 132,170 132,170 132,170 132,170 132,171 131,171 131,171 131,171 131,171 131,171 130,171 130,171 130,171 130,171 130,171 130,171 130,171 130,171 129,171 129,171 129,171 129,171 128,171 128,172 128,172 128,172 128,172 128,172 128,172 128,173 129,173 129,173 129,173 129,173 129,173 129,174 128,174 128,174 128,174 127,174 127,174 127,174 127,175 126,175 126,175 127,175 127,175 126,175 126,175 126,176 126,176 126,176 126,176 126,176 126,176 126,177 126,177 126,177 126,177 126,177 126,177 126,177 126,177 125,177 125,177 125,177 124,177 124,177 124,177 124,177 124,177 123,178 123,178 123,178 123,178 123,178 123,178 123,178 123,178 123,178 123,179 123,179 123,179 123,179 123,179 123,179 123,179 123,179 123,179 123,179 123,179 123,179 123,179 123,179 123,179 122,179 122,179 122,180 122,180 122,180 122,180 122,180 122,180 122,180 122,180 122,180 122,180 122,180 122,180 122,181 122,181 122,181 122,181 122,181 122,181 122,181 122,181 122,181 122,182 122,182 122,182 122,182 122,182 122,182 122,182 122,183 122,183 122,183 122,183 122,183 122,183 121,183 121,183 121,183 121,183 121,183 121,183 121,183 121,184 121,184 121,184 121,184 122,184 122,184 122,185 122,185 122,185 122,185 122,185 122,185 122,186 122,186 122,186 121,186 121,186 121,186 121,186 121,186 121,186 121,186 121,187 122,187 122,187 122,187 122,188 122,188 122,188 122,188 122,188 122,188 122,188 122,188 122,188 122,188 122,188 122,189 122,189 122,189 122,189 123,189 123,189 123,189 123,189 123,190 122,190 122,190 122,190 122,190 122,190 121,190 121,190 121,190 121,190 121,190 120,190 120,190 120,190 120,190 120,190 120,191 120,191 120,191 120,191 120,191 120,191 120,191 120,191 120,191 120,192 120,192 120,192 120,192 120,193 121,193 121,193 121,193 121,193 121,194 121,194 121,194 121,194 120,194 120,195 120,195 120,195 120,195 120,195 120,196 120,196 120,196 120,196 120,196 120,196 121,196 120,196 120,197 120,197 120,197 120,197 120,198 120,198 120,198 120,198 120,198 119,198 119,198 119,198 119,198 119,198 118,198 118,198 118,198 118,198 118,198 118,198 117,199 117,199 117,199 117,199 117,199 118,200 118,200 118,200 118,200 118,200 118,200 117,200 117,200 116,201 116,201 116,201 115,201 115,201 115,201 115,202 115,202 115,202 115,202 115,202 115,202 115,202 115,202 115,203 115,203 115,203 114,203 114,203 114,203 114,203 114,203 114,203 113,203 113,203 113,203 112,203 112,203 112,203 112,203 111,203 111,203 111,204 111,204 111,204 112,204 112,204 112,204 112,204 112,204 111,204 111,205 111,205 111,204 110,204 110,204 110,204 110,205 110,205 110,205 110,205 110,205 110,205 110,205 110,206 110,206 110,206 109,206 109,206 109,206 109,206 109,207 109,207 109,207 109,207 109,207 109,207 110,207 110,207 110,207 110,208 110,208 110,208 110,208 110,208 110,208 110,208 110,208 109,209 109,209 109,209 109,209 109,209 109,209 109,209 109,209 108,209 108,209 108,210 108,210 108,210 108,210 108,211 108,211 108,211 108,211 108,211 108,211 108,211 108,211 108,211 108,211 108,211 108,211 108,211 108,211 108,211 108,211 108,212 108,212 108,212 108,212 108,212 108,212 108,212 108,212 108,212 108,212 108,212 108,212 108,212 107,212 107,212 107,212 107,213 107,213 107,213 107,213 107,213 107,213 107,213 107,213 107,213 106,213 106,213 106,213 106,213 106,213 106,213 106,213 105,213 105,213 105,213 105,213 105,213 104,213 104,213 104,213 104,213 104,213 104,213 104,213 104,213 104,213 104,213 104,213 103,213 103,213 103,213 103,214 103,214 103,214 102,214 103,214 103,214 103,215 103,215 103,215 104,215 104,215 104,215 103,216 103,216 102,216 101,216 100,216 100,216 100,216 100,216 99,216 99,216 99,216 99,216 99,216 99,216 99,215 99,215 99,215 99,215 98,215 98,215 98,215 98,215 98,215 98,215 98,215 98,215 97,215 97,214 97,214 97,215 97,215 97,215 97,215 96,215 96,215 96,215 96,215 96,215 95,214 95,214 96,213 96,213 96,213 96,213 97,212 96,212 96,212 96,212 95,212 95,212 95,212 95,212 95,212 94,212 94,212 94,212 94,212 94,212 94,212 93,212 93,211 93,210 93,210 93,210 93,209 93,208 93,208 93,207 93,207 93,206 93,206 93,205 93,205 93,205 93,204 94,204 94,204 95,204 95,204 96,204 96,203 96,203 97,203 98,203 98,203 98,202 98,202 99,202 99,202 99,202 99,202 99,201 99,200 99,200 99,200 99,200 99,200 98,200 98,199 98,199 98,199 97,199 97,199 97,199 97,199 96,198 95,198 95,197 95,197 94,197 94,197 94,198 94,198 94,198 93,198 93,198 93,198 93,198 92,197 92,197 92,197 92,197 91,197 91,197 91,197 91,197 90,197 90,197 90,197 91,196 91,196 91,196 91,195 91,195 91,195 91,194 91,194 91,194 91,193 91,193 91,193 91,193 91,193 91,192 91,192 91,192 91,192 92,192 92,191 92,191 92,191 93,191 93,190 93,190 93,190 94,189 94,189 94,188 95,188 94,188 94,188 94,188 94,188 93,188 93,187 93,187 93,187 93,187 94,187 94,187 94,186 93,186 93,186 92,185 92,185 92,185 92,185 91,184 91,184 90,184 90,184 89,183 89,183 88,183 88,183 88,183 88,182 88,182 87,182 87,181 87,181 87,181 87,181 87,181 87,182 87,182 87,182 87,182 87,182 87,182 86,182 86,182 86,182 85,182 85,182 85,182 85,182 85,182 85,181 85,181 85,181 85,180 85,180 85,180 84,180 84,180 84,180 84,180 84,179 84,179 84,179 84,178 84,178 84,178 84,178 84,178 84,178 84,178 84,178 84,177 84,177 85,176 85,176 85,175 85,175 85,175 85,175 86,174 86,174 86,174 86,174 86,173 86,173 85,173 85,173 85,173 85,172 86,172 86,172 86,172 86,172 85,171 85,171 86,171 86,170 86,170 86,170 86,170 87,169 87,169 87,169 87,169 87,169 87,168 87,168 87,168 87,167 87,166 87,166 87,165 86,165 86,165 86,164 86,164 86,164 86,164 86,164 86,163 86,163 86,163 86,163 86,163 85,162 85,162 84,162 83,162 83,162 83,162 83,162 83,161 83,161 83,161 83,161 82,161 82,161 81,160 81,160 81,161 81,161 80,160 79,160 79,160 79,160 79,160 79,160 79,160 78,160 78,160 78,160 78,160 78,160 77,160 77,160 77,159 77,159 77,159 77,159 77,159 77,159 77,159 77,159 76,159 76,159 76,158 76,158 76,158 75,157 75,157 76,157 75,157 75,156 75,156 75,156 75,155 75,155 75,155 75,155 76,155 76,155 76,155 76,154 75,154 75,154 75,153 75,153 75,153 75,153 75,152 75,152 75,152 75,152 75,152 75,152 75,151 76,150 76,150 76,150 76,150 75,149 75,149 75,149 75,149 75,148 75,148 75,148 75,148 75,148 74,147 74,147 74,147 71,146 71,145 71,145 70,145 70,145 70,145 69,146 69,146 68,146 68,146 68,146 67,146 67,146 67,146 67,145 67,145 67,144 67,144 67,143 67,142 67,142 67,142 67,142 67,142 66,142 66,142 66,141 66,141 65,141 65,141 65,140 64,140 64,140 63,140 63,140 63,140 62,140 62,140 61,139 61,139 61,139 61,139 61,139 60,139 60,139 60,139 60,138 60,138 60,138 59,138 59,138 59,138 59,137 58,137 58,137 58,137 58,137 58,138 58,138 58,138 57,138 57,138 57,138 57,138 57,138 57,138 57,138 56,138 56,137 56,137 56,137 56,137 56,137 56,137 56,136 56,136 56,136 55,136 55,136 55,136 55,136 55,136 55,136 55,136 55,136 55,136 54,136 54,136 54,136 54,136 54,136 54,135 54,135 54,135 54,135 54,135 53,135 53,135 53,135 53,135 53,135 53,135 52,135 52,135 52,135 52,135 52,135 52,135 52,134 52,134 51,134 51,134 51,134 51,134 51,134 50,134 50,134 50,134 50,134 50,134 50,134 50,134 50,133 50,133 50,133 49,133 49,133 49,133 49,133 49,133 49,132 49,132 49,132 49,132 49,132 49,132 49,132 49,132 49,132 49,132 50,131 50,131 50,131 50,131 50,131 49,131 49,131 49,131 49,130 49,130 49,130 49,130 49,129 49,129 49,129 49,129 49,129 50,129 50,129 50,128 50,128 50,128 50,128 51,128 51,128 51,127 52,127 52,127 52,127 52,127 52,126 52,126 52,126 52,126 52,126 52,126 51,126 51,126 50,126 50,126 50,126 49,125 49,125 49,125 49,125 49,125 49,125 49,125 48,125 48,124 48,124 47,124 47,124 47,124 46,124 45,124 45,124 44,124 44,124 44,124 43,124 43,124 43,124 43,123 43,123 43,123 43,123 42,123 42,123 42,122 42,122 42,122 42,122 42,122 42,121 42,121 42,121 42,120 43,120 43,120 43,119 43,119 44,118 44,118 44,118 44,117 44,117 44,117 44,117 44,117 44,117 45,116 45,116 45,116 45,116 45,116 45,116 45,116 45,116 45,115 45,114 45,114 44,114 43,113 43,113 42,113 42,113 42,112 41,112 41,112 41,112 41,112 40,112 40,112 39,112 38,112 37,112 37,112 36,111 36,111 35,111 35,110 34,110 34,110 33,110 33,109 32,109 32,109 32,108 32,108 31,108 31,108 31,108 31,107 31,107 32,107 33,107 33,107 33,107 33,107 33,107 33,106 33,106 33,106 32,106 32,106 32,106 32,106 32,106 32,106 32,105 32,105 32,105 32,105 32,105 32,104 32,104 32,104 32,104 32,104 33,104 33,104 33,103 33,103 32,103 32,103 32,102 31,102 30,102 30,102 29,101 28,101 28,101 28,102 27,102 27,102 27,101 26,101 26,101 26,101 26,101 25,101 25,101 25,100 24,100 24,100 23,100 23,99 23,99 24,99 24,99 24,99 24,98 25,98 25,98 25,98 25,98 26,97 26,97 26,97 26,97 27,96 28,96 29,96 30,96 30,95 30,95 30,94 30,93 29,93 29,93 29,93 29,93 28,92 27,92 27,92 26,92 26,92 25,92 24,92 24,92 24,92 23,92 23,92 23,92 22,91 22,91 21,91 21,91 20,91 19,91 18,91 18,90 18,90 18,90 18,90 18,90 18,89 18,89 18,89 18,88 18,88 18,88 18,88 18,88 18,88 19,88 20,87 20,87 21,87 21,87 22,87 22,86 22,86 23,85 23,85 23,84 23,83 23,83 23,83 23,82 22,82 22,82 22,82 23,81 23,80 23,80 22,80 22,80 22,80 21,80 21,80 21,80 20,80 20,79 19,79 19,79 19,79 18,79 17,79 17,79 16,79 16,79 16,79 15,79 14,79 14,80 13,80 13,80 12,80 12,80 12,80 11,80 11,80 11,80 9,80 9,80 8,80 8,80 8,79 8,79 8,79 8,78 8,78 8,77 8,77 8,77 8,77 8,77 8,76 7,76 7,76 8,76 8,75 8,75 7,75 7,74 5,74 5,73 4,73 4,73 3,73 2,72 2,72 1,72 1,72 1,72 1,71 1,71 1,71 1,70 0,70 0,69 0,69 0,69 1,68 1,68 2,68 2,68 1,67 1,67 1,67 1,67 2,67 2,66 2,66 3,66 4,66 4,66 4,65 4,65 4,65 5,65 5,64 5,64 4,64 4,64 4,64 4,64 4,63 4,63 4,63 4,63 4,62 4,62 4,62 4,62 4,62 5,62 5,62 5,62 5,62 5,62 5,62 5,62 5,62 6,62 6,62 7,61 7,61 7,61 7,61 7,61 8,61 8,61 8,61 9,61 9,61 9,61 10,61 10,60 10,61 10,61 10,61 11,61 11,61 11,61 11,61 11,60 12,60 12,60 12,60 12,59 13,59 13,59 13,59 13,59 13,59 13,59 13,59 13,59 13,59 13,59 13,59 14,59 14,59 14,59 14,59 15,59 15,59 15,59 15,59 16,59 16,58 16,58 17,59 17,59 17,59 17,59 18,59 18,59 18,59 18,59 18,59 18,59 19,58 20,58 20,58 21,58 21,58 21,58 22,58 22,58 22,58 23,58 24,58 24,58 25,57 25,57 25,57 25,57 25,57 26,57 26,57 26,57 26,57 26,57 27,56 28,56 28,56 28,56 28,56 29,56 29,55 29,55 30,56 30,55 31,55 31,55 31,55 32,54 32,54 32,54 33,54 33,53 34,53 34,53 34,53 35,52 35,52 35,52 35,52 35,52 35,52 36,51 36,51 36,51 36,51 37,50 37,49 37,49 37,48 37,48 37,48 38,48 38,48 38,47 39,47 39,47 39,47 39,47 39,46 39,46 40,46 40,46 40,46 41,46 41,46 42,46 43,46 44,46 44,46 46,45 47,45 51,44 51,44 51,44 51,44 51,43 51,43 52,43 52,42 52,42 53,42 54,42 54,42 54,42 54,42 55,42 55,42 55,42 56,42 56,42 56,42 56,41 57,41 57,41 57,41 58,38 58,38 58,38 61,37 63,37 66,36 66,36 66,35 66,35 66,34 67,33 67,32 67,32 68,32 69,32 69,33 70,34 71,34 73,35 74,36 74,36 75,37 75,37 76,37 76,38 76,38 77,38 78,38 78,38 79,39 79,39 80,40 80,40 80,40 80,40 80,39 80,39 81,39 81,39 81,39 81,38 81,38 81,37 81,37 81,37 81,37 82,37 82,36 82,36 83,35 83,35 85,33 85,33 85,33 85,33 86,32 87,31 87,31 87,31 87,31 88,30 88,30 89,30 89,30 90,31 91,31 91,31 91,31 92,29 92,28 93,28 93,27 93,26 93,26 94,26 94,26 95,26 95,26 96,26 96,26 96,27 96,27 96,28 96,28 97,28 98,29 99,29 100,30 101,30 101,30 102,31 103,31 103,31 103,31 103,31 104,30 104,30 104,30 104,30 105,30 105,30 105,30 105,30 105,30 105,29 105,29 105,29 105,29 105,29 105,29 105,29 106,29 106,29 106,29 106,29 107,29 107,28 108,28 108,28 108,28 109,29 109,29 109,29 110,28 110,28 110,28 108,27 108,27 108,27 108,26 108,26 108,26 108,25 108,25 109,25 109,24 108,24 108,24 109,24 109,24 109,24 109,24 109,24 109,24 110,23 111,23 111,23 111,23 111,23 111,22 111,22 111,22 111,22 112,22 112,22 112,21 112,21 113,21 113,21 113,21 113,21 113,20 113,20 113,20 113,20 113,20 113,20 113,20 113,19 113,19 113,19 113,19 113,19 113,19 114,18 114,18 114,18 114,18 114,18 114,18 114,18 114,18 114,17 114,17 114,17 113,16 113,16 113,15 113,15 113,15 113,14 113,14 114,13 115,12 115,11 116,10 116,10 116,10 117,9 117,9 117,9 118,8 120,7 122,6 122,6 122,6 122,5 122,5 122,5 123,5 123,4 123,4 123,4 124,3 125,3 125,3 126,2 126,3 127,3 127,5 126,5 126,6 126,6 127,8 127,8 127,10 127,10 127,11 127,14 127,16 129,16 129,16 129,16 128,17 128,18 128,19 128,19 129,19 131,19 131,19 132,19 132,19 133,19 134,19 134,19 134,18 135,17 135,17 137,17 137,17 139,16 140,16 140,16 140,15 140,15 142,16 142,16 144,15 144,15 144,15 144,15 144,15 144,16 144,16 144,17 144,17 144,17 144,17 144,17 145,17 145,17 145,18 145,18 146,18 146,18 147,18 147,18 147,18 147,18 148,18 148,18 148,18 148,18 149,18 149,18 149,19 149,19 149,19 149,19 149,19 150,20 150,20 150,21 151,21 151,21 151,21 151,21 151,21 153,20 153,21 153,21 153,21 153,21 154,21 155,22 155,23 156,23 156,23 158,23 158,23 158,23 159,22 160,22 160,22 160,22 161,21 162,21 162,22 163,22 163,22 163,22 164,22 164,22 164,21 164,20 164,20 164,20 164,20 165,19 165,19 165,19 166,18 166,18 166,19 166,18 166,18 167,19 167,19 167,19 167,19 168,20 168,20 168,20 168,21 168,21 167,21 167,21 167,22 167,22 167,22 167,22 168,22 168,22 168,22 169,22 168,22 168,22 169,23 169,23 170,22 170,22 171,23 171,23 171,23 172,23 172,23 173,23 174,24 174,24 174,24 174,24 174,25 174,25 174,25 174,25 174,25 175,25 175,25 175,24 175,24 175,24 175,23 175,23 175,23 175,23 175,23 175,22 175,22 175,22 175,23 175,23 175,23 175,24 175,25 175,25 175,25 174,25 174,26 174,26 175,26 174,27 175,27 176,27 176,28 177,28 177,28 177,28 179,28 179,29 180,29 181,30 182,30 182,30 182,30 184,30 184,29 185,29 185,30 185,30 186,31 186,32 186,32 186,32 187,32 187,32 187,32 187,32 188,32 188,31 189,31 189,31 190,31 194,31 194,31 197,30 198,30 198,30 200,29 201,29 203,28 204,28 205,27 206,27 207,27 207,27 207,26 208,26 208,26 208,26 209,26 210,26 211,26 211,26 211,26 212,27 213,27 215,28 216,29 216,29 217,30 218,31 218,31 219,32 220,32 220,32 221,33 223,34 224,34 225,34 226,34 226,35 227,35 228,35 228,35 229,35 229,35 229,35 233,35 233,35 235,35 236,36 236,35 237,36 237,36 238,35 238,35 238,35 239,34 239,34 240,35 243,34 243,34 247,35 247,35 248,34 250,34 251,34 253,33 254,33 256,33 257,33 259,33 260,33 260,33 261,32 261,32 263,32 265,32 265,33 266,33 266,33 267,33 267,34 268,34 269,35 269,35 270,35 270,35 271,35 271,36 272,36 272,36 273,36 273,37 273,37 273,37 274,36 274,36 274,35 274,34 274,34 274,34 274,33 275,33 275,33 275,32 275,32 275,32 275,32 275,32 276,32 276,31 276,31 276,31 276,31 276,31 276,31 276,31 276,30 276,30 276,30 276,30 276,30 276,29 276,29 276,29 277,29 277,28 277,28 277,28 277,28 277,27 278,25 280,24 281,24 281,24 281,24 282,24 282,24 284,23 286,23 288,22 288,22 288,22 288,22 288,22 288,22 289,21 290,21 290,21 291,21 293,20 293,20 293,20 293,20 293,20 293,20 293,20 294,20 294,20 294,20 298,19 298,19 297,18 298,18 299,18 300,18 300,19 300,19 300,19 300,19 301,19 301,19 302,19 303,19 303,19 304,19 304,19 305,19 305,19 306,19 307,19 308,19 309,19 310,19 310,19 310,19 311,19 311,19 311,19 313,19 313,19 313,19 313,18 314,17 315,17 315,16 315,16 315,16 315,15 316,15 316,15" id="2209" class="canton" fill="steelblue" stroke-width="1" stroke="white" geotype="canton" geoname="Loudéac" code_insee="2209" code_departement="22" nom_departement="Côtes-d'Armor" code_region="53" nom_region="Bretagne"/></svg>