<?xml version="1.0" encoding="utf-8"?>
<svg version="1.1" id="svgmap" xmlns="http://www.w3.org/2000/svg" xmlns:xlink="http://www.w3.org/1999/xlink" x="0px" y="0px" width="100%" height="100%" viewBox="0 0 500 379">
<polygon points="2,223 2,223 2,222 2,222 3,220 4,219 4,219 4,218 5,217 5,215 5,215 5,215 5,215 6,213 6,213 6,213 6,212 5,212 4,212 4,212 4,212 3,212 3,211 3,211 2,211 2,211 2,211 2,210 1,210 1,210 1,210 1,210 1,209 1,209 1,209 1,209 1,208 0,208 0,208 0,208 0,208 0,208 0,208 0,207 0,207 0,207 0,207 0,206 0,206 1,205 1,205 1,205 1,205 1,205 1,204 1,204 1,204 2,204 3,203 3,203 3,203 3,203 3,202 3,202 3,202 3,202 3,202 3,202 3,202 4,201 3,201 3,201 4,201 4,200 3,199 4,199 4,198 4,198 4,197 4,197 3,197 3,197 4,197 4,197 4,196 4,196 4,196 4,195 4,195 4,195 4,195 5,195 5,195 4,194 5,194 5,194 5,194 5,194 5,194 5,194 6,193 6,193 6,193 6,193 7,193 7,193 6,193 6,193 7,192 7,192 7,192 7,192 7,192 8,192 8,192 9,192 9,192 9,192 9,192 9,192 10,192 10,192 10,191 11,191 11,191 10,190 10,190 10,190 10,189 10,189 11,189 12,190 12,190 12,190 12,190 12,189 12,189 13,189 13,190 13,190 14,189 14,189 14,189 14,190 14,190 14,190 15,190 15,189 15,189 15,189 16,189 16,189 17,189 17,189 17,189 17,189 17,189 18,189 18,190 18,189 18,189 18,188 21,189 22,190 25,190 25,190 26,190 27,191 28,191 29,191 29,190 30,190 31,190 31,191 34,191 35,192 36,192 37,192 37,192 40,193 41,193 41,192 42,192 42,192 44,193 46,193 47,193 49,194 51,194 51,195 52,195 52,194 52,194 53,193 53,193 54,192 54,191 54,191 55,190 55,190 55,189 56,189 56,188 56,188 56,187 57,186 57,185 58,183 59,182 61,180 62,178 62,178 62,178 63,178 65,177 66,176 66,176 67,176 68,176 68,176 69,176 69,176 71,175 71,175 72,175 72,175 73,175 74,175 74,174 75,174 75,173 75,173 75,173 75,172 75,172 75,172 75,172 75,172 75,172 75,171 75,171 76,171 77,169 78,169 78,169 78,168 78,168 78,168 78,168 78,167 78,167 78,167 78,167 78,166 78,166 78,166 78,166 77,166 77,166 77,166 77,165 77,165 77,165 77,165 77,165 77,165 77,165 78,164 78,164 78,164 79,164 78,163 78,163 78,163 78,163 79,163 79,163 79,163 80,163 80,163 80,163 80,163 81,163 81,163 81,163 82,163 82,164 82,164 82,164 82,164 82,164 82,164 82,164 82,163 83,163 83,163 83,163 83,164 83,164 83,164 83,164 84,164 84,164 84,163 84,163 84,163 84,162 85,162 86,161 86,161 86,160 86,160 86,159 86,159 85,159 85,159 85,159 84,158 84,158 84,158 84,157 84,157 83,157 83,157 82,156 82,156 82,156 81,156 81,156 80,156 80,155 79,155 79,154 79,154 79,154 79,153 79,153 80,153 80,153 80,153 80,152 80,152 80,151 80,151 80,151 80,151 80,151 79,150 79,149 79,149 78,149 78,149 78,148 77,148 77,148 77,148 76,147 76,147 77,147 77,147 77,147 77,147 77,146 77,146 76,146 75,145 74,145 73,144 72,144 72,143 72,143 72,143 72,143 72,143 73,142 72,141 72,141 72,141 72,140 72,140 72,140 72,139 72,139 72,138 73,138 73,138 73,138 73,138 73,137 73,137 73,136 73,136 73,135 73,135 73,135 74,134 74,134 74,134 73,133 73,133 72,133 72,133 71,133 71,132 71,132 70,130 70,130 71,129 70,129 70,129 70,128 72,128 72,128 73,127 73,127 74,127 73,126 73,126 73,126 73,126 73,125 73,125 72,125 72,125 71,124 71,124 71,124 71,123 71,122 71,122 71,121 71,121 71,120 71,120 71,119 71,119 70,119 70,118 70,118 70,118 68,118 67,118 66,118 65,118 65,118 64,117 63,116 63,116 62,115 61,114 61,114 61,113 60,113 60,113 60,112 59,111 59,111 58,110 58,110 58,110 58,109 57,109 57,109 57,109 57,108 58,107 58,106 58,106 59,105 59,105 59,104 59,104 59,104 59,104 58,104 58,104 58,104 58,103 58,103 58,103 57,103 57,102 57,102 56,102 55,102 55,102 54,101 54,101 53,100 53,100 53,99 53,99 53,98 52,98 52,97 51,97 50,96 50,96 49,96 48,96 48,96 47,96 47,96 47,96 46,97 46,97 45,97 45,97 44,97 43,97 43,97 42,96 42,96 42,96 43,95 44,95 45,93 46,93 46,92 46,92 45,91 44,91 43,90 42,90 42,89 42,88 41,88 40,88 39,87 38,87 37,87 37,86 36,86 36,84 35,84 35,83 35,83 34,82 33,82 33,82 32,82 32,81 32,81 31,81 32,80 33,78 33,77 34,77 33,76 34,76 34,75 35,75 35,74 35,73 35,73 35,72 35,70 35,69 34,68 33,67 34,67 34,66 33,66 33,65 35,65 35,65 36,64 37,65 38,65 39,65 39,64 39,64 39,63 40,63 40,62 42,61 43,62 44,62 48,63 48,64 54,65 53,67 60,69 66,69 73,69 80,71 80,72 91,78 97,78 97,78 101,90 98,93 115,102 114,107 113,112 117,118 120,119 120,121 122,123 123,127 120,128 121,128 123,128 126,126 130,124 134,125 134,126 146,124 160,123 174,123 179,124 184,126 192,132 196,137 205,139 214,136 222,135 236,135 236,133 242,132 245,129 249,128 253,126 255,124 256,123 258,121 260,119 261,116 261,114 262,108 264,109 265,106 268,104 268,103 268,103 270,101 271,99 274,98 276,96 278,95 280,94 284,92 287,89 288,86 291,84 295,82 297,80 304,74 303,71 304,69 304,68 320,74 324,70 331,70 333,68 335,69 342,68 342,69 345,68 350,69 357,61 356,60 358,52 353,51 353,47 350,43 346,38 345,36 346,31 356,23 361,12 364,8 366,8 372,9 379,9 396,3 403,4 421,0 432,0 432,0 432,0 431,1 431,2 431,2 431,3 431,4 431,4 431,4 431,6 431,6 431,6 431,6 431,6 433,8 433,8 433,8 434,9 436,10 439,13 442,14 442,14 444,15 444,15 444,15 446,16 446,17 448,18 449,19 451,20 452,20 455,21 455,21 456,22 456,22 457,23 458,23 459,23 460,24 460,24 461,24 461,25 462,25 462,26 465,27 465,27 466,28 467,28 468,29 468,29 469,29 469,29 470,30 471,30 471,31 471,31 472,31 472,32 474,34 477,35 476,35 476,36 476,36 476,36 477,36 477,36 476,36 476,36 475,36 475,36 475,36 475,36 475,37 475,37 475,37 474,37 474,37 474,37 474,37 474,37 474,37 474,37 474,37 474,37 474,38 474,38 474,38 474,38 474,38 474,38 473,38 473,38 473,39 473,39 473,39 473,39 473,39 472,39 472,39 472,39 472,39 472,39 471,39 471,38 471,38 471,38 471,39 471,39 471,39 471,39 470,39 470,39 470,39 471,39 471,40 471,40 471,40 470,40 470,40 470,40 470,40 470,40 470,40 469,41 469,41 469,41 469,41 469,41 469,41 469,42 469,42 469,42 469,42 468,42 468,42 468,42 468,43 468,43 468,43 468,43 468,43 468,43 468,43 468,43 468,43 468,43 468,43 468,43 468,43 468,43 468,43 468,43 468,43 468,43 468,43 468,43 467,43 468,43 467,43 467,43 467,43 467,43 467,43 467,43 466,44 466,44 466,44 466,44 467,44 467,44 467,44 467,44 467,44 467,44 467,44 467,44 467,44 467,44 467,44 467,44 467,44 467,44 468,44 468,44 468,45 468,45 468,45 467,45 467,45 467,45 467,45 467,45 467,45 467,45 467,45 466,45 466,46 466,46 466,46 466,46 466,46 467,46 468,47 468,47 468,47 470,47 472,48 473,48 473,49 474,49 474,49 475,49 476,49 476,49 477,49 478,50 478,50 480,50 480,51 479,51 479,52 479,52 479,52 480,53 480,54 480,54 480,55 479,55 478,56 477,57 477,57 476,57 476,57 476,58 475,58 475,58 474,59 474,59 474,59 475,60 476,60 478,61 476,62 475,63 475,63 475,63 478,64 478,64 478,64 477,65 477,65 477,65 478,65 479,65 481,65 481,66 481,66 481,66 481,66 482,67 482,67 483,67 484,66 486,65 486,65 487,66 487,66 488,67 489,68 490,68 491,68 492,69 493,70 493,70 493,70 493,71 493,71 492,71 492,71 492,71 492,71 492,71 492,72 491,72 491,72 490,72 490,72 490,73 489,73 489,73 489,73 489,73 488,73 488,74 488,74 488,74 488,74 488,75 487,75 487,75 487,76 487,76 487,76 487,76 486,76 485,77 485,77 485,77 484,77 484,77 484,77 483,77 483,77 483,77 483,78 483,78 483,78 482,78 482,78 481,79 481,79 481,79 481,79 481,79 480,79 480,79 480,80 480,80 479,80 479,80 478,81 477,82 477,82 475,84 474,84 473,84 472,83 471,83 471,83 471,83 470,83 470,83 469,83 469,83 468,84 468,84 468,84 468,85 468,87 468,87 468,88 468,88 467,89 467,89 468,89 470,92 470,92 471,92 473,92 473,92 474,94 474,94 474,94 473,94 475,95 476,95 477,96 477,96 476,97 476,98 476,98 475,99 475,100 476,101 476,101 479,101 480,103 480,103 481,103 483,103 483,104 484,104 485,104 485,104 485,104 485,105 487,104 489,105 490,105 489,106 489,106 488,107 488,108 489,108 489,108 489,108 489,108 489,109 489,109 489,110 489,110 489,110 489,111 489,111 489,111 489,111 490,112 490,113 490,114 490,115 491,115 491,116 495,117 495,117 497,119 497,120 498,123 499,125 500,127 500,128 500,128 498,128 498,127 496,128 496,127 495,128 492,129 491,129 491,129 491,129 489,129 488,129 486,129 486,129 485,129 484,129 480,129 479,129 478,129 480,133 458,139 461,147 461,148 459,150 458,152 456,153 453,154 451,155 451,152 451,151 450,150 448,148 448,147 448,146 447,146 446,148 444,149 441,150 440,150 440,151 441,152 442,154 442,154 443,155 442,156 446,166 446,168 443,169 447,175 450,180 452,184 455,188 461,190 464,193 465,196 467,199 469,202 469,204 478,207 480,208 478,210 477,210 475,214 469,219 462,222 453,230 451,232 451,232 451,232 451,232 453,232 455,234 456,235 455,236 456,236 457,237 460,237 461,237 462,236 463,236 464,237 465,239 467,239 468,240 469,241 471,241 471,241 471,242 472,241 475,241 474,241 474,241 474,240 474,240 474,237 473,235 474,234 480,233 483,233 486,233 491,234 493,235 494,237 494,239 495,243 494,243 491,244 488,247 487,247 487,248 488,249 490,251 492,253 493,256 492,259 494,261 494,262 492,264 490,266 489,267 489,268 489,269 487,271 487,274 484,273 482,273 481,274 480,274 481,277 478,278 475,278 475,280 476,281 476,282 478,283 477,282 466,280 457,277 451,274 447,273 444,271 440,268 439,268 435,266 430,263 414,258 398,253 394,253 394,253 394,253 394,253 393,253 389,253 389,253 388,253 387,253 384,252 383,252 383,253 384,254 384,255 382,256 382,256 382,256 382,255 381,255 379,256 379,256 379,256 378,256 375,257 375,257 372,258 372,258 372,258 371,259 370,259 369,259 369,259 369,260 369,260 368,260 367,261 366,261 365,261 365,261 363,262 363,262 361,262 360,262 360,262 360,262 359,261 358,261 357,261 357,260 356,260 356,260 356,260 356,260 356,260 355,260 356,260 356,260 355,260 355,260 355,260 354,260 354,259 354,259 354,259 354,259 354,259 354,258 354,258 354,258 354,258 354,258 354,258 353,258 353,257 353,257 353,257 353,257 353,257 351,258 350,258 349,259 349,259 348,260 347,261 347,261 343,259 340,256 339,256 339,255 338,255 335,252 335,252 335,252 332,252 332,253 332,253 331,253 330,253 329,253 329,253 329,253 328,253 328,254 327,254 326,254 326,254 326,254 323,255 322,255 321,255 321,255 321,256 324,265 330,267 333,274 334,278 340,283 337,293 335,300 334,308 337,313 338,313 338,313 339,313 339,313 339,313 339,313 339,313 339,313 339,314 339,314 339,314 339,314 339,314 339,314 339,314 339,314 339,314 339,315 339,315 339,315 339,315 339,315 339,315 339,315 339,315 339,315 339,316 339,316 338,316 338,316 338,316 338,316 338,316 339,316 339,317 339,317 339,317 339,317 339,317 339,317 339,317 339,318 338,318 338,319 337,320 337,320 337,320 336,321 336,321 336,322 336,323 336,323 335,324 335,324 335,325 334,325 334,326 333,326 333,326 332,327 332,327 332,327 332,327 331,328 331,328 331,328 331,328 331,329 331,329 330,330 330,330 330,331 330,331 330,331 330,331 330,331 330,331 330,331 330,331 329,331 329,331 330,332 329,332 329,332 330,332 329,332 329,332 329,332 329,333 329,333 330,333 329,333 329,333 330,333 330,333 330,334 329,334 329,334 329,334 329,334 329,334 329,334 329,335 329,335 329,335 329,335 329,335 329,335 329,335 329,335 329,336 329,336 329,336 328,336 328,336 328,336 328,337 328,337 327,337 327,337 327,337 327,337 327,338 327,338 327,339 327,339 327,339 327,339 327,340 327,340 326,341 326,341 327,341 326,341 326,342 326,343 326,343 326,343 326,344 326,344 326,345 326,346 326,346 326,347 327,349 327,349 327,350 327,350 327,350 327,351 327,351 327,351 327,352 328,352 328,352 328,353 328,353 328,353 328,354 328,354 329,355 329,355 329,355 329,355 329,355 329,356 329,357 329,357 330,357 330,358 330,358 330,358 330,358 330,358 331,360 332,360 332,360 332,360 333,361 333,361 334,362 334,362 334,363 334,363 335,363 335,364 335,364 333,365 332,366 332,367 332,367 333,368 333,368 333,369 333,369 332,369 332,369 332,369 332,369 332,369 330,370 330,370 329,371 328,371 327,372 327,373 326,373 324,375 324,375 321,374 321,374 320,375 319,375 319,376 319,376 318,376 318,377 317,377 316,378 316,378 316,378 316,378 316,378 316,378 315,378 315,378 314,378 313,379 313,379 312,379 311,379 310,379 309,379 309,379 309,379 309,378 308,377 308,377 308,377 308,377 308,376 308,376 308,375 309,374 309,374 309,374 309,373 309,373 309,373 309,372 309,371 310,370 310,370 310,370 310,369 310,369 310,367 310,367 310,367 310,366 310,366 309,366 309,366 309,364 308,363 308,363 307,362 307,362 306,362 305,362 304,362 303,362 303,361 303,361 303,361 300,361 300,361 299,361 298,361 298,361 298,360 298,360 298,360 294,360 293,360 293,360 292,359 292,359 291,359 290,359 290,359 288,359 286,359 286,359 284,360 284,360 281,360 281,360 280,360 280,360 278,358 277,357 276,356 276,356 276,356 276,356 276,355 276,355 276,355 276,354 276,354 276,352 276,352 275,352 275,351 275,351 275,350 275,350 274,350 275,350 275,350 275,349 274,349 274,349 274,349 274,348 273,348 273,348 273,348 273,347 273,347 273,347 272,347 272,347 271,346 271,346 271,346 270,345 270,345 270,345 269,345 269,345 261,343 262,336 256,334 255,333 255,331 255,331 255,330 255,327 255,326 255,326 255,326 252,326 252,326 252,326 251,326 251,326 251,326 251,326 251,326 251,326 250,327 249,327 249,327 249,327 249,327 248,328 248,328 248,328 247,327 246,326 246,326 245,326 245,326 243,326 242,326 242,326 241,326 240,326 240,325 238,325 236,325 236,325 235,326 233,326 232,326 232,327 233,329 233,329 233,331 233,331 233,331 234,332 234,332 234,333 233,333 232,334 232,334 231,335 230,335 230,336 229,337 229,337 229,337 229,339 229,339 230,340 229,340 229,340 229,340 229,341 229,342 229,343 229,343 228,343 228,343 227,344 224,344 222,344 221,344 220,344 220,344 218,344 218,344 217,344 217,344 216,344 215,344 215,344 214,344 211,343 211,343 211,343 211,343 212,343 212,343 213,342 213,342 213,342 213,342 213,342 213,341 213,341 214,341 214,341 214,341 214,341 214,340 214,340 214,340 213,340 211,340 211,340 211,339 211,337 210,334 209,334 209,333 209,333 210,333 209,332 209,330 209,330 210,330 210,330 210,328 211,328 211,328 211,327 211,326 211,325 211,325 211,325 211,325 211,324 211,324 211,324 211,324 211,323 211,323 211,322 210,322 210,322 211,322 211,322 210,321 209,321 209,321 209,320 208,320 208,320 208,320 207,319 207,319 207,319 207,319 206,319 206,318 206,318 206,317 206,317 206,317 206,317 206,317 205,316 205,316 205,316 204,316 204,316 204,316 204,315 204,315 204,315 204,315 204,315 205,315 204,315 204,315 204,315 203,313 203,313 203,312 203,311 203,310 203,310 203,309 203,309 203,309 203,309 203,308 202,308 202,308 201,308 201,308 200,308 199,307 199,307 198,307 198,307 197,307 197,307 197,306 196,306 196,306 196,305 196,304 196,304 195,304 193,304 192,304 190,304 190,304 186,303 185,303 184,303 184,304 183,304 183,304 182,304 182,304 181,304 181,305 180,305 180,304 180,304 180,304 180,303 179,303 179,302 179,302 178,302 178,302 177,302 176,302 176,302 173,302 172,302 170,302 170,302 170,302 170,302 170,301 170,301 170,301 170,300 170,300 170,300 169,300 169,300 169,300 169,300 169,299 169,299 168,298 168,299 168,299 167,298 167,298 167,298 167,297 167,297 166,297 166,297 166,297 166,297 166,297 166,296 165,296 165,296 165,296 165,295 165,295 164,295 164,295 164,295 163,295 162,296 161,296 159,296 158,295 157,295 156,295 156,295 156,295 156,295 155,295 153,295 151,295 151,295 151,295 150,295 149,295 148,296 148,296 148,296 148,295 148,295 148,294 149,294 149,293 149,293 149,292 149,292 149,291 149,291 149,290 149,290 149,290 149,289 149,288 149,288 150,287 150,287 149,286 149,285 149,285 149,285 148,283 148,282 147,281 147,280 147,280 143,280 140,280 139,280 137,280 136,280 132,280 130,279 129,280 128,280 128,280 128,280 128,280 128,280 128,280 128,280 127,280 125,280 124,280 122,280 121,280 119,280 117,281 117,281 117,281 115,281 115,281 114,281 112,280 112,280 111,282 112,282 112,282 112,282 112,284 111,284 110,285 109,285 110,285 110,286 110,286 111,286 111,286 111,286 112,287 113,287 113,287 113,287 114,287 114,287 115,289 115,290 115,290 115,292 115,293 115,293 116,294 116,294 116,294 116,294 116,295 117,295 117,296 117,296 118,296 117,296 117,296 117,296 117,297 117,297 117,298 117,298 118,298 117,298 118,299 118,299 118,299 118,299 117,300 115,300 115,300 114,301 114,301 114,301 114,301 113,302 113,301 112,302 112,302 111,304 111,304 111,304 110,305 110,306 110,306 110,306 110,306 110,307 108,306 108,306 106,307 104,308 103,308 102,308 101,308 100,309 100,309 99,309 98,309 98,309 98,309 97,308 96,308 96,308 94,307 94,306 94,306 93,306 91,306 88,306 87,307 86,307 85,307 84,307 82,307 81,308 81,308 78,308 78,308 77,308 77,307 77,307 77,307 77,307 76,307 76,307 76,307 76,306 76,306 76,305 76,305 76,305 76,305 77,304 77,304 77,304 77,304 77,303 77,303 77,303 77,303 78,303 78,303 78,303 78,303 79,302 79,302 79,302 80,303 80,303 80,303 80,302 81,302 81,302 81,302 81,302 81,302 81,302 81,302 81,301 81,301 81,301 81,301 82,301 82,301 82,301 82,301 81,301 81,301 81,301 81,301 81,300 81,300 81,300 82,300 82,300 82,300 82,300 82,300 82,300 82,300 82,299 82,299 82,299 82,299 82,299 82,299 83,299 82,299 82,299 82,299 82,299 82,298 82,298 83,298 83,298 83,298 83,297 83,297 83,297 83,297 83,297 83,297 83,297 83,297 83,296 83,296 83,296 82,296 82,296 82,296 82,296 82,296 82,296 82,296 82,296 82,296 82,296 82,296 82,296 82,296 81,295 81,295 81,295 81,295 81,295 81,295 81,295 81,295 81,295 81,294 81,294 80,293 80,292 80,291 80,291 80,291 80,291 80,291 80,292 80,292 79,292 79,292 79,292 78,292 78,292 78,292 78,292 78,292 78,292 78,292 78,291 78,291 78,291 78,291 78,291 78,291 78,291 78,291 77,291 77,291 77,291 77,290 77,290 77,290 77,290 77,290 77,290 76,289 76,289 76,289 76,289 76,289 76,289 75,289 75,289 75,289 75,289 75,289 75,289 75,289 75,289 75,289 75,289 74,289 74,288 74,288 73,288 73,288 73,288 73,288 73,288 73,288 73,288 72,288 72,288 72,288 72,288 72,288 72,288 72,287 72,287 72,287 71,287 71,287 71,287 72,287 72,287 72,287 72,287 72,287 72,287 72,287 72,287 72,286 72,286 72,286 72,286 72,287 72,287 72,287 72,286 72,286 72,286 72,286 72,286 71,286 71,286 71,286 71,286 71,286 71,286 71,286 71,286 71,286 71,286 71,286 70,286 70,286 70,286 71,286 71,286 71,286 71,285 71,285 71,285 70,285 70,285 70,285 70,285 71,285 71,285 70,285 70,285 70,285 70,285 69,285 69,285 69,285 69,285 69,285 69,285 70,285 70,284 70,284 70,284 70,284 70,284 70,284 70,284 70,284 70,284 70,284 69,284 69,284 69,283 69,283 69,283 70,283 70,283 70,283 70,283 70,283 71,283 71,283 71,283 71,283 71,283 71,283 71,283 71,283 71,283 71,283 71,282 71,282 71,282 72,282 72,282 72,282 72,282 72,281 72,281 72,281 72,281 71,281 71,281 71,281 71,281 72,281 72,281 72,281 73,281 73,280 73,280 73,280 74,280 74,280 74,280 74,280 74,280 75,280 75,280 75,280 75,279 75,279 75,279 74,279 74,279 74,279 74,279 74,279 74,279 74,279 74,279 74,279 74,279 74,279 74,279 74,279 74,278 74,278 74,278 74,278 74,278 74,278 74,278 75,278 76,278 77,278 77,278 77,278 77,277 77,277 76,277 76,276 76,276 77,276 77,276 78,276 78,275 78,275 78,275 78,275 79,274 79,274 79,274 79,274 79,274 79,274 79,274 79,274 80,273 80,273 80,273 80,273 80,273 79,273 79,273 80,272 80,272 80,272 80,272 80,272 80,272 80,272 80,272 80,272 80,271 80,271 80,271 80,271 79,270 79,270 79,270 79,270 79,269 79,269 80,269 80,269 80,269 80,269 80,269 80,269 80,269 80,268 80,268 80,268 80,268 80,268 80,267 80,267 80,268 81,268 81,268 81,268 81,268 81,268 81,267 81,267 81,267 82,266 82,266 82,266 83,265 83,265 83,265 83,265 81,264 80,264 79,264 79,263 79,263 79,263 79,263 79,263 79,263 79,263 79,263 79,263 79,263 79,263 79,263 78,263 78,263 78,263 78,263 78,263 78,263 78,263 78,263 78,263 77,263 77,263 77,263 77,262 77,262 77,262 77,262 76,262 76,262 76,262 76,262 76,262 76,262 76,262 76,262 75,262 75,262 75,262 75,262 75,262 75,262 75,262 74,262 74,262 74,262 74,262 73,261 73,261 73,261 73,261 73,261 72,261 72,261 72,261 72,262 72,262 71,262 71,262 70,263 70,263 69,263 69,263 69,263 68,263 68,263 68,263 68,263 67,263 67,263 66,263 66,263 65,263 65,263 65,263 65,263 65,263 64,262 64,262 64,262 63,262 63,262 63,262 63,262 63,262 62,262 62,262 62,263 62,263 62,263 61,263 61,263 61,263 60,263 60,263 60,264 59,264 59,264 59,264 59,264 59,264 59,264 59,264 59,264 59,264 59,264 59,264 59,264 59,264 59,264 58,264 58,264 57,264 57,264 57,264 57,264 57,265 56,265 56,265 56,265 56,265 56,265 56,265 56,264 56,264 55,264 55,264 55,264 54,264 53,264 53,264 52,264 51,264 51,264 51,264 50,264 50,264 50,264 50,264 47,265 46,265 46,265 45,266 44,266 44,266 44,266 43,266 42,265 42,265 42,265 42,265 41,265 41,264 41,264 41,264 41,264 41,264 41,264 40,264 40,263 40,263 39,263 39,263 39,263 38,262 38,262 38,262 38,261 37,261 37,261 37,261 36,260 35,260 35,260 35,260 35,258 35,258 34,257 34,257 34,257 34,257 34,257 33,255 33,255 33,255 32,255 32,255 32,254 31,254 31,254 31,254 31,254 31,254 30,254 30,254 30,254 29,253 29,253 29,253 29,253 29,253 28,252 28,251 28,251 28,251 28,250 27,250 27,249 27,249 26,249 26,249 25,248 25,247 25,247 25,247 26,246 26,246 25,246 25,246 25,246 24,246 24,246 24,245 24,245 24,245 23,244 22,244 22,243 22,243 22,243 21,242 20,242 20,242 19,241 19,241 18,241 17,241 16,240 16,240 16,240 15,240 15,239 15,239 15,238 15,238 16,238 16,238 16,238 16,238 16,238 15,238 15,238 15,238 14,238 13,238 11,238 11,238 11,238 11,237 10,236 10,236 9,236 9,235 9,235 8,234 7,234 7,234 6,233 4,233 4,232 4,232 4,232 3,232 2,232 2,232 1,232 1,231 1,231 1,231 2,231 2,230 2,230 1,230 1,229 0,226 0,226 0,226 1,225 1,225 1,225 0,225 0,225 1,224 2,224 2,224 2,224 2,223 2,223 2,223 2,223 2,223 2,223" id="2206" class="canton" fill="steelblue" stroke-width="1" stroke="white" geotype="canton" geoname="Lamballe" code_insee="2206" code_departement="22" nom_departement="Côtes-d'Armor" code_region="53" nom_region="Bretagne"/></svg>