<?xml version="1.0" encoding="utf-8"?>
<svg version="1.1" id="svgmap" xmlns="http://www.w3.org/2000/svg" xmlns:xlink="http://www.w3.org/1999/xlink" x="0px" y="0px" width="100%" height="100%" viewBox="0 0 500 295">
<polygon points="32,102 32,102 33,102 34,102 36,103 36,103 37,103 39,103 40,102 40,102 42,103 43,104 43,104 44,103 45,102 46,102 47,102 47,102 48,103 48,103 50,103 50,103 53,105 54,104 54,103 54,102 56,101 58,101 63,103 63,103 63,102 64,102 66,103 67,104 68,105 68,105 67,106 67,106 67,107 67,107 67,107 67,107 68,108 69,108 69,107 69,107 70,107 71,105 72,104 73,104 73,104 73,103 73,103 74,103 74,103 75,104 75,104 75,104 74,103 74,103 74,102 75,101 75,101 75,101 76,100 77,100 77,100 78,100 78,100 78,100 79,98 79,99 80,99 81,99 81,100 82,100 82,100 83,101 83,101 84,100 84,100 85,100 85,100 85,100 85,99 87,98 90,94 90,94 89,93 88,92 85,91 85,91 85,90 85,90 85,90 85,90 86,90 86,89 86,88 88,87 89,87 93,85 96,84 96,83 97,83 97,83 98,83 98,82 98,82 99,82 99,81 100,81 100,81 100,81 101,81 101,81 103,80 104,80 105,80 105,80 105,80 105,80 106,79 107,79 107,78 107,78 108,77 109,75 109,74 110,74 112,70 112,70 114,68 115,67 115,67 116,66 116,66 117,65 118,65 118,64 118,64 120,64 124,64 124,64 125,64 126,63 127,63 130,63 131,63 131,63 131,63 132,63 132,63 133,64 133,64 133,64 134,63 134,63 134,63 134,63 134,63 134,62 134,62 134,62 134,62 134,62 134,62 133,62 135,60 135,59 135,59 135,57 135,57 135,54 135,54 136,54 136,54 136,54 136,55 136,55 136,55 136,55 136,56 136,57 136,57 137,57 137,57 137,57 138,57 138,56 138,56 138,56 138,54 139,54 140,54 140,54 141,53 141,53 142,53 142,53 141,53 142,53 143,53 143,52 143,52 144,52 144,52 144,51 145,51 145,51 145,50 144,50 144,49 144,49 144,49 143,48 143,47 143,47 143,46 143,46 143,45 143,44 142,44 142,44 142,43 141,43 142,42 142,42 142,42 142,40 141,39 141,39 141,39 141,38 141,38 139,38 139,38 138,37 138,37 138,37 138,37 138,36 138,36 138,36 137,36 135,36 135,36 134,36 134,36 134,35 135,35 135,34 134,33 134,33 134,33 134,33 135,32 135,32 135,31 135,30 135,30 135,30 136,29 136,29 136,29 134,27 134,27 133,28 133,28 133,28 132,28 132,27 130,26 130,25 132,24 131,22 131,22 131,22 131,22 131,22 132,21 132,21 132,21 132,21 132,21 134,20 134,20 135,20 137,18 138,18 139,18 146,16 151,14 151,14 151,14 152,14 152,14 152,13 152,13 152,13 153,13 153,13 153,13 153,13 153,13 153,13 154,13 154,13 154,13 155,13 155,13 156,13 156,13 156,14 156,15 156,15 156,15 157,17 158,17 158,18 160,19 160,19 161,20 161,20 161,20 160,20 160,22 160,23 160,24 160,24 161,24 162,24 162,25 163,25 163,25 163,25 163,25 164,25 164,26 164,26 164,26 164,27 164,28 164,28 164,29 164,29 165,30 165,30 166,30 167,30 167,31 168,31 168,31 169,31 169,31 168,32 168,32 168,33 168,33 167,33 167,33 167,34 167,34 166,33 164,33 164,33 163,33 163,33 162,34 162,34 162,34 163,35 163,35 163,36 163,36 163,36 163,37 163,38 163,38 162,38 162,39 162,39 162,40 162,40 162,41 161,41 161,41 161,41 161,42 161,42 161,42 163,43 163,43 163,42 163,42 164,42 164,42 164,43 165,43 165,43 166,44 166,44 167,44 168,45 168,45 168,45 168,46 168,46 168,46 169,47 169,47 168,47 168,47 169,48 169,49 169,49 169,49 170,50 170,52 171,53 171,53 172,53 172,53 173,54 173,54 173,54 173,54 174,54 174,54 174,54 175,53 175,53 175,52 175,52 176,52 176,52 177,51 177,51 178,51 178,51 178,51 179,51 179,51 180,51 181,51 181,51 183,52 184,54 185,54 185,56 186,57 186,58 186,59 186,59 187,59 187,59 187,59 188,59 189,59 189,59 190,58 190,58 191,58 191,58 191,58 192,58 193,58 196,58 196,58 197,57 198,55 199,54 199,54 199,54 200,54 201,55 202,55 202,55 202,55 203,55 203,55 204,55 205,55 205,54 206,54 207,56 207,56 207,56 209,57 209,57 208,57 208,58 209,58 211,59 211,59 213,58 214,58 217,58 219,58 220,60 220,60 219,60 219,60 219,61 219,61 219,61 219,61 220,62 220,62 221,61 221,62 222,61 222,61 223,61 224,61 224,61 224,61 224,61 225,62 225,62 225,62 226,62 226,63 226,63 227,63 227,63 227,63 228,64 228,65 229,65 229,65 229,66 229,66 229,66 229,66 229,66 229,67 229,68 230,68 230,69 230,69 228,69 228,69 227,69 227,69 227,70 227,70 230,70 230,70 230,71 230,72 229,72 229,73 229,73 230,73 230,73 230,74 230,74 230,74 229,74 229,74 228,74 228,75 227,75 227,75 227,75 226,75 226,76 225,77 225,77 225,77 224,77 224,77 223,78 223,78 221,80 222,80 222,80 224,81 224,81 224,81 224,82 223,82 223,82 222,82 222,82 222,83 222,83 223,83 223,83 223,83 225,83 225,83 226,83 226,83 227,85 228,86 228,87 229,87 229,87 229,88 229,88 229,88 230,89 230,90 230,90 230,91 230,91 230,92 232,93 232,93 233,92 233,92 234,93 234,93 235,94 235,94 236,94 236,94 237,95 236,96 236,96 236,96 235,97 234,97 234,97 235,99 235,99 235,100 233,101 232,101 230,101 230,100 227,101 227,101 227,101 227,102 226,102 225,102 223,102 223,102 222,101 221,101 220,101 220,101 218,102 218,102 219,104 219,104 219,104 218,106 218,106 220,106 221,106 222,106 222,106 222,107 222,107 223,107 223,107 223,106 224,107 225,107 225,107 226,107 226,107 227,107 227,107 227,107 228,106 228,106 229,107 230,108 231,108 233,109 233,110 232,110 233,111 233,111 233,111 233,111 234,112 234,112 234,112 235,112 236,112 236,113 237,113 237,113 237,113 238,115 239,115 240,115 240,115 240,115 241,115 241,115 242,115 242,116 242,116 244,116 244,116 245,116 245,116 245,116 245,116 246,117 247,117 247,117 248,118 248,119 249,119 249,119 249,119 250,119 250,119 252,119 253,119 254,119 254,118 256,116 256,116 257,115 258,115 259,114 260,113 260,112 260,112 260,112 259,112 259,111 259,111 259,110 259,110 259,110 259,109 259,109 259,108 258,108 258,108 258,108 259,107 259,107 259,107 259,107 258,107 257,106 257,106 256,106 256,106 254,105 253,105 252,105 251,104 251,104 251,104 251,104 251,104 251,103 251,104 252,104 253,104 253,104 253,104 253,104 253,104 254,103 254,103 255,104 256,103 256,104 258,105 258,105 259,105 260,105 260,104 260,104 262,104 264,104 264,104 264,103 265,103 265,103 265,103 264,102 264,102 263,102 261,101 256,99 256,99 256,99 267,95 268,95 268,94 269,95 269,94 270,94 271,94 272,94 272,94 272,94 272,94 273,93 273,92 274,91 274,91 276,90 277,89 278,89 280,88 282,88 282,88 282,88 283,88 283,87 285,88 285,88 286,88 286,88 288,87 289,87 290,88 290,88 290,88 293,87 295,87 295,87 294,88 294,89 292,91 293,92 292,93 292,93 292,94 291,94 291,94 292,94 292,95 292,95 292,95 292,95 293,95 293,95 294,95 294,95 294,95 295,95 295,95 296,95 296,95 297,95 298,95 298,95 297,96 297,97 296,98 296,99 296,99 297,100 297,100 297,101 297,101 298,102 299,102 300,103 300,103 302,103 303,104 304,104 304,104 304,105 304,105 304,106 305,106 305,106 305,106 306,106 306,107 306,107 307,107 306,107 307,108 307,108 307,109 307,109 308,109 308,109 309,109 309,109 310,108 311,108 310,107 310,107 310,107 310,107 311,106 311,106 312,106 312,106 312,106 312,106 313,107 313,107 314,107 314,107 314,107 315,106 332,103 332,103 331,102 331,102 330,100 327,98 327,98 329,98 329,98 331,98 332,98 332,98 333,98 333,98 334,98 334,98 333,97 333,97 333,97 334,97 335,97 334,96 334,95 334,95 334,95 334,95 333,95 333,94 331,94 331,94 331,94 331,93 331,93 330,93 329,93 329,92 328,92 329,92 329,92 329,91 329,91 329,91 328,91 327,91 327,91 327,91 326,91 325,91 325,90 325,90 324,90 324,89 324,89 324,89 323,88 323,88 323,88 323,88 323,88 323,88 323,87 325,87 325,87 326,88 326,88 327,87 327,87 326,87 325,85 325,85 325,85 326,85 326,85 326,85 326,85 327,85 328,86 328,86 328,86 330,86 331,86 332,86 332,87 333,87 333,87 334,87 333,89 333,89 333,89 334,89 334,89 334,89 335,88 336,88 336,88 338,90 338,90 338,92 338,92 339,92 341,91 341,92 341,92 342,92 342,92 343,92 343,92 344,92 344,92 344,92 344,93 344,93 344,93 344,93 344,93 345,93 348,94 349,94 349,94 349,93 350,93 347,92 347,92 348,91 348,91 348,91 348,91 348,90 348,90 348,91 349,91 350,91 350,91 350,92 350,92 351,92 351,92 351,92 352,93 353,93 353,92 354,93 355,92 357,91 357,90 358,90 358,90 358,89 357,89 357,90 356,89 356,89 355,89 354,89 354,89 354,89 353,89 353,90 353,90 352,90 351,90 350,90 350,90 350,90 350,90 349,89 348,88 348,88 347,88 347,87 347,86 347,85 347,85 347,85 347,85 348,85 348,85 349,85 351,86 351,86 351,86 351,85 351,85 352,83 352,83 353,83 353,83 355,83 355,83 356,83 356,83 356,83 357,83 357,83 357,83 358,84 358,84 359,83 359,84 360,82 360,82 360,81 360,81 360,80 360,80 361,80 360,79 360,79 361,79 361,79 361,79 362,79 363,79 363,79 363,79 364,79 364,79 364,78 364,78 365,77 365,77 365,76 366,76 366,75 366,75 368,76 370,76 371,76 371,76 370,74 369,71 370,71 370,71 371,71 373,72 373,72 375,72 376,72 377,72 378,72 380,72 382,70 382,70 381,69 359,58 361,57 363,56 369,52 371,51 373,50 374,50 374,50 374,48 374,48 374,47 374,46 374,45 373,43 375,43 375,43 375,43 375,41 376,41 376,41 376,40 378,40 378,39 379,37 379,36 380,35 382,33 383,33 384,32 385,31 385,31 385,31 386,30 387,30 387,30 388,29 389,28 390,27 391,26 392,26 392,26 392,26 393,26 394,25 394,24 394,24 393,25 393,25 393,25 391,25 390,25 389,24 388,23 388,23 387,23 387,22 386,21 386,21 386,20 385,20 385,20 384,18 384,18 383,17 383,17 384,16 384,15 384,15 384,14 387,14 387,14 388,14 389,15 390,15 390,15 390,15 391,16 393,16 393,16 393,15 394,15 394,15 394,15 395,15 395,15 395,14 396,18 396,18 396,18 396,18 397,18 397,18 397,18 397,18 398,18 398,17 398,16 397,16 397,16 397,16 398,15 398,14 398,14 398,14 398,14 399,13 398,13 399,12 399,12 399,12 398,11 397,11 396,11 395,11 394,10 394,10 394,9 393,9 393,9 392,9 392,8 392,8 391,6 390,7 389,8 388,8 388,8 388,7 388,7 388,7 388,6 388,6 388,6 388,6 391,6 396,7 400,9 404,9 405,9 407,8 408,8 409,7 412,6 415,4 418,3 421,3 427,2 431,2 435,1 439,1 442,1 442,1 443,0 444,0 446,0 447,0 448,0 449,0 450,0 451,0 452,0 453,0 453,0 455,0 455,1 457,1 459,2 464,3 467,4 470,5 473,5 474,6 474,6 475,6 479,7 483,8 486,9 490,11 494,12 494,12 494,13 494,14 494,14 493,14 491,14 490,13 490,13 490,14 489,14 488,15 488,15 489,15 490,18 490,18 492,17 493,18 493,18 491,22 491,22 491,22 491,22 493,22 493,22 493,22 493,22 493,22 494,23 494,24 495,25 495,26 495,26 495,26 497,27 497,28 497,28 498,28 498,28 499,29 500,28 500,29 499,29 498,30 497,31 497,31 496,31 495,31 495,30 495,30 494,31 492,32 492,32 492,33 493,33 494,33 494,34 495,34 495,34 496,34 496,34 496,35 496,37 495,37 494,38 493,38 493,38 490,38 490,38 489,38 488,39 487,39 487,38 485,39 485,39 485,39 485,39 484,39 484,39 484,40 484,41 484,41 483,41 483,41 483,41 482,42 482,42 481,43 481,43 480,44 480,44 479,45 479,44 477,45 473,46 474,47 474,47 474,47 474,47 473,47 473,47 472,48 472,48 472,49 472,49 472,49 470,51 469,51 469,52 469,52 468,52 466,52 465,52 466,52 466,53 468,53 468,53 468,53 468,53 467,54 467,54 467,55 467,55 467,55 466,55 466,56 465,56 465,56 464,55 464,56 462,66 460,66 459,65 458,65 458,65 458,65 458,65 458,65 457,65 457,65 456,65 456,64 455,64 455,63 455,63 455,63 455,62 454,62 454,62 453,62 453,62 452,62 452,63 453,63 453,63 452,64 452,64 451,65 451,65 450,65 450,65 450,65 449,64 449,65 449,65 449,65 449,66 449,66 449,67 449,68 449,68 449,68 448,70 448,70 448,71 448,72 448,73 448,73 449,74 449,74 447,74 447,74 447,74 446,75 446,75 446,75 446,76 446,76 446,77 446,77 446,78 445,78 445,79 444,79 443,80 443,80 443,81 443,81 443,81 443,80 442,80 440,83 440,83 440,84 441,85 442,85 441,86 441,86 440,86 440,86 440,86 439,86 439,86 439,87 439,88 439,87 440,87 440,87 440,88 441,88 442,88 442,89 442,89 443,89 445,89 445,89 446,89 447,89 447,89 447,89 447,90 447,90 447,90 448,90 448,90 448,90 449,90 449,90 449,91 450,91 450,91 451,92 451,92 451,93 451,93 451,94 451,94 451,94 452,94 452,94 452,94 453,94 454,94 455,94 456,94 456,94 457,94 457,95 458,95 458,95 458,95 458,96 458,96 458,97 458,97 458,97 458,97 458,97 458,97 459,97 459,96 459,96 459,95 460,95 460,95 461,94 461,94 462,94 463,94 463,94 464,94 465,94 465,94 465,94 466,94 469,93 470,93 470,93 472,93 472,93 473,93 473,94 473,94 473,95 473,95 474,95 474,95 476,95 478,95 479,95 479,95 479,95 480,95 482,96 483,97 484,97 484,97 486,98 487,98 487,98 488,99 489,101 490,101 490,102 491,102 491,102 492,103 493,104 494,105 494,105 496,106 492,109 486,115 484,116 484,116 483,116 483,116 481,118 480,118 480,118 479,118 479,118 478,118 477,118 477,118 476,118 475,118 474,119 473,119 472,119 472,119 470,119 469,119 468,120 467,120 467,120 466,120 465,120 465,120 464,120 463,120 463,120 462,120 462,120 462,119 462,119 461,120 461,121 461,121 461,121 461,122 461,122 462,123 462,124 463,124 463,125 464,126 463,128 462,128 462,130 462,131 462,133 461,133 461,134 461,134 461,134 461,134 461,135 459,136 458,136 458,136 456,137 456,137 454,139 452,140 451,141 451,141 448,141 445,142 443,144 443,144 442,144 440,145 439,145 439,146 439,146 439,146 439,146 440,148 441,150 441,150 441,151 441,151 439,154 438,153 437,153 436,153 434,153 434,153 433,154 433,155 434,156 434,156 435,156 435,156 436,155 438,155 439,155 440,155 441,157 441,157 441,158 442,158 442,160 442,160 442,161 442,161 443,161 442,161 442,161 442,161 442,161 441,162 441,164 441,164 441,164 441,164 441,164 441,164 440,165 440,165 440,165 440,165 439,165 439,165 439,166 438,166 438,166 441,169 441,169 444,172 444,172 447,175 443,181 445,191 456,193 456,193 463,201 460,211 457,211 457,211 457,211 460,211 460,211 460,211 458,215 458,216 458,223 458,223 454,225 454,225 454,225 454,226 453,226 453,226 452,226 452,226 452,227 452,227 451,227 451,227 448,226 447,227 447,227 447,228 447,228 446,228 446,229 446,229 446,229 446,229 446,229 445,229 445,229 445,229 444,229 444,230 443,230 443,230 442,231 442,231 442,231 442,231 441,231 440,231 440,231 439,231 439,231 431,232 431,232 428,236 427,237 424,239 424,239 423,239 423,240 423,240 424,241 424,242 424,243 424,243 424,243 424,244 424,244 424,244 424,244 424,244 423,245 423,245 424,245 423,245 423,245 422,245 422,245 419,248 419,248 417,249 417,249 418,249 418,249 417,249 416,250 416,250 416,250 415,249 415,249 414,249 414,249 413,249 413,248 412,247 412,247 411,247 411,247 411,248 412,248 412,249 412,249 412,249 414,250 415,251 415,252 414,253 414,253 413,253 413,253 413,253 412,254 411,255 411,255 410,255 410,255 411,257 411,257 408,259 408,259 408,259 407,260 406,261 406,261 404,261 404,261 404,261 403,261 403,262 404,262 404,262 405,262 405,262 405,262 406,262 406,262 407,263 407,263 406,263 405,264 405,264 406,265 403,265 402,265 402,265 402,265 401,266 401,267 401,267 400,267 400,267 400,268 400,268 400,268 400,268 400,268 400,268 400,268 400,269 400,270 399,271 398,271 397,271 397,271 397,271 396,270 395,270 393,270 392,269 390,269 390,269 389,269 388,269 388,269 388,269 388,269 386,268 385,268 384,268 383,267 383,267 383,267 383,267 381,266 381,266 381,265 381,264 381,264 380,263 379,262 379,262 378,261 377,261 377,261 375,260 374,260 373,259 371,258 370,257 369,257 368,256 364,256 364,256 363,256 362,257 362,257 360,259 360,259 360,259 360,260 360,260 360,261 360,262 360,263 360,263 360,264 360,265 360,266 360,267 360,267 360,268 361,269 361,269 361,270 361,271 361,272 361,273 361,273 361,275 360,275 360,275 358,274 358,274 357,274 356,274 356,274 355,274 355,274 354,274 353,274 353,274 352,274 352,274 350,274 349,275 348,275 346,276 344,277 343,277 339,280 338,280 337,281 334,283 334,282 334,281 333,281 332,280 331,278 331,278 329,277 328,276 327,276 326,275 325,275 323,274 321,274 321,274 321,273 320,273 320,273 320,275 320,275 320,276 319,276 318,275 317,275 317,274 317,274 316,274 316,274 316,273 315,273 314,273 314,273 313,272 313,271 312,271 311,270 310,270 310,270 310,270 310,270 309,270 308,271 308,271 308,271 308,272 305,271 305,273 304,274 304,274 304,274 304,274 305,275 305,275 304,275 304,276 303,276 303,277 302,277 301,277 300,277 300,277 296,277 296,277 291,277 290,277 289,277 289,277 289,277 288,277 288,277 287,277 287,278 287,278 286,278 286,278 286,278 286,279 286,279 285,279 285,279 285,279 284,280 284,280 282,280 282,281 282,281 281,281 281,281 280,281 279,281 279,281 279,282 278,283 278,283 278,283 278,283 278,283 278,284 279,284 280,285 281,286 280,286 280,287 280,287 280,287 280,287 280,287 279,288 279,288 279,288 279,288 278,288 278,287 277,287 277,287 277,287 277,287 275,286 274,285 274,285 273,286 273,286 273,287 273,288 273,288 274,288 274,288 274,288 274,289 275,289 275,289 275,290 275,290 276,291 276,291 276,291 272,290 272,290 272,290 272,290 273,291 273,291 273,291 273,291 270,293 269,293 268,294 268,294 267,294 267,294 266,295 265,295 265,295 264,295 263,295 263,295 262,295 261,294 261,294 261,294 260,294 260,293 260,293 258,293 258,293 256,293 256,293 256,292 256,292 255,293 255,293 255,293 255,293 255,292 255,291 255,291 255,291 255,290 255,290 255,290 254,290 254,290 253,290 253,290 253,290 253,290 252,290 252,290 252,290 252,289 253,289 253,288 254,288 254,288 253,287 253,287 253,287 253,287 251,285 251,285 250,285 250,285 250,285 249,285 249,285 248,284 248,284 248,284 248,283 248,283 248,283 246,282 244,281 243,281 243,281 242,281 242,281 239,281 238,281 238,281 238,281 237,281 236,281 236,281 236,281 236,281 235,281 235,280 235,280 233,280 233,280 232,279 232,279 232,279 231,279 231,279 231,279 231,279 230,279 230,278 229,278 229,278 228,278 228,278 227,278 227,278 227,277 227,277 229,276 229,276 231,277 231,277 233,276 234,275 234,275 234,275 234,274 234,274 234,273 235,273 235,272 237,271 237,271 237,271 237,270 237,270 237,270 237,269 237,269 237,269 236,268 236,267 236,267 236,267 236,267 236,267 236,267 236,266 236,265 236,265 237,264 237,264 237,263 238,263 238,263 239,262 239,262 239,261 239,261 239,261 239,261 242,259 242,259 242,259 242,258 243,258 243,258 242,257 242,257 243,257 244,256 243,255 243,255 244,255 244,255 245,254 245,254 245,254 246,253 246,253 246,253 244,253 244,252 244,252 245,252 246,250 245,250 245,250 246,250 245,249 244,249 244,249 243,249 243,249 242,249 242,249 241,248 241,248 241,248 241,248 241,248 242,247 242,247 242,247 243,247 243,246 243,246 243,245 243,245 242,245 243,244 242,244 242,244 242,243 241,242 241,242 241,242 241,241 240,241 240,240 240,240 240,240 239,239 239,239 239,239 240,238 239,238 241,238 241,238 242,238 242,238 242,238 242,239 243,239 244,239 244,236 244,236 247,236 247,236 248,235 248,235 249,234 249,234 249,234 250,233 250,233 250,232 250,232 250,231 251,231 250,231 249,230 249,230 249,230 249,230 249,230 249,230 248,230 246,230 246,230 245,229 245,229 245,229 244,228 243,227 243,227 241,226 239,225 239,225 238,225 238,225 239,224 239,224 240,224 240,224 240,222 240,222 240,222 239,222 239,222 238,221 238,221 238,220 238,219 237,219 236,218 236,218 237,218 238,219 238,219 241,220 241,219 242,219 243,220 244,220 244,220 244,220 245,220 246,218 246,218 246,219 247,219 247,219 247,219 247,219 248,219 248,220 249,220 249,220 249,220 249,220 250,220 250,220 250,219 251,219 251,219 251,219 251,219 252,219 253,219 254,219 254,219 254,219 255,219 256,219 256,219 256,219 258,218 260,216 260,216 259,216 258,216 257,215 256,214 256,214 256,214 256,214 255,214 254,214 253,214 253,214 252,213 252,213 252,213 253,212 253,212 253,211 253,211 252,211 252,211 252,210 251,210 250,209 250,209 250,209 250,209 249,209 248,210 248,210 246,209 246,210 245,209 245,209 245,209 244,209 244,208 244,208 244,207 243,207 242,207 241,207 240,207 239,206 239,207 239,207 238,207 237,207 237,207 237,208 237,208 237,209 237,209 236,209 236,209 236,209 235,209 234,208 234,208 234,208 234,208 233,208 232,207 232,207 232,207 232,206 231,206 230,206 231,205 230,205 230,204 230,204 228,204 228,205 228,205 228,205 228,205 227,205 227,206 226,206 226,207 226,207 226,208 225,208 224,209 224,209 223,209 223,210 222,210 221,209 221,209 220,209 220,208 220,208 220,207 220,207 220,206 220,205 222,205 225,204 225,203 225,203 226,203 226,202 226,202 222,197 223,197 223,196 223,196 221,194 221,194 220,194 220,193 219,193 219,193 219,193 218,193 217,193 217,193 217,192 217,191 217,191 213,192 213,192 212,192 212,192 211,191 211,191 210,190 209,190 208,189 208,189 206,188 206,187 204,186 204,186 203,186 203,185 202,184 202,183 202,182 202,182 207,180 207,180 208,179 208,178 209,177 209,177 209,177 209,177 208,177 208,176 207,175 207,175 206,175 203,177 203,177 202,177 200,177 200,177 198,177 198,176 198,173 198,173 198,173 197,173 197,173 196,174 195,174 195,175 194,175 192,175 191,175 190,175 189,175 189,175 188,176 188,176 186,176 184,175 184,175 182,176 182,174 182,173 181,174 180,175 179,175 176,177 175,177 174,178 173,179 171,180 171,181 170,181 170,182 169,183 169,184 168,184 168,184 168,185 168,185 168,186 167,187 166,187 166,187 166,188 165,189 164,189 164,190 163,190 163,190 162,190 161,190 159,190 157,189 156,189 155,189 155,189 155,189 154,190 153,190 152,191 151,191 151,192 150,192 148,194 147,194 145,196 144,197 144,197 142,198 141,199 141,199 138,200 136,200 136,200 136,200 136,200 135,199 135,199 135,198 135,198 135,197 134,197 133,196 133,196 132,196 131,196 131,196 129,195 127,194 127,194 126,194 125,193 125,193 124,192 124,192 124,191 124,191 124,191 124,190 124,190 123,189 122,189 121,189 121,189 121,188 120,188 120,188 120,188 120,188 119,187 118,186 118,186 118,185 117,184 116,184 115,184 114,184 113,184 111,184 111,184 110,184 110,184 109,184 109,184 109,184 108,183 107,183 107,183 106,183 106,183 105,183 105,182 104,182 103,182 103,182 103,181 102,181 102,181 102,181 102,180 101,180 101,179 101,179 100,179 100,179 98,180 98,180 96,180 95,180 95,181 94,182 94,182 94,182 94,182 94,183 94,183 93,184 93,184 90,182 89,183 89,183 86,181 86,181 84,183 84,184 84,184 84,185 84,186 84,186 84,187 84,187 83,187 83,187 83,187 81,187 81,188 81,188 79,187 78,186 77,185 77,186 77,186 79,186 79,187 80,187 79,187 79,188 79,188 78,188 78,188 79,189 78,189 78,189 77,189 77,188 77,188 76,188 75,188 75,189 75,189 76,190 76,190 75,190 74,190 74,190 74,190 73,189 73,189 73,188 71,189 71,189 71,188 71,188 70,188 70,187 70,187 70,187 70,186 70,186 70,183 70,183 69,182 70,182 69,182 69,181 69,181 68,181 67,181 67,181 67,180 66,180 66,180 66,179 65,179 65,179 64,179 64,179 64,179 63,178 62,178 62,178 61,178 61,178 60,178 60,178 59,177 59,177 60,177 60,177 60,176 61,175 61,175 61,174 60,173 60,173 60,173 59,172 59,172 58,172 58,172 58,172 58,172 57,171 57,171 56,170 56,170 56,169 56,169 56,169 56,167 56,167 56,167 53,166 53,166 53,166 53,166 53,166 53,165 53,165 52,165 51,164 51,164 50,163 49,162 49,162 48,161 48,161 47,161 46,160 46,160 44,160 43,160 42,160 42,160 39,159 38,159 38,159 37,159 37,159 37,159 37,160 36,160 36,160 36,160 35,159 30,160 29,160 29,160 28,160 28,160 27,160 26,159 24,159 24,159 23,160 22,160 22,160 22,159 21,159 21,158 21,157 21,157 20,156 20,155 20,155 21,155 21,154 21,154 20,153 20,153 20,153 20,152 21,151 21,151 21,151 20,149 20,149 17,150 17,150 17,150 17,149 16,148 16,148 17,146 17,146 16,145 16,145 14,144 14,144 14,144 12,146 10,145 10,145 10,145 10,145 10,144 10,144 10,144 10,144 10,143 11,143 11,142 11,142 11,142 10,141 9,141 7,140 7,140 7,139 7,139 8,139 8,139 8,138 8,138 6,137 6,137 6,136 7,135 7,135 7,135 7,134 7,133 7,132 6,132 7,130 6,130 5,130 5,130 5,130 4,130 3,130 2,130 1,130 1,130 0,129 0,129 0,128 0,128 1,128 1,128 2,128 2,128 3,128 2,128 2,127 2,127 3,126 5,123 5,121 5,120 5,120 5,119 5,119 5,118 5,118 6,118 7,118 7,118 8,117 8,117 9,118 9,118 11,118 12,118 12,118 12,117 12,116 12,115 12,115 13,115 13,115 14,114 16,114 16,114 16,114 16,114 20,113 20,113 20,111 20,111 21,111 21,111 21,111 21,110 22,110 22,110 22,110 24,111 24,111 31,105 32,103 32,103 32,102" id="2313" class="canton" fill="steelblue" stroke-width="1" stroke="white" geotype="canton" geoname="Guéret-2" code_insee="2313" code_departement="23" nom_departement="Creuse" code_region="75" nom_region="Nouvelle-Aquitaine"/></svg>