<?xml version="1.0" encoding="utf-8"?>
<svg version="1.1" id="svgmap" xmlns="http://www.w3.org/2000/svg" xmlns:xlink="http://www.w3.org/1999/xlink" x="0px" y="0px" width="100%" height="100%" viewBox="0 0 500 322">
<polygon points="0,174 1,172 2,169 3,168 3,166 4,164 4,164 3,163 3,163 3,163 2,162 2,161 2,160 3,159 3,159 3,158 3,157 3,157 3,156 15,149 17,143 16,143 13,143 12,142 10,141 9,140 8,139 7,139 6,137 6,135 6,134 6,134 5,133 5,133 5,131 6,127 7,125 7,124 8,123 8,123 8,122 8,122 7,122 7,121 6,120 6,120 5,120 5,120 4,120 4,120 5,118 5,118 7,117 8,117 9,117 11,117 11,117 12,117 13,117 16,117 17,117 18,117 21,117 21,117 21,117 22,118 23,118 23,118 25,118 25,117 28,118 28,118 28,118 29,118 30,118 30,118 31,118 33,119 33,119 34,119 34,119 34,119 34,119 36,119 36,119 36,120 38,120 39,120 41,121 41,121 42,120 42,120 43,121 43,121 45,122 45,122 46,122 46,123 47,123 48,123 49,123 50,122 53,122 53,122 53,122 53,122 53,122 53,122 54,122 54,122 57,121 57,121 58,121 58,121 59,121 62,121 62,121 62,121 63,121 65,121 66,120 68,121 69,121 70,119 70,118 70,118 71,118 73,116 74,115 74,115 75,114 75,114 76,114 76,113 77,112 78,112 78,112 78,110 78,110 78,110 78,109 79,109 79,109 79,108 79,108 79,107 79,107 79,107 79,106 79,106 79,105 79,105 79,105 79,105 80,105 80,104 80,104 82,102 81,102 81,102 80,102 80,102 79,102 79,102 79,101 79,101 80,100 80,99 80,99 80,98 80,98 80,98 80,97 79,96 79,96 79,95 79,95 81,95 79,93 79,93 79,92 78,91 77,90 75,86 75,86 75,85 76,83 76,83 76,83 76,83 75,82 74,81 73,80 73,79 73,79 73,78 74,77 74,76 75,76 75,76 76,75 76,74 77,73 77,73 77,72 78,72 78,70 78,70 78,70 79,69 79,69 80,68 81,67 84,64 85,64 85,63 85,62 85,61 86,61 86,60 86,60 87,59 92,57 92,56 92,56 93,56 94,55 94,55 97,53 98,52 98,53 98,52 100,53 100,53 101,53 101,53 102,53 103,53 104,54 104,54 105,54 105,54 107,54 108,54 109,53 109,53 109,53 110,53 114,52 115,51 116,51 117,51 118,51 119,51 125,51 126,51 126,51 127,51 128,51 129,51 130,50 133,49 136,48 135,48 135,47 135,46 135,46 135,46 134,45 134,45 133,45 133,45 133,45 133,45 133,45 132,45 132,44 132,44 132,44 131,44 131,43 129,43 128,43 127,43 125,43 125,43 125,42 122,42 122,41 122,41 122,40 122,40 122,39 122,37 122,35 122,35 122,34 124,34 125,34 127,34 128,34 128,34 130,35 131,35 132,36 133,36 135,37 136,38 137,38 138,39 138,39 138,40 139,41 139,42 139,42 140,43 142,43 142,44 143,44 144,44 145,45 145,45 147,45 149,45 149,45 151,44 152,43 156,40 157,40 157,40 159,39 162,38 162,38 163,37 165,36 166,35 167,34 169,34 171,34 171,33 174,32 174,32 175,32 177,31 179,31 179,31 181,30 181,30 182,30 183,30 183,30 183,30 184,30 184,29 185,29 186,29 187,29 187,30 188,30 189,30 191,31 192,31 193,31 194,31 196,31 200,31 200,31 202,31 203,31 205,31 206,31 207,31 210,31 212,31 214,30 215,30 217,30 217,30 218,30 219,30 220,29 221,29 222,29 222,29 223,29 224,29 224,29 225,28 226,28 227,28 227,28 228,28 231,27 233,26 235,26 237,26 237,25 238,25 238,25 238,24 239,24 239,23 239,22 239,21 239,20 238,19 238,17 238,16 239,14 239,13 239,12 240,11 240,10 241,9 242,8 243,7 244,6 244,6 246,5 247,4 248,4 248,3 249,3 251,2 251,1 252,1 252,1 255,0 256,0 257,0 257,1 258,0 258,0 258,1 261,1 261,1 262,1 262,1 265,0 265,0 267,0 267,0 268,0 269,0 269,1 269,1 269,2 269,3 269,4 270,5 270,6 270,6 273,7 274,8 275,8 275,9 276,9 276,10 276,11 277,13 277,14 277,14 280,16 281,16 282,17 283,17 286,17 292,18 295,18 298,19 299,19 300,19 303,20 304,21 306,21 307,21 308,21 309,22 311,22 311,21 312,21 312,21 312,20 312,20 312,20 313,19 314,19 314,19 316,18 317,18 317,18 318,18 318,18 319,16 319,16 319,16 321,15 324,14 326,13 326,12 329,13 332,12 334,11 335,11 335,11 336,11 337,10 339,10 340,10 341,9 341,9 342,9 343,8 344,7 344,7 345,7 349,6 349,6 349,6 350,7 351,7 351,7 352,9 352,9 352,10 352,10 352,10 353,11 353,11 353,13 353,13 353,13 353,13 352,14 352,14 353,14 353,14 352,15 352,16 352,17 352,18 352,20 352,21 352,22 351,23 350,24 349,25 347,25 346,26 344,28 344,28 344,28 343,29 342,31 341,32 341,33 339,35 339,35 339,35 339,35 340,35 341,36 342,36 343,36 344,37 346,38 347,39 348,39 350,40 352,40 352,41 354,41 356,41 356,42 357,42 357,42 358,42 358,42 358,43 359,43 359,43 359,44 360,45 361,46 361,46 362,47 363,48 364,48 364,48 364,49 364,49 364,49 364,51 364,51 364,51 364,52 365,52 365,53 365,53 366,54 366,54 366,55 366,56 368,57 369,57 369,57 370,57 371,57 372,57 372,57 373,58 374,57 375,57 375,57 375,57 376,57 376,58 376,59 376,59 377,59 377,59 377,59 378,59 378,59 380,58 381,58 382,58 382,58 382,59 383,60 383,60 383,61 384,61 384,61 384,62 386,63 387,64 388,65 389,66 389,67 390,68 390,68 390,69 391,70 391,71 391,71 391,72 391,73 391,73 391,74 392,75 392,75 392,77 392,78 392,78 393,82 393,83 392,84 391,84 391,85 391,85 391,86 389,87 389,88 389,88 388,88 388,89 388,89 389,90 388,91 390,91 394,90 395,90 396,91 397,92 398,92 400,91 403,91 404,91 405,91 406,91 407,91 407,91 408,91 409,92 409,92 410,92 411,92 413,93 414,93 413,94 412,96 412,97 412,98 412,99 412,100 412,100 412,101 412,101 414,103 415,104 416,105 417,105 417,105 418,105 418,106 418,108 418,108 417,108 417,108 417,110 419,109 419,110 419,111 419,111 419,112 420,112 420,113 419,114 419,115 419,115 419,115 419,116 419,116 420,117 420,117 419,119 420,118 421,118 421,118 423,120 423,121 420,123 421,124 422,125 425,126 426,127 426,127 426,128 428,130 428,130 428,134 429,134 431,135 432,136 433,137 434,137 434,138 434,138 434,139 434,140 434,141 434,141 434,142 434,142 434,142 434,143 433,143 433,144 433,144 433,145 433,145 434,146 436,147 437,148 438,148 438,149 439,149 439,149 440,149 440,149 442,149 442,149 443,149 443,149 444,149 444,149 445,149 446,149 446,149 446,149 446,149 447,149 447,150 447,150 447,151 447,151 447,152 447,153 447,154 447,154 447,155 447,157 447,158 447,160 447,161 447,162 446,162 446,163 446,164 446,164 445,165 443,168 444,170 445,172 445,173 445,174 445,175 445,176 445,176 446,176 446,177 446,179 445,181 445,182 445,184 445,185 443,187 442,189 442,190 443,192 442,192 443,192 443,193 444,194 446,196 444,197 442,199 445,199 447,199 449,200 454,203 458,201 463,201 463,200 464,200 465,200 465,200 466,201 469,201 469,201 472,201 472,201 473,202 473,202 474,203 474,203 475,203 478,202 480,202 480,202 480,201 480,201 481,201 481,201 482,201 482,201 483,200 484,199 484,200 484,200 484,200 485,201 485,201 486,201 486,202 487,203 487,203 488,204 489,205 489,205 490,206 490,206 490,207 492,208 492,208 492,209 494,210 496,210 496,210 498,210 500,211 499,212 499,212 498,213 498,214 498,214 498,215 498,215 499,216 499,216 499,217 499,217 500,218 500,218 499,219 499,219 499,220 499,221 496,221 491,221 491,221 490,221 488,221 487,221 486,221 485,221 484,221 483,221 483,221 482,221 480,220 480,220 480,220 480,221 480,222 480,222 479,222 479,222 479,222 478,221 478,221 477,222 477,222 477,222 477,223 478,224 478,225 478,225 477,226 477,227 477,228 477,229 477,229 477,230 477,230 478,231 479,231 479,231 480,231 479,232 476,234 475,236 474,236 473,236 473,237 473,238 473,238 473,239 470,242 470,246 471,246 471,248 471,250 472,250 473,251 473,251 473,251 474,252 473,254 473,254 473,255 473,255 471,256 471,257 471,257 470,258 471,258 469,261 473,263 472,264 471,265 469,267 469,268 469,268 468,270 467,272 466,274 468,278 468,281 470,282 471,283 472,284 472,284 472,285 467,289 467,288 464,287 463,288 462,288 462,289 462,289 462,289 462,290 462,290 461,291 460,291 460,291 460,292 460,292 459,294 459,294 459,294 458,295 458,296 459,297 459,297 459,298 459,299 459,300 459,300 459,301 459,301 459,302 459,302 459,303 458,304 458,304 458,305 458,306 458,306 458,306 458,306 458,307 458,307 457,308 456,309 456,310 456,311 455,311 451,313 441,317 438,318 435,320 433,320 433,320 432,320 431,320 430,319 430,319 430,319 429,319 429,319 428,318 428,318 427,318 427,318 426,318 425,319 424,319 423,319 422,319 421,319 420,319 419,319 418,319 418,319 418,320 417,320 415,320 414,320 414,320 413,320 412,319 412,320 410,320 410,320 409,320 409,320 409,320 408,320 407,319 406,319 405,319 404,319 403,320 402,320 401,320 399,320 399,320 397,321 396,321 396,321 395,322 395,322 392,318 392,317 391,316 389,316 388,315 387,315 386,315 385,315 384,315 383,315 381,313 381,313 380,313 379,313 379,313 378,313 376,314 376,314 375,314 375,314 375,314 374,314 374,314 374,314 373,314 373,314 373,314 373,314 372,313 372,313 372,313 372,313 371,313 371,313 371,313 370,313 366,313 366,313 365,313 364,313 363,313 363,313 362,313 360,313 359,312 359,311 359,311 359,311 357,310 356,310 354,309 349,307 349,307 348,306 347,306 347,306 347,306 347,306 345,303 345,302 345,302 345,301 344,300 344,300 344,299 343,299 342,298 342,297 342,297 342,296 341,295 340,294 340,293 340,292 340,292 340,292 339,291 339,291 339,290 339,290 339,290 338,289 338,289 338,289 337,288 337,288 337,288 336,287 335,286 333,284 332,283 332,283 331,282 330,281 330,281 330,280 329,280 329,280 328,279 328,279 327,279 327,279 326,278 325,276 324,274 323,273 322,272 322,271 322,271 322,270 322,270 322,270 322,269 321,270 321,270 321,270 319,269 318,269 318,269 315,268 315,268 314,268 313,268 309,263 307,259 303,254 303,254 303,254 302,253 301,252 299,251 298,251 297,249 296,248 296,247 295,246 295,244 295,244 294,244 294,243 292,241 291,240 291,239 290,238 289,237 288,236 288,236 287,236 287,235 286,235 285,234 284,234 283,234 281,233 279,232 277,232 276,231 276,231 275,231 273,231 271,231 270,231 269,231 267,232 266,232 265,232 263,232 261,232 261,232 261,232 260,232 260,232 259,231 259,231 258,231 257,231 256,230 255,229 253,228 253,229 253,229 252,232 252,232 251,233 250,234 249,234 248,234 247,234 246,234 245,235 245,235 244,235 243,236 242,236 242,237 242,237 241,237 241,237 241,237 240,237 239,238 239,238 239,238 239,239 239,240 238,240 238,240 237,240 236,241 236,241 235,241 234,241 234,242 234,242 234,242 234,242 233,243 233,243 233,245 233,245 233,246 234,247 234,247 235,247 235,248 235,248 235,249 236,249 236,250 236,250 237,250 237,251 236,251 236,252 237,252 237,252 237,253 237,254 239,254 239,255 239,255 240,257 241,259 242,261 242,261 241,262 239,263 238,264 236,265 234,266 233,267 232,268 230,269 230,270 229,270 228,272 228,273 228,273 228,274 227,275 226,275 225,276 224,278 224,278 223,279 223,279 222,279 221,279 220,279 219,279 218,279 217,278 216,278 214,277 214,277 213,278 212,278 212,278 212,278 211,278 211,277 210,277 209,276 209,276 206,275 204,275 203,275 202,276 201,276 201,276 201,276 200,276 198,276 198,276 197,275 196,276 196,275 195,275 192,275 191,274 191,274 192,273 193,271 194,270 194,269 195,269 195,267 195,267 195,267 194,267 193,268 192,268 191,268 191,269 190,269 190,269 190,270 188,270 186,270 184,271 182,272 181,272 179,273 178,273 175,274 175,274 174,274 173,274 172,271 172,270 172,269 172,268 171,267 171,266 170,266 169,264 169,263 169,263 167,262 167,262 166,262 165,261 163,262 161,262 160,262 159,261 159,260 159,257 159,256 159,255 160,255 160,255 160,254 160,253 161,253 162,252 162,252 162,252 162,251 162,251 161,251 160,250 159,250 157,250 157,250 153,250 151,250 148,249 147,249 144,249 145,247 145,246 145,246 145,245 145,244 146,243 147,241 148,240 149,239 149,239 148,238 147,236 147,236 146,234 147,232 147,232 146,229 145,227 142,225 141,224 138,222 137,221 136,220 136,219 136,218 135,215 134,213 134,212 134,211 134,210 134,209 134,208 133,207 132,206 131,205 130,204 129,204 128,203 128,202 128,202 128,201 128,200 128,199 128,199 127,199 127,199 124,199 113,200 111,200 111,200 110,199 109,199 108,199 108,199 107,199 106,199 106,199 106,198 105,198 104,196 104,196 103,195 102,194 101,193 100,192 100,192 100,191 100,191 100,190 100,190 99,189 99,188 99,188 96,171 96,171 96,171 95,171 95,170 95,171 94,171 94,172 93,172 93,173 93,173 93,173 92,175 92,175 92,175 92,176 92,177 92,178 92,179 92,181 92,181 91,182 91,184 91,185 91,185 91,186 90,187 89,188 89,189 89,189 88,190 88,190 87,191 86,191 86,192 86,192 85,194 85,195 84,195 84,196 83,196 83,197 84,198 84,199 85,199 85,200 85,200 85,201 84,202 84,202 83,203 83,204 83,204 82,205 82,206 82,207 82,207 82,207 81,209 80,211 78,212 78,212 77,213 77,214 77,215 77,215 78,216 78,216 79,217 80,218 81,219 81,219 81,221 82,223 82,224 82,224 82,224 81,223 81,223 80,223 80,223 79,223 79,223 78,223 77,223 76,223 75,223 74,223 73,223 71,223 67,220 67,220 67,220 66,220 65,218 65,218 65,218 64,217 63,216 61,215 60,215 59,214 59,214 59,213 58,213 58,213 57,212 55,212 54,211 53,210 53,210 53,209 52,209 52,209 52,208 52,208 51,208 51,208 50,208 50,207 49,207 48,206 46,204 45,202 44,201 44,201 43,200 43,200 42,200 42,199 41,199 41,199 40,199 39,198 38,198 37,198 35,195 35,195 35,195 34,193 34,193 32,192 32,192 32,191 32,190 32,190 32,189 32,189 32,188 32,188 32,186 30,187 29,187 28,187 28,187 26,187 24,187 23,187 22,185 22,184 21,183 20,183 20,182 19,182 19,182 18,181 17,181 15,182 14,182 13,182 13,182 13,182 10,183 9,183 8,183 6,183 6,182 6,182 6,181 6,180 6,180 5,179 5,178 5,177 5,177 2,172 2,173 1,173 1,173 1,173 0,174 0,174" id="2407" class="canton" fill="steelblue" stroke-width="1" stroke="white" geotype="canton" geoname="Isle-Manoire" code_insee="2407" code_departement="24" nom_departement="Dordogne" code_region="75" nom_region="Nouvelle-Aquitaine"/></svg>