<?xml version="1.0" encoding="utf-8"?>
<svg version="1.1" id="svgmap" xmlns="http://www.w3.org/2000/svg" xmlns:xlink="http://www.w3.org/1999/xlink" x="0px" y="0px" width="100%" height="100%" viewBox="0 0 496 500">
<polygon points="356,2 357,2 362,2 364,2 368,3 368,3 369,3 371,3 371,3 371,4 371,4 371,4 373,4 377,5 382,5 382,5 383,5 384,5 385,5 393,6 393,6 393,6 393,4 393,4 394,4 399,4 400,4 404,4 408,4 410,3 413,3 420,2 421,2 421,2 422,3 423,4 430,11 431,12 432,11 432,11 433,10 433,12 433,13 433,14 433,15 433,15 431,17 431,17 430,18 430,19 429,21 429,22 429,22 429,23 429,28 429,31 428,34 428,35 430,41 431,42 431,42 431,42 432,43 433,44 435,45 435,45 441,46 441,46 441,46 441,47 441,47 441,48 439,49 439,50 439,51 439,53 439,53 441,55 442,56 442,57 442,59 442,61 441,63 441,65 437,73 437,74 437,75 436,78 436,79 436,80 436,80 437,84 437,85 437,85 437,85 436,86 436,86 436,87 437,89 438,91 438,91 438,92 439,92 440,96 443,111 444,113 445,116 446,117 446,118 446,118 446,118 439,120 439,120 439,122 439,122 439,122 438,123 438,123 433,123 431,123 431,123 432,124 432,124 433,126 434,126 434,126 435,126 435,126 436,126 438,127 439,128 442,129 443,129 445,130 447,131 447,131 448,131 448,131 449,131 449,132 450,132 450,133 451,132 451,132 451,133 452,133 452,133 453,133 453,134 454,134 455,134 455,135 456,135 456,135 457,136 457,136 459,137 460,137 461,138 463,139 464,140 466,140 467,141 470,141 471,142 471,142 473,142 473,143 474,143 475,143 476,144 476,144 478,145 479,145 480,146 481,147 483,147 483,147 483,148 483,148 482,149 482,149 482,149 483,150 483,151 484,151 485,151 485,152 486,152 487,153 491,155 492,156 492,156 492,157 493,158 494,160 494,161 494,163 494,162 495,162 495,162 496,163 496,164 496,164 496,165 496,166 496,167 495,168 494,169 493,170 491,172 490,173 487,176 485,178 483,180 480,183 479,185 477,186 476,187 474,190 472,191 468,195 464,200 455,209 449,215 444,220 436,229 429,236 428,237 420,244 419,246 406,259 404,261 401,264 399,266 397,268 395,270 389,276 387,278 386,279 386,279 385,281 384,281 382,281 378,280 378,279 370,286 368,288 366,289 361,294 359,295 355,300 354,300 354,301 354,301 354,303 353,304 352,304 349,306 348,307 347,309 346,309 346,310 345,311 345,311 345,312 345,312 343,315 343,317 342,318 342,321 342,323 341,327 341,327 340,328 340,329 339,329 339,330 330,337 329,337 328,338 327,339 327,339 326,340 325,340 325,339 326,337 326,337 323,336 323,336 323,335 322,334 320,333 319,332 316,331 314,331 312,330 305,328 304,327 303,327 301,327 300,327 298,327 298,328 298,331 298,334 298,336 298,337 298,338 298,338 301,338 302,338 303,338 304,340 305,340 308,343 311,347 314,350 315,351 318,352 318,353 319,353 319,354 318,357 318,359 317,360 317,363 317,365 315,371 313,385 312,388 311,393 310,397 309,406 307,413 305,427 304,431 304,432 303,436 302,439 302,441 301,445 300,449 300,452 300,457 292,455 287,454 280,453 274,452 270,452 264,451 257,451 252,451 246,450 244,450 239,450 239,453 239,454 240,457 240,459 241,462 241,462 241,463 241,463 241,463 241,464 240,464 241,466 241,469 241,470 241,472 240,473 239,476 238,476 238,477 238,478 238,479 238,479 238,480 238,481 238,483 238,485 238,485 239,486 239,487 239,489 239,492 238,494 238,497 238,498 238,500 236,500 234,500 234,497 233,496 233,496 233,495 232,495 231,494 230,494 229,493 229,493 228,493 228,493 228,493 227,494 226,494 225,494 224,494 223,494 220,493 220,493 218,491 218,491 215,489 215,489 213,488 214,488 214,488 214,487 213,487 213,487 213,485 213,485 213,485 208,480 208,480 208,479 209,479 208,479 203,476 200,475 199,474 199,473 199,472 199,472 198,471 198,471 197,461 197,459 196,459 196,459 194,459 194,459 194,457 194,456 194,455 194,454 195,451 195,450 195,450 196,449 196,449 196,449 196,448 195,448 195,447 196,446 196,446 195,445 195,445 195,444 196,444 196,443 195,443 195,442 194,441 193,441 192,441 192,441 191,441 189,440 188,440 188,440 187,439 186,439 185,439 184,439 183,438 183,438 182,438 181,438 181,438 180,438 179,438 178,438 178,438 177,438 177,437 176,437 175,437 174,436 173,436 172,436 170,436 168,436 166,435 164,435 163,435 163,435 162,434 157,432 157,432 157,431 156,431 155,431 154,430 153,430 152,429 151,428 149,427 149,427 148,426 148,425 147,425 147,425 147,424 147,423 147,422 146,421 146,421 145,421 143,421 143,421 142,421 142,421 142,422 142,422 142,422 141,422 140,423 139,423 139,423 138,423 137,423 137,424 136,424 136,424 135,425 135,425 134,425 133,424 132,424 132,424 132,424 131,425 131,425 130,426 130,426 130,426 129,426 129,426 128,426 127,426 125,426 125,426 123,426 122,426 120,427 118,427 117,427 116,427 115,427 114,427 114,426 114,426 113,425 113,425 112,425 111,425 110,424 109,424 109,424 108,425 108,425 107,425 106,425 105,425 104,425 104,424 104,424 103,424 102,423 102,423 101,422 100,422 98,421 97,421 96,421 95,420 94,420 93,419 92,418 91,418 90,417 89,416 88,416 85,415 84,414 84,414 84,413 84,413 84,413 84,412 84,411 84,411 84,411 84,410 85,410 85,410 85,410 84,410 84,409 82,409 81,409 81,409 81,408 81,408 82,407 82,406 82,405 82,405 81,401 81,401 86,398 87,398 87,397 90,394 93,391 94,389 97,386 100,381 100,381 99,381 97,380 93,379 92,379 92,379 90,378 89,378 86,381 86,381 84,379 84,379 86,378 86,377 87,376 87,376 88,374 88,373 88,372 88,366 88,363 88,360 88,359 86,353 86,351 86,350 86,348 88,340 91,322 91,321 90,321 90,321 89,287 88,267 88,266 88,254 87,235 87,235 87,235 83,234 80,234 78,234 72,232 72,232 72,231 72,230 72,230 71,229 70,228 70,228 69,227 68,227 68,226 68,225 68,225 68,224 69,224 69,223 69,223 69,222 69,221 69,221 69,220 69,220 70,220 70,219 70,219 69,218 68,218 67,218 67,218 66,218 66,217 66,216 66,216 66,215 66,215 67,215 67,214 66,214 66,214 67,214 67,213 67,213 66,212 66,212 67,212 67,212 68,211 68,211 69,211 69,210 68,210 68,210 68,210 68,209 69,208 69,208 69,207 69,206 69,206 69,205 70,205 70,204 70,203 69,202 69,202 69,201 69,199 69,199 68,196 67,196 67,195 67,195 66,195 65,196 65,197 65,197 65,197 65,196 65,195 65,195 65,195 64,194 64,194 64,194 63,193 63,193 63,193 62,193 62,193 61,193 61,192 61,192 61,192 60,192 60,192 59,192 59,192 58,191 58,191 58,191 58,190 57,190 57,189 57,188 56,187 56,186 56,185 56,185 55,185 55,185 55,185 55,185 55,184 55,184 55,183 56,182 56,182 57,178 57,176 57,176 56,176 54,176 53,176 52,176 52,176 51,175 50,175 50,175 49,175 49,174 48,174 47,173 47,173 46,172 46,172 45,172 45,172 44,172 44,172 43,171 43,171 43,171 43,170 43,170 41,169 40,169 39,168 39,168 39,168 39,167 37,166 37,165 37,165 37,164 37,164 37,164 36,163 36,163 35,163 34,163 34,163 34,163 35,162 35,162 35,162 34,161 34,161 34,161 34,160 33,159 33,159 33,158 33,158 32,157 32,156 32,155 32,153 32,153 32,152 32,151 32,151 31,150 31,150 32,149 32,148 32,148 31,147 31,147 31,147 30,146 30,145 30,145 29,145 29,145 28,144 28,144 27,143 27,143 27,143 27,143 27,142 27,142 27,141 27,140 27,140 27,140 28,139 29,139 29,139 29,139 29,139 29,138 29,138 27,137 26,136 26,136 25,137 25,137 24,137 24,137 24,136 23,136 22,136 22,136 21,135 21,134 21,133 21,133 21,133 20,132 20,131 20,130 20,129 19,128 19,128 19,126 18,126 18,125 17,124 17,124 16,123 16,123 15,122 15,121 15,121 15,121 14,120 13,120 13,120 12,120 12,120 11,120 10,119 10,119 9,119 9,118 9,117 9,116 9,116 9,116 7,115 7,115 6,114 6,114 7,113 7,113 6,111 4,108 3,108 3,107 2,106 2,106 1,105 1,104 1,103 1,102 0,102 0,100 0,100 0,100 1,99 1,98 2,98 2,97 3,97 3,97 3,96 4,95 4,95 6,93 7,92 8,92 10,91 11,90 12,89 14,88 14,87 15,87 15,87 15,86 16,86 16,86 16,86 17,86 17,86 17,86 18,87 18,87 18,86 19,86 19,85 20,84 20,83 21,82 21,82 22,81 22,81 22,79 23,78 23,77 23,77 23,74 23,73 23,73 24,73 25,72 27,72 28,71 28,71 29,70 30,69 31,69 31,68 32,68 32,67 33,66 33,65 34,64 35,62 35,62 39,60 40,60 41,59 42,59 43,58 44,57 46,56 47,56 48,55 49,55 50,53 51,52 52,52 53,51 55,49 55,48 56,48 56,48 58,48 58,48 59,48 59,46 59,45 59,45 59,44 59,43 58,42 58,42 58,41 58,39 58,37 58,37 57,36 57,35 57,35 57,33 57,31 57,31 59,30 59,30 60,30 62,29 63,28 68,26 68,25 69,25 69,24 70,23 70,22 70,22 70,22 70,21 70,21 71,20 71,19 71,19 72,19 72,20 72,20 73,20 75,20 80,19 81,19 82,18 86,15 87,14 88,13 89,13 89,12 90,10 90,9 91,7 91,6 92,5 92,5 92,4 92,2 92,1 92,1 92,1 93,1 93,1 93,1 95,1 104,0 104,0 105,0 110,0 113,0 115,0 134,3 134,3 134,4 134,5 134,6 135,7 135,8 135,8 135,9 137,11 137,12 137,13 137,14 137,15 137,16 137,18 138,19 138,19 139,20 139,20 139,22 140,24 139,25 139,25 140,26 142,28 144,29 144,30 145,31 149,33 151,35 152,35 153,36 154,36 156,36 156,37 159,37 160,38 162,38 163,38 164,38 165,39 168,39 171,39 173,39 174,39 176,39 178,40 179,40 181,40 183,40 183,39 184,39 185,39 186,39 191,41 191,40 191,40 192,39 192,38 192,37 193,36 192,34 192,32 191,27 191,26 191,23 191,23 193,23 193,23 193,24 193,25 193,25 197,25 198,25 200,24 200,24 201,25 205,27 206,28 208,28 210,29 212,29 213,29 215,29 216,29 224,32 228,33 228,33 228,34 228,34 228,34 231,35 231,36 231,36 231,37 231,37 232,38 236,41 241,43 242,44 245,47 250,51 250,51 250,51 252,50 259,49 260,49 264,48 266,47 272,47 274,47 275,46 277,45 278,45 278,45 280,46 282,47 284,47 288,48 290,48 297,48 299,48 301,48 310,49 310,48 310,47 314,46 317,46 320,46 322,46 325,45 326,45 327,45 334,46 338,45 342,43 343,42 347,42 353,40 354,40 357,40 359,40 359,40 360,39 360,39 360,37 360,36 361,36 361,36 362,35 367,34 369,34 371,33 373,32 375,32 376,32 375,32 374,31 370,29 369,29 366,27 365,27 364,27 356,3 356,2 356,2" id="2401" class="canton" fill="steelblue" stroke-width="1" stroke="white" geotype="canton" geoname="Bergerac-1" code_insee="2401" code_departement="24" nom_departement="Dordogne" code_region="75" nom_region="Nouvelle-Aquitaine"/></svg>