<?xml version="1.0" encoding="utf-8"?>
<svg version="1.1" id="svgmap" xmlns="http://www.w3.org/2000/svg" xmlns:xlink="http://www.w3.org/1999/xlink" x="0px" y="0px" width="100%" height="100%" viewBox="0 0 500 204">
<polygon points="41,2 42,2 42,2 44,2 45,2 45,2 46,2 47,1 47,1 48,1 48,1 48,2 48,2 48,3 49,3 50,4 50,4 51,4 52,5 54,7 55,7 55,7 62,8 62,8 64,8 64,7 66,8 67,8 68,8 69,8 72,8 73,8 74,8 74,8 76,7 76,7 78,7 80,7 80,7 80,7 82,8 82,8 84,8 87,8 87,8 88,9 90,9 89,10 91,10 91,10 91,11 90,11 90,12 89,13 89,13 88,14 89,14 89,14 90,14 91,15 91,15 92,16 92,17 92,17 92,17 93,18 94,18 94,18 95,18 95,18 95,18 97,18 97,18 98,18 98,18 100,18 100,18 100,19 101,19 101,19 106,20 106,19 106,19 106,19 106,19 106,19 106,19 106,18 106,18 106,18 106,18 105,18 105,18 106,18 106,18 105,17 105,17 105,17 105,17 105,17 104,17 104,17 104,16 103,16 103,16 103,16 102,16 103,16 103,15 103,15 103,15 103,15 103,15 103,15 103,14 104,14 104,14 105,14 105,13 105,13 105,12 105,12 105,11 106,12 106,11 111,11 111,12 111,12 112,12 113,12 113,12 114,12 115,11 116,11 119,11 120,11 125,12 125,12 125,12 125,13 124,14 124,15 126,15 128,16 129,15 130,15 132,15 132,16 133,16 134,17 135,17 136,18 137,18 137,18 137,19 138,20 138,20 141,20 142,20 143,20 144,20 144,20 145,19 146,19 149,19 150,20 152,19 153,20 153,21 154,21 156,21 158,21 159,21 160,21 162,21 162,20 165,19 166,19 166,19 166,19 166,19 166,19 166,19 168,18 168,18 170,18 170,18 170,18 170,17 171,17 171,17 171,18 172,18 173,18 173,17 173,18 173,18 173,18 173,18 173,19 175,18 176,18 177,18 177,18 178,18 178,18 178,18 180,18 180,18 180,18 181,18 182,18 182,18 183,18 183,18 184,18 184,18 185,18 185,18 186,18 186,18 187,18 187,18 188,18 188,18 189,17 190,17 190,17 191,16 191,16 191,16 191,16 192,16 192,15 192,15 194,14 194,13 195,13 195,13 195,13 195,13 195,13 195,13 195,15 195,16 195,17 195,17 195,17 195,18 195,18 195,18 195,19 195,19 195,19 195,20 195,20 195,20 197,20 197,20 197,20 197,20 198,20 198,21 199,21 199,21 200,21 200,22 201,22 201,22 201,22 202,22 202,22 202,22 202,22 202,22 202,22 203,22 203,22 203,22 204,22 205,22 206,22 206,22 208,22 208,22 208,22 208,22 209,22 209,22 209,22 211,23 212,24 212,24 214,24 215,24 215,24 215,24 215,24 216,23 216,23 216,24 217,24 217,24 218,24 218,24 218,24 219,24 220,25 220,25 220,25 221,25 224,26 224,26 224,25 225,24 225,23 225,23 226,22 226,22 226,22 227,22 227,23 228,23 229,23 229,23 230,22 231,22 231,21 231,21 232,21 232,21 232,21 232,20 232,20 232,19 232,19 232,19 232,19 232,19 231,19 231,19 231,19 231,18 232,18 234,19 234,19 235,19 236,20 236,20 236,20 236,20 237,19 237,19 238,19 238,18 238,18 239,19 240,19 241,19 242,19 242,19 243,18 243,18 244,19 244,19 244,19 244,18 244,18 244,18 244,18 243,17 243,17 243,17 243,17 243,17 249,14 249,13 249,13 250,13 251,13 251,13 251,14 251,15 251,15 251,17 251,17 251,17 252,17 252,17 252,17 252,17 252,17 253,17 253,17 256,17 256,17 257,17 257,17 257,17 258,18 257,18 257,18 257,18 258,18 258,18 259,18 259,18 260,19 262,19 262,19 262,19 262,19 262,19 264,20 264,20 264,20 264,19 264,19 264,19 264,19 265,20 265,20 265,20 265,20 265,20 265,20 265,20 265,20 265,20 265,20 265,20 265,20 265,20 266,20 266,20 266,20 266,21 266,21 266,21 266,21 266,21 267,21 267,21 269,25 270,27 270,28 270,28 270,28 272,28 272,28 272,28 273,30 273,30 273,30 276,30 276,30 276,30 276,30 275,30 274,28 274,28 274,28 274,28 275,28 275,28 275,28 275,28 275,28 276,28 276,28 276,28 276,29 277,29 277,29 277,29 277,29 282,30 282,30 282,30 282,30 282,31 282,31 282,31 282,32 282,32 282,32 282,32 283,32 283,32 283,32 283,33 283,33 284,33 284,34 284,34 284,34 284,34 284,34 284,35 284,35 284,35 284,35 284,35 284,35 283,36 283,36 283,36 283,37 283,37 284,38 284,38 284,38 284,38 284,39 285,39 285,39 285,39 286,39 286,39 286,39 286,40 286,40 287,40 287,40 287,40 288,41 288,41 288,41 289,41 290,41 290,42 290,42 291,42 291,42 291,42 292,43 293,43 293,43 293,43 293,43 294,44 294,44 294,44 294,44 294,44 294,44 294,44 294,43 294,43 294,43 294,43 294,43 294,43 294,43 295,42 295,42 295,42 295,42 295,42 295,42 295,42 295,42 295,42 295,42 296,41 296,41 296,41 296,41 296,41 296,41 296,41 296,41 296,41 296,41 297,41 297,40 297,40 297,40 297,40 297,40 297,40 297,40 298,40 298,40 298,40 298,40 298,40 298,40 299,40 299,40 299,40 299,40 299,40 299,40 299,40 299,40 299,40 299,40 299,39 299,39 299,39 299,39 299,39 299,39 299,39 299,39 299,39 299,39 299,39 299,39 299,39 299,39 299,39 299,38 299,38 299,38 299,38 299,38 299,38 299,38 299,38 299,38 299,38 299,38 299,38 299,38 299,38 299,37 299,37 299,37 299,37 299,37 300,37 300,37 300,37 300,37 300,37 300,37 300,37 300,37 300,37 300,37 301,37 301,37 301,37 301,37 301,37 301,37 301,37 301,37 302,37 302,37 302,37 302,37 302,37 303,36 303,36 303,36 304,36 304,36 304,36 305,36 305,36 305,36 305,36 306,36 306,36 306,35 306,35 306,35 307,35 307,35 308,35 308,35 308,35 308,35 309,35 309,35 309,35 310,35 310,35 310,35 310,35 310,35 311,35 311,35 311,35 313,35 313,35 313,35 313,35 314,35 314,35 315,35 316,35 316,35 316,35 316,35 317,35 317,35 317,35 318,35 318,35 318,35 319,34 319,34 319,34 319,34 320,34 321,34 321,34 322,34 322,34 323,34 323,34 323,34 323,35 323,36 323,36 323,36 323,37 323,37 323,37 323,37 323,37 323,37 323,37 323,38 323,38 323,38 323,38 323,38 323,38 323,38 323,38 323,38 323,38 323,38 323,38 323,38 323,39 323,39 323,39 323,39 323,39 323,39 323,39 323,39 323,39 323,39 323,39 323,39 323,39 323,40 323,40 323,40 323,40 323,40 323,40 323,40 323,41 323,41 323,41 323,41 323,41 323,41 323,41 323,41 322,41 323,41 323,41 323,41 322,41 322,41 322,41 322,41 322,41 322,41 322,41 322,42 322,42 322,42 322,42 322,42 322,42 322,42 322,42 322,42 322,42 321,43 321,43 321,43 321,43 321,43 321,44 321,44 321,44 321,44 321,44 321,44 321,44 321,44 321,44 321,44 321,44 321,44 321,44 321,44 321,44 321,44 321,44 321,45 321,45 321,45 321,45 321,45 321,45 321,45 321,45 321,45 321,45 321,45 322,45 322,45 322,45 322,45 322,45 322,46 322,46 322,46 322,46 322,46 322,46 323,46 323,46 323,46 323,46 323,46 323,46 323,46 323,46 323,46 323,47 323,47 323,47 323,47 323,47 323,47 322,47 322,47 322,47 323,47 323,47 323,47 322,47 322,47 322,47 322,47 322,47 322,48 322,48 323,48 323,48 323,48 323,48 323,48 323,48 323,48 323,48 323,48 324,48 324,48 324,48 324,49 324,49 323,49 323,49 323,49 323,49 324,49 324,49 324,51 324,51 324,51 325,51 325,51 325,51 327,50 327,50 327,50 328,50 333,48 333,48 337,48 338,48 343,48 345,48 345,48 345,48 346,48 346,49 347,49 347,49 347,49 348,47 348,47 348,47 348,47 348,45 348,45 348,45 347,45 346,44 345,44 345,44 345,44 344,44 344,43 344,43 343,43 344,43 344,43 344,43 344,43 344,43 344,43 344,43 344,43 344,43 344,42 344,42 344,42 344,42 344,42 344,42 345,41 345,41 345,40 345,39 346,39 346,38 347,38 347,38 347,38 347,38 347,38 347,38 347,38 347,38 347,37 347,37 347,37 347,37 347,37 347,37 347,37 347,37 347,36 347,36 346,36 347,36 347,36 347,36 347,35 347,35 346,35 346,35 347,34 346,34 346,34 346,34 346,34 347,34 347,34 348,34 348,35 348,35 349,35 349,35 350,36 350,36 350,36 350,36 351,37 352,37 352,37 352,38 353,38 354,38 354,38 354,38 354,38 354,38 354,38 355,38 356,39 356,39 356,39 357,39 357,39 358,39 358,39 360,39 361,39 361,38 361,38 360,38 360,38 360,37 360,36 361,36 362,35 363,33 363,33 364,33 364,33 364,32 365,32 364,31 364,30 364,28 363,28 362,26 362,25 362,24 362,24 362,24 362,23 361,22 361,21 361,21 360,20 359,19 362,18 362,17 362,17 363,17 365,16 365,16 366,16 366,16 366,15 366,15 367,15 367,14 368,14 368,14 369,14 370,12 371,11 372,11 373,11 374,11 374,11 375,11 376,12 376,12 377,12 377,12 378,12 379,13 379,13 379,13 379,13 379,14 380,14 380,14 379,14 380,15 380,15 381,16 381,16 381,16 382,17 382,18 382,19 382,20 382,20 382,21 383,21 383,22 383,22 384,22 384,22 384,23 384,23 384,23 385,23 385,23 385,23 385,24 385,24 385,24 385,24 385,24 385,24 386,24 388,25 388,25 388,26 388,26 388,27 389,27 389,27 390,27 391,28 391,27 391,27 391,27 392,28 392,28 393,28 393,28 394,28 394,28 394,28 395,28 395,28 395,29 395,29 395,29 395,29 395,29 395,29 395,29 395,30 395,30 395,30 395,30 395,31 395,31 395,31 396,31 396,31 396,31 396,32 397,31 398,31 400,31 403,31 404,31 405,31 406,32 406,32 408,32 408,32 409,31 409,31 410,31 414,31 414,31 414,30 414,30 415,30 415,30 416,31 416,31 417,31 417,31 417,32 417,32 417,32 418,32 419,32 420,33 420,33 420,33 421,33 421,33 421,33 422,33 422,33 422,33 423,34 423,34 423,34 423,34 423,34 424,34 424,34 424,34 425,34 425,34 425,34 425,34 425,34 425,34 425,33 425,33 425,33 426,33 426,33 426,33 427,33 427,33 428,34 428,34 429,34 429,34 429,34 429,34 429,33 429,33 430,34 430,34 430,34 430,34 430,34 432,34 432,34 432,34 432,34 432,34 432,34 432,34 433,34 433,34 433,34 433,34 433,34 434,35 434,35 434,35 434,35 434,35 435,35 436,35 437,36 438,36 438,36 438,36 438,36 438,36 439,36 439,36 439,36 439,36 439,36 439,36 439,36 440,36 440,36 440,36 441,37 441,36 441,36 442,36 442,36 442,36 443,36 443,36 443,36 444,36 444,36 445,36 445,37 445,37 447,37 447,37 448,37 448,37 449,37 449,37 450,37 450,37 450,37 450,37 450,37 450,37 450,37 449,38 449,39 449,39 449,39 449,39 449,39 449,39 449,39 449,39 450,39 450,39 450,39 450,39 450,39 451,40 451,40 451,40 451,40 451,40 451,41 451,41 451,41 451,41 451,41 451,42 451,42 451,42 450,42 450,43 450,43 450,43 450,43 450,43 450,43 450,43 450,43 450,43 450,43 450,43 449,43 449,43 449,43 449,44 449,44 448,44 448,44 448,44 448,44 448,44 448,45 448,45 448,45 448,45 448,45 449,45 449,45 449,45 449,45 449,45 448,45 448,45 448,45 448,45 448,45 448,45 448,45 448,45 448,45 448,45 448,46 448,46 448,46 448,46 448,46 448,46 448,46 448,46 448,46 449,46 449,46 449,47 448,47 448,47 448,47 448,47 448,47 448,48 448,48 448,48 448,48 448,48 448,48 448,48 448,48 448,48 448,48 448,48 448,48 448,48 448,48 448,48 448,49 448,49 448,49 448,49 448,49 448,49 448,49 448,49 448,50 449,50 449,50 449,51 449,51 449,52 449,52 450,52 450,52 450,52 450,52 450,52 450,52 450,52 450,52 451,52 451,52 451,53 451,53 451,53 451,53 451,53 451,53 451,53 450,53 451,53 451,53 451,53 451,53 451,53 451,53 451,54 452,54 452,54 452,54 452,54 452,54 452,54 452,54 452,54 452,55 452,55 453,55 453,55 453,55 454,56 454,56 454,56 455,56 455,56 455,56 454,57 454,57 454,57 454,57 454,56 454,56 454,56 453,56 453,57 453,57 453,57 453,57 453,57 453,57 453,57 453,57 453,58 453,58 453,58 453,58 453,58 453,58 453,58 453,59 453,59 453,59 453,59 453,59 453,59 452,59 452,59 452,59 452,59 452,60 452,60 452,60 451,60 451,60 451,60 451,61 451,61 451,61 451,62 451,62 451,62 451,62 451,62 451,63 451,63 451,63 451,63 451,63 452,63 452,63 452,64 452,64 452,65 452,65 452,65 452,65 452,65 452,65 452,66 452,66 452,66 452,67 452,67 452,67 452,67 452,67 452,67 452,68 452,68 452,68 452,68 452,69 452,69 452,69 452,69 452,69 452,70 452,70 452,71 452,72 452,72 452,72 452,72 452,72 452,72 452,73 452,73 452,73 452,74 452,74 452,74 452,74 452,74 452,75 451,76 451,77 451,77 451,77 451,77 451,79 451,79 451,79 451,79 452,79 452,80 452,80 452,80 452,80 453,80 453,80 453,80 453,81 453,81 453,81 453,81 454,82 454,82 454,82 455,83 455,83 455,83 456,83 456,83 457,83 457,83 459,83 459,83 460,83 460,83 460,83 460,83 460,83 460,83 460,83 461,83 461,83 462,83 463,83 463,83 463,83 464,83 465,83 465,83 465,83 465,83 465,83 465,83 465,83 467,83 467,83 467,84 467,84 467,85 467,86 467,86 467,87 467,87 468,87 468,87 468,87 469,87 469,88 469,88 470,88 470,88 470,87 470,88 471,87 471,87 472,87 472,88 472,88 472,88 472,89 472,89 472,89 473,89 473,89 473,89 473,90 473,90 474,91 474,91 474,92 474,92 475,92 475,92 475,93 475,94 475,94 475,94 475,94 475,94 475,95 475,95 475,95 475,96 475,96 475,97 475,97 476,98 476,98 476,98 476,98 476,98 476,99 477,99 477,99 477,99 477,99 477,100 478,100 478,101 478,101 479,101 480,101 480,102 480,102 480,102 480,102 480,102 480,103 480,103 480,103 479,103 479,104 479,104 479,104 479,104 480,104 479,104 480,105 480,105 480,105 480,105 481,106 481,106 480,106 480,107 481,107 481,108 481,108 481,108 482,108 481,108 481,109 481,109 481,109 482,109 482,109 483,109 483,109 483,109 484,109 485,109 485,109 486,109 486,109 487,109 487,109 488,109 489,109 490,108 491,108 492,108 493,108 494,107 494,108 494,108 494,108 494,109 495,109 495,109 496,110 496,110 497,111 498,111 498,111 498,111 499,111 499,111 499,111 499,111 499,111 499,111 500,112 500,112 500,112 500,112 500,113 499,113 499,114 499,114 498,115 498,115 498,115 498,116 498,116 497,116 497,117 496,117 495,117 495,118 495,118 496,118 496,118 496,118 496,118 496,119 496,119 496,119 495,119 495,120 495,120 495,120 494,120 494,121 494,121 494,122 494,122 494,122 494,122 493,123 493,123 493,123 493,123 493,123 493,123 493,124 493,124 493,124 492,124 492,124 492,124 492,125 491,126 491,127 490,128 490,128 490,128 490,128 490,128 490,128 490,129 490,129 490,129 490,130 489,130 489,130 489,130 489,130 488,130 488,130 488,130 488,130 487,130 487,130 487,130 486,130 486,129 486,129 486,129 485,129 485,129 485,130 485,130 485,130 485,130 485,130 484,130 484,130 483,130 483,130 483,130 483,129 482,129 482,129 482,130 482,130 482,130 482,130 482,130 482,130 482,130 482,130 482,130 481,130 481,130 481,130 481,130 481,130 481,130 481,130 481,130 481,130 481,130 480,130 480,130 480,130 480,131 480,131 479,131 479,131 479,131 479,131 478,131 478,131 478,131 478,131 478,131 478,131 477,131 477,131 477,131 477,131 477,131 477,131 477,131 477,131 477,131 477,131 477,131 477,131 476,131 476,132 476,132 476,132 475,132 475,132 475,132 475,132 475,132 475,132 475,132 475,132 475,132 475,133 474,133 474,133 474,133 474,133 474,133 473,133 474,133 475,133 475,133 475,133 476,133 476,133 477,133 477,133 477,133 478,134 478,134 479,134 479,135 480,135 480,135 481,135 483,137 483,137 483,137 483,137 483,137 483,137 483,137 483,137 482,140 482,140 481,141 481,141 480,141 480,141 480,142 480,142 480,142 479,144 479,144 479,144 480,144 480,144 480,144 480,144 477,149 476,150 475,150 474,152 473,153 474,155 474,156 474,158 473,160 473,160 473,161 471,163 471,164 471,164 471,165 472,165 471,165 472,166 473,167 473,167 473,167 472,167 473,169 473,169 473,169 473,169 473,169 472,169 472,169 472,169 471,169 471,169 471,169 471,169 470,169 470,169 469,170 469,170 468,170 468,170 466,170 465,170 465,170 463,170 462,170 462,171 460,171 460,171 459,171 458,171 458,171 458,171 458,171 458,171 457,170 456,170 455,169 454,169 454,168 453,169 453,169 453,169 452,169 452,168 452,168 452,168 451,168 451,168 451,168 451,168 451,168 451,168 451,168 450,168 449,168 447,167 447,167 446,167 446,167 445,167 444,167 444,167 444,167 444,167 444,167 444,167 444,168 444,168 444,168 444,168 444,168 444,168 444,169 444,169 443,169 443,169 443,169 443,169 443,169 442,169 442,169 441,169 441,169 441,169 441,169 441,169 441,169 440,169 440,170 440,170 440,170 440,170 440,169 440,169 439,169 439,169 439,169 439,169 439,169 439,169 439,169 439,169 439,170 439,170 438,170 438,170 438,170 438,169 437,169 437,169 437,169 437,169 437,169 437,169 437,169 437,169 436,169 436,169 436,169 436,169 436,169 436,169 436,169 436,169 436,169 436,169 436,169 435,169 435,169 435,169 435,169 435,169 435,169 434,169 434,169 434,170 434,170 434,170 434,170 435,170 435,170 435,170 435,170 435,170 435,170 435,170 435,170 435,170 434,170 433,170 433,170 433,170 433,169 433,169 433,169 434,169 434,169 434,169 434,169 433,169 433,169 433,169 433,169 433,169 433,169 433,169 432,169 432,169 432,169 432,169 432,169 432,169 432,169 432,169 432,168 432,168 432,168 432,168 432,169 432,169 432,169 431,168 431,168 431,168 431,168 431,168 431,167 431,167 431,167 432,166 432,166 432,166 433,165 432,165 432,164 432,164 432,164 432,163 432,163 431,163 431,162 431,162 431,162 431,162 431,161 431,161 431,161 431,161 431,161 431,160 431,160 431,160 431,160 431,160 431,160 431,159 431,159 431,159 431,159 431,159 431,158 431,158 431,158 431,158 431,157 431,157 430,157 429,156 429,156 429,155 429,155 429,155 429,154 429,154 429,154 429,154 429,153 429,153 428,153 429,151 429,151 429,151 429,151 429,150 429,150 429,150 429,150 429,149 429,149 428,148 428,148 428,148 428,148 428,148 428,148 425,147 424,147 423,146 423,145 423,144 422,144 422,143 422,143 421,142 421,142 421,141 420,141 420,140 419,140 419,140 418,139 418,140 417,139 417,139 417,139 417,139 416,139 416,139 416,139 415,139 415,139 415,139 413,139 413,140 412,139 411,139 411,139 410,139 409,139 408,139 407,139 407,139 406,139 405,138 404,138 403,138 402,138 402,137 401,137 401,137 401,138 401,138 401,138 400,138 400,138 400,138 400,138 399,138 398,139 398,139 397,140 395,141 394,142 394,142 394,142 393,142 393,142 393,143 392,143 392,143 392,143 392,143 392,143 391,144 392,144 392,144 391,144 391,144 391,144 392,145 392,145 392,145 391,145 391,145 391,145 392,146 392,146 392,146 391,146 392,146 392,146 392,147 392,147 392,147 392,148 393,148 393,148 394,149 393,150 393,150 394,152 392,152 390,154 389,153 388,152 386,151 385,151 384,151 382,150 382,150 379,149 378,149 378,149 377,149 376,149 373,149 373,149 372,150 371,150 371,150 368,149 367,149 363,149 362,148 358,147 358,148 355,147 355,146 355,146 355,146 354,146 353,145 352,145 352,145 352,145 351,145 351,146 351,146 350,146 350,146 350,146 350,147 350,147 350,147 350,148 348,149 348,149 348,149 348,149 347,150 347,150 346,150 345,150 344,150 344,150 343,151 343,151 343,151 342,152 341,153 340,153 340,154 340,156 340,156 340,156 340,156 340,157 340,158 340,159 340,159 340,159 340,160 340,160 340,160 340,160 340,161 340,161 340,161 340,161 340,161 340,161 340,162 340,162 340,162 340,162 340,162 340,163 339,163 337,169 337,169 337,170 337,170 337,171 337,171 335,172 335,173 335,173 335,173 334,174 332,175 332,175 332,175 332,175 331,175 331,175 330,175 330,175 330,175 330,175 330,175 330,174 330,174 329,174 329,174 329,174 329,174 328,174 328,174 328,174 327,174 327,174 327,174 326,175 326,175 326,175 325,175 325,175 325,175 324,175 324,176 324,176 324,176 323,176 323,176 323,176 322,176 322,176 322,176 322,176 322,176 322,176 322,176 321,177 321,177 321,177 321,177 321,177 321,177 320,177 320,177 320,177 320,177 320,177 320,177 319,177 319,177 319,177 319,177 319,177 319,177 318,177 318,177 318,178 318,178 318,178 318,178 318,178 318,179 318,179 318,180 317,180 317,180 317,180 317,181 317,181 317,181 317,181 317,181 316,181 316,181 316,181 315,181 315,181 315,181 314,181 314,181 314,181 314,181 314,182 314,182 314,182 314,182 314,182 314,182 313,182 313,182 313,182 313,182 313,182 312,182 312,182 312,182 311,182 311,182 312,182 312,182 312,182 312,182 311,182 311,183 311,182 311,182 311,182 311,182 310,182 310,182 310,182 310,182 310,182 309,182 309,183 309,183 309,183 309,183 309,183 309,183 308,182 308,182 307,182 307,182 307,182 306,182 306,182 305,182 305,182 304,182 304,182 304,182 303,182 303,182 303,182 303,182 302,182 302,182 302,182 302,181 301,181 301,181 301,180 301,180 301,180 301,180 302,180 302,180 302,180 302,180 302,180 302,180 302,180 302,180 302,180 302,180 302,180 302,180 301,180 301,180 301,180 301,179 301,179 302,179 302,179 302,179 302,179 302,179 302,179 301,179 301,179 301,179 301,179 301,178 301,178 301,178 301,178 301,178 301,178 301,178 301,178 301,178 301,178 301,178 301,178 301,178 301,178 301,178 300,177 300,177 300,177 300,177 300,177 300,177 300,177 300,177 300,177 300,177 300,177 300,177 299,177 299,177 300,176 300,176 300,176 299,176 299,176 299,176 299,176 299,176 299,176 299,175 299,175 299,175 299,175 299,175 299,175 299,175 298,175 298,175 298,174 298,174 298,174 298,174 298,174 298,174 298,174 298,173 298,173 298,173 298,173 298,173 298,173 298,173 298,173 298,172 298,172 298,172 298,172 297,172 297,172 297,172 297,172 297,172 297,173 297,173 296,172 296,172 296,173 296,172 296,172 296,172 296,172 296,172 296,172 296,172 295,171 295,171 295,171 294,171 294,171 294,171 293,170 293,170 293,170 293,170 293,170 292,170 292,170 292,170 292,170 292,169 292,169 292,169 291,169 291,169 291,169 291,169 290,168 290,168 290,168 290,168 290,168 289,168 289,168 289,168 289,168 289,168 289,168 289,168 288,168 288,168 288,168 287,168 287,167 287,167 287,168 287,168 287,168 287,168 287,168 287,168 287,169 287,169 286,169 286,169 285,169 285,169 285,168 284,168 284,168 283,168 283,168 283,167 283,167 282,168 282,167 282,167 282,167 282,167 282,167 281,167 282,168 282,168 282,168 281,168 281,168 280,168 280,168 279,168 279,168 278,168 277,168 276,168 276,167 275,167 275,167 275,168 275,168 274,168 274,168 273,168 273,168 273,168 272,168 272,167 272,167 272,167 272,167 271,167 271,168 271,168 270,168 270,168 269,169 269,169 269,169 269,169 268,169 268,170 268,170 268,170 269,170 269,171 269,171 268,171 268,171 268,171 268,171 268,171 268,172 268,172 267,172 267,172 266,172 265,172 265,173 264,172 264,172 264,173 264,173 264,173 264,173 263,173 263,173 263,173 263,173 263,173 263,173 262,173 262,173 262,173 262,173 262,173 262,173 262,172 261,173 261,173 261,173 261,173 260,173 260,173 260,173 259,173 259,173 259,173 258,174 258,174 257,174 257,175 257,175 257,175 257,175 257,175 256,175 256,175 255,175 255,176 255,176 255,176 255,177 255,177 254,177 254,177 254,177 253,177 253,178 253,178 253,178 252,179 251,179 251,180 251,180 250,180 249,180 249,180 248,180 248,180 248,180 247,181 247,181 247,180 246,180 246,180 246,180 246,180 246,181 246,181 245,181 245,180 245,180 245,180 245,180 245,180 245,179 245,179 244,180 244,180 245,180 245,180 244,180 244,180 244,180 244,180 244,180 243,180 243,179 243,179 243,179 242,179 242,179 242,179 242,179 242,179 242,179 242,180 242,180 242,180 242,180 242,180 241,180 241,180 240,180 240,180 239,180 239,180 239,180 239,180 238,180 238,180 238,180 238,180 238,180 238,180 238,180 237,180 236,180 235,180 235,180 235,180 235,180 235,179 235,179 235,179 234,178 234,178 233,178 233,178 233,178 232,178 232,178 232,178 232,178 231,178 231,178 230,178 229,178 229,178 228,178 228,178 227,178 227,178 227,178 226,177 226,177 226,178 226,179 226,179 224,180 224,180 222,181 221,182 220,185 219,185 219,185 217,185 217,186 215,186 215,186 214,186 212,187 212,187 212,188 212,188 211,189 211,190 210,191 206,193 206,193 200,195 199,196 199,196 199,196 199,196 198,197 197,197 197,197 196,197 196,197 196,197 195,197 195,197 194,197 193,197 192,197 192,197 191,196 190,196 190,196 189,196 189,196 189,196 189,196 189,196 189,196 188,196 188,196 188,196 187,197 186,197 184,198 184,197 183,198 182,198 182,198 182,198 181,198 181,198 180,198 178,198 177,199 176,200 175,200 174,200 173,201 173,201 173,201 172,201 171,202 170,202 170,202 169,203 168,203 168,203 168,203 168,204 168,204 168,204 168,204 167,204 166,203 165,202 165,202 165,202 165,202 164,202 164,202 164,201 164,201 163,202 162,202 162,201 160,200 159,200 159,200 158,200 157,199 155,199 155,199 153,198 152,198 151,198 150,198 149,198 149,198 149,197 148,197 147,197 146,197 146,196 145,196 145,196 145,196 145,196 145,196 145,196 144,196 144,196 143,196 143,196 143,196 143,195 143,195 143,195 142,195 142,194 142,194 141,194 141,194 140,194 140,194 140,195 140,195 139,194 139,194 139,194 138,194 138,194 138,194 138,194 137,194 137,193 137,193 134,192 135,192 134,191 134,191 134,191 134,191 134,191 133,191 133,191 133,191 132,192 132,192 132,192 132,192 132,192 132,192 132,193 131,193 131,193 130,193 130,193 130,193 130,193 129,193 129,193 129,193 129,193 129,194 128,194 128,194 128,194 128,194 128,194 127,194 127,194 127,194 126,194 126,194 126,195 126,195 125,195 124,195 124,195 123,195 123,196 123,196 122,196 122,195 121,195 120,195 120,194 120,194 120,194 119,193 119,193 119,193 119,193 119,192 119,192 119,192 119,192 119,192 119,192 118,191 118,191 118,191 118,191 118,191 118,191 117,190 117,190 117,190 117,189 117,189 117,189 117,189 117,189 117,189 117,189 116,189 116,189 116,189 116,189 116,189 116,188 116,188 116,188 116,188 116,188 115,188 115,187 115,187 115,187 115,187 115,186 115,186 114,186 114,186 113,186 113,186 113,186 113,186 113,186 113,186 112,186 112,185 111,185 111,185 111,186 111,186 110,186 110,186 110,186 110,186 110,186 109,186 109,186 109,186 109,186 109,186 109,186 109,186 109,186 109,186 109,187 109,187 109,187 109,187 109,187 108,187 108,186 108,186 107,187 107,187 107,187 106,188 106,188 106,188 105,188 105,188 104,189 104,189 104,189 104,189 104,189 104,190 104,190 104,190 104,190 104,190 103,190 103,190 103,190 103,190 103,190 103,190 103,190 103,190 103,191 103,191 103,191 102,191 102,192 102,192 102,192 101,192 101,192 101,192 100,192 100,192 100,192 100,193 100,193 100,193 100,193 100,193 100,193 100,193 100,193 100,193 100,193 99,193 99,194 98,194 98,194 98,194 98,193 98,193 98,193 97,193 97,193 97,193 97,193 97,193 97,193 97,193 97,193 97,193 97,192 97,192 97,192 97,192 96,192 96,192 96,192 96,192 96,192 96,192 96,191 97,191 96,191 96,191 96,191 96,191 96,191 96,191 96,191 96,190 96,190 96,190 96,190 96,190 95,190 95,190 95,190 95,190 95,190 95,190 95,190 95,189 95,189 95,189 95,189 94,189 94,189 94,189 94,189 94,189 94,189 94,189 94,189 94,189 94,189 94,189 94,189 94,188 94,188 94,188 94,188 94,188 94,188 94,188 94,188 94,188 94,188 94,188 94,188 94,188 94,188 94,188 94,187 94,187 94,187 94,187 94,187 94,187 94,187 94,187 94,187 94,186 94,186 94,186 94,186 94,186 94,186 94,186 94,186 94,186 94,186 93,186 93,185 93,185 93,185 93,185 93,185 93,185 93,185 93,185 93,184 93,184 93,185 93,185 93,185 93,185 92,185 92,185 92,185 92,185 92,184 92,184 93,184 93,184 93,184 93,184 93,184 93,184 93,184 93,184 93,184 93,184 93,184 93,184 93,184 93,184 93,184 93,184 93,184 93,184 93,184 93,183 93,183 93,183 93,183 93,183 93,183 93,183 93,183 93,183 93,183 93,183 93,183 93,183 93,183 93,183 94,183 94,183 94,183 94,183 93,183 93,183 93,183 93,183 93,183 93,182 93,182 93,182 93,182 93,182 93,182 93,182 93,182 93,182 93,182 93,182 93,182 93,182 93,182 93,182 93,182 93,182 93,182 93,182 93,182 93,181 93,181 93,181 93,181 93,181 93,181 93,181 93,181 93,181 93,181 93,181 94,181 94,181 94,181 94,181 94,181 94,181 94,181 94,181 94,181 94,181 95,180 95,180 93,180 94,179 94,178 94,178 94,178 94,177 94,177 95,177 95,176 95,175 95,175 94,175 94,175 95,175 95,174 95,174 95,174 95,174 95,173 95,173 95,173 95,173 95,172 95,172 95,172 94,172 94,172 94,172 94,172 95,171 95,171 95,170 94,170 94,170 94,170 94,169 94,169 95,169 95,169 95,169 95,169 95,169 95,169 95,169 95,169 95,169 95,168 95,168 96,168 96,168 96,168 96,168 96,168 96,168 96,168 97,168 97,168 97,168 97,168 98,168 98,167 98,167 98,167 98,167 98,167 98,167 98,167 98,166 98,166 99,166 99,166 99,165 99,165 99,164 100,164 100,164 100,164 100,164 100,164 100,164 100,164 100,164 100,163 100,163 101,163 101,163 101,163 101,163 101,162 101,162 101,162 101,162 102,162 102,162 102,162 102,162 102,161 102,161 102,161 102,161 102,161 102,160 102,160 102,160 102,160 102,160 103,159 103,159 103,159 103,158 103,158 103,158 103,158 103,158 103,157 104,157 104,157 104,157 104,157 104,156 104,156 104,156 104,156 104,155 105,155 105,155 105,155 105,155 105,154 105,154 105,154 105,154 104,154 104,154 104,153 104,153 104,153 104,153 103,152 103,152 103,152 103,151 102,151 102,151 101,150 101,150 101,150 101,150 100,150 100,149 100,149 100,149 99,149 99,149 99,148 99,148 99,148 99,148 99,148 99,148 99,147 99,147 98,147 97,147 97,147 97,147 97,147 96,147 96,146 96,146 95,146 95,145 95,145 94,145 93,145 93,145 90,144 89,144 89,144 89,143 88,143 87,143 87,143 86,142 86,142 85,142 85,142 84,141 84,141 84,141 84,140 85,140 85,139 86,135 87,134 92,133 92,133 92,133 92,133 92,132 92,132 92,132 92,132 92,132 92,132 92,132 92,132 92,132 91,131 91,131 91,131 91,131 92,131 92,131 91,131 91,131 92,130 92,130 92,128 92,128 92,127 92,125 92,122 92,121 91,120 91,119 91,119 90,119 89,118 89,118 88,117 87,117 87,117 87,117 86,117 86,117 85,116 84,116 85,115 85,115 84,115 84,115 85,114 85,114 85,113 84,113 84,112 84,112 84,112 84,112 83,111 84,111 84,111 84,111 83,111 83,111 83,111 83,110 83,110 83,110 83,110 83,110 83,110 83,109 83,109 83,109 83,108 83,109 83,108 83,108 83,108 83,108 82,108 82,108 82,107 82,107 82,107 82,106 81,106 81,106 81,106 81,106 80,106 80,106 80,106 80,105 79,105 79,105 79,105 79,105 79,105 79,104 78,104 78,104 78,104 78,104 78,104 78,103 78,103 78,103 78,103 77,103 76,102 76,102 76,102 75,102 75,102 75,102 74,102 74,102 74,102 74,102 74,102 74,102 74,102 74,102 74,102 74,102 74,102 74,102 74,102 74,102 74,102 74,102 74,102 74,102 74,102 74,102 74,102 74,102 73,102 73,102 73,102 73,102 73,102 73,102 73,102 73,102 73,101 73,102 73,102 73,102 73,102 73,101 73,101 73,101 73,101 73,101 73,101 72,101 72,101 72,101 72,101 72,101 72,101 72,101 72,101 72,101 72,101 72,101 72,101 72,101 72,101 72,101 72,101 72,101 71,101 71,101 71,101 71,101 71,101 71,100 71,100 71,100 70,100 70,100 70,100 69,100 69,100 69,100 69,100 69,100 69,100 68,100 69,100 69,99 69,99 69,99 69,99 68,99 68,99 68,99 68,99 68,99 68,99 68,99 68,99 68,99 68,98 68,98 68,98 68,98 68,98 68,98 68,98 68,98 68,98 68,98 67,98 67,98 67,98 67,97 67,97 67,97 67,97 67,97 67,97 67,97 67,97 67,97 67,97 67,97 67,97 67,97 67,97 67,97 67,97 67,97 67,96 67,96 67,96 67,96 67,96 67,95 66,95 66,95 66,95 66,95 66,95 66,94 66,94 66,94 66,94 66,94 66,94 65,93 65,93 65,93 65,93 65,93 65,93 66,93 66,93 65,93 65,93 65,93 65,93 65,92 65,92 65,92 65,92 65,92 65,92 65,92 65,92 65,92 65,92 65,92 65,92 65,92 65,92 65,92 65,92 64,92 64,92 64,92 64,92 64,92 64,92 64,92 64,92 63,91 63,91 63,91 63,91 62,91 62,91 62,91 62,90 62,90 62,90 62,90 62,90 62,90 62,89 62,89 62,89 62,89 61,88 61,88 61,88 61,88 60,88 60,88 60,88 60,87 60,87 60,87 59,87 58,87 58,87 57,86 57,86 56,86 56,86 56,86 56,86 55,85 55,85 55,85 55,85 54,85 54,85 54,85 54,85 54,85 53,84 53,84 52,84 52,84 52,84 52,84 51,84 51,84 52,84 52,83 51,83 51,83 51,83 51,83 51,83 51,83 50,83 50,83 50,83 50,83 50,83 51,83 51,82 51,82 50,82 50,82 50,82 50,82 50,82 50,82 50,82 50,82 50,82 50,82 50,82 50,82 50,82 50,82 50,82 50,82 50,82 50,82 50,81 50,81 50,81 49,81 49,81 49,81 49,81 49,81 49,81 49,81 49,81 49,81 49,81 48,81 48,81 48,81 48,81 48,81 47,81 47,81 47,81 47,81 47,81 47,81 47,81 47,81 46,81 46,81 46,81 46,81 46,81 46,81 46,80 46,80 45,80 45,80 45,80 45,80 45,80 45,80 45,80 45,80 45,80 45,80 45,80 45,80 45,80 45,80 44,80 44,80 44,80 44,80 43,80 43,80 43,79 43,79 43,79 42,79 42,79 41,79 41,79 41,79 40,79 40,79 40,79 40,79 40,79 40,79 40,79 40,78 40,78 39,78 39,78 39,78 39,78 39,78 39,78 39,78 39,78 39,78 39,78 39,78 39,77 39,77 39,77 39,77 39,77 39,77 39,77 38,77 38,77 38,77 38,77 38,77 38,77 38,77 38,77 38,77 38,77 38,77 38,77 38,77 38,77 38,77 38,77 38,77 38,77 38,77 38,77 38,76 38,76 38,76 38,76 38,76 37,76 37,76 37,76 37,76 37,76 37,76 37,76 37,76 37,76 37,76 37,76 37,76 37,76 37,76 37,76 37,76 37,76 37,76 37,76 37,75 37,75 36,75 36,75 36,75 36,75 36,75 36,75 36,75 36,75 36,75 35,75 35,75 35,75 35,75 34,75 32,73 31,73 31,72 31,72 31,72 31,72 31,72 31,72 30,72 29,72 29,71 29,71 28,71 28,71 27,70 27,70 27,70 27,70 27,70 27,70 27,70 27,70 27,70 26,70 26,70 26,70 26,70 26,70 26,70 25,69 25,69 25,69 25,69 25,69 25,69 25,69 25,69 25,69 25,69 25,69 25,69 24,69 24,69 24,69 24,69 24,69 24,68 24,68 25,68 25,68 24,68 24,68 24,68 24,68 24,68 24,68 24,67 24,67 23,67 23,67 23,67 23,66 23,66 23,66 23,66 23,65 23,65 23,65 23,65 22,65 22,65 22,65 22,64 22,64 21,64 21,64 21,64 20,64 20,64 20,64 20,64 20,64 20,64 20,64 20,64 20,64 20,63 20,63 19,63 19,63 19,63 19,63 19,63 19,63 19,63 19,63 19,63 19,63 19,63 19,63 19,63 19,63 19,63 19,63 19,63 18,63 18,63 18,63 18,63 18,63 18,63 17,63 17,63 17,63 17,63 17,62 16,63 16,62 16,62 17,62 17,62 17,62 16,62 16,62 16,62 16,62 16,62 16,62 16,62 16,62 16,62 16,61 16,61 16,61 16,61 16,61 16,61 16,61 16,60 16,60 16,60 16,60 16,60 16,60 16,60 16,60 16,60 16,59 16,59 16,59 16,59 16,59 16,59 16,59 16,59 15,59 15,59 15,59 16,59 16,59 15,58 15,58 15,58 15,59 15,59 15,59 15,58 15,58 15,58 14,57 14,57 14,57 14,57 14,57 14,57 14,57 14,56 14,56 14,56 15,56 15,55 14,55 14,55 14,55 14,55 13,55 13,54 13,54 13,54 13,54 13,54 13,54 13,54 13,54 13,54 13,54 13,54 12,54 12,54 12,54 12,54 12,54 12,54 11,54 11,54 12,53 12,53 12,53 11,53 11,53 11,52 11,52 11,52 11,52 11,52 11,52 11,52 11,52 11,52 11,52 11,52 11,52 11,52 11,52 11,51 11,51 11,51 10,52 10,52 10,52 10,51 10,51 9,51 9,51 9,51 9,51 9,51 9,51 9,51 9,51 9,51 9,51 9,51 9,51 9,51 9,51 9,51 8,51 8,51 8,51 8,50 8,50 8,50 8,50 8,50 8,50 8,50 8,50 8,50 8,49 8,49 8,49 8,49 8,49 8,49 8,49 8,49 8,49 8,49 8,49 8,49 8,49 8,49 8,49 8,49 8,49 9,49 9,48 9,48 9,48 8,48 8,48 8,48 8,48 8,48 8,48 9,48 9,48 9,48 9,48 9,47 9,47 9,47 9,47 9,47 10,47 10,47 9,47 9,46 9,46 9,46 9,46 10,46 10,46 10,46 10,46 10,45 10,45 10,45 10,45 11,45 11,45 11,45 11,45 10,45 10,45 11,44 11,44 11,44 11,44 11,44 11,44 11,44 11,43 11,43 11,43 11,43 11,43 11,43 11,43 11,43 11,43 11,43 11,43 11,43 11,42 11,42 11,42 11,42 11,42 11,42 11,42 11,42 11,42 11,42 11,42 11,42 11,42 11,42 11,42 11,42 11,41 11,41 11,41 11,41 11,41 11,41 11,41 11,41 11,41 11,41 11,40 11,40 11,40 11,40 11,40 11,40 11,40 11,40 11,40 11,40 11,40 11,40 11,39 11,39 11,39 12,39 11,39 11,39 11,39 11,39 11,38 11,38 11,38 11,38 11,38 12,38 12,38 12,38 12,38 12,38 12,38 12,38 12,37 12,37 12,37 12,37 12,37 12,37 12,37 12,37 12,37 12,37 12,37 12,36 12,36 12,36 12,36 12,36 12,36 12,36 12,35 12,35 12,35 12,35 12,35 12,34 12,34 12,34 12,34 11,33 11,33 11,33 11,32 10,32 10,32 10,32 10,31 10,31 10,31 9,31 9,31 9,31 9,31 9,31 9,31 9,30 9,30 9,30 9,30 9,30 9,30 9,30 9,30 8,29 8,29 8,29 8,29 8,29 8,29 8,29 8,28 8,28 8,28 8,28 7,28 7,28 7,28 7,27 7,27 7,27 7,27 7,27 7,27 7,27 7,27 7,27 6,27 6,26 6,26 6,26 6,26 6,26 6,25 6,25 6,25 6,25 6,25 6,25 6,25 7,25 7,25 7,25 7,25 7,25 7,25 7,25 7,25 7,25 6,25 6,25 6,25 6,25 6,25 6,25 6,24 6,24 7,24 7,24 7,24 6,24 6,24 7,23 7,23 7,23 7,23 7,23 7,23 6,23 6,23 6,23 6,23 7,23 7,23 7,23 7,23 7,23 7,22 7,22 6,22 6,22 6,22 6,22 6,22 6,22 6,22 6,22 6,22 5,22 5,22 5,22 5,22 5,22 5,22 5,22 4,22 4,22 4,22 4,22 4,23 4,22 4,22 4,22 4,22 4,22 3,22 3,22 3,22 3,22 3,22 3,22 3,21 3,21 3,21 3,21 3,21 3,21 3,21 3,21 2,21 2,21 2,21 2,21 2,21 2,21 2,21 2,21 2,21 2,21 2,21 1,21 1,21 1,21 1,21 1,21 2,21 2,20 2,20 2,20 2,20 2,20 2,20 2,20 2,20 2,20 2,20 2,20 2,20 2,20 2,20 2,20 2,20 2,20 2,20 2,20 2,20 2,20 2,20 2,20 2,20 2,20 2,20 2,20 2,20 2,20 2,20 2,20 2,20 2,20 2,20 2,20 2,20 2,20 2,20 2,20 2,20 2,20 2,20 2,20 2,20 2,20 3,20 3,20 3,20 3,20 3,19 3,19 3,19 3,19 2,19 2,19 2,19 2,19 2,19 2,19 2,19 2,19 2,19 2,19 2,19 2,19 2,19 2,19 2,18 2,18 2,18 2,18 2,18 2,18 2,18 2,18 2,18 2,18 2,18 2,19 2,19 2,19 2,19 2,19 2,19 2,19 2,19 2,19 2,18 2,18 2,18 2,18 2,18 2,18 2,18 2,18 2,18 2,18 2,18 2,18 2,18 2,18 2,18 2,18 2,18 2,18 2,18 3,18 3,18 3,18 3,18 3,18 3,18 3,18 3,18 3,18 3,18 3,18 3,18 3,18 3,18 3,18 3,18 3,18 3,17 3,17 3,17 3,17 3,17 3,17 3,17 3,17 3,17 3,17 2,17 2,17 2,17 2,17 2,17 2,17 2,17 2,17 2,17 2,17 2,17 2,17 2,17 2,17 2,17 2,17 2,17 2,17 2,17 2,17 2,17 2,17 2,16 2,16 2,16 2,16 2,16 2,16 2,16 2,16 2,16 2,16 3,16 3,16 3,16 3,16 3,15 3,15 3,15 2,15 2,15 2,15 2,15 2,15 2,15 2,15 2,15 2,15 2,15 2,15 2,15 3,15 2,15 2,15 3,15 3,14 3,14 3,14 3,14 3,14 3,14 3,14 3,14 3,14 2,14 2,14 2,14 2,14 3,14 3,14 3,13 3,13 3,13 3,13 3,13 3,13 2,13 2,13 2,12 2,12 2,12 2,12 2,12 2,12 1,12 1,12 1,12 1,12 1,12 1,12 1,12 1,12 1,12 1,12 1,12 1,12 1,12 1,12 1,12 1,12 1,12 1,11 1,11 1,11 1,11 1,11 1,11 1,11 1,11 1,11 1,11 1,11 1,11 1,11 1,11 1,11 1,11 1,11 1,11 1,11 1,11 1,11 1,11 1,11 1,11 1,11 1,11 1,11 1,10 1,10 1,10 1,10 1,10 1,10 1,10 1,10 1,10 1,10 1,10 0,10 0,10 0,10 0,10 0,9 0,9 0,9 0,9 0,8 0,8 0,8 0,8 1,8 1,8 1,7 1,7 1,7 1,7 1,7 1,7 0,6 0,6 0,6 0,6 0,6 0,6 2,6 5,6 6,6 6,6 6,6 6,6 8,7 8,7 8,7 8,7 8,7 9,7 12,8 13,8 14,8 15,8 17,8 18,8 19,8 19,8 20,8 20,8 20,8 21,8 21,8 21,8 22,9 22,9 23,9 24,9 25,10 26,9 26,8 26,8 26,7 26,7 26,7 26,7 26,6 27,6 27,6 28,5 28,4 29,3 29,3 30,2 30,2 31,1 31,0 32,0 34,2 35,2 36,3 36,3 37,3 37,3 37,3 38,3 39,3 41,3 41,2" id="2419" class="canton" fill="steelblue" stroke-width="1" stroke="white" geotype="canton" geoname="Sud-Bergeracois" code_insee="2419" code_departement="24" nom_departement="Dordogne" code_region="75" nom_region="Nouvelle-Aquitaine"/></svg>