<?xml version="1.0" encoding="utf-8"?>
<svg version="1.1" id="svgmap" xmlns="http://www.w3.org/2000/svg" xmlns:xlink="http://www.w3.org/1999/xlink" x="0px" y="0px" width="100%" height="100%" viewBox="0 0 500 419">
<polygon points="11,347 11,346 11,346 11,346 12,346 12,346 12,345 12,344 12,343 13,343 13,341 13,341 13,341 12,340 12,340 11,340 11,340 11,340 10,340 10,339 9,337 9,337 9,337 9,336 8,336 8,334 9,332 9,332 9,331 9,331 10,330 11,328 11,328 12,327 12,327 13,324 14,323 14,322 16,320 17,319 18,318 18,318 21,317 40,311 40,311 41,311 46,310 53,309 54,310 54,310 47,312 39,314 39,314 39,314 36,315 35,315 34,316 31,317 30,318 28,319 27,320 27,321 28,321 29,322 30,322 30,323 30,324 31,325 31,325 32,326 32,326 32,328 32,329 32,329 34,328 33,328 37,326 37,326 38,326 39,325 42,329 43,330 44,330 46,331 48,333 49,334 50,333 51,332 51,332 51,333 49,336 48,338 48,341 55,336 56,335 57,335 66,328 66,328 67,328 67,328 68,328 68,328 69,329 69,329 69,330 71,330 72,331 73,331 73,331 75,332 75,332 76,331 77,331 78,330 80,329 82,327 82,326 83,326 84,325 84,324 84,324 84,324 85,325 85,326 86,326 86,327 86,328 89,329 90,329 91,329 91,329 93,330 94,330 94,330 94,330 97,332 97,333 98,333 98,334 98,336 98,336 99,336 99,337 100,337 101,337 101,337 102,338 103,337 104,337 104,337 105,336 106,336 107,336 106,335 106,334 104,332 104,329 101,324 99,322 98,320 95,317 93,316 91,316 92,312 93,309 93,308 92,307 92,306 92,306 94,305 94,305 94,304 95,303 95,303 95,302 95,301 97,299 97,299 100,298 101,298 103,296 103,296 103,294 95,286 97,285 98,285 100,283 103,278 105,276 105,275 106,274 110,273 114,271 115,270 116,269 114,266 113,265 112,264 112,264 111,260 111,259 111,259 111,259 111,259 112,258 113,256 114,256 114,256 114,256 115,256 115,256 115,255 115,255 116,255 116,254 116,254 117,254 117,254 130,246 135,244 136,243 136,240 137,238 137,238 138,237 139,236 140,235 142,232 142,232 142,231 142,230 143,229 143,229 146,224 146,224 145,224 146,221 148,218 150,217 152,215 158,212 161,211 163,210 165,209 165,209 165,209 165,208 165,206 167,204 170,199 170,198 171,198 172,197 173,197 175,196 182,193 183,192 185,190 186,189 178,177 176,174 169,162 165,152 163,144 163,144 163,144 169,142 191,136 204,132 211,129 225,122 228,121 236,118 239,116 241,115 242,114 245,113 252,105 253,105 255,102 257,101 258,100 260,98 260,98 262,97 263,96 264,95 265,94 266,93 268,91 268,91 269,90 270,89 270,88 270,87 270,86 271,86 271,85 272,84 276,81 278,80 279,79 279,79 281,78 283,76 284,76 285,75 287,73 288,72 289,71 289,71 294,70 294,69 294,69 296,69 296,68 299,66 300,66 303,66 310,61 310,61 313,58 317,56 320,54 322,54 324,53 326,52 327,51 328,51 330,50 333,50 335,50 335,50 336,50 336,51 337,51 340,51 342,51 342,51 350,48 355,47 358,46 359,45 364,43 367,41 369,40 371,38 372,36 373,33 373,33 375,34 376,34 377,33 380,32 380,32 382,29 382,29 385,29 386,28 388,28 389,28 390,27 391,26 392,26 393,25 394,25 395,24 396,23 397,22 400,20 402,19 404,18 405,17 406,16 406,15 408,13 408,13 410,13 411,12 412,12 413,10 414,10 414,10 416,9 417,8 418,8 420,7 423,5 424,4 425,5 427,7 429,8 429,8 432,10 433,10 434,11 437,8 441,5 446,0 447,0 450,6 450,7 452,12 457,21 457,21 455,32 454,35 460,38 462,39 468,41 470,46 471,47 472,54 472,54 472,54 472,55 472,55 472,55 473,55 473,55 473,55 476,55 476,54 477,54 477,54 479,54 479,54 480,54 480,53 480,53 481,53 481,53 482,53 482,53 483,52 484,52 485,52 485,51 486,51 489,49 490,49 490,49 491,49 491,49 492,50 492,50 492,51 493,51 493,52 493,53 493,53 493,53 493,54 493,54 494,57 494,58 495,59 497,58 499,58 500,62 500,64 500,65 499,65 498,66 498,66 497,67 496,67 495,67 494,67 493,67 492,68 491,68 489,69 488,70 488,70 487,70 484,72 484,72 483,72 482,72 477,73 476,74 473,74 471,74 470,74 463,73 462,73 455,74 452,74 446,75 442,75 442,75 438,77 430,81 428,81 428,81 429,82 428,82 426,83 426,83 429,86 429,88 429,88 424,90 424,90 425,91 425,92 418,94 419,97 419,98 411,99 411,99 411,101 411,102 410,105 410,105 404,105 405,106 405,106 398,107 398,108 398,109 397,111 397,113 397,114 397,115 397,116 398,116 399,116 400,116 401,116 402,116 403,116 406,115 406,117 407,117 407,117 407,117 403,118 403,119 402,119 402,120 402,121 402,121 400,121 400,122 399,122 399,123 395,123 395,124 395,125 391,125 391,126 392,126 392,127 392,127 392,128 392,130 392,131 391,131 392,135 392,137 390,137 389,138 386,138 384,139 380,140 375,141 368,143 365,144 363,145 360,147 359,147 357,147 356,148 355,148 353,149 353,149 350,150 349,150 344,153 340,154 339,155 335,156 333,156 327,156 326,156 324,157 323,157 322,158 319,159 317,159 316,159 316,160 315,160 314,161 313,161 311,162 310,163 307,163 307,164 306,164 305,164 304,166 303,166 301,167 300,167 299,167 299,166 298,166 298,166 298,165 297,165 296,166 296,166 288,167 283,168 278,169 275,170 271,171 271,171 270,171 265,172 264,171 263,172 260,172 259,172 256,173 253,177 252,178 252,178 252,179 251,180 251,181 250,182 251,182 251,184 251,184 251,184 251,185 251,185 251,186 250,187 250,187 249,188 248,188 248,189 247,190 247,190 247,190 247,190 248,191 249,192 250,193 250,194 251,194 251,194 251,194 251,194 250,195 250,196 250,196 250,196 251,198 251,198 251,198 253,199 253,199 254,199 254,200 254,201 254,202 249,210 249,210 249,211 249,211 245,212 245,213 243,214 236,225 233,230 231,232 231,232 226,235 226,235 222,237 222,237 222,238 222,238 221,239 219,239 216,241 216,241 216,242 217,242 217,244 216,244 215,244 214,244 213,243 211,243 209,243 208,244 208,245 207,246 208,246 207,247 207,248 207,248 206,248 204,248 204,248 204,248 204,248 203,248 204,249 203,249 204,250 204,251 204,251 204,251 204,252 203,252 203,252 203,253 203,254 203,254 202,255 201,256 202,256 202,256 202,256 202,256 202,256 200,261 200,261 211,264 211,264 210,264 213,265 213,265 217,267 217,267 213,271 213,271 214,271 217,273 217,273 218,277 223,276 223,281 223,281 226,281 233,282 234,282 234,286 234,286 232,286 232,286 232,288 232,288 235,288 242,289 243,289 250,291 255,293 262,295 263,295 263,297 263,297 263,297 263,297 264,298 264,298 264,298 266,300 267,300 267,303 268,303 270,305 270,306 276,310 276,310 278,309 282,306 284,307 289,308 293,309 294,309 299,311 303,315 309,320 305,321 304,322 303,322 302,323 301,325 300,325 299,326 297,327 296,327 295,329 293,330 292,331 291,331 291,332 288,333 288,334 284,330 282,331 280,332 274,334 273,334 266,334 266,334 261,334 261,334 255,334 249,335 248,335 244,335 239,336 235,337 235,337 232,336 231,336 228,336 227,336 199,340 198,340 194,341 193,341 191,342 190,343 189,343 189,343 188,344 187,344 185,345 185,345 185,346 184,346 183,347 178,346 173,344 172,344 171,345 170,345 169,346 169,346 169,346 167,346 167,346 166,347 166,347 165,347 164,347 164,347 163,347 163,347 163,347 162,347 160,346 159,346 158,346 158,346 157,345 156,345 154,347 153,348 153,349 152,350 151,351 150,351 150,352 149,352 146,354 145,354 143,356 143,356 141,357 141,358 138,360 137,362 136,363 134,369 134,369 133,370 132,372 131,373 130,374 129,375 128,376 126,377 124,379 121,381 119,384 117,387 115,390 115,393 114,395 113,398 111,399 111,399 107,403 107,404 106,405 105,407 103,408 102,410 96,413 88,416 79,418 72,419 63,419 58,417 52,415 44,404 38,391 31,381 30,379 29,377 27,376 25,375 17,371 11,370 9,370 9,369 9,369 9,369 9,369 7,369 6,368 5,368 4,368 4,367 3,367 3,362 3,362 3,361 3,361 3,360 3,360 3,359 1,358 0,358 0,358 0,358 0,356 1,356 1,356 2,355 5,354 7,353 8,353 10,352 9,351 13,350 12,349 13,349 12,348 12,348 12,348 12,347 12,347 11,347" id="2507" class="canton" fill="steelblue" stroke-width="1" stroke="white" geotype="canton" geoname="Besançon-4" code_insee="2507" code_departement="25" nom_departement="Doubs" code_region="27" nom_region="Bourgogne-Franche-Comté"/></svg>