<?xml version="1.0" encoding="utf-8"?>
<svg version="1.1" id="svgmap" xmlns="http://www.w3.org/2000/svg" xmlns:xlink="http://www.w3.org/1999/xlink" x="0px" y="0px" width="100%" height="100%" viewBox="0 0 500 319">
<polygon points="115,7 115,7 116,7 116,7 116,7 116,6 117,6 117,5 117,5 117,5 117,4 118,4 118,3 118,3 118,3 118,3 119,3 119,2 120,2 120,1 120,1 121,1 121,0 122,0 123,0 123,0 123,1 124,2 124,2 125,2 125,3 126,3 127,3 127,3 127,4 127,4 128,4 128,6 128,6 128,7 129,7 129,7 129,7 130,8 130,8 131,8 132,8 132,8 133,8 133,8 134,9 134,9 135,10 135,10 135,11 135,12 135,12 135,13 135,13 135,13 136,14 136,14 136,14 137,14 137,14 137,15 138,15 138,15 138,15 138,16 138,16 138,17 138,17 139,17 139,17 139,17 140,17 140,17 141,17 141,16 142,16 143,16 143,16 143,16 143,17 144,17 144,17 145,17 146,16 146,16 147,16 147,16 148,16 148,16 148,17 149,17 149,17 150,17 150,18 150,18 151,18 151,18 151,18 151,19 151,19 152,19 151,20 151,20 151,22 151,23 152,24 152,25 152,26 152,26 152,27 151,30 150,31 150,31 150,32 150,33 149,35 149,35 149,35 147,37 146,40 145,41 145,41 145,42 145,43 145,43 145,44 144,45 144,46 144,46 145,47 144,47 144,48 144,49 144,50 144,50 144,51 143,51 143,52 143,52 143,53 143,53 143,53 144,53 145,54 145,54 145,53 146,53 147,52 148,52 148,52 149,52 149,52 151,51 152,51 152,51 153,51 154,51 155,51 156,52 157,52 157,53 158,53 160,53 162,54 162,54 162,54 164,55 165,55 166,55 167,56 167,56 167,56 168,57 168,57 168,58 170,58 170,58 170,57 173,50 177,42 184,41 185,41 187,42 188,42 189,43 190,44 190,45 190,45 191,45 191,45 192,46 193,46 193,47 193,47 194,49 194,51 195,52 195,52 196,52 196,52 197,52 197,52 197,53 198,53 198,52 199,52 200,52 200,52 201,52 201,52 202,52 202,52 203,53 203,54 203,54 204,55 204,55 204,55 205,55 206,55 206,55 207,56 207,55 210,55 211,55 211,55 212,55 212,55 212,55 213,55 213,55 213,55 214,55 214,55 214,55 215,55 215,54 215,54 216,54 216,54 217,54 217,54 217,54 218,54 219,55 219,55 220,55 221,54 221,54 222,54 223,54 224,53 225,53 225,53 227,54 227,54 228,54 228,54 228,54 229,54 230,54 231,54 232,54 233,54 233,54 234,54 235,54 235,55 236,55 236,55 237,56 237,56 237,56 237,56 238,56 239,56 240,56 241,57 242,57 243,58 244,58 245,57 246,57 246,57 247,58 248,58 249,58 249,58 249,58 250,58 251,58 252,58 252,58 252,58 252,59 251,59 251,59 250,59 250,60 250,60 250,60 249,61 249,61 249,62 248,62 248,63 248,63 247,63 246,64 246,66 245,68 245,68 245,68 246,68 246,69 245,70 245,70 245,70 244,70 244,70 243,71 243,71 242,71 242,70 242,71 241,71 241,71 241,71 241,71 240,71 240,72 239,72 239,72 238,72 237,73 237,73 236,74 236,74 235,74 235,74 235,74 234,74 234,75 234,75 234,75 235,76 235,76 235,77 236,77 236,78 236,78 236,78 236,78 236,79 237,79 237,79 237,79 237,80 238,80 242,80 249,80 250,80 249,81 249,81 248,81 248,82 247,82 247,83 247,83 248,83 249,84 249,84 250,84 250,85 250,85 250,85 260,87 267,88 269,88 270,89 271,89 274,90 275,90 277,91 278,91 281,91 282,91 283,92 284,92 286,92 286,92 286,92 287,92 287,92 288,92 288,92 289,92 293,93 299,96 301,97 302,97 303,98 304,97 305,97 305,96 304,95 303,95 303,95 303,94 303,94 302,93 302,93 301,92 301,92 302,91 302,91 302,91 302,91 302,90 302,90 302,90 302,89 302,89 303,89 300,86 299,85 298,85 299,86 299,86 295,82 295,81 297,81 298,81 298,80 297,80 297,81 296,81 296,80 296,80 295,80 296,79 296,79 296,79 296,79 296,77 299,78 301,78 301,79 302,80 303,81 305,82 307,82 308,82 308,82 308,83 308,83 309,83 309,84 309,84 310,84 310,85 310,85 311,85 311,85 311,85 312,86 312,86 313,86 313,86 314,87 315,87 315,87 316,88 317,88 318,88 318,88 319,89 319,89 320,89 320,89 321,89 321,90 321,90 322,90 322,91 322,91 322,91 322,92 322,93 322,93 322,93 322,93 322,93 322,94 322,94 322,94 322,94 322,95 323,95 323,96 323,97 324,97 323,98 323,99 323,99 324,99 324,99 324,99 324,100 324,100 324,100 326,101 327,102 328,102 328,102 328,102 329,102 330,102 330,102 331,102 331,102 332,102 333,102 334,102 334,103 335,103 336,104 337,104 338,105 339,106 341,106 341,107 346,107 348,107 350,107 351,107 351,108 352,108 352,108 353,108 353,108 353,108 354,110 354,110 355,111 355,111 355,112 355,114 356,114 356,115 356,116 357,116 357,117 358,118 359,119 359,119 359,120 359,120 360,120 360,121 360,123 361,123 361,123 363,122 363,122 364,123 365,123 365,123 366,123 366,123 366,123 366,123 367,124 367,125 367,125 368,126 368,127 368,129 369,129 370,129 370,129 372,129 372,130 372,130 374,130 375,130 376,131 377,131 377,131 378,131 379,131 379,131 379,131 380,128 380,128 384,128 386,129 390,129 390,129 391,129 392,129 393,129 394,129 395,129 395,129 396,129 397,129 397,129 398,129 399,130 400,130 400,130 406,130 406,129 407,126 408,126 409,125 409,125 410,125 410,126 411,127 411,128 411,128 412,130 412,131 413,131 417,132 417,132 418,133 419,135 420,135 420,136 420,136 420,136 422,137 422,137 423,138 424,138 424,137 424,137 425,137 426,137 427,136 428,136 428,137 429,137 430,137 431,137 432,137 433,136 433,136 434,137 434,137 434,137 434,137 435,137 435,138 435,138 436,138 436,139 437,139 436,141 436,141 437,141 437,142 438,142 439,143 439,144 440,144 440,145 440,145 440,145 440,146 441,146 443,146 444,147 446,148 446,149 447,149 447,149 448,149 449,149 449,149 450,149 450,149 451,148 452,148 452,148 453,148 454,147 455,147 455,147 456,147 457,148 458,148 458,148 459,148 460,147 460,147 461,147 462,146 462,146 462,146 463,146 463,146 464,146 465,146 465,146 466,146 466,146 467,146 468,146 469,145 469,145 471,144 472,144 472,144 473,144 473,144 474,144 474,144 475,143 475,143 476,142 477,142 479,141 480,141 480,142 480,142 481,142 482,142 484,142 484,142 484,142 484,142 486,142 487,142 487,143 488,143 488,144 489,144 490,144 491,144 492,144 493,144 494,144 495,145 496,145 496,145 498,146 498,146 498,147 498,148 498,148 498,148 498,149 498,149 498,149 498,149 497,150 497,150 497,150 497,150 498,150 498,150 499,151 499,151 499,151 499,151 499,151 499,152 499,152 500,152 500,153 500,154 499,154 499,155 498,155 498,156 497,156 496,157 495,157 493,157 492,158 491,159 491,159 491,159 489,160 489,160 488,160 488,161 488,161 487,161 487,161 486,161 485,162 484,162 483,163 481,163 480,163 479,164 478,165 478,165 478,165 478,165 478,165 478,166 478,166 478,167 478,167 478,167 478,168 478,169 478,169 478,169 478,169 478,169 477,169 478,169 478,170 478,171 477,171 477,172 477,172 477,173 476,173 475,174 475,174 474,174 473,174 472,176 473,177 473,178 472,179 472,179 471,180 471,180 471,180 470,180 469,180 468,180 466,180 465,180 464,180 464,180 462,179 460,179 459,179 459,179 457,179 457,178 456,178 456,178 455,179 454,178 453,178 452,178 452,178 452,178 451,177 450,176 449,175 449,175 447,174 447,173 447,173 446,173 445,173 445,173 445,173 445,174 445,175 444,175 444,175 444,174 444,174 443,174 443,174 442,174 442,175 443,175 443,175 442,176 442,176 443,176 443,177 442,177 442,177 442,177 442,178 441,178 441,178 441,179 441,179 442,180 442,180 443,181 443,181 444,182 445,182 445,182 445,183 445,183 443,183 443,183 443,183 443,183 442,183 442,183 441,183 440,183 438,184 438,184 438,184 437,183 437,183 437,183 436,183 435,183 435,183 434,183 434,182 433,182 432,182 432,182 432,182 433,183 433,183 432,183 432,184 432,184 431,184 431,185 432,185 433,187 434,188 434,188 434,189 434,189 432,189 431,189 431,189 430,189 429,189 428,189 428,189 427,190 427,190 426,190 425,190 425,189 423,189 423,189 422,189 421,189 420,189 419,188 418,188 418,187 417,187 417,187 417,186 417,187 416,187 415,187 415,187 414,187 412,188 410,186 410,186 409,186 408,185 404,185 402,185 401,184 400,184 400,184 400,184 399,184 398,183 397,183 396,182 395,181 394,181 393,181 393,181 392,180 392,180 391,181 391,181 391,181 391,181 390,181 390,181 389,181 388,182 386,182 385,183 384,183 383,183 382,183 382,182 381,182 380,182 379,182 379,182 379,181 378,181 377,182 377,181 376,181 375,181 375,180 375,179 375,179 374,178 373,178 372,178 372,179 371,179 371,179 370,180 369,180 367,180 366,181 365,181 365,181 365,182 365,182 364,183 364,186 365,187 364,188 364,189 365,189 365,190 365,191 364,191 363,192 363,193 364,194 364,194 365,195 365,195 364,196 364,197 364,198 364,198 365,198 366,199 366,199 366,201 366,202 366,202 367,202 368,202 369,203 370,204 371,205 371,205 370,205 370,206 370,206 369,207 369,209 369,209 369,209 368,210 368,211 368,211 366,211 366,211 365,211 365,211 365,211 363,211 362,211 362,211 360,211 360,211 360,212 361,213 361,214 361,214 361,215 360,216 360,217 360,217 359,218 358,218 358,218 358,219 357,220 357,220 356,221 356,221 356,221 355,221 355,222 355,223 355,224 355,224 354,224 354,225 353,225 353,225 354,226 354,226 354,227 354,227 354,228 353,228 353,228 353,228 353,228 353,228 353,228 352,228 351,228 350,228 350,228 350,228 350,228 350,228 350,229 350,229 349,229 349,229 348,229 348,229 348,229 347,229 347,229 347,230 347,230 347,230 347,231 347,231 347,231 347,231 347,231 347,231 347,231 347,231 347,232 347,232 346,232 346,232 346,232 346,233 346,233 346,233 346,233 346,233 346,234 346,234 346,234 346,235 346,235 346,235 346,235 346,235 346,235 346,235 346,235 346,235 346,235 346,236 346,236 346,236 346,236 346,236 346,236 346,236 346,236 346,236 346,237 346,237 344,238 344,238 344,238 344,239 344,239 344,239 343,239 343,239 343,239 343,239 343,239 341,239 341,239 341,240 341,240 341,240 340,240 340,240 340,240 340,241 340,241 340,241 340,241 339,240 339,240 339,241 339,241 339,241 339,241 339,241 339,242 339,242 339,242 339,242 339,242 339,242 339,243 339,243 339,243 339,243 339,243 339,243 339,243 338,244 338,244 338,244 338,244 338,245 338,245 338,245 338,245 337,245 337,245 337,245 337,245 337,246 337,246 337,246 337,246 337,246 337,246 337,246 337,247 337,247 337,247 337,247 337,247 336,247 336,247 336,247 336,248 337,248 337,248 337,248 337,248 336,248 336,248 336,249 336,249 336,249 336,249 336,249 336,249 336,249 335,249 335,249 335,250 335,250 335,250 335,250 335,250 335,251 335,251 335,252 335,252 335,252 334,252 334,252 334,252 334,252 334,253 334,253 334,253 334,254 334,254 334,254 334,254 334,254 334,254 334,254 334,254 334,254 334,254 334,255 334,255 334,255 334,255 334,255 334,255 334,255 334,255 334,256 334,256 334,256 334,256 334,256 334,256 334,257 334,257 333,257 333,257 333,258 333,259 334,259 334,259 334,259 334,259 334,259 335,259 335,259 335,259 335,259 335,259 335,259 336,260 336,260 336,260 336,260 337,260 337,260 337,260 337,260 337,260 337,260 337,260 338,260 338,260 338,261 338,261 338,261 338,261 338,261 339,261 339,261 339,261 339,261 339,261 339,261 339,261 339,261 340,262 340,262 340,262 340,262 340,262 341,262 341,262 341,262 342,263 342,263 342,263 342,263 342,263 342,263 342,263 343,263 343,263 343,263 343,263 343,263 343,264 344,264 344,264 344,264 344,265 344,265 344,265 344,265 345,265 345,265 345,265 345,265 345,266 345,266 345,266 346,266 346,266 346,266 346,266 346,266 347,266 347,266 347,266 347,266 347,266 347,266 347,266 347,265 347,265 347,266 347,266 347,266 348,265 348,265 348,265 348,265 348,265 349,265 349,265 349,265 349,265 349,265 349,265 349,265 350,265 350,265 350,265 350,265 350,265 351,264 351,264 351,264 351,264 351,264 351,264 352,264 352,264 352,264 352,264 353,264 353,264 354,264 354,264 354,264 354,264 354,264 354,264 355,265 355,265 355,265 355,265 355,265 355,265 356,265 356,266 357,267 357,267 357,267 357,267 357,267 357,267 357,267 358,267 358,267 358,268 358,268 358,268 359,268 359,268 359,268 359,269 360,269 360,269 360,269 360,269 360,269 360,270 361,270 361,270 361,270 361,270 361,270 361,271 362,271 362,271 362,271 363,271 363,272 363,272 364,272 364,272 364,272 364,272 365,273 365,273 365,273 365,273 365,273 365,273 366,273 366,274 367,274 367,274 368,275 369,275 369,275 369,276 369,276 369,276 371,277 371,277 373,279 373,279 373,279 375,280 376,282 376,282 377,282 378,283 378,284 379,285 379,285 379,285 380,286 380,286 380,286 381,288 381,288 381,288 380,288 380,288 380,288 379,288 379,288 379,288 378,288 378,288 378,288 377,288 377,288 377,288 376,288 376,288 374,288 374,289 374,289 373,289 373,290 373,290 373,290 372,290 372,290 372,290 372,290 371,290 371,290 371,290 370,290 370,290 369,289 368,289 367,288 367,288 366,288 365,288 364,288 364,288 364,288 363,288 362,288 362,288 362,288 361,288 360,288 359,288 358,288 357,288 356,289 356,289 355,290 355,290 355,290 354,290 354,290 354,291 354,291 354,292 353,292 353,293 353,295 352,295 352,296 352,296 352,296 352,297 352,297 352,298 353,299 353,299 353,299 353,300 353,300 353,301 352,301 351,302 350,302 350,302 350,303 349,305 349,305 348,306 348,308 347,308 347,309 346,310 345,310 344,310 343,311 343,311 343,311 342,312 342,312 340,312 339,312 339,313 339,313 338,314 338,314 338,314 338,314 338,314 337,314 337,314 337,314 337,314 336,314 335,314 335,314 335,314 334,314 334,314 334,314 334,314 334,314 333,314 333,314 333,313 333,313 332,313 332,313 331,313 330,313 330,313 330,313 329,313 329,313 329,313 329,312 329,312 329,312 328,312 328,312 328,312 328,312 328,312 328,312 328,312 327,312 327,312 327,312 327,312 327,312 326,312 326,312 326,312 326,312 326,311 326,311 326,311 326,311 325,311 325,311 325,311 325,311 325,311 325,311 324,311 324,311 323,311 323,311 323,311 323,310 322,310 322,310 321,310 321,310 321,310 321,310 321,310 321,310 320,310 320,310 320,310 320,310 320,310 320,309 319,309 319,309 319,309 319,309 319,309 319,309 319,309 318,309 318,309 318,309 318,309 318,309 318,309 318,308 317,308 317,308 317,308 317,308 317,308 317,308 317,308 316,308 316,308 316,307 316,307 316,307 315,307 315,307 315,307 315,307 315,307 314,306 314,306 314,306 310,307 310,307 310,307 310,307 310,307 310,307 310,307 310,307 309,307 309,307 309,307 308,307 308,307 308,308 308,308 307,308 307,308 307,308 307,308 306,308 306,308 306,308 306,308 305,308 305,307 304,307 304,307 304,307 304,307 304,307 304,306 303,306 303,306 302,306 302,306 302,306 302,305 302,305 301,305 300,304 300,304 300,304 300,304 299,304 299,304 299,304 299,304 299,304 299,304 299,304 299,304 299,304 298,303 298,303 298,303 298,303 298,303 298,303 297,303 297,303 297,303 297,303 297,302 296,302 296,302 296,302 296,302 296,302 296,302 295,302 295,302 295,302 295,302 295,302 295,302 294,302 294,302 294,302 294,302 294,302 294,302 294,302 293,302 293,302 293,302 293,301 293,301 293,301 293,301 293,301 293,301 292,301 292,301 292,301 291,301 291,301 291,301 291,301 290,301 290,300 290,300 290,300 290,300 289,300 289,300 289,300 288,300 288,300 288,300 288,300 287,300 287,300 287,300 287,300 287,300 286,300 286,300 286,300 286,300 286,300 286,300 286,300 285,300 285,300 285,299 285,299 285,299 285,299 284,299 284,299 284,299 284,299 284,298 283,298 283,298 283,298 282,298 282,298 282,298 282,298 282,298 282,298 282,298 282,298 282,298 281,298 281,298 280,298 280,298 279,297 279,297 279,297 279,297 279,297 279,297 279,297 278,297 278,297 278,296 278,296 277,296 277,296 277,296 277,296 277,296 276,296 276,296 276,296 275,296 275,296 275,296 275,296 275,296 275,295 274,295 274,295 274,295 274,295 274,295 274,295 274,295 274,295 274,295 274,295 273,295 273,295 273,295 273,295 273,295 273,295 272,296 272,296 272,295 272,295 272,295 271,295 271,295 271,295 271,295 271,295 270,295 269,295 269,295 268,295 268,295 267,295 267,295 265,295 265,295 265,295 265,295 265,295 265,295 264,295 264,295 264,295 264,295 264,295 263,295 263,295 263,295 263,295 263,295 262,295 262,295 262,295 262,295 260,295 260,295 260,295 260,295 260,295 260,296 260,296 259,296 259,296 259,296 259,296 259,296 258,296 258,296 258,296 258,296 258,296 258,296 257,296 257,296 257,296 257,296 256,296 255,296 254,296 254,296 254,296 254,296 253,296 253,296 253,296 252,296 252,296 252,296 251,296 251,296 251,296 251,296 251,296 251,296 250,296 250,296 250,296 250,296 250,296 249,296 249,296 249,296 249,296 249,296 249,296 249,296 249,295 249,295 248,295 248,295 248,295 248,295 248,295 248,295 248,295 247,295 247,295 247,294 247,294 247,294 246,294 246,294 246,294 246,294 246,294 246,294 246,294 246,294 246,294 245,293 245,293 245,293 245,293 245,293 245,293 245,292 245,292 245,292 245,292 245,291 245,291 245,291 245,291 245,291 245,290 245,290 245,290 245,290 244,290 244,290 244,290 244,290 244,291 243,291 243,291 243,291 243,291 243,291 243,290 243,290 243,290 243,290 243,290 243,290 243,290 243,290 243,290 243,290 243,290 243,290 243,290 243,290 243,290 243,290 243,290 242,290 242,289 242,289 242,289 242,289 241,289 239,289 239,289 239,289 239,289 238,289 238,289 238,289 238,289 238,289 237,289 237,289 237,289 237,289 237,289 237,289 236,289 236,289 236,289 236,289 236,289 236,289 236,289 236,290 235,290 235,290 235,290 235,290 234,290 234,290 233,290 233,290 233,290 234,290 234,290 233,290 233,290 233,290 233,290 233,291 233,291 233,291 233,291 233,292 233,292 233,292 233,292 233,292 233,292 233,292 233,293 233,293 233,294 233,294 233,294 233,295 233,295 233,295 234,295 234,296 234,296 234,296 234,296 234,297 234,297 234,297 234,297 234,297 234,297 234,297 234,298 234,298 234,298 234,298 233,299 233,298 233,299 233,300 232,301 232,301 231,301 231,302 231,303 231,304 231,304 230,305 230,305 230,305 229,306 229,306 228,305 228,305 228,305 227,305 226,304 225,304 223,304 222,303 221,303 220,303 219,302 218,302 218,302 218,302 218,303 217,303 217,304 216,304 216,305 216,305 215,305 214,305 214,305 215,306 215,307 215,307 215,307 215,307 215,307 215,308 215,308 215,308 214,308 214,309 213,310 213,310 213,310 213,311 212,311 210,311 209,311 208,312 208,312 207,313 206,313 206,314 206,314 206,314 206,315 206,315 206,315 205,316 205,316 205,316 205,317 205,317 204,318 204,318 203,319 203,319 203,319 202,319 201,319 200,319 199,319 198,319 197,319 196,319 196,318 195,318 194,318 194,317 194,317 193,318 193,318 192,319 192,319 192,319 191,319 190,318 190,318 190,317 189,317 189,317 189,317 189,317 188,316 187,316 186,315 186,315 185,314 184,313 185,311 184,311 184,311 180,310 179,309 177,308 176,308 175,308 173,307 173,308 172,308 172,309 171,311 170,311 170,312 169,312 169,313 169,314 169,314 169,315 169,315 168,316 167,316 167,315 166,315 165,314 165,313 164,312 164,312 163,312 162,312 162,312 159,309 159,309 158,308 157,308 156,307 155,306 155,306 154,305 154,305 153,305 149,306 149,307 148,307 147,308 146,309 146,310 146,310 145,310 145,309 145,309 144,308 142,309 140,308 138,308 137,308 136,307 133,305 131,303 128,301 127,301 127,301 124,300 123,299 121,301 119,301 118,301 117,302 116,302 110,303 110,305 106,305 105,305 104,304 102,302 102,301 102,300 102,299 102,299 100,299 99,299 98,299 97,299 96,299 96,299 95,299 94,299 93,299 92,298 91,298 91,298 90,298 90,298 89,298 89,298 88,298 88,298 88,297 87,296 86,294 86,294 86,294 87,292 87,292 87,291 86,290 86,290 86,289 85,288 84,287 84,284 83,284 83,283 81,283 81,283 80,283 79,283 79,282 79,282 78,282 77,281 78,281 78,280 77,277 75,275 77,275 78,274 79,273 77,271 76,269 75,267 75,265 75,264 74,263 74,262 74,261 73,259 72,258 72,256 72,255 71,253 71,252 70,251 70,249 70,248 70,247 70,246 69,243 69,241 69,240 69,240 69,238 69,238 70,238 70,237 71,235 72,234 71,234 71,231 70,230 69,230 68,227 68,224 68,224 68,223 68,222 67,220 67,219 68,218 67,217 67,217 66,216 64,215 63,214 61,213 61,212 61,212 59,211 58,211 58,210 55,209 50,207 49,207 49,205 48,204 48,200 50,198 49,198 49,198 50,197 50,197 50,197 49,195 48,193 48,193 48,193 48,193 48,193 48,192 48,192 48,192 49,192 49,192 49,192 49,191 49,191 49,191 49,190 49,190 50,189 50,189 50,189 50,189 49,188 49,188 49,188 49,187 49,187 48,187 48,187 49,187 48,186 48,186 48,186 48,186 48,185 49,185 49,185 49,185 49,185 48,184 48,184 48,183 47,183 47,183 46,183 46,183 46,183 46,183 46,182 45,182 45,182 45,182 45,182 45,182 45,182 44,182 44,181 43,181 42,181 41,181 39,181 39,180 39,180 38,180 38,180 37,180 37,179 37,179 36,179 35,179 34,179 33,179 33,179 32,178 31,178 30,178 29,178 29,178 29,178 29,178 28,178 27,177 27,177 26,177 26,177 26,177 26,177 25,177 25,176 24,176 23,176 23,176 22,176 21,176 21,176 20,176 20,176 19,176 19,176 18,176 16,176 16,175 16,175 15,176 14,176 14,176 12,175 12,175 11,175 10,175 10,175 10,175 9,174 9,174 8,174 8,175 7,175 7,175 6,175 6,174 4,174 3,174 2,174 2,174 2,168 2,167 2,166 2,166 3,165 3,165 2,164 2,164 2,164 2,164 2,163 2,163 2,162 3,162 2,162 2,162 2,161 2,161 2,161 1,160 1,160 1,160 1,160 0,160 0,159 0,159 0,159 0,158 0,158 0,158 0,158 1,158 1,157 0,157 1,157 1,156 1,156 1,156 1,156 1,155 1,155 1,155 1,155 1,154 1,153 2,153 2,153 2,152 2,151 2,151 2,149 3,149 4,149 5,149 5,148 7,148 7,148 8,148 8,148 8,147 8,147 8,147 8,147 7,146 8,146 8,146 7,145 7,145 7,145 7,145 8,145 9,145 10,145 11,145 13,145 17,144 17,144 18,144 19,143 20,143 20,143 21,142 21,142 23,141 24,141 25,141 25,141 25,141 25,140 25,140 25,140 26,140 26,139 27,139 27,139 28,139 28,138 29,138 29,138 29,138 29,137 29,137 29,136 29,135 29,134 29,133 29,132 29,131 30,130 28,130 27,129 28,129 28,128 28,127 28,127 29,127 29,127 30,126 31,125 31,125 31,124 31,124 31,124 32,123 32,123 33,122 33,122 33,122 33,122 33,121 33,121 33,121 34,121 34,120 34,120 34,120 34,120 35,120 36,119 36,118 36,118 36,117 37,117 37,116 37,116 38,115 39,115 39,115 40,114 41,114 41,113 42,113 42,113 43,113 44,113 44,113 45,112 45,112 45,111 44,110 44,109 44,109 45,109 45,109 45,109 46,108 47,108 48,108 49,107 49,107 50,107 50,106 51,106 51,106 51,106 51,106 51,105 51,105 51,104 51,104 52,102 52,101 52,100 52,100 51,99 51,99 52,99 52,99 53,98 53,97 52,97 51,97 50,98 49,98 48,98 48,98 47,98 47,99 46,99 46,99 45,99 45,99 45,98 44,98 44,98 45,97 45,96 44,95 44,95 45,95 44,94 43,93 43,93 42,92 42,91 41,91 40,91 40,91 40,91 40,90 40,90 40,89 40,89 39,88 39,88 39,88 39,87 39,86 39,86 37,86 37,86 36,85 36,85 34,85 32,85 30,85 28,85 28,85 27,85 27,85 27,85 26,84 24,83 24,82 24,81 24,81 23,81 21,81 20,81 20,80 20,80 20,80 20,80 20,80 20,79 20,79 21,79 21,79 21,79 20,78 20,78 20,78 22,77 22,77 22,77 23,77 23,77 23,76 24,76 24,76 24,76 25,75 25,75 25,75 26,75 26,75 27,75 27,74 27,74 27,74 27,73 27,73 27,73 28,73 29,73 29,73 30,72 30,72 32,71 34,71 35,70 36,69 36,69 37,69 38,68 39,68 39,68 40,68 41,67 42,67 43,67 45,68 45,67 46,67 47,67 47,66 49,66 49,67 49,66 50,66 50,67 51,67 51,66 52,66 52,66 52,66 53,65 54,64 54,63 54,62 56,60 56,59 56,58 57,57 57,57 58,56 58,56 59,56 60,55 60,55 60,54 61,54 61,54 61,53 62,52 63,52 64,52 65,51 65,51 65,51 66,50 72,50 74,49 75,48 76,47 76,46 77,45 77,45 77,44 78,43 78,42 78,41 81,39 82,38 84,36 84,36 87,34 87,34 87,34 88,35 89,36 90,36 90,36 91,35 91,35 91,35 92,34 93,34 95,34 95,34 96,34 97,33 97,33 97,33 97,32 98,32 99,32 99,31 100,31 100,31 99,30 99,29 100,29 100,28 100,28 100,27 100,27 101,26 101,26 102,25 102,24 103,24 103,23 103,22 104,21 104,21 104,21 105,20 105,20 105,19 105,19 105,19 106,18 106,18 107,17 106,17 107,17 107,16 108,16 108,15 108,15 108,15 108,14 109,14 109,13 110,13 110,13 111,13 111,12 112,12 112,12 112,11 113,11 113,9 114,9 114,8 114,8 114,8 115,7" id="2604" class="canton" fill="steelblue" stroke-width="1" stroke="white" geotype="canton" geoname="Diois" code_insee="2604" code_departement="26" nom_departement="Drôme" code_region="84" nom_region="Auvergne-Rhône-Alpes"/></svg>