<?xml version="1.0" encoding="utf-8"?>
<svg version="1.1" id="svgmap" xmlns="http://www.w3.org/2000/svg" xmlns:xlink="http://www.w3.org/1999/xlink" x="0px" y="0px" width="100%" height="100%" viewBox="0 0 500 410">
<polygon points="0,232 1,232 6,226 9,223 13,218 19,211 23,206 26,203 34,192 36,189 38,185 40,177 40,173 40,172 45,173 67,180 90,185 98,183 99,181 108,177 112,174 117,172 124,169 126,168 128,165 129,162 130,162 132,167 132,166 134,171 148,163 147,162 152,159 152,161 161,167 164,165 171,159 178,153 187,145 190,143 195,141 204,139 225,136 233,135 237,132 244,123 260,109 297,75 315,57 338,38 339,37 341,36 348,31 349,31 350,30 354,28 356,27 357,26 358,26 358,25 364,23 371,21 377,19 397,14 418,14 423,14 429,12 448,7 449,6 451,5 452,4 453,3 456,2 459,1 462,0 466,0 471,5 479,10 482,12 483,13 483,14 483,15 482,16 482,18 482,22 482,24 480,28 480,29 481,30 492,40 493,41 497,46 498,47 498,50 499,52 500,53 500,55 497,58 473,78 465,85 458,91 452,96 443,103 441,105 430,114 426,118 419,124 417,125 415,126 405,132 405,134 404,135 404,136 402,138 401,139 397,143 391,148 388,151 386,152 380,156 379,158 374,162 371,164 370,164 367,167 367,167 362,170 357,173 355,175 354,176 353,176 348,180 338,187 336,188 336,188 337,189 338,189 339,194 340,196 341,198 341,202 342,204 343,205 343,209 344,213 346,217 346,220 346,220 347,227 348,230 349,232 349,235 349,236 350,241 351,246 352,250 353,252 353,252 353,255 356,261 357,263 357,267 357,268 357,271 356,275 358,277 358,279 358,282 359,287 360,291 360,296 359,301 358,308 356,314 353,322 352,326 348,329 347,330 345,336 343,337 339,344 332,354 328,359 324,363 320,369 321,371 321,373 319,374 318,375 318,376 317,377 316,379 307,390 299,399 283,392 267,385 261,383 260,382 258,382 256,410 249,408 249,408 222,399 220,398 218,397 209,394 209,394 209,393 209,392 209,390 209,389 208,383 208,382 207,380 205,376 203,372 203,370 198,364 196,360 195,359 195,358 194,357 190,348 186,340 183,336 183,334 181,331 178,322 178,321 177,319 177,315 177,314 180,303 179,300 179,299 175,302 159,312 157,314 129,306 128,308 127,312 126,318 126,321 125,329 120,352 118,359 114,359 112,358 111,358 103,357 100,357 98,356 97,356 80,352 70,350 67,349 51,346 55,339 65,323 66,320 68,318 34,308 39,299 43,294 47,288 54,280 55,278 61,266 59,267 53,275 47,281 46,282 43,283 41,284 40,284 38,284 35,283 32,281 32,280 25,276 25,276 21,273 8,271 3,270 1,270 1,270 0,270 0,268 4,260 19,241 0,232" id="2618" class="canton" fill="steelblue" stroke-width="1" stroke="white" geotype="canton" geoname="Valence-4" code_insee="2618" code_departement="26" nom_departement="Drôme" code_region="84" nom_region="Auvergne-Rhône-Alpes"/></svg>