<?xml version="1.0" encoding="utf-8"?>
<svg version="1.1" id="svgmap" xmlns="http://www.w3.org/2000/svg" xmlns:xlink="http://www.w3.org/1999/xlink" x="0px" y="0px" width="100%" height="100%" viewBox="0 0 500 207">
<polygon points="6,84 7,84 8,80 15,76 19,74 20,73 22,72 24,70 25,69 27,67 29,66 30,64 31,63 32,62 32,62 33,60 34,59 34,58 35,57 36,55 37,52 37,51 38,50 40,48 41,47 41,47 42,46 43,46 44,47 51,51 51,51 55,54 55,54 56,53 60,50 59,48 59,48 63,48 66,49 67,49 67,49 68,48 71,49 72,49 74,50 77,50 79,49 81,49 83,50 83,50 82,51 83,52 88,54 91,54 92,54 93,54 93,54 94,54 98,55 101,56 102,56 104,58 108,59 111,60 112,61 115,61 116,61 117,61 118,60 119,60 122,61 123,61 129,59 130,59 131,59 134,57 137,56 137,55 138,54 140,54 141,54 142,55 145,55 147,56 148,56 148,58 149,59 150,60 154,64 155,64 155,64 156,63 158,62 158,61 159,59 160,56 164,53 164,53 166,52 169,51 170,50 171,48 173,46 175,45 177,44 179,44 181,43 183,42 183,41 184,40 185,40 189,39 190,39 190,39 191,39 191,38 192,38 193,37 195,37 197,36 198,36 200,37 202,37 203,37 204,35 207,34 209,34 210,33 210,33 211,32 213,32 213,32 215,34 215,34 216,33 217,33 218,33 219,34 219,34 221,33 223,33 224,32 225,32 225,32 225,31 225,30 225,29 226,28 227,28 229,28 230,27 231,27 231,26 232,25 232,24 235,25 236,24 236,24 235,23 235,23 235,22 236,21 237,21 238,20 239,18 239,18 239,17 239,17 241,16 242,15 243,14 243,13 244,13 245,13 246,14 246,14 247,14 247,14 247,14 249,13 250,12 251,11 252,11 255,10 256,10 257,9 259,7 262,7 263,6 265,6 267,5 268,5 270,6 272,5 274,5 275,5 276,4 278,5 278,4 278,3 278,3 279,3 281,4 283,4 284,3 285,2 286,2 289,0 289,0 289,1 289,2 290,3 292,5 293,7 294,10 295,11 296,11 297,12 298,13 299,15 300,16 301,18 303,21 304,21 306,22 308,23 310,24 314,26 315,26 317,29 319,30 321,30 322,31 322,32 322,36 324,39 324,40 327,43 327,45 328,46 330,47 330,47 331,48 332,50 332,50 335,50 335,51 334,54 334,55 334,55 336,57 337,59 339,61 339,61 342,63 345,63 347,63 349,66 349,66 348,67 348,68 349,69 351,70 354,71 356,71 355,70 355,69 355,69 355,67 356,66 359,64 361,63 363,63 364,63 364,61 365,60 366,59 367,57 369,56 368,55 368,54 371,49 372,46 373,45 375,43 376,42 379,41 381,39 382,37 383,33 383,32 384,32 384,31 385,29 388,27 389,27 391,27 391,27 391,26 392,25 392,24 393,23 393,23 394,20 394,19 394,17 393,17 397,17 401,18 406,18 409,18 410,19 411,22 411,23 410,24 409,24 408,24 407,25 407,27 407,29 408,29 410,29 411,29 412,30 414,31 414,32 415,33 415,34 416,33 416,33 417,32 418,30 420,30 421,28 422,28 423,28 423,28 424,26 425,25 427,25 434,25 434,25 435,26 436,28 435,29 435,32 435,33 435,34 433,38 433,41 434,45 434,47 435,49 436,52 437,53 437,55 437,56 437,56 439,58 440,59 441,60 441,62 441,62 443,64 441,66 441,67 443,68 446,69 447,71 450,72 451,73 448,75 443,79 443,80 444,80 445,80 446,79 447,79 448,79 449,78 451,78 453,79 453,79 455,79 456,78 458,77 459,77 461,76 461,76 462,75 465,75 468,74 471,72 473,72 474,71 476,71 477,71 484,71 486,71 492,70 497,70 498,69 499,69 499,69 498,73 497,74 497,74 497,75 496,75 497,76 497,77 497,78 497,78 497,79 497,79 496,80 496,80 496,81 495,82 494,83 493,83 492,84 492,84 492,85 492,85 492,85 492,86 491,86 491,87 491,87 490,88 489,88 489,88 489,88 489,89 489,89 489,89 489,90 489,90 489,90 489,91 489,91 489,92 489,92 489,92 489,93 489,93 489,93 489,93 489,94 489,95 489,95 489,95 489,96 489,96 489,97 489,97 489,97 489,98 489,98 490,99 490,99 490,100 489,100 489,101 489,101 489,101 488,101 488,101 487,102 487,102 486,102 486,103 486,103 486,104 486,104 485,104 485,104 484,104 483,104 483,104 483,105 483,105 482,106 482,106 482,107 482,107 482,108 482,110 482,110 481,110 481,111 478,110 477,110 475,110 474,110 468,108 467,108 465,108 465,107 465,107 464,107 462,106 461,106 461,106 460,107 458,109 458,109 453,115 453,115 453,115 452,117 452,117 451,117 451,115 451,115 451,114 451,113 449,111 449,111 449,110 448,110 447,110 447,109 447,108 446,108 446,107 445,107 445,107 445,107 445,107 445,107 444,107 443,108 442,108 442,109 442,109 442,109 442,110 442,110 441,110 441,111 441,111 441,111 441,112 441,112 441,113 441,113 441,113 440,114 440,115 440,115 440,116 440,116 439,116 439,117 439,117 439,118 438,120 439,120 438,121 438,121 438,121 438,121 438,122 440,123 441,123 441,123 441,123 442,124 443,124 444,125 444,125 445,125 446,126 446,126 446,126 447,127 449,126 449,126 451,124 453,123 453,123 454,123 455,122 456,121 457,120 459,119 462,117 463,117 464,117 464,117 464,117 466,116 466,116 468,116 468,116 469,117 469,118 469,118 469,118 469,121 469,121 469,121 470,123 471,123 473,126 475,128 475,128 478,130 480,132 481,133 482,133 482,133 484,135 485,136 486,137 487,137 487,137 487,138 487,139 487,139 486,140 486,140 486,140 487,140 487,140 489,140 490,140 491,140 493,139 494,139 495,139 495,139 496,139 496,139 497,139 497,139 498,139 499,140 499,140 500,140 499,141 497,144 497,148 498,152 499,158 499,161 498,163 495,166 492,167 487,170 483,171 479,172 471,170 465,170 461,171 455,173 454,173 453,174 450,175 445,178 442,180 439,183 436,186 429,194 426,197 422,199 416,202 412,203 408,203 404,204 401,205 398,207 394,207 391,207 387,206 381,205 379,203 369,200 366,198 362,198 354,197 341,195 336,195 330,196 320,198 312,199 304,200 298,199 295,199 288,197 285,196 282,196 274,195 269,194 267,194 268,194 268,193 268,193 269,193 270,193 270,193 270,193 270,193 271,193 271,192 271,192 271,192 271,192 271,192 271,191 271,191 271,191 272,191 272,191 272,191 272,191 272,191 272,191 272,191 272,191 272,191 275,190 276,189 276,188 276,188 279,186 279,185 279,185 279,185 269,185 266,185 266,185 266,185 266,185 266,185 265,185 265,185 261,185 261,185 261,185 261,185 261,185 259,185 259,185 258,185 258,185 258,185 257,184 257,185 256,185 257,186 255,186 255,186 255,186 255,186 254,186 254,186 253,186 253,186 252,185 252,185 252,185 251,185 250,185 249,185 249,186 249,186 249,187 248,187 248,187 247,187 248,187 248,188 248,188 248,188 248,188 248,188 246,189 245,189 245,190 245,190 245,190 246,190 246,191 247,191 247,191 247,191 246,191 245,191 245,191 244,190 244,190 244,190 244,190 243,189 243,189 242,189 242,189 241,189 240,189 238,189 237,189 236,188 235,188 235,188 235,187 235,187 235,187 236,187 236,187 236,187 237,187 238,187 238,187 239,187 239,187 239,187 240,187 240,186 240,186 240,186 239,186 240,186 242,185 243,185 244,185 245,185 245,185 246,185 246,185 246,184 246,184 246,183 246,183 247,181 248,180 248,179 249,178 249,178 249,178 249,178 250,178 250,178 250,178 250,177 249,177 249,177 249,177 248,177 248,177 249,177 250,177 253,177 256,177 259,178 262,178 264,178 266,178 267,178 268,178 269,177 269,177 269,176 269,176 269,176 270,175 271,174 272,173 273,173 276,171 279,170 280,170 281,169 282,169 284,168 282,167 281,167 280,167 279,167 278,168 276,168 276,167 272,167 270,166 268,166 269,166 270,165 271,164 271,163 271,162 271,160 271,160 271,160 270,160 267,161 267,161 266,161 265,161 262,161 261,160 259,160 259,160 257,159 256,158 253,158 253,161 248,160 247,160 245,159 245,158 244,157 243,157 242,157 238,157 238,157 238,157 237,156 237,156 237,155 237,154 237,154 236,154 236,153 236,153 235,152 235,152 236,151 235,150 235,148 234,147 234,146 234,143 233,142 233,140 233,138 232,137 230,135 229,135 226,134 225,134 222,133 217,132 216,132 215,132 213,131 211,130 210,128 209,125 208,124 207,122 206,120 206,118 206,116 205,114 203,112 201,111 198,109 198,108 195,106 192,103 192,102 191,101 190,100 189,98 187,97 185,97 184,97 183,97 182,94 180,92 179,91 178,92 173,92 170,93 168,93 165,93 162,93 161,92 160,92 159,92 158,92 157,93 156,94 155,94 154,94 154,94 153,93 153,92 153,91 151,91 150,90 150,89 149,88 149,87 149,85 150,84 149,84 147,81 146,79 145,78 144,78 143,78 142,78 141,76 139,77 138,78 137,78 136,80 135,84 135,85 134,86 132,87 131,88 128,90 128,91 126,92 125,95 126,97 126,98 125,99 124,100 122,100 120,100 119,100 118,101 117,103 116,104 115,107 115,109 116,109 120,109 122,110 125,109 128,107 130,106 135,106 136,107 137,107 138,107 138,106 145,108 146,114 147,118 149,121 149,121 150,123 149,123 149,126 147,129 147,130 147,131 148,132 150,133 150,134 150,136 151,138 149,139 148,140 146,141 142,143 140,144 138,147 135,150 134,153 130,152 127,151 124,151 123,151 119,151 113,151 112,151 101,153 100,153 99,153 99,153 93,153 93,153 91,153 87,154 87,154 82,156 81,157 79,158 78,158 71,159 69,160 66,161 64,161 61,162 57,162 53,163 48,164 46,164 42,165 41,165 39,166 38,167 38,167 37,167 36,167 36,167 35,168 34,169 33,168 32,170 29,170 26,171 26,170 23,166 22,165 22,164 21,163 19,163 19,162 20,162 21,160 21,157 20,155 18,154 18,153 18,152 19,151 19,149 19,149 19,149 19,148 18,147 18,147 18,146 17,143 17,142 17,141 16,140 16,139 15,138 16,137 16,135 12,134 11,134 9,133 5,132 5,132 2,131 2,131 0,132 0,132 0,132 2,128 4,123 5,121 6,117 8,109 8,109 8,108 9,106 8,104 8,101 7,98 6,96 5,94 5,93 5,92 5,91 5,90 6,87 6,84" id="2611" class="canton" fill="steelblue" stroke-width="1" stroke="white" geotype="canton" geoname="Romans-sur-Isère" code_insee="2611" code_departement="26" nom_departement="Drôme" code_region="84" nom_region="Auvergne-Rhône-Alpes"/></svg>