<?xml version="1.0" encoding="utf-8"?>
<svg version="1.1" id="svgmap" xmlns="http://www.w3.org/2000/svg" xmlns:xlink="http://www.w3.org/1999/xlink" x="0px" y="0px" width="100%" height="100%" viewBox="0 0 500 271">
<polygon points="40,145 41,145 41,144 41,144 41,144 41,144 41,143 41,143 40,143 40,143 39,142 39,142 39,142 39,142 39,142 39,142 40,142 40,141 40,141 40,141 40,141 40,141 39,141 39,141 39,141 39,141 39,141 39,141 39,141 40,140 40,140 40,140 41,140 41,140 42,139 42,139 42,139 42,139 43,139 43,138 44,138 45,138 45,137 46,136 47,136 47,136 48,136 49,137 49,137 49,137 50,137 50,137 51,137 51,136 51,136 51,136 51,136 51,136 52,136 52,136 52,136 53,136 53,136 53,136 53,135 53,135 53,135 53,135 53,134 53,134 54,133 54,133 54,133 54,133 54,133 54,133 54,133 55,133 55,133 55,133 55,133 56,133 56,133 56,133 57,133 57,133 57,133 57,133 57,133 58,133 58,133 58,133 58,133 59,133 59,133 60,133 60,133 60,134 60,134 60,134 60,134 60,134 60,134 60,134 60,134 60,135 60,135 60,135 60,135 60,135 60,135 60,134 61,134 61,134 61,134 61,134 61,134 61,134 61,134 61,134 61,134 61,134 61,134 62,134 62,134 62,133 62,133 63,133 63,133 63,133 63,132 63,132 63,132 63,132 63,131 63,131 63,131 63,131 63,131 63,131 63,131 63,131 63,131 63,130 63,130 63,130 63,130 63,130 63,130 63,130 63,130 63,130 63,129 63,129 63,129 63,129 63,129 64,129 64,129 64,129 65,129 65,129 65,129 65,129 65,129 66,129 66,129 66,129 67,129 67,129 67,129 68,129 68,129 68,129 68,129 68,129 69,129 69,129 70,129 70,129 70,129 70,129 71,128 71,128 71,128 71,128 72,128 72,128 72,128 73,128 73,128 73,127 74,127 74,127 74,127 75,127 75,127 75,127 75,127 75,127 75,127 75,127 76,127 76,126 76,126 76,126 76,126 77,126 77,126 77,126 77,126 77,126 77,125 78,125 78,125 78,125 78,125 78,125 78,125 78,125 78,125 79,124 79,124 79,124 79,124 79,124 79,124 79,124 79,123 80,123 80,123 80,123 80,123 80,123 80,123 80,123 80,122 81,122 81,122 81,122 81,122 81,122 81,122 81,121 81,121 81,121 81,121 81,121 81,120 81,120 81,120 81,120 81,120 81,120 81,119 81,119 81,119 80,119 80,118 80,118 81,118 81,118 81,118 81,118 80,117 80,117 80,117 80,117 80,117 80,117 80,117 80,117 80,117 80,116 80,116 80,116 80,116 80,116 80,116 80,115 79,115 79,115 79,115 79,115 79,115 79,114 79,114 78,114 78,114 78,113 78,113 78,113 78,113 78,113 78,113 77,113 77,113 77,113 77,113 76,112 76,112 76,112 76,112 75,112 75,112 75,112 75,112 75,112 75,112 75,112 75,112 75,112 74,112 74,112 74,112 74,112 72,111 72,111 72,111 72,111 72,111 71,111 71,111 72,111 72,110 72,110 72,110 72,109 72,109 73,109 73,109 73,109 73,109 73,109 74,109 74,109 74,109 75,109 75,109 75,109 75,109 75,109 75,109 75,109 75,109 75,109 76,109 76,109 76,109 76,109 76,109 76,110 76,110 76,110 77,109 77,109 78,109 79,109 79,109 79,109 80,109 80,109 80,109 80,109 81,109 81,109 82,109 83,109 83,109 83,109 83,109 83,109 84,109 84,109 84,108 85,108 86,108 86,108 87,108 87,108 88,108 88,108 88,108 89,108 89,108 90,108 90,108 90,108 90,108 90,108 91,108 91,108 91,108 92,108 92,108 93,108 93,108 93,109 93,109 93,109 94,109 94,109 94,109 95,109 95,109 95,109 95,109 96,109 97,109 98,109 98,109 98,109 98,109 98,109 99,109 100,110 100,110 101,110 101,110 102,110 102,110 102,110 100,110 99,111 99,111 99,111 99,111 100,112 100,112 100,113 101,113 101,113 101,114 101,114 102,114 102,115 102,115 102,115 102,115 102,116 102,116 102,116 102,116 102,116 102,116 103,117 104,117 104,117 105,118 106,119 106,119 106,119 106,119 106,119 106,119 106,119 107,119 107,119 107,119 107,119 107,119 107,119 108,119 108,119 108,119 108,119 108,119 108,119 108,119 109,119 109,119 109,119 109,120 109,120 109,120 109,120 109,120 109,120 110,120 110,120 110,120 110,120 110,121 110,121 112,120 112,120 113,120 113,120 114,120 115,120 115,120 115,119 115,119 116,119 117,118 117,118 117,118 118,118 119,117 119,117 119,117 119,117 120,117 120,117 120,117 120,117 120,117 120,117 120,117 121,117 121,117 121,117 121,117 122,117 122,117 122,117 123,118 124,118 124,118 124,118 124,118 125,118 126,118 126,118 127,118 127,118 127,118 127,118 127,117 127,117 128,117 129,117 129,117 129,117 130,117 130,117 130,117 130,116 130,116 132,116 132,116 132,116 133,116 133,116 133,116 134,116 134,116 134,116 135,116 135,115 135,114 135,114 135,113 136,112 136,111 137,110 137,110 138,109 139,108 140,107 141,106 141,106 141,106 141,106 141,106 141,106 141,105 141,105 142,104 143,103 143,102 144,101 144,100 145,99 145,99 145,98 146,99 147,99 148,99 148,99 148,99 149,98 149,98 149,98 150,98 150,98 150,98 151,98 152,97 152,97 152,97 154,96 154,96 155,96 158,95 158,95 158,95 160,94 161,94 163,94 164,93 164,93 164,93 165,92 166,92 166,92 166,92 167,91 168,91 168,90 169,90 169,90 170,90 171,89 173,89 173,88 175,88 176,88 178,87 179,87 179,87 180,87 181,86 181,86 182,86 182,85 182,85 182,85 184,85 186,84 186,84 186,85 186,85 187,84 188,84 188,84 189,83 191,83 191,83 193,84 194,86 195,87 195,87 196,88 196,89 196,89 197,90 197,90 197,90 198,90 199,91 200,90 202,91 204,90 204,90 205,90 206,90 206,90 206,90 207,90 208,90 208,90 209,90 209,90 212,90 212,91 213,91 212,88 212,86 212,85 212,84 212,83 212,82 211,81 213,81 215,81 217,81 218,81 218,81 218,81 220,81 220,81 221,81 221,82 223,83 224,83 224,83 225,84 227,85 228,84 229,83 230,82 228,81 228,80 227,79 228,77 226,77 227,75 227,75 227,74 227,73 227,72 228,70 229,70 229,70 229,70 229,69 229,69 228,69 228,68 228,67 228,67 228,67 228,66 228,66 228,66 229,66 229,65 229,65 230,65 230,64 230,64 230,63 230,63 229,63 229,63 229,63 229,62 229,61 228,60 228,60 228,59 228,59 228,59 227,58 227,58 226,57 226,56 226,56 226,56 226,55 225,53 225,53 227,52 228,52 230,52 230,52 230,52 229,50 228,50 229,50 230,50 230,51 230,51 233,50 233,50 233,49 233,49 234,49 234,49 234,49 234,48 234,48 235,48 236,48 236,48 236,48 236,48 238,47 238,47 238,47 238,47 238,46 237,45 237,45 237,45 237,45 236,44 236,44 236,44 236,44 236,44 236,44 236,43 236,43 236,43 237,43 238,43 238,43 237,41 237,41 231,43 231,43 231,43 231,40 231,40 230,34 230,32 230,32 231,32 232,32 232,32 232,33 232,33 232,33 232,33 232,33 233,33 233,33 234,33 234,33 234,33 234,32 234,32 234,31 234,30 234,30 234,30 235,30 235,30 235,30 236,30 238,30 240,29 240,29 240,29 239,29 239,28 239,28 240,28 243,28 243,28 243,28 245,28 246,28 246,28 246,26 246,26 246,26 246,26 247,26 252,26 252,26 251,25 251,25 251,23 251,23 252,23 252,23 252,23 252,22 252,22 252,21 252,19 252,19 252,18 252,18 252,18 251,18 250,18 250,18 252,12 252,12 252,12 252,12 251,12 251,12 251,11 252,11 252,11 253,10 253,10 254,10 254,10 254,10 254,10 255,9 256,9 258,8 258,8 259,8 259,8 259,8 259,8 260,8 262,7 262,7 262,7 262,7 262,7 267,6 267,6 270,4 270,4 270,4 269,4 269,4 270,4 272,2 272,2 270,1 270,1 270,1 272,0 272,0 274,1 276,1 276,1 277,2 278,2 278,2 278,2 278,2 279,2 280,2 280,2 281,2 281,2 282,3 283,3 283,3 284,3 286,4 287,5 288,5 290,6 291,6 293,7 293,7 293,7 293,7 293,7 294,7 295,8 295,8 295,8 296,8 296,9 296,9 297,10 297,10 297,10 297,10 297,10 297,10 297,10 297,10 297,10 297,11 297,11 297,11 297,11 297,11 298,12 298,12 298,12 298,13 298,13 298,13 298,13 298,13 298,13 298,13 301,12 301,12 302,14 303,14 304,15 304,16 304,15 305,15 306,15 307,15 307,15 308,15 309,15 310,16 310,16 310,16 310,16 310,16 310,16 310,17 310,17 310,17 309,18 309,18 309,18 309,19 309,19 309,19 309,20 308,20 308,21 308,24 308,24 307,24 307,25 305,26 304,27 303,28 303,28 303,28 302,28 302,29 302,29 302,29 301,29 300,29 300,30 300,30 299,30 298,30 298,30 297,30 297,30 298,30 298,30 299,30 299,30 299,30 299,30 302,32 302,32 302,32 302,32 302,32 302,32 303,32 304,33 305,33 308,35 310,36 311,36 312,37 314,37 314,38 313,38 313,38 315,40 316,40 316,40 316,41 317,41 317,41 317,41 318,41 318,41 320,40 322,40 322,40 322,40 323,40 323,41 324,42 324,42 325,42 326,41 327,41 328,41 328,41 329,41 329,41 330,41 330,41 331,41 331,41 332,41 332,41 332,41 332,41 332,41 333,41 333,41 333,41 333,40 333,40 332,40 334,39 334,39 334,39 334,38 333,38 333,38 334,37 334,37 332,36 332,36 333,35 333,35 333,35 332,34 331,34 331,34 331,34 331,34 330,34 330,34 330,34 330,33 329,33 329,32 329,33 329,33 329,33 329,32 329,32 328,31 328,31 328,31 329,30 330,30 330,30 331,30 331,30 331,30 330,29 330,29 330,29 329,28 329,28 329,28 330,28 330,28 330,28 330,27 329,26 328,26 329,26 330,25 330,25 330,25 329,24 329,24 329,23 328,23 328,23 327,21 327,21 327,21 327,21 327,21 327,20 327,20 327,20 328,20 328,20 330,20 330,20 330,20 330,19 330,19 330,19 331,18 332,18 332,18 332,18 333,18 333,18 334,20 334,20 336,19 336,19 336,19 335,18 335,17 335,17 336,17 336,17 336,17 336,17 336,16 336,16 336,16 339,15 340,15 340,15 341,15 341,16 341,16 342,16 345,15 345,15 345,16 345,16 348,15 348,15 347,13 347,13 347,13 349,12 350,12 351,12 352,12 354,11 354,11 353,11 354,11 354,11 357,10 357,10 357,11 357,11 357,11 359,10 359,10 359,10 359,10 360,10 360,10 361,11 361,11 361,11 364,10 368,10 368,10 368,10 368,10 368,10 368,10 368,10 368,10 368,10 368,10 369,10 369,10 370,11 370,11 372,11 372,11 373,12 373,12 373,12 373,12 374,12 374,12 375,12 375,12 375,12 375,12 375,12 382,12 382,12 381,12 381,13 381,13 381,13 381,13 381,13 381,13 381,13 381,13 380,15 380,15 380,15 380,15 380,16 379,17 379,17 379,18 379,18 380,18 380,19 380,20 381,20 381,21 382,21 382,21 383,21 383,22 383,22 383,22 383,23 384,23 384,23 384,23 384,23 384,23 384,24 385,24 386,25 387,25 387,26 387,26 387,26 387,26 388,26 388,26 389,26 389,26 389,26 389,29 389,29 390,29 390,29 390,30 390,30 390,30 391,30 391,30 391,31 391,31 395,30 396,30 398,30 398,30 398,30 398,30 400,30 400,30 400,30 402,31 402,31 402,31 402,31 402,31 402,31 402,31 402,31 404,32 404,32 404,32 404,32 413,32 415,32 415,32 415,32 416,34 417,34 417,34 417,34 418,36 424,34 424,34 425,33 426,32 431,30 436,30 436,29 437,28 440,28 440,28 442,28 443,29 451,29 453,28 454,28 455,29 462,26 464,26 467,24 468,27 468,27 469,29 471,33 474,37 477,41 484,44 486,46 493,49 496,51 495,51 495,51 494,51 494,51 494,51 494,51 493,51 493,50 493,50 492,50 492,50 491,50 491,50 491,50 491,51 490,51 490,51 490,51 490,51 490,51 490,51 490,52 490,52 490,52 490,52 490,52 490,52 490,52 490,52 489,53 489,53 488,53 487,53 486,53 486,53 486,53 485,53 485,53 485,53 484,54 484,54 484,54 484,54 483,54 483,54 479,55 479,55 479,56 479,56 479,57 479,57 479,57 480,58 480,58 480,58 483,61 484,61 484,62 485,62 488,63 489,63 490,64 490,64 492,65 493,66 494,67 494,67 496,68 498,69 500,70 500,70 498,70 498,70 497,70 495,70 495,71 494,71 494,71 494,71 494,72 495,72 495,73 495,73 493,74 492,74 492,74 490,75 489,76 489,77 488,77 487,77 486,77 485,78 485,78 483,78 482,78 482,78 480,78 477,77 476,77 474,77 473,78 471,78 470,78 468,78 466,78 463,79 458,79 454,81 453,80 452,80 450,79 446,71 444,70 442,70 439,70 438,70 434,70 433,70 431,71 431,72 430,73 430,74 429,75 429,76 429,76 425,76 424,76 424,76 423,75 422,75 422,75 421,76 421,76 420,76 418,77 415,78 416,80 412,80 412,81 409,81 409,82 410,83 408,84 408,85 407,86 406,87 408,88 408,88 409,89 409,89 410,89 410,90 412,90 412,91 413,91 415,92 416,92 416,92 414,93 412,95 412,95 411,97 409,97 406,98 402,99 402,99 400,100 400,101 400,102 400,104 400,104 401,107 402,109 402,109 404,109 405,108 406,107 409,106 411,108 414,107 415,108 415,109 417,109 420,109 422,110 423,110 425,110 426,111 427,110 428,111 429,111 431,111 432,111 431,112 430,113 427,119 426,120 426,121 425,122 424,123 423,125 423,125 422,126 422,127 422,127 420,129 420,130 420,130 419,132 436,140 434,144 436,145 437,146 437,147 435,149 435,150 436,150 439,149 440,149 441,151 441,152 441,153 446,154 447,156 450,158 455,158 458,164 456,165 455,167 456,169 455,170 456,173 459,174 460,174 465,175 468,175 471,180 478,186 484,183 487,188 488,188 490,191 492,190 495,193 495,193 496,195 495,196 495,196 495,197 495,197 495,197 494,198 494,198 494,198 494,198 493,198 492,199 492,199 491,199 491,198 491,198 491,198 490,199 488,200 488,200 488,200 488,200 490,203 490,203 490,203 489,204 488,204 487,204 487,204 486,204 486,204 486,204 485,203 485,204 485,204 485,204 482,205 479,205 478,205 478,205 478,205 478,205 478,205 477,205 477,205 476,206 476,206 476,205 475,204 475,204 475,204 474,205 474,205 474,205 474,205 473,205 473,205 472,204 471,204 471,203 471,203 471,203 470,203 470,203 470,203 470,202 470,202 470,201 470,201 470,201 469,201 469,201 469,201 469,201 469,200 469,200 468,200 468,200 468,200 464,201 464,201 464,201 464,201 464,201 464,201 464,201 463,202 461,202 461,202 461,202 462,203 462,203 462,203 459,204 459,204 459,204 456,204 456,204 456,204 456,204 455,205 456,205 456,205 455,205 454,205 454,205 453,205 453,205 452,206 450,206 447,206 447,206 447,206 447,207 446,207 446,207 446,207 446,207 446,207 446,207 446,208 446,208 447,209 447,210 447,210 447,210 447,210 447,210 448,210 448,210 448,210 449,211 449,211 449,211 449,211 450,212 450,212 450,212 451,212 451,212 452,213 452,213 452,213 452,213 452,213 452,213 451,213 451,214 451,214 451,214 451,214 451,214 451,214 451,214 450,215 450,215 449,215 449,215 449,216 449,216 449,216 449,216 449,216 449,216 450,217 450,217 451,217 451,217 451,217 451,217 451,217 451,218 452,218 452,218 452,218 452,218 452,218 452,218 452,218 453,219 453,219 454,219 454,220 454,220 455,220 455,220 455,220 455,221 454,221 454,221 453,221 452,221 452,221 451,221 451,221 450,222 449,222 449,222 449,222 449,222 449,222 449,222 449,222 448,222 447,222 447,222 445,223 444,223 444,223 442,224 442,224 442,224 442,224 439,222 438,221 438,221 438,221 438,221 438,221 439,221 439,221 439,221 439,220 438,219 438,219 438,219 438,218 438,218 438,218 437,218 437,217 436,217 435,216 435,216 435,216 434,216 434,216 434,215 433,215 433,214 433,214 433,214 433,213 433,213 433,213 432,213 432,213 432,213 432,213 432,213 431,213 431,212 430,212 430,212 430,212 430,212 429,212 429,212 429,212 428,212 428,212 428,212 428,212 428,212 427,211 427,211 427,211 427,210 427,210 427,210 427,210 427,210 427,210 427,209 427,209 426,208 426,208 426,208 426,207 426,207 426,207 426,206 426,206 425,206 425,206 425,205 425,205 424,205 423,205 423,205 423,205 423,205 423,204 422,204 422,204 422,205 421,205 421,205 421,205 420,205 420,204 420,204 420,204 417,203 417,203 416,202 415,202 415,202 415,201 415,201 415,201 415,201 415,201 416,201 416,201 416,201 417,201 418,201 418,201 419,201 419,201 419,200 421,200 421,199 421,199 421,199 421,199 421,199 421,199 421,199 421,198 421,198 421,198 421,198 421,198 422,197 422,197 422,197 422,197 422,197 421,197 422,196 422,196 422,195 422,195 422,195 422,195 422,194 422,194 422,194 422,194 423,192 423,192 423,191 423,191 423,191 423,191 423,191 423,191 423,191 423,191 423,191 423,191 423,191 423,190 423,190 423,190 422,190 422,190 422,190 422,190 421,189 420,189 420,189 418,189 418,189 418,189 418,189 418,189 417,188 416,188 416,188 416,188 415,189 414,189 414,188 414,189 414,189 414,189 414,189 414,189 413,189 412,189 412,188 411,188 411,188 411,189 411,189 411,189 410,190 410,190 409,191 408,192 408,193 408,193 408,193 408,193 407,194 407,194 406,195 406,195 405,195 405,196 405,196 405,197 404,197 404,198 403,199 402,200 401,201 400,203 400,204 399,204 398,206 398,206 397,207 396,208 396,208 396,208 396,208 395,209 395,209 395,210 394,210 394,211 393,212 393,212 392,213 392,213 391,214 391,214 391,215 390,215 390,215 390,216 390,216 389,217 389,217 389,217 388,218 388,218 387,219 387,220 386,220 386,221 386,221 386,221 383,224 382,225 380,227 380,228 380,228 380,227 379,227 378,226 377,226 377,226 377,226 377,226 374,227 374,227 374,227 372,227 370,226 370,227 369,227 369,227 368,227 367,227 366,228 366,228 366,228 365,228 365,229 364,229 363,229 363,229 362,230 361,230 361,230 361,230 361,230 360,231 359,231 358,231 357,231 357,231 356,231 356,231 356,231 355,231 356,231 355,231 352,232 352,232 351,232 351,233 350,233 349,234 349,234 349,234 348,234 347,233 347,232 344,233 343,233 343,233 342,234 341,234 340,234 340,234 340,234 338,235 338,235 338,235 337,235 337,235 336,235 335,236 333,237 332,237 334,239 334,239 334,239 335,239 335,239 335,240 334,239 333,239 333,239 332,239 332,239 331,239 331,240 331,240 331,240 330,240 329,241 329,241 329,241 328,242 326,243 326,243 325,243 325,243 325,243 325,243 325,243 325,242 325,242 325,242 324,241 324,240 323,239 323,239 323,239 323,239 323,239 322,239 318,240 318,240 317,241 315,241 313,242 312,242 312,242 311,242 311,241 311,241 311,241 310,241 310,241 310,241 309,240 310,240 310,240 308,240 308,240 308,240 308,240 308,240 307,240 307,239 306,239 306,239 305,239 305,238 304,238 304,238 304,238 303,238 302,237 302,237 302,237 302,237 301,236 301,236 301,236 301,234 301,233 301,233 301,232 302,232 302,231 302,230 301,230 300,229 298,228 297,227 296,227 295,226 295,226 294,226 294,226 292,226 292,226 290,227 289,228 289,228 289,228 289,228 289,228 288,228 288,228 288,228 286,229 285,229 285,229 284,230 282,231 280,231 279,232 278,232 278,232 278,232 277,232 277,231 277,231 276,231 275,232 275,232 275,232 275,232 275,232 274,232 274,232 274,232 274,232 274,232 274,232 273,232 273,233 273,233 273,233 272,233 270,233 270,233 269,233 269,234 269,234 269,234 269,233 268,233 267,233 267,233 267,234 267,234 267,234 265,234 265,234 265,234 264,235 263,235 263,235 263,235 262,235 262,236 261,236 261,236 260,236 260,236 259,237 256,237 255,238 254,238 254,238 254,238 253,238 252,238 252,238 251,238 251,238 250,238 248,238 248,238 247,239 246,238 246,238 245,238 245,239 245,239 244,239 244,239 242,240 241,241 241,242 240,242 239,243 238,243 238,244 237,244 236,244 235,245 235,245 235,245 234,245 234,246 234,246 234,246 234,246 231,247 230,248 229,248 229,248 229,249 228,250 227,250 227,250 224,253 223,254 223,254 222,255 221,256 220,257 219,257 219,258 218,259 216,260 216,260 215,261 215,262 214,262 214,263 214,263 213,265 212,266 212,267 212,267 212,268 211,268 211,268 210,269 210,269 210,269 209,270 209,270 209,270 209,270 208,270 208,270 207,270 204,271 204,271 204,270 203,270 203,270 200,270 192,269 191,269 185,270 184,269 184,269 183,267 182,266 181,265 181,264 181,263 181,263 181,262 180,261 179,259 178,258 178,258 178,257 177,257 177,257 176,256 175,256 175,256 174,254 174,253 173,253 173,252 173,251 173,251 173,251 173,251 171,251 171,251 171,251 170,251 169,250 168,249 167,247 166,246 165,246 165,245 164,244 164,243 164,243 169,238 178,230 179,229 181,228 182,226 185,224 187,222 184,221 180,220 173,219 173,219 176,217 180,214 183,211 185,210 184,210 182,211 178,213 174,215 172,216 170,216 170,216 168,217 165,217 163,218 163,218 159,217 156,217 155,217 155,216 155,214 154,213 154,213 154,211 153,208 152,202 150,196 150,195 150,195 149,195 149,195 148,195 147,195 146,195 145,195 144,194 144,194 142,194 141,194 141,194 139,194 139,194 138,194 137,194 137,194 136,194 135,194 135,194 135,194 133,195 132,195 131,196 130,196 129,197 128,197 125,198 121,200 120,200 119,201 118,201 115,203 114,203 114,203 110,204 107,206 106,206 102,208 101,208 101,208 99,209 99,209 99,209 98,210 96,210 94,211 91,212 90,213 86,216 85,217 85,217 83,218 81,220 81,220 77,223 76,224 70,228 70,228 69,229 64,232 53,241 53,241 44,238 35,235 35,235 35,235 36,233 36,233 37,232 37,230 40,223 40,223 41,221 41,220 42,219 42,218 42,218 42,218 41,218 41,219 41,219 40,219 40,219 39,219 39,219 38,220 37,220 36,220 36,220 35,220 32,221 32,221 31,221 30,221 29,221 28,221 27,222 27,222 26,222 25,222 23,222 23,222 23,222 23,222 23,222 23,222 23,222 23,222 23,221 23,221 23,220 23,220 23,220 23,220 23,220 23,220 23,219 23,219 22,218 22,218 22,218 21,218 21,218 21,218 20,217 19,216 19,216 20,216 21,216 22,215 22,215 22,215 22,215 22,215 22,215 22,215 22,214 22,214 21,213 21,213 21,213 21,213 21,213 21,212 21,212 21,212 21,212 20,211 20,211 20,211 20,211 20,211 20,210 20,210 20,210 20,210 20,210 20,210 20,210 20,209 20,209 20,209 20,209 19,209 19,209 19,209 19,209 18,208 18,208 16,209 16,209 16,209 16,209 16,209 15,209 15,209 15,208 15,208 15,208 15,207 15,207 15,205 15,204 17,204 17,204 18,204 18,203 18,203 19,203 19,203 20,203 20,203 19,202 18,202 18,202 18,202 18,202 17,202 17,202 15,201 15,201 13,200 13,200 13,200 13,200 13,200 12,199 11,198 11,197 11,197 11,196 11,196 11,195 11,194 9,194 8,196 7,197 7,197 6,197 6,197 5,197 5,197 5,197 5,197 5,197 4,196 4,195 4,195 4,195 4,195 4,195 4,194 3,194 3,194 3,194 3,194 3,194 3,193 2,193 2,193 3,193 3,193 3,193 3,193 3,193 3,193 3,192 3,192 3,192 3,192 3,192 3,192 2,191 2,191 2,191 2,191 2,191 2,191 1,190 1,190 1,190 1,190 1,190 1,190 2,190 2,190 2,190 2,190 2,189 2,189 1,189 0,188 0,188 0,188 0,188 0,188 0,188 0,187 1,187 1,187 1,187 1,187 1,187 1,187 1,186 1,186 0,186 0,186 0,186 0,186 0,186 0,186 0,185 0,185 0,185 0,185 1,185 1,185 1,185 2,184 2,184 2,184 2,184 2,184 2,184 2,183 2,183 3,183 3,183 3,183 3,183 3,183 3,183 4,182 4,182 5,182 5,182 5,182 5,182 5,182 6,181 6,181 6,181 6,181 6,181 7,181 7,181 7,181 7,180 8,180 8,180 8,180 9,179 9,179 9,179 9,178 10,178 10,178 10,178 11,177 11,177 11,177 11,177 11,177 12,176 13,176 14,175 14,175 14,175 14,175 14,175 14,175 14,175 15,174 15,174 15,174 15,174 15,174 15,174 15,174 16,174 16,174 16,173 16,173 16,173 16,173 16,173 17,173 17,172 17,172 17,172 17,171 17,171 17,171 16,171 16,170 17,170 17,170 17,169 17,169 17,169 17,169 17,168 18,168 18,168 18,168 18,166 18,166 20,165 21,165 21,165 22,164 22,164 22,164 22,164 23,164 23,164 23,164 23,164 23,163 23,163 23,163 24,163 24,163 24,163 24,163 24,163 24,163 24,163 25,162 25,162 25,162 25,162 26,162 26,161 26,161 27,161 27,161 27,161 27,161 27,161 27,161 27,160 29,160 29,160 30,159 31,159 31,159 32,159 32,159 32,158 32,158 32,158 33,158 33,158 33,157 34,156 34,156 34,156 34,155 34,155 34,155 35,154 35,154 35,154 35,154 35,153 35,153 35,153 35,153 35,153 35,152 35,152 36,152 36,152 36,152 36,152 36,151 36,151 36,151 36,151 37,151 38,150 38,150 38,150 38,150 38,149 38,149 38,149 39,149 39,148 39,148 39,148 39,148 40,147 41,147 41,147 41,146 41,146 41,146 41,146 42,146 40,145 40,145 40,145" id="2708" class="canton" fill="steelblue" stroke-width="1" stroke="white" geotype="canton" geoname="Conches-en-Ouche" code_insee="2708" code_departement="27" nom_departement="Eure" code_region="28" nom_region="Normandie"/></svg>