<?xml version="1.0" encoding="utf-8"?>
<svg version="1.1" id="svgmap" xmlns="http://www.w3.org/2000/svg" xmlns:xlink="http://www.w3.org/1999/xlink" x="0px" y="0px" width="100%" height="100%" viewBox="0 0 500 215">
<polygon points="5,88 5,88 5,88 5,88 5,88 5,88 5,88 5,88 5,88 6,88 6,88 6,88 6,87 6,87 6,87 6,87 6,87 6,87 6,87 6,87 6,86 6,86 7,86 7,86 7,86 7,86 7,86 7,86 7,86 7,86 7,86 7,86 7,86 7,86 7,86 8,86 8,86 8,86 8,86 8,86 8,86 8,86 8,85 8,85 8,85 8,85 8,85 8,85 9,85 9,85 9,84 9,84 9,84 10,84 10,83 11,83 11,83 12,82 12,82 12,82 12,83 12,83 12,82 12,82 12,82 12,82 13,82 13,82 13,82 13,81 13,81 13,81 13,81 13,81 14,81 16,81 17,81 17,81 18,81 18,81 19,81 19,81 19,81 20,81 20,81 22,82 22,82 22,82 22,82 23,82 23,82 23,82 23,83 23,83 23,83 24,82 24,82 25,82 25,82 25,82 25,82 25,81 25,81 25,81 26,81 26,81 27,80 27,80 27,80 27,80 27,80 27,80 27,80 27,80 27,80 27,80 28,80 28,80 29,80 29,80 29,80 29,80 29,80 30,80 30,80 30,79 30,79 30,79 31,79 31,79 31,78 31,78 31,78 31,78 31,78 31,78 31,78 32,78 33,78 34,77 34,77 35,77 35,77 35,77 35,77 35,77 36,77 36,77 36,77 36,77 37,77 37,77 37,77 37,77 37,77 37,77 37,77 37,77 37,77 38,77 38,77 38,77 38,77 38,77 39,76 39,76 39,76 39,76 41,76 41,76 41,76 41,75 41,75 40,75 40,75 40,75 40,75 40,75 40,75 40,75 40,75 40,74 40,74 40,74 40,74 40,74 40,74 40,74 39,74 39,74 39,74 39,74 39,73 39,73 39,73 39,73 38,72 38,72 38,72 38,72 38,72 38,72 38,72 38,72 38,72 38,72 39,71 39,71 39,71 39,71 40,71 40,70 41,70 41,70 41,70 42,69 42,69 42,68 42,68 43,68 43,68 43,68 43,68 43,68 43,68 44,68 44,68 44,67 44,67 44,67 44,67 44,67 44,67 44,67 44,67 43,66 43,66 43,66 43,66 43,66 43,66 43,65 43,65 43,65 43,65 43,65 43,64 43,64 43,64 43,64 43,64 43,64 43,63 43,63 43,63 43,63 43,63 44,63 44,63 44,63 44,62 45,62 45,62 45,62 45,62 45,62 45,62 45,61 46,61 46,61 46,60 46,60 46,59 46,59 46,59 46,58 47,58 47,58 47,57 47,57 47,57 47,57 47,56 47,56 47,56 48,56 48,56 49,56 49,56 49,55 49,55 49,55 50,55 50,55 50,55 50,55 50,55 50,55 50,55 51,55 51,55 51,55 51,55 51,55 51,55 51,55 52,54 53,54 53,54 54,54 54,54 54,54 54,54 54,54 54,53 54,53 54,53 55,53 55,53 55,53 55,53 56,53 56,54 56,54 56,54 56,54 56,54 57,54 57,54 57,54 57,54 57,54 58,53 58,53 58,53 58,53 59,52 59,52 59,52 60,52 60,52 60,52 60,52 60,51 60,51 61,52 61,52 62,53 63,54 64,55 64,55 63,55 64,55 64,55 66,57 66,57 66,57 67,57 67,57 67,57 67,57 67,58 67,58 67,59 67,59 67,59 68,59 68,59 68,59 68,59 68,59 69,59 69,59 69,59 69,59 70,58 70,58 70,58 71,58 71,58 71,58 72,58 72,58 72,58 72,58 73,58 73,58 73,58 73,58 73,58 73,58 73,58 73,58 73,58 74,59 74,59 74,59 74,59 74,59 74,59 74,59 74,59 74,59 75,59 75,59 75,59 75,59 76,59 76,59 76,59 76,59 77,59 77,58 77,58 78,58 78,58 78,58 79,58 79,58 80,58 80,58 80,58 81,58 81,58 81,58 81,58 82,58 82,57 83,57 83,57 83,58 83,58 83,58 83,58 83,59 83,60 83,60 83,60 84,60 85,59 85,59 85,59 85,59 85,59 86,59 87,59 88,59 88,59 88,59 88,58 89,58 89,58 89,58 89,58 89,58 89,58 89,58 89,58 89,58 90,58 90,58 91,57 93,57 95,56 95,56 95,56 96,56 96,56 97,56 97,56 97,56 97,57 97,57 97,57 97,57 98,57 98,57 98,57 99,57 100,57 100,57 100,57 101,56 101,56 102,56 102,56 102,56 102,56 102,56 102,57 102,57 102,57 103,56 103,56 103,56 103,56 103,56 103,56 103,56 104,56 104,56 105,56 105,56 105,55 106,55 106,55 106,55 106,55 107,55 107,55 108,54 108,54 109,54 109,54 109,54 109,54 109,54 109,53 110,53 110,53 110,53 110,53 110,53 111,52 111,52 111,52 111,52 111,52 110,51 110,51 111,50 111,50 111,50 111,50 111,50 112,50 112,49 112,49 112,49 112,49 113,49 113,48 113,48 113,48 113,48 113,48 113,48 113,48 113,48 113,47 114,47 114,47 114,47 114,47 115,47 115,47 115,47 115,47 115,47 115,47 116,47 116,47 117,46 117,46 117,46 117,46 117,46 117,46 117,46 117,46 118,46 118,46 119,46 119,46 119,46 119,46 119,46 119,46 119,46 120,46 120,46 120,46 125,44 125,44 125,44 126,44 126,44 126,44 126,44 126,44 127,44 127,44 127,44 127,44 127,44 127,44 128,44 128,44 128,45 129,45 129,45 129,45 129,46 129,46 129,46 129,46 129,46 129,46 129,46 129,46 129,47 129,47 129,47 129,47 129,47 130,47 130,47 130,47 130,47 131,47 131,47 131,47 131,47 131,47 131,47 131,47 132,47 133,47 133,47 134,47 134,47 135,47 135,47 135,47 135,47 136,47 137,47 137,47 137,47 138,47 138,47 138,47 138,47 139,46 139,46 139,46 139,46 139,46 140,46 140,46 140,46 140,46 140,46 141,45 141,45 141,45 141,45 142,45 142,45 143,45 143,46 143,46 143,46 144,46 144,46 144,46 144,46 145,46 145,46 145,46 146,46 146,46 146,46 147,46 147,46 147,46 147,46 148,46 148,46 148,46 149,46 149,46 149,46 149,46 149,46 149,46 149,46 149,46 149,45 149,45 149,45 149,45 150,45 150,45 150,45 150,45 150,46 150,46 150,46 150,46 151,46 151,46 151,46 151,46 151,46 151,46 151,46 151,46 151,46 151,46 151,46 151,46 152,46 152,46 152,46 152,46 152,46 152,46 152,46 152,46 152,46 152,46 152,46 152,46 152,46 152,46 152,46 153,46 153,46 153,46 153,46 153,46 154,46 154,46 154,46 154,46 154,46 155,45 155,45 155,45 155,44 155,44 156,44 156,44 155,44 155,44 155,43 155,43 155,43 155,43 155,43 156,43 156,43 156,43 156,43 156,43 156,43 156,43 156,43 156,43 156,42 156,42 156,42 156,42 156,42 156,42 156,42 156,42 156,42 156,42 156,42 156,41 156,41 156,41 157,41 157,41 157,41 157,41 157,41 157,41 158,41 158,41 158,41 158,41 158,41 158,41 159,41 159,41 159,41 159,41 159,41 159,41 159,41 159,41 160,41 161,41 161,41 161,42 161,42 162,42 162,42 162,42 162,42 162,42 163,43 163,43 163,43 163,43 163,43 163,43 163,43 163,43 163,43 163,44 163,44 163,44 163,44 163,44 163,44 163,44 163,44 163,44 163,44 164,44 164,44 164,44 164,45 164,45 164,45 164,45 164,45 164,45 164,45 164,45 164,45 164,45 165,45 165,45 166,45 166,45 167,45 167,45 167,45 167,45 168,45 168,45 168,45 168,45 168,45 169,45 169,45 169,44 169,44 169,44 170,44 170,44 170,44 170,44 170,44 170,44 170,44 170,44 170,43 170,43 170,43 170,43 170,43 170,43 170,42 170,42 170,42 170,42 170,42 170,42 170,42 170,42 170,42 169,42 169,42 169,42 169,41 169,41 169,41 169,41 168,41 168,41 168,41 168,41 168,41 168,41 168,41 168,41 168,41 168,41 168,41 168,40 168,40 168,40 167,40 167,40 167,40 167,39 167,39 167,39 167,38 167,38 167,38 167,38 168,37 168,37 168,37 168,37 168,36 168,36 168,36 169,36 169,36 169,36 170,36 170,36 170,36 170,35 171,35 171,35 171,35 171,35 173,35 173,35 173,35 174,35 174,35 174,35 175,35 175,35 175,34 175,34 176,34 176,34 176,34 177,34 177,33 177,33 177,33 177,33 177,33 177,33 178,33 178,33 178,33 178,32 178,32 177,32 177,32 177,32 177,32 177,32 177,31 177,31 177,31 177,31 177,31 177,31 177,31 177,30 178,30 178,30 178,30 179,29 180,29 180,28 180,28 181,28 181,28 181,28 181,28 182,28 182,28 182,28 182,28 182,28 182,28 182,27 182,27 183,27 183,27 183,27 183,27 183,27 183,27 183,27 183,27 184,27 184,27 184,27 184,27 184,27 184,27 184,27 184,27 184,27 184,27 184,26 184,26 184,26 184,26 184,26 185,26 185,26 185,25 186,25 186,25 186,25 186,25 186,25 186,25 186,25 186,25 186,24 186,24 186,24 186,24 186,24 187,24 187,24 187,24 187,24 189,22 189,22 190,22 190,22 190,22 190,22 190,22 191,22 191,22 191,22 191,22 191,23 192,23 192,23 192,23 192,23 193,23 193,23 193,23 193,23 193,24 193,24 193,24 193,24 193,25 194,26 193,26 193,27 193,27 193,27 193,28 194,28 194,30 194,30 194,30 194,30 194,30 194,30 195,30 195,30 195,30 196,30 196,30 196,30 196,30 196,30 196,30 196,30 196,30 196,30 196,30 196,30 196,30 196,30 197,30 197,30 197,30 197,30 197,30 198,30 198,30 198,29 198,30 199,30 199,30 199,30 199,30 199,30 199,30 200,29 201,29 201,29 201,28 201,28 202,28 202,27 202,27 202,27 202,27 202,27 203,27 203,27 203,28 203,28 204,28 204,28 204,28 204,28 204,28 203,27 203,27 204,27 204,26 204,26 205,25 205,25 205,25 206,25 206,25 206,24 206,24 207,24 207,24 207,24 207,24 208,24 208,24 208,24 208,25 208,25 208,25 207,26 207,26 207,26 207,27 207,27 208,27 208,27 208,27 209,27 209,26 209,26 210,27 210,27 210,28 210,28 211,28 211,29 211,29 211,29 212,29 213,29 213,30 214,30 215,30 215,30 218,28 218,28 218,28 218,28 218,27 218,27 218,27 218,27 218,27 219,27 219,27 219,27 219,28 219,28 219,28 219,28 218,28 219,29 220,30 221,29 222,30 223,30 223,29 223,29 224,29 224,29 225,30 225,30 225,30 225,30 225,30 225,30 225,31 225,31 225,31 225,31 225,31 225,31 225,32 225,32 226,32 226,32 227,32 227,32 228,32 228,31 227,31 227,30 227,30 227,30 228,30 226,28 226,28 227,27 228,27 230,26 231,26 231,25 231,25 231,24 231,24 231,24 231,23 231,23 231,23 231,22 231,22 230,22 230,22 230,22 231,21 230,21 231,21 231,21 231,20 231,20 230,19 230,19 230,19 230,18 230,17 231,17 232,17 232,17 232,17 233,16 233,17 233,17 235,17 235,17 236,17 237,18 238,18 238,17 238,17 238,17 237,17 237,17 236,17 236,16 236,16 235,16 234,16 234,15 234,15 233,14 232,14 234,14 234,13 234,12 233,12 233,12 232,11 232,10 232,10 232,10 232,9 232,9 232,9 232,9 232,9 232,9 232,9 232,8 232,8 232,8 232,7 231,6 231,6 231,5 231,5 231,5 231,5 231,4 230,4 230,4 230,4 230,3 230,3 230,3 230,3 231,3 231,2 231,2 231,2 231,2 231,2 231,2 232,1 232,1 232,1 233,0 233,0 233,0 235,0 236,0 237,0 237,0 238,0 238,0 239,1 239,1 240,1 240,1 241,1 241,2 241,2 241,2 242,2 242,3 243,3 243,3 243,3 244,3 244,3 244,3 245,3 245,3 246,3 246,3 246,3 247,3 248,3 249,2 249,2 249,2 250,2 250,3 251,3 251,3 251,3 252,3 252,3 252,3 252,3 253,3 253,3 254,3 254,3 255,2 256,2 256,3 255,3 255,3 255,4 255,6 255,6 255,6 254,6 254,6 254,7 254,7 253,7 253,8 254,9 253,9 254,9 254,10 254,10 255,10 255,10 255,11 256,11 256,11 257,12 258,12 261,13 261,13 261,14 262,14 262,14 262,14 263,14 263,14 263,14 263,14 262,14 262,14 262,15 260,15 260,15 260,15 260,15 261,15 261,15 262,15 262,15 263,15 263,15 263,15 263,15 264,15 264,15 265,15 265,14 266,14 267,14 267,14 268,14 268,14 269,14 270,14 270,14 270,14 270,14 270,14 271,14 272,14 274,14 274,14 276,13 277,13 278,13 279,13 279,13 279,13 279,13 280,13 281,12 282,12 282,12 283,12 284,13 284,13 285,13 285,13 286,14 286,14 286,14 286,14 287,14 287,14 287,14 288,14 289,15 290,15 291,15 291,15 293,16 294,16 294,16 294,17 295,17 296,17 296,17 296,17 296,17 296,17 297,17 297,17 298,17 299,18 299,18 299,18 299,19 299,19 300,19 300,19 301,19 302,20 303,20 303,20 304,21 304,21 305,22 306,22 306,22 306,22 307,22 307,22 308,23 308,23 308,23 309,23 309,23 309,23 309,23 309,23 309,23 310,23 310,23 310,23 311,22 311,22 311,22 312,22 312,22 312,22 312,22 313,21 313,21 314,21 314,21 314,20 316,20 316,20 316,20 316,20 316,19 315,19 314,20 313,20 313,20 312,20 311,19 310,19 310,19 309,19 309,19 309,19 309,18 309,17 309,17 309,16 310,16 312,16 313,16 315,16 316,16 317,16 318,15 318,15 319,15 319,15 319,15 320,15 320,15 320,15 321,15 321,15 321,15 322,15 322,15 323,15 323,15 324,15 324,15 325,15 325,15 325,15 325,15 326,15 326,15 326,15 326,15 327,15 327,15 327,15 327,15 327,15 327,16 328,16 328,16 328,16 328,16 329,16 329,16 329,16 330,17 330,17 330,17 331,17 331,17 331,17 332,17 332,17 332,17 333,17 333,18 334,18 333,18 333,18 334,18 333,19 333,20 333,21 332,22 333,22 333,22 332,23 332,23 332,23 333,23 333,23 333,23 334,23 334,23 334,23 334,23 334,23 334,23 334,23 335,23 335,23 335,23 335,23 335,23 336,23 336,23 336,23 336,23 336,23 336,23 337,23 337,24 337,23 338,24 338,24 339,24 339,24 340,24 340,24 341,24 341,24 342,24 342,24 342,24 342,24 342,25 342,25 342,25 341,25 341,25 341,25 341,26 341,26 341,26 341,26 341,26 341,26 340,26 340,27 340,27 340,27 340,27 340,27 339,27 339,28 339,28 338,28 338,28 338,28 338,29 338,29 339,29 342,30 343,30 343,30 343,31 344,31 344,31 344,32 345,33 345,33 345,33 345,34 346,34 346,35 347,35 347,36 346,36 344,37 343,38 342,39 341,37 340,37 341,40 337,40 336,40 334,40 334,40 333,40 332,39 329,38 328,38 327,38 326,37 325,36 323,36 322,36 321,36 321,35 320,35 319,35 318,35 318,34 318,34 318,35 317,35 317,35 317,35 317,35 317,35 316,36 316,36 316,38 316,38 316,38 316,38 316,38 316,38 315,38 315,38 315,39 315,39 315,39 315,39 315,39 315,39 315,39 315,40 314,40 314,40 314,41 313,41 313,42 313,42 313,42 312,43 312,43 312,43 312,43 312,44 312,44 311,44 311,44 311,44 311,45 312,45 312,45 312,45 312,46 312,46 312,47 312,47 312,47 312,48 312,48 312,47 312,47 313,47 313,46 314,46 315,46 315,45 317,45 317,45 318,46 318,46 319,46 319,47 319,47 320,48 322,49 323,50 322,50 322,50 326,51 326,51 327,51 327,51 331,52 331,52 331,52 331,53 333,53 333,54 334,54 335,54 335,54 336,54 337,55 338,54 338,54 339,54 339,54 340,54 340,54 340,54 340,54 340,55 340,56 339,57 339,57 339,58 339,58 342,58 342,58 343,58 344,58 344,58 344,58 344,58 345,59 345,59 345,59 345,60 342,60 340,61 337,61 335,62 336,62 336,62 336,63 335,64 335,64 335,65 335,66 335,66 335,67 335,67 335,68 335,69 334,70 334,70 333,70 333,71 332,71 332,71 330,72 330,72 330,73 330,74 330,74 330,74 330,75 330,75 331,75 331,76 331,77 332,77 332,77 332,77 332,77 332,77 332,78 332,78 332,78 333,79 333,79 328,80 327,81 327,81 324,82 324,82 323,82 323,81 319,84 319,84 319,84 319,84 319,84 319,84 319,84 320,85 320,85 321,85 321,86 321,86 321,86 322,87 322,87 323,87 322,88 322,88 322,88 322,88 322,88 322,88 327,93 327,93 327,93 328,93 328,94 328,94 328,94 329,94 329,94 329,93 329,93 330,93 330,93 330,93 331,93 332,93 332,93 332,93 332,94 332,94 333,95 334,96 334,96 334,96 333,96 334,96 334,96 334,97 334,97 334,97 335,98 335,98 335,98 336,98 336,98 337,99 338,99 338,99 338,99 338,100 339,100 339,100 339,100 339,101 339,101 339,101 339,101 339,101 339,101 340,101 340,101 340,101 340,101 340,101 340,101 340,101 340,102 340,102 341,102 341,102 341,102 341,101 342,101 342,101 342,101 343,103 343,103 343,103 342,103 342,103 342,103 341,103 341,103 341,103 341,103 341,103 341,103 342,104 342,104 342,104 342,104 342,104 341,105 341,105 341,105 341,105 341,106 341,106 341,106 340,106 339,106 339,107 339,107 340,107 340,107 340,108 340,108 343,108 343,108 343,108 343,108 343,109 343,110 343,110 343,110 343,111 344,112 344,112 344,112 344,112 344,112 344,112 344,112 345,112 347,112 347,112 347,112 348,112 349,112 349,112 349,112 349,112 350,112 350,112 350,112 351,112 351,113 351,113 351,113 351,113 352,114 353,114 353,114 354,115 358,116 358,116 359,116 359,116 359,116 359,116 359,116 359,116 359,116 359,116 359,116 359,116 359,115 359,115 360,115 360,115 361,115 361,115 361,115 361,115 361,115 361,114 361,114 361,114 361,114 361,114 361,114 361,114 362,114 362,114 362,114 362,113 362,113 362,112 362,112 362,112 362,111 362,111 362,111 362,111 363,111 363,111 363,111 363,111 364,111 364,111 364,111 364,111 364,112 364,112 365,112 365,112 365,112 365,112 366,112 366,112 366,112 366,112 366,112 367,112 368,112 369,112 369,112 369,112 369,112 368,112 368,112 367,112 367,111 367,111 367,111 367,111 367,111 366,111 366,110 366,110 366,109 365,109 366,109 365,109 365,109 365,109 368,108 368,107 368,107 368,107 368,107 368,107 368,106 372,105 371,105 373,104 374,104 374,105 375,106 376,106 376,106 379,105 380,106 380,106 383,106 383,106 383,106 383,106 384,105 384,105 384,105 388,103 388,103 389,103 391,104 392,105 393,106 394,106 394,106 394,105 394,105 395,105 395,105 395,105 395,105 395,105 395,104 395,104 396,104 396,104 396,104 396,104 396,104 397,103 397,103 397,103 398,103 398,102 398,102 398,102 399,102 399,102 399,102 399,102 399,103 399,103 399,103 399,103 399,103 399,103 400,104 400,104 400,104 400,105 400,105 400,106 401,106 401,107 401,107 401,108 401,108 402,109 402,109 402,110 402,110 402,110 402,110 403,110 404,109 404,109 405,109 405,109 405,109 405,109 406,109 406,109 406,109 406,109 406,108 408,108 408,108 409,107 409,107 410,107 411,107 411,106 412,106 413,105 414,105 415,105 415,104 416,104 417,103 417,103 417,103 417,103 417,103 417,103 418,103 418,104 418,104 418,104 420,103 420,103 420,103 420,103 420,103 420,103 420,104 421,104 421,104 421,104 421,103 422,102 422,102 423,102 423,102 423,102 424,102 424,102 424,102 425,102 426,103 426,104 426,104 427,105 427,105 427,105 427,106 426,106 427,108 428,109 428,109 428,109 428,109 430,111 430,111 429,111 429,111 432,116 432,116 432,116 434,115 434,115 434,115 434,116 434,116 435,117 435,117 436,116 438,115 438,115 438,115 438,115 439,114 439,114 439,114 439,114 444,118 448,115 449,117 449,117 449,117 449,117 449,117 450,117 452,121 452,122 452,122 453,124 453,126 453,126 454,126 456,133 456,133 456,133 456,134 456,134 456,135 456,136 457,136 458,136 460,135 460,135 462,135 462,135 463,134 463,134 463,134 464,134 465,134 465,133 467,133 467,133 468,132 469,132 471,131 472,130 473,130 473,130 473,130 473,130 473,130 474,129 476,129 476,129 478,128 482,128 482,128 483,128 484,129 486,130 486,130 488,132 489,132 490,133 490,133 490,134 490,134 491,134 491,134 491,134 492,134 492,134 492,134 493,137 494,137 494,137 494,138 495,138 495,138 496,139 496,139 496,139 495,139 495,139 495,139 495,139 495,139 495,139 495,139 493,141 493,142 493,142 493,142 493,142 492,143 491,143 490,144 490,144 490,145 492,147 492,148 493,149 492,149 492,149 491,149 491,149 491,149 490,150 490,150 490,150 489,150 489,150 488,150 487,150 485,150 485,150 484,150 484,150 484,150 483,150 483,150 483,150 484,150 485,151 485,151 486,151 486,151 487,152 487,152 487,152 488,152 489,152 490,152 490,152 490,153 490,153 493,154 493,154 493,154 493,154 493,154 493,154 492,155 492,155 492,155 492,155 493,155 493,155 493,155 493,155 493,155 493,156 493,156 493,155 494,155 496,156 496,156 496,156 496,155 496,155 497,155 497,155 497,155 497,155 498,155 498,155 499,155 499,155 499,155 499,155 499,155 499,155 499,155 499,156 499,156 500,157 500,157 500,157 500,157 500,158 500,158 500,159 500,159 500,159 500,159 500,159 500,159 500,159 499,159 499,159 499,159 499,159 499,159 499,159 499,159 499,159 499,160 499,160 499,160 499,161 499,161 499,161 498,162 498,162 499,162 499,162 499,162 499,163 499,163 500,163 500,163 500,163 500,163 500,164 500,164 500,164 499,165 499,165 499,165 499,165 497,167 497,167 496,167 496,167 496,167 496,167 496,168 496,168 496,168 496,169 496,169 495,169 494,169 494,169 494,169 493,169 493,169 492,170 492,170 491,170 491,170 490,170 490,170 489,170 488,170 488,170 487,170 486,170 486,170 485,171 484,171 484,171 484,171 484,171 481,171 481,171 481,171 481,170 480,169 480,169 480,168 478,166 478,166 478,166 477,167 477,167 473,163 469,164 469,164 469,165 469,165 469,165 468,163 465,164 463,164 463,164 461,164 459,164 458,164 457,164 456,164 455,164 455,164 455,164 455,164 455,164 454,164 454,164 453,164 452,164 451,164 449,164 449,164 448,164 446,164 446,164 445,164 444,164 443,164 441,164 440,163 438,161 437,160 436,160 435,159 434,159 434,159 434,159 432,160 428,161 428,161 427,159 427,158 427,158 427,158 426,158 426,158 419,159 419,159 419,159 419,159 419,159 419,160 420,161 420,161 415,162 415,162 413,162 413,163 413,163 413,164 413,165 414,165 414,167 414,167 413,167 413,168 414,169 414,169 414,170 414,170 414,170 413,170 413,170 413,170 415,171 415,172 416,173 416,173 416,173 418,174 418,174 418,174 418,174 419,174 420,175 421,175 421,175 422,176 422,176 423,176 423,177 424,177 424,178 425,178 425,179 425,179 425,179 426,180 426,180 426,180 422,181 422,181 421,181 418,181 415,181 415,181 414,178 414,178 414,178 413,178 413,178 411,173 411,173 410,173 409,173 406,174 405,174 405,174 405,174 407,177 407,177 407,177 406,177 406,177 406,177 405,177 405,177 404,176 404,176 404,176 403,177 402,177 403,177 404,179 404,179 405,180 405,181 407,182 407,182 405,183 405,183 404,183 403,182 403,182 403,182 400,182 400,182 400,182 400,182 396,181 396,181 396,182 396,182 392,182 392,182 392,182 392,182 391,182 387,181 386,184 386,185 386,185 384,185 383,185 383,185 382,185 382,184 381,184 381,185 381,185 381,185 381,186 381,186 381,186 381,186 380,187 380,187 380,187 380,188 380,188 380,188 380,188 380,188 380,188 380,189 379,189 379,189 379,190 378,190 378,190 377,191 377,191 377,191 377,191 377,191 377,191 376,192 376,192 376,192 376,192 376,192 376,192 376,192 375,192 375,192 375,192 375,192 375,193 375,193 375,193 375,193 374,193 374,193 374,193 374,193 374,193 374,194 374,194 374,194 374,194 373,194 373,194 373,194 373,194 373,193 373,193 372,194 372,194 372,194 371,193 371,195 371,195 370,195 370,195 370,195 369,195 369,195 369,195 368,199 368,199 366,199 366,199 365,199 364,198 364,198 364,198 364,199 364,199 364,199 364,200 363,201 363,201 364,201 362,201 360,201 359,201 359,201 359,201 359,203 359,203 360,204 360,204 360,204 357,205 356,205 356,205 356,204 354,204 354,204 354,204 354,204 354,205 353,205 353,205 353,206 353,205 353,205 353,205 352,205 352,205 352,205 351,204 351,204 351,204 350,204 350,204 350,204 350,204 350,204 350,205 350,206 350,206 347,205 347,205 348,204 346,204 346,204 345,204 345,204 345,204 344,204 344,204 344,202 344,202 340,201 340,201 337,198 337,198 334,198 332,197 332,197 330,197 330,198 330,198 329,199 329,199 329,199 329,199 329,199 329,200 329,200 328,200 326,202 326,202 325,202 325,203 325,203 324,203 324,203 324,203 324,203 324,203 323,204 323,204 323,204 323,204 323,204 323,204 322,204 320,205 319,205 319,205 319,205 318,206 318,206 318,206 316,206 316,206 316,206 316,206 316,206 316,206 315,206 315,206 315,206 315,206 315,205 315,205 315,205 314,205 312,204 311,204 311,203 311,203 312,203 312,203 309,203 309,203 308,202 308,202 308,202 304,201 304,201 304,201 302,201 302,201 302,201 301,201 300,201 300,201 300,201 300,201 299,201 299,201 299,201 299,201 299,200 298,201 298,201 298,201 298,201 298,201 298,201 298,202 294,207 294,208 292,208 291,208 291,210 290,211 290,212 290,212 290,212 290,212 291,213 291,213 290,214 290,214 290,214 290,214 290,214 289,214 289,214 289,214 288,214 288,214 287,215 287,215 285,215 285,215 284,215 283,214 283,214 283,214 283,214 283,214 283,214 282,214 282,214 282,213 282,213 282,213 280,213 280,213 280,213 280,213 279,213 278,212 277,212 277,212 276,212 275,212 274,213 274,213 274,213 272,213 270,214 270,214 269,214 268,214 267,214 267,214 267,214 267,214 266,214 266,214 264,214 264,214 264,214 263,214 263,214 263,214 261,213 261,213 260,213 260,213 260,213 259,213 259,212 259,212 259,212 258,212 258,212 258,211 257,210 257,210 257,210 256,210 256,210 256,209 256,209 255,208 255,208 255,208 254,208 254,208 254,208 253,208 252,208 252,208 252,208 251,208 251,208 251,207 250,207 250,207 249,207 249,207 249,207 248,207 247,207 247,207 245,207 245,207 245,207 244,207 244,208 244,208 244,208 244,208 244,208 244,208 243,208 243,208 243,208 243,208 243,208 243,208 243,208 243,208 242,209 242,209 242,209 241,209 241,209 241,210 241,210 240,210 240,211 240,211 240,211 240,211 240,211 241,212 241,212 241,212 241,212 241,212 241,212 241,212 240,212 240,212 240,212 238,212 237,212 237,212 235,212 235,212 235,212 235,212 235,212 234,213 234,213 234,213 233,213 233,213 233,212 232,211 232,211 233,211 233,211 233,211 234,211 234,210 234,210 234,210 234,210 231,211 231,211 231,210 231,210 230,211 230,211 229,211 229,211 227,211 225,212 225,212 224,212 224,212 224,212 224,211 225,211 225,211 225,211 225,210 225,209 225,209 225,209 223,207 223,206 222,206 222,206 221,205 220,205 219,204 219,204 215,205 215,205 215,205 215,205 214,205 214,205 214,204 212,203 212,203 208,204 207,204 204,205 204,205 204,205 202,205 202,205 202,205 200,203 199,203 199,203 198,202 197,201 196,201 196,201 196,201 196,201 196,200 195,200 195,200 194,199 194,199 193,199 193,199 193,199 192,198 192,198 192,198 191,198 191,198 191,198 191,198 190,199 190,199 190,199 189,199 189,199 189,199 188,199 188,199 188,199 187,199 187,200 186,200 186,200 185,200 185,200 184,200 184,200 184,200 184,200 184,200 183,200 183,200 182,200 182,200 181,200 179,201 179,201 178,201 178,201 178,201 177,201 177,202 177,202 176,202 176,202 175,202 175,202 174,203 173,203 173,203 173,203 172,203 171,204 171,204 170,204 169,204 169,204 161,204 161,203 161,203 161,203 161,203 161,203 161,203 162,203 161,203 162,202 162,202 162,202 162,202 162,201 162,201 162,201 162,201 163,201 163,201 163,201 163,200 163,200 163,200 163,200 163,200 163,200 163,199 164,199 164,198 164,198 164,197 164,197 164,197 164,196 161,197 160,198 160,198 157,194 154,191 152,190 152,190 151,191 150,191 150,191 143,194 142,194 141,195 140,195 140,195 139,195 139,194 139,193 139,193 139,193 139,193 138,192 138,192 138,191 138,191 137,190 137,190 137,190 136,189 136,189 136,189 136,189 136,189 135,189 135,188 135,188 135,188 135,188 135,188 135,188 134,188 134,188 134,187 134,187 134,187 134,187 133,187 133,187 133,186 132,186 131,186 131,186 130,186 130,186 130,186 130,186 129,185 129,185 127,185 126,184 126,184 126,184 125,183 122,182 121,182 121,182 120,181 120,180 120,180 119,179 120,179 120,179 121,179 122,179 122,178 122,178 122,178 122,178 121,177 120,177 119,176 119,176 118,175 118,175 118,175 117,175 117,175 116,174 115,174 115,174 115,174 115,174 115,174 114,174 113,174 113,174 113,174 112,174 112,175 111,175 111,175 111,175 110,175 108,175 108,175 108,175 107,176 107,176 105,176 105,176 105,177 104,177 104,177 104,177 104,178 104,178 102,179 101,179 101,179 101,179 101,179 101,179 100,179 100,178 100,178 100,178 100,178 100,177 100,177 99,177 98,176 98,176 97,176 97,176 97,176 96,175 95,174 94,174 94,174 94,174 94,173 93,173 93,173 91,172 91,172 91,172 90,172 90,172 90,172 89,171 89,171 88,171 88,171 88,171 88,171 88,170 87,171 87,171 87,171 87,171 86,172 86,172 85,173 85,172 84,172 83,172 82,171 80,170 77,169 76,168 74,168 74,168 73,167 73,167 72,167 71,167 71,167 71,167 70,167 70,167 70,167 69,166 68,166 68,166 68,165 67,165 67,165 67,164 66,164 66,164 65,163 65,163 64,163 64,163 64,163 64,163 63,163 63,163 63,163 63,162 63,162 63,162 63,162 62,162 60,162 60,162 59,162 58,161 57,161 56,161 55,161 55,161 54,161 54,161 54,160 53,160 53,160 52,160 51,161 51,161 50,161 50,161 50,161 49,161 48,161 47,161 46,161 46,162 45,162 45,162 45,162 45,162 44,162 44,162 44,161 44,161 44,161 43,161 43,161 43,161 43,160 43,160 43,160 42,160 42,160 41,160 41,160 41,159 41,159 41,159 39,158 38,158 37,158 37,157 36,156 36,156 36,156 36,156 34,155 34,155 34,155 33,155 32,155 32,155 32,155 32,155 31,154 31,154 31,154 31,154 31,154 31,154 31,154 30,154 30,153 30,153 30,153 30,153 30,153 30,153 30,152 30,152 30,152 30,152 30,152 30,151 30,151 29,150 29,150 29,150 29,150 30,149 30,149 30,149 30,149 30,149 30,148 30,148 30,148 30,148 30,148 30,147 30,147 30,147 30,146 30,146 29,146 29,146 29,145 29,145 29,145 29,145 29,145 29,145 29,145 29,145 29,145 29,145 29,144 29,144 29,144 29,144 29,144 28,144 28,144 28,143 28,143 28,143 28,143 28,143 28,143 28,143 28,142 28,142 28,142 28,142 28,142 28,142 28,142 29,142 29,142 28,142 28,142 28,141 28,141 28,141 28,141 28,141 28,141 28,141 28,141 28,140 28,140 28,137 28,137 28,137 28,137 28,137 28,137 28,136 28,136 28,136 28,136 28,136 28,136 28,136 28,136 28,136 28,136 28,136 28,136 28,136 28,136 28,136 28,136 28,135 28,135 28,135 28,135 28,135 28,135 28,135 28,135 28,135 28,135 28,135 28,135 28,135 28,135 28,135 28,135 28,135 28,135 28,134 28,134 28,134 28,134 27,134 27,134 26,135 26,135 25,135 25,135 25,135 25,135 24,135 23,135 23,135 23,135 22,135 21,135 21,135 21,135 20,135 20,135 20,135 20,135 20,135 20,135 19,134 19,134 19,134 19,134 19,134 19,134 19,134 19,134 19,134 18,133 18,133 18,133 18,133 17,133 17,133 17,133 16,133 16,133 16,133 16,133 16,133 15,133 15,133 15,133 15,133 14,133 14,133 14,133 13,134 13,134 12,134 12,134 12,134 12,134 12,134 12,134 12,134 12,134 11,134 11,134 11,134 11,134 11,134 10,134 10,134 10,134 10,134 10,135 10,135 10,135 8,134 8,134 7,134 7,134 7,133 7,133 7,132 7,132 6,130 6,130 6,130 6,130 6,130 6,129 6,129 6,128 7,128 8,126 8,126 8,125 9,125 9,125 9,124 9,124 10,124 10,124 10,124 10,124 11,123 11,123 11,123 11,122 11,122 11,121 11,121 11,121 11,121 11,121 11,121 11,121 11,121 11,121 12,120 12,120 12,120 12,120 13,119 13,118 13,118 14,118 15,117 15,117 15,117 16,117 16,116 16,116 16,116 16,116 16,116 16,116 15,117 15,117 15,117 13,116 13,116 13,116 13,116 13,116 12,116 12,116 12,116 10,115 10,115 10,115 10,115 9,115 9,114 9,114 9,114 9,114 9,114 10,114 10,113 10,113 10,112 10,111 10,111 10,111 10,110 10,110 10,110 10,110 10,110 10,109 10,109 10,109 10,109 9,109 9,109 9,109 9,109 9,108 9,108 9,108 10,107 10,107 10,107 10,106 10,106 11,106 11,106 11,105 12,105 12,105 11,105 11,105 11,104 11,104 11,104 11,104 11,104 11,104 11,104 11,103 11,103 10,103 10,103 7,102 6,101 6,100 7,99 7,98 6,97 6,96 3,96 1,95 0,94 0,93 0,92 1,91 2,91 3,90 4,89 5,88" id="2814" class="canton" fill="steelblue" stroke-width="1" stroke="white" geotype="canton" geoname="Saint-Lubin-des-Joncherets" code_insee="2814" code_departement="28" nom_departement="Eure-et-Loir" code_region="24" nom_region="Centre-Val de Loire"/></svg>