<?xml version="1.0" encoding="utf-8"?>
<svg version="1.1" id="svgmap" xmlns="http://www.w3.org/2000/svg" xmlns:xlink="http://www.w3.org/1999/xlink" x="0px" y="0px" width="100%" height="100%" viewBox="0 0 500 290">
<polygon points="31,57 33,57 34,57 35,57 39,57 41,57 47,57 48,57 51,57 55,57 57,57 66,57 68,57 69,57 70,58 71,58 72,59 73,60 74,61 76,63 77,66 78,71 78,74 79,74 79,76 80,76 81,79 84,78 86,78 90,78 93,78 95,78 97,78 98,78 103,78 106,78 108,77 109,77 110,77 112,77 112,76 112,76 112,75 113,74 113,73 113,72 112,70 112,68 110,64 108,62 108,61 108,61 107,58 107,58 105,51 105,50 105,49 105,46 105,45 105,43 107,37 109,32 109,32 109,31 110,30 110,29 112,26 113,23 113,22 114,21 114,20 115,19 115,17 115,15 115,15 115,13 115,12 114,9 113,9 113,7 113,7 113,6 114,6 121,5 127,5 134,4 145,3 168,0 171,0 171,2 171,6 171,9 170,11 170,14 170,15 170,16 169,20 169,24 170,28 170,29 169,31 169,32 169,34 168,38 169,42 170,47 170,51 171,56 171,57 170,58 170,58 171,59 171,61 172,62 173,61 183,59 184,59 189,58 191,57 197,55 211,52 214,51 220,49 235,46 241,44 250,42 258,40 260,39 261,39 264,38 269,40 271,41 272,41 273,42 276,42 278,42 279,43 282,42 283,42 284,42 285,42 285,43 286,43 287,43 288,44 289,44 290,44 291,45 295,45 303,45 306,45 308,45 309,45 310,46 311,46 315,48 318,51 318,54 319,56 321,58 321,59 322,61 323,63 323,66 323,67 322,68 319,69 316,70 314,72 314,75 315,76 316,80 317,82 318,84 319,87 322,89 325,93 330,100 339,108 344,111 369,123 375,126 387,128 410,139 419,145 423,149 427,153 430,159 436,168 445,164 447,163 450,166 453,170 455,171 464,171 466,170 469,170 471,169 473,170 485,170 494,173 499,178 500,180 500,181 500,182 500,184 500,184 499,186 500,187 499,189 500,189 499,191 499,191 499,193 496,201 488,202 488,204 487,204 487,204 488,204 487,206 486,206 486,206 487,206 486,208 485,208 485,208 486,208 484,210 484,210 484,210 484,210 482,212 482,212 482,212 482,212 482,212 482,212 482,212 482,212 482,212 481,214 481,214 481,214 481,214 480,214 479,215 480,215 480,216 480,216 474,221 473,221 460,222 454,223 452,229 443,255 440,261 438,267 438,268 436,269 420,276 418,277 380,281 378,281 376,280 358,272 349,267 341,263 331,259 326,256 324,256 323,255 321,254 320,254 319,254 318,254 318,254 317,255 317,255 315,257 315,257 317,258 290,284 289,284 289,284 288,284 288,284 288,283 288,283 289,283 290,283 291,282 288,280 283,278 310,253 303,250 279,272 276,275 274,276 274,276 274,276 274,277 273,277 273,277 272,277 272,276 272,276 272,276 272,276 272,275 273,275 274,274 273,274 272,273 271,273 270,272 270,272 268,271 293,247 296,248 300,245 299,244 296,243 281,237 281,237 279,236 278,236 277,236 277,236 277,236 278,236 277,237 277,236 277,236 277,236 276,236 275,236 271,236 269,237 268,237 267,238 268,239 252,254 248,258 245,257 244,258 244,258 243,258 243,259 242,258 240,257 240,256 241,254 242,253 242,253 262,235 262,234 263,234 263,233 263,232 262,232 262,231 261,231 260,231 259,231 258,232 257,232 257,233 238,250 238,251 237,251 237,251 237,251 232,248 231,248 231,248 231,248 231,248 231,248 231,249 231,249 231,249 231,249 231,249 231,249 230,249 230,250 230,250 230,250 231,252 231,252 231,252 230,252 230,253 228,252 228,252 227,251 226,249 222,248 218,247 216,247 214,250 216,251 177,288 153,290 152,290 152,290 151,289 149,288 149,288 147,287 147,287 146,286 146,286 145,286 145,286 145,286 143,284 143,284 143,284 143,283 143,283 143,283 143,283 143,282 143,282 146,271 148,272 149,268 149,267 148,267 147,267 143,267 143,267 141,267 148,236 148,234 149,230 150,228 155,224 157,222 157,221 158,218 158,216 158,215 157,213 157,212 157,211 156,210 155,208 155,207 155,206 154,206 152,207 151,208 151,212 151,213 151,214 151,214 150,215 149,215 148,215 146,215 146,215 146,215 137,216 133,216 129,216 128,216 127,212 125,207 125,207 125,206 123,199 122,194 120,187 118,180 117,177 116,172 113,163 113,162 113,162 113,161 109,158 109,158 109,158 102,153 100,152 99,151 94,148 92,146 91,145 90,142 89,140 88,139 86,137 85,136 81,141 76,139 70,137 68,139 65,143 64,144 62,146 59,148 54,152 50,147 49,145 45,143 44,143 38,140 36,139 32,138 26,135 24,136 20,139 17,140 13,144 5,148 4,149 3,150 0,151 0,149 0,145 1,141 1,141 1,138 2,133 2,131 2,130 2,129 2,126 2,124 2,121 2,120 2,119 3,118 4,116 5,114 5,113 4,109 4,109 6,108 7,108 12,105 13,104 15,103 17,102 19,102 21,102 26,102 29,102 32,102 35,101 38,101 39,101 38,98 38,95 37,88 37,87 36,86 36,82 35,80 34,73 34,72 34,72 33,67 32,60 32,58 31,57" id="2905" class="canton" fill="steelblue" stroke-width="1" stroke="white" geotype="canton" geoname="Brest-5" code_insee="2905" code_departement="29" nom_departement="Finistère" code_region="53" nom_region="Bretagne"/></svg>