<?xml version="1.0" encoding="utf-8"?>
<svg version="1.1" id="svgmap" xmlns="http://www.w3.org/2000/svg" xmlns:xlink="http://www.w3.org/1999/xlink" x="0px" y="0px" width="100%" height="100%" viewBox="0 0 500 382">
<polygon points="489,177 489,178 490,181 492,191 493,199 493,199 493,201 495,211 495,215 497,220 497,221 497,223 499,235 500,239 500,243 498,243 494,244 490,244 486,244 481,244 473,244 470,245 466,245 464,246 461,247 459,249 452,254 450,254 447,255 448,255 449,261 449,263 447,266 445,268 444,270 444,272 444,273 444,278 444,281 444,286 444,287 444,288 444,292 443,299 443,304 442,305 442,311 441,316 441,319 433,319 424,318 423,320 422,321 421,322 419,323 417,325 413,327 409,329 405,333 399,339 397,340 396,341 394,342 393,343 384,348 381,349 371,356 361,361 358,364 357,365 357,365 357,366 357,367 358,368 359,369 361,370 308,381 300,382 300,382 299,380 300,377 306,371 315,362 317,357 316,353 305,344 301,342 295,342 290,343 282,346 267,352 261,353 254,353 246,351 241,349 228,339 225,337 219,336 218,337 215,339 197,348 194,350 190,352 190,352 189,353 188,352 188,352 186,351 183,352 180,351 166,341 159,338 155,337 149,336 142,336 131,337 123,335 117,334 114,332 111,330 108,328 105,325 104,324 104,322 105,320 106,316 107,312 107,308 107,305 106,302 105,300 102,296 97,292 91,285 86,281 79,278 70,276 43,264 36,261 31,256 28,249 28,241 24,237 15,235 12,233 13,228 7,221 3,213 3,199 1,182 0,177 6,173 15,170 18,169 20,169 26,168 33,167 34,166 35,165 36,163 38,162 39,161 41,161 42,161 44,162 46,162 46,162 48,162 50,162 51,161 51,161 52,160 52,160 53,159 54,159 54,159 54,160 55,160 55,161 56,161 58,161 58,160 59,160 59,159 60,158 60,158 61,158 62,158 63,158 63,158 64,158 64,158 64,158 65,158 66,158 67,158 67,157 69,156 71,156 71,156 72,155 73,155 74,155 74,154 75,154 75,154 75,154 75,153 76,153 76,153 77,152 77,152 77,152 77,152 78,151 78,151 79,150 79,150 79,149 79,149 79,149 79,148 80,147 80,146 81,145 81,145 81,145 80,145 80,144 81,144 81,144 81,144 81,144 81,143 81,143 81,143 81,143 81,142 80,142 80,142 79,142 79,142 79,142 79,142 79,142 79,141 79,141 79,140 80,139 80,139 80,139 79,139 79,139 79,138 78,138 78,138 78,138 78,137 78,137 78,136 78,136 78,136 77,136 77,136 77,136 76,136 76,136 75,136 74,136 74,136 73,132 72,129 71,129 71,127 71,124 71,120 72,119 73,117 74,116 76,117 77,117 78,117 79,115 78,112 81,107 80,103 82,99 83,95 85,89 91,81 104,65 104,58 104,57 105,57 105,57 105,56 106,56 107,55 108,55 109,54 109,54 109,55 110,55 111,56 112,57 112,57 113,57 113,57 114,56 117,54 118,53 119,53 121,52 122,51 124,49 125,48 126,47 127,44 128,43 128,42 128,41 127,39 127,38 126,36 125,34 125,34 125,33 125,33 125,33 126,32 126,31 126,30 125,29 124,28 124,27 124,26 124,26 123,26 123,25 123,24 123,23 123,22 123,22 123,21 123,20 122,19 122,19 122,18 122,18 122,17 122,17 121,16 121,16 120,15 120,15 120,14 120,12 120,10 121,7 121,5 121,3 122,2 123,2 125,6 127,13 129,15 132,17 135,19 137,20 139,20 142,21 146,20 156,16 158,15 163,12 164,11 170,7 172,7 176,5 179,4 186,2 194,0 202,0 210,0 213,1 216,1 228,4 233,4 236,4 244,3 250,5 260,7 266,9 269,12 271,14 274,17 279,19 285,20 292,19 297,18 305,17 310,16 324,15 330,14 333,23 334,25 336,27 344,32 350,36 358,48 364,59 365,62 367,65 376,73 378,75 379,76 380,78 381,78 382,78 384,78 387,79 396,81 397,82 400,82 401,82 401,81 401,80 401,79 401,78 402,77 403,77 405,76 406,76 407,76 409,77 430,78 436,78 452,80 460,81 468,82 471,102 472,111 472,112 472,119 474,127 474,133 475,139 476,149 476,153 477,156 479,159 480,160 484,164 485,167 488,175 489,177" id="2901" class="canton" fill="steelblue" stroke-width="1" stroke="white" geotype="canton" geoname="Brest-1" code_insee="2901" code_departement="29" nom_departement="Finistère" code_region="53" nom_region="Bretagne"/></svg>