<?xml version="1.0" encoding="utf-8"?>
<svg version="1.1" id="svgmap" xmlns="http://www.w3.org/2000/svg" xmlns:xlink="http://www.w3.org/1999/xlink" x="0px" y="0px" width="100%" height="100%" viewBox="0 0 500 341">
<polygon points="316,16 317,17 317,17 317,17 317,17 318,17 318,17 318,18 319,19 319,19 318,19 318,19 318,19 317,18 317,18 316,18 316,18 316,19 316,19 316,19 315,19 315,19 315,19 315,19 315,19 314,19 314,19 313,19 313,19 312,19 312,19 312,19 312,19 312,19 312,19 312,19 312,19 312,20 311,20 311,20 311,20 311,20 311,21 311,21 311,21 311,22 311,22 311,23 312,23 312,23 312,24 312,24 313,25 313,25 313,25 312,25 312,25 312,25 312,25 311,25 311,25 310,25 310,25 310,25 310,26 310,26 310,26 309,26 309,26 309,26 309,27 309,27 309,27 309,27 309,27 309,27 309,27 309,27 309,27 309,28 309,28 308,28 308,28 308,28 308,28 308,28 308,28 308,28 307,28 307,28 307,28 307,29 307,29 307,29 306,29 306,29 306,29 306,29 306,29 306,29 305,29 305,29 305,29 304,29 304,29 304,29 303,29 303,30 303,30 303,30 303,30 303,30 303,30 303,30 303,30 303,30 303,30 303,31 303,31 303,31 303,31 303,31 303,31 303,31 303,31 303,31 303,31 303,31 303,31 303,31 303,31 303,31 303,32 303,32 303,32 303,32 303,33 303,33 303,33 303,33 303,33 303,33 303,34 302,34 302,34 302,34 302,34 302,35 302,35 302,35 302,35 302,35 302,35 302,35 302,35 302,36 302,36 302,36 302,36 302,37 302,37 302,37 303,37 303,37 303,37 303,37 303,37 303,37 303,37 303,38 303,38 303,38 302,38 302,38 302,38 302,38 303,38 303,38 302,39 302,39 302,39 302,39 302,39 302,39 302,39 302,39 302,39 302,39 302,39 302,39 302,39 302,39 302,39 301,39 301,39 301,39 301,40 301,40 301,40 301,40 301,40 301,40 301,40 301,40 301,40 301,40 301,40 301,40 301,40 301,41 301,41 301,41 301,41 301,41 301,41 301,41 301,41 302,41 302,41 302,42 302,42 301,42 301,42 301,42 301,42 301,42 301,42 301,42 301,42 301,42 301,43 301,43 301,43 301,43 300,43 300,43 300,43 300,43 300,43 300,43 300,44 300,44 300,44 300,44 299,44 299,44 299,44 299,44 299,44 299,44 298,44 298,44 298,44 298,44 298,45 298,45 298,45 298,45 297,45 297,45 297,45 297,45 297,45 297,45 297,45 297,45 297,45 297,45 297,45 297,45 297,46 297,46 297,46 297,46 297,46 297,46 297,46 297,46 297,46 296,46 296,46 295,47 295,47 295,47 294,48 294,48 294,48 294,48 294,48 294,48 294,48 293,48 293,48 293,49 293,49 293,49 293,49 293,49 292,49 292,50 292,50 292,50 291,50 291,50 291,50 291,50 291,50 290,50 290,50 289,50 289,51 290,51 289,51 289,51 289,51 289,51 289,51 289,51 290,51 290,51 290,51 290,52 290,52 290,52 291,52 291,52 292,52 292,52 292,52 292,52 293,52 293,52 293,52 293,52 293,52 294,52 294,52 294,52 294,52 295,52 295,52 295,52 295,52 295,52 296,52 296,52 296,52 296,52 296,52 296,52 296,52 297,52 297,52 297,52 297,52 297,52 297,52 297,52 298,52 298,52 298,52 298,52 298,51 298,51 298,51 299,51 299,51 299,51 299,51 299,51 299,51 299,51 300,51 300,51 300,51 300,51 300,51 300,51 300,51 300,51 300,51 300,51 301,50 301,50 301,50 301,50 301,50 301,50 302,50 302,50 302,50 302,50 302,50 303,51 303,51 304,51 304,51 304,51 304,51 305,51 305,52 306,52 306,52 306,52 306,51 306,51 306,52 306,52 306,52 306,53 306,53 305,55 305,55 306,55 306,55 306,56 306,56 306,57 306,57 306,57 306,57 306,57 305,58 305,58 305,58 305,58 305,58 305,58 305,59 306,59 306,59 306,60 305,60 305,60 305,60 305,61 305,61 305,61 306,61 306,61 306,61 306,61 305,62 305,62 305,63 305,63 305,63 305,65 305,65 306,65 306,65 306,65 306,66 306,66 306,66 306,66 306,66 306,66 306,66 306,66 307,66 307,66 308,67 308,67 308,67 309,67 309,67 309,67 310,68 310,68 313,68 313,68 313,68 313,70 313,70 313,71 313,71 313,71 313,71 314,71 314,71 314,71 314,71 314,70 314,70 314,70 314,70 315,70 316,70 316,70 317,70 317,70 317,70 317,69 318,68 318,68 320,68 320,68 321,68 321,68 322,68 322,68 322,68 322,68 322,68 322,68 322,68 322,68 323,67 323,67 324,67 324,67 324,67 324,67 325,67 325,66 325,66 325,66 326,66 326,66 326,66 326,66 326,65 326,65 326,65 326,65 327,65 327,65 327,65 327,65 327,65 328,65 328,65 328,65 329,65 329,64 329,64 329,64 329,64 330,65 330,65 331,65 331,65 331,65 331,65 331,65 332,64 332,64 332,64 333,64 333,64 333,64 333,64 333,64 334,64 334,64 334,64 335,65 335,65 335,65 335,65 335,65 336,65 336,66 336,66 336,66 336,66 336,67 336,67 336,67 335,67 335,67 334,67 333,68 333,68 333,68 333,68 333,68 332,68 332,68 332,68 332,68 332,68 332,68 332,68 330,69 330,69 330,69 329,69 329,69 329,69 328,69 328,69 328,69 328,69 328,69 327,69 326,70 326,70 326,70 327,70 327,70 327,70 327,71 327,71 328,71 328,71 328,71 328,71 328,71 328,71 327,72 327,72 327,72 327,72 327,72 326,72 326,72 326,72 326,72 326,72 326,72 326,72 326,73 326,73 326,73 326,73 326,74 326,74 326,74 326,74 326,75 326,76 325,77 325,77 325,77 325,78 325,78 325,78 325,79 325,79 325,79 325,79 325,80 325,80 325,81 325,81 325,81 325,81 326,81 326,81 326,82 326,82 325,82 325,82 324,82 324,82 324,82 324,82 324,82 324,82 323,82 323,82 323,82 321,83 321,82 320,82 320,82 320,83 320,84 320,84 320,85 320,85 320,85 320,86 320,87 319,87 320,87 320,87 320,87 321,87 321,87 321,87 321,88 321,88 321,88 320,89 320,90 320,90 320,90 320,92 320,92 320,92 320,92 320,92 321,93 321,93 321,93 322,94 322,94 321,94 321,94 321,95 322,96 322,96 323,96 323,96 323,95 323,95 324,95 324,95 324,95 324,95 325,95 325,95 325,96 325,96 325,96 325,96 325,96 325,96 325,96 327,95 327,95 327,95 328,96 328,96 328,96 328,97 328,97 328,97 329,97 329,97 329,97 329,98 329,98 330,98 330,98 330,98 330,98 330,99 330,99 330,99 331,99 332,99 332,100 332,100 332,100 332,100 333,100 335,99 335,99 335,100 335,100 335,100 336,100 336,100 336,100 337,99 337,99 337,99 337,99 337,99 338,99 338,99 339,99 339,99 339,99 340,99 340,99 340,99 341,99 342,99 342,99 343,100 343,100 344,100 344,100 344,100 344,100 345,100 345,100 346,100 346,100 346,100 347,100 348,100 348,100 348,100 349,101 349,101 350,101 350,101 351,101 351,101 351,101 352,101 352,101 352,101 352,101 352,101 353,102 353,102 353,103 353,103 353,103 353,104 353,104 353,105 353,105 354,105 354,105 353,106 353,107 353,107 353,107 353,108 353,108 354,109 354,109 354,109 354,110 354,110 354,110 355,112 355,112 355,112 354,112 354,112 354,112 354,112 354,112 354,112 354,112 354,112 354,112 353,112 353,112 352,112 352,112 351,112 351,112 351,112 351,113 351,113 351,113 351,113 351,113 351,114 351,114 351,114 351,114 352,114 352,116 352,116 353,116 353,117 353,117 353,117 352,117 352,117 352,117 352,117 351,117 351,116 351,116 351,116 351,117 351,117 351,117 351,117 351,117 350,117 349,117 349,118 349,118 348,118 348,118 348,118 348,118 348,119 348,119 348,119 348,119 348,119 348,119 348,119 349,120 349,120 349,120 350,120 350,120 350,120 351,120 351,120 351,120 351,120 352,121 352,121 352,122 352,122 352,122 352,123 352,123 352,123 352,123 352,123 353,124 353,124 353,125 353,125 353,125 353,125 353,125 354,125 354,125 354,125 354,125 354,125 354,124 354,124 355,124 355,124 356,124 356,124 356,124 356,124 357,124 357,124 357,124 357,124 357,124 358,124 358,126 359,126 359,126 359,126 359,126 358,127 358,127 358,127 358,127 358,127 358,127 358,127 358,127 358,127 358,127 358,127 358,128 358,128 358,128 359,129 359,129 359,129 359,129 358,129 358,130 358,130 358,130 358,131 357,131 357,131 356,131 355,131 355,131 355,131 354,131 354,131 354,131 354,132 354,132 354,133 354,133 355,132 356,134 356,134 356,134 355,134 354,134 354,134 354,134 354,134 354,134 354,134 353,134 352,134 352,134 352,134 352,134 353,135 353,135 353,135 353,135 353,135 352,135 352,135 352,135 353,136 353,136 353,136 353,136 353,137 353,137 353,137 351,137 350,137 349,137 347,138 347,139 347,139 348,140 348,140 348,140 348,140 348,142 349,142 349,142 349,142 349,142 349,143 349,143 350,143 350,143 351,143 352,143 352,144 352,144 353,144 353,144 354,143 354,143 355,143 355,143 355,143 356,143 356,143 357,143 357,143 358,143 358,143 359,143 359,143 359,143 359,143 360,144 360,144 360,144 360,144 360,144 360,145 360,145 361,145 361,145 361,145 361,145 361,145 361,145 362,146 362,146 362,146 362,146 363,146 363,147 363,147 363,147 363,147 364,147 364,147 366,147 367,146 367,146 367,146 368,146 368,146 368,146 368,146 368,146 369,147 369,147 369,147 370,147 370,147 370,147 370,147 371,147 371,147 371,147 371,147 372,147 372,148 372,148 372,148 373,148 373,148 373,148 373,148 374,148 374,148 374,148 374,148 374,148 374,148 375,148 375,148 375,148 375,148 376,148 376,149 376,149 376,149 377,149 377,149 377,149 378,149 378,149 378,149 378,149 378,149 379,149 379,149 380,149 381,149 381,149 381,149 381,149 381,149 382,149 382,149 382,149 382,150 382,150 382,150 382,150 382,151 382,151 382,151 382,151 381,152 381,152 382,152 382,152 382,152 382,152 382,152 382,152 382,152 382,152 382,152 382,152 382,152 382,152 382,152 383,153 383,153 383,153 383,153 383,153 383,153 383,153 383,153 383,153 383,153 383,153 384,153 384,153 384,153 384,153 384,154 384,154 384,154 385,154 385,154 385,154 385,154 385,154 385,154 385,155 385,155 385,155 385,155 385,155 385,155 385,156 385,156 385,156 385,156 385,156 386,156 386,156 386,156 385,156 386,156 386,157 386,157 386,157 386,157 386,157 387,157 387,157 387,158 387,158 387,158 387,159 388,159 388,159 388,159 388,159 388,159 388,159 388,159 388,160 388,160 388,160 388,160 388,160 389,160 389,160 389,160 389,160 389,160 389,160 389,160 389,160 389,160 389,160 390,161 390,161 390,161 390,161 390,161 390,162 390,162 390,162 391,162 391,162 391,162 391,163 392,163 392,163 392,163 392,163 392,163 392,163 392,164 392,164 392,164 392,164 391,165 391,165 392,166 393,166 394,166 395,167 395,167 395,168 397,168 398,170 399,170 399,170 400,171 400,171 402,172 402,172 402,172 403,172 403,172 403,173 403,173 403,173 404,173 404,173 404,174 405,174 405,174 405,174 405,174 405,175 406,175 406,176 406,176 406,176 407,176 407,177 407,177 408,178 409,178 410,179 410,179 410,179 410,180 410,181 411,182 411,182 411,183 412,183 413,183 414,183 414,184 414,185 415,185 415,185 415,187 415,187 414,188 414,188 414,188 413,188 414,189 413,189 412,190 411,190 410,191 410,191 410,191 409,191 410,192 409,192 409,192 409,192 409,193 409,193 408,193 407,194 407,195 407,195 407,196 408,196 408,197 409,196 409,197 410,197 410,197 409,198 410,198 410,199 410,200 410,200 410,201 411,201 411,202 411,202 411,203 411,203 412,204 412,205 412,205 413,206 412,206 413,206 413,206 413,206 413,207 414,207 413,207 413,208 413,208 414,208 415,209 416,210 417,210 417,210 418,211 418,211 419,212 418,212 417,212 416,213 416,213 416,214 416,214 416,214 415,214 415,214 415,215 415,215 416,214 416,214 417,214 418,214 418,214 419,214 419,214 420,214 420,214 421,214 421,214 423,215 424,215 425,215 426,215 427,215 427,216 427,216 427,216 427,216 428,215 428,215 429,216 429,216 431,216 432,217 432,217 432,218 432,217 432,217 433,216 433,216 434,216 435,216 435,216 435,216 435,216 436,217 436,217 437,217 438,217 437,217 437,216 437,216 436,215 437,215 438,213 439,213 440,214 442,214 445,214 445,214 445,215 444,216 443,217 443,217 444,218 445,219 444,220 446,221 448,221 449,222 449,221 448,221 448,220 448,220 448,219 448,219 447,219 447,218 448,218 448,217 447,216 446,216 447,216 447,216 447,215 449,215 449,214 450,214 450,214 451,214 451,214 452,214 452,214 453,213 453,213 454,213 454,213 455,213 455,213 455,213 456,214 456,214 456,215 456,215 456,216 456,216 457,216 457,215 457,215 457,215 457,215 457,214 457,214 458,214 457,213 458,213 458,213 459,212 461,213 462,214 463,214 463,214 463,215 465,216 466,216 466,217 466,218 466,218 467,218 468,218 469,218 470,218 470,219 471,219 472,220 472,220 473,221 474,221 474,221 474,221 475,222 475,222 475,223 473,223 472,224 473,225 473,225 474,225 476,225 479,226 482,228 482,229 483,229 484,229 484,229 485,229 485,229 485,230 485,230 485,230 485,231 487,231 487,231 487,232 487,232 487,233 487,233 486,233 486,233 486,233 486,233 486,233 486,234 486,234 486,234 486,234 485,234 485,234 485,235 485,235 485,235 484,235 484,236 484,236 484,236 484,236 483,236 483,236 483,236 483,236 483,236 483,237 482,237 482,237 483,238 483,238 483,237 484,237 485,237 486,237 486,238 486,238 486,238 486,239 486,239 486,239 486,239 486,240 487,240 487,240 487,240 487,240 487,240 488,240 488,240 488,240 488,240 488,240 488,241 488,241 488,241 488,241 489,241 488,241 489,241 489,242 489,242 488,242 488,242 489,242 489,242 489,242 489,242 489,242 489,242 489,242 489,242 489,242 489,242 489,242 488,242 488,243 488,243 489,244 489,244 490,244 491,243 491,243 491,243 491,244 491,243 491,244 491,244 492,244 492,244 492,244 492,244 492,244 492,244 492,244 492,244 492,244 492,245 492,245 492,245 492,245 492,245 492,245 493,245 493,245 493,245 493,245 493,245 493,246 493,246 493,246 493,246 494,247 494,247 494,247 495,247 495,247 495,247 495,247 496,247 496,247 496,247 496,247 496,247 496,247 496,247 497,247 497,247 497,247 497,248 497,248 497,248 496,249 496,249 496,250 496,250 497,250 497,250 497,250 497,250 497,250 497,250 498,250 498,250 498,250 498,250 498,251 498,251 498,251 498,251 498,251 498,251 498,251 498,251 498,251 498,251 498,251 498,251 498,251 498,251 499,252 499,252 499,252 499,252 499,252 499,252 499,253 499,253 499,255 500,256 500,256 500,256 500,257 500,257 499,258 499,259 499,259 499,259 499,259 499,260 499,260 499,260 498,260 498,260 498,260 497,260 497,260 496,260 496,260 496,260 495,259 495,259 494,259 494,258 493,258 493,258 492,258 491,258 490,258 490,257 489,257 489,257 488,257 488,257 487,257 487,256 486,257 486,257 485,257 484,257 479,258 476,259 474,260 471,260 468,261 464,263 459,265 454,267 450,269 447,270 445,271 444,271 442,272 440,274 439,274 438,275 438,275 437,276 437,276 436,276 435,276 435,276 435,277 433,277 433,277 433,277 432,277 432,277 431,278 431,278 431,278 431,278 430,278 429,279 429,279 428,279 427,280 427,280 427,280 426,281 426,281 426,281 426,281 426,282 425,282 425,282 425,283 425,283 424,283 424,284 424,284 423,284 423,285 423,285 422,285 422,286 422,286 422,286 423,287 423,287 423,287 423,287 423,287 423,288 423,288 423,288 422,288 422,288 422,289 422,289 421,291 421,291 421,291 421,291 420,292 420,292 420,292 420,293 420,293 419,293 419,293 419,293 419,293 419,292 419,292 419,292 419,292 419,292 419,291 418,291 418,291 418,291 418,290 418,290 418,290 418,290 418,290 417,290 417,290 417,290 417,290 418,290 419,290 419,290 420,289 420,289 420,289 420,288 420,288 420,288 420,288 420,288 420,288 420,287 420,286 420,286 419,286 419,286 419,284 419,283 419,283 420,282 420,281 420,280 420,279 420,279 420,279 420,278 421,278 421,278 422,277 422,276 423,276 424,276 424,275 424,275 425,275 425,275 425,274 423,269 423,268 423,268 422,268 422,268 422,267 422,267 422,267 422,266 423,266 423,266 422,265 422,265 422,264 421,263 420,263 420,263 418,262 416,261 416,260 416,260 417,259 417,259 417,259 418,258 418,258 418,257 418,257 418,256 418,256 418,256 418,255 417,254 417,254 417,254 416,253 416,253 415,252 415,252 415,251 415,251 414,251 414,251 413,250 413,250 413,250 413,249 413,249 412,248 412,248 411,248 411,248 410,247 410,247 410,247 409,246 409,246 409,246 409,245 410,245 411,245 412,245 413,245 414,245 415,245 415,245 416,245 416,242 415,242 415,242 414,242 414,242 413,242 412,242 411,240 409,239 407,238 406,237 406,237 406,237 406,236 406,236 406,235 405,234 405,234 404,235 404,235 404,236 404,236 403,236 403,236 402,236 402,236 402,236 401,236 400,236 400,235 399,235 399,235 398,234 398,234 397,234 397,234 397,234 397,234 397,234 397,233 397,233 398,233 398,233 398,233 398,232 398,232 398,232 398,231 398,231 398,231 398,231 398,231 398,231 398,231 398,231 398,231 398,230 397,230 396,229 396,229 395,229 395,229 395,229 395,229 395,229 395,229 395,229 394,229 394,228 394,228 394,228 393,228 393,229 393,229 392,229 392,229 392,229 391,229 391,229 391,229 390,229 390,229 389,229 389,229 389,229 388,228 388,228 388,228 387,227 387,227 387,227 387,226 387,226 386,226 385,226 385,226 384,226 384,226 384,226 384,226 384,226 384,226 384,226 384,226 384,226 383,226 383,226 383,226 383,226 383,226 383,226 383,226 383,226 383,226 382,225 382,225 382,225 382,225 382,225 382,225 382,225 382,225 382,225 381,225 381,224 381,224 381,224 381,224 381,224 381,224 381,224 380,224 380,224 380,224 380,223 380,223 379,223 379,223 379,223 379,223 379,223 379,223 379,223 379,223 379,223 378,223 378,223 378,223 378,223 378,223 378,223 377,223 377,223 377,223 377,223 377,222 377,222 377,222 377,222 377,222 377,222 376,222 376,222 376,222 376,222 376,223 376,223 376,223 376,222 376,222 376,222 376,222 375,222 375,222 375,223 375,223 375,223 375,223 375,222 375,222 375,222 375,222 375,223 375,223 375,222 374,223 374,223 374,222 374,222 374,222 374,223 374,222 373,222 373,223 373,223 373,222 373,222 373,222 373,222 373,222 372,222 372,222 372,222 372,222 372,222 371,222 371,221 371,221 371,221 371,221 371,221 372,221 371,220 371,220 371,220 371,220 371,220 371,220 371,220 371,220 371,220 371,220 371,219 371,219 371,219 371,219 371,219 370,219 370,219 370,219 369,218 369,218 369,218 369,218 368,218 368,218 368,218 368,217 368,217 368,217 367,217 366,217 365,217 364,216 364,216 364,216 364,216 363,216 363,216 362,217 362,217 362,217 362,217 362,217 362,217 362,217 361,217 361,217 361,217 361,217 360,217 360,217 360,217 360,217 360,217 360,218 360,218 360,218 360,218 359,218 359,218 359,218 359,218 359,218 359,217 359,217 359,217 359,217 359,217 359,216 359,216 360,216 360,216 360,216 360,216 360,216 360,215 359,215 359,215 359,215 359,215 359,215 359,215 359,214 358,214 358,214 358,214 357,214 357,214 357,214 357,214 357,214 357,215 357,215 356,215 355,216 354,216 354,216 353,216 353,216 354,217 354,217 354,217 355,218 355,218 355,218 354,218 355,219 355,219 355,219 355,219 355,220 355,220 355,220 354,220 354,220 353,220 352,220 352,220 351,220 351,220 351,220 350,220 350,220 350,220 350,220 350,220 350,221 350,221 349,221 349,222 349,222 348,222 348,222 348,223 347,223 347,223 347,223 346,223 346,223 346,223 345,223 345,223 345,223 345,223 345,223 344,223 344,223 343,223 343,224 343,225 343,225 343,225 343,225 343,225 343,225 344,225 344,225 344,226 344,226 344,226 344,226 344,227 344,227 344,227 343,228 343,228 343,228 343,228 343,228 342,228 342,229 341,229 341,229 340,229 340,229 340,230 339,230 339,231 339,231 339,231 338,231 338,232 338,232 338,232 338,232 338,232 338,232 337,232 337,233 337,233 337,233 337,233 337,233 337,233 336,234 336,234 336,234 335,234 335,234 335,235 335,235 335,235 335,235 335,235 335,235 335,235 335,236 335,236 334,236 334,236 334,236 334,236 334,236 335,237 336,237 336,237 336,237 336,237 337,238 337,238 336,238 336,238 336,238 336,238 336,239 336,239 336,239 336,239 336,239 337,239 337,239 337,239 337,239 337,240 337,240 337,240 336,240 336,240 336,240 337,240 337,241 337,241 337,241 338,241 338,241 338,241 339,241 339,242 339,242 339,242 340,242 340,242 340,242 340,242 340,241 340,241 341,241 341,241 341,241 341,241 342,242 342,242 342,242 342,242 342,242 342,243 341,243 341,244 341,244 341,244 340,244 340,244 340,244 340,244 340,244 339,244 339,244 339,244 339,244 339,244 339,244 339,244 339,244 339,245 339,245 339,245 339,245 339,245 338,246 338,246 338,246 338,246 338,247 338,247 338,247 338,247 338,247 338,247 338,247 338,248 338,248 338,248 338,248 338,248 338,248 338,248 338,248 338,248 338,248 338,248 338,249 338,249 338,249 338,249 338,250 338,250 338,250 338,250 338,250 338,250 338,250 338,251 338,251 338,251 338,251 338,251 337,251 337,252 335,252 335,253 335,253 335,253 335,253 335,253 334,253 334,253 334,253 334,253 334,253 334,253 334,254 334,254 334,253 333,253 333,253 332,253 332,253 332,253 332,253 332,253 331,253 331,253 331,253 331,253 331,253 331,253 331,253 331,253 331,253 331,253 330,253 330,253 330,252 330,252 330,252 329,252 329,252 329,252 329,252 329,252 328,252 328,252 327,252 327,252 327,252 326,252 326,252 326,252 326,252 325,252 325,252 325,252 325,253 325,253 325,253 325,253 325,253 324,253 324,253 324,253 323,253 323,253 322,253 322,253 322,253 322,253 322,253 322,253 321,252 321,252 320,253 319,253 318,253 318,253 318,253 317,253 317,253 317,253 317,253 317,253 316,253 316,253 316,253 315,253 315,252 314,252 314,252 314,252 313,252 313,252 312,252 312,252 312,252 310,251 310,251 309,251 309,251 309,251 308,251 308,251 308,251 307,251 307,251 306,251 306,251 306,251 305,250 305,250 304,250 303,250 303,249 303,249 303,249 302,249 302,249 302,249 302,249 301,249 301,249 301,249 301,249 300,249 300,248 300,248 300,248 300,248 300,248 299,248 299,248 298,248 297,248 297,248 296,248 295,248 295,248 295,248 294,248 294,248 294,248 293,249 293,249 293,249 293,249 293,250 293,250 293,250 294,251 294,251 294,252 294,252 294,253 294,254 294,255 294,255 294,255 293,255 293,255 292,255 292,255 292,255 292,255 292,256 293,255 293,255 293,255 294,255 294,255 294,256 294,256 294,256 295,256 295,256 296,256 296,256 296,256 296,256 297,257 297,257 297,257 297,257 297,258 297,258 297,258 297,258 298,258 299,258 299,258 300,258 301,258 301,258 301,257 302,257 302,257 302,257 302,258 301,258 302,258 302,259 302,259 302,259 302,259 302,260 302,260 302,260 301,260 301,260 301,260 301,260 301,260 301,261 301,262 301,262 301,262 301,263 301,264 301,265 301,265 301,265 302,265 302,265 302,265 302,265 302,265 303,265 304,265 305,265 305,265 305,266 305,266 305,266 305,266 305,267 305,267 305,267 305,267 305,267 305,267 306,267 306,267 305,268 305,268 305,268 305,268 305,269 305,269 304,269 304,269 303,269 303,269 303,269 302,269 302,269 302,269 302,269 301,269 301,269 300,269 300,269 300,269 299,269 298,269 297,269 297,269 297,269 296,269 296,269 296,269 296,270 297,271 297,271 298,272 298,272 298,272 298,272 298,272 298,273 298,273 298,274 298,274 298,274 300,274 300,274 300,274 300,274 301,274 301,275 301,275 301,275 302,275 302,275 302,275 302,276 302,276 303,276 303,277 303,277 303,277 304,277 304,277 305,276 306,276 307,275 307,275 307,275 307,275 307,276 307,276 307,276 308,276 308,276 308,276 308,277 308,277 308,277 308,277 308,277 309,278 309,278 309,278 309,279 309,280 309,280 309,280 309,281 309,281 309,281 309,282 309,282 309,282 309,283 309,283 309,283 309,284 309,284 310,284 310,284 310,284 310,284 309,284 308,285 308,285 307,285 305,285 305,285 305,285 305,286 305,286 305,286 305,286 305,287 305,287 304,287 304,288 304,288 304,288 305,288 305,288 304,289 304,289 304,289 304,289 303,289 303,289 303,289 303,289 303,289 303,290 303,290 303,290 303,290 302,291 302,291 302,291 301,291 301,292 300,292 300,292 299,293 299,293 299,293 299,293 298,294 298,294 298,295 297,295 297,295 297,295 296,296 296,296 296,296 295,297 295,297 295,297 295,297 295,298 295,298 295,298 295,298 295,299 295,299 295,300 295,300 295,300 295,300 295,300 295,300 295,301 295,301 295,301 295,302 295,302 295,302 295,302 295,303 295,303 295,304 295,304 295,304 296,304 296,304 296,304 296,304 297,304 299,304 299,304 300,304 300,304 300,304 300,304 300,305 301,305 302,305 302,306 301,306 301,306 301,306 300,307 300,307 299,307 299,307 299,307 299,308 299,308 299,308 299,308 300,308 300,308 300,308 300,308 300,309 300,309 300,309 301,309 301,310 301,311 300,311 300,311 300,312 300,312 300,312 300,313 300,313 300,313 299,313 299,313 298,313 298,313 298,313 298,313 298,313 298,312 298,312 298,312 297,312 297,312 297,312 297,313 297,313 297,313 297,313 297,313 297,313 298,314 298,314 298,314 298,314 298,314 297,314 297,315 297,315 298,315 299,316 299,316 299,316 299,316 298,317 298,317 298,316 298,316 297,317 297,317 296,317 296,317 294,316 294,316 293,317 293,317 293,317 292,317 292,317 292,317 291,317 291,317 291,317 290,317 290,317 290,317 290,317 289,317 289,317 289,317 288,317 288,317 287,317 287,317 287,317 287,317 287,317 286,317 286,317 285,317 285,317 285,316 284,316 284,316 283,316 283,316 282,316 282,316 281,316 280,316 280,316 279,316 278,316 277,316 277,316 277,316 277,316 276,316 275,316 275,316 275,316 275,316 275,316 275,316 275,316 274,316 274,316 274,316 273,316 273,316 272,316 269,317 269,317 268,317 268,317 267,317 267,317 266,317 266,317 266,318 266,318 264,318 263,319 262,319 262,319 261,320 261,320 260,320 260,319 259,319 259,319 259,319 259,319 258,319 258,319 258,319 258,319 258,320 258,320 257,320 257,320 257,320 257,320 257,321 257,321 257,321 257,321 257,321 257,321 257,321 257,321 257,321 257,321 257,321 257,322 256,322 256,322 256,322 256,322 256,322 255,322 255,322 255,322 255,322 255,323 255,323 255,323 255,323 255,323 255,323 255,323 255,323 255,324 255,324 255,325 255,325 255,325 256,325 256,325 256,326 257,326 257,326 257,326 257,326 257,326 257,326 257,326 257,327 257,327 257,327 257,327 257,327 257,327 257,327 257,327 257,327 258,327 259,328 259,328 260,328 260,328 260,328 260,328 261,328 261,328 261,329 261,329 261,329 261,330 262,330 262,330 262,331 263,331 263,331 263,332 264,332 264,332 264,333 264,333 264,333 265,333 265,333 265,334 266,334 266,334 266,334 266,334 266,334 267,335 267,335 267,335 267,335 267,336 267,336 266,336 266,336 266,336 267,337 267,337 267,337 267,337 267,337 267,337 267,337 268,337 268,337 268,337 268,338 268,338 268,338 268,338 269,338 269,338 267,339 266,339 265,339 265,338 265,338 264,338 264,338 263,339 262,339 262,339 262,339 260,339 259,339 258,339 258,340 257,340 257,340 256,339 255,340 255,340 255,340 254,340 254,340 254,340 254,340 253,341 252,341 251,341 251,341 250,341 250,341 249,341 248,341 247,340 247,340 246,340 246,340 246,339 246,339 246,339 246,339 245,339 245,339 245,339 245,339 245,339 244,339 244,339 244,339 244,339 244,339 244,339 243,339 243,339 243,339 243,339 243,339 243,339 242,339 242,339 242,339 242,339 242,339 241,339 241,340 241,340 241,340 241,340 240,340 240,340 240,340 240,340 240,340 239,340 239,340 239,340 238,340 238,340 238,340 238,340 238,340 237,340 237,340 237,340 237,340 237,340 237,340 237,340 236,339 236,339 235,339 235,339 235,339 235,340 235,340 234,340 234,339 233,339 233,338 232,338 231,337 231,337 231,337 231,338 231,338 230,338 230,338 230,338 230,337 229,337 229,337 228,336 228,336 228,336 228,336 228,336 228,336 229,335 229,335 229,335 229,334 229,333 229,333 229,333 229,333 229,333 228,332 228,332 227,331 227,331 227,331 226,330 226,329 225,329 225,329 225,329 225,328 225,328 225,328 226,327 226,327 226,327 226,327 226,327 226,327 226,326 226,326 227,326 227,326 227,325 227,325 227,325 227,325 227,325 226,325 226,324 226,324 226,324 226,323 226,323 226,323 226,323 226,322 227,322 226,322 226,321 226,321 226,321 226,321 226,321 226,321 224,321 224,321 223,321 223,321 223,321 222,321 221,321 220,320 220,320 219,320 219,320 218,319 217,319 217,319 217,319 217,319 217,319 216,319 216,319 216,319 215,319 215,319 214,319 213,319 213,319 213,319 212,319 211,319 212,320 212,320 212,320 212,320 212,320 212,320 212,320 211,320 211,321 211,321 210,321 210,321 210,321 210,321 209,320 209,320 209,320 209,320 208,320 208,320 208,320 208,320 208,319 208,319 209,319 209,319 210,319 210,319 210,319 210,319 210,319 210,319 210,319 210,319 210,319 210,319 211,319 211,319 211,319 211,319 211,318 211,318 212,318 212,318 212,318 212,318 213,318 213,318 213,318 213,318 213,317 212,317 212,317 212,317 212,317 213,316 213,315 213,315 213,315 213,315 213,315 213,315 213,315 212,315 211,315 210,315 210,315 210,315 209,315 209,316 209,315 209,315 209,315 209,316 209,316 208,316 208,316 208,316 208,316 208,316 207,315 207,315 207,315 207,314 207,314 207,314 207,314 206,314 206,313 206,313 206,313 206,313 206,313 205,312 205,312 205,312 205,312 205,312 204,312 204,311 204,311 205,311 205,311 205,311 206,310 206,310 206,310 206,310 206,309 206,309 206,309 206,308 206,308 206,308 206,308 206,308 206,308 205,309 204,309 204,309 203,309 202,309 202,309 201,309 201,310 200,310 200,310 200,310 200,310 200,310 199,310 199,310 199,310 199,310 199,310 198,309 198,309 198,309 197,309 196,310 196,310 196,310 196,310 195,310 195,310 195,310 195,311 194,311 194,311 194,311 194,311 194,311 194,312 194,312 194,312 193,312 193,312 193,312 193,312 193,312 193,312 192,312 192,312 192,313 192,313 192,313 191,313 191,313 191,313 191,313 191,313 191,313 191,313 191,313 191,313 191,313 191,313 191,313 191,313 191,313 190,313 190,313 189,313 189,313 189,313 189,313 189,313 189,313 189,313 188,313 188,313 188,313 188,313 188,313 188,313 188,313 188,313 188,313 187,313 187,313 187,313 186,313 186,313 186,313 186,313 186,313 186,312 186,312 185,312 185,312 185,312 184,312 184,312 183,312 183,312 183,312 183,312 183,312 182,312 182,312 181,312 179,311 178,311 177,310 177,310 175,310 175,309 174,309 173,309 173,309 172,309 171,308 171,308 170,308 170,308 169,308 169,307 169,307 167,307 166,306 165,306 165,306 163,306 164,305 164,305 164,304 165,304 165,303 166,303 166,302 166,302 167,302 167,302 166,301 166,301 166,300 166,300 166,300 166,299 166,299 166,299 166,299 166,299 166,298 166,298 165,298 165,298 165,297 164,297 164,297 164,297 164,297 164,297 164,297 163,296 163,296 163,296 163,296 162,296 162,296 162,296 162,296 162,296 161,296 161,296 160,296 160,296 160,296 160,296 160,296 160,296 160,296 160,296 160,296 160,296 160,296 159,296 159,296 159,296 159,296 159,296 159,296 158,296 158,297 158,296 158,297 158,297 157,297 156,297 156,297 156,297 156,297 156,297 156,297 156,296 156,296 156,296 156,296 157,296 157,296 157,296 157,296 157,296 157,296 157,296 157,295 157,295 158,295 158,295 158,295 158,295 158,295 158,295 158,295 158,295 158,296 158,296 158,296 159,296 159,296 159,296 159,296 159,296 160,296 160,296 160,296 160,295 160,295 160,295 160,295 160,295 160,295 160,295 161,296 161,296 161,296 161,296 161,295 161,295 161,295 161,295 161,295 161,295 162,296 162,296 162,296 162,296 162,295 162,295 162,295 162,295 162,295 162,295 162,295 162,295 163,295 163,295 163,295 163,295 163,295 163,295 163,295 163,295 163,295 163,295 164,295 164,295 164,295 164,295 164,295 164,295 164,295 164,295 164,295 165,295 165,296 165,296 166,295 166,295 166,295 166,295 167,295 167,295 168,294 168,292 168,292 168,292 168,292 168,292 168,292 168,292 168,291 168,291 168,291 168,290 168,289 168,288 168,286 168,285 167,285 167,283 167,282 166,281 166,280 166,279 166,279 165,277 164,275 164,274 164,274 164,273 163,272 163,271 163,270 163,269 162,269 162,268 161,267 161,266 161,265 160,264 160,263 160,262 160,261 159,259 159,258 159,258 158,255 157,254 157,253 157,252 156,251 155,251 155,251 155,249 156,249 156,249 155,248 154,247 154,246 153,246 153,245 152,243 152,241 150,239 150,239 150,238 149,237 149,235 148,235 148,233 148,233 148,232 147,230 146,230 146,228 145,229 145,228 145,227 145,227 145,225 143,224 144,223 140,223 138,220 137,218 137,216 137,215 127,199 125,195 120,188 115,179 111,174 107,170 102,165 99,163 97,161 96,161 96,160 96,159 96,159 96,158 96,158 95,158 93,156 92,154 89,152 88,151 87,151 87,151 86,150 86,150 87,151 87,151 88,151 87,150 87,150 86,149 86,149 86,150 86,150 86,150 83,149 82,148 81,148 80,147 79,146 78,146 78,145 78,144 77,142 77,141 75,138 75,137 73,136 72,136 71,135 72,134 71,133 68,128 66,125 66,124 65,123 63,122 62,121 61,120 59,118 58,118 57,117 56,116 55,116 54,116 53,116 53,116 51,114 50,114 49,113 48,113 47,112 46,111 45,110 44,110 43,109 43,109 41,107 41,107 41,107 39,106 36,105 36,105 35,104 35,104 34,103 33,103 30,103 29,102 28,102 28,102 28,101 26,100 25,98 23,97 23,96 22,95 20,92 19,92 18,91 17,91 16,91 14,90 13,90 11,90 9,89 8,88 5,87 3,87 2,86 2,86 1,86 1,86 2,86 2,86 3,85 2,85 1,85 0,85 1,86 1,86 0,86 0,86 0,86 0,86 0,86 0,85 0,85 1,85 1,85 1,85 1,85 1,85 1,85 3,84 3,85 3,85 3,84 4,84 4,84 4,83 4,83 4,83 4,82 4,82 4,82 5,82 6,82 6,82 6,81 7,81 7,81 7,81 7,81 7,81 7,81 7,81 7,81 7,80 7,80 7,80 7,80 7,79 7,79 7,79 8,79 8,79 8,79 8,79 9,79 9,79 10,79 10,79 10,79 11,78 12,78 12,78 12,78 12,78 13,78 14,78 14,78 14,78 14,77 14,77 15,77 15,77 15,77 15,77 16,77 16,77 17,77 17,77 17,77 19,77 19,77 20,76 20,76 20,76 21,76 21,75 21,75 21,75 21,75 21,75 21,74 22,73 22,73 22,72 23,72 23,72 24,72 25,72 26,72 26,72 28,72 28,71 28,71 28,71 29,71 30,71 31,71 32,70 33,70 34,70 35,70 36,70 36,70 37,70 38,70 39,69 38,69 38,68 38,68 39,68 39,68 39,67 39,67 39,67 40,66 40,66 41,66 41,65 41,65 41,65 41,65 41,65 40,65 40,65 41,64 41,64 41,64 40,64 40,63 40,63 40,62 40,62 40,62 41,62 42,62 42,62 42,62 42,62 43,62 43,62 43,62 43,62 43,62 43,63 43,63 43,63 44,62 44,62 45,62 45,62 45,62 46,62 46,63 47,63 47,63 47,63 47,63 47,62 47,61 47,61 47,60 47,60 47,60 47,58 47,58 47,58 47,58 47,58 47,57 47,57 47,56 47,56 46,56 46,56 46,55 46,55 46,55 47,55 47,55 47,55 47,55 47,55 47,54 47,54 47,54 47,54 47,54 47,54 47,53 47,53 47,53 47,53 48,53 48,53 48,52 47,52 47,52 47,52 48,52 48,52 48,51 48,51 48,51 48,51 48,51 48,51 48,51 48,51 49,51 49,51 49,51 49,51 49,51 49,51 49,51 49,51 49,51 50,51 50,51 50,51 50,51 50,51 51,51 51,51 51,51 51,51 51,50 51,50 51,50 51,50 51,50 51,50 51,50 51,50 52,50 52,50 52,50 52,50 52,50 52,50 52,50 53,50 53,50 53,50 53,50 53,50 53,50 53,50 54,50 54,50 54,50 54,50 54,50 55,50 55,51 55,51 55,51 55,51 55,51 55,51 55,51 56,51 56,51 56,51 56,52 56,52 56,52 56,52 56,52 56,52 56,52 56,52 56,52 56,52 56,52 57,52 57,52 57,53 57,53 57,53 57,53 57,53 57,53 58,53 58,53 58,53 58,54 58,54 58,54 59,54 59,54 59,54 59,54 59,54 60,54 60,54 61,54 61,54 61,54 61,54 62,55 62,55 62,55 62,55 62,55 63,55 63,55 63,55 64,55 64,55 64,55 64,55 64,55 64,55 64,55 65,55 65,55 65,56 65,56 65,56 65,56 65,56 65,56 66,56 66,56 66,56 66,56 66,57 66,57 66,57 66,57 66,57 66,57 66,57 66,57 66,57 66,57 67,57 67,57 67,57 67,57 67,57 67,57 67,58 67,58 67,58 67,58 67,58 67,58 67,58 67,58 67,58 67,58 67,59 67,59 68,59 68,59 68,59 68,59 68,59 68,59 68,59 68,59 68,59 68,59 68,59 68,59 68,59 68,60 68,60 68,60 68,60 68,60 69,60 69,60 69,60 69,60 69,60 69,60 69,60 69,60 69,60 69,60 69,61 70,61 70,61 70,61 70,61 70,61 70,62 70,62 70,62 70,62 70,62 70,62 70,62 70,62 70,62 70,62 70,62 71,62 71,62 71,62 72,62 73,62 73,62 73,61 74,61 74,61 75,61 75,61 75,61 75,61 76,61 76,61 77,61 77,61 78,61 78,61 79,60 79,60 80,60 80,60 81,60 81,60 84,60 84,60 84,60 85,60 85,60 85,59 85,59 85,58 85,58 85,57 85,57 86,57 87,56 87,56 88,56 88,56 88,56 88,56 89,56 89,56 90,56 90,56 90,56 90,56 90,56 91,56 91,56 91,56 91,56 91,55 92,55 92,55 93,55 93,55 92,55 93,55 93,55 94,55 95,55 95,55 96,55 97,55 98,55 99,55 101,54 101,54 101,55 101,55 101,55 102,54 102,54 102,54 102,54 102,54 102,54 102,53 102,53 102,53 103,53 103,53 103,53 103,53 103,52 103,52 104,51 104,51 104,51 104,51 104,51 104,51 104,51 105,51 105,51 105,51 105,51 106,51 106,51 106,51 106,51 107,50 107,50 107,50 108,49 108,48 108,47 108,47 108,47 108,47 109,46 109,46 109,45 109,45 109,44 108,44 108,43 108,43 108,42 107,42 107,40 106,39 108,39 107,38 107,37 107,37 105,37 104,36 104,36 106,35 106,33 106,33 106,33 105,33 105,33 104,33 104,33 105,32 106,30 106,30 106,29 106,29 108,30 108,29 108,27 109,25 108,25 108,24 106,24 106,24 106,24 106,24 105,24 105,23 105,23 104,23 104,22 104,22 104,22 104,22 103,22 103,22 103,22 103,21 103,21 102,21 102,21 102,21 103,21 103,21 103,21 103,20 104,20 105,20 106,20 107,20 108,20 109,21 110,20 112,20 113,20 114,20 114,19 113,17 113,17 113,16 113,15 113,15 113,15 112,14 112,14 112,14 113,14 114,14 113,13 113,12 112,12 110,12 109,12 109,12 108,11 109,11 109,10 109,10 111,10 113,10 114,11 114,11 113,11 114,12 114,12 116,12 117,12 117,12 118,12 118,12 117,12 117,12 117,13 117,13 118,13 118,13 117,13 117,13 118,13 118,14 118,14 119,14 119,14 120,14 120,14 120,14 121,15 122,15 122,15 123,15 123,15 124,15 125,15 125,15 125,15 126,15 126,15 126,15 127,15 128,15 128,15 128,15 129,15 130,15 130,15 131,15 131,15 132,15 132,15 132,15 132,15 132,15 133,15 134,16 134,15 135,16 135,16 135,16 136,17 136,18 137,18 136,18 136,19 135,19 135,20 135,20 135,20 136,24 136,25 137,25 136,26 136,26 136,27 136,27 137,27 137,27 137,27 137,27 138,27 138,27 138,28 139,27 139,28 139,28 139,28 140,28 140,28 141,28 141,29 141,29 142,29 142,29 142,29 142,29 142,29 143,30 144,30 145,30 145,30 145,30 147,30 147,30 147,30 148,30 148,30 149,30 150,29 150,29 151,29 151,30 152,29 153,30 153,30 153,30 154,30 154,30 156,30 156,30 156,30 156,29 156,29 156,29 157,29 157,29 158,29 158,29 159,29 160,29 160,29 161,29 161,29 161,29 161,29 162,29 162,29 163,30 164,30 164,30 165,30 165,30 165,30 166,30 166,30 166,30 167,30 167,30 168,30 168,30 169,30 169,31 170,31 171,31 172,30 172,31 172,31 173,31 173,30 174,30 174,30 175,30 175,30 175,30 176,30 176,30 177,30 177,31 177,31 178,31 178,31 178,31 178,32 179,32 179,32 180,32 180,32 181,32 181,32 181,32 181,32 183,32 183,32 184,32 186,31 187,31 188,30 188,30 188,31 188,31 189,31 189,31 189,31 189,30 189,30 190,31 190,31 190,31 191,31 191,31 191,31 191,31 191,31 191,32 191,32 191,32 191,32 192,32 192,32 192,32 192,32 192,32 192,32 192,32 193,32 193,32 193,33 193,33 193,33 194,33 194,33 194,33 195,33 195,33 195,33 195,33 196,33 196,33 196,33 196,33 197,33 197,33 197,33 198,33 198,33 198,33 198,33 199,33 199,33 199,33 199,33 200,33 200,33 200,33 200,33 200,33 200,33 200,33 200,33 200,33 201,33 201,33 201,32 202,32 202,32 203,33 203,33 203,33 203,33 203,32 203,32 204,32 204,32 204,32 204,33 204,33 204,33 204,33 205,33 205,33 205,33 205,33 205,33 205,33 205,33 205,33 206,33 206,33 206,33 207,33 207,33 207,33 207,33 207,33 207,33 207,33 207,33 208,33 208,33 208,33 208,33 209,33 209,33 209,33 209,33 209,33 209,33 210,33 211,34 211,34 211,34 211,34 212,34 212,34 212,34 213,34 213,34 213,34 213,34 213,35 213,35 214,35 214,35 214,35 214,35 215,36 215,36 215,37 215,37 216,37 216,37 217,38 217,38 217,38 217,38 218,38 218,38 218,38 218,38 219,38 219,38 219,39 220,39 220,39 220,39 220,40 221,40 221,40 221,41 221,41 221,41 222,41 222,41 222,41 222,41 222,41 222,41 222,41 222,41 222,41 222,41 222,41 222,41 223,42 223,42 223,42 223,42 223,42 223,42 224,42 224,42 224,43 225,43 225,43 225,43 225,43 225,43 225,43 225,43 226,43 226,43 226,43 226,43 226,43 226,43 226,43 226,43 227,43 228,43 228,43 228,43 228,43 229,44 229,44 229,44 229,44 230,44 230,44 230,44 230,44 230,44 230,44 231,45 231,45 231,45 232,46 232,46 233,46 233,46 234,46 235,46 237,47 237,47 238,46 238,46 238,46 238,46 239,46 239,46 239,46 239,46 239,47 239,47 240,47 240,47 240,47 240,47 242,46 242,46 242,46 243,45 243,45 242,44 242,44 243,44 243,44 244,44 244,44 244,44 245,44 245,44 245,44 246,44 246,44 246,44 246,44 246,44 246,44 247,44 247,44 248,43 248,43 248,43 250,43 250,42 250,42 250,41 250,40 252,38 252,37 253,35 253,35 253,35 254,34 254,34 254,34 254,34 254,33 254,33 254,33 254,33 254,33 253,32 253,32 253,32 253,32 253,31 253,31 253,31 252,31 252,31 252,30 252,30 251,30 251,30 250,30 250,30 250,30 249,30 249,29 249,29 249,29 249,28 249,28 249,28 249,27 249,27 249,27 249,26 249,26 249,26 248,26 247,26 247,26 245,25 245,25 245,25 245,25 245,25 245,25 245,24 245,24 245,23 245,22 245,22 245,21 245,21 245,21 246,21 246,21 246,20 246,20 246,20 246,20 246,20 246,20 246,19 246,19 247,19 247,19 247,19 247,19 247,19 247,19 248,19 248,18 248,18 249,18 249,18 249,17 249,17 250,16 250,16 250,16 250,16 251,16 251,16 251,15 252,14 252,14 252,14 252,14 252,14 252,13 252,13 254,13 254,14 255,14 255,14 255,14 255,13 255,13 255,12 255,12 255,12 255,12 256,12 256,12 256,12 256,12 256,12 256,11 257,11 257,11 257,10 257,10 258,9 258,9 255,9 255,9 255,9 255,9 255,9 254,9 254,9 254,9 254,9 254,9 254,8 254,8 255,7 255,7 255,7 255,7 255,6 255,6 255,6 255,5 255,5 255,5 256,5 256,4 256,4 256,3 256,3 256,3 256,2 256,2 257,2 257,1 257,1 257,1 257,1 257,0 257,0 257,0 257,0 258,0 258,0 258,0 258,0 259,0 259,0 259,0 259,1 259,1 259,1 259,1 259,1 259,1 260,2 260,2 260,2 260,2 260,2 260,2 260,2 260,3 261,3 261,3 261,3 261,3 261,3 261,3 261,3 262,3 262,3 262,4 263,4 263,5 263,5 263,5 263,5 263,5 264,6 264,6 264,6 264,6 264,6 264,6 264,6 264,6 265,6 265,6 265,6 265,6 265,6 266,7 266,7 266,7 266,7 266,7 266,7 267,7 267,7 267,7 267,7 267,7 267,7 267,7 268,8 268,8 268,8 268,8 268,8 268,8 268,8 268,8 268,9 269,9 269,9 269,9 269,9 269,9 269,9 269,9 270,9 270,9 271,9 271,9 271,9 272,8 272,8 272,8 272,8 273,8 273,8 273,8 273,8 274,8 274,8 275,8 275,8 275,8 275,8 276,8 276,8 276,8 276,8 276,8 277,8 277,8 277,8 277,8 277,8 278,7 278,7 278,7 278,7 279,7 279,7 280,6 280,6 280,6 280,6 282,6 282,6 282,6 282,6 283,6 283,6 283,6 284,6 284,6 284,6 285,6 285,7 286,7 286,7 286,7 286,7 287,7 287,7 287,7 287,7 287,7 287,8 287,8 287,8 287,8 287,8 287,9 287,9 287,9 287,9 288,9 288,10 288,10 289,10 289,10 289,10 289,10 289,10 290,10 290,10 291,11 291,11 291,11 292,11 292,11 292,11 293,11 293,11 294,11 294,11 295,11 295,11 295,11 295,11 295,11 296,11 296,11 297,10 298,10 298,10 299,10 299,10 300,10 300,10 300,10 301,10 302,11 303,11 303,11 303,12 306,13 306,13 306,13 309,14 309,14 310,14 313,15 314,15 314,16 315,16 316,16" id="2919" class="canton" fill="steelblue" stroke-width="1" stroke="white" geotype="canton" geoname="Plonéour-Lanvern" code_insee="2919" code_departement="29" nom_departement="Finistère" code_region="53" nom_region="Bretagne"/></svg>