<?xml version="1.0" encoding="utf-8"?>
<svg version="1.1" id="svgmap" xmlns="http://www.w3.org/2000/svg" xmlns:xlink="http://www.w3.org/1999/xlink" x="0px" y="0px" width="100%" height="100%" viewBox="0 0 500 165">
<polygon points="276,133 276,133 277,133 277,133 277,133 277,133 277,133 277,133 276,133 277,133 277,133 277,133 277,133 276,133 277,133 277,132 277,132 277,132 277,132 277,132 277,132 277,132 277,132 277,132 277,132 277,132 277,132 277,132 277,132 277,132 277,132 277,132 277,132 277,132 277,132 277,132 277,132 277,132 277,132 277,132 277,132 277,132 277,132 277,132 277,132 277,132 277,132 277,132 277,132 277,132 277,132 277,132 277,132 277,132 277,132 278,133 278,133 278,133 278,133 278,133 278,133 277,133 277,133 277,133 277,133 277,133 277,133 277,133 277,133 277,133 277,133 277,133 277,133 277,133 277,133 276,133 276,133" id="2927" class="canton" fill="steelblue" stroke-width="1" stroke="white" geotype="canton" geoname="Saint-Renan" code_insee="2927" code_departement="29" nom_departement="Finistère" code_region="53" nom_region="Bretagne"/><polygon points="154,132 154,132 154,132 154,132 154,132 154,132 154,132 154,132 155,132 155,131 155,131 155,131 155,131 155,131 155,131 155,131 155,131 155,130 155,130 156,130 156,130 156,130 156,130 157,130 157,130 157,130 157,130 157,130 158,130 158,130 158,130 158,130 158,130 159,130 159,130 159,130 159,130 159,129 160,129 160,129 160,129 160,129 160,129 160,129 160,129 160,129 160,129 161,129 161,129 161,128 161,128 161,128 161,128 161,128 161,128 161,128 162,128 162,128 162,128 162,128 162,128 163,128 163,129 163,129 163,129 163,129 163,129 163,129 163,129 163,129 163,129 163,129 163,129 163,130 163,130 163,130 163,130 163,130 162,130 162,130 162,130 162,130 162,130 162,130 162,130 161,130 161,130 161,130 161,130 161,130 161,130 161,131 160,131 160,131 160,131 160,131 160,131 160,131 160,131 160,131 160,131 160,131 160,131 159,131 159,131 159,131 159,131 159,131 159,131 159,131 159,131 159,131 158,131 158,131 158,131 158,131 158,131 158,131 158,131 158,131 158,131 157,131 157,131 157,131 157,131 157,131 156,131 156,131 156,131 156,131 156,132 156,132 156,132 156,132 155,132 155,132 155,132 155,132 155,132 155,132 155,132 155,132 155,132 155,132 155,132 155,132 155,132 155,132 155,132 155,132 155,132 154,132 154,132 154,132 154,132 154,132 154,132 154,132 154,132 154,132" id="2927" class="canton" fill="steelblue" stroke-width="1" stroke="white" geotype="canton" geoname="Saint-Renan" code_insee="2927" code_departement="29" nom_departement="Finistère" code_region="53" nom_region="Bretagne"/><polygon points="269,86 269,86 269,87 269,86 269,86" id="2927" class="canton" fill="steelblue" stroke-width="1" stroke="white" geotype="canton" geoname="Saint-Renan" code_insee="2927" code_departement="29" nom_departement="Finistère" code_region="53" nom_region="Bretagne"/><polygon points="180,129 180,128 181,128 181,128 181,127 181,127 181,127 181,127 181,127 181,127 181,127 182,127 182,128 182,128 182,128 182,128 183,129 183,129 183,129 184,129 184,129 185,128 185,128 185,128 185,128 186,128 186,129 186,129 186,129 187,129 187,129 188,128 188,128 189,128 189,128 189,128 190,127 191,127 191,127 191,127 191,127 192,127 192,128 193,128 193,128 194,128 194,128 194,129 195,129 195,129 195,129 195,129 195,129 195,130 195,130 195,130 195,130 195,130 195,130 195,130 194,130 194,130 194,130 194,130 194,130 194,131 194,131 194,131 194,131 194,131 193,131 193,130 192,130 192,130 192,130 192,131 191,131 191,131 191,130 191,130 191,130 190,130 190,130 189,130 189,130 188,130 188,130 188,130 187,130 187,130 187,130 187,130 187,130 187,130 186,130 186,130 186,130 186,130 186,130 186,131 186,131 186,131 185,131 185,130 185,130 185,131 185,131 184,130 184,130 183,130 183,130 183,130 182,130 182,130 182,130 182,130 181,130 181,129 180,129 180,129 180,129" id="2927" class="canton" fill="steelblue" stroke-width="1" stroke="white" geotype="canton" geoname="Saint-Renan" code_insee="2927" code_departement="29" nom_departement="Finistère" code_region="53" nom_region="Bretagne"/><polygon points="0,66 0,66 1,67 2,67 2,67 2,67 3,68 3,67 4,67 3,66 3,66 3,66 3,65 3,65 4,65 4,66 5,66 5,66 5,66 6,65 6,65 6,65 6,65 7,65 7,65 6,65 7,64 6,64 7,64 7,64 7,64 7,64 6,64 6,63 7,63 7,63 7,63 8,63 8,62 8,62 8,62 8,62 9,61 10,61 10,62 10,62 10,61 10,61 11,61 11,61 11,61 12,61 12,61 12,61 12,61 12,61 12,61 12,61 12,61 12,60 13,60 13,60 13,60 14,60 13,61 14,61 14,60 14,60 14,60 15,60 15,60 15,60 15,59 16,59 16,59 16,60 16,60 17,60 17,60 17,59 17,59 17,59 17,59 17,59 18,59 18,59 18,59 18,59 19,59 19,59 19,58 19,58 19,58 19,58 19,58 20,58 20,58 20,58 20,58 20,58 21,58 21,58 21,58 21,58 21,58 21,58 21,58 21,58 22,57 22,57 22,58 22,58 22,58 23,58 23,58 23,58 23,58 23,58 23,58 23,58 23,58 24,58 24,58 24,58 24,58 24,58 24,58 24,57 25,57 25,57 25,57 25,57 26,57 26,57 26,57 26,57 26,57 26,57 27,57 27,57 27,57 27,57 27,57 27,57 27,57 27,57 28,57 28,57 28,57 28,57 27,56 27,56 27,56 26,56 25,55 25,55 25,55 25,55 24,55 25,55 25,55 25,55 25,55 25,55 25,55 25,55 25,55 25,54 25,54 26,54 26,54 26,54 26,54 27,54 27,54 27,54 27,54 27,54 27,54 27,53 27,53 27,53 26,53 26,54 26,54 25,54 25,53 25,53 25,53 25,53 25,53 25,53 25,53 26,53 26,53 26,53 26,53 26,53 26,53 26,53 26,53 26,53 26,53 26,53 27,53 27,53 27,53 27,52 27,52 27,52 28,52 28,52 28,52 28,52 28,52 29,52 29,52 29,52 29,52 29,52 29,52 30,52 30,52 30,52 30,52 30,52 31,52 31,52 32,52 32,52 33,52 33,52 34,51 34,51 34,51 35,51 36,51 36,51 37,52 37,51 37,51 37,51 37,51 36,51 36,51 36,50 36,50 37,50 37,50 37,50 37,50 38,50 38,50 38,49 38,49 39,49 39,49 39,49 39,49 40,49 40,49 40,49 40,49 40,49 40,49 40,49 40,49 40,49 40,49 40,49 40,49 40,49 40,49 40,49 40,49 41,49 41,49 41,49 41,49 40,49 40,49 41,49 41,49 41,49 40,50 40,50 40,50 40,50 40,50 40,50 40,50 40,50 40,50 40,50 40,50 40,50 40,50 40,50 40,50 40,50 40,50 40,50 40,50 40,50 40,50 40,50 39,50 39,50 40,50 40,50 40,50 40,50 39,51 39,51 39,51 39,51 39,51 40,51 40,51 40,51 40,51 40,51 40,51 40,51 40,51 40,51 40,51 40,51 40,51 40,51 40,51 40,51 40,51 40,51 40,51 40,51 40,51 40,51 40,51 40,51 41,51 41,51 41,51 41,51 41,51 41,51 40,51 40,51 40,51 40,51 40,51 40,51 40,51 40,51 40,51 40,51 40,51 40,51 40,51 40,51 40,51 40,51 40,51 40,51 40,51 40,51 40,51 40,51 40,51 40,51 40,51 40,51 40,51 40,51 40,51 40,51 40,51 40,51 40,51 40,51 40,51 40,51 40,51 40,51 41,51 41,51 41,51 42,51 42,51 42,51 42,52 42,51 43,51 43,51 43,51 44,51 44,51 44,51 44,51 45,51 45,51 45,52 45,52 45,52 46,52 46,52 46,52 46,52 47,52 47,52 47,52 47,52 47,52 47,51 47,51 48,51 48,51 48,51 48,51 49,51 49,51 49,51 49,51 50,51 50,51 50,51 50,51 50,50 50,50 50,51 51,50 52,51 51,50 52,50 52,50 52,50 52,50 52,50 52,49 52,50 53,50 52,49 53,49 53,49 53,49 53,48 53,48 53,48 54,48 54,49 54,48 54,48 54,48 55,48 55,48 55,47 55,47 55,47 56,47 56,47 56,47 56,47 56,47 55,47 55,47 55,47 55,47 55,46 55,46 55,46 55,46 54,46 54,46 53,46 52,46 52,46 52,46 51,46 52,46 51,46 51,45 52,45 53,45 53,45 53,44 53,44 52,44 52,45 51,45 51,45 50,45 50,45 50,45 51,45 51,45 51,44 51,44 51,45 52,44 52,44 52,44 52,43 53,43 53,44 53,44 53,43 54,43 54,43 53,43 54,42 54,43 55,43 55,43 55,43 55,43 54,43 54,44 53,44 54,44 54,44 55,44 55,44 55,45 56,44 56,44 57,44 56,44 56,45 56,45 56,45 57,45 57,45 57,44 57,44 58,44 58,44 58,44 59,44 59,45 59,45 59,45 59,44 59,44 60,44 59,45 60,45 59,45 59,45 59,45 60,45 60,45 60,45 61,45 61,45 62,45 62,45 62,45 62,45 63,45 63,45 63,45 64,45 63,45 63,45 63,45 62,45 62,45 61,45 61,46 61,46 61,46 60,46 59,46 59,46 60,46 60,46 60,46 61,46 61,47 61,47 61,47 62,47 61,47 62,47 62,47 62,47 62,47 62,47 62,47 62,47 62,47 63,47 63,47 63,47 63,48 63,48 63,48 63,48 63,48 63,49 63,48 63,49 64,49 64,49 64,49 64,49 64,49 64,49 65,49 65,49 66,49 66,49 66,49 66,49 66,49 66,49 67,49 67,49 67,49 67,49 67,49 67,48 67,48 67,48 67,48 68,48 68,48 68,48 69,48 69,48 69,48 69,48 70,48 70,48 70,48 71,48 70,48 71,48 70,49 71,48 71,48 71,49 71,49 71,49 72,49 72,49 71,49 71,49 72,49 71,50 71,50 71,50 71,50 71,50 71,50 71,50 70,51 70,50 70,51 70,51 69,51 69,51 69,51 68,52 68,52 68,52 67,52 67,52 66,53 66,53 67,53 66,53 67,54 67,53 67,53 67,53 67,53 67,53 67,54 67,54 67,54 67,54 67,54 67,54 67,54 66,54 67,54 67,54 67,54 67,54 67,54 67,54 67,54 67,54 67,54 67,54 67,54 67,54 67,54 67,54 67,54 68,54 68,54 68,54 68,54 68,54 68,54 68,54 68,54 68,54 68,54 68,54 68,54 68,54 68,54 68,54 68,54 68,54 68,54 68,54 68,54 68,54 68,54 68,53 68,54 68,54 68,54 68,54 68,54 69,54 69,54 69,54 69,54 69,54 69,54 69,54 69,54 69,54 69,54 69,54 69,54 69,54 69,54 69,54 69,54 69,54 69,54 69,54 70,54 70,54 70,54 70,54 70,54 70,54 69,54 69,54 69,54 69,54 69,54 69,54 69,54 69,54 69,54 69,54 69,55 69,55 69,55 69,55 68,54 68,55 68,55 68,55 68,55 68,55 68,55 67,55 67,55 68,55 68,55 67,54 67,54 67,55 67,55 67,55 67,55 67,55 67,55 67,55 67,55 67,55 67,55 67,55 67,55 67,55 67,55 67,55 67,55 67,55 67,55 67,55 67,55 67,55 66,55 66,55 66,55 66,56 66,56 65,56 65,56 65,56 65,56 65,56 65,56 65,56 65,56 65,56 65,56 65,56 65,56 65,56 65,56 65,56 65,56 65,56 65,56 65,56 65,56 65,56 65,56 65,57 65,57 65,57 65,57 65,57 65,57 65,57 65,57 65,57 65,57 65,57 65,57 65,57 65,57 66,57 66,57 66,57 66,57 66,57 66,57 66,57 66,57 66,57 66,57 66,57 66,57 66,57 66,57 66,57 66,57 66,57 66,57 66,57 67,57 67,57 67,56 68,56 68,56 68,57 69,57 68,57 68,57 69,58 69,57 70,57 70,57 71,57 71,57 71,57 71,57 71,56 72,56 72,57 72,57 72,57 72,57 73,57 73,57 73,57 73,57 73,58 72,58 72,58 72,58 72,58 72,59 72,59 73,58 73,59 73,59 73,59 73,59 73,59 73,60 74,60 74,59 74,59 75,59 75,58 76,58 76,58 77,59 77,58 76,58 76,58 76,57 77,58 77,58 78,58 78,58 78,58 79,58 79,58 79,58 79,58 79,58 79,57 80,58 80,58 80,58 80,59 80,59 80,59 80,59 81,58 81,58 81,58 82,58 82,58 82,59 82,59 82,58 83,59 83,59 83,59 84,59 84,59 84,58 84,58 84,58 84,58 85,58 85,58 85,59 86,59 86,59 86,60 85,59 84,59 84,60 84,60 84,60 84,60 83,61 84,61 83,61 83,62 83,61 82,62 82,62 82,62 82,63 82,63 81,63 81,63 80,63 80,63 79,63 80,63 79,63 79,64 79,64 78,63 78,63 78,64 77,64 77,63 77,63 76,63 76,63 76,63 76,63 75,63 75,63 74,63 74,62 74,63 73,63 73,63 73,63 73,63 73,62 73,62 73,62 73,62 73,62 73,62 73,62 73,62 73,62 73,62 73,62 72,62 72,62 72,62 72,62 72,62 72,62 72,63 72,63 72,63 72,63 72,63 72,63 72,63 72,63 72,63 72,63 71,63 72,63 72,63 72,63 72,63 72,63 72,63 72,63 71,63 71,63 71,63 71,63 71,63 71,63 71,63 71,63 71,63 71,63 71,63 71,63 71,63 71,63 71,63 71,63 71,63 71,63 71,63 71,63 71,63 71,63 71,63 71,63 71,63 71,63 71,63 71,63 71,63 71,63 71,63 71,63 71,63 71,63 71,64 71,64 71,64 71,64 71,64 71,64 71,64 71,64 71,64 71,64 71,64 71,64 71,64 71,64 71,64 71,64 71,64 71,64 71,64 71,64 71,64 71,64 71,64 71,64 71,64 71,64 71,64 71,64 71,64 71,64 71,64 71,64 71,64 71,64 71,64 71,64 71,64 71,64 70,64 70,64 70,64 70,64 70,64 70,64 71,64 71,64 71,64 71,64 71,64 70,64 70,64 70,64 70,64 70,65 70,65 70,65 70,65 70,65 70,65 70,65 70,65 70,65 70,65 70,65 70,65 70,65 70,65 70,65 70,65 70,65 70,65 70,65 70,65 70,65 70,65 69,65 69,65 69,65 69,65 69,65 69,65 69,65 69,65 69,65 69,65 69,65 69,65 69,65 69,65 69,65 69,65 69,65 69,65 69,65 69,65 69,65 69,65 69,65 69,65 69,65 69,65 69,65 69,65 69,65 68,65 68,65 68,65 68,65 68,65 68,65 68,66 68,66 68,66 68,67 68,67 67,67 67,67 66,67 66,67 65,68 65,68 65,68 65,68 65,68 66,69 65,69 65,69 66,69 66,70 66,70 66,70 66,70 66,70 66,70 66,70 66,70 66,70 66,70 66,70 66,70 66,71 66,71 65,71 65,70 65,70 65,70 65,70 65,70 65,70 65,70 65,70 65,70 65,70 65,70 65,70 64,70 64,70 64,70 64,70 63,70 63,70 63,70 63,70 63,70 63,70 63,70 63,70 63,70 63,70 63,70 62,70 62,70 62,70 62,70 62,70 62,70 62,70 62,70 62,70 62,70 62,70 62,70 62,70 62,69 62,70 62,70 61,70 61,69 62,69 61,69 61,69 61,69 61,69 61,69 60,69 60,69 60,69 60,70 60,70 59,70 59,70 59,70 58,70 58,69 58,69 58,69 58,69 58,69 58,69 57,69 57,69 58,69 58,68 58,68 58,68 58,68 58,68 57,68 57,68 57,68 57,68 57,68 57,68 57,68 56,68 56,68 56,68 56,69 56,69 56,69 55,69 55,68 55,68 55,68 55,68 54,68 54,68 54,68 54,69 54,69 54,69 54,69 54,69 54,69 53,69 53,70 53,70 53,70 52,70 52,70 52,70 52,70 52,71 52,70 52,70 52,70 52,70 51,70 51,70 51,70 51,70 51,70 51,71 51,71 52,71 52,71 51,71 51,71 51,71 51,71 51,71 51,71 51,70 51,70 50,70 50,70 50,70 50,70 50,71 50,70 50,71 50,71 50,71 50,71 50,71 50,71 50,70 50,70 50,70 50,70 50,70 50,70 50,70 50,70 50,70 50,70 50,70 50,70 50,70 50,70 50,70 50,70 50,70 50,70 50,70 50,70 50,70 50,70 50,70 50,70 50,70 50,70 50,70 50,70 50,70 50,70 50,70 50,70 50,70 50,70 50,70 50,70 50,70 50,70 50,69 50,69 50,69 50,69 50,69 50,69 50,69 50,69 50,69 50,69 50,69 50,69 50,69 50,69 50,69 50,69 50,69 50,69 50,69 49,69 49,69 49,69 49,69 49,69 49,69 49,69 49,69 49,69 49,69 49,69 49,69 49,69 49,69 49,69 49,69 49,69 49,69 49,69 49,69 49,69 49,69 49,69 49,69 48,69 48,69 48,69 48,69 48,69 48,69 48,69 48,69 48,69 48,69 48,69 48,69 48,69 48,69 48,69 48,69 48,69 48,69 48,69 48,69 48,69 48,70 48,70 48,70 48,70 48,70 48,70 48,70 48,70 48,70 48,70 48,70 48,70 48,70 48,70 48,70 48,70 48,70 48,70 48,70 48,70 48,70 48,70 48,70 48,70 48,70 48,70 48,70 48,70 48,70 48,70 47,70 47,70 47,70 47,70 47,70 47,70 47,70 46,71 46,71 46,71 46,71 46,71 46,71 46,71 46,71 46,71 46,71 46,71 46,71 46,71 46,71 46,71 46,71 46,71 46,71 46,71 46,71 46,72 46,72 46,72 46,72 46,72 46,72 46,72 46,72 46,72 46,72 46,72 46,72 45,72 45,72 45,72 45,72 45,72 45,72 45,73 45,73 45,73 45,73 45,73 45,73 45,73 45,73 45,73 45,73 45,73 44,73 45,73 45,73 45,73 45,73 45,73 44,73 44,73 44,72 44,72 44,72 44,72 44,72 44,72 44,72 44,72 44,72 44,72 44,72 44,72 44,72 44,73 43,73 43,73 43,73 43,73 43,73 43,73 43,73 43,73 43,73 43,73 43,73 43,73 43,74 43,74 43,74 43,74 43,74 43,74 43,74 43,74 43,74 42,75 43,75 43,75 43,75 43,75 43,75 43,75 43,75 42,75 42,75 42,75 42,75 42,75 42,76 42,76 42,76 42,76 42,77 42,77 41,77 41,77 40,77 39,77 39,77 39,77 39,77 39,77 39,77 39,77 39,77 38,77 38,77 38,77 37,78 37,78 37,78 38,77 38,77 38,77 37,77 37,77 37,76 37,77 36,77 36,77 36,77 36,77 36,77 36,78 35,78 35,78 35,78 35,78 35,78 34,78 34,78 34,78 34,78 34,78 34,79 34,79 34,78 34,78 34,78 34,78 34,78 34,78 34,78 34,78 34,78 34,78 33,78 33,78 33,78 33,78 33,78 33,78 33,78 33,78 33,78 33,78 33,78 33,78 32,78 32,78 32,79 32,79 32,79 31,80 31,80 31,80 31,80 30,81 31,80 30,80 30,80 30,81 30,81 30,81 30,81 29,80 30,80 29,80 29,80 29,79 29,80 28,80 28,80 27,80 27,80 26,80 26,80 25,80 25,80 24,80 24,81 23,80 23,80 23,80 23,80 23,80 23,80 23,80 23,80 23,80 23,80 23,80 23,80 23,80 23,80 23,80 23,80 23,80 23,80 23,80 23,80 23,80 23,80 23,80 23,80 23,80 23,80 23,80 23,80 23,80 23,80 23,80 23,80 23,80 23,80 23,80 23,80 23,80 23,80 23,80 23,80 23,80 23,80 23,80 23,80 23,80 23,80 23,80 23,80 23,80 22,80 22,80 22,80 22,80 22,80 22,80 22,80 22,80 22,80 22,80 22,80 22,80 22,80 22,79 22,79 22,79 22,79 22,79 22,80 22,80 22,80 22,80 22,80 21,80 21,80 21,80 21,80 21,80 21,80 21,80 21,80 21,80 21,80 21,80 21,80 21,80 21,80 21,80 21,79 21,79 21,79 21,79 21,79 21,79 21,79 21,79 21,79 21,79 21,79 21,79 21,79 20,79 20,79 20,79 20,79 20,79 20,79 20,79 20,79 20,79 20,79 20,79 20,79 20,79 20,79 20,79 20,79 20,79 20,79 20,79 20,79 19,79 19,79 19,79 19,79 19,79 19,79 19,79 19,79 19,79 19,79 19,79 19,79 19,79 19,79 19,79 19,79 19,79 19,79 19,79 19,79 19,79 19,79 19,79 19,79 19,79 19,79 19,79 19,78 19,78 19,78 20,78 20,78 20,78 19,78 19,78 19,78 20,78 20,78 20,78 20,78 20,78 20,78 20,78 20,78 20,78 20,78 20,78 20,78 20,78 20,78 20,78 20,78 20,78 20,78 20,78 20,78 20,78 20,78 20,78 20,78 20,78 20,78 20,78 20,78 20,78 20,78 20,78 20,78 20,78 20,78 21,78 21,78 21,78 21,78 21,78 21,78 21,78 21,78 21,78 21,78 21,78 21,78 21,78 21,78 21,78 21,78 21,78 21,78 21,78 21,78 21,78 21,78 21,78 21,78 21,77 21,77 22,77 22,77 22,76 22,76 22,76 22,77 22,77 22,77 22,77 22,77 22,78 22,78 22,78 23,78 23,78 23,78 24,78 24,78 24,78 24,78 24,78 25,78 25,78 25,78 25,78 26,78 26,77 26,77 26,77 26,77 26,76 26,76 25,76 25,76 25,76 25,76 24,76 24,76 24,76 24,75 24,75 24,75 24,75 25,75 25,75 25,74 25,75 25,75 26,74 26,74 27,74 27,74 27,74 27,74 28,74 27,73 27,73 28,74 29,74 29,73 30,74 30,74 30,74 31,74 31,74 32,73 32,73 32,73 32,73 33,74 33,74 33,74 34,74 34,74 34,74 34,73 34,73 34,73 34,73 34,73 34,73 34,73 34,73 34,73 34,73 34,72 34,71 35,71 35,71 36,71 36,71 37,71 38,70 38,70 39,70 39,70 39,69 38,69 38,69 39,68 39,68 39,68 39,68 39,68 38,68 38,67 38,68 38,67 37,67 37,67 36,67 36,67 36,67 36,67 37,67 37,67 37,67 37,66 37,66 37,66 37,66 37,66 37,66 37,66 37,66 36,66 36,66 36,66 36,66 36,66 36,66 36,66 36,66 36,66 36,66 36,66 36,65 36,65 36,65 36,65 36,65 36,65 36,65 36,66 36,66 36,66 36,66 36,66 36,66 36,66 36,66 36,66 36,66 36,66 35,66 35,66 35,67 35,67 35,67 35,67 35,67 35,67 35,67 35,67 35,67 35,67 35,67 35,67 35,67 35,66 35,66 35,66 35,66 34,66 34,66 34,66 34,66 34,66 34,66 34,66 34,66 34,66 34,66 34,66 34,66 34,66 34,66 34,66 34,65 34,65 34,65 34,65 34,65 34,65 34,65 34,65 34,65 34,65 34,65 34,65 34,65 34,65 34,65 34,65 34,65 34,65 34,65 34,65 34,65 34,65 34,65 34,65 34,65 34,65 34,65 34,64 34,64 34,64 34,64 34,64 34,65 34,65 33,65 33,65 32,65 29,66 29,66 29,66 28,66 28,66 28,66 27,66 26,66 26,66 25,66 25,67 24,67 24,67 24,67 24,66 24,67 23,67 23,67 23,67 23,67 23,67 23,67 23,67 23,67 22,67 22,67 22,67 22,68 22,68 22,67 22,67 22,67 22,67 22,67 22,67 22,67 22,67 21,67 21,67 21,67 21,68 21,68 21,68 21,68 20,68 20,68 20,68 20,68 20,68 20,68 20,68 20,68 20,68 20,68 19,68 19,68 19,69 19,69 19,68 19,68 19,68 19,68 19,68 19,68 18,68 18,68 18,68 18,68 18,68 18,68 18,68 18,68 18,68 18,68 18,68 18,68 18,68 17,67 17,67 17,67 17,67 17,67 17,67 17,67 17,68 17,68 17,68 17,68 17,68 17,68 17,68 17,68 17,68 17,68 17,68 17,68 16,68 16,68 16,68 16,68 16,68 16,68 16,68 16,68 16,68 16,68 16,68 16,68 16,69 16,69 16,69 16,69 16,69 16,68 16,68 15,68 15,68 15,68 16,68 15,68 15,68 15,68 15,68 15,67 15,67 15,67 15,67 15,67 15,67 15,68 15,68 15,68 15,68 15,68 15,68 15,68 15,68 15,68 15,68 15,68 15,68 15,68 14,68 14,68 14,68 14,68 14,68 14,68 14,68 14,68 14,68 14,69 14,69 14,69 14,69 14,69 14,69 14,69 14,69 14,69 14,68 14,69 14,69 14,69 13,69 13,69 13,69 13,69 13,70 13,70 13,70 13,69 13,69 13,69 13,69 13,69 13,69 12,69 12,69 12,70 12,70 12,70 12,70 12,70 11,70 11,70 11,70 11,70 11,70 11,70 11,70 11,70 11,70 11,69 11,70 11,70 11,70 11,70 10,70 10,70 10,70 10,70 10,70 10,70 10,70 10,70 10,70 10,70 9,70 9,70 9,70 9,70 9,70 9,70 9,71 9,71 9,71 9,71 9,71 8,71 8,71 8,71 8,71 8,71 8,71 8,71 8,71 8,71 7,71 7,70 7,70 7,70 7,71 7,71 7,71 7,71 6,71 6,71 6,71 6,71 6,71 6,71 6,71 6,71 6,71 6,71 6,70 6,70 6,70 6,70 6,70 6,70 6,70 6,70 6,70 6,70 6,70 6,70 6,70 6,70 6,70 6,70 6,70 5,70 5,70 5,70 5,70 5,70 5,70 5,70 5,70 5,70 5,69 5,69 5,69 4,69 4,69 4,70 4,70 4,70 4,70 4,70 4,70 4,70 4,70 4,70 4,70 4,70 4,70 4,70 4,70 4,70 4,70 3,70 3,70 3,70 3,70 4,70 3,70 3,71 3,70 3,70 3,71 3,71 3,71 3,71 3,71 3,71 3,71 3,71 3,71 3,71 3,71 3,71 3,71 3,71 3,71 3,71 3,71 3,71 3,71 3,71 3,71 2,71 2,71 2,71 2,71 2,71 2,71 2,71 2,71 2,71 2,71 2,71 2,71 2,71 1,71 1,71 1,71 1,70 1,70 1,70 1,70 1,70 1,70 1,70 1,70 1,70 1,70 1,70 1,70 2,70 2,70 2,70 2,70 2,70 2,70 2,70 2,69 2,69 2,69 2,69 2,69 2,69 2,69 2,69 2,69 2,69 2,69 2,69 1,68 1,68 1,68 1,68 0,67 0,67 0,66" id="2927" class="canton" fill="steelblue" stroke-width="1" stroke="white" geotype="canton" geoname="Saint-Renan" code_insee="2927" code_departement="29" nom_departement="Finistère" code_region="53" nom_region="Bretagne"/><polygon points="216,154 216,154 216,154 216,154 216,154 216,154 216,154 216,154 216,154 216,154 217,154 217,153 217,153 217,153 217,153 217,153 217,153 217,153 217,153 217,153 217,152 218,152 217,152 217,152 217,152 218,152 218,151 218,151 218,151 218,151 218,151 218,151 218,152 218,152 218,152 219,152 219,152 219,152 219,152 219,152 220,152 220,151 220,151 221,151 221,151 221,151 221,151 221,150 221,150 221,150 221,150 221,149 221,149 221,149 221,149 221,149 221,148 222,148 222,148 222,148 222,148 222,148 222,148 222,148 222,147 222,147 222,147 222,147 222,147 223,147 223,147 223,147 223,147 223,147 224,147 224,147 224,147 224,146 225,146 225,146 225,146 225,146 226,146 227,146 227,145 227,145 228,145 228,145 229,144 229,144 229,144 229,144 229,143 229,143 229,143 229,143 230,142 230,142 230,142 230,142 230,143 231,143 231,143 232,143 232,143 232,143 233,143 233,143 233,143 233,143 233,143 234,143 234,143 234,143 234,143 234,144 234,144 234,144 234,144 234,144 233,145 233,145 233,145 232,145 231,145 231,146 231,146 231,146 230,146 230,146 229,146 229,147 228,147 228,147 228,147 227,147 227,148 226,148 226,148 226,148 225,148 225,148 225,149 225,149 224,149 224,149 224,149 224,149 223,150 223,150 223,150 223,151 222,151 222,151 222,151 222,151 222,151 222,151 222,151 222,151 222,152 222,152 222,152 222,152 222,152 222,152 222,152 222,152 222,152 222,152 222,152 222,153 222,153 222,153 222,153 222,153 222,153 222,153 222,153 223,154 223,154 222,154 223,154 222,154 222,154 222,154 222,154 222,154 222,154 222,154 222,154 222,154 222,154 222,154 222,154 221,154 221,154 221,154 221,154 221,154 221,154 221,154 221,154 221,154 220,154 220,154 220,154 220,154 220,154 220,154 220,154 220,154 219,154 219,154 219,154 219,154 219,155 219,155 219,155 219,155 219,155 218,155 218,155 219,154 218,154 218,154 218,154 218,154 218,154 218,154 218,154 218,154 218,154 218,154 217,154 217,154 217,154 217,154 217,154 216,155 216,155 216,155 216,155 216,154 216,154 216,154 216,154 216,154" id="2927" class="canton" fill="steelblue" stroke-width="1" stroke="white" geotype="canton" geoname="Saint-Renan" code_insee="2927" code_departement="29" nom_departement="Finistère" code_region="53" nom_region="Bretagne"/><polygon points="100,88 100,88 100,88 100,88 100,88 100,88 100,88 100,88 100,88 100,88 100,88 100,88 100,88 100,88 100,88 100,88 100,88 100,88 100,88 100,88 100,88 100,88 100,88 100,88 100,88 100,88 100,88 100,88 100,88 100,88 101,88 101,88 101,87 101,87 101,87 101,87 101,87 101,87 100,87 100,87 101,87 101,87 101,87 101,87 101,87 101,87 101,87 101,87 101,86 101,86 101,86 101,86 101,86 101,86 101,86 101,86 101,86 101,86 101,86 101,86 101,86 101,86 101,86 101,86 101,86 101,86 101,86 101,86 101,86 101,86 101,86 101,85 101,85 101,85 101,85 101,85 101,85 101,85 101,85 101,85 101,85 101,85 101,85 101,85 101,85 101,85 101,85 101,85 101,85 101,85 101,85 101,85 101,85 101,85 101,85 101,84 101,84 101,84 101,84 101,84 101,84 102,84 102,84 102,84 102,84 102,84 102,84 102,84 102,84 102,84 102,84 102,84 102,84 102,84 102,84 102,84 102,84 102,84 102,84 102,84 102,84 102,84 102,85 102,85 102,85 103,85 103,85 103,85 103,85 103,85 103,85 103,85 103,85 103,85 103,85 103,85 103,85 103,85 103,85 102,86 102,86 102,86 102,86 102,86 102,86 102,86 102,86 102,86 102,86 102,86 102,86 102,86 102,87 102,87 102,87 102,87 102,87 102,87 102,87 102,87 102,87 102,87 102,87 103,88 103,88 103,88 103,88 103,88 103,88 103,88 103,88 103,88 103,88 103,88 103,88 103,88 103,88 103,88 103,88 103,88 103,88 103,88 102,88 102,88 102,88 102,88 102,89 102,89 102,89 102,89 102,89 102,89 102,89 102,89 102,89 102,89 102,89 102,89 102,89 101,89 101,89 101,89 101,89 101,89 101,89 101,89 101,89 101,89 101,89 101,89 101,89 101,89 101,89 101,89 101,89 101,89 101,89 101,89 101,89 101,89 101,89 101,89 100,89 100,89 100,89 100,89 100,89 100,89 100,88 100,88" id="2927" class="canton" fill="steelblue" stroke-width="1" stroke="white" geotype="canton" geoname="Saint-Renan" code_insee="2927" code_departement="29" nom_departement="Finistère" code_region="53" nom_region="Bretagne"/><polygon points="275,79 275,79 276,79 276,79 276,79 276,78 276,79 276,79 276,79 277,79 277,79 277,79 277,79 277,79 277,79 276,79 276,79 276,79 276,79 276,79 276,79 275,79 275,79 275,79 275,79" id="2927" class="canton" fill="steelblue" stroke-width="1" stroke="white" geotype="canton" geoname="Saint-Renan" code_insee="2927" code_departement="29" nom_departement="Finistère" code_region="53" nom_region="Bretagne"/><polygon points="97,92 98,92 98,92 98,91 99,91 99,92 99,92 99,92 98,92 97,92 97,92" id="2927" class="canton" fill="steelblue" stroke-width="1" stroke="white" geotype="canton" geoname="Saint-Renan" code_insee="2927" code_departement="29" nom_departement="Finistère" code_region="53" nom_region="Bretagne"/><polygon points="153,105 153,105 153,104 153,104 153,104 153,104 153,104 153,104 154,104 154,104 154,104 154,104 154,104 154,104 154,104 154,104 154,104 154,104 154,104 154,104 154,104 154,104 154,104 154,105 154,105 154,105 154,105 154,105 154,105 153,105 153,105 153,105 153,105 153,105 153,105 153,105 153,105 153,105 153,105" id="2927" class="canton" fill="steelblue" stroke-width="1" stroke="white" geotype="canton" geoname="Saint-Renan" code_insee="2927" code_departement="29" nom_departement="Finistère" code_region="53" nom_region="Bretagne"/><polygon points="148,108 148,108 149,108 149,108 149,107 150,107 150,107 151,106 153,106 152,107 153,108 153,108 153,108 154,108 154,108 154,108 153,108 153,108 151,109 151,109 150,111 149,110 149,110 149,110 148,109 148,108 148,108" id="2927" class="canton" fill="steelblue" stroke-width="1" stroke="white" geotype="canton" geoname="Saint-Renan" code_insee="2927" code_departement="29" nom_departement="Finistère" code_region="53" nom_region="Bretagne"/><polygon points="284,42 284,41 284,41 284,41 284,41 284,41 284,41 285,41 285,41 285,41 285,41 285,41 285,41 285,41 285,42 285,42 286,42 286,42 286,42 286,42 286,42 286,42 286,42 286,42 286,42 286,42 286,42 286,42 286,42 286,42 286,42 286,43 286,43 286,43 286,43 286,43 286,43 286,43 285,43 285,43 285,43 285,43 285,43 285,43 285,43 285,43 285,43 285,43 284,43 284,42 284,42 284,42 284,42 284,42 284,42 284,42 284,42 284,42 284,42" id="2927" class="canton" fill="steelblue" stroke-width="1" stroke="white" geotype="canton" geoname="Saint-Renan" code_insee="2927" code_departement="29" nom_departement="Finistère" code_region="53" nom_region="Bretagne"/><polygon points="201,131 203,131 203,131 204,131 205,131 205,132 204,132 202,132 201,131" id="2927" class="canton" fill="steelblue" stroke-width="1" stroke="white" geotype="canton" geoname="Saint-Renan" code_insee="2927" code_departement="29" nom_departement="Finistère" code_region="53" nom_region="Bretagne"/><polygon points="30,45 30,45 30,45 30,45 30,45 31,45 31,45 31,45 31,44 31,44 31,44 30,44 31,44 31,44 31,44 31,44 31,44 32,44 32,44 32,44 32,44 32,44 32,44 32,44 31,44 31,44 31,44 32,44 32,44 32,44 32,44 32,44 32,44 32,44 32,44 32,44 32,44 32,44 32,44 32,44 32,45 32,45 32,45 32,45 32,45 32,45 32,45 32,45 33,45 33,46 33,45 33,45 33,45 33,45 34,45 34,45 34,45 34,45 34,45 34,45 34,45 35,45 34,45 34,45 35,45 35,45 36,45 36,45 36,45 37,45 37,45 37,45 37,45 37,45 37,44 38,45 38,44 38,45 38,45 38,45 39,45 39,45 39,45 39,45 39,45 39,45 39,45 39,46 39,46 39,46 39,46 40,46 40,46 40,46 40,46 41,46 41,46 41,46 41,47 41,47 41,47 41,47 40,47 40,47 39,48 39,48 39,48 38,48 37,48 36,48 36,48 34,48 34,48 34,48 34,47 34,47 33,47 33,47 32,47 32,47 32,47 32,47 32,47 31,47 31,47 31,47 31,46 31,46 31,46 31,46 31,46 31,46 30,46 30,46 30,46 30,45" id="2927" class="canton" fill="steelblue" stroke-width="1" stroke="white" geotype="canton" geoname="Saint-Renan" code_insee="2927" code_departement="29" nom_departement="Finistère" code_region="53" nom_region="Bretagne"/><polygon points="189,122 189,121 190,121 190,122 190,122 190,122 191,123 191,123 192,124 192,125 192,125 191,125 191,126 191,126 191,125 190,125 190,124 189,122 189,122 189,122 189,122" id="2927" class="canton" fill="steelblue" stroke-width="1" stroke="white" geotype="canton" geoname="Saint-Renan" code_insee="2927" code_departement="29" nom_departement="Finistère" code_region="53" nom_region="Bretagne"/><polygon points="121,97 121,97 121,97 121,97 121,97 121,97 121,97 121,97 121,97 121,97 121,97 121,97 121,97 121,97 121,97 121,97 121,97 121,97 121,97 122,97 122,97 122,97 122,97 122,97 122,97 122,97 122,97 122,97 122,97 122,97 122,97 122,97 122,97 122,97 122,97 122,97 122,97 122,97 122,97 122,97 122,97 122,97 122,97 122,96 122,96 122,96 122,96 122,96 122,96 123,96 122,96 123,96 123,96 123,96 123,96 123,96 123,96 122,96 122,96 122,96 122,96 122,96 122,95 122,96 122,95 122,95 122,95 122,95 122,95 122,95 122,95 122,95 123,95 123,95 123,95 123,95 123,95 123,95 123,95 123,95 122,95 122,95 122,95 122,95 122,95 122,94 122,94 122,94 122,94 122,94 122,94 122,94 122,94 123,94 123,94 123,94 123,94 123,94 123,94 123,94 123,94 123,94 124,94 124,94 124,94 124,94 124,94 124,94 124,94 124,94 124,94 124,94 124,94 124,94 124,94 124,94 124,94 124,94 124,94 124,94 124,94 124,93 124,93 124,93 124,93 124,93 124,93 124,93 124,93 124,93 124,93 124,93 124,93 124,93 124,93 124,93 124,93 124,93 124,93 124,93 124,93 124,93 124,93 124,93 124,93 124,93 124,93 124,93 124,93 124,93 125,93 125,93 125,93 124,93 125,93 125,93 125,93 125,93 125,93 125,93 125,93 125,93 125,93 125,93 125,93 125,93 125,93 125,93 125,93 125,93 125,93 125,93 125,93 125,93 125,93 125,93 125,93 125,93 125,93 125,93 125,93 125,93 125,93 125,93 125,93 125,93 125,93 125,93 125,93 125,93 125,93 125,93 125,93 125,93 125,93 125,93 125,93 125,93 125,93 125,93 125,93 125,93 125,93 125,94 126,94 126,93 126,93 126,93 126,94 126,94 126,94 126,94 126,94 126,94 126,94 126,94 126,94 126,94 126,94 126,94 126,94 126,94 126,94 126,94 126,94 126,94 126,94 126,94 126,94 126,94 126,94 126,94 126,94 126,94 126,94 126,94 126,94 126,95 126,95 126,95 126,95 126,95 126,95 126,95 126,95 126,95 126,95 126,95 126,95 126,95 126,95 126,95 126,96 126,96 126,96 126,96 126,96 126,96 126,96 126,96 126,96 126,96 126,96 126,96 126,96 126,96 126,96 126,96 126,96 126,96 126,96 126,96 126,96 126,96 126,96 126,96 126,96 126,96 126,96 126,96 126,96 126,96 126,96 126,96 126,96 126,96 126,96 126,96 126,96 126,96 126,96 126,96 126,97 126,97 126,97 126,97 126,97 126,97 126,97 126,97 126,97 126,97 126,97 126,97 126,97 126,97 126,97 126,97 126,97 126,97 126,97 125,97 125,97 125,97 125,97 125,97 125,97 125,97 125,97 125,97 125,97 125,97 125,96 125,96 125,96 125,96 125,96 125,96 125,96 125,96 125,96 125,96 125,96 125,96 125,96 125,96 125,96 125,96 125,96 125,96 125,96 125,96 125,96 125,96 125,96 125,96 125,96 125,96 125,96 125,96 125,96 125,96 125,96 125,96 125,96 125,96 125,96 125,96 124,96 124,96 124,96 124,96 124,96 124,96 124,96 124,96 124,96 124,96 124,96 124,96 124,96 124,96 124,96 124,96 124,96 124,96 124,96 124,96 124,96 124,96 124,96 124,96 124,96 124,96 124,96 124,96 124,96 124,96 124,96 124,96 124,96 124,96 124,96 124,96 124,96 124,96 124,96 124,96 124,96 124,96 124,96 124,96 123,96 123,96 123,96 123,96 123,96 123,96 123,96 123,96 123,96 123,97 123,97 123,97 123,97 123,97 123,97 123,97 123,97 123,97 123,97 122,97 122,97 122,97 122,97 122,97 122,97 122,97 122,97 122,97 122,97 122,97 122,97 122,97 122,97 122,97 122,97 122,97 122,97 122,97 122,97 122,97 122,97 122,97 122,97 122,97 122,97 122,97 122,97 122,97 122,97 122,97 122,97 122,97 122,97 122,97 122,97 122,97 122,97 122,97 122,97 122,97 122,97 122,97 122,97 122,97 122,97 122,97 122,97 122,98 122,98 122,98 121,98 121,98 121,97 121,97 121,97 121,97 121,97 121,97 121,97 121,97 121,97 121,97 121,97 121,97 121,97 121,97 121,97 121,97 121,97 121,97 121,97 121,97 121,97 121,97" id="2927" class="canton" fill="steelblue" stroke-width="1" stroke="white" geotype="canton" geoname="Saint-Renan" code_insee="2927" code_departement="29" nom_departement="Finistère" code_region="53" nom_region="Bretagne"/><polygon points="6,63 6,63 6,63 6,63 6,63 6,63 7,63 7,63 7,63 7,63 7,63 6,62 6,62 7,62 7,62 7,62 6,62 6,62 7,62 7,62 7,62 7,62 7,62 8,62 8,62 8,62 7,62 7,63 7,63 7,63 7,63 7,63 7,63 7,63 7,63 7,63 7,63 7,63 7,63 7,63 7,63 7,63 7,63 6,63 6,63 6,63 6,63" id="2927" class="canton" fill="steelblue" stroke-width="1" stroke="white" geotype="canton" geoname="Saint-Renan" code_insee="2927" code_departement="29" nom_departement="Finistère" code_region="53" nom_region="Bretagne"/><polygon points="19,73 19,73 19,73 19,74 19,73 19,73 19,73 19,73 19,73 19,73 19,73 19,73 19,73 19,73 20,73 20,73 20,73 20,73 20,73 20,73 20,73 20,73 20,73 20,73 20,73 20,73 20,73 20,73 20,73 20,73 20,73 20,73 20,73 21,73 21,73 21,73 21,73 21,73 21,73 21,73 21,73 21,73 21,73 21,73 20,73 20,73 20,73 20,73 20,73 20,73 20,73 20,73 20,73 20,73 20,74 20,74 20,74 20,74 20,74 19,74 19,74 19,74 19,74 19,74 19,74 19,74 19,74 19,74 19,74 19,73 19,73 19,73 19,73 19,73 19,73" id="2927" class="canton" fill="steelblue" stroke-width="1" stroke="white" geotype="canton" geoname="Saint-Renan" code_insee="2927" code_departement="29" nom_departement="Finistère" code_region="53" nom_region="Bretagne"/><polygon points="199,127 199,127 199,127 199,127 199,127 199,127 199,127 199,127 199,127 199,127 199,127 199,127 199,127 199,127 199,127 199,127 199,127 199,127 199,127 199,127 199,127 199,127 199,127 199,127 199,127 199,127 199,127 199,127 199,127 199,127 199,127 199,127 199,127 199,127 199,127 199,127 199,127 199,127 199,127 200,127 200,127 200,127 200,127 200,127 200,127 200,127 200,127 200,127 200,127 200,127 200,127 200,127 200,127 200,127 200,127 200,127 200,127 200,127 200,127 200,127 200,127 200,127 200,128 200,128 200,128 200,128 200,128 200,128 200,128 200,128 200,128 200,128 200,128 200,128 200,128 200,128 200,128 200,128 200,128 200,128 200,128 200,128 200,128 200,128 200,128 200,128 200,128 200,128 201,128 201,128 201,128 201,128 201,128 201,128 201,129 201,129 201,129 201,129 201,129 201,129 201,129 201,129 201,129 201,129 201,129 201,129 201,129 200,129 200,129 200,129 200,129 200,129 200,129 200,129 200,129 200,129 200,129 200,129 200,129 200,129 200,129 199,128 199,128 199,128 199,128 199,128 199,128 199,128 199,128 199,128 199,128 199,128 199,128 199,128 199,128 199,128 199,128 199,128 199,128 199,128 199,128 199,128 199,128 199,128 199,128 199,128 199,128 199,128 199,128 199,128 199,128 199,128 199,128 199,128 199,128 199,128 199,127 199,127 199,127 199,127 199,127 199,127 199,127 199,127 199,127 199,127 199,127 199,127 199,127 199,127 199,127 199,127 199,127 199,127 199,127 199,127 199,127 199,127" id="2927" class="canton" fill="steelblue" stroke-width="1" stroke="white" geotype="canton" geoname="Saint-Renan" code_insee="2927" code_departement="29" nom_departement="Finistère" code_region="53" nom_region="Bretagne"/><polygon points="296,16 296,15 296,15 296,15 297,15 297,16 297,16 298,16 298,16 298,16 299,16 299,16 300,16 300,16 300,16 300,16 300,16 301,16 301,16 301,16 301,17 301,17 302,17 302,18 303,18 303,18 304,18 304,18 304,18 305,19 305,19 305,19 305,18 306,18 306,18 306,18 306,18 306,18 307,17 307,17 307,17 308,17 308,17 308,17 308,17 309,17 309,17 309,17 309,17 310,17 310,17 310,17 310,16 311,16 311,16 313,16 313,16 313,16 315,17 315,17 315,18 315,18 315,18 315,18 315,18 315,18 315,18 315,18 315,18 315,18 315,19 315,19 315,19 315,19 315,19 315,19 315,20 315,20 316,20 316,20 316,20 316,20 316,20 316,20 316,20 316,20 316,20 316,20 316,20 316,20 316,20 316,20 317,20 317,20 317,20 317,20 317,21 318,21 318,21 319,21 319,21 319,21 319,21 320,20 320,20 320,20 321,20 321,20 322,19 322,19 322,20 323,20 324,20 324,20 324,21 325,21 325,21 326,22 326,22 326,22 327,22 327,22 328,22 328,22 329,22 329,22 329,23 330,23 330,23 330,23 330,23 330,23 330,23 331,23 331,23 331,23 331,22 331,22 331,22 330,22 330,22 330,22 330,21 330,21 330,21 330,21 330,21 330,21 330,21 330,21 330,20 330,20 330,20 330,20 329,20 329,20 329,20 329,20 329,20 330,19 330,19 330,19 330,19 330,19 330,19 330,19 330,19 330,18 330,18 330,18 330,18 330,18 330,18 330,17 330,17 330,17 330,17 330,16 330,16 330,16 330,16 330,15 331,15 331,15 331,15 331,15 331,16 331,16 331,16 331,15 331,15 332,15 332,15 332,15 332,15 332,15 332,14 332,14 332,14 332,14 332,14 332,14 332,13 332,13 332,13 333,13 333,13 333,13 333,13 333,12 333,12 333,12 333,12 333,12 333,12 333,12 333,12 333,12 333,12 333,12 333,12 334,11 334,11 334,11 334,11 335,11 335,11 335,11 336,10 337,10 337,10 337,10 337,10 337,10 337,10 338,10 338,10 338,10 338,10 339,10 339,10 339,10 340,9 340,9 340,9 341,9 341,9 340,8 340,8 339,7 339,7 339,7 339,7 339,7 339,7 338,6 338,6 338,6 339,5 339,5 339,5 339,4 339,4 339,4 339,4 339,4 339,4 339,3 340,3 340,3 340,3 340,3 340,3 340,3 340,3 340,3 340,3 341,3 342,3 342,3 343,3 343,3 343,3 343,3 343,2 344,2 344,2 344,2 344,2 344,2 344,1 344,1 344,1 344,1 344,1 344,1 345,1 345,0 345,0 345,0 345,0 345,0 345,0 345,0 346,0 346,0 346,0 346,0 346,0 346,1 346,1 346,1 346,1 346,1 346,1 346,1 346,1 346,1 346,1 346,1 346,1 346,1 346,1 346,1 346,1 346,1 346,1 346,1 346,1 346,1 346,1 346,2 346,2 346,2 347,2 347,2 347,2 347,2 347,2 347,2 347,2 347,2 347,3 347,3 347,3 347,3 347,3 347,3 347,3 348,3 348,3 348,3 348,3 348,3 348,3 348,3 348,3 348,3 348,3 348,3 348,4 348,4 348,4 348,4 348,4 348,4 348,4 348,4 348,4 348,4 348,4 348,4 348,4 348,4 348,4 348,4 348,5 348,5 348,5 348,5 348,5 348,5 348,5 348,5 349,5 349,5 349,5 349,5 349,6 349,6 349,6 349,6 349,6 349,6 349,6 349,6 349,6 350,6 350,6 350,6 350,6 350,7 350,7 350,7 350,7 350,7 350,7 350,7 350,7 350,7 350,7 350,7 350,7 350,8 350,8 350,8 350,8 350,8 350,8 350,8 350,8 350,9 350,9 350,9 351,9 351,9 351,9 351,9 351,9 351,9 351,9 351,9 351,9 352,10 352,10 352,10 352,10 352,10 352,10 352,10 352,10 353,10 353,10 353,10 353,10 353,10 353,10 354,11 354,11 354,11 354,11 354,11 354,11 354,11 354,11 354,11 354,11 354,11 354,11 354,11 354,12 354,12 355,12 355,12 355,12 355,12 355,12 355,12 355,12 355,12 356,12 356,12 356,12 356,12 356,12 356,12 357,12 357,12 357,13 357,13 357,13 357,14 357,14 357,14 357,14 357,14 357,14 357,14 357,14 357,14 357,15 357,15 357,15 357,15 357,15 357,15 357,15 357,15 358,15 358,15 358,15 358,16 358,16 358,16 358,16 358,16 359,16 359,16 359,16 359,16 359,16 359,16 359,16 359,16 359,16 359,16 360,16 360,16 360,16 360,16 360,16 360,16 360,16 360,16 360,16 360,16 361,16 361,16 361,16 361,16 362,16 362,16 362,16 362,16 362,17 362,17 362,17 363,17 363,17 363,17 363,17 363,17 363,17 363,17 363,17 363,17 363,17 363,17 363,17 364,16 364,16 364,16 364,16 364,16 364,16 364,16 364,16 365,16 365,16 365,16 365,16 365,16 365,16 365,16 365,16 365,16 366,16 366,16 366,16 366,16 366,16 366,16 366,16 366,16 366,16 367,16 367,16 367,16 367,16 367,17 367,17 367,17 367,17 367,17 367,17 367,17 367,17 368,17 368,17 368,17 368,17 368,17 369,17 369,17 369,18 369,18 369,18 369,18 369,18 369,18 369,18 369,18 369,18 369,18 369,18 369,18 369,18 370,18 370,18 370,18 370,18 370,19 370,19 370,19 370,19 370,19 370,19 370,19 370,19 370,19 370,19 370,19 370,19 370,19 370,19 370,19 370,19 370,19 370,19 370,19 370,20 370,20 370,20 370,20 370,20 371,20 371,20 371,20 371,20 371,21 371,21 371,21 371,21 371,21 371,21 371,21 371,21 371,21 371,22 372,22 372,22 372,22 372,22 372,22 372,22 372,22 372,22 372,22 372,23 372,23 372,23 372,23 372,23 372,23 372,23 372,23 372,23 372,23 372,23 372,23 372,23 372,23 372,23 372,23 372,23 372,23 372,23 372,23 372,23 372,23 372,23 372,23 372,23 372,23 372,23 372,23 372,23 372,23 372,24 373,24 372,24 372,24 372,24 372,24 372,24 372,24 373,24 373,24 373,24 373,24 373,25 373,25 373,25 373,25 373,25 373,25 374,25 374,25 374,25 374,25 374,25 374,25 374,25 375,25 375,25 375,25 375,25 375,25 375,25 375,25 376,25 376,26 377,26 377,26 378,26 378,26 378,27 378,27 379,27 379,27 379,27 379,27 379,27 380,27 380,27 380,27 380,27 380,27 381,27 381,27 381,28 381,28 381,27 381,27 381,27 381,28 382,28 382,28 382,28 383,28 383,28 384,28 384,28 385,28 385,28 385,28 385,28 385,28 385,28 386,28 386,28 386,28 386,28 386,28 386,28 386,28 386,28 387,28 387,28 387,28 387,28 387,28 387,28 387,28 387,28 387,28 387,28 387,28 388,28 388,28 388,28 388,28 388,28 388,28 389,28 389,28 389,28 390,28 390,28 390,28 390,29 390,29 390,29 390,29 390,29 390,29 390,29 390,29 390,29 390,29 390,29 390,29 391,29 391,29 391,29 391,29 391,29 392,28 392,28 392,28 392,28 392,28 393,28 393,28 393,28 393,28 393,28 393,28 394,28 394,28 395,27 396,27 396,27 395,26 395,26 395,26 395,26 394,25 393,25 393,25 393,25 393,24 393,24 393,24 394,24 395,25 395,25 396,25 396,24 396,24 397,24 397,24 397,24 397,24 397,24 398,24 398,24 398,24 399,24 399,24 399,24 399,25 399,25 399,25 399,26 399,26 399,26 399,26 399,26 399,26 399,26 400,26 400,26 400,26 400,26 400,26 400,26 400,26 400,26 401,26 401,27 401,27 401,27 402,27 402,27 402,27 402,27 402,27 403,27 403,27 403,27 403,27 403,27 403,27 404,27 404,27 404,27 404,27 405,27 405,27 405,27 405,27 405,27 405,27 406,28 406,28 406,28 406,28 406,28 406,28 406,28 407,28 407,28 407,29 407,29 407,28 408,28 408,29 409,29 409,29 409,29 409,29 410,29 410,29 410,29 410,29 410,29 410,29 411,29 411,29 411,29 411,29 411,29 411,29 411,29 412,29 412,29 412,29 412,29 413,29 413,29 413,29 413,29 414,29 414,29 415,29 415,29 415,29 415,29 416,29 416,29 416,29 416,29 416,29 416,28 416,28 417,28 417,28 417,27 417,27 417,27 417,27 417,27 417,27 417,27 418,28 418,28 418,28 419,29 419,29 419,29 419,29 419,29 420,29 420,29 420,29 420,29 420,29 420,29 421,29 421,29 421,29 421,29 421,29 421,29 421,29 421,29 421,29 421,29 422,29 422,29 422,29 422,29 422,29 422,29 422,29 422,29 422,29 422,29 422,29 422,29 423,29 423,29 423,29 423,29 423,28 423,28 423,28 423,28 423,28 423,28 424,28 424,28 424,28 424,28 424,28 424,28 424,28 424,28 424,28 425,28 425,28 425,28 425,28 425,28 425,28 425,28 425,28 425,28 425,28 425,28 425,28 425,28 426,28 426,28 426,28 426,28 426,28 426,27 426,27 426,27 426,27 426,27 426,27 426,27 426,27 426,27 426,27 426,27 426,27 426,27 426,27 426,27 427,27 427,27 427,26 427,26 427,26 427,26 427,26 427,26 427,26 427,27 427,27 427,27 428,27 428,27 428,27 428,27 428,27 428,27 429,27 429,27 429,27 429,27 429,26 429,26 429,26 429,26 429,26 429,26 429,26 429,26 429,26 429,26 430,26 430,26 430,26 430,26 430,26 430,26 429,26 429,26 429,26 429,25 429,25 429,25 430,25 429,25 429,25 429,25 429,25 429,25 429,25 429,25 430,25 430,25 430,25 430,25 430,25 430,25 430,25 430,25 430,25 430,25 430,25 430,25 430,24 430,24 430,24 430,24 430,24 430,24 429,24 429,24 429,24 429,24 429,24 429,24 429,24 429,24 429,24 429,24 429,24 429,24 429,24 430,24 430,24 430,24 430,23 431,23 431,23 431,23 431,23 432,23 432,23 432,23 432,23 432,23 433,23 433,24 433,24 433,24 434,24 434,24 434,24 434,25 434,25 434,25 435,25 435,25 435,25 435,25 435,25 436,25 436,25 436,24 436,24 436,24 436,24 436,24 436,23 436,23 436,23 436,23 436,23 436,23 436,23 435,23 435,23 435,23 435,23 435,23 435,23 434,23 434,23 434,23 434,23 434,24 434,23 434,23 433,23 433,23 433,23 433,22 433,22 433,22 433,22 433,22 433,22 433,22 434,21 434,21 434,21 435,21 435,21 435,21 435,21 435,21 435,21 436,21 436,21 436,21 436,21 436,21 436,21 436,21 436,21 436,21 436,21 437,22 437,22 437,22 437,22 437,22 437,22 437,21 437,22 437,22 437,22 437,21 438,21 438,21 438,21 438,21 438,21 438,21 438,21 438,21 438,21 438,21 438,21 438,21 438,21 438,21 439,21 439,21 439,21 439,21 439,21 439,21 439,21 439,21 439,21 439,21 439,21 439,21 439,21 439,21 440,21 440,21 440,21 440,21 440,21 440,21 440,21 440,21 440,21 440,21 440,21 440,21 440,21 440,21 440,21 440,21 440,21 440,21 441,21 441,21 441,21 441,21 441,21 441,21 441,21 441,22 441,22 441,22 442,22 442,22 442,22 442,22 442,22 442,22 442,22 442,22 442,22 443,22 443,22 443,22 443,22 444,22 444,22 444,22 444,22 444,22 444,23 444,23 444,23 444,23 444,23 444,23 444,23 444,23 444,23 444,24 444,24 444,24 444,24 444,24 444,24 444,24 444,24 444,24 444,24 445,24 445,24 445,24 445,24 445,24 445,25 445,25 445,25 445,25 445,25 445,25 445,25 445,25 445,25 445,25 445,25 445,25 445,26 445,26 445,26 445,26 445,26 445,26 445,26 445,26 445,26 445,26 445,26 445,26 445,26 446,26 446,26 446,26 446,26 447,26 447,26 447,26 447,26 448,26 448,26 448,26 448,26 448,26 448,26 448,26 448,26 448,26 449,25 449,26 449,26 450,26 450,26 450,26 451,26 451,26 451,26 451,26 452,26 452,26 452,26 453,26 453,26 453,26 453,26 453,26 453,26 453,26 453,26 454,26 454,26 454,26 454,26 454,26 454,26 454,26 454,26 454,26 455,26 455,26 454,27 454,27 454,27 454,27 454,27 455,27 455,27 455,27 455,27 455,27 455,27 455,27 455,27 455,27 455,27 455,27 455,27 455,27 455,27 455,28 455,28 455,28 456,28 456,28 456,28 456,28 456,28 456,28 456,28 456,28 456,28 456,29 456,29 456,29 456,29 457,29 457,29 457,29 457,29 457,29 457,29 457,29 457,29 457,29 457,29 457,29 457,29 457,29 457,29 458,29 458,29 458,29 458,29 458,30 458,30 458,30 458,30 458,30 458,30 458,30 458,30 458,30 458,30 458,30 458,30 458,31 458,31 458,31 458,31 458,31 458,31 458,31 458,31 458,31 458,31 458,32 458,32 458,32 458,32 457,32 457,32 457,32 458,32 458,32 457,33 457,33 457,33 457,33 457,33 457,33 457,33 457,33 457,33 457,33 457,33 457,33 457,33 457,33 458,33 458,33 458,33 458,33 458,33 458,34 458,34 458,34 458,34 458,34 458,34 458,34 458,34 458,34 458,34 458,34 458,34 458,34 458,34 459,35 459,35 459,35 459,35 459,35 459,35 459,35 459,35 459,35 459,35 459,35 459,36 459,36 459,36 459,36 459,36 459,36 459,36 459,36 459,36 460,36 460,36 460,36 460,36 460,36 460,36 460,36 460,36 460,36 460,37 460,37 460,37 459,37 459,37 460,37 460,37 460,37 460,37 459,37 459,37 460,37 460,38 460,38 460,38 460,38 460,38 461,38 461,38 461,38 461,38 461,38 461,38 461,39 461,39 461,39 461,39 461,39 461,39 461,39 461,39 461,39 461,39 461,39 461,40 461,40 462,40 462,40 462,40 462,40 462,40 462,40 462,40 462,40 462,40 463,40 463,40 463,41 463,41 464,42 464,42 464,42 464,42 464,42 464,42 464,42 464,42 465,43 465,42 465,43 465,43 465,43 465,43 465,43 465,43 465,43 465,43 465,43 465,44 465,44 465,44 465,44 465,44 465,44 464,45 464,45 464,45 465,45 465,45 465,45 465,46 465,46 464,46 464,46 465,46 465,46 465,46 465,46 465,46 466,46 466,46 466,46 466,46 466,46 466,46 466,46 466,46 467,47 467,47 467,47 467,47 467,47 468,47 468,47 468,47 468,47 468,47 468,47 469,47 469,47 469,47 469,46 469,46 469,46 470,46 470,46 470,46 470,46 471,46 471,46 471,46 471,45 471,45 471,45 471,45 471,45 471,45 471,45 471,45 473,45 473,45 473,46 473,46 473,46 473,46 473,46 473,47 473,47 473,47 473,47 473,47 473,47 473,47 474,48 474,48 474,48 475,49 475,49 475,49 475,49 475,49 475,49 475,49 475,49 474,49 475,50 475,50 475,50 475,50 475,50 476,49 476,49 479,49 479,48 480,49 480,49 480,49 480,50 480,50 480,50 480,49 481,49 481,49 481,49 481,49 481,49 482,49 482,49 482,49 482,49 482,49 482,49 482,49 482,49 483,49 483,49 483,49 483,49 483,49 483,49 483,49 484,49 484,49 484,49 484,49 484,49 484,49 484,49 484,49 485,49 485,49 485,49 486,49 486,49 486,49 486,49 486,49 486,50 486,50 486,50 486,50 485,50 485,51 486,51 486,51 486,51 486,51 486,51 486,51 486,51 486,52 486,52 485,52 485,52 485,52 485,52 485,52 485,52 486,52 486,52 486,53 486,53 486,53 486,53 486,53 485,54 485,54 485,54 485,54 485,54 485,54 484,55 485,55 485,55 485,55 485,56 485,56 485,56 485,56 485,56 485,56 485,56 485,56 485,56 485,56 485,57 485,57 485,57 485,57 485,57 485,57 485,57 486,57 486,56 487,56 487,56 487,56 487,56 488,55 488,55 489,55 489,55 489,55 489,55 490,55 491,55 491,55 492,55 492,55 492,55 492,55 492,55 492,55 492,55 492,55 492,55 492,55 492,55 493,55 494,55 494,55 494,55 494,55 495,55 495,55 495,55 496,55 496,55 496,55 497,55 497,55 497,55 497,55 498,56 498,56 499,56 499,56 499,56 499,56 499,56 499,56 499,57 499,57 499,57 499,57 499,57 499,57 499,57 499,57 499,57 498,57 498,57 498,58 498,58 499,58 499,58 499,58 498,58 498,58 498,58 498,58 498,58 498,59 498,59 498,59 498,59 498,59 498,59 498,59 498,60 498,60 498,60 498,60 498,60 498,60 497,61 497,61 497,61 497,61 497,61 497,61 497,61 497,61 497,61 497,61 497,61 497,62 497,62 497,62 497,62 497,63 498,63 498,63 498,63 498,64 498,64 498,64 499,64 499,64 499,64 499,64 499,64 499,65 499,65 499,65 499,65 499,65 499,65 499,65 500,66 500,66 500,66 500,66 500,66 500,66 500,66 500,67 500,67 500,67 499,67 499,67 498,66 498,66 498,66 498,66 497,66 497,66 497,66 497,66 497,66 496,66 496,66 496,66 496,66 496,66 496,66 496,66 495,66 495,66 495,65 495,65 494,65 494,65 494,65 494,65 494,65 494,65 493,64 493,64 493,64 493,64 492,64 492,64 492,64 492,64 492,64 492,65 492,65 492,66 492,67 492,67 492,67 492,67 491,67 491,67 491,67 491,67 491,67 491,68 490,68 490,68 490,68 490,68 490,68 490,68 490,69 490,69 490,69 490,69 490,69 489,69 489,69 489,69 488,69 488,69 487,69 486,69 486,69 486,69 486,70 486,70 486,70 486,70 484,70 483,70 483,70 482,70 482,70 482,70 482,71 482,71 482,71 482,71 482,71 482,71 482,72 481,72 481,72 482,72 482,73 482,73 482,73 483,74 483,74 483,74 482,74 482,74 482,74 482,74 482,74 482,75 482,75 482,75 482,75 482,75 482,75 481,76 481,76 481,76 481,76 481,76 481,76 480,75 480,75 480,75 480,75 480,75 479,75 479,75 479,75 479,75 478,75 478,75 478,75 478,75 478,75 478,75 477,75 477,74 477,74 477,74 477,74 477,74 477,74 477,74 476,74 476,74 476,74 476,74 476,74 476,74 476,74 476,74 476,75 476,75 476,76 476,76 476,76 476,77 475,77 475,77 475,77 474,77 474,77 473,77 471,78 471,78 470,77 469,77 470,78 470,78 470,78 468,79 468,79 469,79 469,79 469,80 469,80 469,80 469,80 470,81 470,81 470,81 469,82 468,82 468,82 468,82 467,82 467,82 467,81 467,81 466,81 466,81 465,80 465,80 465,80 465,80 465,80 465,79 464,79 464,79 464,79 464,79 464,79 464,79 464,78 463,78 463,78 463,78 463,77 463,77 463,77 463,77 463,77 463,76 462,76 461,76 461,75 461,75 460,75 460,75 460,75 459,75 459,75 459,75 458,75 458,75 458,75 458,74 458,74 458,74 458,74 457,74 457,74 456,74 456,74 456,74 456,74 456,74 456,74 456,74 456,74 455,74 455,74 454,74 454,74 454,74 454,74 454,74 454,74 454,74 454,74 454,74 454,73 453,73 453,74 453,74 453,74 453,74 452,74 452,74 452,74 452,75 451,75 451,75 450,75 450,75 449,76 449,76 448,76 448,76 448,76 448,76 447,76 447,76 447,76 447,76 446,77 446,77 445,77 445,77 445,77 445,78 445,78 445,78 444,77 444,77 444,77 443,77 443,77 442,77 442,77 442,77 442,78 442,78 442,78 442,79 442,79 442,79 442,80 442,80 442,80 441,80 440,80 440,80 440,81 439,81 439,81 438,81 437,82 436,82 436,82 435,83 433,83 433,83 432,84 432,84 431,84 431,84 431,85 430,85 429,85 428,86 427,86 426,86 426,86 425,86 425,86 425,86 424,86 424,87 424,87 423,87 423,87 423,87 422,87 422,87 422,87 422,88 422,88 422,88 422,88 422,88 422,88 422,88 422,88 423,88 423,89 422,89 423,89 423,89 423,89 423,89 423,89 423,89 422,89 422,89 422,89 423,89 423,89 423,89 423,89 423,89 423,89 423,89 423,90 423,90 423,90 423,90 423,90 424,90 424,90 424,90 424,90 424,90 424,90 424,90 424,91 424,91 424,91 424,91 424,91 424,91 424,91 424,91 424,91 424,91 424,91 424,91 424,92 424,92 424,92 424,92 424,92 425,92 425,92 425,92 425,92 425,92 425,92 425,92 425,92 426,92 426,92 426,92 426,92 426,92 426,92 426,92 426,92 426,93 427,93 427,93 427,93 427,93 427,93 427,93 427,93 427,93 427,93 427,93 427,93 427,93 427,93 427,93 427,93 427,93 428,94 428,94 428,94 428,94 428,94 428,94 428,94 428,94 428,94 428,94 428,94 428,94 428,94 428,94 428,94 428,95 428,95 428,95 428,95 428,95 428,95 428,95 428,95 428,96 428,96 428,96 428,96 428,96 428,96 428,96 428,96 428,96 428,96 428,96 428,96 428,96 428,96 428,96 428,96 428,96 428,96 428,96 428,96 428,96 428,96 428,96 428,96 428,96 428,97 428,97 428,97 428,97 428,97 428,97 428,97 429,98 429,98 429,98 429,98 429,98 429,98 429,98 429,98 429,98 428,98 428,98 428,98 429,99 429,99 429,99 430,99 430,99 430,99 430,99 430,100 430,100 430,100 430,100 430,100 430,100 430,100 430,100 430,100 430,100 430,100 430,100 430,100 430,100 430,101 430,101 430,101 430,101 430,101 430,101 429,101 429,101 429,101 429,101 429,101 429,101 429,101 429,101 429,101 429,101 428,101 428,101 428,101 428,101 428,101 428,101 428,101 428,101 428,101 427,101 427,101 427,101 427,102 426,102 426,102 426,102 426,102 426,102 426,102 425,102 425,102 425,102 425,102 425,102 425,102 425,102 424,102 424,102 424,102 424,102 424,102 424,102 423,102 423,102 423,102 423,102 423,102 422,102 422,102 422,102 422,102 422,102 422,102 422,102 422,102 422,102 422,102 422,103 422,103 422,103 422,103 422,103 421,103 421,103 421,103 421,103 421,103 421,103 421,103 420,103 420,103 419,103 419,103 419,103 419,103 419,103 419,103 419,103 419,103 419,103 418,103 418,103 418,103 418,104 418,104 418,104 418,104 417,104 417,104 417,104 417,104 417,104 417,104 417,104 417,104 416,104 416,103 416,103 416,103 416,103 416,103 416,103 416,102 416,102 416,102 416,102 416,102 416,102 415,102 415,102 415,101 415,101 416,101 416,101 415,100 415,100 415,100 415,100 415,100 414,100 412,100 412,100 411,100 411,100 411,100 410,99 409,99 409,99 408,99 408,99 407,99 407,99 406,99 406,99 406,99 406,99 406,99 405,99 405,99 404,99 404,99 404,99 403,99 403,99 402,99 402,99 402,99 402,99 401,99 401,99 400,98 400,98 400,98 400,98 400,98 399,98 399,98 399,98 398,98 398,98 397,98 397,99 397,99 397,99 397,99 397,99 397,99 397,99 397,99 397,99 397,99 397,100 397,100 397,100 397,100 396,100 396,101 396,101 396,101 396,101 396,101 396,101 395,101 395,101 395,102 394,102 394,102 395,102 395,102 394,102 394,102 394,102 394,102 395,102 395,102 395,102 394,102 394,102 393,103 393,103 393,103 393,103 393,103 393,102 393,102 392,102 392,102 392,102 392,102 392,102 392,101 391,101 391,101 391,101 391,101 391,101 391,101 391,101 391,101 391,101 390,101 390,101 390,101 390,101 390,101 390,101 389,101 389,101 389,101 389,101 389,101 389,101 389,101 389,101 389,101 388,101 388,101 388,101 388,101 388,101 388,101 388,101 388,101 388,101 388,101 388,101 388,101 388,101 388,101 388,101 388,101 388,101 388,101 388,101 388,101 388,101 389,101 389,102 389,102 389,102 389,102 389,102 389,102 389,102 389,102 389,102 389,102 389,102 389,102 389,102 389,102 389,103 389,103 390,103 390,103 390,103 390,103 390,103 390,103 390,103 390,103 390,103 390,103 390,103 390,103 390,103 390,103 390,103 390,103 390,104 390,104 390,104 390,104 390,104 390,104 390,104 390,104 390,104 390,104 391,104 391,104 391,104 391,104 391,104 391,104 391,104 391,104 391,104 391,104 391,104 392,104 392,104 392,104 392,104 392,104 391,104 391,105 391,105 392,105 392,105 392,105 392,105 392,105 392,105 392,105 392,105 392,105 392,105 392,105 392,105 392,105 392,105 392,105 392,105 392,105 392,105 392,105 392,105 392,106 391,106 391,106 392,106 392,106 392,106 392,106 392,106 392,106 392,106 392,106 392,106 392,106 392,106 392,106 392,106 392,106 392,106 392,106 392,106 392,106 392,106 392,106 392,106 393,106 393,107 393,107 393,107 393,107 392,107 392,107 392,107 392,107 392,107 392,107 393,107 393,107 393,107 393,107 393,107 393,107 394,107 394,107 394,107 394,107 394,107 394,107 394,107 394,107 394,108 394,108 394,108 394,108 394,108 394,108 394,108 394,108 394,108 394,108 394,108 394,108 394,108 395,108 395,108 395,108 395,108 395,108 395,108 395,108 395,108 395,108 395,108 395,108 395,109 395,109 395,109 395,109 395,109 395,109 395,109 395,109 395,109 395,109 395,109 395,109 395,110 395,110 395,110 396,110 396,110 396,110 396,110 396,110 396,110 396,110 396,110 396,110 396,110 396,110 396,110 396,111 396,111 396,111 396,111 396,111 396,111 396,111 396,111 396,111 396,111 396,111 396,111 396,111 396,111 396,111 396,111 396,111 396,111 396,112 396,112 396,112 396,112 396,112 396,112 396,112 396,112 397,112 397,112 397,112 397,112 397,112 397,112 397,112 397,112 397,113 397,113 397,113 397,113 397,113 397,113 397,113 397,113 397,113 397,113 397,113 397,113 397,113 397,113 397,113 397,113 397,113 397,113 397,113 397,113 398,113 398,114 397,114 397,114 397,114 397,114 398,114 398,114 398,114 398,114 398,114 398,114 398,114 398,114 398,114 398,114 398,114 398,114 398,114 398,114 398,114 398,114 398,114 398,114 398,115 398,115 397,115 397,115 397,115 397,115 397,115 397,115 397,115 397,115 397,115 397,115 397,115 397,115 397,115 397,115 397,116 397,116 397,116 396,116 396,116 396,116 396,116 396,116 396,116 396,116 396,116 396,116 396,116 396,116 396,116 396,116 396,116 396,116 396,116 396,117 397,117 397,117 397,117 396,117 396,117 396,117 396,117 396,117 396,117 396,117 396,117 396,117 396,117 396,117 396,118 396,118 396,118 396,118 396,118 396,118 396,118 396,118 396,118 396,118 396,118 396,118 396,118 396,118 396,118 396,118 396,118 396,118 396,118 396,118 396,118 396,118 396,118 396,118 396,119 396,119 396,119 396,119 396,119 396,119 396,119 396,119 396,119 397,119 397,119 397,119 397,119 397,119 397,119 397,119 397,119 397,119 397,119 398,119 398,119 398,119 399,119 399,119 399,119 399,119 399,120 399,120 399,120 399,120 399,120 399,121 399,121 399,121 399,121 399,122 398,122 398,122 398,122 398,122 398,122 398,122 397,123 397,123 397,123 397,123 397,123 397,123 398,123 398,123 398,123 399,124 399,124 399,124 399,124 399,124 399,124 399,123 399,123 399,123 400,124 400,124 400,124 400,124 400,124 400,124 400,124 400,124 400,124 400,124 400,124 400,124 400,124 400,124 400,124 401,125 401,125 401,125 401,125 401,125 401,125 401,125 401,125 401,125 401,125 401,125 401,125 401,125 401,125 401,125 402,125 402,126 402,126 402,126 402,126 402,126 402,126 402,126 403,126 403,126 403,126 403,127 403,127 404,127 404,127 405,128 405,128 405,128 405,128 405,128 405,128 405,128 405,128 406,128 406,128 406,128 406,128 406,128 406,128 406,128 407,129 407,129 407,129 407,129 407,129 407,129 407,129 407,129 407,129 407,129 407,129 407,129 407,130 407,130 407,130 407,130 406,130 407,130 406,131 406,131 406,131 406,131 406,131 406,131 406,131 406,131 406,131 406,131 406,131 405,131 405,131 405,131 405,131 405,131 405,131 405,132 405,132 405,132 404,132 404,132 405,132 405,132 405,132 405,132 405,132 406,133 406,133 406,133 406,133 406,133 406,133 406,134 406,134 406,134 407,134 407,134 407,134 407,134 407,134 407,134 407,134 407,134 407,134 407,134 407,134 407,134 407,134 407,135 407,135 407,135 407,135 407,135 407,135 407,135 407,135 407,135 407,135 407,135 407,135 407,135 407,135 407,136 407,136 407,137 407,137 407,138 407,138 407,138 407,138 407,138 407,139 407,139 407,139 407,139 407,139 407,139 407,139 408,139 408,139 408,139 408,139 408,139 409,140 409,140 409,140 409,140 409,141 409,141 410,141 410,141 410,141 410,141 410,142 410,142 410,142 410,142 410,142 410,143 410,144 410,144 409,144 409,144 409,144 409,145 409,145 409,146 409,146 408,146 408,146 408,147 406,148 406,149 406,149 406,149 406,149 406,149 406,149 405,149 405,150 405,150 405,150 405,150 405,150 405,151 405,151 405,151 405,151 405,152 405,152 405,152 405,152 405,152 405,152 405,153 405,153 405,153 405,153 405,153 405,153 405,154 405,154 405,154 405,154 405,154 405,154 405,154 405,154 405,154 405,154 405,154 405,155 404,155 404,155 404,155 404,155 404,155 404,155 404,155 404,155 404,155 404,155 404,155 404,156 404,156 404,156 404,156 404,156 405,156 405,156 405,156 405,156 405,156 406,156 406,156 406,156 406,156 406,157 406,157 406,157 406,157 406,157 406,157 406,157 406,157 406,157 406,157 406,157 406,157 405,157 405,157 405,157 404,157 404,157 404,157 404,157 404,157 404,157 403,157 403,157 403,157 403,157 403,157 403,157 402,157 401,157 401,157 401,157 401,157 401,157 401,157 401,157 401,157 401,157 401,157 400,157 400,157 400,157 400,157 400,156 400,156 400,156 400,156 400,156 400,156 400,156 400,156 400,156 399,156 399,156 398,155 399,155 399,155 399,155 399,155 398,155 398,155 398,155 399,154 399,154 398,154 398,154 398,153 398,153 398,153 397,153 397,153 397,154 397,154 396,154 395,154 395,154 395,153 396,153 395,153 395,153 395,153 395,153 394,153 394,153 394,153 395,153 395,153 395,153 395,153 395,153 394,153 394,152 394,152 394,152 394,152 394,152 393,152 393,152 392,152 392,151 393,151 393,151 392,151 392,151 392,151 392,151 392,150 392,150 392,150 392,151 392,151 391,151 391,151 391,151 390,152 389,152 389,152 388,152 388,152 387,152 387,152 387,152 387,152 386,152 386,152 385,152 385,152 385,152 385,151 385,151 385,151 385,151 385,151 384,151 384,151 384,151 384,152 383,152 383,152 383,151 383,151 383,151 383,151 383,151 383,151 383,151 383,151 382,151 382,151 381,150 381,150 381,150 381,150 381,150 381,150 381,150 381,150 381,150 381,150 381,149 381,149 381,150 380,150 380,150 380,149 380,149 380,149 380,149 380,149 380,149 380,149 380,149 379,149 379,149 379,149 379,149 378,148 377,147 377,147 376,147 376,147 376,147 375,147 375,147 375,147 375,147 374,147 374,146 374,146 374,146 373,146 373,146 373,146 372,146 372,146 372,145 371,145 370,145 370,146 370,146 369,146 368,145 368,145 367,145 367,145 367,145 367,145 367,145 366,144 366,144 366,144 365,144 365,144 365,144 365,144 364,144 363,144 363,144 362,144 362,144 362,143 362,143 361,143 361,143 360,143 360,143 360,143 360,144 359,144 359,144 359,144 359,144 359,144 359,144 359,144 359,144 359,144 359,144 359,144 359,144 359,144 359,144 359,144 359,144 358,145 358,145 358,145 358,145 357,145 357,145 357,145 357,145 357,145 357,145 357,145 356,145 356,145 356,145 356,145 356,145 356,145 356,145 355,144 355,144 355,144 354,144 354,144 353,144 353,144 353,145 353,145 353,144 353,144 353,144 353,144 353,144 352,144 352,144 352,144 352,144 352,144 351,145 351,145 351,145 351,145 351,145 351,145 351,145 351,145 350,145 350,145 350,145 350,145 349,146 348,146 347,147 347,147 346,147 346,148 345,148 345,148 345,149 345,149 345,149 345,150 345,150 345,150 344,150 344,150 344,151 344,151 344,151 344,151 344,151 344,151 344,151 344,151 344,151 344,152 344,152 344,152 345,152 345,152 345,152 344,152 345,152 345,152 344,152 345,152 345,152 345,152 345,152 345,153 345,153 345,153 345,153 345,153 345,153 345,153 345,153 345,153 345,153 345,153 345,153 345,153 345,153 345,153 345,153 345,153 345,154 345,154 345,154 345,154 345,154 345,154 345,154 345,154 346,154 346,154 346,154 346,154 345,154 345,154 345,155 345,155 345,155 345,156 345,156 345,156 346,156 346,156 346,156 346,156 346,156 346,156 346,156 346,156 346,156 346,156 346,156 346,156 346,157 346,157 346,157 346,157 346,157 346,157 346,157 346,157 346,157 346,157 347,157 347,157 346,157 346,157 346,157 346,157 346,157 346,157 347,157 347,157 347,157 347,158 347,158 347,158 347,158 347,158 347,158 347,158 347,158 347,158 347,158 347,158 347,158 347,158 347,158 347,158 347,158 347,158 347,158 347,158 347,158 347,158 347,158 347,158 347,158 346,158 346,158 346,158 346,158 346,158 346,158 346,158 346,158 347,158 347,158 347,158 347,157 347,157 346,157 346,157 346,157 346,157 346,157 346,157 346,157 346,157 346,157 346,157 346,157 346,157 346,157 346,157 346,157 346,157 346,157 346,157 346,157 346,157 346,157 346,157 346,157 346,157 346,158 346,158 346,158 346,158 345,158 345,158 345,158 345,158 345,158 345,158 344,158 344,158 344,158 344,158 344,158 344,158 344,158 344,158 344,158 344,158 344,158 344,158 344,158 343,158 343,158 343,158 343,158 343,158 343,158 343,158 343,158 343,158 343,158 343,158 343,158 343,158 343,158 343,158 342,158 342,158 342,158 342,158 342,158 342,158 342,158 342,158 341,158 341,158 341,158 341,158 341,158 341,158 341,158 341,158 341,158 341,158 341,158 341,158 341,158 341,158 341,158 341,159 340,159 340,159 340,159 340,159 340,159 340,159 340,159 340,159 340,159 341,159 341,159 341,159 341,159 341,159 340,159 340,159 340,159 340,159 340,159 340,159 340,159 340,159 340,159 340,159 340,159 340,160 340,160 340,160 340,160 340,160 340,160 340,160 340,160 340,160 340,160 340,160 340,160 339,160 339,160 339,160 339,160 339,160 339,160 339,160 339,160 339,161 339,161 339,161 339,161 339,161 339,161 339,162 339,162 338,162 338,162 338,162 337,163 337,163 337,162 337,163 337,163 336,163 336,163 336,162 337,162 336,162 336,162 336,162 336,162 336,162 335,162 335,162 335,162 335,162 334,163 334,163 334,163 334,163 334,163 333,163 333,163 333,163 332,163 332,163 332,163 332,163 332,163 332,163 332,163 332,163 331,163 331,163 331,163 332,163 332,163 332,162 332,162 331,162 331,162 331,163 331,163 330,163 330,163 330,163 329,163 330,163 330,163 329,163 329,163 329,163 328,163 328,163 328,163 328,163 327,163 327,163 327,163 326,163 326,163 326,163 326,163 326,163 326,163 326,163 326,163 326,163 326,163 326,163 326,163 325,163 325,163 324,163 324,163 324,163 324,163 323,163 323,163 323,163 323,163 323,163 323,163 322,163 322,163 322,163 322,163 322,163 322,163 322,163 321,163 321,163 321,163 321,162 321,162 321,163 321,163 321,162 321,162 321,162 321,162 320,162 320,162 320,162 320,162 320,162 320,161 320,161 320,161 320,161 319,161 319,161 319,161 319,161 319,161 319,161 319,161 319,161 319,161 319,161 319,161 318,161 318,161 317,161 317,161 317,161 318,161 318,161 317,161 317,161 317,161 317,161 317,161 317,161 317,161 316,161 316,161 316,161 316,161 316,161 316,161 316,161 316,161 316,161 316,161 316,161 315,161 315,161 315,161 315,161 315,161 315,161 315,161 315,162 315,162 314,162 314,162 314,162 313,162 313,162 313,162 313,162 313,163 313,163 312,163 312,163 312,162 312,163 312,162 312,162 312,162 312,162 312,162 312,162 312,162 312,162 311,162 311,162 311,162 311,162 311,163 311,163 311,163 311,163 311,163 311,163 311,163 311,163 311,163 311,163 311,163 310,163 310,163 310,163 310,163 310,163 310,163 310,164 310,164 309,164 309,164 309,164 309,164 309,164 309,164 307,164 307,164 306,163 305,163 305,163 305,163 305,163 305,164 305,164 305,163 305,163 305,164 305,164 305,164 305,164 305,164 305,163 305,163 305,163 304,164 304,163 304,163 304,163 304,163 304,163 304,163 303,163 304,163 304,164 304,164 303,164 303,164 303,164 302,164 302,164 302,165 302,165 302,165 302,164 302,164 301,165 301,165 301,165 301,164 301,164 301,164 301,164 300,164 300,165 300,165 299,165 299,164 299,164 299,164 299,164 299,164 299,164 299,165 298,165 298,164 298,164 298,164 298,165 298,165 298,165 298,165 298,165 298,165 298,165 297,165 297,165 297,165 297,165 297,165 297,165 297,165 296,165 296,165 296,165 295,165 295,165 295,165 295,165 295,165 294,165 294,165 293,165 293,165 293,165 293,165 293,164 293,164 293,164 293,164 293,164 292,165 292,164 291,165 291,165 291,164 291,164 291,164 291,164 291,164 291,164 291,164 291,164 291,164 291,164 290,164 290,164 290,164 289,164 289,163 289,163 289,163 288,163 288,163 288,163 288,163 288,163 288,163 288,163 288,163 288,162 288,162 288,162 288,162 288,162 289,162 289,161 289,161 289,161 289,161 289,160 289,160 289,160 289,160 289,160 289,160 289,159 290,159 290,159 290,159 290,159 289,159 289,159 289,159 289,159 289,159 289,159 288,159 288,159 288,159 288,159 288,159 288,159 288,159 288,159 288,159 287,159 287,159 287,159 287,159 287,159 286,159 286,159 286,159 286,159 286,159 286,158 286,158 286,158 286,158 286,158 287,158 286,158 287,158 287,158 287,158 287,157 287,157 287,157 287,157 287,157 287,157 287,157 287,157 287,157 287,157 287,157 287,157 287,156 287,156 287,156 288,156 288,156 287,156 287,156 288,156 288,156 288,156 288,156 288,156 288,156 288,156 288,156 288,156 288,156 288,156 288,156 288,156 288,156 288,156 288,155 288,155 288,155 288,155 288,155 288,155 288,155 289,155 289,155 289,155 289,155 289,155 288,155 288,155 289,155 289,154 289,154 289,154 289,154 289,154 289,154 289,154 289,154 289,154 289,154 289,154 289,154 289,153 289,153 289,153 289,153 289,153 289,153 289,153 289,153 289,153 289,153 289,153 289,153 289,153 289,153 289,153 289,153 289,153 289,153 289,152 289,152 289,152 289,152 289,152 289,152 289,152 289,152 289,152 289,152 289,152 289,151 289,151 289,151 289,151 289,151 289,151 289,151 289,151 290,151 290,151 290,151 290,151 290,151 290,151 290,151 290,151 290,151 290,151 290,150 291,150 291,150 290,150 290,150 291,150 290,150 290,150 290,150 290,150 290,150 290,149 290,149 290,149 290,149 290,149 290,149 290,149 290,149 289,149 289,149 289,149 289,149 288,149 288,149 288,149 288,149 288,148 288,148 288,148 288,148 288,148 288,148 288,148 288,148 288,148 288,148 287,148 288,148 288,148 288,148 288,148 288,148 287,148 287,148 287,148 287,148 287,148 287,148 287,148 287,148 287,148 287,148 287,148 287,147 287,147 287,147 287,147 287,147 287,147 287,147 287,147 287,147 287,147 287,147 287,147 287,147 287,147 287,147 287,147 287,147 287,147 287,147 287,147 287,147 287,147 287,147 287,147 287,147 287,147 287,147 287,147 287,147 287,147 287,147 287,147 287,147 287,147 287,147 287,147 287,147 287,147 287,147 287,147 287,147 287,147 287,146 287,146 287,146 287,146 287,146 287,146 287,146 287,146 286,146 286,146 286,146 286,146 286,146 286,146 286,146 286,146 286,146 286,146 286,146 286,146 286,146 286,146 285,147 285,146 285,146 285,146 285,146 285,147 285,147 285,147 285,147 285,147 284,147 284,147 284,147 284,146 284,146 284,146 284,146 284,146 284,146 284,146 284,146 284,146 284,146 284,146 284,146 284,146 284,146 284,146 284,146 284,146 284,146 284,146 284,146 284,146 284,146 284,146 283,146 283,146 284,146 284,146 284,146 284,146 284,146 284,146 284,146 284,146 284,145 284,145 284,146 284,146 283,146 283,146 283,146 283,146 283,146 283,146 283,146 283,146 283,146 283,146 283,146 283,145 283,145 283,145 283,145 283,145 283,145 283,145 283,145 283,145 283,145 283,145 283,145 283,145 283,145 283,145 283,145 283,145 283,145 283,145 283,145 283,145 282,145 282,145 282,145 282,145 282,145 282,145 282,145 282,145 282,145 282,145 282,145 282,145 282,145 282,145 282,145 282,145 282,145 282,144 282,144 282,144 282,144 282,144 282,144 282,144 282,144 282,144 283,144 283,144 283,144 283,144 283,144 283,144 283,144 283,144 283,144 283,144 283,143 283,143 283,143 284,143 284,143 284,143 284,143 284,143 284,143 284,143 284,143 284,143 284,142 284,142 284,142 284,142 284,142 284,142 283,142 283,142 283,142 283,142 283,142 283,142 283,142 283,142 283,142 283,142 283,142 283,142 283,142 283,142 283,142 283,142 283,142 283,141 283,141 283,141 283,141 283,141 283,141 283,141 283,141 283,141 283,141 283,141 283,141 282,141 282,141 282,141 282,141 282,141 282,141 282,141 282,141 282,141 282,141 282,141 282,141 282,141 282,141 281,141 280,140 280,140 281,140 281,140 281,140 281,140 281,141 282,141 282,141 282,141 282,141 282,141 282,141 283,140 284,140 284,140 284,140 284,140 285,139 285,139 285,139 285,139 284,139 284,139 284,139 285,139 285,139 285,139 285,139 285,139 286,139 286,139 286,139 286,139 286,139 286,139 286,139 287,139 287,139 287,139 287,139 287,139 287,139 287,139 287,139 287,139 287,139 288,139 288,139 288,139 288,139 288,139 288,139 289,139 289,139 289,139 289,139 289,139 289,138 290,139 290,139 290,139 291,139 291,138 291,138 291,138 291,138 291,138 291,138 292,138 292,138 292,138 292,138 292,138 292,138 292,138 292,138 292,138 293,138 293,138 293,139 293,139 293,139 293,139 293,139 293,139 293,139 293,139 293,139 293,139 294,139 294,139 294,139 294,139 294,139 295,139 295,139 295,139 295,139 295,139 295,139 295,139 296,139 297,139 297,139 297,139 298,139 298,140 298,140 298,140 298,140 298,140 299,140 299,140 299,140 299,140 299,140 300,140 300,140 300,140 301,140 301,140 301,140 301,141 302,140 302,140 302,140 302,140 303,140 303,140 303,140 303,140 303,140 304,140 304,140 304,140 304,140 305,140 305,140 305,140 305,140 305,140 306,140 306,139 306,139 306,139 306,139 306,139 305,139 305,139 305,139 304,139 304,139 304,139 303,139 303,139 302,139 302,139 302,139 301,139 301,138 301,138 302,138 302,138 303,137 303,137 304,137 304,137 304,137 305,137 305,136 306,136 306,136 306,136 307,136 307,136 307,136 308,136 308,135 309,135 309,135 309,135 309,135 309,135 309,135 309,135 309,134 309,134 309,135 309,135 308,135 308,135 308,135 307,135 307,135 307,136 306,136 306,136 305,136 305,136 305,136 304,136 304,136 304,136 304,136 303,136 303,136 303,136 303,137 303,137 303,137 302,137 302,137 302,137 302,137 301,137 301,137 301,137 300,137 300,137 300,137 299,137 299,137 299,137 299,137 298,137 298,137 298,137 298,137 297,137 297,137 297,137 296,137 296,137 296,137 296,137 295,137 294,137 294,137 294,137 294,137 294,137 294,137 294,137 294,137 294,137 294,137 293,137 293,137 293,137 293,137 293,137 292,137 292,137 292,137 292,137 292,137 291,137 291,137 291,137 291,137 290,137 290,137 290,137 289,137 289,137 289,137 289,137 289,137 289,137 288,137 288,137 288,137 288,137 288,137 288,137 288,137 288,137 288,137 288,137 288,137 287,137 287,137 287,137 287,137 287,137 287,137 287,137 287,137 287,137 287,137 287,137 287,137 286,137 286,137 286,137 286,137 286,137 286,137 286,137 286,137 286,137 286,137 286,137 286,137 285,137 285,137 285,137 285,137 285,137 285,137 285,137 285,137 285,137 285,137 285,137 284,137 284,137 284,138 284,138 284,138 284,138 284,138 284,138 284,138 284,138 284,138 284,138 284,138 284,138 283,138 283,138 283,138 283,138 283,138 283,138 283,138 283,138 283,138 283,138 283,138 283,138 283,138 283,138 283,138 283,138 282,138 282,138 282,138 282,138 282,138 282,138 282,138 282,138 282,138 282,138 282,138 282,138 282,138 282,138 281,138 281,138 281,138 281,138 281,138 281,139 281,139 281,138 281,138 281,138 281,138 281,138 281,138 281,139 281,139 281,139 281,139 280,139 280,139 280,139 280,139 280,139 280,139 280,139 280,139 280,139 280,139 280,139 280,139 280,139 280,139 280,139 280,139 279,139 279,139 279,139 279,139 279,139 279,139 279,139 279,139 279,138 279,139 279,139 279,139 279,139 279,139 279,139 279,139 279,139 279,139 279,139 278,139 278,139 278,139 278,139 278,139 278,139 278,139 278,139 278,139 278,139 278,139 278,139 278,139 278,139 278,139 278,139 278,138 278,138 278,138 278,138 278,138 278,138 278,138 277,138 277,138 277,138 277,138 277,138 277,138 277,138 277,138 276,138 276,138 276,138 276,138 276,138 276,138 276,138 276,138 276,138 276,138 275,138 275,138 275,138 275,138 275,138 275,138 275,138 275,138 275,138 275,138 275,138 275,138 275,138 275,138 275,138 275,138 275,138 275,138 275,138 275,138 276,138 276,138 276,138 276,138 276,138 276,138 276,138 276,138 276,138 276,138 277,138 277,138 277,138 277,138 277,138 277,138 277,138 277,138 277,138 277,137 277,137 277,137 277,137 277,137 277,137 277,137 277,137 277,137 277,137 278,137 278,137 278,137 278,137 278,137 278,137 278,137 278,137 278,137 278,137 278,137 278,136 278,136 278,136 278,136 278,136 278,136 278,136 278,136 278,136 278,136 278,136 278,136 278,136 278,135 279,135 279,135 279,135 279,135 279,135 278,135 278,135 278,135 278,135 278,135 278,135 277,135 277,135 277,135 277,135 276,135 276,135 277,135 277,135 277,134 277,134 277,134 277,134 277,134 277,134 277,134 277,134 278,133 278,133 278,133 278,133 279,133 279,133 279,134 279,134 279,134 279,134 280,134 280,134 280,134 280,134 280,134 280,134 280,134 280,134 280,135 280,135 280,135 280,135 280,135 280,135 280,135 281,135 281,135 281,135 281,135 281,135 282,135 282,135 282,135 282,135 282,135 282,135 282,135 282,135 282,135 282,136 282,136 282,136 283,136 283,136 283,136 283,136 283,136 283,136 283,136 283,136 283,136 283,136 283,136 283,136 283,136 283,136 283,136 283,136 283,137 283,137 283,137 283,137 284,136 284,136 284,136 284,136 284,136 284,136 284,136 284,137 284,137 284,137 284,137 284,137 284,136 285,136 285,136 285,136 285,136 285,136 285,136 285,136 285,136 285,136 286,136 286,136 286,136 286,137 286,137 286,137 286,137 286,137 286,137 286,136 286,136 286,137 286,136 286,136 286,136 286,136 286,136 287,136 287,136 287,136 287,136 287,137 287,136 287,136 287,136 287,136 287,136 287,136 287,136 287,136 287,136 287,136 287,136 287,136 288,136 288,136 288,136 288,136 288,136 289,136 289,136 289,136 289,136 290,136 290,136 290,136 290,136 291,136 291,136 291,136 291,136 291,136 291,136 292,135 292,135 292,135 293,135 293,134 293,134 293,134 293,134 293,134 294,134 294,134 294,134 294,134 295,133 295,133 295,133 295,133 296,132 296,132 296,132 296,132 296,132 296,131 296,131 296,131 297,131 297,131 297,131 297,131 297,130 298,130 298,130 298,130 298,130 298,130 298,130 298,130 298,130 298,129 298,129 298,129 298,129 298,129 298,129 298,129 298,129 298,129 298,128 298,128 298,128 297,128 297,128 297,128 297,128 297,128 297,127 297,127 297,127 297,127 297,127 297,127 297,127 297,127 297,127 297,127 297,127 297,127 297,127 296,127 296,126 296,126 297,126 297,126 297,126 297,126 297,126 297,126 297,126 297,126 297,126 297,126 298,126 298,126 298,126 297,125 297,125 297,125 297,125 297,125 297,125 297,125 297,125 297,125 296,125 296,125 296,125 296,125 296,125 296,125 296,125 295,125 295,125 295,125 295,124 295,125 295,124 295,124 295,124 295,124 294,124 294,124 294,124 294,124 294,124 294,124 294,124 294,124 294,124 294,123 294,123 294,123 295,123 295,123 295,123 295,123 296,123 296,123 296,123 296,123 296,123 296,123 296,122 296,122 296,122 296,122 296,122 296,122 296,122 296,122 296,122 296,122 295,122 295,121 295,121 295,121 295,121 295,121 295,121 295,121 295,121 295,121 294,121 294,121 294,121 294,121 293,121 293,121 293,121 293,121 292,121 292,121 292,121 292,121 292,121 292,121 291,121 291,121 291,121 291,121 291,121 291,121 291,121 291,121 291,121 291,121 290,121 290,121 290,121 290,121 290,120 290,120 290,120 290,120 290,120 290,120 290,120 290,120 290,120 290,120 290,120 290,120 290,120 289,120 289,120 289,120 289,119 289,119 289,119 289,119 289,119 289,119 289,119 288,118 289,118 289,118 289,118 288,118 288,118 289,118 289,118 289,118 289,118 289,118 288,118 288,118 288,118 288,118 288,118 288,118 288,118 288,118 288,118 288,117 288,118 288,117 288,117 287,117 287,117 287,117 287,117 287,117 287,117 287,117 286,117 286,117 286,117 286,117 286,117 286,116 286,116 286,116 286,116 286,116 285,116 285,116 286,116 285,116 285,116 286,116 285,115 285,115 285,115 285,115 285,115 285,115 285,115 285,115 286,114 286,114 286,114 286,114 286,114 286,114 287,114 287,114 287,114 287,114 287,114 287,114 287,114 287,114 287,114 287,114 287,114 287,113 287,113 287,113 287,113 287,113 287,113 287,113 287,113 287,113 287,113 287,113 287,113 287,113 287,113 287,113 287,113 287,113 287,113 287,113 287,113 287,112 287,112 287,112 287,112 287,112 287,112 287,112 287,112 287,112 287,112 287,111 287,111 287,111 287,111 287,111 287,111 288,111 288,111 287,111 287,110 288,110 288,110 288,110 288,110 287,110 287,110 287,110 287,110 287,110 287,110 287,110 287,110 287,110 287,109 287,109 287,109 287,109 288,109 288,109 287,109 287,109 287,109 287,109 287,109 287,108 287,108 287,108 287,108 287,108 287,108 287,108 287,108 287,108 287,108 286,108 286,108 286,108 287,107 287,107 287,107 287,107 287,107 287,107 288,107 288,106 288,106 288,106 288,106 288,106 288,106 288,106 288,106 287,106 288,106 288,106 288,105 288,105 288,105 288,105 288,104 288,104 287,104 287,104 286,103 286,103 286,103 286,103 286,103 285,103 285,103 285,103 285,103 284,103 284,103 284,103 284,103 284,103 284,103 284,103 284,104 284,104 284,104 284,104 284,104 284,104 284,104 283,104 283,104 283,104 283,104 283,104 282,104 282,105 282,105 282,105 282,105 282,105 282,105 282,105 282,105 281,105 281,105 281,105 281,105 281,105 280,105 280,105 280,105 280,105 280,105 280,105 280,105 280,105 280,105 280,105 280,105 279,105 279,105 279,105 279,105 279,105 279,105 279,105 279,105 279,105 279,104 279,104 278,104 278,104 278,104 279,104 279,104 279,104 279,104 279,104 279,104 280,104 280,103 280,103 280,103 280,103 280,103 279,103 280,103 280,103 280,103 280,103 280,103 279,103 279,103 279,103 279,103 279,103 279,102 279,102 279,102 279,102 279,102 278,102 278,102 278,102 278,101 278,101 278,101 278,101 277,101 277,101 277,101 277,101 276,101 276,101 276,101 276,101 276,100 276,100 276,100 276,100 276,100 275,100 275,100 275,100 275,100 275,100 274,100 274,100 274,100 274,99 274,99 274,99 274,99 273,99 273,99 273,98 273,98 272,98 272,98 272,98 272,99 272,99 272,99 272,99 272,99 272,99 271,99 271,99 271,99 271,99 271,99 271,99 271,99 271,99 271,99 271,99 271,99 271,99 271,99 271,99 271,99 271,99 271,99 271,99 271,99 271,98 271,98 271,98 271,98 271,98 271,98 271,98 271,98 271,98 271,98 271,98 271,97 271,97 271,97 271,97 271,97 271,96 271,96 272,96 272,96 272,96 272,96 272,96 272,96 272,96 272,96 272,96 272,96 272,96 272,96 272,96 272,96 272,96 272,96 272,96 272,96 272,96 272,96 272,96 272,95 272,95 272,96 272,96 272,96 273,96 273,96 273,96 273,96 273,95 273,95 273,95 273,95 273,95 273,95 273,95 273,95 273,95 273,95 273,94 273,94 273,94 273,94 273,94 273,94 274,94 274,94 274,93 274,93 274,93 274,93 274,93 274,92 274,92 274,92 274,92 274,92 274,92 274,92 273,92 273,92 273,92 273,92 274,92 274,92 274,92 274,92 274,92 273,92 273,92 273,92 274,92 274,92 274,92 274,92 274,92 275,92 275,92 275,92 275,92 275,92 275,92 275,91 275,91 275,91 275,91 275,91 276,91 276,91 276,91 276,91 276,91 276,91 276,91 276,91 276,90 277,90 277,90 277,90 277,90 277,90 277,90 277,90 277,89 277,89 277,89 277,89 277,89 277,89 277,89 277,88 277,88 277,88 277,88 277,88 278,88 278,88 278,87 278,87 278,87 278,87 278,87 278,87 278,87 278,87 278,86 278,86 278,86 278,86 278,86 278,86 278,86 279,85 279,85 279,85 279,85 279,85 279,85 280,85 280,85 279,84 279,84 279,84 279,84 279,84 278,84 278,84 278,84 278,84 278,83 278,83 278,83 278,83 278,83 278,83 279,83 279,83 279,82 279,82 278,82 278,82 278,82 278,82 278,82 278,82 278,81 278,81 278,81 278,81 278,80 279,80 279,80 279,80 279,80 279,80 279,80 279,80 279,80 279,80 280,79 280,79 280,79 280,79 280,79 280,79 281,79 281,79 281,79 281,78 281,78 281,78 281,78 281,78 282,78 282,78 282,78 282,78 282,78 282,78 282,78 283,78 283,78 283,78 283,78 283,78 283,78 283,77 283,77 283,77 283,77 282,77 282,77 282,77 283,76 283,76 283,76 283,76 283,76 284,76 284,76 283,76 283,75 283,75 283,75 283,75 283,75 283,75 283,75 283,75 284,75 284,75 284,75 284,75 285,75 285,75 285,75 285,75 285,75 285,75 286,75 286,74 286,74 286,74 286,74 285,74 285,74 286,74 286,74 285,74 285,73 285,73 285,73 285,73 284,73 284,73 284,72 284,72 283,72 283,73 283,73 283,73 283,73 282,73 282,73 282,73 282,73 282,73 282,73 282,73 282,74 282,74 282,74 282,74 281,74 281,74 281,75 281,75 281,75 281,75 281,75 281,75 281,75 281,75 281,75 281,75 281,75 281,74 281,74 281,74 281,74 281,74 281,74 281,73 281,74 280,73 280,73 280,73 280,73 280,73 280,73 280,73 281,73 281,73 281,73 281,73 281,73 281,73 282,73 282,72 282,72 282,72 282,72 282,72 282,72 283,72 283,72 283,72 283,72 284,72 284,72 284,71 284,71 284,71 284,71 284,71 284,70 284,70 284,70 284,70 284,70 284,70 283,70 283,70 283,70 283,70 283,69 283,69 283,69 283,69 283,69 283,69 283,69 283,69 283,69 283,69 283,69 284,69 284,69 284,69 284,68 284,68 284,68 284,68 284,68 284,68 285,68 285,68 285,68 285,68 285,68 285,68 285,68 286,68 286,68 286,68 286,68 286,68 286,68 286,68 286,68 286,68 286,68 286,68 286,67 286,67 286,67 286,67 286,67 287,67 287,67 287,67 287,66 287,66 288,66 288,66 288,66 288,66 288,66 288,66 288,66 289,66 289,66 289,66 289,66 289,66 289,66 289,65 289,65 289,65 289,65 289,65 289,65 289,65 290,65 290,65 290,64 290,64 290,64 290,64 290,64 290,64 290,63 290,63 290,63 290,63 290,63 290,62 290,62 290,62 290,62 290,62 290,62 290,62 290,62 290,61 290,61 290,61 290,61 290,61 291,61 291,61 291,60 291,60 291,60 290,60 290,60 290,60 290,60 290,60 290,60 289,59 290,59 290,59 290,59 290,59 291,60 291,60 291,60 291,60 291,60 291,60 291,60 291,60 291,60 292,60 292,60 292,60 292,60 292,60 293,60 293,60 293,60 293,60 293,59 293,59 293,59 293,59 293,59 293,59 293,59 293,59 293,58 293,58 293,58 293,58 294,58 294,58 294,58 294,58 294,58 294,57 295,57 295,57 295,57 295,57 295,57 295,57 295,57 295,56 294,56 294,56 295,56 295,56 295,56 295,56 295,56 295,56 296,56 296,56 296,56 296,56 297,56 297,56 297,56 297,56 297,56 297,56 297,56 297,56 297,55 297,55 297,55 297,55 297,55 297,55 297,55 297,55 297,55 297,54 297,54 297,54 298,55 298,55 298,55 298,55 298,55 298,55 298,55 298,55 298,55 299,55 299,55 299,55 300,55 300,55 301,55 301,55 301,56 301,56 300,56 300,56 301,56 301,56 301,56 301,56 301,56 301,56 301,56 301,56 301,57 301,57 301,57 301,57 301,57 301,57 301,57 301,57 301,57 301,58 301,58 301,58 301,58 301,58 301,58 301,58 300,58 300,58 300,58 300,58 300,59 300,59 300,59 300,59 299,59 300,59 299,59 299,60 299,60 299,60 299,60 299,60 299,60 299,61 299,61 298,61 298,61 298,62 298,62 298,62 299,62 299,62 299,62 299,61 299,61 299,61 300,61 300,61 300,61 300,61 299,61 299,61 299,61 300,60 300,60 300,60 300,60 300,59 300,59 300,59 300,59 300,59 301,59 301,59 301,59 301,59 301,59 301,59 301,58 301,58 301,58 301,58 302,58 302,57 302,57 302,57 303,57 303,57 303,58 303,58 303,58 303,58 303,58 303,58 304,58 304,58 304,58 304,58 304,58 304,58 304,57 303,57 303,57 303,57 303,57 303,57 303,57 303,57 303,56 303,56 303,56 303,56 303,56 303,56 304,56 304,56 304,56 304,55 304,55 304,55 304,55 304,55 304,55 304,54 304,54 304,54 304,54 304,54 303,54 304,54 304,54 304,54 304,54 304,54 304,54 304,54 304,54 304,54 305,54 305,53 305,53 305,53 305,53 305,53 305,53 306,53 306,53 306,53 306,53 306,53 307,53 307,53 307,53 307,53 307,53 307,53 308,53 308,53 308,53 308,53 308,53 308,53 308,54 308,54 308,54 308,54 308,54 308,54 308,54 309,53 309,53 309,53 309,53 309,53 309,53 309,53 309,53 310,53 310,53 310,53 310,53 311,53 311,52 311,52 312,52 312,52 312,52 312,52 312,53 313,53 313,53 313,53 313,53 314,53 314,53 314,53 314,53 314,53 314,53 314,54 314,54 314,54 314,54 314,54 314,53 314,53 314,53 315,53 315,53 315,53 315,53 315,53 316,53 316,53 316,53 316,53 316,53 316,53 316,53 317,53 317,53 317,53 317,53 317,53 317,53 317,52 317,52 317,52 317,52 317,52 317,52 318,52 318,52 318,53 318,53 318,53 319,53 319,53 319,53 319,53 319,53 320,53 320,53 320,53 320,53 320,53 320,52 319,52 319,52 319,52 319,52 319,52 320,52 320,52 320,52 321,51 321,51 321,51 321,51 321,51 321,51 321,51 321,51 322,51 322,51 322,51 322,51 322,51 322,51 322,51 323,51 323,51 323,51 323,51 323,51 324,51 324,51 325,50 325,50 325,51 325,51 325,51 326,51 326,51 326,51 326,51 326,51 326,51 327,51 327,51 327,51 328,51 328,51 328,51 328,51 328,50 328,50 328,50 328,50 328,50 329,50 329,50 329,50 330,50 330,50 330,51 331,51 331,51 331,51 331,52 331,52 331,52 331,53 331,53 331,53 331,53 331,53 331,54 331,54 331,54 332,54 332,54 332,54 332,54 331,54 331,55 331,55 332,55 332,55 332,55 332,55 332,55 332,55 332,55 332,54 332,54 332,54 332,54 332,54 332,54 331,54 331,54 331,53 331,53 331,53 331,53 331,53 331,52 331,52 331,52 332,52 332,52 331,52 331,52 331,52 331,52 331,52 331,51 331,51 331,51 331,51 331,51 331,51 331,51 331,50 331,50 331,50 330,50 330,50 330,50 330,50 329,50 329,50 329,50 328,50 328,50 328,50 327,50 327,50 327,50 327,50 326,50 326,50 326,50 326,50 326,50 326,49 326,49 326,50 326,50 325,50 325,50 325,50 324,50 324,50 324,50 324,50 323,50 323,50 323,50 323,50 323,50 322,50 322,50 322,50 322,50 322,50 322,50 322,50 321,50 321,50 321,50 321,50 321,50 320,50 320,50 320,50 320,50 319,50 319,50 319,51 319,51 318,51 318,51 318,51 318,51 318,51 318,51 317,51 317,51 317,51 317,52 317,52 316,52 317,51 316,51 316,51 317,51 316,51 316,51 316,51 316,52 316,52 316,52 316,52 315,52 315,52 315,52 315,52 315,52 315,51 314,51 314,51 314,51 314,51 314,51 314,52 314,52 314,52 314,52 314,52 313,52 313,52 313,52 312,52 312,52 312,52 311,52 311,52 311,52 311,52 311,51 311,51 311,51 310,52 310,52 310,52 310,52 310,52 310,52 310,52 310,52 309,52 309,52 309,52 309,52 309,52 308,52 308,52 308,52 308,52 307,52 307,52 307,52 307,52 307,52 307,52 307,52 307,52 307,52 307,52 307,52 307,52 306,51 306,51 306,51 306,51 306,51 306,51 306,51 306,51 306,51 306,51 306,51 306,51 306,51 306,51 306,51 305,51 305,51 305,51 305,51 305,51 305,51 305,51 305,51 305,51 305,51 305,51 304,52 304,52 304,51 303,51 303,52 303,52 303,52 303,52 303,52 303,52 303,52 303,52 303,52 302,52 302,52 302,52 302,52 302,52 302,52 302,52 302,52 302,52 302,52 302,52 302,52 302,52 302,52 302,52 302,52 302,52 302,52 302,52 301,51 301,51 301,51 301,51 301,51 301,51 301,51 301,51 301,51 301,52 301,52 301,52 301,52 301,52 301,52 301,52 301,52 301,52 301,52 301,52 301,52 301,52 302,52 302,52 302,52 302,52 302,52 302,52 302,52 302,52 302,52 302,52 302,52 302,52 302,52 302,52 302,52 302,52 302,52 302,52 302,52 302,52 302,53 302,53 302,53 302,53 302,53 302,53 302,53 302,53 302,53 302,53 302,53 302,53 302,53 302,53 302,53 302,53 302,53 302,53 302,53 301,53 302,53 301,53 301,53 301,53 301,54 301,54 301,54 301,54 301,54 301,54 301,54 301,54 301,54 300,54 300,54 300,54 300,54 300,54 300,54 300,54 300,54 299,54 299,54 299,54 299,54 299,54 299,54 299,54 299,54 299,54 299,54 299,54 299,54 299,54 299,54 299,54 299,54 299,54 299,54 299,54 299,54 299,54 298,54 298,54 298,54 298,54 298,54 298,54 298,54 298,54 298,54 298,54 298,54 298,54 298,54 298,54 298,54 299,54 299,54 298,53 298,53 298,53 298,53 298,53 298,53 298,53 298,53 297,53 297,53 297,53 297,53 297,53 297,53 297,53 297,53 297,53 296,53 296,53 296,52 296,52 296,52 296,52 296,52 296,52 296,52 295,52 295,52 295,52 295,52 295,52 295,52 296,52 296,51 296,51 295,51 295,51 295,51 295,51 295,51 295,51 295,51 295,51 295,51 295,51 295,51 295,51 295,50 295,50 295,50 295,50 295,50 295,50 295,50 294,50 294,50 294,50 294,50 294,50 294,50 294,50 294,50 294,50 293,50 293,50 293,50 293,50 293,50 293,50 292,50 292,49 292,49 292,49 292,49 292,49 292,49 292,49 292,48 293,48 293,48 293,48 293,48 293,48 293,48 293,48 293,48 292,48 292,48 292,48 292,48 292,48 292,48 292,48 292,47 292,47 292,47 292,47 291,47 291,47 291,48 291,48 291,47 290,47 290,47 290,47 290,47 290,47 290,47 290,47 290,47 290,47 290,47 290,47 290,47 290,47 291,47 291,47 291,47 291,47 291,47 291,47 291,47 291,47 291,47 291,46 292,46 291,46 292,46 292,46 292,46 292,46 292,46 292,46 292,46 292,46 292,46 293,46 293,46 293,46 293,46 293,46 293,46 293,46 293,46 293,46 293,45 293,45 293,45 293,45 292,45 292,45 292,45 292,45 292,45 292,45 292,45 292,45 292,44 292,44 291,44 291,44 291,44 291,44 291,44 291,44 290,44 290,44 290,44 290,44 290,44 290,44 290,44 290,44 290,44 290,43 290,43 290,43 290,43 290,43 289,43 289,43 289,43 289,43 289,43 289,43 289,43 289,43 289,43 288,43 288,43 288,43 288,43 288,43 288,43 287,43 287,43 287,43 287,43 287,43 287,43 287,43 287,43 287,43 287,43 287,43 287,43 288,43 288,43 288,43 288,43 288,43 288,43 288,43 288,43 288,43 288,43 288,43 288,43 289,43 289,43 289,43 289,42 289,42 289,42 289,42 289,41 289,41 289,41 289,41 289,40 289,40 289,40 288,40 288,40 288,40 288,40 288,40 288,40 288,40 287,40 287,40 287,40 287,40 287,40 287,40 286,40 286,40 286,40 286,39 286,39 286,39 286,39 286,39 286,39 286,39 286,39 286,39 287,39 287,39 287,38 286,38 286,38 286,38 286,38 286,38 286,38 286,38 286,38 286,37 286,37 286,37 286,37 286,37 286,37 286,37 286,37 286,37 287,37 287,37 287,37 287,36 287,36 287,36 287,36 287,36 287,36 286,36 287,36 287,36 286,36 286,36 286,36 286,35 286,35 286,35 286,35 285,35 285,35 285,35 285,35 285,35 285,35 285,35 285,35 285,35 285,35 285,35 285,35 285,35 285,35 285,35 285,35 285,34 285,34 285,34 285,34 285,34 285,34 285,34 285,34 285,34 285,34 285,33 285,33 285,33 284,33 284,33 284,33 284,33 284,33 283,33 283,33 283,33 283,33 283,33 283,32 283,32 283,32 283,32 283,32 283,32 283,32 283,31 283,31 283,31 283,31 283,31 284,31 284,31 284,31 284,31 284,31 284,31 284,31 284,31 285,31 285,31 285,31 286,30 286,30 286,30 286,30 286,30 286,29 286,29 286,29 285,29 285,29 285,29 285,29 285,29 285,28 285,28 285,28 285,28 285,28 284,28 284,28 284,28 284,28 284,28 284,28 284,27 284,27 284,27 284,27 284,27 284,27 284,27 285,27 284,27 285,27 285,27 285,27 285,27 285,27 285,27 285,27 286,27 286,27 286,27 286,27 286,27 286,27 286,27 286,27 286,26 286,26 286,26 286,26 286,26 286,26 286,26 286,26 286,26 287,26 287,25 287,25 287,25 287,25 288,25 288,25 288,25 288,25 288,25 288,25 289,25 289,25 289,25 289,25 289,25 289,25 289,25 289,25 289,25 289,25 289,25 289,24 290,24 290,24 290,24 290,24 290,24 290,24 290,25 291,24 291,24 291,24 291,24 291,24 291,24 291,24 291,24 292,24 292,24 292,24 292,24 292,24 292,24 293,24 293,23 293,23 293,23 293,23 293,23 293,23 293,23 293,23 293,23 293,23 293,22 293,22 293,22 293,22 293,22 293,22 293,22 293,22 292,21 292,21 292,21 292,21 292,21 291,21 291,21 291,21 291,21 291,21 291,21 291,21 291,21 291,20 291,20 291,20 291,20 291,20 291,20 291,20 291,20 291,20 291,20 291,20 291,20 291,19 291,19 291,19 291,19 291,19 291,19 291,19 291,19 291,19 291,19 291,19 291,19 291,18 291,18 291,18 291,18 290,18 290,18 290,18 290,18 290,18 289,18 289,18 289,18 289,18 289,18 289,18 289,18 289,18 289,19 289,19 288,19 288,19 288,19 288,19 288,19 288,19 288,19 288,19 288,18 288,18 288,18 288,18 287,18 287,18 287,18 286,18 286,18 286,18 286,19 286,19 286,19 286,19 286,19 286,19 286,19 286,19 286,19 286,19 286,19 286,19 286,19 285,19 285,19 285,19 285,19 285,19 285,19 285,18 285,18 284,18 284,18 284,18 284,18 285,18 285,18 285,18 285,18 285,18 285,18 286,18 286,18 286,18 286,17 286,17 287,17 287,17 287,17 287,17 287,17 287,17 287,17 287,17 287,17 286,17 286,16 286,16 286,16 286,16 286,16 286,16 286,16 286,16 286,16 286,16 286,16 286,16 286,16 286,16 286,16 286,16 286,16 286,16 286,16 286,16 286,16 287,16 287,16 287,16 287,16 287,16 287,16 287,16 287,16 287,16 287,16 287,16 287,16 288,16 288,16 288,16 288,16 288,16 288,16 288,16 288,16 288,16 288,16 289,16 289,16 289,16 289,16 289,16 289,16 289,16 289,16 289,16 290,16 290,16 290,16 290,16 290,17 290,17 290,17 290,17 290,17 290,17 290,17 290,17 290,17 290,17 290,18 291,18 291,18 291,18 291,17 291,17 291,18 291,18 291,18 291,18 292,18 292,18 292,18 292,18 292,18 293,18 293,18 293,18 293,18 294,17 294,17 295,17 295,16 296,16" id="2927" class="canton" fill="steelblue" stroke-width="1" stroke="white" geotype="canton" geoname="Saint-Renan" code_insee="2927" code_departement="29" nom_departement="Finistère" code_region="53" nom_region="Bretagne"/><polygon points="127,95 127,95 127,95 127,95 127,95 128,95 128,95 128,95 128,95 128,95 128,95 128,95 128,94 128,94 128,94 128,94 128,94 128,94 128,94 128,94 128,94 128,94 128,94 128,94 128,94 128,94 128,94 128,94 128,94 128,94 128,94 128,94 128,94 128,94 128,94 128,94 128,94 128,94 128,94 128,94 128,94 128,94 128,94 128,94 128,94 128,94 128,94 128,94 128,94 128,94 128,94 128,94 128,94 128,94 128,94 128,94 128,94 128,94 128,94 128,94 128,94 128,94 128,94 129,94 129,94 129,94 129,94 129,94 129,94 129,94 129,94 129,94 129,94 129,94 129,94 129,94 129,94 129,94 129,94 129,94 129,94 129,94 129,94 129,94 129,94 129,94 130,94 130,94 130,94 130,94 130,94 130,94 130,94 130,94 130,94 130,94 130,94 130,94 130,94 130,94 130,94 130,94 130,94 130,94 130,94 130,94 130,94 130,94 130,94 130,94 130,94 130,94 130,94 130,94 130,94 130,94 130,94 130,94 130,94 130,94 130,94 130,94 130,94 130,94 130,94 130,94 130,94 130,94 130,94 130,94 130,94 130,94 130,94 130,94 130,94 130,94 130,94 130,94 130,94 130,94 130,94 130,94 130,94 130,94 130,94 130,94 130,94 130,94 130,94 130,94 130,94 130,94 130,94 130,94 130,94 130,94 130,94 130,94 130,94 130,94 130,94 130,94 130,94 130,94 130,94 130,94 130,94 130,94 130,94 130,94 130,94 130,94 130,94 130,94 130,94 130,94 130,94 130,94 130,94 129,94 129,94 129,94 129,94 129,94 129,94 129,94 129,94 129,94 129,94 129,94 129,94 129,94 129,95 129,95 129,95 129,95 129,95 129,95 129,95 129,95 129,95 129,95 129,95 129,95 129,95 129,95 129,95 129,95 129,95 129,95 129,95 129,95 129,95 129,95 129,95 129,95 129,95 129,95 129,95 129,95 129,95 129,95 129,95 129,95 129,95 129,95 129,95 129,95 129,95 129,95 129,95 129,95 128,95 128,95 128,95 128,95 128,95 128,95 128,95 128,95 128,95 128,95 128,95 128,95 128,95 128,95 128,95 128,95 128,95 128,95 128,95 128,95 128,95 128,95 128,95 128,95 128,95 128,95 128,95 128,95 128,95 128,95 129,95 129,95 129,95 129,95 129,95 129,95 128,95 128,95 128,95 128,95 128,95 128,95 128,95 128,95 128,95 128,95 128,95 128,95 128,95 128,95 128,95 128,95 128,95 128,95 128,95 128,95 128,95 128,95 128,95 128,95 128,95 128,95 128,95 128,95 128,95 128,95 128,95 128,95 128,95 128,95 128,95 128,95 128,95 128,95 128,95 128,95 128,95 128,95 128,95 128,95 128,95 128,95 128,95 128,95 128,95 128,95 128,95 128,95 128,95 128,95 128,95 128,95 128,95 128,95 128,95 128,95 128,95 128,95 128,95 127,95 127,95 127,95 127,95 127,95" id="2927" class="canton" fill="steelblue" stroke-width="1" stroke="white" geotype="canton" geoname="Saint-Renan" code_insee="2927" code_departement="29" nom_departement="Finistère" code_region="53" nom_region="Bretagne"/><polygon points="158,126 158,125 158,125 159,125 159,125 159,125 159,125 159,125 159,125 159,125 159,125 159,125 159,125 159,126 159,126 159,126 158,126 158,126" id="2927" class="canton" fill="steelblue" stroke-width="1" stroke="white" geotype="canton" geoname="Saint-Renan" code_insee="2927" code_departement="29" nom_departement="Finistère" code_region="53" nom_region="Bretagne"/><polygon points="136,111 137,109 139,109 140,108 140,108 140,107 141,107 142,107 143,107 143,107 143,107 143,107 143,107 143,108 143,108 143,108 144,107 144,107 144,107 145,107 145,107 145,107 145,107 145,107 145,107 145,107 145,107 145,107 145,107 145,107 145,107 145,107 144,107 144,108 144,108 144,108 143,108 144,109 145,109 145,110 146,111 146,110 146,110 146,110 146,111 146,111 146,111 146,111 146,111 146,111 147,111 147,111 147,112 147,112 148,112 148,114 148,114 148,114 148,115 148,115 147,116 146,116 145,116 145,117 144,117 143,117 142,117 142,117 141,116 141,117 140,117 139,116 138,115 138,114 137,113 138,112 138,112 136,111" id="2927" class="canton" fill="steelblue" stroke-width="1" stroke="white" geotype="canton" geoname="Saint-Renan" code_insee="2927" code_departement="29" nom_departement="Finistère" code_region="53" nom_region="Bretagne"/></svg>