<?xml version="1.0" encoding="utf-8"?>
<svg version="1.1" id="svgmap" xmlns="http://www.w3.org/2000/svg" xmlns:xlink="http://www.w3.org/1999/xlink" x="0px" y="0px" width="100%" height="100%" viewBox="0 0 500 304">
<polygon points="11,174 12,174 15,173 28,166 31,164 34,162 34,162 34,161 35,161 35,159 36,155 37,153 38,146 35,140 35,139 36,138 40,136 42,135 44,135 46,136 52,136 55,135 56,134 59,133 67,128 69,125 72,124 75,119 75,116 75,114 78,113 84,110 90,108 91,107 93,107 94,106 95,104 96,104 98,103 99,102 103,101 108,100 115,97 118,95 122,92 125,89 129,82 129,81 130,81 131,81 131,82 132,82 133,81 135,81 136,81 139,80 141,79 141,78 143,77 144,75 145,75 146,74 147,75 150,74 151,72 152,72 153,71 153,70 154,71 155,72 156,73 158,74 160,74 161,74 163,73 168,74 169,74 170,73 172,72 175,73 176,72 177,72 179,71 181,71 182,71 184,71 188,71 189,70 190,69 191,68 191,66 192,65 194,64 197,63 199,64 204,63 207,61 209,62 213,63 214,62 217,59 218,59 220,60 221,60 222,59 223,58 223,57 230,57 230,59 230,60 231,59 236,59 239,58 243,58 259,53 263,52 265,51 277,49 285,47 288,46 291,45 299,40 326,20 351,1 352,0 353,1 354,2 355,3 357,6 358,7 362,10 363,11 365,13 367,16 370,18 371,20 372,21 374,23 376,24 380,28 381,29 385,32 386,34 387,34 389,36 390,38 391,38 395,41 396,43 400,46 401,47 405,50 406,51 407,52 408,53 410,54 411,57 414,59 415,61 419,63 420,65 420,66 422,66 423,67 424,68 425,69 426,71 428,71 428,72 428,73 428,73 429,74 430,75 430,76 432,78 433,79 434,80 435,82 436,82 438,83 439,85 440,86 441,87 442,88 443,89 444,91 445,93 446,93 446,94 446,95 447,96 448,97 449,99 450,100 451,101 452,102 453,104 454,106 455,107 456,108 457,110 459,111 459,111 459,112 460,113 461,114 462,115 463,118 464,119 465,119 465,120 465,121 466,122 467,124 468,126 469,127 470,128 470,129 470,130 471,131 472,133 472,133 472,134 473,135 474,137 475,140 476,141 476,142 476,143 477,144 478,148 478,149 480,153 482,158 482,159 483,161 483,163 485,171 489,182 491,189 494,195 495,199 496,204 496,209 497,217 498,220 497,224 497,232 498,234 497,241 496,244 497,246 497,250 497,254 498,257 498,261 499,264 499,269 500,271 500,274 500,275 498,275 497,274 496,274 492,270 489,269 488,268 486,268 484,268 482,268 480,269 477,270 474,272 472,273 470,273 467,274 463,273 461,273 459,271 458,270 457,268 456,265 456,263 458,259 458,258 458,257 457,256 456,254 454,253 452,251 450,251 449,250 448,250 445,250 442,250 440,249 439,248 438,247 437,246 436,245 436,244 436,243 435,242 435,241 433,240 431,239 429,239 427,238 426,238 424,238 422,239 421,239 420,239 419,239 418,239 418,238 417,236 417,235 416,234 415,234 415,234 414,234 413,234 412,234 412,235 411,236 410,237 410,237 409,238 409,238 408,238 407,238 406,237 404,237 403,236 402,235 400,233 400,232 399,232 398,231 398,231 397,230 396,230 396,230 395,230 395,230 394,231 393,231 393,232 392,233 390,237 388,238 384,242 383,243 382,243 381,243 380,244 379,244 379,245 378,245 378,245 377,245 376,244 375,243 374,243 372,242 371,242 369,243 368,243 366,243 365,243 364,242 363,241 363,240 363,237 363,237 362,236 362,235 360,234 358,234 356,233 353,234 350,235 349,235 349,236 349,240 346,245 345,246 344,247 342,247 340,247 339,247 338,246 337,246 336,245 334,243 333,241 331,239 329,238 328,238 327,238 326,237 325,237 322,238 319,238 317,238 314,239 313,240 312,240 311,241 307,244 306,245 305,245 300,248 298,249 296,249 294,250 292,251 290,252 289,252 289,253 288,253 288,255 287,257 287,258 286,259 282,260 280,261 276,264 272,266 269,266 266,267 262,268 260,268 258,267 257,267 255,267 250,268 243,270 243,270 242,271 242,271 242,273 241,273 240,273 238,274 237,273 236,272 235,271 234,271 233,272 231,273 229,275 228,277 226,282 224,284 223,285 220,287 218,288 217,289 215,290 207,295 202,298 199,299 199,300 198,300 199,302 198,302 198,302 197,303 193,303 192,303 190,304 189,304 188,304 185,304 182,303 181,303 179,303 178,303 177,302 176,302 175,300 173,297 173,294 173,291 172,289 172,287 172,287 172,286 172,285 172,285 171,284 171,284 171,284 171,283 170,283 170,283 169,283 169,283 169,283 168,283 168,283 167,283 167,283 166,283 166,283 165,284 164,284 163,285 162,286 162,286 162,286 162,287 162,287 161,288 161,288 161,289 160,289 160,289 159,290 158,290 157,290 155,291 155,291 154,291 154,291 153,291 153,291 151,290 150,290 150,289 149,289 149,289 149,289 149,288 148,287 147,286 147,286 146,284 144,282 144,281 143,280 142,279 142,279 141,278 141,278 141,277 140,276 139,276 139,275 139,275 138,274 138,273 137,273 136,271 135,270 133,269 133,269 132,268 132,268 131,268 131,268 130,267 129,267 129,267 128,267 127,267 126,267 125,268 125,268 124,268 124,268 123,268 123,268 123,269 122,269 122,270 121,270 121,270 121,271 121,271 121,272 120,273 120,274 120,274 120,275 120,275 120,275 120,276 120,276 120,276 120,276 119,276 118,277 117,277 117,277 116,277 115,277 114,278 113,278 112,278 111,278 111,278 110,278 110,278 110,278 109,278 109,278 107,278 106,278 105,278 104,278 103,278 102,278 100,278 100,278 99,278 98,278 97,278 96,278 95,278 94,278 93,278 93,278 93,279 92,279 92,280 92,279 91,280 90,280 90,280 89,280 89,280 88,281 88,281 88,281 87,282 87,282 87,282 85,283 84,283 84,283 83,283 83,283 82,283 82,283 81,282 80,282 80,282 79,281 78,281 77,281 77,281 76,281 76,281 76,281 75,281 75,281 74,280 74,280 73,280 73,280 73,280 73,280 72,280 72,280 72,280 72,280 71,280 70,280 70,280 69,280 69,280 68,280 67,280 67,279 66,279 65,279 65,279 64,279 64,279 63,279 63,279 62,279 62,278 62,278 61,278 61,277 60,277 60,277 59,276 59,276 58,276 56,276 55,275 52,274 52,274 51,273 51,272 51,272 51,271 49,268 47,265 44,260 44,260 44,260 44,260 39,257 35,254 31,251 30,251 30,250 30,250 30,249 29,249 29,249 28,249 28,249 27,249 15,244 10,242 13,235 12,230 11,224 10,219 10,219 10,219 8,217 6,215 4,213 2,211 0,208 1,206 2,204 2,202 5,195 5,195 5,188 5,187 5,185 5,185 7,184 7,184 7,183 9,181 9,179 11,174" id="02B06" class="canton" fill="steelblue" stroke-width="1" stroke="white" geotype="canton" geoname="Borgo" code_insee="02B06" code_departement="2B" nom_departement="Haute-Corse" code_region="94" nom_region="Corse"/></svg>