<?xml version="1.0" encoding="utf-8"?>
<svg version="1.1" id="svgmap" xmlns="http://www.w3.org/2000/svg" xmlns:xlink="http://www.w3.org/1999/xlink" x="0px" y="0px" width="100%" height="100%" viewBox="0 0 500 328">
<polygon points="323,13 325,13 326,13 327,13 328,12 329,12 330,13 331,13 334,12 335,12 335,12 336,12 336,12 337,13 338,13 339,13 341,14 341,14 342,13 343,13 346,12 347,11 347,10 348,9 349,9 351,9 352,8 352,9 352,6 355,3 355,1 355,0 357,0 359,1 360,1 365,3 368,6 371,13 373,18 373,23 372,27 375,26 375,25 379,24 383,22 384,22 385,22 386,22 387,22 388,22 389,22 391,20 392,19 393,19 394,18 395,17 396,17 396,17 396,16 397,16 398,17 398,18 398,18 396,19 396,19 396,19 396,19 396,19 396,20 394,20 393,20 392,21 390,22 389,23 389,23 388,24 387,25 387,27 386,27 386,28 386,28 386,28 386,28 385,29 384,31 384,32 383,33 383,33 382,35 381,35 381,36 380,36 380,37 379,38 378,38 378,38 378,38 377,39 377,39 377,40 377,41 377,41 377,41 377,42 376,42 374,44 373,44 373,45 372,46 372,49 373,49 372,50 372,49 372,49 371,49 369,49 368,49 367,50 362,50 361,50 360,51 359,51 359,51 355,51 355,52 355,52 355,53 354,54 353,55 353,56 353,57 353,57 353,58 354,59 355,60 355,61 357,63 359,64 363,66 364,67 367,68 371,68 400,67 403,67 405,67 409,68 411,70 415,75 416,78 416,82 414,92 415,96 416,102 419,106 423,112 427,115 428,118 425,119 424,117 419,119 421,121 421,121 422,122 423,124 421,125 421,125 421,125 424,130 427,134 428,134 428,140 429,142 426,145 429,150 432,157 433,157 437,157 441,156 443,166 445,171 445,173 446,177 450,181 451,182 455,183 453,184 452,186 447,192 447,192 458,194 459,194 459,195 458,196 458,196 458,197 457,197 448,201 448,207 448,207 447,213 448,213 451,219 452,221 444,228 442,230 444,241 445,244 440,245 447,253 456,258 458,264 464,281 466,286 467,287 467,288 468,289 469,289 470,290 471,290 473,291 491,297 492,300 494,302 500,310 498,310 487,310 486,310 486,310 480,312 480,309 479,309 460,311 457,311 456,314 455,316 453,316 451,316 451,317 448,318 447,318 447,319 446,319 446,319 446,319 445,320 443,319 440,321 438,321 436,321 432,319 432,319 430,319 431,319 430,320 432,324 416,319 412,314 406,313 400,314 401,309 390,308 361,313 344,319 322,321 296,328 292,328 279,324 267,319 265,318 258,314 257,314 259,311 255,309 252,309 249,307 247,307 244,306 231,303 216,300 211,298 201,293 195,288 189,287 181,287 172,287 164,286 159,286 159,288 159,288 157,289 156,289 155,288 149,290 145,291 143,291 142,291 141,292 140,292 139,291 138,291 137,292 136,292 136,292 132,293 132,292 128,292 126,292 126,292 126,292 125,293 124,294 123,295 123,296 122,296 122,297 122,297 122,297 121,298 120,298 120,298 118,299 117,299 114,299 113,299 111,300 111,300 109,300 108,300 106,302 104,303 103,304 101,304 97,303 96,303 96,303 96,303 91,303 85,300 70,295 66,293 58,290 49,287 49,287 48,286 47,286 46,286 46,286 46,285 45,285 45,285 45,285 44,285 43,285 42,285 41,285 41,285 40,285 39,285 38,285 38,285 37,285 37,285 36,285 36,285 35,285 34,285 33,285 32,286 32,286 30,287 30,287 28,288 28,288 27,288 27,288 26,288 25,288 25,288 25,288 24,288 23,289 23,289 22,289 22,289 22,289 22,289 22,289 22,290 22,290 22,290 22,290 22,290 20,290 20,290 19,290 19,290 19,290 19,290 18,290 18,290 18,290 17,290 16,290 16,290 15,290 15,290 14,290 13,290 13,289 12,289 12,289 12,289 12,288 12,288 11,288 11,288 10,288 9,288 9,288 8,288 8,288 8,287 8,287 7,287 7,287 7,287 7,286 7,286 6,285 6,285 6,285 6,285 6,284 6,283 6,283 6,283 5,283 5,283 4,283 4,283 4,283 4,282 4,282 4,282 3,282 3,282 2,282 2,282 2,282 2,282 1,282 0,282 0,282 0,281 0,281 0,281 0,281 0,280 1,278 1,277 2,276 2,275 2,275 2,274 2,273 3,272 4,270 5,270 5,270 6,269 7,269 7,268 7,268 7,267 7,266 7,265 7,265 8,264 8,263 8,263 9,262 9,262 10,262 10,261 11,261 11,261 11,260 11,260 12,260 13,260 13,259 13,259 14,258 14,258 14,257 14,257 15,256 15,255 15,254 16,254 16,254 17,253 18,250 18,249 19,249 19,248 20,247 20,247 20,247 21,246 21,246 21,245 22,244 22,244 23,243 23,243 23,242 24,242 25,241 25,241 25,240 26,239 27,239 27,238 27,237 28,236 28,236 28,235 29,235 29,235 30,235 30,235 30,234 31,234 31,234 32,233 32,233 33,232 33,232 34,231 34,231 35,230 34,230 34,229 33,229 33,229 33,228 34,226 34,226 35,225 35,225 35,224 35,224 36,224 37,223 38,223 38,222 39,222 41,222 43,221 43,221 45,220 45,220 46,220 45,219 45,219 46,218 46,217 46,217 47,217 47,216 48,215 48,214 48,214 49,213 49,213 50,212 50,212 52,209 53,207 54,207 56,205 56,205 57,204 58,204 58,204 58,203 60,202 61,202 62,201 62,200 69,198 73,198 76,198 77,198 79,198 79,196 79,194 78,193 79,192 79,192 81,189 81,188 81,186 81,186 81,185 81,185 80,184 80,182 80,182 80,181 79,180 78,180 78,179 78,179 77,179 76,178 75,178 74,178 73,178 72,178 72,178 71,178 71,178 70,178 70,178 69,178 67,178 67,178 67,178 66,176 66,176 66,175 65,174 65,173 66,171 67,169 67,169 68,168 69,169 69,169 70,168 72,167 72,167 72,167 73,167 73,167 74,167 75,167 75,167 75,167 76,168 76,168 77,168 78,168 79,168 83,161 76,155 74,154 77,151 76,147 82,140 90,141 91,142 92,142 98,143 110,145 110,145 110,142 110,142 109,141 109,141 109,138 110,137 111,137 111,137 113,137 115,136 117,136 117,136 120,137 122,138 123,139 124,140 126,141 126,141 126,142 127,144 128,144 130,145 130,145 131,146 132,146 132,146 139,148 144,147 153,144 166,141 191,133 191,133 192,133 198,120 207,100 211,90 211,90 211,90 211,90 209,89 200,82 200,82 196,78 194,77 187,72 181,67 182,67 185,66 186,66 187,66 188,67 189,67 190,67 190,67 190,66 192,66 192,66 192,66 193,66 194,66 194,66 194,66 195,66 196,66 196,65 194,64 192,64 190,63 190,63 190,62 190,62 190,61 189,61 188,61 187,60 186,59 186,59 185,59 185,58 184,57 184,56 183,56 182,55 182,55 182,55 183,54 183,54 184,53 185,53 186,52 186,51 187,51 189,50 190,48 189,44 191,41 192,40 196,39 198,37 198,36 199,34 199,34 199,34 200,28 202,29 202,28 204,29 205,29 208,29 208,29 209,29 209,29 211,30 212,30 216,31 217,31 217,31 218,32 218,32 218,32 218,32 218,32 219,33 219,33 220,33 224,31 224,31 224,31 224,30 227,30 228,30 229,30 230,30 231,30 232,30 233,30 234,30 236,30 236,30 238,30 238,30 243,29 246,27 246,27 247,27 249,27 250,27 250,27 258,27 293,27 300,27 301,27 305,28 310,28 310,29 310,29 310,29 312,28 313,28 314,28 316,27 317,27 318,26 318,26 318,25 318,24 319,21 320,21 321,20 321,20 322,18 323,15 323,13" id="3002" class="canton" fill="steelblue" stroke-width="1" stroke="white" geotype="canton" geoname="Alès-1" code_insee="3002" code_departement="30" nom_departement="Gard" code_region="76" nom_region="Occitanie"/></svg>