<?xml version="1.0" encoding="utf-8"?>
<svg version="1.1" id="svgmap" xmlns="http://www.w3.org/2000/svg" xmlns:xlink="http://www.w3.org/1999/xlink" x="0px" y="0px" width="100%" height="100%" viewBox="0 0 500 361">
<polygon points="18,15 18,15 19,15 20,15 21,14 23,13 24,12 24,11 24,11 25,12 25,12 25,12 26,12 26,12 26,12 26,12 27,12 27,13 28,13 28,13 29,13 29,13 29,13 29,13 30,13 30,13 30,13 31,13 31,13 32,13 33,13 34,13 34,13 35,13 36,13 37,13 37,13 38,13 39,13 39,13 40,13 40,13 41,13 41,13 42,14 42,14 43,14 44,14 44,14 45,14 45,15 45,15 46,15 46,15 47,15 47,15 47,14 50,12 51,10 53,10 53,9 54,9 55,8 55,8 55,8 56,8 56,8 56,8 57,7 59,6 60,6 60,5 60,5 60,5 61,5 61,5 62,5 64,6 64,5 65,5 65,4 66,4 67,4 67,4 65,2 69,0 71,1 72,3 73,4 73,4 75,5 76,5 77,6 79,7 79,10 80,10 80,10 82,10 84,9 85,9 88,9 88,8 89,8 90,7 91,7 95,6 95,6 96,6 97,6 98,6 98,6 98,6 99,6 101,6 102,6 104,7 104,7 105,7 105,7 106,7 106,7 107,7 108,7 109,7 110,7 110,7 112,7 113,7 114,8 115,9 116,10 116,11 116,11 119,12 120,13 121,14 122,15 122,15 123,16 125,18 125,19 126,20 126,21 127,22 128,23 128,26 128,26 129,27 129,28 130,29 130,30 130,30 130,31 130,32 130,32 130,32 130,33 130,33 130,34 130,34 131,33 132,33 132,33 132,34 133,34 133,33 134,33 135,33 137,33 138,33 138,33 139,33 140,33 141,32 142,32 143,32 143,33 143,33 144,33 144,33 145,33 145,33 145,34 146,34 146,34 146,34 146,34 147,34 147,34 147,34 148,34 148,34 149,34 149,34 149,35 150,35 150,35 150,35 149,36 150,36 150,36 151,36 152,36 152,37 152,37 153,37 153,37 153,37 154,37 154,37 157,38 158,38 158,38 159,38 159,39 160,39 160,39 160,39 160,39 161,40 161,39 162,40 162,40 162,41 164,42 166,43 166,43 166,44 166,44 166,44 167,44 169,45 169,46 170,46 171,47 171,47 172,47 173,47 174,48 175,48 176,48 176,47 175,47 175,47 176,47 177,46 178,46 181,47 182,47 183,46 183,46 184,44 188,39 189,38 191,37 191,36 205,44 206,44 207,45 207,52 205,53 203,54 203,55 202,55 212,63 214,65 215,66 216,66 216,67 217,69 220,68 220,68 221,67 221,67 221,66 221,65 221,65 221,65 221,65 222,64 223,64 224,65 226,65 228,65 229,65 230,65 232,65 236,67 236,67 237,67 237,68 237,68 238,68 238,69 241,72 242,74 243,75 244,76 244,76 245,77 247,80 247,80 247,80 248,80 253,82 256,83 257,84 258,83 258,83 259,82 259,82 259,81 261,80 261,80 262,81 262,81 262,82 263,82 264,82 264,82 265,82 265,82 266,82 266,82 266,82 266,81 267,80 269,79 269,79 269,79 270,79 271,80 272,80 272,80 294,79 294,79 295,78 303,78 314,78 317,88 316,91 317,92 320,93 324,94 326,94 325,96 328,107 333,107 337,115 338,117 340,123 343,127 345,133 345,134 346,138 352,138 354,137 355,138 357,138 357,137 358,136 359,136 358,135 358,134 358,133 358,132 358,131 358,131 358,131 359,129 359,129 359,129 361,129 361,129 361,129 361,128 361,127 362,127 363,127 364,127 364,127 364,126 366,126 367,126 367,126 368,127 368,127 368,127 369,127 369,127 369,126 370,126 370,127 371,126 374,126 375,126 377,126 378,126 378,127 379,127 381,126 383,126 383,124 383,124 386,121 387,120 387,120 388,120 389,120 390,120 390,119 391,119 392,119 392,119 392,119 394,118 395,118 397,117 399,116 400,116 401,116 402,115 402,114 403,114 403,114 407,116 408,116 409,116 409,116 409,115 411,116 413,116 415,117 417,118 417,119 418,119 416,122 416,122 417,122 417,123 420,124 421,124 423,124 423,125 424,125 425,125 426,126 427,126 427,126 428,127 436,130 436,130 439,131 439,131 442,132 442,132 443,132 444,133 444,133 445,133 445,133 445,134 446,134 447,134 447,134 450,136 450,136 453,137 453,137 453,138 453,138 455,139 457,139 459,139 460,139 461,140 465,141 466,141 470,143 467,150 450,170 449,169 445,173 450,174 454,174 455,174 461,174 464,176 464,176 453,195 460,198 467,197 471,197 477,197 478,197 482,200 482,201 479,206 477,207 475,209 473,211 497,247 495,257 486,280 487,281 490,283 491,283 491,284 494,286 495,287 496,288 497,289 497,289 500,291 498,293 498,293 498,294 498,294 499,295 499,295 499,295 499,297 500,298 499,298 498,299 497,300 495,301 495,301 493,302 488,306 487,306 485,308 484,308 482,309 479,312 478,313 477,314 476,314 474,318 474,319 474,319 472,320 472,321 469,323 467,324 466,324 464,324 461,324 459,324 458,324 457,324 457,325 458,326 458,328 458,329 459,332 459,332 460,336 459,336 458,335 457,335 456,336 452,338 451,338 451,338 449,338 448,340 447,340 446,341 446,342 446,342 446,343 445,344 445,344 445,346 444,348 443,349 441,350 441,350 441,351 442,353 440,353 439,353 438,353 438,354 438,354 437,354 436,354 437,354 438,354 438,356 439,356 439,357 438,359 438,360 437,360 435,361 434,361 434,358 433,357 432,358 432,358 430,355 430,355 427,354 426,354 424,353 421,353 421,353 419,353 417,353 417,353 416,352 414,352 413,351 413,351 412,351 411,351 407,351 407,351 404,351 404,351 402,352 402,352 401,352 400,353 399,353 398,353 397,353 396,353 392,348 389,345 388,343 383,336 382,334 381,333 378,331 377,330 379,328 380,327 382,326 383,326 385,326 386,326 387,327 389,328 394,326 396,325 397,324 398,324 396,322 396,321 394,320 394,319 390,318 387,317 387,318 385,317 385,316 384,315 384,314 383,314 380,312 379,311 378,311 377,311 375,309 372,309 368,307 365,305 362,302 360,300 357,298 357,298 355,296 354,296 353,295 353,294 353,294 351,293 350,292 350,291 350,291 342,283 342,283 341,284 340,284 337,285 335,286 334,287 332,287 330,288 329,288 328,288 328,288 328,287 328,287 328,286 328,286 328,286 328,286 327,286 327,286 326,286 325,287 325,287 324,287 324,287 324,286 324,286 324,286 325,286 326,285 326,285 326,284 325,283 324,282 323,281 321,278 319,276 319,276 316,274 314,272 313,270 312,270 312,269 311,268 311,268 310,269 309,268 308,268 305,267 300,267 300,267 299,267 295,267 292,268 282,271 281,272 280,272 279,273 278,273 276,272 276,272 274,271 273,271 273,270 272,270 270,269 270,269 268,268 267,266 267,265 266,264 265,263 265,263 264,262 264,262 262,261 261,261 260,260 260,260 259,256 258,256 258,255 255,252 254,250 253,250 253,250 253,250 253,249 253,249 253,248 253,248 250,249 250,249 249,248 249,247 248,247 247,246 246,246 244,245 243,245 241,244 239,243 239,242 238,242 237,242 236,242 234,242 233,242 233,242 232,240 232,240 231,239 231,239 229,239 227,240 227,240 227,240 227,241 226,241 224,242 224,243 223,243 221,244 218,245 217,246 214,246 213,246 212,247 210,248 209,247 209,247 209,247 207,248 207,248 207,248 206,248 205,248 205,248 205,248 205,248 205,248 204,248 203,249 203,249 202,249 202,249 201,249 201,250 201,250 200,250 199,250 198,250 198,251 197,251 197,252 196,252 196,253 195,253 194,254 193,255 190,257 190,257 189,258 189,259 188,259 187,260 187,261 187,261 185,262 184,262 184,263 183,263 176,262 174,259 174,258 172,257 170,255 168,253 168,253 162,252 160,251 159,251 158,251 155,250 154,251 153,251 151,251 144,255 143,256 142,256 136,256 130,249 129,247 128,244 111,239 109,238 108,238 107,237 107,237 106,236 105,235 105,234 103,229 97,214 95,208 87,203 81,196 85,195 84,192 82,183 84,181 91,174 91,172 88,166 87,166 88,161 88,161 88,156 96,152 97,151 97,151 98,151 98,149 98,149 98,149 87,147 87,147 92,142 93,140 94,139 91,138 89,137 87,133 86,129 85,127 84,123 81,114 77,114 74,114 73,114 70,108 68,104 70,101 70,99 69,93 68,94 65,90 63,85 63,85 63,85 65,84 64,83 63,82 63,81 61,79 66,77 67,80 69,79 69,76 65,73 61,68 59,63 57,58 57,54 59,45 58,42 57,39 54,34 52,33 48,31 46,31 44,31 17,32 13,32 11,31 9,31 6,29 4,27 2,26 1,25 1,24 0,23 0,22 0,22 0,21 0,20 1,20 2,18 2,18 2,17 2,16 5,16 6,16 7,16 7,16 9,16 13,15 14,15 15,15 17,15 17,15 18,15 18,15" id="3004" class="canton" fill="steelblue" stroke-width="1" stroke="white" geotype="canton" geoname="Alès-3" code_insee="3004" code_departement="30" nom_departement="Gard" code_region="76" nom_region="Occitanie"/></svg>