<?xml version="1.0" encoding="utf-8"?>
<svg version="1.1" id="svgmap" xmlns="http://www.w3.org/2000/svg" xmlns:xlink="http://www.w3.org/1999/xlink" x="0px" y="0px" width="100%" height="100%" viewBox="0 0 500 332">
<polygon points="19,75 19,76 20,78 21,79 21,80 23,81 24,81 27,83 28,83 28,85 29,85 30,86 31,86 31,85 32,85 34,84 36,84 36,84 37,84 38,85 39,85 40,85 41,85 42,85 46,85 48,86 50,85 53,85 56,85 57,85 59,86 60,86 68,85 69,86 71,84 73,83 74,82 76,82 77,81 79,80 78,81 77,83 76,85 76,85 77,86 78,87 80,87 80,88 80,89 79,90 80,91 80,91 81,92 90,92 90,91 90,90 91,90 90,90 91,89 92,89 93,88 94,88 96,88 96,87 97,87 97,86 98,86 98,86 98,85 98,85 99,84 99,84 99,83 99,83 99,82 99,82 99,82 99,81 99,81 100,80 100,79 100,79 99,79 100,78 100,77 100,77 101,76 102,76 102,76 103,75 103,75 105,74 110,70 110,70 102,72 104,55 104,54 104,53 104,51 107,15 110,8 111,7 111,6 113,5 113,5 115,3 120,2 127,1 127,3 127,4 127,4 127,4 128,5 128,5 128,5 128,5 128,5 128,5 129,5 129,5 129,5 130,6 131,6 131,6 131,6 131,6 132,6 133,5 133,5 134,5 135,5 135,5 135,5 135,5 136,5 136,5 136,4 136,4 137,4 137,4 137,4 137,4 138,4 138,3 138,3 138,3 139,3 139,3 139,3 140,3 140,3 140,3 141,3 141,3 142,3 142,3 142,3 142,3 142,3 143,3 143,3 143,3 143,3 143,3 143,4 143,4 144,4 144,4 144,4 144,4 144,4 144,4 144,4 144,5 144,5 144,5 144,5 144,5 144,5 144,5 145,6 145,6 146,7 146,7 146,7 147,8 147,8 147,8 148,9 149,9 149,10 149,10 150,10 150,10 150,10 150,10 150,11 151,11 151,11 151,11 152,11 152,11 152,11 152,11 153,11 153,11 153,11 153,11 154,11 154,11 155,11 155,11 155,11 156,10 156,10 157,10 157,10 158,10 158,9 159,9 160,9 160,9 160,8 162,8 162,8 164,8 165,8 166,8 166,8 166,8 167,8 167,8 168,8 169,8 170,8 170,8 171,8 171,8 172,8 173,8 174,9 175,9 175,9 177,9 177,9 178,9 179,9 179,9 180,9 180,9 181,8 181,8 182,8 182,8 183,8 183,8 183,8 184,8 185,7 185,7 185,7 185,7 186,6 186,6 186,6 186,6 186,6 186,5 186,5 186,5 186,5 186,4 186,4 186,3 186,3 185,2 185,2 185,2 185,2 185,2 185,2 185,1 185,1 185,1 185,1 186,1 186,1 186,1 186,0 186,0 187,0 187,0 187,0 187,0 188,0 188,0 188,0 189,0 190,0 190,0 190,0 190,0 190,1 190,1 191,1 191,1 191,1 191,2 191,2 192,2 192,3 192,3 192,3 192,3 192,4 192,4 192,4 192,4 192,5 192,5 191,5 191,6 191,6 191,6 191,7 191,7 191,7 191,8 191,9 191,9 191,9 191,10 191,10 192,10 192,10 192,10 192,11 193,11 193,11 193,11 194,11 194,11 195,11 196,12 197,12 198,12 198,12 199,12 199,13 199,13 199,13 200,13 201,14 201,14 201,15 201,16 200,17 199,18 198,19 199,20 199,22 199,23 199,23 200,24 202,24 203,24 204,24 205,23 205,23 207,22 209,21 211,21 212,21 213,20 214,20 215,20 216,20 216,21 217,21 218,21 219,22 222,25 223,26 223,27 224,28 226,29 228,31 229,31 230,32 231,32 231,32 232,32 232,32 233,32 234,32 236,31 237,31 242,31 243,31 244,30 246,29 248,27 250,27 251,26 253,26 254,27 255,27 256,28 256,29 256,29 255,32 253,32 252,32 249,33 249,34 248,34 249,35 249,36 250,36 251,37 252,38 253,39 254,40 255,41 256,44 257,44 258,45 259,47 260,50 260,52 261,53 264,55 267,59 269,61 273,64 275,65 282,66 286,67 287,67 288,68 289,67 290,67 290,66 294,65 296,65 298,65 300,66 301,67 302,69 306,72 309,73 313,75 316,75 318,75 321,75 323,76 324,77 325,77 325,78 326,78 328,79 331,80 331,80 332,79 333,79 334,79 334,79 335,79 335,79 335,79 336,79 337,79 337,79 338,79 338,79 338,79 338,79 339,79 339,79 339,79 339,79 339,79 340,79 340,80 341,80 341,80 341,80 342,80 342,81 343,81 344,81 345,82 345,82 345,82 345,82 346,82 346,83 347,83 347,83 347,83 347,83 348,84 348,84 348,84 348,84 349,85 349,85 349,85 349,85 349,85 349,86 350,86 350,86 350,86 350,86 349,87 350,87 350,87 351,88 351,88 351,88 351,88 351,88 352,88 352,88 352,89 352,89 352,90 352,90 353,90 353,91 353,91 353,92 353,94 353,94 353,95 353,95 354,96 354,96 354,96 354,97 354,97 355,97 355,98 355,98 355,98 355,98 355,98 356,99 356,99 356,99 356,99 357,99 357,99 358,99 358,99 358,99 359,99 359,99 360,99 360,99 361,99 361,99 362,99 362,99 362,98 363,98 363,98 364,98 364,97 365,97 365,97 365,97 366,96 366,96 366,96 366,96 367,96 367,96 368,95 368,95 368,95 369,95 369,95 370,94 370,94 371,94 371,94 372,93 372,93 373,93 373,93 374,92 374,92 375,92 376,92 376,91 377,91 377,90 378,90 379,89 380,89 380,89 381,89 381,88 382,88 382,88 383,88 384,87 384,87 385,87 385,87 386,88 386,88 387,88 387,88 387,88 387,88 388,88 388,89 389,89 389,89 389,89 390,89 391,91 392,92 393,92 393,93 393,93 394,94 394,94 394,94 394,95 395,95 395,95 395,96 395,96 395,96 395,97 396,97 396,98 396,98 396,98 396,98 396,99 396,99 396,100 396,100 396,100 397,101 397,101 397,101 397,102 397,102 397,102 397,102 397,103 397,103 397,103 397,103 397,104 397,104 398,105 398,105 398,105 398,106 398,106 398,106 399,107 399,107 400,108 400,109 401,109 401,109 401,110 402,110 402,111 403,111 403,111 403,112 405,112 406,112 407,112 408,112 408,114 407,116 407,117 407,119 407,122 407,124 408,126 410,129 410,129 411,130 412,131 413,132 413,133 413,133 414,134 414,135 415,135 415,136 415,136 417,138 418,139 420,141 423,143 424,145 425,145 426,146 430,149 431,150 433,151 436,153 440,155 442,156 442,157 444,158 445,159 446,160 447,161 448,162 450,164 451,165 451,166 451,167 452,167 452,168 452,169 452,169 452,171 452,172 452,173 451,175 450,177 450,178 448,181 445,188 445,188 445,189 444,191 444,192 444,195 446,197 447,198 450,200 452,200 454,200 454,200 455,200 457,200 458,200 465,199 467,198 471,197 472,196 476,195 479,195 482,195 485,195 486,195 487,195 488,195 489,195 490,195 491,196 492,196 493,196 493,196 494,197 496,198 496,198 497,199 498,200 500,204 500,204 500,206 500,208 499,209 497,211 497,212 495,214 494,216 493,217 492,218 492,219 492,219 492,219 492,222 492,223 488,223 488,223 487,223 486,223 485,223 484,223 481,223 481,222 480,223 479,223 476,222 474,222 472,222 470,222 470,223 471,224 471,227 471,227 471,230 471,233 471,234 470,234 469,235 468,235 467,235 467,235 468,236 468,238 468,239 469,241 468,241 467,242 466,243 464,243 463,244 462,243 461,243 461,243 457,243 456,243 455,243 454,242 454,242 454,242 453,242 452,243 452,244 451,246 451,249 451,249 451,251 451,252 452,253 452,257 451,257 449,257 448,256 446,255 445,254 443,253 442,253 440,254 439,254 435,255 434,253 431,251 430,251 430,250 428,249 424,249 423,251 421,251 419,249 417,249 417,248 415,249 412,249 410,249 409,249 408,249 406,250 403,249 402,249 395,248 389,243 388,242 386,240 378,240 373,241 370,237 366,237 365,238 365,237 364,237 363,236 361,234 359,233 352,232 345,227 337,224 333,223 332,223 330,223 328,227 326,231 324,234 324,236 324,236 324,237 323,238 323,242 321,243 322,244 322,245 322,246 322,246 323,247 323,248 323,249 322,249 322,251 322,251 317,252 313,253 314,254 313,259 309,259 306,258 303,256 299,255 297,255 296,256 294,256 292,255 290,254 281,250 280,249 277,249 271,248 266,248 264,249 264,248 262,249 259,249 256,248 254,249 253,249 247,242 245,241 243,241 244,241 245,242 244,242 245,245 244,246 245,246 245,247 245,247 243,246 242,246 241,245 235,254 224,253 225,255 226,255 223,260 222,265 221,268 221,271 220,274 219,274 215,275 214,276 213,278 212,279 210,280 210,281 210,281 209,281 208,282 209,284 207,285 206,286 207,288 204,290 202,290 201,290 199,292 198,292 196,295 194,295 193,295 192,296 192,296 190,298 188,297 187,299 183,302 181,303 180,303 179,304 177,304 176,305 177,306 178,308 178,310 179,311 179,312 179,313 180,314 181,314 183,315 185,319 187,320 188,321 189,321 188,323 187,324 187,324 187,324 187,325 187,325 187,325 186,325 186,326 186,326 186,326 186,326 186,327 186,327 186,327 186,327 185,328 185,328 184,329 184,329 184,330 181,332 176,329 174,330 173,332 172,332 165,331 165,331 165,331 165,331 164,331 162,329 162,329 161,329 160,328 157,327 157,326 155,326 154,325 153,325 148,327 144,327 141,327 141,327 139,327 138,327 135,327 135,327 134,326 129,326 128,325 126,326 124,326 123,326 121,326 120,326 120,326 119,326 119,326 118,326 117,325 116,325 115,325 115,324 112,325 111,325 110,325 109,325 107,325 106,325 106,322 104,322 102,319 101,319 97,317 89,317 88,317 87,317 86,317 82,316 80,316 79,316 79,315 79,314 79,314 79,312 79,311 79,310 79,309 79,309 80,308 79,307 80,306 80,306 80,305 80,304 81,304 83,302 82,300 81,301 80,300 79,300 79,301 76,300 76,300 75,300 74,300 73,301 73,301 73,301 72,302 69,303 68,303 68,303 67,303 66,303 65,304 65,304 64,305 62,306 62,306 62,306 61,305 61,305 60,304 58,303 57,300 55,296 52,290 51,282 51,278 48,275 48,275 48,275 47,270 44,261 44,255 43,252 43,251 44,250 46,250 46,250 48,249 50,250 51,249 51,249 52,249 54,248 54,248 55,248 56,246 58,245 57,243 56,241 58,241 60,240 61,239 63,238 64,238 64,237 65,235 69,234 70,234 71,234 72,233 73,232 74,232 74,231 72,229 71,229 69,229 69,229 67,229 66,229 64,229 62,228 59,229 58,229 56,230 53,229 53,228 52,228 51,228 51,227 52,226 53,225 52,224 51,224 50,224 49,224 47,224 45,224 45,224 41,224 41,225 40,225 39,223 36,223 35,223 34,223 33,224 31,224 29,224 28,224 27,223 27,222 26,222 28,219 28,218 27,218 26,217 25,218 24,219 22,219 21,218 19,218 18,218 17,218 16,218 15,218 13,217 32,194 26,189 29,187 30,186 30,186 32,178 32,178 33,175 34,175 34,175 35,174 35,174 37,172 38,171 38,170 38,169 39,169 40,169 40,168 38,167 37,166 36,165 35,164 33,163 32,162 30,161 29,160 29,160 29,154 31,149 27,144 24,132 28,129 30,128 31,125 31,123 30,123 30,122 30,122 30,121 27,118 26,117 23,117 23,117 24,119 25,119 25,120 25,121 24,124 23,125 21,127 20,127 18,127 17,126 17,125 17,124 16,123 16,122 15,122 12,121 9,120 9,118 8,117 8,115 8,99 7,99 6,99 5,98 5,97 4,97 4,96 2,95 0,94 1,84 6,77 7,77 8,76 9,76 10,76 10,76 12,75 14,75 15,75 16,75 18,75 19,75" id="3014" class="canton" fill="steelblue" stroke-width="1" stroke="white" geotype="canton" geoname="Pont-Saint-Esprit" code_insee="3014" code_departement="30" nom_departement="Gard" code_region="76" nom_region="Occitanie"/></svg>