<?xml version="1.0" encoding="utf-8"?>
<svg version="1.1" id="svgmap" xmlns="http://www.w3.org/2000/svg" xmlns:xlink="http://www.w3.org/1999/xlink" x="0px" y="0px" width="100%" height="100%" viewBox="0 0 500 319">
<polygon points="2,44 2,44 2,44 2,44 2,44 3,43 3,43 3,42 4,42 4,41 4,41 4,41 6,42 7,42 9,43 9,43 11,41 11,40 11,40 12,40 12,40 12,40 12,40 12,39 13,39 13,39 13,39 13,40 14,40 14,40 15,40 15,40 15,40 15,40 16,41 16,41 16,41 16,41 16,41 16,41 17,41 17,41 17,41 17,41 17,41 17,41 17,41 17,42 17,42 18,42 18,43 18,43 18,43 18,43 19,43 19,43 20,44 20,44 20,44 20,44 21,44 21,45 21,45 22,45 22,45 22,45 22,46 23,46 23,46 23,46 24,46 24,46 24,46 24,46 25,45 25,45 25,45 25,45 26,44 26,44 26,44 26,44 26,44 26,44 27,43 27,43 27,43 27,43 27,43 27,43 28,44 29,44 29,44 29,45 29,45 30,45 30,45 30,45 31,44 31,44 32,44 32,45 32,45 33,45 33,45 33,45 33,45 33,45 34,45 34,45 34,45 34,45 34,45 35,45 35,45 36,44 36,44 36,44 35,43 35,43 35,43 36,43 36,42 36,42 36,42 36,41 36,41 36,40 36,40 36,40 36,40 37,39 37,39 37,39 37,39 37,39 38,37 38,36 40,36 41,35 42,34 43,33 44,33 44,33 44,33 44,33 44,33 45,33 45,33 46,32 46,32 46,32 47,32 47,32 47,32 47,32 47,32 47,32 48,32 48,32 48,31 48,31 49,31 49,31 49,31 49,31 50,31 50,31 50,31 50,31 51,32 51,31 51,31 53,31 53,31 53,31 53,31 53,31 54,31 54,31 55,31 55,31 55,31 57,30 57,30 58,30 59,30 59,30 59,30 60,30 60,30 60,30 60,30 60,30 60,30 59,30 59,29 59,29 60,29 62,29 62,29 62,29 62,30 62,30 62,30 62,30 62,30 62,30 63,30 63,30 63,30 63,30 63,30 63,30 64,30 64,29 64,30 64,30 65,30 65,30 65,30 65,30 65,30 66,30 66,30 67,30 67,30 67,30 67,30 67,30 68,29 68,29 68,29 69,29 69,29 69,29 69,29 69,29 70,29 70,29 70,29 70,29 70,28 70,28 70,28 71,28 71,28 71,28 71,28 71,28 72,28 72,28 72,28 72,28 72,28 72,27 73,27 73,27 73,27 73,27 73,27 74,26 74,26 74,26 74,26 75,26 75,26 75,26 75,26 75,26 76,26 76,26 76,26 76,26 76,26 76,26 77,26 77,26 77,26 78,26 78,26 79,26 79,26 79,26 79,26 80,26 80,26 80,26 80,26 80,26 80,26 80,26 81,26 81,26 81,26 81,26 81,26 81,26 81,26 81,26 82,26 82,26 82,26 82,26 82,26 82,26 82,26 82,26 83,26 83,26 83,26 83,26 83,26 83,26 84,26 84,26 84,26 84,26 84,26 85,26 85,26 85,26 85,26 86,26 86,26 87,26 87,26 87,26 87,26 87,27 87,27 87,27 87,28 87,28 87,29 87,29 88,29 88,29 89,29 89,29 91,30 91,30 91,30 91,30 91,30 92,29 92,29 93,28 93,28 93,28 93,27 93,27 95,27 95,27 95,27 104,23 104,23 104,23 106,23 106,24 108,24 108,25 109,25 111,26 111,27 113,28 113,28 113,28 113,28 113,28 113,28 114,28 114,28 115,28 116,29 116,29 116,29 116,30 116,30 116,30 117,30 117,30 117,30 118,30 118,29 118,29 118,29 118,29 119,29 120,30 121,29 121,29 122,29 122,30 123,30 123,30 123,30 123,30 123,30 125,30 125,30 125,30 125,30 125,30 126,30 126,30 126,30 127,30 127,30 127,30 127,30 127,30 127,30 128,30 128,30 128,30 129,30 129,30 129,30 129,30 129,30 130,30 130,30 130,30 130,30 130,30 131,30 131,30 131,30 131,29 131,29 131,30 132,30 132,30 132,30 132,30 132,29 132,29 132,29 132,29 133,29 133,29 133,29 133,29 133,29 133,29 133,29 133,29 133,29 133,29 133,28 133,28 133,28 133,28 133,28 134,28 134,28 134,28 134,28 134,28 134,28 134,27 134,27 134,27 134,27 134,27 134,27 135,26 135,26 135,26 135,26 135,26 135,26 135,26 137,25 137,25 142,24 142,24 143,24 143,24 143,24 143,24 143,24 143,23 143,23 143,23 143,23 143,23 143,23 143,23 143,23 143,22 143,22 143,22 143,22 143,22 143,22 143,22 143,22 144,22 144,22 145,22 145,22 145,22 145,22 146,22 146,22 147,21 147,21 148,21 148,21 148,21 148,21 148,20 148,20 148,20 148,20 148,20 148,20 149,19 149,18 150,18 150,18 150,17 150,17 150,17 150,17 150,17 150,17 151,16 151,16 151,16 151,16 151,16 151,16 151,16 151,16 152,16 152,16 152,16 152,16 153,16 153,16 154,16 154,16 154,16 154,16 155,16 155,16 155,16 155,15 155,15 155,15 156,15 156,15 156,15 156,15 156,15 157,15 157,15 157,15 157,15 157,14 157,14 158,14 158,14 158,14 158,14 158,14 159,14 159,14 159,13 159,13 159,13 159,13 159,13 159,13 159,13 159,12 159,12 159,12 159,12 159,12 159,12 159,12 159,11 158,11 158,11 158,10 158,10 158,10 158,10 159,10 159,10 159,10 159,10 159,10 159,10 159,9 159,9 159,9 159,9 159,9 159,9 159,9 159,9 160,9 160,9 160,9 160,9 160,9 160,9 161,9 161,9 161,9 161,9 161,8 161,8 161,8 161,8 162,8 162,8 162,8 162,8 162,9 162,9 163,9 163,9 163,9 164,10 164,10 165,10 165,10 165,10 165,10 166,10 166,10 167,10 167,11 168,11 169,11 169,12 169,12 169,12 169,11 169,11 171,12 171,12 171,12 171,12 174,13 174,13 174,13 174,14 174,14 175,14 175,14 175,15 175,15 176,15 176,16 176,17 177,17 177,17 177,17 177,18 178,18 178,18 178,18 178,18 178,18 179,19 179,19 179,19 179,19 179,19 179,19 179,19 180,19 180,19 180,19 181,19 181,19 181,19 181,19 183,19 183,19 183,19 183,19 183,19 183,19 183,19 184,19 184,19 184,19 184,19 184,19 184,19 184,19 185,19 185,19 185,19 185,19 185,19 185,19 186,19 186,19 186,19 187,19 187,19 187,19 187,19 188,19 188,19 189,19 189,19 189,19 189,19 189,19 189,19 190,19 190,19 191,19 191,19 191,19 191,19 191,19 191,19 191,19 191,20 191,20 192,20 192,20 192,20 192,20 192,20 192,20 192,20 192,20 192,20 192,20 193,20 193,20 193,20 193,20 193,20 193,20 194,20 194,20 194,20 195,21 196,21 196,21 197,21 197,22 197,22 197,22 196,22 196,22 196,22 196,22 196,22 196,22 195,22 195,22 195,22 195,22 195,23 195,23 195,23 194,22 194,22 194,22 194,23 193,23 192,23 192,24 192,24 192,24 191,24 191,24 190,25 190,25 190,25 190,25 190,25 190,25 189,25 189,26 189,26 189,26 189,26 189,26 189,26 189,26 190,27 190,27 190,27 190,27 191,27 191,28 191,28 191,28 191,28 191,28 192,29 192,29 193,30 193,30 193,30 193,30 193,31 193,31 193,31 194,32 194,32 194,32 194,32 194,32 194,32 194,32 194,32 194,32 194,32 195,32 195,32 195,32 195,32 196,33 196,33 196,33 196,32 197,32 197,32 198,31 198,31 199,31 200,31 201,31 202,31 202,31 202,29 203,29 203,28 204,27 204,26 204,26 205,25 206,24 207,23 207,23 207,23 208,23 209,22 209,22 210,21 210,21 210,21 210,21 211,21 211,20 211,20 211,19 213,18 214,17 215,16 216,15 217,15 217,15 217,15 218,15 218,15 218,15 219,15 219,14 219,14 219,14 220,14 221,13 221,13 222,12 222,12 223,12 223,12 223,12 223,12 224,12 224,12 228,11 229,10 229,10 229,10 229,10 229,10 230,10 230,10 230,10 230,10 231,10 233,9 234,9 235,9 235,9 235,8 236,7 236,7 236,6 236,6 237,5 237,5 237,5 237,5 237,5 237,3 237,3 237,3 237,3 237,3 237,3 237,2 238,1 238,1 238,0 238,0 239,1 240,1 240,1 241,1 241,1 244,1 244,1 244,1 244,0 244,0 244,0 244,0 245,0 246,0 246,1 246,2 246,2 246,2 249,2 249,2 249,2 249,2 251,3 251,3 252,3 253,4 253,4 253,4 253,4 254,5 254,5 255,7 256,8 256,8 257,10 259,12 259,12 259,12 259,13 258,16 259,18 259,18 259,18 259,18 261,18 261,19 262,19 266,19 267,19 269,19 269,19 269,19 269,20 269,21 269,22 269,22 273,22 274,22 276,22 276,22 277,22 276,22 275,23 275,23 275,24 276,24 276,24 276,24 276,24 277,24 277,24 277,24 277,24 278,24 278,24 278,24 278,24 278,24 278,24 279,25 278,25 279,25 279,25 279,25 278,25 278,25 278,26 278,26 278,26 278,26 279,26 279,26 278,27 278,27 279,27 279,27 279,27 279,27 279,28 280,28 280,28 280,28 280,28 280,28 280,29 280,29 280,29 280,29 280,29 281,29 281,30 281,30 281,30 281,30 282,30 282,31 282,31 281,31 281,31 281,31 282,32 282,32 281,32 281,32 281,32 281,32 282,33 282,33 281,33 281,33 281,33 281,33 281,33 281,33 281,33 282,34 282,34 282,34 282,34 282,34 283,34 283,34 283,34 284,34 284,34 284,35 284,35 284,35 284,35 285,35 285,35 285,35 286,35 286,35 286,35 286,35 286,35 286,35 286,35 286,35 286,35 286,35 286,35 287,35 287,35 287,35 287,35 287,36 287,36 287,36 287,36 287,36 288,36 288,36 288,36 288,36 289,36 289,36 289,36 289,36 289,36 289,36 289,36 289,36 289,36 289,36 290,36 290,36 290,36 290,36 290,36 290,36 290,36 291,36 291,36 291,36 291,36 291,36 292,36 292,37 292,37 292,36 292,36 293,37 293,37 293,37 293,37 293,36 293,36 294,36 294,36 294,36 294,36 294,36 294,36 295,36 295,36 295,36 295,36 295,36 295,36 295,36 295,36 295,36 296,36 296,36 296,36 296,36 296,36 296,36 296,36 297,36 297,36 297,36 297,36 297,36 298,37 298,37 298,37 298,37 298,37 299,37 299,37 300,37 300,37 300,37 301,37 301,37 301,37 301,37 301,37 301,37 302,37 302,37 302,37 302,37 302,37 303,37 303,37 304,37 304,37 304,37 304,37 304,37 305,37 305,37 305,37 305,37 305,37 305,37 305,37 305,37 305,38 306,38 306,38 306,38 306,38 307,38 307,38 307,38 307,38 308,38 308,38 308,38 308,38 308,38 309,38 309,38 309,38 309,38 309,38 309,38 310,39 310,39 310,39 310,39 310,38 310,38 310,38 311,38 311,39 311,39 311,39 312,38 312,38 312,38 313,38 313,38 313,38 313,38 313,38 313,38 313,38 313,38 313,38 313,38 314,38 314,38 314,38 314,38 313,37 313,37 313,37 314,37 314,37 314,37 314,37 314,37 315,37 315,37 315,37 315,37 316,36 316,36 316,36 316,36 317,36 317,36 318,38 318,38 319,38 319,38 319,38 321,37 321,37 321,37 321,37 323,37 324,39 325,39 325,39 325,39 326,39 326,39 327,38 328,38 329,43 329,43 329,43 330,43 330,43 331,43 331,43 330,46 330,48 330,48 329,49 329,50 329,50 329,50 329,50 328,51 328,51 328,51 326,51 325,51 325,52 325,52 325,52 325,52 325,52 324,52 324,52 323,52 323,52 322,52 322,52 322,52 320,52 320,52 319,52 319,53 319,53 318,53 318,53 317,53 317,54 315,55 315,55 315,57 314,58 314,59 314,59 314,59 314,59 315,60 315,60 316,61 316,61 317,61 317,62 318,62 318,63 319,63 319,63 319,64 319,63 319,63 320,64 320,64 320,65 321,65 321,65 321,66 321,67 322,67 322,67 322,67 322,67 322,67 323,68 323,68 326,67 326,67 326,67 326,67 327,66 327,66 328,66 328,66 330,64 332,63 333,63 333,63 333,63 333,62 333,62 335,62 336,62 338,61 338,61 339,60 340,60 340,60 341,60 341,60 342,60 342,60 342,60 342,60 343,60 343,60 343,60 344,60 348,59 349,59 349,59 350,59 350,59 354,58 357,57 357,57 357,57 361,56 364,56 364,56 364,56 370,53 370,53 374,52 377,51 377,51 378,51 378,51 378,51 379,51 379,51 381,51 381,51 382,50 382,50 382,50 382,51 383,50 383,50 383,50 390,49 390,48 390,48 390,48 389,47 389,47 390,47 390,47 391,47 391,47 392,47 392,47 392,47 392,46 393,46 393,45 393,45 395,45 395,45 396,45 396,45 396,45 396,46 397,47 398,46 399,46 399,46 399,46 399,46 399,46 399,45 399,45 400,45 400,45 401,44 402,44 402,44 404,43 404,43 406,41 406,41 406,41 407,39 407,39 406,39 406,39 406,39 406,39 405,39 405,39 403,39 403,39 401,38 399,38 399,38 398,38 397,38 397,38 397,38 397,38 396,38 396,38 396,38 395,38 395,38 395,38 395,38 395,38 394,38 393,38 392,38 392,38 392,37 392,37 392,37 392,37 392,37 391,36 391,36 391,35 391,35 391,35 391,35 391,35 390,33 390,33 390,33 390,33 390,32 390,32 390,32 390,32 390,31 390,31 390,30 390,30 390,30 390,30 390,30 392,30 395,31 395,31 396,30 396,30 396,30 397,30 397,30 397,29 397,29 397,29 397,29 398,29 400,29 400,29 400,28 401,28 401,28 403,24 403,24 405,25 405,26 405,26 406,28 407,29 407,31 408,32 408,32 408,33 408,33 408,33 408,33 411,32 414,31 414,31 414,31 413,31 413,31 413,30 413,30 413,30 414,30 414,30 415,31 416,31 416,31 417,31 420,31 420,31 421,31 421,31 421,30 422,30 423,30 424,29 426,29 426,29 427,29 429,28 429,28 430,28 430,28 430,28 430,29 430,29 430,29 430,29 430,29 431,29 431,29 431,30 431,30 431,31 431,31 432,31 433,31 433,31 433,31 433,31 433,31 433,31 433,31 433,30 433,30 434,30 434,30 435,30 435,30 435,30 435,30 435,30 435,31 435,31 435,31 436,31 437,31 437,32 438,32 438,32 438,33 438,33 439,33 439,33 440,33 440,33 441,33 441,33 441,33 441,33 442,32 443,32 443,32 443,32 443,32 444,33 444,33 445,33 445,33 445,34 446,34 447,34 447,34 447,34 448,34 448,34 448,34 448,34 449,34 449,34 449,35 449,35 450,35 450,35 450,35 450,35 449,36 449,36 449,36 449,36 449,36 449,36 449,36 450,37 450,37 450,37 451,38 452,38 452,38 452,38 453,39 453,39 453,39 453,39 453,40 453,40 453,40 453,40 453,40 453,41 454,42 453,42 454,43 455,43 455,44 455,44 456,45 456,45 457,47 458,48 459,49 459,50 459,50 460,51 460,52 461,52 461,52 461,53 462,54 462,54 463,54 463,55 463,55 463,55 464,56 464,56 464,57 465,57 465,58 465,58 465,58 466,58 467,58 468,58 468,58 470,59 473,60 478,61 480,62 482,63 483,63 484,63 486,64 488,65 491,66 493,66 493,66 494,67 494,67 495,67 496,67 497,68 497,68 497,68 498,68 500,69 499,70 498,70 497,70 497,70 497,70 497,71 497,72 493,75 492,75 496,80 496,80 493,82 491,84 490,84 488,85 486,86 486,86 485,87 484,87 483,88 481,88 481,89 480,89 479,89 478,90 477,90 474,92 473,92 471,93 470,93 469,93 465,92 464,92 464,92 464,92 463,93 463,93 462,93 462,93 462,93 461,93 461,93 460,93 460,93 460,93 458,95 455,93 454,93 453,92 452,91 452,91 452,91 451,91 451,91 451,91 451,91 450,91 448,91 447,91 446,91 446,91 444,93 444,94 445,96 445,97 447,97 450,100 451,101 455,102 457,102 459,104 461,107 464,112 466,114 467,115 470,116 477,118 478,119 483,123 485,124 485,126 483,130 483,132 483,133 484,135 487,137 487,138 487,138 487,138 486,139 487,139 487,139 487,139 487,140 487,140 487,140 486,140 486,140 486,140 485,140 485,140 485,140 485,141 485,141 485,141 484,141 484,141 484,141 484,141 484,142 484,142 484,143 484,143 483,143 479,144 472,146 467,147 460,148 457,149 454,150 450,151 449,151 448,151 447,152 444,153 444,153 442,154 440,154 440,156 440,156 437,157 435,157 433,158 432,158 430,158 428,158 427,158 426,159 426,159 427,159 427,160 428,161 428,165 428,165 428,166 428,166 429,167 430,168 430,169 430,170 431,171 431,172 431,173 431,173 431,174 431,174 431,175 431,175 431,175 430,175 430,175 429,175 425,177 423,178 419,179 414,180 411,180 407,181 407,181 406,181 406,182 405,182 405,182 404,182 403,184 402,185 401,185 400,185 400,185 399,185 398,185 398,185 398,185 398,186 397,186 396,186 396,186 394,187 392,187 392,187 392,188 392,189 392,190 393,191 393,192 393,193 394,193 394,193 394,194 394,195 391,195 390,194 389,193 389,193 374,201 367,205 367,205 352,214 345,218 338,222 334,224 333,225 329,230 322,239 318,243 318,243 312,251 312,251 312,251 312,251 313,251 313,251 313,251 313,252 313,252 314,252 314,252 315,252 316,252 316,253 317,253 317,253 317,254 318,254 319,254 320,254 320,254 320,254 320,254 321,254 321,255 321,255 321,255 322,255 322,255 322,255 323,256 324,255 325,255 326,254 329,253 330,253 331,254 331,254 331,254 332,256 332,256 332,256 333,258 334,259 334,259 334,259 334,259 335,260 336,262 337,262 337,262 339,263 340,263 340,263 342,264 342,264 342,264 343,265 343,265 344,265 344,265 344,265 344,266 345,266 345,266 346,266 346,266 347,266 347,266 347,266 348,266 348,266 348,266 349,266 349,266 349,266 350,266 350,266 350,266 351,267 351,267 351,267 352,267 352,267 352,267 352,267 353,267 353,267 353,267 353,267 354,267 355,267 355,267 355,268 357,268 357,268 357,268 358,268 358,269 359,269 359,269 360,270 360,270 361,270 361,270 361,270 361,270 361,270 361,270 361,269 361,269 361,269 362,269 362,269 362,269 362,269 362,269 363,269 363,269 363,269 363,269 363,269 363,268 363,268 363,268 363,268 363,268 363,268 363,268 364,268 364,268 364,268 364,268 365,268 365,268 365,268 365,268 366,268 366,268 366,269 367,269 367,268 367,269 367,269 367,269 368,270 368,270 368,270 368,271 369,271 369,272 369,273 369,273 371,272 371,271 373,271 373,271 374,270 376,270 377,269 378,269 378,269 380,270 382,270 382,270 383,270 383,270 383,272 383,272 383,272 384,272 384,272 384,273 386,274 386,274 386,274 386,274 386,274 387,274 387,274 387,274 387,274 387,274 388,274 391,275 393,271 393,271 394,271 395,271 396,271 396,272 397,272 397,272 398,272 398,272 398,272 398,272 398,272 398,273 399,273 399,274 400,274 400,274 401,274 402,275 403,275 404,276 405,275 405,276 407,277 409,278 408,278 408,278 408,278 408,278 408,278 408,278 408,278 407,278 407,278 407,278 407,279 407,279 406,279 406,279 406,279 406,279 406,279 406,279 406,279 406,279 405,280 405,280 405,280 405,280 405,280 405,280 405,280 405,280 405,280 405,280 405,280 405,280 405,281 405,281 405,281 406,281 406,281 406,281 406,281 406,281 406,281 407,281 407,281 407,281 407,281 407,281 407,281 407,281 407,281 407,281 407,282 407,282 407,282 407,282 406,282 406,282 406,283 406,283 406,283 406,283 405,283 405,283 405,283 405,283 405,283 405,283 404,284 404,284 404,284 404,284 404,284 403,284 403,284 403,284 403,284 403,284 403,285 403,285 403,285 403,285 403,285 403,285 403,285 403,285 403,285 402,285 402,285 402,285 402,285 402,285 402,286 402,286 402,286 402,286 402,286 402,286 402,286 402,287 402,287 402,287 401,288 401,288 402,288 402,289 401,289 401,289 401,290 401,290 400,290 400,290 400,290 400,290 399,291 399,291 398,291 398,291 398,291 399,293 400,293 400,294 400,294 401,294 401,295 403,296 403,296 403,296 404,296 404,296 404,296 405,297 407,299 409,300 410,300 411,301 412,301 412,301 414,302 415,303 416,303 416,303 419,306 419,306 419,306 419,306 419,307 420,307 420,307 420,308 421,308 421,309 422,311 422,312 422,312 422,312 421,312 419,312 417,312 417,312 414,311 413,311 413,311 413,311 412,312 412,312 412,312 411,312 410,312 410,313 410,313 410,313 409,313 408,313 408,313 407,313 407,313 407,313 406,313 406,313 404,314 402,315 402,315 402,315 401,316 401,316 399,316 397,317 396,318 396,318 394,316 393,316 393,316 389,316 389,316 388,316 386,316 385,316 385,316 383,316 383,316 382,316 381,316 381,316 380,316 380,316 379,316 379,316 378,316 376,315 375,314 374,314 373,314 373,314 373,314 373,314 373,314 372,313 370,313 368,313 367,313 367,313 366,313 366,313 365,313 364,313 364,313 363,313 362,313 362,313 360,314 360,314 360,314 359,314 358,314 358,314 356,314 355,313 354,313 353,313 350,314 350,314 348,314 346,314 346,314 343,315 343,316 343,316 342,316 341,316 338,316 337,316 337,316 336,317 334,317 332,317 332,318 331,318 330,318 329,318 328,319 325,318 324,318 321,318 316,317 316,317 316,317 316,317 315,317 312,316 311,316 309,315 307,314 306,314 306,314 306,314 307,309 307,309 307,309 307,309 309,307 309,307 311,303 311,303 311,303 310,303 309,302 308,302 308,302 308,302 307,296 307,296 306,296 306,295 307,293 307,293 307,292 309,290 309,290 307,290 307,289 308,288 308,286 309,285 308,284 308,284 308,283 309,282 309,282 309,280 309,280 307,279 305,278 304,277 304,277 304,277 303,276 302,275 302,275 301,275 301,275 301,275 299,274 299,274 299,274 299,274 298,274 298,274 298,274 297,274 297,274 297,274 297,274 297,274 298,273 300,271 300,271 299,271 299,271 299,271 299,271 298,271 298,271 297,270 297,270 297,270 297,270 296,270 296,270 296,270 296,270 296,270 296,270 295,270 295,270 295,270 295,270 295,270 295,270 295,270 295,270 294,269 294,269 294,269 293,269 293,269 293,269 292,269 292,268 292,268 283,257 283,257 282,257 282,257 282,257 282,257 282,257 282,257 282,257 282,257 282,258 281,258 281,258 281,258 281,258 281,258 281,258 281,258 281,258 281,258 281,259 281,259 281,259 281,259 281,259 281,259 280,259 280,259 281,259 280,259 280,259 280,259 280,259 280,260 280,260 279,260 279,260 279,260 279,260 279,260 278,260 278,260 278,260 278,261 278,261 278,261 278,261 278,261 277,261 277,261 277,261 277,261 277,261 277,261 277,261 277,261 277,261 277,261 277,261 277,262 276,262 276,262 276,262 276,262 276,262 276,262 276,262 276,262 276,262 275,262 275,262 275,262 275,263 275,263 275,263 275,263 275,263 275,263 275,263 275,263 275,264 274,264 274,264 274,264 274,264 274,264 274,264 274,264 274,265 274,265 274,265 274,265 273,265 273,266 273,266 273,266 273,266 273,266 273,266 273,266 273,267 273,267 272,267 272,267 272,267 272,267 272,267 272,267 272,267 272,267 272,267 271,267 271,267 271,267 271,267 271,267 271,267 271,267 271,267 271,267 271,267 270,267 270,268 269,268 268,268 268,268 268,268 268,268 268,268 267,268 267,269 266,269 266,269 266,269 266,270 265,270 265,270 265,270 264,270 264,270 263,270 263,271 263,271 262,271 261,271 261,271 261,271 261,270 260,270 259,270 259,270 259,270 257,270 256,269 256,269 255,268 255,268 255,268 254,268 254,268 254,268 254,267 254,267 253,266 253,266 253,266 253,266 253,266 253,265 253,265 252,265 252,265 252,265 252,265 252,265 251,264 251,264 251,263 251,263 250,263 248,262 248,261 248,261 248,261 247,260 247,260 247,260 247,260 247,259 247,259 247,259 247,258 246,258 246,258 246,258 246,258 246,257 246,257 246,257 246,257 246,257 246,256 246,256 246,256 245,256 245,255 244,255 244,255 244,255 244,254 244,254 244,254 244,254 243,254 243,253 243,253 243,253 243,253 242,253 242,253 242,253 241,252 241,252 240,252 239,252 239,252 239,251 238,251 237,250 237,250 236,249 236,249 236,249 236,249 236,249 236,249 236,248 236,248 236,248 236,248 236,248 237,248 237,248 237,248 237,248 237,248 237,248 238,248 238,247 237,247 237,247 235,245 236,245 238,245 238,245 236,244 236,244 237,242 238,241 238,241 238,241 239,240 240,239 239,239 241,237 241,235 242,235 242,235 242,235 241,233 241,232 241,232 241,232 241,232 241,232 241,232 241,232 241,232 241,231 241,231 239,231 239,231 240,230 240,230 240,230 238,228 238,228 237,229 234,225 234,225 234,225 233,224 233,224 232,224 232,223 232,223 231,224 228,224 228,224 228,224 228,224 226,223 225,224 223,223 223,223 221,223 221,223 220,223 220,223 220,223 220,223 219,223 219,224 219,224 219,224 219,224 218,223 218,224 217,224 217,224 217,224 217,225 217,225 217,226 217,226 217,226 216,226 215,226 215,226 215,227 215,227 215,227 215,227 215,228 215,228 215,228 214,228 213,228 212,228 212,228 212,227 211,227 211,227 211,227 211,227 210,227 210,227 209,227 209,227 209,226 209,226 209,226 209,226 209,226 209,225 209,225 209,225 209,225 209,225 207,225 206,225 206,225 206,225 206,225 206,225 206,225 206,226 206,226 206,226 205,226 205,226 205,226 205,226 205,227 205,227 204,227 204,227 203,227 203,227 202,227 202,227 202,227 202,227 202,226 201,226 201,226 201,226 200,226 200,226 200,227 200,227 200,227 200,228 200,228 201,228 201,228 201,229 202,229 202,229 202,230 203,230 203,230 202,230 202,230 202,230 202,230 202,230 201,230 201,230 200,230 200,230 199,229 199,229 199,229 199,229 198,229 198,229 198,229 198,230 198,230 198,230 198,230 198,230 197,230 197,229 196,228 196,227 195,227 195,227 195,227 194,226 194,226 194,226 194,226 194,226 194,226 192,225 192,225 190,225 190,225 189,225 189,225 188,225 187,225 183,225 182,225 182,225 182,225 182,225 181,225 181,225 181,225 181,225 180,225 180,225 180,225 180,225 180,225 179,225 179,225 179,225 179,224 178,224 178,224 177,224 177,224 177,223 176,223 176,223 175,222 175,222 175,222 174,222 174,222 173,221 173,221 172,221 172,221 172,221 171,221 171,220 171,220 168,220 168,220 168,220 168,220 168,219 168,219 169,218 169,218 169,217 169,217 169,216 169,215 170,214 170,214 171,213 173,211 174,210 175,209 176,207 176,207 176,207 177,208 178,208 178,209 179,209 179,209 179,208 179,208 180,208 180,208 180,208 181,207 181,207 181,207 181,207 181,207 181,206 181,205 182,205 182,205 182,205 182,205 182,204 182,204 182,204 182,203 183,203 183,203 183,202 183,202 183,202 184,201 185,201 185,201 184,200 184,200 184,200 183,200 183,199 181,199 181,199 181,199 181,199 180,199 180,199 180,199 180,199 180,198 179,198 179,198 179,198 179,198 179,198 178,197 178,197 178,196 178,196 178,196 177,196 177,196 177,196 177,196 177,195 177,195 176,195 175,195 171,197 170,197 170,197 170,197 170,197 168,197 168,197 168,197 164,196 161,197 161,197 160,197 160,197 160,197 160,197 159,198 159,198 159,198 159,198 158,198 158,198 157,198 157,198 157,198 156,198 155,199 154,199 154,199 154,199 154,199 153,199 153,199 152,199 152,199 152,198 152,198 151,198 151,198 151,198 151,197 151,197 150,197 150,197 150,197 149,196 147,195 147,195 147,195 147,195 148,193 148,193 148,193 144,193 144,193 143,192 143,192 142,192 142,192 142,192 142,191 142,191 141,190 141,190 140,190 140,189 139,187 138,187 138,187 137,187 137,187 137,187 136,187 136,187 135,187 135,187 134,187 134,187 134,187 133,187 133,187 133,188 133,188 133,188 133,188 133,188 133,188 133,188 132,188 132,188 132,188 132,188 132,188 131,188 131,188 131,188 131,186 130,184 129,184 129,184 129,184 129,184 128,184 127,184 127,184 127,184 127,184 125,184 125,184 125,184 124,184 123,184 123,183 122,183 121,183 120,182 120,182 120,182 120,182 120,181 120,181 121,181 121,180 122,180 122,180 122,180 122,180 122,179 123,179 123,178 123,178 123,178 123,177 123,177 123,177 123,177 122,176 122,176 122,176 122,176 123,173 123,173 123,173 123,173 123,173 122,173 122,173 122,173 122,173 122,172 122,172 123,170 123,170 124,170 124,169 124,169 124,169 125,168 125,168 125,168 125,168 126,167 126,167 126,167 126,167 126,167 126,167 126,167 128,167 128,167 129,167 131,168 131,167 131,167 133,168 133,168 134,167 134,167 134,167 133,166 133,165 132,165 132,164 132,164 131,164 131,163 130,163 130,162 130,162 131,162 131,162 131,162 131,161 132,161 132,161 133,161 133,159 133,159 134,159 134,158 134,158 134,158 134,158 134,158 134,157 134,157 134,157 133,156 133,156 135,155 136,154 136,154 136,153 137,151 138,151 138,151 140,151 141,151 139,148 138,148 138,148 137,148 136,147 136,147 133,147 128,145 128,145 128,145 129,146 129,146 129,146 129,146 125,145 125,145 124,144 122,143 121,143 120,141 120,141 119,141 119,141 119,141 119,141 118,141 118,140 118,140 117,140 117,140 116,139 116,139 116,139 115,139 114,139 114,139 113,138 113,138 112,138 112,137 111,137 110,137 110,136 109,136 109,136 108,136 108,136 108,135 107,134 107,134 107,134 107,135 106,135 106,135 105,136 105,136 104,138 104,138 103,137 102,137 102,137 102,137 101,137 101,137 101,137 100,137 99,138 99,138 98,138 98,138 98,138 98,138 97,138 97,138 97,138 96,138 96,139 96,139 95,139 95,139 95,139 94,139 94,139 94,139 93,139 93,139 92,138 92,138 91,137 91,137 90,136 89,136 89,135 89,135 89,135 89,135 89,135 89,134 89,134 89,134 89,134 88,133 88,133 86,131 86,131 86,130 86,130 86,130 86,130 86,130 86,129 85,129 85,129 85,129 85,128 85,128 85,128 84,128 85,128 85,128 85,128 85,127 85,127 85,127 85,127 86,126 87,126 88,125 88,125 88,125 88,125 88,125 88,125 88,124 88,124 88,124 87,123 86,123 85,122 85,122 85,122 84,122 84,121 83,121 83,121 83,121 83,121 83,121 83,121 83,121 82,121 82,121 82,121 82,121 82,121 82,121 82,121 81,121 81,120 80,120 80,120 79,120 79,120 79,120 79,120 78,120 78,120 78,120 77,119 77,119 77,119 77,119 77,119 77,119 76,119 76,119 76,119 76,119 75,119 75,119 75,118 75,118 74,118 74,118 75,118 74,118 74,118 74,118 74,117 74,117 74,117 73,117 73,117 73,117 73,117 73,117 73,117 73,117 73,117 73,117 73,117 72,117 72,117 72,117 71,116 70,116 69,116 69,116 69,116 68,116 67,116 67,116 67,115 67,115 67,115 67,115 67,115 67,115 66,115 67,115 66,115 66,115 66,115 66,115 66,115 66,115 66,114 66,114 66,114 66,114 66,114 66,114 66,114 66,114 66,114 66,114 66,114 66,114 66,113 65,113 65,113 65,112 65,112 65,112 65,112 65,112 65,112 65,112 64,111 64,110 63,110 63,110 63,110 63,110 63,109 62,109 62,109 62,109 62,109 62,109 61,109 60,109 59,109 59,109 58,109 57,109 57,109 56,109 56,108 55,108 55,108 54,108 54,108 53,107 51,106 50,105 50,105 50,105 49,104 49,104 48,104 48,104 48,104 47,103 47,103 46,103 46,103 46,102 45,102 45,102 45,102 44,101 44,100 43,100 43,100 43,99 43,99 42,98 42,98 42,98 41,97 42,97 43,97 43,97 44,97 45,97 46,97 46,97 47,97 47,97 48,97 48,97 48,97 48,97 49,97 49,97 49,97 49,97 49,97 49,97 49,97 50,96 50,95 50,95 49,94 49,94 48,94 48,94 48,94 48,93 47,93 47,93 47,93 46,93 46,93 43,92 43,92 42,92 42,92 42,92 42,92 41,92 41,92 41,92 41,92 41,92 41,92 41,92 41,92 42,91 42,90 41,90 41,89 40,88 40,87 39,86 37,84 36,84 36,84 31,81 30,81 30,80 30,80 30,80 29,80 28,79 28,79 28,79 28,77 28,76 28,76 28,76 27,76 27,76 27,76 26,76 25,76 24,76 24,76 23,76 23,75 23,75 23,76 23,76 23,76 24,78 24,78 23,78 23,78 23,78 21,81 21,81 21,81 18,79 17,78 17,78 17,78 17,77 18,77 18,77 19,77 19,77 20,77 20,77 20,76 21,76 22,76 22,75 22,75 22,75 21,75 20,74 20,74 20,74 20,74 17,73 16,73 16,73 15,73 15,73 15,73 14,73 14,73 15,72 16,71 16,71 16,71 16,70 16,70 16,69 15,69 15,69 10,63 10,63 10,62 9,62 9,62 9,62 9,62 7,62 5,61 5,60 6,59 6,58 7,58 7,58 5,57 6,56 5,55 5,55 6,54 5,54 6,54 6,52 6,52 6,52 6,51 6,51 5,49 5,49 4,49 1,48 0,47 2,44" id="3108" class="canton" fill="steelblue" stroke-width="1" stroke="white" geotype="canton" geoname="Léguevin" code_insee="3108" code_departement="31" nom_departement="Haute-Garonne" code_region="76" nom_region="Occitanie"/></svg>