<?xml version="1.0" encoding="utf-8"?>
<svg version="1.1" id="svgmap" xmlns="http://www.w3.org/2000/svg" xmlns:xlink="http://www.w3.org/1999/xlink" x="0px" y="0px" width="100%" height="100%" viewBox="0 0 500 353">
<polygon points="17,135 17,135 17,134 17,134 17,133 18,133 18,132 18,132 18,132 18,131 18,131 18,131 19,131 19,131 19,130 19,130 20,130 20,129 20,129 20,128 21,127 21,127 21,126 22,126 22,125 22,125 22,125 23,125 23,124 23,124 23,124 23,124 23,124 23,124 23,123 23,123 23,122 23,122 23,122 24,122 24,122 24,121 24,121 24,121 24,121 25,120 25,120 25,120 25,120 25,120 25,120 25,120 25,120 25,120 25,120 25,119 25,119 25,119 26,118 26,118 26,118 26,117 26,117 26,117 26,117 26,117 26,116 26,116 26,116 28,117 28,117 28,116 29,116 29,115 29,115 30,114 30,113 30,112 31,112 31,111 32,111 32,111 31,111 32,108 32,109 33,108 33,108 33,108 33,107 34,105 34,106 34,106 35,106 35,106 35,107 35,107 35,107 35,107 35,107 35,107 35,107 35,107 36,107 36,107 36,107 36,107 37,106 37,106 38,106 39,105 39,106 40,106 40,107 42,107 42,107 42,107 42,107 43,106 44,107 45,107 44,107 48,108 48,109 48,109 49,109 49,110 49,110 49,110 49,111 49,111 49,111 49,112 50,112 50,112 50,112 51,112 51,112 51,112 51,112 51,112 52,112 52,112 52,112 52,112 52,112 51,113 51,113 51,113 51,113 52,113 52,114 52,114 52,114 52,114 52,114 52,114 53,114 53,114 53,114 53,114 54,114 55,113 55,113 55,113 55,113 55,113 56,113 56,113 56,113 56,113 56,113 56,113 56,113 57,113 57,114 57,114 57,114 57,114 58,112 58,112 58,111 59,111 58,111 58,110 59,109 59,108 60,107 60,106 59,105 61,103 61,102 62,102 62,102 63,100 64,98 64,98 65,97 66,96 67,96 67,95 68,94 69,94 69,93 69,93 69,92 70,92 71,90 74,88 75,87 76,85 77,84 77,84 77,84 77,81 78,81 78,81 81,80 80,79 81,79 82,79 84,78 86,77 88,76 91,73 93,72 93,72 94,71 96,71 96,70 98,70 99,69 99,69 99,69 99,69 99,68 99,68 99,68 99,68 99,67 99,67 100,66 100,66 100,66 100,66 100,64 101,65 102,65 103,66 104,66 104,66 105,66 105,66 105,66 105,66 105,66 106,66 107,66 107,67 107,67 107,67 107,66 107,66 108,67 108,67 108,67 109,67 109,67 109,67 109,67 109,67 109,67 109,67 110,67 110,67 110,68 110,68 110,68 110,68 111,68 111,68 111,68 111,68 112,66 113,66 113,66 111,65 110,64 110,64 109,64 109,63 108,63 107,63 106,63 105,62 104,61 104,61 103,60 102,60 104,59 103,59 103,58 104,57 104,56 104,55 104,55 105,54 106,54 105,53 105,53 105,52 104,52 104,52 104,52 104,51 104,51 104,50 104,50 104,49 104,49 104,49 103,48 103,48 103,48 103,47 103,47 103,47 103,47 103,46 103,46 103,46 103,45 103,44 103,44 102,44 102,44 102,43 102,43 102,43 102,43 103,43 103,42 103,42 103,42 103,42 103,42 104,42 104,41 104,41 104,41 105,40 105,40 105,40 105,39 105,39 106,39 107,38 107,38 108,38 108,38 108,38 108,39 108,39 108,40 108,40 109,40 110,40 111,40 112,40 113,40 113,39 114,39 114,38 114,38 115,37 115,37 115,37 115,38 116,38 116,37 117,37 117,37 117,36 117,36 117,36 117,36 117,35 117,35 117,34 118,34 119,33 119,33 119,33 119,33 120,33 122,33 121,32 121,32 121,32 122,32 123,31 123,31 123,31 123,31 123,31 123,31 123,30 123,30 124,30 124,30 124,29 124,29 124,28 124,28 125,28 126,28 126,28 127,28 127,28 128,28 128,28 129,27 129,27 130,27 131,27 131,26 131,26 131,26 131,26 131,25 131,25 131,25 131,24 131,23 128,22 127,22 128,21 129,21 129,21 129,20 129,20 130,20 130,19 130,19 130,19 131,18 131,18 131,18 132,18 133,17 133,17 134,17 134,17 134,16 135,16 136,15 136,15 137,15 137,14 138,14 138,14 138,13 139,13 139,13 139,13 140,13 140,12 140,12 140,12 141,12 141,11 142,10 142,10 142,9 143,8 144,7 145,7 146,6 146,5 146,5 147,5 147,5 147,4 147,4 148,2 149,2 149,1 149,1 150,1 151,1 152,1 153,1 154,1 155,0 156,1 156,3 157,4 157,5 157,5 158,7 159,8 161,9 161,9 162,11 163,12 163,12 163,12 163,13 164,13 167,14 168,14 168,15 169,15 170,15 171,13 173,14 173,14 174,13 177,14 178,13 179,13 179,14 182,14 183,13 185,14 185,15 184,16 184,16 184,17 185,17 184,18 183,20 186,21 185,22 186,23 187,23 189,24 190,25 191,25 193,26 193,26 195,27 196,27 197,28 198,28 198,28 199,28 199,28 199,29 200,29 200,30 201,30 201,30 202,30 202,31 202,31 202,31 202,32 202,32 203,32 203,32 203,32 203,32 204,33 204,33 205,33 207,36 207,36 209,36 210,36 211,35 211,35 213,33 215,31 216,32 216,32 217,32 217,32 217,32 219,31 220,31 222,30 222,31 224,32 225,32 225,32 226,33 226,33 227,34 228,34 229,35 232,36 232,36 233,36 233,37 234,37 235,37 235,37 235,37 235,37 235,37 234,38 234,38 233,39 232,39 231,40 229,41 227,43 227,43 226,45 224,47 223,48 223,48 223,49 222,51 222,52 222,52 222,52 221,54 221,56 220,57 220,59 219,60 220,61 220,62 220,63 221,64 221,65 221,65 220,66 220,66 220,67 220,68 219,68 218,69 218,69 217,70 217,71 217,72 217,72 217,73 217,73 217,73 217,74 218,75 219,76 219,76 220,78 220,79 220,80 221,80 221,81 221,82 222,83 223,84 224,86 225,88 226,89 226,89 227,91 228,92 228,93 228,93 228,95 228,96 229,97 229,97 230,97 230,98 231,98 232,98 233,99 233,98 233,98 234,98 235,98 236,98 237,98 239,98 240,98 240,98 240,98 241,98 242,99 242,99 242,99 243,99 245,99 246,100 247,99 248,99 251,99 253,99 253,99 253,100 255,102 255,102 255,103 255,103 255,103 256,104 256,106 257,106 257,106 257,106 258,107 259,107 259,108 260,108 260,109 261,109 263,110 264,111 264,111 265,111 265,111 266,112 266,112 266,112 266,112 264,114 264,114 264,114 265,114 268,113 271,113 271,113 271,113 272,113 272,113 276,112 277,111 278,111 279,111 280,110 280,110 281,110 283,110 283,110 286,109 287,109 288,108 289,108 290,106 291,107 292,107 292,107 292,107 293,107 293,106 293,105 294,106 294,106 294,107 294,107 295,106 296,107 297,105 297,106 298,105 298,105 299,105 299,105 300,105 301,105 301,105 302,106 302,106 302,106 303,106 303,106 305,106 307,106 308,107 308,107 310,107 311,107 312,107 311,106 313,106 313,106 313,107 313,107 313,107 314,107 314,107 314,107 315,107 315,107 315,107 316,107 316,107 318,107 318,107 318,107 318,107 319,107 319,107 320,107 321,107 321,108 322,108 322,108 323,108 323,108 324,108 325,108 326,108 327,109 327,108 327,108 328,107 329,108 331,108 331,107 331,107 332,106 333,106 334,106 336,105 336,106 337,105 341,106 341,106 342,106 342,107 342,106 342,106 343,106 343,105 345,104 349,103 352,102 356,101 357,101 358,101 359,101 360,102 362,98 362,99 363,98 363,99 363,99 364,99 365,100 366,100 366,100 367,101 367,101 369,101 369,101 372,101 372,101 373,101 373,101 374,102 374,102 374,103 376,106 376,107 376,108 376,109 376,110 376,111 376,111 376,111 379,113 379,113 379,113 379,113 380,114 380,113 380,113 381,113 381,113 381,113 381,113 382,113 382,113 382,113 383,113 383,113 384,113 385,114 385,114 385,114 387,114 387,115 387,115 388,115 389,116 389,116 390,116 390,116 391,117 391,117 392,117 392,117 392,117 393,117 393,117 393,117 393,117 394,118 394,118 394,118 394,118 394,118 395,119 396,119 396,119 396,119 397,120 397,120 398,120 399,121 399,121 398,122 398,122 400,123 400,124 400,125 401,125 401,125 403,125 403,125 405,125 406,125 407,125 407,125 407,125 407,125 407,125 408,126 410,125 410,125 410,125 410,125 411,125 411,125 411,125 411,124 411,124 412,124 412,124 412,124 412,124 412,124 412,124 413,124 413,124 414,124 414,124 414,124 414,123 414,123 415,123 415,123 415,123 415,123 415,123 415,123 415,123 415,124 416,124 416,124 416,124 416,124 416,124 416,124 416,124 415,124 416,124 416,125 416,125 416,125 416,125 416,126 417,126 417,127 417,127 416,127 417,128 417,128 417,128 417,129 418,129 418,129 418,129 418,130 418,130 418,130 418,130 419,130 419,130 419,130 419,130 420,131 420,131 420,131 421,132 421,132 421,132 422,132 422,133 422,133 423,133 423,133 423,133 423,133 424,134 424,134 425,134 425,134 425,134 426,135 426,135 427,135 427,135 427,135 427,135 428,135 428,135 429,136 429,136 429,136 429,137 430,137 430,137 430,137 430,137 430,137 429,138 429,138 429,138 429,138 429,138 429,138 429,138 430,137 431,136 432,136 433,136 434,135 435,135 435,135 436,135 436,135 437,136 437,136 437,136 439,137 440,137 441,138 441,138 442,138 443,139 443,139 444,139 444,140 444,140 444,140 445,140 446,141 446,141 446,141 447,142 447,142 447,143 448,144 449,145 449,145 449,146 449,147 449,147 450,148 451,149 451,150 451,150 451,151 452,152 453,153 454,154 454,154 454,154 455,154 455,155 456,155 456,155 457,157 458,157 458,157 457,159 455,162 459,164 457,165 455,167 454,168 453,168 453,168 451,168 451,169 450,169 450,169 450,169 449,169 449,169 448,168 448,168 447,168 446,168 446,168 445,168 444,167 444,167 443,167 443,167 442,167 441,167 441,166 440,166 440,166 440,166 439,166 437,165 437,165 436,164 436,165 436,165 436,165 436,165 436,165 437,165 437,166 437,166 437,166 437,166 437,166 437,166 437,166 437,166 437,167 437,167 437,167 437,167 437,167 437,167 437,168 437,168 437,168 437,168 437,168 437,169 437,169 438,169 437,169 435,170 434,170 433,170 432,170 430,171 429,171 429,171 429,171 428,172 427,172 427,172 426,172 425,171 424,172 422,172 422,172 421,172 420,173 418,174 418,176 417,178 417,179 417,180 417,181 417,182 417,182 417,182 416,184 416,184 415,184 413,183 413,183 412,183 411,184 411,184 409,184 409,184 407,184 406,183 405,183 405,183 403,182 402,182 402,182 401,182 401,181 400,181 399,180 399,180 398,180 398,180 397,179 397,179 396,179 396,179 396,179 395,178 395,178 394,178 394,178 393,178 393,178 392,178 392,177 391,177 390,177 390,177 390,177 389,177 388,176 387,176 387,176 386,176 385,176 385,176 385,176 384,176 383,176 382,176 381,176 381,176 385,178 387,179 388,180 389,180 389,180 389,181 389,181 390,181 390,182 390,182 390,182 389,183 389,183 389,183 388,183 388,184 388,184 388,185 387,185 387,185 388,185 388,185 388,185 388,185 387,186 387,186 387,187 387,187 387,187 387,187 387,187 387,189 386,189 386,189 386,189 386,190 385,190 385,190 385,191 385,191 385,191 385,191 385,192 385,193 386,193 386,194 386,194 386,194 386,195 386,195 387,196 388,196 388,196 389,196 390,196 390,196 390,196 391,196 392,195 392,195 393,195 393,195 394,195 394,195 394,195 394,195 395,195 395,195 395,195 395,195 395,195 395,195 396,196 397,196 397,196 398,196 399,197 399,196 400,196 400,196 401,196 401,196 401,196 401,196 401,196 401,196 402,196 403,196 403,196 403,196 404,196 405,196 405,196 406,197 407,197 407,197 408,197 408,197 408,198 410,198 410,198 411,198 411,198 412,198 412,198 412,198 413,198 413,198 413,198 414,198 415,198 416,198 417,198 417,198 420,198 422,198 423,199 425,199 426,199 427,199 428,199 429,198 429,198 429,198 430,198 431,198 431,198 432,198 433,198 434,198 437,198 438,198 438,198 439,198 439,198 440,198 441,198 441,198 441,198 442,198 442,198 442,198 443,198 444,198 444,198 444,198 444,198 445,198 446,198 446,199 446,199 447,199 447,199 448,199 448,199 449,199 449,200 450,200 450,200 451,200 451,200 452,200 452,200 453,200 455,200 455,200 456,200 456,200 456,200 457,201 457,201 457,201 457,201 457,201 458,201 458,201 458,201 458,201 459,201 459,201 463,201 463,201 464,201 464,201 465,202 466,202 466,202 467,202 467,202 468,203 468,203 469,203 470,203 471,203 472,203 473,203 473,203 474,203 474,203 475,203 476,203 476,203 477,204 477,204 478,204 479,204 479,204 480,204 480,204 480,204 482,205 482,205 482,205 481,206 480,207 479,209 479,211 479,211 479,212 479,212 479,213 479,214 479,214 480,215 480,218 480,218 480,218 480,218 480,218 480,219 480,220 480,221 480,221 480,221 480,221 481,222 481,223 483,224 483,224 482,226 481,226 481,228 481,229 481,229 484,230 489,232 489,232 490,233 491,234 490,234 490,234 492,235 493,236 493,236 494,237 495,238 496,238 496,239 497,240 497,240 496,243 496,243 496,243 497,243 498,244 498,245 498,245 499,246 499,246 499,246 499,247 500,248 500,248 499,249 499,250 498,251 500,253 500,253 500,254 499,254 499,255 499,255 499,255 499,256 499,256 500,257 500,257 499,257 499,257 499,257 499,257 499,257 498,258 498,258 498,258 498,258 497,258 497,258 496,258 496,258 495,258 495,258 495,258 494,258 494,258 494,258 493,258 493,258 493,258 492,258 491,258 491,258 491,258 491,258 491,259 491,259 491,259 490,259 490,259 489,259 488,259 487,259 486,259 486,259 485,259 485,259 484,259 484,259 484,259 484,259 483,260 483,260 482,261 482,261 482,261 481,261 481,261 481,262 480,262 480,262 479,262 479,262 479,262 477,263 477,263 477,263 476,263 476,263 476,263 475,263 475,263 475,263 474,263 474,263 473,263 473,263 472,263 471,263 471,263 470,263 470,263 469,264 469,264 468,264 467,264 466,264 464,264 464,264 463,265 463,265 463,265 463,265 462,265 462,265 461,264 461,264 460,265 459,265 459,265 459,265 458,265 458,265 458,265 458,265 457,265 457,265 457,265 457,266 457,266 456,267 455,267 454,267 454,267 454,267 453,267 453,267 453,268 453,268 453,268 453,268 450,270 450,270 450,270 449,270 449,270 447,271 446,271 446,271 446,272 446,272 445,272 445,272 445,273 445,273 445,273 446,274 446,274 446,274 446,275 446,275 445,275 445,275 445,275 445,276 445,276 445,276 445,277 445,277 445,277 445,277 444,278 444,278 443,278 443,278 443,278 443,279 442,279 442,280 442,280 442,280 442,280 441,280 441,280 441,280 440,280 440,280 440,281 439,281 439,281 439,281 439,281 439,281 438,281 437,282 437,282 437,282 437,282 436,282 436,282 435,283 435,283 435,283 434,284 434,284 434,284 434,284 434,284 433,285 433,285 433,286 433,286 433,286 433,286 433,287 433,287 433,287 433,287 433,287 433,288 433,288 433,288 432,289 432,289 432,289 433,289 432,290 432,290 433,290 433,290 432,291 433,291 432,291 432,292 432,292 432,292 432,292 433,293 433,293 433,294 433,294 433,295 433,295 432,295 432,296 432,296 432,296 432,297 431,299 431,299 432,300 432,300 432,300 431,301 431,301 431,301 430,301 430,301 428,302 428,302 428,302 428,302 428,302 427,302 426,302 426,303 426,304 426,304 426,304 426,305 426,306 426,306 426,306 426,306 425,307 424,307 424,307 422,308 422,309 422,309 421,309 421,309 421,310 420,310 420,310 420,310 418,309 418,309 417,309 417,309 417,309 417,309 416,310 415,310 414,311 414,312 414,312 414,312 413,312 413,312 413,312 411,313 411,314 410,314 410,314 409,314 409,315 408,315 408,317 407,317 407,318 406,319 403,317 403,317 402,317 402,316 400,316 399,316 398,316 397,315 395,314 394,314 394,314 394,314 394,314 394,314 394,315 394,315 394,315 394,315 394,315 394,315 395,315 395,316 395,316 395,316 395,316 395,316 395,316 395,316 395,316 395,317 395,317 395,318 395,318 395,319 394,319 394,320 394,320 393,321 392,321 392,322 391,322 391,322 391,322 391,323 391,323 391,323 390,323 390,323 390,324 390,324 389,324 389,324 389,325 388,325 388,326 388,327 388,327 388,327 388,327 388,327 388,327 388,328 388,328 388,328 388,328 388,328 389,330 390,330 392,332 394,332 396,334 396,334 398,335 399,335 402,337 402,337 403,338 404,338 404,338 404,339 404,340 404,340 404,340 405,340 405,340 405,340 405,341 405,341 405,341 405,341 405,342 405,342 405,342 406,343 406,343 406,343 406,344 406,344 406,344 407,344 407,345 407,345 407,345 407,345 407,346 407,346 407,346 407,347 408,348 408,348 409,349 409,349 410,350 410,350 410,351 411,351 410,353 409,353 407,353 404,352 403,351 401,350 400,349 399,348 398,349 397,349 396,349 395,348 395,348 394,347 394,347 393,347 392,346 392,346 392,346 391,346 390,345 390,345 389,345 389,345 389,345 389,345 389,345 388,345 388,345 388,345 388,345 388,345 387,345 387,345 387,345 386,345 386,345 386,345 385,345 385,344 384,344 384,344 384,344 384,345 384,345 383,345 383,345 383,345 383,345 383,345 383,345 383,345 382,345 382,344 382,344 381,344 380,344 380,344 380,344 380,344 379,343 378,344 377,344 375,345 374,346 373,347 371,349 370,349 370,349 369,347 368,347 367,346 366,346 366,346 366,346 365,346 365,346 365,346 364,346 362,347 361,347 359,348 358,348 356,348 355,348 357,346 356,346 356,346 355,345 355,345 354,344 354,344 353,344 352,344 352,344 349,346 349,346 349,346 349,346 348,346 348,345 348,345 348,345 348,345 348,344 348,344 348,344 347,344 347,343 346,343 346,343 346,343 346,343 345,343 345,343 344,343 344,344 343,344 343,344 343,344 342,344 342,344 341,345 341,345 340,345 339,345 339,345 339,345 338,345 337,345 337,345 337,346 336,346 336,346 335,347 335,347 334,347 334,347 333,348 333,348 332,349 332,349 331,349 330,347 328,346 326,344 323,351 321,350 318,350 314,349 309,348 303,346 301,345 301,344 302,343 305,339 304,339 307,337 305,336 304,335 302,334 294,331 288,328 285,326 283,324 283,324 282,323 280,326 280,327 277,329 273,332 272,332 269,331 268,331 267,331 267,331 266,330 264,329 261,328 257,326 256,326 260,324 250,320 249,319 246,321 246,321 243,320 238,319 237,321 234,321 236,318 236,318 234,318 233,317 231,317 231,316 231,316 231,316 233,315 234,314 234,314 235,314 236,313 237,313 238,313 238,313 238,313 239,312 240,311 240,311 240,311 240,311 237,310 237,310 239,308 239,308 238,308 239,307 239,307 238,307 238,306 238,306 238,306 238,306 238,306 238,306 237,305 237,305 236,304 235,303 235,303 234,301 234,301 234,301 234,301 234,301 234,300 234,299 234,299 235,297 235,296 236,296 237,295 238,294 238,294 238,294 237,294 237,293 236,292 236,292 236,291 235,291 233,291 232,291 232,291 233,290 233,290 234,289 234,289 234,288 234,288 234,288 233,288 233,288 233,288 232,286 232,286 232,284 232,284 232,283 232,281 232,280 232,280 232,280 232,280 231,280 230,279 230,279 229,279 229,279 228,279 227,278 227,278 227,277 227,277 227,277 225,277 224,277 223,277 223,276 221,277 221,276 222,275 225,273 226,272 227,272 228,272 231,270 233,269 235,268 235,268 236,267 238,264 238,264 239,264 239,263 239,263 239,262 239,262 238,250 238,250 238,250 237,250 235,250 234,250 231,249 228,248 227,247 226,247 225,247 224,247 222,246 220,246 219,246 217,245 214,244 213,244 213,244 213,244 209,243 207,243 207,243 207,243 206,244 206,244 207,244 207,245 205,246 205,246 204,246 204,246 203,247 202,247 202,247 202,248 202,248 202,248 202,248 202,248 202,249 202,250 202,250 202,250 202,250 202,250 202,250 202,250 202,250 202,251 202,251 201,252 201,252 201,253 201,254 201,255 200,255 199,254 196,253 196,252 195,252 192,250 192,250 192,250 192,251 191,251 191,252 190,252 189,253 189,254 188,255 188,255 188,256 188,256 187,257 187,257 184,258 184,259 184,259 184,259 184,259 184,259 182,261 182,261 182,261 181,263 181,262 180,264 180,264 179,264 178,264 177,263 176,263 175,263 175,263 173,264 168,266 167,264 167,264 166,264 166,263 166,263 166,263 166,263 165,262 164,263 164,263 164,263 157,267 153,264 151,264 151,264 149,262 148,261 148,261 147,262 144,261 143,260 142,259 140,258 139,257 138,257 138,256 137,256 135,255 135,254 135,254 135,254 137,253 138,251 138,251 137,251 137,251 136,250 135,250 134,249 134,249 134,249 134,249 134,249 133,248 133,248 132,248 132,248 131,247 131,247 130,246 130,246 130,246 128,245 128,245 127,244 127,244 126,243 126,243 125,242 123,241 123,241 123,241 122,240 121,239 121,239 120,238 119,237 119,237 118,237 118,237 118,236 118,236 117,235 117,235 116,235 116,235 115,234 115,234 115,234 114,233 112,232 112,232 112,232 111,231 111,231 111,230 110,230 110,230 109,230 109,229 109,229 108,229 108,229 107,228 107,228 107,228 106,228 106,228 106,228 105,228 105,227 105,227 105,227 105,227 104,227 104,227 104,227 104,227 103,227 103,227 103,227 102,227 102,227 101,226 101,226 101,226 101,226 100,226 100,226 100,225 99,225 99,225 98,225 98,225 98,225 98,224 98,224 97,224 97,224 97,224 96,224 96,224 96,224 96,224 96,224 96,224 95,223 95,223 95,223 95,223 94,223 94,223 94,223 93,223 93,222 93,222 93,222 92,222 92,222 92,222 92,222 92,221 92,221 91,221 91,221 91,221 91,221 91,221 90,221 90,220 90,220 90,220 89,220 89,220 89,220 89,220 89,219 89,219 89,219 88,218 88,218 88,218 88,218 88,218 87,218 87,218 87,218 87,218 87,218 86,218 86,218 86,218 86,218 86,218 85,218 85,218 85,218 85,218 84,218 84,218 84,218 84,218 83,218 83,218 83,218 83,218 83,218 83,218 82,218 82,218 82,218 82,218 82,217 82,218 81,217 81,218 81,218 80,218 80,218 80,218 80,218 80,218 80,219 80,219 80,219 80,219 79,219 79,219 79,220 79,220 79,220 79,220 79,220 79,220 79,220 79,220 79,220 79,220 79,221 79,221 79,221 79,221 79,222 79,222 79,223 79,223 79,223 79,223 79,223 79,223 79,223 79,223 79,224 79,224 79,224 79,224 79,224 79,224 79,225 79,225 79,225 79,225 78,225 78,226 78,226 78,226 78,227 77,227 77,227 76,228 76,228 76,228 76,228 76,228 76,229 76,229 76,229 76,229 75,229 75,229 75,230 75,230 75,230 75,230 74,230 74,231 74,231 74,231 73,231 73,231 73,231 73,231 73,232 73,232 73,232 73,232 73,232 73,232 73,232 73,233 73,233 73,233 73,233 73,233 73,234 72,234 72,234 72,234 72,235 72,235 72,235 72,235 71,235 71,235 71,236 70,236 70,236 70,236 70,236 69,236 69,236 69,236 68,236 68,237 68,237 68,237 68,237 67,237 67,238 67,238 66,238 66,238 66,238 66,238 66,239 66,239 65,239 65,239 65,239 65,240 64,240 64,241 64,241 64,241 64,241 64,241 65,237 66,235 66,235 66,235 66,235 67,235 67,235 67,234 67,234 67,234 67,234 66,233 66,233 66,232 66,232 66,232 66,231 66,231 66,230 67,229 67,229 67,228 69,227 70,226 70,226 70,226 70,225 70,225 65,224 64,223 63,222 63,222 62,221 60,220 58,219 57,219 54,217 51,216 51,216 51,216 51,216 49,215 48,215 48,215 48,215 47,214 47,214 47,214 47,214 46,214 46,213 46,213 46,213 45,213 45,212 45,212 45,212 45,212 44,212 44,212 44,212 44,212 44,212 44,212 43,212 43,212 42,212 40,212 40,212 40,212 40,212 40,212 41,211 41,211 41,210 42,210 42,210 42,210 42,210 41,209 41,208 41,207 41,207 40,206 41,206 41,205 41,205 42,202 43,200 43,200 41,199 41,198 40,198 39,197 39,197 38,197 38,196 36,196 36,196 36,195 37,195 38,194 40,192 39,192 38,191 38,191 39,191 39,190 37,190 37,190 33,188 33,188 33,187 32,187 32,187 31,187 28,189 27,189 27,189 27,189 27,188 27,188 27,186 27,186 26,185 26,185 26,185 26,185 26,184 24,184 23,183 23,184 23,184 22,184 21,183 20,183 20,183 21,182 21,182 19,181 19,181 19,181 18,181 18,181 17,180 16,180 15,180 14,179 13,179 12,179 12,179 12,178 12,178 12,178 10,177 9,177 8,175 8,175 7,175 7,175 7,175 7,175 8,174 8,173 8,173 6,173 6,173 5,173 5,173 2,174 2,174 2,175 1,171 1,170 0,166 0,166 0,166 0,166 0,166 4,165 4,165 4,165 5,165 5,165 6,165 6,165 7,165 7,165 7,165 8,165 8,164 8,164 8,164 9,163 9,163 10,163 11,162 11,162 12,162 13,161 14,161 15,161 15,161 16,160 17,160 18,158 19,158 20,158 20,158 20,157 20,157 20,156 20,156 20,155 21,155 21,155 21,154 21,153 21,153 22,152 22,152 23,151 24,150 24,150 24,149 24,149 24,148 25,148 24,147 25,146 26,144 26,143 26,143 26,143 27,142 27,142 27,141 26,140 25,140 24,139 23,139 23,139 22,139 22,139 21,140 21,140 20,140 20,139 20,139 20,139 20,139 20,139 20,139 20,139 20,138 20,138 19,138 19,138 18,136 17,135" id="3110" class="canton" fill="steelblue" stroke-width="1" stroke="white" geotype="canton" geoname="Pechbonnieu" code_insee="3110" code_departement="31" nom_departement="Haute-Garonne" code_region="76" nom_region="Occitanie"/></svg>