<?xml version="1.0" encoding="utf-8"?>
<svg version="1.1" id="svgmap" xmlns="http://www.w3.org/2000/svg" xmlns:xlink="http://www.w3.org/1999/xlink" x="0px" y="0px" width="100%" height="100%" viewBox="0 0 500 239">
<polygon points="9,59 9,59 9,58 9,58 10,58 10,57 10,57 8,55 8,55 8,54 8,54 9,53 9,53 9,53 10,53 10,52 10,52 10,52 10,50 10,50 10,50 11,49 11,47 12,47 12,47 14,45 18,42 18,42 18,42 18,41 18,41 17,41 17,41 17,40 18,40 18,40 18,40 19,38 21,37 21,37 21,37 21,37 22,37 23,36 23,36 23,35 23,34 24,34 23,34 23,33 24,33 24,33 24,33 24,33 25,33 25,32 27,32 28,31 28,30 28,30 28,30 28,29 28,29 28,29 28,28 29,29 32,29 33,29 33,29 33,29 34,29 34,30 35,30 35,30 35,30 35,30 35,30 36,29 36,29 37,29 38,29 38,29 38,29 38,29 39,29 39,29 39,29 40,29 40,29 42,29 44,29 45,29 46,29 47,29 47,29 48,29 49,30 50,30 50,30 51,30 51,30 51,30 54,31 54,31 54,31 54,31 54,31 54,31 55,31 55,31 55,31 56,31 56,32 57,32 57,32 58,31 58,31 58,30 59,28 58,27 58,27 58,26 58,25 58,25 58,24 59,24 59,25 59,25 59,25 61,27 61,27 61,27 62,27 62,27 63,27 64,27 64,27 64,27 65,27 65,27 65,27 65,27 66,27 66,27 70,26 70,26 70,26 70,26 70,26 71,26 71,26 71,26 71,26 71,26 71,26 71,26 71,26 72,26 72,26 72,26 72,26 73,26 73,26 73,26 73,26 74,26 74,26 74,26 74,26 74,26 75,26 75,26 76,26 76,26 76,26 77,26 77,26 78,26 78,26 78,27 78,27 78,27 78,27 78,27 78,27 78,27 79,27 79,28 79,28 78,28 78,28 78,28 78,28 78,28 79,28 79,28 79,28 79,28 79,28 79,28 79,28 79,28 79,28 79,29 79,29 79,29 79,29 79,29 79,30 79,30 79,30 79,30 80,31 80,31 80,31 80,31 80,31 80,32 80,32 80,32 80,32 80,32 80,32 80,33 80,33 80,33 80,33 79,33 79,33 80,33 80,33 80,33 80,33 80,33 80,33 80,34 80,34 80,34 80,34 81,34 81,34 82,33 82,33 82,33 82,30 82,28 82,28 82,28 82,28 83,26 84,26 84,25 85,24 85,23 86,22 87,22 87,21 88,20 88,20 89,19 89,19 90,20 91,20 91,20 92,20 92,21 92,21 93,21 94,22 94,22 95,23 95,23 96,24 96,24 97,24 97,24 97,25 99,26 99,26 100,26 100,26 101,26 101,27 101,27 102,27 102,27 102,27 102,27 103,27 103,27 103,27 103,27 104,27 104,27 105,27 105,27 105,27 105,27 106,27 106,27 106,27 106,27 106,27 107,27 107,27 107,27 107,27 108,27 108,27 108,27 108,27 109,27 109,27 109,27 109,27 109,26 109,26 109,26 109,26 110,26 111,26 111,26 111,26 113,26 113,26 114,27 114,27 115,28 115,28 115,28 116,29 116,29 116,29 117,30 117,30 117,30 118,30 120,32 120,31 120,31 120,31 121,30 121,30 122,29 123,28 123,28 124,28 124,28 125,28 126,27 127,27 128,27 128,27 129,27 129,27 129,28 129,28 131,28 131,28 133,28 133,28 133,28 133,28 134,28 134,28 135,28 136,28 136,29 137,29 139,30 139,29 142,26 142,26 142,26 142,26 143,26 143,25 143,25 144,25 145,25 145,25 146,25 148,25 148,25 150,24 150,24 151,24 152,23 155,21 155,20 156,19 156,19 156,19 155,17 155,17 155,17 156,17 156,17 157,17 157,17 158,17 158,16 159,16 159,16 159,16 159,15 159,14 159,14 160,13 160,13 161,12 161,12 161,12 161,12 162,11 162,11 162,11 162,11 162,11 162,10 162,10 162,10 163,10 164,9 164,9 165,9 165,9 165,8 165,8 166,8 166,8 166,8 166,8 166,8 166,8 166,8 166,8 166,8 166,8 166,8 166,8 166,8 166,7 166,7 165,7 165,7 165,7 165,7 165,7 165,7 165,7 165,7 165,6 165,6 165,6 165,6 165,6 164,6 164,5 163,5 163,5 164,5 165,4 167,4 168,4 168,4 169,4 170,4 170,4 171,4 171,4 172,4 174,5 174,5 175,5 175,5 175,5 175,5 175,5 174,4 174,4 174,4 174,4 174,4 174,4 175,3 175,3 176,3 176,3 177,4 177,4 178,4 180,4 181,3 182,3 182,2 182,2 182,2 182,2 182,2 181,1 181,1 181,0 182,0 182,0 182,0 182,0 182,0 182,0 183,0 184,1 185,1 186,1 187,2 188,2 188,2 188,2 189,2 190,2 190,2 190,2 190,2 191,2 191,2 191,2 192,2 192,2 193,2 193,2 193,2 193,3 192,4 191,5 190,6 192,6 192,7 194,7 194,7 195,8 197,8 198,8 198,8 197,9 197,9 199,9 199,9 200,10 200,11 199,12 199,12 199,12 199,12 200,12 200,12 200,12 200,12 200,12 200,12 200,12 200,12 200,12 200,12 201,12 201,12 201,12 201,12 201,12 201,12 201,12 201,12 201,12 202,12 202,12 202,12 202,12 202,12 202,12 202,12 203,12 203,12 203,12 203,12 204,12 204,12 204,12 204,12 204,12 204,12 205,13 205,13 205,13 205,13 205,13 205,13 206,13 206,13 206,13 206,13 206,13 206,13 206,13 206,13 206,13 206,13 207,13 207,13 207,13 207,13 207,13 208,13 208,13 208,13 208,13 208,13 208,13 209,13 209,13 209,13 209,14 209,14 209,14 209,14 209,14 209,14 209,15 209,15 209,15 209,15 210,15 210,15 210,15 211,15 211,15 211,15 212,15 212,16 212,16 212,16 212,16 213,16 214,16 214,16 214,16 215,16 215,17 215,17 215,17 216,17 216,17 216,17 216,18 217,18 217,18 218,19 218,19 218,19 218,19 218,19 218,19 218,19 219,19 219,19 219,19 219,19 219,19 219,19 219,20 219,20 219,20 220,20 220,20 220,20 220,20 220,20 221,20 221,20 221,20 221,20 221,20 221,21 221,21 221,21 221,21 222,21 222,21 222,21 222,21 222,21 222,22 222,22 222,22 223,22 224,23 224,23 224,23 224,23 224,23 224,24 224,24 225,24 225,25 225,25 225,25 225,25 225,25 225,26 226,26 226,26 226,26 226,26 226,26 226,26 226,26 226,27 226,27 226,27 226,27 226,27 226,27 227,27 227,27 227,27 227,28 227,28 227,28 227,28 227,29 227,29 227,29 227,30 227,34 228,35 228,35 229,35 229,35 230,35 231,35 232,35 233,35 234,35 235,35 236,35 236,35 236,35 236,35 236,36 236,36 235,37 235,37 236,37 236,38 236,38 237,38 237,38 237,38 238,39 239,40 240,40 240,40 240,40 240,40 240,40 240,41 241,41 241,41 241,41 241,41 241,41 242,41 242,42 242,42 242,42 242,42 242,42 242,42 242,42 242,42 243,42 243,42 243,42 245,42 245,42 245,42 245,42 246,41 246,41 247,41 247,41 248,41 249,41 249,41 249,41 250,41 250,41 250,41 250,41 250,42 250,42 250,42 250,42 251,42 251,42 251,42 252,43 252,43 253,43 253,43 254,43 254,44 255,44 255,45 254,45 254,45 254,46 254,47 254,47 254,47 253,48 253,49 253,50 253,50 253,50 254,50 254,50 255,50 256,50 255,52 254,53 254,53 254,54 252,55 252,55 253,55 254,55 254,56 254,56 256,57 256,57 256,58 256,58 257,58 257,58 258,58 258,59 258,59 258,59 258,59 259,60 259,60 259,60 259,61 259,61 259,61 259,61 259,61 259,61 259,61 259,61 260,61 260,61 260,62 260,62 260,62 260,62 260,62 261,63 261,63 261,63 261,63 262,64 263,64 263,65 263,65 264,65 264,65 264,65 264,65 265,65 265,65 265,65 265,65 265,65 266,64 266,64 268,64 269,64 270,63 272,63 273,62 273,62 273,62 274,62 274,62 275,62 275,62 276,62 276,62 276,62 277,62 277,62 278,62 278,62 278,62 280,62 280,62 281,61 281,61 283,59 283,59 284,59 284,59 284,56 284,56 284,56 284,55 284,55 284,55 284,55 283,55 283,55 283,54 283,54 283,54 283,54 283,54 283,53 283,53 283,52 283,52 283,52 283,52 283,52 283,51 283,51 283,51 283,51 283,51 282,51 284,50 284,50 284,49 284,49 284,49 284,49 284,49 284,49 284,49 285,49 285,49 285,48 285,48 285,48 285,48 285,48 285,47 286,47 286,47 286,46 286,46 286,46 286,46 286,46 286,46 286,45 286,45 287,45 287,45 287,44 287,44 287,44 287,44 287,44 287,44 287,44 288,43 288,43 288,43 288,43 288,43 288,43 288,43 288,43 289,42 289,42 289,42 289,42 290,41 290,41 290,41 290,41 290,41 290,41 290,41 290,41 290,41 290,41 290,40 290,40 290,40 290,40 290,40 290,40 290,40 290,40 290,40 290,40 290,40 291,40 291,39 291,39 293,39 293,40 294,39 295,39 295,39 295,39 297,39 298,39 299,39 299,39 300,39 300,39 300,39 301,40 301,40 301,41 301,41 302,42 302,42 302,42 302,42 302,42 303,42 303,41 303,41 303,41 303,41 303,41 304,40 304,40 304,40 304,40 304,39 304,39 305,38 305,38 305,38 305,38 305,38 305,37 305,37 305,37 305,37 305,37 305,36 305,36 306,36 306,35 306,35 306,35 306,34 306,34 307,33 307,33 307,33 307,33 307,32 307,32 307,32 307,32 307,32 308,32 308,32 308,31 309,31 309,31 309,31 309,30 310,30 310,30 310,30 310,29 310,29 311,29 311,29 311,29 312,29 312,29 312,29 312,29 312,28 313,28 313,28 315,27 315,27 316,27 316,27 316,26 316,26 316,26 316,26 316,25 316,25 316,25 317,25 318,25 320,26 321,25 322,25 323,26 325,26 325,26 326,26 326,26 326,26 327,26 327,26 328,26 328,26 328,26 328,26 329,26 329,26 329,26 329,26 329,26 330,26 330,26 330,26 331,25 331,25 332,25 332,25 332,25 332,25 332,25 332,25 333,25 333,25 333,24 333,24 333,24 333,24 333,24 334,24 334,24 334,24 334,24 334,24 334,24 335,24 335,24 335,24 335,24 336,23 336,23 336,23 337,23 337,23 338,23 338,23 338,22 339,22 339,22 339,22 340,22 340,21 340,21 341,21 342,21 343,21 343,21 343,21 344,21 344,21 344,21 344,21 345,20 346,20 346,20 346,20 346,20 346,20 347,20 347,21 348,21 348,21 348,21 348,21 349,21 349,21 350,22 350,22 351,22 351,22 352,22 352,22 353,22 353,22 353,22 353,21 353,21 353,21 353,21 354,20 354,20 354,19 354,19 354,19 354,19 354,19 354,19 354,19 354,19 355,18 355,18 355,18 356,18 356,18 356,18 356,18 356,18 356,18 356,17 357,17 357,17 357,17 358,17 359,18 359,18 360,18 360,18 360,18 360,18 360,18 361,18 362,18 362,17 362,17 363,17 363,17 363,17 363,17 363,17 364,16 365,16 365,16 365,16 367,15 367,15 367,16 368,16 368,17 368,18 368,18 368,20 367,20 367,21 367,21 367,21 367,21 367,22 367,22 367,23 367,23 368,24 368,24 369,24 369,25 369,25 369,25 369,26 369,26 369,27 369,27 369,27 369,28 369,28 369,29 369,29 369,29 370,29 370,30 370,30 370,31 371,31 371,32 372,32 373,32 374,32 374,32 374,32 374,32 374,33 374,33 375,33 375,33 375,33 375,33 376,33 376,33 376,33 376,33 376,34 376,34 376,34 376,35 376,35 376,35 376,35 376,35 376,35 376,35 376,36 376,36 375,37 375,37 375,38 375,38 375,38 375,39 375,40 375,41 375,41 374,41 374,41 374,42 374,43 373,44 373,45 373,45 373,45 373,46 374,47 374,47 375,48 375,49 376,50 376,50 376,50 376,52 377,53 377,53 378,54 377,54 378,55 378,55 378,55 379,55 379,56 380,56 380,57 380,57 380,57 380,57 380,58 381,58 381,58 381,58 381,58 381,58 382,58 384,57 385,57 385,57 385,57 386,57 387,56 387,56 387,56 387,56 387,55 387,55 387,55 387,55 387,55 387,55 387,54 387,54 387,54 391,53 392,53 392,53 392,53 393,53 397,51 397,51 399,50 400,50 400,49 400,49 400,49 401,48 401,48 405,47 406,47 408,46 409,46 410,46 412,45 412,45 412,45 413,45 415,44 416,44 419,42 419,42 419,42 420,42 420,42 420,42 420,42 420,42 421,42 421,42 421,42 420,41 420,41 420,40 420,40 420,40 420,40 420,39 420,39 421,39 421,39 423,38 424,38 426,38 426,38 427,38 428,37 429,37 430,37 431,38 433,37 433,37 435,36 436,36 436,36 437,34 437,33 439,32 439,32 439,32 440,32 440,32 440,31 441,31 441,31 441,31 441,30 441,30 441,30 441,30 442,30 442,30 443,30 443,30 444,30 444,30 445,29 446,28 446,27 446,27 446,27 447,27 447,27 448,27 448,27 448,27 449,28 450,28 450,28 451,29 452,29 452,29 452,29 452,29 453,29 453,29 453,29 453,29 453,29 453,29 454,29 454,29 454,29 454,29 455,29 455,28 455,28 455,28 456,29 456,29 457,29 457,29 457,29 457,29 458,30 458,30 458,30 458,30 458,30 458,30 458,30 458,30 458,31 459,31 459,32 459,32 459,32 459,32 459,32 459,32 459,33 459,33 459,33 459,33 459,33 460,34 460,34 460,34 460,35 460,35 460,35 460,35 461,36 461,36 461,36 461,36 461,36 462,37 462,37 462,37 462,37 463,37 463,37 463,37 463,37 463,37 463,37 463,37 464,38 464,38 464,38 465,38 465,39 467,39 467,39 468,39 468,39 468,40 469,40 469,40 469,40 469,40 469,40 470,40 470,40 470,40 470,40 470,40 471,40 471,40 471,40 471,40 471,40 471,40 471,40 472,39 472,39 472,39 473,39 473,39 474,39 474,38 474,38 474,38 474,38 475,38 475,38 475,38 475,38 476,38 477,38 477,38 477,39 477,39 477,39 477,39 477,39 477,39 477,39 477,39 478,39 478,39 478,39 478,39 479,39 479,40 480,40 480,40 480,40 480,40 480,40 481,40 481,39 481,39 482,39 482,39 482,38 482,38 482,38 482,38 482,38 482,38 482,38 482,38 482,38 482,37 483,37 483,37 484,38 484,38 484,38 484,38 484,39 484,39 483,39 483,39 483,39 483,39 483,40 483,40 484,40 484,41 484,41 484,41 484,41 484,42 484,42 484,42 484,42 483,42 483,43 483,43 483,43 483,43 483,44 483,44 483,44 483,44 484,45 484,45 484,45 484,45 484,45 484,45 485,44 485,44 487,42 487,42 487,42 487,43 488,43 488,43 489,43 489,44 489,44 489,44 489,44 488,44 488,45 488,45 489,45 489,45 490,45 492,45 492,45 493,46 494,46 494,46 494,46 494,46 495,46 496,46 496,47 497,47 497,47 497,47 498,48 498,48 499,48 499,48 499,48 499,49 499,49 499,49 499,50 499,50 500,50 500,50 500,50 499,50 498,50 498,50 497,50 497,50 497,50 497,50 496,50 496,49 496,49 493,48 493,49 490,52 490,52 489,52 489,52 488,52 487,52 486,51 485,51 485,51 484,51 484,51 484,51 483,50 483,51 483,51 482,52 482,52 482,52 481,52 481,52 481,52 481,52 481,52 481,52 481,53 481,53 480,53 480,54 480,54 480,54 480,54 480,54 480,54 479,54 479,54 479,54 479,54 479,54 479,54 478,54 478,54 478,54 478,54 478,55 478,55 478,55 477,56 476,56 476,56 476,57 475,57 475,57 475,57 475,57 475,57 475,57 475,57 475,57 475,57 474,57 474,57 474,57 474,57 474,56 474,56 473,56 473,57 473,57 473,57 473,57 473,57 473,57 473,57 473,58 473,58 473,58 473,58 473,58 474,59 475,59 475,59 475,59 475,59 475,60 475,60 475,60 475,61 475,61 475,61 475,62 475,62 474,62 474,62 474,63 474,63 473,63 473,64 473,64 473,64 473,64 472,64 472,64 472,64 472,64 472,64 472,64 472,64 472,64 472,64 472,64 472,64 472,64 471,64 471,64 471,64 471,64 471,64 470,64 470,64 470,64 470,64 470,64 470,65 470,65 469,64 469,64 469,64 469,64 469,64 468,64 467,64 467,64 466,64 466,64 466,64 465,64 465,64 464,64 464,63 464,63 464,63 464,63 464,63 464,63 464,63 463,63 463,63 463,63 463,63 462,62 462,62 462,62 462,62 460,61 460,61 460,61 460,61 460,61 459,61 459,60 459,60 458,60 458,60 458,60 457,60 456,59 455,59 455,59 455,59 454,59 454,59 453,58 451,59 450,59 450,59 450,60 449,60 448,60 448,60 448,60 447,60 447,60 447,60 446,61 446,61 446,61 445,61 444,61 444,61 444,61 443,62 443,62 442,62 441,63 440,63 440,64 439,64 438,64 438,64 438,64 438,64 438,65 439,65 439,65 439,65 439,66 440,66 440,66 440,66 441,67 441,67 441,67 441,67 442,67 442,67 442,67 442,67 443,67 443,67 442,67 442,69 442,69 442,70 442,70 442,70 442,70 442,70 443,71 443,71 444,71 444,71 444,72 444,72 444,72 444,72 444,72 445,73 445,73 446,74 446,74 446,74 447,74 447,74 447,74 448,74 449,74 450,74 451,75 452,75 452,75 453,76 453,76 452,76 452,76 452,76 451,76 451,77 450,77 450,77 450,77 449,78 447,80 447,80 446,79 446,79 446,80 445,82 445,82 444,81 443,82 443,82 444,82 444,82 444,83 445,83 445,83 445,83 445,83 445,83 445,83 446,83 447,83 448,83 448,83 450,84 453,84 453,85 453,85 453,85 453,85 452,85 452,85 451,85 451,85 451,85 451,85 451,85 451,85 451,85 452,85 452,85 452,85 452,85 452,86 452,86 451,87 451,87 451,87 451,87 451,87 452,88 452,88 453,87 453,87 453,87 453,88 453,88 453,88 453,88 453,88 453,88 452,89 452,89 451,89 451,89 452,89 452,90 452,90 453,90 453,90 453,91 453,91 453,91 454,91 454,92 454,92 456,93 456,93 456,93 456,93 456,93 455,93 455,93 455,93 455,94 454,94 454,94 455,94 455,95 455,95 455,95 455,96 455,96 455,96 455,96 455,96 456,96 456,96 456,97 455,97 455,98 454,98 454,99 454,99 453,99 452,99 451,99 450,99 450,99 450,99 450,100 450,100 450,100 450,100 450,100 450,100 451,100 451,100 451,101 451,101 452,101 451,101 451,101 450,101 450,101 449,101 449,101 448,101 448,101 448,101 447,101 447,101 447,102 447,102 447,102 447,102 446,102 445,102 445,103 445,102 444,102 444,102 444,102 444,103 444,103 444,103 443,103 443,103 443,103 443,103 443,103 443,104 443,104 444,104 444,104 444,104 444,104 445,104 445,104 445,104 445,104 444,104 444,105 444,105 444,105 443,105 443,105 443,105 443,105 443,105 442,105 442,105 442,105 442,105 442,105 442,105 441,106 441,106 442,106 442,106 442,106 442,106 443,106 443,106 443,106 443,106 443,107 443,107 443,107 443,107 443,107 443,107 443,107 443,107 444,107 444,107 444,107 444,107 444,107 444,107 445,108 445,108 445,108 444,109 444,109 443,110 443,110 442,112 442,112 442,112 441,111 440,111 440,111 440,111 440,111 440,111 440,111 440,111 440,111 439,111 439,111 439,111 439,111 439,112 439,112 439,112 439,112 438,112 438,113 438,113 438,113 438,113 438,114 438,114 438,114 438,115 438,115 438,114 437,114 437,114 437,114 437,114 437,114 437,114 437,113 436,114 436,114 435,114 435,114 435,113 434,113 434,114 434,114 434,114 434,114 433,115 433,115 433,115 433,115 433,115 433,115 433,115 432,115 432,115 432,115 432,115 432,115 432,115 433,115 433,115 432,115 432,116 432,116 431,116 431,116 431,116 431,116 430,116 430,116 430,116 430,116 430,117 430,117 430,117 430,117 430,118 430,118 430,118 430,119 430,119 430,119 430,119 430,119 430,120 430,120 430,120 429,120 429,120 429,120 429,120 428,120 428,120 428,120 427,120 427,120 427,120 426,119 426,119 425,119 425,119 425,119 425,119 425,119 425,119 424,120 424,120 424,120 424,120 424,120 424,120 423,120 423,120 422,121 421,121 421,121 420,121 420,121 420,121 419,121 419,121 419,121 418,121 418,121 418,121 418,122 418,122 418,122 418,122 418,122 418,122 418,123 418,123 417,124 417,124 417,124 417,124 417,125 417,125 417,125 417,125 417,125 417,125 416,125 416,125 416,125 415,125 415,125 415,126 415,126 415,126 415,126 415,126 416,126 416,126 415,127 415,127 415,127 415,127 415,127 414,127 413,127 413,127 413,128 413,128 413,128 413,128 413,128 413,128 413,128 414,129 414,129 414,129 414,129 414,129 413,129 413,129 413,129 413,129 413,129 412,129 412,129 412,129 412,129 412,129 412,129 413,130 413,130 413,130 413,130 412,130 412,131 412,131 412,131 412,131 412,131 412,131 412,132 412,132 412,132 412,132 412,132 412,132 413,132 413,132 413,132 414,132 414,132 414,132 414,132 414,132 414,132 414,132 414,132 414,132 415,133 415,133 415,133 415,133 415,133 415,133 415,133 415,133 415,133 415,133 415,133 415,134 415,134 414,134 414,134 414,134 414,134 414,134 414,134 414,135 414,135 414,135 413,135 413,136 412,136 412,137 412,137 412,137 412,138 412,138 412,138 412,139 411,139 410,140 410,140 410,140 409,140 409,140 409,140 409,141 408,141 408,141 408,141 408,141 407,141 407,141 407,141 406,141 406,141 406,141 406,141 406,142 407,142 407,142 407,142 407,143 407,143 407,143 407,143 407,143 407,143 407,143 407,143 406,143 406,143 406,143 406,143 406,143 406,143 406,143 405,143 405,143 405,143 405,143 405,143 406,143 406,144 406,144 406,144 406,144 406,145 406,145 406,145 406,145 406,145 405,144 405,144 405,144 405,144 405,144 405,145 405,145 405,145 405,145 405,145 404,146 404,146 404,145 404,145 403,145 403,145 403,145 403,145 402,145 402,145 402,145 402,145 402,146 402,146 402,146 402,146 402,146 402,147 402,147 402,147 401,146 401,146 401,146 400,146 400,145 400,145 400,145 400,145 399,145 399,146 399,146 400,146 400,146 400,146 400,146 400,146 400,147 400,147 400,147 399,147 399,147 399,147 399,147 399,147 398,147 398,147 398,147 398,147 398,147 397,147 396,147 396,147 396,148 395,149 394,149 394,149 394,149 394,149 394,149 394,148 394,148 395,148 395,148 395,147 394,147 394,147 394,147 394,148 394,148 394,148 394,148 394,148 393,147 393,147 393,147 393,147 392,147 392,147 391,147 391,147 391,147 391,148 391,148 391,148 391,148 391,148 391,149 391,149 391,149 390,149 390,149 390,149 390,149 390,149 389,150 389,150 389,150 388,150 388,150 388,150 387,149 387,149 387,149 387,149 387,150 387,150 387,151 386,151 386,152 386,152 386,152 385,152 385,152 385,152 385,153 385,153 385,153 385,153 385,153 385,153 384,152 384,152 384,152 384,152 383,152 383,152 383,152 383,152 383,152 383,152 383,152 383,152 383,152 383,153 383,153 383,153 383,153 383,153 382,153 382,153 382,153 382,153 382,153 382,153 382,154 382,154 382,154 382,154 382,154 382,154 382,154 382,154 381,154 381,154 381,154 380,154 380,154 380,155 380,154 379,154 379,154 379,154 378,154 378,154 378,155 378,155 378,155 378,155 378,155 378,155 378,155 378,155 378,155 378,155 378,155 377,155 377,155 377,155 377,155 377,155 377,156 377,156 377,156 377,156 378,156 378,156 378,157 378,157 378,157 378,157 378,157 378,157 378,157 377,157 377,157 377,157 377,157 377,157 376,157 376,156 376,156 375,157 375,157 375,157 375,157 375,157 376,157 377,157 377,157 377,157 377,157 376,158 376,158 376,158 376,158 377,158 377,158 377,158 377,159 377,159 376,159 376,159 377,159 377,160 377,160 378,160 378,160 378,160 378,160 377,160 377,160 377,161 377,161 377,161 377,161 377,161 377,161 378,161 378,161 378,161 379,161 378,161 378,162 378,162 378,162 377,162 377,162 378,163 378,164 378,164 378,164 378,164 378,164 378,164 378,164 378,165 378,165 378,165 378,166 378,166 378,166 378,166 377,166 377,166 377,166 377,167 377,167 377,167 377,167 377,167 378,167 378,167 378,167 379,167 379,167 379,168 379,168 379,168 379,169 379,169 379,169 379,170 379,170 379,170 379,171 379,171 379,171 380,172 380,172 380,172 380,172 380,172 380,173 380,173 380,173 380,173 380,174 380,174 381,174 381,174 381,174 381,174 381,174 381,174 382,174 382,174 382,175 383,175 383,175 384,175 384,175 383,175 383,176 383,176 383,176 383,176 382,175 382,175 382,176 382,176 382,176 381,176 381,176 381,177 381,177 381,177 382,177 382,176 382,176 383,176 383,176 383,176 383,176 383,176 384,176 384,176 384,177 383,177 383,177 384,177 384,177 384,178 384,178 384,178 384,178 385,178 385,178 385,178 385,178 385,179 385,179 385,179 385,179 384,179 384,179 385,179 385,179 385,179 385,179 385,179 385,179 386,179 386,179 386,179 386,179 386,179 386,179 387,179 387,179 387,179 388,179 389,179 389,179 389,180 389,180 389,180 389,180 389,180 389,180 387,181 387,181 387,181 387,181 388,181 388,181 388,181 388,181 388,181 388,181 388,181 388,182 388,182 388,182 388,182 388,182 388,182 388,182 388,182 388,182 389,182 389,182 389,182 389,183 389,183 389,183 389,183 389,183 388,183 388,183 389,183 389,183 389,183 389,183 389,184 389,184 389,184 389,184 390,184 390,184 389,184 389,184 389,184 388,184 388,184 388,184 388,184 388,184 388,184 388,185 388,185 385,186 385,186 385,186 384,186 382,186 382,186 380,187 379,187 379,187 379,187 379,187 378,187 378,187 378,187 378,188 378,188 378,188 378,188 378,188 378,189 378,189 378,189 378,189 378,189 378,189 378,189 378,190 378,190 378,190 377,190 377,190 377,190 377,190 377,190 376,191 376,191 376,191 374,192 374,192 374,192 374,192 369,197 367,197 366,198 363,202 363,202 363,202 363,203 363,203 362,203 362,203 362,204 362,204 361,205 360,205 360,205 360,205 358,205 357,205 354,204 354,205 354,205 354,205 352,205 351,204 350,204 350,204 350,204 349,204 348,203 348,203 348,203 347,203 347,203 347,202 346,203 346,203 346,203 346,203 346,203 346,204 345,204 345,204 345,203 345,203 345,203 345,203 345,203 344,203 344,203 344,203 344,203 343,203 343,203 343,203 343,203 343,203 343,203 342,203 342,203 342,203 342,203 342,203 342,203 342,203 342,203 342,204 342,204 341,204 342,204 342,204 341,204 341,205 341,205 341,205 341,205 341,205 341,205 341,205 340,205 339,205 339,205 339,205 339,205 338,205 338,205 338,205 338,205 338,205 337,205 337,206 336,206 336,206 335,206 335,206 335,206 333,206 333,206 333,206 333,206 333,206 332,206 332,207 332,207 331,207 331,207 331,207 331,207 330,207 330,207 330,207 330,207 330,207 330,207 330,207 329,207 328,207 328,208 328,208 327,208 327,208 327,208 327,208 327,209 326,209 325,209 325,210 323,211 323,211 323,211 323,211 323,211 322,212 322,212 322,212 322,212 322,212 322,212 321,213 321,213 321,213 321,213 321,213 321,213 321,213 320,213 320,214 320,214 320,214 320,214 320,214 320,215 320,215 320,215 320,215 320,215 320,215 320,215 320,216 320,216 320,216 319,216 319,216 319,216 319,217 319,217 319,217 319,217 318,217 318,217 318,218 318,218 318,218 318,218 318,218 317,218 317,218 317,218 316,218 316,218 315,218 315,218 314,218 313,218 313,217 312,217 311,217 311,217 310,217 310,217 309,216 309,216 309,216 309,216 308,216 308,216 308,216 308,216 307,216 307,216 306,216 306,215 306,215 306,214 305,214 304,214 304,214 303,213 301,213 300,212 298,211 298,211 298,211 298,211 297,211 296,211 296,211 296,210 295,210 295,210 295,210 294,210 294,210 293,210 293,209 293,209 292,209 292,209 292,209 292,209 292,209 290,208 289,207 289,206 289,206 288,206 287,205 287,205 287,205 287,205 287,205 287,205 287,204 287,204 287,204 287,204 287,203 287,204 287,204 287,203 286,204 286,204 283,205 282,205 282,205 279,206 278,207 277,207 277,207 276,207 275,207 275,207 274,207 274,206 274,206 273,206 273,206 272,206 272,206 272,206 271,206 271,206 270,205 270,205 270,205 269,204 268,203 267,203 267,203 267,204 267,204 267,204 266,206 266,206 266,206 265,207 265,207 264,208 264,208 264,208 263,207 263,207 262,207 262,208 260,209 260,209 260,209 260,209 260,209 259,209 258,210 257,210 257,210 255,211 255,211 254,211 254,210 253,210 253,209 253,209 253,209 252,209 250,210 250,210 248,211 248,211 248,211 248,211 248,211 248,210 248,210 248,210 248,209 248,209 248,209 247,209 247,208 247,208 247,208 246,208 246,207 246,207 246,207 246,208 245,208 245,208 245,208 245,208 245,208 245,208 245,207 245,207 245,207 244,207 244,207 244,207 243,207 243,206 243,206 242,206 242,206 242,206 242,206 242,206 242,206 241,206 240,206 240,206 240,207 239,207 239,206 239,206 239,206 239,206 239,206 239,206 239,206 239,205 238,205 238,205 238,205 238,204 238,204 238,204 238,204 238,204 236,205 236,205 235,204 234,204 234,204 232,201 231,198 230,199 228,200 227,200 227,200 227,199 227,199 227,199 227,199 226,199 226,198 226,198 226,198 226,197 226,197 226,197 226,197 226,197 226,196 225,196 225,196 225,196 225,196 225,196 225,196 225,196 225,196 225,197 225,197 223,197 223,197 222,196 222,195 221,194 221,194 221,194 221,194 221,194 220,194 220,194 219,194 218,195 218,195 218,194 218,194 216,193 216,193 215,195 215,195 215,195 215,195 215,195 215,195 215,195 215,195 215,195 214,195 214,195 214,195 214,195 214,195 214,195 214,195 213,194 212,194 212,194 211,194 210,193 210,193 209,193 207,192 207,192 205,193 205,193 205,193 205,193 205,194 205,194 204,194 204,194 204,194 203,194 203,194 203,194 203,195 202,195 202,196 202,196 202,197 202,197 201,197 201,198 200,198 200,198 200,198 200,198 199,198 198,197 198,197 198,197 198,197 197,198 197,198 197,198 196,197 196,197 196,197 196,197 193,197 193,197 193,197 193,197 192,198 192,198 192,198 192,198 192,198 192,199 192,199 193,199 193,199 193,199 193,199 193,199 193,199 193,199 193,199 193,199 193,199 193,200 193,200 193,200 193,200 193,200 193,201 193,201 193,201 192,201 192,202 192,202 192,202 192,202 192,202 192,203 191,203 191,203 192,203 192,204 192,204 192,204 191,205 191,205 191,205 190,206 190,206 190,206 190,207 190,208 190,208 191,209 191,209 191,209 189,211 188,212 187,213 187,213 187,213 186,216 185,218 184,220 184,220 184,220 185,220 185,220 185,220 185,220 185,220 186,220 186,220 186,220 186,220 186,221 186,221 186,221 186,221 186,221 185,222 185,222 185,222 185,222 185,222 182,223 182,223 182,223 181,223 181,223 179,224 179,225 178,225 178,226 177,227 176,227 176,227 175,229 173,230 172,231 172,231 172,231 171,231 170,230 170,230 169,229 169,228 168,228 166,229 165,230 163,231 162,232 161,232 158,233 156,234 156,235 155,235 155,235 154,235 153,236 151,236 150,236 150,237 149,237 149,237 148,237 147,236 147,235 147,235 146,235 146,235 145,234 144,233 143,233 140,232 140,232 140,232 140,232 140,232 139,232 139,232 139,233 138,233 138,233 138,233 138,233 138,233 138,233 138,233 138,233 137,233 136,233 136,233 136,233 135,233 135,233 135,233 135,233 135,233 134,233 134,233 134,233 134,233 134,233 133,233 133,233 132,233 132,233 131,233 131,233 131,233 130,233 130,233 129,233 129,233 129,233 128,233 128,233 128,233 127,233 127,233 127,233 126,233 126,232 124,232 124,232 123,232 123,232 121,231 121,231 120,231 120,231 120,231 120,231 120,231 119,231 119,231 120,231 120,232 119,231 119,232 117,232 117,232 116,232 115,232 115,233 115,233 115,233 114,233 114,233 114,233 113,234 112,234 111,234 111,235 111,235 111,235 110,235 110,235 109,235 108,235 108,235 108,235 107,235 107,235 107,235 107,235 107,235 107,235 106,235 105,235 105,235 104,235 104,235 103,235 103,235 103,235 102,235 101,235 101,236 101,236 101,236 101,237 100,238 100,238 100,239 95,239 95,239 95,239 95,239 90,239 87,238 87,238 85,239 85,239 83,239 82,239 82,239 81,239 81,239 81,239 80,238 80,238 80,238 79,237 79,237 79,237 78,237 77,236 77,236 77,236 76,236 76,236 75,236 75,236 74,236 73,236 73,236 72,236 71,235 71,235 71,235 71,235 70,235 70,235 69,235 69,235 69,235 69,234 69,234 68,234 68,234 69,234 70,233 70,233 70,233 70,232 70,232 72,232 73,231 73,231 73,231 72,226 71,224 71,224 69,224 68,224 67,224 67,224 66,224 65,225 63,225 62,225 62,225 61,225 60,225 60,225 59,224 55,224 53,224 53,223 50,221 49,221 49,221 47,219 47,219 46,218 46,218 44,217 44,217 41,216 40,215 40,215 38,213 37,213 29,211 27,210 24,210 24,210 23,210 22,209 22,209 22,209 21,209 21,209 21,208 20,209 20,209 19,210 19,210 18,209 17,209 15,207 15,207 15,207 15,207 15,207 18,207 18,207 18,207 18,207 22,206 22,206 22,206 22,206 23,206 23,207 24,207 25,207 28,207 28,207 29,207 30,207 31,207 31,207 33,207 33,207 34,208 34,208 35,208 37,208 38,208 38,208 39,208 40,208 41,208 41,208 41,208 42,208 43,208 43,208 45,208 45,208 45,208 46,208 46,208 47,208 47,208 48,208 48,208 49,209 49,209 51,209 53,209 54,209 54,209 54,209 55,208 55,208 55,207 56,206 56,206 58,203 59,202 59,202 59,202 59,202 60,202 60,202 60,202 60,202 60,201 60,201 60,201 64,199 65,199 65,199 68,199 71,199 72,199 77,198 77,198 78,198 78,198 78,198 78,198 78,198 78,198 78,198 78,197 79,198 80,197 84,196 84,196 84,196 84,195 84,195 84,194 84,194 83,193 83,193 83,192 83,192 83,192 83,192 83,191 82,191 82,191 80,192 79,190 79,190 79,190 79,190 79,189 79,189 79,189 79,189 79,189 79,188 79,188 78,187 79,186 79,186 79,186 81,185 80,185 80,185 80,185 80,185 81,184 81,183 81,183 81,183 81,182 81,182 81,182 81,182 81,182 81,182 82,181 82,181 82,181 82,181 82,181 82,181 82,181 82,179 82,179 82,179 82,178 82,178 82,177 82,177 82,177 82,175 80,173 80,173 79,172 78,171 78,171 76,170 75,169 75,169 75,169 75,169 76,168 75,168 75,168 75,167 75,167 75,167 75,167 75,167 75,166 75,166 75,166 74,166 74,166 74,166 74,165 74,165 73,165 73,165 73,165 73,165 71,165 70,165 70,164 70,164 70,163 70,162 70,162 69,162 69,162 69,161 69,161 73,157 73,157 73,157 73,157 74,155 74,155 72,153 72,153 71,153 71,153 71,153 71,153 70,153 69,153 69,153 69,153 68,152 68,152 68,152 67,152 67,152 67,151 66,151 66,151 66,151 65,151 65,151 65,151 64,150 64,150 67,149 67,148 67,148 68,148 68,148 69,148 69,147 69,147 70,146 70,146 70,146 71,145 71,145 71,145 71,144 71,143 71,143 71,143 70,143 70,143 69,142 69,142 67,142 67,142 67,141 67,141 66,141 66,141 66,140 66,140 65,140 65,140 65,140 64,140 64,140 64,140 64,140 64,140 65,139 65,138 65,138 65,137 65,137 65,136 65,136 65,136 65,136 65,135 65,135 65,135 65,135 65,133 64,132 64,132 64,132 64,131 63,130 63,130 63,130 63,130 62,130 62,130 59,129 55,127 55,126 55,126 50,123 49,123 49,123 43,119 43,119 43,119 38,118 37,118 37,118 36,118 36,118 36,117 35,117 35,117 34,117 34,116 33,116 33,116 32,116 32,116 32,116 33,115 33,115 33,115 33,115 32,115 31,114 31,114 30,114 30,114 30,114 30,114 29,114 29,114 29,114 29,113 29,113 28,113 28,113 28,113 27,113 27,113 27,113 26,113 26,112 26,112 25,112 25,112 24,112 24,111 24,112 23,111 23,111 22,111 22,111 22,111 22,111 22,111 22,110 22,110 21,110 21,110 21,110 21,110 20,110 20,110 20,110 20,109 20,109 19,110 17,110 16,111 12,112 11,112 11,112 11,112 10,112 10,112 10,112 10,113 10,113 10,113 10,113 8,114 8,114 8,114 7,114 7,114 6,113 6,113 6,112 5,111 5,109 4,108 4,107 3,106 2,105 2,105 2,104 2,103 3,101 3,100 4,99 3,99 3,98 3,97 3,97 3,96 3,96 1,95 1,94 0,93 0,93 1,93 0,92 0,92 0,92 0,91 0,91 0,91 0,90 0,90 0,90 0,90 1,89 1,88 2,88 2,87 2,87 2,87 2,87 2,87 1,85 1,83 1,83 0,82 0,82 0,81 1,81 0,81 1,80 1,80 1,80 2,79 2,78 2,78 2,78 3,77 2,77 2,77 3,77 3,76 5,75 5,75 5,75 5,75 6,74 6,73 6,73 6,73 6,73 6,73 5,71 4,69 4,69 4,69 4,68 4,67 4,67 4,66 4,66 4,66 5,65 5,65 5,65 5,65 5,64 6,63 9,60 9,59" id="3214" class="canton" fill="steelblue" stroke-width="1" stroke="white" geotype="canton" geoname="Lectoure-Lomagne" code_insee="3214" code_departement="32" nom_departement="Gers" code_region="76" nom_region="Occitanie"/></svg>