<?xml version="1.0" encoding="utf-8"?>
<svg version="1.1" id="svgmap" xmlns="http://www.w3.org/2000/svg" xmlns:xlink="http://www.w3.org/1999/xlink" x="0px" y="0px" width="100%" height="100%" viewBox="0 0 500 288">
<polygon points="0,108 6,107 10,105 11,105 12,104 13,104 13,105 13,105 15,105 17,104 17,104 20,103 23,102 32,99 35,98 61,87 66,86 71,81 73,79 74,79 76,79 76,79 79,78 80,78 81,78 81,78 82,77 82,77 82,77 82,77 82,76 83,76 83,75 85,74 85,74 85,73 86,73 85,73 86,72 86,72 86,72 86,71 87,71 87,71 87,70 87,70 88,70 88,69 88,69 89,68 89,68 89,69 89,68 90,68 90,68 90,68 90,68 91,68 91,68 92,67 92,67 92,67 92,67 92,66 93,66 93,66 93,66 94,65 94,65 94,65 94,65 94,65 94,65 94,65 94,65 95,65 95,64 95,64 96,64 96,63 97,63 97,62 97,62 97,62 97,61 97,61 97,60 97,60 97,59 97,59 97,59 96,58 96,58 96,58 96,57 97,57 97,57 97,57 97,57 97,57 97,57 97,56 97,56 97,55 97,55 97,55 97,54 97,54 97,53 97,52 97,52 97,51 98,51 98,51 98,51 98,51 98,50 98,50 98,50 98,50 97,50 97,50 98,50 98,50 98,49 98,49 98,49 98,49 98,49 98,49 98,49 98,49 98,49 98,48 98,48 98,48 98,48 98,48 98,48 98,47 97,47 97,47 97,47 96,47 96,46 96,46 96,46 96,45 97,45 97,45 97,44 98,44 98,44 98,44 98,44 98,44 99,44 99,44 99,44 99,44 100,44 100,43 100,43 100,43 100,43 100,43 100,43 100,43 100,43 101,43 101,42 101,42 101,42 102,42 102,42 102,42 102,42 102,41 102,41 103,41 103,41 103,41 103,41 104,41 104,41 104,41 104,41 105,40 105,40 105,40 105,40 105,40 105,40 105,40 105,39 105,39 105,38 105,38 104,38 104,38 105,37 105,37 105,37 105,37 105,36 106,36 106,36 106,36 106,36 106,35 106,35 106,35 107,35 107,34 107,34 107,34 107,34 107,34 107,34 107,33 107,33 108,33 108,33 108,33 108,32 108,32 108,32 108,32 108,32 108,32 108,32 109,31 109,31 109,32 109,32 109,32 109,32 110,31 110,31 110,31 111,31 111,31 111,30 111,29 111,29 111,29 111,29 111,28 111,28 111,28 110,28 110,28 111,27 111,27 111,27 112,27 112,26 113,26 113,26 113,26 113,26 114,25 114,25 115,25 116,26 116,26 118,26 120,27 121,27 122,27 124,28 125,28 126,29 128,30 129,30 130,30 131,31 131,31 132,31 133,31 133,31 134,32 134,32 135,32 136,33 136,33 137,34 137,34 138,35 139,34 139,34 140,35 140,35 140,35 141,35 141,35 142,34 144,31 144,31 144,31 146,31 146,31 148,32 148,32 152,33 152,33 154,33 155,34 155,34 156,34 156,33 157,33 157,33 157,33 158,32 158,31 158,31 158,30 159,30 159,31 160,32 161,32 161,32 162,32 164,32 164,32 165,32 165,32 166,32 167,31 168,31 168,30 169,30 171,29 171,29 170,29 170,29 171,29 171,29 171,28 171,28 172,27 173,26 173,26 173,25 173,22 173,22 173,22 173,22 173,21 173,21 173,21 173,20 174,19 174,17 175,17 175,17 175,17 176,15 176,15 176,15 175,14 175,14 176,13 175,13 175,13 176,12 176,11 177,10 178,10 178,9 177,9 176,9 177,8 176,8 176,8 176,8 176,7 175,7 175,7 175,6 175,6 174,6 174,6 174,5 174,5 174,5 175,4 176,4 178,3 178,3 180,3 181,3 183,2 184,2 185,1 185,1 187,1 187,1 188,1 189,0 189,0 189,1 191,1 192,1 193,1 193,1 196,2 196,2 197,3 197,3 197,3 197,3 198,3 198,4 198,4 200,4 200,4 200,4 201,4 203,5 203,5 203,5 204,6 204,7 204,7 205,8 204,8 204,8 204,9 204,9 205,9 205,9 205,10 204,10 205,11 206,12 206,12 206,12 207,13 207,14 209,15 209,15 209,15 211,15 211,16 212,16 212,16 213,16 214,16 214,15 216,15 216,15 217,14 217,14 218,13 220,11 221,11 221,11 221,11 222,11 222,11 222,11 223,10 223,10 224,10 224,10 225,10 226,10 227,10 228,10 229,10 229,10 232,10 233,10 234,9 236,9 240,9 241,9 241,9 241,9 241,9 242,9 242,9 243,9 244,10 244,10 244,10 244,10 245,11 246,11 246,11 246,12 246,13 247,13 246,14 246,15 246,15 248,16 248,16 248,17 248,17 248,17 249,19 249,19 249,19 250,21 251,23 251,23 252,23 252,23 252,23 253,22 253,22 254,22 255,23 256,23 257,22 258,22 258,21 259,22 259,21 261,23 261,23 262,23 262,22 262,22 263,22 263,22 263,21 263,20 264,21 265,20 265,20 267,20 267,20 268,19 268,19 268,18 268,18 269,18 271,18 271,17 271,17 271,17 272,16 272,16 275,15 275,15 276,15 276,14 278,14 278,13 278,13 278,13 278,13 279,13 281,12 281,12 281,12 282,11 282,11 281,10 281,10 281,10 284,9 285,9 285,9 286,9 286,9 287,9 287,8 287,8 287,8 287,8 288,8 289,8 289,7 289,7 290,7 290,7 290,7 290,7 291,6 291,6 292,6 292,6 292,6 293,5 293,5 294,5 294,5 296,4 296,4 296,4 296,4 296,3 296,3 295,3 295,2 295,2 295,2 294,1 294,1 295,1 295,1 296,0 297,0 297,0 297,0 298,1 298,1 299,1 299,1 299,1 299,1 300,1 301,2 302,2 302,3 302,3 302,3 302,3 303,3 303,3 303,3 303,3 303,3 303,3 303,3 303,3 303,4 304,4 304,4 305,4 305,4 305,5 305,5 305,5 305,5 305,5 305,5 306,5 306,5 306,6 306,6 306,6 305,6 305,6 304,6 304,6 304,6 303,6 303,6 302,6 301,6 301,6 300,6 300,6 301,7 301,7 302,7 302,8 302,8 303,8 303,8 303,8 303,8 304,9 304,9 304,9 304,9 304,9 304,9 304,9 304,9 305,9 305,9 305,9 306,9 306,9 306,10 307,10 307,10 307,10 307,10 307,10 308,10 308,10 308,11 308,11 308,11 308,11 308,11 309,12 309,12 309,12 309,12 309,12 310,12 310,12 311,13 311,13 311,13 311,13 311,13 312,13 312,13 312,14 312,14 312,14 312,14 313,14 313,14 314,14 315,15 315,15 316,16 317,16 317,17 317,17 317,17 316,18 316,18 316,18 316,18 316,18 317,19 317,19 318,19 318,19 318,19 318,19 319,19 319,19 320,19 320,19 320,19 321,19 322,19 322,20 323,20 323,20 324,20 324,20 325,21 325,21 325,21 326,21 326,21 326,21 327,21 327,22 327,22 328,22 328,22 328,22 328,23 328,23 328,23 328,23 328,24 328,24 328,24 328,24 329,24 328,24 328,25 328,25 328,25 328,25 328,26 328,26 328,26 328,26 328,26 329,26 329,26 329,27 330,27 330,28 330,28 331,28 331,28 332,28 332,29 332,29 332,29 332,29 332,29 332,30 332,30 332,30 333,30 333,30 333,30 334,30 334,30 334,30 334,29 334,29 334,29 334,29 334,29 334,29 335,29 335,28 335,28 335,28 335,28 336,28 336,27 336,27 336,27 336,27 336,27 336,27 336,27 336,27 337,27 337,27 337,27 338,27 338,27 338,27 338,27 338,26 339,26 339,26 339,26 339,26 339,26 339,26 340,26 340,26 340,26 341,25 341,25 341,25 341,25 342,25 342,25 343,25 343,25 343,25 343,24 344,24 344,24 344,24 344,23 344,23 345,23 345,23 345,23 345,22 344,22 344,22 344,21 345,21 345,21 345,21 345,20 346,20 346,20 346,20 346,20 346,20 347,20 346,20 347,19 347,19 348,18 349,18 349,18 349,18 350,19 351,19 351,19 352,19 352,19 352,19 352,19 353,19 353,19 354,19 354,19 354,19 354,19 354,19 355,19 355,19 355,19 355,19 355,19 355,19 356,19 356,19 356,19 356,20 356,20 356,20 356,20 357,20 357,20 357,20 358,20 358,20 358,20 359,20 360,20 360,20 360,20 361,20 361,20 361,20 361,20 362,20 362,20 362,20 363,20 363,20 363,20 363,20 365,21 367,21 367,21 367,21 368,21 368,21 368,22 368,22 368,22 369,23 370,23 370,23 370,25 370,25 369,25 369,26 368,27 368,27 368,27 368,29 368,29 368,29 368,29 368,29 368,29 367,29 367,30 367,30 371,30 371,30 371,31 371,31 369,32 368,32 367,33 367,33 364,36 363,37 363,37 363,37 362,38 361,38 361,38 362,38 364,39 364,39 365,39 365,40 364,40 364,41 363,42 362,43 361,44 361,44 361,44 360,45 360,45 359,46 359,46 359,46 359,46 360,46 359,47 360,47 360,47 361,48 362,48 362,48 362,48 362,48 362,48 362,48 363,49 363,49 364,49 364,49 364,49 365,49 365,49 365,49 365,50 365,50 365,50 365,50 365,50 366,50 366,50 366,50 365,50 365,50 365,50 365,50 365,50 365,51 364,51 364,51 364,51 364,51 365,51 365,51 365,51 366,51 366,51 366,51 366,51 366,51 366,52 366,52 367,52 367,52 367,52 367,52 368,52 368,52 368,52 368,52 369,52 369,52 369,52 369,52 370,52 370,52 370,52 371,52 371,52 371,53 371,53 371,53 371,53 372,53 372,53 372,53 373,54 373,54 373,54 374,54 374,54 374,54 374,54 374,54 374,55 374,55 374,55 374,56 374,57 374,57 374,58 374,59 374,60 373,60 373,60 373,61 374,61 373,62 373,62 373,62 373,62 373,62 373,62 373,62 374,63 374,63 374,63 374,63 374,64 375,64 375,64 375,65 375,65 375,65 374,65 374,65 374,65 373,65 373,65 372,65 372,65 372,65 371,66 371,66 371,66 371,66 371,67 371,67 371,68 371,68 371,68 370,68 369,68 369,68 368,68 368,68 367,68 367,68 366,68 366,68 365,68 365,68 364,68 364,68 364,68 364,68 363,68 363,68 363,68 362,68 362,68 361,68 361,68 360,68 360,69 360,69 360,69 360,70 360,70 360,70 360,70 361,69 361,69 362,69 362,69 365,70 366,70 368,71 369,71 369,71 370,71 370,71 371,72 371,72 371,73 371,73 370,74 370,75 370,75 369,76 368,77 368,77 368,78 368,78 368,79 368,79 368,80 368,80 369,80 369,80 369,80 369,80 370,80 371,80 372,80 375,79 376,79 376,79 376,79 377,79 377,79 377,78 378,78 378,77 379,77 379,76 379,76 379,76 380,76 380,76 381,76 382,76 382,75 383,75 384,76 385,76 386,76 390,76 391,77 391,77 392,77 393,77 393,77 394,76 394,76 395,76 395,76 396,76 397,76 398,76 398,76 399,76 400,76 400,76 401,76 401,77 401,77 401,77 402,77 402,77 402,77 402,77 402,78 403,78 403,78 403,78 404,78 404,79 404,79 404,79 405,79 405,80 405,80 406,80 406,80 406,80 408,80 408,80 409,81 411,81 411,81 411,81 411,82 412,82 412,82 412,82 412,82 412,82 412,82 412,83 412,83 414,84 414,84 414,84 414,84 416,84 416,84 416,84 416,84 417,84 418,84 418,85 418,85 419,85 419,85 419,85 421,85 421,85 421,85 421,85 422,85 422,85 423,85 423,85 423,84 423,84 423,84 425,84 425,84 425,84 425,84 426,84 427,84 427,84 427,84 427,84 428,84 428,84 429,84 430,84 430,83 431,83 431,83 432,83 432,83 433,83 433,82 433,82 436,82 437,82 437,82 438,82 439,82 439,82 440,82 440,82 440,82 441,82 441,82 442,82 442,83 442,83 442,83 442,83 443,83 443,83 443,83 443,83 443,83 444,83 444,83 444,83 444,83 444,83 444,84 444,84 444,84 445,84 444,84 444,84 444,84 444,84 444,84 445,84 445,84 445,84 445,84 444,84 444,84 445,85 445,85 445,85 445,85 445,85 445,85 446,85 446,85 446,85 446,85 446,85 447,85 447,85 447,85 447,85 447,85 448,85 448,85 448,85 448,85 448,85 448,85 448,85 449,85 449,85 449,85 449,85 449,85 449,85 450,85 450,85 450,85 450,85 451,85 451,85 452,85 452,85 452,85 452,85 452,85 453,85 454,84 454,84 454,84 454,84 455,83 456,82 456,82 456,82 457,82 457,82 457,82 458,82 458,82 458,82 458,80 458,80 458,80 461,81 461,81 461,81 461,81 461,81 461,81 462,81 463,81 463,81 463,82 463,82 463,82 463,82 465,83 467,83 468,83 468,83 468,83 469,83 469,84 470,84 470,84 471,84 471,84 471,84 472,84 472,84 473,84 478,84 478,84 478,84 478,84 478,84 478,84 478,84 479,84 479,84 480,84 480,84 480,84 480,84 480,85 480,85 480,85 480,85 480,85 481,85 481,85 481,85 481,85 483,86 483,86 483,86 484,87 484,87 484,87 484,87 485,87 485,87 485,87 485,87 486,87 486,88 486,88 486,88 486,88 487,88 487,88 487,89 487,89 487,89 487,89 488,89 488,89 488,89 489,89 490,89 490,89 490,89 490,89 490,89 490,89 492,89 493,90 493,90 494,90 495,90 495,90 495,90 496,90 496,90 497,91 497,91 497,91 497,91 497,91 498,92 498,92 498,92 491,96 491,97 486,100 486,100 484,101 484,102 483,102 483,102 483,102 482,103 482,103 479,105 479,105 478,106 478,106 478,106 475,107 475,107 474,108 466,114 457,119 449,124 448,126 441,130 441,130 440,131 440,131 440,131 440,131 441,131 442,131 442,131 442,131 443,131 443,131 443,131 444,131 444,130 444,130 445,130 448,130 448,130 448,130 449,130 450,131 450,131 450,131 450,131 450,131 451,132 451,132 451,132 452,133 452,133 452,133 452,134 452,134 452,134 453,134 453,134 453,134 453,134 453,134 453,135 453,135 453,135 453,135 453,135 453,135 453,135 453,135 453,135 454,136 456,136 456,136 457,136 457,136 457,136 457,136 457,136 457,136 458,136 458,136 458,136 458,136 458,136 459,136 459,136 459,136 459,135 459,135 460,136 460,136 461,136 461,136 461,136 462,136 462,136 462,136 462,137 462,137 462,137 462,137 463,137 463,137 463,137 464,137 464,137 465,137 465,137 466,137 466,137 466,137 467,137 467,137 468,137 468,137 468,137 468,137 468,137 468,137 469,137 469,137 469,137 469,137 469,137 469,137 469,137 469,137 470,137 470,137 471,137 471,138 472,138 472,138 472,138 472,138 472,138 473,138 473,138 473,138 473,139 473,139 473,139 473,139 473,139 473,139 473,139 473,139 473,139 473,139 473,139 473,139 473,139 474,139 474,139 474,139 474,139 474,139 474,139 474,140 474,140 474,140 475,141 475,141 476,142 476,142 476,142 476,142 476,143 476,143 476,143 476,143 476,143 476,143 476,143 476,143 476,143 477,143 477,143 477,143 477,143 477,143 477,143 477,143 478,143 478,143 478,143 478,142 478,142 479,142 479,142 479,142 479,142 479,142 479,142 479,142 479,142 479,142 479,142 479,142 480,142 480,142 480,142 480,142 480,142 480,142 480,142 480,142 481,142 481,142 481,142 481,142 481,142 481,142 482,142 482,142 482,142 482,142 482,142 483,142 483,142 484,142 484,142 484,142 484,142 484,142 485,142 485,142 485,142 485,142 486,143 486,143 486,143 486,143 486,144 486,144 486,144 486,144 488,145 488,145 488,145 489,145 489,145 489,145 489,145 489,145 489,145 489,145 489,145 490,145 490,145 490,145 490,145 491,145 491,145 491,145 492,145 492,145 492,145 492,145 492,145 492,145 492,145 492,145 493,145 493,145 493,145 493,145 493,145 494,145 494,145 494,145 494,145 494,145 495,146 495,146 495,147 495,147 495,147 495,147 496,147 496,147 496,147 496,147 496,147 496,147 496,147 496,147 496,147 496,147 497,148 497,147 497,147 497,147 497,147 497,147 497,147 497,147 497,147 497,147 497,148 497,148 498,148 498,147 498,147 498,147 499,147 499,147 499,147 499,148 499,148 499,148 499,148 499,147 500,147 500,147 500,147 500,148 500,148 500,148 500,148 500,148 499,149 499,149 499,149 498,149 498,149 496,149 496,149 495,149 495,149 494,149 494,149 493,150 493,150 492,150 491,151 490,151 490,152 489,152 486,152 485,152 484,152 483,152 482,152 481,152 481,152 481,153 480,153 478,154 477,155 477,155 476,156 475,156 475,156 474,156 474,157 472,157 471,157 469,158 468,158 467,159 466,160 465,160 465,160 463,161 461,162 460,162 459,162 459,162 459,162 459,162 460,163 462,164 463,164 463,165 462,165 462,166 462,166 461,166 461,166 460,167 460,167 459,167 457,168 454,170 453,171 452,173 452,174 450,177 449,178 449,179 449,179 449,180 449,180 448,180 448,180 448,181 448,181 448,181 448,181 447,182 447,182 447,182 447,182 446,182 446,182 446,182 446,183 446,183 446,183 445,183 445,183 446,183 445,183 445,183 445,183 445,183 445,183 445,183 445,183 445,183 445,183 445,183 445,183 444,184 444,184 444,183 444,183 444,183 444,183 443,184 443,184 443,184 443,184 443,184 443,184 442,184 442,184 442,184 442,184 441,184 441,185 441,185 440,185 440,185 440,185 440,186 440,186 439,186 439,186 439,186 439,186 438,186 438,187 438,186 438,187 438,187 438,187 438,187 437,187 437,187 437,187 437,187 437,188 437,188 437,188 437,189 437,189 437,190 437,190 437,190 437,190 437,191 437,191 437,191 437,191 437,191 436,192 436,192 437,192 437,193 437,193 438,193 438,193 438,194 438,194 439,195 439,195 439,195 440,195 440,195 440,195 440,196 440,196 441,196 441,196 441,196 441,196 441,196 441,197 442,197 442,197 442,197 442,197 442,198 442,198 442,198 442,198 442,198 443,198 443,198 443,199 443,199 443,199 443,199 443,200 442,200 442,200 442,200 443,200 443,200 443,200 443,201 442,201 442,201 442,201 442,201 442,201 442,201 442,201 442,201 442,202 441,202 441,202 441,202 441,202 440,202 440,202 440,203 440,203 440,203 440,203 440,203 440,203 440,204 440,204 440,204 440,204 440,204 440,204 440,204 440,204 440,205 440,205 440,205 440,205 440,205 440,205 440,205 440,206 440,206 440,206 440,206 440,206 440,206 440,207 440,207 440,207 440,207 440,207 440,207 440,207 440,208 440,208 439,208 439,209 439,210 439,210 438,211 438,211 439,211 439,212 439,213 439,213 439,214 438,214 438,214 438,214 438,215 437,215 437,215 437,215 437,215 436,215 436,215 436,215 436,215 434,216 433,215 431,215 430,214 429,214 428,214 427,214 425,214 423,214 421,214 418,214 416,215 412,215 411,215 407,215 403,215 399,215 394,216 392,216 391,216 390,217 389,217 387,218 386,218 386,218 385,219 383,221 382,221 382,222 382,222 381,223 381,223 381,225 381,225 381,226 381,226 381,227 382,228 383,229 383,230 385,231 385,231 386,231 388,232 388,233 389,233 389,233 390,234 391,235 392,236 392,237 392,237 393,238 393,238 393,239 392,240 392,241 392,242 391,242 390,243 389,244 388,244 388,245 386,245 386,245 385,246 383,246 379,247 375,248 370,250 369,250 368,251 366,251 364,252 363,252 361,252 359,252 357,252 356,252 355,251 354,251 353,251 352,250 351,250 350,249 349,248 349,248 349,247 348,247 347,247 345,248 344,248 344,248 342,248 342,248 341,248 340,248 339,248 338,248 338,248 337,248 334,248 334,248 335,250 335,250 335,250 331,251 331,251 331,253 331,253 331,255 330,256 332,257 332,257 332,257 332,258 331,259 331,259 331,260 331,260 330,260 330,261 330,262 330,262 329,261 329,261 327,262 326,262 325,262 325,262 324,262 324,262 323,262 323,262 322,264 322,264 323,264 324,264 322,266 320,270 320,270 320,270 319,271 319,271 319,273 319,273 318,274 318,274 318,275 318,276 318,276 317,276 317,277 317,278 317,278 317,279 318,279 317,279 317,279 316,280 316,281 316,281 316,281 315,282 315,282 315,282 314,283 314,283 314,284 314,284 314,284 315,284 315,284 315,285 314,285 314,285 315,286 315,287 315,287 316,287 316,288 316,288 316,288 314,288 313,288 310,288 310,288 309,287 308,287 305,287 305,287 304,286 304,286 304,287 303,287 302,287 302,287 300,286 298,286 297,285 295,285 295,285 292,284 292,284 292,282 292,282 292,281 292,281 292,281 292,281 292,280 292,280 293,279 293,278 293,277 293,277 293,275 293,274 292,274 292,274 292,273 292,273 292,273 292,273 292,273 291,273 291,273 290,273 289,273 288,273 287,273 287,273 287,273 286,272 286,272 285,272 285,272 284,272 284,271 283,270 283,269 282,269 282,269 281,269 281,269 281,268 279,268 277,267 276,266 275,266 274,265 273,266 273,267 273,268 273,268 272,269 271,270 271,270 271,271 271,271 271,271 271,272 271,272 270,273 270,273 269,274 269,274 269,274 269,274 269,273 268,273 266,271 266,271 265,270 263,270 262,270 262,270 260,269 258,268 258,268 256,267 256,266 255,266 255,266 255,265 254,260 253,261 250,263 249,263 248,263 247,262 247,262 246,261 246,261 245,261 245,261 245,261 245,260 244,260 243,260 241,261 240,262 240,262 240,261 240,261 239,261 239,260 238,259 237,258 236,258 233,259 233,259 232,259 232,259 231,257 231,257 230,256 228,255 227,254 227,254 227,254 226,253 226,253 225,253 225,253 225,253 224,253 223,254 223,255 222,256 221,257 220,257 220,258 217,256 216,255 216,255 214,254 214,254 213,253 213,253 213,253 212,252 212,252 213,252 207,249 207,249 206,249 206,249 206,249 206,249 206,249 204,247 204,247 203,246 201,242 200,242 200,241 200,241 201,239 201,239 201,239 200,238 200,238 200,237 200,237 200,237 199,237 196,237 196,236 196,236 196,236 197,235 194,235 193,235 193,235 193,235 192,234 192,230 192,229 191,226 187,225 187,224 187,224 186,223 187,222 187,222 187,222 187,216 189,215 187,214 187,213 185,212 185,212 185,212 185,212 185,212 185,212 186,211 186,210 186,210 187,209 186,209 185,208 185,208 185,207 185,207 185,207 183,206 183,206 183,206 183,206 181,205 181,205 180,205 180,205 178,204 178,204 176,204 176,203 174,204 174,204 174,204 173,204 172,203 172,203 170,202 167,201 167,201 167,201 167,201 167,201 166,201 166,201 165,201 165,201 165,201 165,201 164,201 162,200 161,200 162,200 162,200 162,200 162,200 162,200 162,200 162,200 162,199 162,199 162,199 162,199 162,199 162,199 162,199 162,198 162,198 162,198 162,198 162,198 162,198 162,197 162,197 162,197 162,197 162,197 162,197 162,196 162,196 162,196 162,196 162,196 163,195 163,195 163,195 163,195 163,194 163,194 164,194 164,194 164,193 164,193 164,193 165,193 165,192 165,192 165,192 165,192 165,192 165,192 165,191 165,191 165,191 165,190 165,190 165,190 165,190 166,189 166,189 166,189 166,189 166,188 166,188 166,188 166,188 166,187 166,187 165,187 165,186 165,186 165,186 165,186 165,185 165,185 165,185 165,184 164,184 164,183 164,183 163,183 163,183 163,182 163,182 162,182 162,182 162,182 162,182 162,182 162,182 161,182 161,182 161,182 161,181 161,181 160,181 159,181 159,180 158,180 158,180 158,181 158,181 158,181 155,181 155,181 155,180 155,180 155,180 153,180 153,180 153,180 153,180 151,179 151,179 150,180 150,180 150,180 150,181 150,181 150,181 151,182 151,182 152,183 152,184 153,184 153,184 153,184 153,185 154,185 153,185 152,185 148,185 140,183 140,183 140,183 140,183 139,182 138,182 138,182 136,182 134,181 133,181 131,181 131,181 129,180 129,180 130,179 130,179 132,178 133,177 133,177 133,176 132,176 131,175 131,175 131,175 129,174 129,174 129,174 128,173 128,173 127,173 127,173 127,173 126,173 126,173 126,173 126,173 126,173 125,173 125,173 123,172 123,172 122,171 122,170 122,169 121,169 121,169 121,169 121,169 120,168 121,168 121,167 121,167 121,167 120,167 120,166 120,166 119,167 119,167 118,167 118,167 118,166 117,166 116,166 115,166 115,166 114,167 113,168 112,168 112,168 112,168 112,168 111,168 107,168 107,168 106,168 106,167 109,163 112,160 113,159 113,158 113,158 113,157 113,156 113,155 113,154 113,154 113,154 113,153 114,151 114,151 115,151 115,150 116,150 117,150 117,150 117,150 117,149 117,149 117,149 118,149 118,149 118,149 119,149 120,148 120,148 120,148 120,148 120,148 120,148 120,148 121,145 121,145 122,142 122,142 124,139 124,138 127,134 125,133 124,132 118,128 115,126 114,125 112,124 109,123 106,121 104,121 101,120 98,119 95,119 94,119 91,118 90,118 89,118 87,118 86,118 85,118 82,119 81,119 74,121 74,122 71,123 68,124 68,124 65,126 63,127 60,129 59,130 56,132 50,135 44,138 42,138 39,139 36,140 35,141 33,141 32,141 29,142 28,142 27,142 25,142 24,141 23,141 23,141 21,141 20,140 20,140 19,140 17,139 16,138 15,137 14,136 13,136 12,134 12,133 11,133 6,123 3,114 2,111 0,108" id="3316" class="canton" fill="steelblue" stroke-width="1" stroke="white" geotype="canton" geoname="Libournais-Fronsadais" code_insee="3316" code_departement="33" nom_departement="Gironde" code_region="75" nom_region="Nouvelle-Aquitaine"/></svg>