<?xml version="1.0" encoding="utf-8"?>
<svg version="1.1" id="svgmap" xmlns="http://www.w3.org/2000/svg" xmlns:xlink="http://www.w3.org/1999/xlink" x="0px" y="0px" width="100%" height="100%" viewBox="0 0 500 349">
<polygon points="205,67 215,69 222,71 230,74 236,83 237,87 239,99 240,111 240,114 245,129 255,140 266,151 272,159 273,161 274,164 276,167 279,176 284,186 285,187 285,188 286,189 287,190 288,191 289,191 291,192 292,193 293,194 294,194 295,194 296,195 297,195 298,195 299,195 300,195 302,195 303,195 306,195 307,195 309,194 310,194 313,193 316,192 318,191 325,188 330,185 334,183 335,182 338,180 340,179 343,177 343,177 346,176 349,175 349,175 356,173 357,172 361,171 362,171 363,171 365,171 366,171 366,171 369,172 371,172 374,172 377,173 380,174 382,174 386,176 388,177 390,178 392,179 395,181 401,186 402,186 404,188 401,192 400,192 399,195 399,196 397,199 397,199 396,202 396,202 397,202 397,202 397,202 397,202 397,202 396,203 395,203 395,203 394,203 394,203 394,203 394,203 393,204 393,204 393,204 393,204 392,204 391,205 391,205 391,205 390,207 390,208 390,208 390,209 390,209 390,210 390,211 389,212 389,213 389,213 388,214 386,217 382,222 382,222 383,222 383,222 388,223 388,223 388,223 388,223 389,223 390,222 390,222 392,220 392,220 393,221 394,221 394,221 395,221 395,221 395,221 396,221 396,221 397,221 397,221 397,222 398,222 398,222 397,222 397,223 397,223 397,223 398,224 398,224 399,224 399,224 399,225 400,226 400,226 402,228 402,228 402,228 403,228 403,228 403,228 403,228 404,228 404,228 404,228 405,228 405,228 406,228 406,228 406,229 408,230 408,230 408,230 409,230 411,231 411,231 410,232 409,233 407,234 407,234 406,235 406,235 408,236 408,236 410,237 411,237 413,237 416,237 416,237 417,238 417,238 417,238 417,238 417,238 426,240 430,240 431,240 431,240 431,240 431,240 431,239 431,239 430,239 430,238 429,238 428,237 428,236 428,236 428,236 428,236 428,235 428,235 428,234 428,234 430,235 430,235 430,235 431,235 433,235 433,235 433,236 433,236 433,236 436,236 436,236 436,236 436,235 436,235 437,236 437,236 438,236 439,236 439,236 439,237 440,237 440,237 440,237 440,237 440,237 440,237 440,237 440,237 441,238 441,238 441,238 441,238 442,238 442,238 443,239 443,239 443,240 443,240 444,241 444,241 444,241 443,241 443,241 444,242 444,242 444,243 444,243 444,243 444,244 444,244 444,244 444,244 444,244 444,245 444,245 444,245 444,246 443,246 443,246 443,246 443,247 443,247 443,247 443,248 443,248 443,248 443,248 443,248 443,248 442,248 442,249 442,249 442,250 442,250 442,250 441,250 441,250 441,251 441,251 441,251 441,251 441,252 441,252 441,252 440,252 440,252 441,253 441,253 441,253 440,253 440,253 440,253 440,254 440,254 440,254 440,254 440,254 440,254 440,255 440,255 440,255 440,255 440,255 440,255 440,255 440,256 440,256 440,256 440,256 440,256 440,256 440,256 442,257 443,257 443,257 443,257 444,257 444,257 444,257 445,257 445,257 445,257 446,257 446,257 448,258 451,259 451,259 451,260 453,260 453,260 453,260 454,259 455,259 456,260 456,260 459,261 459,261 460,261 460,261 461,262 462,262 462,262 462,262 464,262 464,263 464,263 464,264 464,264 465,265 466,265 464,266 465,267 465,267 464,268 464,268 464,268 464,268 464,268 464,268 466,269 466,270 468,271 466,273 466,279 466,279 466,279 465,280 466,281 466,281 466,281 470,282 471,286 471,287 472,291 472,292 472,292 472,292 473,292 476,292 476,292 476,293 476,293 475,294 478,294 480,294 480,294 480,294 480,295 480,295 480,296 480,296 480,296 480,298 480,299 480,299 480,299 482,303 483,304 483,304 486,306 486,306 485,307 486,307 486,307 486,307 486,307 493,309 492,310 492,310 493,310 493,311 493,311 494,311 494,311 496,312 496,313 497,313 500,315 499,316 498,318 497,318 497,319 497,319 497,319 496,319 494,320 493,320 493,320 492,319 492,319 492,319 492,320 490,321 488,322 488,322 488,322 487,323 487,323 487,323 486,324 486,324 485,325 484,326 484,326 483,327 483,327 482,328 481,328 481,328 479,329 479,329 478,329 478,329 476,329 476,329 475,330 475,330 475,330 475,330 475,330 475,330 476,330 476,330 475,330 475,330 475,330 475,331 475,331 475,331 475,331 475,331 474,331 474,331 474,331 474,331 474,331 474,331 473,331 473,331 473,331 472,331 472,332 472,332 471,332 471,332 471,332 471,332 471,333 471,333 471,333 471,333 471,333 470,333 470,333 470,333 471,334 470,334 470,334 470,334 469,334 469,334 469,334 469,334 469,334 468,334 468,335 468,335 468,335 467,335 467,335 467,335 467,335 467,335 466,335 465,335 465,335 464,335 463,336 462,337 462,337 462,338 460,339 460,339 460,339 459,339 459,340 459,340 459,340 459,340 458,340 458,340 457,341 457,341 457,340 457,341 456,341 456,341 456,341 456,340 456,340 456,340 455,341 455,341 454,342 453,342 453,342 453,342 453,342 452,343 452,343 452,342 452,342 451,343 451,343 451,343 451,344 451,344 451,344 451,344 451,344 450,345 450,345 450,345 450,345 449,345 449,346 450,346 449,346 449,346 449,347 449,347 449,347 449,347 448,347 448,347 448,348 448,348 447,348 447,348 447,348 446,348 446,348 446,348 446,348 446,349 446,349 446,348 446,348 446,347 446,347 445,347 445,347 444,347 444,347 444,347 443,346 443,346 443,346 443,346 442,346 441,346 441,346 440,345 440,345 440,345 440,345 440,345 440,345 440,345 439,344 439,344 439,344 439,344 439,344 438,343 437,343 437,343 436,342 431,339 430,339 429,338 429,338 429,338 428,339 428,339 426,338 425,337 424,337 423,337 422,337 422,337 421,336 419,336 417,335 417,335 413,334 413,335 413,335 412,334 412,334 411,334 410,333 409,333 409,333 409,333 408,333 408,333 406,332 406,332 406,332 405,332 403,331 403,331 402,331 402,331 401,330 401,330 399,330 399,330 394,327 394,327 393,325 392,325 392,324 392,324 392,324 392,324 391,324 391,324 391,324 391,324 390,324 390,324 390,324 389,325 389,325 389,327 388,327 388,327 380,327 380,327 380,330 373,329 372,329 372,329 370,328 368,328 367,329 367,329 366,329 366,328 366,328 366,328 366,328 364,327 364,327 363,326 363,326 359,326 358,326 358,326 358,326 357,326 357,326 356,327 354,327 354,327 354,327 353,327 353,327 353,327 353,327 352,327 351,327 351,327 350,327 350,327 350,327 350,327 350,328 349,328 349,328 349,327 349,327 349,327 349,327 349,325 349,325 349,324 349,324 349,324 349,324 350,324 350,324 352,321 352,320 352,320 352,319 352,318 352,318 352,318 352,317 353,316 353,316 354,315 354,315 354,315 354,315 354,313 354,313 354,311 354,310 355,309 355,308 355,307 355,306 355,306 355,306 355,306 355,305 355,305 356,305 356,305 356,305 356,305 356,305 356,304 356,304 356,303 356,303 355,303 355,303 355,303 355,303 355,303 355,303 355,303 355,303 355,302 355,302 355,302 355,302 355,302 356,302 356,301 356,301 356,301 355,301 355,301 356,301 355,301 356,301 356,300 356,300 356,300 356,301 356,301 356,300 357,301 357,301 357,300 357,300 357,300 357,300 357,299 357,299 356,298 356,297 356,297 356,296 356,296 356,295 356,295 356,294 356,294 355,294 355,293 354,293 354,293 354,293 354,293 354,292 354,292 354,292 354,292 354,292 354,292 354,292 354,291 354,290 354,290 354,289 354,288 354,288 353,287 353,287 353,286 353,286 353,286 353,285 353,284 353,284 353,283 353,283 353,283 353,283 353,283 353,282 353,282 353,282 353,282 353,282 353,282 353,282 354,282 354,282 354,282 354,281 354,281 354,280 353,279 353,279 354,279 354,279 354,279 354,279 354,279 354,279 354,278 354,278 354,278 354,278 354,278 354,278 353,278 353,278 353,278 353,278 353,278 353,277 353,277 353,277 353,277 353,277 353,277 353,277 353,276 353,274 353,274 353,274 353,274 353,273 353,273 354,273 354,273 354,273 354,273 354,273 354,273 354,273 354,272 354,272 354,272 354,272 354,272 354,272 354,272 354,271 354,271 354,271 354,271 354,270 354,270 354,270 354,269 354,269 354,269 354,268 354,268 354,267 354,267 354,267 354,266 355,265 355,265 356,265 356,264 356,264 357,263 358,262 358,262 359,261 359,261 359,260 359,260 359,259 359,259 359,258 359,258 359,257 359,257 359,257 359,257 360,257 360,257 360,257 360,257 360,257 360,257 360,257 361,256 361,256 361,256 361,256 360,256 360,256 360,256 361,256 361,256 361,256 361,255 361,255 361,255 360,255 360,255 360,256 356,257 356,258 355,258 354,259 351,260 349,261 349,262 347,262 347,262 346,262 345,262 345,262 344,263 343,263 343,263 343,264 342,264 342,264 341,264 340,265 339,265 337,266 336,266 336,266 335,266 335,266 335,266 335,266 334,266 334,266 333,266 332,266 332,265 331,265 331,265 330,265 329,265 329,265 328,265 328,265 327,265 327,265 326,265 326,265 325,265 324,265 324,265 324,265 323,265 323,265 322,265 322,265 321,265 320,266 320,266 319,266 319,266 319,266 318,266 316,267 316,267 315,267 314,267 314,267 313,268 312,268 312,268 311,269 311,269 308,271 308,271 307,271 306,271 303,272 301,272 301,272 300,271 298,271 297,271 297,272 295,273 294,273 294,273 293,274 293,276 293,276 284,275 283,275 277,273 278,272 278,271 278,271 277,270 276,270 273,268 273,268 273,268 272,267 272,267 271,266 269,266 268,266 267,265 267,265 267,266 267,266 265,265 265,265 261,264 261,264 261,265 260,265 260,264 260,264 259,264 259,264 259,264 258,264 258,264 258,264 258,264 257,264 257,264 257,264 257,264 257,263 257,263 257,263 257,263 257,263 256,263 256,263 255,263 255,263 255,262 255,262 254,262 254,262 254,262 254,262 254,262 254,262 253,262 253,262 253,262 253,262 252,262 252,262 252,262 252,262 252,262 252,262 251,262 251,262 250,262 250,262 250,262 250,262 250,263 250,263 251,264 251,264 251,264 251,264 250,265 250,265 250,265 250,265 250,265 250,266 251,266 251,266 251,267 251,267 251,267 251,268 251,268 252,269 252,269 252,269 252,269 252,270 252,270 252,270 252,270 252,270 251,270 251,271 250,271 250,272 249,272 249,272 248,273 248,273 247,274 247,274 247,275 246,275 246,275 246,276 245,276 244,276 244,276 244,275 243,275 243,275 243,275 242,275 242,275 242,275 239,275 235,276 236,276 236,277 236,277 236,277 236,277 236,277 236,278 236,278 236,279 237,279 237,279 237,279 237,279 236,279 235,280 234,280 234,281 234,281 234,281 234,281 233,280 232,280 232,281 231,282 231,282 231,282 230,283 230,283 230,283 230,283 230,283 230,283 229,284 229,284 229,285 229,285 229,285 229,286 229,286 229,286 229,287 229,287 228,288 228,288 228,289 227,289 227,289 226,290 226,290 225,290 224,291 223,292 223,292 217,292 216,292 216,292 216,292 215,292 214,292 214,292 214,292 213,293 213,293 212,293 212,293 212,293 211,293 210,293 209,293 209,293 208,293 209,292 210,290 210,290 209,290 209,290 208,289 204,290 203,291 201,292 201,292 200,292 200,292 200,292 198,289 198,289 197,289 197,289 197,289 197,289 197,289 197,288 196,288 196,288 195,287 194,287 193,286 193,285 192,285 191,284 191,284 190,284 190,284 188,284 185,283 184,283 184,283 183,282 180,281 180,281 178,282 177,283 175,284 174,285 173,285 171,285 170,285 168,286 167,285 167,285 167,284 167,284 164,284 164,284 162,284 159,284 158,284 158,284 158,283 158,282 158,282 159,281 159,281 159,280 160,279 160,279 160,278 160,278 160,277 160,277 160,276 160,275 160,275 160,273 160,273 160,272 160,272 159,271 159,271 159,271 159,270 159,270 159,270 159,270 159,269 159,269 159,267 159,267 159,267 160,265 160,265 161,265 162,265 162,265 163,266 163,266 164,266 164,266 164,266 164,266 165,266 165,266 166,266 166,266 167,266 167,266 167,265 168,265 168,265 168,265 169,265 170,265 170,265 171,265 171,265 173,265 173,264 174,263 174,263 174,263 174,262 174,262 175,261 175,260 175,260 176,258 176,257 177,257 177,257 177,256 177,256 178,256 178,256 178,256 179,255 180,255 180,255 180,255 180,254 181,254 181,254 181,253 182,252 182,252 182,252 182,252 183,251 183,251 183,251 183,251 184,251 184,250 184,250 184,249 184,249 184,249 184,249 184,248 184,247 184,247 184,246 184,246 184,246 184,245 184,245 184,245 184,245 184,244 184,244 184,244 184,244 184,243 184,243 184,243 184,243 184,242 184,242 184,242 184,242 185,241 183,241 183,241 183,241 183,241 183,240 183,239 183,239 183,239 183,238 183,237 183,237 183,237 183,237 183,236 183,236 183,235 183,234 183,234 183,233 183,233 184,232 184,232 184,231 184,230 184,230 185,230 185,230 185,229 185,229 186,228 186,227 186,227 186,227 186,226 185,226 184,226 183,226 183,226 183,226 182,226 181,227 181,227 181,228 181,228 180,228 180,229 179,228 178,227 177,227 177,227 177,227 176,227 175,226 174,225 174,225 173,224 172,224 172,224 170,223 169,223 168,223 166,222 166,222 165,222 165,222 165,222 165,222 164,222 164,222 164,222 164,222 164,222 164,222 164,223 163,223 163,223 163,223 162,223 162,223 161,222 161,222 161,222 161,221 161,221 160,221 160,221 159,221 159,221 159,221 159,220 159,220 159,220 158,219 158,219 158,219 157,219 156,219 155,219 154,218 154,219 153,218 151,218 151,218 151,218 150,218 148,218 147,219 146,219 141,217 140,217 136,216 136,216 135,216 134,215 133,215 133,215 132,215 132,215 131,215 131,215 131,215 130,215 130,215 130,215 130,215 130,215 130,214 130,214 130,213 130,212 129,212 128,212 124,212 123,212 123,212 123,213 122,215 122,216 119,216 119,216 119,216 119,216 118,215 118,215 118,215 118,215 118,215 118,215 118,215 117,215 117,215 117,215 117,215 117,215 117,215 116,215 116,215 115,215 115,215 115,215 114,215 114,215 114,215 114,215 113,215 113,215 113,215 113,215 112,215 112,215 112,215 112,215 112,215 112,215 112,215 111,215 111,215 111,215 111,215 111,215 111,215 110,215 110,215 110,215 110,215 110,215 110,215 110,215 110,215 109,215 109,215 109,215 109,215 109,215 108,215 108,215 108,215 108,215 108,215 107,215 107,215 107,215 107,215 106,215 106,215 106,215 106,215 99,216 97,208 97,200 97,197 100,188 105,177 111,164 115,156 116,149 116,135 114,124 113,120 112,114 110,109 108,105 103,97 93,89 86,84 74,75 73,75 70,73 60,67 57,66 49,62 42,59 42,59 41,59 38,57 33,54 30,51 29,51 27,49 25,47 20,43 18,41 15,37 11,33 10,32 5,23 0,18 4,9 6,6 13,0 14,1 23,4 25,5 38,8 55,11 75,13 94,19 108,24 125,31 136,37 146,44 153,49 167,58 180,64 199,67 205,67" id="3326" class="canton" fill="steelblue" stroke-width="1" stroke="white" geotype="canton" geoname="Presqu'île" code_insee="3326" code_departement="33" nom_departement="Gironde" code_region="75" nom_region="Nouvelle-Aquitaine"/></svg>