<?xml version="1.0" encoding="utf-8"?>
<svg version="1.1" id="svgmap" xmlns="http://www.w3.org/2000/svg" xmlns:xlink="http://www.w3.org/1999/xlink" x="0px" y="0px" width="100%" height="100%" viewBox="0 0 500 355">
<polygon points="0,200 0,191 1,191 2,191 2,191 3,191 3,191 4,191 5,190 10,186 18,186 18,186 18,186 18,187 18,187 18,187 18,187 19,187 27,185 30,184 32,184 38,182 43,181 45,180 48,179 48,178 50,178 53,178 56,179 57,179 61,178 61,178 62,178 63,176 63,173 74,173 74,174 79,174 80,169 81,168 81,168 81,168 81,168 82,169 82,169 82,169 82,169 82,169 82,169 82,169 82,169 82,169 83,169 83,169 83,169 83,170 83,170 83,170 83,170 83,170 83,171 84,171 84,171 84,171 84,171 85,172 85,172 85,172 85,172 86,172 86,172 88,172 88,172 88,172 89,173 89,173 89,173 90,173 91,174 91,174 92,171 92,171 91,171 91,171 92,169 93,169 93,169 93,169 96,170 97,170 97,170 98,169 98,169 99,168 99,167 100,166 100,166 100,164 100,164 101,161 102,161 102,161 103,158 103,158 104,158 107,158 108,159 111,159 112,159 112,159 113,156 113,155 113,154 113,154 113,154 114,153 114,152 115,151 115,150 115,149 118,142 119,141 118,141 118,141 119,140 119,139 117,139 116,138 116,138 116,138 115,138 115,138 113,137 110,137 110,137 109,136 108,136 107,136 107,136 107,136 107,135 106,135 106,135 106,135 106,135 106,134 106,134 106,134 106,134 106,134 106,134 106,134 107,134 107,134 107,134 107,134 107,133 107,133 107,133 108,133 108,133 108,133 108,133 108,133 109,133 109,133 109,133 109,133 109,133 109,133 109,133 109,133 109,133 109,133 109,133 109,133 109,133 109,133 109,133 110,133 110,132 110,132 110,132 110,132 110,132 110,132 110,132 110,132 110,132 110,132 110,132 110,132 110,132 110,132 110,131 110,131 110,131 110,131 110,131 110,131 111,131 111,131 111,131 111,131 111,131 111,131 111,131 111,131 111,130 111,130 111,130 111,130 111,130 111,130 111,130 111,130 111,130 111,130 111,130 112,130 112,130 112,130 112,130 112,130 112,130 112,130 112,130 113,129 112,129 112,129 112,129 112,129 112,129 112,129 112,129 112,129 113,129 113,129 113,129 113,129 113,129 113,129 113,129 113,129 113,129 113,129 113,129 113,129 113,129 113,129 113,129 113,129 113,129 113,128 113,128 113,128 113,128 113,128 113,128 113,128 113,128 113,128 113,128 113,128 113,128 113,128 113,128 113,128 113,128 113,128 114,128 114,128 114,128 114,128 114,128 114,128 114,128 114,128 114,128 114,128 114,128 114,128 114,128 115,127 115,127 114,127 114,127 115,127 115,127 115,127 115,127 115,127 115,127 115,127 115,127 116,127 116,127 116,127 116,127 116,127 116,127 116,127 116,127 116,126 116,126 116,127 116,127 116,127 116,127 116,127 116,127 116,126 116,126 116,126 116,126 117,126 117,126 117,126 117,126 117,126 117,126 117,126 117,126 117,126 118,126 118,126 118,126 117,126 117,126 117,126 117,126 117,126 117,126 117,126 117,126 117,126 118,126 118,126 118,126 117,126 117,126 116,125 115,125 113,123 111,122 109,121 109,120 108,119 109,118 110,117 111,117 113,112 114,112 116,106 116,106 115,106 115,106 115,106 116,105 117,104 117,104 117,104 117,104 117,100 116,100 116,99 116,98 116,98 115,98 115,97 114,96 114,96 114,96 114,96 114,96 115,96 114,96 113,94 113,94 114,94 115,94 114,93 114,91 114,91 114,90 114,90 113,91 110,90 111,88 111,88 110,88 110,87 110,87 110,87 111,87 111,87 112,86 113,85 113,85 113,85 113,85 113,85 113,85 113,85 113,84 113,84 113,84 113,84 113,84 113,84 112,84 113,84 112,84 112,84 112,84 112,84 112,83 112,83 112,83 111,83 111,83 111,83 111,83 111,83 110,83 110,83 110,83 110,83 110,82 109,82 109,82 109,82 109,82 109,82 108,82 108,82 108,82 108,82 108,82 108,82 107,82 107,82 107,82 107,82 107,82 107,82 107,81 106,81 106,81 106,81 106,81 106,81 106,81 106,81 105,81 105,81 105,80 105,80 105,80 105,80 104,80 104,80 104,80 104,80 104,80 104,80 104,80 104,79 103,79 103,79 103,79 103,79 103,79 102,79 102,78 102,78 102,78 102,78 101,78 101,78 101,78 101,78 101,78 101,78 101,78 100,78 100,78 100,78 100,77 99,77 98,77 98,77 98,77 97,77 97,77 97,77 96,76 95,76 95,76 95,76 95,76 94,75 95,74 94,74 87,74 92,69 94,68 96,65 96,65 97,65 97,64 98,63 99,63 104,62 105,62 106,62 107,62 108,62 109,62 109,62 110,62 112,62 115,62 116,62 117,63 119,63 120,63 123,63 124,63 125,63 125,63 125,62 126,62 126,62 127,62 127,62 128,62 128,62 128,62 129,62 129,62 129,62 129,62 129,62 129,62 130,62 130,62 130,62 130,62 130,62 130,62 131,62 131,62 132,62 132,62 133,62 133,62 134,62 134,62 134,62 134,62 134,62 134,62 135,63 135,63 135,63 135,63 135,63 136,62 136,62 136,62 136,62 136,61 137,61 137,61 137,61 137,60 138,60 138,60 138,59 137,59 138,59 138,59 138,58 139,58 139,58 138,57 138,57 138,56 139,56 139,56 139,55 139,55 139,55 140,55 141,54 141,54 141,53 141,53 141,52 142,52 142,52 142,52 143,52 143,52 144,51 145,50 145,50 145,50 145,50 145,50 145,49 145,49 145,48 145,47 145,47 145,46 145,46 145,46 145,45 145,45 145,45 145,44 145,44 146,43 146,43 147,42 147,42 148,41 148,41 149,41 150,41 151,41 151,41 151,41 151,41 151,40 150,39 150,39 151,38 151,37 151,37 151,36 151,36 151,36 151,36 151,35 151,35 151,35 151,35 152,34 152,34 152,34 152,34 152,34 153,34 153,34 153,34 153,34 153,33 153,33 152,32 152,32 152,31 153,30 153,30 153,30 154,30 155,30 155,30 155,30 155,29 156,29 156,29 156,28 156,28 156,27 156,27 157,26 157,25 157,25 157,25 158,24 158,24 158,24 159,23 159,23 159,22 159,22 159,22 159,22 159,21 159,21 160,21 161,21 161,20 161,20 162,20 162,20 163,19 164,19 164,19 165,19 165,18 165,18 165,18 166,18 166,18 166,17 166,17 167,17 167,17 167,17 167,17 167,16 168,16 168,15 168,15 169,15 169,15 169,15 170,15 170,15 170,14 171,14 171,14 171,14 171,14 171,14 172,14 172,14 172,14 172,14 172,14 172,14 172,14 173,14 174,14 175,14 175,14 176,15 176,15 176,15 176,15 177,17 178,18 178,18 178,18 178,19 178,19 178,19 177,19 177,19 177,20 177,20 177,21 177,21 176,21 176,21 176,21 176,22 175,22 175,23 175,23 175,24 174,24 176,25 177,25 177,26 178,26 178,26 181,27 181,27 180,28 180,28 180,28 182,29 182,29 182,29 183,30 183,30 184,31 185,31 185,31 186,32 187,33 188,35 188,35 188,36 189,36 189,37 192,38 192,39 192,39 193,39 193,39 193,39 193,38 194,37 194,37 194,37 194,37 195,37 195,37 196,36 196,36 197,36 197,36 199,35 200,35 200,35 201,35 202,34 202,34 202,34 202,34 203,34 205,34 206,34 207,34 207,33 207,33 207,32 206,31 206,31 207,31 206,31 205,29 205,29 204,29 205,29 205,28 205,28 204,28 204,27 204,27 204,26 203,25 203,25 203,24 203,24 203,24 204,23 205,22 207,21 207,21 208,20 209,20 210,20 211,20 212,19 211,19 212,19 212,19 213,18 213,18 214,17 215,16 215,16 214,16 214,15 214,15 215,14 215,14 216,14 216,14 216,14 217,14 218,14 218,14 219,14 219,13 220,13 220,13 221,13 221,13 221,13 221,13 221,13 221,13 221,13 222,12 222,12 221,12 221,12 221,12 221,12 221,11 221,11 221,11 222,11 222,11 222,11 222,11 222,10 221,10 221,9 221,9 220,9 219,8 219,8 219,8 219,7 219,7 219,7 219,7 220,6 220,6 220,5 220,5 220,5 220,5 220,4 220,4 220,3 219,3 219,3 217,2 215,1 214,0 214,0 214,0 214,0 214,0 214,0 215,0 215,0 215,1 216,1 216,1 216,1 217,1 217,1 217,1 217,1 218,1 218,1 218,1 219,1 219,1 219,1 219,1 219,1 220,2 220,2 221,2 221,2 221,2 222,1 223,2 226,4 227,5 227,5 228,6 230,7 231,8 232,9 234,10 236,12 240,15 241,16 241,17 243,18 246,20 248,22 249,23 249,23 250,24 251,24 252,25 253,25 254,25 254,25 254,26 255,26 255,26 256,26 257,25 258,25 260,25 262,25 263,24 264,24 268,24 269,24 271,23 272,23 273,23 276,22 278,21 281,20 282,20 285,19 285,19 287,18 287,18 289,18 289,18 291,18 292,18 293,18 296,18 299,18 300,18 301,18 303,18 303,18 304,18 306,18 309,18 309,18 310,17 310,17 312,17 312,17 314,16 316,16 317,16 318,16 319,16 320,16 320,16 322,16 323,17 323,17 326,18 328,18 329,19 331,19 332,19 333,19 334,19 335,19 335,19 338,19 338,19 339,18 341,18 344,17 348,15 349,14 350,14 350,13 351,12 352,11 352,12 353,13 354,14 354,14 354,14 353,16 353,16 352,17 353,17 354,17 354,17 355,17 355,17 356,17 356,17 356,17 357,17 357,17 357,17 357,17 358,17 358,18 358,18 358,18 359,18 359,18 360,18 360,18 360,18 361,18 361,18 361,19 361,19 361,19 362,19 362,19 362,19 362,19 363,19 363,19 363,19 363,19 363,19 364,19 364,19 364,19 364,19 364,19 365,19 365,19 365,19 365,20 366,20 366,20 366,20 366,20 366,20 366,20 367,20 367,20 367,20 367,20 367,20 368,20 368,20 368,20 369,20 369,20 369,21 369,21 369,21 369,21 370,21 370,21 370,21 370,21 370,21 370,21 370,21 371,21 371,22 370,24 369,25 369,25 368,27 368,27 368,27 368,28 368,28 368,28 368,28 368,28 368,28 368,28 368,29 368,29 368,29 368,30 368,30 368,30 368,31 368,31 368,31 368,32 368,32 368,32 368,32 369,32 369,32 368,33 368,33 368,33 368,33 368,33 367,35 367,36 368,37 369,37 369,37 369,37 369,37 370,37 370,37 370,39 371,39 372,39 372,40 372,41 371,43 371,43 371,43 364,49 363,49 358,52 358,52 357,51 357,51 356,51 355,50 355,50 353,50 353,50 352,50 352,50 351,50 350,49 349,49 348,49 348,49 348,49 347,49 346,49 343,48 343,48 342,48 340,48 339,48 338,48 337,48 337,48 337,48 337,48 337,48 337,49 337,49 337,49 337,49 337,49 337,50 336,50 336,50 336,50 336,50 336,50 335,50 335,50 335,50 335,50 335,51 334,51 334,51 334,51 333,51 333,51 333,51 333,51 332,51 331,51 331,51 330,51 329,50 329,50 329,50 328,50 328,49 328,49 326,49 325,50 324,50 321,49 320,49 319,49 318,49 314,48 314,49 314,49 312,49 310,48 309,48 308,48 305,47 305,47 304,46 302,45 301,45 299,44 298,44 297,44 296,44 296,44 296,45 297,46 297,49 297,49 298,50 298,51 298,51 298,52 298,53 298,54 299,55 299,56 299,57 298,59 292,58 287,56 287,56 287,57 288,57 288,57 287,57 287,57 287,58 287,58 287,58 287,58 287,58 287,59 287,59 287,59 287,59 287,59 287,59 287,59 287,59 287,59 287,60 287,60 287,60 287,60 287,60 287,60 287,60 287,60 287,61 287,61 287,61 287,61 287,61 287,61 287,61 287,61 287,61 287,61 287,61 287,61 287,61 287,61 287,61 287,62 287,62 287,62 287,62 287,62 287,62 287,62 287,62 287,62 287,62 287,63 287,63 287,63 287,63 287,63 286,63 286,63 287,63 286,63 286,64 285,64 285,64 285,64 285,65 284,65 284,65 284,65 284,65 284,65 284,66 284,66 284,66 284,66 284,66 283,66 283,67 283,67 283,67 283,67 283,67 283,67 283,68 282,68 282,68 281,67 281,67 280,67 279,67 278,67 278,67 276,66 276,66 276,66 275,66 275,66 275,66 275,66 274,66 274,66 274,66 273,66 273,66 273,66 273,66 273,66 273,66 272,65 272,65 272,65 271,65 271,65 270,65 269,65 269,65 270,66 270,66 269,68 269,71 268,71 268,72 268,72 268,73 267,74 267,74 267,74 267,74 266,74 266,74 266,73 265,74 263,73 263,79 270,95 271,95 275,96 275,96 275,97 275,97 277,98 277,97 278,97 280,96 280,96 281,95 281,96 282,95 284,95 285,95 287,96 287,95 288,94 289,94 289,94 289,93 289,93 290,92 290,92 291,92 292,92 294,90 295,90 296,90 296,90 296,90 297,90 298,90 299,90 300,89 300,89 301,88 301,88 301,89 302,89 302,89 302,90 303,90 303,90 303,90 303,91 304,91 303,92 303,93 303,93 303,93 303,94 304,94 303,94 304,94 304,94 305,95 305,95 305,94 305,94 307,94 307,94 307,94 307,95 307,95 307,95 308,95 308,95 308,95 308,95 309,95 309,95 309,95 310,95 310,95 310,95 310,95 311,95 311,95 311,96 311,96 311,96 312,96 312,96 312,96 312,96 313,96 313,96 313,96 314,96 314,96 314,96 315,96 315,96 315,96 315,96 315,96 316,96 316,97 316,97 316,97 317,97 317,97 317,97 317,97 317,97 317,97 317,97 317,98 318,98 318,98 318,98 318,97 318,98 319,98 319,98 319,98 319,98 319,98 319,98 319,98 319,98 319,99 320,99 320,99 320,99 320,99 320,99 321,99 321,99 321,99 321,99 321,99 321,99 321,99 321,99 321,99 321,100 322,100 322,100 322,100 322,100 322,100 323,100 324,100 324,100 324,100 326,100 326,100 326,100 326,100 327,100 327,100 328,100 328,99 328,99 328,99 328,99 328,99 329,99 330,99 330,98 330,98 330,98 330,98 331,99 331,99 332,99 333,99 333,99 334,99 334,99 333,100 333,100 333,101 332,101 333,101 333,102 332,102 333,102 333,102 333,102 333,102 333,102 333,102 333,102 333,103 333,103 333,104 333,104 333,104 333,104 333,104 333,104 333,104 333,104 333,104 333,105 333,105 333,105 333,105 333,105 333,105 333,105 333,106 333,106 333,107 332,107 333,107 333,107 333,108 333,108 333,108 333,108 333,109 333,109 334,109 334,109 334,109 334,110 334,110 335,110 335,110 336,110 336,110 337,110 337,110 337,110 337,110 338,110 339,110 339,110 339,110 339,110 339,110 340,110 340,111 340,111 341,111 341,111 341,111 341,111 341,111 342,111 342,111 342,111 342,111 342,111 342,111 342,111 343,111 343,111 344,111 344,111 344,112 344,111 345,112 345,112 345,112 346,112 346,112 346,112 346,112 347,112 348,112 348,112 349,112 349,112 349,112 350,112 350,112 351,112 351,112 351,112 351,112 351,112 352,112 352,112 352,112 353,112 353,112 353,112 353,112 354,112 354,112 354,112 354,112 355,112 355,112 356,112 356,112 356,112 356,112 357,112 357,112 357,112 358,112 358,112 358,112 358,112 358,112 359,112 359,112 359,112 359,112 359,112 360,112 360,112 360,112 361,112 361,112 362,112 362,113 362,113 362,113 362,113 362,113 363,113 364,113 364,113 364,113 364,113 365,113 365,114 366,114 366,114 367,115 367,115 368,115 368,115 368,115 369,115 369,115 370,115 371,116 372,116 372,116 372,116 372,116 372,116 373,116 373,115 374,115 374,115 375,115 376,115 376,115 376,115 377,115 377,115 378,116 378,116 378,116 379,116 379,116 379,115 380,115 380,115 380,115 380,115 380,115 381,115 381,115 382,115 382,115 383,115 383,115 383,115 383,114 383,114 384,114 384,114 384,114 385,113 385,113 386,113 387,113 387,113 387,113 389,113 389,112 389,112 390,112 390,112 391,112 391,112 392,112 392,112 393,111 394,111 394,111 394,111 395,111 395,111 396,111 396,111 396,111 397,110 398,110 398,110 398,110 399,109 399,109 399,109 400,109 400,109 400,109 401,108 401,108 401,109 402,109 402,109 402,109 402,110 402,111 403,111 403,111 403,112 403,112 403,112 403,112 403,112 404,113 404,113 404,113 404,114 404,114 404,114 404,114 404,114 404,114 404,115 404,115 404,116 404,116 405,116 405,117 405,117 405,117 405,117 405,117 405,118 405,118 405,118 405,119 405,119 405,119 405,119 405,120 405,120 405,120 405,120 405,121 405,121 405,121 405,122 406,122 406,122 406,123 406,123 406,123 406,123 406,124 406,124 406,124 406,125 407,125 407,125 407,125 407,125 408,125 408,125 408,125 409,126 409,126 409,126 409,126 409,126 410,126 410,127 411,127 413,126 413,127 415,127 415,127 416,127 417,126 419,125 421,125 421,124 421,123 421,123 421,123 421,122 422,121 422,121 423,121 423,121 425,121 426,121 426,121 426,120 426,121 426,121 426,121 427,121 427,121 427,121 427,121 426,121 426,122 426,122 426,122 426,122 426,122 426,122 426,122 426,122 426,123 426,123 426,123 425,124 425,124 425,124 425,124 425,124 425,124 425,124 425,124 424,125 424,125 424,125 424,125 424,126 424,126 424,126 424,126 424,126 424,126 424,126 424,126 424,126 424,126 424,126 424,127 424,127 424,127 424,127 424,127 424,127 424,127 424,127 424,127 424,128 424,128 424,128 424,128 424,128 424,128 424,128 424,129 424,129 424,129 424,129 424,129 424,130 424,130 424,130 424,130 424,131 424,131 424,131 424,131 424,132 424,132 424,132 424,132 424,132 424,133 424,133 424,133 424,133 424,133 424,133 424,134 423,134 423,134 423,134 423,134 423,134 423,134 423,134 423,134 422,134 422,134 422,134 422,134 422,134 422,135 422,135 421,135 421,135 421,135 421,135 421,135 421,135 421,135 421,135 420,135 420,135 420,135 420,135 420,135 420,136 419,136 419,136 419,136 419,136 419,136 419,136 419,136 418,136 418,135 418,135 418,135 418,135 418,135 418,135 418,135 417,135 417,135 417,135 417,135 417,135 417,135 417,135 416,135 416,136 416,136 416,135 416,136 415,136 415,136 415,136 415,136 415,136 414,136 414,136 414,136 414,135 414,135 414,136 414,136 414,136 414,136 413,136 413,136 413,136 413,136 413,137 413,137 413,137 413,137 413,137 413,137 413,138 413,138 413,138 413,138 412,138 412,138 412,139 412,139 412,139 412,139 412,139 413,139 413,139 413,139 413,139 413,139 414,140 414,140 414,140 415,140 415,140 416,140 416,140 417,140 417,140 418,141 418,141 418,141 419,141 420,141 420,141 420,141 420,141 421,141 421,141 421,141 421,141 421,141 421,141 422,141 422,141 422,141 422,141 423,141 423,141 423,141 423,141 423,141 423,141 424,141 424,142 424,142 424,142 424,142 425,142 425,142 425,143 425,143 425,143 425,143 425,143 425,143 425,143 425,143 426,143 426,144 426,144 426,144 426,144 426,144 426,144 426,144 426,144 426,144 426,144 426,145 426,145 426,145 427,145 427,145 427,146 427,146 427,146 427,146 427,146 427,146 427,146 428,146 428,146 428,146 428,146 428,147 429,147 429,147 429,147 429,147 430,147 430,147 430,147 430,147 430,147 430,147 430,147 430,147 430,147 431,147 431,147 431,147 431,147 431,147 431,147 432,147 432,147 432,147 432,147 433,147 433,147 433,147 433,147 433,147 434,147 434,147 434,147 434,147 434,147 435,147 435,147 435,147 435,147 435,146 436,146 436,146 436,146 437,146 437,146 437,146 437,146 437,146 438,146 438,146 438,146 439,146 438,146 438,146 438,145 438,145 438,145 438,145 438,144 438,144 438,144 438,144 438,144 438,143 438,143 438,143 438,143 439,143 439,143 439,142 439,142 439,142 440,141 440,141 440,140 440,139 440,139 440,139 440,138 440,138 440,138 440,138 440,137 441,136 441,136 441,135 441,135 442,135 442,135 443,135 447,137 447,137 448,137 448,137 448,137 448,137 448,137 449,137 449,137 450,138 450,138 451,138 451,138 451,138 451,138 451,138 452,138 452,138 452,138 452,138 451,136 448,131 448,131 449,131 449,131 450,131 450,131 450,130 451,130 451,130 451,130 452,130 452,130 452,130 453,129 453,129 453,128 454,128 454,128 454,127 456,126 456,126 456,126 457,125 457,123 457,123 458,122 458,123 458,123 459,123 459,123 459,123 459,123 460,123 460,123 460,123 460,123 460,123 460,123 460,123 460,123 460,124 461,124 461,124 461,124 461,124 461,124 462,124 462,125 462,125 463,125 463,125 463,125 464,125 464,125 465,126 467,124 468,124 468,124 468,124 468,124 468,124 468,124 469,123 469,123 469,123 469,123 470,123 470,123 471,123 471,123 471,123 472,124 472,124 472,124 473,124 473,124 473,124 473,124 474,124 474,124 475,124 475,124 475,124 476,125 476,125 476,125 478,126 478,126 479,126 479,126 479,126 479,126 479,126 479,126 480,126 481,127 481,126 481,126 481,127 482,127 482,127 482,127 483,127 483,127 483,127 483,127 483,127 483,127 483,128 483,128 483,128 482,128 482,128 482,128 482,129 481,129 481,129 481,129 481,129 480,129 478,129 478,129 477,129 476,129 476,129 476,129 476,129 475,129 475,129 475,129 475,129 475,130 474,130 474,130 474,130 474,130 474,130 474,130 474,131 474,131 474,132 475,132 475,133 475,133 475,133 476,134 475,134 475,134 475,134 474,134 474,134 474,134 474,134 474,135 473,135 472,136 472,137 472,137 470,138 470,138 470,138 470,138 470,138 471,138 471,138 471,138 471,139 471,139 472,140 472,140 472,140 472,140 472,140 472,140 473,140 473,140 473,140 473,140 473,141 473,141 473,141 473,141 473,142 473,142 473,142 473,142 473,143 473,143 473,143 473,143 473,143 472,144 472,144 472,144 472,144 472,144 473,144 472,145 472,145 472,145 473,145 474,146 474,146 474,146 473,146 473,146 473,146 472,146 470,147 470,147 470,147 470,147 469,147 467,148 467,148 467,148 467,148 467,148 466,150 466,150 466,150 466,150 466,150 466,151 466,151 466,151 469,151 470,151 470,151 470,151 471,152 471,152 471,152 472,151 472,151 472,151 474,152 474,152 473,152 473,152 473,153 473,153 473,153 472,155 472,155 471,155 471,155 471,155 471,155 471,155 471,155 471,155 471,156 471,156 471,156 471,156 471,157 470,157 471,157 471,157 471,157 471,157 472,157 472,157 472,157 472,157 473,157 473,158 473,158 473,158 473,158 473,158 473,158 473,159 473,159 473,159 473,159 473,159 473,159 473,159 473,159 473,159 473,160 473,160 473,160 473,160 474,160 474,160 474,160 474,160 474,160 474,160 474,160 474,161 474,161 474,161 474,161 474,161 474,161 475,162 475,162 475,162 475,162 476,163 476,163 476,163 476,163 476,163 476,163 477,163 477,164 477,164 477,164 478,165 478,165 478,165 479,165 479,165 479,166 479,166 480,166 480,166 480,166 480,166 480,166 481,166 481,166 481,166 481,166 481,166 481,166 481,166 482,167 482,167 482,167 483,167 483,167 483,167 483,169 482,170 482,170 482,170 483,170 484,171 484,171 484,171 484,170 486,171 486,171 486,171 489,172 489,173 489,173 491,174 491,174 492,174 492,175 493,176 493,176 493,176 493,176 494,177 494,177 494,177 495,177 495,177 495,177 495,177 495,178 495,178 495,178 495,178 496,179 496,179 496,179 496,180 496,180 495,180 495,180 494,181 494,181 494,181 494,181 493,181 493,181 493,181 493,181 493,181 493,181 492,181 492,181 492,181 492,181 492,181 492,181 491,181 491,181 491,181 491,181 491,181 491,181 490,181 490,182 490,182 490,182 490,182 490,182 490,182 490,182 490,183 490,183 490,183 490,183 490,183 490,183 489,183 489,183 488,183 488,183 488,183 487,183 487,183 487,183 487,183 487,183 487,183 487,183 487,183 487,183 487,183 486,183 486,184 486,184 486,184 485,184 485,184 485,184 485,184 485,185 485,185 485,185 486,185 486,185 486,185 486,185 486,185 486,185 487,186 488,186 488,186 488,186 489,186 489,186 489,186 489,186 490,186 490,186 490,186 491,187 491,187 491,187 492,186 492,186 493,187 493,186 493,186 493,187 493,186 495,187 495,187 495,187 496,187 498,188 498,188 499,188 500,188 500,188 500,188 500,190 500,190 499,191 499,191 499,191 498,192 497,192 497,192 497,192 497,192 496,193 496,193 496,194 496,194 495,193 495,194 495,194 495,195 495,195 495,195 495,195 495,195 494,196 494,196 493,197 493,197 493,197 492,198 492,198 492,198 492,198 492,198 491,198 491,198 491,198 490,198 490,198 490,198 490,198 489,198 489,198 489,198 489,198 489,198 489,198 488,198 488,198 488,198 488,198 488,198 488,198 487,198 487,198 487,198 487,198 486,198 486,198 486,198 486,198 486,198 485,198 485,198 485,198 484,198 484,198 484,198 484,198 483,198 483,198 483,197 483,197 482,197 482,197 482,197 482,197 482,197 481,197 481,197 481,197 481,196 481,196 481,196 481,196 481,196 481,196 481,196 481,196 481,196 481,196 481,196 481,195 481,195 481,195 481,195 481,195 481,195 481,195 481,195 481,194 481,194 481,194 481,194 481,194 481,194 481,194 480,193 480,193 480,193 480,193 480,193 480,193 480,193 480,193 480,193 480,193 480,193 479,193 479,193 478,193 478,193 477,193 476,192 476,192 476,193 476,193 475,193 475,193 475,193 474,193 474,193 474,193 474,193 474,193 474,193 472,193 471,193 471,193 471,193 471,194 471,194 470,194 470,195 469,195 469,195 469,194 468,194 468,194 468,194 467,193 467,193 467,193 467,194 466,194 466,194 466,194 465,194 465,194 465,194 465,194 465,194 465,194 465,194 465,194 465,194 464,195 464,195 465,195 464,196 464,196 464,196 463,197 462,198 461,199 461,199 460,199 460,199 460,200 458,200 457,200 457,201 456,201 456,201 455,201 455,201 455,201 455,201 454,203 453,202 453,202 453,203 453,203 453,203 453,203 452,204 452,204 452,204 451,204 451,204 449,204 446,203 446,203 446,203 445,203 445,203 445,203 445,203 445,203 445,203 445,203 445,203 445,203 445,203 444,203 444,203 444,203 444,203 444,203 444,203 444,204 443,204 443,204 443,204 443,204 443,204 443,204 443,204 443,204 443,204 443,204 443,204 441,204 441,204 441,204 441,204 440,204 440,204 440,204 440,204 440,204 440,204 440,204 440,204 439,204 439,204 439,204 439,204 439,204 439,204 439,203 439,203 439,203 439,203 439,203 439,203 439,204 438,204 438,204 438,204 438,204 437,204 437,204 437,204 437,204 437,204 437,204 437,204 437,204 436,204 436,204 436,204 436,204 436,204 436,204 436,204 435,204 435,204 435,204 435,205 435,205 435,205 435,205 435,205 435,205 435,205 434,205 434,205 434,205 434,205 433,205 433,205 433,205 433,205 433,205 433,205 432,205 432,205 432,205 432,205 432,205 431,205 431,205 431,205 431,205 431,205 431,205 431,205 431,205 431,205 431,205 431,205 431,205 430,205 430,205 430,205 430,205 430,205 429,205 429,205 429,205 428,205 428,205 428,204 428,204 428,204 427,204 427,204 427,204 427,204 427,204 427,204 427,204 427,204 427,204 426,204 426,204 426,203 426,203 426,203 425,203 425,203 425,203 425,203 425,203 425,204 424,204 423,205 418,209 415,211 415,211 407,210 407,210 405,213 402,221 401,223 401,224 401,225 408,229 418,238 418,238 421,239 424,239 424,239 426,241 426,241 426,241 429,244 431,246 431,246 433,248 433,248 433,248 447,262 442,263 442,263 439,265 439,265 441,267 441,267 443,270 445,272 445,272 447,281 448,282 449,284 449,285 448,284 448,284 447,285 447,285 445,285 444,285 444,285 443,285 442,285 442,285 442,285 442,285 442,285 441,285 441,285 441,286 441,286 439,286 439,286 438,286 438,286 437,286 437,286 437,286 430,290 430,290 428,292 427,293 427,295 426,296 426,296 425,296 425,296 425,296 425,296 425,299 425,299 425,299 421,304 420,305 418,307 418,307 418,307 417,307 417,306 417,306 417,306 416,305 416,305 416,305 416,305 416,305 416,305 416,304 416,304 416,303 416,303 416,303 415,303 415,303 415,303 414,304 414,304 414,304 414,304 414,303 414,303 413,303 413,303 413,303 413,303 413,303 412,303 412,303 412,302 412,302 412,302 412,302 412,302 412,302 412,302 412,302 412,302 411,302 412,302 412,302 411,302 411,302 411,302 411,302 411,302 411,302 411,302 411,302 411,302 411,303 411,303 411,303 411,303 411,303 411,303 411,303 411,303 410,303 410,303 410,303 410,303 410,303 410,303 410,303 410,304 410,304 410,304 410,304 410,304 410,304 410,304 410,304 410,304 410,304 410,304 410,304 410,304 411,304 411,305 411,305 411,305 410,305 410,305 410,305 410,305 411,305 411,305 411,305 411,305 411,305 411,305 411,305 411,305 411,305 410,305 410,305 410,305 410,306 410,306 410,306 410,306 410,306 410,306 410,306 410,306 410,306 410,306 410,306 410,306 409,306 409,306 409,306 409,306 409,306 409,306 409,306 408,306 408,306 408,306 408,306 409,306 408,306 408,306 408,306 408,306 408,306 408,306 408,307 408,307 408,307 408,307 408,307 408,307 407,307 407,307 407,307 407,307 407,307 407,306 407,306 407,306 407,307 407,307 407,307 407,307 407,307 407,307 407,307 406,306 406,306 406,307 406,307 406,307 406,307 406,307 406,307 406,307 406,307 406,307 406,307 406,307 406,307 406,307 406,307 406,307 406,308 406,308 406,308 405,308 405,308 405,308 405,308 405,308 405,308 405,308 405,308 405,308 405,308 405,308 405,308 405,308 405,308 405,308 405,308 405,309 405,309 405,309 405,309 405,309 405,309 404,309 404,309 404,309 404,309 404,309 404,309 404,309 404,309 404,309 404,309 404,309 404,309 404,309 404,310 404,310 404,310 404,310 404,310 404,310 404,310 404,310 404,310 404,310 404,310 404,310 403,310 403,311 403,311 403,311 403,311 403,311 403,311 403,311 403,311 403,311 403,311 403,311 403,311 403,311 402,311 402,311 402,311 402,311 402,311 402,311 402,311 402,311 402,311 402,311 402,311 402,311 402,311 402,311 402,311 401,311 401,311 401,311 401,311 401,311 400,311 400,311 400,312 400,312 400,312 400,312 400,312 400,312 400,312 400,312 400,312 400,312 400,312 400,312 400,312 400,312 400,312 400,312 400,312 400,312 400,312 400,312 400,312 400,312 400,313 400,313 400,313 400,312 400,312 400,312 400,312 399,312 399,312 399,312 399,312 399,313 399,313 399,313 399,313 399,313 399,313 399,313 399,313 399,313 399,313 399,313 399,313 399,313 399,313 399,313 399,314 399,314 399,314 399,314 399,314 399,314 399,314 399,314 399,314 399,314 399,315 399,315 399,315 399,315 399,315 399,315 399,315 399,315 399,315 399,315 399,315 399,315 399,315 399,315 399,315 399,315 399,315 399,315 399,315 399,316 399,316 399,316 399,316 399,316 399,316 399,316 399,316 399,316 399,316 398,316 398,316 397,316 396,316 395,316 395,316 395,316 394,315 392,315 391,315 391,315 390,316 390,316 390,316 390,316 390,317 390,317 389,317 389,317 389,318 389,318 389,319 389,319 388,319 388,319 387,319 387,319 386,320 386,320 386,320 385,320 384,320 384,320 383,321 383,321 383,321 382,321 381,321 380,321 379,321 379,321 378,320 378,320 372,317 369,316 371,313 367,312 367,313 366,316 363,319 361,320 351,325 343,321 342,320 341,320 339,319 338,318 336,317 335,316 331,314 328,312 328,312 328,312 326,308 326,308 325,308 325,307 325,307 325,307 325,306 324,305 324,304 321,299 320,297 320,297 320,297 317,294 316,294 315,293 315,293 315,293 315,293 315,293 312,291 307,288 307,288 306,287 306,286 305,286 305,286 305,285 305,285 303,284 303,284 303,284 303,284 302,284 302,284 302,284 302,285 302,285 302,285 302,285 302,285 302,285 302,285 302,285 302,285 302,285 302,285 302,285 301,285 301,285 301,285 301,285 301,285 300,285 300,285 300,285 300,286 300,286 300,286 300,286 300,286 299,286 299,286 299,286 299,286 299,286 299,286 299,286 299,286 299,287 299,287 299,287 299,287 298,287 298,287 298,287 298,288 298,288 298,288 298,288 298,288 298,288 298,288 298,288 297,288 297,288 297,289 297,289 297,289 297,289 297,289 297,289 297,289 297,289 297,289 296,289 296,289 296,289 296,289 296,289 296,289 296,289 296,289 295,290 295,290 295,290 295,290 295,290 295,290 295,290 295,290 295,290 295,290 295,290 295,290 294,291 294,291 294,291 294,291 294,291 294,291 293,291 293,291 293,291 293,291 292,291 292,291 292,291 292,291 292,291 291,291 291,291 291,291 291,291 291,291 291,292 290,292 290,291 290,292 289,292 289,291 289,291 289,291 288,291 288,292 288,292 288,292 288,292 288,290 288,290 280,290 280,290 277,290 276,290 274,290 274,290 273,291 271,299 274,328 275,332 276,343 276,344 243,352 240,353 237,354 233,354 233,355 232,355 232,355 232,355 232,355 231,354 231,354 229,354 208,349 197,346 179,346 143,343 142,343 141,343 126,341 119,316 124,299 132,271 131,271 131,271 130,270 129,270 129,270 129,270 128,270 128,270 128,270 128,270 127,270 127,269 127,269 126,269 126,270 126,270 126,270 125,270 124,271 124,271 123,271 122,271 121,271 121,271 120,270 120,271 119,271 119,271 118,270 117,270 117,270 116,270 116,270 115,271 115,271 115,270 114,270 113,270 113,270 113,270 113,270 112,270 112,270 112,270 112,270 112,270 111,269 111,269 111,269 111,269 111,269 111,269 111,269 111,268 111,268 111,268 111,268 111,268 111,268 110,268 110,268 110,268 110,267 110,267 110,267 110,267 110,267 110,266 109,266 109,266 109,266 109,266 109,266 108,266 108,265 107,265 106,265 105,265 104,264 103,264 103,264 102,263 101,263 101,263 100,263 100,262 100,262 100,262 100,262 100,261 99,261 99,261 99,261 98,261 98,261 98,260 98,260 98,260 98,260 98,260 98,259 98,259 98,259 97,259 97,259 97,259 96,259 96,259 96,259 95,259 95,259 94,258 94,258 94,258 93,258 93,258 93,258 93,258 92,258 92,258 91,258 91,258 90,258 90,258 90,258 90,258 89,258 89,258 89,258 88,258 88,258 88,257 89,254 87,238 82,238 82,238 80,238 76,238 67,237 55,237 45,236 42,235 38,234 33,232 28,230 26,229 20,227 12,224 10,223 6,214 4,211 3,207 0,200" id="3329" class="canton" fill="steelblue" stroke-width="1" stroke="white" geotype="canton" geoname="Sud-Gironde" code_insee="3329" code_departement="33" nom_departement="Gironde" code_region="75" nom_region="Nouvelle-Aquitaine"/></svg>