<?xml version="1.0" encoding="utf-8"?>
<svg version="1.1" id="svgmap" xmlns="http://www.w3.org/2000/svg" xmlns:xlink="http://www.w3.org/1999/xlink" x="0px" y="0px" width="100%" height="100%" viewBox="0 0 500 492">
<polygon points="8,217 9,217 13,216 15,216 15,216 38,213 38,211 38,209 39,208 39,206 39,203 40,202 42,200 45,198 47,198 48,197 50,195 52,193 52,193 54,189 55,188 56,187 57,186 59,184 60,183 61,181 63,180 67,177 69,175 70,173 72,172 73,171 74,170 76,168 77,165 83,159 84,159 84,158 88,153 90,152 91,151 93,149 95,147 97,145 99,143 100,140 102,136 104,135 106,132 111,125 111,125 115,119 116,118 117,114 118,112 120,110 121,108 123,107 124,106 125,104 132,121 133,123 133,123 152,119 153,121 153,121 162,120 164,120 166,120 172,120 171,121 171,124 191,126 193,123 194,118 194,116 194,112 198,111 199,111 201,110 203,108 204,108 208,107 208,107 207,104 207,103 207,102 206,101 205,100 206,100 207,100 207,100 208,100 209,100 210,101 214,103 215,104 215,104 216,104 216,104 217,104 218,104 218,104 218,104 217,101 217,99 215,95 213,90 212,86 211,82 208,75 208,72 207,69 206,67 206,65 206,62 206,62 207,62 207,63 210,64 211,64 213,64 214,64 215,64 217,63 218,63 219,63 220,63 221,62 222,62 225,60 271,36 292,24 319,10 337,0 361,27 368,39 368,39 383,63 401,94 404,101 395,102 398,109 401,118 404,128 409,141 412,151 413,155 414,162 416,167 417,172 419,176 421,181 422,183 425,187 427,189 429,192 430,193 432,195 434,196 437,198 472,268 475,272 480,278 495,296 498,302 500,319 500,325 466,316 465,317 461,318 460,318 460,318 459,318 458,319 457,319 457,320 456,321 456,321 453,320 450,320 448,321 445,321 443,321 439,322 434,323 433,324 432,323 431,323 431,323 431,323 429,323 428,322 427,322 426,321 422,320 421,320 421,321 421,321 420,323 420,323 420,323 419,323 420,325 420,326 420,327 419,329 417,331 417,331 414,330 414,331 412,332 411,332 410,334 409,334 408,335 405,335 402,333 401,336 385,334 384,335 383,332 371,332 368,332 367,332 366,332 364,331 363,331 362,329 362,329 360,328 360,328 359,328 356,328 356,329 354,330 354,330 354,331 354,331 354,332 352,332 352,332 352,334 352,334 352,336 352,337 352,337 353,339 353,339 353,340 352,340 351,340 351,341 349,342 349,342 349,343 349,343 350,345 350,345 349,346 349,346 348,347 347,347 346,348 345,349 344,349 344,349 343,351 343,351 343,352 342,352 342,353 341,353 340,354 340,354 339,356 339,357 339,358 339,358 339,358 339,359 338,360 338,360 338,361 338,362 336,363 334,364 333,363 333,363 332,363 332,364 331,364 331,366 330,367 329,367 329,367 330,368 329,369 329,369 328,370 327,370 327,370 325,371 323,372 322,372 320,372 318,372 315,372 312,373 309,373 306,374 305,374 303,374 300,375 298,375 297,375 296,376 296,376 295,376 295,376 294,376 293,377 291,378 290,379 288,379 286,380 285,381 283,381 280,382 274,383 273,384 273,384 272,384 271,385 270,387 270,387 265,387 262,387 260,387 256,387 255,387 238,391 238,391 236,389 235,389 224,395 224,395 225,396 225,397 224,397 224,397 224,397 224,398 223,398 219,400 219,400 219,401 219,401 216,402 216,402 220,412 221,412 221,412 222,414 222,414 214,415 213,415 213,415 213,415 212,416 210,416 200,419 199,420 198,420 195,421 188,421 173,422 173,422 169,423 166,423 166,423 164,426 164,426 164,427 164,428 164,430 165,433 165,434 168,436 168,437 168,438 171,439 171,440 171,441 174,448 177,457 177,458 182,478 187,489 187,489 168,492 163,485 163,485 161,485 161,486 161,486 157,487 157,487 157,486 156,486 154,486 150,485 149,485 138,481 136,481 136,481 134,482 132,482 132,482 129,480 116,467 109,461 107,460 107,459 105,458 104,457 102,457 101,456 100,456 99,457 97,457 97,457 97,457 98,454 99,452 100,451 100,451 101,451 102,451 103,450 104,450 104,450 104,449 103,449 102,448 102,448 99,447 97,446 94,443 94,443 94,442 94,442 93,441 93,441 93,441 89,436 88,435 88,436 87,438 84,438 83,436 78,438 76,435 74,431 73,428 72,427 71,426 68,424 67,424 65,424 49,422 46,422 46,422 44,421 43,421 41,420 39,418 37,417 36,415 35,414 35,413 34,408 33,403 32,402 31,400 31,400 30,397 30,394 30,393 25,379 22,369 20,366 17,357 17,354 16,345 16,343 17,340 16,340 17,338 19,335 19,334 19,333 19,331 19,328 20,324 21,322 29,322 41,320 38,316 37,314 37,306 37,300 37,290 37,290 42,279 37,278 38,277 38,276 39,276 40,274 40,273 41,273 41,272 42,271 43,270 44,269 45,269 46,266 47,266 47,266 47,265 46,266 43,268 39,270 35,272 34,272 33,272 32,272 31,271 31,271 31,271 32,270 32,270 30,269 29,269 28,269 26,269 26,268 25,268 27,266 19,260 17,255 15,250 21,249 21,249 25,248 23,241 11,243 0,244 0,243 0,240 2,235 5,231 8,227 8,226 8,217" id="3333" class="canton" fill="steelblue" stroke-width="1" stroke="white" geotype="canton" geoname="Villenave-d'Ornon" code_insee="3333" code_departement="33" nom_departement="Gironde" code_region="75" nom_region="Nouvelle-Aquitaine"/></svg>