<?xml version="1.0" encoding="utf-8"?>
<svg version="1.1" id="svgmap" xmlns="http://www.w3.org/2000/svg" xmlns:xlink="http://www.w3.org/1999/xlink" x="0px" y="0px" width="100%" height="100%" viewBox="0 0 500 306">
<polygon points="0,125 2,124 4,123 6,122 8,121 10,121 10,120 10,121 11,122 12,123 13,123 14,123 14,123 15,123 18,121 19,122 20,124 21,124 22,124 24,124 25,124 26,124 26,124 27,125 27,125 28,126 29,126 30,127 33,127 36,126 36,126 36,127 37,128 37,128 37,128 37,129 37,129 38,130 38,130 38,130 38,130 39,131 39,131 40,131 40,131 40,132 41,132 41,132 41,132 42,133 43,133 43,134 44,134 45,134 45,134 46,134 46,134 47,134 48,135 48,135 48,135 49,136 49,136 50,136 51,136 51,136 52,135 53,136 54,136 54,136 55,137 56,137 56,137 57,136 58,136 59,136 59,135 60,135 61,135 61,135 61,135 62,135 62,134 63,134 64,134 65,134 65,134 66,132 66,132 66,132 67,132 68,132 69,132 72,133 73,133 75,133 76,134 78,134 80,135 82,136 82,136 83,135 83,134 83,134 83,133 83,133 83,132 83,132 82,131 83,128 83,127 84,126 85,126 85,125 86,125 87,125 87,124 88,124 89,123 90,123 90,122 90,122 89,121 88,120 87,120 86,118 85,118 84,118 84,118 83,118 81,117 80,117 79,116 79,116 78,116 77,116 77,115 77,115 76,114 75,114 75,114 75,113 75,113 76,112 76,112 75,111 75,111 75,110 75,110 75,109 76,110 77,109 78,109 78,109 78,108 78,108 78,108 78,107 78,107 78,107 79,107 79,107 79,106 79,106 79,106 79,105 79,105 79,104 80,104 80,104 80,103 80,103 79,103 79,102 77,102 77,102 76,101 76,101 76,100 75,100 74,99 73,98 77,95 78,95 79,94 81,93 80,92 79,92 78,91 78,90 77,90 77,90 77,90 76,89 76,89 75,89 75,89 75,88 75,88 75,87 75,87 75,87 75,87 75,86 74,86 74,86 74,86 74,86 75,85 75,85 75,84 75,84 75,84 75,83 76,83 76,82 76,82 76,81 76,81 76,80 76,80 77,80 77,80 77,80 78,80 78,79 78,79 78,78 78,78 78,78 78,78 78,77 78,77 78,77 78,77 78,77 78,77 79,77 79,77 80,76 80,76 81,77 81,77 82,77 82,77 82,77 83,78 83,78 84,77 85,77 85,77 86,76 86,76 87,76 87,76 88,76 89,75 89,75 89,75 90,75 89,74 89,74 90,73 90,73 90,73 89,73 89,73 89,72 89,72 90,71 90,71 90,71 90,70 90,70 90,70 91,70 91,70 91,69 92,69 92,68 93,68 93,68 93,67 93,67 93,67 94,66 95,66 95,65 96,64 95,63 94,62 93,61 91,62 90,62 89,62 88,61 88,61 87,60 86,60 87,59 86,58 87,57 86,56 86,56 85,56 85,56 85,56 84,56 84,56 84,56 83,55 83,55 83,54 82,54 82,54 81,54 80,54 80,54 80,53 80,53 80,52 80,52 80,52 79,52 79,51 79,51 78,51 78,51 78,50 79,50 79,49 80,48 80,48 80,48 80,47 79,47 79,46 79,46 78,45 78,44 78,43 78,43 78,43 77,42 77,42 77,41 76,39 75,39 75,38 74,37 73,36 72,36 71,35 70,34 70,33 70,32 71,30 72,29 74,28 75,27 77,26 79,26 80,26 81,25 82,25 83,25 84,25 85,25 85,24 85,23 85,22 85,22 85,21 85,20 85,19 82,19 80,18 79,16 80,14 81,8 81,7 81,6 81,6 81,5 80,5 81,4 81,4 82,3 83,2 86,0 87,0 88,0 89,1 89,1 89,1 90,1 91,1 92,1 94,1 97,1 99,1 101,1 102,1 103,0 105,0 105,0 106,0 108,1 110,2 113,2 114,3 115,3 115,3 116,3 118,4 119,4 120,5 120,5 124,6 126,7 127,7 128,7 130,7 132,8 134,11 136,12 137,13 138,13 138,14 139,14 140,15 140,15 140,16 145,17 146,18 147,18 148,18 150,19 153,18 157,19 162,20 164,20 165,21 166,21 167,21 167,21 167,21 168,21 168,21 167,22 167,22 166,22 166,23 166,23 166,24 166,25 166,24 167,24 168,23 168,23 168,23 169,23 169,22 170,22 170,22 171,22 171,23 172,23 172,23 173,24 174,24 174,25 175,25 176,25 177,25 178,25 179,25 179,25 180,25 181,25 181,25 182,25 182,26 183,26 184,27 184,27 184,28 184,28 184,29 185,30 185,30 185,30 186,30 187,31 187,31 188,31 189,31 189,31 190,32 190,32 191,32 193,32 194,32 194,33 195,33 195,34 195,35 195,35 196,36 196,36 197,37 197,38 196,39 196,39 196,39 196,39 196,40 196,40 196,40 197,41 197,41 196,41 196,42 196,42 196,42 196,43 196,43 197,43 197,44 197,44 199,45 199,45 200,45 200,45 200,46 199,46 198,46 198,47 197,47 197,48 197,48 197,48 197,48 198,49 198,49 198,49 199,49 199,50 199,50 199,51 200,51 200,51 200,51 200,51 200,52 200,52 200,53 200,54 200,54 200,55 201,55 201,55 202,56 203,56 204,56 204,57 205,57 205,57 206,56 207,56 208,56 209,56 210,56 210,56 211,56 212,56 213,56 214,55 215,55 215,55 215,55 216,54 216,54 217,54 217,54 218,55 219,55 219,55 221,56 221,56 221,56 222,56 222,57 222,57 224,57 224,57 224,57 224,58 225,58 227,59 227,59 228,59 228,59 228,59 229,59 230,58 230,58 231,59 231,60 231,60 232,60 232,60 233,60 236,60 237,61 237,61 238,61 239,61 239,60 240,61 240,61 240,61 242,60 242,60 243,60 244,60 244,61 245,61 246,62 247,62 250,62 251,63 250,64 250,64 250,65 250,66 250,67 250,68 250,69 251,70 252,71 252,71 252,71 253,71 253,72 254,72 254,73 254,73 254,73 254,73 255,74 256,75 256,75 256,75 257,76 257,77 257,78 258,78 258,79 259,79 259,80 259,81 259,82 259,83 259,84 261,86 262,89 261,90 262,91 262,91 262,91 262,91 262,92 263,93 263,93 263,94 264,99 264,101 265,103 265,104 266,105 266,105 266,106 266,106 266,106 266,107 266,107 266,108 265,108 266,109 266,109 266,110 266,111 265,111 265,111 265,112 265,112 264,112 264,113 264,113 264,114 264,114 265,114 265,114 266,115 266,115 267,115 267,115 268,116 268,116 269,116 269,116 270,116 270,117 271,117 272,118 272,118 272,118 272,119 273,119 273,119 273,119 272,120 272,120 273,121 273,121 273,122 273,123 273,123 273,124 272,125 272,126 272,126 272,126 271,127 271,128 271,129 270,129 270,129 269,130 269,130 268,130 268,131 267,131 266,131 266,132 266,132 265,132 264,133 264,134 264,134 264,134 263,135 262,135 262,135 261,135 261,136 261,136 261,136 261,136 261,136 261,136 261,137 261,137 260,137 260,137 260,137 260,138 259,138 260,138 259,139 260,139 260,140 260,140 260,140 261,140 262,140 263,140 263,140 264,141 265,141 265,141 267,141 267,141 268,141 268,141 268,142 268,142 269,142 269,143 270,143 270,144 270,144 270,144 270,144 271,144 271,144 272,144 272,144 273,145 274,146 275,146 275,146 275,146 276,146 277,147 277,147 278,147 278,147 278,147 279,148 279,148 279,148 280,148 280,149 281,149 281,149 281,149 281,149 281,149 281,150 281,150 282,150 282,150 282,151 282,151 283,151 284,151 284,152 284,153 284,153 285,153 285,153 285,153 285,154 285,154 285,154 286,154 286,155 286,155 287,155 288,155 288,156 289,156 290,156 290,156 290,156 290,155 289,155 289,154 289,154 289,154 290,154 291,154 292,155 293,155 295,155 295,155 297,155 297,153 297,152 298,152 302,153 302,153 301,155 301,155 300,155 300,157 301,157 302,157 302,156 302,155 302,155 302,155 303,155 303,155 303,155 304,155 304,155 305,154 305,154 306,154 306,154 307,154 307,154 307,154 308,154 308,154 308,154 308,154 308,154 309,154 309,154 309,154 310,154 310,154 310,154 310,155 310,155 311,155 312,155 312,155 312,155 312,155 313,155 313,155 314,155 314,155 314,155 313,157 313,157 314,158 314,158 314,158 315,158 316,158 316,158 316,158 316,158 317,159 317,159 317,159 317,159 317,159 320,159 320,159 320,158 320,158 321,157 321,157 321,157 321,157 321,157 322,157 322,157 323,157 323,157 323,157 324,156 324,156 325,156 325,156 326,156 326,156 326,156 327,156 327,156 327,156 328,156 328,156 329,156 329,156 330,156 330,156 330,157 330,157 331,157 331,158 331,158 332,158 332,158 332,158 333,159 333,159 333,159 333,159 333,159 333,159 334,159 334,159 335,159 334,160 335,160 334,160 334,161 334,161 334,161 334,161 335,162 334,162 335,163 335,163 335,163 336,164 335,165 335,165 335,165 336,168 338,172 339,173 339,172 340,172 340,171 341,171 343,171 344,171 345,170 345,170 346,170 346,169 346,169 346,168 347,168 347,168 348,168 350,168 352,168 354,168 354,168 356,167 360,165 361,165 362,165 363,165 364,164 365,164 367,164 368,165 369,165 369,165 370,166 371,168 371,169 372,169 372,170 374,170 375,170 375,170 378,169 379,169 379,169 380,168 381,168 382,168 384,169 385,169 386,169 388,169 388,169 388,168 388,168 388,168 389,168 389,168 390,168 390,168 390,168 391,168 391,168 391,167 391,167 391,167 392,167 391,167 392,166 392,166 392,166 392,166 392,165 393,164 392,164 392,164 392,164 392,163 392,163 392,162 391,161 391,160 391,160 391,159 394,159 395,159 395,160 396,160 395,160 396,160 396,160 396,161 396,161 396,161 395,162 396,163 397,163 397,163 397,163 398,163 397,163 397,163 397,162 399,162 399,161 399,161 399,160 399,160 399,159 399,159 399,159 399,159 399,158 399,158 399,158 398,158 399,157 398,157 399,157 401,158 401,158 401,158 402,159 402,159 404,160 405,159 406,160 407,159 408,158 408,159 409,159 409,159 409,159 409,159 410,159 410,159 410,159 411,159 411,159 411,159 411,159 411,159 412,159 413,159 413,158 414,157 414,157 415,157 416,157 416,157 416,157 417,157 418,156 418,156 418,156 418,155 418,156 417,155 416,155 416,154 416,153 417,153 418,153 419,153 420,153 421,153 420,155 419,155 419,155 419,155 418,156 419,156 419,157 419,157 421,157 422,156 424,156 424,157 425,158 425,158 426,159 427,160 428,160 430,161 433,161 434,161 436,161 437,161 437,160 436,160 437,160 438,160 439,160 439,160 439,160 439,160 440,160 440,159 440,159 440,159 440,159 440,158 440,158 440,158 440,157 440,157 441,158 441,158 441,158 442,158 442,158 442,158 443,158 445,159 446,158 447,158 448,159 449,160 450,160 451,161 452,162 453,162 453,162 453,162 453,162 453,162 455,161 456,161 456,160 457,160 457,160 457,160 457,160 458,159 458,159 458,159 458,159 460,158 460,158 463,158 463,158 463,158 464,158 464,158 464,158 465,158 465,158 466,158 466,158 466,158 467,157 467,157 467,157 467,157 467,158 468,158 468,159 468,159 468,159 469,159 469,159 469,160 469,160 470,159 470,159 470,158 470,158 471,158 471,159 471,158 472,159 472,159 473,160 473,160 474,158 474,158 475,159 475,159 475,159 476,159 476,158 476,158 476,158 477,158 478,159 478,159 479,158 481,157 481,159 483,158 483,158 483,160 484,159 485,160 486,160 486,160 486,160 487,160 487,160 487,161 487,161 487,162 487,162 486,162 486,163 486,163 486,163 486,163 486,163 485,163 485,164 485,164 484,165 483,168 483,168 482,169 482,169 482,169 482,169 482,169 482,169 482,170 482,170 482,170 482,170 482,170 482,170 482,171 481,171 481,171 481,171 480,172 480,173 480,173 480,174 480,174 480,174 479,175 479,175 479,175 479,175 479,176 478,176 478,177 478,177 478,177 478,178 479,178 478,179 478,179 478,179 478,180 478,180 478,180 479,181 480,181 480,181 480,181 481,181 481,180 482,180 482,180 483,180 484,180 485,180 485,180 485,181 485,182 487,184 487,184 488,183 489,184 491,185 491,185 494,186 494,186 494,186 493,187 492,190 492,190 491,190 490,191 484,194 483,193 482,192 482,192 482,192 481,192 481,192 480,191 478,188 477,188 477,188 476,189 475,189 475,189 476,190 476,190 477,191 477,192 477,193 477,194 477,195 477,195 478,196 478,196 478,196 478,196 478,197 478,197 478,197 478,198 478,198 479,198 479,199 479,200 479,200 480,201 480,202 480,203 480,203 480,204 481,204 481,204 481,204 482,205 483,204 483,204 484,204 484,204 485,205 485,206 485,206 486,207 486,207 487,208 487,208 489,208 489,208 491,208 491,208 492,208 493,208 493,207 494,207 494,208 495,208 495,209 496,209 497,210 498,211 499,211 499,212 500,212 500,213 500,213 500,213 500,215 500,216 499,217 499,217 498,218 498,219 498,220 498,220 498,220 499,221 499,222 499,222 499,222 499,222 500,224 500,224 500,225 499,225 498,226 498,226 497,226 497,226 495,226 493,226 490,227 489,228 489,228 489,228 489,229 489,229 489,230 489,231 490,232 491,233 492,234 493,234 493,235 493,235 493,237 493,239 493,240 493,241 492,241 492,241 492,241 491,242 489,242 486,243 486,243 486,243 485,242 484,242 484,242 484,242 484,241 485,240 484,239 484,239 484,239 482,239 481,239 480,239 480,239 480,239 479,239 479,240 478,240 478,241 478,241 478,242 477,243 477,244 477,245 477,245 478,245 479,246 480,247 481,248 481,249 481,249 481,249 479,250 477,250 474,251 473,251 472,252 472,252 471,252 471,252 471,253 471,253 471,254 472,254 472,254 473,254 473,254 474,256 476,257 476,257 476,257 477,258 478,259 479,259 479,260 480,261 480,262 478,263 478,263 478,263 478,263 478,263 478,263 479,264 480,265 480,265 480,267 480,267 481,267 481,267 481,267 483,267 483,267 484,268 485,268 485,268 485,268 485,268 486,268 486,268 486,268 485,268 485,269 483,270 483,271 483,271 483,271 482,271 482,272 481,273 481,273 480,275 480,275 480,275 480,276 480,277 480,277 480,277 480,278 480,278 481,279 481,280 481,280 480,280 480,280 480,281 480,281 479,284 478,284 478,285 478,285 478,286 478,286 478,286 478,286 478,288 478,289 478,289 478,289 475,290 475,290 474,291 471,291 471,291 471,291 471,291 470,291 470,292 468,292 468,292 468,292 467,292 467,292 467,292 467,292 467,293 466,293 465,293 465,294 465,294 464,295 463,295 463,295 463,295 462,295 462,295 462,295 462,295 461,295 459,294 458,296 457,297 456,298 456,298 456,298 457,297 457,298 457,299 457,299 456,300 456,301 456,301 457,301 456,302 456,302 456,302 456,302 455,304 455,304 455,304 454,304 453,304 453,304 453,304 452,304 452,304 452,304 451,304 451,304 451,304 450,304 450,304 450,305 450,305 450,306 450,306 448,305 448,305 446,305 446,304 446,304 445,304 444,303 443,302 442,302 442,302 442,302 442,302 441,302 441,301 441,301 440,301 440,301 440,301 439,300 439,300 439,299 439,299 439,298 438,298 438,298 438,298 439,298 438,297 438,296 438,295 438,293 438,293 438,292 438,291 438,291 438,291 438,290 438,290 438,290 438,289 438,287 438,286 439,284 439,283 440,282 441,281 442,281 442,280 440,279 438,278 438,277 438,277 438,277 438,277 438,277 438,277 436,275 436,275 436,275 436,275 435,275 435,275 434,274 434,274 433,274 433,273 432,273 431,273 430,273 430,272 429,272 429,272 429,271 428,270 427,271 425,271 424,272 424,271 424,271 424,269 424,269 423,268 423,267 423,267 423,266 422,265 422,265 422,264 423,264 423,263 423,262 423,262 423,261 423,261 423,261 424,261 425,261 425,261 425,260 426,260 427,260 427,260 428,260 429,260 429,259 429,259 428,259 429,258 429,258 429,258 431,257 430,257 430,256 430,255 430,255 430,254 430,254 430,254 430,252 430,252 430,252 430,252 429,251 430,251 430,251 430,250 430,250 429,250 428,248 429,247 429,247 429,247 429,247 429,245 430,245 430,244 430,244 430,244 431,244 431,244 432,244 433,243 433,243 433,243 433,242 433,241 433,241 432,241 434,241 434,239 435,239 435,238 435,238 435,238 435,237 435,237 435,237 434,237 434,237 434,237 432,236 430,236 430,236 429,236 429,236 429,236 428,236 428,236 428,236 428,236 428,235 428,234 428,234 428,234 429,234 429,234 429,234 429,234 429,234 429,234 430,234 430,234 430,234 430,233 430,233 430,233 430,233 430,232 430,232 431,232 431,232 431,232 431,232 431,232 431,232 431,232 431,232 431,232 430,232 430,232 430,231 430,231 429,232 429,232 429,232 429,232 429,232 428,232 428,232 428,231 428,231 428,231 428,231 428,230 428,230 427,230 427,230 427,230 426,230 425,230 425,230 424,230 424,230 423,230 423,230 423,230 422,230 422,230 422,230 422,229 422,229 422,229 421,229 420,229 420,228 419,228 419,228 419,228 418,228 418,228 418,228 417,228 417,227 417,227 417,226 416,225 416,225 415,225 415,225 414,225 412,224 412,224 412,224 412,224 412,225 411,224 411,224 410,224 410,223 410,223 410,223 411,222 411,222 410,222 411,222 411,222 411,221 411,221 411,221 412,221 412,220 412,220 412,220 412,220 412,220 412,220 411,219 411,219 411,219 411,219 410,219 410,219 410,219 410,219 410,219 409,219 407,219 407,219 407,219 406,219 406,219 405,219 404,218 404,218 404,218 403,218 403,218 403,218 403,217 401,216 401,216 400,216 400,216 400,216 400,216 400,216 398,216 398,216 397,216 397,216 396,216 392,218 390,219 390,219 387,219 386,219 384,220 384,220 383,220 383,220 382,220 381,220 381,221 380,221 379,221 376,221 374,221 373,221 369,221 368,221 368,221 368,222 367,222 366,224 363,226 363,226 354,222 355,222 354,222 347,219 346,219 346,219 345,217 345,217 344,217 344,217 343,217 342,217 341,217 341,217 340,218 339,218 338,219 338,220 338,221 336,223 336,225 333,228 333,228 333,228 332,228 332,228 332,228 331,228 331,228 330,228 330,228 329,229 329,229 328,229 328,229 327,229 326,230 326,230 325,231 325,231 323,232 322,232 322,232 322,233 321,233 321,233 321,233 320,234 320,234 319,235 319,236 319,237 319,237 319,237 319,237 318,238 318,238 317,239 317,239 316,239 316,239 316,240 315,240 315,240 315,241 314,240 313,241 313,241 312,240 312,240 312,240 312,240 312,239 312,239 311,239 311,239 311,238 311,238 310,238 310,238 310,238 309,238 309,237 308,237 307,237 307,237 307,237 306,237 306,237 305,238 305,238 305,238 304,237 304,237 304,237 303,237 303,236 303,234 303,234 302,233 301,233 301,232 301,231 301,231 300,231 299,232 299,232 299,232 298,233 298,233 297,232 297,232 296,232 296,233 296,234 296,235 295,235 295,236 295,236 294,236 294,235 294,235 293,235 291,234 290,234 289,234 289,234 288,234 287,235 284,237 283,237 283,238 284,238 284,239 284,239 283,239 283,239 283,239 283,240 283,240 284,240 284,241 284,241 283,241 283,241 282,241 282,241 282,242 282,242 281,243 281,244 281,244 281,244 281,245 282,245 283,245 283,245 283,245 284,246 284,247 283,247 284,248 283,248 283,248 282,249 282,249 281,250 281,250 281,250 280,250 280,251 280,251 279,251 279,251 279,251 278,251 278,251 275,252 275,251 272,250 270,249 268,248 266,247 252,241 250,240 250,239 249,239 248,238 243,241 242,241 240,242 240,243 239,243 238,244 238,245 239,246 239,248 237,248 237,248 237,248 237,248 236,248 229,246 227,243 222,235 222,235 222,234 222,234 221,233 220,233 220,232 220,232 219,232 219,232 218,231 217,231 216,230 215,230 214,230 214,230 212,230 212,230 209,230 206,229 205,229 204,229 203,229 200,228 199,228 196,227 193,229 192,231 189,231 189,231 189,232 187,231 187,231 185,232 182,232 180,232 178,232 174,233 169,234 167,235 167,235 168,236 167,236 167,237 166,237 166,237 165,237 164,238 163,242 163,242 162,245 161,246 160,248 157,249 155,250 153,251 152,252 150,253 149,252 148,252 148,252 147,252 147,252 147,251 141,256 131,259 130,260 129,260 128,260 126,260 123,261 121,261 114,263 107,265 107,265 107,265 107,265 104,266 96,266 90,267 85,267 78,272 78,271 77,271 77,271 77,271 76,270 76,269 76,269 77,269 77,269 76,268 77,268 77,268 77,268 77,268 77,267 77,267 78,266 78,266 78,266 78,265 78,265 78,265 78,265 78,264 78,264 79,264 79,264 79,264 79,264 78,264 78,263 78,263 78,263 78,263 78,263 78,263 78,262 76,262 76,262 75,262 75,262 75,262 74,262 74,262 74,261 74,261 75,260 75,260 76,260 76,259 76,259 76,258 75,258 75,259 74,259 73,259 72,259 71,259 70,259 70,259 66,260 65,261 63,261 63,261 62,261 61,261 61,262 61,262 59,262 57,262 54,262 54,261 54,261 52,261 52,261 51,261 51,261 51,261 50,262 50,262 50,263 50,263 49,264 48,264 48,264 48,264 46,265 46,265 46,265 46,265 45,265 45,265 44,265 43,266 43,266 43,265 42,265 42,265 42,265 42,264 41,264 41,264 40,264 40,264 39,264 37,263 36,263 35,264 34,264 34,264 33,264 33,264 33,262 33,262 33,262 33,261 33,261 33,260 32,259 32,258 32,258 31,257 30,257 30,256 30,255 30,255 31,255 31,254 31,254 31,254 31,253 31,253 31,252 31,252 31,251 31,251 30,251 32,250 33,250 33,250 35,250 35,250 36,250 36,250 37,250 37,250 38,251 40,252 41,252 42,252 42,252 44,252 45,252 46,252 47,251 49,251 49,251 49,251 50,249 51,248 51,247 52,247 52,246 53,246 53,245 54,245 54,244 54,244 54,244 54,243 54,243 53,243 53,243 53,243 52,243 52,242 52,242 52,242 52,241 52,241 52,241 52,240 52,239 52,239 52,239 52,239 52,238 52,238 52,238 52,238 52,237 51,237 51,235 50,235 51,234 50,234 50,233 50,233 50,233 50,233 50,232 50,232 50,232 50,232 50,231 50,230 49,229 49,228 49,227 49,226 49,225 49,223 48,222 49,220 49,220 49,220 49,218 49,218 49,218 49,218 49,218 49,218 49,217 49,217 49,217 49,216 49,216 50,215 50,215 50,214 50,214 49,214 49,213 49,213 48,213 47,212 47,212 47,212 46,211 47,211 47,211 48,210 48,210 48,210 48,209 47,209 48,208 48,208 49,209 49,209 50,210 50,211 51,211 51,212 52,212 54,213 55,212 55,211 57,211 58,211 58,211 60,211 64,209 65,209 65,209 70,209 70,209 70,209 70,208 70,208 70,208 71,208 71,208 71,208 71,208 71,208 72,207 71,207 71,207 72,207 72,207 72,207 72,207 72,206 72,206 72,206 72,206 72,206 72,206 72,206 73,205 73,205 73,205 72,205 72,205 72,205 72,205 72,205 72,205 72,204 72,204 72,204 72,204 72,204 72,203 72,203 72,203 72,203 72,203 72,203 72,203 72,203 73,203 73,203 74,203 74,203 74,203 74,203 75,203 75,203 75,203 75,203 76,202 76,202 76,202 77,202 77,202 78,202 78,202 78,202 79,202 79,202 80,202 80,202 80,202 79,201 79,201 79,201 79,201 79,201 79,201 79,201 79,200 79,200 79,200 79,200 78,200 78,199 78,199 78,199 78,199 78,199 78,199 78,199 78,199 78,199 78,199 77,198 77,198 77,198 77,198 76,198 76,198 75,197 75,197 75,197 75,197 75,197 75,197 75,197 74,196 74,196 74,196 74,196 74,196 74,195 74,195 74,195 74,195 74,195 75,195 75,195 75,195 76,195 76,195 76,195 76,194 76,194 75,193 75,193 75,193 75,193 75,193 75,193 75,193 75,192 75,192 75,192 75,191 75,191 75,191 75,190 75,190 75,190 75,190 75,190 76,190 76,190 76,190 76,190 76,190 76,189 77,189 77,189 77,189 77,189 77,189 78,189 78,189 78,189 78,189 79,188 79,188 79,188 80,188 80,188 80,188 80,188 80,188 80,188 80,188 80,188 80,188 81,188 80,188 80,188 80,188 80,187 80,187 80,187 80,187 78,187 77,187 77,187 76,187 71,186 69,188 68,190 68,191 67,193 62,195 58,196 57,195 57,196 57,196 56,196 55,196 54,197 54,197 53,197 53,197 53,197 53,196 53,196 53,195 53,195 53,194 54,194 54,194 54,194 55,194 55,194 56,194 56,194 56,194 56,193 56,192 56,192 56,191 56,191 56,190 55,190 55,190 55,190 55,189 55,189 55,189 55,189 54,189 54,188 54,187 54,187 54,186 54,186 54,186 54,186 54,185 54,185 54,184 54,184 55,184 55,183 55,183 55,183 55,183 55,183 56,182 56,182 57,182 57,182 57,182 57,182 57,182 57,182 57,182 57,182 57,182 57,182 57,182 58,182 58,182 58,182 59,181 59,181 59,181 59,181 59,181 59,181 59,181 60,181 60,181 60,181 60,181 60,180 60,180 60,180 60,180 59,180 59,180 59,179 60,179 60,179 60,179 60,179 60,179 60,179 60,179 60,179 60,178 60,178 60,178 59,178 59,178 59,178 59,178 58,178 58,178 57,178 57,178 57,178 56,178 55,178 54,178 54,178 54,177 53,177 53,177 52,177 52,177 51,177 51,176 51,176 51,175 51,175 51,175 51,175 51,174 51,174 51,174 51,173 50,173 50,172 49,172 49,171 49,171 48,171 48,170 47,170 47,170 46,170 46,170 45,169 45,169 44,169 43,169 43,169 43,169 42,169 42,169 42,169 42,169 41,169 41,169 40,169 38,169 38,169 37,167 38,167 39,166 40,165 40,165 41,164 42,164 42,164 42,164 43,163 43,163 43,163 44,163 44,163 45,162 44,161 44,161 44,160 44,159 43,158 43,158 42,158 42,158 41,158 41,158 40,158 39,158 36,159 36,159 36,159 35,159 34,159 32,159 32,160 32,160 31,160 30,160 29,160 29,160 29,160 28,160 27,159 27,159 27,159 27,158 27,158 26,158 26,157 25,157 25,157 25,156 24,156 24,156 23,156 23,155 23,155 23,155 22,155 21,154 19,154 19,153 18,153 17,152 16,152 15,152 15,151 14,151 14,151 13,150 13,149 12,148 11,147 10,147 10,147 10,146 10,146 10,145 10,145 11,144 11,144 11,144 11,143 11,143 12,142 13,142 13,142 12,141 13,141 13,141 13,141 12,140 12,140 11,140 11,139 10,138 8,136 7,135 6,134 6,134 6,134 6,133 6,133 5,133 5,132 5,132 4,131 4,130 3,130 3,129 3,129 2,128 2,128 2,127 2,127 1,127 0,125" id="3406" class="canton" fill="steelblue" stroke-width="1" stroke="white" geotype="canton" geoname="Clermont-l'Hérault" code_insee="3406" code_departement="34" nom_departement="Hérault" code_region="76" nom_region="Occitanie"/></svg>