<?xml version="1.0" encoding="utf-8"?>
<svg version="1.1" id="svgmap" xmlns="http://www.w3.org/2000/svg" xmlns:xlink="http://www.w3.org/1999/xlink" x="0px" y="0px" width="100%" height="100%" viewBox="0 0 500 453">
<polygon points="485,113 487,114 488,115 490,117 490,117 491,118 491,119 492,121 492,123 492,123 491,124 490,125 490,125 490,126 488,127 488,127 487,128 486,128 485,129 485,128 484,128 484,128 483,128 483,128 483,128 483,128 483,128 484,127 483,127 483,127 482,126 482,126 481,126 481,127 480,127 480,127 480,127 479,128 479,128 478,128 478,128 478,128 477,128 477,129 476,129 475,129 475,130 475,130 475,130 474,130 474,130 473,131 473,131 472,131 472,131 471,131 471,131 470,130 469,130 468,130 467,130 467,130 467,131 467,132 467,133 466,133 465,134 464,134 464,134 464,134 464,135 464,135 466,136 466,136 467,136 473,140 472,141 470,143 469,144 467,144 467,145 467,148 467,148 466,148 466,149 465,149 465,149 464,150 464,151 464,152 464,153 464,153 463,153 462,152 462,151 461,151 460,151 459,151 458,151 458,152 458,152 457,152 456,152 455,152 453,154 453,154 452,156 452,156 453,156 453,156 454,156 454,156 455,155 456,155 456,155 456,156 456,157 456,157 457,158 457,158 457,158 457,159 457,159 456,160 456,160 453,160 449,161 446,160 445,160 442,161 437,161 435,162 434,162 433,162 432,162 431,161 429,160 428,161 427,165 431,168 434,168 435,169 434,171 434,173 434,175 434,175 434,177 434,180 435,181 435,181 436,182 436,182 436,184 436,184 436,186 436,187 435,188 434,189 434,190 434,192 434,192 434,192 434,193 433,194 433,194 432,195 432,196 432,196 432,198 432,198 431,199 430,199 428,200 426,201 426,201 424,203 423,206 421,207 421,208 419,210 419,210 419,210 421,210 423,210 424,210 426,210 426,211 426,211 427,211 427,211 429,212 429,212 430,212 432,211 432,212 432,212 432,212 433,212 433,212 433,212 433,212 435,212 435,213 436,213 436,213 437,213 437,213 437,212 438,213 438,213 439,213 439,213 439,213 439,213 442,213 442,213 442,213 443,213 444,213 446,213 446,213 446,213 446,214 448,213 448,213 448,213 448,214 448,214 448,214 449,214 449,214 449,214 449,214 449,214 449,215 450,215 450,215 450,215 450,216 449,216 449,216 449,216 450,216 450,216 450,217 450,217 450,217 450,217 450,218 450,218 450,218 450,218 450,219 450,219 450,219 450,219 450,220 450,220 450,221 450,221 450,221 451,222 451,222 451,223 452,223 452,223 452,223 451,223 451,224 450,224 450,224 450,225 450,225 450,225 449,225 449,225 449,225 448,225 447,225 447,225 447,225 446,226 446,227 446,228 445,229 445,229 445,230 444,231 446,232 446,232 446,232 446,232 446,232 447,233 447,233 448,233 448,234 450,235 450,235 450,235 451,235 452,235 453,235 453,235 457,236 458,237 459,237 459,237 459,237 460,238 461,238 461,238 462,239 463,239 464,239 466,240 469,240 469,240 471,240 471,240 471,240 472,240 472,240 473,240 476,240 477,241 477,241 478,241 478,241 479,241 479,241 482,240 483,240 484,240 487,240 487,240 489,240 489,240 490,240 490,240 491,240 491,240 491,240 495,241 496,241 496,240 496,240 496,240 497,240 498,240 498,240 499,240 500,240 500,241 500,241 500,241 500,242 500,242 500,243 500,244 500,244 499,246 499,246 498,247 498,248 498,248 498,248 498,249 497,249 497,249 497,249 496,252 495,256 494,257 494,257 494,257 489,258 484,259 483,259 478,260 478,261 479,263 479,263 480,263 480,263 480,265 481,265 480,265 480,265 480,266 480,266 479,267 479,269 478,270 478,270 478,270 477,271 477,271 477,271 476,272 474,272 473,272 472,273 471,273 467,274 461,276 458,277 457,277 453,277 452,277 450,277 447,276 447,276 445,275 444,275 443,274 442,274 442,274 442,274 441,274 441,274 440,277 439,280 439,281 439,281 439,282 440,282 440,282 442,286 442,286 444,286 445,287 445,287 449,287 450,287 449,287 449,287 450,287 450,286 451,286 451,286 452,286 452,286 452,288 452,288 453,288 453,290 453,290 453,290 452,291 451,291 451,291 451,292 450,292 449,293 449,293 449,292 449,292 449,292 449,292 448,291 448,291 448,291 448,291 448,291 447,291 447,294 447,296 447,296 448,297 448,297 447,298 447,299 447,300 447,300 448,302 448,302 448,302 446,303 445,303 445,303 444,304 444,304 444,304 443,304 442,304 442,304 441,304 440,304 439,303 438,303 438,303 437,304 433,304 433,304 428,302 427,302 426,301 425,301 424,301 420,300 420,300 420,299 421,298 423,297 422,297 423,297 423,297 422,296 422,295 422,294 422,294 422,294 422,294 422,294 422,294 422,294 422,294 421,293 421,293 421,293 421,293 421,293 420,293 420,293 420,293 419,293 419,293 418,293 418,293 417,293 417,293 417,293 416,293 416,293 416,293 417,292 417,292 417,292 418,291 418,291 418,291 418,290 418,289 418,288 418,288 418,287 418,286 417,286 417,286 417,286 416,286 416,285 415,285 414,286 414,286 414,286 413,286 412,286 411,286 411,286 410,286 410,286 410,286 409,286 409,286 409,286 409,286 408,286 408,286 407,286 407,286 407,286 406,287 406,287 406,287 405,287 405,288 404,288 403,289 403,289 402,289 402,289 402,290 402,290 402,291 402,291 402,291 402,292 403,292 402,292 402,292 402,293 401,293 400,294 400,294 400,294 400,294 401,295 401,295 400,295 400,296 400,296 399,296 398,296 398,296 398,296 398,296 398,297 398,297 397,297 397,297 396,298 396,298 396,298 395,298 395,298 395,298 395,299 394,300 394,300 394,300 393,301 393,301 392,301 391,301 390,301 389,302 389,302 389,302 389,302 388,302 388,302 387,302 386,302 385,303 385,303 383,303 382,304 381,304 379,305 379,305 378,306 378,306 377,306 377,306 377,307 377,307 377,307 376,307 376,307 375,309 374,311 377,316 377,319 376,328 376,330 373,332 371,333 369,335 367,336 366,336 366,336 365,337 364,338 363,338 363,340 364,342 363,343 362,345 361,346 359,347 357,348 355,349 355,350 355,350 355,350 353,349 349,355 344,360 341,363 342,364 343,367 343,367 341,368 341,369 340,371 339,373 339,374 338,375 336,375 336,375 335,374 334,374 333,374 331,374 330,374 329,375 329,375 329,375 329,381 331,389 332,392 331,393 331,395 329,397 327,399 326,400 324,401 322,403 320,404 316,408 313,410 305,413 302,414 297,408 294,406 291,407 288,408 287,408 283,411 282,412 281,412 279,413 278,414 276,411 268,412 268,412 262,411 258,411 254,411 253,411 252,411 246,413 245,413 242,413 241,413 235,414 233,414 226,417 223,418 222,419 217,421 217,422 213,424 211,425 211,426 210,426 210,426 210,427 210,429 210,429 209,431 209,431 208,431 207,432 205,432 205,432 205,432 203,432 203,432 203,432 202,433 202,433 202,433 202,433 201,433 200,434 198,436 198,436 198,437 197,439 196,439 196,439 196,440 194,442 194,443 194,443 194,443 194,444 193,444 193,445 193,445 192,446 192,446 192,447 191,447 191,447 191,448 191,449 191,449 191,450 190,451 190,452 190,453 189,453 188,452 188,452 186,451 184,449 179,446 178,446 178,446 177,446 177,446 177,446 172,443 170,441 169,441 169,441 169,441 169,441 168,441 168,441 167,441 167,440 167,440 167,440 167,440 167,439 166,439 166,440 165,439 165,439 164,439 164,439 164,439 163,439 163,438 163,438 162,438 162,438 162,438 161,438 160,437 160,437 159,436 159,437 158,437 158,437 158,437 158,437 158,437 158,437 157,436 157,436 157,436 157,436 157,435 157,435 157,435 156,435 156,435 156,436 156,436 155,435 155,435 155,435 155,435 155,435 154,435 154,435 153,434 152,434 152,434 152,434 151,434 151,434 148,433 148,433 148,432 148,432 147,432 147,432 147,432 147,432 147,432 146,432 146,432 146,432 145,431 145,431 145,431 144,430 144,430 144,430 144,430 144,430 143,430 142,430 142,430 142,430 142,430 141,430 140,429 140,429 140,429 140,429 140,429 139,428 139,428 139,428 138,427 138,427 138,427 138,427 138,426 138,425 137,425 137,424 137,424 137,424 136,424 136,424 135,424 134,424 134,424 133,424 133,423 133,423 133,423 132,423 131,423 131,423 131,423 130,423 130,423 130,423 129,423 129,423 129,423 128,422 128,422 128,422 128,422 127,422 127,422 127,422 127,422 127,423 127,423 126,423 126,423 126,423 126,423 125,423 125,423 124,423 124,422 123,422 123,422 123,422 121,422 121,422 120,422 120,422 120,422 119,421 118,421 118,421 117,421 117,421 117,421 117,421 117,421 116,421 116,421 116,421 116,421 115,421 115,421 114,421 114,421 113,421 113,420 113,420 113,420 113,420 113,420 114,419 114,419 114,419 114,418 114,418 114,418 114,418 114,417 114,417 113,418 113,418 113,418 112,417 112,417 111,417 111,417 111,416 110,416 110,416 110,416 110,415 110,414 109,414 109,414 109,414 109,414 109,414 108,414 108,414 108,414 108,414 107,414 107,414 107,414 106,413 106,413 106,413 105,413 103,413 103,413 103,413 103,413 102,412 102,412 101,412 101,411 101,411 100,411 98,411 97,411 97,411 97,412 96,412 96,412 96,412 96,412 96,412 95,412 93,413 93,413 93,413 92,413 92,413 92,413 92,413 91,413 91,414 91,414 90,414 90,415 90,415 90,415 90,416 90,416 90,417 90,417 90,417 89,418 89,418 87,420 87,421 86,421 86,422 86,422 86,422 85,422 85,423 84,423 84,423 84,424 83,424 83,424 83,424 83,424 82,423 82,423 82,422 82,422 82,421 79,421 79,417 79,417 79,416 79,415 79,414 78,413 77,411 76,409 76,409 76,409 76,407 75,404 75,404 75,403 75,403 75,402 75,402 76,401 77,400 78,395 79,395 79,395 79,394 79,394 79,393 79,392 79,391 79,391 79,389 79,388 79,388 79,387 79,386 79,385 79,385 80,382 81,381 82,380 82,380 83,379 83,379 83,378 84,378 87,375 87,375 88,374 88,374 89,373 87,374 86,374 86,374 86,374 85,373 84,373 84,373 80,373 80,373 80,372 79,372 79,372 79,370 79,370 77,368 76,366 76,366 76,366 76,366 76,366 76,366 79,364 78,362 78,361 77,360 76,359 74,358 73,357 72,356 72,356 69,354 67,352 67,352 66,352 65,352 65,350 64,349 64,349 64,348 64,348 65,348 65,347 66,347 68,346 73,345 77,344 80,342 80,342 80,342 80,340 79,339 78,338 75,336 74,336 74,336 74,335 74,334 75,331 75,330 76,330 76,329 77,328 77,327 78,327 79,326 79,326 81,326 82,326 85,327 86,327 86,327 86,328 86,330 85,331 86,331 86,331 87,332 88,332 88,332 89,332 93,332 97,331 98,330 99,330 99,330 99,329 99,328 100,326 100,323 101,320 101,320 100,319 99,318 97,316 95,315 94,313 93,311 93,310 93,310 93,309 94,308 94,308 95,307 99,306 103,305 106,305 107,305 108,305 109,305 110,303 111,303 111,302 111,302 109,299 109,298 109,298 109,298 110,297 108,296 108,296 108,295 108,294 108,292 109,291 109,290 111,288 111,287 111,284 111,284 111,283 111,282 110,282 109,281 109,280 106,278 105,278 104,277 103,276 102,275 101,275 100,275 99,275 99,275 97,276 96,276 94,276 93,276 90,275 89,275 89,274 88,274 87,273 87,272 87,271 85,270 85,269 84,269 83,270 82,270 81,270 80,270 79,269 79,269 79,268 78,267 78,265 78,264 77,262 77,262 76,261 76,260 76,259 76,258 76,258 76,257 75,257 75,256 75,256 75,256 75,255 74,255 74,254 73,253 73,252 74,249 73,248 72,246 71,245 71,245 70,244 72,244 73,243 74,243 75,243 79,247 81,248 81,249 81,249 82,249 83,250 83,251 85,253 94,247 96,246 98,246 98,245 101,240 101,240 101,239 101,239 97,237 96,237 94,236 92,235 91,236 90,236 87,232 87,231 86,230 86,230 85,229 83,229 82,230 82,230 81,230 80,231 79,231 78,232 78,232 77,231 76,230 75,229 75,229 75,228 76,228 76,227 76,227 76,226 76,225 76,225 76,224 75,223 76,222 77,222 77,221 78,221 78,221 78,220 78,220 78,219 79,218 79,218 79,217 80,215 81,215 81,215 82,214 82,214 82,213 82,213 82,213 82,213 82,212 82,212 82,212 82,212 82,211 82,211 82,211 83,210 83,210 85,205 86,204 86,204 87,202 88,202 88,202 88,201 89,201 89,201 89,201 90,200 90,200 91,199 91,199 90,197 89,197 89,197 88,197 88,197 86,197 85,196 84,196 83,194 83,194 81,195 80,192 77,193 76,194 75,195 74,193 73,194 72,194 71,194 71,194 71,195 70,195 70,194 69,194 69,194 67,196 67,196 66,195 65,195 65,194 64,194 63,194 62,194 62,194 62,194 62,196 61,196 61,196 60,196 60,195 59,195 59,195 59,194 58,193 58,193 58,192 58,192 57,192 57,193 56,193 55,193 55,193 55,193 54,193 53,193 53,194 52,194 51,194 50,194 50,193 45,194 45,194 43,195 43,195 42,195 42,195 41,196 41,196 41,196 41,196 39,197 39,197 38,198 34,200 34,200 34,200 34,200 34,201 32,200 30,199 28,197 27,196 26,196 24,194 22,193 20,195 18,194 17,193 16,193 15,193 15,193 15,193 14,193 13,192 13,192 12,192 12,192 11,192 11,192 10,192 10,192 8,192 8,191 8,191 8,190 6,188 5,187 4,186 3,185 3,185 3,185 3,184 3,184 1,184 0,184 0,183 0,179 0,176 1,176 1,176 2,176 2,176 4,176 5,177 6,177 6,177 6,177 7,177 7,177 7,177 7,177 7,177 7,178 7,178 7,178 8,178 8,178 8,178 9,178 9,177 10,176 11,176 12,175 13,175 15,173 15,173 16,173 17,173 17,173 19,172 19,172 19,172 19,172 20,171 20,171 20,171 20,170 20,170 20,170 20,169 20,169 20,168 20,168 20,168 20,168 21,167 22,166 22,166 22,166 21,166 22,165 22,165 22,164 22,163 23,163 23,163 23,162 22,162 22,162 22,162 23,161 23,161 24,160 25,160 25,160 25,160 25,159 25,159 25,158 25,158 25,158 24,158 24,158 24,158 24,158 24,158 25,157 26,157 27,157 27,157 27,157 28,156 29,154 30,154 30,154 30,154 30,153 31,153 31,153 32,152 32,152 32,152 32,152 32,152 38,138 40,135 40,135 39,130 39,130 40,128 41,125 39,124 40,124 40,123 40,123 40,123 41,122 41,122 41,122 41,122 41,121 42,121 42,121 42,121 42,121 42,120 42,118 40,115 37,114 37,114 36,114 36,114 32,112 32,112 31,111 30,111 30,111 30,110 30,109 29,108 29,108 30,107 30,104 30,104 30,104 30,101 30,101 30,101 30,100 30,100 30,100 30,100 30,99 30,98 30,98 30,97 30,97 30,96 30,96 30,96 31,95 31,95 31,95 31,95 31,95 32,95 32,95 32,94 33,94 33,94 33,94 43,86 43,86 51,86 59,83 60,82 64,80 66,79 66,79 75,75 76,75 82,75 93,70 102,69 103,69 106,67 109,65 111,60 117,50 124,45 128,43 134,39 136,37 140,32 146,26 156,16 158,13 160,9 166,4 166,4 168,4 168,4 171,4 171,4 171,4 177,10 178,10 180,11 180,11 181,11 181,11 181,10 181,10 182,10 182,10 182,9 183,8 183,8 183,8 183,8 184,8 184,7 185,7 186,6 186,6 187,5 188,5 189,4 189,4 190,3 191,3 192,3 192,2 193,2 193,2 193,2 194,2 194,2 195,2 195,2 196,2 196,1 196,1 196,1 196,1 200,4 201,4 202,6 203,7 203,8 203,8 203,8 203,8 204,7 205,7 206,7 206,7 206,7 206,7 206,7 206,7 207,6 207,6 207,6 208,6 208,6 209,5 209,5 210,5 210,5 210,5 210,4 211,4 212,3 213,3 213,3 213,3 214,3 214,3 215,2 216,1 216,1 216,1 217,1 218,0 219,0 219,0 219,1 220,1 220,0 220,0 221,0 222,0 223,0 223,1 223,4 223,4 226,9 228,10 230,11 232,12 233,12 234,13 235,14 237,16 238,17 241,18 242,19 242,19 243,20 245,23 246,23 248,24 248,24 248,25 248,25 248,25 250,25 250,25 250,26 249,26 249,27 250,27 251,27 251,27 251,27 251,27 250,28 250,29 249,29 249,30 249,31 249,31 249,32 249,32 250,33 250,33 250,35 249,35 248,36 248,36 248,36 249,37 250,37 250,37 250,37 248,37 248,37 248,37 248,38 249,39 249,39 249,40 248,40 247,40 247,40 248,40 248,41 248,41 248,41 248,42 248,42 246,42 246,42 246,43 245,43 245,44 244,44 244,45 243,46 243,47 243,48 242,48 241,47 241,47 240,47 241,47 241,48 241,48 241,48 241,48 241,49 239,49 239,49 239,49 239,50 239,50 239,50 240,51 240,51 240,52 239,52 239,53 239,54 239,54 239,54 240,54 240,54 240,55 239,56 239,56 240,57 240,57 241,58 241,58 241,58 240,58 240,59 240,59 241,59 241,60 241,60 241,60 241,61 241,62 242,62 243,62 244,62 244,62 244,62 244,61 243,61 244,60 244,60 246,61 246,61 246,61 247,60 248,60 249,60 251,61 251,61 251,62 251,62 251,62 251,63 251,63 251,63 251,63 252,63 252,63 253,63 253,64 253,64 254,65 254,65 254,65 253,65 253,65 253,66 253,66 255,67 256,67 256,67 256,68 260,69 262,69 263,69 269,71 271,72 274,72 275,73 278,75 279,76 280,76 280,78 281,79 282,79 283,80 285,80 286,79 288,79 288,79 289,78 293,76 294,76 297,73 298,71 299,68 301,65 301,63 302,62 302,62 301,61 300,60 300,60 300,59 301,58 301,56 302,56 302,55 302,55 304,54 305,54 307,53 311,53 313,52 315,52 315,52 318,50 318,49 319,48 319,47 320,47 323,46 324,45 325,44 328,42 329,42 330,41 331,39 331,38 332,37 334,37 335,37 336,36 336,36 336,35 336,34 336,34 335,33 334,33 334,33 334,32 334,32 334,30 336,29 337,28 338,28 339,27 339,26 340,25 340,22 340,21 341,20 341,19 343,18 344,17 346,16 349,15 351,13 351,13 352,11 352,11 353,10 354,10 354,9 355,9 358,9 361,9 364,9 365,9 368,8 370,8 371,8 371,9 371,9 372,9 373,9 378,11 378,11 378,12 379,13 380,13 383,13 383,13 385,15 386,17 387,18 387,19 388,19 389,20 387,22 387,23 387,23 386,24 384,25 383,25 383,26 383,26 384,32 384,32 385,32 387,33 388,38 388,38 399,40 403,41 396,47 395,48 390,54 379,56 376,58 371,60 374,62 375,63 377,65 378,65 380,65 381,67 381,68 382,69 385,71 385,72 386,73 387,74 388,75 388,75 388,75 387,75 383,75 382,76 380,78 380,79 381,79 381,79 381,79 381,79 382,79 382,79 383,79 384,80 384,82 383,86 384,86 384,87 384,89 385,89 386,90 386,90 386,91 385,91 385,92 385,93 386,93 386,93 386,94 386,95 385,96 384,95 382,93 381,93 380,93 379,92 378,92 378,92 377,92 376,91 375,92 374,92 375,94 374,96 374,98 374,99 373,99 374,100 374,102 372,102 372,102 370,102 369,102 368,102 363,103 363,104 361,105 362,107 362,108 362,109 362,110 364,112 366,115 367,116 369,115 370,115 370,115 370,116 373,116 375,116 376,116 377,116 378,115 379,114 379,114 381,115 381,115 382,116 384,117 385,118 385,118 386,118 390,119 390,120 395,120 395,120 410,122 412,126 413,130 414,130 414,130 414,130 414,132 414,133 415,134 415,134 416,134 418,134 418,134 419,134 420,135 420,135 421,135 422,135 423,135 423,134 423,133 423,133 424,133 425,133 427,133 427,133 428,134 429,135 429,135 429,135 429,135 429,134 430,133 430,131 430,130 430,129 430,129 428,128 428,128 427,128 427,127 427,127 428,126 428,126 429,125 430,125 430,124 430,124 431,123 431,123 432,124 433,124 434,124 434,123 433,122 433,121 432,120 431,120 431,119 430,119 429,118 429,117 428,117 427,115 427,114 427,112 427,112 428,111 431,107 431,107 432,106 434,105 434,105 434,105 435,104 436,104 436,104 438,104 438,107 442,108 446,107 450,109 452,109 453,109 453,108 453,106 452,105 450,105 449,104 448,103 448,103 448,103 447,102 446,102 445,101 443,101 442,99 441,98 442,97 442,97 444,95 445,93 445,93 446,93 447,92 448,91 449,90 451,89 453,88 454,87 456,88 456,89 458,90 458,90 459,91 459,92 461,93 462,93 463,94 465,95 465,95 466,96 467,98 466,98 466,99 466,99 468,100 470,99 472,99 473,99 474,100 475,100 472,103 473,107 476,108 477,109 478,110 480,110 481,111 481,111 483,112 485,112 485,113" id="3409" class="canton" fill="steelblue" stroke-width="1" stroke="white" geotype="canton" geoname="Gignac" code_insee="3409" code_departement="34" nom_departement="Hérault" code_region="76" nom_region="Occitanie"/></svg>