<?xml version="1.0" encoding="utf-8"?>
<svg version="1.1" id="svgmap" xmlns="http://www.w3.org/2000/svg" xmlns:xlink="http://www.w3.org/1999/xlink" x="0px" y="0px" width="100%" height="100%" viewBox="0 0 500 249">
<polygon points="0,18 9,18 8,11 8,11 9,10 15,6 16,5 17,5 29,0 35,2 40,4 41,4 47,4 49,4 54,6 56,7 58,8 60,8 60,8 62,8 64,9 67,11 67,11 68,11 69,11 70,11 79,14 80,14 82,15 83,16 86,17 89,17 90,18 91,18 95,13 96,14 96,14 97,14 99,14 100,14 102,13 103,12 104,12 105,11 107,12 108,12 109,12 110,11 110,11 110,11 111,11 111,11 111,11 111,12 111,12 111,13 111,13 111,14 111,14 111,15 111,16 112,18 112,18 112,18 112,18 111,19 109,21 109,21 109,21 109,21 109,22 109,22 110,22 111,22 112,22 112,22 113,22 114,22 114,22 116,23 117,22 117,22 118,22 120,22 121,22 122,22 122,22 123,22 124,23 124,23 124,23 125,25 125,25 126,26 127,26 127,26 129,27 130,28 130,28 130,29 130,29 130,30 130,30 129,32 129,32 129,34 129,34 129,34 129,35 127,36 127,36 127,37 126,37 125,37 124,38 123,38 122,38 122,39 121,39 121,40 121,40 120,40 120,41 119,41 118,42 118,42 118,42 118,43 118,43 118,43 118,43 118,43 118,44 116,44 116,44 116,44 115,44 114,45 113,45 113,45 112,46 112,46 112,46 112,46 110,47 110,47 110,47 110,47 110,48 110,49 110,49 110,50 110,50 110,50 110,51 110,51 111,51 112,51 112,51 113,51 114,51 115,51 115,51 115,51 116,51 117,51 117,51 118,51 118,52 119,52 119,53 120,54 120,56 121,56 121,56 121,56 122,56 122,56 122,56 123,56 123,56 124,57 124,57 124,57 124,58 124,58 124,58 125,58 125,58 126,59 127,60 128,61 128,61 129,61 129,62 130,63 131,65 132,65 132,66 133,67 133,67 133,67 133,68 133,70 134,71 134,73 134,74 135,76 137,79 138,81 139,82 139,83 139,83 138,85 138,85 138,86 138,86 138,86 138,86 138,87 138,88 138,88 138,89 137,90 136,91 136,92 135,94 135,95 134,95 133,96 132,96 132,96 131,96 131,96 131,97 132,98 132,99 132,99 132,99 132,100 132,100 132,101 133,102 133,103 134,103 135,104 135,104 135,104 135,104 135,105 135,105 135,106 135,106 137,107 137,107 138,107 138,107 138,107 139,107 139,108 140,108 140,108 140,108 140,108 139,109 139,109 139,110 139,110 138,110 138,110 138,110 137,111 137,111 136,111 135,112 135,112 135,112 134,112 134,112 134,113 134,113 135,114 135,114 135,115 135,115 135,116 135,116 135,117 135,117 134,118 134,118 134,118 134,119 133,119 133,119 132,120 132,120 132,120 130,122 130,122 130,122 130,122 130,123 131,123 131,123 131,123 131,123 132,123 132,123 134,122 135,122 137,121 139,121 141,121 142,120 143,120 144,120 145,120 148,119 149,119 150,119 150,119 150,119 152,119 155,120 158,120 158,120 159,120 159,120 159,120 159,120 160,120 161,120 161,120 162,120 163,119 163,119 164,119 165,119 165,119 165,119 165,119 166,119 166,119 167,118 167,118 168,118 168,118 168,118 169,118 169,118 170,118 170,118 171,118 171,117 171,117 172,117 172,117 172,117 173,117 173,117 174,117 174,117 175,117 175,117 176,116 176,116 177,115 177,115 177,114 178,114 178,114 178,115 179,116 179,116 180,116 181,118 181,119 182,120 183,120 183,120 185,123 185,123 185,124 185,124 187,125 187,126 187,126 187,126 188,127 188,127 188,128 189,129 190,130 191,131 191,131 192,132 192,132 193,133 193,133 194,133 195,134 195,134 195,134 195,134 196,135 196,135 197,136 198,136 199,136 201,138 204,139 206,140 206,140 206,140 206,141 206,141 206,141 207,142 207,142 207,142 207,142 207,142 207,142 207,142 208,143 208,143 208,144 209,145 210,146 210,147 211,148 211,148 212,150 213,150 213,151 214,152 214,152 215,153 215,153 216,155 217,155 217,156 217,156 218,156 218,157 218,157 218,158 219,158 219,159 219,159 219,159 219,160 220,160 220,161 220,161 220,161 220,161 220,161 221,162 222,163 223,164 223,165 224,166 224,166 225,167 226,167 227,168 228,169 228,169 228,170 228,170 229,171 229,171 229,171 229,171 229,172 229,172 229,172 229,172 229,172 230,172 230,172 230,172 230,172 231,173 231,173 231,173 232,173 232,173 232,173 232,174 232,174 232,174 232,174 232,175 233,175 233,176 233,176 233,177 233,177 233,177 234,178 234,179 234,179 235,179 235,179 235,180 235,180 235,181 235,181 235,181 235,181 235,181 235,181 235,181 235,182 235,182 235,182 235,182 235,181 235,181 235,181 235,181 235,181 235,181 235,181 236,181 236,180 236,180 237,179 239,178 239,178 241,175 242,174 243,174 243,173 244,172 245,171 246,170 246,170 247,170 247,169 248,169 248,169 248,168 249,168 249,167 250,167 250,167 250,166 250,166 251,165 251,165 251,165 251,165 251,164 252,163 252,163 252,162 253,162 255,162 256,161 258,161 258,161 259,161 260,160 260,160 261,160 261,160 262,160 263,159 263,159 265,159 265,159 267,158 269,157 269,157 269,157 270,156 271,155 273,154 274,154 274,153 275,153 275,153 276,153 277,152 277,152 278,152 279,151 279,151 280,150 281,150 281,150 282,150 283,149 286,148 287,148 288,148 290,147 291,147 291,147 292,147 292,146 293,146 294,146 294,146 295,145 295,145 295,145 296,145 296,145 297,144 297,144 297,144 298,144 298,143 298,143 299,143 299,143 299,143 300,142 301,142 301,142 302,142 304,141 305,140 305,140 306,140 306,140 307,139 308,139 308,138 309,138 311,137 311,137 311,137 311,136 311,136 311,136 311,136 311,136 312,135 312,135 312,135 312,135 312,135 313,135 313,135 314,134 315,134 315,134 316,133 317,133 318,133 322,132 323,131 324,131 328,130 329,130 330,130 330,130 331,129 333,128 335,126 336,125 338,125 338,124 340,123 341,123 341,123 342,123 342,123 343,123 345,123 348,123 349,123 356,123 359,123 361,123 363,123 364,123 365,123 369,122 372,121 372,121 374,121 375,120 376,120 377,120 379,119 381,119 383,119 384,119 385,118 386,118 387,118 389,118 390,118 390,118 392,118 392,118 396,118 397,118 399,117 399,117 402,117 403,117 404,117 409,116 409,116 410,116 411,116 411,116 413,115 414,115 415,115 417,115 417,115 418,115 418,115 418,114 418,114 419,114 419,114 419,114 419,113 420,113 420,113 420,113 420,113 420,113 420,113 420,113 420,113 420,114 420,114 420,115 420,115 420,115 420,116 420,116 419,116 419,117 419,117 418,117 417,119 417,119 416,122 416,122 414,124 412,125 411,125 406,128 405,129 405,129 404,130 404,130 404,130 404,131 405,131 405,131 404,132 404,132 405,133 405,133 407,135 407,136 407,136 407,136 407,136 408,136 408,137 410,137 410,137 410,138 412,138 412,138 413,138 413,138 415,139 415,139 415,139 416,139 417,140 417,140 418,140 418,140 419,141 420,141 420,141 420,142 420,142 421,142 421,142 422,142 422,142 423,143 424,143 424,144 425,145 426,146 426,147 426,147 426,147 427,147 427,148 428,148 428,149 429,150 429,151 430,151 430,152 430,152 430,152 431,152 443,153 450,155 461,164 466,165 468,165 469,166 469,166 469,166 469,166 482,179 490,184 500,225 495,227 494,227 493,228 491,228 477,232 460,236 430,244 419,247 407,249 407,249 346,232 328,244 328,244 328,244 327,244 327,244 327,244 326,244 325,243 324,243 323,242 322,243 322,243 322,243 322,243 321,243 321,243 320,243 320,243 320,243 320,243 319,244 319,244 318,244 318,243 317,243 316,244 313,244 313,244 312,244 312,244 311,244 311,244 309,244 308,244 308,244 307,244 306,244 306,244 301,243 301,243 301,243 300,243 300,243 299,243 299,243 298,244 298,244 296,245 296,246 295,246 295,246 294,246 294,246 294,245 293,245 293,244 292,244 291,244 290,243 289,243 288,242 288,242 287,242 286,242 286,242 285,242 284,242 284,243 283,243 282,242 281,241 280,241 279,240 278,240 278,239 278,238 277,237 277,237 277,236 277,236 277,235 276,235 276,235 275,234 273,234 272,233 271,232 269,232 267,232 266,232 265,231 265,230 265,229 266,228 266,228 265,227 264,227 263,226 262,226 262,227 261,227 261,227 260,228 259,228 259,229 258,229 257,229 254,228 253,228 252,227 251,226 250,224 249,223 248,222 248,222 247,222 246,222 245,223 244,224 243,224 242,225 242,226 242,226 241,227 241,228 241,229 241,230 241,230 241,231 240,232 240,232 239,232 237,232 235,232 233,233 231,234 229,234 228,234 226,234 225,234 223,234 222,234 220,233 218,232 217,231 217,230 216,229 216,228 216,227 215,226 214,226 213,224 211,222 209,221 209,220 208,220 208,219 207,219 207,218 206,217 205,217 205,216 205,215 205,214 205,213 205,213 204,212 204,212 204,211 204,210 204,209 203,208 203,207 203,207 202,207 202,207 201,207 201,207 200,207 195,208 194,209 194,209 193,209 192,209 192,209 191,209 190,210 189,210 188,210 188,210 187,210 187,210 186,210 185,210 183,210 183,210 179,211 177,210 176,210 175,210 175,210 172,208 171,207 171,207 170,206 169,205 169,204 168,204 168,204 166,205 163,206 163,206 161,207 160,209 160,209 160,209 159,209 160,210 159,210 159,211 158,212 156,212 154,212 153,213 153,213 152,213 152,214 151,214 151,215 151,216 151,217 150,217 150,217 149,217 149,218 148,218 147,218 147,218 146,218 146,218 146,218 145,218 145,218 144,217 143,217 142,216 141,216 137,211 136,210 136,209 135,209 134,208 134,207 133,206 132,205 131,203 131,202 130,201 129,200 128,199 128,199 127,198 123,197 122,197 122,197 121,198 120,198 119,198 119,199 118,200 117,200 116,201 114,202 114,203 113,203 112,203 111,203 110,203 110,203 109,203 109,202 109,202 108,202 108,202 108,201 108,200 108,199 109,197 109,197 109,196 108,196 108,196 108,196 108,195 108,194 108,194 108,193 108,192 108,192 108,191 108,191 108,191 108,189 106,185 106,185 106,184 106,184 106,183 105,183 105,183 104,183 104,182 104,182 104,182 104,181 104,180 98,180 98,180 93,178 85,175 84,177 82,176 81,176 81,176 80,176 79,175 78,175 75,174 77,172 76,171 76,171 77,170 76,169 74,168 74,168 73,166 72,167 70,166 70,166 69,165 70,164 66,163 66,162 65,161 65,161 65,161 61,160 62,159 63,159 57,155 58,155 60,153 64,150 65,150 66,148 66,148 66,147 67,147 68,146 68,146 68,146 67,145 66,145 66,144 68,142 70,141 71,140 70,140 72,139 72,139 72,136 72,136 72,135 72,134 72,134 71,132 71,132 71,131 71,131 71,130 70,130 70,129 70,128 70,127 69,126 69,126 69,126 68,125 68,124 67,124 67,123 69,122 69,122 69,122 71,123 71,123 72,123 73,123 74,123 74,123 75,124 76,124 76,124 76,124 76,124 75,123 75,122 75,122 75,121 74,121 73,121 73,121 72,121 72,121 72,121 71,121 71,120 70,119 69,119 68,118 68,118 67,118 67,117 65,117 65,116 63,115 62,114 62,113 61,113 61,112 61,112 60,111 57,110 56,110 56,110 56,110 55,110 55,110 55,109 55,109 55,109 55,109 55,109 56,108 56,108 56,108 56,108 56,108 56,107 55,106 54,105 53,104 53,104 55,103 55,103 55,103 56,103 57,102 59,101 63,99 65,98 68,100 70,102 71,103 72,103 75,104 76,104 77,105 78,105 79,106 80,106 81,106 81,106 82,107 82,107 83,107 84,107 85,108 86,108 86,108 86,108 88,109 89,109 89,109 90,109 90,109 89,108 89,108 89,107 89,107 88,106 88,105 87,104 91,104 92,105 97,105 98,105 99,105 99,105 101,105 101,105 101,106 103,105 103,105 104,105 106,105 105,104 103,103 102,102 101,101 101,101 102,101 103,101 104,100 105,100 106,100 107,98 106,96 105,96 104,95 106,93 107,93 105,92 104,92 103,91 104,90 103,90 102,89 102,89 101,88 101,87 100,86 98,85 100,84 99,84 97,84 97,83 97,83 96,83 96,82 95,82 95,82 95,82 94,82 94,82 93,81 92,81 91,81 91,80 91,80 90,80 90,79 90,79 89,78 88,78 88,77 88,77 87,77 87,77 86,76 85,75 85,75 85,75 84,74 84,73 84,73 83,72 83,71 83,70 82,69 82,69 82,69 81,69 80,69 79,69 79,69 78,69 77,68 76,68 74,67 73,67 72,67 72,66 71,66 71,66 71,66 70,66 70,65 69,65 69,65 68,65 67,66 67,66 66,67 65,67 65,67 65,67 64,67 64,67 64,67 64,67 63,66 63,66 63,65 62,65 62,64 62,63 61,63 61,62 61,61 60,61 60,61 59,60 59,60 57,59 56,58 56,58 56,58 56,57 56,57 56,57 56,57 55,56 55,56 55,56 54,56 54,56 53,55 53,55 53,55 52,54 52,54 52,53 51,53 51,52 51,51 51,51 50,51 50,50 51,48 51,48 51,46 51,46 51,45 51,45 50,45 50,44 49,44 49,44 48,45 47,45 47,45 46,46 46,46 45,46 45,46 45,46 43,47 43,47 42,47 42,46 41,46 40,45 40,44 40,43 40,42 40,42 43,41 44,40 45,40 46,40 47,40 47,40 47,39 47,37 47,37 47,36 47,36 46,36 46,36 45,36 43,36 42,36 42,36 41,36 41,36 39,38 39,38 37,38 36,39 35,39 34,39 34,39 32,37 31,37 31,36 31,35 32,34 32,34 31,34 31,33 28,32 27,32 22,33 16,31 9,30 5,25 3,22 0,19 0,18" id="3410" class="canton" fill="steelblue" stroke-width="1" stroke="white" geotype="canton" geoname="Lattes" code_insee="3410" code_departement="34" nom_departement="Hérault" code_region="76" nom_region="Occitanie"/></svg>