<?xml version="1.0" encoding="utf-8"?>
<svg version="1.1" id="svgmap" xmlns="http://www.w3.org/2000/svg" xmlns:xlink="http://www.w3.org/1999/xlink" x="0px" y="0px" width="100%" height="100%" viewBox="0 0 500 364">
<polygon points="91,240 92,240 93,240 95,240 95,240 97,240 98,240 98,240 98,240 99,240 99,240 101,240 101,240 101,240 101,240 101,239 101,239 101,238 101,237 101,237 101,237 101,236 102,236 102,235 102,235 102,234 102,234 102,234 103,234 104,235 107,235 107,235 108,235 108,235 108,235 108,235 108,235 108,233 109,233 109,232 109,231 109,230 109,229 109,229 110,229 110,229 111,229 112,229 112,228 113,228 113,228 113,228 114,228 115,228 116,228 116,228 118,225 118,224 118,224 119,221 119,221 119,219 120,219 120,217 121,217 121,216 122,215 122,215 122,215 123,209 123,209 123,209 123,208 123,207 123,207 124,206 124,205 124,204 123,201 123,200 123,199 123,199 124,199 124,198 124,198 124,197 124,197 125,197 125,197 125,197 125,197 125,197 125,196 126,196 127,196 127,195 128,195 128,195 130,195 130,195 130,194 129,194 129,194 129,194 128,193 128,193 128,193 128,192 128,192 128,192 128,192 128,192 129,192 129,192 129,191 130,191 130,190 130,190 130,189 130,189 131,189 131,189 131,189 132,188 132,188 132,188 133,188 134,188 135,188 135,188 135,188 135,188 135,187 135,186 135,185 135,184 135,183 135,183 135,183 135,182 135,182 136,181 136,180 136,180 136,180 137,180 137,179 137,179 137,179 137,178 137,178 137,178 137,178 136,178 136,178 136,177 136,177 136,177 133,176 133,176 133,176 133,176 132,175 131,175 131,175 130,175 130,175 131,174 131,174 131,174 131,174 131,173 131,173 131,173 131,173 129,173 129,173 129,173 129,172 129,172 129,171 129,171 129,171 129,171 128,172 128,172 128,172 128,172 128,172 127,172 127,173 126,173 126,173 126,173 125,173 124,173 123,174 123,174 123,173 123,172 124,170 125,169 125,169 124,169 124,169 123,169 123,169 122,170 122,170 121,170 120,170 120,170 119,170 119,170 119,170 119,170 118,169 118,169 118,169 118,169 118,167 117,166 117,166 117,165 116,163 116,163 116,163 116,163 116,163 115,163 114,164 114,164 114,164 113,164 113,164 113,164 112,164 112,164 111,164 111,164 111,164 110,163 108,163 108,163 108,163 108,163 108,162 108,162 108,161 108,161 108,160 108,160 108,160 108,159 108,159 108,158 108,158 108,158 108,158 107,157 107,156 107,156 107,155 107,155 107,155 107,155 108,155 108,154 108,154 108,154 108,154 108,154 108,153 108,153 109,153 109,153 109,153 109,153 110,152 110,152 110,152 112,151 112,151 111,151 110,151 110,151 110,150 110,150 110,150 110,149 112,149 112,149 113,149 113,149 113,149 113,149 113,148 113,148 114,148 114,148 114,148 114,148 114,148 114,148 114,148 113,148 113,148 113,148 113,148 113,148 113,148 113,148 113,148 113,148 113,148 112,148 112,148 112,148 112,148 112,148 112,148 112,147 112,147 112,147 112,147 112,147 112,147 112,147 111,147 111,147 111,147 111,147 111,148 111,148 111,148 110,148 109,147 109,147 108,147 107,147 107,147 107,146 107,146 107,146 107,146 106,146 106,146 105,145 105,145 105,145 105,145 106,144 106,144 106,144 105,144 105,144 105,144 105,144 106,143 106,143 105,143 105,143 105,143 105,143 105,142 105,142 105,142 105,142 104,142 104,142 104,142 104,142 104,142 104,142 103,142 103,142 103,141 103,141 102,141 101,141 101,141 101,140 100,140 100,140 100,140 100,140 100,140 99,139 99,139 99,139 99,139 98,139 98,139 98,139 98,139 98,139 98,139 97,139 97,138 97,138 97,138 97,138 97,138 97,138 97,138 97,138 96,138 96,138 96,138 96,137 95,137 95,137 95,137 95,137 95,137 95,137 95,137 95,137 95,137 95,137 95,137 95,137 95,136 95,136 94,137 94,137 94,137 94,136 94,136 94,136 94,136 94,136 94,136 94,136 93,136 93,136 93,136 93,136 93,136 92,136 93,135 94,134 96,132 96,132 97,131 99,130 100,129 101,129 101,129 101,129 102,129 102,129 102,129 103,129 103,129 103,129 104,129 104,129 104,129 105,129 105,129 105,129 105,129 105,129 105,129 106,129 106,129 106,129 106,129 107,129 107,129 107,130 107,130 108,130 108,130 109,130 109,130 110,130 110,130 111,130 111,130 112,130 112,130 112,130 113,130 113,129 113,129 112,129 112,129 112,129 111,123 110,123 108,123 108,123 108,123 108,122 108,122 108,122 108,121 107,121 107,121 107,120 107,120 106,120 106,120 106,120 107,118 107,118 107,118 106,118 107,118 107,118 106,118 106,118 106,117 107,115 107,114 107,114 103,111 96,107 96,107 94,106 93,106 93,106 93,106 94,105 94,105 94,105 94,104 94,103 94,102 94,102 94,101 94,101 94,101 94,100 94,100 94,99 94,99 94,99 94,98 94,97 94,97 93,97 93,97 93,97 93,97 93,96 93,96 93,96 93,96 93,96 93,96 96,96 98,96 98,96 98,96 98,96 98,96 98,95 98,95 98,95 99,95 99,95 99,95 99,95 99,95 99,94 98,94 98,93 98,93 98,93 98,93 98,93 98,93 98,92 98,92 97,92 97,92 97,92 98,92 98,92 98,92 98,92 98,91 98,91 99,91 99,91 99,90 100,89 101,89 101,88 102,88 102,88 103,87 103,87 103,87 103,87 104,86 104,86 104,86 104,86 104,86 104,86 105,86 108,86 108,86 108,86 108,86 108,86 109,86 109,86 110,87 111,87 111,87 112,87 114,88 114,88 115,88 116,89 116,89 117,89 117,88 117,88 118,87 118,87 118,87 118,87 118,87 118,87 118,86 118,86 118,86 118,86 118,86 119,85 119,85 120,85 120,85 120,85 120,84 120,84 120,84 120,84 121,83 121,83 121,83 121,82 121,82 122,82 122,82 122,82 122,82 122,82 122,82 122,81 122,81 122,81 122,81 122,80 122,80 122,80 122,80 122,80 122,79 123,79 123,79 123,79 123,79 124,79 125,79 125,79 126,79 127,78 127,78 127,78 126,77 126,77 126,76 126,76 126,76 125,76 125,76 125,76 124,75 123,75 123,75 123,74 123,74 123,74 123,74 124,74 124,73 124,73 124,73 124,72 124,72 124,72 123,72 123,72 123,72 123,71 123,71 123,71 123,71 123,71 123,70 123,70 123,69 123,68 123,68 122,68 122,68 121,68 121,68 121,68 121,68 121,68 120,68 120,68 120,67 120,67 120,67 120,67 120,67 120,67 119,67 119,67 119,66 119,66 119,66 119,66 116,66 115,66 115,66 115,66 116,66 115,65 115,65 115,64 115,64 115,64 115,64 117,63 118,63 118,63 119,63 119,63 119,63 118,62 118,61 119,61 119,61 119,61 120,61 120,61 120,61 121,61 122,61 125,61 125,61 125,61 125,61 125,60 125,60 126,59 127,59 127,58 127,58 127,58 129,59 129,59 130,58 131,58 131,58 133,58 133,58 133,58 133,58 133,58 133,58 133,57 133,57 134,57 135,57 136,57 136,57 136,57 136,56 136,56 136,56 137,56 137,56 138,56 139,56 140,55 141,55 142,55 143,55 145,55 146,55 147,55 147,55 149,54 150,54 150,54 150,54 150,54 151,53 151,53 151,53 152,53 152,53 154,53 155,52 156,52 157,52 157,52 157,52 157,52 158,51 158,51 159,51 159,51 159,51 158,51 158,51 158,51 159,51 159,51 159,51 159,51 159,50 159,50 159,50 160,50 160,50 160,50 160,50 160,50 160,50 160,49 160,49 159,49 159,49 159,49 159,49 158,48 158,48 158,48 158,47 158,47 158,47 158,47 158,47 158,47 159,47 159,47 159,46 159,46 159,46 160,46 160,46 160,46 160,46 160,46 160,46 160,46 161,46 161,46 161,46 161,45 161,45 161,45 161,45 161,45 161,45 161,45 161,45 161,45 161,45 161,45 161,44 161,44 161,44 161,44 161,43 161,43 161,43 162,43 162,43 162,43 162,42 162,42 162,42 161,42 161,42 161,42 161,42 161,42 161,42 161,41 161,41 162,41 162,41 162,41 162,41 162,40 162,40 163,40 163,40 163,40 163,40 163,40 163,40 163,40 163,40 164,39 164,39 164,39 164,39 164,38 164,38 165,38 165,37 165,37 165,37 165,37 165,37 165,37 165,37 165,37 165,37 166,37 166,37 166,37 166,36 166,36 166,36 166,36 166,36 166,36 166,36 166,36 166,36 166,36 166,36 166,36 166,35 167,35 167,35 167,35 167,35 167,35 167,35 167,35 167,35 167,35 167,35 167,34 167,34 167,34 168,34 168,34 168,34 168,34 168,33 168,33 167,33 167,33 167,33 167,33 167,33 167,33 168,32 168,32 168,32 168,32 168,32 168,32 168,32 168,32 168,31 168,31 168,31 168,31 168,31 168,31 168,31 167,30 167,30 167,30 167,30 166,30 166,30 165,29 165,29 165,29 166,29 166,29 166,28 166,28 166,28 167,28 167,28 167,28 167,28 167,28 167,28 167,28 168,27 167,27 167,27 167,26 167,26 167,26 168,26 168,26 168,25 168,25 168,25 168,25 168,25 168,25 168,25 168,25 168,24 168,24 168,24 168,24 169,23 169,23 169,23 169,23 170,23 170,23 170,23 170,23 171,23 171,23 171,23 171,23 171,22 171,22 171,22 171,22 171,22 171,22 171,21 171,21 172,20 172,20 172,20 172,20 172,20 171,20 171,19 171,19 171,19 171,19 172,19 172,19 172,18 173,18 173,18 173,18 173,18 174,18 174,17 174,17 174,17 174,17 174,17 174,17 174,17 174,17 174,17 174,17 174,17 174,17 174,17 175,17 176,16 176,16 176,16 177,16 178,15 178,15 179,15 179,15 179,15 179,15 179,15 179,15 179,15 182,14 183,14 183,13 184,13 184,13 184,13 184,13 184,13 184,13 185,13 185,13 185,13 185,13 186,13 186,12 186,12 186,12 186,12 186,12 187,12 187,12 188,12 188,12 189,12 189,12 189,13 189,13 188,13 188,13 188,14 188,14 188,14 188,14 188,14 189,14 190,14 190,14 190,14 190,14 190,14 191,13 192,13 192,13 193,12 193,12 194,12 196,11 196,11 196,10 197,10 198,10 199,9 199,9 201,8 201,8 202,7 203,7 203,7 204,7 205,7 205,7 207,6 209,6 210,6 211,5 212,5 213,5 214,5 215,4 216,4 217,4 217,4 220,3 221,3 221,3 221,3 222,3 222,3 223,3 223,3 223,3 223,2 224,2 225,2 225,2 226,1 226,1 226,1 226,1 226,2 226,2 226,2 227,3 227,3 227,3 228,4 228,4 228,4 228,4 228,4 228,4 230,4 231,4 231,4 233,4 233,4 234,4 235,4 235,4 236,4 237,3 238,3 238,3 239,3 240,3 241,3 241,2 241,2 242,2 242,2 242,2 242,2 242,2 242,2 243,2 243,2 244,2 246,2 247,2 248,2 250,3 250,3 250,4 251,4 250,4 250,4 250,4 250,4 250,4 250,5 250,5 250,5 251,6 251,6 251,7 251,7 252,7 252,7 252,7 253,7 254,8 254,8 254,8 255,8 255,8 255,9 255,9 256,9 257,9 259,9 259,9 260,9 260,9 261,10 261,10 262,10 262,10 262,11 263,11 263,11 263,11 264,11 264,12 265,13 265,13 265,13 265,14 265,14 267,16 267,16 267,16 268,17 268,17 268,18 268,18 268,19 269,20 269,20 269,20 269,21 269,21 257,23 257,23 257,24 256,24 256,24 256,25 256,25 256,25 256,26 255,27 255,28 255,28 255,29 255,29 255,30 255,30 255,30 255,30 255,31 252,32 252,32 251,32 251,32 250,33 250,33 249,33 249,33 248,33 248,33 248,33 248,33 247,33 247,33 247,33 247,33 247,34 248,35 249,35 249,35 249,35 249,36 250,37 250,37 250,37 250,38 250,38 251,38 251,38 251,38 251,38 252,39 252,39 253,39 253,39 253,39 254,39 254,39 254,39 255,40 255,40 255,40 255,40 255,40 254,41 254,41 254,41 254,41 254,42 254,42 254,43 253,43 253,43 253,44 253,44 253,44 252,44 252,44 252,44 252,44 251,45 251,45 251,45 251,45 251,45 253,45 253,45 253,45 254,45 254,45 255,45 256,45 256,45 257,45 258,45 258,45 258,45 259,45 259,45 260,45 260,45 261,45 261,46 261,46 262,46 261,46 269,46 270,46 270,46 270,45 271,42 271,40 272,40 272,39 273,36 274,33 274,32 274,28 275,26 275,24 275,24 276,23 277,21 277,20 277,20 277,18 276,16 276,16 276,16 276,14 276,13 277,12 277,11 278,10 278,9 278,8 279,8 280,5 280,5 281,4 283,4 284,4 284,4 286,3 286,3 287,3 290,3 292,3 294,3 295,3 299,3 303,3 304,4 307,4 307,4 307,4 309,4 312,4 312,4 314,4 314,4 314,4 316,4 318,4 321,4 323,4 324,5 325,5 327,5 330,5 331,5 332,5 333,5 334,4 334,4 335,3 337,3 337,2 338,1 338,1 339,1 339,1 341,1 341,1 343,1 343,1 344,0 345,0 345,0 345,0 345,0 346,0 348,0 349,0 350,0 350,0 351,0 351,0 353,0 353,0 354,0 354,0 355,0 355,0 355,1 355,1 355,1 355,1 357,2 356,2 356,4 356,4 357,4 358,6 358,6 358,6 357,6 357,6 357,7 357,8 357,8 357,9 357,9 357,9 356,10 356,10 356,11 355,11 354,11 354,11 354,11 354,11 354,12 354,12 353,13 352,14 352,14 352,15 352,15 352,15 353,15 353,15 353,15 354,16 356,16 358,17 363,18 363,18 363,18 363,18 362,19 362,19 362,20 362,21 362,21 361,22 361,22 361,25 361,25 360,26 360,26 360,27 359,28 359,29 359,29 359,30 359,30 358,32 358,33 358,33 358,34 358,34 359,34 360,34 360,34 360,34 360,34 360,34 360,34 359,36 358,37 358,37 358,37 357,36 357,36 357,37 357,37 357,37 356,36 356,36 356,36 356,36 356,36 356,36 356,36 356,37 356,37 356,37 356,37 355,37 355,37 355,37 356,37 356,38 356,38 356,38 355,38 355,38 355,39 355,40 355,40 355,40 355,41 354,41 354,42 354,42 354,43 354,43 354,43 354,44 354,45 355,46 355,46 355,47 355,47 355,48 355,49 355,49 356,49 356,49 356,50 357,50 357,50 358,51 358,51 358,51 358,51 358,52 359,53 359,54 359,54 361,56 361,56 362,57 362,57 363,56 364,56 364,56 364,56 365,56 366,56 366,56 367,56 367,56 369,58 369,58 369,59 369,59 370,60 370,60 370,61 371,61 371,61 370,63 370,64 370,65 370,66 370,67 370,68 370,68 370,69 370,69 370,70 370,71 369,71 369,71 370,71 369,72 369,73 369,74 370,74 370,75 370,75 370,75 370,76 370,76 371,76 376,76 377,76 379,77 380,77 380,77 381,77 381,77 382,77 382,77 382,77 382,77 383,77 383,77 384,77 385,77 385,77 385,77 385,77 385,77 386,78 386,78 386,78 387,78 387,78 388,78 388,78 389,77 389,77 389,77 389,77 389,76 389,76 389,76 390,76 390,76 390,75 390,75 390,75 390,75 390,75 391,74 391,74 391,73 392,73 392,73 393,72 393,72 393,72 394,71 394,71 394,71 395,71 395,71 395,70 396,70 396,70 396,70 396,70 396,70 397,70 397,70 398,69 398,69 399,69 399,69 399,68 399,68 400,68 400,68 400,68 401,68 401,68 401,68 401,68 401,68 401,68 401,67 402,67 403,63 404,59 405,59 405,59 405,59 405,58 407,57 407,57 407,57 408,57 408,55 408,55 408,54 408,54 408,54 407,53 406,53 406,52 406,52 408,52 409,52 409,52 409,52 409,52 409,52 410,52 410,52 411,51 411,51 412,51 412,51 413,51 413,51 414,51 414,51 414,52 414,52 415,52 416,52 417,52 417,52 418,52 418,52 419,52 419,52 420,52 420,52 420,52 420,53 421,54 421,54 421,54 422,54 423,54 423,54 424,54 424,54 424,54 425,54 425,54 426,54 426,54 426,54 426,54 426,54 427,54 427,54 427,54 428,54 428,54 428,54 429,54 429,54 429,54 430,55 431,55 431,55 433,55 433,55 433,55 433,55 434,55 435,55 436,55 437,55 437,55 437,55 438,55 438,55 440,56 443,56 443,56 443,56 446,55 447,55 448,55 449,56 449,56 450,57 450,57 450,57 451,58 451,58 451,59 452,60 452,61 452,61 453,61 453,61 456,63 457,63 457,63 457,63 457,63 457,63 457,63 459,65 460,65 461,66 463,68 463,68 463,68 463,68 463,68 465,68 466,68 467,68 467,67 467,67 468,67 469,67 469,67 470,67 471,66 471,66 472,66 472,66 472,66 472,66 473,65 473,65 473,65 474,65 474,65 474,64 474,64 474,64 475,63 475,63 475,63 475,63 476,63 476,63 476,63 477,63 477,63 477,63 477,63 478,64 478,64 478,64 478,64 479,64 479,64 480,64 480,64 480,64 480,65 481,65 482,66 483,66 483,67 483,67 484,67 484,67 485,69 485,69 485,70 485,70 485,70 485,70 486,72 486,72 486,72 489,73 489,73 492,76 492,76 493,77 495,80 495,80 495,80 496,80 496,80 497,80 497,80 497,81 498,81 498,81 499,82 499,82 500,83 500,83 500,83 500,83 500,83 499,83 499,84 499,84 496,85 495,86 494,86 493,87 492,87 491,88 491,88 490,88 490,88 489,88 489,87 489,87 489,87 489,87 488,87 487,88 486,89 485,89 484,89 484,90 484,90 484,90 484,90 484,90 482,90 482,91 482,91 482,91 482,91 479,92 479,92 478,92 478,92 477,93 476,93 476,93 475,93 475,93 475,93 475,93 474,93 474,93 474,93 474,93 474,93 473,93 473,94 473,94 473,94 472,94 472,94 472,94 471,94 471,94 471,94 471,95 471,95 470,95 469,95 469,95 468,95 468,95 468,95 468,96 468,96 467,96 467,96 467,96 467,96 467,97 467,97 467,97 466,98 466,98 466,98 465,98 465,99 465,99 465,100 465,101 464,101 464,102 464,104 464,105 464,105 464,105 464,105 464,105 464,105 464,106 464,107 464,107 463,108 463,109 463,109 463,109 463,111 463,111 463,112 463,112 462,113 462,114 461,114 461,115 460,116 461,116 461,116 461,116 462,116 463,116 463,116 464,116 464,116 465,116 465,116 465,116 466,116 466,116 467,116 467,116 467,116 467,117 467,117 467,117 468,117 468,117 468,117 468,117 468,117 468,118 468,118 468,119 468,119 468,119 468,119 468,119 468,119 468,119 468,119 468,120 468,120 468,120 468,121 469,121 469,121 469,122 470,122 470,122 470,122 471,122 471,122 471,122 471,122 471,122 471,122 471,123 471,123 472,123 474,123 476,123 477,124 477,124 477,126 477,128 477,130 477,130 477,130 475,129 475,129 474,129 474,129 472,129 472,129 471,129 471,129 471,129 470,129 469,129 468,129 466,129 466,129 466,129 466,129 464,129 464,129 464,129 464,130 464,130 463,130 462,130 461,129 460,129 460,129 460,130 460,130 459,132 459,132 459,132 460,133 460,133 460,133 462,134 462,134 462,134 462,135 462,135 462,135 462,135 463,136 463,136 463,136 463,136 463,137 463,137 463,137 463,138 463,138 463,138 463,138 463,138 463,140 463,140 463,140 463,140 463,140 463,140 463,141 463,141 463,141 462,142 462,142 462,142 462,142 462,142 462,142 462,143 461,143 461,143 461,143 461,143 460,143 460,143 459,144 459,144 459,144 459,144 458,145 457,146 457,146 457,146 457,147 457,147 458,147 458,148 458,148 461,148 461,148 461,148 460,150 459,151 459,151 459,152 459,155 459,155 458,155 457,155 456,155 456,155 456,156 456,156 456,156 456,157 456,157 457,157 457,157 456,157 456,157 456,157 456,157 456,157 456,157 455,157 455,157 455,157 455,158 455,158 455,158 455,158 455,158 454,158 454,159 454,159 454,159 454,159 454,159 454,160 454,160 454,160 454,160 454,162 455,162 456,164 456,165 459,166 457,168 458,168 457,169 457,170 457,170 456,171 456,172 456,173 455,174 455,175 455,176 453,178 453,178 451,181 450,182 449,184 449,185 448,186 447,186 447,187 447,189 447,189 446,191 445,192 444,193 443,194 442,195 441,196 441,196 441,196 440,197 440,197 441,197 441,198 441,198 440,199 440,201 440,202 440,203 440,203 439,204 439,205 438,206 437,207 436,209 436,211 435,213 435,213 435,214 435,215 435,215 435,215 436,215 436,216 436,216 436,216 435,217 435,218 435,219 435,219 434,222 434,222 432,222 431,222 428,222 428,223 428,223 428,223 427,224 426,225 425,225 425,225 425,225 424,226 424,227 425,227 424,229 424,229 425,229 425,229 425,229 426,229 426,229 426,229 427,229 427,229 427,229 427,230 426,230 426,230 424,230 424,230 424,229 424,229 424,229 423,229 422,229 421,229 421,229 421,229 421,229 420,229 420,228 420,228 420,228 419,228 419,228 418,228 418,228 417,228 417,228 417,228 417,228 417,228 416,228 416,228 416,228 415,228 415,228 415,228 415,228 415,228 415,228 415,228 414,228 414,228 414,228 414,228 414,228 414,228 414,228 414,228 413,228 413,228 413,228 413,228 412,228 412,228 412,228 412,228 412,228 411,228 411,228 411,228 410,228 409,228 409,228 408,228 408,227 408,227 408,227 408,227 408,227 407,227 407,227 407,227 407,227 407,227 406,227 406,227 406,227 406,227 406,227 406,227 405,227 405,227 405,227 405,227 405,227 405,227 404,227 403,227 403,228 401,228 401,228 400,229 400,229 400,231 400,231 400,231 400,232 400,232 399,232 395,234 393,234 390,236 389,236 389,236 389,237 389,237 388,238 388,239 387,240 385,242 385,243 384,243 383,244 383,244 383,245 383,245 382,245 381,245 381,245 381,245 380,248 380,248 380,248 379,247 378,247 376,247 375,246 375,246 374,246 374,246 372,250 372,253 371,253 371,253 370,253 371,253 370,253 370,253 370,253 370,253 370,253 369,253 368,253 368,253 368,253 367,254 366,255 365,256 364,257 364,258 363,259 363,261 362,263 362,264 362,264 355,263 355,262 354,262 354,262 352,262 352,262 352,262 352,261 352,261 352,260 352,260 351,260 351,260 350,259 350,259 349,258 349,258 348,258 348,257 348,257 348,257 347,257 348,256 348,256 347,256 346,255 345,255 344,254 343,254 343,254 344,254 344,254 344,254 344,254 343,254 343,253 342,253 342,253 342,253 342,253 341,254 341,254 340,254 339,254 339,254 339,254 339,254 338,254 338,253 338,253 338,253 338,253 337,254 337,254 337,254 337,254 336,254 336,254 336,254 336,254 336,254 334,255 333,255 332,255 332,255 332,255 332,255 333,256 333,256 333,256 332,256 332,256 333,256 333,257 333,257 333,258 333,259 333,259 333,259 331,260 331,260 330,260 330,260 330,260 330,260 330,261 330,261 330,261 330,262 330,262 329,262 329,262 329,262 329,262 329,262 328,262 327,262 327,262 327,261 326,261 326,261 326,261 326,261 325,261 324,262 324,262 324,262 324,261 324,261 324,261 323,261 323,261 323,261 323,260 323,260 323,260 322,260 322,259 322,259 322,259 321,258 321,258 313,262 313,262 312,262 312,261 312,261 312,260 311,259 311,257 310,256 309,255 309,254 308,252 307,251 307,251 306,249 305,247 304,246 303,244 302,243 302,242 302,242 301,243 301,243 301,243 300,243 300,243 300,243 300,243 299,243 299,243 299,243 298,243 298,243 296,243 296,243 296,243 296,243 296,243 296,243 295,243 294,243 293,243 293,243 293,243 293,243 293,243 293,243 293,243 292,243 292,243 290,243 287,243 287,243 287,243 287,243 287,244 287,244 287,244 287,244 286,244 286,244 284,244 284,244 284,244 283,245 283,245 282,245 282,245 282,245 282,245 282,245 279,244 278,243 273,241 273,241 273,240 273,240 273,240 272,240 270,239 270,239 270,239 270,239 269,240 269,240 269,240 269,240 269,240 269,240 268,240 268,240 268,240 268,240 268,240 268,240 267,240 267,241 267,242 267,242 266,243 265,243 265,243 264,243 264,243 264,243 264,245 264,245 263,245 263,245 263,245 263,245 263,245 263,245 263,245 263,245 263,246 263,246 262,246 259,247 259,247 259,247 258,247 258,247 258,246 258,246 257,246 257,246 257,246 256,246 256,246 255,247 255,247 255,247 255,247 255,248 255,248 255,248 254,248 254,249 254,249 254,249 253,250 253,250 253,250 253,251 253,251 252,251 252,251 252,251 252,251 251,251 251,251 250,252 250,252 249,253 248,253 248,253 248,253 248,253 247,254 247,254 246,254 245,254 244,254 244,254 242,254 241,253 240,253 239,253 238,253 237,253 237,253 237,254 237,254 237,255 237,255 237,255 236,255 236,255 236,255 235,255 235,255 234,255 232,255 232,255 232,255 232,254 232,254 231,254 228,253 228,253 226,253 226,253 225,253 224,253 223,252 222,252 222,252 220,252 219,252 219,252 219,252 219,252 219,252 219,253 219,253 217,253 216,252 216,252 216,253 216,253 216,253 216,253 216,253 216,254 215,256 215,256 214,256 214,257 214,257 214,257 213,257 213,258 213,258 211,258 211,258 211,259 209,260 209,260 206,259 205,260 205,260 207,261 205,262 205,262 204,262 204,262 202,261 202,261 199,261 198,261 197,261 196,261 195,260 192,260 190,260 188,259 185,258 182,258 177,257 176,257 174,257 172,257 170,257 168,257 166,258 161,257 159,257 158,257 158,257 158,255 157,255 155,256 153,256 152,257 153,259 153,260 154,261 155,262 156,262 156,264 156,270 156,275 156,276 156,280 155,282 152,282 150,282 150,283 150,283 148,284 146,284 144,284 141,284 141,284 141,284 138,284 138,284 137,284 137,285 136,285 136,286 136,286 136,287 135,287 134,288 134,287 134,287 134,288 133,288 133,288 133,288 133,288 132,288 129,288 128,288 127,288 127,288 127,288 127,288 127,288 128,288 128,288 128,288 128,288 128,288 128,289 128,289 128,289 128,289 128,289 128,289 128,289 128,289 128,289 127,289 127,289 127,289 127,289 126,289 126,289 126,290 126,290 126,290 126,290 126,290 126,290 126,290 126,290 126,290 126,290 126,291 126,291 126,291 126,291 126,291 126,291 126,291 126,291 126,291 126,291 126,291 126,291 126,291 126,291 126,291 126,291 126,291 125,292 125,292 125,292 126,292 126,292 125,292 125,292 125,292 125,292 125,292 125,292 125,292 125,292 126,292 126,292 126,292 126,292 126,292 126,292 126,293 126,293 126,293 126,293 126,293 126,293 127,293 127,293 127,293 127,293 127,293 127,293 127,293 127,293 127,293 127,293 127,293 127,293 127,293 127,293 127,294 127,294 127,294 127,294 127,294 127,294 127,294 127,294 127,294 127,294 127,294 127,295 127,295 127,295 127,295 127,295 127,295 127,295 127,295 128,295 128,295 128,295 128,295 128,295 128,295 128,295 128,295 128,295 129,295 129,295 129,295 129,295 129,295 129,295 129,295 129,295 129,295 129,295 129,295 129,296 129,296 129,296 129,296 129,296 129,296 129,296 130,297 130,297 130,297 130,297 129,297 129,297 129,297 129,297 129,297 129,297 129,297 129,297 129,297 129,298 129,298 129,298 130,298 130,298 130,298 129,298 129,298 129,298 129,298 129,298 129,298 129,298 129,298 129,298 129,298 129,298 130,298 130,298 130,298 130,298 130,299 130,299 130,299 130,299 130,298 130,299 130,299 130,299 130,299 130,299 130,299 130,299 130,299 130,299 130,299 130,299 130,299 130,299 130,299 131,299 131,299 131,299 131,299 131,299 131,299 131,299 131,299 132,300 132,300 132,300 132,300 132,300 133,300 133,300 133,300 134,300 134,300 134,300 135,300 136,301 136,301 136,301 137,301 137,301 137,301 137,301 137,301 138,301 138,301 138,301 138,301 138,301 138,301 139,301 139,301 139,301 139,301 139,301 139,301 139,302 140,302 140,302 140,302 140,302 140,302 140,302 140,302 141,302 141,302 141,302 141,302 141,302 141,302 141,302 141,302 141,302 141,302 141,302 141,302 141,302 141,302 141,302 141,302 141,302 141,303 141,303 142,303 142,303 142,303 142,303 142,303 142,303 143,303 143,303 143,303 143,303 143,303 143,304 143,304 143,304 143,304 143,304 143,304 143,304 143,304 143,304 143,304 143,304 144,304 144,304 144,304 144,304 144,304 144,304 144,304 144,304 144,304 144,304 144,304 144,304 144,304 144,304 144,304 144,304 144,305 143,305 144,305 144,305 144,305 144,305 144,305 144,305 144,305 144,305 143,305 143,305 143,305 143,306 143,306 143,306 143,306 144,306 144,306 144,306 144,306 144,306 144,306 144,307 144,307 144,307 144,307 144,307 144,307 144,307 143,308 143,308 143,308 143,308 143,308 143,308 143,308 143,309 143,309 143,309 143,309 143,309 144,309 144,309 146,310 146,310 146,310 146,310 147,310 148,311 148,311 148,311 148,311 148,311 149,311 149,311 149,311 149,311 150,311 150,311 150,311 150,311 151,311 151,311 151,311 151,311 151,311 151,311 151,311 151,312 152,312 152,312 152,312 152,312 153,312 153,312 153,312 153,312 153,312 153,312 154,312 154,312 154,312 154,312 154,312 154,312 154,312 154,313 154,313 155,314 155,315 155,315 156,315 156,316 157,316 157,316 157,316 158,316 158,316 158,317 158,317 158,317 158,318 158,318 159,318 159,318 159,318 160,318 160,318 160,319 160,319 160,319 161,319 162,319 162,319 162,319 161,320 161,320 160,320 159,320 158,320 158,320 157,320 157,320 156,321 156,321 155,321 155,321 155,322 155,322 154,322 154,322 154,322 153,322 153,322 152,322 152,323 151,323 151,323 150,323 150,323 149,322 149,322 148,322 147,322 147,322 147,322 146,322 146,323 146,323 146,324 146,324 146,324 146,324 146,325 146,325 146,326 147,326 147,326 147,326 145,326 145,326 145,326 145,326 144,326 144,326 144,326 144,326 144,326 144,326 144,326 144,327 144,327 145,328 144,328 145,328 145,328 144,328 144,329 144,329 144,329 144,329 144,329 144,329 145,329 145,330 146,330 146,330 147,330 147,330 147,330 147,330 147,331 147,331 147,331 148,331 148,331 148,332 148,332 148,332 148,333 147,333 146,333 146,333 145,333 145,333 145,333 145,333 145,333 144,333 143,333 144,332 144,332 143,332 143,332 143,332 142,332 142,332 142,332 142,332 141,332 141,332 141,333 141,333 141,333 141,333 141,334 141,335 141,335 140,335 139,335 139,335 139,335 139,335 139,335 139,335 139,335 139,335 139,335 139,335 139,335 139,335 139,335 139,336 139,336 139,336 139,336 139,336 139,336 139,336 139,336 139,336 139,336 139,336 139,336 139,337 139,337 139,337 139,337 138,337 138,337 138,337 138,337 138,337 138,337 138,337 137,337 137,336 137,337 136,337 136,338 136,338 136,338 136,338 136,338 135,338 135,338 135,338 135,338 135,338 135,339 135,339 134,339 134,340 134,340 134,340 134,340 134,340 134,340 134,340 134,340 134,340 134,340 134,340 133,341 133,341 133,341 133,341 133,341 133,341 133,341 133,341 133,341 133,341 133,341 133,341 133,341 133,342 133,342 132,342 132,342 132,342 132,342 132,342 130,342 130,342 128,341 127,341 127,341 127,341 127,341 126,341 126,341 126,342 125,342 125,342 125,342 124,341 122,340 122,340 121,340 121,340 121,340 121,340 121,340 121,339 120,339 120,339 119,339 119,338 119,338 119,338 118,338 118,338 118,338 117,338 117,338 117,338 117,338 117,338 117,338 117,338 116,338 116,338 116,338 116,338 116,337 116,337 116,337 116,337 116,337 116,337 116,337 116,337 116,337 116,336 116,336 115,336 115,336 115,336 115,336 115,336 114,336 114,336 113,336 112,336 111,337 111,337 111,337 110,337 110,337 110,337 110,338 110,338 110,338 109,338 109,338 110,338 110,338 110,338 110,339 110,340 110,340 110,340 110,340 110,340 109,340 109,340 108,341 108,341 108,341 108,341 108,341 108,341 108,341 108,341 108,341 107,341 106,342 106,342 106,342 98,342 94,343 94,343 94,343 94,343 94,343 93,342 93,342 93,342 93,342 93,342 92,342 92,342 92,342 92,342 92,342 91,343 91,343 90,343 90,343 90,343 90,343 90,343 89,343 88,343 88,343 87,344 87,344 86,344 84,346 84,346 84,346 84,347 84,347 84,347 84,347 84,347 84,347 84,347 85,347 85,347 85,347 85,348 85,348 85,348 85,348 85,348 84,348 84,348 83,348 83,348 83,348 83,348 83,348 81,349 81,349 81,349 80,349 79,349 79,349 79,350 78,350 78,350 77,350 77,350 77,350 74,349 74,349 73,349 73,349 73,349 73,349 72,349 72,349 72,349 72,349 71,349 71,349 71,349 70,349 69,349 69,349 69,349 68,349 68,349 67,349 66,350 66,350 66,350 65,350 65,350 65,350 65,350 65,350 64,350 64,350 64,350 63,350 62,350 62,350 62,350 61,350 61,351 61,351 60,351 60,351 60,351 60,351 60,351 60,351 59,351 59,351 58,350 58,351 58,351 57,351 57,351 56,351 55,351 55,351 55,351 55,351 55,351 54,351 54,351 53,351 53,350 53,350 53,351 53,351 53,351 53,351 53,351 52,351 52,352 52,352 52,352 52,352 52,353 52,353 52,353 51,353 51,353 51,354 51,354 51,354 51,354 51,354 51,354 51,354 50,354 50,355 50,355 50,355 49,355 49,355 49,355 49,355 49,355 48,356 48,356 48,356 48,356 48,356 47,356 47,356 47,356 47,356 46,357 46,357 46,357 46,357 45,357 45,357 45,357 44,358 44,358 43,358 43,358 43,358 42,358 42,359 42,359 42,359 42,359 42,359 42,359 42,359 42,359 42,359 41,359 41,360 41,360 41,360 41,360 41,360 40,360 40,360 40,360 40,361 39,361 39,361 38,361 38,361 38,361 37,361 36,361 36,362 35,362 35,362 35,362 34,361 34,361 34,361 33,361 33,362 32,362 32,362 31,362 31,362 31,362 31,362 31,362 31,363 31,363 31,363 31,363 31,363 31,363 31,363 31,363 31,364 31,364 30,364 30,364 29,364 29,364 29,364 28,364 28,363 28,363 28,362 28,362 28,362 27,362 27,362 27,362 27,362 27,362 27,362 27,362 26,361 26,361 25,361 24,361 24,361 24,361 23,361 23,361 23,361 22,361 22,361 22,361 22,361 21,361 20,360 20,360 19,360 18,360 17,360 17,360 16,359 17,359 18,358 18,358 18,358 19,358 19,358 19,357 19,357 19,357 18,357 17,357 17,357 17,357 16,357 15,356 15,356 14,356 14,356 13,356 12,356 12,356 12,356 12,356 11,355 11,355 10,355 10,355 9,355 9,355 9,355 8,355 8,355 8,355 6,355 6,355 6,354 6,353 6,353 6,353 6,353 6,353 6,353 6,352 6,352 6,352 5,352 5,352 4,352 4,352 4,351 4,351 4,351 3,351 3,351 3,351 2,351 2,350 1,350 1,350 0,349 0,349 0,349 1,349 1,349 2,349 2,348 2,348 2,348 4,348 4,347 5,347 5,347 5,346 5,346 4,346 4,346 4,346 4,345 5,344 5,344 5,344 5,343 5,343 6,343 6,343 6,343 6,343 7,343 7,343 7,342 7,342 8,342 8,342 9,341 9,341 10,341 10,341 10,341 9,340 9,340 9,340 9,340 10,340 10,340 11,340 11,340 11,340 11,340 11,340 11,339 11,338 11,338 10,337 11,337 10,337 10,337 10,336 10,335 10,335 10,335 9,335 9,334 9,334 9,334 9,334 9,333 10,333 10,332 10,332 10,332 10,331 11,330 11,330 11,330 11,330 11,329 11,329 11,329 10,329 10,329 11,329 13,328 13,328 13,328 12,328 12,328 12,328 12,327 12,327 13,327 12,326 12,326 12,326 12,325 12,325 13,325 13,325 12,325 12,324 13,324 13,324 13,325 13,325 14,325 15,325 14,324 14,323 14,323 14,323 14,323 14,323 14,322 14,322 14,322 14,322 15,322 15,321 15,321 16,320 17,317 17,317 17,316 18,316 18,315 18,315 18,315 18,315 19,315 19,315 19,315 19,315 18,314 18,314 18,314 18,314 18,313 18,312 17,311 17,310 17,310 17,310 17,310 17,310 18,310 18,310 18,310 18,310 19,310 19,310 19,310 20,310 20,310 20,310 20,310 20,310 21,310 22,310 23,310 23,310 23,310 23,310 23,310 23,310 23,310 23,310 23,310 23,311 23,311 23,311 23,311 23,311 24,311 24,311 24,311 24,311 25,311 25,311 25,311 25,311 25,310 25,310 25,310 25,309 25,308 25,308 25,307 25,307 25,307 25,307 25,307 25,307 25,307 25,307 25,307 25,307 25,307 25,306 25,306 24,306 24,306 24,305 24,305 23,305 23,305 23,305 23,305 23,305 23,305 23,304 23,304 23,304 23,304 23,304 23,304 23,304 23,303 23,303 23,303 23,303 23,303 22,303 22,303 22,303 22,303 22,303 22,302 22,302 22,302 22,302 22,302 22,302 22,302 22,302 22,302 22,302 22,301 22,301 23,301 23,301 23,301 23,301 23,301 23,301 23,301 23,301 24,301 24,300 24,300 24,300 24,300 24,300 24,300 25,300 25,300 25,300 25,300 25,299 25,299 25,299 25,299 25,299 25,299 25,299 25,299 25,299 25,299 26,299 26,299 26,299 26,299 26,298 26,298 26,298 26,298 26,298 26,298 26,298 26,298 26,297 27,297 27,297 26,297 26,296 26,296 26,296 26,296 26,296 26,295 26,295 26,295 26,295 26,295 26,295 26,294 25,294 25,294 25,294 24,294 24,294 24,294 24,293 24,293 24,293 24,293 24,293 24,292 23,292 22,291 22,291 21,290 21,290 21,289 21,289 20,288 20,288 20,288 20,288 20,288 20,288 20,287 20,287 21,287 21,286 21,286 21,286 21,286 21,285 22,285 22,285 22,285 22,285 22,285 23,285 23,284 23,284 23,284 24,283 24,283 24,283 24,284 24,283 25,283 25,283 25,283 25,282 25,282 25,282 26,282 26,282 26,282 26,282 26,282 27,281 27,280 28,280 28,280 28,279 29,279 29,279 30,279 30,279 30,279 30,278 30,278 30,278 30,278 30,278 30,278 31,278 31,277 31,277 32,277 32,277 32,277 32,277 32,277 32,277 33,276 33,276 33,276 33,276 34,277 34,277 35,276 35,276 35,276 36,276 36,276 36,276 36,276 36,276 36,276 36,275 36,275 36,275 36,275 37,275 37,275 38,275 38,275 39,275 39,275 39,275 40,275 40,275 41,274 41,274 41,274 41,274 42,273 42,273 43,273 43,273 43,273 43,273 43,272 43,272 43,272 43,272 43,272 43,271 43,271 43,271 43,271 43,271 43,270 43,270 43,270 43,270 44,269 43,268 43,266 43,266 43,266 43,265 43,265 43,265 43,264 43,263 43,263 43,263 42,262 42,262 43,261 43,261 43,261 44,261 44,261 43,260 43,259 42,259 42,258 42,258 41,258 41,258 40,257 40,257 40,257 40,257 40,257 41,257 42,256 42,256 42,256 43,256 43,256 42,255 42,255 41,253 41,253 44,253 44,253 45,253 45,253 46,253 46,253 47,253 47,253 47,253 48,253 49,253 50,253 50,252 51,252 51,252 51,252 52,252 53,251 53,251 52,251 52,251 53,251 53,251 54,250 56,250 59,249 59,249 61,249 64,248 65,248 66,248 66,248 66,248 66,248 67,248 68,248 69,248 70,248 70,248 72,248 73,248 74,248 75,248 76,249 79,249 80,250 81,250 84,251 85,252 87,253 87,253 88,254 90,254 90,254 90,254 91,253 91,253 91,253 91,252 92,250 92,250 92,249 93,248 93,248 93,248 93,248 93,247 93,247 93,246 93,246 93,246 93,246 93,245 93,245 93,245 93,244 93,244 93,244 93,244 92,243 92,243 91,242 91,241 91,240" id="3514" class="canton" fill="steelblue" stroke-width="1" stroke="white" geotype="canton" geoname="Melesse" code_insee="3514" code_departement="35" nom_departement="Ille-et-Vilaine" code_region="53" nom_region="Bretagne"/></svg>