<?xml version="1.0" encoding="utf-8"?>
<svg version="1.1" id="svgmap" xmlns="http://www.w3.org/2000/svg" xmlns:xlink="http://www.w3.org/1999/xlink" x="0px" y="0px" width="100%" height="100%" viewBox="0 0 500 290">
<polygon points="46,97 47,97 47,97 47,97 47,97 47,97 47,97 47,97 48,97 48,97 48,97 48,97 48,97 48,97 48,97 48,97 49,97 49,97 49,97 49,97 49,97 50,97 50,97 50,96 50,96 49,96 49,96 49,96 50,96 50,96 52,95 52,95 53,94 53,94 53,94 53,94 53,94 53,94 53,94 54,94 54,94 54,94 54,94 54,94 55,94 55,94 55,94 55,94 55,94 55,94 55,93 55,93 55,93 55,93 55,92 55,92 55,92 55,92 55,92 55,92 55,91 55,91 55,91 55,91 55,91 55,91 55,91 55,91 56,91 56,91 56,90 57,90 57,90 57,90 57,90 57,90 57,90 57,90 57,90 57,89 57,89 57,89 57,89 57,89 57,89 57,89 58,89 58,89 58,88 58,88 58,88 58,88 58,88 58,88 58,88 59,88 59,87 59,87 59,87 59,87 59,87 59,87 60,87 60,87 60,87 60,87 60,87 60,87 60,87 61,87 61,87 61,87 61,87 61,87 61,87 61,87 62,87 62,87 62,87 62,87 62,86 62,86 62,86 62,86 62,86 62,86 62,86 62,86 62,86 63,86 63,86 63,85 63,85 63,85 63,85 63,85 63,85 63,84 63,84 63,84 63,84 64,84 65,83 65,83 65,83 65,83 65,84 65,84 65,84 65,84 65,84 66,83 66,83 66,83 66,83 66,83 66,83 66,83 67,83 67,83 67,83 67,83 67,83 67,83 67,83 67,83 68,83 68,82 68,82 68,82 69,82 69,82 69,82 69,82 69,82 69,82 69,82 69,81 69,81 69,81 70,81 70,81 70,81 70,81 70,81 70,81 71,81 71,81 71,81 71,81 71,81 71,81 71,81 71,81 72,81 72,81 72,81 72,81 73,81 73,81 73,81 73,81 73,81 74,81 74,81 74,81 74,81 74,81 75,80 75,80 75,80 76,80 76,80 75,79 75,79 76,79 76,79 76,79 76,79 76,79 76,79 76,79 76,79 76,78 76,78 76,78 77,78 77,78 77,78 78,78 78,78 78,78 78,78 79,78 79,78 79,78 79,78 79,78 79,78 79,78 79,78 80,78 80,78 80,78 80,78 80,78 81,78 81,78 82,78 82,78 83,78 84,78 84,78 84,78 84,78 84,78 84,78 84,78 84,78 84,78 84,78 85,78 85,78 85,78 85,78 85,78 85,78 85,78 85,77 85,77 85,77 85,77 85,77 85,77 85,77 85,77 86,77 86,77 86,77 86,77 86,77 86,77 86,77 87,76 87,76 87,76 87,76 89,74 89,74 89,74 89,74 89,74 89,73 89,73 89,73 89,73 89,73 89,73 90,73 90,73 90,72 90,72 90,72 90,72 90,72 90,72 90,72 90,72 90,72 90,72 90,72 91,72 91,72 91,71 91,71 91,71 91,71 91,71 91,71 91,71 91,71 91,70 91,70 91,70 91,70 92,70 92,70 92,70 92,70 92,70 92,70 92,69 92,69 92,69 92,69 92,69 92,69 92,69 92,69 92,68 92,68 92,68 92,68 93,68 93,68 93,68 93,68 93,68 93,68 94,68 94,68 94,68 94,68 94,68 94,68 94,68 94,68 94,68 94,68 94,68 94,68 94,68 94,68 94,68 94,68 94,68 94,68 94,68 95,67 95,67 95,67 95,67 95,67 95,67 95,67 95,67 95,67 95,67 95,67 95,67 95,67 96,67 96,67 96,67 96,67 96,67 96,67 96,67 97,67 97,67 97,67 97,67 97,67 97,67 97,67 97,67 97,67 97,67 98,67 98,67 98,67 98,67 98,67 98,67 98,67 98,67 98,67 98,67 98,67 98,67 99,68 99,68 99,68 99,68 99,68 99,68 99,68 99,68 99,68 100,68 100,68 99,69 99,69 99,69 100,69 100,69 100,69 100,69 100,69 100,69 100,69 101,69 101,69 101,69 101,69 101,69 101,69 101,69 101,69 101,69 101,69 102,70 102,70 101,70 101,70 101,70 101,70 102,70 102,70 102,70 102,70 102,70 102,70 102,70 103,70 103,70 103,70 103,70 103,70 103,70 103,70 104,70 104,70 104,70 104,70 104,70 104,70 104,71 104,71 104,71 104,70 105,70 105,70 105,70 105,70 105,71 105,71 105,71 105,71 105,71 105,71 105,71 105,71 105,71 105,71 105,71 105,71 105,71 105,72 105,72 105,72 105,72 105,72 105,72 106,71 106,71 106,71 106,71 106,71 106,72 106,72 106,72 106,72 106,72 106,72 107,72 107,72 107,72 107,72 107,72 107,72 107,72 107,72 107,72 107,72 107,72 107,72 107,72 107,73 107,73 107,73 107,73 107,73 107,73 107,73 107,73 107,73 107,73 107,73 108,74 108,74 109,73 109,73 109,73 109,73 109,73 109,73 109,74 109,74 109,74 110,74 110,74 110,74 110,74 110,74 110,74 110,74 111,74 111,74 111,74 111,74 111,74 111,74 112,74 112,74 112,74 112,74 112,74 112,74 112,74 113,74 113,74 113,74 113,74 113,74 113,74 114,74 114,74 114,74 114,74 114,74 114,74 114,74 115,74 115,74 115,74 115,74 115,75 115,75 115,75 115,75 115,75 116,75 116,75 116,75 116,75 116,75 117,75 117,75 117,75 117,75 117,75 117,75 117,75 117,75 117,75 117,75 117,75 117,75 118,75 118,75 118,75 118,73 119,73 119,72 119,72 119,72 119,72 119,72 120,72 120,72 121,72 121,72 121,72 121,72 121,72 122,72 123,73 124,73 124,73 124,73 124,73 125,72 125,72 126,72 126,72 126,71 127,71 128,71 128,70 129,70 130,70 130,70 130,70 131,70 131,70 131,70 131,69 131,69 131,69 131,68 132,68 132,68 132,67 132,67 132,67 133,66 133,66 133,66 133,66 133,66 134,65 135,64 135,63 135,63 136,63 136,63 137,63 137,63 137,63 137,63 137,63 137,63 137,63 137,63 137,63 137,63 137,63 137,63 138,62 138,62 138,62 138,61 138,61 138,61 138,61 139,61 139,60 139,60 139,60 139,60 139,60 139,59 139,59 139,58 139,58 139,58 139,57 139,57 139,57 139,57 139,57 140,56 141,56 139,55 138,54 138,54 138,53 138,53 137,53 137,53 137,53 137,53 137,53 136,53 135,53 135,53 135,53 135,53 135,53 134,53 134,53 134,53 133,54 133,54 133,54 133,55 133,55 132,55 132,55 132,55 132,55 131,56 131,56 131,56 131,56 130,56 130,56 130,56 130,56 130,56 130,56 129,56 129,56 129,56 129,57 128,57 128,57 128,57 128,57 128,57 128,58 128,58 128,58 127,58 127,58 127,59 126,59 126,59 126,59 126,60 126,60 125,60 124,59 124,59 124,59 124,59 124,59 124,59 124,59 123,59 123,59 123,59 123,59 123,59 122,59 122,59 120,58 120,58 120,58 120,58 120,58 119,59 119,59 118,58 118,58 117,58 117,58 117,58 116,58 116,58 115,58 115,58 115,58 115,58 115,57 114,57 114,57 114,57 113,57 113,57 113,57 112,58 112,58 112,58 112,58 111,57 113,55 114,54 116,53 116,53 116,53 117,51 117,51 117,51 117,51 117,51 117,50 117,50 117,50 117,50 116,50 116,49 116,49 116,49 116,49 116,49 116,49 115,49 115,49 115,49 115,49 115,50 115,50 115,50 115,50 114,50 114,50 114,50 113,50 113,50 113,50 113,50 112,50 112,50 112,50 112,50 111,50 110,50 110,50 110,50 109,50 108,50 108,50 108,50 107,50 107,50 107,50 107,50 107,50 107,50 106,50 106,50 106,50 105,50 105,50 105,50 105,50 104,50 104,50 104,50 103,50 103,50 103,49 102,49 102,48 102,48 101,47 101,47 101,47 101,47 101,47 101,47 101,47 101,47 101,46 100,46 101,45 101,44 101,44 101,44 101,44 101,44 99,43 97,43 95,43 95,43 95,43 95,43 95,43 94,43 94,43 94,43 94,42 95,42 95,42 95,41 95,41 95,41 95,41 94,41 94,41 94,41 93,41 92,41 91,41 91,41 90,40 90,40 90,40 90,40 89,40 89,40 89,40 88,40 88,40 87,40 87,40 87,40 86,39 86,39 86,39 86,39 86,39 85,39 85,39 85,39 85,39 85,39 85,38 85,38 85,38 85,38 85,38 85,37 85,37 85,37 85,37 85,36 85,35 85,34 85,33 85,33 85,33 85,32 85,32 85,32 85,32 85,32 86,32 86,32 86,32 86,32 86,32 86,32 86,32 86,32 86,32 87,30 87,30 87,30 87,30 87,30 87,29 86,29 86,29 86,29 86,29 86,29 86,29 86,29 86,29 86,29 86,29 86,29 86,28 86,28 86,28 86,28 86,28 86,28 86,28 86,28 86,28 86,28 86,27 86,27 85,27 85,27 85,27 83,27 83,27 83,27 82,27 81,27 80,27 80,27 80,27 80,27 80,27 80,28 79,28 79,28 79,29 79,29 79,29 78,29 78,29 78,29 78,29 77,29 77,29 77,29 77,29 76,29 76,29 76,28 76,27 76,27 76,26 76,26 76,26 77,25 78,25 80,24 81,24 82,24 83,23 84,23 85,23 88,22 88,22 89,22 89,22 89,22 90,21 90,21 90,21 90,21 90,21 91,21 91,21 91,21 91,21 91,21 91,21 92,20 92,20 92,20 92,20 92,20 92,20 93,20 95,20 96,20 96,20 96,20 96,20 96,20 96,20 96,20 97,20 97,20 98,20 98,20 99,19 99,19 99,19 99,19 99,19 99,19 99,19 99,19 99,19 100,19 100,19 100,19 100,19 100,19 100,19 100,19 101,19 101,19 101,19 101,18 101,18 102,18 102,18 102,18 103,18 103,18 104,18 105,18 105,18 105,17 105,17 105,17 106,17 106,17 106,17 107,17 107,17 107,17 107,17 107,17 108,17 108,17 108,16 109,16 109,17 109,17 109,17 109,17 109,17 109,17 110,16 110,16 111,16 111,16 112,16 112,16 113,16 113,16 113,15 114,15 114,15 114,15 114,16 114,16 114,16 114,16 114,16 115,16 115,16 115,16 115,16 115,16 116,16 116,16 116,16 116,17 116,17 117,17 117,17 117,17 117,17 118,17 118,17 118,17 118,17 118,17 119,16 119,16 119,16 119,16 119,16 119,16 120,16 120,16 120,16 120,17 120,16 120,16 121,16 122,16 122,16 123,15 123,15 123,15 123,16 123,16 124,16 124,16 124,17 124,18 125,18 125,18 125,18 125,18 125,19 125,19 125,19 125,19 125,22 125,22 127,21 128,21 128,21 128,21 131,21 131,21 132,21 132,21 132,21 132,21 132,21 132,21 133,21 133,21 133,21 133,21 134,20 135,20 135,20 135,20 135,20 135,20 136,20 136,20 136,20 137,20 137,20 138,20 138,20 139,20 140,20 140,20 141,20 142,20 142,20 143,20 143,20 143,20 143,20 144,20 144,20 144,20 144,20 144,19 145,19 146,20 147,20 147,20 147,20 147,20 147,20 147,20 148,20 148,20 148,20 148,20 150,20 150,20 150,20 150,20 151,19 151,19 151,20 151,20 151,20 151,20 152,20 152,20 153,20 154,20 154,20 154,20 154,20 154,20 154,20 155,20 155,20 155,20 156,20 156,21 156,22 157,21 157,21 158,21 158,21 158,21 158,21 158,22 159,22 159,22 160,23 160,23 163,23 165,22 169,23 169,23 169,23 169,23 169,23 169,24 169,24 170,24 170,24 171,24 171,24 171,24 171,24 171,24 171,24 171,24 171,24 172,24 172,24 172,24 172,24 172,24 172,24 173,24 173,24 173,25 173,25 174,25 174,26 174,26 175,26 175,26 175,26 175,26 176,27 176,27 176,27 176,27 177,26 178,26 182,24 182,24 182,24 183,24 183,24 184,23 184,23 184,23 184,23 184,23 185,24 185,24 186,24 186,24 186,24 186,24 186,24 187,25 188,25 188,25 189,24 189,24 190,24 190,24 190,24 189,24 189,23 188,22 188,21 188,21 188,21 190,18 191,17 191,17 191,17 191,17 194,17 194,16 195,16 196,16 196,16 196,14 197,14 197,14 197,14 197,13 197,13 197,13 197,13 198,13 198,12 198,12 199,12 199,12 199,12 199,12 199,11 200,11 200,11 200,10 200,10 202,8 202,8 203,7 203,7 203,7 203,7 203,7 203,7 203,6 203,6 203,5 203,5 203,5 204,4 207,1 207,1 208,0 208,0 208,0 208,0 208,0 208,0 208,0 209,1 209,1 209,1 209,1 210,1 210,1 210,1 210,1 211,1 211,1 211,1 211,0 211,0 212,0 212,0 212,0 212,1 212,1 212,1 212,1 212,1 212,1 213,0 213,0 213,0 213,1 213,1 213,1 214,1 214,1 214,1 214,1 214,1 214,1 214,1 214,1 214,1 214,1 214,2 214,2 214,2 214,2 215,2 215,2 215,2 215,3 215,3 214,3 214,3 214,3 214,3 214,3 215,3 215,3 215,3 215,3 215,3 215,3 216,3 216,4 216,4 216,4 217,4 217,4 217,4 217,4 217,4 217,4 217,4 218,4 218,4 218,4 219,4 219,5 219,5 220,5 221,5 221,5 221,5 221,5 221,5 222,5 222,5 222,5 222,5 222,5 222,5 222,5 222,6 222,6 222,6 222,6 222,6 223,6 223,6 223,6 223,6 223,6 223,6 223,6 223,6 223,6 224,6 224,6 224,6 224,7 224,7 224,7 224,7 224,7 225,7 225,7 226,8 226,8 226,8 226,8 226,8 226,8 226,8 226,8 226,8 226,8 226,8 226,8 226,8 226,8 226,8 226,8 225,9 225,9 226,9 226,9 226,9 226,9 227,9 227,9 228,10 228,10 228,10 228,10 228,10 229,10 229,10 229,11 229,11 230,11 230,11 230,11 230,12 230,12 230,12 229,12 229,13 229,13 229,13 229,13 229,13 230,14 230,14 231,14 231,14 231,15 231,15 231,15 231,15 231,15 232,16 233,16 233,16 233,16 233,17 233,17 234,17 234,17 234,17 234,17 234,17 234,17 234,17 234,17 234,18 234,18 234,18 235,18 235,18 235,19 236,19 237,19 237,19 237,19 238,19 238,19 238,19 238,19 239,19 240,19 241,19 241,19 241,19 242,19 243,19 244,19 244,20 244,20 244,20 245,20 245,20 245,20 245,20 245,20 246,21 246,21 247,21 247,21 247,21 247,21 247,21 247,21 247,21 248,21 248,22 248,22 248,22 248,22 249,22 249,22 250,22 250,22 251,22 251,22 251,22 251,22 251,22 252,23 253,24 255,25 255,25 255,25 255,25 255,25 255,25 255,26 255,26 255,26 256,26 256,26 256,26 256,26 256,26 257,27 259,29 259,29 259,29 259,29 259,29 259,29 260,29 260,29 260,29 260,29 263,29 266,28 267,28 269,28 270,28 271,28 271,27 271,27 272,26 272,26 273,26 273,25 274,24 275,24 275,24 275,23 276,23 277,22 277,22 277,22 278,22 278,21 279,21 280,20 281,20 281,20 282,20 282,19 283,19 283,19 283,19 285,21 285,21 286,23 287,24 289,27 289,27 289,28 290,29 290,29 290,30 291,30 294,33 294,33 296,34 296,34 296,34 298,35 298,35 298,36 298,36 298,35 298,35 298,35 298,35 299,35 299,35 299,35 299,35 300,35 300,34 300,34 300,34 300,34 300,34 301,34 301,34 301,34 301,34 301,34 301,33 302,33 301,33 301,33 302,33 302,33 302,32 302,32 302,32 302,32 303,31 303,31 303,31 304,30 304,30 304,30 304,29 304,29 304,29 304,29 306,27 307,25 307,25 307,25 307,26 307,26 307,26 308,26 308,26 308,25 308,25 308,25 308,25 308,26 308,26 308,26 309,26 309,25 310,25 310,25 310,25 310,25 310,25 310,24 310,24 310,24 310,24 310,24 310,24 310,24 310,24 311,24 311,24 311,24 311,24 311,24 312,24 312,24 312,24 312,24 312,24 312,24 313,24 313,24 313,24 313,24 313,24 313,24 313,24 314,24 314,24 314,24 314,24 314,24 315,24 315,24 315,24 315,24 315,24 315,24 315,24 315,24 315,24 315,24 315,24 315,24 316,24 316,24 316,23 316,23 316,23 316,23 316,23 316,23 316,23 316,23 316,23 316,23 316,23 316,22 316,22 316,22 316,22 317,22 317,22 317,22 317,22 317,22 317,22 317,22 318,22 318,22 318,22 318,22 318,22 318,22 318,22 318,22 319,22 319,22 319,22 319,22 319,22 319,23 319,23 319,23 320,23 320,23 320,23 320,23 320,23 321,23 321,23 321,23 322,24 322,24 323,24 323,24 323,24 324,24 324,24 324,23 325,23 325,23 325,23 326,23 326,23 326,23 327,23 328,23 328,23 328,23 328,24 328,24 329,24 329,24 329,24 329,24 330,24 330,24 330,24 330,24 330,24 330,24 330,24 331,24 331,25 331,25 332,25 332,25 332,25 332,25 332,25 333,25 333,25 333,25 334,25 334,25 334,26 334,26 334,26 334,27 334,27 337,28 337,28 338,28 339,28 340,28 340,28 340,28 341,28 342,28 342,29 342,29 342,29 342,29 342,29 342,29 342,29 342,29 343,30 343,30 343,30 343,30 344,31 344,31 345,31 345,31 345,31 345,30 345,30 346,30 346,30 346,30 346,30 346,30 346,30 346,29 347,29 347,29 347,29 347,29 348,29 348,29 348,29 348,29 349,28 349,28 349,28 349,28 350,28 350,28 350,28 351,29 351,29 351,29 352,29 352,29 352,29 352,29 353,29 353,29 353,29 354,29 354,29 355,29 358,28 357,28 359,28 360,28 360,28 361,28 361,28 362,28 362,29 362,29 363,29 363,29 363,29 363,29 364,29 364,29 364,29 364,29 364,28 364,28 364,28 364,27 364,27 364,27 364,26 364,26 364,25 364,25 364,25 364,25 364,24 364,24 364,24 364,24 364,23 364,23 364,23 364,23 364,23 364,22 364,22 364,22 364,22 364,22 364,22 364,21 364,21 364,21 364,21 364,20 364,20 364,20 365,20 365,20 365,19 365,19 365,19 365,19 365,18 365,18 365,18 365,18 365,18 365,18 365,18 365,18 365,18 365,18 366,17 366,17 366,17 366,17 366,17 366,17 366,16 366,16 366,15 366,15 366,15 365,14 365,14 365,14 366,14 366,14 366,14 367,14 367,14 367,14 367,14 368,13 368,13 369,12 369,12 370,12 370,12 370,12 370,12 371,11 371,11 371,11 372,11 372,11 372,11 373,11 373,10 373,10 373,10 373,10 374,10 374,10 375,10 375,10 375,10 375,10 375,10 376,10 376,10 376,10 377,10 377,9 377,9 377,9 378,9 378,9 378,8 379,9 379,8 379,8 380,8 380,8 380,8 381,8 381,8 382,8 382,7 382,7 383,7 383,7 383,6 384,6 384,6 385,6 386,6 388,5 388,5 389,5 390,5 391,4 391,4 391,4 392,4 392,4 392,4 392,4 392,4 392,4 393,4 393,4 394,3 395,3 396,3 396,4 396,4 396,4 397,4 397,4 397,4 398,5 398,5 396,6 396,6 395,6 395,6 395,7 395,7 395,7 395,8 395,8 395,8 395,9 395,9 394,10 394,10 394,11 393,11 393,11 393,11 394,12 394,12 394,13 395,13 395,13 396,14 396,14 398,15 398,15 397,15 397,15 396,16 396,16 396,16 396,16 396,16 397,17 397,17 397,17 397,17 397,18 397,18 396,18 396,18 396,18 396,18 397,19 397,19 397,19 397,19 397,20 397,20 397,20 397,20 397,20 397,20 397,20 397,20 397,20 397,21 398,21 398,21 398,21 398,21 397,22 397,22 397,22 397,22 397,22 397,22 398,22 398,22 398,24 398,24 398,25 398,27 397,27 397,27 397,27 397,27 397,27 397,28 398,28 398,28 398,28 398,28 398,28 398,28 398,28 398,28 398,28 397,29 397,29 397,29 397,29 397,29 397,30 398,30 398,30 399,31 399,31 403,34 404,34 404,34 404,34 404,35 404,35 404,35 404,35 404,36 404,36 404,36 404,36 404,36 404,36 404,36 404,37 404,37 405,37 405,37 405,37 405,37 405,37 405,37 405,37 405,37 405,37 405,37 406,38 406,38 406,38 406,38 406,38 406,38 406,38 406,38 406,38 406,38 406,38 407,38 407,38 406,38 406,38 406,38 406,38 406,39 407,39 407,39 406,39 406,39 406,39 407,39 407,39 407,39 407,39 407,39 407,39 407,39 407,39 407,39 406,39 406,39 406,39 406,39 406,40 406,40 406,40 406,40 406,40 406,40 406,40 406,40 406,40 406,40 406,40 405,40 405,40 405,40 405,40 405,40 405,40 405,40 405,40 405,40 405,41 405,41 405,41 405,41 405,41 405,41 405,41 405,42 405,42 405,42 405,42 405,42 405,42 406,43 407,43 408,44 408,44 410,44 410,44 410,44 410,44 410,44 410,44 410,44 410,45 409,45 409,45 409,46 409,46 409,46 409,46 409,47 409,47 409,47 409,47 409,47 409,47 409,47 409,47 409,48 409,48 409,48 409,48 409,48 410,48 410,48 410,48 410,48 410,49 410,49 410,49 410,49 410,50 410,50 410,50 409,50 410,50 409,50 409,50 409,50 409,50 409,50 409,50 409,50 409,50 409,50 409,50 409,51 409,51 409,51 409,51 409,51 409,51 409,51 409,51 408,51 408,51 408,51 408,51 408,51 408,51 408,52 408,52 408,52 408,52 408,52 408,52 408,52 408,52 408,52 408,52 408,52 408,53 408,53 408,53 408,53 408,53 408,53 408,53 408,53 408,53 408,53 408,53 408,53 408,53 408,53 408,53 408,53 408,53 408,54 408,54 408,54 408,54 409,54 409,54 409,54 409,54 409,54 409,54 409,54 409,54 409,54 409,54 409,54 409,54 410,54 410,55 410,55 410,55 410,55 410,55 410,55 410,55 410,55 411,55 411,55 411,55 411,55 411,55 411,55 411,55 410,55 410,55 410,55 410,55 410,55 410,55 411,55 411,55 411,55 411,56 411,56 411,56 411,56 411,56 411,56 411,56 411,55 411,55 411,55 411,55 411,55 411,56 411,56 412,56 412,55 412,55 412,55 412,55 412,55 412,55 412,55 412,55 412,55 412,55 413,56 413,56 413,56 413,55 413,55 413,55 413,55 413,55 413,56 413,56 414,56 414,56 414,56 414,56 414,56 414,56 415,56 415,56 415,56 415,56 415,56 415,56 415,56 415,56 415,56 415,56 415,57 415,57 415,57 416,57 416,57 416,57 416,57 416,57 416,57 416,57 416,58 416,58 416,58 416,58 416,58 416,58 416,59 416,59 416,59 416,59 416,59 416,59 416,59 416,59 416,59 416,59 416,59 416,59 416,60 416,60 416,60 416,60 416,60 416,60 416,60 416,60 416,60 416,60 416,60 416,60 416,60 416,60 417,60 417,60 417,60 417,60 417,60 417,60 417,60 417,60 417,61 417,61 418,61 418,61 418,61 418,61 418,61 418,61 418,61 418,61 418,61 418,61 418,62 418,62 418,62 418,62 418,62 418,62 418,62 418,62 418,62 418,62 418,62 418,62 418,63 418,65 418,65 418,65 418,65 418,65 418,65 418,66 418,66 418,66 418,66 418,66 418,66 418,67 418,67 418,67 418,67 419,67 419,67 419,67 419,67 419,68 419,68 419,68 418,68 418,68 418,68 418,68 418,69 418,69 418,69 418,69 418,69 418,69 418,69 418,69 418,69 418,69 418,69 418,69 418,69 418,70 418,70 418,70 419,70 419,70 419,70 420,70 421,70 421,70 421,70 422,71 422,71 423,71 423,71 423,71 423,71 423,71 423,71 423,71 423,71 423,72 423,72 423,72 423,72 423,72 423,72 423,72 423,72 423,73 423,73 423,73 423,73 423,73 423,73 423,73 423,73 423,73 423,73 423,73 423,73 423,73 422,73 422,73 422,73 422,73 422,74 422,73 422,73 422,73 422,73 422,73 422,74 421,74 421,74 421,74 421,74 421,74 420,74 420,74 420,75 421,75 421,75 421,75 421,75 421,75 421,76 421,76 421,76 421,76 421,76 421,76 421,76 420,76 420,76 420,76 420,77 420,77 420,77 420,77 420,77 420,77 420,77 421,78 421,78 420,78 420,78 420,78 420,78 420,78 420,78 420,78 420,78 420,78 420,78 420,78 419,78 419,78 419,78 419,78 419,78 419,79 419,79 419,79 419,79 419,79 418,79 418,79 418,79 418,79 418,79 418,79 418,79 418,79 418,79 418,79 418,79 417,80 417,80 418,80 418,80 418,80 418,80 418,80 418,80 418,80 418,80 418,80 418,80 418,80 418,80 418,80 418,81 418,81 418,81 418,81 418,81 418,81 418,81 418,81 418,81 418,81 418,81 418,81 418,81 418,81 418,81 418,81 418,82 418,82 418,82 418,82 418,82 418,82 418,82 418,82 418,82 418,82 418,82 418,82 418,82 417,82 417,82 417,82 417,82 417,82 417,82 417,82 417,82 417,82 417,82 417,83 417,83 417,83 417,83 416,83 416,83 416,83 416,83 416,83 416,83 416,83 416,83 416,83 416,83 416,83 415,83 415,83 415,83 415,83 415,84 415,84 415,84 415,84 415,84 415,84 415,84 414,84 414,84 414,84 414,84 414,84 414,84 414,84 414,85 414,85 414,85 414,85 414,85 414,85 414,85 414,85 414,85 414,85 414,85 414,86 414,86 414,86 414,86 414,86 415,86 415,86 415,86 415,86 415,86 415,86 415,86 415,86 415,87 415,87 415,87 416,87 416,87 416,87 416,87 416,87 416,87 416,87 416,87 417,87 417,87 417,87 417,87 417,87 417,87 417,87 418,87 418,87 418,88 418,88 418,88 418,88 418,88 419,88 419,88 419,88 419,88 419,88 419,88 419,88 419,88 419,88 419,88 420,88 420,88 420,88 420,88 420,88 420,89 421,89 421,89 422,89 422,89 422,89 422,89 422,89 422,89 422,89 422,89 422,90 422,90 422,90 422,90 422,91 422,91 422,91 422,91 422,91 421,91 421,91 421,91 421,91 421,91 421,91 421,91 422,92 422,92 422,92 422,92 422,92 422,92 423,93 423,93 423,93 423,93 423,93 424,93 424,93 424,93 425,93 425,93 425,93 425,93 425,93 426,93 426,93 426,93 427,93 427,93 427,94 427,94 428,95 428,95 428,95 428,95 428,95 428,96 428,96 429,96 429,96 430,96 430,96 431,96 431,96 431,96 431,96 431,96 431,96 432,96 432,96 432,97 432,97 432,97 432,97 432,97 433,97 433,98 433,98 433,98 433,98 433,98 433,98 433,98 433,98 433,99 433,99 433,99 433,99 433,99 433,99 433,99 432,99 433,99 433,99 432,99 432,99 432,100 433,100 432,100 432,100 432,100 432,100 432,100 432,100 431,100 431,100 431,100 431,100 431,100 431,101 431,101 431,101 431,101 431,101 431,101 431,101 431,101 431,101 430,101 430,101 430,101 430,101 430,102 430,102 430,102 430,102 430,102 430,102 430,102 429,102 429,102 429,102 429,102 429,103 429,103 429,103 429,103 429,103 429,103 429,103 429,103 429,104 429,104 429,104 429,105 429,105 429,106 429,106 429,106 429,106 429,106 429,106 428,107 428,107 428,107 428,107 428,107 428,107 428,107 428,107 428,108 428,108 428,108 428,108 428,108 428,108 428,108 428,108 428,108 428,108 428,108 428,109 428,109 428,109 428,109 428,109 428,109 428,109 428,109 428,109 428,109 428,109 428,109 428,109 428,109 428,110 428,110 428,110 428,110 428,110 428,110 428,110 428,110 428,110 428,110 428,110 428,110 428,110 427,110 427,110 427,110 427,110 427,110 427,110 427,110 427,110 427,110 427,111 427,110 427,111 427,111 427,111 427,111 427,111 427,111 427,111 427,111 427,111 427,111 427,111 427,111 427,111 427,111 427,111 427,111 427,111 427,112 427,112 427,112 427,112 427,112 427,112 427,112 427,112 427,112 427,112 427,112 427,112 427,112 427,112 426,113 426,113 426,113 426,113 426,113 426,113 426,113 427,113 427,113 427,113 427,113 426,113 426,113 426,113 426,113 427,113 427,113 427,114 427,114 427,114 427,114 427,114 427,114 427,114 427,114 427,114 427,114 427,114 427,114 427,114 427,114 427,114 427,115 427,115 427,115 427,115 427,115 427,115 427,115 427,115 427,115 427,115 427,115 428,115 428,115 428,115 428,116 427,116 427,116 427,116 427,116 427,116 427,116 427,116 427,116 428,116 428,116 428,116 428,116 428,116 428,116 428,116 428,116 428,116 428,116 428,117 428,117 428,117 428,117 428,117 428,117 428,117 428,117 427,117 427,117 427,117 427,117 427,117 427,117 427,117 427,117 427,117 427,118 427,118 427,118 426,118 426,118 426,118 426,118 426,118 426,118 427,118 427,118 427,118 427,118 427,118 427,118 427,118 427,118 427,118 427,118 427,118 427,118 427,118 427,118 427,119 427,119 427,119 427,119 427,119 427,119 427,119 427,119 427,119 427,119 427,119 427,119 427,119 427,119 427,119 427,119 427,119 427,119 427,119 427,119 427,119 427,119 426,119 426,119 426,119 426,119 426,119 426,119 425,120 425,120 425,120 425,120 426,120 426,120 426,120 425,120 425,120 425,120 425,121 425,121 425,121 425,121 424,121 424,121 424,121 424,121 424,121 424,121 424,121 424,121 424,121 424,121 424,121 424,121 424,121 424,121 424,121 424,122 425,122 425,122 425,122 425,121 425,121 425,122 425,122 425,122 425,122 425,122 425,122 425,122 425,122 425,122 425,122 425,122 425,122 425,122 425,122 425,123 425,123 425,123 424,123 424,123 424,123 424,123 424,123 424,123 424,123 424,124 424,124 425,124 425,124 425,124 425,124 425,124 425,124 426,124 426,124 426,124 426,124 426,124 426,124 425,124 425,124 425,124 425,125 425,125 425,125 425,125 426,125 426,125 426,125 426,125 425,126 425,126 426,126 426,126 426,126 426,127 426,127 426,127 426,127 426,127 426,127 426,127 426,127 426,127 426,127 426,127 426,127 426,128 425,128 425,128 425,128 425,128 425,128 426,128 426,128 426,129 426,129 426,129 426,129 426,129 425,129 425,129 425,129 425,129 425,130 424,130 424,130 424,130 424,130 423,130 423,130 423,130 423,130 424,130 424,131 424,131 424,131 424,131 424,131 424,131 424,131 423,132 423,132 424,132 424,132 423,132 423,132 423,132 423,132 423,132 423,133 423,133 424,133 424,133 424,134 424,134 424,134 424,134 424,134 424,134 425,133 425,133 425,133 425,133 425,133 425,133 425,133 426,134 426,134 426,134 426,134 426,135 426,135 426,135 426,135 426,135 427,135 427,135 427,135 427,135 427,135 428,135 428,135 428,135 428,135 429,135 429,135 429,135 430,136 430,136 430,136 429,136 429,136 429,136 429,137 429,137 429,137 429,137 429,137 430,137 430,137 430,137 430,137 430,137 431,137 431,137 431,138 431,138 431,138 431,138 430,138 430,138 430,138 430,138 430,139 431,139 431,139 431,139 431,139 431,140 431,140 431,140 431,140 430,140 430,140 430,140 430,140 430,140 430,140 430,140 430,140 429,141 429,141 428,141 428,141 428,141 428,141 427,141 427,142 427,142 426,141 426,141 426,141 426,141 426,142 426,142 426,142 426,142 426,142 426,142 426,142 427,143 427,144 427,144 428,144 428,144 428,144 428,144 429,144 430,144 430,144 431,145 431,145 431,145 431,145 432,144 432,144 433,144 433,144 433,145 433,145 434,145 434,145 434,145 434,145 434,145 434,146 434,146 434,147 434,147 434,147 434,147 433,147 433,147 433,147 433,147 433,147 433,147 433,147 433,148 433,148 433,148 433,148 433,148 433,148 433,148 433,148 433,148 432,148 433,148 433,149 433,149 433,150 433,150 433,150 433,150 433,151 434,151 434,151 434,152 434,152 434,152 434,152 434,152 434,153 433,153 433,153 433,154 433,154 432,154 432,155 432,155 432,155 432,155 432,155 433,155 433,155 433,155 433,155 434,155 434,155 434,155 434,155 434,155 434,155 434,155 434,155 435,155 435,155 435,155 435,155 435,155 435,155 435,155 436,155 436,155 436,155 437,155 437,155 437,155 437,155 437,155 437,155 437,155 438,155 438,155 439,155 439,155 440,155 440,155 440,155 441,155 441,155 441,155 444,153 444,153 445,153 445,153 445,153 445,153 445,153 445,153 445,153 445,153 445,153 445,153 445,153 446,153 446,153 446,153 446,153 446,153 446,154 446,154 446,155 446,155 446,156 446,157 447,158 447,158 447,158 447,158 447,160 448,163 448,163 448,164 448,164 449,165 449,165 450,166 450,166 450,166 451,168 451,168 451,168 451,169 451,170 451,172 451,173 451,174 451,178 451,179 451,183 451,184 451,184 451,184 450,185 450,186 450,186 450,187 451,187 451,187 451,189 451,190 452,191 452,191 453,192 453,193 454,193 454,194 454,194 454,194 454,195 454,195 454,196 454,196 454,196 453,197 453,197 453,197 453,198 453,198 453,199 453,200 453,201 453,202 453,202 453,202 453,203 454,203 454,203 454,204 455,204 455,206 456,206 456,207 456,207 456,207 456,207 456,208 457,208 456,208 456,209 456,209 456,209 457,210 457,211 457,211 458,212 458,212 459,213 460,213 460,213 460,214 460,214 460,214 460,215 460,215 460,216 460,217 460,217 459,218 459,218 459,219 459,219 459,221 459,223 460,223 459,223 459,224 459,224 459,224 459,224 459,225 460,225 460,225 460,225 461,226 461,226 462,226 462,227 462,227 462,228 462,229 462,229 462,229 462,229 462,230 462,230 463,231 463,231 464,232 464,233 465,236 465,236 465,241 465,242 465,243 465,244 465,245 465,245 465,246 465,247 466,247 466,248 466,250 466,251 466,251 466,252 467,252 467,252 467,252 467,252 468,253 468,254 469,255 469,255 469,256 470,257 470,257 470,257 470,257 471,258 471,258 471,258 471,259 471,259 472,259 472,259 472,260 472,260 473,261 473,261 473,262 473,262 473,262 473,262 474,263 474,263 474,263 475,263 475,264 476,264 476,265 477,266 477,266 478,267 479,268 479,268 480,268 482,269 482,269 483,270 483,270 485,271 486,271 487,271 487,272 488,272 489,273 490,273 490,274 493,275 494,276 495,276 495,276 496,277 497,277 497,277 498,278 499,279 499,279 500,279 497,281 497,281 494,281 494,281 492,282 490,282 489,282 487,281 486,281 485,281 483,281 483,281 483,280 483,280 484,279 484,279 482,279 481,279 481,279 480,278 480,277 479,277 479,277 479,277 478,277 477,276 477,276 476,276 475,277 475,276 476,275 477,275 480,275 480,274 481,274 481,274 481,274 482,273 482,273 482,273 481,272 481,272 481,272 479,271 478,271 478,271 477,270 478,270 478,270 477,270 477,269 477,269 476,269 476,269 475,268 475,269 475,269 474,268 474,269 474,268 474,267 474,267 474,266 474,264 475,264 474,264 474,263 473,262 471,261 470,260 470,260 469,261 469,261 468,261 468,261 466,260 465,260 464,260 462,260 462,260 462,260 462,260 462,260 462,260 462,259 462,259 461,259 461,259 460,259 460,259 457,258 455,258 455,259 455,259 455,259 455,259 455,260 455,260 454,260 453,260 453,260 453,260 453,260 453,260 453,260 454,260 455,259 454,258 454,258 454,258 454,257 454,257 454,256 452,256 452,256 452,257 452,257 451,256 451,257 450,257 449,257 449,257 448,257 448,257 448,257 446,259 445,259 445,260 444,260 442,259 442,259 440,258 440,258 439,257 438,257 436,258 435,259 434,259 432,261 432,262 431,262 431,262 429,262 429,262 427,263 426,263 426,263 426,263 426,264 426,264 426,264 427,264 427,265 427,265 428,265 428,265 428,265 428,265 429,266 430,267 430,267 431,268 431,268 433,269 433,269 433,270 433,271 433,271 432,271 431,271 431,271 429,271 428,271 428,271 426,271 426,271 426,271 426,272 426,273 426,274 426,274 426,274 424,274 423,274 422,274 421,274 421,274 419,273 418,273 418,273 418,273 418,273 418,273 418,273 418,272 418,272 418,272 419,272 419,272 419,272 419,272 419,272 417,272 416,272 416,272 416,272 415,271 415,271 415,271 414,271 414,271 413,271 413,271 413,272 412,272 411,273 411,273 411,273 410,273 410,273 410,273 409,273 409,273 409,273 409,273 408,274 408,274 407,274 406,274 406,274 405,274 405,274 404,274 403,273 403,273 403,273 402,274 402,274 402,274 403,274 403,274 403,274 402,275 402,275 402,275 402,275 401,275 401,275 401,275 396,272 396,272 396,272 396,272 396,272 395,272 394,272 393,272 391,272 389,272 388,272 387,271 386,271 386,271 385,271 384,271 382,271 381,271 381,271 381,270 380,269 380,268 380,266 379,265 379,266 378,265 378,266 378,266 378,266 378,266 377,266 377,266 377,266 376,266 376,266 375,266 375,266 375,266 375,266 375,266 375,266 374,266 374,266 374,266 374,266 374,266 374,266 374,266 374,266 374,266 374,266 374,266 372,266 372,266 371,266 370,267 369,267 368,267 368,267 368,267 368,267 367,267 367,267 367,267 366,267 366,267 366,267 366,267 366,267 365,267 365,267 365,267 365,267 364,267 364,267 364,267 364,267 363,267 363,267 363,267 363,267 362,267 362,267 362,267 362,267 362,267 362,267 362,267 362,267 362,267 361,267 361,267 361,267 361,267 360,267 360,267 360,267 360,267 360,267 359,267 359,267 359,267 359,267 359,267 359,267 358,267 358,267 358,267 358,267 357,267 356,267 356,267 356,267 356,267 356,267 355,266 355,266 355,266 354,266 354,266 354,266 354,267 354,267 354,267 354,266 354,266 354,266 354,266 353,266 353,266 353,266 353,266 353,266 353,266 353,266 353,266 353,266 353,266 352,265 352,265 352,265 352,265 352,265 352,265 352,265 352,265 351,265 351,265 351,265 351,265 350,265 350,265 350,265 350,265 350,265 350,264 350,264 350,264 350,264 349,264 349,264 349,264 349,264 349,264 349,263 348,263 347,262 347,262 347,262 347,262 347,262 346,262 346,262 346,262 346,262 346,262 345,262 345,262 346,262 346,262 346,262 345,262 345,262 345,261 345,262 345,261 345,261 344,261 344,261 344,261 344,261 344,261 344,261 344,261 343,261 343,261 343,261 343,261 343,261 343,261 343,261 343,260 343,260 342,261 342,260 342,260 342,260 341,260 341,260 341,261 341,261 341,261 341,261 340,261 340,261 340,261 340,261 340,261 340,261 340,261 340,261 340,261 340,261 340,261 340,260 340,260 340,260 340,260 340,260 339,260 339,260 339,260 338,260 338,260 338,260 336,260 336,260 336,260 336,260 336,260 335,261 335,261 335,261 335,261 335,261 334,261 334,261 334,261 334,261 334,261 334,261 333,261 333,262 333,262 332,262 332,262 332,262 332,262 332,262 332,263 331,263 331,263 331,263 331,263 331,263 331,263 331,263 331,263 331,264 331,264 330,264 330,264 330,264 331,264 331,264 331,264 330,264 330,264 330,264 330,265 330,265 330,265 330,265 330,265 330,265 330,265 330,265 330,265 330,265 330,265 330,265 329,265 329,265 329,265 329,265 329,265 329,265 329,265 328,265 328,266 328,266 328,266 327,266 327,266 327,266 327,266 327,266 327,266 327,266 327,267 327,267 327,267 327,267 327,267 327,267 327,267 327,267 327,267 326,267 326,267 326,267 326,267 326,267 326,267 325,268 324,267 323,267 321,266 320,266 320,266 318,265 318,265 318,265 317,265 316,265 316,265 316,265 315,265 315,265 314,265 314,265 312,265 311,264 310,265 310,264 309,264 309,264 309,264 309,264 308,264 308,263 308,263 308,263 308,263 309,262 309,262 309,262 308,262 308,262 308,262 308,262 308,262 308,263 307,263 307,263 307,263 306,263 306,264 306,264 305,264 305,264 305,264 305,264 305,265 305,265 305,265 305,265 305,265 305,265 305,265 305,265 305,265 305,266 305,266 305,266 305,266 305,266 305,266 305,266 305,266 305,267 305,267 305,267 305,267 305,267 305,267 305,267 306,267 306,267 306,267 306,268 306,268 306,268 306,268 306,268 306,268 306,268 306,268 306,268 305,268 305,268 305,268 305,268 304,268 304,268 304,268 304,268 304,269 304,269 304,269 304,269 304,269 304,269 304,269 304,269 304,269 304,269 304,269 304,269 305,269 305,269 305,269 305,270 305,270 305,270 305,270 305,270 305,270 305,270 305,270 304,270 304,270 304,270 304,270 304,270 304,270 304,270 304,270 304,270 303,270 303,270 303,270 303,270 303,270 303,270 303,270 303,270 302,270 302,270 302,270 302,270 302,270 302,270 302,270 301,270 301,270 301,270 301,270 301,270 301,270 301,270 301,270 301,270 301,270 301,270 301,270 301,270 300,270 300,270 300,270 300,270 300,270 300,270 300,270 299,270 299,271 299,271 299,271 299,271 299,271 299,271 299,271 298,271 298,271 298,271 298,271 298,271 298,271 298,271 298,271 298,271 297,271 297,271 297,271 297,271 297,271 296,271 296,271 296,271 296,271 296,271 296,271 296,271 296,271 296,271 296,271 296,271 296,271 296,271 295,271 295,271 295,271 295,272 295,272 295,272 295,272 295,272 295,272 295,272 295,272 295,272 295,272 295,272 295,272 295,272 294,272 294,272 294,272 294,272 294,272 294,272 294,272 294,272 294,272 294,272 294,272 294,272 293,272 293,272 293,272 293,272 293,272 293,272 293,272 293,272 293,272 293,272 293,272 293,272 292,272 292,272 292,272 292,272 292,272 292,272 292,272 292,272 292,272 292,272 292,272 292,272 292,272 292,272 292,272 292,272 292,272 292,271 292,271 292,271 292,271 292,271 292,271 291,271 291,271 291,271 291,271 291,271 291,271 291,272 291,272 291,272 291,272 291,272 291,272 290,272 290,272 290,272 290,272 290,272 290,272 290,272 290,272 290,272 290,272 290,272 289,272 289,272 289,272 289,272 289,272 289,272 289,272 289,272 289,272 289,272 289,272 289,273 289,273 289,273 289,273 289,273 289,273 289,273 289,272 289,272 289,272 289,272 289,272 289,272 289,272 289,272 288,272 288,272 288,272 288,272 288,272 288,272 288,272 288,272 288,272 288,272 288,272 288,272 288,272 288,272 288,272 288,272 288,272 287,272 287,272 288,272 288,272 288,272 288,272 288,272 288,272 288,272 287,272 287,272 287,272 287,272 287,272 286,272 286,272 286,272 286,272 286,272 285,272 285,272 285,272 284,272 284,272 284,272 284,272 284,272 284,272 283,272 283,272 283,272 283,272 283,272 283,272 283,272 282,272 282,272 282,272 282,272 282,272 282,272 282,272 282,272 282,272 281,272 281,272 281,272 281,272 281,272 281,272 281,272 281,272 280,272 280,272 280,272 280,272 279,272 279,272 279,272 279,272 278,272 278,272 278,272 277,272 277,272 277,272 277,272 276,272 276,272 276,272 275,272 275,272 275,272 274,271 273,271 273,271 273,270 273,270 273,270 273,270 273,270 273,270 273,270 273,270 273,270 273,270 273,270 273,270 273,270 272,270 272,270 272,269 272,269 272,269 272,269 272,269 272,269 272,269 272,269 272,269 272,269 271,269 271,269 271,269 271,269 271,269 270,269 270,269 270,269 270,269 270,269 269,269 269,268 269,268 269,268 268,268 268,268 268,268 268,268 269,268 269,267 269,267 269,267 269,267 269,267 269,267 269,267 269,267 269,267 269,267 269,267 269,267 269,267 269,267 269,267 269,267 269,267 269,267 269,267 269,267 269,266 269,266 269,266 269,266 269,266 269,266 269,266 269,266 268,266 268,266 268,266 268,266 268,266 268,266 268,266 268,266 268,266 268,266 267,266 267,266 267,266 267,266 267,266 266,266 266,266 266,266 266,266 266,265 266,265 266,265 266,265 266,265 266,265 266,265 266,265 266,264 266,264 266,264 266,264 266,264 266,264 266,264 266,264 266,264 266,264 266,264 266,264 266,264 266,264 265,264 265,264 265,264 265,264 265,263 265,263 265,263 265,263 265,263 264,263 264,263 264,263 264,263 264,263 264,263 264,263 263,263 263,263 263,263 263,263 263,263 263,263 263,263 263,263 262,263 262,263 261,263 261,264 261,264 260,264 260,264 260,264 260,264 259,264 259,264 258,264 258,264 258,264 258,264 258,264 258,264 258,264 258,264 258,264 257,263 257,263 257,263 257,263 257,263 257,263 257,263 257,263 257,263 257,263 257,263 257,262 257,262 257,262 257,262 256,262 256,262 256,262 256,262 256,262 255,262 255,262 255,262 255,261 254,261 254,261 254,261 254,261 254,261 254,261 254,261 253,261 253,261 253,260 253,260 253,260 253,260 253,260 252,260 252,260 252,260 251,260 251,260 251,260 251,260 251,260 251,260 251,259 250,259 250,259 250,259 250,259 250,259 249,259 249,259 249,259 249,259 248,259 248,259 248,259 248,259 248,259 248,259 247,259 247,259 247,259 247,259 247,259 247,259 247,258 247,258 248,258 248,258 248,258 248,258 247,258 247,258 247,258 247,258 247,258 246,258 246,258 246,258 246,258 246,258 245,258 245,258 245,258 245,258 245,257 245,257 245,257 244,257 244,257 244,258 244,258 244,258 244,258 244,258 244,257 244,257 244,258 243,258 243,258 243,258 243,258 243,258 243,258 243,258 243,258 243,258 243,258 243,259 243,259 243,259 243,259 243,259 243,259 243,259 243,259 243,259 243,259 243,259 242,259 242,259 242,259 242,259 242,259 242,259 242,259 242,259 242,259 242,259 241,259 241,259 241,259 241,259 241,259 241,259 241,259 241,259 241,260 241,260 241,260 241,260 241,260 241,260 241,260 241,260 240,260 240,260 240,260 240,260 240,260 240,260 240,260 239,260 239,260 239,260 239,260 238,260 238,260 238,260 238,260 238,260 238,260 238,260 238,260 237,260 237,260 236,260 236,260 236,260 236,260 235,260 235,260 235,260 235,260 235,260 235,259 235,259 235,259 235,259 235,259 234,259 234,259 234,260 234,260 234,259 234,259 234,259 234,259 234,259 234,259 234,259 233,259 233,259 233,259 233,259 233,259 233,259 233,259 233,259 233,259 233,259 233,258 233,258 234,258 234,258 234,258 234,258 234,258 234,258 234,258 234,258 234,258 234,258 234,258 234,258 234,258 234,258 234,258 234,258 233,258 233,258 233,257 233,257 234,257 234,257 234,257 234,257 234,257 234,257 234,257 234,257 234,257 233,257 233,257 233,257 233,257 233,257 233,257 233,257 233,257 233,257 233,257 232,257 232,257 232,257 232,257 232,257 232,257 232,257 232,257 232,257 232,257 232,257 232,257 232,257 232,257 232,257 231,257 231,257 231,257 231,257 231,257 231,257 231,257 231,257 231,257 231,257 232,257 232,256 232,256 232,256 231,256 231,256 231,256 231,256 231,256 231,256 231,256 231,256 231,256 231,256 231,256 231,256 231,256 231,256 231,255 231,255 231,255 231,255 231,255 231,255 231,255 231,255 231,255 231,255 231,255 231,255 231,255 231,255 231,255 231,254 231,254 231,254 231,254 230,254 230,254 230,254 230,254 230,254 230,254 229,254 229,254 229,254 229,254 229,254 229,254 229,254 229,254 229,253 229,253 229,253 229,253 229,253 229,253 229,253 229,252 228,252 228,252 228,252 228,252 227,252 227,252 227,252 227,252 227,252 226,252 226,252 226,252 226,251 226,251 226,251 226,251 226,251 226,251 226,251 225,251 225,251 225,251 224,251 224,251 224,251 224,251 224,251 224,251 223,251 223,251 223,251 223,251 223,251 223,251 223,251 223,251 223,251 223,251 223,251 223,251 223,251 223,251 222,251 222,251 222,251 222,251 222,251 222,251 222,252 222,252 222,252 222,252 222,252 221,252 221,252 221,252 221,252 221,252 221,252 221,251 221,251 221,251 220,251 220,251 220,251 220,251 219,251 219,251 219,251 219,251 219,251 218,251 218,251 218,251 218,251 218,251 218,251 218,251 218,251 218,251 218,251 218,251 217,251 217,251 217,251 217,251 217,251 217,251 217,251 216,250 216,250 216,250 216,250 216,250 216,250 216,250 216,250 216,250 216,250 216,250 216,250 216,250 216,250 216,249 216,249 216,249 216,249 217,249 217,249 216,249 216,249 216,249 216,248 216,248 215,248 215,248 215,248 215,248 215,249 214,249 214,249 214,248 214,248 214,248 214,248 214,248 214,248 213,248 213,248 213,248 213,247 213,247 213,247 212,247 212,247 212,246 212,246 212,246 212,246 212,246 212,246 212,246 212,246 212,246 212,246 212,245 212,245 212,245 212,245 212,245 212,244 211,244 211,244 211,243 210,243 210,243 210,243 210,243 209,243 209,243 208,243 208,243 208,243 208,242 207,242 207,242 207,242 207,242 207,242 206,242 206,242 206,242 206,242 206,242 206,242 206,242 205,242 205,242 205,242 205,242 205,243 205,243 204,243 204,243 204,243 203,243 203,242 203,242 203,242 203,243 202,243 202,243 202,243 201,243 201,243 201,243 201,243 201,243 201,243 201,243 201,243 201,243 201,243 201,243 200,243 200,243 200,243 200,243 200,243 199,243 199,243 199,243 199,243 199,243 199,243 199,243 199,243 199,243 199,243 199,243 199,243 198,243 198,243 198,243 198,243 198,243 198,243 198,243 198,243 198,243 198,243 198,244 198,244 197,244 197,243 197,243 197,243 197,243 196,243 196,243 196,243 196,243 196,243 196,243 196,243 196,243 195,243 195,243 195,243 195,243 195,243 195,242 195,242 195,242 195,242 195,242 195,242 195,242 195,242 195,242 195,241 195,241 195,241 195,241 195,241 195,241 195,241 195,241 195,241 195,240 194,240 194,240 194,240 194,240 194,240 193,240 193,240 193,240 193,240 193,240 193,240 193,240 193,240 193,239 193,239 193,239 193,239 193,239 193,239 193,238 193,238 193,238 193,238 193,238 193,238 192,238 192,238 192,238 192,238 192,237 192,237 192,237 192,237 192,237 192,237 192,237 192,237 192,237 192,237 192,237 192,237 191,236 191,236 191,236 190,236 190,236 190,236 190,236 190,237 189,237 189,237 189,237 189,237 189,237 188,237 188,237 188,237 188,237 188,237 188,237 188,237 188,237 188,237 188,237 187,237 187,237 187,237 187,237 187,237 186,237 186,237 186,237 186,237 186,237 185,237 185,237 185,237 185,238 185,238 185,238 185,238 184,238 184,238 184,238 183,238 183,238 183,237 183,237 183,237 183,237 182,237 182,237 182,237 182,237 182,237 182,237 182,237 182,238 182,238 182,238 181,238 181,238 181,238 181,238 181,238 181,238 180,238 180,238 180,238 180,238 180,238 180,238 180,238 180,238 179,238 179,239 179,239 179,239 179,239 179,239 179,239 179,239 179,239 178,239 178,239 178,239 178,238 178,238 177,238 177,238 177,238 177,238 177,238 177,238 176,238 176,238 176,238 176,238 176,238 176,238 176,238 175,238 175,239 175,239 175,239 175,239 175,239 175,240 174,240 174,240 174,240 174,241 174,241 174,241 173,241 173,241 173,242 173,242 172,242 172,242 172,243 172,243 172,243 171,243 171,244 170,245 170,245 170,245 169,245 166,245 166,245 166,245 166,245 166,245 166,246 166,246 167,246 167,246 167,247 167,247 167,247 167,248 167,249 167,249 167,249 168,249 168,249 168,249 168,249 167,250 167,251 167,251 167,251 167,251 167,251 167,251 161,251 161,252 161,252 161,252 162,253 162,253 164,253 164,253 164,253 164,254 164,254 163,254 163,254 162,254 162,254 161,255 161,255 161,255 161,256 161,256 160,258 160,258 162,259 162,259 162,260 163,261 162,262 162,263 162,263 162,264 162,264 161,264 161,264 161,264 161,264 161,264 160,264 160,264 160,264 160,263 160,264 159,264 159,264 159,264 158,264 158,264 158,263 158,263 158,263 157,263 157,263 157,263 157,263 157,263 156,263 156,263 156,263 156,263 156,264 156,264 156,264 156,264 156,264 156,264 156,264 156,264 155,264 155,265 154,265 154,265 155,265 153,266 153,267 152,267 151,268 151,268 151,268 151,268 150,268 149,269 149,269 147,269 147,269 143,267 142,267 139,267 139,267 138,267 138,267 137,268 137,268 136,269 136,269 137,269 139,271 139,272 140,273 141,274 142,275 142,275 142,276 142,276 141,276 141,276 141,276 141,276 141,276 140,276 140,276 140,277 140,277 140,277 140,277 140,277 140,277 140,277 139,277 139,277 139,277 139,277 139,277 139,277 139,277 138,277 138,277 138,277 138,278 138,277 138,278 138,278 138,278 138,278 138,278 138,278 138,278 138,278 137,278 137,278 137,278 137,278 137,278 136,278 136,278 136,278 134,278 134,278 134,278 134,278 134,278 133,278 133,278 133,278 133,278 132,278 132,278 132,278 132,278 132,278 131,278 131,278 130,278 129,278 129,278 129,279 129,279 127,279 125,280 124,280 122,280 117,281 113,282 109,282 109,282 107,282 106,282 105,282 105,282 104,282 100,282 100,282 99,283 96,283 96,283 95,283 95,283 94,284 93,284 92,284 90,284 90,284 89,283 89,284 89,284 89,284 88,284 88,284 88,284 88,285 88,285 89,285 89,286 89,286 89,286 89,286 88,286 88,287 88,287 87,287 87,287 87,287 87,287 85,288 84,288 84,289 84,289 83,289 83,289 80,289 80,289 79,290 79,290 78,290 78,289 78,288 78,288 79,288 79,288 80,288 79,287 79,287 79,286 78,286 78,286 78,286 78,286 78,286 78,286 78,287 78,287 77,287 77,286 77,286 77,286 76,286 76,286 76,286 76,286 76,286 76,286 76,286 75,285 75,285 74,285 74,285 74,285 75,285 75,284 75,284 75,284 74,284 74,283 74,283 74,283 74,283 73,283 72,282 72,282 72,283 71,283 71,283 70,283 67,283 67,282 67,282 67,281 67,280 67,280 67,280 67,280 67,280 67,280 67,280 67,280 67,279 67,279 67,279 67,279 66,279 66,279 66,278 65,278 65,278 65,276 66,276 65,275 65,275 65,275 63,274 62,273 62,273 61,273 60,273 60,273 60,272 60,272 60,272 60,272 60,272 59,272 58,272 58,272 58,271 59,270 59,269 59,269 58,269 58,269 58,269 58,269 58,269 58,269 57,269 57,269 56,268 56,268 56,268 56,268 56,267 56,267 56,267 57,267 57,267 58,267 58,267 59,267 60,268 61,268 61,267 61,267 61,267 61,267 61,266 61,266 61,266 62,266 62,266 62,265 63,265 63,264 63,264 62,263 63,262 63,262 63,262 64,261 67,261 67,261 68,261 68,261 68,260 68,260 68,259 68,259 68,258 68,258 68,258 68,257 68,257 69,257 69,257 69,256 69,256 70,256 70,255 70,255 71,254 71,254 71,254 71,254 71,253 71,253 71,253 71,253 72,253 72,253 72,252 72,252 73,252 74,252 74,252 74,252 74,252 74,252 74,252 75,251 75,251 75,251 75,251 78,251 78,251 79,251 80,251 80,250 80,250 80,250 79,250 79,249 79,249 79,249 80,248 80,248 80,248 80,248 81,248 81,248 81,248 81,247 81,247 81,247 81,247 81,246 81,246 81,246 81,246 81,246 82,246 82,245 82,245 82,245 83,244 82,244 83,244 83,244 83,244 83,244 83,243 83,243 83,243 83,243 84,242 84,242 84,242 84,242 84,242 84,241 84,241 84,241 84,241 84,241 83,241 82,240 82,240 82,240 82,240 81,240 81,240 81,240 80,239 80,239 80,238 81,237 80,237 79,236 78,236 78,236 77,236 76,236 76,235 75,234 75,233 74,232 74,232 73,232 73,232 72,230 72,229 72,229 72,229 73,229 74,228 74,228 74,228 75,227 75,227 76,227 76,227 76,227 76,227 76,227 77,227 77,226 77,226 77,226 77,225 77,226 78,226 79,225 81,225 82,225 82,225 83,225 83,225 83,225 84,225 84,225 84,225 84,225 84,225 85,224 85,224 85,224 85,223 86,223 86,222 86,222 86,222 86,222 86,222 86,222 86,221 85,221 85,220 85,220 85,220 85,219 86,218 86,218 86,218 86,218 87,218 87,218 87,217 87,217 87,217 87,217 87,217 87,217 87,216 88,216 88,216 88,216 89,217 89,217 89,217 90,217 90,216 90,216 91,216 92,216 92,215 92,215 92,215 92,215 93,215 93,214 93,214 93,214 93,214 94,214 94,214 95,214 95,214 96,214 96,214 96,214 96,213 97,213 97,213 97,213 97,213 98,213 98,213 98,213 99,213 99,213 99,214 99,214 99,214 99,214 99,214 99,214 100,215 101,215 102,215 102,215 102,215 102,215 103,215 103,215 103,215 104,215 105,215 105,215 105,215 105,215 106,215 106,215 106,215 107,215 107,215 107,215 108,216 109,217 109,217 110,217 110,217 111,217 111,217 112,217 112,217 113,218 114,218 115,217 115,217 115,218 116,218 116,218 117,217 117,217 117,217 117,217 118,217 118,216 118,216 118,216 118,216 118,216 118,216 119,216 119,216 120,216 120,216 120,216 120,216 119,215 118,215 118,215 118,215 117,214 117,214 117,214 117,214 117,214 117,214 118,214 118,214 118,214 118,213 119,213 119,213 119,213 119,213 119,213 119,213 118,213 118,213 118,213 118,213 118,213 118,213 118,213 118,212 118,212 118,212 118,212 118,212 118,212 118,212 118,212 118,212 118,212 118,211 118,211 119,211 119,211 119,211 119,210 119,210 119,210 119,210 119,210 120,210 120,210 120,210 120,209 120,209 120,209 120,209 120,209 120,209 119,209 119,209 119,209 119,209 119,209 119,209 119,209 119,209 119,209 119,209 119,209 118,209 118,208 117,208 117,208 117,208 117,208 117,208 117,208 116,208 116,208 116,208 116,208 116,208 116,208 116,208 116,208 115,207 115,207 115,207 115,207 114,206 114,206 114,206 114,206 114,206 114,206 114,206 114,206 114,205 114,206 114,206 113,206 113,205 113,205 113,205 113,205 113,205 113,205 113,206 113,206 112,206 112,205 112,205 112,205 111,205 111,205 111,205 110,205 110,205 110,204 110,204 110,204 110,204 109,204 109,204 109,204 109,204 109,204 108,204 109,204 109,203 109,203 108,203 108,203 108,203 108,203 107,203 107,203 107,202 107,202 106,203 106,203 106,203 106,202 106,202 106,202 106,202 106,202 106,202 105,202 105,202 105,202 105,202 105,202 105,202 105,202 105,202 104,202 104,202 104,202 104,202 104,202 104,202 104,202 104,202 103,202 103,202 103,202 103,202 103,202 102,202 102,202 102,201 102,201 102,201 102,201 102,201 102,201 102,201 102,201 102,201 101,201 101,201 101,201 101,201 101,201 100,201 100,201 100,201 100,201 100,200 100,200 100,200 100,200 100,200 100,200 100,200 100,200 100,200 99,200 99,200 99,200 99,200 99,200 99,200 99,200 99,199 99,199 99,199 99,199 99,199 99,199 99,198 99,198 99,198 98,198 98,198 97,198 97,198 96,198 96,198 96,198 96,198 96,198 96,198 96,198 96,197 95,197 95,197 95,197 95,197 95,197 95,197 95,197 95,197 95,197 94,197 94,197 94,197 94,197 94,197 94,197 93,197 93,197 93,197 93,197 93,197 92,197 92,197 92,197 92,197 91,197 91,197 91,196 91,196 91,196 91,196 90,196 90,196 90,196 90,196 90,196 89,196 89,196 89,196 89,196 89,196 88,196 88,196 88,196 88,196 88,196 87,195 87,195 87,195 87,195 87,195 86,195 86,195 86,195 85,195 86,195 85,195 85,195 85,195 85,194 85,194 85,194 84,194 84,194 84,194 84,194 83,194 83,194 83,194 81,194 81,194 81,194 81,194 81,194 81,194 81,194 80,194 80,194 79,194 79,194 79,194 79,194 79,194 79,194 79,194 79,194 79,194 79,194 79,194 78,194 78,194 78,194 78,194 78,194 78,194 78,193 77,193 77,193 75,193 74,193 74,193 73,193 73,193 73,193 73,193 72,193 72,193 72,193 72,193 72,194 72,194 71,194 71,194 69,194 68,195 68,195 68,195 67,195 67,195 68,195 67,195 66,195 63,195 63,195 62,195 61,195 61,195 59,195 58,195 58,195 57,194 56,194 55,194 55,194 55,194 55,193 55,193 54,193 54,194 54,194 54,194 49,193 48,193 48,193 45,192 43,192 41,192 40,192 39,192 38,192 38,192 38,192 37,190 37,186 37,186 37,186 35,188 33,188 31,188 31,188 31,187 31,187 31,186 31,185 31,185 31,185 31,185 32,184 31,184 33,182 29,181 29,181 29,181 28,181 28,181 28,182 28,182 28,183 28,183 28,183 27,184 27,184 28,184 28,185 26,185 26,186 26,186 25,186 25,186 24,186 23,186 23,186 23,186 23,186 22,186 22,186 22,186 21,186 21,186 21,186 20,186 20,186 20,186 20,185 20,185 20,185 20,185 20,184 20,184 20,184 20,184 20,184 19,183 19,184 19,184 19,184 18,183 18,183 18,183 17,183 17,183 17,183 16,182 16,182 16,182 16,182 16,182 15,181 15,181 15,181 14,180 14,180 12,179 11,179 11,179 11,179 11,178 10,178 10,178 9,178 9,178 7,177 7,177 6,177 5,176 5,176 5,176 5,176 5,176 5,176 5,176 5,176 5,176 4,176 4,175 4,175 4,175 4,175 4,175 4,175 4,175 4,175 3,175 3,174 3,174 3,174 3,174 3,174 3,174 3,174 2,174 2,174 2,174 2,173 2,173 2,173 2,173 2,173 1,173 1,173 1,173 1,172 1,172 1,172 1,172 1,172 1,172 0,172 0,172 0,171 0,171 0,171 0,170 0,170 0,170 0,170 1,170 1,169 1,169 1,169 1,169 1,168 1,168 1,168 1,168 1,168 1,167 2,167 2,167 2,167 2,167 2,166 2,166 2,166 2,165 3,165 5,162 8,157 9,157 9,156 8,155 8,154 9,153 9,152 10,151 13,152 20,155 21,154 21,153 22,151 22,151 23,150 23,150 23,149 23,149 23,149 23,149 23,148 23,148 23,148 23,148 22,148 22,148 22,148 23,148 23,147 23,147 23,147 23,147 23,146 23,146 23,146 23,146 23,146 23,146 23,146 24,145 24,145 24,145 24,145 24,145 24,145 25,145 25,145 25,145 25,145 25,145 25,145 25,145 25,145 26,145 26,145 26,145 26,144 26,144 26,144 26,144 26,144 26,144 26,144 26,144 26,143 26,143 26,143 27,143 27,143 27,143 27,142 27,142 27,142 28,142 28,142 28,142 28,142 28,142 28,142 28,142 28,142 28,142 28,142 28,142 29,142 29,142 30,142 30,142 30,142 30,142 30,142 32,142 33,142 33,143 34,143 34,143 34,143 34,143 35,143 35,143 35,143 35,143 35,143 36,143 36,143 36,143 36,143 37,143 37,143 37,143 37,143 38,143 39,143 39,143 39,143 40,143 41,143 41,142 42,142 42,142 42,142 43,141 43,141 44,141 44,140 44,140 45,140 45,139 45,139 45,139 45,139 45,139 45,139 45,139 45,139 45,138 46,138 46,138 46,138 46,137 46,137 46,137 46,137 46,137 46,137 46,137 46,137 46,137 46,137 46,137 46,137 46,137 46,137 46,136 46,136 46,136 45,136 45,136 45,136 45,136 45,136 45,136 45,136 45,136 45,136 45,136 45,136 45,135 45,135 45,135 45,135 45,135 45,135 45,135 44,135 44,135 44,135 44,135 44,135 44,135 44,135 44,135 44,135 44,135 44,135 44,135 44,135 44,135 44,135 43,135 43,135 43,135 43,135 43,134 43,134 42,134 42,134 42,133 42,133 42,133 42,133 42,133 42,133 42,132 42,132 42,132 42,132 42,132 42,132 42,132 42,132 42,132 42,132 42,132 42,131 42,131 42,131 42,131 41,131 41,131 41,131 41,131 41,131 41,131 41,131 41,131 40,131 40,130 40,130 40,130 40,130 40,130 40,130 40,130 39,129 39,129 39,129 38,128 38,128 38,128 37,127 37,127 37,127 37,127 37,127 37,126 37,126 37,126 37,126 37,126 37,126 37,126 37,125 37,125 37,125 37,125 37,125 37,125 37,125 36,125 36,125 36,125 36,125 36,125 36,125 36,125 36,125 36,125 36,124 35,124 36,124 36,124 36,124 36,124 36,124 36,124 36,123 36,123 36,123 36,123 35,123 35,123 35,122 35,122 35,122 35,122 35,122 35,122 35,122 35,122 35,122 35,122 35,122 35,122 35,122 35,122 35,122 35,121 35,121 35,121 36,120 37,120 37,120 37,120 38,119 38,119 38,119 38,119 39,119 39,119 39,119 39,119 39,118 39,118 38,118 38,118 38,118 38,118 38,118 39,117 39,117 39,117 39,117 39,116 40,116 40,116 40,116 40,115 40,115 41,115 40,115 40,115 41,115 41,115 41,115 40,114 39,114 39,114 39,113 39,113 39,113 39,112 39,112 39,112 40,112 40,112 40,112 40,111 40,110 40,110 40,110 40,108 39,108 39,108 39,108 38,108 38,107 38,107 38,107 38,107 38,107 38,107 38,106 38,106 38,105 39,106 39,106 39,106 40,106 40,106 40,106 40,106 41,106 41,106 41,106 41,106 41,105 41,105 41,105 41,105 41,105 42,104 42,104 42,104 42,104 42,104 42,104 43,104 43,103 43,103 43,103 43,103 43,103 44,103 44,103 44,103 45,103 45,103 45,103 46,103 46,103 46,103 46,104 46,104 46,104 47,104 47,104 47,104 48,104 48,104 49,104 49,103 50,103 50,103 50,103 50,103 50,102 50,102 50,102 51,102 51,102 51,101 51,101 51,101 51,101 52,101 52,100 52,100 52,100 53,100 53,100 54,100 54,100 54,100 53,99 53,99 53,99 53,99 53,99 53,99 53,99 53,99 53,98 53,98 53,98 53,98 52,98 52,98 52,98 52,98 52,98 51,98 51,98 51,98 50,98 50,98 50,98 50,98 50,98 49,98 49,98 49,98 49,98 49,98 49,98 49,98 49,98 48,98 48,98 48,98 48,98 48,98 47,98 47,98 47,98 47,98 46,97" id="3527" class="canton" fill="steelblue" stroke-width="1" stroke="white" geotype="canton" geoname="Vitr" code_insee="3527" code_departement="35" nom_departement="Ille-et-Vilaine" code_region="53" nom_region="Bretagne"/></svg>