<?xml version="1.0" encoding="utf-8"?>
<svg version="1.1" id="svgmap" xmlns="http://www.w3.org/2000/svg" xmlns:xlink="http://www.w3.org/1999/xlink" x="0px" y="0px" width="100%" height="100%" viewBox="0 0 500 401">
<polygon points="5,63 16,62 20,61 20,61 20,61 24,62 24,62 23,58 23,57 20,53 20,53 19,51 18,50 17,49 17,49 17,48 17,48 16,48 15,47 15,47 14,47 14,47 14,47 14,47 13,47 13,47 13,46 12,46 12,46 12,46 12,46 12,45 11,45 11,45 11,44 11,44 11,43 11,43 11,43 12,43 12,42 12,42 13,41 13,41 14,40 14,40 14,40 14,40 14,39 14,39 14,39 14,39 13,38 13,38 13,38 14,37 13,37 13,36 13,36 14,36 14,35 14,35 14,34 14,34 14,34 14,34 14,33 14,33 14,33 14,32 14,32 14,32 14,31 15,32 15,32 15,32 16,32 16,32 17,32 18,33 18,33 19,33 19,33 19,33 20,32 20,32 20,32 20,32 21,32 21,32 21,32 22,32 23,31 24,30 24,30 24,30 24,28 23,27 23,27 23,27 23,27 23,27 22,27 22,27 21,26 20,26 20,25 20,25 19,25 19,25 19,25 18,25 18,24 17,24 17,24 17,24 17,24 16,23 16,23 16,22 15,22 15,22 14,21 14,21 14,21 15,21 15,21 15,21 16,21 16,21 16,21 17,21 17,21 17,21 18,21 18,20 18,20 18,20 18,20 19,20 19,20 19,20 19,20 19,20 19,20 19,20 20,20 20,20 20,20 20,20 20,20 20,20 20,20 20,20 20,20 20,20 20,20 20,20 20,20 21,20 21,20 21,20 21,19 21,19 21,19 21,19 22,19 22,19 22,19 22,19 22,19 22,19 23,19 23,19 23,19 23,19 23,19 23,19 24,19 24,19 24,19 24,19 24,19 25,18 25,19 25,19 25,19 25,18 25,18 25,18 25,18 25,18 26,18 26,18 26,18 26,18 26,18 26,18 26,18 27,18 27,18 27,18 27,18 27,18 27,18 27,18 27,18 28,18 28,18 28,18 28,18 28,19 29,19 29,19 29,19 29,19 29,19 30,19 30,19 30,18 31,18 31,18 31,18 31,17 32,17 32,17 33,17 33,17 34,16 34,16 34,16 34,16 35,16 35,16 35,16 35,16 36,15 36,15 36,15 36,15 36,15 36,15 37,15 37,15 37,14 37,14 38,14 38,14 39,13 39,13 39,13 39,13 39,13 39,13 40,12 40,12 40,12 40,11 40,11 40,11 40,11 40,10 40,10 41,10 41,10 41,10 41,10 41,10 42,10 42,10 42,10 42,10 42,9 42,9 43,9 43,9 43,9 43,9 43,9 43,8 43,8 43,8 43,8 44,8 44,8 44,8 45,7 45,7 45,7 46,7 46,7 46,7 46,7 47,7 47,7 47,6 47,6 47,6 48,6 48,6 48,6 48,6 49,5 49,5 49,5 50,5 50,5 51,5 51,4 52,4 53,4 54,4 54,4 54,4 60,3 63,2 66,1 68,0 68,0 70,1 70,1 70,1 70,2 70,2 69,2 69,2 69,2 69,2 68,2 68,3 67,3 65,3 65,3 64,4 63,4 63,4 63,4 64,5 64,5 65,6 66,6 66,6 67,6 68,6 68,6 68,6 68,6 67,9 67,9 71,12 72,12 73,14 73,15 73,15 73,15 72,15 72,15 72,15 72,16 74,16 74,16 74,18 74,18 74,19 75,19 76,19 76,19 76,19 76,19 76,19 77,20 77,20 77,20 77,20 77,20 77,20 78,20 78,20 78,20 79,20 79,20 79,21 79,21 80,21 80,21 81,21 81,21 81,22 81,22 81,22 80,22 80,22 80,22 80,22 80,22 80,22 81,22 81,23 81,23 82,23 82,23 82,24 82,24 82,24 82,24 82,24 83,24 83,24 83,24 83,24 83,24 84,24 84,24 84,24 84,25 85,25 85,25 85,25 85,25 85,25 85,25 86,25 86,25 86,25 87,25 87,25 88,25 88,25 89,25 90,25 90,25 91,25 91,25 91,25 91,26 91,26 91,26 91,26 91,26 92,26 92,26 92,26 93,26 94,28 94,28 94,28 94,28 94,28 94,29 94,29 94,29 94,29 94,29 94,29 95,29 95,29 95,29 96,29 96,29 97,30 97,30 97,31 97,31 97,31 97,32 97,32 97,33 97,33 97,34 98,34 98,34 97,34 97,34 96,35 96,35 95,36 95,36 95,37 94,37 94,37 94,38 94,38 93,38 93,38 93,38 92,39 92,39 92,39 93,40 93,40 93,40 93,41 93,41 93,41 93,41 93,41 93,41 93,41 93,42 93,42 93,42 93,43 92,43 92,43 92,43 92,43 92,43 92,43 92,46 92,47 92,47 91,51 91,51 92,51 92,51 91,53 91,53 92,53 92,53 92,53 92,53 93,54 93,54 94,54 95,54 96,54 97,54 97,54 97,55 96,56 96,56 96,57 96,57 95,57 95,57 94,57 94,57 93,59 92,59 91,58 91,58 91,58 90,58 90,58 89,58 89,58 89,58 89,59 89,59 89,59 89,59 89,60 89,60 89,60 89,61 89,61 90,62 90,62 90,63 90,64 91,64 92,64 94,64 95,64 96,63 97,63 99,62 99,62 102,61 105,60 111,60 113,66 114,70 114,70 114,71 114,71 115,72 114,72 114,72 114,72 113,73 112,73 110,74 109,74 108,75 107,76 103,78 101,78 100,78 101,79 102,81 103,84 103,84 103,84 104,84 104,84 104,83 104,83 105,83 105,83 106,83 106,83 106,83 106,83 107,82 107,82 108,83 108,82 109,82 110,82 110,82 110,82 111,82 111,82 111,82 112,82 113,82 113,82 114,82 114,82 114,83 115,83 115,83 115,83 116,83 117,83 117,83 118,84 118,84 119,83 119,83 119,83 120,83 120,83 120,83 121,83 121,83 122,83 122,83 122,83 122,83 127,83 129,85 129,86 130,86 130,87 130,87 130,87 131,88 131,88 132,88 132,88 133,89 133,89 133,89 133,89 134,89 134,89 135,89 135,89 135,89 135,89 135,89 135,88 135,88 136,88 136,88 136,89 137,89 137,89 138,89 138,89 138,89 139,89 139,89 139,89 139,89 140,89 140,89 140,89 141,89 141,89 141,89 141,89 142,89 142,89 143,90 143,90 143,91 143,91 143,92 143,92 143,92 144,93 144,93 144,93 144,93 144,93 144,93 144,94 145,94 145,94 145,94 145,94 145,94 145,95 146,95 146,95 146,95 147,95 147,95 148,95 148,95 148,95 149,95 149,96 149,95 149,96 150,96 150,96 150,96 151,95 151,95 151,94 151,94 152,94 152,94 152,93 153,93 153,93 153,92 154,92 154,92 154,92 154,91 155,91 155,90 156,90 156,90 157,90 157,89 157,89 157,89 159,87 159,87 160,86 160,86 160,85 160,85 160,85 160,84 160,84 160,83 160,83 161,83 161,82 161,82 161,81 161,81 161,80 161,80 161,79 162,78 162,78 162,77 163,77 165,76 165,76 166,74 167,73 170,71 172,70 172,70 171,67 171,66 171,66 171,64 171,61 171,56 171,55 171,55 170,55 170,54 170,54 170,54 171,54 171,53 170,52 173,51 174,50 175,50 175,50 175,50 175,50 176,51 177,51 178,51 179,51 179,51 179,51 179,51 180,51 181,51 180,50 181,49 181,49 181,49 181,49 182,48 182,48 182,47 182,47 184,46 184,46 186,46 186,46 186,46 188,45 190,45 190,45 190,45 191,45 191,45 194,46 194,46 194,46 194,46 195,46 195,46 195,46 196,46 196,46 196,46 196,46 196,46 196,46 196,46 197,46 198,46 198,45 198,45 198,45 200,45 200,45 200,45 201,45 202,45 204,45 203,44 204,43 206,43 206,43 207,44 208,43 210,42 211,42 210,40 211,40 211,41 212,41 213,41 215,41 216,41 217,41 217,41 218,41 219,41 220,41 221,41 222,41 222,41 223,41 224,41 225,41 225,41 225,41 226,41 226,40 227,40 227,40 227,39 230,40 230,40 230,40 230,40 231,40 231,40 232,40 232,40 233,40 234,41 235,40 236,40 236,40 237,40 238,40 239,40 241,39 241,40 242,41 241,41 240,42 240,42 241,42 241,42 241,42 241,42 241,42 241,42 242,42 242,42 242,42 243,43 243,43 243,43 243,43 242,43 242,44 243,44 243,44 243,44 244,44 244,44 244,44 244,43 244,43 244,43 244,44 244,44 245,44 245,44 245,44 245,44 245,44 245,44 245,44 245,44 245,44 245,44 245,43 246,43 246,43 246,43 246,43 246,43 247,43 247,43 247,43 250,44 250,44 253,44 253,44 253,44 253,44 256,48 256,48 256,48 256,48 257,48 257,48 257,48 257,48 257,48 257,48 258,48 258,48 263,47 264,48 264,49 264,49 265,49 265,49 265,49 265,49 265,49 265,49 265,49 265,49 265,49 265,49 266,49 266,49 266,49 266,49 266,49 266,49 266,49 266,49 266,49 266,49 266,49 266,49 266,49 266,49 266,49 266,49 266,49 266,49 266,49 266,49 266,49 266,49 266,49 266,49 266,49 267,49 267,49 267,49 267,49 267,49 267,49 267,49 267,49 267,49 267,49 267,49 267,49 267,49 267,49 267,49 267,49 267,49 267,49 267,49 267,49 267,49 267,49 267,49 267,49 267,49 267,49 267,49 267,49 267,49 268,49 268,49 268,49 268,49 268,49 268,49 268,49 268,49 268,49 268,50 268,50 268,50 269,50 269,50 269,50 269,50 269,50 269,50 269,50 269,50 269,50 269,50 269,50 269,50 269,50 269,50 270,50 270,50 270,49 270,49 270,50 270,50 270,50 270,50 270,50 270,50 270,50 270,50 270,50 270,50 270,50 271,50 270,50 271,50 271,50 271,50 271,50 271,50 271,50 271,50 271,50 271,50 271,50 271,50 271,50 271,50 271,50 271,50 271,50 271,50 271,50 271,50 271,51 271,51 272,50 272,51 272,51 272,51 272,51 272,50 272,50 272,51 272,51 272,51 272,51 272,51 272,51 273,51 274,53 273,53 273,53 273,54 273,55 275,56 275,55 276,56 277,56 278,57 278,57 277,57 275,58 277,59 280,60 280,60 281,61 281,62 280,63 281,63 282,64 283,64 284,64 285,63 286,63 287,63 288,65 287,65 289,66 289,67 289,67 289,69 290,69 293,69 295,70 296,70 298,70 298,70 299,70 300,70 300,71 300,71 301,71 301,72 301,72 302,72 302,72 302,72 302,72 302,72 303,73 303,73 303,73 304,73 304,73 304,73 304,73 304,73 303,74 303,74 302,74 302,74 301,75 301,75 301,75 301,75 301,75 301,76 301,76 301,77 302,77 302,77 301,77 301,77 303,78 303,78 305,77 305,76 305,76 305,74 305,74 305,73 305,73 305,73 305,73 305,73 306,73 307,74 307,74 308,74 309,74 309,74 310,74 310,75 310,75 310,75 310,75 310,75 310,75 310,76 311,76 311,76 313,76 313,76 315,77 315,77 314,78 314,78 315,79 315,80 315,80 315,81 315,82 316,83 316,83 318,86 318,87 318,87 317,87 317,87 317,87 317,88 317,88 316,89 316,89 317,90 317,91 318,92 319,94 319,94 320,96 320,96 320,96 320,96 320,96 320,96 320,96 321,96 321,95 322,96 322,96 323,96 323,96 326,98 327,98 327,98 328,98 328,98 329,99 329,99 329,99 329,99 329,99 329,100 329,100 335,103 335,103 335,104 335,104 335,104 335,104 334,105 334,105 334,105 335,105 335,106 335,106 335,106 335,106 335,107 335,107 335,107 334,107 334,107 334,108 333,108 333,108 333,108 333,108 333,108 333,109 332,109 332,109 332,109 331,109 331,109 332,109 332,110 332,110 332,110 332,110 332,111 332,111 332,112 332,113 332,113 333,113 333,114 333,114 334,114 334,114 334,115 334,115 335,115 335,115 335,115 335,115 335,115 336,115 337,116 337,116 337,116 337,116 337,116 337,116 337,116 336,117 336,118 336,118 336,118 337,119 335,119 335,120 335,120 335,125 335,125 337,125 337,125 337,125 338,125 338,125 338,125 337,126 337,126 337,126 337,127 337,127 336,127 335,127 335,127 333,128 333,128 332,128 332,128 332,128 335,131 335,131 335,131 335,131 336,131 336,132 337,132 337,132 337,132 338,132 338,132 338,131 339,131 340,130 341,129 341,129 341,129 341,129 342,130 342,130 343,130 344,129 344,129 344,129 344,129 345,129 345,129 345,129 347,129 347,129 347,129 347,129 348,129 349,130 349,130 349,130 349,130 349,130 349,130 350,130 351,133 364,133 364,133 364,133 365,133 364,134 364,135 365,135 365,136 365,136 365,136 365,137 365,137 365,138 365,138 362,139 359,140 352,144 352,144 353,144 353,144 353,145 353,145 352,145 352,145 352,145 352,145 351,145 351,145 353,149 354,151 356,152 356,152 357,153 358,153 358,153 358,152 358,152 360,153 362,153 362,154 372,156 372,156 372,155 373,155 373,155 374,155 374,155 374,155 376,155 376,155 377,155 380,155 380,155 380,156 380,156 380,156 380,156 380,156 382,157 382,157 384,157 384,157 384,156 384,156 384,156 384,156 388,157 388,157 388,157 388,157 389,155 392,152 392,152 400,152 410,152 410,152 410,154 410,154 408,154 406,153 406,153 405,154 404,154 404,154 403,154 403,154 402,154 401,155 401,155 401,155 401,155 401,155 401,156 401,156 401,156 402,157 402,157 402,158 402,158 402,158 402,159 402,159 402,159 403,159 403,159 403,160 402,161 403,161 403,161 403,161 403,162 403,163 404,163 404,164 404,164 404,164 404,164 404,165 405,165 405,166 405,166 405,166 405,166 405,166 405,166 404,167 404,167 404,167 403,167 403,167 403,167 403,167 403,168 404,168 404,169 404,169 404,169 403,169 403,169 403,169 403,170 403,170 403,170 402,170 402,170 402,170 401,171 401,171 401,171 401,171 400,171 400,171 400,172 400,172 400,172 400,172 400,172 400,173 399,175 399,175 399,176 399,176 399,178 399,178 399,178 398,179 398,179 398,180 399,180 399,181 399,181 399,183 399,184 399,185 399,186 399,186 399,187 399,187 399,187 399,188 399,188 399,188 400,188 400,188 400,189 401,190 402,191 402,191 403,192 404,192 405,193 406,193 406,193 406,193 407,193 407,193 407,193 407,194 408,195 409,195 409,195 410,196 411,197 413,197 413,197 414,197 415,198 415,198 415,198 415,198 415,198 415,198 415,199 415,199 416,199 416,200 417,200 418,201 418,201 418,201 419,202 419,202 419,203 419,203 419,204 419,205 419,205 419,206 419,206 425,208 425,208 425,208 429,209 430,209 431,209 431,209 432,209 432,209 432,209 432,209 440,209 440,209 440,209 440,209 442,209 446,209 447,209 447,208 447,208 447,208 450,209 450,209 450,209 450,209 450,210 450,210 450,211 450,211 450,212 450,212 450,213 450,214 450,215 450,215 450,218 449,220 449,221 447,224 445,227 445,227 444,227 444,228 445,228 445,228 444,229 444,229 444,230 444,230 443,231 443,232 443,234 442,234 442,235 442,236 441,237 441,238 441,238 441,239 441,239 440,239 440,241 440,242 440,243 440,245 440,245 438,250 438,250 437,254 436,257 436,257 437,257 439,257 439,257 441,257 441,256 441,257 442,258 443,258 444,259 443,260 443,260 443,260 444,260 444,260 444,260 444,261 445,263 445,263 445,262 445,262 445,262 445,262 446,262 446,262 446,261 446,261 447,261 447,261 447,261 447,261 447,261 448,260 448,260 448,260 449,260 449,260 449,260 449,260 449,260 449,260 450,260 450,260 450,260 451,260 451,260 452,259 452,259 452,259 452,259 453,259 453,259 453,259 453,259 454,259 454,259 454,259 454,259 455,259 455,259 455,259 455,259 456,259 456,259 456,259 456,259 456,260 456,260 456,260 456,260 456,259 457,259 457,259 457,259 458,259 458,259 458,259 458,260 458,260 458,260 458,260 458,260 458,260 459,260 459,260 459,260 459,260 459,259 460,259 460,259 460,259 460,259 461,259 461,258 461,258 461,258 461,258 462,258 462,257 462,257 462,257 462,257 462,257 462,257 463,257 463,257 463,257 463,258 463,258 464,259 464,259 464,259 464,259 464,259 464,260 464,260 464,260 464,260 464,260 464,260 464,260 464,260 464,260 465,260 465,260 465,260 465,260 466,260 466,260 467,260 467,260 467,260 467,260 467,260 467,260 467,260 467,260 468,260 468,259 468,259 468,259 470,259 471,259 471,259 471,259 471,259 472,259 472,259 472,259 473,259 474,259 475,259 476,259 476,259 476,259 476,259 476,259 476,259 477,259 477,259 478,259 478,259 478,259 478,259 479,259 479,259 479,259 479,258 479,258 480,258 481,257 481,257 481,257 482,258 482,258 482,258 483,258 483,258 483,258 483,258 483,258 484,258 484,258 485,258 485,258 485,258 486,258 487,258 487,258 487,258 487,258 487,258 487,258 487,258 487,258 488,258 488,258 488,258 488,258 488,258 489,258 489,258 489,258 489,258 489,258 489,258 489,258 489,258 490,258 490,258 490,258 491,257 491,257 491,257 492,257 492,257 492,257 493,257 493,257 493,257 493,257 494,257 494,257 495,257 495,257 495,257 495,257 496,258 496,258 497,258 497,258 498,258 499,258 499,258 499,258 499,258 500,258 500,258 499,261 499,261 498,262 498,262 497,262 497,262 498,262 497,263 497,263 497,263 498,263 498,264 498,265 498,265 498,265 498,265 498,266 498,266 498,266 498,267 498,267 498,267 498,267 498,268 498,268 497,269 497,269 498,269 498,269 498,270 497,270 497,270 495,270 495,270 493,270 493,270 493,270 492,270 492,270 491,271 491,271 491,271 491,271 491,271 490,271 490,271 490,271 490,271 489,272 489,272 489,272 489,273 489,273 490,273 490,273 491,274 490,275 490,275 489,277 489,277 489,277 488,277 488,277 488,277 488,277 487,278 487,278 487,279 487,279 487,279 487,279 487,279 486,280 486,281 486,281 486,282 484,282 484,282 484,282 484,283 484,283 484,284 484,284 484,284 481,285 481,285 481,285 481,285 481,286 481,286 481,286 481,286 481,286 481,286 480,286 480,286 479,287 478,287 478,287 478,287 478,287 479,287 480,288 480,288 481,288 481,288 481,288 481,288 480,289 480,289 478,290 478,290 477,290 477,290 477,290 477,290 477,291 477,291 477,291 477,292 477,292 477,292 477,293 477,293 477,294 477,294 477,294 477,294 477,295 477,295 477,295 477,295 477,295 477,295 477,295 477,296 477,295 477,295 477,296 477,296 476,296 475,296 475,296 474,297 474,297 474,297 474,297 473,297 473,297 473,297 473,297 472,297 471,298 470,298 470,298 470,298 470,298 469,299 469,299 469,299 469,300 469,300 469,300 469,300 470,300 470,301 470,301 470,301 470,301 471,302 471,302 471,303 471,303 471,303 471,303 471,303 471,304 471,304 471,304 471,304 471,304 471,304 471,304 470,304 470,304 470,304 470,304 469,304 469,304 469,304 469,304 469,304 468,304 468,304 468,304 468,304 467,304 467,304 467,305 467,305 467,305 466,305 466,305 465,305 465,305 465,305 465,305 465,305 465,305 464,305 464,305 464,305 463,304 462,304 462,304 462,304 461,304 460,304 460,304 460,304 459,304 459,304 459,304 458,304 458,304 458,303 457,303 457,303 456,303 456,303 455,303 454,303 454,303 454,303 453,303 453,304 452,304 452,304 451,304 451,304 450,305 449,305 449,306 449,306 448,307 448,307 448,307 447,308 448,309 448,309 448,310 448,310 448,310 448,311 447,312 447,312 447,312 447,312 444,312 444,311 442,311 441,311 441,311 440,311 440,310 440,310 439,310 438,310 437,310 436,310 435,310 435,310 434,310 434,310 434,310 434,309 433,309 433,309 433,308 432,308 432,308 432,308 431,306 430,305 430,305 429,305 429,305 429,305 429,306 429,306 428,306 428,306 428,306 428,306 427,306 427,306 427,306 427,306 427,306 427,306 426,306 426,306 426,306 426,306 425,306 425,306 425,306 424,306 424,306 424,306 423,305 423,305 423,305 423,305 423,305 422,305 422,305 422,305 421,305 421,305 421,305 421,305 420,305 420,305 419,305 418,305 418,305 418,305 418,305 418,305 416,305 416,305 416,305 416,305 416,305 416,305 416,304 414,303 414,303 414,303 414,303 413,303 413,303 413,303 413,303 413,303 413,303 412,303 412,303 412,303 411,303 411,303 411,302 410,302 410,302 409,302 409,302 409,302 408,302 408,301 407,301 407,301 406,301 405,301 405,302 404,302 403,302 403,302 403,302 402,302 402,303 401,303 401,303 401,303 400,304 399,304 399,304 398,305 396,305 396,305 395,305 395,305 395,305 394,305 394,304 394,304 393,304 393,304 392,304 391,304 391,304 390,304 390,304 389,304 388,305 387,305 387,305 386,305 385,305 385,306 385,306 385,306 384,306 384,306 383,306 383,306 383,306 382,306 382,305 382,305 382,305 381,305 381,305 379,305 379,305 378,305 378,305 377,305 377,305 377,305 377,306 377,306 376,307 376,307 376,307 375,307 375,307 375,307 374,307 374,308 374,308 373,308 372,308 372,308 371,308 371,309 368,309 361,311 361,311 360,311 359,311 359,311 358,311 358,311 358,311 358,311 358,312 356,312 355,313 355,313 354,313 354,313 354,313 354,313 354,314 353,314 353,314 353,314 353,314 352,315 352,316 351,316 351,316 350,317 350,317 348,319 347,320 346,320 346,323 346,323 345,323 345,324 345,324 345,324 345,325 345,325 344,326 344,326 344,326 344,326 344,327 343,328 343,328 342,328 342,328 342,329 341,329 341,330 341,330 341,330 340,331 340,331 339,332 339,332 339,332 339,332 338,333 337,334 337,334 336,335 336,335 336,336 336,336 336,336 336,336 336,337 335,337 335,337 335,337 334,338 334,338 334,339 334,339 333,340 333,340 333,340 333,340 333,341 334,341 334,342 334,342 333,342 333,341 333,341 331,343 329,345 329,345 327,347 327,349 327,349 327,349 327,349 327,350 327,350 327,351 328,351 328,352 328,352 328,352 328,353 329,353 328,353 324,355 324,356 324,356 324,357 323,358 323,358 323,358 324,359 324,359 323,360 323,361 322,362 322,362 322,363 322,363 322,364 321,364 321,364 321,365 321,365 321,365 321,365 322,365 322,366 322,366 322,366 322,366 322,367 322,367 322,369 320,369 318,368 318,369 318,369 316,369 316,369 314,369 311,371 307,373 306,373 301,372 300,373 298,373 293,372 292,373 291,374 291,374 291,377 291,377 291,377 291,377 290,379 290,379 291,380 293,381 293,381 291,381 291,381 289,381 289,381 289,382 289,382 289,386 289,386 289,386 288,386 288,386 288,386 288,386 286,385 286,385 284,385 284,385 284,385 284,385 280,387 277,387 277,387 277,387 275,388 275,388 275,388 274,388 273,388 273,388 273,388 272,388 272,388 271,388 271,388 271,388 271,388 269,389 268,389 267,389 266,389 266,389 266,390 263,391 262,391 257,393 256,397 256,397 256,398 255,398 254,399 254,399 253,400 253,400 253,400 253,400 253,400 253,400 253,401 253,401 253,401 253,401 252,400 252,400 252,400 252,399 253,399 254,398 254,397 254,396 253,395 253,395 252,394 251,393 251,393 251,393 251,393 249,392 249,392 249,393 248,393 248,393 244,393 243,393 243,393 242,393 242,392 242,392 241,392 241,391 241,391 240,390 239,390 239,390 237,389 233,388 231,387 231,387 230,387 230,387 229,387 229,387 228,387 227,388 227,388 226,388 226,388 225,388 225,388 225,388 224,389 223,389 222,390 221,391 221,391 221,391 220,393 220,393 220,393 219,394 218,394 218,395 217,395 217,395 217,395 214,396 214,396 213,396 212,396 211,397 210,397 209,397 208,397 208,397 207,398 206,398 206,398 204,398 204,398 204,398 204,398 204,397 203,397 203,397 203,396 203,396 203,396 203,396 203,396 203,395 203,395 202,394 201,394 201,393 200,393 200,392 200,392 200,392 200,392 200,391 199,390 199,390 199,390 199,390 199,390 199,389 199,388 199,388 199,387 199,386 199,386 198,386 198,386 198,386 198,385 198,385 198,385 198,384 198,384 198,384 198,384 198,383 198,383 198,383 196,382 196,382 195,381 194,381 194,381 193,380 192,380 191,379 191,379 190,378 189,378 188,378 187,378 187,378 185,377 185,377 185,376 185,376 185,376 185,375 185,375 185,375 185,375 185,374 185,374 185,374 185,374 185,374 184,374 184,374 183,373 183,373 182,373 182,372 182,372 182,372 182,371 182,371 181,371 181,371 181,371 180,371 180,371 180,371 179,370 179,370 179,369 178,368 177,364 176,359 176,359 176,357 176,357 176,357 176,357 176,356 176,356 176,356 175,356 174,356 174,355 174,355 174,355 174,355 172,354 172,354 172,354 172,354 172,354 171,353 171,353 171,353 171,352 171,352 171,352 170,352 170,352 170,351 170,351 170,350 169,349 169,349 169,349 169,349 169,348 168,348 168,348 167,349 167,349 166,349 166,349 166,349 165,349 165,349 164,349 163,349 162,349 161,349 160,349 159,349 159,349 158,349 158,349 158,349 157,350 157,350 156,350 156,350 155,351 155,351 154,351 152,351 151,351 151,351 151,351 151,351 150,351 150,351 149,350 148,350 148,350 147,350 147,349 147,349 146,349 146,350 145,350 145,350 145,349 145,349 145,348 145,348 145,347 145,347 145,347 145,347 145,347 145,347 145,346 145,346 145,346 146,346 146,345 146,345 146,344 146,344 146,344 146,344 147,344 147,344 147,344 148,343 148,343 148,343 148,343 148,343 148,343 148,343 148,342 148,342 150,341 150,341 150,341 150,341 150,341 149,341 149,341 149,341 149,341 148,341 148,341 147,340 147,340 147,340 147,340 146,340 145,341 145,341 145,341 145,341 145,341 145,341 145,341 145,341 144,341 144,341 144,341 144,341 144,341 143,341 142,341 142,340 142,340 141,340 141,340 141,340 141,340 140,340 140,340 140,340 140,340 140,341 140,341 140,341 140,341 140,341 140,341 140,341 140,341 139,341 139,341 139,342 139,342 139,342 139,343 139,343 139,343 139,343 139,343 139,343 138,343 137,343 137,344 137,344 136,345 132,347 132,347 132,347 132,348 132,348 132,348 132,348 132,348 132,348 131,348 131,349 131,349 131,349 131,349 131,349 130,350 130,350 130,350 129,350 128,349 127,350 127,350 127,351 127,351 127,351 127,351 127,351 127,352 127,352 127,352 127,353 127,353 127,353 127,353 127,354 127,354 127,355 127,355 127,355 127,355 127,355 127,355 127,355 127,354 127,354 126,354 126,354 126,354 126,354 125,354 125,354 124,354 124,354 123,354 123,354 123,354 122,354 121,353 121,353 121,353 121,353 121,353 121,353 121,353 121,353 120,353 120,353 119,353 119,354 119,354 119,354 119,354 119,354 118,354 118,355 118,355 118,355 117,355 117,355 117,355 116,355 116,355 116,355 115,355 115,355 115,355 115,355 115,354 115,354 115,354 114,354 114,354 114,354 114,353 113,353 113,353 113,353 113,353 112,353 112,353 112,353 112,352 112,352 112,352 111,352 111,352 111,352 111,351 111,351 111,351 111,351 111,351 111,351 110,351 110,351 110,351 110,351 110,351 110,351 110,351 110,351 110,351 109,351 109,351 109,352 109,352 109,352 109,352 109,352 107,351 106,351 106,351 106,351 105,351 105,352 105,352 105,352 104,352 104,352 104,352 104,352 104,351 104,351 104,351 103,350 103,350 103,349 104,348 104,348 104,347 104,347 104,346 104,345 105,345 105,345 105,344 105,344 105,344 105,344 106,343 106,343 106,343 106,343 106,343 106,343 106,343 106,343 106,343 106,343 106,342 107,342 107,342 107,341 107,341 107,341 107,341 107,340 107,340 107,340 107,340 107,339 107,339 107,339 107,339 107,338 107,338 107,337 107,337 107,337 107,337 107,336 107,336 106,336 106,336 106,336 107,335 107,335 107,335 107,335 107,335 107,335 107,335 108,334 108,334 108,334 108,333 107,333 107,333 107,333 107,332 107,332 107,332 108,332 108,332 109,331 109,331 109,331 109,331 109,331 109,331 109,331 109,331 109,331 110,330 110,330 111,329 112,328 112,328 112,327 113,327 113,327 114,326 114,326 113,316 113,316 114,316 113,312 113,312 114,310 116,303 116,303 116,302 117,302 120,299 121,298 122,297 123,296 123,295 123,294 124,293 124,293 124,293 124,293 124,293 124,292 124,292 124,292 124,292 124,292 124,292 124,292 124,292 123,292 123,292 123,292 123,292 123,292 123,291 123,291 123,291 123,291 123,291 123,291 123,291 123,291 123,291 123,291 123,291 123,291 123,290 123,291 123,291 123,290 123,290 123,290 122,290 122,290 122,290 122,290 122,290 122,290 122,290 122,290 121,290 121,290 121,290 121,290 121,290 121,290 121,290 121,290 121,290 120,290 120,290 120,290 120,290 120,290 120,290 120,289 120,289 120,289 120,289 120,289 119,289 119,290 119,290 119,290 119,290 119,290 118,290 118,290 118,290 118,290 118,290 118,290 118,290 118,290 117,290 117,290 118,290 118,290 118,290 118,290 117,290 117,290 117,290 117,290 117,290 117,290 116,290 116,290 116,290 116,290 115,290 115,290 115,290 115,290 115,290 115,290 114,290 114,290 114,290 114,290 114,290 114,290 113,290 113,290 113,290 112,290 112,290 112,291 112,291 112,291 112,291 111,290 111,290 110,290 110,290 110,290 110,290 110,290 110,290 110,290 109,290 109,289 108,289 108,289 108,289 108,289 108,289 107,289 107,289 107,289 106,289 106,289 106,289 107,289 106,290 106,290 106,290 106,290 106,289 105,289 105,289 105,289 104,289 104,289 104,289 104,289 104,289 104,289 103,289 103,289 103,290 103,290 103,290 103,290 103,290 103,290 103,290 103,290 103,290 103,290 103,291 103,291 103,291 102,292 102,292 102,292 102,293 102,293 102,293 102,293 102,293 102,294 102,294 101,294 101,294 101,295 101,295 101,295 101,295 101,296 101,297 101,297 101,297 101,298 101,298 98,298 97,298 97,298 94,299 94,299 92,301 92,301 91,301 91,302 91,302 90,302 90,302 89,302 89,302 89,302 89,302 88,302 88,303 88,303 88,303 87,303 87,303 87,303 86,303 86,303 82,302 80,303 78,303 72,304 72,304 68,304 68,304 67,304 67,304 64,304 60,305 59,305 58,306 54,307 49,309 49,309 48,308 48,308 47,308 46,307 46,307 46,307 45,307 45,307 45,307 45,306 44,306 44,306 44,306 44,305 44,305 43,305 43,304 43,304 42,304 42,303 42,303 42,303 42,303 43,302 43,302 43,302 43,301 43,301 43,300 43,300 43,299 43,299 42,299 42,298 42,298 42,297 42,297 41,297 41,297 40,293 40,293 40,292 39,291 39,290 38,288 37,286 36,285 30,273 30,272 30,272 32,271 33,271 34,270 35,270 39,268 40,267 41,267 46,265 46,265 49,264 49,264 50,263 51,263 52,262 53,262 53,262 55,260 58,259 59,259 61,258 62,258 69,255 70,255 70,255 73,254 76,253 80,252 80,251 80,251 80,249 80,249 80,248 80,248 80,247 80,245 79,243 79,243 79,243 79,243 79,243 79,243 79,242 79,242 79,242 79,241 79,241 78,241 78,241 78,241 76,241 75,241 75,241 75,240 75,240 75,239 74,239 74,238 73,238 73,237 72,231 72,231 73,231 73,231 74,230 75,230 75,229 76,229 76,229 77,228 77,228 77,228 78,227 78,227 78,226 79,226 79,226 79,225 79,225 79,225 79,224 79,224 79,224 79,224 79,224 79,223 80,223 80,223 80,223 80,223 81,222 81,222 81,222 81,222 82,222 82,222 82,222 83,222 83,222 83,222 84,222 84,222 85,221 86,221 86,221 87,221 88,221 88,221 88,220 88,220 88,220 88,220 88,220 89,220 89,220 89,220 89,220 90,219 90,219 90,219 90,219 89,218 89,218 89,218 89,218 89,217 89,217 89,217 89,217 90,216 90,216 91,216 91,216 91,215 91,215 91,215 92,215 92,215 92,215 92,215 93,215 93,215 93,215 93,214 93,214 93,214 93,214 94,214 94,214 94,213 94,213 95,213 95,213 95,212 95,212 94,212 94,212 94,211 94,211 94,211 93,210 93,210 93,210 93,210 93,209 94,209 94,209 94,209 95,209 94,208 94,208 94,208 94,208 94,207 94,207 93,207 93,206 93,206 93,206 93,206 94,206 94,206 94,206 94,205 94,205 95,205 95,204 95,204 95,203 95,203 95,203 95,203 95,203 95,203 95,203 95,203 95,203 95,202 95,202 96,202 96,202 96,201 97,201 97,201 97,200 97,200 97,200 97,200 97,200 98,198 98,198 98,197 98,197 98,197 98,196 99,195 98,194 97,194 97,194 97,194 97,194 97,194 97,192 97,192 97,192 97,192 98,192 98,192 98,191 99,191 99,190 99,190 99,190 100,190 100,189 101,189 101,189 101,189 101,188 101,188 101,188 101,188 101,188 102,187 102,187 102,187 102,187 102,186 102,186 102,186 103,185 103,185 103,185 104,185 104,184 104,184 104,184 104,183 105,183 105,182 105,182 105,182 105,181 105,181 105,181 106,181 106,181 106,181 107,181 107,181 107,181 107,181 107,181 107,180 108,180 109,179 109,179 109,179 109,179 109,179 110,179 110,179 110,178 111,178 111,178 111,178 111,178 112,178 112,178 112,178 112,178 112,178 112,177 113,177 113,177 113,177 113,177 114,176 114,176 114,176 114,176 114,176 115,176 115,176 115,176 115,176 116,176 116,175 116,175 116,175 116,174 116,174 116,174 117,174 117,174 117,174 117,174 117,173 117,173 117,173 117,173 117,173 117,173 118,172 118,172 120,171 120,171 120,171 120,170 120,170 121,169 121,169 121,169 121,169 122,169 122,168 122,168 122,168 122,168 122,168 122,168 122,168 122,167 122,167 122,167 122,167 122,166 122,166 122,166 122,166 122,166 122,166 123,166 123,166 123,166 123,166 122,165 122,165 122,165 122,164 122,164 122,164 121,164 121,163 120,163 120,162 118,162 117,163 117,163 116,162 116,162 116,162 116,161 116,161 117,161 117,161 116,160 116,159 116,159 115,159 115,159 115,159 114,160 112,158 112,158 113,158 113,158 112,156 112,156 113,156 113,156 112,154 112,154 112,154 115,153 115,153 115,153 113,153 113,152 112,153 112,152 111,151 112,151 111,150 111,150 111,150 110,150 110,149 110,149 109,148 109,148 108,148 108,147 106,142 106,142 106,142 106,142 106,142 106,142 106,142 105,141 105,141 105,141 105,141 104,140 104,134 103,134 103,134 103,134 103,134 103,133 103,133 103,133 102,133 102,133 102,133 102,133 102,133 102,132 102,132 102,132 101,132 101,132 101,132 101,132 101,132 101,132 100,132 100,132 100,132 100,132 100,132 100,132 99,132 99,132 99,132 99,132 99,132 99,132 98,132 98,132 98,132 98,132 98,132 98,132 98,132 98,132 97,132 97,132 97,132 97,132 97,132 96,132 96,132 96,132 96,132 96,132 96,132 96,132 95,131 95,131 95,131 95,131 95,131 94,131 94,131 94,131 94,131 93,131 93,131 93,131 93,131 93,131 93,131 93,130 93,130 93,130 92,130 92,130 92,130 92,130 92,130 91,129 91,129 91,129 91,129 91,129 90,129 90,129 90,129 89,129 89,129 89,129 89,129 89,129 89,129 89,129 88,129 88,129 88,129 88,129 87,129 87,129 87,129 87,129 87,129 87,128 87,128 87,128 87,128 87,128 87,128 86,128 86,128 86,128 85,128 85,128 85,127 85,127 85,127 85,127 85,127 84,127 84,127 84,127 84,127 84,126 84,126 84,126 83,126 83,126 83,126 82,126 82,126 82,125 82,125 81,125 81,125 81,125 81,125 81,125 81,125 80,125 80,125 80,125 80,124 80,124 80,124 80,124 79,124 79,123 79,123 79,123 80,122 80,122 80,122 80,122 79,122 79,122 79,122 78,122 78,122 78,122 78,122 78,122 78,122 77,122 77,122 77,122 77,122 77,122 76,122 76,122 76,122 76,122 76,122 75,122 75,122 75,122 75,122 75,122 75,122 74,122 74,122 74,122 74,122 74,122 74,122 74,122 74,122 73,122 73,122 73,122 73,122 73,122 73,122 72,122 72,122 72,121 72,121 72,121 72,121 71,121 71,121 71,121 71,121 71,121 71,121 70,121 70,121 69,121 69,120 69,120 69,120 68,120 67,120 67,120 67,120 66,120 66,120 65,120 65,120 65,120 65,120 65,120 64,120 64,120 63,120 63,120 63,120 63,120 63,120 62,120 62,120 62,120 62,120 62,119 61,119 61,119 61,119 61,119 61,119 61,120 60,120 60,120 60,120 60,120 60,120 60,120 59,120 59,119 58,119 58,120 58,119 58,119 57,119 57,119 57,119 57,119 57,119 56,119 56,119 56,119 56,119 56,119 56,119 55,119 55,119 55,119 55,119 55,119 55,119 55,119 55,119 55,119 55,119 55,119 55,119 54,119 54,119 54,119 54,119 54,119 54,119 54,119 53,119 53,119 53,119 53,119 53,119 53,119 52,119 52,119 51,119 51,119 50,119 50,119 50,119 50,119 49,119 49,119 49,119 48,119 48,119 47,119 47,120 46,120 46,120 45,119 45,119 45,119 45,119 44,119 44,120 44,120 44,120 43,120 43,120 43,120 43,120 43,120 43,119 43,119 43,119 43,119 43,119 42,119 42,119 42,119 42,119 41,120 41,120 41,120 40,120 40,120 40,120 40,120 39,120 39,120 39,120 39,119 39,119 38,119 38,119 37,119 37,120 37,119 37,119 37,119 36,119 36,119 36,119 35,118 35,118 35,118 35,118 34,118 34,118 34,118 33,117 33,117 32,117 30,116 29,115 29,115 28,115 27,115 26,114 25,114 25,114 24,114 23,114 23,114 22,114 22,114 21,114 21,114 20,114 20,114 19,113 19,113 18,112 16,111 16,111 15,111 15,111 15,111 15,111 14,111 14,111 14,111 14,111 14,111 14,110 13,110 12,110 11,110 11,110 10,110 10,110 9,110 8,110 8,110 8,110 7,110 7,110 7,110 6,110 6,109 6,109 6,109 5,109 5,108 5,108 4,108 4,108 4,107 3,107 3,107 3,106 4,106 4,106 4,105 4,105 4,105 4,104 4,104 4,104 4,104 4,103 4,103 3,103 2,101 2,99 2,99 2,99 3,98 3,98 3,97 3,97 3,97 4,96 4,96 4,96 4,95 4,95 4,94 5,93 5,93 5,93 5,93 5,92 5,92 5,92 5,92 5,91 5,91 5,91 5,90 5,90 5,90 5,90 5,90 5,89 5,89 4,89 4,89 4,88 4,88 4,88 4,88 4,87 4,87 3,87 3,87 3,87 3,86 3,86 2,86 2,86 2,86 2,86 2,86 2,86 1,86 0,85 0,84 0,84 0,84 0,84 0,84 1,84 1,84 1,84 2,84 3,84 3,84 4,83 4,83 4,83 4,83 5,83 5,83 5,83 5,83 5,82 5,82 6,82 6,82 6,82 6,82 6,81 6,81 6,81 7,81 7,80 7,80 7,80 7,80 7,79 8,79 8,78 8,78 8,76 8,76 8,76 8,75 8,74 8,74 8,73 8,71 8,70 9,70 11,70 11,70 12,70 12,70 12,70 12,70 11,69 11,69 10,68 8,67 7,66 6,64 5,63" id="3801" class="canton" fill="steelblue" stroke-width="1" stroke="white" geotype="canton" geoname="Bièvre" code_insee="3801" code_departement="38" nom_departement="Isère" code_region="84" nom_region="Auvergne-Rhône-Alpes"/></svg>