<?xml version="1.0" encoding="utf-8"?>
<svg version="1.1" id="svgmap" xmlns="http://www.w3.org/2000/svg" xmlns:xlink="http://www.w3.org/1999/xlink" x="0px" y="0px" width="100%" height="100%" viewBox="0 0 384 500">
<polygon points="11,5 18,0 29,6 45,14 58,20 96,28 116,31 137,33 151,36 163,39 171,43 182,46 208,55 234,65 260,74 269,76 299,86 312,95 324,104 335,116 338,122 340,128 332,131 333,132 333,137 333,139 333,142 333,145 332,154 332,160 332,162 332,165 333,169 335,171 336,173 336,173 338,175 339,176 341,179 343,181 346,182 349,184 352,186 355,187 359,189 360,189 363,190 367,191 368,192 372,193 376,194 379,194 381,194 382,194 383,194 384,196 384,197 384,200 383,203 376,224 372,234 372,237 365,256 360,271 352,294 351,294 350,294 349,294 343,294 343,294 342,297 341,301 341,302 341,302 341,303 339,303 339,304 339,305 339,306 335,317 327,318 322,328 337,332 339,333 334,348 331,356 326,371 321,387 310,421 301,447 318,456 343,469 351,472 374,481 383,484 381,494 379,494 376,494 365,495 354,495 345,495 342,495 329,496 318,496 299,497 294,499 293,499 284,499 283,499 282,499 271,500 256,499 236,500 229,496 226,496 226,495 224,494 216,491 203,485 202,484 204,465 207,453 210,370 212,306 212,305 212,305 215,236 216,225 216,223 215,201 215,195 214,187 207,168 200,158 192,148 142,112 117,95 93,78 65,58 0,11 11,5" id="3809" class="canton" fill="steelblue" stroke-width="1" stroke="white" geotype="canton" geoname="Grenoble-1" code_insee="3809" code_departement="38" nom_departement="Isère" code_region="84" nom_region="Auvergne-Rhône-Alpes"/></svg>