<?xml version="1.0" encoding="utf-8"?>
<svg version="1.1" id="svgmap" xmlns="http://www.w3.org/2000/svg" xmlns:xlink="http://www.w3.org/1999/xlink" x="0px" y="0px" width="100%" height="100%" viewBox="0 0 500 489">
<polygon points="19,339 20,339 20,339 22,339 23,339 24,338 24,338 25,338 26,337 27,337 28,337 28,337 29,337 29,337 30,337 30,337 30,336 30,336 31,336 31,336 32,335 34,334 34,334 34,333 36,332 38,332 39,331 41,331 42,331 44,330 45,330 46,330 50,329 50,329 53,328 54,327 55,327 55,327 56,327 56,327 57,326 57,326 57,326 57,326 57,325 57,325 57,325 59,324 60,324 64,322 68,321 68,321 70,321 71,321 73,320 74,320 76,317 80,315 80,315 81,315 82,314 83,313 85,312 88,310 89,309 91,308 92,308 94,308 96,308 99,307 103,306 105,306 106,307 107,308 108,309 108,310 107,312 107,314 108,316 108,317 111,318 112,318 113,319 113,319 115,319 119,318 120,319 127,321 128,322 129,322 132,324 132,325 136,324 138,324 139,325 143,324 144,325 149,325 149,324 151,324 151,324 154,325 154,325 155,325 156,326 157,326 158,326 159,326 161,327 163,328 167,329 174,330 179,330 179,330 180,330 181,330 182,329 182,329 183,329 184,329 185,329 186,329 187,329 188,329 189,329 190,329 190,329 191,329 191,329 192,329 192,329 192,328 193,328 193,328 193,327 193,326 193,326 194,326 194,325 195,323 196,322 196,322 198,321 198,321 199,321 199,320 200,320 201,319 202,319 202,318 203,318 204,317 204,317 205,316 205,316 206,316 207,316 207,315 209,315 209,314 210,314 210,314 211,314 211,313 212,313 212,313 213,313 214,312 214,312 214,312 215,312 215,312 216,311 217,311 218,310 219,310 219,310 220,309 221,309 222,309 222,309 224,306 224,305 224,305 225,305 225,305 227,304 229,303 230,303 230,303 231,303 231,303 234,303 235,303 235,303 238,304 238,305 239,304 240,302 242,301 243,302 246,299 247,299 247,299 247,297 248,296 248,296 248,295 248,294 249,293 249,292 249,292 250,291 250,290 251,290 252,289 253,289 253,289 254,288 259,287 260,286 260,286 261,286 261,286 261,286 263,286 263,286 263,286 264,286 265,286 266,285 266,285 267,283 267,283 267,283 266,282 266,282 266,282 266,282 266,281 266,281 266,281 266,280 266,280 266,280 266,280 266,279 266,279 266,279 266,278 265,277 265,276 265,276 265,275 265,275 266,274 266,274 265,272 265,272 265,271 265,271 265,270 265,270 265,268 266,267 267,267 267,266 265,264 266,264 264,261 263,262 261,262 260,263 259,262 258,261 255,261 254,260 246,262 245,263 244,262 246,257 246,257 246,257 245,257 245,257 244,257 243,257 241,258 241,258 240,258 239,258 239,258 238,258 237,258 237,258 236,258 235,257 234,257 232,257 231,257 230,257 229,257 227,256 225,256 224,256 224,256 224,256 221,256 220,255 219,255 217,255 216,255 215,255 213,255 212,254 211,254 210,254 209,254 208,254 205,254 204,254 203,254 202,254 201,254 200,254 199,254 198,255 197,255 195,255 194,255 193,256 193,256 192,256 189,257 188,257 188,257 185,258 184,259 183,259 180,260 180,260 180,260 180,260 179,259 179,259 179,258 179,257 179,256 179,254 179,254 179,253 179,253 180,253 180,252 180,252 179,251 179,250 179,250 179,250 180,249 181,248 182,248 182,247 182,247 182,247 182,246 182,246 183,246 190,244 194,243 194,240 199,237 200,235 204,233 206,229 208,227 215,221 210,219 207,219 204,219 200,218 206,214 205,214 206,209 203,206 196,205 193,206 190,205 188,204 189,202 188,200 192,196 196,197 197,185 189,180 194,175 196,175 193,170 195,168 195,164 194,162 195,160 197,157 197,154 196,152 193,151 184,150 184,148 177,142 177,139 175,137 173,133 173,132 173,132 172,131 172,132 171,132 172,130 172,129 172,127 172,126 172,124 171,121 171,120 169,117 169,116 170,116 170,115 169,115 168,114 168,113 166,113 165,113 163,112 162,113 160,112 162,110 164,110 164,108 163,108 163,107 163,106 164,104 164,104 165,101 165,101 163,99 162,99 162,99 160,98 160,98 157,97 155,97 155,97 155,97 155,98 155,100 152,100 150,101 148,101 149,103 146,103 145,103 143,103 136,104 136,104 135,104 134,104 133,103 133,103 132,103 133,102 133,102 131,101 131,100 130,99 130,98 131,98 131,98 130,98 129,98 128,98 128,98 127,99 127,99 127,101 128,106 124,107 120,107 117,107 105,108 96,111 63,101 50,97 50,96 46,96 46,95 44,95 43,94 43,92 42,89 42,86 42,86 41,83 40,78 43,74 43,73 46,73 48,71 53,64 54,63 54,62 56,61 56,61 58,61 58,60 81,46 82,45 82,45 84,45 83,43 87,45 88,45 88,45 89,44 91,45 95,46 95,46 97,47 98,48 99,48 104,50 104,49 104,48 105,48 105,47 105,46 105,46 108,48 110,49 111,50 112,51 113,51 130,40 137,42 137,41 137,39 138,37 139,36 142,37 144,33 142,34 141,34 140,34 138,33 138,32 140,31 171,0 171,0 175,3 177,3 178,2 178,1 179,2 180,2 181,2 181,3 181,3 182,1 182,1 184,1 185,1 186,1 188,1 189,0 190,0 192,1 193,1 194,1 195,2 194,5 194,6 193,8 194,8 194,9 194,9 194,9 195,11 196,12 204,16 207,17 208,18 210,19 212,20 214,21 215,21 215,20 221,17 223,17 229,16 232,16 231,18 231,19 231,19 233,20 235,20 235,20 236,20 238,22 239,22 241,23 242,23 242,24 243,24 243,24 243,24 244,24 246,25 247,25 249,26 251,27 253,28 254,28 253,29 254,29 254,29 256,29 258,30 259,30 261,29 261,29 262,28 262,28 263,28 264,29 265,29 266,28 268,28 271,27 274,27 276,25 276,26 277,26 278,26 279,26 279,27 280,27 286,26 287,26 290,25 294,25 297,26 297,27 299,25 300,25 302,26 303,24 305,24 315,26 365,32 398,36 398,37 407,47 410,44 414,46 412,60 403,64 384,82 370,94 335,85 329,92 328,93 328,93 327,94 324,96 322,98 321,99 326,104 330,108 335,113 336,113 336,114 336,115 337,117 337,119 337,119 340,122 340,122 342,124 351,130 353,132 355,134 356,135 359,136 359,136 358,139 357,140 357,141 357,142 356,142 356,143 356,143 356,143 356,144 356,144 356,144 356,144 356,145 356,145 356,145 356,146 355,147 355,147 354,148 353,148 353,149 352,149 352,150 352,150 351,150 350,150 350,151 349,151 349,152 349,154 349,154 348,155 348,155 348,156 347,156 347,156 347,157 346,157 346,157 346,157 346,158 345,158 345,158 345,158 345,158 344,159 344,159 344,159 343,160 343,160 342,161 342,161 341,163 341,163 341,164 341,166 342,166 343,166 343,166 341,168 341,169 341,169 341,169 339,169 337,169 335,169 335,169 336,170 336,170 335,171 335,171 335,172 335,173 336,176 336,177 335,179 336,180 336,180 336,180 336,181 337,181 337,181 337,181 339,181 340,182 341,182 341,183 342,183 343,184 347,185 350,185 351,185 352,184 358,184 363,183 364,183 373,183 374,182 374,182 375,182 376,183 377,183 378,183 378,183 379,183 380,183 380,184 380,184 381,185 381,185 381,185 381,185 383,184 383,184 388,185 388,185 389,185 390,185 391,185 392,185 393,185 393,185 394,184 394,182 394,182 395,182 395,182 395,182 396,182 396,182 396,181 396,180 396,179 397,178 398,177 398,177 398,177 399,176 399,175 399,174 399,174 400,174 400,174 403,173 403,173 403,172 404,172 405,171 406,171 407,171 408,170 409,169 409,168 410,166 412,165 412,165 412,165 412,164 412,164 411,164 411,163 412,163 412,162 414,162 414,162 414,162 415,162 416,162 417,162 417,162 418,161 418,161 418,161 419,161 419,161 419,161 420,160 420,159 421,158 422,158 425,158 429,159 431,159 433,159 435,159 438,160 438,160 439,159 440,160 441,160 442,160 444,162 445,164 446,164 446,165 449,167 453,169 454,170 454,170 455,171 455,172 457,173 458,174 458,174 460,177 460,177 462,179 462,179 462,180 463,183 464,184 465,184 465,184 465,185 467,186 467,187 469,189 468,189 468,189 469,190 469,191 468,191 468,192 469,194 471,196 471,196 471,197 471,197 471,198 471,198 472,198 472,199 472,199 472,200 471,200 471,201 472,201 472,201 472,202 472,203 471,203 470,203 469,204 468,203 468,204 466,204 465,205 465,205 464,207 464,207 464,208 463,208 462,209 462,209 462,209 460,211 460,212 455,216 455,217 455,218 455,219 455,219 455,220 455,220 455,221 455,221 455,222 455,223 455,223 455,224 455,224 455,224 454,224 454,225 454,225 453,226 454,226 454,227 453,227 454,228 454,228 454,228 454,230 454,230 453,230 452,231 452,231 452,231 452,232 453,232 453,233 453,234 452,234 451,234 450,233 449,234 449,234 449,234 450,234 450,234 449,235 449,235 450,236 450,236 450,236 450,237 450,237 449,237 449,238 448,238 448,238 448,238 449,238 449,239 448,239 448,240 448,240 448,240 448,240 447,241 446,240 446,241 445,240 444,241 444,241 445,242 445,242 445,242 444,243 444,243 443,243 443,243 442,243 441,243 441,243 441,242 441,242 440,242 439,243 438,243 437,243 438,244 438,244 437,244 436,245 436,245 436,246 436,247 437,248 439,249 441,250 441,250 442,250 442,253 442,255 440,255 439,256 440,256 440,256 440,257 442,263 448,261 449,260 450,262 451,262 452,264 451,265 451,265 451,266 451,266 451,266 451,267 454,267 455,269 455,271 457,271 457,273 459,278 458,279 460,280 453,287 445,291 443,292 446,297 449,296 451,299 451,299 452,302 453,301 454,301 454,301 455,301 455,301 455,301 456,300 457,300 458,300 458,300 459,300 459,300 460,300 460,300 461,300 461,301 461,301 462,302 462,303 462,304 463,305 462,306 462,308 464,308 464,309 465,309 465,309 468,309 469,309 469,309 470,310 471,310 473,311 474,312 475,312 475,313 476,313 477,314 479,314 479,314 480,314 480,313 481,313 482,313 483,313 483,312 485,312 485,313 487,312 488,312 490,313 491,314 494,316 494,316 495,317 495,318 496,318 496,319 498,320 498,320 499,320 499,320 500,320 500,321 496,322 495,322 490,324 489,324 489,325 487,325 487,326 487,326 486,326 486,327 485,327 485,327 484,327 484,328 484,328 484,328 483,328 482,329 480,329 480,330 479,330 479,331 480,331 479,331 478,332 478,332 477,333 477,334 477,334 476,336 475,336 476,336 475,337 475,337 474,337 473,337 473,338 474,339 475,340 475,341 476,341 480,344 479,346 480,348 480,350 479,351 479,353 480,353 482,358 483,359 485,361 487,362 488,363 489,363 489,364 482,366 482,367 479,368 476,368 475,369 474,374 474,375 470,378 468,379 466,380 467,382 464,382 463,382 459,382 458,382 457,382 457,383 456,381 453,381 452,382 451,381 445,381 441,380 440,380 440,380 440,381 439,381 438,381 436,382 435,382 435,382 436,383 435,384 434,384 434,384 433,384 431,385 430,385 429,385 428,385 427,384 427,384 427,385 427,385 427,385 427,385 426,385 426,385 426,385 426,385 426,385 426,385 426,385 426,385 425,385 425,385 425,385 425,385 425,385 425,385 424,385 424,385 424,385 424,384 424,384 424,384 424,384 424,384 424,384 424,383 424,383 423,383 423,383 423,383 423,383 423,384 423,384 423,383 423,383 423,383 422,383 422,383 422,383 422,383 422,383 422,383 422,383 421,383 421,383 421,383 421,382 421,382 421,382 420,382 420,382 420,382 420,382 420,382 420,382 420,382 419,383 419,383 419,383 419,383 419,383 419,383 418,383 418,383 418,383 418,383 418,383 417,382 417,382 417,382 417,382 416,382 416,382 416,382 416,382 416,382 416,382 416,382 415,382 415,382 415,382 415,382 415,382 415,382 415,382 415,382 415,382 415,382 414,382 414,382 414,382 414,382 414,382 414,382 414,382 414,382 414,382 414,382 414,382 414,382 414,382 414,382 414,382 414,382 413,382 413,382 413,382 413,382 413,382 413,382 413,382 413,382 413,382 413,382 413,382 413,382 412,382 412,382 412,382 412,381 412,381 412,381 412,381 412,381 412,381 412,381 411,382 411,382 411,382 411,381 411,381 411,381 411,381 411,381 411,381 410,381 410,381 410,381 410,381 409,381 409,380 408,380 408,380 407,380 405,378 393,379 392,379 392,379 392,379 392,379 392,379 390,379 390,379 390,379 390,379 389,378 388,378 381,370 381,370 381,370 381,370 375,370 374,370 369,368 369,368 367,368 366,368 366,368 365,368 365,368 365,368 364,368 364,368 364,368 364,368 364,368 364,369 363,369 363,369 363,369 363,369 362,369 362,369 362,368 361,368 361,368 361,368 361,368 360,369 360,369 359,369 359,369 358,369 357,369 357,368 358,368 359,368 359,368 360,367 357,366 356,365 355,366 355,366 355,366 354,366 354,366 353,365 353,365 353,365 352,365 353,362 356,362 355,360 353,358 350,359 347,361 344,361 343,361 342,361 341,361 337,361 336,361 334,361 332,361 331,361 330,361 329,361 329,360 328,360 328,360 323,359 322,360 321,360 320,361 318,362 318,362 317,362 317,362 314,362 313,362 311,362 309,362 308,362 304,363 304,363 301,363 299,363 297,363 297,363 295,363 289,362 286,362 285,361 284,361 283,361 284,365 282,365 278,367 275,368 273,368 272,368 268,368 267,369 268,371 263,371 261,371 260,371 259,372 258,373 254,372 254,372 254,373 254,373 253,373 250,374 249,374 249,374 249,374 249,374 249,374 248,374 248,374 248,374 247,374 246,375 246,375 245,375 244,375 238,372 238,372 237,371 236,371 235,371 231,373 227,375 227,374 226,374 222,375 222,374 218,377 217,378 216,378 216,379 215,380 215,381 215,381 214,382 213,382 214,387 213,386 211,387 210,387 209,387 209,387 207,386 205,385 204,385 202,384 201,384 201,384 200,384 199,384 195,387 190,389 191,390 192,392 190,393 190,393 188,394 189,394 191,395 192,395 192,398 192,410 192,417 192,421 192,421 191,422 193,430 193,430 189,433 183,438 180,440 177,443 177,443 173,446 172,447 170,448 170,449 169,451 168,453 168,454 167,455 167,456 168,458 168,459 168,459 166,460 165,460 165,462 165,463 165,464 166,464 165,466 165,467 165,468 164,469 164,470 160,474 159,474 159,475 158,475 156,476 156,477 155,477 154,478 152,479 152,480 151,481 151,482 151,482 149,482 149,484 148,484 147,485 147,486 146,486 146,487 144,488 144,489 144,489 143,489 143,489 141,489 140,489 140,489 139,489 138,489 138,489 137,488 136,488 135,488 133,488 133,488 133,487 131,487 131,487 131,486 131,486 130,485 130,485 130,485 130,484 129,484 129,484 129,484 128,483 128,482 127,482 127,481 126,480 126,479 126,478 126,476 125,476 124,474 124,474 122,474 121,474 121,474 121,474 120,474 119,474 119,474 118,474 117,474 117,473 116,473 116,473 115,473 114,473 113,473 113,473 111,474 111,473 110,473 109,473 109,473 107,473 107,473 107,474 108,474 107,475 106,475 104,474 103,474 103,474 103,473 103,473 102,473 100,472 99,472 98,471 97,470 97,470 96,470 95,468 95,467 95,465 89,459 78,459 78,459 77,459 77,460 76,460 75,460 74,461 74,460 73,460 71,461 71,461 70,461 68,462 67,462 66,461 65,461 63,461 61,460 61,459 60,459 59,459 59,459 58,458 57,458 56,458 54,458 53,458 52,458 52,459 51,459 50,458 49,459 47,459 46,459 44,459 44,459 42,459 41,459 41,459 40,460 39,460 38,460 37,460 37,461 36,461 36,462 35,462 34,462 34,462 33,462 31,456 28,450 27,449 30,449 33,448 43,443 45,441 48,440 51,439 55,438 57,437 58,436 59,436 60,434 61,434 60,433 58,431 58,431 59,430 57,422 51,407 37,407 32,409 24,411 23,412 19,414 17,414 14,415 12,415 8,415 5,415 3,415 3,413 3,411 2,410 2,409 2,408 2,407 1,407 1,406 1,405 1,404 1,404 1,403 0,403 0,402 0,402 2,402 3,402 7,402 7,403 7,403 9,403 11,403 13,399 13,399 14,399 15,399 16,400 17,399 17,397 18,396 19,395 19,393 19,393 17,393 16,393 12,392 11,392 9,392 8,392 8,391 7,391 7,391 7,391 7,391 8,385 8,385 6,385 6,385 7,376 7,376 8,374 8,368 8,368 8,368 8,367 8,367 9,367 9,366 10,365 10,365 10,364 10,363 10,363 10,363 9,363 10,362 10,362 11,362 11,360 11,359 11,359 9,359 8,358 8,358 10,357 11,356 11,356 12,355 12,355 13,354 14,353 14,353 15,352 16,351 17,349 18,349 19,347 20,347 21,346 21,346 20,345 19,343 19,343 19,341 19,341 19,339 19,339 19,339" id="3814" class="canton" fill="steelblue" stroke-width="1" stroke="white" geotype="canton" geoname="Isle-d'Abeau" code_insee="3814" code_departement="38" nom_departement="Isère" code_region="84" nom_region="Auvergne-Rhône-Alpes"/></svg>