<?xml version="1.0" encoding="utf-8"?>
<svg version="1.1" id="svgmap" xmlns="http://www.w3.org/2000/svg" xmlns:xlink="http://www.w3.org/1999/xlink" x="0px" y="0px" width="100%" height="100%" viewBox="0 0 500 225">
<polygon points="56,20 56,20 56,20 56,20 57,20 57,20 58,20 60,20 60,20 60,20 60,20 60,20 60,20 61,20 62,20 63,20 64,20 64,21 65,22 66,22 66,22 67,22 67,22 69,23 70,24 70,24 71,24 72,24 72,24 73,25 74,25 76,25 76,25 77,26 78,26 80,27 82,28 82,28 82,28 83,29 83,29 83,29 83,29 83,29 84,29 84,30 88,31 88,31 90,33 90,33 90,33 90,33 90,32 90,31 90,31 91,31 91,31 90,30 90,30 95,24 95,27 96,27 98,28 98,29 97,30 97,30 95,31 96,31 96,31 96,31 96,31 96,31 97,32 97,32 98,32 98,32 99,33 99,33 100,33 100,34 100,34 100,34 101,34 101,35 102,35 102,35 102,35 103,35 104,35 104,35 104,35 104,35 104,35 104,35 105,35 105,35 105,35 105,34 105,34 105,34 106,34 106,34 106,34 106,34 107,34 107,34 107,34 107,34 108,34 108,34 108,34 109,35 109,35 109,34 109,34 109,34 110,34 110,34 110,34 110,34 110,34 110,34 110,34 110,33 111,33 111,33 111,33 111,33 111,33 111,33 111,33 111,33 112,33 112,33 112,33 112,33 112,33 113,33 113,33 114,33 115,33 115,33 118,34 118,34 121,35 121,35 121,35 121,35 121,34 122,34 122,34 122,34 123,34 124,33 124,33 124,33 124,34 125,34 125,34 125,34 125,34 125,33 125,33 125,33 125,33 125,33 125,33 126,33 126,33 126,33 126,33 126,32 126,32 127,32 127,32 127,32 127,32 127,32 127,32 128,32 128,32 128,32 128,32 129,32 129,32 130,32 130,32 130,32 130,32 130,32 131,32 131,32 131,32 131,32 131,32 131,32 132,33 132,33 133,33 133,33 133,33 133,33 133,33 134,33 134,33 134,33 135,33 135,33 135,33 135,33 140,29 146,24 145,22 145,22 145,22 145,21 145,20 147,20 148,20 149,20 149,20 151,20 155,20 155,20 155,20 155,20 155,21 155,22 155,23 155,23 155,25 155,26 155,26 155,26 155,26 157,27 157,28 158,28 158,29 159,30 160,30 161,31 161,31 162,32 162,32 162,32 162,32 162,32 162,34 162,34 163,34 162,34 161,35 161,35 161,35 162,35 163,36 163,36 163,36 163,36 163,36 163,36 165,37 165,37 166,37 166,37 168,38 168,38 168,39 168,39 168,39 168,40 168,40 168,40 168,40 168,41 167,41 167,42 167,42 167,42 167,42 167,42 165,43 165,43 165,43 165,43 165,45 165,45 167,45 167,45 168,45 169,45 171,44 171,44 172,44 172,44 173,43 173,43 173,43 173,43 175,43 175,43 175,43 175,43 176,43 177,43 177,43 177,43 177,43 177,43 178,45 178,45 178,45 178,46 178,46 178,46 178,46 178,46 180,47 180,47 180,48 181,48 181,48 182,49 184,50 184,50 184,50 185,50 186,50 187,50 187,50 187,50 187,50 187,50 187,50 187,50 187,50 188,50 188,50 188,50 190,51 190,51 190,51 190,51 190,51 190,51 191,51 192,51 192,51 192,51 192,52 192,52 194,52 194,52 194,52 194,52 195,53 195,53 195,53 196,53 196,53 196,53 196,55 197,55 197,55 197,55 197,55 199,55 199,55 199,55 199,55 199,55 198,56 198,56 201,57 201,57 203,57 203,57 203,57 204,56 204,56 204,54 204,54 204,54 204,54 205,53 205,53 205,53 206,54 206,54 207,54 207,54 207,54 207,54 207,53 208,53 208,53 208,53 208,53 208,53 208,53 209,54 209,54 209,54 210,55 211,55 211,55 211,55 211,56 211,56 211,56 211,56 212,56 212,56 213,56 213,56 213,56 214,57 215,57 218,58 218,58 219,57 219,57 219,57 219,57 219,57 220,58 221,58 221,58 221,58 222,58 223,59 224,59 226,60 226,60 226,60 226,60 227,61 227,61 228,63 229,63 229,63 229,63 229,63 229,64 229,64 230,64 230,65 230,65 231,65 231,65 232,65 233,63 233,63 234,63 234,63 234,62 235,62 235,62 235,62 237,61 237,61 238,61 239,60 240,60 240,60 241,60 242,59 242,59 244,59 244,59 245,59 245,59 247,58 248,57 248,57 249,57 250,56 252,55 252,55 252,55 252,55 256,55 257,55 257,55 257,55 258,55 260,57 261,56 261,56 262,56 262,56 263,56 263,56 264,55 265,55 266,54 267,54 267,54 268,54 268,53 268,53 269,53 269,53 270,53 270,53 272,52 273,52 273,52 273,52 273,52 273,52 273,52 273,52 275,52 277,52 277,52 280,52 282,51 282,51 285,52 286,52 286,52 287,52 288,53 288,54 289,54 289,56 289,56 289,57 288,57 288,58 288,58 288,58 288,59 288,59 287,60 287,60 287,60 286,61 286,61 286,61 285,62 285,62 286,62 286,62 286,63 287,63 287,63 288,64 288,64 288,64 288,64 290,63 294,61 294,61 297,61 297,61 298,62 298,62 298,63 299,64 299,64 300,65 300,66 300,66 301,67 301,68 301,68 302,69 302,69 303,70 303,70 303,70 303,70 304,70 307,69 308,68 308,68 308,67 308,67 308,67 308,66 309,65 309,65 308,64 308,64 308,64 309,64 309,64 309,64 310,64 310,64 311,63 311,63 312,63 312,62 313,61 313,61 313,61 314,60 314,60 314,59 314,59 314,58 314,58 314,57 314,57 315,56 316,56 316,56 315,55 314,54 314,54 315,54 316,54 317,54 318,54 318,54 318,54 320,54 322,53 323,53 323,53 324,52 325,52 325,51 325,51 325,51 325,51 326,52 326,52 326,53 326,53 326,54 326,54 327,55 328,55 329,56 329,56 329,56 330,55 330,55 330,54 331,54 331,53 332,53 332,53 332,53 333,53 333,52 333,52 334,52 334,52 334,52 334,52 335,52 335,52 335,51 335,51 335,51 335,50 336,50 336,50 337,49 338,48 338,48 339,48 339,48 339,48 340,47 341,47 343,47 345,45 345,45 346,46 348,46 349,44 347,42 347,42 349,42 349,42 349,41 348,40 348,40 348,40 348,39 348,39 348,38 346,37 346,37 344,37 343,37 342,37 339,37 339,37 337,37 337,36 337,36 337,36 337,36 337,36 337,35 337,35 336,34 336,34 336,34 336,34 336,34 336,33 337,33 337,32 338,31 338,31 342,32 342,32 344,28 344,28 343,28 343,28 343,28 343,28 344,26 344,26 345,26 345,25 345,25 346,25 346,25 346,25 348,24 350,24 350,24 350,24 351,24 354,23 355,23 355,23 355,22 356,22 356,22 356,22 357,22 357,21 360,20 359,20 360,20 362,19 364,18 364,18 364,18 365,18 365,18 367,17 365,15 365,15 365,15 367,15 366,13 371,11 372,10 372,10 373,10 373,10 374,9 374,9 375,9 375,9 375,9 376,9 378,8 378,8 379,8 380,8 380,8 381,8 381,8 381,8 383,7 384,6 384,6 385,6 386,6 386,6 387,6 388,5 388,5 388,5 389,4 390,3 390,3 390,2 390,2 390,2 390,2 391,1 391,1 391,1 393,0 393,0 394,0 395,5 395,5 395,6 395,6 395,7 395,7 395,7 395,7 395,7 395,7 395,10 395,10 395,11 395,11 395,13 395,13 396,13 397,13 399,13 401,13 401,13 401,13 401,13 401,13 401,14 401,14 401,14 401,14 401,15 401,15 401,15 400,16 400,16 400,16 400,17 400,17 400,17 400,17 400,17 401,17 401,17 402,18 402,18 402,18 402,18 402,18 402,18 403,20 403,20 403,20 404,19 406,19 406,19 406,19 406,19 406,19 407,19 407,19 407,19 408,19 408,19 408,19 408,19 408,20 409,20 409,20 409,19 409,19 410,20 410,20 410,20 410,20 410,20 410,20 412,19 412,19 412,20 412,20 412,19 412,19 413,19 413,19 414,18 414,18 415,17 415,17 415,17 416,18 416,18 417,18 417,18 417,18 420,19 421,19 421,19 422,19 422,19 423,20 425,21 425,21 426,21 427,21 427,21 428,22 429,22 429,22 431,21 433,21 433,21 434,21 435,21 435,21 436,21 437,20 437,20 438,20 438,20 440,19 442,19 449,16 449,16 452,18 458,18 458,18 460,18 461,19 462,19 462,19 463,18 463,18 464,18 468,19 472,21 472,21 473,21 481,19 482,19 487,20 490,21 492,21 493,22 494,22 494,22 496,22 496,22 500,23 499,28 499,28 499,28 499,29 499,29 498,30 497,31 497,31 497,31 496,32 494,33 491,34 488,36 488,36 487,36 487,37 486,37 486,37 485,38 485,38 484,39 483,40 482,41 482,42 481,42 480,43 479,44 479,44 478,45 478,45 477,46 477,46 477,46 476,46 476,46 476,47 476,47 476,47 475,48 475,49 475,49 474,50 474,50 473,52 473,52 472,53 472,53 472,54 471,54 471,54 470,56 470,56 470,56 470,57 470,57 470,57 470,57 470,58 470,58 469,61 469,61 469,61 469,61 469,62 470,62 470,62 470,63 470,63 470,64 470,65 470,65 470,65 470,65 470,66 470,67 470,68 470,69 469,69 468,69 463,70 464,71 464,71 464,71 464,71 464,72 464,72 464,72 463,73 463,74 463,74 463,74 463,74 462,75 462,75 462,76 462,76 462,76 461,76 461,76 461,76 460,76 459,76 459,76 461,77 461,77 462,77 462,77 463,78 464,78 465,78 465,78 466,79 466,79 466,79 468,80 468,80 468,80 468,80 468,80 468,81 468,81 468,82 467,82 467,82 466,83 465,84 464,85 464,85 462,86 447,94 447,94 447,94 444,95 442,96 441,96 436,98 432,99 430,100 426,101 426,101 426,101 426,102 426,103 426,103 425,104 425,104 424,104 423,104 423,104 423,104 423,104 423,104 419,106 418,107 417,107 417,107 416,108 414,109 412,110 412,111 412,111 411,112 411,112 411,113 411,115 410,117 410,118 410,118 411,121 411,121 411,124 411,124 411,125 408,127 407,127 407,128 406,129 404,130 404,130 403,131 403,131 403,131 402,131 402,132 400,134 400,134 400,134 397,138 396,140 394,141 394,142 394,143 394,143 389,142 385,141 384,141 378,139 378,139 378,139 375,139 369,139 366,138 360,138 360,138 357,138 356,138 356,137 356,137 355,137 347,136 344,136 344,136 344,136 343,136 343,137 342,137 343,137 342,137 342,137 342,137 342,137 341,137 341,137 340,137 339,137 339,137 339,137 338,137 338,137 338,137 337,137 337,137 337,138 337,138 337,138 337,138 336,138 336,139 335,139 335,140 335,140 335,140 335,140 334,140 334,140 333,140 333,140 333,140 332,141 332,141 332,141 332,140 331,141 331,141 331,141 331,141 330,141 330,141 329,142 329,142 328,142 328,142 328,143 328,143 327,143 327,143 327,143 327,143 329,145 329,145 329,147 329,147 329,147 329,147 328,148 328,148 328,148 326,148 326,148 326,148 326,148 325,148 324,148 324,148 323,148 323,149 322,149 322,149 322,149 321,149 321,149 320,149 317,145 315,143 313,140 313,140 313,140 313,140 311,140 311,140 311,140 311,140 310,140 310,140 309,140 309,140 309,140 308,140 307,140 307,140 307,140 305,140 305,140 305,140 304,140 304,140 304,140 303,140 303,140 303,140 302,140 302,140 302,140 302,139 300,139 299,139 298,138 298,138 298,138 296,137 295,137 294,137 294,137 294,137 294,137 293,136 292,136 292,136 291,135 284,139 284,139 284,139 284,139 283,138 283,138 283,138 283,138 283,138 282,138 281,137 279,137 279,137 279,137 278,138 278,138 278,138 277,139 277,139 276,141 276,141 276,141 275,142 274,142 274,142 274,142 274,143 274,143 273,143 273,143 273,143 273,143 272,143 272,143 270,145 270,145 270,145 270,145 266,143 266,142 266,142 261,145 261,145 260,147 260,147 260,147 260,147 261,147 261,147 261,147 258,149 257,149 257,149 254,151 254,151 254,151 251,152 251,152 250,152 248,152 248,152 248,152 248,152 247,153 247,153 247,153 247,153 247,154 246,155 246,155 245,156 245,156 245,156 244,156 242,156 242,156 242,156 242,156 240,155 240,156 240,156 240,156 240,156 240,156 239,157 238,157 237,158 238,158 237,159 236,158 235,159 235,159 234,159 233,159 232,158 232,158 230,158 227,157 226,157 223,157 222,156 221,156 221,156 219,155 219,155 219,155 218,155 218,154 217,153 217,152 216,151 216,150 216,150 216,150 216,150 215,150 214,149 213,149 213,149 212,149 211,148 210,148 210,148 209,148 208,147 201,145 200,145 199,145 198,145 197,145 194,145 192,144 189,144 188,144 187,144 186,143 185,143 185,143 184,143 184,143 184,143 183,143 183,143 182,144 179,144 179,144 177,144 177,144 176,144 174,144 172,143 171,143 171,143 170,143 168,142 167,142 167,142 166,142 166,142 164,141 163,141 161,141 161,141 161,141 161,141 160,144 160,144 160,144 159,144 159,144 159,145 160,145 160,145 160,145 160,148 160,148 159,148 159,149 159,149 159,149 159,149 159,151 159,152 159,152 158,152 158,155 158,155 159,155 159,155 159,155 159,155 159,155 159,155 159,155 159,156 159,156 159,156 159,156 159,156 158,156 157,156 157,156 156,156 156,156 156,157 156,157 156,157 156,157 156,157 156,158 156,158 156,158 156,158 156,159 156,159 156,160 156,161 156,161 156,161 155,161 156,161 157,161 158,162 158,162 158,162 159,162 159,162 159,162 159,162 159,163 158,164 158,164 158,164 158,164 158,165 158,165 158,165 158,165 158,166 158,166 158,166 157,167 157,167 157,167 157,167 157,167 158,168 158,168 159,168 159,168 159,168 159,169 159,169 159,169 158,170 158,170 158,170 158,170 158,171 158,171 158,171 158,171 158,171 158,172 158,172 158,172 157,172 157,172 157,172 157,173 157,173 157,173 156,173 156,173 156,173 156,174 156,174 156,174 156,175 156,175 156,175 155,176 155,176 155,177 155,178 155,178 154,178 154,179 154,180 154,180 154,180 154,180 154,181 154,181 154,182 154,182 154,182 154,184 153,184 153,185 153,185 153,187 152,187 152,188 152,188 152,188 151,190 151,190 151,190 152,192 153,192 153,192 153,192 153,192 153,193 153,193 153,193 153,193 155,194 155,194 156,195 156,196 157,196 157,196 157,196 158,197 158,197 158,197 158,197 158,197 159,198 159,198 160,199 161,199 161,200 160,200 159,200 158,200 156,200 154,200 153,201 152,201 152,201 152,201 152,201 151,203 151,203 151,204 151,204 151,205 151,205 152,205 151,205 151,205 152,205 152,205 151,205 151,205 150,205 149,205 149,205 149,205 149,205 148,204 147,204 147,204 147,204 147,204 147,205 147,205 147,205 147,206 146,206 145,206 145,206 145,207 144,207 144,207 143,207 143,207 143,207 142,207 141,207 141,206 140,206 140,206 140,206 140,206 139,206 139,205 138,205 138,206 137,206 137,206 136,206 136,207 136,207 135,207 134,208 133,208 133,209 133,209 133,209 131,209 131,209 131,210 130,210 130,210 130,210 130,211 129,211 129,211 128,212 127,212 127,212 127,212 126,212 126,213 126,213 125,213 125,213 125,212 124,212 124,211 124,210 124,210 124,210 123,209 123,209 123,209 122,209 121,209 121,209 121,209 120,209 119,209 119,209 118,210 118,210 117,210 117,210 116,210 116,210 115,211 114,211 114,211 114,210 114,210 114,210 114,210 113,210 113,210 113,210 113,210 113,210 112,210 112,210 112,210 112,210 112,210 112,210 112,210 111,210 111,210 111,210 111,210 111,210 111,209 111,209 111,209 111,209 110,209 110,209 110,209 110,209 109,209 109,208 109,208 109,208 109,208 109,208 108,208 108,207 107,207 107,207 106,207 106,207 106,207 106,206 105,206 104,206 104,206 103,206 103,206 103,206 103,206 104,207 103,207 103,209 101,210 95,218 89,225 87,223 85,222 82,219 82,219 79,218 77,217 76,217 76,217 74,215 72,213 69,212 68,211 67,210 66,210 64,209 64,208 63,208 59,203 57,200 56,200 55,199 55,199 54,198 54,198 53,199 51,199 50,199 49,197 49,197 49,196 49,195 49,195 49,195 48,196 48,196 47,197 46,197 46,198 46,198 45,198 45,198 45,199 45,199 44,200 44,200 44,200 43,201 43,200 43,200 42,200 42,200 41,199 41,199 40,199 40,198 39,198 39,198 39,197 39,197 38,197 38,197 38,197 36,196 35,196 35,196 33,196 33,196 33,196 32,197 32,197 32,197 31,197 31,197 31,197 31,197 31,197 31,196 30,196 30,195 29,195 29,195 28,195 27,194 26,194 26,194 27,193 27,193 26,193 26,192 25,192 25,192 25,192 25,192 25,191 25,191 24,190 24,190 24,190 24,189 24,189 24,189 23,188 23,188 23,188 22,187 22,187 22,186 22,186 22,186 22,186 21,185 21,185 19,183 19,182 19,181 18,181 18,180 18,179 18,178 17,178 16,179 16,179 14,172 14,169 13,166 13,166 13,164 12,161 11,159 12,159 13,159 13,159 13,159 13,158 13,158 14,158 14,158 17,158 19,157 22,157 22,157 24,157 24,156 25,156 25,156 25,156 25,155 24,155 24,155 24,155 24,155 24,155 25,155 25,154 25,154 26,153 26,152 26,152 26,152 26,152 26,151 26,151 27,150 27,150 27,150 26,150 26,149 26,149 27,149 27,149 28,148 29,148 29,148 29,148 29,147 29,147 29,146 30,145 30,145 31,145 31,145 30,143 30,143 31,143 32,142 33,141 35,140 35,140 36,139 36,139 34,138 34,138 33,137 33,137 33,137 33,137 33,137 33,136 34,136 35,135 35,135 36,134 36,134 37,133 37,133 38,132 39,132 39,132 39,132 39,132 40,131 40,131 41,131 42,131 43,131 43,131 43,130 44,130 44,130 44,130 44,129 44,129 44,129 44,128 44,128 44,128 44,127 44,127 44,126 43,126 43,126 42,126 42,126 42,126 41,125 41,125 40,124 40,123 39,123 39,122 38,121 37,120 36,119 35,118 35,118 34,118 34,118 33,118 33,118 32,118 32,118 31,118 30,118 30,118 29,118 29,118 29,118 29,118 29,118 28,118 28,117 27,116 27,116 26,115 24,114 24,114 24,114 23,114 23,113 23,113 23,113 23,113 23,113 23,113 23,112 22,112 22,112 22,112 22,111 23,111 24,110 24,110 24,110 24,110 25,109 25,108 26,108 26,108 26,108 26,106 26,106 26,106 26,106 29,105 29,105 29,105 28,105 28,105 28,105 28,104 28,104 27,104 27,104 29,103 31,102 31,101 33,100 33,100 33,100 33,100 34,99 36,99 37,99 37,98 38,98 39,98 41,97 41,97 42,97 42,97 43,95 43,95 42,95 41,94 40,94 40,94 40,94 40,94 40,94 40,94 41,93 42,92 41,92 39,91 39,91 40,91 40,90 41,90 41,90 41,90 40,90 40,90 40,90 40,90 40,90 41,89 41,89 41,89 41,89 41,89 41,88 43,88 43,88 43,87 44,86 44,86 44,85 43,85 43,85 43,85 43,85 42,85 42,85 42,84 41,83 40,83 40,83 39,83 39,83 38,83 37,82 36,82 36,82 36,82 35,81 35,81 33,81 33,80 33,80 33,80 33,80 34,80 34,80 34,80 34,79 34,79 34,78 33,78 34,78 34,77 34,77 33,77 32,75 31,74 30,72 31,72 31,72 32,72 32,72 31,70 29,69 29,69 29,68 29,68 29,68 29,68 30,66 30,66 30,66 30,66 28,66 28,66 23,60 23,60 23,60 22,60 22,60 21,58 21,58 21,58 20,55 20,55 20,55 19,55 15,56 14,57 14,57 14,56 14,56 14,56 14,56 14,56 15,56 15,56 14,52 14,51 10,50 9,49 9,49 8,49 8,49 7,49 7,48 5,47 4,47 4,46 3,46 2,45 2,44 1,44 1,43 0,42 0,42 0,42 2,42 3,42 4,42 8,43 10,43 10,43 13,42 13,42 13,42 14,42 15,42 15,42 17,42 17,42 19,41 19,41 20,41 20,41 20,41 21,41 21,41 22,41 22,41 22,41 22,41 23,41 23,40 23,40 23,40 24,40 27,41 28,42 31,43 31,43 33,44 33,44 35,43 35,43 35,43 35,43 36,43 36,43 37,41 37,41 38,41 38,41 39,40 39,40 40,39 40,38 40,38 40,38 40,38 41,37 42,36 42,35 42,35 42,35 42,35 42,35 42,34 42,34 42,33 42,33 43,32 44,31 44,31 45,30 45,30 45,30 47,29 47,29 47,29 48,29 48,28 49,28 49,27 50,27 50,26 50,26 51,26 51,26 53,24 53,24 54,24 54,24 54,24 56,22 55,21 55,21 56,21 56,20 56,20" id="4107" class="canton" fill="steelblue" stroke-width="1" stroke="white" geotype="canton" geoname="Montrichard" code_insee="4107" code_departement="41" nom_departement="Loir-et-Cher" code_region="24" nom_region="Centre-Val de Loire"/></svg>