<?xml version="1.0" encoding="utf-8"?>
<svg version="1.1" id="svgmap" xmlns="http://www.w3.org/2000/svg" xmlns:xlink="http://www.w3.org/1999/xlink" x="0px" y="0px" width="100%" height="100%" viewBox="0 0 500 336">
<polygon points="84,30 84,30 85,29 85,29 85,29 85,29 85,29 85,29 85,28 85,28 85,28 85,28 85,28 85,28 85,28 85,27 85,27 85,27 86,26 87,26 87,26 88,26 88,25 89,25 91,24 92,24 93,24 94,23 97,22 99,22 99,22 100,22 100,22 102,21 104,21 104,21 105,20 105,20 108,20 111,19 111,19 111,18 111,18 112,18 116,17 117,17 119,16 119,16 119,15 120,14 120,13 121,13 121,12 122,12 122,13 123,13 124,14 124,14 125,14 126,15 126,15 127,15 129,16 129,17 130,17 130,17 131,18 133,18 133,18 134,18 134,18 136,18 138,19 141,19 142,19 145,17 148,15 151,14 154,13 154,13 158,11 162,10 164,9 165,8 166,7 166,4 167,3 167,2 168,3 169,3 171,3 173,3 173,3 174,4 174,4 176,5 177,6 177,6 177,6 179,3 181,2 190,0 192,2 193,3 195,4 195,4 196,5 198,5 199,6 200,6 203,8 207,9 212,11 212,16 215,17 215,17 216,18 217,18 219,18 220,18 222,19 225,19 227,18 231,18 232,18 233,17 235,16 235,16 237,16 239,16 241,16 245,15 248,14 249,14 250,14 251,15 252,15 257,14 258,14 259,14 259,14 259,14 260,14 260,14 260,13 260,13 261,13 262,12 263,12 263,12 263,12 264,12 264,12 264,11 264,11 264,11 265,11 265,12 265,12 266,12 266,12 266,12 267,11 268,11 268,11 268,11 270,10 270,10 271,9 271,9 272,10 274,10 275,10 277,11 277,11 278,10 282,11 282,10 282,9 283,9 285,10 285,7 285,7 286,6 287,6 286,4 285,2 284,2 284,2 286,2 286,2 287,3 289,4 290,4 291,5 295,6 297,7 298,8 299,8 299,9 300,9 301,9 302,8 303,8 303,8 305,7 307,7 308,7 310,7 311,7 312,7 313,7 313,7 314,6 315,6 315,6 316,5 316,5 317,5 318,5 318,6 319,7 320,7 320,8 321,8 321,8 322,8 323,8 324,7 324,7 326,7 327,7 328,7 331,7 333,8 334,8 337,9 338,10 340,10 340,10 342,11 344,12 346,11 349,12 350,12 350,14 350,14 351,15 349,15 349,15 349,17 349,18 349,19 350,20 350,21 350,21 349,23 349,23 349,24 349,24 349,25 350,26 351,27 352,28 353,29 354,30 354,31 354,32 354,33 354,34 355,35 356,35 357,35 359,36 360,36 361,36 363,36 363,37 364,37 365,38 367,38 367,39 367,40 367,40 366,41 366,41 367,41 367,41 368,41 368,41 368,42 368,42 368,42 368,42 368,43 367,43 366,43 366,43 366,43 366,43 365,43 365,43 365,43 365,43 364,44 364,44 364,44 364,44 364,45 364,45 364,45 364,45 364,45 363,45 362,45 362,46 362,46 361,46 361,46 360,47 360,47 359,47 359,47 359,47 358,47 358,47 358,47 358,47 358,47 357,47 356,47 356,47 356,48 355,48 355,48 356,49 356,50 356,50 356,52 356,52 356,52 356,53 356,53 356,53 356,54 356,54 356,54 356,54 356,54 356,55 356,55 355,56 355,56 355,57 355,57 355,57 355,57 355,57 355,58 356,58 356,59 356,59 356,60 356,60 356,60 357,60 357,60 357,61 357,61 357,61 357,61 357,61 357,61 358,61 358,62 358,62 358,62 357,63 357,63 357,63 356,63 356,63 355,64 355,64 355,64 355,65 355,65 355,66 354,66 354,66 354,67 354,67 354,67 354,68 354,68 354,69 354,69 354,70 354,70 354,70 354,70 354,71 354,71 354,71 354,71 354,72 354,72 354,72 354,73 354,73 354,73 355,74 354,74 351,75 348,75 348,76 346,79 344,82 342,85 342,85 343,86 343,87 344,87 344,87 343,89 343,91 342,91 341,92 341,92 342,94 342,94 342,96 344,95 348,95 354,93 357,92 360,94 364,97 365,97 369,99 368,100 369,100 371,100 371,100 371,101 373,101 373,101 374,102 376,104 377,105 377,107 377,108 377,109 377,110 378,112 378,112 378,113 379,113 379,113 379,114 380,114 380,114 380,114 380,114 381,114 381,114 381,114 382,115 382,115 382,115 383,115 383,115 383,115 384,115 384,115 384,115 385,115 385,115 385,115 386,115 386,115 387,116 387,116 388,117 388,117 388,117 388,117 388,118 388,118 389,118 389,119 389,119 389,119 389,119 390,119 390,120 390,121 391,121 391,121 391,121 391,122 392,122 392,122 392,123 392,123 392,123 392,123 392,123 393,124 393,124 393,124 393,125 393,125 393,125 392,125 391,125 391,125 390,125 390,126 389,125 389,125 388,125 388,125 387,125 386,125 385,125 384,125 383,125 382,125 381,125 381,126 380,126 380,127 380,127 380,128 380,128 381,129 381,129 381,129 382,130 383,130 384,131 385,131 385,131 384,132 384,132 383,132 383,133 382,133 381,133 380,133 379,133 378,133 377,133 374,133 373,133 373,133 373,134 372,135 371,136 371,136 371,137 370,139 370,139 370,140 370,140 371,140 371,141 372,142 373,143 373,143 374,144 374,145 374,146 374,146 374,147 373,148 372,149 371,149 371,150 370,150 369,150 367,151 366,151 365,152 364,152 364,152 364,153 364,153 364,153 365,153 366,154 367,154 368,154 368,154 368,155 369,156 369,157 369,157 369,158 369,158 369,158 369,158 367,159 366,159 365,159 362,158 361,158 359,158 358,158 357,158 357,159 356,159 356,160 356,160 356,161 355,161 354,162 353,162 350,163 349,163 347,164 346,164 345,164 343,164 343,164 343,164 343,164 344,165 344,165 344,166 344,167 344,167 345,167 345,167 346,167 347,167 347,167 348,167 349,167 349,167 350,168 350,168 350,168 350,169 351,169 352,170 353,170 353,170 353,170 353,171 354,171 354,171 354,172 355,172 355,172 356,173 356,173 357,173 357,173 357,173 358,173 358,174 358,175 359,175 359,175 360,175 360,176 360,176 360,176 360,176 361,177 361,177 362,178 362,178 362,179 363,179 363,179 364,180 365,180 365,181 365,181 365,181 365,182 365,182 365,183 365,183 365,183 366,184 366,185 367,185 367,185 367,185 367,186 367,186 368,187 368,187 368,187 368,187 369,188 369,188 369,189 369,190 369,190 369,190 370,191 370,191 370,191 370,192 370,192 370,192 370,193 370,193 370,193 371,193 372,194 372,194 373,194 373,194 373,194 373,194 374,194 374,194 375,194 376,194 376,194 376,194 377,194 377,195 377,195 377,196 378,196 379,197 379,197 379,197 380,197 381,198 381,198 381,199 381,199 381,199 381,199 381,199 381,200 381,200 381,200 382,200 382,200 382,200 382,200 383,199 383,199 383,199 383,199 384,200 385,200 386,200 386,201 387,201 387,201 388,200 388,200 389,200 389,199 389,199 389,199 389,199 389,198 390,198 390,198 391,198 391,198 392,198 392,197 392,197 392,197 394,196 394,196 395,196 395,196 396,196 396,196 397,196 397,196 397,195 400,195 400,195 401,195 402,194 402,194 403,194 403,194 404,194 404,194 405,194 405,193 405,193 405,193 406,193 406,193 406,193 407,192 407,192 408,192 409,192 410,192 410,192 411,191 412,191 412,191 413,191 414,191 414,191 416,192 416,192 416,192 417,191 418,191 418,191 419,192 419,192 419,192 419,192 420,193 421,193 421,193 421,193 422,193 422,193 424,193 424,193 425,194 425,194 425,194 426,194 427,194 428,194 429,194 429,195 431,195 432,194 434,192 434,191 436,190 437,190 439,192 439,192 442,194 443,194 443,195 443,195 444,195 446,195 446,195 447,195 450,197 451,197 451,197 451,197 452,197 454,197 456,196 456,196 456,196 456,196 457,189 457,188 457,189 458,189 459,190 460,190 460,190 461,190 461,190 461,190 461,190 461,190 461,189 461,189 461,189 461,188 461,188 461,188 462,187 462,187 462,187 462,187 462,186 462,186 462,186 462,186 462,185 462,185 462,185 462,184 462,184 462,183 462,183 462,183 461,183 461,183 461,182 460,182 460,182 460,182 460,181 460,181 460,181 460,181 460,180 460,180 460,180 459,180 459,180 459,179 459,179 459,179 459,179 459,179 458,178 458,178 458,178 457,178 457,178 457,178 456,178 456,178 456,178 455,177 455,177 454,177 454,177 454,177 454,176 454,176 454,176 453,176 453,176 453,175 453,175 453,175 454,175 454,174 454,174 454,174 455,174 455,174 455,174 456,174 456,174 457,174 457,174 458,174 458,174 458,174 458,174 459,174 459,175 459,175 459,175 459,175 460,175 460,175 460,175 461,175 462,175 462,175 462,175 463,175 463,175 463,175 463,175 464,175 464,176 465,176 465,176 465,176 466,176 466,176 466,176 467,176 467,176 467,176 468,176 468,176 468,176 469,176 469,176 470,176 470,176 470,176 470,176 470,176 471,175 471,175 471,175 471,176 472,176 472,176 473,176 473,176 474,177 475,177 475,177 475,178 476,178 476,178 476,178 476,178 476,179 476,179 477,179 477,179 477,179 478,180 478,180 478,181 479,181 479,182 479,182 479,183 479,183 479,183 479,184 479,184 480,185 480,185 480,185 481,185 481,185 481,184 481,184 481,184 482,184 482,184 483,184 484,184 484,184 484,184 485,184 485,184 486,184 486,184 486,184 487,184 487,184 487,184 487,184 488,185 488,185 488,185 489,185 489,185 490,185 490,185 491,185 491,185 491,185 491,186 491,186 491,186 491,187 491,187 492,187 493,187 493,188 493,188 493,188 493,188 493,189 493,190 493,190 493,190 493,190 494,190 494,190 493,191 493,192 493,192 493,192 492,192 492,192 492,192 492,192 492,192 492,192 492,193 492,193 492,193 491,193 491,193 492,193 492,194 492,194 492,194 493,194 493,195 494,195 494,195 494,196 494,197 494,197 494,198 494,198 493,199 492,199 492,200 492,200 491,201 491,202 491,202 491,202 490,203 490,203 489,203 489,203 489,203 489,204 489,204 489,204 489,205 489,206 489,206 490,206 490,206 491,207 491,207 491,207 492,207 492,207 492,208 492,208 493,209 493,209 493,210 493,210 493,210 493,211 493,211 493,211 492,211 492,212 492,212 492,212 492,212 491,213 491,213 491,213 491,214 491,214 491,216 491,216 491,216 492,217 492,217 492,218 492,218 493,218 493,218 493,218 493,219 494,219 494,219 494,219 494,219 494,219 494,219 495,220 495,220 495,220 495,220 495,221 495,221 496,222 497,223 497,223 497,223 498,223 498,224 498,224 497,224 497,225 498,225 498,225 498,226 498,227 498,228 498,228 498,229 498,229 498,229 498,229 498,229 498,229 499,229 499,229 499,229 499,230 499,230 499,231 499,231 499,231 498,232 498,232 498,233 498,233 498,233 498,233 498,234 499,234 499,234 500,234 500,235 499,236 499,236 500,236 500,236 500,237 500,237 500,237 500,237 499,238 499,238 499,238 499,238 499,238 499,238 498,239 498,239 496,240 496,240 492,240 491,240 491,240 488,239 486,238 485,238 485,237 485,237 485,236 485,236 485,236 483,236 482,236 482,236 481,237 481,237 480,237 480,237 480,237 480,237 478,236 478,236 478,236 469,235 467,234 450,242 445,243 438,244 435,245 434,245 433,245 433,245 433,245 432,244 432,242 431,242 431,242 430,244 428,242 428,241 427,241 427,240 426,240 426,240 426,239 426,239 426,240 425,240 424,240 424,240 424,241 424,243 424,243 423,243 423,243 422,243 420,242 418,241 418,241 420,241 420,241 422,241 422,240 422,240 422,240 421,239 420,239 420,239 419,239 418,239 418,238 416,238 415,239 414,239 413,239 413,239 412,237 411,237 410,237 409,237 409,237 408,236 407,236 407,235 407,235 407,235 407,235 406,234 406,233 405,232 405,232 405,232 403,231 403,231 403,231 403,230 403,229 402,228 401,228 401,228 400,228 400,228 398,230 398,231 397,231 396,231 396,232 395,232 395,232 395,232 390,240 389,240 390,241 389,241 389,241 389,241 389,241 388,241 388,242 383,247 370,257 370,258 363,277 363,277 368,289 368,291 368,291 368,292 367,294 367,295 368,298 371,302 371,303 372,303 372,303 373,305 373,305 374,305 374,305 374,305 375,305 376,305 376,305 376,307 376,308 376,308 376,308 376,309 376,309 376,310 376,311 376,312 376,312 376,312 375,313 375,313 375,314 375,314 375,315 375,315 375,315 376,316 376,316 376,316 377,316 379,317 380,318 380,318 380,318 379,319 378,320 378,321 377,322 377,323 376,323 376,323 376,324 376,324 375,325 374,325 373,326 372,327 372,327 372,327 371,328 371,329 371,329 371,329 370,330 370,330 369,330 369,331 368,331 368,331 368,332 368,332 368,332 368,333 368,333 367,333 366,333 365,334 365,334 364,335 363,335 363,335 362,336 361,336 361,335 361,334 361,334 361,333 361,332 361,332 359,332 359,332 359,332 358,332 358,332 357,332 357,331 356,331 356,332 355,332 355,331 353,330 351,329 351,329 350,328 350,328 349,327 349,327 348,326 348,326 348,325 347,325 346,324 346,324 345,324 345,324 345,324 344,324 344,324 343,324 343,324 343,324 342,323 342,323 341,323 340,323 340,323 340,323 338,322 338,321 337,321 336,320 336,320 336,320 335,320 335,319 334,319 334,319 332,318 331,318 331,318 330,318 329,317 329,317 329,317 328,317 328,317 328,317 328,317 327,316 327,315 327,315 327,315 327,315 328,315 327,314 327,314 326,313 326,313 325,312 325,312 325,312 325,312 324,313 324,313 323,313 317,313 311,313 311,313 310,312 304,311 297,310 297,310 291,324 291,324 286,323 284,323 283,323 279,322 279,322 279,322 278,322 277,322 274,321 273,321 272,321 272,321 269,321 269,321 269,322 265,321 263,320 260,323 260,323 259,321 258,320 256,319 255,318 253,317 253,317 252,316 252,316 252,316 251,315 246,315 246,315 245,315 245,315 244,315 244,315 241,314 242,315 239,315 238,315 238,315 238,315 231,315 229,315 229,315 229,315 229,315 228,316 227,316 227,316 225,317 224,318 224,318 224,319 225,319 225,320 224,321 224,323 224,324 224,324 220,323 219,322 217,322 215,321 214,321 213,321 211,321 208,320 208,320 208,320 208,320 208,320 207,320 207,320 204,319 202,318 201,317 199,316 199,316 197,316 197,316 197,316 196,316 196,317 196,317 198,318 198,318 200,319 199,320 199,320 198,320 197,320 197,320 196,319 195,319 195,319 194,319 194,319 193,319 193,319 193,320 192,321 192,322 192,323 192,323 192,324 192,324 192,324 190,325 190,325 189,325 187,325 186,325 185,325 185,324 184,324 183,324 182,324 182,323 182,323 182,323 182,322 182,322 183,322 183,322 184,321 184,321 184,321 184,321 183,320 183,319 182,319 182,319 182,319 181,320 181,320 181,320 181,321 181,321 181,321 181,321 181,322 181,322 181,323 180,324 180,324 179,323 178,322 176,322 176,321 175,321 175,321 174,321 171,321 171,321 171,322 171,322 171,322 171,323 171,323 171,323 171,324 172,324 172,325 172,326 172,326 168,326 167,326 167,327 168,329 168,330 166,330 166,330 166,330 166,330 166,329 165,329 165,328 165,327 157,327 156,328 154,328 153,326 153,325 153,325 152,318 152,318 153,312 154,311 154,311 154,310 154,310 155,307 155,306 155,305 155,303 155,301 155,301 155,301 155,298 155,298 155,297 155,296 154,295 154,294 153,293 150,290 147,287 145,285 144,284 142,282 140,281 140,280 139,279 137,277 136,276 135,275 135,274 134,274 134,273 134,272 135,272 135,271 135,270 136,269 137,268 138,267 139,266 141,264 141,264 143,263 143,262 145,262 146,261 147,261 148,261 150,260 153,260 155,260 156,259 157,259 158,259 159,258 161,257 162,257 163,256 164,255 165,255 165,255 165,254 164,255 161,252 161,252 157,253 153,254 151,254 149,255 147,255 146,255 144,255 143,255 142,256 140,256 138,256 137,257 136,257 134,256 132,256 131,256 130,256 127,256 123,256 120,257 117,257 115,257 115,256 115,256 115,255 115,254 115,253 115,249 114,247 114,246 114,243 113,241 113,239 110,240 107,241 103,241 99,241 94,241 92,241 90,241 87,241 87,242 86,242 84,242 83,242 83,242 80,240 76,238 74,237 71,236 68,234 66,234 63,233 63,233 60,232 57,232 56,231 56,229 56,226 56,225 55,223 55,222 55,221 55,219 55,217 57,216 56,215 57,215 57,213 58,213 58,213 59,210 59,210 60,210 60,209 61,207 62,207 61,206 62,204 63,202 63,201 63,201 64,198 64,197 66,195 67,194 68,193 69,192 69,192 70,191 72,190 75,188 76,188 79,188 79,187 79,187 81,184 82,182 83,179 84,177 85,176 86,173 87,171 87,171 87,169 86,165 86,164 85,163 82,158 79,153 76,148 73,144 74,140 74,137 74,134 75,130 75,128 73,126 70,124 67,122 65,121 63,119 61,118 59,118 59,118 53,120 52,120 46,118 34,117 26,116 23,116 20,116 17,116 15,115 12,115 5,113 5,113 2,113 0,113 1,110 3,103 5,98 5,97 5,97 8,94 17,88 21,86 22,85 23,84 22,84 23,84 23,83 29,82 35,81 41,80 40,78 39,75 37,73 36,71 35,70 35,70 35,70 35,69 35,69 33,66 34,66 38,65 41,64 41,64 48,62 58,60 65,58 69,57 75,55 80,54 80,54 79,52 79,51 78,50 77,47 76,44 78,43 81,41 83,40 86,39 88,38 88,39 91,37 91,37 93,36 91,35 89,33 87,32 84,30" id="4201" class="canton" fill="steelblue" stroke-width="1" stroke="white" geotype="canton" geoname="Andrézieux-Bouthéon" code_insee="4201" code_departement="42" nom_departement="Loire" code_region="84" nom_region="Auvergne-Rhône-Alpes"/></svg>