<?xml version="1.0" encoding="utf-8"?>
<svg version="1.1" id="svgmap" xmlns="http://www.w3.org/2000/svg" xmlns:xlink="http://www.w3.org/1999/xlink" x="0px" y="0px" width="100%" height="100%" viewBox="0 0 500 397">
<polygon points="0,135 0,135 2,134 4,133 6,133 10,132 14,131 15,131 15,131 15,130 15,130 15,130 15,130 15,130 15,130 14,130 14,130 14,130 14,130 14,130 14,130 14,129 14,129 14,129 14,129 14,129 14,129 14,129 14,128 14,128 14,128 14,128 14,128 14,128 14,128 14,127 14,127 14,127 14,127 14,127 14,127 14,127 14,127 14,127 14,127 14,127 14,127 14,127 13,127 13,126 13,126 14,126 14,126 14,126 14,126 13,126 13,126 13,126 13,126 14,126 14,126 14,125 14,125 14,125 14,125 14,125 14,125 14,125 14,124 15,124 15,124 15,124 16,123 20,120 20,120 35,116 35,116 36,115 36,115 36,115 36,114 36,114 36,114 36,114 36,114 36,114 36,114 36,113 36,113 36,113 36,113 36,113 37,113 37,113 37,113 37,112 37,112 37,112 37,112 37,112 37,112 37,112 37,112 37,112 37,112 38,112 38,111 38,111 38,111 39,111 39,111 39,111 39,111 39,110 39,110 39,110 40,110 40,110 40,110 41,110 41,110 41,110 42,110 42,110 42,110 42,110 42,110 43,110 43,110 43,110 43,110 44,110 44,110 44,110 44,110 44,110 44,110 44,110 44,110 44,110 45,110 45,110 45,110 45,110 45,109 46,109 46,109 46,109 46,109 46,109 46,109 47,108 47,108 47,108 47,108 47,108 47,108 48,108 48,108 48,108 48,108 49,108 49,108 49,108 49,108 49,108 50,108 50,108 50,108 51,108 51,108 51,108 51,108 51,108 52,108 52,108 52,108 53,108 53,108 53,108 53,108 54,108 54,108 54,108 54,108 54,108 55,108 55,108 55,108 56,108 56,108 56,108 56,108 56,108 56,108 56,108 56,108 56,108 56,109 57,109 57,109 57,109 57,109 57,109 57,109 57,109 57,109 57,109 57,109 57,109 58,109 58,109 58,109 58,109 58,110 58,110 58,110 58,110 59,110 59,110 59,110 59,110 59,110 59,110 59,109 59,109 59,109 60,109 60,109 60,109 60,109 60,109 60,109 60,109 60,109 60,109 61,109 61,109 61,108 61,108 61,108 61,108 62,108 62,108 62,108 62,108 62,108 63,108 63,108 63,109 63,109 63,109 63,109 64,109 64,109 64,109 64,109 64,108 65,108 65,108 65,108 65,108 65,108 65,108 65,108 66,108 66,108 66,107 66,107 67,107 67,107 67,107 68,107 68,107 68,107 68,107 68,107 68,107 68,107 69,107 69,107 70,107 70,107 70,106 70,106 71,106 71,106 71,106 71,106 71,106 71,106 71,106 72,106 72,106 72,106 72,106 72,105 72,105 72,105 72,105 72,105 72,105 72,104 72,104 72,104 72,104 72,103 72,103 72,102 72,102 72,102 73,102 73,102 73,102 73,102 74,102 74,102 74,102 74,101 74,101 75,101 75,101 75,100 75,100 76,100 76,100 76,100 77,100 77,100 77,100 77,100 77,100 77,100 78,100 78,100 78,100 78,100 78,100 79,100 79,100 79,100 80,100 80,100 81,100 81,100 82,100 82,101 82,101 83,101 83,101 83,101 84,101 84,101 84,101 85,101 85,101 85,100 85,100 85,100 85,100 85,100 85,100 85,100 86,100 86,100 86,99 86,99 86,99 87,99 87,100 87,100 88,100 88,100 88,100 88,100 88,100 88,100 88,101 88,101 88,102 88,102 88,102 89,102 89,102 89,102 89,102 89,102 90,102 90,102 90,102 90,103 90,103 91,103 91,103 91,103 91,103 91,103 91,103 91,103 92,103 92,103 92,104 92,104 93,104 93,104 94,104 94,104 94,104 94,104 94,104 95,104 95,104 95,104 95,104 95,104 95,104 96,104 96,104 96,104 96,104 96,104 97,104 97,104 97,104 98,104 98,104 98,105 99,105 99,105 99,105 100,105 100,105 101,106 101,106 102,106 102,106 102,106 102,106 102,106 102,106 103,107 103,107 103,107 103,107 103,107 103,108 103,108 103,108 103,108 104,108 104,108 104,108 105,108 105,108 105,108 106,108 106,108 106,108 106,108 106,108 106,108 107,108 107,108 107,109 107,109 108,109 109,110 109,110 109,110 109,110 110,109 110,109 110,109 111,109 111,110 112,110 113,110 113,110 114,110 114,111 115,111 115,111 115,111 115,112 116,112 116,112 116,112 116,112 117,112 117,112 117,112 117,112 118,113 118,113 118,113 118,113 118,113 119,113 119,113 119,113 120,114 120,113 120,114 120,114 120,114 120,114 120,114 121,114 121,114 121,114 121,114 121,114 122,114 122,114 122,114 122,114 123,114 123,114 123,114 123,114 123,114 123,113 124,113 124,113 124,113 125,113 125,113 125,113 126,113 126,113 126,113 127,113 127,113 127,113 127,113 128,113 128,113 128,113 129,113 129,113 130,114 130,114 130,114 130,114 130,114 130,113 130,113 130,113 131,113 131,113 131,113 131,113 131,113 131,113 131,113 131,114 131,114 131,114 132,114 132,114 132,114 132,114 132,114 132,114 132,114 133,114 133,114 133,114 133,113 133,113 134,113 134,113 134,113 134,113 134,113 134,114 135,114 135,114 135,114 135,114 135,114 135,114 135,114 135,114 135,114 135,114 135,115 135,115 135,115 135,115 135,115 136,115 136,115 136,115 137,115 137,115 137,115 138,116 138,116 138,116 138,116 138,116 138,116 138,116 138,117 138,117 139,117 139,117 139,117 140,118 140,118 140,118 140,118 141,118 141,118 141,118 141,118 141,118 142,118 142,118 142,118 142,119 142,119 142,119 142,119 142,119 142,119 142,119 143,119 143,119 143,119 143,119 143,120 143,120 143,120 143,120 143,120 144,120 144,120 145,120 145,121 145,121 146,121 147,121 147,121 147,121 147,121 147,122 147,122 147,122 147,122 146,121 146,121 146,121 146,121 146,122 146,122 146,122 146,122 146,122 146,122 146,122 146,122 146,123 146,123 146,123 146,124 146,124 147,124 147,124 147,124 147,124 147,124 146,124 146,124 146,124 145,124 145,124 145,124 145,125 144,125 144,125 143,125 143,125 142,125 142,125 141,125 141,125 141,125 140,125 140,125 140,125 140,125 140,125 139,125 139,125 139,125 139,125 138,125 138,125 138,125 138,125 138,125 137,125 137,125 137,125 137,125 136,125 136,126 136,126 136,126 136,126 135,126 135,126 134,126 134,126 134,126 133,126 133,126 133,126 133,126 132,126 132,126 132,126 132,126 132,126 132,126 132,126 132,126 132,126 131,126 131,126 131,126 131,126 131,128 130,128 130,129 130,129 130,129 131,129 131,129 131,130 131,130 132,130 132,130 132,131 132,131 132,131 132,131 132,131 133,131 133,132 133,132 134,133 134,133 134,133 135,135 135,135 135,135 135,135 135,136 135,136 135,136 136,137 136,137 136,137 137,137 138,138 138,138 138,138 138,138 138,138 138,139 138,139 138,140 138,140 139,141 139,142 139,142 139,142 140,142 140,142 140,142 140,142 141,142 141,143 141,143 141,143 141,143 141,143 141,144 141,144 141,144 140,144 140,144 140,144 141,144 141,144 142,144 142,144 142,144 142,144 142,144 143,144 144,144 145,144 145,144 145,144 146,144 146,144 146,144 146,144 147,145 147,145 148,145 148,145 148,145 149,145 149,145 149,145 149,146 149,146 149,146 149,146 148,147 148,147 148,148 147,148 147,148 147,148 147,148 146,148 146,149 146,149 146,149 147,149 147,149 147,149 147,149 147,149 148,149 148,149 150,148 150,148 151,148 151,148 152,148 152,148 153,148 153,148 153,148 154,148 154,148 154,148 155,148 155,148 156,148 156,148 157,148 157,148 157,147 158,147 158,147 158,147 158,147 158,147 158,147 158,147 159,147 159,147 160,147 160,147 160,147 160,147 162,147 162,147 163,147 164,147 164,147 165,147 165,147 165,147 166,147 167,148 167,148 167,148 168,148 169,148 169,149 170,149 170,149 170,149 171,149 172,149 173,149 173,149 174,149 174,149 174,149 175,149 175,149 176,149 176,149 176,149 176,149 176,149 177,149 177,149 177,149 178,149 178,149 178,149 178,148 179,148 179,148 179,148 180,148 180,148 180,148 180,148 180,148 181,148 182,148 183,149 183,149 183,149 184,149 185,149 186,149 186,149 186,149 187,149 188,149 188,148 190,148 191,148 192,148 192,148 192,148 193,148 194,148 194,148 194,148 194,148 195,148 195,148 196,148 196,148 196,148 196,149 196,149 197,148 196,148 196,146 196,146 196,146 196,146 197,146 197,146 197,146 198,146 198,146 198,146 198,146 198,146 198,146 199,146 200,146 200,146 200,147 200,147 201,147 201,148 201,148 201,148 202,148 202,148 202,148 202,148 203,149 203,149 204,149 204,149 204,150 204,150 204,150 204,150 204,150 205,150 205,150 205,150 206,150 206,150 206,150 206,150 206,150 206,150 206,150 206,150 206,150 206,150 207,150 207,150 207,150 207,150 208,150 208,150 208,150 208,149 209,149 209,149 209,149 209,149 210,149 210,149 210,149 211,149 211,149 211,149 211,148 212,148 212,148 213,148 213,148 213,147 214,147 214,147 214,147 215,147 215,147 215,147 216,147 216,147 216,147 217,147 217,147 217,147 217,147 218,147 218,146 218,146 219,146 219,146 219,145 220,145 220,145 220,145 220,145 221,145 221,144 221,144 222,144 222,144 222,143 223,143 223,143 223,143 224,143 224,143 224,143 224,143 224,143 225,142 225,142 225,142 225,142 225,142 225,142 226,142 226,142 226,142 226,142 227,141 230,139 231,138 231,138 231,137 231,135 232,135 231,133 231,129 231,127 231,126 232,126 232,126 232,126 232,126 232,126 232,126 233,126 233,126 233,126 234,126 234,126 234,126 234,126 234,126 235,126 235,126 235,126 235,126 236,126 236,126 236,126 237,126 237,126 237,126 239,125 239,125 239,125 239,125 240,125 240,125 240,125 241,125 241,124 241,124 242,124 242,124 242,124 243,124 243,124 243,124 243,124 243,124 244,124 245,123 245,123 245,123 245,123 245,123 246,123 246,123 246,123 246,123 247,122 247,122 247,122 247,122 247,122 247,122 247,122 247,122 248,122 248,122 248,122 248,122 248,122 248,122 248,122 248,122 248,122 248,122 248,122 248,122 248,122 248,121 248,121 248,121 249,121 249,121 249,121 249,121 249,121 249,121 249,121 249,121 249,121 249,121 249,120 249,120 249,120 249,120 250,120 250,120 250,120 250,120 250,120 251,120 251,120 251,120 251,120 251,120 251,120 251,120 251,120 252,120 252,120 252,120 252,120 252,120 253,120 253,120 253,120 253,120 253,120 253,120 253,119 254,120 254,120 254,120 254,120 254,120 254,120 254,120 254,120 254,120 254,120 254,120 254,120 255,120 255,120 255,120 255,120 255,120 255,120 255,120 255,120 255,120 255,120 256,120 256,120 256,120 256,120 256,120 256,120 256,120 256,120 256,120 256,120 256,120 256,120 256,120 256,120 256,120 256,120 256,120 257,120 257,120 257,120 257,120 257,120 257,120 257,120 257,120 258,120 258,120 258,120 258,120 258,120 258,120 259,120 259,120 259,120 259,120 259,120 260,120 260,120 260,120 260,120 260,120 261,120 261,120 261,120 261,120 261,120 262,120 262,120 262,120 262,120 262,120 262,120 262,120 262,120 262,120 262,120 263,120 263,120 263,120 263,120 263,120 263,120 264,120 264,120 264,120 264,120 264,120 264,120 265,120 265,120 265,120 265,120 265,120 266,120 266,120 266,120 266,120 266,120 266,120 267,119 267,119 267,119 267,119 267,119 268,119 268,119 268,119 268,119 269,119 269,119 269,119 269,118 269,118 269,118 269,118 270,118 270,118 270,117 270,117 270,117 270,117 270,117 271,116 271,116 271,116 272,116 272,116 273,116 273,116 273,116 275,116 275,116 275,116 275,116 275,116 276,116 276,116 276,116 277,116 277,116 279,116 279,116 280,116 281,116 281,117 282,117 282,117 283,117 283,117 284,118 284,118 285,118 285,118 285,116 285,116 285,116 285,115 286,116 287,116 287,115 290,115 290,115 294,114 294,114 294,113 294,113 294,112 294,111 295,110 295,108 295,108 295,107 296,106 297,105 298,104 298,103 298,103 298,102 298,101 298,100 298,99 298,98 298,97 298,96 298,96 298,95 298,95 298,95 298,95 298,95 298,93 298,92 304,90 305,90 310,90 311,90 314,89 315,89 315,89 315,89 315,89 315,89 315,87 315,87 315,87 317,86 317,86 317,86 317,86 317,85 316,82 316,82 316,81 316,80 316,79 316,79 316,79 316,78 315,78 314,78 314,78 313,78 313,77 313,77 312,77 312,77 312,76 311,75 311,75 310,74 309,73 309,73 308,74 308,74 307,74 304,73 304,73 303,73 302,73 300,73 300,73 300,73 300,73 300,72 300,72 300,72 299,72 299,72 298,71 296,72 294,73 294,73 291,72 288,72 288,71 288,71 287,71 285,71 285,71 282,71 281,71 281,71 281,71 280,71 280,71 280,71 279,71 278,71 278,71 277,71 276,71 276,71 276,71 275,71 274,71 272,70 272,70 271,70 268,70 268,70 266,71 266,71 265,71 265,71 265,71 264,71 264,71 263,71 263,71 263,71 263,71 263,71 262,71 259,71 259,71 258,72 258,72 256,72 256,72 252,72 252,72 252,71 252,71 252,71 252,71 252,71 252,70 251,70 251,69 251,69 251,69 251,68 251,68 250,67 250,66 250,66 250,65 249,65 248,64 248,64 248,64 248,63 248,63 247,62 247,62 247,61 247,60 247,60 247,59 246,58 246,57 246,57 246,56 246,54 246,54 245,52 245,52 245,52 245,52 244,51 244,50 244,49 243,49 243,49 242,47 242,47 242,47 243,47 243,47 244,46 245,46 245,46 246,46 246,45 246,45 246,45 247,45 247,45 247,45 247,45 248,45 248,45 248,45 248,45 248,45 248,45 248,45 248,45 248,45 248,45 248,45 248,44 248,44 249,44 249,44 249,43 250,42 250,42 251,41 251,41 251,40 252,40 252,40 253,39 253,38 254,38 254,38 254,37 254,37 255,36 255,36 255,35 255,34 255,33 254,33 254,32 255,32 255,32 256,32 257,32 257,32 257,32 259,32 261,32 261,32 261,32 261,31 261,31 262,32 263,32 263,32 263,31 263,31 264,31 264,31 264,31 266,31 268,31 268,31 269,30 271,30 273,30 273,30 273,30 273,30 273,30 273,30 274,30 274,30 276,30 276,30 277,30 278,29 279,28 280,28 281,27 282,27 282,27 282,27 283,28 284,28 284,28 285,28 285,28 285,28 287,29 287,29 288,29 289,29 289,29 290,29 292,30 292,30 292,30 293,30 294,31 294,31 295,31 295,31 295,31 295,31 295,30 296,29 296,29 296,29 295,28 295,27 296,27 296,26 296,25 296,24 295,24 295,24 295,23 295,23 295,22 295,22 295,21 295,21 294,20 294,20 293,20 293,20 293,20 293,19 293,19 292,18 292,18 293,18 294,18 294,18 295,17 295,17 296,17 298,17 299,16 300,16 302,15 303,15 304,14 304,15 304,16 304,17 305,16 306,16 308,16 308,16 309,16 310,16 311,16 311,16 311,15 311,14 311,13 311,13 311,12 311,12 311,12 311,11 312,11 313,11 314,11 315,11 317,12 318,12 320,12 320,12 321,13 322,13 323,13 323,13 325,13 325,13 326,13 327,13 329,13 331,13 330,11 331,10 333,10 335,10 336,10 337,10 337,9 337,8 337,8 336,8 336,7 336,7 335,7 335,7 335,7 335,6 335,5 335,5 334,5 333,4 334,4 334,4 334,4 334,4 334,4 333,4 333,3 333,2 335,2 335,1 335,1 336,1 336,1 337,1 338,1 340,0 341,0 342,0 343,0 344,0 344,0 345,0 347,1 349,1 349,1 350,1 351,1 352,1 352,1 353,1 354,1 354,1 356,0 357,0 357,0 357,0 358,0 359,0 360,0 361,0 361,0 362,0 364,1 366,1 366,1 367,2 368,2 368,3 368,4 368,5 368,6 368,6 367,8 368,8 368,9 370,10 370,10 371,11 371,11 370,12 370,13 370,13 370,13 371,13 371,13 372,13 372,13 373,13 373,13 373,14 372,14 372,14 372,15 372,15 371,15 371,15 371,15 370,15 370,15 370,15 370,15 370,15 370,15 370,15 370,15 371,15 371,15 372,15 372,15 372,15 372,15 372,15 372,16 371,16 371,16 371,16 371,16 370,16 370,16 370,16 370,16 370,16 370,16 370,16 370,16 370,16 370,17 370,17 370,17 370,17 370,17 368,17 368,16 368,16 368,16 368,17 367,17 367,17 367,17 366,17 366,17 366,18 365,18 365,18 365,18 365,18 365,19 365,19 365,19 365,19 365,20 365,20 365,21 365,21 366,21 366,21 366,21 366,21 366,21 366,21 365,21 365,21 366,22 366,22 366,21 366,21 367,21 367,21 367,21 367,22 367,22 367,22 367,22 368,23 367,23 367,23 367,23 367,22 367,23 367,23 367,23 366,23 366,24 366,24 366,24 366,25 365,25 365,26 365,26 366,26 366,26 366,26 366,26 366,26 366,26 366,26 366,27 366,27 366,27 366,27 366,27 366,27 367,27 367,27 367,27 367,27 368,27 370,27 369,28 369,28 371,28 372,28 374,28 375,28 376,30 377,31 378,33 378,34 379,35 380,35 382,35 383,35 384,35 384,35 384,34 385,34 386,35 387,36 388,37 390,39 391,40 392,42 393,42 394,42 395,42 396,42 397,41 397,40 398,39 398,38 399,37 399,36 399,36 401,36 401,37 403,37 405,37 408,36 408,37 408,37 408,38 410,37 412,37 414,36 416,36 418,36 418,35 420,35 421,35 423,35 423,35 425,35 425,35 425,34 425,34 426,34 428,34 429,33 429,34 431,34 432,34 433,34 434,34 435,34 436,34 438,34 438,34 439,34 440,34 442,34 442,34 443,33 443,33 443,33 444,33 445,33 445,33 447,33 448,33 447,34 448,34 448,35 447,36 447,36 449,36 450,36 451,36 453,35 453,35 453,35 453,35 453,34 453,34 453,34 453,34 455,34 456,34 457,34 458,35 458,36 459,36 460,37 460,37 460,37 461,37 461,38 462,38 462,38 462,38 463,42 462,43 462,43 462,44 463,44 463,43 463,43 464,43 464,43 465,42 465,42 467,42 469,42 471,42 473,41 475,41 476,41 477,41 477,41 477,41 477,42 477,42 476,43 476,43 476,44 475,44 474,46 473,47 472,47 472,48 472,48 471,50 470,50 469,51 468,52 467,54 466,55 465,55 465,56 464,56 464,57 464,57 463,58 463,59 462,59 462,60 462,61 461,61 461,62 460,63 459,63 458,65 457,65 456,66 456,66 456,66 455,67 455,67 455,67 455,68 455,68 455,69 456,69 456,70 456,70 457,70 457,71 457,71 459,71 461,72 463,73 464,73 465,73 466,74 468,74 469,75 471,75 472,75 473,76 474,76 475,76 476,77 477,77 478,77 479,77 479,77 480,77 480,77 482,77 484,77 485,78 485,78 487,79 488,79 489,80 490,80 491,80 492,81 493,81 494,81 494,82 496,83 498,83 499,84 500,85 499,86 499,86 497,87 497,87 496,87 494,88 493,89 491,89 490,90 490,92 491,94 491,95 492,96 492,97 492,97 489,97 485,98 483,99 478,100 472,102 467,103 467,103 465,103 463,104 463,104 463,106 463,106 463,107 464,107 464,107 464,108 465,108 466,110 467,112 467,113 464,114 460,114 456,115 456,115 455,116 456,116 455,116 455,117 452,118 447,122 444,124 444,124 444,125 443,128 442,132 441,134 443,134 444,134 445,134 449,135 451,136 452,136 454,136 456,136 458,136 463,136 470,137 474,138 475,138 478,137 479,137 480,137 481,138 483,139 484,140 486,141 488,142 489,143 489,145 489,148 488,149 488,151 488,153 489,156 491,159 493,162 495,166 496,167 496,167 496,170 497,171 497,171 496,172 495,174 495,175 494,176 493,178 493,179 492,181 491,181 491,181 490,182 489,182 487,183 486,183 485,184 485,184 484,185 484,185 483,186 482,187 482,188 482,190 481,190 481,190 481,191 480,193 480,193 480,194 480,195 480,195 479,195 479,196 478,197 478,197 477,198 477,198 477,199 477,199 476,200 476,201 476,202 476,203 476,204 477,205 477,205 477,208 477,209 474,208 473,208 471,208 471,208 470,207 468,206 467,206 465,204 463,202 462,202 462,202 461,201 461,201 458,200 457,199 457,199 454,197 453,197 451,195 450,195 450,194 448,193 448,193 447,193 447,192 446,192 445,192 445,192 443,192 442,192 438,192 438,192 438,193 438,193 437,193 436,193 433,192 432,192 428,193 427,193 426,193 425,193 425,193 425,193 425,194 426,194 426,194 425,194 425,194 425,195 425,195 425,195 425,196 425,197 424,197 424,197 424,197 423,197 423,197 423,197 423,198 423,198 423,198 423,199 422,199 422,200 422,200 422,201 421,202 421,202 421,202 421,204 421,204 421,204 421,205 420,205 420,206 420,206 420,206 420,206 420,206 420,206 420,206 421,206 420,207 420,207 420,207 421,207 421,207 421,207 421,207 421,207 421,207 421,207 420,208 421,208 421,208 420,208 420,208 420,208 420,208 420,209 420,209 420,208 421,208 421,208 421,208 421,208 421,208 421,209 421,209 421,209 421,209 421,210 421,211 422,211 422,211 422,211 422,212 422,213 420,213 418,213 418,214 417,214 417,214 417,214 418,215 417,215 418,216 418,216 417,217 417,218 417,218 417,218 417,219 417,219 416,219 416,220 416,220 415,220 415,221 414,221 415,222 415,222 415,223 414,223 414,224 414,224 414,224 413,224 413,225 415,225 415,226 414,227 413,227 413,227 412,227 412,227 411,228 411,228 412,229 412,231 412,232 410,232 409,232 409,233 408,233 404,233 401,233 399,234 398,234 398,235 397,235 397,235 397,236 396,236 395,237 395,237 395,237 395,237 394,237 394,237 393,238 393,238 392,238 392,238 392,238 395,241 397,243 399,245 396,246 396,246 392,247 392,247 390,247 388,248 386,249 385,249 383,250 383,251 382,251 382,251 381,251 382,251 383,252 384,253 384,253 384,253 385,254 385,255 386,256 386,256 387,257 387,258 387,258 388,259 389,259 389,260 390,261 390,261 390,261 390,261 391,262 391,262 391,262 391,263 392,264 392,264 391,264 391,264 392,264 392,264 392,264 393,264 396,268 398,270 398,270 398,270 399,271 399,271 400,271 400,272 400,272 402,274 402,274 403,275 403,276 404,279 404,279 404,280 404,280 405,282 405,282 405,282 405,283 405,283 405,284 405,285 405,286 405,286 405,286 405,287 405,287 405,287 404,287 404,287 403,288 403,288 403,288 403,288 402,288 401,289 400,290 400,290 399,291 399,291 398,290 395,291 395,291 395,291 395,291 394,291 394,292 394,292 394,292 394,292 392,293 391,293 393,294 390,295 389,295 389,295 389,296 388,296 388,296 388,296 388,296 383,296 383,297 383,297 382,296 381,296 381,296 381,296 381,296 380,297 380,297 379,297 379,297 379,298 379,298 378,298 378,298 378,298 378,299 378,299 378,299 378,299 378,299 378,299 378,299 378,300 378,300 377,300 377,300 373,305 372,307 370,308 370,308 370,308 370,308 369,308 369,308 370,309 370,309 370,309 370,309 369,309 369,309 369,309 368,309 368,309 367,309 365,309 365,309 364,309 364,309 365,310 365,310 364,310 364,310 363,310 363,310 362,310 361,311 361,311 360,311 359,311 359,312 359,312 358,312 358,312 358,313 358,313 358,314 358,314 358,314 358,314 358,314 358,315 358,315 358,315 358,315 358,315 358,315 357,315 357,315 357,315 356,315 356,316 356,316 355,316 355,316 354,316 354,316 354,316 354,316 353,317 353,317 352,317 352,317 351,317 351,317 350,317 350,317 350,318 349,318 349,318 349,318 349,318 348,318 347,319 347,319 347,319 346,319 346,319 346,320 346,319 345,319 345,319 344,319 344,319 343,319 343,320 343,320 343,320 343,320 343,320 343,321 343,321 342,321 342,321 342,321 342,321 341,321 340,321 340,321 339,321 339,321 339,321 338,321 338,322 338,323 338,323 338,323 338,323 338,324 338,324 337,324 337,324 337,324 336,324 336,324 335,325 334,325 334,325 334,326 333,326 333,327 333,327 333,327 333,327 333,328 333,328 333,328 332,329 332,329 332,329 333,330 333,330 333,330 333,331 333,332 333,333 333,333 334,334 333,334 333,335 333,335 333,335 333,336 333,336 333,336 333,336 333,336 333,336 333,337 333,337 333,337 333,337 333,337 333,338 333,338 333,338 334,338 334,338 334,338 334,338 334,338 334,338 335,339 335,339 335,340 335,340 336,340 336,340 336,340 336,340 336,340 336,341 336,341 336,342 336,342 336,342 336,343 336,343 336,343 336,343 336,343 336,344 336,344 336,344 336,344 335,344 335,345 335,345 334,345 334,345 334,345 334,345 334,346 333,346 334,347 333,348 333,348 333,348 333,348 332,348 332,348 332,348 332,349 332,349 332,349 332,349 332,349 332,350 332,350 331,350 332,351 332,351 331,351 331,351 332,352 332,352 332,352 333,353 333,353 333,354 333,354 333,354 333,355 334,355 334,355 334,355 334,355 334,355 335,355 335,355 335,355 337,355 338,354 338,354 339,354 339,354 340,353 340,353 341,353 342,352 342,352 343,352 343,352 343,352 343,353 343,353 343,353 343,353 343,353 343,353 343,354 343,354 343,354 343,355 344,355 344,356 344,356 344,356 344,357 343,357 343,358 343,358 343,358 343,359 343,359 343,359 343,359 343,359 343,359 343,359 344,360 344,360 344,360 343,360 343,360 342,361 342,361 342,361 341,362 341,363 341,364 341,364 341,365 340,365 340,365 340,365 340,366 339,366 338,367 336,369 334,370 329,374 330,373 330,373 332,373 332,373 334,373 334,373 335,373 336,373 336,373 336,373 337,373 337,373 337,373 338,372 338,372 339,372 339,372 339,372 339,373 339,373 339,373 339,374 339,374 342,375 342,375 342,376 342,376 341,377 341,377 342,378 342,378 343,378 344,377 344,378 344,378 344,378 344,378 344,379 345,380 345,380 345,380 345,380 344,380 343,381 342,381 340,381 339,383 339,383 338,384 338,384 338,384 337,384 337,384 336,384 336,384 335,384 335,384 334,386 334,386 334,386 333,386 333,386 333,386 332,386 332,386 331,386 331,386 331,386 331,386 330,386 330,386 330,386 330,386 330,386 329,386 329,386 329,386 329,386 329,386 329,386 328,386 328,386 328,386 327,386 327,386 327,386 327,386 326,386 326,386 326,386 326,386 325,386 325,386 325,386 325,386 325,386 325,386 324,386 324,386 324,386 324,386 323,387 323,387 322,386 322,386 322,386 322,386 322,386 322,386 321,386 321,386 321,386 321,386 321,387 321,387 321,387 320,387 320,387 320,387 320,387 320,387 320,387 320,388 319,388 319,388 318,388 318,388 318,388 318,388 318,388 317,388 317,388 317,388 316,388 316,388 316,388 316,388 315,388 315,388 315,388 314,388 314,388 314,388 314,388 314,388 314,389 313,388 313,388 313,388 313,388 313,388 313,388 313,388 313,388 312,388 312,387 312,387 311,387 311,387 311,387 310,387 310,387 309,387 309,386 308,387 308,387 308,387 307,387 307,387 307,387 306,387 306,387 306,387 305,387 305,387 304,387 304,387 303,387 303,388 303,388 302,388 301,388 301,388 301,388 300,388 299,389 299,388 299,388 298,388 298,388 298,388 297,387 297,387 297,387 297,387 297,386 297,384 297,384 297,384 296,384 294,384 294,384 294,384 294,384 294,384 293,384 293,385 292,385 292,385 292,385 291,385 291,385 290,385 290,385 289,385 289,385 289,385 289,385 288,385 288,385 287,385 286,386 286,386 285,386 285,386 285,386 284,386 284,387 283,387 283,387 282,388 282,388 282,388 282,388 282,388 281,388 281,389 281,389 280,389 280,389 279,390 279,390 278,390 278,390 278,390 277,390 277,390 276,390 275,391 275,391 274,391 273,391 273,391 273,391 273,391 272,391 272,391 272,391 272,391 271,391 271,391 271,392 270,392 270,392 270,392 269,392 269,392 269,392 269,392 269,392 268,392 268,392 268,392 268,392 268,392 267,392 267,392 266,392 266,392 266,392 266,393 265,393 265,393 265,393 265,393 265,394 264,394 264,394 264,395 264,395 263,395 263,396 263,396 263,396 262,396 262,396 262,397 262,397 262,397 261,397 261,397 261,397 260,396 260,396 260,396 259,396 259,396 258,396 258,396 258,395 258,395 258,395 259,395 258,395 257,394 257,394 256,394 256,394 255,394 255,394 253,394 253,394 252,394 252,394 252,393 252,394 251,394 251,393 250,393 249,393 248,393 247,393 246,392 247,392 247,392 247,391 246,391 246,391 245,392 243,392 243,392 243,392 242,392 241,391 241,390 240,390 239,389 239,389 238,389 238,388 238,388 238,388 238,388 239,387 239,387 239,387 239,387 239,387 239,386 239,386 239,386 238,385 238,385 238,385 238,385 238,384 238,384 238,384 240,383 240,382 240,382 240,380 240,380 240,379 240,379 240,379 239,379 239,379 239,379 239,378 239,378 238,378 237,378 236,378 235,378 235,377 235,377 235,377 236,377 236,377 236,377 237,377 237,377 237,377 237,377 237,376 237,376 237,376 237,375 237,374 237,374 237,374 237,373 237,373 238,373 238,373 237,372 236,373 237,372 237,371 237,371 237,370 237,370 236,370 236,369 236,369 236,368 236,368 236,368 235,368 236,368 236,368 236,367 236,367 236,366 236,366 235,365 234,364 234,364 234,364 234,363 234,362 233,362 233,361 233,361 233,360 233,360 233,360 233,359 233,359 233,359 233,358 233,358 234,358 234,357 234,357 234,357 234,357 234,356 234,356 233,355 234,355 234,354 234,354 234,353 233,353 233,352 233,351 233,351 234,351 235,351 234,350 236,349 237,349 238,349 238,349 238,348 238,348 237,348 236,348 235,349 234,349 233,349 233,348 232,348 232,348 232,348 232,347 231,346 231,346 231,346 230,346 229,346 229,345 229,345 229,345 228,345 228,345 228,345 227,345 226,346 225,346 226,346 225,347 225,347 225,348 225,348 224,348 224,349 223,350 223,350 223,350 221,349 220,349 220,350 217,350 217,350 216,351 215,351 214,350 214,349 214,349 213,349 211,349 211,349 211,349 210,348 210,349 210,348 210,348 209,348 209,348 209,348 209,348 209,348 209,348 208,348 208,348 208,348 207,348 207,348 207,348 207,347 207,346 207,346 206,346 206,346 205,346 204,346 204,346 204,346 203,347 203,347 203,347 202,347 201,347 200,347 200,348 200,348 199,348 199,348 199,348 199,348 198,349 198,350 198,351 197,351 196,351 196,351 196,351 195,351 195,351 194,352 194,352 195,352 195,353 195,353 195,353 195,353 195,353 196,354 195,354 195,355 194,355 193,356 193,356 193,356 194,356 194,356 194,356 194,357 195,358 195,358 196,360 196,361 196,361 196,361 196,362 195,362 195,362 195,362 194,362 194,362 194,362 194,362 193,362 193,362 192,363 192,363 191,363 191,364 191,364 192,365 192,365 192,366 192,366 192,366 192,366 192,366 193,367 193,367 193,367 193,367 193,367 193,367 193,368 194,368 194,368 193,369 193,369 193,369 193,369 193,370 193,370 192,370 192,370 192,370 192,370 192,370 192,370 191,370 191,370 191,370 191,370 191,370 190,370 190,370 190,370 189,369 189,369 189,369 189,369 189,369 188,369 188,369 188,369 187,369 187,369 187,369 186,369 186,370 186,370 185,370 185,370 185,370 185,370 185,370 185,371 185,371 185,371 185,371 186,371 186,371 186,371 186,372 186,372 185,372 185,372 185,372 185,372 185,372 185,372 185,372 186,373 186,373 185,373 185,373 185,373 185,373 185,373 185,373 185,373 185,373 185,373 185,373 185,373 184,373 184,373 185,374 185,374 185,374 185,374 185,374 185,374 185,374 185,374 185,374 185,374 185,374 185,375 185,375 185,375 184,375 184,375 185,375 185,375 185,375 185,375 185,375 186,375 186,375 186,375 186,376 186,376 187,376 187,376 187,376 187,376 187,376 187,376 187,376 187,376 186,377 186,377 187,377 187,377 187,377 186,377 186,377 186,378 186,378 187,378 187,378 187,379 187,379 187,379 188,379 188,379 188,379 188,379 188,379 188,380 188,380 188,380 188,380 188,380 188,380 188,381 188,381 188,381 188,381 188,381 188,382 188,382 188,382 188,382 188,383 188,383 188,383 188,383 188,383 188,383 188,384 187,384 187,384 187,384 187,385 187,385 186,385 185,385 184,385 184,385 182,386 181,387 180,388 179,387 179,387 179,387 179,387 179,387 179,386 179,386 179,386 179,385 179,385 178,385 178,385 177,385 177,385 177,386 176,386 176,386 175,386 175,387 175,387 175,387 175,387 174,387 174,387 173,387 173,387 172,387 172,387 172,388 172,388 172,388 172,388 172,389 172,389 172,389 172,389 171,390 171,390 170,390 170,390 169,391 169,391 169,391 169,391 169,391 168,391 167,391 165,391 164,392 164,392 164,392 162,391 162,391 162,391 160,391 159,390 159,390 159,390 159,390 158,390 158,390 158,389 157,389 156,389 155,389 155,389 154,389 154,388 153,388 152,388 154,387 153,387 153,386 152,386 152,386 152,386 151,386 150,386 150,386 150,386 150,386 150,385 150,385 150,384 150,384 150,384 150,384 149,384 149,384 148,384 147,384 147,384 147,384 145,384 145,384 145,384 144,384 143,384 142,384 142,384 142,384 140,385 139,385 139,385 138,385 136,385 136,384 135,384 135,384 135,384 134,384 134,383 134,381 134,380 134,379 131,378 130,376 130,376 132,376 133,376 134,375 135,374 136,374 137,374 137,374 138,374 137,373 137,373 136,372 136,372 135,372 136,371 137,370 137,370 138,370 139,371 143,371 144,371 147,370 148,369 149,369 151,369 151,369 150,367 147,366 145,366 144,365 144,365 142,364 142,363 142,361 143,359 144,358 145,357 147,356 148,355 148,355 148,353 149,352 148,351 148,350 147,349 146,349 145,348 145,348 144,346 143,345 142,345 142,345 142,344 142,343 141,343 140,343 140,342 140,342 139,341 139,341 139,339 138,339 139,338 140,337 140,336 139,335 139,335 139,335 140,334 141,332 142,330 142,330 143,328 145,328 146,328 146,328 148,328 148,328 149,327 149,327 150,327 151,327 151,326 151,325 153,325 155,323 155,323 159,322 160,322 161,321 162,321 162,320 165,317 165,317 166,315 164,315 164,315 164,315 162,313 162,313 162,311 162,309 162,309 163,308 165,307 165,307 164,305 164,304 164,303 164,302 164,302 163,302 161,302 160,301 158,300 156,299 155,299 155,298 153,297 152,297 150,296 149,296 149,296 148,295 145,294 143,294 142,293 141,294 139,294 138,295 138,295 137,294 137,293 137,292 136,291 136,291 136,291 134,289 133,288 133,288 132,287 131,286 131,286 132,285 132,285 133,284 133,284 132,283 131,283 131,281 129,281 127,279 127,278 127,278 127,278 127,277 127,277 127,277 127,276 128,276 128,275 127,275 128,274 127,274 127,273 127,273 127,273 126,273 126,272 127,272 127,272 127,272 127,271 127,271 127,270 127,270 128,269 128,269 127,268 127,268 127,268 126,268 125,267 125,267 125,266 124,264 124,263 123,263 123,262 122,261 121,261 121,261 121,261 120,260 120,259 120,258 120,258 120,257 120,257 120,256 121,255 121,255 122,255 122,255 121,254 121,254 122,253 122,252 122,252 119,251 119,250 118,249 118,247 118,246 117,244 116,243 115,243 114,242 112,242 112,241 111,239 111,238 112,237 112,236 111,235 111,235 111,233 110,233 110,233 109,232 109,232 110,231 111,229 111,229 112,229 114,226 114,225 115,224 116,223 116,222 117,222 119,221 120,220 121,220 122,219 122,218 122,217 122,216 122,216 120,216 119,215 118,214 117,213 117,213 115,212 113,211 113,211 112,210 111,209 110,208 108,207 107,206 107,204 107,204 106,203 106,202 105,201 105,201 105,199 103,197 102,196 102,196 101,195 100,194 100,194 100,194 98,193 97,192 97,192 96,191 96,190 95,189 95,188 95,187 95,186 94,185 94,184 91,183 90,183 90,183 90,182 87,180 87,179 84,178 80,176 78,176 77,175 75,174 72,173 70,172 69,172 68,171 68,170 67,168 66,168 66,167 64,166 62,165 61,165 60,165 59,164 58,164 58,163 57,161 57,161 56,160 56,160 56,159 57,158 57,158 55,157 51,156 50,155 49,155 49,155 48,155 41,156 39,156 34,155 34,155 33,154 27,152 27,152 25,152 17,149 17,148 17,147 16,145 15,145 15,145 14,144 13,143 12,143 8,141 6,141 5,140 2,137 1,136 1,135 0,135" id="4207" class="canton" fill="steelblue" stroke-width="1" stroke="white" geotype="canton" geoname="Montbrison" code_insee="4207" code_departement="42" nom_departement="Loire" code_region="84" nom_region="Auvergne-Rhône-Alpes"/></svg>