<?xml version="1.0" encoding="utf-8"?>
<svg version="1.1" id="svgmap" xmlns="http://www.w3.org/2000/svg" xmlns:xlink="http://www.w3.org/1999/xlink" x="0px" y="0px" width="100%" height="100%" viewBox="0 0 500 163">
<polygon points="206,31 210,34 224,33 228,32 232,30 238,25 248,18 253,16 263,14 280,10 294,7 308,4 321,0 323,6 324,11 324,13 322,16 320,19 318,24 343,32 352,35 365,36 367,32 370,22 371,17 381,18 384,18 390,18 399,19 404,19 409,18 414,18 419,18 426,17 432,17 442,18 450,22 455,25 459,32 461,30 464,27 466,26 471,26 478,25 483,24 486,23 491,32 493,43 489,50 489,52 484,60 487,61 484,65 486,65 489,69 491,70 492,72 496,79 499,83 499,86 500,91 500,94 499,96 498,98 493,101 489,104 486,107 484,112 482,116 480,122 479,125 479,129 479,131 481,134 480,134 478,135 477,136 473,139 468,141 463,144 456,146 450,149 443,152 438,155 429,158 423,160 414,163 405,159 397,155 392,151 387,150 384,150 381,149 375,149 373,147 360,138 344,128 334,122 330,125 325,129 318,132 315,133 309,129 307,128 300,124 297,123 286,121 279,119 277,119 268,112 258,105 251,100 247,97 258,94 248,82 237,84 235,85 230,76 215,78 214,87 214,90 215,93 219,103 223,104 228,110 217,112 215,112 204,113 176,117 176,121 183,129 179,127 174,124 161,121 156,120 154,128 147,130 143,135 144,136 145,136 146,136 149,135 151,134 152,134 151,135 150,137 150,139 151,140 151,141 150,141 144,143 139,141 137,141 136,142 135,142 136,144 137,148 132,150 126,144 118,137 117,133 115,129 113,118 109,114 104,111 104,112 104,114 103,117 101,119 101,120 99,120 93,116 91,116 89,116 85,118 81,122 76,127 76,121 80,108 84,95 88,85 88,83 90,83 98,89 102,87 118,74 112,65 111,63 112,59 107,59 96,58 89,58 83,57 74,54 72,55 72,55 71,56 70,56 68,56 66,55 61,51 59,51 58,51 54,57 53,58 49,59 43,60 36,60 19,60 19,57 18,52 24,46 25,43 27,41 29,39 30,36 28,34 13,28 0,23 5,21 18,8 25,1 32,1 38,1 64,1 67,0 72,2 79,2 79,0 99,11 109,17 119,23 127,29 129,31 135,30 143,29 144,35 145,38 152,36 156,35 163,33 168,32 182,29 184,29 195,27 198,26 206,31" id="4214" class="canton" fill="steelblue" stroke-width="1" stroke="white" geotype="canton" geoname="Saint-Etienne-1" code_insee="4214" code_departement="42" nom_departement="Loire" code_region="84" nom_region="Auvergne-Rhône-Alpes"/></svg>