<?xml version="1.0" encoding="utf-8"?>
<svg version="1.1" id="svgmap" xmlns="http://www.w3.org/2000/svg" xmlns:xlink="http://www.w3.org/1999/xlink" x="0px" y="0px" width="100%" height="100%" viewBox="0 0 500 280">
<polygon points="6,33 6,33 7,33 8,32 8,32 8,32 8,31 8,31 8,30 8,30 9,30 9,29 8,29 8,29 8,28 7,28 7,28 7,28 7,29 7,29 7,29 6,29 6,28 6,28 6,28 6,27 6,27 6,27 7,27 6,26 6,26 6,25 8,24 9,25 13,29 14,30 14,31 14,33 14,34 13,36 13,36 16,36 16,36 19,32 23,27 25,24 30,17 30,17 43,25 48,28 53,31 54,31 57,32 59,32 59,32 62,32 67,31 68,27 68,25 68,24 67,23 67,21 67,21 69,18 68,17 67,15 67,12 67,11 69,9 62,7 62,7 62,6 62,3 62,2 61,1 61,0 64,0 71,0 72,0 77,1 87,4 94,5 97,6 100,6 103,6 104,6 108,7 109,7 110,7 111,7 118,11 119,11 121,12 122,12 124,12 126,13 129,13 129,14 129,14 129,17 129,18 130,18 131,19 133,19 136,19 136,20 137,20 138,23 139,24 140,24 140,24 142,24 142,24 142,24 143,24 145,23 145,23 146,23 147,23 148,23 149,24 150,24 151,24 151,25 151,26 152,26 153,26 153,27 154,27 155,27 154,28 155,29 155,29 157,29 160,30 161,31 162,31 162,31 163,32 164,34 176,38 176,39 181,40 183,42 184,43 186,43 189,44 189,44 190,43 193,44 193,44 194,45 195,45 196,45 196,46 197,46 197,47 198,47 199,40 199,48 200,48 200,49 202,51 203,51 202,52 202,52 202,53 202,53 204,54 204,54 204,55 204,56 204,56 205,56 205,57 207,56 209,56 210,57 211,58 213,59 214,61 213,61 214,62 214,62 215,62 216,62 216,63 216,63 215,63 215,63 216,64 217,63 217,64 220,66 221,66 222,67 222,67 225,67 227,68 229,68 229,69 230,76 230,77 231,84 231,84 234,84 234,84 234,84 234,85 234,85 234,88 234,88 234,89 234,89 234,91 235,91 233,93 233,93 233,94 233,96 233,97 233,97 231,102 231,102 231,102 231,103 231,104 232,106 231,109 230,109 229,111 228,111 228,111 228,111 228,111 229,111 229,112 228,112 228,112 229,113 229,113 230,112 231,112 237,110 240,109 244,107 246,107 254,106 257,106 260,106 263,105 265,104 266,103 267,103 268,103 268,102 270,100 272,97 274,96 277,94 280,92 281,92 283,91 284,93 285,96 286,100 286,100 288,103 288,103 289,103 290,103 290,103 289,101 288,98 288,96 289,94 290,93 290,91 293,88 293,88 296,87 296,87 298,88 299,88 300,86 301,86 303,86 306,87 308,87 309,87 310,88 311,89 312,90 313,91 330,97 330,98 332,98 335,98 342,98 343,99 347,102 350,107 349,111 349,124 349,127 346,128 342,128 340,128 338,129 330,135 324,140 329,147 338,167 342,178 348,190 350,195 354,201 359,206 365,206 374,207 380,208 384,210 389,213 392,215 395,219 401,219 401,216 402,207 403,198 405,188 406,182 408,184 415,189 421,193 426,198 429,202 434,207 439,212 447,218 453,222 456,225 459,229 460,234 463,243 465,248 483,243 486,250 494,248 499,251 500,251 489,255 491,258 492,259 487,260 488,264 484,265 486,266 492,267 488,267 483,267 478,267 476,267 469,266 468,269 466,276 465,280 456,278 450,276 432,271 434,268 435,265 436,263 436,262 435,259 434,254 425,257 416,259 406,261 394,264 387,265 384,266 377,272 372,275 370,276 367,277 357,278 354,276 357,274 354,271 353,268 352,268 351,266 350,261 349,256 346,254 347,248 347,248 346,246 334,248 322,250 320,241 319,237 317,231 315,222 314,218 307,219 306,217 305,210 303,206 301,198 303,199 308,199 316,198 314,190 312,184 311,179 310,175 297,174 289,174 284,173 282,170 276,167 273,166 269,165 262,163 257,162 254,160 250,159 247,158 244,158 239,159 238,160 235,161 230,166 227,168 223,171 219,173 216,176 213,179 211,180 209,181 202,185 200,186 199,189 198,190 198,193 197,194 196,196 195,198 194,199 191,199 189,200 188,201 186,200 184,199 183,197 182,197 180,196 175,195 172,194 169,193 168,192 167,190 165,187 164,185 163,184 158,179 158,179 149,175 147,174 146,173 144,170 142,168 140,164 138,162 137,162 135,162 134,162 130,162 123,162 119,162 116,162 114,162 113,161 112,161 111,160 109,156 107,153 105,150 105,150 102,148 102,148 100,146 100,146 96,142 95,142 94,141 86,145 86,145 86,146 86,147 86,147 83,150 82,151 81,151 71,148 66,147 65,147 66,146 65,143 65,143 62,140 62,139 61,137 61,132 59,125 59,123 58,122 56,120 55,118 54,118 54,117 53,117 51,114 45,116 44,117 42,119 41,119 40,117 37,114 36,112 34,110 33,110 32,108 32,108 32,108 31,107 31,107 30,107 30,106 29,106 29,106 28,106 27,105 26,104 26,103 24,101 23,100 20,97 19,95 19,95 19,94 18,94 18,93 17,93 16,91 15,90 15,89 13,88 13,87 12,86 11,85 11,84 10,83 9,82 9,82 9,81 8,80 8,79 7,76 6,76 5,73 5,72 5,72 4,70 4,69 4,69 3,69 3,68 3,67 2,66 1,65 0,63 0,63 0,62 0,62 1,60 1,60 1,58 1,57 1,55 1,54 1,53 1,53 0,52 1,50 1,49 2,47 2,46 2,45 1,44 1,43 3,41 4,39 5,37 5,36 6,34 6,34 6,33" id="4217" class="canton" fill="steelblue" stroke-width="1" stroke="white" geotype="canton" geoname="Saint-Etienne-4" code_insee="4217" code_departement="42" nom_departement="Loire" code_region="84" nom_region="Auvergne-Rhône-Alpes"/></svg>