<?xml version="1.0" encoding="utf-8"?>
<svg version="1.1" id="svgmap" xmlns="http://www.w3.org/2000/svg" xmlns:xlink="http://www.w3.org/1999/xlink" x="0px" y="0px" width="100%" height="100%" viewBox="0 0 500 278">
<polygon points="204,0 204,0 205,0 206,0 207,1 207,1 207,1 207,1 210,1 211,1 214,1 215,1 216,1 217,1 218,2 218,2 221,5 222,6 226,11 227,12 227,12 228,19 228,20 229,20 229,20 233,18 233,18 236,18 237,20 239,19 240,18 241,18 242,19 243,19 246,19 249,19 246,16 247,15 249,15 250,15 250,14 251,14 252,13 253,13 255,13 261,11 262,10 265,9 265,9 267,9 271,7 274,6 274,6 276,6 276,6 277,5 278,5 278,5 277,6 277,7 277,7 277,7 277,8 276,8 276,9 276,9 276,9 276,9 285,12 285,12 286,11 287,9 289,9 294,7 295,7 298,7 303,6 304,6 304,6 305,7 305,7 304,8 304,9 303,9 302,11 302,12 302,13 302,13 302,14 302,14 302,15 301,16 301,17 302,17 302,18 302,18 301,19 301,20 302,21 301,21 301,22 301,22 301,23 301,23 301,23 302,24 302,25 302,25 303,26 303,26 303,26 303,27 303,27 304,28 304,28 304,29 305,30 305,31 305,32 305,32 306,33 306,34 306,34 306,34 307,35 307,35 307,36 308,37 308,37 309,38 310,38 310,39 311,40 311,40 311,40 311,41 311,41 312,41 312,42 314,44 314,44 315,45 316,46 316,47 317,47 317,47 317,47 318,47 318,47 318,48 318,48 319,48 319,48 319,48 320,49 320,49 321,51 322,51 323,53 324,54 324,54 325,53 326,53 329,52 330,53 331,53 331,54 331,54 332,55 333,56 334,57 334,57 335,62 335,64 335,65 336,66 337,67 337,68 337,69 337,70 337,70 340,70 346,72 347,72 347,72 349,70 349,70 349,69 349,69 349,68 353,66 354,67 354,67 357,69 357,69 358,70 358,70 359,71 360,72 361,73 362,75 363,77 363,77 364,78 365,78 365,78 367,78 370,78 373,78 376,78 376,78 377,78 378,78 379,79 380,81 381,83 383,84 383,85 384,85 389,88 389,88 392,90 392,91 393,92 394,94 394,95 395,96 396,96 398,97 401,97 402,98 403,98 404,99 405,99 406,100 406,99 407,99 409,99 410,98 410,97 411,96 411,95 411,94 412,93 412,92 413,91 417,89 419,88 420,88 421,86 423,84 425,83 427,82 429,80 432,78 433,77 434,76 437,76 438,76 440,76 442,77 444,78 447,79 451,80 453,80 455,81 458,83 459,84 462,85 466,85 473,85 474,87 475,90 476,94 477,98 472,99 470,99 469,98 470,102 471,105 472,109 472,110 476,110 476,111 478,116 479,120 479,122 481,127 487,126 494,125 494,126 494,126 494,130 495,130 496,133 497,136 497,137 497,137 498,139 500,141 498,142 495,140 494,140 490,141 489,141 484,142 482,142 479,143 477,144 475,144 474,143 474,141 471,141 468,141 468,141 464,138 461,136 457,134 449,130 449,130 446,130 444,130 443,130 433,130 431,130 428,130 425,133 420,138 418,138 423,140 429,143 430,144 430,145 429,145 428,146 419,149 419,145 419,144 417,145 415,147 413,149 412,150 412,152 412,153 411,153 410,154 410,154 409,155 410,156 412,156 413,156 414,156 416,156 417,156 416,158 416,159 416,159 415,162 414,164 409,170 407,173 404,177 403,178 403,178 402,180 401,181 401,180 401,180 400,181 400,181 400,181 400,181 400,182 400,182 401,183 401,183 402,184 402,185 402,186 402,186 401,186 399,186 398,186 398,186 397,186 397,186 397,186 397,186 397,186 396,186 395,188 394,188 394,188 391,190 391,190 390,192 390,192 390,194 389,197 389,197 391,198 392,198 390,199 391,199 390,199 390,199 378,207 371,214 370,215 367,216 365,216 350,222 342,225 341,226 339,227 336,230 331,233 330,234 324,237 324,238 323,238 320,238 305,238 305,238 301,238 300,238 300,239 290,241 274,246 273,246 272,246 267,249 257,256 252,259 250,260 247,262 240,266 239,266 236,268 236,268 236,268 234,267 234,267 234,267 234,267 233,268 231,269 231,269 231,269 227,267 227,267 226,267 226,267 213,272 211,273 207,275 205,276 204,276 204,276 203,276 202,276 199,275 198,275 198,275 195,277 194,277 193,277 192,278 189,278 184,277 184,277 187,275 188,275 187,274 188,273 189,273 190,272 191,272 193,272 194,272 194,272 195,271 196,271 196,270 196,270 197,270 198,269 198,269 199,268 199,268 200,267 200,267 200,267 199,267 199,266 199,265 199,264 199,263 198,262 198,261 197,260 197,260 194,257 194,257 193,258 188,257 188,257 188,255 186,255 185,255 184,255 185,254 186,251 176,250 174,250 173,250 170,249 169,249 169,249 169,249 169,249 169,248 169,247 169,246 169,245 169,245 170,245 170,245 169,243 170,242 171,242 171,241 172,240 172,238 172,237 172,236 172,236 172,235 173,235 177,232 177,232 178,231 179,230 179,229 180,229 180,228 181,228 185,227 186,226 190,224 190,223 190,223 187,223 185,223 183,223 182,223 181,223 179,222 177,221 176,221 170,219 170,219 168,218 168,218 167,218 166,218 163,219 160,219 158,218 156,218 155,218 153,218 144,219 143,219 142,219 138,219 138,219 137,217 137,216 137,214 136,213 136,212 136,212 136,212 134,212 134,212 133,212 133,212 132,211 131,211 131,211 130,211 129,211 128,211 128,211 127,212 126,212 125,212 124,212 124,212 123,212 122,212 120,211 120,211 117,211 115,211 115,211 114,210 111,209 111,209 111,209 109,208 109,208 108,207 107,206 107,206 105,205 105,205 104,205 104,205 102,206 101,206 101,206 100,206 99,207 99,206 97,206 97,206 96,207 95,208 95,208 95,209 94,209 93,209 92,209 92,210 92,210 92,210 92,210 93,212 93,212 92,214 92,215 92,215 91,215 91,215 89,215 88,215 87,215 86,215 86,215 85,215 84,215 82,216 82,216 81,216 79,217 78,217 78,217 78,218 77,218 77,219 75,219 75,219 74,218 72,218 72,217 70,216 69,216 66,215 65,215 56,214 55,214 53,213 53,213 52,212 50,211 49,210 46,209 44,207 42,202 42,201 37,200 36,200 34,200 34,200 33,200 33,200 32,199 31,199 30,199 29,199 29,198 25,196 24,196 25,195 26,194 26,193 26,193 26,192 25,192 23,187 21,184 16,179 16,178 14,175 13,174 12,173 11,172 10,169 10,168 10,168 10,168 11,165 11,162 12,161 12,158 13,156 12,154 12,154 11,153 9,151 8,150 6,149 5,148 2,147 2,146 1,146 0,145 0,144 0,144 0,143 0,143 0,142 1,142 2,141 2,141 3,141 4,141 6,141 7,141 10,142 13,143 14,143 15,143 16,143 17,143 19,142 20,142 21,142 22,141 22,141 22,140 23,140 23,138 23,134 23,134 24,133 24,132 25,131 26,131 27,130 28,129 29,129 30,128 31,128 32,128 33,128 39,129 41,129 43,129 44,129 45,129 46,129 47,128 47,128 48,126 49,126 49,125 49,124 49,123 47,121 47,121 46,120 46,119 46,119 45,119 44,118 43,117 42,117 42,117 40,117 40,117 39,117 38,117 37,118 32,121 31,122 30,123 29,123 27,124 26,124 25,124 24,124 24,124 23,123 22,123 22,121 21,120 21,116 21,111 21,110 21,109 21,108 22,108 22,107 23,107 27,104 30,103 33,101 34,100 37,98 38,97 38,97 40,95 40,93 40,93 40,92 40,91 40,90 39,89 38,89 37,89 37,88 35,88 33,88 32,88 31,88 31,88 30,89 30,89 28,91 27,92 26,92 25,92 24,92 21,93 20,93 19,93 18,93 16,92 16,92 12,91 12,91 11,90 10,89 10,89 9,88 9,87 9,87 10,86 10,86 13,83 21,77 23,76 26,74 31,73 31,72 36,70 36,70 38,68 41,67 44,64 45,62 45,61 45,59 45,58 45,58 45,57 43,55 41,53 40,52 38,51 37,51 35,51 36,48 37,47 37,46 39,46 40,46 41,45 41,45 42,45 42,45 43,45 44,45 45,46 46,46 46,46 47,46 48,45 49,45 49,44 50,44 50,44 51,44 51,44 51,44 53,45 53,45 54,46 56,47 57,47 57,47 59,49 60,50 61,50 62,51 63,51 63,52 64,52 65,52 66,52 66,52 66,52 67,52 68,52 69,52 70,52 70,52 71,52 71,51 72,51 72,51 72,51 73,51 74,51 74,51 75,51 75,51 76,51 76,51 76,51 76,50 77,50 77,49 77,49 78,49 78,49 79,49 82,49 83,48 83,48 83,48 83,47 83,47 84,47 85,47 86,47 87,46 88,46 88,46 89,47 89,47 90,47 91,48 93,48 94,48 95,48 97,48 99,48 99,48 100,48 101,48 101,48 102,48 104,47 104,47 104,47 106,47 106,46 108,46 108,45 109,45 109,45 110,45 111,45 111,45 112,45 112,45 113,46 113,46 114,46 115,46 115,46 116,45 116,45 117,44 118,45 118,44 119,44 119,44 120,44 121,44 122,43 123,43 124,42 124,42 124,42 125,41 125,41 126,41 126,42 127,42 127,42 127,43 128,43 128,43 128,43 130,44 131,44 131,45 132,44 134,44 135,44 135,44 136,44 137,44 137,45 138,45 139,46 139,46 140,45 141,45 141,45 142,45 143,45 144,45 145,45 146,45 147,45 149,45 150,45 151,45 152,45 153,46 154,46 155,46 156,46 157,46 157,46 158,46 159,45 160,46 160,46 160,46 159,47 159,47 160,47 161,48 161,48 162,49 163,49 164,50 165,50 166,51 167,51 168,52 168,52 169,52 170,53 172,53 173,53 173,53 174,53 174,53 175,54 175,54 175,54 177,53 178,53 179,53 180,53 181,53 183,53 183,53 183,52 183,52 183,52 183,52 183,51 184,51 185,51 186,51 187,52 188,52 188,51 189,51 189,52 189,51 190,51 191,51 191,51 192,50 192,50 192,50 193,50 193,50 193,50 193,49 194,49 195,49 195,49 196,49 196,49 196,49 196,48 196,48 195,47 195,46 194,46 194,45 194,45 193,44 193,43 193,42 193,41 193,40 193,39 193,38 193,38 193,37 193,35 194,33 194,33 194,32 195,31 195,30 197,29 193,24 190,21 190,21 192,19 194,18 195,17 199,14 200,13 202,12 202,12 202,10 202,8 203,7 203,6 204,1 204,0 204,0" id="4216" class="canton" fill="steelblue" stroke-width="1" stroke="white" geotype="canton" geoname="Saint-Etienne-3" code_insee="4216" code_departement="42" nom_departement="Loire" code_region="84" nom_region="Auvergne-Rhône-Alpes"/></svg>