<?xml version="1.0" encoding="utf-8"?>
<svg version="1.1" id="svgmap" xmlns="http://www.w3.org/2000/svg" xmlns:xlink="http://www.w3.org/1999/xlink" x="0px" y="0px" width="100%" height="100%" viewBox="0 0 500 329">
<polygon points="492,110 491,111 491,111 490,112 490,112 490,112 490,112 490,112 490,112 490,113 491,113 491,113 491,113 492,113 492,113 492,113 492,113 492,113 492,114 492,114 493,114 493,114 493,114 493,114 493,115 493,115 493,115 493,114 493,114 494,115 494,115 494,115 494,115 494,115 494,115 494,115 495,115 495,115 495,115 496,116 496,116 496,116 497,116 497,116 497,116 497,116 497,116 498,117 497,117 496,118 496,118 495,118 495,119 492,119 492,119 493,120 495,120 496,120 495,121 493,122 492,122 494,123 494,124 493,125 493,125 493,126 493,126 494,127 494,129 495,129 495,130 495,130 495,131 495,132 495,132 495,133 490,133 488,134 487,135 487,136 486,137 486,139 486,140 485,143 484,144 483,146 482,147 482,148 483,148 483,149 482,151 482,151 481,151 480,151 480,151 479,152 477,152 477,152 476,152 476,152 476,152 475,152 475,152 474,153 474,153 474,153 474,153 473,153 473,153 472,154 472,154 472,154 472,154 471,154 471,154 471,154 470,155 469,155 469,156 469,156 469,156 468,157 468,157 468,158 468,158 467,158 467,158 467,158 467,158 466,158 466,159 466,159 465,159 465,159 465,159 464,160 464,160 464,160 463,160 463,160 463,160 462,160 461,160 460,160 459,160 459,160 458,159 458,159 458,159 457,159 457,159 457,159 456,159 455,158 455,158 455,158 453,155 453,154 447,154 446,153 445,154 444,155 444,155 443,156 443,156 442,157 442,158 442,158 441,158 440,157 440,156 440,156 439,155 439,155 439,155 439,156 439,156 439,157 439,157 439,157 437,160 437,160 437,160 437,161 436,161 436,162 436,163 436,163 436,164 436,164 436,165 433,165 432,165 430,165 429,167 428,166 428,166 427,165 427,165 427,165 426,164 427,164 427,163 426,163 424,163 424,163 424,163 422,162 421,161 420,161 419,161 419,161 418,161 418,161 417,161 415,164 415,163 415,163 415,163 414,163 414,163 413,164 413,164 412,165 412,165 411,166 410,167 410,168 410,168 409,168 409,169 408,170 408,170 410,171 411,172 409,172 411,174 409,176 410,176 410,177 411,178 411,179 411,181 411,182 412,184 412,185 412,186 412,187 411,188 411,190 411,190 410,191 410,193 410,194 410,195 409,196 409,196 409,197 409,197 408,197 409,198 409,198 410,199 410,200 411,201 411,201 412,201 413,202 413,201 414,202 415,203 415,203 416,204 416,204 416,204 417,205 418,206 418,205 419,205 419,205 420,205 421,206 418,207 418,207 419,208 419,208 420,209 422,211 422,210 422,210 423,210 423,210 425,210 425,209 427,209 428,209 428,210 427,210 427,211 428,211 428,212 428,212 428,213 428,214 428,215 428,215 429,215 429,216 428,216 429,217 429,217 432,220 432,220 432,220 432,221 432,221 432,222 432,222 432,222 433,222 434,223 434,224 434,224 435,224 435,225 436,225 435,225 435,225 435,225 436,226 436,226 436,226 437,227 437,227 437,227 436,227 436,228 437,228 436,229 435,230 437,230 437,231 438,231 439,231 439,231 440,231 440,233 440,233 441,232 442,232 442,232 443,232 443,232 444,232 445,232 445,232 443,234 443,234 444,235 445,235 446,235 448,234 450,234 451,234 453,235 454,235 453,236 452,240 451,239 451,240 450,240 450,241 450,241 450,241 450,242 450,242 449,242 449,242 449,242 449,243 449,243 449,243 449,244 449,244 449,244 449,244 449,245 448,245 448,245 448,246 448,247 448,247 448,247 448,247 448,248 448,248 448,248 447,248 447,248 447,249 447,249 447,249 447,249 447,250 446,250 446,251 446,251 446,251 445,251 445,251 445,251 445,251 444,252 444,252 444,252 443,252 443,252 443,253 442,253 442,253 442,253 442,254 441,254 441,254 441,255 441,255 441,255 441,255 440,256 440,256 440,256 440,256 440,256 437,257 437,256 437,256 435,255 432,255 432,255 432,256 432,256 432,256 432,256 432,257 432,257 431,258 430,258 432,260 432,262 432,262 432,262 432,264 432,265 434,267 434,268 435,270 435,271 436,271 434,273 433,273 432,274 432,274 433,275 433,277 434,277 434,278 434,279 434,280 434,282 435,283 433,284 428,285 428,285 425,287 422,289 421,290 422,291 421,292 421,292 418,293 418,293 416,293 415,292 413,291 413,291 412,291 410,291 410,291 411,290 411,290 408,291 406,291 404,292 401,291 398,291 397,290 395,289 392,287 391,287 390,287 390,288 389,290 388,294 387,297 386,298 386,298 386,299 385,301 385,302 385,302 384,302 385,303 386,304 385,304 385,304 384,304 384,304 382,305 381,305 380,306 379,306 378,306 378,306 376,306 375,306 374,306 372,307 370,307 367,308 366,307 366,308 366,309 366,309 367,310 368,311 369,311 370,311 370,312 370,313 371,315 371,315 371,315 370,315 370,315 370,315 369,316 369,316 368,316 368,316 368,316 367,316 367,316 367,316 366,316 365,316 365,316 365,316 364,316 364,316 363,316 363,317 362,317 362,317 361,317 361,317 360,317 360,318 359,318 359,318 358,319 358,319 357,319 356,319 355,319 355,319 354,319 354,319 353,319 353,319 352,319 351,319 351,320 351,320 350,320 350,320 349,320 349,320 348,321 347,321 345,321 345,322 344,322 344,322 343,322 342,322 341,322 340,322 340,322 339,322 338,322 337,322 337,323 337,323 337,324 337,324 336,324 336,324 336,324 336,324 335,324 335,324 334,324 334,324 334,324 334,324 333,324 332,324 331,324 331,325 330,325 330,325 329,325 328,325 327,325 326,325 326,326 325,326 324,327 323,327 323,328 322,328 322,328 322,328 321,328 320,329 320,329 319,329 318,329 317,329 317,329 318,329 318,328 318,328 318,326 319,324 320,321 321,318 322,316 321,315 320,314 321,314 321,313 320,313 315,314 314,314 313,314 314,313 313,313 313,313 312,313 312,313 310,314 310,314 308,314 308,314 307,314 307,315 306,315 306,315 305,315 305,315 304,314 302,314 301,313 300,313 300,313 299,313 299,313 298,313 298,313 298,313 297,313 296,312 295,312 295,312 294,312 294,313 293,313 293,314 293,314 292,315 291,315 290,315 288,315 288,315 287,315 286,315 285,315 285,315 284,315 284,315 282,314 282,314 282,314 280,315 279,314 278,314 277,314 276,314 275,313 273,312 272,312 272,311 272,311 272,310 271,310 271,309 270,309 269,309 268,308 267,308 266,309 266,308 266,307 266,305 266,304 266,304 265,303 262,302 260,301 259,300 259,299 259,298 259,297 260,294 262,292 262,291 262,290 261,288 260,286 258,288 257,288 256,289 258,289 258,289 258,290 258,290 258,291 258,292 258,292 257,292 257,293 257,293 257,293 257,295 257,295 257,296 257,296 256,297 256,298 256,298 256,298 256,299 256,299 256,300 256,299 256,299 255,300 255,301 255,301 254,302 254,302 253,302 253,303 253,303 253,303 253,304 253,305 253,305 252,305 252,305 251,305 251,305 250,306 248,306 247,305 247,305 246,306 246,306 245,307 245,307 243,308 241,308 240,309 240,309 239,310 239,311 238,313 237,314 236,315 235,317 234,316 234,316 233,315 233,315 232,314 232,314 232,313 231,313 231,313 231,313 231,313 230,312 230,312 230,312 230,311 230,311 229,311 229,311 229,310 228,310 228,310 228,310 229,309 229,309 229,309 230,309 230,309 230,308 230,308 230,308 230,308 230,308 231,308 231,308 231,307 231,307 231,307 232,307 232,307 233,306 234,306 234,306 234,305 234,305 234,305 234,305 235,304 235,304 235,304 235,303 235,303 235,303 236,302 236,302 236,301 236,301 236,301 236,300 237,300 237,300 237,299 237,299 237,299 237,299 237,299 237,299 237,299 237,298 237,298 238,298 238,298 238,298 238,297 238,297 238,297 238,297 239,296 239,296 239,296 239,295 239,295 239,295 239,294 239,294 239,294 239,294 240,293 240,293 240,293 240,293 240,293 240,293 240,292 240,292 240,292 240,291 241,291 241,291 241,291 241,290 241,290 241,290 241,289 241,289 241,289 240,289 240,289 239,289 238,288 237,288 237,288 237,288 236,288 236,288 235,287 235,287 235,287 234,287 234,287 233,287 233,287 233,286 233,286 233,286 232,286 232,286 232,286 232,286 232,285 231,285 231,286 230,286 230,287 231,287 231,288 231,288 231,289 231,289 228,288 227,287 226,285 225,285 225,285 224,285 224,285 224,284 223,284 221,283 219,283 219,282 219,281 218,281 217,281 219,279 219,278 218,279 218,279 217,280 216,280 216,280 215,280 215,280 215,280 214,281 214,281 214,282 214,282 213,282 213,283 213,283 213,283 212,283 212,283 211,283 210,283 210,282 209,281 209,281 209,281 210,281 209,280 209,280 208,281 208,281 208,281 206,280 206,280 206,280 206,280 205,280 204,281 203,280 203,280 202,280 201,280 201,280 199,280 199,280 199,280 199,280 199,280 199,280 199,279 199,279 200,278 200,278 200,278 197,275 196,274 195,274 195,275 195,275 195,275 195,275 195,276 195,276 195,276 194,277 194,277 194,277 193,277 193,277 192,278 192,278 192,278 191,278 190,278 190,278 190,278 191,277 192,277 192,277 192,276 192,276 192,275 192,275 192,274 192,274 192,273 192,273 192,272 192,271 192,271 193,271 192,270 192,270 192,270 192,270 192,270 192,270 191,270 191,270 191,269 191,269 190,270 188,269 187,269 186,269 186,270 186,270 186,270 186,271 185,271 185,271 186,272 186,273 184,272 184,272 183,271 183,271 181,270 180,268 179,267 177,266 177,266 176,265 175,264 175,264 174,263 174,263 173,263 173,263 173,263 172,262 172,262 172,262 171,261 169,260 169,260 169,259 167,259 167,260 166,260 165,259 166,258 164,258 161,259 161,259 161,259 161,259 160,259 160,261 160,261 161,262 159,262 159,262 158,262 158,261 158,261 158,261 158,260 158,260 159,259 159,259 159,258 160,258 160,258 160,257 160,257 158,256 157,255 156,254 156,254 157,253 158,254 160,253 158,252 157,251 158,250 158,250 160,249 161,248 163,245 167,246 168,246 168,245 169,244 169,243 169,243 172,243 173,244 177,244 177,243 178,242 178,241 181,240 182,240 182,240 182,239 182,239 183,239 183,239 183,238 183,238 185,239 185,239 185,239 186,240 186,239 187,238 187,238 187,238 187,237 187,237 187,237 187,237 188,237 188,237 188,237 189,237 189,237 189,237 189,237 189,236 189,236 188,235 188,235 188,235 188,235 188,234 188,234 188,234 188,234 188,234 188,233 188,233 188,233 188,233 188,232 188,232 188,232 188,231 188,231 187,231 187,231 187,230 187,230 187,230 187,230 186,229 187,229 187,229 187,229 187,229 187,229 187,228 188,228 188,228 188,228 188,228 188,228 188,227 188,227 188,227 188,227 188,227 188,226 188,226 188,226 188,226 188,226 188,226 188,226 187,226 187,227 187,227 187,227 187,228 187,228 187,228 186,228 184,228 183,228 181,228 180,227 180,226 180,225 180,225 180,225 181,225 181,225 181,225 181,225 181,224 180,224 180,224 180,224 179,224 179,224 179,223 178,223 178,223 178,223 177,223 177,223 176,223 176,223 176,223 175,223 175,222 174,222 174,222 174,222 174,222 174,222 173,221 173,221 173,221 172,221 172,221 172,221 172,221 172,222 171,222 171,221 170,221 170,221 170,221 169,221 169,221 169,221 168,221 168,221 168,221 167,221 167,221 167,222 167,222 167,221 167,221 167,221 167,220 167,219 167,219 167,218 167,217 167,217 167,217 167,217 167,216 168,215 168,215 168,214 168,214 168,213 168,213 168,212 168,212 169,211 169,211 169,211 170,210 171,208 171,208 171,207 170,207 171,206 171,205 171,204 170,204 170,204 167,205 166,206 165,207 165,207 164,207 164,208 164,208 163,208 163,209 162,209 161,209 160,210 159,210 158,211 156,211 154,212 154,213 153,213 153,214 152,214 152,215 152,215 151,215 151,216 150,216 149,217 148,217 148,217 147,217 147,218 146,218 143,218 142,218 142,218 141,219 140,219 139,220 138,221 137,221 137,220 137,220 135,220 134,220 134,219 132,218 132,218 132,218 131,218 128,219 126,220 126,220 126,221 126,221 126,222 126,222 126,222 126,223 125,223 125,224 124,225 123,226 123,226 121,229 120,231 120,232 116,231 116,231 118,232 117,233 112,232 109,231 106,231 103,232 103,232 102,232 102,233 101,234 100,235 99,235 94,232 92,230 90,230 90,229 90,229 90,228 90,226 89,226 88,224 88,223 87,222 87,221 86,219 86,218 86,218 86,218 85,217 85,216 84,216 84,215 82,214 82,214 81,213 81,213 81,213 81,213 81,213 81,212 81,212 80,212 80,212 80,211 80,211 79,211 79,211 79,212 79,212 79,212 79,212 79,212 78,212 78,212 78,211 79,210 80,209 80,209 80,209 80,209 81,209 81,208 81,208 82,208 82,208 82,207 82,207 82,207 82,207 82,207 81,206 81,206 81,205 81,205 81,205 81,205 81,205 81,205 81,205 81,205 82,205 82,204 82,204 82,203 82,203 82,203 82,202 82,201 83,201 82,200 81,200 81,200 81,200 80,200 80,201 80,201 80,201 79,201 79,202 78,202 78,202 78,202 78,201 77,201 77,200 77,200 77,199 78,199 78,199 78,198 78,197 78,197 78,196 78,196 78,196 79,195 79,193 79,192 80,192 79,191 80,190 80,190 80,189 77,188 77,188 77,187 77,187 77,187 77,187 77,186 78,185 78,184 78,184 77,184 77,184 76,184 76,184 76,184 76,183 76,183 76,183 76,183 77,182 77,182 78,182 78,182 78,182 79,181 80,180 81,180 80,180 80,179 80,179 80,179 81,178 81,178 79,177 79,178 78,178 78,178 78,178 78,178 78,179 78,179 76,178 75,177 74,177 73,176 70,174 69,173 69,173 72,171 71,171 71,171 71,171 70,171 70,171 70,171 70,171 69,171 68,171 68,170 67,170 67,170 66,169 65,169 65,169 64,168 64,168 64,168 64,168 64,168 64,168 64,168 64,169 63,169 63,169 63,169 62,169 62,169 64,167 64,167 64,167 64,166 64,166 64,165 64,165 63,165 63,165 64,164 64,164 64,163 64,163 64,163 63,163 63,163 63,163 63,163 63,163 63,163 63,163 62,163 62,163 62,163 62,163 62,163 62,163 61,163 61,163 61,163 61,162 61,162 61,162 61,162 60,162 60,162 60,163 60,163 60,163 59,162 58,162 57,162 57,162 56,161 56,161 56,162 56,162 56,162 56,162 57,162 57,162 57,162 56,162 56,162 56,162 56,162 56,163 56,163 55,163 55,163 55,163 55,163 55,163 53,162 53,162 52,162 48,161 48,160 47,160 47,161 47,161 47,161 46,160 46,160 46,160 46,160 45,160 44,160 44,160 43,160 43,160 43,160 43,160 42,160 42,160 42,159 41,159 41,159 40,159 40,159 40,159 40,158 39,158 38,158 38,157 37,157 37,157 36,156 36,156 35,156 35,156 35,156 34,156 34,156 34,156 34,157 34,157 34,157 34,157 33,158 33,158 33,158 33,159 33,159 33,159 33,160 33,160 33,160 33,161 33,161 33,161 33,161 30,162 29,162 29,162 29,162 29,162 27,162 26,161 26,161 22,161 22,161 23,160 23,159 23,159 23,158 24,157 25,156 25,155 26,154 26,154 27,153 27,153 27,152 27,151 28,151 28,150 28,150 29,149 29,149 29,149 29,148 29,148 29,147 29,146 29,146 30,145 30,144 30,144 30,144 30,143 30,142 31,142 31,141 31,140 31,140 32,139 32,139 32,138 33,138 34,136 34,135 35,134 35,134 35,134 35,133 35,133 35,133 34,132 34,132 33,132 33,131 32,131 32,131 32,129 31,128 31,128 30,127 29,126 29,126 29,126 29,125 29,125 28,124 28,124 28,123 29,123 29,121 29,121 29,119 29,119 29,117 29,116 28,114 27,113 27,113 26,112 26,111 26,111 25,109 25,109 25,109 24,109 24,110 24,110 24,111 24,112 24,113 24,113 21,114 20,114 21,112 21,111 21,111 21,111 21,110 21,110 21,110 20,110 20,109 20,109 20,109 20,109 20,109 20,108 20,108 20,107 20,107 20,107 19,107 19,107 19,107 19,107 19,106 19,106 19,106 19,106 18,106 18,105 18,105 17,105 17,105 16,104 16,104 15,104 16,103 15,102 17,101 17,101 17,101 16,101 16,100 15,100 14,99 13,98 13,97 13,96 13,96 13,95 12,95 12,94 11,93 11,93 10,93 10,93 11,92 11,92 11,92 12,92 12,92 9,89 9,89 9,88 9,87 9,86 8,85 8,85 8,84 8,83 7,82 7,80 8,79 8,78 8,78 8,77 7,76 7,76 7,75 7,75 6,75 6,76 5,76 5,76 4,76 3,77 2,77 2,77 2,75 1,75 1,75 0,74 0,74 0,73 1,73 2,72 3,72 3,72 4,71 4,71 3,71 3,70 3,69 3,69 1,69 1,68 1,68 1,67 2,67 2,67 2,66 2,65 2,64 2,64 3,64 4,64 5,64 5,62 5,61 5,59 5,58 5,56 5,55 5,54 4,53 4,52 3,51 3,49 2,48 2,47 2,46 2,44 2,43 2,42 2,42 2,41 2,40 2,39 2,38 2,37 2,37 3,35 3,34 3,33 3,32 3,32 4,32 4,31 4,30 4,30 4,29 4,29 4,29 4,28 4,27 4,27 4,26 4,26 4,26 3,24 3,23 4,23 5,23 6,22 7,23 7,23 7,23 8,23 8,23 8,22 8,22 8,22 8,22 8,22 10,21 10,21 11,20 11,20 12,20 13,20 14,20 16,21 16,22 17,22 18,22 19,23 19,23 19,23 20,23 20,23 21,23 21,23 22,22 23,22 23,22 25,22 26,22 27,22 28,21 31,21 31,21 32,23 33,23 33,23 34,23 34,23 36,23 37,23 37,23 37,23 38,23 39,23 39,23 40,22 40,22 40,23 40,23 40,23 40,23 41,23 41,23 41,23 42,22 42,22 43,22 43,22 44,21 44,21 45,21 46,20 47,19 48,19 48,19 49,20 49,20 49,20 50,20 50,20 50,20 50,20 51,20 51,20 52,20 52,20 52,19 53,19 54,19 54,18 55,18 56,17 56,17 56,17 57,17 57,17 58,16 58,16 58,16 59,16 59,16 60,16 60,16 59,14 58,12 57,12 57,11 56,10 55,10 55,9 55,9 55,9 55,9 55,9 55,9 55,8 55,8 53,7 56,6 59,6 62,5 63,5 65,4 66,4 68,3 70,3 72,3 73,3 73,3 74,2 75,2 76,2 77,1 78,2 78,1 78,1 78,1 79,1 79,1 80,0 80,0 80,0 81,0 81,0 81,1 81,1 81,1 81,2 81,2 81,2 81,2 81,3 81,4 81,4 81,5 81,5 81,5 82,6 82,6 82,6 82,6 81,7 81,7 81,7 81,7 81,8 81,8 81,8 81,8 80,8 80,8 80,9 80,9 80,9 80,9 80,10 80,10 80,10 80,11 80,11 80,11 80,11 80,12 80,12 80,12 80,12 80,12 80,12 80,12 80,13 80,13 80,13 80,13 80,13 80,14 80,14 79,14 79,14 79,14 78,14 78,14 78,14 78,14 77,15 77,15 77,15 77,15 77,15 77,15 77,15 77,16 77,16 77,16 77,16 79,17 82,20 83,20 85,21 85,21 85,21 86,21 86,22 88,23 88,23 91,24 91,24 91,24 94,22 96,21 97,20 97,20 99,19 100,19 101,18 102,17 103,16 104,16 106,15 107,14 107,14 107,13 107,13 108,13 108,13 108,12 108,12 108,11 109,11 109,11 109,11 111,12 112,13 113,13 116,15 120,17 122,19 124,21 125,21 126,21 126,22 129,23 132,25 133,26 133,26 134,26 135,27 137,28 138,28 140,29 140,30 142,31 142,31 143,32 144,33 144,33 145,33 146,34 147,35 147,36 148,37 148,38 149,38 150,39 149,39 149,40 148,40 147,40 147,41 148,41 148,41 149,42 150,42 150,43 150,43 151,43 152,43 155,42 155,42 156,42 159,42 159,41 159,41 162,41 162,41 163,41 163,41 164,41 164,41 164,40 165,41 165,41 165,41 166,41 166,40 167,40 168,40 167,40 168,40 168,39 169,39 168,39 168,38 169,38 171,38 171,38 172,38 172,37 172,37 171,36 171,36 170,36 171,35 172,36 172,34 171,33 171,33 171,33 171,32 171,32 172,31 174,31 175,30 177,30 182,29 184,29 184,29 184,27 186,27 186,26 189,26 191,28 192,29 192,30 192,30 193,32 193,33 194,36 194,36 194,36 198,37 203,38 205,40 208,42 211,44 212,45 212,46 212,47 213,48 213,49 214,50 215,50 217,50 218,50 220,50 221,50 223,51 223,51 224,52 224,52 225,54 226,55 226,57 226,58 227,60 227,61 228,63 229,64 231,65 232,66 233,66 234,66 235,67 237,68 239,70 241,71 242,71 243,71 243,72 244,72 244,73 245,73 245,73 245,74 244,75 244,75 243,76 243,77 242,80 242,82 243,83 244,84 245,84 244,85 244,85 244,85 244,85 243,85 244,86 242,87 242,88 241,90 241,91 241,94 241,94 241,96 241,97 242,97 243,97 244,98 244,99 245,99 245,99 246,100 246,101 246,101 246,101 247,101 247,101 247,101 248,102 249,102 250,103 250,103 251,103 251,103 252,104 254,104 255,105 256,106 257,105 264,101 267,100 267,99 268,98 268,98 268,98 268,98 269,98 269,98 269,98 270,98 270,98 271,98 271,98 272,98 272,98 272,98 273,99 274,99 277,98 277,98 278,97 279,97 279,97 280,97 280,96 280,96 281,96 282,96 282,96 282,96 283,96 284,96 284,96 285,96 285,96 286,95 287,95 287,94 288,94 288,93 288,93 288,92 288,92 288,91 287,91 287,91 287,91 287,91 288,90 288,89 288,89 288,89 288,89 288,89 289,88 289,88 289,88 290,88 290,88 291,88 291,88 291,87 292,87 292,87 292,87 292,87 293,85 294,84 295,84 295,83 296,83 296,83 297,83 297,83 297,83 297,82 297,82 297,82 297,82 298,82 298,82 298,82 299,82 300,82 300,82 302,82 302,82 302,83 303,83 304,83 304,83 304,84 304,84 304,84 305,85 305,85 305,85 305,85 306,86 308,86 309,86 310,86 310,86 311,87 312,86 312,87 313,87 313,87 313,87 314,87 315,87 316,88 317,87 317,88 317,89 317,89 317,90 318,91 318,92 318,92 317,93 319,94 319,94 320,94 321,93 322,96 327,96 328,97 328,97 328,99 327,100 328,100 328,101 328,101 329,102 329,106 329,107 329,107 330,107 330,107 329,108 330,108 330,108 332,108 334,107 338,105 339,107 337,108 337,108 336,109 336,109 336,109 335,109 335,109 334,110 334,111 334,112 334,112 334,112 334,113 335,113 336,114 338,114 338,114 337,113 336,110 338,109 340,108 341,108 342,108 343,107 344,107 345,107 346,107 346,107 346,107 346,108 347,108 347,108 347,109 347,109 348,110 348,110 349,111 349,111 349,112 350,113 351,115 355,115 356,115 356,115 357,114 358,113 358,113 359,112 360,112 360,112 360,112 360,110 360,110 361,109 361,109 362,110 362,110 363,111 364,111 364,112 365,112 366,113 367,113 368,113 368,114 368,114 369,114 369,114 370,113 371,113 372,111 372,111 372,110 372,109 373,107 373,107 373,106 373,106 373,105 374,104 374,103 375,103 376,102 376,101 376,101 376,100 376,100 377,99 377,98 376,97 376,97 377,97 377,96 377,95 379,94 379,93 380,93 381,95 381,96 381,96 382,97 384,97 385,97 386,97 387,97 387,97 390,96 390,97 390,97 390,97 389,98 391,98 391,99 394,98 395,98 397,98 398,98 398,98 398,99 397,100 397,100 397,100 397,100 397,100 398,100 398,101 399,101 400,102 400,102 400,102 400,102 401,102 401,102 401,102 401,102 401,102 402,102 404,103 404,103 405,103 405,103 405,103 406,104 406,104 407,104 407,103 407,103 407,103 407,103 406,101 406,101 407,101 407,100 407,100 408,99 408,99 409,98 409,98 408,97 408,97 408,97 408,96 408,96 409,96 409,95 410,95 410,95 410,94 410,94 411,93 411,93 412,93 413,94 414,94 414,94 415,94 416,92 415,91 417,91 417,91 418,90 419,89 421,88 423,88 423,88 424,89 424,87 425,87 424,86 423,85 423,85 422,85 422,85 422,86 421,85 419,85 420,84 421,84 421,83 422,83 422,82 423,82 424,81 425,81 425,81 426,81 426,81 427,81 427,81 428,81 428,80 429,80 429,80 429,81 430,81 430,81 430,81 431,80 431,80 431,80 432,80 432,80 432,80 432,80 433,80 433,80 434,80 434,80 434,80 434,80 434,80 435,79 435,79 436,79 436,79 436,79 437,78 437,78 437,78 437,78 438,77 439,77 440,77 441,77 441,77 441,77 441,76 442,76 443,76 443,76 444,76 445,75 446,75 446,74 447,74 447,74 448,74 449,75 450,74 451,74 452,75 452,75 453,75 453,75 454,75 454,75 455,75 455,75 456,75 458,75 459,74 460,74 461,74 462,74 463,74 464,73 464,73 465,72 466,71 467,71 468,70 469,69 470,69 472,68 473,67 474,67 474,67 476,66 476,66 478,66 478,66 479,66 479,65 480,65 480,64 482,64 482,64 484,63 485,63 486,63 486,63 487,64 487,64 488,64 489,65 489,66 489,66 490,66 491,67 491,68 492,68 492,68 493,68 493,68 494,68 494,68 494,69 494,69 495,69 495,69 495,70 496,70 496,70 496,72 496,72 498,72 498,72 499,72 499,72 500,73 499,73 498,76 496,76 496,77 496,77 493,78 493,81 493,81 491,82 490,83 489,83 488,84 489,87 488,87 488,87 489,88 489,89 488,90 488,90 488,91 489,91 489,91 489,91 489,91 489,92 489,93 489,93 489,93 489,94 489,94 488,95 488,95 488,96 487,97 487,98 486,98 486,100 484,99 484,100 483,101 482,102 482,102 482,103 481,103 484,104 483,105 483,105 485,106 484,106 484,107 484,108 484,109 484,109 483,109 483,110 485,111 487,112 488,111 488,111 489,111 489,111 489,111 490,111 491,111 492,110" id="4304" class="canton" fill="steelblue" stroke-width="1" stroke="white" geotype="canton" geoname="Brioude" code_insee="4304" code_departement="43" nom_departement="Haute-Loire" code_region="84" nom_region="Auvergne-Rhône-Alpes"/></svg>