<?xml version="1.0" encoding="utf-8"?>
<svg version="1.1" id="svgmap" xmlns="http://www.w3.org/2000/svg" xmlns:xlink="http://www.w3.org/1999/xlink" x="0px" y="0px" width="100%" height="100%" viewBox="0 0 500 370">
<polygon points="124,81 125,80 125,80 126,80 127,80 127,80 127,79 128,79 129,79 129,78 129,78 129,78 129,78 130,77 131,76 131,75 133,75 133,75 134,75 134,75 137,75 138,75 139,75 139,75 141,74 142,74 143,73 144,73 145,72 146,72 147,72 147,72 148,72 149,72 150,72 151,71 152,71 152,71 154,70 154,70 155,70 155,71 156,71 157,71 158,71 159,71 159,71 160,71 161,71 161,71 162,72 164,73 165,73 165,73 165,73 167,73 167,73 168,72 168,72 169,73 171,73 172,74 172,74 172,75 172,75 172,75 173,74 173,74 173,73 173,73 173,73 173,73 173,73 174,73 174,74 174,74 175,75 175,75 176,74 176,74 176,74 176,73 176,73 175,71 174,70 173,69 173,68 171,67 171,66 171,66 171,65 171,65 172,64 172,63 173,62 174,61 176,60 177,60 179,60 179,60 180,61 180,61 181,61 181,61 181,61 182,61 182,61 182,61 182,61 183,61 183,62 183,62 184,61 185,61 185,61 186,61 186,61 186,61 187,61 187,61 187,60 187,60 188,60 188,60 187,59 188,59 188,59 188,59 189,59 190,59 190,59 191,60 191,60 191,60 192,61 192,61 192,61 193,61 194,61 194,62 195,62 195,61 195,61 195,61 195,61 195,60 197,58 197,57 197,57 198,56 200,55 200,55 200,55 200,55 201,55 201,55 201,55 201,55 201,55 201,54 201,54 201,53 201,53 201,53 201,53 202,52 203,52 203,52 203,52 203,51 203,51 202,50 203,50 204,50 207,49 207,47 207,46 208,45 208,45 208,45 209,45 209,45 209,45 209,45 209,45 210,44 210,44 211,44 212,43 212,43 212,43 213,42 213,42 214,42 215,42 215,42 216,42 217,42 217,42 218,42 218,42 219,42 220,43 220,43 221,43 222,43 222,43 223,43 224,44 224,44 224,43 225,42 225,41 225,40 225,40 225,40 226,39 224,38 224,38 224,38 225,38 227,36 227,36 228,36 228,36 228,36 229,35 229,35 230,34 230,34 230,34 230,34 230,33 230,33 230,33 230,33 230,32 230,32 230,31 230,30 230,29 230,29 230,29 232,28 232,28 233,28 234,28 234,27 234,27 235,27 237,27 239,26 240,26 240,26 241,26 243,25 244,25 246,24 247,24 248,24 251,24 253,23 254,23 255,23 255,23 255,21 255,21 256,20 256,20 256,20 256,19 256,19 256,19 256,19 256,18 256,18 257,18 258,18 259,17 259,17 260,16 260,16 260,16 260,16 261,15 261,15 261,14 261,14 261,14 261,14 261,13 260,13 260,13 260,12 261,12 261,12 261,12 261,12 261,11 261,11 262,11 262,10 262,10 263,9 263,9 264,8 264,8 264,8 264,8 264,7 264,7 264,7 265,6 265,6 265,5 265,5 265,5 265,5 265,4 265,4 265,4 265,3 265,3 265,2 265,2 265,1 266,2 266,2 267,1 267,1 268,1 269,0 269,0 269,0 270,0 270,0 271,0 271,0 273,0 274,1 274,1 275,1 275,1 276,1 276,1 277,2 277,2 278,2 278,2 280,1 281,1 281,1 282,1 283,1 284,1 285,1 285,2 286,2 286,2 286,2 287,2 288,2 288,2 289,2 289,2 289,2 289,2 289,3 289,3 289,3 289,3 290,4 290,4 291,4 291,4 291,4 292,4 292,5 292,5 292,5 292,5 293,6 293,6 294,6 294,6 295,6 295,7 296,7 296,7 296,7 295,8 295,8 296,9 296,10 297,10 297,10 297,10 298,10 298,10 299,10 299,10 300,10 300,11 300,11 301,11 302,12 302,12 302,13 303,14 304,14 304,14 304,14 305,15 306,15 306,15 307,15 307,16 308,16 308,16 308,16 308,16 309,16 309,16 309,16 310,17 310,17 310,17 310,17 310,18 310,18 311,18 311,18 311,18 311,19 311,19 311,20 311,20 312,20 312,20 312,20 312,20 313,20 313,20 313,20 313,21 313,21 313,21 314,21 314,21 314,22 314,22 314,22 314,22 314,23 314,23 314,23 314,23 314,24 314,24 314,25 314,25 314,25 314,25 314,25 315,25 314,25 314,25 315,25 315,26 314,26 314,26 314,26 314,26 315,26 315,26 315,26 315,27 315,27 315,27 315,27 315,27 316,27 316,28 316,28 316,28 317,29 318,29 318,29 318,30 319,30 319,30 319,30 319,30 320,31 320,31 320,31 321,31 321,31 321,31 321,31 321,32 321,32 321,32 321,32 322,32 321,32 321,32 321,33 321,33 321,33 321,33 321,33 321,33 321,34 322,34 322,34 322,34 322,34 322,34 322,34 322,34 322,35 322,35 322,35 322,34 323,34 323,34 323,34 323,35 324,35 324,36 324,36 324,37 324,37 324,37 324,37 325,37 325,38 325,38 325,38 326,38 326,38 327,38 327,39 327,39 328,39 328,40 329,40 329,40 330,41 331,41 332,41 334,41 335,41 337,41 339,41 340,41 342,41 343,41 343,41 344,41 346,40 346,41 346,41 346,41 346,41 349,41 351,41 352,41 353,41 353,41 354,41 355,41 356,41 357,41 357,41 357,41 358,41 358,41 358,41 358,41 358,42 358,42 358,42 358,42 358,42 358,43 358,43 358,43 358,44 358,45 358,45 358,46 358,46 358,46 358,46 358,46 358,47 359,47 359,47 359,48 359,48 360,48 361,49 361,50 361,50 361,50 361,50 361,51 362,51 362,51 362,51 362,51 362,51 362,51 362,51 362,52 362,52 362,52 362,52 363,52 362,52 362,52 362,52 362,52 362,53 362,53 362,53 363,53 363,54 363,54 363,54 364,54 365,54 365,54 366,54 366,54 366,54 367,54 367,53 367,53 368,53 368,53 369,54 370,54 370,54 370,54 371,54 371,55 372,55 372,55 373,56 373,56 373,57 373,58 373,58 373,58 373,58 373,58 374,58 374,59 373,59 374,60 374,60 374,61 373,61 373,61 373,61 373,62 372,62 373,62 373,62 372,62 372,63 371,63 370,63 370,63 370,64 370,64 370,64 369,64 369,65 369,65 369,66 368,66 368,66 369,67 369,67 370,68 370,68 370,68 370,69 370,69 370,70 370,70 370,70 370,71 370,71 370,72 370,72 370,72 370,73 370,74 370,74 371,75 371,75 371,75 371,76 371,77 372,77 372,78 374,77 375,77 377,77 378,76 378,76 379,75 380,73 381,72 382,71 382,71 382,71 383,71 385,70 385,70 386,70 388,70 391,70 393,69 393,70 393,70 394,70 394,71 394,71 395,72 396,72 396,72 396,72 397,73 398,73 398,74 398,74 399,74 399,74 400,74 402,75 402,75 403,75 404,76 404,76 405,77 406,78 406,78 406,78 407,79 408,79 409,79 410,80 411,80 411,80 412,80 412,80 412,80 412,80 413,79 413,79 413,80 414,80 414,80 414,80 415,80 416,81 416,82 417,82 418,83 418,83 419,83 419,84 419,84 420,84 420,84 420,86 420,86 420,86 420,86 420,87 420,88 421,88 421,88 421,88 422,89 422,89 422,89 422,90 423,90 423,90 424,90 425,92 426,92 426,92 426,93 426,93 426,93 426,93 426,93 426,93 426,94 427,95 427,95 427,95 428,95 431,97 431,97 432,98 432,98 433,98 433,98 433,98 433,99 434,99 435,100 436,100 436,100 437,100 437,100 437,100 437,101 439,101 440,102 440,102 441,102 441,102 443,102 443,102 443,102 444,103 444,103 445,103 445,103 445,103 446,103 446,102 446,102 446,102 446,102 446,102 446,102 447,102 447,102 447,103 447,103 447,103 447,103 447,103 447,104 447,104 447,104 447,104 447,105 447,105 447,105 447,105 447,105 447,105 447,105 447,105 447,105 446,106 446,106 446,106 446,106 446,106 446,106 446,107 446,107 446,107 445,108 445,108 445,108 445,109 446,109 446,109 446,110 446,110 446,111 446,111 448,111 448,111 449,112 450,112 451,112 451,112 452,112 453,110 453,110 453,110 454,110 454,110 455,109 455,109 455,110 455,110 455,110 455,110 456,110 457,110 457,110 457,110 457,110 458,110 458,110 458,111 458,111 458,111 458,111 459,111 459,111 459,111 459,111 460,110 460,110 460,109 460,109 461,109 461,109 462,110 464,110 466,111 467,111 467,111 467,111 467,111 470,108 470,108 470,108 471,107 471,107 472,108 472,108 473,110 474,111 475,112 475,112 475,113 481,116 481,116 482,117 482,117 482,117 483,116 483,116 484,116 485,116 485,116 486,116 486,116 486,116 486,115 486,115 486,115 487,115 488,115 488,115 488,115 488,115 489,115 489,115 489,116 489,116 490,116 490,116 491,115 491,115 491,115 491,115 492,115 492,115 492,115 493,115 495,115 495,115 496,115 497,115 498,115 500,115 500,115 500,115 499,116 497,118 495,119 495,119 495,120 495,120 495,120 495,120 495,120 496,121 496,121 496,122 495,123 495,123 495,123 495,123 494,123 493,124 494,124 494,124 494,124 493,125 493,125 493,125 492,125 492,126 492,126 492,127 491,127 491,127 490,129 490,129 489,128 489,129 489,130 489,130 489,131 489,131 489,134 490,135 490,136 490,136 489,136 489,136 489,136 488,135 488,135 488,135 488,135 488,135 487,135 487,135 486,135 485,136 484,136 484,136 483,135 483,135 482,135 482,135 481,135 481,135 480,135 480,136 477,138 477,138 476,138 475,139 473,139 473,140 473,140 472,141 472,141 472,141 471,141 469,141 467,141 466,141 465,141 465,141 464,139 464,139 464,140 464,140 463,140 461,137 461,137 460,136 460,136 460,133 460,133 459,132 459,132 458,132 458,132 457,132 456,133 455,133 454,134 454,134 453,134 453,134 453,134 452,133 452,133 451,133 450,132 450,132 450,132 449,132 448,132 447,132 446,131 445,131 445,132 444,132 443,132 443,132 443,132 442,132 442,132 442,134 442,134 442,134 442,134 442,134 441,134 441,134 440,134 440,134 440,135 440,135 439,135 439,136 439,136 438,136 438,136 438,135 438,135 438,135 437,135 436,135 436,135 434,136 434,136 433,137 432,137 431,138 431,138 431,139 429,140 428,140 428,140 428,140 427,140 425,139 424,139 424,139 424,139 423,139 422,138 421,138 420,138 419,138 418,138 418,138 417,139 417,139 416,139 416,139 416,139 416,139 416,138 416,138 416,138 416,138 415,138 414,138 413,138 413,139 412,139 411,139 410,140 410,141 409,141 409,141 406,141 405,141 405,141 404,141 404,141 403,141 403,141 403,141 403,142 403,142 403,143 402,144 402,144 401,145 401,146 401,147 401,147 401,147 401,147 401,148 401,148 400,148 399,148 398,149 398,149 398,149 398,150 398,150 398,150 396,150 396,150 396,150 394,150 394,150 394,150 393,150 392,150 392,151 391,151 390,153 389,154 389,154 388,154 388,154 388,154 388,155 388,155 387,156 387,156 386,156 386,156 385,157 385,158 385,158 385,158 386,159 386,159 386,159 386,159 387,158 387,158 388,158 388,158 388,159 388,160 388,160 387,160 386,162 386,162 385,162 385,162 384,162 384,163 383,163 382,164 382,164 382,164 383,164 384,165 384,165 384,165 384,165 384,166 384,166 385,167 385,167 385,168 383,170 382,171 381,172 380,172 380,173 376,174 374,174 374,174 370,174 370,174 369,174 369,174 370,174 370,174 370,174 369,175 370,175 369,176 369,176 369,176 369,177 369,177 369,178 370,179 369,180 369,180 370,180 370,180 371,181 371,181 371,181 371,181 372,182 373,182 374,183 374,183 375,184 376,185 377,185 378,186 378,186 378,186 378,187 378,187 378,187 378,187 379,188 379,189 379,190 379,192 379,193 379,193 379,193 378,194 378,194 377,194 376,194 376,194 374,195 373,195 372,196 371,197 371,196 371,196 370,195 370,195 368,196 367,196 367,196 366,195 365,194 363,193 362,192 362,192 361,192 360,192 359,192 359,192 359,192 359,193 360,193 360,193 359,193 359,194 359,194 359,194 359,194 358,193 358,193 358,195 358,195 356,197 355,196 355,196 355,196 354,196 354,196 354,196 353,196 353,196 352,196 352,196 352,196 350,195 349,194 349,194 348,194 348,193 348,192 348,192 348,191 348,191 348,191 348,191 348,191 348,191 348,190 347,189 346,189 346,189 345,188 342,187 341,187 340,186 340,186 339,186 339,186 338,186 337,186 336,186 336,186 336,185 336,184 336,184 335,184 332,183 331,183 328,184 328,185 328,185 328,185 329,186 329,186 329,186 328,187 327,187 327,187 326,188 326,188 326,188 325,188 324,188 323,188 322,188 322,188 321,188 321,189 321,189 321,189 321,189 320,190 320,190 318,190 318,190 317,190 317,190 316,191 316,191 315,191 314,191 313,191 310,190 309,190 309,190 309,190 309,189 310,187 310,186 310,186 310,186 310,185 310,185 309,185 307,185 307,185 307,185 308,185 308,188 308,189 308,190 309,191 309,191 309,194 310,194 311,195 312,196 313,196 313,197 313,197 313,198 314,199 315,200 319,203 319,203 318,203 318,204 318,204 319,204 319,204 317,205 317,206 317,207 317,207 318,208 318,208 318,208 319,208 319,209 319,209 319,210 320,210 320,210 321,210 321,211 321,211 321,211 321,211 321,212 322,213 322,213 322,214 322,214 322,215 322,215 322,217 322,217 323,217 323,218 323,219 323,219 324,219 324,219 324,220 326,220 326,221 326,221 326,221 327,222 327,222 328,223 325,225 325,226 321,229 317,231 316,231 315,234 316,235 318,235 319,235 321,236 324,235 329,234 330,234 330,234 333,235 334,236 335,235 335,237 335,238 335,241 335,242 335,243 335,245 335,245 337,246 338,246 340,247 340,249 339,252 338,252 338,253 339,255 340,256 340,259 341,259 343,259 344,262 344,262 346,261 348,263 345,265 346,266 347,268 347,268 347,268 348,268 348,268 349,268 350,268 350,267 351,267 351,267 352,267 354,267 356,268 363,268 362,270 365,271 369,272 369,272 370,272 374,272 375,273 372,274 368,275 366,277 366,277 368,280 369,282 368,283 368,284 367,284 366,285 365,286 359,287 356,289 356,290 356,290 357,292 360,290 361,290 362,291 361,291 361,291 360,292 362,293 358,293 358,293 357,293 359,295 359,296 359,296 359,296 359,296 360,297 360,298 360,298 360,298 360,299 361,300 361,300 362,302 362,303 360,304 359,304 356,303 353,303 350,302 350,302 349,301 344,303 344,302 343,300 342,301 341,302 339,303 338,304 337,305 334,306 330,308 326,309 324,310 322,310 320,311 320,312 316,315 315,317 312,318 311,320 311,323 311,324 312,325 312,326 311,328 311,329 311,330 310,331 310,331 309,332 307,333 306,333 306,334 305,334 305,338 305,340 307,344 308,345 308,346 310,348 309,348 309,348 303,348 303,349 302,349 302,349 302,350 302,350 302,351 300,352 298,352 298,351 298,350 298,349 298,349 298,348 294,348 294,348 292,347 290,346 287,346 285,347 283,347 283,347 283,347 276,350 274,351 273,351 269,351 268,351 267,351 266,349 266,347 265,345 264,344 263,343 262,342 259,341 256,340 253,341 252,341 251,340 249,338 247,338 247,338 245,338 244,339 241,342 240,343 241,344 241,345 242,345 245,346 246,347 245,347 246,351 245,353 245,354 244,355 243,356 242,358 239,359 239,359 236,359 236,358 235,358 235,355 235,355 234,354 234,354 233,354 231,355 231,355 231,356 230,357 228,358 227,359 224,360 223,360 223,358 223,357 223,356 224,356 223,354 223,353 222,353 218,353 217,353 214,353 213,352 213,352 212,352 211,350 211,350 210,349 209,349 209,350 207,352 206,353 203,354 200,354 199,354 198,353 197,353 197,352 199,350 200,347 201,346 201,345 201,345 200,343 198,340 196,339 195,338 193,336 192,336 191,336 190,336 188,338 186,340 186,340 187,341 189,342 189,343 190,344 190,345 189,345 188,345 188,345 187,345 186,345 184,343 184,342 183,340 183,340 182,340 176,339 174,338 172,338 172,338 171,339 172,341 173,342 175,343 175,343 175,346 174,347 174,347 172,347 172,347 170,347 169,347 168,347 168,347 167,346 167,344 166,343 165,342 165,342 165,343 164,344 165,345 166,346 166,347 166,347 161,348 160,349 160,349 161,350 161,350 160,351 160,351 158,351 158,351 157,350 156,349 156,348 157,348 158,346 158,345 159,344 159,344 158,343 157,343 154,344 151,344 149,343 148,343 147,343 145,341 143,340 142,338 141,338 140,338 140,337 139,337 137,336 137,336 134,335 132,335 131,335 131,335 130,335 129,336 129,336 129,336 128,336 127,336 126,335 124,336 122,335 121,336 121,336 120,337 121,338 122,338 123,339 123,340 123,340 123,340 123,340 123,340 123,340 122,341 122,342 122,344 121,344 121,347 121,347 121,348 121,348 120,348 124,352 124,352 123,352 121,352 120,352 120,352 119,354 118,355 118,355 118,357 118,357 117,358 118,359 118,360 118,361 118,362 119,363 120,364 120,364 120,365 120,366 119,366 119,367 118,367 116,367 116,367 116,368 115,367 114,367 113,367 112,366 112,366 112,366 111,366 111,366 109,366 109,366 108,366 106,366 104,366 103,366 103,367 102,366 101,366 101,367 101,367 100,368 100,368 99,368 98,369 98,369 98,368 97,368 96,368 95,367 94,368 94,368 94,369 90,370 90,370 89,369 88,368 88,368 87,367 87,367 85,367 84,365 84,365 83,363 83,362 82,362 80,362 78,362 77,361 77,360 76,360 76,360 75,360 75,360 73,359 71,357 70,357 69,356 68,356 68,356 67,356 66,356 65,356 65,356 62,356 61,357 61,357 60,356 60,357 59,359 59,359 58,359 58,360 58,360 56,360 54,359 53,359 53,359 52,359 52,359 53,358 53,358 54,357 54,357 55,356 56,355 56,354 55,354 55,354 55,354 56,353 57,353 57,353 57,352 58,352 58,351 58,351 58,350 58,350 58,350 59,350 60,350 61,350 61,349 62,349 62,349 63,348 63,347 63,347 63,347 64,347 64,346 64,346 65,345 65,344 65,344 65,344 65,344 65,344 65,343 64,343 64,342 64,342 64,342 63,341 63,340 62,340 62,340 62,339 61,338 60,337 60,337 60,336 59,336 60,335 60,335 60,335 59,334 59,333 59,333 59,332 59,332 58,332 58,331 57,331 56,330 56,330 55,330 55,330 55,331 54,332 54,333 53,335 53,336 53,337 52,337 52,337 51,338 50,338 48,338 47,338 47,337 45,337 44,337 43,336 42,336 41,335 41,334 42,333 43,333 44,332 44,331 44,331 44,331 44,330 42,330 41,329 41,330 40,330 39,330 37,331 37,331 36,331 36,331 35,331 35,331 36,330 35,329 34,328 33,328 31,325 30,324 29,324 29,324 29,323 29,323 30,323 31,323 31,323 31,323 31,323 31,322 31,322 31,322 31,322 31,321 31,321 31,321 30,320 30,320 30,320 29,319 29,319 29,319 29,319 30,319 31,318 31,318 32,318 33,319 33,319 34,319 34,318 34,318 35,318 35,318 35,317 35,317 35,317 35,317 35,316 35,316 35,316 36,315 37,315 37,315 37,315 37,314 37,314 37,314 36,313 36,313 36,313 37,313 37,313 37,312 38,312 38,311 38,311 38,311 38,311 39,310 39,309 39,309 40,309 40,308 41,308 41,307 42,307 42,307 43,306 43,306 44,306 44,305 44,305 45,305 45,305 45,305 45,305 46,305 47,305 47,305 48,305 48,305 49,305 50,305 50,305 50,305 51,305 51,305 52,305 53,305 53,305 54,305 54,304 55,304 55,304 55,303 56,303 57,302 58,301 58,301 58,300 58,300 58,300 58,299 59,298 60,297 60,297 61,296 60,296 60,295 60,294 60,294 59,294 58,294 58,293 55,293 54,292 53,292 53,292 50,290 50,290 50,290 50,290 52,290 52,290 52,289 52,289 52,288 51,287 51,287 50,284 50,284 50,283 50,282 49,281 48,280 48,280 48,279 47,278 46,276 45,275 45,274 45,274 45,274 44,273 44,273 44,272 44,272 44,272 44,271 43,269 43,269 42,269 42,268 42,268 41,267 39,266 37,264 35,262 34,262 33,262 33,262 32,262 28,262 26,262 25,262 24,262 24,262 23,262 23,262 23,262 23,261 23,261 24,260 24,260 26,260 26,259 29,259 30,259 30,259 31,258 32,257 33,256 33,256 34,256 34,256 35,256 36,256 37,256 37,256 38,256 38,256 38,256 38,255 39,255 40,254 41,254 41,254 41,253 41,252 41,252 41,251 41,251 41,251 40,250 40,250 39,250 39,250 38,250 38,250 38,250 38,250 37,250 37,250 37,249 36,248 35,248 34,247 33,247 32,246 31,246 30,246 30,246 30,245 28,245 27,245 23,244 21,244 21,244 21,243 21,242 20,241 20,241 21,241 21,240 20,239 20,239 17,236 17,235 17,234 17,234 17,234 17,233 16,233 16,233 15,233 15,233 15,233 15,233 14,234 14,234 14,234 14,234 14,234 13,235 13,235 12,235 11,236 11,236 11,236 11,235 10,235 10,234 10,234 10,234 10,233 10,233 9,233 9,233 9,232 9,232 9,232 9,232 9,231 8,231 7,231 7,230 7,230 6,230 6,229 6,229 5,228 5,228 4,228 3,227 3,227 3,226 3,226 2,226 2,225 2,225 3,225 3,224 2,224 1,224 1,223 1,223 0,222 0,222 0,221 0,221 1,220 1,220 2,218 2,218 2,217 2,217 2,216 2,216 2,215 1,215 1,215 2,215 2,215 2,215 3,215 3,215 4,215 4,214 5,214 6,214 6,214 6,213 7,213 7,213 7,214 8,214 8,214 8,215 8,215 8,215 8,215 9,215 9,215 10,215 10,215 11,215 11,214 11,214 11,214 12,214 12,214 13,214 13,214 14,213 15,212 15,211 15,210 15,210 15,210 16,210 16,209 16,209 17,209 18,209 18,209 19,209 20,209 20,209 21,209 22,209 22,209 22,209 23,209 23,209 24,210 24,210 24,211 23,211 23,212 23,212 23,213 24,213 24,213 24,214 24,214 25,214 26,214 27,213 27,213 27,213 28,213 28,213 29,212 29,212 30,212 30,212 32,213 33,214 33,214 34,214 34,214 35,213 35,213 35,212 35,212 34,211 34,211 34,211 34,210 34,210 34,209 34,209 34,208 34,208 35,207 35,207 35,207 35,208 35,208 36,208 36,208 36,209 36,209 36,209 36,209 37,209 37,210 37,210 37,210 38,209 39,209 39,208 39,209 40,209 40,209 40,209 41,209 41,209 41,209 43,210 46,211 48,212 49,213 50,213 50,213 50,213 50,213 50,214 50,214 50,214 51,214 51,214 51,214 51,214 51,214 52,214 52,214 52,214 52,214 53,214 53,214 53,214 54,214 54,214 55,214 56,214 56,214 57,214 57,214 58,214 58,214 59,214 59,214 60,215 60,215 60,215 60,215 60,215 61,215 61,215 61,215 62,215 62,215 62,215 62,215 62,215 63,215 63,215 63,215 63,215 63,215 63,214 64,214 64,214 64,214 64,214 65,214 65,214 65,214 65,214 65,214 65,214 66,214 66,214 66,214 66,215 67,215 67,215 67,215 67,215 68,215 68,215 68,215 68,215 69,215 70,215 70,215 70,215 71,215 71,215 71,214 71,214 71,214 71,213 71,213 71,213 71,213 71,213 71,213 72,212 73,212 73,211 73,211 73,211 73,211 73,210 74,210 74,210 74,210 74,209 74,209 75,209 75,209 76,209 76,209 77,209 77,209 77,209 77,210 78,209 78,209 78,209 78,209 79,208 80,208 80,207 80,207 81,207 81,206 81,206 82,205 82,205 83,205 83,204 83,204 84,204 84,204 85,203 85,203 85,203 85,202 86,202 86,202 87,202 87,201 88,202 88,202 89,202 89,201 90,201 90,200 90,199 90,199 88,198 88,198 88,197 87,196 87,195 87,195 87,195 88,193 88,193 88,193 89,193 89,193 89,192 89,192 90,191 91,190 91,190 92,190 92,190 93,189 93,189 94,189 95,188 95,187 95,187 96,186 96,186 96,185 96,184 96,183 96,182 96,181 99,181 100,181 100,181 100,182 100,182 101,182 104,182 106,182 106,182 107,182 107,182 108,182 109,181 109,180 110,179 111,178 111,178 112,177 112,177 113,177 114,177 114,177 114,177 115,177 117,176 119,176 119,176 120,175 121,174 121,174 122,173 123,173 125,173 126,172 127,172 128,172 129,172 130,172 131,172 132,172 133,171 134,171 135,171 133,169 132,169 132,168 131,167 131,166 131,164 131,163 131,160 131,160 132,160 133,159 134,159 135,159 135,158 136,158 137,156 137,156 138,155 138,154 139,152 140,151 141,149 142,148 143,145 142,144 141,142 141,142 140,139 140,137 139,136 138,134 138,133 137,132 137,131 136,131 135,128 135,128 134,127 134,126 134,124 134,123 134,123 136,120 136,120 136,116 136,115 136,111 136,110 135,107 135,103 135,103 136,101 136,100 136,97 135,94 134,93 134,92 134,91 134,90 134,90 133,88 131,86 130,85 126,83 126,82 126,82 124,81 124,81" id="4305" class="canton" fill="steelblue" stroke-width="1" stroke="white" geotype="canton" geoname="Deux Rivières et Vallées" code_insee="4305" code_departement="43" nom_departement="Haute-Loire" code_region="84" nom_region="Auvergne-Rhône-Alpes"/></svg>