<?xml version="1.0" encoding="utf-8"?>
<svg version="1.1" id="svgmap" xmlns="http://www.w3.org/2000/svg" xmlns:xlink="http://www.w3.org/1999/xlink" x="0px" y="0px" width="100%" height="100%" viewBox="0 0 500 210">
<polygon points="248,24 249,25 250,25 251,25 253,22 254,22 255,22 256,21 263,23 264,21 265,21 266,20 267,19 268,18 269,17 271,18 271,18 272,18 274,18 274,17 276,16 279,16 280,14 282,12 285,12 285,9 285,9 287,9 289,9 293,10 295,11 296,11 298,12 300,12 302,14 304,14 305,14 306,14 307,15 309,16 309,16 310,16 311,16 313,14 313,14 313,13 313,12 312,11 312,10 313,10 315,9 315,9 315,9 312,8 311,7 311,6 311,5 311,4 312,3 314,2 315,2 317,2 319,2 320,2 324,0 325,6 330,8 331,10 332,11 337,11 344,12 345,12 344,13 350,17 351,18 352,18 353,18 354,19 354,19 356,21 356,21 360,25 361,25 364,25 365,27 370,30 371,34 372,34 372,35 374,34 374,35 375,35 376,36 377,35 377,38 380,38 384,40 384,42 384,43 389,42 390,43 389,45 390,46 390,47 390,48 392,49 392,49 392,49 395,53 396,57 398,57 398,57 401,54 403,53 407,56 407,56 410,57 410,58 411,58 413,61 418,58 420,59 421,63 421,63 423,64 423,66 424,66 425,66 427,66 428,66 429,67 430,67 431,68 432,69 431,69 432,70 432,70 432,72 434,72 434,74 436,74 437,74 438,74 438,74 440,76 438,78 436,80 436,81 436,82 435,84 435,84 435,85 434,85 434,85 433,86 433,86 433,86 433,87 434,87 435,87 439,87 441,88 441,88 442,88 442,88 442,88 443,88 445,88 446,88 450,89 452,89 453,88 454,88 457,88 459,87 460,86 461,86 462,85 464,84 464,86 464,89 465,89 466,89 469,90 469,90 468,90 468,90 467,90 468,91 469,91 468,91 467,91 467,93 467,97 467,98 467,99 466,99 463,101 463,101 467,103 468,103 472,106 474,107 477,108 478,109 479,111 480,112 482,113 484,116 486,117 488,120 489,121 490,121 491,121 496,123 498,124 500,125 500,125 500,125 497,125 492,127 490,127 487,129 486,129 485,128 485,129 482,130 481,130 479,130 478,132 477,132 476,133 475,131 474,131 471,131 469,131 468,131 469,128 469,127 468,125 464,125 456,124 456,124 455,123 455,124 454,123 453,123 450,123 444,126 440,126 440,127 434,127 433,127 433,128 433,130 432,131 431,133 428,134 429,134 429,135 427,138 427,138 426,139 425,140 425,141 424,142 422,143 421,143 420,143 419,143 418,143 417,142 416,142 416,140 416,139 415,138 415,138 413,136 411,136 409,136 408,136 405,136 403,136 402,135 401,134 400,134 401,132 401,131 402,131 403,131 403,131 404,130 404,128 404,128 403,128 402,128 400,128 398,129 396,131 392,134 390,136 389,137 387,138 386,138 384,137 383,137 382,136 382,135 382,134 383,133 384,132 384,131 382,130 381,129 379,127 375,122 374,123 373,125 373,126 370,129 366,132 363,131 361,130 357,133 355,136 355,136 354,136 352,135 352,134 351,134 350,132 349,132 347,132 345,132 343,131 340,130 339,130 339,130 339,131 340,132 341,136 341,137 342,137 343,138 343,141 345,147 346,148 346,148 346,150 348,153 348,154 348,154 347,156 347,158 345,157 343,158 342,158 342,157 341,158 340,157 334,158 335,159 329,162 331,164 331,166 332,167 333,169 334,171 334,173 331,173 330,173 328,174 325,174 320,175 318,172 317,170 313,171 309,171 305,173 304,173 303,173 297,171 294,170 291,170 291,170 290,169 289,169 288,168 286,167 286,167 285,167 283,168 280,170 280,172 277,175 276,176 274,177 274,178 275,179 276,180 277,181 276,182 275,184 273,186 270,187 269,188 268,188 266,188 265,188 264,188 263,188 263,188 262,189 261,190 261,191 261,191 260,192 259,193 257,195 257,195 256,196 256,196 254,198 254,198 253,199 253,199 252,200 252,200 251,200 251,200 251,201 250,201 249,202 249,202 247,204 247,204 246,205 245,206 245,207 244,207 244,207 243,207 243,207 242,207 242,208 241,208 241,208 241,208 240,209 240,209 239,209 238,209 237,209 237,210 235,210 233,210 232,210 231,210 230,210 230,210 229,210 229,209 228,209 228,209 228,209 227,209 227,209 226,209 226,209 225,209 225,208 224,208 223,208 222,207 221,207 221,207 220,206 219,206 219,206 219,206 218,205 218,205 218,205 217,206 217,207 217,207 216,207 215,207 214,207 214,208 213,208 212,208 212,208 212,208 211,208 211,208 211,208 210,208 210,208 210,208 209,207 209,207 208,207 207,206 206,206 205,206 205,206 204,205 203,206 204,205 203,204 204,201 203,201 205,198 205,197 205,197 205,197 206,196 206,196 206,195 208,194 210,193 207,189 206,188 206,188 205,188 205,189 205,189 205,190 204,190 203,191 202,191 203,190 202,189 201,189 199,188 198,186 197,184 196,181 195,179 192,177 191,176 188,173 188,173 186,172 185,171 181,170 181,170 179,169 177,167 176,167 175,167 175,167 170,165 168,165 167,164 165,164 163,164 162,164 162,164 158,165 157,165 156,165 152,164 147,164 146,164 143,165 141,166 130,170 129,170 125,171 123,171 122,171 122,171 121,170 122,169 121,169 121,169 120,168 117,167 116,168 115,169 113,169 111,169 110,167 110,165 110,163 110,163 108,161 107,160 106,160 104,161 102,161 102,161 102,161 101,161 100,162 99,162 97,162 97,162 96,162 96,160 95,160 96,159 94,158 93,158 93,158 90,157 89,157 88,155 87,155 85,155 84,155 81,155 81,155 79,157 76,158 74,159 71,161 70,161 69,162 68,162 67,162 63,163 60,162 59,162 58,162 57,162 57,162 56,162 55,162 53,162 51,161 46,161 45,161 45,160 41,159 34,159 34,159 34,160 33,160 31,161 28,161 28,162 28,163 27,162 26,162 25,161 23,162 22,162 20,161 19,161 19,160 19,160 20,159 20,159 20,158 21,157 22,156 23,155 23,154 23,154 24,152 24,151 24,150 24,149 23,149 23,149 22,149 21,150 20,151 19,151 17,151 16,151 14,152 13,152 13,152 10,153 8,154 7,154 4,155 3,155 1,155 1,155 2,154 1,154 0,152 1,151 2,151 5,149 5,149 6,148 6,148 7,147 9,146 14,146 16,145 17,145 15,144 14,144 13,143 11,141 11,141 11,140 11,139 13,138 14,135 15,135 15,135 19,129 21,130 21,130 22,130 22,129 23,129 24,126 24,125 24,124 25,121 27,121 27,120 28,119 28,118 30,117 27,114 27,114 27,113 28,111 28,109 29,109 28,108 29,108 29,107 32,106 35,105 36,104 37,103 37,104 38,105 39,105 40,106 42,107 43,108 45,110 47,111 48,112 48,112 49,112 49,112 50,112 51,110 51,109 53,105 54,104 55,101 55,100 55,98 47,95 46,95 44,94 41,92 38,90 16,65 22,65 30,64 30,63 32,63 34,62 36,60 36,60 36,59 37,58 38,58 37,56 37,55 38,55 39,53 39,52 41,52 43,51 44,51 46,51 46,50 47,50 50,50 50,52 52,53 57,52 60,51 60,51 59,49 55,50 53,50 53,48 52,47 51,47 51,46 52,46 51,45 59,43 58,42 58,42 60,42 60,41 61,41 61,41 64,40 65,40 63,38 63,37 67,36 69,35 70,35 74,38 76,39 77,41 79,41 80,41 80,42 80,43 80,45 81,45 83,46 83,46 83,47 83,47 90,50 91,50 92,50 96,52 100,50 100,51 104,49 105,48 115,43 120,41 121,40 125,37 126,36 127,37 129,36 129,36 130,36 133,34 137,31 139,32 146,35 146,35 147,36 147,35 148,35 154,36 155,36 158,35 161,35 162,36 163,36 165,37 167,38 167,38 170,39 172,40 175,40 178,40 181,40 183,35 184,34 184,34 199,33 200,33 203,32 205,31 206,31 207,31 207,31 210,30 214,29 215,29 216,29 217,29 217,28 219,28 220,27 221,28 223,28 227,28 228,28 229,29 229,30 230,30 232,31 237,31 240,31 241,31 243,30 248,24" id="4313" class="canton" fill="steelblue" stroke-width="1" stroke="white" geotype="canton" geoname="Puy-en-Velay-2" code_insee="4313" code_departement="43" nom_departement="Haute-Loire" code_region="84" nom_region="Auvergne-Rhône-Alpes"/></svg>