<?xml version="1.0" encoding="utf-8"?>
<svg version="1.1" id="svgmap" xmlns="http://www.w3.org/2000/svg" xmlns:xlink="http://www.w3.org/1999/xlink" x="0px" y="0px" width="100%" height="100%" viewBox="0 0 500 267">
<polygon points="134,15 137,16 139,16 139,16 139,16 144,15 151,17 154,18 156,18 160,19 167,18 169,19 172,19 174,19 177,19 178,19 182,19 188,25 203,23 227,22 234,21 235,21 240,21 248,21 249,20 253,18 255,16 256,15 257,15 255,19 255,21 259,21 261,22 263,23 272,23 274,22 278,24 280,24 283,25 286,23 289,24 289,25 291,26 296,26 295,24 295,23 294,22 293,20 293,20 298,20 304,25 313,28 318,27 324,24 337,23 341,24 344,26 347,27 350,26 357,26 358,26 367,24 370,24 371,22 371,20 374,15 376,8 379,4 386,4 390,5 393,4 396,3 398,2 402,2 404,3 410,4 413,4 414,5 414,7 418,7 420,8 422,8 423,9 424,9 427,6 430,4 437,3 440,5 442,5 444,3 444,2 446,1 446,2 448,1 450,0 453,0 456,1 460,0 463,0 467,0 468,0 472,0 474,0 483,1 484,1 487,3 486,7 481,10 475,11 466,17 464,21 464,24 466,32 463,38 460,39 461,43 462,49 468,51 478,53 481,56 482,62 481,63 480,63 480,64 479,64 477,65 476,66 475,67 474,67 473,70 473,71 472,71 472,71 469,71 468,71 467,71 468,72 468,75 469,78 469,79 469,81 470,83 471,82 471,82 473,85 475,86 477,88 483,92 490,95 490,95 491,96 492,97 495,98 496,99 500,101 498,102 499,104 489,109 483,111 482,112 481,113 480,114 480,115 480,115 479,116 479,116 479,116 479,116 479,116 479,117 479,117 480,118 481,118 479,125 477,127 476,128 476,129 475,130 475,131 475,133 474,134 473,134 472,135 471,136 471,136 469,139 465,142 465,143 466,144 466,145 466,146 466,146 467,147 468,148 469,149 471,151 471,151 468,152 466,152 465,152 465,152 464,153 464,160 465,193 465,194 465,198 465,201 465,202 464,202 460,201 459,200 457,200 457,200 456,200 454,201 454,201 451,202 451,202 449,204 449,205 448,205 447,205 448,206 447,206 448,207 447,207 445,208 442,208 441,209 440,209 438,209 437,209 436,209 435,209 435,210 435,210 434,211 434,211 433,211 433,211 432,211 432,211 431,211 431,212 430,212 430,211 429,212 425,212 423,213 421,215 419,216 419,217 419,218 419,218 419,219 419,219 418,220 417,221 416,222 416,222 416,223 415,222 414,223 412,223 410,223 409,222 407,222 406,222 406,222 406,222 404,221 404,221 404,221 403,221 403,221 402,221 402,220 401,220 401,220 401,220 400,219 400,219 399,218 399,218 399,218 399,218 399,218 399,217 399,217 399,217 398,217 398,218 398,219 397,220 397,221 397,222 396,222 396,222 396,223 396,223 396,223 395,224 395,225 394,225 394,226 394,226 394,226 394,227 394,228 394,228 394,230 394,230 393,231 393,232 393,233 394,233 393,234 394,234 393,234 393,235 393,235 393,236 393,237 392,237 392,238 392,238 393,239 393,239 393,239 393,239 393,239 393,239 393,240 393,242 394,242 393,244 393,246 393,246 394,247 394,247 394,248 395,248 395,249 395,250 395,251 394,252 395,252 395,252 396,252 396,252 397,252 398,252 398,252 399,252 398,253 398,253 400,254 401,254 401,254 402,254 404,254 405,255 405,254 405,254 406,253 406,253 406,253 407,253 408,253 408,253 409,254 409,255 410,255 410,255 412,256 412,256 412,257 412,257 413,257 412,261 412,263 411,265 411,266 411,266 411,266 411,266 411,266 411,267 410,267 410,267 410,267 410,267 409,267 409,267 408,267 408,267 407,267 406,267 405,267 405,267 405,266 405,266 404,266 404,266 401,266 401,266 401,266 394,265 393,265 393,265 393,265 393,265 394,265 394,265 394,265 394,264 394,264 394,263 393,262 393,262 393,261 393,261 392,260 392,259 391,259 391,258 391,258 391,258 390,257 390,257 390,256 390,256 389,255 389,255 389,254 389,254 388,252 388,252 388,251 387,250 387,250 387,250 387,249 386,249 386,248 385,248 384,246 384,246 384,246 384,245 383,245 383,245 382,244 382,244 381,243 381,243 381,242 381,242 381,242 380,241 380,241 380,241 380,240 379,239 379,239 378,238 378,238 378,237 378,237 378,237 377,236 377,236 377,235 377,235 376,234 376,234 376,234 376,233 376,233 375,232 375,232 375,232 375,231 374,231 374,230 374,230 374,229 373,228 373,228 373,228 372,227 372,227 372,227 371,226 371,225 370,226 370,225 369,225 368,225 368,225 368,224 368,224 367,224 367,223 366,221 366,221 365,220 364,219 364,219 364,219 364,219 363,218 363,218 363,218 362,218 361,217 360,217 360,217 360,217 359,216 359,216 358,216 356,215 354,215 353,215 353,214 353,214 352,214 352,214 350,213 349,213 349,213 349,213 348,213 348,212 348,212 348,212 347,212 347,211 346,211 345,210 344,210 344,210 344,210 343,209 343,209 341,208 341,208 341,208 341,208 340,208 340,207 340,207 340,207 339,207 338,207 337,206 335,206 333,205 332,205 330,205 330,205 330,205 329,205 328,204 328,204 328,204 327,204 327,203 326,203 326,202 326,202 326,202 325,202 325,202 325,201 324,201 324,201 323,201 323,200 323,200 322,200 322,200 322,200 322,200 321,199 320,199 320,198 319,198 319,197 318,197 317,196 317,195 316,195 316,195 315,194 314,194 313,194 312,195 313,195 313,195 313,195 313,196 313,196 313,196 313,196 313,196 313,196 313,195 312,195 311,194 311,194 310,194 310,194 310,194 310,193 310,193 309,192 308,191 307,190 306,188 306,187 305,186 305,184 305,184 305,184 305,184 305,184 304,184 305,184 304,184 304,184 303,184 303,184 302,183 302,183 302,183 302,183 302,183 302,183 302,183 301,183 301,182 301,182 301,182 301,182 301,182 300,181 300,181 300,181 300,181 299,181 299,181 299,181 298,181 298,181 298,181 298,181 298,181 298,181 298,181 298,181 297,180 297,180 297,180 297,180 297,180 297,180 297,180 297,180 297,180 296,180 297,180 297,179 296,179 296,179 296,179 296,179 296,178 296,178 296,178 296,178 296,178 295,178 296,178 295,178 295,178 295,177 295,177 294,177 294,177 295,177 295,177 295,177 294,177 294,176 294,176 294,176 293,176 293,176 293,176 293,175 293,175 293,175 293,175 293,175 293,174 293,174 293,172 292,171 291,169 291,169 290,168 290,168 290,168 290,168 290,168 290,169 290,168 290,168 290,168 290,168 290,168 290,168 290,168 290,168 290,168 290,168 290,168 289,168 289,168 289,168 289,167 289,167 289,167 288,167 288,167 288,167 288,167 288,167 287,167 287,167 286,167 286,166 285,166 285,166 284,167 283,167 281,166 280,166 279,166 278,165 277,165 276,165 274,164 271,164 270,163 269,163 268,163 267,162 267,162 267,162 267,162 266,162 266,162 266,162 266,162 266,162 266,162 265,162 265,162 265,162 264,162 264,162 264,161 264,162 264,161 264,161 263,161 262,161 262,160 262,160 262,160 262,160 262,160 262,160 262,160 262,159 261,159 261,158 260,158 259,158 259,158 258,158 258,158 257,158 257,158 256,158 256,158 256,158 255,158 254,158 254,158 254,158 254,158 254,158 253,158 253,158 253,158 253,158 253,158 253,158 253,158 252,158 252,158 251,158 251,158 251,158 251,158 251,158 250,158 250,158 250,158 250,158 250,158 249,158 249,158 249,158 249,158 249,158 248,158 248,158 248,158 248,157 248,157 248,157 248,157 248,157 247,157 247,157 247,157 247,157 247,157 247,157 247,157 247,156 247,156 247,156 246,156 246,156 246,156 246,155 245,155 245,155 244,155 244,155 244,155 244,155 244,155 244,155 243,155 243,155 243,155 243,155 243,155 243,155 243,155 243,155 243,155 242,155 242,155 242,155 242,155 242,155 242,155 242,155 242,155 242,155 241,155 241,155 241,155 241,155 241,155 241,155 241,155 241,155 241,154 240,154 240,154 240,155 240,155 240,154 240,154 239,155 240,154 239,154 239,154 239,154 239,154 239,155 237,155 237,154 237,154 237,155 236,155 236,154 236,155 236,155 236,155 236,155 235,154 236,154 236,154 235,154 235,154 235,154 235,154 235,154 235,154 235,154 235,154 235,154 235,154 235,154 234,154 234,154 234,154 234,154 234,154 234,154 234,154 234,153 234,153 233,153 233,153 233,153 233,153 233,153 233,153 232,153 232,153 232,153 232,153 232,153 232,153 231,152 231,152 231,152 231,152 231,152 231,152 231,152 231,152 231,152 230,152 230,152 230,152 230,152 230,152 230,152 230,152 229,152 229,152 229,151 228,151 228,151 228,151 228,151 227,151 227,151 227,151 227,151 227,151 227,151 226,151 226,151 226,150 225,150 225,150 225,150 225,150 225,150 224,150 224,150 223,150 222,150 220,150 220,150 220,150 220,150 220,150 220,150 220,150 219,150 219,150 219,150 219,150 219,150 219,150 219,150 218,150 218,150 218,150 217,150 217,150 217,150 217,150 217,150 216,150 215,150 214,150 214,150 214,150 214,150 213,150 214,150 214,150 213,150 213,150 213,150 212,150 212,150 212,150 212,150 212,150 212,149 212,149 212,149 211,149 211,148 210,148 210,148 209,147 209,147 209,147 209,147 210,147 210,147 210,147 210,147 209,147 209,147 210,147 210,147 209,147 209,146 209,146 209,146 210,146 210,146 211,146 210,146 210,145 210,145 209,145 209,144 209,144 209,145 210,145 210,145 211,145 212,145 213,144 214,144 214,144 214,144 214,143 214,143 214,143 214,143 214,142 214,142 215,142 215,141 216,140 217,140 217,140 217,139 217,139 219,139 220,139 223,138 223,138 223,138 223,138 223,137 222,137 221,137 221,138 220,138 218,138 218,139 217,139 216,139 216,139 216,138 215,139 215,138 214,139 214,139 213,139 213,139 213,140 213,140 213,140 212,140 212,140 212,140 211,140 211,141 211,141 211,142 211,142 211,141 211,141 211,142 210,142 211,142 211,142 210,142 209,143 208,143 208,143 206,144 205,144 205,144 205,144 205,145 204,145 204,148 204,148 204,148 204,148 204,148 204,148 204,148 204,145 204,145 204,145 203,145 202,145 202,145 201,145 201,145 200,145 199,145 199,146 199,146 198,146 198,146 198,146 197,146 196,146 196,146 196,147 196,147 196,147 196,147 196,147 196,147 197,149 197,149 197,149 197,149 198,149 204,149 204,149 204,149 198,149 197,149 197,149 197,149 196,149 196,147 196,147 196,147 196,146 195,145 195,145 194,145 194,145 194,145 193,145 193,145 193,145 193,145 193,145 192,145 192,145 191,145 191,145 191,145 191,145 190,145 190,145 190,146 190,146 190,145 190,146 190,146 190,146 190,145 190,145 189,145 189,145 189,146 189,146 189,146 189,146 189,146 189,146 188,146 188,146 188,146 188,146 188,146 188,146 188,146 187,146 188,145 188,145 188,145 188,145 188,145 188,145 187,145 187,145 187,145 187,145 187,145 187,145 187,145 187,145 187,145 187,145 187,145 187,145 187,145 187,145 187,145 186,144 186,144 186,144 185,144 185,143 184,144 184,144 184,144 184,144 184,144 184,144 184,144 183,144 183,144 184,144 183,143 183,144 183,144 183,144 183,144 183,143 183,143 183,143 183,143 183,143 183,143 182,143 182,143 182,143 182,143 182,142 181,143 181,142 181,142 180,142 180,142 180,142 179,142 179,142 179,142 179,142 179,143 179,143 179,143 179,143 179,143 179,143 179,143 179,143 179,143 178,143 178,143 178,143 178,143 178,143 178,143 178,143 177,143 177,143 176,143 176,143 176,143 176,143 175,143 175,143 175,143 175,143 175,143 175,144 175,144 174,144 173,144 173,144 173,144 173,144 173,144 173,144 173,144 173,144 173,144 172,144 172,144 172,144 172,144 172,144 172,143 172,144 172,144 172,144 171,144 171,144 171,144 170,144 170,144 170,143 170,143 170,144 170,144 169,144 169,143 169,143 169,144 168,143 168,143 168,143 168,143 168,144 168,144 168,144 167,144 167,144 167,144 167,144 167,144 167,144 167,144 166,144 166,144 166,144 166,144 166,144 166,143 166,144 166,143 166,143 166,144 166,144 165,144 165,144 166,144 165,143 166,143 165,143 165,143 165,143 164,143 164,143 162,143 161,143 160,143 159,143 158,143 155,143 154,142 154,142 152,142 151,141 151,141 150,141 146,142 146,142 142,141 139,141 139,140 139,140 139,140 139,140 139,140 139,140 139,140 139,140 138,140 138,140 138,140 138,140 138,140 137,140 137,140 137,140 137,140 137,140 137,140 137,140 137,140 137,140 137,140 136,140 136,140 136,140 136,140 136,140 136,139 136,139 136,139 136,140 136,139 136,139 135,139 135,140 135,140 135,139 135,139 135,139 135,139 135,139 135,139 135,139 135,139 134,139 134,139 134,139 134,139 134,139 134,139 134,139 134,139 134,139 133,139 133,139 133,138 133,138 133,138 133,138 133,138 133,138 133,138 133,138 133,138 133,138 133,138 133,138 133,138 132,138 132,138 132,138 132,138 131,137 131,137 131,137 132,137 132,137 131,137 131,137 131,137 131,137 131,137 131,137 131,137 130,137 130,137 130,137 130,137 130,137 130,137 130,137 129,137 129,137 129,137 129,137 129,137 129,137 128,137 128,137 128,137 128,137 128,137 128,137 128,137 128,137 128,137 128,137 128,137 128,137 128,137 128,137 128,137 128,136 127,136 127,135 127,135 127,135 127,135 126,134 126,134 126,134 126,134 126,134 126,134 125,134 125,133 125,133 124,133 124,133 123,133 123,133 123,133 123,133 123,133 123,133 123,133 123,133 122,133 122,133 122,133 122,133 122,133 122,133 122,133 121,134 121,134 121,134 121,134 121,134 120,134 120,134 120,133 120,133 120,133 120,133 120,133 120,133 120,133 120,133 120,133 120,133 120,133 119,133 119,133 119,133 119,133 119,133 119,133 119,133 119,133 119,133 119,133 118,133 118,133 118,133 118,133 118,133 118,133 118,133 118,132 117,132 117,132 117,132 117,132 117,132 116,133 116,133 116,133 116,133 116,132 116,132 116,132 116,132 116,132 116,133 115,133 115,132 115,132 116,132 115,132 115,132 115,132 115,132 115,132 115,132 115,132 115,132 114,131 114,131 114,131 113,131 113,131 113,131 113,131 113,131 113,131 113,131 113,131 113,131 113,131 113,131 113,131 113,131 113,131 112,131 112,131 112,131 112,131 112,131 112,131 112,131 112,131 112,131 112,131 112,131 112,131 111,131 111,131 111,131 111,131 111,131 111,131 111,131 111,131 111,131 111,131 110,131 110,131 110,131 110,131 110,131 110,131 110,131 110,131 110,131 110,131 110,131 110,131 110,131 110,131 109,131 109,131 109,131 109,131 109,131 109,131 109,131 109,131 109,131 109,131 109,131 109,131 109,131 109,131 109,131 109,131 108,131 108,131 108,131 108,131 108,131 108,131 108,131 107,131 107,131 107,130 107,130 107,130 106,130 106,129 105,129 105,128 105,128 104,128 104,128 104,128 104,128 104,128 104,128 103,128 103,128 103,128 102,128 102,128 102,128 102,128 102,128 102,128 102,129 101,129 101,129 101,129 101,129 100,129 100,128 100,128 100,128 100,128 100,128 99,128 99,128 99,128 99,128 99,128 98,127 98,127 98,127 98,127 98,127 97,127 97,127 97,127 97,127 97,127 96,127 96,128 95,128 95,127 95,127 94,127 94,127 94,128 94,128 93,128 93,127 92,127 92,127 92,127 92,127 91,127 91,127 91,127 90,127 90,127 89,127 89,127 89,127 88,127 88,127 88,127 88,127 87,127 87,127 86,127 86,127 86,127 85,127 85,127 85,127 85,127 84,127 84,127 84,127 83,127 83,127 83,127 83,127 82,127 82,127 82,126 81,126 80,126 80,126 80,126 80,126 80,126 80,126 80,126 78,125 78,125 78,125 77,125 77,125 77,125 77,125 77,125 76,125 76,125 75,125 75,125 75,125 74,125 74,125 73,125 73,125 72,125 72,125 72,125 72,126 71,126 71,125 71,125 71,125 71,125 70,125 69,124 68,124 67,123 66,123 66,123 65,123 65,123 64,123 64,123 64,123 63,123 63,123 62,123 62,123 62,123 61,123 61,123 61,123 60,123 60,123 60,123 59,123 59,123 59,123 58,124 58,123 57,124 56,124 55,124 55,124 54,124 54,124 53,124 52,125 51,125 50,125 50,125 49,125 49,124 49,124 48,124 47,124 47,124 47,124 46,124 45,123 45,123 44,123 44,123 43,123 43,123 42,123 41,122 41,122 41,122 40,121 40,121 41,121 41,121 40,121 40,121 40,120 40,120 40,120 40,119 40,119 39,119 39,118 39,118 38,118 38,118 38,118 37,118 37,118 38,118 38,118 37,118 37,117 37,117 37,117 37,117 36,117 36,117 36,116 36,116 36,116 35,116 35,116 35,116 35,116 35,116 35,116 34,116 34,116 34,116 34,116 34,116 34,116 33,116 34,116 33,116 32,115 32,114 31,114 31,114 29,114 29,114 30,114 29,114 29,114 29,114 28,114 28,114 28,114 28,114 28,114 27,114 27,114 27,114 27,114 26,114 26,114 26,114 25,114 25,114 25,113 24,114 23,113 23,113 23,113 22,113 21,113 21,113 21,113 21,114 20,114 20,114 21,114 20,114 20,115 19,115 19,115 18,115 18,115 18,114 17,115 17,114 16,114 16,114 16,114 15,114 15,114 14,113 13,112 12,112 11,112 10,112 10,112 9,112 9,112 9,112 9,112 8,112 8,112 8,112 8,112 8,112 8,112 8,113 8,113 8,113 8,113 7,113 7,113 7,113 7,113 7,113 6,113 6,114 6,114 6,114 6,114 6,114 7,114 7,114 7,114 6,114 6,114 6,114 6,115 6,115 7,115 7,115 6,115 5,115 5,115 5,115 5,115 5,115 5,114 5,114 5,114 5,114 5,114 5,114 5,114 5,114 5,114 5,114 5,114 4,114 4,114 4,114 4,114 4,114 4,114 4,114 4,114 4,114 4,113 3,113 3,113 3,113 2,113 2,112 2,112 2,112 2,112 2,112 2,112 1,111 1,111 1,110 0,110 0,110 0,110 1,109 1,109 2,108 3,107 3,107 3,107 3,107 4,107 4,107 4,106 4,105 4,105 4,105 4,104 4,104 4,104 4,104 4,101 3,100 3,100 3,100 3,100 3,100 3,100 4,101 4,104 4,104 5,104 5,105 5,105 5,105 5,105 5,106 5,106 5,106 6,106 6,106 6,106 6,106 6,106 6,106 6,106 6,106 7,107 8,107 8,107 9,107 10,106 12,105 13,105 14,103 15,103 15,103 16,103 16,102 16,102 17,102 18,101 18,100 19,99 19,99 20,98 21,98 21,98 21,97 22,97 22,97 23,98 23,97 24,97 25,96 26,96 27,95 28,95 28,94 29,94 29,93 29,93 29,91 30,91 30,90 31,89 31,89 32,89 32,88 32,88 32,87 32,86 33,85 33,85 34,84 34,82 34,82 36,82 37,81 38,81 39,80 40,80 41,80 41,80 42,81 44,81 45,80 45,80 46,80 47,80 48,79 49,79 50,78 50,78 51,78 52,78 52,77 50,73 50,70 50,70 50,70 51,70 51,69 54,69 55,70 55,70 55,70 55,70 54,70 54,70 54,70 52,70 52,70 52,70 51,70 51,70 51,70 51,70 51,70 51,70 51,70 50,73 51,75 52,75 52,76 52,76 53,76 53,77 53,77 54,77 55,77 55,77 56,77 56,77 56,77 57,77 57,76 58,76 58,76 58,76 59,76 59,75 59,75 59,75 60,75 60,75 60,75 61,75 61,75 61,75 62,75 62,76 62,76 63,76 63,76 64,76 64,76 65,76 65,76 66,75 67,75 68,75 69,74 70,74 70,74 70,73 71,73 71,73 72,73 72,73 73,73 74,72 74,72 75,72 75,72 75,72 76,72 76,72 77,72 78,73 78,73 79,73 81,74 81,74 81,74 81,74 82,74 82,74 82,74 83,74 83,74 84,74 84,74 84,74 85,74 85,74 85,74 85,74 86,74 86,74 87,74 87,75 88,75 88,75 88,75 89,75 89,75 89,75 90,75 90,75 90,75 90,75 91,75 91,75 92,75 92,75 93,75 94,75 95,75 97,75 97,75 97,75 98,75 98,75 99,76 99,76 100,76 100,76 100,76 100,76 101,76 101,76 101,77 101,77 102,77 102,77 103,77 104,76 106,76 107,75 108,74 109,73 110,72 112,70 113,69 113,68 114,67 114,67 115,67 115,67 116,66 118,63 120,59 122,55 122,52 123,51 123,50 124,50 124,50 124,49 124,49 124,49 125,49 125,48 125,48 125,48 125,48 126,45 126,45 126,45 127,43 127,41 128,40 128,38 128,36 128,36 128,34 129,32 129,29 130,29 130,28 130,26 129,24 129,23 129,23 129,23 129,23 129,23 129,23 129,23 129,22 129,21 130,21 130,21 131,21 131,21 131,20 132,19 132,19 133,18 133,17 133,15 134,15" id="4420" class="canton" fill="steelblue" stroke-width="1" stroke="white" geotype="canton" geoname="Pornic" code_insee="4420" code_departement="44" nom_departement="Loire-Atlantique" code_region="52" nom_region="Pays de la Loire"/></svg>