<?xml version="1.0" encoding="utf-8"?>
<svg version="1.1" id="svgmap" xmlns="http://www.w3.org/2000/svg" xmlns:xlink="http://www.w3.org/1999/xlink" x="0px" y="0px" width="100%" height="100%" viewBox="0 0 500 284">
<polygon points="1,177 1,177 1,177 4,175 6,173 15,163 16,163 22,161 23,162 23,161 23,161 25,163 26,163 26,164 27,164 27,164 27,164 27,164 28,164 28,164 28,164 28,164 29,164 29,164 29,164 29,165 29,164 30,164 30,164 31,163 31,163 31,163 31,162 31,162 31,162 31,162 31,162 31,162 34,162 34,162 35,161 37,161 54,152 55,151 56,149 56,149 55,149 54,147 55,147 55,146 55,146 55,146 55,145 54,145 54,144 53,144 52,144 51,144 49,144 48,143 46,143 46,142 46,142 46,141 46,141 47,140 47,139 46,139 46,138 46,138 46,138 46,137 46,137 47,137 47,137 46,137 46,137 46,136 45,136 45,135 45,135 45,135 45,134 45,133 45,133 45,132 45,132 45,132 44,133 44,133 44,133 43,133 43,133 42,133 41,132 41,132 40,132 40,132 40,132 40,132 39,132 39,132 39,132 39,132 38,132 37,132 37,132 37,131 36,131 36,131 36,130 36,130 36,130 36,130 36,129 35,129 38,126 38,126 38,126 37,126 37,126 36,126 36,127 35,126 35,126 35,125 36,124 34,123 34,123 33,122 33,122 32,122 32,122 31,122 31,122 31,122 30,122 29,122 28,122 27,122 27,122 27,122 27,122 26,122 25,122 24,122 24,122 24,121 23,121 23,121 23,120 24,120 24,120 22,118 22,117 22,116 21,115 20,114 20,112 20,111 19,109 20,110 21,109 21,108 21,108 21,108 22,107 22,107 23,106 23,106 23,106 23,106 23,106 23,105 24,103 24,103 22,103 22,103 22,103 21,103 21,103 21,102 20,101 20,101 20,101 19,100 19,100 19,100 19,100 19,100 18,100 16,99 16,99 16,99 14,100 13,100 12,98 11,95 11,95 16,91 16,88 17,86 17,85 17,85 17,84 18,82 17,82 16,82 16,80 16,79 16,79 17,78 18,78 18,78 18,77 18,77 19,77 19,77 19,76 19,76 19,75 19,75 19,74 19,74 19,73 18,73 16,70 15,67 14,65 15,65 15,65 15,65 16,65 16,65 16,65 16,65 17,62 17,62 18,61 18,61 19,61 20,60 21,60 21,60 22,58 22,58 23,55 22,55 23,52 20,52 23,49 21,45 22,45 21,45 20,44 20,44 20,44 20,44 19,43 19,43 19,43 19,43 19,42 19,42 19,42 19,41 19,41 18,39 18,39 18,39 18,38 18,38 19,37 19,37 19,37 19,36 19,36 19,36 19,36 19,35 20,35 20,35 26,36 26,35 30,36 30,36 31,35 32,35 33,33 34,31 37,33 37,32 37,32 39,28 39,28 38,28 37,27 37,27 36,26 36,26 34,24 33,23 33,23 33,23 32,22 32,22 32,21 32,21 32,20 32,20 32,18 32,18 32,17 32,17 33,16 33,16 33,15 34,14 35,13 35,12 36,11 37,11 37,11 37,10 38,8 38,8 38,7 38,7 38,6 38,6 38,6 37,5 37,5 37,5 37,4 37,4 37,4 37,4 37,4 37,4 39,2 39,2 39,2 40,2 40,3 41,3 41,3 41,4 41,5 42,5 42,5 42,5 42,5 42,5 42,5 42,5 43,5 43,5 43,5 43,6 44,6 46,6 46,7 47,7 47,7 48,7 48,7 48,7 49,7 49,7 49,8 49,8 50,7 51,7 51,7 51,7 51,7 51,7 51,7 51,7 51,7 52,7 52,7 52,7 52,7 53,7 53,7 55,7 56,7 57,7 57,7 58,6 59,6 61,6 61,7 63,7 64,7 64,7 65,7 65,6 66,6 67,6 68,6 68,6 72,5 73,5 73,5 75,5 75,6 75,6 75,6 76,6 76,6 78,7 78,7 79,7 79,7 80,7 80,7 81,7 81,8 81,8 81,8 81,8 82,8 83,9 83,9 84,9 84,10 85,11 85,12 86,13 87,13 88,14 88,14 89,14 89,14 89,15 94,16 94,16 95,16 95,16 94,18 94,18 94,18 94,18 94,18 94,18 94,18 94,18 95,18 96,19 96,19 96,19 96,19 97,19 97,19 97,19 97,19 98,19 98,19 98,19 98,19 98,19 99,19 100,19 100,19 101,19 101,19 102,19 103,19 103,19 105,19 105,19 105,19 105,19 105,19 105,19 105,19 106,19 106,18 106,18 106,18 106,18 106,18 106,18 106,17 107,17 107,17 107,17 107,17 107,17 107,17 107,17 108,16 108,16 108,16 108,16 108,15 108,15 108,15 108,15 108,14 108,14 108,14 108,14 108,14 108,14 108,14 108,14 108,13 108,13 107,13 107,13 107,13 106,12 106,12 106,12 106,12 106,12 106,12 106,12 106,11 106,11 106,11 106,11 106,11 106,11 106,11 106,11 106,11 106,11 107,11 107,11 107,11 107,11 107,11 107,11 107,11 107,11 107,11 108,11 108,11 108,11 108,11 108,11 108,11 109,11 109,11 110,11 115,13 117,13 119,14 120,14 121,14 122,13 122,13 122,13 123,13 123,13 124,13 124,13 124,12 125,12 125,12 125,12 125,12 126,12 126,12 127,12 127,12 128,11 129,11 130,11 130,11 130,11 131,11 131,11 132,11 133,11 134,11 134,11 135,11 136,11 136,11 136,11 137,12 138,12 139,12 140,12 141,12 141,12 141,12 141,12 142,11 143,11 143,11 143,11 143,11 143,11 143,11 143,11 143,11 144,12 144,12 146,12 146,13 146,13 147,13 148,13 148,14 149,14 149,14 149,14 149,14 149,14 149,15 149,15 149,15 149,15 150,15 150,15 150,15 150,15 150,15 150,15 151,15 151,14 151,14 151,14 151,14 151,14 151,14 151,14 151,14 151,14 151,14 152,14 152,14 152,14 152,14 152,14 152,14 152,14 152,14 152,14 152,14 152,13 152,13 152,13 152,13 153,13 153,13 153,13 153,13 153,13 153,13 153,13 153,13 153,13 153,13 153,13 153,13 153,13 153,13 153,13 153,13 153,13 153,13 154,13 154,13 154,13 154,13 154,13 154,13 154,13 154,13 154,12 154,12 154,12 154,12 154,12 154,12 154,12 154,12 154,12 154,12 155,12 155,12 155,12 155,12 155,12 155,12 155,12 155,12 155,12 155,12 155,12 155,12 155,12 156,12 156,12 156,12 156,12 156,12 156,12 156,12 156,11 156,11 156,11 156,11 156,11 156,11 156,11 156,11 156,11 156,11 156,11 156,11 157,11 157,11 157,11 157,11 157,11 157,11 157,11 157,11 157,11 157,11 157,11 157,11 157,11 157,11 157,11 157,11 157,11 157,11 157,11 157,11 157,11 157,11 157,11 157,11 158,11 158,11 158,11 158,11 158,11 158,11 158,11 158,11 158,11 158,11 158,11 158,11 158,11 158,11 158,11 158,11 159,11 159,11 159,11 159,11 159,11 159,11 159,11 159,11 159,11 159,11 159,11 159,11 159,11 159,11 159,11 160,11 160,11 160,11 160,10 160,10 160,10 160,10 160,10 160,10 160,10 161,10 161,10 161,10 161,10 161,10 161,10 161,10 161,10 161,10 162,10 162,10 162,10 162,10 162,10 162,10 162,10 162,10 162,10 162,10 162,10 163,10 163,10 162,10 162,10 162,9 163,9 163,9 163,9 163,9 163,9 163,10 163,10 163,10 163,10 164,10 164,10 164,9 164,10 164,10 164,9 164,9 164,9 164,9 164,9 164,9 164,9 164,9 164,9 164,9 165,9 165,9 165,9 165,9 165,9 165,9 165,9 166,9 166,9 166,9 166,9 166,9 166,9 166,9 166,9 166,9 167,9 167,9 167,9 167,9 167,9 167,9 167,9 167,9 167,9 167,9 168,9 168,9 168,9 168,9 168,9 168,9 168,9 168,9 168,9 168,9 168,9 168,9 169,9 169,9 169,9 169,9 169,9 169,9 169,9 170,9 170,9 170,9 170,9 170,8 170,8 170,8 171,8 171,8 171,8 171,8 171,8 171,8 171,8 172,8 172,8 172,8 172,8 172,8 172,8 172,8 172,8 172,8 172,8 172,8 173,8 173,8 173,8 173,8 173,8 173,8 173,8 173,8 173,8 173,8 173,8 173,8 174,8 174,8 174,8 174,8 174,8 174,8 174,8 174,8 174,8 174,8 174,8 174,8 175,8 175,8 175,8 175,8 175,8 175,8 175,8 175,8 175,8 175,8 175,8 175,8 176,8 176,8 176,8 176,8 176,8 176,8 176,8 176,9 176,9 176,9 177,9 177,9 177,9 177,9 177,9 177,9 177,9 177,9 177,9 177,9 177,9 177,9 177,9 177,9 177,9 177,9 178,9 178,9 178,9 178,9 178,9 178,9 178,9 178,9 178,9 177,10 178,10 178,10 178,10 178,10 178,10 178,10 178,10 178,10 178,10 178,10 178,10 178,10 178,10 178,10 179,10 179,10 179,10 179,10 179,10 179,10 179,10 179,10 179,10 179,10 179,11 179,11 179,11 179,10 179,10 179,10 179,11 179,11 179,11 179,11 179,11 180,11 180,11 180,11 180,11 180,11 180,11 180,11 180,11 180,11 180,11 180,11 180,11 180,11 180,11 180,11 180,11 180,11 180,11 181,11 181,11 181,11 181,11 181,11 181,11 181,11 181,11 181,11 181,11 181,11 181,11 181,11 181,11 181,11 181,11 181,11 181,11 182,11 182,11 182,11 182,11 182,11 182,11 182,11 182,11 182,11 182,11 182,12 182,12 182,11 182,11 182,11 182,11 182,12 182,12 182,12 183,12 183,12 183,12 183,12 183,12 183,12 183,12 183,12 183,12 183,12 183,11 184,11 184,11 184,11 184,11 184,11 184,11 184,11 184,11 185,11 185,12 185,12 185,12 185,12 185,12 185,12 185,12 185,12 185,12 185,12 185,12 185,12 185,12 185,12 185,12 185,12 185,12 186,12 186,12 186,12 186,12 186,12 186,13 186,13 186,13 186,13 186,12 186,12 186,12 186,13 186,13 186,13 187,13 187,13 187,13 188,13 188,13 188,13 188,13 188,13 188,13 188,13 188,13 188,13 189,13 189,13 189,13 189,13 189,13 189,13 189,13 189,13 189,13 189,13 189,13 189,13 189,13 189,13 189,13 189,13 190,13 190,13 190,13 191,13 191,13 191,13 191,13 191,13 191,13 191,13 192,13 192,14 192,14 192,14 192,14 192,14 192,14 193,14 193,15 193,15 195,15 195,15 195,15 195,15 196,16 196,16 198,16 199,16 200,16 200,15 200,15 201,15 203,15 206,16 206,16 206,16 206,16 206,16 206,16 206,16 206,16 206,16 207,16 207,16 207,15 207,15 207,15 208,15 208,15 208,15 208,15 208,15 208,15 208,14 208,14 209,14 209,13 210,13 210,13 210,12 210,12 210,12 210,12 210,12 210,11 210,11 210,11 210,10 210,10 210,10 210,10 210,9 210,9 210,9 210,9 210,9 211,8 211,8 211,8 211,8 211,8 211,8 211,7 211,7 211,7 211,7 212,7 212,6 212,6 212,6 212,6 213,6 213,6 213,5 213,5 214,5 214,5 214,5 214,5 215,5 215,5 215,4 215,4 215,4 215,4 215,4 215,4 216,4 216,3 216,3 216,3 216,3 217,2 217,2 217,2 217,2 217,2 218,2 218,2 218,2 218,1 218,1 219,1 219,1 219,1 219,0 219,0 219,0 219,0 219,0 224,4 225,5 233,11 232,12 274,31 274,31 274,32 316,51 324,55 330,58 334,59 342,60 363,63 363,63 366,68 366,68 366,68 366,68 368,67 369,67 373,66 373,66 375,66 375,66 375,67 375,67 375,67 376,67 381,69 382,69 382,69 382,69 385,68 385,68 385,70 387,74 387,74 387,74 387,74 386,74 387,74 387,74 387,75 387,75 387,75 386,78 386,78 387,78 387,81 388,82 388,82 388,83 388,83 389,84 389,84 389,85 389,85 388,86 386,92 386,92 386,92 382,94 382,95 382,95 381,95 381,95 381,95 380,96 380,96 377,97 377,97 376,98 375,99 375,99 375,99 374,100 374,101 374,101 374,101 373,101 372,103 371,103 371,103 368,105 368,105 368,104 368,104 367,104 367,104 366,104 365,105 365,105 365,105 365,105 365,105 365,105 365,106 365,106 364,106 364,106 363,106 363,107 363,107 363,107 362,107 362,107 362,107 362,107 362,108 362,108 361,108 361,108 362,108 361,108 361,108 361,108 361,109 361,109 361,109 361,109 361,109 361,109 360,110 360,110 360,110 360,110 360,110 360,110 360,110 360,111 360,111 360,111 359,111 359,112 359,112 359,112 359,112 359,112 359,112 359,112 359,113 359,113 358,113 358,113 357,113 357,113 356,113 356,113 356,113 356,113 355,113 354,114 353,114 353,114 353,114 353,114 353,114 353,114 352,114 352,114 352,114 352,114 352,114 352,114 352,115 352,115 352,115 352,115 352,115 351,115 351,115 351,116 351,116 350,116 350,116 349,116 349,117 349,117 349,117 348,117 348,119 348,119 347,120 347,120 347,120 347,120 348,121 348,122 348,123 348,123 347,124 347,124 347,124 347,124 347,124 347,124 347,124 347,124 347,124 346,125 346,125 346,125 346,125 346,125 346,125 344,126 344,126 343,126 343,126 342,126 342,126 342,126 342,126 342,126 341,126 341,126 341,126 341,127 341,127 340,127 340,127 340,127 340,127 340,127 340,127 340,127 340,127 339,127 339,127 339,127 339,127 339,127 339,127 339,127 339,127 339,127 339,127 339,128 339,128 339,128 338,128 338,128 338,128 338,128 338,128 337,128 336,128 336,128 336,128 336,128 336,128 336,128 336,128 335,128 335,128 335,128 335,128 335,128 335,128 335,128 335,128 334,128 334,128 334,128 334,128 334,129 334,129 334,129 334,129 334,129 333,129 333,129 333,129 333,129 333,129 333,129 333,129 333,129 332,129 332,129 332,129 332,130 332,130 332,130 332,130 332,130 332,130 332,130 331,130 331,130 331,130 331,131 331,131 330,131 330,131 330,131 329,132 329,132 329,132 329,132 329,132 327,133 328,134 329,134 329,135 331,136 334,138 334,139 335,139 336,140 336,140 338,141 342,144 343,144 346,146 347,147 351,149 351,149 352,149 353,150 353,150 356,151 358,152 360,153 365,155 366,155 366,155 368,156 369,156 370,157 371,157 372,157 372,157 373,157 377,158 377,158 379,159 380,159 381,159 382,159 383,160 384,160 385,161 386,161 388,162 389,162 391,162 391,163 392,163 395,164 396,164 397,165 398,165 401,166 401,166 402,166 404,166 404,167 407,167 407,167 407,168 410,168 411,169 411,169 411,169 414,170 414,170 413,172 413,172 412,172 412,173 412,173 411,173 411,174 411,174 412,174 412,174 413,174 413,175 413,175 415,175 415,175 416,175 417,174 418,174 418,174 418,175 418,175 419,176 419,176 419,177 419,177 420,177 420,177 420,178 421,178 421,178 421,179 422,179 422,179 422,179 422,178 423,178 423,177 423,176 423,176 425,173 425,173 427,174 427,174 428,174 429,175 430,176 431,177 431,177 432,178 432,178 433,178 433,179 434,179 435,180 435,181 436,181 436,181 437,182 437,182 439,182 439,183 440,183 441,183 441,183 442,183 445,184 446,184 450,185 450,185 451,185 452,185 454,186 457,186 458,187 458,187 459,187 459,187 460,187 462,188 462,188 464,189 465,189 466,189 469,190 469,190 470,191 472,191 473,191 473,191 474,191 475,192 475,192 477,192 478,192 481,193 481,193 484,194 484,194 486,195 489,197 490,197 491,198 492,198 492,198 494,199 494,199 494,200 495,201 496,201 496,202 496,202 498,205 499,205 500,207 500,207 499,207 499,207 499,207 499,207 499,208 499,208 498,208 498,208 497,208 498,208 498,208 498,209 498,209 498,209 498,209 498,209 497,210 497,210 497,210 497,210 497,210 497,210 496,210 496,211 496,211 496,211 496,211 496,211 496,211 495,212 495,212 492,216 490,220 488,223 487,224 487,225 487,225 486,226 485,226 483,229 483,229 483,229 482,229 482,230 480,231 480,231 477,234 477,234 477,234 476,234 475,235 474,235 474,235 474,235 474,236 473,236 473,236 473,236 473,236 472,237 472,237 471,237 471,237 471,237 471,237 471,237 471,237 471,237 470,237 470,237 470,237 470,237 470,237 470,237 470,237 469,237 469,237 468,238 468,238 467,238 467,238 467,238 465,239 465,239 465,239 465,239 465,239 464,239 464,240 464,240 464,240 464,240 464,240 463,240 463,240 462,240 462,240 462,240 461,240 461,240 462,241 462,242 462,242 462,242 462,242 462,242 462,242 462,243 462,243 462,243 462,243 462,243 461,243 461,243 461,243 461,243 461,244 461,244 461,244 461,244 461,244 461,244 461,244 461,244 461,244 461,244 459,245 459,245 458,246 457,246 457,246 456,247 456,247 456,247 456,247 455,247 455,247 455,247 455,247 455,247 455,247 455,247 455,247 454,247 454,247 454,247 454,247 454,247 454,247 454,247 453,247 453,248 452,248 452,248 452,248 452,248 452,249 452,249 452,249 452,249 452,249 452,249 452,249 452,249 450,251 448,252 448,252 448,252 446,254 446,254 446,254 446,254 446,254 446,254 445,254 445,254 444,254 444,254 443,255 443,255 442,255 441,255 441,255 440,256 440,256 439,256 439,256 439,256 439,256 439,256 439,256 438,256 438,256 437,257 437,257 437,257 436,257 436,257 436,258 435,258 435,258 435,258 435,258 435,258 434,258 435,257 435,256 435,254 435,254 435,254 435,253 435,253 435,252 435,252 435,252 434,251 434,251 434,251 433,249 433,249 432,249 432,248 432,248 432,247 432,247 431,247 431,246 431,246 431,246 431,246 431,246 431,246 431,246 430,245 430,245 430,245 429,245 429,245 429,245 429,245 429,245 429,245 429,245 428,244 428,244 428,244 428,244 427,243 427,243 427,243 426,242 426,242 426,242 426,242 426,242 425,241 425,241 425,241 424,240 423,240 423,240 424,240 424,240 423,239 422,239 421,238 421,238 421,238 421,238 421,238 421,238 421,238 421,238 421,238 420,239 420,239 419,239 419,239 419,239 419,239 419,239 418,239 417,238 417,238 417,238 417,238 417,238 417,238 416,238 415,238 415,237 415,237 415,237 415,237 414,237 414,237 414,237 414,236 414,236 414,236 412,235 412,235 412,235 412,235 413,234 413,234 413,234 411,234 411,234 411,234 411,234 412,233 412,233 412,232 413,232 413,232 413,232 413,232 413,232 413,232 412,231 412,231 412,231 412,231 411,231 411,231 411,231 411,231 410,231 410,230 410,230 409,230 409,230 408,230 408,230 407,230 407,230 407,229 407,229 407,229 407,229 407,229 407,229 407,229 407,229 405,227 405,227 405,227 404,226 400,225 399,225 394,222 394,222 385,219 385,219 385,219 385,219 384,219 384,219 383,219 383,219 382,219 382,219 382,219 383,217 383,217 383,217 382,217 381,217 381,217 380,217 379,217 379,217 379,217 379,216 379,215 378,215 378,213 378,213 378,213 375,212 375,212 374,213 374,213 372,212 372,212 371,212 371,212 370,213 370,213 370,212 370,212 369,212 369,211 369,211 366,213 366,213 366,213 366,213 365,213 365,213 365,213 364,213 364,213 363,213 362,214 361,214 360,214 360,214 360,214 360,214 360,214 360,214 359,214 359,214 359,214 359,214 359,214 359,214 359,214 359,214 358,214 358,214 358,214 358,214 358,214 358,214 358,214 358,214 358,214 357,214 357,214 357,214 356,214 356,214 356,214 356,214 356,215 356,215 356,215 355,215 355,215 355,215 355,215 354,215 354,215 354,215 354,215 353,215 353,215 353,215 353,215 353,215 352,215 352,215 352,216 352,216 352,216 352,216 351,216 351,216 351,216 351,216 350,216 350,216 350,217 350,217 350,217 350,217 350,217 350,217 350,217 350,217 350,217 349,217 349,217 349,217 349,217 349,217 349,217 348,217 348,218 348,218 347,219 347,219 347,219 347,219 347,219 347,219 347,220 347,220 347,220 347,220 347,221 347,222 346,222 346,223 346,223 346,223 346,223 345,224 345,224 344,224 344,224 343,224 343,224 343,224 343,224 343,225 343,225 343,225 343,226 342,227 342,227 342,228 342,228 342,228 342,228 340,229 334,233 333,233 333,234 333,234 333,234 336,236 336,236 336,236 336,236 336,237 336,237 344,243 345,244 348,246 348,246 348,246 351,250 351,250 352,251 354,254 354,254 357,259 358,261 360,264 362,266 362,266 362,266 362,266 360,267 360,267 360,267 360,267 362,269 362,269 362,269 362,270 360,270 359,270 359,270 359,270 359,270 359,270 359,270 358,270 358,270 358,270 358,271 357,271 357,271 357,271 356,271 356,271 353,273 353,273 354,274 355,275 355,275 355,275 357,277 358,278 358,278 358,278 358,278 360,279 360,279 358,281 358,281 357,281 357,282 356,282 356,282 355,283 355,282 355,282 355,282 355,282 355,282 355,282 355,282 355,281 354,281 354,281 354,281 354,281 354,281 354,281 354,281 353,281 353,281 353,281 353,281 353,280 353,280 353,280 353,280 352,280 352,280 352,280 352,279 352,279 352,279 352,279 352,279 352,279 352,279 351,279 351,279 347,278 340,277 336,276 336,276 336,276 335,276 332,277 331,277 331,277 326,278 326,278 325,278 321,279 318,279 313,280 312,281 312,281 312,280 311,280 311,278 311,278 311,278 308,279 308,279 308,279 307,280 305,280 303,281 303,282 303,282 300,282 299,283 299,283 299,283 299,282 299,282 299,282 293,283 292,283 289,284 289,284 289,284 282,283 281,283 280,283 280,282 280,282 280,282 280,281 280,280 280,280 280,280 280,280 280,279 280,279 280,279 277,277 277,277 273,276 273,276 273,276 273,275 273,275 273,275 269,273 268,273 268,273 266,272 265,272 265,272 265,272 264,271 260,268 256,265 255,265 251,261 245,257 244,256 244,256 244,256 243,256 243,256 243,256 242,256 242,256 242,256 242,256 242,256 243,255 243,254 243,254 243,254 243,254 243,253 243,253 243,253 243,252 243,252 243,252 243,252 243,252 240,249 240,249 240,249 240,249 240,246 240,246 240,246 240,246 238,245 238,245 237,245 237,245 236,244 236,244 236,244 236,244 236,244 236,244 236,244 236,244 234,243 234,243 231,243 229,242 228,242 227,242 227,242 226,242 224,243 223,244 221,244 220,245 219,245 217,246 213,247 210,247 206,248 206,248 205,249 203,249 203,249 202,250 202,250 201,250 200,250 200,250 199,251 199,251 199,251 198,251 198,251 198,251 197,251 197,251 196,251 196,251 196,251 196,252 195,252 194,252 194,252 194,252 193,252 193,252 193,252 193,252 192,252 192,252 192,252 192,252 190,254 190,254 190,254 190,255 190,255 189,255 188,256 187,256 186,257 186,258 187,259 179,261 178,261 177,260 173,259 164,266 158,261 157,261 157,260 153,261 152,262 152,261 152,259 149,258 147,257 146,256 145,256 144,255 144,254 143,254 143,253 142,252 141,251 140,251 140,250 140,250 140,250 140,250 138,249 138,248 138,248 136,248 136,247 136,247 135,247 135,247 135,246 135,246 135,246 134,246 133,246 133,247 133,246 132,246 132,246 132,246 131,246 131,246 130,246 129,246 129,246 129,245 129,245 129,245 127,245 126,245 126,245 125,245 125,245 125,244 124,244 124,245 123,245 123,245 122,245 121,245 120,245 119,244 118,244 118,244 115,243 114,242 113,242 112,241 111,240 110,240 110,240 108,239 107,238 107,238 106,237 105,236 104,236 102,235 102,235 100,234 100,234 97,233 95,232 94,232 92,231 90,231 88,230 88,230 86,229 85,228 84,227 83,224 83,223 83,223 82,223 81,223 81,223 80,223 80,223 79,224 79,224 78,224 77,224 77,224 76,224 76,224 76,224 75,224 75,224 75,224 74,224 74,225 74,225 73,225 73,225 72,225 72,225 72,226 72,226 71,226 71,226 71,226 71,226 71,226 71,226 71,226 71,226 71,226 70,226 70,226 70,226 65,226 65,226 64,226 63,226 61,226 60,227 59,227 59,227 57,227 54,228 53,228 52,228 49,229 46,230 46,230 46,230 46,230 46,230 46,230 46,230 46,230 46,230 46,231 46,231 46,231 46,231 46,231 45,231 45,231 44,231 42,232 42,232 41,232 41,232 41,232 41,232 41,232 41,232 40,232 40,232 40,232 40,232 40,232 40,232 40,232 40,232 39,232 39,232 39,232 39,232 39,232 39,232 39,232 39,232 39,232 39,232 39,232 38,231 38,231 38,231 37,231 37,231 36,231 36,231 35,231 35,231 35,231 34,231 34,231 33,231 33,231 33,231 34,231 34,231 34,231 34,231 35,230 35,229 35,229 35,229 35,229 35,229 35,228 34,228 34,228 34,227 34,227 34,226 34,226 34,226 34,226 34,226 33,226 33,225 33,224 33,224 33,224 33,224 33,224 33,223 33,223 34,222 34,222 34,220 34,219 35,219 35,218 35,218 36,216 36,216 36,216 36,215 36,215 36,215 35,215 35,215 35,215 35,214 35,214 35,213 35,213 35,213 35,213 35,213 35,211 35,211 35,211 34,211 34,211 34,211 33,209 33,209 33,209 32,207 32,207 32,207 31,205 30,204 29,202 28,201 27,200 24,198 23,197 22,197 22,197 22,196 22,196 22,195 22,194 21,193 20,192 19,192 19,192 19,191 18,191 17,189 16,187 15,185 13,186 12,186 11,186 11,186 9,187 9,188 9,188 9,188 9,188 9,189 9,189 8,189 8,190 8,191 7,191 6,191 5,191 3,191 2,191 0,192 0,192 0,191 1,191 1,190 0,187 1,187 1,187 1,186 1,186 0,184 0,184 0,182 0,181 0,180 1,179 0,178 1,177 1,177" id="4521" class="canton" fill="steelblue" stroke-width="1" stroke="white" geotype="canton" geoname="Sully-sur-Loire" code_insee="4521" code_departement="45" nom_departement="Loiret" code_region="24" nom_region="Centre-Val de Loire"/></svg>