<?xml version="1.0" encoding="utf-8"?>
<svg version="1.1" id="svgmap" xmlns="http://www.w3.org/2000/svg" xmlns:xlink="http://www.w3.org/1999/xlink" x="0px" y="0px" width="100%" height="100%" viewBox="0 0 500 398">
<polygon points="338,55 338,55 339,55 339,54 340,54 340,53 341,51 342,51 343,51 343,50 344,50 344,50 345,50 345,50 348,47 348,47 348,46 349,46 350,45 352,42 353,42 353,42 353,41 353,41 354,41 356,40 356,39 356,39 356,38 356,38 357,37 357,36 357,36 358,36 359,36 364,34 364,34 366,33 367,32 368,32 369,31 370,31 370,31 371,31 372,30 372,30 372,30 373,28 374,28 375,26 376,26 377,24 378,23 379,23 379,22 379,22 379,21 379,21 379,20 381,20 381,20 381,19 382,19 382,19 382,18 383,18 383,18 383,18 383,17 384,16 385,15 385,15 386,14 386,14 386,14 387,14 387,13 388,13 389,12 389,12 389,11 389,10 390,10 390,10 391,9 392,9 393,8 393,8 393,7 393,7 393,7 394,6 394,6 394,6 393,5 393,5 393,5 393,4 394,3 395,3 396,2 396,2 396,1 396,1 397,0 398,0 398,0 399,1 399,1 399,1 400,2 401,3 401,3 402,3 406,4 406,5 408,5 410,6 411,6 412,7 412,9 412,10 412,12 412,14 412,14 413,15 413,16 413,16 414,18 415,19 415,20 416,20 417,21 417,21 418,22 419,23 420,24 420,24 420,25 420,25 421,25 421,26 422,27 423,28 423,28 424,30 424,31 424,31 423,33 423,35 423,36 423,36 423,37 423,37 424,38 424,38 423,40 423,40 423,40 423,41 424,41 424,42 424,42 426,42 426,42 427,42 431,41 433,41 435,40 435,40 435,40 434,38 434,38 434,37 435,37 435,36 435,36 435,36 436,35 436,35 438,34 439,33 439,33 441,32 441,32 442,32 443,32 447,30 448,30 450,30 452,29 453,29 454,30 456,30 459,30 459,30 461,29 462,29 463,28 465,26 466,24 466,24 468,24 470,23 471,23 471,23 472,22 472,22 472,22 473,22 474,22 475,22 476,22 477,22 477,22 477,21 477,21 478,21 479,22 479,22 480,21 480,20 480,20 482,18 483,17 484,17 486,16 486,16 486,16 486,15 486,15 486,15 486,14 486,14 486,13 486,13 486,13 487,12 488,12 488,12 489,11 489,10 490,10 491,10 491,10 492,10 492,9 494,9 494,8 494,8 494,7 494,7 495,7 495,7 495,7 495,7 495,7 495,7 496,6 497,6 497,6 497,6 498,6 498,6 499,7 499,7 500,7 500,7 499,7 495,9 494,10 493,11 492,14 490,18 489,20 488,21 487,22 480,26 478,27 477,29 476,30 476,31 476,31 476,34 475,35 474,39 471,44 469,48 469,49 469,50 469,51 471,56 476,65 478,70 480,74 480,75 481,76 481,77 481,78 480,79 480,80 478,82 478,82 477,84 476,85 475,87 475,88 474,88 473,90 470,93 467,97 461,106 460,107 460,109 457,109 452,108 446,108 445,107 443,107 443,107 441,106 439,105 437,104 437,104 435,104 432,104 430,104 429,104 426,104 425,104 423,104 420,105 420,105 418,105 417,106 415,105 414,105 411,108 411,109 409,110 408,111 408,111 407,113 407,113 406,114 404,114 403,114 403,114 402,114 401,115 401,115 400,116 399,117 399,117 397,118 397,118 397,118 395,119 394,119 392,121 392,121 390,122 390,122 388,123 386,126 386,126 384,126 379,126 378,126 378,127 378,130 378,132 379,132 383,132 384,132 386,132 389,132 390,132 391,132 393,132 398,132 399,132 402,133 405,133 404,134 404,136 407,136 409,135 410,135 410,135 410,135 414,135 415,134 418,134 421,134 428,134 429,134 428,136 428,136 428,139 428,143 428,145 428,146 428,148 428,148 428,151 428,151 427,152 427,154 426,156 425,156 425,157 424,159 423,160 420,162 420,162 420,162 419,163 418,163 416,165 412,166 409,166 408,166 408,167 408,173 407,176 407,178 407,178 407,179 407,181 407,184 407,184 407,186 407,188 406,192 406,192 406,193 406,193 407,194 407,194 408,195 420,207 421,208 425,212 425,212 426,213 426,214 431,223 432,224 433,225 433,225 439,237 444,246 447,250 446,250 448,252 451,254 453,256 454,258 448,260 446,260 444,261 418,263 408,265 402,265 401,266 400,266 400,266 400,267 399,267 397,267 397,267 396,267 396,267 395,266 389,268 390,284 390,287 391,293 392,295 395,304 396,309 397,314 398,315 400,318 400,320 403,328 403,329 406,334 406,334 409,338 411,340 415,345 416,346 419,349 419,349 416,352 415,353 415,353 414,354 414,354 414,354 413,355 413,356 412,357 411,357 412,357 411,358 410,359 409,360 408,360 408,360 408,360 407,360 406,360 406,360 405,360 405,361 404,361 404,361 404,361 403,360 403,360 402,360 401,359 401,359 401,358 400,358 400,358 400,358 399,358 399,358 398,358 397,359 396,359 396,359 397,360 397,360 397,360 397,361 397,361 396,361 396,361 396,361 395,361 394,361 393,361 392,360 390,360 390,360 390,360 390,360 390,361 389,361 388,362 387,363 387,364 386,364 386,364 385,363 384,363 384,363 383,363 382,364 381,364 381,364 381,364 381,365 381,365 380,365 380,365 380,365 379,365 379,365 377,365 377,365 376,365 376,365 376,365 376,366 376,366 375,366 375,366 373,366 373,366 372,366 370,368 370,368 369,368 368,368 366,368 365,368 365,368 365,369 364,370 364,370 364,372 364,372 364,373 365,373 365,373 365,373 365,374 364,376 363,376 362,376 362,376 361,376 361,376 360,376 359,377 359,377 359,378 359,378 359,378 359,379 360,379 360,379 359,379 359,380 359,380 356,379 355,379 355,378 354,378 354,379 353,379 353,379 353,379 353,380 353,380 353,380 353,380 353,380 353,381 353,381 353,381 353,381 354,381 355,381 355,381 356,382 356,382 356,382 355,383 355,383 354,383 353,383 352,383 351,383 351,383 351,383 350,385 350,386 349,386 348,386 348,387 348,387 348,387 351,388 353,389 353,389 353,389 352,390 352,390 351,390 350,390 350,390 350,390 350,391 351,392 351,392 350,393 350,393 348,395 348,395 347,396 345,396 344,396 340,397 340,397 339,397 338,397 338,398 338,397 337,397 337,397 337,397 338,396 338,396 339,395 339,395 341,394 341,393 341,393 341,392 341,392 341,392 340,391 339,390 338,389 337,388 335,386 335,386 335,385 334,385 334,384 333,384 332,383 331,383 330,383 329,383 328,382 326,382 324,381 321,381 321,381 320,381 318,382 318,382 316,382 316,382 316,382 313,378 313,378 313,378 314,378 314,378 315,377 318,374 318,374 317,374 317,374 316,374 316,374 314,373 314,372 313,372 313,372 313,372 313,372 312,371 311,370 310,369 310,369 310,369 309,369 306,366 305,366 305,366 305,367 304,366 304,366 303,366 303,366 302,366 300,366 299,366 298,366 296,366 293,366 292,366 289,366 288,366 288,366 288,365 288,365 285,365 285,364 284,364 282,365 282,365 282,365 281,365 278,365 277,365 276,365 275,365 275,365 275,364 275,363 275,363 275,360 275,359 276,353 276,351 276,350 280,343 280,342 280,342 281,341 282,341 283,340 287,338 287,338 287,338 289,334 290,331 293,329 306,321 306,320 287,312 287,312 287,312 296,301 296,300 290,276 289,275 290,275 291,275 291,274 292,274 293,273 293,273 293,272 293,271 294,270 294,269 294,269 294,268 294,268 294,267 293,267 293,267 292,266 291,266 290,266 289,266 289,266 288,266 286,266 285,266 283,267 282,267 282,267 282,267 281,266 275,257 275,257 274,256 274,256 274,255 273,254 273,254 273,253 272,252 272,251 271,251 271,249 271,249 271,249 272,249 272,249 272,248 272,248 272,247 273,246 273,246 272,245 273,244 273,244 272,243 272,242 271,242 271,241 271,240 272,237 272,237 270,233 269,232 266,230 263,228 263,227 261,226 261,225 260,225 260,224 259,223 258,222 258,222 258,221 258,220 258,220 258,219 257,218 256,217 255,217 255,217 254,216 253,215 253,214 252,214 252,214 251,213 251,212 250,212 250,211 249,210 249,209 248,209 248,209 246,209 246,209 245,209 244,209 244,210 243,210 243,210 243,210 241,209 241,209 241,208 239,206 239,205 239,205 237,204 237,204 237,203 237,203 237,203 238,203 238,203 238,202 237,201 237,201 236,200 236,200 236,200 235,200 235,199 234,199 234,199 234,198 233,198 232,197 232,197 231,196 231,196 231,196 230,195 230,195 230,193 230,193 230,191 231,190 232,188 232,187 233,186 234,185 234,184 234,184 234,183 234,178 234,177 234,177 234,177 233,176 233,176 234,176 233,176 233,175 233,175 233,174 233,174 233,174 234,174 234,174 234,174 234,174 234,173 234,173 234,173 235,172 236,171 236,171 236,171 236,171 235,171 235,170 235,170 235,169 235,169 235,169 235,168 234,168 234,168 234,167 234,167 234,167 233,166 233,166 234,166 234,165 235,164 235,163 235,162 235,161 235,161 235,161 235,159 235,158 235,158 235,157 235,157 235,156 234,152 233,152 233,151 232,149 232,148 228,145 227,145 226,144 224,143 220,142 219,141 218,140 215,139 215,138 213,137 211,136 210,135 207,134 206,133 205,133 203,133 202,133 200,133 199,133 197,131 196,131 195,131 194,131 194,131 193,130 193,130 192,129 190,129 187,129 185,128 184,128 183,128 183,127 180,125 179,124 178,123 177,122 176,120 175,118 173,116 172,115 170,114 169,113 168,112 165,111 164,110 163,107 163,107 160,103 159,101 158,100 158,99 158,98 157,94 157,93 157,92 157,89 158,88 158,85 158,85 158,85 160,79 160,78 160,78 160,78 160,78 160,78 160,76 160,76 146,72 145,72 144,75 144,75 144,75 134,76 133,77 131,77 131,77 121,73 119,72 116,71 106,67 103,66 87,62 85,62 85,62 84,64 83,64 79,64 70,64 67,64 66,64 66,64 65,63 64,63 64,63 64,62 63,62 62,63 62,63 61,63 61,63 60,63 60,63 59,63 58,63 57,63 57,62 57,62 56,62 56,62 56,62 54,62 52,62 52,62 51,62 51,62 50,61 49,61 48,61 48,61 47,62 47,62 47,62 45,61 44,60 44,60 43,60 43,60 42,61 42,61 42,61 41,61 40,61 39,59 38,58 38,58 38,58 37,58 37,59 37,59 37,59 36,59 35,59 35,58 35,58 34,57 34,57 33,57 33,57 33,56 33,53 33,52 33,52 28,52 21,53 20,53 11,55 10,54 10,54 9,53 9,52 8,52 7,52 6,52 5,51 5,51 5,50 5,49 4,47 4,47 2,46 2,45 0,41 10,38 22,35 37,30 48,27 50,27 54,26 62,25 66,24 68,24 71,24 80,24 83,24 85,24 94,26 108,28 124,30 145,33 151,34 153,35 156,36 157,36 166,37 170,38 173,38 178,38 208,40 239,41 247,41 265,42 271,43 283,44 284,44 289,45 291,46 292,46 299,49 303,50 305,51 308,53 310,54 313,56 316,57 321,61 324,63 324,63 324,63 329,60 329,60 331,60 331,60 332,60 332,60 332,60 335,58 338,55" id="4704" class="canton" fill="steelblue" stroke-width="1" stroke="white" geotype="canton" geoname="Agen-4" code_insee="4704" code_departement="47" nom_departement="Lot-et-Garonne" code_region="75" nom_region="Nouvelle-Aquitaine"/></svg>