<?xml version="1.0" encoding="utf-8"?>
<svg version="1.1" id="svgmap" xmlns="http://www.w3.org/2000/svg" xmlns:xlink="http://www.w3.org/1999/xlink" x="0px" y="0px" width="100%" height="100%" viewBox="0 0 430 500">
<polygon points="44,83 44,83 44,82 46,80 46,80 48,78 49,78 49,77 49,77 49,77 49,77 49,76 49,76 50,76 50,76 50,75 50,75 50,76 51,76 51,76 51,75 51,75 51,75 53,75 53,75 53,75 53,75 53,74 53,74 53,74 53,74 54,74 54,74 55,74 55,73 56,73 57,73 58,73 59,72 59,72 59,72 60,72 61,72 62,71 62,70 62,69 62,69 62,68 62,68 62,68 63,66 63,66 62,65 62,65 61,65 61,65 61,65 61,64 60,64 60,64 59,64 59,64 59,64 58,64 58,64 58,64 57,64 56,63 56,63 56,63 56,62 55,62 55,62 54,62 54,62 54,62 54,61 53,61 53,61 52,61 52,61 51,61 51,60 50,60 50,60 50,60 50,60 50,60 49,60 49,60 49,60 49,60 49,59 48,59 48,59 46,58 45,58 45,57 44,57 44,57 44,57 43,57 43,57 43,57 42,56 42,56 41,56 41,56 40,55 40,55 39,55 39,54 38,53 38,53 37,52 37,52 37,51 36,50 36,50 36,49 36,48 35,46 36,45 35,45 36,45 36,44 36,44 37,43 37,43 37,43 38,42 38,42 39,41 40,40 41,40 40,39 41,38 41,38 41,38 41,38 41,37 40,37 39,35 39,35 39,35 40,35 40,35 41,35 41,35 42,35 42,35 42,35 43,35 43,35 43,34 44,34 44,34 44,34 44,34 45,34 45,34 46,34 47,34 47,34 47,33 47,33 48,33 49,33 49,33 49,32 50,32 50,32 50,32 51,32 51,32 52,32 53,32 53,31 54,31 54,31 54,31 54,31 55,31 56,31 57,31 57,31 57,31 58,31 59,32 61,32 61,32 61,32 62,32 63,33 64,34 64,34 64,34 64,34 65,35 65,35 65,35 66,36 66,36 66,36 66,36 65,36 65,36 65,36 65,36 65,36 65,37 65,37 65,37 64,38 64,38 64,39 64,39 64,40 64,41 64,41 64,41 64,41 65,42 66,43 68,43 68,44 68,43 68,43 69,43 70,44 70,44 70,44 70,44 70,44 71,44 71,44 71,44 73,44 73,45 74,45 74,45 74,45 75,45 75,45 76,46 77,46 77,46 77,46 77,47 78,47 78,47 78,48 78,48 78,48 79,49 79,49 80,49 80,49 80,50 81,51 81,51 81,52 81,52 81,52 82,52 82,52 82,53 82,53 83,53 84,54 84,54 84,54 85,54 85,54 86,54 86,54 86,54 87,55 87,55 88,56 89,56 89,56 90,56 90,57 90,57 91,57 91,58 91,58 92,58 92,58 93,59 94,59 95,59 95,59 93,61 92,64 92,64 91,64 91,64 92,65 92,65 92,65 93,65 94,65 95,66 96,67 96,67 96,67 96,66 96,66 97,66 97,66 98,65 98,65 98,65 99,65 99,65 100,64 101,64 101,64 102,63 102,63 102,63 103,63 103,63 104,63 104,63 108,60 109,59 109,59 109,59 110,59 111,59 111,59 111,58 112,58 112,57 114,55 114,55 114,54 115,54 116,53 117,53 117,53 117,53 118,53 118,53 118,53 118,52 119,52 119,52 119,52 119,51 119,51 119,51 120,51 120,51 120,51 120,51 121,51 121,51 122,51 122,51 122,49 122,49 122,49 123,49 125,48 125,48 126,48 127,47 127,47 127,47 127,47 128,46 128,46 129,46 130,46 131,45 131,44 132,44 132,44 132,43 133,43 134,43 135,43 137,42 137,42 138,42 138,42 140,42 140,41 141,41 142,41 143,40 143,40 144,40 144,40 144,40 145,40 145,40 145,40 145,40 145,40 145,39 146,39 146,39 146,39 147,39 147,39 147,39 148,39 149,37 149,37 149,37 149,37 150,37 150,37 151,36 151,36 151,36 151,36 151,36 151,36 152,36 152,36 152,36 153,36 153,36 153,36 153,36 154,35 154,35 154,35 154,34 154,34 154,34 154,33 155,33 155,33 156,33 156,33 157,33 158,33 158,33 158,33 158,33 158,33 158,32 158,32 158,32 158,32 159,32 159,32 160,32 160,32 161,32 162,32 162,32 162,32 163,31 164,31 164,31 164,31 164,31 165,31 165,31 166,31 166,31 166,31 166,31 166,31 166,31 166,30 166,30 167,30 167,30 167,30 167,30 167,30 167,30 169,30 171,30 172,30 172,30 172,30 172,31 172,31 173,31 174,31 176,31 177,31 177,31 178,31 179,31 179,30 179,30 180,30 180,30 182,29 183,28 184,28 184,27 185,27 185,27 186,27 186,27 186,27 186,27 187,27 187,26 188,26 189,26 189,26 189,25 189,25 190,25 191,25 191,25 192,25 192,25 192,25 194,24 194,24 195,24 197,22 197,22 198,22 199,21 199,21 200,20 202,20 202,20 205,19 207,18 207,18 208,18 208,18 208,18 208,17 208,17 210,17 210,17 211,16 212,16 212,16 213,16 213,15 213,15 213,14 213,13 214,13 215,13 216,13 216,13 217,12 218,12 218,12 218,12 218,11 218,11 218,11 219,11 219,10 219,10 220,10 221,10 221,10 221,10 221,10 222,10 223,9 224,9 230,7 230,6 230,6 233,5 233,5 234,5 235,5 235,5 236,5 237,5 237,5 238,5 238,5 238,5 239,5 240,5 240,5 242,5 242,5 242,5 244,4 244,4 245,4 246,3 247,3 247,3 247,3 248,3 248,3 249,3 249,3 250,3 250,3 251,3 252,3 252,3 252,3 252,2 252,2 253,2 255,2 255,2 255,2 255,2 255,2 256,2 256,2 256,2 256,2 257,2 257,2 257,2 258,2 259,1 259,1 260,1 260,0 261,0 261,0 261,0 261,0 262,1 262,1 262,1 264,2 264,2 264,3 265,3 265,4 265,4 266,4 266,4 266,5 267,6 268,6 268,6 268,7 268,7 268,7 269,7 269,8 269,8 270,8 270,8 271,8 271,9 271,10 271,10 271,10 272,11 273,11 274,11 274,11 274,12 275,12 276,13 276,13 276,13 277,13 277,13 278,13 278,13 279,13 280,13 281,14 281,14 281,16 281,16 281,16 282,17 282,17 282,17 282,18 282,18 281,18 281,18 281,18 282,19 282,19 281,20 281,20 280,20 280,21 279,21 279,22 279,22 277,22 277,23 277,23 276,24 276,24 275,25 275,25 273,26 273,26 272,26 272,26 270,27 269,27 269,27 267,28 267,28 267,28 265,29 265,29 265,30 264,30 264,30 263,31 263,31 262,31 262,31 262,31 261,31 261,31 261,31 260,31 260,31 260,31 260,32 259,32 259,32 259,32 258,32 258,32 258,32 258,32 258,32 257,32 256,33 256,34 256,34 255,34 255,35 255,35 255,35 255,35 255,36 255,36 255,36 255,37 255,37 255,37 254,37 254,37 254,38 254,38 254,38 254,38 254,38 254,38 254,39 254,39 254,39 254,39 254,39 254,39 254,39 253,40 253,40 253,40 253,41 254,41 254,41 254,41 254,42 254,42 255,42 255,43 255,43 254,43 254,43 255,43 255,44 255,44 255,44 256,44 256,44 256,44 256,44 257,44 257,45 258,45 258,45 258,45 258,45 259,45 259,45 259,45 259,45 260,45 260,45 261,45 263,45 265,45 265,45 266,45 266,44 266,44 267,44 271,45 271,45 273,44 273,44 274,44 275,44 278,44 279,44 280,44 283,43 283,43 285,43 286,43 286,43 288,43 289,43 289,43 290,43 292,43 294,43 297,43 301,43 304,42 304,42 306,43 306,43 306,43 307,42 307,42 308,42 308,42 308,42 308,41 308,41 308,41 309,40 309,40 309,40 309,41 309,41 309,41 310,40 310,40 310,40 310,40 311,40 311,40 311,40 312,40 313,40 313,40 314,40 315,40 315,40 316,40 316,40 317,40 318,40 318,40 318,40 319,40 319,39 320,39 320,39 321,39 321,39 321,39 322,38 323,38 324,38 324,38 324,38 325,38 325,38 326,37 326,37 327,37 327,37 327,37 328,37 329,37 330,37 330,37 331,37 331,37 331,37 331,37 331,37 331,37 332,37 334,36 334,36 334,36 335,37 335,37 335,37 336,37 336,37 336,36 336,36 336,36 337,36 337,36 337,36 337,36 338,36 338,37 338,37 338,37 339,38 339,38 339,38 339,38 340,39 340,39 340,40 341,40 341,40 341,40 342,41 342,41 342,41 342,41 343,43 343,43 343,43 343,43 344,43 345,43 347,43 347,43 348,43 348,43 348,43 349,43 349,43 349,43 349,43 350,43 350,43 349,43 349,44 349,44 348,45 347,45 346,46 346,46 345,46 343,47 342,47 342,47 342,47 342,48 342,48 342,48 342,49 342,49 342,49 341,50 341,51 341,52 340,52 340,52 339,52 338,53 337,53 337,53 336,54 336,55 335,55 335,55 335,55 335,56 335,56 335,56 335,57 336,58 336,59 337,61 337,61 337,61 337,62 337,63 337,63 337,64 337,65 337,65 337,65 338,65 338,66 339,67 339,67 338,67 338,67 337,68 336,68 336,68 336,68 334,69 334,69 334,69 334,69 334,69 334,69 334,69 334,70 334,70 334,71 334,71 333,72 333,72 333,72 333,73 333,74 333,74 333,75 333,76 334,76 334,76 335,77 335,78 335,78 335,78 335,79 335,81 335,82 335,82 334,84 332,86 332,86 332,86 333,87 334,88 334,88 334,89 334,90 333,91 333,91 333,92 332,93 332,93 332,96 332,96 332,97 331,98 331,98 332,106 333,107 333,107 333,107 333,108 334,109 334,109 334,110 334,110 334,110 334,110 334,110 334,111 334,114 334,114 334,121 334,121 334,122 334,124 334,124 333,125 332,126 332,126 331,127 331,127 330,128 330,128 329,128 328,128 327,129 327,129 327,129 326,129 326,130 326,130 326,131 326,131 326,133 326,133 326,133 326,134 326,134 327,134 327,134 327,135 327,135 328,137 328,137 328,137 328,137 329,138 330,139 332,141 332,141 332,141 332,141 333,142 333,142 333,142 334,142 334,142 334,142 335,142 337,143 338,143 338,143 339,144 339,144 339,144 340,145 340,145 340,145 342,146 342,146 341,147 339,148 339,148 339,148 339,148 339,148 338,148 338,148 336,149 336,150 336,149 334,149 332,147 331,146 329,145 329,145 327,144 326,144 325,143 322,142 321,142 320,142 318,141 318,141 312,141 310,141 302,140 298,140 285,139 272,139 270,139 268,138 266,138 263,138 262,138 261,137 260,137 257,137 248,135 241,134 235,133 231,133 230,133 229,133 225,132 223,132 223,132 221,133 217,133 216,134 215,134 210,135 204,137 198,139 194,140 195,142 195,142 195,142 196,143 196,143 196,144 196,144 196,144 196,145 197,145 197,145 198,145 198,145 198,146 198,146 198,146 202,145 203,145 206,145 208,145 208,145 208,145 208,147 208,147 208,147 209,147 209,147 209,147 209,148 209,148 210,148 210,148 210,148 210,148 210,148 210,148 210,148 211,148 211,148 212,149 212,149 212,149 212,149 212,149 213,148 213,148 213,148 213,148 214,149 214,149 214,149 215,149 215,149 215,149 215,149 216,149 216,149 216,149 216,149 217,149 217,149 218,149 218,149 218,149 219,149 219,149 219,149 219,149 220,150 220,150 220,150 220,150 221,150 221,150 221,149 221,149 222,149 222,149 222,149 222,150 223,150 223,150 223,150 224,150 228,150 230,150 230,150 231,149 231,149 232,149 239,151 240,152 244,153 246,154 247,154 251,156 251,156 252,155 252,155 257,155 257,155 257,155 257,154 258,154 264,155 264,155 264,156 264,156 264,156 264,156 264,156 264,156 263,159 263,159 263,159 263,160 263,161 262,162 262,163 263,163 263,165 263,165 263,166 263,166 264,167 265,169 265,169 266,170 266,170 267,171 268,171 268,172 269,173 269,173 270,174 271,174 271,176 272,176 272,176 272,177 274,178 274,178 274,178 275,178 276,178 277,179 278,179 278,179 278,179 279,179 279,179 279,179 280,179 280,179 281,180 282,180 282,180 283,180 284,180 284,180 285,181 286,181 286,181 287,182 288,183 288,183 289,183 290,184 290,184 292,185 293,185 293,185 294,186 295,187 295,187 296,188 296,188 296,189 297,190 297,191 297,191 297,191 297,191 297,192 297,192 297,192 297,193 297,193 297,193 297,194 296,194 296,195 296,195 296,195 296,195 296,195 296,195 296,195 296,195 297,196 297,196 297,196 297,196 297,197 297,197 297,197 297,197 297,197 297,197 297,197 297,197 296,198 296,198 296,198 296,198 296,198 296,198 296,198 296,198 296,198 296,198 296,199 296,199 296,199 296,199 296,199 296,199 296,199 296,199 296,200 296,200 296,202 296,203 296,203 296,203 296,203 295,204 295,204 295,205 295,206 294,206 294,207 295,207 295,207 295,208 295,208 295,208 295,208 295,208 296,209 296,209 296,209 296,209 297,209 297,209 297,210 297,210 297,210 298,210 298,210 298,211 298,211 298,211 298,211 298,211 298,211 298,211 298,211 298,212 298,212 299,212 299,213 299,213 300,213 300,214 300,214 300,214 301,214 301,214 301,214 301,214 302,214 302,214 303,214 303,214 303,214 303,214 303,215 304,215 304,215 304,216 304,216 304,216 305,216 305,217 305,217 305,217 306,217 306,217 307,218 307,218 307,218 307,219 307,219 307,219 307,220 308,220 308,220 308,221 308,221 309,221 309,222 310,223 312,224 312,224 313,226 313,226 313,227 313,228 313,228 313,228 313,229 313,229 313,229 313,229 313,230 313,230 313,230 313,230 313,231 313,231 313,231 313,231 313,231 313,231 313,232 313,232 313,232 313,233 313,233 313,233 314,234 314,234 314,234 314,234 314,235 317,239 317,239 317,239 317,239 318,239 319,239 319,238 320,238 320,238 320,238 321,238 321,239 322,239 322,239 322,239 323,239 323,239 323,239 322,240 322,240 322,240 322,241 322,241 322,241 322,242 321,242 321,242 321,242 321,242 321,243 321,243 323,253 323,254 320,258 320,258 320,259 328,262 328,262 322,266 321,267 320,268 320,270 320,270 319,270 318,271 317,271 317,271 317,272 317,272 316,272 315,275 315,276 315,277 314,279 314,280 314,281 314,281 314,282 314,282 314,282 315,282 315,282 316,282 317,282 317,282 317,282 317,282 318,282 319,282 319,282 320,282 320,282 320,282 320,282 320,282 322,282 322,282 323,282 324,282 325,282 325,282 326,282 326,282 327,282 327,282 327,282 327,282 327,282 328,282 328,282 329,283 329,283 330,284 330,284 330,284 331,285 331,285 331,285 331,285 331,285 331,285 331,285 332,286 332,286 332,286 333,286 333,286 333,286 332,287 332,287 331,287 331,287 331,287 331,288 332,289 332,289 332,289 333,289 333,289 334,289 334,289 335,289 336,289 337,289 337,289 338,290 338,290 339,290 339,290 340,290 340,290 340,290 340,291 340,291 341,291 341,292 342,292 342,293 343,293 343,293 343,294 343,294 343,294 343,294 343,295 342,295 342,295 342,296 342,296 342,296 341,296 341,296 342,296 342,296 342,296 342,296 343,296 343,296 345,296 345,295 346,295 346,295 346,295 347,294 347,294 348,294 348,294 347,293 347,293 347,293 347,293 347,293 348,293 348,293 348,292 348,292 348,292 347,292 346,291 346,291 346,291 346,291 346,291 347,291 347,291 347,290 348,290 348,290 348,289 348,290 349,290 349,290 349,290 350,289 350,289 350,289 349,289 349,289 349,289 349,289 348,289 348,289 348,289 349,289 349,288 349,288 348,288 348,288 348,288 348,288 349,288 349,288 349,288 349,288 349,288 350,288 351,288 351,288 351,288 351,288 351,288 351,288 351,288 351,288 351,287 351,287 351,287 352,287 352,287 352,287 352,287 352,287 353,287 353,287 353,286 354,285 354,285 354,285 353,285 353,285 353,285 353,284 353,284 353,284 354,283 354,283 354,283 355,283 355,283 356,283 356,283 357,282 357,282 357,282 358,282 358,282 358,282 358,282 358,282 358,282 359,282 359,282 359,282 360,282 360,282 360,282 360,282 360,282 360,282 361,282 361,281 361,281 361,281 361,281 362,281 362,281 362,281 363,281 363,281 363,281 363,281 363,281 364,281 364,280 364,280 364,280 364,280 365,280 365,280 365,280 366,280 366,280 367,280 367,280 367,280 367,280 368,280 368,280 368,280 368,280 368,280 367,279 367,279 368,279 368,279 368,279 369,279 369,279 369,279 369,279 369,279 370,279 370,279 370,279 370,280 370,280 371,280 371,280 371,280 371,280 371,280 372,280 372,280 372,280 372,280 372,280 373,280 373,280 373,279 374,279 374,279 374,279 374,278 375,278 375,278 375,277 375,277 375,277 375,277 376,276 376,276 377,275 377,275 379,276 379,276 383,279 385,280 391,285 396,288 397,289 399,290 400,291 403,293 403,293 404,294 405,295 406,295 406,296 407,297 408,297 409,299 410,299 411,300 412,301 413,302 414,303 418,305 419,306 420,307 421,307 425,310 426,311 430,313 428,316 427,317 427,317 427,317 427,317 427,317 427,317 426,318 426,318 426,319 425,319 423,320 423,321 423,321 419,325 418,325 418,326 417,325 416,325 413,327 413,327 412,328 410,329 412,330 409,330 409,330 410,331 410,331 411,333 411,334 411,335 412,337 412,337 412,338 412,338 411,341 411,341 411,341 411,341 411,341 411,341 411,341 410,341 410,342 408,344 408,344 408,345 408,346 408,348 408,348 408,348 409,350 410,351 412,353 412,353 412,353 411,353 410,354 410,354 408,356 406,357 405,357 405,358 405,358 404,358 404,358 404,358 403,358 403,358 403,358 403,358 403,358 401,358 400,358 400,358 399,358 399,357 398,357 398,357 398,357 397,357 396,357 394,356 393,356 393,356 393,355 393,355 393,356 393,356 392,356 392,356 392,356 392,357 392,357 392,357 392,358 392,358 391,358 391,358 391,359 391,359 391,359 390,359 390,360 390,360 390,360 390,360 390,360 389,361 389,361 389,361 389,362 389,362 388,362 388,363 388,363 386,363 386,364 385,364 385,364 384,365 384,365 384,365 382,366 382,367 382,367 382,367 382,368 382,368 382,368 381,369 381,369 381,370 380,370 380,371 380,372 380,372 380,373 380,373 379,373 380,374 380,374 380,374 380,375 379,376 379,376 379,376 379,376 379,377 379,377 379,377 379,378 378,378 378,378 378,378 378,378 378,379 378,379 378,379 378,380 378,380 377,380 377,381 377,381 377,382 377,382 376,382 376,382 377,383 377,383 377,383 377,383 377,384 376,384 376,384 376,384 376,385 376,385 376,385 376,386 376,386 376,386 375,387 375,387 375,388 375,388 375,389 375,389 375,389 374,390 374,391 374,392 374,393 374,393 373,394 373,395 373,395 372,396 372,396 372,397 372,397 372,398 372,398 371,399 371,399 370,400 370,402 371,402 371,402 371,402 370,405 369,406 369,407 369,407 368,409 368,409 367,409 366,409 365,409 363,409 362,410 361,410 360,411 358,412 357,413 356,414 355,416 354,416 354,417 352,420 351,421 351,421 351,422 348,421 347,421 344,421 342,421 339,420 337,420 335,419 335,414 335,413 335,412 334,411 335,409 333,407 333,406 332,406 332,406 332,407 332,407 332,410 332,411 332,412 331,415 330,417 329,419 329,422 329,423 329,424 331,426 333,428 335,431 336,432 340,433 336,435 332,439 330,441 328,443 327,444 332,446 337,446 339,447 340,448 342,448 345,450 348,451 348,452 349,453 349,453 346,453 345,454 345,454 344,455 343,456 344,456 347,460 347,460 348,462 344,464 344,466 345,473 345,474 345,474 344,475 344,476 344,476 343,477 343,477 343,478 343,478 344,479 344,479 344,480 344,480 344,481 342,484 342,485 342,486 342,486 341,486 341,487 341,487 340,488 339,488 339,489 338,490 338,490 338,490 337,490 336,491 333,493 333,493 332,494 332,494 332,494 332,495 332,496 332,496 330,496 330,496 328,496 328,496 327,496 327,496 326,496 325,496 325,496 323,496 322,496 322,496 321,496 319,495 316,494 314,494 313,493 310,492 309,491 308,491 308,492 308,492 308,491 307,491 306,492 306,493 307,493 308,495 309,496 308,497 308,497 307,497 307,497 305,499 305,499 299,499 296,500 296,499 296,499 295,499 293,499 292,499 291,499 291,500 291,500 290,500 290,500 289,499 289,498 288,498 286,497 286,496 285,496 285,495 284,495 284,495 283,495 283,495 282,494 282,494 282,494 281,493 281,493 281,493 279,492 279,492 278,491 278,491 278,491 278,491 277,490 277,489 277,489 277,489 276,488 276,488 275,488 273,487 273,487 271,486 271,486 271,486 271,486 267,487 267,487 266,487 265,488 264,488 264,488 264,488 264,488 262,486 262,486 262,485 262,485 262,485 261,484 261,484 257,482 256,481 255,481 254,481 254,481 254,481 252,480 252,480 251,479 248,478 248,477 247,477 247,477 246,477 246,477 245,476 245,476 245,476 244,475 243,474 243,474 243,474 243,474 243,473 242,474 242,474 242,473 240,473 240,473 239,473 230,470 230,471 230,471 230,474 230,475 229,475 229,475 229,475 229,476 228,476 228,477 227,477 226,477 226,477 227,478 227,479 227,479 226,480 226,480 226,480 223,479 222,479 222,478 221,478 220,478 219,478 218,478 218,478 217,478 217,478 217,478 216,478 216,478 215,478 215,478 214,478 214,478 212,477 212,477 212,477 211,477 211,477 210,477 209,477 208,477 208,477 208,478 208,478 208,478 207,478 202,478 202,478 198,477 197,477 197,477 196,477 195,477 195,477 195,477 194,477 194,477 194,477 194,476 194,476 194,476 193,477 193,477 192,477 192,477 191,477 191,477 191,477 191,477 187,477 183,476 183,476 183,476 183,476 183,476 181,475 180,475 180,475 180,475 180,475 179,475 179,475 178,475 178,475 178,475 177,475 177,475 177,475 177,475 177,475 177,475 177,475 177,475 176,475 176,475 176,475 176,475 176,475 176,475 175,475 175,475 175,475 175,475 175,475 175,475 175,475 174,475 174,475 174,475 174,475 174,475 174,475 174,475 174,475 170,474 170,474 169,474 169,474 169,474 169,474 169,475 169,475 169,475 169,475 168,475 168,474 168,474 168,474 168,475 168,475 168,475 168,475 168,475 168,473 168,472 168,468 168,467 168,467 169,465 169,463 169,462 170,462 170,462 171,462 172,462 172,462 172,461 172,460 171,460 170,460 168,459 168,459 168,459 166,460 163,459 162,459 161,459 160,459 158,459 156,460 154,460 152,461 151,461 151,461 151,461 147,440 147,437 146,435 146,435 146,434 145,434 144,433 144,432 143,432 142,432 142,432 141,432 141,431 141,431 140,431 140,431 139,431 139,431 139,431 137,430 136,430 136,430 135,430 135,430 134,430 134,431 133,432 133,433 132,436 132,436 132,437 132,439 131,439 131,439 131,439 130,440 128,441 126,442 125,443 122,445 122,445 122,445 118,446 115,447 115,447 114,447 114,447 114,447 114,447 113,447 113,447 113,446 112,446 112,446 111,446 111,446 111,445 111,445 108,445 107,445 107,445 106,445 105,444 105,444 104,444 104,443 104,443 104,443 103,443 103,443 102,443 102,443 102,443 101,443 101,443 100,443 100,443 100,443 99,443 99,443 99,443 98,443 98,443 98,443 98,443 98,443 97,444 97,444 96,443 96,444 96,443 95,443 94,443 93,443 92,443 92,443 92,443 92,442 92,442 92,442 91,442 91,443 91,443 89,442 89,442 88,442 85,442 84,441 84,441 83,441 83,440 83,440 82,440 82,440 82,440 82,440 81,440 81,440 81,440 81,440 81,440 80,440 80,440 79,440 79,440 79,440 79,440 79,440 79,440 78,439 78,439 78,439 78,439 77,439 77,439 77,439 77,439 77,439 77,439 76,439 76,439 76,439 76,439 75,439 75,439 75,439 75,438 75,438 74,438 74,438 74,438 74,438 73,437 73,437 73,437 72,436 71,435 70,434 69,433 69,432 69,432 69,432 68,432 67,432 67,431 66,431 65,430 64,430 64,430 63,429 63,429 63,429 63,428 63,428 62,428 61,428 61,427 61,427 61,427 61,427 61,427 61,427 61,427 61,427 61,427 59,426 59,426 58,426 58,426 58,426 58,426 58,426 59,426 60,425 60,425 63,425 63,426 64,426 66,426 67,426 69,426 70,426 73,426 74,426 75,426 76,426 78,426 79,426 80,426 81,426 87,425 89,425 91,424 91,424 92,424 92,424 89,423 89,422 88,423 88,423 88,423 87,422 87,422 87,422 87,421 87,421 87,421 87,421 88,419 88,419 88,419 88,419 89,418 93,410 93,409 93,409 92,409 92,409 91,408 91,408 91,408 91,408 91,408 90,408 90,408 90,407 90,407 89,407 89,407 88,406 87,406 87,406 87,405 87,405 86,405 86,405 86,405 86,405 86,405 86,405 84,405 84,406 84,406 83,406 82,406 81,406 81,406 80,406 80,406 79,406 79,406 78,406 78,406 75,407 73,407 73,407 72,407 71,407 70,407 67,406 67,406 67,407 66,407 65,407 64,407 64,407 63,407 62,407 62,407 61,406 61,406 59,406 59,406 57,406 57,406 56,406 55,406 55,406 53,406 52,406 52,406 51,406 51,406 50,406 50,406 50,406 49,406 48,406 47,406 46,405 45,405 43,405 42,405 41,405 40,404 39,404 39,405 38,405 37,405 36,405 35,405 33,405 32,405 32,405 27,405 27,405 27,405 26,405 25,404 23,404 23,404 22,404 21,404 19,404 18,405 17,405 16,405 15,405 15,405 14,405 14,405 13,406 12,406 11,406 11,406 11,406 11,406 11,406 10,406 10,405 10,405 10,405 9,404 9,404 9,403 9,403 9,403 9,403 9,403 8,403 8,403 8,403 8,403 8,403 8,402 8,402 8,402 8,400 7,400 7,400 7,400 7,399 7,399 8,399 8,399 8,399 8,398 8,398 8,398 8,398 8,398 8,398 8,398 9,398 9,398 9,398 9,398 9,398 9,397 9,397 9,397 8,396 8,396 8,396 7,396 7,396 7,396 7,396 7,396 6,395 6,395 6,395 5,395 5,393 5,392 5,392 5,392 5,392 6,391 6,391 6,391 7,391 8,389 9,387 10,386 12,385 15,385 15,385 16,386 17,386 20,386 21,385 24,385 24,383 25,383 27,382 28,381 32,380 37,380 47,380 50,380 51,380 52,381 57,381 65,375 67,375 72,376 72,375 72,375 73,372 73,370 74,368 74,368 75,368 81,369 81,370 86,370 91,369 93,368 97,368 101,367 105,367 105,366 106,366 108,366 109,366 111,365 111,365 114,363 117,362 118,362 118,361 118,361 119,361 118,359 117,358 117,357 116,355 116,354 116,353 116,352 116,352 117,351 117,351 118,351 119,350 120,350 120,349 120,347 121,347 121,346 127,335 127,335 128,335 128,335 129,334 130,335 130,334 133,332 134,332 134,331 134,331 132,328 131,326 131,324 130,321 130,318 130,317 129,315 128,312 128,311 128,310 127,307 124,305 124,304 125,304 126,303 127,302 128,301 129,300 133,297 134,296 135,295 136,294 137,293 137,293 137,293 138,291 139,291 139,290 141,289 142,287 143,286 144,286 144,286 143,286 141,286 140,286 136,286 131,286 129,287 126,287 124,288 120,288 119,287 117,287 115,286 112,285 110,282 110,282 108,280 107,279 106,278 104,277 104,276 104,276 101,274 100,273 96,274 95,274 94,273 91,271 91,271 88,270 86,270 85,270 82,271 76,271 70,271 69,271 68,271 68,272 67,272 67,272 66,271 66,269 66,269 66,268 65,268 66,266 66,266 65,264 66,262 66,262 66,261 65,261 66,260 65,260 65,258 63,258 63,257 64,256 60,257 59,258 55,260 51,261 48,261 48,261 44,260 37,259 36,259 36,258 36,258 36,258 36,257 36,256 36,256 36,256 36,256 36,256 36,256 37,256 37,256 37,254 38,254 38,253 38,252 38,252 38,252 38,251 38,251 38,251 38,251 38,250 38,250 38,249 38,248 39,246 39,245 39,244 39,243 40,243 40,243 40,243 40,242 41,240 41,240 41,240 42,239 42,238 42,238 43,237 43,237 43,236 44,235 44,234 44,234 45,234 45,234 46,234 46,233 46,233 47,231 48,230 48,230 49,230 49,230 49,229 49,229 49,229 49,229 48,228 48,228 48,227 48,227 48,227 47,227 47,227 47,226 47,226 47,226 47,226 47,225 46,225 46,225 46,225 46,224 46,224 45,224 45,224 45,223 45,223 45,223 45,223 44,223 44,222 43,221 43,221 43,220 43,220 43,220 43,220 43,219 43,219 42,219 42,219 42,219 42,219 42,219 42,218 42,218 42,218 42,217 42,217 41,216 41,216 41,216 41,215 41,215 41,214 41,214 40,213 40,213 40,212 40,212 40,212 40,212 40,212 40,211 39,211 39,211 40,211 40,210 40,210 40,210 40,210 40,210 40,209 40,209 40,209 40,209 40,209 39,209 39,209 39,209 39,209 39,208 39,207 38,207 38,207 37,207 37,207 37,207 36,207 36,207 36,207 36,207 36,207 35,207 35,207 35,207 35,206 35,206 34,206 34,206 34,206 34,206 34,206 34,206 33,205 33,205 33,205 33,205 33,205 33,205 26,207 24,207 24,207 24,207 24,206 23,206 23,205 23,205 23,205 24,203 24,202 24,202 24,201 24,201 23,199 23,199 23,197 23,197 20,197 19,197 18,197 14,198 14,198 14,198 14,197 14,197 14,197 14,196 13,195 13,195 13,195 13,195 13,195 13,195 13,194 13,194 13,194 13,194 13,193 13,191 13,191 13,191 13,191 14,190 14,190 14,190 15,189 15,188 16,187 16,187 16,187 17,187 17,186 18,186 19,185 20,184 20,184 20,183 21,182 21,182 21,182 21,182 21,182 21,181 21,181 21,180 20,178 20,177 20,176 20,175 21,175 21,175 20,175 20,175 19,173 18,173 18,172 16,171 14,170 13,169 8,166 7,166 6,165 6,164 5,164 4,164 2,162 1,162 1,162 0,161 0,160 0,160 0,160 0,160 1,159 2,158 2,158 4,155 5,155 6,153 6,153 8,150 9,149 10,146 10,146 10,146 11,145 11,145 12,145 12,145 12,144 12,144 12,143 12,143 12,143 12,142 11,142 12,142 12,140 12,140 12,140 12,140 12,140 13,140 14,140 14,140 14,139 14,139 14,138 14,137 15,136 15,136 15,135 15,135 15,135 15,134 15,134 15,134 15,134 15,134 15,134 16,134 16,134 16,134 16,133 17,133 17,132 22,128 22,128 23,128 24,127 24,127 24,126 25,126 25,125 26,124 26,123 27,122 27,121 28,121 28,120 29,120 29,120 30,119 31,118 31,118 32,117 33,117 33,117 35,115 35,115 35,115 36,114 36,113 36,113 37,112 37,111 38,108 38,108 38,107 38,107 37,106 37,105 37,105 36,105 36,104 36,103 35,103 34,103 34,103 33,103 32,102 32,102 30,100 30,100 30,100 31,98 31,98 31,97 31,97 32,98 32,98 32,98 33,98 33,98 33,98 33,98 35,98 35,98 37,99 37,99 37,99 37,99 37,99 37,99 38,99 39,100 40,100 40,100 40,100 40,100 40,100 40,100 40,100 40,100 42,101 42,101 45,95 45,94 45,94 45,94 45,94 46,94 46,94 46,93 47,92 47,92 48,90 49,89 49,89 49,89 49,89 50,88 51,87 51,87 50,85 48,84 47,84 47,84 46,83 44,83" id="4715" class="canton" fill="steelblue" stroke-width="1" stroke="white" geotype="canton" geoname="Ouest agenais" code_insee="4715" code_departement="47" nom_departement="Lot-et-Garonne" code_region="75" nom_region="Nouvelle-Aquitaine"/></svg>