<?xml version="1.0" encoding="utf-8"?>
<svg version="1.1" id="svgmap" xmlns="http://www.w3.org/2000/svg" xmlns:xlink="http://www.w3.org/1999/xlink" x="0px" y="0px" width="100%" height="100%" viewBox="0 0 500 330">
<polygon points="39,16 39,17 41,18 46,20 52,22 53,23 54,23 57,25 59,25 60,25 61,26 62,26 64,27 65,27 69,30 70,30 72,31 73,32 74,32 74,32 74,32 75,32 76,32 77,32 78,32 78,31 79,31 80,31 81,30 82,30 84,29 85,28 87,27 88,26 90,24 92,23 94,21 95,21 96,20 96,19 96,19 98,18 100,17 101,16 101,16 103,15 104,15 109,13 110,12 114,10 116,9 117,9 118,9 120,8 122,8 126,7 127,6 128,6 133,4 134,4 136,3 137,3 141,1 142,1 142,1 143,1 145,1 145,1 147,1 148,1 148,1 150,1 152,1 157,1 157,1 157,1 158,1 161,1 165,1 168,1 180,0 182,0 186,0 186,0 190,1 190,1 190,1 192,0 192,0 192,0 192,1 192,1 194,2 195,3 195,3 197,4 197,4 197,5 197,5 197,6 197,7 197,8 197,11 197,12 197,12 194,22 192,27 192,33 196,50 204,60 218,69 230,77 238,79 243,79 251,76 259,72 265,70 274,68 285,71 294,69 311,69 331,71 343,72 351,70 355,70 363,72 377,74 387,80 397,87 398,88 399,88 401,90 403,91 405,93 405,94 407,95 409,97 411,101 412,101 412,102 414,103 415,104 416,104 417,105 420,106 421,106 424,106 424,107 426,107 427,107 428,107 428,107 428,108 428,109 428,109 428,109 428,110 428,111 428,111 427,112 427,112 427,113 427,113 427,113 427,114 427,114 427,114 427,114 427,115 424,116 424,116 424,116 424,117 423,117 423,118 423,118 423,118 423,119 422,119 422,119 422,120 422,120 422,121 422,121 422,122 421,123 421,124 420,125 420,126 420,126 420,126 420,127 420,127 420,127 419,128 419,128 419,128 418,131 418,131 418,132 417,132 417,132 417,132 417,132 417,133 417,134 417,134 417,134 417,135 417,135 416,137 416,137 416,138 415,138 415,139 414,140 414,140 414,140 414,141 416,144 416,144 417,144 417,145 417,146 418,147 418,147 419,147 419,147 419,147 419,148 419,148 419,149 418,150 418,150 416,153 416,153 416,154 416,154 416,154 416,154 416,154 415,156 415,156 415,156 414,158 414,158 414,158 415,158 415,158 413,160 413,160 411,160 411,160 411,161 411,162 411,163 411,163 412,164 412,164 413,165 413,166 413,166 413,167 413,167 415,170 415,170 416,172 416,172 417,173 418,174 418,174 418,174 419,175 419,175 419,175 421,176 421,176 421,177 422,177 422,177 423,177 423,177 424,178 426,179 427,180 428,180 428,181 429,181 430,182 431,183 431,183 431,184 432,185 432,186 432,187 432,187 432,188 432,188 432,188 432,188 435,188 435,188 435,188 435,188 437,189 438,189 438,189 439,189 439,189 439,189 440,189 441,189 441,189 441,189 443,189 443,189 444,189 444,189 444,189 445,189 445,189 445,189 445,189 445,190 445,190 446,190 446,191 447,191 447,191 447,192 446,192 446,192 446,192 447,192 447,192 447,192 447,193 447,193 447,194 447,194 447,195 447,195 447,196 447,197 447,198 447,198 447,198 447,199 447,199 446,199 446,199 446,200 446,200 446,200 446,201 446,201 446,201 446,202 446,202 446,202 446,202 446,202 446,202 446,203 446,203 446,203 446,203 446,203 446,204 447,205 447,205 448,206 448,206 448,206 448,206 448,206 448,207 448,207 448,208 448,208 448,208 448,208 448,208 448,209 448,209 448,209 448,209 448,210 449,210 449,210 448,210 448,210 448,210 448,211 448,211 448,211 449,211 449,212 449,212 449,213 449,213 448,213 448,214 448,215 449,215 449,215 449,215 449,216 449,217 450,217 450,217 449,218 449,218 450,218 450,219 450,219 450,219 450,219 450,220 450,220 450,220 450,221 450,221 450,222 450,223 450,225 450,225 450,226 450,227 450,227 450,227 450,227 451,228 451,229 451,229 452,229 452,230 453,231 454,232 454,233 455,234 455,234 455,234 455,235 456,236 456,236 456,237 457,239 457,239 458,240 458,241 458,241 459,241 461,242 461,242 464,243 465,243 465,243 466,243 466,244 467,244 467,244 468,245 468,246 469,247 471,248 472,248 472,248 472,248 473,248 473,249 473,249 474,250 474,250 473,252 473,252 473,252 472,252 471,254 470,255 468,256 467,257 467,257 467,257 467,258 466,258 466,258 466,259 467,259 467,260 467,260 468,261 470,263 471,263 472,264 472,264 472,265 472,265 471,265 470,266 469,266 470,266 470,266 468,267 468,267 467,267 465,267 465,267 464,268 464,268 463,268 463,268 463,268 463,270 463,271 464,271 468,270 469,270 469,270 469,270 470,270 471,271 471,272 472,272 472,272 473,273 475,273 475,273 476,273 476,274 477,274 477,274 476,275 476,276 476,276 477,276 477,276 477,276 478,276 478,277 479,277 479,277 479,277 481,277 481,277 476,283 476,283 474,283 474,282 473,282 471,283 471,283 470,283 469,283 469,283 469,283 469,283 470,283 470,284 470,284 470,284 472,285 474,287 474,287 474,287 474,288 474,288 474,288 474,288 473,288 474,288 475,289 476,289 477,289 478,289 479,290 480,290 480,290 480,290 481,290 482,291 482,291 483,297 483,297 483,297 484,297 488,297 490,297 491,297 492,297 495,297 496,297 500,298 500,298 500,298 499,299 499,300 499,300 499,300 499,300 498,300 498,301 498,301 497,300 496,300 494,300 494,301 494,301 493,301 493,302 493,302 492,302 491,302 488,303 488,303 488,303 486,303 485,303 485,303 483,305 483,305 483,305 482,306 482,306 482,306 482,306 482,306 482,306 481,307 480,308 480,308 480,309 479,310 479,310 479,310 478,310 478,310 473,311 473,311 470,311 470,311 470,311 468,311 467,311 467,311 466,311 466,311 465,311 465,312 465,312 464,312 464,312 464,312 462,312 461,312 459,312 458,312 457,312 457,312 454,312 451,312 450,313 445,314 443,314 443,314 440,313 440,313 438,314 436,315 431,319 431,319 431,319 431,319 431,319 430,320 429,320 428,321 419,323 418,324 417,324 417,324 416,325 416,325 415,326 415,326 415,328 414,329 414,329 413,330 413,330 413,330 413,330 412,330 410,330 409,329 408,329 404,328 401,327 401,327 399,326 398,326 394,325 391,325 390,325 389,325 389,325 389,325 389,325 388,325 388,324 388,324 388,324 388,323 387,323 387,322 386,321 386,320 386,320 385,319 385,319 384,319 384,318 383,318 383,318 381,317 381,316 380,316 380,316 380,316 379,316 379,315 378,315 377,315 377,315 376,314 376,314 376,314 376,314 376,314 375,314 375,314 374,313 374,313 374,313 374,312 374,311 374,310 374,309 374,309 374,309 374,308 374,308 374,308 374,307 374,306 374,306 375,306 375,305 375,305 375,304 375,304 375,304 375,303 375,303 375,303 376,303 376,302 375,302 375,302 375,300 375,300 375,300 375,299 375,299 375,298 376,297 376,297 376,297 377,295 377,295 377,293 377,293 377,292 376,290 376,289 376,287 376,287 376,286 377,285 377,285 377,284 378,284 378,283 378,283 379,282 379,282 379,282 378,281 378,280 378,280 378,280 378,280 379,280 380,279 381,278 382,278 382,278 382,277 382,277 382,277 382,277 381,277 381,277 381,277 380,278 379,278 379,279 378,279 378,279 378,279 378,279 377,279 377,279 377,279 377,279 376,279 376,279 376,279 376,279 375,280 372,282 372,282 372,282 372,282 371,282 371,282 370,282 370,282 370,282 368,282 368,282 367,282 366,282 366,281 366,281 361,279 360,279 360,278 359,278 358,278 356,278 354,277 354,277 353,277 352,276 351,276 350,276 350,276 350,275 349,275 349,275 349,274 349,274 349,274 349,273 348,272 348,272 347,271 346,271 346,270 346,270 345,270 345,270 344,270 343,269 343,269 342,268 339,268 338,268 337,268 335,267 334,266 331,265 329,265 329,264 327,264 326,264 326,265 325,265 325,265 325,265 324,265 324,265 323,264 322,264 322,264 322,264 322,264 321,264 320,264 320,264 319,264 315,264 315,264 314,265 312,265 311,265 310,265 308,266 308,266 307,266 307,266 307,265 306,265 306,265 307,266 307,266 307,266 306,266 306,266 306,266 306,266 305,266 304,267 301,268 301,268 301,268 300,268 300,269 300,269 300,269 300,269 299,270 299,270 298,271 297,271 296,273 296,273 295,274 295,274 294,275 294,275 294,275 294,276 293,278 293,278 292,278 292,278 291,278 290,278 290,278 290,278 289,279 288,279 288,279 288,280 287,280 286,281 286,281 285,281 285,282 283,282 282,282 282,282 282,282 281,282 281,282 280,283 279,283 279,283 278,283 277,284 276,285 276,285 275,286 275,286 275,286 275,286 275,287 274,287 274,287 274,288 274,288 274,288 274,288 274,288 273,288 272,289 272,289 271,290 271,290 271,290 271,290 269,290 269,291 267,292 266,292 265,292 265,292 265,292 264,293 261,293 261,293 261,294 261,294 261,294 260,294 260,294 260,294 258,294 256,295 255,295 252,295 252,295 252,295 251,295 251,295 251,294 251,294 251,294 251,294 248,285 248,284 248,284 248,284 247,284 247,284 247,284 247,284 246,284 246,284 245,283 242,281 241,280 240,279 239,278 239,278 237,277 236,275 236,274 235,273 235,273 234,272 232,271 230,269 228,267 227,267 226,266 226,265 225,264 223,262 223,262 223,262 222,262 222,262 222,262 219,263 218,264 218,264 218,264 217,264 217,265 217,265 217,264 217,264 216,264 216,263 216,263 216,263 215,263 215,263 212,261 212,261 206,260 205,260 204,260 203,260 202,260 201,261 200,261 200,261 200,261 199,261 196,262 196,262 195,262 195,262 195,263 194,263 194,263 193,264 191,264 191,264 191,264 191,264 189,265 189,265 189,265 189,265 188,266 186,267 186,267 186,267 185,267 185,267 185,267 184,267 183,267 183,267 182,267 181,267 180,267 180,267 180,268 181,269 181,269 181,269 181,269 181,269 179,270 177,271 177,271 176,272 176,272 176,272 176,272 176,272 175,273 175,273 175,274 174,274 173,276 173,276 173,276 171,278 170,278 170,278 170,278 169,278 167,279 166,279 166,280 166,280 165,280 165,281 165,282 165,282 159,281 159,281 158,283 157,284 157,284 157,284 157,284 155,283 153,282 153,282 153,282 152,282 152,282 151,283 151,283 149,283 149,283 149,283 148,284 148,284 147,284 147,283 146,283 146,283 146,283 146,283 145,283 141,281 141,281 140,281 140,281 140,281 137,281 136,281 136,281 135,280 134,280 133,280 133,280 132,280 132,279 125,275 123,275 123,274 123,274 123,274 122,274 121,273 121,273 120,272 120,272 119,271 118,270 118,270 117,269 117,269 117,269 116,268 113,268 113,268 113,268 113,268 112,268 111,268 110,268 109,267 108,267 108,267 108,266 108,266 105,266 104,265 104,265 104,265 103,265 103,265 102,264 102,264 101,264 101,264 100,264 100,264 99,264 98,264 97,264 95,264 94,265 94,265 94,265 94,265 94,265 94,265 93,265 91,264 89,264 88,263 87,263 86,262 86,262 85,262 84,261 83,261 83,261 83,261 83,261 82,260 82,260 80,260 80,260 78,260 78,260 78,259 77,259 77,259 77,259 76,258 76,258 75,258 74,258 74,258 73,258 72,257 71,257 69,256 68,255 66,255 65,254 65,254 62,252 61,252 60,252 59,251 58,251 56,250 56,250 55,249 53,249 52,248 52,247 52,247 51,247 49,247 46,247 46,247 45,247 45,247 44,247 44,247 43,246 43,246 42,245 40,244 38,243 34,242 34,242 33,241 31,241 29,241 27,241 26,241 26,241 25,241 24,240 24,240 24,240 22,241 22,241 20,241 19,241 19,240 18,240 15,239 14,239 11,238 10,238 9,238 7,237 6,237 6,237 4,236 4,235 4,235 4,235 4,234 5,234 5,233 7,232 8,231 9,230 11,229 16,225 16,225 21,223 23,222 23,221 30,219 30,218 30,218 28,217 28,217 28,217 28,216 29,216 29,216 29,216 29,216 29,215 29,214 29,214 29,214 29,214 28,214 27,213 27,213 27,213 28,212 28,212 28,212 27,212 26,211 25,210 24,209 24,208 23,207 20,206 19,205 19,205 19,205 17,203 15,201 14,200 14,200 13,200 13,200 12,199 12,199 11,198 10,198 8,197 7,196 7,196 6,195 5,195 4,194 3,193 3,192 3,192 3,192 1,192 1,192 1,191 1,191 1,191 1,189 1,189 0,188 0,187 0,187 0,186 0,186 0,186 0,185 1,185 1,185 1,185 1,184 1,184 1,184 2,181 3,177 3,175 3,175 3,175 3,175 3,174 3,174 3,174 3,173 2,172 2,171 3,170 3,170 3,170 3,170 3,170 3,169 3,169 4,166 4,166 4,165 4,165 4,165 5,165 5,166 6,166 7,166 10,166 10,167 12,167 12,167 13,167 13,167 14,167 15,167 16,167 16,167 16,167 17,167 17,167 17,167 18,167 18,167 19,167 22,167 22,167 22,167 23,167 23,167 23,167 23,166 23,166 24,166 24,166 25,166 25,166 25,166 25,166 26,166 26,166 27,166 27,166 27,166 27,166 27,165 27,164 27,164 25,164 25,164 23,165 23,165 23,165 25,161 26,159 27,158 28,157 28,157 29,157 29,157 29,157 29,156 29,156 30,155 30,155 26,149 26,149 26,149 29,147 29,147 31,147 32,147 34,145 36,144 36,144 34,142 34,142 33,142 30,137 29,135 28,134 28,133 27,132 25,131 25,131 24,131 24,130 23,129 23,129 22,129 21,128 20,128 18,128 17,128 17,128 16,127 15,127 15,127 15,127 15,127 16,125 17,124 18,123 18,123 18,123 20,122 22,121 22,121 23,120 23,120 23,120 23,119 24,119 26,119 28,118 31,118 31,117 32,117 32,117 33,116 33,116 34,116 34,116 35,116 36,116 37,116 37,116 37,116 38,116 38,116 38,115 39,115 39,114 39,114 39,114 39,114 43,115 43,115 43,115 46,116 46,115 46,115 48,114 48,114 49,113 49,113 50,113 50,113 50,113 50,112 50,111 50,110 50,109 51,102 51,102 52,95 53,89 55,81 56,78 56,78 56,78 56,77 56,76 56,75 56,75 56,75 58,71 59,71 59,70 59,70 60,68 61,67 61,67 61,66 61,66 61,65 60,64 60,64 60,64 60,63 60,63 60,63 60,61 60,61 60,61 60,60 60,57 60,57 60,56 61,56 62,55 62,55 62,54 60,54 59,54 57,53 55,53 51,53 50,52 49,52 49,52 48,52 48,52 47,52 45,50 43,49 43,49 42,48 41,47 41,47 39,45 39,45 39,44 39,44 38,43 38,42 38,42 38,42 37,40 37,40 37,39 37,39 37,38 38,36 38,36 38,36 38,36 37,35 37,34 36,34 36,33 36,33 36,31 36,30 36,29 36,28 36,27 37,26 37,24 37,23 36,23 36,23 36,23 36,23 36,23 36,23 36,22 36,21 36,19 36,19 37,18 37,18 37,18 37,18 38,17 39,16" id="4721" class="canton" fill="steelblue" stroke-width="1" stroke="white" geotype="canton" geoname="Villeneuve-sur-Lot-2" code_insee="4721" code_departement="47" nom_departement="Lot-et-Garonne" code_region="75" nom_region="Nouvelle-Aquitaine"/></svg>