<?xml version="1.0" encoding="utf-8"?>
<svg version="1.1" id="svgmap" xmlns="http://www.w3.org/2000/svg" xmlns:xlink="http://www.w3.org/1999/xlink" x="0px" y="0px" width="100%" height="100%" viewBox="0 0 500 395">
<polygon points="20,207 20,207 20,206 27,204 27,204 27,204 27,204 27,204 28,204 28,203 29,203 29,203 28,202 28,202 28,202 28,202 28,202 28,201 28,201 28,200 28,200 28,199 28,199 27,199 28,198 28,197 28,197 28,197 28,197 29,196 28,196 28,196 24,196 24,196 24,195 24,195 24,195 25,195 25,195 25,195 25,195 25,194 25,194 25,194 25,194 25,194 25,194 25,194 25,193 25,193 25,193 25,192 25,192 25,192 25,192 26,192 26,192 26,192 26,192 26,191 26,191 26,191 26,191 26,191 26,191 26,191 26,191 26,191 25,191 25,191 25,191 25,191 26,189 25,189 25,188 24,188 22,189 22,189 22,189 22,188 22,188 22,187 21,187 21,187 21,187 21,187 21,187 20,187 20,187 20,187 20,187 20,186 19,186 19,186 19,186 19,186 19,186 19,186 19,185 18,185 18,185 18,185 18,184 18,184 17,184 17,184 17,183 17,183 17,183 17,183 16,182 16,182 16,181 16,181 16,181 16,180 16,180 16,180 16,180 16,180 16,180 15,179 15,179 15,179 15,179 15,179 15,178 15,178 16,178 17,177 17,177 15,176 15,176 16,175 17,175 17,174 17,175 17,175 17,174 18,174 18,174 18,174 18,174 18,174 18,174 19,173 19,173 19,173 20,173 20,172 20,172 20,172 21,172 21,172 21,172 22,172 22,171 22,172 23,172 23,172 23,172 24,171 24,171 25,171 25,171 25,171 26,169 26,169 26,170 27,170 27,170 27,170 27,170 27,170 28,170 28,171 28,171 30,169 30,169 30,168 30,168 30,168 30,166 30,166 30,166 30,166 31,165 32,165 32,165 32,165 32,165 32,165 32,165 33,165 34,165 34,165 34,164 34,164 35,164 35,164 35,164 35,164 35,164 35,164 35,164 35,163 35,163 35,162 35,162 35,161 36,160 35,158 35,157 35,157 35,157 35,157 35,157 35,156 35,156 34,156 34,156 34,156 34,156 34,156 33,156 32,156 32,156 32,156 32,155 32,155 32,154 32,154 31,154 31,154 30,153 30,153 30,153 30,153 30,153 30,153 30,153 30,153 30,152 30,152 30,152 30,152 30,152 30,152 30,151 30,151 30,151 30,151 29,151 29,150 29,150 29,149 30,149 30,149 30,148 30,148 30,147 31,147 31,147 31,146 31,146 32,146 32,145 33,145 33,144 34,143 34,143 34,143 34,142 34,142 35,142 35,142 35,142 35,142 35,142 36,142 37,142 37,142 37,142 37,142 37,142 37,142 38,142 38,142 39,141 39,141 39,141 39,141 39,141 39,141 40,141 40,141 40,141 40,141 40,141 40,141 40,141 41,141 41,141 43,142 44,142 44,142 44,142 44,142 45,141 45,141 45,140 46,140 46,140 46,140 45,139 44,139 44,138 44,138 44,138 45,137 45,137 46,135 47,135 49,133 49,133 49,133 50,132 50,131 51,132 51,132 51,132 51,132 51,132 52,132 53,133 53,133 53,133 53,133 54,133 54,133 54,133 55,132 55,132 56,132 57,131 58,131 60,131 60,131 60,131 60,131 65,128 66,128 66,128 66,127 66,127 66,127 67,126 68,125 67,125 67,125 65,124 65,124 65,123 65,123 65,123 64,123 64,123 64,123 64,123 64,123 64,123 64,122 64,122 64,122 64,122 64,121 62,121 62,121 62,121 63,120 63,120 63,120 63,120 63,120 64,119 64,119 65,119 65,119 65,119 66,119 67,119 67,119 67,119 67,119 67,118 67,118 67,118 68,118 68,118 68,117 68,117 68,118 68,118 69,117 69,117 69,117 70,116 70,116 70,116 70,116 71,116 71,115 71,115 71,115 72,116 72,116 72,116 73,116 74,117 74,117 74,117 74,116 76,117 76,117 76,117 76,116 76,116 76,116 76,116 76,116 77,116 77,115 77,115 78,114 78,114 78,114 78,114 78,114 78,113 77,113 77,113 76,112 76,112 75,111 75,111 73,112 71,114 66,113 66,112 65,112 64,112 64,112 64,111 64,112 63,112 63,112 63,113 62,113 62,113 62,113 61,113 60,113 58,113 57,114 56,114 56,114 55,114 55,114 54,115 54,115 53,115 53,115 52,116 51,115 51,115 50,115 50,115 50,115 50,113 50,113 50,113 50,112 48,112 48,112 48,110 48,110 49,109 49,109 49,109 50,108 50,107 50,107 51,107 51,106 51,106 50,105 49,104 49,104 49,104 49,104 49,104 49,104 49,103 49,103 48,104 47,104 47,104 47,105 47,105 47,105 46,105 46,104 46,104 46,104 45,105 45,105 45,105 45,105 44,105 44,105 44,105 44,105 43,104 41,104 41,104 41,104 41,104 40,104 40,104 40,104 40,104 40,104 40,103 40,103 40,103 41,101 41,101 41,101 41,101 41,101 41,101 42,99 42,99 41,99 41,99 41,99 41,98 41,98 42,96 43,96 43,96 41,96 40,95 40,95 40,95 40,95 41,94 41,94 41,94 42,93 42,93 42,93 43,93 43,91 44,91 44,91 44,90 44,90 44,90 45,89 45,89 45,89 45,89 43,88 42,88 42,88 42,88 41,88 41,88 40,88 40,88 40,86 40,86 40,86 40,86 40,85 41,85 41,85 42,84 42,84 42,83 42,83 43,82 43,82 43,82 43,82 42,81 41,81 41,81 41,81 40,81 39,80 39,80 37,79 35,79 36,78 36,78 36,77 36,77 36,77 39,75 39,74 39,74 40,73 41,72 41,72 41,72 42,72 43,70 43,70 43,70 43,70 43,70 44,70 44,70 44,70 44,70 44,70 46,70 47,70 48,70 48,70 48,70 48,68 48,68 48,68 52,69 54,66 54,66 54,66 54,66 55,66 62,64 62,64 62,64 63,64 63,64 62,63 62,63 63,63 64,63 64,62 64,62 64,60 64,60 65,60 65,60 64,60 64,56 64,55 64,55 63,55 63,55 63,55 63,55 63,55 63,52 63,52 63,51 62,51 62,51 62,50 62,50 61,50 61,49 60,49 60,48 59,47 58,47 58,47 58,47 57,47 57,47 57,46 57,46 57,46 57,46 57,45 57,45 56,45 57,45 56,44 56,44 56,44 56,44 56,43 56,42 56,42 56,42 56,42 56,41 56,41 56,40 55,40 55,39 55,39 55,39 55,39 55,39 55,38 55,38 55,38 55,38 55,38 55,37 55,37 54,37 54,37 54,36 54,36 54,36 55,35 55,35 55,35 55,35 55,34 55,34 55,34 55,34 55,33 55,33 56,33 56,33 56,32 56,32 56,32 56,32 55,31 55,31 55,31 55,31 55,31 56,30 56,30 56,29 57,28 57,27 57,27 58,25 58,24 58,24 58,24 59,24 59,23 59,23 59,23 59,23 61,22 62,22 62,21 63,21 64,21 64,20 64,20 64,20 65,20 65,19 65,18 65,18 65,18 65,18 65,17 66,16 66,15 67,15 67,15 67,15 67,15 67,15 67,14 67,14 66,14 66,13 66,13 66,12 66,12 66,12 67,10 67,10 67,10 68,10 68,10 71,10 71,10 71,10 72,9 72,8 72,7 72,7 72,7 72,7 72,6 72,6 72,5 72,5 72,5 72,4 72,4 72,4 72,4 72,4 72,3 72,3 72,3 73,3 73,5 73,5 73,5 74,5 74,4 74,4 76,4 76,4 77,4 77,4 78,4 78,4 78,4 78,4 79,4 79,4 79,4 79,4 79,4 79,4 79,5 79,5 83,5 83,5 83,5 83,5 84,5 84,5 84,5 84,5 85,5 85,5 86,5 86,5 86,5 86,6 86,6 86,6 86,6 86,6 86,6 86,9 86,10 86,10 86,13 86,13 86,13 85,13 85,13 85,16 85,16 84,16 84,17 84,17 84,17 85,17 85,17 85,17 85,17 86,17 86,17 86,17 86,18 86,20 86,20 86,20 85,20 85,20 85,20 85,20 85,20 85,20 85,21 85,21 85,21 85,21 85,21 85,21 85,22 85,22 85,22 85,22 85,22 85,23 85,23 85,23 85,23 86,23 87,23 88,23 89,23 89,23 90,23 90,23 90,23 90,23 90,25 90,25 90,25 90,25 90,26 90,26 90,26 90,26 90,26 90,26 90,27 90,27 90,28 90,28 95,29 95,29 95,29 94,31 94,31 94,31 102,32 102,32 102,32 102,32 102,32 102,33 102,33 103,33 103,33 102,35 102,35 107,36 107,36 106,37 106,37 108,37 108,37 110,38 110,38 110,38 110,39 111,39 111,39 111,40 111,40 111,40 111,40 111,40 111,40 111,41 111,41 111,41 113,41 113,41 113,42 113,42 114,42 114,42 114,42 114,42 114,42 114,42 115,42 115,42 117,42 117,42 117,42 117,42 117,43 117,43 117,43 118,42 118,42 118,42 118,41 118,41 118,40 118,40 119,40 119,39 119,39 119,39 119,39 119,39 118,39 118,39 118,38 118,38 118,38 118,38 118,38 118,38 118,38 119,38 119,38 119,38 119,38 119,38 119,38 120,38 120,39 120,39 120,39 120,39 120,39 121,39 121,39 121,39 121,39 121,39 121,39 121,39 121,39 122,39 122,39 122,39 122,39 123,39 123,39 123,40 123,40 123,40 123,40 124,40 124,40 124,40 124,40 125,40 125,40 125,40 125,40 125,40 125,40 125,40 126,40 126,40 126,39 126,39 126,39 126,39 126,39 126,39 126,39 126,39 127,39 127,39 127,39 127,39 127,39 127,39 127,39 127,39 127,39 127,39 128,39 128,39 128,39 128,39 128,40 128,40 129,40 129,40 129,39 129,39 130,39 130,39 130,39 131,39 131,39 131,40 131,40 132,40 132,40 133,40 133,40 133,40 133,40 134,40 134,40 134,40 134,40 134,40 135,40 135,40 135,40 135,40 136,40 136,40 136,40 136,40 136,40 136,40 136,40 136,40 137,40 137,40 137,40 137,40 137,40 137,40 139,39 139,39 139,39 139,39 140,39 141,38 142,38 142,38 144,37 144,35 144,34 144,34 144,33 144,33 145,32 145,32 145,31 146,31 146,31 147,29 147,29 146,27 143,25 142,25 142,25 140,23 140,23 139,23 139,23 139,22 138,22 137,22 137,22 137,22 137,22 137,22 137,21 137,21 137,21 137,20 138,20 138,20 138,20 138,20 138,19 138,19 138,19 138,18 139,18 139,18 138,17 138,17 138,16 138,16 139,15 139,14 138,14 138,14 138,13 138,13 138,12 138,12 138,12 138,12 138,11 138,11 138,11 139,9 139,9 139,9 139,8 139,7 139,7 139,7 140,7 140,6 140,6 140,6 140,6 140,5 141,5 145,0 150,1 151,1 153,3 154,3 155,4 155,4 155,4 156,5 157,6 158,7 160,8 162,10 164,12 166,14 167,16 167,16 167,16 167,16 168,17 168,17 168,17 168,18 169,18 169,19 170,19 170,19 171,20 171,21 171,21 175,26 176,29 177,30 177,31 178,31 178,32 180,35 180,36 181,38 181,38 181,38 182,39 182,39 182,40 182,40 183,40 184,41 185,42 186,43 187,43 187,43 188,43 188,44 188,44 189,44 189,44 189,44 189,45 189,45 190,45 190,46 191,46 191,46 192,47 192,47 193,48 194,48 194,48 195,49 196,50 196,50 196,50 197,51 197,51 198,51 199,51 199,52 200,52 200,52 200,52 201,53 203,53 204,54 204,54 210,55 210,56 211,56 212,57 213,57 214,57 216,58 217,58 218,59 218,59 219,59 220,60 220,60 221,61 222,62 222,62 223,63 225,64 226,65 227,65 228,66 230,67 232,68 232,68 235,69 235,70 235,70 235,70 235,70 237,70 241,71 249,75 250,74 252,75 253,77 255,78 256,79 256,79 257,79 259,80 261,79 262,79 262,79 264,81 266,82 269,83 273,84 274,86 275,87 275,88 276,89 277,89 276,90 280,91 280,92 285,93 285,92 287,92 287,92 290,93 294,95 296,96 298,97 300,98 304,99 307,101 311,107 313,109 316,110 319,115 321,116 322,116 322,117 323,117 320,119 320,119 320,119 320,119 319,119 318,120 318,120 318,120 317,120 317,120 317,120 317,120 316,120 316,120 316,120 316,120 316,120 316,120 315,120 315,120 315,120 315,120 315,120 315,120 314,120 314,120 314,121 314,121 314,121 314,121 313,121 313,121 313,122 314,122 314,122 313,122 313,122 313,122 313,122 313,123 313,123 313,123 313,123 313,123 313,123 313,123 313,123 313,123 312,124 312,124 312,124 312,124 312,124 312,124 312,124 312,124 312,124 312,124 312,124 311,124 311,124 311,124 311,124 311,124 311,124 310,125 310,125 310,125 310,125 310,125 310,125 309,125 309,125 309,125 309,125 307,125 307,125 305,126 305,126 305,126 302,127 301,128 301,128 300,129 299,129 299,129 299,129 299,129 298,130 298,130 298,130 297,130 297,130 297,130 297,130 297,130 296,130 296,130 296,130 296,130 294,131 293,131 293,132 293,132 293,132 292,132 291,133 291,133 291,133 291,133 291,132 290,133 289,133 289,133 289,133 289,133 289,133 289,133 289,133 289,133 288,133 287,133 287,133 286,134 286,134 285,134 285,134 284,134 284,134 282,133 282,133 281,133 280,133 279,133 279,133 279,133 278,133 277,133 277,133 276,134 276,133 276,133 275,133 274,132 274,132 274,132 273,132 272,131 272,131 271,131 271,131 271,131 270,131 270,131 270,131 270,131 270,131 270,131 269,131 269,131 268,131 267,132 267,132 267,132 266,132 265,131 264,130 264,130 264,130 264,130 264,130 264,130 263,129 262,129 262,129 262,129 262,129 261,129 261,129 261,129 261,129 261,129 260,129 260,129 260,128 259,128 259,127 259,127 259,127 259,127 259,127 259,127 259,127 259,127 258,127 258,127 258,128 258,128 258,128 258,128 257,128 257,128 257,128 257,128 256,128 256,128 256,128 256,128 256,128 256,129 256,129 255,129 255,129 255,129 255,129 255,129 255,129 254,129 254,129 253,129 253,129 253,129 253,129 252,129 252,129 251,129 251,129 251,129 250,129 250,129 250,129 249,129 249,129 249,129 248,129 248,129 248,129 248,129 248,129 247,130 247,130 247,130 246,130 246,130 245,130 245,130 245,131 244,131 243,131 242,132 241,132 240,132 240,132 239,133 238,133 238,133 238,133 237,133 235,134 235,134 234,134 234,134 233,134 232,134 232,134 232,134 230,134 230,134 229,134 228,134 228,134 227,136 227,136 227,137 227,137 227,137 225,138 225,138 225,138 225,139 224,139 223,139 223,140 222,140 222,141 222,141 222,141 222,141 222,142 222,142 222,142 222,143 222,143 222,144 222,144 222,145 222,145 222,145 222,145 221,146 221,146 221,147 221,147 221,148 221,148 220,149 220,149 220,149 221,149 221,149 221,149 222,149 222,150 223,150 224,150 224,150 225,150 226,150 227,150 227,150 227,150 227,151 227,152 227,152 227,153 227,154 227,154 227,154 227,154 227,154 227,154 227,155 227,155 227,156 227,156 228,156 228,156 229,156 229,156 230,156 230,157 231,157 232,157 233,157 234,157 235,157 235,157 236,157 237,158 237,158 238,158 238,158 239,158 239,158 240,158 240,158 241,158 241,158 241,158 242,158 242,158 243,158 243,158 243,158 244,158 244,158 245,158 245,158 245,158 246,158 246,158 246,158 246,158 246,158 246,158 247,157 249,158 249,158 250,158 251,158 251,158 252,158 252,159 252,159 252,159 252,159 253,160 253,160 253,161 253,162 253,162 253,163 254,164 254,164 254,164 254,164 254,165 254,165 254,165 254,166 254,166 255,166 255,166 255,167 255,167 255,167 255,168 255,168 255,169 255,169 255,170 255,170 255,170 255,171 255,171 254,171 255,172 255,172 255,173 255,173 255,173 255,173 255,174 255,174 255,174 255,175 255,175 255,175 254,175 254,176 254,176 254,176 254,176 254,177 255,177 255,178 255,178 255,178 255,178 256,178 256,179 256,179 256,179 256,179 257,180 257,180 257,180 258,180 258,181 259,180 259,180 259,180 260,180 260,180 261,180 261,180 262,180 263,180 263,180 264,180 264,180 264,180 265,180 266,180 267,180 267,179 268,179 268,179 269,179 269,179 269,180 270,180 270,180 270,180 270,180 271,180 271,180 271,180 272,180 272,180 272,180 272,181 271,181 271,181 271,182 271,182 271,183 271,183 271,183 272,183 272,183 272,184 272,184 273,184 273,184 273,184 273,185 273,185 275,186 275,186 275,186 276,186 276,186 276,187 276,187 277,187 277,187 277,187 278,187 278,188 278,189 277,190 277,190 277,190 277,190 277,190 277,190 280,190 282,190 281,191 282,191 282,191 282,191 282,191 281,192 282,192 282,192 282,192 282,192 282,193 282,193 282,193 282,193 282,193 282,193 281,194 281,194 281,194 282,194 281,194 282,195 283,195 283,195 283,196 283,195 285,196 285,196 285,197 285,197 285,197 286,198 286,198 287,200 291,200 292,200 292,200 292,200 293,200 293,200 294,201 294,201 295,201 296,201 296,202 297,202 297,202 298,202 298,202 299,202 299,202 299,203 299,204 299,204 299,205 298,206 298,208 297,209 297,209 297,210 297,212 296,213 296,214 296,214 295,215 295,215 294,216 294,216 293,217 293,217 292,216 292,217 292,217 292,217 292,217 292,217 293,218 293,218 293,218 295,219 296,219 297,220 297,220 297,220 298,220 298,220 298,220 298,220 298,220 299,220 300,220 301,220 302,221 302,221 304,221 304,221 304,221 305,221 305,221 306,221 306,221 306,221 307,221 308,220 309,220 309,220 310,220 310,220 311,220 312,219 313,219 314,220 314,220 314,220 314,220 314,220 315,220 317,219 317,219 318,219 319,219 320,220 321,221 321,221 322,222 324,223 324,223 325,223 325,223 325,223 326,223 327,223 327,223 327,223 328,223 328,223 329,223 330,223 330,223 331,223 332,223 332,223 333,223 333,223 334,223 335,222 335,222 336,222 336,222 336,222 336,222 337,221 337,221 338,221 338,221 339,220 339,220 339,220 341,220 341,220 342,219 343,219 344,218 346,217 349,217 349,217 350,216 351,216 351,216 351,216 351,216 352,216 352,216 352,216 352,216 352,216 354,215 355,215 355,215 355,215 356,215 355,216 355,216 355,217 354,218 354,218 352,221 352,221 351,223 351,223 351,223 351,223 351,224 350,225 350,226 350,227 349,229 349,229 349,229 349,229 348,230 348,230 347,230 347,230 347,230 347,231 347,231 346,231 347,231 348,231 348,231 348,233 349,233 349,233 349,234 349,234 349,235 348,235 348,235 348,235 348,235 348,235 348,235 348,235 348,236 348,237 348,237 348,237 349,237 349,238 350,238 351,238 351,238 351,238 351,238 351,239 353,239 352,240 352,240 352,240 352,240 352,241 352,241 352,241 352,241 353,241 354,242 354,242 354,242 355,242 355,242 355,242 356,242 356,242 356,243 356,243 357,243 357,243 357,242 359,243 359,243 360,243 360,243 360,243 360,243 360,243 361,243 361,243 362,243 362,243 362,243 363,244 363,244 365,243 365,243 367,242 369,243 370,243 370,243 371,243 372,243 373,244 376,243 376,243 379,243 380,243 380,243 382,242 383,241 383,241 383,241 383,242 383,246 383,248 383,248 382,248 382,253 383,256 383,256 384,258 384,258 385,259 386,260 387,260 387,260 390,258 390,257 390,257 393,256 393,256 394,256 394,255 395,255 396,255 396,255 396,255 396,255 397,255 397,255 397,255 397,254 398,254 400,253 400,253 401,253 401,253 401,253 401,253 402,253 402,253 402,252 404,251 402,248 401,245 398,246 398,246 398,246 396,247 395,247 393,247 392,247 390,247 390,247 389,248 389,248 389,248 387,248 387,248 387,248 386,248 385,248 384,248 385,247 385,247 385,246 385,246 385,246 386,244 386,244 387,243 387,243 387,242 387,242 388,241 388,241 388,240 388,240 389,239 389,239 391,237 391,237 391,237 391,237 391,236 391,236 391,236 391,236 391,235 391,235 390,234 390,234 389,233 389,233 389,233 388,232 388,232 388,232 388,231 387,231 387,230 387,230 387,230 387,230 387,230 386,230 386,230 386,229 386,229 386,229 385,229 385,228 385,228 385,227 385,226 385,226 385,226 385,225 385,225 385,225 385,225 385,224 385,224 385,224 385,224 386,223 386,223 386,223 386,223 387,223 387,222 387,221 387,221 387,221 387,221 388,221 389,221 389,221 391,221 391,221 391,221 394,222 395,222 396,222 398,222 398,222 398,222 399,222 399,222 399,222 399,222 399,223 403,223 406,224 406,223 406,223 406,222 406,222 407,222 407,222 411,222 411,222 411,222 411,222 418,223 418,223 418,225 418,225 421,225 421,225 421,225 421,227 423,227 424,227 424,228 424,228 425,229 426,229 426,229 426,229 426,229 426,229 427,229 427,228 428,228 428,227 430,226 430,226 430,226 431,226 431,226 432,226 432,226 432,226 432,226 433,226 434,226 434,226 434,226 435,226 435,227 436,227 437,227 438,228 438,228 438,228 438,228 439,228 440,229 441,229 441,229 441,229 441,229 442,229 443,229 443,229 444,229 444,229 445,229 445,229 447,230 447,230 447,230 447,230 451,231 451,231 451,231 454,232 454,232 456,232 458,232 458,232 458,232 461,232 461,232 461,232 463,232 463,232 463,232 465,231 467,231 467,233 467,234 467,235 468,236 468,237 468,237 468,237 468,238 467,238 467,238 466,238 465,238 465,238 465,238 465,238 465,238 465,238 462,237 462,239 462,239 462,240 462,240 465,241 466,242 466,242 466,242 467,242 468,242 469,242 470,242 470,242 472,243 474,243 474,243 475,243 477,244 478,245 478,245 484,247 484,247 484,247 484,247 485,248 488,249 488,249 490,250 492,251 492,251 495,253 495,253 497,255 499,256 499,256 499,256 499,256 499,256 500,256 500,257 490,264 490,264 489,264 489,264 488,264 488,264 487,265 486,266 486,266 482,267 482,267 482,268 477,270 476,270 476,270 473,272 472,272 472,273 471,274 468,276 467,277 466,278 463,281 463,281 460,285 458,287 457,288 457,288 457,288 457,288 457,289 457,289 457,289 457,289 456,289 456,290 455,291 454,292 454,293 453,293 453,294 453,294 452,294 452,295 452,295 452,295 452,295 452,295 452,295 452,295 452,295 451,297 451,297 451,297 451,297 451,297 450,297 449,299 449,300 448,301 447,301 445,305 444,305 444,305 444,306 444,306 443,306 443,307 443,307 443,308 442,309 442,309 441,310 441,310 441,310 441,310 441,310 441,310 441,310 441,311 440,311 440,311 440,312 440,312 440,312 439,312 439,312 439,312 439,313 438,314 437,314 437,315 437,315 437,315 437,315 437,315 437,315 437,319 437,319 437,320 437,320 437,320 437,320 437,320 437,320 437,320 437,320 437,320 438,320 438,320 438,320 439,320 439,320 438,321 438,322 438,322 437,322 437,322 437,322 437,323 436,324 436,324 434,325 433,326 433,326 433,326 434,326 433,326 433,326 432,327 432,327 431,328 431,328 432,328 432,329 432,329 432,329 432,329 433,329 433,329 433,330 433,330 433,330 433,330 433,330 433,330 433,331 433,331 434,331 434,331 434,331 434,332 434,332 434,332 434,332 435,332 434,333 434,334 434,334 434,334 435,334 436,334 436,334 436,335 437,335 438,335 440,335 440,335 444,336 445,336 447,336 447,336 447,336 447,336 447,336 448,336 448,336 448,336 448,337 448,337 448,337 448,338 448,338 448,338 448,339 447,340 448,340 447,340 447,340 447,341 447,342 447,342 447,342 447,342 447,343 447,343 446,344 446,345 446,345 446,346 446,346 446,346 446,346 446,346 445,348 445,348 445,348 442,352 442,352 442,353 441,353 441,353 441,353 440,354 440,354 440,354 440,354 440,354 440,355 439,355 439,355 439,355 439,356 439,356 439,357 439,357 438,357 438,358 438,358 438,358 438,358 438,358 438,359 436,359 433,358 431,358 432,356 433,355 433,355 433,355 433,355 432,354 432,353 432,353 432,352 432,352 431,351 431,351 431,351 431,350 430,350 429,350 428,351 424,350 424,350 422,350 422,350 419,350 419,350 413,349 413,349 410,349 401,351 401,351 399,350 399,350 399,350 399,350 399,349 399,349 399,348 399,348 400,347 400,346 400,346 400,346 401,345 401,345 401,344 401,344 401,344 401,344 400,344 400,344 399,344 398,344 397,344 396,344 396,344 396,344 395,344 395,344 395,344 394,344 394,344 394,344 394,344 394,344 393,344 392,344 391,344 391,344 390,344 389,344 389,344 387,344 387,344 385,344 384,344 383,344 382,343 382,343 382,343 381,342 380,342 380,342 380,343 379,343 379,343 378,344 377,345 377,345 377,345 377,345 377,345 376,346 376,346 376,346 375,346 375,346 375,346 375,346 374,346 373,347 372,347 372,347 372,347 372,347 372,347 372,348 372,348 371,348 371,348 371,348 371,348 371,348 370,348 370,348 369,351 367,352 367,352 365,355 365,356 365,357 365,357 364,357 364,358 363,359 363,359 363,359 363,360 363,360 363,360 363,361 363,361 363,361 363,361 363,361 363,362 363,362 363,362 363,362 363,363 363,363 363,363 363,363 364,364 364,364 364,364 364,364 364,365 364,365 364,365 364,365 364,366 364,366 364,366 364,367 364,367 364,367 364,367 364,368 364,368 364,368 364,368 364,368 364,368 364,368 364,369 363,369 363,369 362,369 361,369 361,369 361,369 361,370 360,370 360,370 360,370 360,371 360,371 360,372 361,372 361,372 361,372 361,373 361,373 361,373 361,373 361,373 361,374 362,374 362,374 362,374 362,375 362,375 362,375 362,375 360,376 360,376 359,376 358,376 358,376 359,378 359,378 360,379 360,380 360,380 360,381 361,381 361,381 361,382 362,383 362,383 360,384 359,384 359,384 357,385 357,385 357,385 356,385 355,385 355,385 354,386 354,386 354,386 354,386 354,386 353,386 353,386 352,387 352,387 352,387 351,387 351,387 350,387 349,387 349,387 349,387 348,387 348,387 347,388 346,388 346,388 346,388 345,388 344,388 344,389 343,389 343,389 343,389 343,389 343,389 343,389 341,390 341,391 341,391 340,392 340,392 339,393 339,393 339,393 339,393 339,393 338,393 338,394 338,394 336,394 335,394 334,394 334,394 332,395 332,395 331,395 330,395 328,394 328,394 328,394 328,394 327,394 327,394 326,394 325,394 324,393 324,393 322,393 322,393 322,393 322,392 323,392 323,391 323,391 324,390 323,390 322,389 321,389 321,388 320,388 320,388 320,388 321,387 321,387 321,387 321,387 321,387 322,386 322,386 322,386 322,385 322,385 322,384 322,384 322,384 321,384 321,384 320,383 320,383 320,383 319,382 319,382 319,382 319,382 317,381 317,381 317,381 317,381 316,381 316,380 315,380 314,380 314,379 313,379 313,379 313,379 312,380 312,380 311,379 311,379 310,379 310,379 310,379 310,378 310,378 310,378 307,377 307,377 306,378 306,378 305,378 305,378 304,378 304,378 303,377 303,377 302,377 302,377 301,377 300,378 300,378 300,378 300,378 299,378 298,378 296,379 296,380 295,380 295,380 293,382 292,381 292,382 292,382 291,382 291,383 291,383 291,383 291,383 290,383 290,383 289,384 288,383 287,383 286,382 286,382 282,381 282,381 281,381 280,381 280,381 279,380 279,380 277,379 277,379 276,379 274,377 274,377 275,377 276,376 276,376 277,375 277,375 278,374 279,374 279,373 280,373 279,373 279,373 281,371 281,371 283,370 283,370 284,369 284,369 284,369 285,368 285,367 286,366 286,366 286,366 290,363 290,363 290,363 291,362 292,362 292,361 292,361 295,361 295,360 295,360 295,360 295,360 296,359 297,359 297,359 298,359 298,359 298,359 299,358 299,359 299,359 299,359 303,357 303,357 303,357 306,356 308,355 312,353 312,353 312,353 314,350 314,350 314,350 314,349 315,349 315,349 315,348 315,348 316,347 316,347 316,347 316,347 318,346 318,346 318,345 317,344 317,344 317,343 317,342 317,342 317,339 317,339 317,339 316,339 316,339 315,339 314,339 313,339 313,339 312,339 312,339 311,340 309,341 309,341 309,341 309,341 309,341 308,341 307,342 306,342 306,342 306,342 306,342 306,342 305,342 305,342 305,342 304,342 304,342 303,342 303,342 303,342 302,342 301,342 300,341 299,341 299,341 299,341 299,341 298,341 298,341 297,341 297,341 297,340 297,340 296,340 296,340 296,340 296,340 295,340 294,339 293,339 292,339 291,339 289,339 288,339 287,339 287,339 284,338 283,338 282,337 282,337 280,337 280,337 279,337 279,337 279,337 279,337 279,337 279,336 278,336 278,336 278,336 277,335 277,335 276,335 275,335 275,335 275,335 275,334 275,334 274,334 273,334 273,334 273,334 272,334 272,334 272,334 270,334 270,334 269,334 268,334 267,334 267,334 267,334 267,335 267,335 267,336 267,336 266,336 265,336 265,336 264,336 264,337 264,337 264,338 265,339 265,339 266,340 266,341 265,342 263,342 263,343 262,343 262,344 260,344 259,345 258,345 254,346 253,346 253,346 252,346 252,346 251,346 250,346 250,346 250,347 249,347 249,347 248,347 247,348 247,348 247,348 247,349 246,349 246,350 246,350 246,350 245,350 244,350 244,351 243,351 243,351 243,351 242,351 242,350 241,350 241,350 241,350 241,350 241,350 241,350 241,349 242,349 242,349 242,349 242,349 241,349 241,348 241,348 240,348 240,348 241,348 241,348 240,347 240,348 239,348 239,348 239,348 239,347 238,347 238,347 238,347 238,347 238,347 237,347 237,347 237,347 237,347 237,347 237,347 236,347 236,347 236,347 236,347 236,347 236,347 236,347 235,347 235,347 235,347 235,347 234,347 234,347 233,347 233,347 233,347 233,346 233,346 232,346 232,346 232,346 232,345 232,345 232,345 231,345 231,345 231,345 230,345 230,345 230,345 230,345 229,345 229,345 228,345 228,345 228,345 226,344 226,344 225,344 225,343 225,344 225,344 225,344 225,344 224,343 224,343 224,343 223,343 222,343 220,344 218,344 218,344 216,343 216,343 216,343 216,342 215,342 215,342 214,341 214,341 213,341 213,341 213,341 212,340 212,340 212,340 212,340 211,339 211,339 210,339 209,338 208,338 208,338 208,339 208,339 207,338 207,338 207,338 206,338 205,338 204,337 204,337 203,337 203,337 203,337 203,337 202,337 202,337 202,337 202,337 202,337 201,337 201,337 200,337 200,337 198,337 197,337 196,337 196,337 195,338 194,338 193,339 192,339 192,340 191,340 191,340 191,340 190,341 189,341 189,341 188,342 187,342 187,342 187,343 186,343 186,343 186,343 185,343 185,343 184,343 184,343 184,343 184,343 182,343 182,343 182,343 181,343 180,343 180,344 179,344 179,344 179,344 177,344 177,344 177,343 177,342 177,341 177,341 177,341 178,341 178,341 178,340 178,340 177,340 177,339 177,338 177,338 178,337 178,337 178,337 176,337 174,337 175,338 175,339 175,339 175,339 173,339 173,339 173,339 173,339 173,341 172,341 172,341 172,341 171,342 171,342 171,342 169,342 164,343 163,343 163,343 161,342 161,342 160,343 158,343 158,343 158,343 158,343 157,343 157,343 157,344 157,344 157,344 157,344 156,342 156,342 156,341 156,341 156,340 155,340 155,340 155,340 155,340 155,339 155,339 154,340 154,340 153,340 152,341 151,341 150,341 150,341 148,342 147,342 147,342 146,342 146,342 145,342 145,342 143,343 142,343 141,343 142,343 141,343 140,343 139,344 138,344 137,344 134,344 133,345 132,345 131,345 131,345 130,346 130,346 129,346 129,346 129,347 129,347 128,347 128,347 128,348 128,348 127,348 127,348 127,348 126,348 126,348 126,348 126,348 126,349 126,349 125,350 125,350 125,350 124,351 124,351 123,351 123,352 122,352 121,352 121,352 121,352 121,352 121,352 121,352 121,350 121,350 121,349 121,345 122,345 122,343 122,343 122,343 122,343 122,342 122,342 122,342 122,341 123,340 123,340 123,339 123,339 123,339 123,339 123,338 122,338 122,338 122,338 122,338 122,338 122,338 121,338 121,338 120,338 119,338 119,338 119,338 119,338 117,337 117,337 117,337 118,336 118,336 118,335 117,335 116,334 116,334 116,334 115,335 115,335 115,335 114,334 114,334 114,334 113,334 111,334 111,334 111,334 110,334 110,334 110,334 110,333 110,333 110,333 110,331 110,331 110,331 110,330 110,330 110,330 110,329 110,329 110,328 110,328 110,327 110,327 110,327 109,327 109,326 109,326 109,326 108,325 108,325 108,324 108,324 108,324 109,323 109,323 109,322 109,322 109,322 110,321 110,321 110,321 110,321 111,319 111,319 111,319 111,319 111,319 110,319 110,318 107,317 106,317 106,317 106,318 106,318 104,318 104,318 103,318 103,318 102,317 102,317 102,317 101,317 101,316 102,316 102,315 102,315 102,314 102,314 102,314 102,314 101,313 100,314 100,314 98,314 98,314 98,314 97,314 96,314 95,314 95,314 95,314 93,313 92,314 92,315 91,314 91,314 91,313 90,313 90,312 89,312 88,311 87,311 87,311 87,311 87,310 88,310 88,310 89,310 89,310 89,309 90,309 90,309 91,309 91,309 91,309 92,308 92,308 92,308 93,308 93,308 93,308 93,308 94,308 94,308 94,308 95,308 96,308 96,308 96,308 96,308 97,308 97,308 97,308 97,308 97,308 98,308 98,307 98,307 97,307 97,307 97,307 96,306 96,306 96,306 96,306 96,306 96,306 96,306 97,306 97,306 97,306 97,305 97,305 97,305 92,303 91,303 90,303 89,304 87,304 85,303 85,303 85,303 84,303 83,303 81,302 81,302 81,302 81,302 81,302 81,302 80,302 80,302 80,302 80,302 79,301 79,301 79,301 78,301 78,301 78,301 78,300 77,300 77,299 77,299 76,298 76,298 76,298 76,298 76,298 76,297 76,297 75,297 75,297 75,297 75,297 75,297 75,296 75,296 74,296 74,296 75,296 75,296 75,296 75,296 75,295 76,295 76,295 76,294 76,294 76,294 76,294 77,294 77,294 77,294 77,294 77,293 77,293 78,293 78,293 78,293 78,292 79,292 79,292 79,292 79,292 79,292 79,292 79,292 79,292 79,292 79,292 80,292 81,291 80,291 81,291 80,290 79,290 79,290 78,290 78,290 78,290 78,288 78,288 77,287 76,286 76,286 76,285 76,284 76,284 77,284 75,283 75,283 74,284 74,284 74,285 74,285 74,285 73,286 72,286 72,287 72,287 72,287 72,287 72,287 72,287 72,287 70,287 69,286 69,286 69,286 69,286 68,286 68,286 68,286 67,286 67,285 66,285 66,285 65,285 65,285 64,285 63,285 63,285 62,285 60,285 60,285 60,285 59,285 59,285 59,285 56,283 56,282 56,283 55,283 55,283 55,283 55,283 55,283 54,283 54,283 54,283 54,283 53,283 53,283 53,283 53,283 52,283 52,283 51,283 51,283 51,283 51,283 50,283 50,284 50,284 50,284 50,284 50,284 50,284 49,284 49,284 49,284 49,284 48,284 48,284 48,283 47,283 47,283 47,282 46,282 46,282 46,282 46,282 45,282 45,282 44,281 43,281 43,281 43,281 43,281 43,281 42,281 41,280 41,280 40,279 40,279 40,279 39,279 39,279 39,279 39,279 39,279 38,278 36,278 36,278 35,278 35,278 34,278 34,277 32,277 31,277 29,276 29,276 29,276 28,275 28,275 28,275 27,275 26,275 26,275 25,275 25,275 24,275 24,275 24,275 23,275 22,275 22,275 22,275 22,275 22,276 22,276 22,276 21,277 21,278 21,278 21,279 21,279 21,279 20,279 20,278 20,278 19,278 17,277 17,277 17,277 17,276 17,276 17,276 16,275 16,275 15,275 15,275 15,275 15,275 15,275 14,275 14,275 13,275 13,275 11,276 11,276 10,276 10,276 10,276 10,276 10,275 10,275 10,275 11,274 11,274 11,274 11,274 12,273 12,273 12,273 13,272 13,272 14,271 14,271 14,270 15,270 15,270 15,270 15,270 16,270 16,269 16,269 17,269 17,268 17,268 17,268 18,268 19,267 19,267 19,267 20,266 20,266 21,266 21,266 22,265 22,265 22,265 22,265 23,264 23,264 23,264 24,264 26,263 26,263 28,262 28,262 28,262 28,262 29,261 30,260 31,259 31,259 32,259 32,259 32,258 33,257 33,257 33,257 33,256 32,256 32,256 32,256 31,256 31,256 31,256 31,256 31,256 30,256 30,257 30,257 27,256 27,256 27,256 26,257 26,257 25,258 25,258 25,258 25,258 24,258 24,258 24,257 24,257 24,257 24,257 24,257 24,257 23,256 23,256 22,255 22,255 22,255 22,255 21,255 21,255 21,255 20,255 19,255 19,255 19,255 18,255 18,255 17,254 17,254 17,254 14,253 14,253 14,253 12,252 11,253 11,253 11,253 9,252 9,252 8,252 8,252 8,252 7,252 6,252 6,252 6,251 6,251 6,251 6,251 6,251 6,251 6,251 6,251 6,251 6,250 8,248 8,248 7,246 7,246 7,246 7,246 7,246 7,245 7,245 7,245 7,245 7,244 7,244 7,243 7,243 6,243 6,243 6,243 6,243 6,243 6,243 6,243 6,242 6,242 5,242 5,241 5,241 5,240 5,240 5,240 4,240 4,240 4,239 4,239 1,239 1,239 1,239 0,237 0,237 0,234 0,234 0,233 1,232 1,232 1,232 7,229 7,229 7,227 7,227 8,226 8,226 9,225 10,224 10,224 8,223 8,223 8,223 8,223 8,223 8,223 8,223 8,223 8,222 8,222 8,222 9,221 9,221 9,221 10,221 10,221 10,221 11,221 11,221 11,221 12,221 12,221 12,221 15,217 16,217 17,213 17,213 19,212 19,211 20,209 20,209 20,209 20,209 20,208 20,207 20,207 20,207" id="4914" class="canton" fill="steelblue" stroke-width="1" stroke="white" geotype="canton" geoname="Doué-la-Fontaine" code_insee="4914" code_departement="49" nom_departement="Maine-et-Loire" code_region="52" nom_region="Pays de la Loire"/></svg>