<?xml version="1.0" encoding="utf-8"?>
<svg version="1.1" id="svgmap" xmlns="http://www.w3.org/2000/svg" xmlns:xlink="http://www.w3.org/1999/xlink" x="0px" y="0px" width="100%" height="100%" viewBox="0 0 500 339">
<polygon points="0,88 1,88 1,87 2,87 3,87 5,86 5,86 8,85 9,85 12,84 13,84 14,84 21,82 22,81 23,81 28,79 28,79 29,79 30,79 31,79 32,78 33,78 38,77 38,77 38,76 38,76 39,76 39,76 39,76 39,76 40,76 40,76 41,76 41,76 41,76 41,76 42,76 43,75 44,75 46,75 46,75 46,75 47,74 47,74 47,74 48,74 48,74 49,74 49,75 49,75 50,75 51,75 51,75 51,75 51,75 51,75 52,75 52,75 53,75 53,75 53,75 53,75 53,75 53,75 54,75 54,75 54,74 55,74 55,74 55,74 55,74 56,74 56,75 56,75 57,75 57,75 57,75 58,75 58,75 58,74 59,74 59,74 59,74 58,74 58,73 58,73 54,73 53,73 53,72 52,72 51,72 52,71 52,71 52,70 52,70 52,69 52,69 51,69 51,69 51,69 50,69 50,69 49,68 49,68 50,68 49,67 49,67 49,67 49,67 49,67 49,67 48,67 48,67 50,65 50,65 50,65 50,65 50,65 50,64 49,64 49,64 48,64 48,64 48,64 47,64 46,64 45,64 45,64 45,64 46,63 46,62 47,62 47,61 47,60 47,60 47,60 47,60 47,60 47,59 47,59 47,58 47,58 47,57 47,57 47,57 47,57 48,57 48,57 48,57 48,55 48,55 48,55 49,55 50,55 50,55 51,55 51,55 51,55 52,55 53,55 53,55 54,55 54,55 54,55 55,55 55,55 55,55 55,56 55,56 57,55 57,55 59,55 59,55 59,55 59,55 60,56 61,57 61,57 61,57 61,57 61,57 61,57 61,57 62,58 62,58 63,59 63,59 63,59 64,59 64,59 64,59 64,59 65,59 65,59 66,59 66,59 67,59 67,58 67,58 68,58 69,58 69,58 69,58 69,58 70,58 71,58 72,58 72,58 73,58 74,59 76,59 76,59 76,59 77,59 77,59 77,59 77,59 77,58 77,57 78,56 78,56 78,55 78,55 78,55 78,55 79,55 79,55 79,55 80,55 80,55 81,54 81,54 82,54 83,54 83,54 83,54 83,54 84,54 85,53 86,53 86,53 87,52 88,52 88,52 88,52 88,52 87,51 87,51 86,51 85,50 85,50 85,50 85,50 84,49 84,49 84,49 84,50 83,50 83,51 83,50 82,50 81,48 81,48 81,48 81,48 81,48 80,48 80,48 80,48 80,49 80,49 79,49 78,49 77,49 76,49 75,49 75,49 74,49 74,49 74,49 72,49 72,49 70,49 70,49 70,49 70,49 70,49 70,49 70,49 69,50 69,50 68,50 68,50 68,50 68,50 68,50 68,49 68,49 67,49 67,49 64,49 64,49 64,49 64,48 63,48 63,48 64,47 64,47 64,47 64,46 64,46 64,46 64,46 64,46 64,46 64,46 65,46 65,45 65,45 66,45 66,45 66,45 66,45 67,45 68,44 68,44 68,44 68,44 68,44 69,44 69,44 69,44 69,44 69,44 69,43 69,43 69,43 69,43 69,43 69,43 69,43 69,43 69,43 69,43 69,43 69,43 69,43 69,42 69,42 69,42 70,42 70,42 70,42 70,42 70,42 70,42 71,42 71,42 71,42 71,42 71,42 71,42 71,42 71,42 71,42 71,42 71,42 71,42 72,42 72,42 72,42 73,41 73,41 73,41 72,41 71,40 71,40 71,40 70,40 70,40 70,39 67,38 66,37 65,37 65,37 65,37 65,37 65,37 65,37 64,36 64,36 64,36 65,36 65,36 65,36 65,36 65,36 65,36 65,36 65,36 65,35 66,35 66,35 67,34 67,34 68,34 68,34 69,34 69,34 69,34 70,34 70,34 70,34 71,33 71,33 71,33 72,32 72,32 73,32 74,32 74,32 74,31 75,31 75,31 75,31 75,30 75,29 75,29 76,28 76,28 76,28 76,27 76,27 76,27 77,26 77,26 77,26 78,25 78,25 78,24 78,24 78,24 78,24 78,23 78,23 77,23 77,23 77,22 77,22 77,21 77,21 77,21 77,21 77,21 77,21 76,21 76,21 76,21 76,21 76,21 76,21 75,21 75,21 74,22 74,22 74,21 73,21 72,20 72,20 71,20 71,20 71,19 71,19 71,19 71,18 71,18 71,18 71,18 71,18 70,18 70,18 70,18 70,18 70,18 69,18 69,17 70,17 71,17 71,17 71,17 71,17 71,17 71,17 71,17 71,17 71,17 70,16 70,16 69,15 69,15 69,15 69,15 71,14 71,14 71,14 71,14 71,14 72,13 72,13 72,13 71,13 71,13 71,13 71,13 71,13 71,13 70,12 70,12 70,12 70,12 70,12 70,12 70,12 70,12 70,12 70,12 71,11 71,11 71,10 72,10 72,11 73,11 73,11 73,11 74,11 74,12 74,12 75,12 75,12 75,11 75,11 76,12 76,12 76,12 76,12 76,12 76,12 77,12 77,12 77,12 77,12 76,13 76,13 76,13 76,13 77,13 77,13 77,13 77,13 77,13 78,14 78,14 78,14 78,14 79,14 79,14 79,14 80,15 80,15 81,15 82,15 82,15 82,14 83,14 83,13 83,13 83,13 83,12 83,12 85,11 86,10 87,9 87,9 87,9 88,9 88,9 88,9 89,9 89,9 90,9 91,9 91,9 91,9 91,9 91,9 91,9 91,9 91,9 91,9 92,10 92,10 92,10 92,10 92,10 92,10 92,11 93,11 93,11 93,11 93,11 93,12 93,12 93,12 94,12 94,12 94,12 95,12 95,12 95,12 95,13 95,13 95,13 95,13 95,13 95,13 95,13 95,13 95,13 95,13 95,13 96,13 96,13 96,14 96,14 96,14 96,14 96,14 97,14 97,14 97,15 97,15 97,15 98,15 98,16 98,16 98,17 98,17 98,17 98,17 98,17 98,17 98,17 99,17 99,17 99,17 99,17 99,17 99,17 99,17 99,17 99,17 99,17 99,18 99,18 99,18 99,18 99,18 99,18 99,18 99,18 99,18 99,18 99,18 99,18 100,18 100,18 99,19 99,19 99,19 100,19 100,19 100,19 100,19 100,19 100,19 100,19 100,19 100,19 100,19 100,19 100,19 100,20 100,20 100,20 100,20 100,20 100,20 100,20 100,21 100,21 100,21 100,21 100,21 100,21 101,20 101,20 101,20 101,20 101,20 102,20 102,19 103,19 103,19 103,19 103,19 104,19 104,19 104,19 104,19 104,19 105,18 105,18 105,18 105,18 105,18 105,18 105,18 105,18 105,18 106,18 106,18 106,18 106,17 106,18 107,18 107,19 108,19 108,19 108,20 108,20 108,20 109,20 109,20 109,21 110,21 110,21 110,21 110,21 112,23 112,23 113,23 113,23 113,23 113,23 113,23 113,23 114,24 114,24 114,25 115,25 115,25 116,25 116,25 117,25 117,25 117,25 117,25 117,25 117,25 118,25 119,25 119,25 120,25 120,25 121,24 121,24 121,24 121,24 121,24 122,24 122,24 122,24 122,24 122,24 123,24 123,24 123,24 124,23 124,23 124,23 124,23 125,23 125,23 125,23 125,23 125,23 126,22 127,22 127,22 127,22 127,22 128,22 129,22 129,22 129,22 130,22 133,22 133,22 133,22 134,22 134,21 134,21 135,21 135,21 135,21 136,21 136,21 136,21 137,21 137,21 137,21 137,21 137,22 137,22 137,22 136,22 136,22 136,22 135,23 135,23 135,23 135,23 134,24 134,24 133,24 132,25 131,25 129,26 129,26 129,26 130,27 132,28 132,29 133,29 133,29 133,29 133,30 133,30 133,30 133,31 134,31 134,31 134,32 134,32 133,33 133,33 133,33 133,34 133,34 133,34 133,35 133,35 134,35 134,36 134,36 134,36 134,36 134,36 134,37 134,37 134,37 134,37 135,37 136,38 136,39 136,39 136,39 137,38 137,38 137,38 137,38 137,38 137,38 137,38 138,38 138,38 138,38 138,38 138,38 138,38 138,38 138,38 138,38 139,38 140,38 140,38 140,38 140,37 140,37 140,37 140,38 140,38 140,38 140,37 140,37 140,37 141,37 141,37 141,37 141,37 141,36 141,36 141,36 142,36 142,36 142,36 142,36 142,36 143,35 143,35 143,35 143,35 143,35 144,35 144,35 144,35 144,34 145,34 145,34 145,34 145,34 146,34 146,34 146,34 146,34 146,34 147,34 147,34 147,33 147,33 148,33 149,33 149,33 149,33 150,33 150,33 150,33 150,33 150,32 152,32 152,32 152,31 154,30 154,30 155,30 155,30 155,30 155,30 155,30 155,30 155,30 155,30 156,30 156,30 156,30 156,30 157,30 159,29 159,29 159,29 159,29 159,29 160,29 160,29 160,29 161,28 161,28 161,28 161,28 161,28 161,28 162,28 162,29 163,28 164,28 164,28 164,29 164,29 164,29 167,30 168,31 168,31 168,31 168,31 168,31 168,31 168,32 169,32 171,32 171,33 172,33 172,33 173,33 173,33 173,33 174,33 175,33 176,33 177,33 178,33 179,33 179,33 179,32 179,32 179,31 179,31 179,30 179,29 178,28 178,27 178,27 179,27 179,27 180,27 180,27 181,27 181,27 182,27 183,27 184,26 184,26 184,26 185,27 185,27 185,27 186,27 186,27 187,27 187,27 188,27 189,26 189,26 189,27 190,27 190,27 190,27 190,27 190,27 191,27 191,27 191,27 191,27 191,27 192,27 192,27 192,27 192,27 193,28 193,28 193,28 193,28 193,28 193,28 194,28 194,28 194,28 195,28 196,28 197,28 197,28 197,28 197,28 197,28 198,28 198,29 198,29 198,29 198,29 198,29 198,29 198,29 198,30 197,31 197,31 197,31 197,32 197,33 197,33 197,33 197,33 197,33 196,33 196,33 196,34 196,35 196,35 196,35 197,35 197,35 197,36 197,36 197,36 197,36 198,36 199,36 200,35 200,35 200,35 200,35 201,35 201,35 201,35 201,35 202,35 202,34 202,34 202,34 202,34 203,34 203,34 203,34 203,34 204,34 204,34 205,34 206,33 206,33 206,33 207,33 207,33 207,34 207,34 207,34 207,34 207,34 207,34 208,34 208,34 208,34 209,34 209,34 210,34 210,33 212,33 212,33 213,33 214,33 215,32 215,32 215,32 215,32 216,33 216,33 216,33 216,33 216,33 216,33 216,33 216,33 217,33 217,33 218,33 219,33 220,33 221,33 222,32 223,32 224,32 225,32 225,32 225,31 225,31 225,31 225,31 225,31 225,31 224,30 224,30 224,30 224,30 226,30 226,30 227,30 227,29 228,29 228,29 229,29 230,29 230,29 244,28 244,28 244,28 244,28 244,28 244,28 244,27 244,27 244,26 244,26 245,26 245,26 245,26 245,26 245,26 246,25 246,25 246,25 247,25 248,25 248,25 248,25 248,25 249,25 250,25 250,25 250,25 251,24 251,24 252,24 252,24 253,23 253,23 253,23 255,23 256,23 259,23 261,23 261,23 262,23 263,23 263,23 263,23 263,23 264,23 269,21 269,21 269,21 269,21 269,21 269,21 270,21 271,22 271,22 271,22 272,23 272,23 272,23 274,24 274,24 274,24 275,24 275,25 275,25 275,25 276,25 276,25 276,25 276,25 276,25 276,25 276,25 276,25 276,25 277,25 278,25 278,25 278,25 278,25 279,25 279,25 279,25 280,25 280,26 280,26 280,26 280,26 280,26 280,26 281,26 281,26 281,25 282,25 282,25 283,25 283,25 283,25 283,25 283,25 283,26 283,26 283,26 283,26 283,25 284,25 284,25 284,25 284,25 284,25 284,25 284,25 285,25 285,25 285,25 285,25 284,25 284,25 284,25 284,24 284,24 284,24 285,24 285,24 285,24 285,24 285,24 286,24 286,24 286,24 286,24 286,24 286,24 287,24 287,25 287,25 287,25 287,25 287,25 287,25 287,25 288,25 288,25 288,25 288,25 288,25 288,25 288,25 288,25 289,25 290,25 290,25 290,25 290,25 290,25 290,25 291,25 291,25 291,24 292,24 292,24 292,24 292,24 292,24 293,24 293,24 293,24 293,24 294,24 294,24 295,23 295,23 295,23 295,23 296,23 296,22 296,22 296,22 297,21 297,21 297,21 298,21 298,21 298,21 298,21 298,20 298,20 298,20 298,20 298,20 298,20 298,20 298,20 299,20 299,20 299,20 299,20 299,20 299,20 299,20 299,20 299,20 300,20 300,20 300,20 300,20 300,19 299,19 299,19 299,19 299,19 299,19 299,19 299,19 300,19 300,19 300,19 301,18 301,18 301,18 301,17 302,17 302,17 302,17 302,17 302,17 302,17 303,17 303,17 303,17 303,16 303,16 302,16 302,16 302,16 302,16 302,16 302,16 302,16 302,16 302,16 303,16 303,16 303,16 303,16 303,16 303,16 303,16 303,15 304,15 304,15 304,16 304,16 304,16 305,15 305,15 305,15 305,15 305,15 305,15 305,15 305,15 305,15 305,15 305,16 305,16 305,16 305,16 306,16 306,16 306,16 306,16 306,16 307,16 307,16 307,15 307,15 307,15 307,15 307,15 307,15 308,15 308,15 308,15 308,15 308,15 308,15 308,15 309,15 309,15 309,15 309,14 310,14 310,14 310,14 310,13 309,13 309,13 309,13 309,13 310,13 311,13 311,13 311,13 311,12 312,12 312,12 312,12 312,12 312,12 312,11 312,11 312,11 312,12 313,12 313,11 313,11 313,11 313,11 313,11 314,11 314,11 315,11 315,11 316,11 316,11 316,11 317,11 318,11 318,11 318,11 318,11 318,11 318,11 318,10 318,10 318,10 318,10 319,10 319,10 319,10 319,9 320,9 320,9 320,9 321,9 321,8 321,8 322,8 322,7 322,7 322,7 322,7 322,7 322,7 322,7 322,7 322,6 322,6 323,6 323,6 323,6 323,5 323,5 323,5 324,5 325,4 325,4 325,4 326,4 326,4 327,4 327,4 327,4 327,4 327,4 328,4 328,4 328,4 328,3 329,3 329,3 329,3 329,2 329,2 329,3 330,2 331,3 331,3 332,3 332,3 332,3 333,3 334,3 334,3 335,3 335,3 337,2 337,2 338,2 338,2 338,2 338,2 338,2 339,1 339,1 339,0 339,0 339,0 340,0 340,0 340,0 340,0 341,0 341,0 342,1 343,1 343,1 344,1 345,1 345,1 345,1 346,2 347,2 347,3 348,3 348,3 349,3 349,4 349,4 351,4 351,4 351,4 352,4 351,4 351,4 350,5 350,5 350,5 349,5 349,5 349,5 349,6 348,6 348,6 348,6 348,6 348,6 348,6 348,6 347,7 347,7 347,8 347,8 347,8 347,8 348,8 348,8 352,10 352,10 352,10 352,11 352,11 353,11 353,12 353,12 354,12 354,12 354,12 354,12 354,12 355,12 355,13 355,13 356,14 356,14 357,14 357,15 357,15 357,15 357,15 357,15 357,16 357,16 357,16 357,16 356,17 356,17 356,17 356,17 356,17 356,17 356,18 356,18 356,18 357,18 357,18 357,18 357,18 357,18 357,18 357,18 357,18 357,18 357,18 357,18 357,19 357,19 357,19 357,19 357,19 356,19 356,20 356,20 356,20 356,20 355,20 355,20 355,20 355,20 355,20 355,21 355,21 355,21 355,21 355,22 355,22 355,22 356,24 356,24 356,24 356,24 356,25 356,25 357,26 357,26 357,27 357,27 357,27 358,27 358,28 358,28 358,28 359,28 359,28 359,28 360,29 360,29 360,29 360,29 359,29 359,29 359,29 359,29 359,30 359,30 359,30 359,30 358,30 358,31 357,31 357,31 356,32 356,32 355,32 355,32 355,32 355,33 355,33 355,33 355,33 355,33 355,33 355,33 355,33 355,33 354,33 354,33 354,34 354,34 354,34 354,34 354,34 353,34 353,35 353,35 353,35 353,35 353,35 353,35 353,35 353,35 353,35 353,35 353,35 353,35 353,35 353,36 353,36 353,36 353,36 353,36 353,36 353,37 353,37 353,37 353,37 353,37 353,37 353,38 353,38 353,38 353,38 353,38 353,38 353,38 353,39 353,39 353,39 353,39 353,39 353,39 353,39 353,40 353,40 353,40 353,40 353,40 353,40 353,40 353,40 353,41 353,41 353,41 353,41 353,41 353,41 353,41 353,41 353,41 353,41 353,41 353,42 353,42 353,42 353,42 354,42 354,42 354,42 354,42 354,42 354,43 355,43 355,43 355,43 355,43 355,43 355,44 355,44 355,44 355,45 355,45 355,45 356,45 356,45 356,45 357,45 357,45 357,46 357,46 358,46 358,46 358,47 358,47 358,47 358,47 358,47 358,47 358,47 358,48 359,48 359,48 359,48 359,48 359,48 359,48 360,48 360,49 360,49 360,49 360,49 360,49 360,49 360,50 360,50 360,50 360,50 360,50 361,50 361,50 361,50 361,50 361,51 361,51 361,51 362,51 362,51 363,50 364,50 364,50 365,50 365,50 366,51 366,51 366,51 367,50 368,50 368,49 368,49 369,49 369,50 369,50 370,50 370,51 370,51 370,51 370,51 370,51 371,51 371,51 371,52 371,52 373,52 373,52 373,52 374,52 374,52 374,52 374,52 376,52 377,52 377,52 377,52 378,52 378,52 378,52 379,53 379,53 380,53 380,53 380,53 380,53 382,53 383,53 384,53 384,53 384,53 385,53 385,53 385,53 385,54 385,54 385,54 386,54 388,54 389,54 389,54 389,54 389,54 389,54 389,54 391,54 391,54 393,54 394,54 396,53 397,53 397,53 397,54 397,54 397,54 397,54 397,56 397,56 397,56 398,58 398,58 398,58 398,60 398,60 398,60 399,60 399,60 400,60 402,60 403,61 403,61 403,61 404,61 405,61 405,62 406,62 406,62 406,62 406,62 406,62 407,62 408,62 409,63 410,63 410,63 410,62 410,62 410,62 410,62 411,62 411,62 411,61 411,61 411,61 412,61 412,61 412,61 412,61 412,61 412,61 412,61 412,61 413,61 413,61 413,61 414,61 414,61 415,61 415,60 415,60 415,60 416,60 416,60 418,59 418,59 419,59 420,59 420,58 420,58 421,58 421,58 421,58 421,57 422,57 422,57 422,56 422,56 422,56 422,55 422,55 422,55 423,55 424,56 424,57 426,60 427,61 428,63 428,63 428,63 428,63 428,63 429,63 430,64 430,64 430,64 430,65 430,65 430,65 430,66 431,67 431,67 431,67 431,67 431,67 432,67 433,67 433,67 433,67 434,67 434,67 434,67 434,67 434,68 434,68 434,68 435,68 435,69 435,69 435,69 435,69 435,69 435,70 435,70 435,70 435,70 435,70 435,70 435,70 435,70 435,70 436,70 436,71 436,70 436,70 437,70 437,70 439,69 441,69 442,69 443,68 443,68 443,68 444,68 444,68 444,69 444,69 444,68 445,68 445,68 446,67 448,66 448,66 448,66 449,66 449,65 450,65 450,65 450,65 451,64 451,64 453,63 453,63 453,62 454,61 454,61 454,61 454,61 446,56 445,56 445,55 445,55 445,55 444,54 444,54 444,54 445,49 445,49 445,49 445,49 445,49 449,49 450,49 450,50 450,50 450,50 450,50 450,50 450,50 451,51 451,51 451,51 451,51 451,51 452,51 452,51 452,51 452,51 452,51 452,51 452,51 452,52 451,52 451,52 452,52 459,54 460,54 460,54 460,54 460,54 462,52 462,52 463,52 464,51 465,50 465,50 465,49 465,49 466,50 468,51 468,52 468,52 469,53 469,53 470,54 470,54 470,54 471,54 471,54 472,55 472,55 473,56 473,56 473,56 474,57 475,57 477,59 478,59 478,59 479,60 479,60 479,60 479,60 480,60 480,60 481,61 482,61 482,61 483,62 483,62 483,62 484,63 484,63 484,63 484,63 484,64 484,64 484,64 484,64 484,64 483,64 483,64 483,64 483,65 484,65 484,65 484,65 484,65 483,65 483,65 482,66 481,68 480,68 479,70 479,70 480,70 480,70 480,70 481,71 481,71 482,71 482,71 482,72 483,72 483,73 483,73 484,73 484,73 484,73 484,73 484,74 485,74 485,74 485,74 485,74 485,74 484,74 483,75 483,75 482,75 481,75 481,76 480,76 480,76 480,76 480,76 480,76 480,76 479,76 479,76 479,76 479,76 479,77 478,77 478,77 478,77 477,77 477,78 476,78 476,78 475,79 475,79 475,79 473,80 473,80 473,80 473,81 473,81 473,81 472,81 472,81 471,82 470,82 470,82 470,82 470,82 470,82 470,82 469,82 468,82 468,82 468,82 467,82 467,82 467,82 467,83 468,84 468,84 468,84 467,84 465,84 465,84 465,83 463,83 463,83 462,83 462,83 463,83 463,83 463,83 463,83 463,83 463,83 463,83 463,84 463,84 464,84 464,84 464,84 464,84 464,84 464,85 465,85 465,85 465,85 465,85 465,86 465,86 465,86 465,86 465,86 465,86 465,86 466,87 466,87 466,87 465,87 465,88 465,88 465,88 464,89 464,89 464,89 463,89 463,89 463,90 463,90 464,90 464,90 464,90 464,90 466,92 466,92 466,92 466,92 466,92 467,92 467,92 467,92 467,92 467,92 467,93 467,93 467,93 467,93 467,93 467,93 468,93 468,93 468,94 469,94 469,94 470,94 470,94 471,94 471,94 472,94 472,94 472,95 472,95 472,95 472,95 472,95 472,95 472,94 473,94 473,94 474,94 474,94 474,94 475,94 475,94 475,94 476,94 477,94 477,94 478,94 479,94 479,94 480,94 480,94 481,94 481,93 482,93 482,93 483,93 485,93 485,93 485,93 486,93 489,93 491,93 493,93 495,93 495,93 495,93 495,92 495,92 496,92 498,92 498,92 499,93 500,93 500,93 500,93 500,93 500,93 500,93 500,93 500,93 499,94 498,95 498,95 498,95 496,97 496,97 496,97 495,97 495,97 495,97 495,98 495,98 495,98 495,98 494,98 494,98 494,99 494,99 494,99 494,99 494,99 494,99 494,99 494,99 495,99 495,99 495,99 494,100 494,100 494,100 495,100 495,100 495,100 494,100 494,101 494,101 494,101 494,101 494,101 494,102 494,102 494,102 494,102 494,102 494,103 493,103 493,103 493,103 493,103 493,103 493,103 494,103 494,103 494,103 494,103 494,103 494,103 494,104 494,104 494,104 494,104 493,104 493,105 493,105 494,105 494,105 494,105 494,106 494,106 494,106 494,106 494,106 493,107 493,107 493,108 492,108 492,108 492,108 492,108 492,109 492,109 492,109 492,109 492,109 492,109 492,109 492,109 492,110 492,110 492,110 492,110 492,110 492,110 492,110 492,110 492,110 492,110 493,111 493,111 493,111 493,111 493,111 493,111 492,111 492,111 492,111 492,111 491,112 491,112 490,112 490,112 490,112 490,112 490,112 490,112 490,112 490,112 489,112 489,112 489,112 489,112 489,112 488,112 488,112 488,112 488,112 487,111 486,111 486,111 485,111 485,111 485,111 485,111 485,110 485,110 484,110 484,110 484,110 484,110 484,110 483,110 483,110 483,110 483,110 483,109 483,109 483,109 483,109 483,109 482,109 482,109 482,109 482,109 482,109 482,108 481,108 481,108 482,108 482,108 482,108 482,108 482,108 481,107 481,107 480,107 480,107 480,107 480,107 480,107 480,108 480,108 480,108 480,108 479,108 479,108 479,108 478,108 478,108 478,107 477,107 477,107 477,107 477,108 477,108 477,108 477,108 477,108 477,108 476,108 476,108 475,108 474,108 474,108 474,108 474,108 474,108 473,108 473,108 473,109 473,109 473,109 473,109 473,109 473,109 473,109 472,109 472,109 472,109 472,109 472,109 471,109 471,109 471,109 471,109 470,109 470,108 470,108 470,108 470,108 470,108 470,108 469,108 469,108 469,108 468,108 468,108 468,108 468,108 468,108 467,108 467,108 467,108 466,108 466,108 466,108 465,109 464,109 463,109 462,109 462,109 461,109 461,109 461,109 461,110 461,110 460,110 460,110 460,110 460,110 460,110 460,110 460,111 460,111 459,112 459,112 459,112 457,112 456,113 456,113 456,113 456,113 455,114 455,114 455,114 455,114 454,114 454,114 454,114 454,114 454,114 453,114 453,114 453,114 453,115 452,115 450,116 450,116 450,116 450,116 450,116 449,116 449,116 449,116 449,116 449,116 449,116 448,116 448,116 448,117 448,117 447,117 447,117 447,117 447,117 447,117 447,117 447,117 447,117 447,117 447,118 447,118 447,118 447,118 447,118 447,118 447,118 447,118 448,118 448,118 448,118 447,118 447,118 448,119 447,119 447,119 447,120 447,120 447,120 447,120 446,120 446,120 446,121 446,121 446,121 446,121 446,121 446,122 446,122 446,122 446,123 446,123 446,123 446,123 446,123 446,124 446,124 446,124 447,124 447,124 447,124 447,124 447,125 447,125 447,125 447,125 447,125 447,125 447,125 447,125 447,125 447,125 447,125 447,125 447,126 447,126 447,126 447,126 447,126 446,126 446,126 446,127 446,127 446,127 446,127 446,127 446,127 446,127 446,128 447,128 447,128 447,129 447,129 447,129 447,129 447,129 447,130 447,130 447,130 446,130 446,130 446,130 446,130 446,131 446,131 446,131 446,131 445,131 445,131 445,131 445,131 446,131 446,131 446,131 446,131 445,132 445,132 445,132 446,132 446,132 446,132 445,132 445,133 445,133 445,133 445,133 445,133 445,133 445,133 445,134 445,134 445,134 445,134 445,134 444,134 444,134 444,134 444,135 444,135 444,135 444,135 443,135 443,135 443,135 443,135 443,135 444,135 444,135 444,135 444,135 444,135 444,135 443,136 443,136 443,136 443,136 443,136 443,136 443,136 443,136 443,136 443,136 443,136 443,136 443,137 443,137 443,137 443,137 443,137 443,137 443,137 443,137 443,137 443,138 443,138 443,138 443,138 442,138 442,138 442,138 442,138 442,138 442,138 442,138 442,138 442,138 441,138 441,138 441,138 441,139 441,139 441,139 441,139 441,139 440,139 440,139 440,139 440,140 440,140 440,140 439,140 439,140 439,140 439,141 439,141 439,141 439,141 439,142 438,142 438,142 437,142 437,142 437,142 437,143 436,143 436,143 436,143 435,143 435,144 435,144 434,144 434,144 434,144 434,145 433,145 433,145 433,146 433,146 432,146 432,146 432,146 431,146 431,145 431,145 430,145 430,145 430,145 430,145 430,145 429,145 429,145 428,147 428,148 428,148 428,148 427,148 426,148 426,148 426,148 426,147 425,147 425,147 425,147 425,147 425,147 425,148 425,148 425,148 425,148 425,148 425,148 425,148 424,147 424,147 424,147 424,147 424,147 423,147 423,147 423,147 423,146 423,146 423,146 422,146 422,145 422,145 421,145 421,145 421,145 421,145 421,145 420,145 420,145 419,145 418,145 418,145 418,145 417,145 417,145 417,145 417,145 416,145 415,145 415,145 415,146 415,146 415,146 415,146 415,146 414,146 413,146 413,146 413,145 412,145 412,145 411,145 411,145 411,145 411,145 411,145 410,145 410,145 410,145 409,145 409,145 408,145 408,145 408,145 408,145 408,145 408,145 407,146 407,146 406,146 406,146 406,146 406,146 406,146 405,146 405,146 404,145 404,145 404,145 404,145 404,145 404,145 404,145 404,144 404,144 404,144 403,144 401,144 400,144 400,144 398,144 398,144 398,145 398,146 399,146 399,146 398,146 398,147 397,147 397,147 397,147 397,147 397,148 397,148 397,148 396,148 395,149 395,149 395,150 395,150 395,150 394,150 392,150 391,150 390,150 390,150 389,150 389,150 389,150 388,150 388,150 386,150 386,150 384,150 384,150 384,150 384,150 384,150 384,150 384,150 384,150 383,150 383,150 383,150 382,151 382,151 382,151 381,151 381,152 381,152 381,152 381,152 381,152 381,152 382,152 382,152 382,152 382,152 382,152 382,153 382,153 383,153 383,154 383,154 383,154 383,154 383,155 383,155 383,155 384,155 384,155 384,155 384,156 384,156 385,156 385,156 385,156 385,156 385,156 385,156 385,157 385,157 385,157 385,157 385,157 385,157 385,157 385,157 385,157 386,158 386,158 385,158 385,158 385,158 385,159 385,159 385,159 385,160 385,160 385,160 385,160 385,160 385,161 385,161 386,161 386,161 386,161 386,161 387,162 387,162 387,162 387,163 387,163 387,163 387,163 387,163 387,163 387,163 387,164 387,164 388,164 388,164 388,164 388,164 388,165 388,165 388,165 388,165 388,165 388,165 388,165 388,165 388,165 388,166 388,166 388,166 388,166 389,167 389,167 389,167 389,168 389,168 389,168 389,168 389,168 389,168 389,169 389,169 390,169 389,169 389,169 388,169 388,169 389,169 389,169 389,169 388,170 388,170 388,170 389,170 389,170 390,170 391,170 391,170 391,170 392,171 392,172 392,173 392,173 393,173 393,175 393,175 393,175 392,175 392,175 392,175 392,175 392,175 392,175 392,176 393,176 395,175 396,175 396,175 396,176 396,176 396,176 396,177 396,177 395,178 395,179 395,179 395,179 395,180 395,180 395,180 395,181 395,181 395,181 395,181 395,181 394,182 394,182 395,182 395,182 396,182 396,182 395,183 395,183 395,183 395,183 395,184 394,184 394,184 394,184 395,185 396,185 396,185 396,185 396,185 396,186 397,186 397,186 398,186 398,186 398,186 398,186 398,187 398,187 398,187 398,187 398,187 399,187 401,187 401,187 402,187 402,187 402,187 402,188 402,189 402,189 402,190 402,194 401,195 401,196 401,199 401,200 401,202 401,204 401,205 401,206 401,207 401,207 401,212 400,215 400,218 400,221 400,222 400,223 400,223 400,224 400,224 400,226 400,226 400,227 400,227 400,227 400,227 399,226 399,226 399,227 398,227 398,227 398,227 398,226 398,226 398,226 398,226 398,226 398,226 398,226 398,226 398,226 398,226 398,226 398,226 398,226 398,226 398,226 398,226 398,226 398,226 398,226 398,225 398,225 398,225 397,225 397,225 397,225 397,225 397,225 397,225 397,225 397,226 396,226 396,226 396,226 396,226 396,226 396,226 396,226 396,226 395,227 395,227 395,227 395,227 394,228 394,228 394,228 394,229 394,229 394,229 394,229 394,229 394,229 394,229 394,229 394,229 394,229 394,230 394,230 395,230 395,230 395,230 395,230 394,230 394,231 394,231 393,231 393,231 393,231 393,231 393,231 393,231 392,232 392,232 392,232 391,232 391,232 391,232 391,232 391,232 391,232 391,233 390,232 390,233 390,233 390,233 390,233 390,233 390,233 390,233 390,233 390,233 390,233 389,233 389,233 389,233 389,233 389,233 389,233 388,233 388,233 388,233 388,233 388,233 388,233 388,234 388,234 388,234 387,234 387,234 387,234 387,234 388,234 388,234 388,234 388,235 388,235 388,235 388,235 387,235 387,235 387,235 387,235 387,235 387,235 387,235 387,235 387,235 387,236 387,236 387,236 387,236 387,236 387,237 387,237 386,237 386,237 386,237 386,238 386,238 386,238 387,238 387,238 387,238 386,238 386,239 386,239 385,240 385,240 385,240 385,240 385,240 384,240 384,240 384,240 384,240 384,241 384,241 385,241 385,241 385,241 385,241 385,241 385,241 385,242 385,242 385,242 385,242 385,242 385,242 385,242 385,243 385,243 385,243 385,243 384,243 384,244 384,244 383,244 383,244 383,244 383,245 383,245 383,245 383,245 382,245 382,245 382,245 382,245 382,245 382,245 382,245 381,245 381,245 381,245 381,245 381,245 381,245 381,245 381,245 381,245 381,246 381,246 381,246 380,246 380,246 380,247 380,247 380,247 380,248 380,248 380,249 380,249 380,249 380,249 380,249 380,249 380,249 380,249 380,250 380,250 380,250 380,250 380,250 380,250 380,250 380,250 380,250 380,250 380,250 380,250 380,250 380,250 380,250 381,251 381,251 381,251 381,251 381,251 381,251 381,252 381,252 381,252 381,252 381,252 381,252 381,253 381,253 381,253 381,253 381,253 380,254 380,254 380,254 380,254 380,254 380,255 380,255 380,255 381,255 381,255 381,255 381,256 382,256 382,256 382,256 382,256 382,257 382,257 382,257 382,257 382,257 383,257 383,257 383,257 383,257 384,257 384,257 383,258 383,258 383,258 384,258 385,259 385,259 385,259 385,259 385,259 385,259 386,259 386,259 386,259 386,259 386,260 386,260 386,260 386,260 386,260 386,260 386,260 386,260 386,260 387,260 387,261 387,261 387,261 387,261 387,261 387,261 387,261 387,261 386,261 386,261 386,261 386,261 386,261 386,261 386,261 386,261 387,261 387,262 387,262 387,262 387,262 387,262 387,262 387,262 387,262 387,262 388,263 388,264 388,264 388,264 388,264 388,264 388,264 388,264 388,265 389,265 389,265 389,265 389,265 389,265 389,265 389,265 389,265 389,266 389,266 389,266 389,266 389,266 389,266 389,266 388,266 388,266 388,266 388,266 388,266 388,266 388,267 388,267 388,267 388,267 387,267 387,267 387,267 387,267 387,268 387,268 387,268 387,269 387,269 387,269 387,269 387,269 388,269 388,269 388,269 388,269 388,269 388,269 388,270 388,270 388,270 388,270 388,270 388,271 388,271 388,271 388,271 388,271 389,271 389,271 389,272 389,272 390,272 390,272 390,272 390,272 391,272 391,272 391,273 391,273 392,273 392,273 392,273 393,273 393,273 393,273 393,273 393,273 393,274 393,274 394,274 394,274 394,274 394,274 394,274 394,275 394,275 395,275 395,275 395,276 395,276 395,276 395,276 395,277 394,277 394,278 394,278 394,278 394,279 394,279 394,279 394,279 393,279 393,279 393,279 393,279 393,279 392,280 392,280 392,280 392,280 392,280 392,280 392,281 392,281 392,281 392,281 392,282 392,282 392,282 392,283 393,284 394,285 394,285 394,285 395,285 395,285 395,285 395,285 395,286 395,286 395,286 395,286 394,287 394,287 394,288 394,288 393,289 393,289 393,289 394,289 394,289 394,290 393,290 393,290 393,290 393,291 393,291 393,291 393,291 392,291 392,291 392,291 392,291 392,292 392,292 392,292 392,292 391,292 391,292 391,292 391,293 390,294 390,295 390,295 390,295 390,295 389,295 389,295 389,295 389,296 389,296 389,297 389,298 389,298 389,298 389,298 389,298 389,298 389,299 388,299 388,299 388,300 388,301 388,301 388,301 388,301 388,302 388,302 387,302 387,302 386,302 385,302 385,303 385,303 384,303 384,304 384,304 384,304 384,304 382,304 382,305 381,305 381,305 381,305 381,305 381,306 367,305 363,305 363,306 363,305 362,306 360,306 360,306 359,306 357,306 355,306 355,306 354,306 353,306 352,306 351,307 351,307 351,307 351,307 350,307 350,306 350,306 350,306 350,306 350,307 349,307 349,306 349,306 349,306 349,306 349,305 348,305 348,305 348,305 347,305 347,305 349,304 349,304 348,304 349,303 348,303 348,302 347,302 346,302 346,302 346,302 345,301 345,301 345,301 345,301 345,300 345,300 345,300 344,300 344,300 344,300 344,300 342,301 342,302 343,302 343,302 341,303 340,303 337,305 336,306 336,306 336,306 336,306 335,307 335,307 334,307 324,314 322,315 316,316 310,317 304,318 302,319 302,321 295,321 294,322 291,318 287,322 286,321 281,318 277,316 277,316 278,318 278,319 278,320 280,325 280,325 281,328 281,330 282,333 282,335 283,337 283,338 283,338 283,338 282,338 281,338 280,338 279,339 278,339 277,339 276,339 275,339 274,339 273,339 272,339 271,339 270,339 270,339 270,339 270,337 269,334 268,333 268,333 264,332 263,332 258,331 258,331 257,331 256,331 255,331 254,331 253,331 253,331 252,331 251,331 249,332 248,332 247,332 247,333 247,332 247,332 247,332 247,332 246,332 246,332 245,332 245,332 244,331 244,331 244,331 244,331 243,331 243,331 243,331 242,331 242,331 241,331 241,331 241,331 241,331 240,331 240,331 239,331 238,331 238,331 238,331 237,331 237,331 236,331 236,331 236,331 236,330 236,330 234,330 233,329 233,329 232,329 231,329 231,329 230,329 230,329 230,329 230,328 229,328 229,328 229,328 229,328 229,328 229,328 229,328 228,328 228,328 228,328 228,328 227,328 226,327 226,327 226,327 225,327 225,327 225,327 224,327 224,327 224,326 224,326 224,326 223,326 223,326 223,326 222,326 222,326 222,326 222,326 221,326 221,326 221,326 221,325 221,325 221,325 220,325 220,325 220,325 219,325 220,325 220,325 219,325 219,325 219,325 219,325 218,324 218,324 218,324 218,324 218,324 217,324 217,324 216,324 216,324 216,324 216,324 216,324 215,324 215,324 215,324 215,324 215,324 214,324 213,324 213,324 213,324 213,324 212,324 212,324 212,325 211,325 211,325 211,325 211,325 210,325 210,325 210,325 210,325 210,325 209,325 209,325 208,325 208,325 208,326 208,326 208,326 208,326 207,326 207,326 206,326 205,326 204,326 203,326 203,326 203,326 202,326 202,326 201,326 200,326 199,326 199,326 199,326 198,326 198,326 198,326 197,326 197,326 197,326 196,326 195,326 196,326 196,326 195,326 196,326 196,325 196,325 195,325 195,325 195,325 194,325 194,325 193,325 193,325 193,325 193,324 193,324 192,325 192,324 191,325 191,324 191,324 190,325 191,325 190,325 190,325 190,325 190,325 189,325 189,325 189,325 188,325 188,325 188,324 188,324 188,324 188,324 188,324 187,324 187,324 186,324 186,324 186,324 186,324 186,325 185,324 185,325 185,324 184,325 184,325 184,325 183,325 183,325 183,325 183,325 182,325 182,325 182,325 182,325 181,325 181,325 181,326 180,326 179,327 178,327 178,328 178,328 178,328 177,328 174,327 173,327 172,327 171,327 166,328 163,328 159,328 157,328 152,327 151,327 151,327 151,327 151,326 151,325 151,323 151,323 151,322 151,319 151,319 151,318 150,317 150,316 150,314 150,313 150,312 150,311 150,311 150,310 150,309 150,308 149,307 149,303 149,303 149,302 148,301 148,301 148,299 149,299 149,297 148,296 147,295 147,295 147,294 147,290 146,289 146,288 145,287 145,285 144,285 144,284 144,283 144,282 144,282 144,281 144,280 144,279 143,277 143,276 143,276 143,273 142,273 142,272 142,272 142,270 142,270 142,269 141,267 141,267 140,266 140,265 139,263 139,262 139,262 139,261 138,261 138,259 137,258 137,256 136,254 135,253 135,252 135,251 135,250 135,249 135,248 135,246 136,245 137,244 138,244 139,242 140,240 141,239 141,238 141,238 141,237 140,237 139,236 138,236 138,235 137,235 137,234 136,233 136,233 134,231 134,230 133,229 132,228 132,228 131,226 131,226 130,225 129,224 128,224 128,223 127,223 126,222 126,221 125,221 125,220 125,219 126,218 127,218 128,218 129,218 131,218 132,218 133,218 134,218 135,217 137,217 138,216 139,215 140,215 142,215 143,215 146,215 148,215 150,216 153,215 154,215 155,215 157,216 156,215 157,214 159,214 160,214 161,214 161,214 163,214 165,213 167,213 168,213 169,213 170,213 173,213 174,212 175,212 175,212 174,212 174,212 172,212 170,212 168,212 167,213 166,213 164,213 163,212 162,212 162,212 163,211 162,211 161,211 161,212 161,212 161,212 159,212 158,212 158,211 158,211 159,211 159,210 158,210 158,210 158,209 160,208 161,208 162,208 163,207 164,207 165,207 163,207 162,207 161,208 161,208 159,208 158,209 157,209 157,209 156,210 157,211 156,211 156,212 155,213 154,213 153,213 152,213 150,212 151,212 150,211 150,211 149,210 149,211 148,211 148,211 146,211 145,211 144,210 143,210 143,210 143,210 143,209 143,209 143,208 142,208 141,208 141,208 140,208 140,208 139,208 138,208 138,208 138,208 138,207 139,207 138,207 137,207 136,207 134,206 132,206 131,206 131,206 132,206 132,205 133,205 133,204 134,204 135,204 136,204 135,203 134,203 134,203 133,203 133,203 132,204 132,204 132,204 131,205 131,205 131,205 131,205 130,205 129,205 129,205 129,205 128,205 129,205 127,206 126,206 125,206 125,206 124,206 123,207 123,207 122,207 122,206 122,206 121,206 121,207 120,207 119,207 118,208 118,208 117,209 116,209 114,210 114,210 113,210 113,211 112,212 112,213 111,213 111,214 110,215 110,215 110,214 110,214 110,214 110,213 110,213 110,213 111,212 111,212 111,212 110,212 110,213 110,212 109,211 109,211 109,212 109,214 108,216 108,216 109,218 110,219 110,220 109,221 110,222 109,224 110,226 109,226 110,227 110,228 111,228 112,230 113,230 113,230 113,230 114,230 114,230 114,230 114,230 114,229 115,229 115,229 115,229 115,230 114,230 113,230 111,230 109,230 108,230 107,230 106,230 105,230 104,229 103,228 103,228 101,227 100,226 100,226 99,225 98,224 97,223 95,222 94,221 94,221 93,220 93,220 91,218 90,218 89,217 89,217 87,216 87,216 86,215 86,215 86,215 85,215 85,214 85,214 84,213 83,211 82,210 81,208 81,208 80,207 80,207 80,206 79,205 78,205 78,204 78,204 78,204 77,204 77,203 77,203 77,202 77,202 76,202 76,201 76,201 76,201 76,201 75,200 75,200 75,199 74,198 74,197 73,196 73,195 71,193 70,191 70,191 69,190 68,189 68,188 68,187 67,187 66,185 66,184 65,183 65,181 64,181 64,180 64,179 63,178 63,178 63,176 62,175 62,173 61,172 61,171 61,170 61,169 60,168 60,168 59,166 58,164 58,163 57,160 56,159 55,157 55,156 54,156 54,155 53,154 52,153 50,150 48,148 47,145 46,144 45,143 44,142 44,142 43,141 42,141 42,141 42,140 41,139 40,139 40,139 40,138 39,137 38,137 37,137 37,136 37,136 36,135 36,135 35,135 35,135 34,134 34,133 34,133 33,133 33,132 32,132 31,130 29,128 29,126 28,125 29,123 30,121 31,120 32,120 33,119 34,119 34,119 35,119 35,119 36,119 36,119 37,120 37,120 37,121 37,121 36,122 36,122 36,123 36,123 36,124 35,124 35,125 36,126 36,126 36,126 36,127 36,127 36,127 37,128 37,128 37,128 37,129 37,129 37,129 37,129 37,129 37,129 37,129 38,129 38,129 39,129 39,129 40,129 41,129 42,129 42,129 43,129 43,129 44,130 45,130 45,130 47,130 48,129 49,128 50,127 51,127 52,126 52,125 52,125 53,124 54,124 54,124 54,124 54,124 54,124 54,124 54,124 54,124 54,124 55,124 55,124 55,124 55,124 55,123 55,123 55,123 55,123 54,123 54,123 54,123 53,123 53,123 52,123 52,123 52,123 52,124 51,124 51,125 51,125 50,126 50,126 50,126 50,126 49,126 49,126 49,126 49,127 48,127 48,127 47,127 47,127 47,127 47,127 47,127 47,127 47,127 46,127 46,127 46,127 45,127 45,128 44,128 43,128 42,128 41,128 39,127 39,127 39,127 39,127 39,127 39,127 40,127 40,127 41,127 41,127 41,127 41,127 41,127 42,126 43,126 44,126 44,126 44,126 44,125 44,125 44,125 45,125 45,125 45,125 45,125 44,124 44,124 45,124 44,123 44,123 44,123 44,123 42,123 41,122 40,121 40,121 39,120 39,119 38,119 38,118 37,118 37,118 36,118 35,118 34,118 33,118 32,118 31,119 30,119 28,120 26,120 24,120 22,120 21,119 20,118 19,117 18,116 17,115 16,113 15,112 14,110 13,108 10,104 9,102 8,101 7,99 7,98 6,98 6,97 6,96 5,96 5,95 4,94 4,94 3,93 3,93 3,93 3,93 2,92 1,90 1,89 0,89 0,88" id="5011" class="canton" fill="steelblue" stroke-width="1" stroke="white" geotype="canton" geoname="Créances" code_insee="5011" code_departement="50" nom_departement="Manche" code_region="28" nom_region="Normandie"/></svg>