<?xml version="1.0" encoding="utf-8"?>
<svg version="1.1" id="svgmap" xmlns="http://www.w3.org/2000/svg" xmlns:xlink="http://www.w3.org/1999/xlink" x="0px" y="0px" width="100%" height="100%" viewBox="0 0 500 196">
<polygon points="0,179 0,179 0,179 0,179 0,179 1,179 1,179 1,179 1,179 1,179 1,179 2,179 2,179 2,179 2,179 2,179 3,179 3,179 3,178 3,178 3,178 3,178 3,178 4,178 4,178 4,178 4,178 4,178 4,178 4,178 4,178 4,177 4,177 4,177 5,177 5,177 5,177 5,176 6,176 6,176 6,176 6,175 6,175 6,175 7,175 7,175 7,175 7,176 8,176 8,176 8,176 10,176 10,176 10,176 10,176 10,176 10,176 11,176 11,176 11,176 11,176 12,176 12,176 12,176 12,176 12,176 12,176 12,176 12,176 12,176 12,176 13,176 13,176 13,176 13,176 13,176 13,176 13,176 13,176 14,176 14,176 15,177 15,177 16,176 16,176 16,176 16,176 16,176 17,175 17,175 17,175 18,174 17,173 17,173 17,173 16,173 16,172 16,172 15,172 15,172 15,172 15,171 15,171 15,171 15,170 15,170 15,170 15,170 15,170 15,170 15,170 14,170 14,170 14,169 13,169 13,169 13,169 13,169 12,169 12,169 12,169 12,168 12,168 12,168 12,168 12,168 13,167 13,167 14,166 14,166 14,166 13,165 13,165 13,165 13,165 13,164 13,164 12,164 12,164 12,164 12,164 12,164 11,164 10,163 10,163 10,163 10,163 10,163 10,163 9,163 9,163 9,163 9,163 9,163 9,163 9,163 9,163 9,163 9,163 9,162 9,162 9,162 9,161 8,161 8,161 8,161 8,161 8,161 8,160 8,160 8,160 8,160 8,159 8,159 8,159 8,159 8,158 8,158 8,158 8,158 8,158 8,158 9,157 9,157 9,157 9,156 10,156 10,156 10,155 10,155 10,155 10,155 10,154 10,154 10,154 10,153 10,153 10,153 10,152 10,152 10,152 10,152 9,152 9,152 9,151 8,151 7,150 7,150 7,150 7,150 7,150 7,150 7,150 7,150 7,150 7,150 8,150 8,150 8,150 8,150 8,150 8,149 8,149 9,149 9,150 9,150 9,150 9,150 10,150 10,150 10,150 10,150 10,150 10,150 11,150 11,150 11,150 11,150 11,150 11,150 11,150 11,150 11,150 11,150 11,150 11,150 12,150 12,150 12,150 12,150 12,150 12,150 12,150 12,150 12,150 12,150 12,150 12,150 12,150 12,150 12,150 12,150 12,150 12,150 13,150 13,150 13,150 13,150 13,150 13,150 13,150 13,150 13,150 13,150 13,150 13,150 13,150 13,150 13,150 13,150 13,150 13,149 13,149 13,149 13,149 13,149 13,149 13,149 13,149 13,149 13,149 13,149 13,149 14,149 14,149 14,149 14,149 14,149 14,149 14,149 14,148 14,148 15,148 15,148 15,147 15,147 16,147 16,147 16,147 16,146 16,146 17,146 17,146 16,146 17,146 17,145 17,145 16,145 16,145 16,145 15,144 15,144 14,144 14,144 14,144 13,144 13,144 13,143 13,143 13,143 13,142 13,142 13,142 13,142 12,142 12,142 12,142 12,142 12,142 12,141 13,141 13,141 13,141 13,140 13,140 13,140 13,140 13,139 13,139 14,139 14,138 14,138 16,137 16,136 16,136 16,136 16,136 16,136 17,135 17,135 17,135 17,135 17,135 18,135 18,135 18,135 18,135 18,135 18,135 18,135 18,135 19,135 19,136 19,136 21,136 21,136 21,136 22,136 22,137 22,137 22,137 24,138 24,137 24,137 24,137 24,137 25,138 25,138 25,138 26,137 26,136 27,137 27,137 27,137 27,137 27,137 28,136 28,135 28,135 29,135 29,135 29,135 29,135 29,134 29,134 29,134 29,133 29,133 30,132 31,132 32,131 32,131 32,131 32,131 31,131 32,130 32,130 32,130 32,130 32,130 32,130 33,129 33,129 33,129 33,129 33,129 34,129 34,130 34,130 34,130 34,130 34,130 34,130 33,130 33,131 34,132 35,132 35,132 34,133 34,133 33,135 33,135 32,135 32,135 32,136 32,136 33,136 34,136 34,136 34,137 34,137 34,137 34,137 35,137 35,137 36,138 37,138 37,138 37,138 37,138 37,138 38,137 38,137 38,137 39,136 39,136 40,136 40,136 40,136 40,136 40,136 40,136 40,136 41,136 41,136 41,136 41,136 41,136 41,136 42,136 42,136 42,136 42,136 42,136 42,136 42,135 42,135 43,135 43,135 43,135 43,135 43,135 43,135 43,135 43,134 43,134 43,134 43,134 44,134 44,134 44,134 44,134 44,134 44,134 44,134 44,134 44,134 45,133 45,133 45,133 45,133 45,133 46,133 46,133 46,132 46,132 46,132 47,132 47,132 47,132 47,132 47,132 47,132 47,132 47,131 47,131 47,131 47,131 48,131 48,131 48,130 48,130 48,130 48,130 48,130 48,130 49,130 49,129 49,129 49,129 49,128 50,127 51,126 51,126 51,126 50,126 50,126 49,126 49,126 49,126 49,125 49,125 49,125 48,125 48,125 48,124 47,124 47,124 47,124 47,124 47,124 46,123 46,123 45,123 45,123 44,123 44,123 44,123 43,123 43,123 43,123 42,123 42,123 41,123 41,123 41,123 40,123 39,123 39,123 39,123 39,123 39,123 39,123 39,123 39,123 37,123 37,123 36,123 36,122 36,122 36,122 36,122 35,123 35,123 35,123 35,123 34,123 34,123 34,123 33,122 32,122 32,122 32,122 32,122 32,122 31,122 31,122 31,122 31,122 30,122 29,122 29,122 28,122 28,122 28,122 28,122 28,121 28,121 28,121 28,121 28,122 27,123 27,123 27,123 27,123 27,123 25,123 24,123 24,123 24,123 24,123 24,123 24,123 24,123 24,123 24,123 24,122 24,122 24,122 24,122 24,122 24,122 24,121 24,121 24,121 24,120 24,120 25,120 25,120 26,120 26,120 26,120 26,120 26,120 25,119 25,119 24,119 24,119 24,119 23,119 23,118 23,118 22,118 22,118 22,118 22,118 22,118 23,118 24,117 24,117 24,117 25,117 25,117 25,117 25,117 25,117 26,117 26,116 25,115 25,115 25,115 25,115 26,115 26,115 26,115 27,115 27,115 27,115 27,115 27,115 27,115 27,115 27,114 28,114 29,114 29,114 29,114 29,113 29,113 29,113 28,113 28,113 28,114 28,113 27,112 27,112 27,112 27,112 27,112 26,110 26,110 26,110 26,110 26,110 26,110 26,110 26,110 26,109 26,109 26,109 26,109 26,109 26,109 26,109 26,109 26,109 26,109 25,109 25,109 25,109 25,108 25,108 25,108 25,108 25,108 25,108 25,108 25,107 25,107 25,107 25,107 25,107 25,107 25,107 24,107 24,107 24,106 24,106 24,106 24,106 24,106 23,106 23,106 23,106 23,105 23,105 23,104 22,104 22,104 22,104 22,104 22,104 22,104 22,103 22,103 21,103 21,103 21,103 21,103 21,102 21,101 21,101 21,101 20,101 20,101 20,101 20,101 20,101 19,101 19,101 19,101 16,100 16,100 14,100 14,100 13,100 13,99 13,99 13,98 14,97 15,96 15,96 15,95 15,96 15,96 16,96 16,96 16,95 16,94 16,94 17,94 17,94 17,94 17,94 17,94 17,94 18,93 18,94 18,94 18,94 18,94 18,94 18,94 18,94 18,94 18,94 19,94 19,93 19,93 20,93 20,92 20,92 21,93 21,93 21,93 21,93 22,92 22,92 22,92 22,92 22,92 22,92 23,91 23,91 23,91 24,91 24,91 25,91 25,91 25,91 25,91 26,91 26,91 26,91 27,90 28,90 28,90 28,90 28,90 28,90 28,90 28,90 29,90 29,90 29,90 29,90 29,90 30,89 30,89 30,89 31,89 31,89 31,89 31,89 31,88 31,88 31,88 31,88 31,88 31,88 32,88 32,88 32,88 32,88 32,88 32,87 32,87 32,87 32,87 32,87 32,87 32,87 32,87 32,86 32,86 32,86 32,86 32,86 32,86 33,86 33,86 33,86 33,86 33,85 33,85 33,85 33,85 33,85 33,85 33,85 33,85 33,85 33,85 33,85 33,85 33,84 33,84 33,84 33,84 33,84 33,84 33,84 33,84 33,84 33,84 32,84 32,84 32,84 32,84 32,84 32,83 32,83 32,83 32,83 32,83 32,83 32,83 32,83 32,83 32,83 32,83 32,83 32,83 32,83 32,83 32,83 32,83 32,83 32,83 32,83 32,82 32,82 32,82 32,82 32,82 32,82 32,82 31,82 31,82 31,82 31,82 31,82 31,82 31,82 31,82 31,82 31,81 31,81 30,81 30,81 30,81 30,81 30,81 30,81 30,81 30,81 30,80 30,80 30,80 30,80 30,80 30,80 30,80 30,80 30,80 30,80 30,80 30,80 30,79 30,79 30,79 30,79 30,79 30,79 30,79 30,79 30,79 30,79 30,79 30,79 30,79 30,79 29,79 29,79 29,79 29,78 29,78 29,78 29,78 29,78 29,78 29,78 29,78 29,78 29,77 29,77 29,77 28,77 28,77 28,77 28,76 28,76 28,76 28,76 28,76 28,76 27,76 27,76 27,76 27,76 27,76 27,76 27,75 27,75 27,75 27,75 27,75 27,75 27,75 27,75 27,75 27,75 27,75 27,75 27,75 27,75 27,75 27,75 27,75 27,75 27,75 27,75 27,75 27,75 26,75 26,75 26,75 26,75 26,75 26,75 26,74 26,74 26,74 26,74 26,74 26,74 26,74 26,74 26,74 26,74 26,74 25,74 25,73 25,73 26,73 26,73 25,73 25,73 25,72 25,72 25,72 25,72 25,72 25,72 25,72 25,72 25,72 25,72 25,72 25,72 25,72 25,72 25,72 25,71 25,71 25,71 25,71 25,71 25,71 25,71 25,71 25,71 25,71 25,70 25,70 25,70 25,70 25,70 25,70 25,70 25,70 25,70 25,70 25,70 26,70 26,69 26,69 26,69 26,69 26,69 26,69 26,69 26,69 26,69 25,68 25,68 25,68 25,68 25,68 25,68 25,68 25,68 25,68 25,68 25,68 25,68 25,68 25,68 25,68 26,68 26,68 26,68 26,68 26,68 26,68 26,68 26,68 26,68 26,68 26,68 26,68 26,68 26,68 26,68 26,68 26,68 27,68 27,68 27,68 27,68 27,68 27,68 27,68 27,68 27,68 27,68 27,68 27,68 27,68 27,68 27,68 27,68 27,69 27,69 27,69 27,69 27,69 27,69 27,69 27,69 27,69 27,69 27,69 27,69 28,69 28,69 28,69 28,69 28,69 28,69 28,69 28,69 28,69 28,69 28,69 28,69 28,69 28,69 28,69 28,69 28,69 29,69 29,69 29,69 29,70 29,69 29,70 29,69 29,69 29,69 29,70 29,70 29,70 29,70 29,70 29,70 29,70 30,70 30,70 30,70 30,70 30,70 30,70 30,70 30,70 30,70 30,70 30,70 30,70 30,70 30,70 30,70 30,70 30,70 30,70 31,70 31,71 31,71 31,71 31,71 31,71 31,71 31,71 31,71 31,71 31,71 31,71 32,71 32,71 32,71 32,71 32,71 32,71 32,71 32,71 32,71 32,71 32,71 32,71 32,71 33,71 33,71 33,72 33,72 33,72 34,72 34,72 34,72 34,72 34,72 34,72 34,72 34,72 35,72 35,72 35,72 35,72 35,72 35,72 35,72 35,72 35,72 35,72 35,72 35,73 35,73 35,73 35,73 36,73 36,73 36,73 36,73 36,73 36,73 36,73 37,73 37,73 37,73 37,73 37,73 37,73 37,73 37,73 37,73 38,73 38,73 38,73 38,73 38,73 38,73 38,73 38,73 38,73 38,73 39,73 39,73 39,73 39,73 39,73 39,73 39,73 39,73 39,73 39,73 39,73 39,73 39,73 39,73 40,73 40,73 40,73 40,73 40,73 40,73 40,73 40,73 41,72 41,72 41,72 41,72 41,72 41,72 41,72 42,72 42,72 42,72 42,72 42,72 42,72 42,71 42,71 42,71 42,71 42,71 42,71 42,71 42,71 42,71 43,71 43,71 43,71 43,71 43,71 43,71 43,71 43,71 43,71 43,71 43,71 44,71 44,71 44,71 44,71 44,71 44,71 44,71 44,71 44,71 44,71 44,71 44,71 44,71 44,71 44,71 44,71 44,71 44,71 44,71 45,71 45,71 45,71 45,71 45,71 45,71 46,71 46,71 46,71 46,71 46,72 46,72 46,72 46,72 46,72 46,72 46,72 46,72 47,72 47,72 47,72 47,72 47,72 47,72 47,72 47,72 47,72 48,72 48,72 48,73 48,73 48,73 48,73 48,73 48,73 48,73 48,73 48,73 48,73 48,73 48,74 48,74 48,74 48,74 48,74 48,74 49,74 49,74 49,74 49,74 49,74 49,74 49,74 49,74 49,74 49,74 49,74 49,74 49,74 49,74 50,74 50,75 50,75 50,75 50,75 50,75 50,75 50,75 50,75 50,75 50,75 50,75 50,75 50,75 50,75 50,76 50,76 51,76 51,76 51,76 51,76 51,76 51,76 51,76 51,76 51,76 51,76 51,76 51,76 51,76 51,76 51,76 51,76 51,76 51,77 51,77 51,77 51,77 51,77 51,77 51,77 51,77 51,77 51,77 51,77 51,77 51,77 51,77 51,77 51,77 51,77 51,77 51,77 51,77 51,77 51,78 52,78 52,78 52,78 52,78 52,78 52,78 52,78 52,78 52,78 52,78 52,78 52,78 52,78 52,78 52,79 52,79 52,79 52,79 52,79 52,79 52,79 52,79 52,79 52,79 52,79 52,79 52,79 52,79 52,79 52,79 52,79 52,79 53,79 53,79 53,79 53,79 53,79 53,79 53,79 53,79 53,79 53,79 53,79 53,79 53,80 53,80 53,80 53,80 53,80 53,80 53,80 53,80 53,80 53,80 53,80 53,80 53,80 53,80 53,80 53,80 53,80 53,80 53,80 53,80 53,80 54,80 53,80 53,80 54,80 54,80 54,80 54,80 54,80 54,81 54,81 54,81 54,81 54,81 54,81 54,81 54,81 54,81 54,81 54,81 54,81 54,81 54,81 54,81 54,81 54,81 54,81 54,81 54,81 54,81 54,81 54,81 54,81 54,81 54,81 54,81 54,81 54,82 54,82 54,82 54,82 54,82 54,82 54,82 54,82 54,82 54,82 54,82 54,82 54,82 54,82 54,82 54,82 54,82 54,83 54,83 54,83 54,83 54,83 54,83 54,83 54,83 54,83 54,83 54,83 54,83 54,83 54,83 54,83 55,83 55,83 55,83 55,84 55,84 55,84 55,84 55,84 55,84 55,84 55,84 55,84 55,84 55,84 55,84 56,84 56,84 56,84 56,84 56,84 56,84 56,84 56,84 56,84 56,84 56,84 56,84 56,84 56,84 56,84 56,84 56,84 56,84 56,84 56,84 57,84 57,84 57,84 58,84 58,84 59,84 59,84 59,84 59,84 60,84 60,84 60,84 60,84 60,84 60,84 60,84 60,83 60,83 61,83 61,83 61,83 61,83 61,83 61,83 61,83 61,83 61,83 62,83 62,83 62,83 62,83 63,83 63,84 63,84 64,84 64,84 64,84 64,84 64,84 64,84 64,84 64,84 64,84 64,84 65,84 65,84 65,84 65,84 65,85 65,85 65,85 65,85 66,85 66,85 66,85 67,85 67,85 67,85 67,85 67,85 67,85 67,85 67,85 67,85 68,85 68,85 68,85 68,85 68,85 68,85 68,84 68,84 68,84 68,84 68,84 68,84 68,84 69,84 69,84 69,84 69,84 69,84 69,84 69,84 69,83 69,83 69,83 69,83 69,83 69,83 69,83 69,83 69,83 69,83 69,82 70,82 70,82 70,82 70,82 70,82 70,82 70,82 70,82 70,81 70,81 70,81 70,81 70,81 70,81 70,81 70,81 70,80 71,80 71,80 71,80 71,80 71,80 71,80 72,80 72,80 72,80 72,79 72,79 73,79 73,79 73,79 73,79 73,79 73,79 73,79 73,79 74,79 74,79 74,79 74,79 74,79 74,79 74,79 74,79 74,79 74,79 74,79 74,79 75,79 75,79 75,79 75,79 75,79 75,79 75,79 75,79 75,79 75,79 75,79 76,79 76,79 76,79 77,79 77,80 77,80 78,80 78,80 78,80 78,80 78,80 78,80 79,81 79,81 80,81 80,81 81,82 81,82 81,82 81,82 82,82 82,83 82,83 82,83 83,83 83,83 83,83 83,83 83,83 83,84 83,84 84,85 84,85 84,85 84,85 84,85 85,85 85,85 85,86 85,86 85,86 87,86 87,86 87,87 88,87 88,87 88,87 88,87 88,87 89,87 89,87 90,87 90,87 91,87 91,87 91,87 93,87 93,87 93,87 93,87 93,86 93,86 93,86 93,86 94,86 95,85 95,85 95,85 95,85 95,85 95,85 95,85 95,85 96,84 96,84 96,84 96,83 96,83 96,83 96,83 96,83 96,83 96,83 96,83 96,83 96,83 96,83 96,83 96,83 96,83 97,82 97,82 97,82 97,82 97,82 97,82 97,81 97,81 97,82 97,82 98,80 98,80 99,80 99,80 99,80 99,80 99,80 100,80 100,80 100,80 100,80 101,79 101,79 101,79 101,79 101,79 101,79 102,79 102,79 103,79 103,79 103,79 103,79 103,79 103,79 102,79 103,79 103,78 103,78 104,78 104,78 104,77 104,77 105,77 105,77 105,77 105,77 105,77 105,77 106,77 106,77 106,77 106,77 106,77 106,77 106,77 107,77 107,77 107,77 108,77 108,77 108,77 108,77 108,76 108,76 108,77 108,76 108,76 108,76 108,76 108,76 108,76 108,76 108,76 109,76 109,76 109,76 109,76 109,76 109,76 109,76 110,76 110,76 110,76 110,76 110,76 111,76 111,76 111,76 111,75 111,75 111,75 111,75 111,75 112,75 112,75 112,75 112,75 112,75 112,75 112,75 113,75 113,75 113,75 113,75 113,75 113,75 114,75 114,75 114,75 114,75 114,75 114,75 114,75 114,75 115,75 115,75 115,75 115,75 115,75 115,75 115,75 116,75 116,75 116,75 116,75 116,75 116,75 116,75 116,75 117,75 117,75 117,75 117,75 117,75 117,75 117,75 117,75 117,75 117,75 117,75 117,75 117,75 118,75 118,75 118,75 118,75 118,75 118,75 118,75 118,75 118,74 118,74 118,74 118,74 118,74 118,74 117,74 116,73 116,73 115,73 115,73 115,72 115,72 115,72 115,72 115,72 114,72 114,72 114,71 114,71 114,71 113,71 113,71 112,70 112,70 111,69 111,69 110,69 109,69 108,69 108,69 108,68 107,68 107,68 107,68 107,67 107,67 107,67 107,67 107,67 107,67 106,67 106,67 106,66 106,66 107,66 107,65 106,65 106,65 106,65 106,65 106,65 106,65 106,64 106,64 107,64 107,63 107,63 107,63 107,62 107,62 107,61 107,61 107,60 108,60 108,60 108,60 109,59 109,59 109,58 109,58 109,58 108,58 108,58 108,58 108,58 108,58 108,58 108,57 108,57 108,57 108,57 108,57 108,57 108,57 108,57 108,57 109,57 109,57 110,56 110,56 111,56 112,56 112,56 112,56 113,56 114,57 114,57 114,57 114,57 115,57 115,57 115,57 115,57 115,57 115,57 115,57 115,57 115,57 115,57 116,57 116,57 116,57 116,57 117,57 117,57 117,57 117,57 117,57 117,56 118,56 118,56 118,56 118,56 118,56 118,56 118,56 119,56 119,56 119,56 119,56 120,56 120,57 120,57 120,57 120,57 120,57 121,57 121,57 121,57 121,58 121,58 121,58 121,58 122,58 122,58 122,58 122,58 122,58 122,58 122,58 122,57 122,57 123,58 123,58 124,58 124,58 125,58 125,57 125,57 126,58 127,58 127,58 127,58 127,58 127,58 127,57 127,57 127,57 127,57 127,58 127,58 127,58 127,58 127,58 127,58 127,58 127,58 127,58 127,58 128,58 128,58 128,58 128,58 128,58 128,58 128,59 128,59 128,59 128,59 128,59 128,59 128,59 128,59 128,59 128,59 128,59 128,59 128,59 128,59 128,59 129,59 129,60 129,60 129,60 129,60 129,60 129,60 129,60 129,60 129,60 129,60 129,60 129,60 129,60 129,60 129,60 129,60 129,60 129,60 129,60 129,60 130,60 130,60 130,60 130,60 130,60 130,60 130,60 130,60 130,60 130,60 130,60 130,60 130,60 130,60 130,60 130,60 130,60 130,61 130,61 130,61 130,61 131,61 131,61 131,61 131,61 131,61 131,61 131,61 131,61 131,61 132,62 132,62 132,62 132,62 132,63 133,63 133,63 133,63 133,63 133,63 133,63 133,63 133,63 133,63 134,63 134,63 134,63 134,63 134,63 134,62 134,62 134,62 134,62 134,62 134,62 134,62 134,62 134,62 134,62 135,62 135,62 135,62 135,62 135,62 135,62 135,62 135,62 135,62 135,62 135,62 135,62 136,62 136,62 136,62 136,62 136,62 136,62 136,62 136,62 136,62 136,62 136,62 136,62 136,61 136,61 136,61 137,61 137,61 137,61 137,61 137,61 137,61 137,61 137,61 137,61 137,61 137,60 138,60 138,60 138,60 138,60 138,60 138,60 138,60 138,60 138,59 138,59 138,59 138,59 138,59 138,59 139,59 139,59 139,59 139,59 139,59 139,58 139,58 139,58 139,58 140,58 141,59 141,59 141,59 141,59 142,59 143,59 143,59 144,58 145,58 145,58 145,58 146,58 146,57 146,57 147,56 148,56 148,55 148,55 148,55 148,54 148,54 148,54 148,54 149,53 149,53 149,52 149,52 149,52 150,52 150,52 150,52 150,51 150,51 150,51 150,51 150,51 151,51 151,51 151,51 151,51 152,52 152,52 152,52 152,52 152,52 153,53 154,53 154,53 154,53 154,53 154,53 155,54 155,54 155,54 155,54 154,54 154,54 154,55 154,55 154,55 154,55 154,55 154,55 154,55 154,55 154,56 154,56 154,56 154,56 154,56 154,56 155,56 155,56 156,57 156,57 156,57 157,57 157,57 158,57 158,57 158,57 159,57 160,57 160,56 160,56 160,56 161,57 163,57 163,57 164,57 164,57 165,57 165,57 165,57 165,57 166,57 166,57 166,57 167,57 167,57 167,57 168,57 169,57 169,57 170,56 170,56 171,56 171,56 171,56 171,56 171,56 171,56 171,55 171,55 171,55 170,54 170,54 170,54 170,54 170,54 170,54 170,54 170,53 170,53 170,53 170,53 170,53 170,53 170,53 170,53 172,52 173,52 173,51 173,51 174,51 174,51 174,51 175,50 175,50 175,50 176,50 176,49 176,49 177,49 177,49 178,48 178,48 178,48 178,48 178,48 179,48 179,48 179,48 179,48 180,48 180,48 181,48 181,48 183,49 183,49 183,49 183,49 183,50 183,50 183,50 183,51 183,52 183,52 183,52 184,52 184,53 185,54 185,54 185,54 186,54 186,54 188,55 188,56 189,56 189,56 189,57 189,57 189,57 190,58 190,58 190,58 190,59 190,59 190,59 190,60 190,60 191,61 191,61 191,62 191,62 191,62 191,62 191,62 191,62 192,63 192,63 193,63 194,64 194,64 195,64 195,64 195,64 195,64 195,64 195,65 195,65 195,66 195,66 195,66 195,66 195,67 194,67 194,67 195,67 195,68 195,68 195,68 195,68 195,69 195,69 195,69 196,69 196,69 196,69 196,69 196,70 197,70 197,70 197,70 197,70 198,70 199,70 199,70 199,70 200,70 201,70 202,70 202,70 202,70 202,70 202,70 203,70 203,71 203,71 203,71 203,71 204,72 204,72 204,72 204,72 204,72 204,73 204,74 204,74 204,74 204,74 204,75 203,75 203,75 203,75 204,76 204,76 204,76 204,77 205,77 205,77 206,78 207,78 207,78 208,78 208,78 208,78 209,78 209,79 210,79 210,79 210,79 211,79 211,80 212,80 213,81 213,81 214,81 214,81 215,81 216,81 216,81 216,81 216,81 216,81 216,81 216,81 216,81 216,80 216,80 216,80 216,80 216,79 216,79 215,79 215,78 215,78 215,78 215,77 216,77 216,77 216,77 216,77 216,77 216,77 218,77 220,77 221,77 221,77 222,77 222,77 222,77 223,77 223,77 224,76 224,76 224,76 226,76 226,76 226,76 227,76 227,76 227,76 227,77 227,77 227,78 227,78 227,79 227,79 227,80 227,80 227,80 228,81 228,81 228,81 228,82 228,82 228,82 229,82 229,82 229,83 229,83 229,83 230,83 230,83 230,83 231,83 231,82 231,82 232,82 232,82 232,82 233,82 233,82 234,81 234,81 235,81 236,80 237,80 237,79 237,79 238,79 240,78 240,78 241,77 241,77 241,77 242,77 242,77 242,77 242,77 242,77 242,77 242,77 243,80 243,80 244,81 244,81 244,81 244,81 244,81 244,81 245,81 245,81 245,81 246,81 246,81 246,81 246,81 247,80 247,80 247,80 247,80 248,79 248,79 248,79 248,79 248,79 248,79 248,79 249,79 249,79 249,79 249,80 250,80 250,80 250,81 250,81 250,81 251,81 251,81 251,81 251,81 251,80 251,80 251,80 252,80 252,80 252,80 252,79 252,79 252,78 252,78 253,78 253,77 253,77 254,77 255,77 255,76 256,76 256,76 256,76 256,76 257,76 257,76 258,76 258,75 258,75 259,75 259,74 259,74 259,74 259,74 259,74 260,74 260,73 260,73 260,73 260,73 260,73 260,73 260,73 261,73 261,73 261,73 261,73 261,73 261,73 261,73 262,73 262,73 262,73 262,73 262,73 263,73 263,72 263,72 264,72 264,72 264,72 264,72 265,72 265,72 265,72 265,71 265,71 265,71 265,71 266,70 266,70 266,70 266,70 266,70 266,70 266,70 266,70 267,70 267,69 267,69 267,69 268,69 268,69 268,69 268,69 268,68 268,68 268,68 269,68 269,67 269,67 269,67 269,67 269,67 269,67 269,67 270,66 269,66 269,66 269,66 270,66 270,66 270,66 270,66 270,66 270,66 270,66 270,66 270,65 270,65 270,65 270,65 271,64 271,64 271,64 271,64 271,64 272,64 272,64 272,64 272,64 272,63 272,63 272,63 272,63 272,63 272,63 272,63 272,63 272,63 272,62 272,62 272,62 273,62 273,61 272,62 273,61 273,61 273,61 273,60 273,60 274,59 275,59 275,58 275,58 276,58 276,58 276,58 276,58 276,58 276,58 276,58 276,57 277,57 277,56 278,56 279,56 279,56 279,56 280,56 280,56 281,56 282,55 282,55 282,55 283,55 283,55 283,55 283,55 284,55 284,55 284,55 284,55 284,55 285,55 285,55 285,55 285,55 286,55 286,55 286,55 286,55 286,55 286,55 286,55 286,55 286,55 286,55 287,55 287,55 287,55 288,54 288,54 289,54 289,54 289,54 289,54 289,54 290,54 290,54 290,54 290,54 291,54 291,54 291,54 291,54 291,53 292,53 293,53 293,53 293,52 294,52 294,52 294,52 294,52 295,51 295,51 296,51 296,51 296,51 296,51 297,51 298,51 298,51 299,50 299,50 300,50 301,50 301,50 301,50 301,50 302,49 302,49 302,49 303,49 304,49 304,49 305,49 305,48 305,48 305,48 306,48 306,47 306,47 306,47 306,47 307,47 307,47 307,47 307,47 307,47 307,46 307,46 307,46 307,46 307,46 307,46 307,46 307,45 307,45 307,45 307,45 307,45 307,45 308,45 308,45 308,45 308,45 308,45 308,44 308,44 308,44 308,44 308,44 308,44 308,44 308,44 308,44 308,44 308,43 308,43 308,43 308,43 309,43 309,43 309,43 309,43 309,43 309,42 309,42 309,42 309,42 309,42 309,42 309,42 309,42 309,42 309,41 309,41 310,41 310,41 309,41 309,41 309,41 309,41 309,40 309,40 309,40 309,40 309,40 309,39 309,39 308,39 308,39 306,38 306,38 306,38 306,38 306,38 306,38 306,37 306,37 306,37 307,37 307,37 307,37 307,37 308,37 308,37 308,37 308,37 308,37 308,37 308,36 308,36 308,36 308,36 308,35 308,35 308,35 308,35 308,35 308,35 308,35 308,35 308,34 308,34 308,34 308,34 308,34 309,34 309,34 309,34 309,34 309,33 309,33 309,33 309,33 309,33 309,33 309,33 309,33 309,33 309,33 309,33 309,33 309,32 309,32 309,32 309,32 309,32 309,32 309,32 309,31 309,31 310,31 310,31 310,31 311,31 311,31 311,31 311,31 311,31 311,30 311,30 311,29 311,29 311,29 313,29 313,29 314,29 314,29 314,29 314,29 314,29 314,29 314,29 314,28 314,28 314,28 314,27 314,27 314,27 314,27 314,27 314,27 314,27 315,26 316,25 316,25 316,25 317,24 317,24 317,24 318,24 320,23 321,22 321,22 321,22 321,22 322,22 323,22 324,22 324,22 325,22 325,22 325,22 325,22 326,23 327,23 327,23 327,23 328,24 328,24 328,24 328,24 328,24 329,24 329,24 330,23 330,23 330,23 330,23 330,23 330,23 330,23 331,23 331,23 331,23 331,23 331,23 331,22 332,21 332,21 332,21 332,20 332,20 332,20 332,20 333,20 333,20 333,20 333,20 333,19 333,19 334,19 334,19 334,18 334,18 334,18 334,18 334,18 334,18 334,18 334,18 334,18 334,17 334,17 334,17 334,17 334,17 334,17 334,17 334,17 334,17 333,17 333,17 333,16 333,16 333,16 333,16 333,16 333,16 333,16 333,16 333,16 333,16 333,15 333,15 333,15 333,15 333,15 333,15 333,15 333,15 333,14 333,14 333,14 333,14 333,14 333,14 333,14 333,14 333,14 333,14 334,13 334,13 333,13 334,13 334,13 334,13 334,13 334,13 334,13 334,12 334,12 334,12 334,12 334,12 334,12 334,12 334,12 334,12 334,11 334,11 334,11 334,11 334,11 334,11 334,11 334,11 334,10 334,10 334,10 334,10 334,10 334,10 334,9 334,9 334,8 334,8 334,8 334,8 334,8 334,7 334,7 334,7 334,7 334,7 334,7 334,7 334,6 334,6 334,6 334,6 334,6 334,6 334,6 334,5 334,5 334,5 334,5 334,4 334,4 334,4 334,4 334,4 334,4 333,4 333,4 333,4 333,4 333,3 333,3 333,3 333,3 333,3 333,3 333,3 332,3 331,2 331,2 331,2 331,1 331,1 331,1 331,1 331,0 331,0 333,0 333,0 333,0 333,0 334,1 335,1 335,1 335,1 335,1 335,1 336,1 336,1 336,1 336,1 336,1 336,1 336,1 337,1 337,1 338,1 338,1 338,1 339,1 339,1 339,1 340,1 340,1 340,1 340,1 342,1 342,1 342,1 342,1 343,1 343,1 343,1 343,1 344,0 344,0 344,0 345,0 345,0 345,0 345,0 345,0 346,0 346,0 346,0 346,0 346,0 346,0 346,0 346,0 346,0 346,1 346,1 346,1 346,1 346,1 346,1 347,1 347,1 347,2 348,2 348,2 348,2 348,2 348,2 348,2 348,2 348,2 348,2 348,3 348,3 348,3 348,3 348,3 348,3 348,3 348,3 348,3 348,3 348,3 348,3 348,3 348,4 348,4 348,4 348,4 348,4 348,4 348,4 347,4 348,4 348,4 348,4 348,5 348,5 348,5 348,5 348,5 348,5 348,5 348,5 348,5 348,5 347,5 347,5 347,5 347,5 347,5 347,5 347,5 347,6 347,6 347,6 347,6 347,6 347,6 347,6 347,6 347,6 347,6 347,6 347,6 347,6 347,6 347,6 347,6 347,6 347,6 347,6 347,6 347,6 347,6 347,6 348,6 348,6 348,6 348,6 348,6 348,6 348,6 348,6 348,6 349,6 349,6 349,6 349,6 349,6 349,7 349,7 349,7 349,7 349,7 349,7 349,7 350,7 350,7 350,7 350,7 350,7 350,7 350,7 350,7 350,7 350,7 350,7 350,7 350,7 350,7 351,7 351,7 351,7 351,7 351,7 351,8 351,8 351,8 351,8 351,8 351,8 351,8 351,8 351,8 351,8 351,8 351,8 351,8 352,8 352,8 352,9 352,9 352,9 352,9 352,9 352,9 352,9 352,9 352,9 353,9 353,9 353,9 353,9 353,9 353,9 353,9 353,9 353,9 353,9 353,9 353,10 353,10 353,10 353,10 353,10 353,10 354,10 354,10 355,11 355,11 355,11 355,11 355,11 355,11 355,11 355,11 355,11 355,11 355,11 355,11 355,11 355,11 355,11 355,11 355,11 355,11 355,11 355,11 355,11 355,11 355,11 355,11 355,11 355,11 355,11 355,11 355,12 355,12 355,12 356,12 356,12 356,12 356,12 356,12 356,12 356,12 356,12 356,12 356,12 356,12 356,12 356,12 356,12 356,12 356,11 356,11 356,11 356,11 356,11 356,11 356,12 356,12 356,11 357,11 357,11 357,12 357,12 357,12 357,12 357,12 357,12 357,12 357,12 357,12 357,12 357,12 358,12 358,12 358,12 358,12 358,12 358,12 358,12 358,12 358,12 358,12 358,12 358,13 358,13 359,13 359,13 359,13 359,13 359,13 359,13 359,13 359,13 359,13 359,13 359,13 359,13 359,13 359,13 359,13 359,13 359,13 359,13 359,13 359,13 359,13 359,13 359,13 359,14 359,14 359,14 360,13 360,13 360,14 360,14 360,15 361,15 361,15 361,15 361,16 361,16 361,16 361,16 361,16 361,16 361,16 361,16 361,16 361,16 361,16 361,16 361,16 361,16 361,16 361,16 362,16 362,16 362,16 362,16 362,16 362,16 362,16 362,16 362,16 362,17 362,17 362,17 361,17 361,17 361,17 361,18 362,18 362,18 362,18 362,18 362,18 362,18 362,18 362,18 362,18 362,18 362,18 362,18 362,18 362,18 362,18 362,18 362,18 362,18 362,19 362,19 362,19 362,19 362,19 362,19 362,19 362,19 362,19 362,19 362,19 362,19 362,19 362,19 362,19 362,19 362,19 362,20 362,20 362,20 362,20 363,20 363,21 363,21 363,21 363,21 363,21 364,21 364,21 364,21 364,21 364,21 364,21 364,21 364,22 364,22 364,22 365,22 364,22 364,22 365,22 365,22 365,22 365,22 365,22 365,22 365,22 365,22 365,22 365,22 365,22 365,22 365,22 366,22 366,22 366,22 366,21 366,21 366,21 367,21 367,21 367,21 367,21 367,21 367,21 368,21 368,21 369,21 369,21 369,21 369,20 369,20 369,20 369,20 370,20 370,20 370,20 371,20 373,20 373,20 373,20 374,20 374,20 374,20 375,20 375,20 375,20 375,20 375,20 376,20 376,20 376,20 376,20 376,20 376,20 377,20 377,20 377,20 377,20 377,20 377,20 377,20 377,20 377,20 378,20 379,20 381,20 381,20 381,20 381,20 381,20 382,20 382,20 382,20 383,19 383,20 383,20 383,20 383,20 383,20 384,21 384,21 384,21 384,21 384,21 384,21 384,21 384,22 384,22 384,22 384,22 383,22 383,22 383,22 383,22 383,22 383,23 383,23 383,23 383,23 383,23 383,23 384,23 384,23 384,23 384,23 384,23 384,23 384,23 384,23 384,23 384,24 384,24 384,24 384,24 384,24 384,24 385,24 385,24 385,24 385,24 384,24 384,24 384,24 384,24 385,24 385,24 385,24 385,24 385,24 385,24 385,24 385,24 385,24 385,24 385,25 385,25 385,25 385,25 385,25 385,25 385,25 385,25 385,25 385,25 385,25 385,25 385,25 385,25 385,25 385,25 386,25 386,25 386,25 386,25 386,25 386,25 386,25 386,25 386,25 386,25 386,25 386,25 386,25 386,25 386,25 386,25 386,25 386,25 387,25 387,25 387,25 387,25 387,25 387,25 387,25 387,25 387,25 387,25 387,25 387,25 387,25 387,25 388,25 388,25 388,25 388,25 388,25 388,25 388,25 388,25 388,25 388,25 388,25 388,25 388,25 388,25 388,25 389,26 389,26 389,26 389,26 389,26 389,26 389,26 389,26 389,26 389,26 389,26 389,26 389,26 389,26 389,26 389,26 389,26 389,26 389,26 389,26 389,26 388,26 388,26 388,27 388,27 388,27 388,27 388,27 389,27 389,27 389,27 389,27 389,27 389,27 388,27 388,27 388,27 388,27 388,27 388,28 388,28 388,28 388,28 388,28 388,28 388,28 388,28 388,28 388,28 388,28 388,28 388,28 388,28 388,28 388,28 388,28 388,28 388,28 388,28 388,28 388,28 388,28 388,28 388,29 388,29 388,29 388,29 388,29 388,29 388,29 388,29 389,29 389,29 389,29 389,29 389,29 389,29 389,29 389,29 389,29 389,29 389,30 389,30 389,30 389,29 389,29 389,29 389,29 389,29 389,29 389,30 389,30 389,30 389,30 389,30 389,30 389,30 389,30 389,30 390,30 390,30 390,30 390,30 390,30 391,30 391,30 391,30 391,30 391,30 391,30 391,30 391,30 391,30 391,30 391,30 392,30 392,30 392,30 392,30 392,31 392,31 392,31 392,31 392,31 392,31 392,31 393,31 394,32 394,32 394,32 396,32 396,32 396,32 397,32 397,32 397,32 397,32 398,32 398,32 398,32 398,32 398,32 398,32 398,32 398,32 398,32 399,32 399,32 399,32 399,32 399,32 400,32 400,32 400,32 399,33 399,33 400,33 400,33 400,34 400,34 400,34 400,34 400,34 401,34 401,34 401,35 401,35 401,35 401,35 401,35 401,35 401,35 401,35 401,36 401,37 401,37 402,37 402,37 402,37 402,37 403,37 403,37 403,37 403,37 404,38 404,38 404,38 404,38 405,38 405,38 405,38 406,38 407,38 407,38 407,38 407,38 407,39 407,39 407,39 407,39 407,39 407,40 407,40 407,40 407,40 407,40 407,40 407,40 407,40 407,40 407,41 407,41 407,41 407,41 407,41 407,41 407,42 407,42 407,42 407,42 407,42 407,43 407,43 407,43 408,42 409,42 409,42 409,43 409,43 409,43 409,42 409,42 409,42 409,43 410,43 411,43 411,43 411,43 411,43 411,43 412,43 412,43 412,43 412,44 413,44 413,44 414,44 414,44 414,43 414,43 415,43 415,44 415,44 416,44 416,44 416,44 416,44 416,44 416,44 416,44 416,44 417,44 417,44 417,44 417,44 417,44 418,44 418,44 418,44 419,44 419,44 419,44 420,44 420,44 420,44 420,44 420,44 420,45 420,45 421,45 421,44 421,44 422,44 422,44 422,45 422,45 423,44 423,45 423,45 423,44 424,44 424,44 424,44 424,44 424,44 424,45 424,45 424,45 424,45 424,45 424,45 424,45 424,45 424,45 424,45 424,45 424,45 424,45 424,45 424,45 424,45 424,45 424,45 424,45 424,45 424,46 424,46 424,46 424,46 424,46 424,46 424,46 424,46 424,46 424,46 424,46 424,46 424,46 424,46 424,46 424,46 424,46 424,46 424,46 425,46 425,46 424,46 424,46 424,46 424,47 424,47 424,47 424,47 424,47 424,47 424,47 424,47 424,47 424,47 424,47 424,47 424,47 424,47 424,47 424,47 424,47 424,47 424,47 424,47 424,48 424,48 425,48 425,47 425,47 425,48 425,48 425,48 425,48 425,48 425,48 425,48 425,48 425,48 425,48 425,48 425,48 425,48 425,48 425,48 425,48 425,48 425,48 425,48 425,48 425,49 425,49 426,49 426,49 426,49 426,49 425,49 425,49 425,49 425,49 425,49 425,49 425,49 425,49 425,49 425,49 425,49 425,49 425,49 425,49 425,49 426,49 426,49 426,49 426,49 426,50 426,50 426,50 426,50 426,50 426,50 426,50 426,50 426,50 426,51 426,51 426,51 426,51 426,51 426,51 426,51 426,51 426,51 426,51 426,51 426,51 426,51 426,51 426,51 426,51 425,51 425,51 425,51 425,51 425,51 425,52 425,52 426,52 426,52 426,52 425,52 425,52 425,52 425,52 425,52 425,52 425,52 425,52 425,52 425,52 425,53 424,53 425,53 424,53 424,53 424,53 425,53 425,53 425,53 425,53 425,53 425,53 425,53 425,54 426,54 426,54 426,54 426,54 426,54 426,54 426,54 426,54 426,54 427,54 427,54 427,54 427,54 427,54 427,54 427,54 427,54 427,54 427,54 427,54 427,54 427,54 427,54 427,54 427,54 428,54 428,54 428,55 428,55 428,55 428,55 428,55 428,55 428,55 428,55 428,55 428,56 428,56 428,56 428,56 428,56 428,56 428,56 428,56 428,56 428,56 428,57 428,57 428,57 428,57 428,57 428,57 428,57 428,57 428,57 428,57 428,57 428,57 428,57 428,57 428,57 428,57 428,58 428,58 428,58 428,58 428,58 428,58 428,58 428,58 428,58 428,58 428,58 428,58 428,58 428,58 428,58 428,58 428,58 428,59 428,59 428,59 428,59 428,59 428,59 428,59 428,59 428,59 428,59 428,59 428,59 428,59 428,59 428,59 428,59 428,59 428,60 428,60 428,60 428,60 428,60 428,60 428,60 428,60 428,60 428,60 428,60 428,60 428,60 428,60 428,60 428,60 428,60 428,61 428,61 428,61 428,61 428,61 428,61 429,61 429,61 429,61 429,61 429,61 429,61 429,61 429,61 429,61 429,61 429,61 429,61 429,61 429,61 429,61 429,61 430,62 430,62 430,62 430,62 430,62 430,61 430,61 430,61 430,61 430,61 431,61 431,61 431,62 431,62 431,62 431,62 431,62 431,62 431,62 431,63 431,63 431,63 431,63 431,63 431,63 431,64 431,64 431,64 431,64 431,64 432,64 432,64 432,64 432,64 432,64 432,64 432,64 432,64 432,65 432,66 432,66 432,67 432,67 432,67 432,68 432,68 432,68 432,69 432,69 432,70 432,70 432,70 432,71 432,71 432,71 432,71 432,71 432,72 432,72 432,72 434,72 434,72 434,72 434,73 434,73 434,73 434,74 434,74 434,74 434,75 434,75 434,75 434,75 434,75 434,75 434,75 434,75 434,75 434,75 434,75 434,75 434,75 435,75 435,75 435,75 435,75 435,75 435,75 435,75 435,75 435,76 435,76 435,77 435,77 435,77 435,78 435,78 435,79 435,79 435,79 435,79 435,80 435,80 435,80 435,80 435,81 435,81 435,82 435,82 434,83 434,83 434,84 434,84 433,84 433,84 433,85 433,85 433,86 433,86 432,87 432,87 432,88 432,88 432,88 432,88 432,88 433,88 433,88 433,88 433,89 433,89 433,89 433,89 433,89 433,91 433,91 434,91 434,91 434,91 434,91 434,91 434,92 434,92 434,92 434,93 434,93 434,93 434,93 434,93 433,93 433,93 433,93 433,93 433,93 433,93 433,93 433,93 432,94 432,94 432,94 432,93 432,93 432,93 431,93 431,94 431,94 431,94 431,94 431,94 431,94 431,94 431,95 430,95 430,95 430,95 430,95 430,95 430,96 430,96 430,96 430,96 430,96 430,96 430,96 431,96 431,96 431,96 431,96 431,96 431,96 431,96 431,96 431,96 431,96 431,96 431,96 431,96 431,96 431,96 431,96 431,96 431,96 431,96 431,96 431,96 432,97 432,97 432,97 432,97 432,97 432,97 432,97 432,97 432,97 432,97 432,97 432,97 432,97 432,97 432,97 432,97 432,97 432,97 432,97 433,98 433,98 433,98 433,98 433,98 433,98 433,98 433,98 433,98 433,98 433,98 433,98 433,98 433,98 433,99 433,99 433,99 434,99 434,99 434,99 434,99 434,99 434,99 434,99 434,100 435,100 435,100 436,100 436,100 436,100 436,100 436,100 436,100 436,100 436,101 436,101 437,101 437,101 437,101 437,101 437,101 438,101 438,102 437,102 437,102 438,103 438,103 438,103 438,103 438,104 438,104 438,104 438,104 438,104 438,104 438,105 438,105 439,105 439,104 440,104 441,104 441,104 441,104 443,105 443,105 444,105 444,105 444,105 445,105 445,105 445,105 445,104 446,104 446,104 447,104 447,104 447,103 448,103 449,103 450,103 451,103 451,103 452,103 452,103 452,103 452,103 453,103 454,103 454,103 454,104 455,104 455,104 455,103 455,103 455,103 455,103 456,102 456,102 456,101 456,101 457,100 457,100 457,100 457,100 457,100 457,99 457,99 457,99 457,99 457,99 457,99 458,98 459,98 459,98 460,98 461,98 462,98 462,98 464,97 464,97 464,97 464,97 465,97 465,96 466,96 465,95 465,95 465,95 465,95 465,95 465,95 465,94 465,94 465,94 466,94 466,94 467,94 467,95 467,95 467,95 468,95 469,95 469,95 469,95 470,94 470,94 470,94 471,93 471,93 471,93 472,94 472,94 473,94 474,94 474,94 475,94 475,94 476,94 476,94 476,94 477,95 477,95 479,95 480,95 480,95 480,95 480,95 480,95 480,95 480,95 480,95 480,95 480,95 480,96 480,96 480,96 480,96 479,96 479,96 479,96 479,96 479,96 479,96 479,96 479,96 479,97 479,97 479,97 479,97 478,97 478,98 478,98 478,98 478,98 478,98 478,98 477,98 477,99 477,99 476,99 476,99 476,99 476,100 476,100 476,100 475,100 475,101 475,101 475,101 474,101 474,102 474,102 473,102 473,102 473,102 472,102 472,102 471,103 471,103 471,103 470,104 470,104 470,104 470,104 471,105 470,105 470,106 470,106 470,106 470,107 469,107 469,108 466,109 465,108 464,108 463,109 463,108 463,109 462,109 463,109 463,109 463,111 463,112 463,114 463,115 462,116 462,117 463,119 463,124 463,125 464,125 465,125 466,125 466,125 466,124 466,124 466,124 466,124 466,124 466,124 466,123 467,123 467,123 467,123 468,122 469,122 469,122 469,122 470,122 470,121 472,121 472,121 474,122 474,122 475,121 475,121 475,121 475,121 475,120 475,120 476,120 476,119 476,119 476,118 476,118 476,118 476,118 476,117 475,117 475,116 475,116 475,115 475,115 475,115 475,114 475,114 475,114 475,114 475,113 475,112 476,112 476,112 477,111 477,111 477,110 479,110 479,109 479,109 480,109 480,108 480,108 481,108 481,108 482,108 482,108 482,108 483,108 484,107 484,107 485,107 485,107 485,107 485,107 486,107 486,107 487,107 487,107 488,107 488,107 488,107 489,106 489,106 489,106 489,106 489,106 489,106 490,106 490,106 490,106 490,106 490,105 491,105 493,104 494,104 495,103 495,103 496,103 496,103 496,102 496,102 496,102 496,102 496,102 497,103 498,103 498,103 498,103 498,103 499,104 499,104 499,104 499,104 500,105 500,105 500,105 500,105 500,106 500,106 500,106 499,106 499,107 498,108 499,109 499,109 499,110 499,111 499,112 499,112 499,112 499,112 499,113 499,113 499,113 499,113 499,113 499,114 499,114 500,114 500,114 500,115 500,115 500,115 500,116 500,116 500,116 500,117 499,117 499,117 499,117 499,117 498,117 498,118 498,118 498,118 498,118 498,118 498,119 498,119 498,119 498,119 498,119 498,120 498,120 497,120 497,120 497,120 497,121 496,121 496,121 496,121 495,121 495,121 495,122 494,122 494,122 494,122 494,122 493,122 493,122 493,123 492,123 492,123 492,124 492,124 492,126 492,126 492,127 493,127 494,127 493,128 493,130 493,131 493,131 493,131 493,132 492,132 492,132 492,133 492,133 491,134 490,134 488,133 487,135 487,136 487,136 487,137 487,137 487,137 487,138 487,138 487,138 486,138 485,138 485,138 485,138 485,138 484,138 483,137 483,137 483,137 483,137 482,137 482,137 481,137 481,136 479,136 478,136 478,135 478,135 476,135 476,136 476,135 475,136 475,136 475,136 474,137 474,137 474,137 473,137 473,138 472,138 472,138 472,138 472,138 472,138 471,138 470,139 470,139 470,139 469,139 469,140 469,140 469,140 468,141 468,141 468,141 468,141 468,141 468,141 468,141 468,142 469,143 469,143 469,143 469,144 469,144 469,145 469,145 469,145 470,145 470,145 470,145 470,146 470,146 470,147 470,148 470,148 470,149 469,149 469,149 468,150 468,150 468,150 468,150 467,150 467,150 467,150 467,151 467,151 467,151 466,152 466,152 466,152 466,152 466,152 466,152 465,152 465,152 465,152 464,152 464,151 463,151 463,151 462,151 462,151 462,151 462,151 461,151 461,151 461,151 461,152 461,152 460,152 460,152 461,153 461,153 461,154 461,154 461,155 461,155 461,156 461,156 461,156 461,157 461,157 460,157 460,157 460,157 460,157 460,158 460,158 458,158 458,158 457,158 457,158 455,159 455,159 455,159 455,159 455,159 455,159 454,159 454,159 454,158 454,158 454,159 453,159 453,159 453,159 453,159 453,159 453,159 452,159 452,159 452,159 452,159 452,159 451,159 451,159 451,159 451,159 450,159 450,159 450,159 450,159 449,159 449,159 449,159 449,159 449,159 448,159 448,159 448,159 447,159 447,159 447,159 447,158 447,158 447,158 446,158 446,158 446,158 445,158 445,158 445,158 445,158 444,158 444,158 444,158 444,158 444,158 444,158 444,158 443,158 443,158 443,158 443,158 443,158 443,158 443,158 443,158 443,159 443,159 442,159 442,159 442,159 442,159 441,159 441,159 440,159 439,159 439,159 439,159 438,159 438,159 438,159 438,159 438,159 438,159 437,160 437,160 437,160 436,160 436,160 436,160 435,160 436,160 436,160 435,160 435,160 435,161 435,161 435,161 435,161 435,161 435,161 435,161 435,161 435,161 434,161 434,161 434,161 434,161 434,162 434,162 434,162 434,162 434,162 434,162 434,162 434,162 434,162 434,162 433,162 433,162 433,162 433,162 432,162 432,162 432,162 432,163 432,163 431,163 430,163 430,163 430,163 429,163 429,163 429,163 429,162 429,162 428,162 428,162 428,162 428,162 428,162 427,162 427,161 426,162 426,162 426,162 425,162 425,161 425,161 425,161 425,161 425,160 424,160 424,160 424,160 424,160 423,160 423,159 422,159 422,159 422,159 422,159 422,159 422,159 422,159 422,159 421,159 421,159 421,159 421,159 421,159 421,159 421,159 420,159 420,159 420,159 420,159 420,158 420,158 420,158 420,159 419,159 419,159 419,159 419,159 419,159 419,159 419,158 419,158 419,158 418,159 418,159 418,159 418,159 418,159 417,159 417,159 417,159 417,159 417,159 417,159 416,160 416,160 416,160 416,160 416,160 416,160 416,160 416,160 416,160 416,160 416,160 416,160 416,160 416,160 416,160 415,160 415,160 415,159 415,159 415,159 415,159 415,159 415,159 415,159 415,159 415,159 415,159 415,159 415,159 415,159 415,159 416,159 416,159 416,158 416,158 416,158 416,158 416,158 416,158 416,158 416,158 416,158 415,158 415,158 416,157 416,157 416,157 416,157 415,157 415,157 415,157 415,157 415,157 415,157 415,157 415,157 415,157 415,157 415,157 415,157 415,157 415,156 414,156 414,157 414,157 414,157 414,157 414,157 414,157 414,157 414,157 413,157 413,157 413,157 413,157 413,157 413,157 413,157 413,157 413,157 412,157 412,157 412,157 412,156 412,156 412,156 412,156 412,156 412,156 412,156 412,156 412,156 412,156 412,156 411,156 411,156 411,155 411,155 411,155 412,155 412,155 412,155 412,155 412,155 412,155 412,155 412,155 412,155 412,155 412,155 413,155 413,155 413,155 413,155 413,155 413,154 413,154 412,154 412,154 412,154 412,155 412,155 412,155 412,155 412,154 412,154 412,154 412,154 412,154 412,154 412,154 412,154 412,154 412,154 412,154 412,154 412,154 411,154 411,154 411,154 411,154 411,154 411,154 411,154 411,154 410,154 410,154 410,153 410,153 410,153 410,153 410,153 409,153 409,153 409,153 409,153 409,153 409,153 409,154 409,154 409,154 409,154 408,154 408,154 408,154 408,154 408,154 408,154 408,154 408,154 408,154 407,154 407,154 407,154 407,154 407,154 407,154 407,153 407,153 407,153 407,153 406,153 406,153 406,153 406,153 407,153 407,153 407,153 407,153 407,152 407,152 407,152 407,152 407,152 406,152 406,152 405,152 405,152 405,152 405,152 405,152 404,152 404,152 404,152 404,152 404,152 404,151 404,151 403,151 403,151 403,151 403,151 403,151 403,151 402,151 402,151 402,151 402,150 402,150 402,150 401,151 401,151 401,151 401,150 401,150 401,150 401,150 401,150 401,150 401,150 401,150 401,150 401,150 400,150 400,150 400,150 400,151 400,151 400,151 400,151 400,151 400,150 400,150 399,150 399,151 399,151 399,151 399,150 399,150 399,150 399,150 399,150 399,150 399,151 399,151 399,151 399,151 398,151 398,151 398,151 398,151 398,151 398,151 398,151 398,151 398,151 398,150 398,150 397,150 398,150 397,150 397,150 397,150 397,150 397,150 397,149 397,149 397,149 397,149 397,149 397,149 397,149 396,149 396,149 396,149 396,149 396,149 396,149 396,148 396,148 396,148 396,148 396,148 396,148 396,148 396,148 396,148 396,148 396,148 396,148 396,148 396,148 396,147 396,147 396,147 396,147 396,147 396,147 395,147 395,147 395,147 395,147 395,147 395,147 395,147 395,147 395,147 395,147 395,147 395,147 395,147 395,147 395,146 395,146 395,146 395,146 395,146 395,146 395,146 395,146 395,146 395,146 395,146 395,146 394,146 394,146 394,146 394,146 394,146 394,146 394,146 394,146 394,146 394,146 394,146 394,146 394,146 394,146 394,146 393,146 393,146 393,146 393,146 393,146 393,146 393,146 393,146 393,146 393,146 392,146 392,146 392,146 392,146 392,146 392,146 392,146 392,146 392,146 392,146 392,146 392,146 391,146 391,146 391,146 391,146 391,146 390,146 390,146 390,146 390,146 390,146 390,146 390,146 389,146 389,146 389,146 389,146 389,146 389,146 389,146 389,146 389,146 389,146 389,146 389,146 389,146 389,146 389,146 389,146 389,146 388,146 388,146 388,146 388,146 388,146 388,146 388,146 388,146 388,146 388,145 388,145 388,145 387,145 387,145 387,145 387,145 387,145 387,145 387,145 387,145 387,145 387,145 386,145 386,145 386,145 386,145 386,145 386,145 386,145 386,145 386,145 386,145 386,145 386,145 386,145 386,145 386,145 386,145 386,145 386,145 386,144 386,144 386,144 386,144 386,144 386,144 386,144 386,144 386,144 386,144 386,143 385,143 385,144 385,144 385,144 385,144 385,143 385,143 385,143 385,143 385,143 385,143 385,143 385,143 385,143 385,143 385,143 385,143 385,142 385,142 385,142 385,142 385,142 385,142 385,142 384,142 384,142 384,142 384,142 384,142 384,142 384,142 384,142 384,142 384,143 384,143 383,143 383,143 383,143 383,143 383,142 383,143 383,143 383,143 383,143 383,143 383,143 383,143 382,143 382,143 382,143 382,143 382,143 382,143 382,143 381,143 381,143 381,143 381,143 381,143 380,143 380,143 380,143 380,143 379,142 379,142 379,142 379,142 379,142 379,142 379,142 379,142 379,142 379,141 379,141 379,141 379,141 379,141 378,141 378,141 378,141 378,141 379,141 379,141 379,141 379,141 379,141 378,141 378,141 378,140 378,140 379,140 379,140 379,140 379,140 378,140 378,140 378,140 378,140 378,140 378,140 378,140 378,140 378,140 378,140 378,139 378,139 378,139 378,139 378,139 378,139 378,139 378,139 377,139 377,139 377,139 377,139 377,139 377,139 377,139 377,139 377,139 377,139 377,139 377,139 377,139 377,139 377,139 377,139 376,139 376,139 376,139 377,139 377,139 377,139 377,139 377,139 376,139 376,138 376,138 376,138 376,138 376,138 376,138 376,138 376,138 375,138 375,138 375,138 375,138 375,138 374,138 374,138 374,138 374,138 374,138 374,138 373,138 373,138 373,138 373,138 373,138 373,137 373,137 373,137 374,137 374,137 374,137 374,137 374,137 374,137 374,137 374,137 374,137 374,137 373,137 373,137 373,137 373,137 373,137 373,137 373,137 373,137 373,138 373,138 372,138 372,138 372,138 372,138 371,138 371,138 371,138 371,138 371,139 371,139 371,139 371,139 371,139 371,139 371,139 371,139 371,139 371,139 371,140 371,140 371,140 371,140 371,140 371,140 371,140 371,140 371,140 371,141 371,141 371,141 371,141 371,141 371,141 372,141 372,141 372,141 372,141 372,141 372,141 372,141 372,141 372,141 372,141 372,142 372,142 372,142 372,142 372,142 372,142 371,142 371,142 371,142 371,142 370,142 370,142 370,142 370,142 370,142 370,142 369,142 369,142 369,142 369,142 369,142 369,142 369,142 368,142 368,142 368,142 368,142 368,142 368,142 368,142 367,142 367,142 367,142 366,142 366,142 366,142 366,142 366,142 366,142 366,142 365,142 365,142 365,142 365,142 364,143 364,143 364,143 363,143 363,143 363,144 362,144 362,144 362,144 362,144 362,144 361,144 361,144 361,144 361,144 360,144 360,144 360,144 360,144 360,144 360,144 360,144 360,144 359,144 359,144 359,144 359,144 359,144 358,144 358,144 358,144 358,144 358,143 358,143 358,143 357,143 357,143 357,143 357,143 357,143 356,143 356,143 355,142 355,142 354,142 354,142 354,142 354,142 354,142 354,142 354,141 353,141 353,141 353,141 353,141 353,141 353,141 353,141 353,141 352,141 352,141 352,141 351,141 351,141 351,141 351,141 350,141 349,141 349,141 349,141 349,141 348,141 348,141 348,141 348,141 347,141 347,141 347,141 347,142 347,142 347,141 346,141 346,141 346,141 346,141 346,141 345,141 345,141 345,141 344,142 344,142 344,142 343,142 343,142 343,142 343,142 342,142 342,141 342,141 341,141 341,141 341,141 341,141 340,141 340,141 340,141 340,141 339,141 339,141 339,141 339,141 339,141 339,141 338,141 338,141 338,141 338,141 338,141 338,141 338,140 338,140 338,140 338,140 338,140 337,140 337,140 337,140 337,140 337,140 337,139 336,139 335,139 335,139 334,139 334,139 334,139 333,139 333,139 333,139 332,139 332,139 332,139 332,139 331,139 331,139 331,139 330,139 330,139 329,139 329,138 329,138 329,138 329,138 329,138 329,138 329,138 328,138 328,138 328,138 328,137 328,137 328,137 327,137 326,136 326,137 326,136 326,136 325,136 325,136 325,136 325,136 324,136 324,136 324,136 324,136 323,135 322,135 321,135 321,134 320,134 320,134 319,133 319,133 319,133 319,133 319,132 318,131 318,131 318,131 318,131 318,131 317,131 316,131 316,131 315,131 315,131 315,131 313,130 313,131 313,131 312,131 312,131 311,132 311,132 311,132 310,132 309,132 308,132 308,132 305,131 305,131 304,131 303,131 303,130 302,130 302,131 302,130 300,131 300,132 299,132 298,133 298,133 298,133 297,134 297,134 297,134 296,134 295,134 295,134 295,134 294,134 294,134 294,134 294,134 293,135 292,134 292,134 291,135 291,135 291,135 290,135 290,135 290,135 290,135 289,135 289,135 289,135 288,135 288,135 288,134 287,134 287,134 287,134 286,134 285,134 286,133 284,133 284,133 283,133 282,133 282,133 282,133 282,133 280,133 279,132 279,131 279,131 278,131 278,131 278,130 278,130 278,130 278,130 278,130 278,130 278,130 278,129 277,129 277,129 277,129 276,129 276,129 276,129 276,129 276,129 276,128 275,128 275,128 275,128 274,128 274,128 274,128 274,128 274,128 274,128 274,128 274,128 274,128 274,128 274,128 274,128 274,128 274,128 274,128 273,128 274,128 274,127 273,127 274,127 274,127 274,127 274,127 273,127 274,127 273,127 273,127 273,127 273,127 273,127 273,127 273,127 273,126 274,126 274,126 273,126 273,126 273,126 273,126 273,126 273,126 273,126 273,126 273,125 273,125 272,125 272,125 273,125 273,125 273,125 273,125 272,125 272,125 272,125 272,124 272,124 272,124 271,124 271,124 271,124 271,124 271,124 270,124 270,124 270,123 270,123 270,124 270,123 270,123 270,123 270,123 270,123 269,123 269,123 269,123 269,123 269,123 269,122 269,122 269,122 268,122 268,122 268,122 267,122 267,122 267,122 267,122 267,122 266,122 266,122 266,122 266,122 265,122 265,121 265,121 265,121 265,122 265,122 264,122 264,122 264,122 264,122 263,122 263,122 263,122 263,122 263,122 263,122 262,122 262,122 262,122 262,122 262,122 261,122 261,122 261,123 261,123 260,122 260,122 259,122 258,123 258,122 258,123 257,123 257,123 257,123 256,123 256,123 256,123 256,123 255,123 255,123 255,123 255,123 255,123 255,123 254,123 254,123 254,123 254,124 254,124 254,124 254,124 254,124 253,124 253,124 253,124 253,124 253,125 253,124 253,124 253,124 253,124 253,124 253,124 253,124 252,124 252,124 252,124 252,124 252,124 252,124 251,124 251,124 251,124 251,124 251,124 251,124 251,124 250,124 250,124 250,124 250,124 250,124 250,124 249,124 249,124 249,124 248,124 248,124 248,124 248,124 248,124 247,124 247,124 247,123 247,123 246,124 246,124 246,124 246,124 246,124 246,124 246,124 245,124 245,124 245,124 245,124 245,124 245,124 245,124 244,124 243,124 243,124 243,123 243,123 243,123 243,123 244,123 243,123 244,123 244,123 243,122 243,122 243,122 243,122 243,122 243,122 243,123 243,123 243,123 242,123 242,122 242,122 241,122 240,121 240,121 240,121 240,121 239,121 239,121 238,121 238,121 238,121 237,121 237,121 237,121 237,121 237,121 237,120 238,120 237,119 237,119 237,119 237,119 237,119 237,118 237,118 237,118 237,118 237,118 237,118 237,118 237,117 237,117 237,117 237,116 237,116 237,116 236,116 236,116 236,116 236,116 236,116 236,116 236,116 236,116 235,116 235,116 235,116 235,116 235,116 235,115 235,115 235,115 235,115 235,115 235,115 235,115 235,115 235,115 235,115 234,115 234,114 234,114 235,114 235,114 234,114 234,114 234,114 234,114 234,114 234,114 234,114 234,113 233,113 233,113 233,113 233,113 233,112 233,112 233,112 233,112 233,112 233,112 232,112 232,112 231,111 231,111 231,111 231,111 231,111 230,111 230,111 230,111 230,111 230,111 229,111 229,111 229,111 229,111 229,111 229,111 229,111 229,111 229,111 229,112 230,112 230,112 230,112 230,113 230,113 230,113 230,113 230,113 230,113 230,113 230,114 230,114 229,114 229,114 229,114 228,114 228,114 227,114 227,114 226,114 226,114 225,114 225,114 225,114 224,113 224,114 224,114 223,113 223,113 223,114 223,114 223,114 223,113 223,113 223,113 223,114 222,114 222,114 222,114 222,114 222,114 222,114 222,114 221,114 221,114 222,114 222,114 221,114 221,114 221,114 221,114 221,115 221,115 220,115 220,115 220,115 220,115 220,116 219,116 219,116 219,116 218,116 217,115 216,115 216,115 215,114 214,114 213,115 212,115 212,115 210,115 210,115 210,115 209,115 208,115 208,115 207,115 206,115 206,115 206,116 206,116 206,115 206,115 205,115 205,115 204,115 203,115 202,115 202,115 201,115 201,115 201,115 200,115 200,115 199,115 198,115 197,114 196,114 196,113 195,113 195,113 193,113 193,113 193,113 193,113 192,113 192,113 191,113 191,113 191,112 190,112 190,112 190,111 189,111 188,111 188,111 188,111 188,110 188,109 188,109 187,109 186,109 184,110 183,110 181,110 179,112 178,112 178,112 177,112 176,112 175,113 175,113 174,114 172,115 166,119 165,119 165,119 165,119 165,119 166,120 167,120 167,121 169,122 169,123 169,123 168,124 169,124 169,124 168,125 168,125 168,125 168,126 168,126 168,126 168,127 168,127 168,127 168,127 168,128 168,128 168,129 168,129 167,129 167,130 167,130 167,130 167,130 167,130 166,130 167,131 166,131 166,131 166,131 166,131 166,131 166,131 166,131 165,131 165,132 165,132 165,132 165,132 165,132 164,132 164,132 164,133 164,133 164,133 164,133 164,133 164,133 164,133 164,134 164,134 163,134 163,135 163,135 163,135 163,135 163,135 163,135 163,135 162,136 162,136 161,136 161,136 160,137 160,137 160,137 160,137 160,137 161,138 161,138 161,138 161,138 161,138 161,139 161,139 161,139 161,139 160,139 160,139 160,140 160,140 160,140 160,140 160,140 160,140 160,141 160,141 160,141 160,141 160,141 160,142 160,142 159,142 159,143 159,143 159,143 159,143 159,143 159,143 158,143 158,144 158,144 157,144 157,144 157,144 156,144 156,144 156,144 155,144 155,144 154,144 154,144 153,143 153,143 153,143 152,142 152,142 151,143 151,143 151,143 150,143 150,143 150,143 150,143 150,143 150,144 150,144 150,145 150,145 150,145 150,145 149,145 149,145 149,145 149,145 148,145 148,145 147,145 147,146 147,146 147,146 146,146 146,146 146,146 146,146 145,146 145,146 145,146 145,146 145,146 144,146 144,146 144,147 144,147 144,147 144,147 144,147 143,147 143,147 143,147 143,147 143,147 143,148 143,148 143,148 143,148 142,148 142,148 142,149 142,149 142,149 142,149 142,149 142,149 142,149 142,149 142,149 142,150 141,150 141,150 141,150 141,150 141,150 141,150 141,150 141,150 141,150 141,150 141,150 140,151 140,151 140,152 140,152 140,152 139,152 139,152 139,152 139,152 139,152 139,152 139,152 138,153 138,153 138,153 138,153 138,153 138,153 138,153 137,153 137,153 137,153 137,153 136,153 136,153 136,153 136,153 135,153 135,153 135,153 134,153 134,153 133,153 132,153 131,154 129,154 128,154 126,154 126,154 125,154 125,155 124,155 123,155 123,156 122,156 122,156 121,156 121,156 120,156 120,155 120,155 120,155 120,155 120,155 119,155 119,155 119,155 119,155 119,154 119,154 119,154 118,154 118,154 118,154 118,154 118,154 118,153 118,153 118,153 118,152 117,152 117,152 117,152 117,152 117,152 117,152 117,152 117,152 117,152 116,153 116,153 116,153 116,153 116,153 115,153 115,153 115,153 115,153 114,153 114,153 113,153 113,153 113,153 113,153 113,153 113,153 112,153 112,153 112,153 112,153 111,154 111,154 111,154 111,155 111,155 111,155 111,155 111,155 110,155 110,155 110,155 110,155 110,156 110,156 110,156 110,156 110,156 110,157 110,157 110,157 110,157 110,157 110,157 111,158 111,158 111,158 111,158 111,158 110,159 110,159 110,159 110,159 109,159 108,159 107,159 108,160 108,161 109,162 109,163 109,163 109,163 109,164 110,165 110,166 108,166 108,165 107,165 107,164 107,164 107,164 107,163 107,163 107,163 107,163 107,163 107,163 106,163 106,162 105,162 105,162 105,162 104,162 104,162 104,162 104,162 103,161 103,161 103,161 103,161 103,161 102,161 102,161 101,161 101,161 101,161 101,161 101,161 100,161 100,161 100,161 100,161 100,161 100,161 100,161 100,161 100,161 100,161 99,161 99,161 99,161 99,162 98,162 98,162 98,162 98,162 98,162 98,162 98,162 98,162 98,163 98,163 98,163 97,163 97,163 97,163 97,163 97,163 97,163 97,164 97,164 97,164 96,164 96,164 96,164 96,164 96,164 96,164 96,164 96,164 96,164 95,164 95,164 95,164 95,165 95,165 95,165 95,165 95,165 95,165 95,165 95,165 95,166 95,166 95,166 95,166 95,166 95,166 95,166 94,166 94,167 94,167 94,167 94,167 94,167 94,167 94,167 94,167 94,167 94,167 94,168 93,168 93,168 93,168 94,168 94,168 93,168 93,168 93,168 93,168 93,168 93,168 93,168 93,168 92,168 92,168 92,168 92,169 92,169 92,169 92,169 92,169 91,169 91,169 91,169 91,169 91,169 91,169 91,169 91,169 91,169 90,169 90,169 90,169 90,169 90,170 90,170 90,170 90,170 90,170 90,170 90,170 90,170 90,170 90,170 90,170 90,170 90,170 90,170 90,170 90,171 90,171 90,171 90,171 90,172 90,172 90,172 90,172 90,172 91,172 91,172 91,172 91,172 91,172 91,172 91,172 91,172 91,172 91,172 91,172 91,172 91,172 91,172 91,173 91,173 91,173 91,173 91,173 91,173 91,173 91,173 91,173 91,173 91,173 91,173 91,173 91,173 91,173 92,173 92,174 92,174 92,174 92,174 92,174 92,174 92,174 92,174 92,174 92,174 92,174 92,175 92,175 92,175 92,175 92,175 92,175 92,175 92,175 92,175 92,175 92,175 92,175 92,175 92,175 92,175 93,175 93,175 93,175 93,175 93,175 93,176 93,176 93,176 93,176 93,176 93,176 93,176 93,176 93,176 93,176 93,176 93,176 94,176 93,176 94,176 94,176 93,176 93,176 94,176 94,177 94,177 94,177 94,177 94,177 94,177 94,177 94,177 94,177 94,177 94,177 94,177 94,177 94,177 94,177 94,178 94,178 94,178 94,178 94,178 94,178 94,178 94,178 94,178 94,178 94,178 94,178 95,178 95,178 95,178 94,178 94,178 95,178 95,179 94,179 94,179 94,179 94,179 94,179 94,179 94,179 94,179 94,179 94,179 94,179 94,179 94,179 94,179 94,179 94,179 94,179 94,179 93,179 93,179 93,180 93,180 93,180 93,180 93,180 93,180 93,180 93,180 93,180 92,180 92,180 92,180 92,180 92,180 92,180 92,180 91,180 91,180 91,180 91,180 91,180 90,180 90,180 90,180 90,180 90,180 90,180 90,180 90,180 90,180 89,180 89,180 89,180 89,180 89,180 89,180 89,180 89,180 89,180 89,180 89,180 89,180 89,180 88,180 88,180 88,180 88,181 88,181 88,181 88,181 88,181 88,181 88,181 88,181 88,181 88,181 88,181 88,181 88,181 88,181 87,181 87,182 87,182 87,182 87,182 87,182 87,182 87,182 87,182 87,182 87,182 87,182 87,182 87,182 87,182 86,182 87,183 87,183 86,183 86,183 87,183 86,183 86,183 86,183 86,184 86,184 86,184 85,184 85,184 84,184 84,184 84,184 84,184 84,184 84,184 84,184 84,184 84,184 84,184 84,184 83,184 83,184 83,184 83,184 83,184 83,185 83,185 83,185 83,185 83,185 82,185 82,185 82,185 82,185 82,185 82,185 82,185 82,185 82,185 82,185 82,185 82,185 82,185 82,185 82,185 82,185 81,185 81,185 81,185 81,185 81,185 81,185 81,185 81,185 81,184 81,184 81,184 81,184 81,184 81,184 81,184 81,184 80,184 80,184 80,184 80,184 80,184 80,184 80,184 79,184 79,184 79,184 79,184 79,184 79,184 79,184 79,184 79,184 79,184 78,184 78,184 78,184 78,184 78,184 78,184 78,184 78,184 78,184 78,184 78,184 78,184 78,184 78,184 78,184 78,184 77,184 77,184 77,184 78,184 77,184 77,184 77,184 77,184 77,184 77,184 77,184 76,185 76,185 76,185 76,185 76,185 76,185 76,185 76,185 76,185 76,185 76,185 75,185 75,185 75,185 75,185 75,185 75,185 75,185 75,185 75,185 75,185 75,185 75,185 75,185 75,185 75,185 75,185 75,185 75,185 75,185 74,185 74,185 74,185 74,185 74,185 74,185 74,185 74,185 74,186 74,186 74,186 74,186 74,186 74,186 74,186 74,186 74,186 73,186 73,186 73,186 73,186 73,186 73,186 73,186 74,186 74,186 74,186 73,187 73,187 73,187 73,187 73,187 73,187 73,187 73,187 73,187 73,187 73,187 73,187 73,187 73,188 73,188 73,188 73,188 73,188 73,188 73,188 73,188 73,188 72,188 72,188 72,189 72,189 72,189 72,189 72,189 72,189 72,189 72,189 72,189 72,189 71,189 71,190 71,190 71,190 71,190 71,190 71,190 71,190 70,190 70,190 70,190 70,190 70,190 70,190 70,190 70,190 70,190 70,190 70,191 70,191 70,191 70,191 70,191 70,191 70,191 70,191 70,191 70,191 69,191 69,191 69,191 69,191 69,191 69,191 69,191 69,191 69,191 69,191 69,191 69,191 69,191 69,191 68,191 68,191 68,191 68,191 68,191 68,191 68,192 68,192 68,192 68,192 68,192 68,192 67,192 67,192 67,192 67,192 66,192 66,192 66,192 66,192 66,192 66,192 66,192 66,192 66,192 66,192 65,192 65,192 65,192 65,192 65,192 65,192 65,192 65,192 64,192 64,192 64,192 64,192 64,192 64,192 64,192 64,193 64,193 64,193 63,193 63,193 63,193 63,193 63,193 63,193 63,193 63,193 63,193 63,193 63,193 63,193 62,193 62,193 62,193 62,193 62,193 62,193 62,193 62,193 62,193 62,193 62,193 61,194 61,194 61,194 61,194 61,194 61,194 61,194 61,194 61,194 61,194 61,194 61,194 61,194 61,194 61,194 61,194 61,194 61,194 61,194 61,194 61,194 61,194 61,194 61,194 61,195 61,195 61,195 61,195 61,195 61,195 60,195 61,195 61,195 61,195 61,195 61,195 60,195 60,195 60,195 60,195 60,195 60,195 60,195 60,195 60,195 59,196 59,195 59,195 59,195 59,195 59,195 59,195 59,195 59,195 59,195 59,195 59,195 59,195 59,195 59,195 59,195 59,195 59,195 58,195 58,195 58,195 58,195 58,195 58,195 58,195 58,195 58,195 58,195 57,195 57,195 57,195 57,195 57,195 57,195 57,195 56,195 56,195 56,194 56,194 56,194 56,194 56,194 56,194 56,194 55,194 55,194 56,194 55,194 55,194 55,194 55,194 55,194 55,194 55,194 55,194 54,194 54,194 54,194 54,194 54,194 54,194 54,194 53,194 53,194 53,194 53,194 53,194 53,193 53,193 53,193 53,193 53,193 53,193 53,193 53,193 53,193 53,193 53,193 52,193 52,193 53,193 53,193 52,193 52,193 52,193 52,193 52,193 52,193 51,193 51,193 51,192 51,192 51,192 50,192 50,192 50,192 50,192 50,192 50,192 49,192 49,192 49,192 49,192 49,191 49,191 49,191 49,191 49,191 49,191 48,191 48,191 49,191 49,191 49,191 49,191 48,191 48,191 48,191 48,191 48,191 48,191 48,191 48,191 48,190 47,190 47,190 47,190 47,190 47,190 47,190 47,190 47,190 47,190 46,190 46,190 46,190 46,190 46,190 45,191 45,191 45,191 44,190 44,190 44,190 44,190 43,190 43,189 43,189 43,189 43,189 43,189 43,189 42,189 42,189 42,189 42,189 42,189 42,189 42,189 42,189 42,190 42,190 42,190 42,190 42,190 41,190 41,190 41,190 41,190 41,190 41,190 41,190 41,190 41,190 41,190 41,190 41,190 41,190 41,190 40,190 40,190 40,190 40,190 40,190 40,190 40,190 40,190 40,190 40,190 40,190 40,190 40,191 40,191 40,191 40,190 40,190 40,190 40,190 40,190 40,190 40,190 40,190 40,190 39,190 39,190 39,190 39,190 39,190 39,190 39,190 39,190 39,190 39,190 39,190 39,190 39,190 39,190 39,190 39,190 39,190 39,190 39,190 39,191 39,190 39,190 39,190 39,190 38,190 38,190 38,190 38,190 38,190 38,190 37,190 37,190 37,190 37,190 37,190 37,190 37,190 37,190 37,190 37,190 37,190 37,190 37,190 37,190 37,190 37,190 37,190 37,190 36,190 36,190 36,190 36,190 36,190 36,190 36,190 36,190 36,190 36,190 36,190 36,190 36,190 36,190 36,190 36,190 36,190 36,190 36,190 36,190 36,190 36,190 36,190 36,190 35,190 35,190 35,190 35,190 35,190 35,190 35,190 35,190 35,190 35,190 35,190 35,190 35,191 35,191 34,190 34,190 34,190 34,190 34,190 34,190 34,190 34,190 34,191 34,191 34,191 34,191 34,191 33,191 33,191 33,191 33,191 33,191 33,191 33,191 33,191 33,191 33,191 33,191 33,191 33,191 33,191 33,191 32,191 32,191 32,191 32,191 32,191 31,191 31,191 31,191 31,191 31,191 31,191 31,191 31,191 31,191 31,191 31,191 31,191 30,191 30,191 30,191 30,191 30,191 30,191 30,191 30,191 29,191 29,191 29,191 29,191 29,191 29,191 29,191 29,191 29,191 29,191 29,190 29,190 28,190 28,190 28,190 28,190 28,190 28,190 28,190 28,190 28,190 28,190 28,190 28,190 28,190 28,190 28,190 28,190 27,190 27,190 27,190 27,190 27,190 27,190 27,190 27,190 27,190 27,190 27,190 27,190 27,190 27,190 27,190 27,190 27,190 27,190 27,190 27,190 26,190 26,189 26,189 27,189 27,189 27,189 26,189 26,189 26,189 26,189 26,189 26,189 26,189 26,189 26,189 26,189 26,189 26,189 26,189 26,189 26,189 26,189 26,189 25,189 25,189 25,189 25,189 25,189 25,189 25,189 25,189 25,189 25,189 25,189 25,189 24,189 24,189 24,189 24,189 24,189 24,189 24,189 24,189 24,189 23,189 23,189 23,189 23,189 23,189 23,190 22,190 22,190 22,190 22,190 22,190 21,190 21,190 21,190 21,190 21,190 21,190 21,190 21,190 21,191 21,191 21,191 21,191 21,191 21,191 21,191 21,191 21,191 21,191 20,191 20,191 20,191 20,191 20,191 19,191 19,191 19,191 19,191 18,191 18,191 18,191 18,191 17,191 17,191 17,191 17,190 17,190 16,190 16,190 16,190 16,190 16,190 15,190 15,190 14,190 14,190 14,190 14,190 14,190 14,190 14,190 13,190 13,190 13,190 13,190 12,190 12,189 12,189 12,189 12,189 12,189 12,189 12,189 11,189 11,189 11,189 11,189 11,189 11,189 11,189 11,189 11,189 11,189 11,189 11,189 11,189 11,189 11,188 11,188 11,188 11,188 11,188 11,188 11,188 11,188 11,188 11,188 11,188 11,188 11,188 11,188 11,188 11,188 11,188 11,188 11,188 11,188 11,187 11,187 11,187 11,187 11,187 11,187 11,187 11,187 11,187 11,187 11,187 10,187 10,187 10,187 10,187 10,187 10,187 10,187 10,186 10,186 10,186 10,186 10,186 10,186 10,186 10,186 10,186 9,186 9,186 9,186 9,186 9,186 9,186 9,186 9,186 8,185 8,185 8,185 8,185 8,185 8,185 8,185 8,185 8,185 8,185 8,185 8,185 8,185 8,185 8,185 7,185 7,185 7,185 7,185 7,185 7,185 7,185 7,185 7,185 7,185 7,185 7,185 7,185 7,185 6,185 6,185 6,185 6,185 6,185 6,184 6,184 6,184 6,184 6,184 6,184 6,184 6,184 6,184 6,184 6,184 6,184 6,184 6,184 6,184 6,184 6,184 6,184 5,184 5,184 5,184 5,184 5,184 5,184 5,184 5,184 5,184 5,184 5,183 5,183 5,183 5,183 5,183 5,183 5,183 5,183 5,183 5,183 5,183 5,183 5,183 5,183 5,183 4,183 4,183 4,183 4,183 4,183 4,183 4,183 4,183 4,183 4,183 4,183 4,183 4,183 4,183 4,183 4,183 4,183 4,182 4,182 4,182 4,182 4,182 4,182 4,182 4,182 4,182 4,182 4,182 4,182 3,182 3,182 3,182 3,182 3,182 3,182 3,182 3,182 3,182 3,182 3,182 3,182 3,182 3,182 3,182 2,182 2,182 2,182 2,181 2,181 2,181 2,181 2,181 2,181 2,181 2,181 2,181 2,181 2,181 2,181 2,181 2,181 2,181 1,181 1,181 1,181 1,181 1,181 1,181 1,181 1,181 1,181 1,181 1,181 1,180 1,180 1,180 0,180 0,180 0,180 0,180 0,180 0,180 0,180 0,180 0,180 0,180 0,180 0,180 0,180 0,179" id="5021" class="canton" fill="steelblue" stroke-width="1" stroke="white" geotype="canton" geoname="Saint-Hilaire-du-Harcout" code_insee="5021" code_departement="50" nom_departement="Manche" code_region="28" nom_region="Normandie"/></svg>