<?xml version="1.0" encoding="utf-8"?>
<svg version="1.1" id="svgmap" xmlns="http://www.w3.org/2000/svg" xmlns:xlink="http://www.w3.org/1999/xlink" x="0px" y="0px" width="100%" height="100%" viewBox="0 0 500 110">
<polygon points="41,6 42,6 46,10 47,11 47,11 47,12 48,12 48,12 49,13 49,13 49,13 49,13 49,13 49,13 50,14 50,14 51,15 52,15 53,15 52,16 52,17 52,17 52,17 51,18 51,18 51,18 51,18 50,19 49,20 49,20 49,20 49,20 48,21 48,21 48,21 47,21 47,22 47,22 47,22 46,22 46,22 46,23 46,23 47,23 47,23 48,23 52,23 53,24 56,24 58,24 58,24 58,24 59,24 60,24 61,24 61,24 62,24 62,25 63,25 63,25 63,25 64,25 65,26 67,26 67,26 68,26 68,26 69,26 71,26 72,26 73,26 74,26 75,26 75,26 76,25 77,25 78,25 81,23 82,23 83,22 86,21 86,21 86,21 92,18 92,18 93,17 93,17 93,17 91,15 91,15 86,14 86,13 89,12 88,11 89,11 90,10 91,9 95,10 96,11 96,11 98,10 104,6 106,7 108,5 108,5 108,5 108,5 112,3 114,4 114,4 114,4 116,2 116,2 117,2 120,2 120,2 120,2 121,2 122,2 122,1 123,0 133,2 134,2 134,2 134,2 143,5 143,5 141,8 141,8 142,8 142,8 142,8 142,8 144,9 144,9 145,8 146,8 147,8 147,8 148,7 149,7 149,7 151,7 152,7 153,7 153,7 153,8 154,7 156,7 156,7 156,7 157,7 158,7 158,7 159,7 160,7 160,7 160,7 160,7 162,8 162,8 163,8 163,8 165,8 165,9 165,9 165,9 165,9 166,9 166,9 171,12 169,14 167,16 165,19 165,19 165,19 166,18 166,18 168,19 168,19 169,19 169,19 169,19 171,19 171,19 175,19 175,19 175,19 175,19 177,20 180,20 184,20 187,20 187,20 188,20 189,20 192,21 194,21 195,21 195,21 195,21 196,21 196,21 196,21 197,21 197,22 198,22 200,23 202,24 204,25 204,25 204,25 204,25 205,25 205,25 206,25 206,25 206,25 207,26 207,26 207,26 207,26 207,26 214,27 219,27 219,27 219,27 219,27 219,27 219,27 220,27 220,27 220,27 221,27 221,27 221,27 223,27 224,27 226,27 227,28 228,28 229,28 230,28 230,28 232,28 233,27 234,28 236,27 238,27 240,27 241,26 242,26 242,26 242,26 242,28 243,28 243,29 243,29 243,29 244,29 244,30 244,30 245,30 247,30 247,30 249,30 249,30 250,30 251,30 251,30 251,29 252,29 253,29 254,29 254,29 255,28 255,28 255,28 255,28 256,28 256,28 256,28 256,28 256,28 257,28 257,28 258,28 259,28 260,28 260,28 261,28 261,28 261,28 262,28 262,28 263,28 264,28 264,28 265,28 265,28 266,28 266,28 267,28 268,28 268,29 270,29 270,29 271,29 272,30 272,30 272,30 272,30 272,29 272,29 273,29 273,29 273,29 273,29 273,29 273,28 273,28 273,28 273,28 274,28 275,28 275,28 275,28 275,28 276,28 276,28 276,28 278,28 278,28 278,28 280,28 280,27 280,27 280,27 280,27 280,26 280,26 280,26 281,26 281,26 281,26 281,26 281,26 282,26 284,25 285,25 286,25 286,25 287,25 287,25 287,25 288,26 289,26 289,26 290,26 291,26 291,26 291,26 290,25 290,25 290,25 290,25 289,25 289,24 289,24 289,24 290,24 294,22 295,22 296,21 305,19 305,19 306,19 306,19 307,19 307,19 321,16 323,15 324,15 324,15 330,13 330,12 330,12 330,12 333,13 334,13 335,13 339,13 339,13 339,13 340,14 340,14 340,14 342,14 343,14 344,14 344,13 344,13 346,13 346,13 346,12 348,12 350,12 351,12 353,11 353,11 359,11 360,10 361,10 362,10 362,10 363,10 364,10 365,10 366,11 370,11 371,11 373,11 380,10 382,10 382,10 382,10 383,10 385,10 386,9 386,9 387,10 388,9 388,9 389,9 389,9 390,9 390,9 390,9 390,9 390,9 390,9 391,9 391,9 391,9 392,9 393,9 393,9 393,9 394,10 395,10 395,10 396,10 396,10 396,10 397,10 397,10 398,10 398,10 399,10 400,10 400,10 402,10 402,10 402,10 403,10 404,10 404,9 404,9 405,10 405,10 406,10 407,10 408,10 409,10 409,10 409,10 409,10 410,10 410,9 412,9 412,9 413,9 414,9 414,9 414,9 415,10 415,10 416,10 417,10 418,10 420,10 421,10 421,10 422,10 422,11 423,11 423,11 424,11 425,12 426,12 427,12 428,13 429,13 429,13 430,14 430,14 430,14 431,14 431,14 432,15 433,15 433,15 434,16 434,16 434,16 436,16 436,15 437,15 438,16 438,15 439,15 441,15 441,15 442,15 442,15 442,15 443,15 444,15 444,15 446,16 447,16 448,16 448,16 448,16 450,16 452,17 453,17 453,17 454,17 455,17 455,17 455,17 456,17 457,16 457,16 457,16 457,16 458,17 458,17 458,18 458,19 458,19 459,21 459,21 459,21 459,21 460,21 460,21 460,21 460,22 460,22 460,23 461,23 461,25 461,25 462,26 464,29 465,31 465,32 466,33 466,33 466,33 467,35 467,35 467,36 469,39 470,41 471,42 471,42 471,46 471,47 472,47 472,49 472,50 472,50 472,50 472,50 472,50 472,51 472,51 472,51 471,51 471,51 470,53 470,55 469,56 469,57 469,57 469,58 468,59 468,59 468,59 469,59 470,59 470,60 470,60 470,60 470,60 470,60 472,60 472,60 472,60 472,61 472,62 472,62 473,62 473,62 474,65 474,66 475,67 475,67 476,69 476,69 476,70 477,71 477,72 476,72 476,72 477,72 477,73 478,74 478,74 479,75 480,76 480,77 481,77 481,77 481,77 482,78 482,78 482,78 482,78 482,78 482,78 483,79 483,79 483,79 484,79 485,80 486,80 486,81 487,81 488,81 488,82 488,82 488,84 488,84 488,85 489,85 489,85 490,86 490,86 491,87 492,88 492,88 492,88 492,88 493,88 494,89 494,89 495,90 495,90 495,90 495,90 495,90 496,90 496,90 496,90 496,90 497,90 497,90 497,90 497,91 498,91 498,91 499,91 499,91 499,92 500,92 500,92 500,93 499,93 499,93 499,93 499,93 499,93 499,93 499,93 499,93 499,93 498,93 498,93 498,93 498,93 498,93 497,94 497,94 497,94 497,94 497,94 496,94 496,94 496,94 496,94 496,94 496,94 496,94 495,94 495,94 495,94 495,94 495,94 495,94 495,94 495,95 495,95 495,95 495,95 495,95 495,95 495,95 494,95 494,95 494,95 494,95 494,96 494,96 494,96 494,96 494,96 494,96 494,96 493,96 493,96 493,96 493,96 493,96 492,96 492,96 492,97 492,97 492,97 491,97 491,97 490,97 490,97 490,97 490,97 490,97 490,97 490,97 490,97 490,98 490,98 489,98 489,97 489,97 489,98 488,98 487,98 487,98 486,98 486,98 485,99 485,99 484,99 484,99 484,99 484,100 483,100 483,100 483,100 483,100 483,100 482,100 482,100 482,100 481,100 481,100 481,101 481,101 481,101 480,101 480,101 480,101 479,101 479,101 479,101 478,102 477,103 477,103 476,103 476,103 476,102 476,102 476,102 476,102 476,102 476,102 476,102 475,102 475,102 475,102 474,102 474,102 474,102 474,102 473,102 473,102 473,102 472,102 471,103 470,103 469,104 469,104 469,104 468,104 467,104 467,104 466,105 465,105 463,105 462,105 462,105 462,106 462,106 462,106 462,106 461,106 461,106 460,106 460,106 460,106 460,106 460,106 459,106 459,106 459,106 459,106 459,106 458,106 458,106 458,106 457,106 457,106 457,107 457,107 456,107 455,107 455,107 454,108 454,108 454,108 451,109 449,110 449,110 448,110 448,110 436,103 436,102 435,103 435,103 433,101 423,95 423,95 423,95 425,94 427,94 428,94 428,94 429,94 430,94 432,93 433,93 433,93 434,93 434,93 434,93 430,85 430,84 430,84 431,84 431,84 430,84 430,83 427,73 427,73 427,73 427,73 427,73 426,73 425,73 425,73 425,73 425,73 425,73 424,73 423,73 422,73 422,73 422,73 422,73 422,73 421,74 421,74 421,74 420,75 420,75 420,75 420,75 420,75 420,75 420,75 420,75 420,75 419,73 419,72 419,72 419,72 418,73 418,73 417,73 416,74 416,74 416,73 416,74 414,74 410,75 410,75 409,76 409,76 407,77 405,77 404,77 402,78 402,78 401,78 401,78 401,78 400,79 398,80 398,80 397,80 397,80 397,80 396,81 396,81 396,81 396,81 396,81 396,81 395,82 395,82 395,82 395,82 395,82 395,82 395,82 394,83 394,83 394,83 394,83 394,83 393,83 393,83 393,83 391,82 391,82 391,83 391,83 389,82 389,82 389,82 389,82 389,82 386,81 386,81 386,80 386,80 386,80 386,80 386,80 384,78 384,78 384,77 384,77 384,77 385,77 385,77 385,77 384,76 384,76 383,76 381,77 381,77 379,77 379,77 377,77 377,77 377,77 378,76 378,76 377,76 376,75 376,75 376,76 376,76 375,76 373,75 373,75 373,75 372,75 370,75 370,75 370,75 371,74 371,74 371,74 370,73 368,72 368,72 368,72 368,71 367,71 367,71 368,71 368,71 368,71 368,70 368,69 368,69 368,68 368,68 368,68 367,68 366,69 366,69 366,69 366,69 365,69 365,69 365,68 365,68 365,68 364,68 364,68 364,68 365,66 365,66 365,66 365,66 364,66 364,64 364,64 364,64 364,63 364,63 364,62 365,60 365,60 362,60 361,60 360,61 359,61 359,62 359,62 359,62 358,62 358,62 357,62 357,62 356,62 356,62 356,62 356,62 356,62 356,62 356,62 354,63 353,63 353,63 353,63 353,64 354,64 353,64 351,64 347,64 346,64 346,63 346,63 346,63 345,64 345,64 345,64 346,65 346,65 346,65 344,66 344,66 344,65 343,65 343,65 343,66 342,66 341,67 338,68 338,68 337,68 337,69 336,69 336,69 336,69 336,69 335,69 335,69 335,68 335,68 332,70 332,70 332,71 331,71 331,71 330,72 330,72 329,73 328,74 328,75 328,75 328,75 328,75 326,76 325,77 324,77 323,78 323,78 322,78 322,78 321,77 321,77 321,77 322,76 322,76 322,76 322,76 321,76 321,76 321,75 321,75 320,75 320,75 320,76 319,76 319,76 318,75 318,75 317,75 317,75 317,75 316,75 314,74 314,74 313,74 312,75 311,75 310,75 310,75 310,75 309,76 309,76 308,76 307,76 306,77 305,77 304,77 300,78 300,78 300,78 300,78 300,79 300,79 299,79 298,80 298,80 297,81 297,82 297,82 296,82 296,83 296,83 296,83 295,83 295,83 295,83 295,83 295,83 295,84 295,85 295,85 295,85 295,86 295,86 295,87 295,88 295,88 295,88 295,88 295,89 295,89 295,89 295,89 295,89 293,90 293,90 292,91 292,92 291,92 291,92 291,92 290,93 289,93 288,93 287,94 287,94 287,94 286,95 286,95 285,95 285,95 285,95 284,95 283,95 282,95 281,95 281,95 281,95 281,95 280,95 279,96 279,96 278,96 278,97 277,97 277,97 277,97 277,97 276,96 276,96 276,96 275,95 274,94 274,94 272,93 272,93 271,93 271,93 270,91 269,91 268,89 267,89 267,88 267,88 266,88 266,87 266,87 265,87 264,87 263,86 263,86 263,85 263,85 263,85 263,85 263,85 263,85 264,85 264,85 264,85 264,85 264,85 264,86 264,86 267,85 267,85 267,85 266,80 266,80 267,80 271,79 271,79 269,77 268,76 264,69 261,66 260,65 260,65 260,64 260,64 261,62 261,62 261,62 261,62 261,63 261,63 261,64 261,64 262,64 262,64 262,64 262,64 262,64 262,64 263,64 263,64 263,63 264,62 265,62 265,61 266,61 266,61 267,61 268,60 268,60 269,60 269,60 270,60 271,60 273,60 273,60 273,60 273,59 273,59 274,59 274,59 275,59 275,58 276,57 277,57 279,56 279,56 280,55 281,54 281,54 282,53 282,53 283,52 284,51 284,50 284,50 285,49 285,49 285,48 285,47 285,45 285,45 285,44 285,43 284,43 284,43 284,43 284,43 284,43 283,43 283,43 281,44 281,45 280,45 279,46 279,47 278,48 278,48 277,48 276,48 275,49 275,49 275,49 274,49 273,50 272,50 272,50 271,50 270,50 270,50 269,50 269,50 268,49 268,49 268,49 267,49 267,49 267,49 266,49 266,49 265,49 264,50 263,50 263,50 263,49 262,48 262,47 262,47 262,46 261,45 260,44 259,44 259,44 259,44 259,45 259,47 260,48 260,49 260,49 260,49 259,49 258,49 257,49 257,49 257,49 256,49 254,50 253,50 253,50 252,50 252,50 252,50 252,50 252,50 252,50 251,50 251,50 250,49 250,49 249,49 248,49 248,49 247,49 247,49 245,49 245,49 245,49 244,49 244,49 244,49 243,48 243,47 243,47 243,46 243,45 242,45 241,45 241,44 241,44 242,43 242,43 240,42 239,42 237,42 237,41 236,41 235,41 234,40 233,40 231,39 231,39 230,40 230,40 229,40 228,41 228,41 227,42 227,42 226,42 225,43 225,43 224,43 223,43 223,43 222,43 221,44 219,45 219,45 218,46 218,46 218,47 218,47 219,47 219,48 220,49 221,49 221,50 221,50 221,51 221,51 222,52 223,52 223,53 222,54 221,56 220,56 220,58 220,58 220,59 220,60 219,60 218,61 218,62 213,61 211,61 207,60 205,60 205,60 205,60 204,60 203,60 201,60 198,60 195,58 193,56 192,56 186,56 185,57 184,57 184,57 183,57 183,60 183,61 183,62 182,63 181,63 180,63 180,63 179,63 178,63 177,63 176,62 175,62 174,61 174,61 173,60 173,60 172,60 172,60 172,60 171,61 171,61 170,61 171,61 171,61 171,62 171,62 171,63 170,64 170,65 170,65 169,65 169,65 168,65 168,65 168,66 167,66 166,66 165,66 165,66 164,67 164,67 163,68 163,68 162,69 162,69 161,70 161,70 160,70 160,71 158,71 158,71 158,71 158,71 155,71 154,72 153,72 152,72 150,73 150,73 150,73 150,73 149,73 149,73 150,76 150,76 151,76 151,76 152,77 152,77 153,78 153,78 153,78 153,79 153,80 153,80 153,80 153,80 152,80 152,81 151,81 151,81 150,81 149,81 148,82 147,82 147,82 147,82 146,83 144,84 144,84 144,85 143,85 143,86 144,86 144,87 145,88 145,88 146,88 146,88 146,88 139,89 139,90 139,90 138,89 136,89 135,89 135,89 134,89 133,89 131,89 129,88 126,88 126,88 126,88 126,88 124,87 123,87 122,87 121,87 121,87 120,87 120,87 119,86 119,86 118,86 117,86 116,86 115,85 114,85 113,85 113,84 114,84 114,84 113,84 113,84 112,83 111,82 110,81 102,82 74,57 71,59 71,59 70,59 69,59 68,58 67,58 65,57 65,56 65,57 64,56 63,57 63,57 59,55 58,56 58,56 58,56 57,56 57,56 54,58 52,58 51,59 51,59 50,59 49,60 49,60 49,60 49,60 48,61 48,61 48,61 48,60 47,60 43,58 43,58 42,58 42,58 42,58 37,59 37,59 37,59 37,59 36,59 35,57 35,57 35,57 27,56 27,56 26,56 26,57 26,57 25,57 25,57 25,58 25,58 24,59 24,59 24,59 23,60 23,60 22,60 22,61 20,62 20,62 22,64 16,66 16,67 16,67 17,68 19,70 19,71 20,72 21,72 21,73 21,73 21,73 21,73 21,73 21,74 21,74 14,77 9,78 9,78 6,76 6,76 6,76 6,76 4,74 3,73 1,71 7,69 0,61 4,60 4,60 5,59 5,59 6,59 3,54 5,53 6,53 5,53 5,52 4,52 3,50 6,48 7,48 7,48 8,48 8,48 9,47 8,47 8,47 10,47 10,47 11,46 11,46 11,46 12,46 13,47 13,47 13,47 13,47 13,47 13,46 15,46 15,45 15,45 16,45 17,45 17,44 18,44 20,43 22,42 23,41 23,41 28,40 28,38 31,33 32,30 32,27 32,26 32,25 33,20 33,20 33,19 33,18 35,15 36,13 36,12 36,10 36,9 37,9 38,8 39,7 39,7 41,6" id="5206" class="canton" fill="steelblue" stroke-width="1" stroke="white" geotype="canton" geoname="Chaumont-2" code_insee="5206" code_departement="52" nom_departement="Haute-Marne" code_region="44" nom_region="Grand-Est"/></svg>