<?xml version="1.0" encoding="utf-8"?>
<svg version="1.1" id="svgmap" xmlns="http://www.w3.org/2000/svg" xmlns:xlink="http://www.w3.org/1999/xlink" x="0px" y="0px" width="100%" height="100%" viewBox="0 0 500 219">
<polygon points="52,34 52,34 53,34 53,34 52,33 52,33 55,32 55,32 55,32 55,32 55,32 55,32 56,31 56,31 56,31 56,31 56,31 56,29 57,29 57,28 57,28 57,27 57,27 58,27 59,28 61,28 61,28 62,28 62,29 63,30 63,30 63,30 64,30 65,31 66,31 66,31 67,31 67,31 67,31 68,31 68,31 70,31 70,30 71,30 71,30 72,30 72,29 72,29 73,29 73,29 73,29 74,29 74,29 75,29 76,29 76,29 77,29 77,29 77,29 78,29 78,29 79,28 80,28 80,28 81,28 82,28 82,28 82,28 82,29 82,29 82,29 82,29 82,30 82,30 82,30 83,29 83,29 83,29 83,29 83,29 84,29 85,29 85,29 85,29 86,28 86,28 87,28 87,28 88,28 88,28 88,28 89,28 90,28 90,28 91,28 91,29 91,29 92,29 92,28 92,28 92,28 92,28 92,28 92,28 92,28 93,28 93,28 94,28 94,28 94,28 96,28 96,28 96,28 96,28 96,28 96,28 96,28 96,28 96,28 96,28 97,27 97,27 103,24 103,24 109,23 109,23 109,23 110,23 110,23 110,22 110,22 110,22 110,22 112,23 113,23 116,23 116,23 116,23 116,23 116,23 116,23 118,23 118,23 118,24 118,24 118,24 118,24 119,24 119,24 119,24 119,25 120,25 120,25 120,25 120,25 121,25 121,25 121,25 122,25 122,25 122,25 123,25 123,25 123,25 123,25 123,25 124,26 124,26 124,25 124,25 124,25 124,25 124,25 125,25 125,25 125,25 126,25 126,25 126,25 126,25 127,25 127,25 127,25 127,25 128,25 128,25 128,26 128,26 129,26 129,26 129,26 130,27 130,27 130,27 131,27 131,27 131,27 131,27 131,27 131,27 131,27 131,27 132,27 132,27 132,27 132,27 132,27 133,27 133,27 133,27 133,27 133,27 133,27 133,27 133,27 134,27 134,27 134,27 134,27 134,27 135,27 135,27 135,27 135,27 135,27 136,26 136,26 137,26 137,26 137,26 138,26 138,26 138,26 138,26 139,26 140,26 140,26 140,26 140,26 141,27 141,27 141,27 141,27 142,27 142,27 142,27 142,27 142,27 143,27 143,27 143,27 143,27 144,27 146,26 146,26 145,27 145,28 144,28 144,28 144,28 145,28 146,28 147,28 147,28 147,28 148,28 149,28 149,29 150,29 151,29 152,29 153,29 153,29 153,29 153,29 154,29 154,29 154,29 155,29 155,29 156,30 156,30 156,30 158,30 158,30 160,30 161,31 161,31 161,31 162,31 162,32 162,32 162,32 162,32 162,32 163,32 163,32 163,32 164,32 165,33 165,33 166,33 167,33 167,33 167,33 167,32 168,32 168,31 168,31 168,31 169,31 169,31 169,31 169,31 170,31 170,31 171,31 172,31 172,31 173,31 174,32 174,32 174,32 174,32 175,32 175,32 176,33 176,33 176,33 176,34 176,34 176,34 177,34 179,34 179,34 180,33 180,33 181,34 181,34 182,34 182,35 182,35 185,34 185,33 185,33 186,33 187,34 187,34 190,35 192,36 193,36 195,37 195,37 195,38 195,38 195,38 196,38 196,38 197,38 197,38 198,39 198,39 198,39 199,39 199,38 199,38 199,38 200,38 201,38 201,38 202,38 202,37 203,37 203,37 204,37 206,37 206,37 207,37 208,37 208,37 208,37 208,37 208,36 208,36 208,36 208,37 208,37 209,37 209,37 210,37 210,38 210,38 210,38 210,38 210,41 210,41 211,41 211,41 211,42 211,42 211,43 210,43 211,43 211,44 213,44 213,44 213,44 214,44 215,45 217,45 217,44 217,44 224,45 224,45 224,45 225,43 227,40 228,39 229,39 229,39 231,39 231,39 232,39 233,39 233,39 233,39 234,39 236,40 236,40 236,40 236,40 235,40 235,40 235,40 236,40 236,40 237,40 237,40 238,40 238,40 241,40 241,40 241,40 242,40 242,40 243,40 244,40 244,40 245,40 246,40 246,40 248,40 249,40 250,40 250,40 251,41 252,40 252,40 252,40 252,40 252,40 252,39 252,38 252,37 252,37 254,37 254,37 254,37 255,37 255,37 255,37 256,37 256,37 257,36 257,35 257,35 258,35 258,35 258,34 259,34 259,34 260,33 261,33 262,32 262,32 266,30 267,29 267,29 268,28 269,27 271,25 271,25 272,25 273,25 274,25 275,26 275,26 276,26 276,26 276,26 277,26 277,26 277,26 277,26 277,26 278,26 278,26 278,26 278,26 278,27 278,27 279,27 279,27 279,27 279,28 279,28 279,28 279,28 279,28 279,28 279,29 279,29 280,28 280,28 281,28 282,29 282,29 282,29 282,32 282,32 283,32 284,36 285,37 286,40 286,41 286,41 287,42 288,44 288,45 288,45 288,45 289,45 289,45 289,45 289,45 289,45 289,45 289,45 289,45 289,45 289,45 289,45 289,45 289,45 289,45 289,45 289,45 290,45 290,45 289,45 289,45 289,45 290,45 290,45 290,45 290,45 290,45 290,45 290,45 290,45 290,45 290,45 290,45 290,45 290,45 291,45 291,45 291,45 291,45 291,45 291,45 291,45 291,45 291,45 291,45 291,45 291,45 291,45 291,44 291,44 291,45 291,45 291,45 292,45 292,45 292,45 292,45 292,45 292,45 292,45 292,45 292,45 292,45 292,44 292,44 292,44 292,44 292,44 292,44 292,44 292,44 292,44 292,44 292,44 292,44 292,44 292,44 293,44 293,44 293,44 293,44 293,44 293,44 293,44 293,44 293,44 293,44 293,44 293,44 293,44 293,44 293,44 293,44 293,44 293,44 293,44 294,44 294,44 294,44 294,44 294,44 294,45 294,45 294,45 293,45 293,45 293,45 294,45 294,45 294,45 294,45 294,45 294,45 294,45 294,45 294,45 294,45 294,45 294,45 294,45 294,45 294,45 294,45 294,45 294,45 294,45 294,45 294,45 294,46 294,46 294,46 294,46 294,46 294,46 295,46 295,46 295,46 295,46 295,46 295,46 295,46 294,46 294,46 294,46 294,46 294,46 295,46 295,46 295,46 295,46 295,46 294,46 295,46 295,46 295,46 295,46 295,46 295,46 295,46 295,46 295,46 295,46 295,46 295,46 295,47 296,47 296,47 296,47 296,47 296,47 296,47 296,47 297,47 297,47 297,47 297,47 297,47 297,47 297,47 297,47 297,47 297,47 297,47 297,47 297,47 298,47 298,47 298,47 298,47 298,47 298,47 298,47 298,47 298,47 298,47 298,48 298,48 298,48 298,48 298,48 299,48 299,48 299,48 299,48 299,48 299,48 299,48 299,48 299,48 300,48 300,48 300,48 300,48 300,48 301,48 301,48 301,48 301,48 301,48 301,48 302,48 302,48 303,48 303,48 304,48 304,48 304,48 304,48 304,48 304,48 305,48 305,48 305,48 305,48 305,48 305,48 306,48 306,48 306,48 306,48 306,48 306,48 306,48 306,48 306,48 307,48 307,48 307,48 307,48 307,48 307,48 307,48 307,48 307,48 307,48 307,48 307,48 307,48 307,48 307,48 307,48 308,48 308,49 308,49 308,49 308,49 309,49 309,49 309,49 309,49 309,49 310,49 310,49 310,49 310,49 310,49 310,49 310,49 310,49 310,49 311,49 311,49 311,49 312,49 312,50 313,50 313,50 313,50 313,50 314,50 314,50 314,50 314,50 314,50 314,50 315,50 315,50 315,50 315,51 316,51 317,51 317,51 318,51 318,51 320,50 320,50 320,50 321,50 321,50 321,50 322,50 323,50 324,50 324,50 325,50 325,50 325,50 325,50 325,50 325,50 325,50 325,50 325,50 326,50 326,50 326,50 326,50 327,49 327,49 328,49 328,49 328,49 329,49 329,49 329,48 329,48 329,48 329,48 330,48 330,48 330,48 330,48 331,48 331,48 331,48 331,48 331,48 331,48 332,48 332,47 332,47 333,47 333,47 333,47 334,47 334,47 334,46 335,46 336,45 338,44 338,44 338,43 339,43 339,43 340,43 341,42 341,42 341,42 342,42 342,41 341,41 341,40 340,40 339,40 339,40 338,39 338,39 338,39 338,39 338,39 339,38 339,38 339,38 340,37 340,37 340,37 341,37 342,36 342,37 342,37 342,36 342,36 343,36 343,36 345,36 346,35 346,35 346,35 346,35 345,34 345,34 345,34 345,33 345,33 345,32 345,32 345,32 345,32 346,32 347,31 348,31 349,31 349,31 349,30 349,30 349,30 349,29 349,29 349,29 349,29 349,29 349,29 350,29 350,29 350,29 350,29 350,29 350,29 351,29 351,29 351,29 351,29 351,28 352,28 352,28 352,28 352,28 352,28 352,28 352,28 352,28 352,28 353,27 353,27 354,27 354,26 354,26 354,26 355,26 355,26 355,26 355,26 356,26 355,25 357,25 358,25 359,25 359,25 359,25 359,24 359,23 359,23 359,23 359,23 360,23 360,23 361,23 361,23 362,23 362,23 363,23 364,23 364,23 364,22 364,22 366,22 367,22 367,22 367,22 368,22 369,21 370,21 370,21 371,21 371,21 371,21 371,21 371,21 370,20 370,20 370,20 371,20 373,19 373,19 373,19 373,18 374,18 374,17 374,17 374,17 374,16 374,16 374,16 375,15 375,15 375,15 375,15 375,14 375,13 374,13 374,12 374,12 374,12 374,12 374,12 374,11 374,11 374,11 374,11 374,10 373,9 373,9 373,8 373,7 373,6 373,5 373,5 373,5 373,5 373,4 373,3 373,3 373,2 373,2 374,2 374,2 373,1 374,1 374,1 374,1 375,1 375,1 376,1 377,1 378,1 378,1 379,2 379,2 380,2 380,1 382,1 382,0 384,0 384,1 384,1 384,2 385,3 385,3 385,4 385,4 386,4 387,4 387,4 387,4 390,5 392,6 394,6 394,6 396,7 399,8 399,9 402,11 403,12 404,12 405,13 405,13 405,14 405,16 405,16 405,17 406,17 406,18 407,20 408,21 409,21 409,21 409,21 410,22 411,23 411,23 411,23 411,23 412,24 413,25 414,26 416,28 416,28 417,29 421,31 421,32 424,34 424,35 424,35 425,36 425,36 425,36 425,37 425,39 425,39 424,39 424,39 425,41 425,42 425,42 425,43 425,43 425,47 425,48 425,48 426,48 427,48 427,48 428,48 428,48 428,48 428,48 428,48 428,48 429,48 429,48 428,48 428,49 428,49 429,50 429,50 429,50 432,51 433,51 434,51 434,51 435,51 436,52 438,52 438,52 438,52 438,53 438,53 438,53 437,53 437,53 437,54 436,54 436,54 436,54 436,54 436,55 436,55 436,55 436,55 436,56 436,56 436,56 435,56 435,56 435,56 435,57 435,57 435,57 435,57 435,57 435,57 435,58 435,58 435,58 435,58 435,58 435,58 435,58 435,59 435,59 435,59 435,59 435,59 435,60 435,60 435,60 435,60 435,60 435,60 435,60 435,61 434,61 434,62 434,62 434,62 433,62 433,62 433,62 433,62 432,62 432,62 431,63 431,63 431,63 431,63 431,64 431,64 430,64 430,64 430,65 430,65 430,65 430,65 441,63 441,63 446,67 443,70 442,70 442,70 442,71 443,71 443,71 443,71 443,71 443,72 444,72 446,72 446,72 446,72 446,72 447,72 447,72 452,73 456,75 457,74 456,76 456,76 456,76 455,78 455,78 455,79 448,84 446,86 444,88 444,88 446,89 445,89 444,90 442,90 438,91 437,91 436,92 439,92 437,93 438,93 439,94 440,94 441,95 442,96 445,96 445,96 447,97 447,97 448,97 449,97 451,98 451,98 450,99 450,98 449,99 448,99 448,100 447,100 446,100 444,100 443,101 442,101 441,101 440,102 439,102 438,103 438,103 436,104 435,104 435,104 434,105 432,105 432,105 432,106 433,107 433,108 434,109 435,109 434,114 434,117 434,121 436,121 444,122 444,123 445,123 445,124 446,126 446,127 446,129 447,130 448,130 449,131 449,132 450,132 456,132 457,131 457,131 457,131 460,131 461,131 462,131 463,131 465,131 466,131 466,131 468,131 468,131 468,131 468,132 468,132 468,133 468,133 468,134 468,135 468,135 470,134 471,134 473,134 473,134 473,134 474,134 475,134 477,135 478,135 479,135 479,135 479,135 480,135 481,134 481,135 481,135 481,136 483,138 483,139 484,140 484,140 485,141 486,141 488,141 488,141 488,141 488,141 488,141 490,141 490,141 491,142 491,142 492,143 493,143 493,144 493,144 494,144 494,144 494,144 494,145 494,145 495,145 497,145 497,146 498,146 499,146 500,146 500,146 500,147 500,147 500,147 500,148 499,148 497,148 497,148 497,148 495,148 495,148 495,148 494,148 494,148 494,148 493,148 492,148 492,148 491,148 489,147 488,147 487,147 486,146 486,146 485,146 485,146 485,146 484,146 484,146 482,145 482,145 482,145 481,145 481,145 481,144 481,144 481,144 480,144 480,144 480,144 479,144 479,144 478,144 478,144 478,144 478,144 477,144 477,144 477,144 476,144 476,144 476,144 476,144 475,144 475,144 474,145 474,145 473,144 473,145 472,145 472,145 471,146 471,147 470,147 470,147 470,147 473,149 475,150 478,150 478,150 481,150 481,150 481,150 482,151 482,151 483,152 483,152 484,152 484,153 484,153 485,153 485,153 486,154 486,154 488,155 488,156 490,157 489,158 488,158 488,158 487,158 487,158 486,159 486,159 486,160 485,160 485,160 485,161 485,161 484,162 483,162 482,163 481,163 481,163 481,164 481,164 482,164 482,164 483,164 484,164 484,164 483,165 483,165 482,166 481,167 481,167 481,167 479,168 479,169 478,169 477,170 477,171 476,171 475,172 475,172 473,172 473,172 472,173 471,173 469,173 468,173 467,174 467,174 466,174 466,175 466,176 466,177 466,177 466,178 466,179 466,180 466,182 466,182 466,183 466,184 466,184 466,185 466,185 466,186 466,187 466,187 466,188 466,189 466,190 464,190 463,190 462,191 462,191 462,191 461,191 461,191 460,191 459,191 459,191 458,191 457,192 457,193 456,193 455,193 455,193 453,193 447,192 444,191 444,190 445,189 445,189 446,189 447,189 447,188 447,188 447,187 447,187 447,187 447,186 446,186 446,186 446,186 447,185 447,185 447,185 447,185 447,185 440,181 437,180 437,181 433,182 427,184 425,184 423,185 421,186 418,181 416,182 414,183 411,183 407,181 406,180 404,178 400,175 398,175 392,171 392,171 391,170 390,170 389,170 389,171 388,171 388,171 387,168 386,168 385,169 385,169 384,169 381,167 381,167 381,167 380,167 380,167 380,167 381,167 380,166 379,167 377,168 377,168 377,167 376,167 377,165 373,164 373,164 372,164 371,164 371,164 370,163 369,163 369,163 369,163 368,163 367,163 367,163 366,162 366,162 366,162 365,162 365,162 364,161 364,161 363,161 362,161 362,161 362,161 361,160 361,161 361,161 360,161 360,161 360,161 359,161 359,161 358,161 358,160 357,160 357,160 356,160 356,160 356,160 356,160 356,160 356,160 356,160 356,160 356,160 356,160 356,160 355,160 355,160 355,161 355,161 355,160 355,161 355,160 355,161 355,161 355,161 355,161 355,161 354,161 354,161 354,161 354,161 354,161 354,161 354,161 354,161 354,161 354,161 354,161 354,161 354,161 353,161 353,161 353,161 353,161 353,161 353,161 353,161 353,161 353,161 353,161 353,161 353,161 353,161 353,161 353,161 352,161 352,161 352,161 352,161 352,161 352,161 352,161 352,161 352,161 352,161 351,161 351,161 351,161 351,160 351,160 351,161 351,161 350,161 350,161 350,161 350,160 350,160 350,160 350,160 350,160 350,160 350,160 350,160 350,160 350,160 350,160 350,160 350,160 349,160 349,160 349,160 349,160 349,160 349,160 349,160 349,160 349,160 349,160 349,160 349,160 349,160 348,160 348,160 348,160 348,159 348,159 348,159 348,159 348,159 348,159 348,159 348,159 348,159 348,159 348,159 347,159 347,159 347,159 347,158 347,158 348,158 348,158 347,158 347,158 347,158 347,158 347,158 347,158 347,158 347,158 347,158 346,158 347,158 346,158 346,158 346,158 346,158 346,158 346,158 346,158 346,158 346,158 346,158 346,157 346,157 346,158 345,157 345,157 345,157 345,158 345,158 345,158 345,158 345,158 345,157 345,157 345,157 345,157 345,157 345,157 345,157 345,157 345,157 344,157 344,157 344,157 344,157 344,157 344,157 344,157 344,157 344,157 344,157 344,157 344,157 344,157 343,157 344,157 343,157 343,157 343,157 343,157 343,157 343,157 343,157 343,157 343,157 343,157 343,157 343,157 343,157 343,157 343,157 342,157 342,157 342,157 342,157 342,157 342,157 342,157 342,156 342,156 342,156 342,156 342,156 342,156 342,156 342,156 341,156 341,156 341,156 341,156 341,156 341,156 341,156 341,156 341,156 341,156 341,156 341,156 340,156 340,155 340,155 340,155 340,155 340,155 340,155 340,155 340,155 339,155 339,155 339,155 339,155 339,155 339,155 339,156 338,156 338,155 338,155 338,156 338,156 338,156 338,155 338,155 337,154 337,153 335,152 335,152 334,152 333,151 329,147 328,146 326,146 325,145 325,145 324,145 323,144 322,144 320,143 317,143 317,142 316,142 315,142 314,141 312,141 311,141 311,141 310,141 309,141 308,141 307,141 306,141 304,140 304,140 303,140 303,139 302,139 301,139 301,139 300,138 299,138 299,137 298,137 297,136 297,135 296,134 296,134 296,133 296,133 295,132 292,133 291,134 289,135 289,135 288,135 288,136 287,136 286,137 284,139 284,140 283,141 283,141 283,141 283,141 283,142 283,142 283,142 283,143 284,143 284,143 284,144 284,144 283,144 283,145 283,145 283,145 282,146 282,146 282,146 282,146 282,146 281,147 281,147 281,148 281,149 280,150 280,151 280,151 280,151 280,151 280,151 280,151 280,151 280,152 280,152 280,152 280,152 280,152 280,152 280,152 280,152 280,152 280,152 280,152 280,152 281,152 281,152 281,152 281,153 281,153 281,153 281,153 281,153 281,153 281,153 281,153 281,153 281,153 281,153 281,153 281,153 281,153 281,153 281,153 281,153 281,153 281,153 281,153 281,153 281,153 282,153 282,153 282,153 282,153 282,153 282,153 282,153 282,153 282,154 282,154 282,154 282,154 282,154 282,154 282,154 282,154 282,154 282,154 282,154 283,154 283,154 283,154 283,154 283,154 283,154 283,154 283,154 283,154 283,154 283,154 283,154 283,154 284,154 284,154 284,154 284,154 284,154 284,155 284,155 284,155 284,155 284,155 284,155 284,155 284,155 284,155 284,155 284,155 284,155 284,155 285,155 285,155 285,155 285,155 285,155 285,155 285,155 285,155 286,155 286,155 286,155 286,155 286,155 286,155 286,155 286,155 286,155 286,155 286,155 287,155 287,156 287,156 287,156 287,156 287,156 287,156 287,156 287,156 287,156 287,156 287,156 287,156 287,156 287,156 287,156 287,156 287,156 287,157 287,157 287,157 287,157 287,157 287,157 287,157 287,157 287,157 287,157 287,157 287,157 287,157 287,157 287,157 287,157 287,157 287,157 287,158 287,158 287,158 287,158 287,158 287,158 287,158 287,158 287,158 287,158 287,158 287,158 287,158 287,158 288,158 288,158 288,158 288,158 288,158 287,158 287,158 288,158 288,158 287,158 287,158 288,158 288,158 287,159 287,159 287,159 288,159 288,159 288,159 288,159 288,159 288,159 288,159 288,159 288,159 288,159 288,159 288,159 287,159 287,159 287,159 287,159 287,159 287,160 287,160 287,160 288,160 288,161 288,161 288,161 289,162 290,163 290,163 291,163 291,163 292,164 292,164 292,164 293,164 293,165 294,165 294,165 294,166 295,167 295,167 295,167 296,168 296,168 296,168 296,168 296,169 296,169 296,169 295,169 295,169 295,169 295,169 294,169 294,170 294,170 294,170 293,170 292,170 292,170 292,170 291,170 291,170 291,170 290,170 290,170 290,170 290,170 290,170 290,170 290,171 290,171 290,171 290,171 290,171 291,171 291,171 291,171 291,171 291,171 291,171 291,171 292,171 292,171 292,171 293,172 293,172 293,172 293,172 293,174 293,175 294,174 295,174 295,174 296,174 296,174 296,176 296,177 296,177 296,177 296,177 296,178 297,178 297,178 298,178 298,179 298,179 298,179 298,180 298,180 298,181 298,181 299,181 299,181 299,181 299,181 299,182 299,182 299,182 301,184 301,184 301,184 300,185 300,185 300,185 304,187 304,188 304,188 304,188 304,188 304,188 304,188 304,188 304,188 307,188 307,188 308,188 309,188 309,188 309,188 308,193 308,193 308,193 308,193 308,193 308,193 308,193 307,195 307,195 307,195 307,196 307,196 307,196 306,196 306,197 306,197 306,197 306,198 305,198 306,198 305,198 305,198 305,198 305,199 305,199 305,200 305,200 304,200 303,201 302,202 302,203 301,203 301,203 301,203 301,204 301,204 301,204 301,205 301,205 301,205 301,205 299,207 299,207 297,208 296,209 295,210 295,210 295,210 290,211 290,211 288,212 287,212 287,212 286,213 286,213 285,213 284,213 282,213 281,214 279,214 279,214 279,214 278,214 278,214 277,214 277,214 275,214 275,214 274,214 274,214 273,214 273,214 273,214 271,214 271,214 270,214 270,214 268,215 267,215 267,215 266,215 266,215 265,216 265,216 264,216 264,216 263,217 261,218 259,219 259,219 259,219 259,219 258,219 258,219 257,219 256,218 256,218 256,218 255,218 255,218 253,217 253,217 253,217 252,217 252,217 252,217 252,217 251,217 251,216 251,216 251,216 251,216 251,216 251,216 251,216 250,216 250,215 249,215 249,215 249,215 249,215 249,215 249,215 249,215 249,215 249,214 249,214 249,214 249,214 249,214 249,214 249,213 250,213 250,213 250,213 250,213 251,213 251,213 251,213 252,213 252,213 253,212 253,212 253,212 253,212 253,212 253,212 253,212 253,211 253,211 251,211 251,211 250,211 249,210 248,210 248,210 247,209 246,209 245,208 245,208 245,208 244,208 244,208 244,208 242,208 241,208 241,208 241,208 241,208 240,207 240,207 240,208 240,208 239,207 238,207 237,208 236,208 236,208 235,208 235,208 235,208 235,208 235,208 235,208 234,208 234,208 233,208 233,207 233,207 233,207 233,207 233,207 232,207 230,207 230,207 229,207 229,207 228,206 227,206 227,206 226,205 225,205 225,205 225,205 225,205 224,205 224,205 222,204 222,204 222,204 218,204 218,204 218,204 219,203 218,203 218,203 218,203 217,203 217,203 216,203 216,203 213,201 213,201 213,201 212,201 211,200 210,200 210,200 210,200 210,200 210,200 210,200 209,200 209,200 209,200 209,200 208,200 208,199 208,199 208,199 208,199 207,199 207,199 207,199 207,199 207,199 207,199 206,198 206,198 206,198 206,198 206,198 206,198 205,198 205,198 205,198 205,197 204,197 204,197 204,197 203,197 203,197 203,197 203,197 202,197 202,197 202,197 202,197 202,197 202,197 201,197 201,196 201,196 201,196 200,196 200,196 200,196 199,196 199,196 199,196 198,196 198,196 198,196 198,196 198,196 197,196 197,196 197,196 197,196 196,196 197,195 197,195 194,195 194,195 194,195 194,195 194,194 194,194 194,194 193,195 193,195 193,195 193,195 192,195 188,194 188,194 187,194 186,193 185,193 183,193 182,192 181,192 179,192 179,192 179,192 179,192 179,191 179,191 179,191 179,191 179,191 179,191 179,191 179,190 179,188 179,186 179,186 179,186 179,186 178,184 177,184 177,184 176,183 175,182 175,182 175,182 175,182 174,182 174,182 174,182 174,182 173,182 173,182 173,182 173,182 172,182 172,182 172,182 172,182 172,182 171,182 171,182 171,182 171,182 171,182 171,182 171,182 171,182 170,181 170,181 170,181 170,181 170,181 170,181 170,181 170,181 170,181 170,181 170,181 170,181 170,181 170,181 170,181 170,181 170,181 170,181 170,181 169,181 169,180 169,180 169,180 169,183 169,183 169,183 169,183 169,183 167,189 166,192 162,206 162,206 161,207 161,207 161,207 161,207 161,207 161,208 161,208 161,209 161,209 161,209 161,209 161,209 161,209 160,209 160,209 160,209 160,209 160,209 160,209 160,209 159,209 159,209 159,209 158,209 157,209 157,209 157,209 157,208 156,208 156,208 156,208 156,208 156,208 156,208 155,208 155,208 155,208 155,208 155,208 155,208 155,208 155,208 155,208 154,208 154,207 154,207 154,207 154,207 154,207 154,207 154,207 153,207 153,207 153,207 152,207 152,207 152,206 151,206 151,206 150,206 149,205 148,205 147,205 147,205 147,205 146,205 146,205 146,204 146,204 146,204 146,204 145,204 143,204 143,204 143,203 143,203 143,203 143,204 143,204 143,204 138,203 138,203 138,203 138,203 138,203 138,203 139,203 139,203 139,203 139,203 139,203 139,204 139,204 138,204 138,204 138,204 138,204 137,204 137,204 137,204 137,204 137,204 137,204 137,204 137,204 137,204 137,204 137,204 137,204 137,204 137,204 137,204 137,204 137,204 137,205 137,205 136,205 136,205 135,204 135,204 133,204 133,203 132,203 132,203 133,203 133,203 132,203 131,203 131,203 130,203 130,203 130,203 130,203 129,203 129,203 129,203 129,203 129,203 127,202 127,202 127,202 126,202 126,202 126,202 126,202 126,202 125,202 125,202 125,202 125,202 125,203 125,203 125,203 125,203 125,203 125,203 125,203 125,203 125,203 125,203 125,203 125,203 124,203 124,203 124,203 124,203 124,203 124,203 124,203 124,203 124,204 124,204 124,204 124,204 124,204 124,204 124,204 124,204 124,204 124,204 124,204 124,204 122,204 119,203 118,202 116,202 115,201 115,201 115,201 114,201 113,201 108,199 108,199 108,199 108,199 108,199 108,199 108,199 108,199 108,199 108,200 108,200 108,200 108,200 108,200 108,200 108,200 108,200 108,200 108,200 108,200 108,200 108,200 108,200 108,200 107,200 107,200 107,200 107,200 107,200 107,200 107,200 107,200 107,200 107,200 107,200 107,200 107,200 107,200 107,200 107,200 107,200 107,200 107,201 107,201 107,201 107,201 107,201 107,201 107,201 106,201 106,201 106,201 106,201 106,201 106,201 106,201 106,202 106,202 106,202 106,202 106,202 106,202 106,202 106,202 106,202 105,202 105,202 105,202 105,202 105,203 105,203 105,203 105,203 105,203 105,203 105,203 105,203 105,203 105,203 105,203 105,203 105,203 105,203 105,203 105,203 105,203 104,203 104,203 104,203 104,203 104,203 104,203 104,203 104,203 104,203 104,204 104,204 104,204 104,204 103,204 103,203 103,203 103,203 103,203 103,203 103,203 103,203 103,203 103,203 103,203 103,203 103,203 103,203 103,203 102,204 102,204 102,204 102,204 102,204 102,204 102,204 102,204 102,204 101,204 101,204 101,204 101,204 101,204 101,204 101,204 101,204 101,204 101,204 100,204 100,204 100,204 100,204 100,204 99,204 99,204 99,204 99,204 99,204 99,205 99,205 99,205 99,205 99,205 99,205 98,205 98,205 98,205 98,205 98,205 98,205 98,205 98,205 98,205 97,205 97,205 97,205 97,205 97,205 97,205 97,205 96,205 95,205 95,205 94,205 94,205 94,205 94,205 94,205 94,205 94,205 94,204 93,203 93,203 93,203 92,202 92,202 91,201 91,201 91,201 91,201 91,201 89,200 89,200 89,200 89,199 88,198 88,198 89,198 90,196 91,195 91,195 92,195 92,195 92,194 96,193 98,193 98,193 97,192 96,191 94,190 93,189 93,189 92,189 91,188 90,186 90,186 90,186 89,185 88,183 86,181 86,181 85,181 85,180 84,179 84,179 83,178 83,178 82,178 82,178 81,177 80,176 80,176 80,176 80,176 80,176 80,176 79,176 79,176 79,176 79,176 79,176 79,176 78,175 78,175 78,175 77,174 77,174 77,174 76,174 74,174 74,174 73,173 73,173 72,173 71,173 71,173 71,173 71,174 71,174 69,174 69,174 68,174 68,174 68,173 67,173 67,173 65,174 65,174 65,174 64,174 64,174 66,173 66,173 66,173 66,172 67,171 68,170 68,170 69,169 76,164 76,164 76,164 76,164 75,163 75,163 73,162 72,162 71,161 70,161 70,161 69,161 68,160 68,160 67,160 67,160 66,160 66,160 66,159 66,159 66,159 66,159 66,158 66,158 66,158 66,158 66,158 66,158 66,158 66,157 66,157 66,157 66,157 66,156 66,156 66,156 66,156 66,156 66,156 66,156 66,156 66,156 66,156 66,156 65,155 65,155 65,155 65,155 65,155 65,155 65,155 65,155 65,155 65,155 65,155 64,155 64,155 64,155 64,155 64,155 64,155 63,155 63,155 63,155 63,155 63,155 63,155 63,155 63,155 63,155 63,155 63,155 62,155 62,155 62,155 62,155 62,155 62,155 62,155 62,155 62,155 62,155 62,155 61,155 61,155 60,155 60,155 60,155 60,155 60,155 60,155 60,155 60,155 60,154 60,154 60,154 61,154 61,154 61,154 61,154 60,154 60,154 60,154 60,154 60,154 60,154 60,154 60,154 60,153 60,153 60,153 60,153 60,153 60,153 60,153 60,153 60,153 60,153 60,152 60,152 60,152 60,152 60,152 60,152 59,152 59,152 59,152 60,152 60,152 60,152 60,152 60,152 60,152 60,151 60,151 60,151 60,151 60,151 60,151 60,151 60,151 60,151 60,151 60,150 60,150 60,150 60,150 60,150 60,150 60,150 60,150 60,149 60,149 60,149 61,148 61,148 61,148 62,148 62,148 62,148 62,147 62,147 62,147 62,147 62,147 62,147 62,147 62,147 63,147 63,147 63,147 63,147 62,147 62,147 62,146 61,146 61,146 61,146 61,146 61,146 61,146 62,146 62,146 62,146 62,145 62,145 62,145 62,145 61,145 61,145 61,145 60,145 60,145 60,145 60,145 59,144 59,144 59,144 58,144 58,144 58,144 58,144 58,144 58,144 58,143 58,143 57,143 57,143 57,143 57,143 57,143 57,143 57,143 56,142 56,142 56,141 56,141 56,141 56,141 56,140 56,140 56,140 56,140 56,140 56,140 56,140 55,140 55,140 55,140 55,140 55,140 55,140 55,140 55,140 55,140 55,140 55,139 55,139 55,139 55,139 54,139 54,139 54,139 54,139 54,139 54,139 54,139 54,139 53,139 53,139 53,139 53,139 53,139 53,139 53,139 53,139 53,139 52,139 52,139 52,139 52,139 51,139 51,139 51,139 51,139 51,139 52,139 52,139 52,139 52,139 52,139 52,139 51,139 51,139 51,139 51,139 51,139 51,139 50,139 50,139 50,138 50,138 50,138 50,138 50,138 50,138 49,138 49,138 49,138 49,138 49,138 49,138 49,138 49,138 48,138 48,138 48,138 48,138 48,138 48,138 48,138 48,138 47,137 47,137 47,137 47,137 47,137 47,137 46,137 46,137 45,137 45,137 45,137 45,137 45,137 45,137 44,137 44,137 44,137 44,137 44,137 44,137 44,137 43,137 43,137 43,137 43,137 43,137 43,138 43,138 43,138 43,138 43,138 43,138 43,138 43,138 42,138 42,138 42,138 42,138 42,138 42,138 42,138 42,137 42,137 42,137 41,137 41,137 41,138 41,138 41,138 41,138 41,138 41,138 41,138 41,138 40,138 40,138 40,138 40,138 40,138 40,138 39,138 39,138 39,138 39,137 39,137 39,137 39,137 39,137 38,137 38,137 38,136 38,136 38,136 38,136 38,136 38,136 38,135 38,135 38,135 38,135 38,135 38,135 38,135 38,135 38,135 37,135 37,134 37,134 37,134 37,134 37,134 36,134 36,134 35,133 35,133 35,133 34,133 34,132 34,132 33,132 32,132 32,132 32,132 32,132 31,132 31,132 31,132 31,132 31,132 31,132 31,132 30,132 30,132 30,132 30,132 30,132 29,132 29,132 29,132 28,131 27,131 27,131 27,131 26,131 26,131 26,131 26,131 26,131 26,130 26,130 26,130 26,130 26,129 26,129 25,129 25,129 25,129 25,129 25,129 25,129 24,129 24,129 24,129 24,129 23,128 23,128 23,128 22,129 22,129 22,129 20,128 20,128 19,128 19,128 19,128 19,128 18,128 18,128 17,128 17,128 17,128 17,128 17,128 16,128 16,128 16,128 16,128 16,127 16,127 15,127 15,127 15,127 15,127 15,127 15,127 15,127 15,127 14,127 14,127 14,127 13,127 13,126 13,126 13,126 12,126 12,126 12,126 12,126 12,126 12,126 12,126 12,126 11,126 11,125 11,125 11,125 11,125 11,125 11,126 11,126 10,126 10,126 10,126 10,126 10,125 10,125 10,125 10,125 10,125 10,125 10,125 9,124 9,124 9,124 9,124 9,124 9,123 9,123 9,123 9,123 10,123 10,123 10,122 10,122 10,122 10,122 10,122 10,122 10,122 10,122 10,122 10,122 10,121 9,121 9,121 9,121 9,122 9,122 9,122 9,122 9,122 8,122 8,122 7,121 7,121 7,121 7,121 6,121 6,121 6,121 6,121 6,121 6,121 5,121 5,121 5,121 5,121 5,121 5,121 5,121 4,121 4,121 4,120 4,120 4,120 4,120 3,120 3,120 3,120 3,120 2,120 2,120 2,120 2,120 2,120 2,119 2,119 2,119 2,119 2,119 2,118 2,118 2,118 3,118 3,118 4,118 4,118 4,118 4,118 5,117 5,117 5,117 5,117 5,116 5,116 5,116 4,116 5,116 5,116 5,115 5,115 5,115 5,115 4,114 4,114 4,114 1,114 1,113 1,113 0,113 0,113 0,113 0,113 0,113 0,113 0,112 0,112 1,112 1,112 2,112 2,112 2,112 2,112 2,112 2,112 2,112 2,112 3,112 3,111 3,111 3,111 3,111 4,112 4,112 4,112 5,112 5,112 5,112 5,112 5,112 5,112 6,112 6,111 6,111 7,111 7,111 7,112 7,112 7,112 7,112 7,112 7,112 8,112 8,112 8,112 9,112 9,112 9,112 9,113 9,113 10,113 10,113 10,113 11,112 11,112 12,112 12,112 12,112 12,112 12,112 12,112 12,112 12,111 13,112 13,112 14,112 14,112 14,112 14,112 14,112 15,112 15,112 15,112 15,112 15,111 15,111 15,111 15,111 15,111 15,111 15,111 15,111 15,111 15,111 15,111 15,110 16,110 17,109 17,109 17,109 18,109 19,108 19,108 19,108 19,108 21,109 22,109 24,109 24,108 25,108 26,108 26,108 26,108 26,108 26,108 27,108 27,107 27,107 27,107 28,107 28,107 28,107 29,107 29,107 29,108 29,108 29,108 30,108 30,108 31,108 31,108 31,108 31,108 31,108 31,108 31,108 31,107 30,106 30,106 30,106 30,105 30,105 31,105 31,104 31,104 31,104 31,104 31,104 30,103 30,103 30,103 30,103 30,103 30,103 30,103 30,102 30,102 30,102 30,102 30,102 30,102 29,102 28,102 28,102 28,102 28,102 27,101 27,100 27,100 28,100 28,100 28,100 28,100 28,99 28,99 28,99 28,99 28,99 28,99 28,99 29,99 29,99 29,99 29,99 29,99 29,99 30,99 30,99 30,98 30,98 30,98 30,98 30,98 30,98 30,97 30,97 30,97 30,96 31,95 31,95 31,95 31,95 32,95 33,94 34,94 34,93 34,93 35,93 35,92 35,92 35,92 35,92 34,92 34,92 34,92 34,92 34,91 34,91 34,91 34,91 34,91 34,91 34,90 34,90 34,90 34,90 34,90 34,90 34,90 34,89 34,89 34,88 34,87 35,87 35,86 35,86 35,86 35,86 35,86 36,85 36,85 36,85 37,84 37,84 37,83 37,83 38,83 38,83 38,83 38,82 38,82 39,82 39,81 39,81 39,81 39,81 39,81 38,80 38,80 38,80 39,80 39,80 39,80 39,79 38,79 38,79 38,78 38,78 37,78 37,77 37,77 37,77 37,77 37,77 37,77 37,76 37,76 37,76 37,76 37,76 37,76 37,76 37,75 36,75 36,75 36,75 36,75 36,75 36,75 36,75 36,74 36,74 36,74 36,74 36,74 36,73 36,73 36,73 36,73 36,73 36,72 36,72 36,71 36,71 36,71 36,71 36,70 36,70 36,70 36,70 36,69 36,69 37,68 37,68 37,68 36,67 36,67 36,67 36,67 36,67 36,67 37,66 38,65 39,64 41,62 41,61 41,61 41,61 42,61 42,61 43,61 44,60 44,60 47,60 47,60 48,60 48,61 48,61 49,61 50,60 51,60 51,60 51,60 51,60 51,60 51,60 51,60 51,60 51,59 51,59 51,59 51,59 51,59 51,59 51,59 51,59 52,58 52,58 52,58 53,58 53,58 53,58 53,58 53,57 53,57 53,57 53,57 53,57 53,56 53,56 53,56 53,56 53,56 53,56 53,56 53,56 53,56 54,55 54,55 54,55 54,55 54,55 54,55 54,55 54,54 54,54 54,54 54,54 54,54 54,54 54,54 54,54 55,54 55,54 55,54 55,54 55,53 55,53 55,53 55,53 55,53 56,53 56,53 56,53 56,53 56,53 57,53 57,53 57,53 57,52 57,52 58,52 58,52 58,52 58,52 58,52 59,52 59,52 59,52 59,52 59,52 60,52 60,51 60,51 60,51 60,51 60,51 60,51 60,51 60,51 60,50 60,50 60,50 60,50 60,50 60,50 59,50 59,50 59,50 59,50 59,50 59,49 59,49 59,49 59,49 58,49 58,49 58,49 58,49 58,49 58,48 58,48 58,48 58,48 58,47 58,47 58,47 58,47 58,47 58,47 58,47 58,47 57,46 58,46 57,46 58,46 58,46 58,46 58,46 58,46 59,46 59,46 59,46 59,46 59,45 59,45 59,45 59,45 59,44 59,44 58,44 58,44 58,43 57,42 57,42 57,42 56,42 56,41 56,41 56,41 56,41 56,41 55,40 55,40 55,40 55,40 55,40 55,39 54,38 54,38 54,38 54,38 54,37 53,36 52,34 52,34 52,34 52,34" id="5217" class="canton" fill="steelblue" stroke-width="1" stroke="white" geotype="canton" geoname="Wassy" code_insee="5217" code_departement="52" nom_departement="Haute-Marne" code_region="44" nom_region="Grand-Est"/></svg>