<?xml version="1.0" encoding="utf-8"?>
<svg version="1.1" id="svgmap" xmlns="http://www.w3.org/2000/svg" xmlns:xlink="http://www.w3.org/1999/xlink" x="0px" y="0px" width="100%" height="100%" viewBox="0 0 500 234">
<polygon points="0,197 0,196 3,192 4,191 6,189 6,189 7,188 8,188 8,187 9,186 9,186 10,186 10,185 11,185 11,184 12,183 15,179 15,177 16,177 16,176 16,176 20,178 19,179 22,180 24,178 24,177 23,176 23,176 25,175 25,175 27,174 29,175 30,174 28,173 29,172 31,173 33,173 33,173 36,171 36,171 37,172 39,171 42,173 43,174 47,173 50,175 52,174 53,173 53,174 56,175 57,175 58,174 59,174 61,175 63,175 65,174 66,174 67,174 71,175 71,174 71,174 71,172 71,172 69,169 69,166 69,165 68,163 70,163 70,162 71,162 75,160 77,158 80,156 82,154 84,154 85,153 93,155 99,150 101,151 102,151 102,151 102,151 103,150 103,150 102,149 103,148 103,147 103,146 101,143 101,143 101,142 101,142 100,142 100,141 100,140 101,140 104,141 105,141 105,141 106,141 113,142 114,142 118,143 119,143 123,143 125,144 127,145 127,144 130,144 130,145 132,145 134,145 137,145 138,145 140,145 144,145 145,145 145,145 149,146 148,148 148,148 147,150 150,150 151,150 151,152 150,152 149,153 149,153 147,155 148,155 150,156 150,155 152,156 153,156 153,157 154,157 154,158 153,158 152,158 153,159 150,160 150,160 147,162 144,165 141,169 139,169 137,172 136,171 135,172 134,171 132,170 130,170 130,171 124,172 125,175 123,176 124,178 125,178 124,179 122,177 120,177 121,179 121,179 121,179 117,180 113,181 113,181 113,181 113,181 114,183 114,183 116,184 115,185 117,186 116,188 115,190 119,192 117,194 119,196 116,198 117,199 120,200 121,201 121,202 119,203 118,204 122,205 121,206 119,206 116,207 112,209 111,209 109,208 107,207 105,207 105,207 104,207 103,206 102,206 102,206 100,206 99,205 98,205 97,204 97,204 96,204 95,204 94,204 93,204 91,203 91,203 91,203 90,203 89,203 89,203 88,203 85,204 84,204 82,204 81,204 81,204 81,204 80,204 80,204 79,204 79,205 79,205 78,206 78,207 79,207 78,208 78,208 78,209 76,208 76,209 75,209 75,208 74,208 73,208 72,208 72,208 71,208 71,208 68,207 66,206 66,206 66,207 65,208 62,211 61,212 62,213 58,217 57,217 55,221 52,224 50,226 50,227 50,227 49,228 48,228 47,228 44,227 44,228 43,229 40,228 39,228 39,228 39,228 39,228 36,230 33,231 33,231 32,232 30,231 27,232 28,233 26,234 26,233 26,231 26,230 26,229 24,229 24,230 22,230 11,226 11,225 9,224 9,223 12,216 13,216 14,215 13,215 14,214 11,214 13,212 11,211 14,207 13,202 13,202 13,202 13,202 13,201 13,201 6,203 4,200 4,200 0,197" id="5909" class="canton" fill="steelblue" stroke-width="1" stroke="white" geotype="canton" geoname="Cambrai" code_insee="5909" code_departement="59" nom_departement="Nord" code_region="32" nom_region="Hauts-de-France"/><polygon points="236,6 239,7 240,8 241,8 242,9 243,9 244,10 247,11 249,12 249,12 250,12 251,13 251,13 251,13 252,13 253,13 253,13 254,12 256,13 258,13 260,14 260,14 261,14 261,14 261,14 262,14 262,14 263,14 264,14 264,15 264,15 265,15 266,14 267,14 271,15 273,14 274,13 276,12 278,12 279,13 280,13 280,12 282,12 283,12 285,12 287,12 287,12 290,11 291,11 293,11 294,10 295,10 296,10 296,10 298,11 299,11 299,11 299,11 300,11 300,11 301,12 302,12 304,12 304,11 305,9 305,9 311,10 311,10 312,9 312,9 311,10 311,10 311,10 316,11 317,11 318,11 320,11 320,11 320,11 320,12 320,13 320,13 321,13 323,12 324,12 327,12 328,12 330,11 330,11 330,11 330,11 331,11 331,11 332,11 332,11 332,11 333,11 334,11 336,12 338,11 338,11 339,10 341,10 341,9 342,9 343,8 344,8 344,8 344,8 345,8 346,8 347,8 347,8 348,8 348,8 349,8 349,8 351,8 351,7 351,7 351,7 351,6 351,6 352,5 353,5 354,5 354,5 354,6 355,6 355,6 355,5 356,5 357,5 362,4 362,4 363,5 363,5 364,5 365,5 366,6 366,6 367,6 367,6 368,6 368,6 369,6 370,6 370,7 370,7 370,8 370,8 370,8 371,8 371,8 375,7 376,7 377,7 378,7 378,7 381,8 381,8 382,8 383,8 383,7 384,7 386,7 389,6 391,5 391,5 391,6 392,5 391,5 392,5 392,4 392,4 392,3 392,3 394,2 394,2 394,2 394,1 395,1 396,1 403,0 403,1 404,6 405,6 407,5 408,5 408,5 409,5 409,5 410,5 411,6 412,6 412,6 412,7 413,7 416,9 417,10 418,11 418,11 419,11 419,11 420,11 421,11 421,12 422,13 424,13 424,14 424,14 425,15 426,16 426,16 426,17 427,18 428,19 428,20 429,20 429,20 429,20 429,21 429,21 430,21 430,22 431,22 431,23 432,23 434,23 435,23 437,22 438,22 439,22 440,22 442,21 442,21 442,21 443,21 443,21 444,20 445,19 446,19 446,20 447,20 447,20 447,21 448,21 448,24 448,24 449,24 449,25 461,17 462,17 469,18 470,18 470,18 471,19 471,19 471,19 471,20 472,20 472,20 473,20 474,21 474,21 474,22 472,25 469,29 469,30 469,32 470,33 470,35 470,35 473,37 473,38 473,39 473,39 475,40 476,41 477,42 479,43 479,44 481,45 484,48 485,48 485,48 486,49 487,49 487,50 488,51 490,52 490,52 490,53 490,53 490,53 490,54 491,55 491,55 491,56 491,56 491,57 491,58 491,58 492,58 493,59 494,58 494,59 494,59 494,60 494,60 495,61 494,62 495,64 498,64 500,69 500,69 500,71 499,71 499,71 499,71 499,73 498,74 497,74 497,75 496,77 496,77 496,78 496,78 495,78 495,79 494,79 494,79 494,80 493,80 487,80 487,80 482,84 480,83 478,82 476,83 478,84 475,86 476,86 474,89 470,87 469,87 470,89 472,90 471,90 467,93 465,95 464,95 462,94 458,96 459,97 458,98 458,98 459,100 456,101 457,102 460,105 457,106 458,107 458,107 458,107 458,107 459,108 453,110 456,118 454,119 454,119 454,119 454,120 454,120 454,121 454,123 459,124 458,125 458,125 457,126 454,125 453,126 452,126 452,126 452,127 450,128 448,127 445,130 441,130 436,130 436,131 433,132 434,132 431,134 432,135 429,140 429,140 428,141 428,142 426,142 426,143 426,144 428,145 428,145 428,147 428,147 430,148 430,148 430,150 429,150 427,154 427,154 423,153 421,155 422,155 421,157 421,158 421,158 421,158 420,157 418,159 418,159 417,160 416,160 415,161 416,162 414,164 412,164 416,166 414,168 415,169 412,170 412,170 413,171 413,171 414,172 412,173 410,173 410,173 407,172 405,173 405,173 400,175 397,175 394,174 391,174 390,174 390,174 388,175 389,176 387,176 386,176 386,177 384,177 383,178 382,179 378,179 378,179 376,179 373,181 371,182 367,183 367,182 363,182 362,184 358,184 353,182 353,185 350,188 341,186 341,188 334,184 334,184 333,185 333,186 332,187 332,187 331,188 330,188 328,189 326,190 325,191 325,191 320,188 319,189 318,189 317,190 316,191 312,190 314,187 315,186 315,185 314,184 314,184 313,183 313,183 312,183 312,183 310,182 308,183 309,183 309,183 306,182 306,182 303,181 303,184 297,184 297,186 294,185 292,185 293,184 293,184 291,184 291,184 289,184 289,183 289,182 289,182 289,180 289,179 291,179 291,179 291,178 291,177 291,177 291,177 291,177 292,176 292,176 292,175 291,175 292,175 292,174 292,174 292,174 292,173 292,173 293,173 294,172 294,172 294,171 294,171 294,170 294,170 294,169 294,169 294,169 293,169 293,169 293,169 292,168 292,167 294,166 294,165 295,165 295,165 295,164 294,164 293,165 285,164 285,164 278,166 273,167 272,167 271,167 271,167 270,168 269,167 268,168 267,166 266,166 266,166 263,167 263,167 261,168 260,166 259,167 259,166 255,167 255,167 250,167 248,167 245,168 245,168 243,168 243,168 243,170 242,170 239,171 236,172 234,173 232,173 232,174 231,175 230,177 228,176 226,176 225,175 224,175 224,175 223,175 223,176 223,176 223,176 223,176 223,177 222,177 222,178 226,181 215,185 215,184 213,185 214,185 215,186 214,187 212,187 212,186 210,184 209,186 207,186 207,185 204,185 204,185 201,185 201,185 197,184 197,184 196,183 196,183 196,183 194,184 193,182 192,182 190,182 190,182 188,181 188,181 185,180 185,178 183,178 183,178 182,178 182,177 181,174 181,173 181,173 181,172 178,170 177,169 176,168 176,168 175,165 173,163 170,164 169,163 171,163 169,162 167,161 164,161 165,160 163,159 165,157 166,157 168,155 169,155 172,154 174,154 175,154 177,154 178,154 178,154 179,155 182,154 181,151 185,150 187,151 190,154 190,154 192,153 193,153 196,151 199,152 201,151 201,151 204,153 205,154 211,153 218,152 218,151 217,150 218,150 218,148 218,148 217,147 218,147 219,146 222,143 224,141 225,141 225,141 226,139 227,137 229,136 229,136 232,134 231,133 236,132 237,132 237,132 238,132 241,131 242,130 246,129 247,129 245,127 246,126 247,126 249,126 248,124 245,124 244,123 241,124 236,121 237,121 231,118 227,117 228,116 226,115 226,115 227,114 231,110 233,108 227,107 209,102 212,98 211,97 214,94 214,95 216,93 213,93 215,90 216,90 218,87 220,87 220,84 221,80 222,80 223,77 220,76 220,75 223,76 224,75 225,75 226,72 228,72 230,72 233,72 236,72 238,71 243,70 248,72 254,73 254,73 255,72 255,72 257,72 257,73 264,72 265,74 267,73 274,73 278,72 278,73 280,72 280,73 281,74 281,74 280,70 279,69 277,67 279,67 279,67 280,66 282,66 282,65 286,63 285,62 286,62 287,62 288,61 289,62 290,62 291,60 291,60 295,57 292,55 290,54 294,51 294,50 293,48 290,50 289,50 288,50 286,49 284,51 285,52 284,54 280,52 280,52 280,50 280,50 281,48 280,47 280,46 278,45 277,45 278,43 277,43 276,41 275,40 276,40 276,38 275,38 274,38 273,39 272,38 270,38 269,38 268,37 268,37 268,37 266,35 263,37 259,37 255,39 256,33 253,33 252,35 249,35 249,36 246,36 246,35 244,35 245,34 242,34 240,33 240,33 239,33 237,32 233,31 233,31 237,27 238,26 234,24 232,23 233,22 233,22 233,22 237,15 236,13 236,13 236,12 237,11 236,10 235,10 234,10 234,10 232,9 231,9 230,9 230,8 230,8 231,8 234,8 236,6" id="5909" class="canton" fill="steelblue" stroke-width="1" stroke="white" geotype="canton" geoname="Cambrai" code_insee="5909" code_departement="59" nom_departement="Nord" code_region="32" nom_region="Hauts-de-France"/></svg>