<?xml version="1.0" encoding="utf-8"?>
<svg version="1.1" id="svgmap" xmlns="http://www.w3.org/2000/svg" xmlns:xlink="http://www.w3.org/1999/xlink" x="0px" y="0px" width="100%" height="100%" viewBox="0 0 500 238">
<polygon points="144,3 147,4 151,0 154,1 157,4 164,10 165,8 172,14 175,17 177,18 179,20 185,21 186,20 193,16 196,17 197,17 198,16 198,16 201,17 201,16 201,16 203,16 205,16 207,16 209,16 210,15 210,15 218,15 218,19 219,20 219,19 220,18 222,17 223,17 225,17 227,16 228,17 230,17 232,16 234,15 236,14 237,13 242,16 248,13 249,14 254,18 255,17 264,24 269,21 277,27 286,22 297,30 302,30 307,30 310,32 310,32 311,32 319,31 322,30 325,28 329,27 335,28 336,30 336,30 336,30 336,30 339,31 342,31 343,31 344,32 346,32 352,32 352,32 354,31 359,30 360,33 365,38 366,38 366,40 365,44 382,43 386,43 386,42 387,42 387,40 387,40 388,39 389,39 390,40 390,40 391,40 392,40 393,39 400,37 406,32 407,32 406,30 405,29 406,28 406,28 407,28 409,29 410,29 411,29 412,29 414,28 416,25 418,24 420,23 422,21 423,21 427,20 427,19 426,18 426,16 426,15 427,15 430,15 432,16 433,16 434,16 434,16 436,14 438,13 442,8 443,8 449,7 453,7 454,7 462,8 466,8 467,9 469,11 470,11 471,11 472,11 475,9 477,8 478,8 478,8 482,10 485,11 488,13 489,13 490,13 493,12 494,12 495,13 496,16 496,16 495,16 494,16 491,17 490,17 489,18 490,19 491,19 492,21 495,25 495,26 496,27 497,28 498,29 499,30 499,31 499,31 498,32 498,33 498,33 499,37 500,38 499,38 496,38 494,38 493,40 492,41 492,42 492,43 492,44 493,45 493,46 491,46 491,47 490,49 488,50 488,51 488,51 487,51 485,52 484,53 483,53 477,54 474,54 473,54 473,53 469,53 466,53 466,53 464,53 461,53 461,54 461,54 461,55 461,56 460,59 458,70 458,71 458,72 456,71 455,70 454,70 451,69 449,69 439,66 437,66 438,69 438,70 435,70 433,70 431,72 430,72 427,71 425,71 421,72 420,69 422,68 424,66 424,66 426,63 426,62 428,61 428,61 429,60 429,60 431,59 432,58 436,56 441,54 441,53 439,46 417,41 410,42 407,42 400,42 393,46 386,49 385,50 379,59 377,61 369,67 367,68 364,69 360,72 358,73 357,74 354,77 354,78 351,80 349,81 348,82 346,84 345,86 344,87 338,93 337,94 339,95 354,102 351,108 350,110 350,112 348,115 349,120 350,129 350,131 351,132 351,132 350,133 346,134 345,134 345,134 345,136 342,135 341,136 335,137 336,138 335,138 335,141 331,141 329,141 329,141 328,143 328,143 328,143 329,143 330,143 332,143 332,143 337,143 342,144 343,144 346,145 348,146 347,147 346,148 346,148 338,158 335,156 334,156 332,158 332,158 332,158 332,158 329,161 330,161 330,161 333,162 331,164 332,164 331,164 325,170 334,174 336,175 338,177 342,182 339,187 337,191 336,196 335,197 336,197 336,199 333,203 334,205 334,205 337,208 337,208 330,206 329,205 324,209 324,209 318,214 317,216 316,215 316,215 313,214 310,219 308,219 308,219 309,217 311,215 307,213 306,214 303,213 300,212 297,212 296,214 296,214 294,214 293,213 285,211 284,215 275,213 274,215 270,214 270,216 270,218 258,215 258,214 253,216 252,216 251,217 252,219 251,219 252,221 251,223 246,223 246,224 245,224 244,226 243,226 243,226 243,226 244,226 244,226 244,227 243,229 240,233 240,234 239,234 239,235 238,236 238,238 236,236 232,233 227,227 220,221 215,217 217,216 217,214 218,213 216,212 215,213 214,212 212,213 209,210 210,210 204,203 196,199 192,200 190,200 189,201 187,201 184,202 180,200 176,202 176,202 173,203 171,204 166,199 162,197 153,191 153,191 150,189 152,188 150,186 149,186 147,184 144,179 143,176 138,175 131,174 127,174 127,174 125,172 124,172 124,172 117,169 112,167 109,166 107,164 101,161 98,158 98,158 93,159 88,161 82,162 77,153 77,153 77,153 82,152 81,150 86,149 83,144 86,143 83,139 77,141 76,137 72,137 68,128 66,128 65,125 66,118 64,118 64,118 63,118 64,118 63,116 62,115 59,115 59,115 57,112 56,108 54,109 53,107 55,107 52,103 49,100 47,100 46,100 44,100 44,97 37,98 42,89 43,87 43,84 43,78 43,75 36,77 34,74 36,73 34,68 36,68 32,62 31,62 27,54 30,54 27,50 28,50 25,47 22,45 16,42 11,39 4,32 0,30 2,28 11,32 20,36 27,32 32,31 33,33 36,40 36,40 40,39 41,38 43,38 47,37 49,37 50,36 58,35 61,38 70,35 70,35 81,31 81,31 83,30 86,29 87,30 89,31 90,31 89,29 92,27 94,29 96,28 98,29 103,27 110,25 107,23 111,21 112,20 112,20 116,16 117,16 121,17 122,16 126,18 130,15 132,15 139,11 140,12 146,7 142,5 144,3" id="5915" class="canton" fill="steelblue" stroke-width="1" stroke="white" geotype="canton" geoname="Douai" code_insee="5915" code_departement="59" nom_departement="Nord" code_region="32" nom_region="Hauts-de-France"/></svg>