<?xml version="1.0" encoding="utf-8"?>
<svg version="1.1" id="svgmap" xmlns="http://www.w3.org/2000/svg" xmlns:xlink="http://www.w3.org/1999/xlink" x="0px" y="0px" width="100%" height="100%" viewBox="0 0 500 317">
<polygon points="17,63 19,62 40,55 41,54 42,54 42,54 44,53 46,53 68,44 71,44 73,43 76,41 78,41 82,39 83,39 83,39 87,37 89,36 89,36 89,36 90,36 92,36 93,36 93,36 93,36 94,36 95,35 96,34 98,33 99,33 100,33 101,33 103,32 106,30 107,30 107,30 108,30 109,29 116,27 117,27 120,26 128,23 130,22 131,22 131,23 131,24 132,25 134,28 133,29 129,36 131,37 131,37 130,38 129,39 129,39 128,39 127,40 126,41 126,41 126,41 129,43 130,43 137,38 138,37 139,36 139,35 141,32 142,29 142,29 143,26 145,27 146,29 148,31 150,29 152,32 155,32 163,35 163,34 166,36 170,40 172,39 172,40 175,39 177,38 177,38 179,36 177,34 181,32 181,31 180,31 179,30 188,27 190,25 190,25 191,24 196,26 198,25 203,26 206,25 207,24 208,22 209,20 209,20 212,22 216,22 219,21 222,21 225,20 227,20 227,21 228,21 229,21 232,21 233,21 237,19 240,17 245,17 247,16 244,14 242,13 246,7 247,6 248,4 252,5 258,6 262,0 266,1 271,2 271,2 271,2 271,4 270,4 270,5 270,5 270,5 271,5 273,6 273,6 274,7 277,9 278,11 278,12 279,13 279,14 280,16 281,15 281,13 282,15 282,16 282,16 282,16 281,17 280,18 282,19 282,19 283,19 284,19 285,20 284,20 284,23 285,23 287,25 284,28 286,29 290,32 291,34 290,36 293,38 296,39 296,40 301,43 305,45 306,45 309,46 321,46 326,46 332,46 332,48 332,50 331,51 331,53 331,54 330,55 330,56 333,56 334,57 334,57 334,62 336,62 337,63 337,63 337,63 337,63 337,63 337,63 337,63 337,63 337,63 338,63 338,63 338,63 338,63 338,63 339,63 339,62 339,62 339,62 347,64 351,65 353,65 355,66 356,66 357,67 358,67 359,67 359,68 359,69 360,70 360,71 360,71 360,71 360,72 361,73 361,73 362,74 362,74 362,74 363,75 364,76 365,77 365,77 366,77 367,78 367,78 368,79 368,79 369,80 369,80 370,80 370,81 371,81 371,82 372,82 373,83 373,83 374,83 375,84 376,84 376,84 376,84 377,84 377,84 377,84 378,85 379,85 380,86 382,86 382,87 383,87 383,87 384,87 384,87 384,88 385,88 386,88 386,88 386,89 387,89 387,89 387,89 388,89 388,89 389,90 389,90 388,90 389,91 389,92 389,92 389,93 389,93 389,94 390,95 390,95 390,95 390,96 389,96 389,97 389,97 389,97 389,98 389,99 389,100 389,100 389,101 389,101 389,103 391,105 391,107 392,112 389,112 390,114 390,114 390,115 390,115 394,116 394,117 397,117 397,117 401,115 403,113 403,113 408,111 408,111 410,110 410,110 419,109 423,108 429,110 433,107 439,110 443,113 444,113 446,115 448,116 448,116 453,121 454,122 454,122 454,122 454,122 456,124 456,124 458,128 460,130 460,131 460,131 461,131 461,132 461,132 461,132 462,134 464,133 468,132 468,132 468,132 468,132 468,132 470,133 470,133 470,133 470,133 471,133 471,133 472,133 477,130 479,128 482,131 483,132 484,133 482,134 481,134 481,136 481,136 482,136 482,137 483,138 483,138 483,138 484,139 484,139 486,140 488,141 492,143 493,145 493,146 495,151 495,154 496,154 497,159 498,161 499,165 499,166 500,170 500,172 498,180 498,183 498,184 490,190 496,199 496,200 496,201 495,203 494,204 493,206 489,207 486,211 484,213 483,215 480,216 477,216 473,216 469,214 467,212 467,211 466,210 464,209 463,209 463,206 463,202 462,202 462,201 462,200 463,199 463,198 463,198 463,198 462,197 462,194 462,194 463,193 450,192 443,193 443,191 441,191 440,191 439,190 438,189 436,189 435,188 433,188 432,187 431,187 428,187 428,186 427,185 428,185 428,184 428,183 428,183 428,182 427,182 427,182 426,181 426,181 426,181 425,180 425,180 424,179 424,178 424,178 416,181 417,182 418,182 415,183 415,183 416,184 417,186 417,187 417,188 417,190 418,191 418,192 418,193 418,195 418,197 416,197 412,198 412,198 411,199 411,199 411,200 410,201 410,201 408,201 407,201 405,201 401,202 399,204 394,204 388,204 384,205 384,205 382,204 381,204 381,203 380,203 380,202 379,201 379,200 379,199 379,198 379,196 377,193 376,192 377,192 375,188 379,187 377,184 375,185 375,182 374,182 374,181 374,181 373,180 372,180 372,177 371,176 371,175 370,174 368,173 367,173 367,173 367,173 366,173 366,171 365,171 365,169 362,170 360,171 359,171 358,171 357,171 356,172 355,172 354,172 353,172 353,172 352,172 350,172 350,172 349,172 348,173 346,173 344,173 343,173 343,173 342,173 342,174 342,174 341,174 337,175 336,175 334,175 334,175 333,175 332,175 332,175 332,175 331,175 330,174 330,173 329,173 329,173 329,172 328,172 327,172 326,172 325,172 324,171 321,171 320,171 319,170 318,170 317,170 315,169 314,168 313,168 312,168 312,167 311,167 311,166 310,166 310,166 310,166 309,165 309,165 308,165 308,165 307,165 307,165 306,165 306,166 305,166 304,166 304,167 303,167 302,168 301,169 298,170 298,170 297,170 296,171 294,172 294,172 293,173 292,173 291,173 291,174 290,174 290,174 290,174 289,175 289,175 288,176 288,177 288,178 287,178 287,180 286,180 286,181 285,181 285,182 284,182 283,182 282,182 280,183 278,184 276,185 275,185 274,186 274,186 272,186 272,187 271,187 270,187 269,187 268,187 268,187 267,187 266,186 264,185 261,184 259,182 257,181 254,180 252,180 248,178 245,177 244,177 240,176 239,175 238,175 236,174 235,174 234,174 233,174 229,174 225,174 221,175 220,175 218,175 217,175 215,176 215,176 214,176 213,177 212,177 211,178 211,178 209,180 208,181 207,181 206,182 205,183 204,183 203,183 203,184 203,185 204,185 204,187 204,188 204,188 204,189 203,189 203,190 202,191 200,191 198,192 197,193 196,193 195,193 189,195 185,196 182,196 181,196 176,196 172,196 170,196 166,197 163,197 163,197 163,197 163,197 162,198 162,198 162,199 162,200 162,201 161,201 161,202 160,202 159,202 159,203 155,205 155,205 154,205 154,205 154,205 154,205 152,205 153,207 153,209 153,209 152,209 151,210 150,211 149,212 148,213 148,214 146,215 145,215 145,215 143,216 143,215 142,215 142,216 142,216 142,217 142,217 142,218 142,218 142,219 142,220 142,220 142,220 142,220 143,221 143,222 144,223 144,224 144,224 145,224 144,224 144,225 144,225 144,227 143,229 142,230 141,232 141,232 141,233 140,236 145,235 149,234 153,233 157,233 160,233 164,233 165,233 168,232 172,231 176,230 179,229 180,229 179,225 187,224 185,223 187,222 188,222 189,223 191,222 194,221 194,222 195,222 195,222 195,223 195,223 196,223 196,223 196,224 196,224 197,224 197,223 199,222 200,223 201,223 202,224 202,224 203,227 204,227 204,227 204,228 205,228 205,228 206,226 210,226 211,226 211,227 215,226 215,225 218,224 219,227 221,226 221,226 221,226 222,227 223,226 224,226 224,226 225,226 225,225 225,224 225,223 231,222 232,222 233,226 235,226 238,231 237,231 237,231 237,231 236,231 237,232 238,234 238,235 239,236 239,236 240,238 243,241 247,245 248,245 248,245 247,246 247,247 246,247 246,247 246,248 246,248 246,248 245,248 245,248 245,248 244,248 244,249 243,250 242,250 242,250 241,251 239,251 239,252 238,252 238,253 238,253 237,253 237,253 236,253 236,253 234,253 234,253 234,253 234,253 234,253 234,253 234,253 233,253 233,253 233,253 233,253 233,253 233,253 232,253 232,253 231,253 231,253 231,253 231,253 231,253 231,253 231,253 231,253 231,253 231,253 230,253 230,253 230,253 230,253 230,253 230,254 230,254 230,254 230,254 229,254 229,254 229,254 229,254 229,254 229,254 229,254 229,254 229,254 229,254 228,254 228,254 228,254 228,254 228,254 228,254 228,255 228,255 228,255 228,255 227,255 227,256 227,256 227,256 227,256 228,257 228,257 228,257 228,257 227,258 227,258 227,258 227,258 227,258 227,258 227,258 227,258 228,258 228,258 228,258 228,258 229,258 229,259 229,259 229,259 229,259 229,260 230,260 230,260 229,260 229,260 229,260 228,260 228,260 228,260 228,260 228,261 228,261 228,261 228,261 228,261 228,261 228,261 227,261 227,261 227,261 227,262 227,262 228,262 228,262 228,263 228,263 228,263 228,263 228,263 228,263 228,263 227,263 227,263 227,263 227,263 226,263 226,264 226,264 226,264 226,265 226,265 225,265 225,265 226,266 226,266 227,266 228,266 228,266 228,266 228,266 227,267 227,267 226,267 226,267 226,268 227,268 227,268 227,269 227,269 227,269 227,269 227,269 227,269 226,270 226,270 226,270 225,270 225,270 225,270 225,270 225,270 223,270 222,272 223,273 223,273 223,273 223,273 222,275 222,275 223,276 222,277 221,278 220,278 221,278 221,279 222,280 222,281 223,281 223,282 223,282 223,283 223,284 224,287 225,290 226,292 227,292 228,293 227,293 208,298 206,295 197,298 199,303 195,305 194,305 193,305 189,305 187,307 186,309 185,311 184,311 183,311 183,314 179,314 177,317 177,317 173,316 160,312 158,312 158,310 159,309 158,308 157,307 157,306 157,306 156,305 156,305 156,304 156,303 155,302 155,300 155,300 154,299 153,298 153,297 153,297 153,297 153,297 153,296 153,296 152,295 152,295 152,295 152,294 152,294 152,293 152,293 152,292 152,292 152,291 152,290 151,290 151,290 151,289 151,289 149,289 147,289 146,289 145,289 145,288 145,288 144,287 142,287 142,286 142,285 142,285 142,284 142,284 142,283 142,282 143,282 143,282 145,281 145,281 145,280 145,280 145,280 144,280 144,280 144,279 144,278 144,278 144,278 143,277 143,277 142,277 141,276 141,276 140,276 139,277 138,277 138,278 133,278 128,273 128,272 128,272 128,271 126,271 124,271 123,270 121,270 120,269 119,269 118,269 117,269 117,269 116,268 115,267 115,267 115,266 115,266 115,265 111,266 109,267 108,267 108,267 107,267 105,268 104,268 104,268 103,268 102,268 102,267 102,267 101,266 100,265 100,265 100,265 99,264 99,264 100,263 100,263 100,263 100,263 100,263 99,262 99,262 99,262 98,262 98,262 98,262 97,262 97,262 96,261 96,261 96,261 96,261 95,261 95,260 95,260 95,260 94,260 93,260 89,261 84,260 84,259 80,259 76,258 77,256 75,255 69,253 68,254 66,252 64,250 62,249 60,248 58,247 55,245 55,244 52,242 50,240 48,238 47,237 46,236 43,233 42,232 42,232 42,232 41,230 40,229 38,229 35,228 31,227 33,225 35,223 37,222 36,221 35,220 35,220 31,218 30,218 29,217 26,216 22,215 18,214 18,214 16,214 15,215 14,215 9,214 8,214 0,212 1,210 2,209 4,208 4,208 4,206 4,206 4,204 4,201 3,201 3,200 3,198 2,198 2,197 3,197 4,197 6,197 7,196 9,196 19,193 22,193 22,193 25,192 26,192 28,193 29,200 31,201 32,201 32,201 34,200 36,199 39,198 39,197 41,196 42,196 43,195 43,195 43,195 44,195 44,195 45,195 45,195 46,194 48,193 48,193 49,192 49,192 49,192 49,192 49,192 49,192 49,191 49,189 48,188 48,188 48,186 48,186 48,186 48,185 47,185 47,184 47,184 47,184 47,183 47,183 47,183 44,176 45,174 46,174 46,173 46,172 46,172 47,172 47,171 48,170 49,169 47,169 48,169 48,169 49,168 49,168 49,168 49,168 50,168 50,167 50,167 50,167 51,167 51,166 51,166 51,166 51,166 52,166 52,166 53,166 53,165 54,164 54,164 55,163 56,163 57,162 58,161 58,161 58,161 58,160 61,161 63,160 64,158 63,158 62,157 62,157 61,157 61,156 60,156 60,155 60,155 60,154 65,154 66,155 67,155 67,155 68,155 70,155 71,154 72,154 74,154 77,154 77,153 74,152 75,151 76,152 76,151 77,150 77,149 79,150 83,151 85,151 86,150 85,150 85,150 85,150 85,149 85,149 84,149 84,149 84,149 84,148 84,148 83,148 83,148 83,147 83,147 84,146 84,145 83,145 83,145 82,145 82,145 81,145 80,145 80,145 80,146 81,146 81,146 80,147 80,147 80,147 79,147 79,147 79,147 78,146 77,146 77,146 77,146 77,146 77,146 76,146 76,145 75,145 75,145 73,144 71,143 71,142 71,142 72,142 72,142 72,142 72,141 72,141 73,140 73,140 72,140 72,140 72,139 72,139 72,138 72,138 73,138 73,138 73,136 73,135 73,134 73,131 71,131 70,131 70,128 75,124 74,123 73,124 72,124 71,123 70,121 72,120 73,119 70,117 65,117 64,118 63,118 63,119 64,120 65,120 66,121 65,122 63,122 62,122 59,122 56,121 51,118 50,118 50,117 50,116 51,115 52,114 51,113 51,113 51,112 49,111 48,112 47,112 46,112 46,113 44,114 43,113 41,113 41,113 40,113 40,112 39,113 38,112 38,112 38,112 38,112 38,112 37,112 37,112 38,111 38,110 38,109 38,109 38,109 36,108 34,107 32,107 32,106 32,106 32,105 32,105 32,105 32,104 32,104 32,104 32,103 32,103 32,103 31,103 31,103 31,103 30,102 29,102 29,102 28,102 28,101 27,101 27,101 26,101 26,101 25,101 24,101 23,100 23,100 23,100 22,100 21,100 21,100 20,100 20,100 19,100 19,100 19,100 18,100 17,100 16,99 16,99 15,99 16,98 16,98 17,98 17,97 17,97 23,94 26,92 28,90 29,90 30,87 34,85 38,80 35,78 32,79 32,79 32,76 29,77 26,78 24,75 23,73 22,72 21,71 21,71 17,72 17,71 18,69 14,68 15,66 17,65 17,64 17,63" id="5930" class="canton" fill="steelblue" stroke-width="1" stroke="white" geotype="canton" geoname="Maubeuge" code_insee="5930" code_departement="59" nom_departement="Nord" code_region="32" nom_region="Hauts-de-France"/></svg>