<?xml version="1.0" encoding="utf-8"?>
<svg version="1.1" id="svgmap" xmlns="http://www.w3.org/2000/svg" xmlns:xlink="http://www.w3.org/1999/xlink" x="0px" y="0px" width="100%" height="100%" viewBox="0 0 500 230">
<polygon points="1,43 2,43 3,43 6,44 6,44 7,45 8,45 8,45 10,45 11,45 11,45 11,45 12,45 13,45 13,45 16,47 16,47 17,47 18,47 19,48 20,48 21,48 22,48 22,48 23,48 24,48 25,48 27,48 27,48 29,47 30,47 31,46 32,46 32,45 33,45 33,44 33,44 33,44 33,43 33,43 34,42 34,41 35,40 35,39 35,39 37,38 37,37 37,37 38,36 39,35 39,35 40,33 41,33 41,32 41,32 42,30 42,28 42,27 43,26 43,25 43,25 44,24 44,23 44,23 45,22 47,20 48,19 49,17 49,17 50,16 51,13 52,12 52,11 54,9 55,7 56,6 56,6 57,5 58,4 59,4 61,1 62,1 62,1 62,1 64,1 64,1 65,1 66,1 68,1 69,1 70,1 71,1 71,1 72,1 73,1 74,1 76,0 77,0 79,1 78,2 72,5 70,6 70,7 68,8 68,8 66,11 67,12 68,13 69,14 71,16 74,20 74,22 74,22 74,22 75,24 71,28 74,31 85,31 90,30 95,29 99,26 100,26 100,27 100,27 101,28 101,28 102,30 102,30 102,32 102,33 102,34 103,34 102,35 102,36 102,36 102,37 102,38 102,39 101,39 100,39 100,39 98,41 93,43 93,43 92,44 91,44 91,45 91,46 91,46 90,47 90,47 91,47 90,48 90,48 90,48 91,49 92,49 92,49 93,49 94,49 95,49 97,50 98,51 100,51 101,52 102,52 103,52 103,52 103,52 103,52 103,52 103,52 103,52 105,50 107,49 108,48 110,47 111,48 111,49 112,49 113,50 115,51 116,51 116,51 118,50 119,50 120,49 122,47 122,47 123,47 124,46 125,46 125,46 126,45 126,44 126,44 127,43 127,43 127,43 127,43 129,43 130,44 131,43 133,43 134,42 135,39 139,40 140,40 143,39 145,38 145,35 144,33 146,33 147,34 148,34 148,34 150,35 153,34 154,34 156,34 159,34 161,34 162,35 163,36 167,36 169,36 172,36 173,36 174,35 178,36 180,35 181,36 182,36 182,36 182,36 182,36 185,37 186,38 184,39 182,38 181,40 181,40 178,41 173,47 169,50 171,51 171,52 172,51 172,51 172,50 172,50 172,49 174,49 174,48 175,48 176,47 177,47 181,44 182,44 181,44 182,43 182,43 183,42 184,41 185,41 185,40 186,40 187,39 189,38 189,38 190,37 191,37 192,36 192,35 193,35 193,34 193,34 193,33 193,32 193,32 193,31 195,30 195,30 196,29 197,28 197,28 209,27 209,26 216,22 225,24 256,18 258,12 269,9 269,9 270,9 275,13 282,9 294,3 298,5 298,5 298,6 299,6 300,7 301,8 301,9 301,9 302,10 303,11 303,11 304,12 304,12 307,12 307,12 308,12 310,11 310,12 311,12 311,12 312,12 312,12 313,12 313,12 313,12 314,13 314,13 315,14 317,14 318,13 318,13 319,13 320,12 322,12 326,9 328,8 329,16 329,19 337,22 340,22 346,24 346,24 346,24 348,24 348,24 348,25 348,25 348,25 349,25 349,25 349,25 349,25 349,25 348,26 347,26 347,27 346,27 345,28 345,28 345,28 345,28 345,28 345,28 346,28 346,28 346,28 347,28 347,28 348,28 348,28 348,27 349,27 349,27 350,27 350,27 350,27 350,27 366,32 366,32 366,32 367,32 376,34 377,34 377,34 378,32 378,32 381,33 380,34 384,35 382,38 383,38 389,41 390,42 390,43 390,44 390,44 390,45 390,45 390,46 390,46 390,46 392,45 394,45 399,46 401,47 398,50 398,50 397,51 397,52 397,52 397,52 398,53 398,54 398,54 398,54 399,55 396,55 396,57 392,57 392,57 387,57 384,56 384,56 384,57 384,57 384,58 383,60 383,60 383,60 384,60 384,60 384,60 385,59 385,59 385,59 386,60 387,60 387,60 387,60 389,59 389,59 389,61 389,61 390,60 390,60 391,61 391,61 391,61 392,61 392,60 392,60 392,60 393,60 393,60 393,60 395,60 395,60 393,62 393,62 395,63 395,63 395,63 396,63 396,63 396,63 396,63 396,63 396,64 396,64 396,64 396,64 396,65 397,65 397,65 397,65 397,65 401,65 401,65 401,65 401,64 402,64 403,64 403,64 403,64 403,64 403,63 404,63 404,63 404,63 404,63 404,63 404,62 405,62 405,62 405,62 405,62 406,62 406,62 407,62 407,62 408,62 408,62 408,62 408,63 407,64 407,64 405,66 405,66 403,66 403,66 402,66 402,66 403,67 403,67 404,68 404,68 404,68 404,67 406,68 406,68 406,68 407,67 407,67 408,66 408,66 409,66 409,66 410,65 411,65 411,65 411,65 411,65 409,64 409,64 409,64 410,64 410,63 411,64 413,65 413,65 413,65 413,65 413,66 412,67 412,67 412,67 413,68 413,69 413,69 414,70 414,70 415,68 415,68 415,67 416,67 416,67 416,67 416,67 416,67 416,68 417,68 417,68 417,68 417,68 417,68 418,67 418,67 418,67 418,68 419,68 419,68 419,67 419,67 420,66 420,66 421,66 421,66 422,66 422,66 422,67 422,67 422,67 422,68 423,68 423,68 423,69 423,69 423,70 422,70 422,70 422,70 422,70 422,70 422,70 422,70 422,70 422,70 421,71 421,71 421,71 421,71 421,72 420,72 420,72 420,72 419,73 419,73 419,73 419,73 419,73 419,73 419,73 418,73 418,74 417,74 417,74 417,74 417,74 417,74 417,74 417,74 416,75 415,75 414,76 414,76 413,76 412,76 412,77 411,77 411,77 410,77 410,77 410,78 410,78 409,78 409,78 409,79 409,79 410,80 410,80 409,80 409,80 409,80 410,81 410,81 409,81 409,81 410,81 410,81 410,81 411,81 411,81 411,81 411,81 411,81 413,82 413,82 413,82 413,82 414,82 414,82 415,82 417,82 418,83 418,83 419,83 420,83 420,83 421,83 422,83 423,83 423,83 424,83 424,83 424,83 424,82 424,82 424,82 424,82 424,82 425,82 425,81 425,81 425,81 426,81 426,81 426,81 426,81 427,80 427,80 427,80 428,79 429,79 429,79 429,79 429,79 430,79 430,79 431,79 431,79 433,77 433,77 434,77 434,77 435,76 435,76 435,76 436,75 436,75 437,74 437,74 437,74 437,74 437,74 439,74 439,74 439,74 438,75 438,75 438,75 439,75 439,75 439,75 442,74 444,74 444,74 445,74 445,74 445,75 445,75 445,75 445,75 445,75 445,76 445,76 445,77 446,77 446,76 446,76 447,76 448,76 448,75 448,75 448,75 448,75 449,75 449,76 449,76 446,77 446,78 446,78 447,78 449,79 449,79 449,79 451,79 452,79 452,79 453,79 453,79 454,79 454,79 454,79 454,79 455,78 455,78 455,78 456,78 456,78 458,79 458,79 458,79 460,78 460,78 460,78 460,78 460,78 460,79 459,80 459,80 459,80 459,81 459,81 459,81 457,83 456,84 456,84 456,84 456,84 456,84 456,84 455,85 455,85 455,85 454,85 454,85 453,85 453,86 453,86 453,86 453,86 453,86 452,87 451,87 451,87 451,87 450,88 450,89 450,89 450,89 450,89 450,89 450,89 450,89 450,90 450,90 450,90 451,90 451,90 451,90 451,90 452,91 452,91 452,91 452,91 452,91 452,91 452,92 452,92 452,92 452,92 452,92 452,92 453,92 453,92 453,92 455,93 456,93 456,93 456,93 456,93 456,92 456,93 456,93 456,92 457,92 458,92 458,92 458,92 458,91 458,91 458,89 458,89 458,89 458,89 458,89 458,89 458,89 458,89 458,88 459,87 459,87 460,87 460,87 461,87 461,87 461,87 461,87 461,86 461,86 461,86 461,86 462,85 462,85 462,85 462,85 462,85 463,85 463,84 463,84 465,83 465,83 465,83 465,83 465,83 465,83 466,81 466,81 468,81 468,81 469,81 469,81 469,79 469,79 469,79 469,79 470,79 470,79 469,79 470,79 471,78 471,78 471,78 471,80 471,80 472,80 472,80 472,82 472,82 472,82 473,82 477,83 477,83 477,83 477,83 479,82 480,82 480,82 482,81 482,81 484,83 484,83 483,86 482,87 482,87 482,88 482,88 482,88 482,89 483,90 483,90 483,91 483,92 483,93 482,93 482,93 482,93 482,94 482,94 481,95 481,95 480,95 480,95 479,96 478,96 478,96 477,96 476,97 476,97 475,97 475,97 474,97 474,97 469,99 469,99 470,105 470,105 469,108 469,110 469,110 469,110 469,110 471,111 472,112 472,112 473,111 473,111 474,111 474,111 474,111 474,111 475,111 475,112 475,112 475,112 474,112 474,112 474,112 473,113 472,113 470,115 470,115 470,115 470,116 469,117 469,118 468,119 468,119 467,122 467,122 467,123 468,123 468,123 469,123 470,124 471,124 473,126 475,129 476,129 476,129 476,130 476,130 476,130 476,131 476,132 476,132 476,132 476,133 475,133 476,133 475,134 476,134 475,134 475,135 476,136 476,136 477,136 477,137 477,138 477,138 477,138 477,138 477,139 477,139 478,139 478,139 478,139 478,140 478,140 478,141 478,141 477,142 478,142 478,142 478,142 478,143 478,143 478,143 479,144 478,144 478,144 479,144 479,145 479,145 479,145 479,145 479,145 479,146 479,146 478,146 478,146 478,146 478,146 478,147 478,147 479,148 479,148 479,148 479,148 478,149 478,149 478,149 478,149 477,150 477,151 478,151 478,151 478,151 478,151 478,151 478,152 478,152 478,152 478,152 477,152 477,152 477,152 478,152 478,152 478,152 477,152 477,152 477,152 477,152 477,152 478,153 478,153 478,153 478,153 478,153 478,153 478,153 479,153 479,152 479,152 479,152 479,153 479,153 479,153 479,153 479,153 479,153 479,153 479,153 480,153 480,153 480,154 480,154 480,154 480,154 481,154 481,154 481,154 481,154 481,154 481,154 481,154 481,154 481,154 481,154 481,154 482,154 482,154 482,155 482,155 482,155 482,155 482,155 483,155 483,155 483,156 483,156 483,156 483,156 483,156 483,157 483,157 483,157 483,157 482,157 482,157 482,157 482,157 482,158 482,158 482,158 482,158 482,158 482,158 482,158 482,158 483,159 483,159 484,159 484,160 484,160 486,160 488,161 488,161 488,161 489,162 489,162 489,162 489,162 488,163 488,164 488,164 488,164 489,164 489,164 489,164 489,164 490,164 490,164 490,164 490,164 491,164 491,164 490,164 490,164 490,164 489,165 489,165 489,165 489,165 488,165 487,165 487,165 487,165 487,165 486,167 486,167 486,167 486,168 486,168 486,168 486,168 486,168 486,168 487,168 488,169 488,169 488,169 488,170 488,170 487,171 487,171 487,171 487,171 486,172 486,172 486,172 486,172 486,172 486,173 484,173 484,173 484,174 484,174 483,176 483,176 483,176 482,177 482,177 481,176 481,176 479,176 479,176 479,175 479,174 479,174 479,174 479,174 479,174 478,174 478,174 478,174 478,174 478,174 478,174 478,174 478,173 478,173 478,173 478,173 479,172 479,172 478,171 478,171 479,171 479,171 479,171 478,170 477,170 476,170 476,170 476,170 476,170 476,171 476,171 476,171 476,171 476,172 476,172 477,172 477,172 477,172 477,172 474,172 474,172 474,172 474,172 474,172 473,173 473,173 475,174 475,174 475,174 475,174 475,174 475,174 476,175 476,175 475,175 475,175 475,176 475,176 475,176 475,176 477,177 477,177 477,177 477,177 478,179 478,179 478,179 478,179 478,179 476,178 476,178 476,178 476,179 475,179 475,179 474,178 474,178 473,178 473,178 472,178 472,178 471,178 471,178 471,178 471,178 470,177 470,177 468,177 468,177 468,177 468,177 467,178 467,178 467,179 466,179 466,179 466,179 466,179 466,179 466,179 463,179 463,179 463,179 463,179 463,179 463,179 465,180 465,180 465,181 465,181 465,182 465,182 465,182 465,182 464,184 464,184 464,184 464,184 462,185 462,185 462,185 462,185 462,185 462,185 461,185 461,185 460,185 460,185 459,184 459,184 459,184 458,183 458,183 458,183 458,182 458,182 458,182 458,182 458,182 458,182 458,182 458,182 458,181 458,181 457,180 457,180 456,180 455,181 455,181 454,182 454,182 453,182 453,182 453,182 454,181 454,181 454,181 453,180 453,180 452,180 452,180 452,179 452,179 452,179 450,179 450,179 450,179 450,178 450,178 451,178 451,178 452,178 452,178 452,177 452,177 451,177 450,177 450,177 450,177 451,177 451,177 451,176 451,176 451,176 451,176 452,175 451,175 451,175 451,175 451,175 450,175 450,175 449,175 447,176 447,176 445,176 444,176 444,176 443,177 443,177 442,176 441,176 441,176 441,176 440,177 440,177 438,176 438,177 438,177 438,177 438,178 438,178 438,178 436,177 435,177 435,177 435,176 435,174 435,173 435,173 437,173 438,173 439,173 439,173 439,173 439,172 439,172 440,172 440,172 441,172 441,172 441,171 441,171 441,171 442,171 442,171 443,170 443,170 444,169 444,169 445,169 445,168 446,168 446,168 446,168 446,168 446,168 448,167 448,167 448,167 448,167 449,167 449,167 449,167 449,167 450,166 450,166 449,165 449,165 451,165 451,165 452,165 452,165 452,165 453,165 453,165 453,165 453,165 453,165 453,165 454,165 454,165 452,164 452,164 452,164 452,164 451,164 451,164 451,164 451,164 449,163 449,163 449,163 449,163 449,163 449,163 448,163 448,163 448,163 449,162 448,162 448,162 446,161 443,161 443,161 443,160 443,160 441,160 441,160 440,160 440,160 440,160 440,159 440,159 440,159 438,158 437,158 436,158 436,158 435,158 435,158 436,158 435,158 434,158 434,158 434,158 435,157 435,157 434,157 434,157 433,157 432,157 432,157 432,157 431,157 431,157 431,157 431,157 431,157 431,157 429,157 429,157 429,158 429,158 423,157 422,157 421,157 421,157 420,157 419,157 419,157 418,158 418,158 417,157 417,157 415,157 413,158 413,158 412,158 411,158 411,158 410,158 410,158 410,158 410,158 408,158 407,158 407,158 406,159 405,159 403,159 403,159 401,160 401,160 394,162 394,162 393,162 391,162 390,162 387,162 387,162 387,162 387,162 387,163 387,163 385,162 385,162 385,162 385,162 385,162 385,162 385,162 385,162 384,162 382,162 382,162 382,162 382,162 382,162 382,162 382,162 382,162 382,161 382,161 382,161 382,161 381,161 379,161 379,161 378,162 373,163 373,163 373,162 372,162 372,162 371,162 370,161 370,161 370,161 370,159 368,159 368,159 368,159 368,159 368,159 367,158 367,158 367,158 366,158 366,158 366,158 365,157 365,157 365,157 365,157 363,156 363,156 363,156 363,156 363,156 363,155 363,155 363,155 360,155 360,155 358,155 358,155 358,155 358,154 358,154 358,154 357,154 357,154 357,154 357,154 357,155 357,155 355,156 354,156 351,156 351,157 351,157 351,156 350,156 346,158 346,158 345,158 343,159 340,160 339,160 338,160 336,160 336,160 337,162 337,162 337,163 337,163 337,163 337,164 337,164 337,166 337,166 337,166 337,167 337,167 337,167 337,167 337,167 334,167 333,167 333,167 333,167 333,167 332,168 331,168 331,168 330,168 330,167 330,167 329,167 329,167 329,167 329,167 326,167 326,167 326,166 325,166 325,166 325,166 325,166 325,168 325,168 325,168 324,168 324,168 324,168 324,169 324,169 324,170 324,170 325,170 325,170 325,171 324,171 324,171 325,172 325,172 326,172 328,173 328,173 331,175 331,175 331,175 330,176 329,176 329,176 329,176 329,176 329,176 329,177 329,177 328,177 328,178 328,178 328,178 328,178 328,178 328,178 328,179 328,179 328,179 328,179 328,179 328,179 326,180 326,180 324,179 324,179 325,179 325,178 325,178 324,178 324,178 324,178 323,177 321,177 321,177 321,177 321,178 321,178 320,179 320,179 320,180 320,180 320,180 319,179 319,179 318,180 318,180 312,183 312,183 312,184 312,184 313,184 313,184 313,184 313,184 313,184 313,184 313,184 311,185 311,185 311,185 311,185 309,186 309,186 308,185 308,185 308,185 308,185 308,185 308,185 308,185 306,186 306,186 307,186 307,186 301,189 301,189 300,189 300,189 300,189 298,188 296,188 295,188 295,188 295,189 295,189 292,188 292,188 291,188 290,188 290,188 289,188 289,188 289,189 289,189 288,189 288,189 288,189 288,189 287,188 286,185 285,184 285,184 284,183 284,183 284,183 284,182 283,180 282,180 282,179 282,179 277,178 276,178 276,178 276,178 276,178 276,178 276,178 275,179 275,179 275,180 275,180 275,180 274,180 275,180 275,180 274,180 273,180 273,180 271,181 270,181 270,181 270,181 270,181 270,181 270,181 270,181 264,181 264,181 264,180 264,180 264,180 264,180 263,180 263,180 263,180 263,180 262,180 262,180 261,180 261,180 259,180 258,180 257,180 256,180 256,180 255,180 255,180 255,179 255,179 255,179 255,179 255,178 254,178 254,178 254,178 254,178 254,178 254,178 253,177 253,177 252,177 251,177 251,176 251,176 251,177 248,175 248,175 246,174 246,174 246,174 246,173 244,173 242,172 242,172 241,172 241,172 241,172 240,173 239,173 239,173 238,173 238,173 237,174 234,175 234,175 233,176 232,176 232,176 231,177 230,177 229,177 227,178 226,179 224,179 223,180 222,180 222,181 220,182 220,182 220,182 219,182 219,182 219,182 219,182 220,182 220,182 220,182 220,182 220,182 220,182 219,183 219,183 219,183 219,183 218,183 218,183 216,183 215,183 214,184 214,184 214,184 214,184 214,184 213,184 213,184 213,184 213,184 212,184 212,184 212,184 210,184 210,184 211,185 211,185 211,186 211,186 208,186 208,186 208,188 208,188 208,188 207,188 207,188 207,188 207,189 207,189 206,189 205,189 205,189 205,190 205,190 205,190 201,191 201,191 201,191 201,191 201,192 201,192 198,192 198,192 198,192 198,192 198,192 198,192 198,192 197,192 197,192 197,192 196,192 196,192 196,194 195,195 195,195 195,195 195,195 195,195 195,195 195,195 195,195 195,195 194,195 194,195 194,195 194,195 190,194 190,195 190,195 190,195 189,195 189,200 189,200 189,200 188,200 188,200 188,200 188,200 188,200 188,200 184,200 183,200 182,203 182,203 183,204 183,205 183,205 182,205 181,205 181,205 182,210 182,210 180,210 180,210 180,212 180,212 179,212 177,212 177,212 177,212 177,213 177,213 177,213 176,212 176,212 176,212 175,215 174,217 174,217 173,218 172,219 172,220 172,220 172,220 172,220 173,222 173,222 173,222 172,226 172,227 172,227 171,228 171,228 171,228 167,230 167,230 167,230 155,227 153,226 153,226 153,226 153,224 153,223 153,222 153,222 151,222 151,222 150,222 150,222 150,222 150,223 150,223 150,223 148,223 148,223 148,222 148,222 144,221 144,221 144,221 146,216 146,216 144,217 144,217 140,216 139,216 138,216 136,215 136,215 136,215 134,215 134,215 134,215 134,215 134,215 134,214 134,215 134,215 134,215 133,215 133,215 133,215 133,215 133,214 133,214 132,214 132,214 132,214 131,215 130,215 130,215 128,214 127,214 128,214 128,214 128,214 129,214 129,213 127,210 127,210 127,210 127,209 127,209 127,208 127,206 127,206 127,206 125,206 125,206 125,206 125,206 125,204 125,204 125,204 126,203 126,203 126,201 126,201 128,201 128,201 128,201 128,199 128,199 129,199 129,199 129,199 129,199 130,198 130,197 131,196 131,196 131,195 130,195 130,193 130,193 129,191 129,191 128,191 128,191 128,189 128,189 127,189 127,189 127,188 127,188 127,188 125,188 122,188 122,188 122,187 122,187 122,186 122,186 122,186 122,186 124,181 125,179 125,176 127,172 127,172 126,172 126,172 126,172 126,171 126,170 126,170 126,170 124,170 111,171 111,171 111,171 111,171 111,171 111,171 111,171 111,171 111,171 111,170 110,170 93,172 93,172 93,171 93,171 93,171 93,171 91,171 91,171 90,172 89,172 88,172 88,172 87,172 87,172 85,172 85,172 85,172 86,171 86,171 86,171 85,171 85,171 83,171 83,171 82,172 82,172 82,172 82,172 81,172 80,172 80,172 80,172 80,172 80,172 79,172 78,172 78,172 78,172 78,172 77,172 77,172 75,172 75,170 75,169 76,163 76,162 76,162 76,159 76,159 76,159 74,159 74,159 74,159 72,160 72,160 72,160 72,160 70,160 69,160 69,160 69,160 67,160 67,160 67,160 67,158 68,156 69,150 70,143 70,143 70,143 71,143 71,143 71,143 71,143 72,143 72,143 72,143 74,144 74,144 74,144 74,144 74,144 75,140 75,139 75,139 81,138 81,138 82,135 82,135 78,134 77,134 77,134 77,132 77,132 77,132 77,132 77,132 77,132 77,132 77,129 77,129 73,126 73,126 67,123 67,123 67,123 67,123 67,123 66,123 65,123 62,126 61,126 52,118 52,118 52,118 52,117 52,117 53,116 53,115 53,115 54,115 54,115 54,115 54,115 54,115 54,115 55,115 55,114 55,114 55,114 55,114 60,112 60,112 60,112 61,112 61,112 61,112 61,112 62,111 62,111 62,111 61,110 61,110 61,110 60,109 59,109 59,108 58,108 58,107 56,106 56,106 56,106 55,106 55,105 55,105 55,105 54,105 54,104 53,101 53,101 53,101 52,101 51,99 51,99 52,99 52,99 51,98 49,98 49,98 47,99 47,99 45,99 45,99 42,99 42,99 41,99 41,99 39,100 39,100 39,100 39,100 39,100 39,100 36,100 36,100 34,100 34,100 33,100 33,100 33,100 31,99 31,99 30,99 29,99 29,99 29,99 29,99 28,98 28,98 27,98 27,98 27,98 26,98 25,98 25,98 22,97 22,97 22,99 22,99 22,99 21,100 21,100 21,100 21,101 21,102 21,103 21,103 21,103 21,103 21,104 21,104 21,104 21,104 20,106 20,106 5,103 5,103 6,98 6,98 4,96 5,95 4,95 4,94 4,94 4,94 5,94 4,94 4,94 4,94 4,94 4,93 4,93 4,93 5,93 5,93 5,92 5,92 6,92 6,91 6,91 7,91 7,91 10,88 10,88 10,88 14,86 14,86 14,87 16,86 16,86 16,86 16,86 18,85 21,83 22,82 22,82 22,82 22,82 22,82 24,81 25,80 25,80 25,80 25,80 25,79 26,78 26,78 26,77 26,77 26,77 26,77 25,77 25,77 24,77 24,77 24,77 24,77 24,78 24,78 24,78 23,78 23,78 22,78 22,78 22,78 22,78 21,78 20,78 19,78 18,78 18,78 18,78 18,78 17,78 17,78 17,79 16,79 16,79 15,79 15,79 15,79 15,79 15,79 13,79 12,79 11,79 11,79 11,79 11,79 10,79 10,79 9,78 9,78 9,78 9,78 9,78 9,77 9,76 9,76 9,76 9,76 8,76 7,75 6,75 6,75 7,75 7,75 7,75 7,75 7,75 7,74 7,74 7,74 8,73 8,72 8,72 8,72 8,72 10,72 10,71 10,71 10,68 10,67 10,63 10,63 10,63 9,62 6,61 6,61 5,60 5,60 4,60 4,60 4,60 3,59 3,59 2,59 2,59 2,59 2,59 2,58 2,58 1,57 1,57 1,57 0,57 0,57 0,56 0,56 1,56 1,55 2,54 3,54 0,53 0,53 0,53 0,53 1,52 1,51 1,51 1,51 1,51 1,51 2,51 2,51 2,51 2,51 2,48 2,47 2,47 0,45 0,45 0,45 1,43" id="6009" class="canton" fill="steelblue" stroke-width="1" stroke="white" geotype="canton" geoname="Crépy-en-Valois" code_insee="6009" code_departement="60" nom_departement="Oise" code_region="32" nom_region="Hauts-de-France"/><polygon points="403,184 403,184 404,184 404,184 404,184 405,184 405,184 405,183 406,183 406,183 406,183 406,183 406,183 406,183 407,182 408,182 409,181 410,181 413,180 415,180 415,180 415,180 415,180 415,180 415,179 414,178 414,178 414,178 414,178 414,178 414,178 414,178 414,178 414,177 414,177 414,177 414,177 414,177 414,177 413,176 413,176 413,176 413,176 413,176 413,176 416,176 416,176 419,175 419,175 420,175 420,175 420,175 420,175 421,175 422,175 423,175 423,175 424,175 426,174 427,174 427,174 429,175 430,175 430,175 430,176 431,176 432,178 433,179 433,179 434,180 435,181 435,181 434,181 433,181 432,181 429,181 428,181 428,181 428,181 427,181 427,181 427,181 427,182 427,182 427,182 427,182 427,182 427,183 427,183 427,183 427,183 427,183 428,184 428,184 428,184 428,184 427,184 427,184 427,184 427,184 427,184 427,184 427,184 427,184 428,184 428,184 428,185 430,185 430,185 429,185 429,185 430,185 430,185 430,185 430,185 429,186 429,186 429,186 429,186 428,186 427,188 427,188 426,188 426,188 425,189 425,189 425,189 424,190 424,190 423,191 423,192 423,192 423,192 423,192 422,192 422,192 422,191 422,191 422,191 422,191 422,191 422,191 422,191 422,190 422,190 420,190 419,191 419,191 419,191 419,192 419,192 418,192 418,192 418,193 418,193 418,193 417,193 416,193 415,193 415,193 415,193 415,192 415,192 414,192 413,192 413,192 413,192 412,192 412,192 412,193 412,193 411,193 411,192 412,192 413,191 413,191 413,191 413,190 412,190 412,190 412,190 412,190 412,191 412,191 412,191 411,191 411,190 410,190 410,190 409,190 409,189 409,189 409,189 409,189 409,189 409,188 410,188 410,188 410,187 410,187 410,187 409,187 409,187 409,187 409,186 409,186 409,186 409,186 409,185 409,185 409,185 409,185 409,185 409,185 408,185 407,185 407,185 406,185 404,185 403,185 403,184" id="6009" class="canton" fill="steelblue" stroke-width="1" stroke="white" geotype="canton" geoname="Crépy-en-Valois" code_insee="6009" code_departement="60" nom_departement="Oise" code_region="32" nom_region="Hauts-de-France"/><polygon points="491,167 491,167 494,167 494,167 494,167 494,167 494,167 494,167 494,166 494,166 495,166 494,166 495,166 495,166 498,166 498,166 498,167 498,167 499,167 499,168 500,168 500,168 500,168 499,169 499,169 497,169 497,169 497,169 496,169 496,169 496,169 496,170 496,170 494,171 494,171 494,170 493,169 493,169 493,168 493,168 491,168 491,168 491,167" id="6009" class="canton" fill="steelblue" stroke-width="1" stroke="white" geotype="canton" geoname="Crépy-en-Valois" code_insee="6009" code_departement="60" nom_departement="Oise" code_region="32" nom_region="Hauts-de-France"/></svg>