<?xml version="1.0" encoding="utf-8"?>
<svg version="1.1" id="svgmap" xmlns="http://www.w3.org/2000/svg" xmlns:xlink="http://www.w3.org/1999/xlink" x="0px" y="0px" width="100%" height="100%" viewBox="0 0 500 451">
<polygon points="108,6 109,6 109,7 109,7 110,7 110,7 110,7 110,7 110,7 113,7 115,7 115,7 115,7 115,7 116,7 116,7 116,7 116,7 116,7 117,7 116,7 117,7 117,8 117,8 117,8 117,9 117,9 117,9 117,9 118,9 118,9 119,10 119,10 120,10 120,10 120,10 120,10 119,11 119,11 119,11 118,11 118,11 118,11 118,11 118,11 117,11 117,11 116,11 116,11 115,11 115,11 115,11 115,11 115,11 115,11 115,11 115,11 115,11 115,11 116,11 116,11 116,11 116,11 116,11 117,11 118,11 118,11 120,14 120,14 120,14 119,14 119,14 120,16 120,16 123,15 123,15 123,15 125,14 125,14 124,14 123,13 123,13 125,12 125,12 125,13 127,15 127,15 127,15 127,15 127,15 129,14 130,14 131,13 131,13 132,13 132,13 133,12 133,12 133,12 133,12 133,12 135,12 135,12 135,12 135,11 135,11 135,11 137,11 137,11 137,11 138,11 138,12 139,13 139,13 140,14 141,16 141,16 141,16 143,18 143,18 144,20 144,20 144,20 144,20 145,21 145,21 145,22 146,23 146,23 146,23 146,23 146,23 148,26 149,26 149,26 149,26 149,27 150,27 150,28 150,28 150,28 150,28 150,28 151,28 151,28 151,28 152,28 152,28 153,28 153,28 154,28 154,28 155,28 155,28 155,28 155,28 156,28 157,28 158,27 159,27 159,27 161,27 161,27 162,27 163,27 165,27 165,27 166,27 167,27 167,27 168,27 168,27 168,27 168,27 168,27 171,28 171,28 172,28 172,28 172,28 172,28 172,28 172,28 172,29 172,29 172,29 172,30 172,30 172,30 172,30 172,30 173,31 174,33 174,33 174,33 174,33 174,33 174,33 174,34 174,34 174,34 174,34 174,35 174,35 174,35 174,35 174,35 173,36 173,36 172,37 172,37 171,38 171,38 169,39 169,39 169,39 169,39 168,39 168,39 167,40 167,40 167,40 166,40 166,40 166,40 165,40 164,41 164,41 163,41 163,41 162,42 161,42 161,42 161,42 161,42 161,42 161,42 161,42 160,42 160,42 160,42 158,43 157,43 157,44 157,44 157,44 157,44 156,44 156,44 156,45 156,45 155,45 155,45 155,45 155,45 155,45 153,46 153,46 153,46 153,46 152,46 152,47 152,47 152,47 151,47 151,47 150,47 150,47 150,47 150,48 150,48 150,48 150,48 150,48 151,48 151,48 151,49 151,49 151,49 151,49 151,49 151,49 151,49 151,49 151,49 152,50 152,50 153,53 153,53 154,52 154,52 154,52 154,52 154,52 155,52 155,52 156,52 156,51 156,51 156,51 159,50 159,50 160,50 161,50 161,51 161,51 161,51 164,51 164,51 166,51 166,51 166,51 166,51 166,51 168,51 168,51 168,51 168,51 168,52 168,53 168,53 168,53 168,53 170,52 170,52 171,53 171,53 171,53 171,53 171,54 171,54 171,54 171,54 171,54 171,54 171,55 172,55 172,55 172,55 172,56 173,56 173,56 173,56 173,56 173,56 173,57 174,58 174,58 174,58 174,58 170,58 170,58 170,59 170,61 170,61 170,62 170,62 170,63 170,63 170,63 171,63 171,63 173,65 174,66 174,66 176,67 177,67 177,68 177,68 180,67 180,67 180,68 180,68 181,68 181,69 183,71 183,71 183,71 183,71 183,71 183,71 185,70 186,70 186,70 186,70 186,70 187,70 187,69 188,69 188,69 188,69 190,69 190,69 190,69 191,68 191,68 191,68 192,68 193,68 193,68 193,68 194,68 194,68 194,68 194,68 195,68 195,68 196,68 197,68 197,68 199,68 199,68 199,68 199,68 200,68 200,68 201,68 201,68 201,68 202,68 202,68 202,68 203,68 204,68 204,68 204,68 204,68 204,68 204,68 205,68 205,69 205,69 205,69 206,69 206,70 208,71 209,72 211,73 212,74 212,74 212,74 214,73 217,75 217,75 218,75 218,75 218,75 219,75 219,75 219,75 220,75 220,75 220,75 220,75 222,75 222,75 223,75 227,74 227,74 227,74 227,74 228,74 228,74 228,74 228,74 229,74 229,74 229,74 229,74 229,74 229,74 229,74 229,74 229,74 230,74 230,74 230,74 230,74 230,74 232,74 232,74 232,74 232,74 232,74 233,74 234,74 234,74 234,74 235,73 235,73 235,73 235,73 235,73 235,72 236,72 236,72 236,72 236,71 238,71 239,70 239,70 241,69 241,69 241,69 243,67 246,66 246,65 246,65 248,65 248,65 248,64 248,64 250,63 251,63 251,63 252,62 252,62 253,61 253,61 255,60 257,59 259,58 259,58 259,57 259,57 260,55 260,55 261,55 261,55 261,55 261,55 261,55 261,55 263,55 263,55 263,55 263,55 264,55 264,55 265,56 266,56 266,56 266,56 267,56 267,55 267,55 269,55 270,54 272,53 273,54 273,54 273,54 273,53 274,53 274,53 274,53 274,53 274,53 274,53 274,52 274,52 274,52 274,52 274,52 274,51 274,51 274,51 274,51 274,51 275,51 276,51 277,50 278,50 279,50 279,50 279,50 279,50 280,50 280,50 281,50 281,50 281,50 281,52 281,53 281,53 281,53 281,53 282,55 283,57 284,58 285,59 285,60 286,60 286,60 287,62 288,62 288,63 289,63 289,63 289,63 289,64 289,64 289,64 289,64 289,64 290,64 290,64 290,64 290,65 290,65 290,65 290,65 291,65 291,65 291,65 291,65 292,66 292,66 292,66 292,66 292,66 292,66 292,66 292,66 292,66 292,66 292,66 292,66 292,66 294,68 294,68 294,68 294,68 294,68 294,68 294,68 294,68 294,68 294,68 295,69 295,69 295,69 295,69 295,69 295,69 295,70 295,70 295,70 296,71 296,72 296,72 297,72 297,72 297,72 297,72 298,71 298,71 299,71 299,71 299,71 300,71 300,71 300,71 301,71 301,70 301,70 301,70 302,70 302,70 302,70 303,69 303,69 303,69 303,69 303,69 304,68 304,67 305,67 305,67 305,66 305,66 305,66 305,66 306,66 306,66 306,66 306,66 307,66 308,65 308,65 309,64 310,64 310,63 311,62 311,62 311,61 312,61 312,61 312,60 312,60 312,59 312,58 313,58 313,57 313,57 313,57 313,56 313,56 313,56 313,56 313,56 313,56 313,56 314,55 314,55 314,54 314,54 314,54 315,53 316,53 316,53 316,52 317,52 317,52 317,52 317,52 317,52 317,52 318,52 318,52 318,52 318,52 318,52 318,52 319,51 319,51 320,51 321,50 322,50 323,50 323,50 323,50 322,52 322,52 322,53 322,54 322,54 322,54 322,55 323,55 323,55 323,56 323,56 323,56 324,56 324,56 324,56 327,58 327,58 327,58 328,60 328,60 330,62 330,62 333,60 335,59 335,59 335,59 335,60 335,60 336,60 336,60 336,60 336,60 336,60 336,61 336,61 336,61 336,61 337,61 339,60 339,60 339,60 339,60 340,60 342,60 342,59 342,59 343,60 343,60 342,61 342,61 342,61 342,61 342,61 342,63 342,63 343,63 344,62 344,62 344,62 344,62 344,62 345,62 346,62 347,61 347,61 347,61 347,61 347,61 348,61 349,60 349,60 349,60 352,59 352,59 352,59 355,58 355,58 355,58 356,58 356,58 356,58 356,58 357,57 357,57 357,57 358,59 358,59 362,58 362,58 362,58 362,58 362,59 362,59 362,59 362,59 361,59 361,59 361,59 361,60 361,60 361,60 361,60 361,60 361,60 361,60 364,63 364,63 364,63 365,63 366,63 367,63 367,63 367,64 367,64 367,64 368,64 369,64 369,64 370,64 370,64 371,64 371,64 372,64 372,64 373,64 373,64 373,64 374,64 374,64 374,64 374,64 374,63 375,63 375,63 375,63 376,63 376,63 376,62 376,62 376,62 377,62 377,62 377,61 377,61 378,61 378,61 378,61 378,61 378,61 378,61 379,60 379,60 380,60 380,60 380,60 381,60 382,60 383,60 383,60 384,60 385,60 385,60 385,60 387,60 387,60 387,60 387,60 388,60 388,60 389,60 389,60 389,60 390,60 390,60 390,60 391,60 391,60 392,60 392,60 392,60 393,60 393,60 393,60 393,60 393,60 394,60 394,61 394,61 395,61 395,61 395,61 395,62 395,62 395,62 395,62 395,62 395,63 395,64 395,64 395,64 396,64 396,64 397,64 398,64 398,64 398,64 398,65 398,65 398,65 399,65 399,65 399,65 399,65 399,65 398,65 398,65 397,65 397,65 397,65 396,65 396,65 395,65 395,65 395,66 395,66 395,66 395,66 395,67 395,67 395,67 395,67 396,67 396,67 397,67 397,67 397,67 398,67 398,67 398,67 399,68 400,68 401,68 401,68 402,68 402,68 403,69 403,69 404,69 405,69 405,69 406,69 407,69 408,70 408,70 408,70 408,70 408,72 408,72 408,72 408,72 407,72 407,72 407,72 406,72 406,72 406,73 406,73 406,73 406,73 407,74 407,74 406,74 406,74 406,74 406,74 406,74 407,75 407,75 408,76 408,76 408,76 408,76 408,76 408,76 408,76 408,76 409,76 409,76 409,76 409,76 409,76 410,76 410,76 410,76 410,76 410,76 411,76 411,76 411,76 411,76 413,75 413,75 414,75 414,75 414,75 414,75 414,75 414,75 414,75 415,75 415,75 415,75 415,75 415,75 415,75 415,75 417,74 418,74 418,74 418,74 418,74 418,74 418,74 419,74 419,74 419,74 419,74 419,74 419,74 419,74 419,74 419,74 419,74 419,74 419,74 419,74 420,74 420,74 421,74 421,74 421,75 421,75 422,75 422,75 423,76 423,76 423,76 423,78 423,78 423,78 423,78 423,78 423,78 423,79 423,79 423,79 423,79 423,79 423,79 423,79 423,79 423,79 423,79 423,80 424,80 424,80 423,80 423,80 424,81 424,81 424,81 424,81 424,81 424,81 424,81 423,82 423,82 423,82 423,82 423,81 422,82 422,82 422,82 422,82 422,83 423,83 423,83 423,83 423,83 424,83 424,83 424,83 425,84 426,84 426,84 427,84 427,84 427,84 427,85 427,85 427,85 427,85 427,85 427,85 427,85 427,85 428,86 428,86 428,86 428,86 428,86 428,87 427,87 426,87 426,88 425,88 425,88 425,88 425,87 424,87 424,87 423,86 423,86 423,86 420,85 420,85 419,86 419,86 419,85 419,85 419,85 419,85 417,85 416,86 415,86 414,86 413,86 413,86 411,86 410,86 410,86 410,86 410,86 410,86 410,87 411,87 412,88 412,88 412,88 413,88 413,88 414,89 414,89 414,89 415,89 415,89 416,89 416,89 416,90 416,90 416,90 416,90 417,90 417,90 417,90 418,90 418,90 418,91 419,91 419,91 419,91 419,91 421,90 421,90 426,89 427,89 427,89 427,89 427,89 427,90 427,90 428,90 428,90 428,91 429,91 429,91 429,92 430,92 430,92 430,92 431,92 432,91 432,91 433,91 433,91 433,91 433,91 433,91 433,91 434,91 435,91 435,90 436,90 437,90 437,89 437,89 437,89 438,89 439,89 440,88 441,87 441,87 441,87 443,85 443,85 443,85 443,85 443,85 443,84 444,84 444,83 444,83 444,83 444,83 444,83 445,82 445,82 445,82 446,82 446,81 447,81 447,81 448,80 448,80 455,84 455,84 455,84 456,83 456,83 456,83 456,83 457,83 457,82 457,82 457,82 458,82 458,82 458,82 458,82 458,82 458,82 458,82 458,82 458,82 458,82 459,83 461,82 461,82 461,82 461,82 461,82 461,82 461,82 464,81 464,81 464,81 464,81 466,80 468,80 469,79 471,79 471,79 471,79 473,79 473,79 473,79 475,79 475,79 475,79 475,79 475,79 476,79 478,80 482,80 483,80 484,80 484,80 485,80 486,81 487,81 487,81 487,82 487,82 487,82 487,82 488,82 488,83 488,83 489,84 489,84 490,85 490,85 490,85 491,85 491,85 491,85 491,85 492,85 492,86 492,86 492,86 492,86 493,86 493,86 493,86 494,86 494,86 494,86 494,86 494,86 494,86 495,87 496,87 497,87 497,87 497,87 497,87 497,88 498,88 498,88 498,89 498,89 498,90 498,90 499,92 498,92 497,92 497,92 496,92 495,92 495,92 495,94 495,95 495,95 495,95 498,96 498,96 499,96 499,97 498,97 500,97 500,97 495,100 495,101 495,101 495,101 495,101 495,101 495,101 495,101 495,101 495,101 495,101 495,101 495,101 495,101 495,102 495,102 495,101 494,101 494,101 493,101 493,102 493,102 493,102 493,102 492,103 492,103 491,104 491,104 491,104 491,104 491,105 490,105 490,105 489,105 489,105 489,105 489,105 488,106 487,106 486,106 486,106 485,106 485,106 485,106 484,105 483,105 482,105 482,105 480,105 479,105 478,105 478,105 477,105 476,105 476,105 476,105 476,105 475,105 475,105 475,106 475,106 475,106 475,106 475,107 475,107 475,107 475,107 475,107 476,107 478,108 478,109 479,109 480,110 480,110 481,111 482,111 482,112 480,112 479,114 477,114 475,113 475,113 474,113 472,113 471,113 471,113 470,113 470,113 470,113 468,113 466,113 465,113 465,113 464,113 464,113 463,113 462,113 462,113 462,113 460,109 458,106 458,106 457,105 456,106 455,106 454,106 453,106 452,106 451,106 450,106 450,106 450,106 450,106 450,106 450,106 450,106 450,106 449,106 449,106 449,106 449,106 449,106 449,106 448,106 448,106 446,107 446,107 446,107 445,107 445,107 443,107 443,107 444,108 444,108 444,109 445,111 445,111 445,111 445,111 446,111 445,113 443,112 443,113 443,113 443,113 443,114 442,114 442,114 442,114 443,114 443,114 443,114 443,114 443,115 443,116 443,117 443,117 444,117 444,117 444,117 442,118 442,118 441,118 441,118 440,118 440,118 439,118 439,118 438,117 437,116 436,116 436,117 436,117 436,117 435,116 434,116 433,116 432,116 431,116 430,116 429,115 428,115 427,115 427,115 427,115 427,115 426,115 426,115 425,115 425,115 425,115 426,114 426,114 426,114 426,113 427,113 427,113 427,112 426,112 426,112 426,111 425,112 424,112 424,112 424,112 424,112 424,112 424,112 423,112 423,112 423,112 423,112 423,112 423,112 423,112 423,112 423,112 423,112 423,113 422,113 422,113 422,113 422,113 422,113 422,113 422,113 422,113 422,113 422,113 422,113 422,113 422,113 422,113 421,113 421,113 422,114 422,114 422,114 422,114 421,114 421,114 421,114 421,114 421,114 421,114 421,114 421,114 421,114 421,114 421,114 420,114 420,114 420,114 420,114 420,114 420,114 420,114 420,114 419,115 419,115 419,115 419,115 419,115 419,115 419,115 418,115 418,115 418,115 418,115 418,115 418,115 418,115 418,116 417,116 417,116 417,116 416,116 416,116 416,116 416,116 416,116 416,116 416,116 416,116 416,116 415,116 415,116 415,116 415,116 415,116 415,116 415,116 415,116 415,116 414,116 414,116 414,117 414,117 414,117 414,117 414,117 414,117 414,117 413,117 413,117 413,117 413,117 413,117 413,117 413,117 413,118 412,118 412,118 412,118 412,118 412,119 412,119 412,119 412,119 411,119 411,119 411,119 411,119 411,119 411,119 411,119 411,119 411,119 411,119 411,119 411,119 410,119 410,119 410,119 410,119 410,119 410,119 410,119 410,119 410,119 410,119 410,119 410,119 409,119 409,119 409,119 409,120 409,120 409,120 409,120 409,120 409,120 409,120 409,120 409,120 408,120 408,120 408,120 408,120 408,120 408,120 408,120 408,120 408,120 408,120 408,120 408,120 408,120 408,120 408,120 408,120 408,120 407,120 407,120 407,120 407,120 407,120 407,120 406,120 406,120 406,120 406,120 406,120 406,120 406,120 406,120 406,120 406,120 406,120 406,120 406,121 406,121 406,122 406,123 406,123 406,123 406,123 405,124 405,124 405,124 404,125 403,125 403,126 403,126 402,126 402,126 402,127 402,127 402,127 402,128 401,129 401,129 401,129 399,132 399,133 398,133 398,134 397,135 396,136 396,136 396,136 396,136 397,136 398,136 400,137 401,137 402,137 402,137 404,137 404,137 406,136 407,136 407,136 407,137 411,137 411,137 411,137 413,137 413,138 413,138 414,138 415,140 415,140 415,140 417,140 419,141 419,141 419,141 420,140 420,141 421,141 421,141 421,141 422,141 423,142 419,143 419,143 419,144 419,144 420,144 422,147 428,144 428,144 428,144 428,143 428,143 429,143 430,143 430,143 432,145 431,146 430,146 431,147 435,146 438,149 438,149 438,149 438,149 438,148 439,148 439,148 439,148 440,148 441,147 441,148 441,148 442,149 442,149 441,149 441,149 441,149 441,149 438,150 437,151 435,152 434,152 432,154 432,154 432,154 432,154 432,155 433,155 433,155 433,155 434,156 434,157 434,157 434,157 434,158 434,159 435,160 435,160 435,160 435,161 436,161 436,162 436,162 436,163 436,163 436,163 436,163 437,164 437,165 437,166 437,166 437,166 436,166 436,165 435,165 434,165 433,165 433,165 432,166 432,166 432,166 432,167 432,167 432,167 432,167 431,167 431,168 431,168 430,168 430,169 430,169 429,169 429,170 429,170 428,171 428,171 428,172 427,173 427,173 427,173 427,173 425,175 425,175 426,175 427,175 427,175 427,175 425,177 426,177 428,178 429,179 429,179 431,180 431,180 430,180 430,181 429,182 430,183 430,182 432,183 432,183 432,183 431,185 430,186 431,186 429,187 430,188 428,188 427,188 422,195 421,196 419,198 419,199 419,199 419,199 419,199 418,200 418,201 418,201 418,201 418,201 418,202 418,202 418,202 417,203 417,203 417,203 418,203 418,203 418,204 418,204 418,204 418,205 418,205 419,205 419,206 420,206 421,207 421,207 421,207 421,207 421,207 421,207 421,208 423,208 423,208 423,208 425,206 426,206 426,205 426,205 427,206 428,206 429,206 430,207 430,207 431,207 431,207 431,207 431,207 432,208 432,208 434,208 434,208 435,208 435,209 436,210 436,210 436,210 436,210 436,210 436,210 437,212 437,212 437,211 437,211 438,212 438,212 439,213 439,213 439,213 440,214 441,214 441,215 441,215 441,215 442,215 442,215 441,216 441,217 436,219 436,219 434,220 434,221 431,222 431,222 432,223 438,225 438,225 438,224 438,224 439,223 441,224 442,225 442,225 443,225 443,225 443,225 443,225 444,225 444,225 445,226 445,226 445,226 446,226 446,226 448,227 449,227 452,227 453,227 453,227 455,227 455,227 455,227 456,227 456,227 456,227 459,224 459,224 459,224 460,225 460,225 460,225 460,225 460,225 460,225 459,226 459,226 459,226 459,226 459,226 459,227 459,227 459,227 458,228 459,228 458,229 458,229 458,230 458,231 458,231 458,231 458,232 458,232 457,232 457,232 457,232 457,233 457,232 455,233 455,233 455,233 455,234 453,234 454,234 453,235 452,235 451,235 451,236 451,236 450,236 451,236 449,237 449,238 448,238 448,239 448,239 448,239 449,240 449,240 449,240 448,240 448,240 448,241 449,241 449,242 450,242 450,242 450,242 450,242 451,243 452,243 452,243 452,243 453,243 453,244 454,243 455,244 455,244 456,245 456,246 456,246 456,246 458,248 458,248 458,248 458,248 457,249 456,249 456,249 455,250 457,252 458,252 459,253 459,254 459,254 460,254 462,255 461,256 460,256 459,257 459,257 459,257 458,257 457,258 456,258 454,259 453,259 452,260 451,260 450,260 450,260 450,260 449,260 447,258 447,258 446,258 444,258 443,258 442,258 442,258 442,257 441,258 440,258 440,258 438,258 437,258 436,258 436,259 435,259 433,261 431,262 431,262 431,262 431,262 430,261 428,262 427,264 426,264 426,263 426,263 424,264 423,265 424,266 424,266 423,267 422,268 422,268 421,268 421,268 420,268 420,269 420,269 420,269 419,269 419,269 419,269 418,268 418,268 417,268 417,268 417,268 417,268 417,268 416,270 416,270 416,270 412,267 412,267 412,267 412,267 412,267 409,265 409,265 408,265 408,265 408,265 408,265 402,261 402,261 402,261 400,262 399,262 399,262 399,261 397,260 395,261 395,261 393,260 393,260 392,261 392,261 391,261 391,261 391,261 392,262 392,263 392,263 391,264 389,265 389,265 389,265 389,266 389,266 389,266 388,268 388,268 388,268 387,269 387,270 386,271 386,272 385,272 385,273 384,273 382,276 381,277 380,278 380,278 379,279 379,279 379,279 379,279 379,279 377,279 376,279 375,280 375,280 375,280 375,280 375,281 375,281 375,281 374,281 374,281 374,281 374,280 374,280 374,281 374,281 371,282 371,282 371,282 368,282 368,282 367,282 366,282 366,282 364,283 364,283 364,283 364,283 364,283 364,283 364,283 363,283 363,283 363,284 363,284 363,284 361,283 361,283 359,283 358,283 356,283 355,283 355,283 355,282 356,282 355,282 354,282 354,282 354,283 354,283 354,283 352,283 352,283 352,283 352,283 352,283 352,283 352,283 352,283 351,283 351,283 351,283 351,283 351,283 350,283 350,283 350,283 350,283 350,283 349,283 349,283 349,283 350,283 350,282 350,282 351,282 351,282 351,281 351,281 351,281 351,281 351,281 351,281 351,281 351,281 351,281 351,281 351,281 350,281 350,281 350,281 350,281 350,281 350,281 350,281 350,280 350,280 350,280 350,280 350,280 350,280 350,280 350,280 349,280 349,280 349,280 348,280 348,280 348,280 348,280 347,279 347,279 347,279 347,279 347,279 347,278 346,278 346,278 346,278 346,278 345,277 345,277 345,276 344,275 344,275 344,275 344,275 344,274 344,273 344,273 344,272 344,272 344,272 344,272 344,272 344,272 343,272 342,272 341,272 341,272 337,271 336,271 335,271 334,270 334,270 333,269 333,269 332,268 332,268 332,267 332,267 332,267 332,267 328,267 327,267 327,267 327,268 327,268 328,268 328,268 325,269 325,269 325,269 325,268 324,269 324,269 324,269 325,270 325,270 325,270 323,270 323,270 323,270 324,271 324,271 323,271 321,272 320,273 319,273 319,273 319,273 319,274 319,274 318,274 318,274 318,274 318,274 318,276 318,276 319,276 319,276 319,276 319,276 320,278 319,278 319,278 319,278 320,279 320,279 320,279 320,279 320,279 322,281 322,281 322,281 322,281 323,281 323,282 323,282 322,282 321,282 321,282 321,282 323,283 323,283 322,285 321,286 321,286 321,286 321,286 323,286 324,287 324,287 324,287 325,286 325,286 325,286 325,286 325,287 325,287 325,287 325,287 325,287 325,287 325,287 325,287 325,287 325,287 326,287 326,287 325,289 325,289 325,289 326,289 326,289 326,289 325,290 325,290 325,290 325,290 327,290 329,291 331,291 331,291 331,291 329,294 329,294 329,294 328,295 328,295 329,295 330,296 330,296 329,296 329,297 329,297 330,297 330,297 330,297 330,297 330,297 330,297 331,297 331,297 331,298 331,298 331,298 331,298 331,298 330,298 330,298 330,298 330,298 330,298 330,298 330,298 330,298 330,298 329,298 329,298 329,298 330,299 330,299 330,299 330,299 330,299 331,299 331,299 331,299 331,299 331,299 331,299 331,299 330,299 330,299 329,300 329,300 329,300 330,300 330,301 330,301 331,301 333,302 333,302 334,302 335,302 337,303 338,303 339,303 339,303 339,304 340,304 340,304 340,304 341,304 341,304 341,305 341,305 343,306 343,306 343,306 343,307 343,307 344,308 343,308 343,309 343,310 343,310 342,310 342,310 342,310 342,310 341,310 340,310 340,310 341,310 341,311 341,311 340,310 339,311 339,311 339,311 338,312 338,312 337,313 338,313 337,314 337,314 337,314 337,315 337,315 338,315 337,316 337,317 338,317 337,318 336,319 336,319 335,319 334,319 333,319 332,319 332,319 331,319 330,319 330,319 329,319 327,319 327,319 326,319 325,319 325,319 323,319 323,319 321,319 320,319 319,319 319,319 317,319 316,319 315,319 314,319 313,319 313,320 312,321 312,322 312,322 311,322 312,323 312,323 312,323 312,323 311,323 311,323 311,324 311,324 311,324 310,324 310,324 309,324 308,324 308,324 307,324 306,324 305,324 305,324 304,324 304,324 303,324 302,323 301,323 301,323 300,323 300,323 300,323 300,323 300,324 300,323 299,323 298,323 298,323 298,323 298,323 298,323 298,323 298,323 297,323 297,323 297,323 296,323 296,323 295,323 295,323 295,323 295,323 295,323 295,322 295,322 295,322 295,322 295,321 295,321 295,321 295,321 295,321 295,320 294,320 294,320 294,320 294,320 293,321 293,321 293,321 293,321 293,322 293,322 293,322 293,322 293,322 292,322 292,322 292,322 292,322 292,322 291,323 291,323 290,323 290,323 290,323 289,323 289,323 289,323 289,323 288,324 288,324 288,324 287,324 287,324 287,324 287,324 287,324 287,324 286,324 286,324 285,325 285,325 285,325 285,325 285,325 284,326 284,326 283,326 282,327 282,327 282,327 282,327 282,327 281,327 281,328 280,328 279,328 279,328 279,329 278,329 278,329 277,329 277,329 277,330 277,330 277,330 276,330 276,331 275,331 275,331 275,332 275,332 274,333 274,333 274,333 274,333 273,333 273,333 272,333 272,333 272,332 272,332 272,332 271,332 271,332 271,332 270,332 270,332 270,333 270,333 270,333 270,333 270,333 270,333 271,333 271,333 272,334 273,334 273,334 273,334 273,335 274,335 275,336 275,336 275,336 275,336 276,336 276,336 276,336 276,336 276,336 277,336 277,336 277,336 277,336 277,336 277,337 277,337 277,337 278,337 278,337 278,337 278,337 278,337 278,337 278,337 278,337 278,337 278,338 278,338 278,338 278,338 277,338 277,339 277,339 277,339 277,339 277,340 276,340 276,340 276,340 276,340 276,341 276,341 276,341 276,341 276,341 275,342 275,342 275,342 275,342 275,342 275,342 276,342 276,343 276,343 277,343 277,343 278,343 278,343 279,343 279,343 280,343 281,343 281,344 282,344 282,344 282,345 282,346 282,346 282,346 282,346 282,347 282,347 282,347 282,348 282,348 282,348 283,348 283,348 283,349 282,349 283,349 283,349 283,350 283,350 282,351 283,351 282,351 282,351 281,351 281,351 280,352 280,352 279,352 280,352 279,352 279,353 279,353 279,353 279,353 279,354 280,354 279,354 279,355 280,355 280,355 280,355 280,355 280,356 279,355 279,356 278,356 278,357 278,357 277,357 277,357 276,358 276,358 276,358 276,357 276,357 276,357 276,357 276,357 276,357 276,357 276,357 276,357 276,357 275,357 275,357 275,357 275,357 275,357 275,357 275,357 275,357 275,357 275,357 275,357 275,357 275,357 275,357 274,357 274,357 274,357 274,357 274,357 274,357 274,357 274,357 274,356 274,356 274,356 274,356 274,356 274,356 274,356 274,356 274,356 273,356 273,356 273,356 273,356 273,356 273,356 273,356 273,356 273,356 273,356 273,356 273,356 273,356 273,356 273,356 273,356 273,356 273,356 273,356 272,355 272,355 272,355 272,355 272,355 272,355 272,355 272,355 272,355 272,355 272,354 272,354 272,354 272,354 272,354 272,354 272,354 272,354 271,354 271,353 271,353 271,353 271,353 271,353 271,353 271,353 271,353 271,353 272,353 272,353 272,353 272,353 272,353 272,353 272,353 272,353 272,352 272,352 272,352 272,352 272,352 272,352 272,352 272,352 272,352 272,352 272,352 272,351 272,351 272,351 272,351 272,350 272,350 272,350 272,350 272,350 272,350 272,349 272,349 272,349 273,349 273,349 273,349 273,349 273,349 273,349 273,349 273,349 273,348 273,348 273,348 273,348 273,348 274,348 274,347 274,347 274,347 274,347 274,347 274,347 274,347 274,347 274,347 274,347 274,347 274,347 274,347 274,347 274,347 274,347 274,347 273,347 273,347 273,347 273,347 273,347 273,347 273,347 273,347 273,347 273,347 273,347 273,346 273,346 273,346 273,346 273,346 273,346 273,346 273,346 273,346 273,346 273,346 273,346 273,346 273,346 273,346 273,346 273,346 273,346 273,346 273,346 273,346 273,346 273,346 273,346 273,346 273,346 273,346 273,346 273,346 273,346 273,346 273,346 273,346 273,346 273,346 273,346 273,346 273,346 273,346 273,346 273,346 273,345 273,345 273,345 272,345 272,345 272,345 272,345 272,345 272,345 272,345 272,345 272,345 272,345 272,345 272,345 272,345 272,345 272,345 272,345 272,345 272,345 272,345 272,345 272,345 272,345 272,345 272,345 272,345 272,344 272,344 272,344 272,344 272,344 272,344 272,344 272,344 272,344 272,344 272,344 272,344 271,344 271,344 271,343 270,343 270,343 270,343 269,343 269,343 269,343 268,343 268,343 268,343 268,342 267,342 267,342 267,342 267,343 266,343 266,343 266,343 266,343 266,343 266,343 266,343 265,343 265,343 265,343 264,343 264,343 264,343 263,343 263,343 262,343 262,343 261,343 261,343 261,343 261,344 261,344 261,344 261,344 261,344 260,344 260,344 260,344 260,344 260,344 260,345 260,345 259,345 259,345 259,345 258,344 257,344 256,345 256,345 256,345 255,345 255,345 255,345 255,345 255,345 255,345 254,345 254,346 254,346 253,346 253,346 252,347 251,347 251,347 251,347 250,348 249,348 249,348 248,348 248,348 248,348 248,349 249,349 249,349 249,349 249,349 249,349 249,350 249,350 248,350 248,350 248,350 248,351 249,351 249,351 249,351 249,351 249,351 249,351 249,351 249,351 249,351 248,351 248,352 248,352 248,352 248,352 247,352 247,352 247,352 246,352 246,352 246,352 245,352 245,352 245,352 245,352 245,352 244,352 244,352 244,352 244,352 243,352 243,352 243,352 243,352 243,352 243,352 242,353 242,353 242,353 242,353 242,353 242,352 242,352 241,352 241,352 241,352 241,352 241,352 241,351 241,351 241,351 241,351 241,350 241,350 241,350 241,350 241,350 241,350 241,349 241,349 241,349 241,349 242,349 242,349 242,349 242,348 242,348 242,348 242,348 242,348 242,348 243,347 243,347 243,347 243,347 242,347 242,347 242,347 242,347 242,347 241,347 241,347 241,347 241,347 241,347 241,347 241,347 241,347 241,348 241,348 240,347 240,347 240,347 239,347 239,347 239,347 238,347 238,347 238,347 238,346 239,346 239,345 239,345 238,345 238,346 238,346 238,346 237,346 237,346 237,345 237,345 237,345 237,345 237,345 237,345 237,345 236,344 236,344 236,344 236,344 236,344 235,344 235,344 235,344 235,344 235,344 235,344 235,344 234,344 234,345 233,345 233,344 233,344 233,344 233,344 232,344 232,344 232,344 231,344 231,344 231,344 231,344 231,345 231,345 231,345 231,345 231,345 231,345 231,345 231,346 231,346 231,346 231,346 231,347 231,347 231,347 231,347 231,347 231,347 231,347 231,347 231,347 231,347 232,348 233,349 233,349 231,349 231,349 230,350 230,350 229,350 228,350 227,350 227,349 227,349 226,350 226,350 226,350 226,351 226,351 226,351 227,352 227,352 228,352 228,352 228,353 228,353 228,353 228,353 229,353 229,354 229,354 229,354 230,354 230,354 230,355 230,355 230,355 230,355 230,355 231,356 232,356 232,357 232,358 232,358 232,358 232,358 232,358 232,358 232,358 232,359 232,359 232,359 232,359 232,360 232,360 232,360 232,360 232,360 232,360 232,361 231,361 231,361 231,361 231,361 231,361 231,361 231,362 231,362 232,362 232,362 232,362 231,363 231,363 231,363 231,363 231,363 230,363 230,363 230,363 230,363 229,363 229,363 229,363 229,363 229,363 229,364 229,364 229,364 229,364 229,364 229,364 228,364 228,364 228,364 228,364 228,364 228,364 228,364 228,364 228,364 228,364 228,364 228,365 228,365 227,365 227,365 227,365 227,365 227,365 227,365 227,365 227,365 226,365 226,365 226,365 226,365 225,365 225,365 225,365 225,365 224,365 224,365 224,365 224,365 224,365 224,365 224,365 224,365 224,365 224,365 224,365 224,365 224,365 224,365 224,365 223,365 223,365 223,365 223,365 223,365 222,365 222,365 222,365 222,365 222,365 221,365 221,365 221,365 220,365 219,365 219,365 219,365 218,365 218,365 218,365 218,365 218,365 218,365 218,365 218,365 218,365 218,366 217,366 217,366 217,366 217,366 217,367 217,367 217,367 217,367 217,367 217,367 217,368 217,368 217,368 217,368 217,368 218,368 218,368 218,369 218,368 219,368 219,368 219,369 219,370 219,370 219,370 220,371 220,371 220,371 221,371 221,371 221,372 221,372 222,372 222,372 222,372 222,372 222,372 222,372 222,373 222,373 222,373 222,373 222,373 222,373 222,373 221,373 221,373 221,373 221,373 221,374 221,374 221,374 221,374 220,374 220,374 220,375 220,375 220,375 220,375 220,375 220,375 220,375 220,375 220,375 220,375 220,375 220,375 220,375 220,375 220,375 220,375 220,375 220,375 220,375 220,375 220,375 220,375 220,375 220,375 220,375 220,375 220,375 220,375 220,375 220,375 219,375 219,375 219,375 219,375 219,375 219,376 219,376 219,376 219,376 219,376 219,377 219,377 219,377 219,377 219,378 219,378 219,378 218,379 218,379 218,379 218,379 218,379 218,379 218,379 218,380 218,380 218,380 218,381 218,381 218,381 219,381 219,381 220,381 220,381 220,382 220,382 220,382 220,382 220,382 220,383 220,383 219,383 219,383 219,383 219,384 219,384 219,384 219,384 219,384 219,384 219,384 219,384 219,384 219,384 219,384 219,385 218,385 216,385 216,385 216,385 216,385 216,386 216,387 216,387 216,387 215,387 215,387 215,388 214,389 214,389 213,390 213,390 213,390 213,391 212,391 212,392 212,392 211,392 211,392 211,392 212,392 212,392 212,392 212,393 212,393 212,393 212,393 212,393 212,393 212,393 212,394 212,394 212,394 212,394 212,394 211,395 211,395 211,396 211,396 211,396 211,397 210,397 210,398 210,399 210,399 210,399 212,401 211,401 211,401 211,401 211,401 211,401 211,402 211,402 211,402 211,402 211,403 211,403 211,403 211,403 211,403 211,403 211,403 211,403 211,403 211,403 211,403 211,403 211,404 210,404 210,404 210,404 210,404 210,404 210,404 210,404 210,405 210,405 210,405 209,405 209,405 209,405 209,405 209,405 209,405 208,405 207,405 207,405 206,405 206,405 205,405 204,405 202,406 201,407 201,407 200,407 200,407 201,408 201,408 201,408 199,409 198,410 196,411 196,412 196,412 196,412 196,412 195,412 194,414 193,414 192,415 192,416 194,417 196,419 196,419 196,420 197,420 197,422 197,422 198,424 199,424 199,425 199,425 199,425 198,426 198,427 198,427 198,427 198,427 197,427 196,427 196,427 196,428 195,429 195,429 194,430 192,431 190,432 190,432 190,432 190,432 190,432 190,432 189,434 189,434 189,434 189,434 189,434 189,434 187,434 187,434 187,434 185,435 185,435 185,435 185,435 185,435 185,435 184,435 184,435 183,435 183,435 183,435 182,435 182,435 182,435 182,435 182,435 182,435 181,435 181,436 181,436 181,436 180,436 179,436 179,436 179,436 179,436 178,437 177,437 176,437 175,437 175,437 174,437 174,437 174,437 174,437 173,438 170,439 170,439 170,439 170,439 170,439 170,439 169,439 169,440 169,440 169,440 169,440 169,440 169,441 169,441 169,441 169,441 168,441 168,441 168,441 168,441 168,441 167,442 167,442 166,441 163,438 164,435 164,434 165,433 165,432 165,430 165,429 163,429 163,429 153,429 153,429 151,429 148,428 146,427 142,423 142,422 140,424 138,426 137,426 135,428 132,430 128,430 129,429 129,428 129,428 129,428 130,426 130,426 130,425 128,425 129,424 129,424 130,424 131,422 133,422 134,421 134,421 135,419 135,419 135,419 136,417 136,417 135,417 134,416 134,416 134,416 135,415 135,415 135,415 135,414 135,414 132,412 132,412 131,413 129,413 127,413 126,413 125,413 125,413 125,413 124,413 123,414 123,414 123,414 123,414 122,414 122,414 122,414 122,414 122,414 121,414 121,414 121,414 120,415 120,415 119,415 119,415 118,415 118,415 118,415 118,415 117,415 117,416 117,416 116,416 116,415 115,415 115,415 115,415 115,415 114,415 114,415 114,415 113,415 113,415 113,415 112,415 112,415 112,415 112,415 111,415 111,415 110,415 110,415 110,415 109,415 109,415 109,415 109,415 108,415 108,416 108,416 107,416 106,416 106,416 105,417 104,417 104,417 104,417 104,417 104,417 103,417 103,417 101,418 98,417 98,417 98,417 97,416 97,416 96,416 96,416 96,417 95,419 95,419 95,419 93,418 93,418 93,418 92,419 91,419 91,419 90,420 90,421 90,422 90,422 90,425 90,425 90,426 90,426 90,426 89,426 89,427 89,427 89,428 88,428 88,428 88,429 88,429 88,429 88,431 87,431 87,433 87,433 87,433 86,434 86,434 85,435 85,435 85,435 84,436 84,437 83,438 84,438 84,438 84,438 84,438 82,439 82,439 83,440 83,440 83,440 83,440 83,440 84,440 84,440 85,440 85,441 85,441 86,441 86,441 86,441 86,441 86,441 86,441 86,441 86,441 87,441 87,440 88,440 89,439 89,439 89,439 90,439 91,439 92,439 93,439 93,439 94,439 94,439 94,439 94,439 95,439 95,439 96,438 97,438 98,438 99,438 99,438 99,438 99,438 100,438 100,438 101,439 101,439 103,440 103,441 104,441 104,441 102,443 98,445 96,446 95,447 94,447 93,447 92,448 92,448 91,448 90,448 90,448 89,448 88,448 83,450 81,451 80,451 80,451 80,451 80,451 79,451 79,451 79,451 79,451 79,451 79,451 79,451 79,451 78,450 78,450 78,450 78,450 78,450 78,450 77,450 77,450 77,450 77,450 77,450 77,450 77,449 77,449 78,449 78,449 78,449 78,449 78,449 77,449 77,448 77,448 77,448 77,448 77,448 77,448 77,448 76,448 76,448 76,448 75,448 75,448 75,448 75,448 75,448 75,448 74,448 74,448 74,448 74,448 74,448 74,448 73,448 73,448 73,449 73,449 73,449 73,448 72,448 72,448 72,448 72,448 72,448 72,448 71,448 70,448 70,448 70,448 70,448 70,448 70,448 70,448 70,448 70,447 70,447 70,447 69,447 69,447 69,447 69,447 69,447 68,447 68,448 68,448 68,447 67,447 67,447 67,447 67,447 67,446 67,446 67,446 67,446 67,445 67,445 67,445 67,444 67,444 67,444 67,444 67,444 67,443 67,443 67,443 67,443 67,443 66,443 66,443 66,443 66,443 66,443 65,443 65,442 65,442 65,442 65,442 64,442 64,442 64,442 65,442 65,442 65,442 65,442 66,442 66,441 66,441 66,441 66,440 66,440 65,440 65,440 65,440 65,440 65,440 65,439 64,439 64,439 64,439 64,438 64,438 64,438 64,438 64,438 64,437 64,437 64,437 64,437 63,437 63,437 63,436 62,436 62,436 62,436 62,436 62,436 61,436 61,436 61,436 61,436 61,436 60,436 60,436 60,436 60,436 60,436 60,436 60,436 60,436 59,436 59,436 59,436 59,436 58,435 58,435 57,435 57,435 57,435 56,435 56,435 56,434 55,434 55,434 54,434 54,434 54,434 54,433 54,433 54,433 54,433 54,433 54,433 54,433 54,432 54,432 53,432 53,432 53,432 53,432 53,432 53,432 53,432 53,432 53,432 52,432 52,432 52,432 52,432 52,432 52,431 52,431 52,431 52,431 52,431 51,430 51,430 51,430 51,429 50,429 50,429 50,429 50,429 50,428 50,428 50,428 49,428 49,428 49,428 49,428 49,428 49,428 49,428 49,427 49,427 48,427 48,427 48,427 48,427 48,427 48,427 48,427 48,427 48,427 48,427 48,427 48,427 48,427 48,427 48,427 48,427 47,427 47,427 47,427 47,427 47,427 47,427 47,427 47,427 47,427 47,427 47,427 47,427 47,427 47,427 47,427 47,427 47,427 47,426 47,426 47,426 47,426 47,426 47,426 47,426 47,426 47,426 47,426 47,426 47,426 47,426 47,426 47,425 47,425 47,425 47,425 47,425 46,425 46,425 46,425 46,425 46,425 46,425 46,425 46,425 46,424 45,424 45,424 45,424 45,425 44,425 44,425 44,425 44,425 44,425 42,424 42,424 41,424 41,424 40,423 39,423 38,423 38,423 37,423 37,423 37,423 37,423 37,423 37,423 37,422 37,422 37,422 37,422 37,422 37,422 37,422 36,422 36,422 36,422 36,422 36,422 36,421 36,421 36,421 36,421 35,420 38,419 37,419 38,418 38,418 39,418 39,418 40,418 40,418 40,418 41,418 41,418 41,418 42,418 42,418 42,418 43,418 43,418 43,418 43,418 44,418 44,418 44,417 45,417 45,417 45,417 45,416 46,416 46,416 46,415 46,415 47,414 47,414 47,414 47,414 47,414 47,414 47,414 47,414 47,414 49,413 49,413 49,413 49,413 50,413 51,413 51,413 51,413 51,413 51,413 52,413 52,413 52,413 52,412 52,412 52,412 52,412 54,411 55,410 58,409 58,409 59,409 59,409 59,409 58,408 57,408 57,407 55,407 55,407 55,407 54,407 53,407 53,407 53,407 52,407 52,407 52,407 52,407 51,407 51,407 50,407 50,407 49,407 48,407 48,407 47,407 47,407 46,407 44,408 44,408 43,408 42,408 42,408 42,408 41,408 40,408 40,408 39,408 38,409 37,408 36,409 36,410 35,410 35,411 33,411 33,411 32,411 32,411 32,411 32,411 31,411 31,411 31,411 31,410 31,410 31,410 31,410 31,410 30,410 30,409 30,409 30,409 30,408 30,408 29,408 29,408 29,407 29,407 29,407 29,407 29,407 29,406 29,406 29,406 29,405 29,405 29,404 29,404 29,404 29,404 29,404 29,404 29,404 29,404 29,404 29,404 30,404 30,404 30,404 30,403 30,403 31,403 31,403 31,403 31,403 31,402 31,402 31,402 31,402 31,402 31,402 31,401 30,401 30,401 30,401 30,400 30,400 30,400 30,400 30,400 30,400 30,399 30,399 30,399 30,398 30,398 30,398 30,398 30,398 30,397 30,397 31,397 31,397 31,396 31,396 31,396 32,395 32,395 32,395 32,395 32,395 33,395 33,395 33,395 33,395 33,395 34,395 34,395 34,395 34,394 35,394 36,394 36,394 36,394 37,394 37,394 37,393 37,393 38,393 38,393 38,393 38,393 38,393 38,393 38,392 38,392 38,392 38,392 38,392 38,392 38,392 39,392 39,392 39,392 39,392 38,392 38,392 38,392 38,392 38,392 38,392 38,392 38,392 38,392 38,392 38,391 38,391 38,391 39,391 39,391 39,391 39,391 39,391 39,391 39,391 39,391 39,391 39,391 39,391 39,391 39,391 39,390 39,390 39,390 39,390 39,390 40,390 40,390 40,390 40,390 40,390 40,390 40,390 40,390 40,389 40,389 40,389 40,389 40,389 40,389 39,389 39,389 39,389 38,389 38,389 38,388 38,388 38,388 38,388 38,388 38,388 38,388 38,388 37,388 37,388 37,388 37,388 37,388 37,388 37,388 37,388 37,387 37,387 37,387 37,387 37,387 37,387 37,387 37,387 37,387 37,387 37,386 37,386 37,386 37,386 38,385 38,385 39,385 39,384 39,384 39,384 40,384 40,384 40,384 40,384 40,383 40,383 40,383 40,383 39,383 39,383 39,383 39,383 39,383 39,383 39,383 39,383 39,383 39,382 39,382 39,382 39,382 39,382 39,382 39,382 38,382 38,382 38,382 38,382 38,382 38,382 38,382 38,382 38,382 38,381 38,381 38,381 38,381 38,381 38,381 38,381 38,381 38,381 38,381 38,381 38,381 38,381 38,381 38,381 38,381 38,381 38,381 38,381 39,381 39,381 39,381 39,381 39,381 39,381 39,380 39,380 39,380 39,380 39,380 39,380 39,380 39,380 39,380 39,380 39,380 39,380 39,380 40,380 40,380 40,379 39,379 39,379 39,379 39,379 39,378 39,378 39,378 39,378 39,378 39,378 39,378 39,378 39,378 39,378 39,377 39,377 39,377 39,377 39,377 39,377 39,377 39,377 39,376 39,376 39,376 39,376 39,376 40,375 40,375 41,375 41,375 42,375 42,375 42,375 42,374 43,374 43,374 44,374 44,374 44,374 44,374 44,374 44,374 45,374 45,374 45,373 45,373 45,373 45,373 45,373 45,373 45,373 45,373 45,372 45,372 45,372 45,372 45,372 44,372 44,372 44,372 44,372 44,372 44,372 44,372 43,372 43,372 43,372 43,372 43,372 43,371 43,371 42,371 42,371 42,371 42,371 42,371 41,370 41,370 41,370 41,370 40,370 40,370 40,370 40,369 40,369 40,369 40,369 40,369 40,369 41,369 41,369 41,369 41,369 41,368 41,368 41,368 41,368 41,368 41,368 41,368 41,368 41,368 41,368 41,368 42,368 42,368 42,368 42,368 42,368 42,368 43,368 43,368 43,368 43,368 43,367 43,367 43,367 43,367 43,367 43,367 43,367 43,367 44,367 44,367 44,367 44,367 44,367 44,367 45,367 45,368 45,368 45,368 46,368 46,368 46,368 46,368 47,368 48,369 48,369 48,369 48,369 48,369 49,369 49,369 49,369 49,369 49,369 49,369 49,369 49,369 49,369 49,369 49,369 49,369 50,369 50,369 50,369 50,369 50,369 50,368 50,368 51,368 51,368 51,368 51,368 51,368 51,368 51,368 51,368 51,367 51,367 51,367 51,367 51,367 51,367 51,367 51,367 51,366 51,366 51,366 51,366 51,366 51,366 52,366 52,366 52,366 52,366 52,366 52,366 52,366 52,366 52,365 52,365 52,365 52,365 53,365 53,365 53,365 53,365 53,365 53,365 53,365 53,365 53,365 53,365 53,365 54,365 54,365 54,365 54,365 54,364 54,364 54,364 54,364 54,364 54,364 54,364 54,364 54,364 54,364 54,363 53,363 53,363 54,363 54,363 54,363 54,362 54,362 54,362 54,361 55,361 54,361 54,361 55,360 55,360 55,360 55,360 55,359 56,359 56,359 56,359 56,359 56,359 56,359 57,359 57,359 57,359 58,359 58,359 58,359 58,359 58,359 58,359 58,359 58,359 58,359 58,359 59,359 59,359 60,359 61,358 61,358 61,358 61,358 61,358 61,358 62,358 62,358 62,358 62,358 63,358 63,358 63,358 64,357 64,357 64,357 65,357 65,357 65,357 65,356 65,356 66,356 66,357 66,357 66,357 67,357 68,356 69,356 70,356 70,355 71,355 71,354 71,354 72,354 72,354 72,354 72,354 72,354 72,354 72,354 72,354 72,354 72,353 72,353 72,353 72,353 72,353 72,353 72,353 72,352 72,352 72,352 71,351 71,351 71,351 71,351 71,351 71,351 71,350 70,350 70,350 70,350 70,350 70,350 70,350 69,350 69,350 69,349 69,349 68,349 68,349 68,348 68,348 67,348 67,348 67,348 67,348 67,347 67,347 67,347 67,347 67,347 67,347 67,347 68,347 68,347 68,347 68,346 69,346 69,346 69,346 69,346 69,346 69,346 69,346 69,346 69,346 69,346 69,346 70,346 70,346 70,346 70,346 70,346 70,346 70,346 70,346 70,345 70,345 71,345 71,345 71,345 71,345 71,345 71,345 72,345 72,345 72,345 72,345 72,345 72,345 72,345 72,345 72,345 72,345 72,345 72,345 72,345 73,345 73,345 73,345 73,345 73,345 73,345 73,345 74,345 74,345 74,345 74,345 74,345 74,345 74,345 74,345 74,345 74,345 74,345 74,345 74,345 74,345 75,345 75,345 75,345 75,345 75,345 75,345 75,345 75,345 75,345 76,345 76,345 76,345 76,345 76,345 76,345 76,345 76,345 76,345 76,345 76,345 76,345 76,345 77,345 77,345 77,345 77,345 77,345 77,344 77,344 77,344 77,344 77,344 77,344 77,344 77,344 77,344 77,344 77,344 77,344 77,344 78,344 78,343 78,343 78,343 78,343 78,343 78,343 78,343 78,343 79,343 79,343 79,343 79,343 79,343 79,343 79,343 80,343 80,343 80,343 80,343 81,343 81,343 81,343 81,342 81,342 81,342 81,342 81,342 81,342 81,342 82,342 82,342 82,342 82,342 82,342 82,342 82,342 82,341 82,341 82,341 82,341 82,341 82,341 82,341 82,341 82,341 82,341 82,341 82,341 83,340 83,340 83,340 83,340 83,340 83,340 83,340 83,340 84,340 84,340 85,340 85,340 86,340 86,340 86,340 86,340 86,340 87,340 87,340 87,340 88,340 88,340 88,340 88,340 88,340 88,340 88,340 88,340 88,340 89,339 90,339 90,338 91,337 93,336 94,336 96,334 97,333 98,333 98,333 99,333 100,332 100,332 100,331 100,331 101,330 101,330 100,328 99,328 98,328 97,328 97,327 96,326 96,326 96,326 96,325 96,324 96,324 96,324 97,323 98,323 99,323 99,322 99,322 99,322 100,321 100,321 99,320 98,319 97,319 95,318 95,318 95,318 96,317 96,317 96,317 96,317 97,316 97,317 98,316 98,316 99,316 99,316 99,315 99,315 99,315 99,315 100,315 100,314 100,314 101,314 101,313 101,313 101,313 101,313 101,313 102,313 102,313 102,313 102,313 102,313 102,313 102,313 103,313 103,312 102,312 103,312 103,312 103,311 104,311 105,311 105,311 105,311 106,311 106,311 107,311 107,311 107,311 107,311 108,311 108,311 108,311 108,311 108,311 109,311 109,311 109,312 109,312 109,312 109,312 111,312 111,312 112,312 112,312 112,312 112,312 112,312 112,312 112,313 113,313 113,312 113,312 114,312 114,312 114,312 114,312 114,312 114,311 112,311 112,310 114,310 113,309 113,309 113,308 114,306 116,304 116,303 115,302 114,303 113,302 111,303 110,302 111,302 111,302 112,301 114,300 115,299 115,299 115,299 115,299 115,298 115,298 115,298 115,298 115,297 115,297 116,297 115,296 114,295 114,294 113,294 113,293 112,294 108,293 109,292 107,291 106,291 104,290 104,290 103,290 102,290 102,290 101,290 100,289 101,289 99,288 98,287 97,287 96,287 94,286 93,286 92,286 91,287 91,287 91,288 90,288 91,289 89,290 88,289 85,288 83,289 81,288 80,288 78,290 78,290 78,291 79,291 78,293 77,295 76,294 73,296 73,296 72,296 72,296 71,297 70,296 68,297 69,297 70,298 70,298 71,298 69,299 70,300 69,300 71,301 73,304 70,306 70,307 69,308 66,313 64,314 63,313 62,312 62,312 63,311 63,311 62,310 62,310 62,310 63,309 63,308 63,307 63,306 63,306 62,306 61,304 60,303 58,301 58,301 57,301 55,301 55,300 55,300 54,300 54,300 52,302 51,302 51,302 50,302 50,302 49,302 48,301 46,301 44,301 43,301 43,301 42,301 42,301 42,301 42,300 42,300 42,299 42,299 42,298 42,298 41,297 41,297 41,297 41,297 40,297 40,297 40,297 39,297 39,297 39,297 39,297 39,297 39,297 39,297 39,297 38,297 38,297 37,297 37,297 37,297 37,297 37,297 37,297 37,297 36,297 36,297 36,297 36,297 36,297 36,297 36,297 35,297 35,297 35,297 35,297 34,297 34,297 34,297 34,297 34,297 34,297 33,298 33,298 33,298 33,298 33,297 33,297 33,297 33,297 32,297 32,297 32,297 32,297 31,297 31,296 31,296 31,296 31,296 31,296 31,295 31,295 31,295 30,295 30,294 30,294 30,294 30,294 31,294 31,294 31,294 31,294 31,294 31,294 32,294 32,294 32,294 32,294 32,294 32,294 32,294 32,293 32,293 32,293 32,293 33,293 33,293 33,293 33,293 33,293 33,292 34,292 34,292 34,292 34,292 34,292 34,291 34,291 34,291 35,291 35,291 35,291 35,291 36,291 36,291 36,290 36,290 36,290 36,290 36,290 36,289 37,289 37,289 37,288 37,288 37,288 38,288 38,288 38,288 39,287 39,287 39,287 40,286 40,286 40,286 41,286 41,286 42,286 42,285 43,285 45,284 45,284 45,284 46,284 46,283 47,283 47,283 51,281 53,280 54,279 55,279 55,278 56,278 56,278 56,278 57,279 57,279 57,279 57,279 57,279 57,279 59,280 59,280 59,279 59,279 59,279 59,279 59,279 59,279 59,279 59,279 59,278 58,278 58,278 58,278 58,278 58,278 58,278 58,278 57,277 57,277 57,277 57,277 57,277 57,277 57,277 56,277 56,277 56,277 56,276 56,276 55,276 55,276 55,276 55,275 55,275 55,275 55,275 55,275 55,275 55,275 55,275 55,274 54,274 54,273 54,273 53,272 53,272 53,272 58,270 58,270 58,270 58,270 59,271 59,272 59,271 59,271 59,271 59,271 60,270 60,269 61,269 61,269 61,269 62,268 63,268 62,267 62,266 62,266 63,266 63,266 63,266 63,266 63,266 63,266 63,266 64,266 65,265 65,265 65,265 65,265 65,265 64,264 64,264 63,265 63,265 63,265 60,263 60,263 60,263 61,263 62,262 63,262 63,262 63,262 63,262 63,262 63,262 63,261 63,261 65,261 65,261 65,261 65,261 65,261 65,261 65,261 65,261 65,261 66,261 66,260 66,260 66,260 67,260 67,259 67,259 67,259 67,258 67,258 67,258 67,257 67,257 67,257 67,257 66,256 65,256 65,256 65,256 65,256 64,256 64,256 64,256 63,255 62,254 61,254 60,253 59,253 59,253 58,252 57,251 49,254 49,254 50,254 50,254 46,254 43,253 44,252 39,250 40,249 40,250 41,249 41,249 40,249 41,248 40,248 41,247 41,247 41,247 42,245 43,246 45,239 46,239 48,237 46,236 45,236 46,236 43,235 45,232 45,232 47,231 44,229 42,228 41,226 39,225 36,222 36,222 36,221 36,221 35,220 35,220 34,219 34,219 33,218 33,218 33,218 32,217 32,217 31,216 31,216 31,215 30,215 30,215 30,214 30,214 29,213 29,213 29,212 29,212 29,212 29,212 28,213 28,213 27,213 27,213 27,213 25,213 25,212 22,212 21,212 21,213 21,213 21,213 20,213 20,213 19,213 18,214 17,212 16,212 14,213 14,213 14,213 14,213 15,214 15,215 15,215 15,215 15,215 14,216 13,216 12,217 12,217 12,217 11,218 11,218 10,218 10,218 10,218 9,218 8,217 6,215 8,215 9,214 8,213 9,213 8,213 10,212 10,212 10,212 10,212 11,212 11,212 11,212 12,212 12,212 12,212 12,212 12,212 12,212 12,212 12,212 13,212 13,211 12,211 12,211 13,211 14,210 13,209 12,209 9,210 9,209 9,209 8,210 6,210 6,211 5,210 5,210 5,210 4,211 4,210 4,210 3,210 3,211 2,210 2,210 2,209 3,209 3,209 3,209 4,209 4,209 4,209 5,209 5,208 6,208 6,208 7,208 7,208 8,208 10,207 10,207 10,208 11,208 11,208 14,206 15,207 15,208 15,208 16,208 17,208 17,208 19,208 19,208 19,208 19,208 19,208 19,210 19,210 19,210 21,210 23,210 23,210 24,210 25,210 25,209 26,209 26,209 27,209 28,209 28,209 28,208 29,207 29,207 31,207 33,207 33,207 34,207 34,207 35,208 35,208 36,208 35,206 35,205 35,205 35,205 38,200 38,200 38,199 38,199 38,199 37,199 37,198 37,198 36,198 36,198 36,198 34,199 34,199 34,199 33,199 33,200 33,200 33,200 33,200 33,200 31,200 31,200 31,200 30,200 30,201 30,201 29,201 29,201 28,201 28,201 27,201 27,201 26,202 25,202 25,202 25,202 24,202 24,202 24,202 23,202 23,202 23,202 23,201 22,201 22,201 22,201 21,200 20,199 19,198 19,198 19,198 19,198 19,197 19,197 19,197 19,197 20,196 20,196 20,196 20,196 20,196 20,196 20,195 20,195 20,195 20,195 21,194 21,194 21,194 22,194 22,194 22,194 22,194 22,193 22,193 22,193 22,193 22,193 23,193 21,192 21,192 21,192 20,192 19,192 19,192 19,192 19,192 19,192 19,192 18,192 18,192 18,192 18,192 18,192 16,191 16,191 16,191 16,190 16,190 16,190 16,190 16,190 16,190 16,189 16,189 15,188 14,188 14,188 14,188 13,188 12,188 11,188 11,188 11,188 11,187 11,187 10,187 9,187 8,187 8,187 8,187 8,187 7,187 6,186 6,186 7,185 7,185 8,185 8,185 8,185 9,185 9,185 9,185 10,185 10,185 10,185 11,185 11,185 11,185 12,184 12,184 12,184 13,184 13,184 13,184 14,183 17,181 17,180 17,180 18,181 18,181 18,181 19,180 19,180 19,180 19,180 20,179 20,178 21,178 21,177 21,177 21,177 22,176 22,176 22,176 22,176 23,176 23,175 23,175 23,175 23,175 23,175 23,175 23,175 23,175 23,175 24,174 24,174 24,174 24,173 24,173 24,173 24,173 25,172 25,172 25,172 25,172 25,172 26,172 26,172 26,172 27,172 28,172 28,172 28,172 29,171 29,171 29,171 30,171 30,171 30,171 30,171 30,171 30,171 30,171 30,171 33,170 33,170 33,170 33,170 33,170 33,169 33,169 33,169 33,169 33,168 33,168 33,168 33,167 33,167 33,167 33,166 33,166 33,166 33,166 33,165 33,165 33,165 34,165 34,164 34,164 34,164 35,164 35,164 35,164 35,163 36,163 36,163 36,163 36,162 36,162 37,162 37,161 37,161 37,161 37,161 37,160 37,160 37,160 37,160 37,160 37,159 37,159 37,159 37,158 36,158 36,158 36,157 35,157 35,157 35,156 35,156 35,156 35,156 35,155 35,155 35,155 35,154 35,154 35,154 34,153 34,153 34,153 33,152 33,152 33,152 33,152 33,151 32,151 32,150 32,150 32,150 32,150 32,150 32,149 32,149 32,149 32,149 33,149 33,149 33,150 34,150 34,150 35,150 35,150 35,150 35,150 34,149 34,149 34,149 33,149 33,149 33,149 33,149 32,149 32,149 32,149 30,148 29,148 28,148 26,147 26,147 26,147 25,146 25,146 24,145 22,144 22,144 21,144 21,143 21,143 20,143 20,143 19,142 18,141 17,141 17,141 17,141 17,140 16,140 16,140 15,139 15,139 15,139 15,139 13,138 13,138 13,137 13,137 12,137 11,137 11,137 11,137 11,136 11,136 11,136 11,136 12,136 12,136 13,136 13,136 14,136 14,135 16,135 16,135 19,135 20,135 21,134 22,134 23,133 23,133 24,132 24,132 25,131 26,130 26,129 26,129 27,128 27,128 27,128 27,127 27,127 27,126 27,126 27,125 27,125 27,124 27,124 28,124 28,124 29,124 29,124 30,123 30,123 31,123 32,123 32,123 35,122 35,122 35,122 35,122 35,122 37,120 37,120 37,120 37,120 37,120 37,119 37,119 38,119 38,118 38,118 38,118 38,118 38,118 38,118 38,117 38,117 38,117 38,116 38,116 38,116 38,116 39,116 39,115 39,115 39,115 38,115 38,115 38,115 38,115 38,115 38,115 38,115 38,115 38,115 38,115 38,115 38,115 38,113 38,113 38,113 38,112 38,111 38,111 38,111 38,110 39,109 39,109 39,109 39,109 39,109 39,108 39,107 39,107 39,107 39,107 39,107 39,107 39,106 39,106 39,106 39,106 39,105 38,105 39,105 39,104 39,104 48,103 48,103 51,102 51,102 54,101 55,101 55,100 59,99 60,98 60,98 62,97 65,96 65,96 66,95 66,95 67,95 67,95 68,95 68,95 69,95 69,95 70,95 72,95 72,95 72,95 72,94 72,94 72,94 72,94 72,93 72,92 71,91 71,91 71,91 71,91 71,91 71,91 71,91 70,90 70,90 70,89 70,89 70,88 70,88 70,88 70,88 70,87 71,86 71,86 71,86 71,86 71,86 71,86 71,86 71,86 71,86 71,85 70,85 70,85 70,85 70,85 70,85 70,85 70,85 70,85 70,84 70,84 70,84 70,84 70,84 70,84 70,84 70,83 70,83 70,83 70,83 70,83 70,83 70,83 69,83 69,83 70,83 70,83 69,83 69,83 69,83 69,83 69,83 69,83 69,82 69,82 69,82 69,82 69,82 69,82 69,82 69,82 69,82 69,82 69,81 69,81 69,81 69,81 69,81 69,81 69,81 69,80 69,80 69,80 69,80 70,80 70,80 70,80 70,80 70,80 70,80 70,80 70,80 71,80 71,80 71,79 71,79 71,79 71,79 71,79 71,78 71,78 71,78 71,78 70,78 70,78 69,77 67,76 67,76 67,76 67,76 66,76 66,76 66,76 66,76 64,75 64,75 63,74 63,74 63,74 63,74 62,74 62,74 62,73 62,72 62,71 62,71 62,70 62,70 62,70 62,70 62,70 61,70 61,70 61,70 61,71 61,71 61,71 60,71 60,71 59,71 59,71 59,71 59,71 59,71 58,71 58,71 58,71 57,71 57,71 57,72 57,72 57,72 57,72 56,72 56,72 56,72 56,72 55,72 55,72 55,72 55,72 55,72 55,73 55,73 55,73 55,73 55,73 54,73 54,73 54,73 54,73 53,73 53,73 53,73 53,73 53,73 53,73 53,73 52,73 52,73 52,74 52,74 51,74 51,74 51,74 51,74 51,74 51,74 51,74 51,74 50,74 50,74 50,75 48,75 48,75 47,76 46,76 46,77 45,77 44,78 44,78 44,78 43,78 43,78 42,79 42,79 42,79 42,79 42,79 42,79 41,79 41,79 41,79 41,79 40,79 40,79 40,80 40,80 40,80 40,80 40,80 40,81 40,81 39,81 39,81 39,82 38,82 38,82 38,82 38,82 37,83 37,84 36,84 36,84 36,85 35,85 35,85 35,86 35,86 35,86 35,86 35,87 35,87 34,87 34,87 34,88 34,89 33,89 33,90 33,90 33,90 33,91 32,91 32,91 31,91 31,92 30,92 30,92 28,93 28,93 27,93 27,93 26,93 26,93 25,93 24,93 21,94 20,94 19,94 19,94 19,94 18,93 18,93 18,93 16,91 16,91 15,89 15,89 13,88 13,88 13,88 12,87 12,87 11,87 11,87 10,86 10,86 10,86 10,86 10,86 8,83 8,83 7,83 3,81 3,81 3,81 3,81 3,81 3,81 3,81 3,80 3,80 3,81 3,81 3,81 3,81 3,80 3,80 3,80 2,80 2,80 0,80 0,80 0,80 0,79 0,78 0,78 0,78 2,77 4,76 5,76 5,76 8,74 9,74 10,73 11,72 12,71 14,70 14,70 14,70 15,70 15,69 16,68 17,67 17,66 18,66 19,64 19,64 24,66 27,67 27,67 28,66 28,66 29,65 30,63 30,62 30,62 31,61 30,60 30,60 30,60 30,60 30,60 30,59 30,58 30,58 30,57 30,57 30,57 29,56 29,56 29,56 29,56 29,56 29,55 29,55 29,54 29,53 29,53 29,52 29,51 29,50 29,50 29,49 29,49 29,49 28,48 28,48 28,48 28,48 28,48 28,48 28,48 28,48 28,48 28,47 28,46 27,45 27,45 27,44 27,44 27,43 27,42 27,42 27,42 27,41 27,40 27,40 27,39 27,39 26,38 26,37 26,37 26,37 26,36 26,35 26,35 27,35 27,35 27,34 27,34 27,34 27,34 28,34 28,34 28,34 28,34 28,34 28,34 28,34 29,34 30,35 30,35 30,35 32,36 33,36 34,37 35,38 35,38 39,38 39,38 41,37 42,37 42,37 42,36 43,36 44,35 46,35 48,34 48,34 51,33 53,33 53,33 53,33 53,33 53,32 53,32 53,32 53,32 53,32 53,32 53,31 53,31 53,31 52,30 52,30 53,30 53,30 53,30 54,32 54,32 54,32 58,31 58,31 58,31 59,29 59,29 59,29 62,29 65,29 65,28 64,28 64,28 64,27 64,26 63,26 63,25 63,25 63,24 63,24 63,24 63,23 63,23 63,22 63,22 63,21 63,21 63,21 61,21 61,21 61,21 61,20 61,20 62,20 62,20 62,19 61,19 61,19 62,19 61,19 60,18 60,18 60,18 60,18 60,18 60,18 58,17 57,17 57,17 57,17 58,17 58,17 58,16 58,16 59,16 59,16 59,16 59,16 59,16 59,16 59,16 59,16 59,16 59,16 58,15 58,15 58,15 58,15 58,15 58,15 58,15 58,15 58,15 58,15 58,15 58,15 59,15 59,15 59,15 59,15 59,15 59,15 59,15 59,15 59,15 60,15 60,15 60,15 60,15 60,15 60,15 60,15 60,15 60,14 60,14 60,14 60,14 60,14 60,14 60,14 60,14 60,14 60,14 60,13 60,13 60,13 60,13 60,13 60,13 60,13 60,13 61,13 61,13 61,13 61,13 61,13 61,13 62,13 62,13 62,13 62,13 62,13 62,13 62,12 62,12 62,12 62,12 62,12 62,12 62,12 62,12 62,11 62,11 62,11 63,11 63,11 63,11 63,11 63,11 64,11 64,11 64,11 64,10 64,10 64,10 64,10 64,10 64,9 64,9 64,9 64,9 64,9 64,9 64,9 64,9 65,9 65,8 65,8 65,8 65,8 66,8 66,8 66,8 66,8 66,7 67,7 66,7 66,7 66,7 67,7 67,7 67,7 67,6 67,6 67,6 67,6 67,6 67,6 67,6 67,6 67,5 67,5 67,5 67,5 67,5 67,5 67,5 67,5 67,4 67,4 67,4 67,4 67,4 67,4 67,4 67,4 67,3 67,3 67,3 67,3 67,3 67,3 67,3 67,3 67,3 67,3 67,3 67,2 67,2 67,2 67,2 67,2 67,2 68,2 68,2 68,2 68,2 68,2 68,2 68,1 68,1 69,1 69,1 69,1 69,1 69,1 68,1 68,1 68,1 68,1 68,1 68,1 69,1 69,0 69,0 69,0 69,0 69,0 69,0 69,0 72,1 72,1 73,1 73,1 73,1 73,1 74,2 76,2 76,2 75,2 75,3 75,3 75,3 75,3 76,3 76,3 76,3 76,3 76,3 76,3 76,3 77,3 77,3 77,3 77,3 77,3 78,3 78,4 78,4 78,4 78,4 78,4 78,5 78,5 79,5 79,5 79,5 79,5 79,5 80,6 81,6 81,6 81,7 81,7 81,7 82,7 82,7 82,7 82,7 82,7 82,7 82,7 82,7 82,7 82,7 83,7 84,8 84,8 84,8 84,8 85,8 85,8 86,8 86,8 87,8 88,8 88,8 89,8 90,8 90,8 92,8 93,8 93,8 93,8 95,7 97,7 101,7 103,7 104,6 104,6 104,6 105,6 105,6 106,6 106,6 106,6 106,6 106,6 107,6 107,6 107,6 108,6 108,6" id="6011" class="canton" fill="steelblue" stroke-width="1" stroke="white" geotype="canton" geoname="Grandvilliers" code_insee="6011" code_departement="60" nom_departement="Oise" code_region="32" nom_region="Hauts-de-France"/></svg>