<?xml version="1.0" encoding="utf-8"?>
<svg version="1.1" id="svgmap" xmlns="http://www.w3.org/2000/svg" xmlns:xlink="http://www.w3.org/1999/xlink" x="0px" y="0px" width="100%" height="100%" viewBox="0 0 500 435">
<polygon points="0,141 1,139 4,136 4,135 5,134 5,134 7,132 8,131 8,131 8,131 9,130 11,128 10,128 12,127 11,126 14,124 14,124 16,122 16,122 18,122 17,120 17,119 18,119 18,118 19,118 20,116 21,116 23,113 24,113 26,111 31,106 32,104 32,104 31,103 31,103 35,100 35,99 35,99 36,98 39,97 42,95 38,92 36,91 31,90 30,91 15,86 15,86 14,87 10,81 9,82 8,79 11,79 11,77 10,74 14,74 14,68 14,68 14,68 14,67 16,67 17,65 17,65 20,60 20,60 19,60 21,58 23,56 25,55 24,55 32,49 41,54 41,53 45,55 47,54 47,54 53,57 54,56 59,58 60,59 60,59 62,60 68,62 73,64 74,64 77,64 76,63 76,63 76,62 76,62 73,61 73,61 71,60 69,59 68,58 66,58 66,58 66,57 65,57 65,56 64,56 64,56 64,55 62,54 61,54 60,54 60,53 59,53 59,53 59,52 58,51 58,51 58,51 58,51 56,50 55,49 54,48 53,47 52,47 51,45 50,45 48,43 48,43 48,43 48,43 48,43 48,43 47,42 46,42 43,40 43,39 42,39 42,38 41,37 40,37 40,36 40,36 40,36 38,33 37,32 37,31 37,30 37,30 37,30 37,28 37,28 38,28 38,28 35,26 35,26 38,25 40,25 40,24 41,24 41,24 41,24 43,23 43,23 43,23 45,23 48,23 49,23 50,23 50,23 51,23 54,24 54,24 56,24 56,24 58,25 59,25 60,26 60,26 61,26 61,26 62,26 62,26 63,25 64,25 64,25 65,24 66,24 66,24 67,24 67,23 67,23 67,22 68,21 70,19 71,18 71,18 72,19 73,19 73,19 74,19 74,20 75,20 75,20 76,20 76,19 76,19 78,18 79,17 79,17 80,17 80,17 81,16 82,16 82,16 83,15 83,15 81,12 81,12 80,12 78,10 80,8 80,8 81,7 75,3 76,2 78,1 78,1 78,1 78,1 78,1 79,0 79,0 80,0 82,2 82,2 83,2 83,3 84,4 84,4 85,5 84,5 84,6 86,7 86,7 89,8 89,8 90,8 91,9 93,10 94,11 96,13 97,14 97,14 97,14 98,16 98,16 99,17 101,16 101,16 102,16 103,15 106,13 110,11 110,11 110,11 112,12 113,13 113,13 114,13 116,17 117,15 119,14 119,14 119,14 119,13 119,13 120,12 121,12 121,12 121,12 121,12 122,11 124,10 126,9 127,9 127,9 127,9 128,9 128,9 128,10 128,10 129,10 129,10 129,10 129,10 129,10 129,10 129,10 129,10 130,10 130,10 130,10 131,10 131,10 131,10 130,10 131,10 131,10 131,10 131,10 132,10 132,10 133,10 135,10 135,10 135,10 136,10 137,9 138,9 138,9 139,9 140,9 140,9 141,9 141,9 142,9 143,9 144,9 144,9 144,9 145,8 146,8 147,8 148,8 151,8 151,8 152,8 153,7 154,7 154,7 156,7 156,7 157,7 157,7 158,7 158,7 159,7 159,7 161,7 161,7 161,7 161,7 161,7 161,7 162,7 162,7 163,7 163,7 163,7 163,7 163,6 164,6 164,6 164,6 164,5 165,5 165,5 165,5 165,5 165,6 166,6 166,6 167,7 167,7 167,7 167,7 167,7 167,7 167,7 167,7 167,7 167,8 168,8 168,8 168,8 168,8 168,8 168,8 168,8 168,8 168,8 169,8 169,8 169,8 169,9 170,9 171,10 172,10 173,11 174,11 174,11 175,12 175,12 175,12 176,11 176,11 177,12 177,12 177,12 177,13 178,13 178,13 179,14 180,14 180,14 180,14 180,14 181,14 182,14 184,15 185,16 186,16 188,17 190,18 192,18 193,19 195,19 195,19 196,20 197,21 198,21 199,19 199,19 200,19 201,19 202,20 204,21 205,21 205,22 204,23 203,24 204,24 203,24 204,25 204,25 205,25 206,25 206,25 207,25 207,26 208,26 208,27 210,27 211,28 212,29 214,30 213,30 212,31 211,32 210,33 210,33 209,35 210,35 210,35 210,35 211,35 211,35 211,35 211,35 211,35 211,35 211,35 211,35 212,36 213,36 214,36 215,37 217,38 219,38 218,39 219,39 220,40 221,41 222,41 223,41 222,42 221,43 220,44 223,45 224,45 224,47 223,49 223,50 221,52 220,52 216,56 221,58 222,58 223,58 226,59 227,59 226,60 225,61 224,61 223,62 222,62 219,63 218,63 218,64 217,64 216,64 216,64 216,64 216,65 216,66 215,67 214,69 214,69 214,69 214,69 215,69 215,69 216,69 216,69 216,69 217,70 218,70 218,71 219,71 221,72 221,72 221,73 222,73 222,74 222,74 223,75 224,75 225,75 227,76 226,78 225,78 225,79 224,79 223,80 223,80 222,82 222,83 222,83 220,91 222,91 222,91 224,92 225,92 225,93 226,94 226,94 226,94 226,94 230,95 231,96 234,96 236,96 240,97 241,97 241,97 242,98 243,98 245,99 249,101 250,102 251,102 253,103 252,104 253,104 255,105 256,106 257,108 257,109 257,113 259,113 260,113 261,113 263,113 263,113 264,113 266,114 267,114 268,114 268,114 268,115 269,115 269,116 269,116 270,119 269,124 269,124 270,124 270,125 270,125 271,125 273,124 277,124 277,125 278,125 278,125 279,126 280,126 281,126 282,127 284,127 284,127 285,127 287,126 289,126 290,126 294,125 295,125 296,125 302,124 308,123 309,123 309,123 310,123 312,123 311,125 311,125 311,125 312,126 312,126 312,125 313,126 313,126 313,127 312,127 312,127 311,128 311,128 310,128 310,129 310,129 309,131 312,132 313,132 314,132 315,132 316,132 316,132 316,133 317,133 317,133 318,133 318,133 319,133 320,133 320,133 322,134 323,134 324,134 324,134 325,135 326,135 327,135 327,135 329,135 330,135 332,135 332,135 334,135 336,136 336,136 335,142 335,143 335,143 336,143 338,145 338,145 338,145 339,146 340,146 340,146 341,146 342,147 342,147 343,147 344,148 345,148 345,152 345,155 346,157 345,162 343,164 343,164 343,165 340,167 340,167 340,168 337,169 336,170 335,170 334,171 333,172 332,172 330,174 329,175 328,177 328,177 327,178 325,179 324,180 321,182 321,182 320,181 319,181 318,180 318,179 318,179 318,179 318,178 319,177 316,177 316,176 316,175 316,175 316,175 316,174 316,173 316,173 316,172 316,171 317,171 317,170 317,170 316,169 316,168 316,168 316,168 316,168 316,167 316,166 316,166 316,165 316,165 316,164 316,163 310,162 309,162 304,164 304,164 294,165 294,165 294,164 293,163 292,163 291,163 291,163 290,164 290,164 288,165 287,165 284,167 286,169 283,171 283,171 282,172 282,172 282,172 280,173 278,174 278,174 277,175 277,175 276,175 276,175 276,176 276,177 276,178 276,178 277,179 277,180 279,182 280,184 280,185 280,186 280,188 280,188 280,189 280,190 280,190 280,191 281,191 281,192 281,192 281,193 282,195 283,197 284,198 284,198 284,198 285,199 285,199 285,199 285,200 286,199 287,199 287,199 288,199 288,199 289,199 289,199 290,199 291,199 292,199 295,199 296,200 296,200 297,200 297,200 298,200 298,200 299,200 300,200 302,200 303,200 303,200 304,200 305,200 306,200 309,205 309,205 307,206 306,206 307,208 307,208 307,209 307,209 306,209 305,209 305,209 304,209 304,209 303,210 303,210 302,210 302,210 302,210 301,209 301,209 301,209 300,210 300,210 301,210 300,210 300,211 300,211 300,211 299,212 299,212 299,212 298,212 298,212 298,212 297,212 296,212 296,212 296,212 296,211 296,211 296,212 295,212 294,212 294,212 293,213 292,213 292,213 291,213 291,214 291,214 291,213 289,215 289,215 289,216 289,216 289,216 289,216 289,216 289,216 288,216 288,217 288,217 289,217 289,217 289,217 289,218 289,219 290,219 290,219 291,220 292,220 292,221 293,222 294,223 295,224 295,224 295,225 296,226 296,226 297,227 298,227 298,227 299,228 301,229 303,229 304,230 305,230 305,230 306,229 307,229 309,228 309,228 310,228 310,228 311,228 312,228 313,228 314,228 315,228 316,228 316,228 316,228 316,228 317,228 318,229 319,230 319,230 320,230 321,231 322,231 322,231 323,230 323,230 326,226 326,226 326,226 326,225 326,225 326,224 326,223 326,223 326,223 326,222 326,222 326,222 329,222 329,222 329,222 329,222 329,222 327,221 326,220 326,220 326,220 326,220 326,220 327,220 327,220 327,220 327,220 327,220 327,220 328,220 328,220 328,220 328,220 328,220 328,220 328,220 328,220 328,220 328,220 328,220 328,219 329,219 329,219 330,219 330,219 330,219 330,219 330,219 330,219 331,219 331,219 331,219 332,219 332,219 332,219 333,219 333,219 333,217 334,217 334,216 334,216 334,216 334,216 334,216 335,216 336,217 337,218 337,218 338,218 339,217 340,217 342,216 344,216 344,216 344,213 345,213 346,213 349,213 352,213 355,213 355,213 356,213 356,213 356,214 356,214 356,214 356,214 357,214 357,214 357,213 357,213 357,213 357,213 357,213 358,213 360,212 360,212 361,212 361,212 361,212 361,212 361,213 361,213 361,213 361,213 362,212 362,212 362,212 362,212 362,212 363,212 363,212 363,212 363,212 363,211 364,211 366,211 366,211 366,211 366,211 366,211 366,211 367,211 367,211 367,211 367,211 368,211 368,211 368,211 368,211 368,211 369,211 369,211 369,211 369,211 369,211 369,211 369,211 369,211 369,211 369,211 369,211 369,211 370,212 370,212 370,212 370,212 370,211 371,210 372,210 372,209 372,209 372,209 372,209 372,208 372,208 372,208 373,208 374,207 375,206 375,206 376,206 376,206 376,206 376,206 373,204 373,204 373,204 376,202 378,200 378,200 379,201 380,201 380,201 382,201 382,201 382,201 382,201 384,202 384,202 385,202 385,202 386,202 386,202 386,202 386,202 386,202 387,202 387,202 388,203 388,203 389,203 389,203 389,203 389,203 390,200 391,200 391,199 391,199 391,199 391,199 390,199 392,195 392,195 392,195 392,195 392,195 392,195 393,191 393,191 393,189 393,189 393,189 394,187 394,187 395,187 395,187 396,186 396,186 397,186 397,186 397,186 398,186 398,186 398,186 398,186 399,186 399,186 399,187 399,187 399,187 399,188 399,188 400,189 399,189 399,189 399,189 399,189 401,190 401,191 402,191 404,192 404,192 404,191 405,191 405,191 406,191 406,191 407,192 407,192 407,192 408,192 408,193 408,193 410,194 411,195 411,195 412,196 412,196 412,197 413,197 413,197 413,197 413,197 414,198 415,199 415,199 414,199 414,199 414,199 414,200 414,200 414,200 414,200 414,201 414,202 414,203 414,204 414,205 414,206 414,206 414,206 415,206 415,206 415,206 415,206 415,206 415,206 417,206 418,206 418,205 418,205 419,205 419,205 420,208 420,208 420,208 421,208 422,208 422,208 426,208 426,208 427,207 427,207 427,207 427,207 427,206 427,206 427,206 427,206 427,206 427,206 427,205 427,204 427,204 427,204 427,204 427,204 427,204 428,203 428,203 429,203 429,204 429,204 429,204 429,205 429,205 429,206 429,206 430,206 430,206 430,205 432,205 432,205 433,205 434,209 435,211 435,211 435,211 435,211 436,210 436,210 436,210 436,210 438,209 439,209 439,209 441,212 441,212 443,215 443,215 443,215 441,215 441,215 440,215 439,215 438,215 438,215 438,215 436,215 436,215 435,215 433,216 433,216 433,216 432,217 432,217 432,217 432,217 432,217 431,218 431,218 431,218 431,218 430,218 430,218 430,218 430,218 429,218 429,218 428,218 428,218 427,218 427,218 427,218 426,218 426,218 426,218 426,218 426,218 425,218 424,218 424,218 423,219 423,219 423,219 422,219 421,219 421,219 421,219 421,219 421,219 420,219 419,219 419,219 419,219 418,221 418,221 418,221 418,221 417,221 417,220 417,220 416,220 416,220 415,220 415,220 414,220 414,220 414,219 414,219 414,219 414,219 413,219 411,220 411,220 411,220 411,220 411,221 411,222 411,222 411,223 411,223 410,223 410,223 410,223 409,224 409,224 409,224 409,224 408,224 408,225 409,225 410,227 411,228 411,228 411,228 412,228 412,228 413,228 414,229 415,229 416,230 416,230 416,230 415,230 415,230 415,230 415,231 416,231 417,233 418,234 418,234 418,234 419,234 419,234 420,233 420,233 422,234 422,234 422,234 423,235 423,235 423,235 423,235 423,235 423,236 423,236 425,236 425,236 425,236 426,236 427,236 428,235 428,235 428,235 428,235 428,235 431,236 431,237 431,237 432,237 434,237 436,238 436,238 437,238 437,238 438,238 438,238 440,238 440,238 440,238 440,238 441,238 441,239 441,239 441,239 442,238 443,238 443,238 444,237 444,237 446,237 446,237 447,237 447,237 447,237 448,237 449,237 449,237 450,237 450,237 450,237 450,237 451,236 452,236 452,236 453,236 453,236 453,236 454,236 455,235 456,236 457,237 457,237 457,237 458,237 459,237 461,238 461,238 461,238 462,239 462,239 464,241 464,242 464,242 464,242 464,242 464,243 464,243 464,243 465,243 465,243 465,243 465,243 465,243 466,243 466,244 466,244 466,244 468,245 468,245 469,245 469,245 468,246 468,246 467,247 466,247 466,247 465,248 465,248 465,248 466,249 466,249 465,249 465,249 466,250 467,250 467,250 467,250 467,251 467,251 466,252 466,252 464,252 463,252 463,253 463,253 463,253 463,254 464,254 464,255 465,256 465,256 465,256 465,256 466,257 466,257 466,258 466,258 467,258 468,258 468,258 468,258 468,258 469,259 469,259 469,259 469,259 470,259 470,259 470,260 470,260 470,260 470,260 471,260 471,259 472,259 472,259 472,259 473,259 473,259 473,259 473,259 474,259 474,259 474,259 474,259 475,259 475,259 475,259 475,259 476,259 476,259 477,259 477,259 477,259 478,259 479,260 479,260 480,260 480,260 480,259 481,259 481,259 481,259 481,259 481,259 482,259 482,259 482,259 482,260 483,260 483,260 483,260 483,261 482,261 482,262 482,262 482,263 483,263 483,263 484,263 484,264 485,265 485,265 486,265 486,265 486,266 486,266 485,267 485,267 485,267 486,267 487,267 487,267 487,267 487,267 487,268 487,268 487,268 487,268 486,268 485,268 485,268 484,268 484,268 483,269 482,269 482,270 482,270 482,270 482,270 483,271 483,271 484,271 484,271 484,272 484,272 488,276 488,276 488,276 488,277 489,277 489,277 489,277 491,277 493,276 493,276 493,276 494,277 494,277 495,278 495,278 495,278 495,277 496,278 498,279 498,279 499,280 500,280 499,281 500,281 499,282 499,282 498,282 498,282 497,283 497,284 494,285 493,286 491,288 491,288 491,287 488,289 488,289 488,290 487,290 487,291 487,291 487,291 487,291 488,292 488,292 489,292 489,292 489,292 486,295 484,297 483,298 483,298 483,298 483,297 482,297 482,297 481,297 481,296 480,296 479,296 479,296 479,296 478,296 478,295 478,295 477,295 477,295 477,295 477,295 476,295 475,295 475,295 474,295 473,295 473,295 473,295 472,295 472,295 472,295 472,295 471,296 471,296 471,295 470,295 470,295 470,295 469,295 469,295 468,295 468,295 467,294 466,294 466,294 465,294 465,294 465,294 464,294 464,294 464,294 464,294 457,299 456,299 456,299 455,298 455,298 455,298 453,299 453,299 453,299 453,299 451,300 451,300 450,300 449,300 449,300 448,300 448,300 447,300 446,301 444,302 443,302 444,302 442,303 441,303 440,304 438,304 437,304 437,304 436,304 436,304 435,305 434,305 434,305 433,305 433,305 433,305 433,305 433,305 432,304 431,304 430,304 430,304 430,304 430,304 430,304 430,304 430,304 430,304 429,304 427,303 426,305 426,305 426,305 425,304 424,304 424,304 423,305 421,308 421,309 419,311 419,311 417,310 413,310 412,310 412,310 411,310 411,310 411,310 411,310 410,313 410,313 409,314 409,314 409,315 409,315 409,316 407,318 406,320 406,321 406,321 406,321 406,322 406,322 406,323 406,325 406,325 406,326 405,327 405,327 405,328 405,328 405,328 408,328 408,328 408,328 408,328 408,328 409,328 410,328 411,329 411,329 412,329 413,329 413,329 413,329 413,330 413,331 413,332 413,332 413,332 414,332 415,332 417,332 417,332 417,332 417,332 417,332 417,333 417,333 417,333 417,333 417,333 417,333 418,333 418,333 419,334 420,334 422,335 422,335 422,336 423,337 424,337 424,337 424,337 424,337 425,338 425,338 426,340 428,341 428,341 428,341 429,341 429,341 429,341 431,344 432,344 432,344 433,344 433,344 434,344 435,345 435,345 437,346 437,347 440,349 440,349 441,350 441,350 441,350 441,349 442,350 443,351 443,351 443,351 444,351 444,352 444,352 444,352 444,352 446,352 447,353 447,353 448,353 449,353 450,353 451,353 451,353 452,354 452,354 454,354 456,354 457,354 459,355 459,355 459,355 459,354 460,354 460,354 460,355 460,355 461,355 461,355 461,357 462,358 462,358 462,359 463,360 463,360 465,362 465,362 466,363 462,366 458,368 460,369 459,370 457,371 457,372 456,373 455,374 456,375 456,375 457,375 456,376 456,376 455,376 452,377 451,378 453,380 453,380 452,380 452,380 452,380 451,380 450,381 450,381 450,381 450,381 449,381 449,382 449,382 449,382 449,382 448,383 448,383 448,383 448,383 448,384 447,384 447,384 447,384 447,385 447,385 446,385 446,385 445,385 444,386 444,386 444,387 444,387 444,388 443,389 443,390 443,391 443,391 442,392 442,393 442,394 441,393 440,395 439,396 438,397 437,399 437,399 437,399 436,398 436,398 435,402 434,402 430,407 430,407 427,406 427,406 427,406 423,406 423,406 423,406 420,405 420,405 420,405 417,404 417,404 417,404 417,404 416,404 416,404 414,403 411,401 407,400 407,400 407,400 406,399 406,399 405,399 404,399 404,398 404,399 404,399 403,398 402,398 400,397 398,396 398,396 396,395 395,394 395,394 395,394 391,392 391,392 390,391 389,391 389,391 389,391 388,390 388,390 386,389 384,396 383,397 383,400 383,401 383,402 382,402 380,402 379,402 378,402 378,402 377,402 377,404 375,406 375,406 375,407 374,407 373,408 372,409 371,408 371,409 370,410 370,411 370,411 370,411 368,413 367,413 367,414 367,416 366,416 366,416 363,418 363,418 362,419 360,422 359,424 358,426 358,426 357,426 357,426 357,427 357,428 357,430 357,431 357,431 357,431 357,432 357,434 357,434 358,435 358,435 342,433 335,433 324,432 324,432 323,431 323,430 318,429 316,429 311,428 306,428 303,428 303,428 301,428 299,427 296,426 294,426 292,426 290,425 286,424 282,423 281,423 279,423 277,422 274,422 273,422 272,422 270,421 268,421 251,416 244,414 244,414 244,414 241,413 240,413 237,412 234,411 234,411 233,411 233,410 234,409 235,409 235,408 235,408 237,407 237,406 237,406 237,406 238,405 238,405 238,405 238,405 238,405 238,404 238,403 238,402 238,402 238,402 238,402 238,401 238,401 237,399 237,399 237,399 237,398 237,398 237,397 236,395 236,394 236,393 236,391 236,391 237,390 238,387 239,386 239,385 238,382 238,380 238,378 237,376 237,376 238,375 239,374 239,372 239,372 240,371 241,369 243,366 243,365 243,365 243,365 243,365 243,364 243,364 243,364 242,364 242,364 242,364 242,364 242,364 242,364 242,364 242,364 242,364 242,364 242,363 242,363 242,363 242,363 242,363 242,363 242,363 242,363 242,362 242,362 242,362 242,362 242,362 242,362 242,362 242,362 242,361 242,361 242,361 242,361 242,361 242,361 242,361 242,361 242,361 242,361 242,361 242,360 243,360 243,360 243,360 243,360 243,360 243,360 243,360 243,360 243,360 243,360 243,360 243,360 243,360 243,360 243,359 243,359 243,359 243,359 243,359 243,359 243,359 243,359 243,359 243,359 243,359 243,359 244,359 244,358 244,358 244,358 244,358 244,358 244,358 244,358 244,358 244,357 244,357 244,357 244,357 244,357 244,357 244,357 244,357 243,357 243,357 242,357 242,357 242,357 242,357 242,356 242,356 242,356 242,356 242,356 242,356 242,356 241,356 241,356 241,355 241,355 241,355 241,355 241,355 240,355 240,355 240,355 240,355 240,355 240,354 240,354 240,354 240,354 240,354 240,354 239,354 239,354 238,354 238,354 237,354 236,354 236,353 236,352 237,352 237,352 237,352 237,351 237,351 237,351 238,350 238,350 238,350 239,350 239,350 240,350 240,350 240,350 241,350 241,350 242,350 242,350 242,350 242,350 242,350 243,350 243,350 243,349 243,349 243,349 243,349 244,349 244,349 244,348 245,348 245,348 245,347 245,347 245,347 245,346 245,346 246,346 247,346 248,346 249,346 250,346 250,346 249,346 249,346 249,345 249,345 249,344 249,343 249,343 250,343 251,342 251,341 251,341 251,340 252,340 251,340 251,339 252,339 253,338 253,338 253,338 253,338 255,338 256,338 257,338 258,337 258,337 257,337 255,336 255,336 254,336 253,336 253,336 253,335 254,335 254,334 254,334 255,334 255,334 256,334 256,334 257,334 258,334 258,333 258,332 259,332 260,332 260,332 261,332 261,332 261,332 262,332 262,332 263,333 263,333 264,333 265,334 265,334 266,334 266,334 267,334 268,335 269,335 269,335 269,335 269,334 269,334 269,334 269,334 269,334 269,334 269,334 269,333 269,333 269,333 269,333 269,333 269,333 270,332 270,332 270,332 271,331 271,331 271,331 271,331 270,330 269,329 269,329 268,329 267,328 268,328 269,327 269,327 270,327 270,326 270,325 270,325 270,325 270,325 269,325 270,324 270,324 270,324 272,324 272,324 273,324 274,324 274,324 274,324 275,323 275,323 275,323 276,322 276,322 277,321 279,320 277,320 276,319 276,318 278,318 279,317 279,316 279,316 280,314 280,314 281,312 281,312 283,313 285,313 286,311 286,310 287,310 286,310 286,310 286,310 285,310 288,304 279,302 276,302 275,302 274,303 273,303 268,302 259,297 253,295 253,295 242,291 243,288 238,286 237,287 238,287 237,288 231,286 230,287 225,285 225,283 220,282 220,282 217,285 216,286 215,287 213,289 210,287 209,289 200,284 201,284 198,283 198,282 194,281 194,280 190,280 190,282 185,281 184,281 183,280 181,284 180,284 179,284 178,284 176,284 176,290 174,290 171,290 168,290 167,290 167,290 167,290 166,291 164,291 162,291 162,291 162,292 162,292 161,293 158,294 152,296 151,297 149,298 148,297 145,299 144,298 144,298 141,296 141,296 142,296 141,296 140,296 139,295 138,295 138,295 138,295 137,294 137,294 137,294 137,294 137,293 137,293 137,292 136,292 136,292 135,292 135,291 135,291 135,291 135,291 135,291 135,291 135,290 135,290 133,290 133,290 132,291 132,291 132,291 130,291 132,289 132,289 135,288 136,287 136,286 139,284 139,284 140,283 140,283 141,282 142,282 143,281 143,281 143,280 146,279 146,279 147,278 145,277 146,276 148,274 150,273 151,273 150,271 152,271 150,269 151,269 152,268 153,268 153,268 154,268 155,268 156,268 156,268 158,268 157,263 159,263 158,262 157,258 156,259 156,258 155,256 155,255 154,255 152,252 152,251 151,249 152,249 152,249 151,248 152,247 153,247 154,246 155,244 155,243 156,243 157,243 157,243 159,242 160,242 161,242 162,242 162,242 163,242 163,243 163,243 163,243 166,243 167,243 168,242 169,241 169,240 170,240 171,240 171,240 171,239 171,239 172,239 172,239 173,239 173,239 173,239 174,238 175,238 176,238 176,238 178,238 178,239 179,239 179,239 179,239 180,240 180,240 181,240 181,240 183,240 183,240 184,240 185,240 186,240 187,241 188,241 188,241 189,242 190,242 190,242 191,243 192,243 192,243 193,242 193,242 193,242 194,242 194,242 194,242 194,242 194,241 194,241 195,241 196,241 196,241 197,241 197,242 197,242 199,242 201,242 201,242 202,241 202,241 202,241 202,241 203,242 203,242 203,242 204,242 204,242 204,242 204,243 205,243 206,243 206,243 206,243 206,242 206,242 206,242 207,241 207,240 208,239 209,237 209,237 209,237 210,236 211,236 212,236 212,236 211,235 210,234 210,234 210,233 210,232 210,232 210,231 209,230 209,230 209,230 209,230 210,229 210,229 211,228 211,228 210,228 210,228 210,228 210,227 210,227 210,227 210,227 210,227 210,226 209,225 209,225 208,225 207,224 207,224 207,224 207,224 207,224 207,223 206,223 206,223 206,223 205,222 205,222 205,222 204,222 203,221 204,221 204,221 203,220 202,220 202,220 202,220 202,220 201,220 201,219 201,219 201,218 200,218 200,218 200,218 200,218 200,218 200,218 200,218 200,217 200,217 200,217 200,216 199,216 200,216 200,215 200,215 200,215 200,215 200,215 199,214 200,213 200,213 200,213 200,213 200,212 201,212 201,212 201,211 201,211 201,211 201,211 201,210 201,210 201,210 201,210 201,209 201,209 201,209 203,208 205,205 205,205 205,205 206,205 206,205 206,204 201,203 198,203 195,203 195,203 192,203 192,202 190,202 190,200 183,201 180,201 176,202 176,202 175,202 162,201 146,200 137,200 129,199 130,201 128,201 125,202 124,201 124,201 123,199 121,194 121,194 121,194 120,194 120,194 120,194 120,193 120,193 120,192 120,190 120,189 120,187 120,187 119,186 119,185 120,185 121,184 120,183 124,183 125,183 128,182 130,182 128,178 130,177 131,176 122,168 123,168 125,167 123,165 134,165 136,164 134,162 138,161 134,157 133,156 133,156 132,156 131,155 128,154 128,150 122,151 122,145 111,143 111,141 110,139 104,138 101,137 100,137 99,137 99,137 99,136 95,135 92,134 92,135 86,133 81,132 81,131 79,134 78,134 76,135 72,138 71,138 69,139 69,140 69,140 68,140 67,140 63,144 62,144 62,144 59,146 58,146 57,146 55,147 53,148 53,148 53,149 52,150 53,150 50,154 49,154 45,153 42,153 42,152 42,152 42,152 38,152 36,152 36,151 35,151 36,150 33,150 32,150 31,151 27,148 25,147 24,146 24,146 22,148 20,148 19,147 16,145 15,145 13,145 13,145 11,145 5,143 0,141" id="6104" class="canton" fill="steelblue" stroke-width="1" stroke="white" geotype="canton" geoname="Argentan-1" code_insee="6104" code_departement="61" nom_departement="Orne" code_region="28" nom_region="Normandie"/></svg>