<?xml version="1.0" encoding="utf-8"?>
<svg version="1.1" id="svgmap" xmlns="http://www.w3.org/2000/svg" xmlns:xlink="http://www.w3.org/1999/xlink" x="0px" y="0px" width="100%" height="100%" viewBox="0 0 500 307">
<polygon points="54,35 54,35 54,35 54,35 55,35 55,35 55,35 55,35 56,35 56,35 56,35 57,35 57,35 58,35 59,35 59,35 60,35 60,35 60,35 61,35 61,35 61,35 62,35 62,34 62,34 62,34 63,35 63,35 63,35 64,34 64,34 65,34 67,34 67,34 68,34 68,34 69,34 69,33 69,33 70,33 71,33 73,32 73,32 73,32 73,31 73,31 73,31 73,30 73,30 73,29 74,29 74,29 73,29 73,28 73,28 73,27 73,27 73,27 72,27 72,27 71,27 70,28 70,28 70,27 70,27 69,26 69,26 69,26 69,26 69,26 68,26 68,26 68,25 68,25 68,25 68,25 67,25 67,25 67,25 67,25 67,25 67,25 66,25 66,25 67,25 67,25 67,24 68,24 68,23 69,23 69,22 69,22 70,22 70,21 70,21 70,21 71,20 71,20 71,20 71,20 71,19 71,19 72,19 72,19 72,19 72,19 73,19 73,19 73,19 74,19 75,19 76,19 76,19 76,19 77,20 77,20 77,20 78,20 78,20 78,21 79,21 79,21 80,21 80,21 80,21 80,21 81,21 81,21 82,21 82,21 83,21 84,20 86,19 87,19 87,19 87,19 87,19 86,19 86,19 86,19 86,19 86,19 87,19 87,19 87,19 87,19 88,19 88,19 88,19 89,19 90,19 90,19 91,19 91,19 91,19 92,19 92,19 92,19 93,19 93,19 93,19 93,19 94,19 94,19 95,20 95,19 95,19 95,19 95,19 95,19 95,19 96,19 96,19 96,19 96,19 96,19 96,19 96,19 97,18 98,18 98,18 98,18 98,18 98,18 98,18 98,18 98,18 98,18 98,17 97,17 97,16 97,16 97,16 97,15 97,15 97,15 97,15 97,15 97,15 97,15 98,14 99,14 99,14 99,13 100,13 100,13 100,13 101,12 101,12 101,12 101,12 101,11 101,11 101,11 101,11 101,11 101,10 101,10 101,10 101,10 101,10 102,10 102,9 103,9 103,9 103,9 104,8 104,8 104,8 104,8 104,8 104,7 104,7 104,7 104,7 104,7 104,7 105,7 105,7 105,7 105,6 106,6 106,6 106,6 107,5 107,5 108,5 108,5 108,5 108,5 109,5 109,5 109,5 109,5 109,5 109,5 109,5 110,4 110,4 111,4 111,4 111,4 111,4 112,4 112,4 113,4 113,4 113,4 113,4 113,4 113,4 113,5 113,5 113,5 113,5 113,5 114,5 115,6 115,6 116,6 116,6 117,6 117,6 117,6 118,6 118,6 119,6 119,6 119,6 120,6 120,6 120,6 120,6 121,6 121,7 121,7 121,7 121,7 121,6 121,6 121,6 121,6 122,6 122,6 122,6 122,6 122,6 122,6 122,6 123,6 123,6 123,6 124,6 124,6 124,6 125,6 126,6 126,6 126,6 127,6 127,6 127,7 127,7 127,7 127,7 127,7 128,7 129,7 129,7 129,7 129,7 129,6 129,6 129,6 129,6 128,6 128,6 128,6 128,5 128,5 128,5 128,5 128,5 129,4 131,4 131,4 132,4 132,4 132,4 132,4 136,3 136,3 136,3 137,3 137,3 138,3 138,3 139,3 141,3 141,3 141,3 142,3 142,3 141,3 141,3 141,4 141,4 140,5 140,5 140,5 141,5 141,5 141,5 141,5 141,6 141,6 141,6 141,6 141,6 141,6 141,6 141,6 141,6 141,6 144,7 144,7 144,7 144,7 144,7 144,7 144,7 144,7 144,7 145,7 146,7 146,7 147,7 147,7 147,6 147,6 147,6 147,6 148,4 148,4 148,4 147,4 147,3 146,3 146,3 146,3 146,3 145,3 145,3 144,3 144,3 144,3 143,3 143,3 143,3 143,3 143,3 144,2 144,2 144,2 144,2 144,2 144,2 144,1 144,1 144,1 145,1 145,2 145,2 145,2 146,2 146,2 147,2 147,2 147,2 147,1 147,1 148,1 148,1 148,1 149,0 149,0 149,0 149,0 150,1 150,1 151,1 151,1 151,1 152,2 152,2 153,2 154,2 154,2 155,3 155,3 156,3 156,3 157,3 157,3 157,3 157,4 158,5 158,5 158,7 158,7 158,7 159,8 159,8 159,8 159,8 158,8 158,8 156,9 155,9 155,9 154,10 154,10 154,10 154,10 154,10 154,10 154,10 156,11 156,11 156,11 156,11 156,11 157,10 157,10 158,10 158,9 158,9 158,9 158,9 158,9 158,8 158,8 158,8 159,8 159,8 159,8 160,8 160,8 161,8 162,8 162,8 162,8 162,8 163,8 164,8 164,8 164,8 164,8 164,8 165,8 165,8 165,8 165,8 165,8 166,7 166,7 166,7 166,7 166,7 167,7 167,7 168,7 169,7 169,7 170,7 170,7 171,7 171,7 172,7 172,6 172,6 173,6 173,6 173,6 174,6 174,5 174,5 175,5 175,5 175,5 176,4 176,4 176,4 176,4 176,4 176,4 177,4 177,5 177,5 178,5 179,5 179,5 179,5 180,6 180,6 180,6 181,7 181,7 181,7 181,7 181,8 181,8 181,8 181,9 181,10 181,11 181,11 181,12 181,13 181,14 181,14 181,14 181,14 181,15 181,15 182,16 182,16 182,17 183,17 183,17 183,17 184,18 185,19 185,19 186,19 186,19 186,19 186,19 186,19 187,20 188,21 190,22 191,22 191,22 191,22 192,23 192,23 192,23 192,23 194,23 194,23 195,24 195,24 196,24 196,25 197,25 197,26 197,26 197,26 197,27 197,27 198,27 198,28 198,28 198,28 198,28 199,29 199,30 199,30 199,30 199,30 199,31 200,31 200,32 201,32 201,33 201,33 202,34 203,35 203,35 203,35 204,35 204,35 204,36 204,36 205,36 205,36 205,36 205,36 206,36 206,36 206,36 207,36 207,36 207,36 207,36 207,36 207,35 207,35 207,35 207,34 207,34 207,34 207,33 207,33 207,32 207,31 207,31 208,31 209,31 209,31 210,31 211,31 211,31 211,32 212,32 213,33 214,34 215,34 215,35 216,35 217,35 217,36 218,36 218,36 219,36 220,35 220,35 221,35 222,35 222,35 223,35 223,35 223,35 223,35 224,34 224,34 224,34 225,34 226,34 226,34 226,34 227,34 227,34 227,34 227,34 227,34 227,34 227,33 227,33 227,33 227,33 228,33 228,32 229,32 229,32 229,32 229,32 229,32 229,32 230,32 230,32 230,31 231,31 231,31 232,31 232,31 232,31 232,31 232,31 232,31 232,31 233,31 233,31 233,31 234,32 235,32 235,32 236,32 236,33 237,33 237,33 237,34 238,34 238,34 238,35 239,35 239,35 239,35 239,36 239,36 239,37 239,37 239,37 238,38 238,38 238,38 238,38 237,39 237,39 237,39 236,39 235,40 235,40 234,40 233,40 233,40 232,40 231,40 231,40 231,40 230,40 230,40 228,40 228,40 227,40 227,40 226,40 226,40 226,40 226,39 225,39 225,39 225,39 224,39 224,40 223,40 223,40 222,40 222,40 221,40 221,41 220,41 220,41 220,41 219,41 219,41 219,41 219,41 218,42 218,42 218,42 218,42 218,42 218,42 219,43 219,43 219,43 219,43 219,43 220,43 220,42 221,42 221,42 222,42 222,42 223,42 223,42 224,42 224,42 225,42 225,42 225,42 226,42 226,42 226,42 226,42 226,42 227,42 227,42 227,43 227,43 227,43 227,43 227,43 227,43 227,43 227,43 226,44 226,44 226,44 225,45 225,45 225,45 224,45 223,46 223,46 223,46 222,46 222,46 222,46 221,46 221,46 221,47 220,47 220,47 220,47 220,47 220,47 220,48 220,48 220,48 220,49 220,49 220,49 220,49 221,49 221,49 221,49 222,49 222,49 222,49 223,49 224,49 224,49 224,49 226,49 226,48 226,48 227,48 227,48 227,48 228,48 229,48 229,48 229,48 230,48 230,48 230,48 231,48 231,48 232,48 232,49 232,49 232,49 232,49 232,49 232,50 232,50 232,51 232,52 232,52 232,52 232,52 232,53 232,53 232,53 232,53 232,53 233,53 234,54 234,54 235,54 236,54 236,54 237,55 237,55 237,55 238,55 239,56 239,56 239,56 240,56 241,56 241,56 242,57 242,57 242,57 242,57 243,58 243,58 243,58 243,58 243,58 244,59 244,59 245,59 245,60 245,60 246,60 246,60 247,61 247,61 248,61 248,61 249,62 249,62 250,62 250,62 250,62 250,63 251,63 252,63 253,64 253,64 254,64 254,64 254,64 255,63 255,63 255,63 255,63 255,63 255,63 255,63 255,62 255,62 255,62 256,62 256,61 257,61 257,61 257,61 258,61 259,60 259,60 259,59 259,59 259,58 259,58 259,58 259,58 259,58 260,58 260,57 260,57 260,57 260,57 260,56 260,56 260,56 260,56 260,56 261,56 260,55 260,55 260,55 261,55 261,55 261,55 261,54 261,54 262,54 262,54 262,54 263,53 264,53 264,53 264,53 264,53 264,52 265,52 265,52 266,51 266,51 266,51 266,51 267,51 267,51 267,51 267,51 267,51 267,51 268,51 268,50 268,50 268,50 268,50 268,50 269,50 269,49 269,49 269,49 269,49 269,49 269,49 270,49 270,49 270,49 270,49 271,49 271,49 271,49 271,49 272,48 272,48 272,48 273,48 273,48 273,48 273,47 273,47 273,47 273,47 272,46 272,46 272,46 272,46 272,46 272,46 272,46 272,46 272,46 272,45 273,45 273,45 273,45 273,45 273,45 273,45 273,45 273,45 273,45 273,45 273,45 273,44 273,44 273,44 273,44 273,44 274,44 274,44 274,44 274,44 274,44 274,44 274,44 274,44 274,44 275,44 275,44 275,44 276,43 276,43 276,43 276,43 276,43 276,43 276,43 276,43 276,43 276,43 276,43 276,43 276,43 276,43 276,43 276,43 277,43 277,43 277,42 277,42 277,42 277,42 277,42 277,42 277,42 277,42 277,42 277,42 277,42 277,42 276,42 276,42 276,42 276,42 276,42 276,42 276,42 275,42 275,42 275,42 275,42 275,42 275,42 275,42 275,41 275,41 275,41 275,41 275,41 275,41 275,41 275,41 275,41 275,41 275,41 275,41 275,41 275,41 275,41 274,40 274,40 274,40 274,40 274,40 274,41 274,41 274,41 274,41 274,41 274,40 274,40 274,40 274,40 274,40 274,40 274,40 273,40 273,40 273,40 273,40 273,40 272,40 272,40 272,40 272,40 272,40 272,40 272,40 272,40 272,40 272,40 272,39 272,39 272,39 271,39 271,39 271,39 271,39 271,39 271,39 271,39 271,39 271,39 270,39 270,39 270,39 270,39 270,39 270,38 270,38 270,38 270,38 270,38 270,38 270,38 270,38 270,38 270,38 269,38 269,38 269,38 269,38 269,38 269,38 269,38 269,38 269,38 269,38 269,38 269,38 269,38 268,38 268,38 268,38 267,38 267,38 267,38 266,37 266,37 266,37 266,36 266,36 266,36 266,36 266,35 266,35 266,35 266,35 266,35 266,35 266,35 266,34 266,34 266,34 267,34 267,34 267,34 267,34 267,34 267,34 267,34 267,34 267,34 267,34 267,34 267,34 267,33 267,33 267,33 268,33 268,32 268,32 268,32 269,32 269,32 269,32 269,31 269,31 269,31 269,31 270,31 270,31 270,31 270,30 270,30 271,30 271,30 271,30 271,29 271,29 271,28 271,28 271,27 271,27 272,27 272,27 272,27 272,27 272,27 272,27 272,27 272,27 272,27 272,27 272,27 272,26 272,26 272,26 272,26 272,26 272,26 273,26 273,26 273,26 273,26 273,25 273,25 273,25 273,25 274,25 274,25 274,25 274,25 274,25 274,25 273,25 273,24 273,24 273,24 273,24 273,23 272,23 272,23 272,23 273,23 273,23 273,22 273,22 273,22 273,22 273,22 273,22 274,22 274,22 274,22 274,22 275,22 275,22 275,22 275,22 275,21 275,21 275,21 276,21 276,21 276,21 277,21 277,21 278,21 278,21 279,21 279,21 280,21 280,21 280,21 280,21 281,21 281,21 281,21 281,21 281,21 281,21 281,21 282,21 282,21 283,21 283,20 283,20 284,20 284,20 285,21 285,21 285,21 287,21 287,20 288,20 291,20 291,20 292,20 292,21 293,21 293,21 293,21 293,20 293,20 294,20 295,20 295,20 296,20 296,20 296,20 296,21 297,21 297,21 297,21 298,21 298,21 298,21 298,21 299,21 299,21 299,21 299,21 300,20 301,20 301,20 301,20 301,20 302,20 302,20 302,20 302,20 302,20 302,20 302,20 302,20 302,20 303,20 303,20 303,20 303,20 303,20 303,20 302,20 302,20 302,21 303,21 303,21 303,21 303,21 303,21 303,21 303,21 303,21 304,21 304,21 304,21 304,21 304,21 304,21 304,21 304,21 305,21 305,21 305,21 305,21 305,21 305,21 305,21 305,21 305,22 305,22 305,22 305,22 305,22 305,22 305,22 305,22 305,22 305,22 305,22 304,22 304,22 304,23 304,23 304,23 304,23 304,23 304,23 304,23 304,23 304,23 305,24 305,24 305,24 305,24 305,24 305,25 305,25 305,25 306,25 306,25 306,25 306,25 306,25 306,25 306,25 306,25 307,25 307,25 307,25 307,25 307,26 307,26 307,26 308,26 308,26 308,26 308,26 308,26 308,26 308,26 308,27 308,27 308,27 308,27 308,27 308,27 308,27 308,27 308,27 308,28 308,28 308,28 308,28 308,28 308,28 308,28 309,28 309,28 309,28 309,28 309,28 309,28 309,28 309,28 309,28 309,28 309,29 309,29 309,29 309,29 309,29 310,29 310,29 310,29 310,29 310,29 310,29 310,29 310,29 310,29 310,29 310,30 310,30 310,30 310,30 310,30 310,30 310,30 310,30 310,30 310,30 310,30 310,31 310,31 310,31 310,31 310,31 310,31 310,31 310,31 310,31 310,31 310,31 311,31 311,31 311,31 311,31 311,31 311,31 311,31 311,31 311,31 311,31 311,31 311,31 311,31 311,31 311,31 311,31 311,30 312,30 312,30 312,30 312,30 313,30 313,30 313,30 313,30 313,30 313,30 313,30 313,30 313,30 313,30 313,30 314,30 314,30 314,30 314,30 314,30 314,29 314,29 314,29 314,29 314,29 314,29 314,29 314,28 314,28 314,28 314,28 314,28 314,28 314,28 314,28 314,27 314,27 314,27 315,27 315,27 315,27 315,28 316,28 316,28 316,28 316,28 316,28 316,28 316,29 316,29 316,29 316,29 316,29 317,29 317,29 317,29 317,29 318,29 318,29 318,29 319,29 319,29 319,29 319,29 319,29 319,28 320,28 320,28 320,28 320,28 320,28 320,28 320,28 320,28 320,28 320,28 320,28 321,28 321,28 321,28 321,28 321,28 321,27 321,27 321,27 321,27 321,27 321,27 321,27 322,27 322,27 322,27 322,27 322,26 322,26 322,26 322,26 322,26 322,26 322,26 323,26 323,27 323,27 324,27 324,27 324,27 324,27 324,27 325,27 325,27 325,27 325,27 325,27 326,27 326,27 326,27 326,27 326,27 326,27 327,27 327,27 327,27 327,27 327,27 327,27 327,27 327,27 327,27 328,27 328,27 328,27 328,27 328,27 328,27 328,27 328,27 328,27 329,27 329,27 329,27 329,27 329,27 329,27 329,27 329,27 330,27 330,27 330,27 330,27 330,27 330,27 330,27 330,27 330,27 330,27 330,27 330,27 331,27 331,27 331,26 331,26 331,26 331,26 331,26 332,26 332,26 332,26 332,26 332,25 332,25 333,25 333,25 333,25 333,25 333,25 333,25 333,25 334,25 334,25 334,25 334,25 334,25 334,25 334,25 334,25 334,25 335,25 335,25 335,25 335,25 336,25 336,25 336,25 336,25 336,25 337,26 337,26 337,26 337,26 337,26 337,26 338,26 338,26 338,26 338,26 339,26 339,26 339,26 339,26 339,26 339,26 339,27 339,27 339,27 340,27 340,27 341,27 341,27 341,27 341,27 341,27 341,27 341,27 341,27 341,27 341,27 342,27 342,27 342,27 342,27 342,27 342,26 342,26 342,26 342,26 342,26 343,26 343,26 343,26 343,26 343,26 343,26 343,26 344,25 344,25 344,25 344,25 345,26 345,26 345,26 345,25 346,25 346,25 346,25 346,25 346,25 346,25 347,25 347,25 347,26 347,26 347,26 347,26 347,26 348,26 348,26 348,26 348,26 348,26 348,26 348,26 348,26 349,26 349,26 349,27 349,27 348,27 348,27 348,27 348,27 348,27 349,27 349,28 349,28 349,28 350,28 350,28 350,28 351,28 351,27 351,27 352,27 352,27 352,27 352,27 352,28 352,28 352,28 352,28 352,28 352,28 353,27 353,27 353,27 353,27 353,27 353,27 353,27 353,27 353,27 353,27 353,26 354,26 354,26 354,26 354,26 354,26 354,26 355,26 355,26 355,26 355,26 355,26 355,26 356,26 356,26 356,26 356,26 356,26 357,26 357,26 357,26 357,26 357,26 357,27 357,27 357,27 358,27 357,28 357,28 357,28 357,28 357,28 357,28 357,28 357,28 357,28 357,28 357,28 357,28 357,29 357,29 357,29 357,29 357,29 357,29 357,29 357,29 356,29 356,29 356,29 356,29 356,29 356,29 356,29 356,29 356,29 356,29 356,30 356,30 355,30 355,30 355,30 355,30 355,30 355,30 356,30 356,30 356,30 356,30 356,30 356,30 356,30 356,30 357,31 357,31 357,31 357,31 357,31 357,31 357,31 357,31 358,31 358,31 358,31 358,31 358,31 358,31 358,30 358,30 358,30 359,30 359,30 359,30 359,30 359,30 360,30 360,31 360,31 360,31 361,31 361,31 361,31 361,31 361,31 361,31 361,31 361,31 361,31 362,31 362,32 362,32 362,32 363,32 363,32 363,32 363,32 363,32 363,32 363,32 363,32 364,32 364,32 364,32 364,32 364,32 364,32 364,32 364,32 364,31 365,31 365,31 365,31 365,31 365,31 365,31 365,31 365,31 365,31 365,31 366,31 366,31 366,31 367,31 367,31 367,31 367,31 368,31 368,31 368,31 368,31 368,31 368,31 368,31 368,31 368,31 368,31 368,31 368,31 368,31 368,31 369,31 369,31 369,31 369,31 369,31 369,30 370,30 370,30 370,30 370,30 370,30 370,30 370,30 370,30 370,30 370,30 370,30 370,30 371,30 371,30 371,30 371,31 371,31 371,31 371,31 371,31 371,31 371,31 371,31 371,31 371,31 371,31 371,32 371,32 371,32 371,32 371,32 372,32 372,32 372,32 372,32 372,32 372,32 372,32 372,32 372,32 372,32 373,32 373,32 373,32 373,32 373,32 373,32 374,32 374,32 374,32 374,32 374,32 374,32 374,32 374,32 374,32 375,32 375,32 375,32 375,32 375,32 375,32 375,32 375,32 375,32 375,32 375,32 375,32 376,32 376,32 376,32 376,32 376,32 376,32 376,32 376,32 376,32 376,32 376,31 376,31 376,31 376,31 376,31 376,31 376,31 376,31 376,31 376,31 377,31 377,31 377,31 377,31 377,31 378,31 378,31 378,31 378,31 378,31 378,31 378,31 378,31 379,31 379,31 379,31 379,31 379,31 379,31 380,31 380,31 380,31 380,31 380,31 380,31 380,31 380,31 380,31 380,31 381,31 381,32 381,32 381,32 381,31 381,32 382,32 382,32 382,32 382,32 382,32 382,32 383,32 383,32 383,32 383,32 383,33 383,33 383,33 383,33 383,33 383,33 383,33 383,33 384,33 384,33 384,33 384,33 384,33 384,33 384,33 384,34 385,34 385,34 385,34 385,34 385,34 385,33 385,33 385,33 385,33 385,34 386,34 386,34 386,34 386,33 386,33 386,33 386,33 386,33 386,33 386,34 387,34 387,34 387,34 387,34 387,33 387,33 387,33 387,33 387,34 388,34 388,34 388,34 389,34 389,34 389,34 389,34 389,34 389,34 390,34 390,33 390,34 390,34 390,34 390,34 390,34 390,34 390,34 390,34 390,34 390,34 390,34 391,34 391,34 391,34 391,35 391,35 391,35 391,35 391,34 391,34 391,34 391,34 391,34 391,34 391,34 391,34 392,34 392,34 392,34 392,34 392,34 392,35 393,35 393,35 393,35 393,35 393,36 393,36 393,36 393,36 393,36 393,37 393,37 393,37 393,37 393,37 393,37 393,37 392,37 393,37 393,37 393,37 393,37 393,37 393,37 393,37 393,38 393,38 393,38 394,38 394,38 394,38 393,38 393,38 393,38 394,38 394,38 394,38 394,38 394,38 395,38 395,38 395,38 396,38 396,38 396,38 396,38 397,38 397,38 397,38 397,38 397,38 397,38 397,38 397,38 397,38 397,38 398,38 398,37 398,37 398,37 398,37 399,37 399,37 399,37 399,37 399,37 399,37 400,37 400,37 400,37 400,37 400,37 402,38 402,38 402,38 403,38 403,38 403,38 403,38 403,39 403,39 403,39 403,39 403,39 404,39 404,39 404,39 404,39 404,39 404,39 404,39 404,39 404,39 404,39 405,39 405,39 405,39 406,39 406,39 406,39 406,39 406,39 406,39 406,39 406,39 406,39 406,39 407,39 407,39 407,39 407,39 407,39 408,39 408,39 408,39 408,39 408,39 408,39 408,39 408,40 408,40 408,40 408,40 409,40 410,40 410,41 410,41 411,41 411,41 411,41 411,41 411,41 411,41 412,41 412,41 412,41 413,42 413,42 414,42 414,42 415,42 417,40 417,40 417,40 417,40 417,40 418,39 418,39 418,39 418,39 419,38 419,38 420,37 421,37 421,37 421,37 422,36 422,36 422,36 423,36 423,36 423,35 423,35 424,35 424,35 425,35 425,35 425,35 425,34 425,35 425,35 427,35 427,35 428,36 428,36 428,36 428,36 427,38 427,38 427,38 427,38 427,38 428,39 428,39 429,39 429,39 429,40 430,40 430,40 430,40 431,41 431,41 432,41 432,41 432,42 433,43 434,43 434,43 434,43 434,43 435,44 435,44 435,44 436,45 436,45 436,45 437,45 437,45 437,45 437,45 438,44 438,44 438,44 439,43 439,43 439,43 440,43 440,43 440,43 440,43 440,43 440,42 441,42 441,42 442,42 442,42 443,42 444,43 445,44 445,44 446,44 448,44 449,44 449,44 450,45 452,45 453,46 454,46 455,46 455,47 456,47 457,48 457,48 457,48 458,48 459,49 459,49 459,50 459,50 460,50 460,51 460,51 460,51 460,51 460,51 460,51 460,52 459,52 459,52 459,52 459,52 459,52 459,52 458,52 458,52 458,52 458,52 458,53 458,53 457,54 457,54 456,54 456,54 455,55 455,55 457,56 457,56 458,56 458,56 458,56 459,56 459,56 459,56 460,56 460,56 460,56 460,56 461,56 462,57 462,57 463,58 463,58 463,58 463,58 464,58 464,58 463,57 464,57 465,56 465,56 465,56 465,56 465,56 469,57 469,57 469,57 468,58 468,58 468,58 468,58 467,59 467,59 467,59 467,59 466,59 466,60 466,60 466,60 466,60 467,60 467,60 467,61 467,61 467,61 467,61 467,61 467,61 468,61 468,61 468,61 468,61 469,61 470,62 470,62 471,62 471,62 471,62 471,62 472,62 473,62 473,62 473,62 474,62 474,62 474,62 474,62 474,62 474,62 476,62 477,63 478,63 479,63 480,63 480,63 480,63 481,63 481,63 481,63 482,63 482,63 483,64 483,64 483,64 483,64 484,64 484,64 488,65 488,66 489,66 490,66 488,67 487,68 486,69 486,69 486,69 485,72 485,72 484,73 483,73 483,74 483,74 483,74 483,77 481,77 481,79 481,80 480,81 480,82 481,82 483,85 484,85 484,85 492,88 493,87 496,88 497,88 500,90 498,91 496,92 496,93 496,93 496,93 493,95 493,95 494,95 494,95 493,96 490,99 489,101 489,101 488,102 486,102 486,104 485,104 485,104 485,104 485,105 485,106 485,106 485,106 483,107 483,108 482,109 482,109 481,110 481,110 480,111 480,111 480,112 479,112 479,112 478,113 478,114 477,114 477,114 476,116 475,118 474,120 472,119 472,119 469,122 468,124 466,126 465,127 464,128 464,128 464,128 464,129 464,129 463,129 462,130 461,130 461,130 460,130 460,130 460,130 460,131 460,131 459,131 459,132 459,132 459,132 459,132 457,133 456,133 456,133 456,134 456,134 456,134 456,135 457,136 457,137 456,136 455,136 454,136 453,136 453,136 453,136 453,136 453,136 453,136 452,136 452,136 452,137 452,137 452,137 452,137 452,137 452,137 452,138 452,138 452,138 452,138 452,138 451,138 451,138 451,138 451,138 450,138 450,138 450,139 450,139 450,139 449,139 449,139 449,139 449,139 449,140 448,140 448,140 448,140 448,140 448,140 448,140 448,140 447,140 447,140 447,140 447,140 447,140 446,140 446,141 446,141 446,141 446,141 446,141 445,141 445,141 445,141 445,141 445,141 444,142 444,142 444,142 444,142 444,143 444,143 444,143 444,144 444,144 444,144 443,144 443,144 443,145 443,145 443,145 443,145 443,145 443,145 443,145 443,145 444,146 444,146 444,146 444,146 445,146 445,147 444,147 444,147 444,147 443,147 442,147 441,147 441,148 440,148 439,148 439,148 437,148 436,148 436,148 436,148 435,148 435,149 434,149 434,148 433,148 433,149 432,149 431,149 430,149 429,149 429,150 429,150 428,150 428,150 428,151 428,151 428,151 428,152 428,152 428,153 428,153 428,154 428,154 428,155 428,155 428,156 428,156 428,156 428,157 429,157 429,158 429,159 430,159 430,159 430,160 431,160 431,160 431,161 431,161 431,161 431,161 431,162 431,162 431,163 431,163 431,163 431,164 430,164 430,164 430,164 430,164 429,165 429,165 429,165 429,165 428,165 428,165 428,165 428,165 427,165 426,165 426,166 425,166 425,166 424,166 423,166 423,165 423,165 422,165 422,165 421,165 421,165 421,165 421,165 421,166 421,166 421,166 421,166 421,166 421,167 421,167 422,167 422,167 422,167 422,167 422,167 423,167 423,167 423,168 423,168 423,168 423,168 423,168 423,169 423,169 423,169 424,169 424,169 424,170 424,170 424,170 425,170 425,170 425,170 425,170 425,171 425,171 426,172 426,172 426,173 427,173 428,173 428,172 428,172 428,172 428,171 429,172 429,172 429,172 430,172 430,172 431,173 431,173 432,173 432,173 433,174 433,174 434,175 434,175 435,176 435,176 436,177 437,177 437,177 436,177 435,177 434,177 434,177 433,177 433,176 432,177 431,177 431,177 430,177 429,177 429,177 428,177 427,177 427,177 426,178 426,178 426,178 425,178 425,178 425,178 424,179 423,180 423,180 421,180 420,181 419,181 418,181 418,181 417,181 417,181 416,181 415,182 415,182 414,182 413,182 413,182 412,182 412,182 411,182 410,182 410,183 409,183 408,183 408,183 407,184 406,184 405,184 405,185 404,185 403,185 403,185 402,185 400,186 400,186 399,187 398,187 398,187 397,187 396,188 396,188 396,188 395,188 395,188 395,188 395,188 395,188 394,188 394,188 394,188 394,188 394,188 393,189 393,189 393,189 393,189 393,189 393,189 393,189 393,189 392,190 392,190 392,190 392,190 392,190 392,190 392,190 392,190 392,190 391,191 391,191 391,191 391,191 390,191 390,190 390,190 390,189 389,189 389,189 389,188 389,189 389,189 389,189 389,189 388,189 388,190 388,190 387,190 387,190 387,190 386,190 386,190 386,190 385,190 385,190 385,190 385,190 385,190 384,190 384,190 384,191 384,191 383,191 383,191 383,191 383,191 383,191 383,191 383,191 383,191 382,191 382,191 382,191 381,191 381,191 381,191 381,191 381,191 380,190 379,190 378,190 377,189 377,189 375,189 375,189 375,189 375,189 372,189 371,190 371,190 371,190 371,190 371,190 370,190 369,190 368,190 368,190 368,190 368,191 368,191 368,191 368,191 368,191 368,191 367,191 367,191 367,191 367,191 367,191 367,192 367,192 367,192 367,192 367,192 367,192 367,192 367,192 368,192 368,192 368,192 368,192 368,192 369,193 369,193 369,193 369,193 369,193 369,193 369,193 369,193 369,193 369,193 369,193 369,194 369,194 369,194 369,194 369,195 369,195 369,195 369,195 369,196 369,196 369,196 369,196 369,196 368,196 368,196 368,196 368,197 368,197 367,198 367,198 367,198 366,199 366,199 366,199 366,199 366,199 365,200 365,200 365,200 364,201 364,201 363,201 363,202 363,202 362,202 361,202 361,203 360,203 360,203 360,203 359,204 359,204 359,204 359,204 359,204 359,204 359,204 358,206 357,206 357,206 357,207 357,207 356,207 356,207 355,207 355,207 355,207 355,208 355,208 354,208 354,208 354,208 354,208 353,208 353,208 353,208 353,208 353,208 353,208 353,208 353,208 353,208 353,209 353,209 353,209 353,209 353,209 353,210 353,210 353,210 353,210 353,210 353,211 353,211 353,211 353,211 353,211 353,211 353,212 353,212 353,212 353,212 353,212 353,212 353,212 353,212 353,212 353,213 353,213 353,213 353,213 353,213 353,213 352,214 352,214 352,214 352,214 352,214 351,214 351,214 350,214 350,214 350,214 350,215 349,215 349,215 349,216 349,216 349,216 348,217 348,217 348,218 348,218 348,218 348,218 348,218 348,219 348,219 348,219 348,219 348,219 348,219 348,219 348,219 348,219 348,219 348,219 349,220 349,220 349,219 349,219 350,219 350,220 350,220 351,220 351,220 351,220 351,221 352,221 352,221 352,220 352,220 352,220 352,221 352,221 352,221 352,221 353,221 353,221 353,221 353,221 354,221 354,221 354,221 354,222 355,222 355,222 355,222 355,222 355,222 356,222 356,223 356,223 356,223 357,223 357,223 357,223 358,223 358,224 358,224 358,224 359,224 360,225 360,225 360,225 360,225 361,225 361,225 361,225 361,225 361,225 361,225 361,225 361,225 362,226 362,226 363,227 364,227 364,227 364,227 364,227 365,227 366,228 366,228 367,228 368,228 369,229 369,229 369,229 369,228 369,228 370,228 370,228 371,228 372,228 372,228 373,228 373,229 373,229 372,230 372,230 372,231 372,231 372,231 372,231 372,231 372,231 372,231 372,231 372,231 372,231 372,232 372,232 372,232 372,232 372,232 372,232 372,232 372,232 372,233 372,233 372,233 372,233 372,233 372,233 372,233 372,233 372,234 372,234 372,234 372,234 372,234 372,234 372,234 372,234 372,234 372,234 373,234 373,234 373,234 373,234 373,234 373,234 373,235 374,235 374,235 374,235 374,235 374,235 374,235 374,235 374,236 374,236 374,236 375,236 375,236 375,236 375,236 375,236 375,236 375,236 375,236 375,236 375,236 376,237 376,237 376,237 377,237 377,237 377,237 377,237 377,237 377,237 377,237 378,237 378,237 378,237 379,237 379,237 379,237 379,238 379,238 379,238 379,238 379,238 380,238 380,238 380,238 381,239 381,239 381,239 381,239 381,239 381,239 382,239 382,239 382,239 382,239 382,239 383,240 383,240 382,240 382,240 382,241 382,242 382,242 383,242 384,242 384,242 384,242 383,242 383,242 383,243 383,243 383,243 383,243 382,244 382,244 382,244 382,244 382,244 381,245 381,245 381,245 381,245 381,246 381,246 381,246 381,246 381,246 381,246 381,246 381,246 380,247 380,247 380,247 379,247 377,248 377,248 377,248 376,248 376,248 375,248 375,248 375,248 375,248 375,248 374,248 374,248 374,248 374,249 374,249 374,249 374,249 374,249 374,249 374,249 374,249 374,249 374,249 373,249 373,249 373,249 373,249 373,249 373,250 372,250 372,250 371,251 371,252 370,252 370,252 367,254 367,254 366,253 366,253 365,253 365,253 364,253 364,253 364,253 364,252 363,252 363,251 363,251 363,251 363,251 363,251 362,252 362,252 362,252 361,252 361,252 360,252 360,252 360,252 360,252 360,252 359,253 359,253 358,253 358,253 358,254 358,254 358,254 358,254 358,254 358,254 357,255 357,255 358,255 359,256 359,256 359,256 359,256 358,256 358,257 358,257 358,257 359,257 360,258 360,258 360,258 360,258 360,259 360,259 360,259 359,259 359,260 359,260 358,261 358,261 358,261 358,261 358,261 358,261 356,262 356,262 357,262 357,262 357,262 357,263 357,263 357,263 357,263 357,263 357,263 357,264 357,264 357,264 357,264 357,264 357,264 357,264 357,264 357,264 356,264 355,265 355,265 355,265 355,265 355,265 355,265 355,266 355,266 354,266 354,266 354,266 354,266 354,266 353,266 352,266 352,266 353,266 353,266 353,267 353,267 352,267 352,267 352,267 351,266 351,267 350,267 349,266 349,266 349,267 349,267 348,267 348,268 346,269 346,270 346,270 346,270 346,270 345,270 345,270 345,270 345,270 342,271 342,271 342,271 342,271 342,271 341,271 340,271 340,271 340,272 340,272 339,272 339,272 338,273 338,273 338,273 336,274 336,274 336,274 336,274 335,274 335,275 335,275 334,275 334,275 334,275 333,275 333,275 332,275 332,275 331,275 331,275 331,275 330,275 330,275 330,275 329,275 329,276 329,276 328,276 328,276 328,276 328,276 328,276 328,276 327,276 327,276 327,276 326,276 326,276 326,277 325,277 325,277 325,277 325,277 325,277 325,277 325,277 325,278 325,278 326,278 326,278 326,278 325,279 325,279 325,279 325,279 325,279 325,280 325,280 325,280 325,280 325,280 325,280 325,281 325,281 325,281 325,281 325,281 325,281 325,281 325,282 326,282 326,282 326,282 326,282 326,283 326,283 326,283 326,283 326,283 325,283 325,283 325,283 325,283 325,284 325,284 325,284 325,284 325,284 324,284 324,286 324,287 324,287 323,287 323,288 323,288 323,287 322,287 322,287 322,287 322,287 322,287 322,287 322,287 322,286 322,286 322,286 321,286 321,286 321,286 321,287 320,287 320,287 320,287 320,287 320,287 319,287 319,287 319,287 319,288 318,288 318,288 318,288 318,288 318,288 318,288 318,288 318,288 318,288 317,288 317,288 317,288 317,288 317,288 317,288 317,288 317,288 317,288 316,288 316,288 316,288 315,288 315,288 315,288 315,288 315,288 314,288 314,288 314,288 314,288 314,289 314,289 314,289 314,289 314,289 314,289 314,289 314,289 314,289 314,289 314,289 314,290 314,290 314,290 313,290 313,290 313,290 313,290 313,290 313,290 313,290 313,290 313,290 313,291 312,291 312,291 312,291 312,291 312,291 312,291 312,291 312,291 312,291 311,291 311,291 311,292 311,292 311,292 310,292 310,293 310,293 310,293 310,293 310,293 310,293 310,293 310,293 310,293 310,293 310,294 310,294 310,294 310,294 309,294 309,294 309,294 309,294 309,294 309,294 309,294 309,294 309,294 309,294 309,294 309,295 309,295 309,295 308,295 308,295 308,295 308,295 308,295 308,295 308,295 308,295 308,295 308,295 308,295 308,295 307,295 307,295 307,295 307,295 307,295 307,295 307,295 307,295 306,295 306,295 305,295 305,295 304,295 304,295 303,295 303,295 303,295 301,295 301,295 301,295 301,295 301,295 300,295 299,295 298,295 298,295 298,295 298,295 297,295 297,295 297,295 297,295 296,294 296,294 294,294 293,294 293,294 293,294 292,294 291,294 291,294 291,294 291,294 290,294 290,294 290,294 290,294 290,294 290,294 290,294 290,294 290,294 290,294 290,294 290,294 290,295 290,295 290,295 290,295 290,295 289,296 289,297 289,297 289,297 289,298 288,298 288,298 288,298 288,298 288,298 288,298 288,298 288,298 288,298 288,298 288,299 288,299 288,299 288,299 287,299 287,299 287,299 287,299 288,300 288,300 286,304 286,304 286,304 281,304 277,304 275,304 275,304 272,304 271,304 271,304 271,304 271,304 271,304 269,304 269,304 269,304 269,304 269,304 269,304 269,304 268,304 268,304 268,304 268,304 268,304 268,304 268,304 267,304 267,303 267,303 267,303 267,303 266,303 266,303 265,303 265,303 264,303 264,303 264,303 264,303 263,303 263,303 263,303 263,303 262,303 262,303 262,303 262,303 262,303 262,303 262,303 261,303 261,303 260,303 260,304 259,304 259,304 259,304 258,304 258,304 258,304 258,304 258,304 258,304 258,304 257,304 257,304 257,305 257,305 257,305 256,305 256,305 256,305 256,305 256,305 256,305 256,305 255,306 255,306 255,306 255,306 255,306 254,306 254,306 254,306 254,306 254,306 253,306 253,307 253,307 253,307 253,307 253,307 253,307 253,307 252,307 252,307 252,307 252,307 252,307 252,307 252,307 252,307 252,307 251,307 251,307 251,307 251,306 251,306 251,306 251,307 251,307 250,307 250,307 250,307 250,307 250,307 250,307 249,307 249,307 249,307 249,307 249,307 249,307 248,307 248,307 248,307 248,307 248,307 248,307 248,307 248,307 248,307 248,307 248,307 248,307 247,307 247,307 247,307 247,307 247,307 247,307 247,306 247,306 247,306 247,307 246,307 246,307 246,306 246,306 246,306 246,306 246,306 246,306 246,306 246,306 246,305 245,305 245,305 245,305 245,305 245,305 245,305 245,305 245,305 245,305 245,305 245,305 245,305 245,305 244,305 244,305 244,304 244,304 244,304 244,304 244,304 244,304 244,304 244,304 243,304 243,304 243,304 243,304 243,304 243,304 243,304 243,304 243,304 243,304 243,304 243,304 243,304 242,304 242,304 242,304 241,303 241,303 241,303 241,303 241,303 241,303 241,303 240,303 240,303 240,303 240,303 239,303 239,303 239,303 239,303 239,302 238,302 238,302 238,302 238,302 238,302 238,302 238,302 238,302 238,302 237,302 237,302 237,302 237,302 236,302 236,302 236,302 236,302 236,302 236,302 235,302 235,302 235,302 235,302 235,302 235,302 235,302 234,302 234,302 234,302 234,302 234,302 234,302 233,301 233,301 233,301 233,301 233,301 233,301 232,301 232,301 232,301 232,300 232,300 232,300 232,300 231,300 232,300 232,300 232,300 232,300 232,300 232,300 232,299 233,299 233,299 233,299 233,299 233,299 233,299 233,299 233,299 233,299 233,298 233,298 233,298 234,298 234,298 234,298 235,297 235,297 235,297 236,297 235,297 235,297 236,297 236,296 236,296 237,296 237,295 237,295 237,295 238,295 238,295 239,295 239,295 240,294 240,294 240,294 241,294 241,294 241,294 242,294 242,293 242,293 242,293 243,293 243,293 243,293 243,293 243,293 243,293 243,293 243,293 243,294 243,294 244,294 244,294 244,294 244,293 244,293 244,293 245,293 245,293 246,291 246,291 246,291 246,291 246,291 246,290 247,289 247,288 248,288 248,288 248,288 248,288 248,288 248,288 248,288 249,287 249,287 249,287 249,287 249,287 250,287 250,287 251,286 251,286 251,286 251,286 251,286 251,286 251,286 251,286 252,286 252,286 252,286 252,286 252,286 252,286 252,286 252,286 252,285 252,285 252,285 253,285 253,285 253,285 253,285 253,285 253,285 253,285 253,285 253,285 253,285 254,285 254,285 254,285 255,285 255,284 256,284 256,284 256,284 256,284 256,284 256,284 256,283 257,283 257,283 257,283 257,283 257,283 257,283 257,283 257,283 257,282 257,282 257,282 257,282 258,282 258,282 258,282 258,282 258,282 258,282 258,282 258,282 258,282 258,282 258,282 258,282 258,282 258,281 258,281 258,281 258,281 258,281 259,281 259,281 259,281 259,281 259,281 259,281 259,281 260,281 260,281 260,281 260,281 261,281 261,281 261,281 261,281 261,281 261,281 261,280 261,280 261,280 261,280 262,280 262,280 262,280 262,280 262,280 262,280 262,280 262,280 262,280 262,280 263,280 263,280 263,280 263,280 263,280 263,281 264,281 264,281 264,281 264,281 264,280 264,281 264,281 264,281 265,280 265,280 265,280 265,280 266,280 266,280 266,280 266,280 266,280 266,280 266,280 267,280 267,280 267,280 267,280 267,280 267,280 267,280 267,280 267,280 267,280 267,280 268,280 268,280 268,280 268,280 268,280 268,280 268,280 268,280 268,280 268,280 268,280 268,280 268,280 268,280 269,280 269,280 269,280 269,280 269,280 270,280 270,280 270,280 270,280 270,280 270,280 270,280 270,280 270,280 270,280 270,280 270,280 270,280 270,280 270,279 271,279 271,279 271,279 271,280 271,280 271,280 271,280 271,280 271,280 271,280 272,280 272,280 272,280 272,279 272,279 273,279 273,279 273,279 273,279 273,279 273,279 273,279 273,279 273,279 273,279 273,279 273,279 273,279 273,279 273,279 273,279 273,279 273,279 273,278 274,279 274,279 274,278 274,278 274,278 274,278 274,278 273,278 273,278 273,278 273,278 273,278 273,278 273,278 273,278 273,278 273,278 274,278 274,278 274,278 274,278 274,278 274,278 274,278 273,278 273,278 273,278 273,278 273,278 274,277 274,277 274,277 274,277 274,277 274,277 274,277 274,277 274,277 275,277 275,277 275,277 275,277 275,277 275,277 275,276 275,276 275,276 275,276 275,276 275,276 275,276 275,276 275,275 275,275 275,275 275,275 275,275 275,275 276,275 276,275 276,275 276,275 276,275 276,275 276,275 276,275 276,275 276,275 276,275 276,275 276,275 276,275 276,275 276,275 277,275 277,275 277,275 277,275 277,275 277,275 277,275 277,275 277,275 277,275 278,274 278,274 278,274 278,275 278,275 278,275 278,275 278,275 278,275 278,274 278,274 278,274 278,274 279,274 279,274 279,274 279,274 279,274 279,274 279,274 279,274 279,274 279,273 279,273 279,273 279,273 279,273 279,273 279,273 279,273 279,273 279,273 279,273 279,273 280,273 280,273 280,273 280,273 280,273 280,273 280,273 280,273 280,273 280,272 280,272 280,272 280,272 280,272 281,272 281,272 281,272 281,272 281,272 281,272 281,272 281,272 281,272 281,272 281,272 281,272 281,272 282,272 282,272 282,272 282,272 283,272 283,272 283,272 283,272 283,272 283,272 283,271 283,271 283,271 283,271 283,271 284,271 284,271 284,271 284,271 284,271 284,271 284,271 284,271 284,271 284,271 284,271 284,271 285,271 285,271 285,271 285,271 285,271 285,271 286,271 286,271 286,271 286,271 286,271 286,271 286,271 286,271 286,271 286,271 286,271 287,271 287,271 287,271 287,271 287,271 287,271 287,271 287,271 288,271 288,271 288,271 288,271 288,271 288,271 288,271 288,271 289,270 289,270 289,270 289,270 289,270 289,270 289,270 289,270 289,270 290,270 290,270 290,270 290,270 290,270 290,270 290,270 290,269 290,269 290,269 290,269 290,269 290,269 291,269 291,269 291,269 291,269 291,269 291,269 291,269 291,269 291,269 291,269 291,269 291,269 291,269 292,269 292,269 292,269 292,269 292,269 292,269 292,269 292,269 292,269 293,268 293,268 293,268 293,268 293,268 293,268 293,268 293,268 294,268 294,268 294,268 294,268 294,267 294,267 294,267 294,267 294,267 295,267 295,267 295,267 295,267 295,267 295,267 295,267 295,266 295,266 295,266 295,266 295,266 295,266 295,266 295,266 295,266 296,266 296,266 296,266 296,265 296,265 296,265 296,265 296,265 296,265 296,265 296,265 296,265 296,265 296,265 296,265 296,264 296,264 296,264 296,264 296,264 296,264 297,264 297,264 297,264 297,264 297,264 297,264 297,264 297,264 297,264 297,264 298,264 298,264 298,263 298,263 298,263 298,264 298,264 298,264 298,263 298,263 298,263 298,263 298,263 298,263 298,263 298,263 298,263 298,263 298,263 298,263 298,263 298,263 298,263 298,263 298,263 298,263 298,263 298,263 298,262 298,262 298,262 299,262 299,262 299,262 299,262 299,262 299,262 299,262 299,262 299,262 299,262 299,262 299,262 299,262 300,262 300,262 300,261 300,261 300,261 300,261 300,261 300,261 300,261 300,261 300,261 300,261 300,261 300,261 300,261 301,261 301,261 300,261 300,260 300,260 301,260 301,260 301,260 301,260 301,260 301,260 301,260 301,260 301,260 301,260 301,260 301,260 301,260 301,259 301,259 301,259 301,259 301,259 301,259 301,259 301,259 301,259 301,259 301,259 301,259 301,259 301,259 301,259 301,259 301,259 301,259 301,259 301,259 301,259 301,259 301,258 301,258 301,258 301,258 301,258 301,258 301,258 301,258 302,258 302,258 302,258 302,258 302,258 302,258 302,258 302,258 302,258 302,258 302,258 303,258 303,258 303,258 303,258 303,258 303,257 303,257 303,257 303,257 303,257 303,257 303,257 303,257 303,257 303,257 303,257 303,257 303,257 303,257 303,257 303,257 303,257 303,257 303,257 303,257 303,257 303,257 304,257 304,257 304,257 304,257 304,257 304,256 304,256 304,256 304,256 304,256 304,256 304,256 304,256 304,256 304,256 304,256 304,256 304,256 304,256 304,256 304,256 305,256 305,256 305,256 305,256 305,256 305,255 305,255 305,255 305,255 305,255 305,255 305,255 305,255 305,255 305,255 305,255 305,255 305,255 305,254 305,254 305,254 305,254 305,254 305,254 305,254 305,254 305,254 305,254 305,254 305,254 305,254 305,254 305,253 304,253 304,253 304,253 304,253 304,253 304,253 304,253 305,253 305,253 304,253 304,253 305,253 305,253 305,253 305,252 305,252 304,252 304,252 304,252 304,252 304,252 304,252 304,252 304,252 304,251 304,251 303,251 303,251 303,251 303,251 303,251 303,251 303,251 302,250 302,250 302,250 302,250 301,250 301,250 301,250 301,250 301,249 301,249 301,249 301,249 301,249 301,249 301,248 301,248 301,248 301,248 300,248 300,248 300,248 300,248 300,248 300,248 300,248 300,248 299,248 299,248 299,248 299,248 299,248 298,248 298,248 298,248 298,248 298,248 298,248 298,248 298,248 298,248 297,248 297,248 297,248 297,248 297,248 297,248 297,248 297,248 297,247 296,247 296,247 296,247 296,247 296,247 296,247 296,247 296,247 296,247 296,246 296,246 296,246 296,246 296,246 296,246 296,246 295,246 295,246 295,246 295,246 295,246 295,245 295,245 295,245 295,245 295,245 295,245 295,245 295,245 294,245 294,245 294,245 294,245 294,245 294,245 294,245 294,245 294,245 294,245 294,245 293,245 294,245 294,245 294,245 294,245 294,245 293,244 293,244 293,244 293,244 293,244 293,244 293,244 293,244 293,244 293,244 293,244 293,244 293,244 293,244 293,244 293,244 293,244 293,244 293,243 293,243 292,243 292,243 292,243 292,243 292,243 292,243 292,243 292,243 292,243 292,243 292,243 291,243 291,243 291,243 291,243 291,243 291,243 291,243 290,242 290,242 290,243 290,243 290,243 290,243 290,242 290,242 290,242 290,242 289,242 289,242 289,242 289,242 289,242 289,242 289,242 289,242 289,242 289,241 289,241 289,241 289,241 289,241 289,241 289,241 288,241 288,242 288,242 287,242 287,242 287,242 286,243 286,243 286,244 285,245 285,245 284,245 284,245 284,245 284,246 283,246 283,247 282,248 282,248 282,249 282,249 282,249 281,250 281,250 281,251 281,251 281,251 281,251 281,251 281,251 280,251 280,251 280,251 280,251 280,252 280,252 280,252 280,252 280,252 281,252 280,253 280,253 280,253 280,253 280,254 280,254 280,254 280,254 279,255 279,255 279,255 279,255 278,255 278,255 277,255 277,255 276,255 275,255 275,254 274,254 272,254 271,254 271,254 270,254 268,254 268,254 268,254 266,254 266,254 263,254 263,254 261,255 261,255 261,255 260,255 258,255 256,255 256,255 255,256 254,256 253,256 253,257 252,257 251,257 250,257 250,257 248,257 248,257 248,257 247,257 247,258 246,258 246,258 245,258 245,258 245,258 245,258 245,258 245,260 245,260 245,260 245,260 245,261 245,262 245,262 245,262 245,263 245,263 245,263 244,263 244,263 244,264 244,264 243,265 243,265 243,265 241,267 241,267 241,268 240,268 240,268 240,268 240,268 240,268 240,268 240,268 240,268 240,268 240,268 240,268 239,269 239,269 239,269 239,269 239,269 238,270 238,270 238,270 238,270 238,270 238,270 238,270 238,270 238,270 237,271 237,271 237,271 237,271 236,272 236,272 236,272 236,272 235,272 235,273 235,273 235,273 234,274 234,274 234,274 234,274 233,275 232,275 232,275 232,276 231,277 231,277 231,277 231,277 230,277 230,277 230,277 230,277 230,277 230,277 230,278 230,278 230,278 230,278 230,278 230,279 230,279 230,279 230,279 230,279 229,279 229,279 229,279 229,279 228,279 228,279 227,279 226,279 226,279 226,279 225,279 225,279 225,279 224,279 224,280 221,280 220,280 220,280 219,280 218,280 217,280 217,280 217,280 217,280 216,280 215,280 214,280 214,280 212,281 211,281 211,281 211,281 211,281 210,281 210,281 210,281 210,281 209,281 209,281 208,282 207,282 207,282 206,282 206,283 205,283 205,283 205,283 205,283 205,283 205,283 205,283 205,284 204,284 204,284 204,284 204,284 203,283 203,283 203,283 203,283 203,283 202,283 202,283 202,283 202,283 202,283 202,283 201,282 201,282 201,282 201,281 201,281 201,281 201,281 201,281 201,281 201,281 201,280 201,280 201,280 201,280 201,280 200,280 200,280 200,280 200,280 200,280 199,280 199,280 198,281 198,281 197,281 197,281 197,281 197,281 197,281 196,282 196,282 196,282 195,282 195,282 195,282 195,283 195,283 195,283 195,284 195,284 195,285 195,285 195,286 195,286 195,286 195,286 194,286 194,287 194,287 193,287 193,286 192,286 192,286 192,286 192,286 191,286 191,286 191,286 191,286 191,286 191,286 191,286 191,286 191,286 191,287 191,287 191,287 192,287 191,287 190,286 190,286 189,286 188,286 188,286 185,286 185,286 184,286 183,286 183,286 182,286 182,286 182,286 181,286 180,286 180,286 179,286 176,285 176,285 176,285 175,285 175,285 175,285 174,285 173,285 173,285 173,285 173,285 173,285 173,285 173,285 174,284 174,284 174,284 173,284 173,284 172,284 172,284 172,284 172,284 172,284 172,284 172,284 171,284 171,284 171,284 170,285 170,284 170,284 170,284 169,284 169,284 169,285 168,285 168,285 167,285 167,285 167,284 166,284 166,284 166,284 166,284 166,284 166,284 165,284 165,284 164,284 164,284 164,284 164,284 163,284 163,284 163,283 163,283 163,283 162,283 162,283 162,283 162,281 162,280 162,280 160,278 159,277 159,277 159,277 159,277 159,277 156,276 145,275 144,275 144,275 143,275 142,275 138,275 138,275 138,275 137,275 137,275 137,275 137,273 137,273 137,273 137,273 137,273 137,273 137,273 137,273 137,272 137,272 137,272 137,272 137,271 136,271 136,271 136,271 136,270 136,270 136,270 136,270 136,270 137,269 137,269 137,269 137,269 137,268 137,268 138,268 138,268 138,268 138,267 138,267 138,267 139,267 139,267 139,267 139,266 140,266 140,266 140,266 140,266 141,266 141,265 141,265 142,265 142,265 142,265 142,265 143,264 143,264 143,264 143,264 143,264 144,263 144,263 144,263 144,262 144,262 144,262 144,262 144,262 144,262 144,261 144,261 144,261 145,261 145,261 145,261 145,261 145,261 145,261 145,261 145,261 147,261 147,261 147,261 147,261 148,260 148,260 149,260 149,260 150,259 150,259 150,259 150,259 151,259 151,259 151,259 151,259 151,259 151,258 151,258 151,258 151,258 152,258 153,258 152,258 152,258 152,258 153,258 153,258 153,257 153,257 153,257 153,257 153,256 153,256 153,255 153,255 153,255 153,254 153,254 153,254 153,253 153,253 153,253 153,253 153,252 153,252 153,252 153,252 153,252 153,252 153,251 153,251 153,251 153,251 153,251 153,251 154,250 154,250 154,250 154,250 154,250 154,249 154,249 154,249 154,249 154,249 154,249 154,249 153,249 153,249 153,249 154,248 154,248 154,248 154,248 154,248 154,248 154,248 154,248 154,247 155,247 155,247 155,247 155,247 155,247 155,247 155,247 155,247 155,246 156,246 156,246 156,246 156,246 156,246 156,246 156,246 156,246 156,246 156,246 156,246 156,246 156,245 156,245 156,245 156,245 156,245 156,245 156,245 156,245 156,245 157,245 157,245 157,245 157,245 157,245 157,245 157,245 157,244 157,244 157,244 157,244 158,244 158,244 158,244 159,244 159,244 159,244 159,244 160,244 160,244 160,244 160,244 160,244 160,244 160,244 161,244 161,243 161,243 161,243 161,243 161,243 161,243 161,243 161,242 161,242 161,242 161,242 161,242 161,242 161,242 161,241 162,241 162,240 162,240 162,240 162,240 162,240 162,240 162,240 162,240 162,240 163,240 163,240 164,240 164,240 164,240 164,239 164,239 164,239 164,239 164,239 164,239 164,239 164,239 164,239 164,239 165,239 164,239 164,239 165,239 165,239 165,239 165,239 166,239 166,239 166,238 166,238 166,238 166,238 166,238 167,238 167,238 167,238 167,238 167,237 167,237 168,237 168,237 168,237 168,237 169,237 169,237 169,237 169,237 169,237 169,237 170,237 170,237 170,237 170,237 171,237 171,237 171,237 171,237 171,237 171,237 172,237 172,237 172,237 172,237 172,237 172,237 172,237 172,237 172,237 172,237 172,237 172,237 173,237 173,237 173,237 173,237 173,237 173,236 173,236 173,236 173,236 173,236 173,236 173,236 173,236 174,236 174,236 174,236 174,235 174,235 175,235 175,235 175,235 175,235 175,235 176,235 176,235 176,235 176,235 176,234 176,234 176,234 177,234 177,234 177,234 177,234 177,234 177,234 178,234 177,233 177,233 177,233 177,233 177,233 177,233 178,233 178,233 178,233 178,233 178,233 178,233 179,233 179,233 179,232 180,232 180,232 180,232 181,232 181,232 181,231 182,231 182,231 182,231 182,231 183,231 183,230 183,230 183,230 183,230 183,230 183,230 183,229 184,229 184,229 184,229 184,229 184,229 184,229 184,229 184,229 185,229 185,229 186,229 186,229 186,229 186,229 186,229 187,229 187,228 187,228 187,228 188,228 188,228 188,228 188,228 189,228 189,228 189,228 190,227 190,227 191,227 192,227 192,227 192,227 192,227 192,227 193,226 193,226 193,226 193,226 194,226 194,226 194,226 194,226 194,225 194,225 195,225 195,225 195,225 196,225 196,225 196,225 197,225 197,225 201,223 200,209 200,209 199,206 199,205 199,204 199,204 198,202 195,200 189,198 186,198 183,196 183,196 183,196 182,196 180,194 179,194 177,194 176,194 176,194 174,194 173,194 171,195 171,194 167,195 167,195 167,195 167,195 166,195 166,195 166,195 166,195 166,195 165,195 165,195 165,194 164,194 164,194 163,195 163,195 163,195 163,195 163,195 163,195 163,195 162,194 162,194 162,194 162,194 162,195 162,195 161,195 161,195 160,194 160,194 160,194 160,194 160,193 160,193 160,193 159,193 159,193 159,193 159,193 159,193 158,193 158,193 158,193 158,192 158,192 158,192 158,192 158,192 158,192 158,192 157,192 156,192 156,192 155,192 155,192 155,192 155,192 155,192 154,192 154,192 154,192 154,192 154,191 154,191 154,191 152,191 152,191 152,191 151,191 151,191 151,191 150,191 150,191 150,192 149,192 149,192 149,192 149,192 148,192 148,192 148,192 147,192 147,192 147,192 147,192 146,192 146,192 146,192 146,192 146,192 145,192 145,192 145,192 145,192 145,192 145,192 145,192 144,192 144,192 144,192 144,192 144,192 143,192 143,192 143,192 143,192 143,192 143,192 142,192 142,192 142,192 142,192 142,192 141,192 141,192 141,192 141,192 141,192 141,192 141,192 141,193 140,193 140,193 140,193 140,193 140,193 140,193 140,193 139,193 139,193 139,193 139,193 139,193 139,193 139,193 139,193 139,193 139,193 139,193 139,193 138,193 138,193 138,193 138,193 138,193 138,193 137,193 137,193 137,193 137,193 137,193 137,193 136,193 136,193 136,192 136,192 136,192 136,192 136,192 136,192 136,192 136,192 136,192 136,192 136,192 135,192 135,192 135,192 135,192 135,192 135,192 135,192 135,192 135,191 135,191 135,191 135,191 135,191 135,191 135,191 134,191 134,190 134,190 134,190 134,190 134,190 134,190 134,189 134,189 134,189 134,189 134,189 134,189 134,189 134,189 134,189 134,189 134,189 134,189 134,188 134,188 135,188 134,188 135,188 135,188 135,188 135,188 135,188 135,188 135,188 135,188 135,188 135,188 135,188 135,188 135,188 135,187 135,187 135,187 135,187 135,187 135,187 135,187 135,187 135,187 135,187 135,187 135,187 135,187 135,187 135,187 135,187 135,187 135,187 135,186 135,186 135,186 135,186 135,186 135,186 134,186 134,185 134,185 134,185 134,185 134,185 134,185 134,185 134,184 133,184 133,184 133,184 133,184 133,184 133,184 133,184 133,183 133,183 133,183 133,183 133,183 133,183 133,183 133,183 133,183 133,183 133,183 133,182 133,182 133,182 133,182 133,182 133,182 133,182 133,182 133,182 133,182 133,182 133,181 132,181 132,181 132,181 132,181 132,181 132,181 132,181 132,181 131,181 131,181 131,181 131,181 130,180 130,180 130,180 130,180 130,180 129,180 129,180 129,180 128,180 128,180 128,180 128,180 127,180 127,179 127,179 127,179 127,179 127,179 127,179 127,179 126,178 126,178 126,178 126,178 126,177 125,177 123,176 123,176 123,176 122,176 122,176 122,176 122,176 122,176 121,176 121,176 121,176 121,176 121,176 121,176 121,176 120,176 120,176 120,176 120,175 120,175 120,175 120,175 120,175 120,175 120,175 120,175 120,175 120,175 120,175 120,175 119,175 119,175 119,175 119,175 119,175 119,175 119,175 119,175 119,175 118,175 118,175 118,175 118,174 118,174 118,174 118,174 118,174 118,174 117,174 117,174 117,174 117,174 117,174 117,174 117,174 117,174 117,174 117,174 116,174 116,174 116,174 116,174 116,174 116,174 116,174 116,174 116,174 116,174 116,173 116,173 116,173 116,173 116,173 116,173 115,173 115,173 115,173 115,173 115,172 115,172 115,172 115,172 115,172 115,172 114,171 114,171 114,171 114,171 114,171 114,171 114,171 114,171 114,171 114,171 113,171 113,171 113,171 113,171 113,171 113,171 113,171 112,170 112,170 112,170 112,170 112,170 112,170 111,170 111,170 110,170 110,170 110,169 108,168 108,168 108,168 107,168 107,168 107,168 107,168 106,168 106,168 106,168 106,168 105,168 105,168 105,168 105,168 105,167 105,167 105,167 105,167 105,167 105,167 105,167 105,166 105,166 105,166 105,166 105,166 105,166 106,166 106,165 106,165 106,165 106,165 106,165 106,165 106,165 106,165 106,165 106,164 107,164 107,164 107,164 107,164 107,164 107,164 107,164 107,163 107,163 107,163 107,163 108,163 108,163 108,163 108,162 109,162 109,162 109,162 110,161 111,161 111,161 111,161 112,161 112,161 112,161 113,161 113,161 113,161 113,160 113,160 113,160 113,160 113,160 113,160 113,159 113,159 114,159 114,159 114,158 114,158 114,158 115,158 115,157 115,157 115,157 115,157 115,157 116,156 116,156 117,155 120,152 122,152 122,151 122,151 122,151 123,151 123,151 123,151 123,151 124,151 124,151 124,151 124,151 124,151 124,151 124,150 124,150 125,150 125,150 125,150 126,150 126,150 126,150 126,149 126,149 126,149 127,149 127,149 127,149 126,148 126,148 126,148 126,148 126,148 126,148 126,148 126,148 126,148 126,148 125,148 125,148 125,148 125,148 125,148 125,148 125,148 125,147 125,147 124,147 124,147 124,147 124,147 124,147 124,146 124,146 123,147 123,147 123,147 123,147 122,147 122,147 122,147 122,147 122,147 122,147 122,147 121,147 121,147 121,147 121,147 120,147 120,147 120,147 120,147 120,147 119,147 119,147 119,148 118,148 118,148 118,148 118,148 116,148 115,148 115,148 114,148 114,148 114,148 113,148 113,148 112,149 112,149 112,149 111,149 111,149 111,149 111,149 111,149 110,149 110,149 110,149 110,149 109,149 109,149 109,149 109,149 109,149 109,149 109,149 108,149 108,149 108,149 108,149 108,149 108,149 108,150 107,150 107,150 107,150 107,150 107,150 107,150 106,150 106,150 106,150 106,150 106,150 105,150 105,150 105,150 105,150 105,150 105,150 104,150 104,150 104,150 104,150 104,150 103,150 103,150 102,150 102,150 102,150 102,150 102,150 101,150 101,150 101,150 101,151 101,151 101,151 100,151 100,151 100,151 100,151 100,151 100,151 100,151 99,151 99,151 99,151 99,151 99,150 98,151 98,151 98,151 98,151 98,151 97,151 97,151 96,151 96,151 96,151 96,151 95,151 95,151 94,151 94,151 93,151 93,151 93,151 92,151 92,151 92,151 91,151 91,151 91,151 90,151 90,151 89,150 89,150 89,150 89,150 88,150 88,151 88,151 88,151 88,151 87,150 86,150 85,150 85,150 85,150 84,149 84,149 83,148 83,148 83,148 83,147 82,148 81,147 81,147 79,148 79,148 79,148 78,149 78,149 76,148 76,148 76,148 76,148 76,148 75,148 75,148 75,148 74,148 74,148 74,148 73,148 72,148 72,148 71,148 71,148 71,148 71,148 71,148 71,148 71,148 70,148 70,148 70,148 70,148 70,148 70,148 70,148 70,148 69,147 68,147 68,147 68,147 68,147 68,147 68,147 68,147 68,147 68,147 67,147 67,146 67,146 67,146 67,146 67,146 67,146 66,146 66,146 66,146 66,146 66,146 66,146 66,146 65,146 65,145 65,145 65,145 65,145 65,145 64,145 64,145 64,145 64,145 64,145 64,145 64,145 64,145 64,145 64,145 64,144 64,144 63,144 63,144 63,144 63,144 63,144 63,143 63,143 63,143 63,143 63,143 63,143 63,143 63,143 63,143 63,143 62,143 62,144 61,144 61,143 60,143 60,143 60,143 59,143 59,143 58,143 58,143 58,143 58,144 58,144 58,144 58,144 57,144 57,144 57,144 57,144 57,144 56,144 56,144 56,144 56,144 56,144 55,144 55,144 55,144 55,144 53,143 53,143 53,143 53,143 53,143 52,142 52,142 52,142 51,142 51,141 50,140 50,140 50,140 50,140 49,140 49,139 49,139 49,139 48,137 48,137 48,137 48,137 48,137 48,137 49,137 48,137 48,137 47,137 47,136 47,136 48,136 47,136 46,135 46,135 46,135 46,135 43,134 42,134 41,133 41,133 41,133 41,133 40,133 40,133 40,133 40,133 40,133 40,133 40,133 39,133 39,133 37,133 37,133 37,133 37,133 37,132 37,132 37,132 36,132 35,131 35,131 35,131 35,131 34,131 34,131 33,131 33,131 32,130 32,130 31,130 31,130 31,130 30,130 30,130 30,130 30,130 29,130 29,130 28,130 28,130 28,130 28,130 27,130 27,130 27,130 27,130 27,130 27,130 27,130 26,130 26,130 26,130 26,130 25,130 25,130 25,130 24,131 23,131 23,131 22,131 22,131 22,130 22,130 20,130 20,130 19,130 19,130 19,130 18,129 18,128 17,128 16,127 16,126 16,125 15,125 16,125 15,123 15,122 15,122 14,122 14,121 13,120 12,119 11,118 11,118 10,117 10,117 10,117 10,116 9,113 9,112 8,110 8,110 8,109 8,109 8,109 8,109 8,108 8,108 8,107 7,107 7,107 7,107 7,106 8,106 8,106 8,106 8,105 8,105 8,104 8,103 8,103 8,103 8,103 8,103 7,102 7,102 7,102 7,102 7,101 7,101 6,100 6,100 6,100 5,100 5,99 4,99 4,99 3,99 3,99 3,99 2,98 2,98 2,98 2,98 1,97 0,97 0,97 0,96 0,96 0,96 0,96 0,96 0,96 0,96 0,96 0,96 0,96 1,96 1,95 1,95 1,96 1,96 1,96 2,96 2,95 2,95 2,95 2,94 2,94 2,94 2,94 2,94 3,94 3,94 3,94 3,94 3,93 3,93 3,93 3,93 3,93 3,93 3,93 3,92 3,92 4,92 4,91 4,91 4,91 4,91 4,91 4,91 4,91 4,90 4,90 4,90 4,90 4,89 4,89 4,89 4,89 4,89 5,88 5,88 5,88 4,88 4,88 4,88 4,88 5,88 5,87 5,87 5,87 5,87 6,87 6,87 6,87 6,87 6,86 6,86 7,86 7,86 7,86 8,86 8,86 8,86 8,86 9,86 9,86 10,86 10,86 10,86 10,86 10,86 10,86 10,86 10,86 10,86 11,86 11,86 11,86 12,86 12,86 12,86 12,86 12,86 12,85 12,85 12,85 12,85 13,85 13,85 13,84 14,84 14,84 14,84 15,84 15,84 15,83 15,83 15,83 16,82 16,82 16,82 16,82 16,82 17,82 17,82 17,81 17,81 17,81 18,81 18,81 18,81 18,81 19,80 19,80 18,80 18,80 18,80 19,80 19,80 19,80 19,80 19,80 19,79 19,79 19,79 19,79 19,79 18,79 18,79 18,79 18,78 17,78 17,78 17,78 17,78 17,78 17,78 17,78 17,77 17,77 17,77 17,77 17,76 17,76 16,76 16,76 16,76 16,76 16,76 16,76 16,76 16,76 15,76 15,76 15,76 14,76 14,76 14,76 14,76 14,76 14,76 14,76 14,76 14,76 14,76 14,76 14,75 14,75 14,75 14,75 14,75 14,75 14,74 14,74 14,74 14,74 14,73 14,73 14,73 14,73 14,73 14,73 14,73 14,73 14,72 14,72 14,72 14,72 14,72 15,72 15,72 15,71 15,71 15,71 16,71 16,71 16,71 16,71 16,71 17,71 18,71 18,71 18,71 19,71 19,70 19,70 19,70 19,69 19,69 20,69 20,69 20,68 20,68 20,68 21,68 21,68 21,68 21,68 22,68 22,67 22,67 22,67 22,67 23,67 23,67 23,67 23,66 23,66 24,66 24,66 24,66 24,66 24,66 24,66 24,65 24,65 24,65 24,65 25,65 25,65 25,65 25,64 25,64 25,64 26,64 26,65 26,65 26,65 26,65 26,65 26,65 26,65 27,65 27,65 27,65 27,65 27,65 27,65 28,64 28,64 28,64 29,63 30,63 30,63 30,63 30,63 30,62 30,61 31,61 31,61 31,61 32,60 32,60 32,60 33,60 33,59 33,59 33,59 33,59 33,59 33,59 33,59 34,59 34,58 35,58 35,58 35,58 36,57 36,57 36,57 36,57 36,57 36,57 35,56 35,56 35,56 34,55 34,55 34,55 34,55 34,54 34,54 34,53 34,53 34,53 34,53 34,53 35,53 35,53 35,53 36,52 36,52 36,52 36,52 37,52 37,52 37,52 38,52 38,52 38,52 38,52 38,52 38,52 38,52 38,51 38,51 39,51 39,51 39,51 39,51 39,51 40,50 40,50 40,50 40,50 40,49 40,49 41,48 41,48 41,48 41,48 40,47 40,47 40,47 40,47 41,47 41,46 41,46 41,46 43,46 43,46 43,46 43,46 44,46 44,46 44,45 44,45 44,45 44,45 43,45 43,44 43,44 43,44 43,44 43,44 43,44 43,44 42,43 42,43 42,43 42,43 42,42 42,42 41,42 41,42 41,42 42,41 42,41 42,41 42,40 42,40 42,40 42,40 42,40 42,40 43,40 43,39 43,39 43,39 44,38 44,38 44,38 45,38 45,38 45,37 45,37 46,37 46,37 46,37 47,37 47,37 47,37 47,37 48,37 48,37 48,37 48,37 49,37 49,37 49,37 49,37 50,38 50,38 51,38 51,38 51,38 52,37 52,37 53,37 53,37 53,37 53,37 53,36 53,36 53,36 54,36 54,36 54,35 54,35 54,35 54,35 54,35 54,35 54,35 54,35 54,35 54,35 54,35" id="6106" class="canton" fill="steelblue" stroke-width="1" stroke="white" geotype="canton" geoname="Athis-de-l'Orne" code_insee="6106" code_departement="61" nom_departement="Orne" code_region="28" nom_region="Normandie"/></svg>