<?xml version="1.0" encoding="utf-8"?>
<svg version="1.1" id="svgmap" xmlns="http://www.w3.org/2000/svg" xmlns:xlink="http://www.w3.org/1999/xlink" x="0px" y="0px" width="100%" height="100%" viewBox="0 0 500 396">
<polygon points="146,44 147,44 147,43 147,43 147,43 148,43 148,42 148,42 149,42 148,42 149,42 149,42 149,42 149,41 149,41 149,41 149,41 149,41 149,41 149,41 149,41 149,41 150,41 150,41 150,41 150,41 150,41 150,40 150,40 149,40 149,40 149,40 150,40 150,40 150,40 150,40 150,40 150,40 150,40 150,40 150,40 150,40 150,40 151,40 151,39 151,40 151,40 151,40 151,40 151,40 151,40 152,39 152,39 151,39 151,39 152,39 152,39 152,39 151,39 151,39 151,39 152,39 152,39 152,39 152,38 152,38 152,38 152,38 152,38 153,38 153,38 153,38 153,37 153,37 153,37 153,37 153,37 153,37 153,36 153,36 153,36 153,36 154,36 154,36 154,36 155,35 155,35 155,35 156,35 156,35 156,35 157,35 157,35 157,35 157,35 158,35 158,35 158,35 158,34 158,34 158,34 158,34 158,34 159,34 159,34 159,34 159,34 159,34 159,34 159,34 159,34 159,34 160,34 160,34 160,34 160,34 160,34 160,34 160,34 160,34 160,34 160,34 160,34 161,34 161,34 161,34 161,34 161,34 161,34 161,33 161,33 161,33 161,33 161,33 161,33 161,33 162,33 162,34 162,34 162,34 162,34 162,34 162,34 162,34 162,34 162,34 162,34 162,34 163,34 163,34 163,34 163,34 163,34 163,34 164,34 164,34 164,34 164,34 165,34 165,33 165,33 165,33 165,33 165,33 166,33 166,33 166,33 166,33 167,33 167,33 167,33 167,33 168,33 168,33 168,33 169,33 169,32 169,32 170,32 170,32 170,32 170,32 170,32 171,32 172,31 172,30 172,30 172,30 172,30 174,30 174,30 174,30 174,30 174,30 174,30 174,30 175,30 175,30 175,30 176,30 177,29 177,29 181,28 181,28 181,28 181,28 181,28 181,28 181,28 182,28 182,28 182,28 182,28 183,28 183,28 183,28 183,28 183,28 183,28 183,28 183,28 184,28 184,28 184,28 184,28 184,28 184,28 185,28 185,28 185,28 185,28 185,28 185,28 185,28 186,28 186,28 186,28 186,28 187,27 187,27 187,27 187,27 188,27 188,27 188,27 188,27 189,27 189,27 189,27 189,27 189,27 190,27 191,26 192,26 192,26 193,26 193,26 193,26 193,26 193,26 193,26 193,26 194,26 194,26 194,26 194,26 194,26 194,26 194,26 194,26 194,26 194,26 194,25 194,25 194,25 194,25 194,25 194,25 196,25 196,25 196,25 197,25 197,25 197,25 197,24 197,24 197,24 197,24 197,24 198,24 198,24 198,24 198,24 198,24 198,24 198,24 198,24 198,24 198,24 198,24 198,24 198,24 198,24 199,23 199,23 199,23 199,23 200,24 200,24 200,24 200,24 200,24 200,24 200,24 200,24 200,24 200,24 200,24 201,24 201,24 201,24 201,24 201,24 201,24 201,24 201,24 202,24 202,24 202,24 202,24 202,24 202,24 202,24 202,24 202,24 202,24 202,24 203,24 203,24 203,24 203,24 203,24 203,24 203,24 203,24 203,24 203,24 204,24 204,24 204,24 204,24 204,24 204,23 204,23 204,23 204,23 204,23 204,23 204,23 204,23 204,23 204,23 204,23 204,23 204,23 204,23 204,23 205,23 205,23 205,23 205,22 205,22 205,22 205,22 206,22 206,22 206,22 206,22 206,22 206,22 206,22 206,22 206,22 206,22 206,22 206,22 206,21 206,21 206,21 206,21 207,21 207,21 207,21 207,21 207,20 207,20 207,20 207,20 207,20 207,20 207,20 207,20 207,20 208,20 208,20 208,20 208,20 208,20 208,20 208,20 208,20 209,19 209,19 209,19 209,19 209,19 209,20 209,20 209,20 209,20 209,19 210,19 210,19 210,19 210,19 210,19 210,19 210,19 210,19 210,19 210,19 210,19 211,19 211,19 211,19 212,18 212,18 213,18 214,18 215,18 215,17 215,17 215,17 215,17 216,17 216,17 216,17 216,17 216,17 216,17 216,17 217,16 217,16 217,16 217,16 217,16 217,16 217,16 217,16 218,15 219,15 219,15 219,15 220,15 220,14 220,14 220,14 220,14 220,14 220,14 220,14 220,14 220,14 220,14 220,14 221,14 221,14 221,14 221,14 221,14 221,14 221,14 221,14 221,14 221,14 222,14 222,14 222,13 223,13 224,13 224,13 225,12 225,12 226,13 226,13 226,13 226,13 228,12 228,12 228,12 228,12 228,12 228,12 228,12 228,12 228,12 228,11 227,11 227,11 227,10 228,9 228,9 228,8 229,8 229,8 229,7 229,7 229,6 230,6 230,6 230,5 231,6 232,6 232,6 234,6 235,6 236,5 236,5 238,5 238,4 241,3 242,3 242,3 243,3 243,3 243,3 243,3 244,3 245,4 246,5 246,5 246,5 246,5 246,6 246,9 247,9 247,9 248,9 251,9 251,10 252,10 252,11 252,11 252,11 253,11 253,11 253,11 253,11 253,11 254,11 255,11 255,11 255,11 256,11 257,11 257,11 257,11 258,11 258,11 258,11 261,12 262,12 262,12 262,12 263,12 264,12 265,12 266,12 266,12 266,12 266,12 266,12 266,12 266,12 267,12 268,12 268,12 268,12 268,12 270,11 271,11 270,12 271,12 272,11 272,11 272,11 272,11 273,10 273,10 273,10 273,10 273,10 273,10 274,10 274,10 274,10 275,10 275,10 275,10 275,10 275,10 276,10 276,10 276,9 276,9 276,9 277,9 278,9 278,9 279,9 280,8 280,8 280,9 280,9 280,9 280,9 280,9 280,9 280,9 280,9 281,9 282,9 283,9 283,9 283,9 283,9 283,9 283,9 283,9 283,9 284,9 284,9 284,9 284,8 284,8 284,8 284,8 284,8 284,8 284,8 284,8 284,8 284,8 284,8 284,8 284,8 284,8 284,8 284,8 284,7 284,7 284,7 284,7 285,7 285,7 285,7 285,7 285,7 285,7 285,7 285,7 285,7 286,7 286,7 286,7 286,7 286,7 286,7 286,7 286,7 286,7 286,7 286,7 287,7 287,7 287,7 287,7 288,7 288,7 288,7 288,6 288,6 288,6 289,6 289,6 289,6 289,6 289,6 290,6 290,6 290,6 290,5 291,5 291,5 291,5 291,5 291,5 292,5 292,5 292,5 292,5 292,5 292,5 292,5 292,5 292,5 293,5 293,5 293,5 293,5 293,5 293,5 293,5 293,5 293,5 294,5 295,5 295,5 296,5 297,4 298,4 299,4 299,4 300,4 301,4 301,4 302,4 303,4 304,4 304,4 304,4 304,4 305,4 305,4 306,4 307,4 307,4 308,4 308,4 308,4 308,4 308,4 308,4 309,4 309,4 309,4 309,4 309,4 309,4 309,4 309,4 310,4 310,4 310,4 310,4 310,4 310,4 310,4 310,4 310,4 310,3 310,3 310,3 310,3 310,3 310,3 310,3 310,3 310,3 311,3 311,3 310,3 310,3 310,3 311,3 311,3 311,3 311,3 311,3 311,3 311,3 311,3 311,3 311,3 311,3 311,3 311,3 311,3 311,3 311,3 311,3 311,3 312,3 312,3 312,3 312,2 312,2 312,2 312,2 312,2 312,2 312,2 312,2 312,2 312,2 312,2 312,2 312,2 312,1 312,1 312,1 312,1 312,1 312,1 313,1 313,1 313,1 313,1 313,1 313,1 313,1 313,1 313,1 313,1 313,0 313,0 313,0 313,0 313,0 313,0 313,0 313,0 313,0 314,0 314,0 314,0 314,0 314,0 314,0 314,0 314,0 314,0 314,0 314,0 314,0 315,0 315,0 315,0 315,0 315,0 315,0 315,0 315,0 316,0 316,1 316,1 316,1 316,1 316,1 316,1 316,1 316,1 316,1 316,1 316,1 316,1 316,1 316,1 316,1 316,1 316,2 316,2 316,2 316,2 316,2 316,2 316,2 316,2 316,2 317,2 317,2 317,2 317,2 317,2 317,2 317,2 317,2 317,2 317,2 317,2 317,2 317,2 317,2 317,2 317,2 318,2 318,2 318,2 318,2 318,2 318,2 318,2 318,3 318,3 318,3 318,3 318,3 318,3 318,3 319,3 319,3 319,3 319,3 319,3 319,4 319,4 319,4 319,4 319,4 319,4 319,4 319,4 319,4 319,4 319,4 319,4 319,4 319,4 319,4 320,4 320,4 320,4 320,4 320,4 320,4 320,4 320,4 320,4 320,5 320,5 320,5 320,5 320,5 320,5 320,5 320,5 321,5 321,5 321,6 321,6 321,6 321,6 322,6 322,6 322,6 322,6 322,7 322,7 322,7 322,7 322,7 322,8 322,8 322,8 322,9 322,9 322,9 321,9 321,9 321,9 321,10 322,10 322,10 322,10 322,10 322,10 323,11 323,11 323,11 323,11 323,12 323,12 322,13 322,13 322,13 322,13 323,13 323,13 324,13 324,13 324,13 325,13 325,13 325,13 325,13 325,13 326,13 326,13 326,12 326,12 326,12 326,12 327,12 327,11 327,11 327,11 326,11 326,10 325,10 325,10 325,10 325,9 325,9 325,8 325,8 325,8 325,7 325,6 325,6 326,6 327,6 328,7 329,7 329,7 330,7 332,9 333,9 333,9 333,9 334,10 334,10 334,10 334,11 334,11 334,12 335,12 335,12 335,12 336,13 336,13 337,12 337,12 336,11 336,11 336,10 336,10 336,10 336,9 337,9 337,8 337,8 337,7 337,7 337,6 337,6 337,6 337,5 337,5 337,5 337,5 338,5 338,5 338,4 338,4 338,4 339,4 340,4 341,4 341,4 343,4 343,4 344,4 344,4 344,4 345,4 346,3 346,3 347,3 347,3 348,3 348,3 349,4 351,4 351,4 351,4 352,4 352,4 353,4 353,4 354,4 355,4 355,4 356,4 356,4 357,4 357,4 357,5 357,6 357,6 357,7 357,7 357,8 357,8 357,8 357,9 357,9 357,9 357,9 358,10 358,10 358,11 359,11 359,11 360,12 360,12 361,12 361,12 361,12 362,11 362,11 363,10 363,10 364,10 364,10 365,9 365,9 365,8 366,8 366,7 367,7 367,6 368,6 368,6 368,6 370,6 371,6 371,6 372,6 373,7 373,7 373,7 374,7 374,7 374,6 375,6 375,7 375,6 376,6 376,6 377,7 377,7 377,7 377,7 376,7 376,8 376,8 376,9 377,11 378,15 379,16 379,18 372,21 365,25 359,28 355,30 351,32 348,34 347,34 347,34 347,34 347,34 347,33 347,33 347,33 347,33 347,33 346,33 345,33 344,33 344,33 343,33 343,33 343,33 342,33 342,33 341,33 341,33 341,33 340,33 340,33 337,34 337,34 337,34 336,35 336,35 335,35 334,35 333,36 333,36 333,36 333,36 332,36 332,36 332,36 330,34 330,34 329,34 329,34 329,34 329,35 329,35 329,35 328,35 328,35 328,35 328,35 327,35 326,35 326,36 325,35 325,35 325,35 325,35 324,35 324,35 324,35 323,35 323,35 322,34 322,34 322,35 321,35 321,35 321,35 320,35 319,35 318,35 317,35 316,35 315,36 315,36 315,36 313,36 313,36 312,36 311,36 311,36 310,37 310,37 308,37 308,37 307,37 307,37 307,37 306,38 306,38 306,38 306,39 305,39 305,39 304,40 304,40 303,41 303,41 303,42 302,42 302,42 302,42 302,43 302,43 302,43 302,43 301,44 301,44 301,44 301,45 301,45 301,46 301,46 301,47 301,48 301,48 301,48 301,48 301,50 300,50 299,49 297,49 297,49 297,50 296,50 297,51 297,51 298,51 299,53 299,53 299,53 299,54 299,54 300,54 302,55 303,55 303,55 303,55 303,55 304,56 304,57 304,57 304,57 305,57 305,58 305,58 305,58 306,58 307,59 307,59 307,59 306,60 306,60 305,60 305,61 305,61 305,62 306,62 306,62 306,62 306,63 306,63 305,63 305,63 305,63 305,64 305,64 304,64 304,64 303,65 303,66 302,66 302,66 302,66 302,66 301,66 301,66 300,67 300,68 300,69 299,70 299,70 299,70 299,70 299,71 299,71 299,72 299,72 299,73 299,73 299,73 299,73 299,73 299,73 299,74 298,74 298,74 298,74 298,74 298,74 297,74 297,74 297,74 297,74 296,74 296,74 295,74 295,74 293,74 293,74 293,74 293,74 293,74 293,75 293,75 292,75 292,75 292,75 292,76 292,76 292,76 292,77 292,77 292,77 293,77 292,78 292,78 292,78 292,78 292,78 291,79 291,79 291,79 291,79 291,79 290,80 290,80 290,80 290,81 290,81 290,81 290,82 290,82 290,82 289,82 289,82 289,83 288,84 287,85 286,86 286,86 286,86 286,86 286,86 286,86 286,87 286,87 286,87 285,87 285,88 285,88 284,89 284,89 283,90 283,90 282,91 282,91 282,91 282,91 282,91 282,91 282,92 282,93 282,93 282,93 282,94 282,94 282,94 282,95 281,95 281,95 281,95 282,96 281,96 281,97 281,98 281,98 281,98 281,98 280,99 280,99 280,99 280,100 279,100 279,100 279,101 279,101 279,102 279,102 279,102 279,102 279,102 279,102 279,102 277,102 277,102 277,102 276,102 275,102 275,102 274,103 274,103 274,103 274,103 274,103 274,103 274,103 274,103 274,103 274,104 274,104 274,104 274,104 275,104 275,105 275,105 275,105 275,105 275,106 275,106 275,106 275,106 275,106 275,106 275,106 275,106 275,107 275,107 275,107 275,107 275,107 275,107 274,107 274,107 274,107 274,107 274,108 274,108 274,108 274,108 274,108 274,108 274,108 274,108 273,108 272,109 272,109 272,109 272,109 272,109 272,109 272,109 272,109 272,109 272,109 272,109 272,109 272,109 272,110 272,110 272,110 272,110 272,110 272,110 272,110 271,110 271,110 271,110 271,110 271,110 271,110 271,110 271,110 271,111 271,111 271,111 271,111 271,111 271,111 271,111 271,111 271,112 271,112 271,112 271,112 271,113 271,113 271,113 271,113 271,113 271,113 272,113 272,113 272,113 272,113 272,113 272,113 272,113 272,114 272,114 272,114 273,114 274,114 275,114 276,114 276,114 276,115 276,115 276,114 277,114 277,114 277,114 277,113 277,113 278,112 278,112 278,112 278,112 278,111 278,111 278,111 279,111 279,110 280,110 281,110 283,110 283,110 283,110 283,110 283,110 283,110 283,109 283,109 283,109 284,109 285,108 285,108 286,108 286,108 287,108 287,108 288,108 288,108 288,108 288,108 288,108 289,107 289,107 289,107 289,107 290,107 291,106 291,106 291,106 291,106 291,106 292,105 293,105 293,105 294,104 294,104 294,105 294,105 294,106 295,106 295,106 295,106 295,106 295,107 295,107 295,107 295,107 295,107 295,107 295,107 295,107 295,108 296,108 296,108 296,108 296,109 296,109 296,109 296,109 297,110 297,110 297,110 297,110 298,110 298,111 298,111 299,111 299,111 299,111 300,111 300,112 301,112 301,112 301,112 301,112 302,112 302,113 303,113 303,113 303,113 304,113 304,113 304,113 304,113 304,113 305,114 305,114 306,114 306,114 306,114 307,114 307,114 308,114 308,114 309,114 310,114 310,114 311,114 311,114 311,114 311,114 312,114 312,113 313,113 313,113 313,114 313,114 313,114 313,114 313,114 313,114 314,114 314,114 313,114 313,114 314,115 314,115 315,116 316,116 316,116 316,116 317,117 318,117 320,118 321,118 322,119 322,119 323,119 323,120 324,120 324,121 324,121 325,121 326,121 326,121 327,122 327,122 327,122 327,122 327,123 326,124 326,124 325,125 325,125 323,126 323,126 322,126 321,127 320,127 320,127 320,127 320,127 321,127 321,128 320,128 320,128 320,128 320,128 320,128 320,128 321,129 321,128 321,128 322,128 322,128 322,128 322,128 323,128 323,128 324,128 324,128 324,128 324,128 325,128 325,128 325,128 325,128 326,128 326,128 326,128 326,128 327,128 327,128 327,128 327,128 327,128 328,128 328,128 328,128 329,128 329,128 329,128 329,128 330,128 330,128 330,128 330,128 330,128 330,128 330,127 331,127 331,127 331,127 332,127 332,127 332,126 332,126 332,126 332,126 333,126 333,126 333,126 334,125 334,125 334,125 334,125 334,125 334,125 334,125 334,125 334,124 335,124 335,124 335,124 335,124 335,124 335,124 336,124 336,123 336,123 336,123 337,123 337,123 337,123 338,123 338,123 338,123 338,123 338,123 339,124 339,124 339,124 340,124 341,125 341,125 342,126 343,126 343,126 343,127 344,127 344,127 344,127 344,127 345,127 345,127 346,128 346,128 347,128 348,129 348,128 348,128 348,128 348,128 349,127 349,127 349,127 349,127 349,127 350,128 351,128 352,128 353,128 353,128 355,127 355,127 356,127 357,128 357,128 359,129 359,129 360,130 360,130 361,130 361,130 361,130 361,130 361,130 361,130 361,130 362,130 362,130 362,130 363,130 363,130 364,130 365,131 365,131 365,131 366,131 367,132 367,132 367,132 367,132 367,132 369,132 370,132 370,132 371,132 371,132 372,132 372,132 372,133 373,133 373,133 373,133 373,133 373,133 374,133 374,134 374,134 374,134 374,134 374,134 374,134 375,134 375,134 375,134 375,135 375,135 375,135 375,135 375,136 376,136 377,135 378,135 380,134 382,133 383,133 383,132 384,132 384,132 385,132 386,131 386,131 387,130 387,130 387,130 387,130 387,130 388,130 388,130 388,130 390,130 391,130 391,130 391,130 391,130 392,130 392,130 392,130 392,130 392,130 393,130 393,130 393,130 394,129 394,129 394,129 394,129 394,129 394,129 394,129 394,129 394,129 394,129 395,129 395,129 395,129 396,129 396,129 396,129 396,129 397,129 397,129 397,129 397,129 398,129 398,128 398,128 399,128 399,128 399,128 400,128 400,128 400,128 401,128 401,128 401,128 401,128 401,128 401,128 401,128 402,128 402,129 402,129 402,129 402,129 402,128 403,128 403,128 403,128 403,128 403,128 403,128 403,128 404,128 404,128 404,128 404,128 404,128 404,128 404,128 405,128 406,128 406,128 406,128 407,128 408,128 408,128 408,128 409,128 409,128 410,129 410,129 410,129 410,129 410,129 410,129 411,129 411,129 411,129 411,129 411,129 411,129 412,129 412,129 412,129 412,129 413,129 413,129 413,129 414,129 414,129 414,129 414,129 414,129 415,129 415,129 415,129 415,129 415,129 415,129 416,129 416,129 416,129 416,129 416,129 416,129 417,129 417,129 417,129 417,129 417,129 418,129 418,129 418,129 418,129 418,129 418,129 418,129 419,129 419,129 419,129 419,129 419,129 419,129 419,129 419,129 419,129 419,129 419,129 420,129 420,129 420,130 420,130 420,130 420,130 420,130 421,131 421,131 421,131 421,131 422,131 422,131 422,131 423,132 423,132 423,132 423,132 423,132 424,132 424,132 424,132 425,132 426,132 428,132 428,132 430,133 431,133 431,133 431,133 431,133 431,133 431,134 431,134 431,134 431,134 431,134 431,134 431,134 431,134 432,134 432,134 432,134 432,134 432,134 432,134 432,134 432,135 432,135 432,135 432,135 432,135 432,135 432,135 432,135 432,135 432,135 432,135 432,135 432,135 432,135 432,135 432,135 432,135 433,135 433,135 433,135 433,136 433,136 433,137 433,137 435,137 436,136 436,136 436,136 436,136 437,136 437,136 437,137 437,137 437,137 437,137 437,137 437,137 437,137 437,137 436,137 436,138 436,138 435,138 435,139 435,139 436,139 436,140 437,140 438,141 438,141 438,141 438,141 438,141 439,140 439,140 440,140 440,140 441,140 441,140 441,141 441,141 442,141 442,141 442,141 442,141 442,141 442,141 443,141 443,141 444,141 444,141 444,141 445,141 446,141 446,141 446,141 446,141 446,141 447,141 447,142 447,142 447,142 448,143 448,143 448,143 449,143 449,143 450,144 450,144 451,144 452,145 452,145 453,146 454,146 454,146 454,146 455,147 455,146 456,146 456,146 456,146 457,146 457,146 457,146 457,146 458,146 458,146 458,146 458,146 459,146 459,146 460,145 460,145 460,145 461,145 461,145 462,145 463,145 463,145 463,145 463,145 463,146 463,146 464,146 464,147 464,147 464,147 464,147 464,147 464,147 464,147 465,147 465,147 465,147 465,147 465,147 465,147 465,147 465,147 465,148 465,148 465,148 465,148 466,148 466,148 466,148 466,148 466,148 466,148 466,148 466,148 466,148 466,148 466,148 466,148 467,148 467,148 467,148 467,148 467,148 467,148 467,148 468,148 468,148 469,148 469,148 469,148 469,148 470,148 470,148 470,148 470,148 470,148 470,148 471,148 471,148 471,148 471,148 471,148 472,148 472,148 472,148 472,148 472,148 472,148 473,148 473,148 473,149 473,149 473,149 473,148 473,148 473,148 473,148 473,148 474,148 474,148 474,148 474,148 474,148 474,148 474,148 474,148 474,148 474,148 474,148 475,148 475,148 475,148 475,148 475,148 475,148 475,148 476,148 476,148 476,148 476,148 476,148 476,148 476,148 476,148 476,148 476,148 476,148 477,148 477,148 477,148 477,148 477,148 477,148 477,148 478,148 478,148 478,148 478,148 478,148 479,148 479,148 479,148 479,148 479,148 479,148 479,148 480,148 480,148 480,148 480,148 481,148 481,148 481,148 482,148 482,148 482,148 483,148 483,148 483,148 483,148 483,148 483,148 483,148 483,149 483,149 483,149 483,148 483,148 484,148 484,148 484,148 484,148 484,149 484,149 484,149 484,149 484,149 484,149 485,149 485,149 485,149 485,149 485,149 485,149 485,149 485,149 485,149 485,150 485,150 485,150 485,150 485,150 485,150 486,150 486,150 486,150 487,150 487,150 487,150 487,150 488,150 488,151 488,151 488,151 488,150 488,150 488,150 488,151 488,151 488,151 488,151 489,151 489,151 489,151 489,151 489,151 489,151 490,151 490,151 490,151 490,151 491,152 491,152 491,152 492,152 492,152 492,152 492,152 492,152 493,152 493,152 493,152 493,152 493,152 493,152 494,152 494,153 494,152 495,152 496,152 497,152 497,152 497,153 497,153 497,153 497,153 497,153 497,153 497,153 497,153 497,153 497,153 497,153 497,153 497,153 497,153 497,153 497,154 497,154 497,154 497,154 497,154 497,154 497,154 496,155 496,155 496,155 496,155 496,155 496,155 496,155 496,156 496,156 496,156 496,156 496,156 496,157 496,157 495,157 496,157 496,157 496,158 496,158 496,159 496,159 496,160 496,160 496,160 496,160 497,161 497,161 497,161 497,161 497,162 497,162 498,163 498,163 497,162 497,163 497,162 496,162 496,162 495,162 495,162 494,162 493,162 493,162 492,162 492,162 492,162 492,163 492,163 491,163 491,163 491,163 491,163 491,163 491,164 491,164 491,164 491,165 491,165 491,165 491,165 491,165 490,165 491,165 491,166 491,166 491,166 491,166 492,166 493,168 494,168 494,169 494,169 494,169 495,170 495,170 495,170 495,170 496,170 496,171 496,171 496,171 496,171 498,172 499,173 500,174 500,174 500,174 500,175 499,175 499,176 498,176 498,176 498,177 498,177 498,178 498,178 499,179 500,179 500,179 500,180 500,180 500,180 500,180 500,181 499,181 499,182 499,183 499,183 499,183 498,183 498,184 498,184 498,184 497,185 497,185 495,185 496,185 496,185 495,186 495,186 495,187 495,187 495,189 494,189 494,189 494,189 494,189 494,189 493,189 493,189 493,189 492,189 492,189 492,189 492,189 491,189 490,189 490,189 489,189 488,189 488,189 487,189 487,189 485,190 484,190 483,190 483,190 481,190 480,191 478,191 478,191 477,191 477,191 477,191 476,191 476,191 475,191 474,195 474,196 471,203 470,206 470,207 469,209 467,216 464,223 462,228 462,230 462,230 468,230 474,230 476,230 477,230 477,230 477,230 478,231 481,233 482,234 484,236 485,237 486,237 488,239 489,239 490,240 490,240 490,240 489,241 489,241 489,241 489,242 489,242 489,242 489,243 489,243 489,243 490,244 490,244 490,244 490,244 490,245 490,245 490,245 490,245 489,245 489,245 489,245 488,245 488,245 487,246 487,246 486,246 486,246 486,246 485,246 485,246 484,247 484,247 484,247 483,247 482,248 482,248 482,248 482,248 481,249 481,249 481,249 481,249 481,250 480,250 480,250 480,250 480,250 480,251 480,251 480,251 480,251 479,251 479,251 479,251 479,251 478,252 478,252 478,252 478,252 478,252 478,252 477,253 477,253 477,253 477,253 478,253 478,253 478,254 478,254 478,254 477,254 477,255 477,255 477,255 477,255 477,256 477,256 477,256 477,256 476,255 475,255 475,255 475,255 474,256 474,256 474,256 475,256 475,257 475,257 475,257 475,257 475,257 475,257 475,258 476,259 476,259 476,259 477,260 477,260 477,260 476,260 476,260 476,260 476,261 476,261 476,261 476,261 477,261 477,261 477,261 477,261 477,261 477,261 477,262 477,262 477,263 477,263 477,263 477,263 477,264 477,264 477,264 476,264 476,264 476,265 476,265 476,266 476,266 476,266 476,266 476,266 476,266 475,266 475,266 475,267 476,267 476,267 476,267 476,268 476,268 476,268 475,268 475,269 475,269 475,269 474,270 474,270 473,270 473,271 473,271 473,271 472,271 472,271 472,270 472,270 471,271 471,271 470,271 470,272 470,272 469,272 469,272 469,272 468,272 468,272 468,271 468,271 468,271 468,271 468,271 468,272 468,272 468,272 467,272 467,272 467,272 467,272 467,272 467,272 467,273 467,273 466,273 466,273 466,273 466,273 466,273 465,273 465,273 465,274 465,274 465,274 465,274 464,274 464,274 464,274 464,275 464,275 464,275 464,275 464,275 464,275 464,275 464,276 464,276 464,276 464,277 464,277 464,277 464,277 464,278 464,278 464,278 464,278 464,278 464,279 464,279 464,279 464,279 464,279 464,280 464,280 463,280 463,280 463,281 463,281 463,281 461,279 459,278 457,276 457,276 457,276 455,277 455,276 454,276 454,276 454,276 453,277 451,277 450,280 449,281 449,282 448,282 448,283 447,284 447,285 446,286 446,286 445,286 445,287 444,289 444,289 445,290 446,291 446,292 446,292 447,292 446,292 444,293 444,294 444,294 444,295 444,295 444,296 445,296 445,297 445,297 444,297 444,297 443,297 443,297 442,297 442,297 441,298 440,298 440,298 440,298 440,298 440,299 440,299 439,299 439,299 438,300 438,299 438,299 437,299 437,299 436,299 436,299 435,299 435,299 434,299 433,300 433,300 433,300 432,300 432,301 432,301 432,301 432,301 432,302 432,303 432,303 432,303 432,303 431,303 431,303 431,303 431,304 430,304 430,304 429,304 429,304 429,304 429,304 429,304 429,304 428,304 428,304 427,305 427,305 426,305 426,306 426,306 426,306 425,306 425,305 424,305 424,305 424,305 424,305 423,305 423,305 422,306 422,306 421,306 421,306 420,306 420,306 419,305 419,305 419,305 418,305 418,305 418,305 417,306 417,306 417,306 417,306 417,306 417,307 417,307 417,307 417,307 417,307 417,307 416,308 416,308 416,309 416,310 417,311 415,311 415,311 415,312 416,313 416,313 415,313 412,312 411,312 411,312 411,312 411,312 411,313 411,314 411,314 411,315 411,316 411,316 411,316 410,317 409,317 409,318 409,318 409,318 409,318 409,318 410,319 409,321 409,321 409,322 409,322 409,323 409,323 409,323 409,324 410,324 410,325 410,325 410,326 410,326 410,326 410,327 410,328 410,328 410,330 410,331 410,331 410,332 410,332 409,333 409,334 409,334 408,335 408,335 407,336 406,337 406,337 406,337 405,338 405,338 405,338 404,338 404,339 404,339 404,339 403,339 403,339 403,339 402,339 402,339 401,339 401,339 401,339 400,339 400,339 399,339 399,339 398,339 398,339 397,339 396,340 396,340 396,341 395,342 395,342 394,342 394,343 394,343 394,343 394,343 394,343 394,344 394,344 394,344 394,345 394,345 394,345 394,345 394,345 393,346 393,346 393,347 393,347 392,348 392,348 391,349 391,349 391,350 391,350 391,350 390,350 390,350 390,350 389,350 389,351 388,351 388,351 388,351 388,351 388,351 388,351 388,352 388,353 387,353 388,353 388,353 388,354 388,354 387,354 387,355 387,354 386,354 385,353 385,353 385,353 384,353 384,353 383,353 383,353 383,352 382,352 382,352 381,351 381,351 381,351 381,351 380,351 380,350 379,350 379,350 379,350 379,350 379,350 379,350 378,349 378,349 378,349 377,349 377,349 377,349 377,349 377,349 376,349 376,349 376,349 375,349 375,349 375,349 375,349 374,349 374,349 373,349 373,349 373,349 372,349 372,348 372,348 371,348 371,348 371,348 370,348 370,348 370,348 369,348 369,347 369,347 369,347 368,347 368,347 368,346 368,346 367,346 367,346 367,346 367,345 367,345 366,345 365,345 365,345 365,345 364,344 363,344 362,343 362,343 361,343 361,342 360,342 359,341 358,341 358,341 358,341 358,341 358,341 357,340 357,340 356,339 356,339 355,339 354,338 353,338 352,337 352,337 351,336 351,336 351,336 351,335 351,335 351,335 351,334 351,334 350,334 350,333 350,333 350,333 348,333 346,333 346,333 345,332 345,332 345,332 344,332 344,332 344,332 343,332 341,332 340,332 337,332 338,332 338,331 338,331 338,330 338,330 338,329 337,329 337,329 337,329 336,328 336,328 336,328 336,327 336,327 336,326 336,326 336,325 336,325 336,324 336,324 336,324 336,323 336,323 336,323 335,323 334,322 333,322 333,322 332,322 332,322 331,322 331,322 330,321 330,321 330,321 329,321 328,320 327,320 327,320 327,320 327,319 326,320 326,320 326,321 325,322 323,325 323,325 323,325 321,324 321,324 321,324 319,324 318,324 318,324 317,324 317,323 316,323 316,323 315,323 315,323 315,322 315,322 314,322 314,321 314,320 314,319 314,319 314,319 315,318 315,318 315,317 314,317 313,317 312,317 311,316 310,316 309,316 309,316 309,316 309,316 308,316 307,316 307,315 306,315 306,315 306,315 306,315 306,315 306,315 305,315 305,315 305,315 304,315 304,315 303,315 303,315 303,315 303,315 303,315 303,315 303,315 303,315 303,315 303,316 303,316 303,316 303,316 303,316 302,316 302,317 302,317 302,317 303,317 303,317 303,317 303,317 303,317 302,317 302,317 302,317 302,317 302,317 302,317 302,317 302,317 302,318 302,318 302,318 301,318 301,318 301,318 301,318 301,319 301,319 301,319 301,319 301,319 301,320 301,320 301,320 301,320 301,320 301,320 301,320 301,321 301,321 300,321 300,321 300,321 299,321 299,321 299,321 299,322 299,322 299,322 299,322 299,322 299,322 299,322 298,322 298,322 298,322 298,322 298,322 298,322 297,322 297,322 297,321 297,321 297,321 296,321 295,321 295,321 295,321 294,321 293,321 293,320 292,320 291,320 291,320 291,320 290,320 289,320 289,320 288,319 288,319 287,319 287,319 287,319 287,319 286,319 286,319 286,322 286,322 285,322 284,322 284,322 284,323 284,323 283,323 283,323 283,324 283,325 282,326 282,327 282,328 282,328 282,328 281,328 281,328 281,328 281,329 281,329 280,329 280,329 280,330 279,330 279,330 278,331 278,331 278,331 277,332 271,332 270,333 269,334 268,334 268,334 266,335 265,335 264,335 264,335 261,335 258,334 257,333 255,333 254,333 254,335 254,335 254,335 252,335 251,336 250,336 250,336 249,336 249,336 249,336 247,336 247,336 247,336 247,336 247,336 247,336 247,337 247,337 247,337 247,337 247,337 247,338 247,338 247,338 247,338 247,339 246,339 246,339 246,339 246,339 246,340 246,340 246,340 246,340 246,340 247,340 247,340 247,340 246,341 246,341 246,341 246,341 246,341 246,341 246,342 246,342 246,342 246,342 246,342 246,342 246,342 246,343 246,343 247,343 246,343 247,343 247,344 246,344 246,344 246,345 246,345 246,345 247,345 247,345 247,345 247,345 247,345 247,345 248,346 248,346 249,346 249,346 248,347 249,347 248,347 249,347 249,347 249,347 249,347 249,347 249,348 249,348 249,348 249,348 249,348 248,348 248,348 247,348 247,348 247,348 246,348 246,348 245,349 245,349 245,349 245,349 244,349 244,349 244,349 243,349 242,349 242,349 242,349 241,349 241,349 240,349 240,349 240,349 240,349 239,349 239,349 238,349 237,349 237,349 237,349 237,350 236,350 236,350 237,350 237,350 237,351 237,352 237,352 238,352 238,352 238,353 238,353 238,353 239,354 239,354 239,354 239,354 240,355 240,355 241,355 241,356 241,356 241,356 241,356 242,357 242,357 242,357 242,357 243,357 243,358 243,358 244,358 245,358 245,359 246,359 245,359 244,360 244,360 243,360 243,360 240,360 239,361 239,361 239,361 239,361 239,361 238,361 238,361 238,361 238,362 238,362 238,362 238,362 238,362 238,362 238,362 238,362 238,362 237,362 237,362 237,362 237,363 237,363 237,363 237,363 237,363 236,364 235,364 235,364 235,364 236,364 236,365 236,365 236,365 237,365 238,366 238,366 238,366 238,366 238,367 238,367 238,367 238,368 237,368 237,368 237,369 237,369 237,369 236,369 236,370 236,370 235,370 235,370 235,370 235,370 234,371 234,371 233,371 233,371 233,372 233,372 233,372 233,372 233,372 233,372 233,372 233,372 233,372 233,372 233,372 233,372 233,372 233,372 233,372 232,372 232,372 232,372 232,372 232,372 232,373 232,373 232,373 232,373 232,373 231,373 231,373 231,373 231,374 231,373 231,373 231,374 231,374 231,374 231,374 231,374 231,374 228,374 226,374 219,374 215,373 213,373 210,373 207,373 203,373 200,373 200,373 196,373 184,372 180,372 174,372 169,372 164,372 164,371 164,370 164,369 164,368 164,368 164,368 164,368 165,367 167,366 167,365 167,364 167,364 167,364 167,364 167,364 167,363 167,363 166,362 166,362 165,362 164,362 165,361 165,361 165,361 165,360 165,360 165,360 165,360 166,360 166,360 166,360 166,359 166,359 166,359 167,358 167,358 167,358 167,358 167,358 167,358 167,357 167,357 167,357 167,357 168,357 168,356 169,356 168,356 168,355 167,355 167,354 166,354 166,354 166,354 166,354 165,354 165,353 165,353 165,353 165,353 165,352 165,352 165,352 166,352 167,351 165,350 165,350 164,350 164,350 163,350 163,349 162,350 162,350 162,350 162,350 161,350 161,350 160,350 160,350 160,350 159,350 159,350 159,349 158,349 158,349 158,349 158,349 157,349 157,349 157,349 157,348 157,348 157,348 157,347 157,347 157,346 157,346 157,345 157,345 157,345 156,344 155,343 154,342 154,342 154,342 154,342 154,342 153,341 153,341 153,341 152,340 152,340 152,340 151,340 151,340 151,340 150,340 150,340 150,340 149,340 149,339 149,339 148,339 148,339 148,339 147,339 147,339 146,338 146,338 145,338 145,338 145,338 144,338 143,338 142,338 141,338 141,338 141,338 140,338 139,338 138,338 138,338 139,337 139,337 139,337 139,336 139,336 139,336 139,336 139,336 140,335 140,335 140,335 141,335 141,335 141,335 141,335 141,334 141,334 141,334 141,334 141,334 141,334 141,334 141,334 141,334 141,334 142,334 142,333 143,333 143,333 143,333 141,332 140,331 140,331 140,331 139,331 139,330 139,330 138,330 138,330 138,330 137,330 137,330 137,330 137,330 136,330 136,330 136,330 135,330 135,330 134,330 133,330 132,330 131,330 131,330 131,330 131,330 131,331 131,331 131,331 130,331 130,331 130,331 130,331 130,331 130,332 130,332 130,332 130,332 129,332 129,332 130,332 130,332 130,332 130,333 131,333 131,333 131,333 132,333 132,333 132,333 132,333 132,333 132,333 132,333 132,333 132,333 133,333 133,333 133,333 133,333 133,333 133,333 133,333 133,333 133,333 133,333 133,333 133,334 134,334 134,334 134,334 134,334 134,334 135,334 136,334 137,334 137,335 137,335 137,335 136,335 136,335 136,336 136,336 135,337 135,337 134,338 133,338 133,339 132,339 132,340 132,340 132,340 132,341 132,341 132,341 132,342 132,342 133,342 132,342 132,342 132,343 132,343 132,343 132,343 132,343 131,343 131,343 132,344 131,344 131,344 131,344 131,344 131,344 130,344 131,344 131,344 130,345 130,345 129,345 129,345 129,345 128,346 128,346 128,346 129,346 129,347 129,347 129,348 129,348 129,348 129,349 130,349 130,350 130,350 130,350 130,351 130,351 130,351 130,351 130,352 130,352 129,353 129,354 129,354 129,354 129,354 128,355 126,355 125,355 125,355 124,355 124,355 123,355 123,355 122,355 122,355 122,355 120,356 119,356 119,356 119,356 119,356 119,356 120,357 120,357 120,357 119,357 119,357 118,358 118,358 118,358 117,358 117,358 117,359 117,359 117,359 116,360 116,360 116,361 115,361 115,362 115,362 115,362 114,363 114,363 113,364 113,363 113,363 111,364 110,365 109,365 108,366 108,366 108,366 108,366 108,366 107,366 107,366 107,366 107,366 107,366 107,365 106,365 106,364 106,364 106,364 105,364 105,364 105,364 104,364 104,364 104,364 104,363 104,363 104,363 103,363 103,363 103,363 103,363 103,364 103,364 102,364 102,365 101,365 100,365 100,365 100,365 99,364 98,364 99,364 99,364 99,363 97,363 97,363 97,364 96,364 96,364 95,365 95,365 95,365 95,366 94,366 94,366 94,366 93,366 93,366 92,366 92,366 92,366 91,366 91,366 91,366 91,366 90,366 90,366 89,367 88,367 88,367 88,367 87,367 87,368 86,368 86,368 85,368 85,368 84,368 84,368 83,368 82,368 82,368 81,368 81,368 81,368 80,368 80,368 80,368 80,368 79,369 79,369 79,369 79,369 79,369 79,369 79,369 79,369 79,369 79,369 79,369 78,369 78,369 78,369 78,369 78,369 78,369 78,369 78,369 77,369 76,369 76,369 76,369 75,370 75,370 75,370 74,370 74,370 74,370 74,370 74,370 74,370 74,370 73,370 73,371 72,371 72,371 71,372 71,372 70,372 70,372 70,372 69,372 68,374 67,374 66,375 66,375 66,375 66,375 65,375 65,376 64,376 64,376 63,376 63,376 63,376 62,376 62,377 62,377 62,377 61,377 61,377 60,378 60,378 60,378 60,378 60,378 60,379 59,379 59,379 59,379 59,379 59,379 59,379 58,379 58,379 57,379 57,379 57,379 57,379 57,379 56,379 56,379 56,379 55,379 55,379 54,380 54,380 53,380 52,380 51,380 50,381 50,381 50,381 50,381 49,381 49,382 49,382 48,382 47,383 46,383 45,384 43,385 42,386 41,386 41,386 41,387 41,387 40,388 40,388 40,389 40,392 40,393 40,393 40,394 39,394 39,395 39,396 36,395 36,394 35,394 35,393 36,392 36,392 35,392 35,392 33,392 33,391 32,390 31,390 31,390 31,390 32,389 33,385 34,385 35,384 36,384 36,383 35,383 34,382 33,381 33,381 33,380 32,380 33,379 32,379 32,378 32,378 32,375 32,375 32,375 33,373 32,370 31,367 30,367 31,367 30,366 30,365 30,364 30,363 30,361 30,360 30,359 29,357 29,357 28,355 28,355 28,355 29,354 29,354 31,352 32,352 33,353 34,351 34,351 35,351 36,351 36,351 38,350 41,347 42,347 42,346 42,346 42,346 43,345 42,344 42,344 41,344 43,342 43,342 43,341 43,341 42,341 42,341 42,340 43,340 43,339 43,339 42,338 42,338 42,338 43,337 43,337 44,337 44,336 44,335 44,335 45,334 44,334 44,334 42,334 42,334 41,333 40,333 40,334 40,333 40,333 39,332 39,332 38,331 38,331 38,331 38,331 37,330 37,329 37,329 36,329 36,328 36,328 36,328 36,328 36,328 36,328 35,328 35,327 35,327 34,326 34,326 34,326 34,326 34,325 33,325 32,325 32,324 32,324 31,324 31,323 30,322 30,322 31,322 31,322 31,322 31,322 31,322 30,322 31,321 30,321 30,321 29,321 29,321 28,320 28,320 27,320 28,320 28,319 28,319 28,319 27,319 27,319 27,319 27,319 27,318 27,317 27,317 26,316 26,316 25,316 25,316 25,316 25,316 25,316 24,316 24,316 24,315 24,315 23,316 23,316 23,316 23,315 22,315 22,315 22,315 23,314 23,313 22,313 22,313 23,313 22,312 22,312 22,312 22,312 23,312 23,312 23,311 23,311 22,311 22,311 22,311 22,311 23,311 23,311 23,310 23,310 23,310 23,309 23,309 23,309 22,309 22,309 22,308 22,308 22,308 21,308 20,308 20,307 20,307 21,307 20,306 20,306 19,305 19,305 20,305 20,305 20,304 19,304 19,305 18,304 19,304 19,304 19,304 19,303 18,303 18,303 18,303 17,303 17,303 17,303 17,303 17,302 18,302 19,301 18,301 18,301 17,301 17,301 17,301 18,300 18,300 19,300 19,300 19,300 19,300 19,299 19,299 18,298 18,298 18,298 18,298 17,298 17,298 17,297 17,297 18,297 17,296 16,296 16,297 16,297 16,297 16,296 16,295 17,295 17,295 17,295 17,295 17,295 16,294 16,294 16,294 15,294 14,293 13,293 13,293 13,292 13,292 12,292 12,292 12,293 12,293 11,293 11,293 11,292 11,292 11,292 11,292 10,293 10,293 10,292 10,291 9,291 9,291 9,291 9,291 9,290 9,290 9,290 9,290 9,290 9,289 9,289 9,289 8,288 9,288 9,288 8,288 8,288 8,288 7,288 7,288 7,288 7,287 7,287 6,286 6,286 5,285 4,285 4,286 3,286 3,286 2,285 2,285 3,285 3,284 3,284 2,284 1,284 1,284 1,283 0,283 0,283 0,283 0,283 0,283 1,283 1,283 1,283 1,283 1,282 2,282 2,282 1,282 1,282 1,282 1,282 1,282 1,281 2,281 2,281 2,281 2,281 3,281 3,281 3,281 3,281 3,281 3,281 3,281 4,281 4,281 4,281 4,281 5,281 5,281 5,280 6,280 7,280 7,280 7,280 7,280 7,280 7,280 8,280 8,280 8,280 8,280 8,280 8,280 8,280 9,280 9,280 9,280 10,280 10,281 10,281 11,281 11,281 12,281 12,281 12,281 12,282 13,282 13,282 12,282 12,282 12,282 11,283 11,283 11,283 11,283 12,283 12,284 12,284 13,284 13,285 13,285 14,285 14,285 15,285 15,285 15,285 15,286 14,286 14,286 14,287 14,287 14,287 14,287 14,287 15,287 15,287 15,287 16,287 16,287 16,287 17,287 17,287 17,287 17,287 17,286 18,286 18,286 18,286 19,286 19,286 19,286 20,286 20,285 20,285 21,285 21,285 21,285 21,285 21,285 22,285 22,285 22,285 22,285 22,285 23,285 24,285 24,285 24,285 25,284 25,284 25,284 25,284 26,284 26,284 26,284 27,285 28,285 28,285 29,285 29,285 30,285 30,285 30,285 31,286 31,286 31,287 31,287 31,287 32,288 32,288 32,288 32,289 32,289 32,289 33,289 33,289 33,290 33,290 33,290 34,290 34,291 34,291 35,291 35,291 35,292 36,292 36,292 37,292 37,292 37,292 38,292 38,292 39,293 39,293 41,293 43,293 43,293 43,293 43,294 44,294 44,294 44,293 45,293 45,293 45,293 44,292 44,292 44,292 44,292 45,291 45,291 45,291 45,291 45,291 46,291 46,291 46,291 48,291 48,290 49,290 48,290 48,290 50,290 49,289 49,289 49,289 50,289 50,289 50,289 50,289 50,289 50,289 50,289 51,289 51,289 51,289 51,289 51,289 51,289 51,289 51,289 51,289 51,288 51,288 51,288 51,287 51,287 51,287 51,287 51,287 51,287 51,287 51,287 51,286 51,286 51,285 51,285 51,285 51,285 51,285 51,284 50,283 50,283 50,283 50,283 51,283 51,283 51,283 51,282 51,282 51,282 51,282 51,282 51,282 51,281 51,281 50,281 49,278 49,278 48,278 48,278 47,278 47,278 47,277 47,277 47,277 47,277 47,277 47,277 48,276 48,276 48,276 49,276 49,276 49,275 49,275 49,275 49,275 49,275 49,275 49,275 49,275 49,275 50,275 50,275 50,275 50,274 50,274 50,274 50,274 50,274 50,274 50,274 50,273 50,273 50,273 50,273 50,273 50,273 50,272 50,272 50,272 50,272 50,272 50,272 50,272 50,272 50,272 51,272 51,272 51,272 51,271 52,271 52,271 53,271 53,271 54,270 54,270 55,270 55,270 56,270 56,270 56,270 57,270 57,270 58,269 58,269 58,269 59,268 59,268 60,268 60,268 60,267 60,267 60,267 60,267 60,267 61,266 61,266 62,266 62,266 62,266 62,266 63,266 63,266 63,266 63,266 63,265 63,265 63,265 63,265 64,265 64,265 64,265 64,265 64,265 64,265 64,265 65,265 65,265 65,264 65,264 65,264 65,264 66,264 66,264 66,264 66,264 66,264 67,263 67,263 67,263 68,263 68,263 68,263 68,263 68,263 69,263 70,263 70,263 70,263 70,263 70,263 70,263 71,263 71,263 72,263 72,263 72,264 72,264 73,264 73,264 73,264 73,264 73,264 73,264 74,264 74,264 74,264 74,264 75,264 75,264 75,264 75,264 75,264 75,264 76,264 76,264 76,265 76,265 76,265 76,265 77,265 77,265 77,265 78,265 78,265 78,265 78,265 78,265 78,265 78,265 78,265 79,265 79,265 79,265 80,265 80,266 80,266 80,266 80,266 80,266 81,266 81,266 81,266 82,266 82,266 82,266 82,266 82,266 82,266 83,267 83,267 83,267 83,267 83,267 83,267 83,267 84,267 85,268 85,268 85,268 84,268 84,268 84,268 84,269 84,269 84,269 84,269 84,269 84,269 84,269 84,269 85,270 84,270 85,270 85,270 85,270 85,271 85,271 85,271 85,271 85,271 86,271 86,272 86,272 86,272 86,272 86,272 86,272 87,273 87,273 87,273 87,274 88,274 88,274 88,274 88,275 88,275 88,275 89,275 89,275 89,276 89,276 89,276 89,276 89,276 89,276 90,277 90,277 90,277 90,277 90,277 90,277 90,277 90,277 90,277 90,277 90,278 90,278 90,278 90,278 90,278 90,278 90,278 90,278 90,279 91,279 91,279 91,279 93,279 93,278 93,278 94,278 95,278 95,278 95,278 95,278 95,278 95,278 95,278 96,278 96,278 97,277 97,277 97,277 97,277 97,277 97,277 97,277 98,277 98,277 99,277 99,277 99,277 99,277 99,277 99,277 99,277 99,277 99,276 99,276 99,276 99,276 100,276 100,276 100,275 101,275 101,275 101,275 102,276 102,276 102,276 102,276 102,276 103,276 103,276 103,276 103,276 103,276 104,276 105,276 105,277 106,277 106,277 106,277 106,277 107,277 108,277 108,277 108,277 109,277 109,277 109,277 109,277 110,277 110,277 110,277 110,277 111,278 111,278 112,278 112,278 113,277 113,277 113,277 113,276 114,276 114,276 114,276 114,276 114,276 114,275 114,275 115,275 115,275 115,275 115,275 115,275 115,275 116,274 116,274 117,274 117,274 117,274 117,274 118,274 118,273 118,273 117,272 117,272 118,272 118,272 118,271 119,272 119,272 119,272 119,271 120,271 120,271 120,271 120,270 120,270 120,270 120,269 120,269 120,269 121,269 121,269 121,269 122,269 122,269 123,268 124,268 125,268 124,268 124,267 126,267 127,266 126,266 126,265 126,265 127,265 128,264 128,264 127,264 127,264 127,264 127,264 127,264 127,263 126,263 126,263 126,263 126,263 126,263 126,262 126,262 126,262 126,262 126,262 126,262 126,262 126,262 126,262 126,262 126,261 126,261 126,261 126,261 126,261 125,261 125,261 125,261 125,260 125,260 125,260 124,260 124,259 124,259 123,259 123,259 123,259 123,259 123,259 123,259 123,259 123,259 123,259 123,259 123,259 123,258 123,258 123,258 123,258 123,258 123,258 123,258 123,258 123,258 123,258 123,258 123,257 123,257 123,257 123,257 122,257 122,257 122,257 122,257 122,257 122,257 122,257 122,257 121,257 121,257 121,257 121,258 121,258 121,258 121,258 121,258 120,258 120,258 119,258 119,258 119,258 118,258 118,259 118,259 118,259 118,259 118,259 118,259 118,259 117,259 117,259 117,259 117,259 117,258 116,258 116,257 116,257 116,257 115,256 115,256 115,255 115,255 114,254 114,254 114,254 114,254 114,254 114,254 114,254 113,253 113,253 113,253 113,253 113,253 113,253 112,253 112,253 112,253 112,252 112,252 112,252 112,252 111,252 111,251 111,251 111,251 111,251 111,250 111,250 110,249 110,249 110,249 111,248 111,248 112,248 113,248 112,248 112,247 112,247 112,247 112,247 112,247 112,247 112,247 112,246 113,246 114,246 115,245 115,245 115,245 115,245 115,244 116,244 116,244 116,244 116,244 116,243 116,243 116,243 116,243 117,242 117,242 116,242 116,242 116,242 116,242 116,242 116,242 116,242 116,242 116,242 115,242 115,241 115,241 114,241 114,241 114,241 114,241 114,241 114,241 114,241 113,240 113,240 113,240 113,239 113,239 113,239 114,239 114,238 114,238 114,238 114,238 114,238 114,238 114,238 113,238 113,238 113,238 113,238 113,238 113,237 113,237 112,237 112,237 112,237 112,237 112,237 112,237 112,237 112,237 112,237 112,237 112,237 112,237 112,237 112,237 112,237 112,237 112,237 111,237 111,236 111,236 111,236 111,236 111,236 111,236 111,236 111,236 111,236 111,236 111,236 111,236 111,235 111,235 111,235 111,235 111,235 110,235 110,235 110,235 110,235 110,235 110,235 110,235 109,235 109,235 109,235 109,235 109,235 109,235 109,234 109,234 109,234 109,234 108,234 108,234 108,234 108,233 108,233 108,233 108,233 108,232 107,233 107,233 107,233 107,233 107,233 107,233 107,233 106,233 106,233 106,233 106,233 106,233 106,233 106,233 106,232 106,232 106,232 106,232 106,232 106,232 105,232 105,232 105,232 105,232 105,232 106,232 105,231 105,231 105,231 105,231 105,231 104,231 104,232 104,232 104,232 104,232 104,232 104,232 104,231 104,231 104,231 103,231 103,231 103,231 103,231 103,231 103,231 103,231 103,231 102,231 102,231 102,231 102,231 102,231 102,231 102,231 101,231 101,231 101,231 101,231 101,231 100,231 100,231 100,231 99,230 99,230 99,230 99,230 99,230 99,230 99,230 99,230 99,230 99,229 99,229 98,229 98,229 98,229 98,229 98,229 98,229 98,229 98,229 98,229 97,229 97,229 97,229 97,229 97,228 97,228 97,228 97,228 97,228 97,228 97,227 97,227 97,227 98,227 98,227 98,227 98,226 99,226 98,226 98,226 98,226 98,226 97,225 97,225 97,225 97,225 97,225 97,224 97,224 96,224 95,224 95,224 95,223 95,223 95,223 95,223 95,223 95,222 95,222 95,222 94,222 95,222 94,222 95,222 94,221 94,221 94,221 94,220 94,220 95,219 95,219 95,219 95,218 95,218 96,218 96,218 96,218 96,217 96,217 96,217 97,217 96,216 96,216 97,216 97,216 98,216 98,216 98,215 98,215 98,215 98,214 98,214 98,213 98,213 98,212 98,212 98,212 98,211 100,208 100,207 100,207 100,207 100,207 99,207 100,206 99,206 99,206 99,205 99,205 99,205 99,204 99,204 99,204 99,204 98,203 98,203 98,203 99,203 99,202 98,202 98,202 98,201 98,201 98,201 98,201 98,200 98,200 97,200 97,200 97,200 96,200 95,200 95,199 95,199 94,199 94,199 93,199 91,198 91,198 90,197 90,197 89,197 89,197 89,197 89,197 89,197 89,197 88,197 88,197 88,196 88,196 87,196 87,196 87,196 87,196 87,196 86,196 86,196 86,196 86,196 86,196 85,196 85,195 85,195 85,196 85,196 85,196 85,195 85,195 84,195 84,195 84,195 84,195 84,195 84,195 83,195 83,195 83,195 83,195 83,195 83,196 83,196 82,196 82,196 82,196 82,195 82,195 81,195 81,194 81,194 82,194 82,194 82,194 82,194 82,194 82,194 82,193 81,193 81,193 81,193 81,192 81,192 81,192 81,192 82,190 82,190 82,189 82,189 82,189 82,189 82,189 82,189 83,188 83,188 83,188 83,188 83,187 83,187 84,187 84,187 84,187 85,187 85,187 86,188 86,187 87,187 87,187 88,187 88,187 88,186 89,186 89,186 89,186 90,185 90,185 90,185 90,185 90,184 90,184 90,184 91,184 91,184 92,183 92,183 92,183 92,183 92,183 92,183 92,183 92,183 92,183 92,182 92,182 92,182 93,182 93,182 93,182 93,182 93,182 93,182 92,182 92,182 92,182 92,182 92,182 93,182 93,182 93,181 93,181 93,181 93,181 93,181 93,181 93,181 93,181 93,181 93,181 93,181 93,181 93,181 93,180 93,180 93,180 94,180 94,179 94,179 95,179 95,179 95,179 94,179 94,179 94,179 94,179 94,179 94,179 95,179 95,179 95,179 95,178 96,178 96,178 96,178 97,178 97,178 97,178 97,178 98,178 98,178 98,178 98,178 98,178 99,177 99,177 99,177 99,177 99,177 99,176 98,176 98,176 98,176 98,176 97,175 97,175 97,175 97,174 97,174 98,174 98,174 98,174 98,173 99,173 99,173 99,172 99,172 99,172 99,172 99,172 99,172 99,172 99,171 99,171 99,171 99,171 100,171 100,171 100,171 100,170 100,170 100,170 101,170 101,170 101,170 101,170 102,169 102,169 102,169 102,169 103,169 103,169 103,169 104,168 104,168 104,169 104,169 104,169 104,169 104,169 105,169 105,169 105,169 105,169 105,169 106,169 106,169 106,169 106,168 106,168 106,167 106,167 107,167 107,167 107,167 107,166 107,166 107,166 107,166 108,166 108,166 108,166 109,166 109,166 109,166 110,166 110,166 110,166 110,166 110,166 110,166 110,165 110,165 110,165 110,165 110,165 110,165 110,164 110,164 110,164 110,164 110,164 111,165 111,165 111,165 111,165 111,164 111,164 111,164 111,164 110,164 110,164 110,164 110,163 111,163 111,163 111,163 111,163 111,163 110,163 110,163 110,163 110,163 110,163 110,163 110,162 110,162 110,162 111,162 111,162 111,162 111,162 111,162 112,161 112,161 112,161 112,161 112,161 112,160 112,160 112,160 112,160 112,160 113,160 113,160 113,160 113,161 113,161 113,161 113,161 114,160 114,160 114,160 114,160 114,160 114,160 114,160 114,160 114,159 114,159 114,159 114,159 114,159 114,159 114,159 114,159 114,158 114,158 114,158 114,158 114,158 114,158 114,158 114,158 115,158 115,158 115,158 115,157 115,157 115,157 115,157 115,157 115,157 115,157 115,157 115,157 115,156 116,156 116,156 116,156 116,156 116,156 116,155 116,155 116,155 116,155 116,155 117,155 117,155 117,155 118,155 118,155 118,155 118,155 118,154 118,154 117,154 117,154 117,154 117,154 117,154 117,154 117,153 117,153 117,153 117,153 116,153 116,153 116,153 116,153 116,153 116,153 115,153 115,153 115,153 115,153 115,153 115,153 115,152 114,152 114,152 114,152 114,152 114,152 114,153 114,152 114,152 113,152 113,152 113,152 112,152 112,152 112,152 112,152 112,152 112,152 112,152 112,151 112,151 112,151 112,151 112,151 112,151 112,151 111,150 111,150 111,150 111,150 111,150 111,150 111,150 111,150 110,150 110,149 110,149 110,149 110,149 110,149 110,149 110,149 110,149 110,148 110,148 110,148 110,148 109,148 109,147 109,147 109,147 109,147 108,147 108,147 108,147 108,147 108,147 107,147 107,147 107,146 106,146 106,146 106,146 106,146 106,146 106,145 106,145 105,145 105,145 105,145 105,145 104,145 104,145 104,145 104,145 104,145 104,145 104,145 104,145 104,144 104,144 104,144 104,144 103,144 103,144 103,144 103,144 103,144 103,144 103,144 103,144 103,143 103,143 103,143 103,143 103,143 103,143 103,143 103,142 103,142 103,142 103,142 104,142 104,142 104,142 104,142 104,142 104,141 104,141 104,141 104,141 104,140 104,140 105,140 105,140 106,140 106,140 106,140 106,140 107,140 107,140 108,140 108,139 108,139 108,139 108,139 108,138 108,138 108,138 108,138 108,138 108,138 108,138 108,137 108,137 108,137 108,137 108,137 108,137 108,137 107,137 107,137 107,137 107,136 107,136 107,136 106,135 106,135 105,133 105,133 105,133 105,132 105,132 105,132 104,131 104,131 105,131 104,130 104,130 104,130 104,130 105,129 105,129 105,129 105,129 104,128 104,128 104,128 104,128 104,128 103,128 103,128 103,128 103,128 103,128 103,128 103,127 103,127 102,127 102,127 102,127 102,127 102,127 102,127 102,127 102,127 101,127 101,127 101,127 101,127 101,127 101,127 101,127 101,127 100,127 100,127 100,127 100,127 99,127 99,127 98,127 98,127 97,127 97,127 97,126 97,126 97,126 98,126 98,126 98,126 98,126 98,126 99,126 99,125 99,125 98,125 98,125 98,125 99,125 99,125 99,125 99,124 99,124 99,124 99,124 99,123 98,123 98,123 98,123 98,123 98,123 98,122 98,122 98,122 98,122 98,122 99,122 99,121 99,121 99,121 99,121 99,121 99,120 99,120 99,120 99,120 99,120 99,119 98,119 98,119 98,119 98,119 98,119 98,119 98,119 98,118 98,118 98,118 98,118 98,118 97,118 97,118 97,118 97,117 97,117 97,117 97,117 97,117 97,117 98,117 98,117 98,117 98,117 98,117 98,117 98,117 98,117 99,117 99,117 99,117 99,117 99,117 99,117 99,117 99,116 99,116 99,116 100,116 100,116 100,116 100,116 100,116 101,116 101,115 101,115 101,115 101,115 100,114 100,114 100,114 101,114 100,114 101,114 101,114 101,114 101,114 101,114 101,114 101,114 101,114 102,114 102,114 102,114 102,114 102,113 102,113 102,113 102,113 102,113 102,113 102,113 102,113 102,112 102,112 101,112 101,112 101,112 101,112 101,112 101,112 101,112 101,112 101,112 101,112 101,112 101,111 101,111 100,111 100,111 100,111 100,111 100,111 100,111 100,111 100,111 100,111 100,110 100,110 100,110 100,110 100,110 100,110 100,109 101,109 100,109 100,108 100,108 100,107 99,107 99,107 99,107 98,107 98,107 98,107 98,107 98,106 98,106 98,106 99,106 98,106 98,106 98,106 98,105 98,105 97,105 97,104 97,104 97,104 97,103 98,103 98,103 98,103 98,103 98,103 98,103 98,103 98,102 99,103 99,103 99,102 99,102 99,102 98,102 98,102 98,101 98,101 99,101 99,101 99,101 99,101 99,101 100,102 100,101 100,101 100,101 101,101 101,101 101,101 101,101 101,101 102,101 102,101 102,100 102,100 102,100 102,100 102,100 102,100 102,100 102,100 102,99 103,99 103,99 103,99 103,99 103,99 103,99 102,99 102,99 102,99 103,98 103,98 103,98 103,98 104,98 104,98 104,97 104,97 104,97 104,97 104,97 104,97 104,97 104,97 103,97 103,97 103,97 103,96 103,96 103,96 102,96 102,96 102,95 102,95 102,95 102,95 102,95 102,95 102,95 102,95 102,94 102,94 102,94 102,94 102,94 101,94 101,94 101,94 101,94 101,94 101,93 101,93 101,93 101,93 101,92 100,92 99,91 100,91 100,90 100,90 100,90 100,90 100,90 100,90 99,89 100,88 100,88 100,87 100,87 100,86 100,85 100,83 101,83 101,82 101,82 101,81 101,80 100,80 100,79 101,79 101,78 101,77 100,76 100,76 100,75 101,75 101,75 101,75 101,75 101,75 101,75 101,75 101,75 101,75 101,75 101,75 102,75 102,75 102,75 102,74 103,74 103,74 103,74 104,74 104,73 104,73 105,73 105,73 105,72 105,72 106,72 106,72 106,72 107,72 108,71 108,71 108,70 108,70 108,70 108,70 108,69 108,69 108,68 109,69 109,69 109,69 109,68 110,68 110,68 112,68 115,67 116,67 117,67 118,66 118,66 119,65 119,64 119,63 120,63 120,63 121,63 122,63 122,63 124,62 126,61 127,61 128,60 128,59 129,59 129,59 129,58 129,58 130,58 130,58 130,58 131,58 131,58 131,57 132,57 133,56 134,56 135,55 137,54 137,53 138,53 138,52 139,51 140,50 140,50 140,50 140,50 141,50 141,50 141,50 142,50 142,50 142,50 142,50 141,50 141,50 141,49 142,49 142,49 142,49 142,49 142,49 142,49 142,49 142,48 143,48 143,48 143,48 143,48 143,47 143,47 143,47 143,47 143,47 143,47 143,47 144,47 144,47 144,47 144,47 144,47 144,46 144,46 145,46 145,45 146,45 146,45 146,44 146,44 146,44 146,44 146,44 146,44 146,44 146,44 146,44" id="6116" class="canton" fill="steelblue" stroke-width="1" stroke="white" geotype="canton" geoname="Mortagne-au-Perche" code_insee="6116" code_departement="61" nom_departement="Orne" code_region="28" nom_region="Normandie"/></svg>