<?xml version="1.0" encoding="utf-8"?>
<svg version="1.1" id="svgmap" xmlns="http://www.w3.org/2000/svg" xmlns:xlink="http://www.w3.org/1999/xlink" x="0px" y="0px" width="100%" height="100%" viewBox="0 0 500 315">
<polygon points="7,137 7,137 7,137 7,136 7,136 7,136 6,136 6,136 6,136 6,136 5,136 5,136 5,135 5,135 6,135 6,135 7,135 7,135 7,135 8,135 8,135 8,135 8,135 8,134 9,134 9,133 9,133 9,133 10,133 10,133 10,133 10,133 10,133 10,133 10,132 10,132 10,132 10,132 10,132 10,132 11,132 11,132 11,131 11,131 11,131 11,131 11,131 11,131 10,131 10,131 10,131 10,131 10,131 10,131 10,131 10,131 10,131 10,131 10,131 10,130 10,130 10,130 10,130 10,130 10,130 10,130 10,129 10,129 10,129 10,129 10,129 10,129 10,129 10,129 10,129 10,128 10,128 10,128 10,128 10,128 10,128 10,128 10,128 10,128 10,128 10,128 10,128 10,128 10,128 10,128 10,127 10,127 10,127 10,126 10,126 10,126 10,126 10,126 10,125 10,125 10,125 10,125 10,125 10,125 10,124 10,124 10,124 10,124 11,124 11,124 11,124 11,123 11,123 11,123 11,123 11,123 11,123 11,123 11,123 11,123 11,123 11,122 11,122 11,122 11,122 11,122 11,122 11,121 11,121 11,121 11,121 11,121 11,121 11,120 11,120 12,120 11,119 11,119 11,119 11,119 10,120 10,120 10,120 10,120 10,120 10,120 9,119 9,119 9,120 9,120 9,120 9,120 9,119 9,119 8,119 8,119 8,119 8,119 8,119 9,119 9,119 9,119 9,119 9,119 9,118 9,118 9,118 9,118 9,118 10,118 10,118 10,118 10,117 10,117 10,117 10,117 10,117 10,117 11,117 11,117 11,117 12,116 12,116 12,116 12,116 12,116 12,115 12,115 12,115 12,115 12,115 12,115 12,115 12,115 12,115 12,114 12,114 12,114 12,113 12,113 12,113 12,113 12,113 12,112 12,112 11,112 11,113 11,112 11,112 11,112 10,112 10,112 10,112 10,112 9,112 9,111 9,111 9,111 9,111 8,111 7,111 7,111 7,111 7,111 7,111 6,111 6,111 6,110 5,110 5,109 5,109 5,109 5,108 5,108 5,108 5,108 5,108 6,108 6,108 6,108 6,108 6,108 6,108 6,107 6,107 6,107 7,107 7,107 7,107 7,107 8,107 8,107 8,107 8,107 8,107 8,107 8,107 8,107 8,107 8,107 8,106 8,106 8,106 9,106 9,106 9,106 8,106 8,106 8,106 8,106 8,105 9,105 9,105 9,105 9,105 9,104 9,104 9,104 8,104 8,104 8,104 9,103 9,103 8,103 8,103 8,103 8,103 8,102 8,102 8,102 8,102 8,102 8,101 8,101 7,101 7,101 7,100 7,100 8,99 8,99 8,99 9,99 9,98 9,98 10,98 10,98 10,98 10,97 9,97 9,97 9,97 9,97 9,97 9,97 9,97 9,97 10,97 10,97 10,97 10,97 11,97 11,97 11,96 11,96 11,96 12,96 12,96 12,96 12,96 12,96 12,95 12,95 11,95 11,95 11,95 11,95 11,94 11,94 11,94 11,94 11,94 12,93 12,93 12,93 12,93 12,93 13,92 13,92 13,92 14,92 14,92 14,92 14,93 14,93 14,93 14,93 14,93 15,93 15,93 15,93 15,93 16,93 16,93 16,93 17,93 17,94 17,94 17,94 17,94 17,94 18,94 18,94 18,94 19,94 19,94 20,94 20,94 20,93 20,93 21,93 21,93 21,93 21,93 21,93 21,93 21,92 22,92 22,92 22,92 22,92 22,92 22,92 23,91 23,91 23,91 23,91 23,91 23,91 23,91 23,90 23,90 23,90 23,90 23,90 23,89 23,89 23,89 23,89 23,89 23,89 23,89 23,89 23,89 23,89 24,89 24,89 24,89 24,89 24,89 24,89 24,89 24,89 24,89 25,89 25,89 25,89 25,89 25,89 25,89 25,89 25,89 26,89 26,89 26,89 26,89 26,89 27,89 27,89 28,89 28,89 28,89 29,89 29,89 29,89 29,89 29,89 29,89 29,88 29,88 30,88 30,88 30,88 30,88 31,88 31,88 31,88 31,88 31,88 32,88 32,88 32,87 32,87 32,87 32,87 33,86 33,86 33,86 33,86 33,86 33,86 33,85 33,85 35,84 35,84 35,84 35,84 36,84 36,84 36,84 36,83 37,83 37,83 37,83 37,83 37,83 38,83 38,83 38,83 39,83 39,83 39,82 39,82 40,82 40,82 40,82 40,82 40,82 40,81 40,81 40,81 40,81 41,81 41,80 41,80 41,79 41,79 41,79 41,78 42,78 43,78 43,78 43,77 44,77 44,77 44,77 44,77 44,77 44,78 44,78 45,78 45,78 45,78 45,77 45,77 45,77 46,76 49,76 49,76 49,76 49,76 49,75 49,75 50,75 50,75 50,75 51,75 51,75 51,75 51,75 51,75 52,75 52,75 52,75 51,75 51,74 51,74 52,73 52,72 52,71 52,71 52,71 52,70 52,70 52,70 51,69 51,69 51,69 50,68 49,68 48,67 48,67 48,67 47,67 47,67 47,66 47,66 47,66 46,66 45,65 45,65 45,64 45,64 44,64 44,64 44,63 44,63 44,63 44,63 44,63 44,63 44,63 43,63 43,63 43,63 43,63 42,63 42,63 42,63 41,63 41,63 41,63 41,63 41,63 41,63 41,63 40,63 40,63 40,63 40,63 40,63 40,63 39,63 39,62 38,62 38,62 38,62 37,62 37,62 37,62 37,62 37,62 37,62 37,62 37,62 37,62 37,62 37,62 37,62 37,62 37,63 37,63 37,63 37,63 37,63 37,63 37,63 36,63 36,63 36,63 36,63 36,63 36,63 36,63 36,63 36,63 36,63 36,63 36,63 36,63 36,63 36,63 36,63 36,63 36,63 36,63 36,63 36,63 36,63 36,63 36,63 36,63 36,63 36,63 36,63 35,63 35,64 35,64 35,64 35,64 35,64 35,64 35,64 35,64 35,64 35,64 34,64 34,64 34,64 34,64 34,64 34,64 34,64 34,64 34,64 34,64 34,64 34,64 34,64 33,64 33,64 33,64 33,64 33,64 33,64 33,64 34,64 33,65 33,65 33,65 33,65 33,65 33,65 33,65 33,65 33,65 33,65 32,65 32,65 32,65 32,65 32,65 32,65 32,65 32,65 32,65 32,65 32,65 32,65 32,65 32,65 32,65 32,65 32,65 32,65 32,65 31,65 31,65 31,65 31,65 31,65 31,65 31,65 31,65 31,65 31,65 31,65 30,65 30,65 30,65 30,65 30,65 30,65 30,66 30,66 30,66 30,65 30,65 29,65 29,65 29,65 29,65 29,66 29,66 29,66 29,66 29,66 29,66 29,66 27,65 27,65 27,65 27,65 26,65 26,65 26,65 26,65 26,65 26,65 26,65 26,65 26,65 26,65 26,65 25,65 25,65 25,65 25,65 25,65 25,65 25,65 25,65 24,65 24,65 24,65 24,65 24,64 23,64 22,64 22,64 22,63 21,62 20,62 20,62 20,61 20,61 20,61 20,61 19,61 19,61 19,61 18,60 18,60 18,60 18,60 17,59 17,59 17,59 17,59 17,59 17,58 17,58 17,58 17,58 17,58 17,57 17,57 16,56 16,56 16,55 16,55 16,55 16,55 16,55 16,55 16,55 16,54 16,54 15,53 15,53 15,53 15,53 15,53 15,53 17,52 18,51 18,51 19,51 20,50 20,49 21,48 21,48 21,48 22,48 22,48 22,48 22,48 22,47 22,46 22,45 22,45 23,44 23,44 23,44 23,43 24,43 24,43 24,42 24,42 24,42 24,41 25,40 25,40 25,39 25,39 26,37 26,37 26,36 26,36 27,36 27,34 28,34 28,34 28,33 28,33 28,33 28,32 28,32 28,32 28,31 28,31 28,31 28,31 28,31 28,30 29,30 29,29 30,29 30,29 31,28 31,28 32,27 32,27 32,27 32,27 32,27 33,26 33,26 33,26 34,25 35,25 35,25 35,25 36,24 36,24 36,24 37,24 37,24 37,24 37,25 37,25 37,25 38,25 40,26 40,26 40,26 41,27 41,27 41,27 42,27 42,27 42,27 42,27 42,28 43,28 43,28 43,29 43,28 44,27 44,27 44,27 45,27 45,27 45,27 46,27 47,26 47,26 47,27 47,27 47,27 47,26 47,26 48,26 48,26 50,26 50,26 51,25 51,25 52,25 52,24 53,24 53,24 53,24 53,23 54,23 54,23 55,22 56,22 56,21 57,21 57,21 58,21 58,21 58,21 59,20 59,20 60,20 61,20 61,19 61,19 62,19 62,19 62,19 62,18 62,18 63,18 63,18 63,18 63,18 63,18 63,18 63,17 64,16 66,15 66,15 67,14 67,14 67,14 67,14 67,14 67,14 67,14 67,14 67,15 68,15 68,15 68,15 68,15 68,15 68,15 68,15 69,15 69,15 69,15 69,16 69,16 69,16 70,16 70,16 70,16 70,16 70,16 70,16 70,16 70,16 70,16 70,16 70,16 71,16 71,17 71,17 71,17 71,17 71,17 72,17 72,17 72,17 72,16 72,16 72,16 72,16 72,16 72,16 72,16 73,16 73,16 73,16 73,16 73,16 73,16 73,16 73,16 73,16 73,16 74,16 74,16 74,17 74,17 75,17 75,17 75,17 75,17 76,17 76,17 76,18 76,18 76,18 76,17 78,17 78,17 79,17 79,17 79,17 80,17 80,17 81,17 81,17 81,17 81,17 81,16 81,16 81,16 81,16 82,16 82,16 82,16 82,16 82,16 82,16 83,16 83,16 83,16 83,16 84,16 84,16 85,16 85,16 85,16 85,16 86,16 86,16 86,16 87,16 87,16 87,16 87,16 87,16 87,16 88,16 88,16 88,16 88,16 88,16 88,16 88,16 88,16 88,16 89,16 89,16 89,16 89,16 89,16 90,15 90,15 90,15 90,15 91,15 92,15 92,15 93,15 93,15 93,15 94,15 94,15 94,15 94,15 94,15 94,15 94,15 95,14 95,14 95,14 96,14 97,14 98,13 99,13 99,13 99,13 99,13 99,13 99,13 99,13 99,13 99,13 99,13 99,13 100,13 100,13 100,13 100,13 100,13 100,13 101,13 101,13 101,13 101,13 101,13 101,13 101,12 101,13 101,13 102,13 102,13 102,12 102,12 102,12 103,12 103,12 103,12 104,12 104,12 105,12 105,12 105,12 105,12 105,12 105,12 106,12 106,11 106,11 106,11 106,11 106,11 106,11 106,11 106,11 106,11 106,10 106,10 106,10 106,10 106,10 106,10 107,10 107,9 107,9 107,9 107,9 107,9 107,9 107,9 107,9 107,9 107,9 107,9 107,9 107,9 107,9 107,9 107,9 107,9 107,9 107,8 107,8 107,8 107,8 108,8 108,8 108,8 108,8 109,8 109,8 109,8 109,8 109,8 109,8 109,8 110,7 110,7 110,7 110,7 110,7 111,7 111,7 111,7 111,7 111,7 111,7 111,7 111,7 111,6 111,6 112,6 112,6 112,6 112,6 113,6 113,6 113,6 113,6 113,6 114,6 114,6 115,5 115,5 116,5 116,4 116,4 117,4 117,4 117,4 117,4 117,4 117,4 117,4 117,4 117,4 117,4 118,4 118,4 118,4 118,4 118,4 118,4 118,4 118,4 118,4 118,4 119,4 119,4 119,4 119,4 119,4 119,4 120,4 120,4 120,4 120,4 121,4 121,3 121,3 122,3 122,3 122,3 122,3 122,2 122,2 122,2 122,2 122,2 122,2 122,2 122,2 122,2 122,2 123,2 124,2 124,2 124,2 124,2 125,2 127,2 128,2 129,2 130,2 131,2 131,2 131,2 132,2 132,2 133,2 133,2 134,2 135,3 135,3 136,3 136,3 137,2 137,2 139,2 139,1 140,1 140,1 141,1 142,1 143,1 144,1 144,1 145,1 148,0 148,0 150,0 151,0 152,0 152,0 153,1 153,1 153,1 156,2 158,2 158,2 158,2 160,3 163,4 166,4 166,4 166,4 168,7 168,7 168,7 168,7 168,7 169,8 171,8 172,8 174,8 174,9 175,9 176,9 176,9 177,8 178,8 179,8 179,8 180,8 180,9 180,8 180,8 180,8 181,8 181,8 181,8 181,8 182,8 182,8 183,8 184,8 184,8 185,9 185,8 186,8 186,8 187,8 188,8 188,8 189,8 189,8 189,8 190,8 190,8 191,8 192,8 192,8 192,6 194,5 196,5 197,4 197,4 197,4 197,4 197,4 198,4 198,4 198,4 198,4 198,5 198,5 198,5 198,5 198,5 199,5 199,5 199,5 199,5 200,6 200,6 200,6 200,6 200,7 200,7 200,7 200,7 200,7 201,7 201,7 201,7 201,8 201,8 201,8 201,8 201,8 201,8 201,8 201,8 201,8 201,8 201,8 202,8 202,9 202,9 202,9 202,9 202,9 202,9 202,9 202,9 202,9 202,9 203,9 203,9 203,9 204,9 204,9 204,9 204,9 204,9 204,9 204,9 204,9 205,9 205,9 205,9 205,10 205,10 205,10 205,10 205,10 205,10 206,10 206,10 206,10 206,10 206,10 206,10 206,10 206,10 207,10 207,11 207,11 207,11 207,11 207,11 207,11 207,11 207,11 208,11 208,11 208,11 208,11 208,11 209,11 209,11 209,11 209,11 209,11 210,11 211,11 211,11 212,12 214,13 214,13 214,14 214,14 215,14 215,15 216,15 216,15 216,15 216,16 216,16 216,16 216,16 216,16 216,16 217,16 217,16 218,16 218,16 218,16 220,17 220,17 220,17 220,17 220,17 221,17 221,17 221,18 221,18 221,17 222,17 222,18 222,18 223,18 223,18 223,18 223,18 223,18 223,18 223,19 223,19 223,19 223,19 223,19 223,19 223,19 223,20 223,20 224,20 224,20 224,20 224,20 224,20 224,20 224,20 224,20 224,20 224,21 224,21 224,21 224,21 224,21 224,21 224,21 224,22 224,22 224,22 224,22 224,22 224,23 224,23 225,23 225,23 225,23 225,23 225,24 226,24 226,24 226,24 226,25 226,25 226,25 226,25 226,25 226,25 226,25 226,25 226,25 226,25 226,26 226,26 226,26 226,26 226,26 226,26 226,26 226,26 226,26 226,26 226,26 226,26 226,26 226,26 226,27 226,27 226,27 226,27 226,27 225,27 225,27 226,27 225,27 225,27 225,27 225,28 225,28 225,28 225,28 225,28 225,28 225,28 225,28 225,28 225,28 225,28 225,28 225,29 225,29 225,29 225,29 225,29 225,30 225,30 225,30 225,30 225,30 226,31 226,31 226,31 226,31 226,31 226,31 226,31 226,32 226,32 226,32 226,32 226,32 227,32 227,32 227,32 227,32 227,32 227,32 227,32 227,32 227,32 227,32 227,33 228,33 228,33 228,33 228,33 228,33 228,33 228,33 228,33 229,33 229,33 229,33 229,33 230,33 230,33 230,33 230,33 231,33 231,33 231,33 231,33 231,33 231,33 231,33 231,33 231,33 232,33 232,33 232,33 232,33 232,33 232,33 232,33 233,33 233,33 233,33 233,33 233,33 233,33 234,33 234,33 234,33 234,33 234,33 234,33 235,33 235,33 235,32 236,32 236,32 236,32 236,32 236,32 237,32 237,32 237,32 237,32 237,32 238,32 238,32 238,32 238,32 239,32 239,32 239,32 239,32 239,32 240,32 240,32 240,32 241,32 241,32 241,32 241,32 241,32 241,32 242,32 242,32 243,32 243,32 244,32 244,32 245,32 245,32 245,32 245,31 246,31 247,31 247,31 247,31 248,31 249,31 249,31 250,31 250,31 251,31 251,32 251,32 251,32 251,32 252,32 252,32 252,32 252,32 253,32 253,32 254,32 254,32 256,32 256,32 256,32 256,32 256,32 256,33 256,33 256,33 256,33 257,33 257,33 258,33 258,33 258,34 258,34 258,34 258,34 259,34 259,34 259,34 259,34 259,35 260,36 260,36 261,36 261,36 261,35 261,35 262,35 262,35 262,36 262,36 262,35 262,36 263,36 263,36 263,36 264,35 264,35 265,35 265,35 266,36 266,36 266,36 266,36 267,36 267,36 267,36 268,36 268,36 268,36 273,35 274,35 275,35 277,35 280,35 280,35 281,35 283,35 285,35 288,37 288,37 289,38 289,38 292,40 296,41 305,42 309,45 309,48 310,48 310,50 310,51 310,55 310,55 312,73 307,75 307,75 306,75 306,75 305,75 305,75 304,75 304,75 304,76 304,76 303,76 303,76 303,76 303,76 302,77 302,77 302,77 301,77 300,77 300,77 300,77 300,77 300,77 300,78 298,78 297,78 297,78 297,79 296,79 296,79 295,79 295,79 295,79 294,80 294,80 294,80 294,80 293,80 293,80 293,80 293,80 292,80 291,80 291,80 291,80 291,80 290,80 290,80 290,81 290,81 290,81 289,81 289,81 289,81 289,81 289,82 289,82 288,82 288,82 288,83 288,83 288,83 287,83 287,84 286,84 286,84 286,84 285,84 285,84 284,85 283,85 283,85 283,85 283,85 282,85 282,86 282,86 282,86 282,86 281,86 281,86 281,86 281,86 281,86 281,86 281,86 281,87 281,87 281,87 281,87 281,87 280,87 280,87 280,87 280,88 280,88 280,88 279,88 279,88 279,88 279,88 278,88 278,88 278,89 278,89 277,89 277,89 277,89 276,90 276,90 276,90 276,90 276,90 276,90 276,90 276,90 276,90 276,90 276,90 275,90 275,90 275,90 275,91 275,91 275,91 275,91 275,91 275,91 275,91 275,91 274,91 274,91 274,91 274,91 274,91 273,91 273,91 273,91 273,91 272,91 272,91 272,90 272,90 271,91 271,91 271,91 271,91 270,91 270,91 270,91 269,91 269,91 269,91 269,91 268,91 268,91 268,92 268,92 268,92 267,92 267,92 267,92 266,93 266,93 266,93 266,93 266,93 265,93 265,93 265,93 265,93 264,93 264,94 265,94 264,94 264,94 264,94 264,94 264,94 264,94 264,94 264,94 264,94 263,94 263,94 263,94 263,94 262,94 262,95 262,95 261,95 261,95 261,95 261,95 261,95 261,95 261,95 261,95 261,96 261,96 261,97 261,97 260,97 260,97 260,97 260,98 260,98 260,98 260,99 260,99 260,99 260,99 260,99 260,99 259,99 259,100 259,100 259,100 259,100 258,100 258,100 258,100 258,100 258,100 258,100 257,100 257,100 256,100 256,100 255,100 255,100 255,101 255,101 255,101 255,101 255,101 254,101 254,101 254,101 254,101 254,101 254,101 254,101 254,101 254,101 254,101 254,102 254,102 253,102 253,102 253,102 253,102 253,102 253,102 253,103 253,103 253,103 253,103 253,103 253,103 253,103 253,103 253,103 252,104 252,104 252,104 252,104 252,104 252,104 252,104 251,104 251,105 251,105 251,105 250,105 250,105 250,105 250,106 250,106 250,106 250,106 250,106 250,106 251,106 251,106 251,107 251,107 251,107 251,107 250,108 250,108 250,108 250,108 250,108 250,109 250,109 250,109 250,109 250,109 250,110 250,110 250,110 250,110 250,110 250,110 250,111 250,111 250,111 250,112 250,112 250,113 250,114 250,114 250,114 249,114 249,115 249,115 249,116 249,117 249,117 249,117 249,117 249,118 249,118 249,118 249,118 249,118 249,118 249,118 247,118 247,118 247,118 247,119 247,119 247,119 247,119 247,119 247,120 246,120 246,120 246,120 245,120 244,121 244,121 243,121 243,121 242,122 242,122 242,122 241,122 240,122 240,122 240,122 239,122 240,123 239,123 239,123 239,123 238,123 238,123 238,123 238,123 238,123 238,123 238,123 238,124 238,124 238,124 238,125 238,125 237,126 237,126 237,126 236,126 236,127 235,127 235,127 235,127 235,128 234,128 234,128 234,128 233,129 233,129 233,129 232,129 232,129 231,129 231,130 231,130 231,130 230,130 230,131 230,131 230,131 229,131 229,132 229,132 229,132 228,133 228,133 228,133 228,133 228,134 228,134 228,134 228,134 228,135 228,135 228,135 228,136 228,136 228,136 228,137 228,137 228,137 229,137 229,138 229,138 229,138 229,138 229,138 229,138 229,141 229,141 229,141 230,141 230,141 230,141 235,141 237,140 237,140 238,140 239,140 254,142 257,143 257,143 257,143 258,143 258,143 259,144 261,147 262,148 262,148 261,151 261,151 261,151 262,151 262,151 262,151 263,152 263,152 263,152 264,152 264,152 264,152 265,152 265,152 266,152 266,153 266,153 267,153 267,153 267,153 267,153 268,153 268,153 269,153 270,153 270,153 271,153 271,153 271,153 271,153 272,153 272,153 272,153 273,153 273,153 274,152 274,152 274,152 274,152 274,152 274,152 275,152 275,152 275,152 276,152 276,152 276,152 276,153 276,153 276,153 276,154 276,154 276,154 276,154 277,154 278,154 278,154 279,154 279,154 280,154 280,154 284,154 284,154 285,154 286,154 287,154 287,154 288,154 289,155 289,155 289,155 291,155 292,155 295,155 296,155 296,155 298,155 298,155 299,156 300,156 300,156 300,156 300,156 299,155 299,155 299,155 299,155 299,155 299,155 299,155 299,155 300,155 300,155 300,155 301,155 301,155 302,155 302,156 302,156 303,155 304,155 304,155 305,155 305,155 305,155 304,154 304,153 304,153 304,152 304,151 304,151 304,150 305,150 305,150 305,150 305,150 306,149 306,149 306,149 307,149 307,149 307,149 308,149 308,148 308,148 309,148 310,147 310,147 311,147 311,147 311,147 311,147 312,147 312,147 312,147 312,147 312,148 312,148 312,148 312,148 312,149 312,149 312,149 312,149 312,149 313,150 313,150 313,150 313,151 313,151 313,151 313,151 314,151 314,151 314,151 315,151 315,151 315,152 316,152 316,152 316,152 317,152 317,152 317,151 317,151 317,151 317,151 318,151 318,151 318,151 318,150 319,150 320,150 320,150 321,149 322,149 322,149 324,148 324,148 324,148 324,148 325,148 325,148 325,148 326,148 326,148 329,148 329,147 330,147 332,147 333,147 333,147 333,147 333,147 334,147 335,147 337,147 338,147 338,147 342,146 342,146 343,146 343,146 344,146 344,146 344,146 345,146 346,146 347,146 348,146 349,146 349,146 349,146 349,146 350,146 350,146 350,146 350,146 350,145 350,145 350,145 350,144 350,144 350,144 350,144 350,144 350,144 350,144 350,143 351,143 351,143 351,143 351,143 351,143 352,142 353,141 353,141 353,141 355,139 355,139 355,139 355,139 356,138 356,138 357,137 357,137 357,137 358,137 358,137 358,136 359,135 359,135 359,135 359,135 360,134 360,134 360,134 360,134 361,134 361,134 361,134 361,134 361,133 361,133 362,133 362,133 362,133 362,132 362,132 363,132 363,132 363,132 363,132 363,132 363,131 363,131 363,131 364,131 364,131 364,131 365,130 365,130 366,128 367,127 367,127 368,126 368,126 369,125 369,125 369,125 369,125 369,124 370,123 370,123 370,123 370,123 370,120 370,120 370,120 370,120 370,119 370,119 370,118 370,118 370,118 370,118 371,118 372,118 373,118 373,117 373,117 373,117 376,117 377,117 377,117 379,117 379,116 380,116 382,116 383,115 384,115 384,115 387,114 389,114 390,114 390,114 390,114 393,113 393,113 397,113 397,113 399,113 400,113 400,113 403,113 403,113 404,113 405,113 407,113 409,114 409,114 410,114 411,114 411,114 412,114 413,114 414,114 414,114 414,114 414,114 415,113 415,113 415,113 415,112 416,112 416,112 416,112 416,112 416,111 416,111 416,111 416,110 416,110 416,110 416,110 416,110 416,109 416,109 416,109 416,109 416,109 416,109 416,109 416,109 416,108 416,108 417,107 418,107 418,106 418,105 418,105 419,104 420,103 420,102 420,102 421,101 421,101 421,101 421,101 423,100 423,99 424,99 424,98 425,98 425,97 425,97 426,97 426,97 426,97 426,96 427,96 427,97 427,97 426,97 426,97 426,97 426,97 426,97 427,97 427,97 427,97 427,97 427,98 428,98 428,98 428,98 428,98 428,98 428,98 428,98 428,98 428,98 429,98 429,98 429,98 429,98 429,98 430,98 430,98 430,99 430,99 430,99 430,99 431,99 431,99 431,99 431,99 431,99 431,99 431,99 431,99 431,99 432,99 432,99 432,100 432,100 432,100 432,100 432,100 432,100 432,100 432,100 432,100 432,101 432,101 432,101 432,101 432,100 432,100 432,100 433,100 433,101 433,101 433,101 433,101 433,101 433,101 433,101 433,101 433,101 433,102 433,102 433,102 433,102 434,101 434,101 434,101 434,101 434,102 434,102 434,102 434,102 435,102 435,102 435,102 435,102 435,102 435,102 435,102 435,102 435,102 435,102 435,102 436,102 436,102 436,103 436,103 436,103 436,103 436,103 436,103 436,104 436,104 436,104 436,104 436,104 437,104 437,105 437,105 437,105 437,105 438,105 438,105 438,105 438,105 438,105 438,105 438,105 438,105 438,105 439,105 439,105 439,105 439,105 439,105 439,105 440,105 440,105 440,105 441,105 441,105 441,105 441,105 441,105 441,106 441,106 441,106 441,106 442,106 442,106 442,106 442,106 443,106 443,106 443,106 443,106 442,107 442,107 442,107 443,108 443,108 443,108 443,108 443,108 444,108 444,108 444,108 445,109 445,109 445,109 445,109 445,109 446,109 446,109 446,109 446,109 446,110 446,110 447,110 447,110 447,111 447,111 447,111 447,111 447,111 447,111 447,111 447,111 447,111 447,111 447,112 447,112 447,112 447,112 447,112 447,112 447,112 447,112 447,112 447,112 447,112 447,112 448,113 448,113 448,113 447,113 447,113 447,113 448,113 448,113 448,113 447,113 447,113 447,114 448,114 448,114 448,114 447,114 447,114 447,114 447,114 447,114 447,114 447,115 447,115 447,115 447,115 448,115 447,115 447,115 447,115 447,115 447,115 447,115 447,115 447,115 447,115 447,116 447,116 447,116 447,116 447,116 447,116 447,116 447,116 446,116 446,116 446,116 446,116 446,116 446,116 446,116 446,116 446,116 446,117 446,117 446,117 446,117 446,117 446,117 446,117 446,117 446,117 446,117 446,117 445,117 445,117 445,117 445,117 445,117 445,117 445,118 445,118 445,118 445,118 445,118 445,118 445,118 445,118 445,118 445,118 445,118 444,118 444,118 444,118 444,118 444,118 444,118 444,118 444,118 444,118 443,119 443,119 443,119 443,119 443,119 443,119 443,119 443,119 443,119 443,119 443,119 443,119 443,119 443,119 442,119 442,119 442,119 442,120 443,120 443,120 443,120 442,120 442,120 442,120 443,120 443,120 443,120 442,120 442,120 442,120 442,120 443,120 443,120 443,120 442,120 442,121 442,121 442,121 442,121 442,121 442,121 442,121 442,121 442,121 442,121 442,122 442,122 442,122 442,122 442,122 442,122 442,122 442,122 442,122 442,122 441,122 441,123 441,123 441,123 441,123 441,123 441,123 441,123 441,123 441,123 441,123 440,124 440,124 440,124 440,124 440,124 440,124 440,124 440,124 440,124 440,124 439,124 439,124 439,124 439,124 439,124 439,124 439,124 439,124 439,124 439,124 439,124 439,124 439,125 439,125 439,125 439,125 439,125 439,125 439,125 439,125 439,125 439,125 439,125 439,125 439,126 439,126 439,125 438,125 438,125 438,125 438,126 438,126 438,126 438,126 438,126 437,126 437,126 437,127 437,127 437,127 437,127 437,127 437,127 437,127 437,127 436,127 436,127 437,127 437,127 436,127 436,127 436,127 436,127 436,127 436,127 436,127 436,128 436,128 436,128 436,128 436,128 436,129 435,129 435,129 435,129 435,129 435,129 435,129 434,129 434,129 434,129 435,129 435,129 435,130 435,130 434,130 434,130 434,130 434,130 434,130 434,130 433,130 433,131 433,131 433,131 433,131 433,131 433,131 433,131 433,131 433,131 432,131 432,131 432,131 432,131 432,132 431,132 431,132 431,132 431,132 431,132 431,133 430,133 430,133 430,133 430,133 430,132 430,132 430,132 430,132 429,133 429,133 429,133 429,133 429,133 429,133 429,133 429,133 429,133 429,133 429,133 429,133 429,133 429,133 428,133 428,133 428,134 428,134 428,134 428,134 428,134 427,134 427,134 427,134 427,134 427,134 427,134 427,134 426,134 426,135 426,135 426,135 426,135 426,135 425,135 425,135 425,135 425,135 425,135 425,135 425,135 424,135 424,135 424,135 424,135 424,135 424,135 424,135 423,135 423,135 423,135 423,135 423,135 423,135 423,135 423,135 422,135 422,135 422,135 422,135 422,136 421,136 421,136 421,136 421,136 421,136 421,136 421,136 421,136 420,136 420,136 420,136 420,136 420,136 420,136 420,136 420,136 419,136 419,136 419,136 419,136 419,136 419,136 419,136 419,136 419,136 418,136 418,136 418,136 418,136 417,137 417,137 417,137 417,137 417,137 417,137 416,137 416,137 416,137 416,137 416,137 416,137 416,137 416,137 416,137 416,137 416,137 416,137 416,137 415,137 415,137 415,137 415,137 415,137 415,137 415,137 415,137 414,137 414,137 414,137 414,138 414,138 414,138 414,138 414,138 414,138 414,138 414,138 414,138 414,139 414,139 414,139 414,139 414,139 414,139 413,139 413,140 413,140 413,140 413,140 413,140 413,140 413,140 413,140 412,140 412,140 412,140 412,140 412,140 412,140 412,140 412,140 411,140 411,140 411,140 411,140 411,140 411,140 411,140 411,140 411,140 411,140 411,140 411,140 411,140 411,140 410,140 410,140 410,140 410,140 410,140 410,140 410,141 410,141 410,141 410,141 409,141 409,141 409,141 409,141 409,141 409,141 409,141 409,141 409,141 409,142 409,142 409,142 409,142 409,142 408,142 409,142 408,143 408,143 408,143 408,143 408,143 408,143 408,143 408,143 408,143 407,144 407,144 407,144 407,144 407,144 407,144 407,144 407,144 407,144 407,144 407,144 407,144 407,144 407,144 407,144 407,144 407,144 407,144 407,144 407,144 407,144 406,144 406,145 406,145 406,145 406,145 407,145 407,145 407,145 407,145 407,145 407,145 407,145 407,145 407,145 407,145 407,145 407,145 407,145 406,146 406,146 406,146 406,146 406,146 406,146 406,146 406,146 406,146 406,146 406,146 406,146 406,146 405,146 405,146 405,146 405,146 404,146 404,146 404,146 404,146 404,146 403,146 403,146 403,146 403,146 403,146 403,146 403,146 403,146 403,146 403,146 403,147 402,147 402,147 402,147 402,147 402,147 402,147 402,147 402,147 402,147 402,147 402,147 401,147 401,147 401,147 400,147 400,147 400,147 400,147 400,147 400,147 400,147 400,147 400,147 400,147 400,147 400,147 399,147 399,147 399,147 399,147 399,147 399,147 399,147 399,147 398,147 398,147 398,147 398,147 398,147 398,147 398,147 397,147 397,147 397,147 397,147 397,147 397,147 397,147 396,147 396,147 396,147 396,147 395,148 395,148 395,148 394,148 394,148 394,148 394,148 394,148 394,148 393,148 393,148 393,148 393,148 392,147 392,147 392,147 392,147 392,147 392,147 392,148 392,148 392,148 391,147 391,147 391,147 391,147 391,148 391,148 391,148 391,148 391,148 391,148 390,148 390,148 389,148 389,148 389,148 389,148 388,149 388,149 388,149 388,149 388,149 387,149 387,149 387,148 387,148 387,149 387,149 387,149 387,149 387,149 387,149 387,149 387,149 387,149 387,150 386,150 386,150 386,150 386,150 386,150 386,150 386,150 386,150 386,150 385,150 385,151 385,151 385,151 385,151 385,151 385,151 385,151 385,151 385,151 384,152 384,152 384,152 384,152 384,152 383,152 382,153 382,153 382,153 381,153 381,154 381,154 380,154 380,154 380,154 380,154 380,154 380,154 380,154 380,154 379,154 379,154 379,154 379,154 379,154 379,155 379,155 379,155 378,155 378,155 378,155 378,155 378,155 378,155 378,155 378,155 377,155 377,155 377,155 377,155 376,156 376,156 375,156 375,156 374,156 374,157 374,157 374,157 374,157 374,157 374,157 374,157 374,157 374,157 372,158 372,158 371,159 371,161 370,161 370,162 371,162 371,162 369,164 369,164 369,164 369,164 368,165 368,165 368,165 368,165 368,165 367,165 367,165 367,164 367,164 367,164 367,164 367,164 366,164 366,164 366,164 366,164 366,164 365,165 364,165 364,165 364,165 363,165 363,166 362,166 361,166 361,167 361,167 360,167 359,167 359,167 359,167 359,168 358,168 358,168 357,169 357,169 357,169 357,169 357,169 356,169 356,170 355,170 355,170 355,171 355,171 354,171 354,171 354,171 354,171 354,171 354,171 354,172 354,172 354,172 354,172 353,172 353,172 353,172 353,172 352,172 352,173 352,173 352,173 352,173 352,173 352,173 353,174 353,174 353,174 353,174 353,174 353,174 354,174 354,174 354,175 354,175 355,175 355,175 355,175 355,175 355,175 356,175 356,175 356,175 356,175 356,175 357,175 357,175 357,175 357,176 357,176 357,176 358,176 358,176 358,176 358,176 359,176 359,176 359,176 359,176 360,176 360,176 360,176 360,176 360,176 361,176 361,176 361,176 361,176 362,176 362,176 362,177 362,177 362,177 363,176 363,176 363,177 364,177 364,177 364,177 364,177 365,177 365,177 365,177 365,177 365,178 365,178 365,178 366,178 367,178 367,179 367,179 367,179 367,179 367,179 367,179 367,179 367,179 367,179 367,179 367,179 368,179 368,179 368,179 368,179 368,179 368,179 369,179 369,179 369,179 369,179 369,179 369,179 369,179 369,179 369,179 369,179 370,179 370,179 370,179 370,179 370,179 370,179 370,180 371,180 371,180 371,181 371,181 371,181 371,181 371,181 371,181 371,182 371,182 371,182 372,182 372,182 372,182 372,182 372,182 372,182 372,182 372,182 372,182 373,182 373,182 373,182 373,182 373,182 374,182 374,182 374,182 374,182 374,182 374,182 374,182 374,182 374,182 374,182 375,182 375,183 375,183 375,183 375,183 376,182 376,182 376,182 376,182 376,182 377,182 377,182 377,181 377,181 378,182 378,182 378,182 378,182 378,182 378,182 378,182 378,182 379,182 379,182 379,182 379,182 379,183 380,183 380,183 380,183 380,183 380,182 380,182 380,182 381,182 381,181 381,181 381,181 381,181 382,181 383,181 383,181 383,181 383,181 383,181 383,180 383,180 384,180 384,180 384,180 384,180 384,180 385,179 385,179 385,179 386,179 386,179 386,179 386,179 387,178 387,178 387,178 387,178 387,178 388,178 388,178 388,178 389,178 389,178 391,177 391,177 392,177 392,177 392,178 392,178 392,178 392,178 392,177 393,177 393,177 393,177 394,177 394,177 394,177 394,177 395,177 395,177 395,177 396,177 397,177 398,177 398,177 398,177 398,178 398,178 399,178 399,178 399,178 399,178 400,178 400,178 400,178 400,179 401,179 401,179 401,179 401,179 401,179 401,179 403,179 404,179 404,179 404,179 404,179 404,179 409,179 409,179 411,179 417,179 423,179 423,179 423,179 425,173 425,173 425,172 425,172 425,172 425,172 425,172 425,171 426,171 426,171 426,171 426,171 426,170 426,170 426,170 426,170 426,170 426,170 426,170 426,170 426,170 427,170 427,170 427,169 427,168 428,167 428,166 428,166 428,166 428,166 428,166 428,166 428,165 428,165 428,165 428,165 428,165 428,165 428,165 428,165 428,165 429,165 429,165 429,165 429,165 430,165 431,165 432,165 433,165 433,165 434,165 436,166 437,166 437,166 437,166 437,166 438,166 438,167 438,167 439,167 439,167 440,167 441,167 442,167 442,167 442,167 443,167 443,167 445,167 446,166 446,166 447,166 447,166 448,166 448,166 449,166 450,166 450,166 450,166 451,167 451,167 451,167 451,167 451,167 451,167 451,167 451,167 451,167 452,167 452,167 452,167 452,167 452,166 452,166 452,166 452,166 452,166 452,166 453,166 453,166 453,166 453,166 453,166 453,166 453,165 453,165 453,165 453,165 453,165 454,165 454,165 454,165 454,165 454,165 454,165 454,165 454,164 454,164 454,164 454,164 454,164 454,164 454,164 454,163 454,163 455,163 456,162 456,162 456,162 456,162 456,162 456,162 457,162 457,162 457,162 457,161 457,161 457,161 457,161 458,161 458,161 458,161 458,161 458,161 458,160 458,160 458,160 459,160 459,160 459,160 459,160 459,160 460,159 460,159 460,159 460,159 460,159 460,159 460,159 460,159 460,159 460,158 460,158 460,158 460,158 460,158 460,158 460,158 460,158 460,158 461,158 461,158 462,158 462,158 462,158 463,158 463,158 463,158 464,158 464,158 464,158 464,157 464,157 464,157 464,157 464,157 464,157 464,157 464,157 465,157 465,157 465,157 465,157 465,157 466,157 466,157 467,156 467,156 467,156 467,156 468,156 468,156 468,156 468,156 469,155 469,155 469,155 469,155 469,155 470,155 470,156 470,156 470,156 470,156 470,156 470,156 471,157 471,157 471,157 471,157 472,156 472,156 472,156 472,155 473,153 473,152 473,152 474,152 474,152 474,152 474,151 474,151 474,151 474,151 475,151 475,151 475,152 475,152 476,152 476,153 476,153 477,153 477,153 477,154 478,154 478,155 479,155 480,156 480,156 480,157 480,157 480,157 481,159 481,160 481,160 481,161 481,162 481,162 481,162 481,163 481,163 481,164 481,164 481,164 481,164 481,164 481,165 481,165 481,165 481,165 481,165 481,165 481,165 481,166 483,166 483,167 483,167 484,167 485,167 485,167 484,168 484,168 485,168 487,168 489,169 488,169 488,170 487,170 487,171 487,171 487,171 487,171 486,171 486,171 488,172 488,172 489,172 490,172 490,172 494,173 495,173 495,174 495,174 496,174 496,174 496,174 496,174 496,175 496,175 496,175 497,175 497,176 497,177 498,177 498,177 498,177 498,177 498,177 497,177 497,177 498,178 498,178 498,178 498,178 497,178 497,178 497,179 497,179 497,179 497,179 497,180 496,180 496,180 496,180 495,181 495,181 495,181 495,182 495,182 495,182 494,183 494,183 493,183 493,183 493,183 493,183 493,183 493,183 494,183 494,183 494,184 494,184 494,185 494,185 494,185 494,185 494,185 495,186 495,187 495,187 495,187 495,187 495,188 495,188 495,189 495,189 495,189 495,189 495,189 496,190 496,190 496,190 496,190 496,190 497,191 497,191 497,191 498,191 498,191 498,191 498,191 498,191 498,192 498,192 498,192 498,192 499,192 499,192 499,193 499,193 499,193 499,193 499,193 500,193 500,194 500,194 500,194 500,194 500,194 500,194 500,194 500,194 500,195 500,195 500,195 500,195 500,195 500,195 500,195 500,195 499,195 499,196 499,196 499,196 499,196 499,197 499,197 499,197 499,197 499,197 499,198 499,198 499,198 499,198 498,199 498,199 498,199 497,199 496,200 496,200 496,200 496,200 495,200 495,200 494,200 494,200 494,200 493,200 493,200 493,200 493,200 493,200 493,200 493,200 493,200 493,200 492,201 492,201 491,201 491,202 491,202 490,202 490,202 489,202 489,203 489,203 489,203 489,203 489,203 488,204 488,204 488,204 488,204 488,205 488,205 488,205 488,205 488,206 488,206 488,206 488,206 488,206 487,207 487,207 487,207 487,207 487,208 487,208 487,208 487,208 487,208 487,208 488,209 488,210 488,210 488,210 487,211 487,211 487,211 487,211 487,212 487,212 487,212 487,212 487,213 487,213 487,213 487,213 488,213 488,213 488,213 488,214 488,214 488,214 488,214 488,214 489,214 489,214 489,215 488,215 488,215 488,215 487,216 487,216 487,216 487,216 485,216 484,216 484,216 483,215 481,215 479,215 477,215 476,215 475,215 474,214 474,214 474,214 473,214 473,214 473,214 472,213 472,213 471,212 471,212 471,212 470,212 470,211 468,211 467,211 467,211 466,210 465,210 464,209 464,209 463,209 463,209 460,208 459,208 459,208 458,208 457,208 456,208 455,209 455,209 455,209 453,209 453,209 452,209 452,209 452,209 452,209 451,209 451,209 451,209 451,208 450,208 450,208 450,208 449,208 449,208 448,208 447,208 447,208 446,208 446,208 446,208 445,207 445,207 445,207 445,207 445,207 444,207 444,207 444,207 444,207 444,207 441,206 441,206 441,206 440,206 439,206 438,206 437,207 436,207 435,207 435,207 435,207 435,207 435,207 434,207 434,207 434,207 433,206 433,206 433,206 433,206 432,206 432,206 432,206 432,206 432,206 432,206 431,206 431,206 430,206 430,206 429,206 429,207 427,207 427,207 427,207 427,207 425,207 425,207 425,207 424,207 424,207 424,207 424,207 423,207 423,207 422,207 422,207 422,207 422,207 422,207 422,207 422,207 421,207 421,207 421,208 421,208 421,208 420,207 420,207 420,207 419,207 419,207 419,207 418,208 418,208 418,208 417,207 417,207 417,207 416,207 416,207 416,207 416,207 415,207 415,207 415,207 414,207 414,208 414,207 414,207 413,208 413,208 413,208 412,208 412,208 412,208 412,208 412,209 411,209 411,209 411,209 411,209 411,209 410,209 409,209 409,209 409,209 409,209 408,209 408,209 407,209 407,209 407,209 407,209 406,209 406,209 405,209 405,209 405,209 405,210 405,210 404,210 404,210 404,210 404,210 404,210 404,210 403,210 403,210 403,210 403,211 403,211 404,211 404,211 404,211 404,212 404,212 404,212 404,212 403,212 403,212 403,212 403,212 403,213 403,213 402,213 401,213 401,213 401,213 401,214 401,214 401,214 401,214 401,214 401,214 401,214 401,214 400,215 400,215 400,215 400,215 400,215 400,215 399,215 399,215 399,215 399,215 399,215 399,216 399,216 399,216 399,216 399,216 398,217 398,217 398,217 398,217 398,217 398,217 398,217 398,217 398,217 398,218 398,218 398,218 398,218 398,219 398,219 398,219 398,219 397,220 397,220 397,220 397,220 397,220 397,220 397,220 397,220 397,220 396,221 396,221 396,221 396,221 396,221 396,221 396,221 396,222 396,222 395,222 395,222 395,222 395,222 394,222 394,222 394,222 394,222 394,223 394,223 394,223 394,223 394,223 394,223 394,223 394,223 394,223 393,223 393,223 393,223 393,223 393,223 393,223 393,223 392,224 392,224 392,224 392,224 392,224 391,224 391,224 391,224 391,225 391,225 391,225 391,225 391,225 390,225 390,225 390,225 390,226 390,226 390,226 390,226 390,226 390,226 389,226 389,226 389,227 389,227 389,227 389,227 389,227 389,227 388,227 388,227 388,227 388,227 388,227 388,227 388,227 388,227 387,228 387,228 387,228 387,228 386,228 386,228 386,229 386,229 385,229 385,229 385,229 385,229 385,229 384,229 384,230 384,230 384,230 384,230 384,230 384,230 384,230 384,230 384,230 384,230 384,231 384,231 384,231 384,231 384,231 383,231 383,231 383,231 383,231 381,232 381,233 380,233 380,233 380,233 380,233 379,233 379,233 379,233 379,233 379,233 379,233 379,233 379,233 378,234 378,234 378,234 378,234 378,234 377,234 377,234 376,234 376,234 376,234 376,234 376,234 376,234 376,234 376,234 376,234 376,234 375,234 375,234 375,234 375,234 375,234 374,234 374,234 374,235 374,235 374,235 374,235 373,235 373,235 372,235 371,236 371,236 371,236 371,236 370,235 370,236 370,236 370,236 370,236 370,236 370,236 370,236 369,236 369,237 368,237 368,237 367,237 367,237 367,237 366,238 366,238 366,238 366,238 366,238 365,238 365,238 365,238 365,239 365,239 365,239 365,239 364,240 364,240 364,240 365,240 365,240 364,240 363,241 363,241 363,241 363,241 363,241 363,241 363,241 363,241 362,241 362,241 362,241 362,241 362,242 362,242 361,242 361,242 361,242 361,242 361,243 360,243 360,243 359,243 359,244 359,244 358,244 358,244 358,244 358,245 358,245 357,245 357,245 357,245 357,245 356,245 356,246 356,246 356,246 356,247 356,247 356,247 356,247 356,247 356,247 356,248 356,248 356,248 356,249 356,249 356,249 356,249 357,249 357,249 357,250 357,250 357,250 357,250 358,250 358,250 358,250 358,250 358,250 358,250 358,250 358,250 359,250 359,250 359,250 359,250 359,250 359,251 360,251 360,251 360,251 360,251 360,252 360,252 359,253 359,253 359,253 359,254 359,254 358,254 358,254 358,254 358,254 358,255 358,255 358,255 358,255 358,256 358,256 358,256 358,256 358,256 359,257 359,257 359,257 359,257 360,258 360,258 360,258 360,258 360,258 359,259 359,259 359,259 359,260 359,260 359,260 359,260 359,260 359,260 359,260 359,260 359,260 359,261 359,261 359,261 359,261 359,261 359,262 359,262 359,262 359,262 359,262 359,263 359,263 359,263 359,263 360,263 360,263 360,263 360,263 360,263 360,264 360,264 360,264 360,264 360,264 360,264 361,264 361,264 361,264 361,265 361,265 362,265 362,265 362,265 362,265 362,265 363,265 363,265 364,265 364,265 364,265 364,265 364,265 364,265 364,265 365,265 366,265 366,265 366,265 367,266 368,266 369,267 370,267 370,267 370,267 370,268 370,268 370,268 370,268 370,268 370,268 371,268 371,268 371,268 371,268 371,268 372,268 372,268 372,268 372,268 372,268 372,268 372,268 372,269 372,269 371,269 371,270 371,270 370,270 370,271 370,271 371,271 371,271 371,271 371,272 371,272 371,272 371,273 371,273 371,273 372,273 372,273 372,273 372,274 373,274 373,275 373,275 372,275 372,275 372,275 372,275 372,276 372,276 372,276 372,276 372,277 372,277 372,277 372,277 372,278 372,278 372,278 371,278 371,278 371,278 371,278 371,278 371,278 371,278 371,279 371,279 371,279 370,279 370,279 370,279 370,279 370,279 370,279 370,279 371,280 371,280 371,280 371,280 371,280 371,280 371,280 371,280 371,280 371,280 371,280 371,280 371,280 371,280 371,281 371,281 372,283 372,283 372,283 372,283 372,283 373,283 373,283 374,283 374,283 374,283 374,283 374,283 374,284 374,284 374,284 374,284 374,284 374,284 374,284 374,284 374,285 374,285 374,285 374,285 374,285 374,285 374,285 374,285 374,285 374,286 374,286 374,286 374,286 374,286 374,286 374,286 374,286 374,286 374,286 374,287 374,287 374,287 374,287 374,287 374,287 374,287 374,287 373,287 373,287 373,287 373,287 373,287 373,287 373,287 372,287 372,287 372,287 372,287 372,287 372,287 372,287 371,287 371,287 371,287 371,287 371,287 371,287 371,287 371,287 371,288 371,288 371,288 371,288 371,288 371,288 371,288 371,288 371,288 370,288 370,288 370,288 370,288 370,289 370,289 370,289 370,289 370,289 370,289 370,289 369,289 369,289 369,289 369,289 369,289 369,289 369,290 369,290 369,290 369,290 369,290 369,290 369,290 368,290 368,290 368,290 368,290 368,290 368,290 368,290 368,290 367,290 367,290 367,290 367,290 367,290 367,291 366,291 366,291 366,291 365,291 365,291 366,291 366,291 366,291 365,291 365,291 365,291 365,291 365,291 365,291 365,291 365,291 364,291 364,291 364,291 364,291 364,291 364,292 364,292 364,292 364,292 364,292 364,292 363,292 363,292 363,293 363,293 363,293 363,293 363,293 363,293 364,294 364,294 364,294 364,294 364,294 364,294 363,294 363,294 363,294 363,294 363,294 363,294 363,294 363,294 363,295 363,295 363,295 363,295 363,295 363,295 363,296 363,296 363,296 364,296 364,296 364,296 364,296 364,296 364,296 364,296 364,296 364,296 364,296 364,296 364,296 364,297 364,297 364,297 364,297 364,297 364,297 364,297 364,297 364,297 364,297 364,297 364,297 364,298 364,298 364,298 364,298 364,298 364,298 364,298 364,298 364,298 364,298 365,298 364,298 364,299 365,299 365,299 365,299 365,299 365,299 365,299 365,299 365,299 365,300 365,300 365,300 364,300 364,300 364,300 364,300 364,300 364,301 365,301 365,301 365,301 365,301 365,301 365,301 364,301 364,301 364,301 364,301 364,302 364,302 364,302 364,302 364,302 364,303 364,303 363,303 363,303 363,303 363,303 363,304 362,305 361,305 361,305 362,306 361,306 361,306 361,306 361,306 361,306 360,307 360,307 360,308 359,308 359,308 359,309 358,309 358,309 358,309 357,309 357,309 357,310 357,310 357,310 357,310 357,310 357,310 358,310 358,310 358,310 358,310 358,310 358,311 357,311 357,311 357,312 356,312 356,312 356,312 356,312 356,312 356,313 356,313 357,312 357,312 357,312 358,312 358,313 358,313 358,313 358,313 359,313 359,313 359,313 358,314 357,314 356,314 356,314 356,314 356,314 355,314 355,314 353,314 352,314 351,315 351,315 350,315 349,315 348,315 348,315 348,315 348,315 347,315 347,315 346,315 346,315 344,315 344,315 343,314 343,314 342,314 342,314 340,312 340,312 340,312 339,312 339,312 338,311 337,311 336,310 334,310 334,310 333,309 332,309 331,309 330,308 329,307 329,307 328,307 328,307 322,304 319,302 317,302 316,301 314,300 310,299 309,299 308,298 308,298 307,298 307,298 306,298 305,297 305,297 305,297 305,296 306,293 306,292 306,291 306,290 307,290 307,290 308,289 310,287 311,287 311,286 312,285 312,285 313,284 313,284 313,284 310,283 303,279 299,277 298,276 294,274 286,270 285,269 283,268 282,267 282,267 282,270 281,271 281,271 281,271 281,271 281,272 280,272 280,273 280,273 280,273 279,274 279,274 279,274 279,274 279,275 278,275 278,275 277,275 277,275 277,275 276,274 276,274 276,274 276,274 276,274 275,273 275,273 275,273 275,273 275,272 275,272 275,272 274,272 274,272 274,272 274,272 274,273 274,273 274,273 273,273 272,273 272,273 272,273 272,273 272,273 272,272 272,272 271,272 271,272 271,272 270,272 270,272 270,272 269,272 269,272 269,272 269,272 269,272 270,271 269,271 269,271 269,270 269,270 269,270 269,269 268,269 268,269 268,269 268,268 269,268 269,268 269,268 269,268 269,267 269,267 269,267 269,266 269,266 269,266 269,266 268,266 268,266 268,266 268,266 267,266 267,265 267,265 267,265 266,264 266,264 266,264 266,264 264,264 263,264 263,264 263,264 261,264 257,265 257,265 257,265 254,265 254,265 254,265 252,264 251,264 251,264 251,264 251,264 251,264 250,263 250,263 250,263 250,263 248,263 248,263 247,263 247,263 246,263 245,262 244,261 243,261 243,261 243,261 243,261 244,260 244,259 245,258 245,258 245,257 245,257 245,257 246,256 246,256 246,255 246,255 246,255 247,255 248,254 249,254 250,254 250,254 250,254 250,253 250,252 250,251 250,251 250,251 250,251 249,251 249,250 247,249 246,249 246,249 246,249 246,248 245,248 245,248 245,248 245,248 244,248 244,248 244,248 244,248 243,248 243,248 242,248 242,248 241,248 241,248 241,248 241,248 241,248 241,248 241,248 241,248 241,247 241,247 241,246 241,246 242,246 242,246 242,246 242,245 242,245 242,245 243,245 243,245 243,245 243,245 243,245 243,245 243,245 243,244 242,244 242,244 243,244 243,244 243,244 243,243 243,243 243,243 243,243 243,243 243,243 243,243 243,242 243,242 243,242 243,242 243,242 244,241 244,241 244,241 244,241 243,241 243,241 243,241 243,241 243,241 243,241 239,241 238,241 236,241 234,241 233,241 232,241 231,241 231,240 230,240 229,240 218,240 218,240 218,240 218,240 212,240 210,239 207,239 207,239 206,239 203,239 200,239 196,239 195,239 194,239 194,239 193,239 193,239 187,238 187,238 183,238 178,238 173,238 169,237 161,237 156,237 152,237 152,236 153,236 157,233 157,233 160,231 160,231 160,231 161,230 165,228 165,227 166,227 182,216 183,215 186,213 187,212 188,212 189,210 189,210 182,204 180,202 179,201 179,201 177,200 171,196 169,194 167,193 167,193 167,193 167,193 163,190 155,184 154,183 145,177 127,165 125,163 123,162 122,161 121,161 121,160 120,159 118,158 117,157 117,157 116,157 115,156 115,156 114,155 113,155 113,155 111,153 110,153 109,152 109,152 108,152 108,152 108,152 108,152 107,151 106,151 106,151 106,151 106,150 105,149 105,149 105,150 105,150 105,150 105,151 105,151 105,151 105,152 104,153 104,153 104,153 104,153 104,153 104,154 104,154 104,154 104,154 104,155 104,155 103,155 103,155 102,155 102,155 101,155 99,155 97,155 97,155 96,160 96,161 96,161 96,161 96,161 96,162 96,162 95,163 95,163 95,164 95,164 95,164 95,164 95,164 95,165 95,165 94,167 95,167 96,166 96,166 96,167 95,167 95,168 95,169 94,169 94,169 94,169 94,169 94,169 93,169 93,169 93,169 93,169 93,169 92,168 92,168 92,168 92,168 91,168 91,168 90,168 90,168 90,168 90,168 90,169 90,169 89,169 89,168 89,168 89,168 89,168 89,168 89,168 88,168 88,168 88,168 88,168 88,168 88,168 88,168 88,168 88,168 87,167 87,167 86,167 86,167 85,167 85,167 85,167 85,167 84,167 83,168 83,168 83,168 82,168 82,168 82,168 82,168 82,168 82,168 82,168 82,167 82,167 81,167 81,168 81,168 81,168 80,168 80,168 80,168 79,167 79,167 79,167 78,167 78,168 78,168 77,169 77,169 77,169 77,170 77,170 77,170 77,170 77,170 77,170 77,170 77,171 77,171 77,171 77,171 77,171 77,171 77,172 77,172 78,172 78,173 78,173 78,174 79,174 79,174 78,175 78,175 78,175 78,176 78,176 78,176 78,176 77,177 77,177 77,177 77,178 76,178 76,178 76,178 76,179 76,179 76,179 76,179 77,179 77,180 77,180 77,180 77,180 77,180 77,181 77,181 77,182 77,182 77,182 77,182 77,182 77,182 76,182 76,181 76,181 75,181 75,181 75,181 75,181 75,181 75,181 75,181 74,181 74,181 74,181 74,181 74,181 74,180 73,180 73,180 73,180 73,180 73,180 73,180 72,180 72,180 72,180 72,179 72,179 72,179 72,179 71,179 71,179 71,179 71,179 71,179 71,179 71,179 70,179 70,179 70,179 70,179 69,179 69,180 68,180 68,180 68,180 68,181 68,181 68,181 68,181 68,181 67,181 67,181 67,181 67,181 67,181 67,181 67,181 67,181 67,181 67,181 67,181 67,181 67,181 66,181 66,181 66,181 65,181 65,181 65,181 64,181 64,181 64,181 64,181 64,182 64,182 63,182 63,182 63,182 63,182 63,182 63,182 63,183 63,183 62,183 62,183 62,183 62,183 62,183 62,183 62,183 61,184 61,184 61,184 61,184 61,184 61,184 61,184 61,184 60,184 60,184 61,184 60,185 60,185 60,185 60,185 60,185 60,185 60,185 60,185 60,185 60,185 60,185 60,185 60,186 60,186 60,186 60,186 59,186 59,187 59,187 59,187 59,186 59,186 59,186 59,186 59,186 58,186 58,186 58,186 58,186 57,186 57,185 57,185 57,185 57,185 57,185 57,185 57,185 56,185 56,185 56,185 56,184 56,184 53,182 53,182 53,182 53,182 53,181 53,181 53,181 53,181 53,181 53,181 52,180 51,180 51,180 44,180 44,180 44,180 44,180 43,180 43,180 41,179 41,179 40,179 40,178 38,177 38,177 38,177 38,177 37,176 37,176 37,176 37,176 36,174 36,174 36,174 36,174 35,173 35,173 35,173 35,173 35,173 35,173 35,172 35,172 35,172 35,172 34,172 33,172 33,172 32,172 32,172 31,172 31,172 31,172 31,172 31,172 27,173 27,173 26,173 26,173 26,173 26,173 26,173 25,173 25,173 25,173 25,172 24,172 24,171 24,171 24,171 24,171 23,170 23,170 23,170 23,170 23,169 22,169 22,169 22,168 22,168 22,168 22,168 22,168 21,167 21,167 21,167 21,167 21,167 21,167 20,167 20,167 20,167 19,166 19,166 19,166 19,166 19,166 18,164 18,164 18,164 18,163 18,163 18,162 18,162 18,162 18,162 18,162 18,162 17,162 15,162 15,162 15,161 15,161 15,161 15,161 15,161 14,161 14,161 14,161 14,161 14,161 13,161 13,161 13,161 14,161 14,160 13,160 13,160 12,160 12,160 10,160 10,159 10,159 10,159 10,159 9,159 9,159 9,159 9,159 8,159 8,159 8,159 8,159 7,158 7,158 7,158 7,158 7,158 6,158 6,158 6,159 6,159 5,159 5,159 5,159 5,159 5,159 5,158 4,158 4,158 4,158 4,158 3,158 3,158 3,158 3,158 3,157 3,157 3,157 2,157 2,156 2,156 2,156 2,156 2,156 2,156 2,156 2,155 2,155 2,155 2,155 2,155 2,155 1,155 1,155 1,155 0,155 0,155 0,155 0,155 0,155 0,154 1,154 1,154 1,154 0,154 0,153 0,153 0,153 0,153 0,153 0,153 0,153 0,152 0,152 0,152 1,152 0,152 1,152 1,152 1,152 1,151 1,151 1,151 1,151 1,151 1,151 1,151 2,151 2,150 2,150 2,150 2,150 2,150 2,150 2,150 2,150 3,150 3,150 3,149 3,149 3,149 3,149 3,149 3,149 3,148 3,148 3,148 3,148 3,148 3,148 3,148 3,149 4,149 4,149 4,149 4,149 4,149 5,149 5,149 5,149 5,149 5,149 6,149 6,149 6,149 7,149 7,149 7,149 7,149 7,149 7,149 7,149 8,149 8,149 8,149 9,150 9,150 10,150 10,150 10,150 10,150 10,150 11,150 11,150 11,150 11,149 11,149 11,149 11,148 11,148 11,148 12,148 12,148 12,148 13,147 13,147 13,147 13,147 13,146 13,146 13,146 13,145 13,145 13,145 13,144 13,144 13,144 13,144 13,144 12,144 12,144 12,144 12,143 12,143 12,143 12,143 12,143 11,142 11,142 10,141 10,141 10,141 11,141 11,140 10,140 10,139 10,139 10,139 10,139 9,138 9,138 9,138 9,138 9,137 8,137 8,137 8,137 8,137 8,137 8,137 7,137" id="6112" class="canton" fill="steelblue" stroke-width="1" stroke="white" geotype="canton" geoname="Ferté-Macé" code_insee="6112" code_departement="61" nom_departement="Orne" code_region="28" nom_region="Normandie"/></svg>