<?xml version="1.0" encoding="utf-8"?>
<svg version="1.1" id="svgmap" xmlns="http://www.w3.org/2000/svg" xmlns:xlink="http://www.w3.org/1999/xlink" x="0px" y="0px" width="100%" height="100%" viewBox="0 0 500 338">
<polygon points="154,7 157,9 158,10 158,10 163,11 163,11 163,12 160,14 159,13 157,14 155,14 156,15 155,15 162,18 162,18 163,19 164,20 167,20 172,21 174,21 173,23 174,23 175,23 175,24 172,25 172,25 171,26 173,26 174,26 175,26 175,26 175,26 176,27 178,27 178,28 179,30 180,29 180,29 180,30 181,30 181,30 177,35 181,38 182,37 186,39 186,40 186,40 188,40 191,40 193,40 193,40 194,40 194,40 194,40 196,38 196,38 197,38 201,37 201,36 200,35 200,35 202,32 204,32 205,32 206,33 206,33 213,28 216,27 220,25 220,25 220,23 226,21 232,18 231,18 237,16 237,16 241,15 241,15 241,14 242,14 242,15 244,15 247,14 248,14 248,15 248,16 246,18 248,18 248,18 249,19 249,19 253,25 255,30 258,33 258,35 259,36 262,38 262,39 263,40 268,44 274,41 275,43 278,50 279,52 279,52 279,52 279,52 279,51 279,51 279,51 280,51 280,51 280,51 280,51 280,51 280,51 280,51 281,51 281,51 281,51 281,51 281,51 282,51 282,51 282,51 282,51 282,51 283,52 284,52 284,52 284,52 284,52 285,52 286,51 286,51 287,51 287,52 287,52 287,52 287,52 287,52 288,52 288,52 288,52 289,51 289,51 289,51 289,51 289,52 290,52 290,52 290,52 290,51 290,52 291,52 291,52 291,52 291,52 292,52 296,58 301,64 303,66 306,69 308,72 308,72 309,72 309,72 323,75 323,75 329,74 329,74 333,74 336,74 336,74 337,75 341,75 349,77 349,77 350,77 359,80 359,80 359,80 360,81 366,87 366,87 367,87 368,87 369,87 369,87 369,88 370,88 371,88 371,88 379,92 380,92 393,97 394,97 394,97 394,97 394,97 394,97 394,98 394,98 395,98 396,98 396,99 397,99 397,100 400,103 400,104 411,114 413,116 413,116 411,117 411,117 409,118 408,119 408,120 406,120 406,120 404,122 404,123 403,123 402,124 402,124 402,124 401,124 401,124 400,125 400,125 400,125 400,125 400,126 400,126 400,127 401,127 402,128 402,128 402,129 404,131 404,132 403,133 403,133 404,133 404,134 404,135 405,136 407,137 408,138 410,138 411,138 412,138 414,138 415,137 417,137 419,137 420,137 421,138 421,138 422,139 422,139 422,140 423,141 424,142 425,142 428,143 429,143 430,143 431,143 432,143 432,143 433,143 440,143 441,143 444,145 444,146 446,147 448,147 448,148 449,148 450,148 451,148 451,148 452,149 453,149 454,149 455,149 455,149 456,150 456,150 459,151 460,151 461,152 461,152 462,152 463,152 463,152 464,152 464,152 464,152 467,151 467,151 467,151 468,151 469,152 471,152 471,152 471,152 472,152 473,152 473,151 475,152 477,152 478,152 479,152 479,152 479,152 480,152 481,152 481,152 483,152 483,152 483,152 483,152 484,152 485,152 485,152 486,152 486,152 486,151 487,151 487,151 489,150 490,151 490,150 491,150 491,151 491,151 492,150 492,150 493,150 493,151 494,151 494,151 494,151 495,151 495,152 495,152 496,152 497,152 498,153 498,153 499,153 499,153 500,153 499,154 499,154 499,154 498,154 497,154 497,154 495,153 494,153 493,153 493,153 492,153 491,153 491,153 490,154 490,155 490,156 489,156 489,156 489,156 489,156 488,157 488,157 488,158 490,159 490,159 491,160 492,162 493,164 494,164 495,165 497,166 497,166 497,167 497,167 497,167 497,168 497,168 497,169 497,169 495,170 496,172 496,172 495,173 495,173 495,176 496,176 497,177 495,178 495,179 495,179 495,179 495,180 494,180 494,181 494,181 494,181 494,182 493,182 493,183 493,183 493,183 493,183 493,183 493,183 493,183 493,183 494,184 494,184 494,184 494,184 494,184 493,185 492,186 492,186 492,186 492,187 492,187 491,188 490,188 490,189 490,189 490,189 490,189 490,189 487,190 487,191 487,191 486,191 485,192 485,193 483,193 483,194 482,194 482,194 481,195 480,195 478,196 478,196 478,197 477,197 477,197 476,198 476,198 476,198 475,198 475,198 473,199 472,200 471,200 469,201 468,201 468,201 467,202 466,202 466,202 466,202 465,202 464,204 464,204 463,206 462,206 462,207 461,208 461,208 461,208 461,209 461,209 461,210 461,211 461,212 462,213 462,214 462,214 462,215 461,217 461,217 461,217 461,217 461,217 461,217 460,217 461,218 461,218 460,218 460,219 460,219 459,219 452,223 451,223 450,222 449,222 448,222 447,222 446,221 445,221 444,221 443,221 441,221 441,221 441,221 440,221 440,221 440,221 439,221 438,221 437,222 437,222 435,223 435,223 434,222 434,222 433,222 432,223 432,223 431,223 431,224 430,225 430,225 429,225 429,225 428,225 428,225 427,225 425,225 425,225 424,225 424,225 423,225 422,226 417,227 415,227 414,227 414,227 412,227 412,227 412,227 411,227 410,227 410,227 409,227 408,227 408,227 408,227 406,227 398,225 398,225 397,225 395,225 395,225 395,225 395,225 395,225 394,223 394,220 394,217 393,217 390,218 386,219 379,221 379,221 378,220 378,219 378,215 378,212 378,212 377,211 376,211 375,211 368,211 362,210 357,208 352,205 348,204 337,213 334,213 330,213 327,213 327,212 327,212 326,211 325,208 324,207 320,198 317,198 317,198 317,199 316,199 316,199 316,199 315,200 315,201 315,201 315,201 314,202 314,202 314,202 314,202 314,202 314,202 313,203 313,203 313,203 312,203 312,203 311,204 311,204 311,204 310,205 310,205 309,209 309,210 309,210 309,211 308,211 308,211 307,212 307,212 306,212 305,213 305,213 305,213 305,213 305,213 304,213 303,214 303,214 303,214 303,214 302,215 302,215 301,215 301,215 301,215 300,214 300,214 300,214 300,214 299,215 299,215 299,215 299,215 297,214 297,214 296,214 296,214 295,214 295,214 294,215 294,215 292,215 292,215 292,215 291,215 291,215 291,215 291,215 292,215 292,214 292,214 292,214 292,214 291,214 291,214 291,214 290,213 290,213 290,213 289,214 289,214 287,214 287,215 286,215 286,215 286,215 286,215 286,215 285,216 284,217 283,217 282,217 282,217 281,218 281,218 279,218 279,218 279,218 278,218 278,218 278,218 278,218 279,217 279,217 280,216 280,216 280,215 280,215 280,215 277,214 277,214 276,214 276,214 275,214 275,214 275,214 274,214 274,214 274,214 274,214 274,214 274,215 274,215 273,215 273,215 272,215 272,215 272,215 270,215 270,215 270,215 270,215 269,215 269,215 268,214 268,214 267,214 267,214 267,214 265,215 263,216 263,217 262,217 262,217 262,216 262,216 262,216 261,216 259,216 258,216 258,216 257,216 257,215 257,215 256,216 255,216 254,216 253,217 252,217 251,217 251,217 251,217 252,214 252,213 252,213 251,213 248,214 247,214 247,214 248,215 248,215 248,215 243,216 243,216 243,215 242,215 241,216 241,216 241,216 236,219 235,219 232,221 232,221 228,223 229,223 231,225 231,225 231,225 227,226 227,226 228,226 228,226 229,228 230,229 231,230 231,230 231,230 229,231 229,231 229,231 229,232 229,232 227,232 227,232 227,232 227,232 224,233 221,234 221,234 221,234 221,234 220,234 218,235 218,235 218,235 217,235 215,236 215,236 215,237 215,239 215,239 211,240 213,240 212,241 208,243 208,243 210,245 210,245 209,245 209,245 208,245 209,245 209,246 209,246 209,246 207,247 206,247 206,247 203,249 200,250 200,250 198,252 196,254 196,254 196,254 197,254 197,254 197,255 196,255 196,255 196,256 195,256 195,256 195,256 194,256 192,257 192,257 193,258 194,258 194,259 196,259 196,259 196,259 196,259 196,260 196,260 197,260 198,260 198,260 199,261 199,261 200,262 202,263 202,263 203,263 205,264 206,263 209,261 209,261 209,261 206,260 206,260 206,260 207,259 207,259 208,259 209,259 209,259 211,259 211,259 211,259 212,259 212,259 214,259 214,259 216,258 216,258 216,258 216,258 218,258 219,258 222,257 223,257 223,257 223,257 227,257 229,256 231,256 231,256 231,256 232,256 233,256 238,259 239,259 240,260 240,260 243,257 244,256 245,256 253,259 253,259 254,259 255,258 256,258 256,258 256,258 256,258 257,258 257,258 257,258 257,258 259,257 260,257 261,257 263,256 263,256 264,256 265,256 265,256 265,257 265,257 266,257 267,257 267,257 267,257 268,258 269,258 269,259 271,260 271,260 276,259 276,259 276,259 277,259 277,259 277,259 285,257 285,258 288,258 288,258 289,257 289,258 290,258 290,258 290,258 290,258 291,258 292,258 293,258 294,257 294,257 295,256 297,257 297,257 295,259 295,259 295,259 296,260 297,260 297,260 297,260 297,260 296,261 296,262 295,262 294,263 294,263 293,263 293,263 293,264 293,264 296,265 296,266 299,266 299,266 300,267 300,267 301,267 302,267 303,268 303,268 303,268 304,269 304,270 305,270 306,270 306,270 305,271 305,271 307,272 306,272 305,272 304,272 304,272 301,272 301,272 301,273 302,274 303,274 304,274 304,274 304,274 304,274 302,276 302,276 296,279 296,279 296,279 295,279 294,280 292,280 291,281 291,281 290,282 290,282 290,282 290,282 289,283 288,283 287,284 287,284 287,284 287,284 287,284 287,284 286,284 281,287 281,287 280,288 279,288 277,289 276,289 276,289 275,289 274,290 272,291 271,291 270,291 270,292 266,294 264,294 264,294 264,294 264,294 264,294 264,294 262,295 261,296 260,296 259,296 257,296 257,296 257,296 257,297 257,297 257,297 256,297 256,297 254,297 252,298 252,298 252,298 253,298 253,299 254,301 254,301 254,301 254,301 254,301 254,301 254,301 254,302 254,302 254,302 253,303 253,303 253,304 255,304 255,305 254,305 253,305 253,305 253,306 255,306 257,307 257,307 250,310 249,310 248,311 248,311 247,312 247,312 246,312 245,313 243,314 243,314 242,314 239,317 239,317 239,317 238,317 238,316 238,316 236,316 236,316 234,317 234,317 234,318 234,318 234,318 230,319 230,319 230,319 229,319 225,316 221,318 220,317 220,317 218,316 218,316 218,316 223,312 223,312 223,312 222,311 222,310 221,310 219,308 219,308 218,308 218,309 217,310 216,310 216,310 216,310 213,308 211,306 208,308 208,308 208,308 209,309 209,309 209,309 207,310 207,310 207,310 204,307 204,307 204,307 203,307 203,306 203,306 203,306 203,306 202,305 201,305 200,305 198,306 197,306 195,308 194,309 192,310 191,310 190,311 190,311 190,312 190,312 190,312 189,313 188,313 182,307 178,305 177,305 177,305 177,305 177,304 177,304 177,304 178,304 178,303 179,303 179,303 179,303 176,304 176,304 173,305 173,305 173,305 173,304 173,304 173,304 174,304 174,304 172,303 171,302 169,300 168,300 168,300 167,299 166,300 166,300 165,298 165,298 164,298 161,300 159,300 159,300 159,300 158,301 157,301 156,302 155,302 150,303 150,303 150,303 148,304 148,304 145,305 145,305 142,305 142,306 141,306 139,306 139,307 138,307 137,308 137,308 136,309 136,309 136,309 135,309 135,309 135,309 134,309 134,309 134,309 132,309 132,309 131,309 131,309 130,309 130,309 130,309 129,309 129,309 129,309 128,309 128,309 128,309 128,310 127,311 127,311 123,313 123,313 123,313 122,314 122,314 122,314 120,314 119,315 119,315 119,315 118,316 117,316 116,316 116,316 116,316 115,316 115,316 114,317 113,318 113,318 112,318 111,319 109,320 109,320 110,321 110,321 108,322 108,322 108,322 108,322 107,322 106,322 106,322 105,322 105,322 105,322 104,322 104,322 102,322 101,322 101,322 99,320 99,320 98,320 98,320 97,320 96,320 95,321 94,321 87,323 86,323 85,324 83,325 79,328 78,328 77,329 76,329 75,330 74,330 74,331 73,331 69,335 69,335 69,335 69,335 68,335 66,336 66,336 66,337 64,338 56,332 56,332 56,332 52,329 51,329 50,329 48,328 49,328 43,325 47,305 49,293 49,291 49,291 50,287 51,284 51,280 51,279 52,277 52,277 52,276 52,276 51,276 51,276 51,275 52,272 53,271 53,268 53,267 53,267 53,266 54,264 55,262 55,262 55,261 55,261 56,260 56,259 56,259 56,259 57,259 57,259 57,259 57,258 59,257 60,256 61,255 61,255 61,255 61,255 61,254 61,254 61,254 58,251 58,251 58,251 58,251 58,250 58,250 58,250 59,250 59,250 57,247 56,247 56,247 44,238 43,237 42,236 40,235 40,235 39,235 34,241 34,241 31,239 31,239 29,238 29,238 29,238 27,239 27,239 27,239 25,238 21,237 21,237 21,237 21,237 20,236 19,237 19,237 19,237 19,237 18,238 18,238 17,237 14,235 14,235 14,235 14,235 16,233 16,233 17,233 17,232 18,232 17,232 18,232 19,232 19,231 19,231 19,231 19,231 19,231 19,231 20,231 20,231 20,231 15,226 15,226 15,226 16,225 17,225 20,224 20,224 20,223 20,223 21,223 21,223 21,223 20,221 19,219 19,219 19,219 19,219 20,219 20,219 21,218 21,218 21,218 21,218 19,216 19,216 18,213 18,213 20,212 21,212 22,212 22,212 22,212 12,200 11,199 10,197 6,193 6,193 6,193 9,191 9,191 7,190 5,188 2,186 0,185 0,185 0,184 0,184 1,184 2,182 2,182 2,182 2,182 3,182 3,182 5,181 14,178 24,174 24,174 24,174 24,173 24,173 24,173 25,173 34,168 34,168 34,169 34,169 34,169 34,169 43,174 43,174 45,173 45,173 45,172 45,172 46,173 46,173 46,172 46,172 42,170 41,170 38,167 38,167 38,167 38,166 39,167 40,167 40,167 44,166 44,166 40,162 40,162 39,162 38,161 38,161 38,161 43,158 44,158 45,158 50,157 51,157 52,156 53,156 54,156 55,155 57,155 57,155 57,155 57,155 57,155 58,155 63,154 63,154 63,154 63,153 63,153 63,153 66,152 66,152 66,152 66,152 67,151 67,150 67,150 67,150 68,149 70,149 70,149 70,149 70,149 70,149 70,148 71,148 72,148 73,148 75,147 76,147 77,147 79,147 80,147 83,146 83,146 84,146 84,146 84,146 84,145 84,144 84,144 84,144 84,143 85,143 86,143 87,143 89,143 90,142 91,142 93,141 94,141 95,141 95,141 96,141 95,141 95,141 95,141 95,140 95,139 93,137 92,135 91,134 91,133 91,133 91,132 91,131 91,131 91,130 90,129 90,128 89,128 89,128 89,127 88,125 88,124 88,123 88,122 88,122 88,122 88,122 88,122 89,122 90,121 91,121 92,121 92,121 92,121 92,121 91,118 91,118 91,118 91,118 91,118 93,118 93,118 93,118 92,117 92,117 92,116 92,116 92,116 92,116 94,115 94,115 95,115 97,114 97,114 98,114 99,114 99,114 99,114 98,112 97,112 97,113 97,113 96,112 96,112 96,112 95,110 94,109 94,108 93,107 93,106 92,105 92,105 92,105 93,105 92,105 92,104 92,104 91,104 90,104 90,104 89,103 89,103 88,103 88,103 88,103 87,103 86,102 86,102 86,102 86,102 86,102 86,101 85,101 85,101 85,101 85,101 84,101 84,101 83,101 83,101 83,102 82,102 82,102 81,102 81,103 81,103 80,103 80,103 79,103 78,103 77,104 76,104 75,104 75,104 75,104 74,105 74,105 74,105 73,105 73,105 73,106 72,106 72,106 71,106 70,106 70,106 70,106 70,106 70,106 69,106 68,106 68,106 67,106 67,106 67,106 66,105 66,105 64,105 64,105 63,105 63,105 63,104 62,104 62,104 62,104 62,104 62,101 62,101 62,101 62,101 62,100 62,100 61,100 61,100 61,99 61,99 62,99 63,97 63,96 64,95 64,95 64,94 64,94 64,93 64,91 64,91 64,91 60,93 60,93 59,93 57,91 57,90 57,90 60,90 60,90 58,87 57,87 57,87 55,88 55,88 55,88 51,83 51,83 55,82 55,82 49,77 49,77 46,75 45,75 43,73 43,73 42,73 42,73 42,72 41,71 41,71 41,71 40,71 34,66 33,66 33,66 22,70 22,70 22,70 18,66 18,66 18,66 13,68 13,68 13,68 10,65 9,64 9,64 9,64 9,63 8,63 8,63 7,62 6,61 5,60 4,59 4,58 3,58 3,58 3,58 5,57 6,56 10,54 11,54 13,52 13,52 13,52 13,52 20,49 23,47 26,45 30,43 31,42 33,41 34,40 34,40 36,39 36,39 36,39 37,38 37,38 38,37 38,37 38,36 39,35 39,35 41,34 43,33 43,33 43,32 44,32 45,31 46,31 48,28 49,28 49,27 51,25 51,25 52,25 53,24 53,24 58,27 59,28 60,29 61,30 62,31 64,32 64,32 64,32 65,32 65,31 66,31 66,31 66,31 67,31 68,30 69,30 69,30 70,30 70,30 70,30 70,30 71,29 71,29 71,29 72,29 72,29 72,29 73,29 73,29 73,28 73,28 74,29 74,29 75,28 76,28 76,28 77,28 78,27 79,26 79,26 81,25 81,25 81,25 81,25 81,25 82,25 83,24 83,24 83,24 83,24 83,24 85,24 87,23 88,23 89,23 92,24 92,24 95,23 95,23 95,23 95,24 96,24 96,24 96,24 96,24 100,23 100,23 101,23 103,23 103,23 104,23 104,23 105,23 108,22 111,22 117,22 117,22 117,22 118,21 118,21 122,20 123,19 124,19 130,16 130,16 130,16 127,15 127,15 127,14 127,14 126,14 125,14 125,13 125,13 125,13 124,12 124,12 124,11 124,11 124,10 124,10 124,9 124,9 124,8 124,8 124,8 123,7 123,7 123,7 123,7 122,7 122,7 121,7 121,7 121,7 121,7 120,7 120,7 119,7 119,6 119,6 119,6 118,6 118,6 117,6 117,5 117,5 117,5 117,5 117,5 118,4 118,4 119,4 120,4 121,3 121,3 121,3 122,3 123,3 123,3 124,3 124,3 125,3 126,3 127,3 128,2 129,3 129,3 129,3 131,2 132,2 132,2 133,1 134,1 134,1 134,2 139,0 139,0 139,0 141,1 141,1 142,2 143,2 143,2 144,2 145,1 146,1 147,2 148,2 148,2 149,2 150,3 150,3 151,4 151,4 152,6 153,7 154,7 154,7 154,7" id="6201" class="canton" fill="steelblue" stroke-width="1" stroke="white" geotype="canton" geoname="Aire-sur-la-Lys" code_insee="6201" code_departement="62" nom_departement="Pas-de-Calais" code_region="32" nom_region="Hauts-de-France"/></svg>