<?xml version="1.0" encoding="utf-8"?>
<svg version="1.1" id="svgmap" xmlns="http://www.w3.org/2000/svg" xmlns:xlink="http://www.w3.org/1999/xlink" x="0px" y="0px" width="100%" height="100%" viewBox="0 0 500 434">
<polygon points="13,10 12,10 12,9 11,9 11,9 11,8 10,8 10,8 10,8 9,7 9,7 9,6 8,6 8,6 8,5 8,5 8,4 9,3 10,2 10,2 11,3 11,3 13,5 13,5 13,5 19,2 19,2 19,2 19,1 19,1 19,1 20,1 22,0 22,0 22,0 23,2 23,2 22,2 22,2 22,2 24,6 24,6 24,6 25,6 26,6 26,6 26,6 26,6 27,6 29,5 31,5 31,5 32,5 32,5 32,5 33,5 35,4 36,4 37,4 41,2 42,2 45,6 45,6 45,6 45,6 49,4 49,4 49,4 50,5 50,6 50,6 50,6 51,7 51,8 51,8 51,8 51,8 51,8 52,8 52,8 57,7 57,7 61,11 61,12 61,12 61,12 61,12 72,8 72,8 72,8 70,14 70,14 70,14 82,12 82,12 82,12 82,13 83,14 83,15 83,15 83,15 99,8 99,8 99,8 99,9 100,10 100,10 102,12 102,13 103,13 104,14 105,15 107,17 107,17 107,17 107,17 112,15 115,14 115,13 117,15 118,16 120,17 120,18 119,18 119,18 119,18 126,24 126,25 126,25 127,24 127,24 129,27 129,28 130,28 131,32 131,32 131,32 131,32 131,32 131,33 132,35 132,35 134,34 134,34 135,36 135,36 135,36 135,36 136,39 136,39 138,38 139,38 139,38 141,37 142,37 144,36 146,35 146,35 147,34 147,34 153,31 154,31 156,30 157,30 160,28 161,28 165,26 167,24 170,23 171,22 175,20 176,18 177,18 183,15 183,15 181,14 181,13 176,9 174,8 174,8 175,7 176,6 176,5 178,4 178,3 179,3 179,3 180,4 180,4 180,4 183,2 184,1 184,1 185,1 185,1 185,1 185,1 186,3 186,3 187,5 187,5 187,5 187,5 188,5 193,10 193,10 193,10 195,9 196,9 197,8 199,7 200,7 202,6 203,5 207,4 207,4 215,9 215,9 216,9 224,2 233,13 233,13 233,13 236,12 240,10 246,8 247,8 249,7 252,6 264,3 264,3 264,3 264,3 267,5 267,5 267,5 269,5 270,5 273,4 275,3 275,3 274,5 272,7 272,7 273,8 273,8 273,8 273,7 274,7 306,1 311,0 311,0 307,7 312,6 312,8 314,8 314,8 316,8 318,10 320,13 319,13 319,14 321,14 322,16 323,19 323,19 325,18 326,19 326,20 326,21 327,21 327,20 328,20 328,26 328,28 329,28 332,34 335,34 336,37 340,36 342,39 340,39 342,43 339,44 340,45 336,46 336,46 336,46 339,52 344,51 347,50 351,49 351,49 353,52 357,54 359,55 361,56 364,57 369,59 369,59 370,60 372,60 372,61 374,61 380,61 383,62 384,65 386,68 387,69 388,69 389,71 388,71 390,73 390,73 396,77 399,79 403,82 404,81 407,81 407,81 410,79 412,81 414,80 415,80 417,79 418,79 421,78 427,82 431,86 430,87 432,88 434,88 434,88 435,88 436,89 436,89 436,90 435,92 438,94 443,99 447,102 450,105 451,106 453,109 452,110 451,111 451,112 451,112 450,113 449,114 449,114 453,115 457,119 454,120 457,123 457,123 458,124 459,123 460,124 462,123 463,123 461,124 461,125 459,126 461,128 463,127 464,129 465,130 466,131 468,132 469,131 472,131 472,131 474,131 474,132 476,132 476,132 477,132 476,134 475,135 475,136 476,137 476,137 476,138 479,139 481,139 481,140 482,140 484,141 484,140 485,140 485,140 486,140 486,140 488,141 489,142 490,142 490,144 490,144 491,145 492,146 493,146 494,147 494,147 495,148 497,149 500,151 500,151 499,152 498,153 497,153 497,153 492,156 489,158 487,159 486,159 481,160 481,161 480,161 480,161 479,161 477,161 477,162 474,162 472,163 470,163 468,164 466,160 465,160 462,156 462,156 460,154 460,155 460,155 460,156 460,157 459,157 458,156 457,155 455,154 454,155 455,157 456,157 456,158 457,158 458,158 458,159 458,159 458,160 457,160 458,161 457,162 456,164 455,166 455,166 455,166 455,167 454,167 453,166 449,168 448,169 447,169 447,170 445,170 444,170 441,170 441,172 437,171 435,174 439,174 440,174 422,188 424,189 427,190 434,194 436,195 438,196 438,197 440,198 435,198 434,199 433,199 432,199 431,202 432,202 429,205 438,208 439,209 440,210 439,211 438,212 437,212 426,212 413,212 413,212 414,212 413,211 413,211 413,211 412,211 411,210 411,210 410,209 410,209 410,209 411,208 411,207 411,206 411,206 411,206 411,206 411,205 411,205 409,202 408,202 408,202 408,202 407,201 407,201 407,201 406,201 406,201 405,201 405,201 404,201 403,202 401,202 401,202 401,202 400,202 400,201 398,201 396,200 396,200 391,200 389,200 388,200 387,201 375,205 371,205 370,206 368,206 368,206 367,206 367,206 364,207 362,207 360,207 356,208 355,209 356,210 357,212 354,212 351,213 348,213 353,225 355,225 355,225 356,225 356,225 356,226 357,226 358,227 358,228 354,229 353,229 354,232 353,232 354,233 354,233 351,234 349,234 349,234 349,234 349,235 348,236 345,240 345,241 348,242 348,243 351,244 355,247 356,247 359,248 359,249 360,249 360,249 363,250 364,249 367,251 370,252 372,251 371,250 372,248 374,247 372,245 374,244 378,242 380,243 380,243 380,243 383,246 386,244 389,245 391,246 392,246 393,247 395,244 396,243 397,241 399,239 399,239 400,242 401,243 402,246 403,248 403,249 404,250 404,250 405,251 406,252 406,253 407,254 409,257 409,257 409,257 410,258 410,259 410,260 411,261 411,261 410,261 411,261 411,263 411,264 412,266 412,266 412,267 412,267 413,268 413,269 413,269 414,270 414,270 414,270 414,270 413,271 413,272 413,272 412,272 411,272 411,273 411,273 411,273 411,273 411,274 411,274 411,276 411,276 411,276 411,278 411,278 411,278 411,278 411,279 411,280 411,280 411,280 412,281 412,281 413,281 413,281 415,282 415,283 417,285 417,286 418,286 418,287 418,287 418,287 418,288 418,289 417,289 417,289 416,290 416,290 416,290 416,290 416,290 416,290 417,290 419,293 419,293 419,293 418,293 418,293 418,293 419,293 419,293 419,294 419,294 419,294 419,294 421,296 423,298 425,301 426,301 429,304 429,304 430,304 430,305 430,306 430,306 430,306 430,306 428,308 428,307 428,307 427,307 426,307 426,307 426,311 426,311 425,311 424,311 423,311 422,311 420,312 420,312 421,319 421,319 421,319 421,319 419,318 418,318 417,318 417,318 417,318 416,318 416,318 415,318 415,318 415,319 415,319 415,319 415,318 415,319 406,328 406,328 405,328 403,327 403,327 403,327 402,329 397,335 396,335 396,335 395,335 395,335 388,342 388,342 381,349 381,349 380,349 379,349 378,349 376,353 376,353 376,353 376,353 375,354 374,355 374,356 374,356 374,356 374,356 373,356 373,356 371,359 371,359 371,359 369,363 369,363 362,371 358,375 353,380 353,380 353,380 355,381 356,382 355,382 355,382 354,383 354,383 353,383 353,383 352,383 352,383 352,383 351,384 351,384 350,384 350,384 350,384 349,384 348,385 347,385 347,385 347,385 346,385 346,385 346,386 345,386 345,386 345,386 350,389 352,390 352,390 347,394 347,394 347,394 346,393 345,393 342,396 336,399 336,399 336,399 335,399 334,398 333,397 332,397 331,397 328,399 328,399 326,400 323,401 320,402 317,404 315,405 309,408 309,408 309,408 307,407 307,407 307,406 307,406 291,398 291,398 288,400 286,402 285,403 283,404 282,405 278,407 278,408 274,405 274,405 274,404 272,403 272,402 272,402 268,405 268,405 268,405 263,404 263,404 263,404 258,408 258,408 259,409 259,409 251,413 250,413 251,413 251,414 251,414 252,414 252,414 247,416 247,416 244,418 243,419 239,423 239,423 241,423 242,423 242,424 242,424 242,424 239,426 236,428 236,428 236,428 235,428 235,428 234,428 234,428 233,428 232,428 232,428 231,428 231,428 230,428 229,427 228,427 218,434 217,434 217,434 207,431 207,430 207,430 207,430 208,429 208,429 209,428 209,428 209,428 209,427 210,426 210,425 210,425 210,423 209,422 209,421 209,421 209,421 209,421 209,420 210,419 210,419 211,418 211,418 212,417 212,416 213,414 213,412 213,412 213,412 213,411 213,410 213,408 213,407 213,407 213,406 213,406 213,405 213,404 213,402 213,400 213,399 213,398 214,398 214,398 214,397 215,396 215,394 216,393 216,393 216,393 216,393 213,392 213,392 211,391 209,390 208,390 208,390 208,390 206,390 206,389 203,388 203,388 203,388 202,388 196,385 196,385 196,385 192,384 192,384 192,384 192,384 191,384 190,383 187,382 187,382 186,382 185,381 184,381 184,381 184,381 182,380 182,379 183,379 187,378 188,377 188,377 188,377 188,377 187,377 187,377 182,379 182,379 181,379 181,379 178,378 178,377 177,377 176,377 176,377 176,377 176,376 175,376 174,376 166,373 166,373 166,373 165,373 165,372 165,372 164,372 164,371 163,371 163,371 163,371 158,367 158,367 158,367 160,365 160,365 160,365 160,365 160,364 160,363 160,362 160,362 160,361 160,361 161,358 161,357 161,357 163,354 163,354 162,354 161,354 159,353 159,353 159,353 159,353 167,349 167,349 164,346 164,346 164,346 173,342 174,341 174,341 171,339 171,339 171,339 178,336 177,336 177,336 175,335 175,335 177,335 178,334 178,334 178,334 178,334 179,334 181,334 182,333 183,333 183,333 183,333 184,333 184,333 184,333 186,332 188,331 193,328 192,328 192,327 189,324 189,324 187,323 187,323 186,322 183,321 181,320 181,320 180,319 180,319 179,318 178,317 178,317 177,316 176,314 175,313 174,312 174,312 173,312 173,311 173,310 173,310 172,307 172,307 172,307 172,307 172,307 172,306 172,306 172,306 172,306 172,306 172,306 172,305 172,305 171,305 170,304 170,303 170,303 169,303 169,303 169,303 169,303 169,303 168,302 167,301 167,301 166,300 166,299 165,299 165,299 165,299 164,299 164,298 163,298 162,297 162,297 161,296 159,295 159,295 159,295 155,290 154,289 154,289 153,289 153,288 152,287 152,287 151,285 151,285 151,285 147,286 147,286 147,286 147,285 147,285 147,285 142,286 140,283 140,283 140,283 142,282 142,282 142,282 141,281 141,280 142,280 143,280 144,280 144,280 145,280 145,280 145,280 145,280 145,279 145,279 145,279 145,278 145,278 145,277 146,274 146,274 145,274 145,274 147,273 147,272 146,272 146,272 147,272 147,272 149,270 150,270 150,270 151,270 151,270 152,269 152,270 154,269 159,266 159,267 160,267 160,267 164,266 164,266 164,266 162,264 162,264 163,263 164,263 164,263 166,262 166,262 167,262 171,259 171,259 171,259 170,258 170,258 171,258 174,256 174,256 175,257 175,257 175,257 179,254 179,254 179,254 177,253 177,253 177,253 178,252 177,252 178,252 178,252 179,251 179,251 176,249 176,249 176,249 173,250 173,250 172,249 171,248 169,246 169,246 168,246 168,246 168,246 166,245 166,245 166,245 166,245 166,245 166,245 164,242 163,241 163,240 163,240 162,240 162,240 162,240 161,239 161,239 161,239 159,239 159,239 159,239 159,239 158,239 158,239 159,239 159,238 159,238 158,237 158,237 158,237 158,237 158,237 158,237 154,234 151,231 150,230 149,229 149,229 148,230 148,230 147,230 146,231 146,231 146,231 146,231 146,231 146,231 145,232 145,232 145,232 146,233 146,233 145,233 144,234 143,234 142,234 139,236 139,236 139,236 138,234 137,233 132,235 132,235 130,232 130,231 128,232 125,232 124,232 124,232 122,232 122,232 121,232 121,232 119,229 119,229 119,229 120,228 120,228 120,227 120,227 119,227 115,225 115,225 114,226 114,226 114,225 111,223 109,222 109,222 109,222 109,222 109,222 105,219 103,218 103,218 103,218 103,218 102,218 102,218 102,218 101,218 99,217 96,216 95,216 94,216 91,214 90,214 89,213 92,210 92,210 92,210 94,207 94,207 94,207 88,206 88,206 88,203 88,203 89,203 89,201 90,202 91,202 91,201 92,201 93,201 93,201 94,201 95,201 96,201 96,201 97,201 98,202 99,202 100,201 100,201 103,201 103,201 104,201 105,200 105,200 106,200 106,200 107,199 107,199 107,199 105,198 103,198 103,198 103,198 104,199 99,200 99,200 99,200 96,201 96,201 96,201 96,198 96,196 96,194 94,194 92,194 91,194 90,194 88,193 89,193 90,192 89,191 89,191 88,191 88,190 87,190 87,189 88,189 88,189 88,189 87,188 87,188 86,187 86,187 85,186 85,186 84,186 84,185 84,185 83,184 83,183 83,182 82,182 81,181 81,180 81,180 80,179 80,179 80,178 80,177 80,175 80,175 80,174 80,174 80,174 79,174 79,174 78,174 77,174 77,174 77,175 77,175 77,175 76,175 76,174 76,174 76,174 75,174 75,174 75,173 74,172 73,171 72,170 72,170 72,170 74,169 74,169 75,169 75,169 75,169 74,167 73,166 73,165 74,164 76,164 78,164 79,164 80,164 81,164 81,164 83,164 85,164 85,164 79,153 79,152 81,152 81,151 82,151 83,150 84,149 85,149 85,149 86,149 88,148 90,147 91,147 91,146 98,143 102,141 102,141 102,141 103,141 104,140 104,140 104,140 105,139 105,139 106,139 106,139 106,139 110,137 110,137 112,137 116,136 116,136 116,136 117,137 118,137 118,137 118,137 118,137 118,137 118,137 121,135 121,134 121,134 123,134 123,134 127,131 127,131 128,132 128,132 128,132 131,132 136,131 138,130 140,130 142,129 142,129 138,123 138,123 138,123 137,124 137,124 136,123 136,123 136,123 138,123 138,123 139,122 140,122 142,119 142,118 142,118 142,118 141,117 141,117 141,116 140,116 140,115 140,115 141,115 141,115 140,112 140,112 140,112 140,112 140,112 139,112 137,105 137,105 137,105 135,105 134,105 133,105 133,105 133,105 133,105 129,96 129,96 129,96 127,96 124,97 121,98 120,98 120,98 120,98 120,98 117,98 116,98 116,98 112,90 111,89 111,89 111,89 98,92 98,92 98,92 94,89 94,89 81,92 81,92 81,92 81,91 81,91 80,91 79,91 77,92 77,92 71,93 71,93 65,88 64,88 61,90 60,90 58,91 57,92 56,93 52,94 52,94 45,89 44,90 44,90 44,90 41,87 41,87 44,86 44,86 45,86 46,86 47,85 47,85 48,85 50,84 51,84 52,84 51,83 51,83 51,83 54,81 54,81 50,78 47,75 42,72 42,72 42,72 41,73 41,73 41,73 40,73 38,74 38,74 37,74 37,75 36,75 35,75 35,75 33,76 30,77 27,73 26,73 26,73 24,74 21,75 19,76 19,76 19,76 18,75 18,75 15,76 14,75 14,75 10,77 9,77 9,77 8,76 9,75 10,75 10,75 10,75 9,73 8,73 7,73 7,73 6,74 5,74 3,72 2,72 2,71 3,71 3,71 0,68 0,68 0,68 1,68 2,68 2,68 7,65 7,65 7,64 7,64 7,64 11,62 12,61 15,59 16,59 19,56 18,55 22,54 26,57 29,55 29,54 33,52 33,51 32,51 31,51 31,51 33,49 34,48 34,48 33,48 33,48 34,47 34,47 34,47 33,45 32,44 32,44 31,45 30,43 29,44 29,44 28,44 27,44 25,40 25,40 24,37 24,37 23,35 23,33 29,32 29,32 28,31 28,31 28,31 32,30 32,30 30,27 29,24 28,23 28,23 25,24 25,24 25,24 23,22 23,22 23,22 23,22 21,22 21,22 20,20 20,20 19,20 19,20 19,20 19,20 19,20 17,20 17,20 15,19 15,19 15,19 16,18 14,17 14,17 13,16 13,16 13,15 12,15 12,15 12,15 14,14 16,13 16,13 16,13 14,12 14,11 13,10" id="6215" class="canton" fill="steelblue" stroke-width="1" stroke="white" geotype="canton" geoname="Brebières" code_insee="6215" code_departement="62" nom_departement="Pas-de-Calais" code_region="32" nom_region="Hauts-de-France"/></svg>