<?xml version="1.0" encoding="utf-8"?>
<svg version="1.1" id="svgmap" xmlns="http://www.w3.org/2000/svg" xmlns:xlink="http://www.w3.org/1999/xlink" x="0px" y="0px" width="100%" height="100%" viewBox="0 0 407 500">
<polygon points="47,7 47,7 48,8 48,8 48,9 48,9 49,9 50,10 51,10 51,10 52,11 53,11 53,11 54,10 58,10 60,10 62,10 63,10 64,10 65,10 69,10 71,10 73,11 73,11 76,12 77,13 78,13 80,13 81,13 83,13 84,13 84,13 86,13 86,13 86,13 87,13 87,13 87,13 89,13 91,13 91,13 92,14 95,14 97,14 98,14 99,15 101,15 105,16 107,16 107,16 108,17 110,17 111,17 112,17 114,17 115,17 116,17 118,17 118,17 119,18 120,18 120,18 123,18 124,18 125,17 127,17 127,17 127,17 127,17 127,17 127,17 127,17 128,17 129,17 129,17 130,17 130,17 131,17 131,17 134,17 136,17 136,17 136,17 137,17 137,17 139,17 139,17 139,17 139,17 141,16 142,16 142,16 142,16 143,16 143,16 143,15 143,15 143,14 144,13 144,12 144,12 144,11 144,10 144,8 144,6 144,6 144,5 144,4 144,4 144,4 144,4 144,4 144,4 144,4 143,3 145,3 146,3 147,3 148,2 148,2 150,1 151,0 152,0 152,0 153,0 153,0 155,1 157,1 157,1 158,1 160,1 161,1 163,1 164,1 165,2 165,2 168,2 172,3 173,3 173,3 174,4 182,4 187,5 187,5 190,5 192,5 194,5 195,4 196,4 199,3 203,2 204,2 209,0 209,0 210,1 210,1 212,4 213,6 214,7 214,7 215,7 215,7 216,8 216,8 217,10 219,13 222,16 222,16 223,16 224,15 224,14 224,14 224,14 224,14 223,13 223,12 223,12 223,12 223,12 223,12 223,12 223,12 224,11 224,12 226,11 227,11 227,10 227,10 227,9 228,9 227,9 227,9 228,8 228,8 229,8 229,8 229,8 229,8 229,8 231,8 231,8 231,8 231,8 231,8 232,7 233,8 233,8 233,9 236,9 236,9 240,9 241,10 243,10 243,11 242,12 241,13 241,15 241,15 240,15 238,17 237,17 244,21 245,21 244,22 246,22 246,22 246,22 246,22 246,22 246,22 260,22 262,23 263,22 264,23 263,23 263,23 266,24 266,24 267,24 268,22 269,22 269,22 271,21 271,21 272,21 275,23 275,24 276,23 277,22 277,22 279,21 280,21 282,20 285,19 286,19 287,18 288,17 288,17 295,18 295,18 307,20 311,21 314,23 314,23 315,22 316,22 317,22 318,21 318,21 318,21 319,21 322,23 323,23 324,24 328,25 328,25 328,24 329,23 330,22 331,21 331,21 332,20 333,19 333,19 334,19 334,18 335,17 335,16 335,16 335,16 337,16 338,16 338,16 339,17 342,17 345,18 347,18 347,18 352,20 352,20 353,20 353,20 353,20 353,20 355,21 355,21 355,21 355,21 356,22 356,22 359,23 360,23 361,24 364,22 364,22 365,22 365,22 365,22 367,20 369,18 370,17 370,17 375,18 374,18 374,19 374,19 374,20 374,20 374,21 374,21 373,22 373,22 373,22 372,23 372,23 372,23 372,23 372,24 372,25 372,25 372,26 372,26 373,26 374,26 376,26 378,26 382,27 383,27 384,27 384,27 387,26 388,26 388,26 390,26 390,26 391,26 392,26 393,26 394,25 401,24 402,24 402,24 403,24 403,24 403,25 403,25 404,25 404,25 405,25 405,25 406,25 406,25 406,26 407,26 407,26 405,27 404,28 404,28 403,29 403,29 403,29 403,30 402,30 401,30 401,30 400,29 399,30 398,30 397,30 395,30 394,31 392,31 391,31 391,31 390,31 389,31 389,31 389,31 388,31 387,31 387,31 387,31 386,32 386,32 385,32 384,32 383,33 383,33 383,33 383,34 383,34 384,35 384,36 385,37 385,37 386,39 386,39 383,39 383,40 381,40 379,41 376,42 374,43 373,43 372,44 371,44 371,45 371,45 371,45 371,46 371,46 371,46 371,46 371,46 370,46 365,49 365,49 362,53 359,56 353,64 353,64 353,64 353,64 351,64 351,64 351,65 350,65 350,65 350,65 348,66 348,66 348,67 347,68 347,70 347,71 347,71 346,72 346,74 346,75 345,76 345,76 345,77 343,78 343,78 342,79 342,79 341,80 341,81 340,81 340,82 339,83 339,83 339,84 339,84 340,84 340,84 340,85 340,85 340,85 339,87 339,87 338,87 338,87 338,87 337,89 337,90 337,90 337,91 337,92 337,92 337,93 337,93 337,93 336,95 335,95 335,96 335,96 334,97 334,97 333,98 333,98 332,98 332,99 332,99 331,99 331,100 329,100 329,100 327,101 327,101 327,102 327,102 326,103 326,103 326,103 325,104 324,105 324,105 323,106 323,106 322,107 322,107 322,107 320,108 320,109 319,109 319,110 316,111 317,111 317,113 317,113 317,114 317,119 317,119 316,122 316,125 315,125 315,125 314,125 314,125 312,125 311,125 310,125 307,125 305,125 304,124 304,124 303,125 303,125 303,125 302,125 301,125 300,126 297,125 296,125 293,130 293,130 300,131 300,131 299,133 299,133 297,135 295,138 295,138 301,139 301,139 308,140 310,140 316,140 318,141 320,141 321,141 322,141 322,143 322,144 323,145 323,145 322,146 322,147 321,147 320,148 318,148 318,148 318,148 319,149 321,152 321,152 322,153 322,153 323,154 324,154 324,155 324,155 326,157 326,157 322,159 321,160 319,162 319,162 319,162 316,164 318,165 318,165 320,165 320,165 322,164 322,165 322,166 323,166 323,166 325,167 325,167 326,167 326,166 327,167 327,167 327,167 329,169 329,169 327,170 324,172 324,173 324,173 326,174 326,174 331,174 333,173 335,173 337,173 338,173 338,173 340,174 340,174 341,175 341,175 346,178 346,179 346,179 346,180 346,180 345,181 345,181 345,181 344,186 344,186 344,187 344,189 344,191 344,191 343,192 344,193 344,193 343,193 343,194 344,196 344,196 344,196 343,196 342,196 342,196 341,201 341,201 341,201 341,204 341,205 343,208 343,208 342,208 339,209 338,217 338,217 336,222 336,222 336,222 339,226 339,227 339,228 339,228 339,229 340,229 342,229 343,229 344,229 344,229 341,245 341,246 339,246 339,265 340,265 340,265 340,265 340,265 341,265 342,264 342,264 342,264 342,264 342,264 342,264 342,264 342,264 342,264 342,264 342,264 343,264 343,264 343,264 344,264 344,264 344,264 345,264 346,264 346,264 346,264 347,264 348,264 349,264 349,264 349,264 351,264 351,264 351,264 351,264 351,264 352,265 352,265 352,265 352,265 352,265 353,265 354,265 355,265 356,265 357,265 357,265 357,265 357,265 357,265 359,264 359,264 359,264 360,264 360,263 361,263 361,263 361,263 361,263 361,263 362,263 362,262 362,262 362,262 362,262 363,262 364,262 364,262 364,261 365,261 366,261 366,261 366,261 367,261 367,260 369,259 369,259 369,259 369,259 369,259 369,259 369,260 369,260 369,260 370,260 370,260 370,260 370,260 370,260 371,260 371,261 371,261 372,261 372,261 373,261 374,261 374,261 376,261 376,262 377,262 377,262 377,262 378,262 378,262 378,262 379,262 379,262 379,262 379,263 379,263 380,263 380,262 381,262 381,262 381,262 382,262 383,262 383,262 383,262 383,262 383,262 383,262 383,262 383,262 384,262 384,262 384,262 384,263 385,263 385,263 385,263 385,263 387,264 387,264 387,264 387,264 387,264 387,264 387,264 387,264 387,265 387,265 388,265 388,266 388,266 388,266 388,266 388,266 388,266 388,266 388,266 388,266 388,266 388,266 388,266 388,267 388,267 388,267 388,267 389,268 390,268 390,268 390,268 390,268 390,268 390,269 390,269 390,269 390,269 390,269 390,270 390,270 390,270 390,270 390,271 390,271 390,271 390,271 390,272 390,272 390,272 390,272 390,272 390,272 390,272 390,272 390,272 390,273 390,273 390,273 389,273 389,273 389,273 389,273 389,273 389,273 389,273 388,274 388,274 388,274 388,274 388,274 389,274 389,274 389,274 389,274 389,274 389,274 390,274 390,274 390,274 390,274 391,274 391,274 391,274 391,274 391,274 391,274 391,274 391,274 391,274 391,274 392,274 392,274 392,274 392,274 393,274 393,274 393,274 393,274 393,274 393,274 393,274 393,275 393,275 393,275 393,275 393,275 393,275 393,275 394,275 394,275 394,275 394,275 394,275 395,275 395,275 395,275 396,276 396,276 397,276 397,276 397,276 397,276 396,276 396,277 396,278 396,278 396,278 396,278 396,278 394,280 394,280 393,281 393,281 393,281 393,281 393,282 393,286 393,286 393,286 393,286 393,286 393,286 394,286 394,286 394,286 394,286 394,287 394,287 394,289 394,289 394,290 394,290 394,290 394,290 393,290 393,290 393,290 393,291 393,291 393,292 393,293 393,294 393,295 393,295 393,295 393,295 393,295 392,295 391,295 390,295 390,295 390,295 390,295 390,295 389,295 389,295 388,295 387,295 387,294 387,294 386,294 386,294 385,294 384,294 384,294 383,294 382,294 382,294 382,294 382,295 382,295 382,295 382,295 382,295 382,295 383,295 383,295 383,295 383,295 383,295 383,295 383,296 383,296 383,296 383,296 383,296 383,296 383,296 383,296 383,297 383,297 383,297 383,297 383,297 383,297 383,297 383,297 383,297 383,297 383,298 383,298 383,298 383,298 383,298 383,298 383,298 383,298 383,298 383,298 384,298 384,299 384,299 384,299 384,299 384,300 384,300 384,300 384,300 384,300 384,300 384,301 384,301 384,301 384,301 384,302 384,302 384,302 384,302 384,302 384,302 384,302 385,302 385,303 385,303 385,304 385,304 386,304 386,305 386,305 386,305 386,305 386,305 386,305 386,306 386,306 387,307 387,307 387,307 387,308 387,308 387,308 388,308 388,308 388,308 388,308 388,308 388,308 388,308 388,309 388,309 387,309 387,309 387,309 387,309 387,309 387,309 387,309 387,309 387,309 387,309 387,309 387,309 387,309 387,309 387,309 387,309 387,309 386,309 384,309 384,309 384,309 384,309 384,309 384,309 384,309 384,309 384,309 383,310 383,310 383,310 383,310 383,310 385,311 385,311 385,311 385,311 385,311 385,311 385,311 385,311 385,312 385,312 385,312 385,312 386,312 386,313 386,313 388,313 389,316 390,316 391,316 392,316 393,316 393,315 396,313 396,314 398,316 398,316 397,316 396,317 395,317 394,319 393,320 393,320 392,322 392,323 392,324 392,325 391,327 389,329 389,330 389,331 389,333 389,335 387,341 387,341 387,344 386,348 386,348 384,353 384,354 382,359 382,360 382,360 365,362 361,362 343,362 343,362 342,363 342,363 342,363 342,363 342,363 342,364 342,364 342,364 341,364 341,364 341,364 341,365 341,365 341,365 341,365 341,365 341,365 341,365 341,365 341,365 341,366 341,367 341,367 341,367 341,367 341,368 341,368 341,368 341,368 341,368 341,368 341,368 341,368 341,368 341,369 340,369 340,369 340,369 340,369 340,369 340,369 340,370 340,370 340,370 340,371 340,372 340,372 340,373 339,374 339,375 339,375 339,375 339,375 339,375 339,375 339,375 339,375 339,375 339,375 339,375 339,375 338,375 338,375 338,375 338,375 338,375 338,375 338,375 337,375 336,375 334,376 333,376 332,376 332,376 332,376 332,376 331,376 331,376 331,376 331,377 331,377 331,377 331,377 331,377 331,377 331,377 332,377 332,377 332,377 332,377 332,377 332,377 332,378 332,378 332,378 332,378 332,378 332,378 332,378 332,378 332,378 332,378 332,378 332,378 332,378 331,378 331,378 331,378 331,378 331,378 331,378 331,378 330,378 330,378 330,378 330,378 330,378 330,378 330,378 329,377 329,377 329,377 328,377 328,377 328,377 327,377 326,377 326,377 326,377 326,377 326,377 326,377 326,377 326,377 326,377 326,378 326,378 326,378 326,378 326,378 326,378 326,378 326,378 326,379 326,379 326,379 326,379 326,379 326,380 326,380 326,380 326,380 326,380 326,380 326,381 326,381 326,381 326,382 326,382 326,382 326,382 326,382 326,383 326,383 326,383 326,383 326,383 326,383 326,383 326,382 326,382 325,382 325,382 325,382 325,382 324,382 324,382 324,382 324,382 324,382 324,382 324,382 324,382 324,382 324,382 324,383 324,384 324,388 323,389 323,389 323,389 323,389 323,390 323,390 323,390 323,390 323,390 323,390 323,390 323,390 323,390 323,390 323,390 323,390 323,390 323,390 323,390 321,390 321,390 320,390 320,390 320,390 320,390 320,390 319,390 319,390 319,390 319,390 319,390 319,390 319,390 319,390 319,390 319,390 319,390 319,391 319,391 319,391 319,391 319,391 319,392 319,393 319,393 319,393 319,394 319,394 319,394 319,394 319,394 319,395 319,395 319,395 319,395 319,395 319,396 319,396 319,396 319,396 319,396 319,396 319,396 319,396 319,396 319,396 319,396 319,396 319,396 318,396 318,396 318,396 316,396 316,396 315,396 315,396 315,396 315,396 315,396 315,396 315,396 315,396 315,396 315,396 314,399 314,406 314,408 314,411 312,416 311,421 311,421 311,421 311,421 312,421 312,421 312,421 312,421 312,421 313,421 313,421 313,422 313,422 313,422 314,422 314,422 314,422 316,422 316,422 316,422 317,422 317,422 317,422 317,422 318,422 319,422 319,422 319,423 320,423 320,423 320,423 321,423 321,423 321,423 321,423 321,423 321,423 322,423 322,423 322,423 322,423 322,423 322,423 322,423 322,423 322,423 322,423 322,423 322,423 322,423 322,424 323,424 323,424 324,424 325,424 325,424 325,424 325,424 325,425 325,425 325,425 325,425 326,425 326,425 326,425 326,425 326,425 326,425 326,425 326,425 327,425 327,425 327,425 327,425 329,424 329,424 329,424 330,424 330,424 330,424 331,424 331,424 331,424 331,424 331,424 331,424 332,424 332,424 332,424 332,424 332,424 333,424 333,425 333,425 333,425 334,425 334,425 334,425 334,425 334,425 334,425 334,425 334,425 335,425 335,425 335,425 335,425 335,425 335,425 335,425 336,426 336,426 336,426 336,426 336,426 336,426 336,426 337,426 337,426 337,426 337,426 337,426 337,426 337,426 338,427 338,427 338,427 339,427 339,427 339,427 339,427 339,427 339,427 339,427 339,427 339,427 339,427 339,427 339,427 339,427 339,427 339,427 339,427 339,427 340,427 340,427 340,427 340,427 340,427 340,427 340,427 340,427 340,427 340,427 341,427 341,427 341,427 341,427 341,427 343,428 345,429 348,429 348,429 348,429 348,429 348,429 348,429 348,429 348,429 348,429 348,429 348,430 348,430 348,430 348,430 348,430 348,430 348,430 348,430 348,430 348,430 348,430 348,430 348,430 348,430 349,430 349,430 350,430 350,430 351,430 351,430 351,430 351,430 351,430 351,430 352,431 353,431 353,431 354,431 354,431 354,431 355,431 356,432 356,432 357,432 357,432 357,432 358,432 358,432 359,433 360,433 361,434 363,434 364,434 365,435 367,435 370,436 372,437 373,438 374,438 374,438 375,438 375,438 375,438 375,438 375,438 375,438 375,438 375,438 375,438 375,438 375,438 375,439 375,439 375,440 375,440 375,440 375,440 375,440 374,440 374,440 374,441 374,441 374,441 374,441 374,441 374,441 373,442 373,442 373,442 373,442 373,442 373,442 373,442 373,442 372,442 372,442 372,442 372,443 372,443 372,443 371,443 371,443 371,443 371,443 371,443 371,443 371,443 371,443 371,443 371,443 371,443 371,443 371,443 371,443 371,443 371,444 371,444 371,444 372,445 372,445 372,445 372,445 372,445 372,445 372,445 372,445 372,445 371,445 371,445 371,445 371,445 370,445 370,445 370,446 369,446 369,446 368,446 367,447 366,447 366,448 363,449 362,450 361,450 361,451 359,451 359,452 358,452 358,452 358,452 358,452 358,452 358,452 358,452 358,452 358,452 358,452 357,453 357,453 357,453 357,453 357,454 356,454 356,455 356,455 356,455 356,455 356,455 355,455 355,455 355,456 355,456 354,456 354,456 354,456 354,457 354,457 353,457 353,457 353,457 353,457 353,457 353,457 353,457 353,457 353,457 354,458 354,458 354,459 354,459 354,459 354,459 354,459 354,459 354,459 354,459 354,459 354,460 354,460 354,460 354,460 354,460 354,460 354,460 354,460 354,460 354,460 354,461 354,461 354,461 354,461 354,461 354,461 354,461 353,461 353,461 353,461 353,461 353,461 352,461 352,461 352,461 352,461 351,461 351,461 351,461 351,461 350,462 350,462 350,462 350,462 350,462 350,462 350,462 350,462 350,462 349,462 349,462 349,462 349,462 349,462 349,462 349,463 349,463 348,463 348,463 348,463 348,464 348,464 348,464 347,464 347,464 347,464 347,465 347,465 345,468 345,469 345,469 345,469 345,470 345,470 344,470 344,470 344,470 344,470 344,470 344,470 344,470 344,470 344,470 344,471 344,471 344,472 344,472 344,472 344,472 344,473 344,473 344,473 344,473 344,473 344,473 344,474 344,474 344,474 344,474 344,474 344,474 344,474 344,474 343,475 343,475 343,475 343,475 343,475 343,475 343,475 343,475 343,475 343,475 343,475 343,475 342,475 342,476 341,476 341,476 340,476 340,476 340,476 340,477 340,477 340,477 340,477 339,477 339,477 339,477 338,477 338,477 338,477 338,477 338,477 338,477 338,477 337,477 337,477 337,477 337,477 336,477 336,477 336,477 336,477 336,477 336,477 335,477 335,478 335,478 335,478 335,478 334,478 334,478 333,478 332,479 331,479 331,479 330,479 330,479 329,479 329,480 329,480 329,480 329,480 329,480 328,480 328,480 328,480 327,480 327,480 327,481 327,481 327,481 327,481 326,481 326,481 326,481 326,481 326,482 325,482 325,482 325,482 325,482 324,483 324,483 324,483 324,483 324,483 324,483 323,484 323,484 323,484 323,485 322,485 322,485 322,486 322,486 322,486 322,486 322,487 322,487 322,487 322,487 322,488 322,488 322,488 322,488 321,488 321,489 321,489 321,489 321,489 321,489 320,489 318,489 313,489 313,489 313,489 312,489 312,489 312,489 312,489 312,489 312,489 312,489 311,489 311,489 311,489 311,489 309,489 309,489 308,489 308,489 308,489 308,489 308,489 308,489 308,489 306,488 305,488 305,488 305,488 305,488 305,488 305,488 305,488 305,488 304,488 304,488 304,488 304,488 304,488 303,488 303,488 303,488 303,488 302,488 296,487 294,487 294,487 294,486 294,486 294,486 294,486 294,486 294,486 294,486 294,486 293,486 293,486 293,486 293,486 293,486 292,486 291,486 291,486 290,486 290,486 289,486 289,486 289,486 289,486 289,486 288,486 288,486 287,486 286,486 286,486 284,485 283,485 283,485 283,485 283,485 283,485 283,485 282,485 282,485 282,485 282,485 282,485 282,485 282,485 281,485 281,485 281,485 281,485 280,485 280,485 279,485 279,486 278,486 276,486 276,486 275,486 274,486 274,486 274,486 274,486 273,486 273,486 273,486 272,486 272,486 272,486 272,486 272,486 272,486 271,486 271,486 271,486 271,486 270,486 270,486 270,486 270,486 270,486 269,486 269,486 268,486 268,486 268,486 267,486 267,486 266,486 266,486 266,486 266,486 266,486 266,486 266,486 266,486 266,486 266,486 266,486 266,486 266,486 266,486 266,486 266,486 266,486 266,486 266,487 266,487 266,487 266,487 266,487 266,488 266,488 266,488 266,489 266,489 266,489 266,489 265,489 265,489 265,489 265,489 265,490 265,490 265,490 265,490 265,490 265,490 265,491 265,491 264,491 264,491 264,492 264,492 264,492 264,492 264,492 264,493 263,493 263,493 263,493 263,493 263,493 263,494 263,494 263,494 263,494 263,494 262,494 262,494 262,494 262,495 262,495 262,495 262,495 262,495 262,495 262,495 261,495 261,495 261,496 261,496 261,496 261,496 261,496 261,496 261,496 261,496 261,496 261,497 261,497 260,497 260,497 260,497 260,497 260,497 260,498 260,498 260,498 260,498 260,498 260,498 260,499 260,499 260,499 260,499 260,499 260,499 260,499 260,499 260,499 260,499 260,499 260,500 260,500 260,500 260,500 260,500 260,500 260,500 260,500 260,500 260,500 260,500 260,500 260,500 260,500 260,500 260,500 260,500 260,500 260,500 259,500 259,500 259,500 259,500 259,500 259,500 259,500 259,500 259,500 259,500 258,499 257,499 257,499 256,499 256,499 256,499 256,499 255,499 255,499 255,499 255,499 255,499 255,499 255,499 254,498 254,498 254,498 253,498 253,498 253,498 252,497 252,497 251,497 251,497 251,497 251,497 251,497 250,497 250,497 250,497 250,497 250,497 250,497 250,497 249,497 249,497 249,497 248,497 248,497 248,497 248,497 247,497 247,497 247,497 246,497 246,497 246,497 246,497 245,497 245,497 245,497 245,497 245,497 245,497 245,497 245,497 244,497 244,497 244,497 244,497 243,497 242,496 240,496 239,496 239,496 239,495 239,495 239,495 239,496 239,496 239,496 239,496 239,496 239,496 239,496 239,496 239,496 239,496 239,496 239,496 239,496 239,496 239,496 239,496 239,497 239,497 239,497 239,497 239,497 239,497 239,497 239,497 239,497 239,497 239,497 238,497 238,497 238,497 238,497 238,497 237,497 237,496 237,496 237,496 237,496 237,496 236,496 236,496 236,496 236,496 236,496 236,496 236,496 236,495 236,495 236,495 236,495 236,495 236,495 236,495 235,494 235,494 235,494 235,494 235,494 235,494 235,494 235,494 235,494 235,494 234,494 234,493 231,492 230,491 230,491 230,491 230,491 230,491 230,491 230,491 230,491 230,490 230,490 230,490 230,490 230,490 230,490 230,490 230,490 230,490 230,490 229,490 229,489 228,489 228,488 227,488 227,488 227,488 227,487 226,487 225,487 225,486 225,486 225,486 225,486 225,486 225,486 225,486 225,486 225,486 225,486 225,486 224,486 223,486 203,488 204,487 204,486 203,482 203,480 202,476 193,470 192,469 189,468 184,464 201,424 201,424 200,424 200,424 200,424 200,424 199,424 199,424 199,424 199,424 198,423 198,423 198,423 197,423 197,423 197,423 197,423 197,423 197,423 197,423 197,423 197,423 197,423 197,423 197,423 197,423 197,423 197,423 197,423 197,423 197,423 197,422 197,422 197,422 197,422 197,422 197,422 197,422 197,422 197,422 197,421 197,421 197,421 197,421 197,421 198,420 198,420 198,420 198,420 198,419 198,419 198,419 198,419 198,419 198,419 198,419 198,419 198,419 198,419 198,419 198,419 198,419 197,419 196,419 196,419 195,419 195,419 195,419 194,419 194,419 194,419 193,420 193,420 191,420 191,420 191,420 191,420 191,420 191,420 191,420 191,420 191,420 191,418 191,414 191,413 191,413 191,413 191,413 191,413 191,413 191,413 191,413 191,413 191,413 191,413 191,412 192,412 192,412 192,412 192,411 192,411 192,411 192,410 192,410 192,410 192,409 192,409 192,409 192,408 192,408 192,407 192,407 192,406 192,406 192,405 192,405 193,404 193,404 193,404 193,404 193,404 193,404 193,404 193,403 193,403 193,403 193,402 193,402 193,402 193,402 193,402 193,402 193,402 193,402 193,402 193,402 193,402 193,402 193,402 193,402 193,401 193,401 193,401 193,401 193,401 193,401 193,401 193,401 193,401 193,400 193,400 193,400 193,400 193,399 193,399 193,399 193,399 193,399 193,398 193,398 193,398 193,397 193,397 193,397 193,397 193,397 193,397 193,397 193,397 193,397 193,397 193,397 193,397 193,397 193,397 193,397 193,397 193,397 193,397 193,397 193,397 192,397 192,397 192,397 192,397 192,397 192,397 192,397 192,397 191,397 189,397 189,397 189,397 189,397 189,397 189,397 189,397 189,397 189,397 189,398 189,398 188,398 187,398 187,398 186,398 186,398 186,398 185,398 185,398 185,398 185,398 185,398 185,398 185,398 185,398 185,398 185,398 185,398 185,398 185,398 185,398 185,397 185,397 185,397 185,397 185,397 185,397 185,397 185,396 185,396 185,396 185,396 185,396 185,396 185,396 185,396 185,396 185,396 185,396 185,396 186,396 186,396 186,396 186,396 186,396 186,396 186,396 186,396 186,396 186,395 186,395 186,395 186,395 186,395 186,395 186,395 186,395 186,395 186,395 186,395 186,395 186,395 186,395 186,395 185,395 185,395 185,395 185,395 184,395 184,395 184,395 184,395 184,395 184,395 184,395 184,395 184,395 184,395 184,395 184,395 184,395 184,395 184,395 184,395 184,395 184,395 184,395 184,395 184,395 184,395 184,395 184,394 184,394 184,394 184,394 184,394 184,394 184,394 184,394 184,394 184,393 184,393 184,393 184,393 184,393 184,393 184,393 184,393 184,393 184,393 184,392 184,392 184,391 184,391 184,391 184,391 184,391 184,391 184,390 184,390 184,390 184,390 184,390 184,390 184,390 184,390 184,390 184,390 184,390 184,390 184,390 184,389 184,389 184,389 184,389 184,389 184,389 184,389 183,389 183,389 183,388 183,388 183,387 183,387 183,387 183,387 183,387 183,387 183,387 183,387 182,386 182,386 182,386 182,386 182,385 182,385 182,385 182,385 182,385 182,385 182,385 182,385 182,385 182,385 182,385 182,385 182,385 182,385 182,385 182,385 182,385 182,385 182,385 182,385 182,385 182,385 182,385 182,385 182,385 182,385 182,385 182,385 182,385 182,384 182,384 182,383 181,382 181,382 181,382 181,382 181,382 181,381 181,381 176,382 174,381 174,381 174,381 174,381 174,381 176,381 176,381 179,379 179,379 186,375 189,370 189,370 189,370 190,368 189,368 188,369 186,369 185,369 185,369 178,369 177,369 177,369 169,371 169,371 169,371 152,371 152,371 152,367 152,367 151,364 151,363 151,362 152,361 152,361 152,360 152,358 152,358 152,357 152,356 152,356 152,355 152,355 151,355 151,355 151,355 148,355 147,356 144,357 144,357 143,357 142,357 142,357 142,357 141,356 141,356 141,356 141,354 141,351 142,350 142,350 143,341 143,341 143,339 143,339 144,338 144,337 143,336 143,336 142,335 142,335 142,334 142,334 140,330 139,327 139,327 139,326 139,324 136,323 136,323 134,321 133,320 133,320 133,320 131,319 130,318 130,318 128,318 127,317 126,317 126,317 125,316 125,316 125,316 125,316 125,316 125,316 125,315 124,315 123,314 123,314 122,313 121,313 120,312 119,311 119,311 119,310 119,310 119,310 119,309 119,309 119,309 120,308 121,308 121,308 121,307 121,307 122,307 122,306 123,305 124,305 124,305 124,305 124,304 124,303 124,302 124,302 124,302 124,301 124,301 125,300 125,299 126,298 126,298 126,298 127,296 127,295 127,295 127,295 127,295 127,294 128,293 129,290 129,290 129,290 130,289 130,288 130,288 130,288 132,284 133,284 134,283 135,283 135,283 137,283 137,283 137,283 139,282 139,281 140,280 140,279 139,278 137,276 136,275 134,274 133,274 131,273 130,273 129,272 126,269 125,268 124,267 122,266 120,265 122,262 125,257 128,253 129,249 131,249 132,249 132,247 133,247 134,246 134,246 135,245 135,244 135,244 134,244 134,244 135,241 136,241 142,242 143,242 144,242 146,242 146,242 146,242 147,239 147,239 149,234 149,233 149,233 150,232 150,232 150,232 152,233 158,232 158,232 159,233 159,233 160,233 161,235 162,235 163,235 163,235 164,236 164,236 165,237 165,237 166,237 167,238 167,238 168,238 171,238 171,238 172,238 174,238 175,238 175,238 175,238 176,239 176,239 176,239 177,238 177,238 180,224 181,221 182,218 184,217 185,216 183,210 183,210 179,210 176,209 174,209 173,208 172,208 166,209 164,209 164,209 163,208 162,208 161,208 159,207 157,206 154,206 145,206 145,206 144,206 143,206 143,206 141,206 139,205 138,205 136,205 131,206 127,206 125,206 124,206 124,206 123,207 123,208 123,209 122,209 121,209 121,209 120,209 120,209 117,209 118,209 118,209 118,208 118,208 119,208 119,208 119,208 119,208 120,208 120,208 121,208 121,207 121,207 122,207 122,207 121,206 121,206 121,206 121,206 121,206 121,206 122,206 122,205 122,205 122,205 122,204 122,204 122,204 122,204 121,204 121,204 121,203 121,202 121,202 121,202 121,201 121,201 120,201 120,201 119,201 119,201 119,201 119,201 119,201 119,200 119,200 118,200 118,200 118,200 118,199 118,199 117,199 116,199 116,198 116,198 117,198 117,198 116,198 116,198 115,197 115,197 115,197 115,196 115,196 115,196 114,196 114,196 114,196 114,196 114,195 115,194 115,194 115,194 115,193 115,193 114,193 114,193 114,193 113,193 112,191 112,190 111,190 111,189 111,189 110,189 110,189 110,189 109,190 109,190 108,190 108,190 108,190 108,190 107,190 107,190 107,189 107,189 106,189 105,189 105,189 105,188 104,188 104,188 103,187 102,186 101,186 100,186 100,185 100,185 99,184 98,184 98,184 98,184 98,183 98,183 97,183 96,183 96,183 95,182 95,182 95,182 96,181 96,181 96,180 95,179 95,179 94,179 94,179 93,179 93,178 92,178 92,177 92,177 93,176 93,175 93,175 92,175 91,175 91,174 91,174 91,174 91,174 91,174 90,173 90,173 89,173 89,173 89,173 89,172 89,171 88,171 88,171 88,171 87,170 87,170 85,170 85,170 84,170 84,169 83,169 83,168 83,168 82,167 82,167 83,166 82,166 82,164 82,164 82,164 81,164 80,163 80,161 80,161 80,160 80,160 79,160 79,160 79,159 79,159 79,158 79,158 80,159 81,159 81,158 81,158 81,157 81,157 80,157 79,157 79,157 78,157 78,157 77,156 76,154 74,153 74,152 73,151 73,151 73,150 73,149 73,149 72,149 72,149 70,149 69,149 68,149 67,150 67,150 67,151 67,151 66,151 66,151 65,151 62,151 61,150 59,151 59,150 57,150 55,149 53,147 52,147 51,148 51,148 49,148 48,149 47,148 46,147 45,147 44,147 42,147 41,146 41,147 39,148 38,149 38,149 37,149 37,149 36,148 35,147 35,147 35,146 35,146 34,145 34,145 32,146 32,146 31,146 30,146 30,146 30,147 30,147 30,148 30,149 29,149 28,149 28,149 26,148 26,148 23,147 21,146 21,146 20,146 19,147 19,147 19,147 19,146 19,146 18,146 17,146 17,146 14,145 12,144 11,144 10,144 9,144 9,144 8,143 9,142 9,142 8,141 8,141 7,140 7,140 6,140 0,138 0,138 0,138 0,138 1,138 1,138 2,137 3,137 4,137 5,137 5,137 7,136 7,136 9,135 11,134 11,134 12,133 13,133 13,132 15,131 15,130 15,129 16,129 16,128 16,128 16,127 17,127 18,125 19,125 19,124 19,124 20,123 20,123 21,120 22,119 23,117 23,117 23,117 27,114 28,114 30,112 31,111 32,111 32,111 33,111 37,108 37,108 37,108 38,106 39,106 38,105 37,105 37,104 37,104 37,103 36,103 36,103 36,102 36,102 36,102 35,101 35,101 35,101 35,100 35,100 35,100 35,100 34,100 34,100 34,99 34,99 34,99 34,98 33,98 33,98 33,98 33,97 33,97 32,97 32,97 32,97 32,96 31,96 31,96 32,96 31,95 31,95 31,94 31,94 30,93 30,93 29,93 29,93 29,92 29,91 28,91 28,91 27,90 27,90 27,90 27,89 27,89 26,89 26,88 26,88 26,88 26,88 26,87 26,87 26,87 25,86 25,86 25,86 25,85 25,85 25,84 25,84 26,84 26,83 26,83 26,82 26,81 26,81 27,80 26,79 26,79 26,79 25,78 25,78 25,78 25,78 24,78 24,78 24,78 24,78 24,78 23,77 23,77 23,77 23,77 24,76 24,76 24,76 25,75 25,75 24,75 25,75 25,74 24,74 24,74 24,74 24,74 24,74 24,74 23,74 21,74 21,74 20,74 20,74 20,74 19,73 19,73 12,70 12,69 10,68 9,67 9,67 6,67 6,67 6,66 6,66 6,65 6,65 6,64 6,63 6,63 7,62 7,62 8,60 8,59 9,58 11,56 11,56 11,56 11,56 12,55 13,53 13,53 16,50 16,50 16,49 16,48 16,48 17,47 18,46 18,46 18,45 18,45 18,43 18,42 18,42 18,41 18,40 19,39 19,39 19,39 20,37 20,37 20,35 20,34 20,33 20,32 20,32 21,30 21,30 21,29 20,28 21,27 21,26 20,25 20,24 19,22 19,22 19,22 18,21 27,19 29,18 30,18 30,18 30,18 31,18 33,16 33,16 37,13 38,13 37,12 37,12 37,12 37,12 38,11 40,9 40,9 43,8 47,7" id="6301" class="canton" fill="steelblue" stroke-width="1" stroke="white" geotype="canton" geoname="Aigueperse" code_insee="6301" code_departement="63" nom_departement="Puy-de-Dôme" code_region="84" nom_region="Auvergne-Rhône-Alpes"/></svg>