<?xml version="1.0" encoding="utf-8"?>
<svg version="1.1" id="svgmap" xmlns="http://www.w3.org/2000/svg" xmlns:xlink="http://www.w3.org/1999/xlink" x="0px" y="0px" width="100%" height="100%" viewBox="0 0 500 297">
<polygon points="159,71 160,71 160,71 160,70 161,70 161,70 161,70 161,70 162,71 162,71 162,71 163,71 163,70 163,70 163,70 163,70 164,70 164,70 164,70 164,70 165,70 165,70 165,71 165,71 165,71 165,71 166,72 166,72 167,72 168,71 168,71 169,72 169,72 171,72 172,72 173,71 174,71 174,71 174,71 175,71 176,70 178,70 178,70 180,71 180,71 180,70 181,70 181,70 181,70 182,70 182,70 183,70 183,70 183,70 184,70 185,71 185,71 185,70 186,70 186,70 187,69 187,69 187,69 187,69 188,70 189,70 189,70 189,69 190,69 190,69 190,69 191,70 191,70 192,70 192,70 193,70 193,70 193,70 194,70 194,70 194,70 195,69 195,69 196,69 196,69 196,69 197,69 197,69 197,69 198,69 198,69 198,69 199,70 199,70 199,70 199,70 199,70 200,70 200,70 200,70 200,70 201,70 201,70 201,70 201,70 202,70 201,69 201,69 201,69 201,68 201,68 201,68 200,67 200,67 200,67 199,67 198,67 198,67 198,66 198,65 198,65 198,64 198,64 198,63 199,62 199,61 199,60 199,60 199,60 198,60 198,60 198,60 198,59 198,59 197,58 197,58 197,57 197,57 197,57 197,56 197,55 197,54 197,54 197,53 196,53 196,53 196,53 196,52 196,52 196,52 196,51 196,51 196,51 196,50 196,50 196,50 196,50 195,50 195,50 194,49 193,49 193,49 193,49 193,49 193,49 195,48 195,48 195,48 196,48 196,47 196,47 197,47 197,47 197,46 197,46 197,46 197,46 197,45 197,45 197,45 197,44 196,44 195,43 195,43 195,43 195,43 194,43 193,42 193,42 192,42 192,42 192,41 192,41 192,41 192,41 192,40 191,40 191,40 190,40 190,40 190,40 190,40 189,40 189,40 189,40 189,40 189,40 189,41 189,41 189,41 189,42 189,43 189,43 188,43 188,43 188,43 187,43 185,43 184,43 183,44 183,44 183,44 182,44 182,44 182,44 181,44 178,45 178,45 178,45 177,45 177,45 176,45 176,45 176,45 175,44 174,44 174,44 173,44 173,44 172,44 172,44 171,44 170,45 169,45 168,45 168,45 165,45 163,45 162,45 160,45 159,45 158,45 157,45 157,45 157,45 156,44 156,44 156,44 156,43 156,43 155,43 155,42 154,41 154,41 153,40 153,40 152,40 152,39 152,38 151,38 151,38 151,37 151,37 150,37 150,36 149,36 148,36 147,36 147,35 146,35 146,34 145,34 145,34 145,34 145,33 146,33 146,32 146,32 146,32 146,31 146,31 145,31 145,31 145,31 146,30 146,30 146,30 145,29 145,29 146,29 146,29 144,28 144,28 144,28 146,29 146,29 146,28 146,28 146,28 146,28 146,28 146,27 146,27 146,27 146,26 146,26 146,26 146,26 146,25 147,25 147,25 146,24 146,24 146,24 147,23 147,23 147,22 147,22 148,22 148,22 149,22 150,22 150,22 152,21 152,21 152,21 152,21 153,21 153,21 153,21 153,22 153,22 154,22 154,22 155,23 155,23 156,23 156,23 157,23 157,22 157,22 158,22 158,22 158,22 159,22 160,22 160,22 160,22 161,22 161,22 162,21 163,21 163,21 164,21 164,21 164,21 165,21 165,21 167,21 168,21 168,21 168,21 168,21 169,22 169,22 169,22 170,22 171,22 172,22 172,22 173,22 173,22 173,22 174,22 174,22 174,22 174,22 175,22 175,22 176,21 176,21 177,21 178,21 178,21 179,21 179,21 179,21 179,21 180,22 180,22 181,22 181,22 182,22 182,22 183,22 183,23 184,23 184,23 185,23 186,23 187,24 187,24 187,24 189,22 192,19 193,18 194,18 194,18 194,17 194,16 194,16 193,15 193,15 193,15 195,14 195,13 196,12 197,11 197,10 198,10 198,9 198,9 198,9 199,9 200,9 200,9 201,9 201,9 201,9 201,9 202,8 202,7 202,7 203,7 203,7 203,7 203,7 205,6 207,6 210,5 214,4 216,4 221,2 221,2 223,2 231,0 236,0 238,1 239,1 240,1 241,1 242,1 247,1 250,2 253,2 255,2 255,6 256,6 257,6 257,6 258,7 262,7 266,9 264,10 266,12 269,13 270,12 271,11 273,12 273,11 275,13 277,13 280,14 280,14 280,14 278,14 278,16 279,16 279,16 279,17 280,17 280,18 283,21 285,19 287,21 287,21 288,22 288,22 289,22 289,22 287,23 286,23 285,24 283,25 282,25 282,25 281,25 280,25 279,25 278,26 277,26 276,26 275,27 275,27 273,27 273,27 273,28 271,29 270,29 268,29 267,29 268,29 269,30 273,30 285,31 287,30 289,30 290,30 293,30 295,30 296,31 298,32 299,33 302,34 306,37 307,38 307,38 306,38 306,39 305,39 301,39 300,42 299,43 299,47 297,49 298,50 298,51 298,51 298,51 298,51 297,53 296,54 296,54 296,54 297,55 298,55 299,54 298,53 299,53 300,51 303,50 306,49 312,46 313,47 313,48 313,49 313,49 313,49 313,52 312,53 312,53 313,55 313,55 314,57 315,59 315,64 315,65 315,67 316,68 317,69 320,71 320,71 321,72 321,72 322,73 322,73 322,74 323,74 325,76 325,77 326,78 327,80 328,81 328,82 328,82 322,83 319,83 316,85 315,85 314,85 312,85 312,85 310,85 309,86 309,86 308,87 308,87 307,87 306,88 305,88 301,89 299,90 298,91 297,91 297,92 293,94 290,95 289,96 288,97 286,96 284,96 282,96 278,94 275,94 273,93 269,93 266,92 264,92 262,91 259,90 259,90 257,89 257,89 256,89 256,89 258,93 258,93 258,93 259,95 259,95 259,96 260,96 260,96 261,97 260,98 260,98 260,98 260,99 260,99 261,100 261,101 261,102 263,102 263,102 263,102 262,103 262,104 263,104 264,104 264,104 264,106 264,107 263,108 263,109 263,109 263,110 265,110 266,110 267,110 267,110 271,110 273,110 274,110 275,109 276,109 278,109 279,109 280,109 281,109 282,109 283,109 286,108 287,108 288,108 291,108 291,107 292,107 294,107 295,107 295,107 297,107 297,107 298,107 300,107 301,107 301,107 303,106 305,106 306,106 308,105 311,105 311,105 313,107 315,109 316,110 317,111 318,113 318,113 319,114 319,114 321,115 321,115 322,116 322,116 323,117 323,117 323,119 323,119 324,120 327,121 328,121 329,121 329,121 329,123 329,123 329,125 330,125 330,126 330,127 330,128 330,129 330,131 330,133 330,133 331,135 331,136 331,136 331,136 331,136 332,137 333,139 333,140 333,140 333,140 333,140 333,141 333,141 333,142 334,144 334,145 334,145 334,145 334,145 334,146 334,148 334,148 334,148 334,149 334,149 334,149 334,151 334,151 334,151 334,152 334,152 334,152 334,153 334,154 334,154 328,155 327,155 323,156 321,156 320,157 316,159 310,161 309,162 309,162 310,162 310,163 311,163 312,163 312,163 313,162 314,162 315,162 316,162 316,162 317,162 317,162 318,161 320,161 320,161 323,161 323,161 326,161 326,161 327,162 328,163 328,163 329,164 329,164 329,165 329,166 329,168 329,169 330,169 330,170 330,171 330,171 331,172 331,174 331,175 332,176 332,176 332,177 332,177 332,178 332,178 333,179 333,181 334,181 334,182 334,182 334,183 334,184 334,185 335,186 335,186 334,187 334,189 333,189 332,190 332,190 332,190 331,191 331,192 331,193 332,193 332,194 331,194 331,194 331,195 331,196 331,196 331,197 331,197 331,197 331,198 332,198 332,199 332,200 332,201 332,202 332,203 331,204 331,204 332,205 332,206 332,206 333,207 333,207 333,208 334,209 334,210 334,211 334,211 334,212 335,212 335,212 337,211 338,211 339,211 340,210 341,210 344,208 346,207 346,207 347,207 347,207 349,206 349,206 350,206 350,206 352,206 353,206 356,205 357,205 358,204 359,205 359,205 360,205 362,205 363,205 364,204 364,204 365,203 364,203 364,203 364,203 364,202 365,202 364,202 364,202 365,201 365,200 365,200 365,199 365,199 365,199 365,198 366,197 366,197 366,197 366,197 366,197 368,196 371,193 371,193 372,192 372,192 373,191 373,190 373,190 375,192 377,194 378,194 378,194 379,195 380,195 381,196 381,196 382,197 384,198 385,199 385,199 388,200 389,201 388,197 386,191 384,189 383,184 382,184 382,181 383,174 386,174 389,175 389,175 390,175 391,175 391,175 392,176 392,177 392,177 392,177 392,177 393,178 394,175 395,175 395,175 396,175 399,177 400,177 401,178 401,178 402,178 403,180 405,181 406,180 407,180 407,180 408,180 408,181 409,181 409,181 408,179 408,179 409,179 413,181 414,182 415,182 416,182 418,182 419,183 419,183 420,183 424,186 424,187 425,187 427,188 428,188 429,188 431,188 432,188 433,189 434,189 440,194 440,194 455,196 461,196 467,197 468,197 468,198 478,199 479,199 479,198 478,197 478,196 486,197 487,196 487,196 489,196 491,197 493,197 493,197 495,198 495,198 495,198 495,198 498,215 497,215 499,223 500,230 500,230 499,230 499,230 497,229 496,229 493,228 493,229 491,235 491,240 491,240 491,246 490,253 490,253 486,255 485,255 482,256 472,256 471,256 466,256 464,256 462,257 460,257 455,258 453,258 452,259 448,258 447,258 446,257 445,257 445,257 442,257 442,257 441,257 441,258 440,258 439,258 439,258 438,259 436,260 435,260 434,261 432,261 432,261 426,261 422,261 418,261 416,261 413,261 412,261 410,262 407,262 404,262 403,262 401,262 395,263 394,263 391,264 389,264 389,264 388,264 386,263 382,263 379,264 375,264 371,264 371,265 371,265 368,265 366,265 363,265 363,265 357,265 356,266 352,266 349,266 344,267 344,268 344,268 339,269 339,269 339,270 339,270 334,271 335,272 334,272 333,272 333,272 333,271 332,271 331,272 331,272 331,272 330,272 329,270 328,271 325,272 325,272 325,273 325,273 325,273 324,274 324,274 323,274 323,274 323,274 322,274 321,274 320,274 319,273 319,273 319,273 317,273 317,273 317,273 316,273 316,273 316,273 316,274 313,274 312,274 310,273 310,273 310,274 308,273 307,273 304,273 304,273 304,274 304,275 303,276 303,276 302,276 301,276 300,276 300,276 300,276 298,276 298,276 297,276 297,276 296,276 295,276 295,276 295,276 295,276 294,276 294,276 293,276 293,276 293,275 293,274 291,274 288,274 288,274 288,274 288,274 287,274 286,274 285,274 283,273 281,274 281,273 280,273 279,273 276,272 273,271 273,271 273,271 272,271 272,271 267,270 267,270 264,270 264,270 263,270 262,270 262,270 261,269 260,269 260,268 260,269 260,269 259,270 259,271 259,271 259,271 259,271 258,272 258,272 258,272 257,272 257,272 256,272 255,272 254,272 252,271 252,271 251,271 248,272 247,272 245,271 245,271 244,272 244,272 241,273 238,274 238,274 236,275 235,275 235,275 235,275 233,275 233,275 233,276 233,276 233,276 232,276 231,276 231,276 230,276 230,277 229,278 229,278 228,278 228,278 228,278 228,278 227,278 224,278 224,278 222,279 222,278 220,278 219,278 217,278 216,278 213,278 210,278 208,278 208,278 207,278 205,278 205,278 203,278 202,278 200,278 199,277 197,278 196,278 194,278 193,278 192,278 192,278 191,278 190,277 189,277 188,277 187,276 186,276 184,276 183,276 182,276 182,276 181,276 181,276 180,276 179,276 179,274 179,274 178,274 178,273 178,273 178,272 178,271 179,271 179,270 179,270 177,269 176,268 176,268 175,268 173,268 172,268 172,268 172,268 172,266 172,266 173,265 175,265 176,264 176,264 176,262 174,259 174,258 173,257 173,257 173,257 173,256 175,255 175,255 174,255 174,254 173,253 173,253 173,252 173,251 173,251 173,250 173,250 174,250 174,250 174,250 174,249 174,248 174,247 174,247 174,247 174,246 174,246 174,246 173,245 171,244 171,244 171,243 172,242 172,242 172,241 172,238 172,238 172,238 172,238 171,239 171,239 169,239 169,239 168,239 167,239 165,239 165,239 164,239 164,239 163,239 162,239 161,238 160,238 159,238 159,238 157,237 156,237 155,237 154,237 154,237 154,237 153,237 153,237 152,237 152,238 151,238 151,238 150,239 148,240 148,240 148,240 147,240 146,240 145,240 145,239 145,240 143,239 142,239 141,239 141,240 139,240 139,240 137,239 136,239 133,239 131,240 130,240 129,241 128,241 122,246 120,246 118,245 117,245 117,245 115,245 114,245 114,245 106,244 106,244 104,244 103,244 100,244 96,243 95,243 94,244 93,244 92,243 91,243 91,243 91,244 91,246 90,246 89,248 87,251 86,253 82,256 82,256 81,257 79,261 79,261 78,263 77,263 76,265 76,265 76,266 76,268 76,269 76,269 76,270 78,274 78,275 78,276 79,277 80,277 81,278 81,279 81,280 82,281 83,284 87,288 88,289 88,290 88,290 89,291 90,294 90,294 88,294 88,293 87,294 87,295 87,295 86,295 85,295 83,294 82,294 82,294 82,295 81,295 77,295 75,296 74,296 74,296 73,295 73,295 72,296 72,296 70,296 69,297 68,297 66,297 62,295 60,295 59,294 58,294 57,294 57,294 57,294 57,293 54,292 53,291 48,290 45,288 44,288 44,288 44,288 41,288 38,287 37,287 34,286 33,286 27,285 26,284 26,284 27,284 25,283 23,281 22,281 22,280 21,279 21,279 20,278 19,277 18,277 18,277 15,276 15,276 14,276 13,276 11,276 9,276 8,276 7,276 6,275 4,275 3,275 2,274 2,274 1,274 1,273 1,272 0,272 0,272 0,272 9,261 24,244 24,244 24,244 20,242 20,241 19,241 19,241 19,241 18,240 18,240 18,240 17,239 16,239 16,238 14,238 14,238 13,238 12,237 11,237 10,236 9,235 9,235 7,234 7,234 5,232 4,231 4,231 4,229 4,228 4,228 4,227 3,225 3,225 3,225 3,223 3,222 3,220 3,220 3,219 3,219 3,218 3,217 3,216 3,216 3,215 4,214 5,213 6,212 8,210 8,210 9,209 10,209 10,208 10,208 10,207 10,206 11,206 11,206 12,206 13,205 13,205 14,202 15,202 15,202 13,200 13,199 12,197 12,197 11,195 11,195 11,194 10,194 10,194 9,194 9,194 6,194 6,194 6,194 6,194 7,191 8,190 8,189 8,188 8,187 8,186 8,185 8,184 8,183 8,183 8,182 8,181 8,180 8,177 9,176 10,175 12,174 14,173 16,172 20,171 22,171 22,170 26,168 29,167 30,166 30,166 30,166 32,165 33,165 33,165 33,165 34,165 38,164 38,164 38,163 38,162 38,162 38,162 38,161 39,161 39,160 41,160 41,159 42,159 44,159 45,159 46,158 46,158 49,156 51,155 51,155 51,155 52,155 53,154 54,154 55,154 57,153 57,153 59,152 65,149 70,147 71,147 74,146 75,145 76,145 77,144 77,144 78,143 78,143 80,143 80,143 82,143 82,143 83,143 85,142 85,142 87,141 88,141 89,141 90,140 94,140 95,140 95,140 96,140 97,140 98,140 98,140 98,140 100,139 101,139 101,138 102,138 103,138 104,138 106,138 108,137 110,137 110,137 112,137 113,137 114,137 115,137 116,137 117,137 117,137 118,137 120,136 121,135 122,135 123,135 123,135 123,135 123,135 124,135 125,135 126,135 127,135 128,135 130,135 131,135 132,135 132,135 134,135 134,135 136,135 137,135 137,135 138,134 140,133 141,132 141,132 142,132 143,132 144,132 145,133 145,133 145,133 146,133 146,132 148,132 149,132 149,132 149,132 146,131 146,131 144,130 142,129 141,129 140,129 138,128 138,128 137,127 137,127 136,126 138,124 138,124 138,124 138,123 139,123 139,123 140,122 140,122 140,122 140,120 140,120 140,119 139,118 138,116 138,115 138,115 138,115 138,114 138,114 137,113 137,113 137,111 138,111 138,110 139,109 140,108 142,106 144,106 147,106 148,106 149,106 150,106 150,105 151,105 152,102 151,102 151,101 150,100 150,100 150,100 149,99 148,99 147,97 146,95 144,93 146,93 149,93 149,93 149,93 150,92 150,92 150,91 150,91 150,90 151,89 154,87 154,87 155,87 155,88 156,84 157,81 157,80 157,80 157,79 157,78 157,78 157,77 158,76 158,76 158,76 158,75 158,75 158,75 158,75 158,74 159,73 160,73 160,73 160,72 160,72 159,71 159,71" id="6309" class="canton" fill="steelblue" stroke-width="1" stroke="white" geotype="canton" geoname="Châtel-Guyon" code_insee="6309" code_departement="63" nom_departement="Puy-de-Dôme" code_region="84" nom_region="Auvergne-Rhône-Alpes"/></svg>