<?xml version="1.0" encoding="utf-8"?>
<svg version="1.1" id="svgmap" xmlns="http://www.w3.org/2000/svg" xmlns:xlink="http://www.w3.org/1999/xlink" x="0px" y="0px" width="100%" height="100%" viewBox="0 0 500 456">
<polygon points="77,227 75,224 70,217 70,216 70,216 70,215 71,215 72,215 73,215 78,215 82,214 90,213 91,213 93,213 93,213 92,209 92,208 92,204 94,204 95,204 96,204 101,203 103,202 119,198 123,197 122,197 118,194 114,193 116,191 123,189 123,189 125,189 129,190 136,191 137,191 140,191 141,191 137,189 134,185 132,184 132,184 132,184 128,180 126,179 122,176 123,176 131,173 132,173 136,171 141,170 149,167 153,166 154,166 154,166 155,168 155,170 155,170 159,170 162,170 165,169 172,168 179,167 181,167 187,167 198,165 198,165 199,164 199,164 201,164 202,164 203,164 207,164 207,164 208,165 209,163 211,154 211,150 211,145 210,142 210,134 211,127 211,125 211,123 210,120 211,116 212,114 212,111 214,105 214,102 218,91 234,92 237,89 237,87 237,85 241,77 236,75 239,68 242,65 247,65 252,64 255,64 256,63 253,60 249,58 249,57 250,56 246,55 243,54 245,49 244,49 249,48 251,48 253,48 254,47 256,43 259,39 260,38 265,34 268,34 269,30 268,29 268,29 268,26 267,23 267,22 267,20 269,17 271,11 271,10 276,13 282,16 285,18 294,23 297,20 300,18 302,15 305,13 307,12 304,8 303,6 304,4 303,0 304,0 304,0 304,1 304,1 305,3 305,4 305,4 306,5 308,5 309,6 309,6 310,6 310,6 310,7 310,8 311,8 312,9 312,9 312,11 312,12 312,12 312,14 313,15 314,15 315,17 315,17 317,17 318,17 319,19 319,20 319,20 318,22 317,23 318,23 318,24 319,24 322,24 323,25 323,26 323,26 323,26 323,27 325,27 326,28 327,29 327,30 329,31 331,31 334,33 335,35 336,35 337,36 337,36 337,36 340,37 341,37 342,38 342,38 342,39 343,40 343,40 344,39 344,39 345,38 346,38 347,37 348,37 348,37 349,37 349,38 350,38 351,39 352,40 355,45 355,45 356,45 356,45 357,45 357,46 358,46 358,46 358,47 355,50 355,50 355,50 355,50 355,51 357,50 357,51 357,52 357,52 357,53 358,53 360,54 360,54 361,54 361,55 360,55 360,56 360,56 363,57 363,58 363,58 363,58 364,59 364,59 366,59 366,59 366,60 366,61 366,61 366,61 367,61 367,61 368,61 369,61 370,62 370,62 370,63 370,64 370,64 370,66 371,66 371,66 372,66 373,66 373,67 372,69 372,70 372,70 371,70 370,70 369,71 369,71 369,71 370,72 371,72 371,72 371,73 371,73 370,74 369,74 368,74 368,74 367,74 366,74 366,74 365,75 364,76 364,76 363,76 363,76 363,78 367,78 367,78 369,77 370,77 372,76 374,76 374,75 375,73 375,72 376,71 378,71 381,71 391,70 399,70 405,70 407,70 410,70 413,70 414,70 417,70 419,70 419,70 437,71 443,72 446,73 451,75 453,75 454,76 457,76 458,76 461,76 472,76 474,76 476,76 480,77 487,79 495,79 496,79 500,90 497,93 494,95 490,102 489,107 483,135 483,136 481,137 481,137 481,138 479,136 479,136 478,136 476,136 473,136 471,136 470,137 464,136 463,136 462,136 461,135 459,133 459,133 457,132 456,131 454,130 454,130 452,129 450,129 449,125 446,126 446,125 445,123 445,123 432,126 428,124 428,124 427,124 426,126 426,126 425,127 423,137 423,137 421,144 421,144 420,144 416,144 413,144 412,143 400,142 397,142 396,147 396,147 398,147 398,147 397,150 396,151 395,152 394,153 392,154 392,158 389,158 387,159 385,165 379,174 372,185 368,190 372,193 376,195 378,197 380,198 386,205 388,207 389,207 394,208 396,209 399,211 402,213 407,217 408,219 408,220 407,223 406,224 402,227 402,227 401,227 399,227 398,227 396,227 394,228 392,228 388,236 388,236 388,237 387,238 386,240 386,241 385,242 383,247 382,250 382,251 382,251 381,252 381,252 381,253 379,257 379,257 379,257 378,259 378,261 377,264 377,264 377,264 376,265 376,266 376,268 376,269 376,270 375,271 375,271 374,272 372,274 371,275 370,275 370,276 370,276 369,277 368,277 367,278 366,279 365,280 365,281 365,281 365,282 366,282 366,283 368,285 369,286 371,287 373,290 374,290 377,292 377,292 377,293 377,293 377,293 377,293 377,294 378,294 380,295 380,295 383,296 385,296 388,297 388,297 390,298 394,301 395,301 395,302 395,303 399,308 400,308 405,310 406,314 406,315 406,315 407,321 412,329 412,330 413,332 413,332 414,334 414,334 415,336 415,337 415,339 415,340 414,344 414,345 411,361 411,362 411,364 411,370 410,374 410,375 411,375 411,375 412,376 413,376 414,376 415,376 417,375 421,374 425,372 430,371 430,371 431,372 432,372 432,373 432,373 432,373 432,375 432,378 432,378 432,382 432,384 432,385 431,387 431,388 431,390 432,396 432,396 432,403 432,403 408,404 404,403 403,403 396,404 386,407 386,407 386,407 386,407 385,408 382,427 381,431 379,432 378,435 378,437 377,437 377,437 377,437 375,437 373,438 370,438 367,439 365,439 364,439 362,439 360,438 359,438 357,438 355,438 348,438 342,438 338,438 338,438 334,438 334,438 331,437 329,436 327,436 326,436 323,434 320,434 319,433 318,433 317,435 305,434 306,435 306,437 306,437 306,437 291,436 291,435 291,435 283,434 275,433 253,431 253,431 244,424 243,423 243,423 241,423 238,423 237,423 235,422 233,421 232,421 231,420 226,416 225,416 224,415 222,415 220,414 218,414 217,414 216,413 211,411 210,410 210,410 211,412 210,413 210,413 209,412 208,412 207,411 207,411 206,413 203,411 200,409 200,409 199,408 199,408 196,407 193,405 191,405 191,405 190,405 189,408 188,407 188,407 188,407 188,407 187,407 186,405 185,405 184,404 184,404 183,404 179,403 174,403 174,413 174,417 174,418 177,424 178,427 182,436 183,440 182,440 178,438 177,437 176,436 173,435 172,434 172,434 170,432 169,432 168,431 168,431 167,430 164,428 161,426 161,426 161,426 160,427 160,428 158,430 158,430 154,433 152,434 152,435 152,435 152,436 152,436 151,436 150,437 149,438 149,438 150,439 150,439 150,440 149,441 149,442 149,442 149,442 149,443 149,443 149,443 150,444 149,444 148,445 147,446 145,447 143,446 142,446 141,445 140,445 139,445 137,446 133,447 133,447 130,447 129,447 128,447 127,448 126,449 126,449 124,449 123,449 121,451 117,452 115,453 114,454 113,454 111,455 109,456 109,456 108,456 107,455 107,455 107,452 107,451 105,450 105,449 105,448 104,448 104,447 104,446 104,445 104,444 104,443 104,442 104,441 104,439 104,438 104,437 104,437 104,436 104,435 104,435 103,434 103,433 103,433 103,431 104,431 104,430 104,430 104,429 104,428 104,427 104,426 104,425 105,425 106,424 107,424 108,421 108,420 108,420 108,418 107,417 107,416 107,415 107,414 107,414 106,413 106,411 105,409 105,409 105,408 104,407 104,407 104,407 104,405 103,404 103,400 102,400 102,399 102,398 101,397 101,396 101,395 100,392 100,391 100,390 100,390 99,388 98,388 97,387 96,386 96,385 93,385 92,385 88,386 88,385 85,386 84,386 83,386 82,386 82,386 81,386 80,387 78,387 77,388 76,388 76,388 75,388 74,387 73,387 72,387 74,386 82,382 89,379 90,379 91,378 98,378 99,377 107,376 107,376 107,374 107,373 107,373 107,372 107,372 108,371 108,371 108,369 108,370 108,368 108,368 108,367 108,367 107,365 107,363 107,363 107,363 107,363 107,361 106,360 106,359 106,358 106,357 105,357 105,356 105,356 105,356 104,353 104,351 103,351 104,351 103,351 103,350 102,347 102,346 102,344 102,342 102,340 101,338 101,337 101,336 101,335 100,333 101,332 100,331 100,330 100,330 97,330 93,328 93,328 93,328 92,325 92,325 91,324 90,323 90,322 90,322 87,321 87,320 86,320 85,319 84,317 83,316 82,314 78,310 76,308 76,308 72,309 68,310 67,310 65,310 62,311 61,311 60,311 57,311 56,311 56,311 54,311 53,311 52,311 50,311 48,312 47,312 44,312 42,313 41,313 37,313 35,314 34,314 32,314 32,314 31,314 27,314 27,314 25,315 23,315 21,315 16,315 15,315 14,315 13,315 10,315 9,314 9,314 10,312 11,311 11,310 10,307 10,307 10,307 9,306 8,306 10,304 10,304 9,304 7,304 7,302 6,302 5,300 5,300 5,299 6,299 6,298 6,297 6,296 6,296 4,296 4,295 3,294 3,292 2,291 2,291 0,287 0,286 1,287 1,287 4,288 4,288 7,289 11,290 13,291 18,292 24,292 26,293 29,294 36,295 38,296 41,296 44,297 45,295 46,294 51,293 56,290 57,289 58,288 59,288 61,286 67,285 68,284 70,284 71,283 72,283 73,282 73,281 74,281 76,281 77,281 79,280 81,280 82,280 87,278 91,278 99,277 99,277 99,276 97,273 96,271 95,270 94,268 92,266 91,265 90,265 90,264 90,263 90,263 88,262 87,261 83,258 82,257 81,256 81,253 80,252 81,245 79,242 78,240 78,239 77,237 77,237 78,235 79,231 79,231 79,231 78,230 78,228 77,227" id="6325" class="canton" fill="steelblue" stroke-width="1" stroke="white" geotype="canton" geoname="Riom" code_insee="6325" code_departement="63" nom_departement="Puy-de-Dôme" code_region="84" nom_region="Auvergne-Rhône-Alpes"/></svg>