<?xml version="1.0" encoding="utf-8"?>
<svg version="1.1" id="svgmap" xmlns="http://www.w3.org/2000/svg" xmlns:xlink="http://www.w3.org/1999/xlink" x="0px" y="0px" width="100%" height="100%" viewBox="0 0 500 413">
<polygon points="73,69 75,71 83,75 91,80 95,83 100,87 105,94 108,96 111,98 112,101 112,103 117,109 119,113 120,116 120,117 140,112 152,109 177,103 179,103 184,99 183,94 184,92 191,73 204,58 213,47 223,33 210,30 186,20 183,19 188,13 190,10 194,7 197,6 200,4 203,2 204,0 204,0 206,1 207,2 207,3 208,4 209,5 209,6 210,8 210,10 211,13 212,15 213,17 214,18 215,19 217,21 219,22 223,25 228,26 241,29 243,24 249,26 258,28 263,29 268,30 272,29 275,29 279,28 285,26 289,24 295,22 301,20 305,20 305,18 307,18 307,18 307,19 307,19 308,20 308,20 308,20 309,20 310,19 316,19 319,20 326,21 328,22 330,23 334,25 336,27 337,28 338,27 339,28 340,29 347,28 351,27 354,25 358,21 366,23 368,27 361,47 360,47 361,50 362,55 362,56 365,55 366,55 371,55 376,54 379,55 378,58 376,61 374,65 373,66 369,74 367,78 365,79 362,81 360,81 354,81 353,80 350,80 350,80 346,84 338,91 336,92 343,98 362,110 401,123 440,124 462,120 487,116 498,131 499,132 500,133 478,142 482,143 484,145 485,145 486,145 490,145 491,148 490,150 491,152 492,153 492,155 491,156 484,156 485,162 489,166 489,167 486,170 484,170 484,172 484,174 485,174 488,173 488,173 489,174 488,176 480,178 480,180 475,185 460,195 458,198 450,201 447,203 447,204 442,206 440,205 439,205 429,207 424,208 421,209 420,208 418,209 414,207 415,199 406,189 403,185 398,180 385,183 376,173 381,170 375,167 375,167 371,165 368,163 368,163 367,164 366,165 364,166 364,167 363,168 359,168 352,172 350,174 349,176 347,177 345,179 344,179 342,180 341,182 334,185 332,187 326,190 325,191 322,192 319,193 319,194 318,194 316,196 315,197 312,196 310,196 308,195 307,195 303,198 305,198 318,207 311,211 314,216 314,218 313,220 307,223 306,226 306,228 308,230 311,231 313,232 312,235 306,235 300,236 294,236 290,237 286,241 284,252 283,258 285,262 296,275 239,272 236,272 235,271 233,271 229,272 224,271 221,277 217,282 210,282 201,282 192,292 189,295 197,305 199,310 198,317 195,324 194,326 189,331 182,336 174,340 160,344 157,345 155,348 155,351 158,354 165,360 166,368 165,370 164,370 163,370 161,368 159,367 158,365 156,364 155,364 153,365 152,366 151,368 150,370 147,371 144,369 142,368 139,368 137,369 136,371 134,372 130,370 129,370 128,371 127,373 126,374 124,375 120,374 119,375 120,378 119,379 116,380 114,381 105,384 100,391 99,398 98,400 97,402 96,406 96,407 93,413 79,407 77,406 75,405 75,404 76,402 76,402 77,397 77,397 78,396 78,396 79,391 79,391 79,390 80,386 81,384 86,367 87,362 89,359 89,358 89,357 90,353 90,353 88,353 87,353 82,354 81,354 81,354 80,349 80,347 80,347 79,347 77,346 75,346 74,346 73,346 72,347 71,347 70,347 68,347 67,346 67,346 68,345 72,341 72,340 73,337 73,337 71,333 71,332 71,332 70,332 69,331 69,331 71,330 71,328 72,327 73,319 74,316 74,315 74,313 75,309 74,309 72,310 72,310 72,309 70,308 69,307 68,305 67,303 66,303 62,301 62,300 62,300 59,299 57,298 55,298 54,297 54,297 54,297 52,297 52,296 53,296 53,296 56,294 56,294 57,294 62,295 62,295 63,295 65,292 65,291 65,290 63,285 63,284 63,282 63,282 66,281 66,280 66,273 66,273 67,273 68,271 68,270 68,270 68,268 67,266 67,266 67,266 68,265 69,265 69,264 71,261 72,260 73,260 73,260 74,260 75,260 76,259 78,259 79,258 79,258 80,258 81,258 81,258 82,257 83,256 83,256 83,256 84,257 85,256 86,256 87,256 87,255 87,255 88,254 89,254 89,253 90,252 91,251 93,250 94,250 96,249 97,249 98,248 98,248 99,248 99,247 99,245 99,244 99,240 100,239 100,238 101,238 102,237 104,236 104,235 104,235 105,235 108,234 109,234 109,233 109,233 109,233 110,233 111,234 112,234 112,233 114,233 114,233 115,233 117,233 118,233 118,233 118,233 119,232 120,231 122,230 122,229 123,228 123,227 123,226 122,225 122,223 122,222 122,221 121,220 120,218 119,217 119,217 118,217 118,217 117,217 117,217 117,216 117,215 116,214 116,213 116,212 116,210 116,208 116,207 116,204 116,204 116,202 116,201 116,201 116,201 115,199 115,199 114,198 114,197 113,196 112,195 109,194 109,193 107,192 107,191 105,190 103,188 103,188 101,189 100,189 97,189 92,190 91,190 90,195 89,196 89,197 89,197 88,197 87,197 85,199 84,199 82,200 81,201 81,201 80,202 79,202 79,202 78,202 76,203 71,203 70,203 69,203 67,203 66,203 64,199 64,199 64,198 66,190 66,190 66,190 66,190 57,189 28,186 26,186 16,185 1,183 1,183 1,182 0,181 0,180 1,180 1,176 1,175 0,174 0,174 2,169 2,168 2,168 2,167 2,167 2,167 1,167 1,166 1,165 1,165 1,163 1,162 1,161 0,160 1,159 0,158 1,157 0,156 0,156 0,155 2,155 5,153 8,151 8,151 9,150 10,148 12,147 16,145 18,143 21,141 22,140 22,140 23,139 23,139 23,139 23,138 23,138 26,135 26,134 30,130 30,130 30,130 31,130 31,130 32,130 36,131 39,131 41,131 41,131 42,131 43,129 43,130 43,129 45,125 45,125 45,125 46,124 45,123 46,123 65,84 67,80 67,80 70,76 70,75 73,69" id="6406" class="canton" fill="steelblue" stroke-width="1" stroke="white" geotype="canton" geoname="Bayonne-3" code_insee="6406" code_departement="64" nom_departement="Pyrénées-Atlantiques" code_region="75" nom_region="Nouvelle-Aquitaine"/></svg>