<?xml version="1.0" encoding="utf-8"?>
<svg version="1.1" id="svgmap" xmlns="http://www.w3.org/2000/svg" xmlns:xlink="http://www.w3.org/1999/xlink" x="0px" y="0px" width="100%" height="100%" viewBox="0 0 500 324">
<polygon points="2,72 2,70 5,67 5,63 32,64 45,67 53,57 60,54 68,50 63,46 61,45 64,40 67,37 76,38 77,39 78,37 79,37 80,36 80,36 84,31 91,22 97,18 112,13 116,11 123,6 134,4 139,0 139,1 141,1 142,1 143,2 144,1 147,2 150,3 154,7 153,8 154,9 155,10 156,11 156,12 158,14 159,14 162,14 162,14 165,14 166,17 166,19 166,21 166,22 166,24 165,24 165,25 166,26 166,26 166,27 165,27 164,28 164,29 165,29 166,29 168,29 171,31 173,32 174,33 177,35 179,36 180,35 181,33 185,36 189,37 190,37 190,37 191,37 192,35 194,35 195,32 196,32 199,33 200,35 201,35 203,35 204,35 204,34 209,36 211,37 213,37 215,37 215,37 216,37 218,37 219,37 218,38 220,39 220,40 227,41 236,42 236,39 241,39 241,42 241,44 240,49 237,54 226,68 224,74 219,104 220,108 222,115 222,118 222,120 221,123 214,136 213,139 214,139 236,127 240,126 244,126 247,124 248,124 251,124 256,126 264,128 267,129 277,138 281,140 289,139 292,141 302,141 303,141 307,140 318,141 320,140 321,141 321,141 323,142 323,142 324,143 325,142 326,142 328,143 328,144 330,144 331,144 332,145 332,146 336,146 338,146 340,147 342,148 347,151 348,151 350,152 351,152 353,151 356,151 358,151 360,152 361,155 362,157 366,157 368,157 376,158 379,158 380,159 388,155 389,155 390,155 390,154 391,155 392,155 405,153 409,153 418,150 422,153 429,162 431,164 433,164 434,165 434,165 434,166 434,167 439,171 440,172 440,174 440,174 446,179 447,179 449,184 451,186 451,187 452,189 454,192 453,194 456,200 463,210 464,210 469,208 469,208 470,208 473,212 475,214 479,219 493,221 493,222 492,228 491,232 491,233 493,234 496,233 498,235 500,236 500,237 499,237 498,238 499,239 500,240 500,240 499,241 498,241 498,243 496,247 496,254 488,255 475,257 464,259 457,260 452,261 449,262 441,265 437,267 430,274 419,282 400,295 383,300 364,306 354,310 333,318 315,320 299,324 271,322 243,314 229,305 224,300 225,300 231,295 234,292 234,292 236,292 237,292 242,293 243,292 245,291 246,290 248,288 251,282 252,281 253,278 255,276 255,274 253,273 250,273 246,274 245,274 243,274 243,274 242,270 242,268 242,268 247,254 246,250 240,249 237,252 235,253 232,254 227,255 226,254 226,253 225,254 224,253 223,252 220,251 219,250 217,249 212,248 210,248 205,248 205,248 204,248 204,248 204,248 203,248 203,247 203,247 203,247 202,247 201,248 199,248 194,250 190,252 187,253 183,254 180,255 178,255 175,255 171,255 168,254 161,253 157,252 156,255 146,253 143,252 140,250 138,249 137,248 136,247 135,246 134,245 134,243 133,242 133,240 133,238 132,237 132,237 131,236 131,235 130,235 129,234 129,234 128,235 126,237 124,238 122,239 119,241 117,243 114,248 110,246 72,229 61,222 66,216 66,214 65,210 65,209 64,208 54,187 54,186 54,181 53,174 53,173 54,170 56,166 56,166 63,148 64,141 63,134 63,131 60,113 56,108 48,102 37,95 29,89 22,86 19,85 0,75 2,72" id="6405" class="canton" fill="steelblue" stroke-width="1" stroke="white" geotype="canton" geoname="Bayonne-2" code_insee="6405" code_departement="64" nom_departement="Pyrénées-Atlantiques" code_region="75" nom_region="Nouvelle-Aquitaine"/></svg>