<?xml version="1.0" encoding="utf-8"?>
<svg version="1.1" id="svgmap" xmlns="http://www.w3.org/2000/svg" xmlns:xlink="http://www.w3.org/1999/xlink" x="0px" y="0px" width="100%" height="100%" viewBox="0 0 469 500">
<polygon points="0,383 0,380 8,342 10,329 10,327 10,316 10,313 12,303 12,300 12,296 11,277 9,260 9,260 9,259 7,233 7,231 7,228 7,222 5,199 5,193 4,180 4,177 9,176 21,176 22,176 28,176 32,176 36,177 42,178 54,180 67,182 81,183 81,179 78,177 73,175 65,170 69,158 69,155 69,147 70,145 71,143 71,141 71,140 76,141 78,141 81,141 83,141 84,141 86,141 89,142 95,143 100,144 108,145 109,145 112,146 114,147 117,149 118,149 118,149 119,148 121,143 124,137 113,135 106,133 101,132 99,131 95,131 93,130 93,130 93,129 93,125 94,124 95,124 97,123 100,124 100,123 101,123 100,112 100,106 99,105 100,101 102,97 103,93 103,92 104,84 104,82 105,81 107,78 108,76 108,75 107,74 104,73 103,72 93,63 91,61 88,59 85,58 79,55 78,54 78,54 77,53 77,52 74,51 73,51 72,50 71,49 71,47 72,46 73,46 74,45 76,44 78,44 81,43 86,42 92,42 99,43 109,44 129,46 136,47 147,47 153,46 162,44 183,38 196,34 233,24 247,20 263,14 278,12 280,11 282,9 286,8 291,6 294,6 299,6 306,6 318,6 331,8 361,13 365,13 375,14 381,13 385,13 387,12 390,12 396,10 408,6 414,4 417,3 418,3 428,0 428,4 426,10 424,17 421,26 417,42 417,44 413,51 413,52 412,54 407,65 403,73 403,74 400,79 399,79 397,84 372,133 372,134 373,134 372,135 372,135 372,136 369,141 369,141 369,141 368,143 367,143 367,143 364,143 361,143 356,142 354,142 354,142 354,142 353,142 353,142 348,147 348,147 344,151 344,152 344,153 344,153 344,154 343,154 343,155 342,156 338,158 335,161 330,164 328,165 326,167 326,168 325,168 322,170 318,173 316,173 315,174 315,174 316,176 316,177 316,178 316,180 316,180 317,182 317,183 316,185 316,186 316,186 317,187 317,188 318,188 318,188 318,189 319,189 318,190 316,197 316,197 317,198 317,199 316,204 316,205 316,206 316,206 317,208 317,208 336,210 348,212 350,212 387,216 398,217 399,217 398,217 398,217 396,226 395,228 395,229 399,233 399,234 401,233 404,234 405,234 410,233 414,232 414,232 415,232 415,231 417,231 417,230 418,230 421,229 422,228 425,225 425,225 427,225 427,225 427,224 428,223 430,217 430,217 436,216 441,216 443,215 444,214 445,215 447,217 449,219 450,219 451,221 452,222 455,223 457,224 458,225 459,226 459,228 460,229 461,230 461,231 461,231 461,232 460,234 460,235 461,238 461,239 460,242 461,244 461,246 461,247 462,249 462,249 462,250 462,251 463,251 463,251 464,251 464,251 466,252 467,255 468,256 468,257 469,258 469,261 469,262 469,263 469,264 469,266 468,267 465,268 464,269 464,271 463,271 463,271 462,271 459,271 458,271 458,271 456,271 455,272 455,271 453,271 452,271 452,271 452,271 452,272 451,272 447,273 446,274 446,274 446,275 444,276 442,276 441,277 440,278 440,279 439,284 439,286 439,289 439,290 439,290 438,290 437,290 435,291 433,292 432,292 429,294 428,295 427,296 426,297 426,297 424,298 424,298 424,299 423,300 422,300 421,300 420,300 420,300 419,300 418,301 418,302 417,302 416,302 414,302 414,302 413,303 410,304 409,305 409,305 407,305 407,305 406,305 405,306 402,310 401,310 400,311 400,312 400,312 400,313 400,315 401,317 401,318 401,318 399,320 398,321 398,321 398,330 398,330 395,332 395,332 394,335 395,336 396,343 397,344 396,345 394,349 394,349 393,349 387,347 386,347 386,347 382,349 381,350 381,350 380,350 383,352 383,352 383,352 385,352 387,353 389,353 393,355 393,355 393,356 398,358 399,359 401,361 402,363 404,364 405,367 405,367 406,367 408,367 409,367 408,371 408,373 408,375 407,379 406,388 405,390 404,392 402,394 402,394 403,394 404,395 404,395 404,396 407,401 407,401 406,405 405,406 401,411 400,412 400,413 401,413 403,413 404,413 405,413 407,412 408,412 409,412 411,413 414,413 415,413 415,413 416,416 417,422 417,422 418,422 425,421 426,421 428,421 428,421 427,426 427,428 427,428 425,432 423,438 416,460 416,463 415,468 415,468 414,468 413,475 413,475 412,476 413,477 411,482 411,482 410,486 410,486 409,486 402,489 397,492 396,493 383,500 361,494 351,491 350,491 347,490 346,490 336,487 328,484 325,482 317,480 317,480 317,483 307,484 306,485 305,485 299,485 296,484 295,482 293,483 283,484 279,484 275,485 268,486 267,487 266,487 260,487 256,488 255,487 254,488 248,491 239,490 229,492 228,492 222,488 220,486 216,485 212,483 210,483 207,482 206,482 203,483 196,473 194,470 192,469 192,469 189,469 178,433 177,432 158,422 151,418 150,417 125,411 107,411 41,394 30,391 3,384 0,383" id="6401" class="canton" fill="steelblue" stroke-width="1" stroke="white" geotype="canton" geoname="Anglet" code_insee="6401" code_departement="64" nom_departement="Pyrénées-Atlantiques" code_region="75" nom_region="Nouvelle-Aquitaine"/></svg>