<?xml version="1.0" encoding="utf-8"?>
<svg version="1.1" id="svgmap" xmlns="http://www.w3.org/2000/svg" xmlns:xlink="http://www.w3.org/1999/xlink" x="0px" y="0px" width="100%" height="100%" viewBox="0 0 500 444">
<polygon points="11,222 11,222 11,222 12,222 12,222 13,222 16,221 16,221 18,221 20,221 23,221 24,221 24,221 24,221 26,220 27,219 27,218 28,217 28,217 28,217 27,217 27,217 28,217 29,214 30,214 30,214 30,214 30,214 31,214 31,214 32,214 32,214 33,214 34,214 34,214 35,214 35,213 36,213 37,213 37,213 37,213 38,213 39,213 39,213 39,213 39,213 40,213 40,213 40,213 41,212 41,212 41,212 41,212 41,211 41,210 41,210 42,210 42,210 42,210 42,210 42,210 42,210 42,210 42,209 42,209 42,209 42,209 42,209 42,208 42,207 43,206 42,205 42,203 42,202 42,202 42,201 42,200 41,198 40,196 40,196 41,197 41,197 42,197 42,197 42,197 42,197 42,197 42,198 42,198 43,197 43,197 43,197 43,197 44,197 44,197 45,198 45,198 45,198 46,198 46,198 47,199 47,199 47,199 49,199 49,199 51,199 51,199 51,198 52,198 52,198 52,198 52,198 52,198 52,198 53,198 53,198 53,198 53,198 53,198 53,198 53,198 53,198 54,198 54,198 54,198 54,198 54,198 54,197 54,197 54,197 55,197 55,197 55,197 55,197 56,197 56,197 56,197 56,198 56,198 56,198 56,198 57,197 57,197 57,197 57,197 57,197 57,197 57,197 57,197 58,197 58,197 58,197 58,197 58,197 58,197 58,197 59,197 59,197 59,197 59,197 60,197 60,197 60,197 60,197 60,197 60,197 60,197 60,197 60,197 61,197 61,197 61,197 61,197 62,197 62,197 62,197 62,197 62,197 63,197 63,197 64,197 65,197 65,197 65,197 65,197 66,197 66,197 66,197 66,197 67,197 68,197 68,198 69,198 70,198 71,198 71,198 72,198 73,199 74,199 75,199 76,200 76,200 76,200 77,200 77,200 77,200 78,200 78,200 79,201 80,201 81,201 81,201 81,201 81,201 82,201 82,201 83,201 83,201 83,201 83,201 83,201 83,201 84,201 84,201 84,201 84,201 84,201 84,201 84,201 84,201 85,201 85,201 85,201 85,201 85,201 85,201 85,201 85,201 85,200 85,200 85,200 85,200 85,200 85,200 85,200 85,200 85,200 86,200 86,200 86,200 86,200 86,200 86,200 86,200 87,199 87,199 88,199 89,199 89,198 90,198 90,198 90,198 93,191 92,181 89,166 88,164 87,159 87,159 87,159 96,156 97,156 101,154 116,144 120,141 122,138 124,137 126,134 126,134 127,134 132,127 133,127 132,127 130,126 126,108 125,106 125,106 127,102 128,98 130,97 130,97 134,97 135,96 138,95 141,94 143,93 144,92 145,92 146,92 148,90 160,94 164,94 167,90 169,87 172,84 176,82 179,79 179,79 180,77 180,77 180,76 183,71 184,70 185,70 186,70 188,70 190,69 191,69 193,69 194,68 195,67 196,67 196,66 197,66 201,66 202,66 203,65 204,64 204,63 206,62 206,62 205,62 205,62 204,62 204,62 204,61 203,61 203,61 203,62 202,62 203,60 202,60 201,60 200,60 200,60 199,60 199,60 198,59 199,59 201,59 202,59 204,58 206,57 210,56 211,55 212,54 212,54 214,54 215,53 215,53 214,53 213,52 212,50 210,46 210,45 209,44 208,43 209,43 209,42 209,40 209,40 209,39 209,38 209,38 210,38 211,38 212,38 226,43 238,42 239,43 239,41 242,37 243,35 245,32 246,30 248,28 253,28 253,28 252,20 253,15 253,14 255,11 255,10 257,8 258,7 261,3 262,0 263,0 268,2 270,2 284,6 288,6 293,7 293,7 294,8 298,10 298,10 301,18 301,18 301,18 302,18 302,18 304,20 304,20 304,20 305,21 306,21 306,21 307,21 307,21 309,22 309,22 311,22 313,22 314,22 314,21 315,22 315,21 316,21 317,21 317,21 318,21 319,21 320,21 322,20 323,20 323,21 323,21 325,21 325,21 325,21 327,21 327,20 327,20 329,20 329,21 331,21 333,22 333,22 334,22 334,22 336,23 341,24 343,22 343,22 344,22 346,21 346,21 346,21 347,22 350,23 351,22 351,21 352,20 352,20 352,19 352,18 354,16 356,15 357,15 357,15 357,14 357,13 357,13 358,13 359,13 359,13 359,12 360,12 360,12 361,13 362,12 362,12 362,12 363,12 364,12 364,12 365,12 365,12 366,11 366,11 366,11 367,11 367,11 368,11 368,12 368,12 369,12 369,12 369,12 369,10 369,10 371,11 373,12 374,14 375,15 377,16 378,16 380,16 381,16 383,15 384,15 385,15 386,16 386,16 387,17 388,19 388,21 389,23 391,24 393,26 393,26 393,27 393,28 392,29 392,30 390,31 390,33 389,34 389,35 389,37 389,39 391,46 391,47 392,48 393,48 394,48 396,48 397,48 403,48 406,48 410,48 412,48 413,48 415,49 418,50 422,53 424,55 425,56 426,57 427,59 427,60 427,61 426,61 421,62 420,62 419,63 419,64 421,69 422,72 422,72 423,73 425,76 427,75 427,75 428,77 428,78 431,78 431,78 431,78 432,78 433,78 434,78 434,78 434,78 435,78 435,78 435,79 436,79 436,79 435,79 435,80 436,80 436,80 437,81 437,81 437,81 437,81 439,81 439,81 440,81 441,81 442,80 442,80 443,80 444,81 444,81 445,81 446,81 446,81 446,82 447,81 449,82 449,83 451,82 452,82 453,82 453,83 452,83 452,84 453,84 453,84 454,84 454,83 455,83 456,83 456,83 457,83 457,83 457,84 458,83 458,84 459,83 459,84 460,83 460,83 462,84 463,84 463,84 463,85 464,84 464,85 464,85 465,85 465,85 466,85 466,85 466,86 467,86 467,86 468,86 469,86 469,86 469,86 470,86 470,86 470,86 471,86 472,86 473,87 474,87 475,87 476,87 476,87 477,87 478,88 479,88 480,88 481,88 482,88 482,88 483,88 483,88 485,88 485,88 486,88 487,89 487,88 488,89 489,89 491,89 493,88 494,88 495,88 495,88 496,88 500,88 500,88 499,89 499,89 499,93 498,95 498,97 497,97 496,98 495,99 495,100 494,100 494,100 493,101 492,101 492,101 493,101 491,102 490,102 490,102 490,103 489,103 488,104 488,104 488,104 487,103 487,103 486,103 485,103 485,104 485,104 484,105 484,105 483,105 483,105 482,105 481,106 481,106 481,107 481,107 481,107 481,107 481,108 481,108 480,110 480,110 480,110 479,110 478,111 478,111 477,112 477,112 477,112 477,112 477,113 476,113 476,114 476,114 476,114 477,114 478,114 477,114 477,115 478,115 478,115 477,115 478,116 478,116 477,116 477,117 477,117 477,117 477,117 476,118 476,117 476,118 476,118 475,118 475,118 475,119 475,119 475,119 474,119 474,120 473,120 473,120 473,121 473,121 473,121 473,121 472,121 472,121 471,121 471,121 472,121 472,122 472,122 471,122 471,122 470,122 470,122 469,122 469,122 468,122 467,123 467,123 466,124 466,124 465,124 464,124 464,124 464,125 463,125 464,125 463,126 463,126 463,127 464,128 462,128 461,129 460,129 460,129 459,129 457,129 457,129 456,130 456,130 456,130 457,130 457,130 457,131 458,132 459,133 460,133 461,134 461,134 461,134 459,136 458,138 457,138 457,139 457,139 457,139 457,140 457,140 457,140 457,140 457,141 463,140 466,140 467,139 467,139 467,140 467,140 466,141 466,141 466,141 467,141 467,142 468,145 468,145 467,146 463,145 463,145 462,146 462,146 462,146 462,147 460,147 460,149 460,149 458,149 458,148 455,149 454,149 452,149 454,150 455,151 457,152 458,153 458,153 457,154 457,154 456,154 453,153 449,152 446,151 445,151 444,151 444,152 444,153 444,154 443,154 441,154 440,154 440,154 440,155 438,155 437,155 436,155 434,157 434,157 433,157 433,158 433,158 432,158 432,158 430,159 429,159 427,159 426,160 425,160 425,160 424,160 424,161 424,161 422,162 422,162 422,162 421,162 421,162 421,162 420,162 419,162 418,162 418,162 417,162 417,163 417,163 418,164 418,164 418,164 417,165 417,165 416,165 413,166 412,167 412,168 411,169 411,170 409,172 409,172 408,172 408,171 407,170 407,170 406,170 406,170 406,170 405,170 405,170 404,170 403,171 403,171 402,172 402,172 401,172 400,173 399,173 399,174 398,175 398,175 398,176 398,176 399,176 399,177 399,177 399,177 399,178 399,179 399,179 398,179 397,179 396,179 395,179 395,179 395,179 395,178 394,179 393,178 390,179 387,179 386,179 385,180 386,181 385,181 385,181 385,181 385,181 384,181 384,182 384,182 384,182 384,183 384,183 383,182 383,182 382,182 382,181 382,181 381,181 381,181 381,181 379,181 378,181 378,181 378,182 379,182 379,182 380,182 380,183 380,183 380,183 379,183 378,183 378,183 377,183 377,182 377,182 377,182 378,182 376,181 376,181 376,181 376,181 376,182 376,182 376,182 376,182 376,183 376,183 376,183 375,183 375,183 374,183 374,183 374,183 374,184 374,184 373,184 373,185 372,185 372,185 372,186 372,186 371,188 370,188 370,187 370,187 370,187 369,187 369,187 369,187 369,187 370,188 369,188 369,188 369,188 369,187 368,187 368,188 368,188 369,188 369,189 369,190 369,190 369,191 369,191 369,191 370,191 369,192 369,192 369,192 369,192 368,191 368,191 368,191 365,191 365,191 364,191 364,190 363,191 362,191 362,191 362,191 362,190 362,190 362,190 362,190 361,190 361,190 360,190 360,190 360,190 360,190 360,190 361,190 360,189 360,189 360,189 360,190 359,190 358,190 358,190 359,189 358,189 358,189 358,189 358,190 357,190 356,189 354,189 354,189 354,189 354,188 353,188 353,189 353,189 353,190 353,190 353,191 352,191 351,191 351,192 350,192 350,192 350,193 350,193 349,194 349,194 349,194 348,194 348,195 347,195 346,195 346,194 345,193 346,192 345,192 345,192 345,192 345,192 345,193 344,193 344,193 344,193 344,193 343,192 344,192 344,192 344,192 343,192 342,192 342,193 342,193 341,193 341,194 341,195 340,195 340,195 340,195 340,195 340,196 340,196 340,196 341,197 341,198 340,198 340,199 340,199 340,199 340,199 339,200 340,200 340,200 340,201 339,202 339,202 339,202 339,202 339,202 338,202 338,202 338,202 338,202 337,202 336,202 336,202 335,202 334,202 334,202 334,202 333,202 332,202 332,202 332,202 331,202 330,202 330,202 329,203 328,204 328,204 328,204 327,205 327,205 327,205 327,205 326,205 326,206 325,206 325,207 326,207 326,208 326,208 326,209 326,209 326,210 326,210 327,210 327,210 327,211 326,211 326,211 325,212 325,212 325,212 325,212 324,212 324,212 324,213 323,213 320,219 318,222 314,230 313,232 313,232 313,233 313,233 313,234 313,234 313,234 313,235 313,236 312,237 312,238 311,240 310,241 310,242 309,243 309,244 305,252 305,253 304,253 303,255 303,256 302,257 301,258 301,258 301,258 303,260 304,260 304,260 305,260 305,260 305,260 305,261 305,261 306,262 308,264 309,264 309,264 309,264 309,264 310,264 311,263 311,264 311,264 313,264 313,264 313,264 313,264 314,265 314,265 316,266 316,266 318,266 318,266 319,266 320,266 321,266 322,267 323,267 322,268 322,268 322,269 321,269 321,269 321,270 321,271 321,271 322,271 321,272 321,272 321,272 321,272 321,273 322,273 322,273 321,276 319,279 319,281 320,283 322,285 323,287 324,287 325,288 325,288 330,287 331,287 331,287 334,288 334,288 338,289 340,289 341,289 349,288 359,287 365,287 365,287 372,292 372,293 372,293 374,297 375,299 376,301 376,302 379,310 380,312 381,314 383,321 384,327 384,327 397,348 404,352 405,352 406,352 414,357 423,360 431,368 436,374 445,381 447,395 450,403 450,403 449,403 448,403 445,403 445,403 445,402 444,402 444,402 443,402 443,402 442,402 442,402 442,402 441,402 441,402 441,402 440,402 440,402 440,402 439,401 439,401 438,401 438,401 438,401 437,401 437,401 436,400 436,400 436,400 436,399 436,399 435,399 435,399 435,399 434,399 434,399 434,399 434,399 433,399 433,398 433,398 432,399 432,399 432,399 431,399 431,399 431,399 430,399 430,399 430,399 430,399 429,399 429,399 428,398 428,398 427,399 427,399 427,399 427,399 427,398 427,398 427,398 426,398 426,398 426,398 426,398 425,398 425,398 425,398 424,398 424,398 424,398 424,398 424,398 424,398 423,398 423,398 423,398 423,398 422,398 422,398 422,398 422,398 421,398 421,398 421,398 421,398 421,398 420,398 420,398 420,398 420,398 419,398 419,399 419,399 418,399 418,399 418,399 418,398 417,398 417,398 417,399 416,398 416,398 416,398 415,398 415,398 415,398 415,398 415,398 414,397 414,397 414,397 414,397 413,397 413,397 413,397 413,397 413,397 413,397 411,397 411,397 410,396 410,396 410,397 410,397 409,397 408,396 408,396 407,396 407,395 406,395 406,395 405,395 405,395 405,395 405,395 405,394 404,394 404,394 404,394 404,394 404,395 404,395 403,395 403,395 403,394 402,394 402,394 402,394 401,393 401,393 400,393 400,393 399,393 399,393 399,393 399,393 399,392 399,392 399,392 398,392 398,391 397,390 397,390 396,390 396,390 396,390 395,390 395,390 395,390 394,390 394,390 394,389 394,389 393,389 393,389 392,389 392,389 392,389 392,388 391,389 390,389 390,389 390,389 389,388 389,388 389,388 389,388 388,388 388,388 388,388 388,388 388,388 388,388 387,388 387,388 387,388 387,388 387,387 387,387 386,387 386,387 386,387 385,387 385,387 385,387 385,387 385,387 385,387 385,387 384,386 384,386 384,386 384,386 383,386 383,386 383,386 383,386 383,386 383,385 383,385 383,385 382,385 381,385 381,384 381,384 381,384 380,383 380,383 380,383 380,383 379,383 379,383 379,382 379,382 379,382 378,382 378,382 378,382 377,381 377,381 377,381 377,381 377,381 377,381 377,380 377,380 377,380 377,380 377,380 376,380 376,380 376,380 376,379 376,379 375,379 375,379 375,378 375,378 375,378 374,378 374,378 374,378 374,378 374,378 374,377 374,377 374,377 374,377 374,377 374,376 374,376 374,376 374,376 374,376 374,375 374,375 374,375 374,375 374,374 374,374 374,374 374,374 373,374 373,374 372,373 372,373 371,373 371,373 371,373 371,373 371,374 370,374 370,374 370,374 370,374 370,374 369,374 368,374 368,374 367,374 367,374 367,375 367,375 367,375 366,375 366,376 366,376 366,376 366,376 365,376 365,376 365,376 365,376 364,376 364,376 364,377 364,377 364,377 364,377 363,377 363,378 362,378 362,378 360,378 360,378 360,378 359,378 359,378 358,378 357,378 356,378 355,378 355,378 354,378 354,378 354,379 354,379 353,379 353,379 353,379 353,379 353,379 353,379 353,379 353,378 353,378 353,377 353,377 352,377 352,377 352,377 351,376 351,376 350,376 350,376 349,376 348,375 348,375 348,375 347,374 347,374 347,374 347,374 346,374 346,374 345,374 345,374 344,374 344,373 344,373 344,372 344,372 344,372 344,371 344,371 344,371 341,370 341,369 341,369 340,369 340,369 340,369 340,368 340,368 340,367 340,367 340,367 340,366 340,366 339,365 339,365 338,365 338,365 337,365 337,365 336,364 336,364 335,364 335,365 334,365 333,364 332,363 332,363 332,363 331,362 331,362 330,361 330,361 330,361 330,360 330,360 330,360 331,360 331,360 331,359 331,359 330,359 330,359 330,358 330,358 329,357 329,357 329,357 329,357 329,356 328,356 328,355 328,355 327,354 327,354 326,353 324,352 324,352 324,352 324,352 315,352 307,351 305,351 304,351 294,352 292,353 275,352 275,352 273,352 268,352 267,351 263,350 253,356 249,355 245,354 243,354 240,355 236,356 236,356 235,355 232,355 227,356 223,356 221,357 219,357 217,358 213,359 213,359 213,359 213,359 210,360 208,361 207,361 205,362 200,364 201,365 201,366 201,368 202,369 202,369 203,370 203,370 203,371 204,371 204,371 205,372 206,372 207,372 208,372 209,372 210,372 211,372 211,373 213,376 213,376 213,377 214,379 215,379 215,380 216,380 217,381 217,381 217,381 217,382 217,382 216,382 216,382 217,382 217,383 216,383 216,383 216,383 216,383 215,384 214,385 215,387 214,387 214,388 214,388 214,388 213,389 213,389 213,389 212,389 212,389 212,389 211,389 211,390 211,390 210,390 210,390 209,391 209,391 208,392 209,392 209,393 209,393 209,393 209,394 209,394 209,395 209,397 209,397 208,397 207,397 207,397 207,398 207,399 206,400 206,400 206,401 205,401 205,401 205,401 204,401 204,401 203,403 203,404 203,405 203,405 202,406 202,406 202,406 201,407 201,408 202,408 193,428 184,438 180,443 179,444 177,444 166,436 166,436 165,436 155,437 149,436 139,435 127,434 120,437 108,440 105,433 102,433 100,433 97,432 90,427 89,426 86,421 86,420 81,415 80,413 78,404 78,401 78,400 77,400 73,400 73,400 74,399 72,395 71,390 69,385 68,382 67,381 68,379 67,378 66,375 65,373 62,369 64,363 64,361 67,356 67,354 68,352 68,351 70,349 72,347 73,346 75,344 79,337 76,326 74,325 71,325 66,324 61,323 52,319 51,317 42,302 42,302 42,302 41,302 41,302 40,302 40,302 39,302 39,302 38,302 38,302 38,302 38,302 37,302 37,302 36,302 35,301 35,301 35,301 34,301 34,301 33,301 33,301 32,301 31,301 31,300 31,300 31,300 30,300 30,299 29,299 29,299 27,298 27,298 27,298 26,297 26,297 24,297 24,296 24,296 23,296 23,296 22,296 22,296 22,295 21,295 21,294 21,294 21,294 21,294 21,294 19,294 19,294 19,294 18,294 18,294 18,294 18,294 18,294 18,294 18,293 17,293 17,293 17,293 17,292 17,292 17,292 17,292 17,292 17,291 16,291 16,291 16,291 16,291 15,291 15,291 15,290 16,290 16,290 16,290 16,290 16,290 16,290 16,290 16,290 16,289 15,289 15,288 15,288 15,288 14,287 14,286 14,286 14,286 14,286 13,286 13,286 13,285 13,285 13,284 13,284 13,284 12,284 12,284 11,283 11,283 11,283 11,283 10,283 10,282 9,282 9,282 8,281 7,281 7,281 6,280 6,280 6,280 5,279 4,278 4,278 4,277 4,277 3,277 3,277 3,276 3,276 3,276 3,275 3,275 3,275 3,275 3,275 3,275 3,275 3,274 2,274 2,274 1,274 1,273 1,273 1,273 1,273 1,272 1,271 1,271 1,271 1,271 1,271 1,271 2,270 2,270 2,270 2,270 2,270 1,270 1,269 1,269 1,269 1,269 1,269 1,268 1,268 1,268 0,268 0,267 0,267 0,267 0,267 0,266 0,266 0,266 0,266 0,266 1,265 1,265 1,265 1,265 1,264 0,264 0,264 0,264 0,264 0,264 0,264 1,264 1,263 2,263 2,263 2,263 2,263 2,263 2,263 2,263 2,263 2,262 2,262 1,262 1,262 1,262 1,262 0,262 0,262 0,262 0,262 0,261 0,261 0,261 0,261 1,260 2,259 3,258 4,258 4,258 3,258 3,258 3,258 3,258 2,256 1,256 1,255 1,255 9,254 11,254 14,254 15,254 15,253 19,252 19,252 19,252 19,250 19,250 19,250 18,250 17,248 17,247 16,246 16,245 15,245 15,244 15,244 15,244 14,242 14,241 13,239 12,236 12,236 11,234 11,233 11,227 11,226 11,226 10,224 10,224 10,223 10,222 10,222 10,222 11,222" id="6426" class="canton" fill="steelblue" stroke-width="1" stroke="white" geotype="canton" geoname="Ustaritz-Vallées de Nive et Nivelle" code_insee="6426" code_departement="64" nom_departement="Pyrénées-Atlantiques" code_region="75" nom_region="Nouvelle-Aquitaine"/></svg>