<?xml version="1.0" encoding="utf-8"?>
<svg version="1.1" id="svgmap" xmlns="http://www.w3.org/2000/svg" xmlns:xlink="http://www.w3.org/1999/xlink" x="0px" y="0px" width="100%" height="100%" viewBox="0 0 500 340">
<polygon points="21,158 22,158 22,158 22,158 22,158 23,157 23,157 23,157 22,156 22,156 22,156 22,155 22,155 22,155 22,153 22,152 22,151 22,149 22,146 22,145 22,144 23,143 23,142 24,140 24,139 24,139 24,139 24,138 24,138 23,137 19,132 18,132 16,130 15,128 15,128 18,127 26,129 28,129 31,129 36,130 40,130 41,131 41,133 42,134 43,135 45,137 47,138 48,137 48,138 54,139 55,139 69,143 73,136 76,135 80,133 83,130 84,132 86,131 84,129 83,127 84,125 84,125 82,124 81,123 82,120 82,119 83,119 84,119 84,119 86,116 87,115 88,114 91,112 93,110 95,109 97,108 98,108 99,108 108,108 110,108 112,108 114,108 115,108 115,108 116,108 117,108 122,106 124,105 127,104 131,101 140,96 140,96 140,95 141,95 141,94 141,93 147,89 148,89 149,90 150,91 150,91 151,92 151,92 151,92 151,92 151,92 156,84 162,76 167,69 167,69 166,69 166,69 166,69 166,69 166,70 165,70 165,70 165,70 165,69 165,69 165,69 165,69 165,69 165,68 165,68 163,65 163,65 163,64 163,64 163,64 163,64 163,63 163,63 163,63 163,63 163,63 162,62 162,62 162,61 163,61 163,60 161,58 161,57 160,57 160,57 160,56 161,56 163,54 163,53 163,52 163,51 162,50 162,49 162,48 162,48 163,48 164,47 164,47 164,47 166,46 167,47 168,47 170,48 171,47 171,47 171,47 172,47 172,47 174,46 174,46 174,46 174,45 174,45 174,45 175,44 175,44 175,43 174,43 174,43 174,43 174,43 171,41 171,41 171,40 172,33 173,32 173,31 174,30 176,29 176,29 180,27 181,26 184,24 184,24 184,25 184,25 184,25 185,26 185,26 186,27 187,27 188,27 194,28 194,28 195,28 198,28 199,28 201,28 202,28 203,28 204,28 206,29 206,29 208,30 209,30 213,34 214,35 218,38 219,38 224,40 224,40 227,41 231,41 232,41 237,43 237,43 239,43 240,43 239,43 239,42 239,42 239,42 239,42 245,39 246,38 247,38 249,36 250,36 251,35 257,29 258,31 259,30 259,29 264,26 264,25 268,21 269,20 269,19 269,18 269,16 267,14 267,14 267,12 267,12 268,12 268,12 268,12 268,12 268,12 268,12 271,11 274,10 275,9 281,8 281,7 281,7 281,7 281,6 281,6 281,6 281,6 281,5 281,5 281,4 281,5 281,5 281,5 282,5 282,5 283,5 283,5 283,5 284,5 284,5 284,5 284,5 285,4 284,4 284,4 285,4 286,4 286,4 287,4 287,4 287,5 287,5 288,5 288,5 288,5 288,5 288,6 289,6 289,6 289,6 289,6 289,6 289,6 289,7 290,7 290,6 290,6 290,7 291,7 291,7 291,7 291,8 292,8 292,8 292,9 292,9 292,9 293,9 293,9 293,9 293,9 293,9 293,9 294,9 294,9 294,9 294,9 296,10 298,10 298,11 299,11 299,11 299,10 299,10 300,10 301,9 313,2 313,1 315,2 322,3 323,3 333,6 333,6 340,6 349,7 350,7 350,7 354,5 354,5 363,2 364,2 364,2 367,0 382,11 381,13 381,16 381,16 382,18 382,19 382,20 383,21 386,24 389,27 389,27 391,30 392,31 393,32 395,32 396,32 396,32 396,32 396,33 397,33 397,33 397,33 398,33 400,33 400,33 400,33 401,33 401,33 402,33 402,33 402,34 403,34 403,34 403,34 404,34 404,35 404,35 404,35 404,35 405,35 405,35 406,36 406,36 406,36 406,36 406,36 407,36 407,36 407,36 407,37 407,37 407,37 407,37 408,37 408,37 408,37 409,37 409,38 410,38 410,38 410,38 411,38 411,38 411,38 412,38 412,38 412,38 412,39 413,39 413,39 413,39 414,39 414,39 414,39 415,40 415,40 415,41 416,41 416,41 416,42 416,42 417,42 417,42 418,43 418,43 418,43 418,43 418,43 418,43 419,43 419,43 419,43 419,43 419,44 419,44 419,44 420,44 420,44 421,44 421,44 422,44 423,44 424,44 424,43 425,43 425,43 425,43 426,43 426,43 426,43 426,43 426,43 427,43 427,43 428,43 428,43 428,43 427,43 427,43 427,43 427,42 427,42 427,42 427,42 429,42 429,42 430,42 431,41 431,41 432,41 432,41 433,40 433,40 434,40 434,40 435,40 436,40 436,40 436,40 436,39 437,38 438,38 438,38 438,38 438,38 438,38 439,39 439,39 439,39 439,39 440,39 440,39 440,39 440,39 441,40 441,40 441,40 441,40 441,40 441,41 441,41 441,41 442,42 442,42 442,42 442,42 442,43 442,43 442,43 442,44 442,44 442,44 442,44 442,44 442,44 441,45 442,45 442,45 442,45 442,45 442,45 442,46 441,46 441,46 441,47 441,47 441,48 440,48 440,48 440,49 440,49 440,49 440,49 440,50 440,50 440,50 440,50 441,50 441,51 441,51 441,51 441,52 441,52 441,52 441,52 441,53 441,53 441,53 440,53 441,53 440,54 439,55 439,56 436,59 436,59 440,73 440,73 440,73 441,74 441,74 441,74 442,74 442,74 442,74 443,74 443,74 443,74 444,74 444,74 444,74 444,74 444,74 444,74 445,74 445,75 445,75 445,75 445,75 447,77 447,78 448,79 451,87 452,88 455,94 455,94 457,94 457,94 459,93 461,93 462,92 472,91 476,90 477,90 481,90 482,90 488,92 489,92 489,92 489,92 489,91 489,91 489,91 490,92 490,92 490,92 491,92 491,92 492,94 496,103 497,104 498,108 499,114 499,115 500,115 500,116 500,116 500,116 499,117 499,118 498,119 496,122 496,122 496,122 496,124 496,126 496,126 495,127 494,127 492,128 492,129 491,129 490,131 490,132 486,133 482,136 481,137 481,137 481,137 480,136 480,133 479,130 479,129 479,129 479,129 478,129 478,129 477,130 477,131 476,132 476,133 475,135 475,138 475,139 476,140 478,144 479,146 480,147 480,148 481,149 481,150 481,150 481,151 481,151 481,151 481,152 481,153 481,154 481,155 481,157 481,158 480,159 480,160 480,160 479,162 478,162 476,165 473,166 470,167 467,168 465,168 462,169 457,169 449,170 449,171 449,172 449,173 447,173 447,174 449,174 449,176 450,176 451,176 451,176 452,176 452,176 452,176 453,176 456,178 458,180 457,180 454,180 452,180 450,180 449,185 447,184 447,184 444,184 443,183 442,183 440,183 440,183 439,183 436,183 436,183 436,184 435,184 434,184 433,185 433,185 432,185 431,185 431,185 431,185 430,185 429,185 428,185 427,186 427,186 427,186 427,186 428,187 428,187 428,187 428,187 428,187 429,187 429,187 430,187 430,187 430,187 430,188 430,188 430,189 430,189 430,189 430,189 430,190 430,190 430,190 430,190 430,190 430,191 429,191 429,191 429,192 429,192 429,193 428,193 427,194 427,194 427,194 427,194 427,195 427,196 427,197 427,197 427,197 428,199 428,200 428,201 429,201 430,202 428,203 427,203 427,203 426,203 427,205 428,206 429,209 429,210 431,214 430,215 428,217 426,218 426,219 426,219 426,219 426,220 428,222 427,223 427,223 427,223 426,224 426,225 426,225 425,226 425,227 425,227 425,227 426,227 426,227 427,227 429,227 430,227 431,226 432,226 432,226 433,225 434,225 435,224 436,224 437,224 439,223 441,224 442,224 444,225 445,226 446,227 447,228 448,229 448,230 449,232 449,233 448,234 447,236 447,237 447,238 447,239 448,240 449,241 450,243 451,244 451,245 452,246 453,247 453,248 452,249 450,251 449,253 449,255 448,257 447,257 446,258 446,258 446,258 446,259 446,259 447,260 448,260 449,260 450,260 450,261 451,261 451,261 451,262 451,263 450,264 449,265 449,265 447,266 446,267 445,267 445,267 444,268 444,270 447,274 447,276 446,281 443,284 440,288 439,291 436,292 435,294 434,297 432,299 429,301 426,304 423,305 422,307 421,310 416,310 416,310 414,309 410,309 406,309 406,309 400,311 397,312 389,314 382,316 382,316 381,316 369,315 368,315 367,315 359,312 355,310 350,308 350,308 348,308 342,308 337,308 337,308 332,307 331,306 330,306 327,305 321,306 313,307 302,311 300,312 300,314 293,321 273,323 264,325 255,326 227,329 223,331 207,333 183,335 138,340 147,325 143,326 142,325 141,325 140,325 130,321 130,318 129,318 125,317 123,316 122,316 120,316 118,315 116,313 111,313 111,314 106,315 104,315 103,315 99,317 97,318 95,318 94,318 93,318 92,319 89,319 87,319 85,319 82,319 79,319 75,319 68,321 67,321 52,307 51,305 41,296 41,296 41,296 39,296 37,296 33,297 30,297 29,297 23,297 23,296 21,295 20,293 19,293 18,291 17,290 17,290 16,290 16,289 13,289 13,289 11,288 11,288 8,284 8,284 8,282 7,281 7,281 7,281 4,278 4,278 4,276 4,276 2,275 2,275 2,273 2,272 2,271 2,270 2,268 2,267 2,266 2,266 2,266 1,265 1,265 0,262 0,262 2,261 2,260 3,260 6,255 11,247 11,246 19,244 19,244 19,244 22,239 22,238 21,237 21,237 21,236 22,235 23,235 25,231 26,230 27,230 27,230 28,226 28,225 29,223 29,223 29,223 30,222 34,220 36,219 36,219 32,206 32,206 35,195 35,195 35,195 30,193 13,187 12,187 12,186 11,186 10,185 9,183 9,183 9,183 9,183 7,182 7,182 7,182 6,181 6,180 6,180 5,179 5,179 5,178 6,178 6,178 6,177 5,176 4,176 4,174 4,173 4,172 5,171 5,170 5,170 4,170 4,169 4,169 4,168 4,168 4,168 3,168 3,168 3,168 3,167 3,167 3,167 3,167 3,167 3,167 3,167 4,166 4,166 4,166 4,166 4,166 4,166 4,166 4,166 4,165 4,165 5,165 5,165 5,165 5,165 5,165 5,165 5,165 5,165 5,164 5,164 5,164 6,164 6,164 6,164 6,164 7,164 6,164 7,164 7,164 7,164 7,163 7,163 7,163 7,163 8,162 8,162 8,162 8,162 8,162 8,162 8,161 8,161 9,161 9,161 9,161 9,161 9,161 9,161 9,160 10,160 10,160 10,160 10,160 11,160 11,160 11,160 11,159 11,159 11,159 11,159 12,159 12,159 12,159 12,159 12,159 13,159 13,159 14,159 14,159 14,159 15,159 15,159 15,158 15,158 16,158 16,158 16,159 16,159 17,158 18,158 18,158 19,158 20,158 20,158 20,158 20,158 20,158 20,158 20,158 20,158 21,158 21,158" id="6505" class="canton" fill="steelblue" stroke-width="1" stroke="white" geotype="canton" geoname="Lourdes-1" code_insee="6505" code_departement="65" nom_departement="Hautes-Pyrénées" code_region="76" nom_region="Occitanie"/></svg>