<?xml version="1.0" encoding="utf-8"?>
<svg version="1.1" id="svgmap" xmlns="http://www.w3.org/2000/svg" xmlns:xlink="http://www.w3.org/1999/xlink" x="0px" y="0px" width="100%" height="100%" viewBox="0 0 500 348">
<polygon points="84,241 81,239 78,239 76,238 76,238 73,238 70,237 66,237 63,236 61,235 59,235 59,235 59,235 55,234 51,233 50,233 48,231 47,231 47,230 45,230 45,230 45,230 43,229 42,229 42,229 42,229 42,229 42,228 42,228 43,227 43,227 43,226 43,226 43,226 44,226 44,226 44,226 43,225 43,225 43,225 43,224 44,224 44,224 44,224 43,224 43,223 43,223 43,223 43,223 43,223 43,223 43,222 43,222 43,222 43,222 43,222 43,222 43,222 43,222 43,221 42,221 42,221 42,221 42,221 42,221 41,221 41,221 41,220 42,220 42,219 42,219 42,219 42,219 42,218 42,218 42,217 42,217 42,216 42,216 41,216 41,216 41,216 41,216 41,215 41,215 41,214 41,214 41,214 41,213 42,212 42,211 42,211 42,209 42,209 41,208 41,208 41,208 41,208 41,207 40,207 40,207 40,207 40,206 40,206 40,206 40,206 41,206 42,205 42,205 42,205 42,204 42,204 42,204 42,204 41,204 41,203 40,203 40,202 39,202 39,202 39,201 39,201 39,201 39,201 40,201 40,200 40,200 40,199 39,199 39,199 39,199 39,198 39,198 40,198 40,198 40,197 40,197 40,197 40,196 40,196 41,195 41,194 41,193 42,193 42,192 41,192 40,192 40,192 39,192 38,192 38,192 38,192 37,192 36,192 36,192 35,192 35,192 34,192 34,192 33,192 33,192 33,192 33,192 33,190 33,190 33,190 36,184 36,183 36,181 36,180 37,179 37,178 37,176 36,175 34,175 34,175 33,176 33,176 33,176 32,176 32,176 31,177 31,177 31,177 30,177 30,177 29,177 28,178 28,178 27,178 24,177 22,177 20,176 20,176 19,176 18,176 17,176 15,176 14,176 11,176 10,175 9,175 9,175 6,174 7,174 6,173 7,172 6,170 5,170 5,170 2,169 2,168 3,167 3,167 2,166 2,164 2,164 1,163 0,162 0,162 0,162 1,160 0,159 1,158 1,157 1,156 1,156 1,155 1,154 2,154 1,153 1,153 1,153 0,151 0,151 0,151 0,149 0,149 1,148 2,148 2,148 2,148 5,148 6,148 6,148 8,147 8,147 9,146 9,146 10,145 11,145 12,145 12,144 14,144 14,144 15,144 18,143 18,143 18,143 19,143 20,143 21,143 22,143 22,143 26,143 26,143 26,143 27,143 27,143 27,143 27,142 27,142 30,143 32,144 37,145 43,147 44,148 48,149 49,148 51,149 52,149 53,149 53,149 54,149 54,149 53,150 54,151 53,151 57,154 55,154 55,155 54,156 53,157 52,159 61,162 61,162 62,161 62,161 63,162 65,163 66,163 66,164 66,165 66,165 66,166 66,166 71,168 72,168 72,170 75,170 75,170 75,170 76,171 76,172 76,172 76,172 77,173 77,173 77,174 78,174 78,174 78,174 78,174 78,174 78,174 78,175 78,175 78,175 78,175 78,176 78,176 78,176 79,177 79,177 79,177 79,178 79,178 79,178 79,179 79,179 79,179 79,180 80,180 80,184 82,183 84,183 90,184 90,184 90,186 90,186 90,189 91,190 92,191 94,191 94,193 95,197 95,197 94,198 94,200 94,200 95,200 93,202 93,202 93,203 94,203 95,203 95,204 94,204 93,205 91,206 91,207 92,207 93,207 92,209 92,209 92,211 92,212 92,212 92,212 91,212 90,212 89,213 89,213 90,214 89,215 90,216 90,216 90,217 91,217 92,218 92,219 91,220 90,220 90,220 91,220 90,220 90,221 90,220 89,221 89,221 89,221 90,221 90,221 90,221 90,223 89,223 89,223 90,223 89,225 89,225 90,226 89,227 89,227 91,229 89,231 88,231 89,231 89,232 88,232 88,234 88,234 88,235 87,235 87,235 86,235 86,235 86,235 86,236 86,236 86,237 86,237 86,237 86,237 86,237 85,237 85,238 85,238 86,238 85,239 83,239 83,239 84,239 85,240 84,240 84,240 84,241" id="6517" class="canton" fill="steelblue" stroke-width="1" stroke="white" geotype="canton" geoname="Vic-en-Bigorre" code_insee="6517" code_departement="65" nom_departement="Hautes-Pyrénées" code_region="76" nom_region="Occitanie"/><polygon points="170,251 170,250 170,250 170,249 171,248 171,246 172,245 174,242 174,240 174,239 175,237 180,239 180,239 184,239 189,235 189,234 190,234 190,234 190,234 193,234 193,234 196,233 196,233 197,233 203,234 203,233 221,232 226,233 230,234 232,235 234,237 239,240 245,244 243,245 250,247 257,242 261,237 264,233 264,232 276,222 281,219 281,219 281,219 284,215 284,215 284,215 286,213 287,212 290,209 294,203 288,199 286,198 284,197 281,196 280,196 280,196 275,195 275,195 275,195 275,194 275,194 273,192 272,192 268,189 261,181 261,180 260,177 256,172 256,172 255,172 247,170 244,168 242,166 242,166 242,166 243,164 248,158 248,158 248,158 248,157 247,156 247,156 248,155 248,155 245,153 245,153 245,153 245,152 244,151 239,148 239,148 239,148 239,148 239,149 239,149 239,149 238,150 238,150 237,150 237,151 237,151 237,151 237,152 236,152 236,152 236,152 235,152 235,152 234,152 234,152 233,152 233,153 233,153 225,148 221,146 220,146 220,146 219,146 217,145 217,144 217,144 217,144 219,141 219,140 219,139 219,136 219,136 219,134 219,134 220,132 224,130 227,127 228,126 228,126 228,125 230,124 231,122 231,119 231,119 231,118 231,118 231,118 231,118 225,115 229,110 233,106 241,100 235,98 233,97 228,98 228,98 220,102 219,99 220,98 220,98 221,98 222,98 222,98 222,98 223,98 224,97 225,97 226,96 226,96 227,96 228,96 226,95 225,94 225,94 224,94 224,94 223,93 222,92 220,91 225,90 225,90 225,89 224,86 224,86 224,85 224,85 224,85 226,84 226,84 226,83 226,80 226,77 226,77 227,75 228,74 230,72 231,72 232,71 233,69 234,68 234,68 235,67 236,65 237,64 237,63 238,62 238,62 240,61 240,60 241,59 243,58 243,57 243,56 243,55 243,54 243,53 244,51 244,49 244,48 245,48 245,47 246,45 246,44 247,44 247,43 248,43 248,43 248,42 249,41 249,41 251,40 251,40 251,39 251,39 252,38 252,38 252,37 252,37 253,37 253,37 253,36 253,36 256,36 257,36 257,36 257,36 257,37 257,37 257,37 260,37 260,37 260,38 260,38 263,37 263,37 264,37 267,37 268,37 268,37 268,37 268,37 270,37 270,37 270,37 270,37 270,36 271,35 271,35 271,35 272,35 272,35 272,35 273,35 273,35 274,35 275,35 276,35 277,35 278,35 279,35 280,35 280,35 280,34 280,34 279,34 279,34 279,33 279,33 279,33 279,33 279,31 280,31 280,30 280,30 280,29 280,29 279,29 279,29 279,29 279,28 279,28 280,28 280,28 280,28 280,28 280,27 280,27 281,27 281,27 281,27 281,27 282,27 283,27 283,27 283,28 283,28 283,28 283,28 283,26 283,26 283,26 285,25 286,25 285,23 285,23 285,23 286,23 286,23 286,22 288,22 288,22 288,22 289,22 290,22 290,22 290,22 290,19 290,19 290,19 291,18 292,18 292,18 292,18 294,18 294,18 294,17 294,17 294,17 294,16 294,15 294,15 293,15 293,14 293,14 293,14 293,14 293,13 292,13 292,13 292,12 292,12 292,12 292,12 292,12 293,12 293,12 294,12 294,12 294,12 295,12 297,12 297,12 298,12 299,12 299,13 300,13 300,13 300,11 300,11 300,11 304,11 304,11 304,7 304,7 304,7 304,7 304,7 304,6 305,6 305,6 306,5 306,5 306,5 305,4 305,4 305,4 306,3 306,3 306,3 307,3 307,3 307,2 308,2 308,2 309,5 309,5 309,5 310,5 311,5 313,4 313,4 313,5 313,5 315,5 315,5 315,3 315,2 315,2 317,1 317,1 317,1 319,1 320,1 321,0 323,0 324,0 324,2 325,6 325,6 326,8 327,11 327,11 335,12 335,12 335,12 335,12 335,12 335,12 336,12 344,12 352,12 358,13 360,13 361,13 361,13 362,13 363,14 367,14 369,15 372,15 375,15 381,15 385,15 385,15 390,15 390,15 390,15 390,16 390,16 392,17 393,17 394,18 396,19 399,19 400,19 399,19 399,20 400,20 400,20 399,20 399,21 399,21 399,21 399,21 399,22 399,22 399,22 398,22 399,23 398,23 398,23 397,24 397,25 397,25 397,26 397,26 401,27 401,28 401,28 402,31 404,33 406,35 409,34 411,34 412,36 412,36 414,36 414,37 415,37 415,37 415,38 415,39 415,39 415,39 416,39 416,39 416,39 416,39 417,39 418,39 418,39 419,42 419,43 418,43 418,45 420,45 422,46 422,46 423,46 426,52 428,55 429,57 429,58 428,60 428,62 429,63 429,64 429,64 428,65 427,66 427,67 426,67 424,70 432,71 431,71 431,71 430,74 430,74 430,76 431,78 431,79 433,80 434,81 434,81 434,82 434,82 434,82 434,82 434,82 434,82 434,83 434,83 433,83 433,83 433,84 432,84 432,85 432,85 432,85 432,85 432,85 432,85 431,85 431,86 431,86 431,86 431,86 431,86 431,86 431,86 431,86 431,86 431,86 431,87 431,87 431,87 431,87 431,87 430,88 430,88 430,89 430,89 431,90 431,90 430,95 430,97 430,98 432,101 435,101 437,100 438,100 439,106 439,106 440,109 440,111 440,112 440,112 440,113 440,113 440,114 440,114 440,117 441,118 441,119 443,121 443,122 443,122 444,122 445,122 445,123 444,126 444,126 444,126 443,127 443,127 442,128 441,129 441,130 442,131 442,131 442,131 443,133 442,133 442,133 442,133 442,134 442,134 442,135 442,135 443,138 442,138 442,138 442,139 441,140 441,140 441,141 441,144 440,147 440,147 440,147 440,149 439,149 438,152 434,152 434,152 433,153 431,153 431,154 431,154 431,155 426,155 427,156 427,156 427,157 427,157 427,158 427,158 426,158 424,158 419,157 419,158 417,158 416,159 417,161 419,164 419,164 419,164 420,164 422,164 422,164 423,165 423,165 423,165 419,166 419,167 419,167 420,167 420,167 421,169 421,170 420,173 420,173 420,174 419,174 418,174 418,174 418,174 418,175 419,175 419,176 419,176 418,176 418,176 418,177 418,177 419,177 419,178 419,179 419,179 419,181 419,181 419,182 419,183 421,183 421,186 421,185 421,189 420,190 421,190 420,198 420,198 420,199 420,199 420,202 420,202 420,203 421,205 422,205 422,208 422,208 421,208 421,209 421,209 422,209 422,210 422,210 423,211 424,211 424,211 425,213 426,213 428,214 427,215 426,216 426,216 426,217 426,217 426,218 427,219 429,219 428,223 429,229 429,230 429,231 430,233 431,233 430,235 430,237 430,241 430,242 429,246 429,247 430,250 431,250 431,251 432,253 433,254 434,253 435,254 434,253 434,252 434,252 434,251 437,252 439,252 442,252 442,256 447,256 447,258 446,258 446,262 449,262 450,263 449,264 449,265 450,264 454,265 455,264 460,263 467,264 473,264 486,265 488,265 491,264 492,264 495,265 497,258 498,258 498,258 498,259 498,259 498,259 498,259 498,259 498,259 498,259 499,260 499,260 498,260 498,260 498,260 498,260 499,261 500,262 500,262 500,262 500,262 500,263 500,263 500,264 500,265 500,265 500,265 499,265 499,265 499,265 498,266 498,266 498,266 498,267 498,267 498,267 497,267 497,267 497,268 497,268 497,268 497,268 497,269 497,269 497,268 497,268 497,268 496,268 496,268 496,268 496,268 496,269 496,269 495,269 495,269 495,270 495,270 495,270 496,270 496,270 496,270 496,270 496,270 496,271 496,271 496,271 496,271 496,271 496,271 495,271 495,271 495,271 495,271 495,271 495,271 494,271 494,272 494,272 494,272 494,272 494,273 494,273 493,273 494,273 494,273 494,273 494,273 494,274 494,274 494,274 494,275 494,275 494,275 494,275 494,276 495,276 494,276 494,276 494,276 494,277 494,277 494,277 495,277 495,277 495,277 495,278 495,278 495,278 495,278 495,278 495,279 495,279 495,279 494,279 490,279 485,279 483,278 481,278 478,278 477,278 476,279 475,281 475,281 475,282 474,282 472,282 472,283 471,282 469,282 466,282 464,282 461,283 460,283 458,284 456,287 459,292 457,295 457,298 457,298 457,299 457,300 458,300 457,301 456,301 455,301 455,304 452,307 450,306 449,307 448,308 449,312 448,313 448,315 447,317 448,317 449,318 449,319 448,320 448,320 447,321 445,322 445,323 444,323 443,323 442,323 442,324 441,325 441,325 441,325 441,325 437,324 437,324 437,324 436,322 436,322 436,322 436,321 436,321 436,321 432,321 431,321 431,321 431,321 429,320 429,320 429,320 429,320 429,320 423,320 424,318 422,318 422,317 422,315 422,314 423,314 423,314 423,314 422,314 422,313 423,312 423,312 423,311 423,311 422,310 422,310 422,310 421,309 419,310 419,310 419,309 419,309 419,308 416,309 415,309 409,309 409,309 409,310 408,310 403,313 402,313 401,314 401,311 401,311 401,310 401,309 394,309 394,309 393,309 393,307 391,307 391,308 391,308 389,308 389,308 389,308 389,307 389,307 388,307 385,307 385,307 385,307 385,307 385,307 385,309 385,309 382,309 378,309 377,309 377,309 377,310 377,310 376,310 370,310 370,310 369,310 369,309 369,309 367,309 367,309 367,308 367,308 367,308 365,308 363,308 363,308 364,307 364,306 363,306 359,306 359,306 359,307 358,307 358,308 357,309 356,309 355,310 354,310 354,310 354,310 354,310 354,310 354,310 354,309 353,309 351,309 351,309 347,309 347,309 342,308 340,308 339,308 337,308 338,309 332,309 329,308 326,308 321,307 320,307 318,307 317,307 317,307 316,305 315,306 314,305 313,305 314,306 312,306 310,306 310,306 309,306 309,306 308,306 308,306 307,306 307,306 306,305 305,305 305,304 303,304 302,304 301,304 301,304 300,304 300,304 300,304 297,304 296,304 296,304 294,304 291,304 291,305 291,306 289,306 289,307 286,308 286,309 282,307 282,307 281,307 281,307 281,307 280,306 280,307 279,307 279,307 277,306 276,306 275,307 274,306 274,306 273,307 273,307 273,307 272,307 271,308 270,308 270,309 269,310 269,310 269,311 268,311 268,312 268,312 263,313 262,313 259,315 257,316 256,317 255,317 253,317 252,317 251,317 251,317 250,317 248,316 248,316 246,316 244,316 243,316 242,315 242,314 241,314 241,314 241,312 240,311 238,311 237,310 236,310 236,310 236,310 235,311 235,311 236,311 236,311 236,312 236,312 236,312 236,312 235,312 235,313 236,313 236,314 236,314 236,314 236,314 236,314 236,314 236,315 237,315 237,315 237,316 236,316 236,316 236,317 236,317 236,317 235,317 236,317 236,318 236,318 235,318 235,318 234,318 234,318 234,319 234,319 234,319 234,320 235,320 235,320 234,320 234,320 234,321 234,321 235,321 235,321 235,321 235,321 235,321 235,321 235,322 235,322 234,322 234,322 235,322 235,322 235,322 235,322 235,322 235,323 235,323 234,323 234,323 234,323 234,323 234,323 234,323 234,324 234,324 234,324 233,324 233,324 233,324 234,324 234,325 234,325 234,325 234,325 234,326 234,327 234,327 234,327 234,327 234,327 234,327 234,328 234,328 234,328 234,328 234,328 235,328 235,328 235,328 235,329 234,329 234,329 234,329 234,330 233,330 234,330 234,330 233,330 233,331 233,331 233,331 233,331 233,331 233,331 233,332 233,331 232,331 232,331 232,331 232,331 232,332 232,332 232,332 232,332 232,332 231,332 231,332 231,332 230,332 230,332 230,332 230,332 230,332 230,333 230,333 230,333 230,333 229,333 229,333 229,333 229,333 229,333 229,333 229,334 229,334 229,334 230,334 230,334 229,334 229,334 229,334 229,335 230,335 230,335 230,335 229,335 229,335 229,335 229,335 229,335 229,336 229,336 229,336 229,337 229,337 230,337 230,337 228,338 228,338 229,338 229,338 228,339 228,339 229,339 229,339 229,339 230,339 230,340 230,340 230,340 230,341 230,341 230,341 230,341 230,341 230,341 230,341 230,341 229,342 229,342 229,342 229,342 230,343 230,343 230,343 230,343 229,343 229,343 229,344 229,344 229,345 229,345 229,345 229,346 229,346 229,346 228,346 228,346 228,347 227,347 227,347 227,347 227,348 221,345 221,345 217,344 215,344 205,342 204,342 199,341 198,341 190,340 189,340 187,340 183,341 177,342 177,344 176,344 174,344 154,341 142,336 137,334 136,333 134,332 134,331 135,331 135,331 135,330 136,330 136,331 136,330 136,330 137,330 137,330 136,328 136,328 135,328 136,328 136,327 135,327 136,327 135,326 135,326 135,326 136,326 136,326 135,325 135,325 135,325 135,325 135,325 135,324 135,324 135,324 135,323 135,323 134,323 135,322 135,322 135,322 134,322 134,322 134,321 134,321 134,320 134,319 134,319 135,318 134,317 134,317 133,316 133,316 133,315 133,315 133,314 134,314 134,314 133,313 133,313 133,313 132,313 132,312 132,312 132,312 132,311 132,311 131,310 131,310 131,309 131,309 131,308 131,307 130,307 130,307 130,306 130,306 131,306 131,305 131,305 131,304 131,304 131,304 131,304 132,304 132,304 131,304 131,303 131,303 131,303 131,303 131,302 131,302 131,302 130,301 130,300 130,299 131,299 131,298 132,297 133,297 133,297 133,297 133,296 133,296 133,296 133,295 133,295 133,295 133,294 133,294 133,294 134,295 134,294 134,294 133,293 133,293 133,293 133,292 133,292 133,292 133,292 134,292 134,292 135,291 136,292 136,292 139,293 145,291 149,288 150,287 151,285 151,284 152,284 152,283 153,283 156,281 158,279 166,267 167,263 167,260 167,258 168,256 170,251" id="6517" class="canton" fill="steelblue" stroke-width="1" stroke="white" geotype="canton" geoname="Vic-en-Bigorre" code_insee="6517" code_departement="65" nom_departement="Hautes-Pyrénées" code_region="76" nom_region="Occitanie"/></svg>