<?xml version="1.0" encoding="utf-8"?>
<svg version="1.1" id="svgmap" xmlns="http://www.w3.org/2000/svg" xmlns:xlink="http://www.w3.org/1999/xlink" x="0px" y="0px" width="100%" height="100%" viewBox="0 0 500 329">
<polygon points="419,0 422,4 425,7 428,9 437,18 450,30 455,34 458,38 461,42 435,43 436,48 436,52 436,53 436,55 437,61 437,63 438,70 438,71 439,80 473,78 483,78 485,96 485,99 486,109 488,122 489,142 491,160 492,168 492,176 492,178 493,186 494,188 494,193 495,199 496,214 498,234 500,247 500,247 500,250 500,253 500,260 499,268 495,275 494,278 488,291 485,293 483,290 479,286 478,286 475,283 470,278 465,276 463,275 461,274 459,273 456,273 438,272 435,271 428,271 415,269 408,268 401,268 393,267 382,265 360,263 359,287 358,291 360,307 360,311 348,313 339,315 327,318 310,324 301,326 295,326 291,326 277,327 228,327 211,327 206,327 194,326 182,326 176,326 173,326 162,326 152,327 142,328 133,328 118,329 115,329 113,329 115,320 118,317 121,314 126,311 129,308 130,306 130,303 129,301 127,300 124,300 119,301 117,301 116,302 115,304 113,304 111,304 108,303 99,296 94,291 90,286 86,277 87,267 86,258 86,256 87,254 88,252 96,239 97,238 99,231 98,228 97,223 93,217 87,212 81,209 78,208 75,206 73,201 71,197 72,193 74,190 78,186 79,183 78,181 77,178 69,166 66,157 58,158 55,151 51,143 50,138 48,130 48,129 46,129 37,129 37,131 38,137 37,139 36,141 35,143 29,145 28,145 27,144 14,133 5,120 3,114 5,105 5,98 0,87 51,84 56,83 60,82 62,83 66,83 75,83 76,84 78,84 80,88 80,89 84,89 96,88 107,86 115,86 121,85 142,84 144,84 145,84 154,80 167,76 168,76 178,73 198,71 198,71 209,69 210,70 240,65 286,59 296,58 306,56 315,55 328,53 339,52 342,51 349,51 359,49 363,49 358,38 352,7 364,6 384,7 390,5 400,1 419,0" id="6510" class="canton" fill="steelblue" stroke-width="1" stroke="white" geotype="canton" geoname="Tarbes-1" code_insee="6510" code_departement="65" nom_departement="Hautes-Pyrénées" code_region="76" nom_region="Occitanie"/></svg>