<?xml version="1.0" encoding="utf-8"?>
<svg version="1.1" id="svgmap" xmlns="http://www.w3.org/2000/svg" xmlns:xlink="http://www.w3.org/1999/xlink" x="0px" y="0px" width="100%" height="100%" viewBox="0 0 500 248">
<polygon points="61,23 65,25 75,19 76,17 67,13 60,10 61,10 62,10 64,6 65,5 66,1 69,3 72,4 81,4 82,3 83,3 85,1 85,0 87,0 87,0 87,0 88,0 89,2 90,2 90,3 92,5 95,4 96,4 97,3 98,3 98,3 99,4 99,4 100,4 102,4 103,9 102,11 104,12 105,12 117,23 124,20 136,16 140,15 145,15 150,15 163,15 166,15 171,15 174,15 182,13 183,13 184,13 187,13 190,14 193,15 198,16 202,17 209,20 212,21 215,23 220,26 224,27 227,28 231,29 240,32 245,34 246,34 248,34 250,34 252,33 255,32 257,31 257,31 257,31 258,31 259,31 259,31 261,31 262,30 264,31 265,31 266,32 268,32 269,33 270,35 271,36 271,36 269,38 270,38 276,41 287,44 287,44 288,45 290,43 286,34 288,35 291,35 293,36 295,36 298,35 298,35 299,35 301,34 302,33 305,31 306,31 307,29 308,28 309,27 309,27 311,25 313,27 317,24 318,26 320,25 321,26 322,26 324,27 326,26 328,23 335,24 339,20 342,21 341,22 344,25 348,21 351,24 355,21 359,23 371,14 374,16 378,13 382,14 383,15 383,15 384,16 385,16 387,17 387,17 387,17 389,21 388,23 387,24 387,24 388,26 388,26 388,26 389,27 389,27 390,28 387,34 392,36 393,37 386,39 378,42 374,43 372,44 368,46 366,47 363,49 361,51 357,53 354,56 351,60 349,63 346,66 345,67 344,68 347,70 349,74 345,78 344,80 343,81 343,81 344,88 344,89 345,89 345,90 344,90 344,90 344,91 343,91 341,93 340,96 339,97 339,99 339,101 338,104 338,108 337,110 336,113 335,113 334,116 336,118 338,119 340,120 340,120 341,121 341,121 343,122 345,123 347,125 348,126 350,129 353,127 362,125 368,123 368,123 369,123 384,121 388,121 396,121 405,121 405,121 406,122 407,123 408,124 409,126 410,127 411,128 412,130 412,130 412,130 412,131 412,131 412,131 413,132 413,132 413,132 414,133 414,133 414,133 412,138 408,152 430,158 439,159 440,160 441,160 442,160 442,160 443,160 444,160 445,162 445,166 445,167 445,167 444,169 443,170 441,172 441,172 442,172 445,172 446,172 449,172 450,172 452,172 452,172 455,172 457,172 457,172 466,172 467,172 478,172 481,172 482,172 482,172 487,169 498,162 498,163 498,164 498,164 497,165 498,166 498,168 498,168 498,169 498,170 498,171 498,172 498,172 498,173 498,174 499,175 499,175 499,176 499,177 500,178 500,179 495,179 457,183 456,183 455,183 450,183 432,182 427,182 409,196 388,197 368,200 358,202 354,202 349,201 344,202 340,202 338,202 337,202 333,202 328,203 323,204 319,204 315,204 313,205 309,205 305,206 302,206 292,206 284,206 281,206 279,207 278,207 276,207 270,208 266,209 263,209 260,210 258,210 257,210 256,209 239,207 235,207 228,208 224,208 225,209 229,212 226,214 225,215 217,216 217,217 218,217 219,217 219,221 219,221 216,227 219,229 211,234 215,236 212,239 211,239 210,239 210,239 198,248 169,246 168,246 156,243 148,242 139,231 139,229 138,229 138,228 138,227 137,226 137,225 136,225 136,225 135,225 135,224 135,224 135,224 136,224 135,223 134,222 134,222 134,222 134,222 133,222 133,221 132,221 132,221 132,221 131,221 130,220 130,220 130,220 130,219 130,219 130,219 128,218 128,218 128,218 128,217 127,217 126,217 125,217 124,216 123,216 122,215 122,216 121,215 121,215 119,214 119,214 118,214 117,214 117,213 117,213 116,212 116,211 116,211 116,210 115,210 116,209 115,209 114,209 113,208 113,208 107,209 107,210 102,207 103,207 102,207 101,206 100,205 100,205 99,204 98,204 97,204 97,204 96,204 96,204 95,204 95,204 95,203 94,203 94,203 94,203 93,203 92,203 91,203 90,204 89,203 89,203 82,198 80,197 80,197 79,197 77,195 76,195 75,194 74,193 73,193 71,192 71,192 67,193 66,193 64,191 63,191 62,190 61,190 60,190 60,190 60,190 60,191 58,192 58,191 57,191 56,191 56,191 55,191 53,190 53,191 51,190 51,189 50,189 50,190 50,190 49,191 48,191 47,192 46,192 46,192 46,193 44,188 44,188 44,188 43,185 43,183 43,183 42,182 42,182 42,182 42,182 42,182 42,181 42,181 42,181 43,180 43,180 43,179 43,179 42,178 42,177 43,176 43,176 43,176 39,175 36,175 34,176 34,176 34,176 34,177 34,177 33,177 33,177 32,177 31,176 31,176 30,176 30,176 29,176 28,176 28,176 27,176 26,175 26,175 25,175 25,175 24,175 23,174 22,175 22,174 22,174 21,174 21,173 20,173 19,173 19,174 18,174 18,174 17,174 17,174 17,174 16,174 15,174 15,174 14,174 14,173 14,173 14,173 13,173 12,173 12,173 12,172 12,172 12,172 12,171 12,171 12,171 13,168 13,167 15,165 15,163 15,163 15,163 15,162 14,162 15,160 15,160 15,159 13,158 13,158 12,157 11,157 10,157 9,157 8,157 7,156 6,154 6,154 6,152 6,147 6,147 6,146 5,146 5,146 4,145 5,145 5,144 8,141 6,141 5,141 3,140 4,137 0,137 1,136 2,134 4,131 4,130 4,130 3,129 2,128 2,127 3,126 3,125 5,124 5,124 4,122 3,122 3,122 4,121 4,120 4,120 4,118 4,118 5,117 5,117 5,116 5,115 5,115 5,115 5,114 6,114 6,114 8,111 8,111 7,111 6,110 6,110 6,110 9,103 9,103 10,103 10,103 11,103 11,102 13,103 14,103 14,103 15,103 16,103 17,103 17,103 18,103 18,103 19,104 19,104 20,104 21,105 22,105 22,106 22,106 23,106 23,107 23,107 28,106 29,106 29,106 30,106 31,106 31,106 36,106 36,106 44,109 46,107 46,107 46,106 46,106 48,104 48,103 49,103 50,102 51,101 53,100 53,100 54,99 60,95 60,95 61,95 61,94 62,93 62,93 64,91 66,90 73,87 70,85 74,78 80,79 80,77 79,76 78,75 76,75 71,72 70,71 70,71 70,70 68,70 68,70 67,69 67,69 66,68 66,68 62,67 65,63 63,63 61,62 63,60 63,60 63,59 63,58 63,58 63,56 63,56 63,53 62,53 64,51 63,51 62,50 63,50 63,50 63,49 63,49 64,49 64,49 64,49 65,49 66,48 66,48 66,48 66,48 67,47 67,47 67,47 68,47 68,47 68,46 67,46 67,45 67,45 67,45 65,41 65,41 65,38 64,38 64,38 62,34 61,34 57,32 56,32 55,31 55,31 54,31 54,31 53,31 55,29 56,28 57,28 59,27 61,25 60,24 61,23" id="6612" class="canton" fill="steelblue" stroke-width="1" stroke="white" geotype="canton" geoname="Plaine d'Illibéris" code_insee="6612" code_departement="66" nom_departement="Pyrénées-Orientales" code_region="76" nom_region="Occitanie"/></svg>