<?xml version="1.0" encoding="utf-8"?>
<svg version="1.1" id="svgmap" xmlns="http://www.w3.org/2000/svg" xmlns:xlink="http://www.w3.org/1999/xlink" x="0px" y="0px" width="100%" height="100%" viewBox="0 0 500 177">
<polygon points="0,69 0,68 3,68 3,67 3,67 3,67 3,67 4,66 4,66 4,65 4,65 5,65 6,65 7,64 7,64 8,64 15,63 15,63 16,62 17,62 18,62 19,62 20,61 20,61 20,61 21,60 21,60 21,60 22,60 22,60 22,59 21,58 21,58 21,58 21,57 21,57 22,56 22,56 22,56 21,54 21,54 21,54 21,53 23,52 23,52 23,52 24,52 24,52 25,52 26,52 26,53 26,54 27,54 28,55 29,55 29,55 29,55 30,54 29,54 29,53 29,53 28,53 28,52 28,52 28,51 29,51 29,51 30,50 30,50 31,50 31,50 31,50 30,49 30,49 30,49 31,48 31,49 32,49 32,49 33,49 33,49 34,48 34,48 35,47 36,47 36,46 36,45 36,45 35,44 35,44 35,43 34,43 34,42 33,43 33,43 33,42 32,41 32,41 31,40 31,40 31,39 31,39 31,38 31,38 31,37 30,36 29,35 29,35 28,34 28,34 28,34 28,33 27,33 27,33 27,32 28,32 28,31 28,31 28,30 28,30 28,29 28,29 26,20 27,20 28,20 30,20 34,19 38,20 44,19 49,22 50,21 52,21 55,20 57,22 61,22 64,22 70,21 70,19 76,26 78,30 78,30 79,31 79,32 82,34 89,38 96,41 104,47 114,49 122,52 127,54 129,54 133,53 133,52 134,53 135,53 136,54 137,54 138,54 139,55 149,53 149,53 154,49 155,48 155,49 156,49 157,48 157,48 158,48 158,48 158,48 159,48 162,49 164,49 164,49 164,49 166,50 168,49 169,50 175,49 175,49 183,45 194,40 201,38 203,37 205,35 206,35 205,34 205,34 204,33 204,33 203,33 203,33 203,32 203,32 203,32 204,31 205,31 209,33 212,34 213,35 217,35 217,35 218,35 219,35 219,36 220,36 220,36 220,36 221,36 222,34 223,33 223,33 223,33 223,33 223,32 223,32 225,31 225,31 225,31 225,31 225,31 225,31 226,31 226,31 227,31 227,31 227,30 226,30 226,30 226,30 226,30 226,30 227,29 227,29 227,29 227,29 228,29 228,28 228,28 229,27 229,27 229,27 229,27 229,27 229,27 228,26 228,25 228,25 228,25 229,25 229,24 229,24 229,24 230,24 230,24 230,23 230,23 230,23 230,23 230,23 230,23 230,23 231,22 231,22 231,22 231,22 231,22 231,22 231,21 231,21 232,21 232,21 232,21 232,20 232,20 232,20 232,20 232,20 233,20 233,20 234,19 234,19 234,19 234,19 234,19 234,19 235,19 235,19 235,18 235,18 236,18 236,18 236,18 236,17 236,17 236,17 236,17 236,17 236,16 236,16 236,16 236,16 236,16 236,16 236,16 236,16 235,16 235,15 235,15 235,15 235,15 235,14 240,14 246,13 246,13 247,13 247,13 248,13 248,13 249,13 250,12 251,12 252,11 253,11 253,11 254,11 256,10 258,10 259,10 260,10 263,11 264,11 266,11 271,11 271,11 271,11 272,11 275,11 278,11 282,12 283,12 284,12 290,10 295,6 314,0 323,0 324,2 324,2 324,3 324,3 325,3 325,4 326,4 327,4 327,4 328,6 328,7 329,7 329,8 330,9 330,9 330,10 330,11 330,11 330,12 331,12 333,13 335,12 336,13 337,13 338,13 338,14 339,14 340,16 341,16 341,18 341,19 342,19 345,19 345,20 344,20 344,21 344,21 345,21 343,23 342,23 342,23 342,24 342,24 342,24 344,26 345,26 345,27 347,29 348,30 348,30 348,31 349,32 350,33 351,34 351,35 353,38 353,38 353,38 353,39 354,40 354,40 354,40 354,41 354,41 354,42 354,42 355,43 355,43 355,42 356,42 357,41 357,41 358,42 358,42 359,43 359,43 361,45 364,47 364,48 364,48 364,48 365,50 364,50 364,52 363,52 361,53 362,53 363,54 362,55 362,56 363,56 365,57 362,58 362,58 362,61 362,61 362,63 362,63 364,63 364,65 364,64 365,65 363,65 362,65 361,66 360,66 359,66 359,68 360,68 360,68 360,70 360,70 361,70 361,70 360,72 359,71 358,74 357,74 356,74 356,74 356,74 354,77 356,77 357,78 357,79 358,80 358,80 359,80 360,81 361,81 361,82 361,83 365,83 367,84 368,84 372,85 373,85 376,85 381,85 388,84 395,84 399,85 402,85 405,86 405,86 405,86 405,85 406,81 407,80 408,79 409,79 409,79 409,79 413,78 415,78 415,78 415,78 416,78 416,78 416,79 419,79 420,79 421,78 421,78 421,77 421,77 422,76 422,76 423,76 423,75 423,75 423,75 423,75 424,76 425,75 425,75 425,75 425,75 425,75 425,75 426,74 426,74 426,74 426,74 427,74 427,74 427,74 427,74 430,75 430,75 430,75 430,74 430,73 431,73 431,73 433,73 432,73 433,73 433,73 435,73 436,73 436,73 438,73 439,73 440,73 440,73 441,73 442,73 442,72 443,72 443,74 443,74 447,74 448,74 450,74 451,74 464,74 467,78 468,78 468,78 471,77 474,77 477,77 481,76 482,76 483,76 485,76 487,75 496,74 496,75 496,75 496,76 497,76 497,76 496,76 496,76 496,76 496,76 496,76 496,77 496,77 496,77 496,77 495,78 496,78 495,78 495,78 495,78 496,79 495,79 495,79 495,79 495,79 495,79 496,79 496,79 496,79 496,79 495,79 495,79 495,79 495,79 495,79 495,79 495,80 495,80 495,80 494,80 494,80 494,80 494,81 494,81 494,81 494,81 494,81 494,81 494,81 494,82 494,82 494,82 494,83 494,83 494,83 494,83 494,84 494,84 494,84 494,84 494,84 494,85 495,85 495,85 495,85 495,85 495,86 495,86 495,86 495,86 495,86 495,86 496,86 496,86 496,86 496,87 496,87 496,87 496,87 496,87 496,88 496,88 496,88 498,90 498,90 498,91 499,92 499,93 500,94 499,94 499,94 499,94 498,93 498,93 498,93 497,93 497,93 497,93 497,93 496,93 496,93 495,93 495,93 495,93 495,93 494,93 494,93 494,93 494,93 494,93 493,93 493,93 492,92 492,92 491,92 491,92 491,92 491,92 491,92 490,92 490,92 490,92 489,92 489,92 488,92 488,92 488,92 487,92 487,92 487,92 486,92 486,92 484,92 484,92 482,92 480,93 480,93 479,93 478,93 477,92 476,92 476,92 476,92 476,92 475,92 475,92 475,92 474,92 473,92 473,92 473,93 472,93 471,93 471,93 468,92 467,92 467,95 470,95 470,96 470,96 470,96 470,96 470,96 470,96 471,97 471,97 470,98 470,98 469,98 468,98 466,98 466,100 467,100 469,103 469,103 468,106 468,106 468,106 467,106 467,107 467,107 465,109 464,108 464,108 463,109 460,111 460,111 458,112 457,112 457,112 456,112 455,113 455,113 454,113 453,113 453,113 454,116 455,118 452,119 452,119 451,119 451,119 450,120 449,120 449,120 449,120 448,121 447,121 446,122 446,122 445,123 444,123 444,123 443,123 442,124 440,125 437,120 437,120 437,120 436,121 435,120 434,120 434,120 434,121 429,123 428,123 427,124 426,124 426,124 426,124 426,124 426,124 421,123 420,122 420,122 418,122 416,122 415,120 415,120 415,120 415,120 414,120 414,120 413,120 413,121 411,121 411,121 411,121 410,121 410,121 410,120 409,120 409,120 408,120 408,120 407,120 407,120 407,120 406,120 406,120 405,119 405,117 405,117 404,117 404,117 404,117 403,117 402,118 402,118 401,118 401,118 400,118 399,118 399,118 398,118 398,119 398,119 398,119 398,119 398,119 397,120 397,120 396,120 396,120 396,120 395,120 395,120 394,120 394,120 392,120 392,120 392,120 392,120 392,120 392,120 391,120 389,121 389,121 386,121 386,121 385,121 384,121 383,121 383,122 382,122 382,122 382,122 382,123 382,123 382,123 382,123 382,123 382,123 382,123 381,123 381,124 381,124 380,124 380,124 379,124 378,124 378,124 377,124 377,124 375,124 375,125 372,124 372,125 367,125 367,126 363,126 362,127 361,127 358,127 357,127 357,128 356,130 355,130 354,130 351,129 350,129 350,129 346,129 335,130 335,130 331,130 330,130 329,130 327,130 325,130 325,130 325,129 323,129 321,128 321,128 320,127 317,125 317,125 315,125 316,124 314,124 314,123 313,123 313,123 310,123 310,123 307,124 306,122 305,121 303,120 302,119 302,119 302,119 302,119 302,118 303,118 303,118 303,118 303,118 304,118 304,117 304,117 304,116 303,116 303,116 303,116 302,116 302,116 302,116 301,116 300,115 300,115 299,114 298,114 297,114 296,113 296,113 295,112 294,112 293,111 292,111 292,111 292,111 291,110 290,110 290,110 290,110 290,110 289,110 289,110 288,111 287,111 284,111 282,111 283,116 283,116 282,119 282,120 282,120 282,121 282,121 282,122 282,122 283,123 283,123 280,125 278,126 278,126 276,127 276,127 276,127 275,128 275,128 274,128 274,128 274,128 274,128 273,129 272,129 266,132 264,131 264,131 262,132 261,133 261,133 250,136 250,136 255,138 257,139 259,140 258,140 257,141 257,142 257,141 256,142 255,142 254,142 254,142 254,142 252,143 251,143 251,143 251,143 251,143 250,144 248,145 246,145 244,146 244,146 243,146 240,148 240,148 240,150 239,150 239,150 238,152 238,153 238,155 238,156 238,157 234,162 230,169 230,171 220,172 217,173 215,177 214,177 213,176 213,176 213,175 213,175 212,174 212,174 211,174 212,173 212,172 211,172 211,171 206,167 203,166 201,166 199,166 195,166 196,163 194,161 192,157 190,153 187,152 187,151 187,150 187,149 187,149 187,148 187,148 187,147 187,147 187,147 187,146 185,143 185,143 184,142 184,141 184,141 183,140 183,140 183,140 184,138 184,137 183,137 182,138 182,137 182,137 182,136 182,136 182,136 182,136 181,135 181,134 181,133 181,133 180,133 180,133 180,133 180,133 180,133 180,132 179,132 179,131 178,131 177,131 177,131 177,131 177,131 177,130 172,131 170,131 169,132 166,132 164,133 162,133 161,133 160,133 159,133 159,133 159,133 159,133 159,132 159,132 159,132 159,132 159,131 159,131 159,131 159,130 159,130 160,130 161,130 161,130 162,129 162,129 162,129 163,129 164,128 164,128 164,128 165,128 165,127 165,127 165,127 166,127 166,126 166,126 166,125 166,125 167,124 167,124 167,124 167,124 167,124 168,123 168,123 168,122 170,122 170,122 171,121 171,121 171,121 171,121 171,121 172,121 173,121 173,121 174,121 174,121 174,121 174,121 174,121 174,121 174,121 174,120 172,119 171,119 171,119 166,119 166,119 165,119 164,120 163,120 163,120 162,121 161,121 160,121 160,121 159,122 159,122 158,122 158,122 158,122 158,123 158,123 158,123 157,123 157,123 156,123 155,123 155,123 154,123 154,124 154,124 153,124 153,124 152,124 152,125 151,125 151,125 150,125 149,125 148,125 147,126 147,126 146,126 146,126 145,126 145,126 143,127 141,129 140,129 137,131 134,130 134,130 133,130 133,130 132,130 131,130 130,130 129,131 129,131 128,131 127,131 126,132 125,132 125,133 123,131 123,131 123,131 123,130 123,130 123,130 122,130 122,130 122,129 122,129 122,129 122,129 122,128 122,128 122,128 120,127 120,127 120,127 121,127 121,127 121,126 120,126 120,126 120,125 120,125 120,125 120,124 119,124 119,124 119,124 119,123 119,123 118,123 118,123 118,123 116,122 116,122 115,122 115,122 115,122 114,123 114,123 114,123 114,123 114,123 113,123 113,124 112,124 112,124 111,124 110,124 110,124 109,124 109,124 108,125 107,125 107,125 106,125 106,125 106,125 104,125 104,125 103,125 103,125 103,125 102,125 102,125 102,125 101,125 101,125 101,125 100,125 100,125 100,125 100,125 99,125 99,125 98,125 98,125 97,125 97,125 97,125 97,125 97,125 97,125 97,125 97,125 96,125 95,125 95,125 93,125 93,125 92,125 91,125 91,125 91,125 90,125 90,125 90,126 89,126 89,125 89,125 89,126 88,126 88,126 87,126 87,126 86,126 85,126 83,126 82,126 81,126 80,126 80,126 79,126 79,126 79,126 78,126 77,126 76,126 75,126 75,126 75,126 74,125 72,125 71,124 69,123 65,123 63,123 63,123 63,123 63,122 62,119 62,118 62,117 62,116 59,113 59,113 58,113 57,112 57,109 56,109 53,105 52,105 52,103 51,103 51,102 51,102 50,101 50,101 50,101 50,100 50,100 51,100 51,100 56,97 56,97 56,97 56,96 55,96 55,95 54,95 54,96 53,95 53,95 52,95 51,96 50,96 50,96 49,96 48,96 47,96 46,96 45,96 45,95 45,95 44,95 44,95 43,95 42,94 41,94 40,94 39,94 38,94 38,93 37,93 36,92 34,91 33,90 33,90 32,89 32,89 31,88 31,88 30,88 30,87 30,87 30,86 30,86 30,86 29,86 29,86 28,85 28,85 29,85 29,84 28,84 28,84 27,83 27,83 27,82 26,82 26,82 26,81 26,81 26,81 25,81 25,81 24,81 24,81 23,81 23,81 23,81 22,80 22,80 22,80 22,80 22,80 21,80 20,80 20,80 20,80 20,80 19,80 19,80 18,80 18,80 18,80 17,80 17,79 17,79 16,79 16,79 15,79 15,79 14,78 13,78 13,78 9,77 8,77 7,76 6,76 6,76 5,76 5,75 4,75 4,75 4,74 3,74 2,74 2,74 1,74 1,73 0,73 1,73 1,72 1,71 1,70 1,70 1,70 0,70 0,69" id="6616" class="canton" fill="steelblue" stroke-width="1" stroke="white" geotype="canton" geoname="Vallée de la Têt" code_insee="6616" code_departement="66" nom_departement="Pyrénées-Orientales" code_region="76" nom_region="Occitanie"/></svg>