<?xml version="1.0" encoding="utf-8"?>
<svg version="1.1" id="svgmap" xmlns="http://www.w3.org/2000/svg" xmlns:xlink="http://www.w3.org/1999/xlink" x="0px" y="0px" width="100%" height="100%" viewBox="0 0 500 419">
<polygon points="85,19 86,18 86,18 87,18 87,18 87,18 87,19 87,19 89,19 89,18 90,18 90,18 91,18 91,18 92,17 92,17 93,17 93,16 93,16 93,16 94,16 94,16 94,16 94,15 95,15 95,15 96,15 96,15 96,15 97,15 97,15 97,14 97,14 97,14 98,14 98,14 98,14 99,14 98,14 98,13 98,13 98,13 99,13 99,13 99,13 99,13 100,13 100,13 100,13 100,13 101,12 100,12 101,12 101,12 101,12 102,12 102,12 103,12 103,11 104,11 104,11 104,11 104,11 105,11 105,11 105,11 105,12 106,12 106,12 107,11 107,11 107,12 108,12 109,12 109,12 110,12 110,12 110,12 110,12 111,12 111,12 111,12 112,11 112,11 113,12 113,12 113,12 114,12 114,11 115,11 115,11 115,11 116,11 116,11 116,11 116,11 116,11 117,11 117,11 117,11 117,11 117,11 118,11 118,11 118,11 118,11 117,11 117,10 117,10 117,10 118,10 118,10 118,9 118,9 118,9 118,9 119,8 120,8 120,8 121,9 122,9 122,10 122,10 123,10 123,10 123,10 123,9 123,9 123,9 124,9 124,9 124,9 124,9 124,9 124,8 124,8 125,9 125,9 126,9 126,9 126,10 127,10 126,10 126,11 126,11 127,11 127,11 128,10 128,10 129,10 129,10 130,9 130,9 131,10 131,10 132,10 132,10 132,10 133,10 133,9 133,9 133,9 134,9 134,9 134,9 135,9 135,9 135,9 135,9 135,9 136,9 136,9 136,9 136,9 136,10 137,10 137,9 138,9 138,9 139,9 139,9 138,10 139,10 139,10 139,10 140,10 139,9 139,9 140,9 140,9 140,9 141,9 141,10 141,10 142,10 142,9 141,9 141,9 141,9 141,9 142,9 142,9 143,9 143,9 143,9 143,10 143,10 143,10 143,10 144,10 144,10 145,10 146,11 146,11 145,11 146,11 146,11 147,11 148,11 148,11 149,11 149,10 150,11 150,11 151,11 151,11 151,11 151,11 151,10 151,10 151,10 152,10 153,10 153,10 154,10 154,10 155,11 156,11 156,11 156,11 157,12 157,12 157,11 158,12 158,12 157,12 157,12 157,13 158,13 158,13 159,13 160,13 161,13 161,13 161,13 161,13 162,13 162,13 163,13 163,13 163,13 163,13 163,13 163,13 164,13 164,13 164,13 165,13 165,13 165,13 165,13 166,13 166,13 166,13 167,13 167,13 167,12 167,12 168,12 168,12 168,12 169,12 169,13 170,13 170,13 170,13 169,13 169,13 169,13 169,14 170,13 170,13 171,13 170,13 170,13 171,13 171,13 171,13 172,13 172,14 172,14 172,15 172,15 172,15 173,15 173,14 173,13 173,13 173,13 174,13 174,13 174,12 174,12 173,12 173,11 173,11 174,11 175,11 175,12 175,12 176,12 176,12 176,12 177,12 178,12 178,12 178,12 179,12 179,12 179,12 180,12 180,12 182,12 182,12 183,12 183,12 184,12 185,12 185,12 185,12 185,12 185,11 185,10 185,10 185,10 185,10 185,11 186,11 186,11 186,11 186,11 186,11 186,10 186,10 186,10 186,10 186,10 187,10 187,10 187,10 188,11 188,11 189,11 189,11 189,11 189,11 189,11 189,11 189,11 189,11 189,11 189,10 189,10 189,10 189,10 189,10 190,10 190,10 190,10 190,10 191,11 191,11 191,11 191,11 191,11 192,10 192,10 192,10 192,10 192,10 192,10 192,10 193,11 193,11 193,11 193,11 193,11 194,10 194,10 194,10 194,10 194,10 193,10 193,10 194,10 194,10 194,10 194,10 194,10 195,10 195,10 196,10 196,10 197,10 197,10 198,10 198,9 198,9 199,9 199,9 199,9 200,9 200,9 200,9 201,9 201,9 201,9 202,9 202,9 204,9 204,9 205,9 205,9 204,8 204,8 204,8 206,8 206,8 206,8 207,8 207,8 207,9 208,9 208,9 208,9 208,8 208,8 209,8 209,7 209,7 210,7 210,7 211,7 211,7 212,7 213,7 213,7 214,7 214,7 215,7 215,7 216,7 216,7 217,7 217,7 217,7 217,7 217,8 217,8 217,8 217,8 218,8 218,8 219,8 219,8 220,8 221,8 222,7 222,7 223,7 224,7 224,7 225,7 225,7 226,7 226,7 227,7 228,7 229,7 230,6 230,6 231,6 231,6 231,6 231,6 231,5 232,5 232,5 234,5 234,5 234,5 235,5 235,5 235,5 235,5 235,4 235,4 235,4 236,4 236,4 236,4 237,5 237,5 238,4 238,4 238,4 238,4 238,4 238,4 238,4 239,4 239,4 239,4 240,4 241,4 241,4 241,4 241,4 241,3 241,3 241,3 242,3 242,3 243,3 243,3 243,3 243,3 244,4 244,4 245,4 245,4 245,3 245,3 245,3 246,3 245,3 245,4 245,4 246,4 246,4 246,4 246,3 246,3 246,3 247,3 247,3 247,3 248,3 248,2 248,2 249,2 250,2 250,2 250,2 251,2 252,2 252,1 253,1 253,1 254,1 254,1 255,0 255,0 256,0 256,0 257,0 257,0 258,0 259,0 259,0 259,2 259,4 261,4 261,4 264,5 263,6 265,7 265,7 266,7 268,8 266,9 269,10 269,10 270,10 271,10 272,11 274,12 271,14 272,14 272,14 274,15 274,16 273,16 272,17 274,18 273,19 274,19 274,20 273,22 276,24 278,25 275,27 276,27 278,28 279,28 282,29 298,28 297,26 301,25 299,23 300,23 299,22 300,22 302,21 304,21 303,20 304,19 304,18 303,19 302,17 303,17 303,16 305,15 306,16 307,18 308,19 309,21 310,20 311,20 313,19 313,19 313,19 313,19 313,19 313,19 313,19 313,19 313,18 313,18 313,18 313,18 313,18 313,18 313,18 313,18 313,18 312,18 312,17 312,17 312,17 312,17 311,17 312,17 312,17 312,17 312,17 313,16 313,16 312,16 312,16 311,16 310,16 310,16 309,16 309,16 309,16 309,15 309,15 309,15 308,15 308,15 308,15 309,14 309,14 309,14 309,14 308,13 308,13 308,13 307,13 307,13 306,12 306,12 305,13 305,13 305,12 305,12 304,12 304,12 304,12 304,11 303,11 303,11 303,10 303,10 303,10 303,10 304,10 304,10 304,10 303,9 303,9 303,9 306,9 306,9 308,9 313,8 313,9 314,9 314,9 314,10 315,10 315,10 315,10 315,10 315,10 315,10 315,10 315,11 315,11 315,11 315,11 315,11 315,11 315,11 315,11 315,11 315,11 315,11 315,11 315,11 315,11 315,11 314,12 314,12 314,12 314,12 314,12 314,12 314,12 314,12 314,12 314,12 314,12 314,12 314,13 313,13 313,13 314,13 315,13 315,13 316,13 317,13 320,13 320,13 320,13 321,15 324,14 327,13 328,13 328,13 327,15 327,15 328,15 328,15 328,15 328,15 330,15 330,15 334,15 335,15 337,14 338,16 339,20 340,20 341,20 342,21 343,22 342,23 342,23 343,25 343,28 344,30 345,32 345,32 345,32 346,33 346,35 346,36 349,36 352,35 352,34 356,35 358,35 361,36 362,37 363,36 363,36 364,35 367,35 368,35 367,33 367,33 366,30 366,30 366,30 368,30 368,26 368,26 368,26 369,26 370,26 373,26 377,25 380,25 380,25 381,26 382,26 384,25 384,25 386,27 390,25 390,25 390,25 391,25 393,24 393,24 399,21 399,21 399,21 399,21 398,20 397,19 394,18 392,17 392,17 392,17 392,17 390,16 390,16 389,16 389,15 388,15 388,15 386,14 387,13 388,13 388,12 389,11 390,10 391,9 392,8 393,8 393,8 392,8 390,7 389,7 388,7 388,7 388,7 388,6 389,6 389,5 389,5 389,4 391,4 393,4 393,4 394,6 395,7 397,6 400,6 402,5 403,5 406,4 407,4 407,4 409,3 412,2 413,2 413,2 413,2 413,2 415,7 415,7 416,7 416,7 416,7 417,6 421,5 421,5 425,4 427,7 428,7 429,8 430,10 430,10 433,13 435,12 436,12 435,12 436,12 436,13 437,13 438,15 437,15 439,16 437,18 435,19 437,20 437,21 435,21 436,22 437,24 433,25 434,26 432,26 434,29 433,30 428,31 430,33 430,34 432,35 432,35 433,36 433,37 433,38 434,38 434,38 435,39 435,39 439,38 440,40 441,40 443,40 444,39 444,40 445,41 445,41 446,43 447,44 448,44 449,46 453,45 453,46 454,46 455,48 454,48 455,50 449,51 452,53 451,54 451,54 449,55 445,57 446,59 446,60 447,60 447,61 448,63 446,64 445,64 443,65 443,64 441,65 439,61 434,61 434,60 432,60 432,60 430,61 427,61 426,61 428,66 428,66 424,66 424,68 424,68 424,68 424,68 423,70 422,72 422,73 419,73 415,74 416,75 416,76 414,76 415,78 414,78 415,78 413,78 414,80 414,80 415,81 415,82 416,83 416,84 418,87 418,90 418,90 418,90 417,91 417,91 417,92 417,92 416,93 415,94 415,95 414,96 414,96 415,95 415,96 416,96 415,97 414,97 414,98 414,98 414,98 414,98 414,98 414,98 414,99 414,99 414,99 414,99 416,99 416,99 416,99 416,98 417,98 418,98 419,98 421,98 422,98 424,98 424,99 425,99 426,99 428,99 429,99 431,100 432,100 432,101 432,101 433,101 434,101 434,100 434,100 434,100 434,100 435,100 435,100 436,100 436,100 436,100 436,101 436,102 436,102 436,102 437,102 437,102 437,102 438,102 438,103 438,103 439,103 441,104 441,104 441,104 441,104 440,104 440,104 439,104 439,104 439,104 438,104 438,104 438,104 437,104 437,104 437,105 437,105 437,105 437,106 438,106 438,106 439,106 439,106 440,107 441,107 441,107 442,107 442,107 442,107 443,107 444,106 444,106 444,107 444,107 444,107 444,107 444,107 445,107 445,107 446,106 446,106 447,106 447,107 447,107 448,107 448,107 449,108 449,108 451,108 451,107 451,107 451,106 452,106 453,105 453,105 454,105 454,104 455,104 456,104 457,104 457,104 457,104 458,104 458,103 459,103 459,103 459,103 460,103 460,103 461,104 461,104 461,104 461,104 461,105 460,105 461,106 461,106 463,106 463,106 464,106 464,106 464,106 464,106 465,106 465,106 465,106 466,106 466,106 466,106 467,106 466,106 466,106 466,106 466,108 467,109 467,110 467,110 467,111 467,111 467,111 467,112 467,113 465,113 464,113 464,115 464,116 464,116 461,117 459,117 459,119 459,119 459,120 459,121 460,121 460,121 461,121 462,124 462,125 462,125 463,126 462,128 462,128 463,129 463,129 463,129 463,129 461,130 460,131 459,132 459,132 459,132 463,134 462,134 461,136 462,136 461,137 464,139 465,138 468,137 468,137 470,134 470,134 470,134 470,134 471,133 472,134 476,135 477,136 479,137 480,137 484,139 484,139 484,139 485,139 485,140 486,140 486,140 487,141 487,141 488,141 488,141 488,142 489,142 489,143 490,143 490,144 490,146 490,147 490,147 490,147 490,147 489,147 489,147 489,148 489,149 489,151 491,151 491,152 492,154 489,155 489,155 490,157 490,159 490,160 490,160 490,160 490,160 490,162 490,162 490,162 490,162 491,165 491,165 492,167 492,168 493,170 493,172 493,172 493,172 494,172 494,172 494,172 494,172 494,172 494,172 494,172 495,173 495,173 495,173 495,173 496,173 496,173 496,173 496,173 497,173 496,174 497,174 497,174 497,174 497,174 497,174 497,174 497,174 497,174 498,174 498,174 498,175 498,175 499,175 499,175 499,175 500,175 500,176 500,176 499,176 499,177 499,178 499,179 497,180 498,181 498,182 495,182 495,183 494,184 494,186 494,187 492,187 492,189 489,189 490,190 487,190 485,191 482,191 481,192 478,193 479,195 479,195 483,195 484,197 482,197 483,200 484,200 484,201 485,202 482,203 483,204 483,204 483,204 483,205 483,205 483,205 482,206 481,206 481,206 481,207 481,207 481,207 481,208 481,209 480,210 480,210 480,210 480,210 480,209 479,209 479,209 478,209 478,209 477,208 477,208 476,208 476,208 475,208 475,208 475,209 474,209 474,208 473,208 472,208 472,208 472,208 472,208 471,208 471,208 471,207 470,207 470,207 470,207 470,206 469,207 469,206 469,206 469,206 468,206 466,206 465,206 464,206 464,206 462,206 461,206 461,206 460,206 460,206 459,206 459,206 459,206 456,206 456,206 456,205 456,205 456,205 456,205 456,205 456,205 456,205 456,205 455,205 455,205 455,205 455,205 455,205 455,205 455,205 455,205 455,205 455,205 455,205 455,205 455,205 454,205 454,205 454,205 454,205 454,205 453,205 453,205 453,205 453,205 453,205 453,205 452,205 452,205 451,205 450,205 449,206 448,205 448,205 447,204 447,204 446,204 446,204 445,203 445,203 443,202 443,202 442,202 439,203 438,204 437,205 434,206 434,206 434,206 433,206 431,206 430,206 430,206 430,206 429,207 429,207 431,208 431,208 431,208 431,208 432,207 435,206 436,206 438,204 439,204 444,212 447,211 447,211 448,211 449,213 450,214 451,216 452,216 451,216 451,216 452,217 448,218 446,220 448,221 448,221 447,221 447,222 446,222 446,222 445,223 443,224 442,225 441,225 440,226 441,227 436,231 435,231 435,231 435,231 435,231 433,232 432,233 431,233 431,233 431,233 431,233 429,235 429,235 429,235 428,236 427,236 426,237 426,237 425,238 424,239 423,240 422,240 422,241 422,241 421,242 421,242 420,243 419,243 419,244 414,246 414,246 412,247 411,248 411,248 412,248 412,248 413,249 413,250 414,250 415,251 416,250 416,251 416,252 417,251 418,251 419,251 419,251 421,252 421,254 423,256 426,256 426,256 427,256 427,256 428,257 425,257 423,258 423,258 423,258 423,259 423,260 422,261 420,262 418,263 418,264 418,264 416,265 416,266 416,267 416,267 415,268 409,271 409,272 410,273 409,274 408,275 408,275 407,276 406,277 406,277 405,278 405,278 405,278 404,279 404,280 403,280 402,281 401,283 400,283 400,284 399,286 398,287 397,288 396,289 393,291 393,291 393,291 393,292 392,292 392,292 393,292 393,293 392,294 392,294 391,294 391,294 390,294 389,295 389,295 388,295 387,296 386,296 386,296 385,297 385,297 385,297 384,297 384,298 383,298 383,298 383,298 382,299 376,299 377,299 371,300 371,300 372,302 373,303 373,303 372,303 372,304 371,304 369,306 370,306 369,307 369,308 369,308 368,309 368,312 367,313 367,314 366,315 366,316 365,317 363,318 362,320 361,321 360,321 358,322 355,324 354,324 353,325 352,326 351,327 347,329 347,330 348,330 350,330 353,331 354,331 354,331 356,332 358,332 360,332 361,332 362,332 363,332 366,331 367,333 367,334 368,335 368,335 368,336 369,336 374,336 375,336 377,336 378,336 379,336 379,336 380,337 380,338 381,338 380,339 381,340 382,340 382,340 384,340 385,340 386,341 386,342 387,342 387,342 389,342 389,343 390,343 392,345 392,346 393,347 393,347 391,348 392,349 393,348 394,349 394,349 394,350 394,351 394,351 395,352 396,352 396,352 396,352 397,352 397,353 397,353 396,353 397,353 397,354 399,353 399,354 400,354 402,354 402,354 404,354 405,355 405,356 406,357 408,358 408,358 408,358 409,358 409,358 410,358 410,358 410,358 410,357 410,357 411,357 411,357 412,358 412,358 413,358 414,358 414,358 415,359 418,359 419,359 420,358 421,359 421,359 422,359 422,359 422,359 422,359 422,359 422,358 422,359 423,359 423,358 423,359 424,359 424,359 426,359 426,360 426,360 427,360 427,361 426,362 425,362 424,363 424,363 423,364 423,364 422,365 421,366 420,366 419,367 418,367 418,368 418,369 418,369 418,369 418,369 418,369 414,369 411,369 410,369 405,371 404,371 403,372 403,372 402,373 401,373 399,373 397,374 395,375 392,375 392,376 391,376 390,376 388,376 387,376 387,376 384,376 382,376 379,376 377,377 376,377 374,377 371,377 370,377 368,377 367,377 365,377 362,378 361,378 361,378 360,379 359,379 359,379 359,379 358,380 354,382 355,383 355,383 355,383 354,384 353,384 353,384 352,384 352,384 352,385 351,386 351,387 349,387 349,388 348,389 347,389 347,389 347,389 345,390 344,390 343,391 341,391 339,392 340,393 339,393 337,394 336,394 334,395 332,396 332,395 331,396 330,396 329,397 328,397 327,397 326,398 324,398 324,398 324,399 321,400 320,400 319,401 319,401 319,402 316,403 313,403 314,404 309,405 306,407 303,407 298,408 293,409 293,408 292,409 291,409 291,409 291,409 287,410 286,411 285,411 285,411 284,412 283,412 283,412 282,412 281,413 281,413 281,413 280,413 280,414 279,414 279,414 278,414 278,414 278,414 277,415 277,415 277,415 276,415 276,415 275,415 275,416 275,416 274,416 274,416 274,416 274,417 274,417 274,417 274,417 273,417 273,418 274,418 274,418 274,418 274,419 274,419 273,419 273,419 269,417 268,417 267,417 267,417 265,416 266,416 266,416 265,415 264,415 264,414 264,414 263,413 263,413 262,411 261,412 260,411 260,409 263,409 262,408 262,407 261,406 261,406 261,406 260,405 259,403 257,401 255,398 254,397 254,398 254,398 251,396 251,396 252,395 250,395 249,395 247,394 247,394 245,395 242,394 242,393 242,393 242,393 240,392 234,390 232,388 229,387 230,386 226,385 220,383 217,381 216,382 215,383 212,385 211,385 206,385 204,384 203,383 203,382 202,382 202,381 201,381 200,380 199,379 199,379 197,378 195,376 194,375 190,373 187,373 185,373 179,374 175,375 169,377 165,377 160,377 155,378 146,380 142,381 137,380 134,378 130,375 126,372 124,372 122,372 120,373 120,373 119,373 118,373 114,373 112,373 110,372 107,372 105,371 104,371 102,370 98,368 94,368 92,366 90,363 87,362 85,361 83,361 80,363 77,365 74,365 71,366 66,368 64,370 58,372 57,371 55,370 52,369 49,368 45,369 40,370 39,367 38,367 38,366 38,366 37,366 36,366 36,365 35,365 35,365 35,365 35,365 34,364 33,364 33,364 32,364 32,363 32,363 31,363 31,363 30,363 30,363 30,363 30,362 29,362 29,362 28,362 28,362 28,362 28,362 27,362 27,362 27,362 26,362 26,362 26,362 26,362 26,362 25,362 26,361 25,361 25,361 25,361 25,361 25,360 25,360 25,360 25,359 25,359 25,358 25,358 25,358 25,358 25,358 24,357 24,357 24,357 24,356 24,356 24,356 24,356 24,355 24,355 24,354 24,354 24,354 24,353 24,353 25,353 25,353 25,353 25,353 26,352 26,352 26,352 27,352 27,352 27,352 27,352 28,351 28,351 28,351 28,351 29,351 29,351 30,351 30,351 30,351 31,350 31,350 31,350 31,350 32,349 33,349 33,349 34,348 34,348 35,348 35,348 36,348 36,348 36,347 36,347 36,347 36,347 36,346 36,346 36,346 36,346 36,345 37,345 37,344 37,344 37,344 37,344 37,344 38,343 38,343 38,343 38,343 38,343 38,343 39,343 39,342 40,342 40,341 41,341 41,341 42,341 42,340 43,340 44,340 44,340 45,340 45,340 45,340 45,340 45,339 45,339 45,339 45,339 45,339 45,338 45,338 45,338 46,338 46,337 46,337 46,337 47,336 47,336 48,336 48,335 49,334 50,334 50,333 50,333 50,333 50,332 49,332 49,331 49,331 48,331 48,331 48,330 49,330 49,329 48,328 48,328 48,327 48,327 48,326 48,326 48,326 48,326 48,325 48,325 48,325 48,324 48,324 48,324 49,324 49,323 50,323 50,323 51,323 51,323 52,323 52,323 53,323 53,323 54,322 54,322 55,322 55,322 55,322 56,322 56,322 57,322 57,322 57,321 57,321 57,321 57,321 58,320 58,320 58,320 58,319 59,319 59,319 59,319 59,319 59,319 59,318 59,318 59,318 59,318 59,317 59,317 60,317 60,317 60,317 60,316 60,316 60,316 61,315 62,314 62,314 62,314 62,314 62,313 63,313 63,313 63,313 63,312 64,312 64,312 64,311 64,311 64,311 64,310 64,310 64,310 64,308 64,308 64,308 65,307 65,307 64,306 64,306 62,306 61,306 61,306 60,306 59,306 59,306 58,306 57,306 56,306 56,305 55,305 55,305 53,304 52,304 52,304 51,304 50,303 49,303 47,303 40,301 38,302 33,300 39,298 44,298 45,297 47,298 50,298 56,298 57,298 59,298 62,294 63,294 64,293 66,292 68,291 70,290 70,289 70,288 69,287 68,285 69,284 69,282 70,281 73,280 75,280 77,281 79,280 81,279 83,278 83,278 84,277 85,277 87,275 88,275 89,274 89,272 89,271 90,269 90,268 90,268 90,268 91,265 92,264 97,262 99,260 102,257 105,255 105,255 107,252 100,252 98,252 95,252 92,252 91,252 88,251 85,251 79,251 77,251 69,251 62,249 59,249 54,248 48,248 45,248 43,248 39,247 39,244 37,242 36,239 35,235 34,230 30,228 25,230 23,230 24,230 26,229 27,228 26,228 24,226 21,223 18,219 14,217 13,216 12,214 11,213 11,212 11,211 10,207 9,205 9,203 8,202 7,202 6,201 6,201 6,201 5,201 5,201 4,200 4,200 4,199 4,199 4,199 3,199 2,198 2,198 1,198 0,197 0,196 1,196 2,196 2,195 3,194 3,194 3,194 3,194 4,193 5,193 5,193 5,193 6,192 6,192 7,191 7,191 8,191 8,191 8,191 9,191 9,190 9,190 9,190 10,190 10,190 10,190 11,190 11,190 12,190 12,190 13,190 13,190 14,190 14,190 14,190 15,190 16,190 16,190 16,190 18,192 28,192 29,192 31,192 31,192 31,191 32,188 33,187 34,187 36,186 38,186 38,185 39,185 39,184 39,184 39,183 39,183 39,182 39,181 39,181 41,180 41,179 40,178 40,177 39,176 39,176 38,175 38,175 38,174 38,173 39,172 39,171 39,170 39,168 39,167 39,167 40,164 41,164 41,165 41,165 42,165 44,165 45,165 45,164 45,164 44,164 44,164 43,164 43,164 42,163 41,163 41,164 40,164 42,158 42,158 42,158 43,158 44,158 45,158 46,158 47,158 48,158 49,158 49,157 49,157 50,157 51,157 53,154 63,141 65,138 66,137 73,131 74,129 75,129 74,128 75,128 75,128 75,127 77,128 77,128 78,126 78,126 78,125 78,125 79,124 79,123 79,121 80,120 80,118 81,117 81,117 81,117 81,116 82,115 83,113 83,113 84,112 84,111 84,110 84,110 84,109 85,109 85,109 85,108 85,108 86,107 86,107 86,106 86,105 87,104 87,103 87,102 87,101 87,101 88,100 89,100 89,98 89,98 89,98 90,95 90,94 90,94 91,93 91,92 91,92 92,91 92,91 93,89 93,89 94,89 96,88 96,88 97,88 101,85 107,83 110,81 112,79 115,78 116,77 116,77 117,76 118,76 118,76 120,75 120,75 120,74 120,74 120,73 121,73 121,72 121,70 121,70 123,69 124,68 125,68 125,67 125,66 124,65 117,65 112,62 111,61 111,61 111,60 109,58 109,57 109,57 109,57 109,57 109,57 108,57 108,56 108,56 108,56 108,56 108,55 108,55 107,54 107,54 107,54 107,54 107,53 107,53 107,53 107,52 107,52 107,52 107,52 107,52 107,51 106,51 106,51 106,51 106,51 105,50 105,50 104,50 104,50 104,50 104,49 103,49 103,49 103,48 103,48 102,48 101,47 100,46 100,45 100,45 100,45 100,45 99,45 99,44 99,44 98,44 98,44 98,44 98,43 98,43 98,43 98,43 97,43 97,43 97,43 97,42 97,42 97,42 97,42 96,41 96,41 96,40 96,40 96,40 95,40 95,40 95,40 95,39 95,39 95,39 95,39 95,39 95,39 95,39 95,39 95,39 94,39 94,39 94,38 93,38 93,38 93,38 93,38 93,38 92,38 92,38 92,38 92,38 91,38 91,38 90,38 90,37 89,37 89,37 89,37 89,37 88,37 88,37 88,37 88,37 87,36 87,36 87,36 87,36 86,36 86,36 86,35 85,35 85,35 84,35 84,34 84,34 84,34 84,34 84,34 83,33 83,33 83,33 83,33 83,32 83,32 83,32 83,31 83,31 83,31 83,31 84,30 84,30 84,30 84,30 84,30 83,30 83,30 84,30 84,29 84,29 84,29 84,28 84,28 85,28 84,28 84,28 84,28 85,28 85,28 85,27 85,27 85,27 85,27 85,27 85,26 85,26 85,26 86,26 85,26 85,26 85,26 85,26 85,25 85,25 86,25 86,25 86,25 86,24 86,24 86,24 86,24 86,24 86,24 86,24 86,24 86,24 86,23 86,23 86,23 86,23 86,23 85,23 85,23 85,22 85,22 85,22 85,22 85,21 85,21 85,21 85,21 85,21 85,20 84,20 84,20 85,20 85,20 85,20 85,20 85,20 85,19 85,19" id="6714" class="canton" fill="steelblue" stroke-width="1" stroke="white" geotype="canton" geoname="Saverne" code_insee="6714" code_departement="67" nom_departement="Bas-Rhin" code_region="44" nom_region="Grand-Est"/></svg>