<?xml version="1.0" encoding="utf-8"?>
<svg version="1.1" id="svgmap" xmlns="http://www.w3.org/2000/svg" xmlns:xlink="http://www.w3.org/1999/xlink" x="0px" y="0px" width="100%" height="100%" viewBox="0 0 500 306">
<polygon points="39,158 40,159 41,159 42,159 42,160 43,161 45,161 47,162 48,162 49,162 49,162 50,161 51,159 52,158 53,157 54,157 55,157 56,157 57,158 58,159 60,161 60,161 61,161 61,161 61,163 62,165 63,167 63,169 64,169 65,170 66,172 68,172 69,172 71,172 73,171 74,171 75,170 76,170 78,170 79,170 81,170 82,170 84,170 86,170 87,169 89,169 89,169 90,169 91,169 95,168 97,168 97,168 96,168 96,167 95,167 95,167 95,167 95,167 95,167 94,167 93,167 93,167 92,167 92,167 92,167 91,167 91,167 91,167 91,167 90,167 90,167 90,166 90,166 90,166 90,166 91,166 91,166 91,166 91,166 90,166 90,166 90,166 90,166 90,166 90,165 90,165 91,165 91,165 91,165 91,165 91,165 92,165 92,165 92,164 92,164 92,164 93,164 93,164 93,164 93,164 92,164 92,164 92,164 92,164 93,163 93,163 93,163 93,163 93,163 93,163 93,163 93,163 93,163 93,163 93,163 93,162 93,162 93,162 93,162 93,162 93,162 93,162 93,161 93,161 92,161 92,161 92,161 92,161 91,161 90,161 90,161 90,161 89,161 89,161 89,161 89,160 90,160 90,159 90,159 91,159 91,159 91,158 92,158 92,158 92,158 92,158 92,158 93,157 93,157 93,157 93,157 93,157 93,157 94,157 95,157 95,157 95,157 95,156 95,156 96,156 96,156 97,156 97,156 97,156 98,156 98,155 98,155 98,155 99,155 99,155 99,155 99,154 99,154 100,154 100,154 100,154 100,154 101,154 101,153 101,153 101,153 101,153 102,152 102,152 102,152 102,152 103,152 103,152 103,151 103,151 104,151 104,151 104,151 104,150 105,150 105,150 105,150 105,150 106,149 106,148 108,146 108,146 109,145 109,145 110,144 111,144 112,143 113,144 113,144 115,143 116,143 116,143 118,143 118,143 120,142 121,142 123,141 123,141 123,141 123,141 123,140 124,140 124,140 124,139 124,139 124,139 124,138 124,138 125,138 125,137 125,137 125,137 125,137 125,137 125,136 125,135 126,135 126,135 126,134 126,134 126,133 126,133 126,133 126,133 127,133 127,133 127,133 127,133 127,133 127,133 127,133 127,132 127,132 127,132 127,132 127,132 127,132 127,132 127,132 127,132 127,132 127,132 127,132 127,132 127,132 127,132 127,132 127,132 127,132 127,132 127,132 127,132 127,131 127,131 127,131 127,131 127,131 127,131 127,131 127,131 127,131 128,131 128,131 128,131 128,131 128,131 128,131 128,131 128,131 128,131 128,131 128,131 128,131 129,130 129,130 130,130 130,130 131,129 131,129 131,129 131,129 131,129 131,129 131,129 131,129 131,128 131,128 131,128 131,128 131,128 130,128 130,128 130,128 130,128 130,128 129,128 129,128 129,128 129,128 129,128 129,128 129,128 129,128 128,128 128,128 128,128 128,127 128,128 127,127 127,127 126,127 125,126 125,126 126,126 126,125 126,125 126,125 127,125 127,124 127,124 128,124 127,123 127,123 128,122 128,122 129,122 129,121 129,120 130,120 130,119 130,118 130,117 131,116 131,115 132,114 133,114 133,113 134,113 134,112 135,111 137,110 138,109 139,108 139,108 140,106 141,106 142,105 142,105 142,105 142,105 142,104 142,104 142,104 142,103 142,102 142,102 142,101 141,101 139,100 137,100 136,99 135,99 135,99 135,98 136,98 136,97 137,97 137,95 137,95 137,95 138,94 138,94 138,94 139,94 140,93 144,91 145,89 147,87 148,86 148,85 148,85 148,83 150,81 151,80 152,80 153,80 154,79 155,78 157,78 158,76 158,76 158,75 161,73 162,72 164,70 164,70 164,70 164,70 164,70 165,69 165,69 166,69 166,69 165,68 165,68 164,67 163,67 163,67 163,67 162,66 162,66 160,64 160,63 161,62 161,61 161,61 161,61 161,60 160,59 160,59 160,59 161,59 161,59 162,59 162,59 163,59 163,58 163,58 163,58 163,58 163,58 163,58 163,58 164,58 164,58 164,58 164,58 164,58 164,58 164,58 164,58 164,58 164,58 164,58 164,57 164,57 164,57 164,57 164,57 164,57 165,57 165,57 165,57 165,57 165,57 165,57 165,57 165,57 165,57 165,57 165,57 165,57 165,57 165,57 165,57 165,57 166,57 166,57 166,57 165,57 165,57 165,57 165,57 165,56 165,56 165,56 165,56 165,56 165,56 165,56 165,56 165,55 165,55 165,55 165,55 165,55 165,55 165,55 165,55 165,55 165,55 165,55 165,54 165,54 165,54 165,54 166,54 166,54 166,54 166,54 166,54 166,54 166,54 166,54 166,54 166,54 166,54 167,54 167,54 167,54 167,54 167,54 167,54 167,54 167,53 167,53 167,53 167,53 167,53 167,53 167,53 167,53 167,53 167,53 167,53 167,53 168,53 168,53 168,53 168,53 168,53 168,53 168,53 168,53 168,53 168,53 168,53 168,53 168,53 168,53 168,53 168,53 168,53 169,53 169,53 169,53 169,53 169,53 169,53 169,53 169,52 169,52 169,52 169,52 169,52 169,52 169,52 169,52 169,52 169,52 170,52 170,52 170,52 169,52 169,52 169,52 169,52 169,52 169,52 170,52 170,52 170,51 170,51 170,51 170,51 170,51 170,51 171,51 171,50 171,50 171,50 171,50 171,50 172,50 172,50 172,50 172,50 172,49 172,49 172,50 172,50 172,49 172,49 172,49 172,49 172,49 172,49 172,49 172,49 172,49 172,48 172,48 172,48 172,48 172,48 173,48 173,48 173,47 173,47 173,47 173,47 173,47 173,47 173,47 173,47 173,47 173,47 173,47 173,47 174,47 174,47 174,47 174,47 174,47 174,47 174,47 174,47 174,47 174,47 174,47 174,47 174,47 174,47 174,47 174,47 174,47 174,47 175,47 175,47 175,47 175,47 175,47 175,46 175,46 175,46 175,46 175,46 175,46 175,46 175,46 175,46 175,46 175,46 175,46 175,46 175,46 175,46 175,46 175,46 175,46 175,46 175,46 175,46 175,46 175,46 175,46 175,46 175,46 176,46 176,46 176,46 176,46 176,46 176,46 176,46 176,46 176,46 176,46 176,46 176,46 176,46 176,46 176,46 176,46 176,45 176,45 176,45 176,45 176,46 176,46 176,45 176,45 176,45 176,45 176,45 176,45 176,45 176,45 176,45 176,45 177,45 176,45 176,45 176,45 176,45 177,45 177,45 177,45 177,45 177,45 177,45 177,45 177,45 177,45 177,45 177,44 177,44 177,44 177,44 177,44 177,44 177,44 177,44 177,44 178,44 178,44 177,44 178,44 178,44 178,44 178,44 178,44 178,44 178,44 178,44 178,44 178,44 178,44 178,44 179,44 179,44 179,44 179,44 179,44 179,44 179,44 179,44 179,44 179,44 179,43 179,43 179,43 179,43 179,43 179,43 179,43 179,43 179,43 180,43 180,43 180,43 180,43 180,43 180,43 180,43 180,43 180,43 180,43 180,43 180,43 180,43 180,43 180,43 180,43 180,43 180,43 180,43 180,43 180,43 180,43 181,43 181,43 181,43 181,43 181,43 181,43 182,43 182,43 183,42 184,42 184,42 184,42 184,42 184,42 184,42 184,41 184,41 184,41 185,41 185,41 185,40 185,40 185,40 184,40 184,40 191,33 199,26 200,24 201,22 202,22 202,21 201,19 199,18 198,17 197,16 195,15 201,16 215,19 227,21 231,22 237,24 239,24 246,26 248,27 249,27 251,26 251,26 251,26 252,25 253,24 254,24 255,23 256,22 256,22 256,22 257,21 260,22 261,22 263,21 272,22 273,21 277,21 277,21 278,20 279,20 279,19 279,19 279,19 279,18 279,18 278,17 278,17 277,17 275,16 274,16 273,16 272,15 273,14 274,12 276,10 276,10 278,12 280,12 281,12 283,11 286,11 288,12 289,12 290,13 292,16 292,16 293,17 294,17 297,17 297,16 298,16 299,16 300,16 301,16 303,15 303,15 304,15 305,15 306,16 306,17 306,17 306,17 307,17 308,19 310,19 311,19 311,19 311,19 312,19 312,19 312,18 312,17 312,17 314,16 314,16 315,15 315,15 317,14 318,14 318,14 318,14 319,14 320,13 321,13 322,13 322,13 323,13 323,13 323,13 323,14 323,14 322,15 323,15 323,16 323,16 323,16 323,17 324,18 323,19 323,21 323,22 322,24 322,25 323,26 323,28 324,28 326,28 327,28 328,28 329,28 330,27 330,27 331,26 334,24 335,24 338,24 341,25 343,25 344,24 346,23 348,23 349,23 350,23 354,25 354,25 355,26 356,26 357,26 359,26 360,26 361,26 362,26 366,25 367,25 369,24 371,23 373,22 373,21 373,21 373,21 372,20 374,19 375,17 377,15 378,15 379,13 380,12 383,10 386,9 389,9 390,9 391,9 392,9 394,10 396,10 397,9 397,8 398,8 399,7 400,7 400,6 401,6 404,0 405,0 405,0 407,1 409,1 410,2 412,2 413,3 415,3 416,4 417,4 418,4 418,4 420,5 421,5 423,5 424,6 425,6 426,7 427,9 427,11 427,11 429,12 430,13 431,14 432,14 433,14 435,15 435,15 436,15 437,15 439,16 440,16 442,16 443,17 443,17 444,17 445,17 444,18 445,19 446,19 446,20 447,21 448,21 448,22 448,22 449,23 450,23 450,24 451,24 453,24 455,24 458,24 459,25 462,25 463,26 464,26 465,26 467,26 468,27 468,27 468,27 468,29 468,29 468,29 469,29 471,30 473,29 474,29 474,29 475,28 475,28 476,29 477,30 478,31 478,32 478,33 478,33 478,34 478,34 478,35 478,35 478,36 478,36 480,38 481,38 481,39 481,39 482,39 482,39 482,39 482,39 482,39 482,40 482,40 482,40 480,41 480,41 477,42 475,43 473,43 472,44 472,44 471,44 471,44 471,45 470,45 470,45 469,45 468,46 468,46 468,46 468,46 467,46 467,46 467,46 467,46 466,47 465,47 465,47 465,47 464,47 464,48 464,48 463,48 463,48 463,48 463,49 463,49 464,49 463,49 463,50 463,50 462,50 462,50 462,50 462,51 463,51 463,51 463,51 463,51 463,51 461,54 458,55 458,55 456,57 455,58 456,59 457,60 457,61 458,61 459,62 460,63 462,64 462,64 462,64 462,64 462,64 461,64 461,64 461,65 461,65 461,65 460,65 460,65 460,65 460,65 460,66 460,66 459,66 459,66 459,66 458,66 458,66 458,67 458,67 457,67 457,68 457,68 457,69 457,69 457,69 457,69 457,69 457,69 457,70 457,70 458,70 458,70 458,70 458,71 458,71 458,71 459,71 459,71 459,71 459,71 459,72 459,72 459,72 459,72 460,72 460,72 460,72 460,72 460,72 460,73 461,73 461,73 461,74 461,74 461,74 461,75 461,75 461,75 461,75 461,75 461,76 461,76 461,76 460,76 460,77 460,77 460,77 460,77 460,78 460,78 460,78 460,78 459,79 459,79 459,79 459,79 459,79 459,79 459,79 459,79 459,80 459,80 459,80 459,80 459,80 459,80 459,80 459,80 459,80 459,80 459,81 459,81 459,81 459,81 458,81 458,81 458,81 458,81 458,81 458,81 457,81 457,81 457,81 457,81 457,82 456,82 456,83 455,83 455,83 455,84 456,84 456,84 456,84 456,84 456,85 459,85 459,85 460,85 461,85 462,85 462,85 463,85 463,86 463,86 462,88 463,88 464,89 464,89 465,89 465,90 465,91 465,91 466,91 466,92 466,92 466,93 466,93 467,94 469,96 469,96 469,97 469,97 468,97 466,98 465,98 464,99 462,100 460,101 460,102 458,103 457,104 455,105 454,106 452,108 450,109 449,110 448,111 448,111 447,112 446,113 445,114 444,114 444,115 443,115 442,116 442,117 442,117 441,117 440,118 440,119 441,119 443,119 445,119 445,120 445,120 445,121 445,122 445,122 446,123 446,123 446,123 446,123 446,123 447,123 447,123 447,124 447,124 447,123 447,124 447,123 447,124 448,124 448,124 448,124 448,124 448,124 448,124 448,124 448,124 448,124 448,124 449,124 449,124 449,124 449,124 449,124 450,124 450,124 450,124 450,124 450,124 450,124 450,124 451,124 451,124 451,124 451,124 451,124 451,124 451,124 451,124 451,124 451,124 451,124 451,124 452,124 452,124 452,124 452,124 452,124 452,124 452,124 452,124 452,124 452,124 453,124 453,124 452,124 453,124 453,124 453,124 453,124 453,124 453,124 453,124 453,124 453,124 453,124 453,124 453,124 454,124 454,124 454,124 454,124 454,124 454,124 454,124 455,124 455,124 455,124 455,124 455,124 455,124 455,124 455,124 456,124 456,124 456,124 456,124 456,124 456,124 456,124 456,124 456,124 457,124 457,124 457,124 457,124 457,124 457,124 457,124 457,124 458,124 458,124 458,124 458,124 458,124 458,124 458,124 458,124 458,124 458,124 459,124 459,124 459,124 459,124 459,124 459,124 460,124 460,124 460,124 460,124 460,124 460,124 460,124 461,124 461,124 461,124 461,124 462,124 462,124 463,125 463,125 464,125 465,126 465,126 466,126 466,127 467,127 467,127 467,127 467,127 468,128 468,127 467,127 467,127 468,126 468,125 468,125 469,124 470,123 472,124 471,124 471,125 471,125 471,126 472,127 473,127 473,126 474,127 474,127 475,127 475,128 476,127 477,127 478,127 478,126 479,126 480,125 481,125 481,125 482,124 482,125 482,125 483,125 484,126 485,127 485,128 485,128 486,128 486,129 485,129 485,130 485,130 485,131 485,132 485,132 484,132 484,133 484,133 482,135 481,135 481,136 481,136 481,136 481,137 481,137 482,137 482,137 482,138 482,138 483,138 483,138 483,139 483,139 483,139 484,140 484,140 484,140 485,141 485,141 485,141 485,141 484,142 484,142 485,143 485,143 485,143 485,144 485,144 486,144 486,144 486,144 486,145 486,145 486,145 486,145 486,146 486,146 486,146 486,146 487,146 487,146 486,147 486,147 486,147 486,147 486,147 486,147 486,147 486,148 486,148 486,148 486,148 485,149 486,149 486,150 487,150 487,150 487,151 486,151 486,151 486,152 486,153 487,153 487,153 487,154 487,154 487,155 488,155 492,155 494,155 495,155 494,158 495,158 495,158 496,158 495,162 495,163 496,164 496,164 496,165 497,166 497,166 498,167 500,168 500,168 496,170 496,170 498,171 497,172 497,172 496,172 496,172 493,173 492,174 492,174 492,174 492,175 492,175 492,175 493,174 493,174 491,176 489,177 487,179 487,179 487,179 487,179 488,179 492,181 491,181 491,181 490,181 490,181 489,182 487,182 488,183 488,185 488,185 486,187 486,188 483,188 483,188 482,188 482,188 480,188 480,188 478,187 478,187 478,187 476,186 476,186 475,185 471,188 469,188 466,189 466,189 464,190 462,191 461,191 461,191 460,191 460,191 459,191 457,192 454,193 453,193 453,193 452,193 452,193 452,193 452,193 452,193 452,193 452,193 452,193 452,193 450,194 449,194 449,194 448,194 448,194 447,194 445,193 443,193 442,193 441,193 440,193 439,192 438,192 436,191 435,191 432,190 432,190 432,189 432,189 431,189 431,189 431,189 431,189 431,189 430,188 430,188 430,188 430,188 430,188 430,188 429,188 429,188 429,188 429,188 429,188 428,188 428,187 428,187 427,187 427,187 427,187 427,187 426,187 426,187 426,187 426,187 426,187 426,187 425,187 425,186 424,186 424,186 424,186 424,186 424,186 424,186 423,186 422,185 421,185 421,185 421,185 421,185 421,185 421,185 421,185 421,185 421,185 421,185 421,184 421,184 420,184 418,184 417,183 416,183 414,184 411,184 412,185 412,188 413,189 411,192 411,193 412,194 411,194 412,195 412,197 412,199 412,200 412,201 412,203 411,204 410,205 410,209 411,209 411,210 411,210 413,210 414,210 417,210 418,210 418,210 418,210 418,211 419,211 420,212 420,212 419,217 415,222 413,225 412,227 412,227 412,227 412,227 412,228 412,228 412,228 412,228 413,228 413,228 413,228 413,228 413,227 414,228 414,228 415,228 415,228 415,227 415,227 415,227 415,227 415,227 415,227 415,228 415,228 415,228 415,228 415,228 416,228 416,228 416,228 417,228 417,228 417,229 417,229 417,229 417,229 417,229 417,229 417,229 417,230 417,229 417,229 418,229 418,230 418,230 419,230 419,229 420,229 420,229 420,230 420,230 419,230 419,230 420,230 420,230 420,230 421,230 421,230 421,230 421,230 421,230 421,230 421,230 421,231 422,231 422,231 422,231 422,231 422,231 422,231 423,231 423,231 423,231 423,230 423,230 423,230 423,230 424,230 424,230 425,230 425,230 426,230 426,230 426,230 426,230 426,231 426,231 426,231 426,231 427,231 427,230 427,230 428,231 428,231 428,231 428,231 428,231 429,231 429,231 429,231 429,232 429,232 429,232 429,232 429,232 429,232 429,232 430,231 430,232 430,232 431,232 431,232 432,232 429,234 429,236 429,236 427,240 427,242 427,243 426,243 426,243 425,243 425,243 424,244 424,244 423,244 422,244 421,243 420,243 420,243 419,244 418,244 417,244 417,245 417,245 417,245 417,245 417,245 417,245 417,245 416,245 417,245 416,246 417,246 417,246 417,246 417,246 417,247 417,247 416,247 416,246 416,246 416,247 416,247 416,247 416,247 416,247 416,247 416,247 416,248 416,248 416,248 416,248 416,248 416,248 416,248 416,248 415,248 415,248 415,248 415,248 415,247 415,247 415,247 414,247 414,247 414,246 413,246 412,246 412,246 412,246 412,246 412,246 411,246 411,246 411,246 411,245 411,245 410,243 410,242 409,242 409,242 409,241 408,241 407,241 406,241 406,240 405,240 404,242 397,242 389,239 385,238 380,236 380,236 380,236 379,236 378,236 377,235 376,236 373,236 372,236 368,237 367,238 366,238 365,238 364,239 363,240 363,240 363,240 363,240 363,240 362,240 361,240 361,241 361,241 361,241 360,241 360,241 359,242 358,242 356,242 355,242 355,242 355,242 356,242 357,242 358,242 358,242 358,242 359,243 359,243 357,243 357,244 356,244 356,244 356,245 356,245 355,245 355,246 356,247 356,247 356,247 356,248 355,248 354,248 353,248 352,249 352,250 352,250 350,251 349,252 348,252 347,252 347,252 346,252 346,252 346,251 345,251 345,251 345,251 345,252 345,253 345,253 345,254 345,255 345,255 345,255 345,256 345,256 344,257 342,257 342,257 341,258 340,258 339,257 339,257 338,257 338,256 338,256 338,256 337,256 336,256 336,256 335,256 334,256 333,256 332,256 331,256 331,256 330,256 329,256 329,256 328,257 328,257 328,257 327,256 326,256 326,256 325,257 325,257 324,257 323,256 322,256 321,256 321,256 320,256 318,256 317,255 316,255 315,256 315,255 315,254 315,254 315,254 315,254 314,254 314,254 312,254 312,255 312,256 311,256 310,256 310,256 310,256 309,256 309,255 309,255 308,255 308,255 306,255 306,254 306,252 307,252 307,252 306,252 304,251 302,251 301,251 299,251 298,252 295,250 292,248 292,246 292,244 290,241 291,240 290,239 290,239 288,237 289,235 289,234 289,233 288,232 287,232 286,233 285,233 285,233 284,233 284,233 282,233 282,233 281,233 281,233 280,233 280,233 279,233 278,233 279,232 278,232 277,232 277,233 277,233 276,234 276,235 274,235 272,233 270,233 268,234 266,234 264,235 263,236 264,237 263,238 263,238 261,239 261,239 261,240 260,241 261,242 263,242 264,243 264,243 265,243 266,244 266,244 267,245 269,245 269,245 269,246 269,246 271,245 272,245 273,245 273,243 274,243 274,243 274,242 275,242 275,241 276,241 276,241 276,242 279,242 280,242 280,243 282,243 282,242 283,241 284,240 285,239 287,239 287,239 290,239 290,239 290,240 290,241 290,241 290,242 291,243 291,243 291,244 291,244 291,244 289,244 289,246 288,246 287,246 286,246 286,246 286,247 285,247 284,248 284,248 282,248 282,249 281,249 279,250 279,250 278,251 277,250 274,250 273,251 271,252 275,254 275,254 273,258 273,258 273,258 276,259 276,260 280,262 280,262 283,263 284,264 285,265 286,267 288,268 288,269 286,271 283,270 280,269 276,269 277,269 277,269 278,270 279,272 279,273 279,273 279,273 279,273 279,273 279,273 279,273 279,273 279,274 279,274 279,274 279,274 279,275 280,275 280,276 277,277 274,278 274,278 272,279 271,279 269,280 268,280 267,279 267,279 266,278 264,277 263,276 262,275 259,274 258,274 258,274 253,273 246,272 246,270 247,268 248,267 248,265 247,264 246,264 244,264 244,263 243,264 240,262 240,262 241,261 240,260 236,261 235,261 235,261 234,261 233,261 232,261 229,261 228,261 226,262 225,262 225,262 224,262 223,262 222,262 222,262 221,262 219,262 218,262 218,262 215,263 214,263 210,263 210,263 209,263 208,263 207,264 207,264 206,264 204,265 204,264 200,265 199,266 199,266 198,266 196,267 196,267 196,267 197,268 198,268 200,268 201,270 202,272 202,272 202,272 203,272 203,272 205,273 205,274 206,274 206,274 206,275 206,275 206,275 206,276 206,276 207,277 207,277 206,279 206,279 205,280 205,281 206,281 207,282 208,282 210,282 211,282 212,282 212,282 213,282 213,282 213,282 214,282 214,282 215,282 216,283 216,283 216,283 217,283 217,285 217,285 219,285 219,284 220,284 221,284 221,284 222,283 224,284 224,283 225,284 225,284 226,284 226,284 227,284 227,283 227,283 227,283 227,283 227,283 228,283 229,283 229,283 229,283 229,282 230,282 231,282 229,285 232,286 232,286 231,286 230,288 230,289 230,289 229,291 229,292 226,293 226,293 224,293 223,293 223,293 222,294 218,294 218,294 218,294 215,295 215,295 215,296 213,296 209,297 209,297 208,299 207,299 206,299 206,299 206,299 206,299 205,302 204,302 201,302 200,302 204,305 202,305 201,306 199,306 197,306 196,305 195,305 194,303 191,302 190,301 189,301 189,301 189,301 189,301 189,301 188,301 188,301 188,301 188,301 188,301 188,301 187,301 187,301 187,301 186,301 186,301 186,301 186,301 185,301 185,300 185,301 185,300 185,300 183,300 183,300 182,300 182,300 182,300 181,300 181,300 181,300 181,300 181,300 181,300 180,300 180,300 180,300 180,300 179,300 179,300 179,300 179,300 179,300 178,300 178,300 178,299 178,299 178,299 178,299 178,299 178,299 178,299 178,299 178,299 178,299 178,299 178,299 178,299 178,299 178,299 177,299 177,299 177,299 177,299 177,299 177,299 177,299 177,299 177,299 177,299 177,299 177,299 176,299 176,299 176,299 176,299 176,299 176,299 176,299 176,299 176,299 176,298 176,298 175,298 175,298 175,298 175,298 175,298 175,298 175,298 175,298 175,298 175,298 175,298 175,298 175,298 175,298 174,298 174,298 174,298 174,298 174,298 174,298 174,298 174,298 174,298 174,298 174,298 174,298 174,298 174,298 174,298 174,298 174,298 173,298 173,298 173,298 173,298 173,298 173,298 173,298 173,298 173,298 173,298 173,298 173,298 173,298 173,298 173,297 173,297 173,297 172,297 172,297 172,297 172,297 172,297 172,297 172,297 172,297 172,297 172,297 172,297 172,297 171,297 171,297 171,296 171,296 171,296 171,296 171,296 170,296 170,296 170,296 170,296 170,296 170,296 170,296 170,296 170,296 170,296 170,296 170,296 170,296 170,296 170,296 170,296 170,296 170,296 170,296 169,296 166,297 165,297 164,297 163,297 162,297 162,297 162,297 160,297 158,297 156,297 154,298 151,298 151,299 149,299 149,300 149,301 146,303 144,304 141,301 141,300 139,301 139,301 138,301 137,301 136,301 135,302 135,301 135,300 135,299 135,298 135,298 135,297 136,297 136,297 136,297 136,296 135,296 136,296 135,295 134,294 134,294 134,294 134,294 135,294 135,293 136,293 134,291 135,291 135,290 135,290 134,290 134,290 134,290 134,289 134,289 134,289 134,289 134,289 134,289 134,289 134,288 135,288 135,288 135,288 135,288 135,288 135,288 135,288 135,287 135,287 135,287 135,287 135,287 135,287 135,287 135,287 135,287 136,286 134,285 132,285 132,285 132,284 132,282 132,282 132,282 132,282 131,282 131,282 131,282 131,282 130,282 130,282 130,282 130,282 129,282 129,282 128,282 128,282 128,282 128,282 128,282 127,282 127,282 127,282 127,282 127,280 126,278 125,277 123,275 122,274 120,273 119,272 117,272 117,272 118,271 118,270 117,269 117,268 120,267 117,265 115,264 114,264 114,264 111,263 108,261 106,262 105,262 103,260 101,259 100,259 96,259 93,259 93,259 90,260 89,258 88,257 87,258 85,255 84,256 83,255 82,254 82,254 81,253 81,252 81,251 82,251 81,250 81,249 81,248 80,247 80,246 80,246 80,245 81,245 81,245 83,245 91,245 91,244 91,244 91,244 91,244 90,244 90,244 90,243 90,243 91,243 91,243 94,243 98,242 101,242 105,241 105,241 105,241 109,240 109,239 109,239 108,238 113,237 113,237 113,237 113,237 112,236 112,236 112,236 112,236 113,236 114,236 114,236 113,235 113,234 117,231 122,228 122,228 123,228 122,226 121,225 121,225 122,224 122,224 122,224 122,223 122,222 122,222 122,222 121,222 117,222 117,222 114,224 110,226 110,225 109,224 108,223 108,223 108,223 105,223 105,223 101,224 98,221 97,220 97,219 96,219 96,219 96,218 95,217 95,217 94,217 93,218 93,218 92,218 92,218 92,218 91,218 91,219 91,219 91,219 91,219 88,221 87,221 85,222 84,222 83,223 83,223 82,224 82,224 82,224 81,223 79,224 79,224 78,224 77,223 76,223 76,223 75,223 75,222 75,222 74,222 74,222 74,222 74,221 74,221 73,221 73,221 73,221 73,220 73,220 73,220 73,220 72,220 72,220 72,220 72,220 72,220 72,219 72,219 72,219 72,219 72,219 72,218 72,218 71,218 71,218 71,218 71,218 71,217 71,217 71,217 71,217 71,217 71,217 71,217 71,217 71,217 71,216 70,216 70,216 70,216 69,217 68,217 68,217 68,217 68,217 68,217 68,217 68,217 68,217 67,217 67,217 67,217 66,217 66,217 66,217 66,217 66,218 66,218 66,218 66,218 66,218 65,218 65,218 65,218 65,218 65,218 65,218 64,218 64,218 64,218 61,218 60,219 59,219 58,220 58,220 57,221 56,220 55,221 56,220 52,220 50,221 47,222 46,222 37,225 36,223 34,222 31,220 30,220 30,220 30,220 29,221 29,221 29,221 29,221 28,221 27,221 27,221 26,221 26,221 25,221 25,222 24,222 23,222 23,221 22,222 21,222 21,223 20,223 19,223 19,223 18,224 18,224 18,224 18,224 18,224 18,224 18,224 17,224 17,224 17,224 17,224 17,224 17,224 17,224 17,224 17,224 17,224 17,224 17,224 17,224 17,224 17,224 17,224 17,224 16,223 16,223 16,223 16,223 16,223 15,223 15,223 15,223 15,223 15,223 15,223 15,223 15,223 14,223 14,223 14,223 14,223 14,223 13,223 13,223 13,223 13,223 13,223 13,223 13,223 13,223 12,223 12,223 12,223 12,222 10,222 9,222 8,222 8,222 8,221 8,221 8,221 7,220 6,220 4,219 3,219 2,218 1,217 0,217 0,216 1,215 2,214 2,213 2,212 4,211 5,210 6,209 9,207 13,210 17,208 18,207 19,206 20,205 22,205 23,204 25,204 27,203 26,203 26,203 26,203 26,203 25,203 25,203 25,203 25,203 24,203 24,203 24,202 24,202 24,202 24,202 23,202 23,202 23,202 23,202 23,202 23,202 23,202 23,202 23,202 22,202 22,202 22,202 22,202 22,202 22,202 21,202 21,202 21,202 19,202 18,202 18,202 18,202 17,202 16,201 16,201 16,201 16,201 16,201 15,201 15,201 15,201 15,201 15,200 15,200 15,200 15,200 15,200 14,200 14,200 14,200 14,200 14,200 14,200 14,200 13,200 13,200 13,200 12,200 12,200 12,200 12,200 12,200 12,200 11,200 11,199 11,199 11,199 11,199 10,199 10,199 10,199 10,199 10,199 10,199 10,199 10,199 9,199 9,199 9,199 9,199 9,198 11,196 14,193 16,192 16,192 16,192 16,192 17,192 17,192 19,191 20,190 22,190 23,189 25,189 26,189 26,189 26,189 27,189 27,188 27,188 27,188 27,188 27,188 28,188 28,188 28,188 28,188 28,188 28,188 28,188 29,188 29,187 29,187 29,187 29,187 29,187 30,187 30,187 30,187 30,187 30,187 30,187 31,187 31,187 31,187 31,186 31,186 31,186 31,186 31,186 31,186 32,186 32,186 32,186 32,186 32,186 32,186 32,186 32,186 32,186 35,185 37,184 38,183 37,183 37,183 37,183 37,183 36,183 36,183 36,183 36,183 35,182 35,182 35,182 35,182 35,182 34,182 34,182 34,182 34,181 34,181 34,181 33,181 33,181 33,181 33,181 32,181 32,181 32,181 31,181 31,180 31,180 31,180 31,180 31,180 31,179 30,179 30,179 30,179 30,179 29,179 29,179 28,179 28,179 28,179 28,178 28,178 28,178 28,177 27,177 27,177 27,176 27,176 27,176 26,175 25,175 25,175 25,175 24,175 23,174 23,174 24,174 24,174 25,174 25,174 26,173 27,173 28,172 29,172 29,171 31,169 32,168 33,167 34,166 35,165 36,163 38,162 39,162 39,160 39,160 39,158" id="6713" class="canton" fill="steelblue" stroke-width="1" stroke="white" geotype="canton" geoname="Reichshoffen" code_insee="6713" code_departement="67" nom_departement="Bas-Rhin" code_region="44" nom_region="Grand-Est"/></svg>