<?xml version="1.0" encoding="utf-8"?>
<svg version="1.1" id="svgmap" xmlns="http://www.w3.org/2000/svg" xmlns:xlink="http://www.w3.org/1999/xlink" x="0px" y="0px" width="100%" height="100%" viewBox="0 0 500 205">
<polygon points="260,60 261,57 261,56 267,50 268,44 270,41 275,42 281,53 279,54 276,56 274,57 268,60 261,64 260,63 260,62 260,62 260,60" id="6715" class="canton" fill="steelblue" stroke-width="1" stroke="white" geotype="canton" geoname="Schiltigheim" code_insee="6715" code_departement="67" nom_departement="Bas-Rhin" code_region="44" nom_region="Grand-Est"/><polygon points="410,2 419,0 421,0 425,3 428,4 427,7 428,8 430,9 432,12 431,15 429,16 427,16 425,18 426,21 428,23 430,23 432,22 434,21 439,24 438,26 432,28 433,31 433,32 433,32 442,36 446,35 453,28 451,23 452,21 454,22 458,25 461,26 466,27 473,29 479,30 482,31 484,32 487,35 487,36 490,41 494,47 495,49 495,52 496,53 499,59 500,61 500,63 500,64 498,65 495,66 491,68 488,68 484,69 482,69 472,67 464,65 457,62 452,60 448,58 445,57 439,56 437,56 434,56 430,57 424,58 422,59 418,62 416,65 415,67 410,76 409,78 409,80 409,83 409,86 413,94 413,96 413,98 413,101 411,103 407,107 403,109 401,109 393,111 386,111 381,110 375,109 370,106 366,105 361,104 356,103 352,102 350,103 348,103 343,106 340,109 338,110 337,112 333,116 332,116 331,117 329,119 326,122 324,124 324,126 324,130 324,131 325,132 327,134 329,136 329,137 330,138 331,139 332,141 334,143 337,146 337,148 338,148 338,151 338,153 337,155 337,156 336,157 334,159 331,161 329,163 326,164 326,165 324,165 321,166 320,166 319,167 317,168 315,169 314,170 313,172 312,173 312,175 312,176 313,181 310,183 307,183 304,184 302,183 299,183 297,183 295,184 294,184 291,186 290,186 289,186 286,186 283,186 278,185 276,184 274,184 272,185 270,185 268,186 266,187 264,189 263,190 262,191 262,191 262,192 262,193 262,196 263,197 262,197 262,197 261,196 261,196 260,196 252,197 235,199 234,199 233,200 230,200 228,203 222,202 222,202 222,202 201,203 200,203 199,203 193,204 192,204 188,205 187,205 181,202 178,200 176,199 174,199 163,193 158,191 154,190 150,188 147,188 145,187 144,188 142,189 141,189 140,190 137,189 134,189 130,188 128,187 128,187 125,186 124,186 116,184 114,184 111,183 112,183 112,182 112,181 113,181 109,181 107,181 106,181 103,181 103,181 103,173 101,173 103,170 101,170 101,168 100,168 99,168 98,165 95,166 95,164 91,166 85,168 84,167 84,166 83,163 82,163 81,163 74,165 73,165 73,165 63,171 62,171 60,170 54,167 52,169 48,173 45,175 42,174 42,173 37,176 35,174 32,173 28,171 22,167 25,163 27,161 28,158 21,157 21,156 21,156 15,153 11,151 0,146 2,145 5,146 5,137 4,136 4,130 9,130 9,127 9,124 8,122 3,121 5,116 17,119 25,122 25,122 28,119 33,121 41,120 52,123 52,123 63,125 65,125 71,126 72,124 72,123 75,117 82,118 83,116 83,111 84,106 82,98 87,98 87,92 90,92 90,97 92,97 94,97 106,94 107,95 109,95 112,101 122,100 122,102 130,101 137,101 143,100 148,100 149,102 158,101 158,103 162,103 167,103 167,103 167,103 170,103 170,103 171,103 171,102 175,103 180,103 188,103 188,103 189,103 189,104 195,103 198,103 209,103 215,103 215,103 222,103 222,103 249,104 249,104 257,104 262,104 267,104 268,104 273,104 290,104 290,104 290,104 290,103 291,103 291,101 294,101 295,100 296,99 296,99 296,98 296,98 296,98 296,96 296,96 296,95 297,95 297,95 303,98 310,101 318,106 320,107 320,108 321,108 322,110 323,111 324,112 324,113 325,113 325,113 326,113 326,114 327,114 327,113 327,113 329,104 331,98 332,95 336,89 337,87 340,84 343,82 345,81 346,80 352,78 366,71 373,68 377,67 369,56 364,51 363,51 362,51 361,52 339,65 336,66 335,67 333,68 328,71 324,72 301,52 307,49 310,47 312,46 336,33 348,40 379,23 377,20 376,18 377,17 379,15 391,12 398,10 397,10 391,9 391,9 390,9 389,8 388,6 403,4 410,2" id="6715" class="canton" fill="steelblue" stroke-width="1" stroke="white" geotype="canton" geoname="Schiltigheim" code_insee="6715" code_departement="67" nom_departement="Bas-Rhin" code_region="44" nom_region="Grand-Est"/></svg>