<?xml version="1.0" encoding="utf-8"?>
<svg version="1.1" id="svgmap" xmlns="http://www.w3.org/2000/svg" xmlns:xlink="http://www.w3.org/1999/xlink" x="0px" y="0px" width="100%" height="100%" viewBox="0 0 444 500">
<polygon points="0,431 6,424 12,419 19,413 22,411 28,409 30,407 33,406 36,404 38,403 39,402 40,401 42,401 44,401 44,401 49,398 49,397 50,397 59,393 61,392 64,390 71,386 81,381 84,379 86,378 87,377 87,377 87,377 85,375 83,374 80,371 79,371 79,370 76,369 76,368 75,367 74,367 66,364 60,362 57,361 59,360 63,358 66,356 66,356 69,354 69,354 68,353 67,353 65,352 61,350 58,349 53,347 52,346 52,344 52,343 53,342 54,340 54,339 53,339 51,338 50,338 48,337 47,336 46,335 47,334 49,332 51,328 53,327 54,326 57,324 59,323 62,323 62,323 66,322 70,322 73,321 77,320 79,320 81,320 85,320 87,320 90,320 92,321 93,321 100,321 100,321 101,321 102,321 103,321 103,321 103,321 104,320 105,318 106,317 107,316 111,314 117,311 121,309 122,308 122,308 127,305 132,302 134,301 135,301 137,301 138,302 140,302 144,300 145,300 151,303 154,305 157,302 160,300 166,296 169,294 165,292 175,286 172,284 167,282 163,280 162,279 158,277 158,277 151,274 150,274 150,274 144,271 135,264 128,259 122,255 116,251 115,249 119,249 121,249 123,247 131,239 134,235 134,236 140,230 141,227 142,219 141,219 140,219 138,218 139,218 124,212 112,207 102,205 100,185 101,179 104,167 98,159 95,151 93,142 90,133 90,132 90,131 91,128 90,128 90,127 91,126 90,125 90,124 90,123 89,121 89,120 90,119 94,117 95,114 94,113 94,111 94,109 94,108 95,107 94,105 94,105 94,103 93,102 93,102 92,101 92,100 92,100 91,97 90,96 93,96 94,88 95,85 98,82 97,81 110,75 115,73 108,66 109,66 109,66 110,66 111,66 111,66 112,66 112,66 112,66 112,66 113,66 113,66 113,66 114,66 114,66 114,66 115,66 115,66 115,66 116,66 116,65 117,66 120,63 121,63 121,61 121,61 120,60 120,59 122,57 122,57 124,56 128,55 128,55 128,55 127,53 122,46 121,43 121,41 120,40 121,38 122,37 124,35 124,35 126,33 127,32 127,31 128,30 131,27 131,27 133,28 135,26 137,24 137,23 140,21 142,19 142,19 143,18 143,19 144,19 145,21 149,11 151,5 146,3 146,1 168,8 170,0 187,0 184,10 186,10 186,12 185,12 186,19 187,19 190,45 192,60 193,73 195,87 195,87 195,87 195,87 194,88 193,89 192,90 191,93 191,95 192,98 196,103 198,106 199,108 199,109 199,109 197,110 196,111 201,113 201,114 204,116 207,118 211,122 212,124 222,134 224,135 222,136 221,137 223,137 231,141 229,142 228,143 227,143 227,143 228,146 228,146 240,148 239,151 239,151 236,161 237,162 255,165 263,167 266,168 274,172 277,174 281,175 287,176 298,182 303,184 304,184 328,179 367,170 384,166 390,165 404,162 406,162 420,159 420,159 423,159 423,159 424,159 427,160 441,162 439,165 437,169 437,172 439,172 439,175 437,179 440,179 440,184 438,192 444,192 443,197 434,196 433,197 432,197 431,198 432,199 426,202 427,206 410,213 387,222 377,227 380,231 377,233 388,247 389,247 388,247 373,252 374,253 367,256 363,259 358,262 356,261 356,261 353,260 347,258 343,256 338,254 336,253 332,251 326,248 322,247 316,245 313,243 307,239 295,247 288,251 281,254 277,257 276,255 273,257 275,258 267,261 267,259 254,265 254,265 238,271 235,272 238,274 240,278 242,280 238,283 238,283 237,284 234,286 234,286 234,286 232,287 233,288 229,290 230,291 230,291 233,293 233,293 233,293 233,293 234,294 235,294 236,294 238,293 241,294 239,296 240,297 242,300 237,302 232,305 240,309 240,309 243,311 240,314 239,313 238,313 238,313 236,312 231,317 230,317 229,318 230,318 229,319 228,319 221,323 212,329 212,329 208,331 203,333 201,334 200,335 197,336 196,337 200,340 201,341 204,343 205,344 198,347 193,350 191,351 187,354 192,358 192,358 192,359 196,362 199,365 200,366 197,368 191,370 187,371 188,373 189,374 191,376 191,376 194,379 187,382 185,383 184,384 185,385 185,385 188,386 183,388 179,392 180,392 179,393 172,397 175,399 176,400 177,402 178,402 186,410 186,410 186,410 189,413 194,418 197,420 198,422 202,427 201,428 202,430 192,438 187,443 185,444 182,447 180,450 170,459 166,462 166,463 162,467 158,469 160,470 152,475 152,476 151,478 147,483 147,485 142,493 141,493 139,491 136,493 136,494 125,500 119,494 119,492 102,488 91,484 80,479 79,479 75,480 71,473 70,473 66,475 62,476 61,474 58,471 54,472 49,473 44,464 44,464 42,464 42,463 39,463 39,463 38,462 37,461 36,459 33,460 30,457 29,455 28,454 28,453 25,448 24,446 21,441 20,440 20,439 15,441 14,440 18,438 18,437 6,433 5,433 4,433 1,431 1,431 0,431" id="6812" class="canton" fill="steelblue" stroke-width="1" stroke="white" geotype="canton" geoname="Mulhouse-3" code_insee="6812" code_departement="68" nom_departement="Haut-Rhin" code_region="44" nom_region="Grand-Est"/></svg>