<?xml version="1.0" encoding="utf-8"?>
<svg version="1.1" id="svgmap" xmlns="http://www.w3.org/2000/svg" xmlns:xlink="http://www.w3.org/1999/xlink" x="0px" y="0px" width="100%" height="100%" viewBox="0 0 500 163">
<polygon points="57,4 57,5 57,5 57,5 58,5 58,6 58,6 58,6 58,6 58,7 58,7 59,7 59,7 60,7 60,7 60,7 61,7 61,7 62,8 62,8 62,8 63,8 63,8 63,8 64,8 64,8 64,8 65,8 65,8 65,8 65,8 66,9 66,9 66,9 67,8 67,8 67,8 68,9 68,9 68,9 69,9 69,9 69,9 70,9 70,9 70,9 71,9 71,9 71,9 72,9 72,9 73,9 73,8 73,8 73,8 73,9 73,9 74,9 74,9 74,9 74,9 75,9 75,9 75,9 76,9 76,9 77,9 77,9 78,9 79,9 79,9 79,9 80,9 80,9 80,9 81,9 81,9 82,9 82,9 83,9 83,9 83,9 82,11 82,11 82,11 82,11 82,11 83,12 83,12 83,12 84,13 84,13 84,13 84,13 84,13 85,14 85,14 85,14 84,14 84,16 85,16 86,17 85,17 86,17 86,17 86,18 86,18 86,19 86,19 87,20 87,20 86,21 86,21 87,22 88,22 88,22 90,22 89,22 89,23 89,24 89,24 89,24 90,24 90,24 91,25 91,25 92,27 93,26 93,27 93,27 93,27 93,27 93,28 93,28 93,29 93,29 93,30 93,31 94,31 94,32 96,31 96,31 98,31 98,31 98,31 98,31 98,34 98,37 97,37 97,38 95,41 95,41 94,43 94,43 94,43 94,43 95,44 95,44 96,44 96,44 96,44 96,45 97,45 97,46 97,46 98,46 98,46 98,46 97,47 97,47 97,47 96,47 96,47 96,48 95,48 95,48 95,48 95,49 95,49 95,50 95,50 95,50 96,50 96,51 96,51 96,52 97,52 97,52 97,52 98,53 97,53 97,54 97,54 97,54 97,55 98,56 98,56 98,56 98,57 98,58 98,58 98,58 99,59 99,59 99,59 99,59 99,60 99,60 100,60 100,60 100,60 100,59 100,59 101,59 101,59 101,59 102,59 102,59 102,59 102,60 102,60 102,60 102,60 102,60 102,60 102,60 103,60 103,60 104,60 104,60 105,60 105,60 105,60 105,60 106,60 106,60 107,60 107,60 108,60 109,60 108,60 108,60 108,59 108,59 108,59 108,59 108,59 108,59 108,58 109,58 109,58 110,58 110,58 110,58 110,57 110,57 110,57 110,57 110,57 110,57 110,56 111,56 111,56 111,55 111,55 111,55 110,55 110,55 110,54 110,54 110,54 111,54 111,54 111,53 111,53 112,53 112,53 113,53 113,52 113,52 113,52 114,51 114,51 114,51 114,50 115,50 116,50 116,50 117,49 117,49 117,49 117,48 117,48 118,48 118,48 118,47 121,45 121,45 121,45 122,44 122,44 122,44 122,44 123,44 123,44 123,44 123,44 124,44 125,45 126,45 127,45 127,45 129,46 130,47 130,47 130,47 131,47 135,48 136,48 137,48 137,48 138,49 138,50 139,51 140,54 140,54 140,54 141,55 141,56 141,56 141,57 141,58 141,59 142,60 142,61 143,62 143,62 143,63 143,63 143,63 143,62 143,62 144,62 144,62 144,62 146,62 146,62 146,63 147,64 147,64 147,64 147,64 148,64 148,64 148,65 148,65 148,65 148,65 148,65 148,66 148,66 150,65 150,65 150,65 150,65 150,65 151,65 151,65 151,65 151,65 151,65 151,64 151,64 152,64 152,64 152,64 155,64 155,64 155,64 155,64 155,64 155,64 155,65 155,66 156,66 156,66 157,66 157,66 158,66 159,65 159,65 160,65 160,65 160,65 161,65 162,64 161,65 161,66 161,66 161,67 161,67 160,67 160,67 160,67 161,67 161,67 162,67 163,67 163,67 164,67 166,66 169,66 169,66 170,66 170,66 171,66 171,66 171,67 172,67 172,67 173,67 173,67 174,67 174,67 174,67 175,67 175,67 176,68 176,68 177,68 177,68 177,68 177,70 177,70 177,70 177,71 177,71 178,71 178,71 178,71 179,71 179,71 180,71 180,71 180,70 180,70 180,70 181,69 182,69 182,69 182,68 182,68 183,68 183,68 184,68 184,68 184,68 185,69 185,69 185,69 185,69 186,69 186,70 186,70 186,70 186,70 186,70 185,70 185,71 185,71 185,71 184,72 184,72 184,72 184,73 183,73 183,74 183,75 183,76 183,76 183,77 183,77 183,77 183,77 183,79 183,79 183,79 183,79 183,79 183,79 183,79 183,80 183,80 183,80 183,80 183,81 182,82 183,83 183,83 182,83 182,83 182,84 182,84 182,84 182,85 182,85 182,85 182,86 182,86 182,86 182,86 182,87 182,87 182,87 182,87 182,87 182,88 181,90 180,91 180,91 177,91 175,90 174,89 173,89 173,89 172,89 172,88 171,88 171,88 170,89 170,89 168,90 168,90 167,90 167,90 166,91 165,91 165,91 164,91 164,91 162,91 162,91 161,91 161,91 160,90 159,90 158,90 158,92 158,92 158,92 158,93 159,93 159,95 159,95 159,96 159,96 159,97 158,97 158,97 157,97 157,97 157,97 157,97 157,97 157,97 156,97 153,98 151,99 151,99 151,99 150,99 150,99 150,99 150,99 149,100 148,101 148,101 148,101 147,101 145,102 145,102 144,102 143,101 142,101 141,101 140,102 139,102 139,102 139,102 138,102 138,102 137,102 137,102 136,103 136,103 136,103 135,104 135,104 135,104 135,105 135,106 135,106 135,106 134,106 134,106 134,106 135,107 135,108 135,108 135,109 135,109 135,109 134,110 134,109 134,110 133,110 132,110 131,110 131,110 130,110 130,110 130,110 130,110 129,109 129,109 129,109 128,109 128,109 128,108 128,108 127,108 126,108 125,108 124,108 124,109 122,109 122,109 121,109 119,110 119,110 118,109 118,108 118,108 118,108 118,107 118,107 118,107 118,107 118,107 118,106 118,106 118,106 118,106 118,106 118,106 118,106 117,106 117,106 117,106 117,106 117,106 116,106 116,107 116,107 116,107 116,107 115,108 115,108 115,108 115,109 115,109 114,110 114,110 114,110 114,110 114,110 113,110 112,111 112,111 112,111 112,111 112,111 112,112 111,112 111,112 111,112 110,112 110,112 109,113 109,112 109,113 109,113 109,113 109,113 109,114 109,114 109,114 109,114 109,115 109,115 109,115 109,115 109,115 109,114 109,114 109,114 109,114 109,114 109,114 109,115 110,115 110,115 110,115 110,115 110,116 110,116 110,116 110,117 110,117 111,118 111,118 110,119 110,118 109,118 109,118 108,118 108,118 108,119 107,120 106,121 106,121 106,121 106,122 106,122 106,123 106,123 106,124 107,124 107,124 106,125 106,125 105,127 105,127 105,128 105,128 104,128 104,129 103,129 103,130 102,130 101,131 100,132 99,132 99,132 99,133 99,133 99,134 98,135 98,135 97,136 97,136 96,136 95,137 95,137 94,137 93,138 92,138 91,138 90,139 90,139 89,139 89,139 88,139 88,138 87,138 86,139 85,139 85,139 85,139 84,138 84,138 83,138 83,138 82,138 82,138 82,138 82,138 80,138 80,138 79,138 79,138 78,139 78,139 77,139 77,139 76,140 76,140 76,140 76,140 75,140 75,140 75,140 75,140 75,140 74,140 74,140 74,141 73,141 73,141 71,141 71,141 70,142 70,141 69,141 69,141 68,141 68,141 67,141 67,141 66,141 65,141 65,141 64,141 63,141 60,140 59,140 59,140 59,140 58,140 58,139 57,139 56,139 55,138 55,138 54,137 53,136 53,136 53,136 52,136 52,136 51,136 51,135 50,135 50,135 49,135 49,135 48,134 48,134 48,134 48,133 47,132 47,132 47,132 46,130 46,129 45,128 45,128 45,128 44,127 44,127 43,126 43,126 42,126 40,126 40,126 39,126 38,125 38,125 38,124 38,123 38,122 38,122 37,121 38,121 38,121 38,121 39,121 39,120 39,120 39,119 39,119 39,119 38,118 38,118 37,118 37,118 36,118 35,118 35,117 34,117 34,117 33,117 33,117 32,117 31,117 31,117 31,117 30,117 30,117 29,117 29,117 29,117 28,117 28,117 28,117 27,117 26,117 26,117 26,117 26,116 26,116 26,116 25,116 25,115 25,115 25,115 25,115 25,115 25,115 25,115 25,115 25,115 25,115 25,114 25,114 25,114 25,114 25,114 25,114 25,114 25,114 25,114 25,114 24,114 24,114 24,113 24,113 24,113 24,113 24,113 24,113 24,113 24,113 24,113 24,113 24,113 24,113 24,113 24,113 24,113 24,113 24,113 24,112 24,112 24,112 24,112 24,112 24,112 24,112 24,112 24,112 24,112 24,112 24,112 24,112 24,111 24,111 24,111 24,111 24,111 24,111 24,111 24,111 24,111 24,111 24,111 24,110 24,110 23,110 23,110 23,110 23,110 23,110 23,110 23,110 23,110 23,110 23,110 23,110 23,110 23,109 23,109 23,109 22,109 22,109 22,108 22,108 22,108 22,108 22,108 22,108 22,108 22,108 22,108 22,108 22,108 22,108 22,108 22,108 22,107 22,107 22,107 22,107 22,107 22,107 22,107 22,107 22,107 22,107 22,107 22,107 22,107 22,107 21,107 21,107 21,107 21,107 21,107 21,107 21,107 21,107 21,107 21,107 21,106 20,106 20,106 20,106 20,106 20,106 20,106 20,106 20,106 20,106 20,106 20,106 20,106 20,106 20,106 19,105 19,105 19,105 19,105 19,105 30,97 32,96 35,93 29,85 25,71 24,62 24,62 24,62 23,62 24,62 23,62 23,61 24,60 24,59 24,60 27,58 28,56 28,56 26,55 24,53 23,49 20,47 19,46 18,45 10,37 8,36 0,25 0,25 0,24 1,23 2,22 2,22 3,21 3,20 3,20 7,18 7,18 7,18 8,18 9,18 9,18 9,18 10,17 11,17 11,17 12,16 12,16 12,16 13,16 13,16 14,16 17,15 19,15 20,15 20,15 21,15 23,14 23,14 25,13 25,12 26,12 26,11 26,11 27,11 27,11 28,10 29,10 29,10 31,10 31,10 32,9 32,9 34,8 36,6 36,6 37,5 40,2 42,0 42,0 51,2 52,2 52,2 53,3 53,3 53,3 54,3 54,3 55,3 55,3 56,4 56,4 57,4 57,4 57,4 57,4 57,4 57,4" id="6909" class="canton" fill="steelblue" stroke-width="1" stroke="white" geotype="canton" geoname="Saint-Symphorien-d'Ozon" code_insee="6909" code_departement="69" nom_departement="Rh么ne" code_region="84" nom_region="Auvergne-Rh么ne-Alpes"/><polygon points="139,146 139,145 139,145 139,145 139,144 140,142 141,142 141,141 141,141 142,141 145,139 146,139 148,138 151,137 152,136 154,135 155,134 156,134 157,133 157,133 158,132 159,132 159,131 160,130 161,130 163,127 164,126 164,125 165,124 166,123 166,123 167,123 169,121 169,120 171,119 172,118 174,116 174,116 175,115 175,115 177,113 178,112 178,112 178,111 178,111 179,110 179,107 179,106 179,105 180,103 180,103 180,102 180,102 180,101 180,101 181,100 181,99 182,98 183,97 183,97 184,96 185,96 185,95 185,95 186,95 186,94 186,94 187,93 187,92 188,90 188,90 189,88 189,88 189,86 188,85 188,78 188,75 188,72 189,70 190,67 190,67 192,67 193,66 194,66 195,65 195,65 196,64 197,64 197,64 197,64 198,64 199,63 200,63 200,63 202,62 203,62 203,62 204,62 204,62 204,62 204,61 205,61 205,61 205,61 206,60 207,60 207,60 207,59 208,59 208,59 208,59 208,58 209,58 209,58 209,58 209,58 210,58 210,59 210,59 210,60 211,60 211,60 211,61 212,62 212,62 213,62 213,63 214,63 215,64 215,64 215,65 214,65 214,65 214,66 213,67 213,67 213,68 213,68 213,69 212,69 212,70 212,70 212,71 212,71 212,72 212,72 213,72 213,72 213,72 213,72 214,72 214,72 215,72 215,72 216,73 216,73 217,73 218,73 218,73 219,73 220,74 220,74 221,74 221,74 221,74 221,74 222,74 222,74 223,74 224,74 226,74 226,74 228,74 229,74 229,74 230,74 231,74 231,74 232,74 233,74 234,74 235,74 236,75 236,75 236,75 237,75 237,76 237,76 238,77 238,77 238,77 238,77 238,77 239,77 239,77 240,76 241,76 241,76 241,75 242,75 242,75 242,75 242,74 242,74 242,74 242,74 242,73 243,73 243,73 245,73 245,73 246,74 246,74 247,74 247,74 247,74 248,74 248,74 249,73 251,73 251,72 252,72 253,72 253,72 255,71 255,71 256,71 256,71 256,71 256,70 257,70 258,70 259,70 260,70 260,70 261,70 261,70 262,69 262,69 262,68 262,67 262,67 261,65 261,64 260,64 260,64 260,63 260,63 259,63 258,63 257,63 256,62 257,62 258,62 258,62 259,62 260,63 261,63 261,63 262,63 266,63 267,63 267,63 267,62 267,61 267,60 266,60 266,59 267,59 267,59 267,59 267,58 267,58 267,57 267,56 267,55 267,53 267,53 267,53 267,52 267,51 267,47 267,46 267,46 267,42 267,41 267,41 268,35 268,34 268,34 268,33 268,31 268,31 268,30 269,29 269,27 269,27 269,26 269,25 269,24 269,24 272,24 277,23 278,23 278,23 294,23 295,23 307,24 307,24 307,24 311,25 311,25 318,22 318,22 319,22 320,23 320,23 325,25 327,26 328,27 332,29 332,29 332,29 332,29 331,34 331,35 330,38 330,38 329,42 329,42 326,52 326,52 326,53 325,56 324,58 324,58 325,58 326,58 326,58 327,58 330,57 331,57 331,57 331,57 357,50 364,48 365,48 365,45 365,44 366,37 366,37 367,35 367,30 367,30 367,30 367,30 367,29 367,30 369,30 373,32 385,37 393,40 393,40 396,41 396,42 399,43 399,43 400,43 411,48 411,48 411,48 420,52 421,52 432,58 432,58 432,58 432,58 432,60 433,61 433,61 433,61 434,62 435,62 436,63 437,64 437,64 438,64 439,65 439,65 440,65 440,65 441,66 441,66 442,66 443,67 443,67 444,67 444,68 444,68 445,68 445,69 445,69 446,69 446,70 447,70 447,70 448,71 448,71 448,71 448,71 449,71 449,71 449,71 450,71 450,72 450,72 451,72 451,73 452,73 453,74 453,74 453,74 453,74 454,74 454,75 455,75 455,75 456,76 456,76 456,77 457,77 457,77 457,78 458,78 458,79 459,80 459,81 459,81 460,81 461,82 461,82 461,82 461,83 461,83 461,83 461,84 462,85 462,86 462,86 463,87 463,87 463,87 463,88 464,88 464,89 464,90 464,90 465,90 466,90 466,91 466,91 467,91 467,91 468,92 468,92 468,92 469,92 469,92 470,93 472,93 472,93 473,93 473,93 474,94 474,94 475,94 475,94 475,94 475,94 475,94 476,94 476,94 477,94 477,94 479,95 479,95 480,96 480,96 482,98 484,99 484,99 485,101 485,101 485,101 488,101 489,100 490,100 491,100 491,100 493,101 494,101 495,101 496,101 500,103 500,103 497,112 494,120 482,115 482,115 456,106 451,104 451,104 439,108 438,108 438,108 437,108 436,108 436,108 419,111 417,111 414,111 414,111 400,111 395,111 395,111 389,113 379,117 379,116 379,116 375,115 373,116 372,116 371,115 370,115 370,115 369,114 369,114 369,114 367,115 367,115 366,114 365,114 365,114 364,114 364,114 364,114 363,114 362,114 361,114 361,114 361,114 360,114 359,114 358,114 357,114 357,114 356,114 356,114 356,114 355,114 355,114 354,114 353,114 351,114 350,114 350,114 349,114 348,114 348,114 348,115 347,115 346,115 345,115 344,115 343,115 343,115 342,115 341,115 340,115 339,115 339,115 338,115 337,116 336,116 336,117 335,118 334,118 333,118 333,119 332,119 332,120 331,120 330,121 329,121 328,121 328,121 327,122 325,123 324,123 323,123 323,123 322,123 320,123 320,123 319,123 318,123 317,123 316,122 316,122 315,122 313,122 310,122 309,122 309,122 308,123 308,123 308,123 308,124 308,125 308,125 308,126 307,127 307,127 307,127 295,132 293,133 292,133 292,133 292,133 291,133 290,133 290,133 289,133 288,132 288,132 287,132 285,132 284,133 284,133 283,133 282,134 282,134 282,134 281,134 281,134 281,135 281,135 280,135 280,135 280,136 280,136 280,136 278,136 278,137 278,137 278,137 277,138 276,138 276,138 275,138 275,139 274,139 273,140 273,140 273,140 273,140 273,140 274,141 274,142 275,142 275,143 275,143 275,144 275,146 275,147 275,147 275,147 274,149 273,150 273,151 272,152 272,153 272,153 272,153 271,155 270,155 270,156 269,157 269,161 269,163 269,163 269,163 268,162 268,162 266,162 265,161 261,159 257,159 255,159 255,158 255,158 255,158 255,157 255,157 254,157 254,157 254,157 253,156 252,156 252,156 251,155 250,155 249,155 249,155 248,155 247,154 246,154 244,154 244,154 242,154 241,154 241,154 239,153 238,153 237,152 237,152 236,152 236,151 236,151 235,151 235,151 235,151 235,151 234,150 233,149 231,148 230,148 229,147 228,147 228,147 228,147 227,146 226,145 226,145 226,145 224,145 223,144 223,144 223,145 223,145 223,145 222,145 219,145 219,145 217,145 215,145 214,145 212,145 211,145 210,145 210,145 210,145 210,145 208,145 207,144 205,144 205,144 204,144 203,144 203,144 202,144 202,144 202,144 202,144 200,145 200,145 200,145 199,145 199,145 198,145 197,146 197,146 197,145 197,145 197,145 196,145 196,144 196,144 196,144 195,144 195,144 195,144 194,143 194,143 194,142 194,142 194,142 194,142 194,142 194,142 193,142 193,142 193,142 193,142 192,142 191,142 191,142 190,142 189,143 188,143 188,143 187,143 187,143 187,143 187,143 186,143 185,143 185,144 183,144 183,145 176,145 175,145 169,146 169,146 168,146 166,146 165,146 159,146 151,145 141,146 139,146 139,146" id="6909" class="canton" fill="steelblue" stroke-width="1" stroke="white" geotype="canton" geoname="Saint-Symphorien-d'Ozon" code_insee="6909" code_departement="69" nom_departement="Rh么ne" code_region="84" nom_region="Auvergne-Rh么ne-Alpes"/></svg>