<?xml version="1.0" encoding="utf-8"?>
<svg version="1.1" id="svgmap" xmlns="http://www.w3.org/2000/svg" xmlns:xlink="http://www.w3.org/1999/xlink" x="0px" y="0px" width="100%" height="100%" viewBox="0 0 500 498">
<polygon points="44,281 44,281 44,281 44,281 44,281 44,281 44,281 44,281 44,281 44,280 44,280 44,280 44,280 45,280 45,280 45,280 45,280 45,279 45,279 45,279 45,279 45,279 45,278 45,278 45,278 46,278 46,278 46,278 46,278 46,279 47,278 47,278 46,278 46,278 47,278 47,278 47,278 47,278 47,277 47,277 47,277 47,277 48,277 48,277 48,277 48,276 48,276 48,276 48,276 48,276 48,276 49,276 49,276 49,276 49,276 49,276 49,276 49,276 49,276 49,276 49,276 50,275 50,275 50,275 50,275 50,275 50,275 50,275 50,275 50,275 50,275 50,275 50,274 50,274 50,274 51,274 51,274 50,274 50,274 50,274 51,274 51,273 51,273 51,273 51,273 52,273 52,273 52,273 52,273 52,273 52,273 52,273 52,273 52,273 52,273 52,272 52,272 52,272 52,272 52,272 52,272 53,272 53,272 53,272 53,272 53,272 53,272 53,272 53,272 53,272 53,272 53,272 53,271 53,272 53,271 54,271 53,271 53,271 53,271 54,271 54,271 54,271 54,270 54,270 54,270 54,270 54,270 54,270 54,270 54,269 54,269 54,269 54,269 55,269 55,269 55,268 55,268 55,268 55,268 55,268 55,268 55,268 55,268 55,267 55,267 55,267 55,267 55,267 55,267 55,267 55,267 55,266 55,266 55,266 55,266 55,266 55,266 55,266 55,266 55,266 56,266 55,266 55,265 55,265 55,265 55,265 55,265 55,265 55,264 55,264 55,264 55,264 55,264 55,264 55,264 55,264 55,264 55,264 55,264 55,264 55,264 55,263 56,264 56,264 56,264 56,263 56,263 56,263 56,262 56,262 56,262 56,262 57,262 57,262 57,262 57,261 57,261 57,261 59,261 59,260 59,261 59,261 59,261 59,261 60,261 60,261 60,262 60,262 60,262 60,262 60,262 60,262 60,262 60,262 61,263 61,263 61,263 61,263 61,263 62,263 62,264 62,264 62,264 63,264 63,264 64,264 64,264 64,264 64,265 64,265 64,265 64,265 65,265 65,265 65,265 65,266 66,266 66,266 66,266 66,266 66,266 66,266 66,266 67,266 67,267 67,267 67,267 67,267 67,267 68,267 68,267 68,267 69,267 69,268 69,268 69,268 69,268 70,268 70,268 70,269 70,269 70,269 70,269 70,270 71,270 71,270 71,270 71,270 71,270 72,270 72,271 72,271 72,271 72,271 72,271 73,272 73,272 74,272 74,272 74,272 74,272 74,272 74,272 74,272 74,273 74,273 74,273 74,273 75,273 75,273 76,272 77,272 77,272 78,272 79,272 79,272 79,272 80,272 80,272 81,272 81,272 82,272 82,272 82,273 83,273 83,273 83,273 83,273 84,273 84,273 85,273 85,273 85,273 86,272 86,272 87,272 87,272 88,272 89,272 89,272 90,272 90,272 91,272 91,272 92,272 92,272 92,272 93,273 93,273 93,273 93,273 94,273 94,273 94,273 95,273 95,273 95,273 95,273 95,273 96,273 97,273 98,272 98,272 98,272 99,272 99,272 99,272 100,272 100,272 101,272 102,272 102,272 102,272 102,272 103,272 104,272 104,272 104,272 109,269 110,269 110,268 110,268 111,267 111,267 113,268 113,271 113,271 113,270 114,270 114,270 115,269 115,268 115,268 116,267 116,267 116,266 116,266 116,266 120,268 121,268 122,269 122,269 122,269 123,267 123,267 124,267 124,266 124,266 125,265 125,265 125,264 126,264 126,263 126,263 126,262 127,262 127,262 127,261 127,261 127,260 127,259 127,259 127,259 128,258 128,258 128,257 128,257 128,257 128,257 129,256 129,256 129,256 129,255 129,254 129,254 128,254 128,253 128,253 127,252 126,251 125,250 125,250 125,250 125,250 125,249 125,249 125,249 125,249 127,248 127,248 128,248 128,248 128,247 128,247 128,247 128,246 128,246 128,246 128,246 128,245 128,244 128,243 128,242 128,241 128,241 128,240 128,239 128,237 128,237 128,236 128,236 128,236 130,229 130,229 130,229 131,228 131,228 133,227 133,227 133,227 133,227 133,226 134,226 134,226 134,225 134,225 134,224 135,223 135,223 135,223 135,223 135,222 135,222 136,222 137,222 138,221 138,221 138,221 139,220 139,220 140,220 140,220 141,219 141,219 142,219 142,219 142,219 144,215 144,213 144,213 144,213 147,212 153,211 153,211 154,209 154,209 154,209 154,208 153,208 153,208 153,208 153,207 152,207 152,207 152,206 152,206 152,206 155,202 156,202 156,202 156,202 156,202 157,202 158,202 158,202 159,202 159,202 160,202 160,202 161,202 161,202 162,201 162,201 162,201 162,201 163,200 163,200 163,200 163,200 163,199 163,199 164,198 166,197 166,197 166,196 166,195 166,195 166,194 166,194 166,194 166,193 166,193 166,193 165,193 165,193 165,193 165,193 164,193 164,193 164,193 164,193 165,192 165,192 166,187 167,187 171,182 173,179 176,176 177,175 177,174 184,165 184,165 184,165 183,161 183,158 183,158 183,157 182,157 182,156 182,156 183,156 183,156 183,155 184,155 184,155 184,154 184,153 184,153 184,152 184,152 184,152 184,152 184,151 184,150 184,150 184,149 184,148 184,148 184,148 184,148 184,147 184,147 184,146 184,146 184,146 184,146 184,145 184,145 183,144 183,144 183,144 183,143 183,143 183,143 183,143 183,141 183,141 183,141 183,140 183,140 183,140 183,140 184,139 185,139 186,137 187,136 188,136 188,135 189,135 189,135 189,135 189,134 189,133 189,133 189,133 189,132 190,132 190,132 190,130 190,130 190,130 191,129 191,128 191,128 192,127 193,126 193,124 194,123 194,123 194,123 194,123 193,122 193,122 194,121 194,121 194,121 194,120 194,120 194,119 194,119 194,118 195,117 195,116 196,116 196,116 196,115 197,115 197,115 198,114 199,113 199,113 200,112 200,112 200,112 207,108 207,108 207,108 207,108 206,107 204,107 203,106 203,106 203,106 203,105 203,105 203,104 203,103 203,103 203,103 203,103 202,102 202,102 201,102 200,101 200,101 199,100 199,99 199,99 198,99 197,99 197,99 196,98 196,98 195,97 195,97 194,96 194,96 194,96 194,96 193,95 193,95 193,95 193,95 193,94 193,94 193,94 193,94 193,93 193,93 194,93 194,93 195,93 195,92 196,92 197,92 197,91 197,91 198,91 199,90 199,89 200,89 202,88 203,88 203,88 204,88 204,88 204,88 204,88 205,87 205,87 205,87 205,87 206,87 206,86 208,86 208,86 209,85 209,85 210,85 210,85 211,84 211,84 212,83 212,83 212,83 212,82 213,82 213,82 213,81 214,80 214,80 214,80 214,80 214,79 214,79 215,79 215,79 217,79 217,79 219,79 219,78 219,78 219,78 219,78 220,78 220,77 220,77 222,76 222,76 222,76 223,76 223,76 223,76 223,76 223,76 223,76 223,75 223,75 223,75 223,75 223,75 223,74 222,74 222,74 221,74 221,73 221,73 221,72 221,72 220,72 220,71 220,71 220,70 220,70 221,69 221,69 221,69 221,69 220,69 220,68 220,68 220,68 220,68 220,67 220,67 220,67 220,66 220,66 220,66 220,65 219,64 219,64 219,64 219,63 218,62 218,62 218,62 218,61 218,61 218,61 219,61 219,60 220,60 220,60 220,60 221,60 221,60 222,59 223,59 223,59 223,59 223,59 223,59 224,59 224,58 224,58 224,58 224,57 224,57 225,57 225,56 226,56 226,56 226,55 226,54 227,54 227,54 227,53 227,53 227,53 227,53 227,53 229,53 229,53 229,53 229,53 230,53 230,53 230,52 230,52 230,52 231,52 231,51 232,51 232,51 232,51 232,51 232,51 233,51 233,51 233,51 233,51 233,51 233,51 233,51 234,49 234,49 234,49 235,50 236,49 236,49 236,49 236,49 236,49 235,49 235,49 235,49 235,48 235,48 239,48 240,48 240,48 241,48 241,48 241,48 240,47 240,47 240,47 240,46 240,46 240,46 241,45 241,45 240,45 240,45 240,45 240,44 240,44 240,44 240,43 240,43 240,41 240,41 241,41 241,41 241,40 241,40 241,40 241,40 242,40 242,40 242,40 243,40 243,39 243,39 244,39 244,39 244,39 245,39 246,39 247,39 247,39 248,39 248,39 248,39 249,39 249,39 250,39 250,39 250,39 251,39 251,39 251,39 252,39 252,39 252,39 253,39 254,40 254,40 255,41 255,41 255,41 256,41 256,41 256,41 257,41 257,41 259,42 260,42 261,42 261,42 261,42 263,42 263,41 264,41 264,42 265,42 265,42 266,42 267,42 267,42 267,42 268,42 268,42 269,43 269,43 269,43 270,43 270,43 270,43 270,43 270,44 271,44 271,45 271,45 272,45 278,50 279,50 283,51 283,52 283,52 284,52 284,52 284,52 285,52 289,53 292,53 292,53 292,53 294,54 294,54 295,54 295,54 295,55 296,55 296,55 296,55 296,54 297,54 298,53 298,53 298,52 299,52 299,52 299,52 299,52 298,51 298,51 298,51 298,50 299,50 299,50 299,50 299,50 300,49 300,49 301,49 301,49 301,48 301,48 301,47 301,47 303,47 303,48 304,48 304,48 304,48 304,48 305,48 305,48 306,48 306,48 306,47 307,47 307,47 307,47 316,46 317,46 319,45 324,45 326,45 326,45 326,45 326,45 327,45 327,45 327,45 327,45 323,43 321,42 321,42 321,41 321,41 321,41 314,33 314,33 311,28 311,28 310,23 310,23 314,22 314,22 314,22 314,22 314,22 314,22 314,22 314,21 314,21 314,21 314,21 314,20 314,20 314,20 314,20 315,20 315,20 315,20 314,19 314,19 314,19 315,19 315,19 317,15 320,11 320,11 320,11 321,11 322,11 322,11 322,10 321,10 321,9 321,9 322,9 322,9 322,9 322,9 322,8 322,8 323,8 323,8 324,8 324,7 324,7 324,7 325,7 325,7 325,7 325,6 326,6 326,6 327,5 327,5 327,5 328,6 329,6 330,7 330,7 330,7 331,8 332,9 332,9 333,9 333,9 334,9 334,9 334,9 334,9 335,8 336,8 338,7 340,6 340,6 341,5 342,4 342,4 344,4 344,4 345,4 345,4 346,4 346,3 346,3 347,2 347,2 348,2 348,2 349,2 349,2 350,2 350,2 351,2 352,2 353,2 354,2 354,2 355,2 357,2 358,2 359,1 359,1 360,1 360,1 361,0 361,0 363,1 363,0 364,0 366,2 367,3 368,4 369,5 369,6 369,7 369,8 369,9 369,9 370,10 370,10 371,10 371,11 371,11 371,11 373,11 373,12 373,12 374,13 374,14 374,14 375,15 375,15 376,16 376,16 377,16 377,17 378,17 378,17 379,18 381,19 381,19 383,20 383,20 384,20 384,20 385,20 387,20 388,21 388,21 389,21 390,21 390,21 391,20 391,20 391,20 391,20 392,20 393,20 393,20 393,20 394,20 394,19 395,19 396,19 397,19 398,19 398,19 399,19 399,19 400,19 401,19 402,20 403,19 403,20 404,20 405,19 406,19 406,20 407,20 407,20 407,20 408,20 408,20 409,20 409,20 409,20 410,20 410,20 410,20 412,20 413,20 414,19 415,19 415,18 416,18 416,18 418,18 418,18 417,20 417,21 417,21 417,21 415,23 415,23 415,23 415,24 415,24 415,25 415,25 415,25 415,26 415,27 415,27 415,27 414,29 414,30 414,30 413,30 413,31 413,31 413,31 413,32 412,35 412,35 412,35 412,36 412,37 412,37 413,37 413,37 413,37 413,38 413,38 413,38 412,38 412,38 412,38 412,38 411,38 411,38 411,38 411,38 410,38 409,38 409,39 408,39 408,39 408,39 408,39 408,39 408,40 408,40 409,42 409,42 409,42 410,43 410,44 410,44 411,45 411,45 411,46 411,46 410,48 410,49 410,49 410,50 410,51 410,51 410,52 410,52 410,52 409,52 410,52 410,53 410,53 410,54 410,54 410,54 410,54 409,54 409,53 408,53 408,53 408,53 407,53 407,53 408,56 408,56 408,57 408,57 409,58 409,59 410,59 409,61 407,63 405,64 405,64 405,64 405,64 404,65 403,65 403,65 402,66 402,66 401,66 400,66 400,66 400,66 399,66 398,66 398,66 398,66 398,66 398,66 398,65 398,65 396,65 396,65 395,65 395,65 394,65 394,65 394,66 394,66 393,66 392,67 391,67 390,67 389,68 389,68 388,68 388,69 387,69 387,69 386,69 386,70 386,70 385,71 385,71 385,71 384,72 384,72 383,72 383,72 383,72 382,73 382,74 382,74 381,74 381,74 381,74 381,75 383,76 383,76 383,76 384,76 384,77 385,77 386,77 388,77 389,78 390,78 390,78 390,78 392,78 392,78 392,78 392,78 392,78 392,78 391,79 391,79 391,79 390,79 390,79 390,79 389,79 389,79 389,79 388,79 388,79 388,79 386,78 386,78 385,78 385,78 384,78 384,78 384,78 384,78 383,78 383,78 382,78 381,78 381,78 381,78 380,77 379,77 379,77 379,77 379,77 379,77 378,77 378,77 378,77 378,77 377,77 377,77 376,77 376,77 376,77 375,77 375,77 375,77 375,77 375,77 374,78 374,78 374,78 374,78 374,78 374,78 373,78 373,79 373,79 373,79 373,80 372,80 372,81 372,81 372,81 371,81 371,82 371,82 371,82 371,82 371,82 371,82 371,83 371,83 371,83 371,84 371,84 371,84 371,85 371,85 371,85 371,86 372,87 372,87 372,88 372,88 372,88 372,88 371,88 371,88 371,89 370,89 370,89 370,89 370,90 370,90 370,90 369,91 369,92 369,92 369,92 369,92 369,92 368,93 368,94 368,94 368,94 368,94 367,94 367,95 367,95 367,95 367,95 366,95 366,95 366,95 366,96 367,96 367,96 367,96 367,97 367,97 367,97 367,97 368,97 368,97 369,97 369,97 370,97 370,97 371,97 371,97 372,97 372,97 373,96 373,96 374,96 374,96 375,96 375,96 375,96 375,96 375,96 375,96 376,96 376,95 376,95 376,95 376,95 376,95 377,95 376,96 377,96 377,96 378,96 378,96 379,96 379,96 382,96 383,96 384,96 385,96 387,96 388,97 389,97 390,97 391,98 398,101 398,101 399,101 401,102 401,102 402,102 402,102 405,102 406,102 406,102 407,102 408,102 409,102 410,102 410,102 410,103 412,103 413,104 414,105 414,105 414,105 415,106 415,106 415,107 415,107 415,108 415,109 415,109 415,109 415,110 416,110 416,111 416,111 416,111 417,111 417,111 417,112 418,112 419,111 421,111 421,111 421,111 422,111 423,111 424,111 424,111 424,111 425,112 426,113 426,113 427,113 427,113 427,113 427,113 427,113 427,113 427,114 427,114 427,114 427,115 426,115 426,115 425,116 425,116 424,116 424,116 423,117 423,117 423,118 422,118 422,118 423,119 423,119 423,119 423,120 424,120 424,121 424,121 424,121 424,121 423,121 423,121 422,121 421,122 421,122 422,122 422,122 423,122 424,121 424,121 425,122 426,122 426,122 427,122 427,122 428,122 428,122 428,122 429,123 429,123 430,123 430,123 430,123 431,123 431,124 432,124 431,124 431,124 429,124 429,124 429,124 428,124 427,124 426,124 426,124 426,124 426,125 426,125 425,126 425,126 425,127 425,127 425,128 425,129 425,129 425,129 426,129 426,130 426,130 426,130 426,130 428,130 429,130 431,130 432,130 432,130 435,131 435,131 435,132 434,132 434,133 433,133 433,134 433,134 433,134 433,135 433,137 434,139 434,139 434,139 435,139 435,140 435,140 436,141 436,141 437,141 431,147 429,149 428,149 428,149 427,149 427,148 427,147 426,147 426,146 425,145 425,145 425,144 424,144 423,144 422,144 422,144 421,143 420,143 419,143 419,142 418,142 418,142 418,142 418,142 418,141 418,140 418,140 418,140 418,140 417,140 417,140 416,140 416,140 415,139 414,139 414,139 414,139 413,140 413,140 413,140 412,140 411,140 411,140 410,140 409,139 408,139 408,139 408,140 408,140 408,140 407,141 407,142 407,142 407,143 407,143 407,144 407,144 407,144 405,145 405,145 404,145 404,145 403,146 401,146 401,146 401,147 401,146 400,146 400,146 399,146 398,146 398,146 397,146 397,145 396,145 395,144 395,144 393,143 393,143 392,143 391,142 390,142 389,142 388,142 388,142 387,142 386,142 386,141 385,141 385,141 385,141 384,141 384,141 383,141 382,141 381,142 381,142 380,142 380,142 379,142 379,142 378,142 378,142 377,142 376,141 375,141 373,141 373,141 372,141 371,141 370,141 370,141 369,141 368,141 366,141 366,141 366,141 366,141 365,141 364,141 363,141 363,141 362,140 362,140 362,140 361,140 360,139 360,139 359,140 359,140 356,139 356,139 355,139 355,139 353,139 353,139 353,139 352,139 352,139 351,140 350,140 350,140 349,140 348,140 348,140 348,140 347,141 347,141 346,141 346,141 346,141 345,141 344,141 343,141 341,141 341,141 340,141 339,142 339,142 339,142 339,142 338,142 338,143 337,143 336,144 335,144 335,145 334,145 334,145 334,145 333,146 332,146 332,146 332,147 332,147 332,147 333,147 332,147 332,147 331,148 331,148 330,148 330,149 329,149 329,150 329,150 329,150 329,151 329,151 329,151 328,151 328,151 328,152 327,152 327,152 326,152 326,153 325,153 325,153 325,153 323,153 323,153 321,154 321,154 320,154 320,154 319,155 318,155 317,155 316,155 315,156 315,156 313,156 313,156 309,157 307,157 307,157 306,157 305,157 305,157 304,157 304,157 303,158 302,158 302,158 301,158 301,158 300,159 300,159 300,159 298,160 298,160 298,160 299,160 299,160 299,160 299,160 298,160 298,160 297,161 297,161 297,161 297,161 297,161 297,161 297,162 296,162 295,162 295,162 294,162 293,162 293,163 292,163 291,164 288,167 288,167 292,171 292,171 292,171 292,171 293,172 293,172 293,173 293,173 293,173 294,174 294,175 293,176 293,176 292,177 292,177 291,177 289,178 287,178 287,178 286,178 285,179 284,179 283,180 283,180 282,180 281,181 281,181 281,181 281,181 280,182 279,183 279,183 279,183 278,184 277,184 277,185 276,185 276,186 275,186 274,186 274,186 274,186 274,186 274,186 274,186 273,186 273,186 273,186 272,186 272,186 271,187 271,187 271,186 271,186 270,187 269,187 268,187 267,187 267,187 267,187 267,187 266,186 266,186 265,186 264,186 264,186 263,186 262,186 262,186 262,186 263,187 263,187 263,187 263,188 263,188 263,188 262,188 259,189 259,189 259,189 258,190 258,190 258,190 258,191 258,191 258,191 258,191 259,191 260,191 260,191 262,191 263,191 264,191 266,192 267,192 269,191 269,191 270,191 271,191 271,192 272,192 272,192 272,192 274,192 276,191 278,191 279,191 280,190 280,190 280,190 280,191 281,194 282,195 282,195 282,195 285,205 286,205 286,206 288,207 292,209 293,209 293,209 293,209 294,209 294,209 294,210 295,210 295,211 295,211 296,212 295,212 295,213 295,213 294,213 294,213 294,214 293,214 293,214 293,214 294,215 294,215 294,215 294,215 295,216 296,216 296,217 296,217 297,217 297,218 297,218 298,218 299,218 299,219 301,219 301,220 302,220 302,220 302,220 302,220 303,220 304,220 304,220 305,220 307,221 307,221 307,221 308,221 308,221 308,221 309,222 309,222 309,222 309,222 309,222 309,223 309,223 308,223 307,223 307,223 306,223 304,223 304,223 304,224 302,225 302,226 301,231 300,232 299,237 299,237 299,243 299,250 299,250 302,251 302,251 303,251 304,251 305,251 307,250 307,250 307,250 307,251 307,251 307,251 307,251 306,251 306,251 306,252 306,252 306,252 306,253 306,253 306,253 306,253 305,254 305,254 305,254 304,255 304,255 304,256 304,256 303,257 303,258 303,258 302,258 302,258 302,258 302,258 302,258 302,259 302,259 302,259 301,260 301,261 301,261 300,261 299,262 300,262 300,262 300,263 300,263 301,263 301,263 301,263 301,264 302,264 302,264 303,265 303,265 303,265 303,265 303,266 303,266 303,267 303,267 303,267 304,267 304,267 304,268 304,268 304,268 304,268 305,270 306,270 306,271 306,271 306,271 307,271 307,271 307,271 307,271 308,272 308,272 308,272 308,272 309,273 309,273 310,274 310,274 312,275 313,276 313,276 313,276 313,276 313,276 312,277 312,277 313,277 313,277 312,278 312,278 312,279 312,279 312,279 313,280 313,280 313,280 313,280 313,281 313,281 313,281 314,281 314,281 314,281 314,281 314,281 314,281 314,281 314,282 314,282 314,282 314,282 314,282 314,283 314,283 314,283 314,283 314,283 315,283 315,284 315,284 316,284 316,284 316,284 317,284 317,284 317,284 317,285 317,285 317,285 318,285 318,285 319,286 319,286 319,286 319,286 319,286 319,286 319,286 320,287 320,287 319,288 320,288 320,288 320,288 320,289 320,289 320,289 320,290 320,290 321,290 321,291 321,291 321,291 321,291 321,292 321,292 321,292 321,292 322,292 322,293 322,293 322,293 322,294 323,294 323,295 323,295 323,295 322,295 322,295 322,295 322,295 322,296 321,296 321,296 321,297 321,298 320,298 320,298 320,298 320,298 320,299 321,299 321,299 321,300 321,300 321,300 321,301 321,301 320,301 320,302 320,302 319,302 319,302 319,302 319,303 319,303 319,303 319,303 320,303 320,303 320,303 320,304 320,304 320,304 320,304 320,305 320,305 320,305 320,305 320,305 320,306 319,306 320,306 320,306 320,306 319,307 319,307 319,307 320,307 321,307 321,307 321,307 321,307 321,308 322,308 322,309 323,309 323,309 323,309 323,310 324,310 324,310 324,311 325,311 325,311 325,311 325,311 326,311 326,312 327,312 328,312 328,312 328,312 329,313 329,313 329,313 329,313 330,313 330,313 330,313 331,314 331,314 332,314 332,314 332,314 332,314 333,314 333,314 333,315 334,315 335,315 335,315 336,315 337,315 337,315 337,316 338,316 338,316 338,316 338,316 338,316 338,316 338,317 338,317 338,317 339,317 339,317 340,317 340,317 340,318 341,318 341,318 341,318 342,318 343,318 343,318 344,318 344,318 344,318 346,319 346,319 347,319 348,320 349,320 349,320 350,320 350,321 350,321 351,321 352,320 353,320 354,320 354,320 354,320 355,320 356,320 356,320 356,321 356,321 357,321 357,321 357,321 357,321 358,321 358,321 359,321 360,321 361,322 362,322 362,322 362,322 363,322 363,323 363,322 364,322 364,322 364,322 364,322 365,323 367,323 368,323 370,323 370,323 371,323 372,323 372,323 372,323 373,323 373,323 374,323 375,323 375,324 376,324 376,324 376,324 376,324 377,324 377,324 378,324 379,324 379,324 379,325 380,325 381,325 381,326 382,326 383,327 383,327 384,328 385,328 385,328 385,328 386,328 387,329 388,329 388,329 390,329 390,329 391,330 392,330 393,330 393,330 394,331 394,331 395,331 396,331 398,331 399,332 399,332 400,332 400,332 401,333 401,333 402,333 402,334 402,334 403,334 403,334 404,334 404,335 405,335 406,335 406,335 407,335 407,335 407,335 408,335 408,335 408,335 409,335 410,336 411,336 411,336 412,336 412,336 413,336 413,336 414,336 415,336 415,336 416,336 418,335 419,335 419,335 419,335 419,335 420,334 420,333 421,333 422,333 423,333 423,333 424,334 424,334 425,334 425,334 426,334 426,334 426,335 427,336 427,336 427,336 427,336 427,337 428,337 428,337 428,337 429,337 429,337 430,337 430,337 431,337 432,337 433,337 434,338 435,338 436,338 436,338 436,338 437,338 437,338 437,338 437,338 437,337 437,337 438,337 438,337 438,336 439,336 439,336 440,336 440,336 440,336 441,336 441,336 442,336 442,336 444,336 444,336 445,336 446,335 446,336 447,336 447,336 447,336 448,336 448,336 449,336 449,337 450,337 450,337 451,337 451,337 451,338 452,338 452,338 452,338 452,338 451,339 451,339 451,340 452,340 452,340 452,341 452,341 452,341 453,341 453,341 453,341 453,342 454,342 454,342 454,342 455,342 457,343 457,343 457,343 458,344 458,345 458,345 458,345 458,346 459,346 459,347 459,347 459,347 459,347 460,347 460,348 460,348 460,348 459,348 459,348 459,348 461,348 461,348 462,348 464,348 465,348 467,348 467,348 468,348 469,348 470,348 471,348 473,348 474,348 475,348 484,360 489,367 494,374 500,379 500,380 500,381 500,381 498,384 498,384 498,384 498,385 498,386 498,386 496,386 495,386 493,386 492,386 492,386 491,386 490,385 488,385 487,385 484,385 481,385 480,385 479,386 477,386 476,386 475,386 475,386 475,387 464,395 464,395 459,398 458,398 458,398 458,398 442,403 442,403 438,406 438,407 438,407 438,409 438,409 439,409 441,410 441,410 441,410 441,411 442,412 442,413 442,413 442,414 442,414 442,415 441,416 441,416 441,416 441,417 441,417 442,418 443,418 443,418 445,421 445,422 446,423 447,423 447,424 447,425 447,426 448,427 448,427 448,427 448,428 447,428 447,428 447,428 447,428 446,429 447,429 447,430 447,431 448,431 448,431 449,432 450,432 451,433 451,434 451,434 451,434 451,435 451,435 451,436 451,436 451,436 451,437 452,438 453,438 455,440 455,440 456,441 456,441 458,441 460,442 460,442 460,442 460,442 459,443 459,443 459,443 460,444 460,444 460,444 460,445 460,445 460,445 460,445 459,446 459,446 459,446 459,446 459,446 459,447 459,447 458,447 458,447 458,447 458,448 458,448 458,448 458,449 458,449 458,450 458,450 458,450 458,450 458,450 458,450 458,450 457,450 457,450 457,451 457,451 457,451 456,451 456,451 456,451 456,450 456,451 456,451 456,451 456,451 456,451 456,451 455,451 455,451 455,451 455,451 455,451 454,452 454,452 453,452 453,452 453,452 452,452 452,453 452,453 452,453 452,453 452,453 451,453 451,454 451,454 451,454 451,454 451,454 451,454 450,455 450,455 450,455 450,455 450,455 450,455 450,456 450,456 449,456 449,456 449,456 449,456 449,457 449,457 449,457 449,457 449,458 449,458 448,458 448,457 447,458 447,459 445,461 445,462 445,462 443,464 442,465 441,466 441,466 441,466 439,468 439,468 438,468 438,469 436,470 435,470 434,470 434,470 432,470 432,469 430,469 430,468 429,468 429,468 429,468 428,468 428,468 427,468 427,469 426,469 426,468 425,468 424,468 423,467 422,467 420,467 420,467 419,467 419,467 419,467 419,468 419,468 419,468 419,468 420,468 420,469 420,469 420,469 420,469 420,469 420,469 421,470 421,471 421,471 421,471 421,471 421,472 421,472 421,473 422,473 422,473 422,473 422,474 423,475 423,475 423,475 424,476 424,477 424,477 424,477 424,478 424,478 424,479 424,479 424,480 424,480 424,480 424,481 424,482 424,482 424,482 421,481 421,481 420,481 419,481 419,481 419,481 418,481 418,480 418,480 417,480 417,479 416,479 416,479 416,479 416,479 416,479 415,478 415,478 415,478 415,478 414,477 414,477 414,476 414,476 414,476 413,476 413,476 413,476 412,476 412,475 412,475 412,475 412,475 411,476 410,476 409,476 409,476 408,475 408,475 408,475 401,479 400,479 399,479 398,480 383,483 383,483 381,483 379,482 379,482 378,483 377,483 375,483 374,483 373,483 372,483 371,483 371,483 374,489 354,497 334,497 333,497 332,497 332,497 332,497 331,496 331,496 330,496 330,496 330,496 329,496 328,496 328,496 328,496 327,496 327,496 327,496 326,496 326,496 325,496 325,496 324,496 324,496 324,497 322,497 321,498 320,498 320,498 319,497 318,497 318,497 317,497 317,497 316,497 316,497 315,497 314,496 314,496 314,496 313,497 312,497 312,497 309,497 304,498 304,498 293,497 293,497 273,485 265,483 264,483 264,483 264,483 263,483 254,477 250,475 250,474 250,474 250,473 250,473 250,473 250,472 250,472 250,472 250,471 250,471 250,470 250,470 250,470 251,469 251,469 251,469 251,469 251,468 251,468 251,468 251,467 251,467 251,467 251,467 251,466 251,465 251,465 249,464 249,464 248,464 244,464 243,463 243,463 242,463 242,463 241,462 241,461 241,461 241,461 241,461 241,461 241,460 240,460 239,460 239,460 239,460 239,460 239,461 239,461 239,461 239,461 238,461 238,461 238,462 238,462 238,462 238,462 238,462 237,462 237,462 236,463 236,463 236,463 235,463 235,463 235,463 235,463 235,464 235,464 234,464 234,463 234,463 234,463 234,463 233,463 233,463 233,463 233,463 232,463 232,464 231,464 231,464 231,464 231,464 230,464 230,464 229,464 229,464 229,464 229,464 229,464 229,465 229,465 228,465 228,465 227,465 227,465 227,465 227,465 226,466 226,466 226,466 226,466 226,466 226,466 225,466 225,466 224,466 224,466 224,466 223,466 223,466 223,466 223,466 223,465 222,465 222,465 222,465 222,465 222,465 221,465 221,464 221,464 220,464 220,464 220,464 219,465 219,465 219,465 218,465 218,465 217,464 217,464 217,464 217,464 217,464 216,464 216,464 215,464 215,464 215,464 214,464 214,464 213,464 213,464 213,464 213,464 212,464 212,465 212,465 212,465 212,465 212,465 211,465 211,465 211,466 211,466 211,466 210,466 210,467 209,467 209,467 209,467 208,467 208,468 207,468 207,468 207,469 207,469 207,469 206,469 206,469 206,469 205,470 205,470 204,470 204,470 204,471 203,471 203,471 203,471 203,471 202,471 202,470 202,471 201,471 201,471 201,471 200,471 200,471 200,471 200,472 201,473 201,473 201,473 201,473 200,474 200,474 200,474 199,474 199,474 199,474 199,475 199,475 199,475 199,475 199,475 199,475 198,476 198,476 198,476 198,476 198,476 197,477 196,477 196,477 196,478 196,478 196,478 196,478 196,478 195,478 195,478 195,478 194,479 194,479 194,479 193,479 193,479 193,479 193,479 192,479 191,479 190,479 190,479 189,479 189,479 189,480 189,480 188,480 188,480 188,480 188,479 188,479 187,479 187,479 187,479 187,479 186,478 186,478 185,478 185,478 185,478 185,478 185,478 185,478 185,478 185,478 184,478 184,478 183,479 182,479 182,479 182,479 182,479 182,479 182,479 182,480 181,480 181,479 180,479 179,479 179,478 178,478 178,478 178,478 178,477 178,477 178,477 178,477 178,477 177,476 177,476 177,476 177,476 177,476 176,475 176,475 175,475 175,474 174,473 174,473 174,473 174,473 173,473 173,473 173,473 172,473 172,473 171,473 171,473 170,473 170,473 169,473 169,474 169,474 168,474 168,474 167,473 166,473 166,473 165,473 165,473 165,473 165,473 165,473 165,473 165,473 165,473 165,472 164,472 164,472 164,472 163,472 163,472 163,472 163,472 162,472 162,471 162,471 162,471 161,471 161,471 160,471 160,471 160,471 160,471 160,471 159,471 159,471 159,471 158,471 158,471 158,471 158,470 157,470 157,470 157,470 157,470 156,470 156,470 156,470 156,470 156,470 156,470 156,470 155,469 155,469 155,469 154,469 154,469 154,469 154,469 154,469 154,469 153,469 153,469 152,469 152,469 152,469 152,469 152,469 151,469 151,469 151,469 151,469 150,469 150,469 150,469 150,469 149,469 149,469 149,468 149,468 149,468 148,468 148,468 148,468 147,468 147,468 147,467 146,467 146,467 145,467 145,467 145,467 144,467 144,467 144,467 143,467 143,467 143,467 143,467 143,467 142,466 142,466 142,466 142,466 142,466 141,466 141,466 140,466 140,466 140,466 140,466 140,466 139,466 139,466 139,466 138,466 138,465 138,465 137,465 137,465 137,465 137,465 137,465 136,464 136,464 136,464 135,463 134,462 134,462 133,462 133,461 133,461 132,460 132,460 131,460 130,459 130,459 130,459 129,459 129,459 129,459 128,459 128,459 128,458 128,458 127,458 127,457 126,457 126,457 126,457 124,456 124,456 123,455 123,455 122,455 121,454 121,454 121,454 121,454 121,453 121,453 120,453 120,453 120,453 120,453 120,452 120,452 120,452 119,452 119,452 119,452 119,451 119,451 118,451 118,451 118,450 118,450 118,450 117,450 117,450 117,449 116,449 116,449 116,449 115,449 115,448 114,448 114,448 113,447 113,447 113,447 113,447 113,447 113,447 113,446 113,446 113,446 113,446 113,446 113,445 114,445 114,444 114,444 114,444 114,444 114,444 114,444 114,444 114,443 114,443 114,443 114,443 114,443 114,442 114,442 114,441 114,441 115,440 115,440 117,439 117,439 124,437 126,436 129,435 129,435 129,435 129,435 130,434 130,434 131,434 131,434 131,433 132,433 132,433 132,432 132,431 132,430 132,430 132,430 132,429 132,429 132,429 132,428 133,428 133,427 133,427 133,427 133,427 134,427 134,426 134,426 134,426 134,425 135,425 135,425 135,425 135,425 136,424 136,424 136,424 136,423 136,423 136,423 136,423 136,422 137,422 137,421 137,421 137,421 137,421 137,421 137,421 137,420 137,420 137,420 137,419 137,419 138,419 138,418 138,418 138,418 139,418 139,418 139,418 139,417 139,417 140,417 140,416 140,416 140,416 140,416 140,415 140,415 140,415 140,415 139,415 139,415 139,414 138,414 138,414 138,414 138,414 138,414 138,414 137,413 137,413 137,413 137,412 137,412 137,412 136,412 136,412 136,412 136,411 136,411 136,411 136,411 136,411 135,411 135,411 135,410 135,410 135,410 135,410 135,410 135,410 135,410 135,410 135,409 135,409 135,409 135,409 135,409 135,408 135,408 135,408 134,408 134,408 134,408 134,408 135,407 135,407 136,407 136,407 137,406 138,406 138,406 138,405 138,406 138,406 137,406 137,406 137,406 137,406 136,406 136,406 136,406 136,406 135,406 135,406 134,406 134,406 134,406 134,406 134,406 133,406 133,406 133,406 132,406 132,406 132,406 131,406 131,406 131,406 131,406 130,406 130,406 130,406 130,407 130,407 130,407 129,407 129,407 128,407 128,407 127,407 127,407 127,407 127,407 127,407 127,407 126,407 125,407 124,407 124,407 123,407 123,407 123,407 123,408 123,408 122,408 122,408 122,408 122,408 121,408 121,408 121,408 120,408 120,408 120,408 120,408 120,408 119,408 119,408 119,408 118,408 118,408 118,408 117,408 117,408 117,408 116,408 116,408 115,408 115,408 115,408 113,408 113,408 113,408 112,408 112,408 112,408 111,409 111,408 110,408 109,408 109,408 108,408 108,408 108,408 107,408 107,408 107,408 106,408 106,409 106,409 105,409 105,409 104,409 104,409 103,409 103,410 103,410 103,410 103,410 102,410 102,410 102,409 101,409 101,409 100,408 100,408 99,408 98,407 90,402 87,400 87,400 87,400 86,401 84,401 84,402 83,402 83,402 83,402 82,402 80,404 80,405 78,406 78,406 78,407 77,408 77,408 77,408 77,408 77,407 76,407 76,406 75,406 74,405 74,405 73,405 71,403 68,402 66,401 65,401 65,400 64,400 64,400 64,400 63,399 62,399 62,399 61,399 60,398 59,398 59,398 59,397 58,397 58,397 57,397 55,396 55,396 54,396 54,396 53,395 52,395 52,395 52,395 51,394 51,394 50,394 50,393 49,393 49,392 48,392 48,392 48,391 48,390 48,389 48,388 48,388 47,388 47,388 47,388 46,387 46,387 46,387 43,386 42,385 41,385 40,385 40,384 39,384 37,383 37,383 37,383 37,382 37,382 36,380 35,379 35,379 33,377 33,377 33,377 33,376 32,376 32,375 32,374 32,374 32,373 32,373 32,372 32,371 31,370 31,370 31,369 31,369 30,368 30,367 30,367 30,366 29,364 29,363 29,362 29,360 29,360 28,360 28,359 28,359 27,359 27,358 27,358 27,358 26,358 26,357 25,357 24,357 23,356 22,356 21,356 20,355 20,355 20,354 19,354 18,353 18,353 17,352 16,352 16,352 15,351 15,351 15,351 13,349 11,348 11,348 11,348 11,347 10,347 10,346 9,346 9,346 8,345 7,345 7,345 7,345 6,345 6,345 6,344 5,343 5,342 4,341 3,340 1,339 1,338 1,338 1,337 0,337 0,337 0,336 1,336 1,335 1,334 0,334 0,334 0,333 0,333 0,332 0,331 0,331 0,331 0,331 1,331 1,331 2,331 2,331 3,331 3,330 4,330 4,330 5,330 5,330 5,330 6,330 6,330 6,330 6,329 7,329 7,328 7,328 8,328 8,327 8,327 9,327 9,327 9,327 10,326 11,326 12,326 12,326 13,326 13,326 14,325 14,325 14,325 15,325 15,325 16,325 17,324 18,324 19,324 21,324 22,324 22,324 22,324 23,323 24,323 25,322 26,322 26,321 27,321 27,321 27,320 27,320 28,320 29,319 29,319 29,318 30,318 31,317 31,317 31,317 31,317 31,316 31,316 31,315 31,314 31,313 31,313 32,312 32,312 32,312 32,312 32,312 33,312 33,311 33,311 34,311 34,311 35,311 35,311 36,311 38,311 38,310 39,310 39,310 39,310 40,310 41,309 41,309 42,309 42,309 43,309 44,309 44,309 44,309 44,309 44,309 44,309 43,308 34,307 31,306 31,306 30,306 30,306 30,306 30,307 28,308 27,308 27,308 27,308 26,308 26,308 25,308 23,307 23,307 23,305 23,305 23,305 23,305 24,305 25,304 25,304 25,304 26,303 27,302 27,302 27,302 28,302 28,301 28,301 28,301 29,300 29,300 29,300 29,300 30,300 30,299 30,299 30,299 30,298 29,298 29,298 29,298 28,297 28,297 28,297 28,296 28,296 28,296 28,296 28,295 29,295 29,294 29,294 29,294 29,294 29,293 29,293 29,293 29,293 29,293 29,292 29,292 30,292 30,292 30,292 30,292 30,291 30,291 30,291 31,291 31,291 31,291 31,291 32,291 32,291 32,291 33,291 33,291 33,291 34,291 34,291 34,291 35,291 35,291 35,291 35,291 36,290 36,290 36,290 36,290 36,290 36,290 36,289 36,289 37,289 37,288 37,288 37,288 37,288 37,288 38,288 38,288 38,288 38,288 38,287 38,287 39,287 39,287 39,287 39,287 39,286 40,286 40,286 40,286 40,286 40,286 40,286 40,286 41,286 41,285 41,285 41,285 41,285 41,285 42,285 42,285 42,284 42,284 42,284 42,284 42,284 42,284 43,284 43,284 43,284 43,283 43,283 43,283 43,283 43,282 43,282 43,282 43,282 44,282 44,281" id="6910" class="canton" fill="steelblue" stroke-width="1" stroke="white" geotype="canton" geoname="Tarare" code_insee="6910" code_departement="69" nom_departement="Rhône" code_region="84" nom_region="Auvergne-Rhône-Alpes"/></svg>