<?xml version="1.0" encoding="utf-8"?>
<svg version="1.1" id="svgmap" xmlns="http://www.w3.org/2000/svg" xmlns:xlink="http://www.w3.org/1999/xlink" x="0px" y="0px" width="100%" height="100%" viewBox="0 0 500 330">
<polygon points="445,0 445,12 452,33 454,44 455,50 456,54 459,78 459,84 458,107 459,128 459,138 458,142 457,144 453,151 453,152 455,157 472,184 474,188 481,202 491,220 494,225 495,227 497,232 497,234 500,246 500,249 500,252 499,257 499,259 494,272 486,294 483,300 482,302 480,307 461,330 406,305 405,306 387,299 388,299 381,296 388,280 391,271 395,261 397,258 406,249 407,248 415,238 365,219 355,215 357,213 356,212 352,213 346,210 346,209 339,207 320,206 301,206 284,204 272,204 255,206 241,210 238,210 210,207 197,207 180,207 162,207 152,208 144,210 144,210 123,210 123,210 126,207 116,206 116,203 105,203 105,200 105,194 105,191 105,189 105,182 104,174 100,175 94,176 93,176 91,176 85,176 78,177 73,179 71,180 64,181 62,181 57,182 54,183 46,186 45,186 35,190 29,192 28,192 26,193 17,194 10,195 8,195 0,191 10,178 16,177 33,175 28,160 35,157 43,153 47,150 72,142 78,154 87,152 94,152 100,151 107,150 106,150 108,139 110,129 110,128 111,127 113,126 113,125 107,123 104,122 101,120 101,120 100,120 100,120 98,119 97,118 96,117 81,109 73,105 69,102 68,102 64,101 64,92 67,83 69,80 75,73 87,70 90,65 91,64 92,54 92,53 91,51 89,49 85,45 80,36 79,34 79,33 78,30 76,20 76,18 75,17 75,16 80,15 88,14 95,17 97,15 99,15 104,17 119,19 122,20 127,23 132,23 137,22 143,22 146,21 149,17 158,15 161,14 163,13 164,10 167,9 167,11 168,12 175,17 190,26 191,26 201,26 207,26 274,29 314,30 339,25 359,21 428,1 445,0" id="6913" class="canton" fill="steelblue" stroke-width="1" stroke="white" geotype="canton" geoname="Villefranche-sur-Saône" code_insee="6913" code_departement="69" nom_departement="Rhône" code_region="84" nom_region="Auvergne-Rhône-Alpes"/></svg>