<?xml version="1.0" encoding="utf-8"?>
<svg version="1.1" id="svgmap" xmlns="http://www.w3.org/2000/svg" xmlns:xlink="http://www.w3.org/1999/xlink" x="0px" y="0px" width="100%" height="100%" viewBox="0 0 500 421">
<polygon points="136,70 136,70 137,70 137,70 137,70 137,69 137,69 137,69 137,69 137,69 137,69 137,69 137,69 137,69 137,69 137,69 138,70 138,70 138,70 138,70 138,70 139,70 139,70 139,70 139,70 139,70 139,70 139,70 139,70 139,70 139,70 139,71 139,71 139,71 139,71 139,71 139,71 139,71 139,71 139,71 139,71 139,71 139,71 139,71 139,71 139,72 139,72 139,72 140,72 140,72 140,72 140,72 140,72 140,72 140,72 140,72 140,72 140,72 140,72 140,72 139,72 139,72 140,72 140,73 140,73 140,73 140,73 141,72 141,72 141,72 141,72 141,72 141,72 141,72 141,72 141,72 141,72 141,72 141,72 141,72 142,72 142,72 142,72 142,72 142,72 142,73 142,73 142,73 142,73 142,73 142,73 142,73 142,73 142,73 143,73 143,73 143,73 143,73 143,73 143,73 143,73 143,73 143,73 143,73 143,73 142,74 142,74 142,74 142,74 142,74 142,74 143,74 143,74 143,74 143,74 143,74 142,74 142,75 142,75 142,75 142,75 142,75 142,75 142,75 142,75 142,75 141,75 141,75 141,75 141,75 141,75 141,75 141,75 141,75 141,75 141,75 141,75 141,75 141,76 141,76 141,76 141,76 142,76 142,76 142,76 142,75 142,75 142,75 142,75 142,75 142,75 142,75 142,76 142,76 142,76 142,76 142,76 142,76 142,76 142,76 142,76 142,76 142,76 142,76 142,77 142,77 142,77 142,77 142,77 143,77 143,77 143,77 142,77 142,77 142,77 142,77 142,78 142,78 142,78 142,78 143,78 143,78 143,78 143,78 143,78 143,78 143,78 143,78 143,78 143,79 143,79 143,79 143,79 143,78 142,78 142,78 142,78 142,78 142,78 142,78 142,78 142,79 142,79 142,79 142,79 142,79 142,79 142,79 142,79 142,79 142,79 142,79 142,79 142,79 142,79 142,79 143,80 143,80 143,80 143,80 143,80 143,80 143,80 143,80 143,80 143,80 143,80 143,80 143,80 143,80 144,80 144,81 144,81 144,81 144,81 144,81 144,81 144,81 144,81 144,81 144,81 144,81 144,82 144,82 144,82 144,82 144,82 144,82 144,82 144,82 144,82 144,82 145,82 145,82 145,82 145,82 145,83 145,83 145,83 145,83 145,83 145,83 145,83 145,83 145,83 145,83 145,83 145,83 145,84 145,84 145,84 145,84 145,84 145,84 145,84 145,84 145,84 145,84 145,85 145,85 145,85 145,85 145,85 145,85 145,85 145,85 145,85 144,85 144,85 144,85 144,85 144,85 144,85 144,85 144,86 144,86 144,86 144,86 144,86 144,86 144,86 144,86 144,86 144,86 144,86 144,86 144,86 144,86 144,86 144,86 144,86 144,86 144,86 144,86 144,86 143,86 143,86 143,86 143,87 143,87 143,87 143,87 143,87 143,87 143,87 144,87 144,87 144,87 144,87 144,87 144,87 144,87 144,87 144,87 144,87 144,87 144,87 144,87 144,88 144,88 144,88 144,88 144,88 144,88 144,88 144,88 144,88 144,88 144,88 144,88 144,88 144,88 144,88 144,88 144,88 144,89 144,89 144,89 144,89 144,89 144,89 145,89 145,89 145,89 145,89 145,89 145,89 145,89 145,89 145,89 145,89 145,89 145,89 145,89 145,90 145,90 145,90 145,90 145,90 145,90 145,90 145,90 145,91 145,91 145,91 145,91 146,91 146,91 146,91 146,91 146,92 146,92 147,92 147,92 147,92 147,93 147,93 148,93 148,93 147,93 147,93 147,93 147,93 147,93 147,93 147,94 147,94 147,94 147,94 147,95 147,95 147,96 147,96 147,97 148,97 148,97 148,97 148,97 148,97 148,98 148,98 149,99 149,99 149,100 149,100 149,100 149,100 149,100 148,101 148,101 148,101 148,101 149,102 145,102 144,102 144,102 144,102 144,102 144,103 144,103 145,103 146,103 146,103 147,104 148,104 149,104 150,104 150,104 150,104 150,105 155,107 157,108 160,109 160,109 161,109 162,109 162,109 163,109 163,109 164,109 165,109 165,109 165,109 166,109 167,109 167,109 168,109 168,108 168,110 167,112 166,114 164,116 161,118 160,120 162,120 165,120 167,120 170,120 172,120 173,121 174,121 176,121 177,120 177,120 178,120 179,120 181,120 183,120 184,120 186,120 187,120 190,121 191,121 193,121 195,121 196,121 199,121 201,121 203,121 204,121 206,121 207,121 209,121 212,121 216,121 220,121 222,122 223,121 226,121 226,122 226,123 225,124 223,127 223,127 230,132 232,133 232,133 248,130 248,130 248,130 249,127 249,127 249,126 251,124 251,124 251,124 251,125 251,125 251,125 251,125 254,122 254,121 261,116 264,113 264,113 265,106 265,102 265,102 265,101 265,101 266,101 268,101 272,101 272,101 272,100 271,93 271,93 274,92 274,92 277,93 277,93 277,91 277,91 281,91 281,91 281,91 281,90 281,89 279,85 279,84 279,84 279,84 278,84 278,83 277,82 277,82 277,81 278,81 279,81 282,79 282,79 282,79 282,79 283,77 283,77 284,76 285,76 285,76 285,76 285,75 283,73 283,73 283,72 283,71 282,72 282,72 282,72 282,71 282,71 282,70 282,70 282,69 283,68 283,67 283,67 283,66 283,65 283,65 283,64 283,64 283,64 283,63 282,62 281,62 280,61 280,61 280,60 279,58 278,57 278,57 278,57 278,57 279,55 279,55 278,52 277,49 277,49 277,47 276,46 276,42 276,41 276,40 276,38 276,38 276,37 276,36 276,36 276,33 276,30 276,29 276,28 277,27 277,26 277,25 278,22 278,21 278,20 278,19 278,18 278,17 278,16 278,16 280,14 282,11 282,12 283,12 283,12 284,12 284,12 285,13 288,12 289,12 292,11 293,11 294,10 295,10 295,10 296,10 296,10 298,10 299,10 302,9 304,8 308,8 309,8 309,8 311,6 312,5 315,3 317,1 319,0 324,2 325,2 328,3 329,3 335,5 336,5 340,7 342,8 348,12 349,13 349,13 351,13 352,13 352,13 354,13 355,13 355,14 356,14 356,14 364,20 364,20 365,22 365,23 366,30 366,34 366,34 366,34 366,34 373,38 374,39 379,42 384,47 394,55 395,55 399,61 404,68 404,68 405,68 406,68 406,68 405,69 405,70 405,71 406,71 406,72 407,73 409,74 410,75 413,77 417,79 410,83 410,83 407,83 406,83 400,87 400,88 397,93 396,93 386,97 387,97 387,97 396,104 401,107 410,114 424,125 424,126 425,126 425,126 420,129 420,129 421,130 421,130 421,130 413,135 413,135 408,131 407,131 406,132 405,133 404,134 393,141 393,141 403,148 408,151 409,151 410,151 413,152 417,152 418,151 419,151 419,151 417,152 414,152 417,154 417,154 421,156 421,157 427,161 427,161 427,162 427,162 426,162 426,162 429,164 433,167 434,168 434,168 434,168 434,169 433,169 436,172 437,172 437,173 438,173 440,174 440,174 440,174 433,181 433,181 433,181 433,182 434,182 434,182 437,180 441,175 446,169 446,169 441,176 438,179 433,184 433,185 433,185 441,188 440,189 440,189 440,189 447,193 448,193 451,191 454,193 458,194 454,198 451,202 451,202 451,202 458,205 460,207 462,208 464,209 466,210 468,212 471,214 471,214 471,214 467,216 467,216 472,221 472,221 472,221 472,221 470,223 470,223 470,223 472,224 474,227 475,227 478,228 485,231 489,233 489,233 480,236 480,236 486,238 491,241 491,241 491,241 491,241 491,242 492,242 495,243 495,243 493,244 493,245 492,245 492,245 489,247 489,247 489,247 490,248 491,248 491,248 491,249 491,250 490,250 490,251 490,251 489,251 486,254 485,254 485,254 485,255 485,256 484,258 484,258 484,259 484,259 484,259 484,259 487,261 492,264 492,264 492,264 494,265 494,265 492,266 488,268 488,268 488,269 488,269 488,269 494,269 495,269 494,275 494,275 494,275 492,276 489,277 485,279 483,280 482,279 480,281 476,282 471,284 475,289 475,289 475,289 474,289 471,291 471,292 470,292 469,292 465,293 463,294 463,294 462,294 461,294 461,295 460,295 460,296 458,299 458,299 458,299 458,300 461,303 466,307 467,308 467,308 467,309 469,315 469,315 470,315 470,315 469,316 469,316 470,317 470,317 470,317 470,318 470,318 470,319 470,320 470,320 470,321 470,323 471,324 471,325 471,325 471,326 471,326 471,326 471,326 470,326 469,327 469,327 469,327 469,328 469,328 470,329 474,332 477,334 478,335 479,336 480,338 481,338 483,341 486,344 486,345 494,345 494,345 495,345 495,345 495,345 494,346 494,346 494,346 494,347 495,347 494,347 494,348 494,348 494,348 494,348 494,349 494,349 494,349 494,350 494,351 493,352 492,353 492,353 492,353 493,354 493,354 492,354 492,355 490,356 490,356 491,356 491,356 491,357 491,357 491,357 491,358 491,358 491,358 492,359 492,359 492,359 491,359 491,360 491,360 492,360 492,361 493,361 496,362 497,363 497,363 497,363 497,363 498,363 499,363 500,367 500,367 499,368 498,368 489,367 488,367 476,365 474,365 467,363 467,363 465,361 460,359 453,355 451,353 445,348 441,345 440,345 439,344 438,344 435,343 433,342 431,342 428,342 425,341 424,341 420,342 418,342 414,342 412,343 409,344 406,345 402,347 398,349 392,352 392,352 390,355 388,357 386,358 385,360 384,362 384,363 383,365 383,366 382,368 382,369 382,370 382,374 383,375 383,377 383,379 384,381 384,383 385,384 385,384 386,386 387,386 386,387 386,388 385,390 384,392 381,395 379,397 375,400 370,404 356,410 355,410 345,415 332,421 326,417 323,415 322,414 319,412 318,410 316,409 315,408 314,406 314,406 314,406 314,405 315,405 315,405 315,405 315,405 314,404 314,404 314,404 314,404 313,404 313,404 312,404 312,404 312,404 311,404 311,403 310,403 310,403 307,400 304,398 303,398 302,397 301,396 301,396 301,396 300,395 301,395 301,395 301,395 300,395 300,394 300,394 300,394 300,394 299,394 299,394 300,394 300,393 300,393 301,392 302,391 302,391 302,390 303,388 304,387 304,387 304,386 304,385 305,384 305,384 305,383 305,382 305,381 305,381 305,380 305,379 304,378 304,377 304,376 303,374 302,372 301,371 301,370 301,369 300,368 300,368 297,361 297,358 296,356 296,355 296,355 295,352 295,351 295,351 295,349 295,349 294,347 294,346 294,345 294,345 294,344 293,344 293,344 293,344 293,343 292,342 292,342 291,342 291,341 290,341 290,341 288,341 287,341 287,342 287,343 287,343 287,344 287,344 289,344 290,345 290,345 290,345 289,347 286,351 286,352 285,354 284,355 284,356 283,357 282,358 282,358 277,356 275,355 275,355 275,355 274,355 274,355 274,355 274,354 274,354 274,354 273,354 273,354 273,354 273,354 273,354 273,353 272,353 271,351 270,350 269,350 269,350 268,349 267,347 267,347 266,346 265,345 265,345 264,344 262,343 261,342 261,342 260,341 260,341 260,340 260,340 260,339 260,338 260,337 260,337 260,337 260,337 260,336 260,336 260,335 260,335 261,333 261,331 261,330 262,329 262,329 262,329 262,329 262,328 262,328 262,328 261,328 261,328 260,328 252,335 238,345 230,352 230,352 216,363 217,361 218,360 219,359 219,358 220,357 220,356 219,355 219,354 219,353 218,352 217,352 216,351 214,350 213,350 213,349 212,349 211,348 211,347 211,347 210,347 210,346 210,346 210,345 209,343 209,341 209,341 208,340 208,340 206,339 205,338 204,337 202,336 200,336 199,336 198,336 197,336 195,336 194,336 193,336 193,336 192,337 191,337 190,338 189,339 188,340 187,339 186,341 186,342 185,343 185,344 184,344 184,344 184,345 183,346 183,346 183,346 183,347 181,349 179,348 179,348 179,348 179,348 178,348 178,348 177,347 177,348 176,349 175,349 174,349 174,350 173,350 173,350 172,349 172,349 172,349 171,349 171,349 171,349 171,349 170,349 170,349 170,349 169,349 169,348 169,348 168,348 168,348 168,348 168,348 168,348 167,348 167,348 167,348 167,347 167,347 166,347 166,347 166,347 166,348 166,348 166,348 166,348 165,348 166,348 166,348 165,348 165,349 165,349 165,349 165,349 165,349 165,349 165,349 165,349 165,349 165,349 165,349 165,350 165,350 165,350 165,350 165,350 165,350 165,350 165,350 165,350 164,350 164,350 164,350 164,350 164,350 164,350 164,350 164,350 163,350 163,350 163,350 162,350 161,349 161,349 161,349 161,349 161,349 161,349 161,349 161,349 161,348 161,348 161,348 161,348 161,348 161,347 161,347 162,347 162,346 162,346 163,346 163,345 163,345 163,345 164,345 164,344 165,344 165,344 165,344 166,344 166,344 166,343 166,343 165,343 164,343 164,343 163,343 163,343 161,342 159,342 158,341 157,341 155,341 155,341 155,341 153,340 153,340 153,340 152,340 152,340 151,340 150,340 148,339 148,339 147,339 146,339 146,339 145,338 144,338 144,338 142,338 140,337 138,337 138,337 138,337 137,337 137,337 136,336 136,336 136,336 135,336 134,336 133,336 133,336 133,336 133,336 132,336 130,335 128,335 128,335 128,335 127,335 126,334 125,334 123,334 123,334 121,334 121,333 120,334 120,334 120,334 119,334 118,334 118,334 117,333 116,333 115,333 114,333 113,333 113,333 113,333 113,333 112,333 112,333 112,333 110,332 109,332 108,332 107,331 106,331 105,331 104,330 103,330 102,330 102,330 101,330 101,329 100,329 100,329 99,329 98,329 97,329 97,328 97,328 97,328 96,328 95,328 95,328 95,328 94,328 94,327 93,326 92,325 92,325 92,325 92,324 92,324 92,324 91,324 90,323 90,323 89,322 89,323 90,326 88,326 87,325 84,325 83,324 81,324 79,323 78,323 76,322 75,322 74,322 72,321 72,321 72,321 71,321 70,321 70,321 70,321 70,320 69,320 69,320 68,319 67,319 66,318 65,318 64,318 64,318 63,318 63,317 62,317 62,317 61,317 61,317 60,316 60,316 60,316 59,316 57,315 56,315 56,315 56,315 55,315 54,314 53,314 53,314 53,314 53,314 52,313 51,313 50,312 50,312 50,312 50,312 49,312 49,312 48,311 47,311 46,310 45,310 44,309 41,308 40,307 36,304 34,303 31,301 27,298 26,298 24,296 21,294 19,293 16,291 15,290 13,289 12,288 13,288 13,288 15,288 15,287 17,287 20,286 20,286 21,285 23,284 25,283 26,282 31,280 32,279 36,276 37,275 37,275 36,271 36,269 42,269 42,269 43,269 43,269 44,269 45,269 48,269 48,268 48,267 48,265 49,264 48,264 47,263 45,263 43,263 39,263 38,263 38,263 37,263 37,263 36,263 36,263 34,263 31,263 30,263 28,263 28,263 26,263 25,262 23,262 22,262 22,262 22,262 22,262 21,261 20,261 21,260 21,259 21,259 22,258 22,258 22,257 21,256 21,255 21,255 21,255 21,254 19,254 17,253 15,252 13,252 11,251 10,251 10,251 8,250 8,250 12,247 14,246 14,246 10,243 11,241 13,239 13,238 13,238 14,237 15,235 15,235 16,233 16,233 17,231 17,227 17,222 17,216 17,214 18,214 18,213 19,212 19,212 18,211 19,209 20,209 20,209 19,207 17,206 20,204 22,202 23,201 23,200 23,199 22,199 21,198 20,197 20,196 21,194 23,193 23,193 23,193 22,193 21,193 20,192 13,191 5,189 1,188 1,188 1,184 1,182 1,180 1,180 1,179 2,178 3,177 4,176 5,174 6,173 7,170 7,170 2,167 1,167 0,166 0,165 1,165 1,165 1,165 2,162 3,159 4,157 5,157 5,156 5,156 6,156 7,156 7,156 7,155 7,155 7,155 7,155 9,155 9,155 9,156 9,156 10,156 10,156 10,156 11,156 11,156 11,156 12,156 12,156 12,156 13,155 13,155 13,155 13,155 14,156 14,156 14,156 14,156 14,156 14,156 15,156 15,157 15,157 15,157 16,157 17,157 17,157 17,156 17,156 18,156 18,156 18,156 19,155 19,155 19,155 20,155 20,155 20,155 21,155 21,155 21,154 21,154 22,154 22,154 22,153 23,153 23,153 23,153 24,153 25,152 25,152 26,152 26,151 26,151 26,150 25,149 24,149 24,148 24,148 24,147 24,147 24,147 25,147 26,146 26,146 26,146 27,146 27,146 28,146 28,146 29,146 29,146 30,147 30,147 30,147 30,148 31,148 31,148 31,148 32,148 33,149 34,149 35,150 36,150 37,151 40,151 42,152 43,152 44,152 45,153 46,153 47,154 47,154 48,154 48,154 49,154 50,154 51,154 52,154 52,154 53,154 53,153 54,153 54,153 55,154 55,153 56,153 56,154 57,154 57,154 57,154 58,154 58,154 58,154 58,153 58,153 59,153 59,153 60,153 61,153 61,153 62,153 63,152 65,152 66,152 67,151 69,151 70,150 70,150 71,150 71,150 72,150 73,150 72,148 71,146 71,146 71,145 71,144 70,140 69,140 70,139 71,138 71,137 72,136 72,136 72,136 72,135 71,135 72,134 72,132 73,131 73,130 78,130 79,130 81,131 83,131 84,131 85,131 85,131 86,131 86,131 88,131 89,132 89,132 90,132 90,132 90,132 91,131 93,130 94,129 95,128 96,127 97,127 101,127 101,125 101,125 102,124 102,124 103,123 103,123 104,121 104,121 104,120 104,120 105,121 106,121 108,121 110,122 112,123 118,124 118,125 119,125 120,125 121,126 122,126 123,126 123,127 124,127 126,127 127,127 128,128 128,128 130,127 134,126 135,125 137,125 138,125 138,124 139,122 140,121 140,120 142,119 137,110 139,109 140,108 140,107 140,106 140,103 140,102 140,101 140,101 140,99 140,98 140,97 140,97 139,95 139,94 139,93 139,93 137,91 137,91 137,91 135,89 132,86 129,83 128,81 128,81 128,81 128,80 127,78 127,77 127,76 128,75 129,74 130,74 132,72 132,72 134,71 135,70 136,70 136,70" id="7105" class="canton" fill="steelblue" stroke-width="1" stroke="white" geotype="canton" geoname="Chalon-sur-Saône-1" code_insee="7105" code_departement="71" nom_departement="Saône-et-Loire" code_region="27" nom_region="Bourgogne-Franche-Comté"/></svg>