<?xml version="1.0" encoding="utf-8"?>
<svg version="1.1" id="svgmap" xmlns="http://www.w3.org/2000/svg" xmlns:xlink="http://www.w3.org/1999/xlink" x="0px" y="0px" width="100%" height="100%" viewBox="0 0 500 363">
<polygon points="139,68 139,68 139,68 139,68 140,67 140,67 140,67 140,67 141,67 141,67 142,66 142,66 142,66 142,66 142,66 142,66 142,65 142,65 142,65 142,65 141,65 141,65 141,65 141,64 141,64 141,64 141,64 141,64 142,64 142,64 142,64 142,63 143,63 143,63 143,63 143,63 143,63 143,63 143,63 143,63 142,62 142,62 142,62 142,62 142,62 142,61 142,61 142,61 143,61 144,61 144,60 144,60 144,60 144,60 145,60 146,60 146,60 146,60 146,60 146,61 146,61 147,61 147,62 148,62 148,62 148,63 148,63 149,63 149,63 150,63 151,62 151,62 152,62 152,62 153,62 153,62 154,62 155,62 155,62 155,63 156,63 156,63 156,63 156,63 156,63 156,64 156,64 157,64 157,64 158,65 158,65 159,65 160,66 160,66 161,66 161,66 161,66 161,66 162,66 162,66 163,66 164,66 164,66 164,66 165,67 165,67 164,68 164,68 166,68 166,68 166,69 166,69 166,69 166,70 166,70 166,70 166,70 166,70 165,70 165,70 165,70 165,71 165,72 165,72 165,72 167,73 168,73 168,73 170,73 170,73 171,73 171,73 171,74 171,74 171,74 171,74 171,75 171,75 171,75 170,75 170,76 170,76 170,76 170,76 170,77 170,77 170,77 170,77 171,77 171,77 171,77 173,76 173,76 175,76 175,76 175,77 176,78 176,78 176,78 176,79 176,79 177,78 177,79 178,79 179,79 179,79 176,83 176,84 176,84 176,84 173,88 173,88 173,88 174,89 175,89 175,89 176,89 176,89 177,89 177,89 177,89 180,90 180,90 181,90 182,90 183,91 184,91 184,91 185,91 186,92 188,93 189,93 189,93 190,93 191,93 192,93 192,93 192,94 192,94 192,94 192,94 192,94 193,95 193,95 194,95 195,96 195,96 197,97 201,100 202,100 203,100 203,100 203,99 203,99 203,99 203,99 203,99 203,99 203,98 203,98 203,98 203,97 204,97 204,97 205,96 205,96 205,96 205,96 205,96 205,96 206,96 206,96 206,96 206,96 207,97 207,97 207,97 207,97 207,97 207,97 207,97 207,97 208,97 208,97 208,97 209,97 209,97 210,97 211,97 211,97 211,97 211,97 211,97 211,97 211,97 211,97 211,97 211,96 211,96 211,95 212,94 212,93 212,93 212,92 212,91 212,89 212,87 212,86 213,85 213,84 213,84 213,84 213,84 213,83 213,83 213,82 214,81 214,81 214,80 214,80 214,80 214,79 215,78 215,78 215,78 215,77 214,77 214,76 213,76 213,76 213,75 213,75 214,75 214,74 215,74 215,74 215,74 215,73 215,73 215,72 215,72 215,72 216,71 216,71 216,70 216,70 217,70 217,70 217,69 217,69 217,69 217,69 217,68 217,68 217,67 217,66 216,65 216,65 216,65 216,64 216,63 216,63 216,62 215,61 215,61 215,60 215,59 215,58 215,57 214,57 214,56 214,55 214,54 213,52 214,52 214,52 214,52 214,52 215,52 217,52 218,52 218,52 219,52 219,52 219,51 219,51 219,50 220,50 220,49 221,49 221,48 222,48 222,47 223,46 223,45 224,45 224,44 224,44 224,43 224,42 224,42 224,41 225,40 219,39 217,39 214,39 214,38 214,37 214,37 213,37 213,36 213,36 213,36 213,36 213,36 213,35 213,35 213,35 213,34 213,34 213,33 213,32 213,32 212,32 212,31 212,31 212,30 212,30 213,30 213,30 213,29 213,29 214,29 214,29 215,29 215,29 216,28 216,28 216,28 217,27 217,27 217,27 218,27 219,26 219,26 219,26 219,26 220,27 220,27 220,27 221,28 222,28 222,27 223,28 224,28 225,29 226,29 228,28 231,27 230,27 230,26 230,26 230,25 230,25 230,25 230,25 231,25 231,25 231,24 232,24 232,24 232,24 233,24 234,24 234,23 233,23 233,22 232,22 232,22 233,22 233,21 232,21 232,21 232,21 232,21 232,21 232,21 231,21 230,21 230,21 231,20 230,20 229,21 228,21 227,21 227,21 227,21 227,21 227,20 228,20 229,19 230,19 230,19 230,19 231,18 230,18 230,17 233,17 233,17 233,16 233,15 233,15 233,14 233,13 233,13 234,13 234,13 234,13 235,12 235,11 235,10 233,10 233,8 233,7 234,6 234,4 235,3 237,1 238,1 238,0 238,0 239,1 239,1 239,2 240,3 240,3 240,4 241,5 242,6 242,7 242,9 243,9 243,10 244,10 244,10 245,10 246,10 246,11 247,10 247,10 247,10 247,10 247,10 247,9 248,9 249,9 248,8 250,7 250,6 250,6 251,6 251,6 252,8 252,8 252,8 253,8 253,8 253,8 253,8 254,8 254,8 254,8 254,7 255,6 256,6 255,6 254,5 255,5 256,5 256,4 256,4 256,4 256,3 256,3 256,2 256,2 257,2 257,2 257,1 258,1 259,0 260,0 260,0 260,0 261,1 262,1 262,2 263,2 263,2 264,3 264,4 264,4 264,4 264,4 264,4 264,4 264,4 265,5 265,5 266,5 266,5 266,5 266,5 267,6 267,6 267,6 267,6 267,6 267,6 268,7 268,7 268,7 268,7 269,7 269,7 269,7 269,7 269,8 268,8 268,8 269,8 269,8 269,8 268,8 268,8 269,8 269,8 269,8 270,8 270,8 270,8 270,8 270,8 271,8 271,8 271,9 271,8 271,8 271,8 271,9 271,9 272,8 272,8 272,9 271,9 271,9 272,10 272,10 272,11 272,11 272,11 273,11 273,11 275,12 275,12 275,12 276,12 276,13 276,12 276,13 277,13 277,13 277,13 277,14 276,13 277,14 277,14 277,14 278,15 278,15 279,15 278,15 278,15 277,16 277,16 277,16 276,17 276,17 276,17 276,17 277,18 276,18 276,19 276,19 277,19 278,19 278,19 279,19 280,20 280,20 280,20 279,20 278,21 277,20 278,20 278,20 277,20 276,20 276,20 276,20 276,20 276,20 276,20 276,20 276,20 277,21 277,21 277,21 277,21 278,21 278,21 278,21 279,22 278,22 277,22 277,22 276,22 276,23 278,24 279,24 280,25 280,25 280,25 281,25 281,25 282,26 282,26 283,26 284,26 284,27 284,27 285,27 285,28 285,29 285,30 285,30 284,31 283,32 282,32 282,33 282,33 282,33 282,33 281,34 281,34 281,35 281,35 282,36 282,36 282,37 282,37 282,38 282,38 282,39 282,39 282,39 282,39 282,40 282,40 282,40 282,40 282,41 282,41 282,41 282,41 283,42 283,42 283,42 283,42 284,42 285,42 286,41 286,41 287,41 288,41 288,40 289,40 289,40 290,40 290,40 291,40 292,40 292,40 293,40 294,40 294,41 295,41 295,41 296,41 296,41 296,41 298,40 299,40 300,40 300,39 300,39 301,39 301,39 301,39 302,38 303,38 303,38 303,37 304,37 304,36 304,36 304,36 304,35 305,35 305,35 305,34 306,34 306,34 306,34 307,33 307,33 307,33 307,33 308,33 308,33 308,32 308,32 308,32 309,31 309,31 309,31 309,31 310,31 310,31 310,31 310,31 311,31 311,30 311,30 311,30 312,30 312,30 312,30 313,31 313,31 313,31 313,31 314,31 314,31 314,31 315,31 315,30 315,30 316,30 316,29 315,29 316,29 315,29 315,28 316,28 316,27 316,27 316,27 317,27 317,27 316,27 316,27 316,27 316,27 316,27 317,26 317,26 317,26 317,26 316,26 316,25 317,25 317,25 318,24 319,23 322,21 321,21 321,21 322,20 322,20 322,20 322,19 323,19 323,19 323,18 323,18 323,18 323,17 322,16 322,16 322,16 321,16 321,15 321,15 321,15 321,15 321,14 321,14 320,13 321,13 321,13 321,13 321,13 321,13 321,12 321,12 322,12 322,12 322,10 323,11 324,10 324,10 324,10 325,10 325,9 325,8 326,7 329,7 330,8 331,8 331,8 332,8 332,8 333,8 333,8 333,8 333,8 333,9 333,9 334,9 334,9 335,11 336,12 336,12 336,12 337,12 337,12 338,12 338,12 338,12 339,13 339,13 340,14 341,14 341,14 341,14 341,14 341,14 342,14 342,14 343,14 343,15 343,15 343,15 343,15 344,15 344,15 344,15 344,15 345,14 345,14 345,14 345,14 345,14 346,14 346,13 346,13 346,13 346,13 346,13 346,13 346,13 346,12 346,12 347,12 347,12 347,12 347,12 347,12 349,11 349,11 349,11 349,11 349,11 350,11 350,11 350,11 351,10 351,10 352,10 352,10 352,10 354,9 355,9 356,8 357,8 357,8 357,9 358,10 358,10 358,10 358,11 358,11 359,12 359,12 359,12 359,12 360,13 360,13 361,14 361,14 361,14 361,15 361,15 361,15 362,15 362,15 362,15 364,15 364,15 365,15 367,15 367,15 368,15 368,15 368,15 369,15 369,15 368,15 368,16 368,16 368,16 368,16 367,16 367,17 367,17 367,17 367,17 368,17 368,17 368,17 368,17 369,17 369,17 369,17 369,17 370,17 370,17 370,17 371,17 371,17 372,17 372,17 372,17 372,18 372,18 372,18 372,18 372,18 372,19 371,19 371,19 371,19 371,19 371,19 371,20 370,20 370,20 370,20 370,21 370,21 370,21 370,22 370,22 370,22 370,22 370,23 370,23 370,23 370,23 370,23 370,24 370,24 370,24 370,25 369,25 369,25 369,26 369,26 370,26 370,26 370,26 370,26 370,26 370,27 370,27 370,27 370,27 370,27 370,28 370,28 370,28 369,28 369,29 368,29 369,29 368,30 368,30 368,31 367,32 366,32 366,31 365,32 365,32 365,32 366,32 366,33 367,33 368,34 368,34 369,35 369,35 369,36 368,36 368,36 367,36 367,37 367,37 367,37 367,37 367,37 367,37 367,37 366,38 366,38 366,38 365,39 365,39 365,40 365,40 365,41 365,41 365,41 364,42 364,42 364,42 364,43 364,43 364,43 364,44 364,44 364,44 364,44 364,44 364,44 363,45 363,45 363,45 363,45 363,45 362,45 362,46 362,47 362,47 362,47 362,47 362,47 362,47 361,48 360,48 360,48 359,49 360,49 360,50 360,51 360,51 361,51 361,51 361,51 362,53 364,55 366,57 368,59 368,59 369,59 369,59 369,59 369,59 370,60 373,61 374,61 375,62 377,63 379,63 381,64 385,66 387,66 389,67 389,67 390,68 390,68 392,69 395,70 396,70 401,72 402,72 404,73 411,76 418,79 418,79 418,79 419,80 419,80 419,80 417,81 417,81 416,81 416,81 417,81 418,81 418,81 419,82 419,82 419,82 419,82 419,83 419,83 419,83 419,83 420,83 420,83 422,84 422,84 423,84 423,83 424,82 424,82 424,82 424,82 424,82 424,81 424,81 424,81 424,81 425,80 424,80 424,80 424,80 425,80 425,80 425,80 425,80 425,80 426,81 426,81 427,81 428,81 428,81 428,81 428,81 429,81 429,82 429,82 429,82 429,82 429,82 429,82 429,82 429,82 431,83 432,83 432,84 435,85 435,85 436,86 437,86 437,86 438,87 438,87 439,87 439,88 440,88 442,89 442,89 442,90 443,90 444,90 444,90 444,90 444,91 445,91 445,91 446,91 447,92 447,92 447,92 447,92 447,92 447,92 447,92 448,92 448,93 448,93 448,93 449,93 449,93 450,93 459,97 461,97 461,97 461,96 462,96 462,95 462,95 462,95 462,95 463,95 463,95 463,94 463,94 463,94 463,94 464,93 465,93 466,92 466,92 466,91 467,91 467,91 467,91 467,91 468,91 469,92 469,92 469,92 469,91 469,91 469,91 469,91 470,91 470,91 470,91 471,91 471,92 472,92 473,92 473,93 474,93 475,93 475,94 476,94 476,95 476,95 476,95 477,95 477,95 477,95 477,95 477,95 477,96 478,96 478,96 478,97 478,97 478,97 476,98 477,98 477,98 477,98 476,98 477,99 477,99 477,99 478,98 479,98 479,98 480,98 480,98 480,98 480,98 480,99 480,99 480,99 480,99 479,99 488,100 488,100 488,100 488,100 488,100 488,100 488,100 489,100 489,100 490,100 490,101 490,101 491,101 491,101 491,101 492,101 492,101 492,101 492,101 492,101 493,101 493,102 493,102 493,102 493,103 493,103 493,104 493,104 494,103 494,104 494,104 494,104 494,104 494,104 494,104 494,105 494,105 494,105 494,106 494,106 494,106 494,106 494,107 494,107 494,107 494,107 494,107 493,107 493,107 493,108 493,108 493,108 493,108 492,108 492,108 493,109 493,109 493,109 493,110 493,110 493,110 493,111 493,111 493,111 493,111 493,111 493,112 492,113 492,113 492,114 492,115 492,116 492,116 492,116 492,116 492,116 492,117 492,117 492,117 492,118 491,118 490,119 490,119 490,119 490,119 489,120 489,120 489,120 489,121 488,121 488,121 487,122 487,122 486,122 486,123 485,124 485,124 485,124 484,125 484,125 482,126 481,127 480,127 479,129 478,130 477,131 476,132 476,132 476,132 476,132 476,133 476,133 476,133 476,133 476,133 476,133 476,133 476,133 476,133 476,133 476,133 476,134 476,134 476,134 476,134 476,135 476,135 476,135 478,135 479,135 479,135 479,135 479,135 479,135 479,135 479,135 479,136 479,136 479,136 479,136 480,136 480,136 480,137 481,137 481,137 482,138 482,138 482,138 482,138 482,138 482,138 482,139 482,139 483,139 483,139 483,139 483,139 483,139 483,139 483,139 484,139 484,140 484,140 484,140 484,140 484,141 484,141 485,141 485,141 486,142 486,142 486,142 486,142 486,142 486,142 487,143 487,143 487,143 487,143 487,143 488,143 488,143 488,143 488,143 489,143 489,143 489,143 490,143 490,143 490,143 491,143 491,143 491,143 492,143 492,143 492,144 492,144 492,144 492,144 492,144 493,144 494,144 494,144 494,144 494,144 494,144 494,144 494,145 495,145 495,146 495,146 495,146 496,146 496,146 497,146 498,147 498,147 498,148 498,148 498,148 498,149 498,149 498,149 498,149 498,149 498,149 498,149 498,149 499,150 499,150 499,150 499,150 499,150 499,151 499,151 499,151 499,151 499,151 499,151 499,151 499,152 500,152 500,152 500,152 500,152 500,153 500,153 500,153 500,153 500,154 500,154 500,154 500,155 500,155 500,155 500,155 499,155 499,155 499,155 499,155 499,156 499,156 499,156 499,157 499,157 499,157 499,157 499,157 499,158 499,158 499,158 499,158 499,159 498,159 498,159 498,159 498,159 498,159 498,159 497,160 497,160 497,160 497,160 497,160 497,161 497,161 497,161 496,161 496,162 496,162 496,162 496,163 496,163 496,163 496,163 496,164 496,164 495,164 495,164 495,164 495,164 494,164 494,165 494,165 493,165 492,165 492,165 492,165 491,165 491,165 491,166 491,166 490,166 490,167 490,167 490,167 490,168 489,168 489,168 489,169 488,169 488,169 488,169 487,169 487,169 487,169 487,168 486,168 486,168 486,168 486,168 486,168 485,168 485,168 484,168 484,167 484,167 483,167 483,167 483,167 483,167 483,166 482,166 482,166 482,166 482,166 482,166 482,165 483,164 482,164 480,163 478,162 478,162 478,162 476,162 476,162 476,162 476,162 476,162 476,163 476,163 476,163 476,163 476,163 476,163 476,163 476,163 476,163 476,164 476,164 476,164 476,164 476,164 476,165 476,165 476,165 476,165 477,165 477,165 477,165 477,165 477,165 476,165 476,165 476,166 477,166 476,166 476,166 476,166 477,166 477,166 477,166 477,167 477,167 477,167 477,167 477,167 477,167 477,167 475,167 475,167 476,167 476,168 476,168 476,168 476,169 476,169 476,169 476,170 476,170 478,171 479,171 480,172 480,172 482,172 482,172 482,172 482,173 482,173 482,173 482,173 482,173 482,174 482,174 482,174 483,174 483,174 484,174 484,174 484,174 485,174 485,175 485,175 485,175 485,176 485,176 485,176 485,176 485,176 485,177 485,177 485,177 485,177 485,178 485,179 485,179 485,179 485,179 485,179 485,179 485,180 485,180 485,180 484,180 484,180 484,180 484,180 484,180 484,180 484,180 484,180 484,181 484,181 484,181 484,181 484,181 484,182 484,182 484,182 484,182 484,182 484,183 484,183 484,183 484,183 484,183 483,184 484,184 484,184 484,184 484,184 485,184 484,185 484,186 484,186 484,186 484,187 484,187 484,187 484,187 483,187 484,187 484,187 484,187 484,188 484,189 485,189 486,190 486,190 486,190 486,191 486,191 487,191 487,191 487,191 487,191 487,191 487,191 488,191 488,191 488,192 488,192 488,192 488,192 487,192 486,192 484,193 484,193 483,193 482,193 482,193 482,194 482,194 481,194 481,194 481,194 481,194 480,195 480,195 480,195 479,195 478,195 478,195 478,195 477,195 477,195 477,195 477,195 477,196 476,196 477,196 477,196 478,196 478,197 478,197 478,197 478,198 477,198 477,198 477,199 477,199 478,200 478,200 479,201 480,202 480,202 481,202 481,203 481,203 481,203 481,203 481,203 481,203 481,203 481,203 480,203 480,203 480,203 480,203 480,204 480,204 480,204 480,204 480,204 480,205 480,205 480,205 480,205 480,206 480,206 479,206 479,207 479,207 479,207 479,207 479,207 479,208 479,208 479,208 479,208 478,209 478,209 478,209 478,210 477,210 477,210 477,210 477,210 477,210 477,211 477,211 477,211 477,211 477,211 477,212 476,212 476,212 476,212 476,213 476,213 476,213 476,213 475,213 475,213 475,214 475,214 475,214 475,214 475,214 475,214 475,214 475,214 476,215 476,215 476,215 476,215 476,215 476,215 476,215 476,215 476,216 476,216 476,216 476,216 476,216 476,217 476,217 476,217 477,217 477,217 477,218 476,218 476,219 476,219 476,219 476,220 476,220 476,220 476,220 476,221 476,221 476,221 476,222 476,222 476,222 476,222 476,223 476,223 476,224 475,224 475,226 474,227 474,227 474,227 474,227 474,227 475,228 475,228 475,228 475,228 475,229 475,229 475,230 475,230 475,231 474,232 474,234 474,234 474,234 473,234 472,234 472,234 470,234 468,233 467,233 466,233 464,233 463,233 460,234 460,234 460,234 460,234 460,235 459,235 459,235 458,235 458,236 457,236 457,236 456,237 458,237 458,237 458,237 458,237 458,238 458,238 460,239 460,240 460,240 460,241 460,241 460,241 460,241 460,242 459,242 459,243 458,244 458,244 458,244 457,245 456,245 456,245 456,246 456,246 456,246 456,247 456,247 456,247 456,248 456,248 456,248 455,248 455,248 455,248 454,248 454,249 454,248 453,248 453,248 453,248 453,248 452,248 452,247 451,247 451,247 450,247 450,246 450,246 450,246 449,246 449,246 449,246 448,247 448,247 448,247 448,247 447,247 447,247 447,247 447,247 447,248 447,248 446,248 446,248 446,248 445,248 445,248 445,249 444,249 444,249 444,249 443,249 443,250 443,250 443,250 442,250 442,250 442,250 441,250 441,250 441,250 441,250 440,250 440,250 440,250 440,250 440,251 440,251 440,251 440,251 440,251 440,251 439,251 439,251 440,251 440,252 440,252 440,252 440,252 440,252 440,253 440,253 441,253 441,253 441,253 442,254 442,254 442,254 443,255 443,255 443,255 443,255 444,255 444,255 444,256 444,256 445,256 445,256 445,256 445,257 446,257 446,257 446,257 446,257 446,258 446,258 445,258 445,258 445,258 444,258 444,258 444,259 444,259 444,259 444,259 444,259 444,259 444,259 443,259 443,259 443,259 442,259 442,259 442,259 441,259 441,259 441,259 441,259 440,259 440,260 440,260 440,260 440,260 440,260 440,260 440,261 440,261 440,261 439,261 439,261 439,261 439,261 439,261 439,261 438,262 437,262 437,262 437,262 437,263 437,263 436,263 436,263 436,263 436,263 435,262 435,262 435,262 435,262 435,262 435,263 435,263 435,263 435,263 435,263 435,263 435,263 434,263 434,264 434,264 434,264 434,264 434,264 434,264 434,264 434,264 434,264 434,264 434,264 434,264 434,265 434,265 434,265 434,265 434,265 434,265 434,266 434,266 434,266 434,266 434,266 434,266 434,266 434,267 435,267 435,267 435,267 435,267 435,267 435,267 435,267 436,267 436,267 436,267 436,267 436,266 436,266 436,266 437,266 437,267 438,267 438,267 438,267 439,267 439,267 439,267 439,267 439,268 439,268 439,268 440,268 440,268 440,268 440,268 441,268 441,268 441,269 441,269 441,269 442,269 442,269 442,269 442,269 442,269 442,269 442,269 442,270 442,270 442,270 442,270 442,270 442,270 442,270 442,271 442,271 441,271 441,271 441,271 441,271 441,272 441,272 441,272 441,272 441,272 441,273 441,273 441,273 441,273 441,273 441,273 441,273 441,273 441,274 441,274 441,274 441,274 441,274 441,274 441,274 441,274 441,274 441,274 441,274 441,275 441,275 441,275 441,275 441,275 441,275 441,275 441,275 441,275 441,275 441,275 441,276 441,276 441,276 440,276 440,276 440,276 440,276 440,276 439,276 439,276 439,276 439,276 438,276 438,276 438,276 438,276 438,275 438,275 437,275 437,275 437,275 437,275 436,275 436,275 436,275 436,275 436,275 435,275 435,275 435,275 435,275 435,275 434,275 434,275 434,275 434,275 433,275 433,275 433,275 433,275 433,275 433,275 432,275 432,275 432,275 433,275 433,275 433,275 433,275 433,274 433,274 433,274 433,274 433,274 433,274 433,274 433,274 433,274 433,274 433,273 433,273 433,273 433,273 433,273 433,273 433,273 433,273 433,273 433,272 433,272 433,272 433,272 433,272 433,272 433,271 433,271 433,271 433,271 433,270 433,270 433,270 433,270 433,270 433,270 433,270 433,270 433,269 433,269 433,269 433,269 433,269 433,269 433,269 432,269 432,269 432,269 432,269 432,268 432,268 432,268 432,268 432,267 432,267 432,266 431,266 431,266 431,266 431,266 430,266 430,266 430,266 429,266 428,266 428,266 428,266 428,266 427,266 427,266 427,266 427,266 426,266 426,266 426,266 426,266 426,266 425,267 425,267 425,267 425,267 425,267 425,267 425,267 425,268 425,268 425,268 425,268 425,268 425,268 425,268 424,268 424,269 424,269 423,269 423,269 423,269 423,269 423,269 423,269 423,270 422,270 422,270 422,270 422,270 421,270 421,270 421,271 421,271 420,271 420,271 420,271 420,271 420,271 420,271 420,271 420,272 420,272 420,272 420,272 420,272 420,272 420,272 419,273 419,273 419,273 419,273 419,273 419,273 419,273 419,273 419,273 419,274 418,274 418,274 418,274 418,274 418,274 418,275 418,275 419,276 419,276 420,277 420,277 421,278 421,279 420,279 420,279 420,280 420,280 420,281 420,281 420,281 419,282 419,282 419,282 419,283 419,283 418,283 417,283 418,284 417,284 416,284 416,284 416,284 415,284 414,284 414,284 413,284 412,285 411,286 410,287 410,287 410,288 410,288 409,289 409,289 408,289 408,290 408,290 408,290 408,291 408,293 408,293 408,293 408,293 407,293 407,293 407,293 407,293 407,293 406,293 406,293 406,293 404,295 404,295 403,296 402,296 402,296 402,296 401,297 401,297 401,297 401,297 401,297 401,297 400,297 399,298 399,298 399,299 398,299 397,300 397,301 397,301 397,301 397,301 397,302 397,302 397,303 397,303 397,303 396,304 396,304 395,305 395,305 395,306 395,306 394,307 394,307 394,307 394,308 393,311 393,311 393,312 392,313 392,313 392,314 392,315 392,315 391,317 392,317 392,318 392,318 392,318 392,318 393,318 393,318 393,319 394,319 395,319 395,319 395,319 395,319 396,319 396,319 396,319 396,319 396,319 396,320 396,320 395,321 395,321 395,321 395,321 395,322 395,322 394,323 394,324 394,325 394,325 394,325 393,325 393,325 393,326 393,327 393,328 393,329 393,330 393,330 393,331 393,331 393,333 393,333 393,334 393,335 393,335 393,336 392,337 392,337 392,337 392,337 392,337 392,337 392,338 392,338 392,338 392,338 392,339 392,340 391,340 391,340 392,341 392,341 392,341 392,342 392,342 392,343 392,343 392,343 393,343 393,343 393,344 393,344 394,344 394,344 394,345 394,345 394,345 394,345 394,346 394,346 393,346 393,346 392,347 392,347 392,347 391,347 391,348 391,348 391,348 391,348 391,348 391,348 390,348 389,348 389,348 388,348 388,348 388,348 388,348 387,348 387,348 387,347 387,347 386,347 386,346 385,345 385,345 385,345 385,345 385,345 385,345 385,345 385,345 385,346 385,346 385,347 385,347 386,347 386,347 386,347 386,348 385,348 385,348 385,349 385,349 385,349 384,349 384,349 384,349 384,349 383,349 383,349 383,349 383,349 383,349 383,349 383,349 383,349 383,349 383,349 383,349 382,349 382,350 381,350 381,350 381,350 381,350 381,351 381,352 381,352 381,352 381,352 380,352 380,352 380,352 379,352 378,352 378,352 378,351 378,351 378,351 378,351 378,351 378,351 378,351 378,351 378,350 378,350 378,350 378,350 378,349 378,349 377,349 377,348 376,348 376,348 376,348 376,348 376,348 375,348 375,348 375,348 375,348 375,347 375,347 374,347 374,347 374,347 373,346 373,346 373,346 372,346 372,346 373,346 373,346 373,346 373,346 374,346 374,346 374,346 375,346 375,346 376,346 376,345 376,345 376,345 376,344 375,344 375,344 375,344 375,344 375,343 375,343 375,343 375,343 375,343 375,343 375,343 375,342 375,342 375,342 375,342 375,342 375,342 375,342 375,342 375,342 375,341 375,341 375,341 375,340 375,340 375,340 375,340 375,340 374,340 374,340 374,340 374,340 374,340 374,340 374,339 374,338 374,338 374,338 374,338 374,338 374,338 374,338 374,338 374,338 374,338 374,338 374,337 374,336 373,336 373,336 373,336 373,336 372,336 373,335 373,335 372,335 371,335 371,335 371,335 371,335 371,335 371,335 370,335 370,334 369,334 368,334 368,334 367,333 367,333 366,333 364,332 363,331 362,331 361,331 361,331 361,331 361,331 361,331 361,331 360,331 360,331 360,331 360,331 360,331 359,331 359,331 359,331 359,330 359,330 359,330 359,330 359,330 358,330 358,330 358,330 358,329 358,329 358,329 358,329 357,328 357,328 357,328 357,328 357,328 357,328 356,327 356,327 356,327 355,326 355,326 355,326 355,326 354,326 354,326 354,326 353,326 353,326 353,326 353,325 352,325 352,325 352,325 349,324 349,324 349,324 348,324 348,324 348,324 348,324 348,323 348,323 348,323 347,323 347,323 347,323 347,322 346,322 346,322 346,322 346,322 346,322 345,322 339,319 336,322 336,322 336,322 335,322 335,322 335,323 335,323 335,324 335,324 336,325 337,326 339,328 339,328 338,328 338,328 338,328 338,329 338,329 340,330 341,331 339,335 338,335 339,335 339,335 339,335 339,335 339,335 339,335 339,336 339,336 339,336 339,336 339,336 339,336 339,337 339,337 339,337 340,337 340,337 340,337 341,337 341,337 341,338 341,338 341,338 342,338 342,338 342,338 343,339 343,339 343,339 343,339 343,339 344,339 344,339 345,339 345,339 346,339 346,340 346,340 346,340 346,340 346,340 346,340 346,341 346,341 346,342 345,342 345,342 345,343 345,343 345,343 345,344 345,344 345,344 345,344 345,345 345,345 344,345 344,345 344,346 344,346 344,346 344,348 344,348 344,349 344,349 344,349 344,350 342,350 342,350 336,351 336,351 336,351 336,351 336,351 336,352 336,352 336,352 336,352 336,353 336,353 335,353 335,353 334,352 334,352 334,352 334,352 334,352 334,352 334,352 333,352 333,351 333,351 333,351 333,351 333,351 332,351 332,351 332,351 332,351 331,351 331,351 331,351 331,350 331,350 330,350 330,350 330,350 330,350 330,350 329,350 328,351 328,351 327,350 327,350 326,349 326,349 326,349 326,348 326,348 325,349 324,349 324,349 324,349 324,349 324,349 324,349 324,350 324,350 324,350 324,350 324,350 324,350 324,350 324,351 324,351 323,351 323,351 324,350 324,350 323,350 323,350 323,349 323,349 323,349 323,349 322,348 322,348 322,348 322,348 322,348 321,348 321,348 321,348 321,347 320,347 320,347 320,347 320,347 320,347 320,347 320,347 319,347 319,347 319,347 319,346 318,346 318,346 318,346 318,346 318,346 317,346 317,346 316,346 316,346 316,346 316,346 316,345 315,345 315,344 315,344 314,344 314,344 314,344 314,344 314,345 314,345 314,345 314,345 313,345 313,345 313,345 313,345 313,345 313,345 313,345 312,345 312,344 312,344 312,344 312,344 312,344 312,344 311,344 311,344 311,344 311,344 311,344 311,344 311,345 311,345 311,345 311,345 311,346 311,346 311,346 310,347 310,347 310,347 309,347 309,347 309,347 308,347 308,347 308,347 308,347 308,347 308,348 308,348 308,349 308,349 308,349 308,349 308,349 308,349 307,349 307,349 306,349 306,349 306,349 306,350 306,350 306,350 306,350 306,350 306,350 305,350 305,350 305,350 305,350 304,350 304,350 304,349 303,349 303,350 303,349 302,349 302,349 301,349 301,349 301,349 301,349 300,349 299,349 298,349 297,349 297,349 297,349 297,349 296,349 296,349 296,349 296,349 295,349 295,349 295,349 295,349 294,349 294,349 294,350 294,350 294,350 293,350 293,350 293,350 292,350 292,351 292,351 292,351 291,351 291,351 291,351 291,352 291,352 290,352 290,352 291,352 291,352 291,352 290,353 290,353 290,353 290,353 290,353 290,353 289,353 289,353 288,354 288,354 288,354 287,354 287,354 287,354 286,354 286,354 285,354 285,354 285,354 285,354 285,355 285,355 285,356 285,356 285,357 285,358 284,358 284,358 284,359 284,359 284,359 284,359 284,360 284,360 284,360 283,360 283,360 283,361 283,361 283,361 283,361 282,361 282,361 282,362 282,362 281,362 281,363 281,363 281,363 280,363 280,363 278,362 277,362 277,362 276,363 275,363 275,363 275,363 274,363 274,363 274,363 274,363 273,362 273,362 273,362 272,362 272,362 272,362 272,361 271,361 271,361 271,361 271,361 270,361 270,361 270,361 270,361 270,361 269,361 269,361 269,361 268,362 268,362 267,362 267,362 267,362 266,362 266,362 266,362 266,362 265,362 265,361 264,361 264,361 264,361 265,361 265,361 266,360 266,360 266,360 266,360 267,359 267,359 267,359 266,359 266,359 266,359 266,358 265,358 265,358 265,358 264,359 263,359 263,359 263,359 263,359 262,359 262,359 262,359 262,359 262,359 262,358 262,358 261,358 261,358 261,358 261,357 261,357 261,357 261,357 261,357 261,357 262,357 262,357 262,357 262,357 263,357 263,357 263,357 263,357 263,357 264,357 264,357 264,357 265,357 265,357 266,357 266,357 266,357 267,357 267,357 267,357 267,357 267,357 268,357 268,357 268,357 268,357 269,357 269,357 269,357 269,357 269,357 270,357 270,357 270,357 270,356 271,356 271,356 271,356 272,356 272,356 272,356 272,356 271,356 271,356 271,356 271,356 271,356 270,356 270,356 269,356 269,356 269,356 268,356 266,356 265,356 265,356 265,356 265,356 264,356 264,356 263,356 263,356 262,356 262,356 262,357 262,357 262,357 262,357 261,357 261,357 261,356 260,356 260,356 260,356 259,355 258,356 257,357 256,358 256,358 255,358 255,358 255,358 254,357 254,357 254,357 254,357 254,357 254,356 253,356 253,356 253,356 253,356 253,356 253,356 253,356 253,356 253,356 253,356 253,356 253,356 253,356 252,355 252,355 252,355 252,355 252,356 252,356 251,356 251,355 251,355 251,355 251,355 251,355 251,355 251,355 251,355 251,355 251,355 251,355 251,354 251,354 251,354 251,354 251,354 251,354 251,354 251,354 250,354 250,354 250,354 250,354 250,354 250,354 250,354 250,354 249,354 249,354 249,353 249,353 248,353 248,353 248,353 248,353 247,353 247,353 246,353 245,353 245,353 245,353 244,352 244,352 244,352 243,352 243,352 243,352 243,352 242,352 242,351 242,351 242,351 242,350 240,350 241,350 241,349 241,349 241,349 241,349 241,348 241,349 240,349 240,349 240,349 239,349 239,349 238,349 238,349 237,349 237,349 236,348 236,348 235,348 235,347 234,347 234,347 233,347 233,347 232,346 232,346 231,346 231,346 231,346 231,346 231,346 230,346 230,346 230,346 230,346 230,347 229,347 229,348 229,348 228,349 228,349 228,349 228,349 228,349 228,349 227,349 227,348 227,348 227,348 227,348 226,348 226,348 226,348 226,348 225,348 225,348 225,348 225,347 225,347 225,347 225,347 225,347 224,347 224,347 224,347 223,348 223,348 223,348 223,348 223,348 223,348 222,348 222,347 222,347 222,347 222,347 221,347 221,347 221,347 221,347 221,347 221,347 221,347 221,347 221,347 221,347 221,346 221,346 221,346 219,346 219,346 219,346 219,345 220,345 219,345 219,345 219,345 218,345 218,345 218,345 218,345 218,344 218,344 217,344 217,344 217,345 216,345 216,345 216,345 216,345 216,344 216,344 216,344 216,344 215,343 215,343 216,343 216,343 215,343 215,342 214,342 214,342 214,342 214,342 214,342 214,342 214,342 213,341 213,341 213,341 213,341 213,341 213,341 213,341 213,341 212,341 212,341 212,341 212,341 212,341 211,340 211,340 211,340 210,340 209,340 209,340 209,340 209,340 208,340 208,340 208,340 208,339 208,339 208,339 208,339 207,339 207,338 207,338 207,338 207,338 207,338 206,338 206,338 206,338 207,338 207,337 208,337 209,337 210,336 210,336 210,336 213,333 213,332 213,332 213,332 213,332 213,332 213,332 213,332 213,332 212,331 212,331 212,331 211,331 211,331 208,332 208,332 208,332 207,332 207,332 207,332 207,331 207,331 205,331 205,331 205,332 205,332 201,332 200,332 200,332 197,331 197,331 196,331 195,331 195,332 195,332 195,332 195,332 194,332 194,332 193,332 193,332 194,331 194,331 194,331 194,331 194,330 194,330 194,330 194,330 194,330 195,329 195,329 195,329 195,329 195,329 195,329 195,329 195,329 195,328 195,328 195,328 195,328 196,328 196,328 196,327 196,327 195,328 195,328 194,328 194,328 194,329 194,329 194,329 194,329 193,329 192,329 191,330 191,330 191,330 191,330 191,330 190,330 189,329 189,328 189,328 188,329 188,329 188,329 187,329 187,329 187,329 187,329 186,329 186,329 186,329 185,328 185,328 185,328 185,328 185,328 185,328 184,327 184,327 184,327 183,327 183,327 182,328 182,328 182,328 181,328 181,328 181,328 181,328 181,328 181,328 180,329 180,329 180,329 180,329 180,329 180,328 180,328 179,328 178,328 178,328 178,328 178,328 178,329 178,329 178,329 177,329 177,329 177,329 176,329 176,329 176,330 176,330 176,331 176,331 176,331 176,331 175,331 175,331 175,330 175,331 175,331 174,330 174,330 174,330 174,330 173,330 173,330 173,330 173,330 173,329 173,329 172,329 172,329 171,329 171,329 171,329 170,329 170,329 170,329 169,329 169,329 168,329 168,329 168,328 168,328 168,328 168,328 168,329 167,329 167,329 167,329 168,329 168,329 168,329 167,331 167,332 167,332 167,332 167,332 165,332 165,332 165,332 165,332 165,333 165,333 166,333 166,333 166,333 166,334 166,334 166,334 166,334 165,334 165,334 165,334 165,334 165,334 164,334 164,335 164,335 163,334 163,334 163,334 163,333 163,333 163,333 164,333 164,333 163,333 163,332 162,332 163,331 163,332 164,332 164,332 164,331 164,331 165,331 165,331 165,330 165,330 165,330 165,330 163,330 163,330 163,330 162,331 162,331 161,331 161,331 161,331 161,331 162,332 162,332 162,332 162,332 162,332 161,332 161,332 160,332 160,333 160,333 159,332 159,332 158,333 157,333 157,333 158,334 158,334 158,334 156,335 156,335 156,335 156,336 156,336 156,336 155,336 155,336 154,336 154,336 153,336 152,336 152,336 152,336 152,336 151,336 150,335 149,335 148,334 148,333 148,332 148,332 148,332 148,331 148,331 148,331 147,331 147,331 147,330 146,330 146,330 146,329 145,329 145,328 145,328 145,327 145,327 145,326 145,326 145,326 145,325 145,325 145,325 145,324 145,324 145,323 145,323 145,322 145,322 145,322 145,323 144,323 144,323 142,323 142,322 142,322 142,322 142,321 142,321 142,321 141,321 141,320 141,320 142,320 142,319 143,319 143,319 144,319 144,318 144,318 144,318 144,318 143,318 143,318 142,318 142,317 142,317 142,317 142,317 142,317 141,317 141,317 141,317 141,317 141,317 141,317 140,317 140,317 140,317 139,316 139,316 138,317 137,316 137,316 137,316 137,316 136,316 136,316 136,316 136,316 135,316 131,315 131,315 131,315 131,315 126,314 126,314 126,314 126,314 124,313 123,313 123,313 123,313 123,312 121,311 120,311 120,311 120,310 120,310 120,310 120,310 120,310 119,310 119,310 119,310 118,310 117,310 117,310 116,310 116,310 115,310 115,310 115,310 115,310 115,310 114,310 113,310 113,310 113,310 112,310 112,310 112,310 111,310 111,310 110,310 110,310 110,310 109,310 109,310 109,310 109,310 109,310 108,310 108,310 108,310 108,310 108,310 107,309 107,309 106,308 106,308 106,308 105,306 105,306 105,306 105,306 104,305 103,304 101,301 101,301 101,301 101,301 100,301 98,300 98,300 98,299 98,299 98,299 98,299 98,299 98,299 98,298 98,297 98,296 97,295 96,295 96,295 95,295 95,295 95,294 95,294 95,294 95,294 96,294 96,294 96,294 96,294 96,294 97,294 97,294 97,293 96,293 96,293 96,293 95,293 95,293 95,293 95,293 94,292 94,292 95,292 95,292 95,292 97,293 97,293 97,293 97,292 98,292 98,292 97,292 97,292 97,291 97,291 97,291 97,291 97,290 98,291 98,291 99,290 99,290 100,290 100,290 101,290 102,290 102,290 102,290 102,289 102,288 102,287 101,287 101,286 100,286 100,286 100,286 100,286 100,286 98,284 97,284 97,284 98,284 98,284 98,284 98,284 98,284 98,284 98,284 98,284 98,284 98,284 98,284 99,284 99,283 99,283 99,283 100,283 100,283 100,283 100,282 101,282 101,282 101,283 101,283 101,283 102,282 102,282 101,282 101,282 101,281 101,281 101,281 102,280 102,280 102,280 102,280 103,280 103,280 104,280 104,280 104,280 105,280 105,280 105,280 106,280 106,280 107,279 107,279 106,279 106,279 105,279 105,279 105,279 105,279 105,278 104,277 104,277 104,277 104,276 104,276 104,276 103,276 103,276 103,275 103,275 105,274 105,274 105,274 105,274 106,273 107,273 107,273 106,273 107,273 107,273 107,272 107,272 107,272 107,272 107,272 107,272 107,272 107,272 107,272 107,272 107,270 107,270 107,270 106,270 106,270 106,270 106,269 106,269 106,269 106,269 106,269 106,269 106,269 106,269 106,269 106,269 106,269 106,268 106,268 106,268 107,268 107,268 107,268 107,268 108,268 108,268 108,268 109,268 109,268 109,268 109,268 109,268 109,268 109,268 108,268 108,268 108,268 108,267 108,267 108,267 108,267 109,267 109,267 109,267 109,267 110,266 110,266 110,266 110,266 113,265 113,265 113,265 113,264 113,264 113,264 113,264 112,264 112,264 112,264 112,263 112,263 112,263 111,262 111,262 111,262 112,262 112,262 112,262 112,261 112,261 111,261 111,261 112,260 112,260 115,257 115,257 116,257 116,257 116,257 117,258 117,258 117,258 118,258 118,258 118,258 118,258 119,258 119,258 119,257 119,257 119,257 119,257 120,257 120,256 120,256 120,256 120,256 121,255 121,255 124,253 125,251 126,251 126,251 126,251 126,250 126,250 126,249 126,249 127,249 127,249 126,249 126,249 125,249 125,249 124,249 124,249 124,249 124,249 124,249 124,249 123,248 123,248 123,248 123,248 123,248 123,248 123,248 123,248 123,248 122,248 122,248 122,247 122,247 122,247 122,247 122,247 122,247 122,247 122,247 122,247 121,247 121,247 121,247 121,246 121,246 120,246 120,246 120,246 120,246 120,246 120,246 120,246 120,246 120,246 120,246 120,246 120,246 119,246 119,246 119,246 119,246 119,246 119,246 119,246 119,246 119,245 119,245 119,245 119,245 119,245 119,245 118,245 118,245 118,245 118,245 118,245 118,245 118,245 118,245 118,245 118,245 118,245 118,245 118,245 117,245 118,244 117,244 117,244 117,244 117,244 117,244 117,244 117,244 117,244 116,244 116,244 116,244 115,244 115,244 115,244 114,244 114,244 114,244 113,244 113,243 113,243 113,243 113,243 113,243 113,243 112,243 112,243 112,243 112,242 111,242 111,242 111,242 111,242 110,242 110,242 109,241 109,241 108,241 108,241 108,241 108,241 107,241 107,241 107,241 107,241 107,241 107,240 106,240 106,240 106,240 106,240 105,240 104,239 103,239 103,239 102,239 101,239 98,238 98,238 98,237 98,237 98,237 98,236 98,236 98,236 98,236 97,235 97,235 96,234 96,234 96,233 94,233 94,233 93,232 92,232 92,232 92,232 92,231 91,231 91,231 91,231 90,230 90,230 89,229 89,229 89,229 89,229 88,228 88,228 87,228 87,227 87,227 87,226 86,226 86,225 85,225 85,224 85,224 85,224 85,224 86,224 88,223 88,223 88,223 88,223 88,223 88,223 89,222 89,222 89,222 89,222 90,222 90,222 89,222 89,222 90,222 90,222 90,221 90,221 90,221 90,221 90,221 90,221 90,221 91,220 91,220 91,220 91,220 91,220 91,220 92,220 92,219 92,219 92,219 92,219 93,219 93,219 93,219 93,219 93,219 93,219 93,219 93,219 93,219 93,219 93,219 93,219 94,219 94,219 94,219 94,219 94,218 94,217 94,217 94,217 94,217 94,217 95,217 95,217 95,217 95,216 95,216 96,215 96,215 96,215 96,215 97,215 97,215 97,215 98,215 98,213 98,213 98,213 99,213 99,213 99,213 99,212 99,212 99,212 99,211 100,211 100,210 100,208 101,208 101,208 101,208 101,208 101,208 101,207 101,207 102,207 102,207 102,207 102,207 102,207 102,207 102,207 102,207 102,207 102,206 102,206 102,205 102,205 102,205 102,205 102,204 102,204 102,204 102,204 103,204 103,204 103,204 103,204 103,204 103,203 103,203 103,203 103,203 104,203 104,203 104,203 104,203 105,203 106,203 106,203 106,203 106,203 106,202 106,202 106,202 106,202 105,201 106,201 106,201 106,201 106,201 106,201 106,201 106,201 106,200 106,200 106,199 106,199 106,199 106,199 107,198 107,198 107,198 107,198 107,197 107,197 107,197 107,196 108,196 108,196 108,196 108,196 107,195 106,194 106,194 106,194 106,194 106,193 107,193 107,193 107,192 107,192 107,192 106,192 106,192 106,192 106,192 105,191 103,191 103,191 103,191 103,191 103,190 103,190 102,190 102,190 102,190 102,190 102,190 102,190 101,190 101,190 100,189 100,189 99,189 99,189 99,188 99,188 98,188 98,188 98,187 98,187 98,187 96,186 96,186 95,185 94,185 93,185 92,185 91,185 91,185 90,185 90,185 89,185 89,184 88,184 88,184 88,184 86,183 86,183 86,183 85,182 84,182 84,182 83,181 83,181 83,180 82,180 81,179 81,179 80,178 79,177 79,177 79,176 78,176 78,175 78,174 77,174 77,173 77,174 68,185 68,186 61,194 60,196 57,200 56,201 55,203 55,203 55,203 54,203 53,202 52,202 50,202 50,202 50,202 50,202 50,202 50,202 49,202 49,202 49,202 48,201 48,201 48,201 48,201 48,201 47,201 47,201 46,200 45,200 45,200 44,200 44,200 42,200 41,199 41,199 40,199 39,199 39,199 37,199 36,199 36,199 36,199 37,199 37,198 37,198 37,198 37,198 37,197 37,197 37,197 37,197 37,197 36,197 36,196 36,196 35,196 34,195 34,195 34,195 34,195 34,195 34,194 35,193 36,193 36,193 36,193 36,193 35,193 35,193 35,193 34,192 34,192 34,191 33,191 33,191 32,191 32,191 32,190 32,190 32,190 32,190 32,190 32,189 32,189 32,189 32,188 32,188 33,188 33,188 33,187 33,187 32,187 32,187 32,186 32,186 32,186 32,186 32,186 32,186 34,185 34,184 34,184 34,184 34,184 32,183 32,183 31,183 31,183 31,183 31,183 30,182 30,182 29,182 29,182 29,182 29,182 28,182 28,182 28,182 28,181 28,181 28,181 27,181 27,181 26,181 26,181 26,181 26,181 25,180 25,180 25,180 25,180 25,180 25,179 25,179 25,179 25,178 25,178 25,178 25,177 25,177 25,177 25,177 24,176 23,176 23,175 23,175 22,175 22,175 22,175 21,175 21,174 21,174 21,174 21,173 20,173 20,172 20,171 20,171 20,171 20,171 20,171 20,170 19,170 18,170 18,169 18,169 17,169 17,169 17,169 16,168 16,168 16,168 15,168 15,168 14,168 14,167 14,166 14,165 14,165 14,165 14,164 14,164 14,164 15,164 15,164 15,164 15,163 15,163 15,163 15,163 15,163 15,162 15,162 15,162 15,162 14,162 14,162 13,161 13,161 13,161 12,161 12,161 12,161 12,160 12,160 12,160 12,160 11,160 11,160 11,160 11,160 11,160 10,160 10,160 10,160 10,159 10,159 10,159 9,159 9,159 9,159 8,159 8,159 8,159 8,159 8,159 8,159 8,159 8,159 7,159 7,159 7,159 7,159 6,159 6,158 6,158 6,158 6,158 6,158 6,158 6,158 6,158 5,158 5,158 5,158 4,158 4,158 4,158 4,158 4,157 4,157 4,157 3,157 3,157 3,157 3,157 3,157 3,157 2,157 2,157 2,157 2,157 2,157 2,157 2,157 1,157 1,157 1,157 1,157 1,157 1,157 0,157 0,157 0,157 0,157 0,156 0,156 0,156 0,156 0,156 0,156 1,156 1,156 2,155 2,155 2,154 3,154 3,154 3,154 3,154 3,154 4,154 4,154 5,155 5,155 5,155 5,155 5,155 7,153 7,153 7,153 7,153 7,153 7,153 8,153 9,153 9,153 9,153 9,153 9,153 9,152 9,152 9,152 9,152 10,152 10,152 10,152 10,152 10,152 10,152 10,151 10,151 10,151 10,151 10,151 10,151 10,150 10,150 11,150 11,150 11,150 11,150 11,150 10,150 10,149 10,149 10,149 9,149 9,148 9,148 8,148 8,148 7,148 7,148 6,148 6,148 6,148 6,146 6,146 6,146 2,144 2,144 2,144 2,144 2,144 2,144 2,144 2,143 2,143 2,143 2,143 2,143 2,143 2,143 3,143 3,143 3,143 3,143 4,142 4,142 4,142 5,142 5,142 5,142 5,142 5,142 5,142 6,142 6,142 6,142 6,142 6,142 6,142 6,142 7,142 7,142 7,142 7,142 7,142 7,142 7,142 7,142 7,142 8,142 8,142 8,142 8,142 8,142 8,141 8,141 8,141 8,141 8,141 8,141 8,141 10,141 10,141 10,141 10,141 10,140 10,140 10,140 10,140 10,140 10,140 10,140 10,139 11,139 11,139 11,139 11,138 11,138 12,138 12,138 12,138 12,138 12,137 12,137 13,137 12,137 12,137 12,137 12,137 12,137 12,137 12,137 12,137 12,137 12,137 12,137 12,137 12,137 12,136 12,136 12,136 12,136 12,136 12,136 11,136 11,135 10,135 10,135 10,135 10,135 10,134 10,134 10,134 10,133 10,133 10,133 10,133 10,133 10,132 10,132 10,132 10,132 10,132 10,132 10,131 10,131 10,131 10,131 10,131 10,131 10,131 10,131 10,131 10,131 10,130 10,130 10,129 10,129 10,129 10,129 10,129 10,129 10,128 10,128 10,128 10,128 10,128 10,128 10,128 10,128 10,128 10,128 10,127 10,127 10,127 9,127 9,127 9,127 10,127 10,127 10,127 10,127 10,127 10,127 10,126 10,126 10,126 10,126 10,126 10,126 10,126 10,126 10,126 10,126 10,125 10,125 10,125 10,125 10,125 10,125 11,125 11,125 11,125 12,124 12,124 12,124 12,124 13,124 13,123 13,123 13,123 13,123 13,123 14,121 14,121 14,121 15,121 15,121 15,121 17,120 18,120 18,120 18,120 19,120 20,120 21,120 22,120 23,120 23,120 23,120 23,120 23,120 23,120 23,120 23,120 23,120 24,119 24,119 24,119 24,119 24,118 24,118 24,118 24,118 24,118 24,118 24,117 24,117 24,117 24,117 25,117 25,117 25,116 25,116 25,116 25,116 25,116 25,116 25,116 26,116 26,115 26,115 26,115 26,115 26,114 26,114 27,114 27,113 27,113 28,113 28,112 30,111 31,111 31,111 32,110 32,110 34,110 34,109 35,109 36,109 36,109 36,109 37,109 37,109 37,109 37,109 37,109 37,109 37,108 37,108 37,108 37,108 37,108 37,108 37,108 37,108 37,108 37,108 38,108 38,108 38,108 38,108 39,108 39,108 39,108 39,108 39,108 40,107 40,107 40,107 40,107 40,107 40,107 40,107 40,107 41,107 41,107 40,107 40,107 41,107 41,107 41,107 41,107 41,107 42,107 42,107 42,107 42,107 42,107 42,107 42,107 42,107 42,107 43,107 43,107 43,107 44,107 44,107 44,107 44,107 44,107 45,107 45,107 45,107 45,107 45,107 46,107 46,107 46,107 46,107 46,107 46,107 47,107 47,107 47,107 47,107 47,107 48,106 48,106 48,106 48,107 48,107 48,107 48,107 48,107 49,107 49,107 49,107 49,107 49,107 49,107 50,107 50,107 50,107 50,107 50,107 50,107 50,107 50,107 51,107 51,107 51,107 51,107 51,107 51,107 51,107 51,107 51,106 51,106 51,106 51,106 51,106 51,106 51,106 52,105 52,105 51,105 51,105 51,105 51,105 51,105 52,105 52,105 52,105 52,105 52,105 52,105 52,105 53,104 53,104 53,104 53,104 53,104 54,104 54,104 54,104 55,104 55,104 55,104 56,103 56,103 56,103 56,103 56,103 56,103 58,103 58,103 58,103 59,103 59,103 59,104 60,104 60,104 60,104 61,104 62,104 62,104 62,104 62,105 62,105 64,105 65,106 65,106 68,107 68,107 69,107 71,107 71,107 71,107 71,107 71,108 70,108 70,108 70,108 70,108 70,108 70,109 70,109 70,109 72,108 72,108 72,108 72,108 73,108 73,108 73,108 73,108 73,108 74,108 74,108 75,108 75,108 75,108 76,108 76,108 76,108 77,108 77,108 77,108 78,108 78,107 78,107 79,107 79,107 79,107 81,107 82,107 82,107 84,109 84,109 84,109 84,109 84,109 87,109 87,109 87,110 87,110 87,110 87,111 87,111 87,111 87,111 87,111 87,112 87,112 87,113 87,114 87,114 87,114 87,115 87,115 87,115 87,116 88,116 88,117 88,117 88,117 88,118 88,118 88,119 88,119 88,119 88,119 88,120 88,120 88,121 88,121 88,121 88,121 88,121 88,122 88,122 88,122 88,122 89,122 89,122 89,122 89,122 90,122 90,122 91,122 91,122 92,122 92,122 92,122 93,122 93,122 93,122 95,123 95,123 95,123 96,123 96,123 96,122 97,122 97,122 99,122 99,122 99,122 99,122 100,122 100,122 101,123 101,123 102,123 102,123 102,123 103,123 103,123 103,123 103,123 104,122 104,122 105,122 105,122 105,121 105,121 106,121 105,121 105,120 105,120 105,120 105,120 105,120 106,119 106,119 106,119 106,119 106,120 107,120 108,120 108,120 108,120 108,120 109,120 109,120 109,120 109,120 109,119 109,119 109,119 109,119 109,119 109,119 109,119 110,119 110,119 110,119 110,119 110,118 110,118 111,118 111,118 111,118 111,118 111,118 111,118 111,118 111,118 112,118 112,118 112,118 112,118 112,118 112,118 112,118 113,118 113,118 113,118 113,118 114,118 114,118 114,117 114,117 114,117 114,117 114,117 114,117 115,117 115,117 115,117 115,117 115,116 115,116 115,116 115,116 115,116 116,116 116,116 116,115 116,115 117,115 117,115 117,115 118,115 118,115 119,114 119,115 119,115 120,115 120,115 120,115 120,114 120,114 121,114 121,114 121,114 121,114 121,114 122,113 122,113 122,113 122,113 123,113 123,113 123,113 123,113 124,113 124,113 124,113 124,113 125,112 126,112 126,112 126,112 125,112 125,112 125,112 125,112 125,112 125,112 125,112 125,112 125,112 125,112 125,112 125,111 125,111 125,111 125,111 125,111 125,111 125,111 125,111 125,111 125,111 125,110 125,110 125,110 125,110 125,110 126,110 127,110 127,111 127,111 127,111 128,110 128,110 128,109 128,109 128,109 128,109 128,109 129,108 129,107 129,107 129,107 129,107 128,107 128,107 128,107 128,107 128,107 128,107 127,107 127,107 127,107 127,107 127,106 127,106 126,106 126,106 127,106 127,105 128,105 127,105 127,105 126,104 125,104 126,104 126,104 126,104 126,104 127,103 127,103 127,103 127,103 127,103 128,103 128,103 128,102 129,102 129,102 129,102 129,102 130,101 130,101 130,101 131,100 131,100 131,100 131,100 131,100 131,100 131,99 131,99 131,99 131,99 132,99 133,99 134,99 134,99 134,99 134,99 134,99 134,98 134,97 134,96 134,96 135,96 135,96 136,96 136,96 136,96 136,96 136,96 136,96 136,96 136,96 136,96 136,96 136,95 137,95 137,95 137,95 137,95 137,95 137,95 137,94 136,94 136,94 137,93 137,93 136,93 136,93 136,93 136,92 136,92 136,92 136,92 136,92 136,92 136,92 137,92 137,92 137,92 138,92 138,92 138,92 138,92 138,92 138,92 139,92 139,91 139,91 139,91 139,91 139,91 138,90 137,90 137,90 137,90 138,89 138,89 138,89 138,89 138,89 139,89 139,89 139,89 139,89 139,89 139,89 140,89 140,89 140,88 140,88 141,88 141,88 141,88 142,88 143,87 143,87 143,87 143,87 143,86 144,86 144,85 144,85 144,85 145,85 145,85 146,85 147,85 148,86 148,86 148,86 148,86 148,85 149,85 150,84 150,84 150,84 149,84 149,84 148,84 148,84 147,83 147,83 147,83 147,83 148,83 148,83 147,82 147,81 147,81 147,81 146,81 145,81 145,81 144,81 144,81 144,81 144,81 144,80 144,80 144,80 144,80 144,80 144,80 143,80 143,80 143,79 143,79 143,79 143,79 143,79 143,79 143,79 143,78 143,78 143,78 143,78 143,78 144,78 145,78 145,78 145,78 146,78 146,78 146,78 146,77 146,77 146,77 146,77 146,77 146,77 147,77 147,77 147,77 147,76 147,76 147,76 146,76 146,76 146,76 146,75 146,75 145,75 145,75 144,75 144,75 144,75 143,75 143,74 143,74 143,74 143,74 143,73 143,73 144,73 144,73 145,73 145,73 145,73 145,73 145,73 145,73 145,72 144,72 144,72 144,72 144,72 144,72 144,72 144,72 143,71 143,71 143,71 143,71 143,71 142,71 142,71 142,71 142,71 141,71 141,70 141,70 141,70 141,70 141,70 141,70 140,70 140,70 140,70 140,69 140,69 139,69 139,69 139,69 139,68 139,68 139,68" id="7111" class="canton" fill="steelblue" stroke-width="1" stroke="white" geotype="canton" geoname="Cluny" code_insee="7111" code_departement="71" nom_departement="Saône-et-Loire" code_region="27" nom_region="Bourgogne-Franche-Comté"/></svg>