<?xml version="1.0" encoding="utf-8"?>
<svg version="1.1" id="svgmap" xmlns="http://www.w3.org/2000/svg" xmlns:xlink="http://www.w3.org/1999/xlink" x="0px" y="0px" width="100%" height="100%" viewBox="0 0 500 292">
<polygon points="84,77 85,75 84,75 84,75 84,74 83,74 83,74 83,74 83,74 83,74 84,73 84,73 85,73 85,72 86,72 86,72 86,72 86,72 86,72 86,72 85,71 85,71 85,71 84,71 84,71 83,71 83,70 83,70 83,70 83,70 83,70 83,70 82,70 82,70 82,70 82,69 82,69 82,69 82,69 82,69 82,69 82,69 82,68 82,68 81,67 80,66 80,66 80,66 80,66 80,65 81,65 81,65 82,65 82,65 82,65 82,65 83,65 83,65 84,65 84,65 84,65 85,65 85,65 85,65 87,64 88,64 91,63 91,63 91,63 91,63 91,62 91,62 91,62 92,62 92,62 92,61 93,60 93,60 94,60 94,60 96,59 96,59 97,60 97,60 98,60 98,61 98,61 98,62 99,62 99,62 100,62 101,62 101,62 102,62 102,62 102,62 103,62 103,63 103,63 104,63 104,63 105,64 104,65 103,65 103,65 104,65 104,65 105,66 105,66 105,66 106,66 106,66 106,66 107,66 107,67 108,67 108,67 108,67 109,67 109,67 109,67 110,68 111,68 111,68 111,68 112,68 112,68 112,69 113,69 113,69 113,69 114,69 114,69 114,69 114,69 115,69 115,70 115,70 116,70 116,70 116,70 116,70 116,70 117,71 117,71 116,71 116,71 117,71 117,71 117,72 118,73 118,73 119,72 119,72 119,72 119,72 119,72 119,72 119,71 119,71 119,71 119,71 118,71 119,71 119,71 120,70 123,69 123,68 123,68 122,68 122,68 122,68 122,68 122,67 122,67 121,67 121,66 120,66 120,66 120,66 120,65 119,65 118,65 118,64 119,64 120,63 121,62 122,62 122,61 123,61 122,60 122,60 122,60 122,60 122,60 123,59 125,58 125,58 126,57 126,57 126,57 126,57 126,58 126,58 127,58 127,58 127,58 127,58 128,57 129,57 130,56 130,55 130,55 131,55 132,54 133,54 133,54 134,53 134,53 134,53 134,53 136,52 136,51 136,51 137,51 138,51 138,50 139,50 140,50 140,50 140,49 141,49 141,49 141,49 141,49 142,49 142,49 142,49 142,48 142,48 143,48 143,48 143,48 143,48 143,48 143,48 144,48 144,48 144,48 144,47 145,47 145,47 145,47 145,47 146,47 146,47 146,47 146,47 147,47 147,47 148,46 148,46 149,46 150,47 151,47 152,47 152,47 152,47 153,47 153,47 154,47 154,47 154,47 156,47 157,47 157,46 157,43 158,38 158,38 158,38 158,38 158,38 158,38 158,38 159,38 159,38 161,38 161,38 161,38 161,38 161,38 161,38 161,38 161,38 161,38 162,38 162,38 162,38 162,38 162,38 164,39 165,39 165,39 166,39 167,39 167,39 168,39 168,39 170,40 172,40 173,40 173,40 174,40 176,41 177,41 177,41 177,41 178,41 178,41 179,41 179,41 180,41 182,42 182,42 182,42 182,42 183,42 184,42 185,42 185,42 185,42 185,42 185,42 185,42 185,42 185,42 185,42 185,42 185,42 185,42 185,42 186,42 186,42 186,42 186,42 187,42 187,42 187,42 188,43 189,43 190,43 190,43 191,43 192,43 192,43 192,43 193,43 193,44 194,44 194,44 196,44 196,44 197,44 198,44 198,44 199,44 201,44 201,44 201,44 201,45 202,45 202,45 203,45 203,46 204,46 204,46 204,46 204,46 204,46 204,47 205,47 205,47 205,47 205,47 205,47 205,47 206,47 206,47 207,48 207,48 208,48 208,48 209,49 209,49 209,49 210,49 210,49 210,49 211,49 211,49 212,49 212,50 213,50 213,50 213,50 215,50 215,50 215,50 216,50 216,50 216,49 217,49 217,49 217,49 217,49 217,49 217,49 218,49 218,49 218,49 218,49 219,49 219,48 219,48 219,48 220,48 220,48 220,48 220,48 221,48 221,48 221,48 221,47 222,47 222,47 222,47 222,47 222,47 223,47 223,46 223,46 223,46 223,46 223,46 223,46 223,46 223,46 223,46 223,45 223,45 224,45 224,45 224,44 224,44 224,45 225,45 225,46 225,47 225,47 226,47 226,48 226,48 226,48 227,48 227,49 227,49 227,49 227,49 227,49 227,49 231,50 231,51 230,53 230,54 229,56 229,57 229,59 229,60 229,61 229,61 229,61 229,62 229,62 229,63 229,64 229,64 229,65 229,65 229,65 229,66 229,66 230,67 230,68 230,68 231,69 231,70 232,70 232,71 233,72 234,73 234,73 237,75 238,76 239,77 240,77 241,78 242,79 243,79 246,80 248,81 249,82 251,82 252,83 254,83 256,84 256,84 257,84 258,85 264,86 265,86 266,86 267,84 267,84 267,84 267,84 268,82 271,78 273,74 273,74 273,74 273,74 273,74 275,71 275,71 275,71 276,70 276,69 277,68 277,68 278,66 278,66 278,65 279,65 279,64 279,64 279,63 279,63 280,62 280,61 281,60 281,60 281,60 282,58 283,58 283,57 283,57 283,57 283,57 283,57 283,57 283,57 283,57 284,56 284,56 284,55 286,53 286,53 286,53 286,52 286,52 286,52 287,50 288,50 288,48 289,47 289,47 290,46 290,46 290,46 290,46 289,45 289,44 288,43 288,42 288,42 288,42 288,42 288,42 287,39 286,39 286,39 287,39 287,39 287,38 288,38 288,37 288,37 289,36 289,36 289,36 289,36 289,36 289,35 289,34 289,33 289,33 289,31 289,31 290,30 290,30 290,28 290,28 290,28 290,28 290,28 290,27 290,27 290,27 290,27 290,27 290,27 290,27 288,25 292,22 294,21 296,20 304,16 310,13 311,12 320,9 323,6 326,4 327,3 329,1 329,0 331,1 332,1 338,4 340,5 341,5 341,5 341,5 341,5 345,7 345,7 345,7 345,7 346,7 346,7 346,8 348,10 348,11 348,11 349,12 351,13 351,13 351,13 351,14 351,14 351,14 352,15 353,16 353,16 354,17 354,17 354,17 355,17 358,16 360,14 363,13 365,13 368,11 372,10 376,9 380,8 380,8 380,8 380,8 380,8 380,8 382,8 383,8 384,8 386,8 388,8 389,8 391,9 394,10 396,10 396,10 396,11 397,11 397,11 397,12 398,12 399,13 399,13 399,13 399,13 400,14 400,15 400,15 401,16 402,16 402,18 403,18 403,18 404,19 404,19 407,18 407,18 407,18 410,17 415,13 416,13 419,11 419,11 419,11 421,10 421,10 421,10 423,9 423,9 425,9 425,10 424,11 424,11 423,13 423,13 423,13 425,14 425,14 425,15 425,15 426,15 426,15 426,15 426,16 426,18 425,20 425,20 425,21 425,21 425,22 425,22 427,22 427,22 427,22 427,23 427,23 427,23 428,23 425,27 426,27 426,27 426,28 426,28 424,31 424,31 424,31 424,31 423,31 421,31 421,31 421,31 420,32 419,33 419,33 419,33 419,33 417,33 416,32 416,33 416,33 416,33 418,34 417,35 417,35 417,35 417,35 418,36 418,36 418,36 418,37 418,37 418,37 419,38 419,40 419,40 419,40 419,40 419,40 415,46 415,46 415,46 416,46 416,46 415,48 415,48 413,49 411,50 408,51 408,51 408,51 408,51 408,51 408,52 408,52 408,52 405,55 402,56 401,57 400,58 399,58 399,58 398,58 398,59 396,61 394,63 393,64 393,65 391,65 391,65 390,66 390,66 390,66 391,67 391,68 392,68 392,69 393,69 394,69 395,70 398,71 398,71 398,71 398,72 398,73 399,73 400,74 400,74 402,75 402,76 404,77 404,77 404,77 405,78 405,78 405,78 406,78 406,78 406,79 406,78 407,81 407,83 407,83 412,82 416,82 417,81 418,81 419,81 424,81 424,83 424,86 425,94 425,95 425,96 425,96 425,97 425,97 425,98 425,98 426,99 426,99 427,99 427,99 430,103 430,104 431,106 432,107 432,107 432,107 432,107 432,107 433,109 433,111 433,111 433,111 433,111 434,111 434,111 434,111 435,110 438,110 439,109 439,110 441,112 441,113 441,114 442,115 442,115 443,117 443,117 445,117 446,117 448,117 449,117 449,117 449,117 448,117 448,117 447,118 447,118 447,118 447,118 447,119 447,119 447,119 448,120 448,120 448,120 448,120 448,120 448,120 447,120 447,120 447,120 447,122 447,123 447,123 447,124 448,125 448,125 448,125 447,126 446,126 445,126 446,126 446,127 446,127 444,127 444,127 444,127 444,127 445,128 446,129 447,130 447,130 447,130 447,130 448,131 448,131 448,131 448,132 448,132 448,132 449,132 450,133 450,133 450,133 449,134 449,135 449,136 449,136 449,136 449,136 449,136 449,136 449,136 450,137 450,137 450,138 450,139 450,141 449,143 449,143 449,146 449,146 448,146 448,147 447,149 447,150 446,152 446,153 445,154 445,154 445,154 446,155 447,155 447,155 446,156 446,156 446,156 446,156 446,156 448,157 452,158 452,158 452,158 451,159 450,160 450,161 449,162 449,162 448,163 447,165 446,165 446,165 446,165 446,166 447,166 447,167 447,167 451,169 451,169 451,169 451,170 451,170 451,170 453,171 453,171 450,174 449,175 448,176 447,176 445,177 442,178 441,178 438,180 436,181 421,188 421,188 421,188 420,187 420,187 418,186 416,184 416,184 407,189 404,190 404,190 405,193 406,194 406,194 407,195 408,196 409,197 410,198 411,198 412,198 412,199 412,199 414,200 415,200 419,202 420,202 426,204 428,205 435,206 437,206 439,207 439,207 441,207 442,207 443,208 445,209 446,209 446,209 448,211 448,211 450,213 451,214 452,215 456,217 460,219 461,220 465,221 466,222 467,222 468,222 469,223 471,224 472,226 472,226 474,228 475,229 476,231 476,231 476,233 478,236 479,240 479,241 481,246 482,248 482,249 482,249 484,251 484,252 485,253 487,256 489,257 490,258 493,263 495,265 497,267 497,268 497,268 498,270 498,270 500,275 500,276 500,276 500,278 500,279 500,283 500,284 500,285 500,287 497,287 493,288 492,288 489,289 489,289 489,289 489,289 489,289 482,290 480,291 480,291 480,290 480,290 480,290 478,291 476,291 475,291 474,291 473,292 473,292 473,292 472,292 472,291 471,291 471,291 471,291 471,290 471,289 471,288 470,286 470,286 470,286 467,285 464,284 463,284 457,282 455,282 451,280 449,280 445,279 444,279 439,276 435,275 435,275 434,274 433,274 426,272 425,272 418,270 410,268 409,267 407,266 403,265 398,263 398,263 398,263 398,263 396,263 396,263 391,262 390,261 388,260 386,260 386,259 385,259 385,259 379,258 378,258 376,257 376,257 376,257 375,257 375,257 375,257 371,255 370,255 369,255 369,255 369,255 368,255 367,255 367,255 366,255 366,255 366,255 366,256 365,256 365,257 364,257 364,257 364,257 363,257 362,256 362,256 362,256 361,256 361,256 361,257 361,257 361,257 361,257 361,257 361,258 360,258 360,258 360,258 360,258 360,258 360,259 360,259 361,259 361,259 361,260 361,260 361,260 361,260 361,260 360,260 360,261 360,261 360,261 359,261 359,261 359,261 358,260 358,260 357,260 357,260 357,260 357,260 357,260 357,260 357,261 357,261 357,262 357,262 356,262 356,262 356,262 356,263 356,263 356,263 356,263 356,264 356,264 357,264 357,264 357,264 358,264 358,263 358,263 359,263 359,262 359,262 360,262 360,262 360,262 360,262 360,262 361,262 361,262 361,262 360,262 360,262 360,263 360,263 360,263 360,263 360,263 361,264 361,264 361,264 362,264 362,264 362,264 363,264 363,264 363,265 362,265 362,265 362,265 361,265 361,265 361,265 361,264 361,264 360,264 360,264 359,264 359,264 358,265 358,265 358,265 357,265 357,265 356,264 356,264 355,263 355,263 355,263 354,263 354,264 353,264 353,264 353,264 353,265 352,265 352,265 352,265 352,265 354,267 354,267 352,268 352,268 352,268 352,269 351,269 351,269 352,271 352,271 352,271 352,272 352,272 351,272 351,272 350,272 350,272 349,272 349,272 348,272 348,272 347,275 346,275 345,275 343,276 343,277 341,278 341,278 341,278 340,277 340,277 340,277 340,277 339,277 339,277 339,278 338,278 338,278 338,278 337,278 337,278 337,278 336,278 336,277 335,277 335,277 335,277 335,277 334,277 334,277 334,277 334,278 334,278 334,278 335,279 334,279 334,279 333,280 333,280 332,280 332,280 332,281 331,281 330,281 330,281 330,282 330,282 330,282 330,282 330,282 330,283 329,283 328,283 328,284 328,284 327,284 327,283 327,283 326,283 326,283 326,282 325,282 325,282 325,282 325,282 325,282 325,283 325,283 325,283 325,284 325,284 325,284 325,284 325,284 325,284 325,284 323,284 322,284 320,284 320,283 319,283 319,283 319,284 318,284 318,284 318,284 317,284 317,284 317,284 317,285 317,285 318,285 318,285 318,286 318,286 318,286 318,286 317,286 316,286 316,286 314,287 312,287 310,288 309,287 306,282 305,281 304,279 300,273 300,273 297,268 296,267 295,266 294,264 294,264 294,264 292,261 292,260 292,260 290,260 288,260 288,260 287,260 287,260 285,260 278,260 275,258 271,256 271,256 271,256 271,256 271,256 268,256 259,254 255,254 254,254 252,253 250,252 250,252 250,252 250,252 249,252 248,252 247,251 247,251 247,251 244,252 244,252 244,252 242,253 242,253 242,256 242,256 241,257 239,257 237,258 236,258 237,258 238,259 237,259 237,259 236,259 236,259 236,263 236,263 221,265 221,265 221,263 221,263 221,263 220,263 218,263 208,261 203,260 202,260 202,260 202,260 202,260 202,260 202,260 201,259 201,259 201,259 198,259 198,259 194,257 193,257 193,257 192,257 188,256 186,255 178,254 162,252 157,252 152,251 147,250 146,253 146,253 145,254 143,257 107,241 106,241 106,241 105,242 104,243 104,243 103,243 102,244 101,244 101,244 100,245 100,245 99,246 98,247 96,248 96,248 95,248 95,248 93,248 92,248 92,248 91,248 88,249 88,249 86,249 86,249 86,249 86,249 86,249 86,250 85,250 85,250 84,250 84,251 83,251 82,252 82,252 81,252 81,253 80,253 80,254 79,254 78,255 78,255 77,254 77,254 76,254 75,254 73,255 73,255 73,254 72,254 72,254 72,254 71,253 71,253 71,252 70,251 70,251 70,250 68,248 67,248 67,248 67,247 66,246 66,245 65,243 65,243 65,243 63,242 63,242 63,242 62,242 61,241 59,241 59,240 58,240 57,240 57,240 56,240 56,240 56,239 55,239 54,238 54,238 54,237 53,237 52,236 50,235 49,234 49,234 49,234 47,234 46,234 45,233 45,233 45,232 46,230 46,229 46,228 47,227 47,226 47,226 47,224 47,224 47,224 48,220 49,219 49,219 49,217 49,216 50,215 51,213 51,213 50,213 50,213 50,213 50,212 50,211 50,211 50,209 50,209 50,208 50,208 50,208 50,208 49,208 48,209 48,209 48,209 47,208 47,208 47,208 46,209 46,209 45,209 44,209 43,210 42,210 41,210 41,211 41,211 40,211 39,212 39,212 39,212 38,212 38,213 37,213 37,213 37,213 37,213 36,213 36,213 30,214 30,213 30,213 29,211 29,210 28,210 28,210 25,207 22,205 22,204 20,203 20,203 19,203 19,202 18,202 18,202 18,201 14,200 13,199 12,199 12,199 12,198 12,198 12,198 11,197 11,197 9,196 8,196 7,195 7,195 6,195 6,195 5,194 4,193 4,193 2,191 1,191 1,191 0,191 0,190 0,190 0,190 1,190 8,188 12,187 14,186 14,186 14,186 14,186 14,186 14,186 19,185 19,185 20,184 21,184 22,183 22,183 23,182 23,182 24,182 24,182 24,182 24,180 25,179 25,178 26,174 26,173 26,172 27,170 27,170 27,170 28,170 28,170 29,169 29,169 29,168 31,168 31,168 32,167 33,166 33,166 33,166 33,166 33,166 33,165 32,164 32,164 33,164 33,163 33,163 33,163 33,163 33,162 33,162 34,162 35,161 35,161 37,159 37,159 43,160 48,161 49,162 49,162 50,162 50,162 53,162 54,162 54,162 54,162 54,162 55,162 56,161 57,161 58,160 60,160 60,160 59,159 58,159 58,158 58,158 58,158 58,158 57,157 55,155 54,153 53,153 53,153 52,152 52,152 52,152 51,150 50,149 50,149 50,147 48,143 48,142 48,141 47,140 47,140 46,138 46,138 45,137 45,136 44,135 45,135 46,135 48,134 50,133 50,133 50,133 52,132 55,130 56,129 59,128 60,127 61,127 61,127 62,126 63,126 63,125 64,124 65,123 65,122 66,122 66,122 66,122 66,122 66,122 66,122 66,122 66,122 66,122 67,122 67,122 67,122 67,122 67,122 67,122 67,122 68,122 68,122 68,122 68,122 68,122 68,122 68,122 68,122 68,122 68,122 68,122 68,122 69,122 69,122 69,122 69,122 69,122 69,122 69,122 69,122 69,122 69,122 69,122 70,122 70,122 69,122 70,122 70,122 70,122 70,122 70,122 70,122 70,122 70,122 70,122 70,122 70,122 70,122 70,122 70,122 70,122 70,122 70,122 70,122 70,122 70,122 70,122 70,122 70,122 70,122 71,122 71,122 71,122 71,122 71,122 71,122 71,122 71,122 71,122 71,122 71,121 71,121 71,121 71,121 71,121 71,121 71,121 71,121 71,121 71,121 71,121 72,121 72,122 72,122 72,122 72,122 72,122 72,122 72,122 72,122 72,122 72,122 72,121 73,121 73,122 73,122 73,122 73,122 73,122 73,122 73,122 72,122 72,122 72,122 72,122 72,122 72,122 72,122 73,122 73,122 73,122 73,122 73,122 73,122 73,122 73,122 73,122 73,122 73,122 74,122 74,122 74,122 74,122 74,122 74,122 74,121 74,121 75,121 74,121 74,121 74,121 74,121 75,121 75,121 75,121 75,121 75,121 75,121 75,121 75,121 75,121 75,121 75,122 75,122 75,122 76,122 76,122 76,121 76,121 76,121 76,121 76,121 76,121 76,121 76,121 76,121 76,121 76,121 76,121 76,121 76,121 76,121 77,121 77,121 77,121 77,121 77,121 77,121 77,121 77,121 77,121 77,121 77,121 78,121 78,121 78,121 78,121 78,121 78,121 78,121 79,121 79,121 79,121 79,121 79,121 79,121 79,121 79,121 79,121 80,121 80,121 80,121 80,121 80,121 80,121 80,121 80,121 80,121 80,122 80,122 80,122 79,122 79,122 79,122 79,122 79,122 79,122 79,122 79,122 79,122 80,122 80,122 80,122 80,122 80,122 80,122 80,122 81,122 81,122 81,122 81,122 81,122 81,122 81,122 81,122 81,122 81,122 81,122 81,122 82,123 82,123 82,123 82,123 82,123 82,122 82,122 82,122 82,122 83,122 83,122 83,122 83,123 84,123 84,123 84,122 84,122 84,122 85,123 85,123 84,123 84,123 84,123 85,123 85,123 84,123 84,123 84,123 84,123 84,123 84,124 85,124 85,124 85,124 85,124 85,124 85,124 85,123 85,123 86,123 86,123 86,123 86,123 86,123 86,123 86,123 86,124 86,124 86,124 86,124 85,124 85,124 85,124 86,124 86,124 86,124 86,124 86,124 86,124 87,124 87,124 87,124 87,124 87,124 88,124 88,124 88,124 88,123 89,123 89,123 89,123 89,122 90,122 90,122 90,122 90,122 90,122 91,122 91,122 91,122 91,122 91,122 92,122 92,122 92,122 93,122 93,122 93,122 94,122 94,121 94,121 95,120 96,119 96,118 96,117 96,117 96,116 96,116 96,116 96,116 96,116 96,116 96,116 96,116 96,116 96,116 96,116 96,116 96,116 96,116 96,115 96,115 96,115 96,115 96,115 96,115 96,115 96,115 96,114 96,114 99,114 101,114 101,114 103,115 105,115 106,116 109,116 110,116 110,117 111,117 112,117 114,114 115,113 116,110 115,109 115,108 115,108 115,107 115,107 115,107 115,107 115,107 115,106 116,106 117,106 119,106 120,106 122,106 122,105 122,105 122,105 122,104 122,104 121,104 121,104 123,104 123,103 125,103 126,100 126,100 126,100 126,100 126,99 126,99 126,99 127,97 128,96 128,96 128,95 126,93 122,92 121,92 121,92 120,92 119,92 118,92 118,92 118,92 118,92 118,91 118,91 117,91 117,91 116,90 115,90 115,90 114,89 113,89 112,88 110,88 110,88 110,88 109,88 108,88 105,88 104,88 102,88 100,88 99,88 98,87 98,87 97,87 97,86 97,86 97,86 96,85 96,84 96,83 96,83 95,83 94,81 93,81 93,81 93,81 91,80 91,80 89,79 88,79 86,78 86,78 84,77" id="7127" class="canton" fill="steelblue" stroke-width="1" stroke="white" geotype="canton" geoname="Saint-Rémy" code_insee="7127" code_departement="71" nom_departement="Saône-et-Loire" code_region="27" nom_region="Bourgogne-Franche-Comté"/></svg>