<?xml version="1.0" encoding="utf-8"?>
<svg version="1.1" id="svgmap" xmlns="http://www.w3.org/2000/svg" xmlns:xlink="http://www.w3.org/1999/xlink" x="0px" y="0px" width="100%" height="100%" viewBox="0 0 500 350">
<polygon points="0,222 0,221 1,221 2,220 2,220 2,220 3,220 4,219 5,219 6,218 6,218 6,217 7,216 8,215 9,215 9,215 10,215 10,215 11,214 12,214 12,214 13,214 13,214 13,213 14,213 15,213 15,212 16,212 17,212 18,212 18,212 19,211 19,211 20,211 20,210 21,210 23,209 25,208 28,207 28,207 30,207 31,207 33,207 34,207 34,206 36,206 38,205 38,205 39,205 40,205 41,205 42,205 43,205 44,204 45,203 45,203 45,203 44,202 44,201 44,201 44,200 45,199 45,198 45,198 45,196 45,196 47,195 47,194 47,194 48,193 49,192 49,192 51,191 52,190 52,189 53,189 53,189 53,188 53,187 54,186 56,185 57,185 57,184 58,183 60,182 64,178 62,178 59,178 57,177 56,178 54,178 51,178 51,178 50,177 49,177 48,177 47,178 45,178 44,178 44,176 43,176 42,175 42,175 41,173 40,174 39,173 39,174 38,173 37,173 38,167 40,163 42,159 44,153 46,146 48,145 48,144 50,142 51,141 52,142 52,141 53,140 53,139 54,137 53,136 54,135 52,134 49,130 48,129 49,128 50,127 52,125 53,125 54,125 54,125 55,125 55,124 55,124 57,122 58,122 59,122 59,121 59,120 60,119 61,119 61,118 62,118 62,118 62,117 63,116 64,116 64,116 65,115 67,115 68,115 68,115 69,115 70,115 71,114 72,113 73,113 74,113 76,113 76,113 76,112 76,112 78,112 79,111 80,111 81,110 82,109 83,109 84,107 85,106 85,106 86,105 87,104 87,103 89,102 90,101 90,100 90,98 90,98 91,97 92,96 92,96 92,95 91,94 91,92 92,92 92,91 91,90 91,89 91,89 91,88 91,88 90,88 89,88 89,87 88,86 88,86 87,84 88,83 89,82 88,82 88,81 89,81 89,80 89,79 89,79 89,78 90,77 90,77 89,76 89,76 90,76 91,75 91,75 90,73 91,73 92,72 92,72 92,72 92,71 93,71 93,71 93,70 93,69 93,68 93,68 94,68 95,67 95,67 95,67 95,66 95,65 95,64 95,64 96,63 96,62 96,62 96,62 96,61 96,60 96,59 96,59 96,59 95,58 95,57 94,57 94,57 94,56 93,56 94,56 94,56 94,55 94,55 95,54 94,54 94,53 94,52 93,52 93,51 92,51 92,50 92,50 92,49 93,46 93,46 93,46 93,45 93,45 93,44 93,44 94,42 94,41 96,38 96,38 97,36 98,35 99,35 100,33 103,31 104,30 103,28 103,27 103,27 104,26 105,23 106,22 109,20 109,19 109,18 109,18 109,17 110,15 111,16 114,17 117,18 118,18 118,19 120,19 122,18 123,18 128,16 132,17 135,19 137,19 137,19 138,20 139,21 142,22 146,23 148,24 148,24 149,25 150,26 153,25 159,25 162,25 164,25 165,24 166,23 169,21 172,20 174,20 176,19 177,18 180,16 182,16 182,15 185,14 187,14 189,14 192,14 194,13 197,13 198,12 204,11 205,11 208,12 209,12 211,11 213,10 215,10 215,10 217,10 219,9 221,9 223,9 225,8 226,7 228,7 228,6 227,5 228,4 229,4 230,3 231,2 231,1 231,1 231,0 238,1 238,1 239,1 239,2 239,3 239,3 239,3 239,4 239,4 240,5 240,6 240,7 240,8 242,11 243,13 243,15 243,17 243,18 242,20 242,22 242,23 242,24 242,25 243,25 243,25 243,26 243,26 243,26 243,27 244,27 244,27 244,28 244,28 244,29 244,31 245,32 245,33 245,34 246,36 246,37 246,38 246,38 246,39 247,41 247,41 249,44 249,44 249,45 249,46 248,46 248,47 247,47 246,48 246,48 246,49 246,49 246,50 245,50 244,51 243,53 242,56 242,56 241,58 244,58 245,61 247,64 249,64 257,62 265,68 266,68 266,68 275,72 275,73 275,73 275,73 275,73 275,73 276,73 276,73 276,73 276,73 276,74 277,74 277,74 277,74 277,74 277,74 277,74 278,74 278,74 278,74 278,74 278,74 278,74 279,74 279,74 279,74 279,75 280,75 280,75 280,75 281,75 281,75 281,75 281,75 281,75 282,75 282,75 282,75 283,75 283,75 283,75 283,75 283,75 284,75 284,76 284,76 284,76 284,76 284,76 285,77 285,77 285,77 285,77 286,77 286,78 287,78 288,79 290,79 292,80 292,80 292,81 291,81 291,81 291,81 291,81 291,81 291,81 291,82 291,82 291,82 291,82 292,82 292,83 292,83 292,83 292,83 293,83 293,84 293,84 293,84 293,84 293,85 293,85 293,85 293,85 293,85 293,85 292,85 292,86 293,86 293,86 293,86 292,86 292,86 293,86 293,86 293,86 293,86 293,87 293,87 293,87 293,87 293,87 293,88 293,88 293,88 293,88 293,88 293,88 293,88 293,88 293,88 293,88 293,88 294,88 294,88 294,88 294,88 295,89 295,89 294,89 295,89 295,89 296,89 296,89 296,89 297,90 297,90 297,90 297,90 296,90 296,90 296,91 296,91 296,91 295,91 295,91 295,91 295,91 295,91 294,91 294,92 294,92 294,92 294,92 294,92 294,92 294,93 294,93 294,93 294,94 294,95 295,95 295,96 295,96 295,97 296,97 297,97 297,97 297,97 297,97 298,97 298,97 299,98 299,98 300,98 301,98 301,98 301,98 301,98 301,98 301,99 302,99 303,99 303,99 303,100 303,100 303,100 303,100 304,100 306,100 306,100 306,99 307,99 308,98 308,98 309,98 309,97 309,97 311,97 311,97 312,97 312,97 312,97 312,96 313,96 313,96 314,96 315,96 315,96 315,96 316,96 316,96 316,96 317,95 318,95 319,95 320,94 321,94 322,95 322,95 323,94 324,93 325,93 325,93 326,92 335,87 338,84 338,84 339,84 340,83 341,83 341,83 342,82 344,81 344,81 346,80 346,80 346,79 346,79 348,78 350,78 350,78 351,77 351,77 352,76 352,76 353,76 353,76 354,77 355,77 355,77 356,76 355,76 355,76 356,75 356,75 359,70 359,70 359,70 355,68 355,68 355,68 354,67 353,67 353,67 353,67 356,65 356,65 357,64 358,62 358,62 359,62 362,62 362,62 365,62 368,61 371,60 372,60 372,60 373,59 378,57 380,61 381,61 381,63 382,64 382,64 382,64 385,66 384,67 384,67 387,69 389,70 392,73 391,74 389,75 388,76 387,77 386,78 384,79 384,79 381,81 381,82 380,82 379,83 381,85 381,85 381,85 382,85 385,83 391,80 397,78 399,77 401,76 401,75 401,75 402,75 402,75 402,75 402,75 403,75 404,75 406,73 408,73 408,73 408,73 409,72 409,72 410,72 410,72 410,72 410,72 410,72 411,72 411,72 411,71 412,71 415,69 415,69 416,69 418,68 419,67 419,67 420,66 421,64 423,62 424,61 426,61 427,60 428,60 429,60 430,59 431,59 434,58 439,56 443,55 445,56 451,59 455,62 457,63 459,64 462,66 462,66 462,66 463,66 463,67 464,67 465,67 465,67 465,67 466,67 468,67 468,69 468,69 468,70 467,73 466,74 465,77 465,79 464,81 463,82 463,83 463,84 463,85 463,85 463,86 464,85 465,85 466,85 468,84 469,84 472,84 473,86 473,86 472,87 472,87 471,88 470,88 470,88 470,88 472,90 474,90 475,89 479,88 479,87 479,86 482,97 483,100 486,112 487,115 487,116 487,116 494,139 495,142 495,142 495,142 499,141 499,141 500,151 499,158 499,158 499,160 498,162 498,165 498,166 483,180 482,180 482,181 479,183 472,192 471,192 467,201 467,206 465,211 465,212 464,214 464,214 463,221 463,223 463,224 462,227 462,228 463,245 462,245 462,245 461,246 460,248 459,249 458,249 457,250 457,250 456,250 456,251 456,251 456,251 455,253 455,255 454,256 454,257 454,258 454,259 454,259 454,260 454,260 454,261 453,261 453,261 453,263 453,264 453,265 454,266 454,267 454,267 454,268 454,269 454,270 454,270 453,272 452,273 452,273 452,273 452,274 450,275 450,275 449,275 449,276 447,279 447,280 447,281 447,281 447,282 447,283 447,284 446,284 446,284 445,285 443,286 440,289 440,289 439,289 435,292 434,292 434,292 432,293 430,294 429,295 429,295 426,298 426,299 425,300 425,300 424,302 424,303 424,303 424,304 424,304 423,305 422,305 421,306 420,307 419,308 419,311 419,312 419,312 419,313 420,314 420,314 420,315 420,315 420,316 419,316 419,318 418,319 418,320 418,321 417,322 416,322 416,322 413,323 412,324 412,324 412,324 409,328 409,328 407,329 407,330 406,331 405,331 404,332 403,334 401,335 401,336 399,337 399,338 398,338 397,339 397,340 397,341 395,343 395,343 394,344 393,344 393,345 392,345 391,345 384,347 382,347 380,347 379,347 378,347 378,348 377,348 377,348 376,348 374,349 373,349 372,349 371,349 369,350 369,350 368,350 368,349 367,349 367,347 366,347 366,347 366,347 365,346 365,346 363,346 362,346 356,344 356,344 355,344 355,343 353,343 353,342 352,342 351,342 350,342 350,341 349,341 348,341 348,341 347,339 347,339 347,339 347,339 344,339 342,339 339,340 338,340 338,340 338,340 338,340 336,338 335,338 334,337 334,336 333,336 332,336 331,336 329,336 329,336 328,335 328,335 327,335 327,335 326,335 325,335 323,335 322,335 321,335 321,335 320,335 319,336 318,336 317,336 316,335 315,335 313,335 274,329 274,329 271,327 269,326 269,326 269,325 268,325 268,324 267,324 267,324 266,324 266,324 264,324 263,324 263,324 262,325 262,325 260,325 260,325 259,325 258,325 257,325 257,325 255,325 255,325 254,325 253,325 252,325 252,325 252,325 250,325 249,325 248,325 248,325 247,325 246,325 245,325 244,325 240,326 238,326 237,326 236,327 234,327 233,327 232,327 231,328 231,328 229,328 229,328 227,329 226,329 225,329 224,329 223,329 222,330 221,330 221,330 220,330 220,330 218,330 218,330 217,330 217,330 216,330 216,330 216,330 215,330 215,330 214,330 214,329 213,329 212,328 211,328 211,328 209,328 208,328 207,328 206,329 206,329 205,328 204,328 203,328 203,328 202,327 202,327 200,328 200,328 199,328 196,328 196,328 196,328 194,328 193,328 192,327 190,325 187,324 185,324 183,325 182,325 181,324 181,323 180,322 180,322 180,322 182,321 184,321 183,321 183,320 182,319 182,319 181,319 180,319 179,319 178,318 177,318 176,318 176,318 176,317 175,317 175,316 175,316 175,316 174,316 173,316 173,316 172,315 172,315 172,315 171,315 171,315 171,315 173,311 174,311 176,310 180,308 181,307 184,305 189,302 193,297 194,296 198,293 199,292 202,288 202,287 196,283 196,283 197,283 196,283 196,283 180,274 180,274 180,274 179,274 179,273 179,273 179,273 178,273 178,273 170,268 168,267 167,267 167,266 166,266 156,260 156,260 152,269 149,274 147,278 143,286 141,285 138,291 137,292 136,294 135,296 136,297 136,297 132,298 116,303 116,303 109,305 85,301 77,300 58,297 58,297 55,293 55,292 51,285 50,285 47,279 48,279 48,279 50,279 50,279 49,277 49,277 47,274 47,273 46,273 45,271 45,270 44,270 44,269 44,269 43,269 43,268 42,267 42,267 42,267 42,267 43,266 43,266 42,265 42,265 42,265 42,265 41,264 41,263 41,263 42,263 42,262 42,262 42,261 42,261 41,260 41,259 40,259 39,258 39,257 39,256 38,256 38,255 38,255 34,254 34,254 34,254 34,253 34,251 34,251 33,249 33,249 33,248 32,247 32,247 18,236 13,233 13,232 0,222" id="7304" class="canton" fill="steelblue" stroke-width="1" stroke="white" geotype="canton" geoname="Albertville-2" code_insee="7304" code_departement="73" nom_departement="Savoie" code_region="84" nom_region="Auvergne-Rhône-Alpes"/></svg>