<?xml version="1.0" encoding="utf-8"?>
<svg version="1.1" id="svgmap" xmlns="http://www.w3.org/2000/svg" xmlns:xlink="http://www.w3.org/1999/xlink" x="0px" y="0px" width="100%" height="100%" viewBox="0 0 500 373">
<polygon points="0,75 5,76 9,76 10,76 12,76 13,75 15,75 17,75 18,75 19,75 20,75 21,75 23,76 24,76 26,75 28,76 29,75 30,75 32,75 34,76 38,75 43,75 44,75 44,75 44,74 44,74 44,73 45,73 45,73 45,72 45,72 46,71 47,71 47,71 47,71 47,70 47,69 48,68 48,67 48,67 48,65 48,64 48,61 51,58 52,57 52,57 53,56 53,56 54,56 54,55 55,55 56,54 58,53 59,51 62,49 64,45 65,44 65,43 66,43 66,42 67,42 68,41 68,40 68,39 68,38 68,38 69,36 69,35 70,34 70,34 69,31 70,29 71,29 72,27 73,26 73,26 72,26 73,25 73,25 73,24 74,23 74,22 74,22 75,19 75,19 76,17 76,17 77,16 77,15 78,14 78,13 79,12 79,12 81,11 82,10 83,9 84,8 84,8 85,7 85,7 86,5 87,4 87,3 88,1 90,0 89,1 89,1 90,4 89,5 89,5 97,10 98,10 105,18 108,15 108,15 109,15 109,14 110,13 111,13 111,13 112,13 112,13 113,13 114,13 116,13 118,13 118,13 119,13 122,14 122,14 123,14 128,16 135,18 135,20 135,20 135,20 136,20 136,21 136,21 137,21 137,21 138,21 138,22 139,22 139,22 140,22 140,22 140,22 140,23 140,23 141,23 141,23 141,23 142,23 142,23 142,23 142,23 143,23 143,23 143,23 143,23 144,22 144,22 145,23 145,23 146,22 146,22 147,22 147,23 148,22 148,22 148,22 149,22 149,22 150,22 150,23 151,22 151,22 151,22 151,22 151,22 151,22 152,21 152,21 152,21 153,21 153,21 153,21 153,21 154,21 154,21 155,21 155,21 155,21 155,22 156,22 156,22 156,22 157,22 157,22 158,22 158,22 158,22 160,22 160,22 160,23 160,23 160,24 160,24 159,24 159,24 159,24 159,25 159,25 158,25 158,26 158,28 158,28 158,29 158,29 158,29 157,31 157,31 155,33 155,34 156,34 157,35 158,36 159,38 159,38 159,38 158,38 158,38 158,38 158,39 157,39 157,39 157,39 156,39 156,39 156,39 155,40 155,40 155,40 155,40 155,40 155,40 154,41 155,41 155,41 155,41 156,42 156,42 156,42 156,42 156,43 156,43 156,43 156,43 156,43 157,44 157,44 157,45 157,45 158,46 158,46 158,47 158,47 159,47 159,48 159,48 160,49 160,49 160,49 159,51 159,51 159,51 159,52 159,52 159,52 159,52 159,52 159,52 159,53 159,53 159,53 159,54 160,54 160,54 161,54 161,54 161,54 162,54 162,55 162,55 162,55 163,55 163,55 158,55 155,56 154,56 151,56 149,57 148,59 146,59 144,60 143,60 141,60 141,60 141,60 142,61 142,62 142,63 142,63 142,64 142,65 142,66 142,66 143,67 143,67 143,67 144,67 144,68 145,68 146,70 147,71 146,71 146,72 145,72 145,72 145,73 145,73 144,73 144,74 144,74 144,74 144,74 144,74 144,75 144,75 144,75 144,76 144,76 144,76 144,77 144,77 143,77 143,78 144,78 144,78 143,78 144,79 144,79 144,79 144,80 144,80 144,81 145,81 145,81 145,81 145,82 146,82 146,82 146,82 146,82 146,82 146,82 146,83 146,83 146,83 146,83 146,84 146,84 147,84 146,84 146,85 146,85 146,85 146,85 145,86 145,86 145,86 144,86 144,87 143,87 143,87 142,88 141,88 141,88 141,88 141,88 140,88 140,88 140,89 140,89 140,89 140,89 140,90 140,90 140,90 141,90 141,90 141,91 141,91 141,91 141,92 141,92 140,92 140,92 140,92 140,93 140,93 139,93 139,93 139,94 139,94 139,94 139,94 139,95 139,95 139,96 139,96 139,96 139,97 139,97 139,97 140,98 140,98 140,98 140,98 141,99 141,99 141,99 141,100 141,100 141,100 142,100 142,100 142,100 143,101 143,101 143,101 144,102 144,102 144,102 145,103 145,103 145,104 144,104 144,104 143,105 143,105 143,105 143,105 143,106 142,106 142,106 142,106 141,107 140,107 140,107 139,107 139,107 139,107 139,107 139,108 139,108 139,108 139,108 138,108 138,109 138,109 138,110 138,110 137,110 137,110 138,111 138,111 139,111 140,111 140,110 141,110 141,110 142,110 142,109 142,109 142,109 143,108 143,108 143,108 144,107 144,107 144,107 144,107 145,107 145,107 145,107 145,107 146,107 146,106 146,106 146,106 146,106 148,106 148,106 150,105 152,104 152,104 153,104 153,104 155,103 155,103 154,104 156,104 160,104 160,103 161,103 163,103 163,103 163,103 164,102 168,101 169,100 169,100 170,99 171,99 172,99 172,99 174,99 175,99 175,99 178,99 178,99 178,99 178,99 178,98 178,98 179,97 179,97 180,97 180,97 182,95 182,95 182,95 182,96 182,96 184,96 184,95 185,95 186,93 186,93 187,92 187,91 187,90 188,89 189,88 189,88 190,86 190,85 194,86 195,86 195,86 196,87 196,87 197,87 197,87 197,88 197,88 198,88 198,88 198,88 199,88 199,88 199,88 199,88 200,88 200,88 200,88 201,88 201,88 201,88 201,89 201,89 201,89 202,90 202,90 202,90 202,90 202,90 203,91 203,91 203,91 203,91 203,91 203,92 203,92 204,92 204,92 204,93 204,93 204,94 204,94 204,94 204,95 205,95 206,96 206,96 207,96 207,96 207,96 208,97 208,97 208,97 209,97 209,97 210,97 211,97 211,97 212,97 212,97 213,97 213,97 214,98 214,98 214,98 214,98 216,98 217,98 217,98 224,99 224,99 225,99 226,99 227,100 228,100 231,101 232,101 232,101 233,102 233,102 234,101 234,101 234,101 235,101 236,101 237,101 237,101 238,101 239,101 240,101 240,101 240,101 241,101 241,101 241,101 241,101 242,101 242,101 243,101 243,101 244,100 244,100 244,100 245,100 245,100 246,100 246,100 246,100 247,100 247,100 247,100 248,100 248,100 249,100 249,100 249,100 250,100 250,100 251,100 251,100 252,100 253,100 253,100 254,101 255,100 255,100 256,100 256,100 256,100 257,100 257,100 258,100 259,100 259,100 260,100 260,101 260,101 261,100 261,100 262,100 262,100 262,100 263,99 263,99 264,99 264,99 264,99 265,99 265,99 266,100 265,99 267,98 269,98 272,95 275,95 276,95 284,92 285,92 288,91 289,91 294,90 295,90 298,89 300,89 301,89 304,89 304,89 305,89 309,90 313,91 313,91 315,92 315,93 314,94 315,94 316,94 318,94 318,94 319,94 319,95 322,95 331,96 338,96 339,96 339,96 341,96 343,95 343,95 344,95 344,95 345,95 345,95 346,96 346,96 347,96 347,96 348,96 349,95 349,95 350,96 351,96 351,96 354,96 355,96 355,96 355,96 356,96 357,96 357,96 358,96 358,96 358,96 360,96 360,96 360,97 360,97 361,97 362,97 362,97 362,97 362,97 362,98 363,98 365,99 365,100 366,100 366,100 368,100 369,100 369,101 370,101 370,101 372,101 376,102 376,102 377,102 379,102 379,102 380,102 380,102 381,102 383,102 383,102 383,103 383,104 384,104 384,104 384,104 384,105 383,105 383,105 384,106 385,107 385,107 386,107 386,107 387,108 388,108 392,111 392,111 392,112 392,113 392,115 392,116 392,117 393,117 393,117 393,117 393,118 394,119 394,119 397,122 397,123 398,123 398,124 398,124 398,125 397,126 398,127 398,128 398,128 398,128 398,128 400,128 403,129 403,129 405,129 406,130 407,131 409,132 409,132 409,133 410,133 410,134 411,136 410,138 409,139 409,140 409,141 409,141 410,144 412,147 413,148 414,151 414,151 417,151 420,152 420,152 420,152 422,152 423,152 427,149 428,149 428,150 429,150 429,150 429,150 429,150 429,151 431,151 431,152 432,152 433,152 433,152 435,153 436,153 437,153 438,153 439,153 439,153 441,154 442,156 444,157 445,158 446,159 446,160 446,160 445,161 444,163 445,164 446,164 447,165 451,167 451,168 452,169 452,169 452,170 453,171 453,172 453,172 453,173 452,173 452,174 453,174 453,174 453,175 453,175 453,175 453,176 453,176 452,177 452,177 451,179 451,179 450,180 450,180 449,181 448,181 447,181 447,182 446,183 445,184 445,184 444,185 443,186 443,186 442,187 440,187 439,187 439,187 439,187 439,188 439,188 439,189 439,189 439,189 438,190 438,190 439,192 439,193 439,193 440,194 440,194 443,195 443,195 444,195 444,195 445,196 445,197 446,198 446,199 447,199 448,200 448,200 452,199 460,197 463,200 465,201 465,201 467,201 471,202 471,202 483,202 483,202 485,206 485,206 487,208 491,210 492,211 493,211 494,213 494,214 497,217 500,224 497,228 494,231 489,236 486,242 484,251 483,251 462,261 463,261 464,261 465,262 466,262 466,262 466,262 466,262 466,263 467,263 469,265 469,265 469,265 462,272 462,272 462,275 462,275 456,280 456,280 455,279 454,279 453,278 452,277 451,276 451,276 447,275 447,275 446,274 446,274 445,274 445,273 445,273 444,273 444,273 443,273 443,273 443,273 443,272 442,272 442,271 441,271 441,271 440,270 440,270 439,270 439,270 439,270 438,270 437,269 437,269 437,269 437,269 436,269 435,269 435,269 435,268 434,268 433,267 432,266 432,266 431,266 431,266 430,265 430,265 429,265 429,265 428,264 427,263 427,263 427,262 426,262 426,262 425,261 414,257 413,257 413,256 412,256 412,256 411,255 411,255 410,253 410,253 409,252 409,252 409,252 407,253 405,254 405,254 404,254 404,255 403,255 401,255 401,255 400,256 400,256 399,256 398,256 398,256 395,257 394,259 393,260 392,260 393,260 393,261 393,261 393,261 394,262 395,265 397,268 397,268 398,268 399,268 402,268 403,267 403,267 404,268 405,269 405,269 405,270 404,272 403,273 402,274 401,274 401,275 399,276 399,278 400,280 398,280 395,285 395,285 394,286 394,287 394,288 394,289 394,290 394,291 394,292 394,293 394,294 394,295 394,295 394,295 400,299 401,299 405,301 406,302 408,303 408,303 407,304 406,304 406,305 405,306 405,306 405,306 404,307 403,307 402,308 402,308 401,309 401,309 400,310 398,312 397,312 397,313 397,313 397,313 396,313 396,314 395,315 394,315 390,317 389,317 388,317 388,317 387,318 386,318 386,318 386,318 385,319 384,319 384,320 383,320 383,320 381,318 380,316 380,316 379,316 380,313 380,313 379,311 377,309 377,308 369,307 360,307 355,307 351,306 350,306 350,306 348,306 348,306 339,309 336,311 336,311 317,320 318,320 319,321 319,321 319,322 319,322 319,323 319,323 319,324 319,325 320,326 320,326 321,328 322,328 322,328 324,329 324,330 322,330 322,330 322,331 323,331 323,331 322,333 322,333 322,334 322,334 322,334 325,338 325,339 325,339 327,342 327,343 327,344 327,344 327,345 326,345 325,346 327,346 326,347 325,349 325,349 324,349 324,349 323,350 323,350 322,350 322,350 321,351 321,351 320,351 320,348 317,344 317,344 318,342 320,334 319,331 318,327 316,326 313,325 310,324 306,320 304,318 300,317 293,317 291,317 291,317 290,317 284,319 283,320 274,324 264,328 264,328 260,330 257,331 251,334 245,336 239,338 239,338 238,338 232,340 231,340 229,342 228,343 218,356 218,356 210,362 207,364 207,364 199,367 186,370 174,373 172,372 172,371 170,370 171,369 168,366 167,365 166,364 163,362 160,359 160,359 159,359 159,358 159,358 158,358 157,357 157,357 157,357 156,357 156,356 155,356 153,351 152,351 146,348 142,347 139,346 138,346 137,345 136,344 135,344 135,344 133,343 132,343 131,343 130,342 130,342 129,342 128,341 127,341 126,342 125,341 123,340 121,340 121,340 120,339 118,338 117,337 118,336 118,336 119,335 119,335 120,333 121,333 121,332 121,332 122,331 122,331 123,329 123,329 125,328 126,327 127,326 127,326 128,325 128,325 129,324 130,323 131,321 132,320 132,320 133,320 135,319 135,319 136,319 136,318 136,318 136,317 137,316 137,315 138,315 138,314 138,313 138,313 138,313 137,312 137,312 137,311 137,310 137,309 138,308 138,307 139,307 140,306 141,306 141,305 141,305 141,304 141,304 142,303 142,302 142,302 143,301 144,299 145,298 146,298 147,297 148,297 148,296 149,296 152,294 153,294 153,294 156,292 157,291 157,290 158,290 158,290 158,289 158,289 158,288 158,288 158,287 158,287 160,284 160,284 160,283 161,283 162,282 162,282 162,282 162,282 163,281 163,280 164,279 163,279 164,278 164,278 164,277 163,277 163,276 163,275 163,274 163,273 163,273 163,273 164,272 164,272 164,271 164,271 164,270 164,269 164,269 164,269 164,267 165,266 165,265 165,265 165,265 166,264 166,264 167,264 167,263 168,263 169,262 170,261 170,261 170,261 170,247 170,247 170,245 170,244 170,243 171,237 171,237 172,235 172,235 174,231 174,227 177,221 177,220 183,214 185,212 185,211 185,211 197,200 197,200 197,197 198,197 198,195 198,195 199,189 198,182 198,182 195,183 195,183 195,182 194,180 189,163 189,162 189,162 188,160 185,151 185,148 183,140 182,141 182,141 180,143 179,143 177,143 176,142 176,142 176,141 176,141 177,141 177,140 178,140 178,140 178,138 175,138 174,139 173,139 172,139 171,140 171,140 171,140 171,139 171,138 171,138 171,137 171,137 172,135 172,133 173,131 173,130 174,128 174,127 174,127 174,126 172,126 172,126 172,126 172,126 171,125 171,125 170,125 170,125 170,125 170,125 168,124 166,123 164,122 161,120 157,117 155,116 152,117 148,119 146,119 145,120 145,120 144,120 143,121 142,121 141,121 140,122 139,123 137,125 137,126 137,126 136,126 135,127 134,127 134,127 132,129 131,129 131,129 131,129 131,129 130,129 130,129 130,129 130,129 129,129 129,130 129,130 129,130 128,130 127,130 125,131 125,132 124,132 124,132 124,132 124,132 124,132 124,132 123,132 122,133 120,134 116,136 111,138 109,139 109,139 108,139 108,139 107,138 107,137 108,137 108,136 110,135 110,135 112,134 113,133 114,133 115,132 116,131 117,130 114,128 113,127 111,126 111,126 111,125 109,124 109,124 109,123 109,122 108,121 107,121 106,118 102,120 102,120 101,120 100,120 98,121 96,122 94,122 94,122 92,122 91,122 91,122 90,123 90,124 89,124 87,126 87,126 87,126 88,126 88,126 89,126 89,127 91,128 91,128 91,128 89,132 89,132 89,132 89,133 89,133 88,133 88,133 88,133 87,133 87,133 86,133 86,133 86,133 86,133 85,134 85,134 83,134 81,135 81,135 82,135 82,135 80,136 80,136 79,137 78,137 78,138 77,138 77,138 76,139 75,139 73,140 67,145 66,145 65,145 65,145 64,146 64,147 63,147 63,146 62,146 61,147 60,147 60,147 59,148 59,148 59,148 58,148 58,148 58,148 57,148 57,148 57,148 56,148 56,148 56,148 56,148 55,148 55,148 54,148 54,149 53,149 53,149 53,149 52,150 51,150 51,150 51,150 49,150 49,150 49,150 49,150 49,150 49,150 49,150 49,150 48,150 48,149 47,149 47,149 47,149 47,149 47,149 46,149 46,149 45,149 45,149 45,148 45,148 44,148 44,148 44,148 43,148 43,148 43,147 43,147 42,147 42,146 42,146 42,145 42,145 42,145 42,145 42,145 42,145 42,144 42,144 43,144 43,144 43,144 43,144 43,144 43,144 43,144 44,144 44,144 44,143 44,143 44,143 44,143 44,143 44,143 44,142 44,142 43,142 43,142 43,142 43,142 43,142 43,142 42,142 42,142 42,142 42,142 42,142 42,142 42,141 42,141 42,141 42,141 42,141 42,141 42,141 42,141 41,141 41,141 41,141 41,141 41,141 41,140 41,140 41,140 41,140 41,140 41,140 41,140 41,140 41,140 41,140 41,140 41,140 41,139 41,139 41,139 41,139 41,139 41,139 41,139 41,139 41,138 41,138 41,138 41,138 41,138 41,138 41,137 40,137 40,137 40,137 40,137 40,137 40,137 40,137 40,137 40,137 40,136 40,136 40,136 40,136 40,135 39,135 37,134 37,134 36,134 36,133 36,133 35,133 35,133 35,133 35,133 35,133 35,132 35,132 34,132 34,132 34,132 34,132 34,132 34,132 33,132 33,132 33,132 33,132 33,132 33,132 32,131 32,131 32,131 32,131 32,131 32,131 31,131 31,131 31,131 30,131 30,131 30,131 30,131 30,131 30,131 30,131 30,131 29,131 29,131 29,131 29,131 29,131 29,131 28,130 28,130 28,130 28,130 28,130 28,130 28,130 28,130 28,130 27,130 21,127 21,126 21,126 14,122 8,123 7,123 5,121 4,119 2,119 2,118 3,117 3,115 5,113 5,113 5,113 6,112 6,112 6,111 6,111 7,111 7,110 7,110 8,109 8,109 8,108 8,108 7,106 6,106 6,104 6,104 6,103 6,103 6,102 5,101 5,100 5,99 5,99 4,97 5,96 5,96 4,96 4,95 4,95 4,95 3,95 3,94 3,94 3,94 3,94 3,93 3,92 2,91 3,90 3,89 4,88 4,86 3,84 3,83 1,81 1,80 1,79 1,79 1,78 1,78 1,77 1,77 0,77 0,76 0,76 0,75 0,75" id="7303" class="canton" fill="steelblue" stroke-width="1" stroke="white" geotype="canton" geoname="Albertville-1" code_insee="7303" code_departement="73" nom_departement="Savoie" code_region="84" nom_region="Auvergne-Rhône-Alpes"/></svg>