<?xml version="1.0" encoding="utf-8"?>
<svg version="1.1" id="svgmap" xmlns="http://www.w3.org/2000/svg" xmlns:xlink="http://www.w3.org/1999/xlink" x="0px" y="0px" width="100%" height="100%" viewBox="0 0 500 292">
<polygon points="16,101 16,101 19,102 26,102 25,98 25,98 25,97 24,97 22,95 17,93 15,91 20,88 21,88 22,88 24,88 26,88 28,88 28,87 29,87 34,85 35,85 36,85 36,85 42,82 41,82 41,81 40,80 39,80 38,79 36,76 35,75 36,74 35,73 36,73 37,73 40,69 42,69 43,67 44,66 45,67 47,67 47,67 49,68 50,68 52,69 52,69 53,68 55,69 55,69 56,70 56,70 56,71 56,71 55,72 55,73 54,74 55,74 57,76 58,76 58,76 59,76 60,75 61,75 62,75 63,75 64,75 65,75 65,75 69,77 71,77 71,77 72,76 72,76 74,76 75,75 77,75 80,74 81,74 83,74 85,73 86,72 87,71 89,71 90,71 90,71 92,70 93,69 93,69 93,69 93,68 93,68 92,68 90,67 90,67 90,67 89,67 89,66 89,65 90,65 90,65 90,65 90,64 91,64 92,64 94,64 94,64 95,64 95,64 96,65 96,65 97,65 97,65 98,65 99,66 101,66 102,66 104,67 105,67 106,67 107,68 107,68 108,68 108,68 109,68 109,68 110,68 110,68 111,68 111,68 111,68 112,68 111,69 112,69 112,69 113,70 114,70 114,70 118,70 118,70 120,70 120,70 121,70 121,70 122,70 123,70 124,70 125,69 126,69 126,70 126,70 125,71 126,71 127,72 128,73 128,73 128,73 129,71 131,71 131,71 134,70 135,71 135,71 136,72 137,72 140,73 140,74 141,75 141,75 141,76 141,77 142,77 143,78 144,78 145,77 147,78 148,79 148,79 149,79 150,80 154,80 156,82 157,82 161,82 161,82 164,82 165,82 166,82 169,83 170,83 170,83 172,83 172,83 172,83 172,83 173,84 173,84 174,84 175,84 175,84 175,84 176,85 176,85 177,85 177,85 177,85 178,85 178,85 179,85 180,85 182,86 182,86 183,86 185,86 185,86 186,84 187,84 191,83 191,83 194,80 195,80 195,80 200,80 200,80 201,80 201,80 205,76 206,77 206,77 209,73 212,71 213,70 211,68 209,67 204,64 200,61 200,61 199,61 192,59 192,59 192,58 192,57 192,57 192,56 192,56 192,56 189,53 187,52 186,51 186,51 187,51 187,51 189,53 190,53 191,53 192,52 193,52 194,51 194,50 194,50 193,50 192,49 191,49 191,49 191,49 191,48 190,48 190,46 190,45 190,45 190,45 188,44 187,44 187,44 187,44 187,44 187,43 188,42 188,42 188,41 191,39 194,38 196,39 199,41 201,43 204,45 204,46 212,50 219,53 222,54 226,55 231,55 235,56 242,56 248,55 258,55 266,55 277,55 286,54 290,54 297,54 302,53 306,53 309,52 313,51 317,50 318,50 321,49 324,48 327,47 330,45 331,44 331,44 334,43 336,42 342,38 350,33 354,30 355,28 358,26 361,24 366,18 369,15 369,15 371,13 373,11 376,6 377,6 383,0 387,2 402,8 402,8 418,15 418,15 419,15 424,17 427,19 429,21 429,21 430,22 432,22 434,23 434,23 435,23 438,23 438,23 438,24 443,23 444,24 446,24 447,24 449,25 455,26 464,30 469,33 468,33 452,38 445,48 441,50 434,55 434,55 434,55 437,57 437,57 437,57 440,58 441,58 441,59 439,61 439,61 439,61 439,62 438,62 438,62 436,64 436,65 436,65 435,66 435,66 435,66 434,68 434,68 434,68 434,68 433,69 433,69 433,69 432,71 430,74 428,75 435,77 435,77 436,77 436,78 437,78 437,78 442,86 452,90 453,90 453,91 452,92 452,93 452,93 452,93 455,96 456,96 457,97 458,97 459,97 460,97 463,95 467,94 471,93 471,93 474,93 477,93 480,92 481,92 482,91 483,91 485,93 488,94 488,95 488,95 490,98 494,101 497,102 498,104 500,105 499,106 498,106 494,106 493,107 491,107 488,108 486,108 481,108 480,109 478,109 473,110 472,110 469,110 467,108 465,107 462,107 459,108 458,109 456,108 455,108 453,109 452,109 450,109 449,109 447,109 445,110 442,110 439,111 436,111 428,112 432,117 433,117 433,117 434,119 435,122 435,124 429,126 423,127 415,129 409,131 403,133 397,135 391,136 387,137 386,137 385,138 384,138 383,139 380,141 378,143 377,144 376,145 375,146 375,147 374,148 373,149 372,151 370,152 366,156 363,159 361,164 360,166 359,169 361,172 363,174 365,176 366,178 369,180 373,182 377,183 379,184 380,185 383,186 386,187 386,187 387,188 389,188 389,188 390,188 389,191 406,191 415,191 424,192 423,195 422,198 420,203 420,203 419,206 418,206 418,206 413,207 411,207 407,207 407,207 405,209 405,211 404,212 403,212 403,212 398,217 396,221 398,221 394,224 388,228 393,227 394,228 395,228 397,229 398,229 400,230 401,230 404,232 402,234 403,235 408,237 408,238 408,238 408,238 409,238 415,241 418,241 419,241 423,242 423,242 428,243 430,242 430,243 434,244 435,244 435,243 442,245 442,245 442,246 442,246 444,247 445,248 446,248 450,249 457,251 463,252 466,253 467,253 469,253 470,253 470,253 471,253 473,254 473,255 473,256 476,256 476,257 477,257 478,258 478,259 478,259 477,261 475,260 471,263 472,264 470,265 470,265 467,267 467,268 462,271 458,267 457,268 451,268 450,268 445,270 440,270 439,270 437,270 437,273 432,273 425,276 422,277 421,277 419,276 410,273 409,273 409,274 411,274 414,276 417,277 417,278 416,278 415,279 414,280 414,281 412,282 412,282 411,282 411,283 412,284 411,284 410,284 408,285 403,283 401,282 401,283 399,281 393,280 389,279 386,278 381,278 381,279 385,279 387,279 389,280 394,282 397,282 397,282 399,283 402,285 403,285 406,286 404,287 404,287 404,287 403,288 403,287 399,287 399,288 396,287 394,287 392,287 390,287 389,288 390,289 389,291 384,292 381,291 379,291 378,291 375,291 375,290 371,289 368,289 367,288 367,288 362,287 362,287 362,286 355,285 355,284 356,280 356,279 357,279 357,278 358,278 358,277 358,276 357,275 357,275 356,275 355,274 354,274 353,274 356,272 356,271 356,272 360,270 361,269 362,270 363,270 364,270 365,270 366,270 368,269 371,268 372,268 374,269 375,269 377,269 378,269 379,268 379,268 380,267 381,266 383,266 384,266 385,265 386,265 386,265 386,264 387,264 388,264 389,264 390,264 392,263 388,258 386,258 385,259 384,259 383,259 381,260 378,261 377,261 374,263 371,265 367,266 366,266 364,265 363,266 361,264 359,265 346,260 343,264 337,268 337,268 340,262 339,260 338,259 340,258 340,258 340,257 340,256 342,251 345,251 346,250 345,250 342,249 342,249 341,248 339,248 339,247 339,246 336,247 333,247 329,249 326,249 324,246 326,244 324,243 325,243 323,242 318,242 316,241 312,239 313,237 313,236 313,236 312,235 312,235 312,234 312,234 312,233 312,232 311,229 314,226 312,225 309,223 310,223 310,222 310,222 310,221 309,220 307,221 306,221 305,221 305,221 304,221 304,221 303,221 303,222 302,222 300,225 298,228 299,228 296,230 296,230 292,230 292,229 291,228 291,228 290,228 290,228 290,228 289,228 288,229 287,229 286,229 286,230 285,230 285,230 284,230 284,230 283,230 283,230 283,230 283,230 283,231 280,234 279,233 275,240 271,244 270,244 270,244 269,243 269,243 269,243 270,236 270,235 268,234 263,231 260,230 256,227 255,226 254,226 254,225 253,225 253,225 253,223 253,223 253,223 253,223 253,224 256,224 258,224 258,224 261,224 262,224 263,224 268,223 269,222 270,222 270,221 270,221 270,221 271,220 271,220 272,220 272,219 273,218 273,218 271,216 271,216 272,215 271,214 272,214 271,213 270,212 269,212 269,211 269,211 269,211 270,210 272,209 272,209 275,207 278,210 278,212 277,212 278,212 279,212 286,209 288,208 291,208 292,208 293,208 294,209 295,210 296,210 296,210 297,210 299,211 301,211 302,211 302,211 303,211 303,211 301,210 299,210 298,209 296,208 292,206 292,206 288,203 285,202 282,201 279,202 278,202 276,201 275,201 275,202 278,203 276,204 272,203 273,202 273,202 272,201 276,198 277,198 280,197 281,196 283,195 283,194 284,194 284,193 285,193 285,192 285,191 285,191 285,190 286,190 286,189 286,189 286,189 280,189 278,189 275,189 273,189 272,189 270,189 269,189 266,189 264,189 263,189 263,190 262,190 261,190 261,190 260,189 258,187 256,186 255,184 254,184 254,183 254,183 254,183 254,183 254,173 254,173 253,173 253,173 253,172 253,171 255,170 253,169 255,164 255,164 253,163 251,163 248,163 247,163 247,163 246,161 246,160 247,160 247,159 248,159 248,159 241,154 240,154 240,153 239,150 238,148 238,147 237,146 236,145 235,144 235,144 235,144 234,145 234,144 235,143 235,143 235,141 235,140 233,137 232,133 231,129 231,122 229,122 229,122 227,122 226,122 223,126 218,131 213,136 210,139 205,144 200,145 198,144 192,146 190,147 188,147 180,150 175,152 170,153 165,155 162,156 158,157 156,158 154,158 159,173 161,179 157,180 152,180 145,181 145,181 145,181 140,181 139,183 136,181 136,181 136,181 137,180 135,180 132,179 130,178 123,173 123,173 123,173 122,173 121,172 120,172 119,171 119,170 119,169 122,169 124,169 124,169 128,169 127,166 125,166 125,165 122,164 121,164 121,164 121,163 120,162 119,160 119,159 120,156 121,152 120,150 124,146 125,146 125,146 127,145 132,142 131,141 137,139 134,136 132,137 132,137 131,137 131,137 129,138 129,138 134,134 135,132 135,132 129,137 128,137 124,139 122,140 118,143 115,140 115,140 115,140 115,140 114,140 112,137 109,133 109,132 108,132 104,131 103,130 104,128 108,127 107,127 103,128 101,128 95,128 93,128 93,127 92,129 90,129 88,129 88,129 84,128 82,128 80,127 79,126 78,126 77,125 75,124 73,123 72,123 71,123 69,122 68,122 68,122 66,121 66,120 65,120 64,120 63,120 62,122 61,122 59,122 58,122 54,123 54,123 54,122 54,122 54,122 53,122 52,121 49,120 49,120 48,120 48,119 48,119 48,118 48,118 48,117 49,116 50,113 50,112 50,112 50,110 50,110 50,109 49,108 49,108 48,108 48,108 48,110 48,113 48,113 48,114 48,114 48,115 47,115 47,116 45,116 44,117 43,116 42,116 42,115 38,115 34,113 33,113 31,113 25,113 22,119 17,118 17,118 15,118 14,118 13,118 12,118 11,118 10,118 9,119 8,118 7,118 7,118 5,114 4,113 3,112 3,112 2,109 0,107 7,106 14,104 16,101" id="7609" class="canton" fill="steelblue" stroke-width="1" stroke="white" geotype="canton" geoname="Elbeuf" code_insee="7609" code_departement="76" nom_departement="Seine-Maritime" code_region="28" nom_region="Normandie"/></svg>