<?xml version="1.0" encoding="utf-8"?>
<svg version="1.1" id="svgmap" xmlns="http://www.w3.org/2000/svg" xmlns:xlink="http://www.w3.org/1999/xlink" x="0px" y="0px" width="100%" height="100%" viewBox="0 0 500 342">
<polygon points="3,112 4,111 5,111 7,112 11,110 12,110 19,114 20,114 22,113 25,113 29,113 32,112 36,111 37,111 38,111 39,111 40,110 40,110 40,110 41,109 41,109 42,109 42,109 43,108 44,108 44,108 44,108 44,108 45,107 45,107 46,107 46,107 47,107 48,107 48,106 49,106 50,106 51,105 56,103 59,102 61,101 63,100 64,100 65,100 66,99 66,99 67,99 69,99 70,98 71,98 73,98 76,97 77,96 78,96 78,96 78,96 80,95 80,95 81,95 81,95 83,94 85,93 88,93 90,92 92,92 94,91 94,90 95,90 96,90 97,89 98,89 99,89 100,89 102,88 102,88 102,88 103,87 104,87 104,87 105,87 105,87 107,86 108,86 108,86 108,86 109,85 112,85 112,84 115,84 119,83 124,80 125,80 129,78 130,77 132,76 140,72 147,70 153,68 157,67 161,66 165,65 169,64 169,64 169,64 170,64 171,63 172,63 176,61 178,61 181,59 182,59 182,58 182,58 183,57 184,56 184,56 185,56 184,56 185,54 183,52 184,52 183,51 183,50 184,49 184,49 184,49 183,49 182,48 182,47 181,47 181,47 181,47 182,47 182,47 182,47 183,47 183,48 184,48 184,48 185,48 185,49 185,49 185,49 185,49 185,49 185,50 185,50 185,50 185,50 185,50 185,50 185,50 185,50 185,50 185,51 185,51 185,51 185,51 185,52 186,52 186,52 186,52 186,52 187,52 188,52 189,51 188,51 190,50 190,51 191,50 191,50 192,49 192,49 193,49 192,48 187,51 187,51 186,51 186,51 188,50 188,49 188,49 187,48 186,48 186,47 184,46 183,46 183,45 184,45 184,45 185,45 186,46 187,47 188,47 188,47 189,46 189,46 203,40 206,39 208,39 213,39 215,39 217,38 223,36 229,33 236,29 242,26 247,23 248,23 254,19 257,16 258,16 258,15 259,15 260,14 260,14 261,13 261,13 262,12 263,12 264,12 265,11 265,11 266,10 267,10 267,9 268,9 268,9 269,8 270,8 271,8 271,7 272,7 272,6 273,6 273,6 274,5 275,4 275,4 276,4 276,3 277,3 278,2 278,2 279,2 280,1 281,1 282,0 282,0 288,2 287,4 287,4 290,6 294,7 295,7 298,7 298,7 299,7 299,7 303,8 305,8 307,6 308,6 308,6 311,8 311,9 312,9 311,10 310,11 310,11 310,12 311,12 313,9 314,8 315,7 316,8 316,8 315,9 314,10 314,10 314,10 313,12 313,13 312,14 312,14 313,14 312,14 312,15 312,15 314,15 314,15 315,14 315,14 315,15 315,15 315,15 315,16 314,16 313,17 313,17 312,18 312,18 311,19 317,22 318,20 326,25 325,26 324,28 324,28 330,32 331,32 332,31 333,31 334,30 335,29 338,27 339,28 339,28 340,29 341,28 342,29 342,29 340,30 340,30 338,31 337,32 336,32 335,33 329,39 329,39 330,39 331,39 332,39 333,38 333,38 334,39 336,39 336,39 334,43 332,47 336,48 339,49 344,50 345,49 346,49 346,48 352,52 352,52 354,53 354,52 354,52 355,51 355,52 356,52 356,52 356,51 357,51 357,51 358,51 359,50 360,50 361,50 361,50 361,50 361,50 362,49 362,49 363,49 363,49 363,49 364,48 364,48 364,48 364,48 365,47 365,47 365,46 365,46 365,46 365,46 365,46 365,45 365,45 365,45 365,45 366,45 366,45 366,46 366,46 367,46 367,47 367,47 367,47 367,47 367,48 367,48 367,48 367,48 367,48 367,49 367,49 367,49 367,50 367,50 367,50 367,50 367,51 367,51 366,51 366,52 366,52 366,53 366,53 365,54 365,54 365,54 365,55 365,55 365,55 365,55 365,56 365,56 365,57 365,57 365,58 365,58 365,58 366,59 366,59 366,59 366,60 366,60 365,60 366,61 368,60 368,61 369,61 369,61 369,61 369,61 368,61 368,61 368,61 368,61 368,61 368,61 368,61 369,62 369,62 369,63 369,63 370,63 370,64 371,63 371,64 371,64 372,65 372,65 372,65 372,65 372,66 373,66 374,67 374,67 375,67 375,68 376,68 376,68 378,69 381,71 382,71 382,71 383,71 383,72 384,72 384,71 385,71 385,71 385,71 387,72 390,70 397,77 398,82 398,86 398,86 397,87 393,89 392,90 397,95 402,94 403,93 401,100 400,100 397,103 401,105 395,110 398,111 395,113 393,115 393,115 394,115 395,115 395,115 396,115 398,116 400,116 401,116 403,116 404,116 405,116 407,116 410,117 409,122 412,122 411,123 413,127 418,130 421,133 423,135 423,135 426,137 427,137 430,139 430,140 428,140 427,143 428,143 428,143 429,143 430,143 430,143 431,143 431,143 433,142 434,142 435,141 435,142 436,141 437,142 441,145 442,146 443,146 444,147 445,148 446,148 446,149 447,149 447,149 448,150 451,152 453,153 453,154 454,154 454,155 455,156 455,156 456,156 456,156 458,157 458,157 459,158 459,158 461,159 462,159 465,160 466,161 470,163 473,165 474,165 475,166 476,167 477,168 479,170 482,171 482,171 484,172 488,173 492,175 495,176 494,177 500,180 497,181 495,181 490,183 486,185 485,186 482,188 477,191 475,192 471,195 469,197 468,200 467,201 466,202 465,202 464,202 463,202 462,202 462,202 460,200 458,200 459,199 456,198 454,197 453,196 450,195 449,195 449,193 451,192 451,191 451,191 450,190 448,190 448,189 448,189 447,188 447,187 447,186 447,186 446,186 445,185 443,184 441,182 440,180 436,177 433,178 434,179 431,180 430,180 430,181 428,180 427,180 426,181 425,181 423,182 424,184 423,185 420,187 419,188 418,189 417,190 417,190 416,191 416,191 415,192 414,193 414,193 412,194 412,195 410,196 408,196 408,197 407,197 403,198 401,200 399,202 398,203 398,204 398,205 398,205 398,205 396,206 397,206 397,206 397,206 397,207 397,207 398,207 398,208 398,208 398,209 398,209 398,209 397,209 392,212 389,214 387,218 386,220 383,222 382,223 377,227 378,228 377,228 377,229 376,229 376,230 375,230 376,230 376,231 376,231 375,231 371,235 366,242 367,243 367,243 367,244 366,245 368,245 374,243 377,245 376,246 374,248 371,251 371,251 370,251 370,252 366,255 364,257 363,258 359,260 353,264 353,265 353,265 350,276 349,280 347,283 346,285 345,285 344,284 344,284 343,284 343,284 342,284 341,284 341,283 341,283 338,282 338,282 336,281 335,281 335,281 334,281 334,281 334,281 333,281 333,281 333,281 332,281 331,281 330,281 329,281 329,281 328,281 327,282 327,282 326,282 325,282 325,282 325,282 325,282 325,282 325,282 324,282 324,282 323,283 322,283 322,283 322,283 321,283 321,283 321,283 318,286 317,285 316,285 316,284 313,287 312,287 312,288 311,289 311,289 311,289 310,290 309,291 309,291 308,292 308,293 308,293 307,293 307,294 307,294 307,294 307,295 306,295 306,296 306,296 306,296 306,297 305,298 304,299 305,300 306,300 307,300 308,300 308,300 308,301 308,301 309,301 310,302 311,302 311,303 311,303 311,303 311,304 311,304 312,305 312,305 313,305 313,306 314,306 313,307 313,307 313,307 312,308 311,308 310,309 309,310 307,311 307,312 306,313 306,313 305,314 302,318 301,319 300,320 299,321 299,321 299,322 300,322 300,322 300,323 300,323 299,323 300,324 301,324 300,325 300,325 300,324 299,324 299,324 299,325 299,325 299,324 299,324 298,324 294,327 293,327 292,328 285,325 279,323 278,323 278,323 278,323 278,324 277,326 277,326 276,327 276,328 272,325 272,324 271,324 265,327 273,333 275,330 276,329 278,330 276,332 275,334 275,335 274,336 273,337 273,337 272,338 272,338 271,338 270,340 268,340 267,341 267,341 266,341 264,342 263,342 263,342 261,342 259,342 257,341 255,341 254,341 253,341 252,341 252,341 252,340 252,338 252,337 253,335 254,333 254,332 255,332 255,332 254,330 254,331 252,332 250,333 248,331 248,331 247,331 247,331 246,332 244,333 239,333 233,330 230,329 225,326 224,326 224,325 222,324 221,324 220,323 222,322 222,321 222,321 223,321 225,322 225,322 226,322 226,322 226,323 227,323 227,323 230,322 231,321 238,317 236,316 235,314 234,314 233,314 232,313 230,311 229,311 229,311 227,310 226,310 226,310 226,309 226,309 224,307 222,310 219,309 219,309 218,310 222,312 221,314 221,315 220,316 218,317 216,317 219,319 221,320 217,321 216,320 215,320 215,320 215,319 214,318 214,318 213,317 212,316 210,315 208,314 207,313 207,313 209,311 211,310 212,309 213,309 213,308 214,306 214,306 214,306 213,306 212,306 209,305 205,309 204,310 202,310 202,311 201,310 200,311 200,312 199,314 198,315 197,315 196,315 196,315 194,313 194,313 193,313 193,312 191,311 190,311 189,312 189,312 187,312 186,313 186,313 183,312 183,312 181,311 180,310 178,310 177,310 174,310 174,310 174,310 170,309 170,309 170,309 170,308 168,308 168,308 167,307 166,307 166,306 169,305 174,301 173,300 170,299 168,299 168,299 168,299 167,299 167,298 166,298 165,298 165,298 164,298 164,297 163,297 163,297 163,297 161,296 165,294 161,292 159,292 158,293 158,292 157,292 157,291 157,291 157,290 157,290 156,290 157,289 157,289 157,289 156,288 155,288 154,287 153,286 154,286 155,284 155,283 155,283 155,280 154,280 154,278 155,277 155,277 155,277 154,276 154,275 154,275 154,274 153,272 152,271 152,271 153,270 152,268 153,268 154,268 155,266 155,266 155,266 157,266 157,266 159,266 159,266 159,266 159,266 159,267 159,267 161,268 162,269 162,269 162,269 163,270 164,270 166,271 167,270 169,271 169,271 170,271 169,272 169,272 168,273 167,273 167,273 167,273 168,274 168,275 168,275 169,276 170,275 172,274 173,273 174,273 176,274 176,274 179,276 179,275 180,275 181,275 180,275 183,276 183,275 184,275 184,276 186,276 189,272 188,272 188,272 190,269 191,270 194,267 192,266 192,265 191,265 189,264 188,264 188,263 187,262 187,261 186,260 186,260 185,259 185,258 185,257 185,257 185,256 185,256 185,255 184,255 183,254 182,253 181,253 180,253 179,252 178,252 176,251 175,250 174,250 172,249 154,242 152,242 151,242 148,242 147,243 144,243 138,242 135,242 136,243 136,243 136,243 135,242 134,242 135,242 134,241 134,241 133,241 133,241 133,240 133,240 132,240 132,239 132,239 133,239 133,239 133,238 133,238 133,238 133,238 133,238 133,237 133,237 133,237 133,237 134,237 133,237 133,237 133,237 132,237 132,236 132,236 132,236 132,236 132,235 132,235 132,235 132,235 132,234 131,234 131,234 130,234 130,234 130,234 130,234 129,234 129,234 129,234 129,234 128,234 128,234 127,234 127,233 126,233 126,233 125,233 125,232 124,232 125,232 125,232 126,231 125,231 125,231 125,231 125,230 125,230 125,229 125,229 125,229 125,229 125,228 125,228 125,228 125,227 125,227 124,227 124,227 125,227 125,227 125,227 124,227 123,227 123,227 123,227 123,226 123,226 123,226 123,226 123,226 122,226 122,225 122,225 122,225 122,225 121,225 121,225 120,225 120,225 120,224 120,224 119,223 119,223 119,223 119,222 118,222 118,222 118,222 118,223 117,223 117,222 117,222 115,221 115,221 115,220 115,220 114,220 114,219 114,219 113,219 113,219 113,219 113,219 113,219 112,219 112,219 112,218 112,218 111,217 111,217 110,217 110,216 109,215 109,215 109,215 109,214 108,214 107,213 106,213 106,212 106,212 106,212 106,212 105,212 105,211 105,212 104,211 104,211 103,211 103,210 103,211 102,211 102,211 102,210 102,210 102,210 101,210 101,210 100,210 98,210 98,210 97,210 97,210 97,210 97,209 97,209 96,210 96,209 95,209 95,209 95,208 95,208 94,208 94,208 94,208 94,207 93,207 93,207 93,207 94,207 95,206 95,206 95,206 94,206 94,206 94,206 93,206 92,206 92,206 91,206 91,206 91,206 92,206 92,205 92,205 91,205 91,205 91,204 91,204 91,204 90,204 90,204 91,204 91,203 91,203 91,203 91,203 92,203 92,203 91,203 90,203 87,205 86,205 86,205 85,205 85,205 85,205 85,205 84,204 84,204 83,205 84,205 85,206 81,209 81,209 82,210 81,210 80,209 78,208 78,208 78,208 77,207 77,207 75,208 74,210 74,210 73,208 64,212 64,212 65,214 65,214 65,215 64,216 65,218 65,218 64,219 64,219 64,219 64,221 64,223 59,225 56,222 48,225 45,222 44,221 43,220 28,206 28,205 28,205 28,205 28,204 28,204 27,202 27,202 26,201 25,198 30,197 29,196 29,196 29,195 27,192 29,190 28,189 29,188 31,187 32,186 32,186 33,185 33,185 36,182 35,182 34,181 34,180 34,179 33,178 33,178 33,178 34,176 35,175 35,174 35,174 35,173 36,172 36,171 35,171 36,170 38,170 41,171 43,172 43,172 46,174 50,176 50,175 51,175 52,175 52,176 54,178 54,177 54,176 54,176 54,176 53,175 54,175 54,175 55,175 55,175 56,173 55,173 55,173 55,173 55,173 55,173 54,173 55,172 55,172 55,172 55,171 56,171 56,171 56,171 56,171 56,171 57,170 57,170 57,170 57,170 57,170 58,170 59,170 59,170 60,170 63,168 63,168 63,168 64,168 65,168 66,168 67,168 67,167 67,167 66,166 65,163 64,162 64,162 63,162 60,161 60,160 59,160 57,160 56,160 55,160 55,161 54,161 54,161 54,161 54,160 54,160 54,159 54,159 54,159 54,158 52,158 51,157 50,157 48,156 47,156 45,156 44,156 42,156 41,156 40,157 38,157 37,158 36,158 35,158 34,158 34,158 34,157 34,156 34,156 34,155 35,154 36,154 37,153 37,153 36,151 35,150 34,149 33,149 32,148 31,148 24,145 23,144 22,144 21,144 20,143 20,143 21,143 20,142 20,142 19,141 17,139 10,134 9,132 7,129 4,131 3,130 0,128 0,126 0,125 3,124 5,124 6,123 6,123 7,120 6,115 3,112" id="7608" class="canton" fill="steelblue" stroke-width="1" stroke="white" geotype="canton" geoname="Dieppe-2" code_insee="7608" code_departement="76" nom_departement="Seine-Maritime" code_region="28" nom_region="Normandie"/></svg>