<?xml version="1.0" encoding="utf-8"?>
<svg version="1.1" id="svgmap" xmlns="http://www.w3.org/2000/svg" xmlns:xlink="http://www.w3.org/1999/xlink" x="0px" y="0px" width="100%" height="100%" viewBox="0 0 500 278">
<polygon points="69,87 72,83 74,81 77,79 82,74 86,70 89,67 94,61 98,57 102,53 106,48 109,45 110,43 111,40 114,36 116,28 117,27 118,25 119,21 120,19 121,18 121,16 124,11 125,9 128,2 136,5 145,8 147,8 156,12 167,16 190,24 192,24 196,26 197,28 198,28 202,24 204,22 209,15 213,8 216,0 228,3 232,4 235,6 238,8 246,15 246,15 250,19 251,19 253,21 256,23 259,26 267,21 273,17 274,16 276,16 281,18 287,20 285,24 282,29 281,31 278,33 277,34 275,35 270,37 283,45 301,55 305,56 309,57 313,55 321,59 334,65 339,67 347,71 348,70 356,69 357,68 357,68 357,67 355,64 354,62 352,57 356,58 358,56 365,47 369,42 369,45 370,47 371,48 373,50 389,60 394,62 404,66 400,70 399,73 409,76 415,78 417,83 420,89 420,90 422,93 425,102 435,100 456,96 468,94 470,94 477,93 498,99 500,105 499,106 498,108 498,111 497,115 497,119 496,121 495,123 492,128 490,131 487,134 485,137 480,139 477,140 464,145 459,146 456,146 454,147 450,147 448,148 438,153 435,153 435,155 437,158 437,159 439,160 443,161 446,164 425,190 399,225 357,278 357,278 345,277 324,275 308,273 295,272 289,271 280,271 266,269 239,267 220,265 206,264 183,262 179,262 177,262 178,255 179,255 180,250 180,250 184,238 185,234 186,233 187,232 189,230 186,226 185,225 183,223 177,220 173,221 161,225 156,226 142,231 130,234 125,235 124,235 113,237 110,237 106,238 106,233 97,232 95,232 87,232 71,230 70,229 68,227 49,224 47,224 43,224 44,223 46,214 49,205 42,205 40,205 36,204 31,204 23,203 18,201 19,199 19,198 6,195 4,194 0,194 1,192 2,189 4,186 6,183 8,182 15,177 27,169 31,167 45,164 48,165 77,167 84,167 87,167 91,167 94,166 105,164 113,161 119,159 120,158 121,158 122,157 123,157 124,156 128,154 132,153 136,151 142,150 150,148 160,145 169,142 178,139 184,137 185,137 197,134 203,132 212,130 219,128 226,127 235,125 238,124 242,123 242,123 240,121 235,115 232,112 230,110 225,108 217,103 204,96 203,96 192,90 189,89 171,82 165,80 163,80 161,81 160,83 154,86 150,88 144,92 143,92 137,95 135,95 125,93 121,92 108,91 96,91 89,90 83,90 78,89 77,89 74,88 72,87 69,87" id="7618" class="canton" fill="steelblue" stroke-width="1" stroke="white" geotype="canton" geoname="Havre-5" code_insee="7618" code_departement="76" nom_departement="Seine-Maritime" code_region="28" nom_region="Normandie"/></svg>