<?xml version="1.0" encoding="utf-8"?>
<svg version="1.1" id="svgmap" xmlns="http://www.w3.org/2000/svg" xmlns:xlink="http://www.w3.org/1999/xlink" x="0px" y="0px" width="100%" height="100%" viewBox="0 0 500 247">
<polygon points="89,23 92,24 93,24 93,25 94,25 94,25 94,25 95,25 102,27 108,31 108,31 112,33 121,37 128,40 129,40 128,41 130,42 134,44 144,51 146,50 146,49 147,50 157,57 161,59 163,61 164,62 167,64 172,67 176,70 185,77 187,79 187,79 190,81 191,82 192,83 195,84 196,84 197,84 204,86 206,87 208,88 212,88 215,88 219,88 220,88 221,89 222,89 223,89 224,89 225,89 226,90 228,90 231,91 232,91 234,92 238,93 240,94 243,94 246,94 248,94 251,94 250,94 248,90 247,90 247,89 245,83 243,79 243,78 241,77 240,75 240,74 239,73 239,73 240,71 242,70 240,67 238,65 236,64 236,64 234,62 233,61 233,60 232,58 230,55 229,53 228,51 227,48 227,45 227,44 227,43 227,41 227,39 228,29 228,29 231,31 233,31 234,32 245,40 247,41 250,41 253,41 260,40 262,39 263,39 268,36 269,35 274,34 280,31 287,30 288,30 296,29 306,29 309,29 311,29 314,29 323,30 333,31 343,31 345,30 359,26 360,25 361,25 363,23 367,18 368,18 368,17 369,16 370,16 372,16 378,15 394,10 404,8 409,8 412,8 413,8 416,8 418,8 419,8 421,8 424,7 431,4 434,3 438,3 447,2 451,2 453,2 458,1 460,1 465,0 467,0 473,2 474,9 481,24 481,24 482,25 483,30 487,33 487,41 489,48 490,50 490,60 492,65 492,67 493,73 492,80 492,81 493,83 493,86 494,90 494,92 496,96 497,97 497,98 497,101 498,103 498,104 498,104 497,106 496,107 494,112 494,113 495,113 496,114 497,115 500,116 500,116 500,117 494,120 492,122 491,123 490,125 487,129 485,133 485,134 479,141 476,146 475,148 474,149 474,149 474,149 473,150 473,150 470,151 468,151 463,152 460,153 460,153 458,153 456,154 455,155 454,157 452,159 451,160 451,160 450,161 446,165 441,169 441,170 434,177 433,178 433,178 432,179 432,180 432,180 431,182 431,182 431,183 432,184 432,184 432,185 432,185 433,187 434,188 436,190 436,191 439,194 446,202 437,202 433,210 428,221 434,224 431,226 427,228 412,239 411,240 405,237 404,236 394,232 391,240 390,241 389,242 388,240 384,237 379,233 377,230 375,228 374,227 372,226 372,227 371,227 371,228 371,229 372,232 371,234 370,237 369,238 368,239 366,240 365,241 362,244 361,245 360,246 360,247 358,247 357,245 352,245 350,245 347,246 347,247 347,247 346,247 346,247 346,247 345,247 345,247 344,246 342,246 342,246 341,246 340,246 339,246 338,246 338,246 337,245 337,245 337,245 337,245 336,245 336,245 335,245 335,245 336,244 335,244 327,241 326,241 326,241 321,239 321,239 319,239 317,238 317,237 317,237 313,236 314,235 317,232 310,228 305,220 300,220 297,221 290,226 285,228 284,228 282,229 265,234 264,234 264,234 262,235 262,235 262,235 262,235 257,236 256,234 256,234 256,234 255,233 255,233 253,232 254,230 253,229 255,229 257,229 257,228 258,228 258,228 259,227 259,226 258,223 257,219 256,215 254,207 247,207 247,205 246,205 232,207 225,207 225,206 220,206 217,206 216,207 216,209 216,214 206,219 202,218 194,209 192,210 185,211 173,213 172,214 168,214 161,216 161,216 156,216 151,217 143,218 136,218 132,219 131,219 127,220 116,221 117,224 116,224 112,222 109,220 108,219 107,219 107,218 107,218 106,215 111,214 111,214 111,214 111,214 111,213 111,213 110,213 110,213 110,212 110,212 109,212 109,211 109,211 109,211 108,211 108,210 108,210 107,209 107,209 105,208 105,208 104,207 104,207 104,206 104,205 104,205 104,203 104,202 104,202 104,202 104,202 104,202 103,202 102,202 102,202 101,202 101,202 101,202 100,202 100,203 99,203 99,203 98,203 98,203 97,202 97,202 97,202 97,202 97,202 98,201 99,200 99,200 99,200 99,200 99,200 98,199 97,199 95,199 95,199 95,198 95,198 95,198 96,198 89,195 83,191 74,186 68,183 68,182 67,182 67,182 66,181 65,181 65,181 65,181 65,180 65,180 65,180 65,179 65,179 65,179 59,169 59,169 58,168 58,168 57,168 57,168 57,168 56,168 56,167 56,167 56,167 54,165 54,165 54,165 54,165 58,163 59,163 60,163 60,163 60,162 60,162 60,161 60,160 59,159 59,159 58,158 58,158 57,158 56,157 55,157 55,156 51,152 47,146 43,142 42,140 39,137 35,134 33,132 33,132 33,131 35,122 35,122 35,121 35,121 35,121 35,121 35,121 34,120 34,119 34,119 34,119 34,119 35,119 35,119 35,119 35,118 34,117 34,117 34,117 34,117 34,117 35,114 35,111 34,110 35,109 35,109 35,109 35,109 36,108 35,105 35,105 34,105 33,106 33,107 33,107 33,107 32,107 27,107 27,107 24,108 16,108 17,115 17,119 18,120 19,123 20,126 26,137 26,139 27,140 28,141 29,142 30,142 19,143 13,135 13,135 11,132 7,127 6,125 5,124 5,123 4,122 4,122 3,121 2,119 1,118 0,116 0,115 0,115 0,114 0,114 1,113 2,112 3,112 4,111 4,111 5,111 5,110 5,110 5,109 5,109 5,108 5,108 3,104 4,104 4,102 5,100 5,98 7,96 8,96 8,96 8,94 7,92 7,92 7,91 8,90 9,90 10,89 11,89 13,88 15,88 16,87 18,86 18,86 22,83 24,82 27,80 29,79 31,78 33,78 34,78 38,76 44,75 45,75 46,74 50,73 50,73 51,73 51,73 57,76 58,76 61,77 65,82 65,82 67,81 68,80 72,80 72,80 74,79 85,79 96,78 97,78 98,78 96,73 96,71 95,70 94,68 94,67 92,62 91,58 90,54 89,53 89,51 87,47 85,39 84,37 83,35 83,34 84,32 84,32 84,31 85,29 86,28 88,25 89,23" id="7622" class="canton" fill="steelblue" stroke-width="1" stroke="white" geotype="canton" geoname="Mont-Saint-Aignan" code_insee="7622" code_departement="76" nom_departement="Seine-Maritime" code_region="28" nom_region="Normandie"/></svg>