<?xml version="1.0" encoding="utf-8"?>
<svg version="1.1" id="svgmap" xmlns="http://www.w3.org/2000/svg" xmlns:xlink="http://www.w3.org/1999/xlink" x="0px" y="0px" width="100%" height="100%" viewBox="0 0 500 262">
<polygon points="4,104 4,104 6,100 6,100 8,99 9,98 10,98 10,98 11,98 11,97 11,97 11,97 11,96 12,96 13,95 13,95 15,94 16,93 18,92 18,92 19,91 20,90 20,89 21,88 22,88 24,87 26,85 26,86 28,86 29,86 32,87 32,88 35,88 35,87 38,85 41,84 40,84 44,83 45,83 55,78 55,77 56,77 55,77 53,76 53,76 53,75 52,75 52,74 50,72 51,72 51,71 51,71 51,70 50,70 50,70 50,69 50,69 50,68 48,67 48,67 47,66 47,65 46,65 47,64 47,63 48,62 48,62 48,62 48,61 48,61 49,60 49,58 49,57 50,56 50,55 50,55 49,54 49,54 49,54 49,53 49,52 49,51 49,51 49,50 50,49 51,49 51,48 52,47 52,47 52,46 51,46 50,45 48,45 48,44 48,43 48,43 48,42 48,42 48,42 48,41 49,41 50,40 52,38 52,38 52,36 53,32 51,31 50,30 50,28 50,27 51,24 51,23 55,19 53,19 52,19 50,19 48,19 47,18 47,18 45,17 44,16 43,15 42,14 42,14 40,13 39,13 38,12 37,11 35,10 32,8 31,7 32,6 36,3 39,1 40,1 41,0 43,0 43,0 44,1 44,1 44,1 45,1 45,1 45,2 46,2 47,3 47,3 47,3 47,4 48,4 48,4 49,5 50,6 50,7 51,7 51,7 51,7 52,8 53,9 54,10 55,10 56,11 57,11 57,12 58,12 58,12 58,12 61,12 62,12 58,13 59,13 59,13 59,13 60,14 61,14 61,14 62,15 63,15 64,15 65,16 67,17 71,18 70,19 72,20 73,20 74,20 74,21 75,21 74,23 79,25 78,25 85,27 86,26 87,25 92,28 92,28 94,29 93,31 99,35 101,36 101,36 103,37 103,37 104,37 106,38 106,39 115,43 116,44 117,44 117,45 117,45 118,45 118,45 118,45 118,45 118,45 119,46 119,46 119,46 120,46 120,46 120,46 122,47 122,47 123,47 123,47 124,48 126,49 127,48 127,48 127,48 129,46 129,45 129,44 129,43 132,41 132,41 135,39 138,38 139,37 139,37 140,36 140,33 144,31 144,32 144,33 144,34 144,34 144,35 145,35 145,35 145,36 145,37 146,38 147,39 147,39 147,40 148,40 148,41 149,41 149,41 150,42 150,42 151,43 151,44 152,44 154,46 155,49 157,51 157,52 158,53 158,53 158,53 158,53 158,54 159,54 159,54 159,55 158,55 158,56 158,56 158,56 158,56 158,57 159,57 159,57 159,57 160,57 161,58 161,59 162,58 164,58 164,58 168,58 173,58 173,58 173,58 173,58 174,58 174,58 174,58 178,57 178,57 178,57 179,57 179,57 180,58 182,59 182,59 182,59 182,59 184,60 184,60 185,60 185,60 185,60 186,59 186,59 186,59 187,58 187,58 186,58 185,57 185,58 184,58 184,57 184,57 184,57 184,58 184,58 184,57 184,57 184,57 184,57 184,57 183,57 183,57 183,57 184,57 184,56 184,56 185,56 185,56 186,56 186,55 186,55 186,55 186,54 187,54 186,54 186,54 186,54 183,52 184,52 183,50 184,50 183,47 184,47 183,46 183,46 184,46 183,45 183,43 184,43 183,42 184,41 183,40 185,39 185,39 184,38 187,37 188,36 188,36 188,36 188,35 188,35 189,34 189,34 189,34 189,34 189,33 189,33 188,32 187,31 187,31 187,31 187,31 186,30 186,29 186,29 186,29 185,29 184,27 184,27 180,25 180,24 179,23 179,23 178,22 179,22 178,22 179,21 177,20 178,19 183,18 186,17 187,17 189,16 189,16 190,16 193,16 194,16 195,16 196,16 200,15 203,14 206,14 211,13 213,13 215,13 216,13 216,14 217,14 219,14 220,15 222,15 222,15 224,16 224,16 225,18 228,15 230,16 231,16 231,16 232,16 233,17 234,17 234,17 235,17 235,16 235,16 235,17 235,17 236,17 236,18 237,18 237,18 237,19 238,19 239,19 239,19 239,19 240,19 240,19 239,19 240,19 241,19 244,18 243,18 245,17 247,18 250,15 249,15 251,12 251,12 252,11 253,9 251,8 252,7 253,7 254,6 256,7 256,7 258,9 259,8 260,8 262,8 262,8 264,8 264,8 264,8 265,8 266,8 266,8 268,8 268,8 269,7 270,7 272,7 273,9 273,8 274,8 274,8 275,8 275,8 276,9 277,9 277,9 277,10 278,10 278,11 278,11 278,12 278,12 278,13 278,13 278,13 278,14 279,14 279,14 279,14 281,15 280,15 280,15 281,15 281,15 280,16 279,17 279,18 279,19 278,20 278,20 279,20 280,21 281,22 281,23 282,23 282,23 285,24 285,24 286,24 286,24 286,25 287,25 286,26 286,26 287,26 287,26 287,26 287,26 288,26 288,26 288,26 289,26 290,26 291,27 291,27 291,27 292,27 292,27 293,28 294,27 294,27 295,27 295,27 295,27 296,27 296,27 296,27 296,27 297,28 297,28 297,28 298,30 298,30 298,30 298,31 298,31 299,31 299,31 299,31 299,32 299,32 299,32 299,33 299,33 298,34 298,34 298,34 297,35 297,36 296,37 296,37 296,37 297,38 297,39 298,39 298,40 298,40 298,41 298,41 298,42 298,42 299,43 299,43 298,43 298,44 298,44 297,44 297,44 297,44 297,45 296,46 295,46 294,48 294,48 294,50 293,51 293,52 293,52 293,53 293,53 293,54 292,55 292,55 293,55 293,55 293,56 294,57 295,57 296,57 298,58 299,58 300,58 302,58 303,58 304,58 305,58 306,57 307,57 309,57 310,56 310,55 311,55 311,54 312,54 314,53 316,53 319,55 321,55 322,55 322,55 322,56 324,58 326,57 326,57 329,60 326,60 326,60 326,60 325,61 323,61 323,62 320,64 320,64 320,64 319,65 319,65 317,67 317,67 316,68 316,68 316,68 315,69 315,69 315,69 315,69 316,70 316,71 317,71 317,71 317,72 317,72 318,72 318,72 318,73 318,73 318,73 319,74 319,74 319,74 319,74 320,74 320,75 320,75 321,75 321,75 321,76 321,76 322,76 322,76 322,76 322,76 323,77 323,77 323,77 323,77 323,77 323,77 323,77 324,78 327,78 327,78 327,79 331,80 333,80 333,82 332,83 332,83 333,83 333,83 334,83 334,84 336,85 337,85 341,85 340,86 340,86 341,87 342,87 342,87 343,87 344,87 344,87 346,88 347,89 348,89 349,89 349,90 351,89 352,90 352,91 353,91 353,91 355,92 359,92 360,92 360,92 361,92 364,93 366,93 368,94 372,93 372,93 372,94 372,96 371,97 371,97 371,98 370,99 369,100 371,99 375,98 379,98 382,97 384,97 385,98 386,98 386,97 387,97 387,98 386,101 387,101 388,102 389,102 390,102 386,109 381,107 380,110 381,110 382,109 386,110 386,112 385,113 387,114 387,114 392,116 393,115 394,116 395,117 395,117 397,116 398,117 399,117 400,118 403,117 403,118 404,119 405,119 406,119 405,120 406,120 407,120 408,120 408,120 408,120 409,119 409,119 410,119 410,119 411,120 411,120 411,120 412,120 413,121 412,121 411,121 411,122 410,122 409,124 409,124 408,124 407,125 405,127 405,127 404,128 403,128 402,129 401,129 400,131 399,131 398,131 396,132 395,132 393,133 392,134 391,135 390,137 391,137 391,138 391,138 392,137 393,136 393,136 393,136 393,136 394,136 395,135 395,135 396,135 396,135 397,135 397,135 397,135 397,136 397,137 397,137 397,137 397,137 397,137 396,138 397,139 397,139 397,139 397,139 398,139 398,139 398,139 400,141 400,141 400,141 400,141 400,142 400,143 401,144 401,144 401,144 401,144 401,145 402,146 402,146 403,147 403,147 403,147 404,148 406,147 406,147 407,147 408,147 410,147 412,146 412,146 413,147 417,148 418,148 419,149 420,149 424,148 425,148 425,148 428,149 429,149 431,149 431,149 431,150 434,151 435,152 436,152 436,152 437,152 437,151 438,151 439,151 440,151 440,151 441,151 442,151 443,151 444,151 444,151 445,151 445,151 446,151 446,151 445,154 443,155 445,155 446,156 447,156 448,157 450,158 450,158 451,158 452,158 453,158 456,158 457,158 459,158 461,158 462,158 464,158 465,158 469,157 471,157 472,156 474,156 475,155 476,155 478,156 479,156 479,156 480,157 481,159 483,160 483,160 483,160 484,160 485,160 485,161 485,161 484,163 483,164 482,165 481,166 481,167 480,167 480,168 479,169 479,170 480,172 480,173 480,174 481,176 481,176 481,177 480,177 480,177 480,178 479,179 479,179 479,180 478,181 479,181 478,182 479,182 479,182 479,182 479,183 478,184 478,184 479,184 479,184 480,184 480,185 481,185 482,185 484,186 484,186 484,186 485,187 485,188 486,188 487,188 487,188 488,188 490,188 491,188 492,187 492,187 495,188 497,188 497,189 497,190 498,190 499,191 499,191 500,191 500,191 499,192 495,197 493,197 491,197 489,198 486,199 483,199 483,200 481,201 476,205 476,205 474,207 472,209 471,212 467,212 467,212 463,212 462,210 461,209 461,209 462,208 462,208 462,207 462,207 462,206 461,206 461,206 460,205 460,204 459,204 459,203 458,203 458,202 457,201 457,202 457,202 454,202 454,202 453,202 450,202 450,203 450,203 451,205 452,206 452,206 452,207 451,207 451,207 451,207 451,207 451,207 451,208 451,208 451,208 451,208 450,208 450,209 451,209 450,209 450,209 450,210 450,211 449,210 448,210 447,210 447,210 446,211 446,211 445,211 443,211 443,211 442,211 441,211 440,212 440,212 440,212 439,212 439,212 439,212 438,212 437,212 436,212 433,213 432,213 431,213 431,213 431,213 431,213 431,213 430,214 430,215 430,215 429,215 427,216 427,216 425,216 423,215 421,215 421,215 421,215 420,215 418,215 417,216 417,216 415,216 414,216 414,216 413,217 412,217 412,217 412,217 411,218 410,218 410,217 409,217 407,216 407,216 407,216 406,215 406,215 406,217 406,217 406,218 406,218 406,218 406,219 406,219 406,220 407,220 407,221 407,221 407,221 407,221 408,221 408,222 408,222 408,222 409,223 408,223 408,223 408,223 408,223 408,223 409,224 409,224 409,224 409,225 410,226 410,226 410,226 410,227 410,227 410,227 409,227 409,227 408,227 408,227 407,227 407,226 407,226 406,226 406,226 406,226 406,226 405,226 405,226 405,226 405,226 405,226 404,226 403,226 403,226 402,226 402,226 401,225 401,225 400,225 400,225 400,225 399,225 399,224 399,224 399,224 397,223 396,222 395,222 395,221 395,221 394,221 394,220 392,219 392,219 392,219 391,219 390,218 389,218 389,218 389,217 389,217 387,217 386,216 385,216 385,216 384,215 383,215 383,215 382,215 382,215 382,215 382,215 382,214 382,214 382,214 383,213 383,213 383,212 383,212 383,212 383,211 382,210 382,210 382,209 381,209 381,209 380,209 380,208 378,208 378,208 378,208 377,208 377,208 373,207 373,207 371,207 369,208 368,207 367,208 366,208 365,208 364,209 364,208 361,205 361,205 360,205 360,204 359,204 359,204 358,204 358,204 358,204 358,204 358,204 358,204 358,204 357,204 357,204 357,204 356,205 355,205 354,205 353,205 353,205 353,206 352,206 352,206 352,206 351,206 351,206 351,206 351,206 350,206 350,206 350,206 349,206 349,206 349,206 348,206 348,206 348,206 347,206 347,206 346,206 343,210 342,211 342,210 342,211 342,211 342,212 342,212 342,212 342,212 342,212 341,213 341,213 340,212 340,213 340,214 339,214 339,214 339,215 339,215 339,215 338,216 338,216 338,216 339,217 339,217 339,216 340,217 341,217 347,220 347,220 347,220 347,220 347,220 347,220 347,220 347,221 347,221 347,221 348,221 348,221 348,221 349,221 352,221 345,226 343,225 344,234 344,234 344,240 344,249 345,251 345,251 344,251 344,258 345,258 345,258 345,258 345,258 346,259 346,259 346,259 347,259 347,259 346,260 344,260 339,261 337,261 337,262 336,262 335,262 308,262 307,262 307,262 299,255 288,245 278,237 279,237 279,237 280,237 282,237 282,237 282,237 283,236 284,236 284,235 284,235 285,234 285,234 285,234 286,233 288,233 290,232 290,232 291,231 286,227 285,226 287,225 292,223 292,223 292,223 292,223 291,222 291,222 290,221 289,220 288,219 288,219 287,218 286,217 286,216 286,216 292,212 291,212 290,211 290,211 288,210 288,210 288,209 288,208 287,208 287,207 287,207 286,206 286,205 285,204 284,204 283,203 282,202 281,202 281,202 280,202 280,202 280,202 271,203 270,203 270,203 269,204 269,204 268,204 260,201 259,201 258,202 258,202 258,202 255,203 254,203 254,203 253,203 252,203 251,204 251,204 250,204 249,204 248,204 247,204 247,204 246,204 246,204 245,204 242,205 241,206 240,206 240,206 240,206 239,206 237,206 236,206 236,206 235,206 234,206 234,206 233,206 233,206 232,206 230,206 229,206 228,206 227,206 226,206 225,206 224,206 224,207 224,205 225,204 225,203 227,202 227,201 228,200 229,200 232,199 234,198 235,198 235,197 236,196 236,196 236,195 236,195 237,196 240,197 240,196 240,196 244,197 244,197 253,196 253,195 252,194 251,192 249,191 248,190 246,189 245,188 257,189 262,189 261,186 260,182 260,181 261,181 261,181 259,180 257,179 256,177 256,176 256,175 256,173 255,172 255,172 254,169 254,169 254,169 255,167 255,166 256,166 255,166 255,165 254,165 253,165 253,164 254,164 255,163 254,161 255,161 256,161 260,161 260,161 262,160 262,160 267,158 267,158 269,156 270,156 270,155 271,155 271,155 273,154 274,154 274,154 276,153 276,153 279,152 278,152 281,151 280,150 279,150 279,150 278,149 278,149 278,149 278,148 277,148 278,147 279,147 277,146 277,146 281,144 282,144 283,143 284,143 285,142 286,140 287,139 289,138 290,138 290,138 290,137 291,135 296,132 297,131 294,129 292,129 292,128 292,128 292,128 291,128 285,125 286,124 286,124 286,124 286,124 287,124 287,123 288,123 288,123 288,123 289,123 289,122 290,122 290,122 291,121 292,121 293,121 294,121 294,121 293,119 293,117 293,116 293,115 293,114 293,113 293,113 292,113 290,113 290,112 288,112 288,111 287,112 286,110 286,110 286,108 287,108 288,108 289,109 289,108 288,106 289,106 289,106 289,106 290,105 291,104 291,104 291,104 292,102 292,102 292,102 291,102 289,102 289,102 287,102 286,102 284,102 283,102 282,102 282,103 275,101 275,101 269,103 269,103 269,103 268,103 268,103 267,103 266,103 264,103 264,104 263,104 261,105 261,105 261,106 261,106 260,106 260,106 252,107 252,107 247,107 247,107 245,107 243,106 238,105 236,103 234,104 234,105 233,105 230,105 227,107 226,108 223,110 222,109 222,108 222,106 220,105 216,103 216,102 213,104 212,106 212,106 211,107 210,108 209,109 209,110 205,109 201,110 198,112 194,110 193,109 194,109 192,108 192,107 193,107 194,106 195,105 195,105 196,104 197,104 197,103 197,102 200,102 201,101 204,100 208,99 208,99 211,100 213,99 210,97 210,97 206,95 206,95 203,94 201,92 200,92 199,91 197,90 196,90 195,90 195,90 194,89 192,89 191,88 191,88 190,88 188,87 187,87 187,87 186,87 186,87 185,86 185,86 185,86 184,86 184,86 181,84 181,84 177,82 176,81 175,81 175,81 174,81 174,81 173,82 172,82 171,83 170,83 169,84 166,86 166,86 166,86 166,87 166,87 166,88 166,89 166,89 166,91 166,91 166,93 166,94 167,96 167,96 165,96 163,97 159,97 159,97 157,98 154,99 150,100 150,100 149,101 149,101 149,100 148,99 148,99 148,98 147,98 147,98 147,97 147,97 147,97 147,97 147,96 147,96 147,96 147,95 146,95 146,95 146,94 146,94 146,94 145,93 145,93 145,93 144,93 144,93 143,93 143,92 143,92 142,92 141,91 140,91 139,91 138,91 138,91 138,91 138,90 137,90 137,90 136,90 136,89 135,89 135,89 134,88 134,88 134,88 134,88 134,88 134,86 133,86 133,84 133,84 132,84 132,83 131,83 131,83 131,82 130,82 130,81 129,81 129,81 129,81 129,80 128,80 128,79 128,78 127,78 127,77 127,76 127,76 127,76 127,75 127,74 125,74 125,74 125,74 125,74 121,73 121,73 121,72 117,72 117,71 115,72 115,73 112,74 112,74 112,74 113,74 113,74 113,74 113,74 113,75 113,75 113,75 113,75 113,76 112,77 112,77 112,77 112,77 112,77 112,78 111,79 111,79 111,79 111,80 111,79 109,83 107,89 106,90 107,91 107,91 107,91 106,92 106,95 103,99 110,100 109,103 112,102 112,103 112,103 112,104 112,104 112,105 113,105 112,105 112,105 111,106 112,107 114,106 115,107 113,109 114,110 113,110 117,112 117,112 119,113 121,113 124,118 123,119 120,119 119,119 118,119 118,119 117,119 117,119 117,119 117,120 113,118 113,117 113,117 107,119 98,125 98,125 98,125 98,125 98,125 98,126 98,126 98,126 98,127 98,127 98,128 97,128 97,128 96,128 96,128 95,128 95,128 95,128 95,128 95,129 94,129 94,129 94,129 94,130 91,128 90,130 88,130 88,131 88,131 88,131 87,134 84,134 84,133 79,135 77,136 77,136 77,135 77,135 76,135 76,135 76,135 76,135 76,134 76,134 76,133 76,133 73,131 73,131 72,130 72,130 72,129 71,130 70,130 70,130 70,130 69,131 69,131 69,131 69,132 68,132 68,132 69,132 69,132 70,133 69,134 69,134 69,134 69,135 68,135 67,135 67,136 67,136 67,137 67,137 67,137 67,138 67,138 67,138 67,138 67,138 67,139 67,139 67,139 67,139 67,139 67,139 67,139 66,140 66,140 65,140 65,140 65,140 65,140 65,140 64,140 64,140 64,140 63,140 62,141 62,141 62,141 62,141 62,141 62,141 62,141 61,141 61,141 59,141 58,141 57,141 57,141 56,141 56,141 56,141 55,141 55,141 55,142 56,142 56,143 56,143 55,143 55,143 53,144 53,143 53,143 52,143 51,143 49,142 46,142 43,142 43,142 41,142 40,141 39,142 37,142 37,141 35,142 35,142 35,142 35,143 34,143 33,142 32,142 30,137 30,137 29,137 29,137 28,137 28,136 27,134 27,134 27,133 27,133 25,133 23,133 23,131 22,130 21,130 21,131 20,131 19,130 18,130 18,131 17,132 16,132 15,131 15,130 15,129 13,128 13,125 13,125 12,125 9,125 8,125 8,124 7,123 5,124 4,125 3,125 2,125 1,125 1,125 0,124 0,123 0,123 2,122 3,121 4,120 5,118 5,117 4,116 3,114 2,113 2,112 3,112 3,111 6,111 6,111 6,110 5,106 4,106 4,105 4,104 4,104" id="7624" class="canton" fill="steelblue" stroke-width="1" stroke="white" geotype="canton" geoname="Notre-Dame-de-Bondeville" code_insee="7624" code_departement="76" nom_departement="Seine-Maritime" code_region="28" nom_region="Normandie"/></svg>