<?xml version="1.0" encoding="utf-8"?>
<svg version="1.1" id="svgmap" xmlns="http://www.w3.org/2000/svg" xmlns:xlink="http://www.w3.org/1999/xlink" x="0px" y="0px" width="100%" height="100%" viewBox="0 0 500 279">
<polygon points="5,52 5,52 5,52 9,51 10,51 11,51 12,51 13,51 14,51 15,51 15,51 16,51 16,51 17,51 17,51 19,52 20,52 21,51 22,50 22,50 23,50 23,50 25,48 26,48 27,48 27,47 29,48 29,47 30,48 31,47 30,47 31,46 33,46 33,45 34,45 36,44 36,43 38,43 39,42 40,42 42,43 43,43 45,44 46,44 47,44 47,44 48,44 49,42 49,41 52,37 52,37 53,35 56,36 57,37 57,37 57,37 58,37 58,37 59,38 59,38 64,39 66,39 69,41 70,41 71,41 71,41 72,41 72,41 75,42 75,42 75,42 76,43 76,43 76,43 76,43 77,43 77,44 79,43 80,43 81,43 83,42 83,42 84,42 84,41 85,41 88,40 88,39 90,40 90,41 90,41 89,42 91,43 91,42 93,43 93,43 96,44 96,44 96,44 97,44 97,43 99,43 99,41 99,41 100,40 100,40 100,39 100,38 101,38 101,37 101,37 100,36 100,35 100,35 102,32 102,32 104,33 104,33 104,33 104,33 104,33 105,34 106,34 108,34 108,34 108,34 108,34 108,34 108,34 108,34 109,34 109,34 109,34 109,34 113,35 113,35 113,35 115,34 116,33 116,33 116,33 118,32 118,32 118,32 118,32 120,31 120,31 121,30 123,29 123,29 126,29 126,29 126,29 127,29 126,31 126,31 126,31 127,31 127,31 127,31 127,31 128,31 128,31 130,31 130,31 128,34 127,35 130,35 131,35 131,36 130,37 132,41 133,44 133,44 133,45 133,46 133,47 134,47 134,48 136,47 136,48 136,48 136,50 138,49 138,49 139,49 140,50 142,51 142,50 144,50 146,51 147,50 148,50 148,46 147,45 148,42 149,40 150,38 151,37 151,37 152,36 152,36 152,36 154,35 154,35 155,35 156,34 157,33 159,33 159,33 160,33 160,33 161,31 162,32 165,32 165,33 167,34 170,29 170,29 170,29 171,29 173,29 177,29 178,29 185,32 186,32 186,32 187,33 187,33 188,33 191,34 192,35 195,35 195,34 196,31 197,32 198,32 198,32 201,33 201,33 203,34 203,34 204,34 204,34 204,34 204,33 204,33 205,33 207,33 212,34 212,34 212,34 212,35 214,35 214,35 215,35 216,36 220,35 220,34 219,34 220,32 220,32 223,33 223,33 223,33 223,33 224,32 227,34 227,34 229,34 229,34 231,36 232,35 232,35 232,35 232,35 232,34 232,34 232,34 232,34 232,34 232,34 231,34 231,33 231,33 231,33 231,33 231,33 231,32 230,32 230,32 230,32 230,31 230,31 230,31 229,31 229,31 229,30 229,30 229,30 229,30 229,30 229,30 229,30 228,30 228,30 228,30 228,30 227,29 227,29 226,29 226,29 226,29 226,29 225,29 225,29 225,29 225,29 225,29 225,29 225,29 225,28 226,28 225,28 224,27 224,27 224,27 224,27 224,26 224,26 224,26 223,26 223,26 223,26 223,26 223,26 222,26 222,25 222,25 222,25 222,25 222,24 222,24 222,24 222,24 222,24 222,23 221,23 221,23 221,23 221,23 221,23 221,23 221,22 221,22 221,21 221,20 221,20 222,20 222,19 221,19 221,19 221,18 221,18 221,18 221,17 221,17 222,17 222,17 222,17 222,17 223,17 223,17 224,17 225,17 225,17 225,17 225,17 225,17 225,16 225,16 225,16 225,16 225,16 225,16 225,16 225,15 225,15 225,15 225,15 226,15 226,15 226,15 226,14 226,14 226,14 226,14 227,14 227,14 227,14 227,14 227,14 227,13 228,13 228,12 228,12 228,12 228,12 228,11 228,11 229,10 229,10 229,10 229,10 229,10 229,9 229,9 229,9 229,9 230,8 230,8 230,8 231,8 231,8 231,8 231,8 231,8 231,8 231,7 231,7 231,7 231,7 231,7 231,7 231,7 232,7 232,7 232,7 233,7 233,7 234,7 234,7 234,6 234,6 234,6 234,6 233,6 233,6 233,5 233,5 234,5 234,5 234,5 235,5 235,5 235,5 235,5 235,4 235,4 235,4 235,4 235,4 234,4 234,4 234,4 234,4 234,4 234,4 234,3 235,3 235,3 235,3 235,3 235,3 235,2 235,2 235,2 235,2 236,2 236,2 236,2 237,2 237,2 237,2 236,1 236,1 236,1 236,1 236,1 236,1 236,1 236,0 236,0 236,0 236,0 237,0 237,0 237,0 237,0 237,0 237,0 237,0 238,0 238,0 238,0 238,0 238,0 238,0 239,0 239,0 239,0 239,0 239,1 239,1 239,1 239,1 240,1 240,1 240,1 240,1 240,1 240,2 241,2 241,2 241,2 241,2 241,2 241,3 241,3 242,3 242,3 242,3 242,3 242,3 242,3 242,3 242,3 243,3 243,3 244,3 244,3 245,3 245,4 245,4 246,4 245,4 245,4 245,5 247,5 247,5 247,6 247,6 247,6 247,6 247,6 247,6 247,6 247,6 248,6 248,6 249,6 249,6 249,6 249,6 250,6 250,6 250,6 250,6 250,6 250,6 250,6 250,6 250,6 251,6 251,6 251,6 251,6 251,6 251,6 251,6 252,6 253,6 253,6 253,6 253,6 253,6 254,6 254,6 254,6 254,6 255,6 255,6 255,7 255,7 255,7 255,7 255,7 255,7 255,7 255,7 256,7 256,7 256,7 256,7 256,7 257,7 257,7 257,7 257,7 258,7 258,7 258,7 258,7 258,7 259,7 259,7 259,7 259,7 259,7 259,7 259,8 260,8 260,8 260,8 260,8 261,8 261,8 261,8 261,8 261,8 261,8 261,8 261,8 262,8 262,8 262,8 262,8 262,8 262,8 263,8 264,7 264,7 264,7 265,7 265,7 265,7 265,7 266,8 266,8 266,8 267,8 267,8 267,8 267,8 268,8 268,8 268,8 268,8 268,8 267,8 267,8 267,8 267,8 267,8 267,8 267,8 267,8 267,8 268,9 268,9 268,9 268,9 269,9 269,9 269,9 269,9 269,9 269,9 269,9 269,9 269,10 268,10 268,10 269,10 269,10 269,10 269,10 269,10 269,10 269,10 269,10 269,10 270,10 270,10 270,10 270,10 270,10 270,10 270,10 270,10 270,10 271,10 271,10 271,10 271,10 271,11 272,11 272,11 272,11 272,11 272,11 273,11 273,11 273,11 273,11 273,11 273,11 274,11 274,11 274,11 274,11 274,11 274,11 274,11 274,11 274,11 275,11 275,11 275,11 275,11 275,11 275,11 276,11 276,11 277,11 277,11 277,11 277,11 277,11 278,11 278,11 278,11 278,11 278,11 279,11 279,11 279,11 279,11 279,11 280,11 280,11 280,11 280,11 280,11 280,11 281,11 281,11 281,11 281,11 281,11 282,11 282,11 282,11 283,11 283,11 284,11 284,12 284,12 284,12 285,12 285,12 285,12 285,12 285,12 286,11 286,11 286,11 286,11 286,11 286,11 286,10 287,10 288,10 288,10 288,10 289,10 289,10 290,10 290,10 290,10 291,9 291,9 292,9 292,9 292,9 293,10 293,10 293,10 293,10 293,10 294,11 294,11 294,11 294,12 294,12 294,12 295,12 295,12 295,12 295,12 295,12 295,12 295,12 296,12 296,12 296,12 296,12 296,12 296,12 296,12 296,12 296,12 296,13 296,13 297,13 297,13 297,13 297,13 297,13 297,13 297,13 297,13 297,13 297,13 297,13 297,13 297,13 297,13 297,13 297,13 298,13 298,13 298,13 298,13 298,13 298,13 298,13 298,13 298,13 299,13 299,13 299,13 299,13 299,13 299,13 299,12 299,12 299,12 299,13 299,13 299,13 299,12 299,12 299,12 300,12 300,12 300,12 300,12 300,12 300,12 300,12 300,12 301,12 302,12 302,12 302,11 302,11 302,11 302,11 302,11 302,12 302,12 302,12 303,12 303,12 303,12 303,12 303,12 303,12 303,12 303,12 303,11 303,11 303,11 303,11 303,12 304,12 304,12 304,12 304,12 304,12 304,12 304,11 304,11 304,11 305,11 305,12 305,12 305,12 305,12 305,12 305,12 306,12 306,12 306,12 306,12 306,12 307,12 307,12 307,12 307,12 307,11 307,11 307,11 308,11 308,11 308,11 308,11 309,11 309,11 309,11 309,11 309,11 309,11 309,11 309,11 310,11 310,11 310,11 310,11 310,11 310,12 310,12 310,12 310,12 310,12 310,12 310,12 310,12 310,12 311,12 311,12 311,12 311,12 312,12 312,12 312,12 312,12 312,12 312,13 312,13 312,13 312,13 312,13 312,13 312,13 312,13 312,13 312,13 312,13 312,13 312,13 313,14 313,14 313,14 313,14 313,14 313,14 312,14 312,14 312,14 312,14 312,14 312,14 312,14 312,14 313,15 313,15 313,15 313,15 313,15 313,15 314,15 314,15 314,15 314,15 314,15 314,15 314,15 314,15 315,15 315,16 315,16 315,16 315,16 315,16 316,16 316,16 316,16 316,17 316,17 316,17 316,17 316,17 316,17 316,17 316,17 317,17 317,17 317,17 317,17 318,17 318,17 318,17 318,18 318,18 318,18 319,18 319,18 319,18 319,18 319,18 319,18 320,18 320,18 320,18 320,18 320,18 320,18 320,18 320,18 321,18 321,18 321,18 321,18 321,18 321,18 321,18 321,18 321,18 322,18 322,18 322,19 322,19 322,19 323,19 323,19 323,19 323,19 324,19 324,19 324,19 324,19 325,19 325,19 325,19 325,19 325,19 325,19 325,19 325,19 325,19 326,19 326,19 326,19 326,19 327,19 327,19 327,19 327,19 327,19 327,19 327,19 328,19 328,20 328,20 328,20 328,20 328,20 329,20 329,20 329,20 330,20 330,20 330,20 330,20 330,20 330,20 330,20 331,20 331,20 331,20 331,20 332,20 332,20 332,20 332,20 332,20 332,20 333,20 333,20 333,20 333,20 334,20 334,20 334,20 334,20 334,20 335,20 335,20 335,20 335,20 335,20 335,20 335,20 335,20 335,20 336,20 336,20 336,20 336,20 336,20 336,20 336,20 336,20 337,20 337,20 337,20 337,20 337,20 337,20 337,20 337,20 337,20 338,20 338,20 338,20 338,20 339,20 339,20 339,20 339,20 339,20 339,20 340,20 338,24 337,24 337,24 337,25 337,25 337,25 337,25 337,25 337,25 337,25 337,26 337,26 336,26 336,26 336,26 336,26 336,26 336,26 336,27 336,27 336,27 336,27 336,27 336,27 336,28 335,28 336,28 335,28 336,28 335,29 335,29 335,29 335,29 335,29 335,29 335,29 334,29 334,29 334,29 334,30 334,30 334,30 334,30 334,30 334,30 334,31 333,31 333,31 333,32 333,33 333,33 333,33 332,33 332,33 332,33 331,34 330,34 330,34 329,35 327,37 327,38 332,40 332,41 336,42 337,42 341,43 352,52 355,57 356,57 356,58 356,58 356,58 357,59 357,60 358,60 358,61 357,62 357,63 357,64 357,65 357,65 357,65 357,66 357,67 356,67 356,67 356,68 356,68 357,68 358,68 358,69 358,69 358,69 357,71 358,71 365,71 366,71 366,71 366,72 367,72 367,75 367,77 366,78 356,79 355,81 357,81 359,83 359,83 359,83 358,84 357,85 357,85 357,86 354,86 354,88 355,91 355,91 355,91 354,91 354,91 354,92 354,92 354,92 353,92 353,92 353,92 353,92 352,92 352,92 352,93 352,93 352,93 352,93 352,93 352,93 352,94 352,94 352,94 353,94 353,95 353,95 352,95 352,95 352,95 352,95 352,95 352,95 352,95 352,95 351,96 351,96 351,96 351,96 350,96 350,96 350,97 349,97 349,97 349,97 349,97 348,96 348,96 348,96 347,96 347,96 347,96 347,96 347,96 346,96 346,95 345,96 344,96 344,97 342,98 340,98 338,99 337,100 335,101 335,102 336,104 336,104 336,105 337,105 337,106 337,106 337,106 340,105 343,109 342,114 342,114 343,114 343,114 344,114 344,114 345,114 346,114 346,114 346,114 346,114 347,114 347,114 347,114 347,114 348,114 348,114 348,114 348,114 348,114 348,115 350,114 350,114 351,114 351,114 351,114 351,114 351,114 351,114 352,114 352,114 352,114 352,114 352,114 352,114 353,114 353,114 353,114 353,114 353,114 354,114 354,114 354,114 355,114 355,114 355,114 355,114 355,114 355,114 355,114 355,114 355,114 356,114 356,114 356,114 356,114 356,114 356,114 357,114 358,115 359,115 360,116 362,117 363,117 364,118 366,118 368,119 369,118 373,118 374,118 375,118 375,118 375,118 375,118 375,118 375,118 375,118 375,119 375,119 375,119 375,119 374,119 374,119 374,119 374,119 374,119 374,119 374,119 374,119 374,120 374,120 374,120 374,120 374,120 373,120 373,121 373,121 373,121 373,121 373,121 373,121 373,122 373,122 373,122 373,122 373,122 373,122 373,122 373,123 373,123 373,122 374,122 374,122 375,122 375,122 376,122 376,121 377,121 376,121 377,122 377,122 378,123 378,123 378,124 378,124 378,124 379,124 380,125 381,126 380,127 381,127 382,127 382,127 382,127 383,127 383,127 383,127 384,127 384,127 384,127 384,127 384,127 384,127 385,127 385,127 385,128 385,128 386,128 386,129 386,129 387,130 387,131 387,131 387,133 387,133 387,134 387,134 390,135 392,135 393,135 398,136 404,137 404,138 404,138 403,139 403,139 403,141 404,141 404,141 409,140 409,141 409,141 406,144 406,144 406,144 406,145 406,145 406,146 406,146 406,146 406,146 406,146 406,147 406,147 406,147 406,147 407,147 407,147 407,147 407,147 407,147 407,147 408,147 409,147 409,148 410,148 410,148 410,148 411,148 411,149 411,149 411,149 411,150 410,150 410,150 410,150 410,152 411,152 411,153 411,153 411,153 411,153 412,153 412,153 413,153 414,152 415,152 419,152 421,153 423,153 425,153 427,154 428,155 429,155 430,155 431,156 431,156 432,156 432,156 433,157 433,157 433,157 433,158 434,158 434,159 434,159 434,160 434,160 434,160 435,161 435,162 436,163 436,164 437,165 437,166 437,168 437,169 437,170 439,173 439,175 440,176 440,176 441,178 439,179 440,180 440,180 441,181 441,181 441,181 441,181 442,181 442,181 442,181 443,182 443,182 443,182 444,182 444,182 445,183 445,183 445,183 445,183 445,183 445,183 445,183 445,183 445,183 445,183 445,184 445,184 445,184 445,184 445,184 445,184 445,184 445,184 445,184 445,184 445,184 445,184 445,184 445,184 444,184 444,184 444,184 444,184 444,185 444,185 444,185 444,185 444,185 444,185 444,185 444,185 444,185 444,185 444,185 444,185 444,185 444,185 444,186 444,186 444,186 444,186 444,186 444,186 444,186 444,186 444,186 444,186 444,186 444,186 444,186 443,186 443,186 443,187 443,187 443,187 443,187 443,187 443,187 443,187 443,187 443,187 443,187 443,187 443,187 443,187 443,187 443,187 443,187 443,187 443,188 443,188 443,188 443,188 442,188 443,188 443,188 443,188 443,188 443,188 443,188 443,188 443,189 443,189 443,189 443,189 443,189 444,189 444,189 444,189 444,189 444,189 444,190 444,190 445,190 445,190 445,190 445,190 445,190 445,190 446,190 446,191 446,191 446,191 446,191 447,192 447,192 447,193 447,193 447,193 447,194 448,194 448,194 448,194 450,194 450,195 450,195 451,195 451,195 452,195 452,195 452,195 454,195 454,195 455,195 456,195 456,195 457,194 457,194 457,194 458,194 459,194 462,193 462,193 462,193 465,193 467,192 469,192 471,191 474,190 475,189 475,189 477,189 480,188 480,188 483,187 486,186 486,186 486,185 488,184 489,184 490,183 491,184 491,184 492,184 492,185 493,186 494,188 495,190 495,190 495,191 496,192 496,193 497,194 497,195 498,197 498,198 499,199 499,200 500,202 500,202 500,203 500,204 500,204 500,206 500,206 500,208 500,208 500,210 500,210 500,210 500,211 500,211 500,212 500,213 500,213 500,213 500,213 499,214 498,214 498,215 497,216 495,218 495,219 494,220 493,220 493,221 493,222 493,222 492,222 492,223 492,223 492,223 492,223 492,223 492,223 492,223 492,223 492,224 492,224 492,224 492,225 491,225 491,226 491,227 491,227 488,228 487,229 487,230 487,230 487,230 487,231 487,232 486,232 486,233 485,233 485,233 484,234 483,234 482,234 482,234 481,235 481,235 481,235 481,235 480,236 480,236 480,236 479,236 478,235 478,235 477,235 477,235 477,234 477,234 477,234 477,234 477,233 476,233 476,233 474,232 468,232 467,232 466,233 466,233 466,232 465,232 463,231 462,230 461,230 461,229 459,228 459,228 457,227 456,227 455,227 454,228 453,228 452,228 450,228 448,228 446,228 445,228 444,228 444,228 443,228 443,228 441,228 440,228 439,228 438,228 438,229 438,229 437,229 437,229 437,229 437,230 437,230 437,230 437,230 437,230 437,230 437,230 437,230 437,230 437,230 436,230 436,230 436,230 436,230 436,230 436,230 436,230 436,230 436,230 436,230 436,230 436,230 436,230 436,230 436,230 436,230 436,230 435,230 435,231 435,231 435,231 435,231 435,231 435,231 435,231 435,231 435,231 435,231 435,231 435,231 435,231 435,232 434,231 434,231 434,231 434,231 434,231 433,231 433,231 433,231 433,230 433,230 432,230 431,230 431,230 430,231 429,231 426,230 425,230 426,230 426,230 427,229 427,229 426,229 427,229 426,229 426,229 425,228 422,227 422,227 422,227 420,226 420,226 420,226 420,226 420,227 420,227 420,227 419,227 419,227 419,227 419,227 418,227 418,226 417,226 417,225 417,225 416,225 416,225 415,224 415,224 415,224 414,224 414,224 414,224 413,224 413,224 412,224 411,224 410,223 409,223 408,223 408,223 407,223 407,223 406,223 405,222 404,222 404,222 403,222 403,222 403,222 402,222 401,221 401,221 401,221 400,222 399,222 399,222 398,222 398,222 398,222 398,222 397,222 396,222 396,222 396,222 395,222 395,222 394,222 393,222 393,222 392,221 392,221 392,221 391,221 391,221 390,220 390,220 389,220 389,220 388,220 387,220 387,220 386,220 386,220 386,220 386,220 386,220 384,220 384,220 384,220 383,220 383,219 383,218 383,218 383,217 384,216 386,216 387,216 386,215 388,214 391,212 392,214 393,213 393,212 393,211 393,211 393,211 393,210 393,210 393,210 393,210 393,210 394,209 395,208 395,208 395,207 395,207 395,205 396,205 396,205 395,205 395,204 396,204 396,204 396,203 396,203 396,201 396,201 396,201 394,200 394,200 394,200 393,200 392,199 390,199 389,199 389,199 388,199 387,198 387,198 386,198 384,197 382,196 381,196 381,196 380,196 380,195 380,195 379,195 378,195 378,195 377,194 376,194 376,194 375,193 375,193 374,193 373,192 372,192 368,191 367,191 366,190 364,191 365,191 363,193 363,193 361,194 357,194 356,195 354,195 353,195 353,195 352,195 352,195 352,195 352,195 352,200 352,200 351,199 350,199 349,200 349,200 348,201 347,200 347,200 346,201 345,201 344,202 344,202 344,203 344,203 344,203 344,203 344,203 344,203 344,203 344,203 344,203 345,203 345,203 345,203 345,203 345,203 345,203 345,203 346,203 346,203 346,203 346,204 346,204 346,203 346,203 347,203 347,203 347,203 347,203 347,203 347,203 347,203 347,203 347,203 347,204 347,204 347,204 348,203 348,203 348,203 348,203 348,204 348,204 348,203 349,203 349,203 349,203 349,203 349,203 349,203 349,203 349,203 349,203 349,203 350,203 350,203 350,203 350,203 350,203 350,203 351,203 351,203 351,203 351,203 351,203 351,203 351,203 351,203 351,203 352,204 352,204 353,204 352,204 352,204 350,206 350,206 350,206 350,206 349,207 349,207 347,208 347,207 346,207 345,208 345,208 345,208 344,208 344,208 344,208 344,208 343,208 343,208 343,208 343,208 340,209 338,209 338,209 338,209 337,209 337,209 337,209 336,209 335,209 334,210 333,210 332,210 332,210 332,210 331,211 330,211 330,211 330,211 330,211 330,211 331,212 332,212 332,213 333,213 333,213 333,213 333,213 333,213 333,213 332,213 331,213 331,213 331,213 331,214 332,214 332,214 332,214 332,214 332,214 333,214 333,214 333,215 333,215 333,215 333,215 333,215 333,215 333,215 333,215 333,216 333,216 333,216 333,216 333,216 332,216 332,217 332,217 332,217 332,217 333,217 333,217 333,217 333,217 333,217 333,217 333,217 333,217 333,217 333,217 333,217 334,218 334,218 334,218 334,219 333,218 333,219 331,219 331,219 331,219 331,219 331,220 331,220 331,220 330,220 330,220 330,221 330,221 329,222 329,223 329,223 329,224 328,225 329,225 329,226 329,226 329,227 329,227 329,227 329,227 327,227 327,227 327,227 326,227 325,226 325,226 324,226 324,226 323,226 323,225 323,225 323,225 322,224 321,224 321,225 320,225 320,225 319,226 319,226 319,226 319,226 319,227 319,227 319,227 318,227 318,227 309,226 310,226 310,227 310,227 310,228 311,228 311,229 312,231 313,232 313,232 313,232 312,232 312,232 312,233 312,233 312,233 312,233 312,233 312,233 312,234 311,234 311,235 311,235 311,235 311,236 311,236 311,236 311,237 311,237 310,238 310,239 310,239 309,239 309,240 308,240 307,241 305,242 305,242 303,243 303,243 303,243 303,243 302,243 302,243 302,243 301,244 301,244 301,244 301,244 302,244 302,243 302,243 302,243 303,243 303,243 303,243 303,243 304,244 304,245 304,246 304,246 305,247 305,247 306,249 306,249 306,250 311,250 312,251 312,251 312,251 312,251 311,252 311,252 311,252 311,252 311,252 310,252 310,253 310,253 310,253 310,253 310,253 310,253 310,253 310,253 310,253 310,253 309,253 309,253 309,253 309,253 309,253 309,253 308,253 308,253 308,254 308,254 308,254 307,254 307,254 307,254 307,254 307,254 307,254 307,254 306,254 306,254 306,254 306,254 306,254 306,254 305,254 305,254 304,255 304,255 304,255 303,255 303,255 303,255 302,255 302,255 302,255 301,255 301,255 300,255 300,255 299,255 298,255 298,255 298,255 298,256 298,256 298,256 298,256 298,257 298,257 298,257 298,258 298,258 298,258 298,258 298,259 298,260 298,260 297,261 297,261 297,261 297,261 296,261 296,261 295,261 295,261 295,261 295,260 295,260 295,259 295,259 295,259 295,258 295,258 295,258 295,257 295,257 295,257 294,257 294,257 294,257 294,257 295,257 294,258 294,258 294,259 294,260 294,260 294,260 293,260 292,260 291,260 291,260 290,260 290,260 290,260 292,261 292,262 292,262 292,262 292,262 291,263 291,263 291,264 291,265 291,265 290,266 290,266 290,266 290,267 290,267 291,267 292,268 292,268 293,268 295,269 295,269 296,269 296,269 293,269 293,270 293,270 293,270 293,270 290,269 290,269 285,269 282,269 279,269 279,269 279,269 279,270 279,270 279,270 279,270 279,270 279,271 279,271 279,271 280,271 280,271 280,271 280,271 280,271 280,271 280,271 280,271 280,271 280,271 280,271 280,272 280,272 280,272 280,272 280,272 280,272 281,272 281,272 281,272 281,272 281,272 281,272 280,272 280,272 280,273 280,273 280,273 280,273 280,273 280,273 280,273 280,273 280,273 280,273 280,273 280,273 280,273 280,273 279,273 279,273 279,274 279,274 280,274 279,274 279,274 279,274 279,274 279,274 279,274 279,274 279,274 280,274 280,274 280,274 280,274 279,275 279,275 280,275 280,275 280,275 280,275 280,275 280,275 280,276 280,276 280,276 280,276 280,277 280,277 280,277 278,277 276,277 275,277 274,277 271,277 271,278 271,278 271,278 270,279 270,279 270,279 269,279 269,278 265,278 266,276 261,277 261,276 260,277 260,277 259,277 259,277 257,277 257,277 256,278 256,278 252,279 252,279 251,279 251,279 251,279 250,279 248,279 248,279 248,279 248,279 248,279 248,278 247,278 247,278 247,277 246,277 245,276 245,276 245,276 244,276 244,275 244,275 244,274 244,274 244,273 243,272 243,272 242,272 239,272 239,272 238,272 238,272 236,272 235,272 235,272 234,272 233,271 232,271 231,271 232,271 232,271 232,272 232,272 232,272 232,272 230,272 230,272 229,272 228,272 228,272 227,272 227,272 227,272 226,273 226,273 225,272 224,272 224,273 224,273 223,273 223,274 223,274 222,274 222,274 222,274 220,274 220,273 219,273 219,273 218,273 218,273 214,273 214,273 212,272 209,272 208,270 207,269 206,267 206,266 206,267 204,267 204,267 203,265 202,264 202,264 201,264 201,264 201,264 200,261 200,261 199,260 199,260 199,257 201,255 201,250 201,250 201,250 200,250 200,250 199,249 199,249 198,249 198,249 198,249 198,249 197,249 197,249 197,249 196,249 196,249 196,249 196,249 196,249 195,249 194,249 194,249 193,249 193,249 192,249 192,249 191,249 191,249 191,249 190,248 190,248 190,248 189,248 189,248 189,248 189,248 188,248 188,248 188,248 188,248 187,248 187,248 187,248 187,248 187,248 187,248 186,248 186,248 185,247 185,247 185,247 185,247 185,247 184,248 184,248 184,248 184,248 183,248 183,248 182,248 181,248 181,248 181,247 181,247 181,247 181,247 180,247 180,247 180,247 180,247 179,247 179,247 179,247 179,247 178,247 178,247 178,247 178,247 178,247 177,247 176,246 174,245 171,244 171,244 171,244 170,244 170,244 170,243 168,243 166,242 166,242 166,242 166,243 166,242 164,242 163,237 161,237 161,237 161,237 177,221 175,219 174,218 172,217 171,215 170,214 169,214 168,213 167,212 166,212 166,211 165,211 165,211 164,210 164,209 163,209 163,209 162,208 161,208 160,206 159,205 158,205 157,204 156,203 155,202 155,202 154,201 152,201 151,201 150,200 149,200 149,200 149,199 149,199 148,199 148,198 148,198 148,198 148,197 148,197 148,197 147,197 147,196 143,196 141,196 136,195 135,195 134,195 133,195 133,195 131,195 130,192 129,191 127,191 127,191 127,191 128,192 125,193 125,193 124,193 124,195 124,195 123,195 123,195 123,195 122,195 122,195 122,195 121,195 121,195 120,196 120,196 119,196 118,196 117,196 116,196 116,196 115,196 115,195 114,195 114,195 114,196 115,197 115,199 115,200 115,200 115,200 115,200 114,200 114,200 114,200 113,200 113,201 112,201 112,201 112,201 112,201 111,201 111,201 111,201 110,201 110,201 110,201 110,201 109,201 109,201 109,201 108,201 108,201 108,201 108,201 109,203 108,203 108,203 108,203 107,203 107,203 107,203 107,203 107,203 107,203 107,203 107,203 107,203 106,203 107,203 107,203 106,203 106,203 106,203 106,203 106,203 106,203 106,203 106,203 106,203 106,203 106,203 106,203 106,203 106,203 106,203 105,203 105,203 105,203 105,203 105,203 105,203 105,203 105,203 105,203 105,203 105,203 105,203 105,203 105,203 104,203 104,203 104,203 104,203 104,203 104,203 104,203 104,203 104,203 104,203 104,203 104,203 104,203 104,203 104,203 104,203 103,203 103,203 103,203 103,203 103,203 103,203 103,202 102,202 102,202 101,202 101,202 100,202 100,202 100,202 100,202 100,202 99,202 99,202 99,202 99,203 98,203 98,203 98,203 98,203 98,203 98,203 98,203 98,203 98,204 98,204 98,204 98,204 98,204 98,204 98,205 98,205 98,205 98,205 98,205 98,206 98,206 98,206 98,206 98,206 97,207 97,207 96,207 96,207 95,207 95,207 95,207 95,207 94,207 94,207 94,206 94,206 93,206 93,206 92,205 92,204 91,204 90,204 89,204 88,204 87,204 87,203 86,203 86,203 85,203 85,203 85,203 85,203 84,203 83,203 83,203 83,203 82,203 82,203 81,203 81,203 80,203 80,203 80,203 79,203 79,203 78,203 78,203 78,203 78,203 78,203 78,203 77,203 77,203 77,203 77,203 76,203 76,203 76,203 76,203 76,203 76,203 76,203 75,203 75,203 75,203 75,203 74,203 74,203 74,203 73,203 73,203 73,203 73,204 73,204 73,204 73,205 72,205 72,206 72,206 70,205 69,205 69,205 69,206 69,206 68,206 68,208 68,209 68,209 68,209 69,210 69,211 68,211 68,212 68,213 68,214 67,214 67,214 67,215 67,216 67,217 69,219 71,221 72,221 72,221 69,221 67,221 66,221 64,221 61,221 60,221 56,221 54,221 53,221 51,222 51,222 49,222 48,222 48,222 46,223 45,222 45,222 43,221 42,221 40,220 39,220 38,220 37,220 35,219 34,219 33,218 32,218 31,218 31,218 31,213 36,212 36,211 35,210 35,209 35,208 34,206 34,205 34,205 33,204 33,204 33,204 33,204 33,203 32,203 32,203 32,203 32,202 32,202 32,202 32,202 31,202 31,202 31,202 31,201 31,201 31,201 31,200 31,200 31,200 30,195 30,191 30,191 30,191 30,190 30,190 30,189 30,187 31,184 31,183 31,182 31,182 31,182 31,182 31,182 31,182 31,182 31,181 31,181 31,181 31,181 33,181 33,181 33,182 34,183 34,183 34,183 35,184 35,184 35,185 36,185 36,186 37,188 37,188 38,189 38,189 39,189 39,190 39,190 40,191 41,191 41,192 41,192 42,193 42,193 43,194 43,194 44,194 45,195 45,195 46,195 47,196 48,196 49,196 50,197 51,197 52,198 52,198 53,198 54,198 54,197 55,197 56,197 57,197 59,197 60,196 61,196 61,196 62,196 65,195 66,195 67,194 68,194 68,194 69,194 70,192 70,192 74,191 75,190 76,190 76,189 76,189 78,188 80,188 81,187 82,187 83,186 83,186 84,185 84,185 86,184 87,183 88,183 89,183 89,182 90,182 90,182 91,181 92,181 93,180 93,180 94,179 95,179 95,178 96,177 96,177 97,176 98,176 99,176 99,175 99,175 100,174 100,174 100,174 93,174 94,172 92,172 84,173 84,171 82,171 81,171 78,170 78,170 79,170 78,168 77,168 76,167 75,166 74,166 73,165 72,165 71,164 70,164 64,164 64,162 64,162 63,161 63,160 62,159 62,159 60,158 59,157 59,157 58,156 57,155 57,156 56,155 56,155 56,154 57,153 57,153 57,153 57,153 57,152 58,151 58,150 60,147 61,146 62,145 63,144 63,143 63,143 64,142 64,142 64,142 63,141 64,141 65,140 66,140 68,139 69,139 70,139 71,139 72,139 74,138 74,138 74,138 74,139 74,139 74,139 75,139 79,137 81,136 83,135 85,134 86,134 92,134 96,134 97,134 98,134 100,134 101,133 102,130 102,124 103,123 103,119 103,117 103,116 104,116 105,115 102,114 102,114 101,114 100,114 100,113 99,113 99,113 99,113 94,111 95,110 95,108 97,106 97,106 97,106 92,104 90,104 87,103 85,103 82,104 79,104 79,104 74,102 74,103 73,103 73,103 71,103 70,102 70,102 69,104 69,104 68,107 68,108 60,105 53,103 52,102 50,101 49,101 48,100 47,99 46,99 45,98 44,98 43,99 43,99 40,99 40,98 37,99 37,99 36,98 35,98 35,97 34,97 33,96 32,97 32,96 30,97 30,96 28,96 28,97 28,98 28,98 28,99 27,100 27,100 27,101 27,102 28,104 25,102 25,97 23,97 23,95 20,95 19,95 19,95 18,94 16,94 15,95 14,95 13,95 12,95 10,95 8,95 5,95 3,95 2,95 2,95 1,94 1,93 0,92 3,86 6,87 7,83 10,83 11,82 11,82 12,77 18,79 18,79 19,80 21,80 21,79 23,80 23,79 23,78 25,78 25,78 26,76 27,75 28,75 30,74 32,73 32,73 32,73 32,71 32,71 32,71 32,71 31,71 31,71 31,71 31,71 31,71 31,72 31,72 31,72 31,72 31,72 31,72 30,72 30,72 30,72 30,72 30,72 31,72 31,72 31,72 30,72 30,72 30,72 30,72 30,72 30,72 30,72 30,73 30,73 27,72 25,72 25,72 26,72 23,71 22,71 22,71 22,71 22,70 22,70 22,70 22,70 22,70 22,70 22,70 22,70 22,70 22,70 22,70 22,70 21,70 21,70 21,70 21,70 21,70 21,70 21,70 21,70 21,70 21,70 21,70 21,70 21,70 21,70 21,70 21,70 21,70 21,70 21,70 21,70 20,70 20,70 20,70 20,70 20,70 20,70 20,70 20,70 20,70 20,70 20,70 19,69 19,69 19,69 19,69 19,69 19,69 19,69 19,69 19,69 19,69 19,69 19,69 19,69 19,69 18,68 18,68 18,68 18,68 18,68 18,68 18,68 18,68 18,68 18,68 18,68 18,68 18,67 18,67 18,67 18,67 18,67 18,67 18,67 18,67 18,67 18,66 18,66 18,66 18,66 18,66 18,66 18,66 18,66 18,66 18,66 18,66 18,66 18,66 18,66 18,66 18,65 18,65 18,65 18,65 18,65 18,65 18,65 18,65 18,65 18,65 18,65 18,65 18,64 18,64 18,64 18,64 18,64 18,64 18,64 18,64 18,64 18,64 18,64 18,64 17,64 17,64 17,64 17,64 17,64 17,64 17,64 17,64 16,63 16,63 16,63 16,63 16,63 16,63 16,63 15,63 15,63 15,63 15,63 15,63 15,63 15,63 15,63 15,63 15,64 15,64 15,64 14,64 14,64 14,63 14,63 14,64 14,64 14,64 14,64 14,64 14,64 13,64 13,64 13,64 13,64 13,64 13,63 13,63 13,63 12,63 12,63 12,63 11,63 11,63 10,63 10,63 9,64 9,64 8,64 8,64 8,64 8,64 7,63 7,63 6,63 6,63 5,62 5,62 5,62 5,62 5,62 5,61 5,61 5,61 5,61 5,61 5,61 6,61 6,59 6,59 7,59 8,58 8,57 8,56 8,55 8,54 7,54 7,54 6,53 5,52" id="7706" class="canton" fill="steelblue" stroke-width="1" stroke="white" geotype="canton" geoname="Ferté-sous-Jouarre" code_insee="7706" code_departement="77" nom_departement="Seine-et-Marne" code_region="11" nom_region="Île-de-France"/></svg>