<?xml version="1.0" encoding="utf-8"?>
<svg version="1.1" id="svgmap" xmlns="http://www.w3.org/2000/svg" xmlns:xlink="http://www.w3.org/1999/xlink" x="0px" y="0px" width="100%" height="100%" viewBox="0 0 500 219">
<polygon points="34,86 34,85 33,84 33,83 33,82 33,80 32,79 32,79 32,78 31,78 31,77 30,77 29,76 28,76 26,74 26,74 22,72 26,68 26,68 32,66 36,65 37,64 38,60 38,60 38,60 38,60 41,59 47,59 49,59 52,59 53,59 55,59 56,59 60,58 60,58 63,59 67,60 72,63 72,63 72,63 72,64 72,64 72,64 73,64 73,64 73,65 73,65 73,65 73,65 74,65 74,66 75,67 76,67 76,68 77,68 77,68 78,69 79,69 82,70 82,70 82,70 82,70 82,70 82,70 83,70 83,70 83,71 83,71 83,71 83,72 83,72 83,72 84,72 84,72 84,73 84,73 85,73 85,73 85,73 86,74 86,74 87,75 87,75 87,76 87,76 87,76 87,76 88,75 89,75 90,74 91,74 92,73 92,73 93,73 93,73 93,73 94,72 94,72 94,71 94,71 95,71 95,71 95,70 95,70 95,70 95,70 95,70 95,70 95,69 95,69 95,69 95,67 94,64 94,63 94,63 96,63 96,63 97,64 97,65 98,66 99,68 101,68 103,68 103,68 106,69 106,69 107,69 107,69 108,69 108,69 109,70 109,69 110,69 110,69 111,69 111,69 111,69 111,69 111,68 112,68 113,68 113,68 114,68 114,68 114,68 114,68 115,68 116,68 116,68 117,68 118,68 118,68 118,68 118,67 118,67 118,67 117,67 117,67 119,67 120,67 120,67 120,67 121,68 123,68 123,68 124,68 124,68 126,68 127,68 127,68 127,68 128,69 128,70 128,70 128,70 128,71 128,71 128,71 128,71 129,72 130,72 130,72 131,72 131,73 131,73 131,73 131,73 131,74 131,74 133,74 133,74 134,74 134,74 135,74 135,74 138,73 137,72 139,72 139,72 141,72 141,72 141,71 141,71 142,71 142,71 146,71 146,73 149,73 149,73 149,73 149,73 149,73 150,73 150,73 150,73 150,71 152,71 153,71 154,71 156,71 157,71 158,71 158,71 158,71 158,71 158,71 158,71 158,71 158,70 158,70 157,70 157,70 157,70 157,70 157,70 157,70 157,70 157,70 157,69 157,69 157,69 157,69 157,69 157,69 157,69 157,69 157,69 157,69 157,69 157,69 157,69 157,69 157,69 157,69 158,69 158,69 158,69 158,69 158,69 158,69 158,68 158,68 158,68 158,68 158,68 158,68 158,68 158,68 158,68 158,68 158,68 158,68 158,68 158,68 158,68 158,68 158,68 158,68 158,67 158,67 158,67 157,67 158,67 158,67 158,67 158,67 158,67 158,67 158,67 157,67 157,67 157,67 157,67 157,66 157,66 157,66 157,66 157,66 157,66 157,66 157,65 157,65 159,65 162,65 166,65 166,65 168,66 169,66 169,66 169,66 169,66 171,65 171,65 170,65 170,65 169,64 168,64 168,64 167,64 166,64 166,63 166,63 166,63 166,63 167,62 167,62 167,61 167,60 167,60 168,60 168,59 168,59 168,59 167,59 166,58 166,57 166,57 166,57 167,58 167,58 168,58 169,58 169,58 169,57 170,57 170,56 170,56 170,56 170,55 169,55 169,55 170,55 170,55 170,55 170,56 170,56 170,56 170,56 170,57 170,57 170,57 170,58 170,58 170,58 170,58 170,59 171,59 171,58 172,58 172,58 172,58 172,58 172,58 173,58 173,57 173,56 173,56 173,56 173,56 173,55 173,55 173,55 173,55 173,55 173,54 173,54 173,54 173,54 173,53 174,54 174,53 175,53 175,53 175,53 176,53 176,53 176,53 176,53 177,53 177,53 177,53 178,53 178,53 178,53 179,53 179,53 179,53 179,53 179,53 179,53 180,53 180,53 180,53 180,53 180,53 180,53 180,53 180,53 180,53 181,52 181,52 181,52 181,52 182,52 182,52 182,52 182,52 182,52 182,52 182,52 182,52 182,52 182,52 183,52 183,52 183,52 183,52 183,52 183,52 183,51 183,51 183,51 183,51 183,51 184,51 184,50 184,50 184,50 184,50 183,49 179,49 179,49 179,48 179,47 179,47 178,46 178,46 177,45 177,44 177,44 177,44 177,44 176,44 176,44 176,44 176,44 176,44 175,44 175,44 175,44 175,44 176,44 176,44 176,44 176,44 177,44 177,44 177,44 178,43 178,43 180,42 181,41 182,41 182,41 182,40 182,40 183,40 183,39 183,38 184,38 184,38 184,38 184,37 184,37 184,37 184,36 184,36 184,36 184,36 184,36 184,36 184,36 184,35 185,35 185,35 185,35 185,35 185,34 184,34 184,32 183,31 183,31 183,31 182,30 182,30 182,29 190,30 190,30 190,30 190,30 190,30 190,30 190,29 190,29 190,29 191,29 191,29 191,29 192,28 193,28 193,28 193,29 193,29 194,29 194,29 195,30 195,30 195,30 196,30 196,30 196,30 197,30 198,31 198,30 198,30 198,30 198,30 198,30 198,29 198,28 198,28 198,27 198,27 199,27 199,26 199,25 199,25 199,25 200,25 200,24 200,24 200,24 200,24 200,24 200,23 201,23 202,23 202,23 202,23 202,23 202,23 202,22 202,22 202,22 202,22 202,22 202,22 202,22 202,22 202,22 201,22 201,22 201,22 201,22 201,22 201,22 201,22 201,21 201,21 202,21 202,21 202,21 202,21 202,21 202,21 202,20 202,20 202,20 201,20 201,20 201,20 201,20 201,20 201,19 201,19 201,19 201,19 200,19 200,19 200,19 200,19 201,19 201,19 201,19 201,19 201,19 201,19 201,19 201,19 201,18 200,18 199,17 199,17 199,17 199,17 199,17 200,17 200,16 200,16 201,16 201,16 202,16 203,16 204,15 205,15 205,15 205,15 205,15 205,16 206,15 208,15 210,15 210,15 210,15 210,15 210,15 210,15 211,14 211,15 211,14 212,14 212,14 213,14 213,14 213,14 215,14 215,14 215,13 216,13 216,13 216,13 217,12 218,11 218,11 218,11 217,11 217,11 217,11 217,11 217,10 216,10 216,10 216,10 216,10 216,10 216,10 216,10 216,11 216,11 216,11 215,11 215,10 215,10 215,11 215,11 215,11 215,11 215,11 215,11 215,11 214,11 214,11 214,11 214,11 214,11 214,11 214,11 214,11 214,11 214,11 214,11 214,11 213,11 213,11 213,11 213,11 213,11 213,11 213,11 213,11 213,11 213,11 212,11 212,11 212,11 212,11 212,11 212,11 212,11 212,11 212,11 212,11 212,11 211,11 211,11 211,11 211,11 211,11 211,10 211,10 210,10 210,10 210,10 211,10 211,10 211,9 212,9 213,8 213,8 214,9 215,8 215,8 216,7 217,7 217,8 218,8 217,4 217,4 218,4 218,4 218,4 218,4 219,4 221,4 222,3 225,3 226,2 227,2 228,1 228,1 229,0 230,0 231,1 234,1 235,2 236,2 236,2 237,3 237,3 238,3 238,3 239,4 239,4 240,4 240,4 241,4 241,4 241,4 242,5 242,5 244,5 245,6 246,6 247,6 248,7 248,7 248,7 249,7 251,7 252,8 252,8 252,8 252,8 253,9 254,9 254,9 254,10 254,11 254,11 254,11 253,11 253,12 254,12 254,12 253,12 253,13 253,14 253,14 253,15 252,16 252,16 251,16 251,16 251,16 251,16 251,17 251,17 251,17 251,18 251,18 251,19 250,18 247,20 246,21 247,22 245,22 244,21 243,22 243,23 243,23 243,24 243,24 244,24 244,24 244,24 245,25 245,25 246,24 246,24 246,24 246,25 247,25 247,25 248,25 248,25 249,25 249,25 250,25 250,25 250,25 250,25 251,26 251,26 251,26 252,26 253,26 253,26 254,26 254,26 254,26 255,26 255,26 255,26 256,26 256,26 256,26 257,26 257,26 258,26 258,26 258,26 259,26 259,26 260,26 260,26 260,26 260,26 261,27 262,27 263,27 263,27 263,27 264,27 264,27 265,27 266,27 267,28 268,28 268,28 268,28 268,28 269,28 269,28 270,28 270,28 270,28 270,28 271,29 271,29 272,29 272,30 273,30 273,30 273,30 273,30 273,30 274,30 274,30 274,30 274,30 274,30 274,30 274,30 275,30 275,30 275,30 278,31 279,32 279,32 279,32 279,32 279,32 279,32 279,33 279,33 278,33 278,33 282,34 282,33 283,33 283,33 284,33 284,33 284,33 285,33 285,33 285,34 285,34 285,34 285,34 286,34 286,34 286,34 286,34 286,34 286,34 286,34 286,34 286,34 286,34 286,34 286,34 286,33 286,33 286,33 287,33 287,33 287,33 287,33 287,33 287,33 287,33 287,33 287,33 287,33 287,33 287,33 287,33 287,33 287,33 287,33 287,33 287,33 287,33 287,33 287,33 287,33 287,33 288,33 288,33 288,33 288,32 288,32 288,32 288,32 288,32 288,32 288,32 288,32 289,31 289,31 291,31 291,31 292,31 293,31 294,31 294,31 294,31 295,31 297,31 299,31 300,31 301,31 302,31 302,31 304,30 304,31 306,31 306,31 308,32 308,32 309,33 310,33 311,34 312,35 312,35 312,35 313,35 313,34 318,34 320,35 320,35 321,36 321,36 321,36 321,36 321,37 321,37 321,37 322,37 322,37 323,38 323,38 324,38 324,38 324,37 324,37 324,37 325,37 325,36 326,36 326,36 327,36 328,36 328,36 328,35 329,35 329,34 329,34 330,33 330,33 330,32 330,32 330,31 332,30 333,30 333,30 333,29 333,29 333,28 333,28 333,28 333,27 333,27 333,27 333,27 334,27 334,27 334,27 334,27 334,26 334,26 334,26 334,25 334,25 335,25 336,23 336,23 338,22 338,21 339,20 340,19 340,19 340,19 340,19 342,20 342,20 344,21 344,22 345,22 345,22 346,23 346,23 347,23 348,24 348,24 349,25 350,25 350,25 351,26 352,26 353,27 353,27 353,28 353,28 354,28 354,28 354,28 354,28 355,30 356,30 356,30 357,29 357,29 359,28 360,29 360,29 360,29 361,30 361,29 362,29 362,29 362,28 362,27 363,27 363,27 364,27 365,26 366,25 366,25 366,25 366,25 366,25 367,25 367,25 367,25 367,24 367,24 368,24 368,24 369,24 369,23 369,23 369,23 369,23 370,23 370,23 370,23 371,23 371,23 371,23 372,24 373,23 373,23 373,23 373,22 374,22 374,23 375,23 375,24 376,24 376,24 376,24 377,24 378,23 378,23 379,23 379,23 379,22 380,22 381,22 382,22 383,21 383,21 384,21 384,20 385,20 385,20 385,20 385,19 386,19 386,19 386,18 387,17 387,17 388,17 388,18 389,17 389,16 389,15 389,14 389,14 389,14 389,14 389,14 389,13 388,13 388,12 389,12 389,13 389,13 389,13 390,13 390,13 391,14 391,14 392,15 392,15 392,15 392,16 392,16 392,16 393,16 393,17 393,18 393,18 393,19 393,19 393,19 393,20 392,20 392,20 392,21 392,21 392,22 393,22 393,22 393,23 394,23 394,24 394,24 394,24 394,24 394,24 394,25 394,25 394,25 394,25 395,25 395,26 395,26 395,26 395,27 396,27 396,28 397,29 397,29 397,30 397,30 396,30 396,31 396,31 396,31 396,31 395,31 394,32 394,32 394,32 394,32 393,32 393,33 392,33 391,37 390,43 391,44 391,44 391,44 391,44 391,44 392,45 392,45 392,45 393,45 393,45 393,45 394,45 394,45 394,45 394,45 395,45 395,45 395,45 395,45 396,45 396,45 396,46 396,46 397,46 397,46 397,46 398,47 398,47 399,47 399,47 399,47 399,47 399,47 399,47 399,47 400,48 400,48 400,48 400,48 401,48 401,48 401,48 401,48 401,48 402,48 402,48 402,48 402,48 402,48 403,48 403,48 404,48 404,49 403,49 403,49 403,49 401,49 401,50 401,50 401,50 402,50 402,51 403,51 403,52 402,52 402,52 401,52 401,52 401,53 402,53 402,53 401,53 402,54 402,55 403,55 402,56 401,56 400,56 401,57 401,57 401,58 401,58 401,58 401,59 401,59 401,60 401,60 401,60 401,60 401,60 401,61 401,61 400,61 400,61 400,61 400,61 400,61 401,61 401,62 401,62 401,62 401,62 401,62 401,62 401,62 401,63 401,63 401,63 401,63 401,63 401,63 401,63 401,63 403,63 403,63 403,63 403,63 404,63 404,64 404,63 404,63 405,63 405,63 405,63 405,63 405,63 406,63 406,63 406,63 407,63 408,63 408,64 409,64 409,64 410,64 410,64 410,64 410,64 411,64 411,64 411,64 411,64 411,63 411,63 411,63 412,63 412,63 412,63 412,63 412,63 412,63 412,63 412,62 412,62 412,62 412,62 412,62 412,61 412,61 412,61 412,61 412,61 412,61 412,61 412,61 412,61 412,61 412,60 412,60 414,60 415,60 415,60 416,60 416,59 416,59 416,59 416,59 416,59 418,59 418,59 420,59 422,59 422,60 423,59 423,60 423,60 423,60 423,61 423,61 423,62 423,62 423,62 423,62 423,62 423,62 423,62 423,62 423,63 423,63 423,63 423,63 423,64 423,64 422,64 422,64 421,64 421,64 421,64 420,64 420,65 419,64 419,65 419,65 419,65 419,66 419,66 419,66 418,67 418,67 418,67 418,68 418,68 418,68 418,68 418,68 418,68 418,68 419,68 419,68 419,68 419,68 419,68 419,68 419,68 419,68 419,68 419,69 419,69 419,69 420,69 420,69 420,69 420,69 420,69 420,69 421,70 421,70 421,70 421,70 422,70 422,70 422,70 422,70 422,70 422,70 422,70 422,70 422,70 422,70 423,70 423,70 423,70 423,70 423,71 423,71 423,71 423,71 423,70 423,70 424,71 424,71 424,71 424,71 425,71 425,71 425,71 425,71 425,71 425,71 425,71 425,71 425,71 425,71 425,71 426,71 426,71 426,71 426,71 426,71 426,71 426,71 426,71 426,71 426,71 426,70 426,70 427,70 427,70 427,70 427,70 427,70 428,70 428,70 428,70 428,70 428,70 428,70 428,70 429,70 429,70 429,70 430,70 430,70 430,70 430,70 430,70 430,70 430,70 431,70 431,70 431,70 431,70 431,69 432,69 432,69 432,69 432,69 432,69 432,69 432,69 433,69 433,69 433,69 433,69 433,69 433,69 433,69 433,69 434,69 434,69 434,69 434,69 434,69 434,69 435,69 435,69 435,69 435,69 435,69 436,69 436,69 436,68 436,68 436,68 436,68 436,68 436,68 436,68 436,68 436,68 436,68 436,67 437,67 437,67 437,67 437,67 438,67 438,67 438,67 438,67 438,67 438,67 438,67 439,67 439,67 440,67 440,67 440,67 440,67 440,67 440,67 440,67 440,67 440,68 440,68 440,68 440,68 440,68 440,68 440,68 440,68 440,68 440,68 440,68 440,68 440,68 440,68 440,68 440,69 440,69 440,69 440,69 440,69 440,69 440,69 440,69 440,69 440,69 440,69 440,69 440,69 440,69 440,69 440,69 440,69 440,69 440,69 440,69 441,69 441,69 441,69 441,70 441,70 441,70 441,70 441,70 441,70 441,70 441,70 441,70 441,71 441,71 441,71 441,71 442,71 442,71 442,71 442,71 442,71 442,72 443,72 443,72 443,72 443,72 443,72 443,72 444,72 444,72 444,72 444,72 444,72 444,73 445,73 445,73 445,73 445,73 445,73 445,73 445,73 446,73 446,73 446,73 447,74 447,74 447,74 447,74 447,74 447,74 447,74 447,73 447,73 448,73 448,73 448,74 448,74 448,74 447,74 447,74 447,74 448,74 448,74 448,74 448,74 448,74 448,74 448,74 448,74 448,74 448,74 449,74 449,74 449,74 449,74 449,74 449,74 450,74 450,74 450,74 451,74 451,74 451,74 452,74 452,74 452,74 452,73 452,73 452,73 452,73 452,73 452,73 452,73 452,73 453,73 453,73 453,73 453,73 454,73 454,73 454,73 454,73 454,73 454,73 455,73 455,73 455,73 456,73 456,73 456,73 456,74 456,74 457,74 457,73 457,73 457,73 457,73 457,73 458,73 458,73 458,73 458,73 458,74 458,74 458,74 458,74 459,73 459,73 459,73 459,73 459,73 460,74 460,74 460,74 460,74 460,74 460,74 460,74 460,75 460,75 460,75 461,75 461,75 461,75 461,75 461,75 462,75 462,75 462,75 462,75 462,75 462,75 462,75 462,75 462,75 462,75 462,75 462,76 462,76 462,76 462,76 463,76 463,76 463,76 463,76 463,76 463,76 464,77 464,77 464,77 464,77 465,77 465,77 465,77 465,77 464,78 464,78 464,78 464,78 464,78 464,78 463,79 463,79 463,79 463,79 463,79 462,79 462,79 462,79 462,79 462,79 462,79 462,80 462,80 462,80 462,80 462,80 462,80 462,80 462,80 462,80 462,80 462,80 462,80 462,81 462,81 462,81 462,81 462,81 462,81 462,81 462,81 462,81 462,81 462,82 462,82 462,82 462,82 462,82 462,82 462,82 462,82 462,82 463,83 463,83 463,83 463,83 463,83 463,83 463,83 464,84 464,84 463,84 463,84 463,84 463,84 463,84 463,84 463,84 462,84 462,84 462,84 462,84 462,84 462,84 462,84 462,84 462,84 461,84 461,84 460,84 460,84 460,84 460,84 460,85 460,85 460,85 460,85 460,85 460,85 460,85 459,85 459,85 459,87 459,87 459,87 459,87 459,88 459,88 459,88 459,88 459,89 460,89 461,89 461,89 461,89 462,90 463,90 465,90 465,90 468,90 471,90 471,91 471,91 471,91 471,91 472,91 472,91 472,91 472,91 472,91 472,91 472,91 472,91 472,91 472,91 472,92 472,92 472,92 473,92 473,92 473,92 473,93 473,93 473,93 473,93 474,94 474,94 474,94 474,94 474,94 474,94 474,94 474,94 474,94 474,94 474,94 474,94 474,94 474,93 474,92 474,92 474,92 474,92 477,90 479,86 479,85 481,82 494,81 496,83 496,85 496,86 496,88 497,89 499,93 500,97 498,99 495,104 495,105 495,108 495,111 495,111 496,113 496,114 495,115 494,115 493,115 492,115 492,116 491,116 491,117 491,117 489,115 489,115 488,115 488,115 488,115 487,114 486,113 486,113 485,112 485,112 485,112 484,111 485,111 485,111 483,110 483,110 481,109 481,109 480,109 480,109 480,109 480,109 480,109 479,109 479,110 479,110 479,110 478,110 478,110 478,110 477,110 477,110 477,111 476,111 473,111 471,112 472,112 472,113 472,114 470,114 469,115 468,115 468,115 464,116 462,117 461,118 461,118 461,117 460,117 460,117 460,117 460,117 459,117 455,117 455,116 453,116 451,117 449,117 446,117 446,117 446,116 444,116 443,115 441,115 441,115 439,114 439,114 438,114 437,114 437,114 436,113 435,113 434,113 433,112 433,112 433,112 432,112 431,113 429,114 428,115 428,115 423,118 423,119 422,119 422,119 422,120 422,120 422,120 422,120 422,120 422,120 423,120 423,120 423,120 423,121 423,121 424,121 424,121 424,121 424,121 424,121 424,121 424,121 424,121 424,121 424,121 424,121 424,121 424,121 424,121 424,121 424,121 424,122 424,122 425,122 425,122 425,122 425,122 425,122 425,122 425,122 425,122 425,122 425,122 425,122 426,122 426,122 426,122 426,122 426,122 426,123 426,123 426,123 426,123 426,123 426,123 427,124 427,124 427,124 427,124 427,124 428,124 428,124 428,124 428,124 429,124 429,124 429,124 429,125 429,125 430,125 430,124 430,124 430,124 430,124 430,124 430,124 430,124 430,124 430,124 430,124 430,124 430,124 430,124 431,124 431,124 431,124 431,124 431,125 432,125 432,125 433,125 433,125 433,125 434,124 434,124 434,124 434,124 434,124 434,124 434,124 434,124 434,125 434,125 434,125 434,125 434,125 435,125 436,125 436,125 436,125 436,125 436,125 437,126 437,126 437,126 438,126 438,126 438,126 438,126 438,127 438,127 438,127 438,127 439,127 439,127 439,127 440,127 440,127 440,127 440,127 441,127 441,127 441,127 441,127 442,127 442,127 442,127 442,127 442,126 442,126 443,126 443,126 443,126 443,126 443,126 444,126 444,126 444,126 444,126 444,126 444,126 444,126 445,126 445,126 445,126 446,126 446,126 446,126 446,126 446,126 446,126 446,126 446,125 447,125 447,125 447,125 448,125 449,125 449,125 450,125 449,125 450,125 450,125 451,125 451,124 452,124 452,124 452,124 453,124 455,124 456,124 456,125 455,126 455,127 455,127 455,128 454,128 454,129 454,129 454,130 455,131 455,131 456,132 456,132 456,132 456,133 455,133 455,133 455,133 455,133 455,134 455,134 456,135 456,135 456,135 456,136 457,136 457,136 457,136 457,136 457,136 457,137 457,137 456,138 456,138 456,138 456,138 456,138 456,139 456,139 456,139 456,139 456,140 456,140 456,140 456,141 456,141 456,142 456,142 456,142 455,143 455,144 455,144 455,144 455,144 455,144 455,144 454,144 454,143 454,143 454,143 454,143 454,143 454,142 454,142 454,142 454,142 454,142 453,142 452,141 452,141 452,141 451,141 451,141 451,141 450,142 450,142 450,142 450,142 450,142 450,142 450,143 450,143 450,143 449,143 449,143 449,143 449,144 449,144 449,144 449,144 449,145 449,145 449,145 448,145 448,145 448,145 447,145 447,146 447,146 446,146 446,146 446,146 446,146 445,146 445,146 445,146 445,146 444,146 444,146 443,146 443,146 443,146 443,146 442,146 442,146 442,145 442,145 442,145 442,145 442,145 442,145 441,145 441,145 441,145 441,145 441,144 441,144 441,144 441,144 440,144 440,143 440,143 440,143 440,143 440,143 440,143 440,142 440,142 440,142 440,142 440,142 440,142 440,141 440,141 437,141 437,142 437,142 437,142 437,142 436,142 435,142 435,142 435,142 434,142 434,142 434,142 434,142 433,142 433,142 434,142 433,142 431,142 431,142 431,142 431,142 431,142 431,142 431,143 431,143 431,143 430,143 430,143 430,143 429,143 429,143 429,143 428,143 428,143 428,143 428,142 427,142 427,142 427,142 426,142 425,142 425,143 425,143 426,143 426,144 426,144 426,144 426,145 425,146 425,147 425,147 425,148 423,150 423,150 423,150 422,152 422,153 421,153 421,154 421,154 420,155 420,155 419,156 419,157 419,157 418,158 418,158 418,158 418,159 417,159 417,159 416,160 416,160 415,162 415,163 415,163 414,164 414,164 414,165 414,165 414,165 415,165 415,166 415,166 416,167 416,167 417,167 417,168 417,168 416,169 416,171 415,172 413,175 413,176 412,176 411,176 410,176 410,176 409,176 409,176 409,176 408,176 407,178 407,179 407,180 407,181 407,181 407,181 406,181 407,182 407,182 405,182 404,182 404,181 403,181 402,181 401,181 399,181 396,182 394,181 394,180 394,180 394,179 394,180 394,179 393,179 390,179 390,179 390,179 388,179 388,179 387,179 387,180 386,180 386,180 386,182 385,182 385,182 385,183 384,185 384,191 383,191 383,191 382,191 382,191 382,191 382,190 381,190 380,190 380,190 379,190 379,191 379,192 379,193 379,193 379,193 379,195 378,197 376,199 375,199 371,199 371,200 371,200 370,200 368,201 367,201 367,201 366,200 366,200 365,200 365,200 365,200 365,200 364,200 363,201 363,201 362,201 360,201 357,201 357,201 357,200 357,199 357,199 358,198 358,198 357,198 357,198 356,199 355,199 354,200 353,200 352,200 352,200 351,200 351,200 350,201 350,201 349,201 349,201 349,201 349,201 343,201 342,201 341,201 341,201 341,202 339,202 339,202 338,201 337,200 336,198 336,198 336,198 335,196 332,196 332,196 331,196 329,195 329,195 328,195 326,194 326,194 325,194 325,194 322,194 321,194 321,193 321,193 321,193 321,192 320,192 320,192 319,192 318,193 318,193 317,193 316,193 317,194 317,194 318,195 318,195 318,195 317,195 317,195 316,196 316,196 316,196 316,196 316,196 316,196 315,196 314,197 313,197 313,198 313,198 313,198 312,199 312,199 312,199 312,199 311,199 311,200 311,200 310,200 310,200 310,202 310,202 308,202 309,204 308,204 307,204 307,204 307,205 307,205 306,205 306,205 305,205 304,205 304,204 304,203 304,202 304,201 304,199 304,199 304,198 303,197 303,195 302,194 302,193 302,193 302,193 302,192 302,192 301,191 300,191 300,191 300,191 298,192 298,192 298,192 298,192 297,193 296,194 296,194 295,195 294,195 293,196 292,195 292,195 292,194 291,193 291,192 291,192 290,192 290,191 290,191 289,190 289,190 288,189 287,189 286,188 286,188 285,188 285,188 285,188 283,189 283,189 283,189 282,189 278,188 278,188 275,188 274,188 274,188 272,188 272,188 271,188 270,188 269,188 269,190 270,191 269,191 269,194 268,197 268,196 267,196 268,197 262,198 262,198 258,198 257,198 257,199 256,199 256,199 254,198 255,201 254,200 253,200 252,200 252,200 248,199 247,202 242,202 242,201 242,199 232,198 231,202 231,203 231,204 230,205 230,206 229,207 229,207 228,208 227,208 227,207 227,207 227,207 227,207 226,206 226,206 226,206 224,207 224,207 222,207 222,207 222,207 222,207 222,208 222,208 223,209 224,209 224,209 224,209 224,210 224,210 224,210 224,210 224,211 224,211 223,212 223,212 223,212 224,213 224,214 224,214 224,214 223,215 223,215 222,215 221,215 220,215 219,216 219,216 220,216 220,217 220,217 220,217 221,217 221,217 221,217 221,217 221,218 222,218 222,218 222,218 222,219 222,219 220,219 217,219 214,218 214,218 213,218 212,218 211,218 210,217 210,216 210,216 209,215 209,215 209,214 209,214 207,214 206,215 205,215 205,215 203,215 203,216 202,216 201,217 200,217 200,217 200,217 200,218 199,218 199,218 199,218 198,217 198,217 198,217 197,217 197,217 195,216 194,215 193,215 192,214 192,214 191,214 191,214 191,213 190,213 190,213 190,212 190,212 189,212 189,212 189,212 189,212 190,212 188,211 187,211 187,211 186,211 185,211 183,211 183,211 183,211 182,211 182,211 182,211 181,211 181,211 181,210 180,210 179,210 178,210 178,210 177,210 176,210 176,210 175,210 175,210 175,212 175,212 175,213 176,214 176,215 176,215 176,216 175,216 175,216 175,215 174,215 174,214 174,214 174,214 174,214 173,214 173,214 173,214 173,213 173,213 172,213 172,213 171,213 171,213 170,213 170,213 169,213 169,213 168,213 168,213 168,213 167,213 167,212 167,212 167,212 167,212 167,212 166,212 166,211 165,211 165,211 165,211 165,210 165,210 165,210 165,209 165,209 165,209 165,209 166,209 166,209 165,209 165,208 165,208 164,208 164,208 164,208 164,208 164,208 163,208 163,208 163,208 163,208 163,208 160,208 160,207 160,207 159,207 159,207 159,205 159,205 158,205 157,205 156,205 155,205 155,205 155,206 154,206 154,205 155,203 155,201 155,199 155,198 155,196 155,194 155,193 155,191 155,190 155,189 155,188 149,188 148,188 144,188 144,188 143,188 141,188 140,188 139,189 138,189 138,189 138,189 138,190 138,190 139,190 139,191 139,191 140,192 140,193 140,193 140,193 140,193 140,193 140,193 139,193 139,193 135,191 135,194 135,194 135,195 135,195 131,194 127,194 125,193 124,193 124,193 124,193 123,193 123,193 123,193 122,193 122,192 121,192 121,192 121,192 121,192 120,192 120,192 120,193 119,193 119,193 119,193 119,193 118,193 118,194 118,194 117,194 117,194 117,194 117,194 117,194 117,194 117,193 117,193 116,193 116,193 116,193 116,193 116,193 116,193 116,193 116,193 116,193 116,193 115,192 115,192 115,192 115,192 115,192 115,192 114,192 114,192 114,192 114,192 114,192 114,192 114,192 114,192 114,192 114,193 114,193 114,193 114,194 114,194 114,198 114,198 113,198 113,198 112,197 112,197 112,197 111,197 111,196 111,196 110,196 110,196 110,196 110,196 109,195 108,195 108,195 108,195 108,195 107,195 107,195 107,196 107,196 107,197 107,197 107,197 107,197 106,198 106,198 106,198 106,199 106,199 106,200 106,200 105,200 104,200 104,200 104,200 102,200 102,199 102,199 102,199 102,198 102,198 101,198 101,197 101,197 101,197 101,197 100,197 100,197 99,197 99,197 99,197 98,196 98,196 98,196 97,196 97,196 97,196 97,196 97,196 96,196 96,197 96,197 96,197 95,197 95,197 95,197 94,197 93,197 92,197 91,197 91,197 91,197 91,197 91,197 91,197 90,197 90,197 89,197 88,197 88,197 88,197 87,197 87,197 86,197 86,197 86,197 86,197 85,197 85,197 85,197 84,197 84,197 84,197 84,197 84,198 84,198 84,198 84,198 84,198 84,198 84,198 83,198 83,198 83,199 83,199 83,199 83,199 83,199 83,199 82,199 82,199 82,199 82,199 82,199 82,199 82,199 82,199 82,199 82,199 82,199 82,199 82,199 82,199 81,200 81,200 81,200 81,200 81,200 81,200 81,200 81,200 81,200 81,200 81,200 81,200 80,200 80,200 80,200 80,200 80,200 80,200 80,200 80,200 79,201 79,201 79,201 78,201 78,202 77,202 77,202 77,202 77,202 77,202 77,202 76,202 76,203 76,203 76,203 76,203 76,203 75,203 75,203 75,204 75,204 75,204 75,204 75,204 75,204 75,204 74,204 74,204 74,204 74,204 74,204 73,204 73,204 73,204 73,204 73,204 73,204 73,204 72,204 72,204 72,204 72,204 72,204 72,204 72,204 72,205 72,205 72,205 72,205 72,205 72,204 72,204 72,204 72,204 72,205 72,205 72,205 72,205 71,205 71,204 71,204 71,204 71,204 71,204 71,204 71,204 70,204 70,205 70,205 70,205 70,205 70,205 70,205 70,205 70,205 70,205 69,205 69,205 69,205 69,205 69,205 69,205 69,205 69,205 69,205 69,205 69,205 69,205 69,205 69,206 69,206 69,206 69,205 69,205 69,205 69,206 69,206 69,206 68,206 68,206 68,206 68,206 68,206 68,206 68,206 68,206 68,206 68,206 68,206 68,206 68,206 68,206 68,206 68,206 68,206 68,206 67,206 67,206 67,207 67,206 67,206 67,206 67,206 66,206 65,206 65,206 65,206 65,206 64,206 64,206 64,206 64,205 64,205 64,205 64,204 63,202 62,197 62,197 62,196 64,194 60,193 59,193 58,193 58,193 58,192 57,192 57,192 56,192 56,192 54,192 54,192 53,192 52,191 51,191 50,191 49,191 49,191 48,191 46,191 44,191 43,191 42,191 41,191 41,191 41,192 41,192 40,192 40,193 39,192 38,192 37,192 36,192 35,192 35,192 34,191 33,191 33,191 33,191 33,191 32,190 32,190 32,190 31,190 30,190 29,189 29,189 29,189 28,189 28,189 28,187 28,186 28,186 29,186 29,186 29,186 30,186 31,185 32,185 33,185 34,185 34,185 33,184 33,184 29,181 29,180 29,179 29,179 29,179 29,179 29,178 29,178 29,176 30,175 30,175 30,174 30,174 30,174 30,173 29,172 28,171 28,170 26,170 24,170 22,170 20,170 18,170 13,162 6,164 5,161 5,161 5,161 5,161 4,158 4,158 4,158 4,157 4,157 4,157 4,157 4,157 4,157 2,153 2,153 2,153 2,151 1,149 1,148 0,146 0,146 1,145 1,145 2,145 2,145 3,145 3,145 4,145 5,147 6,146 7,146 7,146 10,145 11,145 11,145 11,145 12,144 14,144 15,145 15,145 17,145 17,145 17,145 17,144 17,144 17,144 18,143 19,143 19,143 19,143 18,143 18,142 17,142 17,142 17,142 17,142 16,140 16,140 16,139 16,139 16,138 16,137 16,136 15,136 16,136 16,136 17,136 18,137 18,137 18,137 19,137 19,137 19,137 19,135 20,135 21,135 21,135 22,135 23,135 23,135 24,134 24,134 24,134 24,134 24,134 24,133 24,133 24,132 24,131 23,130 23,130 23,130 23,130 23,130 23,129 23,129 23,129 23,128 23,127 23,127 23,127 23,127 23,127 24,127 25,127 25,127 25,126 25,126 25,126 25,125 26,125 26,125 26,124 25,124 25,124 25,124 26,123 26,123 26,123 26,123 26,123 25,123 26,123 26,122 26,122 26,122 26,122 26,122 26,122 26,122 26,122 26,122 26,122 26,122 26,122 26,122 26,122 26,121 26,121 25,121 25,121 25,121 25,121 25,121 25,120 25,120 25,120 25,120 25,120 25,120 25,120 25,120 25,120 25,119 25,119 25,119 25,119 24,119 24,119 25,119 24,119 24,119 24,118 24,118 24,118 26,118 26,118 26,118 27,117 27,117 27,117 27,117 27,116 27,116 27,116 27,116 27,116 27,115 27,115 28,115 28,114 28,114 28,114 28,114 28,114 28,114 28,114 28,114 28,114 28,113 29,114 31,114 31,114 31,113 31,113 31,113 31,113 31,112 31,112 31,112 31,112 31,112 31,112 31,111 31,111 31,111 32,111 32,111 32,111 32,111 33,110 33,110 33,110 33,110 33,110 33,110 33,109 34,109 34,108 35,108 35,108 35,107 35,107 35,107 36,107 36,107 36,107 36,107 36,107 36,106 36,106 36,106 37,106 37,106 37,106 37,105 37,105 37,105 37,105 37,105 37,105 37,105 37,105 37,105 37,105 37,105 38,105 38,105 38,105 38,105 38,105 39,105 39,106 41,106 43,107 43,106 44,106 44,106 44,106 44,106 44,107 44,107 44,107 44,107 44,107 44,107 45,107 44,107 44,109 42,111 43,111 43,112 43,112 44,112 44,112 44,112 44,112 43,112 43,113 43,113 43,113 43,113 43,113 43,114 43,114 43,114 43,114 43,114 43,114 42,114 40,115 40,115 40,115 39,115 39,115 39,115 39,116 39,116 39,116 39,116 39,116 39,116 38,116 38,117 38,117 38,117 39,117 39,118 40,119 40,119 40,119 40,120 40,120 41,120 41,120 41,120 41,121 42,121 42,121 42,121 42,121 42,121 42,122 42,122 42,122 43,125 43,128 43,130 43,132 42,133 42,135 42,137 42,139 42,140 43,142 43,144 43,145 43,146 43,146 43,146 43,147 43,148 43,148 43,148 43,149 43,150 43,150 43,151 43,151 43,152 44,153 44,153 45,154 46,155 47,155 47,155 47,155 48,155 48,156 48,156 49,156 49,157 49,157 50,157 50,158 50,159 51,159 51,159 52,160 52,160 53,160 54,161 56,162 57,162 59,163 62,165 62,165 63,165 63,166 64,166 64,166 65,166 65,166 65,167 65,167 65,167 66,167 66,168 66,168 67,169 67,169 68,169 69,169 69,171 69,171 70,171 71,172 72,172 73,173 74,173 75,173 76,173 76,174 77,174 77,174 77,173 77,172 78,171 78,170 78,170 78,169 79,168 79,167 79,167 79,167 79,167 80,166 81,166 82,166 82,165 81,163 81,163 81,163 81,163 80,163 80,163 80,163 80,163 80,163 80,163 80,163 80,163 80,163 80,163 80,163 79,163 79,162 77,161 77,161 77,161 77,161 77,160 77,160 77,160 76,159 75,158 75,158 74,156 74,156 73,156 73,156 73,155 71,153 72,153 72,153 71,152 70,151 69,149 69,149 69,149 69,149 69,148 69,148 69,148 69,148 69,147 69,147 69,147 69,146 69,146 69,146 69,146 69,145 69,145 69,145 69,145 69,145 69,145 68,144 68,144 68,144 68,144 68,143 68,143 68,143 68,142 68,142 67,142 67,142 67,141 67,141 67,141 67,141 66,140 66,140 66,140 65,139 65,139 65,139 65,139 65,138 65,138 65,138 65,138 65,138 65,138 66,138 66,138 66,137 66,137 66,137 66,137 66,137 66,137 66,137 66,137 66,136 66,136 66,136 67,135 67,134 67,134 67,134 67,134 67,133 68,133 68,133 68,133 68,132 68,132 68,132 68,131 68,131 68,131 68,131 68,131 69,131 70,131 70,131 70,131 70,131 70,131 70,131 70,131 70,131 70,131 71,131 71,131 71,131 71,131 72,131 73,131 73,131 73,131 73,131 74,131 74,131 74,131 74,131 74,131 74,131 75,130 75,130 75,130 75,130 75,129 75,129 75,129 75,129 75,128 76,128 76,128 76,128 76,128 76,128 76,128 76,127 76,127 76,127 76,126 76,126 76,126 76,126 76,126 76,126 76,126 76,126 77,126 77,126 77,126 77,126 77,126 77,125 77,125 77,125 77,124 77,124 77,124 77,123 77,123 77,123 77,123 77,123 78,123 78,123 78,123 78,123 78,123 78,123 78,123 78,123 79,123 79,123 79,123 79,123 79,123 79,122 79,122 80,122 80,122 80,122 81,122 81,122 81,122 81,122 81,122 81,122 81,122 81,122 81,122 82,122 82,122 82,122 82,120 81,120 81,120 83,120 83,120 85,120 85,120 87,121 87,121 89,121 91,122 91,122 91,122 92,121 92,121 92,120 92,120 93,120 93,120 93,120 93,120 93,119 93,119 93,118 93,118 93,118 93,118 93,117 93,117 93,117 93,117 93,117 93,117 93,116 92,116 92,116 92,114 92,114 92,114 92,114 92,114 92,114 93,114 92,114 92,114 92,113 93,112 93,112 93,112 92,111 92,111 91,111 90,111 89,111 88,111 87,111 87,110 86,110 86,109 86,109 86,109 86,109 85,109 85,109 84,109 84,109 84,108 84,108 83,108 83,108 83,108 83,108 82,108 81,108 81,108 80,108 80,108 79,108 79,108 79,107 79,107 79,107 79,107 78,106 78,106 79,106 79,106 79,106 79,105 80,105 80,105 80,105 80,105 79,104 79,104 79,104 79,104 79,104 78,104 78,104 77,104 77,104 76,104 75,104 74,104 74,104 74,104 73,104 73,105 73,105 73,104 72,103 72,102 72,102 72,102 72,101 71,101 71,101 71,101 69,102 69,102 68,102 68,102 68,102 68,101 68,101 68,101 68,101 68,101 68,101 68,100 67,100 67,100 67,100 67,100 68,100 68,99 68,99 68,99 67,99 68,99 68,98 68,98 68,98 68,98 68,97 68,97 68,97 68,96 68,96 68,96 68,96 68,96 68,96 68,96 69,95 69,95 70,95 71,94 71,94 72,94 72,93 73,93 73,92 74,92 74,92 74,92 75,91 75,91 72,89 72,90 71,90 70,89 68,89 67,89 65,89 65,89 65,89 64,89 64,88 64,88 64,88 64,88 64,88 63,88 63,87 62,87 58,90 58,91 54,96 53,96 48,96 46,93 45,92 45,92 44,91 44,91 43,91 40,91 38,90 38,90 37,90 37,89 37,89 36,88 35,87 34,86" id="7705" class="canton" fill="steelblue" stroke-width="1" stroke="white" geotype="canton" geoname="Coulommiers" code_insee="7705" code_departement="77" nom_departement="Seine-et-Marne" code_region="11" nom_region="Île-de-France"/></svg>