<?xml version="1.0" encoding="utf-8"?>
<svg version="1.1" id="svgmap" xmlns="http://www.w3.org/2000/svg" xmlns:xlink="http://www.w3.org/1999/xlink" x="0px" y="0px" width="100%" height="100%" viewBox="0 0 500 311">
<polygon points="243,43 246,40 246,39 265,25 267,23 267,23 267,23 268,23 270,21 269,21 270,21 270,21 271,21 284,11 298,0 299,0 299,0 306,2 315,4 317,4 320,4 324,5 326,5 328,5 335,7 338,7 339,7 339,7 339,11 335,10 335,10 335,10 335,12 338,18 338,18 339,18 338,18 338,19 339,21 341,24 342,25 342,25 343,26 343,27 344,29 346,31 348,34 349,36 349,37 349,37 351,41 354,43 370,35 370,35 370,37 371,37 372,37 372,37 372,37 372,37 372,37 373,38 373,38 373,37 374,37 375,37 376,37 379,36 380,35 381,35 382,34 383,34 383,34 384,34 382,31 383,31 383,31 384,31 386,30 386,32 387,33 387,34 388,36 392,35 395,33 395,33 395,33 397,34 400,33 403,32 402,31 403,31 412,27 413,29 414,29 415,28 422,25 424,27 426,26 426,25 427,25 427,24 428,24 428,24 430,23 431,22 432,22 433,21 435,20 436,20 437,19 438,19 442,22 444,24 451,29 453,30 460,36 458,37 461,39 462,40 464,41 465,39 481,50 484,52 489,55 498,60 500,62 482,72 476,77 471,81 469,82 468,84 468,84 467,85 467,86 467,86 466,87 466,89 465,90 464,93 464,93 464,94 463,94 463,95 463,95 462,96 462,96 461,97 460,98 459,99 459,100 457,101 455,103 454,103 454,104 454,104 453,105 451,107 451,107 450,108 450,108 450,109 449,110 448,111 448,111 447,113 446,115 446,117 446,118 446,118 446,119 446,120 446,121 448,125 448,126 449,130 449,132 449,132 449,133 449,133 449,134 449,134 449,135 448,135 448,136 448,137 448,137 447,138 447,139 447,139 445,140 444,141 443,142 442,143 441,143 440,144 439,144 438,144 437,145 436,145 434,146 431,147 425,149 424,149 423,150 422,150 421,151 421,152 419,154 418,156 417,157 415,159 414,162 412,163 410,166 409,169 408,170 407,172 406,173 402,178 397,185 396,186 395,188 393,189 386,196 378,192 376,193 369,194 361,197 359,195 354,196 347,198 341,198 324,198 317,199 305,198 294,195 287,192 281,190 270,183 262,179 241,161 241,161 239,162 237,163 237,163 232,166 226,167 224,166 222,168 221,169 221,169 221,169 221,169 218,171 216,174 215,174 214,175 210,177 210,177 209,177 204,177 198,181 191,186 190,187 187,190 188,190 189,190 186,192 192,195 186,199 183,201 185,202 183,204 182,203 180,205 184,208 181,209 180,209 174,211 174,211 173,213 174,214 174,214 176,215 173,225 172,226 168,227 165,228 175,239 183,274 140,278 137,277 128,273 127,273 126,273 125,273 124,273 112,311 92,304 75,294 74,294 54,290 64,282 67,279 67,278 67,278 67,277 67,276 67,275 66,275 66,274 55,274 39,274 33,273 25,273 20,273 7,273 7,272 10,269 15,262 14,260 10,256 6,251 5,251 5,250 6,249 5,249 5,249 4,249 4,248 4,248 3,247 1,245 0,243 8,243 17,243 30,243 39,239 46,235 46,235 45,235 45,235 47,233 46,233 46,233 46,233 45,233 45,232 43,231 43,231 41,229 41,229 41,229 41,228 40,228 38,226 38,225 37,224 35,223 29,222 29,221 29,221 30,220 30,220 31,220 32,219 36,217 37,217 37,216 38,216 38,216 38,216 39,216 39,216 41,215 41,215 42,214 43,213 45,211 47,210 48,209 48,209 48,209 48,208 48,208 48,208 47,206 47,206 47,205 47,205 47,205 47,204 47,204 47,204 48,203 49,203 47,202 47,201 48,201 48,200 47,200 47,200 48,200 48,199 48,199 51,198 52,198 52,198 52,198 51,197 51,196 51,196 51,196 57,195 56,194 55,194 53,192 53,192 51,192 51,191 50,191 50,191 48,189 45,187 45,187 44,187 44,187 44,186 43,186 43,186 43,185 43,185 43,185 43,184 43,183 43,182 43,181 42,181 43,180 50,174 52,173 54,172 54,171 56,170 58,168 60,167 63,165 65,163 67,162 69,160 70,160 72,158 77,163 77,163 77,164 77,165 79,163 80,164 81,165 82,165 82,166 84,166 84,165 85,165 86,164 87,163 88,162 90,161 91,159 93,158 95,157 98,155 102,153 106,150 111,154 111,154 116,158 119,160 119,159 121,158 122,157 127,160 127,160 131,163 132,163 132,162 133,161 133,160 134,158 134,156 134,154 134,150 135,149 135,147 135,146 137,143 140,138 141,135 142,134 143,134 143,134 145,132 146,131 148,130 150,129 152,127 154,127 154,126 152,126 152,126 156,120 157,119 158,115 159,113 161,113 167,111 180,108 186,106 196,117 215,108 217,108 224,105 225,105 225,104 233,101 226,79 227,78 226,77 222,74 217,71 217,71 217,71 216,71 215,72 215,72 214,72 214,72 213,72 212,72 212,72 211,72 211,72 211,72 210,72 209,72 209,72 208,72 207,71 207,71 206,71 206,70 205,70 205,69 204,68 204,68 204,68 204,67 204,67 204,67 204,67 204,67 204,66 204,66 204,66 204,65 205,64 205,64 207,62 207,62 209,62 212,61 212,61 212,60 212,59 212,59 216,46 217,46 218,47 220,47 223,48 225,49 227,49 229,50 232,51 232,51 242,43 242,43 243,43 243,43" id="7803" class="canton" fill="steelblue" stroke-width="1" stroke="white" geotype="canton" geoname="Chatou" code_insee="7803" code_departement="78" nom_departement="Yvelines" code_region="11" nom_region="Île-de-France"/></svg>