<?xml version="1.0" encoding="utf-8"?>
<svg version="1.1" id="svgmap" xmlns="http://www.w3.org/2000/svg" xmlns:xlink="http://www.w3.org/1999/xlink" x="0px" y="0px" width="100%" height="100%" viewBox="0 0 500 157">
<polygon points="179,12 182,14 184,16 187,19 189,20 190,20 194,21 198,23 212,26 220,28 223,29 230,31 234,32 240,33 243,33 248,34 256,33 270,32 275,31 276,31 279,31 283,30 290,29 293,28 297,27 304,26 312,24 329,22 340,21 353,20 357,19 367,19 373,18 379,18 388,19 393,19 397,19 402,18 407,18 415,18 420,18 428,21 430,21 431,22 436,24 438,26 440,27 450,33 451,34 453,36 458,39 461,42 463,44 463,45 465,48 465,49 468,55 470,57 471,58 478,64 478,65 474,66 475,68 474,68 472,68 473,69 475,71 475,72 476,72 476,73 478,76 478,77 476,77 477,79 480,83 481,84 482,87 483,89 484,91 486,94 488,97 492,100 494,101 496,103 499,109 500,111 499,111 499,111 499,111 498,111 498,114 493,114 493,115 493,116 493,116 493,116 493,117 493,117 492,117 492,118 492,118 491,120 491,123 489,125 489,125 489,126 489,128 490,132 490,132 489,132 489,133 486,134 484,134 481,134 481,134 479,134 479,137 479,137 476,137 474,137 474,137 472,137 471,137 471,139 471,141 471,143 468,142 460,140 461,142 461,143 460,145 460,146 459,146 459,144 459,144 458,144 458,144 457,144 457,144 453,144 453,145 446,144 446,144 443,144 443,144 439,144 439,145 438,144 436,144 436,144 436,144 435,145 435,146 436,148 431,148 430,148 430,148 430,148 425,148 428,141 427,141 428,139 427,139 427,138 422,137 422,138 421,140 416,139 415,141 415,141 413,144 408,149 407,150 407,156 403,157 386,157 370,155 366,154 360,151 360,151 361,150 357,147 355,148 354,148 350,149 350,148 350,148 347,149 343,146 340,147 339,143 338,140 334,136 321,127 317,123 317,122 312,124 310,123 309,122 308,120 307,119 307,116 306,115 305,111 305,109 303,107 300,105 296,103 290,101 289,100 289,99 289,99 289,98 289,97 289,94 289,93 288,92 288,91 287,92 284,93 283,93 281,94 279,94 279,94 278,96 275,99 275,99 275,98 274,98 259,92 260,91 262,90 263,89 261,88 263,84 262,84 261,84 256,84 252,83 251,83 249,83 247,82 246,81 243,80 238,80 235,79 232,79 230,78 227,79 225,77 220,76 215,76 217,73 215,72 210,80 208,84 204,90 203,89 203,89 201,89 200,89 199,88 198,88 195,88 193,87 192,87 191,87 188,87 187,87 186,86 187,86 186,86 187,85 186,84 187,84 188,83 188,82 188,82 188,81 188,81 186,81 185,80 184,80 184,80 182,80 181,79 181,79 181,79 180,79 177,81 178,82 177,83 175,84 169,82 165,86 159,91 151,96 105,75 96,77 86,80 67,85 55,88 53,89 52,87 52,86 52,86 49,84 48,83 47,83 46,82 46,81 45,80 44,80 43,79 42,79 41,79 40,79 39,80 38,80 37,78 34,76 33,75 31,75 27,76 25,76 20,75 17,74 7,72 5,72 2,70 1,70 0,69 0,68 1,68 2,68 2,68 4,66 6,65 6,65 7,65 7,64 8,63 9,62 10,61 13,59 16,57 20,56 21,54 23,54 23,53 23,53 22,53 22,53 22,53 22,53 24,52 24,52 25,52 25,52 26,52 27,51 28,51 29,51 31,50 32,50 32,50 33,49 33,49 35,49 40,47 40,47 47,45 49,44 49,43 49,43 50,41 51,40 52,39 52,39 52,38 52,37 52,37 52,37 53,37 53,37 55,35 56,34 63,32 66,31 68,31 69,31 70,31 71,31 72,31 73,31 73,31 75,30 76,30 77,30 78,29 79,29 78,28 78,28 78,28 78,28 78,27 78,27 78,27 77,27 77,27 77,27 77,26 77,26 77,26 77,26 77,25 77,25 77,25 77,23 78,22 78,21 78,21 78,21 78,21 78,21 78,20 78,20 79,20 79,20 80,20 80,19 81,19 82,18 84,18 85,18 86,17 86,17 87,16 89,12 89,10 90,9 90,8 90,8 91,8 92,7 93,7 93,6 94,6 95,5 96,4 97,3 98,2 98,1 99,1 100,1 100,0 100,0 101,0 103,0 105,0 107,0 110,1 114,2 117,3 118,4 119,3 119,4 122,5 123,6 123,7 124,7 125,9 125,9 127,10 127,11 128,12 128,12 133,16 133,17 144,19 145,18 147,17 154,11 157,9 158,9 160,10 164,10 164,12 164,12 179,12" id="7808" class="canton" fill="steelblue" stroke-width="1" stroke="white" geotype="canton" geoname="Mantes-la-Jolie" code_insee="7808" code_departement="78" nom_departement="Yvelines" code_region="11" nom_region="Île-de-France"/></svg>