<?xml version="1.0" encoding="utf-8"?>
<svg version="1.1" id="svgmap" xmlns="http://www.w3.org/2000/svg" xmlns:xlink="http://www.w3.org/1999/xlink" x="0px" y="0px" width="100%" height="100%" viewBox="0 0 500 284">
<polygon points="18,137 22,142 40,138 44,138 57,143 65,138 85,140 92,140 107,128 111,124 112,124 112,123 113,123 113,122 119,116 121,113 122,112 122,112 123,111 123,111 124,111 124,110 126,110 126,110 127,110 128,107 128,107 129,106 103,103 92,101 91,100 90,99 91,97 92,96 96,95 105,93 108,92 108,92 108,90 108,90 114,81 104,78 102,80 96,78 103,67 105,64 113,53 127,57 144,62 172,69 176,69 187,69 193,69 194,69 205,68 206,68 218,68 221,68 222,68 223,68 224,67 225,67 226,66 227,64 235,57 235,57 238,53 240,52 241,50 245,47 245,47 242,45 238,42 238,42 238,41 237,40 238,40 237,38 236,39 234,37 234,37 234,37 234,36 232,34 231,33 231,33 228,30 227,29 226,29 226,29 226,27 225,26 225,26 225,26 225,25 224,24 224,24 223,24 224,23 222,23 223,22 223,22 224,22 225,21 225,21 226,21 227,20 229,19 231,18 232,17 232,17 233,16 235,13 235,13 236,13 236,13 236,13 237,13 239,13 239,13 239,13 240,14 241,14 256,14 256,13 259,12 262,7 266,1 267,0 277,2 283,3 288,3 295,7 294,11 292,12 292,13 292,15 292,16 293,16 294,16 295,17 294,19 294,20 296,21 298,22 298,23 298,23 298,24 301,25 302,25 310,31 310,31 314,36 316,38 316,38 320,42 309,43 316,60 329,58 330,58 335,59 320,73 355,72 358,72 372,72 380,67 380,68 396,68 399,70 400,72 401,72 403,73 404,75 404,76 403,78 406,80 407,81 409,82 413,82 414,82 425,86 431,96 410,121 412,122 413,119 414,120 418,114 421,111 421,110 430,108 431,109 461,119 463,119 469,117 477,117 481,122 484,126 490,134 483,137 478,138 478,139 480,140 480,141 481,143 481,144 480,145 480,146 480,147 480,148 480,149 482,150 482,151 483,153 485,154 488,155 490,155 489,157 493,163 494,170 495,173 497,175 500,177 488,178 481,178 479,176 474,175 467,176 466,175 457,174 453,173 448,173 447,173 434,172 425,182 410,179 407,180 402,177 398,174 389,171 390,157 380,157 374,158 365,158 355,159 349,159 347,161 345,162 343,163 339,166 332,169 334,170 344,172 348,175 353,186 353,193 358,200 353,203 355,204 359,204 355,210 353,213 352,212 350,216 357,217 357,217 359,216 359,217 358,218 357,220 355,225 353,227 352,227 350,228 348,230 347,231 351,236 350,237 346,239 345,241 344,241 340,242 332,242 327,237 326,237 326,236 326,236 323,234 311,223 296,226 296,226 286,229 286,228 282,227 278,231 261,231 258,233 257,234 257,234 256,235 256,235 252,239 239,253 235,257 216,250 218,248 205,245 204,242 201,240 198,239 196,241 195,242 194,242 194,243 193,244 193,244 192,245 192,245 184,251 178,254 177,253 171,257 169,259 164,261 161,264 158,266 157,269 156,270 158,271 158,273 157,272 148,273 145,271 144,272 141,271 140,273 140,273 139,274 147,283 147,284 142,282 123,277 114,274 121,266 122,264 110,255 113,254 117,252 115,251 116,251 110,247 110,247 108,245 108,246 107,246 106,247 105,248 103,249 102,249 101,250 100,250 96,251 95,251 94,251 93,251 92,252 90,252 90,251 92,249 92,249 91,248 91,248 90,247 88,246 87,245 87,245 87,244 86,243 87,241 87,238 85,236 79,234 78,234 67,232 61,231 52,226 44,227 37,226 25,229 21,229 1,233 4,221 5,210 2,210 6,201 0,200 10,186 14,179 16,176 16,176 11,175 9,175 7,175 8,174 8,174 15,147 18,137" id="7821" class="canton" fill="steelblue" stroke-width="1" stroke="white" geotype="canton" geoname="Versailles-2" code_insee="7821" code_departement="78" nom_departement="Yvelines" code_region="11" nom_region="Île-de-France"/></svg>