<?xml version="1.0" encoding="utf-8"?>
<svg version="1.1" id="svgmap" xmlns="http://www.w3.org/2000/svg" xmlns:xlink="http://www.w3.org/1999/xlink" x="0px" y="0px" width="100%" height="100%" viewBox="0 0 500 342">
<polygon points="0,79 1,79 2,78 3,78 5,77 5,77 7,76 8,76 9,75 10,74 12,74 12,74 12,74 14,73 14,73 15,72 15,72 16,72 16,72 17,71 18,71 19,70 22,69 23,69 23,69 24,68 25,67 25,66 25,66 26,65 26,64 27,62 28,62 28,61 28,60 30,57 31,56 30,56 30,56 31,55 31,54 31,54 31,54 31,54 32,53 32,53 32,53 32,53 32,52 33,52 33,52 33,52 33,52 34,52 34,51 34,51 34,51 35,51 35,51 35,51 35,51 36,50 37,50 38,49 40,48 40,47 42,46 43,45 44,45 45,44 45,44 46,43 48,42 49,41 49,40 50,40 51,37 52,37 52,37 52,37 53,36 53,36 54,34 55,34 55,33 55,33 56,33 56,33 56,33 56,33 57,32 57,32 58,32 60,31 60,31 61,31 61,30 62,30 62,30 64,30 65,29 66,29 67,28 67,28 67,28 67,28 67,28 67,27 67,27 67,27 66,27 66,26 66,26 66,25 65,25 65,24 65,24 64,23 64,22 64,22 64,22 63,22 63,22 62,22 62,22 62,22 61,21 60,21 60,21 60,20 60,20 59,20 59,20 58,19 58,18 58,18 58,18 58,18 58,18 58,16 58,16 58,16 62,15 63,15 63,14 63,14 63,14 63,15 63,14 63,14 63,15 63,15 63,15 63,15 63,15 64,15 64,15 64,15 64,15 64,15 64,15 64,15 65,15 65,15 65,15 66,15 66,15 66,16 66,16 66,16 66,16 66,16 67,16 67,16 67,16 67,17 67,17 67,17 68,17 68,17 69,17 69,17 69,17 69,17 70,17 70,17 70,17 70,17 70,17 70,17 70,18 71,18 71,18 71,18 71,18 71,18 71,18 72,18 72,18 73,18 73,18 74,18 74,18 76,18 77,19 77,19 77,18 77,18 77,18 78,17 78,17 78,17 78,17 78,17 79,17 79,17 80,17 80,17 80,17 81,17 81,17 82,18 82,18 82,18 83,18 83,18 83,18 83,18 83,19 83,19 83,19 84,19 84,19 84,19 84,19 85,19 85,19 85,19 85,19 85,19 86,19 86,18 86,17 86,16 86,16 86,15 86,13 86,13 86,13 86,12 86,12 87,11 87,11 87,11 87,11 88,11 90,11 91,11 91,12 92,12 93,12 94,12 96,12 96,12 96,12 96,12 96,11 97,10 97,10 97,10 97,10 97,10 98,10 98,10 98,10 98,10 98,10 98,10 98,9 98,9 98,9 98,9 98,9 98,9 98,9 98,8 98,8 98,8 98,8 98,8 98,8 97,8 97,8 97,7 97,7 96,7 96,7 96,7 96,6 96,6 96,6 97,6 97,6 97,5 97,5 97,5 97,5 97,4 98,4 98,3 99,3 99,3 99,3 99,2 99,2 101,2 101,1 102,2 103,2 104,1 104,1 105,1 106,0 106,0 106,0 107,1 107,1 107,1 107,1 107,2 108,2 108,2 108,3 109,3 109,3 109,3 110,3 110,3 110,4 110,4 110,4 110,4 111,4 111,4 112,4 112,4 112,5 113,5 113,5 114,5 114,5 115,5 115,5 115,5 115,5 115,5 115,5 116,6 116,6 116,6 116,6 116,5 117,5 117,5 117,5 117,4 117,4 118,4 118,4 118,4 118,4 118,4 118,4 120,3 121,3 126,2 126,2 126,2 126,2 126,2 127,2 127,2 127,2 127,2 128,2 128,2 128,2 129,1 129,1 130,1 131,1 131,1 131,1 131,1 132,1 132,1 132,1 132,1 132,1 133,1 133,1 133,1 135,0 135,0 135,0 137,0 137,0 138,1 138,1 139,1 139,1 140,1 139,3 139,4 139,5 138,5 138,6 138,6 138,7 138,7 138,7 138,8 138,8 137,8 137,9 137,9 137,9 136,9 136,9 136,10 136,11 135,11 135,11 135,12 135,12 135,12 134,13 134,13 134,13 134,13 134,13 134,13 133,13 133,14 133,14 133,14 132,14 132,14 132,15 131,15 131,15 131,15 131,15 131,15 131,15 131,15 132,16 132,16 132,16 133,16 133,16 133,16 134,17 134,17 135,17 136,17 137,17 137,18 137,18 138,18 139,18 139,18 139,18 140,18 141,18 141,18 142,18 142,18 142,18 142,18 142,18 142,18 143,18 143,18 143,18 143,17 144,17 144,17 144,17 144,17 144,17 144,17 145,17 146,17 146,17 146,17 146,17 146,17 147,15 148,14 148,14 148,14 148,13 148,13 148,13 149,12 149,12 149,12 149,12 150,11 150,11 150,10 150,10 150,10 150,9 152,10 152,10 153,10 153,10 153,10 153,11 153,11 154,11 154,11 155,10 155,10 156,11 156,11 157,10 157,9 157,9 157,9 157,8 157,8 157,8 157,8 157,8 157,8 157,8 157,8 157,8 158,8 159,8 159,8 160,8 160,8 160,7 160,7 161,7 161,6 162,6 162,5 163,5 163,5 164,5 166,6 167,7 168,7 168,8 169,8 170,9 171,9 170,9 170,9 169,10 169,10 169,11 168,11 168,11 168,11 168,11 167,12 165,13 165,13 164,14 163,14 162,15 162,15 162,15 161,16 161,16 161,16 160,17 160,17 159,18 159,18 159,19 159,19 158,20 158,20 158,20 157,21 155,22 155,22 154,22 153,23 153,23 152,24 151,24 150,25 149,26 149,26 149,26 149,26 149,27 149,27 149,27 149,28 149,28 149,29 149,30 149,30 149,31 149,31 149,32 149,33 149,33 149,34 149,33 150,33 151,32 152,32 152,31 153,31 153,31 154,31 156,32 156,32 156,33 155,33 154,34 154,34 155,34 155,35 155,35 155,35 155,35 155,35 155,36 155,36 155,36 155,37 154,37 154,38 153,38 153,38 153,38 153,39 153,39 153,39 153,39 153,39 153,39 154,39 155,39 157,40 158,40 158,40 159,39 160,39 161,39 161,39 162,39 163,39 164,39 164,39 165,39 166,39 168,39 172,39 173,39 173,39 173,39 173,39 172,40 172,40 172,40 173,40 175,41 175,41 175,41 175,41 177,42 177,42 177,42 177,42 177,43 178,43 178,44 179,44 179,45 179,45 179,45 179,45 179,46 180,46 181,46 181,46 181,46 181,46 181,45 181,45 182,45 183,45 184,44 184,44 185,44 185,44 185,44 185,44 186,43 186,43 186,43 186,42 187,41 187,41 187,40 187,40 188,40 189,40 190,40 190,40 191,40 191,40 191,40 192,40 192,40 192,40 193,40 193,40 194,39 194,39 194,39 196,39 196,39 198,38 198,38 198,38 199,39 199,39 200,39 200,39 200,40 200,40 200,40 201,41 201,41 202,42 202,42 203,43 203,43 203,44 203,44 204,45 204,45 204,45 205,46 205,47 205,47 206,46 207,46 208,46 208,46 208,46 209,46 209,46 210,46 210,47 211,47 212,47 212,48 212,48 212,48 212,48 213,48 213,48 213,48 213,48 215,48 216,49 217,50 218,48 218,48 218,48 218,47 218,45 219,45 219,44 219,44 219,44 219,44 220,44 220,44 220,44 221,44 221,44 222,44 222,44 222,44 222,44 223,44 224,45 224,45 225,45 225,45 226,45 226,45 227,45 227,45 227,45 227,45 227,45 228,46 228,46 228,46 229,46 230,46 230,46 230,47 230,48 230,48 230,49 230,50 229,51 229,51 229,51 229,51 229,51 229,52 229,52 229,52 229,53 229,53 229,54 230,55 230,56 230,56 230,56 230,57 231,57 232,58 232,58 232,58 232,58 232,58 233,59 233,59 233,59 234,60 234,60 235,61 236,62 237,62 238,63 239,64 239,64 239,64 239,64 240,65 241,65 241,66 242,66 242,67 243,67 243,67 244,68 244,68 245,68 245,68 245,69 245,69 246,69 246,69 247,69 247,70 248,70 248,70 248,70 248,71 249,71 249,72 250,72 250,73 251,73 251,73 251,74 252,75 252,75 253,75 253,75 252,76 252,76 252,76 252,77 253,77 253,77 254,78 254,79 255,80 256,80 256,80 256,81 256,81 256,81 257,83 257,83 258,84 258,84 258,83 259,83 260,83 260,83 260,82 261,82 261,82 262,82 264,81 264,81 265,81 265,81 265,81 265,80 266,80 266,80 266,80 266,80 266,81 266,80 269,80 270,79 272,78 273,78 273,78 274,77 275,76 275,76 275,76 276,75 277,74 278,74 279,74 279,74 279,74 279,74 279,74 280,73 280,73 280,73 280,73 280,72 281,71 281,71 281,71 281,70 281,70 281,70 281,70 282,70 282,70 282,70 282,70 283,70 283,70 283,70 283,70 283,70 284,69 284,69 284,69 284,69 285,69 285,68 285,68 285,68 285,68 285,68 285,68 286,67 287,66 287,66 287,65 288,65 288,65 288,65 288,65 288,65 289,65 289,65 289,65 289,65 289,65 290,65 291,65 291,64 292,64 294,63 294,63 294,63 295,63 295,63 295,63 295,63 295,63 296,63 297,63 297,63 297,63 297,63 298,62 298,62 298,62 298,62 298,62 298,62 299,62 299,62 300,62 301,62 303,62 303,62 304,61 305,61 306,61 308,60 309,60 310,60 310,60 311,59 311,59 312,58 312,58 313,58 313,57 314,57 314,56 314,56 314,56 314,55 314,54 314,54 314,53 315,51 316,51 316,50 316,50 316,50 316,50 316,49 317,49 319,47 319,46 320,45 318,44 320,41 320,41 320,40 320,40 320,40 320,40 321,39 321,39 321,38 321,38 321,38 321,37 321,37 321,36 321,36 321,35 321,34 322,34 324,35 324,35 325,35 326,35 327,36 327,36 327,35 327,35 328,36 329,36 332,37 335,38 336,38 338,39 340,39 341,39 342,40 342,40 342,41 342,41 341,41 341,42 341,43 340,43 340,44 340,44 341,45 341,45 341,45 341,46 341,46 341,46 341,46 341,46 340,47 339,48 339,48 339,48 339,49 340,49 340,49 341,50 341,51 341,51 341,52 342,52 342,52 342,52 341,53 341,53 341,53 342,53 342,54 342,54 343,54 343,54 343,55 343,55 344,55 344,55 344,55 345,56 345,56 345,56 345,56 345,56 346,56 346,56 347,56 348,56 348,56 349,56 350,56 350,56 351,57 351,57 351,57 351,57 351,57 351,57 353,57 353,57 355,57 359,58 361,59 362,59 363,59 365,60 365,60 365,60 366,60 368,61 368,62 369,62 371,62 371,62 371,62 372,62 372,62 373,63 374,63 375,63 375,64 375,64 377,64 377,64 378,65 378,66 379,67 379,67 379,67 379,67 379,67 380,69 380,69 380,69 380,69 379,71 379,72 379,72 379,72 378,73 378,73 378,73 378,74 378,74 377,75 377,75 377,78 377,78 377,78 378,80 378,81 378,81 378,86 378,86 378,86 379,88 379,87 379,87 380,88 380,89 379,89 379,89 379,90 379,90 376,95 373,99 373,99 380,99 380,99 380,99 380,99 383,99 384,99 384,100 385,100 386,101 386,102 386,102 387,102 387,102 387,101 387,101 388,101 389,102 389,102 389,102 389,102 390,101 390,101 391,101 390,102 391,102 391,102 393,102 394,102 395,102 395,102 396,102 397,103 397,103 398,103 399,103 399,103 399,102 399,102 399,101 399,101 400,102 401,102 402,102 402,103 404,103 404,103 404,104 405,104 406,105 406,105 406,105 407,105 408,104 409,106 410,107 412,108 412,108 411,109 410,109 412,109 414,110 413,111 413,111 412,110 412,111 412,112 412,112 412,112 412,112 412,113 412,113 413,113 414,113 415,114 416,114 416,114 417,114 418,114 418,114 418,114 419,114 419,113 419,113 419,113 420,113 420,114 420,114 420,114 420,114 420,115 420,116 420,116 420,117 420,118 420,118 420,119 420,119 419,119 418,120 418,121 418,121 418,121 418,121 419,121 421,122 422,122 422,122 422,122 423,122 424,123 425,123 425,123 425,123 425,123 425,123 425,124 425,126 425,126 425,126 425,126 425,128 425,128 425,128 425,129 425,129 426,130 426,130 426,130 426,131 427,131 427,131 428,131 429,131 429,131 431,132 431,132 431,132 433,132 434,132 435,132 436,132 438,132 439,132 439,132 440,132 441,132 442,133 442,133 444,133 445,133 445,133 447,136 447,138 448,138 448,138 448,138 449,139 451,139 451,139 452,139 453,139 453,139 453,140 454,140 455,140 455,140 455,140 455,140 456,140 457,140 457,140 457,140 460,141 460,141 461,141 461,141 461,141 461,141 461,141 461,141 464,141 464,141 464,140 464,140 464,140 465,140 466,138 466,138 466,138 468,137 468,137 469,137 469,136 469,136 469,136 469,136 469,135 469,134 469,134 468,133 468,133 469,132 469,131 470,130 471,129 471,128 471,128 471,128 471,128 471,128 471,128 471,128 473,128 473,128 475,128 475,128 482,128 483,128 483,128 484,129 484,129 486,127 488,128 488,128 488,128 488,128 488,128 488,128 490,128 490,128 490,129 490,129 491,129 492,129 492,129 492,129 493,129 494,129 494,129 494,129 495,129 495,129 496,129 497,129 497,129 498,129 498,130 499,130 499,130 499,130 499,130 500,130 500,130 500,131 500,131 500,133 500,133 500,133 500,133 500,133 500,133 499,133 496,133 496,133 496,134 496,135 496,135 496,135 496,135 496,135 496,135 497,135 497,136 497,136 497,136 497,136 497,136 498,137 498,138 498,138 498,138 498,138 498,139 498,139 496,139 496,139 496,139 497,140 497,140 498,140 498,140 498,140 498,140 498,140 498,140 498,140 497,141 497,142 497,142 497,143 497,145 496,145 496,145 496,147 496,148 496,148 496,148 496,148 496,148 495,149 495,149 495,149 495,149 495,149 495,150 495,150 495,150 495,151 495,152 495,152 494,152 494,152 493,152 493,152 493,152 492,152 492,152 492,152 491,153 490,153 490,153 490,153 490,154 489,154 489,154 489,154 488,154 488,154 488,154 488,154 488,154 487,154 487,154 487,155 487,155 487,155 486,156 486,156 484,156 484,155 484,156 484,156 483,157 483,157 483,157 483,157 483,158 483,158 483,158 483,158 483,159 483,159 483,159 483,159 483,160 482,162 481,162 481,162 481,162 481,162 480,162 479,162 478,162 478,162 477,162 477,162 477,162 476,162 476,162 475,161 475,161 475,161 475,161 475,162 475,162 475,162 474,162 474,162 474,162 474,162 474,162 474,163 474,163 474,164 474,165 474,165 474,165 474,165 474,165 474,165 475,165 475,165 476,165 477,165 478,166 478,166 478,166 479,166 479,166 479,166 480,166 480,167 481,167 481,167 481,167 481,167 482,167 483,168 483,168 483,168 483,168 482,168 482,169 482,169 482,170 482,170 482,170 482,171 482,171 482,171 482,171 482,171 482,171 482,171 481,172 481,173 480,173 480,173 480,174 480,174 480,174 480,174 479,174 479,175 478,175 477,176 477,176 477,176 477,176 476,177 476,177 475,177 475,178 475,178 474,178 474,178 473,179 473,179 473,179 473,179 472,179 472,179 472,179 472,179 472,179 471,179 471,179 471,180 471,180 471,180 471,180 470,180 470,180 470,180 470,180 470,180 470,181 470,181 469,181 469,181 469,181 468,182 468,182 468,182 467,182 466,182 466,182 466,182 466,182 465,183 464,183 464,183 464,183 464,183 465,185 465,187 466,188 466,189 466,190 467,190 467,190 468,194 468,194 468,195 468,195 468,195 468,195 469,195 469,195 469,196 469,196 469,196 469,196 469,196 469,197 470,198 470,198 470,199 471,199 471,199 471,199 471,199 472,199 472,199 473,199 473,200 473,200 474,200 474,200 474,200 474,201 474,201 471,201 470,201 470,201 468,201 468,204 469,205 468,205 467,204 467,204 466,206 466,206 464,205 463,205 463,206 463,206 463,206 463,206 463,207 463,207 462,208 462,208 462,209 462,209 462,209 462,209 462,209 461,209 461,209 461,209 461,209 460,209 460,209 458,209 458,209 457,209 457,209 456,209 456,209 456,210 456,210 456,210 457,210 457,210 457,210 457,210 457,210 457,211 456,211 456,211 456,211 456,211 455,212 454,212 454,212 453,213 452,214 452,214 452,214 451,214 451,214 450,214 450,214 449,215 449,215 448,216 447,215 446,215 446,215 445,216 445,216 445,216 445,216 444,216 444,216 444,216 443,216 443,216 443,216 441,215 441,215 441,213 441,213 441,213 441,213 441,213 441,212 440,212 440,212 440,212 440,212 439,212 439,211 438,211 438,210 438,210 437,209 437,209 437,209 436,208 436,208 428,204 427,204 425,203 425,202 425,202 425,202 425,202 423,201 423,201 421,199 420,199 420,198 419,198 419,199 418,199 417,200 417,200 414,198 413,197 411,196 411,196 405,191 405,191 405,191 403,192 402,192 402,192 400,193 399,193 399,193 396,194 396,194 396,194 396,194 396,194 396,195 396,195 395,195 391,196 389,197 389,197 389,197 389,197 387,198 387,198 386,198 386,198 386,198 385,199 385,199 384,199 382,200 380,199 380,198 380,198 379,198 379,198 378,198 378,199 377,199 377,199 376,199 376,199 376,199 375,199 374,199 373,199 373,199 373,199 372,199 372,199 372,199 371,198 371,198 371,198 371,198 371,197 370,197 370,197 369,195 368,195 367,194 367,194 367,193 367,193 366,193 366,192 366,192 365,191 365,191 365,191 365,191 364,190 363,189 362,189 361,190 361,190 361,190 361,190 359,191 359,191 358,191 357,192 357,192 357,192 357,193 357,193 357,193 357,194 357,194 357,194 357,194 358,194 358,195 358,195 359,195 360,196 361,196 361,197 361,197 361,198 361,198 361,198 361,198 362,199 362,199 362,200 362,200 362,201 362,202 363,203 363,203 364,203 365,203 365,203 365,204 365,204 365,204 365,204 365,204 365,205 365,205 365,205 365,205 365,205 364,205 364,205 363,206 363,206 363,206 363,206 363,206 363,207 362,207 362,207 362,207 361,208 361,208 361,208 360,207 360,207 359,207 359,207 358,207 358,207 357,207 357,206 356,206 356,205 354,205 354,205 353,204 353,204 352,204 352,204 351,204 351,204 351,204 351,204 350,203 349,203 347,203 346,203 345,203 344,203 344,202 343,202 342,202 342,202 342,202 341,202 341,202 340,202 339,202 338,202 337,202 337,202 337,202 335,202 334,202 334,203 333,203 329,205 328,205 327,205 326,206 326,206 325,207 324,208 324,208 324,208 323,208 323,209 323,209 320,210 320,210 319,210 319,210 317,211 316,212 316,212 316,212 315,213 315,213 315,213 315,213 314,214 314,214 314,214 315,215 315,215 316,215 316,216 316,216 315,216 315,216 315,216 315,216 315,216 314,216 314,216 314,217 314,217 314,217 313,217 313,217 313,217 313,217 313,217 313,217 313,217 313,217 313,217 313,217 313,217 312,218 310,219 310,219 310,219 311,220 311,220 311,220 313,221 313,221 315,221 315,222 315,222 316,223 316,223 317,223 317,223 318,224 319,224 320,224 320,224 320,224 320,225 322,225 322,226 322,226 323,226 322,227 321,227 320,227 320,227 320,228 319,228 318,228 317,228 316,229 315,229 315,229 315,229 313,229 313,229 313,229 311,229 311,230 311,230 309,230 309,230 309,230 308,230 307,230 306,230 306,230 306,230 304,230 300,231 300,231 299,231 299,231 298,231 297,230 296,230 296,230 295,229 295,229 295,231 295,231 295,231 295,231 295,232 295,232 294,232 294,233 292,234 289,233 289,233 289,234 288,235 288,235 288,235 288,235 288,235 288,235 288,236 288,236 287,237 286,239 286,239 286,239 286,239 285,239 285,241 285,241 285,242 284,242 284,243 284,243 284,243 282,244 282,245 281,245 281,245 281,245 281,245 280,245 280,245 280,245 279,246 279,246 279,246 279,246 278,246 277,247 277,246 276,247 276,247 276,247 275,247 275,248 275,248 274,249 273,248 272,247 270,246 267,244 267,244 266,243 265,243 265,243 265,243 264,243 264,243 263,243 263,242 263,242 263,242 262,242 258,241 258,241 258,241 257,241 257,241 256,242 256,242 256,242 256,242 255,243 255,243 255,243 254,244 254,244 254,244 254,244 254,245 254,245 253,245 253,245 253,245 252,245 252,245 251,246 250,246 250,246 249,246 248,246 247,246 247,246 247,246 246,246 246,246 245,246 244,246 243,245 243,245 242,245 241,245 241,245 241,245 240,245 239,245 239,245 239,245 239,245 239,245 238,244 238,244 237,244 237,245 237,245 237,245 236,245 236,245 236,245 235,245 235,245 234,245 234,246 234,246 233,246 233,246 232,246 232,246 231,246 231,246 231,246 231,246 231,246 231,245 231,245 229,245 228,244 226,244 226,244 225,245 224,244 224,244 223,245 223,245 223,245 222,245 221,245 221,245 220,245 220,245 220,245 219,245 219,245 217,246 217,245 216,245 216,245 215,246 215,246 215,246 215,246 214,246 214,246 213,246 213,246 211,247 211,247 210,248 209,248 209,248 208,248 208,249 208,249 208,250 208,250 209,250 209,250 209,250 209,250 209,250 209,250 209,251 209,251 209,251 209,251 210,252 210,252 210,253 210,253 210,253 210,253 210,254 210,255 210,256 210,257 210,257 210,257 210,257 210,257 210,257 210,257 210,258 210,258 210,258 210,258 210,258 210,259 210,259 211,259 211,259 211,259 211,259 211,259 212,259 212,260 212,260 212,260 212,260 212,260 212,260 212,260 213,260 213,260 213,260 213,260 213,261 213,261 213,261 213,261 214,261 214,261 214,261 214,261 214,261 214,262 215,263 216,263 216,263 216,264 216,265 216,265 216,266 216,266 217,266 217,266 218,267 218,267 218,267 218,267 219,267 219,268 219,268 220,268 220,268 222,268 222,269 222,269 222,269 223,269 224,270 224,270 224,270 224,270 225,271 226,271 226,272 226,272 227,272 227,273 227,273 228,274 228,275 228,275 228,275 228,275 228,275 227,275 225,276 224,276 224,276 223,276 223,276 223,277 223,277 223,278 223,278 223,278 223,279 223,279 223,279 222,280 222,280 222,280 221,280 221,280 221,280 218,282 218,283 218,283 218,283 218,283 218,283 218,283 217,283 216,283 215,284 215,284 214,284 214,284 214,284 214,284 214,284 214,284 212,284 211,284 210,284 209,285 209,285 208,285 208,285 208,285 206,284 206,284 206,284 205,284 202,284 202,285 202,285 201,285 201,285 201,285 201,285 201,286 201,286 201,287 201,287 201,287 201,287 201,288 201,288 201,288 201,290 201,291 201,292 201,292 201,292 201,292 201,292 201,292 201,293 201,293 200,293 200,294 199,295 199,295 198,296 197,297 197,297 197,297 197,297 197,298 197,298 197,298 197,299 197,299 197,299 197,299 197,300 197,300 198,301 198,302 199,302 199,303 199,303 199,303 198,303 198,303 198,304 198,304 197,304 197,304 196,305 196,305 195,305 195,306 195,306 194,306 194,306 193,306 193,306 192,306 191,307 191,307 190,307 189,308 189,308 189,309 188,309 188,309 188,309 188,310 189,310 189,310 189,310 189,310 190,310 190,310 192,310 193,310 193,310 194,310 194,310 194,310 195,310 195,310 197,310 197,310 198,309 198,309 198,309 199,309 199,309 200,309 201,309 202,309 202,309 202,309 202,309 204,309 204,309 205,310 205,310 206,310 207,310 207,310 206,311 206,311 206,312 206,312 206,312 206,312 206,314 206,314 208,314 208,314 208,314 208,314 209,316 209,316 208,316 208,316 207,316 206,315 206,315 206,315 205,315 205,315 205,315 204,314 204,314 204,314 203,314 203,314 202,314 202,314 202,315 202,315 202,315 202,316 202,316 202,317 203,317 203,318 203,318 203,318 204,319 203,319 203,319 203,319 202,319 201,319 199,320 199,320 198,320 196,320 196,320 196,320 196,320 195,320 194,321 194,321 193,321 192,321 190,322 189,322 189,322 188,322 187,323 187,323 186,323 186,323 186,324 185,325 185,325 184,326 184,326 183,327 183,327 183,327 183,327 184,328 184,328 185,329 185,329 185,329 183,331 182,330 182,330 182,330 182,330 182,329 182,329 182,329 182,329 182,329 181,328 181,328 180,328 179,329 178,329 178,329 177,329 177,329 176,329 175,330 175,330 175,330 174,330 174,330 173,330 173,330 171,330 171,330 171,331 171,331 171,331 171,332 171,332 171,332 170,332 170,332 169,331 169,331 169,331 169,331 168,330 168,330 168,330 168,330 167,330 167,331 167,331 166,331 166,331 166,331 165,331 164,331 163,332 161,332 161,332 159,333 158,334 158,334 158,334 157,335 156,335 155,335 153,336 153,336 152,337 151,337 150,337 150,337 149,338 148,338 147,339 146,339 145,339 145,339 145,339 145,339 144,340 144,340 143,340 143,340 137,342 136,342 133,342 133,342 130,341 128,339 126,338 125,337 125,337 124,337 125,337 123,335 123,335 124,335 124,335 124,335 123,334 123,334 122,333 122,333 122,333 122,333 122,333 122,333 122,333 121,333 121,333 121,333 119,333 118,333 118,333 117,333 116,333 115,333 114,333 114,333 113,333 112,332 111,332 111,332 110,331 110,331 110,331 110,331 109,332 108,332 107,332 106,332 105,333 105,333 103,332 102,332 101,332 100,332 100,332 98,331 98,331 99,330 100,329 102,327 102,327 103,326 103,326 103,326 103,326 103,326 103,326 103,326 102,325 101,325 101,325 101,325 101,325 101,324 101,324 102,323 102,323 102,323 103,323 103,322 104,322 104,322 104,322 103,322 102,322 99,322 99,321 98,320 98,320 98,319 98,319 98,318 98,318 99,317 98,316 98,315 98,315 98,315 97,314 97,314 96,314 96,313 96,313 96,312 96,312 96,312 96,311 96,311 96,310 96,309 96,309 95,308 95,308 95,308 95,308 95,308 95,308 94,308 94,308 94,307 94,307 94,307 93,307 93,306 92,306 92,306 92,306 90,306 90,306 90,305 89,305 89,304 90,303 89,303 89,303 89,303 83,304 80,304 80,304 77,303 76,303 74,302 74,302 74,302 74,302 74,302 74,301 75,300 75,299 76,299 74,298 74,298 73,298 73,298 72,297 72,297 71,297 71,297 70,297 70,297 69,297 69,296 68,296 67,296 67,296 67,296 68,296 68,295 68,294 68,294 68,294 68,294 68,294 68,293 68,293 68,293 68,292 68,292 68,291 68,291 69,290 69,290 69,289 69,288 70,288 70,287 70,287 70,287 70,287 70,286 70,285 70,285 70,285 70,284 70,284 70,284 70,283 70,283 70,283 70,283 69,282 67,282 65,281 65,281 62,282 62,282 60,282 60,282 60,282 60,282 60,282 61,281 61,281 62,280 62,280 62,280 63,279 63,278 64,277 64,277 65,276 65,276 65,276 66,274 67,273 71,268 72,268 73,267 73,267 72,267 72,267 71,267 71,267 71,267 70,267 69,267 69,266 69,266 69,266 69,266 69,266 69,266 68,266 68,266 67,266 66,266 65,267 63,268 63,269 62,269 62,269 62,269 61,270 60,270 60,271 58,272 58,272 58,272 58,272 57,272 57,272 56,272 56,272 56,272 56,272 56,272 56,272 56,272 53,272 53,273 52,273 51,274 50,274 49,275 48,275 48,275 47,276 47,276 46,276 46,276 44,277 44,277 43,278 42,278 42,278 42,279 42,279 41,279 40,279 40,279 40,279 40,278 40,278 40,277 40,277 39,276 39,276 39,275 39,275 39,274 39,274 39,274 39,273 39,272 38,271 38,271 38,270 38,269 38,268 38,267 38,267 38,266 38,266 37,264 37,264 37,264 37,263 37,263 37,263 37,262 36,262 37,261 36,261 36,261 37,260 37,260 37,260 38,259 38,259 38,259 38,259 39,256 39,256 40,255 40,254 40,253 39,253 39,253 39,253 40,252 40,252 40,251 40,250 40,250 40,249 41,247 41,247 41,246 41,246 42,246 42,245 46,245 46,245 46,245 46,244 53,245 53,245 53,245 53,245 54,245 55,245 55,245 55,245 56,246 56,246 56,246 56,246 56,246 57,247 58,247 59,247 59,247 60,248 60,248 61,247 61,246 62,246 62,245 62,245 62,244 63,244 63,243 65,244 66,244 67,244 68,245 69,245 69,245 70,245 70,245 70,244 70,244 70,243 70,241 70,240 72,240 72,240 73,240 74,241 74,241 76,241 76,241 77,240 78,239 78,238 79,236 79,236 78,236 78,236 77,236 76,235 76,235 75,235 76,234 76,234 76,234 76,234 76,233 76,233 76,233 77,232 77,232 77,232 78,232 78,233 79,233 79,233 80,233 80,233 80,232 80,232 80,231 80,231 81,231 81,231 81,231 81,231 82,230 83,229 83,229 83,229 83,228 83,228 83,228 83,228 83,228 83,228 83,228 84,228 84,228 84,226 84,226 84,226 84,226 84,226 84,225 84,225 84,224 84,224 85,224 85,224 85,223 85,221 85,221 85,221 85,220 85,219 85,219 85,219 84,218 84,218 84,217 84,217 84,217 84,217 83,216 82,215 82,214 82,214 82,214 81,213 81,213 81,212 80,212 79,210 79,209 79,209 79,208 79,208 78,207 78,207 78,206 78,205 77,204 77,204 78,204 78,203 78,202 78,202 78,201 77,201 77,201 77,201 77,200 77,200 77,200 77,200 77,199 77,199 77,199 76,198 76,198 76,197 75,197 74,196 74,195 76,194 76,194 76,193 76,193 77,193 78,192 78,191 79,190 81,189 81,189 82,188 83,186 83,186 84,185 86,184 83,183 81,182 81,182 79,182 79,182 77,182 77,182 76,182 76,181 76,180 78,178 79,176 79,176 79,176 79,176 79,176 79,175 79,174 79,174 79,172 78,172 78,172 78,172 79,171 80,170 82,169 82,170 83,170 84,170 84,169 84,169 85,169 85,167 87,167 87,167 87,167 88,167 88,167 88,167 89,167 89,166 89,166 89,165 89,165 92,166 92,166 94,167 96,167 96,166 96,166 97,165 97,165 97,165 97,165 98,164 98,163 98,163 98,163 98,162 98,162 98,161 98,161 98,160 99,160 101,159 102,158 104,154 104,154 105,153 106,152 104,152 103,152 103,152 102,152 101,151 101,151 101,151 100,150 100,150 100,150 100,150 100,150 100,150 98,148 99,148 100,148 100,148 98,147 98,147 97,146 97,146 96,145 96,145 95,145 95,144 95,144 95,144 94,144 93,143 93,143 93,143 93,143 93,142 93,142 93,142 92,142 90,142 90,141 90,141 90,141 90,141 90,140 90,140 90,139 90,138 90,137 90,137 90,137 90,136 90,136 90,135 90,135 90,135 90,134 90,134 90,134 90,132 90,132 90,132 90,132 91,132 89,129 89,129 89,129 89,128 89,128 88,126 88,126 88,126 88,126 88,126 87,127 87,127 85,127 84,127 83,127 83,127 82,127 82,127 81,128 81,128 81,128 80,128 80,128 78,128 78,128 71,129 70,129 69,129 67,129 66,129 65,129 65,129 65,129 62,129 62,129 61,130 60,129 59,130 59,130 58,130 58,130 57,130 57,130 57,130 57,130 55,130 55,130 55,130 54,132 54,132 53,133 53,134 53,134 52,135 52,136 51,136 51,137 51,137 50,138 50,138 50,138 50,138 50,138 50,138 50,138 50,139 49,140 48,140 47,142 45,145 44,147 44,148 44,148 43,147 41,147 40,147 37,146 37,145 36,145 36,145 36,145 36,145 34,144 33,144 31,143 30,142 30,142 29,142 28,141 27,140 26,140 24,139 24,139 23,139 23,139 23,139 22,139 22,139 22,139 20,138 20,138 20,138 19,137 19,137 19,137 19,137 18,137 18,137 18,137 18,137 19,136 19,136 19,136 19,136 19,136 19,136 19,136 19,136 19,136 21,135 22,134 22,134 23,133 23,133 23,133 24,133 24,133 24,132 24,132 25,132 26,131 26,131 26,131 27,131 28,130 29,130 29,130 29,130 29,130 30,129 31,129 31,129 31,129 33,128 35,127 36,127 38,126 38,126 40,126 41,126 41,126 42,125 43,125 44,125 44,125 44,124 44,124 44,123 43,124 42,124 42,124 41,123 40,123 40,123 40,123 40,123 37,123 37,123 37,123 36,123 35,123 33,123 33,123 31,124 30,124 30,124 27,123 26,123 26,123 25,123 25,123 24,122 23,122 23,122 23,122 22,123 22,123 20,124 20,124 20,124 20,123 19,123 18,123 18,123 18,123 18,123 18,123 16,122 14,121 14,121 14,121 14,120 15,117 15,117 14,117 11,117 11,117 11,115 12,114 12,114 12,113 12,113 11,113 11,112 11,112 10,112 10,111 10,111 10,111 10,111 10,111 10,111 10,111 10,111 10,111 11,111 11,111 11,111 12,111 12,110 12,110 12,110 12,110 12,110 12,110 12,110 12,110 12,110 12,110 12,110 12,109 12,109 12,110 12,110 13,109 13,109 13,109 13,109 13,108 13,108 13,108 13,108 13,108 13,108 13,108 13,108 13,108 13,108 14,108 14,108 14,108 14,108 14,108 14,108 15,108 15,108 15,108 15,108 15,108 15,108 16,108 16,108 16,108 16,108 16,108 16,108 16,108 16,108 16,108 16,108 16,108 16,108 17,108 17,108 17,108 17,108 17,108 18,108 18,108 18,108 18,108 18,108 19,108 19,108 19,108 19,108 19,108 20,108 20,108 20,108 20,108 20,108 20,108 20,107 20,107 20,107 20,107 19,107 19,107 19,107 19,107 19,107 18,106 18,106 18,106 17,106 17,105 17,105 17,105 17,105 17,105 17,105 17,105 17,105 17,104 17,104 17,104 17,104 18,104 18,104 18,104 18,103 18,103 18,103 18,103 18,103 18,103 18,103 19,103 19,103 19,103 19,103 19,103 19,103 19,103 19,103 19,102 19,102 19,102 19,102 19,102 19,102 19,102 19,102 19,102 20,102 20,102 20,102 21,102 21,102 21,102 22,102 22,101 22,101 22,101 21,101 21,100 21,100 20,98 19,98 19,97 18,97 18,96 19,96 18,96 18,96 18,96 18,96 17,95 16,95 15,95 15,94 14,94 13,93 13,93 13,93 13,93 13,93 12,92 12,92 12,91 12,91 12,91 12,91 12,90 12,90 12,90 12,90 12,90 11,90 11,90 10,90 10,90 10,89 10,89 9,88 9,88 9,88 9,87 8,86 8,86 8,86 8,85 8,85 8,85 8,85 7,84 7,83 6,82 6,82 6,82 6,82 5,81 5,81 4,80 4,80 3,80 3,80 3,80 3,80 2,80 2,80 2,80 1,79 0,79" id="7908" class="canton" fill="steelblue" stroke-width="1" stroke="white" geotype="canton" geoname="Melle" code_insee="7908" code_departement="79" nom_departement="Deux-Sèvres" code_region="75" nom_region="Nouvelle-Aquitaine"/></svg>