<?xml version="1.0" encoding="utf-8"?>
<svg version="1.1" id="svgmap" xmlns="http://www.w3.org/2000/svg" xmlns:xlink="http://www.w3.org/1999/xlink" x="0px" y="0px" width="100%" height="100%" viewBox="0 0 500 366">
<polygon points="267,25 267,26 267,26 267,26 267,26 267,26 267,26 266,27 267,27 267,27 267,28 267,28 267,28 267,28 267,28 266,28 267,28 267,29 266,29 266,29 266,29 266,29 266,29 266,29 266,30 266,30 266,30 266,31 266,31 266,31 266,31 266,31 266,31 266,31 266,31 265,31 265,32 265,32 265,32 265,32 265,32 265,32 265,33 265,33 264,33 264,33 264,33 264,34 264,34 264,34 264,34 264,34 264,34 264,34 264,34 264,35 264,35 265,35 265,35 265,35 265,35 265,36 265,36 265,36 265,36 265,36 265,37 266,37 266,37 266,37 266,37 266,38 266,38 266,38 266,38 266,38 266,38 265,38 265,38 265,38 266,38 266,39 266,39 265,39 265,39 266,39 266,39 266,39 265,40 265,40 265,40 264,40 264,40 264,40 264,40 264,40 264,41 264,41 264,41 263,41 263,41 263,41 262,42 262,42 262,42 262,43 262,43 261,43 261,43 261,43 261,44 261,44 260,44 260,44 260,45 260,45 260,45 260,45 260,45 260,45 260,45 259,46 259,46 259,46 258,46 258,47 258,47 257,47 257,47 257,47 255,48 255,48 254,48 254,48 254,48 253,48 253,49 253,49 252,49 252,50 252,50 251,51 250,52 249,52 248,53 247,56 248,56 249,59 249,59 249,60 249,60 249,60 248,61 248,61 248,61 248,61 248,61 247,61 246,62 245,62 244,62 244,62 244,63 244,63 243,63 242,63 242,63 241,63 241,63 240,64 240,64 239,64 239,64 239,65 238,65 238,65 238,65 237,66 237,66 236,66 236,67 236,67 236,67 235,68 235,68 234,69 233,70 233,70 233,70 232,71 232,71 232,71 233,72 233,72 233,72 234,73 234,73 234,74 235,75 236,75 236,75 236,77 236,78 236,78 236,78 236,78 236,78 235,78 235,79 234,79 234,79 233,79 233,79 232,79 232,79 232,79 232,79 231,79 231,80 231,80 231,80 231,80 230,80 230,80 230,80 230,81 230,81 230,81 230,81 229,81 229,81 229,81 229,81 229,81 229,81 228,81 228,81 228,81 228,81 228,81 228,81 228,82 228,82 227,82 227,82 227,82 227,82 227,82 227,82 227,82 227,82 227,82 227,82 227,83 227,83 226,83 226,83 226,83 226,83 226,83 226,83 226,83 226,83 226,83 226,83 225,83 225,83 225,83 225,83 225,84 225,84 224,84 224,84 224,84 224,84 224,84 224,84 223,84 223,84 223,84 223,84 223,84 222,84 222,85 222,85 222,85 222,85 222,85 222,85 221,85 221,85 221,86 221,86 221,86 221,86 221,86 221,86 221,86 221,86 221,86 220,86 220,87 220,87 220,87 220,87 220,87 220,87 220,87 220,87 220,87 220,87 220,87 220,88 220,88 220,88 219,88 219,88 219,88 219,88 218,88 218,89 218,89 218,89 218,89 218,89 218,89 217,89 217,89 216,89 216,88 215,88 215,88 215,87 215,87 215,87 215,87 215,87 215,86 215,86 215,86 215,86 215,86 216,85 216,85 216,85 216,85 216,85 216,84 216,84 216,84 216,84 216,84 216,83 216,83 216,83 216,83 216,83 216,83 216,83 214,82 214,82 212,83 212,83 212,84 212,84 213,84 212,85 211,85 211,86 211,86 211,86 211,87 211,87 212,88 213,88 214,89 214,90 214,90 214,90 214,90 214,90 213,90 213,90 213,90 213,90 212,90 212,90 212,90 212,90 212,90 212,90 211,91 211,91 211,91 211,91 211,91 211,91 211,91 210,91 210,91 210,91 210,91 210,92 210,92 210,92 210,92 210,92 210,92 210,92 209,92 209,92 209,92 209,93 209,93 209,93 209,93 209,93 208,93 208,93 208,93 208,93 208,93 208,93 207,93 207,93 207,94 208,94 208,94 208,94 208,94 208,94 208,94 208,94 208,95 207,95 207,95 207,95 207,95 207,95 207,95 207,95 207,95 207,95 207,95 207,95 206,95 206,96 206,96 206,96 206,96 206,96 206,96 205,96 205,96 205,96 205,96 205,96 205,96 205,96 204,96 204,96 204,96 205,96 205,96 204,97 205,97 205,97 205,97 205,97 205,97 205,97 205,97 205,97 205,98 205,98 205,98 205,98 205,98 205,98 205,98 205,98 205,98 205,98 205,98 205,98 206,98 206,98 206,98 206,98 206,98 206,98 206,98 206,98 206,98 206,98 206,98 206,98 206,98 206,98 206,98 207,98 207,99 207,99 207,99 207,99 207,98 207,98 207,98 208,98 208,98 208,98 208,98 208,98 208,98 208,98 208,98 208,98 209,98 209,98 209,98 209,98 209,98 209,98 210,99 211,99 211,99 211,99 211,99 211,99 212,99 212,99 212,99 212,99 212,99 212,99 213,99 213,99 213,99 213,100 214,100 214,100 214,100 214,100 214,100 214,101 214,102 214,102 214,102 214,102 214,103 213,103 213,103 213,103 213,103 214,103 214,104 214,105 215,105 215,105 215,106 216,107 216,107 216,107 216,108 216,108 216,108 216,108 216,108 216,108 216,109 216,109 217,109 217,109 217,109 217,110 217,110 219,109 220,109 220,109 220,109 220,109 220,109 220,109 220,109 220,110 220,110 220,110 220,110 221,111 222,112 222,112 223,112 223,112 223,112 223,112 223,112 223,112 224,113 224,113 224,113 224,113 224,113 224,114 224,114 224,114 223,115 223,115 224,115 224,116 224,116 224,116 225,117 225,117 225,117 225,117 224,118 224,118 224,118 224,118 224,118 224,118 224,119 223,119 223,119 223,119 223,119 224,120 223,120 223,120 223,120 223,120 222,120 222,120 222,120 222,121 222,121 222,122 222,122 223,122 223,122 223,122 223,122 224,122 224,122 224,122 225,122 225,122 225,123 226,123 226,123 227,123 228,123 228,122 228,123 228,122 229,122 229,122 230,121 230,121 230,121 232,121 232,122 232,122 233,122 233,122 233,122 234,122 234,122 234,123 234,123 234,123 234,123 234,123 234,123 235,123 235,123 235,123 235,124 235,124 235,124 235,124 235,124 235,124 235,124 235,124 235,124 235,124 235,124 235,124 235,124 235,124 235,124 236,124 236,124 236,124 237,124 237,124 238,125 238,125 238,125 239,125 239,126 240,126 240,126 240,126 241,126 241,127 240,128 240,128 242,128 240,130 240,130 240,130 240,130 239,131 239,131 239,131 239,131 239,132 239,132 239,132 240,132 240,132 240,132 240,132 241,133 241,133 241,133 241,133 242,134 242,133 242,133 243,134 245,135 245,135 244,135 244,135 244,135 244,136 244,136 244,136 244,136 244,136 245,136 245,137 245,137 245,137 246,137 247,138 247,138 247,139 248,139 248,139 248,139 249,139 249,140 249,140 250,140 250,140 250,140 251,140 250,142 250,142 250,142 251,143 251,143 251,143 252,144 253,144 253,144 253,144 254,144 253,144 253,145 253,145 253,145 253,145 253,146 253,146 253,146 254,146 254,146 255,146 256,147 256,147 256,147 257,147 258,147 259,148 260,148 260,148 260,148 261,148 261,149 261,149 261,149 261,149 261,149 261,149 261,149 261,149 261,150 261,150 261,150 262,150 262,150 262,150 263,150 263,150 263,150 263,150 264,150 264,151 265,152 265,152 265,152 265,152 265,153 265,154 265,154 265,154 265,154 266,154 267,155 267,155 267,155 267,155 269,155 269,155 271,155 273,155 274,155 274,155 274,155 274,155 274,155 274,155 275,155 275,155 275,155 275,155 275,155 276,155 276,155 276,156 276,155 276,156 277,156 277,156 277,156 277,156 277,156 278,156 278,156 278,156 278,156 280,156 281,156 281,156 281,156 281,156 282,156 282,156 284,156 284,156 285,157 285,157 285,157 285,157 285,157 285,157 285,158 285,158 285,158 285,158 285,158 285,159 286,159 286,159 287,159 287,159 287,159 287,159 288,159 288,159 289,159 289,159 290,159 290,159 290,159 290,159 290,158 290,158 290,158 290,157 290,157 290,157 290,157 290,157 290,157 291,157 291,157 291,158 291,158 291,158 292,158 292,158 292,158 292,158 292,158 293,158 293,158 294,158 295,158 295,158 295,158 295,158 295,158 295,158 295,158 295,158 295,158 296,159 297,159 297,159 298,159 298,159 299,159 299,159 299,160 298,160 299,160 299,160 299,160 300,160 300,160 300,160 300,160 301,160 301,160 301,160 301,160 300,160 300,160 300,161 300,161 300,161 300,161 301,161 301,161 301,161 302,161 302,162 302,162 302,162 303,162 303,162 303,162 303,162 304,163 305,163 305,163 307,164 307,164 307,164 306,165 306,165 306,165 307,166 307,166 307,166 307,166 307,166 307,167 308,167 308,167 308,167 308,167 308,167 308,167 308,168 308,168 308,168 309,168 310,167 312,167 312,166 313,166 314,166 315,166 315,166 315,166 315,165 315,165 315,165 315,165 316,165 316,164 316,164 316,164 317,164 317,163 317,163 317,162 317,162 318,162 318,162 318,162 318,162 318,162 319,161 319,161 319,160 319,159 320,158 320,158 320,157 320,157 320,157 320,158 321,158 321,158 321,158 322,158 322,158 323,159 323,159 323,159 324,159 325,159 325,159 325,159 325,159 325,159 326,159 326,159 326,159 326,159 326,159 326,160 326,160 326,160 327,160 327,160 327,160 328,161 328,161 328,161 328,161 329,161 329,161 330,161 330,160 330,160 331,160 332,159 332,159 332,159 332,159 332,159 333,158 333,158 334,157 334,157 334,157 334,157 334,157 334,157 334,157 335,158 335,158 336,158 336,158 336,158 336,158 336,158 336,158 336,158 336,158 336,158 336,159 336,159 336,159 336,159 336,159 336,159 336,159 336,160 336,160 336,160 336,160 336,160 336,160 337,159 337,159 337,159 337,159 338,159 338,159 339,160 341,161 341,161 342,160 343,159 344,158 344,158 344,158 344,158 345,157 345,157 345,156 345,156 346,156 347,157 347,157 348,157 348,157 348,157 349,157 349,157 349,157 349,158 349,158 349,158 350,159 350,159 350,159 351,159 352,159 353,159 353,159 354,159 354,159 355,159 356,159 356,159 358,159 358,159 358,159 359,160 360,160 361,160 361,160 362,160 362,160 363,160 364,161 365,161 367,161 368,161 368,161 368,161 369,161 369,161 369,161 370,161 370,161 370,161 370,161 370,161 371,161 371,161 372,160 372,160 372,160 372,160 373,160 373,160 373,160 373,160 373,160 373,160 374,160 374,160 374,160 374,160 374,160 375,160 375,159 375,159 375,159 375,159 375,159 375,159 375,159 375,159 376,159 376,159 376,159 376,159 376,159 376,159 376,159 376,158 377,158 377,159 377,159 377,160 377,160 377,160 377,160 377,160 377,161 378,161 378,162 378,162 378,162 379,163 379,163 378,163 378,163 376,163 376,163 375,163 375,163 374,163 373,164 372,164 372,164 372,164 371,165 371,165 371,165 371,165 373,166 373,166 373,166 373,167 373,167 372,167 372,167 372,167 372,167 371,167 371,167 371,167 370,167 370,167 371,168 371,168 371,168 371,168 371,168 372,169 372,169 372,169 371,170 371,170 372,170 372,170 372,170 372,170 372,171 372,171 372,171 372,171 372,171 372,171 372,171 371,171 371,171 371,171 371,171 370,170 370,170 370,170 370,171 370,171 370,171 370,171 370,171 369,171 369,171 369,171 369,171 368,171 368,172 368,172 367,172 365,172 364,171 363,171 363,171 363,172 363,172 363,172 362,172 361,172 361,172 361,172 360,173 360,173 360,173 359,174 359,174 359,174 359,174 358,175 358,175 359,175 360,175 360,175 360,175 361,175 361,175 362,176 362,176 362,176 362,176 362,176 364,177 364,177 364,177 363,178 362,178 362,178 362,179 362,179 362,179 362,179 362,179 362,179 362,180 362,179 362,179 362,179 362,179 362,179 362,178 362,178 361,178 361,178 359,179 358,179 358,179 358,179 358,179 358,179 358,179 358,179 358,179 358,180 358,180 358,180 358,180 358,180 358,180 357,180 357,180 357,181 357,181 357,181 358,181 358,182 358,181 358,181 358,182 358,182 358,182 358,182 358,183 358,183 358,183 358,183 359,183 359,183 359,183 359,184 359,185 359,185 359,185 359,186 359,186 359,186 359,186 359,187 360,187 360,187 360,187 361,187 363,186 363,186 363,186 364,186 364,186 365,186 366,186 366,186 366,186 366,186 367,186 367,186 367,186 367,185 368,185 368,185 368,185 369,185 368,186 368,186 369,186 369,186 369,186 369,186 370,186 370,186 370,186 370,186 371,186 371,186 371,186 371,186 372,186 372,186 372,186 372,186 373,186 373,186 373,186 373,186 374,186 374,186 374,186 375,186 375,186 375,188 375,188 375,188 376,188 375,188 375,188 375,188 376,188 376,189 376,190 376,191 376,191 376,191 377,191 377,192 377,192 378,191 379,192 380,192 381,192 381,192 382,193 382,193 383,193 383,193 383,193 384,193 384,193 384,193 385,193 385,194 384,194 384,194 384,194 384,194 384,194 384,194 384,194 384,194 384,194 385,194 385,194 385,194 385,194 385,194 386,194 386,194 386,194 386,194 386,194 386,194 386,194 386,194 386,194 387,194 387,194 387,193 387,193 387,193 387,193 387,193 387,193 387,193 388,193 388,193 388,193 388,193 388,193 388,193 388,193 388,193 388,192 388,192 388,192 389,192 389,192 389,192 389,191 390,191 390,191 390,191 390,191 390,191 390,191 390,190 390,190 390,190 390,190 391,190 392,190 392,190 392,190 392,190 393,189 393,189 393,190 393,190 393,189 393,189 393,189 393,189 394,189 394,188 394,188 394,188 394,188 394,188 394,188 395,188 395,188 395,188 396,188 396,188 396,188 396,188 396,188 397,188 397,188 398,188 398,188 400,189 401,190 402,190 402,190 403,191 403,191 403,191 403,191 404,191 404,191 405,192 405,192 406,193 407,193 407,193 407,193 407,192 407,192 407,192 407,192 407,192 407,192 408,193 409,194 410,194 410,194 410,194 411,194 411,195 412,195 412,196 412,196 412,198 412,198 412,198 413,197 413,197 413,197 413,197 414,197 414,196 415,197 415,197 415,196 415,196 415,196 416,195 416,195 416,195 416,195 417,195 418,195 418,195 418,194 419,194 419,194 419,194 420,193 421,193 421,193 421,193 421,194 421,195 421,195 421,195 422,196 423,196 423,196 423,196 423,196 423,196 423,196 423,197 423,197 423,197 423,197 423,197 423,197 423,197 423,197 423,197 423,197 423,197 423,198 423,198 422,198 422,198 422,198 421,199 421,199 419,200 419,200 419,201 419,201 419,201 419,201 419,201 418,201 418,201 418,202 419,202 419,202 419,202 419,202 419,202 420,203 420,203 420,203 420,203 420,203 420,203 420,203 420,203 420,203 420,203 420,204 420,204 419,204 419,204 419,204 419,204 419,204 419,205 419,205 419,205 420,205 420,205 422,205 422,205 422,205 423,205 424,205 425,204 426,204 426,205 426,205 425,205 425,205 426,206 426,206 427,206 427,206 426,207 426,207 427,208 427,208 427,208 427,208 428,207 428,207 429,206 431,205 432,205 433,204 433,204 434,203 434,203 434,203 435,202 436,201 436,201 437,200 437,200 438,200 438,199 438,199 438,199 438,199 438,199 439,199 439,199 439,199 438,199 439,199 439,198 439,198 440,198 441,197 441,197 441,197 441,197 442,197 442,197 442,197 442,197 443,197 444,196 446,197 446,197 446,197 446,197 447,197 447,197 447,197 447,197 447,197 448,197 449,197 449,197 450,197 450,197 449,198 449,198 451,198 452,199 452,198 453,199 453,199 454,199 455,199 456,199 456,199 456,200 457,200 457,200 457,200 457,200 458,200 458,200 458,200 458,200 458,200 458,199 458,199 458,199 458,198 458,198 458,198 458,198 458,197 458,197 459,197 459,197 458,197 458,197 458,196 458,196 458,196 458,196 458,196 458,195 458,195 458,195 458,194 458,194 457,194 457,193 456,193 456,193 455,192 455,192 455,192 455,191 455,191 455,191 455,191 454,190 454,190 454,190 455,190 455,191 456,191 456,191 457,191 457,191 457,191 457,191 458,191 458,191 458,191 458,191 458,191 459,191 459,191 459,191 459,191 460,191 460,191 460,191 461,191 461,191 461,191 461,191 462,191 462,191 462,191 462,191 462,191 463,191 464,191 464,190 465,190 465,190 465,190 465,190 465,190 465,190 466,190 466,190 467,190 467,190 467,189 467,189 467,189 467,189 467,189 468,189 468,189 468,189 468,189 468,189 468,189 468,189 468,189 468,189 468,189 469,189 469,189 469,189 469,190 469,190 469,190 470,190 470,190 470,190 470,190 470,190 470,190 471,190 471,190 471,190 471,190 471,190 471,190 471,190 471,190 471,190 472,190 472,190 472,190 472,191 472,191 472,191 472,191 473,191 473,191 473,191 473,191 473,190 473,190 473,191 473,191 474,191 474,191 474,191 475,192 475,192 475,192 474,193 474,193 475,193 475,193 475,193 475,193 476,194 476,194 476,194 477,194 477,194 477,194 477,194 478,194 478,194 478,195 478,195 478,195 478,195 479,195 479,195 479,195 479,195 479,195 479,195 479,196 479,196 480,196 480,196 480,196 480,196 480,196 481,196 481,196 482,196 482,196 482,196 482,196 482,196 482,196 482,196 482,196 482,196 482,196 482,197 483,197 483,197 483,197 483,197 483,197 483,197 483,197 483,197 483,197 483,198 484,198 484,198 484,198 484,198 485,199 485,199 485,199 485,199 486,199 486,200 486,200 486,200 486,200 486,200 486,201 486,201 486,201 487,201 487,202 487,202 487,202 487,202 487,202 487,202 488,202 488,202 488,202 488,203 488,203 488,203 488,203 489,203 490,203 490,203 490,203 491,204 491,204 491,204 491,204 492,204 492,205 492,205 492,205 492,205 493,204 493,204 493,205 493,205 493,205 493,205 493,205 494,205 494,206 494,206 494,206 495,206 495,206 495,206 495,206 495,207 495,207 496,207 496,208 496,208 496,208 496,209 496,209 497,209 497,209 497,209 497,210 497,210 497,210 497,210 498,210 498,210 498,210 498,211 499,211 499,211 499,211 499,211 499,212 499,212 499,212 499,213 499,213 499,213 499,213 499,214 499,214 499,214 499,214 500,215 500,215 500,215 500,215 500,215 500,216 500,216 500,216 500,216 499,216 499,217 499,217 499,217 498,218 498,218 498,218 498,218 498,218 498,218 498,219 497,219 497,219 497,219 497,219 496,220 496,221 495,221 495,221 495,221 494,222 494,222 493,223 493,223 492,224 491,224 489,225 489,225 490,226 490,227 490,227 490,227 490,228 490,229 490,229 489,229 489,229 489,230 490,230 490,230 490,230 490,231 487,235 485,236 487,236 487,236 488,236 489,237 487,239 487,239 488,239 488,239 488,240 489,240 489,240 490,240 490,240 490,240 490,240 491,240 491,241 491,242 491,242 491,243 492,244 492,246 492,246 492,246 492,247 492,247 493,248 493,249 493,249 493,249 493,250 493,250 493,250 493,250 493,251 494,252 494,252 494,253 495,253 495,255 495,255 493,256 492,257 492,257 490,257 489,258 489,258 487,259 487,259 486,260 485,260 485,260 485,260 485,260 485,260 485,260 483,261 483,261 483,261 483,261 482,262 482,262 482,263 483,264 483,264 484,264 485,265 486,266 486,266 486,266 486,266 486,266 486,266 485,267 484,267 483,268 483,268 482,269 482,269 482,269 482,269 481,269 480,270 480,270 480,270 480,270 480,271 479,271 478,271 477,272 477,272 476,272 475,273 473,273 472,273 471,274 471,274 470,274 469,275 468,275 468,275 468,275 467,275 466,275 466,276 465,276 464,276 463,276 463,276 462,276 462,276 462,276 462,276 461,276 461,276 461,277 461,277 460,277 460,277 460,277 460,277 459,277 459,277 459,277 458,277 458,277 458,277 457,277 457,278 457,278 457,278 456,277 456,277 456,277 456,277 455,277 455,278 455,278 455,278 455,278 455,278 455,278 455,278 455,278 454,278 454,278 454,278 454,278 454,278 454,278 454,278 454,278 454,279 454,279 454,279 453,279 453,279 453,279 453,279 453,279 453,279 453,279 453,279 452,279 452,280 452,280 452,280 452,280 452,280 452,280 451,280 451,280 451,280 451,280 451,280 451,279 451,279 451,279 450,279 450,279 450,279 450,279 450,279 449,279 449,279 449,279 449,279 448,280 448,280 448,280 448,280 447,280 447,280 447,280 447,280 447,280 447,280 446,280 446,280 446,280 445,280 445,280 445,280 444,280 444,280 444,281 444,281 444,281 444,281 444,281 444,282 444,282 444,282 444,282 443,282 443,282 443,282 443,283 443,283 443,283 442,283 442,283 442,283 441,283 441,283 440,283 440,283 440,283 440,283 440,283 440,283 440,283 439,283 439,283 439,283 439,283 439,283 439,283 438,283 438,283 438,283 438,283 438,283 438,283 438,283 437,283 437,283 437,283 437,283 437,283 437,283 437,283 437,283 437,283 436,283 436,283 436,283 436,283 436,284 435,284 435,284 435,284 435,284 435,285 435,285 435,285 435,285 435,285 435,285 435,285 435,285 435,285 435,286 435,286 435,286 436,286 436,286 435,287 435,287 435,287 435,287 435,287 435,287 435,287 435,287 435,287 435,287 435,287 435,288 435,288 435,288 434,288 434,288 434,288 434,288 434,288 434,289 434,289 434,289 434,289 434,289 434,289 434,290 434,290 434,290 434,290 434,290 434,290 434,290 434,290 433,290 433,290 433,290 433,291 433,291 432,291 432,291 432,291 432,291 432,291 432,291 431,291 431,291 431,292 431,292 431,292 431,292 431,292 431,292 430,292 430,292 430,292 430,293 430,293 430,293 430,293 430,293 430,293 430,293 430,293 430,293 430,294 430,295 430,295 430,295 430,295 430,295 430,295 430,296 429,296 429,296 429,296 429,296 429,296 429,296 429,296 429,296 429,297 429,297 429,297 429,297 429,297 429,297 429,297 429,298 430,298 430,298 430,298 430,298 430,298 430,298 430,298 430,299 430,299 430,299 431,299 431,300 431,300 432,300 432,300 432,300 432,300 432,300 433,300 433,300 433,300 433,300 433,300 433,301 433,301 433,301 433,302 433,302 433,302 433,302 433,302 433,302 434,302 434,302 434,303 434,303 434,303 434,303 434,303 434,303 434,303 434,303 435,303 435,303 435,303 435,304 435,304 435,304 436,304 436,304 436,305 436,305 436,305 437,305 437,305 437,305 437,306 437,306 437,307 437,307 437,307 437,307 437,307 438,307 438,307 438,307 438,308 438,308 438,308 438,308 438,308 438,308 438,308 439,308 439,309 439,309 439,309 439,309 439,309 439,309 439,309 439,310 439,310 439,310 439,310 439,310 439,310 439,310 439,311 439,311 439,311 438,310 438,310 438,310 438,310 437,310 437,310 437,310 437,310 437,310 437,310 436,310 436,310 436,310 436,310 435,310 435,310 434,311 434,311 434,311 433,311 433,311 432,311 432,311 431,311 431,311 431,311 431,311 431,311 431,311 431,311 431,311 431,311 431,312 431,312 430,312 428,313 428,314 428,314 427,314 427,314 427,314 427,314 427,314 426,315 426,315 426,315 425,315 425,315 425,315 424,316 424,316 423,316 423,316 423,316 423,316 423,316 422,316 422,316 422,316 421,316 421,316 421,316 421,316 421,316 421,316 420,316 420,316 420,316 419,316 419,316 419,316 419,316 418,316 418,316 418,316 418,316 417,316 417,316 417,317 417,317 416,317 416,317 416,317 416,317 416,317 416,317 415,317 416,317 416,318 416,318 416,318 416,318 417,319 417,319 418,319 418,319 418,320 418,320 418,321 418,321 418,321 417,321 417,321 416,321 416,321 416,321 415,322 415,322 415,322 414,322 414,322 414,322 413,322 413,322 413,322 413,322 413,322 413,323 412,323 412,323 411,323 411,323 411,324 411,325 411,325 411,325 413,326 413,326 413,326 412,326 411,327 411,327 411,327 411,327 411,327 409,327 409,328 409,328 408,328 407,328 405,328 405,329 406,329 406,329 405,330 405,330 404,330 404,330 404,330 404,329 404,329 403,329 403,329 403,329 402,328 402,328 401,328 400,328 400,328 399,328 399,328 399,328 398,328 398,328 398,328 398,328 398,328 398,328 398,328 397,328 397,328 397,328 396,328 396,328 396,328 396,328 396,328 396,328 396,327 395,327 395,327 395,327 395,327 395,327 394,327 394,327 394,327 394,327 394,327 394,327 394,328 393,328 393,328 393,328 393,328 392,328 392,328 392,328 392,328 392,328 391,328 391,329 391,329 391,329 390,329 390,328 390,328 390,328 390,328 390,328 390,328 390,328 390,328 390,328 389,328 389,328 389,328 389,328 389,328 389,328 389,328 389,328 388,328 388,328 388,328 388,328 388,328 387,328 387,327 387,327 387,327 387,327 387,327 387,327 387,327 387,327 387,326 387,326 387,326 387,326 387,326 387,326 387,326 387,325 387,325 387,325 387,325 387,325 387,325 387,325 387,325 387,324 386,324 386,324 386,324 386,324 386,324 386,324 386,324 386,324 385,323 385,323 385,323 385,323 385,323 384,323 384,323 384,322 384,322 384,322 384,322 383,322 383,322 383,322 383,322 382,322 382,322 382,322 382,322 382,322 382,322 382,322 382,322 382,322 382,321 382,321 382,321 381,321 381,321 381,321 381,321 380,321 380,321 379,321 379,322 379,321 379,321 378,322 378,322 378,322 378,322 378,322 377,322 377,322 377,322 377,322 377,322 377,322 377,322 377,322 376,322 376,322 376,322 376,322 376,322 375,322 375,322 375,322 375,322 374,322 374,322 374,322 374,322 374,322 374,322 374,322 374,322 373,322 373,322 373,322 373,322 373,322 373,322 373,322 373,321 373,321 372,321 372,321 372,321 371,321 371,321 371,321 371,321 370,321 370,321 369,321 369,322 369,322 368,322 368,322 368,322 368,322 368,322 368,322 368,322 368,322 368,322 368,322 368,322 367,322 367,322 367,322 367,322 367,322 367,323 366,323 366,323 366,323 366,323 366,323 366,323 366,323 366,323 365,323 365,323 365,323 364,323 364,323 363,324 363,324 363,324 363,324 363,324 363,324 363,324 363,324 362,324 362,324 362,324 362,324 362,324 362,324 362,324 362,324 362,324 362,324 362,324 362,324 361,325 361,325 361,325 361,325 360,325 360,325 360,325 360,325 360,325 360,325 360,326 360,326 360,326 360,326 360,326 360,326 360,326 360,326 360,326 360,326 359,327 359,327 359,327 359,327 359,327 359,327 359,327 359,327 359,327 359,327 359,327 358,327 359,327 359,327 358,327 358,328 358,328 358,328 358,328 358,328 358,328 358,328 358,328 358,328 358,328 358,328 358,328 358,328 358,328 358,328 358,328 358,328 358,329 358,329 358,329 358,329 358,329 358,329 358,329 358,329 358,329 358,329 358,329 358,330 358,330 358,330 357,330 356,331 356,331 356,331 356,331 354,332 354,332 354,332 354,332 354,332 353,332 353,332 352,332 352,332 352,332 351,331 351,331 351,331 351,332 351,332 351,332 351,332 351,332 350,332 350,332 350,332 350,332 350,332 350,333 350,332 349,332 349,332 349,332 349,333 349,333 349,333 349,333 349,333 349,333 349,333 348,333 348,333 348,333 348,333 347,333 347,333 347,333 347,333 347,333 347,334 347,334 346,334 346,334 346,334 346,334 345,334 345,334 345,334 344,334 344,334 344,335 344,334 343,335 343,335 343,335 343,335 342,335 342,335 341,335 341,335 341,335 341,335 340,335 340,335 339,335 339,335 339,335 338,335 338,335 338,335 338,335 338,335 337,335 337,335 337,336 337,336 336,336 336,336 336,336 336,336 336,336 336,336 335,336 335,336 335,336 335,336 335,336 335,336 335,336 334,336 334,336 334,336 334,336 334,336 334,336 334,336 333,336 333,336 333,336 333,336 333,336 333,336 332,336 332,336 332,336 332,336 332,336 332,336 331,336 331,336 331,336 331,336 330,336 330,336 330,336 329,336 329,336 329,336 328,336 327,336 327,336 327,336 327,336 326,336 326,336 326,336 326,336 325,336 325,336 325,336 325,336 324,336 324,336 324,336 323,335 323,335 322,335 322,335 322,335 321,335 321,334 321,334 321,334 321,334 321,334 321,334 320,334 320,334 320,334 320,334 320,334 320,334 320,333 320,333 319,333 319,333 319,333 319,333 319,332 319,332 319,332 319,332 318,332 318,332 318,332 318,331 318,331 318,331 318,331 318,331 318,330 318,330 318,330 318,330 318,330 318,330 318,330 318,330 318,330 318,330 318,330 318,329 318,329 318,329 318,329 318,329 317,329 317,329 317,329 317,329 317,329 317,329 316,329 316,329 316,329 316,329 315,329 315,329 315,329 315,329 314,328 314,328 314,328 314,328 313,328 313,328 313,328 313,327 313,327 313,327 313,327 313,327 312,327 312,327 312,327 312,327 312,327 312,327 311,327 311,327 311,326 311,326 311,326 311,326 311,326 311,326 311,326 311,326 311,326 311,326 311,326 311,325 311,325 311,325 311,325 311,325 310,325 310,325 310,325 310,325 310,324 309,324 309,324 309,324 309,324 309,324 309,324 309,324 308,324 308,324 308,324 308,324 308,324 308,324 308,324 307,324 307,324 308,324 307,324 308,324 307,324 307,324 307,324 307,324 307,323 307,323 307,324 307,324 307,324 307,324 307,324 306,324 306,324 306,324 306,324 306,324 306,324 305,324 305,324 305,324 305,324 305,324 305,324 304,323 304,323 304,323 304,323 304,323 304,323 304,323 303,323 303,323 303,323 303,323 303,323 303,323 303,323 303,322 303,322 302,322 302,322 302,322 302,322 302,322 302,322 302,322 302,322 302,323 302,323 302,323 302,323 302,323 302,323 301,323 301,323 301,323 301,323 301,323 301,323 301,323 301,323 301,323 301,323 300,323 300,324 300,324 299,324 299,324 299,324 298,325 298,325 298,325 297,325 297,325 297,325 296,325 296,325 296,326 296,326 296,326 296,325 295,325 295,325 294,325 294,326 293,326 293,326 292,326 291,327 291,327 291,327 291,328 291,328 291,328 291,328 290,329 290,332 290,332 290,332 290,332 289,333 289,333 288,333 288,333 288,334 288,334 288,334 288,334 287,334 288,334 287,334 287,335 287,335 287,335 287,335 286,335 286,335 285,336 285,336 285,336 284,337 284,337 283,337 283,336 283,336 283,336 283,336 282,336 282,336 282,336 282,336 282,336 282,336 282,336 282,336 282,336 281,336 281,336 281,336 280,337 280,337 280,337 279,337 279,337 279,337 278,337 278,337 278,337 278,337 277,338 277,338 277,338 277,338 277,338 276,338 276,338 276,338 276,338 276,338 276,338 276,339 276,339 276,339 276,339 276,339 276,339 275,339 275,340 275,340 275,340 274,340 274,340 274,340 273,341 273,341 273,341 272,341 272,341 272,341 272,342 271,342 271,342 271,342 271,342 271,342 271,342 271,342 271,342 271,342 270,342 270,343 269,343 269,343 269,343 269,343 268,343 268,343 268,343 268,343 268,343 268,343 267,343 267,344 266,344 266,344 266,344 266,344 266,344 266,344 265,344 265,344 265,344 264,344 264,345 263,345 263,345 263,346 262,346 262,347 262,347 261,348 261,348 261,348 261,348 261,348 261,348 261,349 260,350 260,350 260,350 259,351 259,351 258,351 258,351 258,351 258,351 258,351 257,351 256,351 256,351 256,351 256,352 256,352 255,352 255,352 255,353 255,353 254,353 254,353 254,353 254,353 254,353 254,353 255,354 255,354 255,354 256,354 257,354 257,354 257,355 257,355 258,355 258,355 258,355 258,355 259,355 260,356 260,356 260,356 260,357 260,357 261,357 261,357 261,357 261,357 262,358 262,358 262,358 263,358 263,358 263,358 263,358 263,358 263,358 264,359 264,359 264,359 264,359 264,360 264,360 264,360 264,361 264,361 264,361 265,363 265,363 266,364 266,364 266,364 266,364 266,365 266,365 266,365 266,365 267,365 267,365 267,365 267,366 267,366 267,366 267,366 267,366 267,366 267,366 267,366 266,366 266,365 266,365 266,365 266,365 266,365 266,365 266,365 266,365 266,365 266,365 266,365 266,365 266,365 266,364 266,364 266,364 265,364 265,364 265,364 265,364 265,364 265,364 265,364 264,363 264,363 264,363 264,363 264,363 264,363 264,363 263,363 263,363 263,363 263,363 263,363 263,363 263,363 262,362 262,362 262,362 262,362 262,362 262,362 262,362 262,362 262,362 262,362 261,362 261,362 261,362 261,361 261,361 261,361 261,361 261,361 261,361 260,361 260,361 260,361 260,361 260,361 260,361 260,361 260,361 260,360 260,360 260,360 260,360 260,360 260,360 260,360 260,360 260,360 260,360 259,360 259,359 259,359 259,359 259,359 259,359 258,359 258,359 258,359 257,359 257,358 257,358 257,358 257,358 256,358 256,358 256,358 256,358 256,358 255,357 255,357 254,357 254,357 254,356 254,356 254,356 254,356 254,356 253,356 253,356 253,356 253,356 253,356 253,356 252,357 252,357 251,357 249,356 248,356 248,356 248,356 248,356 248,356 248,356 248,355 248,355 248,355 248,355 247,354 247,354 247,354 247,355 247,355 247,355 247,355 247,355 246,355 246,356 245,356 245,355 245,355 245,355 245,356 245,356 245,356 245,355 244,355 244,355 244,355 244,355 244,355 244,355 244,355 244,355 244,355 243,355 243,355 243,355 242,355 242,355 241,355 241,355 240,355 240,355 240,355 239,355 239,355 238,355 238,355 237,356 237,356 236,356 236,356 235,356 234,357 233,357 233,357 232,357 232,357 232,358 231,358 231,359 230,359 230,359 229,359 228,360 228,360 229,360 229,360 230,361 230,361 231,362 232,362 232,362 232,363 235,364 235,364 235,364 235,364 235,364 235,364 235,364 234,365 233,366 233,366 232,365 231,365 231,365 231,364 231,364 231,364 231,364 231,364 230,364 229,364 228,364 227,364 226,364 225,363 224,363 222,363 222,363 222,363 222,363 221,363 221,363 221,363 221,363 220,363 220,363 220,363 219,363 219,363 218,363 218,363 218,363 218,363 217,363 217,363 217,363 217,363 216,363 216,363 215,363 214,363 214,363 214,363 214,363 213,363 212,363 212,364 212,364 211,364 211,364 210,364 210,364 210,364 209,364 209,364 209,364 209,364 208,364 208,365 207,365 207,365 207,365 207,365 206,365 206,365 205,365 205,365 204,365 203,365 203,365 202,365 202,365 202,365 202,365 202,365 202,365 202,364 202,364 202,364 200,364 199,364 199,364 199,364 197,363 197,363 197,363 196,363 196,363 196,363 195,362 195,362 195,362 195,362 195,362 195,362 195,361 195,361 195,361 195,361 195,361 195,361 195,361 195,360 194,360 194,360 194,360 194,360 194,360 194,359 194,359 194,359 193,359 193,358 193,358 193,358 192,358 192,358 192,358 191,357 191,357 191,357 190,357 190,356 190,356 190,356 190,356 190,356 189,356 189,356 188,355 188,355 187,355 187,354 187,354 187,354 187,354 186,353 186,353 185,352 184,352 184,352 184,352 185,351 186,350 185,350 185,350 184,350 183,351 183,351 183,350 183,350 183,350 183,350 183,349 183,349 183,349 183,348 183,348 184,348 184,347 184,347 184,346 184,346 184,346 183,346 183,346 183,346 182,346 181,346 181,346 181,346 180,345 180,345 180,345 179,345 179,345 179,345 179,345 179,345 179,345 179,345 179,344 178,345 178,345 178,345 178,345 177,345 177,345 177,345 177,345 177,345 177,345 176,344 176,344 176,344 176,344 176,344 176,344 175,344 175,344 175,344 174,343 174,343 174,343 174,343 174,343 174,343 174,343 174,343 174,343 174,343 174,343 174,343 174,343 173,343 173,343 173,343 173,343 173,343 173,343 173,342 173,342 172,342 172,342 172,342 172,342 172,342 172,342 172,342 172,342 172,342 172,342 172,342 171,342 171,341 171,341 171,341 171,341 171,341 170,341 170,341 170,341 170,341 170,341 169,341 169,341 169,341 168,341 168,341 167,341 167,341 167,341 167,341 167,341 166,341 166,341 166,341 166,341 166,340 165,340 165,340 165,340 165,340 165,340 165,340 165,340 165,340 165,340 165,340 165,340 165,340 164,340 164,340 164,340 164,340 164,340 164,340 164,340 164,340 164,340 164,340 163,340 163,340 163,340 163,340 163,341 163,341 163,340 163,341 163,341 161,341 161,340 161,340 161,340 161,340 161,340 160,340 160,340 160,340 160,340 160,340 160,340 159,340 159,340 159,340 158,340 158,340 158,340 155,341 155,341 155,341 155,341 155,341 155,341 155,341 154,341 154,341 154,341 154,342 154,342 154,342 154,342 153,342 153,342 153,342 153,342 153,342 153,342 153,342 153,342 152,342 152,342 152,342 152,342 152,342 152,342 152,342 152,342 151,342 151,342 151,342 151,342 151,342 151,342 151,342 150,342 150,342 150,342 150,342 150,342 150,342 150,342 150,342 150,342 150,342 150,342 150,342 150,342 149,342 149,342 149,342 149,342 148,342 148,342 148,342 148,342 148,342 148,342 148,342 147,342 147,342 147,342 147,342 147,342 147,342 147,342 147,342 147,342 147,342 147,342 147,342 146,342 146,342 146,342 146,343 146,343 145,343 145,343 145,342 145,342 145,342 145,343 145,343 145,343 145,343 145,343 145,343 145,343 145,343 144,343 144,343 144,343 144,343 143,343 143,343 143,343 143,343 143,344 143,344 143,344 143,344 143,344 143,344 143,345 143,345 143,345 143,345 143,345 143,345 143,345 143,345 143,345 143,345 143,345 142,345 142,345 142,345 142,345 142,345 143,345 143,345 143,345 142,345 142,344 142,344 142,344 142,344 142,344 142,344 142,344 142,344 142,344 142,344 142,344 141,344 141,344 141,344 141,344 141,343 141,343 141,343 141,343 141,343 141,343 141,343 141,343 141,343 140,343 140,343 140,343 140,343 141,343 141,343 141,343 141,342 141,342 141,342 141,342 141,342 141,342 141,342 141,342 141,342 141,342 141,341 141,341 141,341 141,341 141,341 141,341 141,341 141,341 141,341 140,341 140,341 140,341 140,341 140,341 140,341 140,341 140,340 140,340 140,340 140,340 140,340 140,340 140,340 139,340 139,340 140,340 140,339 140,339 140,339 140,339 140,339 140,339 140,339 140,339 140,339 140,339 140,339 140,338 140,338 140,338 140,338 140,338 140,338 140,338 140,337 140,337 140,337 140,337 140,337 140,337 140,337 141,337 141,336 141,336 141,336 141,336 142,336 142,336 144,335 144,335 144,335 144,335 144,335 144,335 145,335 145,335 145,335 146,335 146,335 147,335 147,335 147,334 148,334 150,333 152,332 152,332 152,332 152,331 152,331 152,331 153,331 153,331 153,331 153,330 153,330 153,330 153,330 153,330 153,329 153,329 153,329 153,328 153,328 153,328 153,328 153,328 153,328 153,328 153,327 153,327 153,326 153,326 153,326 153,325 153,325 153,325 153,324 153,324 153,323 153,323 152,321 152,321 152,321 152,319 153,319 153,319 153,319 153,319 153,319 153,319 153,318 153,318 153,318 153,318 153,318 153,318 153,317 154,318 154,317 154,317 154,317 154,317 155,317 155,316 156,316 156,316 156,316 156,315 157,315 157,315 157,315 157,315 159,315 159,314 159,314 160,314 160,314 160,314 161,314 161,313 162,313 162,313 162,313 162,313 162,313 163,313 163,312 163,312 163,312 163,312 163,311 163,311 164,311 164,311 164,311 164,311 164,311 166,311 166,311 166,311 167,310 167,309 167,309 166,309 166,309 164,309 163,309 163,309 163,309 162,309 162,309 162,309 162,309 162,309 162,309 161,308 161,308 161,308 161,308 161,308 161,308 161,308 161,308 160,307 160,307 159,307 159,306 159,306 159,305 159,305 158,305 158,305 158,304 158,304 157,303 157,303 157,303 157,303 157,302 156,302 155,301 155,301 155,301 155,301 155,300 154,300 154,300 152,299 151,298 151,298 151,298 151,298 150,298 150,297 149,297 149,297 149,297 149,297 149,297 148,296 148,296 147,296 147,296 146,296 146,295 145,295 145,295 145,295 145,295 145,295 144,294 144,294 144,294 143,294 143,294 143,294 143,293 142,293 142,293 142,293 142,293 142,293 142,293 141,293 141,293 141,293 141,292 141,292 141,292 139,292 139,292 138,291 138,291 136,290 136,290 135,290 133,289 132,289 132,289 132,289 131,288 131,288 130,288 129,288 129,288 127,287 127,287 127,287 127,287 127,287 127,287 126,287 126,287 126,286 125,286 124,285 124,285 124,285 123,284 123,284 122,284 122,284 121,283 120,283 120,283 120,283 119,283 119,283 116,282 116,282 116,282 114,281 113,280 113,280 113,280 115,279 115,279 115,279 115,279 115,279 116,279 116,279 116,279 116,279 116,279 117,279 117,279 118,278 118,278 118,278 119,277 119,277 119,277 119,277 120,277 120,277 120,276 120,276 120,276 121,276 121,275 122,275 122,275 122,275 123,275 123,275 123,275 123,275 124,274 124,274 124,274 124,274 125,274 125,274 125,273 125,273 125,273 125,273 126,273 126,273 126,273 126,273 126,273 126,273 127,272 127,272 127,272 127,272 127,272 127,272 128,272 128,272 128,272 128,272 128,272 129,272 129,272 129,272 129,271 129,271 130,271 130,271 130,271 130,271 131,270 131,270 131,270 132,270 132,270 132,270 132,270 133,270 133,270 133,270 133,270 134,269 134,269 134,269 134,269 134,269 134,269 135,269 135,268 135,268 135,268 135,268 135,268 136,268 136,268 136,268 136,268 136,267 136,267 137,267 137,267 137,266 138,266 138,266 138,266 138,266 139,266 139,266 139,266 139,266 139,266 139,265 139,265 140,265 140,265 140,265 140,265 141,265 141,265 141,265 141,265 141,265 141,265 141,265 141,265 142,265 142,265 142,265 142,264 142,264 142,264 142,264 142,264 144,264 144,264 144,264 144,263 144,263 144,263 143,263 143,263 143,263 143,263 142,263 142,263 142,263 142,262 142,262 142,262 142,262 142,262 142,261 142,261 141,260 141,260 141,260 141,260 141,260 141,260 141,260 140,259 140,259 140,259 140,259 140,259 140,259 140,259 140,259 140,259 140,259 139,259 139,259 139,259 139,259 139,259 138,259 138,259 138,259 138,259 138,258 138,258 138,258 138,258 138,258 138,258 138,258 137,258 137,258 137,258 137,258 137,258 136,258 136,258 135,258 135,258 135,258 135,258 135,257 135,257 135,257 135,257 135,257 135,257 136,256 136,256 136,256 136,256 137,256 137,256 137,256 137,256 137,255 137,254 137,254 137,254 136,254 135,254 135,254 136,253 136,252 136,252 135,252 135,252 134,252 134,252 133,251 133,251 133,250 133,250 132,251 132,251 132,251 132,251 132,250 132,250 132,250 132,249 132,249 132,249 132,249 132,248 132,248 132,248 131,248 131,248 131,247 131,247 130,247 130,247 130,246 130,246 130,246 130,246 130,245 130,245 130,245 130,245 129,245 129,245 129,245 129,245 129,245 129,245 129,244 129,244 129,244 129,244 128,244 128,243 128,243 128,243 128,243 127,243 127,243 127,243 127,242 127,242 126,242 126,242 126,242 126,241 126,241 125,241 125,241 125,241 124,241 124,241 124,241 124,241 124,240 124,240 123,240 123,240 123,240 123,239 123,239 122,239 122,238 121,238 121,238 121,238 122,238 122,238 122,237 122,237 122,237 121,237 121,236 121,236 120,237 120,237 120,237 120,237 120,237 120,237 119,236 119,236 119,236 119,236 119,236 119,236 119,236 119,236 119,236 119,236 119,236 118,235 118,235 118,236 118,236 118,235 118,235 118,235 118,235 117,235 116,235 117,234 117,234 117,234 117,234 117,233 117,233 117,233 116,233 116,233 116,233 115,234 114,234 114,234 114,234 114,233 114,233 115,233 115,233 114,233 114,233 114,233 114,233 113,233 113,233 112,233 112,232 112,232 112,232 112,232 112,232 112,232 112,232 111,232 111,232 111,232 110,231 110,231 110,231 110,231 110,231 110,231 109,231 109,232 109,232 109,232 109,231 109,231 108,231 108,231 108,231 108,231 108,231 108,231 108,231 108,231 107,231 107,231 107,231 107,230 107,230 107,230 108,230 108,230 108,230 108,230 108,230 108,230 108,230 108,230 109,230 109,230 109,230 109,230 109,230 109,230 109,230 110,230 110,230 110,230 110,230 110,230 110,229 110,229 110,229 110,229 110,229 109,229 109,229 109,229 108,228 108,228 107,228 107,229 107,229 107,230 106,230 107,230 107,230 107,230 107,230 106,230 106,230 106,230 106,231 106,231 105,231 105,232 105,232 105,233 105,233 104,233 104,233 104,233 104,233 104,232 103,232 103,232 104,232 104,231 104,231 105,230 105,230 105,230 104,230 104,230 104,230 104,230 104,229 104,229 105,229 105,228 105,228 105,228 106,227 106,227 106,227 104,226 104,227 104,227 104,227 104,227 103,227 103,227 103,227 103,227 103,227 103,227 103,227 102,227 102,227 102,227 102,227 102,227 102,227 102,227 102,226 102,226 103,225 103,225 103,225 102,224 102,224 102,224 102,224 102,224 102,224 102,225 102,225 101,225 101,225 101,225 101,225 101,225 99,224 99,224 98,223 98,223 98,223 98,223 97,223 97,223 97,223 97,223 96,223 96,223 96,223 97,223 97,223 97,223 97,224 96,224 97,224 97,224 97,224 97,224 97,224 98,224 99,225 99,225 98,225 98,225 98,225 98,226 98,226 99,226 99,226 99,226 98,227 98,227 98,227 98,227 98,227 98,227 98,227 98,227 98,227 98,227 98,227 97,227 97,227 97,227 97,227 97,227 97,227 97,227 96,227 96,227 96,227 96,228 96,228 96,228 96,228 95,228 95,228 95,228 95,228 95,228 95,228 95,227 95,227 95,227 94,226 95,226 95,226 95,226 94,224 94,224 94,224 94,224 94,224 95,224 95,224 95,224 95,224 95,224 95,223 95,223 95,223 95,223 95,222 95,222 95,222 95,222 95,222 95,222 95,221 95,221 95,221 95,221 96,222 96,222 96,222 96,222 97,221 98,221 98,221 98,221 98,221 97,220 97,220 97,220 97,220 97,220 97,220 96,220 96,219 96,219 96,219 95,219 95,219 95,219 94,220 93,220 93,220 93,220 93,220 93,220 93,220 93,220 92,220 92,220 92,221 91,221 91,221 91,222 90,222 90,222 90,222 90,222 90,222 90,222 90,223 90,223 90,223 88,222 87,222 87,222 86,222 86,222 86,222 87,221 87,221 87,221 87,220 87,220 87,220 87,220 88,219 88,219 88,219 88,219 88,219 88,219 88,219 88,219 88,219 88,219 88,218 89,218 89,218 89,217 89,217 89,217 89,217 90,218 90,218 90,217 90,217 90,217 91,218 91,218 93,217 94,216 94,216 94,216 94,215 94,215 95,215 95,215 95,215 95,215 94,215 94,215 94,215 94,214 94,214 94,214 94,214 95,214 95,213 95,213 95,213 95,213 95,213 95,213 95,212 95,212 97,213 97,213 98,212 98,212 97,212 97,212 97,212 97,211 97,210 97,210 97,210 97,210 97,210 97,209 97,209 97,209 97,209 96,209 96,209 96,209 96,209 96,209 96,209 96,209 96,209 96,209 96,208 96,208 96,207 96,207 96,207 96,207 96,207 96,207 96,207 96,207 96,206 96,206 96,206 96,206 96,206 96,206 95,206 95,206 95,205 95,205 95,205 94,205 94,205 94,205 93,205 93,204 93,204 93,204 93,204 93,204 93,203 93,203 93,203 93,203 93,203 93,203 93,203 92,202 92,202 92,202 92,202 92,202 92,202 92,201 92,201 92,201 92,201 92,201 92,201 92,201 92,201 92,201 92,201 92,201 92,201 91,201 91,201 91,201 91,201 91,201 91,201 91,201 91,201 91,201 91,201 91,201 91,201 90,201 90,201 90,201 90,201 90,201 90,201 90,201 90,201 90,201 90,201 90,201 90,201 90,201 90,201 90,201 90,201 90,201 89,202 90,202 90,202 89,202 89,202 89,202 89,202 89,202 89,202 89,202 89,202 89,202 88,202 88,203 88,203 88,203 88,203 88,203 88,203 87,203 87,203 87,203 87,203 87,203 87,203 87,203 87,203 87,203 87,203 87,203 87,203 87,203 87,203 86,203 86,203 86,203 86,203 86,203 86,203 86,203 86,203 86,203 85,203 85,203 85,204 85,204 85,204 85,204 84,204 84,204 84,204 84,204 84,203 84,203 83,203 83,203 83,203 83,203 82,203 82,203 82,203 82,203 82,203 82,203 82,203 82,203 82,203 81,203 81,203 81,203 81,203 81,203 81,203 80,203 80,203 80,203 80,203 79,203 79,203 79,203 79,203 79,203 79,203 79,203 79,203 79,203 78,203 77,203 77,203 77,203 77,203 77,203 76,203 76,202 76,202 75,202 75,202 75,202 75,202 75,202 75,202 75,202 75,202 74,202 74,201 74,201 74,201 74,201 74,201 74,201 73,201 73,201 73,201 73,201 73,201 73,201 72,201 72,201 72,201 72,201 72,201 72,201 71,201 71,201 71,201 71,201 70,200 70,200 70,200 70,199 70,199 70,199 69,199 69,199 69,199 69,199 68,198 68,198 68,198 68,198 68,198 68,198 68,198 67,198 67,198 67,198 67,198 67,197 67,197 67,197 67,197 66,197 66,196 66,196 66,196 66,196 66,196 66,196 66,196 66,196 66,196 66,196 66,196 66,195 66,195 66,195 66,195 66,195 66,194 66,194 66,194 66,194 66,194 66,193 66,193 66,193 66,193 66,193 66,193 66,192 66,192 66,192 66,192 66,192 65,191 65,191 65,191 65,191 65,190 65,190 65,189 64,189 64,188 64,188 64,187 65,187 65,187 65,187 65,186 64,186 64,186 64,185 63,185 63,185 63,185 63,185 63,185 63,185 63,185 62,184 62,184 61,185 61,185 60,185 59,185 59,185 58,185 58,185 58,185 58,185 58,185 57,184 57,184 57,183 57,183 57,182 57,182 57,182 57,182 56,182 56,182 56,181 56,181 56,181 56,181 56,181 56,181 56,180 56,180 56,180 56,180 57,180 57,179 57,179 57,179 57,179 57,179 57,179 57,179 57,179 57,178 57,178 57,178 57,178 57,178 57,178 57,178 57,177 57,177 57,177 57,177 57,177 57,177 57,177 57,177 57,177 57,177 57,177 57,176 58,176 58,176 58,176 57,176 57,176 57,176 57,176 57,176 57,176 57,175 57,175 57,175 57,175 57,175 57,175 57,175 57,175 57,175 57,175 57,175 57,175 57,175 57,175 57,175 57,174 57,174 57,174 57,174 57,174 57,174 57,174 57,174 57,174 57,174 57,174 57,174 57,173 57,173 57,173 57,173 57,173 57,173 57,173 57,173 58,173 58,173 58,172 58,172 58,172 58,172 58,172 58,172 58,172 58,172 58,172 59,172 59,172 59,171 59,171 59,171 59,171 59,171 59,170 59,170 59,170 59,170 60,170 60,170 60,170 60,170 60,170 60,170 60,170 60,170 60,170 60,170 60,170 60,170 60,170 60,169 59,169 59,169 59,169 59,169 59,169 59,169 60,169 60,169 60,169 60,169 60,169 60,169 60,168 60,168 60,168 59,168 59,168 59,168 59,168 59,168 59,168 59,168 59,167 59,167 59,167 59,167 59,167 58,167 58,167 58,167 58,167 58,166 58,166 57,166 57,166 57,166 58,166 58,165 58,165 58,165 58,165 58,165 58,165 57,164 57,164 57,164 57,163 56,163 56,163 56,163 56,163 56,163 56,163 57,163 57,163 57,163 57,162 57,162 57,162 57,162 57,162 58,162 58,162 58,162 58,162 58,162 58,161 59,162 59,161 59,161 59,161 59,161 59,161 59,161 60,161 60,161 60,161 60,161 61,161 61,161 61,161 61,161 61,160 61,160 61,160 61,160 61,160 61,160 61,160 62,160 62,160 62,160 62,160 62,160 62,160 62,160 62,160 62,160 62,160 62,159 62,159 62,159 62,159 62,159 62,159 62,159 63,159 63,159 63,159 63,159 63,159 63,159 63,159 63,158 63,158 63,158 63,158 63,158 63,158 63,158 63,158 63,158 63,158 64,158 64,158 64,158 64,158 64,158 64,158 64,158 64,158 64,158 64,158 64,158 64,158 64,158 64,157 64,157 64,157 64,157 64,157 64,157 64,157 64,157 64,157 64,157 64,157 64,157 64,157 64,157 64,157 64,157 64,156 64,156 64,156 64,156 64,156 64,156 64,156 64,156 64,156 64,156 64,156 64,156 64,156 64,156 64,156 64,156 64,156 64,156 64,156 64,155 65,155 65,155 64,155 64,155 65,155 65,155 65,155 65,155 65,155 65,154 65,154 65,154 65,154 65,154 65,154 65,154 65,154 66,153 66,153 66,153 66,153 67,153 67,153 67,152 68,152 68,152 68,152 68,152 68,152 68,152 68,151 68,151 69,151 69,151 69,151 69,151 69,150 69,150 69,150 68,150 68,150 68,150 68,150 69,150 69,150 68,150 68,150 68,150 68,149 68,149 68,149 68,149 68,149 68,149 68,149 68,149 68,149 68,149 68,148 68,148 68,148 67,148 67,148 67,148 67,148 67,147 67,147 67,147 67,147 67,147 67,147 67,147 67,147 67,147 67,146 67,146 67,146 67,146 67,146 67,146 67,146 67,145 67,145 67,145 67,145 67,145 67,145 67,145 67,144 67,144 67,144 67,144 67,144 67,144 67,144 68,143 68,143 68,142 68,142 68,142 67,142 67,142 67,142 67,142 68,141 68,141 68,141 68,141 69,141 69,141 69,141 69,140 70,140 70,140 71,140 71,140 71,140 71,140 71,140 71,140 71,140 71,139 71,139 71,139 71,139 71,139 71,139 71,139 71,139 71,139 72,139 72,139 72,139 72,139 72,138 73,138 73,138 73,138 73,138 73,138 73,138 73,138 73,138 73,138 73,138 73,137 73,137 73,137 73,137 73,137 73,137 73,137 73,137 73,137 73,137 73,137 74,136 74,136 74,136 74,136 74,136 74,136 74,136 74,136 74,135 74,135 74,135 74,135 74,135 74,135 74,135 75,135 75,135 75,135 76,135 76,135 77,135 77,135 77,135 77,135 77,135 77,135 77,135 78,135 78,135 78,135 78,135 78,135 79,135 79,135 79,135 79,135 79,135 79,135 79,135 79,135 79,134 79,134 80,135 80,134 80,135 80,135 80,135 80,134 80,134 81,134 81,134 81,134 81,134 81,134 81,134 81,134 81,134 81,134 82,134 82,134 82,134 82,134 82,134 82,134 82,134 83,133 83,133 83,133 84,133 84,133 84,133 84,133 85,133 85,133 85,133 85,133 85,133 85,133 86,132 86,132 87,132 87,132 87,132 87,132 88,132 88,132 88,132 88,131 88,131 88,131 88,131 88,131 88,131 88,131 88,131 88,131 88,131 88,131 88,131 88,131 88,131 88,131 89,131 89,131 89,131 89,131 89,131 89,131 89,131 89,131 89,130 89,130 89,130 89,130 89,130 89,130 89,130 89,130 89,131 89,131 89,131 90,131 90,131 90,131 90,130 90,130 90,130 90,130 90,130 90,130 90,130 91,131 91,131 91,131 91,131 91,131 91,130 91,130 92,129 92,129 92,129 92,128 92,128 91,128 91,128 90,128 90,128 90,128 90,128 89,127 89,127 88,126 88,126 87,126 87,125 87,125 86,125 86,125 85,125 85,124 85,124 84,124 84,124 84,123 84,123 83,123 83,123 83,123 83,123 83,123 83,122 83,122 83,122 83,122 83,122 83,122 83,122 83,123 82,123 82,123 82,123 82,123 81,123 81,123 81,122 80,122 80,122 80,121 80,121 80,120 81,120 81,120 81,119 81,119 81,119 81,119 82,119 82,119 82,119 82,119 82,119 82,118 82,118 81,118 81,118 81,118 81,118 81,118 80,117 80,117 80,117 79,117 79,117 79,117 79,117 79,116 79,116 79,116 79,116 79,116 79,116 79,115 79,115 78,115 78,115 78,115 78,115 78,115 77,115 77,115 77,115 77,115 77,116 77,116 77,116 76,116 76,116 76,116 76,116 75,116 75,116 75,116 75,116 75,116 75,116 75,116 75,116 75,116 75,116 75,116 74,116 74,116 74,115 74,115 74,115 74,115 74,115 74,115 74,115 74,115 74,115 73,115 73,115 73,115 73,115 73,116 73,116 72,116 72,116 72,116 71,116 71,116 71,115 71,115 71,115 71,115 71,115 71,115 71,115 70,115 70,115 70,115 70,115 70,115 69,115 69,115 69,115 69,115 69,115 68,115 68,115 68,114 68,114 68,115 67,115 67,115 67,115 64,114 63,114 63,114 62,114 62,114 62,114 62,114 62,114 61,113 61,113 61,113 61,113 60,113 60,113 60,113 60,113 60,114 60,114 60,114 60,114 60,114 60,114 60,114 60,113 60,113 59,114 59,114 59,114 59,114 59,115 59,115 59,115 59,115 59,115 59,115 59,115 58,115 58,115 58,115 58,115 58,115 57,115 57,115 56,115 56,115 56,115 56,115 55,114 55,114 55,114 55,114 55,114 54,114 54,114 53,115 53,115 52,115 52,115 52,115 52,115 52,115 51,115 51,115 51,115 50,115 49,115 49,115 48,114 48,114 48,114 47,113 47,113 47,113 47,113 47,113 47,112 47,112 47,112 46,112 46,112 45,111 45,111 44,111 44,111 44,111 44,110 44,110 44,110 44,109 45,109 45,109 44,109 44,109 44,108 45,108 45,108 45,108 45,108 45,108 44,107 43,106 43,106 43,106 42,106 42,106 41,106 41,106 41,106 39,106 39,106 38,106 38,105 38,105 38,105 38,105 37,105 37,105 37,105 37,105 37,105 37,104 36,104 36,104 36,104 35,104 35,104 34,104 34,104 33,103 33,103 33,103 32,103 32,104 31,104 29,104 29,104 29,104 29,104 29,104 28,104 28,105 28,105 27,105 27,105 27,105 27,105 27,104 27,104 27,104 27,104 28,104 28,104 27,103 27,103 27,103 27,103 27,103 27,103 26,104 25,104 25,104 25,104 25,104 24,103 24,103 24,103 23,103 23,103 23,103 22,103 22,103 22,103 21,103 21,103 20,103 20,103 20,103 20,102 20,102 20,102 20,102 19,102 19,102 19,102 19,103 19,103 19,103 18,103 18,103 18,103 18,103 18,103 18,102 18,102 18,102 18,102 18,102 18,102 17,102 17,102 17,102 17,102 17,102 17,102 17,102 17,102 16,102 16,102 16,101 17,101 17,101 17,101 17,101 17,101 17,101 16,100 15,100 15,100 14,100 14,100 13,99 12,99 12,99 12,99 11,99 11,99 11,99 10,99 10,99 10,99 10,99 10,99 9,99 9,99 9,99 9,99 9,99 9,100 8,100 8,100 8,99 8,99 8,99 8,99 7,99 7,98 7,98 6,98 6,98 6,98 5,97 5,97 5,97 4,97 4,96 3,95 2,95 2,95 2,95 2,94 2,94 2,94 2,94 2,94 1,94 1,94 1,94 1,94 1,94 1,94 0,93 0,93 0,93 0,92 0,92 0,92 0,92 0,92 0,92 0,92 0,92 0,92 0,92 0,91 2,92 2,92 4,91 4,91 5,91 5,90 5,90 5,90 5,90 7,89 7,89 7,89 7,89 7,89 7,89 8,89 8,89 8,89 8,89 9,89 9,89 9,89 9,89 10,88 11,88 12,87 12,87 12,87 12,87 13,87 13,87 13,86 14,86 14,85 15,85 15,85 15,84 15,84 15,84 15,83 15,83 15,83 15,83 14,82 14,82 14,81 14,81 13,81 13,81 12,80 12,80 12,79 12,79 12,79 13,79 16,78 16,78 17,79 17,79 18,81 18,81 19,81 19,81 19,81 20,81 20,81 21,81 22,81 22,81 22,81 23,81 23,81 25,80 26,80 27,80 27,80 27,80 28,79 29,79 29,79 30,78 30,78 30,78 30,78 30,78 32,78 32,78 33,77 33,77 33,77 34,77 34,77 35,76 35,76 36,76 35,76 35,76 35,76 35,76 35,76 35,75 35,75 35,75 35,75 35,75 35,75 35,75 35,75 34,75 34,75 34,75 34,75 33,74 33,75 33,75 33,75 33,75 33,75 32,75 32,74 32,74 32,74 32,74 32,74 32,74 32,74 33,74 33,74 33,74 33,74 34,74 34,72 35,72 35,72 35,72 35,72 35,72 35,72 35,72 35,71 36,71 36,71 36,70 37,70 37,70 37,70 37,71 37,71 38,71 39,71 39,71 40,71 40,71 42,70 43,70 43,70 43,70 45,71 45,71 46,71 47,72 48,72 48,72 48,73 49,73 49,73 49,74 47,74 46,74 46,74 44,75 44,75 44,76 44,76 44,75 44,75 45,76 45,76 46,75 47,75 47,75 47,75 48,74 49,74 50,74 51,73 53,73 53,72 53,72 55,72 56,72 57,72 58,72 58,72 59,71 60,71 59,72 59,72 60,71 63,70 63,70 64,70 64,70 64,70 65,70 67,70 69,69 70,69 73,70 74,69 78,69 78,69 80,69 80,69 80,69 80,68 80,68 79,68 79,67 79,67 79,67 78,66 78,66 78,66 77,66 77,66 77,66 76,66 76,66 75,66 75,66 75,66 75,66 74,66 74,65 74,65 74,65 74,65 74,65 74,65 73,65 73,65 73,65 73,65 73,64 73,64 73,64 73,64 73,64 73,63 73,63 73,63 73,63 73,63 73,63 73,63 73,62 73,62 74,62 74,62 74,62 74,62 74,62 74,62 74,61 74,61 74,61 74,61 73,61 73,60 73,60 73,60 73,60 73,60 73,60 73,59 73,58 73,57 73,57 73,57 74,57 74,57 74,57 74,57 74,57 74,57 74,56 74,56 73,56 73,56 72,56 72,56 71,55 70,55 70,55 70,55 70,54 69,54 69,54 69,53 68,53 68,52 68,52 68,52 67,52 67,52 67,52 67,52 67,52 66,52 66,52 66,52 66,52 65,52 65,52 65,52 65,52 65,52 65,52 65,52 65,52 65,52 64,52 64,52 64,52 64,52 64,52 64,52 64,52 64,52 64,51 65,50 65,50 65,50 65,49 66,48 67,47 67,47 67,47 65,47 64,48 64,48 63,47 63,47 63,47 63,47 63,47 60,47 60,47 60,47 60,47 60,47 60,47 60,47 60,47 60,47 60,47 60,47 60,46 60,46 60,46 60,46 60,46 60,46 60,46 60,46 60,46 60,46 60,46 60,45 60,45 60,45 60,45 60,45 59,45 59,45 59,44 59,44 59,44 58,44 58,44 58,44 58,44 57,44 57,44 57,43 57,43 57,43 57,43 57,42 57,42 57,42 57,42 57,42 57,42 57,42 57,42 57,42 57,42 57,42 57,42 57,42 57,42 56,42 57,41 56,41 57,41 57,41 57,41 57,41 58,41 58,41 58,41 60,40 60,40 60,40 60,40 60,40 60,40 61,40 61,40 61,40 61,40 61,40 61,40 61,40 62,40 62,39 62,39 63,39 63,39 64,39 64,39 64,39 64,39 64,39 65,39 65,39 65,39 65,39 66,39 66,39 66,39 67,40 67,40 67,40 67,40 67,40 68,40 68,40 68,40 68,40 69,41 69,41 69,41 70,41 70,41 70,41 70,41 70,41 71,41 71,40 71,40 72,40 72,40 72,40 72,40 72,40 72,39 72,38 72,38 72,38 71,38 71,38 71,38 70,38 70,38 69,37 68,37 68,37 68,37 68,37 67,37 66,36 66,36 65,36 65,36 65,36 65,35 65,35 65,35 65,35 65,34 65,34 66,34 66,34 66,34 67,34 67,34 67,34 68,34 68,34 68,34 68,34 69,34 69,35 69,35 70,36 70,36 71,36 71,36 71,36 72,36 72,36 73,37 73,37 73,38 74,38 74,38 74,38 74,39 74,39 74,39 74,39 74,40 75,40 75,40 75,40 75,40 76,40 76,40 76,40 77,40 78,40 79,39 79,39 80,39 80,39 80,39 81,39 82,39 82,39 82,39 82,38 82,38 82,38 81,37 80,36 80,36 80,35 79,34 79,34 79,34 80,34 80,34 81,34 82,34 82,34 83,34 83,34 83,34 84,34 84,34 85,34 85,34 85,34 85,35 86,35 86,35 86,35 87,35 87,35 87,35 87,35 88,35 88,36 88,36 88,35 88,35 88,35 89,35 89,35 89,35 90,34 90,34 91,34 91,34 91,34 91,34 91,34 92,34 92,33 92,33 92,33 93,33 93,33 93,33 93,33 94,32 94,32 94,32 94,31 94,31 94,31 94,31 94,31 94,31 94,31 94,31 94,31 94,30 95,30 95,29 95,29 95,29 95,29 96,28 96,28 96,28 96,28 96,28 96,27 96,27 97,27 97,27 97,26 97,26 97,25 99,26 99,26 100,27 100,26 100,26 100,27 100,27 100,27 100,26 101,26 101,26 100,26 100,26 100,26 100,26 100,26 100,25 100,25 101,25 101,25 101,25 101,25 102,25 102,25 102,25 102,25 102,25 102,25 102,25 102,25 102,25 102,24 102,24 102,24 102,24 102,24 102,24 102,24 102,24 103,24 103,24 103,24 103,24 103,24 104,24 104,24 104,23 104,23 104,23 104,23 104,23 104,23 104,23 104,23 105,22 105,22 105,22 105,22 105,22 105,22 105,22 105,22 105,22 105,22 105,22 105,22 105,22 105,22 105,22 105,22 105,21 105,21 105,21 106,21 106,21 106,21 106,21 106,21 106,21 106,21 106,21 106,21 106,21 106,21 106,21 106,21 107,20 107,20 107,20 107,20 107,20 107,20 107,20 107,20 107,20 107,20 107,20 107,20 107,20 107,20 107,20 107,20 107,20 108,20 108,19 108,19 108,19 108,19 108,20 108,20 108,20 108,20 108,19 108,19 108,19 109,20 109,20 109,19 109,19 109,19 109,19 109,19 109,19 109,19 109,19 109,19 109,19 109,19 109,19 109,19 109,19 109,19 110,19 110,19 110,19 110,19 110,19 110,19 110,19 110,19 110,19 110,19 110,18 110,18 110,18 110,18 110,18 110,18 110,18 110,18 110,18 110,18 110,18 110,18 110,18 110,18 110,18 110,18 110,18 111,18 111,18 111,17 111,17 111,17 111,17 111,17 112,17 112,17 112,17 112,17 112,17 112,17 113,17 113,17 113,16 113,16 113,16 113,16 113,16 113,16 113,16 114,16 114,16 114,16 114,16 114,16 114,16 114,16 114,16 114,15 114,15 114,15 114,15 113,14 113,14 113,14 113,14 113,14 113,14 113,13 112,13 112,13 112,13 112,13 112,13 112,13 112,13 112,12 112,12 112,12 112,12 112,12 112,11 112,11 112,11 112,11 112,11 111,11 111,11 111,11 111,11 111,11 111,10 111,10 111,10 111,10 111,10 111,10 111,10 111,10 111,9 111,9 111,9 111,9 111,9 111,9 111,9 111,9 111,8 112,8 112,8 112,8 112,8 112,8 113,9 113,9 113,10 113,10 113,10 114,10 114,10 114,10 115,11 117,11 117,11 118,11 119,11 119,12 120,12 121,13 121,13 121,13 121,11 121,10 121,9 121,9 121,9 121,8 121,8 121,8 120,7 120,7 121,7 121,7 121,7 121,7 121,6 121,6 121,6 121,6 122,7 121,7 122,7 122,7 122,7 122,7 122,7 122,7 122,7 123,8 123,8 123,8 124,8 124,8 124,8 124,8 125,8 125,8 125,8 125,8 125,8 125,8 125,8 125,9 125,9 126,9 126,9 127,9 127,9 127,9 127,9 127,9 127,9 127,8 128,8 128,8 128,8 128,8 129,8 129,8 129,7 129,7 129,8 129,8 130,8 130,7 130,7 130,7 130,7 130,7 130,7 130,7 130,7 130,6 130,6 131,6 131,6 131,6 131,6 131,6 131,6 131,6 132,6 132,6 132,6 132,6 132,6 132,6 132,6 132,6 133,6 133,6 133,6 133,6 133,6 134,5 134,5 135,5 135,5 135,5 135,5 136,5 136,5 136,5 136,5 136,5 136,5 137,4 137,4 137,4 137,4 137,4 137,4 137,4 137,4 137,4 137,4 138,4 138,4 138,4 138,4 139,3 139,3 139,3 139,4 140,4 140,3 140,3 140,4 140,4 141,3 141,3 141,3 142,4 142,4 142,4 143,3 143,3 143,3 143,3 143,3 143,3 143,3 143,3 143,3 143,3 144,3 144,2 144,2 144,2 144,2 145,2 145,2 145,2 145,2 145,2 145,1 145,1 145,1 145,1 146,1 146,1 146,1 146,0 146,0 146,0 147,0 147,0 147,0 147,0 147,0 147,0 147,1 147,1 147,1 147,1 147,1 147,1 147,1 147,1 147,1 147,2 147,2 147,2 147,2 147,2 147,2 146,2 146,2 146,2 146,3 146,3 146,3 146,3 146,3 146,3 146,3 146,4 146,4 146,4 146,4 146,5 146,5 146,5 146,5 146,5 145,5 145,5 145,5 145,6 145,6 146,6 146,6 146,7 146,7 146,7 146,7 146,7 146,7 146,7 147,8 147,8 147,9 146,9 146,9 146,9 146,9 146,10 145,10 145,10 145,10 145,10 144,10 144,10 144,10 144,10 144,10 144,11 143,11 143,12 142,12 142,12 142,12 142,12 142,12 142,12 141,13 141,13 141,13 141,13 141,13 141,14 141,14 141,14 141,14 141,14 141,14 142,14 142,14 142,14 142,14 142,14 142,14 142,14 142,14 142,15 142,15 143,15 143,15 143,15 143,15 143,15 143,15 143,15 144,15 144,15 144,15 144,15 144,16 144,16 145,16 145,16 145,16 145,16 145,16 145,16 145,16 145,16 146,16 146,16 146,16 146,16 146,16 147,16 147,16 147,16 147,16 148,16 148,16 148,16 148,16 149,16 149,16 150,16 150,17 150,17 150,17 151,17 151,17 151,17 153,17 153,17 153,16 154,16 154,16 154,16 155,16 155,16 155,16 155,16 155,16 156,16 156,16 156,16 156,16 157,17 157,17 158,17 158,17 158,17 158,17 158,17 159,17 159,17 159,17 159,17 159,17 159,17 159,17 159,17 159,17 159,17 159,18 158,19 158,19 158,20 158,20 158,20 158,20 158,20 159,20 159,20 159,20 159,20 159,20 159,20 159,20 159,20 159,20 159,20 159,20 160,20 160,20 160,21 160,21 160,21 160,21 160,21 160,21 160,21 160,21 161,23 161,23 161,23 161,23 161,23 161,23 162,23 162,23 162,23 162,23 162,23 162,23 162,23 162,23 162,23 162,23 162,23 162,23 162,24 162,24 163,24 163,24 163,24 163,24 163,24 163,24 163,24 164,24 164,24 164,24 164,24 164,24 164,24 164,24 164,24 164,24 164,24 164,24 164,24 164,24 164,24 164,24 164,25 164,25 164,25 164,25 164,25 164,25 164,25 165,25 165,25 165,25 165,25 165,25 165,25 165,26 165,26 165,26 165,26 165,26 165,26 165,26 165,26 165,26 165,27 165,27 165,27 165,27 166,27 166,27 166,27 166,27 166,27 166,27 166,27 166,27 166,27 166,27 166,27 166,28 166,28 167,28 167,28 167,28 167,28 167,28 167,28 167,28 167,28 167,28 167,29 167,29 167,29 167,29 167,29 167,29 168,29 168,29 168,29 168,29 168,29 168,29 168,29 168,29 168,29 168,29 168,29 169,29 169,29 169,29 169,29 169,30 169,30 169,29 169,29 169,29 169,29 169,29 169,29 169,30 169,30 169,30 169,30 169,30 170,30 170,30 170,30 170,30 170,30 170,30 171,30 171,30 171,30 171,30 171,31 171,31 171,31 171,31 172,31 172,31 172,31 172,31 172,31 172,31 172,32 172,32 172,32 172,32 172,32 172,32 172,32 173,32 173,32 173,32 173,32 173,32 173,32 173,32 173,32 173,32 173,33 173,33 173,33 173,33 173,33 173,33 173,33 173,33 173,33 173,33 173,34 173,34 173,34 173,34 173,34 173,34 173,34 174,34 174,34 174,34 174,34 174,34 175,35 175,35 175,35 175,35 175,35 175,35 175,35 175,35 175,35 175,35 176,35 176,35 176,35 176,35 176,35 176,35 176,35 176,35 176,35 176,35 176,35 176,35 177,35 177,35 177,35 177,35 177,35 177,35 177,35 177,35 177,35 177,35 177,35 177,35 177,36 177,36 177,36 177,36 177,36 177,36 177,36 177,36 177,36 177,36 177,36 177,36 177,36 177,36 177,36 177,36 177,37 177,37 177,37 176,37 176,37 176,37 176,37 176,38 176,38 176,38 176,38 176,38 176,39 175,39 175,39 176,39 176,39 176,39 176,39 176,40 176,40 176,40 177,40 177,41 177,41 177,41 177,41 177,41 177,41 177,41 177,42 178,42 178,42 178,42 178,42 178,42 178,42 178,42 178,42 178,42 179,42 179,41 179,41 179,41 180,41 180,41 181,40 181,40 181,40 182,39 182,39 182,38 183,38 183,38 183,38 183,38 183,38 184,37 184,37 184,37 184,37 184,36 184,36 184,36 185,36 185,36 185,36 185,36 186,36 186,36 186,36 186,36 187,35 187,35 188,35 188,35 188,35 188,35 189,35 190,34 190,34 190,34 190,34 190,34 191,34 191,34 192,34 192,34 192,34 193,34 194,33 195,33 195,33 196,33 196,33 196,33 197,33 197,33 197,33 197,33 198,34 199,34 199,35 199,35 200,36 200,36 200,36 200,36 201,36 201,36 202,36 202,37 202,37 203,37 203,37 204,37 204,37 204,37 205,37 205,37 205,37 205,37 205,37 205,37 206,37 206,37 206,37 206,37 206,37 207,38 207,38 207,38 207,38 207,38 208,38 208,38 208,38 208,38 209,39 209,39 209,39 209,39 209,39 209,39 210,40 210,40 210,40 210,40 210,40 210,40 210,40 210,40 210,41 210,41 211,41 211,41 211,41 211,41 212,41 212,41 212,41 212,42 212,41 212,41 213,41 213,40 213,40 213,40 213,40 214,40 214,40 214,40 214,39 214,39 215,39 215,39 216,38 216,38 217,37 217,37 217,37 217,37 216,36 216,36 215,35 215,35 215,35 215,35 215,35 216,35 217,36 217,36 217,36 218,36 218,36 218,36 219,36 219,36 219,36 219,37 219,37 220,37 220,37 220,36 220,36 220,36 220,36 220,36 220,36 221,36 221,36 221,36 221,36 221,35 221,35 221,35 221,35 221,35 221,35 221,35 221,35 221,35 221,35 221,35 221,35 221,35 221,34 221,34 221,34 220,34 220,34 220,34 220,34 220,34 220,34 219,34 218,34 218,33 218,33 218,33 218,33 218,33 219,33 219,33 220,33 221,33 221,33 221,33 222,33 222,33 222,33 222,33 222,33 222,33 222,33 223,33 223,33 223,32 224,32 224,32 224,32 224,31 225,31 225,31 225,31 225,31 225,31 226,31 226,31 226,30 226,30 227,30 227,30 227,29 227,29 227,29 228,29 228,29 228,29 228,28 228,29 228,29 228,29 228,29 228,29 228,29 228,29 227,29 227,30 227,30 227,30 228,30 228,30 228,30 228,30 228,30 228,30 229,31 229,31 230,31 231,32 231,32 231,32 232,32 232,32 232,32 232,33 233,33 233,33 235,34 235,34 236,34 237,34 237,34 238,34 238,34 239,35 239,35 239,35 240,35 241,36 241,36 241,36 242,36 241,36 241,37 241,37 240,37 240,38 239,38 239,39 238,39 238,39 238,39 238,39 239,40 239,41 239,41 239,41 239,42 239,42 240,42 239,42 239,43 238,43 238,43 237,44 236,45 236,45 236,45 236,45 237,45 238,46 238,46 239,45 239,45 240,44 241,44 242,43 243,42 244,41 244,41 246,41 246,40 246,40 246,40 246,40 247,40 247,39 248,39 248,39 248,39 249,39 248,39 248,39 249,40 250,40 250,40 250,40 250,40 250,40 250,40 250,40 250,40 251,40 251,39 252,39 252,39 252,39 252,39 252,39 252,39 253,39 253,39 253,38 253,38 253,38 254,38 254,38 255,37 255,37 255,37 255,37 256,37 257,37 259,38 259,38 259,37 259,37 260,36 260,36 260,35 260,34 260,34 260,33 260,33 261,32 261,31 261,31 261,31 261,31 263,31 264,31 265,31 265,31 266,31 266,30 266,30 266,29 266,29 266,29 266,28 266,28 266,28 266,28 266,27 266,27 266,27 266,26 266,26 267,26 267,25 267,25 267,25 267,25 267,25 267,25 267,25 267,25 267,25 267,25 267,25 267,25" id="7904" class="canton" fill="steelblue" stroke-width="1" stroke="white" geotype="canton" geoname="Cerizay" code_insee="7904" code_departement="79" nom_departement="Deux-Svres" code_region="75" nom_region="Nouvelle-Aquitaine"/></svg>