<?xml version="1.0" encoding="utf-8"?>
<svg version="1.1" id="svgmap" xmlns="http://www.w3.org/2000/svg" xmlns:xlink="http://www.w3.org/1999/xlink" x="0px" y="0px" width="100%" height="100%" viewBox="0 0 500 392">
<polygon points="336,0 339,14 340,19 341,27 342,32 346,39 346,40 348,42 351,46 355,55 361,62 362,61 365,64 366,66 370,71 373,74 383,92 385,97 386,97 387,99 391,109 397,124 397,124 398,127 402,138 405,144 406,148 406,149 407,152 407,153 408,154 409,157 408,158 409,160 411,162 412,164 415,168 417,171 422,181 426,187 429,192 431,194 431,194 434,198 440,206 442,210 446,215 448,217 449,220 451,223 454,234 455,235 458,240 461,246 461,246 462,247 462,248 463,249 463,250 465,252 466,254 467,255 467,256 468,256 469,257 470,258 471,258 474,259 476,260 477,261 477,261 478,261 480,263 482,265 483,266 483,266 485,268 486,269 488,270 489,270 490,271 491,271 496,273 498,274 500,275 500,276 499,276 499,277 499,278 498,282 496,288 495,290 495,291 494,293 493,296 489,303 487,306 486,307 486,307 486,308 486,309 486,309 486,310 486,311 486,311 485,311 484,313 479,317 475,321 473,322 473,323 472,324 471,324 466,329 464,330 465,330 472,329 473,329 473,330 473,330 473,331 473,331 473,335 473,338 473,338 473,339 473,343 473,343 473,344 472,347 472,351 470,351 469,351 469,351 469,351 469,350 468,350 468,350 468,350 468,350 468,350 467,350 467,350 467,350 467,350 467,350 465,349 464,349 464,349 463,349 461,349 460,349 461,349 461,348 460,348 460,347 460,347 459,347 459,347 458,347 458,347 458,347 458,348 457,348 457,348 457,348 457,348 456,347 454,347 453,346 453,346 454,346 454,345 452,345 452,345 452,345 452,346 452,346 452,346 452,346 452,346 452,346 451,346 450,346 450,346 448,346 448,346 444,345 441,345 441,345 437,344 432,343 430,342 428,342 427,341 426,341 422,340 422,340 422,340 420,339 407,349 406,349 406,349 406,349 406,348 406,348 406,348 406,348 406,348 406,348 406,348 406,348 405,348 405,348 405,348 404,348 404,348 404,348 403,348 403,348 403,348 403,348 403,349 403,349 403,349 402,348 401,348 401,348 400,348 401,347 401,347 400,347 400,347 400,347 400,347 400,347 399,347 393,344 392,344 390,344 386,345 381,347 381,347 379,347 377,343 377,342 377,341 367,340 348,337 322,332 321,332 320,331 319,331 318,331 317,331 312,330 311,331 311,332 309,334 309,335 308,335 308,335 307,336 307,337 306,338 304,340 303,340 302,340 301,339 300,339 300,340 298,341 295,341 293,340 289,340 285,341 279,341 266,341 264,341 262,341 250,348 246,350 242,353 238,354 238,356 237,356 236,357 234,359 233,359 232,359 227,359 225,360 224,360 223,362 222,364 220,365 218,367 217,371 217,373 217,377 216,385 211,385 198,392 196,390 193,388 191,386 189,385 173,375 172,373 171,374 164,369 154,376 153,377 139,368 138,368 119,368 116,368 69,367 68,367 55,357 48,352 48,352 45,352 44,352 39,350 38,349 36,348 37,341 35,338 34,336 34,336 32,333 32,331 27,331 19,323 21,323 22,319 19,319 8,311 0,305 6,300 7,297 22,283 24,279 29,273 33,265 40,253 44,254 51,254 59,252 68,248 77,252 79,249 77,248 78,247 69,244 75,237 88,239 94,240 94,240 103,232 109,227 101,225 101,223 91,214 91,211 94,211 102,209 104,208 107,204 108,203 110,202 112,202 115,203 121,205 132,207 137,207 142,207 155,205 169,204 176,203 183,203 185,203 191,203 198,202 198,201 203,200 207,200 208,200 207,200 203,199 189,195 188,194 168,187 162,187 156,185 156,184 156,184 154,183 153,183 145,180 133,177 132,177 132,176 121,174 121,174 130,162 134,163 140,165 143,162 159,148 167,149 176,151 202,121 205,119 213,114 232,105 250,96 268,84 268,83 266,82 265,81 262,80 261,79 259,79 258,78 256,78 253,76 252,75 249,73 242,69 238,67 260,57 274,51 262,37 262,37 336,0" id="8006" class="canton" fill="steelblue" stroke-width="1" stroke="white" geotype="canton" geoname="Amiens-1" code_insee="8006" code_departement="80" nom_departement="Somme" code_region="32" nom_region="Hauts-de-France"/></svg>