<?xml version="1.0" encoding="utf-8"?>
<svg version="1.1" id="svgmap" xmlns="http://www.w3.org/2000/svg" xmlns:xlink="http://www.w3.org/1999/xlink" x="0px" y="0px" width="100%" height="100%" viewBox="0 0 500 268">
<polygon points="14,62 16,62 16,62 16,63 16,62 17,62 17,63 18,63 18,63 19,63 19,63 19,63 20,62 20,62 21,62 21,62 21,62 21,61 21,61 20,60 19,60 19,60 19,59 19,59 18,57 18,57 17,57 17,56 17,56 17,56 16,55 16,55 16,54 16,53 16,52 16,52 16,51 16,51 17,51 18,51 18,51 18,51 18,51 19,51 19,51 20,50 21,49 23,47 25,45 27,44 29,42 30,42 30,42 30,42 30,42 31,39 32,38 32,38 32,38 32,38 32,38 32,37 32,37 32,36 32,36 33,35 33,33 33,33 33,32 34,32 35,31 38,30 38,29 39,29 40,29 41,28 41,27 42,27 42,27 43,27 45,28 46,28 46,27 46,27 46,27 47,27 47,27 48,27 48,27 48,27 49,27 50,27 50,27 51,26 52,26 52,26 53,26 54,26 55,25 55,26 55,27 55,27 55,28 55,28 54,28 54,29 54,29 54,29 54,29 54,29 55,29 55,29 56,29 56,29 56,29 56,29 59,29 61,30 62,30 62,30 62,30 62,30 62,30 62,31 62,31 61,31 61,32 61,32 61,32 61,33 61,33 61,34 61,34 61,36 61,36 61,36 61,36 61,37 61,38 61,38 60,39 59,39 59,40 59,40 59,40 58,40 58,40 57,40 57,40 56,41 56,42 56,42 56,42 56,42 57,43 57,43 57,43 58,43 58,43 59,43 59,44 59,44 59,44 59,44 60,45 60,45 60,45 60,45 61,46 61,46 62,46 63,47 63,47 64,47 64,47 64,47 64,47 64,50 64,50 65,51 65,51 65,52 66,53 67,53 68,53 68,54 69,55 69,55 69,56 69,56 69,56 71,57 75,57 78,57 81,56 85,55 85,55 85,56 86,56 86,56 87,57 88,57 90,59 91,59 91,59 92,60 93,60 94,61 94,61 94,62 96,60 96,60 96,61 97,61 98,61 101,62 103,65 103,65 104,64 104,64 104,64 105,63 105,63 105,62 106,62 106,61 106,61 107,61 108,60 109,60 109,60 110,59 110,59 110,59 110,58 110,58 110,57 110,57 110,56 110,55 110,54 110,53 111,53 111,53 112,53 112,53 112,52 112,52 113,53 113,52 114,52 114,52 115,52 115,51 116,51 116,50 117,50 118,49 118,49 118,48 117,48 116,48 116,48 115,48 115,48 114,47 113,47 112,46 111,45 110,45 108,44 108,43 107,43 107,43 106,42 106,42 105,42 105,42 106,41 106,41 107,41 107,41 107,41 107,41 107,41 107,41 108,40 108,40 108,40 108,40 108,40 109,40 109,40 110,39 111,39 112,39 112,39 112,39 113,39 114,39 115,39 115,39 117,39 118,39 119,39 121,39 121,39 121,39 121,39 122,39 124,39 125,39 126,39 127,39 127,38 128,38 128,38 128,38 128,37 128,37 129,37 130,37 130,36 130,36 131,35 131,35 131,35 132,35 132,34 132,34 132,34 132,34 133,34 133,33 133,33 133,32 133,32 133,32 133,31 134,31 134,31 134,31 133,30 134,30 134,30 134,30 134,29 134,29 134,28 135,28 135,28 136,28 136,27 137,28 137,27 138,27 138,27 140,26 140,26 140,26 141,25 141,25 142,24 142,24 142,23 143,23 143,23 143,22 143,22 143,22 145,21 145,20 145,20 145,20 145,20 146,20 146,20 146,20 146,19 146,19 146,19 147,19 147,19 147,19 147,19 148,19 148,19 148,19 148,19 148,19 148,19 149,19 149,19 150,19 150,19 150,19 150,19 150,18 151,18 151,18 151,18 151,17 151,17 151,17 151,17 151,17 151,16 152,16 152,16 151,15 151,15 151,15 151,15 152,14 152,14 152,14 152,14 153,14 153,14 154,14 154,14 154,14 155,14 155,14 155,13 155,13 155,13 156,12 156,12 156,12 156,11 157,11 157,11 158,11 158,11 158,10 159,10 159,10 159,10 159,10 159,10 159,10 159,9 159,9 160,9 160,9 160,9 160,9 161,9 161,9 161,8 161,8 161,8 161,8 161,8 162,7 162,7 162,7 162,7 162,6 162,6 161,5 161,5 161,4 161,4 162,4 162,4 162,4 162,3 162,3 161,2 161,2 164,3 164,3 164,3 164,3 164,3 164,3 165,4 165,4 165,4 166,4 166,4 166,4 166,5 166,5 167,6 167,6 167,7 169,8 169,8 169,8 170,9 170,9 171,10 171,10 173,11 173,11 173,11 174,11 174,11 175,12 176,12 177,12 177,13 177,14 177,14 178,14 179,14 182,15 183,15 183,15 183,15 183,15 184,15 184,15 184,16 184,16 184,16 184,16 185,17 185,17 185,18 186,18 186,18 186,18 186,19 186,19 186,19 186,20 187,20 187,21 187,21 187,21 187,22 187,22 188,23 188,23 188,23 188,23 188,24 188,24 188,25 188,26 188,27 189,28 189,29 189,29 189,29 189,30 189,30 189,30 189,30 189,30 190,30 190,30 190,30 191,30 192,30 194,30 194,30 195,30 195,30 196,31 196,31 197,31 197,31 198,31 198,31 199,31 199,31 200,31 200,31 200,31 201,31 201,31 201,31 202,31 202,31 202,31 203,30 203,30 202,30 202,29 202,29 201,29 202,28 201,28 200,28 200,28 201,27 203,27 203,26 204,27 207,28 207,27 208,27 208,26 208,26 209,25 208,25 210,23 210,23 209,23 209,22 211,20 211,20 213,18 214,18 215,17 216,16 216,17 217,17 217,18 217,18 218,19 218,19 220,16 220,16 220,16 220,16 221,15 221,14 221,14 220,12 220,12 220,12 220,11 220,11 220,10 220,9 220,9 220,9 219,7 219,7 219,6 219,6 219,5 220,4 220,4 221,4 222,3 223,2 224,2 224,2 225,1 225,1 226,1 226,0 226,0 229,3 230,4 231,4 231,5 235,7 236,9 236,9 239,11 240,12 241,12 243,13 244,14 247,15 248,15 249,16 250,16 251,16 252,17 253,17 254,18 254,18 254,18 255,18 255,18 254,18 254,18 257,21 259,23 260,23 261,24 263,25 263,25 265,26 268,27 269,27 274,28 276,29 277,29 278,29 279,29 281,29 281,29 285,29 285,29 289,29 292,29 292,29 292,30 293,30 293,30 293,30 294,30 294,31 296,31 296,31 297,32 298,32 298,32 297,32 297,33 297,33 297,33 296,33 296,34 296,34 296,34 296,34 296,34 296,35 296,35 296,35 296,35 296,36 296,36 296,36 296,37 296,37 296,37 296,38 296,38 296,39 297,39 297,39 297,40 298,40 298,40 298,41 299,41 299,41 299,41 299,41 299,41 299,42 298,42 298,42 298,42 298,42 298,42 298,42 298,42 298,42 298,42 298,42 298,42 297,42 297,43 297,43 296,43 296,43 296,43 296,43 296,43 296,44 296,44 296,44 296,44 296,44 296,44 296,44 296,44 296,44 296,44 296,44 295,44 295,45 295,45 295,45 295,45 295,45 295,45 295,46 294,46 294,46 294,46 294,46 294,46 294,46 294,46 294,47 294,47 293,47 293,47 293,47 293,47 293,47 293,48 292,48 292,48 292,48 292,48 291,49 291,49 288,49 289,50 288,50 288,50 287,52 288,52 288,52 288,52 289,52 289,53 289,53 289,53 289,53 289,54 289,54 289,55 289,55 289,56 289,56 289,56 289,57 289,57 289,57 289,57 290,57 289,59 290,59 290,59 290,60 290,60 290,60 290,60 291,63 292,63 292,64 292,64 292,64 292,64 292,64 292,64 292,64 292,65 293,66 293,66 291,67 291,68 291,68 290,68 290,68 290,68 289,68 289,69 289,69 288,69 288,69 288,69 287,69 286,69 286,69 286,69 285,69 285,69 285,70 284,70 284,70 284,70 284,71 284,71 284,71 283,71 283,71 283,71 283,71 283,72 283,72 282,72 282,72 282,72 282,72 282,72 282,72 282,72 280,72 280,72 280,72 279,72 278,72 278,72 278,72 278,72 278,72 277,73 277,73 277,73 276,73 275,73 275,74 275,74 274,74 274,74 274,74 274,77 274,80 274,80 274,80 273,80 272,80 272,80 272,80 272,80 272,81 271,81 271,81 271,81 271,81 271,82 271,82 271,83 271,83 271,84 271,84 271,84 271,84 271,85 271,85 272,86 272,86 272,86 273,86 273,86 273,87 273,87 273,87 275,88 275,89 274,90 274,90 275,90 275,90 275,90 277,91 277,91 277,91 277,91 277,91 278,91 278,92 279,92 280,92 280,92 281,91 281,91 283,92 283,92 284,92 284,92 285,92 286,93 286,93 287,93 288,90 290,91 291,91 291,91 293,89 296,86 300,87 300,87 300,87 300,87 300,87 300,86 300,86 301,85 301,85 302,85 302,86 303,86 304,86 305,86 306,86 307,87 312,86 315,86 315,86 315,86 315,86 315,86 315,86 316,86 316,86 316,86 316,86 317,86 317,86 317,87 317,87 317,87 317,87 317,87 318,87 318,87 318,87 319,87 319,87 319,87 320,87 321,88 322,88 322,88 322,88 322,88 322,88 322,88 324,88 324,88 324,88 325,88 325,88 325,88 326,88 326,88 327,88 327,89 328,89 329,89 329,89 329,89 330,89 330,89 330,89 330,89 330,89 330,89 330,90 330,90 331,90 331,90 331,90 331,90 331,90 331,89 331,89 332,89 332,89 332,89 333,88 333,88 333,88 335,87 334,87 333,86 333,86 333,86 333,85 334,85 334,84 333,84 333,83 333,82 335,82 335,82 340,81 340,81 343,79 344,80 345,79 345,79 346,80 347,80 348,79 348,80 352,77 353,78 354,77 355,77 355,77 355,77 357,78 359,79 360,78 360,78 364,79 365,77 365,76 365,76 365,75 365,75 364,73 364,71 364,71 365,70 368,71 373,71 377,72 383,71 386,70 393,70 398,70 400,69 400,68 400,67 402,65 403,64 406,62 409,59 410,57 411,57 413,57 416,57 419,57 422,55 424,54 425,53 424,51 425,50 426,49 426,48 427,48 429,49 429,49 431,50 431,50 434,52 434,53 434,53 435,53 440,54 440,54 441,54 441,54 441,55 441,55 441,55 441,55 441,56 441,56 441,57 441,57 441,57 440,58 439,58 438,60 437,60 437,61 436,62 434,64 434,64 433,65 433,65 433,66 433,66 433,67 433,68 433,68 433,68 433,68 433,69 434,70 435,71 435,71 436,71 436,72 438,72 438,73 439,73 439,74 441,76 441,76 442,76 442,78 442,78 443,79 443,80 443,82 443,82 444,83 444,84 444,84 444,85 444,86 443,86 443,87 444,87 444,88 444,88 444,89 445,89 445,89 445,89 447,89 447,89 448,89 448,89 448,89 449,88 449,88 449,87 449,87 450,85 450,85 450,85 451,84 452,84 453,83 456,82 458,82 460,81 461,81 461,80 462,80 466,81 467,81 468,81 468,81 468,81 470,80 470,80 472,79 474,78 476,78 476,78 476,78 478,78 478,78 479,78 480,78 481,78 483,79 483,79 486,80 486,80 487,81 488,81 488,82 488,82 489,82 489,84 489,84 489,85 489,86 489,86 489,87 490,88 490,88 490,88 490,88 490,88 492,89 491,90 490,91 490,91 489,91 489,91 489,92 489,92 489,92 488,92 488,93 487,93 487,93 487,94 486,95 485,97 485,97 482,99 482,99 480,99 480,99 479,99 478,99 476,100 472,101 472,101 471,101 470,101 470,101 469,101 469,102 469,102 468,102 468,102 468,102 468,103 467,103 466,103 466,103 466,104 465,104 465,104 465,105 465,105 465,106 465,106 464,107 463,109 462,112 461,112 461,112 461,113 460,113 460,113 459,114 459,114 459,115 459,115 459,116 459,116 458,117 458,117 460,117 460,117 460,117 460,117 461,118 461,118 461,118 461,118 461,118 464,117 468,120 470,122 472,123 474,124 475,125 475,125 476,126 476,126 476,126 477,126 478,126 478,125 479,125 479,126 480,125 483,127 483,127 485,128 486,128 487,129 488,129 490,130 491,131 491,131 493,131 495,132 495,132 496,132 496,132 497,133 498,133 498,133 498,133 499,133 499,133 500,136 500,136 499,137 499,137 497,138 496,138 496,138 495,139 495,139 494,140 493,141 492,143 491,143 489,146 489,146 489,146 488,147 486,147 485,147 483,147 482,147 480,147 476,146 476,146 475,148 474,152 473,152 469,150 467,150 465,150 465,151 465,152 465,153 465,154 464,154 464,155 464,155 464,156 464,156 464,157 464,157 465,158 465,158 465,158 466,159 466,159 466,159 466,159 466,159 466,159 466,159 466,159 466,160 467,160 467,160 467,160 467,160 467,160 467,160 467,161 467,161 467,161 467,161 467,162 468,162 468,162 468,162 468,162 468,163 468,163 468,163 468,163 468,164 469,164 469,165 469,165 470,167 470,167 471,168 471,168 471,169 471,169 470,169 469,170 469,170 467,172 466,172 463,175 463,175 462,176 461,176 462,177 461,178 461,178 461,178 460,179 455,183 455,183 450,182 450,182 449,181 448,182 447,182 447,182 447,182 447,182 447,182 447,183 447,183 447,183 447,183 447,183 447,183 447,183 448,183 448,183 448,183 448,184 448,184 448,184 448,184 448,184 448,184 448,184 449,184 449,184 449,184 449,184 449,184 449,184 449,184 449,184 450,184 450,184 450,184 450,185 450,185 450,185 450,185 450,185 450,185 450,185 450,185 450,186 450,186 450,186 450,186 450,186 450,186 450,186 450,187 450,187 450,187 450,187 449,187 449,187 450,188 450,188 450,188 450,188 450,188 450,189 450,189 450,190 450,190 451,191 452,191 442,193 442,192 441,192 440,192 439,191 437,190 436,188 436,188 434,186 434,186 432,184 432,184 430,185 428,186 427,186 427,186 427,186 427,185 427,185 427,185 427,185 428,185 428,185 427,185 428,184 428,184 428,184 428,184 428,184 427,184 427,184 428,184 428,184 428,184 428,184 427,183 427,183 427,183 427,183 427,183 427,183 427,183 427,182 427,182 427,182 427,182 426,182 426,182 427,182 426,181 427,181 427,181 427,181 427,181 427,181 427,181 427,181 427,181 427,181 427,181 427,180 427,180 428,180 428,180 428,180 428,180 427,180 427,180 427,180 427,179 427,179 427,179 427,179 427,179 427,179 427,179 427,179 427,179 427,178 427,178 427,178 427,178 427,178 426,178 426,178 426,178 427,178 427,178 427,178 427,178 426,178 426,178 426,178 426,178 426,178 426,178 426,178 426,178 426,177 426,177 426,177 426,177 426,177 426,177 426,177 426,177 426,177 426,177 426,177 425,177 426,176 426,176 426,176 426,176 426,176 425,176 425,176 425,176 425,176 425,176 424,176 424,176 422,177 422,177 421,176 421,176 420,176 420,176 420,176 419,176 419,176 419,176 418,177 417,177 416,177 414,178 413,177 412,178 412,178 411,179 410,180 410,180 410,180 409,180 407,179 404,177 401,175 400,174 399,174 399,174 399,174 399,174 399,174 398,173 397,173 396,173 396,173 395,172 395,172 394,172 393,172 393,172 391,173 391,173 390,173 390,173 388,174 387,175 387,175 387,175 387,175 387,175 386,175 386,174 386,174 386,174 385,174 385,174 385,174 384,174 384,174 383,174 383,173 382,173 382,174 381,176 381,176 381,175 381,175 380,173 380,173 380,173 380,173 380,173 380,172 380,172 380,172 380,172 380,172 380,172 379,172 379,172 379,172 378,172 377,172 377,172 377,172 377,172 377,172 377,172 377,171 377,171 377,171 377,171 377,171 377,171 377,171 377,171 377,171 377,171 377,171 377,171 377,171 377,171 377,170 377,170 377,170 377,171 376,171 375,173 374,173 374,174 373,174 373,174 373,174 372,175 372,175 372,175 372,176 372,176 372,176 372,177 372,177 372,178 372,178 372,178 372,179 372,179 372,179 371,179 371,179 371,179 371,179 370,179 370,179 370,179 369,179 369,179 368,179 367,179 366,179 366,179 366,179 365,180 364,180 364,180 364,180 363,180 362,180 362,180 362,180 362,180 362,180 362,181 361,182 361,182 361,182 361,182 361,182 361,182 361,182 361,182 360,183 360,183 359,183 359,182 359,182 359,182 358,183 358,183 358,183 358,183 357,183 357,184 357,184 357,184 356,185 356,185 356,185 357,186 359,187 359,188 360,189 362,191 360,191 356,194 355,194 355,194 354,194 354,195 353,195 352,196 351,196 347,198 347,198 347,198 346,197 347,197 347,197 347,197 347,197 347,197 346,197 346,196 346,196 346,196 346,196 346,196 345,196 345,196 345,196 345,196 345,196 345,196 345,195 344,195 344,195 344,196 344,196 344,196 344,195 344,195 344,195 344,195 344,195 344,195 344,195 344,194 343,194 343,194 341,190 338,189 332,191 332,191 330,189 329,189 328,188 326,188 326,187 324,186 324,185 323,184 323,184 322,183 322,183 318,185 315,186 313,186 313,187 311,188 311,188 311,189 310,190 310,190 309,191 308,192 308,192 307,193 307,193 306,194 306,194 307,195 306,197 305,196 303,199 303,199 303,199 303,199 302,200 302,200 302,200 302,201 302,202 303,202 303,203 303,203 304,205 304,205 304,206 305,206 306,207 306,207 305,207 297,209 297,209 294,209 294,209 292,210 289,210 289,210 289,210 288,211 288,212 287,212 287,212 285,214 284,212 283,212 283,211 282,210 281,209 281,209 280,208 278,206 275,208 274,208 273,209 271,210 271,210 270,211 268,213 268,213 267,213 267,213 266,213 265,213 264,213 263,214 262,215 262,215 261,216 261,216 261,216 263,217 264,218 264,218 264,219 264,219 264,219 264,219 264,220 264,220 263,219 263,219 263,219 263,220 263,220 263,220 263,220 263,220 262,220 262,220 262,220 262,220 261,220 261,220 261,220 260,220 260,220 260,220 260,220 260,220 259,220 259,220 259,220 259,220 258,220 258,220 258,220 258,220 258,220 258,220 257,219 257,219 257,219 257,219 257,219 257,219 257,219 257,218 257,218 257,218 257,218 256,218 256,218 256,218 256,218 256,218 256,218 256,218 256,218 255,218 255,218 255,217 255,217 255,217 255,217 255,217 255,217 255,217 255,217 254,217 254,217 254,217 254,217 254,216 254,217 254,217 254,217 254,216 254,216 254,216 254,216 253,216 253,217 253,217 252,217 252,217 252,218 251,218 251,218 251,219 251,219 251,220 251,220 250,220 250,220 250,221 250,221 250,221 250,221 250,221 250,221 250,221 250,221 250,222 250,222 250,222 250,222 250,223 249,223 249,223 248,223 248,223 247,223 247,223 247,224 246,224 246,224 246,224 246,224 245,225 245,225 245,225 245,225 245,226 244,226 244,226 244,226 244,226 243,226 243,226 243,225 242,224 242,224 241,224 241,224 239,222 238,220 237,221 236,221 231,222 230,223 229,223 228,223 228,223 227,223 226,223 226,227 226,227 226,227 225,227 225,227 225,227 224,227 224,227 223,227 222,228 222,228 222,228 221,228 221,228 221,228 221,228 220,228 220,228 220,228 220,228 219,228 219,228 219,228 219,228 219,228 219,228 218,229 218,229 218,229 217,230 217,231 216,233 215,232 214,231 215,225 214,224 213,221 212,220 212,218 211,216 211,215 209,213 209,211 207,210 205,209 203,208 203,208 202,210 202,211 202,212 202,213 203,214 202,215 199,216 198,218 198,218 198,219 199,220 199,221 200,222 200,223 200,223 201,224 203,226 204,228 204,229 204,230 198,231 192,231 191,231 190,231 188,232 185,226 184,223 185,220 181,219 176,218 174,218 173,217 173,217 172,217 172,217 171,217 169,217 169,217 167,217 167,217 164,215 164,215 162,215 162,214 161,214 160,215 159,216 158,217 156,218 158,220 158,220 160,222 159,225 159,227 159,230 159,232 158,235 158,237 157,239 158,243 160,246 160,247 160,247 160,250 162,251 160,253 158,255 156,256 155,257 153,259 149,264 146,263 145,262 143,262 141,262 139,262 137,262 136,262 134,262 130,260 127,259 126,260 124,261 123,262 123,263 121,264 120,265 120,266 117,268 117,268 115,267 112,266 112,266 110,265 110,264 108,263 107,263 105,260 103,260 102,259 101,258 100,257 98,255 98,254 97,254 97,253 96,253 94,251 92,251 89,251 81,246 74,244 70,243 70,243 69,243 69,243 68,242 66,242 65,242 60,240 60,240 63,238 63,238 63,239 64,239 69,234 69,234 71,235 71,235 72,235 72,235 72,235 72,234 72,233 72,233 72,232 72,232 72,231 72,231 72,230 72,230 72,229 73,229 73,229 73,229 73,228 74,228 74,228 74,227 75,227 75,227 75,227 75,226 76,226 76,226 76,226 76,225 76,225 76,225 76,225 77,225 77,225 77,225 77,225 77,224 77,224 77,224 77,224 77,224 77,224 78,223 78,223 78,223 78,223 77,223 77,223 77,223 77,223 77,222 77,222 77,222 77,222 77,222 76,222 76,222 76,221 76,221 76,221 76,221 76,220 75,220 75,220 75,219 75,219 75,219 75,219 74,219 74,218 75,218 75,217 75,216 74,216 74,215 74,215 74,215 74,215 74,215 74,214 74,214 75,214 75,213 76,213 75,213 75,213 75,213 75,213 74,212 74,212 75,212 75,212 75,212 76,212 76,212 76,212 76,212 76,211 76,210 76,210 76,210 76,210 77,210 78,210 78,210 79,210 79,209 79,209 79,208 80,207 80,207 80,206 80,206 81,206 81,206 80,206 80,206 81,201 81,201 82,201 82,200 80,199 80,199 78,201 78,201 78,201 75,201 75,201 70,199 70,199 70,199 73,197 73,197 73,197 73,197 73,197 74,197 74,197 74,197 74,195 73,192 73,192 72,191 72,190 72,190 72,190 71,189 71,189 70,188 70,188 70,187 69,186 68,186 68,186 67,185 67,185 65,184 66,184 66,184 66,184 67,184 68,183 69,183 70,182 71,182 71,182 72,181 72,181 73,181 73,181 74,180 74,180 74,180 73,179 73,179 72,178 71,178 70,177 70,177 69,175 69,174 69,174 69,173 68,172 67,171 67,170 67,170 68,169 68,169 69,168 69,168 70,167 71,165 72,163 73,162 74,162 74,161 73,160 72,159 72,159 70,159 68,159 68,159 67,159 67,158 66,158 66,158 65,157 65,157 66,154 67,153 69,149 69,148 70,148 71,147 72,147 72,147 72,147 72,147 72,147 72,146 73,146 73,145 73,145 73,145 73,145 73,145 74,145 74,145 75,145 75,144 75,144 75,143 74,142 74,142 74,142 74,141 74,141 74,141 74,141 74,140 73,140 70,139 67,136 67,136 64,135 64,136 63,135 62,135 61,133 60,133 60,134 60,134 59,134 59,134 59,134 59,134 59,134 59,134 58,135 58,135 57,135 57,135 57,135 56,135 56,135 55,136 55,136 54,136 54,136 54,136 53,136 52,136 52,136 51,136 51,136 51,136 51,136 50,136 50,136 50,135 50,135 49,135 48,135 48,135 48,135 47,135 47,135 47,135 47,135 47,135 47,135 46,135 46,136 46,136 46,136 45,136 45,136 45,136 45,136 45,137 45,137 44,137 44,137 44,138 43,138 43,138 43,138 43,138 42,138 41,139 40,137 40,136 39,135 37,135 36,135 31,134 31,134 31,134 31,134 31,135 31,135 31,135 31,135 31,135 31,135 30,136 30,136 30,136 29,136 29,136 29,136 29,136 29,136 29,136 28,136 28,136 28,136 28,136 27,136 27,136 27,136 27,136 26,136 26,136 25,136 25,135 24,135 23,135 23,134 22,134 21,133 19,133 18,132 18,132 16,132 15,133 15,134 13,134 11,134 10,135 8,135 8,135 8,135 7,135 6,134 6,134 5,134 5,134 5,134 5,134 5,133 5,133 4,133 4,133 4,133 3,133 3,133 3,132 1,132 0,131 0,131 0,131 1,131 1,131 2,131 2,131 3,131 4,131 4,131 5,131 5,131 6,131 7,130 8,129 9,129 9,129 10,128 10,128 10,128 10,128 10,128 10,128 10,127 10,127 10,127 10,127 10,126 10,126 10,126 9,126 9,125 9,125 9,125 8,125 8,125 8,124 8,124 8,124 8,124 8,124 9,123 10,122 13,121 13,121 22,122 22,122 22,119 22,119 22,119 22,119 22,119 22,118 22,118 22,118 22,117 22,117 22,117 22,116 23,114 24,114 25,114 26,114 27,115 29,115 29,115 31,115 33,115 34,115 34,115 35,115 35,115 36,115 36,115 36,115 37,114 38,114 38,114 38,114 39,112 39,111 40,110 40,110 40,109 40,108 41,107 41,107 40,106 40,106 40,106 40,105 39,105 39,104 39,104 40,104 40,104 40,103 40,103 40,103 39,103 39,102 39,102 39,102 39,101 39,101 38,101 38,101 38,101 38,100 38,100 38,99 38,98 38,97 39,97 39,96 39,96 39,93 39,92 39,92 39,91 40,89 41,88 41,87 41,84 40,83 38,82 38,82 38,82 37,82 36,81 36,82 35,81 35,80 34,79 34,79 33,77 33,77 33,77 33,76 32,76 33,76 31,75 32,75 31,74 31,73 31,73 30,74 29,74 27,76 26,77 25,77 25,77 22,78 21,78 21,78 20,78 20,78 19,77 19,77 19,76 19,76 20,76 19,75 19,75 19,74 19,73 18,72 18,72 18,72 18,71 18,71 17,71 18,69 18,68 17,68 17,67 16,66 16,65 16,65 15,64 14,62" id="8119" class="canton" fill="steelblue" stroke-width="1" stroke="white" geotype="canton" geoname="Pastel" code_insee="8119" code_departement="81" nom_departement="Tarn" code_region="76" nom_region="Occitanie"/></svg>