<?xml version="1.0" encoding="utf-8"?>
<svg version="1.1" id="svgmap" xmlns="http://www.w3.org/2000/svg" xmlns:xlink="http://www.w3.org/1999/xlink" x="0px" y="0px" width="100%" height="100%" viewBox="0 0 500 388">
<polygon points="17,57 18,57 20,56 23,55 25,55 25,55 25,54 26,53 26,53 25,53 25,53 25,53 24,53 22,53 21,53 21,53 20,53 20,53 20,52 20,52 20,52 20,52 20,51 21,51 21,51 22,51 22,50 22,50 23,49 23,49 23,49 23,49 24,49 24,48 24,48 24,48 24,48 24,48 25,47 25,47 25,47 25,47 26,47 26,46 27,46 27,46 28,46 28,46 28,45 29,45 29,45 29,45 30,45 30,45 30,45 30,45 31,45 33,44 33,44 35,44 35,44 36,44 36,44 36,43 37,43 38,43 39,43 40,43 41,42 42,42 42,42 43,41 43,41 43,41 43,40 44,40 44,40 45,40 45,40 45,39 45,39 46,39 46,39 47,39 47,39 48,38 48,38 48,38 48,38 48,38 49,39 50,39 51,40 51,40 52,41 53,41 55,42 55,42 55,42 57,44 60,48 61,50 61,51 62,51 62,51 61,52 62,53 62,53 63,54 65,56 65,56 65,56 66,56 67,56 68,57 68,57 69,58 70,58 71,59 72,59 73,58 75,58 76,58 76,58 77,58 78,59 78,59 79,59 79,60 80,61 86,62 87,62 87,63 88,64 88,64 89,66 89,66 90,66 90,67 90,67 91,66 91,66 94,65 94,64 95,64 97,64 98,64 100,64 103,66 106,67 107,67 111,68 112,68 112,67 114,65 114,65 114,64 114,63 114,62 113,62 113,62 112,61 113,61 113,61 113,60 113,60 112,60 114,59 115,59 117,59 117,59 117,59 118,58 120,53 121,52 121,52 122,52 123,51 123,51 123,51 124,51 126,51 126,51 128,50 128,50 129,50 129,50 130,50 132,51 133,51 133,51 134,51 135,52 135,52 139,54 140,54 140,54 141,54 141,54 142,54 143,54 143,54 144,54 144,54 146,55 147,55 147,55 148,55 151,56 152,56 152,56 153,56 153,56 154,56 156,57 158,57 159,57 159,57 160,57 161,56 162,56 162,55 162,50 163,46 163,43 163,43 166,37 166,37 168,29 169,27 169,18 169,18 171,18 172,18 174,18 174,18 175,18 176,18 177,19 178,19 179,19 179,19 180,19 180,19 181,19 183,19 184,18 186,19 187,19 190,19 191,19 193,20 194,20 198,20 199,20 201,20 202,20 202,20 203,19 203,19 204,20 205,20 207,19 208,19 209,19 210,19 210,18 212,16 212,15 213,15 215,16 215,16 216,16 216,16 216,16 217,16 218,16 221,16 221,16 222,16 222,16 223,16 224,17 224,17 225,17 225,17 226,17 226,17 226,17 227,17 227,18 227,18 228,19 228,19 228,20 228,20 228,20 228,21 229,21 229,22 230,22 231,22 234,23 235,23 237,24 237,24 238,25 239,25 240,26 241,26 241,26 241,26 244,24 244,24 244,24 246,23 248,23 250,24 252,24 253,24 253,24 253,24 253,24 253,24 253,23 254,23 254,22 255,22 256,22 256,21 257,20 257,20 258,20 258,19 258,19 259,19 260,18 261,17 261,17 260,16 260,16 261,16 261,16 262,16 262,17 263,18 265,19 265,19 265,19 265,19 264,20 264,20 264,20 264,21 264,21 264,22 264,22 264,22 264,22 264,22 265,23 266,23 268,23 269,24 269,24 269,24 268,25 268,25 268,25 268,26 269,26 270,27 271,28 271,29 272,29 272,29 275,30 275,30 275,30 276,29 276,29 276,28 277,27 278,27 278,27 278,27 280,27 281,28 284,29 285,29 286,29 286,29 288,28 289,28 289,28 290,27 290,27 290,26 290,26 291,26 291,26 291,26 291,25 291,24 291,24 292,24 292,23 292,23 292,23 292,23 293,23 293,23 293,23 293,22 293,22 293,22 293,22 294,23 294,23 294,23 294,24 294,24 295,24 295,25 295,25 295,26 298,26 298,26 298,27 298,27 299,28 300,29 300,29 300,28 300,27 300,26 300,26 301,26 301,25 302,24 302,25 302,25 302,25 302,26 302,26 303,27 304,28 304,29 304,29 305,30 305,31 305,31 305,31 305,33 305,33 305,34 305,35 305,35 305,36 305,37 305,37 304,38 304,38 304,39 304,40 304,41 304,42 304,42 304,43 304,43 304,44 305,44 305,45 304,45 305,45 305,45 305,45 306,45 307,44 308,44 308,44 309,43 310,43 310,43 310,43 309,42 309,42 308,42 308,42 308,42 307,43 307,43 307,43 307,43 306,43 306,42 307,42 307,42 307,41 308,41 308,41 309,41 310,40 310,40 311,40 311,41 312,41 313,40 313,40 314,40 315,40 315,40 316,40 316,40 317,40 318,40 318,39 319,39 319,39 319,39 318,39 318,38 318,38 317,39 317,39 316,38 316,38 315,37 315,37 315,37 315,36 314,36 313,36 313,36 313,35 313,35 312,34 312,34 311,33 311,33 312,33 312,33 312,33 313,33 314,33 315,33 316,33 317,34 317,34 318,33 319,33 319,33 319,33 320,32 320,31 320,31 321,31 321,31 322,31 322,31 322,31 322,31 322,31 323,30 323,30 323,30 322,29 322,29 323,29 323,28 323,28 324,28 324,28 326,28 327,28 327,28 328,29 328,29 328,29 329,28 329,28 329,28 329,27 329,27 329,27 330,27 330,27 331,27 332,27 333,27 333,27 334,27 334,27 334,27 334,27 334,26 334,26 333,26 333,26 333,26 332,26 332,26 332,25 332,25 332,25 332,25 332,25 333,25 333,24 334,25 335,25 336,25 336,25 338,25 338,25 338,25 338,25 339,25 339,25 340,25 341,25 341,25 343,25 343,25 344,25 344,25 345,25 345,25 346,25 347,25 347,25 347,25 347,25 348,24 348,24 347,24 347,23 347,23 348,22 348,22 348,21 348,21 346,20 346,20 346,20 346,20 347,20 348,19 349,20 349,20 350,20 350,19 350,19 350,19 351,18 351,17 351,17 352,17 352,16 352,16 351,16 351,15 350,15 349,15 349,15 349,15 349,14 349,14 351,13 351,13 351,13 352,13 352,12 351,11 351,11 352,11 352,11 354,11 355,11 355,11 355,11 355,10 355,9 355,9 355,8 355,7 355,7 355,6 354,5 354,5 354,5 354,4 354,4 355,4 355,3 355,3 355,3 355,3 355,3 355,2 355,2 356,2 356,2 355,1 355,0 355,0 355,0 355,0 355,0 356,0 356,0 356,1 357,1 358,1 360,2 362,2 363,2 363,2 365,2 365,2 366,2 366,2 367,2 367,3 367,3 368,3 369,2 369,2 370,1 370,1 370,1 373,1 373,2 374,2 374,2 375,2 375,2 375,2 376,2 376,2 377,2 378,2 378,2 379,2 380,2 381,1 381,1 381,2 382,2 383,3 383,3 383,3 384,4 384,4 385,4 386,4 386,4 388,4 388,5 388,5 389,5 389,6 390,6 390,6 389,7 389,7 388,7 388,7 388,8 389,8 389,8 389,8 389,9 389,9 389,9 389,10 389,10 389,11 389,11 389,11 389,11 389,12 389,12 390,15 391,16 391,16 392,17 393,17 394,17 395,18 395,18 395,19 396,19 396,19 397,20 398,20 402,21 402,22 403,22 403,23 403,23 403,23 403,23 403,23 404,23 404,24 404,24 404,24 404,25 404,25 405,26 405,26 405,26 404,27 404,27 403,28 402,28 402,28 402,28 403,28 403,28 405,28 405,28 406,28 407,28 409,27 410,27 411,27 411,27 411,27 413,28 414,28 414,28 414,28 414,28 414,29 414,29 412,29 408,29 407,30 405,29 404,30 404,30 404,30 403,31 403,31 404,31 406,32 406,32 407,33 408,33 408,33 408,33 407,34 404,34 403,34 400,33 400,33 399,33 398,33 398,33 398,34 397,34 397,35 397,35 397,35 397,35 396,36 396,35 396,35 395,35 394,34 394,34 394,34 393,34 393,34 392,33 392,33 391,33 391,33 391,33 391,33 391,33 390,33 391,33 390,33 389,34 389,34 389,34 388,34 388,35 388,35 388,35 388,35 386,36 386,36 386,36 385,35 385,35 385,35 384,34 384,34 384,33 384,33 383,33 383,33 382,32 381,32 378,30 378,31 377,32 377,32 376,35 375,36 375,36 374,39 374,39 373,40 373,42 373,44 373,44 372,45 371,46 371,46 371,47 371,47 370,48 369,50 369,50 369,51 368,51 368,51 364,53 363,53 362,54 362,54 361,55 361,55 361,55 361,56 357,59 357,59 357,59 357,58 357,58 357,58 356,57 356,57 356,57 355,57 354,57 354,57 353,57 353,57 353,57 353,57 353,59 354,60 353,60 353,60 353,60 352,60 351,61 350,61 349,61 349,61 348,61 348,62 347,62 347,62 353,65 353,65 353,65 354,65 355,65 355,65 355,65 356,66 357,66 357,66 358,67 360,67 361,68 362,68 362,69 363,69 365,69 366,70 366,70 367,70 368,71 368,71 368,72 369,72 370,73 371,74 372,74 373,74 373,75 374,76 376,76 377,77 378,78 378,79 378,79 380,80 380,81 381,81 381,82 381,83 381,83 381,84 381,85 381,85 382,86 382,86 384,86 385,87 386,88 386,88 386,88 387,89 387,89 386,89 387,91 387,91 387,91 387,92 388,93 387,93 387,93 387,94 386,94 385,97 386,98 386,99 387,101 388,102 388,103 389,103 391,105 392,106 392,106 393,106 394,107 394,107 397,108 399,108 401,108 402,107 402,107 404,106 405,106 408,106 411,106 414,106 419,106 420,106 420,106 421,106 423,105 423,105 424,104 425,103 427,101 428,101 428,101 430,100 430,100 431,100 432,99 433,99 433,99 434,99 435,99 436,99 436,99 438,99 438,99 439,99 441,98 443,98 445,98 446,98 449,99 449,99 451,99 452,99 452,99 452,99 453,99 453,99 455,101 455,101 455,101 456,101 457,101 456,102 456,102 456,103 456,103 456,103 456,103 457,103 457,103 457,103 457,103 457,104 458,104 459,104 457,106 457,106 459,106 460,106 461,106 461,106 463,107 466,109 467,110 467,110 468,110 470,110 471,110 472,110 475,111 475,111 478,111 480,111 480,111 481,111 482,111 483,111 483,111 484,111 485,110 485,110 486,110 486,109 487,108 487,108 488,107 489,107 490,107 491,106 491,105 493,107 493,108 493,108 493,109 493,110 494,111 494,111 495,112 496,112 497,112 498,115 499,115 499,115 499,116 499,116 499,116 498,116 497,117 497,117 497,117 497,118 497,118 497,118 497,119 497,119 498,119 498,120 498,120 499,120 499,121 499,121 499,121 499,121 499,121 499,121 499,122 498,123 498,123 498,124 499,124 499,124 499,124 499,125 500,125 500,127 500,127 499,127 499,128 498,128 499,129 499,129 498,129 498,129 498,129 498,130 497,130 497,130 497,130 496,130 495,131 495,131 494,131 493,131 492,131 492,131 491,132 491,132 491,132 491,132 491,132 491,133 491,133 491,133 489,134 489,134 489,134 489,135 488,136 488,136 488,137 487,136 487,136 487,136 487,135 487,135 486,135 486,134 486,134 485,134 477,132 477,132 475,131 475,131 475,131 474,131 465,126 462,125 462,125 461,125 459,125 455,125 451,125 451,125 450,125 448,125 448,125 443,123 441,123 441,123 441,123 441,123 440,123 440,123 440,123 438,123 438,123 438,123 438,123 437,124 434,124 434,124 434,125 432,125 431,125 431,126 429,126 429,127 428,127 428,127 428,128 427,128 427,128 425,130 424,130 424,130 423,130 422,131 420,132 420,132 419,132 419,132 419,133 418,133 418,133 418,133 418,134 418,134 418,134 418,134 418,134 417,135 417,135 418,135 418,135 418,135 418,135 418,135 417,135 417,136 417,136 416,135 416,135 416,135 415,135 414,136 413,136 411,137 411,137 410,138 409,138 409,138 408,138 408,139 407,139 407,139 406,139 405,140 404,140 403,141 402,142 401,143 401,143 401,143 401,143 401,144 401,144 400,144 400,144 396,145 394,146 393,146 393,146 393,146 392,146 392,146 391,146 391,146 390,146 390,146 389,145 389,145 389,145 389,145 389,145 389,144 388,144 388,144 387,144 387,144 387,144 386,144 386,144 386,144 385,144 385,144 385,144 384,143 383,143 383,143 383,143 382,143 382,143 381,142 381,142 381,142 380,142 379,141 378,141 378,141 378,142 379,142 379,142 379,142 379,142 378,142 378,143 378,143 377,143 377,143 377,143 377,143 376,143 376,143 375,144 375,144 373,144 371,143 369,142 364,143 362,143 361,142 359,142 357,142 356,142 353,142 353,142 353,142 353,142 352,142 351,142 349,143 348,143 344,146 344,146 343,146 342,147 341,148 340,149 340,150 339,151 338,152 337,152 336,152 335,152 333,152 332,152 331,152 325,153 324,153 322,154 321,154 320,154 318,155 317,155 315,156 314,157 313,157 310,157 309,157 309,157 307,157 300,156 300,155 298,154 296,153 296,153 295,153 295,152 295,152 294,152 292,151 289,150 289,149 288,149 288,148 288,148 288,148 287,148 287,146 286,146 286,145 285,145 284,145 284,145 282,144 281,143 280,143 280,143 279,143 278,143 278,143 274,143 272,144 270,144 269,144 269,145 268,145 268,145 267,146 267,146 266,146 264,145 263,145 262,145 261,145 260,146 257,146 256,146 256,146 255,146 256,148 257,149 257,149 258,151 260,152 260,153 261,153 261,153 262,154 262,154 262,155 262,155 261,155 261,156 260,156 260,157 260,157 260,157 260,157 260,158 259,158 259,158 259,158 258,158 258,158 257,158 257,159 257,159 257,158 256,158 256,158 256,158 256,159 256,159 255,159 255,159 255,159 255,159 254,159 254,159 254,159 254,160 254,160 253,161 253,161 253,162 253,163 253,163 253,164 253,164 254,164 253,164 253,164 253,164 253,165 253,165 253,165 253,165 253,165 253,165 253,165 253,165 253,165 253,165 252,165 252,166 253,166 253,166 252,166 252,166 252,167 253,167 253,167 253,167 253,167 253,167 253,167 252,168 252,168 252,168 253,168 253,168 253,168 253,169 253,169 252,170 252,170 252,170 252,170 251,171 251,171 251,171 251,171 251,172 251,172 250,172 250,173 250,173 250,173 249,173 249,174 249,174 249,175 249,175 249,175 249,175 249,176 249,176 249,176 248,177 248,177 248,178 249,178 249,179 249,179 249,179 250,180 250,180 249,180 249,181 249,181 247,181 247,182 246,182 245,182 245,182 244,182 244,183 244,183 243,183 243,183 242,183 242,184 242,185 241,185 240,186 240,186 239,187 239,187 238,187 238,187 237,187 237,188 236,188 236,189 236,189 235,189 235,190 235,190 234,191 234,191 234,191 234,191 234,191 235,191 235,191 235,192 235,192 235,192 235,192 235,192 234,193 234,193 234,193 234,193 234,194 234,194 234,194 234,195 234,195 234,195 233,195 233,196 233,196 233,197 234,198 235,204 236,207 236,209 236,210 239,215 239,215 240,216 240,216 241,216 251,221 252,221 253,222 256,222 259,222 257,224 256,224 255,225 255,226 254,226 254,226 254,226 254,227 254,227 255,227 255,228 255,228 255,228 254,228 254,228 254,228 254,229 254,229 254,230 254,230 254,230 253,231 253,232 255,233 256,234 258,235 261,236 262,237 269,235 270,235 277,233 278,232 281,230 282,229 284,229 286,229 288,230 290,231 294,232 296,233 297,233 297,234 292,241 288,258 288,258 289,259 288,263 286,267 286,267 286,267 286,268 286,269 285,271 284,274 284,275 284,276 283,277 283,278 282,279 282,282 281,283 281,283 281,283 281,283 281,283 281,284 281,284 281,285 280,288 279,289 279,291 278,291 278,292 278,293 278,294 278,295 278,296 279,298 279,299 280,301 280,301 280,301 280,301 280,302 280,302 280,303 280,304 280,304 279,306 278,307 278,307 277,309 276,310 276,310 275,311 274,311 272,311 271,311 271,311 270,311 269,311 266,309 263,307 261,306 259,303 258,303 257,302 257,302 255,302 254,301 252,301 250,301 250,301 249,302 249,302 249,302 249,302 250,302 251,303 254,304 258,307 258,307 259,307 259,308 260,309 261,309 261,310 261,310 261,310 262,311 263,311 263,311 263,312 263,312 263,312 262,313 261,314 261,314 261,314 260,314 260,315 258,315 257,316 257,316 256,318 256,319 255,319 252,322 249,324 249,324 249,324 249,325 251,327 251,328 252,328 252,328 251,329 251,330 250,331 249,331 248,331 247,332 245,332 245,332 244,333 242,334 241,334 240,335 237,335 237,335 235,336 232,336 225,337 225,337 225,337 224,337 219,338 219,338 214,340 214,341 211,342 211,342 207,344 205,345 204,345 203,347 203,347 203,347 201,350 201,350 201,350 192,353 192,353 185,354 184,355 181,358 176,360 174,361 171,361 167,362 165,362 164,362 163,362 161,362 158,362 156,362 155,362 149,361 149,361 150,362 150,364 150,365 147,366 137,370 134,372 130,375 128,376 125,377 124,378 123,378 121,378 118,378 115,378 111,378 109,378 105,378 104,378 103,378 101,379 100,380 99,380 98,381 96,382 96,382 95,383 95,384 93,385 93,385 92,386 91,386 90,387 89,387 87,388 87,388 87,387 88,387 88,385 89,385 91,383 91,382 91,382 91,381 91,380 92,379 92,378 93,377 94,376 94,375 94,374 94,372 94,371 94,371 93,370 92,369 92,369 92,368 92,368 92,368 92,368 92,367 92,366 92,366 91,365 92,365 92,364 92,364 92,363 91,363 91,363 91,362 92,362 92,361 93,361 93,361 93,359 93,359 93,359 93,358 93,358 93,358 92,357 92,357 92,356 92,355 92,355 92,354 92,353 92,352 92,351 92,350 92,350 92,349 92,348 92,347 91,347 91,346 92,345 91,345 91,345 91,345 90,344 90,344 90,344 89,343 89,342 89,342 89,342 90,341 91,341 91,341 91,340 91,339 90,338 90,338 91,337 91,336 91,336 91,335 91,334 91,333 91,333 90,332 90,332 89,331 89,331 88,330 88,330 87,330 87,329 87,329 87,328 87,327 87,327 87,326 87,326 87,325 87,325 87,325 88,324 89,323 89,323 89,322 89,322 88,321 87,321 86,320 87,319 87,319 87,318 87,317 87,317 87,317 87,316 85,316 84,315 84,315 83,315 83,315 82,314 82,314 82,314 81,314 81,313 81,313 82,312 82,311 82,311 82,310 82,309 82,307 82,306 81,306 81,305 81,305 82,304 82,304 82,302 82,301 82,300 82,300 83,300 84,300 84,299 84,298 83,297 83,296 83,296 83,296 84,294 84,294 84,293 84,293 84,292 83,292 83,291 83,290 83,290 83,289 84,289 84,289 84,289 86,289 86,289 87,288 87,288 88,287 88,287 89,287 89,286 89,286 90,286 90,285 91,285 91,285 92,285 93,285 94,285 94,285 94,284 94,284 94,283 95,283 96,282 96,282 97,282 97,281 98,281 98,281 98,281 100,281 100,280 100,280 101,278 102,278 102,277 103,277 103,276 103,276 103,276 103,276 103,275 104,275 104,275 104,275 105,274 105,274 105,274 105,273 105,273 105,273 106,273 106,273 107,272 108,272 108,271 108,271 108,270 109,270 109,270 110,269 111,269 111,269 112,269 113,269 113,269 113,268 114,268 115,267 115,267 114,267 114,266 114,266 114,265 114,265 114,265 114,264 114,264 114,263 114,263 114,263 114,263 114,262 114,262 114,262 113,261 113,261 113,259 113,259 113,259 113,258 112,258 112,258 112,257 112,257 112,257 113,256 113,256 113,255 113,255 113,255 113,254 113,254 113,254 113,254 111,252 109,251 109,251 106,250 104,249 104,249 104,248 105,247 106,246 107,244 107,244 108,243 108,243 108,242 108,242 108,241 108,241 109,240 109,240 107,239 105,238 105,238 104,238 103,237 100,235 97,234 97,234 101,229 101,228 102,227 103,224 106,217 104,217 99,219 99,219 95,219 91,220 91,220 89,221 88,221 87,221 87,221 86,221 86,220 86,220 86,219 86,217 85,216 82,215 77,210 74,208 70,206 69,206 68,205 68,204 69,199 70,195 71,193 72,192 74,190 75,189 75,188 74,187 72,186 69,184 67,182 64,182 59,182 55,180 55,180 55,179 55,179 55,179 56,178 56,178 57,177 57,177 60,175 61,174 61,174 61,173 61,173 62,172 66,170 67,167 67,163 67,162 64,149 64,146 64,145 64,142 64,142 63,140 63,135 63,134 62,133 61,133 60,132 59,132 59,131 58,130 58,130 57,129 56,127 54,124 54,124 54,124 54,123 54,122 54,121 54,120 54,119 53,117 53,116 53,113 52,113 51,111 50,110 48,108 47,106 44,102 44,101 43,99 41,98 40,97 39,96 39,96 39,96 39,96 38,97 38,97 38,97 36,96 36,96 34,97 34,97 23,90 21,89 20,88 19,88 19,87 0,76 0,76 0,76 1,73 1,73 5,70 8,69 8,68 9,68 10,67 11,66 13,64 13,64 13,64 14,60 14,59 14,59 15,59 17,57" id="8116" class="canton" fill="steelblue" stroke-width="1" stroke="white" geotype="canton" geoname="Mazamet-1" code_insee="8116" code_departement="81" nom_departement="Tarn" code_region="76" nom_region="Occitanie"/></svg>