<?xml version="1.0" encoding="utf-8"?>
<svg version="1.1" id="svgmap" xmlns="http://www.w3.org/2000/svg" xmlns:xlink="http://www.w3.org/1999/xlink" x="0px" y="0px" width="100%" height="100%" viewBox="0 0 500 269">
<polygon points="23,91 23,91 25,89 25,89 25,89 25,89 25,88 25,88 26,88 26,88 26,87 26,87 26,87 26,87 26,87 26,87 26,87 26,86 26,86 27,86 27,86 27,86 28,86 28,86 29,86 30,86 30,86 31,86 32,86 32,86 32,86 34,85 34,85 35,85 35,85 35,85 35,85 38,84 41,85 41,85 42,84 43,84 43,84 44,85 44,83 44,83 44,83 44,84 45,84 45,84 46,84 46,84 46,84 47,84 48,83 50,81 52,79 52,79 52,80 53,80 53,80 53,80 54,80 54,80 54,80 55,81 55,81 55,81 55,81 56,81 57,81 57,81 58,82 58,82 58,82 58,82 59,82 60,83 60,83 60,82 60,82 60,81 60,81 60,81 60,80 61,81 61,81 62,81 62,81 63,81 63,81 64,81 65,81 65,83 64,83 64,84 66,84 66,84 68,83 68,83 69,83 69,83 69,83 69,83 70,84 71,84 72,84 72,84 73,83 73,83 74,83 75,83 75,83 75,83 75,83 75,82 75,82 75,81 75,81 74,81 74,80 74,80 74,80 74,79 74,79 74,79 74,78 75,78 75,78 75,78 75,77 75,77 75,77 75,77 75,76 75,76 75,76 76,76 76,76 76,76 76,76 76,76 76,77 77,77 77,77 77,77 78,78 79,78 79,78 79,78 79,78 80,79 80,79 80,79 80,79 80,79 81,79 82,79 82,79 82,79 82,79 83,79 83,79 84,79 85,80 85,80 85,80 85,81 86,80 86,81 86,81 87,80 89,79 89,79 89,79 89,79 89,78 90,78 91,78 91,78 91,78 91,78 91,78 91,77 91,77 91,77 91,77 92,76 92,76 92,76 92,75 93,75 93,75 93,75 94,74 95,74 95,74 95,74 95,74 95,74 95,74 96,74 96,75 96,75 96,76 97,76 97,76 97,76 97,76 98,76 98,76 98,76 98,77 98,77 99,77 99,77 99,77 99,77 100,78 100,78 100,78 100,79 101,79 101,79 101,79 100,80 100,80 101,81 101,81 101,81 101,81 101,82 102,82 102,82 103,82 103,82 104,83 104,83 105,83 106,83 106,83 107,83 107,83 107,84 107,84 107,84 108,84 108,84 109,85 109,85 109,85 109,85 109,85 110,85 110,85 110,85 110,85 111,86 112,86 112,86 113,86 114,86 114,86 114,86 115,87 115,87 115,87 115,87 116,87 116,88 116,89 116,89 116,89 118,89 118,89 119,88 120,88 120,88 120,88 121,88 122,88 123,88 123,88 124,88 124,88 124,88 125,89 126,89 126,89 128,89 128,88 128,88 128,89 128,89 128,89 128,89 128,89 128,90 128,90 128,91 128,91 127,92 127,92 127,92 127,93 127,93 127,94 127,94 126,94 126,94 126,94 126,94 125,94 125,94 125,94 125,94 125,94 125,94 125,94 125,94 124,93 124,93 123,93 122,93 122,93 121,93 121,94 120,94 119,95 119,95 117,95 117,96 116,96 116,96 116,96 116,97 116,98 116,98 116,98 116,99 116,99 115,99 115,99 116,99 116,100 117,100 117,100 117,101 118,102 118,102 118,102 118,102 117,102 117,102 117,102 117,102 117,102 116,103 116,103 115,103 114,104 114,105 114,105 114,105 114,105 114,105 114,105 114,105 115,106 115,106 115,106 115,106 116,107 116,107 116,107 116,108 116,108 116,108 116,108 116,109 116,109 116,109 116,109 116,109 116,110 116,110 116,110 117,110 117,111 117,111 117,111 117,111 117,111 117,112 117,112 117,112 117,113 117,113 117,113 117,114 117,114 117,114 118,114 118,115 118,115 118,115 118,115 119,116 119,116 119,116 119,116 119,116 119,116 119,116 120,117 120,117 120,117 121,117 121,118 122,118 122,118 123,119 123,119 123,119 124,119 125,120 126,120 126,120 126,120 126,121 126,121 127,121 127,121 127,121 127,121 128,121 128,121 129,121 129,122 129,122 130,122 130,122 129,122 129,122 130,122 130,122 130,123 130,123 129,123 129,124 129,124 129,124 129,124 128,125 128,125 127,126 127,126 127,126 127,126 127,126 127,126 127,126 127,126 128,127 128,127 128,127 128,127 128,127 129,127 129,127 129,127 129,128 129,128 129,128 129,128 129,128 129,128 129,128 129,128 130,129 130,129 130,129 131,129 131,130 131,130 131,130 131,130 131,130 131,130 131,130 132,130 132,130 132,130 133,131 133,131 133,131 134,131 134,131 135,131 135,132 136,133 136,133 136,133 136,133 137,134 138,135 138,135 138,135 138,135 139,135 139,135 139,135 140,135 140,135 141,135 141,135 141,135 141,134 141,134 141,134 142,134 142,134 142,134 142,134 142,134 143,134 143,134 143,133 144,134 145,134 146,134 146,134 146,134 146,134 147,134 147,134 148,133 148,133 148,133 149,133 149,133 149,133 149,133 149,133 150,133 150,133 150,133 150,133 150,133 151,133 151,133 150,132 150,132 150,132 150,132 149,131 149,131 149,130 149,130 149,130 149,129 148,129 148,129 148,128 148,128 148,128 148,128 149,127 149,127 150,126 150,126 151,126 152,126 152,125 152,125 152,125 152,125 152,125 152,125 152,124 152,124 153,124 153,124 153,123 153,123 153,123 153,123 153,122 153,122 153,122 153,122 153,122 153,121 153,121 153,121 153,121 153,121 153,121 153,120 153,120 153,120 153,120 153,120 153,120 153,120 153,120 153,119 153,119 153,119 153,119 153,119 153,119 153,119 154,118 154,118 154,118 154,118 154,118 154,117 154,117 154,117 154,117 154,117 154,117 154,116 154,116 154,116 154,117 154,117 155,117 155,117 155,117 155,117 155,117 156,118 156,118 156,118 156,118 156,118 156,118 156,118 156,118 156,118 156,118 156,118 156,118 156,118 156,119 156,119 156,119 157,119 157,119 157,119 157,119 157,119 158,119 158,119 159,120 159,120 159,120 160,120 160,120 160,120 160,120 161,120 161,120 161,120 162,120 162,120 162,120 162,120 162,120 162,120 162,120 162,120 163,120 163,120 163,120 163,120 164,120 164,120 164,120 164,121 165,121 165,121 165,121 165,121 165,121 165,121 165,121 165,121 165,121 165,122 165,122 165,122 165,122 165,122 166,122 166,122 165,123 166,123 166,123 166,123 166,123 166,123 166,123 166,124 166,124 166,124 166,124 166,124 166,124 166,124 167,124 167,124 167,125 167,125 167,125 168,125 168,125 168,125 169,125 169,125 169,125 169,125 170,125 170,125 170,125 171,125 171,125 172,125 172,124 174,124 173,123 175,120 176,120 176,120 175,119 175,119 175,119 175,119 174,119 174,119 174,118 174,118 173,118 173,118 173,118 173,117 173,117 173,117 173,117 173,117 172,117 173,117 172,116 172,116 172,116 172,116 172,116 172,116 172,115 172,115 172,115 172,115 172,115 171,115 171,114 171,114 171,113 171,113 171,113 171,113 171,113 171,113 171,113 171,113 171,112 171,112 171,112 171,112 171,112 170,112 170,111 171,111 171,111 171,111 171,111 171,111 172,111 172,111 172,111 173,111 173,111 173,111 173,111 173,111 172,111 172,110 172,110 171,110 171,110 171,110 171,110 171,110 171,109 171,109 171,109 171,109 172,109 172,109 172,109 172,109 172,109 171,109 171,109 171,108 171,108 171,108 171,108 171,108 170,107 170,107 169,106 168,106 168,106 168,106 168,106 168,105 168,105 168,105 168,105 167,105 167,105 167,105 167,105 167,105 166,104 166,104 166,104 167,104 167,104 167,104 167,104 168,104 168,104 168,104 168,103 169,103 169,103 169,103 169,103 169,103 170,102 171,102 171,102 171,102 171,102 171,102 171,102 171,102 170,102 170,102 170,102 170,101 171,101 171,101 171,101 171,101 171,101 171,101 172,101 172,101 172,101 172,101 172,101 172,100 173,100 173,100 173,100 173,100 173,99 173,99 174,99 174,99 174,100 174,100 174,100 175,100 175,100 175,100 175,99 176,99 176,99 176,99 177,99 177,99 177,99 177,99 177,98 177,98 177,98 177,98 177,98 177,98 177,98 177,97 177,97 177,97 178,97 178,97 178,97 178,97 178,97 179,97 179,97 179,97 179,97 179,97 179,97 179,97 179,97 179,97 179,97 179,97 180,97 180,97 180,97 180,97 180,97 180,97 180,96 180,96 180,96 180,96 180,96 180,96 181,96 181,96 181,96 181,96 181,96 181,95 181,95 182,95 182,95 182,95 182,95 182,95 182,95 182,95 183,95 183,95 183,95 184,95 185,95 185,95 185,95 185,95 185,95 185,95 186,95 186,95 186,95 186,95 186,95 186,95 187,95 187,95 187,95 187,95 187,95 187,95 187,95 187,95 187,95 188,95 189,95 189,95 189,95 190,95 190,95 190,95 190,95 190,94 191,94 191,94 191,94 191,94 191,93 191,93 191,93 191,93 191,93 191,93 191,93 191,92 191,92 191,92 191,92 191,92 190,91 190,91 190,91 190,91 190,91 190,91 191,90 191,90 191,90 191,90 191,90 191,90 191,90 191,89 191,89 191,89 191,89 192,89 192,89 191,89 191,89 192,89 192,89 192,89 192,89 192,89 192,89 192,89 192,88 192,88 192,88 192,87 192,87 192,87 192,87 193,87 193,86 193,86 193,86 193,86 193,86 192,86 192,85 192,85 192,85 193,85 193,85 193,85 193,84 193,84 193,84 193,84 194,83 194,83 194,83 194,83 194,83 194,83 194,83 195,82 195,82 195,81 195,81 196,81 196,81 196,81 196,81 197,80 197,80 197,80 197,80 197,80 197,80 197,80 198,79 198,79 199,79 199,79 199,79 199,79 199,78 199,78 200,78 200,78 200,78 200,78 200,78 201,78 200,78 200,78 200,77 199,77 199,77 199,77 199,77 198,77 196,78 194,79 191,77 191,76 191,76 191,76 191,76 191,76 191,75 190,75 190,75 189,73 189,73 189,73 188,73 188,73 187,71 187,71 186,71 186,71 185,70 185,70 185,70 185,70 184,70 184,69 183,69 183,69 183,69 183,68 183,68 183,68 183,68 184,67 184,67 185,67 185,67 185,66 185,66 184,66 184,66 185,64 187,63 187,63 186,62 186,62 185,61 185,61 185,61 185,61 184,60 184,60 184,60 183,59 183,58 182,58 182,57 182,57 182,56 182,56 181,56 181,55 181,55 181,55 181,55 181,54 181,54 181,54 181,54 181,53 181,53 182,52 182,52 182,52 182,51 182,51 182,51 182,51 181,50 180,50 179,50 179,50 179,50 179,50 180,49 180,48 180,48 180,48 181,48 181,48 181,48 182,47 182,47 182,46 182,46 182,46 183,45 182,44 182,44 182,44 182,44 182,44 182,44 181,43 181,43 181,43 181,43 181,43 181,43 181,43 181,42 181,42 181,42 181,42 181,42 182,42 182,42 182,42 182,42 182,42 182,42 182,42 182,42 182,42 183,42 183,42 183,42 183,42 184,42 184,42 184,42 184,41 184,41 184,41 184,41 185,41 185,40 185,40 185,40 186,40 186,40 186,40 186,40 187,40 187,40 187,40 187,40 187,40 187,40 187,40 187,40 188,40 188,40 188,40 188,40 188,40 189,40 189,40 189,40 189,40 190,40 190,40 190,40 190,40 190,40 190,40 191,40 191,40 191,40 192,40 192,40 192,40 193,40 193,40 193,40 193,40 193,40 193,40 193,40 193,40 193,40 194,40 194,40 194,40 195,40 195,40 195,40 195,40 196,40 196,40 196,40 196,40 196,40 196,40 196,40 196,40 196,40 196,40 197,41 197,41 197,41 197,41 197,41 197,41 198,41 198,41 198,41 198,41 198,41 198,41 199,41 199,41 199,41 199,41 199,41 199,41 200,41 200,41 200,41 200,41 200,41 200,41 201,41 201,41 201,41 201,41 201,41 201,41 202,41 202,41 202,41 202,41 202,41 202,41 202,41 202,41 202,41 203,41 203,41 203,41 204,42 204,42 204,42 204,42 204,42 204,41 205,41 205,40 205,39 205,39 205,39 205,39 206,39 207,38 207,38 207,38 208,38 208,38 208,37 208,37 208,37 207,37 207,36 207,36 207,36 207,36 207,36 207,36 206,36 206,36 206,36 206,36 206,35 206,35 206,35 206,35 206,35 206,35 205,35 205,35 205,35 205,34 205,34 205,34 205,34 204,34 204,34 204,34 204,34 204,34 204,34 204,34 203,34 203,33 203,33 203,33 202,33 202,33 202,33 202,33 202,33 202,33 201,33 201,33 201,33 201,33 201,33 201,33 201,33 201,33 200,33 200,33 200,33 200,33 200,33 200,33 199,33 199,33 199,33 199,32 199,32 199,32 199,32 199,32 199,32 199,32 199,31 198,31 198,31 198,31 198,30 198,30 198,30 198,30 198,30 198,30 197,30 197,29 197,29 197,29 197,29 197,29 197,29 197,28 197,28 197,28 197,28 196,28 196,28 196,27 196,27 196,27 196,27 196,27 196,27 195,27 195,27 195,27 195,26 197,26 199,25 200,25 200,25 201,25 202,24 203,24 204,24 205,24 206,24 206,23 207,22 208,22 208,21 209,20 209,20 210,18 210,18 210,18 211,17 211,17 211,17 211,17 211,17 211,17 211,17 211,17 212,17 212,17 212,16 212,16 212,16 212,15 213,15 213,15 213,15 213,15 213,15 213,14 213,14 213,14 213,14 214,13 214,13 214,13 216,12 217,11 217,11 218,11 218,11 219,11 219,11 219,11 219,11 220,11 220,11 220,11 220,12 220,12 220,12 220,13 220,13 220,13 220,14 220,14 219,14 219,14 218,15 217,15 217,15 217,15 217,16 217,16 217,16 217,17 217,18 217,18 217,19 218,20 218,20 218,20 218,21 218,21 219,22 219,23 219,24 219,24 219,25 220,25 220,25 220,25 221,25 221,25 221,25 221,25 222,25 222,25 223,25 223,25 224,24 224,24 224,23 224,23 225,22 225,21 225,20 225,19 225,18 225,18 225,18 225,17 226,17 226,16 226,16 227,16 227,15 228,15 228,15 229,15 230,14 231,14 232,14 232,14 233,14 233,14 234,14 234,14 235,15 235,15 235,15 236,14 236,14 236,14 237,14 237,14 238,14 238,14 238,14 238,14 239,14 239,14 239,15 239,15 239,15 239,16 239,16 238,16 238,17 237,17 237,17 237,17 236,18 236,18 236,19 236,19 236,19 235,20 234,21 234,21 234,22 233,22 233,22 233,23 234,23 234,24 234,24 235,24 235,24 236,24 237,25 237,25 237,25 238,24 238,24 239,24 240,24 240,24 241,24 243,23 245,23 247,23 249,23 252,23 254,24 258,24 260,24 263,24 264,24 264,24 266,24 270,24 273,25 274,25 275,25 277,25 278,25 279,24 281,22 284,20 286,19 288,17 290,16 291,15 295,15 300,14 304,14 306,13 307,13 308,12 308,12 308,10 308,9 307,8 306,6 305,3 305,2 306,1 306,0 308,0 309,0 310,0 310,1 311,1 311,1 312,2 313,3 315,4 315,5 316,6 316,7 315,8 315,8 314,9 312,10 311,11 310,11 310,12 309,13 309,14 309,14 310,15 311,15 312,15 313,15 314,15 317,13 319,13 321,12 322,12 324,12 325,12 326,13 327,13 328,14 328,15 328,16 327,17 326,18 325,19 324,19 323,20 323,21 323,23 324,23 324,24 325,24 326,24 327,24 328,24 330,23 331,22 332,21 333,20 334,17 335,15 336,14 336,12 336,11 337,9 338,8 340,7 341,7 342,6 344,6 345,6 346,7 346,7 347,7 347,8 347,9 347,9 348,9 349,10 350,10 351,10 352,10 353,9 354,8 355,8 356,5 357,4 357,4 358,4 359,3 360,3 360,4 361,4 361,4 362,5 362,6 363,6 364,7 366,8 366,8 369,8 371,8 373,7 373,7 375,7 377,8 382,10 383,10 385,11 387,11 390,12 392,12 393,12 395,13 397,13 399,13 399,14 400,14 402,15 405,16 406,16 407,17 410,17 413,16 416,15 418,15 420,14 422,14 422,13 423,12 423,13 424,13 425,13 425,13 426,13 427,13 427,13 428,12 428,12 429,11 429,10 429,10 430,10 430,9 431,9 431,9 432,10 432,10 432,11 431,12 431,12 431,13 432,14 432,14 432,15 432,15 432,15 433,15 433,15 435,15 436,14 437,14 437,14 437,14 439,15 440,15 441,16 441,16 441,16 441,17 441,17 441,17 442,17 442,18 444,18 444,18 445,18 446,18 447,18 447,18 448,18 449,19 449,20 450,20 450,20 451,20 451,20 453,20 454,21 455,20 455,21 456,21 457,22 458,23 458,23 458,23 459,23 460,23 460,24 460,25 460,25 459,26 458,27 458,27 457,28 457,28 457,29 457,29 458,29 458,30 458,30 458,30 458,31 459,31 459,31 460,32 460,32 461,31 462,31 463,30 464,29 465,29 466,28 467,27 467,27 468,27 468,27 469,28 469,28 468,28 468,29 467,29 467,30 466,30 466,30 466,31 466,31 466,32 466,32 466,32 467,33 467,32 468,32 469,32 469,32 469,31 470,31 471,31 472,31 473,31 474,31 474,31 475,31 475,31 475,32 475,32 475,32 474,32 474,33 473,33 472,33 471,33 471,33 471,34 471,34 473,34 474,35 475,35 475,35 476,35 476,35 476,36 477,37 477,37 478,38 478,38 477,39 477,40 477,41 476,41 476,42 475,43 475,44 475,44 474,46 474,46 474,47 474,48 474,48 474,49 474,50 472,53 472,54 472,54 472,54 472,54 473,55 473,55 472,55 472,55 473,56 473,56 473,56 472,56 472,56 472,56 472,56 472,57 472,57 472,57 472,58 472,58 472,58 472,59 472,59 472,60 472,60 472,60 472,61 473,62 473,62 472,62 472,62 472,62 472,62 473,63 476,65 477,66 479,67 480,67 480,67 481,68 482,68 484,68 485,69 488,70 489,70 491,71 491,71 493,71 493,72 494,72 496,72 497,73 497,73 498,73 498,74 499,74 499,74 499,74 500,75 500,75 500,75 500,76 500,76 500,76 500,77 500,77 500,77 500,78 500,78 500,79 499,79 499,79 499,80 499,80 499,80 499,81 499,81 498,81 498,81 498,81 497,81 497,82 496,82 496,82 495,83 495,83 494,83 494,83 494,83 493,84 493,84 492,84 492,84 492,84 491,84 491,84 491,84 490,84 490,84 489,85 488,85 486,86 486,86 486,86 486,86 485,86 485,86 485,87 484,88 484,88 484,89 484,90 485,90 484,90 484,90 484,91 484,91 484,91 484,92 484,92 485,93 485,94 485,94 485,95 486,96 486,96 486,96 486,97 486,98 486,100 486,100 485,102 485,102 485,102 485,102 484,103 484,104 484,105 484,105 484,105 484,105 484,106 484,106 484,106 483,106 482,106 482,106 482,106 481,106 481,106 481,106 480,106 480,106 480,106 479,106 479,106 479,106 479,106 479,106 478,106 478,106 478,106 477,106 477,106 477,106 477,106 476,106 476,106 476,106 476,106 475,106 475,106 475,105 475,105 475,105 474,105 474,105 473,106 472,106 472,106 472,106 472,106 471,106 471,106 470,106 470,106 470,106 470,106 469,106 469,106 468,106 468,106 468,106 467,106 467,106 467,106 467,106 467,106 466,106 466,106 465,106 465,106 465,106 465,106 465,106 465,106 465,106 465,106 465,106 464,106 464,106 463,106 463,106 463,106 463,107 463,107 463,107 462,107 462,107 462,107 461,107 461,107 461,107 461,107 461,107 460,107 460,107 460,107 460,107 460,107 460,107 459,107 459,107 458,106 458,106 457,106 457,106 457,106 457,106 457,106 457,106 457,106 456,106 456,106 456,106 456,106 456,106 456,106 455,106 455,106 455,106 455,107 455,107 455,107 455,107 454,107 454,107 454,107 454,107 454,107 454,107 454,107 454,108 453,108 453,108 453,108 453,108 453,108 453,108 453,108 453,109 453,109 452,109 452,109 452,109 452,109 452,109 452,109 452,109 453,109 452,109 452,110 452,110 452,110 452,110 452,110 452,110 452,110 452,110 452,111 452,111 452,111 452,111 451,111 451,111 451,111 451,111 451,111 451,111 451,111 451,111 450,111 450,111 450,111 450,111 450,111 450,111 449,112 449,112 449,112 448,112 448,112 448,112 448,112 447,112 447,112 447,112 447,112 447,112 447,112 447,112 447,112 446,112 446,112 446,112 446,112 446,112 446,113 446,113 446,113 446,113 445,113 445,113 445,113 445,113 445,113 445,113 445,113 445,113 445,113 444,113 444,113 444,113 444,113 444,113 444,113 444,113 443,113 443,113 443,113 443,113 443,113 443,114 443,114 443,114 442,114 442,114 442,114 442,114 442,114 442,114 442,114 441,115 441,115 441,115 441,115 441,115 440,115 440,115 440,115 440,115 440,115 440,115 440,115 440,115 440,115 440,115 440,116 439,116 439,116 439,116 439,116 439,116 439,116 439,116 438,116 438,116 438,116 437,116 437,116 437,116 437,116 436,116 436,116 436,116 436,117 436,117 436,117 436,117 435,117 435,117 435,117 435,117 435,117 435,117 435,118 435,118 435,118 434,118 434,118 434,118 434,118 433,118 433,118 433,118 433,118 434,118 434,118 434,118 434,118 433,119 433,119 433,119 433,119 433,118 433,118 433,118 432,118 432,118 432,119 432,119 432,119 432,119 432,119 432,119 432,119 432,119 432,119 432,119 432,120 432,120 432,120 432,120 432,120 432,120 432,120 431,120 431,120 431,120 430,120 430,120 430,120 430,120 430,120 429,120 429,120 429,120 428,120 428,120 428,120 428,120 427,120 427,120 427,120 427,120 427,120 427,120 427,120 427,120 427,120 427,120 427,120 426,120 426,120 426,121 425,121 425,121 425,121 425,121 425,121 425,121 424,121 424,121 424,121 424,121 424,121 423,121 423,121 423,121 423,120 423,121 422,121 422,121 422,121 422,121 422,121 421,121 421,121 421,121 421,121 421,121 420,121 420,121 420,121 420,121 420,121 420,121 419,121 419,121 419,121 419,121 419,121 419,121 420,122 421,123 421,123 422,124 421,124 422,124 422,124 422,124 422,125 422,125 422,125 421,125 421,126 421,126 421,126 421,126 421,126 421,127 421,127 421,127 421,127 421,128 421,128 420,128 420,128 420,128 420,128 419,128 421,130 421,130 422,131 422,131 423,131 424,132 424,132 425,132 425,132 425,132 425,132 425,132 424,132 424,132 424,133 424,133 424,133 424,133 424,134 424,134 424,134 423,134 423,134 423,134 423,134 423,134 423,134 423,134 423,135 423,135 423,135 423,135 423,135 422,135 422,135 422,135 422,135 422,135 422,135 421,135 421,135 421,136 421,136 420,136 420,136 420,136 420,136 420,137 420,137 420,137 420,138 420,138 420,138 420,138 420,138 420,138 420,138 419,138 420,138 420,138 420,138 420,138 420,139 419,139 419,139 419,139 419,139 419,139 419,139 419,139 419,139 419,139 418,140 418,140 418,140 418,140 418,140 418,140 418,141 418,141 418,141 417,141 417,141 417,141 417,141 416,141 416,141 416,141 416,141 416,141 415,141 415,142 415,142 415,142 415,142 415,142 415,141 415,141 414,141 414,141 414,141 414,142 414,142 413,142 413,142 413,142 413,142 413,142 413,142 413,142 413,142 412,143 412,143 412,143 412,143 411,142 411,142 411,143 411,143 410,143 410,143 410,143 409,143 409,143 409,144 409,144 409,144 409,144 408,143 408,143 408,143 408,143 408,143 408,143 407,143 407,143 408,145 408,145 408,146 408,146 408,148 407,149 407,151 407,151 407,151 407,152 407,152 407,152 407,152 408,153 408,153 408,153 408,154 408,154 409,155 409,155 409,155 409,155 409,155 409,156 409,156 409,156 410,156 410,156 410,156 411,156 411,156 411,157 411,157 410,157 410,157 410,157 410,157 410,157 410,157 409,157 409,157 409,157 409,157 409,157 409,157 408,157 408,157 408,157 408,158 408,158 408,158 408,158 408,158 408,158 408,158 408,158 407,158 407,159 407,159 407,159 407,159 407,159 407,159 406,159 406,159 406,159 406,159 406,160 406,160 406,160 406,160 406,160 406,160 406,160 406,161 406,161 406,161 406,161 406,161 407,162 407,162 407,162 407,162 407,162 408,162 408,162 408,162 408,162 409,162 409,162 409,162 409,162 409,162 409,163 409,163 409,163 409,163 409,164 409,164 409,164 409,164 410,164 410,165 410,165 410,165 410,165 410,165 410,166 410,166 411,166 411,166 411,166 411,167 411,167 411,167 411,167 411,167 411,167 411,168 411,168 411,168 411,168 411,168 411,168 411,168 411,169 411,169 411,169 411,169 411,169 412,169 412,170 412,170 412,170 412,170 412,170 411,171 411,171 411,171 410,171 410,171 410,171 410,172 409,172 409,172 409,172 406,175 406,175 406,175 406,175 406,175 406,175 405,175 405,175 405,175 405,175 405,175 405,175 405,175 405,175 405,175 405,175 405,175 405,175 405,175 404,175 404,175 404,175 404,175 404,175 403,175 403,175 403,175 403,175 403,175 403,175 403,175 403,175 403,175 403,175 403,175 403,175 403,175 403,175 403,176 403,176 403,176 403,176 403,176 403,176 403,176 403,176 403,176 403,176 403,177 403,177 402,177 402,177 402,177 403,177 402,177 402,177 403,177 403,178 403,178 403,178 403,178 403,178 403,178 403,179 403,179 403,179 403,179 403,179 403,179 403,179 403,179 404,180 404,180 404,180 404,180 404,180 404,180 404,180 404,180 405,180 405,180 405,181 406,181 406,181 406,181 406,181 406,182 405,182 405,182 405,182 404,182 404,182 404,182 404,181 403,181 403,181 403,181 403,181 403,181 402,181 402,181 401,180 400,180 400,180 400,180 400,180 399,179 399,179 399,179 398,179 398,178 397,178 396,178 395,177 394,176 394,176 394,176 394,176 394,176 393,175 391,174 391,174 390,174 390,174 389,174 385,173 385,173 385,173 384,173 384,172 384,172 384,172 384,171 383,171 383,171 383,171 383,170 382,169 382,169 381,169 381,168 380,168 380,168 380,168 379,168 379,168 379,168 379,168 378,168 378,168 378,168 378,168 378,168 378,168 377,168 377,168 377,168 377,168 376,168 376,168 375,168 375,168 373,167 373,167 372,167 372,167 372,167 371,167 371,166 370,166 370,166 369,166 369,166 368,166 368,166 368,166 368,165 366,165 366,165 365,162 364,162 364,161 364,161 361,162 361,162 360,163 360,163 360,163 360,163 360,164 360,164 360,164 360,164 360,164 360,164 360,165 360,165 359,165 359,165 359,165 359,165 359,165 359,165 359,165 359,165 359,166 359,166 359,166 359,166 359,166 359,166 359,166 359,166 359,166 359,167 359,167 359,167 359,167 358,167 358,167 358,167 358,167 358,167 358,167 358,167 358,168 358,168 358,168 358,168 357,168 357,168 357,168 358,169 358,169 358,169 357,169 357,169 357,169 357,169 356,169 356,169 356,169 356,169 356,169 356,169 356,169 355,170 355,170 355,170 355,170 355,171 355,171 355,171 355,171 355,171 355,171 355,171 355,171 355,171 355,172 355,172 355,172 355,172 355,172 355,173 355,173 355,173 355,173 355,173 355,173 355,173 356,173 356,173 355,174 355,174 355,174 355,174 355,174 355,174 355,174 355,174 355,174 355,174 355,174 355,174 354,174 354,174 354,174 354,174 354,174 354,174 354,174 353,174 353,174 353,174 353,174 353,174 353,174 353,174 353,174 353,174 352,174 352,174 352,174 352,174 352,174 352,173 352,173 352,173 352,173 351,173 351,173 351,173 351,173 351,173 351,173 351,173 351,173 351,173 351,173 350,173 350,173 350,173 350,173 350,173 350,173 350,173 350,173 350,173 349,173 349,173 349,173 349,173 348,173 348,173 348,173 348,173 347,173 347,173 347,173 346,173 346,173 346,173 346,173 346,173 346,173 346,173 345,173 345,174 345,174 345,174 345,174 344,174 344,174 344,174 344,174 343,174 343,174 343,174 343,175 343,175 343,175 343,175 343,175 342,175 342,175 342,175 342,175 342,175 342,175 342,175 342,175 342,175 342,175 341,175 341,175 341,174 341,174 341,174 341,174 341,174 341,174 340,174 340,173 340,173 340,173 339,173 339,173 339,173 339,172 339,172 339,172 339,172 339,172 339,171 338,171 338,171 338,171 338,171 338,170 338,170 338,170 337,170 337,170 337,170 337,170 337,170 337,170 337,170 337,170 337,170 336,170 336,170 336,170 336,170 336,171 336,171 336,171 335,171 335,171 335,171 335,171 335,171 334,171 334,171 334,171 333,170 333,170 332,170 332,170 332,170 332,170 332,170 332,170 332,170 332,170 331,170 331,169 331,169 331,169 331,169 331,168 330,168 330,168 330,168 330,168 330,168 329,168 329,168 329,168 329,168 328,169 328,169 328,169 328,170 328,170 328,171 328,171 327,172 327,172 327,172 327,172 327,173 327,173 327,173 327,173 327,174 325,174 325,175 324,176 324,176 322,178 321,179 318,181 318,181 317,181 317,181 317,182 316,182 316,182 316,182 315,182 315,183 314,183 314,183 314,183 314,183 314,183 314,183 314,183 314,183 314,184 314,184 314,184 315,185 315,185 315,185 315,185 315,185 315,185 315,185 316,185 316,185 317,185 317,185 317,185 317,185 318,185 318,185 318,185 318,185 318,185 318,184 319,185 319,185 319,185 319,185 319,185 319,185 319,185 319,185 319,186 320,186 320,186 320,186 320,186 320,186 321,186 321,186 321,186 321,186 321,186 322,186 322,186 322,186 322,186 322,186 322,186 323,186 323,186 323,185 323,185 323,185 324,185 324,185 324,185 324,185 324,185 324,185 324,185 325,185 325,185 325,185 325,185 324,185 324,186 324,186 324,186 323,186 323,186 324,186 324,186 324,187 324,187 324,187 324,187 325,187 325,187 325,187 325,187 325,187 326,187 326,187 326,187 326,187 326,187 327,187 327,187 327,188 327,188 327,188 328,188 328,188 328,188 328,188 328,188 329,188 329,188 329,188 329,188 329,187 329,187 329,187 329,187 329,187 329,187 329,187 329,187 329,187 329,187 330,187 330,187 330,187 330,187 330,187 330,187 330,187 330,187 330,187 330,187 330,187 330,187 330,187 330,187 331,187 331,187 331,187 331,187 331,187 331,187 331,187 331,187 331,187 331,187 332,188 332,188 332,188 332,188 332,188 333,188 333,188 333,188 333,188 333,188 334,188 334,187 334,187 334,187 334,187 334,187 335,187 335,187 335,188 335,188 335,188 335,188 335,188 335,188 335,188 335,188 335,188 335,188 335,188 336,188 336,188 336,188 336,188 336,188 336,189 336,189 335,189 335,189 336,189 336,189 336,189 336,190 336,190 337,190 337,190 337,190 337,190 337,190 337,190 337,190 338,190 338,191 338,191 338,191 339,191 339,191 339,191 339,191 339,191 339,191 339,191 340,191 340,191 340,191 341,191 341,191 341,192 341,192 342,192 342,192 342,192 342,192 342,192 342,192 343,191 343,191 343,191 343,192 343,192 343,192 343,192 343,192 343,192 343,192 343,192 343,192 343,193 343,193 343,193 343,193 343,193 343,193 343,194 343,194 343,194 343,194 343,194 343,195 343,195 343,195 343,195 343,195 344,195 344,195 344,195 344,195 344,195 344,195 344,195 344,196 343,196 343,196 343,196 343,196 343,196 343,196 343,197 343,197 343,197 343,197 343,197 342,197 342,197 342,197 342,197 342,197 342,197 342,197 342,197 342,197 342,197 341,197 341,197 341,198 341,198 341,198 341,198 341,198 341,198 341,198 342,198 342,198 342,199 342,199 342,199 342,199 342,199 342,199 342,199 342,199 342,200 342,200 342,200 342,200 342,200 342,200 342,200 342,200 342,201 342,201 342,201 342,201 342,201 342,201 342,201 342,201 342,201 342,202 342,202 342,202 342,202 341,202 341,202 341,202 341,202 340,202 340,202 340,202 340,202 339,203 339,203 339,204 339,204 338,210 338,210 338,210 338,210 338,210 338,210 338,210 338,210 337,210 337,210 337,210 337,210 337,210 337,210 337,210 337,210 337,210 336,210 336,210 336,210 336,210 336,210 336,210 336,210 336,210 336,210 336,211 335,211 335,211 335,211 335,211 335,211 335,211 335,211 335,211 334,211 334,211 334,211 334,211 334,211 334,211 334,211 334,211 334,211 334,211 334,211 334,211 334,211 333,211 333,211 333,211 333,211 333,211 333,212 333,212 333,212 333,212 332,212 332,212 332,212 332,212 332,212 332,212 332,212 332,212 332,212 332,212 331,212 331,212 331,212 331,212 331,212 331,212 331,212 330,212 330,212 330,212 330,212 330,212 330,212 330,212 330,212 329,212 329,212 329,212 329,212 329,212 329,212 329,212 328,213 328,213 328,213 328,213 328,213 327,213 327,213 327,213 327,213 327,213 327,213 327,213 327,213 327,213 326,213 326,213 326,213 326,213 326,212 326,212 325,213 325,213 325,212 325,213 325,213 325,213 325,213 324,213 324,212 324,212 324,212 324,212 324,213 324,213 324,213 323,213 323,213 323,213 323,213 323,213 323,213 323,213 323,213 323,213 323,213 323,213 322,213 322,213 322,213 322,213 321,213 321,213 321,213 321,213 321,213 321,213 321,213 321,213 321,213 320,213 320,214 320,214 320,214 320,214 320,214 320,214 320,214 320,215 320,215 320,215 320,215 320,215 320,215 320,215 320,215 320,215 321,215 321,216 321,216 321,216 321,216 321,217 321,217 321,217 321,217 321,217 321,217 321,217 321,217 321,217 321,217 321,217 321,218 321,218 321,218 321,218 321,218 321,218 321,218 321,218 321,218 321,218 321,219 322,219 322,219 322,219 322,219 322,220 322,220 322,220 322,220 323,220 323,220 323,220 324,220 324,220 326,221 327,221 327,221 327,221 327,222 327,223 327,223 327,224 327,224 327,224 327,224 327,225 328,225 328,225 328,225 327,226 327,226 327,226 327,226 327,227 327,227 327,227 327,227 327,227 327,227 328,227 328,228 328,228 328,228 328,228 328,228 328,228 329,228 329,228 329,228 329,228 329,229 329,229 329,229 329,229 329,229 329,229 328,229 328,230 328,230 328,230 328,230 328,230 328,230 328,230 328,230 328,230 328,231 328,231 328,231 328,231 328,231 328,231 328,231 328,231 328,231 328,231 328,231 328,232 328,232 328,232 327,232 327,232 327,232 327,232 327,233 327,233 326,233 326,233 326,233 326,233 326,233 326,233 326,233 326,233 326,234 325,234 325,234 325,234 325,234 325,234 325,234 325,234 325,234 325,235 325,235 325,235 324,235 324,235 324,235 324,235 324,235 324,235 325,235 325,235 325,235 325,235 325,236 325,236 325,236 325,236 325,236 325,236 325,237 325,237 325,237 325,237 325,237 325,237 325,238 325,238 325,238 325,238 325,238 325,238 325,238 325,239 325,239 325,239 325,239 324,239 324,240 324,240 325,240 325,241 324,241 324,241 323,242 323,242 323,242 323,242 323,242 323,242 323,242 323,242 323,242 322,242 322,242 322,242 322,242 322,242 323,242 323,243 323,243 323,243 323,243 323,243 323,243 324,243 324,243 324,243 324,243 324,243 324,243 324,243 324,244 323,244 323,244 323,244 324,245 324,245 324,245 324,245 324,245 324,245 324,245 325,245 325,245 325,245 325,245 325,245 325,246 326,246 326,246 326,246 326,246 326,246 326,247 326,247 326,247 327,247 327,246 327,247 327,247 327,247 327,247 327,247 327,247 328,247 328,247 327,248 327,248 327,248 327,248 327,248 327,248 328,249 328,249 328,249 328,249 328,249 327,249 327,249 327,250 327,250 327,250 328,250 328,250 328,251 328,251 328,251 328,251 328,251 328,251 328,251 328,251 328,251 328,251 328,251 328,252 328,252 329,252 329,252 329,252 329,252 329,252 329,252 329,252 329,252 329,253 330,253 330,253 330,253 330,253 331,253 331,253 331,253 331,253 331,253 331,253 332,254 332,254 332,254 332,254 333,254 333,254 332,254 332,254 332,254 333,254 333,255 333,255 332,255 332,255 332,255 332,255 332,255 332,255 332,255 332,255 332,256 332,256 332,256 332,256 333,256 333,256 333,256 333,256 333,256 333,256 334,256 334,256 334,257 334,257 334,257 334,257 333,257 333,257 332,257 332,257 332,257 332,257 332,257 331,257 331,257 331,257 331,258 331,258 331,258 330,258 330,258 330,258 330,258 330,258 330,258 330,259 330,259 330,259 330,259 330,259 330,259 330,259 330,259 329,259 329,259 329,259 329,259 329,259 328,259 328,260 328,260 328,260 328,261 328,261 328,261 328,262 328,262 329,262 329,262 328,263 326,264 326,265 326,265 325,265 324,265 323,265 323,264 321,264 320,264 319,265 319,265 318,265 317,265 316,265 316,265 316,265 316,265 316,264 316,264 316,263 316,262 315,262 315,261 315,260 314,260 313,260 313,260 312,261 312,261 312,262 311,262 311,263 310,263 309,264 308,264 307,265 307,266 306,267 305,267 304,267 303,267 302,266 302,266 301,266 300,266 300,266 299,267 298,267 297,268 297,268 296,268 295,268 295,268 294,268 294,268 294,267 294,267 294,266 295,266 296,266 296,265 296,265 296,265 295,264 295,264 295,264 294,264 294,263 293,263 292,263 292,263 291,263 290,264 289,264 288,264 287,264 286,264 285,263 284,263 284,262 283,262 283,261 283,261 282,261 282,261 281,262 280,263 280,263 280,263 280,264 280,264 281,265 281,265 282,265 283,266 284,266 284,267 285,267 285,268 284,269 284,269 283,269 282,269 280,269 279,269 279,268 278,268 278,267 277,267 277,266 276,265 275,264 274,264 274,264 273,264 273,264 273,265 271,266 270,266 269,267 268,267 266,268 264,268 262,268 260,268 259,268 259,268 258,267 258,267 258,266 259,266 259,266 260,265 261,265 262,265 262,265 262,265 263,265 263,266 264,266 265,266 265,266 265,266 266,265 266,265 266,264 266,264 266,263 265,263 265,263 264,263 263,263 262,263 261,263 260,263 259,263 258,264 257,264 257,264 254,263 253,263 250,262 248,261 247,261 246,261 246,261 245,261 244,262 242,262 242,262 241,262 240,261 240,261 239,261 239,261 237,260 236,260 235,260 234,259 234,259 233,259 233,259 233,260 232,260 232,260 232,260 232,260 231,260 231,260 231,261 231,261 230,262 229,262 229,262 229,262 229,261 228,261 228,261 228,261 228,261 228,260 228,260 228,260 228,260 228,260 228,260 228,260 228,260 229,260 229,260 229,260 228,260 228,260 228,260 228,259 228,259 228,259 228,258 228,258 228,259 228,259 227,259 227,258 227,258 226,258 226,258 226,258 226,258 226,257 226,257 226,257 225,257 225,257 224,256 224,256 224,256 224,256 223,256 223,255 223,255 223,255 222,254 222,254 222,254 222,253 222,253 222,253 222,253 222,253 222,252 222,252 221,252 221,251 221,251 221,251 221,250 221,250 221,250 221,250 221,249 221,248 221,248 220,247 220,247 220,247 220,247 220,246 219,246 219,246 219,246 219,245 219,245 218,245 218,245 218,244 218,244 218,244 217,243 217,243 216,243 216,242 216,242 215,242 215,242 214,242 214,242 214,242 213,243 213,243 212,242 212,242 212,242 212,242 212,242 212,242 212,242 211,242 210,242 210,242 209,242 209,242 209,242 208,243 208,243 208,243 207,243 206,243 206,244 206,244 205,244 205,244 205,244 204,244 204,244 203,244 203,244 203,244 202,244 202,244 201,244 201,244 200,244 200,245 199,245 199,245 199,245 198,245 198,244 198,244 197,244 197,243 196,243 195,242 195,242 195,242 194,241 194,241 194,240 193,240 193,240 192,239 192,239 191,238 191,238 191,237 190,237 190,237 188,236 187,236 187,235 186,235 185,234 184,234 184,234 184,233 183,233 183,233 183,233 182,232 182,232 182,232 182,232 182,232 182,232 181,231 180,230 179,230 179,229 179,229 178,229 177,229 177,229 176,229 176,229 176,228 175,228 175,228 175,228 174,227 173,227 172,226 171,226 171,226 171,226 171,225 170,225 169,224 168,224 168,224 168,224 168,223 167,223 167,223 167,223 167,222 167,222 167,222 167,222 167,221 167,221 167,221 166,220 166,219 166,219 166,219 165,218 165,218 165,217 165,217 165,216 164,215 164,215 164,214 164,214 164,213 164,213 163,212 163,212 163,211 162,211 162,210 162,210 161,209 161,209 161,208 161,207 161,207 161,206 161,206 161,205 160,204 160,204 160,203 160,203 159,202 160,202 160,201 160,201 159,200 159,199 159,199 159,199 159,198 159,197 159,197 159,196 159,196 159,196 159,195 159,195 159,194 159,194 160,193 160,193 160,193 160,192 160,192 160,191 161,191 161,190 161,190 161,189 161,189 161,189 160,189 160,188 160,187 159,187 159,185 159,185 159,184 159,184 158,184 158,184 158,183 158,183 158,182 158,182 158,182 158,182 158,182 158,182 158,182 158,182 158,181 158,181 157,180 157,180 157,179 156,179 156,179 156,179 156,178 156,178 156,178 155,178 155,178 154,178 154,178 154,178 154,179 154,179 154,179 154,179 153,180 152,181 152,181 152,181 151,181 151,181 151,181 150,180 150,180 149,180 149,179 148,179 147,179 146,179 146,179 145,178 145,178 144,179 143,179 142,179 142,179 142,179 141,180 141,181 141,181 141,181 141,182 140,182 140,182 140,183 140,183 140,184 138,185 138,185 137,185 137,186 137,186 137,186 138,187 138,187 138,187 138,187 138,188 137,188 136,188 136,188 136,188 135,188 135,188 134,188 133,187 133,187 132,186 131,186 130,186 130,186 129,186 129,186 128,186 127,186 127,186 126,185 126,185 126,184 126,184 125,183 125,183 124,183 124,184 124,184 124,184 123,185 123,185 123,185 122,185 122,185 121,184 121,184 121,184 120,183 120,183 120,183 119,183 118,182 117,182 117,182 116,181 116,181 115,181 115,180 114,180 113,180 113,180 112,180 111,180 110,180 109,180 108,180 108,179 107,179 107,179 106,179 105,179 105,179 104,179 104,179 103,178 103,177 103,176 102,176 101,175 101,175 99,174 99,174 99,174 99,173 99,173 100,173 100,172 100,172 100,171 100,171 100,171 99,171 99,170 99,170 99,170 98,170 97,169 96,169 95,169 95,168 94,168 93,168 93,168 92,167 92,167 92,167 91,167 90,167 90,167 90,167 89,168 89,168 88,168 88,168 87,168 87,168 86,168 85,168 85,168 84,168 83,168 82,168 82,168 81,168 79,168 79,167 78,167 78,167 77,167 77,167 77,167 76,167 76,167 74,167 74,167 73,167 73,167 72,167 71,167 71,167 71,167 71,167 70,167 70,167 70,167 70,167 70,166 69,166 69,166 69,165 69,165 69,165 69,165 69,165 68,166 68,166 68,166 68,166 67,166 67,166 67,166 67,166 67,166 66,166 66,167 66,167 66,167 65,167 65,167 65,168 65,168 65,168 64,168 64,168 64,168 64,168 64,169 63,169 63,169 63,169 62,170 62,170 61,170 61,170 60,170 60,170 59,170 59,170 58,170 58,170 58,171 58,171 57,171 57,171 57,171 57,171 57,172 57,172 56,172 56,172 56,172 56,172 55,172 55,172 54,172 54,172 54,171 50,168 50,168 50,168 50,168 50,168 50,168 50,168 48,166 48,166 48,164 48,164 47,164 47,164 46,163 46,163 46,163 45,163 45,163 44,162 42,160 41,160 41,159 40,159 40,159 40,158 39,158 39,158 38,158 38,158 37,157 35,157 32,155 32,155 29,155 28,155 28,156 27,156 27,156 27,156 27,156 27,155 26,155 26,154 26,154 25,154 25,154 25,154 24,153 23,153 23,153 22,153 22,152 21,152 21,152 21,152 21,151 21,151 20,151 20,151 20,151 20,150 19,149 18,149 19,149 19,148 18,148 18,148 18,148 18,148 18,148 17,147 17,147 17,147 17,147 17,147 17,147 17,146 17,146 17,146 17,146 17,146 17,146 17,146 17,145 17,145 17,145 17,145 17,145 17,145 17,145 17,145 17,145 17,145 17,145 17,145 17,144 17,144 17,144 17,144 17,144 17,144 18,144 18,144 18,143 18,143 18,143 18,143 18,143 18,143 19,143 19,143 19,143 19,143 20,143 20,143 20,142 19,142 19,142 19,141 19,141 19,141 17,140 16,140 15,140 16,140 16,140 16,140 16,140 16,139 16,139 16,139 17,139 17,139 17,139 17,138 17,138 18,138 18,138 18,138 17,137 17,137 16,136 16,136 15,136 14,135 14,135 14,135 14,135 12,133 12,133 12,132 12,132 12,132 12,132 11,132 11,131 11,130 11,130 11,130 11,130 11,129 11,129 11,129 11,128 10,128 10,128 9,127 9,127 9,127 8,126 6,125 7,125 7,124 7,124 7,124 7,124 7,124 7,123 7,123 6,123 6,122 6,122 6,122 6,121 6,121 6,121 5,119 5,119 5,119 5,119 5,118 5,118 4,118 4,118 3,118 3,118 2,117 2,117 1,117 1,116 1,116 1,116 0,116 0,116 0,116 0,115 1,115 1,115 1,115 2,115 2,115 2,114 2,114 2,114 3,114 3,114 3,114 4,114 4,114 4,114 5,114 5,114 7,114 7,115 7,115 7,115 7,115 7,115 7,115 8,115 8,115 8,114 8,114 8,114 8,114 8,114 8,114 8,113 9,112 9,112 9,112 10,112 10,111 11,110 11,110 12,109 13,108 13,108 13,107 14,104 14,103 14,103 14,102 14,102 16,102 16,102 16,102 16,103 18,103 18,103 18,103 18,103 18,103 19,103 19,103 19,103 19,103 19,104 20,103 20,103 21,102 22,102 23,101 24,100 25,99 25,99 25,98 24,97 24,97 24,96 24,96 24,96 24,95 24,95 23,95 23,95 23,94 23,94 22,93 22,93 22,93 22,93 22,93 22,93 23,92 23,92 23,92 23,92 23,92 23,92 23,92 23,92 23,92 23,91 23,91 23,91" id="8113" class="canton" fill="steelblue" stroke-width="1" stroke="white" geotype="canton" geoname="Haut Dadou" code_insee="8113" code_departement="81" nom_departement="Tarn" code_region="76" nom_region="Occitanie"/></svg>