<?xml version="1.0" encoding="utf-8"?>
<svg version="1.1" id="svgmap" xmlns="http://www.w3.org/2000/svg" xmlns:xlink="http://www.w3.org/1999/xlink" x="0px" y="0px" width="100%" height="100%" viewBox="0 0 500 429">
<polygon points="37,297 38,297 40,296 41,296 42,295 44,294 46,293 47,292 49,292 50,291 53,291 56,290 57,290 58,290 58,289 59,289 60,288 60,288 60,287 60,287 60,287 60,286 60,286 60,286 59,285 58,285 56,283 52,282 51,281 50,280 49,280 49,280 48,279 48,279 48,278 48,278 47,277 47,275 47,275 47,274 47,274 47,273 47,270 47,269 47,269 48,268 49,267 50,265 51,263 52,261 52,261 53,261 53,260 55,259 56,258 59,257 62,256 64,255 65,254 67,253 70,250 74,248 77,246 78,246 79,245 81,244 83,244 84,244 85,244 88,244 90,243 91,243 93,243 95,243 97,243 101,242 103,242 107,240 110,239 110,239 110,239 111,238 112,238 114,237 115,235 116,235 117,234 119,233 121,233 124,232 125,232 126,233 128,233 129,234 129,234 131,236 132,237 135,240 137,241 138,242 138,242 140,243 146,244 149,246 152,246 154,247 155,247 159,248 160,248 161,248 162,248 163,248 163,248 164,247 165,247 165,247 166,246 167,246 167,245 168,244 168,244 168,244 169,244 169,244 170,244 170,244 170,244 170,243 170,243 170,243 171,242 171,242 171,242 171,242 171,242 171,242 171,241 171,241 171,241 172,241 172,240 173,240 173,240 173,240 173,240 173,240 174,240 174,239 174,239 174,239 175,238 175,238 175,238 175,238 175,238 175,237 176,237 176,236 176,236 176,236 177,235 177,235 177,235 177,235 177,235 177,235 177,235 178,235 178,235 178,235 178,235 179,234 179,234 179,234 179,234 179,234 179,233 179,233 180,233 180,233 180,233 180,233 181,233 180,233 180,233 180,233 180,233 180,234 180,234 181,233 181,233 181,233 181,234 182,234 182,233 182,234 182,234 182,234 183,234 183,234 185,234 185,234 185,234 186,235 186,235 186,234 187,234 188,235 188,235 189,235 189,235 190,235 190,235 190,235 190,235 190,235 190,235 190,235 190,235 190,235 191,235 191,236 191,236 192,236 192,236 192,236 192,236 192,236 192,237 192,237 192,237 193,237 193,238 193,238 193,238 193,238 193,238 193,238 193,238 193,238 193,239 193,239 193,239 193,239 193,239 193,240 193,240 194,240 194,240 194,240 195,240 195,240 195,240 195,240 195,240 196,240 196,240 196,240 197,240 197,240 197,240 197,240 197,240 197,240 198,240 198,240 198,241 199,241 199,241 199,241 199,241 200,241 200,241 200,242 201,242 201,243 201,243 201,243 207,247 207,247 207,247 207,247 206,247 206,248 206,248 206,248 207,251 208,251 208,251 208,252 208,254 208,254 216,249 218,247 218,247 219,246 220,247 221,245 222,245 222,244 223,244 223,244 225,243 226,243 226,243 226,243 227,243 227,243 227,244 227,244 227,244 228,245 228,245 228,245 228,245 228,245 229,245 229,245 229,246 229,246 230,246 230,246 231,246 231,246 231,246 231,247 231,247 232,247 232,247 232,247 233,248 234,248 234,248 236,247 236,247 238,246 238,246 240,244 241,243 241,243 242,243 243,242 244,242 244,242 245,241 247,241 248,241 248,241 253,240 253,240 253,240 254,240 255,239 255,239 260,239 261,239 261,239 261,240 261,241 262,241 262,241 262,241 264,242 264,242 266,242 267,243 268,243 271,243 273,243 275,244 277,244 278,244 280,244 282,244 282,245 283,245 285,245 285,246 286,246 287,246 287,247 287,247 288,248 289,248 289,248 289,248 290,248 289,248 289,248 289,248 289,247 289,247 290,246 289,246 289,245 289,245 289,245 289,245 289,245 288,245 288,244 288,244 289,244 289,244 289,244 289,243 289,243 289,243 289,243 289,243 289,243 288,242 288,242 288,242 288,242 288,242 288,242 288,242 288,241 287,241 287,241 287,240 287,240 287,240 287,239 287,239 287,239 287,239 287,239 287,239 286,239 286,239 287,239 287,238 287,238 286,238 286,238 286,238 287,238 287,238 287,238 286,238 286,238 286,238 286,238 286,238 286,237 285,237 286,237 286,237 286,237 286,237 286,237 285,237 285,237 285,236 285,236 285,235 285,235 285,235 285,235 285,235 285,234 285,234 285,234 285,234 285,233 285,233 285,233 285,233 286,233 286,233 286,233 286,232 286,232 286,232 286,232 286,232 286,231 286,231 286,231 286,231 286,230 286,230 286,230 286,230 286,230 286,230 286,230 286,230 286,229 286,229 286,229 286,229 286,229 286,229 286,229 286,228 286,229 286,229 286,228 285,228 285,229 285,228 285,228 285,228 285,228 285,228 285,228 285,228 284,228 284,228 284,228 284,228 284,227 284,227 284,227 284,227 283,227 283,226 283,226 283,226 283,226 282,225 282,224 283,224 286,224 287,224 289,224 292,224 293,224 296,225 299,225 301,225 302,225 302,225 303,225 304,225 304,225 306,225 306,225 306,224 306,224 306,223 306,223 306,223 306,223 306,222 306,222 306,222 306,222 306,222 307,222 307,222 307,222 307,222 308,222 308,222 309,222 309,222 309,221 309,220 310,217 310,217 310,216 309,215 308,213 307,212 306,211 306,210 305,210 304,202 302,199 301,193 301,193 301,192 301,192 301,192 301,191 301,191 301,191 301,191 301,191 301,191 301,191 302,191 304,190 304,190 307,189 308,189 310,189 310,189 311,188 311,188 311,188 311,187 307,185 303,183 301,182 300,181 299,181 299,180 297,178 296,177 294,174 291,171 291,171 290,170 290,169 289,166 288,165 287,164 286,164 286,164 284,164 281,164 279,164 278,165 276,165 273,166 268,169 265,170 264,170 260,172 258,173 254,174 254,173 254,173 254,173 254,172 253,172 253,172 253,172 253,172 253,172 253,171 253,171 252,169 254,169 254,169 254,169 252,167 252,167 252,166 251,166 251,166 253,165 254,165 256,164 257,164 259,163 260,163 262,162 264,162 264,162 266,161 267,161 267,161 267,161 267,161 267,161 267,161 266,161 266,160 266,160 266,160 266,160 266,160 265,160 265,159 265,159 265,159 264,159 264,159 264,159 263,159 263,159 262,158 262,158 262,157 261,157 261,157 261,157 261,156 261,155 262,155 262,155 263,154 263,153 263,152 264,152 263,151 261,151 261,150 261,150 260,150 260,150 260,150 259,150 259,150 259,149 259,149 258,149 258,149 257,149 255,148 255,148 255,148 256,148 256,148 256,148 256,148 256,147 257,146 257,146 257,146 257,146 258,146 260,145 260,145 260,145 260,143 260,143 260,143 260,143 261,142 262,141 261,140 260,139 259,139 257,138 257,137 256,136 256,136 255,135 252,133 251,133 249,131 248,131 247,131 247,130 245,130 244,129 244,129 244,129 243,128 242,127 243,127 243,127 245,126 245,126 246,126 248,127 249,127 249,127 250,127 250,127 250,127 251,127 253,128 254,128 254,128 254,127 254,126 254,126 253,125 253,125 253,124 253,124 253,124 252,123 251,122 251,122 250,119 249,119 249,119 249,119 248,118 248,118 249,117 249,116 249,116 249,116 249,116 248,116 248,115 247,115 247,114 248,114 247,114 246,112 246,112 246,112 238,105 236,104 235,102 235,102 237,101 237,101 238,101 239,100 239,100 240,99 240,99 241,99 242,98 243,97 242,97 242,97 242,97 242,96 242,96 242,96 242,96 241,96 241,96 241,95 240,95 240,95 239,94 238,94 238,94 238,94 237,93 237,93 237,93 237,93 237,92 237,92 238,92 239,89 239,88 239,88 239,87 240,87 240,86 240,86 240,85 240,85 241,85 241,85 242,84 242,84 242,84 242,84 243,84 243,84 243,83 243,83 244,83 247,84 248,83 249,82 250,81 250,81 250,81 250,80 251,80 252,79 255,76 256,76 256,76 256,76 257,77 257,77 258,77 259,78 259,79 260,79 260,79 260,80 261,81 261,81 261,81 263,82 264,82 265,82 265,82 265,82 265,81 265,81 265,81 265,80 265,80 265,80 265,80 265,79 265,79 266,78 266,78 267,77 267,77 267,77 267,77 267,77 268,77 268,76 269,76 269,76 270,74 270,74 270,73 270,72 270,71 270,71 270,71 271,71 274,70 274,69 277,70 277,70 280,68 280,68 280,68 280,68 280,68 282,68 284,67 285,67 285,66 285,66 286,66 287,65 287,65 288,64 289,63 290,62 290,62 291,62 291,61 292,61 292,60 292,60 291,59 291,59 292,58 292,58 292,58 293,57 293,57 293,57 293,57 293,56 293,56 294,54 294,54 295,53 296,53 297,51 297,51 298,50 298,49 298,49 298,49 298,48 298,48 298,47 298,47 298,47 298,47 297,47 297,47 297,47 297,47 297,47 296,46 295,46 293,45 292,44 291,44 291,44 291,44 291,43 291,43 290,42 290,42 290,41 290,41 290,41 290,41 290,41 290,40 290,40 292,40 291,39 291,39 291,39 291,38 291,38 290,37 290,37 290,37 290,37 290,37 289,37 289,36 289,36 289,36 289,36 289,35 289,35 289,34 289,33 289,32 289,31 289,31 289,30 290,28 289,27 289,26 288,25 288,25 288,24 288,24 288,24 287,23 287,23 287,23 287,23 287,23 286,21 286,21 285,20 285,20 285,20 285,20 284,18 284,18 284,18 284,17 284,17 284,15 284,14 284,13 284,13 284,13 284,13 284,13 284,12 285,10 285,9 285,9 285,8 285,8 285,7 286,6 286,6 287,4 287,4 290,2 290,2 294,4 295,4 296,5 296,5 297,4 298,4 300,4 300,4 300,2 300,1 300,0 302,0 302,0 302,1 302,1 303,1 305,2 306,3 306,3 306,2 307,3 308,3 309,4 309,4 310,5 310,6 310,6 309,6 309,7 309,7 309,7 309,8 309,8 309,8 309,8 308,9 308,10 308,10 311,11 311,12 313,13 313,13 312,13 312,13 313,14 313,14 314,14 314,14 315,15 316,17 316,17 317,18 317,18 318,18 318,18 318,18 319,18 319,19 319,20 320,20 320,20 320,20 321,21 321,21 321,22 322,22 326,24 325,26 325,26 325,27 325,27 325,28 325,29 324,30 324,30 324,30 323,31 324,32 324,32 333,34 334,33 338,34 340,33 340,33 341,32 341,32 346,32 346,32 348,32 348,32 349,33 349,33 348,33 348,35 348,35 352,35 353,35 353,35 354,35 356,35 357,35 359,35 359,35 365,35 366,34 366,34 366,35 367,34 367,34 367,34 368,34 369,34 370,34 371,33 372,33 373,33 373,34 374,35 374,35 374,36 375,37 375,37 375,37 376,38 376,39 377,39 377,40 378,41 378,41 378,41 379,41 380,41 380,41 381,41 383,41 383,41 383,41 385,41 385,41 385,41 385,41 385,41 386,41 387,42 387,42 388,42 388,42 388,41 389,41 389,41 389,41 390,41 391,42 392,42 392,42 393,42 394,42 395,42 395,42 395,41 395,41 397,41 397,41 397,41 398,41 399,41 400,40 401,40 401,40 403,40 403,41 403,41 403,42 402,42 402,42 403,43 403,43 403,43 405,45 405,44 406,46 406,47 406,47 406,47 409,47 409,47 410,47 410,47 411,48 411,50 411,50 412,49 413,49 413,49 413,49 413,49 415,49 415,49 415,48 415,47 415,46 415,45 415,44 415,44 415,44 415,44 415,44 414,44 413,43 412,43 411,42 411,41 411,40 411,40 412,40 413,40 415,40 415,40 416,40 417,40 417,40 417,40 418,40 419,40 420,40 420,39 420,39 421,40 421,40 421,40 421,40 422,40 423,40 424,40 426,40 427,40 428,40 429,40 430,41 430,41 431,41 431,42 431,43 432,43 432,44 432,44 432,44 438,47 438,47 439,47 439,47 439,47 440,47 441,47 443,47 443,47 443,47 444,48 444,52 444,53 444,54 443,55 443,55 440,55 440,56 440,56 439,56 439,56 439,57 439,57 438,57 438,58 440,58 441,59 441,59 442,59 442,59 443,60 446,61 446,62 446,62 446,61 446,60 446,60 447,59 447,59 447,59 447,59 447,59 447,58 448,58 448,57 448,56 448,56 448,56 449,56 449,54 449,54 449,53 449,53 452,52 452,52 452,52 454,52 455,52 455,52 456,51 456,52 457,52 457,52 458,51 458,51 459,52 461,52 462,52 464,52 464,52 463,53 463,53 463,53 462,53 462,53 460,54 460,54 459,55 459,55 458,55 458,56 458,56 458,57 457,57 455,58 454,59 454,59 454,59 452,61 451,62 451,62 450,62 450,62 449,63 449,63 448,64 448,65 448,65 448,65 449,65 449,66 450,66 450,66 450,66 450,66 450,66 450,67 450,67 450,67 449,67 449,67 448,68 448,68 448,68 448,68 447,68 446,69 446,69 446,69 445,69 445,70 445,70 445,70 445,70 445,71 444,71 444,71 444,71 444,71 444,71 444,72 443,72 443,72 443,73 443,73 443,73 443,73 443,73 443,74 443,74 443,74 443,75 442,75 442,75 442,76 442,76 442,76 442,76 442,76 442,76 443,77 443,77 443,77 443,77 444,77 444,77 445,77 445,77 447,77 448,77 448,77 448,77 450,78 453,78 453,78 455,78 455,78 455,78 455,78 456,78 458,77 460,77 461,79 461,79 461,79 459,80 459,80 458,80 458,81 458,81 458,81 458,81 457,81 457,82 457,82 456,83 456,83 456,83 455,83 455,83 455,84 454,84 453,84 453,85 452,85 452,85 452,86 451,86 451,86 451,86 450,86 450,87 449,88 448,88 448,89 447,89 447,89 446,89 446,89 445,89 445,90 444,90 444,90 444,91 444,91 444,91 444,90 445,90 445,90 446,91 447,92 447,92 447,92 447,93 447,93 447,95 447,95 447,96 448,96 450,98 450,98 452,99 452,99 450,102 450,102 449,103 449,103 449,103 448,103 448,104 448,104 448,104 448,104 447,105 447,105 447,106 447,106 446,106 445,106 444,106 442,107 441,108 441,108 440,108 439,109 438,110 438,110 437,111 436,112 436,113 436,113 436,113 436,113 436,113 435,113 434,114 434,114 432,115 432,115 432,116 431,116 431,116 430,117 430,117 429,119 427,120 428,121 428,121 426,121 422,121 421,121 420,121 418,121 417,121 416,121 416,121 415,121 415,121 411,120 410,119 408,118 408,118 406,118 406,117 405,117 405,117 403,120 403,120 405,120 405,120 404,121 404,121 405,121 407,122 409,124 408,126 408,126 408,128 408,129 409,132 409,134 409,136 409,138 409,139 409,140 409,141 410,141 410,142 410,142 410,142 412,144 412,145 412,145 410,153 410,153 412,157 407,158 405,158 402,159 399,161 398,161 398,161 396,162 395,164 394,165 391,167 390,167 388,170 385,172 385,173 380,176 378,177 376,181 376,181 377,182 379,183 379,183 379,183 380,183 381,183 381,183 380,184 380,185 381,185 383,186 384,186 385,186 385,186 386,186 386,186 389,186 389,186 404,187 428,189 431,189 443,191 455,192 454,197 455,198 455,198 455,198 455,199 455,200 455,200 455,200 455,200 456,201 456,201 456,201 456,201 456,202 456,202 457,203 457,203 457,204 457,204 458,205 458,205 457,205 457,205 455,207 454,211 456,212 455,213 455,213 454,214 454,214 454,215 454,215 455,215 455,217 455,217 456,218 456,219 456,220 457,220 458,221 458,221 458,221 457,223 455,225 455,225 454,226 454,226 453,226 453,227 452,228 452,228 451,229 450,230 451,230 451,230 452,234 452,234 453,236 453,237 453,237 454,238 457,238 458,239 458,239 459,240 459,240 462,242 462,242 464,243 464,243 467,244 467,244 467,245 467,245 466,246 466,247 466,247 468,247 468,247 469,248 470,248 469,251 468,253 468,253 474,254 475,255 476,255 477,255 477,255 478,256 478,256 480,256 485,256 485,256 485,256 485,255 488,257 488,257 490,255 491,255 491,255 493,256 493,256 493,256 492,257 492,257 492,257 492,257 492,257 492,257 492,258 491,258 492,258 491,258 491,258 491,258 491,258 491,259 491,259 493,261 493,261 493,261 493,262 493,263 493,263 493,263 494,264 494,265 494,265 495,266 496,268 497,269 496,269 494,271 492,273 490,275 490,275 487,277 487,277 485,278 485,277 485,277 485,277 484,276 484,276 484,276 484,276 484,276 484,276 480,276 480,276 480,275 479,275 477,275 477,275 476,276 476,277 475,278 474,284 474,286 474,286 473,287 471,290 471,290 469,291 469,292 468,293 468,293 467,293 466,295 465,296 465,296 465,296 465,296 465,296 465,297 465,297 465,297 464,297 464,297 464,297 464,297 464,297 463,297 463,297 461,296 460,296 459,296 458,296 458,296 458,296 457,296 456,296 455,296 455,297 455,297 454,297 454,297 454,298 453,298 453,298 451,299 452,299 452,299 452,300 453,300 453,300 453,301 454,301 454,301 454,301 457,303 457,303 459,304 459,303 460,304 461,304 461,305 461,305 461,305 461,305 462,308 462,309 462,309 462,310 462,310 462,311 462,312 463,313 463,313 464,313 464,314 464,314 464,314 465,314 463,315 463,315 466,318 468,320 468,320 468,320 469,321 470,322 470,322 470,322 470,323 471,324 470,325 471,325 471,325 471,325 472,327 472,328 472,328 472,328 473,329 473,329 473,329 473,330 476,333 476,334 476,334 477,334 478,335 479,336 479,336 482,338 482,338 483,339 483,340 483,340 482,340 482,340 482,340 481,340 481,341 480,341 480,341 480,341 480,342 480,342 479,342 479,342 479,342 481,343 482,343 485,345 486,345 486,345 486,347 486,347 486,347 486,347 486,347 486,348 485,348 485,348 485,348 484,348 484,348 483,348 483,348 483,349 483,349 483,349 483,349 482,349 482,350 482,350 482,350 482,350 482,350 482,351 482,351 482,351 482,351 482,352 482,352 482,352 481,352 481,352 481,352 481,352 481,352 481,353 481,353 481,353 481,353 481,353 481,353 481,354 481,355 482,355 482,355 482,356 482,356 482,356 483,356 483,356 484,357 484,357 484,358 484,358 484,358 484,358 484,358 487,361 487,362 488,362 488,362 488,362 488,363 489,363 489,363 489,364 490,364 491,365 492,365 492,366 495,367 496,367 496,367 496,367 497,368 498,368 498,369 499,370 499,371 499,371 499,372 500,372 500,372 500,373 500,373 500,373 500,373 500,375 500,376 499,376 499,376 499,377 498,378 497,378 497,378 496,378 495,378 495,378 494,378 493,378 492,378 489,378 488,378 488,378 487,379 487,379 487,379 487,379 487,379 486,379 486,380 486,380 485,380 485,380 485,380 484,380 484,380 484,380 483,380 482,380 481,379 481,379 481,379 481,380 480,380 480,380 480,381 480,381 479,381 479,381 479,381 478,381 478,381 476,381 475,381 475,382 474,382 474,382 474,382 474,382 474,382 474,382 473,383 471,385 470,386 469,386 468,387 468,387 468,387 467,387 466,387 465,387 463,387 463,387 461,388 460,388 459,388 459,388 458,388 458,388 458,388 457,389 457,390 457,390 457,390 457,391 457,393 456,397 455,397 455,399 455,399 454,399 453,398 449,396 448,396 446,395 445,395 443,394 443,394 443,394 443,394 441,393 440,391 439,391 437,390 435,389 434,389 433,388 433,387 432,386 431,385 430,384 430,384 429,384 429,383 429,383 427,381 426,380 426,379 425,378 425,377 424,377 424,376 424,376 423,376 423,375 423,374 422,374 422,374 422,374 421,374 421,374 420,374 420,374 420,373 420,373 421,372 422,372 423,371 425,370 426,370 427,369 427,369 427,369 428,369 428,368 428,367 429,367 429,366 429,366 428,366 425,365 425,365 425,365 424,365 424,365 423,365 422,365 421,364 421,364 420,364 420,364 420,363 419,363 419,363 419,362 418,362 418,362 418,362 418,362 418,362 418,362 418,362 418,361 417,361 417,361 417,360 417,360 416,359 416,359 414,359 414,359 411,360 411,360 411,360 410,361 410,361 408,359 407,359 406,358 406,358 405,358 404,357 401,357 401,356 399,356 399,356 396,358 396,358 395,358 394,358 394,358 393,358 392,358 391,358 390,359 389,359 388,359 387,360 383,363 381,364 381,364 379,363 379,363 379,363 378,363 376,364 376,364 376,364 376,365 375,365 375,365 375,367 375,368 375,368 373,369 373,369 373,369 373,369 372,369 372,369 369,370 369,371 369,371 367,372 367,372 366,373 365,373 365,373 363,374 363,374 363,374 363,374 362,374 362,374 361,374 360,375 360,375 360,375 359,375 359,375 359,375 360,376 360,377 360,377 360,377 360,377 360,377 360,377 360,377 360,377 360,378 360,378 360,378 361,378 361,379 361,379 360,379 360,380 360,380 360,380 360,380 361,381 361,381 361,381 361,381 362,382 362,382 362,382 363,382 363,383 362,383 362,383 362,383 362,384 362,384 362,385 362,385 362,385 362,385 362,385 361,385 360,385 360,385 360,385 360,386 359,386 359,386 358,386 358,386 357,386 357,386 357,386 356,386 356,387 356,387 355,387 355,387 355,387 355,387 354,388 354,388 354,388 354,388 354,388 353,389 353,389 352,389 351,390 351,390 351,390 351,390 350,390 350,391 350,391 350,391 349,391 349,391 349,391 349,391 349,391 349,392 349,392 349,392 349,392 348,392 348,391 348,392 348,392 348,393 347,393 347,394 347,394 347,394 345,396 344,396 344,396 344,396 342,396 342,396 342,396 341,395 340,395 339,395 339,395 338,394 337,393 336,392 335,391 334,391 333,390 332,390 331,389 330,389 329,388 329,388 330,387 330,387 330,387 330,386 329,385 329,384 329,384 328,384 327,383 326,383 325,382 324,382 323,381 321,379 321,379 316,375 316,375 316,374 314,372 313,372 311,371 311,371 309,370 309,370 308,370 308,370 308,370 307,369 307,369 307,369 306,368 306,368 306,368 306,368 305,368 305,368 305,368 305,368 305,369 305,369 304,369 304,369 303,369 303,369 303,369 302,369 302,369 302,369 302,370 302,370 302,370 302,370 301,371 301,371 301,371 301,371 301,371 301,371 300,371 300,371 300,371 300,371 300,371 300,371 300,371 300,372 300,372 300,372 299,372 299,372 299,372 300,373 300,373 300,373 301,373 301,373 301,373 301,373 301,373 301,373 300,373 299,373 299,373 299,374 299,374 299,374 298,374 298,374 298,374 298,374 298,374 297,374 297,374 297,374 297,374 297,374 296,374 296,374 296,374 295,374 295,374 295,374 295,374 295,374 295,374 294,374 294,373 294,373 294,373 294,373 294,373 293,373 293,373 293,373 292,373 292,373 292,373 292,373 292,373 292,373 291,373 291,373 291,372 291,372 290,372 290,372 290,372 290,372 289,372 288,372 288,371 288,371 288,371 288,371 288,371 287,371 287,371 286,371 285,371 285,371 285,371 285,371 285,370 284,370 284,370 284,370 284,370 284,370 284,370 284,370 284,370 284,370 284,370 284,370 284,370 284,370 283,370 283,370 283,370 283,370 283,370 282,369 282,369 282,369 281,369 281,369 280,369 280,369 280,369 279,369 279,369 279,369 278,369 278,369 277,369 277,369 277,369 276,369 276,369 275,368 275,368 275,368 274,368 274,368 274,368 274,368 274,368 274,368 273,368 273,368 273,368 273,367 273,367 272,367 272,367 271,367 271,367 271,367 271,367 271,367 270,367 270,367 270,367 269,367 269,367 268,366 268,366 267,366 267,366 266,366 266,366 266,366 265,366 264,366 264,366 264,366 264,366 263,366 263,365 262,365 262,365 262,365 261,365 260,364 260,364 259,364 259,364 259,364 258,364 258,364 257,363 257,363 256,363 255,363 255,363 254,362 254,362 253,362 253,362 252,362 251,361 249,361 249,361 248,361 248,361 247,360 247,360 247,360 247,360 246,359 246,359 246,359 246,359 245,359 244,359 244,359 244,359 244,359 242,358 242,358 242,358 242,358 242,358 242,358 242,358 241,358 241,358 240,359 240,359 239,360 238,360 238,361 237,361 236,361 235,362 234,362 234,363 233,363 232,363 232,363 232,363 232,363 227,362 226,361 225,361 223,361 220,361 219,360 219,360 219,361 218,361 218,361 218,361 217,362 217,362 217,362 217,362 216,362 216,363 216,363 216,363 215,363 215,363 215,364 214,364 214,365 214,365 214,365 213,366 212,366 212,366 212,366 212,367 212,367 212,367 211,367 211,367 210,367 210,368 210,369 210,369 210,368 210,368 209,368 209,368 209,367 207,367 207,367 207,367 206,367 206,367 206,367 206,367 205,367 204,367 203,366 202,366 201,365 200,365 200,365 200,365 199,365 198,364 198,364 197,364 196,364 195,364 194,364 194,364 193,363 193,363 193,363 193,362 191,362 191,362 191,362 190,361 190,361 188,361 186,360 186,360 185,360 184,360 184,359 182,359 182,359 182,359 179,358 179,358 177,358 176,358 175,358 175,359 174,359 173,360 173,360 172,361 172,361 172,361 172,361 172,361 172,361 172,361 172,361 172,361 172,362 172,362 171,361 171,361 171,361 171,361 169,360 169,360 168,360 168,360 168,360 167,360 167,360 167,360 166,360 166,360 165,360 162,360 162,359 162,359 159,358 157,358 156,358 155,357 153,357 152,356 149,355 148,355 147,355 147,355 147,355 147,355 147,355 147,355 147,356 147,356 147,356 147,356 147,357 147,357 147,357 147,358 147,359 147,359 148,359 148,359 148,360 148,360 148,360 146,361 146,360 146,360 146,360 146,360 141,364 139,366 139,366 137,368 141,371 141,371 141,370 141,370 142,371 142,371 143,372 143,372 144,373 143,374 143,374 142,374 142,374 141,374 140,375 139,375 138,375 138,376 137,376 137,376 137,376 137,377 136,378 136,378 136,378 136,379 136,383 136,385 136,386 136,386 135,386 134,386 134,386 133,386 133,386 132,386 131,386 130,386 129,387 129,387 128,388 128,389 128,389 128,389 128,390 128,391 128,391 129,392 129,392 130,393 133,394 134,395 134,395 135,396 135,396 136,397 136,397 136,397 136,397 136,398 136,398 135,398 135,398 135,399 135,400 135,400 135,400 136,401 136,401 135,401 135,401 135,401 135,401 134,402 134,402 134,402 134,402 133,403 133,403 132,404 132,404 132,404 131,404 131,404 131,404 131,405 130,405 130,405 130,405 130,405 129,406 129,406 129,406 129,406 128,407 128,407 128,407 128,407 128,408 128,408 128,408 128,408 128,409 127,409 127,410 127,410 127,410 127,411 127,411 127,411 127,411 127,412 127,412 127,413 127,413 126,413 126,413 126,413 126,414 126,414 126,414 126,414 126,414 126,415 127,415 127,415 127,416 127,416 128,416 128,417 128,417 128,417 129,419 129,419 129,419 129,419 129,419 130,420 130,420 130,420 130,420 130,420 130,421 130,421 131,421 131,421 131,421 131,422 131,423 132,423 132,424 133,425 133,426 133,426 133,426 132,426 131,426 129,427 129,427 129,427 129,427 129,427 123,428 123,428 122,428 121,429 119,429 119,429 118,429 118,429 118,429 118,429 117,429 116,428 116,428 117,427 116,426 117,426 116,424 116,423 116,423 115,422 115,422 115,422 115,422 115,421 115,421 115,420 115,420 115,419 115,419 115,419 115,419 115,419 114,418 114,418 114,418 114,417 114,417 114,417 114,417 114,417 114,416 114,416 114,416 115,415 115,415 115,414 115,414 115,414 115,413 115,413 115,413 115,412 115,412 114,412 114,412 113,412 113,411 113,411 112,411 112,410 112,410 112,410 112,410 112,410 112,409 111,409 111,408 110,408 110,408 110,408 109,407 108,407 107,407 107,406 106,405 105,404 105,404 105,403 104,403 104,402 104,402 103,402 103,401 104,401 103,401 103,401 103,400 103,400 103,400 103,399 103,399 102,398 101,398 100,398 99,397 97,397 97,397 96,398 96,398 94,397 94,397 94,397 93,397 89,396 89,396 89,396 88,396 86,395 85,395 83,394 81,393 79,391 77,390 76,389 72,387 72,387 72,386 71,386 71,386 71,386 72,385 73,385 73,385 72,385 70,384 69,383 67,383 67,383 67,383 67,383 66,383 66,383 66,383 66,383 65,383 65,383 65,383 65,383 65,383 65,383 65,383 64,383 64,382 64,382 64,382 63,382 63,382 63,382 62,382 62,382 62,381 62,381 62,381 62,381 61,381 61,381 61,381 61,381 61,381 61,381 61,381 61,380 61,380 61,380 60,380 60,380 60,380 60,380 60,380 60,380 59,380 59,380 59,380 59,379 59,379 59,379 59,379 59,379 59,379 58,379 58,379 58,378 58,378 58,378 58,378 58,378 58,378 58,378 58,378 58,378 57,377 57,377 57,377 57,377 57,377 57,376 57,376 57,376 57,376 56,375 56,375 54,375 51,374 47,373 43,372 41,372 39,372 38,372 37,371 36,371 35,371 35,370 34,370 34,370 33,369 32,369 31,368 31,368 31,368 32,368 32,367 32,367 32,367 31,366 29,365 29,365 31,364 31,364 31,364 31,363 31,363 32,363 32,363 31,362 31,362 31,362 31,362 31,362 31,362 30,361 30,361 30,361 30,361 29,361 29,361 29,361 29,361 28,361 28,360 28,360 27,360 27,360 27,360 27,360 27,360 27,360 27,360 27,360 26,360 26,360 26,360 26,360 25,360 25,360 25,359 25,359 25,359 25,359 25,359 24,359 24,359 24,359 23,359 23,359 23,359 23,358 22,358 22,358 22,358 22,358 22,358 22,358 21,358 21,358 21,358 21,358 21,358 21,358 21,357 21,357 21,357 20,357 20,357 20,357 20,357 20,357 20,357 20,357 20,357 19,357 19,357 19,357 19,356 19,356 18,356 18,356 18,356 18,356 17,356 17,356 17,356 17,356 17,356 17,356 16,355 16,355 16,355 16,355 15,355 15,355 15,355 15,355 14,355 13,354 13,354 12,354 12,354 12,353 11,353 11,353 11,353 11,353 11,353 11,353 11,353 11,352 11,352 11,352 11,352 10,352 10,352 10,352 10,352 9,352 9,352 9,352 9,352 9,352 9,352 9,352 9,352 8,352 8,352 8,353 7,353 7,353 7,352 7,352 7,352 7,352 7,352 7,352 7,352 7,352 7,352 7,352 7,352 7,351 6,351 6,351 6,351 6,351 6,351 6,351 6,351 6,351 6,351 5,351 5,351 5,351 5,351 5,351 5,351 5,351 4,350 4,350 4,350 4,350 4,350 4,350 4,350 4,350 3,350 3,350 3,350 3,350 3,350 3,350 3,350 2,350 2,350 2,350 2,350 2,350 2,350 2,350 2,350 2,350 2,350 1,350 1,350 1,349 2,349 2,349 1,349 1,349 1,349 1,349 0,349 0,349 0,349 0,349 0,349 0,349 0,349 1,348 1,348 1,348 1,348 2,347 2,347 3,347 8,346 8,346 8,346 8,346 8,346 10,345 11,345 11,345 11,345 11,345 13,344 14,344 15,343 17,342 17,342 19,342 19,342 20,341 21,341 22,340 22,340 22,340 24,339 24,339 24,339 24,339 25,339 26,339 27,338 28,338 29,337 29,337 33,336 43,332 44,331 45,331 45,331 46,331 46,331 46,331 46,328 47,328 47,328 47,328 48,328 48,328 47,327 47,327 47,327 47,327 47,327 47,327 47,327 47,327 47,326 47,326 47,326 47,326 47,325 47,325 47,325 47,325 47,325 47,325 47,325 47,325 46,325 46,325 46,325 46,325 46,325 46,324 46,324 46,324 46,324 46,324 47,324 47,324 46,324 46,323 46,323 46,323 46,323 46,323 46,323 46,323 46,323 46,323 46,323 45,322 45,322 45,322 45,322 45,322 45,322 45,322 45,322 45,321 45,321 45,321 45,321 45,321 45,320 45,320 45,320 44,320 44,320 44,320 43,320 43,320 43,320 43,320 43,319 43,319 43,319 43,319 43,319 42,319 42,318 42,318 43,318 43,318 43,318 43,318 43,318 43,318 43,318 43,318 42,317 42,317 42,317 42,316 42,316 42,316 42,316 42,316 42,316 42,316 41,316 41,316 41,316 40,316 40,316 40,316 40,316 41,316 41,316 40,316 40,316 40,316 40,316 40,316 40,316 40,316 40,316 40,316 40,315 40,315 40,315 40,315 39,315 39,315 39,315 39,315 39,315 39,315 39,315 38,315 38,315 38,315 38,315 38,315 38,314 38,314 38,314 38,314 38,314 37,314 37,313 37,313 37,313 37,313 37,313 37,313 37,313 37,313 36,313 36,313 37,313 37,312 37,312 36,312 36,313 36,313 36,312 36,312 36,312 36,312 35,312 35,311 35,311 35,311 35,311 35,311 35,311 34,311 34,311 34,311 34,311 34,310 34,310 34,310 34,310 34,310 33,310 33,310 33,310 33,310 33,310 32,310 32,310 32,310 32,310 31,309 31,309 31,309 31,309 31,309 31,309 31,309 30,309 30,309 30,309 30,309 30,309 30,309 30,308 30,308 29,308 29,308 29,308 29,308 29,308 29,308 29,308 29,308 28,308 28,308 28,308 28,308 28,308 28,308 28,308 28,308 28,308 28,307 28,307 28,307 28,307 28,307 28,307 28,307 28,306 28,306 28,306 27,306 27,306 27,306 27,306 27,305 27,305 27,305 27,305 27,305 26,304 26,304 26,304 26,304 26,303 26,303 27,303 27,303 27,304 27,304 27,304 28,304 28,304 28,304 29,304 29,304 30,305 30,305 30,305 30,305 30,305 30,305 30,305 31,305 31,305 31,305 31,305 32,305 32,305 32,305 32,305 32,305 32,305 32,305 33,305 33,305 33,305 33,306 33,306 33,306 33,306 33,306 33,306 33,306 34,305 34,305 34,305 34,305 34,305 35,305 35,305 35,305 35,305 35,305 36,305 36,305 36,305 36,305 36,305 36,305 37,305 37,305 37,305 38,305 38,305 38,305 39,306 39,306 39,306 39,306 40,305 40,305 40,305 40,305 40,305 41,305 41,305 41,305 42,305 42,306 42,306 42,306 42,306 42,306 42,306 43,306 43,306 43,306 43,306 43,306 43,306 43,307 43,307 43,307 44,307 44,307 44,307 45,307 45,307 45,307 45,307 45,307 45,307 45,307 46,307 46,307 46,306 46,306 45,304 45,304 44,303 44,302 43,302 42,301 41,300 39,299 38,299 38,298 38,298 38,297 37,297 37,297" id="8110" class="canton" fill="steelblue" stroke-width="1" stroke="white" geotype="canton" geoname="Deux Rives" code_insee="8110" code_departement="81" nom_departement="Tarn" code_region="76" nom_region="Occitanie"/></svg>