<?xml version="1.0" encoding="utf-8"?>
<svg version="1.1" id="svgmap" xmlns="http://www.w3.org/2000/svg" xmlns:xlink="http://www.w3.org/1999/xlink" x="0px" y="0px" width="100%" height="100%" viewBox="0 0 500 438">
<polygon points="30,0 55,115 108,99 117,101 119,100 120,100 121,100 122,99 122,98 122,97 122,96 122,95 122,95 123,94 123,94 124,94 126,93 130,92 132,90 136,90 148,87 148,87 150,87 156,85 159,84 160,85 162,86 163,88 165,88 168,90 170,90 172,90 173,89 185,85 186,84 184,82 184,81 183,80 181,78 178,73 175,71 174,69 173,67 172,66 173,66 169,60 155,47 153,46 156,43 159,40 160,38 160,37 160,36 161,35 161,35 162,35 163,36 164,37 168,40 170,41 172,42 173,43 178,45 184,48 185,48 186,49 187,49 190,48 191,48 192,47 194,46 196,43 197,43 198,42 200,41 205,40 207,39 208,40 209,40 215,42 217,42 220,43 227,43 229,43 233,42 236,41 238,41 241,41 243,41 245,41 246,41 248,42 249,43 251,44 253,44 255,45 262,46 267,46 268,46 269,47 269,48 269,49 269,50 268,52 267,54 265,57 265,58 266,61 266,63 268,64 270,66 272,67 275,67 277,67 279,68 280,68 281,69 281,70 281,71 273,70 267,70 262,71 260,72 259,74 259,75 259,77 258,79 254,86 251,90 250,91 249,97 248,101 247,104 246,107 245,116 244,117 242,133 241,136 241,136 241,137 241,138 241,139 242,141 247,148 248,149 249,150 252,154 258,157 259,159 260,160 267,164 268,164 278,169 285,172 288,174 292,177 296,180 300,182 302,183 303,184 306,187 307,190 308,191 309,192 310,192 318,193 322,194 323,194 330,194 331,188 332,184 332,178 350,179 349,177 347,173 347,172 347,172 344,169 342,166 342,164 342,162 349,160 402,165 401,165 400,166 400,167 401,168 401,169 402,171 403,171 404,172 404,172 405,173 413,173 421,172 427,172 428,172 429,172 429,173 432,178 432,180 432,181 431,183 430,184 428,185 423,190 420,193 420,195 421,199 424,203 428,205 431,206 433,206 434,206 437,221 430,233 428,233 427,233 425,233 424,232 424,232 423,232 419,233 419,236 419,237 419,238 421,247 422,249 424,251 424,254 424,254 424,257 424,259 424,261 424,264 424,267 424,270 424,272 423,275 424,279 425,278 430,278 432,279 440,278 449,277 449,280 450,280 450,284 450,285 450,285 450,291 449,292 448,294 447,298 447,299 448,300 454,301 458,302 464,305 475,308 488,309 495,310 499,320 499,321 500,322 498,324 456,309 432,300 417,294 406,291 399,289 392,288 386,287 378,287 373,287 364,287 364,288 365,288 365,289 365,289 365,290 365,291 365,298 366,303 366,306 367,307 371,306 373,315 373,316 375,319 376,320 379,325 377,325 375,326 373,326 368,326 363,326 362,326 362,323 362,322 362,321 361,316 352,317 352,316 349,316 345,317 344,316 343,316 339,316 327,317 319,318 319,326 319,332 320,336 320,337 315,338 307,339 297,341 293,341 290,343 286,345 285,347 284,349 282,351 281,355 281,357 280,358 280,362 279,364 278,365 277,366 273,369 272,369 271,370 270,371 270,371 268,372 267,372 266,372 264,372 263,372 261,372 260,373 260,374 259,375 258,376 247,377 237,378 228,377 219,374 204,369 188,364 180,378 150,429 147,434 144,438 133,433 130,432 126,431 120,430 115,430 109,430 103,430 98,431 92,432 87,433 80,437 80,435 79,430 79,429 79,425 78,421 73,376 72,366 71,357 71,357 71,356 70,351 70,347 69,338 68,333 67,319 56,324 34,324 30,340 20,340 21,339 21,326 23,318 23,318 24,310 23,302 19,301 21,293 20,293 17,293 12,294 8,294 7,287 4,283 11,282 14,282 12,275 10,273 4,276 4,276 2,276 1,277 0,276 3,275 7,274 7,273 22,266 24,267 27,268 27,266 28,266 29,266 29,266 29,264 29,264 31,263 28,263 25,263 23,257 21,254 18,252 12,248 8,247 10,244 14,242 14,240 31,240 31,236 34,236 34,219 34,219 41,219 46,220 46,225 36,229 37,239 38,251 39,255 37,263 36,265 37,265 35,274 48,276 48,273 49,274 63,275 63,268 61,251 61,250 61,248 60,240 60,238 52,175 48,145 43,101 32,12 31,8 30,0" id="8320" class="canton" fill="steelblue" stroke-width="1" stroke="white" geotype="canton" geoname="Toulon-2" code_insee="8320" code_departement="83" nom_departement="Var" code_region="93" nom_region="Provence-Alpes-Côte d'Azur"/></svg>