<?xml version="1.0" encoding="utf-8"?>
<svg version="1.1" id="svgmap" xmlns="http://www.w3.org/2000/svg" xmlns:xlink="http://www.w3.org/1999/xlink" x="0px" y="0px" width="100%" height="100%" viewBox="0 0 500 233">
<polygon points="0,174 3,170 5,167 6,167 7,165 8,164 8,164 8,164 8,164 9,164 9,163 9,163 13,163 20,162 22,161 23,161 24,161 28,160 29,160 30,160 31,160 32,159 32,159 32,159 32,159 39,157 41,157 42,156 43,156 44,155 44,155 45,154 46,155 45,154 47,153 47,153 47,153 47,153 46,152 46,152 46,152 46,152 46,152 46,151 46,151 46,151 46,151 46,151 46,151 46,150 46,150 47,149 47,145 48,142 55,137 54,133 54,132 53,132 53,132 52,132 51,132 51,132 50,132 50,132 49,131 49,131 50,130 50,130 51,128 52,128 53,126 55,123 57,121 57,120 58,119 61,117 65,116 67,115 72,115 72,115 74,114 74,114 74,114 75,114 75,114 75,114 76,114 76,114 77,113 78,112 78,110 79,110 79,109 79,109 80,109 80,109 82,108 82,108 82,109 89,108 89,108 92,110 93,110 93,110 94,110 94,110 94,110 95,109 95,109 96,109 100,109 100,110 101,110 103,110 103,110 104,110 105,110 105,109 106,109 107,108 109,105 112,106 113,107 113,106 114,107 114,106 114,106 115,106 115,106 115,106 115,106 115,106 115,105 115,105 115,105 115,104 115,104 115,104 115,103 115,103 115,103 116,103 116,103 116,102 116,102 116,102 117,102 117,102 117,102 117,102 117,102 117,101 117,101 117,101 117,101 117,101 117,101 117,101 116,101 116,100 116,100 116,100 115,100 115,100 115,100 115,100 115,99 115,99 115,99 115,98 114,98 114,98 114,98 114,98 114,98 115,97 115,97 115,96 115,96 114,96 114,96 114,96 114,95 114,95 115,95 115,95 115,94 115,94 115,94 116,94 116,94 115,93 115,93 115,92 115,92 115,91 115,91 115,91 115,90 115,90 115,90 115,89 115,89 115,89 115,88 116,88 116,87 116,87 117,86 117,86 117,86 117,86 116,86 116,85 116,85 116,85 116,85 116,85 116,84 116,84 116,84 115,84 115,84 115,83 115,83 115,83 115,83 116,83 116,82 116,82 116,82 116,82 117,82 117,82 117,82 117,82 118,82 118,82 118,81 118,80 118,80 118,80 118,80 118,80 118,80 118,80 118,80 117,79 117,79 117,79 117,79 117,78 117,78 116,77 116,77 116,76 116,76 116,76 116,76 116,75 116,75 116,74 116,73 116,73 116,72 116,72 116,71 116,71 116,71 116,71 116,71 116,71 115,71 115,71 115,70 115,70 115,70 115,70 115,70 114,70 114,70 114,69 114,69 113,69 113,68 113,68 112,67 112,67 112,67 112,66 112,66 112,66 112,65 112,65 113,65 113,65 113,64 112,64 112,64 112,64 112,63 112,63 112,63 112,63 112,63 112,62 112,62 112,61 111,60 111,60 111,60 111,60 111,59 112,59 112,59 112,59 112,59 111,58 111,58 111,58 111,58 111,58 112,57 112,57 112,57 112,56 112,56 112,55 112,55 112,55 113,55 113,55 113,54 113,54 113,54 113,54 113,54 113,54 113,54 113,53 113,53 113,53 114,52 114,52 114,51 114,51 114,51 114,51 114,50 114,50 114,50 114,49 114,49 114,49 114,48 114,48 114,48 115,47 115,47 115,47 115,46 115,46 115,46 115,46 115,46 115,46 116,45 116,45 116,45 116,45 116,45 116,44 116,44 116,44 116,43 116,43 116,43 116,43 116,42 116,41 116,41 116,41 116,41 115,41 116,41 115,40 115,39 115,39 115,39 115,39 115,39 115,39 115,39 114,39 114,39 113,38 113,38 112,38 112,38 112,37 112,37 112,37 112,37 112,37 112,36 112,36 111,36 111,35 111,35 111,35 111,35 111,35 111,34 111,34 111,34 111,34 111,33 111,33 104,23 106,22 108,22 121,21 125,19 128,19 129,18 131,18 133,18 137,17 144,17 147,18 149,18 151,18 151,18 152,18 154,18 154,17 156,17 157,17 159,16 159,16 160,16 162,16 162,16 165,16 168,17 172,16 175,16 176,15 179,15 182,15 187,15 189,16 189,16 191,16 192,17 193,17 194,17 196,18 202,18 208,18 210,18 211,17 213,19 218,19 220,19 223,17 232,13 238,16 238,15 240,10 242,7 242,6 243,6 243,5 243,5 245,4 248,3 251,2 252,2 254,2 255,2 257,2 258,3 259,3 260,3 260,3 262,4 262,4 263,5 264,5 265,5 266,5 266,5 267,5 267,6 268,6 270,6 271,6 272,6 275,3 279,3 280,3 288,7 288,7 291,5 292,4 293,4 296,4 301,4 301,4 302,4 303,4 304,4 306,5 309,1 316,2 318,0 321,0 324,0 326,2 326,2 329,3 330,3 331,4 331,4 332,4 332,4 333,4 334,4 334,5 335,5 337,5 337,5 338,5 340,5 343,6 344,6 345,6 346,6 347,7 349,7 355,8 360,8 360,9 360,9 360,9 361,11 361,11 361,11 362,12 362,12 362,13 362,14 363,16 363,16 362,16 363,16 363,16 363,17 363,17 363,17 364,18 364,18 365,19 367,20 367,20 367,21 368,21 373,25 373,25 375,28 378,30 386,32 386,32 387,33 387,33 387,34 387,34 387,34 387,35 387,35 386,35 386,36 387,36 387,36 387,37 388,37 391,40 391,40 391,40 391,41 395,44 395,45 394,46 394,46 394,46 395,47 395,47 395,48 396,48 396,48 396,48 396,49 397,50 397,50 397,51 397,51 397,52 398,52 398,52 399,53 399,53 399,53 400,54 400,54 400,55 401,55 401,55 401,56 400,57 400,57 400,57 401,58 401,58 401,59 402,59 402,60 403,60 403,60 403,60 404,60 404,61 405,61 405,61 405,61 406,62 407,62 408,62 408,62 409,62 409,62 409,62 410,63 410,63 411,63 411,63 413,63 413,63 413,63 414,63 414,63 414,64 414,64 415,64 415,63 416,63 417,63 417,63 417,64 419,64 419,64 419,64 420,64 420,64 421,64 421,64 422,64 422,65 422,65 423,66 424,66 424,67 424,67 425,68 425,68 426,68 427,68 427,69 427,69 427,70 428,70 429,70 429,70 430,70 431,70 432,70 433,70 434,69 435,69 436,68 436,68 437,68 437,68 438,68 439,68 439,68 439,69 439,69 439,69 439,70 438,71 439,74 440,78 440,87 441,90 441,92 443,99 443,102 443,102 443,102 444,102 444,102 445,103 445,103 446,103 447,103 448,104 448,104 448,104 449,104 449,104 449,104 449,104 449,105 450,105 450,105 451,105 451,105 452,105 452,106 452,106 452,106 453,106 453,106 454,107 454,107 454,107 455,107 455,107 456,107 456,108 456,108 456,108 456,108 456,109 456,109 457,109 456,109 457,109 457,109 457,109 457,109 457,109 458,109 458,109 458,109 458,110 458,110 459,110 459,110 459,110 460,110 460,110 460,110 460,110 460,110 460,110 461,110 461,110 461,110 461,111 461,111 461,111 461,111 462,111 462,111 462,111 462,111 462,111 462,111 462,112 462,112 462,112 462,112 463,112 463,112 464,113 464,113 465,113 465,113 465,113 465,113 465,113 465,113 466,113 466,113 466,113 467,113 467,114 467,114 467,114 467,114 467,114 467,114 467,114 468,114 468,114 468,114 468,114 468,114 468,114 468,114 468,114 468,114 468,114 468,114 469,114 471,114 471,114 471,114 472,114 471,114 471,114 471,114 471,114 472,114 473,115 473,115 474,115 474,115 475,116 475,116 475,116 475,116 475,116 476,116 477,116 477,116 477,116 477,117 478,117 478,117 478,117 478,117 479,118 479,118 479,118 479,118 480,118 480,118 480,118 481,118 481,119 482,119 487,122 487,122 490,126 493,128 493,128 494,128 494,129 494,129 494,130 494,130 500,136 493,144 484,151 474,153 470,154 469,155 464,158 461,162 460,167 459,169 451,179 450,180 449,181 446,184 445,186 444,186 444,187 443,187 442,188 440,189 439,189 437,190 436,190 435,190 433,191 432,191 431,191 429,190 420,189 412,188 399,187 398,187 395,186 394,186 393,186 391,187 390,187 390,187 390,187 389,187 388,186 386,186 386,186 385,186 384,186 383,187 383,187 382,187 382,188 381,188 381,188 380,189 380,189 379,190 379,190 377,191 377,191 377,191 375,192 374,193 373,193 372,194 369,194 367,195 366,195 366,195 366,196 365,196 363,197 363,197 362,198 361,199 360,200 359,201 359,202 358,203 357,203 356,205 355,205 353,207 352,208 352,208 351,209 351,210 350,210 348,211 347,212 345,213 345,214 344,214 343,214 343,215 341,215 340,215 339,216 336,218 335,218 334,219 332,220 329,221 328,221 328,221 327,221 326,221 325,221 323,222 322,222 321,222 319,222 318,223 317,223 314,223 309,225 307,225 306,225 305,226 304,226 302,228 301,228 300,229 299,230 298,230 296,233 296,233 296,233 295,233 294,233 292,232 290,232 288,232 279,231 269,229 266,229 263,229 259,229 252,228 230,229 223,230 219,231 219,231 210,230 195,232 180,230 178,229 177,229 168,226 161,225 156,223 153,223 147,222 147,222 146,222 135,221 133,220 127,218 123,218 120,217 118,216 115,214 111,213 105,212 101,210 99,209 93,207 91,207 88,206 84,205 83,205 76,204 70,203 68,202 62,200 62,200 55,196 54,196 49,195 46,194 44,192 39,190 34,186 27,183 24,182 18,181 18,180 15,179 6,176 4,175 0,174" id="8413" class="canton" fill="steelblue" stroke-width="1" stroke="white" geotype="canton" geoname="Pertuis" code_insee="8413" code_departement="84" nom_departement="Vaucluse" code_region="93" nom_region="Provence-Alpes-Côte d'Azur"/></svg>