<?xml version="1.0" encoding="utf-8"?>
<svg version="1.1" id="svgmap" xmlns="http://www.w3.org/2000/svg" xmlns:xlink="http://www.w3.org/1999/xlink" x="0px" y="0px" width="100%" height="100%" viewBox="0 0 500 277">
<polygon points="163,29 164,30 164,30 164,30 164,30 164,30 165,31 166,31 166,31 166,31 167,31 168,32 168,32 168,32 169,33 169,33 169,33 170,33 170,33 170,33 172,34 172,35 172,35 173,35 173,35 173,35 173,35 173,35 173,35 174,35 174,36 175,36 175,36 176,37 176,37 177,37 177,37 177,38 178,38 178,38 178,38 178,38 178,38 178,38 178,38 178,39 178,39 179,39 179,39 179,39 179,39 180,39 180,39 180,39 180,39 180,40 180,40 180,40 180,40 179,41 179,41 178,41 178,41 178,42 178,43 180,44 180,44 182,45 183,45 184,46 185,47 186,47 187,48 188,48 189,48 191,50 192,50 194,50 195,51 195,51 196,51 196,51 196,51 196,52 196,52 196,52 196,54 196,54 197,55 197,55 198,56 198,56 199,57 199,57 200,56 200,56 201,55 202,55 203,54 203,54 204,53 205,53 206,52 206,51 207,51 208,51 209,50 209,50 210,50 211,50 211,50 212,50 213,50 214,50 216,51 217,51 220,51 220,51 223,51 226,51 230,51 230,51 233,51 233,51 233,48 233,48 237,46 238,46 240,43 239,42 239,41 239,41 240,39 240,38 240,35 240,33 240,32 240,32 240,32 240,31 240,28 241,28 241,28 242,27 244,27 244,27 245,27 245,27 247,27 249,27 252,27 252,27 256,23 256,23 256,23 256,22 256,22 256,21 255,20 255,19 255,18 256,15 257,13 257,12 257,11 257,10 257,9 257,9 258,8 258,7 258,7 259,7 259,6 259,6 259,6 258,5 258,5 258,4 258,4 258,3 258,2 258,2 258,2 258,2 258,2 260,1 261,1 261,1 262,1 262,1 263,1 263,1 264,1 265,0 266,0 266,0 267,0 267,0 267,0 268,0 268,0 269,0 269,0 269,0 269,0 270,0 270,0 270,1 271,1 271,0 272,0 272,1 272,1 273,1 273,1 273,1 273,1 274,0 274,1 274,1 274,1 275,1 275,1 275,1 276,1 276,1 277,1 277,2 277,2 278,2 278,2 278,3 278,3 278,3 278,3 278,3 279,3 279,3 279,2 279,2 280,2 280,5 279,5 276,7 276,8 275,10 275,12 274,12 273,14 273,14 273,14 273,15 272,16 271,16 271,16 270,17 269,18 269,19 269,19 269,20 269,20 270,21 269,22 269,22 269,23 268,24 266,25 264,25 264,26 263,26 263,26 262,27 261,29 260,30 260,31 260,31 259,32 258,32 258,33 258,33 257,34 258,34 258,35 258,35 258,36 258,36 258,36 259,36 260,36 260,36 260,37 261,38 263,40 263,40 264,40 265,41 266,41 265,41 265,42 266,42 267,41 268,42 269,43 269,43 270,43 270,43 271,44 271,44 272,45 273,46 273,46 274,46 274,47 276,48 277,49 277,49 279,53 279,54 280,54 280,54 280,54 280,54 281,54 282,54 282,54 282,54 279,59 279,59 279,59 280,61 280,61 281,61 284,60 285,60 288,60 292,59 296,59 298,58 299,58 301,58 302,59 306,59 306,59 306,59 306,58 306,58 306,58 306,56 306,55 306,54 306,53 306,53 306,53 306,53 306,52 306,52 305,52 305,52 305,51 305,51 305,51 306,51 306,51 308,50 308,50 309,50 309,49 309,48 309,48 310,47 311,46 311,46 312,45 314,44 314,43 316,43 316,43 317,43 318,43 319,43 320,43 321,43 322,43 323,43 325,42 326,42 328,42 329,41 330,41 332,41 332,40 334,40 334,40 338,40 339,40 339,40 339,40 341,38 343,37 345,36 346,36 351,35 351,34 353,33 354,32 358,31 359,30 361,30 361,30 362,30 363,30 364,30 365,30 365,30 365,30 366,30 366,30 366,30 366,31 366,31 366,31 368,32 368,32 368,32 369,32 370,33 370,33 370,33 370,33 372,33 372,33 372,33 372,34 372,34 372,34 373,34 373,34 373,34 374,34 374,35 375,35 375,35 375,35 376,35 376,35 377,36 377,35 378,35 379,35 381,34 383,34 383,34 384,33 386,33 387,33 388,33 388,34 388,34 388,35 389,35 389,35 389,35 389,34 390,34 390,34 391,34 391,34 391,34 392,34 392,34 392,34 393,34 393,34 393,34 394,35 394,35 395,35 396,36 396,36 397,36 397,36 397,36 398,36 398,37 399,38 400,39 400,39 400,40 399,41 399,41 400,43 400,43 400,44 400,45 401,45 401,46 401,46 403,47 404,47 404,47 405,47 405,47 405,47 405,48 404,49 404,49 404,50 403,50 403,50 403,50 402,51 402,51 400,52 397,53 397,53 397,54 397,54 397,54 395,55 394,55 393,55 394,56 395,57 395,58 397,58 397,59 401,61 401,61 402,62 405,63 406,63 406,63 407,64 407,64 408,64 409,64 409,64 409,64 410,65 410,66 411,67 412,67 412,67 413,67 414,67 414,67 415,68 416,68 417,68 417,68 418,69 419,69 419,69 420,69 422,69 422,69 422,69 423,69 424,69 426,70 426,70 426,70 426,70 426,70 427,69 427,69 430,69 430,69 430,69 431,69 431,69 431,70 432,70 432,70 432,70 434,71 433,72 433,72 431,74 431,74 431,75 433,76 433,77 434,78 434,78 434,78 435,78 435,78 436,79 436,79 436,80 437,81 437,81 438,81 438,81 439,82 438,82 438,82 438,82 439,83 440,83 442,85 445,86 445,86 446,86 446,86 446,85 447,86 447,87 447,87 447,88 446,88 446,89 446,89 446,89 446,90 446,90 446,90 446,90 445,90 445,90 443,90 442,90 441,90 440,90 440,91 440,91 439,92 439,92 439,92 441,93 442,93 447,95 447,95 447,95 447,95 447,95 447,95 448,96 449,97 449,97 449,97 449,97 449,97 449,97 449,97 450,97 450,98 450,98 451,98 451,99 451,99 451,99 451,99 451,100 451,99 452,99 452,100 452,100 452,100 453,101 453,101 453,101 453,101 453,102 453,102 453,103 453,103 453,103 453,103 453,104 453,104 453,104 452,105 452,105 452,105 452,105 452,105 452,105 452,106 451,106 451,107 451,107 451,107 451,107 452,108 452,108 453,108 453,109 453,109 453,109 453,109 453,109 453,109 454,110 454,110 455,110 455,110 455,110 456,110 456,110 456,110 458,111 458,111 458,111 459,111 459,111 459,111 463,110 463,110 463,110 464,110 464,110 464,110 465,110 466,110 466,110 467,111 468,111 469,111 469,111 469,111 469,111 469,111 469,112 469,112 468,113 468,113 468,113 468,113 469,113 469,113 470,114 470,114 471,115 472,116 473,116 477,118 477,118 477,119 475,120 474,120 474,120 469,123 452,131 452,131 452,131 452,132 452,132 453,132 453,132 453,133 455,134 455,135 456,136 456,136 457,137 458,137 459,138 459,138 459,138 459,138 459,138 459,139 459,139 460,139 461,140 462,140 463,139 463,139 463,139 466,141 466,141 466,141 467,141 470,143 471,143 473,143 474,143 474,143 477,143 478,143 478,143 479,143 479,143 479,143 479,143 482,145 483,145 485,146 485,146 484,147 484,147 484,147 486,146 486,146 487,146 487,147 489,148 489,148 490,149 491,150 491,150 492,151 492,151 493,153 493,153 493,153 494,153 494,153 494,153 495,153 495,154 495,154 496,155 496,155 496,155 496,156 497,157 499,159 499,160 500,161 500,161 499,162 499,162 497,165 497,166 497,169 497,169 497,170 496,173 495,174 494,175 494,176 494,176 493,177 491,179 488,181 488,181 486,182 484,183 482,183 481,184 480,185 479,186 476,188 476,188 473,191 472,192 471,193 471,193 469,195 468,196 467,197 465,199 464,198 464,198 463,198 463,199 463,201 463,202 463,204 463,207 463,209 465,213 465,213 482,234 493,248 492,248 491,248 491,248 490,249 490,249 489,249 489,249 488,249 487,249 486,249 486,249 485,249 484,250 484,250 484,250 483,250 482,250 481,251 481,251 480,252 479,252 479,252 479,252 478,253 476,254 476,254 475,254 475,255 472,256 472,256 472,256 471,257 471,257 470,258 470,258 467,258 466,259 465,258 465,258 464,258 464,258 464,258 461,258 461,258 458,258 456,258 456,259 456,259 455,259 455,259 451,259 450,259 449,259 448,259 448,259 447,260 445,260 443,260 439,260 438,260 437,260 436,260 434,260 433,260 433,260 432,261 431,261 431,261 429,261 428,261 427,261 426,261 425,261 424,261 423,261 422,261 421,261 421,261 419,261 418,261 418,261 417,261 416,261 415,262 413,262 413,263 411,264 411,264 411,264 411,264 411,264 411,264 410,264 410,264 410,264 409,265 409,265 408,265 408,265 407,265 406,265 405,266 405,267 405,267 404,267 404,267 404,267 402,268 402,268 402,268 401,268 401,269 401,269 401,269 400,270 400,270 399,270 399,270 399,270 398,270 398,270 396,270 394,270 393,270 390,269 389,269 389,269 388,269 388,269 387,269 387,270 385,271 385,271 385,271 384,271 383,271 383,271 382,271 381,271 380,272 379,272 378,273 377,273 376,273 375,274 374,274 373,275 373,275 372,275 371,275 370,275 368,276 368,276 366,275 364,275 364,275 364,275 363,274 363,274 357,271 351,268 347,266 347,265 345,264 344,264 341,262 340,262 340,262 340,262 340,262 339,261 337,261 337,260 333,259 333,260 333,260 333,261 333,261 333,262 332,262 332,262 332,262 332,262 330,263 329,263 328,263 328,263 327,263 326,263 326,263 325,263 325,263 325,262 325,262 325,262 323,262 322,262 322,262 321,262 316,262 316,262 315,262 313,261 311,261 308,261 307,261 304,260 302,260 302,260 301,260 300,259 298,259 295,258 294,258 294,258 294,260 293,265 292,268 291,270 291,271 290,273 289,274 289,275 289,275 288,276 288,276 288,277 288,277 287,277 287,276 286,276 286,276 285,276 285,276 282,275 282,275 279,274 278,274 278,274 274,272 274,272 273,271 272,271 272,271 271,270 271,270 270,269 270,269 269,269 269,269 268,268 268,268 268,268 267,268 265,269 265,269 264,269 263,269 262,269 262,269 262,269 262,269 261,268 261,268 261,268 261,267 261,267 261,267 261,266 261,266 261,265 261,265 261,265 261,265 261,264 261,264 261,264 261,264 261,264 261,263 261,263 261,263 261,263 261,263 261,263 261,263 261,263 261,262 261,262 261,262 261,261 261,261 261,261 261,261 261,260 261,260 261,259 260,259 260,259 260,259 259,259 258,258 257,258 256,258 256,258 256,258 256,258 255,258 255,257 254,257 253,257 253,256 252,256 251,256 249,255 248,255 249,254 252,253 253,252 254,251 254,251 254,250 255,250 256,249 256,248 256,248 257,247 257,246 257,246 257,245 257,245 259,244 259,243 260,243 260,242 260,241 261,240 261,240 261,239 262,239 262,238 262,238 262,238 263,238 263,238 263,238 263,237 263,236 263,236 264,235 264,235 265,234 265,233 265,233 265,233 264,232 264,232 262,229 262,229 262,229 262,229 262,228 263,227 263,227 263,226 263,225 263,225 262,223 262,223 262,222 261,220 261,219 261,219 261,219 261,219 260,219 260,219 260,219 259,219 259,219 258,219 258,219 258,219 257,219 257,219 256,219 256,218 256,218 255,217 255,216 255,216 254,216 253,216 252,215 252,215 251,215 250,215 250,214 250,214 249,214 247,215 246,215 246,215 246,215 246,215 245,215 245,215 245,215 243,214 243,214 242,214 242,215 242,215 241,216 240,218 240,219 239,219 239,219 239,219 238,219 239,220 238,221 237,222 237,222 237,222 236,222 232,221 232,221 231,221 230,220 230,220 229,219 228,219 228,219 227,219 227,219 227,219 227,219 227,219 225,218 224,218 223,218 222,218 222,218 221,220 221,220 217,218 216,219 216,219 216,219 216,219 214,220 213,219 213,220 213,220 209,219 208,218 206,217 203,216 202,216 202,216 202,216 202,216 202,216 202,216 202,216 201,216 201,216 199,215 197,214 197,214 197,213 200,212 201,212 202,211 203,211 204,210 204,210 205,210 205,210 205,210 205,209 206,209 206,209 207,209 207,209 207,209 207,209 207,209 207,209 208,209 208,208 208,208 208,208 208,207 209,205 209,205 209,204 208,204 207,204 207,204 207,204 207,204 207,203 207,203 205,203 205,203 202,202 201,202 200,201 200,201 200,201 200,202 200,202 199,202 198,203 197,203 195,204 194,204 194,204 190,205 186,205 185,205 183,206 179,207 178,207 176,208 175,208 174,208 174,209 173,209 173,209 172,209 172,209 171,209 171,210 171,210 170,210 169,211 169,211 168,212 167,212 166,212 166,212 165,213 165,213 163,213 162,213 160,213 159,213 157,214 155,214 152,214 151,214 149,215 148,215 145,216 143,217 143,217 139,218 138,218 138,218 138,218 136,216 136,216 136,215 128,213 127,213 126,213 112,209 110,210 110,210 108,211 104,212 104,212 103,213 99,215 98,215 98,215 97,214 93,211 92,210 84,204 80,201 80,201 77,198 76,198 76,198 74,197 74,196 74,195 65,194 65,194 66,192 66,192 66,191 66,191 66,191 66,191 66,189 66,189 66,189 66,189 65,189 65,188 65,188 65,187 65,187 65,186 64,186 64,186 64,186 64,186 64,185 64,184 64,184 64,184 64,183 64,183 64,180 64,180 64,179 64,178 64,178 64,178 64,178 62,177 58,176 57,176 55,176 54,176 52,177 51,178 50,178 50,178 49,178 48,179 47,179 47,179 45,178 46,177 46,175 46,175 47,174 47,173 47,173 47,173 49,171 50,170 51,168 52,168 52,168 52,167 53,167 53,167 53,167 53,166 53,166 54,166 54,165 54,165 54,165 54,164 54,164 55,164 55,164 55,163 56,161 56,161 56,160 57,160 58,159 58,158 57,157 54,156 53,156 48,154 46,152 45,152 45,152 45,152 42,152 41,153 39,153 37,154 37,154 35,156 35,156 31,154 30,154 29,153 28,155 28,155 27,155 27,155 27,155 25,156 24,157 23,157 23,158 22,158 21,159 21,159 20,160 19,161 19,161 18,162 17,162 17,163 17,163 17,162 1,154 1,154 1,153 1,153 0,152 0,152 0,151 0,151 0,151 0,151 1,150 3,148 5,147 5,146 6,145 8,145 9,143 10,143 11,142 12,141 12,141 12,141 13,141 13,141 13,141 12,140 12,140 12,140 12,139 12,138 12,138 12,137 12,137 12,137 12,136 12,135 13,135 13,134 13,134 13,134 13,133 13,133 14,133 14,132 14,132 14,132 14,132 14,132 14,131 14,131 14,131 14,131 14,131 13,131 13,131 13,131 12,130 10,129 11,128 10,128 9,127 9,127 9,127 9,126 9,126 10,125 9,125 10,125 9,125 10,124 10,124 10,124 11,123 11,123 11,123 12,122 11,122 11,122 11,121 11,121 11,121 11,121 11,120 11,120 10,120 10,120 10,120 10,119 9,119 9,119 9,119 9,119 10,119 11,118 11,118 11,118 11,118 12,119 12,119 12,119 13,119 13,119 13,119 13,119 14,120 14,120 15,120 15,120 15,120 17,120 19,118 22,117 23,117 25,114 25,114 24,113 22,113 22,113 22,113 22,113 23,112 24,111 25,109 27,106 28,105 30,102 31,101 32,101 33,99 34,98 37,99 37,99 39,99 39,99 39,99 40,99 41,99 41,99 42,99 42,99 43,99 43,99 46,99 47,99 47,99 47,98 48,98 49,99 49,99 50,99 50,99 50,99 51,99 51,99 52,99 53,99 53,99 53,99 54,99 54,99 57,99 58,99 59,100 59,100 59,100 59,100 60,99 60,99 61,97 61,96 62,95 62,95 62,95 62,95 65,96 66,96 66,96 66,96 66,96 66,96 66,97 67,97 67,97 67,97 68,97 68,97 68,97 69,97 69,97 69,97 71,98 71,98 71,98 72,96 72,96 72,96 70,96 70,96 70,96 71,94 71,94 71,92 71,92 70,91 70,91 70,91 71,91 71,91 71,91 71,91 71,91 71,90 71,90 71,90 71,90 71,90 71,89 71,89 71,89 71,88 72,88 72,87 72,86 73,86 73,85 73,85 74,84 75,84 74,84 74,84 74,84 74,83 73,83 69,81 68,80 68,80 68,80 67,79 66,79 65,79 65,79 65,79 64,79 64,79 64,78 64,78 64,78 64,78 65,77 66,75 67,74 67,74 67,74 67,74 67,73 67,73 66,73 66,72 66,72 65,71 65,71 65,70 65,68 65,68 65,68 65,68 64,67 64,67 64,67 64,67 65,65 65,64 65,63 65,62 65,61 65,61 66,59 66,59 66,59 66,59 66,59 65,58 65,58 65,58 65,58 66,57 67,56 68,56 68,55 68,55 67,55 67,55 67,54 67,54 67,54 67,53 67,53 67,52 67,52 67,52 68,52 68,52 69,51 69,51 68,50 68,50 67,50 66,48 65,48 65,47 66,46 68,45 68,45 68,45 69,46 69,46 69,45 69,45 72,44 72,43 72,43 72,43 72,43 71,43 71,43 72,43 74,41 76,40 77,40 78,40 78,39 78,39 78,39 79,40 79,40 79,40 81,40 82,40 82,40 82,40 82,39 82,39 82,39 83,39 84,39 84,38 85,38 85,38 84,38 84,37 85,37 85,37 85,36 86,36 86,36 86,36 86,36 87,35 87,35 87,35 87,35 87,35 87,35 88,34 88,34 88,34 89,34 89,34 91,34 92,34 93,34 93,34 93,34 93,34 93,34 93,34 95,34 95,34 96,34 97,35 97,35 97,35 99,36 99,36 99,36 99,36 99,36 99,36 99,36 100,36 101,37 101,37 101,37 102,37 103,37 103,38 104,38 104,38 105,38 106,39 106,39 107,39 107,39 107,39 108,39 110,39 110,39 110,39 110,39 110,39 110,40 110,40 110,40 111,40 111,40 111,40 112,40 112,40 113,40 113,40 113,40 113,40 114,40 114,40 114,40 115,40 115,40 116,40 116,40 116,40 117,40 118,40 118,40 118,40 119,39 119,39 119,39 120,39 120,39 122,38 122,38 123,38 123,38 124,38 124,38 124,38 125,38 125,38 125,38 128,37 130,37 130,37 130,36 130,36 131,36 131,36 131,36 131,36 133,36 133,36 133,36 133,36 134,36 135,36 135,36 147,32 147,32 148,33 149,33 150,33 150,33 150,33 151,33 151,33 152,33 152,33 153,33 153,33 153,32 154,32 155,32 155,32 157,31 157,31 157,31 156,31 156,31 156,31 157,31 157,31 157,31 159,31 159,31 160,30 161,30 161,30 162,30 162,30 163,30 163,29" id="8607" class="canton" fill="steelblue" stroke-width="1" stroke="white" geotype="canton" geoname="Jaunay-Clan" code_insee="8607" code_departement="86" nom_departement="Vienne" code_region="75" nom_region="Nouvelle-Aquitaine"/></svg>