<?xml version="1.0" encoding="utf-8"?>
<svg version="1.1" id="svgmap" xmlns="http://www.w3.org/2000/svg" xmlns:xlink="http://www.w3.org/1999/xlink" x="0px" y="0px" width="100%" height="100%" viewBox="0 0 500 396">
<polygon points="117,24 117,24 119,24 119,24 119,24 119,25 119,25 119,26 119,26 120,27 120,27 120,27 120,28 121,28 121,28 121,29 121,29 121,30 121,31 121,31 121,31 121,31 121,32 121,33 121,33 122,33 122,33 123,33 123,33 123,33 123,33 123,32 123,32 124,32 125,32 125,32 125,31 125,31 125,31 127,31 128,31 129,31 129,31 129,31 129,31 130,31 130,31 130,30 130,30 130,30 129,29 129,29 129,29 129,29 129,29 129,29 130,29 130,29 130,29 129,28 129,28 129,28 131,28 131,28 131,27 131,27 131,27 132,26 132,26 132,26 131,25 131,25 131,25 130,25 130,25 130,25 130,25 130,25 130,24 130,24 130,24 130,24 130,24 130,24 130,24 130,24 130,23 130,23 130,23 131,22 131,22 131,22 132,22 132,22 133,22 133,22 133,22 133,22 133,21 133,21 133,21 135,20 135,20 137,19 137,19 138,19 139,18 141,19 142,18 143,17 144,16 144,16 146,20 146,20 146,20 146,20 146,20 146,20 146,19 146,19 147,19 147,19 147,19 147,20 147,20 147,20 147,21 147,21 147,22 147,22 148,22 148,21 149,20 149,20 149,20 149,20 150,20 150,20 148,18 148,18 148,18 148,18 148,18 148,18 148,18 148,17 149,17 149,17 149,17 149,17 149,16 149,16 148,15 148,15 148,14 148,14 148,13 148,13 150,13 150,13 150,13 150,14 150,14 150,14 150,14 149,14 149,14 149,14 149,15 149,15 149,15 149,15 149,15 149,15 150,15 150,15 149,15 149,15 150,14 150,14 150,14 150,15 151,15 151,16 151,16 151,16 151,16 151,16 151,16 151,16 152,16 152,16 152,16 152,16 153,15 153,15 154,15 154,15 154,16 153,16 153,16 153,16 154,16 154,16 154,16 155,16 155,16 155,16 155,16 155,16 155,16 155,16 155,17 154,17 154,18 154,18 154,18 154,18 155,18 155,18 156,18 156,18 156,18 156,18 156,18 156,18 156,18 156,18 156,17 156,17 156,17 156,17 156,17 157,17 157,17 157,17 157,17 158,17 159,17 159,17 159,17 159,17 160,16 160,16 161,17 161,17 162,17 163,17 163,17 164,16 165,16 166,15 166,15 166,15 166,15 168,14 172,11 172,11 175,12 175,12 175,12 175,12 175,12 175,12 176,11 177,11 178,10 179,10 179,9 180,9 180,9 181,9 181,9 182,8 182,8 182,8 184,7 184,7 184,6 184,6 185,6 185,5 185,5 185,5 185,5 185,4 185,4 186,3 186,3 187,2 187,2 187,2 187,2 188,1 188,1 188,1 189,0 189,0 189,0 189,0 191,0 191,0 192,0 192,0 192,0 192,0 192,1 192,1 192,1 195,1 195,1 195,1 195,2 195,2 196,2 198,2 199,2 199,2 200,2 201,2 202,2 202,2 202,2 202,3 202,3 202,3 203,3 203,3 204,3 204,3 206,3 206,3 206,2 207,2 208,2 209,1 209,1 210,1 212,0 213,0 213,1 214,1 214,1 215,1 216,2 216,2 217,2 217,2 217,2 217,2 217,3 217,3 219,4 220,5 220,5 219,5 219,5 219,5 219,6 219,6 219,6 219,6 219,7 219,8 221,9 221,9 221,10 220,11 219,11 219,11 219,11 219,12 219,13 218,14 218,14 218,14 218,15 218,16 218,16 217,18 217,18 217,18 218,18 219,18 219,18 219,18 221,18 221,18 222,18 220,20 220,20 221,21 221,21 221,21 223,21 223,21 223,20 223,20 224,20 224,20 224,19 224,19 224,19 224,19 225,18 225,18 226,19 226,19 226,19 227,20 227,20 228,20 228,20 228,20 228,20 228,20 228,20 228,21 228,21 230,21 231,22 232,22 234,22 234,22 234,22 234,24 237,23 238,23 240,23 240,23 241,22 243,22 243,22 244,22 244,22 245,22 246,22 247,22 248,22 249,23 249,23 250,23 250,23 251,23 251,23 252,24 252,25 252,25 254,25 254,25 254,25 254,25 257,25 257,24 257,24 256,24 256,24 256,24 256,24 256,24 256,24 256,24 256,23 256,23 255,23 255,23 255,23 255,23 254,23 254,23 254,22 254,22 254,22 254,22 254,22 254,22 254,21 253,21 253,21 253,20 253,20 253,20 253,20 253,20 253,20 253,20 253,20 253,20 253,20 253,20 253,20 253,19 253,19 253,19 253,19 253,19 253,19 253,19 253,18 253,18 253,18 253,18 253,17 253,17 253,17 254,17 254,17 254,16 254,16 255,16 255,16 255,15 255,15 255,15 255,15 257,15 258,16 258,16 258,16 259,16 259,17 260,16 261,17 261,17 263,17 264,16 265,16 265,16 266,16 267,16 268,16 268,16 270,15 271,15 272,15 273,15 277,16 277,17 278,17 279,17 280,17 281,17 281,17 282,17 282,17 282,18 282,18 283,18 283,18 283,18 283,18 283,19 282,19 283,20 283,20 283,20 281,22 281,22 282,22 282,22 281,23 281,23 281,23 281,23 280,24 280,24 280,24 280,24 280,25 280,25 280,25 281,25 282,26 282,26 283,25 283,25 283,26 283,26 282,27 282,27 282,28 281,28 281,29 280,30 280,30 280,30 280,31 280,31 280,31 280,31 281,31 281,31 281,31 282,31 282,31 282,31 282,32 282,32 283,32 283,33 284,33 284,33 285,33 285,33 286,34 286,34 287,34 287,34 288,34 288,34 288,34 288,34 289,34 288,34 287,33 287,33 288,33 289,33 290,33 290,33 292,33 292,33 293,32 295,31 295,31 295,31 295,30 295,30 295,30 295,30 295,30 295,30 296,29 296,29 300,30 300,30 301,30 301,30 301,31 301,31 301,31 301,32 301,32 305,31 306,31 306,31 307,31 307,31 308,30 308,31 309,30 309,30 310,30 310,29 311,29 311,29 311,28 311,28 311,28 310,28 310,28 310,28 310,28 310,28 310,27 309,27 309,27 309,27 309,27 309,26 309,26 309,26 310,26 310,26 310,25 311,25 312,25 313,25 313,25 313,24 313,24 312,23 312,23 312,23 312,23 313,21 313,21 313,21 312,21 311,20 311,20 311,20 311,20 310,19 310,19 309,18 309,17 309,18 309,18 306,17 306,17 306,16 307,16 308,15 308,15 307,15 307,15 306,15 306,15 306,15 305,15 305,14 306,13 306,13 305,12 305,12 306,12 306,12 306,12 306,12 307,12 307,12 308,12 308,12 309,12 309,12 309,13 309,13 309,14 309,14 310,14 310,14 311,14 311,14 311,14 312,14 313,14 313,14 314,13 314,13 314,13 316,14 316,14 316,14 316,13 317,11 318,11 318,11 318,11 319,11 319,11 319,10 319,10 320,10 322,10 323,10 323,10 323,10 323,10 325,11 324,11 324,11 325,13 325,13 326,13 326,13 326,13 326,12 327,12 328,11 328,11 329,11 329,11 331,11 331,12 331,12 331,12 331,12 332,12 333,13 333,13 333,13 333,13 333,13 333,13 333,13 333,13 333,13 335,12 335,13 336,13 336,13 336,13 336,13 336,14 336,14 332,15 331,15 330,14 330,14 330,14 330,15 330,15 330,15 330,15 330,15 330,15 330,15 330,15 330,15 329,16 329,16 329,16 329,16 328,17 328,18 328,18 328,18 328,18 328,19 329,19 329,19 329,18 330,18 330,18 331,17 332,16 332,16 332,16 332,15 332,15 332,16 332,16 333,16 333,16 333,16 333,16 336,16 336,16 336,18 336,18 337,18 337,20 337,20 337,20 339,20 342,20 342,20 342,20 343,19 343,20 343,20 343,20 344,21 344,21 344,21 344,21 344,21 344,21 344,22 344,22 344,22 344,22 344,22 343,22 343,23 343,23 343,23 343,23 343,24 343,24 343,25 343,25 343,25 342,26 342,26 342,26 343,26 343,26 341,27 341,28 341,28 340,29 340,29 340,30 340,30 340,30 340,30 341,30 341,31 341,31 341,31 341,31 342,32 342,32 342,33 342,33 342,34 342,34 343,35 343,35 344,37 344,37 344,38 344,39 344,39 344,40 345,40 345,40 347,41 347,41 348,41 349,42 350,42 350,42 350,43 352,44 352,44 353,43 353,43 354,43 355,43 355,43 355,43 356,45 357,46 357,46 358,46 358,46 359,46 359,45 359,45 359,45 360,45 361,45 362,45 362,45 363,45 363,46 363,46 362,46 362,46 363,46 363,47 364,47 364,47 364,47 364,47 364,48 365,48 365,48 365,48 365,49 366,49 367,49 367,49 368,49 368,49 368,49 368,49 368,50 368,50 368,50 368,50 368,50 368,50 368,50 368,50 368,50 369,50 369,50 369,50 369,50 369,50 369,50 369,51 369,51 369,51 369,51 369,51 369,52 369,52 369,52 369,52 369,52 369,53 369,53 369,53 370,53 370,52 372,53 373,53 373,53 373,53 373,53 373,53 373,53 373,53 373,53 373,53 374,53 374,53 373,53 374,53 375,54 375,54 377,55 377,55 379,56 379,56 379,56 379,56 379,56 379,56 380,56 380,56 380,56 381,56 381,56 381,57 381,57 381,57 382,57 382,57 382,57 382,57 383,57 383,57 383,57 383,57 383,57 383,57 383,57 384,57 384,57 385,57 385,57 385,57 385,57 386,57 387,57 387,57 387,57 387,57 390,58 390,59 391,60 391,60 392,60 391,61 391,61 391,61 391,62 391,62 391,63 391,63 391,63 391,64 391,65 391,65 391,66 393,68 393,69 393,69 393,69 393,70 393,70 394,69 395,69 395,69 395,69 392,71 392,72 392,73 391,73 391,74 391,76 390,77 390,77 390,77 390,78 390,78 390,78 394,79 396,79 402,80 403,80 403,81 404,81 405,81 405,81 405,81 405,81 406,81 406,81 407,81 412,80 413,80 413,80 415,80 415,80 415,80 415,80 416,80 416,80 422,81 425,81 425,81 428,80 428,80 430,80 431,81 431,81 432,81 432,81 432,81 433,82 433,82 433,82 433,82 433,82 434,82 435,82 435,82 434,83 433,83 433,83 433,83 434,84 434,84 435,85 435,85 434,86 434,86 434,88 434,88 434,88 435,88 435,89 435,89 435,89 435,89 435,89 435,89 435,89 436,89 436,89 436,89 436,90 437,90 437,90 437,90 437,90 438,90 438,90 438,90 438,90 438,90 438,90 438,90 439,91 439,91 439,91 439,91 439,91 439,91 440,91 440,91 440,91 440,91 440,91 440,91 440,91 440,91 440,91 440,91 440,91 440,91 440,91 441,91 441,91 441,91 441,91 441,92 442,91 442,92 442,92 442,92 442,92 442,92 442,92 442,92 442,92 442,92 442,92 443,92 443,92 443,92 443,93 443,93 443,93 443,93 443,93 444,93 444,93 444,93 444,93 444,93 444,94 444,94 444,94 445,94 445,94 445,94 445,94 445,94 445,94 445,94 445,94 445,94 445,94 445,95 445,95 445,95 445,95 445,95 445,95 445,95 445,95 445,96 445,96 446,96 446,96 446,96 446,96 446,96 446,96 446,96 446,96 446,96 446,97 447,97 447,97 447,97 447,97 447,97 447,97 447,97 448,97 448,97 448,97 448,97 448,97 448,97 448,97 448,97 448,97 449,97 449,97 449,97 450,97 450,97 450,97 449,97 449,97 449,97 449,98 449,98 449,98 449,98 449,98 449,98 449,98 449,98 449,98 449,98 448,98 448,99 449,99 449,99 451,100 451,100 450,100 448,101 448,101 449,101 450,103 450,103 450,103 450,103 450,103 450,104 450,104 451,105 451,105 451,105 451,105 452,105 452,105 452,105 453,105 453,105 453,105 453,106 453,106 453,106 453,106 453,107 453,109 453,109 452,109 451,111 450,111 449,111 449,111 449,111 449,111 449,111 448,112 448,112 447,111 446,111 446,111 445,112 445,112 445,112 444,112 444,112 443,112 443,112 443,112 443,111 443,111 442,111 442,111 442,111 442,111 441,112 441,112 440,114 439,115 439,115 439,115 439,115 438,115 438,115 438,115 437,115 437,115 436,115 436,115 436,115 436,115 436,115 436,115 436,114 435,114 435,115 434,115 433,116 433,116 433,116 433,116 434,117 434,117 433,117 433,117 432,117 430,117 430,117 428,118 429,118 429,119 430,119 431,119 431,119 431,119 431,119 431,120 431,120 431,120 431,120 430,121 430,121 430,121 430,121 429,121 429,122 428,122 428,122 430,123 430,123 430,124 430,124 431,125 432,125 432,125 432,125 433,125 433,125 433,125 433,125 434,126 434,127 434,127 434,127 434,127 434,127 434,127 434,127 434,127 434,128 434,128 435,128 437,128 437,128 437,129 437,129 437,130 437,130 438,130 438,130 438,130 438,131 437,132 437,132 439,133 439,133 440,133 440,133 440,133 440,133 440,134 439,134 437,135 437,136 438,136 438,136 438,136 438,137 438,137 437,137 437,138 436,138 436,138 437,139 437,139 437,139 437,139 437,139 437,139 438,139 438,139 439,138 439,138 440,137 440,137 440,137 440,137 441,138 441,138 442,138 442,138 441,139 441,139 442,139 442,139 443,139 444,139 445,139 448,139 448,139 449,140 449,140 450,140 450,140 450,140 450,140 450,140 451,141 451,141 456,143 456,143 457,143 457,143 457,144 458,145 458,145 458,145 458,145 458,146 458,146 458,146 459,147 460,147 460,148 460,148 460,148 460,148 461,149 461,149 461,150 461,150 461,150 461,150 460,150 460,151 460,152 459,152 458,153 458,153 458,153 458,154 458,154 457,154 457,154 457,154 457,154 456,155 456,155 455,156 455,156 455,156 455,156 455,157 455,158 455,158 455,159 455,159 455,159 455,160 455,160 455,161 455,161 455,161 455,162 454,163 454,164 454,164 453,165 454,165 454,165 455,166 455,166 456,167 456,167 455,167 455,168 456,169 456,169 456,169 456,170 456,170 456,171 456,171 455,171 455,171 455,171 455,171 454,172 455,172 455,172 456,172 455,173 455,173 455,173 455,173 454,173 454,174 454,174 454,174 454,174 454,174 452,174 451,173 451,174 451,174 450,175 449,176 449,176 450,176 451,176 452,176 452,176 452,176 452,177 453,177 453,177 454,177 454,177 454,177 455,177 456,177 456,177 456,176 457,176 457,176 457,176 458,176 458,176 459,176 459,177 459,177 460,177 460,177 460,178 459,179 458,180 458,180 457,181 456,181 454,182 454,183 454,183 454,183 453,183 452,184 452,185 452,185 451,185 450,185 450,185 451,186 451,187 451,187 451,187 451,187 450,188 450,188 450,189 450,189 452,188 452,188 451,189 451,189 452,190 452,190 452,190 454,190 454,190 454,191 454,191 453,193 453,193 453,193 453,193 454,194 454,195 454,195 454,196 454,196 456,197 457,198 458,198 459,199 459,199 459,199 459,199 460,199 460,200 460,200 460,200 461,201 461,201 462,202 462,202 462,202 463,202 463,202 464,202 464,202 464,202 463,203 463,203 464,203 464,204 464,204 466,203 466,203 466,203 466,204 466,204 467,204 468,204 468,204 468,204 468,204 468,204 469,204 469,204 469,204 469,204 469,204 469,203 469,203 469,203 469,202 470,202 471,203 471,203 471,202 472,203 473,204 474,204 475,204 475,204 475,203 476,202 477,202 477,202 477,202 477,202 477,202 478,202 478,202 479,202 479,203 480,202 481,203 481,203 481,203 482,203 482,204 482,204 483,204 483,204 484,204 484,205 483,205 482,205 482,205 482,206 485,205 486,205 488,205 489,205 489,205 489,204 489,203 491,203 491,203 491,205 491,206 491,207 491,207 491,207 491,207 491,207 491,207 491,208 492,207 492,208 492,208 492,208 492,208 492,209 493,210 493,210 494,210 494,210 494,211 494,211 494,212 494,212 495,212 495,212 496,214 496,214 497,215 499,216 499,216 500,216 500,216 500,216 500,217 500,217 500,217 500,217 499,217 498,218 497,219 496,219 496,219 496,219 496,220 496,220 496,220 496,220 495,221 495,221 495,221 494,221 494,222 493,223 493,223 492,223 492,224 492,224 492,224 492,224 492,225 492,225 492,225 492,226 492,226 492,227 492,227 492,227 492,228 492,228 492,228 492,228 492,228 492,229 492,229 492,229 492,229 492,229 492,229 492,229 492,229 492,229 493,229 493,230 493,230 493,230 493,230 493,230 493,230 493,230 493,230 493,231 493,231 493,231 493,231 493,231 493,231 493,231 493,231 493,231 493,232 493,232 493,232 493,232 494,232 494,232 494,232 494,233 494,233 494,233 495,233 495,233 495,233 495,233 495,233 495,233 495,233 496,233 496,233 496,233 496,233 496,234 496,234 496,234 497,234 497,233 497,234 497,234 497,234 497,235 496,235 495,235 494,236 492,236 492,236 491,236 491,236 490,237 490,237 489,237 489,238 486,238 484,239 484,239 484,239 484,239 483,239 483,239 483,239 483,238 482,238 482,237 482,237 481,237 481,237 481,238 481,238 481,238 481,238 480,236 480,236 479,236 479,236 479,235 478,235 478,235 478,235 478,236 478,236 477,235 477,235 478,235 478,235 477,234 477,234 476,234 477,235 477,235 476,236 476,235 476,234 476,234 476,234 475,234 475,234 475,235 475,235 475,235 475,235 474,235 474,235 474,235 474,235 474,234 473,234 473,234 473,234 473,234 472,234 472,234 472,235 472,235 469,237 469,237 468,237 468,238 466,239 466,239 466,242 466,242 465,243 464,242 464,242 463,242 461,241 461,241 461,241 460,240 460,240 459,241 459,242 459,243 459,243 459,243 459,243 457,244 457,244 457,244 456,243 454,242 452,240 451,240 449,243 448,245 448,245 448,245 448,247 449,248 449,248 449,249 449,249 448,250 448,250 448,250 447,251 447,251 447,252 446,253 446,253 446,253 446,254 446,255 445,255 445,256 444,257 443,258 442,259 441,259 441,260 440,261 439,262 439,263 439,263 438,264 438,264 437,265 437,265 436,266 436,266 436,268 436,268 437,270 440,271 440,272 442,275 442,275 443,276 445,279 445,279 448,282 448,282 447,284 447,284 448,284 448,284 449,286 449,286 448,287 448,287 448,287 448,287 448,287 448,288 448,288 448,288 448,289 448,289 447,289 447,289 447,290 447,290 447,290 448,290 448,291 448,291 448,291 448,291 450,292 450,293 450,293 450,294 450,294 450,294 450,297 450,297 449,298 449,298 449,298 449,299 449,299 448,299 448,299 448,299 447,299 447,299 447,299 446,299 446,299 446,300 446,300 446,300 446,301 446,301 446,301 446,301 448,306 448,306 449,307 449,307 449,307 450,307 450,307 451,307 452,307 453,308 454,308 454,307 455,307 455,308 455,308 455,308 454,308 454,313 454,313 457,313 458,313 459,314 459,314 460,315 461,316 461,318 461,318 461,318 461,318 461,318 461,319 461,319 462,318 462,318 462,320 462,320 462,321 462,322 462,322 463,322 463,322 463,322 465,322 465,322 465,323 464,323 464,323 465,324 466,325 467,326 467,327 467,327 467,330 468,330 468,330 469,331 470,332 470,332 470,332 470,333 470,333 469,334 470,336 469,337 469,338 469,338 469,338 468,339 467,339 466,339 464,340 463,340 462,340 462,341 462,341 462,342 461,342 460,343 459,344 459,344 458,344 458,344 458,344 458,344 456,344 456,344 456,344 456,344 456,343 455,343 455,343 454,343 454,343 453,343 453,343 453,343 452,343 452,343 451,343 451,343 451,343 450,343 450,343 450,343 450,343 449,344 449,344 449,343 449,343 449,343 449,343 449,343 447,343 447,343 447,344 447,344 447,344 447,345 446,346 447,347 446,347 446,347 446,348 446,349 446,349 447,349 446,350 445,351 445,353 444,353 444,354 444,354 444,354 444,354 443,354 443,354 442,355 442,355 442,355 441,355 440,355 439,355 439,355 439,355 439,355 439,355 438,355 438,356 438,356 438,356 438,356 438,356 438,356 438,356 438,356 438,357 438,357 438,357 438,357 438,357 438,358 438,358 438,358 438,359 438,359 438,359 438,359 438,359 438,359 438,359 438,359 439,359 439,359 439,360 440,360 440,360 440,360 440,360 440,360 440,360 440,360 440,360 440,360 441,361 440,361 440,361 440,361 440,361 440,361 440,361 440,362 440,362 440,362 440,362 441,363 441,363 441,363 440,363 440,363 440,363 440,364 441,364 441,364 441,364 441,364 441,365 441,365 441,365 442,365 442,365 442,365 442,366 442,366 443,366 443,367 442,367 442,369 441,369 441,370 441,370 441,370 440,370 440,370 439,370 439,370 439,370 439,370 438,370 438,370 438,370 438,371 438,371 438,372 438,372 438,373 438,373 438,373 438,373 438,373 438,373 439,374 439,374 439,374 440,374 440,374 440,374 441,374 441,375 441,375 441,376 440,376 441,376 441,376 440,377 440,377 439,378 438,378 438,378 438,379 437,379 437,379 437,379 435,378 435,378 434,378 434,378 433,377 432,377 432,377 432,377 431,377 431,377 431,377 430,376 430,376 430,376 429,377 429,377 428,378 428,379 428,379 428,379 428,379 427,379 427,379 427,379 427,380 425,381 425,381 425,382 424,382 424,383 424,384 424,384 424,384 424,384 424,384 424,385 425,385 425,386 425,386 425,387 425,387 424,388 424,388 424,388 423,388 423,388 423,388 423,388 423,389 423,389 423,389 422,389 422,390 422,390 422,391 422,391 421,391 421,392 421,392 421,392 421,392 420,392 420,392 420,392 420,392 418,391 418,390 418,390 418,390 418,390 418,391 418,391 418,391 418,391 417,391 417,391 416,392 415,393 415,393 414,393 414,393 414,394 414,395 414,395 414,395 413,396 413,396 412,396 412,396 412,396 412,396 410,396 407,394 407,394 406,394 406,394 405,394 405,394 404,393 402,392 400,392 400,392 400,392 400,391 401,391 401,390 400,389 400,389 400,389 401,387 401,387 401,386 401,386 401,386 401,384 401,384 401,384 402,383 402,383 402,383 402,383 402,382 402,382 402,381 402,380 402,380 402,380 402,380 402,380 402,379 403,378 402,378 402,378 402,377 402,377 402,377 402,377 403,377 403,376 403,376 403,376 403,376 403,376 403,375 403,375 403,375 403,374 403,374 403,373 403,373 403,373 403,373 403,373 400,373 400,373 400,372 400,372 399,372 397,370 397,370 396,370 395,370 395,369 395,369 393,368 393,368 392,368 392,368 391,368 391,368 390,368 390,368 387,367 387,367 387,367 386,368 386,369 386,369 386,369 385,368 384,368 383,368 383,368 382,368 382,367 380,367 380,367 379,366 378,366 378,366 378,365 378,365 378,365 378,365 378,365 378,365 378,364 378,364 378,364 378,364 378,364 378,364 377,364 377,364 377,364 377,364 377,364 377,364 377,364 376,364 376,364 375,364 375,364 374,363 373,363 373,363 372,363 372,363 372,363 371,363 371,363 371,363 370,363 370,362 370,362 369,362 369,362 369,362 369,362 369,362 369,362 368,362 367,362 367,362 367,362 367,363 367,363 365,363 365,363 365,363 365,364 365,364 364,364 364,364 361,366 361,366 361,367 361,367 360,368 360,368 360,367 360,367 359,367 359,367 359,367 358,367 358,367 358,367 357,367 357,367 357,367 357,367 356,367 356,367 356,367 356,367 355,367 355,368 355,368 355,368 355,368 354,368 354,368 354,368 353,368 353,368 352,368 352,368 350,369 350,369 349,369 349,369 349,369 348,369 348,370 347,370 347,370 346,369 346,369 346,370 346,370 345,370 345,370 345,370 344,370 344,370 343,370 343,370 342,371 341,371 341,371 341,372 340,372 340,372 340,372 338,372 337,372 337,372 337,372 337,372 335,372 335,372 334,371 334,371 334,371 334,371 333,370 333,370 332,370 332,370 331,371 331,371 331,371 331,370 331,370 330,370 330,370 330,370 328,370 328,370 328,370 326,369 326,369 326,369 326,369 327,365 327,365 327,364 327,364 327,364 327,363 327,363 327,362 326,362 326,362 326,362 326,362 326,362 326,362 326,362 325,360 325,360 326,360 326,360 326,360 326,359 326,359 326,359 326,359 326,359 325,358 325,358 325,357 324,357 324,357 324,357 324,357 325,354 325,353 326,352 326,352 326,352 326,351 326,351 326,351 326,351 326,351 326,351 325,351 325,351 325,351 325,351 325,351 325,351 325,351 325,351 325,351 324,351 324,351 324,351 324,351 324,351 324,352 324,352 324,352 324,351 324,351 324,351 324,351 324,351 323,351 323,351 323,351 323,351 323,352 322,352 322,352 322,352 322,352 322,352 322,352 322,352 322,352 322,352 322,352 322,352 321,352 321,352 321,352 321,352 321,352 321,352 321,352 321,352 321,352 321,352 321,352 321,352 321,352 321,352 320,352 320,352 320,352 320,352 320,352 320,352 320,352 320,352 320,352 320,352 320,352 320,352 319,352 319,352 319,352 319,352 319,352 319,352 319,352 319,352 319,352 319,352 319,352 319,352 319,352 319,352 318,351 318,351 318,351 318,351 318,351 318,351 318,351 318,351 318,351 318,351 318,351 318,351 318,351 318,350 318,350 318,350 318,350 318,350 318,350 318,350 318,350 318,350 318,350 318,350 318,350 318,350 318,349 318,349 318,349 318,349 318,349 318,349 318,349 318,349 318,349 318,349 318,349 318,349 318,349 318,349 318,349 317,349 317,349 317,349 317,349 317,349 317,349 317,349 317,348 317,348 317,348 317,348 317,348 317,348 316,348 316,348 316,348 316,348 316,348 316,348 316,348 316,348 316,348 315,347 315,347 315,347 315,347 315,347 315,347 315,347 315,347 315,347 314,347 314,347 314,348 314,348 314,348 314,348 314,348 314,347 314,347 314,347 314,347 314,347 313,347 313,347 313,347 313,347 313,347 313,347 313,347 313,347 313,347 313,347 313,347 313,347 313,347 313,347 312,347 312,347 312,347 312,347 312,347 312,347 312,347 312,347 312,347 311,347 311,347 311,347 311,347 311,347 311,347 311,347 311,347 311,347 311,347 311,347 311,347 311,347 311,347 311,346 311,346 310,346 310,346 310,346 310,346 310,346 310,346 310,346 310,346 309,346 309,346 309,346 309,346 309,346 309,346 308,346 308,346 308,346 308,346 308,346 307,346 307,346 307,346 307,346 307,345 307,345 307,345 308,345 308,345 308,345 308,345 308,345 308,345 308,345 309,345 309,345 309,345 309,345 309,345 309,345 309,345 309,345 309,345 309,345 309,344 309,344 309,344 309,344 309,344 309,344 309,344 309,344 309,344 309,344 309,344 309,344 309,344 309,344 308,343 308,343 308,343 308,343 308,343 308,343 308,343 308,343 308,343 308,343 308,342 307,342 307,342 307,342 307,342 307,342 307,343 307,343 307,343 307,343 307,343 306,343 305,343 305,343 305,343 304,343 304,343 304,344 304,344 303,344 303,345 302,346 302,346 302,346 302,346 302,347 301,347 301,347 301,347 300,347 300,347 300,347 299,347 299,348 299,348 298,348 298,348 297,349 297,349 297,349 296,349 296,349 296,349 295,349 295,349 295,349 294,349 293,349 293,349 293,349 293,349 293,349 292,349 292,349 292,349 292,349 292,349 291,349 291,349 289,349 289,349 289,349 288,349 288,349 288,349 286,349 286,349 285,349 284,349 284,349 283,349 282,349 282,349 282,349 282,350 282,350 282,350 282,350 281,351 281,351 281,351 281,351 280,351 280,351 280,351 280,351 279,351 278,351 278,351 277,351 277,351 277,351 276,351 276,351 275,351 275,351 275,351 275,351 274,352 274,352 274,352 274,353 274,353 274,353 274,353 274,353 274,353 274,354 274,354 274,354 274,354 273,354 273,354 273,354 273,354 273,354 272,354 272,353 271,353 270,353 270,353 270,353 270,352 270,352 270,352 269,352 269,352 269,352 269,352 269,352 268,351 268,351 268,351 268,351 266,350 266,350 266,350 266,350 265,348 265,347 265,347 265,347 264,347 264,347 264,346 264,346 264,346 264,346 264,346 264,346 264,346 264,345 264,345 260,342 260,342 260,342 260,341 260,342 258,342 258,343 258,343 258,343 257,343 257,344 257,344 256,344 256,345 256,345 255,346 254,347 254,348 254,347 253,345 253,345 253,344 253,344 253,343 253,343 253,343 253,343 253,342 253,342 252,342 252,342 251,341 251,340 251,340 251,340 251,340 250,339 250,339 250,339 250,338 251,338 251,338 251,338 251,338 251,338 251,338 251,338 251,338 252,338 252,337 252,337 252,337 252,337 253,336 253,336 253,336 253,336 253,336 251,334 251,334 252,331 252,330 252,330 252,330 254,331 254,331 252,330 261,325 264,323 264,323 264,323 264,322 265,322 265,322 267,320 267,319 267,317 267,317 268,316 269,314 270,313 270,313 270,312 270,312 270,311 270,311 270,311 271,311 271,311 271,310 272,309 272,309 272,308 273,307 273,307 274,307 277,306 278,306 278,306 279,304 279,304 279,304 283,301 283,300 285,299 286,299 286,298 286,298 286,297 286,297 287,296 287,296 287,296 288,295 288,295 288,295 289,295 294,292 298,291 299,291 299,291 299,291 300,291 300,290 301,290 301,290 302,290 302,289 303,289 304,289 304,288 306,288 306,287 307,287 307,287 309,286 309,286 310,286 310,286 310,286 312,285 313,284 314,283 315,283 315,283 314,282 313,281 312,281 311,280 310,279 308,279 308,279 304,277 303,277 303,277 303,277 303,277 300,276 300,276 299,275 299,275 298,274 298,274 298,274 295,272 294,272 294,272 294,272 291,271 291,271 290,270 289,270 288,269 288,269 288,269 288,269 287,269 282,267 281,267 280,266 280,266 279,266 279,266 278,265 278,265 278,265 277,264 277,264 277,264 276,264 276,264 276,263 276,262 275,262 275,262 275,262 275,262 274,262 273,262 273,262 273,262 273,262 272,262 271,262 271,262 270,262 270,262 269,262 269,262 269,262 269,262 268,262 267,262 267,263 267,263 266,262 266,262 266,262 266,262 266,262 266,262 266,262 266,262 266,262 266,262 266,261 266,261 266,261 266,261 266,261 266,261 266,260 266,260 266,260 266,259 266,259 266,259 266,259 266,258 266,258 266,258 266,258 265,257 265,257 264,257 264,257 263,257 263,257 262,257 261,257 261,257 261,257 260,257 259,257 258,257 258,258 258,258 258,258 257,258 257,258 257,258 255,258 255,259 254,258 254,258 254,258 253,258 253,257 253,257 252,257 252,257 252,256 252,256 252,256 253,255 253,255 253,255 254,255 254,254 254,254 254,254 254,254 253,254 251,253 250,253 250,253 249,254 249,254 249,254 249,255 249,255 249,255 251,255 251,255 251,256 250,256 249,256 249,256 248,256 247,256 247,256 246,256 245,256 244,257 244,258 244,258 243,258 243,258 243,258 241,257 241,257 240,257 240,257 240,257 239,257 238,257 238,257 237,257 236,257 236,257 236,258 235,259 235,260 236,261 237,262 237,263 237,263 236,264 236,264 235,264 235,265 234,265 234,265 234,267 234,267 233,267 233,267 231,268 231,268 231,268 230,268 230,268 229,267 228,267 227,267 226,267 226,266 226,266 225,266 225,266 224,266 224,266 224,266 224,266 223,266 222,267 222,267 222,267 222,268 222,268 221,268 221,268 220,269 220,269 220,269 220,269 219,269 218,269 218,269 217,269 216,269 215,269 215,269 215,268 215,268 214,268 213,267 212,267 212,267 211,267 211,267 211,267 211,267 210,268 210,268 210,268 210,269 210,269 210,269 210,269 210,271 210,271 210,272 209,273 209,274 209,274 210,274 210,274 210,274 209,274 209,274 209,274 208,274 208,274 208,274 208,274 208,274 208,274 208,274 208,274 208,274 207,274 207,274 207,274 207,274 207,273 207,273 207,273 207,273 206,273 206,273 206,273 206,273 206,273 206,273 206,273 206,273 205,273 205,273 205,273 205,273 205,273 205,273 205,272 205,272 205,272 205,272 205,272 204,272 204,272 204,272 204,272 204,272 204,272 204,271 204,271 204,271 204,271 203,271 203,271 203,271 203,271 203,271 203,271 203,271 203,271 203,271 203,271 203,271 203,271 203,271 203,271 203,271 202,271 202,271 202,270 202,270 202,270 202,270 202,270 202,270 203,270 203,270 203,270 203,270 203,270 203,270 203,270 203,270 203,270 203,270 203,270 203,269 203,269 203,269 203,269 203,269 203,269 203,268 203,268 203,268 203,268 202,268 202,268 202,267 202,267 202,267 202,267 202,267 202,267 202,267 202,267 202,267 202,266 202,266 202,266 202,266 201,266 201,266 201,266 201,266 200,266 200,266 200,265 200,265 200,265 200,265 200,265 200,265 200,265 200,265 200,265 200,264 200,264 200,264 200,264 200,264 200,264 200,264 200,264 201,264 201,263 201,263 201,263 201,263 201,263 200,263 200,263 200,263 200,263 200,263 200,262 200,262 200,262 200,262 200,262 200,262 200,262 200,262 200,262 200,262 199,262 199,261 199,261 199,261 199,261 199,261 199,261 199,261 199,261 199,261 199,261 199,261 199,260 199,260 198,260 198,260 198,260 198,260 198,260 198,260 198,260 198,260 197,260 197,260 197,260 197,260 197,260 197,260 197,260 197,260 197,260 197,260 196,260 196,260 196,259 196,260 196,259 196,260 196,260 196,260 196,259 196,259 196,259 195,259 195,259 195,259 196,259 196,259 196,259 196,259 196,259 196,259 196,259 196,259 196,259 196,258 196,258 196,258 197,258 197,258 197,258 197,258 197,258 197,258 197,258 197,258 197,257 197,257 197,257 197,257 197,257 197,257 197,257 197,257 197,256 196,256 196,256 196,256 196,256 195,255 195,255 195,255 194,255 194,255 194,254 194,254 194,254 193,254 193,254 193,254 193,254 193,254 192,253 192,253 192,253 191,253 191,253 191,253 191,253 191,253 190,253 190,253 190,253 190,252 190,252 190,252 190,252 189,252 189,252 189,252 189,252 189,252 189,252 189,252 189,252 189,252 188,252 188,252 188,252 188,252 188,252 188,252 188,252 188,252 188,252 187,252 187,252 187,252 187,252 187,252 187,252 186,252 186,252 186,251 186,251 185,251 185,251 185,251 185,251 185,251 185,251 184,250 184,250 184,250 184,250 184,250 184,250 184,250 184,250 183,249 183,249 183,249 183,249 183,249 183,249 183,249 183,249 183,249 183,248 183,248 183,248 183,248 183,248 183,248 182,248 182,248 182,248 182,247 182,247 182,247 182,247 182,247 182,247 182,247 182,247 182,247 182,247 182,246 182,246 182,246 182,246 182,246 182,246 181,246 181,246 181,246 181,246 181,246 181,245 181,245 181,245 181,245 181,245 180,245 180,245 180,245 180,244 178,244 178,245 178,245 178,245 178,245 178,245 178,245 177,245 176,246 176,246 175,245 175,245 174,245 173,245 173,245 173,245 173,245 172,245 172,245 172,245 171,245 170,245 169,244 168,244 168,243 168,243 168,243 168,243 167,243 167,243 166,242 166,242 165,242 165,242 165,242 164,242 164,242 163,242 163,242 162,242 159,242 159,242 158,241 158,241 158,241 158,241 158,241 158,241 158,240 158,240 158,240 158,240 158,239 158,239 159,239 159,239 160,238 160,238 160,238 160,238 160,237 160,237 160,237 160,237 160,237 160,237 160,237 160,237 160,236 160,236 160,235 160,235 160,234 160,234 160,234 160,234 160,234 160,234 159,233 159,233 159,233 159,233 159,233 159,233 154,231 154,231 153,231 153,231 153,231 152,230 152,230 152,230 152,230 151,230 151,229 151,229 151,229 151,229 151,229 151,228 151,228 150,228 150,227 150,227 150,227 150,227 149,227 149,227 149,227 149,227 149,226 148,226 148,226 148,226 148,226 148,226 148,226 148,225 148,225 148,225 148,225 148,225 148,225 148,224 147,224 147,224 147,224 147,223 147,223 146,222 146,222 146,222 146,221 146,221 146,221 145,221 144,220 144,220 144,220 144,220 144,220 144,219 144,219 144,219 144,219 144,218 144,218 144,218 145,218 145,218 145,218 145,217 145,217 145,217 145,217 145,217 145,216 145,216 144,214 144,213 144,213 143,212 143,212 141,212 141,212 142,211 142,211 142,211 144,211 144,211 144,210 144,209 146,208 147,207 147,207 148,207 148,207 148,207 149,206 149,206 152,205 153,205 153,204 153,204 150,202 150,202 150,202 150,201 150,201 150,201 149,201 149,200 148,200 148,200 148,200 148,200 147,200 147,199 147,199 147,199 147,199 147,199 147,199 147,199 147,199 146,198 146,198 147,198 147,198 147,198 147,198 148,198 148,198 148,198 147,198 147,198 147,197 147,197 147,197 147,197 147,197 147,197 145,197 145,197 143,196 142,196 142,195 142,195 142,195 142,194 143,193 143,193 144,191 144,191 144,191 143,189 143,189 143,188 143,188 143,188 143,188 144,188 144,187 145,187 146,186 146,186 146,186 146,185 145,185 144,185 144,185 143,185 143,185 142,185 142,185 142,185 142,185 142,185 140,184 140,184 140,184 135,184 134,184 134,184 133,182 131,180 130,178 129,175 129,175 129,173 129,173 129,173 127,172 125,172 124,172 123,172 122,171 122,171 121,171 121,172 122,172 121,172 119,172 119,172 118,172 117,172 117,172 116,173 115,173 112,173 111,173 110,173 108,173 108,173 107,173 104,172 102,171 102,171 101,171 100,171 99,170 98,170 98,170 98,170 98,170 98,169 98,169 97,169 97,168 97,168 97,167 97,167 96,166 96,166 96,166 95,166 95,167 95,167 95,167 95,167 95,167 95,167 95,167 95,167 95,167 95,167 95,167 95,167 94,167 94,167 94,167 94,167 94,168 94,168 94,168 94,168 94,168 94,168 94,168 94,168 94,168 94,169 94,169 94,169 94,169 94,169 94,169 94,169 94,169 94,170 94,170 93,170 93,170 93,170 93,170 93,171 93,171 93,171 93,171 93,171 93,171 93,171 92,172 92,172 92,172 92,172 92,173 92,173 92,173 92,173 92,173 92,173 92,173 92,173 92,173 92,173 92,173 92,173 92,173 92,173 91,173 91,173 91,174 91,174 90,174 90,174 90,174 90,174 90,174 90,174 90,174 90,174 90,174 90,174 90,175 89,175 89,175 89,175 89,175 88,175 88,175 88,175 88,175 88,175 88,175 88,175 88,175 88,175 87,176 87,176 87,176 87,176 86,176 86,176 86,176 86,176 86,176 86,176 85,176 85,176 85,176 85,177 84,177 84,177 83,177 83,178 83,178 83,178 83,178 83,178 83,178 83,178 83,179 83,179 83,179 83,179 83,179 83,179 82,179 82,179 82,179 82,180 82,180 81,181 81,181 81,181 81,181 80,181 80,181 79,181 79,181 79,181 79,181 79,181 79,181 78,181 78,181 78,181 77,181 77,181 77,182 76,182 76,182 75,182 75,182 74,182 74,182 74,182 73,182 73,182 73,182 72,182 72,182 72,182 71,182 71,182 70,181 70,181 69,181 69,181 69,181 69,181 68,181 68,180 68,180 68,180 68,180 68,180 68,180 69,179 70,176 70,175 72,172 76,163 77,160 77,159 77,159 77,158 77,156 77,155 77,155 76,155 76,155 76,154 76,153 75,151 75,151 75,151 72,151 71,152 71,152 67,152 67,152 67,153 67,154 67,154 67,154 67,154 66,154 66,154 65,155 65,155 64,155 64,155 64,155 63,155 63,155 62,155 62,155 62,156 61,156 61,156 61,156 61,156 61,157 60,157 60,157 60,157 60,157 60,157 60,157 60,157 60,157 60,157 59,157 59,157 59,157 59,157 59,157 59,157 59,157 59,157 59,157 58,157 58,157 58,157 58,157 58,157 58,157 57,157 57,157 57,157 57,158 56,158 56,158 56,158 55,158 55,158 55,158 55,158 55,157 55,156 55,155 54,155 54,155 54,154 54,154 54,154 54,153 54,152 54,152 54,152 54,151 54,151 54,151 54,151 53,151 53,151 52,151 52,151 51,151 50,151 50,151 49,151 49,151 50,153 48,153 48,153 48,152 48,151 47,151 47,151 48,151 48,150 48,150 48,150 48,150 48,150 48,150 48,150 48,149 48,149 48,149 47,148 48,148 49,148 49,148 49,148 50,148 50,148 50,148 51,148 51,148 51,147 51,147 51,147 50,147 50,147 50,147 50,146 50,146 50,146 50,145 50,144 51,144 51,143 51,143 51,143 50,142 50,142 50,142 50,143 49,143 49,142 49,142 49,142 49,142 49,142 49,142 48,142 48,142 48,142 48,142 48,142 48,142 47,142 47,142 47,142 46,142 46,143 46,143 45,144 45,144 45,144 45,144 45,144 45,145 45,145 45,145 45,145 44,145 44,145 43,145 43,145 42,145 42,146 42,146 41,146 41,146 41,146 40,146 40,146 39,146 40,145 40,145 40,145 40,145 40,145 41,145 41,145 41,144 40,144 40,144 40,144 40,143 41,143 41,143 41,143 41,143 41,142 41,142 41,142 42,141 41,141 41,140 42,141 42,141 42,141 42,140 42,140 42,140 42,140 42,140 42,140 42,140 42,139 43,139 43,139 44,138 44,138 43,139 43,139 43,139 43,140 44,140 44,141 44,141 45,141 45,141 45,141 45,141 46,140 46,140 46,140 46,139 46,139 46,139 46,139 46,139 47,139 47,139 47,139 48,139 48,139 48,139 49,138 49,138 49,138 50,137 50,137 50,135 50,135 51,135 51,135 52,135 53,135 53,135 52,135 52,134 52,134 52,134 51,134 51,134 50,133 50,133 48,132 48,131 47,131 47,131 47,131 47,130 47,130 47,130 47,130 48,129 48,129 48,128 48,128 48,128 48,128 48,127 48,126 48,127 47,127 47,127 47,128 46,128 46,129 46,129 45,129 45,130 45,130 45,130 44,130 44,130 43,129 43,129 42,129 42,129 42,129 41,129 41,129 40,129 40,129 40,129 40,129 40,129 40,129 39,130 39,130 39,130 38,129 38,129 36,128 36,128 36,128 36,128 34,129 30,130 29,130 28,130 27,130 27,130 24,130 23,130 17,129 17,129 15,129 15,129 14,128 13,128 13,128 11,127 11,127 10,126 10,126 9,125 9,125 9,125 8,125 7,124 7,124 7,124 7,123 7,123 7,123 7,123 6,123 6,123 6,123 6,122 5,122 5,121 4,120 4,120 4,120 3,119 2,119 2,119 2,118 2,118 2,118 2,117 2,117 2,117 2,117 2,117 2,116 2,116 2,115 2,114 2,114 2,113 2,113 2,112 2,111 2,111 2,111 2,110 2,110 2,110 2,109 2,107 2,107 3,106 3,106 3,106 3,106 2,105 2,105 1,104 1,103 1,103 1,103 1,103 1,103 1,102 1,102 1,102 1,102 1,101 1,101 1,101 1,100 0,100 0,100 0,100 0,99 0,99 1,98 1,97 2,97 2,96 3,96 3,96 4,96 4,95 4,95 4,95 4,95 4,95 4,94 4,94 4,93 4,93 4,93 4,92 4,92 4,91 4,91 7,91 8,91 9,91 11,92 11,92 12,91 12,91 12,91 11,91 11,91 11,91 12,91 11,91 12,91 12,90 11,90 11,90 11,90 11,90 11,90 11,90 11,90 11,90 11,90 10,90 10,90 10,89 10,89 10,89 10,89 10,88 11,88 11,87 11,87 10,87 10,87 8,87 8,87 9,86 9,85 9,85 9,85 9,85 9,84 9,84 9,84 9,84 9,84 10,83 10,82 10,82 10,81 11,81 11,81 11,81 11,81 11,81 12,82 12,82 12,82 12,82 12,82 12,82 12,82 12,82 12,82 12,82 12,83 12,83 12,83 12,83 12,83 12,83 12,83 12,83 12,83 12,83 12,83 12,83 13,82 13,82 13,81 13,81 13,81 14,81 15,80 15,80 15,80 16,80 16,79 16,79 17,78 15,78 16,77 17,77 17,77 17,78 17,78 17,78 18,79 19,78 19,78 19,78 20,78 21,78 21,78 22,78 22,78 22,78 22,78 22,79 23,78 23,78 24,78 24,78 24,77 24,77 24,77 24,77 24,76 24,75 24,75 24,74 24,74 24,74 25,74 25,73 26,73 27,74 27,74 28,74 28,75 29,75 29,75 29,74 29,74 30,74 30,74 30,74 31,74 31,74 31,74 31,75 32,75 32,75 32,75 33,74 33,75 33,75 33,75 33,74 34,74 34,74 35,74 35,74 35,75 36,76 36,77 36,77 37,77 37,77 38,76 38,77 38,77 38,77 38,77 38,79 38,79 38,79 38,79 38,79 39,79 39,79 39,79 39,80 39,80 40,80 40,80 42,81 42,81 42,81 42,81 43,81 43,81 43,81 44,81 44,81 46,81 47,81 48,80 50,80 50,80 50,80 52,81 52,81 52,81 52,81 53,81 53,81 55,82 56,82 56,82 56,82 57,82 57,82 57,82 58,82 59,83 59,83 59,82 59,82 61,83 61,83 61,82 61,82 61,82 62,82 62,83 63,83 64,82 64,82 65,82 65,82 65,82 66,82 67,81 67,81 69,82 69,83 70,82 71,82 71,82 71,82 72,83 72,83 72,83 72,83 72,83 72,84 72,84 71,85 71,85 72,86 74,88 74,88 74,88 75,89 75,90 75,89 76,89 77,89 77,89 77,88 77,88 77,87 77,87 78,86 78,86 78,86 79,85 79,85 80,85 80,85 80,84 81,80 81,80 81,79 81,79 82,78 82,78 82,78 82,76 83,74 83,73 83,73 83,73 83,73 83,72 83,72 83,71 83,70 83,70 84,69 84,68 84,68 84,68 84,67 84,66 84,66 84,66 84,66 85,65 85,65 85,64 85,64 85,64 86,64 86,64 86,64 86,64 87,64 87,64 87,64 87,63 89,63 89,63 89,63 89,63 90,63 90,63 90,63 90,63 91,63 91,62 92,62 92,62 93,62 94,62 94,62 94,62 94,62 94,62 94,61 94,61 94,61 94,60 94,60 94,60 94,60 94,60 93,60 93,60 94,59 94,59 94,59 94,59 94,59 94,59 94,59 94,59 94,59 94,59 95,58 95,58 95,58 95,58 95,58 96,58 96,58 96,57 96,57 96,57 96,57 96,57 96,57 96,56 97,56 97,56 98,56 98,56 98,56 98,56 98,55 98,55 98,55 99,55 99,54 99,54 99,54 99,54 99,54 100,54 100,54 100,54 100,54 100,54 101,53 101,53 101,53 102,53 102,53 102,53 102,53 102,53 102,53 102,52 102,52 102,52 102,52 102,52 102,52 102,52 102,52 102,52 102,52 102,51 101,51 102,51 102,51 102,51 102,51 102,51 102,50 102,50 102,50 102,50 102,50 102,49 102,49 102,49 102,49 102,49 102,49 101,48 101,48 101,48 101,48 100,48 100,48 100,48 100,48 100,48 99,48 99,47 99,47 99,47 99,47 99,47 98,47 98,47 98,47 98,47 97,47 97,46 97,46 97,46 97,46 97,46 97,45 97,45 97,45 97,45 97,45 97,45 97,45 96,45 96,45 96,45 96,44 96,44 97,44 97,44 96,44 96,44 96,44 96,44 96,44 96,44 96,43 95,43 95,43 95,43 95,43 95,43 95,43 95,43 95,43 95,43 95,43 95,42 95,42 94,42 94,42 94,42 94,42 94,41 94,41 93,41 93,41 93,41 93,40 94,40 96,39 96,39 95,39 95,38 94,39 94,39 94,39 94,39 94,38 94,38 94,38 94,38 94,38 96,37 96,37 97,37 97,37 98,36 99,36 100,36 100,35 100,35 101,35 101,35 103,36 103,36 103,36 103,35 103,35 103,35 104,35 104,35 105,34 105,34 105,34 106,33 106,33 106,33 107,33 107,33 107,33 107,33 107,33 108,32 108,32 110,32 110,31 110,31 109,31 109,31 109,30 109,30 110,30 110,30 111,30 111,30 112,30 113,30 114,30 114,30 114,29 114,29 114,29 114,28 114,28 113,28 113,27 114,26 114,26 116,26 116,26 117,25 117,25 117,25 117,24 117,24" id="8721" class="canton" fill="steelblue" stroke-width="1" stroke="white" geotype="canton" geoname="Saint-Yrieix-la-Perche" code_insee="8721" code_departement="87" nom_departement="Haute-Vienne" code_region="75" nom_region="Nouvelle-Aquitaine"/></svg>