<?xml version="1.0" encoding="utf-8"?>
<svg version="1.1" id="svgmap" xmlns="http://www.w3.org/2000/svg" xmlns:xlink="http://www.w3.org/1999/xlink" x="0px" y="0px" width="100%" height="100%" viewBox="0 0 500 206">
<polygon points="35,47 35,47 35,46 35,46 36,47 36,47 37,44 37,44 37,44 38,44 38,43 38,43 38,43 39,43 39,43 40,42 42,41 42,41 42,41 42,41 42,41 42,40 42,40 42,40 43,40 43,40 43,40 42,38 42,38 42,38 42,37 42,37 42,37 42,37 43,36 43,36 43,36 44,35 44,35 44,35 44,35 45,34 45,33 45,33 45,32 45,32 45,31 48,32 50,33 51,33 53,33 53,33 53,33 55,34 55,34 56,34 56,33 56,32 56,31 56,31 56,31 57,31 59,31 59,31 61,31 62,31 62,31 65,31 67,31 67,31 67,31 69,31 71,31 72,31 72,31 73,31 74,31 74,31 75,32 77,32 77,32 77,32 79,32 79,32 80,31 80,32 81,33 82,34 82,34 82,34 82,35 82,35 83,35 84,36 84,36 85,36 86,37 86,37 87,37 87,37 87,38 88,38 88,38 88,38 89,38 90,38 90,39 91,39 91,39 91,39 91,39 91,39 93,40 94,41 94,41 94,41 94,41 94,41 94,41 94,41 94,42 94,42 95,42 97,43 99,44 99,44 100,45 101,45 101,45 101,45 102,45 103,44 103,44 103,44 103,45 103,45 104,45 104,46 104,46 105,46 105,46 105,46 105,46 106,46 107,47 107,47 108,47 109,47 109,47 109,47 109,46 109,46 109,45 110,45 110,45 110,44 111,44 111,44 111,44 111,44 111,43 111,43 111,43 111,43 111,43 111,43 111,42 111,42 111,42 111,42 111,42 111,42 112,41 113,42 113,42 113,42 113,42 115,44 120,42 124,40 126,39 128,38 128,38 128,39 129,39 130,40 130,40 130,40 129,41 129,41 129,41 130,41 133,41 134,41 134,41 134,41 135,41 135,41 136,41 136,41 137,40 137,40 137,40 137,41 138,38 138,37 138,37 138,36 139,36 139,36 139,36 140,36 140,35 141,35 141,35 142,35 143,35 143,35 143,35 145,36 147,37 147,37 148,37 149,38 149,38 150,38 151,39 152,39 153,40 155,40 155,40 155,40 156,40 157,40 158,40 158,41 158,41 158,41 158,41 159,41 160,41 160,40 162,40 163,40 164,40 164,40 164,40 165,40 165,40 166,40 167,40 168,40 168,40 171,40 172,40 174,40 174,40 174,40 175,40 175,39 175,39 175,39 175,38 175,38 176,38 176,37 177,37 178,37 179,37 180,37 181,37 181,37 182,37 182,37 183,37 184,36 185,36 187,36 188,35 189,35 190,35 191,35 191,35 192,35 193,35 193,35 194,35 194,36 194,35 195,35 195,35 196,35 197,35 197,35 197,35 198,35 199,34 200,33 200,33 200,33 200,33 199,32 199,32 200,31 200,31 202,31 204,32 203,31 202,30 202,30 203,29 204,28 205,28 206,27 207,26 208,25 208,25 207,25 207,25 207,25 207,25 208,24 208,24 209,24 209,24 210,23 210,23 210,23 211,22 211,22 211,22 211,22 212,21 212,21 213,21 213,21 213,21 214,20 214,20 214,20 215,20 215,19 216,19 216,19 216,19 217,18 217,18 218,18 218,17 218,17 219,17 219,16 219,16 220,15 220,15 220,15 220,14 221,14 221,13 221,13 221,13 221,12 222,11 222,11 222,11 222,11 223,12 223,12 224,11 224,11 225,10 226,9 227,9 227,9 227,9 227,9 227,8 228,8 228,8 228,8 228,8 229,8 230,8 232,8 232,8 232,7 232,7 232,7 232,7 233,7 233,7 233,7 233,6 234,6 234,6 234,6 234,6 234,6 234,6 234,6 235,5 236,5 236,5 236,5 236,5 237,4 237,4 238,4 238,4 239,4 240,3 240,3 241,3 242,3 244,2 245,2 245,2 246,2 246,2 247,1 247,1 248,0 248,0 249,0 249,0 250,0 250,1 250,1 250,2 251,2 251,2 251,2 252,3 254,4 256,4 257,5 260,6 261,7 262,7 265,8 268,9 269,9 270,9 270,10 271,10 272,10 273,11 274,12 274,12 274,12 274,12 275,12 276,12 277,13 278,13 281,14 282,14 287,16 288,17 289,17 289,17 289,17 290,18 291,18 292,19 292,19 292,20 292,20 292,21 292,22 293,22 293,23 294,23 295,24 296,24 297,24 297,24 298,25 299,25 300,25 301,25 302,26 304,27 305,28 305,28 305,28 305,29 305,29 305,29 305,29 305,30 304,31 304,32 304,32 303,33 303,34 303,34 303,35 303,36 303,36 303,37 303,39 303,40 303,41 304,41 306,41 308,42 311,43 311,43 312,43 314,43 314,43 315,43 315,43 316,44 317,44 318,44 318,44 319,44 320,44 320,44 322,44 323,44 324,44 326,44 327,45 330,44 332,43 333,41 335,40 338,39 341,36 344,34 342,33 344,32 345,31 349,32 351,32 354,33 354,34 354,34 354,34 355,34 355,35 356,35 356,35 360,36 360,36 364,38 366,38 367,38 368,38 367,37 369,37 369,37 370,37 371,37 371,37 372,37 373,38 374,38 374,37 374,37 375,37 375,37 375,37 376,37 376,37 376,37 377,37 377,37 377,37 378,37 378,37 379,37 379,36 379,36 380,36 380,36 380,36 380,36 381,36 381,36 381,36 382,36 383,36 383,36 384,36 386,37 388,37 390,37 395,37 397,37 398,37 399,37 400,38 405,42 406,41 406,41 406,40 406,40 404,39 404,39 404,39 404,39 404,38 404,38 403,37 403,37 404,36 404,36 404,36 406,35 406,35 407,34 407,34 407,34 407,33 406,32 406,32 405,32 405,32 404,32 404,31 403,31 403,31 403,30 403,30 402,29 402,29 402,28 402,28 402,27 402,27 402,26 403,25 403,25 403,23 403,23 403,22 403,22 403,21 403,21 404,20 404,20 405,20 406,21 406,21 407,21 408,21 408,21 408,21 408,22 408,23 408,23 409,24 411,25 411,25 412,26 413,26 415,26 415,26 416,26 418,25 418,25 418,25 419,24 419,24 420,23 420,22 421,22 421,22 421,22 421,21 421,21 422,20 423,19 423,19 423,19 423,19 423,18 423,18 424,18 423,17 423,17 423,17 423,17 423,17 423,16 422,16 422,16 422,16 422,16 421,15 421,15 420,14 419,14 419,14 418,13 415,12 415,12 413,12 413,12 413,12 412,12 412,12 412,10 412,10 411,10 411,9 410,8 410,8 410,8 411,7 411,7 412,7 412,7 414,6 414,6 416,7 421,6 422,6 422,6 423,6 424,7 424,7 425,7 425,7 425,7 426,7 429,8 433,8 433,8 434,9 434,9 437,10 443,11 443,11 444,10 444,10 445,11 445,11 446,10 446,11 448,11 448,11 448,11 448,11 448,12 449,12 449,12 449,12 449,12 449,12 450,13 450,14 450,14 452,15 452,15 453,15 453,15 453,15 453,15 453,15 454,15 454,16 454,16 454,16 455,16 456,16 456,16 459,17 459,17 460,17 461,18 461,18 461,18 462,18 463,18 463,18 464,18 464,18 467,18 467,18 469,19 470,19 470,19 470,19 471,19 471,19 471,18 474,15 478,11 478,11 478,11 478,11 479,11 480,12 480,13 481,13 481,13 481,13 484,14 484,14 485,15 486,15 486,15 487,15 487,15 488,16 490,16 490,17 491,17 493,18 493,18 494,18 494,19 494,19 495,19 495,19 495,19 495,20 496,20 496,20 496,21 496,21 497,21 497,21 497,21 497,21 497,21 497,21 497,21 492,25 490,26 488,28 488,28 488,28 489,28 490,28 491,28 494,28 494,28 495,28 495,28 497,29 497,29 498,29 498,30 498,30 499,30 499,30 499,31 499,31 499,31 499,32 497,33 497,33 497,33 497,34 497,35 497,36 496,36 496,37 496,38 497,39 497,40 497,40 497,40 496,42 496,42 496,43 496,44 496,44 496,44 495,45 495,45 495,45 494,45 494,46 493,46 493,46 493,46 493,47 493,47 492,48 492,48 492,48 490,49 490,49 490,49 490,49 490,50 489,50 489,51 489,51 490,54 490,54 489,55 489,55 489,55 489,55 489,55 488,56 487,56 488,58 488,58 487,58 486,59 485,59 484,59 483,60 481,61 480,61 479,61 479,61 478,62 477,64 476,64 476,64 476,63 476,63 474,63 474,63 474,63 473,64 473,64 473,64 473,65 473,65 473,65 473,66 473,66 474,67 474,67 474,67 475,68 475,68 475,68 475,68 475,68 474,69 474,69 474,69 475,70 475,70 475,70 475,70 475,70 475,70 474,71 473,72 473,72 473,72 473,72 473,73 473,73 473,73 473,73 473,73 476,75 476,75 480,77 480,77 480,77 480,78 480,80 480,81 481,82 481,83 481,85 481,85 484,86 484,86 484,86 485,86 485,86 485,87 486,88 486,88 486,89 489,90 489,90 490,94 490,94 492,96 493,98 496,104 497,104 497,103 497,103 497,103 498,103 498,102 500,101 500,101 500,107 499,107 492,109 492,109 486,111 484,111 481,112 480,112 477,113 477,113 471,114 469,114 471,117 471,122 471,125 471,125 469,130 468,131 467,131 466,132 465,132 475,134 475,134 479,135 480,135 481,135 482,136 485,136 485,136 490,137 493,137 494,137 495,137 495,137 495,137 496,138 497,138 498,139 498,139 497,139 497,139 497,139 497,139 497,139 497,140 497,140 497,140 497,140 497,140 497,140 497,140 497,140 497,140 497,140 497,141 497,141 497,141 496,141 496,141 496,141 496,141 496,141 496,141 496,142 496,142 496,142 496,142 496,142 495,142 495,143 495,143 495,144 495,144 495,144 496,144 497,145 497,145 499,146 499,146 499,148 499,148 498,149 498,149 500,149 499,150 499,150 499,151 499,151 499,151 499,152 500,152 500,152 500,152 499,153 499,153 499,153 499,153 498,154 498,154 499,154 499,155 498,156 498,156 497,156 497,157 497,157 496,158 496,158 497,158 496,159 496,159 497,159 497,159 497,160 497,161 497,161 497,162 497,162 497,163 497,163 497,164 497,164 497,164 498,164 498,164 498,166 497,166 497,165 495,170 495,170 498,171 498,171 496,176 496,176 494,175 491,179 491,180 491,180 491,181 491,181 491,181 491,183 491,183 492,184 492,184 492,185 493,186 494,188 495,188 495,188 495,189 495,189 496,189 496,190 497,190 497,191 495,192 495,192 492,192 492,190 490,190 487,190 487,190 487,189 487,189 487,188 487,188 487,186 486,186 486,185 486,183 485,183 486,182 485,181 485,181 485,180 483,180 481,180 479,180 479,179 475,179 475,179 473,179 473,178 471,178 472,178 472,178 472,178 472,177 472,177 472,177 472,177 472,177 472,177 471,177 471,177 471,177 471,177 471,177 470,177 470,177 469,177 469,178 468,178 467,178 465,178 465,177 465,177 465,176 465,176 465,176 464,175 462,175 457,177 456,178 455,178 455,178 454,179 453,179 452,179 452,179 452,179 452,179 451,180 452,181 450,182 450,182 449,183 449,183 447,185 446,186 444,187 444,187 441,191 441,191 439,192 439,192 438,194 439,195 437,196 435,195 435,195 433,193 432,194 431,193 427,192 426,191 424,193 422,194 417,191 415,190 413,189 408,187 407,186 405,186 403,185 401,184 400,184 397,182 396,182 396,181 395,181 394,181 392,180 391,180 390,180 388,179 388,179 387,179 387,180 386,180 386,180 386,181 385,181 385,181 384,181 384,181 383,181 382,181 381,181 380,180 379,180 378,180 378,180 378,180 377,180 377,180 377,180 376,179 376,178 375,177 376,176 376,175 378,175 377,175 379,174 379,174 378,173 378,173 377,173 377,172 377,172 376,172 374,172 374,171 374,170 375,168 376,168 376,167 377,168 377,168 378,168 378,168 379,168 380,168 380,168 381,168 383,169 383,169 383,169 383,169 383,169 384,169 384,168 384,167 385,167 385,168 386,168 386,168 387,168 391,167 391,167 392,167 392,167 393,167 394,168 395,167 396,165 396,163 398,161 399,158 401,154 403,150 405,146 405,146 402,145 398,144 397,143 396,143 395,142 390,140 388,139 387,139 386,138 385,138 384,137 384,137 384,137 384,137 384,137 384,137 383,136 382,136 382,136 382,136 381,136 381,136 381,136 381,136 381,135 381,135 380,135 380,135 379,135 378,135 378,134 374,133 373,133 373,132 372,132 372,132 372,132 371,132 371,131 369,131 366,129 364,128 363,128 361,127 360,127 357,126 357,126 355,126 355,126 354,126 354,126 353,127 344,131 343,132 339,134 339,134 336,136 334,139 333,140 330,144 329,146 329,146 329,146 329,146 329,146 329,146 329,146 328,146 328,147 328,147 328,147 328,148 328,148 328,148 329,148 329,149 328,149 328,150 328,150 328,150 328,151 328,151 329,151 329,151 330,151 330,151 329,152 329,152 328,153 328,153 328,154 328,154 327,156 327,156 326,156 327,156 327,156 327,156 330,158 330,158 330,158 331,159 331,159 329,160 326,162 326,162 330,164 330,164 325,166 318,169 318,169 317,169 316,169 316,169 316,169 315,170 314,170 314,170 311,171 311,171 310,171 310,171 309,171 309,171 309,171 308,172 306,174 304,176 304,177 303,177 303,177 302,178 301,180 301,180 301,180 296,184 296,184 294,183 293,183 293,183 293,183 293,183 293,183 292,184 292,184 292,184 292,184 292,184 290,185 289,185 289,185 288,185 287,186 287,186 286,186 286,186 285,187 285,187 284,188 284,188 284,188 282,189 282,189 282,189 280,189 280,190 280,190 279,190 279,190 278,191 278,191 277,191 277,191 277,191 275,192 275,192 274,193 273,193 273,193 273,193 271,193 271,193 270,194 270,194 269,194 269,194 269,194 269,194 268,195 268,195 268,195 267,195 267,196 267,197 267,198 266,200 266,200 266,201 266,201 266,202 265,202 264,204 263,206 263,206 263,206 262,206 260,206 259,206 258,205 256,205 256,205 255,205 254,205 254,205 254,205 252,205 252,205 251,205 250,205 250,205 250,205 250,205 252,203 255,203 256,203 256,203 258,200 258,200 258,200 258,200 258,199 258,199 258,199 258,199 259,198 260,197 260,197 261,197 261,197 260,196 259,195 259,195 258,194 258,194 256,192 255,192 255,191 255,191 255,191 254,190 254,190 254,189 254,189 254,188 253,188 253,188 253,187 254,186 254,186 254,186 254,185 254,185 254,185 256,183 256,183 257,182 257,182 258,181 259,181 259,180 260,180 260,180 261,181 262,181 263,181 263,181 263,181 263,181 263,180 263,178 264,177 264,176 264,176 264,175 259,174 257,173 256,173 256,172 255,172 255,172 255,172 254,172 252,171 252,171 251,171 251,171 249,170 248,169 247,168 247,168 246,168 245,167 244,166 244,166 244,165 243,164 243,164 243,164 243,164 243,163 243,163 244,163 244,162 244,162 244,162 244,162 243,161 241,160 241,159 241,159 241,159 240,159 240,159 239,157 239,157 239,157 238,157 238,157 237,157 236,158 234,157 232,157 232,157 231,156 229,156 227,155 225,156 224,156 224,155 223,155 222,155 220,154 220,154 218,153 218,153 216,152 213,151 213,151 210,149 209,149 209,148 203,147 203,147 197,145 196,145 193,144 193,144 189,144 189,144 188,143 187,143 187,141 186,141 183,141 181,142 181,142 180,142 179,142 178,142 177,142 168,144 168,144 164,144 158,145 156,145 154,145 154,146 153,146 152,146 152,146 146,145 143,145 143,145 142,145 140,145 138,145 136,145 136,144 135,144 135,144 132,144 131,144 130,144 130,145 130,145 129,145 129,145 128,145 127,145 124,145 123,146 122,146 120,146 120,145 120,145 119,145 118,145 117,145 115,145 115,145 112,145 110,145 109,145 109,145 109,145 107,145 104,146 104,146 103,146 102,146 102,146 101,147 101,147 101,147 99,148 99,149 98,149 97,149 97,149 97,150 96,150 96,150 96,151 96,151 96,151 96,151 95,150 94,151 93,151 89,150 89,150 86,149 86,149 87,147 87,147 86,146 88,146 89,145 84,145 84,145 85,143 85,143 85,137 86,137 86,136 87,135 87,135 86,135 86,134 86,134 85,133 85,132 85,132 85,132 85,132 84,132 84,132 84,132 84,132 84,133 83,133 83,133 83,133 82,133 82,133 80,134 80,134 80,133 79,133 79,133 77,135 77,135 74,135 74,135 71,136 71,136 71,136 71,136 70,136 70,136 69,136 67,136 67,136 66,136 65,136 64,136 63,136 63,136 62,135 61,137 61,135 61,135 58,136 57,134 56,135 55,134 55,135 54,135 53,136 53,136 52,136 51,136 51,137 51,137 51,137 51,136 50,136 50,135 50,133 50,133 50,133 49,129 49,129 49,129 49,128 50,128 50,128 52,127 52,127 52,125 52,125 53,124 52,124 52,122 52,121 51,121 51,120 51,120 52,120 52,119 52,118 52,118 53,115 53,114 53,113 53,112 53,110 53,110 54,108 54,108 54,107 55,107 55,106 56,105 56,105 56,105 56,105 57,103 57,103 57,103 58,102 60,101 60,101 60,101 60,100 60,100 59,100 55,100 54,100 54,100 53,101 53,101 53,101 52,101 50,101 50,101 50,101 50,101 49,102 48,102 48,102 48,102 48,102 47,102 47,103 46,103 46,103 46,103 45,103 45,103 44,102 44,102 44,102 44,102 43,102 43,102 43,102 41,101 41,101 40,101 40,101 40,102 39,102 39,101 39,101 38,101 38,101 37,101 36,101 36,100 36,100 35,101 34,101 34,101 34,101 33,102 33,102 33,102 32,101 32,101 32,100 32,100 32,100 32,100 31,99 31,98 32,98 32,98 32,98 32,98 32,98 32,97 31,98 31,98 31,97 31,97 30,97 30,97 30,96 30,96 30,96 30,95 30,95 30,95 30,94 30,94 30,93 30,93 30,93 30,92 31,92 31,92 31,92 31,92 31,91 31,91 31,91 31,91 31,91 31,91 31,91 31,91 31,91 31,91 31,91 31,91 32,91 32,91 32,91 32,91 31,91 31,91 31,90 31,90 31,90 32,90 32,90 33,90 33,90 33,89 33,89 32,88 32,88 33,88 33,88 33,88 32,87 32,87 29,85 29,85 29,85 29,85 30,84 30,84 31,83 31,83 31,82 32,82 33,81 34,81 34,81 34,81 34,81 34,80 34,80 34,80 33,79 33,78 32,77 31,77 30,77 30,77 29,77 29,76 29,76 29,75 28,75 28,74 26,74 25,73 25,72 23,72 22,72 22,72 22,71 22,71 21,72 21,72 20,72 20,72 20,72 20,72 20,73 19,73 19,73 19,73 19,73 19,73 18,74 18,74 16,74 15,74 15,74 15,74 14,74 14,73 13,73 12,73 12,73 12,73 12,73 12,73 12,72 11,72 11,72 11,73 11,72 11,72 11,72 9,72 9,72 8,72 8,72 8,72 8,71 7,71 7,71 7,71 7,71 7,71 7,71 7,71 7,71 7,71 7,70 7,70 7,70 7,70 6,70 6,70 6,70 6,70 6,70 6,70 6,70 6,70 6,70 6,70 6,69 6,69 6,69 6,69 6,69 6,69 5,69 5,69 5,68 5,68 5,68 5,68 6,68 6,68 5,68 5,68 4,67 4,67 4,67 4,67 4,67 4,67 4,67 4,67 4,67 4,67 4,66 4,66 4,66 4,66 4,66 4,66 4,66 4,66 4,65 3,65 3,64 3,64 3,64 3,64 2,63 2,63 2,63 1,63 1,63 1,63 0,62 0,62 0,62 0,62 0,62 0,62 0,62 0,61 0,61 0,60 0,60 0,60 0,60 0,60 0,60 0,60 1,60 1,60 1,60 1,60 1,59 1,59 0,59 0,59 0,59 0,59 0,59 1,59 2,58 3,58 3,58 3,58 3,57 3,57 3,57 4,57 4,56 4,56 5,56 5,56 5,56 6,56 6,56 7,56 8,56 8,56 8,56 8,56 8,56 8,56 9,56 9,56 9,56 10,56 10,56 10,56 12,55 12,55 13,55 13,55 14,55 15,54 15,54 15,54 17,53 17,53 21,51 21,51 21,51 22,51 22,51 22,51 23,51 23,50 24,50 24,50 24,50 24,51 24,51 25,52 25,52 25,52 25,52 26,52 26,52 26,52 27,53 28,53 28,53 28,53 29,54 29,54 29,53 29,53 29,53 29,53 29,52 29,51 29,51 29,51 29,51 29,50 29,50 29,49 29,49 29,49 30,49 30,49 31,49 31,49 32,49 33,49 33,48 35,48 35,48 35,47 35,47" id="8911" class="canton" fill="steelblue" stroke-width="1" stroke="white" geotype="canton" geoname="Joigny" code_insee="8911" code_departement="89" nom_departement="Yonne" code_region="27" nom_region="Bourgogne-Franche-Comté"/></svg>