<?xml version="1.0" encoding="utf-8"?>
<svg version="1.1" id="svgmap" xmlns="http://www.w3.org/2000/svg" xmlns:xlink="http://www.w3.org/1999/xlink" x="0px" y="0px" width="100%" height="100%" viewBox="0 0 500 243">
<polygon points="118,20 119,19 120,19 120,19 121,19 123,18 124,18 125,17 126,16 128,16 129,16 129,16 129,15 130,15 132,15 132,14 133,14 134,14 135,14 135,14 136,13 136,13 137,13 138,13 139,12 139,10 139,9 139,9 140,8 140,8 141,6 144,4 146,3 146,2 146,1 147,1 148,1 152,0 153,0 156,1 157,2 159,4 157,5 157,5 156,6 155,7 154,8 151,10 152,12 152,12 153,15 153,18 153,19 153,21 154,22 153,23 155,23 156,24 158,25 160,26 162,25 162,27 162,28 163,29 163,29 164,29 164,30 166,31 167,33 166,34 163,37 163,38 163,39 164,41 165,43 166,45 168,47 168,48 169,48 170,49 174,52 175,52 176,53 178,53 183,54 184,55 187,58 187,58 188,59 188,60 188,60 186,62 185,63 188,66 187,68 188,69 189,70 189,70 193,71 194,73 197,75 198,75 199,75 200,76 201,76 203,77 204,77 205,77 205,77 208,77 212,76 215,76 215,76 216,76 218,76 219,76 220,76 223,76 225,77 226,77 230,79 231,79 239,82 241,82 241,83 242,84 242,84 246,85 251,85 251,85 253,85 254,85 255,86 256,86 256,86 258,86 259,86 260,85 261,85 262,85 264,85 265,84 269,84 270,84 272,84 275,83 276,83 276,84 277,84 278,84 278,84 279,85 281,85 281,86 282,86 284,87 286,89 287,90 288,90 288,91 294,93 294,93 295,94 295,95 295,95 296,96 297,96 298,97 299,98 300,99 302,99 306,99 308,99 309,99 310,98 310,99 310,98 311,98 312,98 314,97 317,95 318,95 318,95 319,95 319,95 319,95 320,95 321,95 322,95 323,95 324,95 325,95 325,95 326,95 327,95 328,96 328,96 329,98 330,99 331,101 332,102 333,104 334,105 336,106 338,106 339,107 341,107 343,107 343,107 346,108 348,108 349,109 350,111 352,114 354,115 357,116 361,117 365,118 367,120 367,120 368,121 370,123 372,123 372,123 378,125 381,126 381,127 381,127 381,128 382,130 383,131 386,131 388,132 390,132 392,131 394,131 395,131 398,131 400,131 401,131 403,132 405,134 409,136 412,137 416,138 419,138 421,139 424,140 424,140 424,141 427,141 431,141 431,141 436,142 438,143 440,144 442,145 444,146 447,146 449,147 451,147 453,148 455,149 459,146 461,145 462,147 464,151 465,153 466,155 466,155 467,157 468,159 469,161 471,163 472,164 473,164 473,164 474,165 476,166 477,165 477,166 477,166 478,167 479,167 479,168 480,169 480,170 482,170 484,170 485,171 485,171 486,172 487,172 488,173 487,173 489,174 490,175 491,176 491,176 495,178 500,184 497,184 497,185 497,185 497,188 498,190 500,190 500,190 500,190 500,190 499,191 498,192 496,193 494,193 494,193 494,194 494,194 492,197 491,199 490,200 489,202 489,202 487,205 486,206 485,207 484,209 483,210 483,211 483,211 482,212 482,212 482,213 482,213 479,213 478,213 478,213 477,213 471,213 466,213 460,213 460,213 459,213 459,213 459,213 459,213 456,213 456,212 449,212 446,213 443,213 442,214 438,214 434,215 434,214 431,215 424,219 423,219 417,222 415,223 414,223 413,224 410,225 408,226 405,227 403,227 403,227 401,228 396,231 396,231 395,232 395,232 394,232 393,233 390,234 389,235 384,237 384,237 383,237 380,238 376,239 375,239 372,240 367,240 362,241 361,241 359,241 357,242 357,241 357,241 356,240 356,240 356,240 356,239 356,239 355,239 355,239 355,239 355,238 355,238 355,238 355,238 355,238 355,237 355,237 355,237 353,235 353,235 353,235 353,235 353,234 352,235 352,235 349,235 347,236 346,236 344,236 344,236 343,236 343,236 342,236 335,235 333,235 330,235 329,234 328,234 325,233 324,233 322,234 320,234 318,234 316,235 315,235 308,237 303,239 302,239 301,239 298,239 296,240 288,243 286,242 285,241 282,240 280,239 277,239 274,239 273,239 272,239 270,238 267,238 264,238 265,239 263,239 263,239 262,238 262,238 261,237 260,237 259,236 259,235 257,235 257,235 259,234 259,234 258,233 258,233 257,232 257,232 253,234 251,235 246,236 243,236 240,236 241,235 239,233 239,232 238,232 237,232 236,232 234,232 234,231 232,228 222,225 219,225 209,223 208,223 208,223 206,223 205,223 196,223 188,222 186,223 184,224 182,224 171,226 167,227 153,226 149,225 149,225 148,225 144,226 144,225 141,225 141,226 139,226 133,226 133,225 133,224 131,224 129,225 129,225 129,226 128,226 128,226 122,228 121,229 120,229 119,229 118,229 114,231 110,232 107,233 106,234 106,234 106,234 105,235 104,235 103,236 103,236 102,236 101,237 101,237 100,237 100,237 100,237 99,237 99,236 99,236 99,235 99,235 99,235 98,235 98,235 98,235 99,234 100,234 99,233 99,233 98,233 98,233 98,232 96,233 96,233 96,233 96,233 96,234 96,234 96,234 96,234 95,235 95,235 95,235 95,235 95,235 94,235 94,235 93,235 93,235 93,234 92,234 91,234 87,237 87,237 86,236 84,237 84,237 84,237 84,237 81,237 80,236 80,237 71,238 67,239 58,238 55,238 47,240 43,241 41,235 41,230 37,225 36,225 35,225 33,224 32,223 30,223 30,222 25,220 25,218 25,218 24,217 24,216 24,215 24,215 24,213 24,212 24,212 25,211 25,211 25,211 25,210 25,209 25,209 24,208 24,208 25,208 26,207 27,206 27,206 29,204 29,203 29,202 29,202 29,201 29,201 28,201 28,201 27,200 26,199 26,198 26,198 25,198 25,197 25,197 25,197 24,197 24,196 23,196 23,196 22,196 22,195 22,195 22,195 22,194 22,194 22,194 22,193 22,193 21,192 21,191 21,190 20,189 20,188 19,188 19,188 18,188 18,188 18,188 17,188 16,188 16,188 16,187 15,187 14,186 13,186 13,186 12,186 12,186 11,186 11,186 10,185 10,185 10,185 10,185 9,184 9,184 9,184 8,184 8,184 8,183 8,183 7,183 8,183 8,183 7,183 7,182 6,182 6,182 5,181 4,181 3,180 3,180 3,179 2,179 1,178 0,178 0,178 0,178 0,178 1,177 1,177 1,176 1,176 2,175 3,174 4,173 5,173 5,172 6,172 6,172 6,172 6,172 6,172 6,171 8,169 8,168 8,168 8,168 8,165 8,164 8,162 7,161 7,159 7,157 6,156 6,156 6,155 6,154 4,146 3,142 2,137 3,136 5,135 6,135 9,131 14,127 14,125 14,120 14,118 15,118 15,117 17,116 18,115 20,111 21,111 22,110 23,109 28,105 31,103 33,102 33,101 34,100 34,99 35,99 35,99 36,99 37,97 38,97 39,96 40,94 40,92 40,91 43,87 44,86 45,85 47,83 47,83 50,79 51,77 51,77 54,75 61,72 64,71 64,70 65,70 68,71 70,71 71,70 72,69 73,68 74,67 75,67 75,66 76,66 77,65 77,65 79,64 79,64 83,61 83,61 84,60 86,60 86,60 87,59 88,59 89,59 90,58 90,57 92,55 93,55 97,55 98,53 98,51 98,51 98,51 98,50 99,49 99,49 101,48 103,47 103,47 103,47 103,46 103,45 103,45 103,45 104,44 104,43 105,43 105,43 105,42 106,41 107,41 108,40 109,40 109,39 109,39 109,38 110,38 110,37 110,36 112,36 112,35 114,34 114,34 114,33 113,33 113,33 115,31 116,30 117,30 120,29 121,29 122,29 123,28 122,28 121,27 121,27 121,26 120,26 120,25 120,25 120,24 120,23 119,23 120,22 119,21 119,21 118,20" id="9007" class="canton" fill="steelblue" stroke-width="1" stroke="white" geotype="canton" geoname="Giromagny" code_insee="9007" code_departement="90" nom_departement="Territoire de Belfort" code_region="27" nom_region="Bourgogne-Franche-Comté"/></svg>