<?xml version="1.0" encoding="utf-8"?>
<svg version="1.1" id="svgmap" xmlns="http://www.w3.org/2000/svg" xmlns:xlink="http://www.w3.org/1999/xlink" x="0px" y="0px" width="100%" height="100%" viewBox="0 0 500 216">
<polygon points="0,47 0,46 0,46 0,46 1,46 1,46 1,46 2,45 3,45 3,45 3,44 3,44 3,44 4,44 5,44 5,43 5,43 6,42 6,42 7,42 7,41 7,41 8,41 8,40 9,40 9,40 10,40 12,40 12,39 13,39 13,39 14,38 16,39 19,39 19,39 20,39 20,39 21,39 21,38 21,38 22,38 22,38 23,38 23,38 23,37 24,37 24,37 25,37 25,37 26,37 26,37 26,38 27,38 28,38 29,38 29,39 30,38 30,38 30,37 30,37 30,37 31,37 31,37 35,37 37,33 38,32 39,32 41,31 42,31 43,30 45,30 46,30 48,29 49,28 51,27 52,27 52,26 53,26 54,26 55,26 55,25 56,25 57,25 58,25 59,25 60,25 61,25 62,24 68,23 68,23 71,23 77,26 80,27 82,27 83,27 83,27 83,27 84,27 86,28 88,28 92,28 95,27 96,27 98,27 100,27 102,27 104,26 107,25 108,25 109,25 112,25 114,27 118,29 119,30 125,27 130,25 133,23 135,21 134,18 135,18 135,18 136,19 137,19 138,20 139,20 141,20 142,20 145,19 147,18 149,17 151,16 152,15 153,15 156,14 157,14 158,14 161,13 162,12 168,11 168,11 170,11 171,10 174,10 175,10 180,11 182,10 184,7 184,4 184,3 184,3 184,2 184,2 184,2 185,2 185,1 186,1 186,0 187,0 190,0 190,0 190,0 190,0 191,0 191,0 191,1 191,2 191,4 191,5 190,5 190,6 190,7 190,8 191,8 191,9 191,9 192,9 192,10 193,12 193,12 194,13 193,14 192,17 192,18 191,19 190,21 190,21 190,22 190,22 190,23 190,23 190,25 190,26 191,27 191,28 191,29 191,31 191,33 190,34 191,34 190,36 188,42 186,46 185,48 183,51 183,51 182,51 181,51 180,51 173,51 172,49 172,48 170,47 167,44 165,42 162,40 159,38 156,36 155,35 154,34 153,34 152,33 149,33 143,33 142,33 138,34 134,36 129,38 128,39 126,39 125,41 124,41 119,45 118,46 118,46 115,47 111,51 109,53 108,53 115,55 119,54 120,54 132,51 141,50 155,58 155,63 155,67 155,69 155,72 160,75 166,78 169,80 171,81 170,81 171,82 174,84 176,86 176,86 178,88 178,88 179,89 179,90 181,94 182,95 182,96 183,98 184,99 184,100 185,101 186,104 188,107 188,107 187,108 186,109 186,109 186,109 186,109 186,109 186,110 186,110 186,110 186,110 186,110 186,111 187,111 187,111 187,111 187,112 187,112 187,112 188,113 188,113 188,113 188,115 188,116 189,117 190,117 193,116 194,117 195,117 196,118 197,119 199,121 198,122 198,122 200,124 200,125 201,126 202,127 202,127 202,127 205,131 210,130 210,130 211,131 212,131 212,132 222,134 226,134 227,132 233,134 232,135 230,136 234,142 235,144 235,144 236,146 236,147 236,147 237,149 237,149 234,149 234,151 234,151 234,151 234,151 233,151 233,152 233,152 233,152 234,152 234,152 234,154 234,155 235,156 235,157 235,157 237,159 239,159 242,160 241,160 242,162 244,162 245,162 254,162 256,162 259,158 261,153 261,152 262,148 264,143 267,137 268,137 278,138 283,136 283,136 287,140 289,141 289,142 290,143 291,144 291,144 292,146 300,144 301,142 302,143 309,141 319,140 324,138 330,136 331,136 339,134 341,134 346,131 348,131 351,130 352,129 354,128 358,126 361,125 363,124 362,124 360,125 359,125 358,125 358,125 358,125 358,125 358,124 358,124 357,124 357,124 358,124 357,123 355,122 353,123 352,124 350,124 349,124 347,124 347,123 344,123 344,122 344,121 344,120 344,119 345,118 347,115 355,112 358,109 368,103 372,100 375,97 373,94 372,93 370,91 369,89 368,87 372,88 376,88 376,88 376,88 374,86 376,85 375,85 375,85 377,83 379,83 380,84 382,86 388,80 397,74 407,70 407,67 406,61 405,59 405,54 405,54 405,52 406,52 409,54 415,54 415,51 412,50 412,46 414,46 416,43 418,42 426,42 433,40 433,37 440,36 447,36 453,37 480,45 482,47 479,50 482,53 486,56 489,58 494,60 495,68 496,71 496,71 496,72 498,74 500,77 500,77 498,86 493,96 485,103 485,111 485,113 485,113 479,114 476,114 464,114 464,114 463,114 462,123 458,125 454,127 451,130 456,138 456,141 454,141 451,142 445,143 438,144 435,144 429,156 421,154 413,154 412,155 411,156 412,157 411,158 407,162 407,163 403,169 396,178 392,186 391,188 388,198 387,200 378,201 374,202 373,202 357,204 351,203 342,201 333,203 323,204 321,204 319,205 318,205 317,205 315,206 309,208 300,210 288,209 280,208 280,207 280,207 279,207 279,208 270,207 270,207 263,207 260,204 238,207 238,210 229,208 217,210 215,210 214,210 212,211 207,212 205,214 202,215 201,215 201,216 199,216 198,216 197,215 196,215 195,215 194,215 193,215 192,215 191,215 190,214 184,212 180,210 176,209 176,206 175,203 174,203 173,203 172,202 169,202 166,202 162,203 160,205 157,204 157,205 156,206 154,204 153,204 151,204 148,204 140,203 137,202 134,200 132,199 132,199 124,192 114,183 102,177 95,173 93,171 89,169 84,164 82,163 79,160 77,158 74,155 70,152 69,151 67,151 65,152 62,151 60,149 53,148 51,148 49,148 47,148 45,148 40,150 38,150 38,149 36,147 35,145 34,143 31,141 26,141 21,141 17,141 14,140 12,141 6,142 6,140 6,139 4,137 4,136 2,136 1,135 0,134 0,134 2,131 3,131 3,130 3,129 4,126 4,125 5,124 6,124 25,112 33,107 42,101 42,97 38,85 36,83 35,82 33,81 31,80 27,77 28,76 29,75 31,71 32,70 33,69 34,69 35,69 35,68 34,66 33,65 29,62 25,60 20,58 16,53 15,50 15,50 14,50 13,49 9,48 7,47 5,47 5,47 4,47 3,48 2,48 1,47 0,47 0,47" id="9001" class="canton" fill="steelblue" stroke-width="1" stroke="white" geotype="canton" geoname="Bavilliers" code_insee="9001" code_departement="90" nom_departement="Territoire de Belfort" code_region="27" nom_region="Bourgogne-Franche-Comté"/></svg>