<?xml version="1.0" encoding="utf-8"?>
<svg version="1.1" id="svgmap" xmlns="http://www.w3.org/2000/svg" xmlns:xlink="http://www.w3.org/1999/xlink" x="0px" y="0px" width="100%" height="100%" viewBox="0 0 500 254">
<polygon points="291,0 303,8 312,15 319,22 323,26 328,29 334,33 339,37 348,47 354,53 358,57 364,61 369,64 383,68 398,74 401,76 409,80 410,80 417,85 422,89 424,92 425,97 428,101 436,110 441,114 442,115 461,127 476,133 477,134 482,137 492,143 495,144 500,148 492,152 484,156 469,160 463,161 428,169 425,170 422,167 420,167 411,171 413,173 414,174 415,174 411,177 387,189 362,202 360,202 357,200 356,199 329,219 321,224 314,226 311,226 308,225 307,224 303,221 299,219 296,218 293,218 293,219 291,223 291,225 293,226 293,227 284,240 283,239 274,237 257,233 252,232 252,232 246,230 243,230 235,227 232,227 230,226 227,226 225,225 222,224 220,224 220,224 219,224 217,224 213,224 212,224 209,224 207,224 203,224 199,223 199,223 193,223 192,223 190,223 187,223 186,223 185,223 185,223 182,222 181,222 181,222 181,222 179,222 179,222 178,222 177,222 176,222 174,221 172,221 170,221 169,221 169,221 169,221 168,221 168,221 167,221 163,221 162,221 161,221 158,221 157,221 157,221 156,221 154,221 154,221 153,221 153,221 153,221 152,222 149,222 148,222 146,222 145,222 143,222 141,223 138,223 130,223 129,223 125,223 120,223 116,224 114,224 112,224 111,224 111,224 108,223 106,223 104,223 103,223 102,223 100,223 100,224 100,224 100,224 100,225 101,226 101,227 102,228 104,228 104,229 106,230 106,230 107,231 107,231 108,232 110,233 110,233 110,233 110,234 109,234 109,235 108,236 108,237 108,237 108,237 108,237 108,238 108,238 107,240 107,241 106,243 106,244 105,247 104,249 103,251 103,252 102,253 102,253 102,254 101,254 100,253 99,253 98,253 96,253 93,252 89,251 89,251 89,251 88,251 88,251 85,251 81,250 79,250 76,250 74,249 72,249 71,249 70,249 68,249 68,249 66,248 64,248 62,248 62,248 59,248 58,247 58,248 58,248 56,247 54,247 53,247 52,247 51,247 50,247 50,247 62,217 37,214 30,206 21,195 14,195 9,192 3,191 0,190 8,179 33,169 54,160 45,157 42,152 41,149 39,145 40,142 48,139 59,138 65,138 73,141 76,136 77,134 78,130 79,121 79,118 79,117 81,118 82,118 86,112 86,112 87,111 87,111 88,110 89,108 91,105 92,104 92,103 93,102 95,101 93,101 92,100 91,99 91,97 91,95 93,93 95,91 97,89 101,88 107,88 114,87 117,86 121,86 126,85 132,83 134,80 134,79 148,68 151,64 174,66 175,62 178,52 186,26 187,25 190,24 195,28 219,48 219,47 221,47 222,46 224,44 229,41 238,35 246,31 247,30 247,29 252,26 257,23 266,19 269,16 269,16 272,14 273,13 274,13 274,12 274,12 274,11 274,11 275,10 277,8 277,8 278,7 281,6 282,5 285,4 291,0" id="9109" class="canton" fill="steelblue" stroke-width="1" stroke="white" geotype="canton" geoname="Évry" code_insee="9109" code_departement="91" nom_departement="Essonne" code_region="11" nom_region="Île-de-France"/></svg>