<?xml version="1.0" encoding="utf-8"?>
<svg version="1.1" id="svgmap" xmlns="http://www.w3.org/2000/svg" xmlns:xlink="http://www.w3.org/1999/xlink" x="0px" y="0px" width="100%" height="100%" viewBox="0 0 500 331">
<polygon points="0,182 2,180 6,174 9,169 11,164 16,153 21,137 24,131 27,123 29,120 30,119 31,117 33,113 36,109 40,106 45,102 51,98 60,94 72,87 83,82 93,77 124,61 139,54 155,48 181,42 193,40 207,39 228,35 236,33 243,32 255,29 258,28 266,36 273,37 277,36 281,32 285,34 283,43 284,44 281,47 278,51 277,52 278,55 280,57 284,58 285,60 292,72 299,81 307,88 320,97 329,102 333,99 334,96 332,95 329,94 328,93 328,93 329,92 330,91 330,90 330,89 329,88 327,86 325,86 323,85 323,84 324,82 323,81 319,80 315,78 314,77 313,76 312,75 313,75 314,74 314,73 314,72 314,72 312,69 312,68 311,67 310,67 309,65 311,63 312,63 313,62 312,60 313,58 315,54 316,52 317,50 315,49 315,48 314,43 317,42 331,54 335,51 336,52 336,51 338,52 341,54 341,54 343,55 340,58 354,60 354,59 355,58 356,57 355,57 355,57 354,57 355,54 355,54 357,52 368,55 370,52 370,49 353,47 344,45 339,42 343,39 349,40 354,32 367,36 368,36 376,36 386,37 392,37 394,27 391,24 395,23 411,21 411,21 413,19 414,17 425,17 425,6 431,1 438,0 443,9 444,19 461,16 469,13 476,13 492,12 493,16 492,17 491,17 488,18 490,25 490,25 492,28 498,28 498,35 498,39 498,39 498,39 494,39 495,45 495,46 497,47 498,49 499,50 500,51 500,52 500,53 500,53 498,57 498,59 496,65 495,65 496,66 495,67 495,70 496,71 496,72 495,74 494,77 494,77 488,79 488,79 486,79 484,80 483,80 482,79 480,79 475,77 472,76 470,76 469,75 465,79 463,82 459,80 459,80 455,84 452,88 450,91 449,92 449,93 448,94 448,94 446,95 445,95 444,100 443,101 442,103 442,106 441,108 440,111 434,111 433,111 432,113 432,113 430,114 429,114 428,114 428,115 429,115 430,115 438,117 439,117 440,117 442,117 443,117 445,116 447,115 455,112 461,110 463,109 464,108 467,107 472,106 474,105 476,104 476,104 477,105 477,106 477,106 478,108 480,110 480,110 481,110 482,111 483,111 483,110 484,110 485,110 485,109 486,109 488,110 489,110 489,111 489,111 489,112 490,113 490,114 491,115 491,117 491,117 492,118 492,118 493,118 493,118 497,118 497,120 498,122 498,126 499,131 500,135 499,138 498,138 497,140 496,144 494,144 493,144 491,148 491,148 491,148 491,150 490,152 489,156 494,156 495,158 495,160 495,161 496,162 496,165 496,165 497,167 497,169 498,174 499,178 497,180 494,183 488,189 487,190 485,190 484,193 483,197 481,201 480,205 478,210 477,213 477,212 464,205 463,205 461,203 458,202 458,201 457,201 453,199 451,198 447,196 445,194 444,194 439,191 432,187 429,186 419,180 412,176 402,170 399,168 397,167 392,165 387,162 386,161 382,159 380,158 379,157 375,155 372,153 367,151 366,150 364,149 362,148 359,147 359,147 355,151 354,151 354,152 353,155 352,159 352,160 352,161 351,161 351,161 352,161 352,162 352,162 352,162 351,162 351,162 351,162 352,163 352,164 357,169 360,172 377,189 395,207 398,209 398,209 396,210 394,211 381,215 379,215 371,217 371,218 353,223 352,221 347,213 347,212 346,211 347,208 348,204 349,200 349,196 350,192 334,193 323,193 323,192 323,192 312,193 311,189 301,189 301,190 301,192 300,194 299,196 300,200 300,204 302,210 303,211 302,212 302,212 300,212 300,212 301,214 295,214 294,213 292,210 291,208 290,206 289,204 288,201 287,196 285,197 285,197 283,197 283,197 275,198 274,198 275,199 276,201 277,202 278,203 281,208 282,210 284,212 286,215 286,216 286,216 286,216 289,216 289,216 289,217 290,219 290,219 289,220 286,222 284,223 283,223 284,224 286,227 286,228 287,231 288,234 289,237 292,242 294,244 294,244 298,247 298,248 300,250 301,252 302,254 302,255 302,256 303,257 304,257 312,264 314,266 315,266 316,266 316,266 320,267 322,268 323,268 325,268 326,268 327,267 329,267 330,266 331,266 332,266 333,266 334,266 336,267 337,267 338,268 339,269 340,269 340,270 342,275 342,276 343,279 343,280 343,281 345,284 345,285 346,291 350,298 351,299 353,301 354,303 355,304 355,305 356,306 356,306 356,307 356,309 356,309 356,309 356,309 351,311 351,311 350,311 309,325 298,331 298,331 239,282 240,281 231,273 229,271 229,271 229,271 229,271 203,246 201,245 191,238 190,237 184,233 169,222 168,222 168,222 138,241 137,241 137,241 133,239 130,238 120,233 120,233 120,233 118,234 118,234 117,234 116,234 103,225 99,223 99,223 99,223 99,223 96,221 95,220 94,220 94,220 94,220 93,219 92,219 92,219 91,219 87,216 86,215 85,215 85,215 80,212 78,211 72,209 69,207 68,207 65,205 64,205 62,206 62,206 58,205 49,200 33,194 29,192 14,187 1,182 0,182" id="9119" class="canton" fill="steelblue" stroke-width="1" stroke="white" geotype="canton" geoname="Vigneux-sur-Seine" code_insee="9119" code_departement="91" nom_departement="Essonne" code_region="11" nom_region="Île-de-France"/></svg>