<?xml version="1.0" encoding="utf-8"?>
<svg version="1.1" id="svgmap" xmlns="http://www.w3.org/2000/svg" xmlns:xlink="http://www.w3.org/1999/xlink" x="0px" y="0px" width="100%" height="100%" viewBox="0 0 425 500">
<polygon points="128,0 133,0 150,2 152,2 166,3 169,3 182,4 194,5 196,6 206,7 219,8 233,9 244,10 249,10 254,10 261,11 267,12 299,14 312,15 318,15 332,14 329,18 318,32 317,34 323,62 325,62 327,62 331,62 335,63 348,62 356,67 365,64 387,70 393,71 396,65 398,66 397,55 399,51 402,51 402,43 405,37 408,33 422,35 417,55 415,60 401,95 392,118 384,139 352,221 340,251 328,283 327,286 328,287 329,287 368,298 369,299 370,299 388,303 398,305 407,307 402,330 406,331 399,345 403,345 398,358 415,362 403,386 403,386 405,387 401,394 400,397 401,397 425,401 414,422 406,419 395,430 389,428 381,441 378,444 372,452 365,463 359,474 352,485 350,492 342,500 249,483 272,425 266,426 253,428 249,428 248,428 247,428 245,428 231,424 230,424 221,423 201,420 193,419 192,419 191,418 181,417 188,407 186,407 180,406 180,405 195,379 200,369 211,350 211,349 220,333 221,334 225,325 220,325 216,325 214,325 210,324 205,325 204,325 198,324 196,324 188,324 181,324 177,324 175,324 169,323 160,322 146,321 136,318 134,318 134,317 131,313 123,301 118,293 111,282 107,275 94,254 88,243 81,232 70,221 65,216 75,206 73,206 48,190 48,190 42,192 36,192 32,191 19,189 13,187 3,187 0,187 1,186 2,183 4,180 8,175 10,172 12,170 15,168 18,165 21,163 24,160 24,160 25,160 26,159 27,158 28,157 29,156 29,156 30,156 38,149 90,102 132,96 133,96 135,85 137,75 139,69 140,66 142,63 144,59 146,57 149,54 155,47 169,32 117,14 122,8 123,6 124,6 127,2 128,1 128,0" id="9203" class="canton" fill="steelblue" stroke-width="1" stroke="white" geotype="canton" geoname="Bagneux" code_insee="9203" code_departement="92" nom_departement="Hauts-de-Seine" code_region="11" nom_region="Île-de-France"/></svg>