<?xml version="1.0" encoding="utf-8"?>
<svg version="1.1" id="svgmap" xmlns="http://www.w3.org/2000/svg" xmlns:xlink="http://www.w3.org/1999/xlink" x="0px" y="0px" width="100%" height="100%" viewBox="0 0 500 254">
<polygon points="0,202 35,193 56,187 75,179 79,177 78,176 77,175 76,175 76,174 75,174 74,174 75,173 75,173 76,173 77,173 78,173 82,171 82,171 78,160 78,160 76,154 74,151 74,151 73,151 69,145 64,137 57,129 50,121 59,120 63,120 83,115 85,115 86,114 88,113 89,113 90,113 92,112 99,110 101,110 104,109 105,108 105,108 117,105 129,101 133,99 135,97 154,92 157,91 169,88 173,87 178,86 179,86 192,84 193,83 193,83 195,83 196,83 204,83 205,84 209,85 214,85 220,85 222,85 222,76 229,76 229,79 229,82 229,83 229,83 229,85 229,85 229,91 245,91 255,92 256,87 256,83 256,83 259,83 261,83 262,84 267,85 272,85 273,84 275,85 277,86 278,87 279,87 282,87 283,87 288,88 290,88 291,89 299,90 303,90 308,91 309,91 319,92 320,93 321,90 322,88 323,87 324,81 325,80 324,80 324,79 323,78 323,77 324,77 325,76 328,71 328,71 331,64 345,74 345,73 350,63 353,64 357,66 362,68 366,70 369,71 376,60 381,54 379,54 377,53 385,38 384,38 384,37 392,25 395,21 395,21 391,20 378,18 378,18 376,17 380,16 391,13 399,10 400,10 401,9 402,9 418,4 427,1 429,0 430,1 434,7 439,13 442,18 456,36 456,36 457,37 458,38 460,39 461,40 463,42 466,45 468,46 470,48 476,52 478,54 479,55 482,58 484,60 487,62 488,64 490,65 494,69 498,73 500,75 494,80 480,91 473,96 472,97 457,107 438,121 426,131 426,132 425,132 424,133 423,134 420,137 419,147 419,148 418,162 391,160 379,158 365,157 359,158 348,161 362,201 364,205 364,205 366,210 368,215 331,227 329,224 324,214 323,212 322,210 314,196 314,195 314,194 312,194 304,196 303,196 298,197 295,198 287,200 283,201 259,208 259,215 260,216 252,219 225,228 216,229 215,230 208,231 205,232 196,234 193,235 191,235 187,236 186,237 185,237 184,237 168,241 167,240 165,239 165,237 164,236 161,232 161,231 160,232 154,233 140,237 135,238 131,234 130,234 127,234 126,234 122,235 121,235 118,236 115,236 110,237 104,238 103,238 102,238 102,239 101,239 100,239 81,243 59,247 44,250 26,254 24,254 26,253 27,251 18,235 18,233 17,233 17,233 17,233 13,224 10,219 6,213 3,206 2,205 1,204 0,202" id="9211" class="canton" fill="steelblue" stroke-width="1" stroke="white" geotype="canton" geoname="Colombes-2" code_insee="9211" code_departement="92" nom_departement="Hauts-de-Seine" code_region="11" nom_region="Île-de-France"/></svg>