<?xml version="1.0" encoding="utf-8"?>
<svg version="1.1" id="svgmap" xmlns="http://www.w3.org/2000/svg" xmlns:xlink="http://www.w3.org/1999/xlink" x="0px" y="0px" width="100%" height="100%" viewBox="0 0 500 484">
<polygon points="164,103 141,73 133,60 118,36 119,35 133,31 135,30 162,25 186,20 218,14 247,8 247,8 250,8 250,7 252,7 253,7 262,5 269,4 274,3 279,2 279,2 286,1 287,1 291,0 293,0 299,6 301,8 302,9 303,10 307,15 309,17 312,20 320,28 322,29 325,33 326,33 330,37 332,40 337,45 338,46 339,46 340,48 342,50 342,50 347,55 349,57 349,57 350,58 353,61 358,66 359,67 360,69 363,71 365,73 365,74 366,75 366,75 366,76 376,88 376,88 377,88 377,89 378,91 385,99 386,100 387,101 389,102 399,109 399,110 400,111 416,122 431,134 436,138 445,145 450,150 454,153 456,156 457,156 457,156 464,162 474,170 475,171 476,172 481,176 486,180 500,192 489,200 481,206 469,218 458,228 455,231 454,232 436,251 465,261 452,277 444,286 434,297 423,307 411,319 385,340 369,354 346,375 343,378 341,381 337,384 304,417 271,444 262,450 257,452 251,454 217,462 151,481 141,484 147,477 147,476 151,474 152,472 156,468 160,465 163,462 166,459 169,457 176,450 177,449 178,449 179,448 180,447 182,446 183,445 184,444 185,444 186,443 186,442 189,440 190,439 193,438 198,434 209,426 197,420 196,420 190,417 183,414 174,409 174,409 165,405 157,401 153,399 151,398 138,392 139,391 149,383 150,381 153,379 156,377 160,373 163,371 163,370 164,369 168,366 177,358 181,356 182,355 185,352 190,348 203,337 188,336 171,335 160,334 160,334 136,333 129,333 118,333 115,331 108,328 99,325 88,322 69,317 61,315 59,314 56,313 49,309 37,302 28,297 25,296 18,292 17,291 15,291 0,286 30,257 30,252 51,238 83,215 87,212 86,211 116,194 120,191 117,187 121,185 109,171 111,170 126,150 171,113 164,103" id="9213" class="canton" fill="steelblue" stroke-width="1" stroke="white" geotype="canton" geoname="Courbevoie-2" code_insee="9213" code_departement="92" nom_departement="Hauts-de-Seine" code_region="11" nom_region="Île-de-France"/></svg>