<?xml version="1.0" encoding="utf-8"?>
<svg version="1.1" id="svgmap" xmlns="http://www.w3.org/2000/svg" xmlns:xlink="http://www.w3.org/1999/xlink" x="0px" y="0px" width="100%" height="100%" viewBox="0 0 468 500">
<polygon points="41,271 42,270 46,269 50,268 56,266 57,266 59,266 63,265 64,264 64,264 57,252 56,251 55,249 50,244 49,243 46,240 43,238 39,236 38,234 37,233 41,234 48,236 54,238 57,239 62,240 70,240 75,243 88,245 95,243 96,243 96,242 95,242 92,240 88,235 85,233 82,230 80,229 80,228 89,221 90,220 99,213 100,213 100,212 105,208 109,207 110,206 111,207 112,209 117,213 117,213 123,210 131,207 132,206 133,206 133,205 145,202 148,200 150,199 155,197 164,192 165,191 171,188 178,183 178,183 179,183 178,182 176,181 172,180 157,175 154,173 153,173 153,173 152,173 148,171 144,169 143,169 142,168 141,168 141,168 129,163 128,162 123,160 120,158 121,157 119,156 118,156 117,155 115,154 104,150 98,148 97,147 87,142 86,142 86,142 76,135 71,132 69,130 66,128 66,127 64,126 59,123 58,122 58,122 57,121 79,109 93,101 103,95 125,83 136,76 154,66 163,61 179,52 189,46 210,34 230,22 234,16 250,11 262,5 270,0 291,12 301,15 380,21 409,27 430,41 436,49 396,81 383,99 382,100 392,112 388,114 391,117 388,120 362,135 363,135 359,138 331,158 313,171 313,174 287,200 300,204 302,204 303,205 308,208 311,210 319,214 329,220 336,223 338,224 340,225 347,227 364,231 373,234 381,236 387,239 390,240 400,241 405,241 426,242 426,242 436,242 450,243 463,244 452,254 448,257 445,259 444,260 441,263 433,269 430,272 429,273 428,273 426,275 422,279 420,281 418,283 416,284 408,291 407,292 418,297 420,298 423,300 430,303 438,307 439,307 446,311 452,314 457,316 458,316 468,322 459,328 454,331 452,333 452,334 449,335 448,336 447,337 447,337 446,338 445,339 444,340 442,341 442,341 441,342 440,343 434,348 432,350 429,353 426,355 423,358 419,362 418,363 415,365 415,365 409,371 398,383 387,394 377,406 376,407 365,419 363,424 360,427 356,437 348,460 343,470 337,480 329,496 328,499 313,498 308,497 295,495 287,494 276,493 275,493 269,493 263,493 262,493 258,493 257,493 255,493 251,494 248,494 246,494 242,494 234,495 233,495 231,495 221,495 220,495 219,495 216,495 214,495 212,495 207,495 201,496 198,496 196,497 192,497 186,499 184,499 181,500 179,500 179,500 178,500 178,500 177,500 177,500 176,499 168,481 163,473 162,471 147,476 141,478 136,479 124,481 115,483 109,484 100,485 96,485 91,487 84,488 81,488 78,489 74,489 69,489 49,485 0,475 5,464 7,459 9,455 11,451 13,446 14,445 22,429 29,414 37,418 47,424 49,424 61,427 63,428 66,428 76,430 86,432 90,433 91,433 97,435 101,437 102,436 106,427 108,425 109,422 113,414 113,413 114,412 119,403 128,406 136,407 146,408 147,408 147,402 146,397 145,395 145,390 145,385 145,384 146,382 146,381 147,379 150,374 153,371 157,368 158,367 159,367 167,361 172,357 152,363 143,366 141,366 139,366 129,355 121,345 113,342 108,335 89,319 91,318 99,314 101,312 83,299 80,297 77,295 75,294 63,286 61,285 47,275 41,271" id="9220" class="canton" fill="steelblue" stroke-width="1" stroke="white" geotype="canton" geoname="Nanterre-2" code_insee="9220" code_departement="92" nom_departement="Hauts-de-Seine" code_region="11" nom_region="Île-de-France"/></svg>