<?xml version="1.0" encoding="utf-8"?>
<svg version="1.1" id="svgmap" xmlns="http://www.w3.org/2000/svg" xmlns:xlink="http://www.w3.org/1999/xlink" x="0px" y="0px" width="100%" height="100%" viewBox="0 0 500 228">
<polygon points="26,89 28,88 30,87 30,86 44,84 65,96 70,99 77,103 85,107 94,112 94,112 97,114 101,116 110,118 115,119 115,120 123,117 135,114 145,109 152,106 153,105 156,107 156,107 157,108 164,113 170,117 172,119 173,120 175,122 179,124 184,128 186,130 193,136 198,130 198,130 199,130 199,130 205,124 211,120 213,119 216,114 217,113 218,111 219,110 220,109 221,108 223,106 224,105 227,101 223,96 223,95 233,81 234,81 234,81 235,81 237,82 238,82 239,83 240,83 269,40 272,41 272,41 272,42 272,42 273,42 274,42 278,42 291,46 292,46 293,46 299,47 300,47 300,47 300,47 300,47 309,48 311,49 311,49 311,49 312,49 318,51 325,54 325,55 325,55 325,56 325,56 327,57 331,59 332,60 338,61 340,59 340,59 342,60 342,60 346,54 346,54 346,54 347,52 348,52 348,51 357,44 357,44 357,44 359,42 362,39 363,38 363,38 364,38 364,37 360,35 360,35 361,34 363,29 367,24 367,24 367,24 373,14 373,14 374,14 378,9 378,8 387,11 388,10 388,10 388,10 389,10 391,7 391,7 392,7 392,6 392,6 393,6 395,4 395,4 396,3 396,3 396,2 397,1 397,1 397,1 397,0 398,0 403,2 404,2 405,2 405,2 406,3 413,4 424,7 424,7 429,4 433,3 449,7 500,14 486,46 486,47 484,63 484,64 484,66 484,68 484,69 483,70 483,71 483,72 483,83 483,85 482,87 482,88 481,96 482,101 451,101 450,109 437,110 425,110 426,111 428,116 431,122 434,127 437,134 438,135 442,144 449,153 450,154 452,156 452,157 452,157 453,157 453,158 457,168 460,175 469,192 455,192 438,192 425,191 425,193 424,197 409,196 409,196 403,196 400,193 399,192 399,192 399,192 380,191 382,186 383,184 384,183 368,179 368,182 367,181 357,179 358,177 357,177 356,177 353,176 357,170 358,168 360,165 360,165 363,161 354,159 353,159 335,172 328,170 325,171 317,184 299,195 287,199 285,200 275,204 271,202 271,201 274,199 248,194 236,191 230,195 226,198 223,202 224,203 217,211 218,211 219,211 219,211 220,212 221,212 223,212 226,211 230,212 235,208 236,209 242,213 247,216 245,217 245,218 238,221 238,221 229,228 224,223 218,219 207,212 198,208 189,205 173,201 159,197 145,193 133,190 140,179 143,172 136,170 129,169 126,168 124,168 119,167 115,166 109,165 107,164 101,163 95,162 92,161 85,159 83,159 71,156 68,155 67,155 67,154 65,153 64,153 62,152 56,149 45,142 42,139 39,137 34,132 30,129 23,122 23,121 22,121 21,120 19,117 17,115 18,115 16,112 15,112 14,111 11,108 9,107 7,105 7,104 1,98 0,97 1,97 8,94 12,93 15,92 16,92 24,90 26,89 26,89" id="9309" class="canton" fill="steelblue" stroke-width="1" stroke="white" geotype="canton" geoname="Épinay-sur-Seine" code_insee="9309" code_departement="93" nom_departement="Seine-Saint-Denis" code_region="11" nom_region="Île-de-France"/></svg>