<?xml version="1.0" encoding="utf-8"?>
<svg version="1.1" id="svgmap" xmlns="http://www.w3.org/2000/svg" xmlns:xlink="http://www.w3.org/1999/xlink" x="0px" y="0px" width="100%" height="100%" viewBox="0 0 500 500">
<polygon points="0,231 11,228 14,227 13,224 12,221 16,218 13,216 13,210 9,205 6,201 6,200 4,197 3,195 3,193 3,191 3,188 4,183 5,181 8,176 26,171 25,177 26,177 28,177 32,176 32,176 43,173 46,172 47,171 49,170 51,168 53,166 55,164 58,164 63,163 71,161 71,162 72,163 72,163 72,164 71,164 72,165 72,165 72,165 74,166 75,166 81,163 89,158 92,155 107,137 109,135 113,137 115,136 120,134 127,130 130,129 130,128 131,127 132,126 132,126 133,125 134,125 134,113 136,109 133,108 150,90 151,86 156,86 156,83 157,79 154,79 156,73 162,73 167,73 167,69 169,62 182,63 182,63 192,37 194,29 244,20 297,11 317,8 327,6 357,0 332,45 326,60 343,65 361,71 355,78 365,82 363,86 370,89 368,91 372,89 376,90 388,89 388,109 393,111 394,112 392,114 393,115 386,121 385,122 383,121 381,124 380,125 378,127 373,131 368,136 368,137 364,142 359,145 357,147 353,150 352,151 348,154 342,160 342,160 347,166 349,162 361,168 360,169 356,173 373,180 379,175 390,170 401,166 398,160 401,159 401,158 404,157 406,156 408,155 408,155 410,155 410,155 412,155 412,155 412,154 412,152 414,151 414,151 415,150 415,150 415,149 416,149 417,149 416,148 417,148 418,148 420,146 420,146 421,146 421,146 422,145 423,144 422,144 425,142 426,143 427,143 424,140 426,139 435,135 438,137 435,138 444,148 451,145 452,147 455,143 458,143 462,147 467,150 469,150 473,148 477,146 477,155 481,156 486,157 489,157 494,159 491,161 487,162 500,163 499,171 497,176 495,176 490,182 487,186 481,192 478,197 477,198 475,199 473,199 458,203 455,204 453,205 451,207 451,209 451,210 450,211 451,211 452,212 453,213 455,215 456,216 456,217 455,218 454,219 452,220 447,221 445,223 445,225 445,227 445,228 459,229 473,230 467,246 445,248 444,250 442,254 440,257 439,259 426,275 425,277 422,280 420,283 417,287 416,288 415,291 413,292 411,293 410,294 408,295 406,297 404,299 398,302 397,302 388,304 383,305 377,307 370,307 367,307 363,307 363,308 362,308 361,309 348,310 336,312 332,312 321,313 316,312 314,307 318,307 312,302 309,299 305,295 302,292 294,285 284,275 279,277 274,279 271,280 267,283 265,285 264,287 255,300 252,303 250,308 246,311 234,316 232,316 223,321 227,327 225,337 224,337 221,339 209,348 214,349 213,350 209,352 215,356 216,357 212,361 211,362 203,367 202,367 198,369 196,370 197,372 197,373 201,384 207,402 205,402 206,403 177,408 173,409 169,410 165,411 161,411 155,412 151,413 152,420 149,421 146,422 142,422 140,423 139,426 138,428 136,431 134,434 139,437 140,438 142,440 143,443 144,444 144,445 145,447 145,448 145,453 145,464 145,465 145,475 143,475 139,476 129,477 127,478 86,487 77,489 74,490 69,491 51,500 51,499 50,492 46,469 45,459 44,455 42,445 40,431 37,414 36,405 35,400 35,397 35,384 36,378 36,356 36,337 34,322 34,318 33,309 32,300 32,297 30,292 29,290 27,281 23,268 19,255 12,246 0,231 0,231" id="9303" class="canton" fill="steelblue" stroke-width="1" stroke="white" geotype="canton" geoname="Bagnolet" code_insee="9303" code_departement="93" nom_departement="Seine-Saint-Denis" code_region="11" nom_region="Île-de-France"/></svg>