<?xml version="1.0" encoding="utf-8"?>
<svg version="1.1" id="svgmap" xmlns="http://www.w3.org/2000/svg" xmlns:xlink="http://www.w3.org/1999/xlink" x="0px" y="0px" width="100%" height="100%" viewBox="0 0 500 314">
<polygon points="52,6 55,4 57,2 62,0 76,12 79,16 81,18 85,16 87,17 92,16 112,12 120,23 122,26 133,41 134,42 144,38 148,37 163,33 164,32 165,32 166,34 169,38 170,41 170,44 170,44 170,45 171,45 172,46 173,47 178,51 182,54 180,55 184,57 191,62 195,62 199,64 194,66 191,67 188,67 176,69 184,78 184,79 190,80 217,88 219,87 223,86 234,82 234,87 235,89 235,89 235,91 235,93 244,88 251,93 251,93 263,102 267,101 269,103 278,109 285,106 292,115 297,117 306,121 306,121 306,122 306,122 310,134 311,134 339,142 343,144 349,145 350,145 351,146 352,147 355,148 370,150 370,150 362,155 360,157 349,179 350,180 352,182 353,185 356,186 356,191 356,196 364,200 367,201 375,202 379,203 381,203 379,207 386,209 401,213 412,218 416,220 416,220 418,221 426,223 448,228 450,228 457,229 466,230 474,238 482,240 490,242 500,246 500,246 495,254 482,277 477,279 473,291 456,314 450,314 444,314 422,309 421,311 408,310 395,311 389,312 384,302 369,301 366,295 366,286 365,283 363,281 362,266 337,249 292,258 290,252 301,250 294,236 294,235 313,215 318,214 321,212 325,211 329,208 330,206 330,204 332,202 288,176 285,174 282,175 280,175 278,176 273,179 266,177 265,177 250,177 249,176 248,176 247,175 244,174 241,171 241,170 239,170 235,170 232,170 227,170 224,170 221,170 219,170 216,171 214,172 212,172 210,173 209,175 208,175 204,175 202,175 201,176 196,178 195,178 195,179 189,180 188,180 187,181 183,181 182,181 177,182 172,183 170,184 168,184 166,185 165,178 158,178 158,177 158,177 158,176 157,175 157,174 156,173 155,172 154,171 153,171 153,170 152,170 151,169 150,168 149,168 143,165 143,165 142,165 140,164 139,164 138,163 138,162 137,163 133,163 133,163 133,163 133,163 133,162 133,162 132,162 128,163 127,163 126,163 124,163 123,163 123,163 123,163 121,163 120,163 116,163 117,162 113,161 116,156 117,153 117,153 118,150 118,148 117,147 117,146 116,143 109,143 109,141 107,141 108,131 113,130 108,127 106,126 105,126 102,124 99,123 97,122 96,122 95,121 93,120 93,120 91,119 89,117 89,117 88,117 88,117 87,117 80,121 79,121 79,121 78,121 76,120 76,120 74,119 74,119 74,118 73,119 73,119 63,123 62,123 61,123 57,124 55,124 48,125 48,125 45,126 39,127 36,128 35,128 35,128 34,127 32,127 30,126 28,126 22,124 18,123 18,122 20,121 16,119 10,118 5,117 1,113 0,111 7,113 13,114 19,113 24,114 28,116 36,118 41,118 47,116 57,112 66,107 69,102 73,94 73,89 71,86 70,82 68,79 63,74 56,70 51,66 49,63 47,58 45,55 41,41 39,33 40,25 42,17 46,12 52,6" id="9422" class="canton" fill="steelblue" stroke-width="1" stroke="white" geotype="canton" geoname="Villiers-sur-Marne" code_insee="9422" code_departement="94" nom_departement="Val-de-Marne" code_region="11" nom_region="Île-de-France"/></svg>