<?xml version="1.0" encoding="utf-8"?>
<svg version="1.1" id="svgmap" xmlns="http://www.w3.org/2000/svg" xmlns:xlink="http://www.w3.org/1999/xlink" x="0px" y="0px" width="100%" height="100%" viewBox="0 0 500 184">
<polygon points="0,120 8,112 15,105 19,101 22,97 25,94 29,89 31,90 39,82 40,83 46,78 49,75 49,75 55,69 56,69 58,70 58,69 61,70 62,71 64,73 66,74 69,76 72,77 74,75 74,74 74,73 75,73 77,72 80,71 82,71 82,70 89,66 90,66 93,70 97,68 102,67 106,65 109,64 110,64 111,64 114,63 116,63 119,63 126,62 126,62 127,62 127,62 131,61 134,61 135,57 135,57 135,56 135,49 135,47 135,44 136,40 137,35 137,33 139,30 133,28 133,28 132,27 131,25 128,24 128,22 129,22 129,21 129,19 129,17 129,14 129,13 129,10 129,10 132,4 132,4 133,0 136,0 138,0 140,0 144,1 149,2 152,3 158,3 171,3 171,3 174,3 174,5 172,11 175,15 192,18 187,25 194,26 195,26 195,25 204,27 207,28 215,29 219,29 230,31 233,32 236,33 237,33 238,33 240,33 250,34 250,31 251,31 251,31 257,32 259,32 260,32 261,32 264,33 273,37 273,37 279,40 281,41 282,41 286,42 291,44 291,44 292,44 292,44 304,45 311,46 312,46 313,46 317,45 317,45 317,45 318,44 327,42 328,42 333,41 333,41 334,43 339,42 343,42 347,43 351,44 353,45 354,43 363,48 365,48 366,49 368,49 370,49 377,47 385,45 389,45 405,41 405,39 406,39 438,41 446,42 448,40 458,43 458,46 467,46 468,45 470,45 472,44 473,44 473,44 481,47 488,49 490,49 492,52 494,54 484,56 482,56 481,58 481,59 482,64 482,66 480,68 479,69 478,70 473,71 471,72 468,73 467,74 466,75 466,75 466,77 469,80 470,82 472,83 474,84 477,86 473,86 471,86 469,87 465,88 466,90 467,90 471,92 478,95 486,98 491,100 492,101 494,102 497,103 500,105 490,110 489,110 479,116 462,125 461,125 450,131 449,132 448,133 447,137 439,151 439,142 434,142 433,142 433,143 408,145 406,141 391,144 388,144 389,143 389,141 389,141 389,140 389,135 388,134 385,134 385,131 377,131 369,130 369,121 367,121 367,119 368,118 365,118 358,118 356,118 354,119 352,120 350,120 349,120 349,117 339,117 339,117 339,117 336,118 324,118 324,119 321,119 318,120 318,122 318,123 314,123 306,123 306,124 305,125 304,125 302,124 299,129 299,130 291,128 291,128 281,125 279,125 278,125 275,124 274,124 274,123 273,123 266,121 266,121 258,120 255,120 255,120 254,120 254,120 254,121 254,121 254,122 244,121 243,120 241,120 241,120 241,120 240,121 236,120 235,121 214,120 214,120 208,119 209,118 203,117 204,132 204,133 204,133 204,134 205,135 205,136 205,138 207,142 208,145 209,149 209,152 209,153 209,155 209,157 207,160 206,162 206,162 206,164 206,164 205,164 203,164 200,164 197,164 194,164 193,165 189,165 188,165 185,166 182,167 181,167 180,168 178,168 172,171 170,171 169,172 168,172 165,173 163,175 161,175 153,177 150,178 146,179 142,180 139,181 131,183 130,183 129,183 129,184 128,183 123,174 119,175 118,175 116,174 116,173 112,170 111,169 112,169 119,167 121,167 118,161 118,161 109,163 107,164 105,165 103,163 103,163 103,162 102,162 101,161 100,160 99,159 90,152 86,150 84,148 80,145 79,145 78,144 75,142 73,141 69,140 67,139 67,139 62,137 57,135 50,133 46,131 11,123 5,121 0,120" id="9501" class="canton" fill="steelblue" stroke-width="1" stroke="white" geotype="canton" geoname="Argenteuil-1" code_insee="9501" code_departement="95" nom_departement="Val-d'Oise" code_region="11" nom_region="Île-de-France"/></svg>