<?xml version="1.0" encoding="utf-8"?>
<svg version="1.1" id="svgmap" xmlns="http://www.w3.org/2000/svg" xmlns:xlink="http://www.w3.org/1999/xlink" x="0px" y="0px" width="100%" height="100%" viewBox="0 0 500 377">
<polygon points="132,0 132,0 131,1 131,2 131,2 131,2 131,2 131,3 131,3 131,3 131,3 131,4 132,4 132,4 132,4 132,5 132,5 133,6 133,6 135,8 136,9 136,9 136,9 136,9 136,10 135,10 135,11 135,11 135,12 135,12 135,13 136,14 136,14 137,15 138,15 139,16 140,16 140,16 141,16 141,16 140,17 140,17 140,17 140,18 141,18 141,19 142,19 142,19 142,20 142,20 143,20 144,20 145,20 145,20 146,20 146,20 147,20 147,20 148,20 149,20 150,21 150,21 151,21 152,21 152,21 153,22 153,22 154,23 155,23 155,23 157,24 157,24 158,24 159,24 160,24 161,24 161,24 162,24 163,24 164,24 164,23 165,23 165,22 165,22 166,22 166,22 167,22 167,22 168,22 168,22 169,22 169,22 169,22 169,22 170,22 170,22 170,22 170,22 171,22 171,23 172,23 173,23 173,23 174,23 175,23 175,23 175,23 176,23 176,23 176,23 177,23 177,23 177,24 177,24 178,24 178,25 179,26 179,26 180,27 180,27 180,28 180,27 182,27 185,27 185,28 185,28 185,28 186,28 185,27 186,27 185,27 186,26 186,26 187,26 187,26 188,26 189,27 190,28 193,29 193,29 194,30 194,30 195,30 195,30 196,30 197,30 198,30 199,30 199,30 200,30 201,29 201,29 201,29 201,29 202,28 202,28 202,28 203,28 203,28 203,28 203,28 204,29 204,29 204,28 205,28 205,28 206,29 206,29 206,29 207,29 207,29 207,30 207,30 207,30 208,31 208,31 208,31 208,31 209,31 209,32 210,32 211,32 211,32 211,33 212,33 212,33 212,34 212,35 212,35 211,36 211,36 212,36 212,37 212,37 212,39 212,39 212,39 212,39 212,39 213,39 213,39 213,39 214,39 214,39 214,40 215,40 215,40 215,40 217,41 218,41 218,41 219,40 220,40 220,40 221,41 222,42 222,43 222,43 222,44 223,44 223,44 224,44 225,45 226,45 227,45 228,46 229,47 229,48 229,49 230,51 230,52 231,53 231,54 230,54 230,55 230,56 230,57 230,58 231,59 231,59 232,60 233,61 233,61 234,62 234,62 235,63 235,63 234,64 234,64 234,65 234,66 235,67 235,67 235,68 235,69 235,70 235,69 235,69 236,68 237,68 238,69 239,70 240,70 240,70 241,71 241,71 242,71 242,71 243,72 244,72 245,72 245,72 246,72 246,73 247,73 248,73 248,73 248,73 249,73 249,73 250,73 250,74 250,75 250,75 255,73 259,74 259,74 260,73 260,73 263,78 266,79 268,80 270,80 272,80 275,79 274,84 277,84 278,84 278,85 279,85 281,86 282,85 283,85 283,85 284,85 284,86 284,86 285,86 285,86 285,86 286,86 287,85 288,85 288,85 288,85 288,85 289,84 290,83 290,83 290,83 291,82 292,82 293,84 295,86 296,85 297,86 296,87 297,87 297,88 297,88 297,88 297,88 298,88 298,88 298,88 298,88 298,87 298,87 298,87 298,88 299,88 299,89 299,89 299,88 299,88 299,88 299,87 299,87 299,87 300,87 300,87 301,87 301,87 302,87 302,87 302,87 302,87 302,86 302,86 301,86 301,85 301,85 300,85 300,85 300,85 301,84 301,84 301,84 302,84 302,84 302,84 302,84 303,84 303,83 304,83 304,83 305,83 305,83 306,83 306,82 306,82 307,82 307,81 307,81 308,81 308,81 308,81 309,81 309,81 310,81 311,80 311,80 311,80 311,80 312,80 312,80 312,80 312,81 311,81 311,82 310,82 310,82 310,82 310,83 309,83 309,83 309,84 308,84 308,84 307,84 307,85 307,85 306,86 306,87 305,87 305,87 305,87 304,87 304,87 304,87 304,87 304,87 304,88 304,88 305,89 306,91 306,91 306,91 307,91 307,91 307,91 308,90 308,90 307,90 307,89 307,89 307,89 308,88 308,88 308,88 308,87 308,87 308,86 309,86 309,85 310,85 311,85 311,85 311,85 312,85 312,85 312,85 312,85 313,86 313,86 313,86 313,86 315,85 315,84 315,84 315,84 315,83 315,83 315,83 315,83 315,83 315,82 314,82 315,82 315,81 315,81 315,81 316,81 316,82 317,82 317,82 318,82 318,82 319,82 319,82 320,82 320,82 320,83 321,83 321,84 321,84 322,84 322,84 322,83 323,83 323,83 323,83 323,83 323,82 322,82 322,82 322,81 322,81 321,81 321,80 321,80 321,80 321,80 320,80 320,79 320,79 320,79 320,79 320,78 320,78 321,78 321,78 321,78 322,78 322,78 323,79 323,79 324,79 324,79 325,79 325,79 327,79 329,80 332,76 334,76 334,76 334,75 334,75 334,75 335,75 335,75 335,75 336,74 337,74 337,74 338,73 338,73 339,73 339,73 339,72 340,72 340,72 340,72 341,72 342,72 342,72 343,72 343,72 344,73 345,74 347,74 347,75 348,76 348,76 349,77 349,77 350,78 350,78 351,78 351,79 351,79 351,79 352,80 353,81 353,81 354,81 353,80 353,80 353,80 353,79 354,79 354,79 354,79 355,79 355,79 355,79 355,79 356,79 356,80 356,80 356,80 357,80 357,80 357,81 358,81 358,81 358,81 359,81 359,81 360,82 360,82 361,82 362,82 362,82 362,82 363,82 363,82 363,83 363,83 363,83 364,83 364,83 364,83 365,83 366,83 366,83 366,84 367,83 367,83 367,83 367,84 368,84 368,84 368,84 369,85 370,85 370,85 370,85 371,85 371,86 372,86 373,87 374,87 375,88 375,88 375,88 375,89 375,89 374,90 374,90 374,90 374,90 373,90 373,90 372,90 372,91 372,91 371,91 371,92 371,92 370,92 370,92 370,92 370,93 370,93 370,94 370,94 369,95 369,96 368,96 367,96 366,96 366,97 365,97 365,97 363,99 363,99 363,100 363,102 363,103 363,103 363,103 362,103 361,103 361,103 361,104 361,104 361,104 362,105 362,105 362,104 362,104 363,104 363,104 363,104 363,105 363,105 363,106 362,107 362,107 362,108 362,108 362,108 361,109 361,109 361,110 361,110 362,110 363,109 363,109 363,109 363,108 364,108 365,108 365,108 365,108 366,110 367,111 367,112 367,112 367,113 367,113 367,114 367,114 369,115 370,115 371,116 371,115 372,115 372,115 380,118 380,118 381,118 381,118 381,120 381,120 382,121 382,122 383,123 383,125 384,126 397,124 398,124 402,124 404,123 405,123 405,123 405,123 405,124 405,124 405,124 406,124 407,124 408,124 410,124 411,124 412,124 414,124 415,124 416,124 418,125 419,126 420,126 420,126 420,127 420,128 420,129 421,131 422,132 425,134 426,134 426,135 427,135 427,134 427,135 427,135 427,135 428,135 430,135 430,135 430,135 430,135 430,135 431,135 432,135 432,135 433,135 433,135 434,135 435,135 435,135 436,135 436,135 438,134 438,134 439,134 440,134 441,134 443,134 445,133 446,133 446,133 448,132 450,132 451,131 452,131 453,131 454,130 454,131 456,130 456,130 457,129 458,129 459,129 460,129 461,129 462,129 462,129 463,129 463,129 464,129 465,129 465,129 465,129 466,129 466,129 466,129 467,129 467,130 467,129 468,128 468,128 469,128 469,128 469,128 470,128 470,128 471,128 471,127 471,127 472,127 473,127 473,127 474,127 474,127 476,126 478,125 479,125 481,125 483,125 485,124 486,124 487,124 488,124 489,124 490,125 492,125 492,126 492,126 493,126 494,127 494,127 495,127 495,127 495,127 495,128 496,128 496,128 496,128 496,128 496,128 496,129 496,129 497,129 497,129 497,129 498,129 498,129 498,129 498,129 499,130 499,130 499,130 499,130 499,129 499,129 500,130 500,130 500,130 500,130 500,131 500,133 498,135 497,136 494,136 493,137 488,139 486,141 484,142 477,144 472,146 470,147 468,148 464,151 462,152 461,153 460,153 459,154 458,154 455,154 452,154 448,155 442,155 438,155 436,154 433,154 432,153 429,152 426,150 419,145 417,144 414,143 412,142 409,142 407,142 404,142 401,142 399,142 398,142 397,143 397,144 396,146 397,148 398,150 398,150 398,151 397,151 396,152 394,152 392,151 387,150 385,150 382,150 382,150 381,150 380,150 377,150 374,150 371,151 368,152 366,152 361,154 358,155 356,155 353,155 350,155 348,155 345,154 342,153 336,150 333,149 332,148 332,148 329,146 328,146 327,147 326,147 324,148 323,150 321,152 319,155 319,156 318,158 318,159 319,160 320,160 321,161 323,160 325,160 327,160 330,160 333,161 334,162 334,162 334,163 334,164 334,165 333,166 333,167 332,168 330,169 327,170 321,172 319,172 318,172 316,172 313,172 308,171 307,171 305,170 303,170 301,171 299,171 298,171 296,171 295,171 294,171 294,172 292,177 291,178 291,179 291,180 292,181 293,184 295,186 295,188 297,193 297,193 296,194 294,197 292,199 291,202 289,204 289,205 289,205 288,206 287,208 287,210 288,211 288,212 289,213 291,214 292,214 292,215 293,215 293,216 293,217 292,217 291,218 289,219 288,219 287,219 286,220 286,220 285,222 285,223 284,224 283,225 282,225 280,225 274,226 273,226 272,227 271,228 271,229 271,229 272,231 272,231 273,232 274,233 275,234 276,235 277,235 277,235 277,236 278,237 277,239 277,240 277,240 276,241 276,241 276,241 276,242 276,243 277,244 278,245 279,246 279,247 279,248 279,249 279,250 278,253 278,254 277,255 276,254 273,254 272,254 271,253 270,253 269,253 269,253 268,254 268,255 268,257 269,258 269,259 268,260 267,261 267,261 266,261 265,262 265,263 265,263 266,264 266,265 267,265 268,266 270,269 270,269 270,270 271,270 271,270 270,271 269,272 269,272 268,272 268,272 268,272 267,272 266,272 266,271 265,271 265,271 264,271 264,271 264,273 263,274 263,275 263,275 263,276 264,276 264,277 265,278 266,279 267,279 267,279 271,279 272,280 273,280 275,280 276,281 277,281 278,281 278,281 280,282 281,282 282,282 283,282 283,282 284,283 284,283 284,283 284,283 283,285 283,286 283,286 282,287 282,287 281,287 281,287 280,286 279,286 278,286 276,285 273,285 272,285 272,285 272,286 272,288 272,289 272,289 273,290 277,291 279,291 279,291 280,292 281,292 282,294 283,294 282,295 282,295 281,296 279,296 277,296 275,296 273,296 272,296 272,298 271,300 270,300 269,301 269,301 268,301 267,301 267,301 266,301 266,302 265,302 265,302 264,302 264,302 264,303 264,303 264,304 265,305 266,306 266,306 267,307 267,307 267,308 267,308 265,308 265,308 265,308 264,309 264,309 263,310 262,310 262,309 260,309 259,309 259,309 260,309 261,310 261,311 262,311 262,312 261,312 261,313 259,313 258,313 258,313 258,312 258,312 259,311 259,311 258,311 257,311 256,311 256,311 255,310 255,309 253,310 253,311 253,311 254,311 255,311 255,312 255,313 255,314 256,314 256,314 255,315 255,315 256,317 256,317 256,318 256,318 256,319 255,319 255,319 254,319 253,320 252,321 250,322 250,322 250,323 249,324 248,325 248,325 248,326 248,326 248,327 247,327 247,327 247,326 246,326 246,326 245,326 245,326 246,327 246,327 247,328 247,328 247,329 246,330 245,330 244,330 243,330 243,329 242,329 242,329 242,330 241,331 241,331 242,332 243,333 244,333 244,333 244,334 243,334 242,334 241,336 241,337 241,337 240,337 240,338 239,338 239,338 239,339 238,339 238,339 237,340 236,340 236,341 235,341 235,341 234,342 234,342 234,342 233,343 233,343 233,343 233,344 233,344 233,345 233,346 233,346 233,347 232,347 230,347 230,347 230,348 230,349 229,349 228,349 227,350 225,350 224,350 224,349 224,349 224,349 224,349 223,348 223,349 222,349 222,351 221,352 221,352 221,353 221,353 220,353 219,353 218,353 218,353 218,352 218,351 218,351 217,351 217,351 217,351 216,351 216,352 216,353 216,354 215,355 215,355 214,355 214,355 213,355 213,355 213,355 212,355 212,355 212,355 211,356 211,357 211,357 211,358 210,358 210,357 209,357 208,356 207,356 207,356 206,356 206,357 206,357 206,357 205,358 205,358 204,358 204,358 204,358 203,357 203,357 203,357 202,357 202,358 201,359 201,359 201,359 200,359 200,358 199,358 198,358 198,358 196,358 194,358 194,357 193,357 192,357 192,356 191,357 191,357 190,357 190,358 191,358 191,358 190,359 190,360 190,360 189,360 187,360 186,360 186,359 185,360 185,359 184,359 184,359 183,359 182,359 182,359 182,359 181,361 181,362 181,362 180,362 179,361 178,362 178,362 177,362 177,361 177,361 176,360 176,360 176,360 175,360 174,360 174,360 174,361 174,362 174,363 174,363 173,365 173,366 173,366 173,367 173,368 172,368 171,368 171,369 171,369 171,370 171,371 170,371 169,371 168,371 166,371 166,372 165,373 165,373 165,374 165,375 164,375 164,376 163,376 162,376 162,376 161,376 160,376 159,376 159,376 159,375 159,375 158,375 158,376 158,377 157,377 157,377 156,377 155,377 155,377 154,377 153,377 153,377 150,377 147,376 147,376 145,376 143,375 143,375 142,375 141,374 141,374 141,374 140,374 139,374 139,373 137,373 136,373 136,372 136,372 134,372 133,371 132,371 128,369 127,368 125,367 125,367 124,367 123,367 123,367 122,367 122,366 121,366 120,366 118,366 117,366 116,366 116,366 115,366 114,366 112,365 112,365 111,365 110,364 108,364 106,363 106,362 106,362 105,361 105,360 105,359 105,359 105,358 104,358 104,357 103,356 103,356 103,354 102,353 102,352 102,352 100,351 100,350 99,349 98,348 97,348 96,348 96,347 95,347 95,346 95,345 95,345 95,344 95,343 95,343 95,342 94,340 93,340 93,339 92,339 91,338 90,337 89,337 89,336 89,336 89,334 90,332 90,331 89,330 89,329 88,328 88,328 87,327 85,326 84,326 83,326 83,326 81,326 80,325 78,325 77,324 76,323 74,322 73,321 72,320 72,319 71,318 70,317 69,316 68,315 68,315 68,314 68,313 69,310 69,309 69,308 69,308 69,307 67,306 66,305 65,304 64,303 63,302 63,302 62,302 60,302 58,302 57,301 55,301 54,301 54,301 53,301 52,301 52,301 51,301 50,302 49,302 48,302 48,302 48,302 47,302 47,302 46,301 46,300 45,299 43,298 42,297 40,296 38,295 36,294 36,293 35,292 35,291 35,291 34,290 33,290 31,290 30,290 28,290 27,290 27,290 26,291 24,291 23,292 22,292 21,292 20,291 20,291 19,291 19,291 19,290 18,288 17,288 17,287 16,287 15,287 14,285 13,284 12,283 12,282 11,282 10,281 9,281 8,281 7,281 7,280 8,279 9,278 9,277 10,276 10,274 10,272 10,271 10,270 10,268 10,267 10,266 9,265 8,263 7,262 6,261 5,261 4,261 3,261 2,260 2,260 1,260 1,259 0,258 0,258 0,257 0,256 1,256 2,255 2,253 3,253 3,252 4,251 4,250 5,248 6,247 6,246 8,244 8,243 9,242 9,241 8,240 8,239 8,238 7,237 6,236 6,236 6,235 7,234 7,232 7,231 7,231 7,230 6,229 5,228 5,227 37,200 66,152 76,110 76,108 83,81 86,56 117,18 131,1 131,1 131,0 131,0 132,0" id="97119" class="canton" fill="steelblue" stroke-width="1" stroke="white" geotype="canton" geoname="Sainte-Rose-2" code_insee="97119" code_departement="971" nom_departement="Guadeloupe" code_region="1" nom_region="Guadeloupe"/></svg>