<?xml version="1.0" encoding="utf-8"?>
<svg version="1.1" id="svgmap" xmlns="http://www.w3.org/2000/svg" xmlns:xlink="http://www.w3.org/1999/xlink" x="0px" y="0px" width="100%" height="100%" viewBox="0 0 500 429">
<polygon points="0,419 1,417 1,414 4,410 4,409 5,408 5,406 7,404 8,397 11,395 11,394 14,391 14,390 16,388 16,386 18,384 18,382 19,381 21,381 21,379 22,378 22,376 26,372 25,370 25,369 29,371 31,371 30,369 32,368 31,366 33,364 32,362 33,361 34,361 36,358 36,358 36,357 37,354 37,353 37,352 39,352 40,350 39,350 39,349 40,348 40,346 41,344 41,340 40,339 41,337 44,332 45,331 51,322 54,319 54,318 53,317 53,317 75,278 75,276 75,275 76,274 77,272 77,270 79,268 81,266 83,265 83,264 84,263 85,262 85,260 86,259 88,257 87,254 87,253 86,253 87,246 88,244 89,243 91,241 91,240 93,237 96,236 97,235 97,233 98,233 99,231 100,229 99,227 100,225 101,218 102,217 105,215 106,214 106,212 109,208 110,208 112,206 112,204 113,204 113,201 115,201 116,200 119,200 119,199 122,197 122,195 126,193 126,192 128,190 129,190 130,189 131,187 134,183 136,183 138,180 138,177 140,175 140,174 141,174 141,172 141,171 140,170 140,169 142,167 142,166 140,166 139,166 138,166 137,166 137,164 138,163 140,163 141,162 141,160 138,158 138,155 137,153 137,149 135,149 134,149 133,148 133,147 130,143 130,141 129,140 129,139 127,136 127,134 127,133 128,131 127,128 127,127 124,123 122,122 123,122 123,119 123,117 122,117 121,117 121,117 120,116 121,115 121,114 120,113 120,112 122,110 122,108 120,106 120,105 121,103 121,102 118,101 118,100 118,98 122,98 122,96 121,95 122,94 122,89 123,89 123,87 122,87 120,86 119,84 121,80 121,78 121,77 120,74 120,73 122,70 122,68 120,65 121,63 123,61 124,60 125,56 128,51 128,49 129,48 129,46 130,45 132,43 132,41 133,40 135,37 136,36 137,34 137,32 137,31 139,30 140,29 140,28 140,26 139,26 137,24 137,22 138,21 138,19 136,17 136,16 137,15 137,14 136,13 133,13 133,12 134,9 134,7 133,5 133,1 132,0 135,1 137,2 139,4 142,5 144,7 146,8 149,9 151,10 153,10 154,10 156,11 158,11 160,12 163,12 165,12 167,12 169,12 170,12 172,11 173,11 175,10 177,9 179,8 181,8 183,7 184,6 187,6 191,5 195,5 198,5 200,6 203,8 205,9 208,10 210,11 212,12 213,13 215,14 217,15 218,16 220,16 223,17 225,17 226,18 227,18 229,18 230,19 231,20 232,21 234,23 235,24 238,26 240,28 241,29 243,30 245,30 274,46 281,49 287,51 288,51 288,51 289,52 290,53 291,53 291,53 292,54 293,54 293,55 293,55 295,55 301,59 305,61 312,63 321,62 336,62 338,62 340,62 342,62 342,63 344,63 345,64 347,64 348,64 351,65 353,66 366,69 376,69 381,70 383,71 388,73 402,77 408,79 426,87 427,89 429,90 439,96 440,97 447,101 450,102 454,105 461,110 471,115 475,117 476,118 479,120 482,123 485,128 487,134 492,141 496,146 498,148 500,150 494,157 493,156 490,155 483,154 476,153 473,153 471,155 469,158 464,166 463,167 462,168 462,169 461,169 459,173 458,174 454,177 450,182 444,186 442,187 440,188 437,191 434,194 432,196 428,193 426,193 425,194 424,195 423,196 423,197 422,199 422,199 423,200 423,200 422,203 421,202 420,202 420,202 419,203 419,204 415,202 411,201 411,198 411,195 410,189 409,185 409,184 409,184 408,184 407,183 406,183 402,181 401,180 401,179 401,180 401,180 400,180 400,180 400,180 399,181 399,181 399,181 400,182 400,182 401,182 401,182 402,182 402,183 402,183 402,183 402,183 402,184 401,184 401,184 400,184 398,184 395,182 392,185 392,190 387,189 383,184 380,185 384,192 382,195 377,197 373,201 374,204 369,211 368,214 369,218 365,219 363,215 359,217 362,220 358,226 349,223 350,227 349,228 345,226 342,228 342,231 333,235 326,232 325,229 323,229 322,226 319,223 315,223 314,224 315,225 306,232 303,233 303,238 298,240 296,240 295,240 292,241 289,244 286,247 285,249 282,249 274,253 269,257 270,258 270,261 269,263 268,265 268,266 266,267 262,269 261,269 256,271 255,271 254,271 249,273 244,274 243,274 241,273 240,275 239,277 236,279 234,279 231,277 230,277 226,280 222,280 220,283 215,286 212,286 209,289 209,290 207,292 207,291 205,291 203,293 203,294 202,295 202,299 198,300 195,305 193,309 192,311 190,311 189,312 189,314 187,315 185,315 175,327 171,328 171,331 169,331 168,334 166,336 165,338 162,341 161,344 160,345 156,349 152,355 147,358 146,361 147,367 143,371 141,372 139,375 136,375 131,376 128,379 127,380 124,381 119,385 117,387 106,394 105,396 95,401 85,405 85,406 81,408 79,414 67,416 64,416 57,424 54,428 52,428 50,429 46,427 36,425 33,427 30,427 29,428 28,428 23,426 22,426 20,426 18,425 14,425 11,426 8,425 5,422 0,420 0,419" id="97404" class="canton" fill="steelblue" stroke-width="1" stroke="white" geotype="canton" geoname="Saint-André-1" code_insee="97404" code_departement="974" nom_departement="La Réunion" code_region="4" nom_region="La Réunion"/></svg>