<?xml version="1.0" encoding="utf-8"?>
<svg version="1.1" id="svgmap" xmlns="http://www.w3.org/2000/svg" xmlns:xlink="http://www.w3.org/1999/xlink" x="0px" y="0px" width="100%" height="100%" viewBox="0 0 281 500">
<polygon points="237,141 237,141 237,141 237,141 237,141" id="97408" class="canton" fill="steelblue" stroke-width="1" stroke="white" geotype="canton" geoname="Saint-Benoît-2" code_insee="97408" code_departement="974" nom_departement="La Réunion" code_region="4" nom_region="La Réunion"/><polygon points="267,163 267,163 267,163 267,163 267,163 267,163 267,163" id="97408" class="canton" fill="steelblue" stroke-width="1" stroke="white" geotype="canton" geoname="Saint-Benoît-2" code_insee="97408" code_departement="974" nom_departement="La Réunion" code_region="4" nom_region="La Réunion"/><polygon points="266,157 266,157 266,157 266,157 266,157" id="97408" class="canton" fill="steelblue" stroke-width="1" stroke="white" geotype="canton" geoname="Saint-Benoît-2" code_insee="97408" code_departement="974" nom_departement="La Réunion" code_region="4" nom_region="La Réunion"/><polygon points="195,479 195,479 195,479 195,480 195,479" id="97408" class="canton" fill="steelblue" stroke-width="1" stroke="white" geotype="canton" geoname="Saint-Benoît-2" code_insee="97408" code_departement="974" nom_departement="La Réunion" code_region="4" nom_region="La Réunion"/><polygon points="11,256 11,256 11,254 17,245 18,245 19,244 20,244 22,242 22,241 25,240 26,240 26,239 33,233 34,233 35,232 35,231 40,227 41,225 42,223 42,222 43,221 43,219 45,218 47,216 49,216 52,215 55,217 56,217 57,218 60,218 62,219 63,219 64,219 66,218 68,217 69,218 71,218 73,216 76,214 77,213 77,212 80,210 80,209 83,206 83,205 89,202 90,202 93,201 95,200 98,199 102,198 35,123 27,114 25,112 24,111 23,109 13,99 112,0 113,1 113,1 114,0 114,0 114,0 114,1 115,3 115,3 115,4 116,5 116,6 116,7 117,7 117,8 118,9 118,10 119,11 120,11 120,11 121,12 121,12 122,13 122,13 123,13 124,14 125,14 126,15 126,16 127,17 126,18 126,18 125,20 125,22 124,24 124,27 124,29 125,32 127,35 128,37 130,40 131,41 132,42 132,43 133,44 134,46 135,47 136,48 137,49 138,50 138,51 141,54 141,54 142,56 143,57 144,58 146,60 148,62 149,63 152,65 153,65 153,66 155,67 156,68 156,69 157,69 158,70 160,73 161,74 163,77 165,80 167,84 168,86 168,87 169,88 170,89 171,91 172,92 175,94 176,95 178,96 179,97 180,97 181,98 181,98 182,99 182,99 182,99 183,99 183,99 183,99 184,101 184,101 184,101 185,103 186,103 186,104 186,104 186,104 186,104 186,104 187,106 187,106 188,107 188,107 188,108 189,108 189,108 189,109 189,109 189,110 191,113 191,113 191,113 192,113 192,114 192,114 192,114 192,114 193,115 194,117 194,118 194,118 194,119 195,120 195,120 195,120 196,120 197,122 197,123 197,123 197,123 197,123 197,123 197,123 197,123 197,123 197,123 197,123 197,123 197,123 197,123 197,123 197,123 197,123 198,123 198,123 198,123 197,123 197,123 198,123 198,123 198,123 198,123 198,123 198,123 198,123 198,123 198,123 198,123 198,123 198,124 198,124 198,124 198,124 198,124 198,124 198,124 198,124 198,124 198,124 198,124 198,124 198,124 198,124 198,124 198,124 198,124 198,124 198,124 199,124 199,124 199,124 198,124 198,124 199,124 199,124 199,124 199,124 199,124 199,124 199,124 199,124 199,124 199,124 199,124 199,124 199,124 199,124 199,124 199,125 199,125 199,125 199,125 199,125 199,125 199,125 199,125 199,125 199,125 199,125 199,125 199,125 199,125 199,125 200,126 200,126 200,126 201,127 201,127 201,127 201,127 202,127 202,127 202,127 202,127 203,128 203,128 203,128 204,128 204,128 205,128 205,128 205,128 205,128 205,128 205,128 206,128 206,129 207,129 207,129 207,129 207,129 208,128 208,128 209,128 209,128 209,128 209,128 208,128 208,128 208,128 207,128 207,128 207,128 207,128 207,128 206,128 206,128 206,128 206,128 206,128 206,128 207,128 208,127 208,127 209,127 209,127 209,127 209,127 209,127 210,127 210,127 210,127 210,127 210,127 210,127 210,128 210,127 210,127 210,127 210,127 210,127 211,127 211,127 211,127 211,127 211,127 211,127 211,127 211,127 211,127 211,127 211,127 211,127 211,127 211,127 211,127 211,127 211,127 211,127 211,127 212,127 212,127 212,127 212,127 212,127 212,127 212,127 212,127 212,127 212,127 212,127 212,127 213,127 213,127 213,127 213,127 213,127 213,127 213,127 214,127 214,127 214,127 214,127 214,127 214,127 214,127 214,127 214,126 214,126 214,126 214,126 214,126 215,127 215,127 215,127 215,127 215,127 215,127 215,127 215,127 215,127 215,127 215,127 215,127 215,127 215,127 215,127 215,127 215,127 215,127 215,127 215,127 215,127 216,127 216,127 216,127 216,127 217,127 217,127 218,128 218,128 218,128 218,128 218,128 218,128 218,128 218,128 218,128 218,128 218,128 219,128 219,128 219,128 219,128 219,128 219,128 219,128 219,128 219,128 219,128 220,128 220,128 220,128 220,128 220,128 220,128 220,128 220,128 220,128 220,128 220,128 220,128 221,128 221,128 221,128 221,128 221,128 221,128 221,128 221,128 221,128 221,129 221,129 221,129 222,129 222,129 222,129 222,129 222,129 222,129 222,129 223,129 223,129 223,129 223,129 223,130 223,130 223,130 223,130 223,130 223,130 223,130 224,130 224,130 224,130 224,130 225,130 225,130 225,130 225,131 225,131 226,131 226,131 226,131 227,132 227,132 227,132 227,132 227,132 227,132 227,132 227,132 227,132 227,132 228,132 228,132 228,132 228,133 228,133 229,134 229,134 230,134 230,134 230,135 230,135 230,135 230,135 230,135 230,135 230,135 230,135 230,135 230,135 230,135 231,136 231,136 231,135 231,135 231,135 231,136 231,136 232,135 232,135 232,135 232,135 232,135 232,135 232,136 232,136 232,136 232,136 232,136 232,136 232,136 232,136 232,136 232,136 232,136 232,136 232,136 232,137 233,137 233,137 233,137 233,137 233,137 233,137 233,137 233,137 234,137 234,137 234,137 234,137 234,137 234,138 234,138 234,138 234,138 234,138 234,138 234,138 234,138 234,138 234,138 234,138 234,138 235,138 235,138 235,138 235,138 235,138 235,138 235,138 235,138 235,138 235,138 235,138 235,138 235,138 235,138 235,138 236,139 236,139 236,139 236,139 236,139 236,139 236,139 236,139 236,139 236,139 236,139 236,139 236,139 236,139 236,139 236,139 236,139 236,139 236,139 236,139 236,139 237,139 237,139 237,139 237,139 237,140 237,140 237,140 237,140 237,140 237,140 237,140 237,140 237,140 237,140 237,140 237,140 237,140 237,140 237,140 237,140 237,140 237,140 237,140 237,140 237,140 237,140 237,140 237,140 237,140 237,140 237,141 237,141 237,141 237,141 237,141 237,141 237,141 237,141 237,141 237,141 237,141 237,141 237,141 237,141 237,141 237,142 237,142 237,142 237,142 237,142 237,142 237,142 237,142 237,142 237,143 237,143 238,143 238,143 238,143 238,143 238,143 238,143 238,143 238,143 238,144 238,144 238,144 239,144 239,144 240,145 240,145 241,146 241,146 241,146 241,146 242,146 242,146 242,146 242,147 242,147 242,147 243,147 243,147 243,147 243,147 243,147 244,147 244,147 244,147 245,148 245,148 245,148 246,148 246,148 246,148 246,148 246,148 246,148 246,148 246,148 247,148 247,148 247,148 247,148 247,148 247,149 247,149 247,149 248,149 248,149 248,149 249,149 249,149 249,149 249,149 249,149 249,149 250,149 250,149 250,149 250,149 250,149 250,149 250,149 250,149 250,149 250,149 250,149 251,148 251,148 251,148 251,148 251,148 251,148 251,148 251,148 251,148 251,148 252,148 252,148 252,148 252,148 252,148 252,148 252,148 252,148 252,148 253,148 253,148 253,149 253,149 253,149 253,149 253,149 253,149 253,149 253,149 253,149 253,149 253,149 253,149 253,149 253,149 253,149 253,149 253,149 254,149 254,149 254,149 254,149 254,149 254,149 254,149 254,149 254,149 254,149 254,149 254,149 254,149 254,149 254,149 254,149 254,149 254,150 254,150 254,149 254,149 254,150 255,150 255,150 255,150 255,150 255,150 255,150 255,150 256,151 256,151 256,151 256,151 257,151 257,151 257,152 257,151 257,151 257,151 257,151 258,151 258,151 258,151 258,151 258,151 258,151 258,151 258,151 259,151 259,152 259,152 259,152 259,152 259,152 259,152 259,152 259,152 259,153 259,153 259,153 259,153 259,153 259,153 259,153 259,153 259,153 259,153 260,153 260,153 260,153 260,153 260,153 260,153 261,153 261,153 261,153 261,153 261,153 261,153 261,153 261,153 261,153 261,153 261,153 261,153 261,153 261,153 261,153 261,153 261,153 261,153 261,153 261,153 261,154 261,154 261,154 261,154 261,154 262,154 262,154 262,154 262,154 262,154 262,154 262,154 262,154 262,154 262,154 263,154 263,155 263,154 263,154 263,154 263,154 263,154 263,154 263,154 263,154 263,154 263,155 263,155 263,155 263,155 263,155 264,155 264,155 264,155 264,155 264,155 264,155 264,155 264,155 264,155 264,155 264,155 264,155 264,155 264,155 264,155 264,155 264,155 264,155 264,155 264,155 264,156 264,156 265,156 265,156 265,156 265,156 265,156 265,156 265,156 265,156 265,156 265,156 265,156 265,156 265,156 265,156 265,156 265,156 265,156 266,156 266,156 266,156 266,156 266,156 266,156 266,157 265,157 265,157 266,157 266,157 266,157 266,157 266,157 266,157 266,157 266,157 266,157 266,157 266,157 266,157 266,157 266,157 266,157 266,157 266,158 266,158 266,158 266,158 266,158 266,158 266,158 266,158 266,158 266,158 266,158 266,158 266,158 265,158 265,158 265,158 265,158 265,158 265,158 265,158 265,159 265,159 265,159 265,159 265,159 265,159 265,159 266,159 265,159 265,159 265,159 265,159 265,159 265,159 265,159 265,159 265,159 265,159 265,160 265,160 265,160 265,160 265,160 265,160 265,160 265,160 265,160 265,161 265,161 265,161 265,161 266,161 266,161 266,161 266,161 266,161 266,161 266,161 266,161 266,161 266,161 266,161 266,161 266,161 266,161 266,161 266,161 266,161 266,161 267,161 267,162 267,162 267,162 267,162 267,162 267,162 267,162 267,162 267,162 266,162 267,162 267,162 267,162 267,162 267,162 267,162 267,162 267,163 266,162 266,162 266,162 266,162 266,162 266,162 266,162 266,162 266,163 266,163 267,163 267,163 267,163 267,163 267,163 267,163 267,163 267,163 267,163 267,163 267,163 267,163 267,163 267,163 267,163 267,163 267,163 267,163 267,163 267,163 267,163 267,164 267,164 267,164 267,164 267,164 267,164 267,164 267,164 267,164 267,164 267,164 267,164 267,164 267,164 267,164 267,164 267,164 267,164 267,164 267,164 267,164 267,164 267,165 267,165 267,165 267,165 267,165 267,165 267,165 267,165 267,165 267,165 267,166 267,166 267,166 267,166 267,166 267,166 267,166 267,166 267,166 267,166 267,167 267,167 267,167 267,167 267,167 267,167 267,167 267,167 267,167 267,168 267,168 267,168 267,168 267,168 268,168 268,168 268,168 268,168 268,168 268,168 268,168 268,168 268,168 268,168 268,168 269,168 269,168 269,168 269,168 269,168 269,168 269,168 269,168 269,168 269,168 269,168 269,168 269,168 269,169 270,169 270,169 270,169 270,169 270,169 269,169 269,169 269,169 269,169 269,169 269,169 269,170 270,170 270,170 270,170 270,170 270,170 270,170 270,170 270,170 270,170 270,170 270,170 270,170 270,170 270,170 270,170 270,170 270,170 270,171 270,171 270,171 270,171 270,171 270,171 270,171 270,171 270,171 270,171 270,171 271,171 271,171 271,171 271,171 271,171 271,171 272,171 272,171 272,172 272,172 272,172 272,172 272,172 272,172 272,172 272,172 272,172 272,172 272,172 272,172 272,172 272,172 272,172 272,173 272,173 272,173 272,173 272,173 272,173 272,173 272,173 272,173 272,173 272,174 272,174 272,174 272,174 272,174 272,174 272,174 272,174 272,174 272,174 272,174 272,175 273,175 273,175 273,175 273,175 273,175 273,175 273,175 273,175 273,175 273,175 273,175 273,175 273,175 273,175 273,175 273,175 273,175 273,175 273,175 274,175 274,175 274,175 274,175 274,176 273,176 273,176 273,176 273,176 273,176 273,176 273,176 273,176 273,176 274,176 274,177 274,177 274,177 274,177 274,177 274,177 274,177 274,177 274,177 275,177 275,177 275,177 275,177 275,177 275,177 275,177 275,177 275,177 275,177 275,178 275,178 275,178 275,178 275,178 275,178 276,178 276,178 276,178 276,178 276,178 276,178 276,178 276,178 276,178 276,178 276,178 277,179 277,179 276,179 276,179 276,179 276,179 276,179 276,179 276,179 276,179 276,179 276,179 277,179 277,179 277,179 277,179 277,179 277,179 277,179 277,179 277,179 277,179 277,179 277,180 277,180 278,180 278,180 278,180 278,180 278,180 278,180 278,180 278,180 278,180 278,180 278,180 278,180 278,180 278,180 278,180 278,180 277,180 277,180 277,180 277,180 277,181 278,181 278,181 278,181 278,181 278,181 278,181 278,181 278,181 278,181 278,181 278,182 278,182 278,181 278,182 278,182 278,182 278,182 278,182 278,182 278,182 278,182 278,182 278,182 278,182 278,182 278,182 278,182 278,182 278,182 278,183 278,183 278,183 278,183 278,183 278,183 278,183 278,183 278,184 278,184 278,184 278,184 278,184 278,184 278,184 278,184 278,184 278,184 278,184 278,184 278,184 278,184 278,184 278,184 278,184 278,184 278,184 278,184 278,184 278,185 278,185 278,185 278,185 278,185 278,185 278,185 278,185 278,185 278,185 278,185 278,185 278,185 278,185 278,185 278,185 278,185 278,185 278,185 278,185 278,185 278,185 278,185 278,185 278,185 278,186 278,186 278,186 278,186 278,186 278,186 277,186 277,186 277,186 277,186 277,186 277,186 277,186 277,186 277,186 277,186 277,186 277,186 277,186 277,186 277,186 277,186 277,186 277,186 277,186 277,186 277,186 277,187 277,187 277,187 277,187 277,187 277,187 277,187 276,187 276,187 276,187 276,187 276,187 276,187 276,187 276,187 276,187 276,187 276,187 276,187 276,187 276,187 276,187 275,187 275,187 275,187 275,187 275,187 275,187 275,187 275,187 275,187 275,188 275,188 275,188 275,188 275,188 275,188 275,188 275,188 275,189 275,189 275,189 275,189 275,189 275,189 275,189 275,189 275,189 275,190 275,190 275,190 275,190 275,190 275,190 275,191 275,191 275,192 275,192 275,193 275,193 276,193 276,193 275,193 275,193 276,193 275,193 275,193 275,193 275,194 275,194 275,194 276,194 276,194 276,194 276,194 276,194 276,194 276,194 276,194 276,194 276,194 276,194 276,194 276,195 276,195 276,195 276,195 275,195 275,195 276,195 276,195 276,195 276,195 276,195 276,195 276,195 276,195 276,195 276,196 276,195 275,195 275,195 275,196 275,196 275,196 275,196 275,196 275,196 275,196 275,196 275,196 275,197 275,197 275,197 275,197 275,197 275,197 275,197 275,198 275,198 275,198 276,198 276,199 276,199 276,199 276,199 276,199 276,199 276,199 276,199 276,199 276,199 276,199 276,199 276,199 276,199 276,199 276,199 276,199 276,199 276,199 276,199 276,199 276,199 276,200 276,200 276,200 276,200 276,200 276,200 276,200 276,200 276,200 276,200 276,200 276,200 276,200 276,200 276,200 276,201 276,201 276,201 276,201 276,201 276,201 276,201 276,201 276,201 276,201 276,201 276,201 276,201 276,201 276,201 277,201 277,201 277,201 277,201 277,201 277,201 277,201 277,201 277,201 277,201 276,201 276,201 276,201 276,202 276,202 276,202 276,202 276,202 276,202 276,203 276,203 276,203 276,204 277,204 277,204 277,204 277,204 277,205 277,205 277,205 277,205 277,205 277,205 277,205 277,206 278,206 278,206 278,206 278,206 278,207 278,207 278,207 278,207 278,207 278,207 278,207 278,208 278,208 278,209 278,209 278,209 278,209 278,209 279,209 279,209 279,209 279,209 278,209 278,209 279,209 279,210 279,210 279,210 279,210 279,210 279,210 279,210 280,210 280,210 280,211 280,211 280,211 279,211 279,211 279,211 279,211 280,211 280,211 280,211 280,211 280,211 280,211 280,212 280,212 280,212 280,212 280,212 280,212 280,213 280,213 280,213 281,213 280,214 280,214 280,214 280,214 280,214 280,214 280,214 280,214 280,214 280,214 280,214 280,214 280,215 279,215 279,215 279,215 279,215 279,215 279,215 279,215 279,215 279,215 278,215 278,215 278,215 278,215 278,215 278,215 278,215 278,215 278,215 278,215 278,216 278,215 278,215 278,215 278,215 278,215 278,215 278,215 278,215 278,215 278,215 278,215 278,215 278,215 278,215 278,216 277,215 277,215 277,215 277,215 277,215 277,215 277,215 277,215 277,216 277,216 277,216 277,215 277,215 277,216 277,216 277,216 277,216 277,216 277,216 277,216 277,216 277,216 277,216 277,216 277,216 277,216 277,216 276,216 276,216 276,216 276,216 276,216 276,216 276,216 276,216 276,216 276,217 276,217 276,217 276,217 276,217 276,217 276,217 276,217 276,217 276,217 275,217 275,217 275,217 275,217 275,217 275,217 275,217 275,217 274,217 274,217 274,217 274,218 274,218 274,218 274,218 273,218 273,218 273,218 273,218 273,218 273,218 273,218 272,218 272,218 272,218 272,218 272,218 272,218 271,218 271,218 271,218 271,218 271,218 271,218 271,218 271,218 271,218 271,218 271,218 270,218 270,218 270,218 270,218 270,218 270,218 269,218 269,218 269,218 268,218 268,218 268,218 267,218 267,218 266,218 266,217 266,217 266,217 266,217 265,218 264,218 264,219 264,219 264,219 264,220 264,220 264,220 264,221 264,221 263,222 263,222 263,222 263,222 263,223 263,223 263,223 263,223 263,223 263,223 263,223 263,223 263,223 263,223 263,224 263,224 263,224 263,224 263,224 263,224 263,224 263,224 263,224 263,224 263,224 263,225 263,225 263,226 263,226 263,226 263,226 263,226 263,227 263,227 263,227 263,227 263,227 263,227 263,227 263,228 263,228 263,228 263,228 263,228 263,228 263,228 263,228 263,228 263,228 263,228 263,228 263,229 263,229 263,229 263,229 263,229 263,229 263,229 263,229 263,229 263,229 263,229 263,230 264,229 264,229 264,230 264,230 264,230 264,230 264,230 264,230 264,230 264,230 264,230 264,230 264,230 264,230 264,230 264,231 264,231 264,231 264,231 264,231 264,231 264,231 264,232 264,232 264,232 264,232 264,232 264,232 264,232 264,232 264,232 264,232 264,232 264,232 264,232 264,232 264,232 264,232 264,232 264,232 264,233 263,233 263,232 263,232 263,232 263,232 263,232 263,233 263,233 263,233 263,233 263,233 263,233 263,233 263,233 263,233 263,234 263,234 263,234 263,234 263,234 263,234 263,234 263,234 263,234 263,234 263,234 263,234 263,234 263,234 264,234 264,234 264,234 264,235 264,235 264,235 264,235 264,235 264,235 264,235 264,235 264,235 264,235 264,235 264,235 264,235 264,235 264,236 264,236 264,236 264,236 264,236 264,236 264,236 264,236 264,236 264,236 264,236 264,236 263,236 263,236 263,236 263,236 263,237 263,237 263,237 263,237 263,237 263,237 263,237 263,238 263,238 263,238 264,238 264,238 264,238 264,238 264,238 264,238 264,238 264,239 264,239 264,239 264,239 264,239 264,239 264,239 264,239 264,239 264,239 263,239 263,239 263,240 264,240 264,240 264,240 264,240 264,240 264,240 264,240 264,241 263,241 263,241 263,241 263,241 263,241 263,242 263,242 263,242 263,242 263,242 263,242 263,242 263,242 263,242 263,242 263,242 263,242 263,242 263,242 263,243 263,243 263,243 263,243 263,243 263,243 263,243 263,243 263,243 263,243 263,243 263,243 263,244 263,244 263,244 263,244 263,244 263,244 262,244 262,244 262,244 262,244 262,244 262,245 262,245 262,245 262,245 262,245 262,245 262,245 262,245 262,245 262,245 262,245 262,245 262,245 262,245 262,245 262,245 262,245 262,245 261,245 261,245 261,246 261,246 261,246 261,246 261,246 261,246 261,247 261,247 261,247 261,247 261,247 261,247 261,247 261,247 261,247 261,247 261,247 261,247 261,247 261,247 261,247 261,247 261,247 261,247 261,247 261,247 260,247 260,247 260,247 260,247 260,247 260,248 260,248 260,248 260,248 260,248 260,248 260,248 260,248 260,248 260,248 260,248 260,249 260,249 260,249 260,249 260,249 260,249 260,249 260,249 260,249 260,249 260,249 260,249 260,249 260,249 260,249 260,249 259,249 259,249 259,249 259,249 259,249 259,249 259,249 259,249 259,249 259,249 259,249 259,249 259,249 259,249 259,249 259,249 259,249 259,249 259,249 259,249 259,249 259,249 259,249 259,249 259,250 259,250 259,250 259,250 259,250 259,249 259,249 258,249 258,249 258,249 258,249 258,249 258,249 258,249 258,249 258,249 258,250 258,250 258,250 258,250 258,250 258,250 258,250 258,250 258,250 258,250 258,250 257,250 257,250 257,251 257,251 257,251 257,251 257,251 257,251 257,251 257,250 257,250 257,250 257,250 257,250 257,250 257,250 257,251 256,251 256,251 256,251 256,251 255,251 255,251 255,251 255,251 255,251 254,251 254,251 254,251 254,251 254,251 254,251 254,251 254,252 254,252 254,252 254,252 254,252 253,252 253,252 253,252 253,252 253,252 253,252 253,252 253,252 252,253 252,253 252,253 252,253 252,253 252,253 252,253 252,253 252,253 252,253 252,254 252,254 252,254 252,254 252,254 251,254 251,254 251,254 251,254 251,254 251,254 251,255 251,255 251,255 251,255 251,255 251,255 251,255 251,255 250,255 250,255 250,255 250,255 250,256 250,256 250,256 250,256 250,256 250,256 250,256 250,256 250,256 250,256 250,256 250,256 249,256 250,256 249,257 249,257 249,257 249,257 249,257 249,257 249,257 249,257 249,258 249,258 248,258 248,258 248,258 248,258 248,258 248,258 248,258 248,258 248,258 248,259 248,259 248,259 248,259 247,259 247,259 247,259 247,259 247,259 247,259 247,260 247,260 247,260 247,260 247,260 247,260 247,260 247,260 247,260 247,260 247,260 247,261 247,261 247,261 247,261 247,261 247,261 247,261 247,261 247,262 247,262 247,262 247,262 247,262 247,262 247,262 247,263 247,263 247,263 247,263 247,264 247,264 246,264 246,264 246,264 246,264 246,264 246,264 246,264 246,265 246,265 246,265 246,265 246,265 246,266 246,266 246,266 246,266 246,266 246,266 246,266 246,266 246,266 246,266 246,266 246,267 246,267 246,267 246,267 246,267 246,267 246,268 246,269 246,269 246,269 245,269 245,270 245,270 245,270 245,270 245,271 244,271 244,272 243,272 243,272 243,272 243,272 243,272 243,272 243,272 243,272 243,273 243,273 243,273 243,273 243,273 243,273 243,273 243,273 243,273 243,273 243,273 243,273 243,273 242,273 242,273 242,274 242,274 242,274 242,274 242,274 242,274 242,274 242,274 242,274 242,274 242,274 242,274 242,275 242,275 242,275 242,275 242,275 241,275 241,275 241,275 241,276 241,276 241,276 241,276 241,276 241,276 240,277 240,277 240,277 240,277 240,277 240,277 240,277 240,278 240,278 240,278 240,278 239,278 239,278 239,278 239,278 239,278 239,278 239,278 239,279 239,279 239,279 239,279 239,279 239,279 239,279 239,279 239,279 239,279 239,279 239,279 239,280 239,280 239,280 239,280 239,280 239,280 239,280 239,280 239,280 239,281 239,281 239,281 239,281 239,281 239,281 238,282 238,282 238,282 238,282 238,282 238,282 238,282 238,283 238,283 238,283 239,283 239,283 238,283 238,283 238,283 238,283 238,283 238,283 238,283 238,284 238,284 238,284 238,285 238,285 238,285 238,285 238,285 238,285 238,286 238,286 238,286 238,286 238,286 238,286 238,287 238,287 238,287 238,287 238,287 238,287 238,287 238,287 238,288 238,288 238,288 238,288 238,288 238,288 238,288 238,289 238,289 238,289 238,289 238,289 238,289 238,289 238,289 238,289 238,289 238,289 238,289 238,289 239,289 239,289 239,289 239,290 239,290 239,290 239,290 239,290 239,290 239,290 239,290 239,290 239,290 239,290 239,290 239,290 239,290 239,290 239,290 239,290 239,290 239,290 239,291 239,291 239,291 239,291 239,291 239,291 239,291 239,291 239,291 239,291 239,291 239,291 239,291 239,291 239,291 239,291 239,291 239,291 239,291 239,291 239,291 239,291 239,292 239,292 239,292 239,292 239,292 239,292 238,292 238,292 238,292 238,292 238,292 238,292 238,293 238,293 238,293 237,293 237,293 237,293 237,293 237,293 238,293 238,293 237,293 237,293 237,293 237,293 237,293 237,293 237,293 237,293 237,293 237,293 237,293 237,294 237,294 237,294 237,294 237,294 237,294 237,294 237,295 237,295 237,296 237,297 237,297 237,297 237,298 237,298 237,298 237,298 237,298 237,298 237,299 237,299 236,299 236,299 236,299 236,299 236,299 236,299 236,300 236,300 236,300 235,300 235,300 235,300 235,300 235,300 235,300 235,300 235,300 235,301 235,301 235,301 235,301 235,301 235,301 235,301 235,301 235,301 235,302 234,302 234,302 235,302 235,302 234,302 234,302 234,302 234,302 234,303 234,303 234,303 234,303 234,304 234,304 234,304 234,305 234,305 234,305 234,305 234,306 234,306 234,306 234,306 234,306 234,307 234,307 234,307 234,307 233,307 234,307 234,307 234,307 234,307 233,308 233,308 233,308 233,308 234,308 233,308 233,309 234,309 233,309 233,309 233,310 234,311 234,311 234,311 234,311 234,311 234,311 234,311 233,311 234,312 234,312 233,312 233,312 233,312 233,312 233,312 233,312 233,312 233,312 233,312 233,313 233,313 233,313 233,313 233,313 233,313 233,313 233,313 233,313 233,313 233,313 233,313 233,314 233,314 233,314 233,314 233,314 233,314 233,314 233,314 233,315 233,315 233,315 233,315 233,315 233,315 233,315 233,315 233,316 233,316 233,316 233,316 233,316 233,316 233,316 233,316 233,316 233,316 233,316 233,316 233,317 233,317 232,317 232,317 232,317 232,317 232,318 232,318 232,318 232,318 232,318 232,318 232,318 232,318 232,318 232,318 231,319 231,319 231,319 231,319 231,319 231,320 231,320 231,320 231,320 231,321 231,321 231,321 231,321 231,321 231,322 231,322 231,322 230,322 230,322 230,322 230,323 230,323 230,323 230,323 230,323 230,323 230,323 230,323 230,323 230,323 229,324 229,324 229,324 229,324 229,324 229,324 229,324 229,324 229,324 229,325 229,325 229,325 229,325 229,325 229,325 229,326 229,326 229,326 229,326 229,326 229,326 229,327 229,327 229,327 229,327 229,327 229,327 229,327 229,328 229,328 229,328 229,328 229,328 229,328 229,329 229,329 229,329 229,329 229,329 229,329 229,329 229,330 229,330 229,330 229,330 229,330 229,330 229,331 229,331 229,331 229,331 229,331 229,331 229,331 229,331 229,331 229,332 229,332 230,332 230,332 230,332 230,333 230,333 230,333 230,333 230,333 230,333 230,333 230,333 230,333 230,333 231,335 231,335 231,335 231,335 231,335 231,335 231,335 231,335 231,335 231,336 231,336 231,336 231,336 231,336 231,336 231,336 231,337 231,337 231,337 231,337 231,337 231,338 231,338 231,338 231,338 231,338 231,338 231,339 231,339 231,339 231,339 231,339 231,340 231,340 231,340 231,340 231,340 231,341 232,341 232,341 232,341 232,341 232,341 232,341 232,342 232,342 232,342 232,342 232,342 232,342 232,342 232,342 232,342 232,343 232,343 232,343 232,343 232,343 232,343 232,343 232,343 232,343 232,343 232,343 232,343 232,343 232,344 232,344 232,344 232,344 232,344 232,344 232,344 232,344 232,345 232,345 232,345 232,345 232,345 232,345 232,346 232,346 232,346 232,346 232,346 232,346 232,346 232,346 232,346 232,346 232,346 232,346 232,346 232,346 232,346 232,347 232,347 232,347 232,347 232,347 232,347 232,347 231,347 231,347 231,347 231,347 231,348 231,348 231,348 231,348 231,348 231,348 231,348 231,348 231,348 231,348 231,349 231,349 231,349 231,349 231,349 231,349 231,349 231,350 231,350 231,350 231,350 231,350 231,350 231,350 231,350 231,350 231,350 231,351 231,351 231,351 231,351 231,351 231,351 231,351 231,351 231,351 231,352 231,352 231,352 231,353 231,353 231,354 231,354 232,355 232,355 232,355 232,356 232,356 233,356 233,356 233,356 233,357 233,357 233,357 233,357 233,357 233,358 233,358 234,358 234,358 234,359 234,359 234,359 234,360 234,360 234,360 234,360 234,360 234,361 234,361 235,361 235,362 235,362 235,362 235,362 235,362 235,363 235,363 236,363 235,364 235,364 236,364 236,365 236,365 236,365 237,365 237,366 237,366 237,366 237,367 238,367 238,367 238,368 239,368 239,369 239,369 238,369 238,369 238,369 238,370 238,370 238,370 238,371 238,371 238,372 238,372 237,373 237,373 237,374 237,374 236,374 236,374 236,374 236,374 236,375 235,375 235,375 235,375 235,376 235,376 235,376 235,376 235,376 235,376 234,376 234,376 234,377 234,377 234,377 234,377 234,378 234,378 234,378 234,378 234,378 234,378 234,378 234,379 234,379 234,379 234,379 234,379 234,379 234,379 234,379 234,379 235,379 235,379 235,379 235,379 235,379 235,380 235,380 235,380 234,380 234,380 234,380 234,380 234,380 234,380 234,380 234,380 234,380 234,380 234,380 234,381 234,381 234,381 234,381 234,381 234,381 234,381 234,381 234,381 234,382 234,382 234,382 234,382 234,382 234,382 234,382 234,382 234,383 234,383 234,383 234,383 234,383 234,383 234,383 234,383 234,383 235,383 235,383 235,383 235,383 235,383 234,383 234,383 234,383 234,383 234,383 234,383 234,383 234,384 234,384 234,384 234,384 234,384 234,384 234,384 234,384 234,384 234,384 234,385 234,385 234,385 234,385 234,385 234,385 234,385 234,385 234,385 234,385 234,385 234,385 234,385 234,385 234,386 234,386 234,386 234,386 234,386 234,386 234,386 234,387 234,387 234,387 234,387 234,387 234,387 234,387 234,387 234,387 234,387 234,387 234,387 234,388 234,388 234,388 234,388 234,388 234,388 234,388 234,388 234,389 234,389 234,389 234,389 234,389 233,389 233,389 233,389 233,389 233,389 233,389 233,389 234,389 234,389 234,390 234,390 234,390 234,390 234,390 233,390 233,390 233,390 233,390 233,390 233,390 233,391 233,391 233,391 233,391 233,391 233,391 233,391 233,391 233,391 233,391 233,391 233,392 233,392 233,392 233,392 233,392 233,392 233,392 233,392 233,392 233,393 234,393 234,393 234,393 234,393 234,393 234,393 234,393 234,393 234,393 234,393 234,393 234,393 234,393 234,393 234,393 234,393 234,393 234,393 234,393 234,393 234,393 234,393 233,393 233,393 233,393 233,393 233,393 233,393 233,393 233,393 233,393 233,394 233,394 233,394 233,394 233,394 233,394 233,394 233,394 233,394 234,394 234,394 234,394 234,394 234,394 234,394 234,395 234,395 234,395 234,395 234,395 234,395 234,395 234,395 234,395 234,395 234,395 234,395 234,395 234,395 234,395 234,395 234,395 234,395 234,395 234,396 234,396 234,396 234,396 233,395 233,396 233,396 233,396 233,396 233,396 233,396 233,396 233,396 233,396 233,396 233,396 233,396 233,396 233,396 233,396 233,397 233,397 233,397 233,397 233,397 234,397 234,397 234,397 234,397 234,397 234,397 234,397 234,397 234,397 234,397 234,397 234,397 234,397 234,397 234,397 234,397 234,397 234,397 234,397 234,397 233,397 233,397 233,397 233,397 233,397 233,397 233,397 233,397 233,397 233,397 233,397 233,397 233,397 233,397 234,398 234,398 233,398 233,398 233,398 233,398 233,398 233,398 233,398 233,398 233,398 233,398 233,398 233,398 233,398 233,398 233,398 233,398 233,398 233,398 233,398 233,398 233,398 233,398 233,399 233,399 233,399 233,399 233,399 233,399 233,399 233,399 233,399 233,399 233,399 233,399 233,399 233,399 233,399 233,399 233,399 233,399 233,399 233,400 233,400 232,400 232,400 232,400 232,400 232,400 232,400 232,400 232,400 232,400 232,401 232,401 232,401 232,401 232,401 232,401 232,401 232,401 232,401 232,401 232,401 232,401 232,401 232,401 233,401 233,402 233,402 233,402 233,402 233,402 233,402 233,402 233,402 233,402 233,402 233,402 233,402 233,402 233,402 233,402 233,402 233,402 233,402 233,402 233,402 233,403 233,403 233,403 233,403 233,403 233,403 233,403 233,403 233,404 233,404 233,404 233,404 233,404 233,404 233,404 233,404 233,404 233,404 233,404 233,404 233,404 233,404 233,404 233,404 233,404 233,404 233,405 233,405 233,405 233,405 233,405 233,405 233,405 233,405 233,405 233,405 233,406 233,406 233,406 233,406 233,406 233,406 233,406 233,406 233,407 233,407 233,407 233,407 233,407 233,407 233,407 233,407 233,407 233,407 233,407 234,407 234,408 234,408 234,408 233,408 233,408 233,408 233,408 233,408 233,408 233,409 233,409 234,409 234,409 234,409 234,409 233,409 233,409 233,409 234,409 234,409 234,409 234,409 234,409 234,409 234,409 234,409 234,409 234,409 234,409 234,409 233,409 233,409 233,409 233,409 233,409 233,410 233,410 233,410 233,410 233,410 233,410 233,410 233,410 233,410 234,410 234,410 234,411 233,411 233,411 234,411 234,411 234,411 234,411 234,411 234,412 234,412 234,412 234,412 234,412 234,412 234,412 234,412 235,412 235,412 235,412 235,412 235,412 235,412 235,412 235,412 235,412 235,412 235,413 235,413 235,413 235,413 234,413 234,413 234,413 234,413 235,413 235,413 235,414 235,414 235,414 235,414 235,414 235,414 235,414 235,414 235,414 235,414 234,414 235,414 235,414 235,414 234,415 234,415 234,415 234,415 234,415 234,415 235,415 234,415 234,415 234,415 234,415 234,415 234,415 234,416 234,416 234,416 234,416 234,416 234,416 234,416 234,417 234,417 234,417 234,417 234,417 234,417 234,418 234,418 234,418 234,418 234,418 234,419 234,419 234,419 234,419 234,419 234,419 235,420 235,420 235,420 235,420 235,420 235,421 235,421 235,421 235,421 235,421 235,421 235,421 235,421 235,422 235,422 235,422 235,422 235,422 235,422 235,422 235,422 235,422 235,423 235,423 235,423 235,423 235,423 235,424 235,424 235,424 235,425 236,425 236,425 236,425 236,425 236,425 236,425 236,426 236,426 236,426 236,426 236,426 238,429 238,429 238,429 238,429 238,429 238,429 239,430 239,430 239,430 239,430 239,430 239,430 239,430 239,430 239,430 239,430 239,430 239,431 239,431 239,431 239,431 239,431 240,431 240,431 240,432 240,432 240,432 240,432 240,432 240,432 240,432 240,433 240,433 240,433 240,433 240,433 240,433 240,433 240,433 239,433 239,433 239,434 239,434 239,434 239,434 239,434 239,434 239,434 239,434 239,434 239,435 239,435 239,435 239,435 238,435 238,436 238,436 238,436 238,436 238,436 238,436 238,436 238,436 238,436 238,436 238,437 238,437 238,437 238,437 238,437 238,437 238,437 238,437 238,437 238,437 238,438 238,438 238,438 238,438 238,438 238,438 238,438 238,438 238,438 238,438 238,438 237,439 237,439 237,439 237,439 237,439 238,440 238,440 238,440 238,440 238,440 238,440 238,440 238,440 238,440 238,440 238,440 238,440 238,440 238,440 238,440 237,440 237,440 237,440 237,440 237,440 237,440 237,440 237,440 237,440 237,440 237,441 237,441 237,441 237,441 237,441 237,441 237,441 237,441 236,441 236,442 236,442 236,442 236,442 236,442 235,442 235,442 235,443 235,443 235,443 235,443 235,443 235,443 235,443 235,443 234,443 234,443 234,444 234,444 234,444 234,444 234,444 234,444 234,444 234,444 234,444 234,444 234,444 233,444 233,445 233,445 233,445 233,445 233,445 233,445 233,445 233,445 233,446 233,446 233,446 233,446 233,446 233,446 233,446 233,446 233,446 233,447 232,447 232,447 232,447 232,447 232,447 232,447 232,447 232,447 232,447 232,447 232,447 232,447 232,447 232,447 232,447 231,447 231,448 231,448 231,448 231,448 231,448 231,448 231,448 231,448 231,448 231,449 231,449 230,449 230,449 230,449 230,449 230,449 230,450 230,450 230,450 230,450 230,450 230,450 230,450 230,450 230,450 229,450 229,450 229,450 229,451 229,451 229,451 229,451 229,451 229,451 229,451 229,451 229,452 229,452 228,452 228,452 228,452 228,452 228,452 228,452 228,452 228,453 228,453 228,453 227,453 227,453 228,453 228,453 227,453 227,453 227,453 227,453 227,453 227,453 227,453 227,453 227,453 227,453 227,454 227,454 227,454 227,454 227,454 227,454 227,454 227,454 227,454 227,454 227,454 227,455 227,455 226,455 226,455 226,455 226,455 226,455 226,455 226,455 226,455 226,455 226,455 226,456 226,456 226,456 226,456 226,456 226,456 226,456 226,457 225,457 225,457 225,457 225,457 225,457 225,457 225,458 225,458 225,458 224,458 224,458 224,458 224,458 224,458 224,458 224,458 224,458 224,459 224,459 224,459 223,459 223,459 223,459 223,459 223,459 223,459 223,459 223,459 223,459 223,459 223,459 223,459 222,459 222,460 222,460 222,460 222,460 222,460 222,460 222,460 223,460 223,460 223,460 223,460 223,460 223,460 222,460 222,460 222,461 222,461 222,461 222,461 222,461 222,461 222,461 222,461 222,461 222,461 222,461 222,461 222,461 222,461 222,461 222,461 222,461 222,461 222,461 222,461 222,461 222,461 222,461 222,461 222,461 222,461 222,461 222,461 221,461 221,461 221,461 221,461 221,461 221,461 221,461 221,461 221,461 221,461 221,461 221,461 221,461 221,461 221,461 221,461 221,461 221,461 221,461 221,461 221,461 221,461 221,461 221,461 221,462 221,461 221,461 221,461 220,461 220,461 220,461 220,461 220,461 220,461 220,461 220,461 220,461 220,461 220,461 220,461 220,461 220,461 220,461 219,462 219,462 219,462 219,462 219,462 219,462 219,462 219,462 219,462 219,462 219,462 218,462 218,462 218,462 218,462 218,462 218,462 218,462 218,462 218,462 218,462 218,462 218,463 218,463 217,463 217,463 217,463 217,463 217,463 217,463 217,463 217,463 217,463 217,463 217,463 217,463 216,463 216,463 217,463 216,463 216,463 216,463 216,463 216,463 216,463 216,463 216,463 216,463 216,463 216,463 216,463 216,464 216,463 216,463 216,463 216,463 216,463 216,463 216,463 216,463 216,463 215,463 215,463 215,464 215,464 215,464 215,464 215,464 215,464 216,464 216,464 215,464 215,464 215,464 215,465 215,465 215,465 215,465 215,465 215,465 215,465 215,465 215,465 215,465 215,465 215,465 215,465 215,465 215,465 215,465 214,465 214,465 214,465 214,465 214,466 214,466 214,466 214,466 214,466 214,466 214,466 214,466 214,466 214,466 214,466 214,466 214,466 214,466 214,466 214,466 213,466 213,466 213,466 213,466 213,466 213,466 213,466 213,466 213,466 213,466 213,466 212,466 212,467 212,467 212,467 212,467 211,467 211,467 211,467 211,467 211,467 211,467 211,467 210,467 210,467 210,467 210,467 210,467 210,467 210,467 210,467 210,468 210,468 210,468 210,468 210,468 209,468 209,468 209,468 209,468 209,468 209,468 209,468 209,468 209,468 209,468 209,469 209,469 209,469 209,469 209,469 209,469 209,469 209,469 208,469 208,469 208,469 208,469 208,469 208,469 208,469 208,469 208,470 208,470 208,470 208,470 207,470 207,470 207,470 207,470 207,470 207,471 207,471 207,471 206,471 206,471 206,471 206,471 206,471 206,471 206,471 206,471 206,471 206,471 206,471 206,471 206,471 205,471 205,471 205,471 205,471 205,471 205,472 205,472 205,471 205,472 205,472 205,472 205,472 204,472 204,472 204,472 204,472 204,472 204,472 204,473 204,473 204,473 203,473 203,473 203,473 203,473 203,473 203,473 203,473 203,473 203,473 203,473 202,473 202,474 202,474 202,474 202,474 202,474 202,474 202,474 202,474 202,474 202,475 202,475 202,475 202,475 201,475 201,475 201,475 201,476 201,476 201,476 201,476 201,476 201,476 202,476 202,476 202,476 202,476 202,476 202,476 202,477 202,477 202,477 202,477 202,477 202,477 202,477 201,477 201,477 201,477 201,477 201,477 201,477 201,477 201,477 201,477 201,477 201,477 200,477 200,477 200,477 200,477 200,476 200,476 200,476 200,476 200,476 200,476 200,476 200,476 200,476 199,476 199,477 199,477 200,477 200,477 200,477 200,477 200,477 200,477 200,477 200,477 199,477 199,477 199,477 199,477 199,477 199,477 199,477 199,477 199,477 199,478 199,478 199,478 199,477 199,477 199,477 199,477 199,477 198,478 198,478 198,478 198,478 198,477 198,477 198,478 198,478 198,478 198,478 198,478 198,478 197,478 197,478 197,478 197,478 197,478 197,478 197,478 197,478 197,478 197,478 197,478 197,478 197,478 196,478 196,478 196,478 196,478 196,478 196,478 196,478 196,478 196,478 196,478 195,479 195,479 195,479 195,479 195,479 195,479 195,480 195,479 195,480 195,480 195,480 195,479 195,479 195,479 195,479 194,480 194,480 194,480 194,480 194,480 194,480 194,480 194,480 194,480 194,480 194,480 194,479 194,479 194,479 194,479 194,480 194,480 194,480 194,480 194,480 194,480 193,480 193,480 193,480 193,480 193,480 193,480 193,480 193,480 193,480 193,480 193,480 193,480 193,480 193,480 193,480 192,480 192,480 192,480 192,480 192,480 192,480 192,480 192,480 192,480 192,480 192,481 192,481 192,481 191,481 191,481 191,481 191,481 191,481 191,481 191,481 191,481 191,481 191,481 191,481 191,481 191,481 191,481 191,481 191,481 191,481 191,482 191,482 191,482 191,482 191,482 191,482 191,482 190,482 190,482 190,482 190,482 190,482 190,482 190,482 190,482 190,482 190,482 190,482 190,482 190,482 190,482 190,482 189,482 189,482 189,482 189,482 190,482 190,482 189,482 189,482 189,482 189,482 189,483 189,483 190,483 190,483 190,483 190,483 190,483 190,483 190,483 190,483 190,483 189,483 189,483 189,483 189,483 189,483 189,483 188,483 188,483 188,483 188,483 188,483 188,483 188,483 188,484 188,484 188,484 187,483 187,483 188,483 188,483 188,483 188,483 188,483 188,483 188,483 187,483 187,483 187,483 187,483 187,483 187,483 187,483 186,483 186,483 186,482 186,482 186,482 186,482 186,482 186,482 186,482 186,482 185,482 185,482 185,482 185,483 185,483 185,483 185,483 185,483 185,483 185,483 185,483 185,483 185,483 185,483 185,483 185,483 185,483 185,483 185,483 185,483 185,483 184,483 184,483 184,483 184,483 184,483 184,483 184,483 184,483 184,483 183,483 183,483 183,483 183,483 183,483 183,483 183,483 183,483 183,483 183,483 183,483 183,483 183,483 183,483 183,483 183,483 183,483 183,483 183,484 183,483 183,483 183,483 183,483 183,483 183,483 183,483 183,483 183,483 183,483 182,483 182,483 182,483 182,483 182,483 182,483 182,483 182,483 182,483 182,483 182,483 182,483 182,483 182,483 182,483 182,483 182,483 182,483 181,483 181,483 181,483 181,483 181,483 181,482 181,482 181,482 181,482 181,482 180,482 180,482 180,483 180,483 180,483 180,483 180,483 180,483 180,483 180,483 180,483 180,483 180,483 180,483 180,483 180,483 180,483 180,483 180,483 180,483 179,483 179,483 179,483 179,483 179,483 179,483 179,483 179,483 179,483 179,483 179,483 179,483 178,483 178,483 178,483 178,483 178,483 178,483 178,483 178,483 178,483 178,483 178,483 177,483 177,483 177,483 177,483 177,483 177,483 178,483 178,483 178,483 178,483 177,482 177,482 177,482 177,482 177,482 177,482 177,482 177,482 177,482 177,482 177,482 177,482 177,481 177,481 176,482 176,482 176,482 176,482 176,482 176,482 176,482 176,482 176,482 176,482 176,482 176,482 176,482 175,482 175,482 175,481 175,481 175,481 175,481 175,481 175,481 175,481 175,481 175,481 175,481 175,481 175,481 174,481 174,481 174,481 174,481 174,481 174,481 174,481 174,481 174,481 174,481 173,481 173,481 173,481 173,481 173,481 173,481 173,480 173,480 173,480 173,480 173,480 173,481 173,481 173,481 173,481 173,481 173,480 172,480 172,480 172,480 172,480 172,480 172,480 172,480 172,480 171,481 171,481 171,481 171,481 171,481 171,481 171,481 171,481 171,481 171,481 170,481 170,481 170,481 170,481 170,481 170,481 170,481 170,481 170,481 170,481 169,481 169,481 169,481 169,481 169,481 169,481 169,481 169,481 169,481 169,481 168,481 168,481 168,482 168,481 168,482 167,482 168,481 167,481 167,481 167,481 167,481 167,481 167,481 167,481 167,481 167,481 167,481 167,481 167,481 167,481 167,480 166,480 166,480 166,480 166,480 166,480 166,480 166,480 166,480 166,480 165,480 165,480 165,480 165,480 165,480 165,480 165,480 164,480 164,480 164,480 164,480 164,480 163,480 163,480 163,479 162,479 162,479 162,479 162,479 162,480 162,480 161,480 161,480 161,480 161,480 161,480 160,480 160,480 160,480 160,480 160,480 160,480 160,480 160,480 159,480 159,480 159,481 159,481 159,481 159,481 159,481 159,481 159,481 158,481 158,481 158,481 158,481 158,481 158,482 158,482 158,482 158,482 158,482 158,482 158,482 158,483 158,483 158,483 157,483 157,483 157,484 157,484 157,484 157,484 157,484 157,484 157,484 157,484 157,485 157,485 156,485 156,485 156,485 156,485 156,485 156,485 156,485 155,485 155,485 155,485 155,485 155,485 155,485 154,485 154,485 154,486 154,486 154,486 154,486 154,486 154,486 154,486 154,486 154,486 154,486 154,486 153,487 153,487 153,487 153,486 153,486 153,486 152,486 152,486 152,486 152,486 152,486 151,486 151,486 151,486 151,486 151,486 150,486 150,486 150,486 150,486 150,486 150,487 150,487 149,487 149,487 149,487 149,487 149,487 149,488 149,488 149,488 149,488 148,488 148,488 148,488 148,487 148,487 148,487 147,487 147,487 146,487 146,487 146,488 146,488 145,488 145,488 145,488 145,488 144,488 144,488 144,488 144,488 144,488 144,488 144,488 143,488 143,488 143,488 143,488 143,488 143,488 143,488 143,488 142,488 142,488 142,488 142,488 142,488 142,488 142,488 141,488 141,488 141,488 140,488 140,488 140,488 140,488 140,488 139,488 139,488 139,489 139,489 139,488 139,488 138,488 138,488 138,488 138,489 138,489 137,489 136,489 136,489 136,489 136,488 136,488 135,488 134,488 134,488 133,488 133,488 133,488 132,488 132,488 132,488 132,488 132,488 132,488 131,488 131,488 131,488 131,488 131,488 131,488 131,488 130,488 130,488 130,489 130,489 130,489 130,489 130,488 130,488 130,488 129,488 129,488 129,488 129,488 129,488 128,488 128,488 128,489 128,489 128,489 128,489 128,489 128,489 128,489 127,489 127,489 127,489 127,489 127,489 127,489 127,489 127,489 127,489 127,490 127,490 127,490 126,490 126,490 126,490 126,490 126,490 126,490 126,490 125,490 125,490 125,489 125,489 125,489 125,490 125,490 125,490 125,491 125,491 125,491 125,491 124,491 124,491 124,491 124,490 124,490 124,490 124,490 124,490 124,490 124,490 124,490 124,490 124,490 124,490 124,489 124,489 124,489 124,489 123,489 123,489 123,489 122,489 122,489 122,489 122,489 121,489 121,489 121,489 121,489 121,489 121,489 120,489 120,489 120,489 120,489 120,489 120,489 120,489 120,489 120,489 120,489 120,489 120,490 119,490 119,490 119,490 119,490 119,489 119,489 119,490 119,490 119,490 119,490 119,490 119,490 118,490 118,490 118,490 118,490 118,490 118,490 118,490 118,490 118,490 118,490 118,490 118,490 118,490 118,491 118,491 118,491 118,490 117,490 117,490 117,490 117,490 117,491 117,491 117,491 117,491 117,491 117,491 117,491 117,491 117,491 117,490 117,491 117,491 117,491 117,491 117,491 116,491 117,491 117,491 116,491 116,491 116,491 116,491 116,491 116,491 116,492 116,492 115,492 115,492 115,492 115,492 115,492 115,492 115,492 115,492 115,492 115,492 115,492 115,492 115,492 115,492 115,492 115,492 115,492 115,492 115,492 115,492 115,492 115,492 115,492 115,492 114,492 114,492 114,492 114,492 114,492 114,492 114,492 114,492 114,492 114,492 114,492 114,493 114,493 114,493 113,492 113,492 113,492 113,492 113,492 113,492 113,493 113,492 113,492 113,493 113,493 113,493 113,493 113,493 113,493 113,493 113,493 113,493 113,493 113,493 112,493 112,493 112,493 112,493 112,493 112,493 112,493 112,493 112,493 112,493 112,494 112,494 112,494 112,494 112,494 112,494 112,494 112,494 112,494 112,494 111,494 111,494 111,494 111,494 111,494 111,494 111,494 111,494 111,494 111,494 111,494 111,494 110,494 110,494 110,494 110,494 110,494 110,494 110,494 110,494 110,494 110,494 110,494 110,494 110,494 110,494 110,494 110,494 110,495 110,495 110,495 110,495 110,495 110,495 110,495 110,495 110,495 110,495 110,495 110,495 110,495 110,495 109,494 109,494 109,494 109,494 109,494 109,495 109,495 109,495 109,495 109,495 109,495 109,495 109,495 109,495 108,495 108,495 108,495 108,495 108,495 108,495 108,495 108,495 108,495 108,495 108,495 107,495 107,495 107,495 106,496 106,496 106,496 106,496 106,496 106,496 106,496 106,496 106,496 106,496 105,496 105,496 105,496 105,496 105,496 105,497 104,497 104,497 104,497 104,497 103,497 103,497 103,497 103,497 102,497 102,497 102,497 102,497 102,497 101,497 101,497 100,497 100,497 100,498 100,498 100,498 99,498 99,498 99,498 99,498 99,498 98,498 98,498 98,498 98,498 97,498 97,497 97,498 97,498 97,498 97,498 97,497 97,497 97,497 97,497 96,497 96,497 96,497 96,497 96,497 95,497 95,497 95,498 95,498 95,498 95,498 95,498 94,498 95,498 95,499 95,499 95,499 95,499 95,499 94,499 94,499 94,499 94,498 95,498 94,498 94,498 94,498 94,498 94,498 94,498 94,498 94,498 93,498 93,498 93,498 93,498 93,498 93,498 93,498 92,498 92,498 92,498 92,498 92,498 92,498 92,499 92,499 92,499 92,499 92,499 92,499 92,499 92,499 92,499 92,499 92,499 92,499 92,499 92,499 92,499 92,500 91,500 91,499 91,499 91,499 91,499 91,499 91,499 91,499 91,499 91,499 90,499 90,499 90,499 90,499 90,499 90,499 91,499 91,499 91,499 91,499 91,499 91,499 90,499 90,499 90,499 90,499 90,499 90,499 90,499 90,499 90,499 89,499 89,499 89,499 89,499 89,499 89,499 89,499 89,499 89,499 89,499 89,499 89,499 89,499 88,499 88,499 88,499 88,499 88,499 88,499 88,499 88,499 88,499 88,499 88,499 88,499 88,499 88,499 88,499 88,499 88,499 87,499 87,499 87,499 87,499 87,499 86,499 86,499 86,499 86,499 85,499 85,499 85,499 85,499 85,499 84,499 84,499 84,499 84,500 83,500 83,500 83,500 82,500 82,500 82,500 82,500 82,500 81,500 81,500 81,500 81,500 81,500 80,500 80,500 80,500 80,500 79,500 79,500 79,500 79,500 79,500 79,500 79,499 79,499 79,499 80,497 82,497 83,495 84,495 84,494 84,494 85,494 86,494 86,492 87,492 86,491 86,490 86,490 86,490 86,489 86,489 86,488 86,487 87,485 86,484 86,483 86,481 85,481 86,480 86,479 85,478 85,478 84,477 85,477 84,476 84,476 83,475 83,475 82,474 81,473 79,472 78,470 78,468 79,468 79,467 77,466 77,462 75,459 76,457 75,456 75,455 76,453 76,451 76,451 76,450 76,449 76,449 76,448 75,447 75,446 75,443 75,443 77,443 77,442 77,439 77,439 78,438 78,437 77,437 77,436 77,435 77,435 75,434 75,434 75,433 74,432 73,432 73,431 73,430 73,430 73,428 72,428 72,426 69,420 69,419 62,399 62,398 61,392 61,391 60,390 61,389 61,387 61,386 62,385 63,383 64,381 64,379 65,377 65,374 65,374 65,373 65,371 66,369 65,368 65,368 65,365 65,365 65,364 65,363 65,363 65,361 65,360 66,359 66,358 67,357 67,356 67,355 67,355 68,354 69,353 70,352 70,351 70,350 69,350 67,349 67,349 65,348 64,348 63,348 62,347 62,347 60,346 59,344 58,344 58,344 58,343 57,343 57,342 56,342 56,341 56,340 55,340 54,338 54,337 53,336 53,335 53,334 52,334 52,332 51,332 51,330 51,329 50,327 50,326 50,325 50,324 49,324 50,323 49,321 49,320 49,319 48,318 48,315 48,313 48,312 48,311 47,310 47,309 47,307 46,306 46,305 46,304 46,302 47,301 47,300 47,299 47,298 47,298 5,294 3,293 2,293 1,293 0,292 0,290 0,289 3,286 3,285 5,283 5,280 6,280 7,278 7,277 8,276 9,276 9,274 10,273 10,272 11,270 11,268 10,267 10,266 12,263 11,262 11,259 11,258 11,256" id="97408" class="canton" fill="steelblue" stroke-width="1" stroke="white" geotype="canton" geoname="Saint-Benoît-2" code_insee="97408" code_departement="974" nom_departement="La Réunion" code_region="4" nom_region="La Réunion"/></svg>