<?xml version="1.0" encoding="utf-8"?>
<svg version="1.1" id="svgmap" xmlns="http://www.w3.org/2000/svg" xmlns:xlink="http://www.w3.org/1999/xlink" x="0px" y="0px" width="100%" height="100%" viewBox="0 0 500 268">
<polygon points="105,190 104,190 104,193 96,195 93,188 90,185 87,180 80,177 71,182 66,180 64,178 73,174 77,171 78,168 80,166 78,164 76,163 75,164 73,162 78,157 81,156 81,154 78,150 76,149 74,149 73,148 69,147 68,146 65,146 69,143 69,140 66,140 66,139 63,139 60,137 61,136 61,133 54,134 54,129 51,128 46,124 44,120 38,117 31,117 29,116 29,115 21,116 22,118 18,119 15,121 13,116 10,114 10,110 12,104 13,101 9,102 6,102 6,101 8,102 9,101 9,100 5,99 3,99 4,95 4,95 6,95 7,94 8,90 7,89 4,86 5,84 2,83 2,81 0,81 0,80 3,79 3,78 5,79 5,78 6,78 7,77 8,78 10,78 13,76 17,76 17,74 13,68 7,64 10,62 13,62 14,63 19,64 22,63 23,63 25,63 31,59 33,59 32,58 35,58 35,57 34,56 31,56 30,51 30,52 27,49 29,49 34,46 37,43 45,43 40,38 51,36 53,34 59,34 58,33 60,33 61,36 60,39 66,38 67,44 70,44 74,46 74,49 75,48 78,47 81,46 83,49 84,50 83,52 85,57 84,58 86,60 88,60 88,61 90,60 91,61 92,60 93,61 94,62 95,61 99,60 101,61 103,60 108,62 109,61 117,60 120,60 119,61 120,61 121,62 126,62 129,63 129,64 132,63 134,63 134,64 136,63 139,63 139,64 140,63 140,64 142,65 141,65 141,65 143,65 149,68 152,67 154,66 158,65 163,60 163,58 161,58 160,53 162,52 161,50 162,50 162,49 159,49 159,46 163,47 165,46 165,46 167,46 168,47 169,47 169,47 171,46 171,48 174,48 175,46 173,46 177,42 177,39 178,39 180,39 180,37 191,38 193,33 197,29 197,29 198,30 201,31 201,29 200,30 200,29 203,22 209,18 216,18 218,19 221,18 223,19 226,16 228,17 231,13 231,12 229,12 232,6 234,5 238,6 252,10 256,7 261,4 264,3 265,4 268,3 275,4 278,4 281,5 282,4 287,5 290,0 293,3 297,4 300,2 304,2 309,1 312,3 313,2 318,6 319,8 317,9 318,9 318,11 317,11 318,12 319,12 321,14 320,15 317,18 318,18 319,20 315,22 317,25 318,25 319,27 321,29 314,34 320,39 326,40 326,41 342,52 351,55 352,55 365,57 367,57 368,58 369,58 375,60 380,57 382,58 384,58 384,60 386,59 385,64 389,63 392,65 393,61 394,61 396,59 401,56 404,57 407,57 408,55 415,55 417,56 420,55 424,55 425,55 422,56 422,58 424,59 427,59 428,61 430,60 433,60 434,62 436,67 434,70 433,69 430,71 431,75 427,81 429,83 425,83 423,84 420,84 420,84 421,85 420,86 423,87 423,88 429,90 431,91 432,91 435,92 437,94 436,95 437,96 438,96 438,97 441,98 438,101 442,102 447,106 444,108 446,109 447,110 450,108 454,110 455,109 458,110 460,109 464,111 463,118 467,120 469,121 471,122 473,121 474,122 476,122 483,126 489,125 492,127 486,130 483,133 487,136 487,140 491,139 492,142 495,142 492,147 496,151 499,152 497,154 493,155 494,157 493,158 494,158 494,160 491,162 494,161 496,165 491,166 490,167 492,170 498,170 499,171 500,175 497,177 497,177 494,181 495,183 490,185 490,187 492,189 491,191 495,193 495,194 494,194 492,197 488,198 489,202 490,206 485,207 474,205 471,204 468,204 465,203 460,203 455,202 453,206 450,208 445,208 447,210 446,212 441,213 437,214 434,214 430,215 431,216 441,217 444,220 448,225 452,226 452,228 448,230 446,232 449,235 446,235 446,235 444,234 435,237 434,237 433,235 429,236 429,235 427,233 418,234 416,231 413,232 410,232 404,232 401,234 398,237 395,238 393,240 389,240 391,245 395,247 397,252 395,253 387,252 382,253 375,252 371,254 364,256 362,256 359,257 356,256 353,253 349,252 338,256 332,255 333,255 330,256 324,257 322,256 316,256 313,255 311,257 309,259 310,263 307,267 298,268 295,267 295,266 291,266 288,262 283,259 285,255 284,251 277,251 274,253 273,254 277,255 280,254 277,256 278,260 276,262 271,262 270,257 266,256 265,256 264,255 261,257 257,259 255,261 256,263 253,263 249,265 245,267 244,266 241,266 240,267 240,264 238,263 239,262 238,260 234,261 228,260 227,262 228,265 227,265 223,267 219,264 217,266 213,266 212,265 213,263 210,261 203,265 202,266 195,264 191,265 190,264 186,265 183,264 180,266 178,266 176,267 173,266 172,266 175,263 174,262 175,260 175,259 179,250 175,245 174,243 172,241 169,242 168,242 169,245 167,246 169,247 167,249 161,250 163,247 157,247 156,244 154,243 154,241 159,241 162,240 164,241 164,236 160,234 155,230 153,230 152,229 151,230 148,227 151,226 149,224 150,223 148,221 149,220 142,214 143,214 140,213 140,211 142,208 141,206 139,204 138,202 133,201 133,199 130,197 128,197 126,200 124,199 120,197 120,196 121,194 125,191 124,188 122,185 113,183 112,183 114,189 108,193 107,193 105,190" id="10" class="departement" fill="steelblue" stroke-width="1" stroke="white" geotype="departement" geoname="Aube" code_insee="10" code_region_2015="44" nom_region_2015="Grand-Est"/></svg>