<?xml version="1.0" encoding="utf-8"?>
<svg version="1.1" id="svgmap" xmlns="http://www.w3.org/2000/svg" xmlns:xlink="http://www.w3.org/1999/xlink" x="0px" y="0px" width="100%" height="100%" viewBox="0 0 500 271">
<polygon points="43,112 41,112 38,112 37,111 32,111 30,110 30,109 32,108 32,102 30,99 31,98 30,98 31,97 31,95 33,91 31,90 30,89 29,89 23,89 20,86 14,84 8,78 8,77 10,77 14,77 23,73 24,75 26,73 29,73 28,68 29,66 23,63 22,62 19,63 15,63 13,66 11,66 10,69 6,68 4,67 5,65 9,63 8,60 6,60 7,57 1,56 4,55 6,54 7,51 10,48 8,47 8,46 4,42 2,38 4,32 4,31 3,30 3,28 0,25 0,18 5,18 13,17 23,15 22,14 30,12 43,9 46,8 59,2 61,2 66,0 71,0 75,2 80,6 81,6 83,8 88,12 95,17 101,18 106,18 106,18 115,13 117,15 117,15 115,15 113,16 111,20 111,21 114,19 116,19 114,20 116,21 114,22 116,23 118,21 119,22 121,23 117,25 120,26 122,27 124,27 131,26 136,27 137,25 137,24 139,25 139,24 147,25 148,25 148,24 149,23 153,23 156,21 159,22 161,24 162,24 163,24 167,22 167,24 169,24 167,19 168,19 170,26 173,29 178,30 183,31 187,30 188,31 193,29 192,31 196,32 194,32 196,34 193,37 195,36 198,37 198,36 199,35 202,34 206,33 206,36 206,39 208,42 207,43 208,45 211,46 211,46 207,49 195,45 194,46 191,47 189,47 189,46 187,46 186,47 187,48 183,49 185,51 183,51 181,51 182,53 184,53 185,52 187,53 188,52 189,54 190,53 193,55 196,54 196,55 198,57 200,55 199,56 200,56 198,58 198,59 199,60 198,60 200,62 204,62 203,59 209,57 214,54 214,57 217,60 217,62 218,63 221,63 221,64 219,65 221,65 224,66 222,66 220,66 220,66 219,66 220,67 218,68 217,68 219,70 219,71 225,68 225,70 227,71 227,72 229,71 230,72 229,74 230,73 233,74 236,73 236,74 231,75 231,77 234,77 238,77 235,76 239,77 240,76 239,75 241,76 245,74 246,75 247,75 250,73 251,75 251,74 254,75 255,74 255,74 252,72 251,70 253,69 256,69 255,66 252,64 250,64 251,63 249,62 258,59 265,58 277,58 278,58 279,53 280,51 282,51 282,49 285,50 288,47 290,49 291,47 294,47 296,47 295,48 295,49 295,49 300,48 301,49 299,46 300,43 300,44 303,44 303,45 315,45 324,46 324,43 324,42 327,42 327,40 329,40 329,37 330,36 329,32 328,32 330,32 331,30 332,30 336,29 338,23 338,25 338,24 336,18 342,18 346,18 345,18 346,15 349,16 350,15 347,14 347,13 357,11 361,9 362,7 364,8 361,9 360,11 361,12 364,12 365,10 366,10 365,10 366,9 367,10 370,10 379,10 383,11 392,11 398,13 400,15 405,15 406,14 409,14 412,18 412,17 415,16 415,14 425,15 425,16 428,17 430,19 430,20 432,21 431,22 434,23 434,24 435,24 437,25 440,23 442,23 442,24 443,24 443,25 446,25 449,27 450,27 450,28 453,28 455,26 458,26 460,26 460,27 464,30 466,28 464,28 468,24 468,26 471,25 471,27 477,26 479,26 473,30 476,31 478,33 481,34 482,37 486,39 486,41 485,42 489,48 491,49 490,53 488,55 490,57 489,58 491,59 491,61 490,63 490,64 492,65 492,64 494,63 496,65 498,65 497,67 498,68 497,70 500,70 496,77 496,79 496,79 496,78 492,78 488,77 488,74 488,73 487,74 486,74 485,72 486,70 484,71 483,72 478,71 475,73 470,73 468,74 469,76 466,77 466,79 467,80 466,83 467,84 465,86 463,87 462,88 457,90 457,92 458,93 456,98 457,101 455,101 455,102 456,105 454,106 453,109 454,110 453,110 450,113 450,116 452,115 451,117 448,120 447,122 443,124 442,126 438,130 441,130 439,131 441,132 436,135 434,133 435,133 435,133 431,133 424,135 422,137 419,138 415,137 413,136 407,138 406,134 403,133 402,133 404,134 404,135 402,133 401,134 404,136 403,139 401,141 397,142 395,144 393,144 387,140 385,142 382,143 384,144 382,145 386,149 386,152 390,155 392,155 392,156 391,158 393,159 392,161 389,163 390,164 387,164 390,169 392,168 391,168 393,167 393,168 399,168 402,166 404,168 406,168 398,171 397,173 400,174 399,175 398,175 400,177 401,177 401,176 403,176 400,180 397,182 393,181 387,181 386,185 382,186 386,189 385,190 386,191 387,194 390,195 389,198 388,201 386,203 383,204 380,206 376,205 374,207 369,207 366,208 363,212 354,216 353,217 353,220 352,222 355,226 356,226 356,227 359,230 358,233 355,232 354,234 352,234 347,237 343,240 340,240 338,239 337,239 332,238 326,239 324,240 323,241 318,241 319,239 315,237 308,238 308,239 311,239 308,241 303,238 296,236 288,237 286,237 287,237 283,235 284,232 279,232 274,231 273,232 274,237 274,237 276,239 274,238 273,239 273,242 271,243 271,245 270,244 268,244 267,243 266,244 264,244 263,242 263,243 263,242 261,243 257,244 256,241 255,241 250,244 249,246 245,247 245,249 246,250 243,251 241,249 239,251 233,251 229,252 226,250 221,252 219,255 216,256 213,256 208,257 207,256 203,257 203,256 200,257 197,254 193,255 189,259 190,261 187,263 189,264 184,266 181,267 176,267 173,270 170,270 166,269 162,271 160,271 157,270 155,268 157,267 154,267 155,265 154,265 157,263 156,262 152,259 145,259 144,258 149,255 154,254 154,251 159,248 154,243 150,240 152,238 154,238 153,237 147,235 145,232 141,231 139,232 138,231 135,230 132,229 130,229 121,223 116,222 110,219 108,217 103,216 106,215 108,212 113,209 112,209 108,210 104,209 105,208 102,206 102,204 106,201 104,201 102,203 100,202 97,203 96,202 96,200 100,199 99,198 94,196 85,202 85,203 82,202 75,200 71,200 70,201 64,201 60,198 54,198 53,201 49,200 51,197 47,198 48,199 41,198 42,197 40,197 42,194 39,194 39,194 36,194 34,192 30,191 31,187 32,185 33,184 39,179 39,177 45,172 45,170 45,168 43,167 43,166 45,164 46,160 48,157 50,156 50,155 48,154 49,153 45,153 46,152 45,152 44,150 38,150 31,150 31,149 28,148 29,146 27,145 28,144 26,143 25,144 24,143 24,142 28,141 28,138 28,137 30,137 32,135 36,136 37,135 40,136 40,132 34,132 35,131 34,131 40,129 38,128 34,129 34,127 35,124 37,124 38,121 38,120 37,118 40,117 43,118 44,114 45,114 45,114 43,113 43,112" id="27" class="departement" fill="steelblue" stroke-width="1" stroke="white" geotype="departement" geoname="Eure" code_insee="27" code_region_2015="28" nom_region_2015="Normandie"/></svg>