<?xml version="1.0" encoding="utf-8"?>
<svg version="1.1" id="svgmap" xmlns="http://www.w3.org/2000/svg" xmlns:xlink="http://www.w3.org/1999/xlink" x="0px" y="0px" width="100%" height="100%" viewBox="0 0 500 487">
<polygon points="155,442 153,442 152,440 146,429 141,429 142,426 141,427 139,425 139,422 135,420 130,421 130,422 127,422 127,424 121,420 120,421 116,422 114,425 117,425 115,426 115,428 112,428 110,427 109,430 106,430 105,431 109,432 109,433 107,434 108,436 101,440 100,437 98,429 96,427 97,425 94,422 96,419 94,418 97,417 95,415 94,411 98,406 98,404 100,404 100,403 103,403 103,400 105,398 107,399 108,397 113,396 115,395 119,395 120,393 122,394 128,392 128,391 127,388 129,388 129,386 134,386 131,384 133,381 130,377 130,375 131,373 137,370 139,368 137,368 138,364 133,362 129,362 129,361 126,355 126,353 123,350 124,348 121,344 120,341 124,336 119,333 117,328 114,325 103,318 103,317 95,316 90,314 84,309 81,308 81,305 79,304 70,303 63,300 62,298 60,293 55,289 50,281 41,273 41,268 44,265 44,263 41,259 43,257 40,257 37,255 36,252 34,248 33,248 33,247 29,247 27,249 24,247 20,245 19,243 18,243 19,241 21,240 23,238 20,234 15,232 12,231 10,230 6,231 0,226 11,221 16,216 13,213 17,211 19,207 17,202 14,202 14,199 15,198 18,197 19,193 16,194 17,195 15,194 13,189 22,189 22,188 24,188 28,184 27,183 31,182 24,171 19,169 16,165 3,161 1,157 2,153 8,149 6,143 9,143 10,141 16,141 25,145 31,142 32,137 36,140 40,140 42,141 41,142 47,141 51,136 57,136 63,134 62,132 67,129 64,129 63,126 63,126 62,123 59,120 58,110 55,108 55,104 56,100 59,97 59,96 59,95 61,91 59,89 63,87 56,81 54,78 49,76 51,70 53,68 52,64 48,61 48,56 50,56 56,53 53,48 47,42 46,35 50,32 47,30 45,26 39,23 37,17 38,16 42,15 44,15 53,17 55,16 54,8 56,9 75,6 80,5 84,6 88,0 92,1 99,0 101,1 102,7 103,7 101,11 103,13 102,16 101,18 98,17 98,24 94,29 94,29 103,32 107,34 115,32 129,34 133,34 132,40 133,42 135,42 136,46 138,46 138,48 140,49 142,48 147,49 155,48 159,50 160,49 169,44 173,41 175,41 177,42 184,40 189,39 194,36 204,43 207,45 207,46 208,46 212,47 222,48 233,47 232,45 231,40 234,41 242,38 248,42 250,46 251,45 256,44 258,41 262,42 264,41 266,43 268,47 263,51 261,51 262,55 277,56 279,54 280,49 287,47 289,47 291,49 293,49 293,48 298,44 298,42 302,44 307,41 313,44 315,44 316,42 318,43 320,42 318,39 314,38 315,35 320,33 320,30 327,29 326,26 331,27 335,26 342,32 343,34 330,37 330,40 335,44 338,45 342,45 350,50 347,56 342,58 342,62 340,64 340,65 336,65 323,59 318,60 314,64 301,66 295,68 295,74 290,77 288,82 291,85 289,87 290,91 290,92 286,92 287,96 286,96 284,99 278,104 270,105 266,103 264,104 262,105 267,112 268,112 270,112 271,113 274,118 276,118 280,121 284,119 288,119 290,125 291,126 288,128 285,134 282,133 282,131 279,129 278,131 275,132 273,131 272,134 269,131 271,128 268,128 266,131 259,130 262,133 261,135 265,137 274,138 275,139 279,141 285,145 285,149 282,150 285,153 290,154 291,156 295,155 296,157 302,161 307,161 303,164 302,168 307,168 304,169 302,171 296,173 298,177 303,180 305,186 315,192 317,190 321,193 330,191 330,194 328,198 324,200 328,205 324,207 324,210 321,210 325,213 321,214 325,217 326,221 323,218 320,220 319,224 322,225 323,229 313,232 313,230 311,232 313,233 308,235 308,239 312,241 311,242 314,242 313,245 318,246 328,243 331,245 333,248 328,250 325,259 320,263 319,268 316,269 320,273 315,276 318,282 316,282 322,285 328,286 328,286 328,287 332,289 328,290 333,297 336,298 337,300 342,301 351,305 355,307 355,312 359,313 360,315 367,318 364,320 363,322 369,321 374,323 377,323 381,321 381,326 384,326 388,328 390,328 393,326 401,325 403,325 410,323 411,323 417,326 419,329 426,329 432,327 437,330 442,341 445,342 446,343 453,342 451,338 447,336 448,332 452,332 454,331 455,332 456,329 459,329 464,331 466,335 465,336 465,336 463,339 460,338 461,339 459,339 459,341 457,340 456,342 455,342 454,345 449,347 449,351 448,352 450,362 448,363 451,368 454,368 458,370 456,372 458,374 461,370 463,371 468,371 471,373 476,371 476,368 482,364 490,368 492,372 492,374 490,375 498,383 498,385 498,386 500,391 500,393 492,399 493,405 497,410 500,416 498,422 498,424 484,426 483,430 481,430 480,431 473,432 471,434 468,433 462,434 454,436 443,443 445,446 441,448 440,448 437,450 432,450 433,454 432,455 435,456 436,459 431,459 424,460 424,464 421,467 421,469 425,470 428,472 428,477 426,478 423,478 418,481 416,480 413,481 410,479 407,480 397,482 398,484 397,486 393,486 392,483 383,481 385,485 383,487 379,486 373,487 371,485 369,484 365,483 364,480 358,477 351,473 348,467 341,467 326,473 328,475 326,476 322,472 319,474 314,472 313,468 308,467 308,464 313,464 314,459 317,458 319,455 316,454 314,453 309,454 309,452 300,447 314,438 317,438 308,427 302,424 299,423 289,422 288,426 287,427 286,424 284,423 284,425 283,424 282,424 284,428 281,427 280,428 279,427 279,429 278,428 279,427 276,428 276,426 274,428 272,427 272,420 269,422 267,421 265,423 265,421 263,421 263,418 259,415 257,416 251,413 247,416 241,415 240,417 229,412 221,414 212,416 220,421 218,422 218,425 213,425 210,423 206,424 201,423 196,425 196,430 191,427 183,428 184,429 181,430 183,431 180,431 182,434 181,437 178,438 175,438 174,434 170,430 166,429 162,430 164,431 160,433 155,432 158,436 155,437 157,438 155,438 155,440 154,439 155,442" id="42" class="departement" fill="steelblue" stroke-width="1" stroke="white" geotype="departement" geoname="Loire" code_insee="42" code_region_2015="84" nom_region_2015="Auvergne-Rhône-Alpes"/></svg>