<?xml version="1.0" encoding="utf-8"?>
<svg version="1.1" id="svgmap" xmlns="http://www.w3.org/2000/svg" xmlns:xlink="http://www.w3.org/1999/xlink" x="0px" y="0px" width="100%" height="100%" viewBox="0 0 500 271">
<polygon points="309,266 308,267 306,267 305,266 300,265 300,265 300,264 299,264 300,263 299,263 298,260 299,257 302,257 302,256 300,255 301,254 298,253 298,252 298,251 301,252 302,250 299,248 298,248 298,247 297,247 295,246 292,245 291,246 289,246 289,244 288,245 287,243 287,241 289,241 291,240 293,241 294,240 294,240 295,238 294,236 294,237 291,233 291,231 288,231 287,230 286,231 286,232 283,233 280,231 276,232 275,232 275,235 273,235 270,237 271,240 270,242 269,241 262,241 258,239 258,235 257,234 254,234 252,235 253,236 251,236 251,239 248,240 244,240 239,241 235,235 232,236 227,233 222,234 221,233 218,231 217,233 213,233 213,234 210,237 210,239 210,241 208,243 209,245 208,246 207,247 209,249 208,250 207,252 208,254 208,256 204,256 204,258 201,259 201,260 203,261 204,263 203,263 202,263 201,264 200,264 196,262 194,264 191,263 191,264 188,267 188,267 187,267 186,266 185,266 181,267 180,270 179,271 170,270 170,268 171,268 174,266 172,263 172,262 171,263 168,262 167,264 164,265 163,265 162,263 159,261 154,262 153,262 153,265 153,266 147,266 141,266 139,265 139,265 139,264 137,264 131,260 128,261 125,262 121,263 120,262 119,262 116,264 111,267 110,268 108,267 103,267 101,267 99,267 98,267 98,265 97,265 97,263 95,263 95,262 95,258 93,258 85,257 80,258 78,257 73,255 73,255 75,252 75,248 77,249 77,248 78,246 77,245 78,243 77,242 77,239 75,239 73,237 73,236 75,235 75,234 79,233 85,233 88,231 88,231 89,228 88,226 91,227 94,226 96,226 98,227 99,228 100,226 102,226 104,225 101,225 99,225 98,224 100,220 99,218 100,213 98,209 96,205 99,203 98,200 98,199 101,198 99,195 104,193 102,191 103,189 102,187 97,185 96,183 93,184 91,184 89,183 91,180 84,180 80,179 76,180 75,182 73,183 66,181 65,179 66,175 64,174 61,174 60,174 59,173 61,171 58,169 51,172 49,172 47,170 43,170 42,168 41,167 36,168 32,167 30,165 30,163 32,161 33,160 32,157 32,155 30,152 31,150 26,149 25,148 28,144 25,142 23,141 22,138 21,137 21,136 20,134 13,131 13,128 9,127 8,123 9,122 8,121 8,122 6,122 4,121 4,117 0,113 2,110 3,110 2,111 5,113 7,112 10,113 15,113 22,111 31,109 35,111 44,114 43,115 42,116 45,118 47,123 49,123 50,122 55,122 57,121 59,121 59,120 61,119 60,117 63,117 68,117 68,116 69,116 69,115 71,116 71,115 71,116 72,116 73,115 75,114 77,114 79,114 78,112 81,113 84,112 83,110 85,109 87,110 90,109 92,108 92,106 93,106 93,105 95,105 101,102 103,102 105,103 106,102 108,103 112,100 113,100 115,102 117,102 117,103 119,101 119,98 118,92 118,91 115,88 114,87 116,86 126,81 130,80 128,76 125,74 123,73 123,71 118,69 115,69 115,69 113,64 112,62 114,61 114,60 116,61 115,59 113,58 113,56 113,55 115,56 118,54 114,49 114,49 113,46 111,46 107,48 107,49 105,50 101,49 101,46 103,46 107,43 111,43 112,42 114,40 118,39 119,36 118,33 118,32 122,27 118,24 116,22 113,20 113,19 117,16 116,16 117,14 116,13 118,11 119,9 127,11 128,9 128,8 128,7 132,10 133,10 134,9 135,8 137,7 139,8 139,9 142,10 143,11 144,11 146,9 148,11 150,11 151,11 148,8 149,9 151,8 151,8 154,6 154,4 153,3 154,3 153,2 152,1 153,1 154,2 156,2 157,0 159,0 161,0 161,2 160,3 164,2 165,4 168,2 169,3 167,3 167,4 169,4 168,6 169,6 171,7 171,8 172,8 171,9 172,10 171,10 173,11 177,13 184,12 184,13 186,14 188,14 193,14 195,14 197,15 197,16 196,23 197,23 198,25 200,25 202,24 201,23 203,21 205,20 211,20 213,20 213,21 214,21 215,21 212,23 213,24 212,24 213,25 212,26 213,27 211,27 211,28 213,28 213,29 215,30 217,29 219,32 220,31 222,32 222,31 222,32 223,31 227,31 227,32 229,33 230,34 232,34 233,34 235,33 236,34 238,35 238,37 239,38 241,39 244,38 246,39 253,37 254,38 253,42 251,42 250,44 251,44 252,44 253,45 256,44 257,45 256,47 258,50 263,51 262,54 264,55 266,56 269,56 270,57 269,58 272,58 273,59 275,58 276,58 279,58 279,59 282,60 287,61 287,62 284,63 283,66 283,66 285,66 285,67 286,68 287,68 288,69 296,68 297,67 296,66 298,66 297,64 299,63 300,64 302,63 303,64 304,63 307,65 311,64 314,64 317,62 316,61 321,60 322,61 324,60 324,60 330,58 332,58 334,57 336,57 339,56 340,55 342,56 345,55 344,54 345,51 351,51 361,52 362,52 365,52 364,53 367,52 370,54 371,53 375,54 375,53 372,53 375,50 376,50 376,49 378,51 379,49 382,47 387,47 390,49 392,50 392,51 393,51 394,53 396,53 397,54 398,53 399,54 401,53 400,57 402,56 403,55 403,53 406,53 406,52 412,53 415,51 419,52 420,51 419,50 419,50 422,50 423,49 426,50 427,50 428,49 427,48 428,47 429,46 431,48 434,45 439,46 438,47 443,47 443,48 443,50 445,52 446,54 445,57 443,56 442,57 445,59 445,62 447,62 451,58 453,58 453,59 454,59 457,59 457,60 458,62 457,63 456,63 458,64 458,66 460,68 463,70 463,73 465,73 466,72 469,71 472,74 474,74 474,73 476,72 476,72 478,72 480,71 483,72 482,74 484,75 483,76 484,77 483,78 484,78 483,78 486,79 486,80 489,80 491,80 491,81 491,81 491,81 492,81 493,82 493,82 494,81 494,81 494,82 494,82 496,81 495,81 495,81 495,81 493,81 493,81 493,81 492,81 492,80 491,80 493,80 495,80 495,80 495,81 495,80 498,82 498,81 499,82 498,83 498,83 498,84 498,84 498,84 500,85 499,86 499,86 499,86 499,86 498,88 499,89 499,89 499,89 498,88 497,88 497,88 497,89 496,89 495,90 495,89 495,89 494,89 493,89 492,89 492,89 491,89 490,89 487,89 487,89 486,89 486,89 485,87 483,88 483,88 480,88 479,89 477,89 476,89 475,90 474,89 473,90 472,91 470,92 469,93 467,92 468,91 466,89 466,90 467,91 465,90 466,91 465,91 465,91 462,92 463,93 464,95 464,98 465,98 466,99 468,99 468,98 470,98 471,100 472,100 473,101 474,101 474,100 474,100 475,101 474,103 475,103 478,103 480,104 479,106 475,109 475,110 473,109 472,115 472,115 479,115 479,116 481,116 481,116 480,117 481,117 481,119 481,121 484,122 485,124 481,128 483,129 488,131 487,132 490,133 489,134 490,134 486,136 493,140 493,142 491,143 486,147 482,147 481,148 483,148 483,148 485,149 485,150 486,151 484,153 484,156 480,156 478,156 476,156 472,157 473,160 473,161 470,161 472,164 471,171 471,171 471,172 474,173 478,174 480,175 481,176 483,176 484,178 486,177 488,177 487,181 488,181 488,183 488,183 486,185 482,187 478,186 476,188 475,189 473,189 471,187 468,188 462,188 461,190 461,190 458,191 458,192 457,193 452,191 451,193 448,192 446,191 443,191 443,190 441,189 439,188 438,189 435,186 432,186 432,185 431,184 432,182 430,181 431,180 429,179 428,177 429,176 428,176 422,175 420,173 419,173 419,177 416,176 414,176 411,175 410,175 411,177 410,177 409,177 409,178 405,179 405,180 403,180 400,178 399,179 398,179 397,180 393,182 389,182 385,180 382,180 381,179 378,178 376,176 377,175 375,175 368,174 364,174 366,175 366,176 363,176 361,177 361,178 359,176 358,175 361,174 358,174 358,172 357,173 358,175 356,174 356,174 354,177 354,178 351,180 350,183 351,183 351,188 345,193 345,193 344,195 344,198 344,200 343,204 343,204 340,209 337,212 335,214 333,218 334,220 334,225 333,225 331,229 328,232 327,239 324,241 323,243 323,244 322,249 320,251 319,252 318,254 318,257 318,259 314,262 314,266 313,265 309,266" id="71" class="departement" fill="steelblue" stroke-width="1" stroke="white" geotype="departement" geoname="Saône-et-Loire" code_insee="71" code_region_2015="27" nom_region_2015="Bourgogne-Franche-Comté"/></svg>