<?xml version="1.0" encoding="utf-8"?>
<svg version="1.1" id="svgmap" xmlns="http://www.w3.org/2000/svg" xmlns:xlink="http://www.w3.org/1999/xlink" x="0px" y="0px" width="100%" height="100%" viewBox="0 0 500 239">
<polygon points="472,197 468,195 468,194 466,195 464,194 462,196 460,196 459,195 458,195 456,194 454,194 454,193 453,193 453,192 451,191 449,193 447,193 446,192 446,192 443,191 444,190 442,189 442,188 440,187 437,185 438,184 429,184 429,185 426,186 426,187 424,184 421,184 420,185 416,184 415,183 409,181 401,181 397,180 390,180 388,180 386,180 385,180 387,181 385,180 385,182 382,182 381,182 382,180 384,178 383,178 382,179 378,181 370,183 370,184 372,185 371,186 369,185 368,187 369,188 365,187 360,188 362,193 362,194 362,192 360,197 357,198 356,197 355,199 353,199 354,200 355,203 354,204 354,207 353,207 352,209 350,208 350,209 350,212 342,211 331,210 331,210 329,210 329,209 328,211 330,214 329,214 325,214 324,214 324,213 325,213 324,212 321,213 320,215 318,213 315,215 313,215 313,216 311,217 310,218 310,222 308,222 298,222 292,223 284,226 286,227 285,227 287,228 289,230 291,232 287,232 286,233 286,234 289,236 289,236 288,237 286,236 285,237 285,236 282,237 282,237 280,236 277,238 275,237 276,238 275,238 272,238 275,239 271,239 269,239 268,237 273,236 273,235 270,236 268,235 266,236 267,234 267,234 265,234 265,233 263,233 263,231 258,233 258,232 256,231 257,231 258,230 258,229 259,229 259,230 261,229 262,229 260,228 258,228 259,228 260,227 257,227 256,226 256,224 254,221 253,218 249,221 244,223 245,225 242,226 239,224 241,224 240,223 240,222 242,220 241,220 241,220 239,221 237,219 238,219 236,219 233,218 231,218 231,217 230,218 229,217 227,218 226,218 225,216 227,216 228,216 227,215 230,213 229,212 230,211 231,212 231,212 233,213 236,212 237,211 248,214 251,212 251,212 248,211 248,209 249,208 247,205 247,203 247,200 243,202 240,202 239,203 240,204 237,203 236,204 237,201 236,200 237,200 234,199 235,197 231,198 230,197 227,198 222,198 218,197 215,194 214,188 213,188 214,193 213,192 212,191 209,192 208,193 207,193 206,191 203,190 200,192 197,192 196,192 196,193 195,193 188,193 188,193 186,193 187,194 185,195 181,194 175,195 173,196 171,194 169,193 172,191 171,190 170,190 168,192 166,191 168,190 167,189 168,188 167,188 163,190 163,189 165,185 167,184 169,185 169,184 167,183 159,187 159,187 154,188 149,186 143,182 139,178 137,177 137,176 132,173 128,172 124,172 120,173 118,174 107,178 104,180 93,182 85,183 68,183 69,181 59,180 55,180 50,180 37,179 32,178 33,179 32,181 27,180 25,181 23,180 14,179 11,177 13,175 7,172 7,169 5,166 1,165 0,162 3,155 13,141 18,135 22,129 25,125 25,124 24,123 25,123 24,122 23,124 25,122 25,120 20,118 16,118 15,120 15,119 16,118 20,118 26,120 27,118 28,113 33,110 34,109 37,107 39,106 40,105 46,104 50,103 57,101 59,100 66,98 67,97 74,97 79,95 84,93 88,89 93,88 105,84 121,78 127,74 129,74 133,72 136,70 144,67 149,65 155,65 157,64 163,62 163,62 164,62 164,62 164,62 163,62 168,61 171,61 175,61 186,59 187,60 187,59 190,60 198,59 202,59 213,57 221,54 224,54 241,51 251,49 259,45 263,45 278,46 282,45 292,43 295,41 295,40 297,40 298,41 304,39 314,36 320,34 327,31 330,30 330,30 330,28 330,28 330,28 331,29 332,28 331,29 331,28 330,28 331,28 339,25 346,21 349,19 369,8 370,7 377,5 378,4 377,3 381,3 384,4 384,4 386,3 386,5 389,5 393,2 391,1 394,0 395,2 396,1 396,2 401,2 402,3 404,4 403,6 403,9 401,8 401,9 403,11 408,12 412,15 414,17 415,16 420,18 421,21 422,21 423,22 424,23 434,28 437,30 438,33 441,34 442,36 447,39 448,39 449,40 449,39 451,41 454,41 458,43 462,44 463,45 466,45 468,46 467,47 469,48 469,50 471,50 471,51 473,53 475,53 477,55 477,56 478,58 477,59 478,61 479,61 479,62 480,65 479,66 481,67 481,68 481,71 483,76 487,79 487,80 489,82 491,85 491,86 495,87 497,89 499,91 498,92 492,93 488,91 486,94 485,95 486,95 487,98 486,98 484,99 484,98 484,99 480,100 477,99 478,105 477,108 475,107 470,111 475,114 478,114 481,111 483,109 486,108 487,110 488,110 488,111 489,114 483,117 480,117 480,120 479,122 477,122 476,125 473,125 475,126 479,129 479,129 480,131 479,134 477,134 475,137 472,138 476,139 475,141 476,142 480,141 480,141 480,143 476,144 473,143 471,144 474,144 472,145 473,146 475,144 478,144 480,147 482,149 481,150 483,151 480,154 483,155 485,154 487,156 487,156 487,156 486,157 487,158 485,160 485,159 484,160 486,161 485,161 479,164 478,165 479,166 481,166 481,167 485,167 487,170 489,168 488,166 490,165 491,164 493,164 493,163 494,163 499,165 500,166 498,167 500,168 499,170 497,170 495,171 496,172 495,173 496,174 493,177 487,179 489,180 485,182 485,182 483,184 481,184 482,185 480,186 480,189 481,190 478,191 478,193 476,194 475,193 472,196 473,196 472,197" id="76" class="departement" fill="steelblue" stroke-width="1" stroke="white" geotype="departement" geoname="Seine-Maritime" code_insee="76" code_region_2015="28" nom_region_2015="Normandie"/></svg>