<?xml version="1.0" encoding="utf-8"?>
<svg version="1.1" id="svgmap" xmlns="http://www.w3.org/2000/svg" xmlns:xlink="http://www.w3.org/1999/xlink" x="0px" y="0px" width="100%" height="100%" viewBox="0 0 431 500">
<polygon points="393,407 384,416 368,441 371,449 395,456 380,469 386,474 378,480 390,482 381,498 357,500 354,474 303,493 291,475 315,459 294,439 279,436 278,426 228,429 209,417 197,417 188,398 182,395 176,385 183,382 175,373 148,368 137,375 149,361 128,344 84,347 93,339 82,339 78,330 84,329 69,316 70,309 53,305 47,313 35,312 11,298 13,293 6,276 0,258 0,247 14,231 32,233 10,212 18,195 26,184 6,186 10,181 28,159 39,154 40,141 53,125 65,117 123,96 169,69 193,52 230,32 276,11 327,0 374,7 412,14 428,23 431,40 412,64 397,73 393,79 379,84 395,105 393,114 357,128 313,148 297,165 256,160 246,174 225,169 214,179 195,184 180,207 177,220 241,238 239,253 247,262 264,264 280,266 276,278 287,278 301,268 324,277 351,284 380,291 420,302 414,310 406,319 391,318 389,327 402,329 408,322 402,337 390,368 405,372 406,382 408,389 393,407" id="92" class="departement" fill="steelblue" stroke-width="1" stroke="white" geotype="departement" geoname="Hauts-de-Seine" code_insee="92" code_region_2015="11" nom_region_2015="Île-de-France"/></svg>