<svg width="500" height="328"><polygon points="103,37 105,37 106,36 106,37 102,38 103,37" id="54" class="departement" geotype="departement" geoname="Meurthe-et-Moselle" code_insee="54" code_region="41" style="fill:steelblue;stroke:white;stroke-width:1"/><polygon points="101,21 103,22 106,24 104,23 103,25 100,24 98,24 99,23 99,22 101,21" id="54" class="departement" geotype="departement" geoname="Meurthe-et-Moselle" code_insee="54" code_region="41" style="fill:steelblue;stroke:white;stroke-width:1"/><polygon points="162,205 159,204 160,202 159,201 159,200 159,199 160,197 161,197 161,196 159,195 158,195 156,194 153,193 150,192 150,190 150,189 151,186 155,185 157,184 159,183 159,183 164,184 165,182 166,180 164,180 159,181 159,181 158,181 159,179 158,178 157,177 156,176 156,175 155,175 156,174 156,173 156,172 158,168 159,166 157,165 158,164 154,164 156,164 154,162 153,162 151,161 152,160 150,159 151,158 152,157 153,158 154,157 155,157 155,157 156,156 154,156 154,154 160,150 161,150 162,149 159,150 158,148 160,148 161,146 161,145 162,144 162,143 162,142 161,140 162,138 161,138 160,138 159,135 162,135 163,134 164,133 160,131 158,128 158,128 157,128 156,127 158,126 159,126 162,126 163,125 161,125 162,124 163,124 164,123 166,122 169,123 172,122 172,121 174,121 175,119 172,118 172,117 170,116 169,116 169,116 167,115 166,114 168,113 169,112 170,111 169,111 171,111 169,111 168,111 168,111 169,110 170,110 169,108 171,107 171,106 175,105 175,105 176,104 174,104 174,103 173,103 172,102 172,101 172,100 170,101 170,100 167,101 167,100 167,98 169,96 169,96 171,96 169,95 169,94 169,93 170,92 169,92 167,92 162,92 162,92 161,93 159,92 158,91 157,91 157,91 156,89 158,89 157,88 158,88 161,87 158,86 158,85 158,84 157,84 156,84 156,82 158,81 158,80 159,76 159,76 158,76 157,76 156,76 153,77 152,77 152,76 152,75 151,73 153,71 155,71 155,70 152,67 151,67 153,65 152,64 152,63 152,63 156,62 156,62 157,61 158,62 159,61 159,60 159,60 160,59 159,59 160,58 160,58 160,57 159,55 159,55 158,55 157,56 153,56 152,54 153,54 152,54 151,52 154,51 154,50 155,49 155,48 153,46 152,46 151,46 150,46 149,46 150,45 149,44 149,42 148,42 145,41 147,40 146,39 146,36 144,37 143,36 141,35 138,34 138,33 136,33 136,33 135,33 134,33 134,34 132,34 132,36 132,35 132,35 130,36 131,36 129,35 126,36 126,36 126,35 124,35 124,36 121,36 119,37 117,37 117,38 116,38 112,38 111,38 110,39 111,39 110,41 108,42 108,43 106,41 107,41 107,40 107,40 107,40 105,40 102,39 103,38 103,39 106,37 107,39 111,38 112,36 113,36 112,35 111,35 110,36 109,35 108,35 106,34 108,34 107,33 109,31 109,31 106,31 104,30 105,29 106,28 105,28 106,28 105,27 106,25 105,25 106,24 108,22 106,22 107,21 108,20 111,20 117,19 119,18 120,17 121,16 123,17 124,16 127,17 128,17 130,18 130,19 131,20 131,20 133,19 133,18 132,16 133,15 135,14 135,14 137,13 137,12 139,12 140,12 142,12 144,12 144,13 146,13 148,14 151,14 152,13 154,13 153,13 154,14 158,14 158,10 160,10 163,11 164,12 166,12 167,12 168,13 169,12 169,13 168,13 167,14 168,14 169,15 172,14 174,16 172,16 172,18 174,19 175,20 176,20 178,21 183,22 182,22 184,24 183,25 185,24 186,25 187,24 189,24 189,25 191,25 191,26 190,26 191,27 191,29 192,30 191,30 189,31 192,34 189,35 187,36 187,37 186,38 187,39 189,39 189,39 190,43 188,44 190,45 191,47 194,46 195,47 195,49 198,49 195,49 192,50 192,51 191,51 193,51 193,52 192,53 193,53 196,54 197,54 199,57 202,55 203,56 203,56 203,58 203,60 202,62 204,63 203,63 204,64 203,65 204,65 204,65 206,65 208,67 207,68 207,70 208,70 207,71 206,70 206,71 206,71 204,72 202,74 203,74 201,75 200,74 199,74 200,75 200,75 198,75 199,77 198,77 198,77 199,77 198,78 199,79 203,79 203,80 204,80 205,81 208,82 208,82 207,82 206,82 205,83 205,84 204,84 203,84 202,84 200,84 202,85 199,86 199,86 200,87 201,88 202,88 201,89 200,89 202,91 203,91 202,93 197,92 193,92 190,92 189,94 188,95 190,96 191,96 192,98 190,98 190,99 190,100 193,100 193,101 194,103 196,104 197,105 198,105 198,104 199,104 200,104 201,105 203,106 204,105 205,106 205,108 208,109 210,109 210,111 210,112 211,113 210,114 210,115 209,115 207,114 208,115 209,115 210,116 213,116 214,116 216,116 215,117 216,119 217,119 220,118 223,118 223,118 223,118 223,119 224,119 224,120 225,120 224,121 226,121 226,122 225,123 225,123 226,124 229,124 229,124 229,123 230,123 231,122 232,123 233,122 233,123 234,124 240,123 240,123 241,123 241,123 241,123 243,123 243,124 243,124 243,124 243,125 243,125 243,125 243,125 244,125 244,125 244,125 245,125 245,126 247,126 250,124 251,124 252,125 253,125 254,125 254,127 259,127 259,127 258,128 260,129 261,129 262,129 261,131 258,132 258,132 258,132 258,133 256,134 258,134 258,135 259,137 258,137 256,136 256,138 256,138 257,139 254,139 254,140 255,141 257,141 258,142 260,142 262,142 264,142 264,144 263,144 261,144 260,143 259,144 257,144 257,144 258,145 260,144 261,145 262,144 263,145 263,146 264,146 266,146 267,147 267,146 267,147 265,147 266,149 267,150 267,152 268,152 270,151 272,152 273,152 274,153 277,152 279,151 280,151 281,150 283,152 284,152 285,152 284,153 284,155 286,154 287,154 287,155 290,154 291,155 295,157 295,157 294,157 294,158 294,158 295,158 296,157 299,158 300,157 300,157 302,157 302,157 304,156 305,158 306,159 308,161 309,161 309,161 310,161 311,164 313,164 314,164 315,164 316,164 318,167 319,166 320,166 322,165 322,166 325,169 324,169 324,171 323,172 324,173 324,172 325,172 327,169 328,170 328,171 328,172 329,172 330,171 331,172 332,172 332,173 333,172 334,173 335,173 337,172 338,173 339,172 340,172 340,173 340,173 341,175 341,175 343,175 343,175 344,175 343,176 344,177 349,176 354,177 355,178 355,178 355,179 356,180 357,181 360,181 362,180 365,180 367,181 369,180 369,179 371,178 372,179 372,180 374,181 373,182 377,183 381,183 382,183 383,183 385,183 386,183 387,183 387,184 383,185 383,186 383,186 386,187 388,189 390,188 391,190 392,190 392,192 393,193 394,194 397,195 399,195 399,196 394,196 398,196 396,199 398,200 399,201 399,200 401,200 403,200 404,201 405,200 405,201 406,200 406,201 405,201 401,201 399,202 398,202 396,203 394,203 393,204 389,205 385,206 382,206 381,207 378,208 377,209 376,209 377,209 375,210 375,211 371,214 370,214 370,214 369,215 366,216 364,218 362,218 362,218 360,218 360,217 359,215 358,215 356,217 353,218 352,220 350,221 350,222 349,222 349,221 346,221 344,223 344,222 346,221 344,221 341,221 340,220 341,219 337,219 336,218 336,218 333,218 332,217 329,219 326,218 326,217 326,217 326,217 324,216 322,217 322,216 319,216 319,216 320,215 319,213 318,212 318,210 318,208 315,208 312,209 311,209 310,210 308,210 307,213 305,214 305,215 305,215 306,215 308,218 307,218 307,219 305,217 301,216 299,215 297,216 296,217 293,219 291,218 288,220 286,219 285,218 284,219 281,219 279,220 277,223 276,223 275,222 273,223 272,222 273,221 272,222 273,220 273,220 271,220 272,219 271,219 271,220 271,219 272,218 268,220 268,220 268,220 266,220 263,220 258,219 257,217 257,216 257,215 256,215 255,216 253,216 253,217 252,217 251,216 249,220 247,220 244,222 244,221 243,221 242,221 242,221 240,222 239,221 238,222 237,222 236,222 235,222 236,220 235,219 235,219 234,220 234,220 229,220 229,220 229,220 229,221 230,222 229,222 230,224 229,224 230,225 226,228 225,227 223,230 220,229 220,228 219,228 219,228 220,228 220,227 220,226 219,226 218,225 219,224 218,224 216,225 215,226 216,226 216,226 217,228 215,229 213,229 212,227 211,227 210,228 209,229 209,228 207,229 206,229 206,228 205,229 203,228 203,229 202,228 201,229 200,229 199,231 197,230 196,230 195,230 194,229 194,228 195,228 194,227 193,227 193,226 194,226 192,226 194,224 193,222 191,221 190,221 190,221 190,222 189,222 188,221 187,220 185,221 186,220 186,219 186,219 185,218 187,216 188,216 187,217 188,217 190,215 185,214 184,215 186,216 185,218 184,219 184,220 183,220 180,220 179,221 179,220 176,220 176,218 181,215 181,214 184,212 181,211 181,210 183,210 181,209 185,206 184,206 185,204 182,204 178,203 178,202 176,202 174,202 174,202 173,202 172,203 170,204 168,203 167,204 164,205 163,206 162,205" id="54" class="departement" geotype="departement" geoname="Meurthe-et-Moselle" code_insee="54" code_region="41" style="fill:steelblue;stroke:white;stroke-width:1"/><polygon points="105,217 104,217 102,217 101,216 100,215 99,215 95,213 94,211 94,209 93,208 93,208 91,208 89,208 87,207 87,207 85,207 84,206 82,204 82,204 80,203 80,201 78,202 76,200 74,201 73,201 72,200 70,200 68,199 64,198 62,197 61,198 59,198 59,197 58,196 58,196 56,196 56,195 54,194 54,193 52,193 50,191 49,192 48,192 47,192 46,192 45,190 44,189 43,189 43,188 42,188 42,186 42,186 38,186 36,186 35,185 33,186 32,183 31,182 31,179 30,179 26,182 23,183 21,183 20,182 19,181 21,179 19,176 19,174 20,173 22,172 22,172 22,170 18,170 19,169 18,168 19,168 21,167 20,165 21,165 23,165 23,165 22,163 21,163 22,161 21,160 22,159 18,159 17,158 17,158 15,156 14,156 12,154 11,154 10,152 8,152 9,151 9,150 8,150 9,150 7,150 7,150 6,150 6,150 5,150 4,149 1,149 1,149 0,148 1,148 0,147 2,147 0,146 0,145 3,143 5,142 8,141 9,140 7,139 8,138 6,138 7,137 4,136 5,135 6,134 6,133 7,132 6,131 4,131 5,130 5,129 8,128 8,127 9,127 9,126 12,125 13,126 13,125 17,125 20,123 23,124 23,123 23,122 24,122 24,121 26,120 26,119 27,117 26,116 24,116 23,115 22,116 21,115 20,115 19,115 21,114 20,114 21,113 24,113 27,113 27,112 26,113 26,112 26,111 27,110 27,109 28,109 27,108 27,108 27,108 22,106 14,108 14,108 21,102 20,102 21,101 21,100 20,98 20,95 20,93 18,90 16,89 16,88 14,84 12,80 9,78 10,78 13,76 16,76 18,75 19,74 16,72 15,69 11,69 13,68 14,67 20,65 20,64 22,63 25,62 26,63 30,62 29,60 31,59 31,59 27,58 28,58 27,56 25,56 27,55 26,53 26,53 25,52 25,51 27,50 30,47 30,46 31,45 33,45 35,45 36,45 37,44 39,43 38,42 39,41 39,41 40,41 39,41 36,40 37,39 36,39 34,39 37,38 38,37 40,37 41,35 40,35 40,34 39,31 40,31 40,29 41,29 40,28 39,29 39,28 38,29 35,27 36,25 35,24 34,24 33,22 31,21 31,20 32,20 35,20 36,18 37,17 39,15 38,14 37,15 36,14 37,14 36,13 37,12 38,11 40,11 41,10 40,10 41,9 39,7 41,4 41,5 42,4 47,5 48,6 48,7 48,7 49,8 50,9 49,9 50,10 53,9 55,9 56,9 58,8 63,9 63,10 66,11 68,14 69,13 71,13 70,14 72,12 77,10 76,10 78,9 78,8 80,7 82,4 83,4 83,5 84,5 86,5 88,5 89,4 90,2 91,1 91,0 92,0 93,1 95,2 96,3 98,3 99,4 98,5 100,9 103,9 102,11 101,12 101,12 105,14 105,15 105,17 104,17 103,18 102,18 103,19 105,20 105,21 106,22 108,22 106,24 105,25 106,25 105,27 106,28 105,28 106,28 105,29 104,30 106,31 109,31 109,31 107,33 108,34 106,34 108,35 109,35 110,36 111,35 112,35 113,36 112,36 111,38 107,39 106,37 103,39 103,38 102,39 105,40 107,40 107,40 107,40 107,41 106,41 108,43 108,42 110,41 111,39 110,39 111,38 112,38 116,38 117,38 117,37 119,37 121,36 124,36 124,35 126,35 126,36 126,36 129,35 131,36 130,36 132,35 132,35 132,36 132,34 134,34 134,33 135,33 136,33 136,33 138,33 138,34 141,35 143,36 144,37 146,36 146,39 147,40 145,41 148,42 149,42 149,44 150,45 149,46 150,46 151,46 152,46 153,46 155,48 155,49 154,50 154,51 151,52 152,54 153,54 152,54 153,56 157,56 158,55 159,55 159,55 160,57 160,58 160,58 159,59 160,59 159,60 159,60 159,61 158,62 157,61 156,62 156,62 152,63 152,63 152,64 153,65 151,67 152,67 155,70 155,71 153,71 151,73 152,75 152,76 152,77 153,77 156,76 157,76 158,76 159,76 159,76 158,80 158,81 156,82 156,84 157,84 158,84 158,85 158,86 161,87 158,88 157,88 158,89 156,89 157,91 157,91 158,91 159,92 161,93 162,92 162,92 167,92 169,92 170,92 169,93 169,94 169,95 171,96 169,96 169,96 167,98 167,100 167,101 170,100 170,101 172,100 172,101 172,102 173,103 174,103 174,104 176,104 175,105 175,105 171,106 171,107 169,108 170,110 169,110 168,111 168,111 169,111 171,111 169,111 170,111 169,112 168,113 166,114 167,115 169,116 169,116 170,116 172,117 172,118 175,119 174,121 172,121 172,122 169,123 166,122 164,123 163,124 162,124 161,125 163,125 162,126 159,126 158,126 156,127 157,128 158,128 158,128 160,131 164,133 163,134 162,135 159,135 160,138 161,138 162,138 161,140 162,142 162,143 162,144 161,145 161,146 160,148 158,148 159,150 162,149 161,150 160,150 154,154 154,156 156,156 155,157 155,157 154,157 153,158 152,157 151,158 150,159 152,160 151,161 153,162 154,162 156,164 154,164 158,164 157,165 159,166 158,168 156,172 156,173 156,174 155,175 156,175 156,176 157,177 158,178 159,179 158,181 159,181 159,181 164,180 166,180 165,182 164,184 159,183 159,183 157,184 155,185 151,186 150,189 150,190 150,192 153,193 156,194 158,195 159,195 161,196 161,197 160,197 159,199 159,200 159,201 160,202 159,204 158,205 157,207 156,207 155,208 155,209 152,210 151,210 147,210 146,209 144,209 144,208 144,208 140,208 139,209 138,208 137,208 136,209 139,211 138,211 136,211 134,212 133,214 133,217 132,215 132,214 131,213 127,214 126,214 125,215 123,215 123,214 122,214 122,214 120,214 119,215 117,215 114,216 113,218 114,219 112,220 110,218 110,218 108,218 106,217 105,217" id="55" class="departement" geotype="departement" geoname="Meuse" code_insee="55" code_region="41" style="fill:steelblue;stroke:white;stroke-width:1"/><polygon points="430,172 431,172 431,172 432,173 433,174 434,174 435,174 439,174 437,175 437,176 436,177 435,177 435,178 434,179 433,179 431,179 435,180 434,181 433,181 433,183 433,183 432,184 432,184 430,185 431,185 432,186 432,186 432,187 430,187 428,190 424,193 423,194 420,193 419,194 418,196 414,198 414,198 411,197 411,198 408,198 406,197 405,196 400,198 398,196 394,196 399,196 399,195 397,195 394,194 393,193 392,192 392,190 391,190 390,188 388,189 386,187 383,186 383,186 383,185 387,184 387,183 386,183 385,183 383,183 382,183 381,183 377,183 373,182 374,181 372,180 372,179 371,178 369,179 369,180 367,181 365,180 362,180 360,181 357,181 356,180 355,179 355,178 355,178 354,177 349,176 344,177 343,176 344,175 343,175 343,175 341,175 341,175 340,173 340,173 340,172 339,172 338,173 337,172 335,173 334,173 333,172 332,173 332,172 331,172 330,171 329,172 328,172 328,171 328,170 327,169 325,172 324,172 324,173 323,172 324,171 324,169 325,169 322,166 322,165 320,166 319,166 318,167 316,164 315,164 314,164 313,164 311,164 310,161 309,161 309,161 308,161 306,159 305,158 304,156 302,157 302,157 300,157 300,157 299,158 296,157 295,158 294,158 294,158 294,157 295,157 295,157 291,155 290,154 287,155 287,154 286,154 284,155 284,153 285,152 284,152 283,152 281,150 280,151 279,151 277,152 274,153 273,152 272,152 270,151 268,152 267,152 267,150 266,149 265,147 267,147 267,146 267,147 266,146 264,146 263,146 263,145 262,144 261,145 260,144 258,145 257,144 257,144 259,144 260,143 261,144 263,144 264,144 264,142 262,142 260,142 258,142 257,141 255,141 254,140 254,139 257,139 256,138 256,138 256,136 258,137 259,137 258,135 258,134 256,134 258,133 258,132 258,132 258,132 261,131 262,129 261,129 260,129 258,128 259,127 259,127 254,127 254,125 253,125 252,125 251,124 250,124 247,126 245,126 245,125 244,125 244,125 244,125 243,125 243,125 243,125 243,125 243,124 243,124 243,124 243,123 241,123 241,123 241,123 240,123 240,123 234,124 233,123 233,122 232,123 231,122 230,123 229,123 229,124 229,124 226,124 225,123 225,123 226,122 226,121 224,121 225,120 224,120 224,119 223,119 223,118 223,118 223,118 220,118 217,119 216,119 215,117 216,116 214,116 213,116 210,116 209,115 208,115 207,114 209,115 210,115 210,114 211,113 210,112 210,111 210,109 208,109 205,108 205,106 204,105 203,106 201,105 200,104 199,104 198,104 198,105 197,105 196,104 194,103 193,101 193,100 190,100 190,99 190,98 192,98 191,96 190,96 188,95 189,94 190,92 193,92 197,92 202,93 203,91 202,91 200,89 201,89 202,88 201,88 200,87 199,86 199,86 202,85 200,84 202,84 203,84 204,84 205,84 205,83 206,82 207,82 208,82 208,82 205,81 204,80 203,80 203,79 199,79 198,78 199,77 198,77 198,77 199,77 198,75 200,75 200,75 199,74 200,74 201,75 203,74 202,74 204,72 206,71 206,71 206,70 207,71 208,70 207,70 207,68 208,67 206,65 204,65 204,65 203,65 204,64 203,63 204,63 202,62 203,60 203,58 203,56 203,56 202,55 199,57 197,54 196,54 193,53 192,53 193,52 193,51 191,51 192,51 192,50 195,49 198,49 195,49 195,47 194,46 191,47 190,45 188,44 190,43 189,39 189,39 187,39 186,38 187,37 187,36 189,35 192,34 189,31 191,30 192,30 191,29 191,27 190,26 191,26 191,25 189,25 189,24 187,24 186,25 185,24 183,25 184,24 182,22 183,22 185,22 185,21 189,22 189,21 191,21 192,21 192,22 192,22 192,22 194,22 197,23 196,24 198,25 197,25 197,26 197,28 198,28 199,28 200,28 199,29 199,29 198,29 199,30 202,29 203,30 207,29 207,31 210,31 212,28 213,27 216,28 217,29 218,29 220,30 220,27 221,26 222,26 223,27 225,26 225,22 226,23 228,23 228,24 228,23 230,23 231,23 232,22 230,21 231,21 232,20 234,19 235,20 238,20 241,20 241,20 243,19 245,20 246,19 247,20 249,19 250,21 253,21 253,22 255,22 255,23 254,23 255,24 256,23 256,25 258,25 259,25 259,25 260,25 263,27 264,27 265,27 266,27 268,29 269,29 269,27 270,28 271,27 274,28 275,27 278,26 280,25 282,27 283,27 285,28 287,27 290,30 293,30 298,33 299,33 301,34 303,36 303,36 302,36 300,37 300,39 302,39 302,40 304,41 305,42 307,41 308,42 309,42 308,45 310,45 312,45 311,47 310,47 309,49 308,47 306,47 305,47 305,49 307,50 307,51 309,51 309,51 310,51 309,51 310,52 309,54 312,55 314,57 316,57 317,58 318,58 319,59 320,60 321,61 322,61 324,61 323,62 323,63 322,65 322,65 323,66 325,65 326,66 328,67 327,68 328,70 327,72 329,73 333,72 335,75 331,78 333,80 335,81 336,82 338,82 341,82 343,82 345,82 354,85 355,84 356,84 356,83 356,81 358,80 359,80 358,78 357,77 357,76 354,74 354,73 358,72 360,72 361,73 363,74 364,74 365,74 366,73 368,73 369,72 370,72 373,72 374,73 375,75 377,75 379,74 383,76 384,77 385,77 386,78 387,77 388,77 388,78 390,77 389,81 390,82 390,84 392,87 392,89 392,91 393,91 394,92 396,91 397,90 400,89 400,88 399,86 399,86 398,85 399,84 400,85 402,84 404,84 403,86 403,87 407,86 408,88 409,89 411,89 413,90 414,89 416,89 417,88 420,90 420,91 421,90 422,90 428,89 429,89 432,90 433,90 435,90 435,90 435,91 437,91 439,90 441,87 444,86 450,86 450,86 450,85 450,84 451,83 450,82 450,81 453,80 465,79 464,79 463,79 463,80 464,80 464,81 464,81 463,82 462,82 463,82 464,82 465,81 466,82 467,82 467,83 470,82 474,81 474,84 476,84 476,85 474,86 474,86 473,86 473,87 474,88 476,90 478,90 479,93 480,94 480,94 482,95 481,95 485,97 487,98 493,97 497,99 498,99 499,102 500,103 497,106 494,108 495,110 491,114 491,114 491,114 492,115 489,118 490,118 489,119 489,120 487,120 484,123 485,123 484,124 485,124 481,124 479,122 478,123 477,122 475,122 472,121 471,119 467,119 466,118 462,119 458,119 455,121 453,121 451,121 449,120 448,120 448,121 446,122 445,122 443,122 440,121 440,120 437,120 437,119 437,118 437,117 434,117 432,116 430,116 429,115 427,114 422,116 419,113 418,113 417,112 416,111 413,112 413,111 407,111 407,110 406,109 406,108 406,107 405,107 404,106 406,105 403,104 403,102 402,102 402,101 404,100 406,100 404,99 403,99 402,98 400,99 399,100 398,99 396,100 397,102 398,103 394,107 392,109 394,110 393,111 393,111 392,111 392,112 392,112 392,112 392,113 391,112 391,113 391,114 390,113 390,113 390,113 390,114 390,114 390,114 390,114 389,114 390,115 390,115 390,116 391,116 390,116 390,116 391,116 391,116 391,116 391,116 390,116 391,117 390,117 390,117 391,117 391,117 391,117 391,117 390,117 389,118 390,120 389,120 387,120 386,120 385,120 384,120 383,120 383,119 382,120 381,121 381,123 380,123 380,124 377,126 375,125 374,124 374,124 373,126 376,126 376,127 377,130 376,131 379,132 382,132 389,134 390,135 391,135 392,135 393,135 392,136 394,137 393,136 394,137 393,138 395,138 398,137 401,137 402,138 402,139 400,140 399,140 398,140 398,140 397,140 396,140 393,140 394,142 392,145 393,146 398,146 399,146 400,147 396,149 396,150 398,151 400,150 403,149 405,149 407,148 406,147 406,146 408,145 409,145 411,145 410,142 410,141 410,141 411,140 415,141 416,141 415,140 418,139 419,141 418,142 421,144 422,143 423,144 423,145 424,145 424,144 423,143 425,143 428,145 431,144 432,145 432,145 429,146 428,147 430,148 431,148 431,149 433,148 434,149 436,149 437,150 437,150 437,151 438,152 440,154 441,154 441,155 438,157 436,161 436,161 433,164 432,164 432,167 431,168 429,168 428,168 431,172 430,172" id="57" class="departement" geotype="departement" geoname="Moselle" code_insee="57" code_region="41" style="fill:steelblue;stroke:white;stroke-width:1"/><polygon points="177,304 176,304 176,303 175,303 176,302 175,300 176,300 175,299 174,299 174,298 174,298 173,300 171,302 168,302 167,304 166,303 163,303 163,301 163,301 163,300 162,298 165,296 165,296 165,294 163,293 163,292 162,290 161,290 161,288 161,288 159,289 159,288 155,285 151,286 151,284 151,284 150,283 147,282 147,280 146,280 143,279 143,280 142,279 140,278 139,279 139,279 140,281 140,281 138,281 138,280 136,279 136,279 135,279 136,278 135,278 136,278 136,276 138,275 142,275 142,274 142,273 141,273 140,272 141,271 141,270 142,270 143,269 143,268 145,268 145,267 144,267 145,266 145,265 145,264 144,262 144,261 145,261 147,260 153,259 153,258 152,257 151,255 149,254 145,251 143,252 137,250 137,250 138,248 139,245 132,241 127,244 127,243 118,236 117,235 116,233 116,233 115,232 116,231 113,230 111,229 108,229 107,229 106,230 104,230 101,233 98,234 96,232 97,230 96,229 96,228 101,225 98,224 94,224 92,223 95,223 96,222 97,222 97,221 101,219 101,218 104,218 106,217 108,218 110,218 110,218 112,220 114,219 113,218 114,216 117,215 119,215 120,214 122,214 122,214 123,214 123,215 125,215 126,214 127,214 131,213 132,214 132,215 133,217 133,214 134,212 136,211 138,211 139,211 136,209 137,208 138,208 139,209 140,208 144,208 144,208 144,209 146,209 147,210 151,210 152,210 155,209 155,208 156,207 157,207 158,205 159,204 162,205 163,206 164,205 167,204 168,203 170,204 172,203 173,202 174,202 174,202 176,202 178,202 178,203 182,204 185,204 184,206 185,206 181,209 183,210 181,210 181,211 184,212 181,214 181,215 176,218 176,220 179,220 179,221 180,220 183,220 184,220 184,219 185,218 186,216 184,215 185,214 190,215 188,217 187,217 188,216 187,216 185,218 186,219 186,219 186,220 185,221 187,220 188,221 189,222 190,222 190,221 190,221 191,221 193,222 194,224 192,226 194,226 193,226 193,227 194,227 195,228 194,228 194,229 195,230 196,230 197,230 199,231 200,229 201,229 202,228 203,229 203,228 205,229 206,228 206,229 207,229 209,228 209,229 210,228 211,227 212,227 213,229 215,229 217,228 216,226 216,226 215,226 216,225 218,224 219,224 218,225 219,226 220,226 220,227 220,228 219,228 219,228 220,228 220,229 223,230 225,227 226,228 230,225 229,224 230,224 229,222 230,222 229,221 229,220 229,220 229,220 234,220 234,220 235,219 235,219 236,220 235,222 236,222 237,222 238,222 239,221 240,222 242,221 242,221 243,221 244,221 244,222 247,220 249,220 251,216 252,217 253,217 253,216 255,216 256,215 257,215 257,216 257,217 258,219 263,220 266,220 268,220 268,220 268,220 272,218 271,219 271,220 271,219 272,219 271,220 273,220 273,220 272,222 273,221 272,222 273,223 275,222 276,223 277,223 279,220 281,219 284,219 285,218 286,219 288,220 291,218 293,219 296,217 297,216 299,215 301,216 305,217 307,219 307,218 308,218 306,215 305,215 305,215 305,214 307,213 308,210 310,210 311,209 312,209 315,208 318,208 318,210 318,212 319,213 320,215 319,216 319,216 322,216 322,217 324,216 326,217 326,217 326,217 326,218 329,219 332,217 333,218 336,218 336,218 337,219 341,219 340,220 341,221 344,221 346,221 344,222 344,223 346,221 349,221 349,222 350,222 350,221 352,220 353,218 356,217 358,215 359,215 360,217 360,218 362,218 362,218 364,218 366,216 369,215 370,214 370,214 371,214 375,211 375,210 377,209 376,209 377,209 378,208 381,207 382,206 385,206 389,205 393,204 394,203 396,203 398,202 399,202 401,201 405,201 406,201 407,201 406,202 408,203 407,203 409,204 406,203 405,203 403,203 402,202 402,203 401,203 401,202 400,202 401,205 405,206 405,208 404,209 404,210 402,212 403,212 403,213 403,214 404,214 402,215 401,216 402,218 401,219 402,220 401,220 400,221 399,222 401,222 403,223 404,225 403,226 402,226 399,228 398,230 403,231 404,232 404,233 410,234 411,233 413,233 415,232 417,232 418,233 417,233 416,235 419,235 418,236 420,237 420,238 419,239 416,239 415,240 415,241 416,241 414,243 413,245 413,245 411,246 410,247 410,247 409,248 408,249 408,250 408,251 408,251 407,253 406,255 405,255 405,256 403,257 404,258 403,259 400,260 399,260 399,262 399,263 398,263 398,264 397,265 396,267 395,268 394,269 397,270 399,270 398,274 397,275 393,279 390,280 389,282 388,282 388,284 387,284 386,286 387,287 386,288 386,288 384,290 382,290 381,292 379,292 377,294 376,293 374,294 374,295 374,297 373,298 373,298 371,299 370,301 370,303 369,304 370,307 368,309 369,309 370,309 371,310 369,312 369,312 365,314 365,315 367,315 367,315 366,316 367,317 367,319 368,319 369,320 369,321 368,322 367,322 365,323 365,324 365,324 360,325 358,326 357,326 356,326 355,326 354,327 352,328 351,327 349,327 346,325 345,324 346,323 345,321 341,321 340,320 336,319 336,318 336,318 331,316 330,315 328,315 327,314 323,313 319,311 318,310 319,309 317,308 316,308 317,307 315,306 313,306 312,304 311,304 305,306 304,308 304,308 302,310 301,311 301,312 294,313 289,315 288,314 289,313 286,312 285,311 286,310 286,309 285,308 283,308 283,307 281,305 281,304 276,304 276,302 273,302 273,301 271,301 269,301 267,302 267,301 265,302 262,302 261,303 258,303 256,302 253,302 250,304 248,305 246,305 245,306 242,306 241,307 239,306 240,305 240,304 238,304 238,303 236,302 235,302 234,303 233,303 231,302 231,300 231,300 230,300 229,300 229,299 232,299 232,298 231,297 231,295 230,295 230,294 230,293 229,291 226,290 226,290 226,290 223,290 222,292 220,291 218,292 216,291 210,293 208,294 208,296 207,295 207,296 206,296 205,297 207,297 205,299 206,299 204,299 204,299 203,301 204,301 202,302 201,301 199,302 199,302 197,302 196,303 194,305 193,306 189,305 191,303 195,300 195,299 193,299 193,298 191,298 189,299 188,299 187,300 188,302 187,303 185,304 184,304 183,305 183,307 181,307 181,306 179,305 178,304 177,304" id="88" class="departement" geotype="departement" geoname="Vosges" code_insee="88" code_region="41" style="fill:steelblue;stroke:white;stroke-width:1"/></svg>