<svg width="419" height="500"><polygon points="80,221 71,219 74,216 78,212 80,212 81,211 79,208 76,206 74,205 75,204 77,203 77,203 76,201 77,199 77,197 78,194 81,193 80,192 80,191 80,190 79,189 81,186 81,184 84,182 84,179 76,178 75,173 76,173 77,174 78,174 78,173 79,174 82,175 84,174 89,175 87,174 88,174 84,173 86,171 85,170 84,170 83,170 83,170 81,170 79,169 77,170 73,169 72,171 71,169 68,167 72,163 75,166 82,163 85,163 88,166 92,166 93,165 98,166 99,166 104,163 106,160 109,158 113,159 114,158 121,152 125,148 127,147 128,147 127,146 125,145 125,144 127,143 127,142 129,141 130,140 129,139 131,138 132,136 127,135 129,134 131,134 133,133 133,131 135,131 136,130 137,128 140,126 133,126 132,126 129,125 128,125 127,122 126,122 125,122 126,122 121,116 123,115 126,116 128,114 128,110 130,110 134,105 134,105 137,98 142,95 143,94 140,93 137,89 135,88 136,86 136,86 134,84 132,84 129,83 127,85 126,83 124,82 122,81 124,79 127,78 127,78 126,77 122,79 117,75 113,75 115,77 114,78 113,78 112,76 110,75 109,76 104,74 107,72 104,69 100,70 101,71 100,71 93,70 91,72 92,72 91,74 92,77 90,79 88,79 85,80 85,82 86,83 83,84 79,85 74,86 72,88 68,86 68,84 75,82 74,80 71,79 64,79 62,78 64,73 64,70 68,69 70,70 71,70 71,69 72,70 75,69 78,68 78,67 76,65 71,64 67,66 63,66 64,65 63,64 65,64 62,63 62,62 61,62 59,61 58,61 56,60 44,56 41,57 34,55 37,52 35,48 35,47 30,46 31,43 32,43 33,44 36,46 42,44 41,42 43,41 44,39 44,36 46,35 46,36 49,36 50,36 51,36 54,36 56,37 58,37 56,33 57,31 59,32 60,32 59,31 59,32 59,31 59,31 60,31 59,31 59,30 60,31 60,30 59,30 58,30 58,30 59,29 59,29 58,29 58,29 57,27 58,26 58,27 59,26 58,26 59,26 58,25 59,25 59,26 59,25 60,24 61,24 62,23 62,23 62,23 62,22 64,21 64,21 64,20 62,19 64,14 72,8 70,6 68,4 71,1 73,3 75,2 78,0 79,2 82,2 84,3 82,4 78,4 79,6 80,7 80,10 84,12 82,14 83,14 85,14 85,16 85,18 86,19 86,22 97,22 97,23 100,22 103,23 104,25 106,25 111,29 120,27 124,28 125,29 128,29 131,31 137,32 135,34 136,34 135,37 140,37 142,38 146,41 149,39 152,39 155,37 155,37 156,36 159,38 163,38 166,38 171,36 178,35 184,33 185,35 192,35 195,38 199,40 203,41 204,41 207,40 209,44 216,43 215,42 215,42 214,41 219,37 222,36 223,35 224,34 223,33 227,28 226,27 225,27 225,26 232,20 231,17 236,14 241,9 239,7 251,10 253,9 258,8 257,7 258,6 261,7 262,8 265,7 266,8 269,7 269,10 274,9 276,10 279,9 283,6 286,6 288,4 292,5 293,6 297,8 298,9 302,10 303,11 304,10 306,13 310,13 314,10 316,9 320,10 323,10 323,11 324,11 326,10 329,6 331,6 332,7 333,7 333,8 337,10 337,10 339,11 340,13 341,13 342,15 350,15 352,16 353,16 353,17 355,17 356,18 359,18 363,19 364,19 367,21 369,22 369,23 370,24 371,25 375,26 376,27 377,27 382,27 382,28 384,27 386,28 387,28 390,29 394,30 399,30 401,31 401,30 408,30 409,32 408,33 410,33 414,31 417,31 419,33 409,36 406,40 401,46 392,55 386,64 382,75 380,79 376,83 370,87 362,87 359,88 357,89 356,93 355,95 351,96 344,96 342,96 340,97 340,104 339,107 327,117 318,124 314,126 303,130 300,134 298,138 289,149 291,158 291,171 288,174 280,177 279,178 279,185 275,194 269,205 268,210 270,216 272,223 273,225 271,228 261,232 257,234 253,248 253,248 249,258 241,264 240,266 238,270 232,275 229,278 228,285 223,287 222,289 210,288 205,287 204,286 203,285 205,280 191,278 191,277 190,277 190,274 189,274 190,273 191,270 191,265 192,264 184,261 182,259 179,260 173,257 171,258 169,256 170,255 162,253 155,250 146,251 141,249 143,247 143,246 144,246 148,244 149,243 140,244 136,244 136,242 139,240 135,237 136,236 133,236 131,233 128,234 126,233 124,233 121,234 119,232 117,232 114,231 109,232 108,232 107,230 105,229 106,227 101,227 102,224 104,224 103,223 99,222 96,224 92,225 91,225 82,224 81,222 80,221" id="67" class="departement" geotype="departement" geoname="Bas-Rhin" code_insee="67" code_region="42" style="fill:steelblue;stroke:white;stroke-width:1"/><polygon points="178,488 177,490 175,491 175,492 169,495 164,497 154,496 152,495 150,494 147,494 146,494 139,494 136,496 133,496 130,498 122,500 122,498 120,498 119,495 116,494 110,495 107,495 106,494 99,493 102,489 101,486 105,479 109,479 108,478 97,479 93,477 87,475 90,473 91,468 89,467 88,464 88,464 84,462 80,460 80,458 80,455 76,454 75,451 74,450 74,448 71,447 70,446 70,446 69,447 69,446 68,445 65,446 60,445 58,448 56,448 55,449 54,449 53,448 54,448 54,447 52,446 51,446 50,445 51,444 50,444 50,440 50,439 50,438 50,437 51,437 53,438 51,436 52,436 53,435 52,434 54,433 53,432 54,430 60,431 58,427 61,425 62,424 60,424 59,423 61,421 62,421 62,420 60,419 59,418 59,418 58,417 58,416 56,415 56,414 59,409 58,408 58,408 54,405 53,402 52,403 48,402 42,400 39,400 33,396 31,396 30,394 25,394 24,394 22,392 20,392 18,392 15,392 12,391 9,391 7,390 6,389 6,388 2,385 3,383 2,382 0,382 0,380 1,379 3,378 5,378 8,377 16,376 17,375 17,374 20,372 22,371 24,370 23,368 21,366 20,366 20,364 19,362 21,361 20,360 17,360 17,358 23,356 23,355 26,352 26,350 23,350 21,350 26,346 24,342 25,339 25,337 27,334 30,333 29,332 31,331 31,328 31,325 34,324 36,325 40,322 42,322 45,319 48,319 51,316 51,315 53,314 51,312 54,309 55,308 55,306 57,305 57,303 63,300 69,293 71,292 73,286 69,286 65,284 66,281 67,281 70,277 72,275 71,273 73,273 73,272 74,270 75,270 80,267 81,265 80,265 83,262 83,261 85,260 86,257 87,254 88,253 88,252 88,250 90,250 91,247 92,247 92,245 95,244 96,244 97,240 101,238 100,237 100,235 102,235 106,234 108,232 109,232 114,231 117,232 119,232 121,234 124,233 126,233 128,234 131,233 133,236 136,236 135,237 139,240 136,242 136,244 140,244 149,243 148,244 144,246 143,246 143,247 141,249 146,251 155,250 162,253 170,255 169,256 171,258 173,257 179,260 182,259 184,261 192,264 191,265 191,270 190,273 189,274 190,274 190,277 191,277 191,278 205,280 203,285 204,286 205,287 210,288 222,289 223,293 221,298 220,301 221,307 219,314 222,318 232,325 234,329 235,333 232,339 229,341 224,346 223,349 223,356 221,358 217,361 215,364 218,370 217,373 213,382 211,385 208,391 209,396 211,399 213,404 213,406 212,409 209,411 203,415 202,417 204,420 205,425 206,428 210,431 219,436 221,440 226,444 227,446 224,453 221,453 219,453 216,454 217,455 216,456 214,457 207,460 204,462 201,462 200,463 198,464 198,465 199,467 202,467 205,465 207,466 208,467 205,472 204,471 199,471 198,470 198,471 202,473 202,477 199,478 199,479 197,479 195,481 192,482 190,482 187,479 185,479 179,477 175,482 177,481 182,482 183,484 184,483 186,484 182,487 178,488" id="68" class="departement" geotype="departement" geoname="Haut-Rhin" code_insee="68" code_region="42" style="fill:steelblue;stroke:white;stroke-width:1"/></svg>