<svg width="500" height="453"><polygon points="291,136 289,136 288,138 287,138 286,137 284,137 284,137 282,137 282,135 280,134 278,134 271,133 271,133 275,132 275,131 276,131 277,130 277,130 277,129 277,129 279,128 279,127 279,127 282,124 280,122 279,121 278,119 277,119 278,117 278,116 279,115 279,114 279,113 281,114 283,111 282,108 282,107 283,107 283,105 285,104 285,103 286,103 286,101 288,100 288,99 287,99 286,97 286,96 285,95 284,94 283,93 281,92 277,92 275,92 274,93 272,93 272,94 270,95 270,93 272,90 271,89 277,87 276,86 274,86 273,85 274,84 277,82 277,81 278,79 278,79 280,79 282,78 284,76 285,75 287,76 288,76 291,75 292,75 294,77 294,77 297,78 297,78 297,77 299,77 299,76 301,76 303,73 302,73 303,71 304,71 303,70 306,70 306,70 307,70 308,70 309,68 309,67 311,66 310,66 313,65 315,66 315,66 316,65 318,64 318,62 317,59 317,59 316,56 315,54 315,53 316,49 317,49 318,47 318,46 319,44 321,44 322,43 323,44 325,44 325,43 324,42 323,42 323,40 324,39 327,42 328,41 328,39 328,39 329,39 330,39 330,39 332,38 332,37 333,37 334,37 335,36 335,35 337,35 340,34 342,36 343,35 343,33 344,32 345,31 346,30 346,29 347,29 348,27 350,27 351,27 351,27 353,27 353,26 354,26 355,25 355,24 353,23 354,22 354,22 356,20 355,18 356,18 356,17 354,16 354,15 354,15 354,15 355,15 355,14 355,13 358,11 358,11 359,11 359,12 359,12 360,13 360,13 361,13 360,13 361,12 363,13 363,13 365,11 365,11 364,9 365,9 365,9 366,9 366,8 367,9 367,8 367,7 369,7 369,6 368,6 369,5 370,3 371,4 371,3 371,2 372,2 374,1 373,0 374,0 375,3 377,2 377,3 377,4 378,4 378,4 379,4 380,4 380,4 381,4 381,4 382,4 383,4 383,4 383,4 384,3 384,4 385,4 386,4 386,3 388,3 388,3 390,4 391,4 392,5 393,6 394,7 396,7 396,7 396,10 394,11 394,13 392,15 394,17 395,17 396,19 397,19 400,18 401,19 401,20 402,21 402,21 405,21 406,21 408,19 409,16 411,14 412,14 413,16 414,18 416,18 416,16 418,17 421,16 422,16 423,15 423,16 425,17 426,16 427,17 428,17 429,17 430,15 432,16 434,16 435,17 436,18 436,19 437,19 437,20 436,21 437,22 438,23 438,24 440,25 440,25 442,26 443,28 444,28 444,27 445,28 446,27 447,27 447,26 448,26 449,26 449,26 449,26 451,26 451,27 451,27 452,27 457,29 454,31 452,32 451,34 449,35 449,37 450,36 452,38 453,37 454,37 456,36 456,37 457,37 457,38 458,38 458,40 459,40 462,39 463,39 467,40 467,42 468,43 470,42 471,42 473,43 473,43 475,43 476,43 475,44 475,43 474,44 475,44 475,46 474,46 474,47 473,46 472,46 471,46 470,48 471,49 472,49 472,49 472,49 473,48 474,48 473,50 474,50 474,51 476,51 475,50 476,50 476,49 478,50 478,50 480,51 481,51 481,52 480,53 480,54 480,54 478,55 477,55 475,56 475,56 474,58 473,60 471,61 467,61 468,63 468,64 468,64 467,65 468,66 467,65 466,68 467,68 468,69 468,70 470,71 473,71 473,71 474,73 470,75 467,76 466,77 466,79 467,80 471,80 473,79 475,81 476,82 474,83 472,85 470,85 470,86 471,86 471,86 473,87 473,87 474,87 476,89 477,88 477,89 478,89 479,90 480,88 482,89 485,88 485,89 485,90 488,90 490,89 492,90 493,91 495,91 494,93 492,94 489,94 490,95 490,94 492,95 492,96 491,97 493,99 494,100 492,101 494,101 495,101 494,102 495,103 497,105 498,106 500,107 499,108 499,108 494,109 495,111 494,112 495,113 494,115 496,115 495,116 495,117 497,119 498,119 498,119 498,120 498,120 498,121 499,122 498,122 499,122 499,123 496,123 494,124 495,124 496,125 495,126 496,126 499,128 499,129 497,130 495,130 494,130 495,131 494,131 493,132 493,133 493,134 491,133 490,134 489,135 488,134 487,134 486,136 486,137 487,139 487,139 486,140 483,140 481,140 481,140 477,142 476,143 478,143 478,144 477,145 478,146 479,147 481,147 480,150 477,150 476,151 477,151 477,153 475,153 475,154 474,154 473,153 472,153 472,155 469,156 468,156 468,158 466,158 466,159 465,159 462,159 461,160 461,159 460,159 459,159 457,160 455,161 453,161 454,164 453,164 455,166 454,167 450,170 447,171 445,174 447,174 447,175 446,175 447,176 444,177 443,176 443,176 442,176 443,174 442,173 439,172 438,171 436,171 433,170 430,168 430,167 428,165 426,167 425,166 422,166 419,167 418,168 417,169 414,170 412,170 411,173 409,172 407,172 405,172 405,172 406,171 406,170 406,170 404,170 404,170 404,169 403,168 403,168 405,167 406,167 405,166 406,166 405,164 407,164 407,162 408,162 405,161 404,160 405,159 404,158 403,157 402,157 402,157 399,156 398,158 398,159 397,159 394,158 394,160 392,159 389,160 387,160 387,160 385,160 384,160 382,160 380,160 379,160 378,160 378,158 378,157 376,156 374,156 372,157 373,158 372,158 370,157 370,158 368,157 367,157 365,158 364,161 363,161 362,161 362,162 361,162 360,162 359,161 358,160 357,160 355,160 355,161 354,161 353,161 352,162 349,161 348,162 347,163 346,164 345,164 342,164 341,165 341,165 336,163 334,164 333,163 331,164 331,164 330,163 330,160 332,159 332,158 331,157 329,156 329,155 330,155 330,153 329,153 328,151 327,150 326,149 324,148 322,147 319,145 319,144 318,143 319,142 318,140 317,139 317,137 321,138 322,136 323,137 322,136 323,135 324,135 325,134 321,131 319,131 316,131 313,130 313,130 314,132 314,132 311,134 309,135 306,138 306,138 305,138 305,137 299,137 296,137 294,138 294,138 293,138 293,136 291,136" id="24" class="departement" geotype="departement" geoname="Dordogne" code_insee="24" code_region="72" style="fill:steelblue;stroke:white;stroke-width:1"/><polygon points="84,176 85,176 85,175 85,176 85,176 84,176" id="33" class="departement" geotype="departement" geoname="Gironde" code_insee="33" code_region="72" style="fill:steelblue;stroke:white;stroke-width:1"/><polygon points="311,147 311,148 310,148 310,148 309,149 310,150 309,150 310,153 310,153 307,153 306,150 306,150 306,149 305,149 304,150 303,151 303,151 301,151 300,152 298,151 298,152 298,153 297,153 298,155 297,155 297,156 297,156 297,156 295,155 294,155 293,155 293,156 292,157 292,157 293,157 292,159 294,159 294,160 295,159 297,159 296,161 297,162 297,162 298,162 299,162 299,162 301,162 302,161 302,162 304,162 305,163 304,164 302,165 302,167 300,167 299,167 298,166 298,167 298,168 299,168 300,170 300,171 297,171 295,173 294,173 293,174 289,175 290,176 289,177 289,177 289,178 288,178 288,179 288,179 287,180 286,180 283,180 282,179 281,180 280,180 280,181 276,180 276,180 278,182 278,182 279,183 278,184 277,184 276,185 275,185 274,187 274,189 274,189 275,192 274,192 274,194 275,194 276,194 278,195 277,196 277,196 276,196 276,197 275,198 276,199 274,200 276,200 275,201 277,203 279,205 279,205 278,206 280,206 279,208 277,208 277,207 274,207 272,209 271,209 268,209 267,209 266,210 264,210 263,213 264,213 266,215 267,215 271,219 270,219 271,221 271,223 269,223 268,224 266,227 266,226 265,226 265,227 263,228 263,228 261,228 261,229 260,229 257,228 257,229 255,230 251,228 249,225 247,223 246,223 245,224 242,224 241,225 242,233 236,235 234,235 228,233 219,233 216,233 215,228 217,221 214,220 211,218 210,218 210,215 203,215 196,212 195,208 190,207 188,206 183,204 179,203 177,203 180,202 180,198 179,196 178,196 172,194 171,195 172,195 171,196 169,197 169,196 164,196 164,196 158,197 156,197 156,197 156,198 156,198 156,199 154,199 151,200 146,200 136,197 135,196 130,198 127,198 117,199 121,197 123,194 125,190 124,186 123,186 120,186 118,186 109,183 105,187 91,191 83,193 83,188 82,184 82,182 84,179 87,176 89,172 90,170 90,166 92,163 93,162 97,162 99,162 100,163 100,163 101,164 99,165 99,165 100,165 104,165 104,165 106,164 107,165 107,164 106,163 107,163 108,164 107,164 109,165 110,165 110,165 111,165 111,165 111,164 112,165 112,165 112,165 113,164 115,164 116,164 117,164 118,163 119,162 118,160 117,160 116,160 115,159 114,159 111,157 114,157 115,158 116,158 116,158 115,157 115,157 114,156 113,155 112,155 110,153 106,150 104,150 104,150 103,149 103,149 103,149 102,149 101,148 100,148 100,148 100,147 99,147 99,146 97,145 96,145 95,146 96,147 95,147 94,148 95,148 96,149 94,150 95,150 94,150 94,151 93,151 90,154 88,155 88,156 87,157 85,161 85,163 84,165 85,166 84,167 85,168 84,169 83,169 82,168 82,165 86,140 89,123 92,100 93,90 96,72 97,66 98,55 97,50 97,48 99,42 98,38 98,36 100,33 104,29 106,27 106,27 108,23 109,22 110,23 113,22 112,23 112,23 112,23 112,23 113,24 113,24 112,24 112,25 113,25 113,25 113,24 113,25 113,25 115,26 116,28 115,28 115,28 114,27 113,27 112,28 113,28 114,28 114,29 114,29 113,29 114,29 114,29 111,29 111,30 112,31 112,31 115,33 118,34 118,35 119,36 122,37 122,38 122,38 124,38 124,39 125,39 126,40 133,42 134,45 136,46 137,47 140,48 143,50 146,52 152,56 153,57 153,58 153,58 156,62 158,67 159,66 160,70 161,74 161,75 163,75 169,74 168,66 166,60 167,60 177,61 177,62 179,61 180,61 182,60 183,60 183,61 185,61 185,59 186,57 187,58 187,59 189,59 188,61 188,62 189,64 189,65 190,64 192,65 196,66 197,66 201,65 203,65 204,66 206,66 209,67 211,67 212,69 212,70 211,72 214,72 214,73 213,75 213,76 212,78 211,78 212,79 214,81 215,83 217,88 218,86 220,84 224,85 227,86 227,88 228,89 229,87 234,89 234,90 235,90 235,91 237,92 236,93 238,94 242,94 244,95 247,96 251,96 253,97 255,96 256,95 256,94 259,93 261,92 263,92 263,92 265,94 266,95 268,95 268,95 269,95 270,95 272,94 272,93 274,93 275,92 277,92 281,92 283,93 284,94 285,95 286,96 286,97 287,99 288,99 288,100 286,101 286,103 285,103 285,104 283,105 283,107 282,107 282,108 283,111 281,114 279,113 279,114 279,115 278,116 278,117 277,119 278,119 279,121 280,122 282,124 279,127 279,127 279,128 277,129 277,129 277,130 277,130 276,131 275,131 275,132 271,133 271,133 278,134 280,134 282,135 282,137 284,137 284,137 286,137 287,138 288,138 289,136 291,136 293,136 293,138 294,138 294,138 296,137 299,137 305,137 305,138 306,138 306,138 309,135 311,134 314,132 314,132 313,130 313,130 316,131 319,131 321,131 325,134 324,135 323,135 322,136 323,137 322,136 321,138 317,137 317,139 318,140 319,142 318,143 319,144 319,145 322,147 322,148 320,148 320,148 318,148 315,149 314,149 313,147 312,147 311,147 311,147" id="33" class="departement" geotype="departement" geoname="Gironde" code_insee="33" code_region="72" style="fill:steelblue;stroke:white;stroke-width:1"/><polygon points="83,177 83,177 83,177 83,177 83,177" id="33" class="departement" geotype="departement" geoname="Gironde" code_insee="33" code_region="72" style="fill:steelblue;stroke:white;stroke-width:1"/><polygon points="83,176 85,173 87,173 85,174 85,175 83,175 83,177 83,176" id="33" class="departement" geotype="departement" geoname="Gironde" code_insee="33" code_region="72" style="fill:steelblue;stroke:white;stroke-width:1"/><polygon points="82,173 83,173 84,173 83,173 82,173" id="33" class="departement" geotype="departement" geoname="Gironde" code_insee="33" code_region="72" style="fill:steelblue;stroke:white;stroke-width:1"/><polygon points="93,157 94,156 95,156 96,158 94,158 93,157" id="33" class="departement" geotype="departement" geoname="Gironde" code_insee="33" code_region="72" style="fill:steelblue;stroke:white;stroke-width:1"/><polygon points="93,19 93,18 95,19 96,20 96,20 95,20 96,21 95,20 95,20 93,19" id="33" class="departement" geotype="departement" geoname="Gironde" code_insee="33" code_region="72" style="fill:steelblue;stroke:white;stroke-width:1"/><polygon points="230,331 230,332 229,333 226,333 225,334 222,333 222,332 220,332 218,331 218,332 216,331 215,332 214,331 211,333 210,333 209,334 207,334 207,334 205,332 206,332 205,332 206,331 206,332 207,332 207,331 208,330 209,330 210,330 210,329 210,329 209,328 208,328 208,328 207,327 205,329 205,328 202,329 202,329 199,330 198,331 198,331 197,332 198,332 195,333 194,334 191,335 190,335 190,334 190,333 189,333 188,334 185,335 184,336 182,336 181,335 179,334 179,334 177,334 175,333 175,333 175,333 177,331 177,330 174,331 173,332 172,333 171,333 170,333 169,333 168,332 167,333 167,336 166,336 164,335 164,335 163,334 163,333 158,330 156,330 156,332 154,332 152,333 150,332 146,334 146,335 144,336 143,335 142,335 139,334 136,335 134,335 134,336 133,337 132,336 131,336 130,337 128,337 125,336 124,336 124,336 122,336 122,337 124,337 124,339 123,341 123,341 121,341 119,341 118,342 118,341 117,340 115,341 115,340 114,341 113,340 111,341 111,340 111,339 109,338 110,339 109,340 105,340 104,342 101,342 101,342 101,344 100,344 99,344 98,342 98,342 97,343 96,343 96,342 96,342 95,341 97,341 98,341 99,340 101,340 102,340 102,339 101,339 101,338 98,337 97,336 96,335 95,335 92,335 91,336 89,337 83,339 82,340 77,342 72,341 70,342 67,342 66,343 65,343 58,342 57,342 57,342 57,341 55,340 54,340 51,339 50,339 51,337 49,337 48,336 46,337 46,338 45,338 41,337 40,337 41,337 46,331 47,329 50,325 53,319 53,317 54,314 56,305 58,298 58,296 60,290 63,282 68,265 72,251 71,251 73,245 78,223 79,217 79,213 83,193 91,191 105,187 109,183 118,186 120,186 123,186 124,186 125,190 123,194 121,197 117,199 127,198 130,198 135,196 136,197 146,200 151,200 154,199 156,199 156,198 156,198 156,197 156,197 158,197 164,196 164,196 169,196 169,197 171,196 172,195 171,195 172,194 178,196 179,196 180,198 180,202 177,203 179,203 183,204 188,206 190,207 195,208 196,212 203,215 210,215 210,218 211,218 214,220 217,221 215,228 216,233 219,233 228,233 234,235 236,235 242,233 241,225 242,224 245,224 246,223 247,223 249,225 251,228 255,230 256,233 256,241 259,241 260,241 263,241 267,241 276,242 281,244 282,245 297,246 297,246 297,248 295,249 294,250 292,251 293,253 292,253 291,255 289,255 290,256 290,257 289,258 289,259 288,260 287,261 286,261 286,262 286,265 288,267 288,268 288,268 287,269 287,269 287,270 286,270 286,271 285,271 285,272 286,273 286,274 287,274 288,278 287,279 288,280 286,280 285,281 283,280 282,280 279,278 273,276 275,275 275,274 277,273 277,272 276,271 271,267 269,271 267,271 266,272 266,273 264,274 262,273 261,274 261,275 262,275 261,276 260,276 260,275 257,273 256,275 253,274 253,275 252,275 252,276 251,276 249,274 249,275 247,276 246,278 244,278 243,279 242,278 241,278 240,280 239,281 240,281 240,281 240,282 241,282 242,281 243,282 244,283 245,282 247,283 247,284 248,285 248,286 247,286 247,285 246,285 246,285 246,286 245,286 244,287 246,289 247,290 247,291 246,291 247,294 245,295 245,294 244,294 243,294 243,294 241,294 242,296 243,296 242,298 243,298 244,299 243,300 244,301 244,302 245,302 244,302 243,303 243,303 243,303 246,304 246,305 242,308 238,310 239,310 239,311 240,312 239,313 238,313 238,313 237,314 237,315 239,316 239,317 239,317 239,318 236,318 236,319 236,321 233,320 233,322 233,323 234,324 238,324 238,326 237,327 238,327 238,328 239,328 239,329 238,329 237,329 237,328 237,328 234,329 233,329 232,330 232,331 231,332 230,331" id="40" class="departement" geotype="departement" geoname="Landes" code_insee="40" code_region="72" style="fill:steelblue;stroke:white;stroke-width:1"/><polygon points="414,242 414,243 414,244 413,243 412,244 413,244 412,245 411,245 409,245 409,245 408,245 403,243 401,242 400,243 399,242 398,243 399,245 399,246 400,248 398,247 398,247 397,247 396,247 395,248 395,247 394,248 393,248 393,249 392,250 392,250 392,251 390,253 390,254 391,255 390,255 390,255 387,256 386,256 385,257 384,258 384,258 382,258 381,259 381,260 379,261 377,260 377,258 376,258 375,257 374,257 373,255 371,254 370,254 370,254 369,253 369,253 368,252 368,253 367,253 365,253 366,253 364,255 364,256 363,256 362,256 360,256 360,257 359,256 357,256 355,255 354,257 354,256 352,256 351,256 351,257 347,256 346,258 346,258 345,259 345,260 343,260 342,261 341,260 340,262 338,261 338,262 337,262 335,264 334,263 333,262 332,262 331,262 331,263 328,263 327,264 325,263 325,263 326,265 325,266 324,266 323,266 320,265 319,265 318,264 317,264 316,264 316,264 312,263 313,262 312,261 311,262 310,262 309,261 309,262 308,261 308,263 307,262 306,263 306,262 304,265 303,265 302,266 302,268 301,269 301,269 298,269 298,266 296,264 296,265 295,265 295,266 293,267 290,267 289,268 288,267 286,265 286,262 286,261 287,261 288,260 289,259 289,258 290,257 290,256 289,255 291,255 292,253 293,253 292,251 294,250 295,249 297,248 297,246 297,246 282,245 281,244 276,242 267,241 263,241 260,241 259,241 256,241 256,233 255,230 257,229 257,228 260,229 261,229 261,228 263,228 263,228 265,227 265,226 266,226 266,227 268,224 269,223 271,223 271,221 270,219 271,219 267,215 266,215 264,213 263,213 264,210 266,210 267,209 268,209 271,209 272,209 274,207 277,207 277,208 279,208 280,206 278,206 279,205 279,205 277,203 275,201 276,200 274,200 276,199 275,198 276,197 276,196 277,196 277,196 278,195 276,194 275,194 274,194 274,192 275,192 274,189 274,189 274,187 275,185 276,185 277,184 278,184 279,183 278,182 278,182 276,180 276,180 280,181 280,180 281,180 282,179 283,180 286,180 287,180 288,179 288,179 288,178 289,178 289,177 289,177 290,176 289,175 293,174 294,173 295,173 297,171 300,171 300,170 299,168 298,168 298,167 298,166 299,167 300,167 302,167 302,165 304,164 305,163 304,162 302,162 302,161 301,162 299,162 299,162 298,162 297,162 297,162 296,161 297,159 295,159 294,160 294,159 292,159 293,157 292,157 292,157 293,156 293,155 294,155 295,155 297,156 297,156 297,156 297,155 298,155 297,153 298,153 298,152 298,151 300,152 301,151 303,151 303,151 304,150 305,149 306,149 306,150 306,150 307,153 310,153 310,153 309,150 310,150 309,149 310,148 310,148 311,148 311,147 311,147 312,147 313,147 314,149 315,149 318,148 320,148 320,148 322,148 322,147 324,148 326,149 327,150 328,151 329,153 330,153 330,155 329,155 329,156 331,157 332,158 332,159 330,160 330,163 331,164 331,164 333,163 334,164 336,163 341,165 341,165 342,164 345,164 346,164 347,163 348,162 349,161 352,162 353,161 354,161 355,161 355,160 357,160 358,160 359,161 360,162 361,162 362,162 362,161 363,161 364,161 365,158 367,157 368,157 370,158 370,157 372,158 373,158 372,157 374,156 376,156 378,157 378,158 378,160 379,160 380,160 382,160 384,160 385,160 387,160 387,160 389,160 392,159 394,160 394,158 397,159 398,159 398,158 399,156 402,157 402,157 403,157 404,158 405,159 404,160 405,161 408,162 407,162 407,164 405,164 406,166 405,166 406,167 405,167 403,168 403,168 404,169 404,170 404,170 406,170 406,170 406,171 405,172 405,172 407,172 409,172 411,173 412,170 414,170 417,169 418,168 419,167 422,166 425,166 426,167 428,165 430,167 430,168 433,170 436,171 438,171 439,172 442,173 443,174 442,176 442,177 438,178 437,179 437,179 435,180 436,180 434,181 433,182 432,180 432,180 430,180 428,181 429,182 429,183 430,183 431,183 432,186 433,187 433,188 433,188 433,189 433,189 433,189 433,189 432,191 434,191 434,192 435,193 434,194 435,195 434,196 436,197 435,198 436,198 437,198 438,198 438,198 439,198 439,199 440,199 440,201 440,203 439,204 440,204 441,206 440,207 440,208 440,208 438,209 435,209 432,208 430,208 427,210 426,209 424,209 423,209 423,210 422,210 422,211 422,212 422,212 421,208 419,207 418,205 417,206 416,206 415,206 414,207 413,208 414,209 414,211 415,211 413,213 414,213 413,213 413,214 411,215 412,216 411,217 411,217 411,217 413,217 415,219 415,218 418,218 419,220 419,221 421,221 421,221 422,221 422,222 422,222 423,222 423,222 422,224 420,223 421,226 419,227 418,228 419,229 420,228 420,229 416,234 416,235 416,235 409,235 409,235 408,236 408,238 410,238 411,239 413,238 414,238 414,239 413,240 414,241 414,242" id="47" class="departement" geotype="departement" geoname="Lot-et-Garonne" code_insee="47" code_region="72" style="fill:steelblue;stroke:white;stroke-width:1"/><polygon points="35,344 35,344 35,344 35,344 35,344" id="64" class="departement" geotype="departement" geoname="Pyrénées-Atlantiques" code_insee="64" code_region="72" style="fill:steelblue;stroke:white;stroke-width:1"/><polygon points="34,344 34,344 34,344 34,344 34,344" id="64" class="departement" geotype="departement" geoname="Pyrénées-Atlantiques" code_insee="64" code_region="72" style="fill:steelblue;stroke:white;stroke-width:1"/><polygon points="33,345 33,345 33,345 33,345 33,345" id="64" class="departement" geotype="departement" geoname="Pyrénées-Atlantiques" code_insee="64" code_region="72" style="fill:steelblue;stroke:white;stroke-width:1"/><polygon points="34,344 34,344 34,344 34,344 34,344" id="64" class="departement" geotype="departement" geoname="Pyrénées-Atlantiques" code_insee="64" code_region="72" style="fill:steelblue;stroke:white;stroke-width:1"/><polygon points="33,344 33,344 34,344 34,344 33,344" id="64" class="departement" geotype="departement" geoname="Pyrénées-Atlantiques" code_insee="64" code_region="72" style="fill:steelblue;stroke:white;stroke-width:1"/><polygon points="13,371 12,373 11,373 9,374 8,371 8,371 8,371 8,370 8,368 6,368 6,366 5,366 4,366 3,366 0,365 2,363 0,362 0,361 0,361 0,361 1,361 3,361 5,361 6,360 6,360 9,360 10,360 16,358 17,358 16,358 16,359 19,359 20,359 20,358 19,358 20,357 23,356 24,356 25,355 25,355 26,354 28,353 30,352 33,348 33,347 33,347 33,347 33,347 34,345 34,345 34,345 34,345 34,344 34,344 34,344 35,345 35,345 35,345 35,345 35,345 35,344 35,344 35,345 35,344 35,344 37,343 37,343 36,343 36,343 37,343 41,339 40,338 41,338 41,337 45,338 46,338 46,337 48,336 49,337 51,337 50,339 51,339 54,340 55,340 57,341 57,342 57,342 58,342 65,343 66,343 67,342 70,342 72,341 77,342 82,340 83,339 89,337 91,336 92,335 95,335 96,335 97,336 98,337 101,338 101,339 102,339 102,340 101,340 99,340 98,341 97,341 95,341 96,342 96,342 96,343 97,343 98,342 98,342 99,344 100,344 101,344 101,342 101,342 104,342 105,340 109,340 110,339 109,338 111,339 111,340 111,341 113,340 114,341 115,340 115,341 117,340 118,341 118,342 119,341 121,341 123,341 123,341 124,339 124,337 122,337 122,336 124,336 124,336 125,336 128,337 130,337 131,336 132,336 133,337 134,336 134,335 136,335 139,334 142,335 143,335 144,336 146,335 146,334 150,332 152,333 154,332 156,332 156,330 158,330 163,333 163,334 164,335 164,335 166,336 167,336 167,333 168,332 169,333 170,333 171,333 172,333 173,332 174,331 177,330 177,331 175,333 175,333 175,333 177,334 179,334 179,334 181,335 182,336 184,336 185,335 188,334 189,333 190,333 190,334 190,335 191,335 194,334 195,333 198,332 197,332 198,331 198,331 199,330 202,329 202,329 205,328 205,329 207,327 208,328 208,328 209,328 210,329 210,329 210,330 209,330 208,330 207,331 207,332 206,332 206,331 205,332 206,332 205,332 207,334 207,334 209,334 210,333 211,333 214,331 215,332 216,331 218,332 218,331 220,332 222,332 222,333 225,334 226,333 229,333 230,332 230,331 231,332 232,331 232,330 233,329 234,329 237,328 237,328 237,329 238,329 239,329 240,329 241,328 244,328 245,329 247,328 249,327 251,329 252,329 252,329 254,329 255,329 255,330 257,329 258,329 258,329 260,329 261,329 261,330 262,331 262,332 263,333 262,335 262,335 263,335 264,335 266,335 267,335 266,336 267,335 268,337 269,337 270,338 270,339 270,340 270,341 269,342 269,343 271,344 271,346 272,346 274,346 273,347 273,347 271,347 266,348 267,349 266,351 266,352 267,353 269,354 267,355 266,356 268,356 270,356 271,355 271,352 273,353 274,351 276,350 276,351 276,353 278,354 276,358 276,358 276,358 277,358 277,358 276,359 277,360 275,362 277,362 277,362 278,363 277,363 278,364 280,365 281,366 280,367 280,367 278,369 278,369 277,369 276,368 272,368 272,369 271,371 270,372 270,372 270,375 270,375 273,376 272,377 274,377 274,377 272,379 273,380 269,383 269,385 269,385 267,385 265,385 266,392 262,392 261,393 260,393 259,391 258,391 257,393 257,395 256,396 255,396 255,397 254,397 254,398 255,398 254,399 252,400 251,400 250,401 250,402 249,402 246,401 247,402 247,403 246,403 246,404 246,405 248,405 248,406 246,409 246,409 247,411 248,410 248,411 247,411 246,413 244,413 244,414 242,414 238,413 236,413 236,414 237,415 236,417 236,418 234,418 232,418 231,420 232,424 231,425 233,426 233,428 233,429 233,429 232,430 231,430 229,431 229,432 226,432 226,434 228,435 228,437 229,439 228,442 226,445 225,445 225,444 223,444 223,444 220,447 220,448 217,449 217,450 215,450 215,450 213,449 208,451 207,449 205,449 203,449 202,448 200,447 200,447 199,446 198,446 197,447 195,448 196,450 195,451 192,451 191,453 189,453 188,451 189,450 189,449 187,449 185,449 184,449 184,448 183,446 184,445 181,444 178,442 175,441 174,439 172,437 169,438 168,437 166,437 164,435 163,435 164,435 163,433 165,432 165,431 166,431 164,430 164,429 162,427 160,424 158,424 156,425 155,425 153,425 151,427 147,426 146,427 143,427 141,426 138,426 138,425 136,425 135,425 134,426 131,426 129,425 126,425 125,424 122,423 121,421 119,420 118,420 111,420 109,419 109,417 106,417 104,415 101,418 101,418 100,418 100,415 95,413 95,414 94,414 89,412 87,411 86,412 84,413 81,412 80,411 78,409 76,409 76,409 74,408 76,405 80,401 72,402 71,403 69,405 70,407 69,408 69,411 68,413 67,415 66,414 54,412 51,409 49,407 49,406 49,405 51,404 54,403 54,402 56,401 56,400 56,400 58,399 58,398 59,397 58,396 59,395 60,395 60,392 63,390 62,389 63,388 63,387 63,386 63,385 64,383 63,381 63,381 59,377 58,377 56,378 54,378 53,378 50,377 48,376 47,375 46,376 44,374 40,374 39,374 39,374 37,374 35,375 36,376 33,381 32,380 29,380 28,380 26,378 25,375 26,373 26,372 24,371 22,372 21,371 19,371 17,371 15,371 13,371" id="64" class="departement" geotype="departement" geoname="Pyrénées-Atlantiques" code_insee="64" code_region="72" style="fill:steelblue;stroke:white;stroke-width:1"/><polygon points="35,344 35,344 35,344 35,344 35,344" id="64" class="departement" geotype="departement" geoname="Pyrénées-Atlantiques" code_insee="64" code_region="72" style="fill:steelblue;stroke:white;stroke-width:1"/><polygon points="35,344 35,344 35,344 35,344 35,344" id="64" class="departement" geotype="departement" geoname="Pyrénées-Atlantiques" code_insee="64" code_region="72" style="fill:steelblue;stroke:white;stroke-width:1"/><polygon points="34,344 34,344 34,344 34,344 34,344" id="64" class="departement" geotype="departement" geoname="Pyrénées-Atlantiques" code_insee="64" code_region="72" style="fill:steelblue;stroke:white;stroke-width:1"/><polygon points="34,344 34,344 34,344 34,344 34,344" id="64" class="departement" geotype="departement" geoname="Pyrénées-Atlantiques" code_insee="64" code_region="72" style="fill:steelblue;stroke:white;stroke-width:1"/><polygon points="35,344 35,344 35,344 35,344 35,344" id="64" class="departement" geotype="departement" geoname="Pyrénées-Atlantiques" code_insee="64" code_region="72" style="fill:steelblue;stroke:white;stroke-width:1"/><polygon points="5,360 5,360 6,360 6,360 5,360" id="64" class="departement" geotype="departement" geoname="Pyrénées-Atlantiques" code_insee="64" code_region="72" style="fill:steelblue;stroke:white;stroke-width:1"/><polygon points="5,360 5,360 5,360 5,360 5,360" id="64" class="departement" geotype="departement" geoname="Pyrénées-Atlantiques" code_insee="64" code_region="72" style="fill:steelblue;stroke:white;stroke-width:1"/><polygon points="36,343 36,343 36,343 36,343 36,343" id="64" class="departement" geotype="departement" geoname="Pyrénées-Atlantiques" code_insee="64" code_region="72" style="fill:steelblue;stroke:white;stroke-width:1"/><polygon points="34,344 34,344 34,344 34,344 34,344" id="64" class="departement" geotype="departement" geoname="Pyrénées-Atlantiques" code_insee="64" code_region="72" style="fill:steelblue;stroke:white;stroke-width:1"/><polygon points="36,344 36,344 36,344 36,344 36,344" id="64" class="departement" geotype="departement" geoname="Pyrénées-Atlantiques" code_insee="64" code_region="72" style="fill:steelblue;stroke:white;stroke-width:1"/><polygon points="7,360 7,360 7,360 7,360 7,360" id="64" class="departement" geotype="departement" geoname="Pyrénées-Atlantiques" code_insee="64" code_region="72" style="fill:steelblue;stroke:white;stroke-width:1"/><polygon points="35,344 35,344 35,344 35,344 35,344" id="64" class="departement" geotype="departement" geoname="Pyrénées-Atlantiques" code_insee="64" code_region="72" style="fill:steelblue;stroke:white;stroke-width:1"/><polygon points="33,344 33,344 33,344 33,344 33,344" id="64" class="departement" geotype="departement" geoname="Pyrénées-Atlantiques" code_insee="64" code_region="72" style="fill:steelblue;stroke:white;stroke-width:1"/><polygon points="34,344 34,344 34,344 34,344 34,344" id="64" class="departement" geotype="departement" geoname="Pyrénées-Atlantiques" code_insee="64" code_region="72" style="fill:steelblue;stroke:white;stroke-width:1"/><polygon points="35,344 35,344 35,344 35,344 35,344" id="64" class="departement" geotype="departement" geoname="Pyrénées-Atlantiques" code_insee="64" code_region="72" style="fill:steelblue;stroke:white;stroke-width:1"/></svg>