<?xml version="1.0" encoding="utf-8"?>
<svg version="1.1" id="france_regions_2016_domtom" xmlns="http://www.w3.org/2000/svg" xmlns:xlink="http://www.w3.org/1999/xlink" x="0px" y="0px" width="100%" height="100%" viewBox="355 285 235 175">
<path id="Auvergne-Rhone-Alpes" code_insee="84" code_region="" class="state" fill-rule="evenodd" clip-rule="evenodd" fill="steelblue" d="m 397.19,283.55 -0.03,0.06 c -0.53,0.03 -0.62,0.95 -1.25,0.59 -1.07,-0.24 -1.3,1.08 -2.19,1.34 -0.68,0.38 -0.82,1.2 -1.56,1.56 -0.59,0.3 -0.39,1.08 -0.69,1.47 -0.82,-0.75 -2.14,-0.58 -2.84,0.25 -0.56,0.51 -1.29,0.25 -1.56,-0.44 -0.26,-0.45 -0.59,-1.49 -1.28,-0.94 -0.65,0.39 -0.38,1.57 -1.28,1.66 -0.49,0.33 -0.43,1.06 -1.06,1.28 -0.54,0.29 -0.85,0.95 -1.53,0.66 -0.62,0.1 -0.27,0.76 -0.06,1.06 0.07,0.49 -0.17,1.38 -0.81,0.88 -0.59,-0.44 -1.76,-0.3 -2,0.31 0.58,0.17 1.69,0.87 1,1.56 -0.36,0.28 -0.08,0.77 -0.25,1.03 -0.67,0.39 -0.14,1.27 0.47,1.34 0.61,0.77 0.54,1.86 0.72,2.78 -1.18,0.73 -2.34,1.72 -3.63,2.13 -0.29,-0.68 -0.87,-0.32 -1.31,-0.06 -0.47,0.1 -0.22,-0.77 -0.81,-0.59 -1.03,0.35 -2.02,0.81 -3.16,0.72 -1.3,0.06 -2.79,0.14 -3.59,1.34 -0.8,0.47 -0,1.58 -0.81,2 -0.42,0.05 -0.96,-0.07 -1.16,0.47 -0.78,1.48 -0.91,3.38 -0.41,4.97 0.26,0.38 0.8,0.29 1.16,0.56 0.49,0.09 1.26,0.01 1.06,0.78 0.02,0.4 -0.71,0.16 -0.84,0.56 -1.01,0.83 0.26,2.01 1.16,2.19 0.58,-0.08 0.88,0.51 1.34,0.56 0.39,-0.14 0.36,-1.33 0.88,-0.75 0.76,0.62 1.67,1.39 1.25,2.5 0.36,0.53 0.92,-0.63 1.47,-0.19 0.81,0.23 1.69,0.87 1.44,1.84 0.14,1.11 1.7,1.29 1.69,2.47 0.4,1.14 -0.02,3 1.47,3.41 0.81,0.19 0.42,1.39 0.75,1.97 0.21,1.17 0,2.06 -0.66,2.5 -0.63,3.31 3.36,4.79 2.13,8.06 1.47,2.13 -3.77,2.43 -2.19,5.09 -1.55,1.17 -2.38,3.36 -4.44,2.97 -0.24,1.6 -1.76,1.78 -2.75,2.78 1.42,1.48 1.73,4.06 3.81,4.88 1.87,1.54 2.6,3.88 2.03,6.19 -0.04,1.68 -2.37,1.11 -2.13,3.19 -1.39,2.53 3.35,3.48 1.78,6.19 -0.13,0.85 0.13,1.66 0.63,2.31 -0.13,-0.03 -0.27,-0.04 -0.47,-0.03 -1.19,1.79 -1.69,4.43 0.41,5.72 -0.45,1.36 -2.52,1.74 -3.5,0.69 -1.54,-0.13 -3.08,-2.71 -4.38,-1.53 1.01,1.48 0.35,3.55 -0.13,5 -1.99,0.75 -2.55,2.82 -4.34,3.78 -0.52,1.72 -2.44,2.69 -2.84,4.41 0.01,1.72 2.73,2.74 0.56,4 -1.7,1.18 -0.24,4.86 -3.06,4.34 -2.7,0.63 -1.6,3.73 0,4.94 0.65,2.63 -4.47,0.66 -2.91,3.47 0.18,1.52 2.04,2.7 0.53,4.13 0.27,1.69 1.62,3.03 2.59,4.38 1.84,1.32 0.94,3.21 0.34,4.84 0.62,1.33 -1.77,3.31 -0.25,3.78 2.44,-0.09 0.11,3.66 2,4.56 1.7,1.06 0.3,-2.61 2.63,-2 1.68,-0.52 3.97,-1.43 4.56,0.78 2,-0.58 4.34,0.82 6.09,-0.75 0.44,-2.1 2.59,-3.2 3.22,-5.22 -0.69,-2.32 2.22,-3.17 2.16,-5.13 0,-1.99 1.08,-3.8 2.78,-4.53 0.13,-1.76 2.71,-1.81 3.06,-3.56 2.42,-0.56 2.51,3.04 2.13,4.63 0.65,0.42 1.86,-1.03 3.03,-0.47 1.73,-0.26 0.77,2.87 1.78,4.06 0.04,1.66 1.49,1.36 2.34,1.41 0.51,2.24 -0.6,4.89 0.69,7.09 0.22,1.4 1.89,3.14 2.25,0.88 0.17,-2.12 2.41,-3.18 1.69,-5.31 1.31,-1.43 0.08,-3.81 1.84,-5 0.34,-0.92 1.67,-0.91 1.28,-2.38 -0.31,-1.78 2.38,-4.14 2.91,-1.41 1.09,2.08 3.68,-0.13 3.13,-1.91 0.66,-0.39 0.95,-3.09 1.75,-1.44 1.49,0.21 2.72,-1.4 3.94,-1.91 0.35,-1.7 3.81,1.59 2.72,2.25 0.25,1.79 1.13,3.49 1.72,5.16 0.34,1.37 1.36,3.4 2.72,1.72 1.7,-0.4 4.23,-0.26 3.84,-2.75 0.47,-2.25 4.43,-0.37 3.41,1.53 -0.08,1.93 4.09,-1.3 4.13,1.69 0.63,1.03 1.68,1.89 2.41,2.97 1.04,-0.64 1.78,0.18 1.09,1.22 0.29,0.26 0.86,0.37 1.56,0.41 0.03,1.44 -0.11,2.77 0.5,4.06 -0.1,1.82 1.01,3.59 1.19,5.5 0.67,1.99 3.1,2.63 3.16,5.03 0.75,1.76 0.21,4.28 2.34,5.16 1.14,0.83 0.95,2.06 1.75,2.97 -1.24,1.36 0.1,3.48 -0.91,5.34 1.7,-0.1 4,-2.04 4.88,0.53 2.26,-0.51 3.43,4.43 5.78,2.47 0.31,-2.54 2.52,-4.67 5.22,-4.38 0.89,1.01 -0.76,4.43 2.03,3.59 1.01,-1.21 0.12,-4.65 2.97,-3.25 2.16,0.6 2.97,2.89 5.16,3.5 3.18,1.08 0.52,-3.86 2.59,-2.63 2.1,-1.19 -0.25,0.4 3.03,-0.09 2.81,-0.3 3.35,2.67 3.5,4.81 0.37,3.51 2.73,-1.8 4.5,-0.53 2.16,-0.59 4.02,-1.98 6.09,-2.75 1.51,-0.08 2.31,2.57 4.03,0.72 0.5,-1.18 2.5,-1.96 1.56,0 -1.01,1.27 0.17,2.5 -0.34,4.03 1.15,1.41 3.52,1.1 4.38,0.16 1.67,1.57 4.23,0.98 5.78,1.84 0.25,1.64 0.25,3.65 2.38,3.5 0.91,2.71 3.77,2.53 5.25,0.38 2.19,-0.46 -0.07,-2.19 1.78,-3.09 1.34,-0.38 2.44,2.35 3.25,-0.06 2.18,-0.81 0.04,-3.75 0.94,-5.25 -1.51,0.33 -2.16,-0.36 -2.16,-1.88 -1.71,-0.59 -0.04,-1.12 -0.63,-2.16 -2.21,0.34 -4.08,-0.84 -6.06,-0.91 -1.47,-1.34 -2.64,-1.83 -2.28,-4 -1.26,-1.18 -0.41,-2.4 1.16,-1.53 2.99,0.47 -0.76,-1.89 -0.03,-3.44 -0.23,-2.54 3.36,-0.15 4.81,0.19 1.61,1.06 2.73,-0.11 3.06,-1.5 3.5,-0.73 -3.71,-2.71 -0.94,-4.78 1.26,-1.58 1.46,-3.53 1.66,-5.25 1.87,-0.08 4.51,0.43 5.84,-0.69 3.38,-2.47 0.39,-1.09 2.06,-4.75 -0.07,-3.68 3.59,-0.12 5.53,-2 2.01,-0.73 1.39,-1.84 0.72,-3.03 1.72,-0.3 3.13,-2.8 4.63,-0.88 2.1,-0.43 3.19,-3.79 5.72,-2.13 1.86,0.27 3.48,-0.14 4.91,-1.34 1.13,0.91 3.3,2.59 2.84,-0.19 0.52,-2.11 0.19,-4.13 -1.34,-5.56 0.21,-1.88 -0.41,-3.2 -2.41,-2.31 -3.75,0.79 -3.52,-3.61 -1.44,-5.34 -1.16,-1.18 0.95,-3.12 0.91,-4 0.97,1.07 1.62,2.76 3.31,1.25 2.63,0.04 0.96,3.97 3.56,3.72 1.62,0.4 4.28,1.15 3.63,-1.59 0.15,-2.51 3.33,0.05 4.25,-2.28 2.39,1.02 4.13,-0.89 6.19,-1.31 1.67,-0.64 2.9,-1.73 4.59,-0.28 0.86,1.73 4.44,1.23 3.34,-0.97 2.96,-0.22 3.03,-3.89 6.13,-3.81 1.12,-1.22 2.87,1.17 3.09,-1.13 2.54,-0.93 1.88,-3.3 1.06,-5.25 0.54,-1.73 2.09,-3.22 2.78,-5.09 0.35,-2.33 -3.38,-2.26 -3.56,-4.69 -1.48,-1.57 -3.46,-2.39 -4.84,-4.16 0.27,-1.97 -1.22,-3.82 -0.66,-5.75 1.75,-2.42 -1.83,-2.52 -3.09,-3.34 -1.24,-1.6 -4.57,-1.91 -4.63,-4.75 0.22,-1.3 -0.56,-2.5 -1.47,-2.38 0.77,-0.55 1.41,-1.18 1.19,-2.34 -0.04,-1.75 1.82,-1.78 2.78,-1.88 0.32,-1.93 2.75,0.19 3.94,-1.25 1.92,-0.72 2.67,-2.75 3.47,-4.47 1.07,-1.81 -0.82,-3.57 -1.31,-5.25 -1.54,-0.97 -2.37,-4.41 -4.38,-3.38 -2.46,1.2 -1.22,-2.53 -0.81,-3.63 0.45,-2.38 -5.15,-0.61 -4.47,-3.47 0.63,-1.52 0.3,-3.29 1.16,-4.69 1.66,-1.42 2.02,-3.73 0.13,-5.19 -1.28,-1.29 -2.79,-3.08 -0.72,-4.31 1.13,-1.5 0.53,-3.98 -1.56,-4.13 -2.01,-0.66 -4.04,-1.44 -6.19,-1.44 -2.47,0.62 -5.49,-0.55 -7.47,1.56 -1.52,1.73 -3.77,1.96 -5.91,2.13 -1.97,0.39 -2.97,2.4 -4.34,3.69 -1.65,1.56 1.06,2.55 0.25,4.16 -0.09,2.18 3.53,0.6 2.25,2.91 -1.49,1.45 -3.65,2.15 -4.84,3.94 -0.54,2.24 -3.42,2.72 -5.28,1.91 -1.74,0.51 -3.53,0.76 -5.31,1.16 1.53,-0.7 2.61,-2.7 0.88,-3.75 -0.92,-2.11 2.74,-3.25 4.44,-3.5 3.3,0.13 0.55,-3.33 2.31,-4.84 1.05,-1.66 2.38,-4.09 0.03,-5.38 -1.53,-2.11 -3.81,-0.89 -4.75,1 -1.87,1.05 -2.36,3.28 -3.81,4.66 -1.35,1.27 -3.12,4.03 -5.78,3.22 -1.93,-0.56 -4.98,1.07 -4.41,-2.25 -0.76,-1.18 -2.82,-1.78 -3.59,-2.53 -1.5,1.09 -1.87,3.05 -3.88,3.69 -1.35,2.09 -5.96,0.7 -3.69,-2 -0.13,-1.17 -2.22,0.33 -2.06,-1.72 -0.53,-0.8 -0.76,3.05 -1.06,0.88 -0.55,-1.56 -1.99,-2.97 -1.66,-4.47 -1.69,-0.63 -3.46,-1.38 -2.41,-3.31 -1.67,-0.94 -4.57,-0.63 -4.84,-3.19 -0.77,-2.9 -3.6,-0.35 -5.34,-0.31 -2.42,1.93 -4.07,-2.75 -6.44,-0.84 -0.29,-0.08 -0.47,-0.33 -0.63,-0.56 l -0.06,0 c -0.9,1.57 -0.94,3.47 -1.88,5.03 -0.08,2.19 -1.36,3.9 -1.91,5.91 -0.03,2.1 -1.17,3.91 -1.75,5.88 -0.42,1.81 -1.29,3.5 -1.5,5.34 -2.68,1.49 -2.72,-0.38 -2.84,-0.72 0.16,-1.57 0.9,-3.79 -1.34,-4.03 -1.92,-1 1.76,-1.41 0.19,-2.69 -0.13,-0.32 -0.29,-0.7 -0.66,-0.81 -0.87,0.66 -2.27,-0.18 -2.53,1.44 -0.41,2.16 -2.62,0.68 -2.94,-0.66 -0.67,1.6 -2.76,2.32 -3.66,0.47 -1.26,-0.9 -4.03,-1.29 -3.94,1 -0.13,1.97 -0.37,1.62 -0.41,3.09 0.23,1.74 -0.17,0.14 -0.34,2.72 -2.07,-0.72 -4.56,2.97 -5.94,0.97 1.08,-1.6 -0.62,-0.92 -1.5,-0.97 -1.01,-1.58 -2.12,1.87 -3.66,0.28 -1.85,-2.55 -4.05,0.47 -6.22,0.59 -1.47,-0.6 -1.79,-3.29 -3.91,-2.34 -2.83,-0.53 0.92,-3.71 -1,-4.53 0.05,-0.23 0.04,-0.53 -0.03,-0.84 0.24,-1.13 2.3,-0.38 2.34,-1.72 -0.01,-1.08 1.49,-0.35 2.03,-0.84 -0.47,-0.98 0.14,-2.28 -0.19,-3.38 -0.22,-0.75 -0.56,-1.53 -0.06,-2.25 -0.09,-0.66 0.49,-1.19 0.25,-1.84 0.92,-0.68 0.3,-2.38 -0.78,-2.59 -0.47,-0.05 -0.92,-0.15 -1,-0.69 -0.62,-0.48 -1.87,-0.88 -2.28,0.06 -0.58,0.43 -1.56,-0.09 -1.78,-0.69 0.04,-0.44 0.16,-1.48 -0.59,-1.16 -0.61,-0.09 -0.17,-0.75 -0.47,-1 -0.68,-0.03 -1.23,0.99 -1.91,0.34 -0.7,-0.25 -1.14,-1.12 -1.97,-0.91 -0.71,-0.06 -1.3,-0.89 -0.78,-1.5 0.12,-0.95 0.3,-2.27 -0.5,-2.97 -0.67,-0.08 -0.62,-0.64 -0.38,-1.09 -0.11,-0.87 -0.75,-1.6 -0.97,-2.44 -0.41,-0.57 -1.3,-0.78 -1.38,-1.53 -0.43,-0.32 -0.74,-0.7 -0.75,-1.25 -0.23,-0.42 -0.82,-0.58 -0.66,-1.19 -0.07,-0.72 -0.65,-1.3 -0.66,-2 -0.38,-0.23 -0.96,-0.08 -1.13,-0.63 -0.76,-0.3 -0.78,0.95 -0.41,1.34 0.52,0.51 0.35,1.09 -0.31,1.25 -0.46,0.18 -1.77,-0.09 -1.38,0.78 0.22,0.53 0.67,1.2 -0.06,1.56 -0.45,0.63 -0.72,-0.75 -1.25,-0.16 -0.73,0.55 -1.34,1.36 -1.72,2.13 -0.7,0.19 -2.06,0.04 -1.81,-1 0.28,-0.69 0.27,-1.72 -0.66,-1.88 -0.06,-0.42 -0.07,-1.16 -0.72,-1 -0.6,-0.11 -1.41,-0.34 -1.66,0.44 -0.42,1.36 -2.45,1.83 -3.22,0.53 -0.36,-0.46 -0.41,-1.39 -1.25,-1.22 -0.93,-0.04 -1.4,0.93 -2.19,1.28 -0.52,0.67 -1.44,1.44 -2.28,0.75 -1.65,-0.71 -2.01,-3.05 -3.97,-3.28 -1.62,-0.6 -2.82,-2.07 -3.16,-3.75 -0.68,-0.77 -1.9,-0.51 -2.81,-0.75 z m 91.59,157.03 c 2.48,0.28 2.19,2.93 4.56,3.22 -0.38,1.33 -2.78,1.87 -2.78,3.91 -0.59,3.17 -3.29,0.45 -5.19,1.06 -0.4,-1.03 -0.63,-2.47 -0.56,-3.44 1.53,-1.47 1.25,-3.81 3.69,-4.41 l 0.28,-0.34 z" />
</svg>

