<?xml version="1.0" encoding="utf-8"?>
<svg version="1.1" id="france_regions_2016_domtom" xmlns="http://www.w3.org/2000/svg" xmlns:xlink="http://www.w3.org/1999/xlink" x="0px" y="0px" width="100%" height="100%" viewBox="450 390 170 145">
<path id="Provence-Alpes-Cote-d-Azur" code_insee="93" code_region="" class="state" fill-rule="evenodd" clip-rule="evenodd" fill="steelblue" stroke-width="1" stroke="white" d="m 548,394.72 c -2.38,0.66 0.14,3.66 -2.03,4.59 -1.72,2.79 1.36,4.23 3.66,3.34 2.39,-0.55 0.1,3.64 2.59,4.03 0.47,1.76 0.32,4.2 -0.38,6.03 -1.48,-0.46 -3.08,-2.39 -4.31,-0.34 -2.25,0.76 -5.02,-1.36 -6.72,0.91 -1.11,1.7 -2.56,1.95 -3.88,0.47 -0.55,1.28 -4.21,1.51 -1.84,3.06 -0.94,2.26 -4.25,2.96 -6.38,2.25 -1.23,0.91 -1.36,3.17 -0.59,4.31 -1.22,2.28 -3.09,2.69 -5.5,3.16 -1.63,-1.42 -3.66,-0.25 -2.81,1.75 -0.72,1.97 -3.55,4.8 -0.25,5.88 1.2,0.81 1.12,1.94 -0.28,1.84 -0.36,2.15 -2.09,2.59 -3.75,1.28 -1.52,-0.34 -5.11,-2.61 -4.06,0.56 -0.41,1.39 2.92,2.83 0.38,3.09 -1.92,-1.14 -2.36,0.43 -1.34,1.94 -0.48,1.59 1.38,2.76 2.88,3.31 1.63,-0.31 3.03,1.39 4.88,0.66 1.62,0.26 -0.6,2 1.28,2.59 -1.05,2.29 3.34,0.82 2.17,3.08 0.1,1.26 -0.93,4.3 0.23,4.18 -1.44,0.42 -1.76,2.19 -2.9,0.77 -1.2,-1.89 -3.41,-0.48 -2.34,1.28 -1.15,1.03 -3.24,1.96 -3.59,3.63 -0.25,-0.96 -1.62,-1.18 -2.38,-1.81 -0.01,-2.28 -4,-1.04 -2.94,-3.84 0.24,-2.27 -2.29,-1.23 -3.59,-1.47 -1.07,-0.69 -2.7,-2.08 -3.25,-0.41 -1.82,0.23 -4.44,-0.81 -3.41,-2.94 -1.52,-1.18 1.51,-2.73 0,-3.5 -0.77,1.1 -2.2,2.65 -3.63,1.69 -1.1,-2.3 -2.93,-0.01 -4.5,0.34 -1.39,0.4 -2.62,1.74 -4.19,1.22 -1.3,-0.02 -2.71,3.54 -3.53,1.34 -0.4,-1.69 -0.01,-4.12 -1.78,-5.13 -0.57,-0.28 -1.13,-0.48 -1.78,-0.41 -1.19,0.91 -3.87,-0.8 -3.66,1.44 -0.73,2.05 0.8,3.61 1.06,5.47 -0.11,0.77 2,0.05 1.44,1.41 1.54,2.17 -0.7,4.93 0.41,7.13 0.94,0.88 2.16,-0.09 2.81,1.53 0.92,1.17 1.41,2.61 2.56,3.59 1.05,1.11 0.24,2.15 -1.06,2.19 0.2,1.77 -1.23,3.32 -2.73,3.84 -1.29,2.45 -1.68,0.97 -4.67,4.38 1.41,0.89 -0.84,2.14 0.09,3.63 0.42,2.15 -2.07,3.51 -1.69,5.72 0.86,1.45 -0.17,2.58 -1.63,1.53 -1.97,-1.55 -4.68,-0.42 -5.31,1.69 -1.63,1.04 -2.16,4.13 0.44,3.75 0.06,2.02 -2.9,1.67 -3.34,3.31 -1.75,0.99 -3.64,1.22 -4.5,2.81 -1.75,0.17 -4.98,3.13 -2.06,3.97 2.99,-0.17 5.9,1.41 8.88,0.56 2.1,-0.36 4.56,-0.11 6.16,1.38 1.4,1.7 -2.48,3.85 0.47,4.91 1.67,0.45 3.47,0.17 5.19,0.41 1.54,-0.09 3.75,0.56 4.88,-0.31 0.04,-2.31 -3.27,-2.38 -3.94,-4.38 -0.37,-2.14 0.45,-4.38 -0.31,-6.5 -0.27,-0.91 -2.07,-4.59 -0.28,-2.16 1.58,2.03 1.39,4.68 1.03,7.06 -0.44,2.92 3.28,3.57 4.97,5.19 2.32,-0.03 -1.88,-2.78 1.22,-3.16 1.7,-0.98 3.71,-0.9 5,0.78 2.12,-0.03 4.81,-1.93 3,-4.13 -2.29,-0.91 -1.95,-4.33 -0.97,-5.22 1.18,1.76 4.95,0.12 3.94,3.25 1.13,1.96 3.21,1.18 4.72,0.53 1.52,1.99 -1.57,3.81 -3.03,4.84 -1.9,0.72 -4.26,-0.43 -5.91,1.16 -1.75,1.59 0.46,4.43 2.47,4.22 2.62,-0.1 5.4,0.47 7.91,-0.44 1.54,-1.44 4.7,-1.73 4.94,0.97 -0.14,1.58 -0.17,2.96 0.5,4.25 -1.22,1.5 -0.89,3.6 1.41,3.31 2.25,-0.5 4.61,0.98 6.53,0.16 1.1,1.57 2.76,3.17 4.56,1.5 2.91,-0.26 1.33,-0.92 2.22,0.59 -0.02,1.61 1.89,3.03 3.53,2.53 0.63,0.64 0.56,1.77 1.88,1.59 0.19,0.99 -2.68,1.22 -1.13,2.53 1.43,0.36 3.77,3.21 4.47,0.28 0.46,-1.06 3.11,0.27 1.75,-1.19 -1.19,-0.66 -2.06,-1.92 -0.13,-2.22 1.14,-0.04 1.61,1.68 3.16,1 1.73,-0.39 2.65,1.89 4.53,0.69 2.33,-0.05 2.26,3.12 -0.06,3.09 1.01,0.28 3.45,0.88 4.16,-0.09 -1.41,-0.84 -0.65,-3.02 0.06,-4.19 1.81,-0.51 4.14,-1.09 5.91,0.03 0.9,0.75 1.79,2.99 3.06,1.38 -1.33,-2.25 0.73,-4.1 2.94,-4.34 1.82,-0.15 3.7,-0.23 4.81,-1.91 1.53,-0.99 2.63,0.46 3.19,1.5 1.86,-0.28 1.14,-2.69 3.09,-2.91 -0.25,-0.86 -1.21,-2.01 0.22,-2.75 2,-2.05 -1.75,-2.01 -3,-1.59 -2.62,-0.25 0.69,-1.84 1.75,-1.97 0.92,-0.9 0.58,-2.8 2.41,-3 1.27,-1 0.92,-2.99 1.38,-4.44 1.32,-1.24 3.42,1.1 5.13,-0.25 1.94,-0.35 4.81,-3.07 2.84,-4.69 0.95,0.46 2.28,0.08 1.88,-1.53 0.05,-1.74 2.24,-2.35 3.66,-2.25 1.4,-0.6 3.03,-1.95 4.31,-0.47 0.92,-1.55 -0.14,-3.61 0.66,-5.28 0.47,-2.1 3.38,-1.04 4.03,-3.03 0.72,-1.31 3.11,-1.17 4.22,-0.94 0.41,1.87 1.39,-0.15 1,-1.09 1.14,-0.12 2.61,-0.31 2.25,-2.03 0.47,-1.55 1.97,-1.33 2.75,-0.41 1.62,-0.12 1.33,-2.49 3.22,-2.44 0.12,-1.52 -1.18,-3.11 -1.22,-4.78 -0.33,-2.13 2.96,-2.32 2.78,-4.5 0.2,-2.18 2.79,-2.46 3.91,-4.09 1.16,-1.41 0.76,-3.43 2.5,-4.53 1.68,-1.83 -0.81,-3.39 -1.59,-4.88 0.1,-1.29 0.76,-4.59 -1.66,-3.22 -1.26,1.94 -3.98,1.28 -5.91,2.41 -1.51,0.57 -3.08,1.13 -4.69,1.28 -1.89,0.43 -2.52,-1.59 -4.03,-1.94 -2.04,0.55 -3.04,-1.82 -4.88,-2.31 -1.02,-1.04 -2,-2.12 -3.59,-1.63 -1.13,-0.99 -2.65,-2.58 -4.34,-1.81 -2.02,0.21 -1.92,-2.24 -2.78,-3.34 -1.88,-1.1 -1.6,-3.59 -3.53,-4.66 -0.06,-0.14 -0.21,0.11 -0.25,-1.31 -0.43,-1.8 0.92,-3.38 2.13,-3.88 -1.19,-1.88 -3.78,-3.31 -3.41,-5.91 0.82,-2.4 3.86,-3.29 4.41,-6 0.44,-1.01 0.06,-2.42 -1.06,-2.59 0.65,-0.26 1.29,-0.56 1.81,-1 0.67,-2.95 6.21,1.07 4.19,-2.81 -2.19,-1.97 -1.76,-5.16 -1.75,-7.72 -1.52,-2.46 -4.33,-1.95 -6.63,-1.66 -2.02,-1.18 -4.01,-2.55 -5.81,-4 -0.48,-1.92 0.49,-3.92 -0.22,-5.88 -0.38,-2.63 -4.73,-0.19 -4,-3.66 -0.57,-1.87 -2.47,-5.81 -4.59,-2.97 -1.36,0.43 -3.55,-0.41 -3.06,2 -0.06,2.84 -3.64,0.47 -5.25,0.41 0.16,-2.01 -1.7,-4.09 -3.81,-2.69 -0.55,-0.15 -0.84,-0.68 -1.38,-0.88 z m -59.16,46.06 c -1.34,0.86 -2.93,1.53 -2.88,3.41 -0.68,0.82 -1.64,1.75 -0.5,2.59 -1.2,2.34 2.22,1.85 3.59,2.34 1.48,-0.54 1.63,-2.54 2.38,-3.81 0.79,-0.35 2.98,-1.64 0.84,-1.78 -1.64,-0.52 -1.51,-2.57 -3.44,-2.75 z" />
</svg>
