<?xml version="1.0" encoding="utf-8"?>
<svg version="1.1" id="svgmap" xmlns="http://www.w3.org/2000/svg" xmlns:xlink="http://www.w3.org/1999/xlink" x="0px" y="0px" width="100%" height="100%" viewBox="0 0 500 475">
<polygon points="203,469 197,469 194,475 193,473 188,472 190,467 188,466 183,466 180,463 174,465 170,464 171,462 173,462 173,460 168,460 167,462 163,461 163,458 164,457 163,455 164,455 159,453 159,449 161,447 159,444 160,441 158,440 158,442 156,443 152,445 151,444 151,444 150,444 146,447 143,447 137,442 137,437 133,432 124,435 121,436 118,436 116,433 117,432 118,432 115,430 116,430 115,427 113,422 108,421 105,421 105,419 104,419 105,416 103,417 103,415 97,414 96,412 94,412 93,410 92,410 93,409 90,409 86,407 81,407 81,405 80,404 79,404 78,403 79,402 84,400 85,397 87,396 86,395 90,394 89,392 86,392 86,390 86,388 84,385 80,382 77,381 75,380 80,374 73,373 69,371 64,371 63,370 60,371 55,370 53,369 47,369 44,367 46,365 49,365 53,362 54,361 52,360 52,357 59,361 61,359 57,355 65,356 64,355 69,354 73,350 73,349 63,350 61,347 58,348 60,344 61,344 60,342 61,342 61,339 56,336 58,334 63,334 65,334 64,335 63,335 64,336 67,336 67,335 68,335 69,334 69,337 71,336 70,333 72,332 75,334 74,336 79,336 78,334 81,335 83,332 86,331 90,335 89,336 91,338 93,337 98,335 100,337 106,331 103,330 101,330 103,329 103,326 100,325 99,323 95,323 99,318 108,319 109,320 107,321 109,321 116,322 118,321 119,321 125,324 124,330 122,331 124,332 125,332 126,333 140,331 143,338 141,338 140,344 138,349 139,349 144,349 144,350 144,347 147,345 157,344 158,342 159,342 159,341 162,338 164,338 164,339 167,338 173,335 179,336 178,334 183,329 186,329 193,330 193,328 199,326 203,322 205,324 209,323 210,320 217,315 216,315 220,314 222,312 222,312 223,311 227,310 228,309 230,310 230,311 232,313 235,313 234,313 235,314 234,315 233,317 234,319 237,318 240,317 241,317 240,318 241,319 241,319 242,321 243,322 244,323 244,323 248,324 248,322 253,319 256,315 260,314 259,312 261,312 269,311 268,314 269,314 270,312 271,312 273,317 275,318 274,319 276,319 278,321 274,323 274,324 272,326 274,326 267,327 269,328 268,329 271,331 273,331 279,333 277,335 279,336 285,332 286,334 288,335 287,337 285,337 285,340 289,341 288,343 296,345 297,343 306,344 305,351 305,351 301,352 292,355 288,356 289,357 287,358 285,355 283,353 280,352 269,355 257,354 256,354 255,355 255,358 253,358 251,360 252,362 247,366 249,368 252,366 255,371 259,379 262,381 260,384 256,385 252,384 250,384 248,388 244,389 243,389 242,397 243,399 253,399 254,398 260,397 264,398 267,395 270,398 272,398 276,404 278,405 277,407 273,410 263,411 256,419 258,419 255,425 251,425 249,426 248,425 244,427 248,430 247,431 249,434 245,433 238,435 237,441 238,441 237,443 234,446 232,444 228,446 227,444 225,445 221,446 220,446 217,449 212,454 210,462 205,463 202,463 204,467 203,469" id="21" class="arrondissement" fill="steelblue" stroke-width="1" stroke="white" geotype="arrondissement" geoname="CHATEAU-THIERRY" code_insee="21" code_departement="2" code_region_2015="22"/><polygon points="76,237 66,234 58,232 57,229 64,227 63,222 61,221 57,218 55,217 53,212 62,211 64,212 66,209 65,203 67,202 65,199 68,196 65,194 65,191 70,190 69,189 67,185 68,185 64,182 65,181 63,180 59,177 58,175 56,175 52,172 53,172 60,169 58,167 60,166 57,162 53,161 54,159 58,158 58,156 61,155 63,158 65,157 65,154 64,151 60,149 63,147 65,144 62,140 63,140 66,140 67,144 70,143 69,141 70,141 71,143 73,144 73,145 72,146 71,149 79,148 79,149 80,149 81,147 82,148 83,150 85,151 89,150 94,150 94,147 97,143 99,143 97,139 98,139 103,139 102,143 103,143 105,142 110,143 111,142 114,144 119,139 122,141 124,140 128,142 128,141 132,139 134,139 135,141 132,142 138,144 139,143 140,143 141,142 152,142 158,141 157,141 161,141 159,139 167,137 169,137 172,137 171,136 177,135 177,135 179,134 181,136 182,137 186,137 187,137 189,134 194,133 195,132 198,133 200,132 200,130 202,130 201,129 204,128 207,129 210,131 214,129 220,132 219,133 222,134 221,135 223,135 223,137 231,137 232,135 238,132 238,132 241,131 244,129 246,130 246,127 250,124 253,125 260,125 262,125 262,122 266,121 265,119 265,118 267,117 267,116 265,114 266,113 266,111 268,111 272,109 280,110 282,114 283,112 287,113 287,111 291,111 297,115 300,115 308,117 309,116 312,113 316,111 319,113 322,114 322,116 324,117 324,119 328,120 333,120 334,121 341,118 345,118 354,119 353,120 359,120 361,121 362,119 365,119 367,123 369,121 382,122 386,124 388,125 396,119 409,119 413,110 421,107 427,108 428,109 425,111 419,113 422,115 426,116 430,116 434,118 435,119 435,118 437,117 436,113 438,113 436,112 442,112 443,113 446,113 449,112 450,113 453,112 461,112 464,112 468,109 470,110 476,109 482,111 481,112 484,115 490,114 491,116 495,116 495,118 498,120 491,124 489,127 489,130 491,131 488,132 480,134 475,136 476,138 474,139 473,142 473,143 465,144 460,146 456,147 459,151 457,151 455,151 454,152 450,151 448,158 450,161 447,165 446,168 444,168 444,169 443,168 441,168 440,170 435,169 435,170 433,168 429,167 428,166 425,167 422,167 423,168 421,168 420,166 417,166 417,168 418,169 416,170 416,172 411,172 414,175 420,181 422,181 422,183 425,182 427,183 426,184 424,184 424,185 425,185 425,186 424,190 426,191 427,191 426,192 429,191 431,192 430,194 427,195 426,196 426,196 424,199 421,200 420,202 430,203 431,208 430,211 431,212 429,213 427,210 423,211 425,214 423,215 424,216 417,216 417,221 417,225 417,227 417,232 420,232 423,235 424,238 425,238 428,241 425,240 422,241 420,240 416,243 418,248 418,251 420,251 421,253 420,256 417,259 416,264 415,273 408,273 408,274 406,274 404,270 402,270 401,269 400,269 400,266 396,266 387,267 384,264 379,262 376,258 375,258 376,257 373,255 369,257 369,258 367,260 361,261 355,263 347,265 346,265 347,268 346,270 345,271 346,272 343,272 347,276 346,277 347,278 345,279 337,277 334,276 334,274 325,274 322,275 317,276 316,275 310,277 310,277 308,278 304,278 302,278 301,278 299,273 296,271 296,270 292,271 285,268 284,266 283,266 283,267 280,267 280,264 278,264 277,262 273,260 269,260 270,262 268,262 264,262 260,259 256,259 257,256 254,253 256,252 254,250 256,248 251,249 246,247 246,249 243,246 241,242 242,241 238,240 235,240 235,239 237,237 237,233 229,232 228,228 226,227 224,223 226,221 223,219 218,219 215,220 214,220 213,220 210,219 207,220 207,222 196,230 190,230 185,228 184,232 181,233 180,235 178,235 177,235 172,234 171,234 169,233 167,234 168,233 166,233 166,234 162,233 161,234 159,237 150,236 149,236 149,236 141,233 134,231 127,233 127,231 127,228 118,227 116,227 115,226 113,223 108,224 106,226 103,226 103,228 99,227 98,227 86,225 85,227 82,230 82,231 80,235 78,235 76,237" id="22" class="arrondissement" fill="steelblue" stroke-width="1" stroke="white" geotype="arrondissement" geoname="LAON" code_insee="22" code_departement="2" code_region_2015="22"/><polygon points="83,22 87,22 92,20 92,21 101,16 102,17 104,14 105,14 107,16 110,15 111,16 116,17 116,14 118,15 121,15 123,18 122,19 123,21 126,21 126,21 132,20 135,19 142,21 146,20 148,17 151,16 151,14 152,13 162,13 164,15 167,15 170,13 176,17 178,16 181,17 181,18 188,18 205,19 204,21 211,25 211,29 213,33 214,33 219,31 221,32 224,34 221,40 220,41 215,42 214,39 213,39 213,39 211,40 212,43 211,43 211,45 209,45 209,45 207,45 208,45 207,45 207,47 206,47 207,48 206,48 207,49 206,49 205,48 204,48 201,50 203,52 205,52 207,55 209,55 209,57 211,57 210,61 214,62 214,62 212,63 208,64 206,67 204,67 204,68 201,68 198,66 195,67 196,69 193,71 189,74 188,76 191,77 192,77 196,80 200,79 205,82 207,82 209,82 212,81 214,80 214,79 215,79 216,78 221,76 222,78 224,79 226,79 228,82 232,83 233,84 233,85 237,87 238,87 236,90 240,90 240,91 245,95 241,95 243,97 240,102 242,102 242,103 245,103 244,105 248,106 246,109 244,113 246,114 248,117 251,118 252,117 254,119 259,117 261,119 260,120 262,122 262,125 260,125 253,125 250,124 246,127 246,130 244,129 241,131 238,132 238,132 232,135 231,137 223,137 223,135 221,135 222,134 219,133 220,132 214,129 210,131 207,129 204,128 201,129 202,130 200,130 200,132 198,133 195,132 194,133 189,134 187,137 186,137 182,137 181,136 179,134 177,135 177,135 171,136 172,137 169,137 167,137 159,139 161,141 157,141 158,141 152,142 141,142 140,143 139,143 138,144 132,142 135,141 134,139 132,139 128,141 128,142 124,140 122,141 119,139 114,144 111,142 110,143 105,142 103,143 102,143 103,139 98,139 97,139 99,143 97,143 94,147 94,150 89,150 85,151 83,150 82,148 81,147 80,149 79,149 79,148 71,149 72,146 73,145 73,144 71,143 70,141 69,141 70,143 67,144 66,140 63,140 64,139 62,137 62,135 60,134 60,132 57,131 55,129 54,124 52,123 53,121 52,120 55,117 52,117 47,117 46,117 41,115 42,113 40,111 42,110 44,110 44,108 46,108 49,107 48,105 50,102 47,100 46,99 49,97 48,96 47,95 40,96 39,93 38,91 42,91 42,90 44,89 46,89 49,88 49,86 47,79 43,76 45,74 45,74 48,74 49,76 48,78 50,79 50,77 51,78 52,77 58,75 62,72 63,70 61,69 61,67 63,65 64,65 62,64 63,63 60,62 63,62 61,60 64,58 63,56 65,56 67,53 69,53 69,51 71,51 74,49 80,47 80,46 78,46 78,45 81,42 79,41 79,40 82,39 86,37 87,36 90,36 94,32 92,32 92,32 90,31 84,32 83,32 83,31 80,32 81,31 80,31 80,31 82,30 81,29 80,31 76,30 80,27 80,25 82,23 83,22" id="23" class="arrondissement" fill="steelblue" stroke-width="1" stroke="white" geotype="arrondissement" geoname="SAINT-QUENTIN" code_insee="23" code_departement="2" code_region_2015="22"/><polygon points="3,288 4,286 6,286 14,284 17,281 21,282 24,282 24,284 29,284 30,287 33,285 33,284 35,282 40,281 40,279 43,278 45,278 46,275 46,269 47,268 50,267 51,267 53,267 51,259 53,259 54,254 52,250 52,248 52,245 55,243 59,243 64,246 72,245 80,242 78,241 80,240 76,237 78,235 80,235 82,231 82,230 85,227 86,225 98,227 99,227 103,228 103,226 106,226 108,224 113,223 115,226 116,227 118,227 127,228 127,231 127,233 134,231 141,233 149,236 149,236 150,236 159,237 161,234 162,233 166,234 166,233 168,233 167,234 169,233 171,234 172,234 177,235 178,235 180,235 181,233 184,232 185,228 190,230 196,230 207,222 207,220 210,219 213,220 214,220 215,220 218,219 223,219 226,221 224,223 226,227 228,228 229,232 237,233 237,237 235,239 235,240 238,240 242,241 241,242 243,246 246,249 246,247 251,249 256,248 254,250 256,252 254,253 257,256 256,259 260,259 264,262 268,262 270,262 269,260 273,260 277,262 278,264 280,264 280,267 283,267 283,266 284,266 285,268 292,271 296,270 296,271 299,273 301,278 302,278 302,282 300,283 291,283 286,284 283,285 281,286 277,287 274,287 272,289 266,290 264,291 264,295 262,296 264,298 269,300 270,301 268,303 268,305 272,308 270,309 269,311 261,312 259,312 260,314 256,315 253,319 248,322 248,324 244,323 244,323 243,322 242,321 241,319 241,319 240,318 241,317 240,317 237,318 234,319 233,317 234,315 235,314 234,313 235,313 232,313 230,311 230,310 228,309 227,310 223,311 222,312 222,312 220,314 216,315 217,315 210,320 209,323 205,324 203,322 199,326 193,328 193,330 186,329 183,329 178,334 179,336 173,335 167,338 164,339 164,338 162,338 159,341 159,342 158,342 157,344 147,345 144,347 144,350 144,349 139,349 138,349 140,344 141,338 143,338 140,331 126,333 125,332 124,332 122,331 124,330 125,324 119,321 118,321 116,322 109,321 107,321 109,320 108,319 99,318 95,323 99,323 100,325 103,326 103,329 101,330 103,330 106,331 100,337 98,335 93,337 91,338 89,336 90,335 86,331 83,332 81,335 78,334 79,336 74,336 75,334 72,332 70,333 71,336 69,337 69,334 68,335 67,335 67,336 64,336 63,335 64,335 65,334 63,334 58,334 56,336 53,337 55,338 51,340 52,340 51,344 49,345 50,350 55,352 52,352 48,349 47,345 50,340 47,340 49,339 48,338 49,338 45,336 41,338 38,336 38,334 42,333 36,332 36,332 35,332 34,331 32,331 32,333 31,333 30,333 30,333 29,331 28,330 23,328 17,329 14,331 17,333 17,333 17,334 16,335 15,335 15,335 15,335 16,335 16,337 18,337 18,338 17,338 17,340 18,340 18,340 18,340 18,341 20,341 20,341 21,341 21,340 22,340 23,339 26,338 27,339 26,339 27,340 26,340 27,340 28,341 30,341 30,344 31,345 30,346 31,347 28,346 28,346 26,347 25,346 23,344 22,342 18,342 17,341 15,340 15,339 15,339 14,339 14,338 13,337 13,337 12,338 12,339 12,340 11,339 10,341 9,341 5,340 4,339 5,338 4,338 4,337 6,336 5,335 5,334 3,334 4,333 3,333 5,332 5,332 5,331 5,329 4,329 4,329 2,328 3,327 1,326 0,325 0,324 2,323 2,323 3,322 4,322 4,323 4,323 7,323 11,321 13,322 13,321 17,321 23,323 21,324 19,326 18,326 18,327 18,327 18,326 22,326 22,327 23,328 23,327 24,328 25,329 26,328 25,327 26,327 26,327 29,327 28,326 28,325 29,325 28,325 29,325 29,326 30,326 32,325 31,324 31,324 32,323 32,323 32,323 30,322 30,321 30,321 29,320 29,318 29,318 28,314 26,312 28,309 27,309 27,307 27,306 30,305 30,301 27,301 27,300 24,304 21,303 24,300 21,301 21,300 18,299 15,302 11,301 14,298 14,297 12,298 11,296 9,297 10,296 7,297 7,296 5,295 4,294 6,295 8,294 7,293 9,292 6,292 5,290 3,288" id="24" class="arrondissement" fill="steelblue" stroke-width="1" stroke="white" geotype="arrondissement" geoname="SOISSONS" code_insee="24" code_departement="2" code_region_2015="22"/><polygon points="205,19 210,16 211,14 212,13 219,13 220,12 221,9 226,9 225,5 231,6 235,6 240,9 246,10 249,13 251,15 253,17 257,15 259,15 260,13 263,12 269,14 270,15 271,12 266,10 269,10 270,8 272,6 276,5 290,1 292,0 294,2 300,4 304,6 315,7 315,8 316,9 324,8 330,12 330,12 339,8 343,12 351,12 355,14 353,15 358,15 357,16 355,16 359,18 358,19 358,23 360,23 361,21 368,19 372,17 374,17 382,15 382,16 390,12 391,13 395,10 397,11 400,16 394,26 394,29 404,28 406,32 410,32 410,33 414,34 415,32 422,32 432,35 434,35 434,38 441,37 442,38 446,36 448,37 456,35 460,37 468,36 470,38 478,39 477,43 478,44 481,43 485,43 488,42 491,43 491,44 490,47 486,51 485,60 487,61 491,62 492,64 496,64 500,64 498,69 499,70 498,79 497,82 496,84 491,85 490,90 488,91 485,99 484,101 487,102 486,104 489,106 487,109 482,111 476,109 470,110 468,109 464,112 461,112 453,112 450,113 449,112 446,113 443,113 442,112 436,112 438,113 436,113 437,117 435,118 435,119 434,118 430,116 426,116 422,115 419,113 425,111 428,109 427,108 421,107 413,110 409,119 396,119 388,125 386,124 382,122 369,121 367,123 365,119 362,119 361,121 359,120 353,120 354,119 345,118 341,118 334,121 333,120 328,120 324,119 324,117 322,116 322,114 319,113 316,111 312,113 309,116 308,117 300,115 297,115 291,111 287,111 287,113 283,112 282,114 280,110 272,109 268,111 266,111 266,113 265,114 267,116 267,117 265,118 265,119 266,121 262,122 260,120 261,119 259,117 254,119 252,117 251,118 248,117 246,114 244,113 246,109 248,106 244,105 245,103 242,103 242,102 240,102 243,97 241,95 245,95 240,91 240,90 236,90 238,87 237,87 233,85 233,84 232,83 228,82 226,79 224,79 222,78 221,76 216,78 215,79 214,79 214,80 212,81 209,82 207,82 205,82 200,79 196,80 192,77 191,77 188,76 189,74 193,71 196,69 195,67 198,66 201,68 204,68 204,67 206,67 208,64 212,63 214,62 214,62 210,61 211,57 209,57 209,55 207,55 205,52 203,52 201,50 204,48 205,48 206,49 207,49 206,48 207,48 206,47 207,47 207,45 208,45 207,45 209,45 209,45 211,45 211,43 212,43 211,40 213,39 213,39 214,39 215,42 220,41 221,40 224,34 221,32 219,31 214,33 213,33 211,29 211,25 204,21 205,19" id="25" class="arrondissement" fill="steelblue" stroke-width="1" stroke="white" geotype="arrondissement" geoname="VERVINS" code_insee="25" code_departement="2" code_region_2015="22"/></svg>