<?xml version="1.0" encoding="utf-8"?>
<svg version="1.1" id="svgmap" xmlns="http://www.w3.org/2000/svg" xmlns:xlink="http://www.w3.org/1999/xlink" x="0px" y="0px" width="100%" height="100%" viewBox="0 0 500 426">
<polygon points="74,304 76,305 80,302 82,303 83,301 88,301 90,295 94,296 100,295 101,298 103,298 114,297 117,296 117,294 119,291 126,290 129,303 134,304 135,301 145,302 145,308 148,314 154,311 154,310 152,308 156,309 160,307 160,314 162,316 167,316 170,319 176,319 178,315 179,317 181,316 183,318 185,316 188,315 187,314 189,312 186,310 189,305 187,302 191,300 194,300 195,299 194,294 190,296 183,296 184,292 182,291 180,288 183,288 185,286 189,286 192,278 198,282 203,276 210,275 218,268 223,267 223,265 226,267 227,266 230,266 232,267 233,263 234,265 239,267 240,265 245,265 249,263 252,263 256,265 253,270 265,275 272,276 273,274 289,272 296,274 301,276 307,275 311,272 317,272 326,266 333,266 336,263 344,266 347,266 372,270 381,270 382,273 388,271 390,270 398,275 404,274 406,274 411,275 423,280 425,280 431,285 446,287 444,290 457,298 459,303 465,308 464,309 468,312 469,315 473,315 477,317 476,321 476,319 474,320 473,324 463,330 464,332 470,336 472,340 468,344 474,349 476,349 475,348 479,347 486,349 489,353 487,357 485,356 484,358 482,357 478,359 479,357 474,362 474,366 477,370 476,373 475,374 470,384 471,385 477,384 478,386 480,385 482,388 479,388 481,388 480,391 483,392 482,394 484,394 484,396 487,394 489,396 488,399 477,396 467,391 463,390 463,392 466,396 465,401 462,402 457,401 456,408 453,406 449,408 439,416 439,418 433,415 430,416 426,413 421,414 418,413 413,413 412,415 408,417 401,418 394,414 389,410 388,409 385,411 383,409 383,406 380,406 376,403 372,403 366,399 358,399 350,396 345,390 338,388 337,389 339,392 332,395 329,391 322,393 320,400 317,405 323,406 325,407 330,408 322,411 320,421 317,422 314,421 306,423 303,422 289,420 286,420 277,424 276,426 274,421 266,421 257,418 245,419 238,417 230,418 225,416 222,414 221,408 216,405 211,404 208,400 204,401 203,397 193,396 193,392 191,391 190,388 186,388 187,386 185,385 185,383 187,382 186,381 179,381 174,380 166,381 160,379 152,379 151,382 140,381 127,386 120,387 109,387 109,385 113,384 117,379 120,375 119,371 122,369 122,367 119,367 106,362 104,362 102,357 101,358 97,359 88,360 86,357 87,353 85,346 80,344 77,350 70,352 68,351 71,342 69,340 74,338 75,336 85,328 83,325 81,326 80,323 85,317 81,316 75,318 75,316 71,309 74,304" id="481" class="arrondissement" fill="steelblue" stroke-width="1" stroke="white" geotype="arrondissement" geoname="FLORAC" code_insee="481" code_departement="48" code_region_2015="91"/><polygon points="446,287 431,285 425,280 423,280 411,275 406,274 404,274 398,275 390,270 388,271 382,273 381,270 372,270 347,266 344,266 336,263 333,266 326,266 317,272 311,272 307,275 301,276 296,274 289,272 273,274 272,276 265,275 253,270 256,265 252,263 249,263 245,265 240,265 239,267 234,265 233,263 232,267 230,266 227,266 226,267 223,265 223,267 218,268 210,275 203,276 198,282 192,278 189,286 185,286 183,288 180,288 182,291 184,292 183,296 190,296 194,294 195,299 194,300 191,300 187,302 189,305 186,310 189,312 187,314 188,315 185,316 183,318 181,316 179,317 178,315 176,319 170,319 167,316 162,316 160,314 160,307 156,309 152,308 154,310 154,311 148,314 145,308 145,302 135,301 134,304 129,303 126,290 119,291 117,294 117,296 114,297 103,298 101,298 100,295 94,296 90,295 88,301 83,301 82,303 80,302 76,305 74,304 68,302 69,298 70,293 67,291 68,289 78,287 76,279 76,278 71,276 72,275 72,273 79,270 79,266 75,263 76,261 76,255 71,254 66,247 58,243 49,237 46,237 42,233 47,226 46,225 45,218 50,205 46,200 46,198 41,196 38,194 34,190 27,187 24,185 18,180 15,174 0,163 2,160 0,160 1,157 8,148 9,141 13,139 17,129 20,129 22,127 28,128 26,121 22,121 23,119 24,111 27,107 29,106 33,105 30,100 33,96 34,94 31,88 32,85 36,82 40,77 47,74 45,74 44,68 50,70 55,70 58,70 57,66 58,65 56,64 57,62 56,62 55,60 60,54 63,54 59,52 59,49 62,48 60,45 59,44 64,43 66,40 67,42 70,42 68,40 72,36 79,36 83,40 88,45 90,48 89,50 94,51 98,55 101,56 103,56 103,52 107,50 112,51 120,46 121,44 126,44 120,39 120,32 132,29 129,24 131,23 128,20 132,20 131,18 135,17 141,17 138,19 138,22 143,24 149,24 156,18 160,17 162,19 164,17 164,16 175,10 183,10 187,2 192,0 191,3 194,6 192,6 192,8 201,12 204,8 208,9 212,15 213,23 212,30 215,33 214,34 215,39 223,47 224,58 226,60 234,67 233,72 237,73 244,82 249,83 254,77 258,75 274,73 285,74 284,70 289,69 292,69 294,74 295,74 299,73 299,70 297,68 301,66 299,64 303,57 301,49 308,47 311,50 318,47 320,48 326,48 329,50 330,49 334,52 336,57 340,60 338,63 339,65 332,69 336,72 345,72 348,71 352,71 353,68 358,68 364,71 367,70 371,70 371,67 375,68 376,72 379,73 378,75 383,79 384,82 382,84 385,86 388,85 390,86 389,88 392,87 402,93 404,95 404,101 406,102 408,103 408,102 410,102 412,100 418,98 423,100 423,103 417,109 420,111 420,112 426,113 427,113 429,113 430,113 432,113 433,114 435,114 437,116 440,116 440,117 441,120 439,120 439,121 438,120 437,122 435,122 433,126 434,127 433,130 434,130 435,131 437,131 438,132 438,133 435,134 437,135 437,137 444,137 444,139 440,141 437,146 438,148 441,148 441,151 444,153 443,156 444,157 447,157 449,160 451,163 449,164 448,178 454,179 455,181 453,186 454,189 460,191 459,194 463,199 466,200 470,198 476,198 479,201 481,208 481,209 484,214 483,215 486,217 487,221 490,223 489,226 492,226 495,232 493,238 494,238 494,245 497,250 499,251 500,254 494,261 489,262 490,264 486,268 488,270 487,270 480,278 476,277 476,281 477,282 476,283 474,284 465,280 460,281 456,282 452,287 450,289 446,287" id="482" class="arrondissement" fill="steelblue" stroke-width="1" stroke="white" geotype="arrondissement" geoname="MENDE" code_insee="482" code_departement="48" code_region_2015="91"/></svg>