<?xml version="1.0" encoding="utf-8"?>
<svg version="1.1" id="svgmap" xmlns="http://www.w3.org/2000/svg" xmlns:xlink="http://www.w3.org/1999/xlink" x="0px" y="0px" width="100%" height="100%" viewBox="0 0 500 271">
<polygon points="244,96 246,92 247,89 249,88 250,89 251,88 253,88 253,88 260,88 260,88 267,85 265,83 275,77 283,82 284,82 284,81 298,77 296,72 300,71 307,72 308,69 313,70 312,68 314,67 323,66 322,63 328,61 331,61 330,59 331,53 330,49 331,49 330,45 332,45 333,39 339,38 339,39 341,38 342,42 342,46 345,51 352,58 362,56 363,57 362,57 362,58 363,58 365,62 369,61 369,62 373,61 374,62 375,62 377,61 377,62 378,62 379,63 381,63 382,65 380,68 374,73 370,75 370,76 370,77 371,77 371,78 375,77 372,84 371,85 371,88 374,88 375,91 375,92 370,91 370,92 372,92 368,94 370,96 367,97 366,96 362,98 361,97 358,97 354,97 353,96 349,96 355,115 353,114 356,118 359,117 358,117 364,116 368,121 370,121 372,123 378,120 380,121 383,120 386,121 389,127 391,133 392,133 395,135 399,136 396,137 400,146 400,146 400,148 399,148 394,153 396,157 397,158 394,159 393,160 390,161 382,163 375,166 370,168 365,168 361,166 360,165 358,166 357,163 350,166 348,165 347,166 342,170 336,172 336,172 336,173 335,174 335,175 335,174 336,176 337,180 336,181 323,185 320,184 311,187 312,189 316,188 319,193 313,196 306,197 307,195 300,198 299,198 299,197 296,198 296,197 291,199 292,201 289,202 286,198 287,197 284,197 283,196 283,195 286,194 282,190 286,189 278,184 278,184 274,185 275,186 272,187 269,184 265,188 266,187 254,192 254,192 253,192 251,192 251,192 251,191 249,190 245,192 244,192 241,192 236,189 238,189 234,186 232,187 226,183 223,181 216,183 214,182 214,183 210,181 208,181 206,180 201,181 197,183 196,183 196,184 188,188 185,189 184,187 176,190 170,183 171,183 171,182 165,182 165,181 162,180 156,180 154,180 153,181 150,181 150,179 154,178 153,177 144,172 144,170 140,170 140,169 145,166 144,165 146,165 147,166 149,165 152,166 155,165 153,163 152,163 151,163 152,163 149,160 149,157 147,158 147,156 145,156 138,150 138,148 138,146 140,146 144,147 147,149 148,147 143,146 144,145 150,148 159,146 164,147 165,147 166,148 167,147 170,148 172,146 174,147 175,146 178,147 180,145 182,146 182,145 190,146 193,146 194,144 194,143 195,143 196,144 198,143 207,141 205,140 204,138 210,135 206,132 207,132 210,131 215,130 217,128 214,124 216,124 215,116 215,116 218,116 219,115 232,115 233,115 234,113 230,113 233,106 235,104 235,103 237,104 239,103 246,97 244,96" id="511" class="arrondissement" fill="steelblue" stroke-width="1" stroke="white" geotype="arrondissement" geoname="CHALONS-EN-CHAMPAGNE" code_insee="511" code_departement="51" code_region_2015="21"/><polygon points="49,239 43,236 38,236 37,234 42,231 36,232 29,231 24,234 17,235 20,229 14,226 15,225 14,224 18,220 21,219 23,219 23,216 25,216 21,213 22,212 22,208 21,206 22,204 22,203 17,204 17,204 13,203 12,199 10,197 8,199 6,199 4,199 1,198 0,197 4,190 9,189 10,191 13,189 14,190 14,188 13,185 14,184 8,185 7,183 4,184 3,182 6,179 11,181 16,181 20,180 19,179 22,178 24,179 26,181 28,180 27,177 29,174 27,169 28,167 26,165 29,164 33,163 34,157 38,153 40,150 42,151 45,150 46,149 47,150 50,149 51,151 54,149 55,147 54,147 54,142 60,141 63,141 62,139 63,138 59,136 62,134 64,135 65,134 68,134 70,130 69,129 74,123 82,122 86,120 86,118 85,117 81,113 80,113 77,111 75,113 72,112 67,113 67,114 58,114 58,112 59,106 59,106 63,105 64,102 66,102 69,102 72,102 74,99 72,98 68,91 66,88 63,89 62,87 66,85 65,83 67,82 68,82 68,79 73,80 73,81 75,81 75,82 76,83 76,84 78,84 78,85 75,89 77,89 81,88 81,89 84,90 86,88 88,90 90,89 90,91 94,92 94,93 96,95 100,94 102,95 104,96 114,99 117,99 119,99 121,99 124,101 128,102 135,101 130,100 130,96 133,95 132,94 136,92 140,90 140,90 141,90 141,89 144,89 150,89 154,89 158,88 160,89 162,91 163,93 165,92 166,90 170,91 170,89 169,89 171,86 174,87 176,87 179,87 181,85 185,86 185,85 183,84 184,82 185,83 186,81 187,81 191,83 193,81 195,82 195,82 198,81 200,83 200,85 202,86 202,89 206,92 207,92 208,91 213,91 213,89 215,88 214,85 213,84 214,83 213,82 213,81 215,83 217,84 219,83 219,84 218,85 219,86 221,85 224,87 225,87 226,86 229,88 230,87 232,90 235,91 235,93 239,95 240,95 241,96 243,95 244,96 246,97 239,103 237,104 235,103 235,104 233,106 230,113 234,113 233,115 232,115 219,115 218,116 215,116 215,116 216,124 214,124 217,128 215,130 210,131 207,132 206,132 210,135 204,138 205,140 207,141 198,143 196,144 195,143 194,143 194,144 193,146 190,146 182,145 182,146 180,145 178,147 175,146 174,147 172,146 170,148 167,147 166,148 165,147 164,147 159,146 150,148 144,145 143,146 148,147 147,149 144,147 140,146 138,146 138,148 138,150 145,156 147,156 147,158 149,157 149,160 152,163 151,163 152,163 153,163 155,165 152,166 149,165 147,166 146,165 144,165 145,166 140,169 140,170 144,170 144,172 153,177 154,178 150,179 150,181 153,181 154,180 156,180 162,180 165,181 165,182 171,182 171,183 170,183 176,190 184,187 185,189 188,188 196,184 196,183 197,183 201,181 206,180 208,181 210,181 214,183 214,182 216,183 223,181 226,183 232,187 234,186 238,189 236,189 241,192 244,192 245,192 249,190 251,191 251,192 251,192 253,192 250,194 250,193 249,194 246,194 239,200 240,201 238,204 234,208 233,212 232,214 227,216 224,219 211,216 208,215 206,216 203,221 205,221 205,222 202,225 200,225 197,227 195,227 193,227 191,227 184,226 179,229 177,236 177,237 178,237 177,238 175,237 174,236 173,237 170,239 168,244 158,243 158,245 157,245 156,245 156,248 152,252 154,252 153,253 151,253 150,252 149,252 148,252 148,253 147,252 145,252 145,251 143,252 139,252 140,254 142,254 143,255 142,255 142,257 141,258 141,263 143,263 143,264 139,269 135,269 133,271 131,271 125,269 123,269 123,269 124,268 122,268 122,267 122,268 121,267 119,267 117,268 117,267 115,267 113,268 113,267 110,266 105,266 105,265 104,265 104,264 102,265 95,265 94,266 89,264 87,265 86,264 82,265 81,265 80,265 79,264 78,265 77,264 75,265 76,264 74,264 72,263 72,261 71,257 72,255 72,254 69,252 67,252 64,253 63,254 63,252 60,249 57,250 56,244 50,245 51,242 50,240 49,239" id="512" class="arrondissement" fill="steelblue" stroke-width="1" stroke="white" geotype="arrondissement" geoname="EPERNAY" code_insee="512" code_departement="51" code_region_2015="21"/><polygon points="244,96 243,95 241,96 240,95 239,95 235,93 235,91 232,90 230,87 229,88 226,86 225,87 224,87 221,85 219,86 218,85 219,84 219,83 217,84 215,83 213,81 213,82 214,83 213,84 214,85 215,88 213,89 213,91 208,91 207,92 206,92 202,89 202,86 200,85 200,83 198,81 195,82 195,82 193,81 191,83 187,81 186,81 185,83 184,82 183,84 185,85 185,86 181,85 179,87 176,87 174,87 171,86 169,89 170,89 170,91 166,90 165,92 163,93 162,91 160,89 158,88 154,89 150,89 144,89 141,89 141,90 140,90 140,90 136,92 132,94 133,95 130,96 130,100 135,101 128,102 124,101 121,99 119,99 117,99 114,99 104,96 102,95 100,94 96,95 94,93 94,92 90,91 90,89 88,90 86,88 84,90 81,89 81,88 77,89 75,89 78,85 78,84 76,84 76,83 75,82 75,81 73,81 73,80 68,79 69,78 70,78 79,79 87,77 90,77 92,79 93,81 95,80 94,80 98,79 104,76 107,76 107,76 108,70 102,70 100,71 94,69 95,67 92,67 91,65 93,65 94,63 93,63 92,61 87,64 85,63 87,61 82,60 81,60 78,59 79,57 78,57 83,56 82,56 83,55 83,53 86,52 85,51 83,51 83,50 82,49 80,45 80,45 79,46 78,47 79,44 80,43 82,42 78,39 78,38 80,37 79,35 75,34 74,32 75,32 75,29 77,28 82,27 83,25 85,25 89,24 90,24 92,23 96,22 103,22 106,21 105,18 106,18 110,18 111,17 112,17 116,16 117,17 121,15 123,15 130,15 130,16 133,17 139,19 140,18 140,17 141,16 137,13 140,13 139,13 140,12 141,10 140,8 141,8 147,7 152,4 156,4 158,2 158,1 161,0 164,2 163,2 164,3 166,6 170,7 172,9 180,9 182,9 183,11 183,11 184,12 186,11 188,15 189,15 189,14 195,14 195,7 196,3 198,1 206,1 206,1 208,2 209,2 216,2 219,2 224,2 228,1 231,2 234,2 242,2 241,3 245,7 249,6 251,7 253,7 256,8 257,8 258,8 259,8 259,9 262,11 261,13 265,14 268,17 270,16 271,17 273,16 273,17 271,18 272,18 277,25 279,24 286,25 289,26 288,28 288,28 289,27 291,28 294,26 298,25 298,26 297,26 303,33 302,33 303,33 304,35 306,35 308,36 308,37 310,36 312,39 317,39 319,41 320,41 322,40 331,39 333,39 332,45 330,45 331,49 330,49 331,53 330,59 331,61 328,61 322,63 323,66 314,67 312,68 313,70 308,69 307,72 300,71 296,72 298,77 284,81 284,82 283,82 275,77 265,83 267,85 260,88 260,88 253,88 253,88 251,88 250,89 249,88 247,89 246,92 244,96" id="513" class="arrondissement" fill="steelblue" stroke-width="1" stroke="white" geotype="arrondissement" geoname="REIMS" code_insee="513" code_departement="51" code_region_2015="21"/><polygon points="387,266 386,264 384,264 382,265 381,263 378,263 377,262 377,260 379,260 379,260 375,259 372,260 370,260 364,260 363,261 360,261 358,261 353,263 352,265 350,265 350,268 347,267 344,267 344,264 342,264 342,262 340,262 339,261 334,264 329,262 328,262 327,262 325,261 314,260 313,259 305,256 290,247 290,246 284,245 280,241 285,236 284,234 282,233 282,232 280,230 284,228 282,227 282,226 285,224 285,223 284,221 282,221 282,220 283,220 283,218 282,218 284,217 283,216 279,212 277,212 275,211 270,212 267,212 264,213 260,212 258,210 255,214 250,214 249,214 247,214 244,214 238,213 235,213 234,213 232,214 233,212 234,208 238,204 240,201 239,200 246,194 249,194 250,193 250,194 253,192 254,192 254,192 266,187 265,188 269,184 272,187 275,186 274,185 278,184 278,184 286,189 282,190 286,194 283,195 283,196 284,197 287,197 286,198 289,202 292,201 291,199 296,197 296,198 299,197 299,198 300,198 307,195 306,197 313,196 319,193 316,188 312,189 311,187 320,184 323,185 336,181 337,180 336,176 335,174 335,175 335,174 336,173 336,172 336,172 342,170 347,166 348,165 350,166 357,163 358,166 360,165 361,166 365,168 370,168 375,166 382,163 390,161 393,160 394,159 397,158 396,157 394,153 399,148 400,148 403,148 409,146 410,147 414,147 413,148 417,149 418,150 419,150 421,153 420,153 420,155 422,155 426,153 430,152 431,152 431,152 433,151 438,153 439,152 445,152 447,150 449,150 450,149 452,149 455,147 459,147 464,147 467,147 468,148 469,149 467,150 467,150 463,153 462,154 461,155 464,156 465,157 463,159 463,161 461,163 461,164 465,165 464,167 467,168 466,170 469,170 468,172 462,174 458,176 454,179 454,180 456,182 455,183 455,184 454,185 455,185 455,186 461,186 463,187 464,187 464,188 465,187 465,188 468,188 467,188 469,188 469,189 468,190 470,191 472,194 474,194 477,197 479,198 482,200 482,201 485,202 491,203 490,205 491,206 489,209 491,210 493,212 492,213 488,212 487,212 490,215 486,218 485,217 485,219 484,220 481,218 479,219 478,219 474,220 473,219 471,221 469,223 461,219 456,222 451,223 447,225 444,225 442,225 441,224 440,223 434,223 433,221 426,222 426,224 421,224 419,228 419,230 419,230 429,229 440,230 439,232 442,233 443,235 442,236 442,239 443,239 443,241 445,241 444,242 442,241 439,242 436,242 434,244 432,243 430,245 430,246 428,247 428,246 424,247 422,246 420,248 416,247 418,249 418,253 420,256 421,256 423,255 426,255 422,260 425,264 425,266 427,267 424,267 423,267 417,265 416,266 411,265 411,264 407,264 404,263 402,263 399,265 395,265 391,265 389,265 387,266" id="514" class="arrondissement" fill="steelblue" stroke-width="1" stroke="white" geotype="arrondissement" geoname="VITRY-LE-FRANCOIS" code_insee="514" code_departement="51" code_region_2015="21"/><polygon points="400,148 400,146 400,146 396,137 399,136 395,135 392,133 391,133 389,127 386,121 383,120 380,121 378,120 372,123 370,121 368,121 364,116 358,117 359,117 356,118 353,114 355,115 349,96 353,96 354,97 358,97 361,97 362,98 366,96 367,97 370,96 368,94 372,92 370,92 370,91 375,92 375,91 374,88 371,88 371,85 372,84 375,77 371,78 371,77 370,77 370,76 370,75 374,73 380,68 382,65 381,63 379,63 378,62 377,62 377,61 375,62 374,62 373,61 369,62 369,61 365,62 363,58 362,58 362,57 363,57 362,56 352,58 345,51 342,46 342,42 341,38 348,37 350,35 353,34 356,34 358,35 359,34 361,35 361,35 366,35 367,36 366,36 363,38 365,39 363,40 364,42 369,42 369,44 368,44 370,45 369,46 372,48 372,51 371,52 376,52 376,53 380,53 383,51 387,50 391,47 393,46 398,46 398,48 402,48 405,47 405,47 410,50 410,50 419,49 424,51 427,50 428,49 431,48 432,48 432,49 432,51 436,50 435,52 436,52 438,52 440,53 446,54 447,55 448,52 446,52 446,51 448,49 451,48 451,46 452,46 451,44 455,45 457,44 461,43 465,43 463,45 468,44 467,46 464,47 471,50 473,51 473,52 479,52 481,57 485,60 485,61 481,63 476,64 471,67 469,68 473,71 477,77 480,83 481,85 483,87 487,92 487,96 487,101 489,104 489,106 488,107 489,107 477,117 478,117 491,113 499,116 499,117 499,118 500,118 499,119 499,121 497,122 497,123 498,125 500,124 499,126 493,125 489,126 488,127 488,128 486,129 487,129 489,129 490,130 493,129 493,131 497,130 500,131 497,135 497,138 495,139 494,140 492,140 493,141 492,143 488,143 483,145 476,146 475,146 474,145 468,148 467,147 464,147 459,147 455,147 452,149 450,149 449,150 447,150 445,152 439,152 438,153 433,151 431,152 431,152 430,152 426,153 422,155 420,155 420,153 421,153 419,150 418,150 417,149 413,148 414,147 410,147 409,146 403,148 400,148" id="515" class="arrondissement" fill="steelblue" stroke-width="1" stroke="white" geotype="arrondissement" geoname="SAINTE-MENEHOULD" code_insee="515" code_departement="51" code_region_2015="21"/></svg>