<?xml version="1.0" encoding="utf-8"?>
<svg version="1.1" id="svgmap" xmlns="http://www.w3.org/2000/svg" xmlns:xlink="http://www.w3.org/1999/xlink" x="0px" y="0px" width="100%" height="100%" viewBox="0 0 500 308">
<polygon points="225,263 223,264 220,263 218,265 216,265 214,263 213,264 212,262 210,263 209,262 207,263 205,262 205,261 206,260 203,258 201,262 199,262 198,264 197,263 199,262 198,258 200,257 196,252 195,251 192,252 190,253 189,253 185,250 183,250 182,249 180,248 176,249 175,245 173,244 173,244 171,243 169,241 165,238 165,236 161,237 160,237 158,237 157,238 156,238 150,237 149,238 147,239 147,238 147,237 149,237 149,237 143,233 141,233 135,233 135,232 133,233 131,233 130,230 131,229 131,229 128,229 125,226 123,226 122,228 119,228 113,230 111,229 109,229 105,227 103,229 101,229 100,225 100,223 97,221 100,220 100,219 101,219 100,218 95,219 93,218 94,216 93,215 91,216 89,215 86,216 83,215 84,214 87,215 89,213 91,215 94,215 95,214 95,212 93,212 88,211 85,212 83,210 80,210 79,209 79,207 83,206 83,204 82,204 82,202 85,203 87,203 86,199 86,198 82,197 85,195 85,195 86,195 86,194 91,193 92,190 92,190 91,187 97,185 95,182 98,180 97,179 100,178 106,178 108,182 108,183 109,184 110,184 115,180 118,180 117,178 117,175 119,175 117,172 120,172 119,171 124,169 123,166 122,165 124,165 125,165 127,165 128,167 130,169 134,169 135,171 138,171 138,170 140,171 142,171 142,170 143,170 144,170 146,170 149,170 149,170 150,170 150,170 151,170 151,170 152,170 152,170 153,170 153,170 153,171 154,171 154,172 155,172 155,174 156,173 157,174 157,175 157,176 155,176 157,179 161,176 165,175 167,178 165,179 168,181 172,181 172,182 175,181 176,184 176,184 179,185 178,188 181,188 182,187 185,187 187,189 189,188 190,189 188,190 192,191 198,187 198,189 202,188 205,186 209,185 210,184 208,184 205,180 210,177 212,177 214,178 216,176 220,175 224,173 227,174 230,173 233,173 233,172 232,172 230,171 229,171 229,170 232,170 232,169 233,168 236,170 238,167 236,166 235,163 239,162 246,165 245,166 243,165 243,168 245,169 247,167 250,170 249,171 249,173 247,174 247,174 253,174 257,172 264,171 268,168 266,171 267,170 272,174 274,174 275,173 276,173 278,173 281,172 289,175 289,176 297,176 296,178 294,179 295,181 289,184 285,182 285,181 284,181 283,184 288,184 288,186 290,190 287,193 294,195 297,194 291,196 287,199 286,199 286,199 284,199 285,199 281,200 282,199 281,198 280,198 279,201 274,202 272,204 271,203 272,204 275,204 274,211 273,212 273,212 269,214 268,213 258,216 259,216 258,217 253,217 248,216 242,217 241,217 240,217 238,220 233,221 230,224 234,226 234,227 231,226 233,228 230,229 233,231 233,232 233,232 233,231 232,231 230,231 231,233 229,234 227,233 226,234 229,235 229,237 231,239 230,240 235,243 239,244 241,246 244,247 246,247 248,249 243,251 245,253 248,252 247,254 245,255 243,256 244,254 242,254 240,256 235,260 231,260 230,262 227,261 229,260 229,259 227,259 227,259 225,258 225,263" id="572" class="arrondissement" fill="steelblue" stroke-width="1" stroke="white" geotype="arrondissement" geoname="CHATEAU-SALINS" code_insee="572" code_departement="57" code_region_2015="41"/><polygon points="249,173 249,171 250,170 247,167 245,169 243,168 243,165 245,166 246,165 239,162 235,163 236,166 238,167 236,170 233,168 232,169 232,170 229,170 229,171 230,171 232,172 233,172 233,173 230,173 227,174 224,173 220,175 216,176 214,178 212,177 210,177 205,180 208,184 210,184 209,185 205,186 202,188 198,189 198,187 192,191 188,190 190,189 189,188 187,189 185,187 182,187 181,188 178,188 179,185 176,184 176,184 175,181 172,182 172,181 168,181 165,179 167,178 165,175 161,176 157,179 155,176 157,176 157,175 157,174 156,173 158,172 157,170 159,169 159,168 161,168 160,168 160,167 161,167 166,169 168,168 169,165 170,166 171,166 170,164 173,162 172,161 173,161 180,162 180,161 182,159 184,159 186,157 188,156 189,157 188,158 191,158 192,159 194,160 191,156 190,156 189,155 191,154 191,151 197,148 199,149 204,149 207,149 206,146 207,145 202,142 199,140 198,141 196,140 195,136 196,135 195,133 191,132 189,130 192,129 198,129 201,127 206,127 207,123 207,121 203,119 195,118 194,117 192,118 190,117 191,116 193,115 186,114 188,109 191,109 192,106 198,103 201,101 205,103 210,103 210,104 212,104 214,105 217,108 220,109 223,109 227,109 231,108 234,108 249,113 253,112 254,111 253,110 253,106 257,106 258,105 257,102 255,100 255,98 250,95 251,94 257,91 261,92 261,93 265,95 268,95 268,95 270,94 274,93 276,91 278,91 282,91 284,94 287,96 289,97 293,95 299,98 301,100 304,100 305,102 306,101 307,103 307,105 304,107 302,107 300,108 299,109 297,109 294,114 294,117 296,117 297,118 296,119 298,121 297,122 295,124 293,125 292,126 293,131 291,133 292,134 286,135 285,134 287,133 286,133 285,133 284,133 282,134 277,129 275,130 274,129 272,130 273,135 270,135 264,137 264,138 265,138 271,138 273,139 264,143 260,145 256,146 258,151 254,152 254,153 258,154 257,155 258,155 258,156 259,157 264,157 264,158 262,160 264,161 267,164 268,166 267,165 262,165 262,167 257,167 255,168 255,170 251,171 249,171 249,173" id="573" class="arrondissement" fill="steelblue" stroke-width="1" stroke="white" geotype="arrondissement" geoname="FORBACH-BOULAY-MOSELLE" code_insee="573" code_departement="57" code_region_2015="41"/><polygon points="396,266 393,269 392,270 391,271 389,272 389,273 387,274 385,274 382,275 388,276 387,279 385,279 385,281 385,282 383,283 383,283 381,284 381,286 383,287 384,287 383,288 381,288 376,293 370,299 369,300 364,300 361,301 359,304 353,307 353,307 348,306 347,308 343,307 340,305 337,304 329,307 326,305 319,304 327,303 327,302 324,302 318,300 318,298 315,297 315,294 313,293 312,291 308,291 304,288 299,287 300,287 299,286 306,283 306,282 304,281 302,282 299,282 298,282 297,281 289,282 282,280 284,279 281,277 281,274 279,274 276,274 276,277 272,279 268,277 264,277 259,279 255,278 253,277 252,276 251,273 251,273 250,271 242,270 234,272 231,270 232,268 232,268 230,269 228,269 227,268 226,265 225,265 227,264 225,263 225,258 227,259 227,259 229,259 229,260 227,261 230,262 231,260 235,260 240,256 242,254 244,254 243,256 245,255 247,254 248,252 245,253 243,251 248,249 246,247 244,247 241,246 239,244 235,243 230,240 231,239 229,237 229,235 226,234 227,233 229,234 231,233 230,231 232,231 233,231 233,232 233,232 233,231 230,229 233,228 231,226 234,227 234,226 230,224 233,221 238,220 240,217 241,217 242,217 248,216 253,217 258,217 259,216 258,216 268,213 269,214 273,212 273,212 274,211 275,204 272,204 271,203 272,204 274,202 279,201 280,198 281,198 282,199 281,200 285,199 284,199 286,199 286,199 287,199 291,196 297,194 310,198 311,199 313,199 314,200 316,200 316,202 318,202 317,202 318,203 317,204 321,204 325,203 330,203 332,205 332,206 329,207 326,208 325,208 325,209 323,208 322,207 317,208 318,211 316,216 317,218 324,218 328,219 329,220 322,223 322,225 326,227 328,225 334,224 338,223 341,222 339,221 340,219 342,217 344,217 347,216 345,212 346,210 346,210 348,209 355,210 356,209 355,208 359,207 362,210 359,212 365,214 366,214 367,215 368,216 370,217 371,216 369,214 372,214 377,217 381,216 383,217 383,217 379,218 377,219 379,221 382,221 382,223 385,222 388,223 391,223 392,224 392,224 391,227 394,228 397,232 399,233 398,234 393,237 390,244 390,244 386,249 384,249 384,254 382,256 378,255 377,256 381,262 381,262 382,262 383,262 384,265 385,266 388,266 389,266 396,266" id="575" class="arrondissement" fill="steelblue" stroke-width="1" stroke="white" geotype="arrondissement" geoname="SARREBOURG" code_insee="575" code_departement="57" code_region_2015="41"/><polygon points="461,178 457,178 453,176 450,172 443,172 442,170 435,172 428,173 424,175 420,176 416,175 413,174 412,175 412,175 408,176 405,176 403,178 398,176 397,174 391,174 392,171 391,171 393,169 387,168 383,166 381,166 379,165 375,164 366,167 362,162 359,162 358,160 355,158 351,160 351,158 340,158 341,156 339,155 339,153 339,151 337,151 336,150 338,149 334,146 334,143 333,142 333,140 336,140 338,139 336,138 334,138 332,136 330,138 327,139 325,137 322,140 324,143 326,145 318,151 316,156 318,157 317,158 317,158 316,159 316,160 315,160 316,160 315,161 314,161 313,162 313,163 312,162 312,162 312,163 312,163 312,163 312,164 311,163 311,164 311,166 312,166 312,166 313,166 312,167 312,167 313,167 314,167 313,168 313,167 312,168 313,168 312,168 312,169 313,169 313,168 313,169 313,169 311,168 309,170 311,174 309,174 307,174 304,174 303,174 302,173 300,173 299,173 297,173 297,176 289,176 289,175 281,172 278,173 276,173 275,173 274,174 272,174 267,170 266,171 268,168 264,171 257,172 253,174 247,174 247,174 249,173 249,171 251,171 255,170 255,168 257,167 262,167 262,165 267,165 268,166 267,164 264,161 262,160 264,158 264,157 259,157 258,156 258,155 257,155 258,154 254,153 254,152 258,151 256,146 260,145 264,143 273,139 271,138 265,138 264,138 264,137 270,135 273,135 272,130 274,129 275,130 277,129 282,134 284,133 285,133 286,133 287,133 285,134 286,135 292,134 291,133 293,131 292,126 293,125 295,124 297,122 298,121 296,119 297,118 296,117 294,117 294,114 297,109 299,109 300,108 302,107 304,107 307,105 307,103 306,101 308,100 308,101 312,101 310,107 311,109 311,111 316,118 315,120 315,123 317,125 319,125 322,125 324,122 329,120 329,119 327,116 327,115 326,114 327,113 329,113 333,112 336,113 333,115 334,117 340,116 342,119 343,120 348,121 351,123 353,120 356,120 359,119 362,122 363,124 365,122 366,122 377,120 379,121 384,122 386,122 388,122 389,122 389,124 393,125 396,122 399,118 404,115 414,116 414,115 414,114 414,112 416,110 415,108 415,107 420,106 440,103 439,104 437,104 437,105 438,106 439,107 438,107 436,108 436,109 436,109 438,109 440,108 442,108 443,109 444,110 448,108 455,108 456,112 459,112 459,113 456,115 455,116 454,116 453,118 456,118 458,122 462,123 464,127 466,129 466,130 469,130 468,131 475,135 478,135 488,134 494,137 497,137 498,143 500,145 495,150 490,154 491,156 484,163 484,164 485,164 485,165 482,170 483,171 482,172 481,174 478,174 473,178 474,179 473,180 475,180 468,181 465,178 463,179 461,178" id="576" class="arrondissement" fill="steelblue" stroke-width="1" stroke="white" geotype="arrondissement" geoname="SARREGUEMINES" code_insee="576" code_departement="57" code_region_2015="41"/><polygon points="50,79 50,78 49,77 48,78 46,76 46,75 48,75 48,73 47,71 46,69 41,67 41,66 40,64 44,61 43,60 40,60 39,58 37,57 37,58 32,57 32,55 30,55 26,53 24,51 21,52 20,51 18,51 18,52 16,51 15,50 13,51 11,51 12,50 8,49 8,49 10,45 14,43 13,42 9,42 8,41 7,39 8,39 9,38 13,38 14,37 9,35 5,37 4,36 4,35 2,32 4,32 2,29 1,30 0,29 2,27 0,26 2,24 3,21 6,16 8,15 14,16 15,18 17,19 21,19 21,15 22,14 24,13 25,14 28,13 30,7 31,8 34,7 34,9 35,8 37,7 39,7 40,7 38,4 39,3 41,3 44,1 46,2 51,3 57,3 57,2 61,1 63,2 65,0 67,2 70,2 72,3 77,4 77,6 80,7 80,7 78,7 80,9 83,8 82,11 85,12 87,11 88,12 90,12 94,15 96,14 98,15 100,15 103,17 105,17 104,14 106,16 108,15 112,16 115,15 121,12 123,12 127,15 128,15 132,16 134,15 141,19 145,20 153,25 156,25 159,26 163,30 162,31 161,30 157,32 158,35 162,36 162,37 163,43 159,44 158,45 159,46 163,45 163,46 160,47 160,48 158,47 157,48 153,50 153,50 149,52 147,52 141,54 137,52 139,51 138,49 136,49 134,48 133,48 133,48 131,47 130,49 129,47 124,50 130,51 124,53 119,56 120,57 122,58 118,60 118,62 110,64 107,65 107,66 109,66 111,68 108,70 109,71 107,73 107,76 104,77 107,78 107,79 105,79 106,80 108,80 105,82 101,82 102,83 98,85 98,86 96,85 95,88 90,90 86,90 84,88 80,89 79,85 80,84 77,82 78,80 77,79 79,77 77,76 74,76 71,75 71,77 70,78 70,79 67,79 64,82 63,81 61,81 61,81 62,80 62,79 63,77 60,79 61,79 58,80 55,83 53,83 53,81 54,81 54,80 51,80 50,79" id="577" class="arrondissement" fill="steelblue" stroke-width="1" stroke="white" geotype="arrondissement" geoname="THIONVILLE" code_insee="577" code_departement="57" code_region_2015="41"/><polygon points="41,135 46,135 43,130 39,129 41,127 40,127 42,124 36,123 39,121 32,120 33,119 32,117 33,117 32,117 33,117 33,116 36,116 36,116 37,117 38,116 41,116 41,115 42,115 43,114 46,115 49,116 52,116 51,119 48,121 50,121 52,123 53,123 53,122 54,122 55,121 53,120 55,119 55,118 58,117 63,123 65,123 68,123 67,126 70,127 66,127 66,130 69,131 64,133 60,134 57,132 56,133 55,134 56,137 51,137 53,139 53,140 50,141 48,139 44,141 43,138 42,137 41,138 41,137 42,136 41,135" id="579" class="arrondissement" fill="steelblue" stroke-width="1" stroke="white" geotype="arrondissement" geoname="METZ" code_insee="579" code_departement="57" code_region_2015="41"/></svg>