<?xml version="1.0" encoding="utf-8"?>
<svg version="1.1" id="svgmap" xmlns="http://www.w3.org/2000/svg" xmlns:xlink="http://www.w3.org/1999/xlink" x="0px" y="0px" width="100%" height="100%" viewBox="0 0 500 219">
<polygon points="74,44 75,44 75,44 74,44 74,44" id="801" class="arrondissement" fill="steelblue" stroke-width="1" stroke="white" geotype="arrondissement" geoname="ABBEVILLE" code_insee="801" code_departement="80" code_region_2015="22"/><polygon points="73,47 73,47 73,47 73,47 73,47" id="801" class="arrondissement" fill="steelblue" stroke-width="1" stroke="white" geotype="arrondissement" geoname="ABBEVILLE" code_insee="801" code_departement="80" code_region_2015="22"/><polygon points="79,49 79,49 79,49 79,49 79,49" id="801" class="arrondissement" fill="steelblue" stroke-width="1" stroke="white" geotype="arrondissement" geoname="ABBEVILLE" code_insee="801" code_departement="80" code_region_2015="22"/><polygon points="95,145 95,144 92,143 93,143 93,139 93,138 92,138 91,136 92,136 91,134 91,132 89,131 87,131 85,129 85,128 84,128 84,126 82,125 82,124 80,123 77,123 77,122 73,121 69,120 66,119 65,118 64,118 64,118 63,117 58,115 57,112 54,112 53,109 50,107 40,103 40,102 39,100 38,100 37,98 33,96 31,97 29,95 26,92 21,91 19,89 19,89 21,89 20,86 22,84 20,84 19,82 14,82 14,82 13,82 12,81 9,82 11,82 8,86 5,86 4,84 3,84 3,85 0,84 3,81 10,78 11,77 17,74 20,71 24,63 27,57 28,57 28,56 29,54 29,53 36,47 39,46 42,43 52,42 49,43 49,44 52,47 54,48 58,49 62,49 62,49 67,49 72,51 73,53 72,50 75,52 74,52 74,52 76,52 78,51 77,52 80,52 78,51 75,51 75,51 75,50 77,50 77,50 79,50 79,49 81,48 79,49 78,49 73,50 71,50 69,49 73,48 73,48 73,47 75,47 73,47 72,47 72,47 72,47 71,47 72,46 72,45 74,45 76,44 78,45 78,45 75,44 74,44 74,44 72,44 73,44 73,43 70,43 70,43 71,43 74,42 72,42 69,42 70,43 69,42 68,43 66,42 57,32 48,31 46,30 44,25 44,18 46,11 47,5 48,2 51,1 52,2 54,2 56,2 61,2 62,1 63,2 64,1 65,0 68,0 68,2 68,3 69,3 73,6 72,7 73,7 73,8 74,8 75,9 77,9 78,10 77,11 78,11 84,9 86,9 86,8 85,8 85,7 86,7 86,8 89,7 95,7 96,6 99,5 97,5 104,3 105,2 111,2 111,3 113,3 116,3 121,5 124,7 126,6 128,7 129,7 130,8 131,9 131,10 133,9 134,10 135,10 136,12 135,12 136,13 137,14 141,14 142,14 142,16 148,16 149,14 152,12 153,11 155,11 159,12 160,14 159,15 160,16 158,16 151,19 155,21 155,23 157,23 158,22 157,22 159,22 162,24 164,24 167,26 168,26 171,27 172,27 174,28 177,28 179,29 180,28 180,29 182,29 183,31 185,32 188,31 189,33 191,32 191,33 190,35 188,35 187,37 189,38 189,39 190,39 191,40 190,41 191,41 190,41 192,41 193,42 194,46 192,48 193,49 192,50 194,50 194,51 195,52 196,51 197,52 196,50 198,51 197,53 198,53 198,54 196,54 196,56 198,58 199,59 198,61 199,62 193,65 192,65 191,65 191,66 192,67 190,68 190,73 189,74 191,75 192,78 190,79 190,80 189,80 188,80 189,81 188,83 190,83 192,85 193,85 195,85 193,86 193,85 190,86 188,84 186,84 180,83 179,85 181,86 182,86 185,88 190,89 190,91 192,91 193,91 191,92 191,92 188,93 187,92 188,92 187,91 184,91 183,91 183,90 179,88 176,88 174,88 173,91 172,92 170,94 172,95 172,96 170,101 168,100 166,102 165,101 165,101 160,100 158,101 157,103 155,102 152,102 152,102 152,102 148,104 147,103 144,104 144,105 143,106 143,107 144,107 142,107 143,109 146,110 146,112 148,112 148,113 146,114 146,114 139,118 144,119 143,120 144,121 141,122 144,124 142,126 142,128 141,128 139,129 140,130 139,131 138,130 128,135 127,135 126,134 122,135 122,134 119,132 118,133 117,133 117,133 116,134 114,136 115,137 112,136 114,137 110,141 109,141 103,143 105,143 103,144 104,145 103,144 97,145 97,144 96,145 96,146 95,145" id="801" class="arrondissement" fill="steelblue" stroke-width="1" stroke="white" geotype="arrondissement" geoname="ABBEVILLE" code_insee="801" code_departement="80" code_region_2015="22"/><polygon points="52,42 52,42 52,42 52,42 52,42" id="801" class="arrondissement" fill="steelblue" stroke-width="1" stroke="white" geotype="arrondissement" geoname="ABBEVILLE" code_insee="801" code_departement="80" code_region_2015="22"/><polygon points="69,47 70,47 70,47 69,47 69,47" id="801" class="arrondissement" fill="steelblue" stroke-width="1" stroke="white" geotype="arrondissement" geoname="ABBEVILLE" code_insee="801" code_departement="80" code_region_2015="22"/><polygon points="74,50 75,50 75,50 74,50 74,50" id="801" class="arrondissement" fill="steelblue" stroke-width="1" stroke="white" geotype="arrondissement" geoname="ABBEVILLE" code_insee="801" code_departement="80" code_region_2015="22"/><polygon points="72,47 73,47 73,47 72,47 72,47" id="801" class="arrondissement" fill="steelblue" stroke-width="1" stroke="white" geotype="arrondissement" geoname="ABBEVILLE" code_insee="801" code_departement="80" code_region_2015="22"/><polygon points="68,47 68,47 69,47 68,47 68,47" id="801" class="arrondissement" fill="steelblue" stroke-width="1" stroke="white" geotype="arrondissement" geoname="ABBEVILLE" code_insee="801" code_departement="80" code_region_2015="22"/><polygon points="222,183 221,183 220,183 218,184 216,183 212,183 210,184 208,186 204,187 201,185 196,186 195,186 192,185 190,188 188,188 187,188 185,188 184,188 183,187 188,187 186,186 186,185 185,184 183,185 183,183 180,182 181,182 180,181 178,181 178,181 173,182 171,181 172,180 171,180 167,181 167,181 164,181 162,179 162,178 160,179 159,182 156,184 152,178 150,179 147,180 141,184 137,184 134,183 129,183 126,181 126,180 127,180 126,179 123,178 121,179 121,178 126,175 126,174 125,173 121,173 118,169 115,170 115,169 114,170 112,169 114,169 113,168 111,168 112,167 110,165 108,163 104,162 104,161 102,159 100,157 100,155 97,153 95,147 95,145 96,146 96,145 97,144 97,145 103,144 104,145 103,144 105,143 103,143 109,141 110,141 114,137 112,136 115,137 114,136 116,134 117,133 117,133 118,133 119,132 122,134 122,135 126,134 127,135 128,135 138,130 139,131 140,130 139,129 141,128 142,128 142,126 144,124 141,122 144,121 143,120 144,119 139,118 146,114 146,114 148,113 148,112 146,112 146,110 143,109 142,107 144,107 143,107 143,106 144,105 144,104 147,103 148,104 152,102 152,102 152,102 155,102 157,103 158,101 160,100 165,101 165,101 166,102 168,100 170,101 172,96 172,95 170,94 172,92 173,91 174,88 176,88 179,88 183,90 183,91 184,91 187,91 188,92 187,92 188,93 191,92 191,92 193,91 192,91 190,91 190,89 185,88 182,86 181,86 179,85 180,83 186,84 188,84 190,86 193,85 193,86 195,85 193,85 192,85 190,83 188,83 189,81 188,80 189,80 190,80 190,79 192,78 191,75 189,74 190,73 190,68 192,67 191,66 191,65 192,65 193,65 199,62 198,61 199,59 198,58 196,56 196,54 198,54 198,53 197,53 198,51 196,50 197,52 196,51 195,52 194,51 194,50 192,50 193,49 192,48 194,46 196,46 196,44 197,45 198,45 198,44 201,46 202,44 203,45 203,44 207,44 209,46 211,49 212,48 212,49 214,48 218,44 219,44 219,44 221,44 223,44 225,43 225,43 228,43 228,42 231,42 232,44 231,44 232,44 233,44 237,43 238,44 239,43 244,39 250,42 252,43 253,43 258,41 259,41 259,42 260,43 261,42 261,40 258,38 257,38 256,37 261,36 262,37 267,42 269,43 267,45 269,45 271,44 272,44 272,42 273,41 274,42 274,40 275,40 276,40 278,40 278,39 279,39 282,37 283,37 285,39 290,39 294,38 296,41 300,44 303,44 304,45 306,47 306,48 303,49 300,50 294,52 293,52 292,53 292,52 291,52 289,52 287,52 285,54 284,54 284,56 284,56 283,57 281,56 279,59 277,59 277,59 277,60 277,61 278,61 277,63 275,63 276,64 274,68 274,69 273,69 274,70 273,72 276,72 277,72 278,72 277,71 278,71 279,72 281,72 280,74 284,74 285,77 288,77 292,69 293,67 295,65 296,66 296,65 299,65 301,64 305,64 311,63 312,66 316,70 319,69 320,67 319,67 320,66 320,64 321,63 323,62 326,64 329,63 329,64 331,64 330,64 330,65 326,68 326,68 328,70 332,71 333,72 334,72 335,72 338,71 340,71 343,72 343,73 344,74 339,78 339,81 343,83 342,86 341,86 339,87 342,91 341,91 337,91 336,90 332,91 334,93 333,94 334,96 335,98 334,98 333,97 332,97 328,98 328,101 326,102 327,102 325,103 325,104 325,105 326,105 328,105 329,107 330,112 329,113 328,112 328,112 326,114 324,114 324,114 321,115 319,117 315,118 314,119 315,119 315,118 318,119 318,119 322,120 323,119 323,119 326,119 326,118 326,119 328,118 329,119 329,119 326,119 328,120 327,123 324,123 324,124 325,124 326,124 328,124 332,126 334,127 336,127 336,128 334,128 335,128 335,129 334,129 333,131 335,131 333,133 337,133 335,133 337,134 336,135 338,135 338,138 336,141 333,141 332,144 333,144 333,146 333,146 334,146 332,147 333,147 332,149 330,149 325,149 320,142 317,142 318,144 315,146 314,146 314,144 313,144 312,143 310,143 310,143 307,142 305,143 301,144 301,145 300,146 299,146 297,146 297,147 296,147 295,148 293,153 294,153 293,154 293,154 294,155 293,156 288,159 287,161 286,160 284,162 283,161 281,162 280,165 278,166 272,165 272,164 271,164 268,166 264,164 262,165 260,163 257,164 257,163 255,164 255,165 252,164 254,167 252,166 250,167 250,166 248,167 249,167 248,170 246,171 247,172 246,172 246,174 242,174 240,173 237,174 235,174 236,177 233,178 233,177 229,178 229,177 229,178 229,176 226,177 224,176 222,177 220,176 220,176 223,180 222,180 223,181 221,182 222,183" id="802" class="arrondissement" fill="steelblue" stroke-width="1" stroke="white" geotype="arrondissement" geoname="AMIENS" code_insee="802" code_departement="80" code_region_2015="22"/><polygon points="439,183 438,182 437,184 434,186 430,185 431,188 430,189 432,190 431,190 432,193 432,193 430,191 429,191 428,189 426,190 425,190 427,189 425,189 424,188 425,187 421,183 421,181 419,182 420,183 418,184 415,184 412,180 412,180 413,181 408,183 409,184 411,185 411,186 413,187 414,189 415,191 414,192 411,190 410,188 409,188 408,188 405,188 407,189 403,191 402,192 403,194 401,195 400,194 399,195 397,194 395,195 390,194 389,195 390,195 388,196 388,198 387,198 388,199 387,200 388,203 389,206 388,207 386,208 383,207 382,208 378,206 378,205 373,204 373,205 370,204 369,204 368,205 365,204 363,205 362,204 359,204 359,206 359,207 357,209 357,209 355,209 355,211 355,211 353,211 355,213 354,214 355,215 354,216 353,217 352,217 348,219 344,217 343,217 342,215 342,215 343,214 342,213 344,212 341,210 342,209 342,208 339,208 337,209 335,209 334,208 333,208 333,209 330,209 331,210 330,210 330,211 329,212 328,211 327,212 326,211 326,210 323,210 323,209 325,208 325,206 319,207 319,206 317,206 318,204 315,204 315,203 313,204 309,202 309,200 304,203 304,204 301,206 297,204 300,202 300,201 298,201 296,202 294,202 295,200 294,200 293,198 292,197 290,196 287,196 286,195 284,195 283,194 280,195 277,196 273,196 270,195 269,193 268,194 266,194 266,194 262,192 262,189 261,189 257,187 257,187 253,189 250,188 248,186 241,185 239,185 238,183 234,183 233,183 230,183 226,184 223,183 222,183 221,182 223,181 222,180 223,180 220,176 220,176 222,177 224,176 226,177 229,176 229,178 229,177 229,178 233,177 233,178 236,177 235,174 237,174 240,173 242,174 246,174 246,172 247,172 246,171 248,170 249,167 248,167 250,166 250,167 252,166 254,167 252,164 255,165 255,164 257,163 257,164 260,163 262,165 264,164 268,166 271,164 272,164 272,165 278,166 280,165 281,162 283,161 284,162 286,160 287,161 288,159 293,156 294,155 293,154 293,154 294,153 293,153 295,148 296,147 297,147 297,146 299,146 300,146 301,145 301,144 305,143 307,142 310,143 310,143 312,143 313,144 314,144 314,146 315,146 318,144 317,142 320,142 325,149 330,149 332,149 333,147 332,147 334,146 333,146 333,146 333,144 332,144 333,141 336,141 338,138 338,135 340,135 340,134 345,135 345,136 348,136 347,136 349,136 354,136 354,135 356,135 359,135 358,136 359,136 360,137 358,139 361,140 361,140 358,144 359,144 358,146 360,146 359,147 365,148 365,147 368,147 372,148 372,150 371,150 373,152 372,152 376,154 376,153 379,154 379,152 384,153 384,154 387,154 386,155 388,156 388,156 390,156 390,155 393,155 396,160 397,160 399,160 400,161 402,161 403,160 405,160 406,161 406,160 408,160 409,158 411,158 410,157 414,156 415,159 415,161 413,162 415,164 414,164 411,167 414,167 413,169 414,171 416,171 417,171 421,170 422,171 420,172 421,172 422,173 422,174 423,173 425,175 426,175 426,174 428,174 429,172 431,171 432,171 434,173 434,175 435,176 435,177 439,180 438,181 440,181 439,183" id="803" class="arrondissement" fill="steelblue" stroke-width="1" stroke="white" geotype="arrondissement" geoname="MONTDIDIER" code_insee="803" code_departement="80" code_region_2015="22"/><polygon points="439,183 440,181 438,181 439,180 435,177 435,176 434,175 434,173 432,171 431,171 429,172 428,174 426,174 426,175 425,175 423,173 422,174 422,173 421,172 420,172 422,171 421,170 417,171 416,171 414,171 413,169 414,167 411,167 414,164 415,164 413,162 415,161 415,159 414,156 410,157 411,158 409,158 408,160 406,160 406,161 405,160 403,160 402,161 400,161 399,160 397,160 396,160 393,155 390,155 390,156 388,156 388,156 386,155 387,154 384,154 384,153 379,152 379,154 376,153 376,154 372,152 373,152 371,150 372,150 372,148 368,147 365,147 365,148 359,147 360,146 358,146 359,144 358,144 361,140 361,140 358,139 360,137 359,136 358,136 359,135 356,135 354,135 354,136 349,136 347,136 348,136 345,136 345,135 340,134 340,135 338,135 336,135 337,134 335,133 337,133 333,133 335,131 333,131 334,129 335,129 335,128 334,128 336,128 336,127 334,127 332,126 328,124 326,124 325,124 324,124 324,123 327,123 328,120 326,119 329,119 329,119 328,118 326,119 326,118 326,119 323,119 323,119 322,120 318,119 318,119 315,118 315,119 314,119 315,118 319,117 321,115 324,114 324,114 326,114 328,112 328,112 329,113 330,112 329,107 328,105 326,105 325,105 325,104 325,103 327,102 326,102 328,101 328,98 332,97 333,97 334,98 335,98 334,96 333,94 334,93 332,91 336,90 337,91 341,91 342,91 339,87 341,86 342,86 343,83 339,81 339,78 344,74 348,76 350,74 353,75 354,76 357,75 360,76 363,79 364,78 366,79 367,77 361,73 361,72 366,71 365,70 365,69 364,67 365,66 370,67 376,71 378,71 379,71 383,70 384,71 383,74 384,75 383,76 385,77 383,78 383,79 382,78 382,80 382,79 381,81 379,82 380,85 374,88 375,89 376,91 377,91 379,90 379,91 383,90 383,89 386,87 386,89 388,88 388,87 391,84 393,86 394,84 395,84 396,83 398,84 399,83 399,82 401,81 403,80 405,80 405,80 405,83 405,85 406,85 407,85 408,87 411,90 409,92 407,93 406,92 403,93 405,94 405,94 405,95 406,95 407,96 408,95 410,96 411,95 410,94 413,93 416,91 421,91 422,92 422,91 423,90 422,89 422,88 424,88 423,89 426,90 426,89 427,89 428,88 429,87 430,87 434,88 436,88 436,90 437,90 438,89 443,88 443,88 444,87 446,86 448,86 448,85 451,87 453,86 454,85 453,86 457,86 461,88 464,88 465,89 467,88 468,88 469,87 470,87 469,88 476,91 476,92 477,94 479,94 478,95 485,94 485,96 486,96 488,97 490,96 492,98 491,99 490,100 490,102 487,104 490,104 490,103 491,104 490,104 490,104 490,105 490,105 492,104 492,105 493,106 497,105 498,105 498,106 500,105 497,108 495,108 494,109 491,110 489,111 489,112 490,112 488,115 489,115 490,115 490,116 485,118 484,119 482,119 482,120 481,120 479,122 478,122 478,124 477,125 478,126 476,127 478,128 477,128 478,129 478,129 476,130 477,131 477,132 477,134 474,136 470,137 470,138 468,138 469,138 467,138 468,137 467,135 465,135 465,135 464,136 466,138 467,144 468,145 466,145 465,146 463,146 463,147 460,148 461,149 461,151 466,150 467,151 468,151 466,153 466,154 468,155 467,157 468,159 466,160 464,159 464,161 463,161 461,162 463,163 462,164 466,166 466,165 470,166 472,166 470,168 471,169 470,170 471,171 472,174 473,176 476,176 475,178 477,179 477,180 478,182 478,182 477,182 471,182 470,184 468,185 467,186 466,186 466,185 468,182 467,180 466,181 462,180 460,181 459,180 461,183 460,186 455,185 453,188 452,189 449,188 449,186 447,186 446,185 446,183 442,182 441,181 442,183 439,183" id="804" class="arrondissement" fill="steelblue" stroke-width="1" stroke="white" geotype="arrondissement" geoname="PERONNE" code_insee="804" code_departement="80" code_region_2015="22"/></svg>