<?xml version="1.0" encoding="utf-8"?>
<svg version="1.1" id="svgmap" xmlns="http://www.w3.org/2000/svg" xmlns:xlink="http://www.w3.org/1999/xlink" x="0px" y="0px" width="100%" height="100%" viewBox="0 0 500 367">
<polygon points="59,366 43,364 45,361 49,361 51,359 46,359 42,361 43,358 38,359 36,353 33,349 44,344 45,346 48,346 50,342 45,338 51,334 40,325 45,322 44,314 55,308 52,305 47,304 50,300 49,297 39,295 44,289 44,285 47,281 48,280 36,278 25,276 12,278 10,276 14,273 9,271 10,269 13,269 13,266 19,266 20,262 17,260 19,255 16,255 21,250 14,250 14,244 10,243 12,241 10,240 11,238 6,238 6,236 3,236 2,234 0,235 3,230 0,229 2,226 0,226 8,221 14,220 15,209 19,201 24,198 23,193 29,191 29,189 31,189 36,185 40,185 40,187 48,187 46,179 43,178 39,179 41,182 26,176 27,171 22,175 15,170 17,160 28,162 36,161 43,162 48,166 51,163 67,165 77,163 76,155 81,149 81,146 91,140 90,136 87,136 88,133 89,127 105,126 109,134 114,135 122,132 129,136 133,136 141,136 147,140 153,137 163,136 164,139 170,138 173,141 174,144 178,149 188,146 194,148 196,146 204,148 213,147 210,149 212,150 221,154 230,151 233,156 231,168 239,170 239,176 250,177 250,182 254,184 257,182 261,180 262,182 272,180 276,181 279,179 279,173 284,174 293,176 283,182 287,189 292,188 297,191 303,190 306,192 307,194 318,190 319,186 315,182 317,179 321,177 331,179 334,180 342,179 335,185 337,199 367,203 368,205 376,203 393,210 391,216 400,218 398,221 390,219 390,221 390,224 396,225 394,230 399,235 396,238 396,241 392,240 384,240 379,238 372,239 372,247 379,255 378,260 381,265 375,269 357,272 357,274 353,272 348,259 343,255 330,262 331,266 321,271 322,268 318,268 312,272 311,275 305,280 307,280 305,283 312,284 308,297 305,301 295,304 290,314 291,316 306,313 305,316 307,316 308,319 309,321 319,318 319,320 324,319 321,321 313,330 310,329 310,331 308,333 306,331 301,333 301,332 298,333 292,340 288,347 285,350 275,346 267,347 265,344 254,355 247,357 248,349 252,343 242,343 248,334 246,331 245,333 241,332 237,335 231,328 225,330 223,325 219,324 219,322 215,322 217,324 215,327 204,331 204,335 200,338 200,340 202,339 199,346 199,347 192,344 190,346 177,344 179,349 180,353 184,352 185,354 185,357 146,358 149,350 140,351 132,356 131,360 103,359 102,363 94,367 92,364 82,364 72,367 59,366" id="911" class="arrondissement" fill="steelblue" stroke-width="1" stroke="white" geotype="arrondissement" geoname="ETAMPES" code_insee="911" code_departement="91" code_region_2015="11"/><polygon points="310,331 310,329 313,330 321,321 324,319 319,320 319,318 309,321 308,319 307,316 305,316 306,313 291,316 290,314 295,304 305,301 308,297 312,284 305,283 307,280 305,280 311,275 312,272 318,268 322,268 321,271 331,266 330,262 343,255 348,259 353,272 357,274 357,272 375,269 381,265 378,260 379,255 372,247 372,239 379,238 384,240 392,240 396,241 396,238 399,235 394,230 396,225 390,224 390,221 390,219 398,221 400,218 391,216 393,210 376,203 368,205 367,203 337,199 335,185 342,179 334,180 331,179 324,174 325,172 320,167 324,163 321,162 321,159 318,157 318,152 314,150 319,143 316,143 317,139 317,136 324,136 329,133 333,135 335,130 334,125 331,123 332,118 325,116 327,112 325,111 331,103 329,101 315,94 319,81 329,79 341,68 352,69 355,63 363,55 367,47 374,44 389,39 392,38 395,39 395,41 401,46 399,40 403,42 405,40 402,39 408,39 412,35 413,37 417,36 419,36 426,35 440,31 442,30 443,32 445,31 449,35 452,47 459,52 457,53 461,57 464,56 464,59 468,57 470,58 470,61 472,60 471,62 476,64 474,65 479,66 491,63 499,65 497,67 500,74 491,75 491,80 489,82 485,81 480,75 475,80 473,78 463,85 466,87 462,89 473,94 469,97 468,107 458,107 453,108 449,110 457,116 457,122 468,123 469,125 468,134 463,139 451,144 454,151 461,151 460,153 452,154 452,159 440,172 437,171 437,174 446,174 443,179 439,181 441,182 438,186 436,186 436,193 444,194 443,200 448,199 446,210 445,215 439,218 441,221 438,223 441,226 439,227 443,229 438,231 442,235 437,237 436,238 442,242 441,245 443,246 438,251 443,252 441,259 450,260 458,269 473,280 454,277 453,280 439,286 436,283 425,283 418,288 426,293 414,299 401,300 398,301 401,306 398,306 395,304 385,309 396,313 393,317 389,315 385,321 388,330 384,328 371,328 364,331 357,329 358,336 365,340 362,342 363,344 361,346 358,345 355,347 340,349 338,347 331,349 330,348 324,343 319,344 314,335 309,336 310,331" id="912" class="arrondissement" fill="steelblue" stroke-width="1" stroke="white" geotype="arrondissement" geoname="EVRY" code_insee="912" code_departement="91" code_region_2015="11"/><polygon points="105,126 104,122 106,123 110,118 104,118 105,116 99,116 96,112 95,112 94,108 89,108 91,107 92,100 79,100 76,101 78,98 71,95 73,91 72,87 85,89 86,84 89,72 92,72 96,72 98,66 105,67 114,67 112,65 115,64 125,68 130,58 137,61 136,55 139,55 146,46 144,44 143,42 148,40 140,34 141,32 137,31 142,28 151,27 153,25 158,29 165,29 168,25 166,22 170,23 177,16 184,19 189,15 199,13 203,17 205,16 208,9 206,4 203,3 206,1 214,0 214,3 221,5 222,3 235,4 233,0 235,1 238,7 242,7 248,11 265,11 265,14 270,15 277,21 269,26 273,32 290,26 291,35 299,34 302,29 298,28 301,26 299,24 303,20 306,20 306,18 311,21 316,26 324,26 328,28 330,28 335,22 340,22 341,36 341,42 351,43 356,40 361,41 364,37 371,37 371,40 374,41 374,44 367,47 363,55 355,63 352,69 341,68 329,79 319,81 315,94 329,101 331,103 325,111 327,112 325,116 332,118 331,123 334,125 335,130 333,135 329,133 324,136 317,136 317,139 316,143 319,143 314,150 318,152 318,157 321,159 321,162 324,163 320,167 325,172 324,174 331,179 321,177 317,179 315,182 319,186 318,190 307,194 306,192 303,190 297,191 292,188 287,189 283,182 293,176 284,174 279,173 279,179 276,181 272,180 262,182 261,180 257,182 254,184 250,182 250,177 239,176 239,170 231,168 233,156 230,151 221,154 212,150 210,149 213,147 204,148 196,146 194,148 188,146 178,149 174,144 173,141 170,138 164,139 163,136 153,137 147,140 141,136 133,136 129,136 122,132 114,135 109,134 105,126" id="913" class="arrondissement" fill="steelblue" stroke-width="1" stroke="white" geotype="arrondissement" geoname="PALAISEAU" code_insee="913" code_departement="91" code_region_2015="11"/></svg>